0, 0, Header, 1, 4, 120
1, 0, Start_track
1, 0, Time_signature, 3, 3, 12, 8
1, 0, Key_signature, 4, "major"
1, 0, Tempo, 1178782
1, 120, Tempo, 1190476
1, 230, Tempo, 1202405
1, 6845, Tempo, 1214575
1, 6870, Tempo, 1226994
1, 6890, Tempo, 1239669
1, 6910, Tempo, 1252610
1, 6935, Tempo, 1265823
1, 6955, Tempo, 1279318
1, 6975, Tempo, 1293103
1, 7000, Tempo, 1307190
1, 7020, Tempo, 1321586
1, 7040, Tempo, 1336303
1, 7065, Tempo, 1351351
1, 7085, Tempo, 1366743
1, 7105, Tempo, 1382488
1, 7130, Tempo, 1398601
1, 7150, Tempo, 1415094
1, 7170, Tempo, 1431981
1, 7190, Tempo, 1449275
1, 7195, Tempo, 1190476
1, 7260, Tempo, 1178782
1, 7320, Tempo, 1167315
1, 10980, Tempo, 1156069
1, 10990, Tempo, 1167315
1, 11000, Tempo, 1178782
1, 11005, Tempo, 1190476
1, 11015, Tempo, 1202405
1, 11020, Tempo, 1214575
1, 11030, Tempo, 1226994
1, 11040, Tempo, 1239669
1, 11045, Tempo, 1252610
1, 11055, Tempo, 1265823
1, 11060, Tempo, 1279318
1, 11070, Tempo, 1293103
1, 11080, Tempo, 1307190
1, 11085, Tempo, 1321586
1, 11095, Tempo, 1336303
1, 11100, Tempo, 1351351
1, 11110, Tempo, 1366743
1, 11120, Tempo, 1382488
1, 11125, Tempo, 1398601
1, 11135, Tempo, 1415094
1, 11140, Tempo, 1431981
1, 11155, Tempo, 1178782
1, 18535, Tempo, 1178782
1, 18545, Tempo, 1190476
1, 18555, Tempo, 1202405
1, 18565, Tempo, 1214575
1, 18570, Tempo, 1226994
1, 18580, Tempo, 1239669
1, 18590, Tempo, 1252610
1, 18600, Tempo, 1265823
1, 18605, Tempo, 1279318
1, 18615, Tempo, 1293103
1, 18625, Tempo, 1307190
1, 18635, Tempo, 1321586
1, 18640, Tempo, 1336303
1, 18650, Tempo, 1351351
1, 18660, Tempo, 1366743
1, 18670, Tempo, 1382488
1, 18675, Tempo, 1398601
1, 18685, Tempo, 1415094
1, 18695, Tempo, 1431981
1, 18705, Tempo, 1449275
1, 18710, Tempo, 1466993
1, 18715, Tempo, 1178782
1, 18875, Tempo, 1190476
1, 18875, End_track
2, 0, Start_track
2, 0, MIDI_port, 0
2, 0, Title_t, "piano"
2, 0, Program_c, 0, 0
2, 0, Control_c, 0, 7, 91
2, 0, Control_c, 0, 10, 37
2, 30, Note_on_c, 0, 76, 64
2, 90, Note_on_c, 0, 76, 0
2, 90, Note_on_c, 0, 75, 64
2, 150, Note_on_c, 0, 75, 0
2, 150, Note_on_c, 0, 74, 64
2, 210, Note_on_c, 0, 74, 0
2, 210, Note_on_c, 0, 73, 64
2, 270, Note_on_c, 0, 73, 0
2, 270, Note_on_c, 0, 71, 64
2, 330, Note_on_c, 0, 71, 0
2, 330, Note_on_c, 0, 69, 64
2, 389, Note_on_c, 0, 68, 64
2, 390, Note_on_c, 0, 69, 0
2, 449, Note_on_c, 0, 68, 0
2, 450, Note_on_c, 0, 66, 64
2, 510, Note_on_c, 0, 66, 0
2, 510, Note_on_c, 0, 68, 64
2, 525, Note_on_c, 0, 68, 0
2, 525, Note_on_c, 0, 69, 64
2, 540, Note_on_c, 0, 69, 0
2, 540, Note_on_c, 0, 68, 64
2, 570, Note_on_c, 0, 68, 0
2, 570, Note_on_c, 0, 71, 64
2, 585, Note_on_c, 0, 71, 0
2, 585, Note_on_c, 0, 69, 64
2, 600, Note_on_c, 0, 69, 0
2, 600, Note_on_c, 0, 71, 64
2, 630, Note_on_c, 0, 71, 0
2, 630, Note_on_c, 0, 68, 64
2, 645, Note_on_c, 0, 68, 0
2, 645, Note_on_c, 0, 66, 64
2, 660, Note_on_c, 0, 66, 0
2, 660, Note_on_c, 0, 68, 64
2, 690, Note_on_c, 0, 68, 0
2, 690, Note_on_c, 0, 64, 64
2, 705, Note_on_c, 0, 64, 0
2, 705, Note_on_c, 0, 63, 64
2, 720, Note_on_c, 0, 63, 0
2, 724, Note_on_c, 0, 64, 64
2, 779, Note_on_c, 0, 66, 64
2, 784, Note_on_c, 0, 64, 0
2, 839, Note_on_c, 0, 66, 0
2, 840, Note_on_c, 0, 68, 64
2, 900, Note_on_c, 0, 68, 0
2, 900, Note_on_c, 0, 69, 64
2, 958, Note_on_c, 0, 71, 64
2, 960, Note_on_c, 0, 69, 0
2, 1015, Note_on_c, 0, 73, 64
2, 1018, Note_on_c, 0, 71, 0
2, 1075, Note_on_c, 0, 73, 0
2, 1080, Note_on_c, 0, 75, 64
2, 1140, Note_on_c, 0, 75, 0
2, 1147, Note_on_c, 0, 76, 64
2, 1170, Note_on_c, 0, 75, 64
2, 1177, Note_on_c, 0, 76, 0
2, 1200, Note_on_c, 0, 75, 0
2, 1200, Note_on_c, 0, 73, 64
2, 1230, Note_on_c, 0, 73, 0
2, 1230, Note_on_c, 0, 71, 64
2, 1260, Note_on_c, 0, 71, 0
2, 1260, Note_on_c, 0, 76, 64
2, 1317, Note_on_c, 0, 64, 64
2, 1320, Note_on_c, 0, 76, 0
2, 1377, Note_on_c, 0, 64, 0
2, 1464, Note_on_c, 0, 80, 64
2, 1524, Note_on_c, 0, 80, 0
2, 1525, Note_on_c, 0, 76, 64
2, 1585, Note_on_c, 0, 76, 0
2, 1590, Note_on_c, 0, 73, 64
2, 1650, Note_on_c, 0, 73, 0
2, 1650, Note_on_c, 0, 76, 64
2, 1665, Note_on_c, 0, 76, 0
2, 1665, Note_on_c, 0, 75, 64
2, 1680, Note_on_c, 0, 75, 0
2, 1680, Note_on_c, 0, 76, 64
2, 1710, Note_on_c, 0, 76, 0
2, 1710, Note_on_c, 0, 73, 64
2, 1740, Note_on_c, 0, 73, 0
2, 1740, Note_on_c, 0, 70, 64
2, 1770, Note_on_c, 0, 70, 0
2, 1770, Note_on_c, 0, 66, 64
2, 1829, Note_on_c, 0, 78, 64
2, 1830, Note_on_c, 0, 66, 0
2, 1889, Note_on_c, 0, 78, 0
2, 1892, Note_on_c, 0, 75, 64
2, 1950, Note_on_c, 0, 71, 64
2, 1952, Note_on_c, 0, 75, 0
2, 2010, Note_on_c, 0, 71, 0
2, 2010, Note_on_c, 0, 75, 64
2, 2025, Note_on_c, 0, 75, 0
2, 2025, Note_on_c, 0, 73, 64
2, 2040, Note_on_c, 0, 73, 0
2, 2040, Note_on_c, 0, 75, 64
2, 2070, Note_on_c, 0, 75, 0
2, 2070, Note_on_c, 0, 71, 64
2, 2100, Note_on_c, 0, 71, 0
2, 2100, Note_on_c, 0, 68, 64
2, 2130, Note_on_c, 0, 68, 0
2, 2130, Note_on_c, 0, 64, 64
2, 2188, Note_on_c, 0, 76, 64
2, 2190, Note_on_c, 0, 64, 0
2, 2247, Note_on_c, 0, 73, 64
2, 2248, Note_on_c, 0, 76, 0
2, 2307, Note_on_c, 0, 73, 0
2, 2310, Note_on_c, 0, 70, 64
2, 2370, Note_on_c, 0, 70, 0
2, 2370, Note_on_c, 0, 80, 64
2, 2430, Note_on_c, 0, 80, 0
2, 2430, Note_on_c, 0, 78, 64
2, 2490, Note_on_c, 0, 78, 0
2, 2490, Note_on_c, 0, 76, 64
2, 2550, Note_on_c, 0, 76, 0
2, 2554, Note_on_c, 0, 75, 64
2, 2608, Note_on_c, 0, 73, 64
2, 2614, Note_on_c, 0, 75, 0
2, 2668, Note_on_c, 0, 73, 0
2, 2670, Note_on_c, 0, 71, 64
2, 2700, Note_on_c, 0, 71, 0
2, 2700, Note_on_c, 0, 70, 64
2, 2730, Note_on_c, 0, 70, 0
2, 2730, Note_on_c, 0, 64, 64
2, 2745, Note_on_c, 0, 64, 0
2, 2745, Note_on_c, 0, 63, 64
2, 2760, Note_on_c, 0, 63, 0
2, 2760, Note_on_c, 0, 64, 64
2, 2790, Note_on_c, 0, 64, 0
2, 2790, Note_on_c, 0, 70, 64
2, 2805, Note_on_c, 0, 70, 0
2, 2805, Note_on_c, 0, 68, 64
2, 2820, Note_on_c, 0, 68, 0
2, 2820, Note_on_c, 0, 70, 64
2, 2850, Note_on_c, 0, 70, 0
2, 2850, Note_on_c, 0, 71, 64
2, 2865, Note_on_c, 0, 71, 0
2, 2865, Note_on_c, 0, 70, 64
2, 2880, Note_on_c, 0, 70, 0
2, 2880, Note_on_c, 0, 71, 64
2, 2910, Note_on_c, 0, 71, 0
2, 2910, Note_on_c, 0, 63, 64
2, 2940, Note_on_c, 0, 63, 0
2, 2940, Note_on_c, 0, 61, 64
2, 2970, Note_on_c, 0, 61, 0
2, 2970, Note_on_c, 0, 71, 64
2, 3000, Note_on_c, 0, 71, 0
2, 3000, Note_on_c, 0, 61, 64
2, 3030, Note_on_c, 0, 61, 0
2, 3030, Note_on_c, 0, 70, 64
2, 3060, Note_on_c, 0, 70, 0
2, 3060, Note_on_c, 0, 71, 64
2, 3120, Note_on_c, 0, 71, 0
2, 3150, Note_on_c, 0, 71, 64
2, 3180, Note_on_c, 0, 71, 0
2, 3180, Note_on_c, 0, 75, 64
2, 3210, Note_on_c, 0, 75, 0
2, 3210, Note_on_c, 0, 78, 64
2, 3240, Note_on_c, 0, 78, 0
2, 3240, Note_on_c, 0, 83, 64
2, 3300, Note_on_c, 0, 83, 0
2, 3330, Note_on_c, 0, 83, 64
2, 3360, Note_on_c, 0, 83, 0
2, 3360, Note_on_c, 0, 78, 64
2, 3390, Note_on_c, 0, 78, 0
2, 3390, Note_on_c, 0, 75, 64
2, 3420, Note_on_c, 0, 75, 0
2, 3420, Note_on_c, 0, 71, 64
2, 3450, Note_on_c, 0, 71, 0
2, 3450, Note_on_c, 0, 66, 64
2, 3480, Note_on_c, 0, 66, 0
2, 3480, Note_on_c, 0, 63, 64
2, 3510, Note_on_c, 0, 63, 0
2, 3510, Note_on_c, 0, 59, 64
2, 3540, Note_on_c, 0, 59, 0
2, 3625, Note_on_c, 0, 76, 64
2, 3685, Note_on_c, 0, 76, 0
2, 3688, Note_on_c, 0, 75, 64
2, 3748, Note_on_c, 0, 75, 0
2, 3750, Note_on_c, 0, 74, 64
2, 3807, Note_on_c, 0, 73, 64
2, 3810, Note_on_c, 0, 74, 0
2, 3867, Note_on_c, 0, 73, 0
2, 3870, Note_on_c, 0, 71, 64
2, 3930, Note_on_c, 0, 71, 0
2, 3930, Note_on_c, 0, 69, 64
2, 3986, Note_on_c, 0, 68, 64
2, 3990, Note_on_c, 0, 69, 0
2, 4046, Note_on_c, 0, 68, 0
2, 4046, Note_on_c, 0, 66, 64
2, 4106, Note_on_c, 0, 66, 0
2, 4110, Note_on_c, 0, 68, 64
2, 4125, Note_on_c, 0, 68, 0
2, 4125, Note_on_c, 0, 69, 64
2, 4140, Note_on_c, 0, 69, 0
2, 4140, Note_on_c, 0, 68, 64
2, 4170, Note_on_c, 0, 68, 0
2, 4170, Note_on_c, 0, 71, 64
2, 4185, Note_on_c, 0, 71, 0
2, 4185, Note_on_c, 0, 69, 64
2, 4200, Note_on_c, 0, 69, 0
2, 4200, Note_on_c, 0, 71, 64
2, 4230, Note_on_c, 0, 71, 0
2, 4230, Note_on_c, 0, 68, 64
2, 4245, Note_on_c, 0, 68, 0
2, 4245, Note_on_c, 0, 66, 64
2, 4260, Note_on_c, 0, 66, 0
2, 4260, Note_on_c, 0, 68, 64
2, 4290, Note_on_c, 0, 68, 0
2, 4290, Note_on_c, 0, 64, 64
2, 4305, Note_on_c, 0, 64, 0
2, 4305, Note_on_c, 0, 63, 64
2, 4320, Note_on_c, 0, 63, 0
2, 4320, Note_on_c, 0, 64, 64
2, 4377, Note_on_c, 0, 66, 64
2, 4380, Note_on_c, 0, 64, 0
2, 4437, Note_on_c, 0, 66, 0
2, 4437, Note_on_c, 0, 68, 64
2, 4497, Note_on_c, 0, 68, 0
2, 4500, Note_on_c, 0, 69, 64
2, 4559, Note_on_c, 0, 71, 64
2, 4560, Note_on_c, 0, 69, 0
2, 4616, Note_on_c, 0, 73, 64
2, 4619, Note_on_c, 0, 71, 0
2, 4676, Note_on_c, 0, 73, 0
2, 4680, Note_on_c, 0, 75, 64
2, 4740, Note_on_c, 0, 75, 0
2, 4747, Note_on_c, 0, 76, 64
2, 4770, Note_on_c, 0, 75, 64
2, 4777, Note_on_c, 0, 76, 0
2, 4800, Note_on_c, 0, 75, 0
2, 4800, Note_on_c, 0, 73, 64
2, 4830, Note_on_c, 0, 73, 0
2, 4830, Note_on_c, 0, 71, 64
2, 4860, Note_on_c, 0, 71, 0
2, 4860, Note_on_c, 0, 76, 64
2, 4915, Note_on_c, 0, 64, 64
2, 4920, Note_on_c, 0, 76, 0
2, 4975, Note_on_c, 0, 64, 0
2, 5067, Note_on_c, 0, 80, 64
2, 5127, Note_on_c, 0, 80, 0
2, 5133, Note_on_c, 0, 76, 64
2, 5190, Note_on_c, 0, 73, 64
2, 5193, Note_on_c, 0, 76, 0
2, 5250, Note_on_c, 0, 73, 0
2, 5250, Note_on_c, 0, 76, 64
2, 5265, Note_on_c, 0, 76, 0
2, 5265, Note_on_c, 0, 75, 64
2, 5280, Note_on_c, 0, 75, 0
2, 5280, Note_on_c, 0, 76, 64
2, 5310, Note_on_c, 0, 76, 0
2, 5310, Note_on_c, 0, 73, 64
2, 5340, Note_on_c, 0, 73, 0
2, 5340, Note_on_c, 0, 70, 64
2, 5370, Note_on_c, 0, 70, 0
2, 5370, Note_on_c, 0, 66, 64
2, 5428, Note_on_c, 0, 78, 64
2, 5430, Note_on_c, 0, 66, 0
2, 5488, Note_on_c, 0, 78, 0
2, 5488, Note_on_c, 0, 75, 64
2, 5548, Note_on_c, 0, 75, 0
2, 5550, Note_on_c, 0, 71, 64
2, 5610, Note_on_c, 0, 71, 0
2, 5610, Note_on_c, 0, 75, 64
2, 5625, Note_on_c, 0, 75, 0
2, 5625, Note_on_c, 0, 73, 64
2, 5640, Note_on_c, 0, 73, 0
2, 5640, Note_on_c, 0, 75, 64
2, 5670, Note_on_c, 0, 75, 0
2, 5670, Note_on_c, 0, 71, 64
2, 5700, Note_on_c, 0, 71, 0
2, 5700, Note_on_c, 0, 68, 64
2, 5730, Note_on_c, 0, 68, 0
2, 5730, Note_on_c, 0, 64, 64
2, 5789, Note_on_c, 0, 76, 64
2, 5790, Note_on_c, 0, 64, 0
2, 5848, Note_on_c, 0, 73, 64
2, 5849, Note_on_c, 0, 76, 0
2, 5908, Note_on_c, 0, 73, 0
2, 5910, Note_on_c, 0, 70, 64
2, 5970, Note_on_c, 0, 70, 0
2, 5970, Note_on_c, 0, 80, 64
2, 6030, Note_on_c, 0, 80, 0
2, 6030, Note_on_c, 0, 78, 64
2, 6090, Note_on_c, 0, 78, 0
2, 6090, Note_on_c, 0, 76, 64
2, 6149, Note_on_c, 0, 75, 64
2, 6150, Note_on_c, 0, 76, 0
2, 6209, Note_on_c, 0, 75, 0
2, 6210, Note_on_c, 0, 73, 64
2, 6270, Note_on_c, 0, 73, 0
2, 6270, Note_on_c, 0, 71, 64
2, 6300, Note_on_c, 0, 71, 0
2, 6300, Note_on_c, 0, 70, 64
2, 6330, Note_on_c, 0, 70, 0
2, 6330, Note_on_c, 0, 64, 64
2, 6345, Note_on_c, 0, 64, 0
2, 6345, Note_on_c, 0, 63, 64
2, 6360, Note_on_c, 0, 63, 0
2, 6360, Note_on_c, 0, 64, 64
2, 6390, Note_on_c, 0, 64, 0
2, 6390, Note_on_c, 0, 70, 64
2, 6405, Note_on_c, 0, 70, 0
2, 6405, Note_on_c, 0, 68, 64
2, 6420, Note_on_c, 0, 68, 0
2, 6420, Note_on_c, 0, 70, 64
2, 6450, Note_on_c, 0, 70, 0
2, 6450, Note_on_c, 0, 71, 64
2, 6465, Note_on_c, 0, 71, 0
2, 6465, Note_on_c, 0, 70, 64
2, 6480, Note_on_c, 0, 70, 0
2, 6480, Note_on_c, 0, 71, 64
2, 6510, Note_on_c, 0, 71, 0
2, 6510, Note_on_c, 0, 63, 64
2, 6540, Note_on_c, 0, 63, 0
2, 6540, Note_on_c, 0, 61, 64
2, 6570, Note_on_c, 0, 61, 0
2, 6570, Note_on_c, 0, 71, 64
2, 6600, Note_on_c, 0, 71, 0
2, 6600, Note_on_c, 0, 61, 64
2, 6630, Note_on_c, 0, 61, 0
2, 6630, Note_on_c, 0, 70, 64
2, 6660, Note_on_c, 0, 70, 0
2, 6660, Note_on_c, 0, 71, 64
2, 6720, Note_on_c, 0, 71, 0
2, 6750, Note_on_c, 0, 71, 64
2, 6780, Note_on_c, 0, 71, 0
2, 6780, Note_on_c, 0, 75, 64
2, 6810, Note_on_c, 0, 75, 0
2, 6810, Note_on_c, 0, 78, 64
2, 6840, Note_on_c, 0, 78, 0
2, 6840, Note_on_c, 0, 83, 64
2, 6900, Note_on_c, 0, 83, 0
2, 6930, Note_on_c, 0, 83, 64
2, 6960, Note_on_c, 0, 83, 0
2, 6960, Note_on_c, 0, 78, 64
2, 6990, Note_on_c, 0, 78, 0
2, 6990, Note_on_c, 0, 75, 64
2, 7020, Note_on_c, 0, 75, 0
2, 7020, Note_on_c, 0, 71, 64
2, 7050, Note_on_c, 0, 71, 0
2, 7050, Note_on_c, 0, 66, 64
2, 7080, Note_on_c, 0, 66, 0
2, 7080, Note_on_c, 0, 63, 64
2, 7110, Note_on_c, 0, 63, 0
2, 7110, Note_on_c, 0, 59, 64
2, 7140, Note_on_c, 0, 59, 0
2, 7190, Control_c, 0, 7, 81
2, 7200, Note_on_c, 0, 59, 64
2, 7220, Control_c, 0, 7, 82
2, 7250, Control_c, 0, 7, 83
2, 7260, Note_on_c, 0, 59, 0
2, 7260, Note_on_c, 0, 61, 64
2, 7270, Control_c, 0, 7, 84
2, 7300, Control_c, 0, 7, 85
2, 7320, Note_on_c, 0, 61, 0
2, 7320, Note_on_c, 0, 63, 64
2, 7320, Control_c, 0, 7, 86
2, 7350, Control_c, 0, 7, 87
2, 7380, Note_on_c, 0, 63, 0
2, 7380, Note_on_c, 0, 64, 64
2, 7380, Control_c, 0, 7, 88
2, 7400, Control_c, 0, 7, 89
2, 7430, Control_c, 0, 7, 90
2, 7440, Note_on_c, 0, 64, 0
2, 7440, Note_on_c, 0, 66, 64
2, 7450, Control_c, 0, 7, 91
2, 7480, Control_c, 0, 7, 92
2, 7500, Note_on_c, 0, 66, 0
2, 7500, Note_on_c, 0, 68, 64
2, 7510, Control_c, 0, 7, 93
2, 7530, Control_c, 0, 7, 94
2, 7560, Note_on_c, 0, 68, 0
2, 7560, Note_on_c, 0, 70, 64
2, 7560, Control_c, 0, 7, 95
2, 7580, Control_c, 0, 7, 96
2, 7590, Control_c, 0, 7, 93
2, 7620, Note_on_c, 0, 70, 0
2, 7620, Note_on_c, 0, 71, 64
2, 7620, Control_c, 0, 7, 92
2, 7640, Control_c, 0, 7, 91
2, 7650, Note_on_c, 0, 71, 0
2, 7650, Note_on_c, 0, 70, 64
2, 7670, Control_c, 0, 7, 90
2, 7680, Note_on_c, 0, 70, 0
2, 7680, Note_on_c, 0, 68, 64
2, 7690, Control_c, 0, 7, 89
2, 7710, Note_on_c, 0, 68, 0
2, 7710, Note_on_c, 0, 66, 64
2, 7720, Control_c, 0, 7, 88
2, 7740, Note_on_c, 0, 66, 0
2, 7740, Note_on_c, 0, 71, 64
2, 7740, Control_c, 0, 7, 87
2, 7770, Control_c, 0, 7, 86
2, 7790, Control_c, 0, 7, 85
2, 7800, Note_on_c, 0, 71, 0
2, 7800, Note_on_c, 0, 59, 64
2, 7820, Control_c, 0, 7, 84
2, 7840, Control_c, 0, 7, 83
2, 7860, Note_on_c, 0, 59, 0
2, 7870, Control_c, 0, 7, 82
2, 7890, Control_c, 0, 7, 81
2, 7910, Control_c, 0, 7, 80
2, 7930, Control_c, 0, 7, 81
2, 7950, Note_on_c, 0, 83, 64
2, 7960, Control_c, 0, 7, 82
2, 7990, Control_c, 0, 7, 83
2, 8010, Note_on_c, 0, 83, 0
2, 8010, Note_on_c, 0, 82, 64
2, 8010, Control_c, 0, 7, 84
2, 8040, Control_c, 0, 7, 85
2, 8060, Control_c, 0, 7, 86
2, 8070, Note_on_c, 0, 82, 0
2, 8070, Note_on_c, 0, 81, 64
2, 8090, Control_c, 0, 7, 87
2, 8110, Control_c, 0, 7, 88
2, 8130, Note_on_c, 0, 81, 0
2, 8130, Note_on_c, 0, 80, 64
2, 8140, Control_c, 0, 7, 89
2, 8160, Control_c, 0, 7, 90
2, 8190, Note_on_c, 0, 80, 0
2, 8190, Note_on_c, 0, 78, 64
2, 8190, Control_c, 0, 7, 91
2, 8210, Control_c, 0, 7, 92
2, 8240, Control_c, 0, 7, 93
2, 8250, Note_on_c, 0, 78, 0
2, 8250, Note_on_c, 0, 76, 64
2, 8260, Control_c, 0, 7, 94
2, 8310, Note_on_c, 0, 76, 0
2, 8310, Note_on_c, 0, 75, 64
2, 8370, Note_on_c, 0, 75, 0
2, 8370, Note_on_c, 0, 73, 64
2, 8430, Note_on_c, 0, 73, 0
2, 8430, Note_on_c, 0, 75, 64
2, 8445, Note_on_c, 0, 75, 0
2, 8445, Note_on_c, 0, 76, 64
2, 8460, Note_on_c, 0, 76, 0
2, 8460, Note_on_c, 0, 75, 64
2, 8480, Control_c, 0, 7, 94
2, 8490, Note_on_c, 0, 75, 0
2, 8490, Note_on_c, 0, 78, 64
2, 8500, Control_c, 0, 7, 93
2, 8505, Note_on_c, 0, 78, 0
2, 8505, Note_on_c, 0, 76, 64
2, 8510, Control_c, 0, 7, 92
2, 8520, Note_on_c, 0, 76, 0
2, 8520, Note_on_c, 0, 78, 64
2, 8520, Control_c, 0, 7, 91
2, 8530, Control_c, 0, 7, 90
2, 8550, Note_on_c, 0, 78, 0
2, 8550, Note_on_c, 0, 75, 64
2, 8550, Control_c, 0, 7, 89
2, 8560, Control_c, 0, 7, 88
2, 8565, Note_on_c, 0, 75, 0
2, 8565, Note_on_c, 0, 73, 64
2, 8570, Control_c, 0, 7, 87
2, 8580, Note_on_c, 0, 73, 0
2, 8580, Note_on_c, 0, 75, 64
2, 8580, Control_c, 0, 7, 86
2, 8600, Control_c, 0, 7, 85
2, 8610, Note_on_c, 0, 75, 0
2, 8610, Note_on_c, 0, 71, 64
2, 8610, Control_c, 0, 7, 84
2, 8620, Control_c, 0, 7, 83
2, 8625, Note_on_c, 0, 71, 0
2, 8625, Note_on_c, 0, 70, 64
2, 8630, Control_c, 0, 7, 82
2, 8640, Note_on_c, 0, 70, 0
2, 8640, Note_on_c, 0, 71, 64
2, 8670, Note_on_c, 0, 71, 0
2, 8670, Note_on_c, 0, 75, 64
2, 8685, Note_on_c, 0, 75, 0
2, 8685, Note_on_c, 0, 73, 64
2, 8700, Note_on_c, 0, 73, 0
2, 8700, Note_on_c, 0, 75, 64
2, 8730, Note_on_c, 0, 75, 0
2, 8730, Note_on_c, 0, 80, 64
2, 8745, Note_on_c, 0, 80, 0
2, 8745, Note_on_c, 0, 79, 64
2, 8760, Note_on_c, 0, 79, 0
2, 8760, Note_on_c, 0, 80, 64
2, 8790, Note_on_c, 0, 80, 0
2, 8790, Note_on_c, 0, 73, 66
2, 8805, Note_on_c, 0, 73, 0
2, 8805, Note_on_c, 0, 71, 64
2, 8820, Note_on_c, 0, 71, 0
2, 8820, Note_on_c, 0, 73, 64
2, 8850, Note_on_c, 0, 73, 0
2, 8850, Note_on_c, 0, 76, 64
2, 8865, Note_on_c, 0, 76, 0
2, 8865, Note_on_c, 0, 75, 64
2, 8880, Note_on_c, 0, 75, 0
2, 8880, Note_on_c, 0, 76, 64
2, 8910, Note_on_c, 0, 76, 0
2, 8910, Note_on_c, 0, 82, 64
2, 8925, Note_on_c, 0, 82, 0
2, 8925, Note_on_c, 0, 80, 64
2, 8940, Note_on_c, 0, 80, 0
2, 8940, Note_on_c, 0, 82, 64
2, 8970, Note_on_c, 0, 82, 0
2, 8970, Note_on_c, 0, 75, 64
2, 8985, Note_on_c, 0, 75, 0
2, 8985, Note_on_c, 0, 74, 64
2, 9000, Note_on_c, 0, 74, 0
2, 9000, Note_on_c, 0, 75, 64
2, 9030, Note_on_c, 0, 75, 0
2, 9030, Note_on_c, 0, 80, 64
2, 9045, Note_on_c, 0, 80, 0
2, 9045, Note_on_c, 0, 79, 64
2, 9060, Note_on_c, 0, 79, 0
2, 9060, Note_on_c, 0, 80, 64
2, 9090, Note_on_c, 0, 80, 0
2, 9090, Note_on_c, 0, 83, 64
2, 9105, Note_on_c, 0, 83, 0
2, 9105, Note_on_c, 0, 82, 64
2, 9120, Note_on_c, 0, 82, 0
2, 9120, Note_on_c, 0, 83, 64
2, 9150, Note_on_c, 0, 83, 0
2, 9150, Note_on_c, 0, 75, 64
2, 9165, Note_on_c, 0, 75, 0
2, 9165, Note_on_c, 0, 74, 64
2, 9180, Note_on_c, 0, 74, 0
2, 9180, Note_on_c, 0, 75, 64
2, 9210, Note_on_c, 0, 75, 0
2, 9210, Note_on_c, 0, 82, 64
2, 9225, Note_on_c, 0, 82, 0
2, 9225, Note_on_c, 0, 81, 64
2, 9240, Note_on_c, 0, 81, 0
2, 9240, Note_on_c, 0, 82, 64
2, 9270, Note_on_c, 0, 82, 0
2, 9270, Note_on_c, 0, 78, 64
2, 9285, Note_on_c, 0, 78, 0
2, 9285, Note_on_c, 0, 77, 64
2, 9300, Note_on_c, 0, 77, 0
2, 9300, Note_on_c, 0, 78, 64
2, 9330, Note_on_c, 0, 78, 0
2, 9330, Note_on_c, 0, 75, 64
2, 9345, Note_on_c, 0, 75, 0
2, 9345, Note_on_c, 0, 74, 64
2, 9360, Note_on_c, 0, 74, 0
2, 9360, Note_on_c, 0, 75, 64
2, 9370, Control_c, 0, 7, 81
2, 9390, Note_on_c, 0, 75, 0
2, 9390, Note_on_c, 0, 81, 64
2, 9410, Control_c, 0, 7, 82
2, 9440, Control_c, 0, 7, 83
2, 9450, Note_on_c, 0, 81, 0
2, 9450, Note_on_c, 0, 80, 64
2, 9480, Control_c, 0, 7, 84
2, 9510, Note_on_c, 0, 80, 0
2, 9510, Note_on_c, 0, 78, 64
2, 9510, Control_c, 0, 7, 85
2, 9540, Control_c, 0, 7, 86
2, 9570, Note_on_c, 0, 78, 0
2, 9570, Note_on_c, 0, 76, 64
2, 9580, Control_c, 0, 7, 87
2, 9585, Note_on_c, 0, 76, 0
2, 9585, Note_on_c, 0, 75, 64
2, 9600, Note_on_c, 0, 75, 0
2, 9600, Note_on_c, 0, 76, 64
2, 9610, Control_c, 0, 7, 88
2, 9630, Note_on_c, 0, 76, 0
2, 9630, Note_on_c, 0, 73, 64
2, 9645, Note_on_c, 0, 73, 0
2, 9645, Note_on_c, 0, 72, 64
2, 9650, Control_c, 0, 7, 89
2, 9660, Note_on_c, 0, 72, 0
2, 9660, Note_on_c, 0, 73, 64
2, 9680, Control_c, 0, 7, 90
2, 9690, Note_on_c, 0, 73, 0
2, 9690, Note_on_c, 0, 76, 64
2, 9705, Note_on_c, 0, 76, 0
2, 9705, Note_on_c, 0, 75, 64
2, 9710, Control_c, 0, 7, 91
2, 9720, Note_on_c, 0, 75, 0
2, 9720, Note_on_c, 0, 76, 64
2, 9750, Note_on_c, 0, 76, 0
2, 9750, Note_on_c, 0, 80, 64
2, 9750, Control_c, 0, 7, 92
2, 9780, Control_c, 0, 7, 93
2, 9810, Note_on_c, 0, 80, 0
2, 9810, Note_on_c, 0, 78, 64
2, 9820, Control_c, 0, 7, 94
2, 9850, Control_c, 0, 7, 95
2, 9870, Note_on_c, 0, 78, 0
2, 9870, Note_on_c, 0, 76, 64
2, 9880, Control_c, 0, 7, 96
2, 9920, Control_c, 0, 7, 97
2, 9930, Note_on_c, 0, 76, 0
2, 9930, Note_on_c, 0, 75, 64
2, 9945, Note_on_c, 0, 75, 0
2, 9945, Note_on_c, 0, 73, 64
2, 9950, Control_c, 0, 7, 98
2, 9960, Note_on_c, 0, 73, 0
2, 9960, Note_on_c, 0, 75, 64
2, 9980, Control_c, 0, 7, 99
2, 9990, Note_on_c, 0, 75, 0
2, 9990, Note_on_c, 0, 71, 64
2, 10005, Note_on_c, 0, 71, 0
2, 10005, Note_on_c, 0, 70, 64
2, 10020, Note_on_c, 0, 70, 0
2, 10020, Note_on_c, 0, 71, 64
2, 10020, Control_c, 0, 7, 100
2, 10050, Note_on_c, 0, 71, 0
2, 10050, Note_on_c, 0, 73, 64
2, 10050, Control_c, 0, 7, 101
2, 10065, Note_on_c, 0, 73, 0
2, 10065, Note_on_c, 0, 71, 64
2, 10080, Note_on_c, 0, 71, 0
2, 10080, Note_on_c, 0, 73, 64
2, 10090, Control_c, 0, 7, 102
2, 10110, Note_on_c, 0, 73, 0
2, 10110, Note_on_c, 0, 76, 64
2, 10120, Control_c, 0, 7, 103
2, 10150, Control_c, 0, 7, 104
2, 10170, Note_on_c, 0, 76, 0
2, 10170, Note_on_c, 0, 75, 64
2, 10190, Control_c, 0, 7, 105
2, 10220, Control_c, 0, 7, 106
2, 10230, Note_on_c, 0, 75, 0
2, 10230, Note_on_c, 0, 73, 64
2, 10260, Control_c, 0, 7, 107
2, 10290, Note_on_c, 0, 73, 0
2, 10290, Note_on_c, 0, 71, 64
2, 10290, Control_c, 0, 7, 108
2, 10305, Note_on_c, 0, 71, 0
2, 10305, Note_on_c, 0, 70, 64
2, 10320, Note_on_c, 0, 70, 0
2, 10320, Note_on_c, 0, 71, 64
2, 10320, Control_c, 0, 7, 109
2, 10350, Note_on_c, 0, 71, 0
2, 10350, Note_on_c, 0, 68, 64
2, 10360, Control_c, 0, 7, 110
2, 10365, Note_on_c, 0, 68, 0
2, 10365, Note_on_c, 0, 67, 64
2, 10380, Note_on_c, 0, 67, 0
2, 10380, Note_on_c, 0, 68, 64
2, 10390, Control_c, 0, 7, 111
2, 10410, Note_on_c, 0, 68, 0
2, 10410, Note_on_c, 0, 69, 64
2, 10420, Control_c, 0, 7, 112
2, 10425, Note_on_c, 0, 69, 0
2, 10425, Note_on_c, 0, 68, 64
2, 10440, Note_on_c, 0, 68, 0
2, 10440, Note_on_c, 0, 69, 64
2, 10470, Note_on_c, 0, 69, 0
2, 10470, Note_on_c, 0, 73, 64
2, 10485, Note_on_c, 0, 73, 0
2, 10485, Note_on_c, 0, 71, 64
2, 10500, Note_on_c, 0, 71, 0
2, 10500, Note_on_c, 0, 73, 64
2, 10530, Note_on_c, 0, 73, 0
2, 10530, Note_on_c, 0, 69, 64
2, 10545, Note_on_c, 0, 69, 0
2, 10545, Note_on_c, 0, 68, 64
2, 10560, Note_on_c, 0, 68, 0
2, 10560, Note_on_c, 0, 69, 64
2, 10590, Note_on_c, 0, 69, 0
2, 10590, Note_on_c, 0, 76, 64
2, 10605, Note_on_c, 0, 76, 0
2, 10605, Note_on_c, 0, 75, 64
2, 10620, Note_on_c, 0, 75, 0
2, 10620, Note_on_c, 0, 76, 64
2, 10650, Note_on_c, 0, 76, 0
2, 10650, Note_on_c, 0, 67, 64
2, 10665, Note_on_c, 0, 67, 0
2, 10665, Note_on_c, 0, 65, 64
2, 10680, Note_on_c, 0, 65, 0
2, 10680, Note_on_c, 0, 67, 64
2, 10710, Note_on_c, 0, 67, 0
2, 10710, Note_on_c, 0, 70, 64
2, 10725, Note_on_c, 0, 70, 0
2, 10725, Note_on_c, 0, 68, 64
2, 10740, Note_on_c, 0, 68, 0
2, 10740, Note_on_c, 0, 70, 64
2, 10770, Note_on_c, 0, 70, 0
2, 10770, Note_on_c, 0, 59, 64
2, 10785, Note_on_c, 0, 59, 0
2, 10785, Note_on_c, 0, 58, 64
2, 10800, Note_on_c, 0, 58, 0
2, 10800, Note_on_c, 0, 59, 64
2, 10810, Control_c, 0, 7, 109
2, 10830, Note_on_c, 0, 59, 0
2, 10830, Note_on_c, 0, 68, 64
2, 10830, Control_c, 0, 7, 108
2, 10850, Control_c, 0, 7, 107
2, 10860, Note_on_c, 0, 68, 0
2, 10860, Note_on_c, 0, 64, 64
2, 10870, Control_c, 0, 7, 106
2, 10880, Control_c, 0, 7, 105
2, 10890, Note_on_c, 0, 64, 0
2, 10890, Note_on_c, 0, 61, 64
2, 10900, Control_c, 0, 7, 104
2, 10920, Note_on_c, 0, 61, 0
2, 10920, Note_on_c, 0, 58, 64
2, 10920, Control_c, 0, 7, 103
2, 10930, Control_c, 0, 7, 102
2, 10950, Note_on_c, 0, 58, 0
2, 10950, Note_on_c, 0, 68, 64
2, 10950, Control_c, 0, 7, 101
2, 10970, Control_c, 0, 7, 100
2, 10980, Note_on_c, 0, 68, 0
2, 10980, Note_on_c, 0, 68, 64
2, 10980, Control_c, 0, 7, 99
2, 11000, Control_c, 0, 7, 98
2, 11010, Note_on_c, 0, 68, 0
2, 11010, Note_on_c, 0, 63, 64
2, 11020, Control_c, 0, 7, 97
2, 11030, Control_c, 0, 7, 96
2, 11040, Note_on_c, 0, 63, 0
2, 11040, Note_on_c, 0, 59, 64
2, 11050, Control_c, 0, 7, 95
2, 11070, Note_on_c, 0, 59, 0
2, 11070, Note_on_c, 0, 56, 64
2, 11070, Control_c, 0, 7, 94
2, 11090, Control_c, 0, 7, 93
2, 11100, Note_on_c, 0, 56, 0
2, 11100, Control_c, 0, 7, 92
2, 11120, Control_c, 0, 7, 91
2, 11140, Control_c, 0, 7, 90
2, 11150, Control_c, 0, 7, 89
2, 11160, Note_on_c, 0, 64, 64
2, 11170, Control_c, 0, 7, 88
2, 11190, Control_c, 0, 7, 87
2, 11200, Control_c, 0, 7, 86
2, 11220, Note_on_c, 0, 64, 0
2, 11220, Note_on_c, 0, 66, 64
2, 11220, Control_c, 0, 7, 85
2, 11240, Control_c, 0, 7, 84
2, 11250, Control_c, 0, 7, 83
2, 11270, Control_c, 0, 7, 82
2, 11280, Note_on_c, 0, 66, 0
2, 11280, Note_on_c, 0, 68, 64
2, 11290, Control_c, 0, 7, 81
2, 11300, Control_c, 0, 7, 80
2, 11340, Note_on_c, 0, 68, 0
2, 11340, Note_on_c, 0, 69, 64
2, 11360, Control_c, 0, 7, 79
2, 11390, Control_c, 0, 7, 80
2, 11400, Note_on_c, 0, 69, 0
2, 11400, Note_on_c, 0, 71, 64
2, 11410, Control_c, 0, 7, 81
2, 11430, Control_c, 0, 7, 82
2, 11450, Control_c, 0, 7, 83
2, 11460, Note_on_c, 0, 71, 0
2, 11460, Note_on_c, 0, 73, 64
2, 11470, Control_c, 0, 7, 84
2, 11490, Control_c, 0, 7, 85
2, 11510, Control_c, 0, 7, 86
2, 11520, Note_on_c, 0, 73, 0
2, 11520, Note_on_c, 0, 75, 64
2, 11540, Control_c, 0, 7, 87
2, 11560, Control_c, 0, 7, 88
2, 11580, Note_on_c, 0, 75, 0
2, 11580, Note_on_c, 0, 76, 64
2, 11580, Control_c, 0, 7, 89
2, 11600, Control_c, 0, 7, 90
2, 11610, Note_on_c, 0, 76, 0
2, 11610, Note_on_c, 0, 75, 64
2, 11620, Control_c, 0, 7, 91
2, 11640, Note_on_c, 0, 75, 0
2, 11640, Note_on_c, 0, 73, 64
2, 11640, Control_c, 0, 7, 92
2, 11660, Control_c, 0, 7, 93
2, 11670, Note_on_c, 0, 73, 0
2, 11670, Note_on_c, 0, 71, 64
2, 11680, Control_c, 0, 7, 94
2, 11700, Note_on_c, 0, 71, 0
2, 11700, Note_on_c, 0, 76, 64
2, 11700, Control_c, 0, 7, 92
2, 11720, Control_c, 0, 7, 91
2, 11740, Control_c, 0, 7, 90
2, 11760, Control_c, 0, 7, 89
2, 11780, Control_c, 0, 7, 88
2, 11790, Note_on_c, 0, 76, 0
2, 11790, Note_on_c, 0, 71, 64
2, 11800, Control_c, 0, 7, 87
2, 11805, Note_on_c, 0, 71, 0
2, 11805, Note_on_c, 0, 69, 64
2, 11820, Note_on_c, 0, 69, 0
2, 11820, Note_on_c, 0, 71, 64
2, 11820, Control_c, 0, 7, 86
2, 11840, Control_c, 0, 7, 85
2, 11850, Note_on_c, 0, 71, 0
2, 11850, Note_on_c, 0, 68, 64
2, 11860, Control_c, 0, 7, 84
2, 11865, Note_on_c, 0, 68, 0
2, 11865, Note_on_c, 0, 66, 64
2, 11880, Note_on_c, 0, 66, 0
2, 11880, Note_on_c, 0, 68, 64
2, 11880, Control_c, 0, 7, 83
2, 11910, Note_on_c, 0, 68, 0
2, 11910, Note_on_c, 0, 76, 64
2, 11920, Control_c, 0, 7, 81
2, 11950, Control_c, 0, 7, 82
2, 11970, Note_on_c, 0, 76, 0
2, 11970, Note_on_c, 0, 75, 64
2, 11980, Control_c, 0, 7, 83
2, 12010, Control_c, 0, 7, 84
2, 12030, Note_on_c, 0, 75, 0
2, 12030, Note_on_c, 0, 74, 64
2, 12040, Control_c, 0, 7, 85
2, 12060, Control_c, 0, 7, 86
2, 12090, Note_on_c, 0, 74, 0
2, 12090, Note_on_c, 0, 73, 64
2, 12090, Control_c, 0, 7, 87
2, 12120, Control_c, 0, 7, 88
2, 12150, Note_on_c, 0, 73, 0
2, 12150, Note_on_c, 0, 71, 64
2, 12150, Control_c, 0, 7, 89
2, 12170, Control_c, 0, 7, 90
2, 12200, Control_c, 0, 7, 91
2, 12210, Note_on_c, 0, 71, 0
2, 12210, Note_on_c, 0, 69, 64
2, 12230, Control_c, 0, 7, 92
2, 12240, Note_on_c, 0, 69, 0
2, 12240, Note_on_c, 0, 69, 64
2, 12260, Control_c, 0, 7, 93
2, 12270, Note_on_c, 0, 69, 0
2, 12270, Note_on_c, 0, 68, 64
2, 12280, Control_c, 0, 7, 94
2, 12320, Control_c, 0, 7, 95
2, 12330, Note_on_c, 0, 68, 0
2, 12330, Note_on_c, 0, 66, 64
2, 12340, Control_c, 0, 7, 94
2, 12350, Control_c, 0, 7, 93
2, 12360, Control_c, 0, 7, 92
2, 12370, Control_c, 0, 7, 91
2, 12380, Control_c, 0, 7, 90
2, 12390, Note_on_c, 0, 66, 0
2, 12390, Note_on_c, 0, 68, 64
2, 12390, Control_c, 0, 7, 89
2, 12400, Control_c, 0, 7, 88
2, 12405, Note_on_c, 0, 68, 0
2, 12405, Note_on_c, 0, 69, 64
2, 12410, Control_c, 0, 7, 87
2, 12420, Note_on_c, 0, 69, 0
2, 12420, Note_on_c, 0, 68, 64
2, 12420, Control_c, 0, 7, 86
2, 12430, Control_c, 0, 7, 85
2, 12440, Control_c, 0, 7, 84
2, 12450, Note_on_c, 0, 68, 0
2, 12450, Note_on_c, 0, 71, 64
2, 12465, Note_on_c, 0, 71, 0
2, 12465, Note_on_c, 0, 69, 64
2, 12480, Note_on_c, 0, 69, 0
2, 12480, Note_on_c, 0, 71, 64
2, 12510, Note_on_c, 0, 71, 0
2, 12510, Note_on_c, 0, 68, 64
2, 12525, Note_on_c, 0, 68, 0
2, 12525, Note_on_c, 0, 66, 64
2, 12540, Note_on_c, 0, 66, 0
2, 12540, Note_on_c, 0, 68, 64
2, 12570, Note_on_c, 0, 68, 0
2, 12570, Note_on_c, 0, 64, 64
2, 12585, Note_on_c, 0, 64, 0
2, 12585, Note_on_c, 0, 63, 64
2, 12600, Note_on_c, 0, 63, 0
2, 12600, Note_on_c, 0, 64, 64
2, 12660, Note_on_c, 0, 64, 0
2, 12660, Note_on_c, 0, 66, 64
2, 12720, Note_on_c, 0, 66, 0
2, 12720, Note_on_c, 0, 69, 64
2, 12780, Note_on_c, 0, 69, 0
2, 12780, Note_on_c, 0, 71, 64
2, 12790, Control_c, 0, 7, 84
2, 12820, Control_c, 0, 7, 85
2, 12840, Note_on_c, 0, 71, 0
2, 12840, Note_on_c, 0, 75, 64
2, 12850, Control_c, 0, 7, 86
2, 12870, Control_c, 0, 7, 87
2, 12900, Note_on_c, 0, 75, 0
2, 12900, Note_on_c, 0, 78, 64
2, 12900, Control_c, 0, 7, 88
2, 12920, Control_c, 0, 7, 89
2, 12950, Control_c, 0, 7, 90
2, 12960, Note_on_c, 0, 78, 0
2, 12960, Note_on_c, 0, 63, 64
2, 12980, Control_c, 0, 7, 91
2, 13000, Control_c, 0, 7, 92
2, 13020, Note_on_c, 0, 63, 0
2, 13020, Note_on_c, 0, 64, 64
2, 13030, Control_c, 0, 7, 93
2, 13050, Control_c, 0, 7, 94
2, 13080, Note_on_c, 0, 64, 0
2, 13080, Note_on_c, 0, 68, 64
2, 13080, Control_c, 0, 7, 95
2, 13110, Control_c, 0, 7, 96
2, 13130, Control_c, 0, 7, 97
2, 13140, Note_on_c, 0, 68, 0
2, 13140, Note_on_c, 0, 69, 64
2, 13160, Control_c, 0, 7, 98
2, 13180, Control_c, 0, 7, 99
2, 13200, Note_on_c, 0, 69, 0
2, 13200, Note_on_c, 0, 73, 64
2, 13210, Control_c, 0, 7, 100
2, 13240, Control_c, 0, 7, 101
2, 13260, Note_on_c, 0, 73, 0
2, 13260, Note_on_c, 0, 76, 64
2, 13260, Control_c, 0, 7, 102
2, 13290, Control_c, 0, 7, 103
2, 13310, Control_c, 0, 7, 104
2, 13320, Note_on_c, 0, 76, 0
2, 13320, Note_on_c, 0, 61, 64
2, 13340, Control_c, 0, 7, 105
2, 13370, Control_c, 0, 7, 106
2, 13380, Note_on_c, 0, 61, 0
2, 13380, Note_on_c, 0, 66, 64
2, 13390, Control_c, 0, 7, 107
2, 13420, Control_c, 0, 7, 108
2, 13440, Note_on_c, 0, 66, 0
2, 13440, Note_on_c, 0, 69, 64
2, 13440, Control_c, 0, 7, 109
2, 13470, Control_c, 0, 7, 110
2, 13490, Control_c, 0, 7, 110
2, 13500, Note_on_c, 0, 69, 0
2, 13500, Note_on_c, 0, 71, 64
2, 13520, Control_c, 0, 7, 109
2, 13550, Control_c, 0, 7, 108
2, 13560, Note_on_c, 0, 71, 0
2, 13560, Note_on_c, 0, 73, 64
2, 13580, Control_c, 0, 7, 107
2, 13600, Control_c, 0, 7, 106
2, 13620, Note_on_c, 0, 73, 0
2, 13620, Note_on_c, 0, 75, 64
2, 13630, Control_c, 0, 7, 105
2, 13660, Control_c, 0, 7, 104
2, 13680, Note_on_c, 0, 75, 0
2, 13680, Note_on_c, 0, 76, 64
2, 13690, Control_c, 0, 7, 103
2, 13710, Control_c, 0, 7, 102
2, 13740, Note_on_c, 0, 76, 0
2, 13740, Note_on_c, 0, 73, 64
2, 13740, Control_c, 0, 7, 101
2, 13770, Control_c, 0, 7, 100
2, 13790, Control_c, 0, 7, 99
2, 13800, Note_on_c, 0, 73, 0
2, 13800, Note_on_c, 0, 69, 64
2, 13820, Control_c, 0, 7, 98
2, 13850, Control_c, 0, 7, 97
2, 13860, Note_on_c, 0, 69, 0
2, 13860, Note_on_c, 0, 78, 64
2, 13880, Control_c, 0, 7, 96
2, 13900, Control_c, 0, 7, 95
2, 13930, Control_c, 0, 7, 94
2, 13960, Control_c, 0, 7, 93
2, 13990, Control_c, 0, 7, 92
2, 14010, Control_c, 0, 7, 91
2, 14040, Control_c, 0, 7, 90
2, 14070, Note_on_c, 0, 78, 0
2, 14070, Note_on_c, 0, 76, 64
2, 14070, Control_c, 0, 7, 89
2, 14090, Control_c, 0, 7, 88
2, 14100, Note_on_c, 0, 76, 0
2, 14100, Note_on_c, 0, 75, 64
2, 14120, Control_c, 0, 7, 87
2, 14130, Note_on_c, 0, 75, 0
2, 14130, Note_on_c, 0, 73, 64
2, 14150, Control_c, 0, 7, 86
2, 14160, Note_on_c, 0, 73, 0
2, 14160, Note_on_c, 0, 71, 64
2, 14180, Control_c, 0, 7, 85
2, 14190, Note_on_c, 0, 71, 0
2, 14190, Note_on_c, 0, 69, 64
2, 14200, Control_c, 0, 7, 84
2, 14220, Note_on_c, 0, 69, 0
2, 14220, Note_on_c, 0, 68, 64
2, 14230, Control_c, 0, 7, 83
2, 14250, Note_on_c, 0, 68, 0
2, 14250, Note_on_c, 0, 64, 64
2, 14260, Control_c, 0, 7, 82
2, 14265, Note_on_c, 0, 64, 0
2, 14265, Note_on_c, 0, 63, 64
2, 14277, Note_on_c, 0, 64, 64
2, 14280, Note_on_c, 0, 63, 0
2, 14290, Control_c, 0, 7, 81
2, 14307, Note_on_c, 0, 64, 0
2, 14310, Note_on_c, 0, 68, 64
2, 14310, Control_c, 0, 7, 80
2, 14325, Note_on_c, 0, 68, 0
2, 14325, Note_on_c, 0, 66, 64
2, 14340, Note_on_c, 0, 66, 0
2, 14340, Note_on_c, 0, 68, 64
2, 14340, Control_c, 0, 7, 79
2, 14370, Note_on_c, 0, 68, 0
2, 14370, Note_on_c, 0, 71, 64
2, 14370, Control_c, 0, 7, 78
2, 14385, Note_on_c, 0, 71, 0
2, 14385, Note_on_c, 0, 69, 64
2, 14390, Control_c, 0, 7, 77
2, 14400, Note_on_c, 0, 69, 0
2, 14400, Note_on_c, 0, 71, 64
2, 14420, Control_c, 0, 7, 78
2, 14430, Note_on_c, 0, 71, 0
2, 14430, Note_on_c, 0, 68, 64
2, 14440, Control_c, 0, 7, 79
2, 14445, Note_on_c, 0, 68, 0
2, 14445, Note_on_c, 0, 66, 64
2, 14450, Control_c, 0, 7, 80
2, 14460, Note_on_c, 0, 66, 0
2, 14460, Note_on_c, 0, 68, 64
2, 14460, Control_c, 0, 7, 81
2, 14470, Control_c, 0, 7, 82
2, 14480, Control_c, 0, 7, 83
2, 14490, Note_on_c, 0, 68, 0
2, 14490, Note_on_c, 0, 71, 64
2, 14490, Control_c, 0, 7, 84
2, 14500, Control_c, 0, 7, 85
2, 14505, Note_on_c, 0, 71, 0
2, 14505, Note_on_c, 0, 69, 64
2, 14510, Control_c, 0, 7, 86
2, 14520, Note_on_c, 0, 69, 0
2, 14520, Note_on_c, 0, 71, 64
2, 14530, Control_c, 0, 7, 87
2, 14540, Control_c, 0, 7, 88
2, 14550, Note_on_c, 0, 71, 0
2, 14550, Note_on_c, 0, 76, 64
2, 14550, Control_c, 0, 7, 89
2, 14560, Control_c, 0, 7, 90
2, 14565, Note_on_c, 0, 76, 0
2, 14565, Note_on_c, 0, 75, 64
2, 14570, Control_c, 0, 7, 91
2, 14580, Note_on_c, 0, 75, 0
2, 14580, Note_on_c, 0, 76, 64
2, 14580, Control_c, 0, 7, 92
2, 14590, Control_c, 0, 7, 93
2, 14600, Control_c, 0, 7, 94
2, 14610, Note_on_c, 0, 76, 0
2, 14610, Note_on_c, 0, 71, 64
2, 14620, Control_c, 0, 7, 93
2, 14640, Note_on_c, 0, 71, 0
2, 14640, Note_on_c, 0, 68, 64
2, 14650, Control_c, 0, 7, 92
2, 14670, Note_on_c, 0, 68, 0
2, 14670, Note_on_c, 0, 64, 64
2, 14670, Control_c, 0, 7, 91
2, 14690, Control_c, 0, 7, 90
2, 14700, Note_on_c, 0, 64, 0
2, 14720, Control_c, 0, 7, 89
2, 14740, Control_c, 0, 7, 88
2, 14760, Note_on_c, 0, 59, 64
2, 14760, Control_c, 0, 7, 87
2, 14790, Control_c, 0, 7, 86
2, 14810, Control_c, 0, 7, 85
2, 14820, Note_on_c, 0, 59, 0
2, 14820, Note_on_c, 0, 61, 64
2, 14830, Control_c, 0, 7, 84
2, 14860, Control_c, 0, 7, 83
2, 14880, Note_on_c, 0, 61, 0
2, 14880, Note_on_c, 0, 63, 64
2, 14880, Control_c, 0, 7, 82
2, 14900, Control_c, 0, 7, 81
2, 14940, Note_on_c, 0, 63, 0
2, 14940, Note_on_c, 0, 64, 64
2, 14960, Control_c, 0, 7, 80
2, 14990, Control_c, 0, 7, 81
2, 15000, Note_on_c, 0, 64, 0
2, 15000, Note_on_c, 0, 66, 64
2, 15010, Control_c, 0, 7, 82
2, 15030, Control_c, 0, 7, 83
2, 15050, Control_c, 0, 7, 84
2, 15060, Note_on_c, 0, 66, 0
2, 15060, Note_on_c, 0, 68, 64
2, 15080, Control_c, 0, 7, 85
2, 15100, Control_c, 0, 7, 86
2, 15120, Note_on_c, 0, 68, 0
2, 15120, Note_on_c, 0, 70, 64
2, 15120, Control_c, 0, 7, 87
2, 15140, Control_c, 0, 7, 88
2, 15160, Control_c, 0, 7, 89
2, 15180, Note_on_c, 0, 70, 0
2, 15180, Note_on_c, 0, 71, 64
2, 15190, Control_c, 0, 7, 90
2, 15210, Note_on_c, 0, 71, 0
2, 15210, Note_on_c, 0, 70, 64
2, 15210, Control_c, 0, 7, 91
2, 15230, Control_c, 0, 7, 92
2, 15240, Note_on_c, 0, 70, 0
2, 15240, Note_on_c, 0, 68, 64
2, 15250, Control_c, 0, 7, 93
2, 15270, Note_on_c, 0, 68, 0
2, 15270, Note_on_c, 0, 66, 64
2, 15270, Control_c, 0, 7, 94
2, 15300, Note_on_c, 0, 66, 0
2, 15300, Note_on_c, 0, 71, 64
2, 15300, Control_c, 0, 7, 91
2, 15360, Note_on_c, 0, 71, 0
2, 15360, Note_on_c, 0, 59, 64
2, 15360, Control_c, 0, 7, 90
2, 15410, Control_c, 0, 7, 89
2, 15420, Note_on_c, 0, 59, 0
2, 15460, Control_c, 0, 7, 88
2, 15510, Note_on_c, 0, 83, 64
2, 15510, Control_c, 0, 7, 87
2, 15560, Control_c, 0, 7, 86
2, 15570, Note_on_c, 0, 83, 0
2, 15570, Note_on_c, 0, 82, 64
2, 15620, Control_c, 0, 7, 85
2, 15630, Note_on_c, 0, 82, 0
2, 15630, Note_on_c, 0, 81, 64
2, 15670, Control_c, 0, 7, 84
2, 15690, Note_on_c, 0, 81, 0
2, 15690, Note_on_c, 0, 80, 64
2, 15720, Control_c, 0, 7, 83
2, 15750, Note_on_c, 0, 80, 0
2, 15750, Note_on_c, 0, 78, 64
2, 15770, Control_c, 0, 7, 82
2, 15810, Note_on_c, 0, 78, 0
2, 15810, Note_on_c, 0, 76, 64
2, 15820, Control_c, 0, 7, 81
2, 15870, Note_on_c, 0, 76, 0
2, 15870, Note_on_c, 0, 75, 64
2, 15870, Control_c, 0, 7, 80
2, 15930, Note_on_c, 0, 75, 0
2, 15930, Note_on_c, 0, 73, 64
2, 15930, Control_c, 0, 7, 79
2, 15980, Control_c, 0, 7, 78
2, 15990, Note_on_c, 0, 73, 0
2, 15990, Note_on_c, 0, 75, 64
2, 16005, Note_on_c, 0, 75, 0
2, 16005, Note_on_c, 0, 76, 64
2, 16020, Note_on_c, 0, 76, 0
2, 16020, Note_on_c, 0, 75, 64
2, 16030, Control_c, 0, 7, 77
2, 16050, Note_on_c, 0, 75, 0
2, 16050, Note_on_c, 0, 78, 64
2, 16065, Note_on_c, 0, 78, 0
2, 16065, Note_on_c, 0, 76, 64
2, 16080, Note_on_c, 0, 76, 0
2, 16080, Note_on_c, 0, 78, 64
2, 16080, Control_c, 0, 7, 76
2, 16110, Note_on_c, 0, 78, 0
2, 16110, Note_on_c, 0, 75, 64
2, 16125, Note_on_c, 0, 75, 0
2, 16125, Note_on_c, 0, 73, 64
2, 16130, Control_c, 0, 7, 75
2, 16140, Note_on_c, 0, 73, 0
2, 16140, Note_on_c, 0, 75, 64
2, 16170, Note_on_c, 0, 75, 0
2, 16170, Note_on_c, 0, 71, 64
2, 16180, Control_c, 0, 7, 74
2, 16185, Note_on_c, 0, 71, 0
2, 16185, Note_on_c, 0, 70, 64
2, 16200, Note_on_c, 0, 70, 0
2, 16200, Note_on_c, 0, 71, 64
2, 16230, Note_on_c, 0, 71, 0
2, 16230, Note_on_c, 0, 75, 64
2, 16245, Note_on_c, 0, 75, 0
2, 16245, Note_on_c, 0, 73, 64
2, 16260, Note_on_c, 0, 73, 0
2, 16260, Note_on_c, 0, 75, 64
2, 16290, Note_on_c, 0, 75, 0
2, 16290, Note_on_c, 0, 80, 64
2, 16305, Note_on_c, 0, 80, 0
2, 16305, Note_on_c, 0, 79, 64
2, 16320, Note_on_c, 0, 79, 0
2, 16320, Note_on_c, 0, 80, 64
2, 16350, Note_on_c, 0, 80, 0
2, 16350, Note_on_c, 0, 73, 64
2, 16365, Note_on_c, 0, 73, 0
2, 16365, Note_on_c, 0, 71, 64
2, 16380, Note_on_c, 0, 71, 0
2, 16380, Note_on_c, 0, 73, 64
2, 16410, Note_on_c, 0, 73, 0
2, 16410, Note_on_c, 0, 76, 64
2, 16425, Note_on_c, 0, 76, 0
2, 16425, Note_on_c, 0, 75, 64
2, 16440, Note_on_c, 0, 75, 0
2, 16440, Note_on_c, 0, 76, 64
2, 16470, Note_on_c, 0, 76, 0
2, 16470, Note_on_c, 0, 82, 64
2, 16485, Note_on_c, 0, 82, 0
2, 16485, Note_on_c, 0, 80, 64
2, 16500, Note_on_c, 0, 80, 0
2, 16500, Note_on_c, 0, 82, 64
2, 16530, Note_on_c, 0, 82, 0
2, 16530, Note_on_c, 0, 75, 64
2, 16545, Note_on_c, 0, 75, 0
2, 16545, Note_on_c, 0, 74, 64
2, 16560, Note_on_c, 0, 74, 0
2, 16560, Note_on_c, 0, 75, 64
2, 16590, Note_on_c, 0, 75, 0
2, 16590, Note_on_c, 0, 80, 64
2, 16605, Note_on_c, 0, 80, 0
2, 16605, Note_on_c, 0, 79, 64
2, 16620, Note_on_c, 0, 79, 0
2, 16620, Note_on_c, 0, 80, 64
2, 16650, Note_on_c, 0, 80, 0
2, 16650, Note_on_c, 0, 83, 64
2, 16665, Note_on_c, 0, 83, 0
2, 16665, Note_on_c, 0, 82, 64
2, 16680, Note_on_c, 0, 82, 0
2, 16680, Note_on_c, 0, 83, 64
2, 16710, Note_on_c, 0, 83, 0
2, 16710, Note_on_c, 0, 75, 64
2, 16725, Note_on_c, 0, 75, 0
2, 16725, Note_on_c, 0, 74, 64
2, 16740, Note_on_c, 0, 74, 0
2, 16740, Note_on_c, 0, 75, 64
2, 16770, Note_on_c, 0, 75, 0
2, 16770, Note_on_c, 0, 82, 64
2, 16785, Note_on_c, 0, 82, 0
2, 16785, Note_on_c, 0, 81, 64
2, 16800, Note_on_c, 0, 81, 0
2, 16800, Note_on_c, 0, 82, 64
2, 16830, Note_on_c, 0, 82, 0
2, 16830, Note_on_c, 0, 78, 64
2, 16845, Note_on_c, 0, 78, 0
2, 16845, Note_on_c, 0, 77, 64
2, 16860, Note_on_c, 0, 77, 0
2, 16860, Note_on_c, 0, 78, 64
2, 16890, Note_on_c, 0, 78, 0
2, 16890, Note_on_c, 0, 75, 64
2, 16905, Note_on_c, 0, 75, 0
2, 16905, Note_on_c, 0, 74, 64
2, 16910, Control_c, 0, 7, 75
2, 16920, Note_on_c, 0, 74, 0
2, 16920, Note_on_c, 0, 75, 64
2, 16940, Control_c, 0, 7, 76
2, 16950, Note_on_c, 0, 75, 0
2, 16950, Note_on_c, 0, 81, 64
2, 16970, Control_c, 0, 7, 77
2, 17000, Control_c, 0, 7, 78
2, 17010, Note_on_c, 0, 81, 0
2, 17010, Note_on_c, 0, 80, 64
2, 17030, Control_c, 0, 7, 79
2, 17060, Control_c, 0, 7, 80
2, 17070, Note_on_c, 0, 80, 0
2, 17070, Note_on_c, 0, 78, 64
2, 17090, Control_c, 0, 7, 81
2, 17120, Control_c, 0, 7, 82
2, 17130, Note_on_c, 0, 78, 0
2, 17130, Note_on_c, 0, 76, 64
2, 17145, Note_on_c, 0, 76, 0
2, 17145, Note_on_c, 0, 75, 64
2, 17150, Control_c, 0, 7, 83
2, 17160, Note_on_c, 0, 75, 0
2, 17160, Note_on_c, 0, 76, 64
2, 17180, Control_c, 0, 7, 84
2, 17190, Note_on_c, 0, 76, 0
2, 17190, Note_on_c, 0, 73, 64
2, 17205, Note_on_c, 0, 73, 0
2, 17205, Note_on_c, 0, 72, 64
2, 17210, Control_c, 0, 7, 85
2, 17220, Note_on_c, 0, 72, 0
2, 17220, Note_on_c, 0, 73, 64
2, 17240, Control_c, 0, 7, 86
2, 17250, Note_on_c, 0, 73, 0
2, 17250, Note_on_c, 0, 76, 64
2, 17265, Note_on_c, 0, 76, 0
2, 17265, Note_on_c, 0, 75, 64
2, 17270, Control_c, 0, 7, 87
2, 17280, Note_on_c, 0, 75, 0
2, 17280, Note_on_c, 0, 76, 64
2, 17300, Control_c, 0, 7, 88
2, 17310, Note_on_c, 0, 76, 0
2, 17310, Note_on_c, 0, 80, 64
2, 17330, Control_c, 0, 7, 89
2, 17360, Control_c, 0, 7, 90
2, 17370, Note_on_c, 0, 80, 0
2, 17370, Note_on_c, 0, 78, 64
2, 17390, Control_c, 0, 7, 91
2, 17420, Control_c, 0, 7, 92
2, 17430, Note_on_c, 0, 78, 0
2, 17430, Note_on_c, 0, 76, 64
2, 17450, Control_c, 0, 7, 93
2, 17480, Control_c, 0, 7, 94
2, 17490, Note_on_c, 0, 76, 0
2, 17490, Note_on_c, 0, 75, 64
2, 17505, Note_on_c, 0, 75, 0
2, 17505, Note_on_c, 0, 73, 64
2, 17510, Control_c, 0, 7, 95
2, 17520, Note_on_c, 0, 73, 0
2, 17520, Note_on_c, 0, 75, 64
2, 17540, Control_c, 0, 7, 96
2, 17550, Note_on_c, 0, 75, 0
2, 17550, Note_on_c, 0, 71, 64
2, 17565, Note_on_c, 0, 71, 0
2, 17565, Note_on_c, 0, 70, 64
2, 17570, Control_c, 0, 7, 97
2, 17580, Note_on_c, 0, 70, 0
2, 17580, Note_on_c, 0, 71, 64
2, 17600, Control_c, 0, 7, 98
2, 17610, Note_on_c, 0, 71, 0
2, 17610, Note_on_c, 0, 73, 64
2, 17625, Note_on_c, 0, 73, 0
2, 17625, Note_on_c, 0, 71, 64
2, 17630, Control_c, 0, 7, 99
2, 17640, Note_on_c, 0, 71, 0
2, 17640, Note_on_c, 0, 73, 64
2, 17660, Control_c, 0, 7, 100
2, 17670, Note_on_c, 0, 73, 0
2, 17670, Note_on_c, 0, 76, 64
2, 17690, Control_c, 0, 7, 101
2, 17720, Control_c, 0, 7, 102
2, 17730, Note_on_c, 0, 76, 0
2, 17730, Note_on_c, 0, 75, 64
2, 17750, Control_c, 0, 7, 103
2, 17780, Control_c, 0, 7, 104
2, 17790, Note_on_c, 0, 75, 0
2, 17790, Note_on_c, 0, 73, 64
2, 17810, Control_c, 0, 7, 105
2, 17840, Control_c, 0, 7, 106
2, 17850, Note_on_c, 0, 73, 0
2, 17850, Note_on_c, 0, 71, 64
2, 17865, Note_on_c, 0, 71, 0
2, 17865, Note_on_c, 0, 70, 64
2, 17870, Control_c, 0, 7, 107
2, 17880, Note_on_c, 0, 70, 0
2, 17880, Note_on_c, 0, 71, 64
2, 17900, Control_c, 0, 7, 108
2, 17910, Note_on_c, 0, 71, 0
2, 17910, Note_on_c, 0, 68, 64
2, 17925, Note_on_c, 0, 68, 0
2, 17925, Note_on_c, 0, 67, 64
2, 17930, Control_c, 0, 7, 109
2, 17940, Note_on_c, 0, 67, 0
2, 17940, Note_on_c, 0, 68, 64
2, 17960, Control_c, 0, 7, 110
2, 17970, Note_on_c, 0, 68, 0
2, 17970, Note_on_c, 0, 69, 64
2, 17980, Control_c, 0, 7, 111
2, 17985, Note_on_c, 0, 69, 0
2, 17985, Note_on_c, 0, 68, 64
2, 18000, Note_on_c, 0, 68, 0
2, 18000, Note_on_c, 0, 69, 64
2, 18030, Note_on_c, 0, 69, 0
2, 18030, Note_on_c, 0, 73, 64
2, 18045, Note_on_c, 0, 73, 0
2, 18045, Note_on_c, 0, 71, 64
2, 18060, Note_on_c, 0, 71, 0
2, 18060, Note_on_c, 0, 73, 64
2, 18090, Note_on_c, 0, 73, 0
2, 18090, Note_on_c, 0, 69, 64
2, 18105, Note_on_c, 0, 69, 0
2, 18105, Note_on_c, 0, 68, 64
2, 18120, Note_on_c, 0, 68, 0
2, 18120, Note_on_c, 0, 69, 64
2, 18150, Note_on_c, 0, 69, 0
2, 18150, Note_on_c, 0, 76, 64
2, 18165, Note_on_c, 0, 76, 0
2, 18165, Note_on_c, 0, 75, 64
2, 18180, Note_on_c, 0, 75, 0
2, 18180, Note_on_c, 0, 76, 64
2, 18210, Note_on_c, 0, 76, 0
2, 18210, Note_on_c, 0, 67, 64
2, 18225, Note_on_c, 0, 67, 0
2, 18225, Note_on_c, 0, 65, 64
2, 18240, Note_on_c, 0, 65, 0
2, 18240, Note_on_c, 0, 67, 64
2, 18270, Note_on_c, 0, 67, 0
2, 18270, Note_on_c, 0, 70, 64
2, 18285, Note_on_c, 0, 70, 0
2, 18285, Note_on_c, 0, 68, 64
2, 18300, Note_on_c, 0, 68, 0
2, 18300, Note_on_c, 0, 70, 64
2, 18330, Note_on_c, 0, 70, 0
2, 18330, Note_on_c, 0, 59, 64
2, 18345, Note_on_c, 0, 59, 0
2, 18345, Note_on_c, 0, 58, 64
2, 18360, Note_on_c, 0, 58, 0
2, 18360, Note_on_c, 0, 59, 64
2, 18360, Control_c, 0, 7, 103
2, 18370, Control_c, 0, 7, 102
2, 18380, Control_c, 0, 7, 101
2, 18386, Control_c, 0, 7, 100
2, 18390, Note_on_c, 0, 59, 0
2, 18390, Note_on_c, 0, 68, 64
2, 18396, Control_c, 0, 7, 99
2, 18403, Control_c, 0, 7, 98
2, 18413, Control_c, 0, 7, 97
2, 18420, Note_on_c, 0, 68, 0
2, 18420, Note_on_c, 0, 64, 64
2, 18420, Control_c, 0, 7, 96
2, 18430, Control_c, 0, 7, 95
2, 18436, Control_c, 0, 7, 94
2, 18446, Control_c, 0, 7, 93
2, 18450, Note_on_c, 0, 64, 0
2, 18450, Note_on_c, 0, 61, 64
2, 18453, Control_c, 0, 7, 92
2, 18463, Control_c, 0, 7, 91
2, 18470, Control_c, 0, 7, 90
2, 18480, Note_on_c, 0, 61, 0
2, 18480, Note_on_c, 0, 58, 64
2, 18480, Control_c, 0, 7, 89
2, 18486, Control_c, 0, 7, 88
2, 18496, Control_c, 0, 7, 87
2, 18503, Control_c, 0, 7, 86
2, 18504, Note_on_c, 0, 68, 64
2, 18510, Note_on_c, 0, 58, 0
2, 18534, Note_on_c, 0, 68, 0
2, 18540, Note_on_c, 0, 68, 64
2, 18570, Note_on_c, 0, 68, 0
2, 18570, Note_on_c, 0, 63, 64
2, 18600, Note_on_c, 0, 63, 0
2, 18600, Note_on_c, 0, 59, 64
2, 18630, Note_on_c, 0, 59, 0
2, 18630, Note_on_c, 0, 56, 64
2, 18660, Note_on_c, 0, 56, 0
2, 18720, Note_on_c, 0, 64, 64
2, 18780, Note_on_c, 0, 64, 0
2, 18780, Note_on_c, 0, 66, 64
2, 18840, Note_on_c, 0, 66, 0
2, 18840, Note_on_c, 0, 68, 64
2, 18900, Note_on_c, 0, 68, 0
2, 18900, Note_on_c, 0, 69, 64
2, 18960, Note_on_c, 0, 69, 0
2, 18960, Note_on_c, 0, 71, 64
2, 19020, Note_on_c, 0, 71, 0
2, 19020, Note_on_c, 0, 73, 64
2, 19080, Note_on_c, 0, 73, 0
2, 19080, Note_on_c, 0, 75, 64
2, 19140, Note_on_c, 0, 75, 0
2, 19140, Note_on_c, 0, 76, 64
2, 19170, Note_on_c, 0, 76, 0
2, 19170, Note_on_c, 0, 75, 64
2, 19200, Note_on_c, 0, 75, 0
2, 19200, Note_on_c, 0, 73, 64
2, 19230, Note_on_c, 0, 73, 0
2, 19230, Note_on_c, 0, 71, 64
2, 19260, Note_on_c, 0, 71, 0
2, 19260, Note_on_c, 0, 76, 64
2, 19350, Note_on_c, 0, 76, 0
2, 19350, Note_on_c, 0, 71, 64
2, 19365, Note_on_c, 0, 71, 0
2, 19365, Note_on_c, 0, 69, 64
2, 19380, Note_on_c, 0, 69, 0
2, 19380, Note_on_c, 0, 71, 64
2, 19410, Note_on_c, 0, 71, 0
2, 19410, Note_on_c, 0, 68, 64
2, 19425, Note_on_c, 0, 68, 0
2, 19425, Note_on_c, 0, 66, 64
2, 19440, Note_on_c, 0, 66, 0
2, 19440, Note_on_c, 0, 68, 64
2, 19440, Control_c, 0, 7, 78
2, 19470, Note_on_c, 0, 68, 0
2, 19470, Note_on_c, 0, 76, 64
2, 19470, Control_c, 0, 7, 79
2, 19500, Control_c, 0, 7, 80
2, 19530, Note_on_c, 0, 76, 0
2, 19530, Note_on_c, 0, 75, 64
2, 19530, Control_c, 0, 7, 81
2, 19556, Control_c, 0, 7, 82
2, 19586, Control_c, 0, 7, 83
2, 19590, Note_on_c, 0, 75, 0
2, 19590, Note_on_c, 0, 74, 64
2, 19616, Control_c, 0, 7, 84
2, 19643, Control_c, 0, 7, 85
2, 19650, Note_on_c, 0, 74, 0
2, 19650, Note_on_c, 0, 73, 64
2, 19673, Control_c, 0, 7, 86
2, 19703, Control_c, 0, 7, 87
2, 19710, Note_on_c, 0, 73, 0
2, 19710, Note_on_c, 0, 71, 64
2, 19730, Control_c, 0, 7, 88
2, 19760, Control_c, 0, 7, 89
2, 19770, Note_on_c, 0, 71, 0
2, 19770, Note_on_c, 0, 69, 64
2, 19790, Control_c, 0, 7, 90
2, 19800, Note_on_c, 0, 69, 0
2, 19800, Note_on_c, 0, 69, 64
2, 19810, Control_c, 0, 7, 91
2, 19826, Control_c, 0, 7, 90
2, 19830, Note_on_c, 0, 69, 0
2, 19830, Note_on_c, 0, 68, 64
2, 19840, Control_c, 0, 7, 89
2, 19856, Control_c, 0, 7, 88
2, 19870, Control_c, 0, 7, 87
2, 19883, Control_c, 0, 7, 86
2, 19890, Note_on_c, 0, 68, 0
2, 19890, Note_on_c, 0, 66, 64
2, 19900, Control_c, 0, 7, 85
2, 19913, Control_c, 0, 7, 84
2, 19926, Control_c, 0, 7, 83
2, 19943, Control_c, 0, 7, 82
2, 19950, Note_on_c, 0, 66, 0
2, 19950, Note_on_c, 0, 68, 64
2, 19956, Control_c, 0, 7, 81
2, 19965, Note_on_c, 0, 68, 0
2, 19965, Note_on_c, 0, 69, 64
2, 19970, Control_c, 0, 7, 80
2, 19980, Note_on_c, 0, 69, 0
2, 19980, Note_on_c, 0, 68, 64
2, 20010, Note_on_c, 0, 68, 0
2, 20010, Note_on_c, 0, 71, 64
2, 20025, Note_on_c, 0, 71, 0
2, 20025, Note_on_c, 0, 69, 64
2, 20040, Note_on_c, 0, 69, 0
2, 20040, Note_on_c, 0, 71, 64
2, 20070, Note_on_c, 0, 71, 0
2, 20070, Note_on_c, 0, 68, 64
2, 20085, Note_on_c, 0, 68, 0
2, 20085, Note_on_c, 0, 66, 64
2, 20100, Note_on_c, 0, 66, 0
2, 20100, Note_on_c, 0, 68, 64
2, 20130, Note_on_c, 0, 68, 0
2, 20130, Note_on_c, 0, 64, 64
2, 20145, Note_on_c, 0, 64, 0
2, 20145, Note_on_c, 0, 63, 64
2, 20160, Note_on_c, 0, 63, 0
2, 20160, Note_on_c, 0, 64, 64
2, 20220, Note_on_c, 0, 64, 0
2, 20220, Note_on_c, 0, 66, 64
2, 20280, Note_on_c, 0, 66, 0
2, 20280, Note_on_c, 0, 69, 64
2, 20340, Note_on_c, 0, 69, 0
2, 20340, Note_on_c, 0, 71, 64
2, 20346, Control_c, 0, 7, 80
2, 20376, Control_c, 0, 7, 81
2, 20400, Note_on_c, 0, 71, 0
2, 20400, Note_on_c, 0, 75, 64
2, 20403, Control_c, 0, 7, 82
2, 20430, Control_c, 0, 7, 83
2, 20456, Control_c, 0, 7, 84
2, 20460, Note_on_c, 0, 75, 0
2, 20460, Note_on_c, 0, 78, 64
2, 20483, Control_c, 0, 7, 85
2, 20513, Control_c, 0, 7, 86
2, 20520, Note_on_c, 0, 78, 0
2, 20520, Note_on_c, 0, 63, 64
2, 20540, Control_c, 0, 7, 87
2, 20566, Control_c, 0, 7, 88
2, 20580, Note_on_c, 0, 63, 0
2, 20580, Note_on_c, 0, 64, 64
2, 20593, Control_c, 0, 7, 89
2, 20620, Control_c, 0, 7, 90
2, 20640, Note_on_c, 0, 64, 0
2, 20640, Note_on_c, 0, 68, 64
2, 20650, Control_c, 0, 7, 91
2, 20676, Control_c, 0, 7, 92
2, 20700, Note_on_c, 0, 68, 0
2, 20700, Note_on_c, 0, 69, 64
2, 20703, Control_c, 0, 7, 93
2, 20730, Control_c, 0, 7, 94
2, 20756, Control_c, 0, 7, 95
2, 20760, Note_on_c, 0, 69, 0
2, 20760, Note_on_c, 0, 73, 64
2, 20786, Control_c, 0, 7, 96
2, 20813, Control_c, 0, 7, 97
2, 20820, Note_on_c, 0, 73, 0
2, 20820, Note_on_c, 0, 76, 64
2, 20840, Control_c, 0, 7, 98
2, 20866, Control_c, 0, 7, 99
2, 20880, Note_on_c, 0, 76, 0
2, 20880, Note_on_c, 0, 61, 64
2, 20893, Control_c, 0, 7, 100
2, 20923, Control_c, 0, 7, 101
2, 20940, Note_on_c, 0, 61, 0
2, 20940, Note_on_c, 0, 66, 64
2, 20950, Control_c, 0, 7, 102
2, 20976, Control_c, 0, 7, 103
2, 21000, Note_on_c, 0, 66, 0
2, 21000, Note_on_c, 0, 69, 64
2, 21003, Control_c, 0, 7, 104
2, 21030, Control_c, 0, 7, 105
2, 21056, Control_c, 0, 7, 106
2, 21060, Note_on_c, 0, 69, 0
2, 21060, Note_on_c, 0, 71, 64
2, 21060, Control_c, 0, 7, 104
2, 21106, Control_c, 0, 7, 103
2, 21120, Note_on_c, 0, 71, 0
2, 21120, Note_on_c, 0, 73, 64
2, 21150, Control_c, 0, 7, 102
2, 21180, Note_on_c, 0, 73, 0
2, 21180, Note_on_c, 0, 75, 64
2, 21193, Control_c, 0, 7, 101
2, 21240, Note_on_c, 0, 75, 0
2, 21240, Note_on_c, 0, 76, 64
2, 21240, Control_c, 0, 7, 100
2, 21283, Control_c, 0, 7, 99
2, 21300, Note_on_c, 0, 76, 0
2, 21300, Note_on_c, 0, 73, 64
2, 21326, Control_c, 0, 7, 98
2, 21360, Note_on_c, 0, 73, 0
2, 21360, Note_on_c, 0, 69, 64
2, 21370, Control_c, 0, 7, 97
2, 21416, Control_c, 0, 7, 96
2, 21420, Note_on_c, 0, 69, 0
2, 21420, Note_on_c, 0, 78, 64
2, 21460, Control_c, 0, 7, 95
2, 21503, Control_c, 0, 7, 94
2, 21550, Control_c, 0, 7, 93
2, 21593, Control_c, 0, 7, 92
2, 21630, Note_on_c, 0, 78, 0
2, 21630, Note_on_c, 0, 76, 64
2, 21636, Control_c, 0, 7, 91
2, 21660, Note_on_c, 0, 76, 0
2, 21660, Note_on_c, 0, 75, 64
2, 21680, Control_c, 0, 7, 90
2, 21690, Note_on_c, 0, 75, 0
2, 21690, Note_on_c, 0, 73, 64
2, 21720, Note_on_c, 0, 73, 0
2, 21720, Note_on_c, 0, 71, 64
2, 21726, Control_c, 0, 7, 89
2, 21750, Note_on_c, 0, 71, 0
2, 21750, Note_on_c, 0, 69, 64
2, 21770, Control_c, 0, 7, 88
2, 21780, Note_on_c, 0, 69, 0
2, 21780, Note_on_c, 0, 68, 64
2, 21810, Note_on_c, 0, 68, 0
2, 21810, Note_on_c, 0, 64, 64
2, 21813, Control_c, 0, 7, 87
2, 21825, Note_on_c, 0, 64, 0
2, 21825, Note_on_c, 0, 63, 64
2, 21840, Note_on_c, 0, 63, 0
2, 21840, Note_on_c, 0, 64, 64
2, 21856, Control_c, 0, 7, 86
2, 21870, Note_on_c, 0, 64, 0
2, 21870, Note_on_c, 0, 68, 64
2, 21885, Note_on_c, 0, 68, 0
2, 21885, Note_on_c, 0, 66, 64
2, 21900, Note_on_c, 0, 66, 0
2, 21900, Note_on_c, 0, 68, 64
2, 21903, Control_c, 0, 7, 85
2, 21930, Note_on_c, 0, 68, 0
2, 21930, Note_on_c, 0, 71, 64
2, 21945, Note_on_c, 0, 71, 0
2, 21945, Note_on_c, 0, 69, 64
2, 21946, Control_c, 0, 7, 84
2, 21960, Note_on_c, 0, 69, 0
2, 21960, Note_on_c, 0, 71, 64
2, 21990, Note_on_c, 0, 71, 0
2, 21990, Note_on_c, 0, 68, 64
2, 21990, Control_c, 0, 7, 83
2, 22005, Note_on_c, 0, 68, 0
2, 22005, Note_on_c, 0, 66, 64
2, 22020, Note_on_c, 0, 66, 0
2, 22020, Note_on_c, 0, 68, 64
2, 22036, Control_c, 0, 7, 82
2, 22050, Note_on_c, 0, 68, 0
2, 22050, Note_on_c, 0, 71, 64
2, 22065, Note_on_c, 0, 71, 0
2, 22065, Note_on_c, 0, 69, 64
2, 22080, Note_on_c, 0, 69, 0
2, 22080, Note_on_c, 0, 71, 64
2, 22080, Control_c, 0, 7, 81
2, 22110, Note_on_c, 0, 71, 0
2, 22110, Note_on_c, 0, 76, 64
2, 22123, Control_c, 0, 7, 80
2, 22125, Note_on_c, 0, 76, 0
2, 22125, Note_on_c, 0, 75, 64
2, 22140, Note_on_c, 0, 75, 0
2, 22140, Note_on_c, 0, 76, 64
2, 22166, Control_c, 0, 7, 79
2, 22170, Note_on_c, 0, 76, 0
2, 22170, Note_on_c, 0, 71, 64
2, 22200, Note_on_c, 0, 71, 0
2, 22200, Note_on_c, 0, 68, 64
2, 22213, Control_c, 0, 7, 78
2, 22230, Note_on_c, 0, 68, 0
2, 22230, Note_on_c, 0, 64, 64
2, 22256, Control_c, 0, 7, 77
2, 22260, Note_on_c, 0, 64, 0
2, 22300, Control_c, 0, 7, 76
2, 22343, Control_c, 0, 7, 75
2, 22343, End_track
3, 0, Start_track
3, 0, MIDI_port, 0
3, 0, Title_t, "piano"
3, 0, Program_c, 1, 0
3, 0, Control_c, 1, 7, 89
3, 0, Control_c, 1, 10, 64
3, 0, Note_on_c, 1, 56, 64
3, 56, Note_on_c, 1, 57, 64
3, 60, Note_on_c, 1, 56, 0
3, 116, Note_on_c, 1, 57, 0
3, 116, Note_on_c, 1, 59, 64
3, 176, Note_on_c, 1, 59, 0
3, 180, Note_on_c, 1, 61, 64
3, 240, Note_on_c, 1, 61, 0
3, 246, Note_on_c, 1, 63, 64
3, 298, Note_on_c, 1, 64, 64
3, 306, Note_on_c, 1, 63, 0
3, 358, Note_on_c, 1, 64, 0
3, 360, Note_on_c, 1, 59, 64
3, 450, Note_on_c, 1, 59, 0
3, 450, Note_on_c, 1, 66, 64
3, 480, Note_on_c, 1, 66, 0
3, 480, Note_on_c, 1, 64, 64
3, 510, Note_on_c, 1, 64, 0
3, 510, Note_on_c, 1, 63, 64
3, 540, Note_on_c, 1, 63, 0
3, 570, Note_on_c, 1, 64, 64
3, 630, Note_on_c, 1, 64, 0
3, 630, Note_on_c, 1, 63, 64
3, 690, Note_on_c, 1, 63, 0
3, 690, Note_on_c, 1, 62, 64
3, 750, Note_on_c, 1, 62, 0
3, 750, Note_on_c, 1, 61, 64
3, 810, Note_on_c, 1, 61, 0
3, 810, Note_on_c, 1, 60, 64
3, 870, Note_on_c, 1, 60, 0
3, 870, Note_on_c, 1, 59, 64
3, 900, Note_on_c, 1, 59, 0
3, 900, Note_on_c, 1, 64, 64
3, 930, Note_on_c, 1, 64, 0
3, 930, Note_on_c, 1, 52, 64
3, 945, Note_on_c, 1, 52, 0
3, 945, Note_on_c, 1, 54, 64
3, 960, Note_on_c, 1, 54, 0
3, 960, Note_on_c, 1, 56, 64
3, 990, Note_on_c, 1, 56, 0
3, 990, Note_on_c, 1, 64, 64
3, 1005, Note_on_c, 1, 64, 0
3, 1005, Note_on_c, 1, 63, 64
3, 1020, Note_on_c, 1, 63, 0
3, 1020, Note_on_c, 1, 64, 64
3, 1050, Note_on_c, 1, 64, 0
3, 1050, Note_on_c, 1, 66, 64
3, 1065, Note_on_c, 1, 66, 0
3, 1065, Note_on_c, 1, 65, 64
3, 1080, Note_on_c, 1, 65, 0
3, 1080, Note_on_c, 1, 66, 64
3, 1110, Note_on_c, 1, 66, 0
3, 1110, Note_on_c, 1, 59, 64
3, 1125, Note_on_c, 1, 59, 0
3, 1125, Note_on_c, 1, 58, 64
3, 1140, Note_on_c, 1, 58, 0
3, 1140, Note_on_c, 1, 59, 64
3, 1170, Note_on_c, 1, 59, 0
3, 1170, Note_on_c, 1, 57, 64
3, 1185, Note_on_c, 1, 57, 0
3, 1185, Note_on_c, 1, 56, 64
3, 1200, Note_on_c, 1, 56, 0
3, 1200, Note_on_c, 1, 57, 64
3, 1230, Note_on_c, 1, 57, 0
3, 1230, Note_on_c, 1, 59, 64
3, 1245, Note_on_c, 1, 59, 0
3, 1245, Note_on_c, 1, 61, 64
3, 1260, Note_on_c, 1, 61, 0
3, 1260, Note_on_c, 1, 59, 64
3, 1290, Note_on_c, 1, 59, 0
3, 1290, Note_on_c, 1, 64, 64
3, 1350, Note_on_c, 1, 64, 0
3, 1350, Note_on_c, 1, 63, 64
3, 1410, Note_on_c, 1, 63, 0
3, 1410, Note_on_c, 1, 62, 64
3, 1470, Note_on_c, 1, 62, 0
3, 1470, Note_on_c, 1, 61, 64
3, 1485, Note_on_c, 1, 61, 0
3, 1485, Note_on_c, 1, 63, 64
3, 1500, Note_on_c, 1, 63, 0
3, 1500, Note_on_c, 1, 64, 64
3, 1530, Note_on_c, 1, 64, 0
3, 1530, Note_on_c, 1, 68, 64
3, 1545, Note_on_c, 1, 68, 0
3, 1545, Note_on_c, 1, 67, 64
3, 1560, Note_on_c, 1, 67, 0
3, 1560, Note_on_c, 1, 68, 64
3, 1590, Note_on_c, 1, 68, 0
3, 1590, Note_on_c, 1, 64, 64
3, 1605, Note_on_c, 1, 64, 0
3, 1605, Note_on_c, 1, 63, 64
3, 1620, Note_on_c, 1, 63, 0
3, 1620, Note_on_c, 1, 64, 64
3, 1650, Note_on_c, 1, 64, 0
3, 1650, Note_on_c, 1, 61, 64
3, 1710, Note_on_c, 1, 61, 0
3, 1710, Note_on_c, 1, 66, 64
3, 1770, Note_on_c, 1, 66, 0
3, 1770, Note_on_c, 1, 58, 64
3, 1830, Note_on_c, 1, 58, 0
3, 1830, Note_on_c, 1, 59, 64
3, 1845, Note_on_c, 1, 59, 0
3, 1845, Note_on_c, 1, 61, 64
3, 1860, Note_on_c, 1, 61, 0
3, 1860, Note_on_c, 1, 63, 64
3, 1890, Note_on_c, 1, 63, 0
3, 1890, Note_on_c, 1, 66, 64
3, 1905, Note_on_c, 1, 66, 0
3, 1905, Note_on_c, 1, 65, 64
3, 1920, Note_on_c, 1, 65, 0
3, 1920, Note_on_c, 1, 66, 64
3, 1950, Note_on_c, 1, 66, 0
3, 1950, Note_on_c, 1, 63, 64
3, 1965, Note_on_c, 1, 63, 0
3, 1965, Note_on_c, 1, 61, 64
3, 1980, Note_on_c, 1, 61, 0
3, 1980, Note_on_c, 1, 63, 64
3, 2010, Note_on_c, 1, 63, 0
3, 2010, Note_on_c, 1, 59, 64
3, 2070, Note_on_c, 1, 59, 0
3, 2070, Note_on_c, 1, 64, 64
3, 2130, Note_on_c, 1, 64, 0
3, 2130, Note_on_c, 1, 56, 64
3, 2190, Note_on_c, 1, 56, 0
3, 2190, Note_on_c, 1, 58, 64
3, 2205, Note_on_c, 1, 58, 0
3, 2205, Note_on_c, 1, 59, 64
3, 2220, Note_on_c, 1, 59, 0
3, 2220, Note_on_c, 1, 58, 64
3, 2250, Note_on_c, 1, 58, 0
3, 2250, Note_on_c, 1, 64, 64
3, 2265, Note_on_c, 1, 64, 0
3, 2265, Note_on_c, 1, 63, 64
3, 2280, Note_on_c, 1, 63, 0
3, 2280, Note_on_c, 1, 61, 64
3, 2310, Note_on_c, 1, 61, 0
3, 2310, Note_on_c, 1, 61, 64
3, 2325, Note_on_c, 1, 61, 0
3, 2325, Note_on_c, 1, 63, 64
3, 2340, Note_on_c, 1, 63, 0
3, 2340, Note_on_c, 1, 64, 64
3, 2370, Note_on_c, 1, 64, 0
3, 2370, Note_on_c, 1, 59, 64
3, 2385, Note_on_c, 1, 59, 0
3, 2385, Note_on_c, 1, 58, 64
3, 2400, Note_on_c, 1, 58, 0
3, 2400, Note_on_c, 1, 59, 64
3, 2430, Note_on_c, 1, 59, 0
3, 2430, Note_on_c, 1, 66, 64
3, 2445, Note_on_c, 1, 66, 0
3, 2445, Note_on_c, 1, 65, 64
3, 2460, Note_on_c, 1, 65, 0
3, 2460, Note_on_c, 1, 66, 64
3, 2490, Note_on_c, 1, 66, 0
3, 2490, Note_on_c, 1, 66, 64
3, 2505, Note_on_c, 1, 66, 0
3, 2505, Note_on_c, 1, 68, 64
3, 2520, Note_on_c, 1, 68, 0
3, 2520, Note_on_c, 1, 66, 64
3, 2550, Note_on_c, 1, 66, 0
3, 2550, Note_on_c, 1, 68, 64
3, 2565, Note_on_c, 1, 68, 0
3, 2565, Note_on_c, 1, 67, 64
3, 2580, Note_on_c, 1, 67, 0
3, 2580, Note_on_c, 1, 68, 64
3, 2610, Note_on_c, 1, 68, 0
3, 2610, Note_on_c, 1, 61, 64
3, 2625, Note_on_c, 1, 61, 0
3, 2625, Note_on_c, 1, 60, 64
3, 2640, Note_on_c, 1, 60, 0
3, 2640, Note_on_c, 1, 61, 64
3, 2670, Note_on_c, 1, 61, 0
3, 2670, Note_on_c, 1, 64, 64
3, 2685, Note_on_c, 1, 64, 0
3, 2685, Note_on_c, 1, 63, 64
3, 2700, Note_on_c, 1, 63, 0
3, 2700, Note_on_c, 1, 64, 64
3, 2730, Note_on_c, 1, 64, 0
3, 2730, Note_on_c, 1, 58, 64
3, 2760, Note_on_c, 1, 58, 0
3, 2760, Note_on_c, 1, 61, 64
3, 2790, Note_on_c, 1, 61, 0
3, 2790, Note_on_c, 1, 64, 64
3, 2820, Note_on_c, 1, 64, 0
3, 2820, Note_on_c, 1, 61, 64
3, 2850, Note_on_c, 1, 61, 0
3, 2850, Note_on_c, 1, 64, 64
3, 2880, Note_on_c, 1, 64, 0
3, 2880, Note_on_c, 1, 66, 64
3, 2910, Note_on_c, 1, 66, 0
3, 2910, Note_on_c, 1, 68, 64
3, 2925, Note_on_c, 1, 68, 0
3, 2925, Note_on_c, 1, 67, 64
3, 2940, Note_on_c, 1, 67, 0
3, 2940, Note_on_c, 1, 68, 64
3, 2970, Note_on_c, 1, 68, 0
3, 2970, Note_on_c, 1, 64, 64
3, 2985, Note_on_c, 1, 64, 0
3, 2985, Note_on_c, 1, 63, 64
3, 3000, Note_on_c, 1, 63, 0
3, 3000, Note_on_c, 1, 64, 64
3, 3030, Note_on_c, 1, 64, 0
3, 3030, Note_on_c, 1, 63, 64
3, 3045, Note_on_c, 1, 63, 0
3, 3045, Note_on_c, 1, 61, 64
3, 3060, Note_on_c, 1, 61, 0
3, 3060, Note_on_c, 1, 63, 64
3, 3090, Note_on_c, 1, 63, 0
3, 3090, Note_on_c, 1, 63, 64
3, 3105, Note_on_c, 1, 63, 0
3, 3105, Note_on_c, 1, 61, 64
3, 3120, Note_on_c, 1, 61, 0
3, 3120, Note_on_c, 1, 63, 64
3, 3150, Note_on_c, 1, 63, 0
3, 3150, Note_on_c, 1, 63, 64
3, 3165, Note_on_c, 1, 63, 0
3, 3165, Note_on_c, 1, 61, 64
3, 3180, Note_on_c, 1, 61, 0
3, 3180, Note_on_c, 1, 63, 64
3, 3210, Note_on_c, 1, 63, 0
3, 3210, Note_on_c, 1, 59, 64
3, 3225, Note_on_c, 1, 59, 0
3, 3225, Note_on_c, 1, 57, 64
3, 3240, Note_on_c, 1, 57, 0
3, 3240, Note_on_c, 1, 59, 64
3, 3270, Note_on_c, 1, 59, 0
3, 3270, Note_on_c, 1, 63, 64
3, 3285, Note_on_c, 1, 63, 0
3, 3285, Note_on_c, 1, 61, 64
3, 3300, Note_on_c, 1, 61, 0
3, 3300, Note_on_c, 1, 63, 64
3, 3330, Note_on_c, 1, 63, 0
3, 3330, Note_on_c, 1, 59, 64
3, 3345, Note_on_c, 1, 59, 0
3, 3345, Note_on_c, 1, 58, 64
3, 3360, Note_on_c, 1, 58, 0
3, 3360, Note_on_c, 1, 59, 64
3, 3390, Note_on_c, 1, 59, 0
3, 3390, Note_on_c, 1, 54, 64
3, 3405, Note_on_c, 1, 54, 0
3, 3405, Note_on_c, 1, 52, 64
3, 3420, Note_on_c, 1, 52, 0
3, 3420, Note_on_c, 1, 51, 64
3, 3540, Note_on_c, 1, 51, 0
3, 3600, Note_on_c, 1, 56, 64
3, 3660, Note_on_c, 1, 56, 0
3, 3660, Note_on_c, 1, 57, 64
3, 3720, Note_on_c, 1, 57, 0
3, 3720, Note_on_c, 1, 59, 64
3, 3780, Note_on_c, 1, 59, 0
3, 3780, Note_on_c, 1, 61, 64
3, 3840, Note_on_c, 1, 61, 0
3, 3840, Note_on_c, 1, 63, 64
3, 3900, Note_on_c, 1, 63, 0
3, 3900, Note_on_c, 1, 64, 64
3, 3960, Note_on_c, 1, 64, 0
3, 3960, Note_on_c, 1, 59, 64
3, 4050, Note_on_c, 1, 59, 0
3, 4050, Note_on_c, 1, 66, 64
3, 4080, Note_on_c, 1, 66, 0
3, 4080, Note_on_c, 1, 64, 64
3, 4110, Note_on_c, 1, 64, 0
3, 4110, Note_on_c, 1, 63, 64
3, 4140, Note_on_c, 1, 63, 0
3, 4170, Note_on_c, 1, 64, 64
3, 4230, Note_on_c, 1, 64, 0
3, 4230, Note_on_c, 1, 63, 64
3, 4290, Note_on_c, 1, 63, 0
3, 4290, Note_on_c, 1, 62, 64
3, 4350, Note_on_c, 1, 62, 0
3, 4350, Note_on_c, 1, 61, 64
3, 4410, Note_on_c, 1, 61, 0
3, 4410, Note_on_c, 1, 60, 64
3, 4470, Note_on_c, 1, 60, 0
3, 4470, Note_on_c, 1, 59, 64
3, 4500, Note_on_c, 1, 59, 0
3, 4500, Note_on_c, 1, 64, 64
3, 4530, Note_on_c, 1, 64, 0
3, 4530, Note_on_c, 1, 52, 64
3, 4545, Note_on_c, 1, 52, 0
3, 4545, Note_on_c, 1, 54, 64
3, 4560, Note_on_c, 1, 54, 0
3, 4560, Note_on_c, 1, 56, 64
3, 4590, Note_on_c, 1, 56, 0
3, 4590, Note_on_c, 1, 64, 64
3, 4605, Note_on_c, 1, 64, 0
3, 4605, Note_on_c, 1, 63, 64
3, 4620, Note_on_c, 1, 63, 0
3, 4620, Note_on_c, 1, 64, 64
3, 4650, Note_on_c, 1, 64, 0
3, 4650, Note_on_c, 1, 66, 64
3, 4665, Note_on_c, 1, 66, 0
3, 4665, Note_on_c, 1, 65, 64
3, 4680, Note_on_c, 1, 65, 0
3, 4680, Note_on_c, 1, 66, 64
3, 4710, Note_on_c, 1, 66, 0
3, 4710, Note_on_c, 1, 59, 64
3, 4725, Note_on_c, 1, 59, 0
3, 4725, Note_on_c, 1, 58, 64
3, 4740, Note_on_c, 1, 58, 0
3, 4740, Note_on_c, 1, 59, 64
3, 4770, Note_on_c, 1, 59, 0
3, 4770, Note_on_c, 1, 57, 64
3, 4785, Note_on_c, 1, 57, 0
3, 4785, Note_on_c, 1, 56, 64
3, 4800, Note_on_c, 1, 56, 0
3, 4800, Note_on_c, 1, 57, 64
3, 4830, Note_on_c, 1, 57, 0
3, 4830, Note_on_c, 1, 59, 64
3, 4845, Note_on_c, 1, 59, 0
3, 4845, Note_on_c, 1, 61, 64
3, 4860, Note_on_c, 1, 61, 0
3, 4860, Note_on_c, 1, 59, 64
3, 4890, Note_on_c, 1, 59, 0
3, 4890, Note_on_c, 1, 64, 64
3, 4950, Note_on_c, 1, 64, 0
3, 4950, Note_on_c, 1, 63, 64
3, 5010, Note_on_c, 1, 63, 0
3, 5010, Note_on_c, 1, 62, 64
3, 5070, Note_on_c, 1, 62, 0
3, 5070, Note_on_c, 1, 61, 64
3, 5085, Note_on_c, 1, 61, 0
3, 5085, Note_on_c, 1, 63, 64
3, 5100, Note_on_c, 1, 63, 0
3, 5100, Note_on_c, 1, 64, 64
3, 5130, Note_on_c, 1, 64, 0
3, 5130, Note_on_c, 1, 68, 64
3, 5145, Note_on_c, 1, 68, 0
3, 5145, Note_on_c, 1, 67, 64
3, 5160, Note_on_c, 1, 67, 0
3, 5160, Note_on_c, 1, 68, 64
3, 5190, Note_on_c, 1, 68, 0
3, 5190, Note_on_c, 1, 64, 64
3, 5205, Note_on_c, 1, 64, 0
3, 5205, Note_on_c, 1, 63, 64
3, 5220, Note_on_c, 1, 63, 0
3, 5220, Note_on_c, 1, 64, 64
3, 5250, Note_on_c, 1, 64, 0
3, 5250, Note_on_c, 1, 61, 64
3, 5310, Note_on_c, 1, 61, 0
3, 5310, Note_on_c, 1, 66, 64
3, 5370, Note_on_c, 1, 66, 0
3, 5370, Note_on_c, 1, 58, 64
3, 5430, Note_on_c, 1, 58, 0
3, 5430, Note_on_c, 1, 59, 64
3, 5445, Note_on_c, 1, 59, 0
3, 5445, Note_on_c, 1, 61, 64
3, 5460, Note_on_c, 1, 61, 0
3, 5460, Note_on_c, 1, 63, 64
3, 5490, Note_on_c, 1, 63, 0
3, 5490, Note_on_c, 1, 66, 64
3, 5505, Note_on_c, 1, 66, 0
3, 5505, Note_on_c, 1, 65, 64
3, 5520, Note_on_c, 1, 65, 0
3, 5520, Note_on_c, 1, 66, 64
3, 5550, Note_on_c, 1, 66, 0
3, 5550, Note_on_c, 1, 63, 64
3, 5565, Note_on_c, 1, 63, 0
3, 5565, Note_on_c, 1, 61, 64
3, 5580, Note_on_c, 1, 61, 0
3, 5580, Note_on_c, 1, 63, 64
3, 5610, Note_on_c, 1, 63, 0
3, 5610, Note_on_c, 1, 59, 64
3, 5670, Note_on_c, 1, 59, 0
3, 5670, Note_on_c, 1, 64, 64
3, 5730, Note_on_c, 1, 64, 0
3, 5730, Note_on_c, 1, 56, 64
3, 5790, Note_on_c, 1, 56, 0
3, 5790, Note_on_c, 1, 58, 64
3, 5805, Note_on_c, 1, 58, 0
3, 5805, Note_on_c, 1, 59, 64
3, 5820, Note_on_c, 1, 59, 0
3, 5820, Note_on_c, 1, 58, 64
3, 5850, Note_on_c, 1, 58, 0
3, 5850, Note_on_c, 1, 64, 64
3, 5865, Note_on_c, 1, 64, 0
3, 5865, Note_on_c, 1, 63, 64
3, 5880, Note_on_c, 1, 63, 0
3, 5880, Note_on_c, 1, 61, 64
3, 5910, Note_on_c, 1, 61, 0
3, 5910, Note_on_c, 1, 61, 64
3, 5925, Note_on_c, 1, 61, 0
3, 5925, Note_on_c, 1, 63, 64
3, 5940, Note_on_c, 1, 63, 0
3, 5940, Note_on_c, 1, 64, 64
3, 5970, Note_on_c, 1, 64, 0
3, 5970, Note_on_c, 1, 59, 64
3, 5985, Note_on_c, 1, 59, 0
3, 5985, Note_on_c, 1, 58, 64
3, 6000, Note_on_c, 1, 58, 0
3, 6000, Note_on_c, 1, 59, 64
3, 6030, Note_on_c, 1, 59, 0
3, 6030, Note_on_c, 1, 66, 64
3, 6045, Note_on_c, 1, 66, 0
3, 6045, Note_on_c, 1, 65, 64
3, 6060, Note_on_c, 1, 65, 0
3, 6060, Note_on_c, 1, 66, 64
3, 6090, Note_on_c, 1, 66, 0
3, 6090, Note_on_c, 1, 66, 64
3, 6105, Note_on_c, 1, 66, 0
3, 6105, Note_on_c, 1, 68, 64
3, 6120, Note_on_c, 1, 68, 0
3, 6120, Note_on_c, 1, 66, 64
3, 6150, Note_on_c, 1, 66, 0
3, 6150, Note_on_c, 1, 68, 64
3, 6165, Note_on_c, 1, 68, 0
3, 6165, Note_on_c, 1, 67, 64
3, 6180, Note_on_c, 1, 67, 0
3, 6180, Note_on_c, 1, 68, 64
3, 6210, Note_on_c, 1, 68, 0
3, 6210, Note_on_c, 1, 61, 64
3, 6225, Note_on_c, 1, 61, 0
3, 6225, Note_on_c, 1, 60, 64
3, 6240, Note_on_c, 1, 60, 0
3, 6240, Note_on_c, 1, 61, 64
3, 6270, Note_on_c, 1, 61, 0
3, 6270, Note_on_c, 1, 64, 64
3, 6285, Note_on_c, 1, 64, 0
3, 6285, Note_on_c, 1, 63, 64
3, 6300, Note_on_c, 1, 63, 0
3, 6300, Note_on_c, 1, 64, 64
3, 6330, Note_on_c, 1, 64, 0
3, 6330, Note_on_c, 1, 58, 64
3, 6360, Note_on_c, 1, 58, 0
3, 6360, Note_on_c, 1, 61, 64
3, 6390, Note_on_c, 1, 61, 0
3, 6390, Note_on_c, 1, 64, 64
3, 6420, Note_on_c, 1, 64, 0
3, 6420, Note_on_c, 1, 61, 64
3, 6450, Note_on_c, 1, 61, 0
3, 6450, Note_on_c, 1, 64, 64
3, 6480, Note_on_c, 1, 64, 0
3, 6480, Note_on_c, 1, 66, 64
3, 6510, Note_on_c, 1, 66, 0
3, 6510, Note_on_c, 1, 68, 64
3, 6525, Note_on_c, 1, 68, 0
3, 6525, Note_on_c, 1, 67, 64
3, 6540, Note_on_c, 1, 67, 0
3, 6540, Note_on_c, 1, 68, 64
3, 6570, Note_on_c, 1, 68, 0
3, 6570, Note_on_c, 1, 64, 64
3, 6585, Note_on_c, 1, 64, 0
3, 6585, Note_on_c, 1, 63, 64
3, 6600, Note_on_c, 1, 63, 0
3, 6600, Note_on_c, 1, 64, 64
3, 6630, Note_on_c, 1, 64, 0
3, 6630, Note_on_c, 1, 63, 64
3, 6645, Note_on_c, 1, 63, 0
3, 6645, Note_on_c, 1, 61, 64
3, 6660, Note_on_c, 1, 61, 0
3, 6660, Note_on_c, 1, 63, 64
3, 6690, Note_on_c, 1, 63, 0
3, 6690, Note_on_c, 1, 63, 64
3, 6705, Note_on_c, 1, 63, 0
3, 6705, Note_on_c, 1, 61, 64
3, 6720, Note_on_c, 1, 61, 0
3, 6720, Note_on_c, 1, 63, 64
3, 6750, Note_on_c, 1, 63, 0
3, 6750, Note_on_c, 1, 63, 64
3, 6765, Note_on_c, 1, 63, 0
3, 6765, Note_on_c, 1, 61, 64
3, 6780, Note_on_c, 1, 61, 0
3, 6780, Note_on_c, 1, 63, 64
3, 6810, Note_on_c, 1, 63, 0
3, 6810, Note_on_c, 1, 59, 64
3, 6825, Note_on_c, 1, 59, 0
3, 6825, Note_on_c, 1, 57, 64
3, 6840, Note_on_c, 1, 57, 0
3, 6840, Note_on_c, 1, 59, 64
3, 6870, Note_on_c, 1, 59, 0
3, 6870, Note_on_c, 1, 63, 64
3, 6885, Note_on_c, 1, 63, 0
3, 6885, Note_on_c, 1, 61, 64
3, 6900, Note_on_c, 1, 61, 0
3, 6900, Note_on_c, 1, 63, 64
3, 6930, Note_on_c, 1, 63, 0
3, 6930, Note_on_c, 1, 59, 64
3, 6945, Note_on_c, 1, 59, 0
3, 6945, Note_on_c, 1, 58, 64
3, 6960, Note_on_c, 1, 58, 0
3, 6960, Note_on_c, 1, 59, 64
3, 6990, Note_on_c, 1, 59, 0
3, 6990, Note_on_c, 1, 54, 64
3, 7005, Note_on_c, 1, 54, 0
3, 7005, Note_on_c, 1, 52, 64
3, 7020, Note_on_c, 1, 52, 0
3, 7020, Note_on_c, 1, 51, 64
3, 7140, Note_on_c, 1, 51, 0
3, 7230, Note_on_c, 1, 66, 64
3, 7245, Note_on_c, 1, 66, 0
3, 7245, Note_on_c, 1, 65, 64
3, 7260, Note_on_c, 1, 65, 0
3, 7260, Note_on_c, 1, 66, 64
3, 7290, Note_on_c, 1, 66, 0
3, 7290, Note_on_c, 1, 78, 64
3, 7305, Note_on_c, 1, 78, 0
3, 7305, Note_on_c, 1, 77, 64
3, 7320, Note_on_c, 1, 77, 0
3, 7320, Note_on_c, 1, 78, 64
3, 7350, Note_on_c, 1, 78, 0
3, 7350, Note_on_c, 1, 71, 64
3, 7365, Note_on_c, 1, 71, 0
3, 7365, Note_on_c, 1, 73, 64
3, 7380, Note_on_c, 1, 73, 0
3, 7380, Note_on_c, 1, 71, 64
3, 7410, Note_on_c, 1, 71, 0
3, 7410, Note_on_c, 1, 59, 64
3, 7425, Note_on_c, 1, 59, 0
3, 7425, Note_on_c, 1, 61, 64
3, 7440, Note_on_c, 1, 61, 0
3, 7440, Note_on_c, 1, 59, 64
3, 7470, Note_on_c, 1, 59, 0
3, 7470, Note_on_c, 1, 71, 64
3, 7485, Note_on_c, 1, 71, 0
3, 7485, Note_on_c, 1, 70, 64
3, 7500, Note_on_c, 1, 70, 0
3, 7500, Note_on_c, 1, 71, 64
3, 7530, Note_on_c, 1, 71, 0
3, 7530, Note_on_c, 1, 61, 64
3, 7545, Note_on_c, 1, 61, 0
3, 7545, Note_on_c, 1, 60, 64
3, 7560, Note_on_c, 1, 60, 0
3, 7560, Note_on_c, 1, 61, 64
3, 7590, Note_on_c, 1, 61, 0
3, 7590, Note_on_c, 1, 66, 64
3, 7605, Note_on_c, 1, 66, 0
3, 7605, Note_on_c, 1, 65, 64
3, 7620, Note_on_c, 1, 65, 0
3, 7620, Note_on_c, 1, 66, 64
3, 7650, Note_on_c, 1, 66, 0
3, 7650, Note_on_c, 1, 64, 64
3, 7665, Note_on_c, 1, 64, 0
3, 7665, Note_on_c, 1, 63, 64
3, 7680, Note_on_c, 1, 63, 0
3, 7680, Note_on_c, 1, 64, 64
3, 7710, Note_on_c, 1, 64, 0
3, 7710, Note_on_c, 1, 59, 64
3, 7725, Note_on_c, 1, 59, 0
3, 7725, Note_on_c, 1, 58, 64
3, 7740, Note_on_c, 1, 58, 0
3, 7740, Note_on_c, 1, 63, 64
3, 7770, Note_on_c, 1, 63, 0
3, 7770, Note_on_c, 1, 71, 64
3, 7830, Note_on_c, 1, 71, 0
3, 7830, Note_on_c, 1, 70, 64
3, 7890, Note_on_c, 1, 70, 0
3, 7890, Note_on_c, 1, 69, 64
3, 7950, Note_on_c, 1, 69, 0
3, 7950, Note_on_c, 1, 68, 64
3, 8010, Note_on_c, 1, 68, 0
3, 8010, Note_on_c, 1, 67, 64
3, 8070, Note_on_c, 1, 67, 0
3, 8070, Note_on_c, 1, 66, 64
3, 8100, Note_on_c, 1, 66, 0
3, 8100, Note_on_c, 1, 71, 64
3, 8130, Note_on_c, 1, 71, 0
3, 8130, Note_on_c, 1, 59, 64
3, 8145, Note_on_c, 1, 59, 0
3, 8145, Note_on_c, 1, 61, 64
3, 8160, Note_on_c, 1, 61, 0
3, 8160, Note_on_c, 1, 59, 64
3, 8190, Note_on_c, 1, 59, 0
3, 8190, Note_on_c, 1, 71, 64
3, 8205, Note_on_c, 1, 71, 0
3, 8205, Note_on_c, 1, 70, 64
3, 8220, Note_on_c, 1, 70, 0
3, 8220, Note_on_c, 1, 71, 64
3, 8250, Note_on_c, 1, 71, 0
3, 8250, Note_on_c, 1, 73, 64
3, 8265, Note_on_c, 1, 73, 0
3, 8265, Note_on_c, 1, 72, 64
3, 8280, Note_on_c, 1, 72, 0
3, 8280, Note_on_c, 1, 73, 64
3, 8310, Note_on_c, 1, 73, 0
3, 8310, Note_on_c, 1, 66, 64
3, 8325, Note_on_c, 1, 66, 0
3, 8325, Note_on_c, 1, 68, 64
3, 8340, Note_on_c, 1, 68, 0
3, 8340, Note_on_c, 1, 66, 64
3, 8370, Note_on_c, 1, 66, 0
3, 8370, Note_on_c, 1, 64, 64
3, 8385, Note_on_c, 1, 64, 0
3, 8385, Note_on_c, 1, 63, 64
3, 8400, Note_on_c, 1, 63, 0
3, 8400, Note_on_c, 1, 64, 64
3, 8430, Note_on_c, 1, 64, 0
3, 8430, Note_on_c, 1, 66, 64
3, 8445, Note_on_c, 1, 66, 0
3, 8445, Note_on_c, 1, 68, 64
3, 8460, Note_on_c, 1, 68, 0
3, 8460, Note_on_c, 1, 66, 64
3, 8490, Note_on_c, 1, 66, 0
3, 8490, Note_on_c, 1, 71, 64
3, 8550, Note_on_c, 1, 71, 0
3, 8550, Note_on_c, 1, 70, 64
3, 8610, Note_on_c, 1, 70, 0
3, 8610, Note_on_c, 1, 69, 64
3, 8670, Note_on_c, 1, 69, 0
3, 8670, Note_on_c, 1, 68, 64
3, 8730, Note_on_c, 1, 68, 0
3, 8730, Note_on_c, 1, 63, 64
3, 8790, Note_on_c, 1, 63, 0
3, 8790, Note_on_c, 1, 66, 64
3, 8820, Note_on_c, 1, 66, 0
3, 8820, Note_on_c, 1, 64, 64
3, 8850, Note_on_c, 1, 64, 0
3, 8850, Note_on_c, 1, 70, 64
3, 8910, Note_on_c, 1, 70, 0
3, 8910, Note_on_c, 1, 67, 64
3, 8970, Note_on_c, 1, 67, 0
3, 8970, Note_on_c, 1, 71, 64
3, 8985, Note_on_c, 1, 71, 0
3, 8985, Note_on_c, 1, 70, 64
3, 9000, Note_on_c, 1, 70, 0
3, 9000, Note_on_c, 1, 71, 64
3, 9060, Note_on_c, 1, 71, 0
3, 9060, Note_on_c, 1, 75, 64
3, 9120, Note_on_c, 1, 75, 0
3, 9120, Note_on_c, 1, 68, 64
3, 9210, Note_on_c, 1, 68, 0
3, 9210, Note_on_c, 1, 67, 64
3, 9240, Note_on_c, 1, 67, 0
3, 9240, Note_on_c, 1, 66, 64
3, 9270, Note_on_c, 1, 66, 0
3, 9270, Note_on_c, 1, 68, 64
3, 9300, Note_on_c, 1, 68, 0
3, 9300, Note_on_c, 1, 69, 64
3, 9307, Note_on_c, 1, 69, 0
3, 9307, Note_on_c, 1, 71, 64
3, 9314, Note_on_c, 1, 71, 0
3, 9314, Note_on_c, 1, 69, 64
3, 9321, Note_on_c, 1, 69, 0
3, 9321, Note_on_c, 1, 71, 64
3, 9328, Note_on_c, 1, 71, 0
3, 9328, Note_on_c, 1, 69, 64
3, 9335, Note_on_c, 1, 69, 0
3, 9335, Note_on_c, 1, 71, 64
3, 9342, Note_on_c, 1, 71, 0
3, 9342, Note_on_c, 1, 69, 64
3, 9349, Note_on_c, 1, 69, 0
3, 9349, Note_on_c, 1, 68, 64
3, 9356, Note_on_c, 1, 68, 0
3, 9360, Note_on_c, 1, 69, 64
3, 9390, Note_on_c, 1, 69, 0
3, 9390, Note_on_c, 1, 63, 64
3, 9420, Note_on_c, 1, 63, 0
3, 9420, Note_on_c, 1, 64, 64
3, 9450, Note_on_c, 1, 64, 0
3, 9450, Note_on_c, 1, 65, 64
3, 9480, Note_on_c, 1, 65, 0
3, 9480, Note_on_c, 1, 66, 64
3, 9540, Note_on_c, 1, 66, 0
3, 9540, Note_on_c, 1, 60, 64
3, 9570, Note_on_c, 1, 60, 0
3, 9570, Note_on_c, 1, 66, 64
3, 9600, Note_on_c, 1, 66, 0
3, 9600, Note_on_c, 1, 64, 64
3, 9660, Note_on_c, 1, 64, 0
3, 9660, Note_on_c, 1, 63, 64
3, 9720, Note_on_c, 1, 63, 0
3, 9720, Note_on_c, 1, 61, 64
3, 9780, Note_on_c, 1, 61, 0
3, 9780, Note_on_c, 1, 63, 64
3, 9840, Note_on_c, 1, 63, 0
3, 9840, Note_on_c, 1, 64, 64
3, 9870, Note_on_c, 1, 64, 0
3, 9870, Note_on_c, 1, 58, 64
3, 9930, Note_on_c, 1, 58, 0
3, 9930, Note_on_c, 1, 66, 64
3, 9990, Note_on_c, 1, 66, 0
3, 9990, Note_on_c, 1, 63, 64
3, 10020, Note_on_c, 1, 63, 0
3, 10020, Note_on_c, 1, 66, 64
3, 10080, Note_on_c, 1, 66, 0
3, 10080, Note_on_c, 1, 64, 64
3, 10110, Note_on_c, 1, 64, 0
3, 10110, Note_on_c, 1, 58, 64
3, 10140, Note_on_c, 1, 58, 0
3, 10140, Note_on_c, 1, 59, 64
3, 10200, Note_on_c, 1, 59, 0
3, 10200, Note_on_c, 1, 61, 64
3, 10230, Note_on_c, 1, 61, 0
3, 10230, Note_on_c, 1, 55, 64
3, 10290, Note_on_c, 1, 55, 0
3, 10290, Note_on_c, 1, 63, 64
3, 10350, Note_on_c, 1, 63, 0
3, 10350, Note_on_c, 1, 59, 64
3, 10380, Note_on_c, 1, 59, 0
3, 10380, Note_on_c, 1, 63, 64
3, 10440, Note_on_c, 1, 63, 0
3, 10440, Note_on_c, 1, 64, 64
3, 10530, Note_on_c, 1, 64, 0
3, 10530, Note_on_c, 1, 61, 64
3, 10560, Note_on_c, 1, 61, 0
3, 10560, Note_on_c, 1, 64, 64
3, 10590, Note_on_c, 1, 64, 0
3, 10590, Note_on_c, 1, 69, 64
3, 10620, Note_on_c, 1, 69, 0
3, 10620, Note_on_c, 1, 67, 64
3, 10650, Note_on_c, 1, 67, 0
3, 10650, Note_on_c, 1, 70, 64
3, 10680, Note_on_c, 1, 70, 0
3, 10680, Note_on_c, 1, 61, 64
3, 10710, Note_on_c, 1, 61, 0
3, 10710, Note_on_c, 1, 64, 64
3, 10740, Note_on_c, 1, 64, 0
3, 10740, Note_on_c, 1, 63, 64
3, 10830, Note_on_c, 1, 63, 0
3, 10830, Note_on_c, 1, 59, 64
3, 10860, Note_on_c, 1, 59, 0
3, 10860, Note_on_c, 1, 56, 64
3, 10890, Note_on_c, 1, 56, 0
3, 10890, Note_on_c, 1, 64, 64
3, 10920, Note_on_c, 1, 64, 0
3, 10920, Note_on_c, 1, 61, 64
3, 10950, Note_on_c, 1, 61, 0
3, 10950, Note_on_c, 1, 58, 64
3, 10980, Note_on_c, 1, 58, 0
3, 10980, Note_on_c, 1, 59, 64
3, 11040, Note_on_c, 1, 59, 0
3, 11040, Note_on_c, 1, 68, 64
3, 11070, Note_on_c, 1, 68, 0
3, 11070, Note_on_c, 1, 63, 64
3, 11100, Note_on_c, 1, 63, 0
3, 11100, Note_on_c, 1, 59, 64
3, 11130, Note_on_c, 1, 59, 0
3, 11130, Note_on_c, 1, 61, 64
3, 11145, Note_on_c, 1, 61, 0
3, 11145, Note_on_c, 1, 62, 64
3, 11190, Note_on_c, 1, 61, 64
3, 11205, Note_on_c, 1, 62, 0
3, 11250, Note_on_c, 1, 61, 0
3, 11250, Note_on_c, 1, 60, 64
3, 11310, Note_on_c, 1, 60, 0
3, 11310, Note_on_c, 1, 59, 64
3, 11340, Note_on_c, 1, 59, 0
3, 11340, Note_on_c, 1, 64, 64
3, 11370, Note_on_c, 1, 64, 0
3, 11370, Note_on_c, 1, 52, 64
3, 11385, Note_on_c, 1, 52, 0
3, 11385, Note_on_c, 1, 54, 64
3, 11400, Note_on_c, 1, 54, 0
3, 11400, Note_on_c, 1, 56, 64
3, 11430, Note_on_c, 1, 56, 0
3, 11430, Note_on_c, 1, 64, 64
3, 11445, Note_on_c, 1, 64, 0
3, 11445, Note_on_c, 1, 63, 64
3, 11460, Note_on_c, 1, 63, 0
3, 11460, Note_on_c, 1, 64, 64
3, 11490, Note_on_c, 1, 64, 0
3, 11490, Note_on_c, 1, 66, 64
3, 11505, Note_on_c, 1, 66, 0
3, 11505, Note_on_c, 1, 65, 64
3, 11520, Note_on_c, 1, 65, 0
3, 11520, Note_on_c, 1, 66, 64
3, 11550, Note_on_c, 1, 66, 0
3, 11550, Note_on_c, 1, 59, 64
3, 11565, Note_on_c, 1, 59, 0
3, 11565, Note_on_c, 1, 58, 64
3, 11580, Note_on_c, 1, 58, 0
3, 11580, Note_on_c, 1, 59, 64
3, 11610, Note_on_c, 1, 59, 0
3, 11610, Note_on_c, 1, 57, 64
3, 11625, Note_on_c, 1, 57, 0
3, 11625, Note_on_c, 1, 56, 64
3, 11640, Note_on_c, 1, 56, 0
3, 11640, Note_on_c, 1, 57, 64
3, 11670, Note_on_c, 1, 57, 0
3, 11670, Note_on_c, 1, 59, 64
3, 11685, Note_on_c, 1, 59, 0
3, 11685, Note_on_c, 1, 61, 64
3, 11700, Note_on_c, 1, 61, 0
3, 11700, Note_on_c, 1, 59, 64
3, 11730, Note_on_c, 1, 59, 0
3, 11730, Note_on_c, 1, 56, 64
3, 11745, Note_on_c, 1, 56, 0
3, 11745, Note_on_c, 1, 54, 64
3, 11760, Note_on_c, 1, 54, 0
3, 11760, Note_on_c, 1, 56, 64
3, 11790, Note_on_c, 1, 56, 0
3, 11790, Note_on_c, 1, 64, 64
3, 11850, Note_on_c, 1, 64, 0
3, 11850, Note_on_c, 1, 59, 64
3, 11880, Note_on_c, 1, 59, 0
3, 11880, Note_on_c, 1, 56, 64
3, 11940, Note_on_c, 1, 56, 0
3, 11940, Note_on_c, 1, 57, 64
3, 12000, Note_on_c, 1, 57, 0
3, 12000, Note_on_c, 1, 59, 64
3, 12060, Note_on_c, 1, 59, 0
3, 12060, Note_on_c, 1, 61, 64
3, 12120, Note_on_c, 1, 61, 0
3, 12120, Note_on_c, 1, 63, 64
3, 12180, Note_on_c, 1, 63, 0
3, 12180, Note_on_c, 1, 64, 64
3, 12240, Note_on_c, 1, 64, 0
3, 12240, Note_on_c, 1, 59, 64
3, 12330, Note_on_c, 1, 59, 0
3, 12330, Note_on_c, 1, 66, 64
3, 12360, Note_on_c, 1, 66, 0
3, 12360, Note_on_c, 1, 64, 64
3, 12390, Note_on_c, 1, 64, 0
3, 12390, Note_on_c, 1, 63, 64
3, 12420, Note_on_c, 1, 63, 0
3, 12420, Note_on_c, 1, 64, 64
3, 12450, Note_on_c, 1, 64, 0
3, 12450, Note_on_c, 1, 56, 64
3, 12465, Note_on_c, 1, 56, 0
3, 12465, Note_on_c, 1, 54, 64
3, 12480, Note_on_c, 1, 54, 0
3, 12480, Note_on_c, 1, 56, 64
3, 12510, Note_on_c, 1, 56, 0
3, 12510, Note_on_c, 1, 52, 64
3, 12540, Note_on_c, 1, 52, 0
3, 12540, Note_on_c, 1, 64, 64
3, 12570, Note_on_c, 1, 64, 0
3, 12570, Note_on_c, 1, 59, 64
3, 12600, Note_on_c, 1, 59, 0
3, 12600, Note_on_c, 1, 71, 64
3, 12630, Note_on_c, 1, 71, 0
3, 12630, Note_on_c, 1, 69, 64
3, 12645, Note_on_c, 1, 69, 0
3, 12645, Note_on_c, 1, 68, 64
3, 12660, Note_on_c, 1, 68, 0
3, 12660, Note_on_c, 1, 69, 64
3, 12690, Note_on_c, 1, 69, 0
3, 12690, Note_on_c, 1, 66, 64
3, 12705, Note_on_c, 1, 66, 0
3, 12705, Note_on_c, 1, 65, 64
3, 12720, Note_on_c, 1, 65, 0
3, 12720, Note_on_c, 1, 66, 64
3, 12750, Note_on_c, 1, 66, 0
3, 12750, Note_on_c, 1, 63, 64
3, 12765, Note_on_c, 1, 63, 0
3, 12765, Note_on_c, 1, 62, 64
3, 12780, Note_on_c, 1, 62, 0
3, 12780, Note_on_c, 1, 63, 64
3, 12810, Note_on_c, 1, 63, 0
3, 12810, Note_on_c, 1, 66, 64
3, 12825, Note_on_c, 1, 66, 0
3, 12825, Note_on_c, 1, 65, 64
3, 12840, Note_on_c, 1, 65, 0
3, 12840, Note_on_c, 1, 66, 64
3, 12870, Note_on_c, 1, 66, 0
3, 12870, Note_on_c, 1, 69, 64
3, 12885, Note_on_c, 1, 69, 0
3, 12885, Note_on_c, 1, 68, 64
3, 12900, Note_on_c, 1, 68, 0
3, 12900, Note_on_c, 1, 69, 64
3, 12930, Note_on_c, 1, 69, 0
3, 12930, Note_on_c, 1, 69, 64
3, 12945, Note_on_c, 1, 69, 0
3, 12945, Note_on_c, 1, 68, 64
3, 12960, Note_on_c, 1, 68, 0
3, 12960, Note_on_c, 1, 69, 64
3, 12990, Note_on_c, 1, 69, 0
3, 12990, Note_on_c, 1, 68, 64
3, 13005, Note_on_c, 1, 68, 0
3, 13005, Note_on_c, 1, 67, 64
3, 13020, Note_on_c, 1, 67, 0
3, 13020, Note_on_c, 1, 68, 64
3, 13050, Note_on_c, 1, 68, 0
3, 13050, Note_on_c, 1, 64, 64
3, 13065, Note_on_c, 1, 64, 0
3, 13065, Note_on_c, 1, 63, 64
3, 13080, Note_on_c, 1, 63, 0
3, 13080, Note_on_c, 1, 64, 64
3, 13110, Note_on_c, 1, 64, 0
3, 13110, Note_on_c, 1, 61, 64
3, 13125, Note_on_c, 1, 61, 0
3, 13125, Note_on_c, 1, 60, 64
3, 13140, Note_on_c, 1, 60, 0
3, 13140, Note_on_c, 1, 61, 64
3, 13170, Note_on_c, 1, 61, 0
3, 13170, Note_on_c, 1, 64, 64
3, 13185, Note_on_c, 1, 64, 0
3, 13185, Note_on_c, 1, 63, 64
3, 13200, Note_on_c, 1, 63, 0
3, 13200, Note_on_c, 1, 64, 64
3, 13230, Note_on_c, 1, 64, 0
3, 13230, Note_on_c, 1, 68, 64
3, 13245, Note_on_c, 1, 68, 0
3, 13245, Note_on_c, 1, 67, 64
3, 13260, Note_on_c, 1, 67, 0
3, 13260, Note_on_c, 1, 68, 64
3, 13290, Note_on_c, 1, 68, 0
3, 13290, Note_on_c, 1, 68, 64
3, 13305, Note_on_c, 1, 68, 0
3, 13305, Note_on_c, 1, 67, 64
3, 13320, Note_on_c, 1, 67, 0
3, 13320, Note_on_c, 1, 68, 64
3, 13350, Note_on_c, 1, 68, 0
3, 13350, Note_on_c, 1, 66, 64
3, 13365, Note_on_c, 1, 66, 0
3, 13365, Note_on_c, 1, 65, 64
3, 13380, Note_on_c, 1, 65, 0
3, 13380, Note_on_c, 1, 66, 64
3, 13410, Note_on_c, 1, 66, 0
3, 13410, Note_on_c, 1, 63, 64
3, 13425, Note_on_c, 1, 63, 0
3, 13425, Note_on_c, 1, 62, 64
3, 13440, Note_on_c, 1, 62, 0
3, 13440, Note_on_c, 1, 63, 64
3, 13470, Note_on_c, 1, 63, 0
3, 13470, Note_on_c, 1, 66, 64
3, 13485, Note_on_c, 1, 66, 0
3, 13485, Note_on_c, 1, 65, 64
3, 13500, Note_on_c, 1, 65, 0
3, 13500, Note_on_c, 1, 66, 64
3, 13530, Note_on_c, 1, 66, 0
3, 13530, Note_on_c, 1, 69, 64
3, 13545, Note_on_c, 1, 69, 0
3, 13545, Note_on_c, 1, 68, 64
3, 13560, Note_on_c, 1, 68, 0
3, 13560, Note_on_c, 1, 69, 64
3, 13590, Note_on_c, 1, 69, 0
3, 13590, Note_on_c, 1, 68, 64
3, 13605, Note_on_c, 1, 68, 0
3, 13605, Note_on_c, 1, 67, 64
3, 13620, Note_on_c, 1, 67, 0
3, 13620, Note_on_c, 1, 68, 64
3, 13650, Note_on_c, 1, 68, 0
3, 13650, Note_on_c, 1, 73, 64
3, 13665, Note_on_c, 1, 73, 0
3, 13665, Note_on_c, 1, 72, 64
3, 13680, Note_on_c, 1, 72, 0
3, 13680, Note_on_c, 1, 73, 64
3, 13710, Note_on_c, 1, 73, 0
3, 13710, Note_on_c, 1, 71, 64
3, 13725, Note_on_c, 1, 71, 0
3, 13725, Note_on_c, 1, 70, 64
3, 13740, Note_on_c, 1, 70, 0
3, 13740, Note_on_c, 1, 71, 64
3, 13770, Note_on_c, 1, 71, 0
3, 13770, Note_on_c, 1, 69, 64
3, 13785, Note_on_c, 1, 69, 0
3, 13785, Note_on_c, 1, 68, 64
3, 13800, Note_on_c, 1, 68, 0
3, 13800, Note_on_c, 1, 69, 64
3, 13830, Note_on_c, 1, 69, 0
3, 13830, Note_on_c, 1, 61, 64
3, 13845, Note_on_c, 1, 61, 0
3, 13845, Note_on_c, 1, 60, 64
3, 13860, Note_on_c, 1, 60, 0
3, 13860, Note_on_c, 1, 61, 64
3, 13890, Note_on_c, 1, 61, 0
3, 13890, Note_on_c, 1, 66, 64
3, 13905, Note_on_c, 1, 66, 0
3, 13905, Note_on_c, 1, 65, 64
3, 13920, Note_on_c, 1, 65, 0
3, 13920, Note_on_c, 1, 66, 64
3, 13950, Note_on_c, 1, 66, 0
3, 13950, Note_on_c, 1, 59, 64
3, 13965, Note_on_c, 1, 59, 0
3, 13965, Note_on_c, 1, 58, 64
3, 13980, Note_on_c, 1, 58, 0
3, 13980, Note_on_c, 1, 59, 64
3, 14010, Note_on_c, 1, 59, 0
3, 14010, Note_on_c, 1, 71, 64
3, 14025, Note_on_c, 1, 71, 0
3, 14025, Note_on_c, 1, 70, 64
3, 14040, Note_on_c, 1, 70, 0
3, 14040, Note_on_c, 1, 71, 64
3, 14070, Note_on_c, 1, 71, 0
3, 14070, Note_on_c, 1, 61, 64
3, 14085, Note_on_c, 1, 61, 0
3, 14085, Note_on_c, 1, 60, 64
3, 14100, Note_on_c, 1, 60, 0
3, 14100, Note_on_c, 1, 61, 64
3, 14130, Note_on_c, 1, 61, 0
3, 14130, Note_on_c, 1, 63, 64
3, 14145, Note_on_c, 1, 63, 0
3, 14145, Note_on_c, 1, 62, 64
3, 14160, Note_on_c, 1, 62, 0
3, 14160, Note_on_c, 1, 63, 64
3, 14190, Note_on_c, 1, 63, 0
3, 14190, Note_on_c, 1, 64, 64
3, 14205, Note_on_c, 1, 64, 0
3, 14205, Note_on_c, 1, 63, 64
3, 14220, Note_on_c, 1, 63, 0
3, 14220, Note_on_c, 1, 64, 64
3, 14250, Note_on_c, 1, 64, 0
3, 14250, Note_on_c, 1, 68, 64
3, 14265, Note_on_c, 1, 68, 0
3, 14265, Note_on_c, 1, 66, 64
3, 14280, Note_on_c, 1, 66, 0
3, 14280, Note_on_c, 1, 68, 64
3, 14310, Note_on_c, 1, 68, 0
3, 14310, Note_on_c, 1, 71, 64
3, 14325, Note_on_c, 1, 71, 0
3, 14325, Note_on_c, 1, 69, 64
3, 14340, Note_on_c, 1, 69, 0
3, 14340, Note_on_c, 1, 71, 64
3, 14370, Note_on_c, 1, 71, 0
3, 14370, Note_on_c, 1, 64, 64
3, 14385, Note_on_c, 1, 64, 0
3, 14385, Note_on_c, 1, 66, 64
3, 14400, Note_on_c, 1, 66, 0
3, 14400, Note_on_c, 1, 68, 64
3, 14430, Note_on_c, 1, 68, 0
3, 14430, Note_on_c, 1, 64, 64
3, 14490, Note_on_c, 1, 64, 0
3, 14490, Note_on_c, 1, 68, 64
3, 14505, Note_on_c, 1, 68, 0
3, 14505, Note_on_c, 1, 66, 64
3, 14520, Note_on_c, 1, 66, 0
3, 14520, Note_on_c, 1, 68, 64
3, 14550, Note_on_c, 1, 68, 0
3, 14550, Note_on_c, 1, 71, 64
3, 14565, Note_on_c, 1, 71, 0
3, 14565, Note_on_c, 1, 69, 64
3, 14580, Note_on_c, 1, 69, 0
3, 14580, Note_on_c, 1, 68, 64
3, 14640, Note_on_c, 1, 68, 0
3, 14640, Note_on_c, 1, 64, 64
3, 14670, Note_on_c, 1, 64, 0
3, 14670, Note_on_c, 1, 59, 64
3, 14700, Note_on_c, 1, 59, 0
3, 14700, Note_on_c, 1, 56, 64
3, 14730, Note_on_c, 1, 56, 0
3, 14730, Note_on_c, 1, 52, 64
3, 14760, Note_on_c, 1, 52, 0
3, 14790, Note_on_c, 1, 66, 64
3, 14805, Note_on_c, 1, 66, 0
3, 14805, Note_on_c, 1, 65, 64
3, 14820, Note_on_c, 1, 65, 0
3, 14820, Note_on_c, 1, 66, 64
3, 14850, Note_on_c, 1, 66, 0
3, 14850, Note_on_c, 1, 78, 64
3, 14865, Note_on_c, 1, 78, 0
3, 14865, Note_on_c, 1, 77, 64
3, 14880, Note_on_c, 1, 77, 0
3, 14880, Note_on_c, 1, 78, 64
3, 14910, Note_on_c, 1, 78, 0
3, 14910, Note_on_c, 1, 71, 64
3, 14925, Note_on_c, 1, 71, 0
3, 14925, Note_on_c, 1, 73, 64
3, 14940, Note_on_c, 1, 73, 0
3, 14940, Note_on_c, 1, 71, 64
3, 14970, Note_on_c, 1, 71, 0
3, 14970, Note_on_c, 1, 59, 64
3, 14985, Note_on_c, 1, 59, 0
3, 14985, Note_on_c, 1, 61, 64
3, 15000, Note_on_c, 1, 61, 0
3, 15000, Note_on_c, 1, 59, 64
3, 15030, Note_on_c, 1, 59, 0
3, 15030, Note_on_c, 1, 71, 64
3, 15045, Note_on_c, 1, 71, 0
3, 15045, Note_on_c, 1, 70, 64
3, 15060, Note_on_c, 1, 70, 0
3, 15060, Note_on_c, 1, 71, 64
3, 15090, Note_on_c, 1, 71, 0
3, 15090, Note_on_c, 1, 61, 64
3, 15105, Note_on_c, 1, 61, 0
3, 15105, Note_on_c, 1, 60, 64
3, 15120, Note_on_c, 1, 60, 0
3, 15120, Note_on_c, 1, 61, 64
3, 15150, Note_on_c, 1, 61, 0
3, 15150, Note_on_c, 1, 66, 64
3, 15165, Note_on_c, 1, 66, 0
3, 15165, Note_on_c, 1, 65, 64
3, 15180, Note_on_c, 1, 65, 0
3, 15180, Note_on_c, 1, 66, 64
3, 15210, Note_on_c, 1, 66, 0
3, 15210, Note_on_c, 1, 64, 64
3, 15225, Note_on_c, 1, 64, 0
3, 15225, Note_on_c, 1, 63, 64
3, 15240, Note_on_c, 1, 63, 0
3, 15240, Note_on_c, 1, 64, 64
3, 15270, Note_on_c, 1, 64, 0
3, 15270, Note_on_c, 1, 59, 64
3, 15285, Note_on_c, 1, 59, 0
3, 15285, Note_on_c, 1, 58, 64
3, 15300, Note_on_c, 1, 58, 0
3, 15300, Note_on_c, 1, 63, 64
3, 15330, Note_on_c, 1, 63, 0
3, 15330, Note_on_c, 1, 71, 64
3, 15390, Note_on_c, 1, 71, 0
3, 15390, Note_on_c, 1, 70, 64
3, 15450, Note_on_c, 1, 70, 0
3, 15450, Note_on_c, 1, 69, 64
3, 15510, Note_on_c, 1, 69, 0
3, 15510, Note_on_c, 1, 68, 64
3, 15570, Note_on_c, 1, 68, 0
3, 15570, Note_on_c, 1, 67, 64
3, 15630, Note_on_c, 1, 67, 0
3, 15630, Note_on_c, 1, 66, 64
3, 15660, Note_on_c, 1, 66, 0
3, 15660, Note_on_c, 1, 71, 64
3, 15690, Note_on_c, 1, 71, 0
3, 15690, Note_on_c, 1, 59, 64
3, 15705, Note_on_c, 1, 59, 0
3, 15705, Note_on_c, 1, 61, 64
3, 15720, Note_on_c, 1, 61, 0
3, 15720, Note_on_c, 1, 59, 64
3, 15750, Note_on_c, 1, 59, 0
3, 15750, Note_on_c, 1, 71, 64
3, 15765, Note_on_c, 1, 71, 0
3, 15765, Note_on_c, 1, 70, 64
3, 15780, Note_on_c, 1, 70, 0
3, 15780, Note_on_c, 1, 71, 64
3, 15810, Note_on_c, 1, 71, 0
3, 15810, Note_on_c, 1, 73, 64
3, 15825, Note_on_c, 1, 73, 0
3, 15825, Note_on_c, 1, 72, 64
3, 15840, Note_on_c, 1, 72, 0
3, 15840, Note_on_c, 1, 73, 64
3, 15870, Note_on_c, 1, 73, 0
3, 15870, Note_on_c, 1, 66, 64
3, 15885, Note_on_c, 1, 66, 0
3, 15885, Note_on_c, 1, 68, 64
3, 15900, Note_on_c, 1, 68, 0
3, 15900, Note_on_c, 1, 66, 64
3, 15930, Note_on_c, 1, 66, 0
3, 15930, Note_on_c, 1, 64, 64
3, 15945, Note_on_c, 1, 64, 0
3, 15945, Note_on_c, 1, 63, 64
3, 15960, Note_on_c, 1, 63, 0
3, 15960, Note_on_c, 1, 64, 64
3, 15990, Note_on_c, 1, 64, 0
3, 15990, Note_on_c, 1, 66, 64
3, 16005, Note_on_c, 1, 66, 0
3, 16005, Note_on_c, 1, 68, 64
3, 16020, Note_on_c, 1, 68, 0
3, 16020, Note_on_c, 1, 66, 64
3, 16050, Note_on_c, 1, 66, 0
3, 16050, Note_on_c, 1, 71, 64
3, 16110, Note_on_c, 1, 71, 0
3, 16110, Note_on_c, 1, 70, 64
3, 16170, Note_on_c, 1, 70, 0
3, 16170, Note_on_c, 1, 69, 64
3, 16230, Note_on_c, 1, 69, 0
3, 16230, Note_on_c, 1, 68, 64
3, 16290, Note_on_c, 1, 68, 0
3, 16290, Note_on_c, 1, 63, 64
3, 16350, Note_on_c, 1, 63, 0
3, 16350, Note_on_c, 1, 66, 64
3, 16380, Note_on_c, 1, 66, 0
3, 16380, Note_on_c, 1, 64, 64
3, 16410, Note_on_c, 1, 64, 0
3, 16410, Note_on_c, 1, 70, 64
3, 16470, Note_on_c, 1, 70, 0
3, 16470, Note_on_c, 1, 67, 64
3, 16530, Note_on_c, 1, 67, 0
3, 16530, Note_on_c, 1, 71, 64
3, 16545, Note_on_c, 1, 71, 0
3, 16545, Note_on_c, 1, 70, 64
3, 16560, Note_on_c, 1, 70, 0
3, 16560, Note_on_c, 1, 71, 64
3, 16620, Note_on_c, 1, 71, 0
3, 16620, Note_on_c, 1, 75, 64
3, 16680, Note_on_c, 1, 75, 0
3, 16680, Note_on_c, 1, 68, 64
3, 16770, Note_on_c, 1, 68, 0
3, 16770, Note_on_c, 1, 67, 64
3, 16800, Note_on_c, 1, 67, 0
3, 16800, Note_on_c, 1, 66, 64
3, 16830, Note_on_c, 1, 66, 0
3, 16830, Note_on_c, 1, 68, 64
3, 16860, Note_on_c, 1, 68, 0
3, 16860, Note_on_c, 1, 69, 64
3, 16867, Note_on_c, 1, 69, 0
3, 16867, Note_on_c, 1, 71, 64
3, 16874, Note_on_c, 1, 71, 0
3, 16874, Note_on_c, 1, 69, 64
3, 16881, Note_on_c, 1, 69, 0
3, 16881, Note_on_c, 1, 71, 64
3, 16888, Note_on_c, 1, 71, 0
3, 16888, Note_on_c, 1, 69, 64
3, 16895, Note_on_c, 1, 69, 0
3, 16895, Note_on_c, 1, 71, 64
3, 16902, Note_on_c, 1, 71, 0
3, 16902, Note_on_c, 1, 69, 64
3, 16909, Note_on_c, 1, 69, 0
3, 16909, Note_on_c, 1, 68, 64
3, 16916, Note_on_c, 1, 68, 0
3, 16920, Note_on_c, 1, 69, 66
3, 16950, Note_on_c, 1, 69, 0
3, 16950, Note_on_c, 1, 63, 64
3, 16980, Note_on_c, 1, 63, 0
3, 16980, Note_on_c, 1, 64, 64
3, 17010, Note_on_c, 1, 64, 0
3, 17010, Note_on_c, 1, 65, 64
3, 17040, Note_on_c, 1, 65, 0
3, 17040, Note_on_c, 1, 66, 64
3, 17100, Note_on_c, 1, 66, 0
3, 17100, Note_on_c, 1, 60, 64
3, 17130, Note_on_c, 1, 60, 0
3, 17130, Note_on_c, 1, 66, 64
3, 17160, Note_on_c, 1, 66, 0
3, 17160, Note_on_c, 1, 64, 64
3, 17220, Note_on_c, 1, 64, 0
3, 17220, Note_on_c, 1, 63, 64
3, 17280, Note_on_c, 1, 63, 0
3, 17280, Note_on_c, 1, 61, 64
3, 17340, Note_on_c, 1, 61, 0
3, 17340, Note_on_c, 1, 63, 64
3, 17400, Note_on_c, 1, 63, 0
3, 17400, Note_on_c, 1, 64, 64
3, 17430, Note_on_c, 1, 64, 0
3, 17430, Note_on_c, 1, 58, 64
3, 17490, Note_on_c, 1, 58, 0
3, 17490, Note_on_c, 1, 66, 64
3, 17550, Note_on_c, 1, 66, 0
3, 17550, Note_on_c, 1, 63, 64
3, 17580, Note_on_c, 1, 63, 0
3, 17580, Note_on_c, 1, 66, 64
3, 17640, Note_on_c, 1, 66, 0
3, 17640, Note_on_c, 1, 64, 64
3, 17670, Note_on_c, 1, 64, 0
3, 17670, Note_on_c, 1, 58, 64
3, 17700, Note_on_c, 1, 58, 0
3, 17700, Note_on_c, 1, 59, 64
3, 17760, Note_on_c, 1, 59, 0
3, 17760, Note_on_c, 1, 61, 64
3, 17790, Note_on_c, 1, 61, 0
3, 17790, Note_on_c, 1, 55, 64
3, 17850, Note_on_c, 1, 55, 0
3, 17850, Note_on_c, 1, 63, 64
3, 17910, Note_on_c, 1, 63, 0
3, 17910, Note_on_c, 1, 59, 64
3, 17940, Note_on_c, 1, 59, 0
3, 17940, Note_on_c, 1, 63, 64
3, 18000, Note_on_c, 1, 63, 0
3, 18000, Note_on_c, 1, 64, 64
3, 18090, Note_on_c, 1, 64, 0
3, 18090, Note_on_c, 1, 61, 64
3, 18120, Note_on_c, 1, 61, 0
3, 18120, Note_on_c, 1, 64, 64
3, 18150, Note_on_c, 1, 64, 0
3, 18150, Note_on_c, 1, 69, 64
3, 18180, Note_on_c, 1, 69, 0
3, 18180, Note_on_c, 1, 67, 64
3, 18210, Note_on_c, 1, 67, 0
3, 18210, Note_on_c, 1, 70, 64
3, 18240, Note_on_c, 1, 70, 0
3, 18240, Note_on_c, 1, 61, 64
3, 18270, Note_on_c, 1, 61, 0
3, 18270, Note_on_c, 1, 64, 64
3, 18300, Note_on_c, 1, 64, 0
3, 18300, Note_on_c, 1, 63, 64
3, 18390, Note_on_c, 1, 63, 0
3, 18390, Note_on_c, 1, 59, 64
3, 18420, Note_on_c, 1, 59, 0
3, 18420, Note_on_c, 1, 56, 64
3, 18450, Note_on_c, 1, 56, 0
3, 18450, Note_on_c, 1, 64, 64
3, 18480, Note_on_c, 1, 64, 0
3, 18480, Note_on_c, 1, 61, 64
3, 18510, Note_on_c, 1, 61, 0
3, 18510, Note_on_c, 1, 58, 64
3, 18540, Note_on_c, 1, 58, 0
3, 18540, Note_on_c, 1, 59, 64
3, 18600, Note_on_c, 1, 59, 0
3, 18600, Note_on_c, 1, 68, 64
3, 18630, Note_on_c, 1, 68, 0
3, 18630, Note_on_c, 1, 63, 64
3, 18660, Note_on_c, 1, 63, 0
3, 18660, Note_on_c, 1, 59, 64
3, 18690, Note_on_c, 1, 59, 0
3, 18690, Note_on_c, 1, 61, 64
3, 18705, Note_on_c, 1, 61, 0
3, 18705, Note_on_c, 1, 62, 64
3, 18750, Note_on_c, 1, 61, 64
3, 18765, Note_on_c, 1, 62, 0
3, 18810, Note_on_c, 1, 61, 0
3, 18810, Note_on_c, 1, 60, 64
3, 18870, Note_on_c, 1, 60, 0
3, 18870, Note_on_c, 1, 59, 64
3, 18900, Note_on_c, 1, 59, 0
3, 18900, Note_on_c, 1, 64, 64
3, 18930, Note_on_c, 1, 64, 0
3, 18930, Note_on_c, 1, 52, 64
3, 18945, Note_on_c, 1, 52, 0
3, 18945, Note_on_c, 1, 54, 64
3, 18960, Note_on_c, 1, 54, 0
3, 18960, Note_on_c, 1, 56, 64
3, 18990, Note_on_c, 1, 56, 0
3, 18990, Note_on_c, 1, 64, 64
3, 19005, Note_on_c, 1, 64, 0
3, 19005, Note_on_c, 1, 63, 64
3, 19020, Note_on_c, 1, 63, 0
3, 19020, Note_on_c, 1, 64, 64
3, 19050, Note_on_c, 1, 64, 0
3, 19050, Note_on_c, 1, 66, 64
3, 19065, Note_on_c, 1, 66, 0
3, 19065, Note_on_c, 1, 65, 64
3, 19080, Note_on_c, 1, 65, 0
3, 19080, Note_on_c, 1, 66, 64
3, 19110, Note_on_c, 1, 66, 0
3, 19110, Note_on_c, 1, 59, 64
3, 19125, Note_on_c, 1, 59, 0
3, 19125, Note_on_c, 1, 58, 64
3, 19140, Note_on_c, 1, 58, 0
3, 19140, Note_on_c, 1, 59, 64
3, 19170, Note_on_c, 1, 59, 0
3, 19170, Note_on_c, 1, 57, 64
3, 19185, Note_on_c, 1, 57, 0
3, 19185, Note_on_c, 1, 56, 64
3, 19200, Note_on_c, 1, 56, 0
3, 19200, Note_on_c, 1, 57, 64
3, 19230, Note_on_c, 1, 57, 0
3, 19230, Note_on_c, 1, 59, 64
3, 19245, Note_on_c, 1, 59, 0
3, 19245, Note_on_c, 1, 61, 64
3, 19260, Note_on_c, 1, 61, 0
3, 19260, Note_on_c, 1, 59, 64
3, 19290, Note_on_c, 1, 59, 0
3, 19290, Note_on_c, 1, 56, 64
3, 19305, Note_on_c, 1, 56, 0
3, 19305, Note_on_c, 1, 54, 64
3, 19320, Note_on_c, 1, 54, 0
3, 19320, Note_on_c, 1, 56, 64
3, 19350, Note_on_c, 1, 56, 0
3, 19350, Note_on_c, 1, 64, 64
3, 19410, Note_on_c, 1, 64, 0
3, 19410, Note_on_c, 1, 59, 64
3, 19440, Note_on_c, 1, 59, 0
3, 19440, Note_on_c, 1, 56, 64
3, 19500, Note_on_c, 1, 56, 0
3, 19500, Note_on_c, 1, 57, 64
3, 19560, Note_on_c, 1, 57, 0
3, 19560, Note_on_c, 1, 59, 64
3, 19620, Note_on_c, 1, 59, 0
3, 19620, Note_on_c, 1, 61, 64
3, 19680, Note_on_c, 1, 61, 0
3, 19680, Note_on_c, 1, 63, 64
3, 19740, Note_on_c, 1, 63, 0
3, 19740, Note_on_c, 1, 64, 64
3, 19800, Note_on_c, 1, 64, 0
3, 19800, Note_on_c, 1, 59, 64
3, 19890, Note_on_c, 1, 59, 0
3, 19890, Note_on_c, 1, 66, 64
3, 19920, Note_on_c, 1, 66, 0
3, 19920, Note_on_c, 1, 64, 64
3, 19950, Note_on_c, 1, 64, 0
3, 19950, Note_on_c, 1, 63, 64
3, 19980, Note_on_c, 1, 63, 0
3, 19980, Note_on_c, 1, 64, 64
3, 20010, Note_on_c, 1, 64, 0
3, 20010, Note_on_c, 1, 56, 64
3, 20025, Note_on_c, 1, 56, 0
3, 20025, Note_on_c, 1, 54, 64
3, 20040, Note_on_c, 1, 54, 0
3, 20040, Note_on_c, 1, 56, 64
3, 20070, Note_on_c, 1, 56, 0
3, 20070, Note_on_c, 1, 52, 64
3, 20100, Note_on_c, 1, 52, 0
3, 20100, Note_on_c, 1, 64, 64
3, 20130, Note_on_c, 1, 64, 0
3, 20130, Note_on_c, 1, 59, 64
3, 20160, Note_on_c, 1, 59, 0
3, 20160, Note_on_c, 1, 71, 64
3, 20190, Note_on_c, 1, 71, 0
3, 20190, Note_on_c, 1, 69, 64
3, 20205, Note_on_c, 1, 69, 0
3, 20205, Note_on_c, 1, 68, 64
3, 20220, Note_on_c, 1, 68, 0
3, 20220, Note_on_c, 1, 69, 64
3, 20250, Note_on_c, 1, 69, 0
3, 20250, Note_on_c, 1, 66, 64
3, 20265, Note_on_c, 1, 66, 0
3, 20265, Note_on_c, 1, 65, 64
3, 20280, Note_on_c, 1, 65, 0
3, 20280, Note_on_c, 1, 66, 64
3, 20310, Note_on_c, 1, 66, 0
3, 20310, Note_on_c, 1, 63, 64
3, 20325, Note_on_c, 1, 63, 0
3, 20325, Note_on_c, 1, 62, 64
3, 20340, Note_on_c, 1, 62, 0
3, 20340, Note_on_c, 1, 63, 64
3, 20370, Note_on_c, 1, 63, 0
3, 20370, Note_on_c, 1, 66, 64
3, 20385, Note_on_c, 1, 66, 0
3, 20385, Note_on_c, 1, 65, 64
3, 20400, Note_on_c, 1, 65, 0
3, 20400, Note_on_c, 1, 66, 64
3, 20430, Note_on_c, 1, 66, 0
3, 20430, Note_on_c, 1, 69, 64
3, 20445, Note_on_c, 1, 69, 0
3, 20445, Note_on_c, 1, 68, 64
3, 20460, Note_on_c, 1, 68, 0
3, 20460, Note_on_c, 1, 69, 64
3, 20490, Note_on_c, 1, 69, 0
3, 20490, Note_on_c, 1, 69, 64
3, 20505, Note_on_c, 1, 69, 0
3, 20505, Note_on_c, 1, 68, 64
3, 20520, Note_on_c, 1, 68, 0
3, 20520, Note_on_c, 1, 69, 64
3, 20550, Note_on_c, 1, 69, 0
3, 20550, Note_on_c, 1, 68, 64
3, 20565, Note_on_c, 1, 68, 0
3, 20565, Note_on_c, 1, 67, 64
3, 20580, Note_on_c, 1, 67, 0
3, 20580, Note_on_c, 1, 68, 64
3, 20610, Note_on_c, 1, 68, 0
3, 20610, Note_on_c, 1, 64, 64
3, 20625, Note_on_c, 1, 64, 0
3, 20625, Note_on_c, 1, 63, 64
3, 20640, Note_on_c, 1, 63, 0
3, 20640, Note_on_c, 1, 64, 64
3, 20670, Note_on_c, 1, 64, 0
3, 20670, Note_on_c, 1, 61, 64
3, 20685, Note_on_c, 1, 61, 0
3, 20685, Note_on_c, 1, 60, 64
3, 20700, Note_on_c, 1, 60, 0
3, 20700, Note_on_c, 1, 61, 64
3, 20730, Note_on_c, 1, 61, 0
3, 20730, Note_on_c, 1, 64, 64
3, 20745, Note_on_c, 1, 64, 0
3, 20745, Note_on_c, 1, 63, 64
3, 20760, Note_on_c, 1, 63, 0
3, 20760, Note_on_c, 1, 64, 64
3, 20790, Note_on_c, 1, 64, 0
3, 20790, Note_on_c, 1, 68, 64
3, 20805, Note_on_c, 1, 68, 0
3, 20805, Note_on_c, 1, 67, 64
3, 20820, Note_on_c, 1, 67, 0
3, 20820, Note_on_c, 1, 68, 64
3, 20850, Note_on_c, 1, 68, 0
3, 20850, Note_on_c, 1, 68, 64
3, 20865, Note_on_c, 1, 68, 0
3, 20865, Note_on_c, 1, 67, 64
3, 20880, Note_on_c, 1, 67, 0
3, 20880, Note_on_c, 1, 68, 64
3, 20910, Note_on_c, 1, 68, 0
3, 20910, Note_on_c, 1, 66, 64
3, 20925, Note_on_c, 1, 66, 0
3, 20925, Note_on_c, 1, 65, 64
3, 20940, Note_on_c, 1, 65, 0
3, 20940, Note_on_c, 1, 66, 64
3, 20970, Note_on_c, 1, 66, 0
3, 20970, Note_on_c, 1, 63, 64
3, 20985, Note_on_c, 1, 63, 0
3, 20985, Note_on_c, 1, 62, 64
3, 21000, Note_on_c, 1, 62, 0
3, 21000, Note_on_c, 1, 63, 64
3, 21030, Note_on_c, 1, 63, 0
3, 21030, Note_on_c, 1, 66, 64
3, 21045, Note_on_c, 1, 66, 0
3, 21045, Note_on_c, 1, 65, 64
3, 21060, Note_on_c, 1, 65, 0
3, 21060, Note_on_c, 1, 66, 64
3, 21090, Note_on_c, 1, 66, 0
3, 21090, Note_on_c, 1, 69, 64
3, 21105, Note_on_c, 1, 69, 0
3, 21105, Note_on_c, 1, 68, 64
3, 21120, Note_on_c, 1, 68, 0
3, 21120, Note_on_c, 1, 69, 64
3, 21150, Note_on_c, 1, 69, 0
3, 21150, Note_on_c, 1, 68, 64
3, 21165, Note_on_c, 1, 68, 0
3, 21165, Note_on_c, 1, 67, 64
3, 21180, Note_on_c, 1, 67, 0
3, 21180, Note_on_c, 1, 68, 64
3, 21210, Note_on_c, 1, 68, 0
3, 21210, Note_on_c, 1, 73, 64
3, 21225, Note_on_c, 1, 73, 0
3, 21225, Note_on_c, 1, 72, 64
3, 21240, Note_on_c, 1, 72, 0
3, 21240, Note_on_c, 1, 73, 64
3, 21270, Note_on_c, 1, 73, 0
3, 21270, Note_on_c, 1, 71, 64
3, 21285, Note_on_c, 1, 71, 0
3, 21285, Note_on_c, 1, 70, 64
3, 21300, Note_on_c, 1, 70, 0
3, 21300, Note_on_c, 1, 71, 64
3, 21330, Note_on_c, 1, 71, 0
3, 21330, Note_on_c, 1, 69, 64
3, 21345, Note_on_c, 1, 69, 0
3, 21345, Note_on_c, 1, 68, 64
3, 21360, Note_on_c, 1, 68, 0
3, 21360, Note_on_c, 1, 69, 64
3, 21390, Note_on_c, 1, 69, 0
3, 21390, Note_on_c, 1, 61, 64
3, 21405, Note_on_c, 1, 61, 0
3, 21405, Note_on_c, 1, 60, 64
3, 21420, Note_on_c, 1, 60, 0
3, 21420, Note_on_c, 1, 61, 64
3, 21450, Note_on_c, 1, 61, 0
3, 21450, Note_on_c, 1, 66, 64
3, 21465, Note_on_c, 1, 66, 0
3, 21465, Note_on_c, 1, 65, 64
3, 21480, Note_on_c, 1, 65, 0
3, 21480, Note_on_c, 1, 66, 64
3, 21510, Note_on_c, 1, 66, 0
3, 21510, Note_on_c, 1, 59, 64
3, 21525, Note_on_c, 1, 59, 0
3, 21525, Note_on_c, 1, 58, 64
3, 21540, Note_on_c, 1, 58, 0
3, 21540, Note_on_c, 1, 59, 64
3, 21570, Note_on_c, 1, 59, 0
3, 21570, Note_on_c, 1, 71, 64
3, 21585, Note_on_c, 1, 71, 0
3, 21585, Note_on_c, 1, 70, 64
3, 21600, Note_on_c, 1, 70, 0
3, 21600, Note_on_c, 1, 71, 64
3, 21630, Note_on_c, 1, 71, 0
3, 21630, Note_on_c, 1, 61, 64
3, 21645, Note_on_c, 1, 61, 0
3, 21645, Note_on_c, 1, 60, 64
3, 21660, Note_on_c, 1, 60, 0
3, 21660, Note_on_c, 1, 61, 64
3, 21690, Note_on_c, 1, 61, 0
3, 21690, Note_on_c, 1, 63, 64
3, 21705, Note_on_c, 1, 63, 0
3, 21705, Note_on_c, 1, 62, 64
3, 21720, Note_on_c, 1, 62, 0
3, 21720, Note_on_c, 1, 63, 64
3, 21750, Note_on_c, 1, 63, 0
3, 21750, Note_on_c, 1, 64, 64
3, 21765, Note_on_c, 1, 64, 0
3, 21765, Note_on_c, 1, 63, 64
3, 21780, Note_on_c, 1, 63, 0
3, 21780, Note_on_c, 1, 64, 64
3, 21810, Note_on_c, 1, 64, 0
3, 21810, Note_on_c, 1, 68, 64
3, 21825, Note_on_c, 1, 68, 0
3, 21825, Note_on_c, 1, 66, 64
3, 21840, Note_on_c, 1, 66, 0
3, 21840, Note_on_c, 1, 68, 64
3, 21870, Note_on_c, 1, 68, 0
3, 21870, Note_on_c, 1, 71, 64
3, 21885, Note_on_c, 1, 71, 0
3, 21885, Note_on_c, 1, 69, 64
3, 21900, Note_on_c, 1, 69, 0
3, 21900, Note_on_c, 1, 71, 64
3, 21930, Note_on_c, 1, 71, 0
3, 21930, Note_on_c, 1, 64, 64
3, 21945, Note_on_c, 1, 64, 0
3, 21945, Note_on_c, 1, 66, 64
3, 21960, Note_on_c, 1, 66, 0
3, 21960, Note_on_c, 1, 68, 64
3, 21990, Note_on_c, 1, 68, 0
3, 21990, Note_on_c, 1, 64, 64
3, 22050, Note_on_c, 1, 64, 0
3, 22050, Note_on_c, 1, 68, 64
3, 22065, Note_on_c, 1, 68, 0
3, 22065, Note_on_c, 1, 66, 64
3, 22080, Note_on_c, 1, 66, 0
3, 22080, Note_on_c, 1, 68, 64
3, 22110, Note_on_c, 1, 68, 0
3, 22110, Note_on_c, 1, 71, 64
3, 22125, Note_on_c, 1, 71, 0
3, 22125, Note_on_c, 1, 69, 64
3, 22140, Note_on_c, 1, 69, 0
3, 22140, Note_on_c, 1, 68, 64
3, 22200, Note_on_c, 1, 68, 0
3, 22200, Note_on_c, 1, 64, 64
3, 22230, Note_on_c, 1, 64, 0
3, 22230, Note_on_c, 1, 59, 64
3, 22260, Note_on_c, 1, 59, 0
3, 22260, Note_on_c, 1, 56, 64
3, 22290, Note_on_c, 1, 56, 0
3, 22290, Note_on_c, 1, 52, 64
3, 22320, Note_on_c, 1, 52, 0
3, 22320, End_track
4, 0, Start_track
4, 0, MIDI_port, 0
4, 0, Title_t, "piano"
4, 0, Program_c, 2, 0
4, 0, Control_c, 2, 7, 90
4, 0, Control_c, 2, 10, 90
4, 0, Note_on_c, 2, 40, 64
4, 50, Control_c, 2, 7, 77
4, 60, Note_on_c, 2, 40, 0
4, 60, Note_on_c, 2, 42, 64
4, 90, Control_c, 2, 7, 78
4, 120, Note_on_c, 2, 42, 0
4, 120, Note_on_c, 2, 44, 64
4, 140, Control_c, 2, 7, 79
4, 180, Note_on_c, 2, 44, 0
4, 180, Note_on_c, 2, 45, 64
4, 180, Control_c, 2, 7, 80
4, 220, Control_c, 2, 7, 81
4, 240, Note_on_c, 2, 45, 0
4, 240, Note_on_c, 2, 47, 64
4, 270, Control_c, 2, 7, 82
4, 300, Note_on_c, 2, 47, 0
4, 300, Note_on_c, 2, 49, 64
4, 310, Control_c, 2, 7, 83
4, 350, Control_c, 2, 7, 84
4, 360, Note_on_c, 2, 49, 0
4, 360, Note_on_c, 2, 51, 64
4, 380, Control_c, 2, 7, 83
4, 410, Control_c, 2, 7, 82
4, 420, Note_on_c, 2, 51, 0
4, 420, Note_on_c, 2, 52, 64
4, 430, Control_c, 2, 7, 81
4, 450, Note_on_c, 2, 52, 0
4, 450, Note_on_c, 2, 51, 64
4, 460, Control_c, 2, 7, 80
4, 480, Note_on_c, 2, 51, 0
4, 480, Note_on_c, 2, 49, 64
4, 480, Control_c, 2, 7, 79
4, 510, Note_on_c, 2, 49, 0
4, 510, Note_on_c, 2, 47, 64
4, 510, Control_c, 2, 7, 78
4, 530, Control_c, 2, 7, 77
4, 540, Note_on_c, 2, 47, 0
4, 540, Note_on_c, 2, 52, 64
4, 560, Control_c, 2, 7, 76
4, 580, Control_c, 2, 7, 75
4, 600, Note_on_c, 2, 52, 0
4, 600, Note_on_c, 2, 40, 64
4, 660, Note_on_c, 2, 40, 0
4, 720, Control_c, 2, 7, 74
4, 750, Note_on_c, 2, 52, 64
4, 770, Control_c, 2, 7, 75
4, 810, Note_on_c, 2, 52, 0
4, 810, Note_on_c, 2, 51, 64
4, 820, Control_c, 2, 7, 76
4, 870, Note_on_c, 2, 51, 0
4, 870, Note_on_c, 2, 50, 64
4, 870, Control_c, 2, 7, 77
4, 910, Control_c, 2, 7, 78
4, 930, Note_on_c, 2, 50, 0
4, 930, Note_on_c, 2, 49, 64
4, 960, Control_c, 2, 7, 79
4, 990, Note_on_c, 2, 49, 0
4, 990, Note_on_c, 2, 47, 64
4, 1010, Control_c, 2, 7, 80
4, 1050, Note_on_c, 2, 47, 0
4, 1050, Note_on_c, 2, 45, 64
4, 1050, Control_c, 2, 7, 81
4, 1100, Control_c, 2, 7, 82
4, 1110, Note_on_c, 2, 45, 0
4, 1110, Note_on_c, 2, 44, 64
4, 1150, Control_c, 2, 7, 83
4, 1170, Note_on_c, 2, 44, 0
4, 1170, Note_on_c, 2, 42, 64
4, 1190, Control_c, 2, 7, 84
4, 1230, Note_on_c, 2, 42, 0
4, 1230, Note_on_c, 2, 44, 64
4, 1240, Control_c, 2, 7, 85
4, 1245, Note_on_c, 2, 44, 0
4, 1245, Note_on_c, 2, 45, 64
4, 1260, Note_on_c, 2, 45, 0
4, 1260, Note_on_c, 2, 44, 64
4, 1290, Note_on_c, 2, 44, 0
4, 1290, Note_on_c, 2, 47, 64
4, 1290, Control_c, 2, 7, 86
4, 1305, Note_on_c, 2, 47, 0
4, 1305, Note_on_c, 2, 45, 64
4, 1320, Note_on_c, 2, 45, 0
4, 1320, Note_on_c, 2, 47, 64
4, 1330, Control_c, 2, 7, 87
4, 1350, Note_on_c, 2, 47, 0
4, 1350, Note_on_c, 2, 44, 64
4, 1365, Note_on_c, 2, 44, 0
4, 1365, Note_on_c, 2, 42, 64
4, 1380, Note_on_c, 2, 42, 0
4, 1380, Note_on_c, 2, 44, 64
4, 1380, Control_c, 2, 7, 88
4, 1410, Note_on_c, 2, 44, 0
4, 1410, Note_on_c, 2, 40, 64
4, 1425, Note_on_c, 2, 40, 0
4, 1425, Note_on_c, 2, 39, 64
4, 1430, Control_c, 2, 7, 89
4, 1440, Note_on_c, 2, 39, 0
4, 1440, Note_on_c, 2, 40, 64
4, 1470, Control_c, 2, 7, 90
4, 1500, Note_on_c, 2, 40, 0
4, 1500, Note_on_c, 2, 49, 64
4, 1520, Control_c, 2, 7, 91
4, 1560, Note_on_c, 2, 49, 0
4, 1560, Note_on_c, 2, 52, 64
4, 1570, Control_c, 2, 7, 92
4, 1610, Control_c, 2, 7, 93
4, 1620, Note_on_c, 2, 52, 0
4, 1620, Note_on_c, 2, 54, 64
4, 1660, Control_c, 2, 7, 94
4, 1680, Note_on_c, 2, 54, 0
4, 1680, Note_on_c, 2, 58, 64
4, 1710, Control_c, 2, 7, 95
4, 1740, Note_on_c, 2, 58, 0
4, 1740, Note_on_c, 2, 61, 64
4, 1750, Control_c, 2, 7, 96
4, 1800, Note_on_c, 2, 61, 0
4, 1800, Note_on_c, 2, 39, 64
4, 1800, Control_c, 2, 7, 97
4, 1850, Control_c, 2, 7, 98
4, 1860, Note_on_c, 2, 39, 0
4, 1860, Note_on_c, 2, 47, 64
4, 1890, Control_c, 2, 7, 99
4, 1920, Note_on_c, 2, 47, 0
4, 1920, Note_on_c, 2, 51, 64
4, 1940, Control_c, 2, 7, 100
4, 1980, Note_on_c, 2, 51, 0
4, 1980, Note_on_c, 2, 52, 64
4, 1990, Control_c, 2, 7, 101
4, 2030, Control_c, 2, 7, 102
4, 2040, Note_on_c, 2, 52, 0
4, 2040, Note_on_c, 2, 56, 64
4, 2080, Control_c, 2, 7, 103
4, 2100, Note_on_c, 2, 56, 0
4, 2100, Note_on_c, 2, 59, 64
4, 2130, Control_c, 2, 7, 104
4, 2160, Note_on_c, 2, 59, 0
4, 2160, Note_on_c, 2, 37, 64
4, 2170, Control_c, 2, 7, 105
4, 2220, Note_on_c, 2, 37, 0
4, 2220, Note_on_c, 2, 49, 64
4, 2220, Control_c, 2, 7, 106
4, 2270, Control_c, 2, 7, 107
4, 2280, Note_on_c, 2, 49, 0
4, 2280, Note_on_c, 2, 52, 64
4, 2310, Control_c, 2, 7, 108
4, 2340, Note_on_c, 2, 52, 0
4, 2340, Note_on_c, 2, 54, 64
4, 2400, Note_on_c, 2, 54, 0
4, 2400, Note_on_c, 2, 56, 64
4, 2460, Note_on_c, 2, 56, 0
4, 2460, Note_on_c, 2, 58, 64
4, 2520, Note_on_c, 2, 58, 0
4, 2520, Note_on_c, 2, 59, 64
4, 2520, Control_c, 2, 7, 106
4, 2540, Control_c, 2, 7, 105
4, 2560, Control_c, 2, 7, 104
4, 2580, Note_on_c, 2, 59, 0
4, 2580, Note_on_c, 2, 52, 64
4, 2580, Control_c, 2, 7, 103
4, 2600, Control_c, 2, 7, 102
4, 2620, Control_c, 2, 7, 101
4, 2630, Control_c, 2, 7, 100
4, 2640, Note_on_c, 2, 52, 0
4, 2640, Note_on_c, 2, 56, 64
4, 2650, Control_c, 2, 7, 99
4, 2670, Control_c, 2, 7, 98
4, 2690, Control_c, 2, 7, 97
4, 2700, Note_on_c, 2, 56, 0
4, 2700, Note_on_c, 2, 54, 64
4, 2710, Control_c, 2, 7, 96
4, 2730, Note_on_c, 2, 54, 0
4, 2730, Note_on_c, 2, 61, 64
4, 2730, Control_c, 2, 7, 95
4, 2740, Control_c, 2, 7, 94
4, 2760, Note_on_c, 2, 61, 0
4, 2760, Note_on_c, 2, 58, 64
4, 2760, Control_c, 2, 7, 93
4, 2780, Control_c, 2, 7, 92
4, 2790, Note_on_c, 2, 58, 0
4, 2790, Note_on_c, 2, 61, 64
4, 2800, Control_c, 2, 7, 91
4, 2820, Note_on_c, 2, 61, 0
4, 2820, Note_on_c, 2, 52, 64
4, 2820, Control_c, 2, 7, 90
4, 2840, Control_c, 2, 7, 89
4, 2850, Note_on_c, 2, 52, 0
4, 2850, Note_on_c, 2, 61, 64
4, 2850, Control_c, 2, 7, 88
4, 2860, Control_c, 2, 7, 90
4, 2870, Control_c, 2, 7, 89
4, 2880, Note_on_c, 2, 61, 0
4, 2880, Note_on_c, 2, 51, 64
4, 2880, Control_c, 2, 7, 87
4, 2910, Control_c, 2, 7, 86
4, 2940, Note_on_c, 2, 51, 0
4, 2940, Note_on_c, 2, 52, 64
4, 2960, Control_c, 2, 7, 85
4, 3000, Note_on_c, 2, 52, 0
4, 3000, Note_on_c, 2, 54, 64
4, 3010, Control_c, 2, 7, 84
4, 3050, Control_c, 2, 7, 83
4, 3060, Note_on_c, 2, 54, 0
4, 3060, Note_on_c, 2, 47, 64
4, 3090, Note_on_c, 2, 47, 0
4, 3090, Note_on_c, 2, 59, 64
4, 3100, Control_c, 2, 7, 82
4, 3105, Note_on_c, 2, 59, 0
4, 3105, Note_on_c, 2, 58, 64
4, 3120, Note_on_c, 2, 58, 0
4, 3120, Note_on_c, 2, 59, 64
4, 3150, Note_on_c, 2, 59, 0
4, 3150, Note_on_c, 2, 54, 64
4, 3150, Control_c, 2, 7, 81
4, 3165, Note_on_c, 2, 54, 0
4, 3165, Note_on_c, 2, 52, 64
4, 3180, Note_on_c, 2, 52, 0
4, 3180, Note_on_c, 2, 54, 64
4, 3190, Control_c, 2, 7, 80
4, 3210, Note_on_c, 2, 54, 0
4, 3210, Note_on_c, 2, 51, 64
4, 3225, Note_on_c, 2, 51, 0
4, 3225, Note_on_c, 2, 49, 64
4, 3240, Note_on_c, 2, 49, 0
4, 3240, Note_on_c, 2, 51, 64
4, 3240, Control_c, 2, 7, 79
4, 3270, Note_on_c, 2, 51, 0
4, 3270, Note_on_c, 2, 54, 64
4, 3280, Control_c, 2, 7, 78
4, 3285, Note_on_c, 2, 54, 0
4, 3285, Note_on_c, 2, 52, 64
4, 3300, Note_on_c, 2, 52, 0
4, 3300, Note_on_c, 2, 54, 64
4, 3330, Note_on_c, 2, 54, 0
4, 3330, Note_on_c, 2, 51, 64
4, 3330, Control_c, 2, 7, 77
4, 3345, Note_on_c, 2, 51, 0
4, 3345, Note_on_c, 2, 49, 64
4, 3360, Note_on_c, 2, 49, 0
4, 3360, Note_on_c, 2, 51, 64
4, 3380, Control_c, 2, 7, 76
4, 3390, Note_on_c, 2, 51, 0
4, 3390, Note_on_c, 2, 47, 64
4, 3405, Note_on_c, 2, 47, 0
4, 3405, Note_on_c, 2, 46, 64
4, 3420, Note_on_c, 2, 46, 0
4, 3420, Note_on_c, 2, 47, 64
4, 3420, Control_c, 2, 7, 75
4, 3470, Control_c, 2, 7, 74
4, 3510, Control_c, 2, 7, 73
4, 3530, Control_c, 2, 7, 74
4, 3540, Note_on_c, 2, 47, 0
4, 3540, Note_on_c, 2, 59, 64
4, 3550, Control_c, 2, 7, 75
4, 3570, Control_c, 2, 7, 76
4, 3590, Control_c, 2, 7, 77
4, 3600, Note_on_c, 2, 59, 0
4, 3600, Note_on_c, 2, 40, 64
4, 3610, Control_c, 2, 7, 78
4, 3630, Control_c, 2, 7, 79
4, 3650, Control_c, 2, 7, 80
4, 3660, Note_on_c, 2, 40, 0
4, 3660, Note_on_c, 2, 42, 64
4, 3670, Control_c, 2, 7, 81
4, 3690, Control_c, 2, 7, 82
4, 3710, Control_c, 2, 7, 83
4, 3720, Note_on_c, 2, 42, 0
4, 3720, Note_on_c, 2, 44, 64
4, 3730, Control_c, 2, 7, 84
4, 3750, Control_c, 2, 7, 85
4, 3770, Control_c, 2, 7, 88
4, 3780, Note_on_c, 2, 44, 0
4, 3780, Note_on_c, 2, 45, 64
4, 3810, Control_c, 2, 7, 87
4, 3840, Note_on_c, 2, 45, 0
4, 3840, Note_on_c, 2, 47, 64
4, 3850, Control_c, 2, 7, 86
4, 3890, Control_c, 2, 7, 85
4, 3900, Note_on_c, 2, 47, 0
4, 3900, Note_on_c, 2, 49, 64
4, 3930, Control_c, 2, 7, 84
4, 3960, Note_on_c, 2, 49, 0
4, 3960, Note_on_c, 2, 51, 64
4, 3970, Control_c, 2, 7, 83
4, 4010, Control_c, 2, 7, 82
4, 4020, Note_on_c, 2, 51, 0
4, 4020, Note_on_c, 2, 52, 64
4, 4050, Note_on_c, 2, 52, 0
4, 4050, Note_on_c, 2, 51, 64
4, 4050, Control_c, 2, 7, 81
4, 4080, Note_on_c, 2, 51, 0
4, 4080, Note_on_c, 2, 49, 64
4, 4090, Control_c, 2, 7, 80
4, 4110, Note_on_c, 2, 49, 0
4, 4110, Note_on_c, 2, 47, 64
4, 4130, Control_c, 2, 7, 79
4, 4140, Note_on_c, 2, 47, 0
4, 4140, Note_on_c, 2, 52, 64
4, 4170, Control_c, 2, 7, 78
4, 4200, Note_on_c, 2, 52, 0
4, 4200, Note_on_c, 2, 40, 64
4, 4210, Control_c, 2, 7, 77
4, 4260, Note_on_c, 2, 40, 0
4, 4320, Control_c, 2, 7, 77
4, 4350, Note_on_c, 2, 52, 64
4, 4370, Control_c, 2, 7, 78
4, 4410, Note_on_c, 2, 52, 0
4, 4410, Note_on_c, 2, 51, 64
4, 4410, Control_c, 2, 7, 79
4, 4450, Control_c, 2, 7, 80
4, 4470, Note_on_c, 2, 51, 0
4, 4470, Note_on_c, 2, 50, 64
4, 4500, Control_c, 2, 7, 81
4, 4530, Note_on_c, 2, 50, 0
4, 4530, Note_on_c, 2, 49, 64
4, 4540, Control_c, 2, 7, 82
4, 4580, Control_c, 2, 7, 83
4, 4590, Note_on_c, 2, 49, 0
4, 4590, Note_on_c, 2, 47, 64
4, 4630, Control_c, 2, 7, 84
4, 4650, Note_on_c, 2, 47, 0
4, 4650, Note_on_c, 2, 45, 64
4, 4670, Control_c, 2, 7, 85
4, 4710, Note_on_c, 2, 45, 0
4, 4710, Note_on_c, 2, 44, 64
4, 4710, Control_c, 2, 7, 86
4, 4760, Control_c, 2, 7, 87
4, 4770, Note_on_c, 2, 44, 0
4, 4770, Note_on_c, 2, 42, 64
4, 4800, Control_c, 2, 7, 88
4, 4830, Note_on_c, 2, 42, 0
4, 4830, Note_on_c, 2, 44, 64
4, 4840, Control_c, 2, 7, 89
4, 4845, Note_on_c, 2, 44, 0
4, 4845, Note_on_c, 2, 45, 64
4, 4860, Note_on_c, 2, 45, 0
4, 4860, Note_on_c, 2, 44, 64
4, 4890, Note_on_c, 2, 44, 0
4, 4890, Note_on_c, 2, 47, 64
4, 4890, Control_c, 2, 7, 90
4, 4905, Note_on_c, 2, 47, 0
4, 4905, Note_on_c, 2, 45, 64
4, 4920, Note_on_c, 2, 45, 0
4, 4920, Note_on_c, 2, 47, 64
4, 4930, Control_c, 2, 7, 91
4, 4950, Note_on_c, 2, 47, 0
4, 4950, Note_on_c, 2, 44, 64
4, 4965, Note_on_c, 2, 44, 0
4, 4965, Note_on_c, 2, 42, 64
4, 4970, Control_c, 2, 7, 92
4, 4980, Note_on_c, 2, 42, 0
4, 4980, Note_on_c, 2, 44, 64
4, 5010, Note_on_c, 2, 44, 0
4, 5010, Note_on_c, 2, 40, 64
4, 5020, Control_c, 2, 7, 93
4, 5025, Note_on_c, 2, 40, 0
4, 5025, Note_on_c, 2, 39, 64
4, 5040, Note_on_c, 2, 39, 0
4, 5040, Note_on_c, 2, 40, 64
4, 5060, Control_c, 2, 7, 94
4, 5100, Note_on_c, 2, 40, 0
4, 5100, Note_on_c, 2, 49, 64
4, 5100, Control_c, 2, 7, 95
4, 5150, Control_c, 2, 7, 96
4, 5160, Note_on_c, 2, 49, 0
4, 5160, Note_on_c, 2, 52, 64
4, 5190, Control_c, 2, 7, 97
4, 5220, Note_on_c, 2, 52, 0
4, 5220, Note_on_c, 2, 54, 64
4, 5230, Control_c, 2, 7, 98
4, 5280, Note_on_c, 2, 54, 0
4, 5280, Note_on_c, 2, 58, 64
4, 5280, Control_c, 2, 7, 99
4, 5320, Control_c, 2, 7, 100
4, 5340, Note_on_c, 2, 58, 0
4, 5340, Note_on_c, 2, 61, 64
4, 5360, Control_c, 2, 7, 101
4, 5400, Note_on_c, 2, 61, 0
4, 5400, Note_on_c, 2, 39, 64
4, 5410, Control_c, 2, 7, 102
4, 5450, Control_c, 2, 7, 103
4, 5460, Note_on_c, 2, 39, 0
4, 5460, Note_on_c, 2, 47, 64
4, 5490, Control_c, 2, 7, 104
4, 5520, Note_on_c, 2, 47, 0
4, 5520, Note_on_c, 2, 51, 64
4, 5540, Control_c, 2, 7, 105
4, 5580, Note_on_c, 2, 51, 0
4, 5580, Note_on_c, 2, 52, 64
4, 5580, Control_c, 2, 7, 106
4, 5620, Control_c, 2, 7, 107
4, 5640, Note_on_c, 2, 52, 0
4, 5640, Note_on_c, 2, 56, 64
4, 5670, Control_c, 2, 7, 108
4, 5700, Note_on_c, 2, 56, 0
4, 5700, Note_on_c, 2, 59, 64
4, 5710, Control_c, 2, 7, 109
4, 5750, Control_c, 2, 7, 110
4, 5760, Note_on_c, 2, 59, 0
4, 5760, Note_on_c, 2, 37, 64
4, 5790, Control_c, 2, 7, 111
4, 5820, Note_on_c, 2, 37, 0
4, 5820, Note_on_c, 2, 49, 64
4, 5880, Note_on_c, 2, 49, 0
4, 5880, Note_on_c, 2, 52, 64
4, 5940, Note_on_c, 2, 52, 0
4, 5940, Note_on_c, 2, 54, 64
4, 6000, Note_on_c, 2, 54, 0
4, 6000, Note_on_c, 2, 56, 64
4, 6020, Control_c, 2, 7, 96
4, 6040, Control_c, 2, 7, 95
4, 6060, Note_on_c, 2, 56, 0
4, 6060, Note_on_c, 2, 58, 64
4, 6060, Control_c, 2, 7, 94
4, 6080, Control_c, 2, 7, 93
4, 6100, Control_c, 2, 7, 92
4, 6120, Note_on_c, 2, 58, 0
4, 6120, Note_on_c, 2, 59, 64
4, 6120, Control_c, 2, 7, 91
4, 6140, Control_c, 2, 7, 90
4, 6160, Control_c, 2, 7, 89
4, 6180, Note_on_c, 2, 59, 0
4, 6180, Note_on_c, 2, 52, 64
4, 6180, Control_c, 2, 7, 88
4, 6200, Control_c, 2, 7, 87
4, 6220, Control_c, 2, 7, 86
4, 6240, Note_on_c, 2, 52, 0
4, 6240, Note_on_c, 2, 56, 64
4, 6240, Control_c, 2, 7, 85
4, 6260, Control_c, 2, 7, 84
4, 6280, Control_c, 2, 7, 83
4, 6300, Note_on_c, 2, 56, 0
4, 6300, Note_on_c, 2, 54, 64
4, 6330, Note_on_c, 2, 54, 0
4, 6330, Note_on_c, 2, 61, 64
4, 6360, Note_on_c, 2, 61, 0
4, 6360, Note_on_c, 2, 58, 64
4, 6370, Control_c, 2, 7, 79
4, 6390, Note_on_c, 2, 58, 0
4, 6390, Note_on_c, 2, 61, 64
4, 6420, Note_on_c, 2, 61, 0
4, 6420, Note_on_c, 2, 52, 64
4, 6450, Note_on_c, 2, 52, 0
4, 6450, Note_on_c, 2, 61, 64
4, 6480, Note_on_c, 2, 61, 0
4, 6480, Note_on_c, 2, 51, 64
4, 6510, Control_c, 2, 7, 78
4, 6540, Note_on_c, 2, 51, 0
4, 6540, Note_on_c, 2, 52, 64
4, 6600, Note_on_c, 2, 52, 0
4, 6600, Note_on_c, 2, 54, 64
4, 6650, Control_c, 2, 7, 77
4, 6660, Note_on_c, 2, 54, 0
4, 6660, Note_on_c, 2, 47, 64
4, 6690, Note_on_c, 2, 47, 0
4, 6690, Note_on_c, 2, 59, 64
4, 6705, Note_on_c, 2, 59, 0
4, 6705, Note_on_c, 2, 58, 64
4, 6720, Note_on_c, 2, 58, 0
4, 6720, Note_on_c, 2, 59, 64
4, 6750, Note_on_c, 2, 59, 0
4, 6750, Note_on_c, 2, 54, 64
4, 6765, Note_on_c, 2, 54, 0
4, 6765, Note_on_c, 2, 52, 64
4, 6780, Note_on_c, 2, 52, 0
4, 6780, Note_on_c, 2, 54, 64
4, 6780, Control_c, 2, 7, 76
4, 6810, Note_on_c, 2, 54, 0
4, 6810, Note_on_c, 2, 51, 64
4, 6825, Note_on_c, 2, 51, 0
4, 6825, Note_on_c, 2, 49, 64
4, 6840, Note_on_c, 2, 49, 0
4, 6840, Note_on_c, 2, 51, 64
4, 6870, Note_on_c, 2, 51, 0
4, 6870, Note_on_c, 2, 54, 64
4, 6885, Note_on_c, 2, 54, 0
4, 6885, Note_on_c, 2, 52, 64
4, 6900, Note_on_c, 2, 52, 0
4, 6900, Note_on_c, 2, 54, 64
4, 6920, Control_c, 2, 7, 75
4, 6930, Note_on_c, 2, 54, 0
4, 6930, Note_on_c, 2, 51, 64
4, 6945, Note_on_c, 2, 51, 0
4, 6945, Note_on_c, 2, 49, 64
4, 6960, Note_on_c, 2, 49, 0
4, 6960, Note_on_c, 2, 51, 64
4, 6990, Note_on_c, 2, 51, 0
4, 6990, Note_on_c, 2, 47, 64
4, 7005, Note_on_c, 2, 47, 0
4, 7005, Note_on_c, 2, 46, 64
4, 7020, Note_on_c, 2, 46, 0
4, 7020, Note_on_c, 2, 47, 64
4, 7050, Control_c, 2, 7, 74
4, 7140, Note_on_c, 2, 47, 0
4, 7140, Note_on_c, 2, 59, 64
4, 7200, Note_on_c, 2, 59, 0
4, 7206, Control_c, 2, 7, 70
4, 7226, Control_c, 2, 7, 71
4, 7230, Note_on_c, 2, 59, 64
4, 7246, Control_c, 2, 7, 72
4, 7266, Control_c, 2, 7, 73
4, 7286, Control_c, 2, 7, 74
4, 7290, Note_on_c, 2, 59, 0
4, 7290, Note_on_c, 2, 58, 64
4, 7306, Control_c, 2, 7, 75
4, 7326, Control_c, 2, 7, 76
4, 7346, Control_c, 2, 7, 77
4, 7350, Note_on_c, 2, 58, 0
4, 7350, Note_on_c, 2, 57, 64
4, 7366, Control_c, 2, 7, 78
4, 7383, Control_c, 2, 7, 79
4, 7403, Control_c, 2, 7, 80
4, 7410, Note_on_c, 2, 57, 0
4, 7410, Note_on_c, 2, 56, 64
4, 7423, Control_c, 2, 7, 81
4, 7443, Control_c, 2, 7, 82
4, 7463, Control_c, 2, 7, 83
4, 7470, Note_on_c, 2, 56, 0
4, 7470, Note_on_c, 2, 54, 64
4, 7483, Control_c, 2, 7, 84
4, 7503, Control_c, 2, 7, 85
4, 7523, Control_c, 2, 7, 86
4, 7530, Note_on_c, 2, 54, 0
4, 7530, Note_on_c, 2, 52, 64
4, 7543, Control_c, 2, 7, 87
4, 7560, Control_c, 2, 7, 88
4, 7580, Control_c, 2, 7, 87
4, 7590, Note_on_c, 2, 52, 0
4, 7590, Note_on_c, 2, 51, 64
4, 7596, Control_c, 2, 7, 86
4, 7613, Control_c, 2, 7, 85
4, 7630, Control_c, 2, 7, 84
4, 7646, Control_c, 2, 7, 83
4, 7650, Note_on_c, 2, 51, 0
4, 7650, Note_on_c, 2, 49, 64
4, 7663, Control_c, 2, 7, 82
4, 7680, Control_c, 2, 7, 81
4, 7696, Control_c, 2, 7, 80
4, 7710, Note_on_c, 2, 49, 0
4, 7710, Note_on_c, 2, 51, 64
4, 7713, Control_c, 2, 7, 79
4, 7725, Note_on_c, 2, 51, 0
4, 7725, Note_on_c, 2, 52, 64
4, 7730, Control_c, 2, 7, 78
4, 7740, Note_on_c, 2, 52, 0
4, 7740, Note_on_c, 2, 51, 64
4, 7750, Control_c, 2, 7, 77
4, 7766, Control_c, 2, 7, 76
4, 7770, Note_on_c, 2, 51, 0
4, 7770, Note_on_c, 2, 54, 64
4, 7783, Control_c, 2, 7, 75
4, 7785, Note_on_c, 2, 54, 0
4, 7785, Note_on_c, 2, 52, 64
4, 7800, Note_on_c, 2, 52, 0
4, 7800, Note_on_c, 2, 54, 64
4, 7800, Control_c, 2, 7, 74
4, 7816, Control_c, 2, 7, 73
4, 7830, Note_on_c, 2, 54, 0
4, 7830, Note_on_c, 2, 51, 64
4, 7833, Control_c, 2, 7, 72
4, 7845, Note_on_c, 2, 51, 0
4, 7845, Note_on_c, 2, 49, 64
4, 7850, Control_c, 2, 7, 71
4, 7860, Note_on_c, 2, 49, 0
4, 7860, Note_on_c, 2, 51, 64
4, 7866, Control_c, 2, 7, 70
4, 7883, Control_c, 2, 7, 69
4, 7890, Note_on_c, 2, 51, 0
4, 7890, Note_on_c, 2, 47, 64
4, 7900, Control_c, 2, 7, 68
4, 7905, Note_on_c, 2, 47, 0
4, 7905, Note_on_c, 2, 46, 64
4, 7916, Control_c, 2, 7, 67
4, 7920, Note_on_c, 2, 46, 0
4, 7920, Note_on_c, 2, 47, 64
4, 7923, Control_c, 2, 7, 66
4, 7943, Control_c, 2, 7, 67
4, 7963, Control_c, 2, 7, 68
4, 7980, Note_on_c, 2, 47, 0
4, 7980, Note_on_c, 2, 49, 64
4, 7980, Control_c, 2, 7, 69
4, 8000, Control_c, 2, 7, 70
4, 8020, Control_c, 2, 7, 71
4, 8036, Control_c, 2, 7, 72
4, 8040, Note_on_c, 2, 49, 0
4, 8040, Note_on_c, 2, 51, 64
4, 8056, Control_c, 2, 7, 73
4, 8076, Control_c, 2, 7, 74
4, 8093, Control_c, 2, 7, 75
4, 8100, Note_on_c, 2, 51, 0
4, 8100, Note_on_c, 2, 52, 64
4, 8113, Control_c, 2, 7, 76
4, 8133, Control_c, 2, 7, 77
4, 8150, Control_c, 2, 7, 78
4, 8160, Note_on_c, 2, 52, 0
4, 8160, Note_on_c, 2, 54, 64
4, 8170, Control_c, 2, 7, 79
4, 8190, Control_c, 2, 7, 80
4, 8206, Control_c, 2, 7, 81
4, 8220, Note_on_c, 2, 54, 0
4, 8220, Note_on_c, 2, 56, 64
4, 8226, Control_c, 2, 7, 82
4, 8246, Control_c, 2, 7, 83
4, 8263, Control_c, 2, 7, 84
4, 8280, Note_on_c, 2, 56, 0
4, 8280, Note_on_c, 2, 58, 64
4, 8280, Control_c, 2, 7, 84
4, 8303, Control_c, 2, 7, 83
4, 8323, Control_c, 2, 7, 82
4, 8340, Note_on_c, 2, 58, 0
4, 8340, Note_on_c, 2, 59, 64
4, 8343, Control_c, 2, 7, 81
4, 8363, Control_c, 2, 7, 80
4, 8370, Note_on_c, 2, 59, 0
4, 8370, Note_on_c, 2, 58, 64
4, 8383, Control_c, 2, 7, 79
4, 8400, Note_on_c, 2, 58, 0
4, 8400, Note_on_c, 2, 56, 64
4, 8403, Control_c, 2, 7, 78
4, 8423, Control_c, 2, 7, 77
4, 8430, Note_on_c, 2, 56, 0
4, 8430, Note_on_c, 2, 54, 64
4, 8443, Control_c, 2, 7, 76
4, 8460, Note_on_c, 2, 54, 0
4, 8460, Note_on_c, 2, 59, 64
4, 8463, Control_c, 2, 7, 75
4, 8483, Control_c, 2, 7, 74
4, 8503, Control_c, 2, 7, 73
4, 8520, Note_on_c, 2, 59, 0
4, 8520, Note_on_c, 2, 47, 64
4, 8523, Control_c, 2, 7, 72
4, 8543, Control_c, 2, 7, 71
4, 8563, Control_c, 2, 7, 70
4, 8580, Note_on_c, 2, 47, 0
4, 8583, Control_c, 2, 7, 69
4, 8603, Control_c, 2, 7, 68
4, 8623, Control_c, 2, 7, 67
4, 8640, Note_on_c, 2, 44, 64
4, 8643, Control_c, 2, 7, 66
4, 8700, Note_on_c, 2, 44, 0
4, 8700, Note_on_c, 2, 47, 64
4, 8760, Note_on_c, 2, 47, 0
4, 8760, Note_on_c, 2, 51, 64
4, 8820, Note_on_c, 2, 51, 0
4, 8820, Note_on_c, 2, 43, 64
4, 8880, Note_on_c, 2, 43, 0
4, 8880, Note_on_c, 2, 46, 64
4, 8940, Note_on_c, 2, 46, 0
4, 8940, Note_on_c, 2, 51, 64
4, 9000, Note_on_c, 2, 51, 0
4, 9000, Note_on_c, 2, 44, 64
4, 9060, Note_on_c, 2, 44, 0
4, 9060, Note_on_c, 2, 47, 64
4, 9120, Note_on_c, 2, 47, 0
4, 9120, Note_on_c, 2, 51, 64
4, 9180, Note_on_c, 2, 51, 0
4, 9180, Note_on_c, 2, 39, 64
4, 9240, Note_on_c, 2, 39, 0
4, 9240, Note_on_c, 2, 51, 64
4, 9300, Note_on_c, 2, 51, 0
4, 9300, Note_on_c, 2, 49, 64
4, 9360, Note_on_c, 2, 49, 0
4, 9360, Note_on_c, 2, 48, 64
4, 9360, Control_c, 2, 7, 66
4, 9386, Control_c, 2, 7, 67
4, 9410, Control_c, 2, 7, 68
4, 9420, Note_on_c, 2, 48, 0
4, 9420, Note_on_c, 2, 49, 64
4, 9436, Control_c, 2, 7, 69
4, 9460, Control_c, 2, 7, 70
4, 9480, Note_on_c, 2, 49, 0
4, 9480, Note_on_c, 2, 51, 64
4, 9483, Control_c, 2, 7, 71
4, 9510, Control_c, 2, 7, 72
4, 9533, Control_c, 2, 7, 73
4, 9540, Note_on_c, 2, 51, 0
4, 9540, Note_on_c, 2, 44, 64
4, 9556, Control_c, 2, 7, 74
4, 9583, Control_c, 2, 7, 75
4, 9600, Note_on_c, 2, 44, 0
4, 9600, Note_on_c, 2, 49, 64
4, 9606, Control_c, 2, 7, 76
4, 9630, Control_c, 2, 7, 77
4, 9656, Control_c, 2, 7, 78
4, 9660, Note_on_c, 2, 49, 0
4, 9660, Note_on_c, 2, 47, 64
4, 9680, Control_c, 2, 7, 79
4, 9706, Control_c, 2, 7, 80
4, 9720, Note_on_c, 2, 47, 0
4, 9720, Note_on_c, 2, 46, 64
4, 9730, Control_c, 2, 7, 81
4, 9753, Control_c, 2, 7, 82
4, 9780, Note_on_c, 2, 46, 0
4, 9780, Note_on_c, 2, 47, 64
4, 9780, Control_c, 2, 7, 83
4, 9803, Control_c, 2, 7, 84
4, 9826, Control_c, 2, 7, 85
4, 9840, Note_on_c, 2, 47, 0
4, 9840, Note_on_c, 2, 49, 64
4, 9853, Control_c, 2, 7, 86
4, 9876, Control_c, 2, 7, 87
4, 9900, Note_on_c, 2, 49, 0
4, 9900, Note_on_c, 2, 42, 64
4, 9900, Control_c, 2, 7, 88
4, 9926, Control_c, 2, 7, 89
4, 9950, Control_c, 2, 7, 90
4, 9960, Note_on_c, 2, 42, 0
4, 9960, Note_on_c, 2, 47, 64
4, 9976, Control_c, 2, 7, 91
4, 10000, Control_c, 2, 7, 92
4, 10020, Note_on_c, 2, 47, 0
4, 10020, Note_on_c, 2, 51, 64
4, 10023, Control_c, 2, 7, 93
4, 10050, Control_c, 2, 7, 94
4, 10073, Control_c, 2, 7, 95
4, 10080, Note_on_c, 2, 51, 0
4, 10080, Note_on_c, 2, 43, 64
4, 10096, Control_c, 2, 7, 96
4, 10123, Control_c, 2, 7, 97
4, 10140, Note_on_c, 2, 43, 0
4, 10140, Note_on_c, 2, 44, 64
4, 10146, Control_c, 2, 7, 98
4, 10170, Control_c, 2, 7, 99
4, 10196, Control_c, 2, 7, 100
4, 10200, Note_on_c, 2, 44, 0
4, 10200, Note_on_c, 2, 46, 64
4, 10220, Control_c, 2, 7, 101
4, 10246, Control_c, 2, 7, 102
4, 10260, Note_on_c, 2, 46, 0
4, 10260, Note_on_c, 2, 39, 64
4, 10270, Control_c, 2, 7, 103
4, 10293, Control_c, 2, 7, 104
4, 10320, Note_on_c, 2, 39, 0
4, 10320, Note_on_c, 2, 44, 64
4, 10320, Control_c, 2, 7, 105
4, 10343, Control_c, 2, 7, 106
4, 10366, Control_c, 2, 7, 107
4, 10380, Note_on_c, 2, 44, 0
4, 10380, Note_on_c, 2, 47, 64
4, 10393, Control_c, 2, 7, 108
4, 10416, Control_c, 2, 7, 109
4, 10440, Note_on_c, 2, 47, 0
4, 10440, Note_on_c, 2, 37, 64
4, 10440, Control_c, 2, 7, 110
4, 10500, Note_on_c, 2, 37, 0
4, 10560, Note_on_c, 2, 61, 64
4, 10680, Note_on_c, 2, 61, 0
4, 10680, Note_on_c, 2, 58, 64
4, 10740, Note_on_c, 2, 58, 0
4, 10740, Note_on_c, 2, 55, 64
4, 10800, Note_on_c, 2, 55, 0
4, 10800, Note_on_c, 2, 56, 64
4, 10860, Note_on_c, 2, 56, 0
4, 10860, Note_on_c, 2, 49, 64
4, 10920, Note_on_c, 2, 49, 0
4, 10920, Note_on_c, 2, 51, 64
4, 10980, Note_on_c, 2, 51, 0
4, 10980, Note_on_c, 2, 44, 64
4, 11040, Note_on_c, 2, 44, 0
4, 11070, Note_on_c, 2, 44, 64
4, 11100, Note_on_c, 2, 44, 0
4, 11100, Note_on_c, 2, 56, 64
4, 11130, Note_on_c, 2, 56, 0
4, 11130, Note_on_c, 2, 54, 64
4, 11190, Note_on_c, 2, 54, 0
4, 11190, Note_on_c, 2, 52, 64
4, 11250, Note_on_c, 2, 52, 0
4, 11250, Note_on_c, 2, 51, 64
4, 11310, Note_on_c, 2, 51, 0
4, 11310, Note_on_c, 2, 50, 64
4, 11370, Note_on_c, 2, 50, 0
4, 11370, Note_on_c, 2, 49, 64
4, 11430, Note_on_c, 2, 49, 0
4, 11430, Note_on_c, 2, 47, 64
4, 11490, Note_on_c, 2, 47, 0
4, 11490, Note_on_c, 2, 45, 64
4, 11520, Note_on_c, 2, 45, 0
4, 11520, Note_on_c, 2, 45, 64
4, 11550, Note_on_c, 2, 45, 0
4, 11550, Note_on_c, 2, 44, 64
4, 11610, Note_on_c, 2, 44, 0
4, 11610, Note_on_c, 2, 42, 64
4, 11670, Note_on_c, 2, 42, 0
4, 11670, Note_on_c, 2, 44, 64
4, 11685, Note_on_c, 2, 44, 0
4, 11685, Note_on_c, 2, 45, 64
4, 11690, Control_c, 2, 7, 70
4, 11700, Note_on_c, 2, 45, 0
4, 11700, Note_on_c, 2, 44, 64
4, 11716, Control_c, 2, 7, 71
4, 11730, Note_on_c, 2, 44, 0
4, 11730, Note_on_c, 2, 47, 64
4, 11740, Control_c, 2, 7, 72
4, 11745, Note_on_c, 2, 47, 0
4, 11745, Note_on_c, 2, 45, 64
4, 11760, Note_on_c, 2, 45, 0
4, 11760, Note_on_c, 2, 47, 64
4, 11763, Control_c, 2, 7, 73
4, 11786, Control_c, 2, 7, 74
4, 11790, Note_on_c, 2, 47, 0
4, 11790, Note_on_c, 2, 44, 64
4, 11805, Note_on_c, 2, 44, 0
4, 11805, Note_on_c, 2, 42, 64
4, 11810, Control_c, 2, 7, 75
4, 11820, Note_on_c, 2, 42, 0
4, 11820, Note_on_c, 2, 44, 64
4, 11833, Control_c, 2, 7, 76
4, 11850, Note_on_c, 2, 44, 0
4, 11850, Note_on_c, 2, 40, 64
4, 11860, Control_c, 2, 7, 77
4, 11865, Note_on_c, 2, 40, 0
4, 11865, Note_on_c, 2, 39, 64
4, 11880, Note_on_c, 2, 39, 0
4, 11880, Note_on_c, 2, 40, 64
4, 11883, Control_c, 2, 7, 78
4, 11906, Control_c, 2, 7, 79
4, 11930, Control_c, 2, 7, 80
4, 11940, Note_on_c, 2, 40, 0
4, 11940, Note_on_c, 2, 42, 64
4, 11953, Control_c, 2, 7, 81
4, 11976, Control_c, 2, 7, 82
4, 12000, Note_on_c, 2, 42, 0
4, 12000, Note_on_c, 2, 44, 64
4, 12000, Control_c, 2, 7, 83
4, 12060, Note_on_c, 2, 44, 0
4, 12060, Note_on_c, 2, 45, 64
4, 12120, Note_on_c, 2, 45, 0
4, 12120, Note_on_c, 2, 47, 64
4, 12170, Control_c, 2, 7, 78
4, 12180, Note_on_c, 2, 47, 0
4, 12180, Note_on_c, 2, 49, 64
4, 12193, Control_c, 2, 7, 77
4, 12213, Control_c, 2, 7, 76
4, 12236, Control_c, 2, 7, 75
4, 12240, Note_on_c, 2, 49, 0
4, 12240, Note_on_c, 2, 51, 64
4, 12256, Control_c, 2, 7, 74
4, 12280, Control_c, 2, 7, 73
4, 12300, Note_on_c, 2, 51, 0
4, 12300, Note_on_c, 2, 52, 64
4, 12300, Control_c, 2, 7, 72
4, 12323, Control_c, 2, 7, 71
4, 12330, Note_on_c, 2, 52, 0
4, 12330, Note_on_c, 2, 51, 64
4, 12343, Control_c, 2, 7, 70
4, 12360, Note_on_c, 2, 51, 0
4, 12360, Note_on_c, 2, 49, 64
4, 12366, Control_c, 2, 7, 69
4, 12386, Control_c, 2, 7, 68
4, 12390, Note_on_c, 2, 49, 0
4, 12390, Note_on_c, 2, 47, 64
4, 12406, Control_c, 2, 7, 67
4, 12420, Note_on_c, 2, 47, 0
4, 12420, Note_on_c, 2, 52, 64
4, 12510, Note_on_c, 2, 52, 0
4, 12510, Note_on_c, 2, 59, 64
4, 12525, Note_on_c, 2, 59, 0
4, 12525, Note_on_c, 2, 57, 64
4, 12540, Note_on_c, 2, 57, 0
4, 12540, Note_on_c, 2, 59, 64
4, 12570, Note_on_c, 2, 59, 0
4, 12570, Note_on_c, 2, 56, 64
4, 12585, Note_on_c, 2, 56, 0
4, 12585, Note_on_c, 2, 54, 64
4, 12600, Note_on_c, 2, 54, 0
4, 12600, Note_on_c, 2, 56, 64
4, 12630, Note_on_c, 2, 56, 0
4, 12630, Note_on_c, 2, 61, 64
4, 12690, Note_on_c, 2, 61, 0
4, 12690, Note_on_c, 2, 57, 64
4, 12750, Note_on_c, 2, 57, 0
4, 12750, Note_on_c, 2, 54, 64
4, 12783, Control_c, 2, 7, 66
4, 12803, Control_c, 2, 7, 67
4, 12810, Note_on_c, 2, 54, 0
4, 12810, Note_on_c, 2, 57, 64
4, 12820, Control_c, 2, 7, 68
4, 12825, Note_on_c, 2, 57, 0
4, 12825, Note_on_c, 2, 56, 64
4, 12840, Note_on_c, 2, 56, 0
4, 12840, Note_on_c, 2, 57, 64
4, 12840, Control_c, 2, 7, 69
4, 12856, Control_c, 2, 7, 70
4, 12870, Note_on_c, 2, 57, 0
4, 12870, Note_on_c, 2, 54, 64
4, 12873, Control_c, 2, 7, 71
4, 12893, Control_c, 2, 7, 72
4, 12900, Note_on_c, 2, 54, 0
4, 12900, Note_on_c, 2, 51, 64
4, 12910, Control_c, 2, 7, 73
4, 12926, Control_c, 2, 7, 74
4, 12930, Note_on_c, 2, 51, 0
4, 12930, Note_on_c, 2, 47, 64
4, 12946, Control_c, 2, 7, 75
4, 12963, Control_c, 2, 7, 76
4, 12983, Control_c, 2, 7, 77
4, 12990, Note_on_c, 2, 47, 0
4, 12990, Note_on_c, 2, 59, 64
4, 13000, Control_c, 2, 7, 78
4, 13016, Control_c, 2, 7, 79
4, 13036, Control_c, 2, 7, 80
4, 13050, Note_on_c, 2, 59, 0
4, 13050, Note_on_c, 2, 56, 64
4, 13053, Control_c, 2, 7, 81
4, 13070, Control_c, 2, 7, 82
4, 13090, Control_c, 2, 7, 83
4, 13106, Control_c, 2, 7, 84
4, 13110, Note_on_c, 2, 56, 0
4, 13110, Note_on_c, 2, 52, 64
4, 13123, Control_c, 2, 7, 85
4, 13143, Control_c, 2, 7, 86
4, 13160, Control_c, 2, 7, 87
4, 13170, Note_on_c, 2, 52, 0
4, 13170, Note_on_c, 2, 57, 64
4, 13180, Control_c, 2, 7, 88
4, 13185, Note_on_c, 2, 57, 0
4, 13185, Note_on_c, 2, 56, 64
4, 13196, Control_c, 2, 7, 89
4, 13200, Note_on_c, 2, 56, 0
4, 13200, Note_on_c, 2, 57, 64
4, 13213, Control_c, 2, 7, 90
4, 13230, Note_on_c, 2, 57, 0
4, 13230, Note_on_c, 2, 52, 64
4, 13233, Control_c, 2, 7, 91
4, 13250, Control_c, 2, 7, 92
4, 13260, Note_on_c, 2, 52, 0
4, 13260, Note_on_c, 2, 49, 64
4, 13266, Control_c, 2, 7, 93
4, 13286, Control_c, 2, 7, 94
4, 13290, Note_on_c, 2, 49, 0
4, 13290, Note_on_c, 2, 45, 64
4, 13303, Control_c, 2, 7, 95
4, 13320, Control_c, 2, 7, 96
4, 13340, Control_c, 2, 7, 97
4, 13350, Note_on_c, 2, 45, 0
4, 13350, Note_on_c, 2, 57, 64
4, 13356, Control_c, 2, 7, 98
4, 13376, Control_c, 2, 7, 99
4, 13393, Control_c, 2, 7, 100
4, 13410, Note_on_c, 2, 57, 0
4, 13410, Note_on_c, 2, 54, 64
4, 13410, Control_c, 2, 7, 101
4, 13430, Control_c, 2, 7, 102
4, 13446, Control_c, 2, 7, 103
4, 13463, Control_c, 2, 7, 104
4, 13470, Note_on_c, 2, 54, 0
4, 13470, Note_on_c, 2, 51, 64
4, 13483, Control_c, 2, 7, 105
4, 13500, Control_c, 2, 7, 106
4, 13516, Control_c, 2, 7, 107
4, 13530, Note_on_c, 2, 51, 0
4, 13530, Note_on_c, 2, 61, 64
4, 13590, Note_on_c, 2, 61, 0
4, 13590, Note_on_c, 2, 59, 64
4, 13613, Control_c, 2, 7, 104
4, 13646, Control_c, 2, 7, 103
4, 13650, Note_on_c, 2, 59, 0
4, 13650, Note_on_c, 2, 57, 64
4, 13680, Control_c, 2, 7, 102
4, 13710, Note_on_c, 2, 57, 0
4, 13710, Note_on_c, 2, 56, 64
4, 13713, Control_c, 2, 7, 101
4, 13746, Control_c, 2, 7, 100
4, 13770, Note_on_c, 2, 56, 0
4, 13770, Note_on_c, 2, 54, 64
4, 13776, Control_c, 2, 7, 99
4, 13810, Control_c, 2, 7, 98
4, 13830, Note_on_c, 2, 54, 0
4, 13830, Note_on_c, 2, 52, 64
4, 13843, Control_c, 2, 7, 97
4, 13860, Note_on_c, 2, 52, 0
4, 13860, Note_on_c, 2, 51, 64
4, 13876, Control_c, 2, 7, 96
4, 13890, Note_on_c, 2, 51, 0
4, 13890, Note_on_c, 2, 57, 64
4, 13905, Note_on_c, 2, 57, 0
4, 13905, Note_on_c, 2, 56, 64
4, 13910, Control_c, 2, 7, 95
4, 13920, Note_on_c, 2, 56, 0
4, 13920, Note_on_c, 2, 57, 64
4, 13940, Control_c, 2, 7, 94
4, 13950, Note_on_c, 2, 57, 0
4, 13950, Note_on_c, 2, 51, 64
4, 13965, Note_on_c, 2, 51, 0
4, 13965, Note_on_c, 2, 49, 64
4, 13973, Control_c, 2, 7, 93
4, 13980, Note_on_c, 2, 49, 0
4, 13980, Note_on_c, 2, 51, 64
4, 14006, Control_c, 2, 7, 92
4, 14010, Note_on_c, 2, 51, 0
4, 14010, Note_on_c, 2, 56, 64
4, 14025, Note_on_c, 2, 56, 0
4, 14025, Note_on_c, 2, 54, 64
4, 14040, Note_on_c, 2, 54, 0
4, 14040, Note_on_c, 2, 56, 64
4, 14040, Control_c, 2, 7, 91
4, 14073, Control_c, 2, 7, 90
4, 14100, Note_on_c, 2, 56, 0
4, 14100, Note_on_c, 2, 57, 64
4, 14103, Control_c, 2, 7, 89
4, 14136, Control_c, 2, 7, 88
4, 14160, Note_on_c, 2, 57, 0
4, 14160, Note_on_c, 2, 59, 64
4, 14170, Control_c, 2, 7, 87
4, 14203, Control_c, 2, 7, 86
4, 14220, Note_on_c, 2, 59, 0
4, 14220, Note_on_c, 2, 52, 64
4, 14233, Control_c, 2, 7, 85
4, 14280, Note_on_c, 2, 52, 0
4, 14310, Note_on_c, 2, 64, 64
4, 14340, Note_on_c, 2, 64, 0
4, 14340, Note_on_c, 2, 59, 64
4, 14370, Note_on_c, 2, 59, 0
4, 14370, Note_on_c, 2, 56, 64
4, 14400, Note_on_c, 2, 56, 0
4, 14400, Note_on_c, 2, 52, 64
4, 14430, Note_on_c, 2, 52, 0
4, 14430, Note_on_c, 2, 59, 64
4, 14460, Note_on_c, 2, 59, 0
4, 14460, Note_on_c, 2, 56, 64
4, 14490, Note_on_c, 2, 56, 0
4, 14490, Note_on_c, 2, 52, 64
4, 14520, Note_on_c, 2, 52, 0
4, 14520, Note_on_c, 2, 47, 64
4, 14550, Note_on_c, 2, 47, 0
4, 14550, Note_on_c, 2, 44, 64
4, 14580, Note_on_c, 2, 44, 0
4, 14580, Note_on_c, 2, 40, 64
4, 14700, Note_on_c, 2, 40, 0
4, 14700, Note_on_c, 2, 52, 64
4, 14760, Note_on_c, 2, 52, 0
4, 14790, Note_on_c, 2, 59, 64
4, 14850, Note_on_c, 2, 59, 0
4, 14850, Note_on_c, 2, 58, 64
4, 14910, Note_on_c, 2, 58, 0
4, 14910, Note_on_c, 2, 57, 64
4, 14936, Control_c, 2, 7, 80
4, 14962, Control_c, 2, 7, 81
4, 14970, Note_on_c, 2, 57, 0
4, 14970, Note_on_c, 2, 56, 64
4, 14989, Control_c, 2, 7, 82
4, 15016, Control_c, 2, 7, 83
4, 15030, Note_on_c, 2, 56, 0
4, 15030, Note_on_c, 2, 54, 64
4, 15042, Control_c, 2, 7, 84
4, 15066, Control_c, 2, 7, 85
4, 15090, Note_on_c, 2, 54, 0
4, 15090, Note_on_c, 2, 52, 64
4, 15092, Control_c, 2, 7, 86
4, 15119, Control_c, 2, 7, 87
4, 15146, Control_c, 2, 7, 88
4, 15150, Note_on_c, 2, 52, 0
4, 15150, Note_on_c, 2, 51, 64
4, 15169, Control_c, 2, 7, 89
4, 15196, Control_c, 2, 7, 90
4, 15210, Note_on_c, 2, 51, 0
4, 15210, Note_on_c, 2, 49, 64
4, 15222, Control_c, 2, 7, 91
4, 15249, Control_c, 2, 7, 92
4, 15270, Note_on_c, 2, 49, 0
4, 15270, Note_on_c, 2, 51, 64
4, 15272, Control_c, 2, 7, 93
4, 15285, Note_on_c, 2, 51, 0
4, 15285, Note_on_c, 2, 52, 64
4, 15300, Note_on_c, 2, 52, 0
4, 15300, Note_on_c, 2, 51, 64
4, 15302, Control_c, 2, 7, 93
4, 15322, Control_c, 2, 7, 92
4, 15330, Note_on_c, 2, 51, 0
4, 15330, Note_on_c, 2, 54, 64
4, 15339, Control_c, 2, 7, 91
4, 15345, Note_on_c, 2, 54, 0
4, 15345, Note_on_c, 2, 52, 64
4, 15356, Control_c, 2, 7, 90
4, 15360, Note_on_c, 2, 52, 0
4, 15360, Note_on_c, 2, 54, 64
4, 15372, Control_c, 2, 7, 89
4, 15390, Note_on_c, 2, 54, 0
4, 15390, Note_on_c, 2, 51, 64
4, 15392, Control_c, 2, 7, 88
4, 15405, Note_on_c, 2, 51, 0
4, 15405, Note_on_c, 2, 49, 64
4, 15409, Control_c, 2, 7, 87
4, 15420, Note_on_c, 2, 49, 0
4, 15420, Note_on_c, 2, 51, 64
4, 15426, Control_c, 2, 7, 86
4, 15442, Control_c, 2, 7, 85
4, 15450, Note_on_c, 2, 51, 0
4, 15450, Note_on_c, 2, 47, 64
4, 15462, Control_c, 2, 7, 84
4, 15465, Note_on_c, 2, 47, 0
4, 15465, Note_on_c, 2, 46, 64
4, 15479, Control_c, 2, 7, 83
4, 15480, Note_on_c, 2, 46, 0
4, 15480, Note_on_c, 2, 47, 64
4, 15496, Control_c, 2, 7, 82
4, 15512, Control_c, 2, 7, 81
4, 15532, Control_c, 2, 7, 80
4, 15540, Note_on_c, 2, 47, 0
4, 15540, Note_on_c, 2, 49, 64
4, 15549, Control_c, 2, 7, 79
4, 15566, Control_c, 2, 7, 78
4, 15582, Control_c, 2, 7, 77
4, 15600, Note_on_c, 2, 49, 0
4, 15600, Note_on_c, 2, 51, 64
4, 15602, Control_c, 2, 7, 76
4, 15619, Control_c, 2, 7, 75
4, 15636, Control_c, 2, 7, 74
4, 15652, Control_c, 2, 7, 73
4, 15660, Note_on_c, 2, 51, 0
4, 15660, Note_on_c, 2, 52, 64
4, 15686, Control_c, 2, 7, 73
4, 15706, Control_c, 2, 7, 74
4, 15720, Note_on_c, 2, 52, 0
4, 15720, Note_on_c, 2, 54, 64
4, 15726, Control_c, 2, 7, 75
4, 15742, Control_c, 2, 7, 76
4, 15762, Control_c, 2, 7, 77
4, 15779, Control_c, 2, 7, 78
4, 15780, Note_on_c, 2, 54, 0
4, 15780, Note_on_c, 2, 56, 64
4, 15799, Control_c, 2, 7, 79
4, 15819, Control_c, 2, 7, 80
4, 15836, Control_c, 2, 7, 81
4, 15840, Note_on_c, 2, 56, 0
4, 15840, Note_on_c, 2, 58, 64
4, 15856, Control_c, 2, 7, 82
4, 15872, Control_c, 2, 7, 83
4, 15892, Control_c, 2, 7, 84
4, 15900, Note_on_c, 2, 58, 0
4, 15900, Note_on_c, 2, 59, 64
4, 15912, Control_c, 2, 7, 85
4, 15929, Control_c, 2, 7, 86
4, 15930, Note_on_c, 2, 59, 0
4, 15930, Note_on_c, 2, 58, 64
4, 15949, Control_c, 2, 7, 87
4, 15960, Note_on_c, 2, 58, 0
4, 15960, Note_on_c, 2, 56, 64
4, 15966, Control_c, 2, 7, 88
4, 15986, Control_c, 2, 7, 89
4, 15990, Note_on_c, 2, 56, 0
4, 15990, Note_on_c, 2, 54, 64
4, 16002, Control_c, 2, 7, 90
4, 16020, Note_on_c, 2, 54, 0
4, 16020, Note_on_c, 2, 59, 64
4, 16032, Control_c, 2, 7, 87
4, 16056, Control_c, 2, 7, 86
4, 16076, Control_c, 2, 7, 85
4, 16080, Note_on_c, 2, 59, 0
4, 16080, Note_on_c, 2, 47, 64
4, 16096, Control_c, 2, 7, 84
4, 16116, Control_c, 2, 7, 83
4, 16136, Control_c, 2, 7, 82
4, 16140, Note_on_c, 2, 47, 0
4, 16156, Control_c, 2, 7, 81
4, 16176, Control_c, 2, 7, 80
4, 16196, Control_c, 2, 7, 79
4, 16200, Note_on_c, 2, 44, 64
4, 16216, Control_c, 2, 7, 78
4, 16236, Control_c, 2, 7, 77
4, 16256, Control_c, 2, 7, 76
4, 16260, Note_on_c, 2, 44, 0
4, 16260, Note_on_c, 2, 47, 64
4, 16276, Control_c, 2, 7, 75
4, 16296, Control_c, 2, 7, 74
4, 16316, Control_c, 2, 7, 73
4, 16320, Note_on_c, 2, 47, 0
4, 16320, Note_on_c, 2, 51, 64
4, 16336, Control_c, 2, 7, 72
4, 16356, Control_c, 2, 7, 71
4, 16380, Note_on_c, 2, 51, 0
4, 16380, Note_on_c, 2, 43, 64
4, 16440, Note_on_c, 2, 43, 0
4, 16440, Note_on_c, 2, 46, 64
4, 16500, Note_on_c, 2, 46, 0
4, 16500, Note_on_c, 2, 51, 64
4, 16560, Note_on_c, 2, 51, 0
4, 16560, Note_on_c, 2, 44, 64
4, 16620, Note_on_c, 2, 44, 0
4, 16620, Note_on_c, 2, 47, 64
4, 16680, Note_on_c, 2, 47, 0
4, 16680, Note_on_c, 2, 51, 64
4, 16740, Note_on_c, 2, 51, 0
4, 16740, Note_on_c, 2, 39, 64
4, 16800, Note_on_c, 2, 39, 0
4, 16800, Note_on_c, 2, 51, 64
4, 16860, Note_on_c, 2, 51, 0
4, 16860, Note_on_c, 2, 49, 64
4, 16920, Note_on_c, 2, 49, 0
4, 16920, Note_on_c, 2, 48, 64
4, 16980, Note_on_c, 2, 48, 0
4, 16980, Note_on_c, 2, 49, 64
4, 17040, Note_on_c, 2, 49, 0
4, 17040, Note_on_c, 2, 51, 64
4, 17100, Note_on_c, 2, 51, 0
4, 17100, Note_on_c, 2, 44, 64
4, 17106, Control_c, 2, 7, 77
4, 17139, Control_c, 2, 7, 78
4, 17160, Note_on_c, 2, 44, 0
4, 17160, Note_on_c, 2, 49, 64
4, 17172, Control_c, 2, 7, 79
4, 17206, Control_c, 2, 7, 80
4, 17220, Note_on_c, 2, 49, 0
4, 17220, Note_on_c, 2, 47, 64
4, 17239, Control_c, 2, 7, 81
4, 17272, Control_c, 2, 7, 82
4, 17280, Note_on_c, 2, 47, 0
4, 17280, Note_on_c, 2, 46, 64
4, 17306, Control_c, 2, 7, 83
4, 17339, Control_c, 2, 7, 84
4, 17340, Note_on_c, 2, 46, 0
4, 17340, Note_on_c, 2, 47, 64
4, 17372, Control_c, 2, 7, 85
4, 17400, Note_on_c, 2, 47, 0
4, 17400, Note_on_c, 2, 49, 64
4, 17406, Control_c, 2, 7, 86
4, 17439, Control_c, 2, 7, 87
4, 17460, Note_on_c, 2, 49, 0
4, 17460, Note_on_c, 2, 42, 64
4, 17472, Control_c, 2, 7, 88
4, 17506, Control_c, 2, 7, 89
4, 17520, Note_on_c, 2, 42, 0
4, 17520, Note_on_c, 2, 47, 64
4, 17539, Control_c, 2, 7, 90
4, 17572, Control_c, 2, 7, 91
4, 17580, Note_on_c, 2, 47, 0
4, 17580, Note_on_c, 2, 51, 64
4, 17606, Control_c, 2, 7, 92
4, 17639, Control_c, 2, 7, 93
4, 17640, Note_on_c, 2, 51, 0
4, 17640, Note_on_c, 2, 43, 64
4, 17672, Control_c, 2, 7, 94
4, 17700, Note_on_c, 2, 43, 0
4, 17700, Note_on_c, 2, 44, 64
4, 17706, Control_c, 2, 7, 95
4, 17739, Control_c, 2, 7, 96
4, 17760, Note_on_c, 2, 44, 0
4, 17760, Note_on_c, 2, 46, 64
4, 17772, Control_c, 2, 7, 97
4, 17806, Control_c, 2, 7, 98
4, 17820, Note_on_c, 2, 46, 0
4, 17820, Note_on_c, 2, 39, 64
4, 17839, Control_c, 2, 7, 99
4, 17872, Control_c, 2, 7, 100
4, 17880, Note_on_c, 2, 39, 0
4, 17880, Note_on_c, 2, 44, 64
4, 17906, Control_c, 2, 7, 101
4, 17939, Control_c, 2, 7, 102
4, 17940, Note_on_c, 2, 44, 0
4, 17940, Note_on_c, 2, 47, 64
4, 17972, Control_c, 2, 7, 103
4, 18000, Note_on_c, 2, 47, 0
4, 18000, Note_on_c, 2, 37, 64
4, 18006, Control_c, 2, 7, 104
4, 18039, Control_c, 2, 7, 105
4, 18060, Note_on_c, 2, 37, 0
4, 18072, Control_c, 2, 7, 106
4, 18106, Control_c, 2, 7, 107
4, 18120, Note_on_c, 2, 61, 64
4, 18139, Control_c, 2, 7, 108
4, 18172, Control_c, 2, 7, 109
4, 18206, Control_c, 2, 7, 110
4, 18240, Note_on_c, 2, 61, 0
4, 18240, Note_on_c, 2, 58, 64
4, 18300, Note_on_c, 2, 58, 0
4, 18300, Note_on_c, 2, 55, 64
4, 18360, Note_on_c, 2, 55, 0
4, 18360, Note_on_c, 2, 56, 64
4, 18420, Note_on_c, 2, 56, 0
4, 18420, Note_on_c, 2, 49, 64
4, 18480, Note_on_c, 2, 49, 0
4, 18480, Note_on_c, 2, 51, 64
4, 18540, Note_on_c, 2, 51, 0
4, 18540, Note_on_c, 2, 44, 64
4, 18546, Control_c, 2, 7, 105
4, 18572, Control_c, 2, 7, 104
4, 18596, Control_c, 2, 7, 103
4, 18600, Note_on_c, 2, 44, 0
4, 18619, Control_c, 2, 7, 102
4, 18630, Note_on_c, 2, 44, 64
4, 18642, Control_c, 2, 7, 101
4, 18660, Note_on_c, 2, 44, 0
4, 18660, Note_on_c, 2, 56, 64
4, 18666, Control_c, 2, 7, 100
4, 18689, Control_c, 2, 7, 99
4, 18690, Note_on_c, 2, 56, 0
4, 18690, Note_on_c, 2, 54, 64
4, 18712, Control_c, 2, 7, 98
4, 18736, Control_c, 2, 7, 97
4, 18750, Note_on_c, 2, 54, 0
4, 18750, Note_on_c, 2, 52, 64
4, 18759, Control_c, 2, 7, 96
4, 18782, Control_c, 2, 7, 95
4, 18806, Control_c, 2, 7, 94
4, 18810, Note_on_c, 2, 52, 0
4, 18810, Note_on_c, 2, 51, 64
4, 18829, Control_c, 2, 7, 93
4, 18852, Control_c, 2, 7, 92
4, 18870, Note_on_c, 2, 51, 0
4, 18870, Note_on_c, 2, 50, 64
4, 18876, Control_c, 2, 7, 91
4, 18930, Note_on_c, 2, 50, 0
4, 18930, Note_on_c, 2, 49, 64
4, 18990, Note_on_c, 2, 49, 0
4, 18990, Note_on_c, 2, 47, 64
4, 19050, Note_on_c, 2, 47, 0
4, 19050, Note_on_c, 2, 45, 64
4, 19080, Note_on_c, 2, 45, 0
4, 19080, Note_on_c, 2, 45, 64
4, 19110, Note_on_c, 2, 45, 0
4, 19110, Note_on_c, 2, 44, 64
4, 19170, Note_on_c, 2, 44, 0
4, 19170, Note_on_c, 2, 42, 64
4, 19230, Note_on_c, 2, 42, 0
4, 19230, Note_on_c, 2, 44, 64
4, 19245, Note_on_c, 2, 44, 0
4, 19245, Note_on_c, 2, 45, 64
4, 19260, Note_on_c, 2, 45, 0
4, 19260, Note_on_c, 2, 44, 64
4, 19290, Note_on_c, 2, 44, 0
4, 19290, Note_on_c, 2, 47, 64
4, 19305, Note_on_c, 2, 47, 0
4, 19305, Note_on_c, 2, 45, 64
4, 19320, Note_on_c, 2, 45, 0
4, 19320, Note_on_c, 2, 47, 64
4, 19350, Note_on_c, 2, 47, 0
4, 19350, Note_on_c, 2, 44, 64
4, 19365, Note_on_c, 2, 44, 0
4, 19365, Note_on_c, 2, 42, 64
4, 19380, Note_on_c, 2, 42, 0
4, 19380, Note_on_c, 2, 44, 64
4, 19410, Note_on_c, 2, 44, 0
4, 19410, Note_on_c, 2, 40, 64
4, 19425, Note_on_c, 2, 40, 0
4, 19425, Note_on_c, 2, 39, 64
4, 19440, Note_on_c, 2, 39, 0
4, 19440, Note_on_c, 2, 40, 64
4, 19452, Control_c, 2, 7, 76
4, 19476, Control_c, 2, 7, 77
4, 19499, Control_c, 2, 7, 78
4, 19500, Note_on_c, 2, 40, 0
4, 19500, Note_on_c, 2, 42, 64
4, 19560, Note_on_c, 2, 42, 0
4, 19560, Note_on_c, 2, 44, 64
4, 19620, Note_on_c, 2, 44, 0
4, 19620, Note_on_c, 2, 45, 64
4, 19680, Note_on_c, 2, 45, 0
4, 19680, Note_on_c, 2, 47, 64
4, 19740, Note_on_c, 2, 47, 0
4, 19740, Note_on_c, 2, 49, 64
4, 19800, Note_on_c, 2, 49, 0
4, 19800, Note_on_c, 2, 51, 64
4, 19860, Note_on_c, 2, 51, 0
4, 19860, Note_on_c, 2, 52, 64
4, 19890, Note_on_c, 2, 52, 0
4, 19890, Note_on_c, 2, 51, 64
4, 19920, Note_on_c, 2, 51, 0
4, 19920, Note_on_c, 2, 49, 64
4, 19950, Note_on_c, 2, 49, 0
4, 19950, Note_on_c, 2, 47, 64
4, 19980, Note_on_c, 2, 47, 0
4, 19980, Note_on_c, 2, 52, 64
4, 20070, Note_on_c, 2, 52, 0
4, 20070, Note_on_c, 2, 59, 64
4, 20085, Note_on_c, 2, 59, 0
4, 20085, Note_on_c, 2, 57, 64
4, 20100, Note_on_c, 2, 57, 0
4, 20100, Note_on_c, 2, 59, 64
4, 20130, Note_on_c, 2, 59, 0
4, 20130, Note_on_c, 2, 56, 64
4, 20145, Note_on_c, 2, 56, 0
4, 20145, Note_on_c, 2, 54, 64
4, 20160, Note_on_c, 2, 54, 0
4, 20160, Note_on_c, 2, 56, 64
4, 20190, Note_on_c, 2, 56, 0
4, 20190, Note_on_c, 2, 61, 64
4, 20250, Note_on_c, 2, 61, 0
4, 20250, Note_on_c, 2, 57, 64
4, 20310, Note_on_c, 2, 57, 0
4, 20310, Note_on_c, 2, 54, 64
4, 20370, Note_on_c, 2, 54, 0
4, 20370, Note_on_c, 2, 57, 64
4, 20385, Note_on_c, 2, 57, 0
4, 20385, Note_on_c, 2, 56, 64
4, 20400, Note_on_c, 2, 56, 0
4, 20400, Note_on_c, 2, 57, 64
4, 20430, Note_on_c, 2, 57, 0
4, 20430, Note_on_c, 2, 54, 64
4, 20460, Note_on_c, 2, 54, 0
4, 20460, Note_on_c, 2, 51, 64
4, 20490, Note_on_c, 2, 51, 0
4, 20490, Note_on_c, 2, 47, 64
4, 20550, Note_on_c, 2, 47, 0
4, 20550, Note_on_c, 2, 59, 64
4, 20610, Note_on_c, 2, 59, 0
4, 20610, Note_on_c, 2, 56, 64
4, 20670, Note_on_c, 2, 56, 0
4, 20670, Note_on_c, 2, 52, 64
4, 20730, Note_on_c, 2, 52, 0
4, 20730, Note_on_c, 2, 57, 64
4, 20745, Note_on_c, 2, 57, 0
4, 20745, Note_on_c, 2, 56, 64
4, 20760, Note_on_c, 2, 56, 0
4, 20760, Note_on_c, 2, 57, 64
4, 20790, Note_on_c, 2, 57, 0
4, 20790, Note_on_c, 2, 52, 64
4, 20820, Note_on_c, 2, 52, 0
4, 20820, Note_on_c, 2, 49, 64
4, 20850, Note_on_c, 2, 49, 0
4, 20850, Note_on_c, 2, 45, 64
4, 20879, Control_c, 2, 7, 75
4, 20902, Control_c, 2, 7, 76
4, 20910, Note_on_c, 2, 45, 0
4, 20910, Note_on_c, 2, 57, 64
4, 20922, Control_c, 2, 7, 77
4, 20946, Control_c, 2, 7, 78
4, 20966, Control_c, 2, 7, 79
4, 20970, Note_on_c, 2, 57, 0
4, 20970, Note_on_c, 2, 54, 64
4, 20986, Control_c, 2, 7, 80
4, 21009, Control_c, 2, 7, 81
4, 21029, Control_c, 2, 7, 82
4, 21030, Note_on_c, 2, 54, 0
4, 21030, Note_on_c, 2, 51, 64
4, 21052, Control_c, 2, 7, 83
4, 21072, Control_c, 2, 7, 84
4, 21090, Note_on_c, 2, 51, 0
4, 21090, Note_on_c, 2, 61, 64
4, 21092, Control_c, 2, 7, 85
4, 21116, Control_c, 2, 7, 86
4, 21136, Control_c, 2, 7, 87
4, 21150, Note_on_c, 2, 61, 0
4, 21150, Note_on_c, 2, 59, 64
4, 21156, Control_c, 2, 7, 88
4, 21179, Control_c, 2, 7, 89
4, 21199, Control_c, 2, 7, 90
4, 21210, Note_on_c, 2, 59, 0
4, 21210, Note_on_c, 2, 57, 64
4, 21222, Control_c, 2, 7, 91
4, 21242, Control_c, 2, 7, 92
4, 21262, Control_c, 2, 7, 93
4, 21270, Note_on_c, 2, 57, 0
4, 21270, Note_on_c, 2, 56, 64
4, 21286, Control_c, 2, 7, 94
4, 21306, Control_c, 2, 7, 95
4, 21329, Control_c, 2, 7, 96
4, 21330, Note_on_c, 2, 56, 0
4, 21330, Note_on_c, 2, 54, 64
4, 21349, Control_c, 2, 7, 97
4, 21369, Control_c, 2, 7, 98
4, 21390, Note_on_c, 2, 54, 0
4, 21390, Note_on_c, 2, 52, 64
4, 21392, Control_c, 2, 7, 99
4, 21412, Control_c, 2, 7, 100
4, 21420, Note_on_c, 2, 52, 0
4, 21420, Note_on_c, 2, 51, 64
4, 21432, Control_c, 2, 7, 101
4, 21450, Note_on_c, 2, 51, 0
4, 21450, Note_on_c, 2, 57, 64
4, 21456, Control_c, 2, 7, 102
4, 21465, Note_on_c, 2, 57, 0
4, 21465, Note_on_c, 2, 56, 64
4, 21476, Control_c, 2, 7, 103
4, 21480, Note_on_c, 2, 56, 0
4, 21480, Note_on_c, 2, 57, 64
4, 21499, Control_c, 2, 7, 104
4, 21510, Note_on_c, 2, 57, 0
4, 21510, Note_on_c, 2, 51, 64
4, 21519, Control_c, 2, 7, 105
4, 21525, Note_on_c, 2, 51, 0
4, 21525, Note_on_c, 2, 49, 64
4, 21539, Control_c, 2, 7, 106
4, 21540, Note_on_c, 2, 49, 0
4, 21540, Note_on_c, 2, 51, 64
4, 21562, Control_c, 2, 7, 107
4, 21570, Note_on_c, 2, 51, 0
4, 21570, Note_on_c, 2, 56, 64
4, 21582, Control_c, 2, 7, 108
4, 21585, Note_on_c, 2, 56, 0
4, 21585, Note_on_c, 2, 54, 64
4, 21600, Note_on_c, 2, 54, 0
4, 21600, Note_on_c, 2, 56, 64
4, 21602, Control_c, 2, 7, 107
4, 21639, Control_c, 2, 7, 106
4, 21660, Note_on_c, 2, 56, 0
4, 21660, Note_on_c, 2, 57, 64
4, 21672, Control_c, 2, 7, 105
4, 21706, Control_c, 2, 7, 104
4, 21720, Note_on_c, 2, 57, 0
4, 21720, Note_on_c, 2, 59, 64
4, 21739, Control_c, 2, 7, 103
4, 21772, Control_c, 2, 7, 102
4, 21780, Note_on_c, 2, 59, 0
4, 21780, Note_on_c, 2, 52, 64
4, 21806, Control_c, 2, 7, 101
4, 21839, Control_c, 2, 7, 100
4, 21840, Note_on_c, 2, 52, 0
4, 21870, Note_on_c, 2, 64, 64
4, 21872, Control_c, 2, 7, 99
4, 21900, Note_on_c, 2, 64, 0
4, 21900, Note_on_c, 2, 59, 64
4, 21906, Control_c, 2, 7, 98
4, 21930, Note_on_c, 2, 59, 0
4, 21930, Note_on_c, 2, 56, 64
4, 21942, Control_c, 2, 7, 97
4, 21960, Note_on_c, 2, 56, 0
4, 21960, Note_on_c, 2, 52, 64
4, 21976, Control_c, 2, 7, 96
4, 21990, Note_on_c, 2, 52, 0
4, 21990, Note_on_c, 2, 59, 64
4, 22009, Control_c, 2, 7, 95
4, 22020, Note_on_c, 2, 59, 0
4, 22020, Note_on_c, 2, 56, 64
4, 22042, Control_c, 2, 7, 94
4, 22050, Note_on_c, 2, 56, 0
4, 22050, Note_on_c, 2, 52, 64
4, 22076, Control_c, 2, 7, 93
4, 22080, Note_on_c, 2, 52, 0
4, 22080, Note_on_c, 2, 47, 64
4, 22109, Control_c, 2, 7, 92
4, 22110, Note_on_c, 2, 47, 0
4, 22110, Note_on_c, 2, 44, 64
4, 22140, Note_on_c, 2, 44, 0
4, 22140, Note_on_c, 2, 40, 64
4, 22142, Control_c, 2, 7, 91
4, 22176, Control_c, 2, 7, 90
4, 22209, Control_c, 2, 7, 89
4, 22246, Control_c, 2, 7, 88
4, 22260, Note_on_c, 2, 40, 0
4, 22260, Note_on_c, 2, 52, 64
4, 22279, Control_c, 2, 7, 87
4, 22312, Control_c, 2, 7, 86
4, 22320, Note_on_c, 2, 52, 0
4, 22346, Control_c, 2, 7, 85
4, 22379, Control_c, 2, 7, 84
4, 22412, Control_c, 2, 7, 83
4, 22446, Control_c, 2, 7, 82
4, 22479, Control_c, 2, 7, 81
4, 22512, Control_c, 2, 7, 80
4, 22546, Control_c, 2, 7, 79
4, 22546, End_track
0, 0, End_of_file