0, 0, Header, 1, 4, 120
1, 0, Start_track
1, 0, Time_signature, 4, 2, 24, 8
1, 0, Key_signature, -2, "major"
1, 0, Tempo, 1333333
1, 0, Marker_t, "tpnvnt14.pc"
1, 0, Marker_t, "Staff:0 "
1, 8643, Tempo, 1333333
1, 8663, Tempo, 1348315
1, 8680, Tempo, 1363636
1, 8696, Tempo, 1379310
1, 8713, Tempo, 1395349
1, 8730, Tempo, 1411765
1, 8746, Tempo, 1428571
1, 8766, Tempo, 1445783
1, 8783, Tempo, 1463415
1, 8800, Tempo, 1481481
1, 8816, Tempo, 1500000
1, 8833, Tempo, 1518987
1, 8850, Tempo, 1538462
1, 8870, Tempo, 1558442
1, 8886, Tempo, 1578947
1, 8903, Tempo, 1600000
1, 8920, Tempo, 1621622
1, 8936, Tempo, 1643836
1, 8953, Tempo, 1666667
1, 8973, Tempo, 1690141
1, 8990, Tempo, 1714286
1, 9006, Tempo, 1739130
1, 9023, Tempo, 1764706
1, 9040, Tempo, 1791045
1, 9056, Tempo, 1818182
1, 9076, Tempo, 1846154
1, 9093, Tempo, 1875000
1, 9110, Tempo, 1904762
1, 9126, Tempo, 1935484
1, 9143, Tempo, 1967213
1, 9160, Tempo, 2000000
1, 9180, Tempo, 2033898
1, 9196, Tempo, 2068966
1, 9213, Tempo, 2105263
1, 9230, Tempo, 2142857
1, 9246, Tempo, 2181818
1, 9263, Tempo, 2222222
1, 9283, Tempo, 2264151
1, 9300, Tempo, 2307692
1, 9316, Tempo, 2352941
1, 9333, Tempo, 2400000
1, 9350, Tempo, 2448980
1, 9366, Tempo, 2500000
1, 9373, Tempo, 1967213
1, 9373, End_track
2, 0, Start_track
2, 0, MIDI_port, 0
2, 0, Title_t, "FLUTE"
2, 0, Program_c, 0, 0
2, 0, Control_c, 0, 7, 100
2, 0, Control_c, 0, 10, 40
2, 30, Note_on_c, 0, 70, 127
2, 30, Control_c, 0, 7, 113
2, 45, Note_on_c, 0, 70, 0
2, 45, Note_on_c, 0, 72, 127
2, 60, Note_on_c, 0, 72, 0
2, 60, Note_on_c, 0, 74, 127
2, 75, Note_on_c, 0, 74, 0
2, 75, Note_on_c, 0, 72, 127
2, 90, Note_on_c, 0, 72, 0
2, 90, Note_on_c, 0, 70, 127
2, 120, Note_on_c, 0, 70, 0
2, 120, Note_on_c, 0, 77, 127
2, 150, Note_on_c, 0, 77, 0
2, 150, Note_on_c, 0, 74, 127
2, 180, Note_on_c, 0, 74, 0
2, 180, Note_on_c, 0, 82, 127
2, 210, Note_on_c, 0, 82, 0
2, 210, Note_on_c, 0, 77, 127
2, 240, Note_on_c, 0, 77, 0
2, 240, Note_on_c, 0, 74, 127
2, 270, Note_on_c, 0, 74, 0
2, 270, Note_on_c, 0, 77, 127
2, 285, Note_on_c, 0, 77, 0
2, 285, Note_on_c, 0, 75, 127
2, 300, Note_on_c, 0, 75, 0
2, 300, Note_on_c, 0, 74, 127
2, 315, Note_on_c, 0, 74, 0
2, 315, Note_on_c, 0, 75, 127
2, 330, Note_on_c, 0, 75, 0
2, 330, Note_on_c, 0, 77, 127
2, 360, Note_on_c, 0, 77, 0
2, 360, Note_on_c, 0, 70, 127
2, 390, Note_on_c, 0, 70, 0
2, 390, Note_on_c, 0, 74, 127
2, 420, Note_on_c, 0, 74, 0
2, 420, Note_on_c, 0, 65, 127
2, 450, Note_on_c, 0, 65, 0
2, 450, Note_on_c, 0, 68, 127
2, 480, Note_on_c, 0, 68, 0
2, 480, Note_on_c, 0, 67, 127
2, 510, Note_on_c, 0, 67, 0
2, 510, Note_on_c, 0, 63, 127
2, 525, Note_on_c, 0, 63, 0
2, 525, Note_on_c, 0, 65, 127
2, 540, Note_on_c, 0, 65, 0
2, 540, Note_on_c, 0, 67, 127
2, 555, Note_on_c, 0, 67, 0
2, 555, Note_on_c, 0, 65, 127
2, 570, Note_on_c, 0, 65, 0
2, 570, Note_on_c, 0, 63, 127
2, 600, Note_on_c, 0, 63, 0
2, 600, Note_on_c, 0, 70, 127
2, 630, Note_on_c, 0, 70, 0
2, 630, Note_on_c, 0, 67, 127
2, 660, Note_on_c, 0, 67, 0
2, 660, Note_on_c, 0, 75, 127
2, 690, Note_on_c, 0, 75, 0
2, 690, Note_on_c, 0, 70, 127
2, 720, Note_on_c, 0, 70, 0
2, 720, Note_on_c, 0, 67, 127
2, 750, Note_on_c, 0, 67, 0
2, 750, Note_on_c, 0, 70, 127
2, 765, Note_on_c, 0, 70, 0
2, 765, Note_on_c, 0, 68, 127
2, 780, Note_on_c, 0, 68, 0
2, 780, Note_on_c, 0, 67, 127
2, 795, Note_on_c, 0, 67, 0
2, 795, Note_on_c, 0, 68, 127
2, 810, Note_on_c, 0, 68, 0
2, 810, Note_on_c, 0, 70, 127
2, 840, Note_on_c, 0, 70, 0
2, 840, Note_on_c, 0, 63, 127
2, 870, Note_on_c, 0, 63, 0
2, 870, Note_on_c, 0, 67, 127
2, 900, Note_on_c, 0, 67, 0
2, 900, Note_on_c, 0, 60, 127
2, 930, Note_on_c, 0, 60, 0
2, 930, Note_on_c, 0, 63, 127
2, 960, Note_on_c, 0, 63, 0
2, 960, Note_on_c, 0, 57, 127
2, 975, Note_on_c, 0, 57, 0
2, 990, Note_on_c, 0, 60, 127
2, 1005, Note_on_c, 0, 60, 0
2, 1005, Note_on_c, 0, 62, 127
2, 1020, Note_on_c, 0, 62, 0
2, 1020, Note_on_c, 0, 63, 127
2, 1035, Note_on_c, 0, 63, 0
2, 1035, Note_on_c, 0, 62, 127
2, 1050, Note_on_c, 0, 62, 0
2, 1050, Note_on_c, 0, 60, 127
2, 1080, Note_on_c, 0, 60, 0
2, 1080, Note_on_c, 0, 69, 127
2, 1110, Note_on_c, 0, 69, 0
2, 1110, Note_on_c, 0, 65, 127
2, 1140, Note_on_c, 0, 65, 0
2, 1140, Note_on_c, 0, 72, 127
2, 1170, Note_on_c, 0, 72, 0
2, 1170, Note_on_c, 0, 69, 127
2, 1200, Note_on_c, 0, 69, 0
2, 1200, Note_on_c, 0, 75, 127
2, 1230, Note_on_c, 0, 75, 0
2, 1230, Note_on_c, 0, 65, 127
2, 1245, Note_on_c, 0, 65, 0
2, 1245, Note_on_c, 0, 67, 127
2, 1260, Note_on_c, 0, 67, 0
2, 1260, Note_on_c, 0, 69, 127
2, 1275, Note_on_c, 0, 69, 0
2, 1275, Note_on_c, 0, 67, 127
2, 1290, Note_on_c, 0, 67, 0
2, 1290, Note_on_c, 0, 65, 127
2, 1310, Control_c, 0, 7, 111
2, 1320, Note_on_c, 0, 65, 0
2, 1320, Note_on_c, 0, 72, 127
2, 1340, Control_c, 0, 7, 110
2, 1350, Note_on_c, 0, 72, 0
2, 1350, Note_on_c, 0, 69, 127
2, 1360, Control_c, 0, 7, 109
2, 1380, Note_on_c, 0, 69, 0
2, 1380, Note_on_c, 0, 77, 127
2, 1380, Control_c, 0, 7, 108
2, 1400, Control_c, 0, 7, 107
2, 1410, Note_on_c, 0, 77, 0
2, 1410, Note_on_c, 0, 72, 127
2, 1430, Control_c, 0, 7, 106
2, 1440, Note_on_c, 0, 72, 0
2, 1440, Note_on_c, 0, 74, 127
2, 1450, Control_c, 0, 7, 105
2, 1470, Control_c, 0, 7, 104
2, 1490, Control_c, 0, 7, 103
2, 1500, Note_on_c, 0, 74, 0
2, 1510, Control_c, 0, 7, 102
2, 1540, Control_c, 0, 7, 101
2, 1560, Control_c, 0, 7, 100
2, 1580, Control_c, 0, 7, 99
2, 1590, Note_on_c, 0, 79, 127
2, 1600, Control_c, 0, 7, 98
2, 1605, Note_on_c, 0, 79, 0
2, 1605, Note_on_c, 0, 77, 127
2, 1620, Note_on_c, 0, 77, 0
2, 1620, Note_on_c, 0, 75, 127
2, 1630, Control_c, 0, 7, 97
2, 1635, Note_on_c, 0, 75, 0
2, 1635, Note_on_c, 0, 77, 127
2, 1650, Note_on_c, 0, 77, 0
2, 1650, Note_on_c, 0, 79, 127
2, 1650, Control_c, 0, 7, 96
2, 1670, Control_c, 0, 7, 95
2, 1680, Note_on_c, 0, 79, 0
2, 1680, Note_on_c, 0, 72, 127
2, 1690, Control_c, 0, 7, 94
2, 1710, Note_on_c, 0, 72, 0
2, 1710, Control_c, 0, 7, 93
2, 1740, Control_c, 0, 7, 92
2, 1760, Control_c, 0, 7, 91
2, 1780, Control_c, 0, 7, 90
2, 1800, Control_c, 0, 7, 89
2, 1830, Note_on_c, 0, 77, 127
2, 1830, Control_c, 0, 7, 88
2, 1845, Note_on_c, 0, 77, 0
2, 1845, Note_on_c, 0, 75, 127
2, 1850, Control_c, 0, 7, 87
2, 1860, Note_on_c, 0, 75, 0
2, 1860, Note_on_c, 0, 74, 127
2, 1870, Control_c, 0, 7, 86
2, 1875, Note_on_c, 0, 74, 0
2, 1875, Note_on_c, 0, 75, 127
2, 1890, Note_on_c, 0, 75, 0
2, 1890, Note_on_c, 0, 77, 127
2, 1890, Control_c, 0, 7, 85
2, 1910, Control_c, 0, 7, 84
2, 1920, Note_on_c, 0, 77, 0
2, 1920, Note_on_c, 0, 70, 127
2, 1940, Control_c, 0, 7, 83
2, 1950, Note_on_c, 0, 70, 0
2, 1960, Control_c, 0, 7, 82
2, 1980, Control_c, 0, 7, 81
2, 2000, Control_c, 0, 7, 80
2, 2030, Control_c, 0, 7, 79
2, 2050, Control_c, 0, 7, 78
2, 2070, Note_on_c, 0, 75, 127
2, 2070, Control_c, 0, 7, 77
2, 2085, Note_on_c, 0, 75, 0
2, 2085, Note_on_c, 0, 74, 127
2, 2090, Control_c, 0, 7, 76
2, 2100, Note_on_c, 0, 74, 0
2, 2100, Note_on_c, 0, 72, 127
2, 2110, Control_c, 0, 7, 75
2, 2115, Note_on_c, 0, 72, 0
2, 2115, Note_on_c, 0, 74, 127
2, 2130, Note_on_c, 0, 74, 0
2, 2130, Note_on_c, 0, 75, 127
2, 2140, Control_c, 0, 7, 74
2, 2160, Note_on_c, 0, 75, 0
2, 2160, Note_on_c, 0, 69, 127
2, 2160, Control_c, 0, 7, 73
2, 2180, Control_c, 0, 7, 72
2, 2190, Note_on_c, 0, 69, 0
2, 2190, Note_on_c, 0, 72, 127
2, 2200, Control_c, 0, 7, 71
2, 2205, Note_on_c, 0, 72, 0
2, 2205, Note_on_c, 0, 70, 127
2, 2220, Note_on_c, 0, 70, 0
2, 2220, Note_on_c, 0, 69, 127
2, 2230, Control_c, 0, 7, 70
2, 2235, Note_on_c, 0, 69, 0
2, 2235, Note_on_c, 0, 70, 127
2, 2250, Note_on_c, 0, 70, 0
2, 2250, Note_on_c, 0, 72, 127
2, 2250, Control_c, 0, 7, 69
2, 2270, Control_c, 0, 7, 68
2, 2280, Note_on_c, 0, 72, 0
2, 2280, Note_on_c, 0, 65, 127
2, 2290, Control_c, 0, 7, 67
2, 2310, Note_on_c, 0, 65, 0
2, 2310, Control_c, 0, 7, 66
2, 2400, Note_on_c, 0, 77, 127
2, 2460, Note_on_c, 0, 77, 0
2, 2460, Note_on_c, 0, 65, 127
2, 2480, Control_c, 0, 7, 113
2, 2520, Note_on_c, 0, 65, 0
2, 2520, Note_on_c, 0, 69, 127
2, 2540, Control_c, 0, 7, 112
2, 2580, Note_on_c, 0, 69, 0
2, 2580, Note_on_c, 0, 72, 127
2, 2640, Note_on_c, 0, 72, 0
2, 2640, Note_on_c, 0, 77, 127
2, 2760, Note_on_c, 0, 77, 0
2, 2940, Note_on_c, 0, 65, 127
2, 3000, Note_on_c, 0, 65, 0
2, 3000, Note_on_c, 0, 70, 127
2, 3060, Note_on_c, 0, 70, 0
2, 3060, Note_on_c, 0, 74, 127
2, 3120, Note_on_c, 0, 74, 0
2, 3120, Note_on_c, 0, 77, 127
2, 3240, Note_on_c, 0, 77, 0
2, 3420, Note_on_c, 0, 67, 127
2, 3480, Note_on_c, 0, 67, 0
2, 3480, Note_on_c, 0, 70, 127
2, 3540, Note_on_c, 0, 70, 0
2, 3540, Note_on_c, 0, 72, 127
2, 3600, Note_on_c, 0, 72, 0
2, 3600, Note_on_c, 0, 76, 127
2, 3720, Note_on_c, 0, 76, 0
2, 3870, Note_on_c, 0, 65, 127
2, 3885, Note_on_c, 0, 65, 0
2, 3885, Note_on_c, 0, 67, 127
2, 3900, Note_on_c, 0, 67, 0
2, 3900, Note_on_c, 0, 69, 127
2, 3915, Note_on_c, 0, 69, 0
2, 3915, Note_on_c, 0, 67, 127
2, 3930, Note_on_c, 0, 67, 0
2, 3930, Note_on_c, 0, 65, 127
2, 3960, Note_on_c, 0, 65, 0
2, 3960, Note_on_c, 0, 72, 127
2, 3990, Note_on_c, 0, 72, 0
2, 3990, Note_on_c, 0, 69, 127
2, 4020, Note_on_c, 0, 69, 0
2, 4020, Note_on_c, 0, 77, 127
2, 4050, Note_on_c, 0, 77, 0
2, 4050, Note_on_c, 0, 72, 127
2, 4080, Note_on_c, 0, 72, 0
2, 4080, Note_on_c, 0, 81, 127
2, 4110, Note_on_c, 0, 81, 0
2, 4110, Note_on_c, 0, 75, 127
2, 4125, Note_on_c, 0, 75, 0
2, 4125, Note_on_c, 0, 74, 127
2, 4140, Note_on_c, 0, 74, 0
2, 4140, Note_on_c, 0, 72, 127
2, 4155, Note_on_c, 0, 72, 0
2, 4155, Note_on_c, 0, 74, 127
2, 4170, Note_on_c, 0, 74, 0
2, 4170, Note_on_c, 0, 75, 127
2, 4200, Note_on_c, 0, 75, 0
2, 4200, Note_on_c, 0, 69, 127
2, 4230, Note_on_c, 0, 69, 0
2, 4230, Note_on_c, 0, 72, 127
2, 4260, Note_on_c, 0, 72, 0
2, 4260, Note_on_c, 0, 66, 127
2, 4290, Note_on_c, 0, 66, 0
2, 4290, Note_on_c, 0, 69, 127
2, 4320, Note_on_c, 0, 69, 0
2, 4320, Note_on_c, 0, 70, 127
2, 4320, Control_c, 0, 7, 113
2, 4350, Control_c, 0, 7, 112
2, 4370, Control_c, 0, 7, 111
2, 4380, Note_on_c, 0, 70, 0
2, 4380, Note_on_c, 0, 74, 127
2, 4390, Control_c, 0, 7, 110
2, 4410, Control_c, 0, 7, 109
2, 4430, Control_c, 0, 7, 108
2, 4440, Note_on_c, 0, 74, 0
2, 4440, Note_on_c, 0, 70, 127
2, 4450, Control_c, 0, 7, 107
2, 4470, Control_c, 0, 7, 106
2, 4490, Control_c, 0, 7, 105
2, 4500, Note_on_c, 0, 70, 0
2, 4500, Note_on_c, 0, 67, 127
2, 4510, Control_c, 0, 7, 104
2, 4530, Control_c, 0, 7, 103
2, 4550, Control_c, 0, 7, 102
2, 4560, Note_on_c, 0, 67, 0
2, 4560, Note_on_c, 0, 68, 127
2, 4580, Control_c, 0, 7, 101
2, 4600, Control_c, 0, 7, 100
2, 4620, Note_on_c, 0, 68, 0
2, 4620, Note_on_c, 0, 77, 127
2, 4620, Control_c, 0, 7, 99
2, 4640, Control_c, 0, 7, 98
2, 4660, Control_c, 0, 7, 97
2, 4680, Note_on_c, 0, 77, 0
2, 4680, Note_on_c, 0, 68, 127
2, 4680, Control_c, 0, 7, 96
2, 4700, Control_c, 0, 7, 95
2, 4720, Control_c, 0, 7, 94
2, 4740, Note_on_c, 0, 68, 0
2, 4740, Note_on_c, 0, 65, 127
2, 4740, Control_c, 0, 7, 93
2, 4760, Control_c, 0, 7, 92
2, 4780, Control_c, 0, 7, 91
2, 4800, Note_on_c, 0, 65, 0
2, 4800, Note_on_c, 0, 67, 127
2, 4800, Control_c, 0, 7, 90
2, 4815, Note_on_c, 0, 67, 0
2, 4830, Note_on_c, 0, 60, 127
2, 4830, Control_c, 0, 7, 89
2, 4845, Note_on_c, 0, 60, 0
2, 4845, Note_on_c, 0, 62, 127
2, 4850, Control_c, 0, 7, 88
2, 4860, Note_on_c, 0, 62, 0
2, 4860, Note_on_c, 0, 63, 127
2, 4870, Control_c, 0, 7, 87
2, 4875, Note_on_c, 0, 63, 0
2, 4875, Note_on_c, 0, 62, 127
2, 4890, Note_on_c, 0, 62, 0
2, 4890, Note_on_c, 0, 60, 127
2, 4890, Control_c, 0, 7, 86
2, 4910, Control_c, 0, 7, 85
2, 4920, Note_on_c, 0, 60, 0
2, 4920, Note_on_c, 0, 67, 127
2, 4930, Control_c, 0, 7, 84
2, 4950, Note_on_c, 0, 67, 0
2, 4950, Note_on_c, 0, 63, 127
2, 4950, Control_c, 0, 7, 83
2, 4970, Control_c, 0, 7, 82
2, 4980, Note_on_c, 0, 63, 0
2, 4980, Note_on_c, 0, 72, 127
2, 4990, Control_c, 0, 7, 81
2, 5010, Note_on_c, 0, 72, 0
2, 5010, Note_on_c, 0, 67, 127
2, 5010, Control_c, 0, 7, 80
2, 5030, Control_c, 0, 7, 79
2, 5040, Note_on_c, 0, 67, 0
2, 5040, Note_on_c, 0, 74, 127
2, 5060, Control_c, 0, 7, 78
2, 5070, Note_on_c, 0, 74, 0
2, 5070, Note_on_c, 0, 68, 127
2, 5080, Control_c, 0, 7, 77
2, 5085, Note_on_c, 0, 68, 0
2, 5085, Note_on_c, 0, 67, 127
2, 5100, Note_on_c, 0, 67, 0
2, 5100, Note_on_c, 0, 65, 127
2, 5100, Control_c, 0, 7, 76
2, 5115, Note_on_c, 0, 65, 0
2, 5115, Note_on_c, 0, 67, 127
2, 5120, Control_c, 0, 7, 75
2, 5130, Note_on_c, 0, 67, 0
2, 5130, Note_on_c, 0, 68, 127
2, 5140, Control_c, 0, 7, 74
2, 5160, Note_on_c, 0, 68, 0
2, 5160, Note_on_c, 0, 62, 127
2, 5160, Control_c, 0, 7, 73
2, 5180, Control_c, 0, 7, 72
2, 5190, Note_on_c, 0, 62, 0
2, 5190, Note_on_c, 0, 65, 127
2, 5200, Control_c, 0, 7, 71
2, 5219, Note_on_c, 0, 59, 127
2, 5220, Note_on_c, 0, 65, 0
2, 5220, Control_c, 0, 7, 70
2, 5240, Control_c, 0, 7, 69
2, 5249, Note_on_c, 0, 59, 0
2, 5250, Note_on_c, 0, 67, 127
2, 5260, Control_c, 0, 7, 68
2, 5280, Note_on_c, 0, 67, 0
2, 5280, Note_on_c, 0, 63, 127
2, 5280, Control_c, 0, 7, 67
2, 5300, Control_c, 0, 7, 68
2, 5310, Note_on_c, 0, 63, 0
2, 5310, Control_c, 0, 7, 69
2, 5330, Control_c, 0, 7, 70
2, 5340, Control_c, 0, 7, 71
2, 5360, Control_c, 0, 7, 72
2, 5370, Control_c, 0, 7, 73
2, 5390, Control_c, 0, 7, 74
2, 5400, Control_c, 0, 7, 75
2, 5420, Control_c, 0, 7, 76
2, 5430, Note_on_c, 0, 60, 127
2, 5430, Control_c, 0, 7, 77
2, 5440, Control_c, 0, 7, 78
2, 5445, Note_on_c, 0, 60, 0
2, 5445, Note_on_c, 0, 62, 127
2, 5460, Note_on_c, 0, 62, 0
2, 5460, Note_on_c, 0, 63, 127
2, 5460, Control_c, 0, 7, 79
2, 5470, Control_c, 0, 7, 80
2, 5475, Note_on_c, 0, 63, 0
2, 5475, Note_on_c, 0, 62, 127
2, 5490, Note_on_c, 0, 62, 0
2, 5490, Note_on_c, 0, 60, 127
2, 5490, Control_c, 0, 7, 81
2, 5500, Control_c, 0, 7, 82
2, 5520, Note_on_c, 0, 60, 0
2, 5520, Note_on_c, 0, 72, 127
2, 5520, Control_c, 0, 7, 83
2, 5530, Control_c, 0, 7, 84
2, 5550, Control_c, 0, 7, 85
2, 5560, Control_c, 0, 7, 86
2, 5580, Control_c, 0, 7, 87
2, 5590, Control_c, 0, 7, 88
2, 5600, Control_c, 0, 7, 89
2, 5610, Note_on_c, 0, 72, 0
2, 5610, Note_on_c, 0, 70, 127
2, 5620, Control_c, 0, 7, 90
2, 5630, Control_c, 0, 7, 91
2, 5640, Note_on_c, 0, 70, 0
2, 5640, Note_on_c, 0, 69, 127
2, 5650, Control_c, 0, 7, 92
2, 5660, Control_c, 0, 7, 93
2, 5670, Note_on_c, 0, 69, 0
2, 5670, Note_on_c, 0, 65, 127
2, 5680, Control_c, 0, 7, 94
2, 5685, Note_on_c, 0, 65, 0
2, 5685, Note_on_c, 0, 67, 127
2, 5690, Control_c, 0, 7, 95
2, 5700, Note_on_c, 0, 67, 0
2, 5700, Note_on_c, 0, 69, 127
2, 5710, Control_c, 0, 7, 96
2, 5715, Note_on_c, 0, 69, 0
2, 5715, Note_on_c, 0, 67, 127
2, 5720, Control_c, 0, 7, 97
2, 5730, Note_on_c, 0, 67, 0
2, 5730, Note_on_c, 0, 65, 127
2, 5740, Control_c, 0, 7, 98
2, 5750, Control_c, 0, 7, 99
2, 5760, Note_on_c, 0, 65, 0
2, 5760, Note_on_c, 0, 77, 127
2, 5760, Control_c, 0, 7, 100
2, 5780, Control_c, 0, 7, 101
2, 5790, Control_c, 0, 7, 102
2, 5810, Control_c, 0, 7, 103
2, 5820, Control_c, 0, 7, 104
2, 5840, Control_c, 0, 7, 105
2, 5850, Note_on_c, 0, 77, 0
2, 5850, Note_on_c, 0, 75, 127
2, 5850, Control_c, 0, 7, 106
2, 5870, Control_c, 0, 7, 107
2, 5880, Note_on_c, 0, 75, 0
2, 5880, Note_on_c, 0, 74, 127
2, 5880, Control_c, 0, 7, 108
2, 5900, Control_c, 0, 7, 109
2, 5910, Note_on_c, 0, 74, 0
2, 5910, Note_on_c, 0, 70, 127
2, 5910, Control_c, 0, 7, 110
2, 5920, Control_c, 0, 7, 111
2, 5925, Note_on_c, 0, 70, 0
2, 5925, Note_on_c, 0, 72, 127
2, 5940, Note_on_c, 0, 72, 0
2, 5940, Note_on_c, 0, 74, 127
2, 5955, Note_on_c, 0, 74, 0
2, 5955, Note_on_c, 0, 72, 127
2, 5970, Note_on_c, 0, 72, 0
2, 5970, Note_on_c, 0, 70, 127
2, 6000, Note_on_c, 0, 70, 0
2, 6000, Note_on_c, 0, 82, 127
2, 6090, Note_on_c, 0, 82, 0
2, 6090, Note_on_c, 0, 80, 127
2, 6120, Note_on_c, 0, 80, 0
2, 6120, Note_on_c, 0, 79, 127
2, 6150, Note_on_c, 0, 79, 0
2, 6150, Note_on_c, 0, 82, 127
2, 6165, Note_on_c, 0, 82, 0
2, 6165, Note_on_c, 0, 80, 127
2, 6180, Note_on_c, 0, 80, 0
2, 6180, Note_on_c, 0, 79, 127
2, 6195, Note_on_c, 0, 79, 0
2, 6195, Note_on_c, 0, 80, 127
2, 6210, Note_on_c, 0, 80, 0
2, 6210, Note_on_c, 0, 82, 127
2, 6240, Note_on_c, 0, 82, 0
2, 6240, Note_on_c, 0, 75, 127
2, 6255, Note_on_c, 0, 75, 0
2, 6270, Note_on_c, 0, 79, 127
2, 6285, Note_on_c, 0, 79, 0
2, 6285, Note_on_c, 0, 77, 127
2, 6300, Note_on_c, 0, 77, 0
2, 6300, Note_on_c, 0, 75, 127
2, 6315, Note_on_c, 0, 75, 0
2, 6315, Note_on_c, 0, 77, 127
2, 6330, Note_on_c, 0, 77, 0
2, 6330, Note_on_c, 0, 79, 127
2, 6360, Note_on_c, 0, 79, 0
2, 6360, Note_on_c, 0, 72, 127
2, 6375, Note_on_c, 0, 72, 0
2, 6390, Note_on_c, 0, 75, 127
2, 6405, Note_on_c, 0, 75, 0
2, 6405, Note_on_c, 0, 74, 127
2, 6420, Note_on_c, 0, 74, 0
2, 6420, Note_on_c, 0, 72, 127
2, 6435, Note_on_c, 0, 72, 0
2, 6435, Note_on_c, 0, 74, 127
2, 6450, Note_on_c, 0, 74, 0
2, 6450, Note_on_c, 0, 75, 127
2, 6480, Note_on_c, 0, 75, 0
2, 6480, Note_on_c, 0, 69, 127
2, 6495, Note_on_c, 0, 69, 0
2, 6510, Note_on_c, 0, 72, 127
2, 6525, Note_on_c, 0, 72, 0
2, 6525, Note_on_c, 0, 74, 127
2, 6540, Note_on_c, 0, 74, 0
2, 6540, Note_on_c, 0, 75, 127
2, 6555, Note_on_c, 0, 75, 0
2, 6555, Note_on_c, 0, 74, 127
2, 6570, Note_on_c, 0, 74, 0
2, 6570, Note_on_c, 0, 72, 127
2, 6600, Note_on_c, 0, 72, 0
2, 6600, Note_on_c, 0, 77, 127
2, 6615, Note_on_c, 0, 77, 0
2, 6630, Note_on_c, 0, 68, 127
2, 6645, Note_on_c, 0, 68, 0
2, 6645, Note_on_c, 0, 67, 127
2, 6660, Note_on_c, 0, 67, 0
2, 6660, Note_on_c, 0, 65, 127
2, 6675, Note_on_c, 0, 65, 0
2, 6675, Note_on_c, 0, 67, 127
2, 6690, Note_on_c, 0, 67, 0
2, 6690, Note_on_c, 0, 68, 127
2, 6720, Note_on_c, 0, 68, 0
2, 6720, Note_on_c, 0, 67, 127
2, 6735, Note_on_c, 0, 67, 0
2, 6750, Note_on_c, 0, 70, 127
2, 6765, Note_on_c, 0, 70, 0
2, 6765, Note_on_c, 0, 72, 127
2, 6780, Note_on_c, 0, 72, 0
2, 6780, Note_on_c, 0, 74, 127
2, 6795, Note_on_c, 0, 74, 0
2, 6795, Note_on_c, 0, 72, 127
2, 6810, Note_on_c, 0, 72, 0
2, 6810, Note_on_c, 0, 70, 127
2, 6840, Note_on_c, 0, 70, 0
2, 6840, Note_on_c, 0, 75, 127
2, 6855, Note_on_c, 0, 75, 0
2, 6870, Note_on_c, 0, 67, 127
2, 6885, Note_on_c, 0, 67, 0
2, 6885, Note_on_c, 0, 65, 127
2, 6900, Note_on_c, 0, 65, 0
2, 6900, Note_on_c, 0, 63, 127
2, 6915, Note_on_c, 0, 63, 0
2, 6915, Note_on_c, 0, 65, 127
2, 6930, Note_on_c, 0, 65, 0
2, 6930, Note_on_c, 0, 67, 127
2, 6960, Note_on_c, 0, 67, 0
2, 6960, Note_on_c, 0, 65, 127
2, 6975, Note_on_c, 0, 65, 0
2, 6990, Note_on_c, 0, 69, 127
2, 7005, Note_on_c, 0, 69, 0
2, 7005, Note_on_c, 0, 70, 127
2, 7020, Note_on_c, 0, 70, 0
2, 7020, Note_on_c, 0, 72, 127
2, 7035, Note_on_c, 0, 72, 0
2, 7035, Note_on_c, 0, 70, 127
2, 7050, Note_on_c, 0, 70, 0
2, 7050, Note_on_c, 0, 69, 127
2, 7080, Note_on_c, 0, 69, 0
2, 7080, Note_on_c, 0, 74, 127
2, 7095, Note_on_c, 0, 74, 0
2, 7110, Note_on_c, 0, 65, 127
2, 7125, Note_on_c, 0, 65, 0
2, 7125, Note_on_c, 0, 63, 127
2, 7140, Note_on_c, 0, 63, 0
2, 7140, Note_on_c, 0, 62, 127
2, 7155, Note_on_c, 0, 62, 0
2, 7155, Note_on_c, 0, 63, 127
2, 7170, Note_on_c, 0, 63, 0
2, 7170, Note_on_c, 0, 65, 127
2, 7200, Note_on_c, 0, 65, 0
2, 7200, Note_on_c, 0, 63, 127
2, 7215, Note_on_c, 0, 63, 0
2, 7230, Note_on_c, 0, 67, 127
2, 7245, Note_on_c, 0, 67, 0
2, 7245, Note_on_c, 0, 69, 127
2, 7260, Note_on_c, 0, 69, 0
2, 7260, Note_on_c, 0, 70, 127
2, 7275, Note_on_c, 0, 70, 0
2, 7275, Note_on_c, 0, 69, 127
2, 7290, Note_on_c, 0, 69, 0
2, 7290, Note_on_c, 0, 67, 127
2, 7320, Note_on_c, 0, 67, 0
2, 7320, Note_on_c, 0, 72, 127
2, 7335, Note_on_c, 0, 72, 0
2, 7350, Note_on_c, 0, 63, 127
2, 7365, Note_on_c, 0, 63, 0
2, 7365, Note_on_c, 0, 62, 127
2, 7380, Note_on_c, 0, 62, 0
2, 7380, Note_on_c, 0, 60, 127
2, 7395, Note_on_c, 0, 60, 0
2, 7395, Note_on_c, 0, 62, 127
2, 7410, Note_on_c, 0, 62, 0
2, 7410, Note_on_c, 0, 63, 127
2, 7440, Note_on_c, 0, 63, 0
2, 7440, Note_on_c, 0, 62, 127
2, 7560, Note_on_c, 0, 62, 0
2, 7590, Note_on_c, 0, 70, 127
2, 7605, Note_on_c, 0, 70, 0
2, 7605, Note_on_c, 0, 72, 127
2, 7620, Note_on_c, 0, 72, 0
2, 7620, Note_on_c, 0, 74, 127
2, 7635, Note_on_c, 0, 74, 0
2, 7635, Note_on_c, 0, 72, 127
2, 7650, Note_on_c, 0, 72, 0
2, 7650, Note_on_c, 0, 70, 127
2, 7680, Note_on_c, 0, 70, 0
2, 7680, Note_on_c, 0, 77, 127
2, 7710, Note_on_c, 0, 77, 0
2, 7710, Note_on_c, 0, 74, 127
2, 7740, Note_on_c, 0, 74, 0
2, 7740, Note_on_c, 0, 82, 127
2, 7770, Note_on_c, 0, 82, 0
2, 7770, Note_on_c, 0, 77, 127
2, 7800, Note_on_c, 0, 77, 0
2, 7800, Note_on_c, 0, 74, 127
2, 7830, Note_on_c, 0, 74, 0
2, 7830, Note_on_c, 0, 77, 127
2, 7845, Note_on_c, 0, 77, 0
2, 7845, Note_on_c, 0, 75, 127
2, 7860, Note_on_c, 0, 75, 0
2, 7860, Note_on_c, 0, 74, 127
2, 7875, Note_on_c, 0, 74, 0
2, 7875, Note_on_c, 0, 75, 127
2, 7890, Note_on_c, 0, 75, 0
2, 7890, Note_on_c, 0, 77, 127
2, 7920, Note_on_c, 0, 77, 0
2, 7920, Note_on_c, 0, 70, 127
2, 7950, Note_on_c, 0, 70, 0
2, 7950, Note_on_c, 0, 75, 127
2, 7980, Note_on_c, 0, 75, 0
2, 7980, Note_on_c, 0, 70, 127
2, 8010, Note_on_c, 0, 70, 0
2, 8010, Note_on_c, 0, 75, 127
2, 8040, Note_on_c, 0, 75, 0
2, 8040, Note_on_c, 0, 67, 127
2, 8070, Note_on_c, 0, 67, 0
2, 8070, Note_on_c, 0, 63, 127
2, 8085, Note_on_c, 0, 63, 0
2, 8085, Note_on_c, 0, 65, 127
2, 8100, Note_on_c, 0, 65, 0
2, 8100, Note_on_c, 0, 67, 127
2, 8115, Note_on_c, 0, 67, 0
2, 8115, Note_on_c, 0, 65, 127
2, 8130, Note_on_c, 0, 65, 0
2, 8130, Note_on_c, 0, 63, 127
2, 8160, Note_on_c, 0, 63, 0
2, 8160, Note_on_c, 0, 70, 127
2, 8175, Note_on_c, 0, 70, 0
2, 8190, Note_on_c, 0, 67, 127
2, 8220, Note_on_c, 0, 67, 0
2, 8220, Note_on_c, 0, 75, 127
2, 8250, Note_on_c, 0, 75, 0
2, 8250, Note_on_c, 0, 70, 127
2, 8280, Note_on_c, 0, 70, 0
2, 8280, Note_on_c, 0, 67, 127
2, 8310, Note_on_c, 0, 67, 0
2, 8310, Note_on_c, 0, 70, 127
2, 8325, Note_on_c, 0, 70, 0
2, 8325, Note_on_c, 0, 68, 127
2, 8340, Note_on_c, 0, 68, 0
2, 8340, Note_on_c, 0, 67, 127
2, 8355, Note_on_c, 0, 67, 0
2, 8355, Note_on_c, 0, 68, 127
2, 8370, Note_on_c, 0, 68, 0
2, 8370, Note_on_c, 0, 70, 127
2, 8400, Note_on_c, 0, 70, 0
2, 8400, Note_on_c, 0, 63, 127
2, 8460, Note_on_c, 0, 63, 0
2, 8460, Note_on_c, 0, 75, 127
2, 8550, Note_on_c, 0, 75, 0
2, 8550, Note_on_c, 0, 75, 127
2, 8565, Note_on_c, 0, 75, 0
2, 8565, Note_on_c, 0, 74, 127
2, 8580, Note_on_c, 0, 74, 0
2, 8580, Note_on_c, 0, 72, 127
2, 8595, Note_on_c, 0, 72, 0
2, 8595, Note_on_c, 0, 74, 127
2, 8610, Note_on_c, 0, 74, 0
2, 8610, Note_on_c, 0, 75, 127
2, 8640, Note_on_c, 0, 75, 0
2, 8640, Note_on_c, 0, 65, 127
2, 8660, Control_c, 0, 7, 111
2, 8680, Control_c, 0, 7, 110
2, 8690, Control_c, 0, 7, 109
2, 8700, Note_on_c, 0, 65, 0
2, 8700, Note_on_c, 0, 75, 127
2, 8710, Control_c, 0, 7, 108
2, 8720, Control_c, 0, 7, 107
2, 8740, Control_c, 0, 7, 106
2, 8750, Control_c, 0, 7, 105
2, 8760, Control_c, 0, 7, 104
2, 8780, Control_c, 0, 7, 103
2, 8790, Note_on_c, 0, 75, 0
2, 8790, Note_on_c, 0, 72, 127
2, 8790, Control_c, 0, 7, 102
2, 8805, Note_on_c, 0, 72, 0
2, 8805, Note_on_c, 0, 74, 127
2, 8810, Control_c, 0, 7, 101
2, 8820, Note_on_c, 0, 74, 0
2, 8820, Note_on_c, 0, 75, 127
2, 8820, Control_c, 0, 7, 100
2, 8835, Note_on_c, 0, 75, 0
2, 8835, Note_on_c, 0, 74, 127
2, 8840, Control_c, 0, 7, 99
2, 8850, Note_on_c, 0, 74, 0
2, 8850, Note_on_c, 0, 72, 127
2, 8850, Control_c, 0, 7, 98
2, 8860, Control_c, 0, 7, 97
2, 8880, Note_on_c, 0, 72, 0
2, 8880, Note_on_c, 0, 77, 127
2, 8880, Control_c, 0, 7, 96
2, 8890, Control_c, 0, 7, 95
2, 8895, Note_on_c, 0, 77, 0
2, 8910, Note_on_c, 0, 74, 127
2, 8910, Control_c, 0, 7, 94
2, 8920, Control_c, 0, 7, 93
2, 8925, Note_on_c, 0, 74, 0
2, 8925, Note_on_c, 0, 72, 127
2, 8940, Note_on_c, 0, 72, 0
2, 8940, Note_on_c, 0, 70, 127
2, 8940, Control_c, 0, 7, 92
2, 8950, Control_c, 0, 7, 91
2, 8955, Note_on_c, 0, 70, 0
2, 8955, Note_on_c, 0, 72, 127
2, 8960, Control_c, 0, 7, 90
2, 8970, Note_on_c, 0, 72, 0
2, 8970, Note_on_c, 0, 74, 127
2, 8980, Control_c, 0, 7, 89
2, 8990, Control_c, 0, 7, 88
2, 9000, Note_on_c, 0, 74, 0
2, 9000, Note_on_c, 0, 65, 127
2, 9010, Control_c, 0, 7, 87
2, 9020, Control_c, 0, 7, 86
2, 9030, Note_on_c, 0, 65, 0
2, 9030, Note_on_c, 0, 70, 127
2, 9040, Control_c, 0, 7, 85
2, 9050, Control_c, 0, 7, 84
2, 9060, Note_on_c, 0, 70, 0
2, 9060, Note_on_c, 0, 72, 127
2, 9060, Control_c, 0, 7, 83
2, 9080, Control_c, 0, 7, 82
2, 9090, Note_on_c, 0, 72, 0
2, 9090, Note_on_c, 0, 69, 127
2, 9090, Control_c, 0, 7, 81
2, 9110, Control_c, 0, 7, 80
2, 9120, Note_on_c, 0, 69, 0
2, 9120, Note_on_c, 0, 70, 127
2, 9600, Note_on_c, 0, 70, 0
2, 9600, End_track
3, 0, Start_track
3, 0, MIDI_port, 0
3, 0, Title_t, "OBOE"
3, 0, Program_c, 1, 0
3, 0, Control_c, 1, 7, 104
3, 0, Control_c, 1, 10, 69
3, 20, Control_c, 1, 7, 111
3, 60, Note_on_c, 1, 58, 127
3, 60, Control_c, 1, 7, 110
3, 75, Note_on_c, 1, 58, 0
3, 75, Note_on_c, 1, 60, 127
3, 90, Note_on_c, 1, 60, 0
3, 90, Note_on_c, 1, 62, 127
3, 105, Note_on_c, 1, 62, 0
3, 105, Note_on_c, 1, 60, 127
3, 110, Control_c, 1, 7, 109
3, 120, Note_on_c, 1, 60, 0
3, 120, Note_on_c, 1, 58, 127
3, 150, Note_on_c, 1, 58, 0
3, 150, Note_on_c, 1, 65, 127
3, 180, Note_on_c, 1, 65, 0
3, 180, Note_on_c, 1, 62, 127
3, 210, Note_on_c, 1, 62, 0
3, 210, Note_on_c, 1, 70, 127
3, 240, Note_on_c, 1, 70, 0
3, 240, Note_on_c, 1, 65, 127
3, 270, Note_on_c, 1, 65, 0
3, 270, Note_on_c, 1, 62, 127
3, 300, Note_on_c, 1, 62, 0
3, 300, Note_on_c, 1, 65, 127
3, 315, Note_on_c, 1, 65, 0
3, 315, Note_on_c, 1, 63, 127
3, 330, Note_on_c, 1, 63, 0
3, 330, Note_on_c, 1, 62, 127
3, 345, Note_on_c, 1, 62, 0
3, 345, Note_on_c, 1, 63, 127
3, 360, Note_on_c, 1, 63, 0
3, 360, Note_on_c, 1, 65, 127
3, 390, Note_on_c, 1, 65, 0
3, 390, Note_on_c, 1, 58, 127
3, 420, Note_on_c, 1, 58, 0
3, 420, Note_on_c, 1, 62, 127
3, 450, Note_on_c, 1, 62, 0
3, 450, Note_on_c, 1, 53, 127
3, 480, Note_on_c, 1, 53, 0
3, 480, Note_on_c, 1, 58, 127
3, 495, Note_on_c, 1, 58, 0
3, 510, Note_on_c, 1, 55, 127
3, 540, Note_on_c, 1, 55, 0
3, 540, Note_on_c, 1, 51, 127
3, 555, Note_on_c, 1, 51, 0
3, 555, Note_on_c, 1, 53, 127
3, 570, Note_on_c, 1, 53, 0
3, 570, Note_on_c, 1, 55, 127
3, 585, Note_on_c, 1, 55, 0
3, 585, Note_on_c, 1, 53, 127
3, 600, Note_on_c, 1, 53, 0
3, 600, Note_on_c, 1, 51, 127
3, 630, Note_on_c, 1, 51, 0
3, 630, Note_on_c, 1, 58, 127
3, 660, Note_on_c, 1, 58, 0
3, 660, Note_on_c, 1, 55, 127
3, 690, Note_on_c, 1, 55, 0
3, 690, Note_on_c, 1, 63, 127
3, 720, Note_on_c, 1, 63, 0
3, 720, Note_on_c, 1, 58, 127
3, 750, Note_on_c, 1, 58, 0
3, 750, Note_on_c, 1, 55, 127
3, 780, Note_on_c, 1, 55, 0
3, 780, Note_on_c, 1, 58, 127
3, 795, Note_on_c, 1, 58, 0
3, 795, Note_on_c, 1, 56, 127
3, 810, Note_on_c, 1, 56, 0
3, 810, Note_on_c, 1, 55, 127
3, 825, Note_on_c, 1, 55, 0
3, 825, Note_on_c, 1, 56, 127
3, 840, Note_on_c, 1, 56, 0
3, 840, Note_on_c, 1, 58, 127
3, 870, Note_on_c, 1, 58, 0
3, 870, Note_on_c, 1, 51, 127
3, 900, Note_on_c, 1, 51, 0
3, 900, Note_on_c, 1, 55, 127
3, 930, Note_on_c, 1, 55, 0
3, 930, Note_on_c, 1, 48, 127
3, 960, Note_on_c, 1, 48, 0
3, 960, Note_on_c, 1, 53, 127
3, 960, Control_c, 1, 7, 110
3, 975, Note_on_c, 1, 53, 0
3, 990, Note_on_c, 1, 45, 127
3, 990, Control_c, 1, 7, 109
3, 1000, Control_c, 1, 7, 108
3, 1020, Note_on_c, 1, 45, 0
3, 1020, Note_on_c, 1, 48, 127
3, 1035, Note_on_c, 1, 48, 0
3, 1035, Note_on_c, 1, 50, 127
3, 1040, Control_c, 1, 7, 107
3, 1050, Note_on_c, 1, 50, 0
3, 1050, Note_on_c, 1, 51, 127
3, 1065, Note_on_c, 1, 51, 0
3, 1065, Note_on_c, 1, 50, 127
3, 1070, Control_c, 1, 7, 106
3, 1080, Note_on_c, 1, 50, 0
3, 1080, Note_on_c, 1, 48, 127
3, 1100, Control_c, 1, 7, 105
3, 1110, Note_on_c, 1, 48, 0
3, 1110, Note_on_c, 1, 57, 127
3, 1130, Control_c, 1, 7, 104
3, 1140, Note_on_c, 1, 57, 0
3, 1140, Note_on_c, 1, 53, 127
3, 1170, Note_on_c, 1, 53, 0
3, 1170, Note_on_c, 1, 60, 127
3, 1170, Control_c, 1, 7, 103
3, 1200, Note_on_c, 1, 60, 0
3, 1200, Note_on_c, 1, 53, 127
3, 1200, Control_c, 1, 7, 102
3, 1230, Note_on_c, 1, 53, 0
3, 1230, Note_on_c, 1, 63, 127
3, 1230, Control_c, 1, 7, 101
3, 1260, Note_on_c, 1, 63, 0
3, 1260, Note_on_c, 1, 53, 127
3, 1260, Control_c, 1, 7, 100
3, 1275, Note_on_c, 1, 53, 0
3, 1275, Note_on_c, 1, 55, 127
3, 1290, Note_on_c, 1, 55, 0
3, 1290, Note_on_c, 1, 57, 127
3, 1290, Control_c, 1, 7, 99
3, 1305, Note_on_c, 1, 57, 0
3, 1305, Note_on_c, 1, 55, 127
3, 1320, Note_on_c, 1, 55, 0
3, 1320, Note_on_c, 1, 53, 127
3, 1330, Control_c, 1, 7, 98
3, 1350, Note_on_c, 1, 53, 0
3, 1350, Note_on_c, 1, 60, 127
3, 1360, Control_c, 1, 7, 97
3, 1380, Note_on_c, 1, 60, 0
3, 1380, Note_on_c, 1, 57, 127
3, 1390, Control_c, 1, 7, 96
3, 1410, Note_on_c, 1, 57, 0
3, 1410, Note_on_c, 1, 65, 127
3, 1420, Control_c, 1, 7, 95
3, 1450, Control_c, 1, 7, 94
3, 1470, Note_on_c, 1, 65, 0
3, 1470, Note_on_c, 1, 62, 127
3, 1490, Control_c, 1, 7, 93
3, 1500, Note_on_c, 1, 62, 0
3, 1500, Note_on_c, 1, 58, 127
3, 1515, Note_on_c, 1, 58, 0
3, 1515, Note_on_c, 1, 60, 127
3, 1520, Control_c, 1, 7, 92
3, 1530, Note_on_c, 1, 60, 0
3, 1530, Note_on_c, 1, 62, 127
3, 1545, Note_on_c, 1, 62, 0
3, 1545, Note_on_c, 1, 60, 127
3, 1550, Control_c, 1, 7, 91
3, 1560, Note_on_c, 1, 60, 0
3, 1560, Note_on_c, 1, 58, 127
3, 1580, Control_c, 1, 7, 90
3, 1590, Note_on_c, 1, 58, 0
3, 1610, Control_c, 1, 7, 89
3, 1620, Note_on_c, 1, 67, 127
3, 1635, Note_on_c, 1, 67, 0
3, 1635, Note_on_c, 1, 65, 127
3, 1650, Note_on_c, 1, 65, 0
3, 1650, Note_on_c, 1, 63, 127
3, 1650, Control_c, 1, 7, 88
3, 1665, Note_on_c, 1, 63, 0
3, 1665, Note_on_c, 1, 65, 127
3, 1680, Note_on_c, 1, 65, 0
3, 1680, Note_on_c, 1, 67, 127
3, 1680, Control_c, 1, 7, 87
3, 1710, Note_on_c, 1, 67, 0
3, 1710, Note_on_c, 1, 63, 127
3, 1710, Control_c, 1, 7, 86
3, 1740, Note_on_c, 1, 63, 0
3, 1740, Note_on_c, 1, 57, 127
3, 1740, Control_c, 1, 7, 85
3, 1755, Note_on_c, 1, 57, 0
3, 1755, Note_on_c, 1, 58, 127
3, 1770, Note_on_c, 1, 58, 0
3, 1770, Note_on_c, 1, 60, 127
3, 1770, Control_c, 1, 7, 84
3, 1785, Note_on_c, 1, 60, 0
3, 1785, Note_on_c, 1, 58, 127
3, 1800, Note_on_c, 1, 58, 0
3, 1800, Note_on_c, 1, 57, 127
3, 1810, Control_c, 1, 7, 83
3, 1830, Note_on_c, 1, 57, 0
3, 1840, Control_c, 1, 7, 82
3, 1860, Note_on_c, 1, 65, 127
3, 1870, Control_c, 1, 7, 81
3, 1875, Note_on_c, 1, 65, 0
3, 1875, Note_on_c, 1, 63, 127
3, 1890, Note_on_c, 1, 63, 0
3, 1890, Note_on_c, 1, 62, 127
3, 1900, Control_c, 1, 7, 80
3, 1905, Note_on_c, 1, 62, 0
3, 1905, Note_on_c, 1, 63, 127
3, 1920, Note_on_c, 1, 63, 0
3, 1920, Note_on_c, 1, 65, 127
3, 1930, Control_c, 1, 7, 79
3, 1950, Note_on_c, 1, 65, 0
3, 1950, Note_on_c, 1, 62, 127
3, 1970, Control_c, 1, 7, 78
3, 1980, Note_on_c, 1, 62, 0
3, 1980, Note_on_c, 1, 55, 127
3, 1995, Note_on_c, 1, 55, 0
3, 1995, Note_on_c, 1, 57, 127
3, 2000, Control_c, 1, 7, 77
3, 2010, Note_on_c, 1, 57, 0
3, 2010, Note_on_c, 1, 58, 127
3, 2025, Note_on_c, 1, 58, 0
3, 2025, Note_on_c, 1, 57, 127
3, 2030, Control_c, 1, 7, 76
3, 2040, Note_on_c, 1, 57, 0
3, 2040, Note_on_c, 1, 55, 127
3, 2055, Note_on_c, 1, 55, 0
3, 2060, Control_c, 1, 7, 75
3, 2070, Note_on_c, 1, 67, 127
3, 2085, Note_on_c, 1, 67, 0
3, 2085, Note_on_c, 1, 65, 127
3, 2090, Control_c, 1, 7, 74
3, 2100, Note_on_c, 1, 65, 0
3, 2100, Note_on_c, 1, 63, 127
3, 2115, Note_on_c, 1, 63, 0
3, 2115, Note_on_c, 1, 65, 127
3, 2130, Note_on_c, 1, 65, 0
3, 2130, Note_on_c, 1, 67, 127
3, 2130, Control_c, 1, 7, 73
3, 2160, Control_c, 1, 7, 72
3, 2175, Note_on_c, 1, 67, 0
3, 2175, Note_on_c, 1, 65, 127
3, 2190, Note_on_c, 1, 65, 0
3, 2190, Note_on_c, 1, 63, 127
3, 2190, Control_c, 1, 7, 71
3, 2205, Note_on_c, 1, 63, 0
3, 2205, Note_on_c, 1, 62, 127
3, 2220, Note_on_c, 1, 62, 0
3, 2220, Note_on_c, 1, 60, 127
3, 2220, Control_c, 1, 7, 70
3, 2235, Note_on_c, 1, 60, 0
3, 2235, Note_on_c, 1, 58, 127
3, 2250, Note_on_c, 1, 58, 0
3, 2250, Note_on_c, 1, 57, 127
3, 2250, Control_c, 1, 7, 69
3, 2265, Note_on_c, 1, 57, 0
3, 2265, Note_on_c, 1, 55, 127
3, 2280, Note_on_c, 1, 55, 0
3, 2280, Note_on_c, 1, 57, 127
3, 2290, Control_c, 1, 7, 68
3, 2310, Note_on_c, 1, 57, 0
3, 2320, Control_c, 1, 7, 67
3, 2350, Control_c, 1, 7, 66
3, 2380, Control_c, 1, 7, 65
3, 2410, Control_c, 1, 7, 113
3, 2460, Note_on_c, 1, 53, 127
3, 2460, Control_c, 1, 7, 112
3, 2475, Note_on_c, 1, 53, 0
3, 2475, Note_on_c, 1, 55, 127
3, 2490, Note_on_c, 1, 55, 0
3, 2490, Note_on_c, 1, 57, 127
3, 2505, Note_on_c, 1, 57, 0
3, 2505, Note_on_c, 1, 55, 127
3, 2510, Control_c, 1, 7, 111
3, 2520, Note_on_c, 1, 55, 0
3, 2520, Note_on_c, 1, 53, 127
3, 2550, Note_on_c, 1, 53, 0
3, 2550, Note_on_c, 1, 60, 127
3, 2580, Note_on_c, 1, 60, 0
3, 2580, Note_on_c, 1, 57, 127
3, 2610, Note_on_c, 1, 57, 0
3, 2610, Note_on_c, 1, 65, 127
3, 2640, Note_on_c, 1, 65, 0
3, 2640, Note_on_c, 1, 60, 127
3, 2670, Note_on_c, 1, 60, 0
3, 2670, Note_on_c, 1, 57, 127
3, 2700, Note_on_c, 1, 57, 0
3, 2700, Note_on_c, 1, 60, 127
3, 2715, Note_on_c, 1, 60, 0
3, 2715, Note_on_c, 1, 58, 127
3, 2730, Note_on_c, 1, 58, 0
3, 2730, Note_on_c, 1, 57, 127
3, 2745, Note_on_c, 1, 57, 0
3, 2745, Note_on_c, 1, 58, 127
3, 2760, Note_on_c, 1, 58, 0
3, 2760, Note_on_c, 1, 60, 127
3, 2790, Note_on_c, 1, 60, 0
3, 2790, Note_on_c, 1, 53, 127
3, 2820, Note_on_c, 1, 53, 0
3, 2820, Note_on_c, 1, 57, 127
3, 2850, Note_on_c, 1, 57, 0
3, 2850, Note_on_c, 1, 48, 127
3, 2880, Note_on_c, 1, 48, 0
3, 2880, Note_on_c, 1, 53, 127
3, 2895, Note_on_c, 1, 53, 0
3, 2910, Note_on_c, 1, 62, 127
3, 2940, Note_on_c, 1, 62, 0
3, 2940, Note_on_c, 1, 58, 127
3, 2955, Note_on_c, 1, 58, 0
3, 2955, Note_on_c, 1, 60, 127
3, 2970, Note_on_c, 1, 60, 0
3, 2970, Note_on_c, 1, 62, 127
3, 2985, Note_on_c, 1, 62, 0
3, 2985, Note_on_c, 1, 60, 127
3, 3000, Note_on_c, 1, 60, 0
3, 3000, Note_on_c, 1, 58, 127
3, 3030, Note_on_c, 1, 58, 0
3, 3030, Note_on_c, 1, 65, 127
3, 3060, Note_on_c, 1, 65, 0
3, 3060, Note_on_c, 1, 62, 127
3, 3090, Note_on_c, 1, 62, 0
3, 3090, Note_on_c, 1, 70, 127
3, 3120, Note_on_c, 1, 70, 0
3, 3120, Note_on_c, 1, 65, 127
3, 3150, Note_on_c, 1, 65, 0
3, 3150, Note_on_c, 1, 62, 127
3, 3180, Note_on_c, 1, 62, 0
3, 3180, Note_on_c, 1, 65, 127
3, 3195, Note_on_c, 1, 65, 0
3, 3195, Note_on_c, 1, 63, 127
3, 3210, Note_on_c, 1, 63, 0
3, 3210, Note_on_c, 1, 62, 127
3, 3225, Note_on_c, 1, 62, 0
3, 3225, Note_on_c, 1, 63, 127
3, 3240, Note_on_c, 1, 63, 0
3, 3240, Note_on_c, 1, 65, 127
3, 3270, Note_on_c, 1, 65, 0
3, 3270, Note_on_c, 1, 58, 127
3, 3300, Note_on_c, 1, 58, 0
3, 3300, Note_on_c, 1, 62, 127
3, 3330, Note_on_c, 1, 62, 0
3, 3330, Note_on_c, 1, 55, 127
3, 3360, Note_on_c, 1, 55, 0
3, 3360, Note_on_c, 1, 58, 127
3, 3375, Note_on_c, 1, 58, 0
3, 3390, Note_on_c, 1, 52, 127
3, 3420, Note_on_c, 1, 52, 0
3, 3420, Note_on_c, 1, 55, 127
3, 3435, Note_on_c, 1, 55, 0
3, 3435, Note_on_c, 1, 57, 127
3, 3450, Note_on_c, 1, 57, 0
3, 3450, Note_on_c, 1, 58, 127
3, 3465, Note_on_c, 1, 58, 0
3, 3465, Note_on_c, 1, 57, 127
3, 3480, Note_on_c, 1, 57, 0
3, 3480, Note_on_c, 1, 55, 127
3, 3510, Note_on_c, 1, 55, 0
3, 3510, Note_on_c, 1, 64, 127
3, 3540, Note_on_c, 1, 64, 0
3, 3540, Note_on_c, 1, 60, 127
3, 3570, Note_on_c, 1, 60, 0
3, 3570, Note_on_c, 1, 67, 127
3, 3600, Note_on_c, 1, 67, 0
3, 3600, Note_on_c, 1, 64, 127
3, 3630, Note_on_c, 1, 64, 0
3, 3630, Note_on_c, 1, 70, 127
3, 3660, Note_on_c, 1, 70, 0
3, 3660, Note_on_c, 1, 60, 127
3, 3675, Note_on_c, 1, 60, 0
3, 3675, Note_on_c, 1, 62, 127
3, 3690, Note_on_c, 1, 62, 0
3, 3690, Note_on_c, 1, 64, 127
3, 3705, Note_on_c, 1, 64, 0
3, 3705, Note_on_c, 1, 62, 127
3, 3720, Note_on_c, 1, 62, 0
3, 3720, Note_on_c, 1, 60, 127
3, 3750, Note_on_c, 1, 60, 0
3, 3750, Note_on_c, 1, 67, 127
3, 3780, Note_on_c, 1, 67, 0
3, 3780, Note_on_c, 1, 64, 127
3, 3810, Note_on_c, 1, 64, 0
3, 3810, Note_on_c, 1, 72, 127
3, 3840, Note_on_c, 1, 72, 0
3, 3840, Note_on_c, 1, 65, 127
3, 3870, Note_on_c, 1, 65, 0
3, 3870, Note_on_c, 1, 72, 127
3, 3900, Note_on_c, 1, 72, 0
3, 3900, Note_on_c, 1, 65, 127
3, 3915, Note_on_c, 1, 65, 0
3, 3915, Note_on_c, 1, 67, 127
3, 3930, Note_on_c, 1, 67, 0
3, 3930, Note_on_c, 1, 69, 127
3, 3945, Note_on_c, 1, 69, 0
3, 3945, Note_on_c, 1, 67, 127
3, 3960, Note_on_c, 1, 67, 0
3, 3960, Note_on_c, 1, 65, 127
3, 3990, Note_on_c, 1, 65, 0
3, 3990, Note_on_c, 1, 72, 127
3, 4020, Note_on_c, 1, 72, 0
3, 4020, Note_on_c, 1, 69, 127
3, 4050, Note_on_c, 1, 69, 0
3, 4050, Note_on_c, 1, 77, 127
3, 4080, Note_on_c, 1, 77, 0
3, 4080, Note_on_c, 1, 72, 127
3, 4110, Note_on_c, 1, 72, 0
3, 4110, Note_on_c, 1, 81, 127
3, 4140, Note_on_c, 1, 81, 0
3, 4140, Note_on_c, 1, 75, 127
3, 4155, Note_on_c, 1, 75, 0
3, 4155, Note_on_c, 1, 74, 127
3, 4170, Note_on_c, 1, 74, 0
3, 4170, Note_on_c, 1, 72, 127
3, 4185, Note_on_c, 1, 72, 0
3, 4185, Note_on_c, 1, 74, 127
3, 4200, Note_on_c, 1, 74, 0
3, 4200, Note_on_c, 1, 75, 127
3, 4230, Note_on_c, 1, 75, 0
3, 4230, Note_on_c, 1, 69, 127
3, 4260, Note_on_c, 1, 69, 0
3, 4260, Note_on_c, 1, 72, 127
3, 4290, Note_on_c, 1, 72, 0
3, 4290, Note_on_c, 1, 66, 127
3, 4320, Note_on_c, 1, 66, 0
3, 4320, Note_on_c, 1, 67, 127
3, 4320, Control_c, 1, 7, 111
3, 4335, Note_on_c, 1, 67, 0
3, 4350, Note_on_c, 1, 62, 127
3, 4350, Control_c, 1, 7, 110
3, 4370, Control_c, 1, 7, 109
3, 4380, Note_on_c, 1, 62, 0
3, 4380, Note_on_c, 1, 55, 127
3, 4390, Control_c, 1, 7, 108
3, 4395, Note_on_c, 1, 55, 0
3, 4395, Note_on_c, 1, 57, 127
3, 4410, Note_on_c, 1, 57, 0
3, 4410, Note_on_c, 1, 58, 127
3, 4410, Control_c, 1, 7, 107
3, 4425, Note_on_c, 1, 58, 0
3, 4425, Note_on_c, 1, 57, 127
3, 4430, Control_c, 1, 7, 106
3, 4440, Note_on_c, 1, 57, 0
3, 4440, Note_on_c, 1, 55, 127
3, 4450, Control_c, 1, 7, 105
3, 4470, Note_on_c, 1, 55, 0
3, 4470, Note_on_c, 1, 62, 127
3, 4470, Control_c, 1, 7, 104
3, 4490, Control_c, 1, 7, 103
3, 4500, Note_on_c, 1, 62, 0
3, 4500, Note_on_c, 1, 58, 127
3, 4510, Control_c, 1, 7, 102
3, 4530, Note_on_c, 1, 58, 0
3, 4530, Note_on_c, 1, 67, 127
3, 4530, Control_c, 1, 7, 101
3, 4550, Control_c, 1, 7, 100
3, 4560, Note_on_c, 1, 67, 0
3, 4560, Note_on_c, 1, 62, 127
3, 4570, Control_c, 1, 7, 99
3, 4590, Note_on_c, 1, 62, 0
3, 4590, Note_on_c, 1, 70, 127
3, 4590, Control_c, 1, 7, 98
3, 4610, Control_c, 1, 7, 97
3, 4620, Note_on_c, 1, 70, 0
3, 4620, Note_on_c, 1, 68, 127
3, 4630, Control_c, 1, 7, 96
3, 4635, Note_on_c, 1, 68, 0
3, 4635, Note_on_c, 1, 67, 127
3, 4650, Note_on_c, 1, 67, 0
3, 4650, Note_on_c, 1, 65, 127
3, 4650, Control_c, 1, 7, 95
3, 4665, Note_on_c, 1, 65, 0
3, 4665, Note_on_c, 1, 67, 127
3, 4670, Control_c, 1, 7, 94
3, 4680, Note_on_c, 1, 67, 0
3, 4680, Note_on_c, 1, 68, 127
3, 4690, Control_c, 1, 7, 93
3, 4710, Note_on_c, 1, 68, 0
3, 4710, Note_on_c, 1, 62, 127
3, 4710, Control_c, 1, 7, 92
3, 4730, Control_c, 1, 7, 91
3, 4740, Note_on_c, 1, 62, 0
3, 4740, Note_on_c, 1, 65, 127
3, 4750, Control_c, 1, 7, 90
3, 4770, Note_on_c, 1, 65, 0
3, 4770, Note_on_c, 1, 58, 127
3, 4770, Control_c, 1, 7, 89
3, 4790, Control_c, 1, 7, 88
3, 4820, Control_c, 1, 7, 87
3, 4830, Note_on_c, 1, 58, 0
3, 4830, Note_on_c, 1, 67, 127
3, 4840, Control_c, 1, 7, 86
3, 4860, Note_on_c, 1, 67, 0
3, 4860, Note_on_c, 1, 60, 127
3, 4860, Control_c, 1, 7, 85
3, 4875, Note_on_c, 1, 60, 0
3, 4875, Note_on_c, 1, 62, 127
3, 4880, Control_c, 1, 7, 84
3, 4890, Note_on_c, 1, 62, 0
3, 4890, Note_on_c, 1, 63, 127
3, 4900, Control_c, 1, 7, 83
3, 4905, Note_on_c, 1, 63, 0
3, 4905, Note_on_c, 1, 62, 127
3, 4920, Note_on_c, 1, 62, 0
3, 4920, Note_on_c, 1, 60, 127
3, 4920, Control_c, 1, 7, 82
3, 4940, Control_c, 1, 7, 81
3, 4950, Note_on_c, 1, 60, 0
3, 4950, Note_on_c, 1, 67, 127
3, 4960, Control_c, 1, 7, 80
3, 4980, Note_on_c, 1, 67, 0
3, 4980, Note_on_c, 1, 63, 127
3, 4980, Control_c, 1, 7, 79
3, 5000, Control_c, 1, 7, 78
3, 5010, Note_on_c, 1, 63, 0
3, 5010, Note_on_c, 1, 72, 127
3, 5020, Control_c, 1, 7, 77
3, 5040, Note_on_c, 1, 72, 0
3, 5040, Note_on_c, 1, 67, 127
3, 5040, Control_c, 1, 7, 76
3, 5060, Control_c, 1, 7, 75
3, 5070, Note_on_c, 1, 67, 0
3, 5070, Note_on_c, 1, 74, 127
3, 5080, Control_c, 1, 7, 74
3, 5100, Note_on_c, 1, 74, 0
3, 5100, Note_on_c, 1, 68, 127
3, 5100, Control_c, 1, 7, 73
3, 5115, Note_on_c, 1, 68, 0
3, 5115, Note_on_c, 1, 67, 127
3, 5120, Control_c, 1, 7, 72
3, 5130, Note_on_c, 1, 67, 0
3, 5130, Note_on_c, 1, 65, 127
3, 5140, Control_c, 1, 7, 71
3, 5145, Note_on_c, 1, 65, 0
3, 5145, Note_on_c, 1, 67, 127
3, 5160, Note_on_c, 1, 67, 0
3, 5160, Note_on_c, 1, 68, 127
3, 5160, Control_c, 1, 7, 70
3, 5180, Control_c, 1, 7, 69
3, 5190, Note_on_c, 1, 68, 0
3, 5190, Note_on_c, 1, 62, 127
3, 5200, Control_c, 1, 7, 68
3, 5220, Note_on_c, 1, 62, 0
3, 5220, Note_on_c, 1, 65, 127
3, 5220, Control_c, 1, 7, 67
3, 5240, Control_c, 1, 7, 66
3, 5250, Note_on_c, 1, 65, 0
3, 5250, Note_on_c, 1, 59, 127
3, 5260, Control_c, 1, 7, 65
3, 5280, Note_on_c, 1, 59, 0
3, 5280, Note_on_c, 1, 67, 127
3, 5280, Control_c, 1, 7, 64
3, 5300, Control_c, 1, 7, 64
3, 5310, Note_on_c, 1, 67, 0
3, 5310, Note_on_c, 1, 63, 127
3, 5310, Control_c, 1, 7, 65
3, 5320, Control_c, 1, 7, 66
3, 5330, Control_c, 1, 7, 67
3, 5340, Note_on_c, 1, 63, 0
3, 5340, Note_on_c, 1, 48, 127
3, 5340, Control_c, 1, 7, 67
3, 5355, Note_on_c, 1, 48, 0
3, 5355, Note_on_c, 1, 50, 127
3, 5360, Control_c, 1, 7, 68
3, 5370, Note_on_c, 1, 50, 0
3, 5370, Note_on_c, 1, 51, 127
3, 5380, Control_c, 1, 7, 69
3, 5385, Note_on_c, 1, 51, 0
3, 5385, Note_on_c, 1, 50, 127
3, 5400, Note_on_c, 1, 50, 0
3, 5400, Note_on_c, 1, 48, 127
3, 5400, Control_c, 1, 7, 70
3, 5410, Control_c, 1, 7, 71
3, 5430, Note_on_c, 1, 48, 0
3, 5430, Note_on_c, 1, 51, 127
3, 5430, Control_c, 1, 7, 72
3, 5450, Control_c, 1, 7, 73
3, 5460, Note_on_c, 1, 51, 0
3, 5460, Note_on_c, 1, 48, 127
3, 5460, Control_c, 1, 7, 74
3, 5475, Note_on_c, 1, 48, 0
3, 5475, Note_on_c, 1, 50, 127
3, 5480, Control_c, 1, 7, 75
3, 5490, Note_on_c, 1, 50, 0
3, 5490, Note_on_c, 1, 51, 127
3, 5500, Control_c, 1, 7, 76
3, 5505, Note_on_c, 1, 51, 0
3, 5505, Note_on_c, 1, 50, 127
3, 5510, Control_c, 1, 7, 77
3, 5520, Note_on_c, 1, 50, 0
3, 5520, Note_on_c, 1, 48, 127
3, 5530, Control_c, 1, 7, 78
3, 5550, Note_on_c, 1, 48, 0
3, 5550, Note_on_c, 1, 57, 127
3, 5550, Control_c, 1, 7, 79
3, 5560, Control_c, 1, 7, 80
3, 5565, Note_on_c, 1, 57, 0
3, 5565, Note_on_c, 1, 58, 127
3, 5580, Note_on_c, 1, 58, 0
3, 5580, Note_on_c, 1, 60, 127
3, 5580, Control_c, 1, 7, 81
3, 5595, Note_on_c, 1, 60, 0
3, 5595, Note_on_c, 1, 58, 127
3, 5600, Control_c, 1, 7, 82
3, 5610, Note_on_c, 1, 58, 0
3, 5610, Note_on_c, 1, 57, 127
3, 5610, Control_c, 1, 7, 83
3, 5625, Note_on_c, 1, 57, 0
3, 5625, Note_on_c, 1, 55, 127
3, 5630, Control_c, 1, 7, 84
3, 5640, Note_on_c, 1, 55, 0
3, 5640, Note_on_c, 1, 53, 127
3, 5650, Control_c, 1, 7, 85
3, 5660, Control_c, 1, 7, 86
3, 5670, Note_on_c, 1, 53, 0
3, 5670, Note_on_c, 1, 57, 127
3, 5680, Control_c, 1, 7, 87
3, 5700, Note_on_c, 1, 57, 0
3, 5700, Note_on_c, 1, 53, 127
3, 5700, Control_c, 1, 7, 88
3, 5715, Note_on_c, 1, 53, 0
3, 5715, Note_on_c, 1, 55, 127
3, 5720, Control_c, 1, 7, 89
3, 5730, Note_on_c, 1, 55, 0
3, 5730, Note_on_c, 1, 57, 127
3, 5730, Control_c, 1, 7, 90
3, 5745, Note_on_c, 1, 57, 0
3, 5745, Note_on_c, 1, 55, 127
3, 5750, Control_c, 1, 7, 91
3, 5760, Note_on_c, 1, 55, 0
3, 5760, Note_on_c, 1, 53, 127
3, 5770, Control_c, 1, 7, 92
3, 5780, Control_c, 1, 7, 93
3, 5790, Note_on_c, 1, 53, 0
3, 5790, Note_on_c, 1, 62, 127
3, 5800, Control_c, 1, 7, 94
3, 5820, Note_on_c, 1, 62, 0
3, 5820, Note_on_c, 1, 58, 127
3, 5820, Control_c, 1, 7, 95
3, 5830, Control_c, 1, 7, 96
3, 5835, Note_on_c, 1, 58, 0
3, 5835, Note_on_c, 1, 60, 127
3, 5850, Note_on_c, 1, 60, 0
3, 5850, Note_on_c, 1, 62, 127
3, 5850, Control_c, 1, 7, 97
3, 5865, Note_on_c, 1, 62, 0
3, 5865, Note_on_c, 1, 60, 127
3, 5870, Control_c, 1, 7, 98
3, 5880, Note_on_c, 1, 60, 0
3, 5880, Note_on_c, 1, 58, 127
3, 5880, Control_c, 1, 7, 99
3, 5900, Control_c, 1, 7, 100
3, 5910, Note_on_c, 1, 58, 0
3, 5910, Note_on_c, 1, 62, 127
3, 5920, Control_c, 1, 7, 101
3, 5930, Control_c, 1, 7, 102
3, 5940, Note_on_c, 1, 62, 0
3, 5940, Note_on_c, 1, 58, 127
3, 5950, Control_c, 1, 7, 103
3, 5955, Note_on_c, 1, 58, 0
3, 5955, Note_on_c, 1, 60, 127
3, 5970, Note_on_c, 1, 60, 0
3, 5970, Note_on_c, 1, 62, 127
3, 5970, Control_c, 1, 7, 104
3, 5980, Control_c, 1, 7, 105
3, 5985, Note_on_c, 1, 62, 0
3, 5985, Note_on_c, 1, 60, 127
3, 6000, Note_on_c, 1, 60, 0
3, 6000, Note_on_c, 1, 58, 127
3, 6000, Control_c, 1, 7, 106
3, 6020, Control_c, 1, 7, 107
3, 6030, Note_on_c, 1, 58, 0
3, 6030, Note_on_c, 1, 55, 127
3, 6030, Control_c, 1, 7, 108
3, 6060, Note_on_c, 1, 55, 0
3, 6060, Note_on_c, 1, 51, 127
3, 6075, Note_on_c, 1, 51, 0
3, 6075, Note_on_c, 1, 53, 127
3, 6090, Note_on_c, 1, 53, 0
3, 6090, Note_on_c, 1, 55, 127
3, 6105, Note_on_c, 1, 55, 0
3, 6105, Note_on_c, 1, 53, 127
3, 6120, Note_on_c, 1, 53, 0
3, 6120, Note_on_c, 1, 51, 127
3, 6150, Note_on_c, 1, 51, 0
3, 6150, Note_on_c, 1, 55, 127
3, 6180, Note_on_c, 1, 55, 0
3, 6180, Note_on_c, 1, 58, 127
3, 6195, Note_on_c, 1, 58, 0
3, 6195, Note_on_c, 1, 57, 127
3, 6210, Note_on_c, 1, 57, 0
3, 6210, Note_on_c, 1, 55, 127
3, 6225, Note_on_c, 1, 55, 0
3, 6225, Note_on_c, 1, 57, 127
3, 6240, Note_on_c, 1, 57, 0
3, 6240, Note_on_c, 1, 58, 127
3, 6300, Note_on_c, 1, 58, 0
3, 6300, Note_on_c, 1, 67, 127
3, 6315, Note_on_c, 1, 67, 0
3, 6315, Note_on_c, 1, 65, 127
3, 6330, Note_on_c, 1, 65, 0
3, 6330, Note_on_c, 1, 63, 127
3, 6345, Note_on_c, 1, 63, 0
3, 6345, Note_on_c, 1, 65, 127
3, 6360, Note_on_c, 1, 65, 0
3, 6360, Note_on_c, 1, 67, 127
3, 6375, Note_on_c, 1, 67, 0
3, 6390, Note_on_c, 1, 57, 127
3, 6420, Note_on_c, 1, 57, 0
3, 6420, Note_on_c, 1, 63, 127
3, 6435, Note_on_c, 1, 63, 0
3, 6435, Note_on_c, 1, 62, 127
3, 6450, Note_on_c, 1, 62, 0
3, 6450, Note_on_c, 1, 60, 127
3, 6465, Note_on_c, 1, 60, 0
3, 6465, Note_on_c, 1, 62, 127
3, 6480, Note_on_c, 1, 62, 0
3, 6480, Note_on_c, 1, 63, 127
3, 6495, Note_on_c, 1, 63, 0
3, 6510, Note_on_c, 1, 53, 127
3, 6540, Note_on_c, 1, 53, 0
3, 6540, Note_on_c, 1, 60, 127
3, 6555, Note_on_c, 1, 60, 0
3, 6555, Note_on_c, 1, 62, 127
3, 6570, Note_on_c, 1, 62, 0
3, 6570, Note_on_c, 1, 63, 127
3, 6585, Note_on_c, 1, 63, 0
3, 6585, Note_on_c, 1, 62, 127
3, 6600, Note_on_c, 1, 62, 0
3, 6600, Note_on_c, 1, 60, 127
3, 6615, Note_on_c, 1, 60, 0
3, 6630, Note_on_c, 1, 50, 127
3, 6660, Note_on_c, 1, 50, 0
3, 6660, Note_on_c, 1, 56, 127
3, 6675, Note_on_c, 1, 56, 0
3, 6675, Note_on_c, 1, 55, 127
3, 6690, Note_on_c, 1, 55, 0
3, 6690, Note_on_c, 1, 53, 127
3, 6705, Note_on_c, 1, 53, 0
3, 6705, Note_on_c, 1, 56, 127
3, 6720, Note_on_c, 1, 56, 0
3, 6720, Note_on_c, 1, 58, 127
3, 6750, Note_on_c, 1, 58, 0
3, 6780, Note_on_c, 1, 67, 127
3, 6795, Note_on_c, 1, 67, 0
3, 6795, Note_on_c, 1, 69, 127
3, 6810, Note_on_c, 1, 69, 0
3, 6810, Note_on_c, 1, 70, 127
3, 6825, Note_on_c, 1, 70, 0
3, 6825, Note_on_c, 1, 69, 127
3, 6840, Note_on_c, 1, 69, 0
3, 6840, Note_on_c, 1, 67, 127
3, 6855, Note_on_c, 1, 67, 0
3, 6870, Note_on_c, 1, 72, 127
3, 6900, Note_on_c, 1, 72, 0
3, 6900, Note_on_c, 1, 63, 127
3, 6915, Note_on_c, 1, 63, 0
3, 6915, Note_on_c, 1, 62, 127
3, 6930, Note_on_c, 1, 62, 0
3, 6930, Note_on_c, 1, 60, 127
3, 6945, Note_on_c, 1, 60, 0
3, 6945, Note_on_c, 1, 62, 127
3, 6960, Note_on_c, 1, 62, 0
3, 6960, Note_on_c, 1, 63, 127
3, 6975, Note_on_c, 1, 63, 0
3, 6990, Note_on_c, 1, 62, 127
3, 7020, Note_on_c, 1, 62, 0
3, 7020, Note_on_c, 1, 65, 127
3, 7035, Note_on_c, 1, 65, 0
3, 7035, Note_on_c, 1, 67, 127
3, 7050, Note_on_c, 1, 67, 0
3, 7050, Note_on_c, 1, 69, 127
3, 7065, Note_on_c, 1, 69, 0
3, 7065, Note_on_c, 1, 67, 127
3, 7080, Note_on_c, 1, 67, 0
3, 7080, Note_on_c, 1, 65, 127
3, 7095, Note_on_c, 1, 65, 0
3, 7110, Note_on_c, 1, 70, 127
3, 7140, Note_on_c, 1, 70, 0
3, 7140, Note_on_c, 1, 62, 127
3, 7155, Note_on_c, 1, 62, 0
3, 7155, Note_on_c, 1, 60, 127
3, 7170, Note_on_c, 1, 60, 0
3, 7170, Note_on_c, 1, 58, 127
3, 7185, Note_on_c, 1, 58, 0
3, 7185, Note_on_c, 1, 60, 127
3, 7200, Note_on_c, 1, 60, 0
3, 7200, Note_on_c, 1, 62, 127
3, 7215, Note_on_c, 1, 62, 0
3, 7230, Note_on_c, 1, 60, 127
3, 7260, Note_on_c, 1, 60, 0
3, 7260, Note_on_c, 1, 63, 127
3, 7275, Note_on_c, 1, 63, 0
3, 7275, Note_on_c, 1, 65, 127
3, 7290, Note_on_c, 1, 65, 0
3, 7290, Note_on_c, 1, 67, 127
3, 7305, Note_on_c, 1, 67, 0
3, 7305, Note_on_c, 1, 65, 127
3, 7320, Note_on_c, 1, 65, 0
3, 7320, Note_on_c, 1, 63, 127
3, 7335, Note_on_c, 1, 63, 0
3, 7350, Note_on_c, 1, 69, 127
3, 7380, Note_on_c, 1, 69, 0
3, 7380, Note_on_c, 1, 60, 127
3, 7395, Note_on_c, 1, 60, 0
3, 7395, Note_on_c, 1, 58, 127
3, 7410, Note_on_c, 1, 58, 0
3, 7410, Note_on_c, 1, 57, 127
3, 7425, Note_on_c, 1, 57, 0
3, 7425, Note_on_c, 1, 58, 127
3, 7440, Note_on_c, 1, 58, 0
3, 7440, Note_on_c, 1, 60, 127
3, 7455, Note_on_c, 1, 60, 0
3, 7470, Note_on_c, 1, 58, 127
3, 7515, Note_on_c, 1, 58, 0
3, 7515, Note_on_c, 1, 60, 127
3, 7530, Note_on_c, 1, 60, 0
3, 7530, Note_on_c, 1, 62, 127
3, 7545, Note_on_c, 1, 62, 0
3, 7545, Note_on_c, 1, 60, 127
3, 7560, Note_on_c, 1, 60, 0
3, 7560, Note_on_c, 1, 58, 127
3, 7575, Note_on_c, 1, 58, 0
3, 7590, Note_on_c, 1, 65, 127
3, 7620, Note_on_c, 1, 65, 0
3, 7620, Note_on_c, 1, 62, 127
3, 7650, Note_on_c, 1, 62, 0
3, 7650, Note_on_c, 1, 70, 127
3, 7740, Note_on_c, 1, 70, 0
3, 7740, Note_on_c, 1, 65, 127
3, 7755, Note_on_c, 1, 65, 0
3, 7755, Note_on_c, 1, 63, 127
3, 7770, Note_on_c, 1, 63, 0
3, 7770, Note_on_c, 1, 62, 127
3, 7785, Note_on_c, 1, 62, 0
3, 7785, Note_on_c, 1, 63, 127
3, 7800, Note_on_c, 1, 63, 0
3, 7800, Note_on_c, 1, 65, 127
3, 7830, Note_on_c, 1, 65, 0
3, 7830, Note_on_c, 1, 58, 127
3, 7860, Note_on_c, 1, 58, 0
3, 7860, Note_on_c, 1, 62, 127
3, 7890, Note_on_c, 1, 62, 0
3, 7890, Note_on_c, 1, 53, 127
3, 7950, Note_on_c, 1, 53, 0
3, 7950, Note_on_c, 1, 55, 127
3, 7980, Note_on_c, 1, 55, 0
3, 7980, Note_on_c, 1, 51, 127
3, 7995, Note_on_c, 1, 51, 0
3, 7995, Note_on_c, 1, 53, 127
3, 8010, Note_on_c, 1, 53, 0
3, 8010, Note_on_c, 1, 55, 127
3, 8025, Note_on_c, 1, 55, 0
3, 8025, Note_on_c, 1, 53, 127
3, 8040, Note_on_c, 1, 53, 0
3, 8040, Note_on_c, 1, 51, 127
3, 8070, Note_on_c, 1, 51, 0
3, 8070, Note_on_c, 1, 58, 127
3, 8100, Note_on_c, 1, 58, 0
3, 8100, Note_on_c, 1, 55, 127
3, 8160, Note_on_c, 1, 55, 0
3, 8160, Note_on_c, 1, 58, 127
3, 8190, Note_on_c, 1, 58, 0
3, 8190, Note_on_c, 1, 63, 127
3, 8220, Note_on_c, 1, 63, 0
3, 8220, Note_on_c, 1, 58, 127
3, 8235, Note_on_c, 1, 58, 0
3, 8235, Note_on_c, 1, 56, 127
3, 8250, Note_on_c, 1, 56, 0
3, 8250, Note_on_c, 1, 55, 127
3, 8265, Note_on_c, 1, 55, 0
3, 8265, Note_on_c, 1, 56, 127
3, 8280, Note_on_c, 1, 56, 0
3, 8280, Note_on_c, 1, 58, 127
3, 8295, Note_on_c, 1, 58, 0
3, 8310, Note_on_c, 1, 51, 127
3, 8340, Note_on_c, 1, 51, 0
3, 8340, Note_on_c, 1, 55, 127
3, 8370, Note_on_c, 1, 55, 0
3, 8370, Note_on_c, 1, 53, 127
3, 8400, Note_on_c, 1, 53, 0
3, 8400, Note_on_c, 1, 51, 127
3, 8430, Note_on_c, 1, 51, 0
3, 8430, Note_on_c, 1, 57, 127
3, 8460, Note_on_c, 1, 57, 0
3, 8460, Note_on_c, 1, 53, 127
3, 8475, Note_on_c, 1, 53, 0
3, 8475, Note_on_c, 1, 55, 127
3, 8490, Note_on_c, 1, 55, 0
3, 8490, Note_on_c, 1, 57, 127
3, 8505, Note_on_c, 1, 57, 0
3, 8505, Note_on_c, 1, 55, 127
3, 8520, Note_on_c, 1, 55, 0
3, 8520, Note_on_c, 1, 53, 127
3, 8535, Note_on_c, 1, 53, 0
3, 8550, Note_on_c, 1, 60, 127
3, 8580, Note_on_c, 1, 60, 0
3, 8580, Note_on_c, 1, 57, 127
3, 8610, Note_on_c, 1, 57, 0
3, 8610, Note_on_c, 1, 63, 127
3, 8625, Note_on_c, 1, 63, 0
3, 8625, Note_on_c, 1, 62, 127
3, 8640, Note_on_c, 1, 62, 0
3, 8640, Note_on_c, 1, 60, 127
3, 8655, Note_on_c, 1, 60, 0
3, 8655, Note_on_c, 1, 62, 127
3, 8660, Control_c, 1, 7, 111
3, 8670, Note_on_c, 1, 62, 0
3, 8670, Note_on_c, 1, 63, 127
3, 8680, Control_c, 1, 7, 110
3, 8690, Control_c, 1, 7, 109
3, 8700, Note_on_c, 1, 63, 0
3, 8700, Note_on_c, 1, 60, 127
3, 8700, Control_c, 1, 7, 108
3, 8715, Note_on_c, 1, 60, 0
3, 8715, Note_on_c, 1, 58, 127
3, 8720, Control_c, 1, 7, 107
3, 8730, Note_on_c, 1, 58, 0
3, 8730, Note_on_c, 1, 57, 127
3, 8730, Control_c, 1, 7, 106
3, 8740, Control_c, 1, 7, 105
3, 8745, Note_on_c, 1, 57, 0
3, 8745, Note_on_c, 1, 58, 127
3, 8760, Note_on_c, 1, 58, 0
3, 8760, Note_on_c, 1, 60, 127
3, 8760, Control_c, 1, 7, 104
3, 8770, Control_c, 1, 7, 103
3, 8780, Control_c, 1, 7, 102
3, 8790, Note_on_c, 1, 60, 0
3, 8790, Note_on_c, 1, 65, 127
3, 8800, Control_c, 1, 7, 101
3, 8810, Control_c, 1, 7, 100
3, 8820, Note_on_c, 1, 65, 0
3, 8820, Note_on_c, 1, 57, 127
3, 8820, Control_c, 1, 7, 99
3, 8840, Control_c, 1, 7, 98
3, 8850, Control_c, 1, 7, 97
3, 8860, Control_c, 1, 7, 96
3, 8880, Control_c, 1, 7, 95
3, 8890, Control_c, 1, 7, 94
3, 8900, Control_c, 1, 7, 93
3, 8910, Note_on_c, 1, 57, 0
3, 8910, Note_on_c, 1, 62, 127
3, 8910, Control_c, 1, 7, 92
3, 8925, Note_on_c, 1, 62, 0
3, 8925, Note_on_c, 1, 63, 127
3, 8930, Control_c, 1, 7, 91
3, 8940, Note_on_c, 1, 63, 0
3, 8940, Note_on_c, 1, 65, 127
3, 8940, Control_c, 1, 7, 90
3, 8950, Control_c, 1, 7, 89
3, 8955, Note_on_c, 1, 65, 0
3, 8955, Note_on_c, 1, 63, 127
3, 8970, Note_on_c, 1, 63, 0
3, 8970, Note_on_c, 1, 62, 127
3, 8970, Control_c, 1, 7, 88
3, 8980, Control_c, 1, 7, 87
3, 8990, Control_c, 1, 7, 86
3, 9010, Control_c, 1, 7, 85
3, 9020, Control_c, 1, 7, 84
3, 9030, Control_c, 1, 7, 83
3, 9050, Control_c, 1, 7, 82
3, 9060, Note_on_c, 1, 62, 0
3, 9060, Note_on_c, 1, 63, 127
3, 9060, Control_c, 1, 7, 81
3, 9070, Control_c, 1, 7, 80
3, 9075, Note_on_c, 1, 63, 0
3, 9075, Note_on_c, 1, 62, 127
3, 9090, Note_on_c, 1, 62, 0
3, 9090, Note_on_c, 1, 60, 127
3, 9090, Control_c, 1, 7, 79
3, 9100, Control_c, 1, 7, 78
3, 9110, Control_c, 1, 7, 77
3, 9120, Note_on_c, 1, 60, 0
3, 9120, Note_on_c, 1, 62, 127
3, 9600, Note_on_c, 1, 62, 0
3, 9600, End_track
4, 0, Start_track
4, 0, MIDI_port, 0
4, 0, Title_t, "BASSOON"
4, 0, Program_c, 2, 0
4, 0, Control_c, 2, 7, 106
4, 0, Control_c, 2, 10, 88
4, 0, Note_on_c, 2, 58, 127
4, 20, Control_c, 2, 7, 111
4, 60, Note_on_c, 2, 58, 0
4, 60, Note_on_c, 2, 46, 127
4, 90, Control_c, 2, 7, 110
4, 120, Note_on_c, 2, 46, 0
4, 120, Note_on_c, 2, 50, 127
4, 160, Control_c, 2, 7, 109
4, 180, Note_on_c, 2, 50, 0
4, 180, Note_on_c, 2, 53, 127
4, 240, Note_on_c, 2, 53, 0
4, 240, Note_on_c, 2, 58, 127
4, 360, Note_on_c, 2, 58, 0
4, 540, Note_on_c, 2, 46, 127
4, 600, Note_on_c, 2, 46, 0
4, 600, Note_on_c, 2, 51, 127
4, 660, Note_on_c, 2, 51, 0
4, 660, Note_on_c, 2, 55, 127
4, 720, Note_on_c, 2, 55, 0
4, 720, Note_on_c, 2, 58, 127
4, 840, Note_on_c, 2, 58, 0
4, 990, Control_c, 2, 7, 108
4, 1010, Control_c, 2, 7, 107
4, 1020, Note_on_c, 2, 46, 127
4, 1020, Control_c, 2, 7, 106
4, 1030, Control_c, 2, 7, 105
4, 1040, Control_c, 2, 7, 104
4, 1060, Control_c, 2, 7, 103
4, 1070, Control_c, 2, 7, 102
4, 1080, Note_on_c, 2, 46, 0
4, 1080, Note_on_c, 2, 48, 127
4, 1080, Control_c, 2, 7, 101
4, 1090, Control_c, 2, 7, 100
4, 1110, Control_c, 2, 7, 99
4, 1120, Control_c, 2, 7, 98
4, 1130, Control_c, 2, 7, 97
4, 1140, Note_on_c, 2, 48, 0
4, 1140, Note_on_c, 2, 51, 127
4, 1140, Control_c, 2, 7, 96
4, 1160, Control_c, 2, 7, 95
4, 1170, Control_c, 2, 7, 94
4, 1180, Control_c, 2, 7, 93
4, 1190, Control_c, 2, 7, 92
4, 1200, Note_on_c, 2, 51, 0
4, 1200, Note_on_c, 2, 57, 127
4, 1210, Control_c, 2, 7, 91
4, 1220, Control_c, 2, 7, 90
4, 1230, Control_c, 2, 7, 89
4, 1240, Control_c, 2, 7, 88
4, 1260, Control_c, 2, 7, 87
4, 1270, Control_c, 2, 7, 86
4, 1280, Control_c, 2, 7, 85
4, 1290, Control_c, 2, 7, 84
4, 1310, Control_c, 2, 7, 83
4, 1320, Note_on_c, 2, 57, 0
4, 1320, Control_c, 2, 7, 82
4, 1330, Control_c, 2, 7, 81
4, 1340, Control_c, 2, 7, 80
4, 1360, Control_c, 2, 7, 79
4, 1370, Control_c, 2, 7, 78
4, 1380, Control_c, 2, 7, 77
4, 1390, Control_c, 2, 7, 76
4, 1410, Control_c, 2, 7, 75
4, 1420, Control_c, 2, 7, 74
4, 1430, Control_c, 2, 7, 73
4, 1440, Control_c, 2, 7, 72
4, 1450, Control_c, 2, 7, 71
4, 1470, Note_on_c, 2, 46, 127
4, 1485, Note_on_c, 2, 46, 0
4, 1485, Note_on_c, 2, 48, 127
4, 1500, Note_on_c, 2, 48, 0
4, 1500, Note_on_c, 2, 50, 127
4, 1515, Note_on_c, 2, 50, 0
4, 1515, Note_on_c, 2, 48, 127
4, 1530, Note_on_c, 2, 48, 0
4, 1530, Note_on_c, 2, 51, 127
4, 1560, Note_on_c, 2, 51, 0
4, 1680, Note_on_c, 2, 45, 127
4, 1695, Note_on_c, 2, 45, 0
4, 1695, Note_on_c, 2, 46, 127
4, 1710, Note_on_c, 2, 46, 0
4, 1710, Note_on_c, 2, 48, 127
4, 1725, Note_on_c, 2, 48, 0
4, 1725, Note_on_c, 2, 46, 127
4, 1740, Note_on_c, 2, 46, 0
4, 1740, Note_on_c, 2, 45, 127
4, 1770, Note_on_c, 2, 45, 0
4, 1770, Note_on_c, 2, 50, 127
4, 1800, Note_on_c, 2, 50, 0
4, 1950, Note_on_c, 2, 55, 127
4, 1965, Note_on_c, 2, 55, 0
4, 1965, Note_on_c, 2, 57, 127
4, 1980, Note_on_c, 2, 57, 0
4, 1980, Note_on_c, 2, 58, 127
4, 1995, Note_on_c, 2, 58, 0
4, 1995, Note_on_c, 2, 57, 127
4, 2010, Note_on_c, 2, 57, 0
4, 2010, Note_on_c, 2, 55, 127
4, 2040, Note_on_c, 2, 55, 0
4, 2040, Note_on_c, 2, 60, 127
4, 2055, Note_on_c, 2, 60, 0
4, 2070, Note_on_c, 2, 48, 127
4, 2085, Note_on_c, 2, 48, 0
4, 2085, Note_on_c, 2, 50, 127
4, 2100, Note_on_c, 2, 50, 0
4, 2100, Note_on_c, 2, 51, 127
4, 2115, Note_on_c, 2, 51, 0
4, 2115, Note_on_c, 2, 50, 127
4, 2130, Note_on_c, 2, 50, 0
4, 2130, Note_on_c, 2, 48, 127
4, 2160, Note_on_c, 2, 48, 0
4, 2160, Note_on_c, 2, 53, 127
4, 2190, Note_on_c, 2, 53, 0
4, 2220, Note_on_c, 2, 41, 127
4, 2250, Note_on_c, 2, 41, 0
4, 2310, Note_on_c, 2, 60, 127
4, 2340, Note_on_c, 2, 60, 0
4, 2340, Note_on_c, 2, 57, 127
4, 2370, Note_on_c, 2, 57, 0
4, 2370, Note_on_c, 2, 53, 127
4, 2400, Note_on_c, 2, 53, 0
4, 2420, Control_c, 2, 7, 111
4, 2430, Note_on_c, 2, 41, 127
4, 2445, Note_on_c, 2, 41, 0
4, 2445, Note_on_c, 2, 43, 127
4, 2460, Note_on_c, 2, 43, 0
4, 2460, Note_on_c, 2, 45, 127
4, 2475, Note_on_c, 2, 45, 0
4, 2475, Note_on_c, 2, 43, 127
4, 2490, Note_on_c, 2, 43, 0
4, 2490, Note_on_c, 2, 41, 127
4, 2520, Note_on_c, 2, 41, 0
4, 2520, Note_on_c, 2, 48, 127
4, 2530, Control_c, 2, 7, 110
4, 2550, Note_on_c, 2, 48, 0
4, 2550, Note_on_c, 2, 45, 127
4, 2580, Note_on_c, 2, 45, 0
4, 2580, Note_on_c, 2, 53, 127
4, 2610, Note_on_c, 2, 53, 0
4, 2610, Note_on_c, 2, 48, 127
4, 2640, Note_on_c, 2, 48, 0
4, 2640, Note_on_c, 2, 45, 127
4, 2670, Note_on_c, 2, 45, 0
4, 2670, Note_on_c, 2, 48, 127
4, 2685, Note_on_c, 2, 48, 0
4, 2685, Note_on_c, 2, 46, 127
4, 2700, Note_on_c, 2, 46, 0
4, 2700, Note_on_c, 2, 45, 127
4, 2715, Note_on_c, 2, 45, 0
4, 2715, Note_on_c, 2, 46, 127
4, 2730, Note_on_c, 2, 46, 0
4, 2730, Note_on_c, 2, 48, 127
4, 2760, Note_on_c, 2, 48, 0
4, 2760, Note_on_c, 2, 41, 127
4, 2790, Note_on_c, 2, 41, 0
4, 2790, Note_on_c, 2, 45, 127
4, 2820, Note_on_c, 2, 45, 0
4, 2820, Note_on_c, 2, 36, 127
4, 2850, Note_on_c, 2, 36, 0
4, 2850, Note_on_c, 2, 51, 127
4, 2880, Note_on_c, 2, 51, 0
4, 2880, Note_on_c, 2, 50, 127
4, 2895, Note_on_c, 2, 50, 0
4, 2910, Note_on_c, 2, 46, 127
4, 2925, Note_on_c, 2, 46, 0
4, 2925, Note_on_c, 2, 48, 127
4, 2940, Note_on_c, 2, 48, 0
4, 2940, Note_on_c, 2, 50, 127
4, 2955, Note_on_c, 2, 50, 0
4, 2955, Note_on_c, 2, 48, 127
4, 2970, Note_on_c, 2, 48, 0
4, 2970, Note_on_c, 2, 46, 127
4, 3000, Note_on_c, 2, 46, 0
4, 3000, Note_on_c, 2, 53, 127
4, 3030, Note_on_c, 2, 53, 0
4, 3030, Note_on_c, 2, 50, 127
4, 3060, Note_on_c, 2, 50, 0
4, 3060, Note_on_c, 2, 58, 127
4, 3090, Note_on_c, 2, 58, 0
4, 3090, Note_on_c, 2, 53, 127
4, 3120, Note_on_c, 2, 53, 0
4, 3120, Note_on_c, 2, 50, 127
4, 3150, Note_on_c, 2, 50, 0
4, 3150, Note_on_c, 2, 53, 127
4, 3165, Note_on_c, 2, 53, 0
4, 3165, Note_on_c, 2, 51, 127
4, 3180, Note_on_c, 2, 51, 0
4, 3180, Note_on_c, 2, 50, 127
4, 3195, Note_on_c, 2, 50, 0
4, 3195, Note_on_c, 2, 51, 127
4, 3210, Note_on_c, 2, 51, 0
4, 3210, Note_on_c, 2, 53, 127
4, 3240, Note_on_c, 2, 53, 0
4, 3240, Note_on_c, 2, 46, 127
4, 3270, Note_on_c, 2, 46, 0
4, 3270, Note_on_c, 2, 50, 127
4, 3300, Note_on_c, 2, 50, 0
4, 3300, Note_on_c, 2, 43, 127
4, 3330, Note_on_c, 2, 43, 0
4, 3330, Note_on_c, 2, 46, 127
4, 3360, Note_on_c, 2, 46, 0
4, 3360, Note_on_c, 2, 40, 127
4, 3375, Note_on_c, 2, 40, 0
4, 3390, Note_on_c, 2, 43, 127
4, 3405, Note_on_c, 2, 43, 0
4, 3405, Note_on_c, 2, 45, 127
4, 3420, Note_on_c, 2, 45, 0
4, 3420, Note_on_c, 2, 46, 127
4, 3435, Note_on_c, 2, 46, 0
4, 3435, Note_on_c, 2, 45, 127
4, 3450, Note_on_c, 2, 45, 0
4, 3450, Note_on_c, 2, 43, 127
4, 3480, Note_on_c, 2, 43, 0
4, 3480, Note_on_c, 2, 52, 127
4, 3510, Note_on_c, 2, 52, 0
4, 3510, Note_on_c, 2, 48, 127
4, 3540, Note_on_c, 2, 48, 0
4, 3540, Note_on_c, 2, 55, 127
4, 3570, Note_on_c, 2, 55, 0
4, 3570, Note_on_c, 2, 52, 127
4, 3600, Note_on_c, 2, 52, 0
4, 3600, Note_on_c, 2, 58, 127
4, 3630, Note_on_c, 2, 58, 0
4, 3630, Note_on_c, 2, 48, 127
4, 3645, Note_on_c, 2, 48, 0
4, 3645, Note_on_c, 2, 50, 127
4, 3660, Note_on_c, 2, 50, 0
4, 3660, Note_on_c, 2, 52, 127
4, 3675, Note_on_c, 2, 52, 0
4, 3675, Note_on_c, 2, 50, 127
4, 3690, Note_on_c, 2, 50, 0
4, 3690, Note_on_c, 2, 48, 127
4, 3720, Note_on_c, 2, 48, 0
4, 3720, Note_on_c, 2, 55, 127
4, 3750, Note_on_c, 2, 55, 0
4, 3750, Note_on_c, 2, 52, 127
4, 3780, Note_on_c, 2, 52, 0
4, 3780, Note_on_c, 2, 60, 127
4, 3810, Note_on_c, 2, 60, 0
4, 3810, Note_on_c, 2, 55, 127
4, 3840, Note_on_c, 2, 55, 0
4, 3840, Note_on_c, 2, 57, 127
4, 3900, Note_on_c, 2, 57, 0
4, 3900, Note_on_c, 2, 60, 127
4, 3960, Note_on_c, 2, 60, 0
4, 3960, Note_on_c, 2, 57, 127
4, 4020, Note_on_c, 2, 57, 0
4, 4020, Note_on_c, 2, 53, 127
4, 4080, Note_on_c, 2, 53, 0
4, 4080, Note_on_c, 2, 54, 127
4, 4140, Note_on_c, 2, 54, 0
4, 4140, Note_on_c, 2, 57, 127
4, 4200, Note_on_c, 2, 57, 0
4, 4200, Note_on_c, 2, 54, 127
4, 4260, Note_on_c, 2, 54, 0
4, 4260, Note_on_c, 2, 50, 127
4, 4320, Note_on_c, 2, 50, 0
4, 4320, Note_on_c, 2, 55, 127
4, 4330, Control_c, 2, 7, 110
4, 4350, Note_on_c, 2, 55, 0
4, 4350, Note_on_c, 2, 43, 127
4, 4360, Control_c, 2, 7, 109
4, 4365, Note_on_c, 2, 43, 0
4, 4365, Note_on_c, 2, 45, 127
4, 4380, Note_on_c, 2, 45, 0
4, 4380, Note_on_c, 2, 46, 127
4, 4380, Control_c, 2, 7, 108
4, 4395, Note_on_c, 2, 46, 0
4, 4395, Note_on_c, 2, 45, 127
4, 4410, Note_on_c, 2, 45, 0
4, 4410, Note_on_c, 2, 43, 127
4, 4410, Control_c, 2, 7, 107
4, 4430, Control_c, 2, 7, 106
4, 4440, Note_on_c, 2, 43, 0
4, 4440, Note_on_c, 2, 50, 127
4, 4460, Control_c, 2, 7, 105
4, 4470, Note_on_c, 2, 50, 0
4, 4470, Note_on_c, 2, 46, 127
4, 4480, Control_c, 2, 7, 104
4, 4500, Note_on_c, 2, 46, 0
4, 4500, Note_on_c, 2, 55, 127
4, 4510, Control_c, 2, 7, 103
4, 4530, Note_on_c, 2, 55, 0
4, 4530, Note_on_c, 2, 50, 127
4, 4530, Control_c, 2, 7, 102
4, 4550, Control_c, 2, 7, 101
4, 4560, Note_on_c, 2, 50, 0
4, 4560, Note_on_c, 2, 58, 127
4, 4580, Control_c, 2, 7, 100
4, 4590, Note_on_c, 2, 58, 0
4, 4590, Note_on_c, 2, 56, 127
4, 4600, Control_c, 2, 7, 99
4, 4605, Note_on_c, 2, 56, 0
4, 4605, Note_on_c, 2, 55, 127
4, 4620, Note_on_c, 2, 55, 0
4, 4620, Note_on_c, 2, 53, 127
4, 4630, Control_c, 2, 7, 98
4, 4635, Note_on_c, 2, 53, 0
4, 4635, Note_on_c, 2, 55, 127
4, 4650, Note_on_c, 2, 55, 0
4, 4650, Note_on_c, 2, 56, 127
4, 4650, Control_c, 2, 7, 97
4, 4680, Note_on_c, 2, 56, 0
4, 4680, Note_on_c, 2, 50, 127
4, 4680, Control_c, 2, 7, 96
4, 4700, Control_c, 2, 7, 95
4, 4710, Note_on_c, 2, 50, 0
4, 4710, Note_on_c, 2, 53, 127
4, 4720, Control_c, 2, 7, 94
4, 4740, Note_on_c, 2, 53, 0
4, 4740, Note_on_c, 2, 46, 127
4, 4750, Control_c, 2, 7, 93
4, 4770, Note_on_c, 2, 46, 0
4, 4770, Note_on_c, 2, 50, 127
4, 4770, Control_c, 2, 7, 92
4, 4800, Note_on_c, 2, 50, 0
4, 4800, Note_on_c, 2, 51, 127
4, 4800, Control_c, 2, 7, 91
4, 4820, Control_c, 2, 7, 90
4, 4850, Control_c, 2, 7, 89
4, 4860, Note_on_c, 2, 51, 0
4, 4860, Note_on_c, 2, 55, 127
4, 4870, Control_c, 2, 7, 88
4, 4900, Control_c, 2, 7, 87
4, 4920, Note_on_c, 2, 55, 0
4, 4920, Note_on_c, 2, 51, 127
4, 4920, Control_c, 2, 7, 86
4, 4940, Control_c, 2, 7, 85
4, 4970, Control_c, 2, 7, 84
4, 4980, Note_on_c, 2, 51, 0
4, 4980, Note_on_c, 2, 48, 127
4, 4990, Control_c, 2, 7, 83
4, 5020, Control_c, 2, 7, 82
4, 5040, Note_on_c, 2, 48, 0
4, 5040, Note_on_c, 2, 47, 127
4, 5040, Control_c, 2, 7, 81
4, 5070, Control_c, 2, 7, 80
4, 5090, Control_c, 2, 7, 79
4, 5100, Note_on_c, 2, 47, 0
4, 5100, Note_on_c, 2, 50, 127
4, 5110, Control_c, 2, 7, 78
4, 5140, Control_c, 2, 7, 77
4, 5160, Note_on_c, 2, 50, 0
4, 5160, Note_on_c, 2, 47, 127
4, 5160, Control_c, 2, 7, 76
4, 5190, Control_c, 2, 7, 75
4, 5210, Control_c, 2, 7, 74
4, 5220, Note_on_c, 2, 47, 0
4, 5220, Note_on_c, 2, 43, 127
4, 5240, Control_c, 2, 7, 73
4, 5260, Control_c, 2, 7, 72
4, 5280, Note_on_c, 2, 43, 0
4, 5280, Note_on_c, 2, 51, 127
4, 5280, Control_c, 2, 7, 75
4, 5300, Control_c, 2, 7, 76
4, 5310, Note_on_c, 2, 51, 0
4, 5310, Note_on_c, 2, 36, 127
4, 5320, Control_c, 2, 7, 77
4, 5325, Note_on_c, 2, 36, 0
4, 5325, Note_on_c, 2, 38, 127
4, 5340, Note_on_c, 2, 38, 0
4, 5340, Note_on_c, 2, 39, 127
4, 5340, Control_c, 2, 7, 78
4, 5355, Note_on_c, 2, 39, 0
4, 5355, Note_on_c, 2, 38, 127
4, 5360, Control_c, 2, 7, 79
4, 5370, Note_on_c, 2, 38, 0
4, 5370, Note_on_c, 2, 36, 127
4, 5370, Control_c, 2, 7, 80
4, 5390, Control_c, 2, 7, 81
4, 5400, Note_on_c, 2, 36, 0
4, 5400, Note_on_c, 2, 48, 127
4, 5410, Control_c, 2, 7, 82
4, 5430, Control_c, 2, 7, 83
4, 5450, Control_c, 2, 7, 84
4, 5460, Control_c, 2, 7, 85
4, 5480, Control_c, 2, 7, 86
4, 5490, Note_on_c, 2, 48, 0
4, 5490, Note_on_c, 2, 46, 127
4, 5500, Control_c, 2, 7, 87
4, 5520, Note_on_c, 2, 46, 0
4, 5520, Note_on_c, 2, 45, 127
4, 5520, Control_c, 2, 7, 88
4, 5530, Control_c, 2, 7, 89
4, 5550, Note_on_c, 2, 45, 0
4, 5550, Note_on_c, 2, 41, 127
4, 5550, Control_c, 2, 7, 90
4, 5565, Note_on_c, 2, 41, 0
4, 5565, Note_on_c, 2, 43, 127
4, 5570, Control_c, 2, 7, 91
4, 5580, Note_on_c, 2, 43, 0
4, 5580, Note_on_c, 2, 45, 127
4, 5590, Control_c, 2, 7, 92
4, 5595, Note_on_c, 2, 45, 0
4, 5595, Note_on_c, 2, 43, 127
4, 5610, Note_on_c, 2, 43, 0
4, 5610, Note_on_c, 2, 41, 127
4, 5610, Control_c, 2, 7, 93
4, 5620, Control_c, 2, 7, 94
4, 5640, Note_on_c, 2, 41, 0
4, 5640, Note_on_c, 2, 53, 127
4, 5640, Control_c, 2, 7, 95
4, 5660, Control_c, 2, 7, 96
4, 5680, Control_c, 2, 7, 97
4, 5690, Control_c, 2, 7, 98
4, 5710, Control_c, 2, 7, 99
4, 5730, Note_on_c, 2, 53, 0
4, 5730, Note_on_c, 2, 51, 127
4, 5730, Control_c, 2, 7, 100
4, 5750, Control_c, 2, 7, 101
4, 5760, Note_on_c, 2, 51, 0
4, 5760, Note_on_c, 2, 50, 127
4, 5770, Control_c, 2, 7, 102
4, 5780, Control_c, 2, 7, 103
4, 5790, Note_on_c, 2, 50, 0
4, 5790, Note_on_c, 2, 46, 127
4, 5800, Control_c, 2, 7, 104
4, 5805, Note_on_c, 2, 46, 0
4, 5805, Note_on_c, 2, 48, 127
4, 5820, Note_on_c, 2, 48, 0
4, 5820, Note_on_c, 2, 50, 127
4, 5820, Control_c, 2, 7, 105
4, 5835, Note_on_c, 2, 50, 0
4, 5835, Note_on_c, 2, 48, 127
4, 5840, Control_c, 2, 7, 106
4, 5850, Note_on_c, 2, 48, 0
4, 5850, Note_on_c, 2, 46, 127
4, 5850, Control_c, 2, 7, 107
4, 5880, Note_on_c, 2, 46, 0
4, 5880, Note_on_c, 2, 58, 127
4, 5970, Note_on_c, 2, 58, 0
4, 5970, Note_on_c, 2, 56, 127
4, 6000, Note_on_c, 2, 56, 0
4, 6000, Note_on_c, 2, 55, 127
4, 6030, Note_on_c, 2, 55, 0
4, 6030, Note_on_c, 2, 39, 127
4, 6045, Note_on_c, 2, 39, 0
4, 6045, Note_on_c, 2, 41, 127
4, 6060, Note_on_c, 2, 41, 0
4, 6060, Note_on_c, 2, 43, 127
4, 6075, Note_on_c, 2, 43, 0
4, 6075, Note_on_c, 2, 41, 127
4, 6090, Note_on_c, 2, 41, 0
4, 6090, Note_on_c, 2, 39, 127
4, 6120, Note_on_c, 2, 39, 0
4, 6120, Note_on_c, 2, 51, 127
4, 6210, Note_on_c, 2, 51, 0
4, 6210, Note_on_c, 2, 50, 127
4, 6240, Note_on_c, 2, 50, 0
4, 6240, Note_on_c, 2, 48, 127
4, 6270, Note_on_c, 2, 48, 0
4, 6270, Note_on_c, 2, 51, 127
4, 6285, Note_on_c, 2, 51, 0
4, 6285, Note_on_c, 2, 50, 127
4, 6300, Note_on_c, 2, 50, 0
4, 6300, Note_on_c, 2, 48, 127
4, 6315, Note_on_c, 2, 48, 0
4, 6315, Note_on_c, 2, 50, 127
4, 6330, Note_on_c, 2, 50, 0
4, 6330, Note_on_c, 2, 51, 127
4, 6360, Note_on_c, 2, 51, 0
4, 6360, Note_on_c, 2, 45, 127
4, 6390, Note_on_c, 2, 45, 0
4, 6390, Note_on_c, 2, 60, 127
4, 6405, Note_on_c, 2, 60, 0
4, 6405, Note_on_c, 2, 58, 127
4, 6420, Note_on_c, 2, 58, 0
4, 6420, Note_on_c, 2, 57, 127
4, 6435, Note_on_c, 2, 57, 0
4, 6435, Note_on_c, 2, 58, 127
4, 6450, Note_on_c, 2, 58, 0
4, 6450, Note_on_c, 2, 60, 127
4, 6480, Note_on_c, 2, 60, 0
4, 6480, Note_on_c, 2, 53, 127
4, 6495, Note_on_c, 2, 53, 0
4, 6510, Note_on_c, 2, 57, 127
4, 6525, Note_on_c, 2, 57, 0
4, 6525, Note_on_c, 2, 58, 127
4, 6540, Note_on_c, 2, 58, 0
4, 6540, Note_on_c, 2, 60, 127
4, 6555, Note_on_c, 2, 60, 0
4, 6555, Note_on_c, 2, 58, 127
4, 6570, Note_on_c, 2, 58, 0
4, 6570, Note_on_c, 2, 57, 127
4, 6600, Note_on_c, 2, 57, 0
4, 6600, Note_on_c, 2, 62, 127
4, 6630, Note_on_c, 2, 62, 0
4, 6630, Note_on_c, 2, 53, 127
4, 6645, Note_on_c, 2, 53, 0
4, 6645, Note_on_c, 2, 51, 127
4, 6660, Note_on_c, 2, 51, 0
4, 6660, Note_on_c, 2, 50, 127
4, 6675, Note_on_c, 2, 50, 0
4, 6675, Note_on_c, 2, 51, 127
4, 6690, Note_on_c, 2, 51, 0
4, 6690, Note_on_c, 2, 53, 127
4, 6720, Note_on_c, 2, 53, 0
4, 6720, Note_on_c, 2, 51, 127
4, 6735, Note_on_c, 2, 51, 0
4, 6750, Note_on_c, 2, 55, 127
4, 6765, Note_on_c, 2, 55, 0
4, 6765, Note_on_c, 2, 57, 127
4, 6780, Note_on_c, 2, 57, 0
4, 6780, Note_on_c, 2, 58, 127
4, 6795, Note_on_c, 2, 58, 0
4, 6795, Note_on_c, 2, 57, 127
4, 6810, Note_on_c, 2, 57, 0
4, 6810, Note_on_c, 2, 55, 127
4, 6840, Note_on_c, 2, 55, 0
4, 6840, Note_on_c, 2, 60, 127
4, 6855, Note_on_c, 2, 60, 0
4, 6870, Note_on_c, 2, 51, 127
4, 6885, Note_on_c, 2, 51, 0
4, 6885, Note_on_c, 2, 50, 127
4, 6900, Note_on_c, 2, 50, 0
4, 6900, Note_on_c, 2, 48, 127
4, 6915, Note_on_c, 2, 48, 0
4, 6915, Note_on_c, 2, 50, 127
4, 6930, Note_on_c, 2, 50, 0
4, 6930, Note_on_c, 2, 51, 127
4, 6960, Note_on_c, 2, 51, 0
4, 6960, Note_on_c, 2, 50, 127
4, 6975, Note_on_c, 2, 50, 0
4, 6990, Note_on_c, 2, 53, 127
4, 7005, Note_on_c, 2, 53, 0
4, 7005, Note_on_c, 2, 55, 127
4, 7020, Note_on_c, 2, 55, 0
4, 7020, Note_on_c, 2, 57, 127
4, 7035, Note_on_c, 2, 57, 0
4, 7035, Note_on_c, 2, 55, 127
4, 7050, Note_on_c, 2, 55, 0
4, 7050, Note_on_c, 2, 53, 127
4, 7080, Note_on_c, 2, 53, 0
4, 7080, Note_on_c, 2, 58, 127
4, 7095, Note_on_c, 2, 58, 0
4, 7110, Note_on_c, 2, 50, 127
4, 7125, Note_on_c, 2, 50, 0
4, 7125, Note_on_c, 2, 48, 127
4, 7140, Note_on_c, 2, 48, 0
4, 7140, Note_on_c, 2, 46, 127
4, 7155, Note_on_c, 2, 46, 0
4, 7155, Note_on_c, 2, 48, 127
4, 7170, Note_on_c, 2, 48, 0
4, 7170, Note_on_c, 2, 50, 127
4, 7200, Note_on_c, 2, 50, 0
4, 7200, Note_on_c, 2, 48, 127
4, 7215, Note_on_c, 2, 48, 0
4, 7230, Note_on_c, 2, 51, 127
4, 7245, Note_on_c, 2, 51, 0
4, 7245, Note_on_c, 2, 53, 127
4, 7260, Note_on_c, 2, 53, 0
4, 7260, Note_on_c, 2, 55, 127
4, 7275, Note_on_c, 2, 55, 0
4, 7275, Note_on_c, 2, 53, 127
4, 7290, Note_on_c, 2, 53, 0
4, 7290, Note_on_c, 2, 51, 127
4, 7320, Note_on_c, 2, 51, 0
4, 7320, Note_on_c, 2, 57, 127
4, 7335, Note_on_c, 2, 57, 0
4, 7350, Note_on_c, 2, 48, 127
4, 7365, Note_on_c, 2, 48, 0
4, 7365, Note_on_c, 2, 46, 127
4, 7380, Note_on_c, 2, 46, 0
4, 7380, Note_on_c, 2, 45, 127
4, 7395, Note_on_c, 2, 45, 0
4, 7395, Note_on_c, 2, 46, 127
4, 7410, Note_on_c, 2, 46, 0
4, 7410, Note_on_c, 2, 48, 127
4, 7440, Note_on_c, 2, 48, 0
4, 7440, Note_on_c, 2, 46, 127
4, 7455, Note_on_c, 2, 46, 0
4, 7470, Note_on_c, 2, 46, 127
4, 7485, Note_on_c, 2, 46, 0
4, 7485, Note_on_c, 2, 48, 127
4, 7500, Note_on_c, 2, 48, 0
4, 7500, Note_on_c, 2, 50, 127
4, 7515, Note_on_c, 2, 50, 0
4, 7515, Note_on_c, 2, 48, 127
4, 7530, Note_on_c, 2, 48, 0
4, 7530, Note_on_c, 2, 46, 127
4, 7560, Note_on_c, 2, 46, 0
4, 7560, Note_on_c, 2, 53, 127
4, 7575, Note_on_c, 2, 53, 0
4, 7590, Note_on_c, 2, 50, 127
4, 7620, Note_on_c, 2, 50, 0
4, 7620, Note_on_c, 2, 58, 127
4, 7650, Note_on_c, 2, 58, 0
4, 7650, Note_on_c, 2, 53, 127
4, 7680, Note_on_c, 2, 53, 0
4, 7680, Note_on_c, 2, 50, 127
4, 7710, Note_on_c, 2, 50, 0
4, 7710, Note_on_c, 2, 53, 127
4, 7725, Note_on_c, 2, 53, 0
4, 7725, Note_on_c, 2, 51, 127
4, 7740, Note_on_c, 2, 51, 0
4, 7740, Note_on_c, 2, 50, 127
4, 7755, Note_on_c, 2, 50, 0
4, 7755, Note_on_c, 2, 51, 127
4, 7770, Note_on_c, 2, 51, 0
4, 7770, Note_on_c, 2, 53, 127
4, 7800, Note_on_c, 2, 53, 0
4, 7800, Note_on_c, 2, 46, 127
4, 7830, Note_on_c, 2, 46, 0
4, 7830, Note_on_c, 2, 50, 127
4, 7860, Note_on_c, 2, 50, 0
4, 7860, Note_on_c, 2, 41, 127
4, 7890, Note_on_c, 2, 41, 0
4, 7890, Note_on_c, 2, 44, 127
4, 7920, Note_on_c, 2, 44, 0
4, 7920, Note_on_c, 2, 43, 127
4, 7950, Note_on_c, 2, 43, 0
4, 7950, Note_on_c, 2, 39, 127
4, 7965, Note_on_c, 2, 39, 0
4, 7965, Note_on_c, 2, 41, 127
4, 7980, Note_on_c, 2, 41, 0
4, 7980, Note_on_c, 2, 43, 127
4, 7995, Note_on_c, 2, 43, 0
4, 7995, Note_on_c, 2, 41, 127
4, 8010, Note_on_c, 2, 41, 0
4, 8010, Note_on_c, 2, 39, 127
4, 8040, Note_on_c, 2, 39, 0
4, 8040, Note_on_c, 2, 46, 127
4, 8070, Note_on_c, 2, 46, 0
4, 8070, Note_on_c, 2, 43, 127
4, 8100, Note_on_c, 2, 43, 0
4, 8100, Note_on_c, 2, 51, 127
4, 8130, Note_on_c, 2, 51, 0
4, 8130, Note_on_c, 2, 46, 127
4, 8160, Note_on_c, 2, 46, 0
4, 8160, Note_on_c, 2, 43, 127
4, 8175, Note_on_c, 2, 43, 0
4, 8190, Note_on_c, 2, 58, 127
4, 8205, Note_on_c, 2, 58, 0
4, 8205, Note_on_c, 2, 56, 127
4, 8220, Note_on_c, 2, 56, 0
4, 8220, Note_on_c, 2, 55, 127
4, 8235, Note_on_c, 2, 55, 0
4, 8235, Note_on_c, 2, 56, 127
4, 8250, Note_on_c, 2, 56, 0
4, 8250, Note_on_c, 2, 58, 127
4, 8280, Note_on_c, 2, 58, 0
4, 8280, Note_on_c, 2, 51, 127
4, 8295, Note_on_c, 2, 51, 0
4, 8310, Note_on_c, 2, 55, 127
4, 8340, Note_on_c, 2, 55, 0
4, 8340, Note_on_c, 2, 46, 127
4, 8370, Note_on_c, 2, 46, 0
4, 8370, Note_on_c, 2, 50, 127
4, 8400, Note_on_c, 2, 50, 0
4, 8400, Note_on_c, 2, 48, 127
4, 8415, Note_on_c, 2, 48, 0
4, 8430, Note_on_c, 2, 41, 127
4, 8445, Note_on_c, 2, 41, 0
4, 8445, Note_on_c, 2, 43, 127
4, 8460, Note_on_c, 2, 43, 0
4, 8460, Note_on_c, 2, 45, 127
4, 8475, Note_on_c, 2, 45, 0
4, 8475, Note_on_c, 2, 43, 127
4, 8490, Note_on_c, 2, 43, 0
4, 8490, Note_on_c, 2, 41, 127
4, 8520, Note_on_c, 2, 41, 0
4, 8520, Note_on_c, 2, 48, 127
4, 8535, Note_on_c, 2, 48, 0
4, 8550, Note_on_c, 2, 45, 127
4, 8580, Note_on_c, 2, 45, 0
4, 8580, Note_on_c, 2, 51, 127
4, 8610, Note_on_c, 2, 51, 0
4, 8610, Note_on_c, 2, 48, 127
4, 8640, Note_on_c, 2, 48, 0
4, 8640, Note_on_c, 2, 45, 127
4, 8655, Note_on_c, 2, 45, 0
4, 8660, Control_c, 2, 7, 110
4, 8670, Note_on_c, 2, 48, 127
4, 8680, Control_c, 2, 7, 109
4, 8685, Note_on_c, 2, 48, 0
4, 8685, Note_on_c, 2, 46, 127
4, 8690, Control_c, 2, 7, 108
4, 8700, Note_on_c, 2, 46, 0
4, 8700, Note_on_c, 2, 45, 127
4, 8700, Control_c, 2, 7, 107
4, 8715, Note_on_c, 2, 45, 0
4, 8715, Note_on_c, 2, 46, 127
4, 8720, Control_c, 2, 7, 106
4, 8730, Note_on_c, 2, 46, 0
4, 8730, Note_on_c, 2, 48, 127
4, 8730, Control_c, 2, 7, 105
4, 8740, Control_c, 2, 7, 104
4, 8750, Control_c, 2, 7, 103
4, 8760, Note_on_c, 2, 48, 0
4, 8760, Note_on_c, 2, 41, 127
4, 8770, Control_c, 2, 7, 102
4, 8775, Note_on_c, 2, 41, 0
4, 8780, Control_c, 2, 7, 101
4, 8790, Note_on_c, 2, 45, 127
4, 8790, Control_c, 2, 7, 100
4, 8800, Control_c, 2, 7, 99
4, 8820, Note_on_c, 2, 45, 0
4, 8820, Note_on_c, 2, 36, 127
4, 8820, Control_c, 2, 7, 98
4, 8830, Control_c, 2, 7, 97
4, 8840, Control_c, 2, 7, 96
4, 8850, Note_on_c, 2, 36, 0
4, 8850, Note_on_c, 2, 39, 127
4, 8850, Control_c, 2, 7, 95
4, 8870, Control_c, 2, 7, 94
4, 8880, Note_on_c, 2, 39, 0
4, 8880, Note_on_c, 2, 38, 127
4, 8880, Control_c, 2, 7, 93
4, 8890, Control_c, 2, 7, 92
4, 8900, Control_c, 2, 7, 91
4, 8910, Note_on_c, 2, 38, 0
4, 8910, Note_on_c, 2, 46, 127
4, 8920, Control_c, 2, 7, 90
4, 8925, Note_on_c, 2, 46, 0
4, 8925, Note_on_c, 2, 48, 127
4, 8930, Control_c, 2, 7, 89
4, 8940, Note_on_c, 2, 48, 0
4, 8940, Note_on_c, 2, 50, 127
4, 8940, Control_c, 2, 7, 88
4, 8955, Note_on_c, 2, 50, 0
4, 8955, Note_on_c, 2, 48, 127
4, 8960, Control_c, 2, 7, 87
4, 8970, Note_on_c, 2, 48, 0
4, 8970, Note_on_c, 2, 46, 127
4, 8970, Control_c, 2, 7, 86
4, 8980, Control_c, 2, 7, 85
4, 8990, Control_c, 2, 7, 84
4, 9000, Note_on_c, 2, 46, 0
4, 9000, Note_on_c, 2, 53, 127
4, 9010, Control_c, 2, 7, 83
4, 9020, Control_c, 2, 7, 82
4, 9030, Control_c, 2, 7, 81
4, 9040, Control_c, 2, 7, 80
4, 9060, Note_on_c, 2, 53, 0
4, 9060, Note_on_c, 2, 41, 127
4, 9060, Control_c, 2, 7, 79
4, 9070, Control_c, 2, 7, 78
4, 9080, Control_c, 2, 7, 77
4, 9090, Control_c, 2, 7, 76
4, 9110, Control_c, 2, 7, 75
4, 9120, Note_on_c, 2, 41, 0
4, 9120, Note_on_c, 2, 46, 127
4, 9600, Note_on_c, 2, 46, 0
4, 9600, End_track
0, 0, End_of_file