0, 0, Header, 1, 18, 384
1, 0, Start_track
1, 0, Time_signature, 1, 3, 96, 8
1, 0, Sequencer_specific, 03, 00, 00, 41
1, 0, Tempo, 1276595
1, 192, Time_signature, 12, 3, 96, 8
1, 9408, Tempo, 625000
1, 14016, Tempo, 1276595
1, 124608, Tempo, 1363636
1, 124836, Tempo, 1363636
1, 125066, Tempo, 1395348
1, 125296, Tempo, 1395348
1, 125526, Tempo, 1428571
1, 125756, Tempo, 1428571
1, 127248, Tempo, 1363636
1, 127688, Tempo, 1395348
1, 128128, Tempo, 1395348
1, 128568, Tempo, 1428571
1, 129008, Tempo, 1428571
1, 129008, End_track
2, 0, Start_track
2, 0, Title_t, "Alto"
2, 0, Control_c, 0, 0, 0
2, 0, Program_c, 0, 68
2, 0, Control_c, 0, 10, 44
2, 0, Key_signature, 2, "minor"
2, 0, Control_c, 0, 121, 0
2, 0, Control_c, 0, 7, 127
2, 20832, Note_on_c, 0, 66, 125
2, 20926, Note_off_c, 0, 66, 80
2, 20928, Note_on_c, 0, 74, 125
2, 21212, Note_off_c, 0, 74, 80
2, 21216, Note_on_c, 0, 73, 125
2, 21308, Note_off_c, 0, 73, 80
2, 21312, Note_on_c, 0, 71, 125
2, 21788, Note_off_c, 0, 71, 80
2, 21792, Note_on_c, 0, 70, 125
2, 21884, Note_off_c, 0, 70, 80
2, 21888, Note_on_c, 0, 71, 125
2, 22076, Note_off_c, 0, 71, 80
2, 22080, Note_on_c, 0, 71, 125
2, 23612, Note_off_c, 0, 71, 80
2, 23616, Note_on_c, 0, 64, 125
2, 23804, Note_off_c, 0, 64, 80
2, 23808, Note_on_c, 0, 64, 125
2, 23996, Note_off_c, 0, 64, 80
2, 24000, Note_on_c, 0, 63, 125
2, 24188, Note_off_c, 0, 63, 80
2, 24192, Note_on_c, 0, 69, 125
2, 24380, Note_off_c, 0, 69, 80
2, 24384, Note_on_c, 0, 67, 125
2, 24764, Note_off_c, 0, 67, 80
2, 24768, Note_on_c, 0, 64, 125
2, 24956, Note_off_c, 0, 64, 80
2, 24960, Note_on_c, 0, 67, 125
2, 25340, Note_off_c, 0, 67, 80
2, 25344, Note_on_c, 0, 71, 125
2, 25532, Note_off_c, 0, 71, 80
2, 25536, Note_on_c, 0, 72, 125
2, 25916, Note_off_c, 0, 72, 80
2, 25920, Note_on_c, 0, 71, 125
2, 26108, Note_off_c, 0, 71, 80
2, 26112, Note_on_c, 0, 71, 125
2, 26492, Note_off_c, 0, 71, 80
2, 26496, Note_on_c, 0, 70, 125
2, 26684, Note_off_c, 0, 70, 80
2, 26688, Note_on_c, 0, 70, 125
2, 27068, Note_off_c, 0, 70, 80
2, 27072, Note_on_c, 0, 71, 125
2, 27260, Note_off_c, 0, 71, 80
2, 27264, Note_on_c, 0, 73, 125
2, 28124, Note_off_c, 0, 73, 80
2, 28128, Note_on_c, 0, 70, 125
2, 28220, Note_off_c, 0, 70, 80
2, 28224, Note_on_c, 0, 71, 125
2, 28412, Note_off_c, 0, 71, 80
2, 28416, Note_on_c, 0, 73, 125
2, 28508, Note_off_c, 0, 73, 80
2, 28512, Note_on_c, 0, 74, 125
2, 28604, Note_off_c, 0, 74, 80
2, 28608, Note_on_c, 0, 76, 125
2, 28796, Note_off_c, 0, 76, 80
2, 28800, Note_on_c, 0, 73, 125
2, 28988, Note_off_c, 0, 73, 80
2, 28992, Note_on_c, 0, 70, 125
2, 29372, Note_off_c, 0, 70, 80
2, 29376, Note_on_c, 0, 68, 125
2, 29564, Note_off_c, 0, 68, 80
2, 29568, Note_on_c, 0, 66, 125
2, 29948, Note_off_c, 0, 66, 80
2, 29952, Note_on_c, 0, 64, 125
2, 30140, Note_off_c, 0, 64, 80
2, 30144, Note_on_c, 0, 63, 125
2, 30332, Note_off_c, 0, 63, 80
2, 30336, Note_on_c, 0, 66, 125
2, 30428, Note_off_c, 0, 66, 80
2, 30432, Note_on_c, 0, 69, 125
2, 30524, Note_off_c, 0, 69, 80
2, 30528, Note_on_c, 0, 72, 125
2, 31004, Note_off_c, 0, 72, 80
2, 31008, Note_on_c, 0, 71, 125
2, 31100, Note_off_c, 0, 71, 80
2, 31104, Note_on_c, 0, 69, 125
2, 31292, Note_off_c, 0, 69, 80
2, 31296, Note_on_c, 0, 69, 125
2, 31388, Note_off_c, 0, 69, 80
2, 31392, Note_on_c, 0, 67, 125
2, 32252, Note_off_c, 0, 67, 80
2, 32256, Note_on_c, 0, 66, 125
2, 32444, Note_off_c, 0, 66, 80
2, 32448, Note_on_c, 0, 65, 125
2, 32636, Note_off_c, 0, 65, 80
2, 32640, Note_on_c, 0, 68, 125
2, 32732, Note_off_c, 0, 68, 80
2, 32736, Note_on_c, 0, 71, 125
2, 32828, Note_off_c, 0, 71, 80
2, 32832, Note_on_c, 0, 74, 125
2, 33308, Note_off_c, 0, 74, 80
2, 33312, Note_on_c, 0, 73, 125
2, 33404, Note_off_c, 0, 73, 80
2, 33408, Note_on_c, 0, 71, 125
2, 33596, Note_off_c, 0, 71, 80
2, 33600, Note_on_c, 0, 69, 125
2, 33980, Note_off_c, 0, 69, 80
2, 33984, Note_on_c, 0, 68, 125
2, 34172, Note_off_c, 0, 68, 80
2, 34176, Note_on_c, 0, 69, 125
2, 34460, Note_off_c, 0, 69, 80
2, 34464, Note_on_c, 0, 73, 125
2, 34556, Note_off_c, 0, 73, 80
2, 34560, Note_on_c, 0, 71, 125
2, 34748, Note_off_c, 0, 71, 80
2, 34752, Note_on_c, 0, 73, 125
2, 36188, Note_off_c, 0, 73, 80
2, 36192, Note_on_c, 0, 71, 125
2, 36284, Note_off_c, 0, 71, 80
2, 36288, Note_on_c, 0, 70, 125
2, 36764, Note_off_c, 0, 70, 80
2, 36768, Note_on_c, 0, 71, 125
2, 36860, Note_off_c, 0, 71, 80
2, 36864, Note_on_c, 0, 73, 125
2, 37052, Note_off_c, 0, 73, 80
2, 37056, Note_on_c, 0, 74, 125
2, 37340, Note_off_c, 0, 74, 80
2, 37344, Note_on_c, 0, 73, 125
2, 37388, Note_off_c, 0, 73, 80
2, 37392, Note_on_c, 0, 74, 125
2, 37436, Note_off_c, 0, 74, 80
2, 37440, Note_on_c, 0, 76, 125
2, 37916, Note_off_c, 0, 76, 80
2, 37920, Note_on_c, 0, 74, 125
2, 38016, Note_on_c, 0, 73, 125
2, 38060, Note_off_c, 0, 74, 80
2, 38204, Note_off_c, 0, 73, 80
2, 38208, Note_on_c, 0, 73, 125
2, 38300, Note_off_c, 0, 73, 80
2, 38304, Note_on_c, 0, 71, 125
2, 39164, Note_off_c, 0, 71, 80
2, 39168, Note_on_c, 0, 69, 125
2, 39356, Note_off_c, 0, 69, 80
2, 39360, Note_on_c, 0, 67, 125
2, 39740, Note_off_c, 0, 67, 80
2, 39744, Note_on_c, 0, 66, 125
2, 39932, Note_off_c, 0, 66, 80
2, 39936, Note_on_c, 0, 66, 125
2, 40316, Note_off_c, 0, 66, 80
2, 40320, Note_on_c, 0, 65, 125
2, 40508, Note_off_c, 0, 65, 80
2, 40512, Note_on_c, 0, 65, 125
2, 40796, Note_off_c, 0, 65, 80
2, 40800, Note_on_c, 0, 71, 125
2, 40844, Note_off_c, 0, 71, 80
2, 40848, Note_on_c, 0, 73, 125
2, 40892, Note_off_c, 0, 73, 80
2, 40896, Note_on_c, 0, 74, 125
2, 41372, Note_off_c, 0, 74, 80
2, 41376, Note_on_c, 0, 73, 125
2, 41468, Note_off_c, 0, 73, 80
2, 41472, Note_on_c, 0, 71, 125
2, 41660, Note_off_c, 0, 71, 80
2, 41664, Note_on_c, 0, 69, 125
2, 41948, Note_off_c, 0, 69, 80
2, 41952, Note_on_c, 0, 68, 125
2, 42044, Note_off_c, 0, 68, 80
2, 42048, Note_on_c, 0, 71, 125
2, 42524, Note_off_c, 0, 71, 80
2, 42528, Note_on_c, 0, 69, 125
2, 42620, Note_off_c, 0, 69, 80
2, 42624, Note_on_c, 0, 68, 125
2, 42812, Note_off_c, 0, 68, 80
2, 42816, Note_on_c, 0, 65, 125
2, 43196, Note_off_c, 0, 65, 80
2, 43200, Note_on_c, 0, 63, 125
2, 43388, Note_off_c, 0, 63, 80
2, 43392, Note_on_c, 0, 61, 125
2, 43772, Note_off_c, 0, 61, 80
2, 44832, Note_on_c, 0, 61, 125
2, 44924, Note_off_c, 0, 61, 80
2, 44928, Note_on_c, 0, 65, 125
2, 45020, Note_off_c, 0, 65, 80
2, 45024, Note_on_c, 0, 68, 125
2, 45116, Note_off_c, 0, 68, 80
2, 45120, Note_on_c, 0, 71, 125
2, 45404, Note_off_c, 0, 71, 80
2, 45408, Note_on_c, 0, 73, 125
2, 45500, Note_off_c, 0, 73, 80
2, 45504, Note_on_c, 0, 74, 125
2, 45980, Note_off_c, 0, 74, 80
2, 45984, Note_on_c, 0, 73, 125
2, 46076, Note_off_c, 0, 73, 80
2, 46080, Note_on_c, 0, 71, 125
2, 46268, Note_off_c, 0, 71, 80
2, 46272, Note_on_c, 0, 70, 125
2, 46652, Note_off_c, 0, 70, 80
2, 46656, Note_on_c, 0, 73, 125
2, 46844, Note_off_c, 0, 73, 80
2, 46848, Note_on_c, 0, 73, 125
2, 46892, Note_off_c, 0, 73, 80
2, 46896, Note_on_c, 0, 74, 125
2, 46940, Note_off_c, 0, 74, 80
2, 46944, Note_on_c, 0, 76, 125
2, 47132, Note_off_c, 0, 76, 80
2, 47136, Note_on_c, 0, 73, 125
2, 47228, Note_off_c, 0, 73, 80
2, 47232, Note_on_c, 0, 70, 125
2, 47324, Note_off_c, 0, 70, 80
2, 47328, Note_on_c, 0, 71, 125
2, 47420, Note_off_c, 0, 71, 80
2, 47424, Note_on_c, 0, 64, 125
2, 47708, Note_off_c, 0, 64, 80
2, 47712, Note_on_c, 0, 66, 125
2, 47804, Note_off_c, 0, 66, 80
2, 47808, Note_on_c, 0, 67, 125
2, 48284, Note_off_c, 0, 67, 80
2, 48288, Note_on_c, 0, 66, 125
2, 48380, Note_off_c, 0, 66, 80
2, 48384, Note_on_c, 0, 64, 125
2, 48572, Note_off_c, 0, 64, 80
2, 48576, Note_on_c, 0, 62, 125
2, 48764, Note_off_c, 0, 62, 80
2, 48768, Note_on_c, 0, 64, 125
2, 48956, Note_off_c, 0, 64, 80
2, 48960, Note_on_c, 0, 66, 125
2, 49340, Note_off_c, 0, 66, 80
2, 49344, Note_on_c, 0, 68, 125
2, 49532, Note_off_c, 0, 68, 80
2, 49536, Note_on_c, 0, 70, 125
2, 49724, Note_off_c, 0, 70, 80
2, 49728, Note_on_c, 0, 71, 125
2, 49916, Note_off_c, 0, 71, 80
2, 49920, Note_on_c, 0, 73, 125
2, 50108, Note_off_c, 0, 73, 80
2, 50112, Note_on_c, 0, 74, 125
2, 50492, Note_off_c, 0, 74, 80
2, 50496, Note_on_c, 0, 73, 125
2, 50588, Note_off_c, 0, 73, 80
2, 50592, Note_on_c, 0, 71, 125
2, 50684, Note_off_c, 0, 71, 80
2, 50688, Note_on_c, 0, 69, 125
2, 50780, Note_off_c, 0, 69, 80
2, 50784, Note_on_c, 0, 68, 125
2, 50876, Note_off_c, 0, 68, 80
2, 50880, Note_on_c, 0, 73, 125
2, 51068, Note_off_c, 0, 73, 80
2, 51072, Note_on_c, 0, 71, 125
2, 51260, Note_off_c, 0, 71, 80
2, 51264, Note_on_c, 0, 69, 125
2, 51452, Note_off_c, 0, 69, 80
2, 51456, Note_on_c, 0, 73, 125
2, 51548, Note_off_c, 0, 73, 80
2, 51552, Note_on_c, 0, 71, 125
2, 51644, Note_off_c, 0, 71, 80
2, 51648, Note_on_c, 0, 69, 125
2, 51836, Note_off_c, 0, 69, 80
2, 51840, Note_on_c, 0, 68, 125
2, 52028, Note_off_c, 0, 68, 80
2, 52032, Note_on_c, 0, 66, 125
2, 52604, Note_off_c, 0, 66, 80
2, 52608, Note_on_c, 0, 66, 125
2, 52988, Note_off_c, 0, 66, 80
2, 61824, Note_on_c, 0, 73, 125
2, 62110, Note_off_c, 0, 73, 80
2, 62112, Note_on_c, 0, 71, 125
2, 62206, Note_off_c, 0, 71, 80
2, 62208, Note_on_c, 0, 69, 125
2, 62302, Note_off_c, 0, 69, 80
2, 62304, Note_on_c, 0, 68, 125
2, 62398, Note_off_c, 0, 68, 80
2, 62400, Note_on_c, 0, 69, 125
2, 63838, Note_off_c, 0, 69, 80
2, 63840, Note_on_c, 0, 69, 125
2, 63886, Note_off_c, 0, 69, 80
2, 63888, Note_on_c, 0, 71, 125
2, 63934, Note_off_c, 0, 71, 80
2, 63936, Note_on_c, 0, 72, 125
2, 64414, Note_off_c, 0, 72, 80
2, 64416, Note_on_c, 0, 71, 125
2, 64510, Note_off_c, 0, 71, 80
2, 64512, Note_on_c, 0, 69, 125
2, 64702, Note_off_c, 0, 69, 80
2, 64704, Note_on_c, 0, 67, 125
2, 66046, Note_off_c, 0, 67, 80
2, 66048, Note_on_c, 0, 66, 125
2, 66238, Note_off_c, 0, 66, 80
2, 66240, Note_on_c, 0, 68, 125
2, 66430, Note_off_c, 0, 68, 80
2, 66432, Note_on_c, 0, 70, 125
2, 66622, Note_off_c, 0, 70, 80
2, 66624, Note_on_c, 0, 71, 125
2, 66814, Note_off_c, 0, 71, 80
2, 66816, Note_on_c, 0, 73, 125
2, 67006, Note_off_c, 0, 73, 80
2, 67008, Note_on_c, 0, 74, 125
2, 68446, Note_off_c, 0, 74, 80
2, 68448, Note_on_c, 0, 73, 125
2, 68542, Note_off_c, 0, 73, 80
2, 68544, Note_on_c, 0, 71, 125
2, 68734, Note_off_c, 0, 71, 80
2, 68736, Note_on_c, 0, 71, 125
2, 68782, Note_off_c, 0, 71, 80
2, 68784, Note_on_c, 0, 73, 125
2, 68830, Note_off_c, 0, 73, 80
2, 68832, Note_on_c, 0, 74, 125
2, 69022, Note_off_c, 0, 74, 80
2, 69024, Note_on_c, 0, 73, 125
2, 69118, Note_off_c, 0, 73, 80
2, 69120, Note_on_c, 0, 71, 125
2, 69310, Note_off_c, 0, 71, 80
2, 69312, Note_on_c, 0, 69, 125
2, 69502, Note_off_c, 0, 69, 80
2, 69504, Note_on_c, 0, 66, 125
2, 69694, Note_off_c, 0, 66, 80
2, 69696, Note_on_c, 0, 68, 125
2, 69886, Note_off_c, 0, 68, 80
2, 69888, Note_on_c, 0, 69, 125
2, 70654, Note_off_c, 0, 69, 80
2, 70656, Note_on_c, 0, 72, 125
2, 70846, Note_off_c, 0, 72, 80
2, 70848, Note_on_c, 0, 73, 125
2, 71038, Note_off_c, 0, 73, 80
2, 71040, Note_on_c, 0, 75, 125
2, 71230, Note_off_c, 0, 75, 80
2, 71232, Note_on_c, 0, 66, 125
2, 71422, Note_off_c, 0, 66, 80
2, 71424, Note_on_c, 0, 69, 125
2, 71614, Note_off_c, 0, 69, 80
2, 71616, Note_on_c, 0, 68, 125
2, 71902, Note_off_c, 0, 68, 80
2, 71904, Note_on_c, 0, 73, 125
2, 71998, Note_off_c, 0, 73, 80
2, 72000, Note_on_c, 0, 69, 125
2, 72190, Note_off_c, 0, 69, 80
2, 72192, Note_on_c, 0, 68, 125
2, 72286, Note_off_c, 0, 68, 80
2, 72288, Note_on_c, 0, 66, 125
2, 72958, Note_off_c, 0, 66, 80
2, 72960, Note_on_c, 0, 65, 125
2, 73150, Note_off_c, 0, 65, 80
2, 73152, Note_on_c, 0, 66, 125
2, 73342, Note_off_c, 0, 66, 80
2, 73344, Note_on_c, 0, 69, 125
2, 73534, Note_off_c, 0, 69, 80
2, 73536, Note_on_c, 0, 74, 125
2, 73630, Note_off_c, 0, 74, 80
2, 73632, Note_on_c, 0, 72, 125
2, 73726, Note_off_c, 0, 72, 80
2, 73728, Note_on_c, 0, 73, 125
2, 73918, Note_off_c, 0, 73, 80
2, 73920, Note_on_c, 0, 66, 125
2, 74206, Note_off_c, 0, 66, 80
2, 74208, Note_on_c, 0, 69, 125
2, 74302, Note_off_c, 0, 69, 80
2, 74304, Note_on_c, 0, 68, 125
2, 74494, Note_off_c, 0, 68, 80
2, 74496, Note_on_c, 0, 68, 125
2, 74686, Note_off_c, 0, 68, 80
2, 74688, Note_on_c, 0, 66, 125
2, 74782, Note_off_c, 0, 66, 80
2, 74784, Note_on_c, 0, 64, 125
2, 74878, Note_off_c, 0, 64, 80
2, 74880, Note_on_c, 0, 63, 125
2, 74974, Note_off_c, 0, 63, 80
2, 74976, Note_on_c, 0, 61, 125
2, 75070, Note_off_c, 0, 61, 80
2, 75072, Note_on_c, 0, 61, 125
2, 75838, Note_off_c, 0, 61, 80
2, 78336, Note_on_c, 0, 66, 125
2, 78526, Note_off_c, 0, 66, 80
2, 78528, Note_on_c, 0, 74, 125
2, 78814, Note_off_c, 0, 74, 80
2, 78816, Note_on_c, 0, 73, 125
2, 78862, Note_off_c, 0, 73, 80
2, 78864, Note_on_c, 0, 74, 125
2, 78910, Note_off_c, 0, 74, 80
2, 78912, Note_on_c, 0, 76, 125
2, 79390, Note_off_c, 0, 76, 80
2, 79392, Note_on_c, 0, 74, 125
2, 79486, Note_off_c, 0, 74, 80
2, 79488, Note_on_c, 0, 73, 125
2, 79678, Note_off_c, 0, 73, 80
2, 79680, Note_on_c, 0, 71, 125
2, 80062, Note_off_c, 0, 71, 80
2, 80064, Note_on_c, 0, 64, 125
2, 80254, Note_off_c, 0, 64, 80
2, 80256, Note_on_c, 0, 63, 125
2, 80638, Note_off_c, 0, 63, 80
2, 80640, Note_on_c, 0, 71, 125
2, 80830, Note_off_c, 0, 71, 80
2, 80832, Note_on_c, 0, 72, 125
2, 81214, Note_off_c, 0, 72, 80
2, 81216, Note_on_c, 0, 71, 125
2, 81406, Note_off_c, 0, 71, 80
2, 81408, Note_on_c, 0, 71, 125
2, 81790, Note_off_c, 0, 71, 80
2, 81792, Note_on_c, 0, 70, 125
2, 81982, Note_off_c, 0, 70, 80
2, 81984, Note_on_c, 0, 70, 125
2, 82366, Note_off_c, 0, 70, 80
2, 82368, Note_on_c, 0, 71, 125
2, 82558, Note_off_c, 0, 71, 80
2, 82560, Note_on_c, 0, 73, 125
2, 83136, Note_on_c, 0, 73, 125
2, 83422, Note_off_c, 0, 73, 80
2, 83422, Note_off_c, 0, 73, 80
2, 83424, Note_on_c, 0, 70, 125
2, 83518, Note_off_c, 0, 70, 80
2, 83520, Note_on_c, 0, 71, 125
2, 83710, Note_off_c, 0, 71, 80
2, 83712, Note_on_c, 0, 73, 125
2, 83806, Note_off_c, 0, 73, 80
2, 83808, Note_on_c, 0, 74, 125
2, 83902, Note_off_c, 0, 74, 80
2, 83904, Note_on_c, 0, 76, 125
2, 84094, Note_off_c, 0, 76, 80
2, 84096, Note_on_c, 0, 73, 125
2, 84286, Note_off_c, 0, 73, 80
2, 84288, Note_on_c, 0, 70, 125
2, 84670, Note_off_c, 0, 70, 80
2, 84672, Note_on_c, 0, 68, 125
2, 84862, Note_off_c, 0, 68, 80
2, 84864, Note_on_c, 0, 66, 125
2, 85246, Note_off_c, 0, 66, 80
2, 85248, Note_on_c, 0, 64, 125
2, 85438, Note_off_c, 0, 64, 80
2, 85440, Note_on_c, 0, 63, 125
2, 85630, Note_off_c, 0, 63, 80
2, 85632, Note_on_c, 0, 66, 125
2, 85726, Note_off_c, 0, 66, 80
2, 85728, Note_on_c, 0, 69, 125
2, 85822, Note_off_c, 0, 69, 80
2, 85824, Note_on_c, 0, 72, 125
2, 86302, Note_off_c, 0, 72, 80
2, 86304, Note_on_c, 0, 71, 125
2, 86398, Note_off_c, 0, 71, 80
2, 86400, Note_on_c, 0, 69, 125
2, 86590, Note_off_c, 0, 69, 80
2, 86592, Note_on_c, 0, 69, 125
2, 86686, Note_off_c, 0, 69, 80
2, 86688, Note_on_c, 0, 67, 125
2, 87550, Note_off_c, 0, 67, 80
2, 87552, Note_on_c, 0, 71, 125
2, 87742, Note_off_c, 0, 71, 80
2, 87744, Note_on_c, 0, 64, 125
2, 88030, Note_off_c, 0, 64, 80
2, 88032, Note_on_c, 0, 66, 125
2, 88126, Note_off_c, 0, 66, 80
2, 88128, Note_on_c, 0, 67, 125
2, 88606, Note_off_c, 0, 67, 80
2, 88608, Note_on_c, 0, 66, 125
2, 88702, Note_off_c, 0, 66, 80
2, 88704, Note_on_c, 0, 64, 125
2, 88894, Note_off_c, 0, 64, 80
2, 88896, Note_on_c, 0, 62, 125
2, 89278, Note_off_c, 0, 62, 80
2, 89280, Note_on_c, 0, 61, 125
2, 89470, Note_off_c, 0, 61, 80
2, 89472, Note_on_c, 0, 62, 125
2, 89758, Note_off_c, 0, 62, 80
2, 89760, Note_on_c, 0, 66, 125
2, 89854, Note_off_c, 0, 66, 80
2, 89856, Note_on_c, 0, 64, 125
2, 90046, Note_off_c, 0, 64, 80
2, 90048, Note_on_c, 0, 66, 125
2, 91486, Note_off_c, 0, 66, 80
2, 91488, Note_on_c, 0, 64, 125
2, 91582, Note_off_c, 0, 64, 80
2, 91584, Note_on_c, 0, 63, 125
2, 92062, Note_off_c, 0, 63, 80
2, 92064, Note_on_c, 0, 64, 125
2, 92158, Note_off_c, 0, 64, 80
2, 92160, Note_on_c, 0, 66, 125
2, 92350, Note_off_c, 0, 66, 80
2, 92352, Note_on_c, 0, 67, 125
2, 92638, Note_off_c, 0, 67, 80
2, 92640, Note_on_c, 0, 66, 125
2, 92686, Note_off_c, 0, 66, 80
2, 92688, Note_on_c, 0, 67, 125
2, 92734, Note_off_c, 0, 67, 80
2, 92736, Note_on_c, 0, 69, 125
2, 93214, Note_off_c, 0, 69, 80
2, 93216, Note_on_c, 0, 67, 125
2, 93310, Note_off_c, 0, 67, 80
2, 93312, Note_on_c, 0, 66, 125
2, 93502, Note_off_c, 0, 66, 80
2, 93504, Note_on_c, 0, 66, 125
2, 93598, Note_off_c, 0, 66, 80
2, 93600, Note_on_c, 0, 64, 125
2, 94462, Note_off_c, 0, 64, 80
2, 94464, Note_on_c, 0, 67, 125
2, 94654, Note_off_c, 0, 67, 80
2, 94656, Note_on_c, 0, 72, 125
2, 95038, Note_off_c, 0, 72, 80
2, 95040, Note_on_c, 0, 71, 125
2, 95230, Note_off_c, 0, 71, 80
2, 95232, Note_on_c, 0, 71, 125
2, 95614, Note_off_c, 0, 71, 80
2, 95616, Note_on_c, 0, 70, 125
2, 95806, Note_off_c, 0, 70, 80
2, 95808, Note_on_c, 0, 70, 125
2, 96094, Note_off_c, 0, 70, 80
2, 96096, Note_on_c, 0, 64, 125
2, 96142, Note_off_c, 0, 64, 80
2, 96144, Note_on_c, 0, 66, 125
2, 96190, Note_off_c, 0, 66, 80
2, 96192, Note_on_c, 0, 67, 125
2, 96670, Note_off_c, 0, 67, 80
2, 96672, Note_on_c, 0, 64, 125
2, 96766, Note_off_c, 0, 64, 80
2, 96768, Note_on_c, 0, 66, 125
2, 96958, Note_off_c, 0, 66, 80
2, 96960, Note_on_c, 0, 74, 125
2, 97246, Note_off_c, 0, 74, 80
2, 97248, Note_on_c, 0, 73, 125
2, 97342, Note_off_c, 0, 73, 80
2, 97344, Note_on_c, 0, 73, 125
2, 97390, Note_off_c, 0, 73, 80
2, 97392, Note_on_c, 0, 74, 125
2, 97438, Note_off_c, 0, 74, 80
2, 97440, Note_on_c, 0, 76, 125
2, 97822, Note_off_c, 0, 76, 80
2, 97824, Note_on_c, 0, 74, 125
2, 97918, Note_off_c, 0, 74, 80
2, 97920, Note_on_c, 0, 73, 125
2, 98110, Note_off_c, 0, 73, 80
2, 98112, Note_on_c, 0, 70, 125
2, 98494, Note_off_c, 0, 70, 80
2, 98496, Note_on_c, 0, 68, 125
2, 98686, Note_off_c, 0, 68, 80
2, 98688, Note_on_c, 0, 66, 125
2, 99070, Note_off_c, 0, 66, 80
2, 100224, Note_on_c, 0, 73, 125
2, 100414, Note_off_c, 0, 73, 80
2, 100416, Note_on_c, 0, 64, 125
2, 100702, Note_off_c, 0, 64, 80
2, 100704, Note_on_c, 0, 66, 125
2, 100798, Note_off_c, 0, 66, 80
2, 100800, Note_on_c, 0, 67, 125
2, 101278, Note_off_c, 0, 67, 80
2, 101280, Note_on_c, 0, 66, 125
2, 101374, Note_off_c, 0, 66, 80
2, 101376, Note_on_c, 0, 64, 125
2, 101566, Note_off_c, 0, 64, 80
2, 101568, Note_on_c, 0, 63, 125
2, 101950, Note_off_c, 0, 63, 80
2, 101952, Note_on_c, 0, 59, 125
2, 102142, Note_off_c, 0, 59, 80
2, 102144, Note_on_c, 0, 66, 125
2, 102190, Note_off_c, 0, 66, 80
2, 102192, Note_on_c, 0, 67, 125
2, 102238, Note_off_c, 0, 67, 80
2, 102240, Note_on_c, 0, 69, 125
2, 102574, Note_off_c, 0, 69, 80
2, 102576, Note_on_c, 0, 66, 125
2, 102622, Note_off_c, 0, 66, 80
2, 102624, Note_on_c, 0, 63, 125
2, 102670, Note_off_c, 0, 63, 80
2, 102672, Note_on_c, 0, 64, 125
2, 102718, Note_off_c, 0, 64, 80
2, 102720, Note_on_c, 0, 69, 125
2, 103006, Note_off_c, 0, 69, 80
2, 103008, Note_on_c, 0, 71, 125
2, 103102, Note_off_c, 0, 71, 80
2, 103104, Note_on_c, 0, 72, 125
2, 103582, Note_off_c, 0, 72, 80
2, 103584, Note_on_c, 0, 71, 125
2, 103678, Note_off_c, 0, 71, 80
2, 103680, Note_on_c, 0, 69, 125
2, 103870, Note_off_c, 0, 69, 80
2, 103872, Note_on_c, 0, 67, 125
2, 104062, Note_off_c, 0, 67, 80
2, 104064, Note_on_c, 0, 69, 125
2, 104254, Note_off_c, 0, 69, 80
2, 104256, Note_on_c, 0, 71, 125
2, 104638, Note_off_c, 0, 71, 80
2, 104640, Note_on_c, 0, 73, 125
2, 104830, Note_off_c, 0, 73, 80
2, 104832, Note_on_c, 0, 75, 125
2, 105022, Note_off_c, 0, 75, 80
2, 105024, Note_on_c, 0, 76, 125
2, 105310, Note_off_c, 0, 76, 80
2, 105312, Note_on_c, 0, 74, 125
2, 105358, Note_off_c, 0, 74, 80
2, 105360, Note_on_c, 0, 72, 125
2, 105406, Note_off_c, 0, 72, 80
2, 105408, Note_on_c, 0, 71, 125
2, 105502, Note_off_c, 0, 71, 80
2, 105504, Note_on_c, 0, 69, 125
2, 105598, Note_off_c, 0, 69, 80
2, 105600, Note_on_c, 0, 67, 125
2, 105790, Note_off_c, 0, 67, 80
2, 105792, Note_on_c, 0, 66, 125
2, 105886, Note_off_c, 0, 66, 80
2, 105888, Note_on_c, 0, 64, 125
2, 105982, Note_off_c, 0, 64, 80
2, 105984, Note_on_c, 0, 62, 125
2, 106078, Note_off_c, 0, 62, 80
2, 106080, Note_on_c, 0, 61, 125
2, 106174, Note_off_c, 0, 61, 80
2, 106176, Note_on_c, 0, 66, 125
2, 106366, Note_off_c, 0, 66, 80
2, 106368, Note_on_c, 0, 68, 125
2, 106414, Note_off_c, 0, 68, 80
2, 106416, Note_on_c, 0, 70, 125
2, 106462, Note_off_c, 0, 70, 80
2, 106464, Note_on_c, 0, 71, 125
2, 106510, Note_off_c, 0, 71, 80
2, 106512, Note_on_c, 0, 73, 125
2, 106558, Note_off_c, 0, 73, 80
2, 106560, Note_on_c, 0, 74, 125
2, 106654, Note_off_c, 0, 74, 80
2, 106656, Note_on_c, 0, 73, 125
2, 106750, Note_off_c, 0, 73, 80
2, 106752, Note_on_c, 0, 76, 125
2, 106942, Note_off_c, 0, 76, 80
2, 106944, Note_on_c, 0, 74, 125
2, 107134, Note_off_c, 0, 74, 80
2, 107136, Note_on_c, 0, 73, 125
2, 107326, Note_off_c, 0, 73, 80
2, 107328, Note_on_c, 0, 71, 125
2, 107902, Note_off_c, 0, 71, 80
2, 107904, Note_on_c, 0, 71, 125
2, 108286, Note_off_c, 0, 71, 80
2, 108286, End_track
3, 0, Start_track
3, 0, Title_t, "Solo Violin"
3, 0, Control_c, 1, 0, 0
3, 0, Program_c, 1, 40
3, 0, Control_c, 1, 10, 84
3, 0, Key_signature, 2, "minor"
3, 0, Control_c, 1, 7, 127
3, 0, Note_on_c, 1, 66, 103
3, 190, Note_off_c, 1, 66, 65
3, 192, Note_on_c, 1, 71, 103
3, 238, Note_off_c, 1, 71, 65
3, 240, Note_on_c, 1, 73, 103
3, 286, Note_off_c, 1, 73, 65
3, 288, Note_on_c, 1, 74, 103
3, 478, Note_off_c, 1, 74, 65
3, 480, Note_on_c, 1, 73, 103
3, 574, Note_off_c, 1, 73, 65
3, 576, Note_on_c, 1, 71, 103
3, 766, Note_off_c, 1, 71, 65
3, 768, Note_on_c, 1, 73, 103
3, 862, Note_off_c, 1, 73, 65
3, 864, Note_on_c, 1, 71, 103
3, 1054, Note_off_c, 1, 71, 65
3, 1056, Note_on_c, 1, 70, 103
3, 1150, Note_off_c, 1, 70, 65
3, 1152, Note_on_c, 1, 71, 103
3, 1342, Note_off_c, 1, 71, 65
3, 1344, Note_on_c, 1, 71, 103
3, 2302, Note_off_c, 1, 71, 65
3, 2304, Note_on_c, 1, 71, 103
3, 2494, Note_off_c, 1, 71, 65
3, 2496, Note_on_c, 1, 79, 103
3, 2782, Note_off_c, 1, 79, 65
3, 2784, Note_on_c, 1, 78, 103
3, 2830, Note_off_c, 1, 78, 65
3, 2832, Note_on_c, 1, 79, 103
3, 2878, Note_off_c, 1, 79, 65
3, 2880, Note_on_c, 1, 81, 103
3, 3358, Note_off_c, 1, 81, 65
3, 3360, Note_on_c, 1, 79, 103
3, 3454, Note_off_c, 1, 79, 65
3, 3456, Note_on_c, 1, 78, 103
3, 3646, Note_off_c, 1, 78, 65
3, 3648, Note_on_c, 1, 78, 103
3, 3742, Note_off_c, 1, 78, 65
3, 3744, Note_on_c, 1, 76, 103
3, 4510, Note_off_c, 1, 76, 65
3, 4512, Note_on_c, 1, 79, 103
3, 4606, Note_off_c, 1, 79, 65
3, 4608, Note_on_c, 1, 76, 103
3, 4798, Note_off_c, 1, 76, 65
3, 4800, Note_on_c, 1, 74, 103
3, 4894, Note_off_c, 1, 74, 65
3, 4896, Note_on_c, 1, 72, 103
3, 5086, Note_off_c, 1, 72, 65
3, 5088, Note_on_c, 1, 79, 103
3, 5182, Note_off_c, 1, 79, 65
3, 5184, Note_on_c, 1, 76, 103
3, 5374, Note_off_c, 1, 76, 65
3, 5376, Note_on_c, 1, 72, 103
3, 5470, Note_off_c, 1, 72, 65
3, 5472, Note_on_c, 1, 71, 103
3, 5662, Note_off_c, 1, 71, 65
3, 5664, Note_on_c, 1, 79, 103
3, 5758, Note_off_c, 1, 79, 65
3, 5760, Note_on_c, 1, 76, 103
3, 5950, Note_off_c, 1, 76, 65
3, 5952, Note_on_c, 1, 71, 103
3, 6046, Note_off_c, 1, 71, 65
3, 6048, Note_on_c, 1, 70, 103
3, 6238, Note_off_c, 1, 70, 65
3, 6240, Note_on_c, 1, 76, 103
3, 6286, Note_off_c, 1, 76, 65
3, 6288, Note_on_c, 1, 78, 103
3, 6334, Note_off_c, 1, 78, 65
3, 6336, Note_on_c, 1, 79, 103
3, 6814, Note_off_c, 1, 79, 65
3, 6816, Note_on_c, 1, 78, 103
3, 6910, Note_off_c, 1, 78, 65
3, 6912, Note_on_c, 1, 76, 103
3, 7102, Note_off_c, 1, 76, 65
3, 7104, Note_on_c, 1, 74, 103
3, 7126, Note_off_c, 1, 74, 65
3, 7128, Note_on_c, 1, 76, 103
3, 7150, Note_off_c, 1, 76, 65
3, 7152, Note_on_c, 1, 74, 103
3, 7174, Note_off_c, 1, 74, 65
3, 7176, Note_on_c, 1, 76, 103
3, 7198, Note_off_c, 1, 76, 65
3, 7200, Note_on_c, 1, 74, 103
3, 7222, Note_off_c, 1, 74, 65
3, 7224, Note_on_c, 1, 76, 103
3, 7246, Note_off_c, 1, 76, 65
3, 7248, Note_on_c, 1, 74, 103
3, 7270, Note_off_c, 1, 74, 65
3, 7272, Note_on_c, 1, 76, 103
3, 7294, Note_off_c, 1, 76, 65
3, 7296, Note_on_c, 1, 74, 103
3, 7318, Note_off_c, 1, 74, 65
3, 7320, Note_on_c, 1, 76, 103
3, 7342, Note_off_c, 1, 76, 65
3, 7344, Note_on_c, 1, 74, 103
3, 7366, Note_off_c, 1, 74, 65
3, 7368, Note_on_c, 1, 76, 103
3, 7390, Note_off_c, 1, 76, 65
3, 7392, Note_on_c, 1, 73, 103
3, 7438, Note_off_c, 1, 73, 65
3, 7440, Note_on_c, 1, 74, 103
3, 7486, Note_off_c, 1, 74, 65
3, 7488, Note_on_c, 1, 76, 103
3, 7966, Note_off_c, 1, 76, 65
3, 7968, Note_on_c, 1, 74, 103
3, 8062, Note_off_c, 1, 74, 65
3, 8064, Note_on_c, 1, 73, 103
3, 8254, Note_off_c, 1, 73, 65
3, 8256, Note_on_c, 1, 71, 103
3, 8350, Note_off_c, 1, 71, 65
3, 8352, Note_on_c, 1, 70, 103
3, 9118, Note_off_c, 1, 70, 65
3, 9120, Note_on_c, 1, 66, 103
3, 9214, Note_off_c, 1, 66, 65
3, 9216, Note_on_c, 1, 70, 103
3, 9310, Note_off_c, 1, 70, 65
3, 9312, Note_on_c, 1, 73, 103
3, 9406, Note_off_c, 1, 73, 65
3, 9408, Note_on_c, 1, 76, 103
3, 9500, Note_off_c, 1, 76, 65
3, 9504, Note_on_c, 1, 74, 103
3, 9596, Note_off_c, 1, 74, 65
3, 9600, Note_on_c, 1, 73, 103
3, 9788, Note_off_c, 1, 73, 65
3, 9792, Note_on_c, 1, 71, 103
3, 10172, Note_off_c, 1, 71, 65
3, 10176, Note_on_c, 1, 70, 103
3, 10364, Note_off_c, 1, 70, 65
3, 10368, Note_on_c, 1, 71, 103
3, 10428, Note_off_c, 1, 71, 65
3, 10560, Note_on_c, 1, 73, 103
3, 10652, Note_off_c, 1, 73, 65
3, 10656, Note_on_c, 1, 71, 103
3, 10748, Note_off_c, 1, 71, 65
3, 10752, Note_on_c, 1, 70, 103
3, 10940, Note_off_c, 1, 70, 65
3, 10944, Note_on_c, 1, 67, 103
3, 11324, Note_off_c, 1, 67, 65
3, 11328, Note_on_c, 1, 66, 103
3, 11516, Note_off_c, 1, 66, 65
3, 11520, Note_on_c, 1, 67, 103
3, 11708, Note_off_c, 1, 67, 65
3, 11712, Note_on_c, 1, 67, 103
3, 11804, Note_off_c, 1, 67, 65
3, 11808, Note_on_c, 1, 66, 103
3, 11900, Note_off_c, 1, 66, 65
3, 11904, Note_on_c, 1, 64, 103
3, 12092, Note_off_c, 1, 64, 65
3, 12096, Note_on_c, 1, 70, 103
3, 12668, Note_off_c, 1, 70, 65
3, 12672, Note_on_c, 1, 67, 103
3, 12764, Note_off_c, 1, 67, 65
3, 12768, Note_on_c, 1, 66, 103
3, 12860, Note_off_c, 1, 66, 65
3, 12864, Note_on_c, 1, 67, 103
3, 12956, Note_off_c, 1, 67, 65
3, 12960, Note_on_c, 1, 66, 103
3, 13052, Note_off_c, 1, 66, 65
3, 13056, Note_on_c, 1, 64, 103
3, 13244, Note_off_c, 1, 64, 65
3, 13248, Note_on_c, 1, 73, 103
3, 13820, Note_off_c, 1, 73, 65
3, 13824, Note_on_c, 1, 66, 103
3, 13916, Note_off_c, 1, 66, 65
3, 13920, Note_on_c, 1, 64, 103
3, 14012, Note_off_c, 1, 64, 65
3, 14016, Note_on_c, 1, 66, 103
3, 14062, Note_off_c, 1, 66, 65
3, 14064, Note_on_c, 1, 64, 103
3, 14110, Note_off_c, 1, 64, 65
3, 14112, Note_on_c, 1, 63, 103
3, 14206, Note_off_c, 1, 63, 65
3, 14208, Note_on_c, 1, 60, 103
3, 14398, Note_off_c, 1, 60, 65
3, 14400, Note_on_c, 1, 59, 103
3, 14494, Note_off_c, 1, 59, 65
3, 14496, Note_on_c, 1, 69, 103
3, 14542, Note_off_c, 1, 69, 65
3, 14544, Note_on_c, 1, 67, 103
3, 14590, Note_off_c, 1, 67, 65
3, 14592, Note_on_c, 1, 69, 103
3, 14638, Note_off_c, 1, 69, 65
3, 14640, Note_on_c, 1, 67, 103
3, 14686, Note_off_c, 1, 67, 65
3, 14688, Note_on_c, 1, 66, 103
3, 14782, Note_off_c, 1, 66, 65
3, 14784, Note_on_c, 1, 64, 103
3, 14974, Note_off_c, 1, 64, 65
3, 14976, Note_on_c, 1, 63, 103
3, 15070, Note_off_c, 1, 63, 65
3, 15072, Note_on_c, 1, 72, 103
3, 15118, Note_off_c, 1, 72, 65
3, 15120, Note_on_c, 1, 71, 103
3, 15166, Note_off_c, 1, 71, 65
3, 15168, Note_on_c, 1, 72, 103
3, 15214, Note_off_c, 1, 72, 65
3, 15216, Note_on_c, 1, 71, 103
3, 15262, Note_off_c, 1, 71, 65
3, 15264, Note_on_c, 1, 69, 103
3, 15358, Note_off_c, 1, 69, 65
3, 15360, Note_on_c, 1, 67, 103
3, 15550, Note_off_c, 1, 67, 65
3, 15552, Note_on_c, 1, 66, 103
3, 15646, Note_off_c, 1, 66, 65
3, 15648, Note_on_c, 1, 78, 103
3, 15694, Note_off_c, 1, 78, 65
3, 15696, Note_on_c, 1, 76, 103
3, 15742, Note_off_c, 1, 76, 65
3, 15744, Note_on_c, 1, 78, 103
3, 15790, Note_off_c, 1, 78, 65
3, 15792, Note_on_c, 1, 76, 103
3, 15838, Note_off_c, 1, 76, 65
3, 15840, Note_on_c, 1, 75, 103
3, 15934, Note_off_c, 1, 75, 65
3, 15936, Note_on_c, 1, 72, 103
3, 16126, Note_off_c, 1, 72, 65
3, 16128, Note_on_c, 1, 71, 103
3, 16222, Note_off_c, 1, 71, 65
3, 16224, Note_on_c, 1, 78, 103
3, 16318, Note_off_c, 1, 78, 65
3, 16320, Note_on_c, 1, 79, 103
3, 16366, Note_off_c, 1, 79, 65
3, 16368, Note_on_c, 1, 81, 103
3, 16414, Note_off_c, 1, 81, 65
3, 16416, Note_on_c, 1, 83, 103
3, 16606, Note_off_c, 1, 83, 65
3, 16608, Note_on_c, 1, 81, 103
3, 16654, Note_off_c, 1, 81, 65
3, 16656, Note_on_c, 1, 79, 103
3, 16702, Note_off_c, 1, 79, 65
3, 16704, Note_on_c, 1, 81, 103
3, 16750, Note_off_c, 1, 81, 65
3, 16752, Note_on_c, 1, 79, 103
3, 16798, Note_off_c, 1, 79, 65
3, 16800, Note_on_c, 1, 78, 103
3, 16894, Note_off_c, 1, 78, 65
3, 16896, Note_on_c, 1, 76, 103
3, 16942, Note_off_c, 1, 76, 65
3, 16944, Note_on_c, 1, 78, 103
3, 16990, Note_off_c, 1, 78, 65
3, 16992, Note_on_c, 1, 79, 103
3, 17182, Note_off_c, 1, 79, 65
3, 17184, Note_on_c, 1, 78, 103
3, 17230, Note_off_c, 1, 78, 65
3, 17232, Note_on_c, 1, 76, 103
3, 17278, Note_off_c, 1, 76, 65
3, 17280, Note_on_c, 1, 78, 103
3, 17326, Note_off_c, 1, 78, 65
3, 17328, Note_on_c, 1, 76, 103
3, 17374, Note_off_c, 1, 76, 65
3, 17376, Note_on_c, 1, 74, 103
3, 17470, Note_off_c, 1, 74, 65
3, 17472, Note_on_c, 1, 72, 103
3, 17518, Note_off_c, 1, 72, 65
3, 17520, Note_on_c, 1, 74, 103
3, 17566, Note_off_c, 1, 74, 65
3, 17568, Note_on_c, 1, 76, 103
3, 17758, Note_off_c, 1, 76, 65
3, 17760, Note_on_c, 1, 74, 103
3, 17806, Note_off_c, 1, 74, 65
3, 17808, Note_on_c, 1, 72, 103
3, 17854, Note_off_c, 1, 72, 65
3, 17856, Note_on_c, 1, 74, 103
3, 17902, Note_off_c, 1, 74, 65
3, 17904, Note_on_c, 1, 72, 103
3, 17950, Note_off_c, 1, 72, 65
3, 17952, Note_on_c, 1, 71, 103
3, 18046, Note_off_c, 1, 71, 65
3, 18048, Note_on_c, 1, 70, 103
3, 18094, Note_off_c, 1, 70, 65
3, 18096, Note_on_c, 1, 71, 103
3, 18142, Note_off_c, 1, 71, 65
3, 18144, Note_on_c, 1, 73, 103
3, 18334, Note_off_c, 1, 73, 65
3, 18336, Note_on_c, 1, 71, 103
3, 18382, Note_off_c, 1, 71, 65
3, 18384, Note_on_c, 1, 70, 103
3, 18430, Note_off_c, 1, 70, 65
3, 18432, Note_on_c, 1, 71, 103
3, 18478, Note_off_c, 1, 71, 65
3, 18480, Note_on_c, 1, 70, 103
3, 18526, Note_off_c, 1, 70, 65
3, 18528, Note_on_c, 1, 68, 103
3, 18622, Note_off_c, 1, 68, 65
3, 18624, Note_on_c, 1, 66, 103
3, 18910, Note_off_c, 1, 66, 65
3, 18912, Note_on_c, 1, 68, 103
3, 18958, Note_off_c, 1, 68, 65
3, 18960, Note_on_c, 1, 70, 103
3, 19006, Note_off_c, 1, 70, 65
3, 19008, Note_on_c, 1, 71, 103
3, 19054, Note_off_c, 1, 71, 65
3, 19056, Note_on_c, 1, 73, 103
3, 19102, Note_off_c, 1, 73, 65
3, 19104, Note_on_c, 1, 74, 103
3, 19150, Note_off_c, 1, 74, 65
3, 19152, Note_on_c, 1, 73, 103
3, 19198, Note_off_c, 1, 73, 65
3, 19200, Note_on_c, 1, 76, 103
3, 19328, Note_off_c, 1, 76, 65
3, 19392, Note_on_c, 1, 74, 103
3, 19520, Note_off_c, 1, 74, 65
3, 19584, Note_on_c, 1, 74, 103
3, 19628, Note_off_c, 1, 74, 65
3, 19632, Note_on_c, 1, 73, 103
3, 19652, Note_off_c, 1, 73, 65
3, 19656, Note_on_c, 1, 74, 103
3, 19676, Note_off_c, 1, 74, 65
3, 19680, Note_on_c, 1, 73, 103
3, 19700, Note_off_c, 1, 73, 65
3, 19704, Note_on_c, 1, 74, 103
3, 19724, Note_off_c, 1, 74, 65
3, 19728, Note_on_c, 1, 73, 103
3, 19772, Note_off_c, 1, 73, 65
3, 19776, Note_on_c, 1, 71, 103
3, 20732, Note_off_c, 1, 71, 65
3, 23232, Note_on_c, 1, 76, 103
3, 23276, Note_off_c, 1, 76, 65
3, 23280, Note_on_c, 1, 78, 103
3, 23324, Note_off_c, 1, 78, 65
3, 23328, Note_on_c, 1, 79, 103
3, 23516, Note_off_c, 1, 79, 65
3, 23520, Note_on_c, 1, 78, 103
3, 23564, Note_off_c, 1, 78, 65
3, 23568, Note_on_c, 1, 79, 103
3, 23612, Note_off_c, 1, 79, 65
3, 23616, Note_on_c, 1, 81, 103
3, 24092, Note_off_c, 1, 81, 65
3, 24096, Note_on_c, 1, 79, 103
3, 24188, Note_off_c, 1, 79, 65
3, 24192, Note_on_c, 1, 78, 103
3, 24380, Note_off_c, 1, 78, 65
3, 24384, Note_on_c, 1, 78, 103
3, 24476, Note_off_c, 1, 78, 65
3, 24480, Note_on_c, 1, 76, 103
3, 25248, Note_on_c, 1, 79, 103
3, 25292, Note_off_c, 1, 76, 65
3, 25340, Note_off_c, 1, 79, 65
3, 25344, Note_on_c, 1, 76, 103
3, 25532, Note_off_c, 1, 76, 65
3, 25536, Note_on_c, 1, 74, 103
3, 25628, Note_off_c, 1, 74, 65
3, 25632, Note_on_c, 1, 72, 103
3, 25820, Note_off_c, 1, 72, 65
3, 25824, Note_on_c, 1, 79, 103
3, 25916, Note_off_c, 1, 79, 65
3, 25920, Note_on_c, 1, 76, 103
3, 26108, Note_off_c, 1, 76, 65
3, 26112, Note_on_c, 1, 72, 103
3, 26204, Note_off_c, 1, 72, 65
3, 26208, Note_on_c, 1, 71, 103
3, 26396, Note_off_c, 1, 71, 65
3, 26400, Note_on_c, 1, 79, 103
3, 26492, Note_off_c, 1, 79, 65
3, 26496, Note_on_c, 1, 76, 103
3, 26684, Note_off_c, 1, 76, 65
3, 26688, Note_on_c, 1, 71, 103
3, 26780, Note_off_c, 1, 71, 65
3, 26784, Note_on_c, 1, 70, 103
3, 26972, Note_off_c, 1, 70, 65
3, 26976, Note_on_c, 1, 76, 103
3, 27020, Note_off_c, 1, 76, 65
3, 27024, Note_on_c, 1, 78, 103
3, 27068, Note_off_c, 1, 78, 65
3, 27072, Note_on_c, 1, 79, 103
3, 27548, Note_off_c, 1, 79, 65
3, 27552, Note_on_c, 1, 78, 103
3, 27644, Note_off_c, 1, 78, 65
3, 27648, Note_on_c, 1, 76, 103
3, 27836, Note_off_c, 1, 76, 65
3, 27840, Note_on_c, 1, 76, 103
3, 27932, Note_off_c, 1, 76, 65
3, 27936, Note_on_c, 1, 74, 103
3, 28124, Note_off_c, 1, 74, 65
3, 28128, Note_on_c, 1, 73, 103
3, 28172, Note_off_c, 1, 73, 65
3, 28176, Note_on_c, 1, 74, 103
3, 28220, Note_off_c, 1, 74, 65
3, 28224, Note_on_c, 1, 76, 103
3, 28700, Note_off_c, 1, 76, 65
3, 28704, Note_on_c, 1, 74, 103
3, 28796, Note_off_c, 1, 74, 65
3, 28800, Note_on_c, 1, 73, 103
3, 28988, Note_off_c, 1, 73, 65
3, 28992, Note_on_c, 1, 71, 103
3, 29084, Note_off_c, 1, 71, 65
3, 29088, Note_on_c, 1, 70, 103
3, 29948, Note_off_c, 1, 70, 65
3, 31584, Note_on_c, 1, 76, 103
3, 31676, Note_off_c, 1, 76, 65
3, 31680, Note_on_c, 1, 71, 103
3, 31868, Note_off_c, 1, 71, 65
3, 31872, Note_on_c, 1, 69, 103
3, 31964, Note_off_c, 1, 69, 65
3, 31968, Note_on_c, 1, 67, 103
3, 32348, Note_off_c, 1, 67, 65
3, 33888, Note_on_c, 1, 78, 103
3, 33980, Note_off_c, 1, 78, 65
3, 33984, Note_on_c, 1, 73, 103
3, 34172, Note_off_c, 1, 73, 65
3, 34176, Note_on_c, 1, 71, 103
3, 34268, Note_off_c, 1, 71, 65
3, 34272, Note_on_c, 1, 69, 103
3, 34556, Note_off_c, 1, 69, 65
3, 34560, Note_on_c, 1, 73, 103
3, 34748, Note_off_c, 1, 73, 65
3, 34752, Note_on_c, 1, 78, 103
3, 34796, Note_off_c, 1, 78, 65
3, 34800, Note_on_c, 1, 80, 103
3, 34844, Note_off_c, 1, 80, 65
3, 34848, Note_on_c, 1, 81, 103
3, 35036, Note_off_c, 1, 81, 65
3, 35040, Note_on_c, 1, 80, 103
3, 35132, Note_off_c, 1, 80, 65
3, 35136, Note_on_c, 1, 78, 103
3, 35324, Note_off_c, 1, 78, 65
3, 35328, Note_on_c, 1, 80, 103
3, 35420, Note_off_c, 1, 80, 65
3, 35424, Note_on_c, 1, 78, 103
3, 35612, Note_off_c, 1, 78, 65
3, 35616, Note_on_c, 1, 77, 103
3, 35708, Note_off_c, 1, 77, 65
3, 35712, Note_on_c, 1, 78, 103
3, 35900, Note_off_c, 1, 78, 65
3, 35904, Note_on_c, 1, 78, 103
3, 37436, Note_off_c, 1, 78, 65
3, 37440, Note_on_c, 1, 71, 103
3, 37628, Note_off_c, 1, 71, 65
3, 37632, Note_on_c, 1, 71, 103
3, 37820, Note_off_c, 1, 71, 65
3, 37824, Note_on_c, 1, 70, 103
3, 38012, Note_off_c, 1, 70, 65
3, 38016, Note_on_c, 1, 76, 103
3, 38396, Note_off_c, 1, 76, 65
3, 38400, Note_on_c, 1, 74, 103
3, 38492, Note_off_c, 1, 74, 65
3, 38496, Note_on_c, 1, 78, 103
3, 38588, Note_off_c, 1, 78, 65
3, 38592, Note_on_c, 1, 73, 103
3, 38972, Note_off_c, 1, 73, 65
3, 38976, Note_on_c, 1, 71, 103
3, 39068, Note_off_c, 1, 71, 65
3, 39072, Note_on_c, 1, 74, 103
3, 39164, Note_off_c, 1, 74, 65
3, 39168, Note_on_c, 1, 69, 103
3, 39356, Note_off_c, 1, 69, 65
3, 39360, Note_on_c, 1, 69, 103
3, 39452, Note_off_c, 1, 69, 65
3, 39456, Note_on_c, 1, 67, 103
3, 39644, Note_off_c, 1, 67, 65
3, 39648, Note_on_c, 1, 74, 103
3, 39740, Note_off_c, 1, 74, 65
3, 39744, Note_on_c, 1, 71, 103
3, 39932, Note_off_c, 1, 71, 65
3, 39936, Note_on_c, 1, 67, 103
3, 40028, Note_off_c, 1, 67, 65
3, 40032, Note_on_c, 1, 66, 103
3, 40220, Note_off_c, 1, 66, 65
3, 40224, Note_on_c, 1, 74, 103
3, 40316, Note_off_c, 1, 74, 65
3, 40320, Note_on_c, 1, 71, 103
3, 40508, Note_off_c, 1, 71, 65
3, 40512, Note_on_c, 1, 66, 103
3, 40604, Note_off_c, 1, 66, 65
3, 40608, Note_on_c, 1, 65, 103
3, 40796, Note_off_c, 1, 65, 65
3, 40800, Note_on_c, 1, 71, 103
3, 40844, Note_off_c, 1, 71, 65
3, 40848, Note_on_c, 1, 73, 103
3, 40892, Note_off_c, 1, 73, 65
3, 40896, Note_on_c, 1, 74, 103
3, 41372, Note_off_c, 1, 74, 65
3, 41376, Note_on_c, 1, 73, 103
3, 41468, Note_off_c, 1, 73, 65
3, 41472, Note_on_c, 1, 71, 103
3, 41660, Note_off_c, 1, 71, 65
3, 41664, Note_on_c, 1, 71, 103
3, 41756, Note_off_c, 1, 71, 65
3, 41760, Note_on_c, 1, 69, 103
3, 41948, Note_off_c, 1, 69, 65
3, 41952, Note_on_c, 1, 68, 103
3, 41996, Note_off_c, 1, 68, 65
3, 42000, Note_on_c, 1, 69, 103
3, 42044, Note_off_c, 1, 69, 65
3, 42048, Note_on_c, 1, 71, 103
3, 42236, Note_off_c, 1, 71, 65
3, 42240, Note_on_c, 1, 71, 103
3, 42524, Note_off_c, 1, 71, 65
3, 42528, Note_on_c, 1, 69, 103
3, 42620, Note_off_c, 1, 69, 65
3, 42624, Note_on_c, 1, 68, 103
3, 42720, Note_on_c, 1, 66, 103
3, 42812, Note_off_c, 1, 68, 65
3, 42812, Note_off_c, 1, 66, 65
3, 42816, Note_on_c, 1, 65, 103
3, 43484, Note_off_c, 1, 65, 65
3, 43488, Note_on_c, 1, 66, 103
3, 43580, Note_off_c, 1, 66, 65
3, 43584, Note_on_c, 1, 68, 103
3, 43676, Note_off_c, 1, 68, 65
3, 43680, Note_on_c, 1, 73, 103
3, 43772, Note_off_c, 1, 73, 65
3, 43776, Note_on_c, 1, 77, 103
3, 43868, Note_off_c, 1, 77, 65
3, 43872, Note_on_c, 1, 80, 103
3, 43964, Note_off_c, 1, 80, 65
3, 43968, Note_on_c, 1, 83, 103
3, 44012, Note_off_c, 1, 83, 65
3, 44016, Note_on_c, 1, 81, 103
3, 44060, Note_off_c, 1, 81, 65
3, 44064, Note_on_c, 1, 80, 103
3, 44156, Note_off_c, 1, 80, 65
3, 44160, Note_on_c, 1, 78, 103
3, 44348, Note_off_c, 1, 78, 65
3, 44352, Note_on_c, 1, 77, 103
3, 44492, Note_off_c, 1, 77, 65
3, 44496, Note_on_c, 1, 78, 103
3, 44540, Note_off_c, 1, 78, 65
3, 44544, Note_on_c, 1, 80, 103
3, 44588, Note_off_c, 1, 80, 65
3, 44592, Note_on_c, 1, 78, 103
3, 44636, Note_off_c, 1, 78, 65
3, 44640, Note_on_c, 1, 77, 103
3, 44732, Note_off_c, 1, 77, 65
3, 44736, Note_on_c, 1, 74, 103
3, 44924, Note_off_c, 1, 74, 65
3, 44928, Note_on_c, 1, 73, 103
3, 45068, Note_off_c, 1, 73, 65
3, 45072, Note_on_c, 1, 74, 103
3, 45116, Note_off_c, 1, 74, 65
3, 45120, Note_on_c, 1, 78, 103
3, 45212, Note_off_c, 1, 78, 65
3, 45216, Note_on_c, 1, 77, 103
3, 45788, Note_off_c, 1, 77, 65
3, 46272, Note_on_c, 1, 76, 103
3, 46316, Note_off_c, 1, 76, 65
3, 46320, Note_on_c, 1, 74, 103
3, 46364, Note_off_c, 1, 74, 65
3, 46368, Note_on_c, 1, 73, 103
3, 46460, Note_off_c, 1, 73, 65
3, 46464, Note_on_c, 1, 71, 103
3, 46652, Note_off_c, 1, 71, 65
3, 46656, Note_on_c, 1, 70, 103
3, 46796, Note_off_c, 1, 70, 65
3, 46800, Note_on_c, 1, 71, 103
3, 46844, Note_off_c, 1, 71, 65
3, 46848, Note_on_c, 1, 73, 103
3, 46892, Note_off_c, 1, 73, 65
3, 46896, Note_on_c, 1, 71, 103
3, 46940, Note_off_c, 1, 71, 65
3, 46944, Note_on_c, 1, 70, 103
3, 47036, Note_off_c, 1, 70, 65
3, 47040, Note_on_c, 1, 67, 103
3, 47228, Note_off_c, 1, 67, 65
3, 47232, Note_on_c, 1, 66, 103
3, 47372, Note_off_c, 1, 66, 65
3, 47376, Note_on_c, 1, 67, 103
3, 47420, Note_off_c, 1, 67, 65
3, 47424, Note_on_c, 1, 71, 103
3, 47516, Note_off_c, 1, 71, 65
3, 47520, Note_on_c, 1, 70, 103
3, 48524, Note_off_c, 1, 70, 65
3, 48576, Note_on_c, 1, 74, 103
3, 48620, Note_off_c, 1, 74, 65
3, 48624, Note_on_c, 1, 76, 103
3, 48668, Note_off_c, 1, 76, 65
3, 48672, Note_on_c, 1, 78, 103
3, 48860, Note_off_c, 1, 78, 65
3, 48864, Note_on_c, 1, 76, 103
3, 48908, Note_off_c, 1, 76, 65
3, 48912, Note_on_c, 1, 74, 103
3, 48956, Note_off_c, 1, 74, 65
3, 48960, Note_on_c, 1, 76, 103
3, 49004, Note_off_c, 1, 76, 65
3, 49008, Note_on_c, 1, 74, 103
3, 49052, Note_off_c, 1, 74, 65
3, 49056, Note_on_c, 1, 73, 103
3, 49148, Note_off_c, 1, 73, 65
3, 49152, Note_on_c, 1, 71, 103
3, 49196, Note_off_c, 1, 71, 65
3, 49200, Note_on_c, 1, 73, 103
3, 49244, Note_off_c, 1, 73, 65
3, 49248, Note_on_c, 1, 74, 103
3, 49436, Note_off_c, 1, 74, 65
3, 49440, Note_on_c, 1, 73, 103
3, 49484, Note_off_c, 1, 73, 65
3, 49488, Note_on_c, 1, 71, 103
3, 49532, Note_off_c, 1, 71, 65
3, 49536, Note_on_c, 1, 73, 103
3, 49580, Note_off_c, 1, 73, 65
3, 49584, Note_on_c, 1, 71, 103
3, 49628, Note_off_c, 1, 71, 65
3, 49632, Note_on_c, 1, 69, 103
3, 49724, Note_off_c, 1, 69, 65
3, 49728, Note_on_c, 1, 67, 103
3, 49772, Note_off_c, 1, 67, 65
3, 49776, Note_on_c, 1, 69, 103
3, 49820, Note_off_c, 1, 69, 65
3, 49824, Note_on_c, 1, 71, 103
3, 50012, Note_off_c, 1, 71, 65
3, 50016, Note_on_c, 1, 69, 103
3, 50060, Note_off_c, 1, 69, 65
3, 50064, Note_on_c, 1, 67, 103
3, 50108, Note_off_c, 1, 67, 65
3, 50112, Note_on_c, 1, 69, 103
3, 50156, Note_off_c, 1, 69, 65
3, 50160, Note_on_c, 1, 67, 103
3, 50204, Note_off_c, 1, 67, 65
3, 50208, Note_on_c, 1, 66, 103
3, 50300, Note_off_c, 1, 66, 65
3, 50304, Note_on_c, 1, 65, 103
3, 50348, Note_off_c, 1, 65, 65
3, 50352, Note_on_c, 1, 66, 103
3, 50396, Note_off_c, 1, 66, 65
3, 50400, Note_on_c, 1, 68, 103
3, 50588, Note_off_c, 1, 68, 65
3, 50592, Note_on_c, 1, 66, 103
3, 50636, Note_off_c, 1, 66, 65
3, 50640, Note_on_c, 1, 65, 103
3, 50684, Note_off_c, 1, 65, 65
3, 50688, Note_on_c, 1, 66, 103
3, 50732, Note_off_c, 1, 66, 65
3, 50736, Note_on_c, 1, 65, 103
3, 50780, Note_off_c, 1, 65, 65
3, 50784, Note_on_c, 1, 63, 103
3, 50876, Note_off_c, 1, 63, 65
3, 50880, Note_on_c, 1, 61, 103
3, 51068, Note_off_c, 1, 61, 65
3, 52992, Note_on_c, 1, 73, 103
3, 53180, Note_off_c, 1, 73, 65
3, 53184, Note_on_c, 1, 78, 103
3, 53228, Note_off_c, 1, 78, 65
3, 53232, Note_on_c, 1, 80, 103
3, 53276, Note_off_c, 1, 80, 65
3, 53280, Note_on_c, 1, 81, 103
3, 53468, Note_off_c, 1, 81, 65
3, 53472, Note_on_c, 1, 80, 103
3, 53564, Note_off_c, 1, 80, 65
3, 53568, Note_on_c, 1, 78, 103
3, 53756, Note_off_c, 1, 78, 65
3, 53760, Note_on_c, 1, 80, 103
3, 53852, Note_off_c, 1, 80, 65
3, 53856, Note_on_c, 1, 78, 103
3, 54044, Note_off_c, 1, 78, 65
3, 54048, Note_on_c, 1, 77, 103
3, 54140, Note_off_c, 1, 77, 65
3, 54144, Note_on_c, 1, 78, 103
3, 54332, Note_off_c, 1, 78, 65
3, 54336, Note_on_c, 1, 78, 103
3, 55292, Note_off_c, 1, 78, 65
3, 55296, Note_on_c, 1, 78, 103
3, 55484, Note_off_c, 1, 78, 65
3, 55488, Note_on_c, 1, 86, 103
3, 55772, Note_off_c, 1, 86, 65
3, 55776, Note_on_c, 1, 85, 103
3, 55820, Note_off_c, 1, 85, 65
3, 55824, Note_on_c, 1, 86, 103
3, 55868, Note_off_c, 1, 86, 65
3, 55872, Note_on_c, 1, 88, 103
3, 56348, Note_off_c, 1, 88, 65
3, 56352, Note_on_c, 1, 86, 103
3, 56444, Note_off_c, 1, 86, 65
3, 56448, Note_on_c, 1, 85, 103
3, 56636, Note_off_c, 1, 85, 65
3, 56640, Note_on_c, 1, 85, 103
3, 56732, Note_off_c, 1, 85, 65
3, 56736, Note_on_c, 1, 83, 103
3, 57500, Note_off_c, 1, 83, 65
3, 57504, Note_on_c, 1, 86, 103
3, 57596, Note_off_c, 1, 86, 65
3, 57600, Note_on_c, 1, 83, 103
3, 57788, Note_off_c, 1, 83, 65
3, 57792, Note_on_c, 1, 81, 103
3, 57884, Note_off_c, 1, 81, 65
3, 57888, Note_on_c, 1, 79, 103
3, 58076, Note_off_c, 1, 79, 65
3, 58080, Note_on_c, 1, 86, 103
3, 58172, Note_off_c, 1, 86, 65
3, 58176, Note_on_c, 1, 83, 103
3, 58364, Note_off_c, 1, 83, 65
3, 58368, Note_on_c, 1, 79, 103
3, 58460, Note_off_c, 1, 79, 65
3, 58464, Note_on_c, 1, 78, 103
3, 58652, Note_off_c, 1, 78, 65
3, 58656, Note_on_c, 1, 86, 103
3, 58748, Note_off_c, 1, 86, 65
3, 58752, Note_on_c, 1, 83, 103
3, 58940, Note_off_c, 1, 83, 65
3, 58944, Note_on_c, 1, 78, 103
3, 59036, Note_off_c, 1, 78, 65
3, 59040, Note_on_c, 1, 77, 103
3, 59228, Note_off_c, 1, 77, 65
3, 59232, Note_on_c, 1, 80, 103
3, 59276, Note_off_c, 1, 80, 65
3, 59280, Note_on_c, 1, 81, 103
3, 59324, Note_off_c, 1, 81, 65
3, 59328, Note_on_c, 1, 83, 103
3, 59516, Note_off_c, 1, 83, 65
3, 59520, Note_on_c, 1, 73, 103
3, 59612, Note_off_c, 1, 73, 65
3, 59616, Note_on_c, 1, 74, 103
3, 59804, Note_off_c, 1, 74, 65
3, 59808, Note_on_c, 1, 73, 103
3, 59900, Note_off_c, 1, 73, 65
3, 59904, Note_on_c, 1, 71, 103
3, 60092, Note_off_c, 1, 71, 65
3, 60096, Note_on_c, 1, 73, 103
3, 60382, Note_off_c, 1, 73, 65
3, 60384, Note_on_c, 1, 75, 103
3, 60430, Note_off_c, 1, 75, 65
3, 60432, Note_on_c, 1, 77, 103
3, 60478, Note_off_c, 1, 77, 65
3, 60480, Note_on_c, 1, 78, 103
3, 60526, Note_off_c, 1, 78, 65
3, 60528, Note_on_c, 1, 80, 103
3, 60574, Note_off_c, 1, 80, 65
3, 60576, Note_on_c, 1, 81, 103
3, 60622, Note_off_c, 1, 81, 65
3, 60624, Note_on_c, 1, 80, 103
3, 60670, Note_off_c, 1, 80, 65
3, 60672, Note_on_c, 1, 83, 103
3, 60800, Note_off_c, 1, 83, 65
3, 60864, Note_on_c, 1, 81, 103
3, 60992, Note_off_c, 1, 81, 65
3, 61056, Note_on_c, 1, 81, 103
3, 61100, Note_off_c, 1, 81, 65
3, 61104, Note_on_c, 1, 80, 103
3, 61124, Note_off_c, 1, 80, 65
3, 61128, Note_on_c, 1, 81, 103
3, 61148, Note_off_c, 1, 81, 65
3, 61152, Note_on_c, 1, 80, 103
3, 61172, Note_off_c, 1, 80, 65
3, 61176, Note_on_c, 1, 81, 103
3, 61196, Note_off_c, 1, 81, 65
3, 61200, Note_on_c, 1, 80, 103
3, 61244, Note_off_c, 1, 80, 65
3, 61248, Note_on_c, 1, 78, 103
3, 62204, Note_off_c, 1, 78, 65
3, 62688, Note_on_c, 1, 84, 103
3, 62782, Note_off_c, 1, 84, 65
3, 62784, Note_on_c, 1, 81, 103
3, 62974, Note_off_c, 1, 81, 65
3, 62976, Note_on_c, 1, 78, 103
3, 63070, Note_off_c, 1, 78, 65
3, 63072, Note_on_c, 1, 76, 103
3, 63262, Note_off_c, 1, 76, 65
3, 63264, Note_on_c, 1, 84, 103
3, 63358, Note_off_c, 1, 84, 65
3, 63360, Note_on_c, 1, 81, 103
3, 63550, Note_off_c, 1, 81, 65
3, 63552, Note_on_c, 1, 76, 103
3, 63646, Note_off_c, 1, 76, 65
3, 63648, Note_on_c, 1, 75, 103
3, 63742, Note_off_c, 1, 75, 65
3, 64992, Note_on_c, 1, 79, 103
3, 65086, Note_off_c, 1, 79, 65
3, 65088, Note_on_c, 1, 76, 103
3, 65278, Note_off_c, 1, 76, 65
3, 65280, Note_on_c, 1, 74, 103
3, 65374, Note_off_c, 1, 74, 65
3, 65376, Note_on_c, 1, 72, 103
3, 65566, Note_off_c, 1, 72, 65
3, 65568, Note_on_c, 1, 79, 103
3, 65662, Note_off_c, 1, 79, 65
3, 65664, Note_on_c, 1, 76, 103
3, 65854, Note_off_c, 1, 76, 65
3, 65856, Note_on_c, 1, 71, 103
3, 65950, Note_off_c, 1, 71, 65
3, 65952, Note_on_c, 1, 70, 103
3, 66046, Note_off_c, 1, 70, 65
3, 67296, Note_on_c, 1, 86, 103
3, 67390, Note_off_c, 1, 86, 65
3, 67392, Note_on_c, 1, 83, 103
3, 67582, Note_off_c, 1, 83, 65
3, 67584, Note_on_c, 1, 81, 103
3, 67678, Note_off_c, 1, 81, 65
3, 67680, Note_on_c, 1, 79, 103
3, 67870, Note_off_c, 1, 79, 65
3, 67872, Note_on_c, 1, 86, 103
3, 67966, Note_off_c, 1, 86, 65
3, 67968, Note_on_c, 1, 83, 103
3, 68158, Note_off_c, 1, 83, 65
3, 68160, Note_on_c, 1, 78, 103
3, 68254, Note_off_c, 1, 78, 65
3, 68256, Note_on_c, 1, 77, 103
3, 68350, Note_off_c, 1, 77, 65
3, 69312, Note_on_c, 1, 81, 103
3, 69358, Note_off_c, 1, 81, 65
3, 69360, Note_on_c, 1, 83, 103
3, 69406, Note_off_c, 1, 83, 65
3, 69408, Note_on_c, 1, 85, 103
3, 69598, Note_off_c, 1, 85, 65
3, 69600, Note_on_c, 1, 83, 103
3, 69646, Note_off_c, 1, 83, 65
3, 69648, Note_on_c, 1, 81, 103
3, 69694, Note_off_c, 1, 81, 65
3, 69696, Note_on_c, 1, 83, 103
3, 69742, Note_off_c, 1, 83, 65
3, 69744, Note_on_c, 1, 81, 103
3, 69790, Note_off_c, 1, 81, 65
3, 69792, Note_on_c, 1, 80, 103
3, 69886, Note_off_c, 1, 80, 65
3, 69888, Note_on_c, 1, 78, 103
3, 69934, Note_off_c, 1, 78, 65
3, 69936, Note_on_c, 1, 80, 103
3, 69982, Note_off_c, 1, 80, 65
3, 69984, Note_on_c, 1, 81, 103
3, 70174, Note_off_c, 1, 81, 65
3, 70176, Note_on_c, 1, 80, 103
3, 70222, Note_off_c, 1, 80, 65
3, 70224, Note_on_c, 1, 78, 103
3, 70270, Note_off_c, 1, 78, 65
3, 70272, Note_on_c, 1, 80, 103
3, 70318, Note_off_c, 1, 80, 65
3, 70320, Note_on_c, 1, 78, 103
3, 70366, Note_off_c, 1, 78, 65
3, 70368, Note_on_c, 1, 76, 103
3, 70462, Note_off_c, 1, 76, 65
3, 70464, Note_on_c, 1, 74, 103
3, 70510, Note_off_c, 1, 74, 65
3, 70512, Note_on_c, 1, 76, 103
3, 70558, Note_off_c, 1, 76, 65
3, 70560, Note_on_c, 1, 78, 103
3, 70750, Note_off_c, 1, 78, 65
3, 70752, Note_on_c, 1, 76, 103
3, 70798, Note_off_c, 1, 76, 65
3, 70800, Note_on_c, 1, 75, 103
3, 70846, Note_off_c, 1, 75, 65
3, 70848, Note_on_c, 1, 76, 103
3, 70894, Note_off_c, 1, 76, 65
3, 70896, Note_on_c, 1, 75, 103
3, 70942, Note_off_c, 1, 75, 65
3, 70944, Note_on_c, 1, 73, 103
3, 71038, Note_off_c, 1, 73, 65
3, 71040, Note_on_c, 1, 72, 103
3, 71230, Note_off_c, 1, 72, 65
3, 72480, Note_on_c, 1, 81, 103
3, 72574, Note_off_c, 1, 81, 65
3, 72576, Note_on_c, 1, 78, 103
3, 72766, Note_off_c, 1, 78, 65
3, 72768, Note_on_c, 1, 76, 103
3, 72862, Note_off_c, 1, 76, 65
3, 72864, Note_on_c, 1, 74, 103
3, 73054, Note_off_c, 1, 74, 65
3, 73056, Note_on_c, 1, 81, 103
3, 73150, Note_off_c, 1, 81, 65
3, 73152, Note_on_c, 1, 78, 103
3, 73342, Note_off_c, 1, 78, 65
3, 73344, Note_on_c, 1, 74, 103
3, 73438, Note_off_c, 1, 74, 65
3, 73440, Note_on_c, 1, 73, 103
3, 73630, Note_off_c, 1, 73, 65
3, 73632, Note_on_c, 1, 81, 103
3, 73726, Note_off_c, 1, 81, 65
3, 73728, Note_on_c, 1, 78, 103
3, 73918, Note_off_c, 1, 78, 65
3, 73920, Note_on_c, 1, 73, 103
3, 74014, Note_off_c, 1, 73, 65
3, 74016, Note_on_c, 1, 72, 103
3, 74206, Note_off_c, 1, 72, 65
3, 76032, Note_on_c, 1, 73, 103
3, 76222, Note_off_c, 1, 73, 65
3, 76224, Note_on_c, 1, 78, 103
3, 76270, Note_off_c, 1, 78, 65
3, 76272, Note_on_c, 1, 80, 103
3, 76318, Note_off_c, 1, 80, 65
3, 76320, Note_on_c, 1, 81, 103
3, 76510, Note_off_c, 1, 81, 65
3, 76512, Note_on_c, 1, 80, 103
3, 76558, Note_off_c, 1, 80, 65
3, 76560, Note_on_c, 1, 81, 103
3, 76606, Note_off_c, 1, 81, 65
3, 76608, Note_on_c, 1, 83, 103
3, 77086, Note_off_c, 1, 83, 65
3, 77088, Note_on_c, 1, 81, 103
3, 77182, Note_off_c, 1, 81, 65
3, 77184, Note_on_c, 1, 80, 103
3, 77374, Note_off_c, 1, 80, 65
3, 77376, Note_on_c, 1, 78, 103
3, 79966, Note_off_c, 1, 78, 65
3, 79968, Note_on_c, 1, 83, 103
3, 80062, Note_off_c, 1, 83, 65
3, 80064, Note_on_c, 1, 79, 103
3, 80254, Note_off_c, 1, 79, 65
3, 80256, Note_on_c, 1, 72, 103
3, 80350, Note_off_c, 1, 72, 65
3, 80352, Note_on_c, 1, 71, 103
3, 80542, Note_off_c, 1, 71, 65
3, 80544, Note_on_c, 1, 81, 103
3, 80638, Note_off_c, 1, 81, 65
3, 80640, Note_on_c, 1, 78, 103
3, 80830, Note_off_c, 1, 78, 65
3, 80832, Note_on_c, 1, 69, 103
3, 80926, Note_off_c, 1, 69, 65
3, 80928, Note_on_c, 1, 67, 103
3, 81118, Note_off_c, 1, 67, 65
3, 81120, Note_on_c, 1, 79, 103
3, 81214, Note_off_c, 1, 79, 65
3, 81216, Note_on_c, 1, 76, 103
3, 81406, Note_off_c, 1, 76, 65
3, 81408, Note_on_c, 1, 72, 103
3, 81502, Note_off_c, 1, 72, 65
3, 81504, Note_on_c, 1, 71, 103
3, 81694, Note_off_c, 1, 71, 65
3, 81696, Note_on_c, 1, 79, 103
3, 81790, Note_off_c, 1, 79, 65
3, 81792, Note_on_c, 1, 76, 103
3, 81982, Note_off_c, 1, 76, 65
3, 81984, Note_on_c, 1, 71, 103
3, 82078, Note_off_c, 1, 71, 65
3, 82080, Note_on_c, 1, 70, 103
3, 82270, Note_off_c, 1, 70, 65
3, 82272, Note_on_c, 1, 76, 103
3, 82318, Note_off_c, 1, 76, 65
3, 82320, Note_on_c, 1, 78, 103
3, 82366, Note_off_c, 1, 78, 65
3, 82368, Note_on_c, 1, 79, 103
3, 82846, Note_off_c, 1, 79, 65
3, 82848, Note_on_c, 1, 78, 103
3, 82942, Note_off_c, 1, 78, 65
3, 82944, Note_on_c, 1, 76, 103
3, 83134, Note_off_c, 1, 76, 65
3, 83136, Note_on_c, 1, 76, 103
3, 83230, Note_off_c, 1, 76, 65
3, 83232, Note_on_c, 1, 74, 103
3, 83422, Note_off_c, 1, 74, 65
3, 83424, Note_on_c, 1, 73, 103
3, 83470, Note_off_c, 1, 73, 65
3, 83472, Note_on_c, 1, 74, 103
3, 83518, Note_off_c, 1, 74, 65
3, 83520, Note_on_c, 1, 76, 103
3, 83998, Note_off_c, 1, 76, 65
3, 84000, Note_on_c, 1, 74, 103
3, 84094, Note_off_c, 1, 74, 65
3, 84096, Note_on_c, 1, 73, 103
3, 84286, Note_off_c, 1, 73, 65
3, 84288, Note_on_c, 1, 71, 103
3, 84382, Note_off_c, 1, 71, 65
3, 84384, Note_on_c, 1, 70, 103
3, 85246, Note_off_c, 1, 70, 65
3, 86880, Note_on_c, 1, 76, 103
3, 86974, Note_off_c, 1, 76, 65
3, 86976, Note_on_c, 1, 71, 103
3, 87166, Note_off_c, 1, 71, 65
3, 87168, Note_on_c, 1, 69, 103
3, 87262, Note_off_c, 1, 69, 65
3, 87264, Note_on_c, 1, 67, 103
3, 87646, Note_off_c, 1, 67, 65
3, 89184, Note_on_c, 1, 71, 103
3, 89278, Note_off_c, 1, 71, 65
3, 89280, Note_on_c, 1, 66, 103
3, 89470, Note_off_c, 1, 66, 65
3, 89472, Note_on_c, 1, 66, 103
3, 89566, Note_off_c, 1, 66, 65
3, 89568, Note_on_c, 1, 62, 103
3, 89854, Note_off_c, 1, 62, 65
3, 89856, Note_on_c, 1, 66, 103
3, 90046, Note_off_c, 1, 66, 65
3, 90048, Note_on_c, 1, 74, 103
3, 90334, Note_off_c, 1, 74, 65
3, 90336, Note_on_c, 1, 73, 103
3, 90430, Note_off_c, 1, 73, 65
3, 90432, Note_on_c, 1, 71, 103
3, 90622, Note_off_c, 1, 71, 65
3, 90624, Note_on_c, 1, 73, 103
3, 90718, Note_off_c, 1, 73, 65
3, 90720, Note_on_c, 1, 71, 103
3, 90910, Note_off_c, 1, 71, 65
3, 90912, Note_on_c, 1, 70, 103
3, 91006, Note_off_c, 1, 70, 65
3, 91008, Note_on_c, 1, 71, 103
3, 91198, Note_off_c, 1, 71, 65
3, 91200, Note_on_c, 1, 71, 103
3, 92734, Note_off_c, 1, 71, 65
3, 92736, Note_on_c, 1, 76, 103
3, 92926, Note_off_c, 1, 76, 65
3, 92928, Note_on_c, 1, 76, 103
3, 93118, Note_off_c, 1, 76, 65
3, 93120, Note_on_c, 1, 75, 103
3, 93310, Note_off_c, 1, 75, 65
3, 93312, Note_on_c, 1, 81, 103
3, 93694, Note_off_c, 1, 81, 65
3, 93696, Note_on_c, 1, 79, 103
3, 93790, Note_off_c, 1, 79, 65
3, 93792, Note_on_c, 1, 81, 103
3, 93886, Note_off_c, 1, 81, 65
3, 93888, Note_on_c, 1, 78, 103
3, 94270, Note_off_c, 1, 78, 65
3, 94272, Note_on_c, 1, 76, 103
3, 94366, Note_off_c, 1, 76, 65
3, 94368, Note_on_c, 1, 79, 103
3, 94462, Note_off_c, 1, 79, 65
3, 94464, Note_on_c, 1, 74, 103
3, 94654, Note_off_c, 1, 74, 65
3, 94656, Note_on_c, 1, 74, 103
3, 94750, Note_off_c, 1, 74, 65
3, 94752, Note_on_c, 1, 72, 103
3, 94942, Note_off_c, 1, 72, 65
3, 94944, Note_on_c, 1, 79, 103
3, 95038, Note_off_c, 1, 79, 65
3, 95040, Note_on_c, 1, 76, 103
3, 95230, Note_off_c, 1, 76, 65
3, 95232, Note_on_c, 1, 72, 103
3, 95326, Note_off_c, 1, 72, 65
3, 95328, Note_on_c, 1, 71, 103
3, 95518, Note_off_c, 1, 71, 65
3, 95520, Note_on_c, 1, 79, 103
3, 95614, Note_off_c, 1, 79, 65
3, 95616, Note_on_c, 1, 76, 103
3, 95806, Note_off_c, 1, 76, 65
3, 95808, Note_on_c, 1, 71, 103
3, 95902, Note_off_c, 1, 71, 65
3, 95904, Note_on_c, 1, 70, 103
3, 96094, Note_off_c, 1, 70, 65
3, 96096, Note_on_c, 1, 76, 103
3, 96142, Note_off_c, 1, 76, 65
3, 96144, Note_on_c, 1, 78, 103
3, 96190, Note_off_c, 1, 78, 65
3, 96192, Note_on_c, 1, 79, 103
3, 96670, Note_off_c, 1, 79, 65
3, 96672, Note_on_c, 1, 78, 103
3, 96766, Note_off_c, 1, 78, 65
3, 96768, Note_on_c, 1, 76, 103
3, 96958, Note_off_c, 1, 76, 65
3, 96960, Note_on_c, 1, 76, 103
3, 97054, Note_off_c, 1, 76, 65
3, 97056, Note_on_c, 1, 74, 103
3, 97246, Note_off_c, 1, 74, 65
3, 97248, Note_on_c, 1, 73, 103
3, 97294, Note_off_c, 1, 73, 65
3, 97296, Note_on_c, 1, 74, 103
3, 97342, Note_off_c, 1, 74, 65
3, 97344, Note_on_c, 1, 76, 103
3, 97822, Note_off_c, 1, 76, 65
3, 97824, Note_on_c, 1, 74, 103
3, 97918, Note_off_c, 1, 74, 65
3, 97920, Note_on_c, 1, 73, 103
3, 98110, Note_off_c, 1, 73, 65
3, 98112, Note_on_c, 1, 71, 103
3, 98206, Note_off_c, 1, 71, 65
3, 98208, Note_on_c, 1, 70, 103
3, 98782, Note_off_c, 1, 70, 65
3, 98784, Note_on_c, 1, 61, 103
3, 98878, Note_off_c, 1, 61, 65
3, 98880, Note_on_c, 1, 66, 103
3, 98974, Note_off_c, 1, 66, 65
3, 98976, Note_on_c, 1, 70, 103
3, 99070, Note_off_c, 1, 70, 65
3, 99072, Note_on_c, 1, 73, 103
3, 99166, Note_off_c, 1, 73, 65
3, 99168, Note_on_c, 1, 74, 103
3, 99262, Note_off_c, 1, 74, 65
3, 99264, Note_on_c, 1, 76, 103
3, 99310, Note_off_c, 1, 76, 65
3, 99312, Note_on_c, 1, 74, 103
3, 99358, Note_off_c, 1, 74, 65
3, 99360, Note_on_c, 1, 73, 103
3, 99454, Note_off_c, 1, 73, 65
3, 99456, Note_on_c, 1, 71, 103
3, 99646, Note_off_c, 1, 71, 65
3, 99648, Note_on_c, 1, 70, 103
3, 99790, Note_off_c, 1, 70, 65
3, 99792, Note_on_c, 1, 71, 103
3, 99806, Note_off_c, 1, 71, 65
3, 99840, Note_on_c, 1, 73, 103
3, 99886, Note_off_c, 1, 73, 65
3, 99888, Note_on_c, 1, 71, 103
3, 99934, Note_off_c, 1, 71, 65
3, 99936, Note_on_c, 1, 70, 103
3, 100030, Note_off_c, 1, 70, 65
3, 100032, Note_on_c, 1, 67, 103
3, 100222, Note_off_c, 1, 67, 65
3, 100224, Note_on_c, 1, 66, 103
3, 100366, Note_off_c, 1, 66, 65
3, 100368, Note_on_c, 1, 67, 103
3, 100414, Note_off_c, 1, 67, 65
3, 100416, Note_on_c, 1, 71, 103
3, 100510, Note_off_c, 1, 71, 65
3, 100512, Note_on_c, 1, 70, 103
3, 100702, Note_off_c, 1, 70, 65
3, 101568, Note_on_c, 1, 81, 103
3, 101614, Note_off_c, 1, 81, 65
3, 101616, Note_on_c, 1, 79, 103
3, 101662, Note_off_c, 1, 79, 65
3, 101664, Note_on_c, 1, 78, 103
3, 101758, Note_off_c, 1, 78, 65
3, 101760, Note_on_c, 1, 76, 103
3, 101950, Note_off_c, 1, 76, 65
3, 101952, Note_on_c, 1, 75, 103
3, 102094, Note_off_c, 1, 75, 65
3, 102096, Note_on_c, 1, 76, 103
3, 102142, Note_off_c, 1, 76, 65
3, 102144, Note_on_c, 1, 78, 103
3, 102190, Note_off_c, 1, 78, 65
3, 102192, Note_on_c, 1, 76, 103
3, 102238, Note_off_c, 1, 76, 65
3, 102240, Note_on_c, 1, 75, 103
3, 102334, Note_off_c, 1, 75, 65
3, 102336, Note_on_c, 1, 72, 103
3, 102526, Note_off_c, 1, 72, 65
3, 102528, Note_on_c, 1, 71, 103
3, 102670, Note_off_c, 1, 71, 65
3, 102672, Note_on_c, 1, 72, 103
3, 102718, Note_off_c, 1, 72, 65
3, 102720, Note_on_c, 1, 76, 103
3, 102814, Note_off_c, 1, 76, 65
3, 102816, Note_on_c, 1, 75, 103
3, 103822, Note_off_c, 1, 75, 65
3, 103872, Note_on_c, 1, 79, 103
3, 103896, Note_off_c, 1, 79, 65
3, 103920, Note_on_c, 1, 81, 103
3, 103944, Note_off_c, 1, 81, 65
3, 103968, Note_on_c, 1, 83, 103
3, 104136, Note_off_c, 1, 83, 65
3, 104160, Note_on_c, 1, 81, 103
3, 104184, Note_off_c, 1, 81, 65
3, 104208, Note_on_c, 1, 79, 103
3, 104232, Note_off_c, 1, 79, 65
3, 104256, Note_on_c, 1, 81, 103
3, 104280, Note_off_c, 1, 81, 65
3, 104304, Note_on_c, 1, 79, 103
3, 104328, Note_off_c, 1, 79, 65
3, 104352, Note_on_c, 1, 78, 103
3, 104424, Note_off_c, 1, 78, 65
3, 104448, Note_on_c, 1, 76, 103
3, 104472, Note_off_c, 1, 76, 65
3, 104496, Note_on_c, 1, 78, 103
3, 104520, Note_off_c, 1, 78, 65
3, 104544, Note_on_c, 1, 79, 103
3, 104712, Note_off_c, 1, 79, 65
3, 104736, Note_on_c, 1, 78, 103
3, 104760, Note_off_c, 1, 78, 65
3, 104784, Note_on_c, 1, 76, 103
3, 104808, Note_off_c, 1, 76, 65
3, 104832, Note_on_c, 1, 78, 103
3, 104856, Note_off_c, 1, 78, 65
3, 104880, Note_on_c, 1, 76, 103
3, 104904, Note_off_c, 1, 76, 65
3, 104928, Note_on_c, 1, 74, 103
3, 105000, Note_off_c, 1, 74, 65
3, 105024, Note_on_c, 1, 72, 103
3, 105048, Note_off_c, 1, 72, 65
3, 105072, Note_on_c, 1, 74, 103
3, 105096, Note_off_c, 1, 74, 65
3, 105120, Note_on_c, 1, 76, 103
3, 105288, Note_off_c, 1, 76, 65
3, 105312, Note_on_c, 1, 74, 103
3, 105336, Note_off_c, 1, 74, 65
3, 105360, Note_on_c, 1, 72, 103
3, 105384, Note_off_c, 1, 72, 65
3, 105408, Note_on_c, 1, 74, 103
3, 105432, Note_off_c, 1, 74, 65
3, 105456, Note_on_c, 1, 72, 103
3, 105480, Note_off_c, 1, 72, 65
3, 105504, Note_on_c, 1, 71, 103
3, 105576, Note_off_c, 1, 71, 65
3, 105600, Note_on_c, 1, 70, 103
3, 105646, Note_off_c, 1, 70, 65
3, 105648, Note_on_c, 1, 71, 103
3, 105694, Note_off_c, 1, 71, 65
3, 105696, Note_on_c, 1, 73, 103
3, 105886, Note_off_c, 1, 73, 65
3, 105888, Note_on_c, 1, 71, 103
3, 105934, Note_off_c, 1, 71, 65
3, 105936, Note_on_c, 1, 70, 103
3, 105982, Note_off_c, 1, 70, 65
3, 105984, Note_on_c, 1, 71, 103
3, 106030, Note_off_c, 1, 71, 65
3, 106032, Note_on_c, 1, 70, 103
3, 106078, Note_off_c, 1, 70, 65
3, 106080, Note_on_c, 1, 68, 103
3, 106174, Note_off_c, 1, 68, 65
3, 106176, Note_on_c, 1, 66, 103
3, 106366, Note_off_c, 1, 66, 65
3, 108288, Note_on_c, 1, 66, 103
3, 108478, Note_off_c, 1, 66, 65
3, 108480, Note_on_c, 1, 71, 103
3, 108526, Note_off_c, 1, 71, 65
3, 108528, Note_on_c, 1, 73, 103
3, 108574, Note_off_c, 1, 73, 65
3, 108576, Note_on_c, 1, 74, 103
3, 108766, Note_off_c, 1, 74, 65
3, 108768, Note_on_c, 1, 73, 103
3, 108862, Note_off_c, 1, 73, 65
3, 108864, Note_on_c, 1, 71, 103
3, 109054, Note_off_c, 1, 71, 65
3, 109056, Note_on_c, 1, 73, 103
3, 109150, Note_off_c, 1, 73, 65
3, 109152, Note_on_c, 1, 71, 103
3, 109342, Note_off_c, 1, 71, 65
3, 109344, Note_on_c, 1, 70, 103
3, 109438, Note_off_c, 1, 70, 65
3, 109440, Note_on_c, 1, 71, 103
3, 109630, Note_off_c, 1, 71, 65
3, 109632, Note_on_c, 1, 71, 103
3, 110590, Note_off_c, 1, 71, 65
3, 110592, Note_on_c, 1, 71, 103
3, 110782, Note_off_c, 1, 71, 65
3, 110784, Note_on_c, 1, 79, 103
3, 111070, Note_off_c, 1, 79, 65
3, 111072, Note_on_c, 1, 78, 103
3, 111118, Note_off_c, 1, 78, 65
3, 111120, Note_on_c, 1, 79, 103
3, 111166, Note_off_c, 1, 79, 65
3, 111168, Note_on_c, 1, 81, 103
3, 111646, Note_off_c, 1, 81, 65
3, 111648, Note_on_c, 1, 79, 103
3, 111742, Note_off_c, 1, 79, 65
3, 111744, Note_on_c, 1, 78, 103
3, 111934, Note_off_c, 1, 78, 65
3, 111936, Note_on_c, 1, 78, 103
3, 112030, Note_off_c, 1, 78, 65
3, 112032, Note_on_c, 1, 76, 103
3, 112798, Note_off_c, 1, 76, 65
3, 112800, Note_on_c, 1, 79, 103
3, 112894, Note_off_c, 1, 79, 65
3, 112896, Note_on_c, 1, 76, 103
3, 113086, Note_off_c, 1, 76, 65
3, 113088, Note_on_c, 1, 74, 103
3, 113182, Note_off_c, 1, 74, 65
3, 113184, Note_on_c, 1, 72, 103
3, 113374, Note_off_c, 1, 72, 65
3, 113376, Note_on_c, 1, 79, 103
3, 113470, Note_off_c, 1, 79, 65
3, 113472, Note_on_c, 1, 76, 103
3, 113662, Note_off_c, 1, 76, 65
3, 113664, Note_on_c, 1, 72, 103
3, 113758, Note_off_c, 1, 72, 65
3, 113760, Note_on_c, 1, 71, 103
3, 113950, Note_off_c, 1, 71, 65
3, 113952, Note_on_c, 1, 79, 103
3, 114046, Note_off_c, 1, 79, 65
3, 114048, Note_on_c, 1, 76, 103
3, 114238, Note_off_c, 1, 76, 65
3, 114240, Note_on_c, 1, 71, 103
3, 114334, Note_off_c, 1, 71, 65
3, 114336, Note_on_c, 1, 70, 103
3, 114526, Note_off_c, 1, 70, 65
3, 114528, Note_on_c, 1, 76, 103
3, 114574, Note_off_c, 1, 76, 65
3, 114576, Note_on_c, 1, 78, 103
3, 114622, Note_off_c, 1, 78, 65
3, 114624, Note_on_c, 1, 79, 103
3, 115102, Note_off_c, 1, 79, 65
3, 115104, Note_on_c, 1, 78, 103
3, 115198, Note_off_c, 1, 78, 65
3, 115200, Note_on_c, 1, 76, 103
3, 115390, Note_off_c, 1, 76, 65
3, 115392, Note_on_c, 1, 74, 103
3, 115414, Note_off_c, 1, 74, 65
3, 115416, Note_on_c, 1, 76, 103
3, 115438, Note_off_c, 1, 76, 65
3, 115440, Note_on_c, 1, 74, 103
3, 115462, Note_off_c, 1, 74, 65
3, 115464, Note_on_c, 1, 76, 103
3, 115486, Note_off_c, 1, 76, 65
3, 115488, Note_on_c, 1, 74, 103
3, 115510, Note_off_c, 1, 74, 65
3, 115512, Note_on_c, 1, 76, 103
3, 115534, Note_off_c, 1, 76, 65
3, 115536, Note_on_c, 1, 74, 103
3, 115558, Note_off_c, 1, 74, 65
3, 115560, Note_on_c, 1, 76, 103
3, 115582, Note_off_c, 1, 76, 65
3, 115584, Note_on_c, 1, 74, 103
3, 115606, Note_off_c, 1, 74, 65
3, 115608, Note_on_c, 1, 76, 103
3, 115630, Note_off_c, 1, 76, 65
3, 115632, Note_on_c, 1, 74, 103
3, 115654, Note_off_c, 1, 74, 65
3, 115656, Note_on_c, 1, 76, 103
3, 115678, Note_off_c, 1, 76, 65
3, 115680, Note_on_c, 1, 73, 103
3, 115726, Note_off_c, 1, 73, 65
3, 115728, Note_on_c, 1, 74, 103
3, 115774, Note_off_c, 1, 74, 65
3, 115776, Note_on_c, 1, 76, 103
3, 116254, Note_off_c, 1, 76, 65
3, 116256, Note_on_c, 1, 74, 103
3, 116350, Note_off_c, 1, 74, 65
3, 116352, Note_on_c, 1, 73, 103
3, 116542, Note_off_c, 1, 73, 65
3, 116544, Note_on_c, 1, 71, 103
3, 116638, Note_off_c, 1, 71, 65
3, 116640, Note_on_c, 1, 70, 103
3, 117406, Note_off_c, 1, 70, 65
3, 117408, Note_on_c, 1, 66, 103
3, 117502, Note_off_c, 1, 66, 65
3, 117504, Note_on_c, 1, 70, 103
3, 117598, Note_off_c, 1, 70, 65
3, 117600, Note_on_c, 1, 73, 103
3, 117694, Note_off_c, 1, 73, 65
3, 117696, Note_on_c, 1, 76, 103
3, 117742, Note_off_c, 1, 76, 65
3, 117744, Note_on_c, 1, 74, 103
3, 117790, Note_off_c, 1, 74, 65
3, 117792, Note_on_c, 1, 73, 103
3, 117886, Note_off_c, 1, 73, 65
3, 117888, Note_on_c, 1, 71, 103
3, 118078, Note_off_c, 1, 71, 65
3, 118080, Note_on_c, 1, 70, 103
3, 118174, Note_off_c, 1, 70, 65
3, 118176, Note_on_c, 1, 71, 103
3, 118206, Note_off_c, 1, 71, 65
3, 118272, Note_on_c, 1, 73, 103
3, 118318, Note_off_c, 1, 73, 65
3, 118320, Note_on_c, 1, 71, 103
3, 118366, Note_off_c, 1, 71, 65
3, 118368, Note_on_c, 1, 70, 103
3, 118462, Note_off_c, 1, 70, 65
3, 118464, Note_on_c, 1, 67, 103
3, 118654, Note_off_c, 1, 67, 65
3, 118656, Note_on_c, 1, 66, 103
3, 118750, Note_off_c, 1, 66, 65
3, 118752, Note_on_c, 1, 67, 103
3, 118846, Note_off_c, 1, 67, 65
3, 118848, Note_on_c, 1, 67, 103
3, 118894, Note_off_c, 1, 67, 65
3, 118896, Note_on_c, 1, 66, 103
3, 118942, Note_off_c, 1, 66, 65
3, 118944, Note_on_c, 1, 64, 103
3, 119038, Note_off_c, 1, 64, 65
3, 119040, Note_on_c, 1, 70, 103
3, 119326, Note_off_c, 1, 70, 65
3, 119328, Note_on_c, 1, 67, 103
3, 119374, Note_off_c, 1, 67, 65
3, 119376, Note_on_c, 1, 66, 103
3, 119422, Note_off_c, 1, 66, 65
3, 119424, Note_on_c, 1, 67, 103
3, 119470, Note_off_c, 1, 67, 65
3, 119472, Note_on_c, 1, 66, 103
3, 119518, Note_off_c, 1, 66, 65
3, 119520, Note_on_c, 1, 64, 103
3, 119614, Note_off_c, 1, 64, 65
3, 119616, Note_on_c, 1, 73, 103
3, 119902, Note_off_c, 1, 73, 65
3, 119904, Note_on_c, 1, 66, 103
3, 119950, Note_off_c, 1, 66, 65
3, 119952, Note_on_c, 1, 64, 103
3, 119998, Note_off_c, 1, 64, 65
3, 120000, Note_on_c, 1, 66, 103
3, 120046, Note_off_c, 1, 66, 65
3, 120048, Note_on_c, 1, 64, 103
3, 120094, Note_off_c, 1, 64, 65
3, 120096, Note_on_c, 1, 63, 103
3, 120190, Note_off_c, 1, 63, 65
3, 120192, Note_on_c, 1, 60, 103
3, 120382, Note_off_c, 1, 60, 65
3, 120384, Note_on_c, 1, 59, 103
3, 120478, Note_off_c, 1, 59, 65
3, 120480, Note_on_c, 1, 69, 103
3, 120526, Note_off_c, 1, 69, 65
3, 120528, Note_on_c, 1, 67, 103
3, 120574, Note_off_c, 1, 67, 65
3, 120576, Note_on_c, 1, 69, 103
3, 120622, Note_off_c, 1, 69, 65
3, 120624, Note_on_c, 1, 67, 103
3, 120670, Note_off_c, 1, 67, 65
3, 120672, Note_on_c, 1, 66, 103
3, 120766, Note_off_c, 1, 66, 65
3, 120768, Note_on_c, 1, 64, 103
3, 120958, Note_off_c, 1, 64, 65
3, 120960, Note_on_c, 1, 63, 103
3, 121054, Note_off_c, 1, 63, 65
3, 121056, Note_on_c, 1, 72, 103
3, 121102, Note_off_c, 1, 72, 65
3, 121104, Note_on_c, 1, 71, 103
3, 121150, Note_off_c, 1, 71, 65
3, 121152, Note_on_c, 1, 72, 103
3, 121198, Note_off_c, 1, 72, 65
3, 121200, Note_on_c, 1, 71, 103
3, 121246, Note_off_c, 1, 71, 65
3, 121248, Note_on_c, 1, 69, 103
3, 121342, Note_off_c, 1, 69, 65
3, 121344, Note_on_c, 1, 67, 103
3, 121534, Note_off_c, 1, 67, 65
3, 121536, Note_on_c, 1, 66, 103
3, 121630, Note_off_c, 1, 66, 65
3, 121632, Note_on_c, 1, 78, 103
3, 121678, Note_off_c, 1, 78, 65
3, 121680, Note_on_c, 1, 76, 103
3, 121726, Note_off_c, 1, 76, 65
3, 121728, Note_on_c, 1, 78, 103
3, 121774, Note_off_c, 1, 78, 65
3, 121776, Note_on_c, 1, 76, 103
3, 121822, Note_off_c, 1, 76, 65
3, 121824, Note_on_c, 1, 75, 103
3, 121918, Note_off_c, 1, 75, 65
3, 121920, Note_on_c, 1, 72, 103
3, 122110, Note_off_c, 1, 72, 65
3, 122112, Note_on_c, 1, 71, 103
3, 122206, Note_off_c, 1, 71, 65
3, 122208, Note_on_c, 1, 78, 103
3, 122302, Note_off_c, 1, 78, 65
3, 122304, Note_on_c, 1, 79, 103
3, 122350, Note_off_c, 1, 79, 65
3, 122352, Note_on_c, 1, 81, 103
3, 122398, Note_off_c, 1, 81, 65
3, 122400, Note_on_c, 1, 83, 103
3, 122590, Note_off_c, 1, 83, 65
3, 122592, Note_on_c, 1, 81, 103
3, 122638, Note_off_c, 1, 81, 65
3, 122640, Note_on_c, 1, 79, 103
3, 122686, Note_off_c, 1, 79, 65
3, 122688, Note_on_c, 1, 81, 103
3, 122734, Note_off_c, 1, 81, 65
3, 122736, Note_on_c, 1, 79, 103
3, 122782, Note_off_c, 1, 79, 65
3, 122784, Note_on_c, 1, 78, 103
3, 122878, Note_off_c, 1, 78, 65
3, 122880, Note_on_c, 1, 76, 103
3, 122926, Note_off_c, 1, 76, 65
3, 122928, Note_on_c, 1, 78, 103
3, 122974, Note_off_c, 1, 78, 65
3, 122976, Note_on_c, 1, 79, 103
3, 123166, Note_off_c, 1, 79, 65
3, 123168, Note_on_c, 1, 78, 103
3, 123214, Note_off_c, 1, 78, 65
3, 123216, Note_on_c, 1, 76, 103
3, 123262, Note_off_c, 1, 76, 65
3, 123264, Note_on_c, 1, 78, 103
3, 123310, Note_off_c, 1, 78, 65
3, 123312, Note_on_c, 1, 76, 103
3, 123358, Note_off_c, 1, 76, 65
3, 123360, Note_on_c, 1, 74, 103
3, 123454, Note_off_c, 1, 74, 65
3, 123456, Note_on_c, 1, 72, 103
3, 123502, Note_off_c, 1, 72, 65
3, 123504, Note_on_c, 1, 74, 103
3, 123550, Note_off_c, 1, 74, 65
3, 123552, Note_on_c, 1, 76, 103
3, 123742, Note_off_c, 1, 76, 65
3, 123744, Note_on_c, 1, 74, 103
3, 123790, Note_off_c, 1, 74, 65
3, 123792, Note_on_c, 1, 72, 103
3, 123838, Note_off_c, 1, 72, 65
3, 123840, Note_on_c, 1, 74, 103
3, 123886, Note_off_c, 1, 74, 65
3, 123888, Note_on_c, 1, 72, 103
3, 123934, Note_off_c, 1, 72, 65
3, 123936, Note_on_c, 1, 71, 103
3, 124030, Note_off_c, 1, 71, 65
3, 124032, Note_on_c, 1, 70, 103
3, 124078, Note_off_c, 1, 70, 65
3, 124080, Note_on_c, 1, 71, 103
3, 124126, Note_off_c, 1, 71, 65
3, 124128, Note_on_c, 1, 73, 103
3, 124318, Note_off_c, 1, 73, 65
3, 124320, Note_on_c, 1, 71, 103
3, 124366, Note_off_c, 1, 71, 65
3, 124368, Note_on_c, 1, 70, 103
3, 124414, Note_off_c, 1, 70, 65
3, 124416, Note_on_c, 1, 71, 103
3, 124462, Note_off_c, 1, 71, 65
3, 124464, Note_on_c, 1, 70, 103
3, 124510, Note_off_c, 1, 70, 65
3, 124512, Note_on_c, 1, 68, 103
3, 124606, Note_off_c, 1, 68, 65
3, 124608, Note_on_c, 1, 66, 103
3, 124894, Note_off_c, 1, 66, 65
3, 124896, Note_on_c, 1, 68, 103
3, 124942, Note_off_c, 1, 68, 65
3, 124944, Note_on_c, 1, 70, 103
3, 124990, Note_off_c, 1, 70, 65
3, 124992, Note_on_c, 1, 71, 103
3, 125038, Note_off_c, 1, 71, 65
3, 125040, Note_on_c, 1, 73, 103
3, 125086, Note_off_c, 1, 73, 65
3, 125088, Note_on_c, 1, 74, 103
3, 125134, Note_off_c, 1, 74, 65
3, 125136, Note_on_c, 1, 73, 103
3, 125182, Note_off_c, 1, 73, 65
3, 125184, Note_on_c, 1, 76, 103
3, 125312, Note_off_c, 1, 76, 65
3, 125376, Note_on_c, 1, 74, 103
3, 125504, Note_off_c, 1, 74, 65
3, 125568, Note_on_c, 1, 74, 103
3, 125612, Note_off_c, 1, 74, 65
3, 125616, Note_on_c, 1, 73, 103
3, 125636, Note_off_c, 1, 73, 65
3, 125640, Note_on_c, 1, 74, 103
3, 125660, Note_off_c, 1, 74, 65
3, 125664, Note_on_c, 1, 73, 103
3, 125684, Note_off_c, 1, 73, 65
3, 125688, Note_on_c, 1, 74, 103
3, 125708, Note_off_c, 1, 74, 65
3, 125712, Note_on_c, 1, 73, 103
3, 125756, Note_off_c, 1, 73, 65
3, 125760, Note_on_c, 1, 71, 103
3, 128060, Note_off_c, 1, 71, 65
3, 128060, End_track
4, 0, Start_track
4, 0, Title_t, "Violin I"
4, 0, Control_c, 2, 0, 0
4, 0, Program_c, 2, 40
4, 0, Control_c, 2, 10, 24
4, 0, Control_c, 2, 93, 48
4, 0, Key_signature, 2, "minor"
4, 0, Control_c, 2, 7, 127
4, 192, Note_on_c, 2, 71, 96
4, 1918, Note_off_c, 2, 71, 61
4, 1920, Note_on_c, 2, 75, 96
4, 2494, Note_off_c, 2, 75, 61
4, 2496, Note_on_c, 2, 76, 96
4, 3070, Note_off_c, 2, 76, 61
4, 3072, Note_on_c, 2, 75, 96
4, 3646, Note_off_c, 2, 75, 61
4, 3648, Note_on_c, 2, 76, 96
4, 4798, Note_off_c, 2, 76, 61
4, 4800, Note_on_c, 2, 79, 96
4, 6526, Note_off_c, 2, 79, 61
4, 6528, Note_on_c, 2, 73, 96
4, 7102, Note_off_c, 2, 73, 61
4, 7104, Note_on_c, 2, 74, 96
4, 7678, Note_off_c, 2, 74, 61
4, 7680, Note_on_c, 2, 76, 96
4, 8254, Note_off_c, 2, 76, 61
4, 8256, Note_on_c, 2, 78, 96
4, 9214, Note_off_c, 2, 78, 61
4, 9408, Note_on_c, 2, 70, 96
4, 9788, Note_off_c, 2, 70, 61
4, 9792, Note_on_c, 2, 71, 96
4, 10172, Note_off_c, 2, 71, 61
4, 10176, Note_on_c, 2, 73, 96
4, 10556, Note_off_c, 2, 73, 61
4, 10560, Note_on_c, 2, 73, 96
4, 10940, Note_off_c, 2, 73, 61
4, 10944, Note_on_c, 2, 74, 96
4, 11324, Note_off_c, 2, 74, 61
4, 11328, Note_on_c, 2, 76, 96
4, 11708, Note_off_c, 2, 76, 61
4, 11712, Note_on_c, 2, 76, 96
4, 13628, Note_off_c, 2, 76, 61
4, 14016, Note_on_c, 2, 66, 96
4, 14206, Note_off_c, 2, 66, 61
4, 14208, Note_on_c, 2, 67, 96
4, 14398, Note_off_c, 2, 67, 61
4, 14400, Note_on_c, 2, 69, 96
4, 14590, Note_off_c, 2, 69, 61
4, 14592, Note_on_c, 2, 66, 96
4, 14782, Note_off_c, 2, 66, 61
4, 14784, Note_on_c, 2, 67, 96
4, 14974, Note_off_c, 2, 67, 61
4, 14976, Note_on_c, 2, 69, 96
4, 15166, Note_off_c, 2, 69, 61
4, 15168, Note_on_c, 2, 69, 96
4, 16126, Note_off_c, 2, 69, 61
4, 16320, Note_on_c, 2, 67, 96
4, 16894, Note_off_c, 2, 67, 61
4, 16896, Note_on_c, 2, 71, 96
4, 17470, Note_off_c, 2, 71, 61
4, 17472, Note_on_c, 2, 76, 96
4, 18046, Note_off_c, 2, 76, 61
4, 18048, Note_on_c, 2, 79, 96
4, 18238, Note_off_c, 2, 79, 61
4, 18240, Note_on_c, 2, 78, 96
4, 18814, Note_off_c, 2, 78, 61
4, 18816, Note_on_c, 2, 76, 96
4, 19006, Note_off_c, 2, 76, 61
4, 19008, Note_on_c, 2, 74, 96
4, 19198, Note_off_c, 2, 74, 61
4, 19200, Note_on_c, 2, 76, 96
4, 19328, Note_off_c, 2, 76, 61
4, 19392, Note_on_c, 2, 74, 96
4, 19520, Note_off_c, 2, 74, 61
4, 19584, Note_on_c, 2, 73, 96
4, 19712, Note_off_c, 2, 73, 61
4, 19776, Note_on_c, 2, 71, 96
4, 19966, Note_off_c, 2, 71, 61
4, 19968, Note_on_c, 2, 73, 96
4, 20158, Note_off_c, 2, 73, 61
4, 20160, Note_on_c, 2, 74, 96
4, 20350, Note_off_c, 2, 74, 61
4, 20352, Note_on_c, 2, 73, 96
4, 20542, Note_off_c, 2, 73, 61
4, 20544, Note_on_c, 2, 74, 96
4, 20734, Note_off_c, 2, 74, 61
4, 20736, Note_on_c, 2, 76, 96
4, 20926, Note_off_c, 2, 76, 61
4, 20928, Note_on_c, 2, 74, 96
4, 22652, Note_off_c, 2, 74, 61
4, 22656, Note_on_c, 2, 75, 96
4, 23228, Note_off_c, 2, 75, 61
4, 23232, Note_on_c, 2, 76, 96
4, 23804, Note_off_c, 2, 76, 61
4, 23808, Note_on_c, 2, 72, 96
4, 24380, Note_off_c, 2, 72, 61
4, 24384, Note_on_c, 2, 71, 96
4, 24956, Note_off_c, 2, 71, 61
4, 24960, Note_on_c, 2, 76, 96
4, 25532, Note_off_c, 2, 76, 61
4, 25536, Note_on_c, 2, 79, 96
4, 27260, Note_off_c, 2, 79, 61
4, 27264, Note_on_c, 2, 73, 96
4, 27836, Note_off_c, 2, 73, 61
4, 27840, Note_on_c, 2, 74, 96
4, 28412, Note_off_c, 2, 74, 61
4, 28416, Note_on_c, 2, 76, 96
4, 28988, Note_off_c, 2, 76, 61
4, 28992, Note_on_c, 2, 78, 96
4, 29948, Note_off_c, 2, 78, 61
4, 29952, Note_on_c, 2, 70, 96
4, 30140, Note_off_c, 2, 70, 61
4, 30144, Note_on_c, 2, 69, 96
4, 30188, Note_off_c, 2, 69, 61
4, 30192, Note_on_c, 2, 71, 96
4, 30236, Note_off_c, 2, 71, 61
4, 30240, Note_on_c, 2, 72, 96
4, 30432, Note_on_c, 2, 71, 96
4, 30524, Note_off_c, 2, 72, 61
4, 30524, Note_off_c, 2, 71, 61
4, 30528, Note_on_c, 2, 69, 96
4, 30716, Note_off_c, 2, 69, 61
4, 30720, Note_on_c, 2, 75, 96
4, 31004, Note_off_c, 2, 75, 61
4, 31008, Note_on_c, 2, 76, 96
4, 31100, Note_off_c, 2, 76, 61
4, 31104, Note_on_c, 2, 78, 96
4, 31292, Note_off_c, 2, 78, 61
4, 31296, Note_on_c, 2, 78, 96
4, 31484, Note_off_c, 2, 78, 61
4, 31488, Note_on_c, 2, 76, 96
4, 32252, Note_off_c, 2, 76, 61
4, 32256, Note_on_c, 2, 71, 96
4, 32444, Note_off_c, 2, 71, 61
4, 32448, Note_on_c, 2, 71, 96
4, 32492, Note_off_c, 2, 71, 61
4, 32496, Note_on_c, 2, 73, 96
4, 32540, Note_off_c, 2, 73, 61
4, 32544, Note_on_c, 2, 74, 96
4, 32736, Note_on_c, 2, 73, 96
4, 32828, Note_off_c, 2, 74, 61
4, 32828, Note_off_c, 2, 73, 61
4, 32832, Note_on_c, 2, 71, 96
4, 33020, Note_off_c, 2, 71, 61
4, 33024, Note_on_c, 2, 77, 96
4, 33308, Note_off_c, 2, 77, 61
4, 33312, Note_on_c, 2, 78, 96
4, 33404, Note_off_c, 2, 78, 61
4, 33408, Note_on_c, 2, 80, 96
4, 33596, Note_off_c, 2, 80, 61
4, 33600, Note_on_c, 2, 80, 96
4, 33788, Note_off_c, 2, 80, 61
4, 33792, Note_on_c, 2, 78, 96
4, 34556, Note_off_c, 2, 78, 61
4, 34752, Note_on_c, 2, 73, 96
4, 35900, Note_off_c, 2, 73, 61
4, 35904, Note_on_c, 2, 74, 96
4, 36476, Note_off_c, 2, 74, 61
4, 36480, Note_on_c, 2, 76, 96
4, 37052, Note_off_c, 2, 76, 61
4, 37056, Note_on_c, 2, 74, 96
4, 37628, Note_off_c, 2, 74, 61
4, 37632, Note_on_c, 2, 73, 96
4, 38204, Note_off_c, 2, 73, 61
4, 38208, Note_on_c, 2, 71, 96
4, 41660, Note_off_c, 2, 71, 61
4, 41664, Note_on_c, 2, 69, 96
4, 42236, Note_off_c, 2, 69, 61
4, 42240, Note_on_c, 2, 71, 96
4, 42812, Note_off_c, 2, 71, 61
4, 42816, Note_on_c, 2, 73, 96
4, 43820, Note_off_c, 2, 73, 61
4, 43968, Note_on_c, 2, 77, 96
4, 44156, Note_off_c, 2, 77, 61
4, 44160, Note_on_c, 2, 78, 96
4, 44348, Note_off_c, 2, 78, 61
4, 44352, Note_on_c, 2, 80, 96
4, 44540, Note_off_c, 2, 80, 61
4, 44544, Note_on_c, 2, 80, 96
4, 44732, Note_off_c, 2, 80, 61
4, 44736, Note_on_c, 2, 81, 96
4, 44924, Note_off_c, 2, 81, 61
4, 44928, Note_on_c, 2, 83, 96
4, 45116, Note_off_c, 2, 83, 61
4, 45120, Note_on_c, 2, 77, 96
4, 46076, Note_off_c, 2, 77, 61
4, 46272, Note_on_c, 2, 73, 96
4, 46460, Note_off_c, 2, 73, 61
4, 46464, Note_on_c, 2, 74, 96
4, 46652, Note_off_c, 2, 74, 61
4, 46656, Note_on_c, 2, 76, 96
4, 46844, Note_off_c, 2, 76, 61
4, 46848, Note_on_c, 2, 73, 96
4, 47036, Note_off_c, 2, 73, 61
4, 47040, Note_on_c, 2, 74, 96
4, 47228, Note_off_c, 2, 74, 61
4, 47232, Note_on_c, 2, 76, 96
4, 47420, Note_off_c, 2, 76, 61
4, 47424, Note_on_c, 2, 70, 96
4, 48380, Note_off_c, 2, 70, 61
4, 48576, Note_on_c, 2, 62, 96
4, 49148, Note_off_c, 2, 62, 61
4, 49152, Note_on_c, 2, 66, 96
4, 49724, Note_off_c, 2, 66, 61
4, 49728, Note_on_c, 2, 71, 96
4, 50300, Note_off_c, 2, 71, 61
4, 50304, Note_on_c, 2, 74, 96
4, 50492, Note_off_c, 2, 74, 61
4, 50496, Note_on_c, 2, 73, 96
4, 51260, Note_off_c, 2, 73, 61
4, 53184, Note_on_c, 2, 73, 96
4, 54716, Note_off_c, 2, 73, 61
4, 54720, Note_on_c, 2, 71, 96
4, 54908, Note_off_c, 2, 71, 61
4, 54912, Note_on_c, 2, 71, 96
4, 55292, Note_off_c, 2, 71, 61
4, 55296, Note_on_c, 2, 70, 96
4, 55484, Note_off_c, 2, 70, 61
4, 55488, Note_on_c, 2, 71, 96
4, 56060, Note_off_c, 2, 71, 61
4, 56064, Note_on_c, 2, 67, 96
4, 57020, Note_off_c, 2, 67, 61
4, 57024, Note_on_c, 2, 66, 96
4, 57212, Note_off_c, 2, 66, 61
4, 57216, Note_on_c, 2, 71, 96
4, 57596, Note_off_c, 2, 71, 61
4, 57600, Note_on_c, 2, 74, 96
4, 57788, Note_off_c, 2, 74, 61
4, 57792, Note_on_c, 2, 79, 96
4, 58364, Note_off_c, 2, 79, 61
4, 58368, Note_on_c, 2, 78, 96
4, 58940, Note_off_c, 2, 78, 61
4, 58944, Note_on_c, 2, 77, 96
4, 59516, Note_off_c, 2, 77, 61
4, 59520, Note_on_c, 2, 80, 96
4, 60286, Note_off_c, 2, 80, 61
4, 60288, Note_on_c, 2, 77, 96
4, 60478, Note_off_c, 2, 77, 61
4, 60480, Note_on_c, 2, 78, 96
4, 60670, Note_off_c, 2, 78, 61
4, 60672, Note_on_c, 2, 80, 96
4, 60718, Note_off_c, 2, 80, 61
4, 60720, Note_on_c, 2, 81, 96
4, 60766, Note_off_c, 2, 81, 61
4, 60768, Note_on_c, 2, 83, 96
4, 60862, Note_off_c, 2, 83, 61
4, 60864, Note_on_c, 2, 81, 96
4, 60992, Note_off_c, 2, 81, 61
4, 61056, Note_on_c, 2, 80, 96
4, 61184, Note_off_c, 2, 80, 61
4, 61248, Note_on_c, 2, 78, 96
4, 62206, Note_off_c, 2, 78, 61
4, 62400, Note_on_c, 2, 78, 96
4, 63840, Note_on_c, 2, 78, 96
4, 63886, Note_off_c, 2, 78, 61
4, 63888, Note_on_c, 2, 79, 96
4, 63934, Note_off_c, 2, 78, 61
4, 63934, Note_off_c, 2, 79, 61
4, 63936, Note_on_c, 2, 81, 96
4, 64414, Note_off_c, 2, 81, 61
4, 64416, Note_on_c, 2, 79, 96
4, 64510, Note_off_c, 2, 79, 61
4, 64512, Note_on_c, 2, 78, 96
4, 64702, Note_off_c, 2, 78, 61
4, 64704, Note_on_c, 2, 76, 96
4, 66046, Note_off_c, 2, 76, 61
4, 66048, Note_on_c, 2, 70, 96
4, 66238, Note_off_c, 2, 70, 61
4, 66240, Note_on_c, 2, 71, 96
4, 66430, Note_off_c, 2, 71, 61
4, 66432, Note_on_c, 2, 73, 96
4, 66526, Note_off_c, 2, 73, 61
4, 66528, Note_on_c, 2, 74, 96
4, 66622, Note_off_c, 2, 74, 61
4, 66624, Note_on_c, 2, 76, 96
4, 66814, Note_off_c, 2, 76, 61
4, 66816, Note_on_c, 2, 70, 96
4, 67006, Note_off_c, 2, 70, 61
4, 67008, Note_on_c, 2, 71, 96
4, 68446, Note_off_c, 2, 71, 61
4, 68448, Note_on_c, 2, 69, 96
4, 68542, Note_off_c, 2, 69, 61
4, 68544, Note_on_c, 2, 68, 96
4, 68734, Note_off_c, 2, 68, 61
4, 68736, Note_on_c, 2, 68, 96
4, 68782, Note_off_c, 2, 68, 61
4, 68784, Note_on_c, 2, 69, 96
4, 68830, Note_off_c, 2, 69, 61
4, 68832, Note_on_c, 2, 71, 96
4, 69022, Note_off_c, 2, 71, 61
4, 69024, Note_on_c, 2, 69, 96
4, 69118, Note_off_c, 2, 69, 61
4, 69120, Note_on_c, 2, 68, 96
4, 69310, Note_off_c, 2, 68, 61
4, 69312, Note_on_c, 2, 66, 96
4, 69886, Note_off_c, 2, 66, 61
4, 69888, Note_on_c, 2, 69, 96
4, 70462, Note_off_c, 2, 69, 61
4, 70464, Note_on_c, 2, 74, 96
4, 70848, Note_on_c, 2, 73, 96
4, 71038, Note_off_c, 2, 74, 61
4, 71038, Note_off_c, 2, 73, 61
4, 71040, Note_on_c, 2, 80, 96
4, 71230, Note_off_c, 2, 80, 61
4, 72192, Note_on_c, 2, 73, 96
4, 72766, Note_off_c, 2, 73, 61
4, 72768, Note_on_c, 2, 74, 96
4, 73342, Note_off_c, 2, 74, 61
4, 73344, Note_on_c, 2, 73, 96
4, 73918, Note_off_c, 2, 73, 61
4, 73920, Note_on_c, 2, 72, 96
4, 74302, Note_off_c, 2, 72, 61
4, 75072, Note_on_c, 2, 68, 96
4, 75644, Note_off_c, 2, 68, 61
4, 75648, Note_on_c, 2, 73, 96
4, 76796, Note_off_c, 2, 73, 61
4, 76800, Note_on_c, 2, 77, 96
4, 77374, Note_off_c, 2, 77, 61
4, 77376, Note_on_c, 2, 78, 96
4, 77950, Note_off_c, 2, 78, 61
4, 77952, Note_on_c, 2, 76, 96
4, 78526, Note_off_c, 2, 76, 61
4, 78528, Note_on_c, 2, 74, 96
4, 79102, Note_off_c, 2, 74, 61
4, 79104, Note_on_c, 2, 73, 96
4, 79678, Note_off_c, 2, 73, 61
4, 79680, Note_on_c, 2, 71, 96
4, 80254, Note_off_c, 2, 71, 61
4, 80256, Note_on_c, 2, 78, 96
4, 80830, Note_off_c, 2, 78, 61
4, 80832, Note_on_c, 2, 79, 96
4, 82558, Note_off_c, 2, 79, 61
4, 82560, Note_on_c, 2, 73, 96
4, 83134, Note_off_c, 2, 73, 61
4, 83136, Note_on_c, 2, 74, 96
4, 83710, Note_off_c, 2, 74, 61
4, 83712, Note_on_c, 2, 76, 96
4, 84286, Note_off_c, 2, 76, 61
4, 84288, Note_on_c, 2, 78, 96
4, 85246, Note_off_c, 2, 78, 61
4, 85248, Note_on_c, 2, 70, 96
4, 85438, Note_off_c, 2, 70, 61
4, 85440, Note_on_c, 2, 69, 96
4, 85486, Note_off_c, 2, 69, 61
4, 85488, Note_on_c, 2, 71, 96
4, 85534, Note_off_c, 2, 71, 61
4, 85536, Note_on_c, 2, 72, 96
4, 85728, Note_on_c, 2, 71, 96
4, 85822, Note_off_c, 2, 72, 61
4, 85822, Note_off_c, 2, 71, 61
4, 85824, Note_on_c, 2, 69, 96
4, 86014, Note_off_c, 2, 69, 61
4, 86016, Note_on_c, 2, 75, 96
4, 86302, Note_off_c, 2, 75, 61
4, 86304, Note_on_c, 2, 76, 96
4, 86398, Note_off_c, 2, 76, 61
4, 86400, Note_on_c, 2, 78, 96
4, 86590, Note_off_c, 2, 78, 61
4, 86592, Note_on_c, 2, 78, 96
4, 86782, Note_off_c, 2, 78, 61
4, 86784, Note_on_c, 2, 76, 96
4, 87550, Note_off_c, 2, 76, 61
4, 87552, Note_on_c, 2, 67, 96
4, 88030, Note_off_c, 2, 67, 61
4, 88032, Note_on_c, 2, 66, 96
4, 88126, Note_off_c, 2, 66, 61
4, 88128, Note_on_c, 2, 64, 96
4, 88318, Note_off_c, 2, 64, 61
4, 88320, Note_on_c, 2, 70, 96
4, 88606, Note_off_c, 2, 70, 61
4, 88608, Note_on_c, 2, 71, 96
4, 88702, Note_off_c, 2, 71, 61
4, 88704, Note_on_c, 2, 73, 96
4, 88894, Note_off_c, 2, 73, 61
4, 88896, Note_on_c, 2, 71, 96
4, 89854, Note_off_c, 2, 71, 61
4, 89856, Note_on_c, 2, 73, 96
4, 90046, Note_off_c, 2, 73, 61
4, 90048, Note_on_c, 2, 74, 96
4, 91390, Note_off_c, 2, 74, 61
4, 91392, Note_on_c, 2, 73, 96
4, 91582, Note_off_c, 2, 73, 61
4, 91584, Note_on_c, 2, 71, 96
4, 91774, Note_off_c, 2, 71, 61
4, 91776, Note_on_c, 2, 69, 96
4, 91966, Note_off_c, 2, 69, 61
4, 91968, Note_on_c, 2, 67, 96
4, 92158, Note_off_c, 2, 67, 61
4, 92160, Note_on_c, 2, 66, 96
4, 92350, Note_off_c, 2, 66, 61
4, 92352, Note_on_c, 2, 71, 96
4, 94654, Note_off_c, 2, 71, 61
4, 94656, Note_on_c, 2, 79, 96
4, 96382, Note_off_c, 2, 79, 61
4, 96384, Note_on_c, 2, 73, 96
4, 96958, Note_off_c, 2, 73, 61
4, 96960, Note_on_c, 2, 78, 96
4, 97534, Note_off_c, 2, 78, 61
4, 97536, Note_on_c, 2, 74, 96
4, 98110, Note_off_c, 2, 74, 61
4, 98112, Note_on_c, 2, 78, 96
4, 99070, Note_off_c, 2, 78, 61
4, 99264, Note_on_c, 2, 70, 96
4, 99454, Note_off_c, 2, 70, 61
4, 99456, Note_on_c, 2, 71, 96
4, 99646, Note_off_c, 2, 71, 61
4, 99648, Note_on_c, 2, 73, 96
4, 99838, Note_off_c, 2, 73, 61
4, 99840, Note_on_c, 2, 73, 96
4, 100030, Note_off_c, 2, 73, 61
4, 100032, Note_on_c, 2, 74, 96
4, 100222, Note_off_c, 2, 74, 61
4, 100224, Note_on_c, 2, 76, 96
4, 100414, Note_off_c, 2, 76, 61
4, 100416, Note_on_c, 2, 70, 96
4, 101326, Note_off_c, 2, 70, 61
4, 101568, Note_on_c, 2, 66, 96
4, 101758, Note_off_c, 2, 66, 61
4, 101760, Note_on_c, 2, 67, 96
4, 101950, Note_off_c, 2, 67, 61
4, 101952, Note_on_c, 2, 69, 96
4, 102142, Note_off_c, 2, 69, 61
4, 102144, Note_on_c, 2, 66, 96
4, 102334, Note_off_c, 2, 66, 61
4, 102336, Note_on_c, 2, 67, 96
4, 102526, Note_off_c, 2, 67, 61
4, 102528, Note_on_c, 2, 69, 96
4, 102718, Note_off_c, 2, 69, 61
4, 102720, Note_on_c, 2, 69, 96
4, 103678, Note_off_c, 2, 69, 61
4, 103872, Note_on_c, 2, 67, 96
4, 104446, Note_off_c, 2, 67, 61
4, 104448, Note_on_c, 2, 71, 96
4, 105022, Note_off_c, 2, 71, 61
4, 105024, Note_on_c, 2, 76, 96
4, 105598, Note_off_c, 2, 76, 61
4, 105600, Note_on_c, 2, 73, 96
4, 105694, Note_off_c, 2, 73, 61
4, 105696, Note_on_c, 2, 70, 96
4, 105718, Note_off_c, 2, 70, 61
4, 105720, Note_on_c, 2, 71, 96
4, 105742, Note_off_c, 2, 71, 61
4, 105744, Note_on_c, 2, 70, 96
4, 105766, Note_off_c, 2, 70, 61
4, 105768, Note_on_c, 2, 71, 96
4, 105790, Note_off_c, 2, 71, 61
4, 105792, Note_on_c, 2, 70, 96
4, 105814, Note_off_c, 2, 70, 61
4, 105816, Note_on_c, 2, 71, 96
4, 105838, Note_off_c, 2, 71, 61
4, 105840, Note_on_c, 2, 70, 96
4, 105862, Note_off_c, 2, 70, 61
4, 105864, Note_on_c, 2, 71, 96
4, 105886, Note_off_c, 2, 71, 61
4, 105888, Note_on_c, 2, 70, 96
4, 105910, Note_off_c, 2, 70, 61
4, 105912, Note_on_c, 2, 71, 96
4, 105934, Note_off_c, 2, 71, 61
4, 105936, Note_on_c, 2, 70, 96
4, 105958, Note_off_c, 2, 70, 61
4, 105960, Note_on_c, 2, 71, 96
4, 105982, Note_off_c, 2, 71, 61
4, 105984, Note_on_c, 2, 70, 96
4, 106006, Note_off_c, 2, 70, 61
4, 106008, Note_on_c, 2, 71, 96
4, 106030, Note_off_c, 2, 71, 61
4, 106032, Note_on_c, 2, 70, 96
4, 106054, Note_off_c, 2, 70, 61
4, 106056, Note_on_c, 2, 71, 96
4, 106078, Note_off_c, 2, 71, 61
4, 106080, Note_on_c, 2, 70, 96
4, 106102, Note_off_c, 2, 70, 61
4, 106104, Note_on_c, 2, 71, 96
4, 106126, Note_off_c, 2, 71, 61
4, 106128, Note_on_c, 2, 70, 96
4, 106150, Note_off_c, 2, 70, 61
4, 106152, Note_on_c, 2, 71, 96
4, 106174, Note_off_c, 2, 71, 61
4, 106176, Note_on_c, 2, 71, 96
4, 106366, Note_off_c, 2, 71, 61
4, 108480, Note_on_c, 2, 71, 96
4, 110206, Note_off_c, 2, 71, 61
4, 110208, Note_on_c, 2, 75, 96
4, 110782, Note_off_c, 2, 75, 61
4, 110784, Note_on_c, 2, 76, 96
4, 111358, Note_off_c, 2, 76, 61
4, 111360, Note_on_c, 2, 75, 96
4, 111934, Note_off_c, 2, 75, 61
4, 111936, Note_on_c, 2, 76, 96
4, 113086, Note_off_c, 2, 76, 61
4, 113088, Note_on_c, 2, 79, 96
4, 114814, Note_off_c, 2, 79, 61
4, 114816, Note_on_c, 2, 73, 96
4, 115390, Note_off_c, 2, 73, 61
4, 115392, Note_on_c, 2, 74, 96
4, 115966, Note_off_c, 2, 74, 61
4, 115968, Note_on_c, 2, 76, 96
4, 116542, Note_off_c, 2, 76, 61
4, 116544, Note_on_c, 2, 78, 96
4, 117502, Note_off_c, 2, 78, 61
4, 117696, Note_on_c, 2, 70, 96
4, 117886, Note_off_c, 2, 70, 61
4, 117888, Note_on_c, 2, 71, 96
4, 118078, Note_off_c, 2, 71, 61
4, 118080, Note_on_c, 2, 73, 96
4, 118270, Note_off_c, 2, 73, 61
4, 118272, Note_on_c, 2, 73, 96
4, 118462, Note_off_c, 2, 73, 61
4, 118464, Note_on_c, 2, 74, 96
4, 118654, Note_off_c, 2, 74, 61
4, 118656, Note_on_c, 2, 76, 96
4, 118846, Note_off_c, 2, 76, 61
4, 118848, Note_on_c, 2, 76, 96
4, 119806, Note_off_c, 2, 76, 61
4, 120000, Note_on_c, 2, 66, 96
4, 120190, Note_off_c, 2, 66, 61
4, 120192, Note_on_c, 2, 67, 96
4, 120382, Note_off_c, 2, 67, 61
4, 120384, Note_on_c, 2, 69, 96
4, 120574, Note_off_c, 2, 69, 61
4, 120576, Note_on_c, 2, 66, 96
4, 120766, Note_off_c, 2, 66, 61
4, 120768, Note_on_c, 2, 67, 96
4, 120958, Note_off_c, 2, 67, 61
4, 120960, Note_on_c, 2, 69, 96
4, 121150, Note_off_c, 2, 69, 61
4, 121152, Note_on_c, 2, 69, 96
4, 122110, Note_off_c, 2, 69, 61
4, 122304, Note_on_c, 2, 67, 96
4, 122878, Note_off_c, 2, 67, 61
4, 122880, Note_on_c, 2, 71, 96
4, 123454, Note_off_c, 2, 71, 61
4, 123456, Note_on_c, 2, 76, 96
4, 124030, Note_off_c, 2, 76, 61
4, 124032, Note_on_c, 2, 79, 96
4, 124222, Note_off_c, 2, 79, 61
4, 124224, Note_on_c, 2, 78, 96
4, 124798, Note_off_c, 2, 78, 61
4, 124800, Note_on_c, 2, 76, 96
4, 124990, Note_off_c, 2, 76, 61
4, 124992, Note_on_c, 2, 74, 96
4, 125182, Note_off_c, 2, 74, 61
4, 125184, Note_on_c, 2, 76, 96
4, 125312, Note_off_c, 2, 76, 61
4, 125376, Note_on_c, 2, 74, 96
4, 125504, Note_off_c, 2, 74, 61
4, 125568, Note_on_c, 2, 73, 96
4, 125696, Note_off_c, 2, 73, 61
4, 125760, Note_on_c, 2, 71, 96
4, 125950, Note_off_c, 2, 71, 61
4, 125952, Note_on_c, 2, 73, 96
4, 126142, Note_off_c, 2, 73, 61
4, 126144, Note_on_c, 2, 74, 96
4, 126334, Note_off_c, 2, 74, 61
4, 126336, Note_on_c, 2, 73, 96
4, 126526, Note_off_c, 2, 73, 61
4, 126528, Note_on_c, 2, 74, 96
4, 126718, Note_off_c, 2, 74, 61
4, 126720, Note_on_c, 2, 76, 96
4, 126910, Note_off_c, 2, 76, 61
4, 126912, Note_on_c, 2, 66, 96
4, 128060, Note_off_c, 2, 66, 61
4, 128060, End_track
5, 0, Start_track
5, 0, Title_t, "Violin II"
5, 0, Control_c, 3, 0, 0
5, 0, Program_c, 3, 40
5, 0, Control_c, 3, 10, 105
5, 0, Key_signature, 2, "minor"
5, 0, Control_c, 3, 7, 127
5, 192, Note_on_c, 3, 66, 93
5, 1342, Note_off_c, 3, 66, 59
5, 1344, Note_on_c, 3, 67, 93
5, 1918, Note_off_c, 3, 67, 59
5, 1920, Note_on_c, 3, 69, 93
5, 2494, Note_off_c, 3, 69, 59
5, 2496, Note_on_c, 3, 71, 93
5, 4798, Note_off_c, 3, 71, 59
5, 4800, Note_on_c, 3, 76, 93
5, 7102, Note_off_c, 3, 76, 59
5, 7104, Note_on_c, 3, 74, 93
5, 7678, Note_off_c, 3, 74, 59
5, 7680, Note_on_c, 3, 71, 93
5, 8254, Note_off_c, 3, 71, 59
5, 8256, Note_on_c, 3, 70, 93
5, 9214, Note_off_c, 3, 70, 59
5, 9408, Note_on_c, 3, 66, 93
5, 9788, Note_off_c, 3, 66, 59
5, 9792, Note_on_c, 3, 68, 93
5, 10172, Note_off_c, 3, 68, 59
5, 10176, Note_on_c, 3, 70, 93
5, 10556, Note_off_c, 3, 70, 59
5, 10560, Note_on_c, 3, 70, 93
5, 10940, Note_off_c, 3, 70, 59
5, 10944, Note_on_c, 3, 71, 93
5, 11324, Note_off_c, 3, 71, 59
5, 11328, Note_on_c, 3, 73, 93
5, 11708, Note_off_c, 3, 73, 59
5, 11712, Note_on_c, 3, 73, 93
5, 13628, Note_off_c, 3, 73, 59
5, 14016, Note_on_c, 3, 63, 93
5, 14206, Note_off_c, 3, 63, 59
5, 14208, Note_on_c, 3, 64, 93
5, 14398, Note_off_c, 3, 64, 59
5, 14400, Note_on_c, 3, 66, 93
5, 14590, Note_off_c, 3, 66, 59
5, 14592, Note_on_c, 3, 63, 93
5, 14782, Note_off_c, 3, 63, 59
5, 14784, Note_on_c, 3, 64, 93
5, 14974, Note_off_c, 3, 64, 59
5, 14976, Note_on_c, 3, 66, 93
5, 15166, Note_off_c, 3, 66, 59
5, 15168, Note_on_c, 3, 66, 93
5, 16126, Note_off_c, 3, 66, 59
5, 16320, Note_on_c, 3, 64, 93
5, 16894, Note_off_c, 3, 64, 59
5, 16896, Note_on_c, 3, 67, 93
5, 17470, Note_off_c, 3, 67, 59
5, 17472, Note_on_c, 3, 72, 93
5, 18046, Note_off_c, 3, 72, 59
5, 18048, Note_on_c, 3, 76, 93
5, 18238, Note_off_c, 3, 76, 59
5, 18240, Note_on_c, 3, 73, 93
5, 18622, Note_off_c, 3, 73, 59
5, 18624, Note_on_c, 3, 74, 93
5, 18814, Note_off_c, 3, 74, 59
5, 18816, Note_on_c, 3, 69, 93
5, 19006, Note_off_c, 3, 69, 59
5, 19008, Note_on_c, 3, 71, 93
5, 19390, Note_off_c, 3, 71, 59
5, 19392, Note_on_c, 3, 71, 93
5, 19520, Note_off_c, 3, 71, 59
5, 19584, Note_on_c, 3, 69, 93
5, 19712, Note_off_c, 3, 69, 59
5, 19776, Note_on_c, 3, 66, 93
5, 19966, Note_off_c, 3, 66, 59
5, 19968, Note_on_c, 3, 69, 93
5, 20158, Note_off_c, 3, 69, 59
5, 20160, Note_on_c, 3, 71, 93
5, 20350, Note_off_c, 3, 71, 59
5, 20352, Note_on_c, 3, 69, 93
5, 20542, Note_off_c, 3, 69, 59
5, 20544, Note_on_c, 3, 71, 93
5, 20734, Note_off_c, 3, 71, 59
5, 20736, Note_on_c, 3, 73, 93
5, 20926, Note_off_c, 3, 73, 59
5, 20928, Note_on_c, 3, 71, 93
5, 22652, Note_off_c, 3, 71, 59
5, 22656, Note_on_c, 3, 69, 93
5, 23228, Note_off_c, 3, 69, 59
5, 23232, Note_on_c, 3, 71, 93
5, 23804, Note_off_c, 3, 71, 59
5, 23808, Note_on_c, 3, 69, 93
5, 24380, Note_off_c, 3, 69, 59
5, 24384, Note_on_c, 3, 71, 93
5, 25532, Note_off_c, 3, 71, 59
5, 25536, Note_on_c, 3, 76, 93
5, 27836, Note_off_c, 3, 76, 59
5, 27840, Note_on_c, 3, 74, 93
5, 28412, Note_off_c, 3, 74, 59
5, 28416, Note_on_c, 3, 71, 93
5, 28988, Note_off_c, 3, 71, 59
5, 28992, Note_on_c, 3, 70, 93
5, 29180, Note_off_c, 3, 70, 59
5, 29184, Note_on_c, 3, 71, 93
5, 29372, Note_off_c, 3, 71, 59
5, 29376, Note_on_c, 3, 73, 93
5, 29564, Note_off_c, 3, 73, 59
5, 29568, Note_on_c, 3, 61, 93
5, 29756, Note_off_c, 3, 61, 59
5, 29760, Note_on_c, 3, 62, 93
5, 29948, Note_off_c, 3, 62, 59
5, 29952, Note_on_c, 3, 64, 93
5, 30140, Note_off_c, 3, 64, 59
5, 30144, Note_on_c, 3, 66, 93
5, 30332, Note_off_c, 3, 66, 59
5, 30336, Note_on_c, 3, 66, 93
5, 30524, Note_off_c, 3, 66, 59
5, 30528, Note_on_c, 3, 66, 93
5, 30716, Note_off_c, 3, 66, 59
5, 30720, Note_on_c, 3, 66, 93
5, 30908, Note_off_c, 3, 66, 59
5, 30912, Note_on_c, 3, 66, 93
5, 31100, Note_off_c, 3, 66, 59
5, 31104, Note_on_c, 3, 66, 93
5, 31292, Note_off_c, 3, 66, 59
5, 31296, Note_on_c, 3, 67, 93
5, 31424, Note_off_c, 3, 67, 59
5, 31488, Note_on_c, 3, 67, 93
5, 31676, Note_off_c, 3, 67, 59
5, 31680, Note_on_c, 3, 66, 93
5, 31868, Note_off_c, 3, 66, 59
5, 31872, Note_on_c, 3, 67, 93
5, 32060, Note_off_c, 3, 67, 59
5, 32064, Note_on_c, 3, 70, 93
5, 32252, Note_off_c, 3, 70, 59
5, 32256, Note_on_c, 3, 71, 93
5, 32444, Note_off_c, 3, 71, 59
5, 32448, Note_on_c, 3, 68, 93
5, 32636, Note_off_c, 3, 68, 59
5, 32640, Note_on_c, 3, 68, 93
5, 32828, Note_off_c, 3, 68, 59
5, 32832, Note_on_c, 3, 68, 93
5, 33020, Note_off_c, 3, 68, 59
5, 33024, Note_on_c, 3, 68, 93
5, 33212, Note_off_c, 3, 68, 59
5, 33216, Note_on_c, 3, 68, 93
5, 33404, Note_off_c, 3, 68, 59
5, 33408, Note_on_c, 3, 68, 93
5, 33596, Note_off_c, 3, 68, 59
5, 33600, Note_on_c, 3, 69, 93
5, 33788, Note_off_c, 3, 69, 59
5, 33792, Note_on_c, 3, 66, 93
5, 33980, Note_off_c, 3, 66, 59
5, 33984, Note_on_c, 3, 65, 93
5, 34112, Note_off_c, 3, 65, 59
5, 34176, Note_on_c, 3, 66, 93
5, 34364, Note_off_c, 3, 66, 59
5, 34368, Note_on_c, 3, 78, 93
5, 34556, Note_off_c, 3, 78, 59
5, 34560, Note_on_c, 3, 77, 93
5, 34688, Note_off_c, 3, 77, 59
5, 34752, Note_on_c, 3, 78, 93
5, 36476, Note_off_c, 3, 78, 59
5, 36480, Note_on_c, 3, 70, 93
5, 37052, Note_off_c, 3, 70, 59
5, 37056, Note_on_c, 3, 71, 93
5, 37628, Note_off_c, 3, 71, 59
5, 37632, Note_on_c, 3, 76, 93
5, 38012, Note_off_c, 3, 76, 59
5, 38016, Note_on_c, 3, 70, 93
5, 38204, Note_off_c, 3, 70, 59
5, 38208, Note_on_c, 3, 71, 93
5, 38780, Note_off_c, 3, 71, 59
5, 38784, Note_on_c, 3, 66, 93
5, 39356, Note_off_c, 3, 66, 59
5, 39360, Note_on_c, 3, 74, 93
5, 41084, Note_off_c, 3, 74, 59
5, 41088, Note_on_c, 3, 68, 93
5, 41660, Note_off_c, 3, 68, 59
5, 41664, Note_on_c, 3, 69, 93
5, 42236, Note_off_c, 3, 69, 59
5, 42240, Note_on_c, 3, 66, 93
5, 42812, Note_off_c, 3, 66, 59
5, 42816, Note_on_c, 3, 68, 93
5, 43820, Note_off_c, 3, 68, 59
5, 43968, Note_on_c, 3, 73, 93
5, 44156, Note_off_c, 3, 73, 59
5, 44160, Note_on_c, 3, 75, 93
5, 44348, Note_off_c, 3, 75, 59
5, 44352, Note_on_c, 3, 77, 93
5, 44540, Note_off_c, 3, 77, 59
5, 44544, Note_on_c, 3, 77, 93
5, 44732, Note_off_c, 3, 77, 59
5, 44736, Note_on_c, 3, 78, 93
5, 44924, Note_off_c, 3, 78, 59
5, 44928, Note_on_c, 3, 80, 93
5, 45116, Note_off_c, 3, 80, 59
5, 45120, Note_on_c, 3, 68, 93
5, 46076, Note_off_c, 3, 68, 59
5, 46272, Note_on_c, 3, 70, 93
5, 46460, Note_off_c, 3, 70, 59
5, 46464, Note_on_c, 3, 71, 93
5, 46652, Note_off_c, 3, 71, 59
5, 46656, Note_on_c, 3, 73, 93
5, 46844, Note_off_c, 3, 73, 59
5, 46848, Note_on_c, 3, 70, 93
5, 47036, Note_off_c, 3, 70, 59
5, 47040, Note_on_c, 3, 71, 93
5, 47228, Note_off_c, 3, 71, 59
5, 47232, Note_on_c, 3, 73, 93
5, 47420, Note_off_c, 3, 73, 59
5, 47424, Note_on_c, 3, 61, 93
5, 48332, Note_off_c, 3, 61, 59
5, 48576, Note_on_c, 3, 59, 93
5, 49148, Note_off_c, 3, 59, 59
5, 49152, Note_on_c, 3, 62, 93
5, 49724, Note_off_c, 3, 62, 59
5, 49728, Note_on_c, 3, 67, 93
5, 50300, Note_off_c, 3, 67, 59
5, 50304, Note_on_c, 3, 71, 93
5, 50492, Note_off_c, 3, 71, 59
5, 50496, Note_on_c, 3, 68, 93
5, 50876, Note_off_c, 3, 68, 59
5, 50880, Note_on_c, 3, 69, 93
5, 51260, Note_off_c, 3, 69, 59
5, 53184, Note_on_c, 3, 69, 93
5, 54716, Note_off_c, 3, 69, 59
5, 54720, Note_on_c, 3, 71, 93
5, 54908, Note_off_c, 3, 71, 59
5, 54912, Note_on_c, 3, 76, 93
5, 55100, Note_off_c, 3, 76, 59
5, 55104, Note_on_c, 3, 74, 93
5, 55292, Note_off_c, 3, 74, 59
5, 55296, Note_on_c, 3, 73, 93
5, 55484, Note_off_c, 3, 73, 59
5, 55488, Note_on_c, 3, 74, 93
5, 56060, Note_off_c, 3, 74, 59
5, 56064, Note_on_c, 3, 70, 93
5, 56636, Note_off_c, 3, 70, 59
5, 56640, Note_on_c, 3, 71, 93
5, 60092, Note_off_c, 3, 71, 59
5, 60096, Note_on_c, 3, 69, 93
5, 60286, Note_off_c, 3, 69, 59
5, 60288, Note_on_c, 3, 71, 93
5, 60478, Note_off_c, 3, 71, 59
5, 60480, Note_on_c, 3, 73, 93
5, 60862, Note_off_c, 3, 73, 59
5, 60864, Note_on_c, 3, 78, 93
5, 60992, Note_off_c, 3, 78, 59
5, 61056, Note_on_c, 3, 77, 93
5, 61184, Note_off_c, 3, 77, 59
5, 61248, Note_on_c, 3, 73, 93
5, 62206, Note_off_c, 3, 73, 59
5, 62400, Note_on_c, 3, 69, 93
5, 62590, Note_off_c, 3, 69, 59
5, 62592, Note_on_c, 3, 71, 93
5, 62782, Note_off_c, 3, 71, 59
5, 62784, Note_on_c, 3, 72, 93
5, 62974, Note_off_c, 3, 72, 59
5, 62976, Note_on_c, 3, 72, 93
5, 63166, Note_off_c, 3, 72, 59
5, 63168, Note_on_c, 3, 71, 93
5, 63358, Note_off_c, 3, 71, 59
5, 63360, Note_on_c, 3, 72, 93
5, 63550, Note_off_c, 3, 72, 59
5, 63552, Note_on_c, 3, 71, 93
5, 63742, Note_off_c, 3, 71, 59
5, 63744, Note_on_c, 3, 73, 93
5, 63934, Note_off_c, 3, 73, 59
5, 63936, Note_on_c, 3, 75, 93
5, 64126, Note_off_c, 3, 75, 59
5, 64128, Note_on_c, 3, 75, 93
5, 64510, Note_off_c, 3, 75, 59
5, 64704, Note_on_c, 3, 64, 93
5, 64894, Note_off_c, 3, 64, 59
5, 64896, Note_on_c, 3, 66, 93
5, 65086, Note_off_c, 3, 66, 59
5, 65088, Note_on_c, 3, 67, 93
5, 65278, Note_off_c, 3, 67, 59
5, 65280, Note_on_c, 3, 67, 93
5, 65470, Note_off_c, 3, 67, 59
5, 65472, Note_on_c, 3, 66, 93
5, 65662, Note_off_c, 3, 66, 59
5, 65664, Note_on_c, 3, 67, 93
5, 65854, Note_off_c, 3, 67, 59
5, 65856, Note_on_c, 3, 61, 93
5, 66238, Note_off_c, 3, 61, 59
5, 66240, Note_on_c, 3, 62, 93
5, 66430, Note_off_c, 3, 62, 59
5, 66432, Note_on_c, 3, 64, 93
5, 66814, Note_off_c, 3, 64, 59
5, 67008, Note_on_c, 3, 66, 93
5, 67198, Note_off_c, 3, 66, 59
5, 67200, Note_on_c, 3, 70, 93
5, 67390, Note_off_c, 3, 70, 59
5, 67392, Note_on_c, 3, 71, 93
5, 67582, Note_off_c, 3, 71, 59
5, 67584, Note_on_c, 3, 71, 93
5, 67774, Note_off_c, 3, 71, 59
5, 67776, Note_on_c, 3, 70, 93
5, 67966, Note_off_c, 3, 70, 59
5, 67968, Note_on_c, 3, 71, 93
5, 68158, Note_off_c, 3, 71, 59
5, 68160, Note_on_c, 3, 61, 93
5, 68350, Note_off_c, 3, 61, 59
5, 68352, Note_on_c, 3, 63, 93
5, 68542, Note_off_c, 3, 63, 59
5, 68544, Note_on_c, 3, 65, 93
5, 68734, Note_off_c, 3, 65, 59
5, 68736, Note_on_c, 3, 65, 93
5, 69118, Note_off_c, 3, 65, 59
5, 69312, Note_on_c, 3, 61, 93
5, 69886, Note_off_c, 3, 61, 59
5, 69888, Note_on_c, 3, 66, 93
5, 70462, Note_off_c, 3, 66, 59
5, 70464, Note_on_c, 3, 69, 93
5, 71038, Note_off_c, 3, 69, 59
5, 71040, Note_on_c, 3, 68, 93
5, 71230, Note_off_c, 3, 68, 59
5, 72192, Note_on_c, 3, 69, 93
5, 74302, Note_off_c, 3, 69, 59
5, 75072, Note_on_c, 3, 68, 93
5, 76220, Note_off_c, 3, 68, 59
5, 76224, Note_on_c, 3, 66, 93
5, 76798, Note_off_c, 3, 66, 59
5, 76800, Note_on_c, 3, 68, 93
5, 76990, Note_off_c, 3, 68, 59
5, 76992, Note_on_c, 3, 69, 93
5, 77182, Note_off_c, 3, 69, 59
5, 77184, Note_on_c, 3, 71, 93
5, 77374, Note_off_c, 3, 71, 59
5, 77376, Note_on_c, 3, 69, 93
5, 77758, Note_off_c, 3, 69, 59
5, 77760, Note_on_c, 3, 71, 93
5, 77950, Note_off_c, 3, 71, 59
5, 77952, Note_on_c, 3, 73, 93
5, 78526, Note_off_c, 3, 73, 59
5, 78528, Note_on_c, 3, 71, 93
5, 79102, Note_off_c, 3, 71, 59
5, 79104, Note_on_c, 3, 70, 93
5, 79678, Note_off_c, 3, 70, 59
5, 79680, Note_on_c, 3, 71, 93
5, 80638, Note_off_c, 3, 71, 59
5, 80640, Note_on_c, 3, 75, 93
5, 80830, Note_off_c, 3, 75, 59
5, 80832, Note_on_c, 3, 76, 93
5, 83134, Note_off_c, 3, 76, 59
5, 83136, Note_on_c, 3, 74, 93
5, 83710, Note_off_c, 3, 74, 59
5, 83712, Note_on_c, 3, 71, 93
5, 84286, Note_off_c, 3, 71, 59
5, 84288, Note_on_c, 3, 70, 93
5, 84478, Note_off_c, 3, 70, 59
5, 84480, Note_on_c, 3, 71, 93
5, 84670, Note_off_c, 3, 71, 59
5, 84672, Note_on_c, 3, 73, 93
5, 84862, Note_off_c, 3, 73, 59
5, 84864, Note_on_c, 3, 61, 93
5, 85054, Note_off_c, 3, 61, 59
5, 85056, Note_on_c, 3, 62, 93
5, 85246, Note_off_c, 3, 62, 59
5, 85248, Note_on_c, 3, 64, 93
5, 85438, Note_off_c, 3, 64, 59
5, 85440, Note_on_c, 3, 66, 93
5, 85630, Note_off_c, 3, 66, 59
5, 85632, Note_on_c, 3, 66, 93
5, 85822, Note_off_c, 3, 66, 59
5, 85824, Note_on_c, 3, 66, 93
5, 86014, Note_off_c, 3, 66, 59
5, 86016, Note_on_c, 3, 66, 93
5, 86206, Note_off_c, 3, 66, 59
5, 86208, Note_on_c, 3, 66, 93
5, 86398, Note_off_c, 3, 66, 59
5, 86400, Note_on_c, 3, 66, 93
5, 86590, Note_off_c, 3, 66, 59
5, 86592, Note_on_c, 3, 67, 93
5, 86782, Note_off_c, 3, 67, 59
5, 86784, Note_on_c, 3, 64, 93
5, 86974, Note_off_c, 3, 64, 59
5, 86976, Note_on_c, 3, 66, 93
5, 87166, Note_off_c, 3, 66, 59
5, 87168, Note_on_c, 3, 67, 93
5, 87358, Note_off_c, 3, 67, 59
5, 87360, Note_on_c, 3, 64, 93
5, 87550, Note_off_c, 3, 64, 59
5, 87552, Note_on_c, 3, 62, 93
5, 87742, Note_off_c, 3, 62, 59
5, 87744, Note_on_c, 3, 61, 93
5, 87934, Note_off_c, 3, 61, 59
5, 87936, Note_on_c, 3, 62, 93
5, 88126, Note_off_c, 3, 62, 59
5, 88128, Note_on_c, 3, 64, 93
5, 88510, Note_off_c, 3, 64, 59
5, 88512, Note_on_c, 3, 62, 93
5, 88702, Note_off_c, 3, 62, 59
5, 88704, Note_on_c, 3, 61, 93
5, 88894, Note_off_c, 3, 61, 59
5, 88896, Note_on_c, 3, 62, 93
5, 89086, Note_off_c, 3, 62, 59
5, 89088, Note_on_c, 3, 59, 93
5, 89278, Note_off_c, 3, 59, 59
5, 89280, Note_on_c, 3, 58, 93
5, 89408, Note_off_c, 3, 58, 59
5, 89472, Note_on_c, 3, 59, 93
5, 89662, Note_off_c, 3, 59, 59
5, 89664, Note_on_c, 3, 71, 93
5, 89854, Note_off_c, 3, 71, 59
5, 89856, Note_on_c, 3, 70, 93
5, 89984, Note_off_c, 3, 70, 59
5, 90048, Note_on_c, 3, 71, 93
5, 91774, Note_off_c, 3, 71, 59
5, 91776, Note_on_c, 3, 75, 93
5, 92350, Note_off_c, 3, 75, 59
5, 92352, Note_on_c, 3, 76, 93
5, 92926, Note_off_c, 3, 76, 59
5, 92928, Note_on_c, 3, 81, 93
5, 93310, Note_off_c, 3, 81, 59
5, 93312, Note_on_c, 3, 75, 93
5, 93502, Note_off_c, 3, 75, 59
5, 93504, Note_on_c, 3, 76, 93
5, 94078, Note_off_c, 3, 76, 59
5, 94080, Note_on_c, 3, 71, 93
5, 94654, Note_off_c, 3, 71, 59
5, 94656, Note_on_c, 3, 72, 93
5, 95230, Note_off_c, 3, 72, 59
5, 95232, Note_on_c, 3, 76, 93
5, 96574, Note_off_c, 3, 76, 59
5, 96576, Note_on_c, 3, 74, 93
5, 96766, Note_off_c, 3, 74, 59
5, 96768, Note_on_c, 3, 73, 93
5, 96958, Note_off_c, 3, 73, 59
5, 96960, Note_on_c, 3, 71, 93
5, 98110, Note_off_c, 3, 71, 59
5, 98112, Note_on_c, 3, 76, 93
5, 99070, Note_off_c, 3, 76, 59
5, 99264, Note_on_c, 3, 66, 93
5, 99454, Note_off_c, 3, 66, 59
5, 99456, Note_on_c, 3, 68, 93
5, 99646, Note_off_c, 3, 68, 59
5, 99648, Note_on_c, 3, 70, 93
5, 99838, Note_off_c, 3, 70, 59
5, 99840, Note_on_c, 3, 70, 93
5, 100030, Note_off_c, 3, 70, 59
5, 100032, Note_on_c, 3, 71, 93
5, 100222, Note_off_c, 3, 71, 59
5, 100224, Note_on_c, 3, 73, 93
5, 100414, Note_off_c, 3, 73, 59
5, 100416, Note_on_c, 3, 61, 93
5, 101326, Note_off_c, 3, 61, 59
5, 101568, Note_on_c, 3, 63, 93
5, 101758, Note_off_c, 3, 63, 59
5, 101760, Note_on_c, 3, 64, 93
5, 101950, Note_off_c, 3, 64, 59
5, 101952, Note_on_c, 3, 66, 93
5, 102142, Note_off_c, 3, 66, 59
5, 102144, Note_on_c, 3, 63, 93
5, 102334, Note_off_c, 3, 63, 59
5, 102336, Note_on_c, 3, 64, 93
5, 102526, Note_off_c, 3, 64, 59
5, 102528, Note_on_c, 3, 66, 93
5, 102718, Note_off_c, 3, 66, 59
5, 102720, Note_on_c, 3, 66, 93
5, 103630, Note_off_c, 3, 66, 59
5, 103872, Note_on_c, 3, 64, 93
5, 104446, Note_off_c, 3, 64, 59
5, 104448, Note_on_c, 3, 67, 93
5, 105022, Note_off_c, 3, 67, 59
5, 105024, Note_on_c, 3, 72, 93
5, 105598, Note_off_c, 3, 72, 59
5, 105600, Note_on_c, 3, 76, 93
5, 105694, Note_off_c, 3, 76, 59
5, 105696, Note_on_c, 3, 73, 93
5, 106174, Note_off_c, 3, 73, 59
5, 106176, Note_on_c, 3, 71, 93
5, 106366, Note_off_c, 3, 71, 59
5, 108480, Note_on_c, 3, 66, 93
5, 109630, Note_off_c, 3, 66, 59
5, 109632, Note_on_c, 3, 67, 93
5, 110206, Note_off_c, 3, 67, 59
5, 110208, Note_on_c, 3, 69, 93
5, 110782, Note_off_c, 3, 69, 59
5, 110784, Note_on_c, 3, 71, 93
5, 113086, Note_off_c, 3, 71, 59
5, 113088, Note_on_c, 3, 76, 93
5, 115390, Note_off_c, 3, 76, 59
5, 115392, Note_on_c, 3, 74, 93
5, 115966, Note_off_c, 3, 74, 59
5, 115968, Note_on_c, 3, 71, 93
5, 116542, Note_off_c, 3, 71, 59
5, 116544, Note_on_c, 3, 70, 93
5, 117502, Note_off_c, 3, 70, 59
5, 117696, Note_on_c, 3, 66, 93
5, 117886, Note_off_c, 3, 66, 59
5, 117888, Note_on_c, 3, 68, 93
5, 118078, Note_off_c, 3, 68, 59
5, 118080, Note_on_c, 3, 70, 93
5, 118270, Note_off_c, 3, 70, 59
5, 118272, Note_on_c, 3, 70, 93
5, 118462, Note_off_c, 3, 70, 59
5, 118464, Note_on_c, 3, 71, 93
5, 118654, Note_off_c, 3, 71, 59
5, 118656, Note_on_c, 3, 73, 93
5, 118846, Note_off_c, 3, 73, 59
5, 118848, Note_on_c, 3, 73, 93
5, 119806, Note_off_c, 3, 73, 59
5, 120000, Note_on_c, 3, 63, 93
5, 120190, Note_off_c, 3, 63, 59
5, 120192, Note_on_c, 3, 64, 93
5, 120382, Note_off_c, 3, 64, 59
5, 120384, Note_on_c, 3, 66, 93
5, 120574, Note_off_c, 3, 66, 59
5, 120576, Note_on_c, 3, 63, 93
5, 120766, Note_off_c, 3, 63, 59
5, 120768, Note_on_c, 3, 64, 93
5, 120958, Note_off_c, 3, 64, 59
5, 120960, Note_on_c, 3, 66, 93
5, 121150, Note_off_c, 3, 66, 59
5, 121152, Note_on_c, 3, 66, 93
5, 122110, Note_off_c, 3, 66, 59
5, 122304, Note_on_c, 3, 64, 93
5, 122878, Note_off_c, 3, 64, 59
5, 122880, Note_on_c, 3, 67, 93
5, 123454, Note_off_c, 3, 67, 59
5, 123456, Note_on_c, 3, 72, 93
5, 124030, Note_off_c, 3, 72, 59
5, 124032, Note_on_c, 3, 76, 93
5, 124222, Note_off_c, 3, 76, 59
5, 124224, Note_on_c, 3, 73, 93
5, 124606, Note_off_c, 3, 73, 59
5, 124608, Note_on_c, 3, 74, 93
5, 124798, Note_off_c, 3, 74, 59
5, 124800, Note_on_c, 3, 69, 93
5, 124990, Note_off_c, 3, 69, 59
5, 124992, Note_on_c, 3, 71, 93
5, 125374, Note_off_c, 3, 71, 59
5, 125376, Note_on_c, 3, 71, 93
5, 125504, Note_off_c, 3, 71, 59
5, 125568, Note_on_c, 3, 69, 93
5, 125696, Note_off_c, 3, 69, 59
5, 125760, Note_on_c, 3, 66, 93
5, 125950, Note_off_c, 3, 66, 59
5, 125952, Note_on_c, 3, 69, 93
5, 126142, Note_off_c, 3, 69, 59
5, 126144, Note_on_c, 3, 71, 93
5, 126334, Note_off_c, 3, 71, 59
5, 126336, Note_on_c, 3, 69, 93
5, 126526, Note_off_c, 3, 69, 59
5, 126528, Note_on_c, 3, 71, 93
5, 126718, Note_off_c, 3, 71, 59
5, 126720, Note_on_c, 3, 73, 93
5, 126910, Note_off_c, 3, 73, 59
5, 126912, Note_on_c, 3, 71, 93
5, 128060, Note_off_c, 3, 71, 59
5, 128060, End_track
6, 0, Start_track
6, 0, Title_t, "Viola"
6, 0, Control_c, 4, 0, 0
6, 0, Program_c, 4, 41
6, 0, Control_c, 4, 10, 109
6, 0, Key_signature, 2, "minor"
6, 0, Control_c, 4, 7, 127
6, 192, Note_on_c, 4, 62, 96
6, 1916, Note_off_c, 4, 62, 61
6, 1920, Note_on_c, 4, 66, 96
6, 2492, Note_off_c, 4, 66, 61
6, 2496, Note_on_c, 4, 59, 96
6, 3068, Note_off_c, 4, 59, 61
6, 3072, Note_on_c, 4, 57, 96
6, 3644, Note_off_c, 4, 57, 61
6, 3648, Note_on_c, 4, 55, 96
6, 4220, Note_off_c, 4, 55, 61
6, 4224, Note_on_c, 4, 67, 96
6, 4796, Note_off_c, 4, 67, 61
6, 4800, Note_on_c, 4, 72, 96
6, 5372, Note_off_c, 4, 72, 61
6, 5376, Note_on_c, 4, 71, 96
6, 5948, Note_off_c, 4, 71, 61
6, 5952, Note_on_c, 4, 70, 96
6, 6524, Note_off_c, 4, 70, 61
6, 6528, Note_on_c, 4, 73, 96
6, 7100, Note_off_c, 4, 73, 61
6, 7104, Note_on_c, 4, 66, 96
6, 7676, Note_off_c, 4, 66, 61
6, 7680, Note_on_c, 4, 67, 96
6, 8252, Note_off_c, 4, 67, 61
6, 8256, Note_on_c, 4, 61, 96
6, 9212, Note_off_c, 4, 61, 61
6, 9408, Note_on_c, 4, 61, 96
6, 9788, Note_off_c, 4, 61, 61
6, 9792, Note_on_c, 4, 62, 96
6, 10172, Note_off_c, 4, 62, 61
6, 10176, Note_on_c, 4, 64, 96
6, 10536, Note_on_c, 4, 54, 96
6, 10556, Note_off_c, 4, 64, 61
6, 10916, Note_off_c, 4, 54, 61
6, 10920, Note_on_c, 4, 54, 96
6, 11300, Note_off_c, 4, 54, 61
6, 11304, Note_on_c, 4, 54, 96
6, 11684, Note_off_c, 4, 54, 61
6, 11712, Note_on_c, 4, 70, 96
6, 13628, Note_off_c, 4, 70, 61
6, 14016, Note_on_c, 4, 57, 96
6, 14204, Note_off_c, 4, 57, 61
6, 14208, Note_on_c, 4, 55, 96
6, 14396, Note_off_c, 4, 55, 61
6, 14400, Note_on_c, 4, 54, 96
6, 14588, Note_off_c, 4, 54, 61
6, 14592, Note_on_c, 4, 59, 96
6, 14780, Note_off_c, 4, 59, 61
6, 14784, Note_on_c, 4, 59, 96
6, 14972, Note_off_c, 4, 59, 61
6, 14976, Note_on_c, 4, 59, 96
6, 15164, Note_off_c, 4, 59, 61
6, 15168, Note_on_c, 4, 63, 96
6, 16124, Note_off_c, 4, 63, 61
6, 16320, Note_on_c, 4, 59, 96
6, 16892, Note_off_c, 4, 59, 61
6, 16896, Note_on_c, 4, 64, 96
6, 17468, Note_off_c, 4, 64, 61
6, 17472, Note_on_c, 4, 67, 96
6, 18044, Note_off_c, 4, 67, 61
6, 18048, Note_on_c, 4, 61, 96
6, 18236, Note_off_c, 4, 61, 61
6, 18240, Note_on_c, 4, 70, 96
6, 18620, Note_off_c, 4, 70, 61
6, 18624, Note_on_c, 4, 71, 96
6, 18812, Note_off_c, 4, 71, 61
6, 18816, Note_on_c, 4, 64, 96
6, 19004, Note_off_c, 4, 64, 61
6, 19008, Note_on_c, 4, 66, 96
6, 19196, Note_off_c, 4, 66, 61
6, 19200, Note_on_c, 4, 61, 96
6, 19328, Note_off_c, 4, 61, 61
6, 19392, Note_on_c, 4, 62, 96
6, 19520, Note_off_c, 4, 62, 61
6, 19584, Note_on_c, 4, 64, 96
6, 19712, Note_off_c, 4, 64, 61
6, 19776, Note_on_c, 4, 62, 96
6, 19964, Note_off_c, 4, 62, 61
6, 19968, Note_on_c, 4, 64, 96
6, 20156, Note_off_c, 4, 64, 61
6, 20160, Note_on_c, 4, 66, 96
6, 20348, Note_off_c, 4, 66, 61
6, 20352, Note_on_c, 4, 64, 96
6, 20540, Note_off_c, 4, 64, 61
6, 20544, Note_on_c, 4, 66, 96
6, 20732, Note_off_c, 4, 66, 61
6, 20736, Note_on_c, 4, 58, 96
6, 20924, Note_off_c, 4, 58, 61
6, 20928, Note_on_c, 4, 66, 96
6, 22076, Note_off_c, 4, 66, 61
6, 22080, Note_on_c, 4, 67, 96
6, 22652, Note_off_c, 4, 67, 61
6, 22656, Note_on_c, 4, 69, 96
6, 23228, Note_off_c, 4, 69, 61
6, 23232, Note_on_c, 4, 67, 96
6, 23804, Note_off_c, 4, 67, 61
6, 23808, Note_on_c, 4, 66, 96
6, 24380, Note_off_c, 4, 66, 61
6, 24384, Note_on_c, 4, 67, 96
6, 25532, Note_off_c, 4, 67, 61
6, 25536, Note_on_c, 4, 64, 96
6, 27260, Note_off_c, 4, 64, 61
6, 27264, Note_on_c, 4, 58, 96
6, 27836, Note_off_c, 4, 58, 61
6, 27840, Note_on_c, 4, 66, 96
6, 28412, Note_off_c, 4, 66, 61
6, 28416, Note_on_c, 4, 67, 96
6, 28988, Note_off_c, 4, 67, 61
6, 28992, Note_on_c, 4, 61, 96
6, 29180, Note_off_c, 4, 61, 61
6, 29184, Note_on_c, 4, 62, 96
6, 29372, Note_off_c, 4, 62, 61
6, 29376, Note_on_c, 4, 64, 96
6, 29564, Note_off_c, 4, 64, 61
6, 29568, Note_on_c, 4, 58, 96
6, 29756, Note_off_c, 4, 58, 61
6, 29760, Note_on_c, 4, 59, 96
6, 29948, Note_off_c, 4, 59, 61
6, 29952, Note_on_c, 4, 61, 96
6, 30140, Note_off_c, 4, 61, 61
6, 30144, Note_on_c, 4, 59, 96
6, 30332, Note_off_c, 4, 59, 61
6, 30336, Note_on_c, 4, 59, 96
6, 30524, Note_off_c, 4, 59, 61
6, 30528, Note_on_c, 4, 59, 96
6, 30716, Note_off_c, 4, 59, 61
6, 30720, Note_on_c, 4, 59, 96
6, 30908, Note_off_c, 4, 59, 61
6, 30912, Note_on_c, 4, 59, 96
6, 31100, Note_off_c, 4, 59, 61
6, 31104, Note_on_c, 4, 59, 96
6, 31292, Note_off_c, 4, 59, 61
6, 31296, Note_on_c, 4, 59, 96
6, 31424, Note_off_c, 4, 59, 61
6, 31488, Note_on_c, 4, 59, 96
6, 31676, Note_off_c, 4, 59, 61
6, 31680, Note_on_c, 4, 57, 96
6, 31868, Note_off_c, 4, 57, 61
6, 31872, Note_on_c, 4, 59, 96
6, 32060, Note_off_c, 4, 59, 61
6, 32064, Note_on_c, 4, 61, 96
6, 32252, Note_off_c, 4, 61, 61
6, 32256, Note_on_c, 4, 62, 96
6, 32444, Note_off_c, 4, 62, 61
6, 32448, Note_on_c, 4, 61, 96
6, 32636, Note_off_c, 4, 61, 61
6, 32640, Note_on_c, 4, 61, 96
6, 32828, Note_off_c, 4, 61, 61
6, 32832, Note_on_c, 4, 61, 96
6, 33020, Note_off_c, 4, 61, 61
6, 33024, Note_on_c, 4, 61, 96
6, 33212, Note_off_c, 4, 61, 61
6, 33216, Note_on_c, 4, 61, 96
6, 33404, Note_off_c, 4, 61, 61
6, 33408, Note_on_c, 4, 61, 96
6, 33596, Note_off_c, 4, 61, 61
6, 33600, Note_on_c, 4, 61, 96
6, 33788, Note_off_c, 4, 61, 61
6, 33792, Note_on_c, 4, 57, 96
6, 33980, Note_off_c, 4, 57, 61
6, 33984, Note_on_c, 4, 59, 96
6, 34112, Note_off_c, 4, 59, 61
6, 34176, Note_on_c, 4, 61, 96
6, 34364, Note_off_c, 4, 61, 61
6, 34368, Note_on_c, 4, 69, 96
6, 34556, Note_off_c, 4, 69, 61
6, 34560, Note_on_c, 4, 68, 96
6, 34688, Note_off_c, 4, 68, 61
6, 34752, Note_on_c, 4, 69, 96
6, 36092, Note_off_c, 4, 69, 61
6, 36096, Note_on_c, 4, 68, 96
6, 36284, Note_off_c, 4, 68, 61
6, 36288, Note_on_c, 4, 66, 96
6, 36476, Note_off_c, 4, 66, 61
6, 36480, Note_on_c, 4, 64, 96
6, 36668, Note_off_c, 4, 64, 61
6, 36672, Note_on_c, 4, 62, 96
6, 36860, Note_off_c, 4, 62, 61
6, 36864, Note_on_c, 4, 61, 96
6, 37052, Note_off_c, 4, 61, 61
6, 37056, Note_on_c, 4, 66, 96
6, 38780, Note_off_c, 4, 66, 61
6, 38784, Note_on_c, 4, 62, 96
6, 39356, Note_off_c, 4, 62, 61
6, 39360, Note_on_c, 4, 59, 96
6, 39932, Note_off_c, 4, 59, 61
6, 39936, Note_on_c, 4, 66, 96
6, 40508, Note_off_c, 4, 66, 61
6, 40512, Note_on_c, 4, 68, 96
6, 41660, Note_off_c, 4, 68, 61
6, 41664, Note_on_c, 4, 61, 96
6, 42236, Note_off_c, 4, 61, 61
6, 42240, Note_on_c, 4, 62, 96
6, 42812, Note_off_c, 4, 62, 61
6, 42816, Note_on_c, 4, 56, 96
6, 43772, Note_off_c, 4, 56, 61
6, 43968, Note_on_c, 4, 68, 96
6, 44156, Note_off_c, 4, 68, 61
6, 44160, Note_on_c, 4, 69, 96
6, 44348, Note_off_c, 4, 69, 61
6, 44352, Note_on_c, 4, 71, 96
6, 44540, Note_off_c, 4, 71, 61
6, 44544, Note_on_c, 4, 61, 96
6, 44732, Note_off_c, 4, 61, 61
6, 44736, Note_on_c, 4, 61, 96
6, 44924, Note_off_c, 4, 61, 61
6, 44928, Note_on_c, 4, 61, 96
6, 45116, Note_off_c, 4, 61, 61
6, 45120, Note_on_c, 4, 61, 96
6, 46076, Note_off_c, 4, 61, 61
6, 46272, Note_on_c, 4, 61, 96
6, 46460, Note_off_c, 4, 61, 61
6, 46464, Note_on_c, 4, 66, 96
6, 46652, Note_off_c, 4, 66, 61
6, 46656, Note_on_c, 4, 66, 96
6, 46844, Note_off_c, 4, 66, 61
6, 46848, Note_on_c, 4, 66, 96
6, 47036, Note_off_c, 4, 66, 61
6, 47040, Note_on_c, 4, 66, 96
6, 47228, Note_off_c, 4, 66, 61
6, 47232, Note_on_c, 4, 66, 96
6, 47420, Note_off_c, 4, 66, 61
6, 47424, Note_on_c, 4, 66, 96
6, 48380, Note_off_c, 4, 66, 61
6, 48576, Note_on_c, 4, 54, 96
6, 49148, Note_off_c, 4, 54, 61
6, 49152, Note_on_c, 4, 59, 96
6, 49724, Note_off_c, 4, 59, 61
6, 49728, Note_on_c, 4, 62, 96
6, 50300, Note_off_c, 4, 62, 61
6, 50304, Note_on_c, 4, 56, 96
6, 50492, Note_off_c, 4, 56, 61
6, 50496, Note_on_c, 4, 65, 96
6, 50876, Note_off_c, 4, 65, 61
6, 50880, Note_on_c, 4, 66, 96
6, 51260, Note_off_c, 4, 66, 61
6, 53184, Note_on_c, 4, 66, 96
6, 54716, Note_off_c, 4, 66, 61
6, 54720, Note_on_c, 4, 59, 96
6, 54908, Note_off_c, 4, 59, 61
6, 54912, Note_on_c, 4, 61, 96
6, 55484, Note_off_c, 4, 61, 61
6, 55488, Note_on_c, 4, 66, 96
6, 56060, Note_off_c, 4, 66, 61
6, 56064, Note_on_c, 4, 64, 96
6, 56636, Note_off_c, 4, 64, 61
6, 56640, Note_on_c, 4, 62, 96
6, 59516, Note_off_c, 4, 62, 61
6, 59520, Note_on_c, 4, 56, 96
6, 60092, Note_off_c, 4, 56, 61
6, 60096, Note_on_c, 4, 61, 96
6, 60284, Note_off_c, 4, 61, 61
6, 60288, Note_on_c, 4, 68, 96
6, 60476, Note_off_c, 4, 68, 61
6, 60480, Note_on_c, 4, 69, 96
6, 60668, Note_off_c, 4, 69, 61
6, 60672, Note_on_c, 4, 68, 96
6, 60800, Note_off_c, 4, 68, 61
6, 60864, Note_on_c, 4, 69, 96
6, 60992, Note_off_c, 4, 69, 61
6, 61056, Note_on_c, 4, 71, 96
6, 61184, Note_off_c, 4, 71, 61
6, 61248, Note_on_c, 4, 69, 96
6, 62204, Note_off_c, 4, 69, 61
6, 62400, Note_on_c, 4, 66, 96
6, 62588, Note_off_c, 4, 66, 61
6, 62592, Note_on_c, 4, 68, 96
6, 62780, Note_off_c, 4, 68, 61
6, 62784, Note_on_c, 4, 69, 96
6, 62972, Note_off_c, 4, 69, 61
6, 62976, Note_on_c, 4, 69, 96
6, 63164, Note_off_c, 4, 69, 61
6, 63168, Note_on_c, 4, 67, 96
6, 63356, Note_off_c, 4, 67, 61
6, 63360, Note_on_c, 4, 69, 96
6, 63548, Note_off_c, 4, 69, 61
6, 63552, Note_on_c, 4, 66, 96
6, 63740, Note_off_c, 4, 66, 61
6, 63744, Note_on_c, 4, 64, 96
6, 63932, Note_off_c, 4, 64, 61
6, 63936, Note_on_c, 4, 66, 96
6, 64124, Note_off_c, 4, 66, 61
6, 64128, Note_on_c, 4, 66, 96
6, 64508, Note_off_c, 4, 66, 61
6, 64704, Note_on_c, 4, 59, 96
6, 64892, Note_off_c, 4, 59, 61
6, 64896, Note_on_c, 4, 63, 96
6, 65084, Note_off_c, 4, 63, 61
6, 65088, Note_on_c, 4, 64, 96
6, 65276, Note_off_c, 4, 64, 61
6, 65280, Note_on_c, 4, 64, 96
6, 65468, Note_off_c, 4, 64, 61
6, 65472, Note_on_c, 4, 63, 96
6, 65660, Note_off_c, 4, 63, 61
6, 65664, Note_on_c, 4, 64, 96
6, 65852, Note_off_c, 4, 64, 61
6, 65856, Note_on_c, 4, 54, 96
6, 66044, Note_off_c, 4, 54, 61
6, 66048, Note_on_c, 4, 64, 96
6, 66236, Note_off_c, 4, 64, 61
6, 66240, Note_on_c, 4, 62, 96
6, 66428, Note_off_c, 4, 62, 61
6, 66432, Note_on_c, 4, 61, 96
6, 66812, Note_off_c, 4, 61, 61
6, 67008, Note_on_c, 4, 62, 96
6, 67196, Note_off_c, 4, 62, 61
6, 67200, Note_on_c, 4, 64, 96
6, 67388, Note_off_c, 4, 64, 61
6, 67392, Note_on_c, 4, 66, 96
6, 67580, Note_off_c, 4, 66, 61
6, 67584, Note_on_c, 4, 67, 96
6, 67772, Note_off_c, 4, 67, 61
6, 67776, Note_on_c, 4, 64, 96
6, 67964, Note_off_c, 4, 64, 61
6, 67968, Note_on_c, 4, 66, 96
6, 68156, Note_off_c, 4, 66, 61
6, 68160, Note_on_c, 4, 56, 96
6, 68540, Note_off_c, 4, 56, 61
6, 68544, Note_on_c, 4, 61, 96
6, 68732, Note_off_c, 4, 61, 61
6, 68736, Note_on_c, 4, 68, 96
6, 69116, Note_off_c, 4, 68, 61
6, 69312, Note_on_c, 4, 57, 96
6, 69884, Note_off_c, 4, 57, 61
6, 69888, Note_on_c, 4, 61, 96
6, 70460, Note_off_c, 4, 61, 61
6, 70464, Note_on_c, 4, 66, 96
6, 71036, Note_off_c, 4, 66, 61
6, 71040, Note_on_c, 4, 60, 96
6, 71228, Note_off_c, 4, 60, 61
6, 72192, Note_on_c, 4, 66, 96
6, 74300, Note_off_c, 4, 66, 61
6, 75072, Note_on_c, 4, 65, 96
6, 75260, Note_off_c, 4, 65, 61
6, 75264, Note_on_c, 4, 68, 96
6, 75432, Note_on_c, 4, 71, 96
6, 75452, Note_off_c, 4, 68, 61
6, 75812, Note_off_c, 4, 71, 61
6, 75816, Note_on_c, 4, 69, 96
6, 76004, Note_off_c, 4, 69, 61
6, 76008, Note_on_c, 4, 68, 96
6, 76196, Note_off_c, 4, 68, 61
6, 76224, Note_on_c, 4, 69, 96
6, 76796, Note_off_c, 4, 69, 61
6, 76800, Note_on_c, 4, 73, 96
6, 77372, Note_off_c, 4, 73, 61
6, 77376, Note_on_c, 4, 61, 96
6, 77564, Note_off_c, 4, 61, 61
6, 77568, Note_on_c, 4, 66, 96
6, 79484, Note_off_c, 4, 66, 61
6, 79488, Note_on_c, 4, 64, 96
6, 79676, Note_off_c, 4, 64, 61
6, 79680, Note_on_c, 4, 62, 96
6, 80060, Note_off_c, 4, 62, 61
6, 80064, Note_on_c, 4, 64, 96
6, 80252, Note_off_c, 4, 64, 61
6, 80256, Note_on_c, 4, 66, 96
6, 80828, Note_off_c, 4, 66, 61
6, 80832, Note_on_c, 4, 64, 96
6, 82556, Note_off_c, 4, 64, 61
6, 82560, Note_on_c, 4, 58, 96
6, 83132, Note_off_c, 4, 58, 61
6, 83136, Note_on_c, 4, 66, 96
6, 83708, Note_off_c, 4, 66, 61
6, 83712, Note_on_c, 4, 67, 96
6, 84284, Note_off_c, 4, 67, 61
6, 84288, Note_on_c, 4, 61, 96
6, 84476, Note_off_c, 4, 61, 61
6, 84480, Note_on_c, 4, 62, 96
6, 84668, Note_off_c, 4, 62, 61
6, 84672, Note_on_c, 4, 64, 96
6, 84860, Note_off_c, 4, 64, 61
6, 84864, Note_on_c, 4, 58, 96
6, 85052, Note_off_c, 4, 58, 61
6, 85056, Note_on_c, 4, 59, 96
6, 85244, Note_off_c, 4, 59, 61
6, 85248, Note_on_c, 4, 61, 96
6, 85436, Note_off_c, 4, 61, 61
6, 85440, Note_on_c, 4, 59, 96
6, 85628, Note_off_c, 4, 59, 61
6, 85632, Note_on_c, 4, 59, 96
6, 85820, Note_off_c, 4, 59, 61
6, 85824, Note_on_c, 4, 59, 96
6, 86012, Note_off_c, 4, 59, 61
6, 86016, Note_on_c, 4, 59, 96
6, 86204, Note_off_c, 4, 59, 61
6, 86208, Note_on_c, 4, 59, 96
6, 86396, Note_off_c, 4, 59, 61
6, 86400, Note_on_c, 4, 59, 96
6, 86588, Note_off_c, 4, 59, 61
6, 86592, Note_on_c, 4, 59, 96
6, 86780, Note_off_c, 4, 59, 61
6, 86784, Note_on_c, 4, 55, 96
6, 86972, Note_off_c, 4, 55, 61
6, 86976, Note_on_c, 4, 57, 96
6, 87164, Note_off_c, 4, 57, 61
6, 87168, Note_on_c, 4, 59, 96
6, 87356, Note_off_c, 4, 59, 61
6, 87360, Note_on_c, 4, 61, 96
6, 87548, Note_off_c, 4, 61, 61
6, 87552, Note_on_c, 4, 59, 96
6, 87740, Note_off_c, 4, 59, 61
6, 87744, Note_on_c, 4, 57, 96
6, 87932, Note_off_c, 4, 57, 61
6, 87936, Note_on_c, 4, 59, 96
6, 88124, Note_off_c, 4, 59, 61
6, 88128, Note_on_c, 4, 61, 96
6, 88316, Note_off_c, 4, 61, 61
6, 88320, Note_on_c, 4, 54, 96
6, 88508, Note_off_c, 4, 54, 61
6, 88512, Note_on_c, 4, 54, 96
6, 88700, Note_off_c, 4, 54, 61
6, 88704, Note_on_c, 4, 54, 96
6, 88892, Note_off_c, 4, 54, 61
6, 88896, Note_on_c, 4, 54, 96
6, 89084, Note_off_c, 4, 54, 61
6, 89088, Note_on_c, 4, 50, 96
6, 89276, Note_off_c, 4, 50, 61
6, 89280, Note_on_c, 4, 52, 96
6, 89408, Note_off_c, 4, 52, 61
6, 89472, Note_on_c, 4, 54, 96
6, 89660, Note_off_c, 4, 54, 61
6, 89664, Note_on_c, 4, 62, 96
6, 89852, Note_off_c, 4, 62, 61
6, 89856, Note_on_c, 4, 61, 96
6, 89984, Note_off_c, 4, 61, 61
6, 90048, Note_on_c, 4, 59, 96
6, 91772, Note_off_c, 4, 59, 61
6, 91776, Note_on_c, 4, 66, 96
6, 91964, Note_off_c, 4, 66, 61
6, 91968, Note_on_c, 4, 67, 96
6, 92156, Note_off_c, 4, 67, 61
6, 92160, Note_on_c, 4, 69, 96
6, 92348, Note_off_c, 4, 69, 61
6, 92352, Note_on_c, 4, 67, 96
6, 92924, Note_off_c, 4, 67, 61
6, 92928, Note_on_c, 4, 66, 96
6, 93500, Note_off_c, 4, 66, 61
6, 93504, Note_on_c, 4, 64, 96
6, 96764, Note_off_c, 4, 64, 61
6, 96768, Note_on_c, 4, 66, 96
6, 96956, Note_off_c, 4, 66, 61
6, 96960, Note_on_c, 4, 59, 96
6, 98108, Note_off_c, 4, 59, 61
6, 98112, Note_on_c, 4, 66, 96
6, 99068, Note_off_c, 4, 66, 61
6, 99264, Note_on_c, 4, 61, 96
6, 99452, Note_off_c, 4, 61, 61
6, 99456, Note_on_c, 4, 62, 96
6, 99644, Note_off_c, 4, 62, 61
6, 99648, Note_on_c, 4, 64, 96
6, 99836, Note_off_c, 4, 64, 61
6, 99840, Note_on_c, 4, 54, 96
6, 100028, Note_off_c, 4, 54, 61
6, 100032, Note_on_c, 4, 54, 96
6, 100220, Note_off_c, 4, 54, 61
6, 100224, Note_on_c, 4, 54, 96
6, 100412, Note_off_c, 4, 54, 61
6, 100416, Note_on_c, 4, 54, 96
6, 101372, Note_off_c, 4, 54, 61
6, 101568, Note_on_c, 4, 54, 96
6, 101756, Note_off_c, 4, 54, 61
6, 101760, Note_on_c, 4, 59, 96
6, 101948, Note_off_c, 4, 59, 61
6, 101952, Note_on_c, 4, 59, 96
6, 102140, Note_off_c, 4, 59, 61
6, 102144, Note_on_c, 4, 59, 96
6, 102332, Note_off_c, 4, 59, 61
6, 102336, Note_on_c, 4, 59, 96
6, 102524, Note_off_c, 4, 59, 61
6, 102528, Note_on_c, 4, 59, 96
6, 102716, Note_off_c, 4, 59, 61
6, 102720, Note_on_c, 4, 59, 96
6, 103676, Note_off_c, 4, 59, 61
6, 103872, Note_on_c, 4, 59, 96
6, 104444, Note_off_c, 4, 59, 61
6, 104448, Note_on_c, 4, 71, 96
6, 105020, Note_off_c, 4, 71, 61
6, 105024, Note_on_c, 4, 67, 96
6, 105788, Note_off_c, 4, 67, 61
6, 105792, Note_on_c, 4, 66, 96
6, 106364, Note_off_c, 4, 66, 61
6, 108480, Note_on_c, 4, 62, 96
6, 110204, Note_off_c, 4, 62, 61
6, 110208, Note_on_c, 4, 66, 96
6, 110780, Note_off_c, 4, 66, 61
6, 110784, Note_on_c, 4, 59, 96
6, 111356, Note_off_c, 4, 59, 61
6, 111360, Note_on_c, 4, 57, 96
6, 111932, Note_off_c, 4, 57, 61
6, 111936, Note_on_c, 4, 55, 96
6, 112508, Note_off_c, 4, 55, 61
6, 112512, Note_on_c, 4, 67, 96
6, 113084, Note_off_c, 4, 67, 61
6, 113088, Note_on_c, 4, 72, 96
6, 113660, Note_off_c, 4, 72, 61
6, 113664, Note_on_c, 4, 71, 96
6, 114236, Note_off_c, 4, 71, 61
6, 114240, Note_on_c, 4, 70, 96
6, 114812, Note_off_c, 4, 70, 61
6, 114816, Note_on_c, 4, 73, 96
6, 115388, Note_off_c, 4, 73, 61
6, 115392, Note_on_c, 4, 66, 96
6, 115964, Note_off_c, 4, 66, 61
6, 115968, Note_on_c, 4, 67, 96
6, 116540, Note_off_c, 4, 67, 61
6, 116544, Note_on_c, 4, 61, 96
6, 117500, Note_off_c, 4, 61, 61
6, 117696, Note_on_c, 4, 61, 96
6, 117884, Note_off_c, 4, 61, 61
6, 117888, Note_on_c, 4, 62, 96
6, 118076, Note_off_c, 4, 62, 61
6, 118080, Note_on_c, 4, 64, 96
6, 118268, Note_off_c, 4, 64, 61
6, 118272, Note_on_c, 4, 54, 96
6, 118460, Note_off_c, 4, 54, 61
6, 118464, Note_on_c, 4, 54, 96
6, 118652, Note_off_c, 4, 54, 61
6, 118656, Note_on_c, 4, 54, 96
6, 118844, Note_off_c, 4, 54, 61
6, 118848, Note_on_c, 4, 70, 96
6, 119804, Note_off_c, 4, 70, 61
6, 120000, Note_on_c, 4, 57, 96
6, 120188, Note_off_c, 4, 57, 61
6, 120192, Note_on_c, 4, 55, 96
6, 120380, Note_off_c, 4, 55, 61
6, 120384, Note_on_c, 4, 54, 96
6, 120572, Note_off_c, 4, 54, 61
6, 120576, Note_on_c, 4, 59, 96
6, 120764, Note_off_c, 4, 59, 61
6, 120768, Note_on_c, 4, 59, 96
6, 120956, Note_off_c, 4, 59, 61
6, 120960, Note_on_c, 4, 59, 96
6, 121148, Note_off_c, 4, 59, 61
6, 121152, Note_on_c, 4, 63, 96
6, 122108, Note_off_c, 4, 63, 61
6, 122304, Note_on_c, 4, 59, 96
6, 122876, Note_off_c, 4, 59, 61
6, 122880, Note_on_c, 4, 64, 96
6, 123452, Note_off_c, 4, 64, 61
6, 123456, Note_on_c, 4, 67, 96
6, 124028, Note_off_c, 4, 67, 61
6, 124032, Note_on_c, 4, 61, 96
6, 124220, Note_off_c, 4, 61, 61
6, 124224, Note_on_c, 4, 70, 96
6, 124604, Note_off_c, 4, 70, 61
6, 124608, Note_on_c, 4, 71, 96
6, 124796, Note_off_c, 4, 71, 61
6, 124800, Note_on_c, 4, 64, 96
6, 124988, Note_off_c, 4, 64, 61
6, 124992, Note_on_c, 4, 66, 96
6, 125180, Note_off_c, 4, 66, 61
6, 125184, Note_on_c, 4, 61, 96
6, 125312, Note_off_c, 4, 61, 61
6, 125376, Note_on_c, 4, 62, 96
6, 125504, Note_off_c, 4, 62, 61
6, 125568, Note_on_c, 4, 64, 96
6, 125696, Note_off_c, 4, 64, 61
6, 125760, Note_on_c, 4, 62, 96
6, 125948, Note_off_c, 4, 62, 61
6, 125952, Note_on_c, 4, 64, 96
6, 126140, Note_off_c, 4, 64, 61
6, 126144, Note_on_c, 4, 66, 96
6, 126332, Note_off_c, 4, 66, 61
6, 126336, Note_on_c, 4, 64, 96
6, 126524, Note_off_c, 4, 64, 61
6, 126528, Note_on_c, 4, 66, 96
6, 126716, Note_off_c, 4, 66, 61
6, 126720, Note_on_c, 4, 58, 96
6, 126908, Note_off_c, 4, 58, 61
6, 126912, Note_on_c, 4, 59, 96
6, 128060, Note_off_c, 4, 59, 61
6, 128060, End_track
7, 0, Start_track
7, 0, Title_t, "Cello"
7, 0, Control_c, 5, 0, 0
7, 0, Program_c, 5, 42
7, 0, Control_c, 5, 10, 21
7, 0, Key_signature, 2, "minor"
7, 0, Control_c, 5, 7, 127
7, 0, Note_on_c, 5, 47, 96
7, 190, Note_off_c, 5, 47, 61
7, 192, Note_on_c, 5, 59, 96
7, 382, Note_off_c, 5, 59, 61
7, 384, Note_on_c, 5, 59, 96
7, 574, Note_off_c, 5, 59, 61
7, 576, Note_on_c, 5, 59, 96
7, 766, Note_off_c, 5, 59, 61
7, 768, Note_on_c, 5, 57, 96
7, 958, Note_off_c, 5, 57, 61
7, 960, Note_on_c, 5, 57, 96
7, 1150, Note_off_c, 5, 57, 61
7, 1152, Note_on_c, 5, 57, 96
7, 1342, Note_off_c, 5, 57, 61
7, 1344, Note_on_c, 5, 55, 96
7, 1534, Note_off_c, 5, 55, 61
7, 1536, Note_on_c, 5, 55, 96
7, 1726, Note_off_c, 5, 55, 61
7, 1728, Note_on_c, 5, 55, 96
7, 1918, Note_off_c, 5, 55, 61
7, 1920, Note_on_c, 5, 54, 96
7, 2110, Note_off_c, 5, 54, 61
7, 2112, Note_on_c, 5, 54, 96
7, 2302, Note_off_c, 5, 54, 61
7, 2304, Note_on_c, 5, 54, 96
7, 2494, Note_off_c, 5, 54, 61
7, 2496, Note_on_c, 5, 52, 96
7, 2686, Note_off_c, 5, 52, 61
7, 2688, Note_on_c, 5, 52, 96
7, 2878, Note_off_c, 5, 52, 61
7, 2880, Note_on_c, 5, 52, 96
7, 3070, Note_off_c, 5, 52, 61
7, 3072, Note_on_c, 5, 54, 96
7, 3262, Note_off_c, 5, 54, 61
7, 3264, Note_on_c, 5, 54, 96
7, 3454, Note_off_c, 5, 54, 61
7, 3456, Note_on_c, 5, 54, 96
7, 3646, Note_off_c, 5, 54, 61
7, 3648, Note_on_c, 5, 55, 96
7, 3838, Note_off_c, 5, 55, 61
7, 3840, Note_on_c, 5, 52, 96
7, 4030, Note_off_c, 5, 52, 61
7, 4032, Note_on_c, 5, 55, 96
7, 4222, Note_off_c, 5, 55, 61
7, 4224, Note_on_c, 5, 59, 96
7, 4414, Note_off_c, 5, 59, 61
7, 4416, Note_on_c, 5, 55, 96
7, 4606, Note_off_c, 5, 55, 61
7, 4608, Note_on_c, 5, 59, 96
7, 4798, Note_off_c, 5, 59, 61
7, 4800, Note_on_c, 5, 64, 96
7, 4990, Note_off_c, 5, 64, 61
7, 4992, Note_on_c, 5, 64, 96
7, 5182, Note_off_c, 5, 64, 61
7, 5184, Note_on_c, 5, 64, 96
7, 5374, Note_off_c, 5, 64, 61
7, 5376, Note_on_c, 5, 62, 96
7, 5566, Note_off_c, 5, 62, 61
7, 5568, Note_on_c, 5, 62, 96
7, 5758, Note_off_c, 5, 62, 61
7, 5760, Note_on_c, 5, 62, 96
7, 5950, Note_off_c, 5, 62, 61
7, 5952, Note_on_c, 5, 61, 96
7, 6142, Note_off_c, 5, 61, 61
7, 6144, Note_on_c, 5, 61, 96
7, 6334, Note_off_c, 5, 61, 61
7, 6336, Note_on_c, 5, 61, 96
7, 6526, Note_off_c, 5, 61, 61
7, 6528, Note_on_c, 5, 58, 96
7, 6718, Note_off_c, 5, 58, 61
7, 6720, Note_on_c, 5, 58, 96
7, 6910, Note_off_c, 5, 58, 61
7, 6912, Note_on_c, 5, 58, 96
7, 7102, Note_off_c, 5, 58, 61
7, 7104, Note_on_c, 5, 59, 96
7, 7294, Note_off_c, 5, 59, 61
7, 7296, Note_on_c, 5, 59, 96
7, 7486, Note_off_c, 5, 59, 61
7, 7488, Note_on_c, 5, 59, 96
7, 7678, Note_off_c, 5, 59, 61
7, 7680, Note_on_c, 5, 55, 96
7, 7870, Note_off_c, 5, 55, 61
7, 7872, Note_on_c, 5, 55, 96
7, 8062, Note_off_c, 5, 55, 61
7, 8064, Note_on_c, 5, 55, 96
7, 8254, Note_off_c, 5, 55, 61
7, 8256, Note_on_c, 5, 54, 96
7, 8446, Note_off_c, 5, 54, 61
7, 8448, Note_on_c, 5, 49, 96
7, 8638, Note_off_c, 5, 49, 61
7, 8640, Note_on_c, 5, 52, 96
7, 8830, Note_off_c, 5, 52, 61
7, 8832, Note_on_c, 5, 52, 96
7, 9022, Note_off_c, 5, 52, 61
7, 9024, Note_on_c, 5, 46, 96
7, 9214, Note_off_c, 5, 46, 61
7, 9216, Note_on_c, 5, 49, 96
7, 9406, Note_off_c, 5, 49, 61
7, 9408, Note_on_c, 5, 42, 96
7, 10172, Note_off_c, 5, 42, 61
7, 11712, Note_on_c, 5, 42, 96
7, 12092, Note_off_c, 5, 42, 61
7, 12096, Note_on_c, 5, 42, 96
7, 12476, Note_off_c, 5, 42, 61
7, 12480, Note_on_c, 5, 42, 96
7, 12860, Note_off_c, 5, 42, 61
7, 12864, Note_on_c, 5, 42, 96
7, 13244, Note_off_c, 5, 42, 61
7, 13248, Note_on_c, 5, 42, 96
7, 13628, Note_off_c, 5, 42, 61
7, 13632, Note_on_c, 5, 42, 96
7, 14012, Note_off_c, 5, 42, 61
7, 14016, Note_on_c, 5, 47, 96
7, 14398, Note_off_c, 5, 47, 61
7, 15168, Note_on_c, 5, 47, 96
7, 15358, Note_off_c, 5, 47, 61
7, 15360, Note_on_c, 5, 47, 96
7, 15550, Note_off_c, 5, 47, 61
7, 15552, Note_on_c, 5, 47, 96
7, 15742, Note_off_c, 5, 47, 61
7, 15744, Note_on_c, 5, 47, 96
7, 15934, Note_off_c, 5, 47, 61
7, 15936, Note_on_c, 5, 47, 96
7, 16126, Note_off_c, 5, 47, 61
7, 16128, Note_on_c, 5, 47, 96
7, 16318, Note_off_c, 5, 47, 61
7, 16320, Note_on_c, 5, 40, 96
7, 16510, Note_off_c, 5, 40, 61
7, 16512, Note_on_c, 5, 40, 96
7, 16702, Note_off_c, 5, 40, 61
7, 16704, Note_on_c, 5, 40, 96
7, 16894, Note_off_c, 5, 40, 61
7, 16896, Note_on_c, 5, 40, 96
7, 17086, Note_off_c, 5, 40, 61
7, 17088, Note_on_c, 5, 40, 96
7, 17278, Note_off_c, 5, 40, 61
7, 17280, Note_on_c, 5, 40, 96
7, 17470, Note_off_c, 5, 40, 61
7, 17472, Note_on_c, 5, 40, 96
7, 17662, Note_off_c, 5, 40, 61
7, 17664, Note_on_c, 5, 40, 96
7, 17854, Note_off_c, 5, 40, 61
7, 17856, Note_on_c, 5, 40, 96
7, 18046, Note_off_c, 5, 40, 61
7, 18048, Note_on_c, 5, 40, 96
7, 18238, Note_off_c, 5, 40, 61
7, 18240, Note_on_c, 5, 40, 96
7, 18430, Note_off_c, 5, 40, 61
7, 18432, Note_on_c, 5, 52, 96
7, 18622, Note_off_c, 5, 52, 61
7, 18624, Note_on_c, 5, 50, 96
7, 18814, Note_off_c, 5, 50, 61
7, 18816, Note_on_c, 5, 49, 96
7, 19006, Note_off_c, 5, 49, 61
7, 19008, Note_on_c, 5, 47, 96
7, 19198, Note_off_c, 5, 47, 61
7, 19200, Note_on_c, 5, 54, 96
7, 19390, Note_off_c, 5, 54, 61
7, 19392, Note_on_c, 5, 42, 96
7, 19582, Note_off_c, 5, 42, 61
7, 19584, Note_on_c, 5, 42, 96
7, 19774, Note_off_c, 5, 42, 61
7, 19776, Note_on_c, 5, 47, 96
7, 20734, Note_off_c, 5, 47, 61
7, 20736, Note_on_c, 5, 47, 96
7, 20926, Note_off_c, 5, 47, 61
7, 20928, Note_on_c, 5, 59, 96
7, 21116, Note_off_c, 5, 59, 61
7, 21120, Note_on_c, 5, 59, 96
7, 21308, Note_off_c, 5, 59, 61
7, 21312, Note_on_c, 5, 59, 96
7, 21500, Note_off_c, 5, 59, 61
7, 21504, Note_on_c, 5, 57, 96
7, 21692, Note_off_c, 5, 57, 61
7, 21696, Note_on_c, 5, 57, 96
7, 21884, Note_off_c, 5, 57, 61
7, 21888, Note_on_c, 5, 57, 96
7, 22076, Note_off_c, 5, 57, 61
7, 22080, Note_on_c, 5, 55, 96
7, 22268, Note_off_c, 5, 55, 61
7, 22272, Note_on_c, 5, 55, 96
7, 22460, Note_off_c, 5, 55, 61
7, 22464, Note_on_c, 5, 55, 96
7, 22652, Note_off_c, 5, 55, 61
7, 22656, Note_on_c, 5, 54, 96
7, 22844, Note_off_c, 5, 54, 61
7, 22848, Note_on_c, 5, 54, 96
7, 23036, Note_off_c, 5, 54, 61
7, 23040, Note_on_c, 5, 54, 96
7, 23228, Note_off_c, 5, 54, 61
7, 23232, Note_on_c, 5, 52, 96
7, 23420, Note_off_c, 5, 52, 61
7, 23424, Note_on_c, 5, 52, 96
7, 23612, Note_off_c, 5, 52, 61
7, 23616, Note_on_c, 5, 52, 96
7, 23804, Note_off_c, 5, 52, 61
7, 23808, Note_on_c, 5, 52, 96
7, 23996, Note_off_c, 5, 52, 61
7, 24000, Note_on_c, 5, 52, 96
7, 24188, Note_off_c, 5, 52, 61
7, 24192, Note_on_c, 5, 52, 96
7, 24380, Note_off_c, 5, 52, 61
7, 24384, Note_on_c, 5, 52, 96
7, 24572, Note_off_c, 5, 52, 61
7, 24576, Note_on_c, 5, 52, 96
7, 24764, Note_off_c, 5, 52, 61
7, 24768, Note_on_c, 5, 52, 96
7, 24956, Note_off_c, 5, 52, 61
7, 24960, Note_on_c, 5, 52, 96
7, 25148, Note_off_c, 5, 52, 61
7, 25152, Note_on_c, 5, 52, 96
7, 25340, Note_off_c, 5, 52, 61
7, 25344, Note_on_c, 5, 52, 96
7, 25532, Note_off_c, 5, 52, 61
7, 25536, Note_on_c, 5, 52, 96
7, 25724, Note_off_c, 5, 52, 61
7, 25728, Note_on_c, 5, 52, 96
7, 25916, Note_off_c, 5, 52, 61
7, 25920, Note_on_c, 5, 52, 96
7, 26108, Note_off_c, 5, 52, 61
7, 26112, Note_on_c, 5, 50, 96
7, 26300, Note_off_c, 5, 50, 61
7, 26304, Note_on_c, 5, 50, 96
7, 26492, Note_off_c, 5, 50, 61
7, 26496, Note_on_c, 5, 50, 96
7, 26684, Note_off_c, 5, 50, 61
7, 26688, Note_on_c, 5, 49, 96
7, 26876, Note_off_c, 5, 49, 61
7, 26880, Note_on_c, 5, 49, 96
7, 27068, Note_off_c, 5, 49, 61
7, 27072, Note_on_c, 5, 49, 96
7, 27260, Note_off_c, 5, 49, 61
7, 27264, Note_on_c, 5, 46, 96
7, 27452, Note_off_c, 5, 46, 61
7, 27456, Note_on_c, 5, 46, 96
7, 27644, Note_off_c, 5, 46, 61
7, 27648, Note_on_c, 5, 46, 96
7, 27836, Note_off_c, 5, 46, 61
7, 27840, Note_on_c, 5, 47, 96
7, 28028, Note_off_c, 5, 47, 61
7, 28032, Note_on_c, 5, 47, 96
7, 28220, Note_off_c, 5, 47, 61
7, 28224, Note_on_c, 5, 47, 96
7, 28412, Note_off_c, 5, 47, 61
7, 28416, Note_on_c, 5, 43, 96
7, 28604, Note_off_c, 5, 43, 61
7, 28608, Note_on_c, 5, 43, 96
7, 28796, Note_off_c, 5, 43, 61
7, 28800, Note_on_c, 5, 43, 96
7, 28988, Note_off_c, 5, 43, 61
7, 28992, Note_on_c, 5, 42, 96
7, 29372, Note_off_c, 5, 42, 61
7, 30144, Note_on_c, 5, 47, 96
7, 30524, Note_off_c, 5, 47, 61
7, 31296, Note_on_c, 5, 52, 96
7, 31676, Note_off_c, 5, 52, 61
7, 32448, Note_on_c, 5, 49, 96
7, 32828, Note_off_c, 5, 49, 61
7, 33600, Note_on_c, 5, 54, 96
7, 33980, Note_off_c, 5, 54, 61
7, 34752, Note_on_c, 5, 54, 96
7, 34940, Note_off_c, 5, 54, 61
7, 34944, Note_on_c, 5, 54, 96
7, 35132, Note_off_c, 5, 54, 61
7, 35136, Note_on_c, 5, 54, 96
7, 35324, Note_off_c, 5, 54, 61
7, 35328, Note_on_c, 5, 52, 96
7, 35516, Note_off_c, 5, 52, 61
7, 35520, Note_on_c, 5, 52, 96
7, 35708, Note_off_c, 5, 52, 61
7, 35712, Note_on_c, 5, 52, 96
7, 35900, Note_off_c, 5, 52, 61
7, 35904, Note_on_c, 5, 50, 96
7, 36092, Note_off_c, 5, 50, 61
7, 36096, Note_on_c, 5, 50, 96
7, 36284, Note_off_c, 5, 50, 61
7, 36288, Note_on_c, 5, 50, 96
7, 36476, Note_off_c, 5, 50, 61
7, 36480, Note_on_c, 5, 49, 96
7, 36668, Note_off_c, 5, 49, 61
7, 36672, Note_on_c, 5, 49, 96
7, 36860, Note_off_c, 5, 49, 61
7, 36864, Note_on_c, 5, 49, 96
7, 37052, Note_off_c, 5, 49, 61
7, 37056, Note_on_c, 5, 47, 96
7, 37244, Note_off_c, 5, 47, 61
7, 37248, Note_on_c, 5, 47, 96
7, 37436, Note_off_c, 5, 47, 61
7, 37440, Note_on_c, 5, 47, 96
7, 37628, Note_off_c, 5, 47, 61
7, 37632, Note_on_c, 5, 49, 96
7, 37820, Note_off_c, 5, 49, 61
7, 37824, Note_on_c, 5, 49, 96
7, 38012, Note_off_c, 5, 49, 61
7, 38016, Note_on_c, 5, 49, 96
7, 38204, Note_off_c, 5, 49, 61
7, 38208, Note_on_c, 5, 50, 96
7, 38396, Note_off_c, 5, 50, 61
7, 38400, Note_on_c, 5, 47, 96
7, 38588, Note_off_c, 5, 47, 61
7, 38592, Note_on_c, 5, 50, 96
7, 38780, Note_off_c, 5, 50, 61
7, 38784, Note_on_c, 5, 54, 96
7, 38972, Note_off_c, 5, 54, 61
7, 38976, Note_on_c, 5, 50, 96
7, 39164, Note_off_c, 5, 50, 61
7, 39168, Note_on_c, 5, 54, 96
7, 39356, Note_off_c, 5, 54, 61
7, 39360, Note_on_c, 5, 59, 96
7, 39548, Note_off_c, 5, 59, 61
7, 39552, Note_on_c, 5, 59, 96
7, 39740, Note_off_c, 5, 59, 61
7, 39744, Note_on_c, 5, 59, 96
7, 39932, Note_off_c, 5, 59, 61
7, 39936, Note_on_c, 5, 57, 96
7, 40124, Note_off_c, 5, 57, 61
7, 40128, Note_on_c, 5, 57, 96
7, 40316, Note_off_c, 5, 57, 61
7, 40320, Note_on_c, 5, 57, 96
7, 40508, Note_off_c, 5, 57, 61
7, 40512, Note_on_c, 5, 56, 96
7, 40700, Note_off_c, 5, 56, 61
7, 40704, Note_on_c, 5, 56, 96
7, 40892, Note_off_c, 5, 56, 61
7, 40896, Note_on_c, 5, 56, 96
7, 41084, Note_off_c, 5, 56, 61
7, 41088, Note_on_c, 5, 53, 96
7, 41276, Note_off_c, 5, 53, 61
7, 41280, Note_on_c, 5, 53, 96
7, 41468, Note_off_c, 5, 53, 61
7, 41472, Note_on_c, 5, 53, 96
7, 41660, Note_off_c, 5, 53, 61
7, 41664, Note_on_c, 5, 54, 96
7, 41852, Note_off_c, 5, 54, 61
7, 41856, Note_on_c, 5, 54, 96
7, 42044, Note_off_c, 5, 54, 61
7, 42048, Note_on_c, 5, 54, 96
7, 42236, Note_off_c, 5, 54, 61
7, 42240, Note_on_c, 5, 50, 96
7, 42428, Note_off_c, 5, 50, 61
7, 42432, Note_on_c, 5, 50, 96
7, 42620, Note_off_c, 5, 50, 61
7, 42624, Note_on_c, 5, 50, 96
7, 42812, Note_off_c, 5, 50, 61
7, 42816, Note_on_c, 5, 49, 96
7, 43004, Note_off_c, 5, 49, 61
7, 43008, Note_on_c, 5, 44, 96
7, 43196, Note_off_c, 5, 44, 61
7, 43200, Note_on_c, 5, 47, 96
7, 43388, Note_off_c, 5, 47, 61
7, 43392, Note_on_c, 5, 47, 96
7, 43580, Note_off_c, 5, 47, 61
7, 43584, Note_on_c, 5, 41, 96
7, 43772, Note_off_c, 5, 41, 61
7, 43776, Note_on_c, 5, 44, 96
7, 43964, Note_off_c, 5, 44, 61
7, 45120, Note_on_c, 5, 49, 96
7, 45308, Note_off_c, 5, 49, 61
7, 45312, Note_on_c, 5, 49, 96
7, 45500, Note_off_c, 5, 49, 61
7, 45504, Note_on_c, 5, 49, 96
7, 45692, Note_off_c, 5, 49, 61
7, 45696, Note_on_c, 5, 49, 96
7, 45884, Note_off_c, 5, 49, 61
7, 45888, Note_on_c, 5, 49, 96
7, 46076, Note_off_c, 5, 49, 61
7, 46080, Note_on_c, 5, 49, 96
7, 46268, Note_off_c, 5, 49, 61
7, 46272, Note_on_c, 5, 42, 96
7, 46652, Note_off_c, 5, 42, 61
7, 47424, Note_on_c, 5, 42, 96
7, 47612, Note_off_c, 5, 42, 61
7, 47616, Note_on_c, 5, 42, 96
7, 47804, Note_off_c, 5, 42, 61
7, 47808, Note_on_c, 5, 42, 96
7, 47996, Note_off_c, 5, 42, 61
7, 48000, Note_on_c, 5, 42, 96
7, 48188, Note_off_c, 5, 42, 61
7, 48192, Note_on_c, 5, 42, 96
7, 48380, Note_off_c, 5, 42, 61
7, 48384, Note_on_c, 5, 42, 96
7, 48572, Note_off_c, 5, 42, 61
7, 48576, Note_on_c, 5, 47, 96
7, 48764, Note_off_c, 5, 47, 61
7, 48768, Note_on_c, 5, 47, 96
7, 48956, Note_off_c, 5, 47, 61
7, 48960, Note_on_c, 5, 47, 96
7, 49148, Note_off_c, 5, 47, 61
7, 49152, Note_on_c, 5, 47, 96
7, 49340, Note_off_c, 5, 47, 61
7, 49344, Note_on_c, 5, 47, 96
7, 49532, Note_off_c, 5, 47, 61
7, 49536, Note_on_c, 5, 47, 96
7, 49724, Note_off_c, 5, 47, 61
7, 49728, Note_on_c, 5, 47, 96
7, 49916, Note_off_c, 5, 47, 61
7, 49920, Note_on_c, 5, 47, 96
7, 50108, Note_off_c, 5, 47, 61
7, 50112, Note_on_c, 5, 47, 96
7, 50300, Note_off_c, 5, 47, 61
7, 50304, Note_on_c, 5, 47, 96
7, 50492, Note_off_c, 5, 47, 61
7, 50496, Note_on_c, 5, 47, 96
7, 50684, Note_off_c, 5, 47, 61
7, 50688, Note_on_c, 5, 47, 96
7, 50876, Note_off_c, 5, 47, 61
7, 50880, Note_on_c, 5, 45, 96
7, 51068, Note_off_c, 5, 45, 61
7, 51072, Note_on_c, 5, 43, 96
7, 51260, Note_off_c, 5, 43, 61
7, 51264, Note_on_c, 5, 42, 96
7, 51452, Note_off_c, 5, 42, 61
7, 51456, Note_on_c, 5, 49, 96
7, 51644, Note_off_c, 5, 49, 61
7, 51648, Note_on_c, 5, 49, 96
7, 51836, Note_off_c, 5, 49, 61
7, 51840, Note_on_c, 5, 49, 96
7, 52028, Note_off_c, 5, 49, 61
7, 52032, Note_on_c, 5, 54, 96
7, 52220, Note_off_c, 5, 54, 61
7, 52224, Note_on_c, 5, 42, 96
7, 52412, Note_off_c, 5, 42, 61
7, 52416, Note_on_c, 5, 45, 96
7, 52604, Note_off_c, 5, 45, 61
7, 52608, Note_on_c, 5, 49, 96
7, 52796, Note_off_c, 5, 49, 61
7, 52800, Note_on_c, 5, 45, 96
7, 52988, Note_off_c, 5, 45, 61
7, 52992, Note_on_c, 5, 49, 96
7, 53180, Note_off_c, 5, 49, 61
7, 53184, Note_on_c, 5, 54, 96
7, 53372, Note_off_c, 5, 54, 61
7, 53376, Note_on_c, 5, 54, 96
7, 53564, Note_off_c, 5, 54, 61
7, 53568, Note_on_c, 5, 54, 96
7, 53756, Note_off_c, 5, 54, 61
7, 53760, Note_on_c, 5, 52, 96
7, 53948, Note_off_c, 5, 52, 61
7, 53952, Note_on_c, 5, 52, 96
7, 54140, Note_off_c, 5, 52, 61
7, 54144, Note_on_c, 5, 52, 96
7, 54332, Note_off_c, 5, 52, 61
7, 54336, Note_on_c, 5, 50, 96
7, 54524, Note_off_c, 5, 50, 61
7, 54528, Note_on_c, 5, 50, 96
7, 54716, Note_off_c, 5, 50, 61
7, 54720, Note_on_c, 5, 50, 96
7, 54908, Note_off_c, 5, 50, 61
7, 54912, Note_on_c, 5, 49, 96
7, 55100, Note_off_c, 5, 49, 61
7, 55104, Note_on_c, 5, 49, 96
7, 55292, Note_off_c, 5, 49, 61
7, 55296, Note_on_c, 5, 49, 96
7, 55484, Note_off_c, 5, 49, 61
7, 55488, Note_on_c, 5, 47, 96
7, 55676, Note_off_c, 5, 47, 61
7, 55680, Note_on_c, 5, 47, 96
7, 55868, Note_off_c, 5, 47, 61
7, 55872, Note_on_c, 5, 47, 96
7, 56060, Note_off_c, 5, 47, 61
7, 56064, Note_on_c, 5, 49, 96
7, 56252, Note_off_c, 5, 49, 61
7, 56256, Note_on_c, 5, 49, 96
7, 56444, Note_off_c, 5, 49, 61
7, 56448, Note_on_c, 5, 49, 96
7, 56636, Note_off_c, 5, 49, 61
7, 56640, Note_on_c, 5, 50, 96
7, 56828, Note_off_c, 5, 50, 61
7, 56832, Note_on_c, 5, 47, 96
7, 57020, Note_off_c, 5, 47, 61
7, 57024, Note_on_c, 5, 50, 96
7, 57212, Note_off_c, 5, 50, 61
7, 57216, Note_on_c, 5, 54, 96
7, 57404, Note_off_c, 5, 54, 61
7, 57408, Note_on_c, 5, 50, 96
7, 57596, Note_off_c, 5, 50, 61
7, 57600, Note_on_c, 5, 54, 96
7, 57788, Note_off_c, 5, 54, 61
7, 57792, Note_on_c, 5, 59, 96
7, 57980, Note_off_c, 5, 59, 61
7, 57984, Note_on_c, 5, 59, 96
7, 58172, Note_off_c, 5, 59, 61
7, 58176, Note_on_c, 5, 59, 96
7, 58364, Note_off_c, 5, 59, 61
7, 58368, Note_on_c, 5, 57, 96
7, 58556, Note_off_c, 5, 57, 61
7, 58560, Note_on_c, 5, 57, 96
7, 58748, Note_off_c, 5, 57, 61
7, 58752, Note_on_c, 5, 57, 96
7, 58940, Note_off_c, 5, 57, 61
7, 58944, Note_on_c, 5, 56, 96
7, 59132, Note_off_c, 5, 56, 61
7, 59136, Note_on_c, 5, 56, 96
7, 59324, Note_off_c, 5, 56, 61
7, 59328, Note_on_c, 5, 56, 96
7, 59516, Note_off_c, 5, 56, 61
7, 59520, Note_on_c, 5, 53, 96
7, 59708, Note_off_c, 5, 53, 61
7, 59712, Note_on_c, 5, 53, 96
7, 59900, Note_off_c, 5, 53, 61
7, 59904, Note_on_c, 5, 53, 96
7, 60092, Note_off_c, 5, 53, 61
7, 60096, Note_on_c, 5, 57, 96
7, 60286, Note_off_c, 5, 57, 61
7, 60288, Note_on_c, 5, 56, 96
7, 60478, Note_off_c, 5, 56, 61
7, 60480, Note_on_c, 5, 54, 96
7, 60670, Note_off_c, 5, 54, 61
7, 60672, Note_on_c, 5, 61, 96
7, 60862, Note_off_c, 5, 61, 61
7, 60864, Note_on_c, 5, 61, 96
7, 61054, Note_off_c, 5, 61, 61
7, 61056, Note_on_c, 5, 49, 96
7, 61246, Note_off_c, 5, 49, 61
7, 61248, Note_on_c, 5, 54, 96
7, 61438, Note_off_c, 5, 54, 61
7, 61440, Note_on_c, 5, 57, 96
7, 61630, Note_off_c, 5, 57, 61
7, 61632, Note_on_c, 5, 49, 96
7, 61822, Note_off_c, 5, 49, 61
7, 61824, Note_on_c, 5, 54, 96
7, 62014, Note_off_c, 5, 54, 61
7, 62016, Note_on_c, 5, 45, 96
7, 62206, Note_off_c, 5, 45, 61
7, 62208, Note_on_c, 5, 49, 96
7, 62398, Note_off_c, 5, 49, 61
7, 62400, Note_on_c, 5, 42, 96
7, 62782, Note_off_c, 5, 42, 61
7, 63552, Note_on_c, 5, 47, 96
7, 63742, Note_off_c, 5, 47, 61
7, 63744, Note_on_c, 5, 47, 96
7, 63934, Note_off_c, 5, 47, 61
7, 63936, Note_on_c, 5, 47, 96
7, 64126, Note_off_c, 5, 47, 61
7, 64128, Note_on_c, 5, 47, 96
7, 64318, Note_off_c, 5, 47, 61
7, 64320, Note_on_c, 5, 47, 96
7, 64510, Note_off_c, 5, 47, 61
7, 64512, Note_on_c, 5, 47, 96
7, 64702, Note_off_c, 5, 47, 61
7, 64704, Note_on_c, 5, 40, 96
7, 65086, Note_off_c, 5, 40, 61
7, 65856, Note_on_c, 5, 42, 96
7, 66046, Note_off_c, 5, 42, 61
7, 66048, Note_on_c, 5, 42, 96
7, 66238, Note_off_c, 5, 42, 61
7, 66240, Note_on_c, 5, 42, 96
7, 66430, Note_off_c, 5, 42, 61
7, 66432, Note_on_c, 5, 42, 96
7, 66622, Note_off_c, 5, 42, 61
7, 66624, Note_on_c, 5, 42, 96
7, 66814, Note_off_c, 5, 42, 61
7, 66816, Note_on_c, 5, 42, 96
7, 67006, Note_off_c, 5, 42, 61
7, 67008, Note_on_c, 5, 47, 96
7, 67390, Note_off_c, 5, 47, 61
7, 68160, Note_on_c, 5, 49, 96
7, 68350, Note_off_c, 5, 49, 61
7, 68352, Note_on_c, 5, 49, 96
7, 68542, Note_off_c, 5, 49, 61
7, 68544, Note_on_c, 5, 49, 96
7, 68734, Note_off_c, 5, 49, 61
7, 68736, Note_on_c, 5, 49, 96
7, 68926, Note_off_c, 5, 49, 61
7, 68928, Note_on_c, 5, 49, 96
7, 69118, Note_off_c, 5, 49, 61
7, 69120, Note_on_c, 5, 49, 96
7, 69310, Note_off_c, 5, 49, 61
7, 69312, Note_on_c, 5, 42, 96
7, 69502, Note_off_c, 5, 42, 61
7, 69504, Note_on_c, 5, 42, 96
7, 69694, Note_off_c, 5, 42, 61
7, 69696, Note_on_c, 5, 42, 96
7, 69886, Note_off_c, 5, 42, 61
7, 69888, Note_on_c, 5, 42, 96
7, 70078, Note_off_c, 5, 42, 61
7, 70080, Note_on_c, 5, 42, 96
7, 70270, Note_off_c, 5, 42, 61
7, 70272, Note_on_c, 5, 42, 96
7, 70462, Note_off_c, 5, 42, 61
7, 70464, Note_on_c, 5, 42, 96
7, 70654, Note_off_c, 5, 42, 61
7, 70656, Note_on_c, 5, 42, 96
7, 70846, Note_off_c, 5, 42, 61
7, 70848, Note_on_c, 5, 42, 96
7, 71038, Note_off_c, 5, 42, 61
7, 71040, Note_on_c, 5, 54, 96
7, 71230, Note_off_c, 5, 54, 61
7, 71232, Note_on_c, 5, 51, 96
7, 71422, Note_off_c, 5, 51, 61
7, 71424, Note_on_c, 5, 48, 96
7, 71614, Note_off_c, 5, 48, 61
7, 71616, Note_on_c, 5, 52, 96
7, 71806, Note_off_c, 5, 52, 61
7, 71808, Note_on_c, 5, 52, 96
7, 71998, Note_off_c, 5, 52, 61
7, 72000, Note_on_c, 5, 52, 96
7, 72190, Note_off_c, 5, 52, 61
7, 72192, Note_on_c, 5, 57, 96
7, 72382, Note_off_c, 5, 57, 61
7, 72384, Note_on_c, 5, 57, 96
7, 72574, Note_off_c, 5, 57, 61
7, 72576, Note_on_c, 5, 57, 96
7, 72766, Note_off_c, 5, 57, 61
7, 72768, Note_on_c, 5, 54, 96
7, 72958, Note_off_c, 5, 54, 61
7, 72960, Note_on_c, 5, 54, 96
7, 73150, Note_off_c, 5, 54, 61
7, 73152, Note_on_c, 5, 54, 96
7, 73342, Note_off_c, 5, 54, 61
7, 73344, Note_on_c, 5, 52, 96
7, 73534, Note_off_c, 5, 52, 61
7, 73536, Note_on_c, 5, 52, 96
7, 73726, Note_off_c, 5, 52, 61
7, 73728, Note_on_c, 5, 52, 96
7, 73918, Note_off_c, 5, 52, 61
7, 73920, Note_on_c, 5, 51, 96
7, 74110, Note_off_c, 5, 51, 61
7, 74112, Note_on_c, 5, 52, 96
7, 74302, Note_off_c, 5, 52, 61
7, 74304, Note_on_c, 5, 54, 96
7, 74494, Note_off_c, 5, 54, 61
7, 74496, Note_on_c, 5, 52, 96
7, 74686, Note_off_c, 5, 52, 61
7, 74688, Note_on_c, 5, 54, 96
7, 74878, Note_off_c, 5, 54, 61
7, 74880, Note_on_c, 5, 56, 96
7, 75070, Note_off_c, 5, 56, 61
7, 75072, Note_on_c, 5, 49, 96
7, 75262, Note_off_c, 5, 49, 61
7, 75264, Note_on_c, 5, 49, 96
7, 75454, Note_off_c, 5, 49, 61
7, 75456, Note_on_c, 5, 49, 96
7, 75646, Note_off_c, 5, 49, 61
7, 75648, Note_on_c, 5, 53, 96
7, 75838, Note_off_c, 5, 53, 61
7, 75840, Note_on_c, 5, 53, 96
7, 76030, Note_off_c, 5, 53, 61
7, 76032, Note_on_c, 5, 53, 96
7, 76222, Note_off_c, 5, 53, 61
7, 76224, Note_on_c, 5, 54, 96
7, 76414, Note_off_c, 5, 54, 61
7, 76416, Note_on_c, 5, 54, 96
7, 76606, Note_off_c, 5, 54, 61
7, 76608, Note_on_c, 5, 54, 96
7, 76798, Note_off_c, 5, 54, 61
7, 76800, Note_on_c, 5, 49, 96
7, 76990, Note_off_c, 5, 49, 61
7, 76992, Note_on_c, 5, 49, 96
7, 77182, Note_off_c, 5, 49, 61
7, 77184, Note_on_c, 5, 49, 96
7, 77374, Note_off_c, 5, 49, 61
7, 77376, Note_on_c, 5, 50, 96
7, 77566, Note_off_c, 5, 50, 61
7, 77568, Note_on_c, 5, 50, 96
7, 77758, Note_off_c, 5, 50, 61
7, 77760, Note_on_c, 5, 50, 96
7, 77950, Note_off_c, 5, 50, 61
7, 77952, Note_on_c, 5, 46, 96
7, 78142, Note_off_c, 5, 46, 61
7, 78144, Note_on_c, 5, 46, 96
7, 78334, Note_off_c, 5, 46, 61
7, 78336, Note_on_c, 5, 46, 96
7, 78526, Note_off_c, 5, 46, 61
7, 78528, Note_on_c, 5, 47, 96
7, 78718, Note_off_c, 5, 47, 61
7, 78720, Note_on_c, 5, 47, 96
7, 78910, Note_off_c, 5, 47, 61
7, 78912, Note_on_c, 5, 47, 96
7, 79102, Note_off_c, 5, 47, 61
7, 79104, Note_on_c, 5, 42, 96
7, 79294, Note_off_c, 5, 42, 61
7, 79296, Note_on_c, 5, 42, 96
7, 79486, Note_off_c, 5, 42, 61
7, 79488, Note_on_c, 5, 42, 96
7, 79678, Note_off_c, 5, 42, 61
7, 79680, Note_on_c, 5, 43, 96
7, 79870, Note_off_c, 5, 43, 61
7, 79872, Note_on_c, 5, 43, 96
7, 80062, Note_off_c, 5, 43, 61
7, 80064, Note_on_c, 5, 43, 96
7, 80254, Note_off_c, 5, 43, 61
7, 80256, Note_on_c, 5, 47, 96
7, 80446, Note_off_c, 5, 47, 61
7, 80448, Note_on_c, 5, 47, 96
7, 80638, Note_off_c, 5, 47, 61
7, 80640, Note_on_c, 5, 47, 96
7, 80830, Note_off_c, 5, 47, 61
7, 80832, Note_on_c, 5, 52, 96
7, 81022, Note_off_c, 5, 52, 61
7, 81024, Note_on_c, 5, 52, 96
7, 81214, Note_off_c, 5, 52, 61
7, 81216, Note_on_c, 5, 52, 96
7, 81406, Note_off_c, 5, 52, 61
7, 81408, Note_on_c, 5, 50, 96
7, 81598, Note_off_c, 5, 50, 61
7, 81600, Note_on_c, 5, 50, 96
7, 81790, Note_off_c, 5, 50, 61
7, 81792, Note_on_c, 5, 50, 96
7, 81982, Note_off_c, 5, 50, 61
7, 81984, Note_on_c, 5, 49, 96
7, 82174, Note_off_c, 5, 49, 61
7, 82176, Note_on_c, 5, 49, 96
7, 82366, Note_off_c, 5, 49, 61
7, 82368, Note_on_c, 5, 49, 96
7, 82558, Note_off_c, 5, 49, 61
7, 82560, Note_on_c, 5, 46, 96
7, 82750, Note_off_c, 5, 46, 61
7, 82752, Note_on_c, 5, 46, 96
7, 82942, Note_off_c, 5, 46, 61
7, 82944, Note_on_c, 5, 46, 96
7, 83134, Note_off_c, 5, 46, 61
7, 83136, Note_on_c, 5, 47, 96
7, 83326, Note_off_c, 5, 47, 61
7, 83328, Note_on_c, 5, 47, 96
7, 83518, Note_off_c, 5, 47, 61
7, 83520, Note_on_c, 5, 47, 96
7, 83710, Note_off_c, 5, 47, 61
7, 83712, Note_on_c, 5, 43, 96
7, 83902, Note_off_c, 5, 43, 61
7, 83904, Note_on_c, 5, 43, 96
7, 84094, Note_off_c, 5, 43, 61
7, 84096, Note_on_c, 5, 43, 96
7, 84286, Note_off_c, 5, 43, 61
7, 84288, Note_on_c, 5, 42, 96
7, 84670, Note_off_c, 5, 42, 61
7, 85440, Note_on_c, 5, 47, 96
7, 85822, Note_off_c, 5, 47, 61
7, 86592, Note_on_c, 5, 52, 96
7, 86974, Note_off_c, 5, 52, 61
7, 87744, Note_on_c, 5, 54, 96
7, 88126, Note_off_c, 5, 54, 61
7, 88896, Note_on_c, 5, 47, 96
7, 89278, Note_off_c, 5, 47, 61
7, 90048, Note_on_c, 5, 59, 96
7, 90238, Note_off_c, 5, 59, 61
7, 90240, Note_on_c, 5, 59, 96
7, 90430, Note_off_c, 5, 59, 61
7, 90432, Note_on_c, 5, 59, 96
7, 90622, Note_off_c, 5, 59, 61
7, 90624, Note_on_c, 5, 57, 96
7, 90814, Note_off_c, 5, 57, 61
7, 90816, Note_on_c, 5, 57, 96
7, 91006, Note_off_c, 5, 57, 61
7, 91008, Note_on_c, 5, 57, 96
7, 91198, Note_off_c, 5, 57, 61
7, 91200, Note_on_c, 5, 55, 96
7, 91390, Note_off_c, 5, 55, 61
7, 91392, Note_on_c, 5, 55, 96
7, 91582, Note_off_c, 5, 55, 61
7, 91584, Note_on_c, 5, 55, 96
7, 91774, Note_off_c, 5, 55, 61
7, 91776, Note_on_c, 5, 54, 96
7, 91966, Note_off_c, 5, 54, 61
7, 91968, Note_on_c, 5, 54, 96
7, 92158, Note_off_c, 5, 54, 61
7, 92160, Note_on_c, 5, 54, 96
7, 92350, Note_off_c, 5, 54, 61
7, 92352, Note_on_c, 5, 52, 96
7, 92542, Note_off_c, 5, 52, 61
7, 92544, Note_on_c, 5, 52, 96
7, 92734, Note_off_c, 5, 52, 61
7, 92736, Note_on_c, 5, 52, 96
7, 92926, Note_off_c, 5, 52, 61
7, 92928, Note_on_c, 5, 54, 96
7, 93118, Note_off_c, 5, 54, 61
7, 93120, Note_on_c, 5, 54, 96
7, 93310, Note_off_c, 5, 54, 61
7, 93312, Note_on_c, 5, 54, 96
7, 93502, Note_off_c, 5, 54, 61
7, 93504, Note_on_c, 5, 55, 96
7, 93694, Note_off_c, 5, 55, 61
7, 93696, Note_on_c, 5, 52, 96
7, 93886, Note_off_c, 5, 52, 61
7, 93888, Note_on_c, 5, 55, 96
7, 94078, Note_off_c, 5, 55, 61
7, 94080, Note_on_c, 5, 59, 96
7, 94270, Note_off_c, 5, 59, 61
7, 94272, Note_on_c, 5, 55, 96
7, 94462, Note_off_c, 5, 55, 61
7, 94464, Note_on_c, 5, 59, 96
7, 94654, Note_off_c, 5, 59, 61
7, 94656, Note_on_c, 5, 64, 96
7, 94846, Note_off_c, 5, 64, 61
7, 94848, Note_on_c, 5, 64, 96
7, 95038, Note_off_c, 5, 64, 61
7, 95040, Note_on_c, 5, 64, 96
7, 95230, Note_off_c, 5, 64, 61
7, 95232, Note_on_c, 5, 62, 96
7, 95422, Note_off_c, 5, 62, 61
7, 95424, Note_on_c, 5, 62, 96
7, 95614, Note_off_c, 5, 62, 61
7, 95616, Note_on_c, 5, 62, 96
7, 95806, Note_off_c, 5, 62, 61
7, 95808, Note_on_c, 5, 61, 96
7, 95998, Note_off_c, 5, 61, 61
7, 96000, Note_on_c, 5, 61, 96
7, 96190, Note_off_c, 5, 61, 61
7, 96192, Note_on_c, 5, 61, 96
7, 96382, Note_off_c, 5, 61, 61
7, 96384, Note_on_c, 5, 58, 96
7, 96574, Note_off_c, 5, 58, 61
7, 96576, Note_on_c, 5, 58, 96
7, 96766, Note_off_c, 5, 58, 61
7, 96768, Note_on_c, 5, 58, 96
7, 96958, Note_off_c, 5, 58, 61
7, 96960, Note_on_c, 5, 59, 96
7, 97150, Note_off_c, 5, 59, 61
7, 97152, Note_on_c, 5, 59, 96
7, 97342, Note_off_c, 5, 59, 61
7, 97344, Note_on_c, 5, 59, 96
7, 97534, Note_off_c, 5, 59, 61
7, 97536, Note_on_c, 5, 55, 96
7, 97726, Note_off_c, 5, 55, 61
7, 97728, Note_on_c, 5, 55, 96
7, 97918, Note_off_c, 5, 55, 61
7, 97920, Note_on_c, 5, 55, 96
7, 98110, Note_off_c, 5, 55, 61
7, 98112, Note_on_c, 5, 54, 96
7, 98302, Note_off_c, 5, 54, 61
7, 98304, Note_on_c, 5, 49, 96
7, 98494, Note_off_c, 5, 49, 61
7, 98496, Note_on_c, 5, 52, 96
7, 98686, Note_off_c, 5, 52, 61
7, 98688, Note_on_c, 5, 52, 96
7, 98878, Note_off_c, 5, 52, 61
7, 98880, Note_on_c, 5, 46, 96
7, 99070, Note_off_c, 5, 46, 61
7, 99072, Note_on_c, 5, 49, 96
7, 99262, Note_off_c, 5, 49, 61
7, 100416, Note_on_c, 5, 42, 96
7, 100606, Note_off_c, 5, 42, 61
7, 100608, Note_on_c, 5, 42, 96
7, 100798, Note_off_c, 5, 42, 61
7, 100800, Note_on_c, 5, 42, 96
7, 100990, Note_off_c, 5, 42, 61
7, 100992, Note_on_c, 5, 42, 96
7, 101182, Note_off_c, 5, 42, 61
7, 101184, Note_on_c, 5, 42, 96
7, 101374, Note_off_c, 5, 42, 61
7, 101376, Note_on_c, 5, 42, 96
7, 101566, Note_off_c, 5, 42, 61
7, 101568, Note_on_c, 5, 47, 96
7, 101950, Note_off_c, 5, 47, 61
7, 102720, Note_on_c, 5, 47, 96
7, 102910, Note_off_c, 5, 47, 61
7, 102912, Note_on_c, 5, 47, 96
7, 103102, Note_off_c, 5, 47, 61
7, 103104, Note_on_c, 5, 47, 96
7, 103294, Note_off_c, 5, 47, 61
7, 103296, Note_on_c, 5, 47, 96
7, 103486, Note_off_c, 5, 47, 61
7, 103488, Note_on_c, 5, 47, 96
7, 103678, Note_off_c, 5, 47, 61
7, 103680, Note_on_c, 5, 47, 96
7, 103870, Note_off_c, 5, 47, 61
7, 103872, Note_on_c, 5, 40, 96
7, 104062, Note_off_c, 5, 40, 61
7, 104064, Note_on_c, 5, 40, 96
7, 104254, Note_off_c, 5, 40, 61
7, 104256, Note_on_c, 5, 40, 96
7, 104446, Note_off_c, 5, 40, 61
7, 104448, Note_on_c, 5, 40, 96
7, 104638, Note_off_c, 5, 40, 61
7, 104640, Note_on_c, 5, 40, 96
7, 104830, Note_off_c, 5, 40, 61
7, 104832, Note_on_c, 5, 40, 96
7, 105022, Note_off_c, 5, 40, 61
7, 105024, Note_on_c, 5, 40, 96
7, 105214, Note_off_c, 5, 40, 61
7, 105216, Note_on_c, 5, 40, 96
7, 105406, Note_off_c, 5, 40, 61
7, 105408, Note_on_c, 5, 40, 96
7, 105598, Note_off_c, 5, 40, 61
7, 105600, Note_on_c, 5, 40, 96
7, 105790, Note_off_c, 5, 40, 61
7, 105792, Note_on_c, 5, 40, 96
7, 105982, Note_off_c, 5, 40, 61
7, 105984, Note_on_c, 5, 52, 96
7, 106174, Note_off_c, 5, 52, 61
7, 106176, Note_on_c, 5, 50, 96
7, 106366, Note_off_c, 5, 50, 61
7, 106368, Note_on_c, 5, 49, 96
7, 106558, Note_off_c, 5, 49, 61
7, 106560, Note_on_c, 5, 47, 96
7, 106750, Note_off_c, 5, 47, 61
7, 106752, Note_on_c, 5, 54, 96
7, 106942, Note_off_c, 5, 54, 61
7, 106944, Note_on_c, 5, 54, 96
7, 107134, Note_off_c, 5, 54, 61
7, 107136, Note_on_c, 5, 42, 96
7, 107326, Note_off_c, 5, 42, 61
7, 107328, Note_on_c, 5, 47, 96
7, 107518, Note_off_c, 5, 47, 61
7, 107520, Note_on_c, 5, 38, 96
7, 107710, Note_off_c, 5, 38, 61
7, 107712, Note_on_c, 5, 42, 96
7, 107902, Note_off_c, 5, 42, 61
7, 107904, Note_on_c, 5, 47, 96
7, 108094, Note_off_c, 5, 47, 61
7, 108096, Note_on_c, 5, 50, 96
7, 108286, Note_off_c, 5, 50, 61
7, 108288, Note_on_c, 5, 54, 96
7, 108478, Note_off_c, 5, 54, 61
7, 108480, Note_on_c, 5, 59, 96
7, 108670, Note_off_c, 5, 59, 61
7, 108672, Note_on_c, 5, 59, 96
7, 108862, Note_off_c, 5, 59, 61
7, 108864, Note_on_c, 5, 59, 96
7, 109054, Note_off_c, 5, 59, 61
7, 109056, Note_on_c, 5, 57, 96
7, 109246, Note_off_c, 5, 57, 61
7, 109248, Note_on_c, 5, 57, 96
7, 109438, Note_off_c, 5, 57, 61
7, 109440, Note_on_c, 5, 57, 96
7, 109630, Note_off_c, 5, 57, 61
7, 109632, Note_on_c, 5, 55, 96
7, 109822, Note_off_c, 5, 55, 61
7, 109824, Note_on_c, 5, 55, 96
7, 110014, Note_off_c, 5, 55, 61
7, 110016, Note_on_c, 5, 55, 96
7, 110206, Note_off_c, 5, 55, 61
7, 110208, Note_on_c, 5, 54, 96
7, 110398, Note_off_c, 5, 54, 61
7, 110400, Note_on_c, 5, 54, 96
7, 110590, Note_off_c, 5, 54, 61
7, 110592, Note_on_c, 5, 54, 96
7, 110782, Note_off_c, 5, 54, 61
7, 110784, Note_on_c, 5, 52, 96
7, 110974, Note_off_c, 5, 52, 61
7, 110976, Note_on_c, 5, 52, 96
7, 111166, Note_off_c, 5, 52, 61
7, 111168, Note_on_c, 5, 52, 96
7, 111358, Note_off_c, 5, 52, 61
7, 111360, Note_on_c, 5, 54, 96
7, 111550, Note_off_c, 5, 54, 61
7, 111552, Note_on_c, 5, 54, 96
7, 111742, Note_off_c, 5, 54, 61
7, 111744, Note_on_c, 5, 54, 96
7, 111934, Note_off_c, 5, 54, 61
7, 111936, Note_on_c, 5, 55, 96
7, 112126, Note_off_c, 5, 55, 61
7, 112128, Note_on_c, 5, 52, 96
7, 112318, Note_off_c, 5, 52, 61
7, 112320, Note_on_c, 5, 55, 96
7, 112510, Note_off_c, 5, 55, 61
7, 112512, Note_on_c, 5, 59, 96
7, 112702, Note_off_c, 5, 59, 61
7, 112704, Note_on_c, 5, 55, 96
7, 112894, Note_off_c, 5, 55, 61
7, 112896, Note_on_c, 5, 59, 96
7, 113086, Note_off_c, 5, 59, 61
7, 113088, Note_on_c, 5, 64, 96
7, 113278, Note_off_c, 5, 64, 61
7, 113280, Note_on_c, 5, 64, 96
7, 113470, Note_off_c, 5, 64, 61
7, 113472, Note_on_c, 5, 64, 96
7, 113662, Note_off_c, 5, 64, 61
7, 113664, Note_on_c, 5, 62, 96
7, 113854, Note_off_c, 5, 62, 61
7, 113856, Note_on_c, 5, 62, 96
7, 114046, Note_off_c, 5, 62, 61
7, 114048, Note_on_c, 5, 62, 96
7, 114238, Note_off_c, 5, 62, 61
7, 114240, Note_on_c, 5, 61, 96
7, 114430, Note_off_c, 5, 61, 61
7, 114432, Note_on_c, 5, 61, 96
7, 114622, Note_off_c, 5, 61, 61
7, 114624, Note_on_c, 5, 61, 96
7, 114814, Note_off_c, 5, 61, 61
7, 114816, Note_on_c, 5, 58, 96
7, 115006, Note_off_c, 5, 58, 61
7, 115008, Note_on_c, 5, 58, 96
7, 115198, Note_off_c, 5, 58, 61
7, 115200, Note_on_c, 5, 58, 96
7, 115390, Note_off_c, 5, 58, 61
7, 115392, Note_on_c, 5, 59, 96
7, 115582, Note_off_c, 5, 59, 61
7, 115584, Note_on_c, 5, 59, 96
7, 115774, Note_off_c, 5, 59, 61
7, 115776, Note_on_c, 5, 59, 96
7, 115966, Note_off_c, 5, 59, 61
7, 115968, Note_on_c, 5, 55, 96
7, 116158, Note_off_c, 5, 55, 61
7, 116160, Note_on_c, 5, 55, 96
7, 116350, Note_off_c, 5, 55, 61
7, 116352, Note_on_c, 5, 55, 96
7, 116542, Note_off_c, 5, 55, 61
7, 116544, Note_on_c, 5, 54, 96
7, 116734, Note_off_c, 5, 54, 61
7, 116736, Note_on_c, 5, 49, 96
7, 116926, Note_off_c, 5, 49, 61
7, 116928, Note_on_c, 5, 52, 96
7, 117118, Note_off_c, 5, 52, 61
7, 117120, Note_on_c, 5, 52, 96
7, 117310, Note_off_c, 5, 52, 61
7, 117312, Note_on_c, 5, 46, 96
7, 117502, Note_off_c, 5, 46, 61
7, 117504, Note_on_c, 5, 49, 96
7, 117694, Note_off_c, 5, 49, 61
7, 117696, Note_on_c, 5, 42, 96
7, 118078, Note_off_c, 5, 42, 61
7, 118848, Note_on_c, 5, 42, 96
7, 119038, Note_off_c, 5, 42, 61
7, 119040, Note_on_c, 5, 42, 96
7, 119230, Note_off_c, 5, 42, 61
7, 119232, Note_on_c, 5, 42, 96
7, 119422, Note_off_c, 5, 42, 61
7, 119424, Note_on_c, 5, 42, 96
7, 119614, Note_off_c, 5, 42, 61
7, 119616, Note_on_c, 5, 42, 96
7, 119806, Note_off_c, 5, 42, 61
7, 119808, Note_on_c, 5, 42, 96
7, 119998, Note_off_c, 5, 42, 61
7, 120000, Note_on_c, 5, 47, 96
7, 120382, Note_off_c, 5, 47, 61
7, 121152, Note_on_c, 5, 47, 96
7, 121342, Note_off_c, 5, 47, 61
7, 121344, Note_on_c, 5, 47, 96
7, 121534, Note_off_c, 5, 47, 61
7, 121536, Note_on_c, 5, 47, 96
7, 121726, Note_off_c, 5, 47, 61
7, 121728, Note_on_c, 5, 47, 96
7, 121918, Note_off_c, 5, 47, 61
7, 121920, Note_on_c, 5, 47, 96
7, 122110, Note_off_c, 5, 47, 61
7, 122112, Note_on_c, 5, 47, 96
7, 122302, Note_off_c, 5, 47, 61
7, 122304, Note_on_c, 5, 40, 96
7, 122494, Note_off_c, 5, 40, 61
7, 122496, Note_on_c, 5, 40, 96
7, 122686, Note_off_c, 5, 40, 61
7, 122688, Note_on_c, 5, 40, 96
7, 122878, Note_off_c, 5, 40, 61
7, 122880, Note_on_c, 5, 40, 96
7, 123070, Note_off_c, 5, 40, 61
7, 123072, Note_on_c, 5, 40, 96
7, 123262, Note_off_c, 5, 40, 61
7, 123264, Note_on_c, 5, 40, 96
7, 123454, Note_off_c, 5, 40, 61
7, 123456, Note_on_c, 5, 40, 96
7, 123646, Note_off_c, 5, 40, 61
7, 123648, Note_on_c, 5, 40, 96
7, 123838, Note_off_c, 5, 40, 61
7, 123840, Note_on_c, 5, 40, 96
7, 124030, Note_off_c, 5, 40, 61
7, 124032, Note_on_c, 5, 40, 96
7, 124222, Note_off_c, 5, 40, 61
7, 124224, Note_on_c, 5, 40, 96
7, 124414, Note_off_c, 5, 40, 61
7, 124416, Note_on_c, 5, 52, 96
7, 124606, Note_off_c, 5, 52, 61
7, 124608, Note_on_c, 5, 50, 96
7, 124798, Note_off_c, 5, 50, 61
7, 124800, Note_on_c, 5, 49, 96
7, 124990, Note_off_c, 5, 49, 61
7, 124992, Note_on_c, 5, 47, 96
7, 125182, Note_off_c, 5, 47, 61
7, 125184, Note_on_c, 5, 54, 96
7, 125374, Note_off_c, 5, 54, 61
7, 125376, Note_on_c, 5, 42, 96
7, 125566, Note_off_c, 5, 42, 61
7, 125568, Note_on_c, 5, 42, 96
7, 125758, Note_off_c, 5, 42, 61
7, 125760, Note_on_c, 5, 47, 96
7, 126718, Note_off_c, 5, 47, 61
7, 126720, Note_on_c, 5, 47, 96
7, 126910, Note_off_c, 5, 47, 61
7, 126912, Note_on_c, 5, 47, 96
7, 126912, Note_on_c, 5, 35, 96
7, 128060, Note_off_c, 5, 47, 61
7, 128060, Note_off_c, 5, 35, 61
7, 128060, End_track
8, 0, Start_track
8, 0, Title_t, "Double Bass"
8, 0, Control_c, 6, 0, 0
8, 0, Program_c, 6, 43
8, 0, Control_c, 6, 10, 63
8, 0, Key_signature, 0, "major"
8, 0, Control_c, 6, 7, 127
8, 0, Note_on_c, 6, 35, 96
8, 190, Note_off_c, 6, 35, 61
8, 192, Note_on_c, 6, 47, 96
8, 382, Note_off_c, 6, 47, 61
8, 384, Note_on_c, 6, 47, 96
8, 574, Note_off_c, 6, 47, 61
8, 576, Note_on_c, 6, 47, 96
8, 766, Note_off_c, 6, 47, 61
8, 768, Note_on_c, 6, 45, 96
8, 958, Note_off_c, 6, 45, 61
8, 960, Note_on_c, 6, 45, 96
8, 1150, Note_off_c, 6, 45, 61
8, 1152, Note_on_c, 6, 45, 96
8, 1342, Note_off_c, 6, 45, 61
8, 1344, Note_on_c, 6, 43, 96
8, 1534, Note_off_c, 6, 43, 61
8, 1536, Note_on_c, 6, 43, 96
8, 1726, Note_off_c, 6, 43, 61
8, 1728, Note_on_c, 6, 43, 96
8, 1918, Note_off_c, 6, 43, 61
8, 1920, Note_on_c, 6, 42, 96
8, 2110, Note_off_c, 6, 42, 61
8, 2112, Note_on_c, 6, 42, 96
8, 2302, Note_off_c, 6, 42, 61
8, 2304, Note_on_c, 6, 42, 96
8, 2494, Note_off_c, 6, 42, 61
8, 2496, Note_on_c, 6, 40, 96
8, 2686, Note_off_c, 6, 40, 61
8, 2688, Note_on_c, 6, 40, 96
8, 2878, Note_off_c, 6, 40, 61
8, 2880, Note_on_c, 6, 40, 96
8, 3070, Note_off_c, 6, 40, 61
8, 3072, Note_on_c, 6, 42, 96
8, 3262, Note_off_c, 6, 42, 61
8, 3264, Note_on_c, 6, 42, 96
8, 3454, Note_off_c, 6, 42, 61
8, 3456, Note_on_c, 6, 42, 96
8, 3646, Note_off_c, 6, 42, 61
8, 3648, Note_on_c, 6, 43, 96
8, 3838, Note_off_c, 6, 43, 61
8, 3840, Note_on_c, 6, 40, 96
8, 4030, Note_off_c, 6, 40, 61
8, 4032, Note_on_c, 6, 43, 96
8, 4222, Note_off_c, 6, 43, 61
8, 4224, Note_on_c, 6, 47, 96
8, 4414, Note_off_c, 6, 47, 61
8, 4416, Note_on_c, 6, 43, 96
8, 4606, Note_off_c, 6, 43, 61
8, 4608, Note_on_c, 6, 47, 96
8, 4798, Note_off_c, 6, 47, 61
8, 4800, Note_on_c, 6, 52, 96
8, 4990, Note_off_c, 6, 52, 61
8, 4992, Note_on_c, 6, 52, 96
8, 5182, Note_off_c, 6, 52, 61
8, 5184, Note_on_c, 6, 52, 96
8, 5374, Note_off_c, 6, 52, 61
8, 5376, Note_on_c, 6, 50, 96
8, 5566, Note_off_c, 6, 50, 61
8, 5568, Note_on_c, 6, 50, 96
8, 5758, Note_off_c, 6, 50, 61
8, 5760, Note_on_c, 6, 50, 96
8, 5950, Note_off_c, 6, 50, 61
8, 5952, Note_on_c, 6, 49, 96
8, 6142, Note_off_c, 6, 49, 61
8, 6144, Note_on_c, 6, 49, 96
8, 6334, Note_off_c, 6, 49, 61
8, 6336, Note_on_c, 6, 49, 96
8, 6526, Note_off_c, 6, 49, 61
8, 6528, Note_on_c, 6, 46, 96
8, 6718, Note_off_c, 6, 46, 61
8, 6720, Note_on_c, 6, 46, 96
8, 6910, Note_off_c, 6, 46, 61
8, 6912, Note_on_c, 6, 46, 96
8, 7102, Note_off_c, 6, 46, 61
8, 7104, Note_on_c, 6, 47, 96
8, 7294, Note_off_c, 6, 47, 61
8, 7296, Note_on_c, 6, 47, 96
8, 7486, Note_off_c, 6, 47, 61
8, 7488, Note_on_c, 6, 47, 96
8, 7678, Note_off_c, 6, 47, 61
8, 7680, Note_on_c, 6, 43, 96
8, 7870, Note_off_c, 6, 43, 61
8, 7872, Note_on_c, 6, 43, 96
8, 8062, Note_off_c, 6, 43, 61
8, 8064, Note_on_c, 6, 43, 96
8, 8254, Note_off_c, 6, 43, 61
8, 8256, Note_on_c, 6, 42, 96
8, 8446, Note_off_c, 6, 42, 61
8, 8448, Note_on_c, 6, 37, 96
8, 8638, Note_off_c, 6, 37, 61
8, 8640, Note_on_c, 6, 40, 96
8, 8830, Note_off_c, 6, 40, 61
8, 8832, Note_on_c, 6, 40, 96
8, 9022, Note_off_c, 6, 40, 61
8, 9024, Note_on_c, 6, 34, 96
8, 9214, Note_off_c, 6, 34, 61
8, 9216, Note_on_c, 6, 37, 96
8, 9406, Note_off_c, 6, 37, 61
8, 9408, Note_on_c, 6, 30, 96
8, 10172, Note_off_c, 6, 30, 61
8, 11712, Note_on_c, 6, 30, 96
8, 12092, Note_off_c, 6, 30, 61
8, 12096, Note_on_c, 6, 30, 96
8, 12476, Note_off_c, 6, 30, 61
8, 12480, Note_on_c, 6, 30, 96
8, 12860, Note_off_c, 6, 30, 61
8, 12864, Note_on_c, 6, 30, 96
8, 13244, Note_off_c, 6, 30, 61
8, 13248, Note_on_c, 6, 30, 96
8, 13628, Note_off_c, 6, 30, 61
8, 13632, Note_on_c, 6, 30, 96
8, 14012, Note_off_c, 6, 30, 61
8, 14016, Note_on_c, 6, 35, 96
8, 14398, Note_off_c, 6, 35, 61
8, 15168, Note_on_c, 6, 35, 96
8, 15358, Note_off_c, 6, 35, 61
8, 15360, Note_on_c, 6, 35, 96
8, 15550, Note_off_c, 6, 35, 61
8, 15552, Note_on_c, 6, 35, 96
8, 15742, Note_off_c, 6, 35, 61
8, 15744, Note_on_c, 6, 35, 96
8, 15934, Note_off_c, 6, 35, 61
8, 15936, Note_on_c, 6, 35, 96
8, 16126, Note_off_c, 6, 35, 61
8, 16128, Note_on_c, 6, 35, 96
8, 16318, Note_off_c, 6, 35, 61
8, 16320, Note_on_c, 6, 28, 96
8, 16510, Note_off_c, 6, 28, 61
8, 16512, Note_on_c, 6, 28, 96
8, 16702, Note_off_c, 6, 28, 61
8, 16704, Note_on_c, 6, 28, 96
8, 16894, Note_off_c, 6, 28, 61
8, 16896, Note_on_c, 6, 28, 96
8, 17086, Note_off_c, 6, 28, 61
8, 17088, Note_on_c, 6, 28, 96
8, 17278, Note_off_c, 6, 28, 61
8, 17280, Note_on_c, 6, 28, 96
8, 17470, Note_off_c, 6, 28, 61
8, 17472, Note_on_c, 6, 28, 96
8, 17662, Note_off_c, 6, 28, 61
8, 17664, Note_on_c, 6, 28, 96
8, 17854, Note_off_c, 6, 28, 61
8, 17856, Note_on_c, 6, 28, 96
8, 18046, Note_off_c, 6, 28, 61
8, 18048, Note_on_c, 6, 28, 96
8, 18238, Note_off_c, 6, 28, 61
8, 18240, Note_on_c, 6, 28, 96
8, 18430, Note_off_c, 6, 28, 61
8, 18432, Note_on_c, 6, 40, 96
8, 18622, Note_off_c, 6, 40, 61
8, 18624, Note_on_c, 6, 38, 96
8, 18814, Note_off_c, 6, 38, 61
8, 18816, Note_on_c, 6, 37, 96
8, 19006, Note_off_c, 6, 37, 61
8, 19008, Note_on_c, 6, 35, 96
8, 19198, Note_off_c, 6, 35, 61
8, 19200, Note_on_c, 6, 42, 96
8, 19390, Note_off_c, 6, 42, 61
8, 19392, Note_on_c, 6, 30, 96
8, 19582, Note_off_c, 6, 30, 61
8, 19584, Note_on_c, 6, 30, 96
8, 19774, Note_off_c, 6, 30, 61
8, 19776, Note_on_c, 6, 35, 96
8, 20734, Note_off_c, 6, 35, 61
8, 20736, Note_on_c, 6, 35, 96
8, 20926, Note_off_c, 6, 35, 61
8, 20928, Note_on_c, 6, 47, 96
8, 21116, Note_off_c, 6, 47, 61
8, 21120, Note_on_c, 6, 47, 96
8, 21308, Note_off_c, 6, 47, 61
8, 21312, Note_on_c, 6, 47, 96
8, 21500, Note_off_c, 6, 47, 61
8, 21504, Note_on_c, 6, 45, 96
8, 21692, Note_off_c, 6, 45, 61
8, 21696, Note_on_c, 6, 45, 96
8, 21884, Note_off_c, 6, 45, 61
8, 21888, Note_on_c, 6, 45, 96
8, 22076, Note_off_c, 6, 45, 61
8, 22080, Note_on_c, 6, 43, 96
8, 22268, Note_off_c, 6, 43, 61
8, 22272, Note_on_c, 6, 43, 96
8, 22460, Note_off_c, 6, 43, 61
8, 22464, Note_on_c, 6, 43, 96
8, 22652, Note_off_c, 6, 43, 61
8, 22656, Note_on_c, 6, 42, 96
8, 22844, Note_off_c, 6, 42, 61
8, 22848, Note_on_c, 6, 42, 96
8, 23036, Note_off_c, 6, 42, 61
8, 23040, Note_on_c, 6, 42, 96
8, 23228, Note_off_c, 6, 42, 61
8, 23232, Note_on_c, 6, 40, 96
8, 23420, Note_off_c, 6, 40, 61
8, 23424, Note_on_c, 6, 40, 96
8, 23612, Note_off_c, 6, 40, 61
8, 23616, Note_on_c, 6, 40, 96
8, 23804, Note_off_c, 6, 40, 61
8, 23808, Note_on_c, 6, 40, 96
8, 23996, Note_off_c, 6, 40, 61
8, 24000, Note_on_c, 6, 40, 96
8, 24188, Note_off_c, 6, 40, 61
8, 24192, Note_on_c, 6, 40, 96
8, 24380, Note_off_c, 6, 40, 61
8, 24384, Note_on_c, 6, 40, 96
8, 24572, Note_off_c, 6, 40, 61
8, 24576, Note_on_c, 6, 40, 96
8, 24764, Note_off_c, 6, 40, 61
8, 24768, Note_on_c, 6, 40, 96
8, 24956, Note_off_c, 6, 40, 61
8, 24960, Note_on_c, 6, 40, 96
8, 25148, Note_off_c, 6, 40, 61
8, 25152, Note_on_c, 6, 40, 96
8, 25340, Note_off_c, 6, 40, 61
8, 25344, Note_on_c, 6, 40, 96
8, 25532, Note_off_c, 6, 40, 61
8, 25536, Note_on_c, 6, 40, 96
8, 25724, Note_off_c, 6, 40, 61
8, 25728, Note_on_c, 6, 40, 96
8, 25916, Note_off_c, 6, 40, 61
8, 25920, Note_on_c, 6, 40, 96
8, 26108, Note_off_c, 6, 40, 61
8, 26112, Note_on_c, 6, 38, 96
8, 26300, Note_off_c, 6, 38, 61
8, 26304, Note_on_c, 6, 38, 96
8, 26492, Note_off_c, 6, 38, 61
8, 26496, Note_on_c, 6, 38, 96
8, 26684, Note_off_c, 6, 38, 61
8, 26688, Note_on_c, 6, 37, 96
8, 26876, Note_off_c, 6, 37, 61
8, 26880, Note_on_c, 6, 37, 96
8, 27068, Note_off_c, 6, 37, 61
8, 27072, Note_on_c, 6, 37, 96
8, 27260, Note_off_c, 6, 37, 61
8, 27264, Note_on_c, 6, 34, 96
8, 27452, Note_off_c, 6, 34, 61
8, 27456, Note_on_c, 6, 34, 96
8, 27644, Note_off_c, 6, 34, 61
8, 27648, Note_on_c, 6, 34, 96
8, 27836, Note_off_c, 6, 34, 61
8, 27840, Note_on_c, 6, 35, 96
8, 28028, Note_off_c, 6, 35, 61
8, 28032, Note_on_c, 6, 35, 96
8, 28220, Note_off_c, 6, 35, 61
8, 28224, Note_on_c, 6, 35, 96
8, 28412, Note_off_c, 6, 35, 61
8, 28416, Note_on_c, 6, 31, 96
8, 28604, Note_off_c, 6, 31, 61
8, 28608, Note_on_c, 6, 31, 96
8, 28796, Note_off_c, 6, 31, 61
8, 28800, Note_on_c, 6, 31, 96
8, 28988, Note_off_c, 6, 31, 61
8, 28992, Note_on_c, 6, 30, 96
8, 29372, Note_off_c, 6, 30, 61
8, 30144, Note_on_c, 6, 35, 96
8, 30524, Note_off_c, 6, 35, 61
8, 31296, Note_on_c, 6, 40, 96
8, 31676, Note_off_c, 6, 40, 61
8, 32448, Note_on_c, 6, 37, 96
8, 32828, Note_off_c, 6, 37, 61
8, 33600, Note_on_c, 6, 42, 96
8, 33980, Note_off_c, 6, 42, 61
8, 34752, Note_on_c, 6, 42, 96
8, 34940, Note_off_c, 6, 42, 61
8, 34944, Note_on_c, 6, 42, 96
8, 35132, Note_off_c, 6, 42, 61
8, 35136, Note_on_c, 6, 42, 96
8, 35324, Note_off_c, 6, 42, 61
8, 35328, Note_on_c, 6, 40, 96
8, 35516, Note_off_c, 6, 40, 61
8, 35520, Note_on_c, 6, 40, 96
8, 35708, Note_off_c, 6, 40, 61
8, 35712, Note_on_c, 6, 40, 96
8, 35900, Note_off_c, 6, 40, 61
8, 35904, Note_on_c, 6, 38, 96
8, 36092, Note_off_c, 6, 38, 61
8, 36096, Note_on_c, 6, 38, 96
8, 36284, Note_off_c, 6, 38, 61
8, 36288, Note_on_c, 6, 38, 96
8, 36476, Note_off_c, 6, 38, 61
8, 36480, Note_on_c, 6, 37, 96
8, 36668, Note_off_c, 6, 37, 61
8, 36672, Note_on_c, 6, 37, 96
8, 36860, Note_off_c, 6, 37, 61
8, 36864, Note_on_c, 6, 37, 96
8, 37052, Note_off_c, 6, 37, 61
8, 37056, Note_on_c, 6, 35, 96
8, 37244, Note_off_c, 6, 35, 61
8, 37248, Note_on_c, 6, 35, 96
8, 37436, Note_off_c, 6, 35, 61
8, 37440, Note_on_c, 6, 35, 96
8, 37628, Note_off_c, 6, 35, 61
8, 37632, Note_on_c, 6, 37, 96
8, 37820, Note_off_c, 6, 37, 61
8, 37824, Note_on_c, 6, 37, 96
8, 38012, Note_off_c, 6, 37, 61
8, 38016, Note_on_c, 6, 37, 96
8, 38204, Note_off_c, 6, 37, 61
8, 38208, Note_on_c, 6, 38, 96
8, 38396, Note_off_c, 6, 38, 61
8, 38400, Note_on_c, 6, 35, 96
8, 38588, Note_off_c, 6, 35, 61
8, 38592, Note_on_c, 6, 38, 96
8, 38780, Note_off_c, 6, 38, 61
8, 38784, Note_on_c, 6, 42, 96
8, 38972, Note_off_c, 6, 42, 61
8, 38976, Note_on_c, 6, 38, 96
8, 39164, Note_off_c, 6, 38, 61
8, 39168, Note_on_c, 6, 42, 96
8, 39356, Note_off_c, 6, 42, 61
8, 39360, Note_on_c, 6, 47, 96
8, 39548, Note_off_c, 6, 47, 61
8, 39552, Note_on_c, 6, 47, 96
8, 39740, Note_off_c, 6, 47, 61
8, 39744, Note_on_c, 6, 47, 96
8, 39932, Note_off_c, 6, 47, 61
8, 39936, Note_on_c, 6, 45, 96
8, 40124, Note_off_c, 6, 45, 61
8, 40128, Note_on_c, 6, 45, 96
8, 40316, Note_off_c, 6, 45, 61
8, 40320, Note_on_c, 6, 45, 96
8, 40508, Note_off_c, 6, 45, 61
8, 40512, Note_on_c, 6, 44, 96
8, 40700, Note_off_c, 6, 44, 61
8, 40704, Note_on_c, 6, 44, 96
8, 40892, Note_off_c, 6, 44, 61
8, 40896, Note_on_c, 6, 44, 96
8, 41084, Note_off_c, 6, 44, 61
8, 41088, Note_on_c, 6, 41, 96
8, 41276, Note_off_c, 6, 41, 61
8, 41280, Note_on_c, 6, 41, 96
8, 41468, Note_off_c, 6, 41, 61
8, 41472, Note_on_c, 6, 41, 96
8, 41660, Note_off_c, 6, 41, 61
8, 41664, Note_on_c, 6, 42, 96
8, 41852, Note_off_c, 6, 42, 61
8, 41856, Note_on_c, 6, 42, 96
8, 42044, Note_off_c, 6, 42, 61
8, 42048, Note_on_c, 6, 42, 96
8, 42236, Note_off_c, 6, 42, 61
8, 42240, Note_on_c, 6, 38, 96
8, 42428, Note_off_c, 6, 38, 61
8, 42432, Note_on_c, 6, 38, 96
8, 42620, Note_off_c, 6, 38, 61
8, 42624, Note_on_c, 6, 38, 96
8, 42812, Note_off_c, 6, 38, 61
8, 42816, Note_on_c, 6, 37, 96
8, 43004, Note_off_c, 6, 37, 61
8, 43008, Note_on_c, 6, 32, 96
8, 43196, Note_off_c, 6, 32, 61
8, 43200, Note_on_c, 6, 35, 96
8, 43388, Note_off_c, 6, 35, 61
8, 43392, Note_on_c, 6, 35, 96
8, 43580, Note_off_c, 6, 35, 61
8, 43584, Note_on_c, 6, 29, 96
8, 43772, Note_off_c, 6, 29, 61
8, 43776, Note_on_c, 6, 32, 96
8, 43964, Note_off_c, 6, 32, 61
8, 45120, Note_on_c, 6, 37, 96
8, 45308, Note_off_c, 6, 37, 61
8, 45312, Note_on_c, 6, 37, 96
8, 45500, Note_off_c, 6, 37, 61
8, 45504, Note_on_c, 6, 37, 96
8, 45692, Note_off_c, 6, 37, 61
8, 45696, Note_on_c, 6, 37, 96
8, 45884, Note_off_c, 6, 37, 61
8, 45888, Note_on_c, 6, 37, 96
8, 46076, Note_off_c, 6, 37, 61
8, 46080, Note_on_c, 6, 37, 96
8, 46268, Note_off_c, 6, 37, 61
8, 46272, Note_on_c, 6, 30, 96
8, 46652, Note_off_c, 6, 30, 61
8, 47424, Note_on_c, 6, 30, 96
8, 47612, Note_off_c, 6, 30, 61
8, 47616, Note_on_c, 6, 30, 96
8, 47804, Note_off_c, 6, 30, 61
8, 47808, Note_on_c, 6, 30, 96
8, 47996, Note_off_c, 6, 30, 61
8, 48000, Note_on_c, 6, 30, 96
8, 48188, Note_off_c, 6, 30, 61
8, 48192, Note_on_c, 6, 30, 96
8, 48380, Note_off_c, 6, 30, 61
8, 48384, Note_on_c, 6, 30, 96
8, 48572, Note_off_c, 6, 30, 61
8, 48576, Note_on_c, 6, 35, 96
8, 48764, Note_off_c, 6, 35, 61
8, 48768, Note_on_c, 6, 35, 96
8, 48956, Note_off_c, 6, 35, 61
8, 48960, Note_on_c, 6, 35, 96
8, 49148, Note_off_c, 6, 35, 61
8, 49152, Note_on_c, 6, 35, 96
8, 49340, Note_off_c, 6, 35, 61
8, 49344, Note_on_c, 6, 35, 96
8, 49532, Note_off_c, 6, 35, 61
8, 49536, Note_on_c, 6, 35, 96
8, 49724, Note_off_c, 6, 35, 61
8, 49728, Note_on_c, 6, 35, 96
8, 49916, Note_off_c, 6, 35, 61
8, 49920, Note_on_c, 6, 35, 96
8, 50108, Note_off_c, 6, 35, 61
8, 50112, Note_on_c, 6, 35, 96
8, 50300, Note_off_c, 6, 35, 61
8, 50304, Note_on_c, 6, 35, 96
8, 50492, Note_off_c, 6, 35, 61
8, 50496, Note_on_c, 6, 35, 96
8, 50684, Note_off_c, 6, 35, 61
8, 50688, Note_on_c, 6, 35, 96
8, 50876, Note_off_c, 6, 35, 61
8, 50880, Note_on_c, 6, 33, 96
8, 51068, Note_off_c, 6, 33, 61
8, 51072, Note_on_c, 6, 31, 96
8, 51260, Note_off_c, 6, 31, 61
8, 51264, Note_on_c, 6, 30, 96
8, 51452, Note_off_c, 6, 30, 61
8, 51456, Note_on_c, 6, 37, 96
8, 51644, Note_off_c, 6, 37, 61
8, 51648, Note_on_c, 6, 37, 96
8, 51836, Note_off_c, 6, 37, 61
8, 51840, Note_on_c, 6, 37, 96
8, 52028, Note_off_c, 6, 37, 61
8, 52032, Note_on_c, 6, 42, 96
8, 52220, Note_off_c, 6, 42, 61
8, 52224, Note_on_c, 6, 30, 96
8, 52412, Note_off_c, 6, 30, 61
8, 52416, Note_on_c, 6, 33, 96
8, 52604, Note_off_c, 6, 33, 61
8, 52608, Note_on_c, 6, 37, 96
8, 52796, Note_off_c, 6, 37, 61
8, 52800, Note_on_c, 6, 33, 96
8, 52988, Note_off_c, 6, 33, 61
8, 52992, Note_on_c, 6, 37, 96
8, 53180, Note_off_c, 6, 37, 61
8, 53184, Note_on_c, 6, 42, 96
8, 53372, Note_off_c, 6, 42, 61
8, 53376, Note_on_c, 6, 42, 96
8, 53564, Note_off_c, 6, 42, 61
8, 53568, Note_on_c, 6, 42, 96
8, 53756, Note_off_c, 6, 42, 61
8, 53760, Note_on_c, 6, 40, 96
8, 53948, Note_off_c, 6, 40, 61
8, 53952, Note_on_c, 6, 40, 96
8, 54140, Note_off_c, 6, 40, 61
8, 54144, Note_on_c, 6, 40, 96
8, 54332, Note_off_c, 6, 40, 61
8, 54336, Note_on_c, 6, 38, 96
8, 54524, Note_off_c, 6, 38, 61
8, 54528, Note_on_c, 6, 38, 96
8, 54716, Note_off_c, 6, 38, 61
8, 54720, Note_on_c, 6, 38, 96
8, 54908, Note_off_c, 6, 38, 61
8, 54912, Note_on_c, 6, 37, 96
8, 55100, Note_off_c, 6, 37, 61
8, 55104, Note_on_c, 6, 37, 96
8, 55292, Note_off_c, 6, 37, 61
8, 55296, Note_on_c, 6, 37, 96
8, 55484, Note_off_c, 6, 37, 61
8, 55488, Note_on_c, 6, 35, 96
8, 55676, Note_off_c, 6, 35, 61
8, 55680, Note_on_c, 6, 35, 96
8, 55868, Note_off_c, 6, 35, 61
8, 55872, Note_on_c, 6, 35, 96
8, 56060, Note_off_c, 6, 35, 61
8, 56064, Note_on_c, 6, 37, 96
8, 56252, Note_off_c, 6, 37, 61
8, 56256, Note_on_c, 6, 37, 96
8, 56444, Note_off_c, 6, 37, 61
8, 56448, Note_on_c, 6, 37, 96
8, 56636, Note_off_c, 6, 37, 61
8, 56640, Note_on_c, 6, 38, 96
8, 56828, Note_off_c, 6, 38, 61
8, 56832, Note_on_c, 6, 35, 96
8, 57020, Note_off_c, 6, 35, 61
8, 57024, Note_on_c, 6, 38, 96
8, 57212, Note_off_c, 6, 38, 61
8, 57216, Note_on_c, 6, 42, 96
8, 57404, Note_off_c, 6, 42, 61
8, 57408, Note_on_c, 6, 38, 96
8, 57596, Note_off_c, 6, 38, 61
8, 57600, Note_on_c, 6, 42, 96
8, 57788, Note_off_c, 6, 42, 61
8, 57792, Note_on_c, 6, 47, 96
8, 57980, Note_off_c, 6, 47, 61
8, 57984, Note_on_c, 6, 47, 96
8, 58172, Note_off_c, 6, 47, 61
8, 58176, Note_on_c, 6, 47, 96
8, 58364, Note_off_c, 6, 47, 61
8, 58368, Note_on_c, 6, 45, 96
8, 58556, Note_off_c, 6, 45, 61
8, 58560, Note_on_c, 6, 45, 96
8, 58748, Note_off_c, 6, 45, 61
8, 58752, Note_on_c, 6, 45, 96
8, 58940, Note_off_c, 6, 45, 61
8, 58944, Note_on_c, 6, 44, 96
8, 59132, Note_off_c, 6, 44, 61
8, 59136, Note_on_c, 6, 44, 96
8, 59324, Note_off_c, 6, 44, 61
8, 59328, Note_on_c, 6, 44, 96
8, 59516, Note_off_c, 6, 44, 61
8, 59520, Note_on_c, 6, 41, 96
8, 59708, Note_off_c, 6, 41, 61
8, 59712, Note_on_c, 6, 41, 96
8, 59900, Note_off_c, 6, 41, 61
8, 59904, Note_on_c, 6, 41, 96
8, 60092, Note_off_c, 6, 41, 61
8, 60096, Note_on_c, 6, 45, 96
8, 60286, Note_off_c, 6, 45, 61
8, 60288, Note_on_c, 6, 44, 96
8, 60478, Note_off_c, 6, 44, 61
8, 60480, Note_on_c, 6, 42, 96
8, 60670, Note_off_c, 6, 42, 61
8, 60672, Note_on_c, 6, 49, 96
8, 60862, Note_off_c, 6, 49, 61
8, 60864, Note_on_c, 6, 49, 96
8, 61054, Note_off_c, 6, 49, 61
8, 61056, Note_on_c, 6, 37, 96
8, 61246, Note_off_c, 6, 37, 61
8, 61248, Note_on_c, 6, 42, 96
8, 61438, Note_off_c, 6, 42, 61
8, 61440, Note_on_c, 6, 45, 96
8, 61630, Note_off_c, 6, 45, 61
8, 61632, Note_on_c, 6, 37, 96
8, 61822, Note_off_c, 6, 37, 61
8, 61824, Note_on_c, 6, 42, 96
8, 62014, Note_off_c, 6, 42, 61
8, 62016, Note_on_c, 6, 33, 96
8, 62206, Note_off_c, 6, 33, 61
8, 62208, Note_on_c, 6, 37, 96
8, 62398, Note_off_c, 6, 37, 61
8, 62400, Note_on_c, 6, 30, 96
8, 62782, Note_off_c, 6, 30, 61
8, 63552, Note_on_c, 6, 35, 96
8, 63742, Note_off_c, 6, 35, 61
8, 63744, Note_on_c, 6, 35, 96
8, 63934, Note_off_c, 6, 35, 61
8, 63936, Note_on_c, 6, 35, 96
8, 64126, Note_off_c, 6, 35, 61
8, 64128, Note_on_c, 6, 35, 96
8, 64318, Note_off_c, 6, 35, 61
8, 64320, Note_on_c, 6, 35, 96
8, 64510, Note_off_c, 6, 35, 61
8, 64512, Note_on_c, 6, 35, 96
8, 64702, Note_off_c, 6, 35, 61
8, 64704, Note_on_c, 6, 28, 96
8, 65086, Note_off_c, 6, 28, 61
8, 65856, Note_on_c, 6, 30, 96
8, 66046, Note_off_c, 6, 30, 61
8, 66048, Note_on_c, 6, 30, 96
8, 66238, Note_off_c, 6, 30, 61
8, 66240, Note_on_c, 6, 30, 96
8, 66430, Note_off_c, 6, 30, 61
8, 66432, Note_on_c, 6, 30, 96
8, 66622, Note_off_c, 6, 30, 61
8, 66624, Note_on_c, 6, 30, 96
8, 66814, Note_off_c, 6, 30, 61
8, 66816, Note_on_c, 6, 30, 96
8, 67006, Note_off_c, 6, 30, 61
8, 67008, Note_on_c, 6, 35, 96
8, 67390, Note_off_c, 6, 35, 61
8, 68160, Note_on_c, 6, 37, 96
8, 68350, Note_off_c, 6, 37, 61
8, 68352, Note_on_c, 6, 37, 96
8, 68542, Note_off_c, 6, 37, 61
8, 68544, Note_on_c, 6, 37, 96
8, 68734, Note_off_c, 6, 37, 61
8, 68736, Note_on_c, 6, 37, 96
8, 68926, Note_off_c, 6, 37, 61
8, 68928, Note_on_c, 6, 37, 96
8, 69118, Note_off_c, 6, 37, 61
8, 69120, Note_on_c, 6, 37, 96
8, 69310, Note_off_c, 6, 37, 61
8, 69312, Note_on_c, 6, 30, 96
8, 69502, Note_off_c, 6, 30, 61
8, 69504, Note_on_c, 6, 30, 96
8, 69694, Note_off_c, 6, 30, 61
8, 69696, Note_on_c, 6, 30, 96
8, 69886, Note_off_c, 6, 30, 61
8, 69888, Note_on_c, 6, 30, 96
8, 70078, Note_off_c, 6, 30, 61
8, 70080, Note_on_c, 6, 30, 96
8, 70270, Note_off_c, 6, 30, 61
8, 70272, Note_on_c, 6, 30, 96
8, 70462, Note_off_c, 6, 30, 61
8, 70464, Note_on_c, 6, 30, 96
8, 70654, Note_off_c, 6, 30, 61
8, 70656, Note_on_c, 6, 30, 96
8, 70846, Note_off_c, 6, 30, 61
8, 70848, Note_on_c, 6, 30, 96
8, 71038, Note_off_c, 6, 30, 61
8, 71040, Note_on_c, 6, 42, 96
8, 71230, Note_off_c, 6, 42, 61
8, 71232, Note_on_c, 6, 39, 96
8, 71422, Note_off_c, 6, 39, 61
8, 71424, Note_on_c, 6, 36, 96
8, 71614, Note_off_c, 6, 36, 61
8, 71616, Note_on_c, 6, 40, 96
8, 71806, Note_off_c, 6, 40, 61
8, 71808, Note_on_c, 6, 40, 96
8, 71998, Note_off_c, 6, 40, 61
8, 72000, Note_on_c, 6, 40, 96
8, 72190, Note_off_c, 6, 40, 61
8, 72192, Note_on_c, 6, 45, 96
8, 72382, Note_off_c, 6, 45, 61
8, 72384, Note_on_c, 6, 45, 96
8, 72574, Note_off_c, 6, 45, 61
8, 72576, Note_on_c, 6, 45, 96
8, 72766, Note_off_c, 6, 45, 61
8, 72768, Note_on_c, 6, 42, 96
8, 72958, Note_off_c, 6, 42, 61
8, 72960, Note_on_c, 6, 42, 96
8, 73150, Note_off_c, 6, 42, 61
8, 73152, Note_on_c, 6, 42, 96
8, 73342, Note_off_c, 6, 42, 61
8, 73344, Note_on_c, 6, 40, 96
8, 73534, Note_off_c, 6, 40, 61
8, 73536, Note_on_c, 6, 40, 96
8, 73726, Note_off_c, 6, 40, 61
8, 73728, Note_on_c, 6, 40, 96
8, 73918, Note_off_c, 6, 40, 61
8, 73920, Note_on_c, 6, 39, 96
8, 74110, Note_off_c, 6, 39, 61
8, 74112, Note_on_c, 6, 40, 96
8, 74302, Note_off_c, 6, 40, 61
8, 74304, Note_on_c, 6, 42, 96
8, 74494, Note_off_c, 6, 42, 61
8, 74496, Note_on_c, 6, 40, 96
8, 74686, Note_off_c, 6, 40, 61
8, 74688, Note_on_c, 6, 42, 96
8, 74878, Note_off_c, 6, 42, 61
8, 74880, Note_on_c, 6, 44, 96
8, 75070, Note_off_c, 6, 44, 61
8, 75072, Note_on_c, 6, 37, 96
8, 75262, Note_off_c, 6, 37, 61
8, 75264, Note_on_c, 6, 37, 96
8, 75454, Note_off_c, 6, 37, 61
8, 75456, Note_on_c, 6, 37, 96
8, 75646, Note_off_c, 6, 37, 61
8, 75648, Note_on_c, 6, 41, 96
8, 75838, Note_off_c, 6, 41, 61
8, 75840, Note_on_c, 6, 41, 96
8, 76030, Note_off_c, 6, 41, 61
8, 76032, Note_on_c, 6, 41, 96
8, 76222, Note_off_c, 6, 41, 61
8, 76224, Note_on_c, 6, 42, 96
8, 76414, Note_off_c, 6, 42, 61
8, 76416, Note_on_c, 6, 42, 96
8, 76606, Note_off_c, 6, 42, 61
8, 76608, Note_on_c, 6, 42, 96
8, 76798, Note_off_c, 6, 42, 61
8, 76800, Note_on_c, 6, 37, 96
8, 76990, Note_off_c, 6, 37, 61
8, 76992, Note_on_c, 6, 37, 96
8, 77182, Note_off_c, 6, 37, 61
8, 77184, Note_on_c, 6, 37, 96
8, 77374, Note_off_c, 6, 37, 61
8, 77376, Note_on_c, 6, 38, 96
8, 77566, Note_off_c, 6, 38, 61
8, 77568, Note_on_c, 6, 38, 96
8, 77758, Note_off_c, 6, 38, 61
8, 77760, Note_on_c, 6, 38, 96
8, 77950, Note_off_c, 6, 38, 61
8, 77952, Note_on_c, 6, 34, 96
8, 78142, Note_off_c, 6, 34, 61
8, 78144, Note_on_c, 6, 34, 96
8, 78334, Note_off_c, 6, 34, 61
8, 78336, Note_on_c, 6, 34, 96
8, 78526, Note_off_c, 6, 34, 61
8, 78528, Note_on_c, 6, 35, 96
8, 78718, Note_off_c, 6, 35, 61
8, 78720, Note_on_c, 6, 35, 96
8, 78910, Note_off_c, 6, 35, 61
8, 78912, Note_on_c, 6, 35, 96
8, 79102, Note_off_c, 6, 35, 61
8, 79104, Note_on_c, 6, 30, 96
8, 79294, Note_off_c, 6, 30, 61
8, 79296, Note_on_c, 6, 30, 96
8, 79486, Note_off_c, 6, 30, 61
8, 79488, Note_on_c, 6, 30, 96
8, 79678, Note_off_c, 6, 30, 61
8, 79680, Note_on_c, 6, 31, 96
8, 79870, Note_off_c, 6, 31, 61
8, 79872, Note_on_c, 6, 31, 96
8, 80062, Note_off_c, 6, 31, 61
8, 80064, Note_on_c, 6, 31, 96
8, 80254, Note_off_c, 6, 31, 61
8, 80256, Note_on_c, 6, 35, 96
8, 80446, Note_off_c, 6, 35, 61
8, 80448, Note_on_c, 6, 35, 96
8, 80638, Note_off_c, 6, 35, 61
8, 80640, Note_on_c, 6, 35, 96
8, 80830, Note_off_c, 6, 35, 61
8, 80832, Note_on_c, 6, 40, 96
8, 81022, Note_off_c, 6, 40, 61
8, 81024, Note_on_c, 6, 40, 96
8, 81214, Note_off_c, 6, 40, 61
8, 81216, Note_on_c, 6, 40, 96
8, 81406, Note_off_c, 6, 40, 61
8, 81408, Note_on_c, 6, 38, 96
8, 81598, Note_off_c, 6, 38, 61
8, 81600, Note_on_c, 6, 38, 96
8, 81790, Note_off_c, 6, 38, 61
8, 81792, Note_on_c, 6, 38, 96
8, 81982, Note_off_c, 6, 38, 61
8, 81984, Note_on_c, 6, 37, 96
8, 82174, Note_off_c, 6, 37, 61
8, 82176, Note_on_c, 6, 37, 96
8, 82366, Note_off_c, 6, 37, 61
8, 82368, Note_on_c, 6, 37, 96
8, 82558, Note_off_c, 6, 37, 61
8, 82560, Note_on_c, 6, 34, 96
8, 82750, Note_off_c, 6, 34, 61
8, 82752, Note_on_c, 6, 34, 96
8, 82942, Note_off_c, 6, 34, 61
8, 82944, Note_on_c, 6, 34, 96
8, 83134, Note_off_c, 6, 34, 61
8, 83136, Note_on_c, 6, 35, 96
8, 83326, Note_off_c, 6, 35, 61
8, 83328, Note_on_c, 6, 35, 96
8, 83518, Note_off_c, 6, 35, 61
8, 83520, Note_on_c, 6, 35, 96
8, 83710, Note_off_c, 6, 35, 61
8, 83712, Note_on_c, 6, 31, 96
8, 83902, Note_off_c, 6, 31, 61
8, 83904, Note_on_c, 6, 31, 96
8, 84094, Note_off_c, 6, 31, 61
8, 84096, Note_on_c, 6, 31, 96
8, 84286, Note_off_c, 6, 31, 61
8, 84288, Note_on_c, 6, 30, 96
8, 84670, Note_off_c, 6, 30, 61
8, 85440, Note_on_c, 6, 35, 96
8, 85822, Note_off_c, 6, 35, 61
8, 86592, Note_on_c, 6, 40, 96
8, 86974, Note_off_c, 6, 40, 61
8, 87744, Note_on_c, 6, 42, 96
8, 88126, Note_off_c, 6, 42, 61
8, 88896, Note_on_c, 6, 35, 96
8, 89278, Note_off_c, 6, 35, 61
8, 90048, Note_on_c, 6, 47, 96
8, 90238, Note_off_c, 6, 47, 61
8, 90240, Note_on_c, 6, 47, 96
8, 90430, Note_off_c, 6, 47, 61
8, 90432, Note_on_c, 6, 47, 96
8, 90622, Note_off_c, 6, 47, 61
8, 90624, Note_on_c, 6, 45, 96
8, 90814, Note_off_c, 6, 45, 61
8, 90816, Note_on_c, 6, 45, 96
8, 91006, Note_off_c, 6, 45, 61
8, 91008, Note_on_c, 6, 45, 96
8, 91198, Note_off_c, 6, 45, 61
8, 91200, Note_on_c, 6, 43, 96
8, 91390, Note_off_c, 6, 43, 61
8, 91392, Note_on_c, 6, 43, 96
8, 91582, Note_off_c, 6, 43, 61
8, 91584, Note_on_c, 6, 43, 96
8, 91774, Note_off_c, 6, 43, 61
8, 91776, Note_on_c, 6, 42, 96
8, 91966, Note_off_c, 6, 42, 61
8, 91968, Note_on_c, 6, 42, 96
8, 92158, Note_off_c, 6, 42, 61
8, 92160, Note_on_c, 6, 42, 96
8, 92350, Note_off_c, 6, 42, 61
8, 92352, Note_on_c, 6, 40, 96
8, 92542, Note_off_c, 6, 40, 61
8, 92544, Note_on_c, 6, 40, 96
8, 92734, Note_off_c, 6, 40, 61
8, 92736, Note_on_c, 6, 40, 96
8, 92926, Note_off_c, 6, 40, 61
8, 92928, Note_on_c, 6, 42, 96
8, 93118, Note_off_c, 6, 42, 61
8, 93120, Note_on_c, 6, 42, 96
8, 93310, Note_off_c, 6, 42, 61
8, 93312, Note_on_c, 6, 42, 96
8, 93502, Note_off_c, 6, 42, 61
8, 93504, Note_on_c, 6, 43, 96
8, 93694, Note_off_c, 6, 43, 61
8, 93696, Note_on_c, 6, 40, 96
8, 93886, Note_off_c, 6, 40, 61
8, 93888, Note_on_c, 6, 43, 96
8, 94078, Note_off_c, 6, 43, 61
8, 94080, Note_on_c, 6, 47, 96
8, 94270, Note_off_c, 6, 47, 61
8, 94272, Note_on_c, 6, 43, 96
8, 94462, Note_off_c, 6, 43, 61
8, 94464, Note_on_c, 6, 47, 96
8, 94654, Note_off_c, 6, 47, 61
8, 94656, Note_on_c, 6, 52, 96
8, 94846, Note_off_c, 6, 52, 61
8, 94848, Note_on_c, 6, 52, 96
8, 95038, Note_off_c, 6, 52, 61
8, 95040, Note_on_c, 6, 52, 96
8, 95230, Note_off_c, 6, 52, 61
8, 95232, Note_on_c, 6, 50, 96
8, 95422, Note_off_c, 6, 50, 61
8, 95424, Note_on_c, 6, 50, 96
8, 95614, Note_off_c, 6, 50, 61
8, 95616, Note_on_c, 6, 50, 96
8, 95806, Note_off_c, 6, 50, 61
8, 95808, Note_on_c, 6, 49, 96
8, 95998, Note_off_c, 6, 49, 61
8, 96000, Note_on_c, 6, 49, 96
8, 96190, Note_off_c, 6, 49, 61
8, 96192, Note_on_c, 6, 49, 96
8, 96382, Note_off_c, 6, 49, 61
8, 96384, Note_on_c, 6, 46, 96
8, 96574, Note_off_c, 6, 46, 61
8, 96576, Note_on_c, 6, 46, 96
8, 96766, Note_off_c, 6, 46, 61
8, 96768, Note_on_c, 6, 46, 96
8, 96958, Note_off_c, 6, 46, 61
8, 96960, Note_on_c, 6, 47, 96
8, 97150, Note_off_c, 6, 47, 61
8, 97152, Note_on_c, 6, 47, 96
8, 97342, Note_off_c, 6, 47, 61
8, 97344, Note_on_c, 6, 47, 96
8, 97534, Note_off_c, 6, 47, 61
8, 97536, Note_on_c, 6, 43, 96
8, 97726, Note_off_c, 6, 43, 61
8, 97728, Note_on_c, 6, 43, 96
8, 97918, Note_off_c, 6, 43, 61
8, 97920, Note_on_c, 6, 43, 96
8, 98110, Note_off_c, 6, 43, 61
8, 98112, Note_on_c, 6, 42, 96
8, 98302, Note_off_c, 6, 42, 61
8, 98304, Note_on_c, 6, 37, 96
8, 98494, Note_off_c, 6, 37, 61
8, 98496, Note_on_c, 6, 40, 96
8, 98686, Note_off_c, 6, 40, 61
8, 98688, Note_on_c, 6, 40, 96
8, 98878, Note_off_c, 6, 40, 61
8, 98880, Note_on_c, 6, 34, 96
8, 99070, Note_off_c, 6, 34, 61
8, 99072, Note_on_c, 6, 37, 96
8, 99262, Note_off_c, 6, 37, 61
8, 100416, Note_on_c, 6, 30, 96
8, 100606, Note_off_c, 6, 30, 61
8, 100608, Note_on_c, 6, 30, 96
8, 100798, Note_off_c, 6, 30, 61
8, 100800, Note_on_c, 6, 30, 96
8, 100990, Note_off_c, 6, 30, 61
8, 100992, Note_on_c, 6, 30, 96
8, 101182, Note_off_c, 6, 30, 61
8, 101184, Note_on_c, 6, 30, 96
8, 101374, Note_off_c, 6, 30, 61
8, 101376, Note_on_c, 6, 30, 96
8, 101566, Note_off_c, 6, 30, 61
8, 101568, Note_on_c, 6, 35, 96
8, 101950, Note_off_c, 6, 35, 61
8, 102720, Note_on_c, 6, 35, 96
8, 102910, Note_off_c, 6, 35, 61
8, 102912, Note_on_c, 6, 35, 96
8, 103102, Note_off_c, 6, 35, 61
8, 103104, Note_on_c, 6, 35, 96
8, 103294, Note_off_c, 6, 35, 61
8, 103296, Note_on_c, 6, 35, 96
8, 103486, Note_off_c, 6, 35, 61
8, 103488, Note_on_c, 6, 35, 96
8, 103678, Note_off_c, 6, 35, 61
8, 103680, Note_on_c, 6, 35, 96
8, 103870, Note_off_c, 6, 35, 61
8, 103872, Note_on_c, 6, 28, 96
8, 104062, Note_off_c, 6, 28, 61
8, 104064, Note_on_c, 6, 28, 96
8, 104254, Note_off_c, 6, 28, 61
8, 104256, Note_on_c, 6, 28, 96
8, 104446, Note_off_c, 6, 28, 61
8, 104448, Note_on_c, 6, 28, 96
8, 104638, Note_off_c, 6, 28, 61
8, 104640, Note_on_c, 6, 28, 96
8, 104830, Note_off_c, 6, 28, 61
8, 104832, Note_on_c, 6, 28, 96
8, 105022, Note_off_c, 6, 28, 61
8, 105024, Note_on_c, 6, 28, 96
8, 105214, Note_off_c, 6, 28, 61
8, 105216, Note_on_c, 6, 28, 96
8, 105406, Note_off_c, 6, 28, 61
8, 105408, Note_on_c, 6, 28, 96
8, 105598, Note_off_c, 6, 28, 61
8, 105600, Note_on_c, 6, 28, 96
8, 105790, Note_off_c, 6, 28, 61
8, 105792, Note_on_c, 6, 28, 96
8, 105982, Note_off_c, 6, 28, 61
8, 105984, Note_on_c, 6, 40, 96
8, 106174, Note_off_c, 6, 40, 61
8, 106176, Note_on_c, 6, 38, 96
8, 106366, Note_off_c, 6, 38, 61
8, 106368, Note_on_c, 6, 37, 96
8, 106558, Note_off_c, 6, 37, 61
8, 106560, Note_on_c, 6, 35, 96
8, 106750, Note_off_c, 6, 35, 61
8, 106752, Note_on_c, 6, 42, 96
8, 106942, Note_off_c, 6, 42, 61
8, 106944, Note_on_c, 6, 42, 96
8, 107134, Note_off_c, 6, 42, 61
8, 107136, Note_on_c, 6, 30, 96
8, 107326, Note_off_c, 6, 30, 61
8, 107328, Note_on_c, 6, 35, 96
8, 107518, Note_off_c, 6, 35, 61
8, 107520, Note_on_c, 6, 26, 96
8, 107710, Note_off_c, 6, 26, 61
8, 107712, Note_on_c, 6, 30, 96
8, 107902, Note_off_c, 6, 30, 61
8, 107904, Note_on_c, 6, 35, 96
8, 108094, Note_off_c, 6, 35, 61
8, 108096, Note_on_c, 6, 38, 96
8, 108286, Note_off_c, 6, 38, 61
8, 108288, Note_on_c, 6, 42, 96
8, 108478, Note_off_c, 6, 42, 61
8, 108480, Note_on_c, 6, 47, 96
8, 108670, Note_off_c, 6, 47, 61
8, 108672, Note_on_c, 6, 47, 96
8, 108862, Note_off_c, 6, 47, 61
8, 108864, Note_on_c, 6, 47, 96
8, 109054, Note_off_c, 6, 47, 61
8, 109056, Note_on_c, 6, 45, 96
8, 109246, Note_off_c, 6, 45, 61
8, 109248, Note_on_c, 6, 45, 96
8, 109438, Note_off_c, 6, 45, 61
8, 109440, Note_on_c, 6, 45, 96
8, 109630, Note_off_c, 6, 45, 61
8, 109632, Note_on_c, 6, 43, 96
8, 109822, Note_off_c, 6, 43, 61
8, 109824, Note_on_c, 6, 43, 96
8, 110014, Note_off_c, 6, 43, 61
8, 110016, Note_on_c, 6, 43, 96
8, 110206, Note_off_c, 6, 43, 61
8, 110208, Note_on_c, 6, 42, 96
8, 110398, Note_off_c, 6, 42, 61
8, 110400, Note_on_c, 6, 42, 96
8, 110590, Note_off_c, 6, 42, 61
8, 110592, Note_on_c, 6, 42, 96
8, 110782, Note_off_c, 6, 42, 61
8, 110784, Note_on_c, 6, 40, 96
8, 110974, Note_off_c, 6, 40, 61
8, 110976, Note_on_c, 6, 40, 96
8, 111166, Note_off_c, 6, 40, 61
8, 111168, Note_on_c, 6, 40, 96
8, 111358, Note_off_c, 6, 40, 61
8, 111360, Note_on_c, 6, 42, 96
8, 111550, Note_off_c, 6, 42, 61
8, 111552, Note_on_c, 6, 42, 96
8, 111742, Note_off_c, 6, 42, 61
8, 111744, Note_on_c, 6, 42, 96
8, 111934, Note_off_c, 6, 42, 61
8, 111936, Note_on_c, 6, 43, 96
8, 112126, Note_off_c, 6, 43, 61
8, 112128, Note_on_c, 6, 40, 96
8, 112318, Note_off_c, 6, 40, 61
8, 112320, Note_on_c, 6, 43, 96
8, 112510, Note_off_c, 6, 43, 61
8, 112512, Note_on_c, 6, 47, 96
8, 112702, Note_off_c, 6, 47, 61
8, 112704, Note_on_c, 6, 43, 96
8, 112894, Note_off_c, 6, 43, 61
8, 112896, Note_on_c, 6, 47, 96
8, 113086, Note_off_c, 6, 47, 61
8, 113088, Note_on_c, 6, 52, 96
8, 113278, Note_off_c, 6, 52, 61
8, 113280, Note_on_c, 6, 52, 96
8, 113470, Note_off_c, 6, 52, 61
8, 113472, Note_on_c, 6, 52, 96
8, 113662, Note_off_c, 6, 52, 61
8, 113664, Note_on_c, 6, 50, 96
8, 113854, Note_off_c, 6, 50, 61
8, 113856, Note_on_c, 6, 50, 96
8, 114046, Note_off_c, 6, 50, 61
8, 114048, Note_on_c, 6, 50, 96
8, 114238, Note_off_c, 6, 50, 61
8, 114240, Note_on_c, 6, 49, 96
8, 114430, Note_off_c, 6, 49, 61
8, 114432, Note_on_c, 6, 49, 96
8, 114622, Note_off_c, 6, 49, 61
8, 114624, Note_on_c, 6, 49, 96
8, 114814, Note_off_c, 6, 49, 61
8, 114816, Note_on_c, 6, 46, 96
8, 115006, Note_off_c, 6, 46, 61
8, 115008, Note_on_c, 6, 46, 96
8, 115198, Note_off_c, 6, 46, 61
8, 115200, Note_on_c, 6, 46, 96
8, 115390, Note_off_c, 6, 46, 61
8, 115392, Note_on_c, 6, 47, 96
8, 115582, Note_off_c, 6, 47, 61
8, 115584, Note_on_c, 6, 47, 96
8, 115774, Note_off_c, 6, 47, 61
8, 115776, Note_on_c, 6, 47, 96
8, 115966, Note_off_c, 6, 47, 61
8, 115968, Note_on_c, 6, 43, 96
8, 116158, Note_off_c, 6, 43, 61
8, 116160, Note_on_c, 6, 43, 96
8, 116350, Note_off_c, 6, 43, 61
8, 116352, Note_on_c, 6, 43, 96
8, 116542, Note_off_c, 6, 43, 61
8, 116544, Note_on_c, 6, 42, 96
8, 116734, Note_off_c, 6, 42, 61
8, 116736, Note_on_c, 6, 37, 96
8, 116926, Note_off_c, 6, 37, 61
8, 116928, Note_on_c, 6, 40, 96
8, 117118, Note_off_c, 6, 40, 61
8, 117120, Note_on_c, 6, 40, 96
8, 117310, Note_off_c, 6, 40, 61
8, 117312, Note_on_c, 6, 34, 96
8, 117502, Note_off_c, 6, 34, 61
8, 117504, Note_on_c, 6, 37, 96
8, 117694, Note_off_c, 6, 37, 61
8, 117696, Note_on_c, 6, 30, 96
8, 118078, Note_off_c, 6, 30, 61
8, 118848, Note_on_c, 6, 30, 96
8, 119038, Note_off_c, 6, 30, 61
8, 119040, Note_on_c, 6, 30, 96
8, 119230, Note_off_c, 6, 30, 61
8, 119232, Note_on_c, 6, 30, 96
8, 119422, Note_off_c, 6, 30, 61
8, 119424, Note_on_c, 6, 30, 96
8, 119614, Note_off_c, 6, 30, 61
8, 119616, Note_on_c, 6, 30, 96
8, 119806, Note_off_c, 6, 30, 61
8, 119808, Note_on_c, 6, 30, 96
8, 119998, Note_off_c, 6, 30, 61
8, 120000, Note_on_c, 6, 35, 96
8, 120382, Note_off_c, 6, 35, 61
8, 121152, Note_on_c, 6, 35, 96
8, 121342, Note_off_c, 6, 35, 61
8, 121344, Note_on_c, 6, 35, 96
8, 121534, Note_off_c, 6, 35, 61
8, 121536, Note_on_c, 6, 35, 96
8, 121726, Note_off_c, 6, 35, 61
8, 121728, Note_on_c, 6, 35, 96
8, 121918, Note_off_c, 6, 35, 61
8, 121920, Note_on_c, 6, 35, 96
8, 122110, Note_off_c, 6, 35, 61
8, 122112, Note_on_c, 6, 35, 96
8, 122302, Note_off_c, 6, 35, 61
8, 122304, Note_on_c, 6, 28, 96
8, 122494, Note_off_c, 6, 28, 61
8, 122496, Note_on_c, 6, 28, 96
8, 122686, Note_off_c, 6, 28, 61
8, 122688, Note_on_c, 6, 28, 96
8, 122878, Note_off_c, 6, 28, 61
8, 122880, Note_on_c, 6, 28, 96
8, 123070, Note_off_c, 6, 28, 61
8, 123072, Note_on_c, 6, 28, 96
8, 123262, Note_off_c, 6, 28, 61
8, 123264, Note_on_c, 6, 28, 96
8, 123454, Note_off_c, 6, 28, 61
8, 123456, Note_on_c, 6, 28, 96
8, 123646, Note_off_c, 6, 28, 61
8, 123648, Note_on_c, 6, 28, 96
8, 123838, Note_off_c, 6, 28, 61
8, 123840, Note_on_c, 6, 28, 96
8, 124030, Note_off_c, 6, 28, 61
8, 124032, Note_on_c, 6, 28, 96
8, 124222, Note_off_c, 6, 28, 61
8, 124224, Note_on_c, 6, 28, 96
8, 124414, Note_off_c, 6, 28, 61
8, 124416, Note_on_c, 6, 40, 96
8, 124606, Note_off_c, 6, 40, 61
8, 124608, Note_on_c, 6, 38, 96
8, 124798, Note_off_c, 6, 38, 61
8, 124800, Note_on_c, 6, 37, 96
8, 124990, Note_off_c, 6, 37, 61
8, 124992, Note_on_c, 6, 35, 96
8, 125182, Note_off_c, 6, 35, 61
8, 125184, Note_on_c, 6, 42, 96
8, 125374, Note_off_c, 6, 42, 61
8, 125376, Note_on_c, 6, 30, 96
8, 125566, Note_off_c, 6, 30, 61
8, 125568, Note_on_c, 6, 30, 96
8, 125758, Note_off_c, 6, 30, 61
8, 125760, Note_on_c, 6, 35, 96
8, 126718, Note_off_c, 6, 35, 61
8, 126720, Note_on_c, 6, 35, 96
8, 126910, Note_off_c, 6, 35, 61
8, 126912, Note_on_c, 6, 35, 96
8, 126912, Note_on_c, 6, 23, 96
8, 128060, Note_off_c, 6, 35, 61
8, 128060, Note_off_c, 6, 23, 61
8, 128060, End_track
9, 0, Start_track
9, 0, Title_t, "Organ RH"
9, 0, Control_c, 7, 0, 0
9, 0, Program_c, 7, 19
9, 0, Control_c, 7, 10, 75
9, 0, Key_signature, 2, "minor"
9, 0, Control_c, 7, 7, 127
9, 192, Note_on_c, 7, 71, 100
9, 192, Note_on_c, 7, 66, 100
9, 192, Note_on_c, 7, 62, 100
9, 1342, Note_off_c, 7, 66, 64
9, 1344, Note_on_c, 7, 67, 100
9, 1916, Note_off_c, 7, 62, 64
9, 1918, Note_off_c, 7, 71, 64
9, 1918, Note_off_c, 7, 67, 64
9, 1920, Note_on_c, 7, 75, 100
9, 1920, Note_on_c, 7, 69, 100
9, 1920, Note_on_c, 7, 66, 100
9, 2492, Note_off_c, 7, 66, 64
9, 2494, Note_off_c, 7, 75, 64
9, 2494, Note_off_c, 7, 69, 64
9, 2496, Note_on_c, 7, 76, 100
9, 2496, Note_on_c, 7, 71, 100
9, 2496, Note_on_c, 7, 59, 100
9, 3068, Note_off_c, 7, 59, 64
9, 3070, Note_off_c, 7, 76, 64
9, 3072, Note_on_c, 7, 75, 100
9, 3072, Note_on_c, 7, 57, 100
9, 3644, Note_off_c, 7, 57, 64
9, 3646, Note_off_c, 7, 75, 64
9, 3648, Note_on_c, 7, 76, 100
9, 3648, Note_on_c, 7, 55, 100
9, 4220, Note_off_c, 7, 55, 64
9, 4224, Note_on_c, 7, 67, 100
9, 4796, Note_off_c, 7, 67, 64
9, 4798, Note_off_c, 7, 71, 64
9, 4798, Note_off_c, 7, 76, 64
9, 4800, Note_on_c, 7, 79, 100
9, 4800, Note_on_c, 7, 76, 100
9, 4800, Note_on_c, 7, 72, 100
9, 5372, Note_off_c, 7, 72, 64
9, 5376, Note_on_c, 7, 71, 100
9, 5948, Note_off_c, 7, 71, 64
9, 5952, Note_on_c, 7, 70, 100
9, 6524, Note_off_c, 7, 70, 64
9, 6526, Note_off_c, 7, 79, 64
9, 6528, Note_on_c, 7, 73, 100
9, 6528, Note_on_c, 7, 73, 100
9, 7100, Note_off_c, 7, 73, 64
9, 7102, Note_off_c, 7, 76, 64
9, 7102, Note_off_c, 7, 73, 64
9, 7104, Note_on_c, 7, 74, 100
9, 7104, Note_on_c, 7, 74, 100
9, 7104, Note_on_c, 7, 66, 100
9, 7676, Note_off_c, 7, 66, 64
9, 7678, Note_off_c, 7, 74, 64
9, 7678, Note_off_c, 7, 74, 64
9, 7680, Note_on_c, 7, 76, 100
9, 7680, Note_on_c, 7, 71, 100
9, 7680, Note_on_c, 7, 67, 100
9, 8252, Note_off_c, 7, 67, 64
9, 8254, Note_off_c, 7, 76, 64
9, 8254, Note_off_c, 7, 71, 64
9, 8256, Note_on_c, 7, 78, 100
9, 8256, Note_on_c, 7, 70, 100
9, 8256, Note_on_c, 7, 61, 100
9, 9212, Note_off_c, 7, 61, 64
9, 9214, Note_off_c, 7, 78, 64
9, 9214, Note_off_c, 7, 70, 64
9, 9408, Note_on_c, 7, 70, 100
9, 9408, Note_on_c, 7, 66, 100
9, 9408, Note_on_c, 7, 61, 100
9, 9788, Note_off_c, 7, 70, 64
9, 9788, Note_off_c, 7, 66, 64
9, 9788, Note_off_c, 7, 61, 64
9, 9792, Note_on_c, 7, 71, 100
9, 9792, Note_on_c, 7, 68, 100
9, 9792, Note_on_c, 7, 62, 100
9, 10172, Note_off_c, 7, 71, 64
9, 10172, Note_off_c, 7, 68, 64
9, 10172, Note_off_c, 7, 62, 64
9, 10176, Note_on_c, 7, 73, 100
9, 10176, Note_on_c, 7, 70, 100
9, 10176, Note_on_c, 7, 64, 100
9, 10536, Note_on_c, 7, 54, 100
9, 10556, Note_off_c, 7, 73, 64
9, 10556, Note_off_c, 7, 70, 64
9, 10556, Note_off_c, 7, 64, 64
9, 10560, Note_on_c, 7, 73, 100
9, 10560, Note_on_c, 7, 70, 100
9, 10916, Note_off_c, 7, 54, 64
9, 10920, Note_on_c, 7, 54, 100
9, 10940, Note_off_c, 7, 73, 64
9, 10940, Note_off_c, 7, 70, 64
9, 10944, Note_on_c, 7, 74, 100
9, 10944, Note_on_c, 7, 71, 100
9, 11300, Note_off_c, 7, 54, 64
9, 11304, Note_on_c, 7, 54, 100
9, 11324, Note_off_c, 7, 74, 64
9, 11324, Note_off_c, 7, 71, 64
9, 11328, Note_on_c, 7, 76, 100
9, 11328, Note_on_c, 7, 73, 100
9, 11684, Note_off_c, 7, 54, 64
9, 11708, Note_off_c, 7, 76, 64
9, 11708, Note_off_c, 7, 73, 64
9, 11712, Note_on_c, 7, 76, 100
9, 11712, Note_on_c, 7, 73, 100
9, 11712, Note_on_c, 7, 70, 100
9, 13628, Note_off_c, 7, 76, 64
9, 13628, Note_off_c, 7, 73, 64
9, 13628, Note_off_c, 7, 70, 64
9, 14016, Note_on_c, 7, 66, 100
9, 14016, Note_on_c, 7, 63, 100
9, 14016, Note_on_c, 7, 57, 100
9, 14204, Note_off_c, 7, 57, 64
9, 14206, Note_off_c, 7, 66, 64
9, 14206, Note_off_c, 7, 63, 64
9, 14208, Note_on_c, 7, 67, 100
9, 14208, Note_on_c, 7, 64, 100
9, 14208, Note_on_c, 7, 55, 100
9, 14396, Note_off_c, 7, 55, 64
9, 14398, Note_off_c, 7, 67, 64
9, 14398, Note_off_c, 7, 64, 64
9, 14400, Note_on_c, 7, 69, 100
9, 14400, Note_on_c, 7, 66, 100
9, 14400, Note_on_c, 7, 54, 100
9, 14588, Note_off_c, 7, 54, 64
9, 14590, Note_off_c, 7, 69, 64
9, 14590, Note_off_c, 7, 66, 64
9, 14592, Note_on_c, 7, 66, 100
9, 14592, Note_on_c, 7, 63, 100
9, 14592, Note_on_c, 7, 59, 100
9, 14780, Note_off_c, 7, 59, 64
9, 14782, Note_off_c, 7, 66, 64
9, 14782, Note_off_c, 7, 63, 64
9, 14784, Note_on_c, 7, 67, 100
9, 14784, Note_on_c, 7, 64, 100
9, 14784, Note_on_c, 7, 59, 100
9, 14972, Note_off_c, 7, 59, 64
9, 14974, Note_off_c, 7, 67, 64
9, 14974, Note_off_c, 7, 64, 64
9, 14976, Note_on_c, 7, 69, 100
9, 14976, Note_on_c, 7, 66, 100
9, 14976, Note_on_c, 7, 59, 100
9, 15164, Note_off_c, 7, 59, 64
9, 15166, Note_off_c, 7, 69, 64
9, 15166, Note_off_c, 7, 66, 64
9, 15168, Note_on_c, 7, 69, 100
9, 15168, Note_on_c, 7, 66, 100
9, 15168, Note_on_c, 7, 63, 100
9, 16124, Note_off_c, 7, 63, 64
9, 16126, Note_off_c, 7, 69, 64
9, 16126, Note_off_c, 7, 66, 64
9, 16320, Note_on_c, 7, 67, 100
9, 16320, Note_on_c, 7, 64, 100
9, 16320, Note_on_c, 7, 59, 100
9, 16892, Note_off_c, 7, 59, 64
9, 16894, Note_off_c, 7, 67, 64
9, 16894, Note_off_c, 7, 64, 64
9, 16896, Note_on_c, 7, 71, 100
9, 16896, Note_on_c, 7, 67, 100
9, 16896, Note_on_c, 7, 64, 100
9, 17468, Note_off_c, 7, 64, 64
9, 17470, Note_off_c, 7, 71, 64
9, 17470, Note_off_c, 7, 67, 64
9, 17472, Note_on_c, 7, 76, 100
9, 17472, Note_on_c, 7, 72, 100
9, 17472, Note_on_c, 7, 67, 100
9, 18044, Note_off_c, 7, 67, 64
9, 18046, Note_off_c, 7, 76, 64
9, 18046, Note_off_c, 7, 72, 64
9, 18048, Note_on_c, 7, 79, 100
9, 18048, Note_on_c, 7, 76, 100
9, 18048, Note_on_c, 7, 61, 100
9, 18236, Note_off_c, 7, 61, 64
9, 18238, Note_off_c, 7, 79, 64
9, 18238, Note_off_c, 7, 76, 64
9, 18240, Note_on_c, 7, 78, 100
9, 18240, Note_on_c, 7, 73, 100
9, 18240, Note_on_c, 7, 70, 100
9, 18620, Note_off_c, 7, 70, 64
9, 18622, Note_off_c, 7, 73, 64
9, 18624, Note_on_c, 7, 74, 100
9, 18624, Note_on_c, 7, 71, 100
9, 18812, Note_off_c, 7, 71, 64
9, 18814, Note_off_c, 7, 78, 64
9, 18814, Note_off_c, 7, 74, 64
9, 18816, Note_on_c, 7, 76, 100
9, 18816, Note_on_c, 7, 69, 100
9, 18816, Note_on_c, 7, 64, 100
9, 19004, Note_off_c, 7, 64, 64
9, 19006, Note_off_c, 7, 76, 64
9, 19006, Note_off_c, 7, 69, 64
9, 19008, Note_on_c, 7, 74, 100
9, 19008, Note_on_c, 7, 71, 100
9, 19008, Note_on_c, 7, 66, 100
9, 19196, Note_off_c, 7, 66, 64
9, 19198, Note_off_c, 7, 74, 64
9, 19200, Note_on_c, 7, 76, 100
9, 19200, Note_on_c, 7, 61, 100
9, 19328, Note_off_c, 7, 76, 64
9, 19328, Note_off_c, 7, 61, 64
9, 19390, Note_off_c, 7, 71, 64
9, 19392, Note_on_c, 7, 74, 100
9, 19392, Note_on_c, 7, 71, 100
9, 19392, Note_on_c, 7, 62, 100
9, 19520, Note_off_c, 7, 74, 64
9, 19520, Note_off_c, 7, 71, 64
9, 19520, Note_off_c, 7, 62, 64
9, 19584, Note_on_c, 7, 73, 100
9, 19584, Note_on_c, 7, 69, 100
9, 19584, Note_on_c, 7, 64, 100
9, 19712, Note_off_c, 7, 73, 64
9, 19712, Note_off_c, 7, 69, 64
9, 19712, Note_off_c, 7, 64, 64
9, 19776, Note_on_c, 7, 71, 100
9, 19776, Note_on_c, 7, 66, 100
9, 19776, Note_on_c, 7, 62, 100
9, 19964, Note_off_c, 7, 62, 64
9, 19966, Note_off_c, 7, 71, 64
9, 19966, Note_off_c, 7, 66, 64
9, 19968, Note_on_c, 7, 73, 100
9, 19968, Note_on_c, 7, 69, 100
9, 19968, Note_on_c, 7, 64, 100
9, 20156, Note_off_c, 7, 64, 64
9, 20158, Note_off_c, 7, 73, 64
9, 20158, Note_off_c, 7, 69, 64
9, 20160, Note_on_c, 7, 74, 100
9, 20160, Note_on_c, 7, 71, 100
9, 20160, Note_on_c, 7, 66, 100
9, 20348, Note_off_c, 7, 66, 64
9, 20350, Note_off_c, 7, 74, 64
9, 20350, Note_off_c, 7, 71, 64
9, 20352, Note_on_c, 7, 73, 100
9, 20352, Note_on_c, 7, 69, 100
9, 20352, Note_on_c, 7, 64, 100
9, 20540, Note_off_c, 7, 64, 64
9, 20542, Note_off_c, 7, 73, 64
9, 20542, Note_off_c, 7, 69, 64
9, 20544, Note_on_c, 7, 74, 100
9, 20544, Note_on_c, 7, 71, 100
9, 20544, Note_on_c, 7, 66, 100
9, 20732, Note_off_c, 7, 66, 64
9, 20734, Note_off_c, 7, 74, 64
9, 20734, Note_off_c, 7, 71, 64
9, 20736, Note_on_c, 7, 76, 100
9, 20736, Note_on_c, 7, 73, 100
9, 20736, Note_on_c, 7, 58, 100
9, 20924, Note_off_c, 7, 58, 64
9, 20926, Note_off_c, 7, 76, 64
9, 20926, Note_off_c, 7, 73, 64
9, 20928, Note_on_c, 7, 74, 100
9, 20928, Note_on_c, 7, 71, 100
9, 20928, Note_on_c, 7, 66, 100
9, 22076, Note_off_c, 7, 66, 64
9, 22080, Note_on_c, 7, 67, 100
9, 22652, Note_off_c, 7, 74, 64
9, 22652, Note_off_c, 7, 71, 64
9, 22652, Note_off_c, 7, 67, 64
9, 22656, Note_on_c, 7, 75, 100
9, 22656, Note_on_c, 7, 69, 100
9, 22656, Note_on_c, 7, 69, 100
9, 23228, Note_off_c, 7, 75, 64
9, 23228, Note_off_c, 7, 69, 64
9, 23228, Note_off_c, 7, 69, 64
9, 23232, Note_on_c, 7, 76, 100
9, 23232, Note_on_c, 7, 71, 100
9, 23232, Note_on_c, 7, 67, 100
9, 23804, Note_off_c, 7, 76, 64
9, 23804, Note_off_c, 7, 71, 64
9, 23804, Note_off_c, 7, 67, 64
9, 23808, Note_on_c, 7, 72, 100
9, 23808, Note_on_c, 7, 69, 100
9, 23808, Note_on_c, 7, 66, 100
9, 24380, Note_off_c, 7, 72, 64
9, 24380, Note_off_c, 7, 69, 64
9, 24380, Note_off_c, 7, 66, 64
9, 24384, Note_on_c, 7, 71, 100
9, 24384, Note_on_c, 7, 71, 100
9, 24384, Note_on_c, 7, 67, 100
9, 24956, Note_off_c, 7, 71, 64
9, 24960, Note_on_c, 7, 76, 100
9, 25532, Note_off_c, 7, 71, 64
9, 25532, Note_off_c, 7, 67, 64
9, 25532, Note_off_c, 7, 76, 64
9, 25536, Note_on_c, 7, 79, 100
9, 25536, Note_on_c, 7, 76, 100
9, 25536, Note_on_c, 7, 64, 100
9, 27260, Note_off_c, 7, 79, 64
9, 27260, Note_off_c, 7, 64, 64
9, 27264, Note_on_c, 7, 73, 100
9, 27264, Note_on_c, 7, 58, 100
9, 27836, Note_off_c, 7, 76, 64
9, 27836, Note_off_c, 7, 73, 64
9, 27836, Note_off_c, 7, 58, 64
9, 27840, Note_on_c, 7, 74, 100
9, 27840, Note_on_c, 7, 74, 100
9, 27840, Note_on_c, 7, 66, 100
9, 28412, Note_off_c, 7, 74, 64
9, 28412, Note_off_c, 7, 74, 64
9, 28412, Note_off_c, 7, 66, 64
9, 28416, Note_on_c, 7, 76, 100
9, 28416, Note_on_c, 7, 71, 100
9, 28416, Note_on_c, 7, 67, 100
9, 28988, Note_off_c, 7, 76, 64
9, 28988, Note_off_c, 7, 71, 64
9, 28988, Note_off_c, 7, 67, 64
9, 28992, Note_on_c, 7, 78, 100
9, 28992, Note_on_c, 7, 70, 100
9, 28992, Note_on_c, 7, 61, 100
9, 29180, Note_off_c, 7, 70, 64
9, 29180, Note_off_c, 7, 61, 64
9, 29184, Note_on_c, 7, 71, 100
9, 29184, Note_on_c, 7, 62, 100
9, 29372, Note_off_c, 7, 71, 64
9, 29372, Note_off_c, 7, 62, 64
9, 29376, Note_on_c, 7, 73, 100
9, 29376, Note_on_c, 7, 64, 100
9, 29564, Note_off_c, 7, 73, 64
9, 29564, Note_off_c, 7, 64, 64
9, 29568, Note_on_c, 7, 61, 100
9, 29568, Note_on_c, 7, 58, 100
9, 29756, Note_off_c, 7, 61, 64
9, 29756, Note_off_c, 7, 58, 64
9, 29760, Note_on_c, 7, 62, 100
9, 29760, Note_on_c, 7, 59, 100
9, 29948, Note_off_c, 7, 78, 64
9, 29948, Note_off_c, 7, 62, 64
9, 29948, Note_off_c, 7, 59, 64
9, 29952, Note_on_c, 7, 70, 100
9, 29952, Note_on_c, 7, 64, 100
9, 29952, Note_on_c, 7, 61, 100
9, 30140, Note_off_c, 7, 70, 64
9, 30140, Note_off_c, 7, 64, 64
9, 30140, Note_off_c, 7, 61, 64
9, 30144, Note_on_c, 7, 69, 100
9, 30144, Note_on_c, 7, 66, 100
9, 30144, Note_on_c, 7, 59, 100
9, 30188, Note_off_c, 7, 69, 64
9, 30192, Note_on_c, 7, 71, 100
9, 30236, Note_off_c, 7, 71, 64
9, 30240, Note_on_c, 7, 72, 100
9, 30332, Note_off_c, 7, 66, 64
9, 30332, Note_off_c, 7, 59, 64
9, 30336, Note_on_c, 7, 66, 100
9, 30336, Note_on_c, 7, 59, 100
9, 30432, Note_on_c, 7, 71, 100
9, 30524, Note_off_c, 7, 72, 64
9, 30524, Note_off_c, 7, 66, 64
9, 30524, Note_off_c, 7, 59, 64
9, 30524, Note_off_c, 7, 71, 64
9, 30528, Note_on_c, 7, 69, 100
9, 30528, Note_on_c, 7, 66, 100
9, 30528, Note_on_c, 7, 59, 100
9, 30716, Note_off_c, 7, 69, 64
9, 30716, Note_off_c, 7, 66, 64
9, 30716, Note_off_c, 7, 59, 64
9, 30720, Note_on_c, 7, 75, 100
9, 30720, Note_on_c, 7, 66, 100
9, 30720, Note_on_c, 7, 59, 100
9, 30908, Note_off_c, 7, 66, 64
9, 30908, Note_off_c, 7, 59, 64
9, 30912, Note_on_c, 7, 66, 100
9, 30912, Note_on_c, 7, 59, 100
9, 31004, Note_off_c, 7, 75, 64
9, 31008, Note_on_c, 7, 76, 100
9, 31100, Note_off_c, 7, 66, 64
9, 31100, Note_off_c, 7, 59, 64
9, 31100, Note_off_c, 7, 76, 64
9, 31104, Note_on_c, 7, 78, 100
9, 31104, Note_on_c, 7, 66, 100
9, 31104, Note_on_c, 7, 59, 100
9, 31292, Note_off_c, 7, 78, 64
9, 31292, Note_off_c, 7, 66, 64
9, 31292, Note_off_c, 7, 59, 64
9, 31296, Note_on_c, 7, 78, 100
9, 31296, Note_on_c, 7, 67, 100
9, 31296, Note_on_c, 7, 59, 100
9, 31424, Note_off_c, 7, 67, 64
9, 31424, Note_off_c, 7, 59, 64
9, 31484, Note_off_c, 7, 78, 64
9, 31488, Note_on_c, 7, 76, 100
9, 31488, Note_on_c, 7, 67, 100
9, 31488, Note_on_c, 7, 59, 100
9, 31676, Note_off_c, 7, 67, 64
9, 31676, Note_off_c, 7, 59, 64
9, 31680, Note_on_c, 7, 66, 100
9, 31680, Note_on_c, 7, 57, 100
9, 31868, Note_off_c, 7, 66, 64
9, 31868, Note_off_c, 7, 57, 64
9, 31872, Note_on_c, 7, 67, 100
9, 31872, Note_on_c, 7, 59, 100
9, 32060, Note_off_c, 7, 67, 64
9, 32060, Note_off_c, 7, 59, 64
9, 32064, Note_on_c, 7, 70, 100
9, 32064, Note_on_c, 7, 61, 100
9, 32252, Note_off_c, 7, 76, 64
9, 32252, Note_off_c, 7, 70, 64
9, 32252, Note_off_c, 7, 61, 64
9, 32256, Note_on_c, 7, 71, 100
9, 32256, Note_on_c, 7, 71, 100
9, 32256, Note_on_c, 7, 62, 100
9, 32444, Note_off_c, 7, 71, 64
9, 32444, Note_off_c, 7, 71, 64
9, 32444, Note_off_c, 7, 62, 64
9, 32448, Note_on_c, 7, 71, 100
9, 32448, Note_on_c, 7, 68, 100
9, 32448, Note_on_c, 7, 61, 100
9, 32492, Note_off_c, 7, 71, 64
9, 32496, Note_on_c, 7, 73, 100
9, 32540, Note_off_c, 7, 73, 64
9, 32544, Note_on_c, 7, 74, 100
9, 32636, Note_off_c, 7, 68, 64
9, 32636, Note_off_c, 7, 61, 64
9, 32640, Note_on_c, 7, 68, 100
9, 32640, Note_on_c, 7, 61, 100
9, 32736, Note_on_c, 7, 73, 100
9, 32828, Note_off_c, 7, 74, 64
9, 32828, Note_off_c, 7, 68, 64
9, 32828, Note_off_c, 7, 61, 64
9, 32828, Note_off_c, 7, 73, 64
9, 32832, Note_on_c, 7, 71, 100
9, 32832, Note_on_c, 7, 68, 100
9, 32832, Note_on_c, 7, 61, 100
9, 33020, Note_off_c, 7, 71, 64
9, 33020, Note_off_c, 7, 68, 64
9, 33020, Note_off_c, 7, 61, 64
9, 33024, Note_on_c, 7, 77, 100
9, 33024, Note_on_c, 7, 68, 100
9, 33024, Note_on_c, 7, 61, 100
9, 33212, Note_off_c, 7, 68, 64
9, 33212, Note_off_c, 7, 61, 64
9, 33216, Note_on_c, 7, 68, 100
9, 33216, Note_on_c, 7, 61, 100
9, 33308, Note_off_c, 7, 77, 64
9, 33312, Note_on_c, 7, 78, 100
9, 33404, Note_off_c, 7, 68, 64
9, 33404, Note_off_c, 7, 61, 64
9, 33404, Note_off_c, 7, 78, 64
9, 33408, Note_on_c, 7, 80, 100
9, 33408, Note_on_c, 7, 68, 100
9, 33408, Note_on_c, 7, 61, 100
9, 33596, Note_off_c, 7, 80, 64
9, 33596, Note_off_c, 7, 68, 64
9, 33596, Note_off_c, 7, 61, 64
9, 33600, Note_on_c, 7, 80, 100
9, 33600, Note_on_c, 7, 69, 100
9, 33600, Note_on_c, 7, 61, 100
9, 33788, Note_off_c, 7, 80, 64
9, 33788, Note_off_c, 7, 69, 64
9, 33788, Note_off_c, 7, 61, 64
9, 33792, Note_on_c, 7, 78, 100
9, 33792, Note_on_c, 7, 66, 100
9, 33792, Note_on_c, 7, 57, 100
9, 33980, Note_off_c, 7, 66, 64
9, 33980, Note_off_c, 7, 57, 64
9, 33984, Note_on_c, 7, 65, 100
9, 33984, Note_on_c, 7, 59, 100
9, 34112, Note_off_c, 7, 65, 64
9, 34112, Note_off_c, 7, 59, 64
9, 34176, Note_on_c, 7, 66, 100
9, 34176, Note_on_c, 7, 61, 100
9, 34364, Note_off_c, 7, 66, 64
9, 34364, Note_off_c, 7, 61, 64
9, 34368, Note_on_c, 7, 78, 100
9, 34368, Note_on_c, 7, 69, 100
9, 34556, Note_off_c, 7, 78, 64
9, 34556, Note_off_c, 7, 78, 64
9, 34556, Note_off_c, 7, 69, 64
9, 34560, Note_on_c, 7, 77, 100
9, 34560, Note_on_c, 7, 68, 100
9, 34688, Note_off_c, 7, 77, 64
9, 34688, Note_off_c, 7, 68, 64
9, 34752, Note_on_c, 7, 73, 100
9, 34752, Note_on_c, 7, 78, 100
9, 34752, Note_on_c, 7, 69, 100
9, 35900, Note_off_c, 7, 73, 64
9, 35904, Note_on_c, 7, 74, 100
9, 36092, Note_off_c, 7, 69, 64
9, 36096, Note_on_c, 7, 68, 100
9, 36284, Note_off_c, 7, 68, 64
9, 36288, Note_on_c, 7, 66, 100
9, 36476, Note_off_c, 7, 78, 64
9, 36476, Note_off_c, 7, 74, 64
9, 36476, Note_off_c, 7, 66, 64
9, 36480, Note_on_c, 7, 76, 100
9, 36480, Note_on_c, 7, 70, 100
9, 36480, Note_on_c, 7, 64, 100
9, 36668, Note_off_c, 7, 64, 64
9, 36672, Note_on_c, 7, 62, 100
9, 36860, Note_off_c, 7, 62, 64
9, 36864, Note_on_c, 7, 61, 100
9, 37052, Note_off_c, 7, 76, 64
9, 37052, Note_off_c, 7, 70, 64
9, 37052, Note_off_c, 7, 61, 64
9, 37056, Note_on_c, 7, 74, 100
9, 37056, Note_on_c, 7, 71, 100
9, 37056, Note_on_c, 7, 66, 100
9, 37628, Note_off_c, 7, 74, 64
9, 37628, Note_off_c, 7, 71, 64
9, 37632, Note_on_c, 7, 73, 100
9, 37632, Note_on_c, 7, 76, 100
9, 38012, Note_off_c, 7, 76, 64
9, 38016, Note_on_c, 7, 70, 100
9, 38204, Note_off_c, 7, 73, 64
9, 38204, Note_off_c, 7, 70, 64
9, 38208, Note_on_c, 7, 71, 100
9, 38208, Note_on_c, 7, 71, 100
9, 38780, Note_off_c, 7, 66, 64
9, 38780, Note_off_c, 7, 71, 64
9, 38784, Note_on_c, 7, 66, 100
9, 38784, Note_on_c, 7, 62, 100
9, 39356, Note_off_c, 7, 66, 64
9, 39356, Note_off_c, 7, 62, 64
9, 39360, Note_on_c, 7, 74, 100
9, 39360, Note_on_c, 7, 59, 100
9, 39932, Note_off_c, 7, 59, 64
9, 39936, Note_on_c, 7, 66, 100
9, 40508, Note_off_c, 7, 66, 64
9, 40512, Note_on_c, 7, 68, 100
9, 41084, Note_off_c, 7, 74, 64
9, 41088, Note_on_c, 7, 68, 100
9, 41660, Note_off_c, 7, 71, 64
9, 41660, Note_off_c, 7, 68, 64
9, 41660, Note_off_c, 7, 68, 64
9, 41664, Note_on_c, 7, 69, 100
9, 41664, Note_on_c, 7, 69, 100
9, 41664, Note_on_c, 7, 61, 100
9, 42236, Note_off_c, 7, 69, 64
9, 42236, Note_off_c, 7, 69, 64
9, 42236, Note_off_c, 7, 61, 64
9, 42240, Note_on_c, 7, 71, 100
9, 42240, Note_on_c, 7, 66, 100
9, 42240, Note_on_c, 7, 62, 100
9, 42812, Note_off_c, 7, 71, 64
9, 42812, Note_off_c, 7, 66, 64
9, 42812, Note_off_c, 7, 62, 64
9, 42816, Note_on_c, 7, 73, 100
9, 42816, Note_on_c, 7, 68, 100
9, 43772, Note_off_c, 7, 68, 64
9, 43820, Note_off_c, 7, 73, 64
9, 43968, Note_on_c, 7, 77, 100
9, 43968, Note_on_c, 7, 73, 100
9, 43968, Note_on_c, 7, 68, 100
9, 44156, Note_off_c, 7, 77, 64
9, 44156, Note_off_c, 7, 73, 64
9, 44156, Note_off_c, 7, 68, 64
9, 44160, Note_on_c, 7, 78, 100
9, 44160, Note_on_c, 7, 75, 100
9, 44160, Note_on_c, 7, 69, 100
9, 44348, Note_off_c, 7, 78, 64
9, 44348, Note_off_c, 7, 75, 64
9, 44348, Note_off_c, 7, 69, 64
9, 44352, Note_on_c, 7, 80, 100
9, 44352, Note_on_c, 7, 77, 100
9, 44352, Note_on_c, 7, 71, 100
9, 44540, Note_off_c, 7, 80, 64
9, 44540, Note_off_c, 7, 77, 64
9, 44540, Note_off_c, 7, 71, 64
9, 44544, Note_on_c, 7, 80, 100
9, 44544, Note_on_c, 7, 77, 100
9, 44544, Note_on_c, 7, 61, 100
9, 44732, Note_off_c, 7, 80, 64
9, 44732, Note_off_c, 7, 77, 64
9, 44732, Note_off_c, 7, 61, 64
9, 44736, Note_on_c, 7, 81, 100
9, 44736, Note_on_c, 7, 78, 100
9, 44736, Note_on_c, 7, 61, 100
9, 44924, Note_off_c, 7, 81, 64
9, 44924, Note_off_c, 7, 78, 64
9, 44924, Note_off_c, 7, 61, 64
9, 44928, Note_on_c, 7, 83, 100
9, 44928, Note_on_c, 7, 80, 100
9, 44928, Note_on_c, 7, 61, 100
9, 45116, Note_off_c, 7, 83, 64
9, 45116, Note_off_c, 7, 80, 64
9, 45116, Note_off_c, 7, 61, 64
9, 45120, Note_on_c, 7, 77, 100
9, 45120, Note_on_c, 7, 68, 100
9, 45120, Note_on_c, 7, 61, 100
9, 46076, Note_off_c, 7, 77, 64
9, 46076, Note_off_c, 7, 68, 64
9, 46076, Note_off_c, 7, 61, 64
9, 46272, Note_on_c, 7, 73, 100
9, 46272, Note_on_c, 7, 70, 100
9, 46272, Note_on_c, 7, 61, 100
9, 46460, Note_off_c, 7, 73, 64
9, 46460, Note_off_c, 7, 70, 64
9, 46460, Note_off_c, 7, 61, 64
9, 46464, Note_on_c, 7, 74, 100
9, 46464, Note_on_c, 7, 71, 100
9, 46464, Note_on_c, 7, 66, 100
9, 46652, Note_off_c, 7, 74, 64
9, 46652, Note_off_c, 7, 71, 64
9, 46652, Note_off_c, 7, 66, 64
9, 46656, Note_on_c, 7, 76, 100
9, 46656, Note_on_c, 7, 73, 100
9, 46656, Note_on_c, 7, 66, 100
9, 46844, Note_off_c, 7, 76, 64
9, 46844, Note_off_c, 7, 73, 64
9, 46844, Note_off_c, 7, 66, 64
9, 46848, Note_on_c, 7, 73, 100
9, 46848, Note_on_c, 7, 70, 100
9, 46848, Note_on_c, 7, 66, 100
9, 47036, Note_off_c, 7, 73, 64
9, 47036, Note_off_c, 7, 70, 64
9, 47036, Note_off_c, 7, 66, 64
9, 47040, Note_on_c, 7, 74, 100
9, 47040, Note_on_c, 7, 71, 100
9, 47040, Note_on_c, 7, 66, 100
9, 47228, Note_off_c, 7, 74, 64
9, 47228, Note_off_c, 7, 71, 64
9, 47228, Note_off_c, 7, 66, 64
9, 47232, Note_on_c, 7, 76, 100
9, 47232, Note_on_c, 7, 73, 100
9, 47232, Note_on_c, 7, 66, 100
9, 47420, Note_off_c, 7, 76, 64
9, 47420, Note_off_c, 7, 73, 64
9, 47420, Note_off_c, 7, 66, 64
9, 47424, Note_on_c, 7, 70, 100
9, 47424, Note_on_c, 7, 61, 100
9, 47424, Note_on_c, 7, 66, 100
9, 48332, Note_off_c, 7, 61, 64
9, 48380, Note_off_c, 7, 70, 64
9, 48380, Note_off_c, 7, 66, 64
9, 48576, Note_on_c, 7, 62, 100
9, 48576, Note_on_c, 7, 59, 100
9, 48576, Note_on_c, 7, 54, 100
9, 49148, Note_off_c, 7, 62, 64
9, 49148, Note_off_c, 7, 59, 64
9, 49148, Note_off_c, 7, 54, 64
9, 49152, Note_on_c, 7, 66, 100
9, 49152, Note_on_c, 7, 62, 100
9, 49152, Note_on_c, 7, 59, 100
9, 49724, Note_off_c, 7, 66, 64
9, 49724, Note_off_c, 7, 62, 64
9, 49724, Note_off_c, 7, 59, 64
9, 49728, Note_on_c, 7, 71, 100
9, 49728, Note_on_c, 7, 67, 100
9, 49728, Note_on_c, 7, 62, 100
9, 50300, Note_off_c, 7, 71, 64
9, 50300, Note_off_c, 7, 67, 64
9, 50300, Note_off_c, 7, 62, 64
9, 50304, Note_on_c, 7, 74, 100
9, 50304, Note_on_c, 7, 71, 100
9, 50304, Note_on_c, 7, 56, 100
9, 50492, Note_off_c, 7, 74, 64
9, 50492, Note_off_c, 7, 71, 64
9, 50492, Note_off_c, 7, 56, 64
9, 50496, Note_on_c, 7, 73, 100
9, 50496, Note_on_c, 7, 68, 100
9, 50496, Note_on_c, 7, 65, 100
9, 50876, Note_off_c, 7, 68, 64
9, 50876, Note_off_c, 7, 65, 64
9, 50880, Note_on_c, 7, 69, 100
9, 50880, Note_on_c, 7, 66, 100
9, 51260, Note_off_c, 7, 73, 64
9, 51260, Note_off_c, 7, 69, 64
9, 51260, Note_off_c, 7, 66, 64
9, 53184, Note_on_c, 7, 73, 100
9, 53184, Note_on_c, 7, 69, 100
9, 53184, Note_on_c, 7, 66, 100
9, 54716, Note_off_c, 7, 73, 64
9, 54716, Note_off_c, 7, 69, 64
9, 54716, Note_off_c, 7, 66, 64
9, 54720, Note_on_c, 7, 71, 100
9, 54720, Note_on_c, 7, 71, 100
9, 54720, Note_on_c, 7, 59, 100
9, 54908, Note_off_c, 7, 71, 64
9, 54908, Note_off_c, 7, 71, 64
9, 54908, Note_off_c, 7, 59, 64
9, 54912, Note_on_c, 7, 71, 100
9, 54912, Note_on_c, 7, 76, 100
9, 54912, Note_on_c, 7, 61, 100
9, 55100, Note_off_c, 7, 76, 64
9, 55104, Note_on_c, 7, 74, 100
9, 55292, Note_off_c, 7, 71, 64
9, 55292, Note_off_c, 7, 74, 64
9, 55296, Note_on_c, 7, 70, 100
9, 55296, Note_on_c, 7, 73, 100
9, 55484, Note_off_c, 7, 61, 64
9, 55484, Note_off_c, 7, 70, 64
9, 55484, Note_off_c, 7, 73, 64
9, 55488, Note_on_c, 7, 71, 100
9, 55488, Note_on_c, 7, 74, 100
9, 55488, Note_on_c, 7, 66, 100
9, 56060, Note_off_c, 7, 71, 64
9, 56060, Note_off_c, 7, 74, 64
9, 56060, Note_off_c, 7, 66, 64
9, 56064, Note_on_c, 7, 67, 100
9, 56064, Note_on_c, 7, 70, 100
9, 56064, Note_on_c, 7, 64, 100
9, 56636, Note_off_c, 7, 70, 64
9, 56636, Note_off_c, 7, 64, 64
9, 56640, Note_on_c, 7, 71, 100
9, 56640, Note_on_c, 7, 62, 100
9, 57020, Note_off_c, 7, 67, 64
9, 57024, Note_on_c, 7, 66, 100
9, 57212, Note_off_c, 7, 66, 64
9, 57216, Note_on_c, 7, 71, 100
9, 57596, Note_off_c, 7, 71, 64
9, 57600, Note_on_c, 7, 74, 100
9, 57788, Note_off_c, 7, 74, 64
9, 57792, Note_on_c, 7, 79, 100
9, 58364, Note_off_c, 7, 79, 64
9, 58368, Note_on_c, 7, 78, 100
9, 58940, Note_off_c, 7, 78, 64
9, 58944, Note_on_c, 7, 77, 100
9, 59516, Note_off_c, 7, 62, 64
9, 59516, Note_off_c, 7, 77, 64
9, 59520, Note_on_c, 7, 80, 100
9, 59520, Note_on_c, 7, 56, 100
9, 60092, Note_off_c, 7, 71, 64
9, 60092, Note_off_c, 7, 56, 64
9, 60096, Note_on_c, 7, 69, 100
9, 60096, Note_on_c, 7, 61, 100
9, 60284, Note_off_c, 7, 61, 64
9, 60286, Note_off_c, 7, 80, 64
9, 60286, Note_off_c, 7, 69, 64
9, 60288, Note_on_c, 7, 77, 100
9, 60288, Note_on_c, 7, 71, 100
9, 60288, Note_on_c, 7, 68, 100
9, 60476, Note_off_c, 7, 68, 64
9, 60478, Note_off_c, 7, 77, 64
9, 60478, Note_off_c, 7, 71, 64
9, 60480, Note_on_c, 7, 78, 100
9, 60480, Note_on_c, 7, 73, 100
9, 60480, Note_on_c, 7, 69, 100
9, 60668, Note_off_c, 7, 69, 64
9, 60670, Note_off_c, 7, 78, 64
9, 60672, Note_on_c, 7, 80, 100
9, 60672, Note_on_c, 7, 68, 100
9, 60718, Note_off_c, 7, 80, 64
9, 60720, Note_on_c, 7, 81, 100
9, 60766, Note_off_c, 7, 81, 64
9, 60768, Note_on_c, 7, 83, 100
9, 60800, Note_off_c, 7, 68, 64
9, 60862, Note_off_c, 7, 73, 64
9, 60862, Note_off_c, 7, 83, 64
9, 60864, Note_on_c, 7, 81, 100
9, 60864, Note_on_c, 7, 78, 100
9, 60864, Note_on_c, 7, 69, 100
9, 60992, Note_off_c, 7, 81, 64
9, 60992, Note_off_c, 7, 78, 64
9, 60992, Note_off_c, 7, 69, 64
9, 61056, Note_on_c, 7, 80, 100
9, 61056, Note_on_c, 7, 77, 100
9, 61056, Note_on_c, 7, 71, 100
9, 61184, Note_off_c, 7, 80, 64
9, 61184, Note_off_c, 7, 77, 64
9, 61184, Note_off_c, 7, 71, 64
9, 61248, Note_on_c, 7, 78, 100
9, 61248, Note_on_c, 7, 73, 100
9, 61248, Note_on_c, 7, 69, 100
9, 62204, Note_off_c, 7, 69, 64
9, 62206, Note_off_c, 7, 78, 64
9, 62206, Note_off_c, 7, 73, 64
9, 62400, Note_on_c, 7, 78, 100
9, 62400, Note_on_c, 7, 69, 100
9, 62400, Note_on_c, 7, 66, 100
9, 62588, Note_off_c, 7, 66, 64
9, 62590, Note_off_c, 7, 69, 64
9, 62592, Note_on_c, 7, 71, 100
9, 62592, Note_on_c, 7, 68, 100
9, 62780, Note_off_c, 7, 68, 64
9, 62782, Note_off_c, 7, 71, 64
9, 62784, Note_on_c, 7, 72, 100
9, 62784, Note_on_c, 7, 69, 100
9, 62972, Note_off_c, 7, 69, 64
9, 62974, Note_off_c, 7, 72, 64
9, 62976, Note_on_c, 7, 72, 100
9, 62976, Note_on_c, 7, 69, 100
9, 63164, Note_off_c, 7, 69, 64
9, 63166, Note_off_c, 7, 72, 64
9, 63168, Note_on_c, 7, 71, 100
9, 63168, Note_on_c, 7, 67, 100
9, 63356, Note_off_c, 7, 67, 64
9, 63358, Note_off_c, 7, 71, 64
9, 63360, Note_on_c, 7, 72, 100
9, 63360, Note_on_c, 7, 69, 100
9, 63548, Note_off_c, 7, 69, 64
9, 63550, Note_off_c, 7, 72, 64
9, 63552, Note_on_c, 7, 71, 100
9, 63552, Note_on_c, 7, 66, 100
9, 63740, Note_off_c, 7, 66, 64
9, 63742, Note_off_c, 7, 71, 64
9, 63744, Note_on_c, 7, 73, 100
9, 63744, Note_on_c, 7, 64, 100
9, 63840, Note_on_c, 7, 78, 100
9, 63886, Note_off_c, 7, 78, 64
9, 63888, Note_on_c, 7, 79, 100
9, 63932, Note_off_c, 7, 64, 64
9, 63934, Note_off_c, 7, 73, 64
9, 63934, Note_off_c, 7, 78, 64
9, 63934, Note_off_c, 7, 79, 64
9, 63936, Note_on_c, 7, 81, 100
9, 63936, Note_on_c, 7, 75, 100
9, 63936, Note_on_c, 7, 66, 100
9, 64124, Note_off_c, 7, 66, 64
9, 64126, Note_off_c, 7, 75, 64
9, 64128, Note_on_c, 7, 75, 100
9, 64128, Note_on_c, 7, 66, 100
9, 64414, Note_off_c, 7, 81, 64
9, 64416, Note_on_c, 7, 79, 100
9, 64508, Note_off_c, 7, 66, 64
9, 64510, Note_off_c, 7, 75, 64
9, 64510, Note_off_c, 7, 79, 64
9, 64512, Note_on_c, 7, 78, 100
9, 64702, Note_off_c, 7, 78, 64
9, 64704, Note_on_c, 7, 76, 100
9, 64704, Note_on_c, 7, 64, 100
9, 64704, Note_on_c, 7, 59, 100
9, 64892, Note_off_c, 7, 59, 64
9, 64894, Note_off_c, 7, 64, 64
9, 64896, Note_on_c, 7, 66, 100
9, 64896, Note_on_c, 7, 63, 100
9, 65084, Note_off_c, 7, 63, 64
9, 65086, Note_off_c, 7, 66, 64
9, 65088, Note_on_c, 7, 67, 100
9, 65088, Note_on_c, 7, 64, 100
9, 65276, Note_off_c, 7, 64, 64
9, 65278, Note_off_c, 7, 67, 64
9, 65280, Note_on_c, 7, 67, 100
9, 65280, Note_on_c, 7, 64, 100
9, 65468, Note_off_c, 7, 64, 64
9, 65470, Note_off_c, 7, 67, 64
9, 65472, Note_on_c, 7, 66, 100
9, 65472, Note_on_c, 7, 63, 100
9, 65660, Note_off_c, 7, 63, 64
9, 65662, Note_off_c, 7, 66, 64
9, 65664, Note_on_c, 7, 67, 100
9, 65664, Note_on_c, 7, 64, 100
9, 65852, Note_off_c, 7, 64, 64
9, 65854, Note_off_c, 7, 67, 64
9, 65856, Note_on_c, 7, 61, 100
9, 65856, Note_on_c, 7, 54, 100
9, 66044, Note_off_c, 7, 54, 64
9, 66046, Note_off_c, 7, 76, 64
9, 66048, Note_on_c, 7, 70, 100
9, 66048, Note_on_c, 7, 64, 100
9, 66236, Note_off_c, 7, 64, 64
9, 66238, Note_off_c, 7, 61, 64
9, 66238, Note_off_c, 7, 70, 64
9, 66240, Note_on_c, 7, 71, 100
9, 66240, Note_on_c, 7, 62, 100
9, 66240, Note_on_c, 7, 62, 100
9, 66428, Note_off_c, 7, 62, 64
9, 66430, Note_off_c, 7, 71, 64
9, 66430, Note_off_c, 7, 62, 64
9, 66432, Note_on_c, 7, 73, 100
9, 66432, Note_on_c, 7, 64, 100
9, 66432, Note_on_c, 7, 61, 100
9, 66526, Note_off_c, 7, 73, 64
9, 66528, Note_on_c, 7, 74, 100
9, 66622, Note_off_c, 7, 74, 64
9, 66624, Note_on_c, 7, 76, 100
9, 66812, Note_off_c, 7, 61, 64
9, 66814, Note_off_c, 7, 64, 64
9, 66814, Note_off_c, 7, 76, 64
9, 66816, Note_on_c, 7, 70, 100
9, 67006, Note_off_c, 7, 70, 64
9, 67008, Note_on_c, 7, 71, 100
9, 67008, Note_on_c, 7, 66, 100
9, 67008, Note_on_c, 7, 62, 100
9, 67196, Note_off_c, 7, 62, 64
9, 67198, Note_off_c, 7, 66, 64
9, 67200, Note_on_c, 7, 70, 100
9, 67200, Note_on_c, 7, 64, 100
9, 67388, Note_off_c, 7, 64, 64
9, 67390, Note_off_c, 7, 70, 64
9, 67392, Note_on_c, 7, 71, 100
9, 67392, Note_on_c, 7, 66, 100
9, 67580, Note_off_c, 7, 66, 64
9, 67582, Note_off_c, 7, 71, 64
9, 67584, Note_on_c, 7, 71, 100
9, 67584, Note_on_c, 7, 67, 100
9, 67772, Note_off_c, 7, 67, 64
9, 67774, Note_off_c, 7, 71, 64
9, 67776, Note_on_c, 7, 70, 100
9, 67776, Note_on_c, 7, 64, 100
9, 67964, Note_off_c, 7, 64, 64
9, 67966, Note_off_c, 7, 70, 64
9, 67968, Note_on_c, 7, 71, 100
9, 67968, Note_on_c, 7, 66, 100
9, 68156, Note_off_c, 7, 66, 64
9, 68158, Note_off_c, 7, 71, 64
9, 68160, Note_on_c, 7, 61, 100
9, 68160, Note_on_c, 7, 56, 100
9, 68350, Note_off_c, 7, 61, 64
9, 68352, Note_on_c, 7, 63, 100
9, 68446, Note_off_c, 7, 71, 64
9, 68448, Note_on_c, 7, 69, 100
9, 68540, Note_off_c, 7, 56, 64
9, 68542, Note_off_c, 7, 63, 64
9, 68542, Note_off_c, 7, 69, 64
9, 68544, Note_on_c, 7, 68, 100
9, 68544, Note_on_c, 7, 65, 100
9, 68544, Note_on_c, 7, 61, 100
9, 68732, Note_off_c, 7, 61, 64
9, 68734, Note_off_c, 7, 68, 64
9, 68734, Note_off_c, 7, 65, 64
9, 68736, Note_on_c, 7, 68, 100
9, 68736, Note_on_c, 7, 65, 100
9, 68736, Note_on_c, 7, 68, 100
9, 68782, Note_off_c, 7, 68, 64
9, 68784, Note_on_c, 7, 69, 100
9, 68830, Note_off_c, 7, 69, 64
9, 68832, Note_on_c, 7, 71, 100
9, 69022, Note_off_c, 7, 71, 64
9, 69024, Note_on_c, 7, 69, 100
9, 69116, Note_off_c, 7, 68, 64
9, 69118, Note_off_c, 7, 65, 64
9, 69118, Note_off_c, 7, 69, 64
9, 69120, Note_on_c, 7, 68, 100
9, 69310, Note_off_c, 7, 68, 64
9, 69312, Note_on_c, 7, 66, 100
9, 69312, Note_on_c, 7, 61, 100
9, 69312, Note_on_c, 7, 57, 100
9, 69884, Note_off_c, 7, 57, 64
9, 69886, Note_off_c, 7, 66, 64
9, 69886, Note_off_c, 7, 61, 64
9, 69888, Note_on_c, 7, 69, 100
9, 69888, Note_on_c, 7, 66, 100
9, 69888, Note_on_c, 7, 61, 100
9, 70460, Note_off_c, 7, 61, 64
9, 70462, Note_off_c, 7, 69, 64
9, 70462, Note_off_c, 7, 66, 64
9, 70464, Note_on_c, 7, 74, 100
9, 70464, Note_on_c, 7, 69, 100
9, 70464, Note_on_c, 7, 66, 100
9, 70848, Note_on_c, 7, 73, 100
9, 71036, Note_off_c, 7, 66, 64
9, 71038, Note_off_c, 7, 74, 64
9, 71038, Note_off_c, 7, 69, 64
9, 71038, Note_off_c, 7, 73, 64
9, 71040, Note_on_c, 7, 80, 100
9, 71040, Note_on_c, 7, 68, 100
9, 71040, Note_on_c, 7, 60, 100
9, 71228, Note_off_c, 7, 60, 64
9, 71230, Note_off_c, 7, 80, 64
9, 71230, Note_off_c, 7, 68, 64
9, 72192, Note_on_c, 7, 73, 100
9, 72192, Note_on_c, 7, 69, 100
9, 72192, Note_on_c, 7, 66, 100
9, 72766, Note_off_c, 7, 73, 64
9, 72768, Note_on_c, 7, 74, 100
9, 73342, Note_off_c, 7, 74, 64
9, 73344, Note_on_c, 7, 73, 100
9, 73918, Note_off_c, 7, 73, 64
9, 73920, Note_on_c, 7, 72, 100
9, 74300, Note_off_c, 7, 66, 64
9, 74302, Note_off_c, 7, 69, 64
9, 74302, Note_off_c, 7, 72, 64
9, 75072, Note_on_c, 7, 68, 100
9, 75072, Note_on_c, 7, 68, 100
9, 75072, Note_on_c, 7, 65, 100
9, 75260, Note_off_c, 7, 65, 64
9, 75264, Note_on_c, 7, 68, 100
9, 75432, Note_on_c, 7, 71, 100
9, 75452, Note_off_c, 7, 68, 64
9, 75644, Note_off_c, 7, 68, 64
9, 75648, Note_on_c, 7, 73, 100
9, 75812, Note_off_c, 7, 71, 64
9, 75816, Note_on_c, 7, 69, 100
9, 76004, Note_off_c, 7, 69, 64
9, 76008, Note_on_c, 7, 68, 100
9, 76196, Note_off_c, 7, 68, 64
9, 76220, Note_off_c, 7, 68, 64
9, 76224, Note_on_c, 7, 66, 100
9, 76224, Note_on_c, 7, 69, 100
9, 76796, Note_off_c, 7, 73, 64
9, 76796, Note_off_c, 7, 69, 64
9, 76798, Note_off_c, 7, 66, 64
9, 76800, Note_on_c, 7, 77, 100
9, 76800, Note_on_c, 7, 68, 100
9, 76800, Note_on_c, 7, 73, 100
9, 76990, Note_off_c, 7, 68, 64
9, 76992, Note_on_c, 7, 69, 100
9, 77182, Note_off_c, 7, 69, 64
9, 77184, Note_on_c, 7, 71, 100
9, 77372, Note_off_c, 7, 73, 64
9, 77374, Note_off_c, 7, 77, 64
9, 77374, Note_off_c, 7, 71, 64
9, 77376, Note_on_c, 7, 78, 100
9, 77376, Note_on_c, 7, 69, 100
9, 77376, Note_on_c, 7, 61, 100
9, 77564, Note_off_c, 7, 61, 64
9, 77568, Note_on_c, 7, 66, 100
9, 77758, Note_off_c, 7, 69, 64
9, 77760, Note_on_c, 7, 71, 100
9, 77950, Note_off_c, 7, 78, 64
9, 77950, Note_off_c, 7, 71, 64
9, 77952, Note_on_c, 7, 76, 100
9, 77952, Note_on_c, 7, 73, 100
9, 78526, Note_off_c, 7, 76, 64
9, 78526, Note_off_c, 7, 73, 64
9, 78528, Note_on_c, 7, 74, 100
9, 78528, Note_on_c, 7, 71, 100
9, 79102, Note_off_c, 7, 74, 64
9, 79102, Note_off_c, 7, 71, 64
9, 79104, Note_on_c, 7, 73, 100
9, 79104, Note_on_c, 7, 70, 100
9, 79484, Note_off_c, 7, 66, 64
9, 79488, Note_on_c, 7, 64, 100
9, 79676, Note_off_c, 7, 64, 64
9, 79678, Note_off_c, 7, 73, 64
9, 79678, Note_off_c, 7, 70, 64
9, 79680, Note_on_c, 7, 71, 100
9, 79680, Note_on_c, 7, 71, 100
9, 79680, Note_on_c, 7, 62, 100
9, 80060, Note_off_c, 7, 62, 64
9, 80064, Note_on_c, 7, 64, 100
9, 80252, Note_off_c, 7, 64, 64
9, 80254, Note_off_c, 7, 71, 64
9, 80256, Note_on_c, 7, 78, 100
9, 80256, Note_on_c, 7, 66, 100
9, 80638, Note_off_c, 7, 71, 64
9, 80640, Note_on_c, 7, 75, 100
9, 80828, Note_off_c, 7, 66, 64
9, 80830, Note_off_c, 7, 78, 64
9, 80830, Note_off_c, 7, 75, 64
9, 80832, Note_on_c, 7, 79, 100
9, 80832, Note_on_c, 7, 76, 100
9, 80832, Note_on_c, 7, 64, 100
9, 82556, Note_off_c, 7, 64, 64
9, 82558, Note_off_c, 7, 79, 64
9, 82560, Note_on_c, 7, 73, 100
9, 82560, Note_on_c, 7, 58, 100
9, 83132, Note_off_c, 7, 58, 64
9, 83134, Note_off_c, 7, 76, 64
9, 83134, Note_off_c, 7, 73, 64
9, 83136, Note_on_c, 7, 74, 100
9, 83136, Note_on_c, 7, 74, 100
9, 83136, Note_on_c, 7, 66, 100
9, 83708, Note_off_c, 7, 66, 64
9, 83710, Note_off_c, 7, 74, 64
9, 83710, Note_off_c, 7, 74, 64
9, 83712, Note_on_c, 7, 76, 100
9, 83712, Note_on_c, 7, 71, 100
9, 83712, Note_on_c, 7, 67, 100
9, 84284, Note_off_c, 7, 67, 64
9, 84286, Note_off_c, 7, 76, 64
9, 84286, Note_off_c, 7, 71, 64
9, 84288, Note_on_c, 7, 78, 100
9, 84288, Note_on_c, 7, 70, 100
9, 84288, Note_on_c, 7, 61, 100
9, 84476, Note_off_c, 7, 61, 64
9, 84478, Note_off_c, 7, 70, 64
9, 84480, Note_on_c, 7, 71, 100
9, 84480, Note_on_c, 7, 62, 100
9, 84668, Note_off_c, 7, 62, 64
9, 84670, Note_off_c, 7, 71, 64
9, 84672, Note_on_c, 7, 73, 100
9, 84672, Note_on_c, 7, 64, 100
9, 84860, Note_off_c, 7, 64, 64
9, 84862, Note_off_c, 7, 73, 64
9, 84864, Note_on_c, 7, 61, 100
9, 84864, Note_on_c, 7, 58, 100
9, 85052, Note_off_c, 7, 58, 64
9, 85054, Note_off_c, 7, 61, 64
9, 85056, Note_on_c, 7, 62, 100
9, 85056, Note_on_c, 7, 59, 100
9, 85244, Note_off_c, 7, 59, 64
9, 85246, Note_off_c, 7, 78, 64
9, 85246, Note_off_c, 7, 62, 64
9, 85248, Note_on_c, 7, 70, 100
9, 85248, Note_on_c, 7, 64, 100
9, 85248, Note_on_c, 7, 61, 100
9, 85436, Note_off_c, 7, 61, 64
9, 85438, Note_off_c, 7, 70, 64
9, 85438, Note_off_c, 7, 64, 64
9, 85440, Note_on_c, 7, 69, 100
9, 85440, Note_on_c, 7, 66, 100
9, 85440, Note_on_c, 7, 59, 100
9, 85486, Note_off_c, 7, 69, 64
9, 85488, Note_on_c, 7, 71, 100
9, 85534, Note_off_c, 7, 71, 64
9, 85536, Note_on_c, 7, 72, 100
9, 85628, Note_off_c, 7, 59, 64
9, 85630, Note_off_c, 7, 66, 64
9, 85632, Note_on_c, 7, 66, 100
9, 85632, Note_on_c, 7, 59, 100
9, 85728, Note_on_c, 7, 71, 100
9, 85820, Note_off_c, 7, 59, 64
9, 85822, Note_off_c, 7, 72, 64
9, 85822, Note_off_c, 7, 66, 64
9, 85822, Note_off_c, 7, 71, 64
9, 85824, Note_on_c, 7, 69, 100
9, 85824, Note_on_c, 7, 66, 100
9, 85824, Note_on_c, 7, 59, 100
9, 86012, Note_off_c, 7, 59, 64
9, 86014, Note_off_c, 7, 69, 64
9, 86014, Note_off_c, 7, 66, 64
9, 86016, Note_on_c, 7, 75, 100
9, 86016, Note_on_c, 7, 66, 100
9, 86016, Note_on_c, 7, 59, 100
9, 86204, Note_off_c, 7, 59, 64
9, 86206, Note_off_c, 7, 66, 64
9, 86208, Note_on_c, 7, 66, 100
9, 86208, Note_on_c, 7, 59, 100
9, 86302, Note_off_c, 7, 75, 64
9, 86304, Note_on_c, 7, 76, 100
9, 86396, Note_off_c, 7, 59, 64
9, 86398, Note_off_c, 7, 66, 64
9, 86398, Note_off_c, 7, 76, 64
9, 86400, Note_on_c, 7, 78, 100
9, 86400, Note_on_c, 7, 66, 100
9, 86400, Note_on_c, 7, 59, 100
9, 86588, Note_off_c, 7, 59, 64
9, 86590, Note_off_c, 7, 78, 64
9, 86590, Note_off_c, 7, 66, 64
9, 86592, Note_on_c, 7, 78, 100
9, 86592, Note_on_c, 7, 67, 100
9, 86592, Note_on_c, 7, 59, 100
9, 86780, Note_off_c, 7, 59, 64
9, 86782, Note_off_c, 7, 78, 64
9, 86782, Note_off_c, 7, 67, 64
9, 86784, Note_on_c, 7, 76, 100
9, 86784, Note_on_c, 7, 64, 100
9, 86784, Note_on_c, 7, 55, 100
9, 86972, Note_off_c, 7, 55, 64
9, 86974, Note_off_c, 7, 64, 64
9, 86976, Note_on_c, 7, 66, 100
9, 86976, Note_on_c, 7, 57, 100
9, 87164, Note_off_c, 7, 57, 64
9, 87166, Note_off_c, 7, 66, 64
9, 87168, Note_on_c, 7, 67, 100
9, 87168, Note_on_c, 7, 59, 100
9, 87356, Note_off_c, 7, 59, 64
9, 87358, Note_off_c, 7, 67, 64
9, 87360, Note_on_c, 7, 64, 100
9, 87360, Note_on_c, 7, 61, 100
9, 87548, Note_off_c, 7, 61, 64
9, 87550, Note_off_c, 7, 76, 64
9, 87550, Note_off_c, 7, 64, 64
9, 87552, Note_on_c, 7, 67, 100
9, 87552, Note_on_c, 7, 62, 100
9, 87552, Note_on_c, 7, 59, 100
9, 87740, Note_off_c, 7, 59, 64
9, 87742, Note_off_c, 7, 62, 64
9, 87744, Note_on_c, 7, 61, 100
9, 87744, Note_on_c, 7, 57, 100
9, 87932, Note_off_c, 7, 57, 64
9, 87934, Note_off_c, 7, 61, 64
9, 87936, Note_on_c, 7, 62, 100
9, 87936, Note_on_c, 7, 59, 100
9, 88030, Note_off_c, 7, 67, 64
9, 88032, Note_on_c, 7, 66, 100
9, 88124, Note_off_c, 7, 59, 64
9, 88126, Note_off_c, 7, 62, 64
9, 88126, Note_off_c, 7, 66, 64
9, 88128, Note_on_c, 7, 64, 100
9, 88128, Note_on_c, 7, 64, 100
9, 88128, Note_on_c, 7, 61, 100
9, 88316, Note_off_c, 7, 61, 64
9, 88318, Note_off_c, 7, 64, 64
9, 88320, Note_on_c, 7, 70, 100
9, 88320, Note_on_c, 7, 54, 100
9, 88508, Note_off_c, 7, 54, 64
9, 88510, Note_off_c, 7, 64, 64
9, 88512, Note_on_c, 7, 62, 100
9, 88512, Note_on_c, 7, 54, 100
9, 88606, Note_off_c, 7, 70, 64
9, 88608, Note_on_c, 7, 71, 100
9, 88700, Note_off_c, 7, 54, 64
9, 88702, Note_off_c, 7, 62, 64
9, 88702, Note_off_c, 7, 71, 64
9, 88704, Note_on_c, 7, 73, 100
9, 88704, Note_on_c, 7, 61, 100
9, 88704, Note_on_c, 7, 54, 100
9, 88892, Note_off_c, 7, 54, 64
9, 88894, Note_off_c, 7, 73, 64
9, 88894, Note_off_c, 7, 61, 64
9, 88896, Note_on_c, 7, 71, 100
9, 88896, Note_on_c, 7, 62, 100
9, 88896, Note_on_c, 7, 54, 100
9, 89084, Note_off_c, 7, 54, 64
9, 89086, Note_off_c, 7, 62, 64
9, 89088, Note_on_c, 7, 59, 100
9, 89088, Note_on_c, 7, 50, 100
9, 89276, Note_off_c, 7, 50, 64
9, 89278, Note_off_c, 7, 59, 64
9, 89280, Note_on_c, 7, 58, 100
9, 89280, Note_on_c, 7, 52, 100
9, 89408, Note_off_c, 7, 58, 64
9, 89408, Note_off_c, 7, 52, 64
9, 89472, Note_on_c, 7, 59, 100
9, 89472, Note_on_c, 7, 54, 100
9, 89660, Note_off_c, 7, 54, 64
9, 89662, Note_off_c, 7, 59, 64
9, 89664, Note_on_c, 7, 71, 100
9, 89664, Note_on_c, 7, 62, 100
9, 89852, Note_off_c, 7, 62, 64
9, 89854, Note_off_c, 7, 71, 64
9, 89854, Note_off_c, 7, 71, 64
9, 89856, Note_on_c, 7, 73, 100
9, 89856, Note_on_c, 7, 70, 100
9, 89856, Note_on_c, 7, 61, 100
9, 89984, Note_off_c, 7, 70, 64
9, 89984, Note_off_c, 7, 61, 64
9, 90046, Note_off_c, 7, 73, 64
9, 90048, Note_on_c, 7, 74, 100
9, 90048, Note_on_c, 7, 71, 100
9, 90048, Note_on_c, 7, 59, 100
9, 91390, Note_off_c, 7, 74, 64
9, 91392, Note_on_c, 7, 73, 100
9, 91582, Note_off_c, 7, 73, 64
9, 91584, Note_on_c, 7, 71, 100
9, 91772, Note_off_c, 7, 59, 64
9, 91774, Note_off_c, 7, 71, 64
9, 91774, Note_off_c, 7, 71, 64
9, 91776, Note_on_c, 7, 69, 100
9, 91776, Note_on_c, 7, 75, 100
9, 91776, Note_on_c, 7, 66, 100
9, 91964, Note_off_c, 7, 66, 64
9, 91966, Note_off_c, 7, 69, 64
9, 91968, Note_on_c, 7, 67, 100
9, 91968, Note_on_c, 7, 67, 100
9, 92156, Note_off_c, 7, 67, 64
9, 92158, Note_off_c, 7, 67, 64
9, 92160, Note_on_c, 7, 66, 100
9, 92160, Note_on_c, 7, 69, 100
9, 92348, Note_off_c, 7, 69, 64
9, 92350, Note_off_c, 7, 75, 64
9, 92350, Note_off_c, 7, 66, 64
9, 92352, Note_on_c, 7, 71, 100
9, 92352, Note_on_c, 7, 76, 100
9, 92352, Note_on_c, 7, 67, 100
9, 92924, Note_off_c, 7, 67, 64
9, 92926, Note_off_c, 7, 76, 64
9, 92928, Note_on_c, 7, 81, 100
9, 92928, Note_on_c, 7, 66, 100
9, 93310, Note_off_c, 7, 81, 64
9, 93312, Note_on_c, 7, 75, 100
9, 93500, Note_off_c, 7, 66, 64
9, 93502, Note_off_c, 7, 75, 64
9, 93504, Note_on_c, 7, 76, 100
9, 93504, Note_on_c, 7, 64, 100
9, 94078, Note_off_c, 7, 76, 64
9, 94080, Note_on_c, 7, 71, 100
9, 94654, Note_off_c, 7, 71, 64
9, 94654, Note_off_c, 7, 71, 64
9, 94656, Note_on_c, 7, 79, 100
9, 94656, Note_on_c, 7, 72, 100
9, 95230, Note_off_c, 7, 72, 64
9, 95232, Note_on_c, 7, 76, 100
9, 96382, Note_off_c, 7, 79, 64
9, 96384, Note_on_c, 7, 73, 100
9, 96574, Note_off_c, 7, 76, 64
9, 96576, Note_on_c, 7, 74, 100
9, 96764, Note_off_c, 7, 64, 64
9, 96766, Note_off_c, 7, 74, 64
9, 96768, Note_on_c, 7, 73, 100
9, 96768, Note_on_c, 7, 66, 100
9, 96956, Note_off_c, 7, 66, 64
9, 96958, Note_off_c, 7, 73, 64
9, 96958, Note_off_c, 7, 73, 64
9, 96960, Note_on_c, 7, 78, 100
9, 96960, Note_on_c, 7, 71, 100
9, 96960, Note_on_c, 7, 59, 100
9, 97534, Note_off_c, 7, 78, 64
9, 97536, Note_on_c, 7, 74, 100
9, 98108, Note_off_c, 7, 59, 64
9, 98110, Note_off_c, 7, 71, 64
9, 98110, Note_off_c, 7, 74, 64
9, 98112, Note_on_c, 7, 78, 100
9, 98112, Note_on_c, 7, 76, 100
9, 98112, Note_on_c, 7, 66, 100
9, 99068, Note_off_c, 7, 66, 64
9, 99070, Note_off_c, 7, 78, 64
9, 99070, Note_off_c, 7, 76, 64
9, 99264, Note_on_c, 7, 70, 100
9, 99264, Note_on_c, 7, 66, 100
9, 99264, Note_on_c, 7, 61, 100
9, 99452, Note_off_c, 7, 61, 64
9, 99454, Note_off_c, 7, 70, 64
9, 99454, Note_off_c, 7, 66, 64
9, 99456, Note_on_c, 7, 71, 100
9, 99456, Note_on_c, 7, 68, 100
9, 99456, Note_on_c, 7, 62, 100
9, 99644, Note_off_c, 7, 62, 64
9, 99646, Note_off_c, 7, 71, 64
9, 99646, Note_off_c, 7, 68, 64
9, 99648, Note_on_c, 7, 73, 100
9, 99648, Note_on_c, 7, 70, 100
9, 99648, Note_on_c, 7, 64, 100
9, 99836, Note_off_c, 7, 64, 64
9, 99838, Note_off_c, 7, 73, 64
9, 99838, Note_off_c, 7, 70, 64
9, 99840, Note_on_c, 7, 73, 100
9, 99840, Note_on_c, 7, 70, 100
9, 99840, Note_on_c, 7, 54, 100
9, 100028, Note_off_c, 7, 54, 64
9, 100030, Note_off_c, 7, 73, 64
9, 100030, Note_off_c, 7, 70, 64
9, 100032, Note_on_c, 7, 74, 100
9, 100032, Note_on_c, 7, 71, 100
9, 100032, Note_on_c, 7, 54, 100
9, 100220, Note_off_c, 7, 54, 64
9, 100222, Note_off_c, 7, 74, 64
9, 100222, Note_off_c, 7, 71, 64
9, 100224, Note_on_c, 7, 76, 100
9, 100224, Note_on_c, 7, 73, 100
9, 100224, Note_on_c, 7, 54, 100
9, 100412, Note_off_c, 7, 54, 64
9, 100414, Note_off_c, 7, 76, 64
9, 100414, Note_off_c, 7, 73, 64
9, 100416, Note_on_c, 7, 70, 100
9, 100416, Note_on_c, 7, 61, 100
9, 100416, Note_on_c, 7, 54, 100
9, 101326, Note_off_c, 7, 70, 64
9, 101326, Note_off_c, 7, 61, 64
9, 101372, Note_off_c, 7, 54, 64
9, 101568, Note_on_c, 7, 66, 100
9, 101568, Note_on_c, 7, 63, 100
9, 101568, Note_on_c, 7, 54, 100
9, 101756, Note_off_c, 7, 54, 64
9, 101758, Note_off_c, 7, 66, 64
9, 101758, Note_off_c, 7, 63, 64
9, 101760, Note_on_c, 7, 67, 100
9, 101760, Note_on_c, 7, 64, 100
9, 101760, Note_on_c, 7, 59, 100
9, 101948, Note_off_c, 7, 59, 64
9, 101950, Note_off_c, 7, 67, 64
9, 101950, Note_off_c, 7, 64, 64
9, 101952, Note_on_c, 7, 69, 100
9, 101952, Note_on_c, 7, 66, 100
9, 101952, Note_on_c, 7, 59, 100
9, 102140, Note_off_c, 7, 59, 64
9, 102142, Note_off_c, 7, 69, 64
9, 102142, Note_off_c, 7, 66, 64
9, 102144, Note_on_c, 7, 66, 100
9, 102144, Note_on_c, 7, 63, 100
9, 102144, Note_on_c, 7, 59, 100
9, 102332, Note_off_c, 7, 59, 64
9, 102334, Note_off_c, 7, 66, 64
9, 102334, Note_off_c, 7, 63, 64
9, 102336, Note_on_c, 7, 67, 100
9, 102336, Note_on_c, 7, 64, 100
9, 102336, Note_on_c, 7, 59, 100
9, 102524, Note_off_c, 7, 59, 64
9, 102526, Note_off_c, 7, 67, 64
9, 102526, Note_off_c, 7, 64, 64
9, 102528, Note_on_c, 7, 69, 100
9, 102528, Note_on_c, 7, 66, 100
9, 102528, Note_on_c, 7, 59, 100
9, 102716, Note_off_c, 7, 59, 64
9, 102718, Note_off_c, 7, 69, 64
9, 102718, Note_off_c, 7, 66, 64
9, 102720, Note_on_c, 7, 69, 100
9, 102720, Note_on_c, 7, 66, 100
9, 102720, Note_on_c, 7, 59, 100
9, 103630, Note_off_c, 7, 66, 64
9, 103676, Note_off_c, 7, 59, 64
9, 103678, Note_off_c, 7, 69, 64
9, 103872, Note_on_c, 7, 67, 100
9, 103872, Note_on_c, 7, 64, 100
9, 103872, Note_on_c, 7, 59, 100
9, 104444, Note_off_c, 7, 59, 64
9, 104446, Note_off_c, 7, 67, 64
9, 104446, Note_off_c, 7, 64, 64
9, 104448, Note_on_c, 7, 71, 100
9, 104448, Note_on_c, 7, 67, 100
9, 104448, Note_on_c, 7, 71, 100
9, 105020, Note_off_c, 7, 71, 64
9, 105022, Note_off_c, 7, 67, 64
9, 105022, Note_off_c, 7, 71, 64
9, 105024, Note_on_c, 7, 76, 100
9, 105024, Note_on_c, 7, 72, 100
9, 105024, Note_on_c, 7, 67, 100
9, 105598, Note_off_c, 7, 76, 64
9, 105598, Note_off_c, 7, 72, 64
9, 105600, Note_on_c, 7, 73, 100
9, 105600, Note_on_c, 7, 76, 100
9, 105694, Note_off_c, 7, 73, 64
9, 105694, Note_off_c, 7, 76, 64
9, 105696, Note_on_c, 7, 70, 100
9, 105696, Note_on_c, 7, 73, 100
9, 105718, Note_off_c, 7, 70, 64
9, 105720, Note_on_c, 7, 71, 100
9, 105742, Note_off_c, 7, 71, 64
9, 105744, Note_on_c, 7, 70, 100
9, 105766, Note_off_c, 7, 70, 64
9, 105768, Note_on_c, 7, 71, 100
9, 105788, Note_off_c, 7, 67, 64
9, 105790, Note_off_c, 7, 71, 64
9, 105792, Note_on_c, 7, 70, 100
9, 105792, Note_on_c, 7, 66, 100
9, 105814, Note_off_c, 7, 70, 64
9, 105816, Note_on_c, 7, 71, 100
9, 105838, Note_off_c, 7, 71, 64
9, 105840, Note_on_c, 7, 70, 100
9, 105862, Note_off_c, 7, 70, 64
9, 105864, Note_on_c, 7, 71, 100
9, 105886, Note_off_c, 7, 71, 64
9, 105888, Note_on_c, 7, 70, 100
9, 105910, Note_off_c, 7, 70, 64
9, 105912, Note_on_c, 7, 71, 100
9, 105934, Note_off_c, 7, 71, 64
9, 105936, Note_on_c, 7, 70, 100
9, 105958, Note_off_c, 7, 70, 64
9, 105960, Note_on_c, 7, 71, 100
9, 105982, Note_off_c, 7, 71, 64
9, 105984, Note_on_c, 7, 70, 100
9, 106006, Note_off_c, 7, 70, 64
9, 106008, Note_on_c, 7, 71, 100
9, 106030, Note_off_c, 7, 71, 64
9, 106032, Note_on_c, 7, 70, 100
9, 106054, Note_off_c, 7, 70, 64
9, 106056, Note_on_c, 7, 71, 100
9, 106078, Note_off_c, 7, 71, 64
9, 106080, Note_on_c, 7, 70, 100
9, 106102, Note_off_c, 7, 70, 64
9, 106104, Note_on_c, 7, 71, 100
9, 106126, Note_off_c, 7, 71, 64
9, 106128, Note_on_c, 7, 70, 100
9, 106150, Note_off_c, 7, 70, 64
9, 106152, Note_on_c, 7, 71, 100
9, 106174, Note_off_c, 7, 73, 64
9, 106174, Note_off_c, 7, 71, 64
9, 106176, Note_on_c, 7, 71, 100
9, 106176, Note_on_c, 7, 71, 100
9, 106364, Note_off_c, 7, 66, 64
9, 106366, Note_off_c, 7, 71, 64
9, 106366, Note_off_c, 7, 71, 64
9, 108480, Note_on_c, 7, 71, 100
9, 108480, Note_on_c, 7, 66, 100
9, 108480, Note_on_c, 7, 62, 100
9, 109630, Note_off_c, 7, 66, 64
9, 109632, Note_on_c, 7, 67, 100
9, 110204, Note_off_c, 7, 62, 64
9, 110206, Note_off_c, 7, 71, 64
9, 110206, Note_off_c, 7, 67, 64
9, 110208, Note_on_c, 7, 75, 100
9, 110208, Note_on_c, 7, 69, 100
9, 110208, Note_on_c, 7, 66, 100
9, 110780, Note_off_c, 7, 66, 64
9, 110782, Note_off_c, 7, 75, 64
9, 110782, Note_off_c, 7, 69, 64
9, 110784, Note_on_c, 7, 76, 100
9, 110784, Note_on_c, 7, 71, 100
9, 110784, Note_on_c, 7, 59, 100
9, 111356, Note_off_c, 7, 59, 64
9, 111358, Note_off_c, 7, 76, 64
9, 111360, Note_on_c, 7, 75, 100
9, 111360, Note_on_c, 7, 57, 100
9, 111932, Note_off_c, 7, 57, 64
9, 111934, Note_off_c, 7, 75, 64
9, 111936, Note_on_c, 7, 76, 100
9, 111936, Note_on_c, 7, 55, 100
9, 112508, Note_off_c, 7, 55, 64
9, 112512, Note_on_c, 7, 67, 100
9, 113084, Note_off_c, 7, 67, 64
9, 113086, Note_off_c, 7, 71, 64
9, 113086, Note_off_c, 7, 76, 64
9, 113088, Note_on_c, 7, 79, 100
9, 113088, Note_on_c, 7, 76, 100
9, 113088, Note_on_c, 7, 72, 100
9, 113660, Note_off_c, 7, 72, 64
9, 113664, Note_on_c, 7, 71, 100
9, 114236, Note_off_c, 7, 71, 64
9, 114240, Note_on_c, 7, 70, 100
9, 114812, Note_off_c, 7, 70, 64
9, 114814, Note_off_c, 7, 79, 64
9, 114816, Note_on_c, 7, 73, 100
9, 114816, Note_on_c, 7, 73, 100
9, 115388, Note_off_c, 7, 73, 64
9, 115390, Note_off_c, 7, 76, 64
9, 115390, Note_off_c, 7, 73, 64
9, 115392, Note_on_c, 7, 74, 100
9, 115392, Note_on_c, 7, 74, 100
9, 115392, Note_on_c, 7, 66, 100
9, 115964, Note_off_c, 7, 66, 64
9, 115966, Note_off_c, 7, 74, 64
9, 115966, Note_off_c, 7, 74, 64
9, 115968, Note_on_c, 7, 76, 100
9, 115968, Note_on_c, 7, 71, 100
9, 115968, Note_on_c, 7, 67, 100
9, 116540, Note_off_c, 7, 67, 64
9, 116542, Note_off_c, 7, 76, 64
9, 116542, Note_off_c, 7, 71, 64
9, 116544, Note_on_c, 7, 78, 100
9, 116544, Note_on_c, 7, 70, 100
9, 116544, Note_on_c, 7, 61, 100
9, 117500, Note_off_c, 7, 61, 64
9, 117502, Note_off_c, 7, 78, 64
9, 117502, Note_off_c, 7, 70, 64
9, 117696, Note_on_c, 7, 70, 100
9, 117696, Note_on_c, 7, 66, 100
9, 117696, Note_on_c, 7, 61, 100
9, 117884, Note_off_c, 7, 61, 64
9, 117886, Note_off_c, 7, 70, 64
9, 117886, Note_off_c, 7, 66, 64
9, 117888, Note_on_c, 7, 71, 100
9, 117888, Note_on_c, 7, 68, 100
9, 117888, Note_on_c, 7, 62, 100
9, 118076, Note_off_c, 7, 62, 64
9, 118078, Note_off_c, 7, 71, 64
9, 118078, Note_off_c, 7, 68, 64
9, 118080, Note_on_c, 7, 73, 100
9, 118080, Note_on_c, 7, 70, 100
9, 118080, Note_on_c, 7, 64, 100
9, 118268, Note_off_c, 7, 64, 64
9, 118270, Note_off_c, 7, 73, 64
9, 118270, Note_off_c, 7, 70, 64
9, 118272, Note_on_c, 7, 73, 100
9, 118272, Note_on_c, 7, 70, 100
9, 118272, Note_on_c, 7, 54, 100
9, 118460, Note_off_c, 7, 54, 64
9, 118462, Note_off_c, 7, 73, 64
9, 118462, Note_off_c, 7, 70, 64
9, 118464, Note_on_c, 7, 74, 100
9, 118464, Note_on_c, 7, 71, 100
9, 118464, Note_on_c, 7, 54, 100
9, 118652, Note_off_c, 7, 54, 64
9, 118654, Note_off_c, 7, 74, 64
9, 118654, Note_off_c, 7, 71, 64
9, 118656, Note_on_c, 7, 76, 100
9, 118656, Note_on_c, 7, 73, 100
9, 118656, Note_on_c, 7, 54, 100
9, 118844, Note_off_c, 7, 54, 64
9, 118846, Note_off_c, 7, 76, 64
9, 118846, Note_off_c, 7, 73, 64
9, 118848, Note_on_c, 7, 76, 100
9, 118848, Note_on_c, 7, 73, 100
9, 118848, Note_on_c, 7, 70, 100
9, 119804, Note_off_c, 7, 70, 64
9, 119806, Note_off_c, 7, 76, 64
9, 119806, Note_off_c, 7, 73, 64
9, 120000, Note_on_c, 7, 66, 100
9, 120000, Note_on_c, 7, 63, 100
9, 120000, Note_on_c, 7, 57, 100
9, 120188, Note_off_c, 7, 57, 64
9, 120190, Note_off_c, 7, 66, 64
9, 120190, Note_off_c, 7, 63, 64
9, 120192, Note_on_c, 7, 67, 100
9, 120192, Note_on_c, 7, 64, 100
9, 120192, Note_on_c, 7, 55, 100
9, 120380, Note_off_c, 7, 55, 64
9, 120382, Note_off_c, 7, 67, 64
9, 120382, Note_off_c, 7, 64, 64
9, 120384, Note_on_c, 7, 69, 100
9, 120384, Note_on_c, 7, 66, 100
9, 120384, Note_on_c, 7, 54, 100
9, 120572, Note_off_c, 7, 54, 64
9, 120574, Note_off_c, 7, 69, 64
9, 120574, Note_off_c, 7, 66, 64
9, 120576, Note_on_c, 7, 66, 100
9, 120576, Note_on_c, 7, 63, 100
9, 120576, Note_on_c, 7, 59, 100
9, 120764, Note_off_c, 7, 59, 64
9, 120766, Note_off_c, 7, 66, 64
9, 120766, Note_off_c, 7, 63, 64
9, 120768, Note_on_c, 7, 67, 100
9, 120768, Note_on_c, 7, 64, 100
9, 120768, Note_on_c, 7, 59, 100
9, 120956, Note_off_c, 7, 59, 64
9, 120958, Note_off_c, 7, 67, 64
9, 120958, Note_off_c, 7, 64, 64
9, 120960, Note_on_c, 7, 69, 100
9, 120960, Note_on_c, 7, 66, 100
9, 120960, Note_on_c, 7, 59, 100
9, 121148, Note_off_c, 7, 59, 64
9, 121150, Note_off_c, 7, 69, 64
9, 121150, Note_off_c, 7, 66, 64
9, 121152, Note_on_c, 7, 69, 100
9, 121152, Note_on_c, 7, 66, 100
9, 121152, Note_on_c, 7, 63, 100
9, 122108, Note_off_c, 7, 63, 64
9, 122110, Note_off_c, 7, 69, 64
9, 122110, Note_off_c, 7, 66, 64
9, 122304, Note_on_c, 7, 67, 100
9, 122304, Note_on_c, 7, 64, 100
9, 122304, Note_on_c, 7, 59, 100
9, 122876, Note_off_c, 7, 59, 64
9, 122878, Note_off_c, 7, 67, 64
9, 122878, Note_off_c, 7, 64, 64
9, 122880, Note_on_c, 7, 71, 100
9, 122880, Note_on_c, 7, 67, 100
9, 122880, Note_on_c, 7, 64, 100
9, 123452, Note_off_c, 7, 64, 64
9, 123454, Note_off_c, 7, 71, 64
9, 123454, Note_off_c, 7, 67, 64
9, 123456, Note_on_c, 7, 76, 100
9, 123456, Note_on_c, 7, 72, 100
9, 123456, Note_on_c, 7, 67, 100
9, 124028, Note_off_c, 7, 67, 64
9, 124030, Note_off_c, 7, 76, 64
9, 124030, Note_off_c, 7, 72, 64
9, 124032, Note_on_c, 7, 79, 100
9, 124032, Note_on_c, 7, 76, 100
9, 124032, Note_on_c, 7, 61, 100
9, 124220, Note_off_c, 7, 61, 64
9, 124222, Note_off_c, 7, 79, 64
9, 124222, Note_off_c, 7, 76, 64
9, 124224, Note_on_c, 7, 78, 100
9, 124224, Note_on_c, 7, 73, 100
9, 124224, Note_on_c, 7, 70, 100
9, 124604, Note_off_c, 7, 70, 64
9, 124606, Note_off_c, 7, 73, 64
9, 124608, Note_on_c, 7, 74, 100
9, 124608, Note_on_c, 7, 71, 100
9, 124796, Note_off_c, 7, 71, 64
9, 124798, Note_off_c, 7, 78, 64
9, 124798, Note_off_c, 7, 74, 64
9, 124800, Note_on_c, 7, 76, 100
9, 124800, Note_on_c, 7, 69, 100
9, 124800, Note_on_c, 7, 64, 100
9, 124988, Note_off_c, 7, 64, 64
9, 124990, Note_off_c, 7, 76, 64
9, 124990, Note_off_c, 7, 69, 64
9, 124992, Note_on_c, 7, 74, 100
9, 124992, Note_on_c, 7, 71, 100
9, 124992, Note_on_c, 7, 66, 100
9, 125180, Note_off_c, 7, 66, 64
9, 125182, Note_off_c, 7, 74, 64
9, 125184, Note_on_c, 7, 76, 100
9, 125184, Note_on_c, 7, 61, 100
9, 125312, Note_off_c, 7, 76, 64
9, 125312, Note_off_c, 7, 61, 64
9, 125374, Note_off_c, 7, 71, 64
9, 125376, Note_on_c, 7, 74, 100
9, 125376, Note_on_c, 7, 71, 100
9, 125376, Note_on_c, 7, 62, 100
9, 125504, Note_off_c, 7, 74, 64
9, 125504, Note_off_c, 7, 71, 64
9, 125504, Note_off_c, 7, 62, 64
9, 125568, Note_on_c, 7, 73, 100
9, 125568, Note_on_c, 7, 69, 100
9, 125568, Note_on_c, 7, 64, 100
9, 125696, Note_off_c, 7, 73, 64
9, 125696, Note_off_c, 7, 69, 64
9, 125696, Note_off_c, 7, 64, 64
9, 125760, Note_on_c, 7, 71, 100
9, 125760, Note_on_c, 7, 66, 100
9, 125760, Note_on_c, 7, 62, 100
9, 125948, Note_off_c, 7, 62, 64
9, 125950, Note_off_c, 7, 71, 64
9, 125950, Note_off_c, 7, 66, 64
9, 125952, Note_on_c, 7, 73, 100
9, 125952, Note_on_c, 7, 69, 100
9, 125952, Note_on_c, 7, 64, 100
9, 126140, Note_off_c, 7, 64, 64
9, 126142, Note_off_c, 7, 73, 64
9, 126142, Note_off_c, 7, 69, 64
9, 126144, Note_on_c, 7, 74, 100
9, 126144, Note_on_c, 7, 71, 100
9, 126144, Note_on_c, 7, 66, 100
9, 126332, Note_off_c, 7, 66, 64
9, 126334, Note_off_c, 7, 74, 64
9, 126334, Note_off_c, 7, 71, 64
9, 126336, Note_on_c, 7, 73, 100
9, 126336, Note_on_c, 7, 69, 100
9, 126336, Note_on_c, 7, 64, 100
9, 126524, Note_off_c, 7, 64, 64
9, 126526, Note_off_c, 7, 73, 64
9, 126526, Note_off_c, 7, 69, 64
9, 126528, Note_on_c, 7, 74, 100
9, 126528, Note_on_c, 7, 71, 100
9, 126528, Note_on_c, 7, 66, 100
9, 126716, Note_off_c, 7, 66, 64
9, 126718, Note_off_c, 7, 74, 64
9, 126718, Note_off_c, 7, 71, 64
9, 126720, Note_on_c, 7, 76, 100
9, 126720, Note_on_c, 7, 73, 100
9, 126720, Note_on_c, 7, 58, 100
9, 126908, Note_off_c, 7, 58, 64
9, 126910, Note_off_c, 7, 76, 64
9, 126910, Note_off_c, 7, 73, 64
9, 126912, Note_on_c, 7, 66, 100
9, 126912, Note_on_c, 7, 71, 100
9, 126912, Note_on_c, 7, 59, 100
9, 128060, Note_off_c, 7, 66, 64
9, 128060, Note_off_c, 7, 71, 64
9, 128060, Note_off_c, 7, 59, 64
9, 128060, End_track
10, 0, Start_track
10, 0, Title_t, "Organ LH"
10, 0, Control_c, 8, 0, 0
10, 0, Program_c, 8, 19
10, 0, Control_c, 8, 10, 52
10, 0, Key_signature, 0, "major"
10, 0, Control_c, 8, 7, 127
10, 0, Note_on_c, 8, 35, 100
10, 0, Note_on_c, 8, 47, 100
10, 190, Note_off_c, 8, 35, 64
10, 190, Note_off_c, 8, 47, 64
10, 192, Note_on_c, 8, 47, 100
10, 192, Note_on_c, 8, 59, 100
10, 382, Note_off_c, 8, 47, 64
10, 382, Note_off_c, 8, 59, 64
10, 384, Note_on_c, 8, 47, 100
10, 384, Note_on_c, 8, 59, 100
10, 574, Note_off_c, 8, 47, 64
10, 574, Note_off_c, 8, 59, 64
10, 576, Note_on_c, 8, 47, 100
10, 576, Note_on_c, 8, 59, 100
10, 766, Note_off_c, 8, 47, 64
10, 766, Note_off_c, 8, 59, 64
10, 768, Note_on_c, 8, 45, 100
10, 768, Note_on_c, 8, 57, 100
10, 958, Note_off_c, 8, 45, 64
10, 958, Note_off_c, 8, 57, 64
10, 960, Note_on_c, 8, 45, 100
10, 960, Note_on_c, 8, 57, 100
10, 1150, Note_off_c, 8, 45, 64
10, 1150, Note_off_c, 8, 57, 64
10, 1152, Note_on_c, 8, 45, 100
10, 1152, Note_on_c, 8, 57, 100
10, 1342, Note_off_c, 8, 45, 64
10, 1342, Note_off_c, 8, 57, 64
10, 1344, Note_on_c, 8, 43, 100
10, 1344, Note_on_c, 8, 55, 100
10, 1534, Note_off_c, 8, 43, 64
10, 1534, Note_off_c, 8, 55, 64
10, 1536, Note_on_c, 8, 43, 100
10, 1536, Note_on_c, 8, 55, 100
10, 1726, Note_off_c, 8, 43, 64
10, 1726, Note_off_c, 8, 55, 64
10, 1728, Note_on_c, 8, 43, 100
10, 1728, Note_on_c, 8, 55, 100
10, 1918, Note_off_c, 8, 43, 64
10, 1918, Note_off_c, 8, 55, 64
10, 1920, Note_on_c, 8, 42, 100
10, 1920, Note_on_c, 8, 54, 100
10, 2110, Note_off_c, 8, 42, 64
10, 2110, Note_off_c, 8, 54, 64
10, 2112, Note_on_c, 8, 42, 100
10, 2112, Note_on_c, 8, 54, 100
10, 2302, Note_off_c, 8, 42, 64
10, 2302, Note_off_c, 8, 54, 64
10, 2304, Note_on_c, 8, 42, 100
10, 2304, Note_on_c, 8, 54, 100
10, 2494, Note_off_c, 8, 42, 64
10, 2494, Note_off_c, 8, 54, 64
10, 2496, Note_on_c, 8, 40, 100
10, 2496, Note_on_c, 8, 52, 100
10, 2686, Note_off_c, 8, 40, 64
10, 2686, Note_off_c, 8, 52, 64
10, 2688, Note_on_c, 8, 40, 100
10, 2688, Note_on_c, 8, 52, 100
10, 2878, Note_off_c, 8, 40, 64
10, 2878, Note_off_c, 8, 52, 64
10, 2880, Note_on_c, 8, 40, 100
10, 2880, Note_on_c, 8, 52, 100
10, 3070, Note_off_c, 8, 40, 64
10, 3070, Note_off_c, 8, 52, 64
10, 3072, Note_on_c, 8, 42, 100
10, 3072, Note_on_c, 8, 54, 100
10, 3262, Note_off_c, 8, 42, 64
10, 3262, Note_off_c, 8, 54, 64
10, 3264, Note_on_c, 8, 42, 100
10, 3264, Note_on_c, 8, 54, 100
10, 3454, Note_off_c, 8, 42, 64
10, 3454, Note_off_c, 8, 54, 64
10, 3456, Note_on_c, 8, 42, 100
10, 3456, Note_on_c, 8, 54, 100
10, 3646, Note_off_c, 8, 42, 64
10, 3646, Note_off_c, 8, 54, 64
10, 3648, Note_on_c, 8, 43, 100
10, 3648, Note_on_c, 8, 55, 100
10, 3838, Note_off_c, 8, 43, 64
10, 3838, Note_off_c, 8, 55, 64
10, 3840, Note_on_c, 8, 40, 100
10, 3840, Note_on_c, 8, 52, 100
10, 4030, Note_off_c, 8, 40, 64
10, 4030, Note_off_c, 8, 52, 64
10, 4032, Note_on_c, 8, 43, 100
10, 4032, Note_on_c, 8, 55, 100
10, 4222, Note_off_c, 8, 43, 64
10, 4222, Note_off_c, 8, 55, 64
10, 4224, Note_on_c, 8, 47, 100
10, 4224, Note_on_c, 8, 59, 100
10, 4414, Note_off_c, 8, 47, 64
10, 4414, Note_off_c, 8, 59, 64
10, 4416, Note_on_c, 8, 43, 100
10, 4416, Note_on_c, 8, 55, 100
10, 4606, Note_off_c, 8, 43, 64
10, 4606, Note_off_c, 8, 55, 64
10, 4608, Note_on_c, 8, 47, 100
10, 4608, Note_on_c, 8, 59, 100
10, 4798, Note_off_c, 8, 47, 64
10, 4798, Note_off_c, 8, 59, 64
10, 4800, Note_on_c, 8, 52, 100
10, 4800, Note_on_c, 8, 64, 100
10, 4990, Note_off_c, 8, 52, 64
10, 4990, Note_off_c, 8, 64, 64
10, 4992, Note_on_c, 8, 52, 100
10, 4992, Note_on_c, 8, 64, 100
10, 5182, Note_off_c, 8, 52, 64
10, 5182, Note_off_c, 8, 64, 64
10, 5184, Note_on_c, 8, 52, 100
10, 5184, Note_on_c, 8, 64, 100
10, 5374, Note_off_c, 8, 52, 64
10, 5374, Note_off_c, 8, 64, 64
10, 5376, Note_on_c, 8, 50, 100
10, 5376, Note_on_c, 8, 62, 100
10, 5566, Note_off_c, 8, 50, 64
10, 5566, Note_off_c, 8, 62, 64
10, 5568, Note_on_c, 8, 50, 100
10, 5568, Note_on_c, 8, 62, 100
10, 5758, Note_off_c, 8, 50, 64
10, 5758, Note_off_c, 8, 62, 64
10, 5760, Note_on_c, 8, 50, 100
10, 5760, Note_on_c, 8, 62, 100
10, 5950, Note_off_c, 8, 50, 64
10, 5950, Note_off_c, 8, 62, 64
10, 5952, Note_on_c, 8, 49, 100
10, 5952, Note_on_c, 8, 61, 100
10, 6142, Note_off_c, 8, 49, 64
10, 6142, Note_off_c, 8, 61, 64
10, 6144, Note_on_c, 8, 49, 100
10, 6144, Note_on_c, 8, 61, 100
10, 6334, Note_off_c, 8, 49, 64
10, 6334, Note_off_c, 8, 61, 64
10, 6336, Note_on_c, 8, 49, 100
10, 6336, Note_on_c, 8, 61, 100
10, 6526, Note_off_c, 8, 49, 64
10, 6526, Note_off_c, 8, 61, 64
10, 6528, Note_on_c, 8, 46, 100
10, 6528, Note_on_c, 8, 58, 100
10, 6718, Note_off_c, 8, 46, 64
10, 6718, Note_off_c, 8, 58, 64
10, 6720, Note_on_c, 8, 46, 100
10, 6720, Note_on_c, 8, 58, 100
10, 6910, Note_off_c, 8, 46, 64
10, 6910, Note_off_c, 8, 58, 64
10, 6912, Note_on_c, 8, 46, 100
10, 6912, Note_on_c, 8, 58, 100
10, 7102, Note_off_c, 8, 46, 64
10, 7102, Note_off_c, 8, 58, 64
10, 7104, Note_on_c, 8, 47, 100
10, 7104, Note_on_c, 8, 59, 100
10, 7294, Note_off_c, 8, 47, 64
10, 7294, Note_off_c, 8, 59, 64
10, 7296, Note_on_c, 8, 47, 100
10, 7296, Note_on_c, 8, 59, 100
10, 7486, Note_off_c, 8, 47, 64
10, 7486, Note_off_c, 8, 59, 64
10, 7488, Note_on_c, 8, 47, 100
10, 7488, Note_on_c, 8, 59, 100
10, 7678, Note_off_c, 8, 47, 64
10, 7678, Note_off_c, 8, 59, 64
10, 7680, Note_on_c, 8, 43, 100
10, 7680, Note_on_c, 8, 55, 100
10, 7870, Note_off_c, 8, 43, 64
10, 7870, Note_off_c, 8, 55, 64
10, 7872, Note_on_c, 8, 43, 100
10, 7872, Note_on_c, 8, 55, 100
10, 8062, Note_off_c, 8, 43, 64
10, 8062, Note_off_c, 8, 55, 64
10, 8064, Note_on_c, 8, 43, 100
10, 8064, Note_on_c, 8, 55, 100
10, 8254, Note_off_c, 8, 43, 64
10, 8254, Note_off_c, 8, 55, 64
10, 8256, Note_on_c, 8, 42, 100
10, 8256, Note_on_c, 8, 54, 100
10, 8446, Note_off_c, 8, 42, 64
10, 8446, Note_off_c, 8, 54, 64
10, 8448, Note_on_c, 8, 37, 100
10, 8448, Note_on_c, 8, 49, 100
10, 8638, Note_off_c, 8, 37, 64
10, 8638, Note_off_c, 8, 49, 64
10, 8640, Note_on_c, 8, 40, 100
10, 8640, Note_on_c, 8, 52, 100
10, 8830, Note_off_c, 8, 40, 64
10, 8830, Note_off_c, 8, 52, 64
10, 8832, Note_on_c, 8, 40, 100
10, 8832, Note_on_c, 8, 52, 100
10, 9022, Note_off_c, 8, 40, 64
10, 9022, Note_off_c, 8, 52, 64
10, 9024, Note_on_c, 8, 34, 100
10, 9024, Note_on_c, 8, 46, 100
10, 9214, Note_off_c, 8, 34, 64
10, 9214, Note_off_c, 8, 46, 64
10, 9216, Note_on_c, 8, 37, 100
10, 9216, Note_on_c, 8, 49, 100
10, 9406, Note_off_c, 8, 37, 64
10, 9406, Note_off_c, 8, 49, 64
10, 9408, Note_on_c, 8, 30, 100
10, 9408, Note_on_c, 8, 42, 100
10, 10172, Note_off_c, 8, 30, 64
10, 10172, Note_off_c, 8, 42, 64
10, 11712, Note_on_c, 8, 30, 100
10, 11712, Note_on_c, 8, 42, 100
10, 12092, Note_off_c, 8, 30, 64
10, 12092, Note_off_c, 8, 42, 64
10, 12096, Note_on_c, 8, 30, 100
10, 12096, Note_on_c, 8, 42, 100
10, 12476, Note_off_c, 8, 30, 64
10, 12476, Note_off_c, 8, 42, 64
10, 12480, Note_on_c, 8, 30, 100
10, 12480, Note_on_c, 8, 42, 100
10, 12860, Note_off_c, 8, 30, 64
10, 12860, Note_off_c, 8, 42, 64
10, 12864, Note_on_c, 8, 30, 100
10, 12864, Note_on_c, 8, 42, 100
10, 13244, Note_off_c, 8, 30, 64
10, 13244, Note_off_c, 8, 42, 64
10, 13248, Note_on_c, 8, 30, 100
10, 13248, Note_on_c, 8, 42, 100
10, 13628, Note_off_c, 8, 30, 64
10, 13628, Note_off_c, 8, 42, 64
10, 13632, Note_on_c, 8, 30, 100
10, 13632, Note_on_c, 8, 42, 100
10, 14012, Note_off_c, 8, 30, 64
10, 14012, Note_off_c, 8, 42, 64
10, 14016, Note_on_c, 8, 35, 100
10, 14016, Note_on_c, 8, 47, 100
10, 14398, Note_off_c, 8, 35, 64
10, 14398, Note_off_c, 8, 47, 64
10, 15168, Note_on_c, 8, 35, 100
10, 15168, Note_on_c, 8, 47, 100
10, 15358, Note_off_c, 8, 35, 64
10, 15358, Note_off_c, 8, 47, 64
10, 15360, Note_on_c, 8, 35, 100
10, 15360, Note_on_c, 8, 47, 100
10, 15550, Note_off_c, 8, 35, 64
10, 15550, Note_off_c, 8, 47, 64
10, 15552, Note_on_c, 8, 35, 100
10, 15552, Note_on_c, 8, 47, 100
10, 15742, Note_off_c, 8, 35, 64
10, 15742, Note_off_c, 8, 47, 64
10, 15744, Note_on_c, 8, 35, 100
10, 15744, Note_on_c, 8, 47, 100
10, 15934, Note_off_c, 8, 35, 64
10, 15934, Note_off_c, 8, 47, 64
10, 15936, Note_on_c, 8, 35, 100
10, 15936, Note_on_c, 8, 47, 100
10, 16126, Note_off_c, 8, 35, 64
10, 16126, Note_off_c, 8, 47, 64
10, 16128, Note_on_c, 8, 35, 100
10, 16128, Note_on_c, 8, 47, 100
10, 16318, Note_off_c, 8, 35, 64
10, 16318, Note_off_c, 8, 47, 64
10, 16320, Note_on_c, 8, 28, 100
10, 16320, Note_on_c, 8, 40, 100
10, 16510, Note_off_c, 8, 28, 64
10, 16510, Note_off_c, 8, 40, 64
10, 16512, Note_on_c, 8, 28, 100
10, 16512, Note_on_c, 8, 40, 100
10, 16702, Note_off_c, 8, 28, 64
10, 16702, Note_off_c, 8, 40, 64
10, 16704, Note_on_c, 8, 28, 100
10, 16704, Note_on_c, 8, 40, 100
10, 16894, Note_off_c, 8, 28, 64
10, 16894, Note_off_c, 8, 40, 64
10, 16896, Note_on_c, 8, 28, 100
10, 16896, Note_on_c, 8, 40, 100
10, 17086, Note_off_c, 8, 28, 64
10, 17086, Note_off_c, 8, 40, 64
10, 17088, Note_on_c, 8, 28, 100
10, 17088, Note_on_c, 8, 40, 100
10, 17278, Note_off_c, 8, 28, 64
10, 17278, Note_off_c, 8, 40, 64
10, 17280, Note_on_c, 8, 28, 100
10, 17280, Note_on_c, 8, 40, 100
10, 17470, Note_off_c, 8, 28, 64
10, 17470, Note_off_c, 8, 40, 64
10, 17472, Note_on_c, 8, 28, 100
10, 17472, Note_on_c, 8, 40, 100
10, 17662, Note_off_c, 8, 28, 64
10, 17662, Note_off_c, 8, 40, 64
10, 17664, Note_on_c, 8, 28, 100
10, 17664, Note_on_c, 8, 40, 100
10, 17854, Note_off_c, 8, 28, 64
10, 17854, Note_off_c, 8, 40, 64
10, 17856, Note_on_c, 8, 28, 100
10, 17856, Note_on_c, 8, 40, 100
10, 18046, Note_off_c, 8, 28, 64
10, 18046, Note_off_c, 8, 40, 64
10, 18048, Note_on_c, 8, 28, 100
10, 18048, Note_on_c, 8, 40, 100
10, 18238, Note_off_c, 8, 28, 64
10, 18238, Note_off_c, 8, 40, 64
10, 18240, Note_on_c, 8, 28, 100
10, 18240, Note_on_c, 8, 40, 100
10, 18430, Note_off_c, 8, 28, 64
10, 18430, Note_off_c, 8, 40, 64
10, 18432, Note_on_c, 8, 40, 100
10, 18432, Note_on_c, 8, 52, 100
10, 18622, Note_off_c, 8, 40, 64
10, 18622, Note_off_c, 8, 52, 64
10, 18624, Note_on_c, 8, 38, 100
10, 18624, Note_on_c, 8, 50, 100
10, 18814, Note_off_c, 8, 38, 64
10, 18814, Note_off_c, 8, 50, 64
10, 18816, Note_on_c, 8, 37, 100
10, 18816, Note_on_c, 8, 49, 100
10, 19006, Note_off_c, 8, 37, 64
10, 19006, Note_off_c, 8, 49, 64
10, 19008, Note_on_c, 8, 35, 100
10, 19008, Note_on_c, 8, 47, 100
10, 19198, Note_off_c, 8, 35, 64
10, 19198, Note_off_c, 8, 47, 64
10, 19200, Note_on_c, 8, 42, 100
10, 19200, Note_on_c, 8, 54, 100
10, 19390, Note_off_c, 8, 42, 64
10, 19390, Note_off_c, 8, 54, 64
10, 19392, Note_on_c, 8, 30, 100
10, 19392, Note_on_c, 8, 42, 100
10, 19582, Note_off_c, 8, 30, 64
10, 19582, Note_off_c, 8, 42, 64
10, 19584, Note_on_c, 8, 30, 100
10, 19584, Note_on_c, 8, 42, 100
10, 19774, Note_off_c, 8, 30, 64
10, 19774, Note_off_c, 8, 42, 64
10, 19776, Note_on_c, 8, 35, 100
10, 19776, Note_on_c, 8, 47, 100
10, 20734, Note_off_c, 8, 35, 64
10, 20734, Note_off_c, 8, 47, 64
10, 20736, Note_on_c, 8, 35, 100
10, 20736, Note_on_c, 8, 47, 100
10, 20926, Note_off_c, 8, 35, 64
10, 20926, Note_off_c, 8, 47, 64
10, 20928, Note_on_c, 8, 47, 100
10, 20928, Note_on_c, 8, 59, 100
10, 21116, Note_off_c, 8, 47, 64
10, 21116, Note_off_c, 8, 59, 64
10, 21120, Note_on_c, 8, 47, 100
10, 21120, Note_on_c, 8, 59, 100
10, 21308, Note_off_c, 8, 47, 64
10, 21308, Note_off_c, 8, 59, 64
10, 21312, Note_on_c, 8, 47, 100
10, 21312, Note_on_c, 8, 59, 100
10, 21500, Note_off_c, 8, 47, 64
10, 21500, Note_off_c, 8, 59, 64
10, 21504, Note_on_c, 8, 45, 100
10, 21504, Note_on_c, 8, 57, 100
10, 21692, Note_off_c, 8, 45, 64
10, 21692, Note_off_c, 8, 57, 64
10, 21696, Note_on_c, 8, 45, 100
10, 21696, Note_on_c, 8, 57, 100
10, 21884, Note_off_c, 8, 45, 64
10, 21884, Note_off_c, 8, 57, 64
10, 21888, Note_on_c, 8, 45, 100
10, 21888, Note_on_c, 8, 57, 100
10, 22076, Note_off_c, 8, 45, 64
10, 22076, Note_off_c, 8, 57, 64
10, 22080, Note_on_c, 8, 43, 100
10, 22080, Note_on_c, 8, 55, 100
10, 22268, Note_off_c, 8, 43, 64
10, 22268, Note_off_c, 8, 55, 64
10, 22272, Note_on_c, 8, 43, 100
10, 22272, Note_on_c, 8, 55, 100
10, 22460, Note_off_c, 8, 43, 64
10, 22460, Note_off_c, 8, 55, 64
10, 22464, Note_on_c, 8, 43, 100
10, 22464, Note_on_c, 8, 55, 100
10, 22652, Note_off_c, 8, 43, 64
10, 22652, Note_off_c, 8, 55, 64
10, 22656, Note_on_c, 8, 42, 100
10, 22656, Note_on_c, 8, 54, 100
10, 22844, Note_off_c, 8, 42, 64
10, 22844, Note_off_c, 8, 54, 64
10, 22848, Note_on_c, 8, 42, 100
10, 22848, Note_on_c, 8, 54, 100
10, 23036, Note_off_c, 8, 42, 64
10, 23036, Note_off_c, 8, 54, 64
10, 23040, Note_on_c, 8, 42, 100
10, 23040, Note_on_c, 8, 54, 100
10, 23228, Note_off_c, 8, 42, 64
10, 23228, Note_off_c, 8, 54, 64
10, 23232, Note_on_c, 8, 40, 100
10, 23232, Note_on_c, 8, 52, 100
10, 23420, Note_off_c, 8, 40, 64
10, 23420, Note_off_c, 8, 52, 64
10, 23424, Note_on_c, 8, 40, 100
10, 23424, Note_on_c, 8, 52, 100
10, 23612, Note_off_c, 8, 40, 64
10, 23612, Note_off_c, 8, 52, 64
10, 23616, Note_on_c, 8, 40, 100
10, 23616, Note_on_c, 8, 52, 100
10, 23804, Note_off_c, 8, 40, 64
10, 23804, Note_off_c, 8, 52, 64
10, 23808, Note_on_c, 8, 40, 100
10, 23808, Note_on_c, 8, 52, 100
10, 23996, Note_off_c, 8, 40, 64
10, 23996, Note_off_c, 8, 52, 64
10, 24000, Note_on_c, 8, 40, 100
10, 24000, Note_on_c, 8, 52, 100
10, 24188, Note_off_c, 8, 40, 64
10, 24188, Note_off_c, 8, 52, 64
10, 24192, Note_on_c, 8, 40, 100
10, 24192, Note_on_c, 8, 52, 100
10, 24380, Note_off_c, 8, 40, 64
10, 24380, Note_off_c, 8, 52, 64
10, 24384, Note_on_c, 8, 40, 100
10, 24384, Note_on_c, 8, 52, 100
10, 24572, Note_off_c, 8, 40, 64
10, 24572, Note_off_c, 8, 52, 64
10, 24576, Note_on_c, 8, 40, 100
10, 24576, Note_on_c, 8, 52, 100
10, 24764, Note_off_c, 8, 40, 64
10, 24764, Note_off_c, 8, 52, 64
10, 24768, Note_on_c, 8, 40, 100
10, 24768, Note_on_c, 8, 52, 100
10, 24956, Note_off_c, 8, 40, 64
10, 24956, Note_off_c, 8, 52, 64
10, 24960, Note_on_c, 8, 40, 100
10, 24960, Note_on_c, 8, 52, 100
10, 25148, Note_off_c, 8, 40, 64
10, 25148, Note_off_c, 8, 52, 64
10, 25152, Note_on_c, 8, 40, 100
10, 25152, Note_on_c, 8, 52, 100
10, 25340, Note_off_c, 8, 40, 64
10, 25340, Note_off_c, 8, 52, 64
10, 25344, Note_on_c, 8, 40, 100
10, 25344, Note_on_c, 8, 52, 100
10, 25532, Note_off_c, 8, 40, 64
10, 25532, Note_off_c, 8, 52, 64
10, 25536, Note_on_c, 8, 40, 100
10, 25536, Note_on_c, 8, 52, 100
10, 25724, Note_off_c, 8, 40, 64
10, 25724, Note_off_c, 8, 52, 64
10, 25728, Note_on_c, 8, 40, 100
10, 25728, Note_on_c, 8, 52, 100
10, 25916, Note_off_c, 8, 40, 64
10, 25916, Note_off_c, 8, 52, 64
10, 25920, Note_on_c, 8, 40, 100
10, 25920, Note_on_c, 8, 52, 100
10, 26108, Note_off_c, 8, 40, 64
10, 26108, Note_off_c, 8, 52, 64
10, 26112, Note_on_c, 8, 38, 100
10, 26112, Note_on_c, 8, 50, 100
10, 26300, Note_off_c, 8, 38, 64
10, 26300, Note_off_c, 8, 50, 64
10, 26304, Note_on_c, 8, 38, 100
10, 26304, Note_on_c, 8, 50, 100
10, 26492, Note_off_c, 8, 38, 64
10, 26492, Note_off_c, 8, 50, 64
10, 26496, Note_on_c, 8, 38, 100
10, 26496, Note_on_c, 8, 50, 100
10, 26684, Note_off_c, 8, 38, 64
10, 26684, Note_off_c, 8, 50, 64
10, 26688, Note_on_c, 8, 37, 100
10, 26688, Note_on_c, 8, 49, 100
10, 26876, Note_off_c, 8, 37, 64
10, 26876, Note_off_c, 8, 49, 64
10, 26880, Note_on_c, 8, 37, 100
10, 26880, Note_on_c, 8, 49, 100
10, 27068, Note_off_c, 8, 37, 64
10, 27068, Note_off_c, 8, 49, 64
10, 27072, Note_on_c, 8, 37, 100
10, 27072, Note_on_c, 8, 49, 100
10, 27260, Note_off_c, 8, 37, 64
10, 27260, Note_off_c, 8, 49, 64
10, 27264, Note_on_c, 8, 34, 100
10, 27264, Note_on_c, 8, 46, 100
10, 27452, Note_off_c, 8, 34, 64
10, 27452, Note_off_c, 8, 46, 64
10, 27456, Note_on_c, 8, 34, 100
10, 27456, Note_on_c, 8, 46, 100
10, 27644, Note_off_c, 8, 34, 64
10, 27644, Note_off_c, 8, 46, 64
10, 27648, Note_on_c, 8, 34, 100
10, 27648, Note_on_c, 8, 46, 100
10, 27836, Note_off_c, 8, 34, 64
10, 27836, Note_off_c, 8, 46, 64
10, 27840, Note_on_c, 8, 35, 100
10, 27840, Note_on_c, 8, 47, 100
10, 28028, Note_off_c, 8, 35, 64
10, 28028, Note_off_c, 8, 47, 64
10, 28032, Note_on_c, 8, 35, 100
10, 28032, Note_on_c, 8, 47, 100
10, 28220, Note_off_c, 8, 35, 64
10, 28220, Note_off_c, 8, 47, 64
10, 28224, Note_on_c, 8, 35, 100
10, 28224, Note_on_c, 8, 47, 100
10, 28412, Note_off_c, 8, 35, 64
10, 28412, Note_off_c, 8, 47, 64
10, 28416, Note_on_c, 8, 31, 100
10, 28416, Note_on_c, 8, 43, 100
10, 28604, Note_off_c, 8, 31, 64
10, 28604, Note_off_c, 8, 43, 64
10, 28608, Note_on_c, 8, 31, 100
10, 28608, Note_on_c, 8, 43, 100
10, 28796, Note_off_c, 8, 31, 64
10, 28796, Note_off_c, 8, 43, 64
10, 28800, Note_on_c, 8, 31, 100
10, 28800, Note_on_c, 8, 43, 100
10, 28988, Note_off_c, 8, 31, 64
10, 28988, Note_off_c, 8, 43, 64
10, 28992, Note_on_c, 8, 30, 100
10, 28992, Note_on_c, 8, 42, 100
10, 29372, Note_off_c, 8, 30, 64
10, 29372, Note_off_c, 8, 42, 64
10, 30144, Note_on_c, 8, 35, 100
10, 30144, Note_on_c, 8, 47, 100
10, 30524, Note_off_c, 8, 35, 64
10, 30524, Note_off_c, 8, 47, 64
10, 31296, Note_on_c, 8, 40, 100
10, 31296, Note_on_c, 8, 52, 100
10, 31676, Note_off_c, 8, 40, 64
10, 31676, Note_off_c, 8, 52, 64
10, 32448, Note_on_c, 8, 37, 100
10, 32448, Note_on_c, 8, 49, 100
10, 32828, Note_off_c, 8, 37, 64
10, 32828, Note_off_c, 8, 49, 64
10, 33600, Note_on_c, 8, 42, 100
10, 33600, Note_on_c, 8, 54, 100
10, 33980, Note_off_c, 8, 42, 64
10, 33980, Note_off_c, 8, 54, 64
10, 34752, Note_on_c, 8, 42, 100
10, 34752, Note_on_c, 8, 54, 100
10, 34940, Note_off_c, 8, 42, 64
10, 34940, Note_off_c, 8, 54, 64
10, 34944, Note_on_c, 8, 42, 100
10, 34944, Note_on_c, 8, 54, 100
10, 35132, Note_off_c, 8, 42, 64
10, 35132, Note_off_c, 8, 54, 64
10, 35136, Note_on_c, 8, 42, 100
10, 35136, Note_on_c, 8, 54, 100
10, 35324, Note_off_c, 8, 42, 64
10, 35324, Note_off_c, 8, 54, 64
10, 35328, Note_on_c, 8, 40, 100
10, 35328, Note_on_c, 8, 52, 100
10, 35516, Note_off_c, 8, 40, 64
10, 35516, Note_off_c, 8, 52, 64
10, 35520, Note_on_c, 8, 40, 100
10, 35520, Note_on_c, 8, 52, 100
10, 35708, Note_off_c, 8, 40, 64
10, 35708, Note_off_c, 8, 52, 64
10, 35712, Note_on_c, 8, 40, 100
10, 35712, Note_on_c, 8, 52, 100
10, 35900, Note_off_c, 8, 40, 64
10, 35900, Note_off_c, 8, 52, 64
10, 35904, Note_on_c, 8, 38, 100
10, 35904, Note_on_c, 8, 50, 100
10, 36092, Note_off_c, 8, 38, 64
10, 36092, Note_off_c, 8, 50, 64
10, 36096, Note_on_c, 8, 38, 100
10, 36096, Note_on_c, 8, 50, 100
10, 36284, Note_off_c, 8, 38, 64
10, 36284, Note_off_c, 8, 50, 64
10, 36288, Note_on_c, 8, 38, 100
10, 36288, Note_on_c, 8, 50, 100
10, 36476, Note_off_c, 8, 38, 64
10, 36476, Note_off_c, 8, 50, 64
10, 36480, Note_on_c, 8, 37, 100
10, 36480, Note_on_c, 8, 49, 100
10, 36668, Note_off_c, 8, 37, 64
10, 36668, Note_off_c, 8, 49, 64
10, 36672, Note_on_c, 8, 37, 100
10, 36672, Note_on_c, 8, 49, 100
10, 36860, Note_off_c, 8, 37, 64
10, 36860, Note_off_c, 8, 49, 64
10, 36864, Note_on_c, 8, 37, 100
10, 36864, Note_on_c, 8, 49, 100
10, 37052, Note_off_c, 8, 37, 64
10, 37052, Note_off_c, 8, 49, 64
10, 37056, Note_on_c, 8, 35, 100
10, 37056, Note_on_c, 8, 47, 100
10, 37244, Note_off_c, 8, 35, 64
10, 37244, Note_off_c, 8, 47, 64
10, 37248, Note_on_c, 8, 35, 100
10, 37248, Note_on_c, 8, 47, 100
10, 37436, Note_off_c, 8, 35, 64
10, 37436, Note_off_c, 8, 47, 64
10, 37440, Note_on_c, 8, 35, 100
10, 37440, Note_on_c, 8, 47, 100
10, 37628, Note_off_c, 8, 35, 64
10, 37628, Note_off_c, 8, 47, 64
10, 37632, Note_on_c, 8, 37, 100
10, 37632, Note_on_c, 8, 49, 100
10, 37820, Note_off_c, 8, 37, 64
10, 37820, Note_off_c, 8, 49, 64
10, 37824, Note_on_c, 8, 37, 100
10, 37824, Note_on_c, 8, 49, 100
10, 38012, Note_off_c, 8, 37, 64
10, 38012, Note_off_c, 8, 49, 64
10, 38016, Note_on_c, 8, 37, 100
10, 38016, Note_on_c, 8, 49, 100
10, 38204, Note_off_c, 8, 37, 64
10, 38204, Note_off_c, 8, 49, 64
10, 38208, Note_on_c, 8, 38, 100
10, 38208, Note_on_c, 8, 50, 100
10, 38396, Note_off_c, 8, 38, 64
10, 38396, Note_off_c, 8, 50, 64
10, 38400, Note_on_c, 8, 35, 100
10, 38400, Note_on_c, 8, 47, 100
10, 38588, Note_off_c, 8, 35, 64
10, 38588, Note_off_c, 8, 47, 64
10, 38592, Note_on_c, 8, 38, 100
10, 38592, Note_on_c, 8, 50, 100
10, 38780, Note_off_c, 8, 38, 64
10, 38780, Note_off_c, 8, 50, 64
10, 38784, Note_on_c, 8, 42, 100
10, 38784, Note_on_c, 8, 54, 100
10, 38972, Note_off_c, 8, 42, 64
10, 38972, Note_off_c, 8, 54, 64
10, 38976, Note_on_c, 8, 38, 100
10, 38976, Note_on_c, 8, 50, 100
10, 39164, Note_off_c, 8, 38, 64
10, 39164, Note_off_c, 8, 50, 64
10, 39168, Note_on_c, 8, 42, 100
10, 39168, Note_on_c, 8, 54, 100
10, 39356, Note_off_c, 8, 42, 64
10, 39356, Note_off_c, 8, 54, 64
10, 39360, Note_on_c, 8, 47, 100
10, 39360, Note_on_c, 8, 59, 100
10, 39548, Note_off_c, 8, 47, 64
10, 39548, Note_off_c, 8, 59, 64
10, 39552, Note_on_c, 8, 47, 100
10, 39552, Note_on_c, 8, 59, 100
10, 39740, Note_off_c, 8, 47, 64
10, 39740, Note_off_c, 8, 59, 64
10, 39744, Note_on_c, 8, 47, 100
10, 39744, Note_on_c, 8, 59, 100
10, 39932, Note_off_c, 8, 47, 64
10, 39932, Note_off_c, 8, 59, 64
10, 39936, Note_on_c, 8, 45, 100
10, 39936, Note_on_c, 8, 57, 100
10, 40124, Note_off_c, 8, 45, 64
10, 40124, Note_off_c, 8, 57, 64
10, 40128, Note_on_c, 8, 45, 100
10, 40128, Note_on_c, 8, 57, 100
10, 40316, Note_off_c, 8, 45, 64
10, 40316, Note_off_c, 8, 57, 64
10, 40320, Note_on_c, 8, 45, 100
10, 40320, Note_on_c, 8, 57, 100
10, 40508, Note_off_c, 8, 45, 64
10, 40508, Note_off_c, 8, 57, 64
10, 40512, Note_on_c, 8, 44, 100
10, 40512, Note_on_c, 8, 56, 100
10, 40700, Note_off_c, 8, 44, 64
10, 40700, Note_off_c, 8, 56, 64
10, 40704, Note_on_c, 8, 44, 100
10, 40704, Note_on_c, 8, 56, 100
10, 40892, Note_off_c, 8, 44, 64
10, 40892, Note_off_c, 8, 56, 64
10, 40896, Note_on_c, 8, 44, 100
10, 40896, Note_on_c, 8, 56, 100
10, 41084, Note_off_c, 8, 44, 64
10, 41084, Note_off_c, 8, 56, 64
10, 41088, Note_on_c, 8, 41, 100
10, 41088, Note_on_c, 8, 53, 100
10, 41276, Note_off_c, 8, 41, 64
10, 41276, Note_off_c, 8, 53, 64
10, 41280, Note_on_c, 8, 41, 100
10, 41280, Note_on_c, 8, 53, 100
10, 41468, Note_off_c, 8, 41, 64
10, 41468, Note_off_c, 8, 53, 64
10, 41472, Note_on_c, 8, 41, 100
10, 41472, Note_on_c, 8, 53, 100
10, 41660, Note_off_c, 8, 41, 64
10, 41660, Note_off_c, 8, 53, 64
10, 41664, Note_on_c, 8, 42, 100
10, 41664, Note_on_c, 8, 54, 100
10, 41852, Note_off_c, 8, 42, 64
10, 41852, Note_off_c, 8, 54, 64
10, 41856, Note_on_c, 8, 42, 100
10, 41856, Note_on_c, 8, 54, 100
10, 42044, Note_off_c, 8, 42, 64
10, 42044, Note_off_c, 8, 54, 64
10, 42048, Note_on_c, 8, 42, 100
10, 42048, Note_on_c, 8, 54, 100
10, 42236, Note_off_c, 8, 42, 64
10, 42236, Note_off_c, 8, 54, 64
10, 42240, Note_on_c, 8, 38, 100
10, 42240, Note_on_c, 8, 50, 100
10, 42428, Note_off_c, 8, 38, 64
10, 42428, Note_off_c, 8, 50, 64
10, 42432, Note_on_c, 8, 38, 100
10, 42432, Note_on_c, 8, 50, 100
10, 42620, Note_off_c, 8, 38, 64
10, 42620, Note_off_c, 8, 50, 64
10, 42624, Note_on_c, 8, 38, 100
10, 42624, Note_on_c, 8, 50, 100
10, 42812, Note_off_c, 8, 38, 64
10, 42812, Note_off_c, 8, 50, 64
10, 42816, Note_on_c, 8, 37, 100
10, 42816, Note_on_c, 8, 49, 100
10, 43004, Note_off_c, 8, 37, 64
10, 43004, Note_off_c, 8, 49, 64
10, 43008, Note_on_c, 8, 32, 100
10, 43008, Note_on_c, 8, 44, 100
10, 43196, Note_off_c, 8, 32, 64
10, 43196, Note_off_c, 8, 44, 64
10, 43200, Note_on_c, 8, 35, 100
10, 43200, Note_on_c, 8, 47, 100
10, 43388, Note_off_c, 8, 35, 64
10, 43388, Note_off_c, 8, 47, 64
10, 43392, Note_on_c, 8, 35, 100
10, 43392, Note_on_c, 8, 47, 100
10, 43580, Note_off_c, 8, 35, 64
10, 43580, Note_off_c, 8, 47, 64
10, 43584, Note_on_c, 8, 29, 100
10, 43584, Note_on_c, 8, 41, 100
10, 43772, Note_off_c, 8, 29, 64
10, 43772, Note_off_c, 8, 41, 64
10, 43776, Note_on_c, 8, 32, 100
10, 43776, Note_on_c, 8, 44, 100
10, 43964, Note_off_c, 8, 32, 64
10, 43964, Note_off_c, 8, 44, 64
10, 45120, Note_on_c, 8, 37, 100
10, 45120, Note_on_c, 8, 49, 100
10, 45308, Note_off_c, 8, 37, 64
10, 45308, Note_off_c, 8, 49, 64
10, 45312, Note_on_c, 8, 37, 100
10, 45312, Note_on_c, 8, 49, 100
10, 45500, Note_off_c, 8, 37, 64
10, 45500, Note_off_c, 8, 49, 64
10, 45504, Note_on_c, 8, 37, 100
10, 45504, Note_on_c, 8, 49, 100
10, 45692, Note_off_c, 8, 37, 64
10, 45692, Note_off_c, 8, 49, 64
10, 45696, Note_on_c, 8, 37, 100
10, 45696, Note_on_c, 8, 49, 100
10, 45884, Note_off_c, 8, 37, 64
10, 45884, Note_off_c, 8, 49, 64
10, 45888, Note_on_c, 8, 37, 100
10, 45888, Note_on_c, 8, 49, 100
10, 46076, Note_off_c, 8, 37, 64
10, 46076, Note_off_c, 8, 49, 64
10, 46080, Note_on_c, 8, 37, 100
10, 46080, Note_on_c, 8, 49, 100
10, 46268, Note_off_c, 8, 37, 64
10, 46268, Note_off_c, 8, 49, 64
10, 46272, Note_on_c, 8, 30, 100
10, 46272, Note_on_c, 8, 42, 100
10, 46652, Note_off_c, 8, 30, 64
10, 46652, Note_off_c, 8, 42, 64
10, 47424, Note_on_c, 8, 30, 100
10, 47424, Note_on_c, 8, 42, 100
10, 47612, Note_off_c, 8, 30, 64
10, 47612, Note_off_c, 8, 42, 64
10, 47616, Note_on_c, 8, 30, 100
10, 47616, Note_on_c, 8, 42, 100
10, 47804, Note_off_c, 8, 30, 64
10, 47804, Note_off_c, 8, 42, 64
10, 47808, Note_on_c, 8, 30, 100
10, 47808, Note_on_c, 8, 42, 100
10, 47996, Note_off_c, 8, 30, 64
10, 47996, Note_off_c, 8, 42, 64
10, 48000, Note_on_c, 8, 30, 100
10, 48000, Note_on_c, 8, 42, 100
10, 48188, Note_off_c, 8, 30, 64
10, 48188, Note_off_c, 8, 42, 64
10, 48192, Note_on_c, 8, 30, 100
10, 48192, Note_on_c, 8, 42, 100
10, 48380, Note_off_c, 8, 30, 64
10, 48380, Note_off_c, 8, 42, 64
10, 48384, Note_on_c, 8, 30, 100
10, 48384, Note_on_c, 8, 42, 100
10, 48572, Note_off_c, 8, 30, 64
10, 48572, Note_off_c, 8, 42, 64
10, 48576, Note_on_c, 8, 35, 100
10, 48576, Note_on_c, 8, 47, 100
10, 48764, Note_off_c, 8, 35, 64
10, 48764, Note_off_c, 8, 47, 64
10, 48768, Note_on_c, 8, 35, 100
10, 48768, Note_on_c, 8, 47, 100
10, 48956, Note_off_c, 8, 35, 64
10, 48956, Note_off_c, 8, 47, 64
10, 48960, Note_on_c, 8, 35, 100
10, 48960, Note_on_c, 8, 47, 100
10, 49148, Note_off_c, 8, 35, 64
10, 49148, Note_off_c, 8, 47, 64
10, 49152, Note_on_c, 8, 35, 100
10, 49152, Note_on_c, 8, 47, 100
10, 49340, Note_off_c, 8, 35, 64
10, 49340, Note_off_c, 8, 47, 64
10, 49344, Note_on_c, 8, 35, 100
10, 49344, Note_on_c, 8, 47, 100
10, 49532, Note_off_c, 8, 35, 64
10, 49532, Note_off_c, 8, 47, 64
10, 49536, Note_on_c, 8, 35, 100
10, 49536, Note_on_c, 8, 47, 100
10, 49724, Note_off_c, 8, 35, 64
10, 49724, Note_off_c, 8, 47, 64
10, 49728, Note_on_c, 8, 35, 100
10, 49728, Note_on_c, 8, 47, 100
10, 49916, Note_off_c, 8, 35, 64
10, 49916, Note_off_c, 8, 47, 64
10, 49920, Note_on_c, 8, 35, 100
10, 49920, Note_on_c, 8, 47, 100
10, 50108, Note_off_c, 8, 35, 64
10, 50108, Note_off_c, 8, 47, 64
10, 50112, Note_on_c, 8, 35, 100
10, 50112, Note_on_c, 8, 47, 100
10, 50300, Note_off_c, 8, 35, 64
10, 50300, Note_off_c, 8, 47, 64
10, 50304, Note_on_c, 8, 35, 100
10, 50304, Note_on_c, 8, 47, 100
10, 50492, Note_off_c, 8, 35, 64
10, 50492, Note_off_c, 8, 47, 64
10, 50496, Note_on_c, 8, 35, 100
10, 50496, Note_on_c, 8, 47, 100
10, 50684, Note_off_c, 8, 35, 64
10, 50684, Note_off_c, 8, 47, 64
10, 50688, Note_on_c, 8, 35, 100
10, 50688, Note_on_c, 8, 47, 100
10, 50876, Note_off_c, 8, 35, 64
10, 50876, Note_off_c, 8, 47, 64
10, 50880, Note_on_c, 8, 33, 100
10, 50880, Note_on_c, 8, 45, 100
10, 51068, Note_off_c, 8, 33, 64
10, 51068, Note_off_c, 8, 45, 64
10, 51072, Note_on_c, 8, 31, 100
10, 51072, Note_on_c, 8, 43, 100
10, 51260, Note_off_c, 8, 31, 64
10, 51260, Note_off_c, 8, 43, 64
10, 51264, Note_on_c, 8, 30, 100
10, 51264, Note_on_c, 8, 42, 100
10, 51452, Note_off_c, 8, 30, 64
10, 51452, Note_off_c, 8, 42, 64
10, 51456, Note_on_c, 8, 37, 100
10, 51456, Note_on_c, 8, 49, 100
10, 51644, Note_off_c, 8, 37, 64
10, 51644, Note_off_c, 8, 49, 64
10, 51648, Note_on_c, 8, 37, 100
10, 51648, Note_on_c, 8, 49, 100
10, 51836, Note_off_c, 8, 37, 64
10, 51836, Note_off_c, 8, 49, 64
10, 51840, Note_on_c, 8, 37, 100
10, 51840, Note_on_c, 8, 49, 100
10, 52028, Note_off_c, 8, 37, 64
10, 52028, Note_off_c, 8, 49, 64
10, 52032, Note_on_c, 8, 42, 100
10, 52032, Note_on_c, 8, 54, 100
10, 52220, Note_off_c, 8, 42, 64
10, 52220, Note_off_c, 8, 54, 64
10, 52224, Note_on_c, 8, 30, 100
10, 52224, Note_on_c, 8, 42, 100
10, 52412, Note_off_c, 8, 30, 64
10, 52412, Note_off_c, 8, 42, 64
10, 52416, Note_on_c, 8, 33, 100
10, 52416, Note_on_c, 8, 45, 100
10, 52604, Note_off_c, 8, 33, 64
10, 52604, Note_off_c, 8, 45, 64
10, 52608, Note_on_c, 8, 37, 100
10, 52608, Note_on_c, 8, 49, 100
10, 52796, Note_off_c, 8, 37, 64
10, 52796, Note_off_c, 8, 49, 64
10, 52800, Note_on_c, 8, 33, 100
10, 52800, Note_on_c, 8, 45, 100
10, 52988, Note_off_c, 8, 33, 64
10, 52988, Note_off_c, 8, 45, 64
10, 52992, Note_on_c, 8, 37, 100
10, 52992, Note_on_c, 8, 49, 100
10, 53180, Note_off_c, 8, 37, 64
10, 53180, Note_off_c, 8, 49, 64
10, 53184, Note_on_c, 8, 42, 100
10, 53184, Note_on_c, 8, 54, 100
10, 53372, Note_off_c, 8, 42, 64
10, 53372, Note_off_c, 8, 54, 64
10, 53376, Note_on_c, 8, 42, 100
10, 53376, Note_on_c, 8, 54, 100
10, 53564, Note_off_c, 8, 42, 64
10, 53564, Note_off_c, 8, 54, 64
10, 53568, Note_on_c, 8, 42, 100
10, 53568, Note_on_c, 8, 54, 100
10, 53756, Note_off_c, 8, 42, 64
10, 53756, Note_off_c, 8, 54, 64
10, 53760, Note_on_c, 8, 40, 100
10, 53760, Note_on_c, 8, 52, 100
10, 53948, Note_off_c, 8, 40, 64
10, 53948, Note_off_c, 8, 52, 64
10, 53952, Note_on_c, 8, 40, 100
10, 53952, Note_on_c, 8, 52, 100
10, 54140, Note_off_c, 8, 40, 64
10, 54140, Note_off_c, 8, 52, 64
10, 54144, Note_on_c, 8, 40, 100
10, 54144, Note_on_c, 8, 52, 100
10, 54332, Note_off_c, 8, 40, 64
10, 54332, Note_off_c, 8, 52, 64
10, 54336, Note_on_c, 8, 38, 100
10, 54336, Note_on_c, 8, 50, 100
10, 54524, Note_off_c, 8, 38, 64
10, 54524, Note_off_c, 8, 50, 64
10, 54528, Note_on_c, 8, 38, 100
10, 54528, Note_on_c, 8, 50, 100
10, 54716, Note_off_c, 8, 38, 64
10, 54716, Note_off_c, 8, 50, 64
10, 54720, Note_on_c, 8, 38, 100
10, 54720, Note_on_c, 8, 50, 100
10, 54908, Note_off_c, 8, 38, 64
10, 54908, Note_off_c, 8, 50, 64
10, 54912, Note_on_c, 8, 37, 100
10, 54912, Note_on_c, 8, 49, 100
10, 55100, Note_off_c, 8, 37, 64
10, 55100, Note_off_c, 8, 49, 64
10, 55104, Note_on_c, 8, 37, 100
10, 55104, Note_on_c, 8, 49, 100
10, 55292, Note_off_c, 8, 37, 64
10, 55292, Note_off_c, 8, 49, 64
10, 55296, Note_on_c, 8, 37, 100
10, 55296, Note_on_c, 8, 49, 100
10, 55484, Note_off_c, 8, 37, 64
10, 55484, Note_off_c, 8, 49, 64
10, 55488, Note_on_c, 8, 35, 100
10, 55488, Note_on_c, 8, 47, 100
10, 55676, Note_off_c, 8, 35, 64
10, 55676, Note_off_c, 8, 47, 64
10, 55680, Note_on_c, 8, 35, 100
10, 55680, Note_on_c, 8, 47, 100
10, 55868, Note_off_c, 8, 35, 64
10, 55868, Note_off_c, 8, 47, 64
10, 55872, Note_on_c, 8, 35, 100
10, 55872, Note_on_c, 8, 47, 100
10, 56060, Note_off_c, 8, 35, 64
10, 56060, Note_off_c, 8, 47, 64
10, 56064, Note_on_c, 8, 37, 100
10, 56064, Note_on_c, 8, 49, 100
10, 56252, Note_off_c, 8, 37, 64
10, 56252, Note_off_c, 8, 49, 64
10, 56256, Note_on_c, 8, 37, 100
10, 56256, Note_on_c, 8, 49, 100
10, 56444, Note_off_c, 8, 37, 64
10, 56444, Note_off_c, 8, 49, 64
10, 56448, Note_on_c, 8, 37, 100
10, 56448, Note_on_c, 8, 49, 100
10, 56636, Note_off_c, 8, 37, 64
10, 56636, Note_off_c, 8, 49, 64
10, 56640, Note_on_c, 8, 38, 100
10, 56640, Note_on_c, 8, 50, 100
10, 56828, Note_off_c, 8, 38, 64
10, 56828, Note_off_c, 8, 50, 64
10, 56832, Note_on_c, 8, 35, 100
10, 56832, Note_on_c, 8, 47, 100
10, 57020, Note_off_c, 8, 35, 64
10, 57020, Note_off_c, 8, 47, 64
10, 57024, Note_on_c, 8, 38, 100
10, 57024, Note_on_c, 8, 50, 100
10, 57212, Note_off_c, 8, 38, 64
10, 57212, Note_off_c, 8, 50, 64
10, 57216, Note_on_c, 8, 42, 100
10, 57216, Note_on_c, 8, 54, 100
10, 57404, Note_off_c, 8, 42, 64
10, 57404, Note_off_c, 8, 54, 64
10, 57408, Note_on_c, 8, 38, 100
10, 57408, Note_on_c, 8, 50, 100
10, 57596, Note_off_c, 8, 38, 64
10, 57596, Note_off_c, 8, 50, 64
10, 57600, Note_on_c, 8, 42, 100
10, 57600, Note_on_c, 8, 54, 100
10, 57788, Note_off_c, 8, 42, 64
10, 57788, Note_off_c, 8, 54, 64
10, 57792, Note_on_c, 8, 47, 100
10, 57792, Note_on_c, 8, 59, 100
10, 57980, Note_off_c, 8, 47, 64
10, 57980, Note_off_c, 8, 59, 64
10, 57984, Note_on_c, 8, 47, 100
10, 57984, Note_on_c, 8, 59, 100
10, 58172, Note_off_c, 8, 47, 64
10, 58172, Note_off_c, 8, 59, 64
10, 58176, Note_on_c, 8, 47, 100
10, 58176, Note_on_c, 8, 59, 100
10, 58364, Note_off_c, 8, 47, 64
10, 58364, Note_off_c, 8, 59, 64
10, 58368, Note_on_c, 8, 45, 100
10, 58368, Note_on_c, 8, 57, 100
10, 58556, Note_off_c, 8, 45, 64
10, 58556, Note_off_c, 8, 57, 64
10, 58560, Note_on_c, 8, 45, 100
10, 58560, Note_on_c, 8, 57, 100
10, 58748, Note_off_c, 8, 45, 64
10, 58748, Note_off_c, 8, 57, 64
10, 58752, Note_on_c, 8, 45, 100
10, 58752, Note_on_c, 8, 57, 100
10, 58940, Note_off_c, 8, 45, 64
10, 58940, Note_off_c, 8, 57, 64
10, 58944, Note_on_c, 8, 44, 100
10, 58944, Note_on_c, 8, 56, 100
10, 59132, Note_off_c, 8, 44, 64
10, 59132, Note_off_c, 8, 56, 64
10, 59136, Note_on_c, 8, 44, 100
10, 59136, Note_on_c, 8, 56, 100
10, 59324, Note_off_c, 8, 44, 64
10, 59324, Note_off_c, 8, 56, 64
10, 59328, Note_on_c, 8, 44, 100
10, 59328, Note_on_c, 8, 56, 100
10, 59516, Note_off_c, 8, 44, 64
10, 59516, Note_off_c, 8, 56, 64
10, 59520, Note_on_c, 8, 41, 100
10, 59520, Note_on_c, 8, 53, 100
10, 59708, Note_off_c, 8, 41, 64
10, 59708, Note_off_c, 8, 53, 64
10, 59712, Note_on_c, 8, 41, 100
10, 59712, Note_on_c, 8, 53, 100
10, 59900, Note_off_c, 8, 41, 64
10, 59900, Note_off_c, 8, 53, 64
10, 59904, Note_on_c, 8, 41, 100
10, 59904, Note_on_c, 8, 53, 100
10, 60092, Note_off_c, 8, 41, 64
10, 60092, Note_off_c, 8, 53, 64
10, 60096, Note_on_c, 8, 45, 100
10, 60096, Note_on_c, 8, 57, 100
10, 60286, Note_off_c, 8, 45, 64
10, 60286, Note_off_c, 8, 57, 64
10, 60288, Note_on_c, 8, 44, 100
10, 60288, Note_on_c, 8, 56, 100
10, 60478, Note_off_c, 8, 44, 64
10, 60478, Note_off_c, 8, 56, 64
10, 60480, Note_on_c, 8, 42, 100
10, 60480, Note_on_c, 8, 54, 100
10, 60670, Note_off_c, 8, 42, 64
10, 60670, Note_off_c, 8, 54, 64
10, 60672, Note_on_c, 8, 49, 100
10, 60672, Note_on_c, 8, 61, 100
10, 60862, Note_off_c, 8, 49, 64
10, 60862, Note_off_c, 8, 61, 64
10, 60864, Note_on_c, 8, 49, 100
10, 60864, Note_on_c, 8, 61, 100
10, 61054, Note_off_c, 8, 49, 64
10, 61054, Note_off_c, 8, 61, 64
10, 61056, Note_on_c, 8, 37, 100
10, 61056, Note_on_c, 8, 49, 100
10, 61246, Note_off_c, 8, 37, 64
10, 61246, Note_off_c, 8, 49, 64
10, 61248, Note_on_c, 8, 42, 100
10, 61248, Note_on_c, 8, 54, 100
10, 61438, Note_off_c, 8, 42, 64
10, 61438, Note_off_c, 8, 54, 64
10, 61440, Note_on_c, 8, 45, 100
10, 61440, Note_on_c, 8, 57, 100
10, 61630, Note_off_c, 8, 45, 64
10, 61630, Note_off_c, 8, 57, 64
10, 61632, Note_on_c, 8, 37, 100
10, 61632, Note_on_c, 8, 49, 100
10, 61822, Note_off_c, 8, 37, 64
10, 61822, Note_off_c, 8, 49, 64
10, 61824, Note_on_c, 8, 42, 100
10, 61824, Note_on_c, 8, 54, 100
10, 62014, Note_off_c, 8, 42, 64
10, 62014, Note_off_c, 8, 54, 64
10, 62016, Note_on_c, 8, 33, 100
10, 62016, Note_on_c, 8, 45, 100
10, 62206, Note_off_c, 8, 33, 64
10, 62206, Note_off_c, 8, 45, 64
10, 62208, Note_on_c, 8, 37, 100
10, 62208, Note_on_c, 8, 49, 100
10, 62398, Note_off_c, 8, 37, 64
10, 62398, Note_off_c, 8, 49, 64
10, 62400, Note_on_c, 8, 30, 100
10, 62400, Note_on_c, 8, 42, 100
10, 62782, Note_off_c, 8, 30, 64
10, 62782, Note_off_c, 8, 42, 64
10, 63552, Note_on_c, 8, 35, 100
10, 63552, Note_on_c, 8, 47, 100
10, 63742, Note_off_c, 8, 35, 64
10, 63742, Note_off_c, 8, 47, 64
10, 63744, Note_on_c, 8, 35, 100
10, 63744, Note_on_c, 8, 47, 100
10, 63934, Note_off_c, 8, 35, 64
10, 63934, Note_off_c, 8, 47, 64
10, 63936, Note_on_c, 8, 35, 100
10, 63936, Note_on_c, 8, 47, 100
10, 64126, Note_off_c, 8, 35, 64
10, 64126, Note_off_c, 8, 47, 64
10, 64128, Note_on_c, 8, 35, 100
10, 64128, Note_on_c, 8, 47, 100
10, 64318, Note_off_c, 8, 35, 64
10, 64318, Note_off_c, 8, 47, 64
10, 64320, Note_on_c, 8, 35, 100
10, 64320, Note_on_c, 8, 47, 100
10, 64510, Note_off_c, 8, 35, 64
10, 64510, Note_off_c, 8, 47, 64
10, 64512, Note_on_c, 8, 35, 100
10, 64512, Note_on_c, 8, 47, 100
10, 64702, Note_off_c, 8, 35, 64
10, 64702, Note_off_c, 8, 47, 64
10, 64704, Note_on_c, 8, 28, 100
10, 64704, Note_on_c, 8, 40, 100
10, 65086, Note_off_c, 8, 28, 64
10, 65086, Note_off_c, 8, 40, 64
10, 65856, Note_on_c, 8, 30, 100
10, 65856, Note_on_c, 8, 42, 100
10, 66046, Note_off_c, 8, 30, 64
10, 66046, Note_off_c, 8, 42, 64
10, 66048, Note_on_c, 8, 30, 100
10, 66048, Note_on_c, 8, 42, 100
10, 66238, Note_off_c, 8, 30, 64
10, 66238, Note_off_c, 8, 42, 64
10, 66240, Note_on_c, 8, 30, 100
10, 66240, Note_on_c, 8, 42, 100
10, 66430, Note_off_c, 8, 30, 64
10, 66430, Note_off_c, 8, 42, 64
10, 66432, Note_on_c, 8, 30, 100
10, 66432, Note_on_c, 8, 42, 100
10, 66622, Note_off_c, 8, 30, 64
10, 66622, Note_off_c, 8, 42, 64
10, 66624, Note_on_c, 8, 30, 100
10, 66624, Note_on_c, 8, 42, 100
10, 66814, Note_off_c, 8, 30, 64
10, 66814, Note_off_c, 8, 42, 64
10, 66816, Note_on_c, 8, 30, 100
10, 66816, Note_on_c, 8, 42, 100
10, 67006, Note_off_c, 8, 30, 64
10, 67006, Note_off_c, 8, 42, 64
10, 67008, Note_on_c, 8, 35, 100
10, 67008, Note_on_c, 8, 47, 100
10, 67390, Note_off_c, 8, 35, 64
10, 67390, Note_off_c, 8, 47, 64
10, 68160, Note_on_c, 8, 37, 100
10, 68160, Note_on_c, 8, 49, 100
10, 68350, Note_off_c, 8, 37, 64
10, 68350, Note_off_c, 8, 49, 64
10, 68352, Note_on_c, 8, 37, 100
10, 68352, Note_on_c, 8, 49, 100
10, 68542, Note_off_c, 8, 37, 64
10, 68542, Note_off_c, 8, 49, 64
10, 68544, Note_on_c, 8, 37, 100
10, 68544, Note_on_c, 8, 49, 100
10, 68734, Note_off_c, 8, 37, 64
10, 68734, Note_off_c, 8, 49, 64
10, 68736, Note_on_c, 8, 37, 100
10, 68736, Note_on_c, 8, 49, 100
10, 68926, Note_off_c, 8, 37, 64
10, 68926, Note_off_c, 8, 49, 64
10, 68928, Note_on_c, 8, 37, 100
10, 68928, Note_on_c, 8, 49, 100
10, 69118, Note_off_c, 8, 37, 64
10, 69118, Note_off_c, 8, 49, 64
10, 69120, Note_on_c, 8, 37, 100
10, 69120, Note_on_c, 8, 49, 100
10, 69310, Note_off_c, 8, 37, 64
10, 69310, Note_off_c, 8, 49, 64
10, 69312, Note_on_c, 8, 30, 100
10, 69312, Note_on_c, 8, 42, 100
10, 69502, Note_off_c, 8, 30, 64
10, 69502, Note_off_c, 8, 42, 64
10, 69504, Note_on_c, 8, 30, 100
10, 69504, Note_on_c, 8, 42, 100
10, 69694, Note_off_c, 8, 30, 64
10, 69694, Note_off_c, 8, 42, 64
10, 69696, Note_on_c, 8, 30, 100
10, 69696, Note_on_c, 8, 42, 100
10, 69886, Note_off_c, 8, 30, 64
10, 69886, Note_off_c, 8, 42, 64
10, 69888, Note_on_c, 8, 30, 100
10, 69888, Note_on_c, 8, 42, 100
10, 70078, Note_off_c, 8, 30, 64
10, 70078, Note_off_c, 8, 42, 64
10, 70080, Note_on_c, 8, 30, 100
10, 70080, Note_on_c, 8, 42, 100
10, 70270, Note_off_c, 8, 30, 64
10, 70270, Note_off_c, 8, 42, 64
10, 70272, Note_on_c, 8, 30, 100
10, 70272, Note_on_c, 8, 42, 100
10, 70462, Note_off_c, 8, 30, 64
10, 70462, Note_off_c, 8, 42, 64
10, 70464, Note_on_c, 8, 30, 100
10, 70464, Note_on_c, 8, 42, 100
10, 70654, Note_off_c, 8, 30, 64
10, 70654, Note_off_c, 8, 42, 64
10, 70656, Note_on_c, 8, 30, 100
10, 70656, Note_on_c, 8, 42, 100
10, 70846, Note_off_c, 8, 30, 64
10, 70846, Note_off_c, 8, 42, 64
10, 70848, Note_on_c, 8, 30, 100
10, 70848, Note_on_c, 8, 42, 100
10, 71038, Note_off_c, 8, 30, 64
10, 71038, Note_off_c, 8, 42, 64
10, 71040, Note_on_c, 8, 42, 100
10, 71040, Note_on_c, 8, 54, 100
10, 71230, Note_off_c, 8, 42, 64
10, 71230, Note_off_c, 8, 54, 64
10, 71232, Note_on_c, 8, 39, 100
10, 71232, Note_on_c, 8, 51, 100
10, 71422, Note_off_c, 8, 39, 64
10, 71422, Note_off_c, 8, 51, 64
10, 71424, Note_on_c, 8, 36, 100
10, 71424, Note_on_c, 8, 48, 100
10, 71614, Note_off_c, 8, 36, 64
10, 71614, Note_off_c, 8, 48, 64
10, 71616, Note_on_c, 8, 40, 100
10, 71616, Note_on_c, 8, 52, 100
10, 71806, Note_off_c, 8, 40, 64
10, 71806, Note_off_c, 8, 52, 64
10, 71808, Note_on_c, 8, 40, 100
10, 71808, Note_on_c, 8, 52, 100
10, 71998, Note_off_c, 8, 40, 64
10, 71998, Note_off_c, 8, 52, 64
10, 72000, Note_on_c, 8, 40, 100
10, 72000, Note_on_c, 8, 52, 100
10, 72190, Note_off_c, 8, 40, 64
10, 72190, Note_off_c, 8, 52, 64
10, 72192, Note_on_c, 8, 45, 100
10, 72192, Note_on_c, 8, 57, 100
10, 72382, Note_off_c, 8, 45, 64
10, 72382, Note_off_c, 8, 57, 64
10, 72384, Note_on_c, 8, 45, 100
10, 72384, Note_on_c, 8, 57, 100
10, 72574, Note_off_c, 8, 45, 64
10, 72574, Note_off_c, 8, 57, 64
10, 72576, Note_on_c, 8, 45, 100
10, 72576, Note_on_c, 8, 57, 100
10, 72766, Note_off_c, 8, 45, 64
10, 72766, Note_off_c, 8, 57, 64
10, 72768, Note_on_c, 8, 42, 100
10, 72768, Note_on_c, 8, 54, 100
10, 72958, Note_off_c, 8, 42, 64
10, 72958, Note_off_c, 8, 54, 64
10, 72960, Note_on_c, 8, 42, 100
10, 72960, Note_on_c, 8, 54, 100
10, 73150, Note_off_c, 8, 42, 64
10, 73150, Note_off_c, 8, 54, 64
10, 73152, Note_on_c, 8, 42, 100
10, 73152, Note_on_c, 8, 54, 100
10, 73342, Note_off_c, 8, 42, 64
10, 73342, Note_off_c, 8, 54, 64
10, 73344, Note_on_c, 8, 40, 100
10, 73344, Note_on_c, 8, 52, 100
10, 73534, Note_off_c, 8, 40, 64
10, 73534, Note_off_c, 8, 52, 64
10, 73536, Note_on_c, 8, 40, 100
10, 73536, Note_on_c, 8, 52, 100
10, 73726, Note_off_c, 8, 40, 64
10, 73726, Note_off_c, 8, 52, 64
10, 73728, Note_on_c, 8, 40, 100
10, 73728, Note_on_c, 8, 52, 100
10, 73918, Note_off_c, 8, 40, 64
10, 73918, Note_off_c, 8, 52, 64
10, 73920, Note_on_c, 8, 39, 100
10, 73920, Note_on_c, 8, 51, 100
10, 74110, Note_off_c, 8, 39, 64
10, 74110, Note_off_c, 8, 51, 64
10, 74112, Note_on_c, 8, 40, 100
10, 74112, Note_on_c, 8, 52, 100
10, 74302, Note_off_c, 8, 40, 64
10, 74302, Note_off_c, 8, 52, 64
10, 74304, Note_on_c, 8, 42, 100
10, 74304, Note_on_c, 8, 54, 100
10, 74494, Note_off_c, 8, 42, 64
10, 74494, Note_off_c, 8, 54, 64
10, 74496, Note_on_c, 8, 40, 100
10, 74496, Note_on_c, 8, 52, 100
10, 74686, Note_off_c, 8, 40, 64
10, 74686, Note_off_c, 8, 52, 64
10, 74688, Note_on_c, 8, 42, 100
10, 74688, Note_on_c, 8, 54, 100
10, 74878, Note_off_c, 8, 42, 64
10, 74878, Note_off_c, 8, 54, 64
10, 74880, Note_on_c, 8, 44, 100
10, 74880, Note_on_c, 8, 56, 100
10, 75070, Note_off_c, 8, 44, 64
10, 75070, Note_off_c, 8, 56, 64
10, 75072, Note_on_c, 8, 37, 100
10, 75072, Note_on_c, 8, 49, 100
10, 75262, Note_off_c, 8, 37, 64
10, 75262, Note_off_c, 8, 49, 64
10, 75264, Note_on_c, 8, 37, 100
10, 75264, Note_on_c, 8, 49, 100
10, 75454, Note_off_c, 8, 37, 64
10, 75454, Note_off_c, 8, 49, 64
10, 75456, Note_on_c, 8, 37, 100
10, 75456, Note_on_c, 8, 49, 100
10, 75646, Note_off_c, 8, 37, 64
10, 75646, Note_off_c, 8, 49, 64
10, 75648, Note_on_c, 8, 41, 100
10, 75648, Note_on_c, 8, 53, 100
10, 75838, Note_off_c, 8, 41, 64
10, 75838, Note_off_c, 8, 53, 64
10, 75840, Note_on_c, 8, 41, 100
10, 75840, Note_on_c, 8, 53, 100
10, 76030, Note_off_c, 8, 41, 64
10, 76030, Note_off_c, 8, 53, 64
10, 76032, Note_on_c, 8, 41, 100
10, 76032, Note_on_c, 8, 53, 100
10, 76222, Note_off_c, 8, 41, 64
10, 76222, Note_off_c, 8, 53, 64
10, 76224, Note_on_c, 8, 42, 100
10, 76224, Note_on_c, 8, 54, 100
10, 76414, Note_off_c, 8, 42, 64
10, 76414, Note_off_c, 8, 54, 64
10, 76416, Note_on_c, 8, 42, 100
10, 76416, Note_on_c, 8, 54, 100
10, 76606, Note_off_c, 8, 42, 64
10, 76606, Note_off_c, 8, 54, 64
10, 76608, Note_on_c, 8, 42, 100
10, 76608, Note_on_c, 8, 54, 100
10, 76798, Note_off_c, 8, 42, 64
10, 76798, Note_off_c, 8, 54, 64
10, 76800, Note_on_c, 8, 37, 100
10, 76800, Note_on_c, 8, 49, 100
10, 76990, Note_off_c, 8, 37, 64
10, 76990, Note_off_c, 8, 49, 64
10, 76992, Note_on_c, 8, 37, 100
10, 76992, Note_on_c, 8, 49, 100
10, 77182, Note_off_c, 8, 37, 64
10, 77182, Note_off_c, 8, 49, 64
10, 77184, Note_on_c, 8, 37, 100
10, 77184, Note_on_c, 8, 49, 100
10, 77374, Note_off_c, 8, 37, 64
10, 77374, Note_off_c, 8, 49, 64
10, 77376, Note_on_c, 8, 38, 100
10, 77376, Note_on_c, 8, 50, 100
10, 77566, Note_off_c, 8, 38, 64
10, 77566, Note_off_c, 8, 50, 64
10, 77568, Note_on_c, 8, 38, 100
10, 77568, Note_on_c, 8, 50, 100
10, 77758, Note_off_c, 8, 38, 64
10, 77758, Note_off_c, 8, 50, 64
10, 77760, Note_on_c, 8, 38, 100
10, 77760, Note_on_c, 8, 50, 100
10, 77950, Note_off_c, 8, 38, 64
10, 77950, Note_off_c, 8, 50, 64
10, 77952, Note_on_c, 8, 34, 100
10, 77952, Note_on_c, 8, 46, 100
10, 78142, Note_off_c, 8, 34, 64
10, 78142, Note_off_c, 8, 46, 64
10, 78144, Note_on_c, 8, 34, 100
10, 78144, Note_on_c, 8, 46, 100
10, 78334, Note_off_c, 8, 34, 64
10, 78334, Note_off_c, 8, 46, 64
10, 78336, Note_on_c, 8, 34, 100
10, 78336, Note_on_c, 8, 46, 100
10, 78526, Note_off_c, 8, 34, 64
10, 78526, Note_off_c, 8, 46, 64
10, 78528, Note_on_c, 8, 35, 100
10, 78528, Note_on_c, 8, 47, 100
10, 78718, Note_off_c, 8, 35, 64
10, 78718, Note_off_c, 8, 47, 64
10, 78720, Note_on_c, 8, 35, 100
10, 78720, Note_on_c, 8, 47, 100
10, 78910, Note_off_c, 8, 35, 64
10, 78910, Note_off_c, 8, 47, 64
10, 78912, Note_on_c, 8, 35, 100
10, 78912, Note_on_c, 8, 47, 100
10, 79102, Note_off_c, 8, 35, 64
10, 79102, Note_off_c, 8, 47, 64
10, 79104, Note_on_c, 8, 30, 100
10, 79104, Note_on_c, 8, 42, 100
10, 79294, Note_off_c, 8, 30, 64
10, 79294, Note_off_c, 8, 42, 64
10, 79296, Note_on_c, 8, 30, 100
10, 79296, Note_on_c, 8, 42, 100
10, 79486, Note_off_c, 8, 30, 64
10, 79486, Note_off_c, 8, 42, 64
10, 79488, Note_on_c, 8, 30, 100
10, 79488, Note_on_c, 8, 42, 100
10, 79678, Note_off_c, 8, 30, 64
10, 79678, Note_off_c, 8, 42, 64
10, 79680, Note_on_c, 8, 31, 100
10, 79680, Note_on_c, 8, 43, 100
10, 79870, Note_off_c, 8, 31, 64
10, 79870, Note_off_c, 8, 43, 64
10, 79872, Note_on_c, 8, 31, 100
10, 79872, Note_on_c, 8, 43, 100
10, 80062, Note_off_c, 8, 31, 64
10, 80062, Note_off_c, 8, 43, 64
10, 80064, Note_on_c, 8, 31, 100
10, 80064, Note_on_c, 8, 43, 100
10, 80254, Note_off_c, 8, 31, 64
10, 80254, Note_off_c, 8, 43, 64
10, 80256, Note_on_c, 8, 35, 100
10, 80256, Note_on_c, 8, 47, 100
10, 80446, Note_off_c, 8, 35, 64
10, 80446, Note_off_c, 8, 47, 64
10, 80448, Note_on_c, 8, 35, 100
10, 80448, Note_on_c, 8, 47, 100
10, 80638, Note_off_c, 8, 35, 64
10, 80638, Note_off_c, 8, 47, 64
10, 80640, Note_on_c, 8, 35, 100
10, 80640, Note_on_c, 8, 47, 100
10, 80830, Note_off_c, 8, 35, 64
10, 80830, Note_off_c, 8, 47, 64
10, 80832, Note_on_c, 8, 40, 100
10, 80832, Note_on_c, 8, 52, 100
10, 81022, Note_off_c, 8, 40, 64
10, 81022, Note_off_c, 8, 52, 64
10, 81024, Note_on_c, 8, 40, 100
10, 81024, Note_on_c, 8, 52, 100
10, 81214, Note_off_c, 8, 40, 64
10, 81214, Note_off_c, 8, 52, 64
10, 81216, Note_on_c, 8, 40, 100
10, 81216, Note_on_c, 8, 52, 100
10, 81406, Note_off_c, 8, 40, 64
10, 81406, Note_off_c, 8, 52, 64
10, 81408, Note_on_c, 8, 38, 100
10, 81408, Note_on_c, 8, 50, 100
10, 81598, Note_off_c, 8, 38, 64
10, 81598, Note_off_c, 8, 50, 64
10, 81600, Note_on_c, 8, 38, 100
10, 81600, Note_on_c, 8, 50, 100
10, 81790, Note_off_c, 8, 38, 64
10, 81790, Note_off_c, 8, 50, 64
10, 81792, Note_on_c, 8, 38, 100
10, 81792, Note_on_c, 8, 50, 100
10, 81982, Note_off_c, 8, 38, 64
10, 81982, Note_off_c, 8, 50, 64
10, 81984, Note_on_c, 8, 37, 100
10, 81984, Note_on_c, 8, 49, 100
10, 82174, Note_off_c, 8, 37, 64
10, 82174, Note_off_c, 8, 49, 64
10, 82176, Note_on_c, 8, 37, 100
10, 82176, Note_on_c, 8, 49, 100
10, 82366, Note_off_c, 8, 37, 64
10, 82366, Note_off_c, 8, 49, 64
10, 82368, Note_on_c, 8, 37, 100
10, 82368, Note_on_c, 8, 49, 100
10, 82558, Note_off_c, 8, 37, 64
10, 82558, Note_off_c, 8, 49, 64
10, 82560, Note_on_c, 8, 34, 100
10, 82560, Note_on_c, 8, 46, 100
10, 82750, Note_off_c, 8, 34, 64
10, 82750, Note_off_c, 8, 46, 64
10, 82752, Note_on_c, 8, 34, 100
10, 82752, Note_on_c, 8, 46, 100
10, 82942, Note_off_c, 8, 34, 64
10, 82942, Note_off_c, 8, 46, 64
10, 82944, Note_on_c, 8, 34, 100
10, 82944, Note_on_c, 8, 46, 100
10, 83134, Note_off_c, 8, 34, 64
10, 83134, Note_off_c, 8, 46, 64
10, 83136, Note_on_c, 8, 35, 100
10, 83136, Note_on_c, 8, 47, 100
10, 83326, Note_off_c, 8, 35, 64
10, 83326, Note_off_c, 8, 47, 64
10, 83328, Note_on_c, 8, 35, 100
10, 83328, Note_on_c, 8, 47, 100
10, 83518, Note_off_c, 8, 35, 64
10, 83518, Note_off_c, 8, 47, 64
10, 83520, Note_on_c, 8, 35, 100
10, 83520, Note_on_c, 8, 47, 100
10, 83710, Note_off_c, 8, 35, 64
10, 83710, Note_off_c, 8, 47, 64
10, 83712, Note_on_c, 8, 31, 100
10, 83712, Note_on_c, 8, 43, 100
10, 83902, Note_off_c, 8, 31, 64
10, 83902, Note_off_c, 8, 43, 64
10, 83904, Note_on_c, 8, 31, 100
10, 83904, Note_on_c, 8, 43, 100
10, 84094, Note_off_c, 8, 31, 64
10, 84094, Note_off_c, 8, 43, 64
10, 84096, Note_on_c, 8, 31, 100
10, 84096, Note_on_c, 8, 43, 100
10, 84286, Note_off_c, 8, 31, 64
10, 84286, Note_off_c, 8, 43, 64
10, 84288, Note_on_c, 8, 30, 100
10, 84288, Note_on_c, 8, 42, 100
10, 84670, Note_off_c, 8, 30, 64
10, 84670, Note_off_c, 8, 42, 64
10, 85440, Note_on_c, 8, 35, 100
10, 85440, Note_on_c, 8, 47, 100
10, 85822, Note_off_c, 8, 35, 64
10, 85822, Note_off_c, 8, 47, 64
10, 86592, Note_on_c, 8, 40, 100
10, 86592, Note_on_c, 8, 52, 100
10, 86974, Note_off_c, 8, 40, 64
10, 86974, Note_off_c, 8, 52, 64
10, 87744, Note_on_c, 8, 42, 100
10, 87744, Note_on_c, 8, 54, 100
10, 88126, Note_off_c, 8, 42, 64
10, 88126, Note_off_c, 8, 54, 64
10, 88896, Note_on_c, 8, 35, 100
10, 88896, Note_on_c, 8, 47, 100
10, 89278, Note_off_c, 8, 35, 64
10, 89278, Note_off_c, 8, 47, 64
10, 90048, Note_on_c, 8, 47, 100
10, 90048, Note_on_c, 8, 59, 100
10, 90238, Note_off_c, 8, 47, 64
10, 90238, Note_off_c, 8, 59, 64
10, 90240, Note_on_c, 8, 47, 100
10, 90240, Note_on_c, 8, 59, 100
10, 90430, Note_off_c, 8, 47, 64
10, 90430, Note_off_c, 8, 59, 64
10, 90432, Note_on_c, 8, 47, 100
10, 90432, Note_on_c, 8, 59, 100
10, 90622, Note_off_c, 8, 47, 64
10, 90622, Note_off_c, 8, 59, 64
10, 90624, Note_on_c, 8, 45, 100
10, 90624, Note_on_c, 8, 57, 100
10, 90814, Note_off_c, 8, 45, 64
10, 90814, Note_off_c, 8, 57, 64
10, 90816, Note_on_c, 8, 45, 100
10, 90816, Note_on_c, 8, 57, 100
10, 91006, Note_off_c, 8, 45, 64
10, 91006, Note_off_c, 8, 57, 64
10, 91008, Note_on_c, 8, 45, 100
10, 91008, Note_on_c, 8, 57, 100
10, 91198, Note_off_c, 8, 45, 64
10, 91198, Note_off_c, 8, 57, 64
10, 91200, Note_on_c, 8, 43, 100
10, 91200, Note_on_c, 8, 55, 100
10, 91390, Note_off_c, 8, 43, 64
10, 91390, Note_off_c, 8, 55, 64
10, 91392, Note_on_c, 8, 43, 100
10, 91392, Note_on_c, 8, 55, 100
10, 91582, Note_off_c, 8, 43, 64
10, 91582, Note_off_c, 8, 55, 64
10, 91584, Note_on_c, 8, 43, 100
10, 91584, Note_on_c, 8, 55, 100
10, 91774, Note_off_c, 8, 43, 64
10, 91774, Note_off_c, 8, 55, 64
10, 91776, Note_on_c, 8, 42, 100
10, 91776, Note_on_c, 8, 54, 100
10, 91966, Note_off_c, 8, 42, 64
10, 91966, Note_off_c, 8, 54, 64
10, 91968, Note_on_c, 8, 42, 100
10, 91968, Note_on_c, 8, 54, 100
10, 92158, Note_off_c, 8, 42, 64
10, 92158, Note_off_c, 8, 54, 64
10, 92160, Note_on_c, 8, 42, 100
10, 92160, Note_on_c, 8, 54, 100
10, 92350, Note_off_c, 8, 42, 64
10, 92350, Note_off_c, 8, 54, 64
10, 92352, Note_on_c, 8, 40, 100
10, 92352, Note_on_c, 8, 52, 100
10, 92542, Note_off_c, 8, 40, 64
10, 92542, Note_off_c, 8, 52, 64
10, 92544, Note_on_c, 8, 40, 100
10, 92544, Note_on_c, 8, 52, 100
10, 92734, Note_off_c, 8, 40, 64
10, 92734, Note_off_c, 8, 52, 64
10, 92736, Note_on_c, 8, 40, 100
10, 92736, Note_on_c, 8, 52, 100
10, 92926, Note_off_c, 8, 40, 64
10, 92926, Note_off_c, 8, 52, 64
10, 92928, Note_on_c, 8, 42, 100
10, 92928, Note_on_c, 8, 54, 100
10, 93118, Note_off_c, 8, 42, 64
10, 93118, Note_off_c, 8, 54, 64
10, 93120, Note_on_c, 8, 42, 100
10, 93120, Note_on_c, 8, 54, 100
10, 93310, Note_off_c, 8, 42, 64
10, 93310, Note_off_c, 8, 54, 64
10, 93312, Note_on_c, 8, 42, 100
10, 93312, Note_on_c, 8, 54, 100
10, 93502, Note_off_c, 8, 42, 64
10, 93502, Note_off_c, 8, 54, 64
10, 93504, Note_on_c, 8, 43, 100
10, 93504, Note_on_c, 8, 55, 100
10, 93694, Note_off_c, 8, 43, 64
10, 93694, Note_off_c, 8, 55, 64
10, 93696, Note_on_c, 8, 40, 100
10, 93696, Note_on_c, 8, 52, 100
10, 93886, Note_off_c, 8, 40, 64
10, 93886, Note_off_c, 8, 52, 64
10, 93888, Note_on_c, 8, 43, 100
10, 93888, Note_on_c, 8, 55, 100
10, 94078, Note_off_c, 8, 43, 64
10, 94078, Note_off_c, 8, 55, 64
10, 94080, Note_on_c, 8, 47, 100
10, 94080, Note_on_c, 8, 59, 100
10, 94270, Note_off_c, 8, 47, 64
10, 94270, Note_off_c, 8, 59, 64
10, 94272, Note_on_c, 8, 43, 100
10, 94272, Note_on_c, 8, 55, 100
10, 94462, Note_off_c, 8, 43, 64
10, 94462, Note_off_c, 8, 55, 64
10, 94464, Note_on_c, 8, 47, 100
10, 94464, Note_on_c, 8, 59, 100
10, 94654, Note_off_c, 8, 47, 64
10, 94654, Note_off_c, 8, 59, 64
10, 94656, Note_on_c, 8, 52, 100
10, 94656, Note_on_c, 8, 64, 100
10, 94846, Note_off_c, 8, 52, 64
10, 94846, Note_off_c, 8, 64, 64
10, 94848, Note_on_c, 8, 52, 100
10, 94848, Note_on_c, 8, 64, 100
10, 95038, Note_off_c, 8, 52, 64
10, 95038, Note_off_c, 8, 64, 64
10, 95040, Note_on_c, 8, 52, 100
10, 95040, Note_on_c, 8, 64, 100
10, 95230, Note_off_c, 8, 52, 64
10, 95230, Note_off_c, 8, 64, 64
10, 95232, Note_on_c, 8, 50, 100
10, 95232, Note_on_c, 8, 62, 100
10, 95422, Note_off_c, 8, 50, 64
10, 95422, Note_off_c, 8, 62, 64
10, 95424, Note_on_c, 8, 50, 100
10, 95424, Note_on_c, 8, 62, 100
10, 95614, Note_off_c, 8, 50, 64
10, 95614, Note_off_c, 8, 62, 64
10, 95616, Note_on_c, 8, 50, 100
10, 95616, Note_on_c, 8, 62, 100
10, 95806, Note_off_c, 8, 50, 64
10, 95806, Note_off_c, 8, 62, 64
10, 95808, Note_on_c, 8, 49, 100
10, 95808, Note_on_c, 8, 61, 100
10, 95998, Note_off_c, 8, 49, 64
10, 95998, Note_off_c, 8, 61, 64
10, 96000, Note_on_c, 8, 49, 100
10, 96000, Note_on_c, 8, 61, 100
10, 96190, Note_off_c, 8, 49, 64
10, 96190, Note_off_c, 8, 61, 64
10, 96192, Note_on_c, 8, 49, 100
10, 96192, Note_on_c, 8, 61, 100
10, 96382, Note_off_c, 8, 49, 64
10, 96382, Note_off_c, 8, 61, 64
10, 96384, Note_on_c, 8, 46, 100
10, 96384, Note_on_c, 8, 58, 100
10, 96574, Note_off_c, 8, 46, 64
10, 96574, Note_off_c, 8, 58, 64
10, 96576, Note_on_c, 8, 46, 100
10, 96576, Note_on_c, 8, 58, 100
10, 96766, Note_off_c, 8, 46, 64
10, 96766, Note_off_c, 8, 58, 64
10, 96768, Note_on_c, 8, 46, 100
10, 96768, Note_on_c, 8, 58, 100
10, 96958, Note_off_c, 8, 46, 64
10, 96958, Note_off_c, 8, 58, 64
10, 96960, Note_on_c, 8, 47, 100
10, 96960, Note_on_c, 8, 59, 100
10, 97150, Note_off_c, 8, 47, 64
10, 97150, Note_off_c, 8, 59, 64
10, 97152, Note_on_c, 8, 47, 100
10, 97152, Note_on_c, 8, 59, 100
10, 97342, Note_off_c, 8, 47, 64
10, 97342, Note_off_c, 8, 59, 64
10, 97344, Note_on_c, 8, 47, 100
10, 97344, Note_on_c, 8, 59, 100
10, 97534, Note_off_c, 8, 47, 64
10, 97534, Note_off_c, 8, 59, 64
10, 97536, Note_on_c, 8, 43, 100
10, 97536, Note_on_c, 8, 55, 100
10, 97726, Note_off_c, 8, 43, 64
10, 97726, Note_off_c, 8, 55, 64
10, 97728, Note_on_c, 8, 43, 100
10, 97728, Note_on_c, 8, 55, 100
10, 97918, Note_off_c, 8, 43, 64
10, 97918, Note_off_c, 8, 55, 64
10, 97920, Note_on_c, 8, 43, 100
10, 97920, Note_on_c, 8, 55, 100
10, 98110, Note_off_c, 8, 43, 64
10, 98110, Note_off_c, 8, 55, 64
10, 98112, Note_on_c, 8, 42, 100
10, 98112, Note_on_c, 8, 54, 100
10, 98302, Note_off_c, 8, 42, 64
10, 98302, Note_off_c, 8, 54, 64
10, 98304, Note_on_c, 8, 37, 100
10, 98304, Note_on_c, 8, 49, 100
10, 98494, Note_off_c, 8, 37, 64
10, 98494, Note_off_c, 8, 49, 64
10, 98496, Note_on_c, 8, 40, 100
10, 98496, Note_on_c, 8, 52, 100
10, 98686, Note_off_c, 8, 40, 64
10, 98686, Note_off_c, 8, 52, 64
10, 98688, Note_on_c, 8, 40, 100
10, 98688, Note_on_c, 8, 52, 100
10, 98878, Note_off_c, 8, 40, 64
10, 98878, Note_off_c, 8, 52, 64
10, 98880, Note_on_c, 8, 34, 100
10, 98880, Note_on_c, 8, 46, 100
10, 99070, Note_off_c, 8, 34, 64
10, 99070, Note_off_c, 8, 46, 64
10, 99072, Note_on_c, 8, 37, 100
10, 99072, Note_on_c, 8, 49, 100
10, 99262, Note_off_c, 8, 37, 64
10, 99262, Note_off_c, 8, 49, 64
10, 100416, Note_on_c, 8, 30, 100
10, 100416, Note_on_c, 8, 42, 100
10, 100606, Note_off_c, 8, 30, 64
10, 100606, Note_off_c, 8, 42, 64
10, 100608, Note_on_c, 8, 30, 100
10, 100608, Note_on_c, 8, 42, 100
10, 100798, Note_off_c, 8, 30, 64
10, 100798, Note_off_c, 8, 42, 64
10, 100800, Note_on_c, 8, 30, 100
10, 100800, Note_on_c, 8, 42, 100
10, 100990, Note_off_c, 8, 30, 64
10, 100990, Note_off_c, 8, 42, 64
10, 100992, Note_on_c, 8, 30, 100
10, 100992, Note_on_c, 8, 42, 100
10, 101182, Note_off_c, 8, 30, 64
10, 101182, Note_off_c, 8, 42, 64
10, 101184, Note_on_c, 8, 30, 100
10, 101184, Note_on_c, 8, 42, 100
10, 101374, Note_off_c, 8, 30, 64
10, 101374, Note_off_c, 8, 42, 64
10, 101376, Note_on_c, 8, 30, 100
10, 101376, Note_on_c, 8, 42, 100
10, 101566, Note_off_c, 8, 30, 64
10, 101566, Note_off_c, 8, 42, 64
10, 101568, Note_on_c, 8, 35, 100
10, 101568, Note_on_c, 8, 47, 100
10, 101950, Note_off_c, 8, 35, 64
10, 101950, Note_off_c, 8, 47, 64
10, 102720, Note_on_c, 8, 35, 100
10, 102720, Note_on_c, 8, 47, 100
10, 102910, Note_off_c, 8, 35, 64
10, 102910, Note_off_c, 8, 47, 64
10, 102912, Note_on_c, 8, 35, 100
10, 102912, Note_on_c, 8, 47, 100
10, 103102, Note_off_c, 8, 35, 64
10, 103102, Note_off_c, 8, 47, 64
10, 103104, Note_on_c, 8, 35, 100
10, 103104, Note_on_c, 8, 47, 100
10, 103294, Note_off_c, 8, 35, 64
10, 103294, Note_off_c, 8, 47, 64
10, 103296, Note_on_c, 8, 35, 100
10, 103296, Note_on_c, 8, 47, 100
10, 103486, Note_off_c, 8, 35, 64
10, 103486, Note_off_c, 8, 47, 64
10, 103488, Note_on_c, 8, 35, 100
10, 103488, Note_on_c, 8, 47, 100
10, 103678, Note_off_c, 8, 35, 64
10, 103678, Note_off_c, 8, 47, 64
10, 103680, Note_on_c, 8, 35, 100
10, 103680, Note_on_c, 8, 47, 100
10, 103870, Note_off_c, 8, 35, 64
10, 103870, Note_off_c, 8, 47, 64
10, 103872, Note_on_c, 8, 28, 100
10, 103872, Note_on_c, 8, 40, 100
10, 104062, Note_off_c, 8, 28, 64
10, 104062, Note_off_c, 8, 40, 64
10, 104064, Note_on_c, 8, 28, 100
10, 104064, Note_on_c, 8, 40, 100
10, 104254, Note_off_c, 8, 28, 64
10, 104254, Note_off_c, 8, 40, 64
10, 104256, Note_on_c, 8, 28, 100
10, 104256, Note_on_c, 8, 40, 100
10, 104446, Note_off_c, 8, 28, 64
10, 104446, Note_off_c, 8, 40, 64
10, 104448, Note_on_c, 8, 28, 100
10, 104448, Note_on_c, 8, 40, 100
10, 104638, Note_off_c, 8, 28, 64
10, 104638, Note_off_c, 8, 40, 64
10, 104640, Note_on_c, 8, 28, 100
10, 104640, Note_on_c, 8, 40, 100
10, 104830, Note_off_c, 8, 28, 64
10, 104830, Note_off_c, 8, 40, 64
10, 104832, Note_on_c, 8, 28, 100
10, 104832, Note_on_c, 8, 40, 100
10, 105022, Note_off_c, 8, 28, 64
10, 105022, Note_off_c, 8, 40, 64
10, 105024, Note_on_c, 8, 28, 100
10, 105024, Note_on_c, 8, 40, 100
10, 105214, Note_off_c, 8, 28, 64
10, 105214, Note_off_c, 8, 40, 64
10, 105216, Note_on_c, 8, 28, 100
10, 105216, Note_on_c, 8, 40, 100
10, 105406, Note_off_c, 8, 28, 64
10, 105406, Note_off_c, 8, 40, 64
10, 105408, Note_on_c, 8, 28, 100
10, 105408, Note_on_c, 8, 40, 100
10, 105598, Note_off_c, 8, 28, 64
10, 105598, Note_off_c, 8, 40, 64
10, 105600, Note_on_c, 8, 28, 100
10, 105600, Note_on_c, 8, 40, 100
10, 105790, Note_off_c, 8, 28, 64
10, 105790, Note_off_c, 8, 40, 64
10, 105792, Note_on_c, 8, 28, 100
10, 105792, Note_on_c, 8, 40, 100
10, 105982, Note_off_c, 8, 28, 64
10, 105982, Note_off_c, 8, 40, 64
10, 105984, Note_on_c, 8, 40, 100
10, 105984, Note_on_c, 8, 52, 100
10, 106174, Note_off_c, 8, 40, 64
10, 106174, Note_off_c, 8, 52, 64
10, 106176, Note_on_c, 8, 38, 100
10, 106176, Note_on_c, 8, 50, 100
10, 106366, Note_off_c, 8, 38, 64
10, 106366, Note_off_c, 8, 50, 64
10, 106368, Note_on_c, 8, 37, 100
10, 106368, Note_on_c, 8, 49, 100
10, 106558, Note_off_c, 8, 37, 64
10, 106558, Note_off_c, 8, 49, 64
10, 106560, Note_on_c, 8, 35, 100
10, 106560, Note_on_c, 8, 47, 100
10, 106750, Note_off_c, 8, 35, 64
10, 106750, Note_off_c, 8, 47, 64
10, 106752, Note_on_c, 8, 42, 100
10, 106752, Note_on_c, 8, 54, 100
10, 106942, Note_off_c, 8, 42, 64
10, 106942, Note_off_c, 8, 54, 64
10, 106944, Note_on_c, 8, 42, 100
10, 106944, Note_on_c, 8, 54, 100
10, 107134, Note_off_c, 8, 42, 64
10, 107134, Note_off_c, 8, 54, 64
10, 107136, Note_on_c, 8, 30, 100
10, 107136, Note_on_c, 8, 42, 100
10, 107326, Note_off_c, 8, 30, 64
10, 107326, Note_off_c, 8, 42, 64
10, 107328, Note_on_c, 8, 35, 100
10, 107328, Note_on_c, 8, 47, 100
10, 107518, Note_off_c, 8, 35, 64
10, 107518, Note_off_c, 8, 47, 64
10, 107520, Note_on_c, 8, 26, 100
10, 107520, Note_on_c, 8, 38, 100
10, 107710, Note_off_c, 8, 26, 64
10, 107710, Note_off_c, 8, 38, 64
10, 107712, Note_on_c, 8, 30, 100
10, 107712, Note_on_c, 8, 42, 100
10, 107902, Note_off_c, 8, 30, 64
10, 107902, Note_off_c, 8, 42, 64
10, 107904, Note_on_c, 8, 35, 100
10, 107904, Note_on_c, 8, 47, 100
10, 108094, Note_off_c, 8, 35, 64
10, 108094, Note_off_c, 8, 47, 64
10, 108096, Note_on_c, 8, 38, 100
10, 108096, Note_on_c, 8, 50, 100
10, 108286, Note_off_c, 8, 38, 64
10, 108286, Note_off_c, 8, 50, 64
10, 108288, Note_on_c, 8, 42, 100
10, 108288, Note_on_c, 8, 54, 100
10, 108478, Note_off_c, 8, 42, 64
10, 108478, Note_off_c, 8, 54, 64
10, 108480, Note_on_c, 8, 47, 100
10, 108480, Note_on_c, 8, 59, 100
10, 108670, Note_off_c, 8, 47, 64
10, 108670, Note_off_c, 8, 59, 64
10, 108672, Note_on_c, 8, 47, 100
10, 108672, Note_on_c, 8, 59, 100
10, 108862, Note_off_c, 8, 47, 64
10, 108862, Note_off_c, 8, 59, 64
10, 108864, Note_on_c, 8, 47, 100
10, 108864, Note_on_c, 8, 59, 100
10, 109054, Note_off_c, 8, 47, 64
10, 109054, Note_off_c, 8, 59, 64
10, 109056, Note_on_c, 8, 45, 100
10, 109056, Note_on_c, 8, 57, 100
10, 109246, Note_off_c, 8, 45, 64
10, 109246, Note_off_c, 8, 57, 64
10, 109248, Note_on_c, 8, 45, 100
10, 109248, Note_on_c, 8, 57, 100
10, 109438, Note_off_c, 8, 45, 64
10, 109438, Note_off_c, 8, 57, 64
10, 109440, Note_on_c, 8, 45, 100
10, 109440, Note_on_c, 8, 57, 100
10, 109630, Note_off_c, 8, 45, 64
10, 109630, Note_off_c, 8, 57, 64
10, 109632, Note_on_c, 8, 43, 100
10, 109632, Note_on_c, 8, 55, 100
10, 109822, Note_off_c, 8, 43, 64
10, 109822, Note_off_c, 8, 55, 64
10, 109824, Note_on_c, 8, 43, 100
10, 109824, Note_on_c, 8, 55, 100
10, 110014, Note_off_c, 8, 43, 64
10, 110014, Note_off_c, 8, 55, 64
10, 110016, Note_on_c, 8, 43, 100
10, 110016, Note_on_c, 8, 55, 100
10, 110206, Note_off_c, 8, 43, 64
10, 110206, Note_off_c, 8, 55, 64
10, 110208, Note_on_c, 8, 42, 100
10, 110208, Note_on_c, 8, 54, 100
10, 110398, Note_off_c, 8, 42, 64
10, 110398, Note_off_c, 8, 54, 64
10, 110400, Note_on_c, 8, 42, 100
10, 110400, Note_on_c, 8, 54, 100
10, 110590, Note_off_c, 8, 42, 64
10, 110590, Note_off_c, 8, 54, 64
10, 110592, Note_on_c, 8, 42, 100
10, 110592, Note_on_c, 8, 54, 100
10, 110782, Note_off_c, 8, 42, 64
10, 110782, Note_off_c, 8, 54, 64
10, 110784, Note_on_c, 8, 40, 100
10, 110784, Note_on_c, 8, 52, 100
10, 110974, Note_off_c, 8, 40, 64
10, 110974, Note_off_c, 8, 52, 64
10, 110976, Note_on_c, 8, 40, 100
10, 110976, Note_on_c, 8, 52, 100
10, 111166, Note_off_c, 8, 40, 64
10, 111166, Note_off_c, 8, 52, 64
10, 111168, Note_on_c, 8, 40, 100
10, 111168, Note_on_c, 8, 52, 100
10, 111358, Note_off_c, 8, 40, 64
10, 111358, Note_off_c, 8, 52, 64
10, 111360, Note_on_c, 8, 42, 100
10, 111360, Note_on_c, 8, 54, 100
10, 111550, Note_off_c, 8, 42, 64
10, 111550, Note_off_c, 8, 54, 64
10, 111552, Note_on_c, 8, 42, 100
10, 111552, Note_on_c, 8, 54, 100
10, 111742, Note_off_c, 8, 42, 64
10, 111742, Note_off_c, 8, 54, 64
10, 111744, Note_on_c, 8, 42, 100
10, 111744, Note_on_c, 8, 54, 100
10, 111934, Note_off_c, 8, 42, 64
10, 111934, Note_off_c, 8, 54, 64
10, 111936, Note_on_c, 8, 43, 100
10, 111936, Note_on_c, 8, 55, 100
10, 112126, Note_off_c, 8, 43, 64
10, 112126, Note_off_c, 8, 55, 64
10, 112128, Note_on_c, 8, 40, 100
10, 112128, Note_on_c, 8, 52, 100
10, 112318, Note_off_c, 8, 40, 64
10, 112318, Note_off_c, 8, 52, 64
10, 112320, Note_on_c, 8, 43, 100
10, 112320, Note_on_c, 8, 55, 100
10, 112510, Note_off_c, 8, 43, 64
10, 112510, Note_off_c, 8, 55, 64
10, 112512, Note_on_c, 8, 47, 100
10, 112512, Note_on_c, 8, 59, 100
10, 112702, Note_off_c, 8, 47, 64
10, 112702, Note_off_c, 8, 59, 64
10, 112704, Note_on_c, 8, 43, 100
10, 112704, Note_on_c, 8, 55, 100
10, 112894, Note_off_c, 8, 43, 64
10, 112894, Note_off_c, 8, 55, 64
10, 112896, Note_on_c, 8, 47, 100
10, 112896, Note_on_c, 8, 59, 100
10, 113086, Note_off_c, 8, 47, 64
10, 113086, Note_off_c, 8, 59, 64
10, 113088, Note_on_c, 8, 52, 100
10, 113088, Note_on_c, 8, 64, 100
10, 113278, Note_off_c, 8, 52, 64
10, 113278, Note_off_c, 8, 64, 64
10, 113280, Note_on_c, 8, 52, 100
10, 113280, Note_on_c, 8, 64, 100
10, 113470, Note_off_c, 8, 52, 64
10, 113470, Note_off_c, 8, 64, 64
10, 113472, Note_on_c, 8, 52, 100
10, 113472, Note_on_c, 8, 64, 100
10, 113662, Note_off_c, 8, 52, 64
10, 113662, Note_off_c, 8, 64, 64
10, 113664, Note_on_c, 8, 50, 100
10, 113664, Note_on_c, 8, 62, 100
10, 113854, Note_off_c, 8, 50, 64
10, 113854, Note_off_c, 8, 62, 64
10, 113856, Note_on_c, 8, 50, 100
10, 113856, Note_on_c, 8, 62, 100
10, 114046, Note_off_c, 8, 50, 64
10, 114046, Note_off_c, 8, 62, 64
10, 114048, Note_on_c, 8, 50, 100
10, 114048, Note_on_c, 8, 62, 100
10, 114238, Note_off_c, 8, 50, 64
10, 114238, Note_off_c, 8, 62, 64
10, 114240, Note_on_c, 8, 49, 100
10, 114240, Note_on_c, 8, 61, 100
10, 114430, Note_off_c, 8, 49, 64
10, 114430, Note_off_c, 8, 61, 64
10, 114432, Note_on_c, 8, 49, 100
10, 114432, Note_on_c, 8, 61, 100
10, 114622, Note_off_c, 8, 49, 64
10, 114622, Note_off_c, 8, 61, 64
10, 114624, Note_on_c, 8, 49, 100
10, 114624, Note_on_c, 8, 61, 100
10, 114814, Note_off_c, 8, 49, 64
10, 114814, Note_off_c, 8, 61, 64
10, 114816, Note_on_c, 8, 46, 100
10, 114816, Note_on_c, 8, 58, 100
10, 115006, Note_off_c, 8, 46, 64
10, 115006, Note_off_c, 8, 58, 64
10, 115008, Note_on_c, 8, 46, 100
10, 115008, Note_on_c, 8, 58, 100
10, 115198, Note_off_c, 8, 46, 64
10, 115198, Note_off_c, 8, 58, 64
10, 115200, Note_on_c, 8, 46, 100
10, 115200, Note_on_c, 8, 58, 100
10, 115390, Note_off_c, 8, 46, 64
10, 115390, Note_off_c, 8, 58, 64
10, 115392, Note_on_c, 8, 47, 100
10, 115392, Note_on_c, 8, 59, 100
10, 115582, Note_off_c, 8, 47, 64
10, 115582, Note_off_c, 8, 59, 64
10, 115584, Note_on_c, 8, 47, 100
10, 115584, Note_on_c, 8, 59, 100
10, 115774, Note_off_c, 8, 47, 64
10, 115774, Note_off_c, 8, 59, 64
10, 115776, Note_on_c, 8, 47, 100
10, 115776, Note_on_c, 8, 59, 100
10, 115966, Note_off_c, 8, 47, 64
10, 115966, Note_off_c, 8, 59, 64
10, 115968, Note_on_c, 8, 43, 100
10, 115968, Note_on_c, 8, 55, 100
10, 116158, Note_off_c, 8, 43, 64
10, 116158, Note_off_c, 8, 55, 64
10, 116160, Note_on_c, 8, 43, 100
10, 116160, Note_on_c, 8, 55, 100
10, 116350, Note_off_c, 8, 43, 64
10, 116350, Note_off_c, 8, 55, 64
10, 116352, Note_on_c, 8, 43, 100
10, 116352, Note_on_c, 8, 55, 100
10, 116542, Note_off_c, 8, 43, 64
10, 116542, Note_off_c, 8, 55, 64
10, 116544, Note_on_c, 8, 42, 100
10, 116544, Note_on_c, 8, 54, 100
10, 116734, Note_off_c, 8, 42, 64
10, 116734, Note_off_c, 8, 54, 64
10, 116736, Note_on_c, 8, 37, 100
10, 116736, Note_on_c, 8, 49, 100
10, 116926, Note_off_c, 8, 37, 64
10, 116926, Note_off_c, 8, 49, 64
10, 116928, Note_on_c, 8, 40, 100
10, 116928, Note_on_c, 8, 52, 100
10, 117118, Note_off_c, 8, 40, 64
10, 117118, Note_off_c, 8, 52, 64
10, 117120, Note_on_c, 8, 40, 100
10, 117120, Note_on_c, 8, 52, 100
10, 117310, Note_off_c, 8, 40, 64
10, 117310, Note_off_c, 8, 52, 64
10, 117312, Note_on_c, 8, 34, 100
10, 117312, Note_on_c, 8, 46, 100
10, 117502, Note_off_c, 8, 34, 64
10, 117502, Note_off_c, 8, 46, 64
10, 117504, Note_on_c, 8, 37, 100
10, 117504, Note_on_c, 8, 49, 100
10, 117694, Note_off_c, 8, 37, 64
10, 117694, Note_off_c, 8, 49, 64
10, 117696, Note_on_c, 8, 30, 100
10, 117696, Note_on_c, 8, 42, 100
10, 118078, Note_off_c, 8, 30, 64
10, 118078, Note_off_c, 8, 42, 64
10, 118848, Note_on_c, 8, 30, 100
10, 118848, Note_on_c, 8, 42, 100
10, 119038, Note_off_c, 8, 30, 64
10, 119038, Note_off_c, 8, 42, 64
10, 119040, Note_on_c, 8, 30, 100
10, 119040, Note_on_c, 8, 42, 100
10, 119230, Note_off_c, 8, 30, 64
10, 119230, Note_off_c, 8, 42, 64
10, 119232, Note_on_c, 8, 30, 100
10, 119232, Note_on_c, 8, 42, 100
10, 119422, Note_off_c, 8, 30, 64
10, 119422, Note_off_c, 8, 42, 64
10, 119424, Note_on_c, 8, 30, 100
10, 119424, Note_on_c, 8, 42, 100
10, 119614, Note_off_c, 8, 30, 64
10, 119614, Note_off_c, 8, 42, 64
10, 119616, Note_on_c, 8, 30, 100
10, 119616, Note_on_c, 8, 42, 100
10, 119806, Note_off_c, 8, 30, 64
10, 119806, Note_off_c, 8, 42, 64
10, 119808, Note_on_c, 8, 30, 100
10, 119808, Note_on_c, 8, 42, 100
10, 119998, Note_off_c, 8, 30, 64
10, 119998, Note_off_c, 8, 42, 64
10, 120000, Note_on_c, 8, 35, 100
10, 120000, Note_on_c, 8, 47, 100
10, 120382, Note_off_c, 8, 35, 64
10, 120382, Note_off_c, 8, 47, 64
10, 121152, Note_on_c, 8, 35, 100
10, 121152, Note_on_c, 8, 47, 100
10, 121342, Note_off_c, 8, 35, 64
10, 121342, Note_off_c, 8, 47, 64
10, 121344, Note_on_c, 8, 35, 100
10, 121344, Note_on_c, 8, 47, 100
10, 121534, Note_off_c, 8, 35, 64
10, 121534, Note_off_c, 8, 47, 64
10, 121536, Note_on_c, 8, 35, 100
10, 121536, Note_on_c, 8, 47, 100
10, 121726, Note_off_c, 8, 35, 64
10, 121726, Note_off_c, 8, 47, 64
10, 121728, Note_on_c, 8, 35, 100
10, 121728, Note_on_c, 8, 47, 100
10, 121918, Note_off_c, 8, 35, 64
10, 121918, Note_off_c, 8, 47, 64
10, 121920, Note_on_c, 8, 35, 100
10, 121920, Note_on_c, 8, 47, 100
10, 122110, Note_off_c, 8, 35, 64
10, 122110, Note_off_c, 8, 47, 64
10, 122112, Note_on_c, 8, 35, 100
10, 122112, Note_on_c, 8, 47, 100
10, 122302, Note_off_c, 8, 35, 64
10, 122302, Note_off_c, 8, 47, 64
10, 122304, Note_on_c, 8, 28, 100
10, 122304, Note_on_c, 8, 40, 100
10, 122494, Note_off_c, 8, 28, 64
10, 122494, Note_off_c, 8, 40, 64
10, 122496, Note_on_c, 8, 28, 100
10, 122496, Note_on_c, 8, 40, 100
10, 122686, Note_off_c, 8, 28, 64
10, 122686, Note_off_c, 8, 40, 64
10, 122688, Note_on_c, 8, 28, 100
10, 122688, Note_on_c, 8, 40, 100
10, 122878, Note_off_c, 8, 28, 64
10, 122878, Note_off_c, 8, 40, 64
10, 122880, Note_on_c, 8, 28, 100
10, 122880, Note_on_c, 8, 40, 100
10, 123070, Note_off_c, 8, 28, 64
10, 123070, Note_off_c, 8, 40, 64
10, 123072, Note_on_c, 8, 28, 100
10, 123072, Note_on_c, 8, 40, 100
10, 123262, Note_off_c, 8, 28, 64
10, 123262, Note_off_c, 8, 40, 64
10, 123264, Note_on_c, 8, 28, 100
10, 123264, Note_on_c, 8, 40, 100
10, 123454, Note_off_c, 8, 28, 64
10, 123454, Note_off_c, 8, 40, 64
10, 123456, Note_on_c, 8, 28, 100
10, 123456, Note_on_c, 8, 40, 100
10, 123646, Note_off_c, 8, 28, 64
10, 123646, Note_off_c, 8, 40, 64
10, 123648, Note_on_c, 8, 28, 100
10, 123648, Note_on_c, 8, 40, 100
10, 123838, Note_off_c, 8, 28, 64
10, 123838, Note_off_c, 8, 40, 64
10, 123840, Note_on_c, 8, 28, 100
10, 123840, Note_on_c, 8, 40, 100
10, 124030, Note_off_c, 8, 28, 64
10, 124030, Note_off_c, 8, 40, 64
10, 124032, Note_on_c, 8, 28, 100
10, 124032, Note_on_c, 8, 40, 100
10, 124222, Note_off_c, 8, 28, 64
10, 124222, Note_off_c, 8, 40, 64
10, 124224, Note_on_c, 8, 28, 100
10, 124224, Note_on_c, 8, 40, 100
10, 124414, Note_off_c, 8, 28, 64
10, 124414, Note_off_c, 8, 40, 64
10, 124416, Note_on_c, 8, 40, 100
10, 124416, Note_on_c, 8, 52, 100
10, 124606, Note_off_c, 8, 40, 64
10, 124606, Note_off_c, 8, 52, 64
10, 124608, Note_on_c, 8, 38, 100
10, 124608, Note_on_c, 8, 50, 100
10, 124798, Note_off_c, 8, 38, 64
10, 124798, Note_off_c, 8, 50, 64
10, 124800, Note_on_c, 8, 37, 100
10, 124800, Note_on_c, 8, 49, 100
10, 124990, Note_off_c, 8, 37, 64
10, 124990, Note_off_c, 8, 49, 64
10, 124992, Note_on_c, 8, 35, 100
10, 124992, Note_on_c, 8, 47, 100
10, 125182, Note_off_c, 8, 35, 64
10, 125182, Note_off_c, 8, 47, 64
10, 125184, Note_on_c, 8, 42, 100
10, 125184, Note_on_c, 8, 54, 100
10, 125374, Note_off_c, 8, 42, 64
10, 125374, Note_off_c, 8, 54, 64
10, 125376, Note_on_c, 8, 30, 100
10, 125376, Note_on_c, 8, 42, 100
10, 125566, Note_off_c, 8, 30, 64
10, 125566, Note_off_c, 8, 42, 64
10, 125568, Note_on_c, 8, 30, 100
10, 125568, Note_on_c, 8, 42, 100
10, 125758, Note_off_c, 8, 30, 64
10, 125758, Note_off_c, 8, 42, 64
10, 125760, Note_on_c, 8, 35, 100
10, 125760, Note_on_c, 8, 47, 100
10, 126718, Note_off_c, 8, 35, 64
10, 126718, Note_off_c, 8, 47, 64
10, 126720, Note_on_c, 8, 35, 100
10, 126720, Note_on_c, 8, 47, 100
10, 126910, Note_off_c, 8, 35, 64
10, 126910, Note_off_c, 8, 47, 64
10, 126912, Note_on_c, 8, 35, 100
10, 126912, Note_on_c, 8, 23, 100
10, 126912, Note_on_c, 8, 47, 100
10, 126912, Note_on_c, 8, 35, 100
10, 128060, Note_off_c, 8, 35, 64
10, 128060, Note_off_c, 8, 23, 64
10, 128060, Note_off_c, 8, 47, 64
10, 128060, Note_off_c, 8, 35, 64
10, 128060, End_track
11, 0, Start_track
11, 0, Title_t, "Strings I"
11, 0, Control_c, 10, 0, 0
11, 0, Program_c, 10, 48
11, 0, Control_c, 10, 10, 21
11, 0, Key_signature, 2, "minor"
11, 0, Control_c, 10, 7, 127
11, 0, Note_on_c, 10, 66, 90
11, 190, Note_off_c, 10, 66, 57
11, 192, Note_on_c, 10, 71, 90
11, 238, Note_off_c, 10, 71, 57
11, 240, Note_on_c, 10, 73, 90
11, 286, Note_off_c, 10, 73, 57
11, 288, Note_on_c, 10, 74, 90
11, 478, Note_off_c, 10, 74, 57
11, 480, Note_on_c, 10, 73, 90
11, 574, Note_off_c, 10, 73, 57
11, 576, Note_on_c, 10, 71, 90
11, 766, Note_off_c, 10, 71, 57
11, 768, Note_on_c, 10, 73, 90
11, 862, Note_off_c, 10, 73, 57
11, 864, Note_on_c, 10, 71, 90
11, 1054, Note_off_c, 10, 71, 57
11, 1056, Note_on_c, 10, 70, 90
11, 1150, Note_off_c, 10, 70, 57
11, 1152, Note_on_c, 10, 71, 90
11, 1342, Note_off_c, 10, 71, 57
11, 1344, Note_on_c, 10, 71, 90
11, 2302, Note_off_c, 10, 71, 57
11, 2304, Note_on_c, 10, 71, 90
11, 2494, Note_off_c, 10, 71, 57
11, 2496, Note_on_c, 10, 79, 90
11, 2782, Note_off_c, 10, 79, 57
11, 2784, Note_on_c, 10, 78, 90
11, 2830, Note_off_c, 10, 78, 57
11, 2832, Note_on_c, 10, 79, 90
11, 2878, Note_off_c, 10, 79, 57
11, 2880, Note_on_c, 10, 81, 90
11, 3358, Note_off_c, 10, 81, 57
11, 3360, Note_on_c, 10, 79, 90
11, 3454, Note_off_c, 10, 79, 57
11, 3456, Note_on_c, 10, 78, 90
11, 3646, Note_off_c, 10, 78, 57
11, 3648, Note_on_c, 10, 78, 90
11, 3742, Note_off_c, 10, 78, 57
11, 3744, Note_on_c, 10, 76, 90
11, 4510, Note_off_c, 10, 76, 57
11, 4512, Note_on_c, 10, 79, 90
11, 4606, Note_off_c, 10, 79, 57
11, 4608, Note_on_c, 10, 76, 90
11, 4798, Note_off_c, 10, 76, 57
11, 4800, Note_on_c, 10, 74, 90
11, 4894, Note_off_c, 10, 74, 57
11, 4896, Note_on_c, 10, 72, 90
11, 5086, Note_off_c, 10, 72, 57
11, 5088, Note_on_c, 10, 79, 90
11, 5182, Note_off_c, 10, 79, 57
11, 5184, Note_on_c, 10, 76, 90
11, 5374, Note_off_c, 10, 76, 57
11, 5376, Note_on_c, 10, 72, 90
11, 5470, Note_off_c, 10, 72, 57
11, 5472, Note_on_c, 10, 71, 90
11, 5662, Note_off_c, 10, 71, 57
11, 5664, Note_on_c, 10, 79, 90
11, 5758, Note_off_c, 10, 79, 57
11, 5760, Note_on_c, 10, 76, 90
11, 5950, Note_off_c, 10, 76, 57
11, 5952, Note_on_c, 10, 71, 90
11, 6046, Note_off_c, 10, 71, 57
11, 6048, Note_on_c, 10, 70, 90
11, 6238, Note_off_c, 10, 70, 57
11, 6240, Note_on_c, 10, 76, 90
11, 6286, Note_off_c, 10, 76, 57
11, 6288, Note_on_c, 10, 78, 90
11, 6334, Note_off_c, 10, 78, 57
11, 6336, Note_on_c, 10, 79, 90
11, 6814, Note_off_c, 10, 79, 57
11, 6816, Note_on_c, 10, 78, 90
11, 6910, Note_off_c, 10, 78, 57
11, 6912, Note_on_c, 10, 76, 90
11, 7102, Note_off_c, 10, 76, 57
11, 7104, Note_on_c, 10, 74, 90
11, 7126, Note_off_c, 10, 74, 57
11, 7128, Note_on_c, 10, 76, 90
11, 7150, Note_off_c, 10, 76, 57
11, 7152, Note_on_c, 10, 74, 90
11, 7174, Note_off_c, 10, 74, 57
11, 7176, Note_on_c, 10, 76, 90
11, 7198, Note_off_c, 10, 76, 57
11, 7200, Note_on_c, 10, 74, 90
11, 7222, Note_off_c, 10, 74, 57
11, 7224, Note_on_c, 10, 76, 90
11, 7246, Note_off_c, 10, 76, 57
11, 7248, Note_on_c, 10, 74, 90
11, 7270, Note_off_c, 10, 74, 57
11, 7272, Note_on_c, 10, 76, 90
11, 7294, Note_off_c, 10, 76, 57
11, 7296, Note_on_c, 10, 74, 90
11, 7318, Note_off_c, 10, 74, 57
11, 7320, Note_on_c, 10, 76, 90
11, 7342, Note_off_c, 10, 76, 57
11, 7344, Note_on_c, 10, 74, 90
11, 7366, Note_off_c, 10, 74, 57
11, 7368, Note_on_c, 10, 76, 90
11, 7390, Note_off_c, 10, 76, 57
11, 7392, Note_on_c, 10, 73, 90
11, 7438, Note_off_c, 10, 73, 57
11, 7440, Note_on_c, 10, 74, 90
11, 7486, Note_off_c, 10, 74, 57
11, 7488, Note_on_c, 10, 76, 90
11, 7966, Note_off_c, 10, 76, 57
11, 7968, Note_on_c, 10, 74, 90
11, 8062, Note_off_c, 10, 74, 57
11, 8064, Note_on_c, 10, 73, 90
11, 8254, Note_off_c, 10, 73, 57
11, 8256, Note_on_c, 10, 71, 90
11, 8350, Note_off_c, 10, 71, 57
11, 8352, Note_on_c, 10, 70, 90
11, 9118, Note_off_c, 10, 70, 57
11, 9120, Note_on_c, 10, 66, 90
11, 9214, Note_off_c, 10, 66, 57
11, 9216, Note_on_c, 10, 70, 90
11, 9310, Note_off_c, 10, 70, 57
11, 9312, Note_on_c, 10, 73, 90
11, 9406, Note_off_c, 10, 73, 57
11, 9408, Note_on_c, 10, 76, 90
11, 9500, Note_off_c, 10, 76, 57
11, 9504, Note_on_c, 10, 74, 90
11, 9596, Note_off_c, 10, 74, 57
11, 9600, Note_on_c, 10, 73, 90
11, 9788, Note_off_c, 10, 73, 57
11, 9792, Note_on_c, 10, 71, 90
11, 10172, Note_off_c, 10, 71, 57
11, 10176, Note_on_c, 10, 70, 90
11, 10364, Note_off_c, 10, 70, 57
11, 10368, Note_on_c, 10, 71, 90
11, 10428, Note_off_c, 10, 71, 57
11, 10560, Note_on_c, 10, 73, 90
11, 10652, Note_off_c, 10, 73, 57
11, 10656, Note_on_c, 10, 71, 90
11, 10748, Note_off_c, 10, 71, 57
11, 10752, Note_on_c, 10, 70, 90
11, 10940, Note_off_c, 10, 70, 57
11, 10944, Note_on_c, 10, 67, 90
11, 11324, Note_off_c, 10, 67, 57
11, 11328, Note_on_c, 10, 66, 90
11, 11516, Note_off_c, 10, 66, 57
11, 11520, Note_on_c, 10, 67, 90
11, 11708, Note_off_c, 10, 67, 57
11, 11712, Note_on_c, 10, 67, 90
11, 11804, Note_off_c, 10, 67, 57
11, 11808, Note_on_c, 10, 66, 90
11, 11900, Note_off_c, 10, 66, 57
11, 11904, Note_on_c, 10, 64, 90
11, 12092, Note_off_c, 10, 64, 57
11, 12096, Note_on_c, 10, 70, 90
11, 12668, Note_off_c, 10, 70, 57
11, 12672, Note_on_c, 10, 67, 90
11, 12764, Note_off_c, 10, 67, 57
11, 12768, Note_on_c, 10, 66, 90
11, 12860, Note_off_c, 10, 66, 57
11, 12864, Note_on_c, 10, 67, 90
11, 12956, Note_off_c, 10, 67, 57
11, 12960, Note_on_c, 10, 66, 90
11, 13052, Note_off_c, 10, 66, 57
11, 13056, Note_on_c, 10, 64, 90
11, 13244, Note_off_c, 10, 64, 57
11, 13248, Note_on_c, 10, 73, 90
11, 13820, Note_off_c, 10, 73, 57
11, 13824, Note_on_c, 10, 66, 90
11, 13916, Note_off_c, 10, 66, 57
11, 13920, Note_on_c, 10, 64, 90
11, 14012, Note_off_c, 10, 64, 57
11, 14016, Note_on_c, 10, 66, 90
11, 14062, Note_off_c, 10, 66, 57
11, 14064, Note_on_c, 10, 64, 90
11, 14110, Note_off_c, 10, 64, 57
11, 14112, Note_on_c, 10, 63, 90
11, 14206, Note_off_c, 10, 63, 57
11, 14208, Note_on_c, 10, 60, 90
11, 14398, Note_off_c, 10, 60, 57
11, 14400, Note_on_c, 10, 59, 90
11, 14494, Note_off_c, 10, 59, 57
11, 14496, Note_on_c, 10, 69, 90
11, 14542, Note_off_c, 10, 69, 57
11, 14544, Note_on_c, 10, 67, 90
11, 14590, Note_off_c, 10, 67, 57
11, 14592, Note_on_c, 10, 69, 90
11, 14638, Note_off_c, 10, 69, 57
11, 14640, Note_on_c, 10, 67, 90
11, 14686, Note_off_c, 10, 67, 57
11, 14688, Note_on_c, 10, 66, 90
11, 14782, Note_off_c, 10, 66, 57
11, 14784, Note_on_c, 10, 64, 90
11, 14974, Note_off_c, 10, 64, 57
11, 14976, Note_on_c, 10, 63, 90
11, 15070, Note_off_c, 10, 63, 57
11, 15072, Note_on_c, 10, 72, 90
11, 15118, Note_off_c, 10, 72, 57
11, 15120, Note_on_c, 10, 71, 90
11, 15166, Note_off_c, 10, 71, 57
11, 15168, Note_on_c, 10, 72, 90
11, 15214, Note_off_c, 10, 72, 57
11, 15216, Note_on_c, 10, 71, 90
11, 15262, Note_off_c, 10, 71, 57
11, 15264, Note_on_c, 10, 69, 90
11, 15358, Note_off_c, 10, 69, 57
11, 15360, Note_on_c, 10, 67, 90
11, 15550, Note_off_c, 10, 67, 57
11, 15552, Note_on_c, 10, 66, 90
11, 15646, Note_off_c, 10, 66, 57
11, 15648, Note_on_c, 10, 78, 90
11, 15694, Note_off_c, 10, 78, 57
11, 15696, Note_on_c, 10, 76, 90
11, 15742, Note_off_c, 10, 76, 57
11, 15744, Note_on_c, 10, 78, 90
11, 15790, Note_off_c, 10, 78, 57
11, 15792, Note_on_c, 10, 76, 90
11, 15838, Note_off_c, 10, 76, 57
11, 15840, Note_on_c, 10, 75, 90
11, 15934, Note_off_c, 10, 75, 57
11, 15936, Note_on_c, 10, 72, 90
11, 16126, Note_off_c, 10, 72, 57
11, 16128, Note_on_c, 10, 71, 90
11, 16222, Note_off_c, 10, 71, 57
11, 16224, Note_on_c, 10, 78, 90
11, 16318, Note_off_c, 10, 78, 57
11, 16320, Note_on_c, 10, 79, 90
11, 16366, Note_off_c, 10, 79, 57
11, 16368, Note_on_c, 10, 81, 90
11, 16414, Note_off_c, 10, 81, 57
11, 16416, Note_on_c, 10, 83, 90
11, 16606, Note_off_c, 10, 83, 57
11, 16608, Note_on_c, 10, 81, 90
11, 16654, Note_off_c, 10, 81, 57
11, 16656, Note_on_c, 10, 79, 90
11, 16702, Note_off_c, 10, 79, 57
11, 16704, Note_on_c, 10, 81, 90
11, 16750, Note_off_c, 10, 81, 57
11, 16752, Note_on_c, 10, 79, 90
11, 16798, Note_off_c, 10, 79, 57
11, 16800, Note_on_c, 10, 78, 90
11, 16894, Note_off_c, 10, 78, 57
11, 16896, Note_on_c, 10, 76, 90
11, 16942, Note_off_c, 10, 76, 57
11, 16944, Note_on_c, 10, 78, 90
11, 16990, Note_off_c, 10, 78, 57
11, 16992, Note_on_c, 10, 79, 90
11, 17182, Note_off_c, 10, 79, 57
11, 17184, Note_on_c, 10, 78, 90
11, 17230, Note_off_c, 10, 78, 57
11, 17232, Note_on_c, 10, 76, 90
11, 17278, Note_off_c, 10, 76, 57
11, 17280, Note_on_c, 10, 78, 90
11, 17326, Note_off_c, 10, 78, 57
11, 17328, Note_on_c, 10, 76, 90
11, 17374, Note_off_c, 10, 76, 57
11, 17376, Note_on_c, 10, 74, 90
11, 17470, Note_off_c, 10, 74, 57
11, 17472, Note_on_c, 10, 72, 90
11, 17518, Note_off_c, 10, 72, 57
11, 17520, Note_on_c, 10, 74, 90
11, 17566, Note_off_c, 10, 74, 57
11, 17568, Note_on_c, 10, 76, 90
11, 17758, Note_off_c, 10, 76, 57
11, 17760, Note_on_c, 10, 74, 90
11, 17806, Note_off_c, 10, 74, 57
11, 17808, Note_on_c, 10, 72, 90
11, 17854, Note_off_c, 10, 72, 57
11, 17856, Note_on_c, 10, 74, 90
11, 17902, Note_off_c, 10, 74, 57
11, 17904, Note_on_c, 10, 72, 90
11, 17950, Note_off_c, 10, 72, 57
11, 17952, Note_on_c, 10, 71, 90
11, 18046, Note_off_c, 10, 71, 57
11, 18048, Note_on_c, 10, 70, 90
11, 18094, Note_off_c, 10, 70, 57
11, 18096, Note_on_c, 10, 71, 90
11, 18142, Note_off_c, 10, 71, 57
11, 18144, Note_on_c, 10, 73, 90
11, 18334, Note_off_c, 10, 73, 57
11, 18336, Note_on_c, 10, 71, 90
11, 18382, Note_off_c, 10, 71, 57
11, 18384, Note_on_c, 10, 70, 90
11, 18430, Note_off_c, 10, 70, 57
11, 18432, Note_on_c, 10, 71, 90
11, 18478, Note_off_c, 10, 71, 57
11, 18480, Note_on_c, 10, 70, 90
11, 18526, Note_off_c, 10, 70, 57
11, 18528, Note_on_c, 10, 68, 90
11, 18622, Note_off_c, 10, 68, 57
11, 18624, Note_on_c, 10, 66, 90
11, 18910, Note_off_c, 10, 66, 57
11, 18912, Note_on_c, 10, 68, 90
11, 18958, Note_off_c, 10, 68, 57
11, 18960, Note_on_c, 10, 70, 90
11, 19006, Note_off_c, 10, 70, 57
11, 19008, Note_on_c, 10, 71, 90
11, 19054, Note_off_c, 10, 71, 57
11, 19056, Note_on_c, 10, 73, 90
11, 19102, Note_off_c, 10, 73, 57
11, 19104, Note_on_c, 10, 74, 90
11, 19150, Note_off_c, 10, 74, 57
11, 19152, Note_on_c, 10, 73, 90
11, 19198, Note_off_c, 10, 73, 57
11, 19200, Note_on_c, 10, 76, 90
11, 19328, Note_off_c, 10, 76, 57
11, 19392, Note_on_c, 10, 74, 90
11, 19520, Note_off_c, 10, 74, 57
11, 19584, Note_on_c, 10, 74, 90
11, 19628, Note_off_c, 10, 74, 57
11, 19632, Note_on_c, 10, 73, 90
11, 19652, Note_off_c, 10, 73, 57
11, 19656, Note_on_c, 10, 74, 90
11, 19676, Note_off_c, 10, 74, 57
11, 19680, Note_on_c, 10, 73, 90
11, 19700, Note_off_c, 10, 73, 57
11, 19704, Note_on_c, 10, 74, 90
11, 19724, Note_off_c, 10, 74, 57
11, 19728, Note_on_c, 10, 73, 90
11, 19772, Note_off_c, 10, 73, 57
11, 19776, Note_on_c, 10, 71, 90
11, 20732, Note_off_c, 10, 71, 57
11, 23232, Note_on_c, 10, 76, 90
11, 23276, Note_off_c, 10, 76, 57
11, 23280, Note_on_c, 10, 78, 90
11, 23324, Note_off_c, 10, 78, 57
11, 23328, Note_on_c, 10, 79, 90
11, 23516, Note_off_c, 10, 79, 57
11, 23520, Note_on_c, 10, 78, 90
11, 23564, Note_off_c, 10, 78, 57
11, 23568, Note_on_c, 10, 79, 90
11, 23612, Note_off_c, 10, 79, 57
11, 23616, Note_on_c, 10, 81, 90
11, 24092, Note_off_c, 10, 81, 57
11, 24096, Note_on_c, 10, 79, 90
11, 24188, Note_off_c, 10, 79, 57
11, 24192, Note_on_c, 10, 78, 90
11, 24380, Note_off_c, 10, 78, 57
11, 24384, Note_on_c, 10, 78, 90
11, 24476, Note_off_c, 10, 78, 57
11, 24480, Note_on_c, 10, 76, 90
11, 25248, Note_on_c, 10, 79, 90
11, 25292, Note_off_c, 10, 76, 57
11, 25340, Note_off_c, 10, 79, 57
11, 25344, Note_on_c, 10, 76, 90
11, 25532, Note_off_c, 10, 76, 57
11, 25536, Note_on_c, 10, 74, 90
11, 25628, Note_off_c, 10, 74, 57
11, 25632, Note_on_c, 10, 72, 90
11, 25820, Note_off_c, 10, 72, 57
11, 25824, Note_on_c, 10, 79, 90
11, 25916, Note_off_c, 10, 79, 57
11, 25920, Note_on_c, 10, 76, 90
11, 26108, Note_off_c, 10, 76, 57
11, 26112, Note_on_c, 10, 72, 90
11, 26204, Note_off_c, 10, 72, 57
11, 26208, Note_on_c, 10, 71, 90
11, 26396, Note_off_c, 10, 71, 57
11, 26400, Note_on_c, 10, 79, 90
11, 26492, Note_off_c, 10, 79, 57
11, 26496, Note_on_c, 10, 76, 90
11, 26684, Note_off_c, 10, 76, 57
11, 26688, Note_on_c, 10, 71, 90
11, 26780, Note_off_c, 10, 71, 57
11, 26784, Note_on_c, 10, 70, 90
11, 26972, Note_off_c, 10, 70, 57
11, 26976, Note_on_c, 10, 76, 90
11, 27020, Note_off_c, 10, 76, 57
11, 27024, Note_on_c, 10, 78, 90
11, 27068, Note_off_c, 10, 78, 57
11, 27072, Note_on_c, 10, 79, 90
11, 27548, Note_off_c, 10, 79, 57
11, 27552, Note_on_c, 10, 78, 90
11, 27644, Note_off_c, 10, 78, 57
11, 27648, Note_on_c, 10, 76, 90
11, 27836, Note_off_c, 10, 76, 57
11, 27840, Note_on_c, 10, 76, 90
11, 27932, Note_off_c, 10, 76, 57
11, 27936, Note_on_c, 10, 74, 90
11, 28124, Note_off_c, 10, 74, 57
11, 28128, Note_on_c, 10, 73, 90
11, 28172, Note_off_c, 10, 73, 57
11, 28176, Note_on_c, 10, 74, 90
11, 28220, Note_off_c, 10, 74, 57
11, 28224, Note_on_c, 10, 76, 90
11, 28700, Note_off_c, 10, 76, 57
11, 28704, Note_on_c, 10, 74, 90
11, 28796, Note_off_c, 10, 74, 57
11, 28800, Note_on_c, 10, 73, 90
11, 28988, Note_off_c, 10, 73, 57
11, 28992, Note_on_c, 10, 71, 90
11, 29084, Note_off_c, 10, 71, 57
11, 29088, Note_on_c, 10, 70, 90
11, 29948, Note_off_c, 10, 70, 57
11, 31584, Note_on_c, 10, 76, 90
11, 31676, Note_off_c, 10, 76, 57
11, 31680, Note_on_c, 10, 71, 90
11, 31868, Note_off_c, 10, 71, 57
11, 31872, Note_on_c, 10, 69, 90
11, 31964, Note_off_c, 10, 69, 57
11, 31968, Note_on_c, 10, 67, 90
11, 32348, Note_off_c, 10, 67, 57
11, 33888, Note_on_c, 10, 78, 90
11, 33980, Note_off_c, 10, 78, 57
11, 33984, Note_on_c, 10, 73, 90
11, 34172, Note_off_c, 10, 73, 57
11, 34176, Note_on_c, 10, 71, 90
11, 34268, Note_off_c, 10, 71, 57
11, 34272, Note_on_c, 10, 69, 90
11, 34556, Note_off_c, 10, 69, 57
11, 34560, Note_on_c, 10, 73, 90
11, 34748, Note_off_c, 10, 73, 57
11, 34752, Note_on_c, 10, 78, 90
11, 34796, Note_off_c, 10, 78, 57
11, 34800, Note_on_c, 10, 80, 90
11, 34844, Note_off_c, 10, 80, 57
11, 34848, Note_on_c, 10, 81, 90
11, 35036, Note_off_c, 10, 81, 57
11, 35040, Note_on_c, 10, 80, 90
11, 35132, Note_off_c, 10, 80, 57
11, 35136, Note_on_c, 10, 78, 90
11, 35324, Note_off_c, 10, 78, 57
11, 35328, Note_on_c, 10, 80, 90
11, 35420, Note_off_c, 10, 80, 57
11, 35424, Note_on_c, 10, 78, 90
11, 35612, Note_off_c, 10, 78, 57
11, 35616, Note_on_c, 10, 77, 90
11, 35708, Note_off_c, 10, 77, 57
11, 35712, Note_on_c, 10, 78, 90
11, 35900, Note_off_c, 10, 78, 57
11, 35904, Note_on_c, 10, 78, 90
11, 37436, Note_off_c, 10, 78, 57
11, 37440, Note_on_c, 10, 71, 90
11, 37628, Note_off_c, 10, 71, 57
11, 37632, Note_on_c, 10, 71, 90
11, 37820, Note_off_c, 10, 71, 57
11, 37824, Note_on_c, 10, 70, 90
11, 38012, Note_off_c, 10, 70, 57
11, 38016, Note_on_c, 10, 76, 90
11, 38396, Note_off_c, 10, 76, 57
11, 38400, Note_on_c, 10, 74, 90
11, 38492, Note_off_c, 10, 74, 57
11, 38496, Note_on_c, 10, 78, 90
11, 38588, Note_off_c, 10, 78, 57
11, 38592, Note_on_c, 10, 73, 90
11, 38972, Note_off_c, 10, 73, 57
11, 38976, Note_on_c, 10, 71, 90
11, 39068, Note_off_c, 10, 71, 57
11, 39072, Note_on_c, 10, 74, 90
11, 39164, Note_off_c, 10, 74, 57
11, 39168, Note_on_c, 10, 69, 90
11, 39356, Note_off_c, 10, 69, 57
11, 39360, Note_on_c, 10, 69, 90
11, 39452, Note_off_c, 10, 69, 57
11, 39456, Note_on_c, 10, 67, 90
11, 39644, Note_off_c, 10, 67, 57
11, 39648, Note_on_c, 10, 74, 90
11, 39740, Note_off_c, 10, 74, 57
11, 39744, Note_on_c, 10, 71, 90
11, 39932, Note_off_c, 10, 71, 57
11, 39936, Note_on_c, 10, 67, 90
11, 40028, Note_off_c, 10, 67, 57
11, 40032, Note_on_c, 10, 66, 90
11, 40220, Note_off_c, 10, 66, 57
11, 40224, Note_on_c, 10, 74, 90
11, 40316, Note_off_c, 10, 74, 57
11, 40320, Note_on_c, 10, 71, 90
11, 40508, Note_off_c, 10, 71, 57
11, 40512, Note_on_c, 10, 66, 90
11, 40604, Note_off_c, 10, 66, 57
11, 40608, Note_on_c, 10, 65, 90
11, 40796, Note_off_c, 10, 65, 57
11, 40800, Note_on_c, 10, 71, 90
11, 40844, Note_off_c, 10, 71, 57
11, 40848, Note_on_c, 10, 73, 90
11, 40892, Note_off_c, 10, 73, 57
11, 40896, Note_on_c, 10, 74, 90
11, 41372, Note_off_c, 10, 74, 57
11, 41376, Note_on_c, 10, 73, 90
11, 41468, Note_off_c, 10, 73, 57
11, 41472, Note_on_c, 10, 71, 90
11, 41660, Note_off_c, 10, 71, 57
11, 41664, Note_on_c, 10, 71, 90
11, 41756, Note_off_c, 10, 71, 57
11, 41760, Note_on_c, 10, 69, 90
11, 41948, Note_off_c, 10, 69, 57
11, 41952, Note_on_c, 10, 68, 90
11, 41996, Note_off_c, 10, 68, 57
11, 42000, Note_on_c, 10, 69, 90
11, 42044, Note_off_c, 10, 69, 57
11, 42048, Note_on_c, 10, 71, 90
11, 42236, Note_off_c, 10, 71, 57
11, 42240, Note_on_c, 10, 71, 90
11, 42524, Note_off_c, 10, 71, 57
11, 42528, Note_on_c, 10, 69, 90
11, 42620, Note_off_c, 10, 69, 57
11, 42624, Note_on_c, 10, 68, 90
11, 42720, Note_on_c, 10, 66, 90
11, 42812, Note_off_c, 10, 68, 57
11, 42812, Note_off_c, 10, 66, 57
11, 42816, Note_on_c, 10, 65, 90
11, 43484, Note_off_c, 10, 65, 57
11, 43488, Note_on_c, 10, 66, 90
11, 43580, Note_off_c, 10, 66, 57
11, 43584, Note_on_c, 10, 68, 90
11, 43676, Note_off_c, 10, 68, 57
11, 43680, Note_on_c, 10, 73, 90
11, 43772, Note_off_c, 10, 73, 57
11, 43776, Note_on_c, 10, 77, 90
11, 43868, Note_off_c, 10, 77, 57
11, 43872, Note_on_c, 10, 80, 90
11, 43964, Note_off_c, 10, 80, 57
11, 43968, Note_on_c, 10, 83, 90
11, 44012, Note_off_c, 10, 83, 57
11, 44016, Note_on_c, 10, 81, 90
11, 44060, Note_off_c, 10, 81, 57
11, 44064, Note_on_c, 10, 80, 90
11, 44156, Note_off_c, 10, 80, 57
11, 44160, Note_on_c, 10, 78, 90
11, 44348, Note_off_c, 10, 78, 57
11, 44352, Note_on_c, 10, 77, 90
11, 44492, Note_off_c, 10, 77, 57
11, 44496, Note_on_c, 10, 78, 90
11, 44540, Note_off_c, 10, 78, 57
11, 44544, Note_on_c, 10, 80, 90
11, 44588, Note_off_c, 10, 80, 57
11, 44592, Note_on_c, 10, 78, 90
11, 44636, Note_off_c, 10, 78, 57
11, 44640, Note_on_c, 10, 77, 90
11, 44732, Note_off_c, 10, 77, 57
11, 44736, Note_on_c, 10, 74, 90
11, 44924, Note_off_c, 10, 74, 57
11, 44928, Note_on_c, 10, 73, 90
11, 45068, Note_off_c, 10, 73, 57
11, 45072, Note_on_c, 10, 74, 90
11, 45116, Note_off_c, 10, 74, 57
11, 45120, Note_on_c, 10, 78, 90
11, 45212, Note_off_c, 10, 78, 57
11, 45216, Note_on_c, 10, 77, 90
11, 45788, Note_off_c, 10, 77, 57
11, 46272, Note_on_c, 10, 76, 90
11, 46316, Note_off_c, 10, 76, 57
11, 46320, Note_on_c, 10, 74, 90
11, 46364, Note_off_c, 10, 74, 57
11, 46368, Note_on_c, 10, 73, 90
11, 46460, Note_off_c, 10, 73, 57
11, 46464, Note_on_c, 10, 71, 90
11, 46652, Note_off_c, 10, 71, 57
11, 46656, Note_on_c, 10, 70, 90
11, 46796, Note_off_c, 10, 70, 57
11, 46800, Note_on_c, 10, 71, 90
11, 46844, Note_off_c, 10, 71, 57
11, 46848, Note_on_c, 10, 73, 90
11, 46892, Note_off_c, 10, 73, 57
11, 46896, Note_on_c, 10, 71, 90
11, 46940, Note_off_c, 10, 71, 57
11, 46944, Note_on_c, 10, 70, 90
11, 47036, Note_off_c, 10, 70, 57
11, 47040, Note_on_c, 10, 67, 90
11, 47228, Note_off_c, 10, 67, 57
11, 47232, Note_on_c, 10, 66, 90
11, 47372, Note_off_c, 10, 66, 57
11, 47376, Note_on_c, 10, 67, 90
11, 47420, Note_off_c, 10, 67, 57
11, 47424, Note_on_c, 10, 71, 90
11, 47516, Note_off_c, 10, 71, 57
11, 47520, Note_on_c, 10, 70, 90
11, 48524, Note_off_c, 10, 70, 57
11, 48576, Note_on_c, 10, 74, 90
11, 48620, Note_off_c, 10, 74, 57
11, 48624, Note_on_c, 10, 76, 90
11, 48668, Note_off_c, 10, 76, 57
11, 48672, Note_on_c, 10, 78, 90
11, 48860, Note_off_c, 10, 78, 57
11, 48864, Note_on_c, 10, 76, 90
11, 48908, Note_off_c, 10, 76, 57
11, 48912, Note_on_c, 10, 74, 90
11, 48956, Note_off_c, 10, 74, 57
11, 48960, Note_on_c, 10, 76, 90
11, 49004, Note_off_c, 10, 76, 57
11, 49008, Note_on_c, 10, 74, 90
11, 49052, Note_off_c, 10, 74, 57
11, 49056, Note_on_c, 10, 73, 90
11, 49148, Note_off_c, 10, 73, 57
11, 49152, Note_on_c, 10, 71, 90
11, 49196, Note_off_c, 10, 71, 57
11, 49200, Note_on_c, 10, 73, 90
11, 49244, Note_off_c, 10, 73, 57
11, 49248, Note_on_c, 10, 74, 90
11, 49436, Note_off_c, 10, 74, 57
11, 49440, Note_on_c, 10, 73, 90
11, 49484, Note_off_c, 10, 73, 57
11, 49488, Note_on_c, 10, 71, 90
11, 49532, Note_off_c, 10, 71, 57
11, 49536, Note_on_c, 10, 73, 90
11, 49580, Note_off_c, 10, 73, 57
11, 49584, Note_on_c, 10, 71, 90
11, 49628, Note_off_c, 10, 71, 57
11, 49632, Note_on_c, 10, 69, 90
11, 49724, Note_off_c, 10, 69, 57
11, 49728, Note_on_c, 10, 67, 90
11, 49772, Note_off_c, 10, 67, 57
11, 49776, Note_on_c, 10, 69, 90
11, 49820, Note_off_c, 10, 69, 57
11, 49824, Note_on_c, 10, 71, 90
11, 50012, Note_off_c, 10, 71, 57
11, 50016, Note_on_c, 10, 69, 90
11, 50060, Note_off_c, 10, 69, 57
11, 50064, Note_on_c, 10, 67, 90
11, 50108, Note_off_c, 10, 67, 57
11, 50112, Note_on_c, 10, 69, 90
11, 50156, Note_off_c, 10, 69, 57
11, 50160, Note_on_c, 10, 67, 90
11, 50204, Note_off_c, 10, 67, 57
11, 50208, Note_on_c, 10, 66, 90
11, 50300, Note_off_c, 10, 66, 57
11, 50304, Note_on_c, 10, 65, 90
11, 50348, Note_off_c, 10, 65, 57
11, 50352, Note_on_c, 10, 66, 90
11, 50396, Note_off_c, 10, 66, 57
11, 50400, Note_on_c, 10, 68, 90
11, 50588, Note_off_c, 10, 68, 57
11, 50592, Note_on_c, 10, 66, 90
11, 50636, Note_off_c, 10, 66, 57
11, 50640, Note_on_c, 10, 65, 90
11, 50684, Note_off_c, 10, 65, 57
11, 50688, Note_on_c, 10, 66, 90
11, 50732, Note_off_c, 10, 66, 57
11, 50736, Note_on_c, 10, 65, 90
11, 50780, Note_off_c, 10, 65, 57
11, 50784, Note_on_c, 10, 63, 90
11, 50876, Note_off_c, 10, 63, 57
11, 50880, Note_on_c, 10, 61, 90
11, 51068, Note_off_c, 10, 61, 57
11, 52992, Note_on_c, 10, 73, 90
11, 53180, Note_off_c, 10, 73, 57
11, 53184, Note_on_c, 10, 78, 90
11, 53228, Note_off_c, 10, 78, 57
11, 53232, Note_on_c, 10, 80, 90
11, 53276, Note_off_c, 10, 80, 57
11, 53280, Note_on_c, 10, 81, 90
11, 53468, Note_off_c, 10, 81, 57
11, 53472, Note_on_c, 10, 80, 90
11, 53564, Note_off_c, 10, 80, 57
11, 53568, Note_on_c, 10, 78, 90
11, 53756, Note_off_c, 10, 78, 57
11, 53760, Note_on_c, 10, 80, 90
11, 53852, Note_off_c, 10, 80, 57
11, 53856, Note_on_c, 10, 78, 90
11, 54044, Note_off_c, 10, 78, 57
11, 54048, Note_on_c, 10, 77, 90
11, 54140, Note_off_c, 10, 77, 57
11, 54144, Note_on_c, 10, 78, 90
11, 54332, Note_off_c, 10, 78, 57
11, 54336, Note_on_c, 10, 78, 90
11, 55292, Note_off_c, 10, 78, 57
11, 55296, Note_on_c, 10, 78, 90
11, 55484, Note_off_c, 10, 78, 57
11, 55488, Note_on_c, 10, 86, 90
11, 55772, Note_off_c, 10, 86, 57
11, 55776, Note_on_c, 10, 85, 90
11, 55820, Note_off_c, 10, 85, 57
11, 55824, Note_on_c, 10, 86, 90
11, 55868, Note_off_c, 10, 86, 57
11, 55872, Note_on_c, 10, 88, 90
11, 56348, Note_off_c, 10, 88, 57
11, 56352, Note_on_c, 10, 86, 90
11, 56444, Note_off_c, 10, 86, 57
11, 56448, Note_on_c, 10, 85, 90
11, 56636, Note_off_c, 10, 85, 57
11, 56640, Note_on_c, 10, 85, 90
11, 56732, Note_off_c, 10, 85, 57
11, 56736, Note_on_c, 10, 83, 90
11, 57500, Note_off_c, 10, 83, 57
11, 57504, Note_on_c, 10, 86, 90
11, 57596, Note_off_c, 10, 86, 57
11, 57600, Note_on_c, 10, 83, 90
11, 57788, Note_off_c, 10, 83, 57
11, 57792, Note_on_c, 10, 81, 90
11, 57884, Note_off_c, 10, 81, 57
11, 57888, Note_on_c, 10, 79, 90
11, 58076, Note_off_c, 10, 79, 57
11, 58080, Note_on_c, 10, 86, 90
11, 58172, Note_off_c, 10, 86, 57
11, 58176, Note_on_c, 10, 83, 90
11, 58364, Note_off_c, 10, 83, 57
11, 58368, Note_on_c, 10, 79, 90
11, 58460, Note_off_c, 10, 79, 57
11, 58464, Note_on_c, 10, 78, 90
11, 58652, Note_off_c, 10, 78, 57
11, 58656, Note_on_c, 10, 86, 90
11, 58748, Note_off_c, 10, 86, 57
11, 58752, Note_on_c, 10, 83, 90
11, 58940, Note_off_c, 10, 83, 57
11, 58944, Note_on_c, 10, 78, 90
11, 59036, Note_off_c, 10, 78, 57
11, 59040, Note_on_c, 10, 77, 90
11, 59228, Note_off_c, 10, 77, 57
11, 59232, Note_on_c, 10, 80, 90
11, 59276, Note_off_c, 10, 80, 57
11, 59280, Note_on_c, 10, 81, 90
11, 59324, Note_off_c, 10, 81, 57
11, 59328, Note_on_c, 10, 83, 90
11, 59516, Note_off_c, 10, 83, 57
11, 59520, Note_on_c, 10, 73, 90
11, 59612, Note_off_c, 10, 73, 57
11, 59616, Note_on_c, 10, 74, 90
11, 59804, Note_off_c, 10, 74, 57
11, 59808, Note_on_c, 10, 73, 90
11, 59900, Note_off_c, 10, 73, 57
11, 59904, Note_on_c, 10, 71, 90
11, 60092, Note_off_c, 10, 71, 57
11, 60096, Note_on_c, 10, 73, 90
11, 60382, Note_off_c, 10, 73, 57
11, 60384, Note_on_c, 10, 75, 90
11, 60430, Note_off_c, 10, 75, 57
11, 60432, Note_on_c, 10, 77, 90
11, 60478, Note_off_c, 10, 77, 57
11, 60480, Note_on_c, 10, 78, 90
11, 60526, Note_off_c, 10, 78, 57
11, 60528, Note_on_c, 10, 80, 90
11, 60574, Note_off_c, 10, 80, 57
11, 60576, Note_on_c, 10, 81, 90
11, 60622, Note_off_c, 10, 81, 57
11, 60624, Note_on_c, 10, 80, 90
11, 60670, Note_off_c, 10, 80, 57
11, 60672, Note_on_c, 10, 83, 90
11, 60800, Note_off_c, 10, 83, 57
11, 60864, Note_on_c, 10, 81, 90
11, 60992, Note_off_c, 10, 81, 57
11, 61056, Note_on_c, 10, 81, 90
11, 61100, Note_off_c, 10, 81, 57
11, 61104, Note_on_c, 10, 80, 90
11, 61124, Note_off_c, 10, 80, 57
11, 61128, Note_on_c, 10, 81, 90
11, 61148, Note_off_c, 10, 81, 57
11, 61152, Note_on_c, 10, 80, 90
11, 61172, Note_off_c, 10, 80, 57
11, 61176, Note_on_c, 10, 81, 90
11, 61196, Note_off_c, 10, 81, 57
11, 61200, Note_on_c, 10, 80, 90
11, 61244, Note_off_c, 10, 80, 57
11, 61248, Note_on_c, 10, 78, 90
11, 62204, Note_off_c, 10, 78, 57
11, 62688, Note_on_c, 10, 84, 90
11, 62782, Note_off_c, 10, 84, 57
11, 62784, Note_on_c, 10, 81, 90
11, 62974, Note_off_c, 10, 81, 57
11, 62976, Note_on_c, 10, 78, 90
11, 63070, Note_off_c, 10, 78, 57
11, 63072, Note_on_c, 10, 76, 90
11, 63262, Note_off_c, 10, 76, 57
11, 63264, Note_on_c, 10, 84, 90
11, 63358, Note_off_c, 10, 84, 57
11, 63360, Note_on_c, 10, 81, 90
11, 63550, Note_off_c, 10, 81, 57
11, 63552, Note_on_c, 10, 76, 90
11, 63646, Note_off_c, 10, 76, 57
11, 63648, Note_on_c, 10, 75, 90
11, 63742, Note_off_c, 10, 75, 57
11, 64992, Note_on_c, 10, 79, 90
11, 65086, Note_off_c, 10, 79, 57
11, 65088, Note_on_c, 10, 76, 90
11, 65278, Note_off_c, 10, 76, 57
11, 65280, Note_on_c, 10, 74, 90
11, 65374, Note_off_c, 10, 74, 57
11, 65376, Note_on_c, 10, 72, 90
11, 65566, Note_off_c, 10, 72, 57
11, 65568, Note_on_c, 10, 79, 90
11, 65662, Note_off_c, 10, 79, 57
11, 65664, Note_on_c, 10, 76, 90
11, 65854, Note_off_c, 10, 76, 57
11, 65856, Note_on_c, 10, 71, 90
11, 65950, Note_off_c, 10, 71, 57
11, 65952, Note_on_c, 10, 70, 90
11, 66046, Note_off_c, 10, 70, 57
11, 67296, Note_on_c, 10, 86, 90
11, 67390, Note_off_c, 10, 86, 57
11, 67392, Note_on_c, 10, 83, 90
11, 67582, Note_off_c, 10, 83, 57
11, 67584, Note_on_c, 10, 81, 90
11, 67678, Note_off_c, 10, 81, 57
11, 67680, Note_on_c, 10, 79, 90
11, 67870, Note_off_c, 10, 79, 57
11, 67872, Note_on_c, 10, 86, 90
11, 67966, Note_off_c, 10, 86, 57
11, 67968, Note_on_c, 10, 83, 90
11, 68158, Note_off_c, 10, 83, 57
11, 68160, Note_on_c, 10, 78, 90
11, 68254, Note_off_c, 10, 78, 57
11, 68256, Note_on_c, 10, 77, 90
11, 68350, Note_off_c, 10, 77, 57
11, 69312, Note_on_c, 10, 81, 90
11, 69358, Note_off_c, 10, 81, 57
11, 69360, Note_on_c, 10, 83, 90
11, 69406, Note_off_c, 10, 83, 57
11, 69408, Note_on_c, 10, 85, 90
11, 69598, Note_off_c, 10, 85, 57
11, 69600, Note_on_c, 10, 83, 90
11, 69646, Note_off_c, 10, 83, 57
11, 69648, Note_on_c, 10, 81, 90
11, 69694, Note_off_c, 10, 81, 57
11, 69696, Note_on_c, 10, 83, 90
11, 69742, Note_off_c, 10, 83, 57
11, 69744, Note_on_c, 10, 81, 90
11, 69790, Note_off_c, 10, 81, 57
11, 69792, Note_on_c, 10, 80, 90
11, 69886, Note_off_c, 10, 80, 57
11, 69888, Note_on_c, 10, 78, 90
11, 69934, Note_off_c, 10, 78, 57
11, 69936, Note_on_c, 10, 80, 90
11, 69982, Note_off_c, 10, 80, 57
11, 69984, Note_on_c, 10, 81, 90
11, 70174, Note_off_c, 10, 81, 57
11, 70176, Note_on_c, 10, 80, 90
11, 70222, Note_off_c, 10, 80, 57
11, 70224, Note_on_c, 10, 78, 90
11, 70270, Note_off_c, 10, 78, 57
11, 70272, Note_on_c, 10, 80, 90
11, 70318, Note_off_c, 10, 80, 57
11, 70320, Note_on_c, 10, 78, 90
11, 70366, Note_off_c, 10, 78, 57
11, 70368, Note_on_c, 10, 76, 90
11, 70462, Note_off_c, 10, 76, 57
11, 70464, Note_on_c, 10, 74, 90
11, 70510, Note_off_c, 10, 74, 57
11, 70512, Note_on_c, 10, 76, 90
11, 70558, Note_off_c, 10, 76, 57
11, 70560, Note_on_c, 10, 78, 90
11, 70750, Note_off_c, 10, 78, 57
11, 70752, Note_on_c, 10, 76, 90
11, 70798, Note_off_c, 10, 76, 57
11, 70800, Note_on_c, 10, 75, 90
11, 70846, Note_off_c, 10, 75, 57
11, 70848, Note_on_c, 10, 76, 90
11, 70894, Note_off_c, 10, 76, 57
11, 70896, Note_on_c, 10, 75, 90
11, 70942, Note_off_c, 10, 75, 57
11, 70944, Note_on_c, 10, 73, 90
11, 71038, Note_off_c, 10, 73, 57
11, 71040, Note_on_c, 10, 72, 90
11, 71230, Note_off_c, 10, 72, 57
11, 72480, Note_on_c, 10, 81, 90
11, 72574, Note_off_c, 10, 81, 57
11, 72576, Note_on_c, 10, 78, 90
11, 72766, Note_off_c, 10, 78, 57
11, 72768, Note_on_c, 10, 76, 90
11, 72862, Note_off_c, 10, 76, 57
11, 72864, Note_on_c, 10, 74, 90
11, 73054, Note_off_c, 10, 74, 57
11, 73056, Note_on_c, 10, 81, 90
11, 73150, Note_off_c, 10, 81, 57
11, 73152, Note_on_c, 10, 78, 90
11, 73342, Note_off_c, 10, 78, 57
11, 73344, Note_on_c, 10, 74, 90
11, 73438, Note_off_c, 10, 74, 57
11, 73440, Note_on_c, 10, 73, 90
11, 73630, Note_off_c, 10, 73, 57
11, 73632, Note_on_c, 10, 81, 90
11, 73726, Note_off_c, 10, 81, 57
11, 73728, Note_on_c, 10, 78, 90
11, 73918, Note_off_c, 10, 78, 57
11, 73920, Note_on_c, 10, 73, 90
11, 74014, Note_off_c, 10, 73, 57
11, 74016, Note_on_c, 10, 72, 90
11, 74206, Note_off_c, 10, 72, 57
11, 76032, Note_on_c, 10, 73, 90
11, 76222, Note_off_c, 10, 73, 57
11, 76224, Note_on_c, 10, 78, 90
11, 76270, Note_off_c, 10, 78, 57
11, 76272, Note_on_c, 10, 80, 90
11, 76318, Note_off_c, 10, 80, 57
11, 76320, Note_on_c, 10, 81, 90
11, 76510, Note_off_c, 10, 81, 57
11, 76512, Note_on_c, 10, 80, 90
11, 76558, Note_off_c, 10, 80, 57
11, 76560, Note_on_c, 10, 81, 90
11, 76606, Note_off_c, 10, 81, 57
11, 76608, Note_on_c, 10, 83, 90
11, 77086, Note_off_c, 10, 83, 57
11, 77088, Note_on_c, 10, 81, 90
11, 77182, Note_off_c, 10, 81, 57
11, 77184, Note_on_c, 10, 80, 90
11, 77374, Note_off_c, 10, 80, 57
11, 77376, Note_on_c, 10, 78, 90
11, 79966, Note_off_c, 10, 78, 57
11, 79968, Note_on_c, 10, 83, 90
11, 80062, Note_off_c, 10, 83, 57
11, 80064, Note_on_c, 10, 79, 90
11, 80254, Note_off_c, 10, 79, 57
11, 80256, Note_on_c, 10, 72, 90
11, 80350, Note_off_c, 10, 72, 57
11, 80352, Note_on_c, 10, 71, 90
11, 80542, Note_off_c, 10, 71, 57
11, 80544, Note_on_c, 10, 81, 90
11, 80638, Note_off_c, 10, 81, 57
11, 80640, Note_on_c, 10, 78, 90
11, 80830, Note_off_c, 10, 78, 57
11, 80832, Note_on_c, 10, 69, 90
11, 80926, Note_off_c, 10, 69, 57
11, 80928, Note_on_c, 10, 67, 90
11, 81118, Note_off_c, 10, 67, 57
11, 81120, Note_on_c, 10, 79, 90
11, 81214, Note_off_c, 10, 79, 57
11, 81216, Note_on_c, 10, 76, 90
11, 81406, Note_off_c, 10, 76, 57
11, 81408, Note_on_c, 10, 72, 90
11, 81502, Note_off_c, 10, 72, 57
11, 81504, Note_on_c, 10, 71, 90
11, 81694, Note_off_c, 10, 71, 57
11, 81696, Note_on_c, 10, 79, 90
11, 81790, Note_off_c, 10, 79, 57
11, 81792, Note_on_c, 10, 76, 90
11, 81982, Note_off_c, 10, 76, 57
11, 81984, Note_on_c, 10, 71, 90
11, 82078, Note_off_c, 10, 71, 57
11, 82080, Note_on_c, 10, 70, 90
11, 82270, Note_off_c, 10, 70, 57
11, 82272, Note_on_c, 10, 76, 90
11, 82318, Note_off_c, 10, 76, 57
11, 82320, Note_on_c, 10, 78, 90
11, 82366, Note_off_c, 10, 78, 57
11, 82368, Note_on_c, 10, 79, 90
11, 82846, Note_off_c, 10, 79, 57
11, 82848, Note_on_c, 10, 78, 90
11, 82942, Note_off_c, 10, 78, 57
11, 82944, Note_on_c, 10, 76, 90
11, 83134, Note_off_c, 10, 76, 57
11, 83136, Note_on_c, 10, 76, 90
11, 83230, Note_off_c, 10, 76, 57
11, 83232, Note_on_c, 10, 74, 90
11, 83422, Note_off_c, 10, 74, 57
11, 83424, Note_on_c, 10, 73, 90
11, 83470, Note_off_c, 10, 73, 57
11, 83472, Note_on_c, 10, 74, 90
11, 83518, Note_off_c, 10, 74, 57
11, 83520, Note_on_c, 10, 76, 90
11, 83998, Note_off_c, 10, 76, 57
11, 84000, Note_on_c, 10, 74, 90
11, 84094, Note_off_c, 10, 74, 57
11, 84096, Note_on_c, 10, 73, 90
11, 84286, Note_off_c, 10, 73, 57
11, 84288, Note_on_c, 10, 71, 90
11, 84382, Note_off_c, 10, 71, 57
11, 84384, Note_on_c, 10, 70, 90
11, 85246, Note_off_c, 10, 70, 57
11, 86880, Note_on_c, 10, 76, 90
11, 86974, Note_off_c, 10, 76, 57
11, 86976, Note_on_c, 10, 71, 90
11, 87166, Note_off_c, 10, 71, 57
11, 87168, Note_on_c, 10, 69, 90
11, 87262, Note_off_c, 10, 69, 57
11, 87264, Note_on_c, 10, 67, 90
11, 87646, Note_off_c, 10, 67, 57
11, 89184, Note_on_c, 10, 71, 90
11, 89278, Note_off_c, 10, 71, 57
11, 89280, Note_on_c, 10, 66, 90
11, 89470, Note_off_c, 10, 66, 57
11, 89472, Note_on_c, 10, 66, 90
11, 89566, Note_off_c, 10, 66, 57
11, 89568, Note_on_c, 10, 62, 90
11, 89854, Note_off_c, 10, 62, 57
11, 89856, Note_on_c, 10, 66, 90
11, 90046, Note_off_c, 10, 66, 57
11, 90048, Note_on_c, 10, 74, 90
11, 90334, Note_off_c, 10, 74, 57
11, 90336, Note_on_c, 10, 73, 90
11, 90430, Note_off_c, 10, 73, 57
11, 90432, Note_on_c, 10, 71, 90
11, 90622, Note_off_c, 10, 71, 57
11, 90624, Note_on_c, 10, 73, 90
11, 90718, Note_off_c, 10, 73, 57
11, 90720, Note_on_c, 10, 71, 90
11, 90910, Note_off_c, 10, 71, 57
11, 90912, Note_on_c, 10, 70, 90
11, 91006, Note_off_c, 10, 70, 57
11, 91008, Note_on_c, 10, 71, 90
11, 91198, Note_off_c, 10, 71, 57
11, 91200, Note_on_c, 10, 71, 90
11, 92734, Note_off_c, 10, 71, 57
11, 92736, Note_on_c, 10, 76, 90
11, 92926, Note_off_c, 10, 76, 57
11, 92928, Note_on_c, 10, 76, 90
11, 93118, Note_off_c, 10, 76, 57
11, 93120, Note_on_c, 10, 75, 90
11, 93310, Note_off_c, 10, 75, 57
11, 93312, Note_on_c, 10, 81, 90
11, 93694, Note_off_c, 10, 81, 57
11, 93696, Note_on_c, 10, 79, 90
11, 93790, Note_off_c, 10, 79, 57
11, 93792, Note_on_c, 10, 81, 90
11, 93886, Note_off_c, 10, 81, 57
11, 93888, Note_on_c, 10, 78, 90
11, 94270, Note_off_c, 10, 78, 57
11, 94272, Note_on_c, 10, 76, 90
11, 94366, Note_off_c, 10, 76, 57
11, 94368, Note_on_c, 10, 79, 90
11, 94462, Note_off_c, 10, 79, 57
11, 94464, Note_on_c, 10, 74, 90
11, 94654, Note_off_c, 10, 74, 57
11, 94656, Note_on_c, 10, 74, 90
11, 94750, Note_off_c, 10, 74, 57
11, 94752, Note_on_c, 10, 72, 90
11, 94942, Note_off_c, 10, 72, 57
11, 94944, Note_on_c, 10, 79, 90
11, 95038, Note_off_c, 10, 79, 57
11, 95040, Note_on_c, 10, 76, 90
11, 95230, Note_off_c, 10, 76, 57
11, 95232, Note_on_c, 10, 72, 90
11, 95326, Note_off_c, 10, 72, 57
11, 95328, Note_on_c, 10, 71, 90
11, 95518, Note_off_c, 10, 71, 57
11, 95520, Note_on_c, 10, 79, 90
11, 95614, Note_off_c, 10, 79, 57
11, 95616, Note_on_c, 10, 76, 90
11, 95806, Note_off_c, 10, 76, 57
11, 95808, Note_on_c, 10, 71, 90
11, 95902, Note_off_c, 10, 71, 57
11, 95904, Note_on_c, 10, 70, 90
11, 96094, Note_off_c, 10, 70, 57
11, 96096, Note_on_c, 10, 76, 90
11, 96142, Note_off_c, 10, 76, 57
11, 96144, Note_on_c, 10, 78, 90
11, 96190, Note_off_c, 10, 78, 57
11, 96192, Note_on_c, 10, 79, 90
11, 96670, Note_off_c, 10, 79, 57
11, 96672, Note_on_c, 10, 78, 90
11, 96766, Note_off_c, 10, 78, 57
11, 96768, Note_on_c, 10, 76, 90
11, 96958, Note_off_c, 10, 76, 57
11, 96960, Note_on_c, 10, 76, 90
11, 97054, Note_off_c, 10, 76, 57
11, 97056, Note_on_c, 10, 74, 90
11, 97246, Note_off_c, 10, 74, 57
11, 97248, Note_on_c, 10, 73, 90
11, 97294, Note_off_c, 10, 73, 57
11, 97296, Note_on_c, 10, 74, 90
11, 97342, Note_off_c, 10, 74, 57
11, 97344, Note_on_c, 10, 76, 90
11, 97822, Note_off_c, 10, 76, 57
11, 97824, Note_on_c, 10, 74, 90
11, 97918, Note_off_c, 10, 74, 57
11, 97920, Note_on_c, 10, 73, 90
11, 98110, Note_off_c, 10, 73, 57
11, 98112, Note_on_c, 10, 71, 90
11, 98206, Note_off_c, 10, 71, 57
11, 98208, Note_on_c, 10, 70, 90
11, 98782, Note_off_c, 10, 70, 57
11, 98784, Note_on_c, 10, 61, 90
11, 98878, Note_off_c, 10, 61, 57
11, 98880, Note_on_c, 10, 66, 90
11, 98974, Note_off_c, 10, 66, 57
11, 98976, Note_on_c, 10, 70, 90
11, 99070, Note_off_c, 10, 70, 57
11, 99072, Note_on_c, 10, 73, 90
11, 99166, Note_off_c, 10, 73, 57
11, 99168, Note_on_c, 10, 74, 90
11, 99262, Note_off_c, 10, 74, 57
11, 99264, Note_on_c, 10, 76, 90
11, 99310, Note_off_c, 10, 76, 57
11, 99312, Note_on_c, 10, 74, 90
11, 99358, Note_off_c, 10, 74, 57
11, 99360, Note_on_c, 10, 73, 90
11, 99454, Note_off_c, 10, 73, 57
11, 99456, Note_on_c, 10, 71, 90
11, 99646, Note_off_c, 10, 71, 57
11, 99648, Note_on_c, 10, 70, 90
11, 99790, Note_off_c, 10, 70, 57
11, 99792, Note_on_c, 10, 71, 90
11, 99806, Note_off_c, 10, 71, 57
11, 99840, Note_on_c, 10, 73, 90
11, 99886, Note_off_c, 10, 73, 57
11, 99888, Note_on_c, 10, 71, 90
11, 99934, Note_off_c, 10, 71, 57
11, 99936, Note_on_c, 10, 70, 90
11, 100030, Note_off_c, 10, 70, 57
11, 100032, Note_on_c, 10, 67, 90
11, 100222, Note_off_c, 10, 67, 57
11, 100224, Note_on_c, 10, 66, 90
11, 100366, Note_off_c, 10, 66, 57
11, 100368, Note_on_c, 10, 67, 90
11, 100414, Note_off_c, 10, 67, 57
11, 100416, Note_on_c, 10, 71, 90
11, 100510, Note_off_c, 10, 71, 57
11, 100512, Note_on_c, 10, 70, 90
11, 100702, Note_off_c, 10, 70, 57
11, 101568, Note_on_c, 10, 81, 90
11, 101614, Note_off_c, 10, 81, 57
11, 101616, Note_on_c, 10, 79, 90
11, 101662, Note_off_c, 10, 79, 57
11, 101664, Note_on_c, 10, 78, 90
11, 101758, Note_off_c, 10, 78, 57
11, 101760, Note_on_c, 10, 76, 90
11, 101950, Note_off_c, 10, 76, 57
11, 101952, Note_on_c, 10, 75, 90
11, 102094, Note_off_c, 10, 75, 57
11, 102096, Note_on_c, 10, 76, 90
11, 102142, Note_off_c, 10, 76, 57
11, 102144, Note_on_c, 10, 78, 90
11, 102190, Note_off_c, 10, 78, 57
11, 102192, Note_on_c, 10, 76, 90
11, 102238, Note_off_c, 10, 76, 57
11, 102240, Note_on_c, 10, 75, 90
11, 102334, Note_off_c, 10, 75, 57
11, 102336, Note_on_c, 10, 72, 90
11, 102526, Note_off_c, 10, 72, 57
11, 102528, Note_on_c, 10, 71, 90
11, 102670, Note_off_c, 10, 71, 57
11, 102672, Note_on_c, 10, 72, 90
11, 102718, Note_off_c, 10, 72, 57
11, 102720, Note_on_c, 10, 76, 90
11, 102814, Note_off_c, 10, 76, 57
11, 102816, Note_on_c, 10, 75, 90
11, 103822, Note_off_c, 10, 75, 57
11, 103872, Note_on_c, 10, 79, 90
11, 103896, Note_off_c, 10, 79, 57
11, 103920, Note_on_c, 10, 81, 90
11, 103944, Note_off_c, 10, 81, 57
11, 103968, Note_on_c, 10, 83, 90
11, 104136, Note_off_c, 10, 83, 57
11, 104160, Note_on_c, 10, 81, 90
11, 104184, Note_off_c, 10, 81, 57
11, 104208, Note_on_c, 10, 79, 90
11, 104232, Note_off_c, 10, 79, 57
11, 104256, Note_on_c, 10, 81, 90
11, 104280, Note_off_c, 10, 81, 57
11, 104304, Note_on_c, 10, 79, 90
11, 104328, Note_off_c, 10, 79, 57
11, 104352, Note_on_c, 10, 78, 90
11, 104424, Note_off_c, 10, 78, 57
11, 104448, Note_on_c, 10, 76, 90
11, 104472, Note_off_c, 10, 76, 57
11, 104496, Note_on_c, 10, 78, 90
11, 104520, Note_off_c, 10, 78, 57
11, 104544, Note_on_c, 10, 79, 90
11, 104712, Note_off_c, 10, 79, 57
11, 104736, Note_on_c, 10, 78, 90
11, 104760, Note_off_c, 10, 78, 57
11, 104784, Note_on_c, 10, 76, 90
11, 104808, Note_off_c, 10, 76, 57
11, 104832, Note_on_c, 10, 78, 90
11, 104856, Note_off_c, 10, 78, 57
11, 104880, Note_on_c, 10, 76, 90
11, 104904, Note_off_c, 10, 76, 57
11, 104928, Note_on_c, 10, 74, 90
11, 105000, Note_off_c, 10, 74, 57
11, 105024, Note_on_c, 10, 72, 90
11, 105048, Note_off_c, 10, 72, 57
11, 105072, Note_on_c, 10, 74, 90
11, 105096, Note_off_c, 10, 74, 57
11, 105120, Note_on_c, 10, 76, 90
11, 105288, Note_off_c, 10, 76, 57
11, 105312, Note_on_c, 10, 74, 90
11, 105336, Note_off_c, 10, 74, 57
11, 105360, Note_on_c, 10, 72, 90
11, 105384, Note_off_c, 10, 72, 57
11, 105408, Note_on_c, 10, 74, 90
11, 105432, Note_off_c, 10, 74, 57
11, 105456, Note_on_c, 10, 72, 90
11, 105480, Note_off_c, 10, 72, 57
11, 105504, Note_on_c, 10, 71, 90
11, 105576, Note_off_c, 10, 71, 57
11, 105600, Note_on_c, 10, 70, 90
11, 105646, Note_off_c, 10, 70, 57
11, 105648, Note_on_c, 10, 71, 90
11, 105694, Note_off_c, 10, 71, 57
11, 105696, Note_on_c, 10, 73, 90
11, 105886, Note_off_c, 10, 73, 57
11, 105888, Note_on_c, 10, 71, 90
11, 105934, Note_off_c, 10, 71, 57
11, 105936, Note_on_c, 10, 70, 90
11, 105982, Note_off_c, 10, 70, 57
11, 105984, Note_on_c, 10, 71, 90
11, 106030, Note_off_c, 10, 71, 57
11, 106032, Note_on_c, 10, 70, 90
11, 106078, Note_off_c, 10, 70, 57
11, 106080, Note_on_c, 10, 68, 90
11, 106174, Note_off_c, 10, 68, 57
11, 106176, Note_on_c, 10, 66, 90
11, 106366, Note_off_c, 10, 66, 57
11, 108288, Note_on_c, 10, 66, 90
11, 108478, Note_off_c, 10, 66, 57
11, 108480, Note_on_c, 10, 71, 90
11, 108526, Note_off_c, 10, 71, 57
11, 108528, Note_on_c, 10, 73, 90
11, 108574, Note_off_c, 10, 73, 57
11, 108576, Note_on_c, 10, 74, 90
11, 108766, Note_off_c, 10, 74, 57
11, 108768, Note_on_c, 10, 73, 90
11, 108862, Note_off_c, 10, 73, 57
11, 108864, Note_on_c, 10, 71, 90
11, 109054, Note_off_c, 10, 71, 57
11, 109056, Note_on_c, 10, 73, 90
11, 109150, Note_off_c, 10, 73, 57
11, 109152, Note_on_c, 10, 71, 90
11, 109342, Note_off_c, 10, 71, 57
11, 109344, Note_on_c, 10, 70, 90
11, 109438, Note_off_c, 10, 70, 57
11, 109440, Note_on_c, 10, 71, 90
11, 109630, Note_off_c, 10, 71, 57
11, 109632, Note_on_c, 10, 71, 90
11, 110590, Note_off_c, 10, 71, 57
11, 110592, Note_on_c, 10, 71, 90
11, 110782, Note_off_c, 10, 71, 57
11, 110784, Note_on_c, 10, 79, 90
11, 111070, Note_off_c, 10, 79, 57
11, 111072, Note_on_c, 10, 78, 90
11, 111118, Note_off_c, 10, 78, 57
11, 111120, Note_on_c, 10, 79, 90
11, 111166, Note_off_c, 10, 79, 57
11, 111168, Note_on_c, 10, 81, 90
11, 111646, Note_off_c, 10, 81, 57
11, 111648, Note_on_c, 10, 79, 90
11, 111742, Note_off_c, 10, 79, 57
11, 111744, Note_on_c, 10, 78, 90
11, 111934, Note_off_c, 10, 78, 57
11, 111936, Note_on_c, 10, 78, 90
11, 112030, Note_off_c, 10, 78, 57
11, 112032, Note_on_c, 10, 76, 90
11, 112798, Note_off_c, 10, 76, 57
11, 112800, Note_on_c, 10, 79, 90
11, 112894, Note_off_c, 10, 79, 57
11, 112896, Note_on_c, 10, 76, 90
11, 113086, Note_off_c, 10, 76, 57
11, 113088, Note_on_c, 10, 74, 90
11, 113182, Note_off_c, 10, 74, 57
11, 113184, Note_on_c, 10, 72, 90
11, 113374, Note_off_c, 10, 72, 57
11, 113376, Note_on_c, 10, 79, 90
11, 113470, Note_off_c, 10, 79, 57
11, 113472, Note_on_c, 10, 76, 90
11, 113662, Note_off_c, 10, 76, 57
11, 113664, Note_on_c, 10, 72, 90
11, 113758, Note_off_c, 10, 72, 57
11, 113760, Note_on_c, 10, 71, 90
11, 113950, Note_off_c, 10, 71, 57
11, 113952, Note_on_c, 10, 79, 90
11, 114046, Note_off_c, 10, 79, 57
11, 114048, Note_on_c, 10, 76, 90
11, 114238, Note_off_c, 10, 76, 57
11, 114240, Note_on_c, 10, 71, 90
11, 114334, Note_off_c, 10, 71, 57
11, 114336, Note_on_c, 10, 70, 90
11, 114526, Note_off_c, 10, 70, 57
11, 114528, Note_on_c, 10, 76, 90
11, 114574, Note_off_c, 10, 76, 57
11, 114576, Note_on_c, 10, 78, 90
11, 114622, Note_off_c, 10, 78, 57
11, 114624, Note_on_c, 10, 79, 90
11, 115102, Note_off_c, 10, 79, 57
11, 115104, Note_on_c, 10, 78, 90
11, 115198, Note_off_c, 10, 78, 57
11, 115200, Note_on_c, 10, 76, 90
11, 115390, Note_off_c, 10, 76, 57
11, 115392, Note_on_c, 10, 74, 90
11, 115414, Note_off_c, 10, 74, 57
11, 115416, Note_on_c, 10, 76, 90
11, 115438, Note_off_c, 10, 76, 57
11, 115440, Note_on_c, 10, 74, 90
11, 115462, Note_off_c, 10, 74, 57
11, 115464, Note_on_c, 10, 76, 90
11, 115486, Note_off_c, 10, 76, 57
11, 115488, Note_on_c, 10, 74, 90
11, 115510, Note_off_c, 10, 74, 57
11, 115512, Note_on_c, 10, 76, 90
11, 115534, Note_off_c, 10, 76, 57
11, 115536, Note_on_c, 10, 74, 90
11, 115558, Note_off_c, 10, 74, 57
11, 115560, Note_on_c, 10, 76, 90
11, 115582, Note_off_c, 10, 76, 57
11, 115584, Note_on_c, 10, 74, 90
11, 115606, Note_off_c, 10, 74, 57
11, 115608, Note_on_c, 10, 76, 90
11, 115630, Note_off_c, 10, 76, 57
11, 115632, Note_on_c, 10, 74, 90
11, 115654, Note_off_c, 10, 74, 57
11, 115656, Note_on_c, 10, 76, 90
11, 115678, Note_off_c, 10, 76, 57
11, 115680, Note_on_c, 10, 73, 90
11, 115726, Note_off_c, 10, 73, 57
11, 115728, Note_on_c, 10, 74, 90
11, 115774, Note_off_c, 10, 74, 57
11, 115776, Note_on_c, 10, 76, 90
11, 116254, Note_off_c, 10, 76, 57
11, 116256, Note_on_c, 10, 74, 90
11, 116350, Note_off_c, 10, 74, 57
11, 116352, Note_on_c, 10, 73, 90
11, 116542, Note_off_c, 10, 73, 57
11, 116544, Note_on_c, 10, 71, 90
11, 116638, Note_off_c, 10, 71, 57
11, 116640, Note_on_c, 10, 70, 90
11, 117406, Note_off_c, 10, 70, 57
11, 117408, Note_on_c, 10, 66, 90
11, 117502, Note_off_c, 10, 66, 57
11, 117504, Note_on_c, 10, 70, 90
11, 117598, Note_off_c, 10, 70, 57
11, 117600, Note_on_c, 10, 73, 90
11, 117694, Note_off_c, 10, 73, 57
11, 117696, Note_on_c, 10, 76, 90
11, 117742, Note_off_c, 10, 76, 57
11, 117744, Note_on_c, 10, 74, 90
11, 117790, Note_off_c, 10, 74, 57
11, 117792, Note_on_c, 10, 73, 90
11, 117886, Note_off_c, 10, 73, 57
11, 117888, Note_on_c, 10, 71, 90
11, 118078, Note_off_c, 10, 71, 57
11, 118080, Note_on_c, 10, 70, 90
11, 118174, Note_off_c, 10, 70, 57
11, 118176, Note_on_c, 10, 71, 90
11, 118206, Note_off_c, 10, 71, 57
11, 118272, Note_on_c, 10, 73, 90
11, 118318, Note_off_c, 10, 73, 57
11, 118320, Note_on_c, 10, 71, 90
11, 118366, Note_off_c, 10, 71, 57
11, 118368, Note_on_c, 10, 70, 90
11, 118462, Note_off_c, 10, 70, 57
11, 118464, Note_on_c, 10, 67, 90
11, 118654, Note_off_c, 10, 67, 57
11, 118656, Note_on_c, 10, 66, 90
11, 118750, Note_off_c, 10, 66, 57
11, 118752, Note_on_c, 10, 67, 90
11, 118846, Note_off_c, 10, 67, 57
11, 118848, Note_on_c, 10, 67, 90
11, 118894, Note_off_c, 10, 67, 57
11, 118896, Note_on_c, 10, 66, 90
11, 118942, Note_off_c, 10, 66, 57
11, 118944, Note_on_c, 10, 64, 90
11, 119038, Note_off_c, 10, 64, 57
11, 119040, Note_on_c, 10, 70, 90
11, 119326, Note_off_c, 10, 70, 57
11, 119328, Note_on_c, 10, 67, 90
11, 119374, Note_off_c, 10, 67, 57
11, 119376, Note_on_c, 10, 66, 90
11, 119422, Note_off_c, 10, 66, 57
11, 119424, Note_on_c, 10, 67, 90
11, 119470, Note_off_c, 10, 67, 57
11, 119472, Note_on_c, 10, 66, 90
11, 119518, Note_off_c, 10, 66, 57
11, 119520, Note_on_c, 10, 64, 90
11, 119614, Note_off_c, 10, 64, 57
11, 119616, Note_on_c, 10, 73, 90
11, 119902, Note_off_c, 10, 73, 57
11, 119904, Note_on_c, 10, 66, 90
11, 119950, Note_off_c, 10, 66, 57
11, 119952, Note_on_c, 10, 64, 90
11, 119998, Note_off_c, 10, 64, 57
11, 120000, Note_on_c, 10, 66, 90
11, 120046, Note_off_c, 10, 66, 57
11, 120048, Note_on_c, 10, 64, 90
11, 120094, Note_off_c, 10, 64, 57
11, 120096, Note_on_c, 10, 63, 90
11, 120190, Note_off_c, 10, 63, 57
11, 120192, Note_on_c, 10, 60, 90
11, 120382, Note_off_c, 10, 60, 57
11, 120384, Note_on_c, 10, 59, 90
11, 120478, Note_off_c, 10, 59, 57
11, 120480, Note_on_c, 10, 69, 90
11, 120526, Note_off_c, 10, 69, 57
11, 120528, Note_on_c, 10, 67, 90
11, 120574, Note_off_c, 10, 67, 57
11, 120576, Note_on_c, 10, 69, 90
11, 120622, Note_off_c, 10, 69, 57
11, 120624, Note_on_c, 10, 67, 90
11, 120670, Note_off_c, 10, 67, 57
11, 120672, Note_on_c, 10, 66, 90
11, 120766, Note_off_c, 10, 66, 57
11, 120768, Note_on_c, 10, 64, 90
11, 120958, Note_off_c, 10, 64, 57
11, 120960, Note_on_c, 10, 63, 90
11, 121054, Note_off_c, 10, 63, 57
11, 121056, Note_on_c, 10, 72, 90
11, 121102, Note_off_c, 10, 72, 57
11, 121104, Note_on_c, 10, 71, 90
11, 121150, Note_off_c, 10, 71, 57
11, 121152, Note_on_c, 10, 72, 90
11, 121198, Note_off_c, 10, 72, 57
11, 121200, Note_on_c, 10, 71, 90
11, 121246, Note_off_c, 10, 71, 57
11, 121248, Note_on_c, 10, 69, 90
11, 121342, Note_off_c, 10, 69, 57
11, 121344, Note_on_c, 10, 67, 90
11, 121534, Note_off_c, 10, 67, 57
11, 121536, Note_on_c, 10, 66, 90
11, 121630, Note_off_c, 10, 66, 57
11, 121632, Note_on_c, 10, 78, 90
11, 121678, Note_off_c, 10, 78, 57
11, 121680, Note_on_c, 10, 76, 90
11, 121726, Note_off_c, 10, 76, 57
11, 121728, Note_on_c, 10, 78, 90
11, 121774, Note_off_c, 10, 78, 57
11, 121776, Note_on_c, 10, 76, 90
11, 121822, Note_off_c, 10, 76, 57
11, 121824, Note_on_c, 10, 75, 90
11, 121918, Note_off_c, 10, 75, 57
11, 121920, Note_on_c, 10, 72, 90
11, 122110, Note_off_c, 10, 72, 57
11, 122112, Note_on_c, 10, 71, 90
11, 122206, Note_off_c, 10, 71, 57
11, 122208, Note_on_c, 10, 78, 90
11, 122302, Note_off_c, 10, 78, 57
11, 122304, Note_on_c, 10, 79, 90
11, 122350, Note_off_c, 10, 79, 57
11, 122352, Note_on_c, 10, 81, 90
11, 122398, Note_off_c, 10, 81, 57
11, 122400, Note_on_c, 10, 83, 90
11, 122590, Note_off_c, 10, 83, 57
11, 122592, Note_on_c, 10, 81, 90
11, 122638, Note_off_c, 10, 81, 57
11, 122640, Note_on_c, 10, 79, 90
11, 122686, Note_off_c, 10, 79, 57
11, 122688, Note_on_c, 10, 81, 90
11, 122734, Note_off_c, 10, 81, 57
11, 122736, Note_on_c, 10, 79, 90
11, 122782, Note_off_c, 10, 79, 57
11, 122784, Note_on_c, 10, 78, 90
11, 122878, Note_off_c, 10, 78, 57
11, 122880, Note_on_c, 10, 76, 90
11, 122926, Note_off_c, 10, 76, 57
11, 122928, Note_on_c, 10, 78, 90
11, 122974, Note_off_c, 10, 78, 57
11, 122976, Note_on_c, 10, 79, 90
11, 123166, Note_off_c, 10, 79, 57
11, 123168, Note_on_c, 10, 78, 90
11, 123214, Note_off_c, 10, 78, 57
11, 123216, Note_on_c, 10, 76, 90
11, 123262, Note_off_c, 10, 76, 57
11, 123264, Note_on_c, 10, 78, 90
11, 123310, Note_off_c, 10, 78, 57
11, 123312, Note_on_c, 10, 76, 90
11, 123358, Note_off_c, 10, 76, 57
11, 123360, Note_on_c, 10, 74, 90
11, 123454, Note_off_c, 10, 74, 57
11, 123456, Note_on_c, 10, 72, 90
11, 123502, Note_off_c, 10, 72, 57
11, 123504, Note_on_c, 10, 74, 90
11, 123550, Note_off_c, 10, 74, 57
11, 123552, Note_on_c, 10, 76, 90
11, 123742, Note_off_c, 10, 76, 57
11, 123744, Note_on_c, 10, 74, 90
11, 123790, Note_off_c, 10, 74, 57
11, 123792, Note_on_c, 10, 72, 90
11, 123838, Note_off_c, 10, 72, 57
11, 123840, Note_on_c, 10, 74, 90
11, 123886, Note_off_c, 10, 74, 57
11, 123888, Note_on_c, 10, 72, 90
11, 123934, Note_off_c, 10, 72, 57
11, 123936, Note_on_c, 10, 71, 90
11, 124030, Note_off_c, 10, 71, 57
11, 124032, Note_on_c, 10, 70, 90
11, 124078, Note_off_c, 10, 70, 57
11, 124080, Note_on_c, 10, 71, 90
11, 124126, Note_off_c, 10, 71, 57
11, 124128, Note_on_c, 10, 73, 90
11, 124318, Note_off_c, 10, 73, 57
11, 124320, Note_on_c, 10, 71, 90
11, 124366, Note_off_c, 10, 71, 57
11, 124368, Note_on_c, 10, 70, 90
11, 124414, Note_off_c, 10, 70, 57
11, 124416, Note_on_c, 10, 71, 90
11, 124462, Note_off_c, 10, 71, 57
11, 124464, Note_on_c, 10, 70, 90
11, 124510, Note_off_c, 10, 70, 57
11, 124512, Note_on_c, 10, 68, 90
11, 124606, Note_off_c, 10, 68, 57
11, 124608, Note_on_c, 10, 66, 90
11, 124894, Note_off_c, 10, 66, 57
11, 124896, Note_on_c, 10, 68, 90
11, 124942, Note_off_c, 10, 68, 57
11, 124944, Note_on_c, 10, 70, 90
11, 124990, Note_off_c, 10, 70, 57
11, 124992, Note_on_c, 10, 71, 90
11, 125038, Note_off_c, 10, 71, 57
11, 125040, Note_on_c, 10, 73, 90
11, 125086, Note_off_c, 10, 73, 57
11, 125088, Note_on_c, 10, 74, 90
11, 125134, Note_off_c, 10, 74, 57
11, 125136, Note_on_c, 10, 73, 90
11, 125182, Note_off_c, 10, 73, 57
11, 125184, Note_on_c, 10, 76, 90
11, 125312, Note_off_c, 10, 76, 57
11, 125376, Note_on_c, 10, 74, 90
11, 125504, Note_off_c, 10, 74, 57
11, 125568, Note_on_c, 10, 74, 90
11, 125612, Note_off_c, 10, 74, 57
11, 125616, Note_on_c, 10, 73, 90
11, 125636, Note_off_c, 10, 73, 57
11, 125640, Note_on_c, 10, 74, 90
11, 125660, Note_off_c, 10, 74, 57
11, 125664, Note_on_c, 10, 73, 90
11, 125684, Note_off_c, 10, 73, 57
11, 125688, Note_on_c, 10, 74, 90
11, 125708, Note_off_c, 10, 74, 57
11, 125712, Note_on_c, 10, 73, 90
11, 125756, Note_off_c, 10, 73, 57
11, 125760, Note_on_c, 10, 71, 90
11, 128060, Note_off_c, 10, 71, 57
11, 128060, End_track
12, 0, Start_track
12, 0, Title_t, "Strings II"
12, 0, Control_c, 11, 0, 0
12, 0, Program_c, 11, 48
12, 0, Control_c, 11, 10, 105
12, 0, Key_signature, 2, "minor"
12, 0, Control_c, 11, 7, 127
12, 192, Note_on_c, 11, 62, 84
12, 192, Note_on_c, 11, 66, 84
12, 192, Note_on_c, 11, 71, 84
12, 1342, Note_off_c, 11, 66, 53
12, 1344, Note_on_c, 11, 67, 84
12, 1916, Note_off_c, 11, 62, 53
12, 1918, Note_off_c, 11, 71, 53
12, 1918, Note_off_c, 11, 67, 53
12, 1920, Note_on_c, 11, 66, 84
12, 1920, Note_on_c, 11, 69, 84
12, 1920, Note_on_c, 11, 75, 84
12, 2492, Note_off_c, 11, 66, 53
12, 2494, Note_off_c, 11, 69, 53
12, 2494, Note_off_c, 11, 75, 53
12, 2496, Note_on_c, 11, 59, 84
12, 2496, Note_on_c, 11, 71, 84
12, 2496, Note_on_c, 11, 76, 84
12, 3068, Note_off_c, 11, 59, 53
12, 3070, Note_off_c, 11, 76, 53
12, 3072, Note_on_c, 11, 57, 84
12, 3072, Note_on_c, 11, 75, 84
12, 3644, Note_off_c, 11, 57, 53
12, 3646, Note_off_c, 11, 75, 53
12, 3648, Note_on_c, 11, 55, 84
12, 3648, Note_on_c, 11, 76, 84
12, 4220, Note_off_c, 11, 55, 53
12, 4224, Note_on_c, 11, 67, 84
12, 4796, Note_off_c, 11, 67, 53
12, 4798, Note_off_c, 11, 71, 53
12, 4798, Note_off_c, 11, 76, 53
12, 4800, Note_on_c, 11, 72, 84
12, 4800, Note_on_c, 11, 76, 84
12, 4800, Note_on_c, 11, 79, 84
12, 5372, Note_off_c, 11, 72, 53
12, 5376, Note_on_c, 11, 71, 84
12, 5948, Note_off_c, 11, 71, 53
12, 5952, Note_on_c, 11, 70, 84
12, 6524, Note_off_c, 11, 70, 53
12, 6526, Note_off_c, 11, 79, 53
12, 6528, Note_on_c, 11, 73, 84
12, 6528, Note_on_c, 11, 73, 84
12, 7100, Note_off_c, 11, 73, 53
12, 7102, Note_off_c, 11, 76, 53
12, 7102, Note_off_c, 11, 73, 53
12, 7104, Note_on_c, 11, 66, 84
12, 7104, Note_on_c, 11, 74, 84
12, 7104, Note_on_c, 11, 74, 84
12, 7676, Note_off_c, 11, 66, 53
12, 7678, Note_off_c, 11, 74, 53
12, 7678, Note_off_c, 11, 74, 53
12, 7680, Note_on_c, 11, 67, 84
12, 7680, Note_on_c, 11, 71, 84
12, 7680, Note_on_c, 11, 76, 84
12, 8252, Note_off_c, 11, 67, 53
12, 8254, Note_off_c, 11, 71, 53
12, 8254, Note_off_c, 11, 76, 53
12, 8256, Note_on_c, 11, 61, 84
12, 8256, Note_on_c, 11, 70, 84
12, 8256, Note_on_c, 11, 78, 84
12, 9212, Note_off_c, 11, 61, 53
12, 9214, Note_off_c, 11, 70, 53
12, 9214, Note_off_c, 11, 78, 53
12, 9408, Note_on_c, 11, 61, 84
12, 9408, Note_on_c, 11, 66, 84
12, 9408, Note_on_c, 11, 70, 84
12, 9788, Note_off_c, 11, 61, 53
12, 9788, Note_off_c, 11, 66, 53
12, 9788, Note_off_c, 11, 70, 53
12, 9792, Note_on_c, 11, 62, 84
12, 9792, Note_on_c, 11, 68, 84
12, 9792, Note_on_c, 11, 71, 84
12, 10172, Note_off_c, 11, 62, 53
12, 10172, Note_off_c, 11, 68, 53
12, 10172, Note_off_c, 11, 71, 53
12, 10176, Note_on_c, 11, 64, 84
12, 10176, Note_on_c, 11, 70, 84
12, 10176, Note_on_c, 11, 73, 84
12, 10536, Note_on_c, 11, 54, 84
12, 10556, Note_off_c, 11, 64, 53
12, 10556, Note_off_c, 11, 70, 53
12, 10556, Note_off_c, 11, 73, 53
12, 10560, Note_on_c, 11, 70, 84
12, 10560, Note_on_c, 11, 73, 84
12, 10916, Note_off_c, 11, 54, 53
12, 10920, Note_on_c, 11, 54, 84
12, 10940, Note_off_c, 11, 70, 53
12, 10940, Note_off_c, 11, 73, 53
12, 10944, Note_on_c, 11, 71, 84
12, 10944, Note_on_c, 11, 74, 84
12, 11300, Note_off_c, 11, 54, 53
12, 11304, Note_on_c, 11, 54, 84
12, 11324, Note_off_c, 11, 71, 53
12, 11324, Note_off_c, 11, 74, 53
12, 11328, Note_on_c, 11, 73, 84
12, 11328, Note_on_c, 11, 76, 84
12, 11684, Note_off_c, 11, 54, 53
12, 11708, Note_off_c, 11, 73, 53
12, 11708, Note_off_c, 11, 76, 53
12, 11712, Note_on_c, 11, 70, 84
12, 11712, Note_on_c, 11, 73, 84
12, 11712, Note_on_c, 11, 76, 84
12, 13628, Note_off_c, 11, 70, 53
12, 13628, Note_off_c, 11, 73, 53
12, 13628, Note_off_c, 11, 76, 53
12, 14016, Note_on_c, 11, 57, 84
12, 14016, Note_on_c, 11, 63, 84
12, 14016, Note_on_c, 11, 66, 84
12, 14204, Note_off_c, 11, 57, 53
12, 14206, Note_off_c, 11, 63, 53
12, 14206, Note_off_c, 11, 66, 53
12, 14208, Note_on_c, 11, 55, 84
12, 14208, Note_on_c, 11, 64, 84
12, 14208, Note_on_c, 11, 67, 84
12, 14396, Note_off_c, 11, 55, 53
12, 14398, Note_off_c, 11, 64, 53
12, 14398, Note_off_c, 11, 67, 53
12, 14400, Note_on_c, 11, 54, 84
12, 14400, Note_on_c, 11, 66, 84
12, 14400, Note_on_c, 11, 69, 84
12, 14588, Note_off_c, 11, 54, 53
12, 14590, Note_off_c, 11, 66, 53
12, 14590, Note_off_c, 11, 69, 53
12, 14592, Note_on_c, 11, 59, 84
12, 14592, Note_on_c, 11, 63, 84
12, 14592, Note_on_c, 11, 66, 84
12, 14780, Note_off_c, 11, 59, 53
12, 14782, Note_off_c, 11, 63, 53
12, 14782, Note_off_c, 11, 66, 53
12, 14784, Note_on_c, 11, 59, 84
12, 14784, Note_on_c, 11, 64, 84
12, 14784, Note_on_c, 11, 67, 84
12, 14972, Note_off_c, 11, 59, 53
12, 14974, Note_off_c, 11, 64, 53
12, 14974, Note_off_c, 11, 67, 53
12, 14976, Note_on_c, 11, 59, 84
12, 14976, Note_on_c, 11, 66, 84
12, 14976, Note_on_c, 11, 69, 84
12, 15164, Note_off_c, 11, 59, 53
12, 15166, Note_off_c, 11, 66, 53
12, 15166, Note_off_c, 11, 69, 53
12, 15168, Note_on_c, 11, 63, 84
12, 15168, Note_on_c, 11, 66, 84
12, 15168, Note_on_c, 11, 69, 84
12, 16124, Note_off_c, 11, 63, 53
12, 16126, Note_off_c, 11, 66, 53
12, 16126, Note_off_c, 11, 69, 53
12, 16320, Note_on_c, 11, 59, 84
12, 16320, Note_on_c, 11, 64, 84
12, 16320, Note_on_c, 11, 67, 84
12, 16892, Note_off_c, 11, 59, 53
12, 16894, Note_off_c, 11, 64, 53
12, 16894, Note_off_c, 11, 67, 53
12, 16896, Note_on_c, 11, 64, 84
12, 16896, Note_on_c, 11, 67, 84
12, 16896, Note_on_c, 11, 71, 84
12, 17468, Note_off_c, 11, 64, 53
12, 17470, Note_off_c, 11, 67, 53
12, 17470, Note_off_c, 11, 71, 53
12, 17472, Note_on_c, 11, 67, 84
12, 17472, Note_on_c, 11, 72, 84
12, 17472, Note_on_c, 11, 76, 84
12, 18044, Note_off_c, 11, 67, 53
12, 18046, Note_off_c, 11, 72, 53
12, 18046, Note_off_c, 11, 76, 53
12, 18048, Note_on_c, 11, 61, 84
12, 18048, Note_on_c, 11, 76, 84
12, 18048, Note_on_c, 11, 79, 84
12, 18236, Note_off_c, 11, 61, 53
12, 18238, Note_off_c, 11, 76, 53
12, 18238, Note_off_c, 11, 79, 53
12, 18240, Note_on_c, 11, 70, 84
12, 18240, Note_on_c, 11, 73, 84
12, 18240, Note_on_c, 11, 78, 84
12, 18620, Note_off_c, 11, 70, 53
12, 18622, Note_off_c, 11, 73, 53
12, 18624, Note_on_c, 11, 71, 84
12, 18624, Note_on_c, 11, 74, 84
12, 18812, Note_off_c, 11, 71, 53
12, 18814, Note_off_c, 11, 78, 53
12, 18814, Note_off_c, 11, 74, 53
12, 18816, Note_on_c, 11, 64, 84
12, 18816, Note_on_c, 11, 69, 84
12, 18816, Note_on_c, 11, 76, 84
12, 19004, Note_off_c, 11, 64, 53
12, 19006, Note_off_c, 11, 69, 53
12, 19006, Note_off_c, 11, 76, 53
12, 19008, Note_on_c, 11, 66, 84
12, 19008, Note_on_c, 11, 71, 84
12, 19008, Note_on_c, 11, 74, 84
12, 19196, Note_off_c, 11, 66, 53
12, 19198, Note_off_c, 11, 74, 53
12, 19200, Note_on_c, 11, 61, 84
12, 19200, Note_on_c, 11, 76, 84
12, 19328, Note_off_c, 11, 61, 53
12, 19328, Note_off_c, 11, 76, 53
12, 19390, Note_off_c, 11, 71, 53
12, 19392, Note_on_c, 11, 62, 84
12, 19392, Note_on_c, 11, 71, 84
12, 19392, Note_on_c, 11, 74, 84
12, 19520, Note_off_c, 11, 62, 53
12, 19520, Note_off_c, 11, 71, 53
12, 19520, Note_off_c, 11, 74, 53
12, 19584, Note_on_c, 11, 64, 84
12, 19584, Note_on_c, 11, 69, 84
12, 19584, Note_on_c, 11, 73, 84
12, 19712, Note_off_c, 11, 64, 53
12, 19712, Note_off_c, 11, 69, 53
12, 19712, Note_off_c, 11, 73, 53
12, 19776, Note_on_c, 11, 62, 84
12, 19776, Note_on_c, 11, 66, 84
12, 19776, Note_on_c, 11, 71, 84
12, 19964, Note_off_c, 11, 62, 53
12, 19966, Note_off_c, 11, 66, 53
12, 19966, Note_off_c, 11, 71, 53
12, 19968, Note_on_c, 11, 64, 84
12, 19968, Note_on_c, 11, 69, 84
12, 19968, Note_on_c, 11, 73, 84
12, 20156, Note_off_c, 11, 64, 53
12, 20158, Note_off_c, 11, 69, 53
12, 20158, Note_off_c, 11, 73, 53
12, 20160, Note_on_c, 11, 66, 84
12, 20160, Note_on_c, 11, 71, 84
12, 20160, Note_on_c, 11, 74, 84
12, 20348, Note_off_c, 11, 66, 53
12, 20350, Note_off_c, 11, 71, 53
12, 20350, Note_off_c, 11, 74, 53
12, 20352, Note_on_c, 11, 64, 84
12, 20352, Note_on_c, 11, 69, 84
12, 20352, Note_on_c, 11, 73, 84
12, 20540, Note_off_c, 11, 64, 53
12, 20542, Note_off_c, 11, 69, 53
12, 20542, Note_off_c, 11, 73, 53
12, 20544, Note_on_c, 11, 66, 84
12, 20544, Note_on_c, 11, 71, 84
12, 20544, Note_on_c, 11, 74, 84
12, 20732, Note_off_c, 11, 66, 53
12, 20734, Note_off_c, 11, 71, 53
12, 20734, Note_off_c, 11, 74, 53
12, 20736, Note_on_c, 11, 58, 84
12, 20736, Note_on_c, 11, 73, 84
12, 20736, Note_on_c, 11, 76, 84
12, 20924, Note_off_c, 11, 58, 53
12, 20926, Note_off_c, 11, 73, 53
12, 20926, Note_off_c, 11, 76, 53
12, 20928, Note_on_c, 11, 66, 84
12, 20928, Note_on_c, 11, 71, 84
12, 20928, Note_on_c, 11, 74, 84
12, 22076, Note_off_c, 11, 66, 53
12, 22080, Note_on_c, 11, 67, 84
12, 22652, Note_off_c, 11, 71, 53
12, 22652, Note_off_c, 11, 74, 53
12, 22652, Note_off_c, 11, 67, 53
12, 22656, Note_on_c, 11, 69, 84
12, 22656, Note_on_c, 11, 69, 84
12, 22656, Note_on_c, 11, 75, 84
12, 23228, Note_off_c, 11, 69, 53
12, 23228, Note_off_c, 11, 69, 53
12, 23228, Note_off_c, 11, 75, 53
12, 23232, Note_on_c, 11, 67, 84
12, 23232, Note_on_c, 11, 71, 84
12, 23232, Note_on_c, 11, 76, 84
12, 23804, Note_off_c, 11, 67, 53
12, 23804, Note_off_c, 11, 71, 53
12, 23804, Note_off_c, 11, 76, 53
12, 23808, Note_on_c, 11, 66, 84
12, 23808, Note_on_c, 11, 69, 84
12, 23808, Note_on_c, 11, 72, 84
12, 24380, Note_off_c, 11, 66, 53
12, 24380, Note_off_c, 11, 69, 53
12, 24380, Note_off_c, 11, 72, 53
12, 24384, Note_on_c, 11, 67, 84
12, 24384, Note_on_c, 11, 71, 84
12, 24384, Note_on_c, 11, 71, 84
12, 24956, Note_off_c, 11, 71, 53
12, 24960, Note_on_c, 11, 76, 84
12, 25532, Note_off_c, 11, 67, 53
12, 25532, Note_off_c, 11, 71, 53
12, 25532, Note_off_c, 11, 76, 53
12, 25536, Note_on_c, 11, 64, 84
12, 25536, Note_on_c, 11, 76, 84
12, 25536, Note_on_c, 11, 79, 84
12, 27260, Note_off_c, 11, 64, 53
12, 27260, Note_off_c, 11, 79, 53
12, 27264, Note_on_c, 11, 58, 84
12, 27264, Note_on_c, 11, 73, 84
12, 27836, Note_off_c, 11, 76, 53
12, 27836, Note_off_c, 11, 58, 53
12, 27836, Note_off_c, 11, 73, 53
12, 27840, Note_on_c, 11, 66, 84
12, 27840, Note_on_c, 11, 74, 84
12, 27840, Note_on_c, 11, 74, 84
12, 28412, Note_off_c, 11, 66, 53
12, 28412, Note_off_c, 11, 74, 53
12, 28412, Note_off_c, 11, 74, 53
12, 28416, Note_on_c, 11, 67, 84
12, 28416, Note_on_c, 11, 71, 84
12, 28416, Note_on_c, 11, 76, 84
12, 28988, Note_off_c, 11, 67, 53
12, 28988, Note_off_c, 11, 71, 53
12, 28988, Note_off_c, 11, 76, 53
12, 28992, Note_on_c, 11, 61, 84
12, 28992, Note_on_c, 11, 70, 84
12, 28992, Note_on_c, 11, 78, 84
12, 29180, Note_off_c, 11, 61, 53
12, 29180, Note_off_c, 11, 70, 53
12, 29184, Note_on_c, 11, 62, 84
12, 29184, Note_on_c, 11, 71, 84
12, 29372, Note_off_c, 11, 62, 53
12, 29372, Note_off_c, 11, 71, 53
12, 29376, Note_on_c, 11, 64, 84
12, 29376, Note_on_c, 11, 73, 84
12, 29564, Note_off_c, 11, 64, 53
12, 29564, Note_off_c, 11, 73, 53
12, 29568, Note_on_c, 11, 58, 84
12, 29568, Note_on_c, 11, 61, 84
12, 29756, Note_off_c, 11, 58, 53
12, 29756, Note_off_c, 11, 61, 53
12, 29760, Note_on_c, 11, 59, 84
12, 29760, Note_on_c, 11, 62, 84
12, 29948, Note_off_c, 11, 78, 53
12, 29948, Note_off_c, 11, 59, 53
12, 29948, Note_off_c, 11, 62, 53
12, 29952, Note_on_c, 11, 61, 84
12, 29952, Note_on_c, 11, 64, 84
12, 29952, Note_on_c, 11, 70, 84
12, 30140, Note_off_c, 11, 61, 53
12, 30140, Note_off_c, 11, 64, 53
12, 30140, Note_off_c, 11, 70, 53
12, 30144, Note_on_c, 11, 59, 84
12, 30144, Note_on_c, 11, 66, 84
12, 30144, Note_on_c, 11, 69, 84
12, 30188, Note_off_c, 11, 69, 53
12, 30192, Note_on_c, 11, 71, 84
12, 30236, Note_off_c, 11, 71, 53
12, 30240, Note_on_c, 11, 72, 84
12, 30332, Note_off_c, 11, 59, 53
12, 30332, Note_off_c, 11, 66, 53
12, 30336, Note_on_c, 11, 59, 84
12, 30336, Note_on_c, 11, 66, 84
12, 30432, Note_on_c, 11, 71, 84
12, 30524, Note_off_c, 11, 72, 53
12, 30524, Note_off_c, 11, 59, 53
12, 30524, Note_off_c, 11, 66, 53
12, 30524, Note_off_c, 11, 71, 53
12, 30528, Note_on_c, 11, 59, 84
12, 30528, Note_on_c, 11, 66, 84
12, 30528, Note_on_c, 11, 69, 84
12, 30716, Note_off_c, 11, 59, 53
12, 30716, Note_off_c, 11, 66, 53
12, 30716, Note_off_c, 11, 69, 53
12, 30720, Note_on_c, 11, 59, 84
12, 30720, Note_on_c, 11, 66, 84
12, 30720, Note_on_c, 11, 75, 84
12, 30908, Note_off_c, 11, 59, 53
12, 30908, Note_off_c, 11, 66, 53
12, 30912, Note_on_c, 11, 59, 84
12, 30912, Note_on_c, 11, 66, 84
12, 31004, Note_off_c, 11, 75, 53
12, 31008, Note_on_c, 11, 76, 84
12, 31100, Note_off_c, 11, 59, 53
12, 31100, Note_off_c, 11, 66, 53
12, 31100, Note_off_c, 11, 76, 53
12, 31104, Note_on_c, 11, 59, 84
12, 31104, Note_on_c, 11, 66, 84
12, 31104, Note_on_c, 11, 78, 84
12, 31292, Note_off_c, 11, 59, 53
12, 31292, Note_off_c, 11, 66, 53
12, 31292, Note_off_c, 11, 78, 53
12, 31296, Note_on_c, 11, 59, 84
12, 31296, Note_on_c, 11, 67, 84
12, 31296, Note_on_c, 11, 78, 84
12, 31424, Note_off_c, 11, 59, 53
12, 31424, Note_off_c, 11, 67, 53
12, 31484, Note_off_c, 11, 78, 53
12, 31488, Note_on_c, 11, 59, 84
12, 31488, Note_on_c, 11, 67, 84
12, 31488, Note_on_c, 11, 76, 84
12, 31676, Note_off_c, 11, 59, 53
12, 31676, Note_off_c, 11, 67, 53
12, 31680, Note_on_c, 11, 57, 84
12, 31680, Note_on_c, 11, 66, 84
12, 31868, Note_off_c, 11, 57, 53
12, 31868, Note_off_c, 11, 66, 53
12, 31872, Note_on_c, 11, 59, 84
12, 31872, Note_on_c, 11, 67, 84
12, 32060, Note_off_c, 11, 59, 53
12, 32060, Note_off_c, 11, 67, 53
12, 32064, Note_on_c, 11, 61, 84
12, 32064, Note_on_c, 11, 70, 84
12, 32252, Note_off_c, 11, 76, 53
12, 32252, Note_off_c, 11, 61, 53
12, 32252, Note_off_c, 11, 70, 53
12, 32256, Note_on_c, 11, 62, 84
12, 32256, Note_on_c, 11, 71, 84
12, 32256, Note_on_c, 11, 71, 84
12, 32444, Note_off_c, 11, 62, 53
12, 32444, Note_off_c, 11, 71, 53
12, 32444, Note_off_c, 11, 71, 53
12, 32448, Note_on_c, 11, 61, 84
12, 32448, Note_on_c, 11, 68, 84
12, 32448, Note_on_c, 11, 71, 84
12, 32492, Note_off_c, 11, 71, 53
12, 32496, Note_on_c, 11, 73, 84
12, 32540, Note_off_c, 11, 73, 53
12, 32544, Note_on_c, 11, 74, 84
12, 32636, Note_off_c, 11, 61, 53
12, 32636, Note_off_c, 11, 68, 53
12, 32640, Note_on_c, 11, 61, 84
12, 32640, Note_on_c, 11, 68, 84
12, 32736, Note_on_c, 11, 73, 84
12, 32828, Note_off_c, 11, 74, 53
12, 32828, Note_off_c, 11, 61, 53
12, 32828, Note_off_c, 11, 68, 53
12, 32828, Note_off_c, 11, 73, 53
12, 32832, Note_on_c, 11, 61, 84
12, 32832, Note_on_c, 11, 68, 84
12, 32832, Note_on_c, 11, 71, 84
12, 33020, Note_off_c, 11, 61, 53
12, 33020, Note_off_c, 11, 68, 53
12, 33020, Note_off_c, 11, 71, 53
12, 33024, Note_on_c, 11, 61, 84
12, 33024, Note_on_c, 11, 68, 84
12, 33024, Note_on_c, 11, 77, 84
12, 33212, Note_off_c, 11, 61, 53
12, 33212, Note_off_c, 11, 68, 53
12, 33216, Note_on_c, 11, 61, 84
12, 33216, Note_on_c, 11, 68, 84
12, 33308, Note_off_c, 11, 77, 53
12, 33312, Note_on_c, 11, 78, 84
12, 33404, Note_off_c, 11, 61, 53
12, 33404, Note_off_c, 11, 68, 53
12, 33404, Note_off_c, 11, 78, 53
12, 33408, Note_on_c, 11, 61, 84
12, 33408, Note_on_c, 11, 68, 84
12, 33408, Note_on_c, 11, 80, 84
12, 33596, Note_off_c, 11, 61, 53
12, 33596, Note_off_c, 11, 68, 53
12, 33596, Note_off_c, 11, 80, 53
12, 33600, Note_on_c, 11, 61, 84
12, 33600, Note_on_c, 11, 69, 84
12, 33600, Note_on_c, 11, 80, 84
12, 33788, Note_off_c, 11, 61, 53
12, 33788, Note_off_c, 11, 69, 53
12, 33788, Note_off_c, 11, 80, 53
12, 33792, Note_on_c, 11, 57, 84
12, 33792, Note_on_c, 11, 66, 84
12, 33792, Note_on_c, 11, 78, 84
12, 33980, Note_off_c, 11, 57, 53
12, 33980, Note_off_c, 11, 66, 53
12, 33984, Note_on_c, 11, 59, 84
12, 33984, Note_on_c, 11, 65, 84
12, 34112, Note_off_c, 11, 59, 53
12, 34112, Note_off_c, 11, 65, 53
12, 34176, Note_on_c, 11, 61, 84
12, 34176, Note_on_c, 11, 66, 84
12, 34364, Note_off_c, 11, 61, 53
12, 34364, Note_off_c, 11, 66, 53
12, 34368, Note_on_c, 11, 69, 84
12, 34368, Note_on_c, 11, 78, 84
12, 34556, Note_off_c, 11, 78, 53
12, 34556, Note_off_c, 11, 69, 53
12, 34556, Note_off_c, 11, 78, 53
12, 34560, Note_on_c, 11, 68, 84
12, 34560, Note_on_c, 11, 77, 84
12, 34688, Note_off_c, 11, 68, 53
12, 34688, Note_off_c, 11, 77, 53
12, 34752, Note_on_c, 11, 69, 84
12, 34752, Note_on_c, 11, 78, 84
12, 34752, Note_on_c, 11, 73, 84
12, 35900, Note_off_c, 11, 73, 53
12, 35904, Note_on_c, 11, 74, 84
12, 36092, Note_off_c, 11, 69, 53
12, 36096, Note_on_c, 11, 68, 84
12, 36284, Note_off_c, 11, 68, 53
12, 36288, Note_on_c, 11, 66, 84
12, 36476, Note_off_c, 11, 78, 53
12, 36476, Note_off_c, 11, 74, 53
12, 36476, Note_off_c, 11, 66, 53
12, 36480, Note_on_c, 11, 64, 84
12, 36480, Note_on_c, 11, 70, 84
12, 36480, Note_on_c, 11, 76, 84
12, 36668, Note_off_c, 11, 64, 53
12, 36672, Note_on_c, 11, 62, 84
12, 36860, Note_off_c, 11, 62, 53
12, 36864, Note_on_c, 11, 61, 84
12, 37052, Note_off_c, 11, 70, 53
12, 37052, Note_off_c, 11, 76, 53
12, 37052, Note_off_c, 11, 61, 53
12, 37056, Note_on_c, 11, 66, 84
12, 37056, Note_on_c, 11, 71, 84
12, 37056, Note_on_c, 11, 74, 84
12, 37628, Note_off_c, 11, 71, 53
12, 37628, Note_off_c, 11, 74, 53
12, 37632, Note_on_c, 11, 76, 84
12, 37632, Note_on_c, 11, 73, 84
12, 38012, Note_off_c, 11, 76, 53
12, 38016, Note_on_c, 11, 70, 84
12, 38204, Note_off_c, 11, 73, 53
12, 38204, Note_off_c, 11, 70, 53
12, 38208, Note_on_c, 11, 71, 84
12, 38208, Note_on_c, 11, 71, 84
12, 38780, Note_off_c, 11, 66, 53
12, 38780, Note_off_c, 11, 71, 53
12, 38784, Note_on_c, 11, 62, 84
12, 38784, Note_on_c, 11, 66, 84
12, 39356, Note_off_c, 11, 62, 53
12, 39356, Note_off_c, 11, 66, 53
12, 39360, Note_on_c, 11, 59, 84
12, 39360, Note_on_c, 11, 74, 84
12, 39932, Note_off_c, 11, 59, 53
12, 39936, Note_on_c, 11, 66, 84
12, 40508, Note_off_c, 11, 66, 53
12, 40512, Note_on_c, 11, 68, 84
12, 41084, Note_off_c, 11, 74, 53
12, 41088, Note_on_c, 11, 68, 84
12, 41660, Note_off_c, 11, 71, 53
12, 41660, Note_off_c, 11, 68, 53
12, 41660, Note_off_c, 11, 68, 53
12, 41664, Note_on_c, 11, 61, 84
12, 41664, Note_on_c, 11, 69, 84
12, 41664, Note_on_c, 11, 69, 84
12, 42236, Note_off_c, 11, 61, 53
12, 42236, Note_off_c, 11, 69, 53
12, 42236, Note_off_c, 11, 69, 53
12, 42240, Note_on_c, 11, 62, 84
12, 42240, Note_on_c, 11, 66, 84
12, 42240, Note_on_c, 11, 71, 84
12, 42812, Note_off_c, 11, 62, 53
12, 42812, Note_off_c, 11, 66, 53
12, 42812, Note_off_c, 11, 71, 53
12, 42816, Note_on_c, 11, 56, 84
12, 42816, Note_on_c, 11, 68, 84
12, 42816, Note_on_c, 11, 73, 84
12, 43772, Note_off_c, 11, 56, 53
12, 43820, Note_off_c, 11, 68, 53
12, 43820, Note_off_c, 11, 73, 53
12, 43968, Note_on_c, 11, 68, 84
12, 43968, Note_on_c, 11, 73, 84
12, 43968, Note_on_c, 11, 77, 84
12, 44156, Note_off_c, 11, 68, 53
12, 44156, Note_off_c, 11, 73, 53
12, 44156, Note_off_c, 11, 77, 53
12, 44160, Note_on_c, 11, 69, 84
12, 44160, Note_on_c, 11, 75, 84
12, 44160, Note_on_c, 11, 78, 84
12, 44348, Note_off_c, 11, 69, 53
12, 44348, Note_off_c, 11, 75, 53
12, 44348, Note_off_c, 11, 78, 53
12, 44352, Note_on_c, 11, 71, 84
12, 44352, Note_on_c, 11, 77, 84
12, 44352, Note_on_c, 11, 80, 84
12, 44540, Note_off_c, 11, 71, 53
12, 44540, Note_off_c, 11, 77, 53
12, 44540, Note_off_c, 11, 80, 53
12, 44544, Note_on_c, 11, 61, 84
12, 44544, Note_on_c, 11, 77, 84
12, 44544, Note_on_c, 11, 80, 84
12, 44732, Note_off_c, 11, 61, 53
12, 44732, Note_off_c, 11, 77, 53
12, 44732, Note_off_c, 11, 80, 53
12, 44736, Note_on_c, 11, 61, 84
12, 44736, Note_on_c, 11, 78, 84
12, 44736, Note_on_c, 11, 81, 84
12, 44924, Note_off_c, 11, 61, 53
12, 44924, Note_off_c, 11, 78, 53
12, 44924, Note_off_c, 11, 81, 53
12, 44928, Note_on_c, 11, 61, 84
12, 44928, Note_on_c, 11, 80, 84
12, 44928, Note_on_c, 11, 83, 84
12, 45116, Note_off_c, 11, 61, 53
12, 45116, Note_off_c, 11, 80, 53
12, 45116, Note_off_c, 11, 83, 53
12, 45120, Note_on_c, 11, 61, 84
12, 45120, Note_on_c, 11, 68, 84
12, 45120, Note_on_c, 11, 77, 84
12, 46076, Note_off_c, 11, 61, 53
12, 46076, Note_off_c, 11, 68, 53
12, 46076, Note_off_c, 11, 77, 53
12, 46272, Note_on_c, 11, 61, 84
12, 46272, Note_on_c, 11, 70, 84
12, 46272, Note_on_c, 11, 73, 84
12, 46460, Note_off_c, 11, 61, 53
12, 46460, Note_off_c, 11, 70, 53
12, 46460, Note_off_c, 11, 73, 53
12, 46464, Note_on_c, 11, 66, 84
12, 46464, Note_on_c, 11, 71, 84
12, 46464, Note_on_c, 11, 74, 84
12, 46652, Note_off_c, 11, 66, 53
12, 46652, Note_off_c, 11, 71, 53
12, 46652, Note_off_c, 11, 74, 53
12, 46656, Note_on_c, 11, 66, 84
12, 46656, Note_on_c, 11, 73, 84
12, 46656, Note_on_c, 11, 76, 84
12, 46844, Note_off_c, 11, 66, 53
12, 46844, Note_off_c, 11, 73, 53
12, 46844, Note_off_c, 11, 76, 53
12, 46848, Note_on_c, 11, 66, 84
12, 46848, Note_on_c, 11, 70, 84
12, 46848, Note_on_c, 11, 73, 84
12, 47036, Note_off_c, 11, 66, 53
12, 47036, Note_off_c, 11, 70, 53
12, 47036, Note_off_c, 11, 73, 53
12, 47040, Note_on_c, 11, 66, 84
12, 47040, Note_on_c, 11, 71, 84
12, 47040, Note_on_c, 11, 74, 84
12, 47228, Note_off_c, 11, 66, 53
12, 47228, Note_off_c, 11, 71, 53
12, 47228, Note_off_c, 11, 74, 53
12, 47232, Note_on_c, 11, 66, 84
12, 47232, Note_on_c, 11, 73, 84
12, 47232, Note_on_c, 11, 76, 84
12, 47420, Note_off_c, 11, 66, 53
12, 47420, Note_off_c, 11, 73, 53
12, 47420, Note_off_c, 11, 76, 53
12, 47424, Note_on_c, 11, 66, 84
12, 47424, Note_on_c, 11, 61, 84
12, 47424, Note_on_c, 11, 70, 84
12, 48332, Note_off_c, 11, 61, 53
12, 48380, Note_off_c, 11, 66, 53
12, 48380, Note_off_c, 11, 70, 53
12, 48576, Note_on_c, 11, 54, 84
12, 48576, Note_on_c, 11, 59, 84
12, 48576, Note_on_c, 11, 62, 84
12, 49148, Note_off_c, 11, 54, 53
12, 49148, Note_off_c, 11, 59, 53
12, 49148, Note_off_c, 11, 62, 53
12, 49152, Note_on_c, 11, 59, 84
12, 49152, Note_on_c, 11, 62, 84
12, 49152, Note_on_c, 11, 66, 84
12, 49724, Note_off_c, 11, 59, 53
12, 49724, Note_off_c, 11, 62, 53
12, 49724, Note_off_c, 11, 66, 53
12, 49728, Note_on_c, 11, 62, 84
12, 49728, Note_on_c, 11, 67, 84
12, 49728, Note_on_c, 11, 71, 84
12, 50300, Note_off_c, 11, 62, 53
12, 50300, Note_off_c, 11, 67, 53
12, 50300, Note_off_c, 11, 71, 53
12, 50304, Note_on_c, 11, 56, 84
12, 50304, Note_on_c, 11, 71, 84
12, 50304, Note_on_c, 11, 74, 84
12, 50492, Note_off_c, 11, 56, 53
12, 50492, Note_off_c, 11, 71, 53
12, 50492, Note_off_c, 11, 74, 53
12, 50496, Note_on_c, 11, 65, 84
12, 50496, Note_on_c, 11, 68, 84
12, 50496, Note_on_c, 11, 73, 84
12, 50876, Note_off_c, 11, 65, 53
12, 50876, Note_off_c, 11, 68, 53
12, 50880, Note_on_c, 11, 66, 84
12, 50880, Note_on_c, 11, 69, 84
12, 51260, Note_off_c, 11, 73, 53
12, 51260, Note_off_c, 11, 66, 53
12, 51260, Note_off_c, 11, 69, 53
12, 53184, Note_on_c, 11, 66, 84
12, 53184, Note_on_c, 11, 69, 84
12, 53184, Note_on_c, 11, 73, 84
12, 54716, Note_off_c, 11, 66, 53
12, 54716, Note_off_c, 11, 69, 53
12, 54716, Note_off_c, 11, 73, 53
12, 54720, Note_on_c, 11, 59, 84
12, 54720, Note_on_c, 11, 71, 84
12, 54720, Note_on_c, 11, 71, 84
12, 54908, Note_off_c, 11, 59, 53
12, 54908, Note_off_c, 11, 71, 53
12, 54908, Note_off_c, 11, 71, 53
12, 54912, Note_on_c, 11, 61, 84
12, 54912, Note_on_c, 11, 76, 84
12, 54912, Note_on_c, 11, 71, 84
12, 55100, Note_off_c, 11, 76, 53
12, 55104, Note_on_c, 11, 74, 84
12, 55292, Note_off_c, 11, 71, 53
12, 55292, Note_off_c, 11, 74, 53
12, 55296, Note_on_c, 11, 73, 84
12, 55296, Note_on_c, 11, 70, 84
12, 55484, Note_off_c, 11, 61, 53
12, 55484, Note_off_c, 11, 73, 53
12, 55484, Note_off_c, 11, 70, 53
12, 55488, Note_on_c, 11, 66, 84
12, 55488, Note_on_c, 11, 74, 84
12, 55488, Note_on_c, 11, 71, 84
12, 56060, Note_off_c, 11, 66, 53
12, 56060, Note_off_c, 11, 74, 53
12, 56060, Note_off_c, 11, 71, 53
12, 56064, Note_on_c, 11, 64, 84
12, 56064, Note_on_c, 11, 70, 84
12, 56064, Note_on_c, 11, 67, 84
12, 56636, Note_off_c, 11, 64, 53
12, 56636, Note_off_c, 11, 70, 53
12, 56640, Note_on_c, 11, 62, 84
12, 56640, Note_on_c, 11, 71, 84
12, 57020, Note_off_c, 11, 67, 53
12, 57024, Note_on_c, 11, 66, 84
12, 57212, Note_off_c, 11, 66, 53
12, 57216, Note_on_c, 11, 71, 84
12, 57596, Note_off_c, 11, 71, 53
12, 57600, Note_on_c, 11, 74, 84
12, 57788, Note_off_c, 11, 74, 53
12, 57792, Note_on_c, 11, 79, 84
12, 58364, Note_off_c, 11, 79, 53
12, 58368, Note_on_c, 11, 78, 84
12, 58940, Note_off_c, 11, 78, 53
12, 58944, Note_on_c, 11, 77, 84
12, 59516, Note_off_c, 11, 62, 53
12, 59516, Note_off_c, 11, 77, 53
12, 59520, Note_on_c, 11, 56, 84
12, 59520, Note_on_c, 11, 80, 84
12, 60092, Note_off_c, 11, 71, 53
12, 60092, Note_off_c, 11, 56, 53
12, 60096, Note_on_c, 11, 61, 84
12, 60096, Note_on_c, 11, 69, 84
12, 60284, Note_off_c, 11, 61, 53
12, 60286, Note_off_c, 11, 80, 53
12, 60286, Note_off_c, 11, 69, 53
12, 60288, Note_on_c, 11, 68, 84
12, 60288, Note_on_c, 11, 71, 84
12, 60288, Note_on_c, 11, 77, 84
12, 60476, Note_off_c, 11, 68, 53
12, 60478, Note_off_c, 11, 71, 53
12, 60478, Note_off_c, 11, 77, 53
12, 60480, Note_on_c, 11, 69, 84
12, 60480, Note_on_c, 11, 73, 84
12, 60480, Note_on_c, 11, 78, 84
12, 60668, Note_off_c, 11, 69, 53
12, 60670, Note_off_c, 11, 78, 53
12, 60672, Note_on_c, 11, 68, 84
12, 60672, Note_on_c, 11, 80, 84
12, 60718, Note_off_c, 11, 80, 53
12, 60720, Note_on_c, 11, 81, 84
12, 60766, Note_off_c, 11, 81, 53
12, 60768, Note_on_c, 11, 83, 84
12, 60800, Note_off_c, 11, 68, 53
12, 60862, Note_off_c, 11, 73, 53
12, 60862, Note_off_c, 11, 83, 53
12, 60864, Note_on_c, 11, 69, 84
12, 60864, Note_on_c, 11, 78, 84
12, 60864, Note_on_c, 11, 81, 84
12, 60992, Note_off_c, 11, 69, 53
12, 60992, Note_off_c, 11, 78, 53
12, 60992, Note_off_c, 11, 81, 53
12, 61056, Note_on_c, 11, 71, 84
12, 61056, Note_on_c, 11, 77, 84
12, 61056, Note_on_c, 11, 80, 84
12, 61184, Note_off_c, 11, 71, 53
12, 61184, Note_off_c, 11, 77, 53
12, 61184, Note_off_c, 11, 80, 53
12, 61248, Note_on_c, 11, 69, 84
12, 61248, Note_on_c, 11, 73, 84
12, 61248, Note_on_c, 11, 78, 84
12, 62204, Note_off_c, 11, 69, 53
12, 62206, Note_off_c, 11, 73, 53
12, 62206, Note_off_c, 11, 78, 53
12, 62400, Note_on_c, 11, 66, 84
12, 62400, Note_on_c, 11, 69, 84
12, 62400, Note_on_c, 11, 78, 84
12, 62588, Note_off_c, 11, 66, 53
12, 62590, Note_off_c, 11, 69, 53
12, 62592, Note_on_c, 11, 68, 84
12, 62592, Note_on_c, 11, 71, 84
12, 62780, Note_off_c, 11, 68, 53
12, 62782, Note_off_c, 11, 71, 53
12, 62784, Note_on_c, 11, 69, 84
12, 62784, Note_on_c, 11, 72, 84
12, 62972, Note_off_c, 11, 69, 53
12, 62974, Note_off_c, 11, 72, 53
12, 62976, Note_on_c, 11, 69, 84
12, 62976, Note_on_c, 11, 72, 84
12, 63164, Note_off_c, 11, 69, 53
12, 63166, Note_off_c, 11, 72, 53
12, 63168, Note_on_c, 11, 67, 84
12, 63168, Note_on_c, 11, 71, 84
12, 63356, Note_off_c, 11, 67, 53
12, 63358, Note_off_c, 11, 71, 53
12, 63360, Note_on_c, 11, 69, 84
12, 63360, Note_on_c, 11, 72, 84
12, 63548, Note_off_c, 11, 69, 53
12, 63550, Note_off_c, 11, 72, 53
12, 63552, Note_on_c, 11, 66, 84
12, 63552, Note_on_c, 11, 71, 84
12, 63740, Note_off_c, 11, 66, 53
12, 63742, Note_off_c, 11, 71, 53
12, 63744, Note_on_c, 11, 64, 84
12, 63744, Note_on_c, 11, 73, 84
12, 63840, Note_on_c, 11, 78, 84
12, 63886, Note_off_c, 11, 78, 53
12, 63888, Note_on_c, 11, 79, 84
12, 63932, Note_off_c, 11, 64, 53
12, 63934, Note_off_c, 11, 73, 53
12, 63934, Note_off_c, 11, 78, 53
12, 63934, Note_off_c, 11, 79, 53
12, 63936, Note_on_c, 11, 66, 84
12, 63936, Note_on_c, 11, 75, 84
12, 63936, Note_on_c, 11, 81, 84
12, 64124, Note_off_c, 11, 66, 53
12, 64126, Note_off_c, 11, 75, 53
12, 64128, Note_on_c, 11, 66, 84
12, 64128, Note_on_c, 11, 75, 84
12, 64414, Note_off_c, 11, 81, 53
12, 64416, Note_on_c, 11, 79, 84
12, 64508, Note_off_c, 11, 66, 53
12, 64510, Note_off_c, 11, 75, 53
12, 64510, Note_off_c, 11, 79, 53
12, 64512, Note_on_c, 11, 78, 84
12, 64702, Note_off_c, 11, 78, 53
12, 64704, Note_on_c, 11, 59, 84
12, 64704, Note_on_c, 11, 64, 84
12, 64704, Note_on_c, 11, 76, 84
12, 64892, Note_off_c, 11, 59, 53
12, 64894, Note_off_c, 11, 64, 53
12, 64896, Note_on_c, 11, 63, 84
12, 64896, Note_on_c, 11, 66, 84
12, 65084, Note_off_c, 11, 63, 53
12, 65086, Note_off_c, 11, 66, 53
12, 65088, Note_on_c, 11, 64, 84
12, 65088, Note_on_c, 11, 67, 84
12, 65276, Note_off_c, 11, 64, 53
12, 65278, Note_off_c, 11, 67, 53
12, 65280, Note_on_c, 11, 64, 84
12, 65280, Note_on_c, 11, 67, 84
12, 65468, Note_off_c, 11, 64, 53
12, 65470, Note_off_c, 11, 67, 53
12, 65472, Note_on_c, 11, 63, 84
12, 65472, Note_on_c, 11, 66, 84
12, 65660, Note_off_c, 11, 63, 53
12, 65662, Note_off_c, 11, 66, 53
12, 65664, Note_on_c, 11, 64, 84
12, 65664, Note_on_c, 11, 67, 84
12, 65852, Note_off_c, 11, 64, 53
12, 65854, Note_off_c, 11, 67, 53
12, 65856, Note_on_c, 11, 54, 84
12, 65856, Note_on_c, 11, 61, 84
12, 66044, Note_off_c, 11, 54, 53
12, 66046, Note_off_c, 11, 76, 53
12, 66048, Note_on_c, 11, 64, 84
12, 66048, Note_on_c, 11, 70, 84
12, 66236, Note_off_c, 11, 64, 53
12, 66238, Note_off_c, 11, 61, 53
12, 66238, Note_off_c, 11, 70, 53
12, 66240, Note_on_c, 11, 62, 84
12, 66240, Note_on_c, 11, 62, 84
12, 66240, Note_on_c, 11, 71, 84
12, 66428, Note_off_c, 11, 62, 53
12, 66430, Note_off_c, 11, 62, 53
12, 66430, Note_off_c, 11, 71, 53
12, 66432, Note_on_c, 11, 61, 84
12, 66432, Note_on_c, 11, 64, 84
12, 66432, Note_on_c, 11, 73, 84
12, 66526, Note_off_c, 11, 73, 53
12, 66528, Note_on_c, 11, 74, 84
12, 66622, Note_off_c, 11, 74, 53
12, 66624, Note_on_c, 11, 76, 84
12, 66812, Note_off_c, 11, 61, 53
12, 66814, Note_off_c, 11, 64, 53
12, 66814, Note_off_c, 11, 76, 53
12, 66816, Note_on_c, 11, 70, 84
12, 67006, Note_off_c, 11, 70, 53
12, 67008, Note_on_c, 11, 62, 84
12, 67008, Note_on_c, 11, 66, 84
12, 67008, Note_on_c, 11, 71, 84
12, 67196, Note_off_c, 11, 62, 53
12, 67198, Note_off_c, 11, 66, 53
12, 67200, Note_on_c, 11, 64, 84
12, 67200, Note_on_c, 11, 70, 84
12, 67388, Note_off_c, 11, 64, 53
12, 67390, Note_off_c, 11, 70, 53
12, 67392, Note_on_c, 11, 66, 84
12, 67392, Note_on_c, 11, 71, 84
12, 67580, Note_off_c, 11, 66, 53
12, 67582, Note_off_c, 11, 71, 53
12, 67584, Note_on_c, 11, 67, 84
12, 67584, Note_on_c, 11, 71, 84
12, 67772, Note_off_c, 11, 67, 53
12, 67774, Note_off_c, 11, 71, 53
12, 67776, Note_on_c, 11, 64, 84
12, 67776, Note_on_c, 11, 70, 84
12, 67964, Note_off_c, 11, 64, 53
12, 67966, Note_off_c, 11, 70, 53
12, 67968, Note_on_c, 11, 66, 84
12, 67968, Note_on_c, 11, 71, 84
12, 68156, Note_off_c, 11, 66, 53
12, 68158, Note_off_c, 11, 71, 53
12, 68160, Note_on_c, 11, 56, 84
12, 68160, Note_on_c, 11, 61, 84
12, 68350, Note_off_c, 11, 61, 53
12, 68352, Note_on_c, 11, 63, 84
12, 68446, Note_off_c, 11, 71, 53
12, 68448, Note_on_c, 11, 69, 84
12, 68540, Note_off_c, 11, 56, 53
12, 68542, Note_off_c, 11, 63, 53
12, 68542, Note_off_c, 11, 69, 53
12, 68544, Note_on_c, 11, 61, 84
12, 68544, Note_on_c, 11, 65, 84
12, 68544, Note_on_c, 11, 68, 84
12, 68732, Note_off_c, 11, 61, 53
12, 68734, Note_off_c, 11, 65, 53
12, 68734, Note_off_c, 11, 68, 53
12, 68736, Note_on_c, 11, 68, 84
12, 68736, Note_on_c, 11, 65, 84
12, 68736, Note_on_c, 11, 68, 84
12, 68782, Note_off_c, 11, 68, 53
12, 68784, Note_on_c, 11, 69, 84
12, 68830, Note_off_c, 11, 69, 53
12, 68832, Note_on_c, 11, 71, 84
12, 69022, Note_off_c, 11, 71, 53
12, 69024, Note_on_c, 11, 69, 84
12, 69116, Note_off_c, 11, 68, 53
12, 69118, Note_off_c, 11, 65, 53
12, 69118, Note_off_c, 11, 69, 53
12, 69120, Note_on_c, 11, 68, 84
12, 69310, Note_off_c, 11, 68, 53
12, 69312, Note_on_c, 11, 57, 84
12, 69312, Note_on_c, 11, 61, 84
12, 69312, Note_on_c, 11, 66, 84
12, 69884, Note_off_c, 11, 57, 53
12, 69886, Note_off_c, 11, 61, 53
12, 69886, Note_off_c, 11, 66, 53
12, 69888, Note_on_c, 11, 61, 84
12, 69888, Note_on_c, 11, 66, 84
12, 69888, Note_on_c, 11, 69, 84
12, 70460, Note_off_c, 11, 61, 53
12, 70462, Note_off_c, 11, 66, 53
12, 70462, Note_off_c, 11, 69, 53
12, 70464, Note_on_c, 11, 66, 84
12, 70464, Note_on_c, 11, 69, 84
12, 70464, Note_on_c, 11, 74, 84
12, 70848, Note_on_c, 11, 73, 84
12, 71036, Note_off_c, 11, 66, 53
12, 71038, Note_off_c, 11, 69, 53
12, 71038, Note_off_c, 11, 74, 53
12, 71038, Note_off_c, 11, 73, 53
12, 71040, Note_on_c, 11, 60, 84
12, 71040, Note_on_c, 11, 68, 84
12, 71040, Note_on_c, 11, 80, 84
12, 71228, Note_off_c, 11, 60, 53
12, 71230, Note_off_c, 11, 68, 53
12, 71230, Note_off_c, 11, 80, 53
12, 72192, Note_on_c, 11, 66, 84
12, 72192, Note_on_c, 11, 69, 84
12, 72192, Note_on_c, 11, 73, 84
12, 72766, Note_off_c, 11, 73, 53
12, 72768, Note_on_c, 11, 74, 84
12, 73342, Note_off_c, 11, 74, 53
12, 73344, Note_on_c, 11, 73, 84
12, 73918, Note_off_c, 11, 73, 53
12, 73920, Note_on_c, 11, 72, 84
12, 74300, Note_off_c, 11, 66, 53
12, 74302, Note_off_c, 11, 69, 53
12, 74302, Note_off_c, 11, 72, 53
12, 75072, Note_on_c, 11, 65, 84
12, 75072, Note_on_c, 11, 68, 84
12, 75072, Note_on_c, 11, 68, 84
12, 75260, Note_off_c, 11, 65, 53
12, 75264, Note_on_c, 11, 68, 84
12, 75432, Note_on_c, 11, 71, 84
12, 75452, Note_off_c, 11, 68, 53
12, 75644, Note_off_c, 11, 68, 53
12, 75648, Note_on_c, 11, 73, 84
12, 75812, Note_off_c, 11, 71, 53
12, 75816, Note_on_c, 11, 69, 84
12, 76004, Note_off_c, 11, 69, 53
12, 76008, Note_on_c, 11, 68, 84
12, 76196, Note_off_c, 11, 68, 53
12, 76220, Note_off_c, 11, 68, 53
12, 76224, Note_on_c, 11, 69, 84
12, 76224, Note_on_c, 11, 66, 84
12, 76796, Note_off_c, 11, 73, 53
12, 76796, Note_off_c, 11, 69, 53
12, 76798, Note_off_c, 11, 66, 53
12, 76800, Note_on_c, 11, 73, 84
12, 76800, Note_on_c, 11, 68, 84
12, 76800, Note_on_c, 11, 77, 84
12, 76990, Note_off_c, 11, 68, 53
12, 76992, Note_on_c, 11, 69, 84
12, 77182, Note_off_c, 11, 69, 53
12, 77184, Note_on_c, 11, 71, 84
12, 77372, Note_off_c, 11, 73, 53
12, 77374, Note_off_c, 11, 77, 53
12, 77374, Note_off_c, 11, 71, 53
12, 77376, Note_on_c, 11, 61, 84
12, 77376, Note_on_c, 11, 69, 84
12, 77376, Note_on_c, 11, 78, 84
12, 77564, Note_off_c, 11, 61, 53
12, 77568, Note_on_c, 11, 66, 84
12, 77758, Note_off_c, 11, 69, 53
12, 77760, Note_on_c, 11, 71, 84
12, 77950, Note_off_c, 11, 78, 53
12, 77950, Note_off_c, 11, 71, 53
12, 77952, Note_on_c, 11, 73, 84
12, 77952, Note_on_c, 11, 76, 84
12, 78526, Note_off_c, 11, 73, 53
12, 78526, Note_off_c, 11, 76, 53
12, 78528, Note_on_c, 11, 71, 84
12, 78528, Note_on_c, 11, 74, 84
12, 79102, Note_off_c, 11, 71, 53
12, 79102, Note_off_c, 11, 74, 53
12, 79104, Note_on_c, 11, 70, 84
12, 79104, Note_on_c, 11, 73, 84
12, 79484, Note_off_c, 11, 66, 53
12, 79488, Note_on_c, 11, 64, 84
12, 79676, Note_off_c, 11, 64, 53
12, 79678, Note_off_c, 11, 70, 53
12, 79678, Note_off_c, 11, 73, 53
12, 79680, Note_on_c, 11, 62, 84
12, 79680, Note_on_c, 11, 71, 84
12, 79680, Note_on_c, 11, 71, 84
12, 80060, Note_off_c, 11, 62, 53
12, 80064, Note_on_c, 11, 64, 84
12, 80252, Note_off_c, 11, 64, 53
12, 80254, Note_off_c, 11, 71, 53
12, 80256, Note_on_c, 11, 66, 84
12, 80256, Note_on_c, 11, 78, 84
12, 80638, Note_off_c, 11, 71, 53
12, 80640, Note_on_c, 11, 75, 84
12, 80828, Note_off_c, 11, 66, 53
12, 80830, Note_off_c, 11, 78, 53
12, 80830, Note_off_c, 11, 75, 53
12, 80832, Note_on_c, 11, 64, 84
12, 80832, Note_on_c, 11, 76, 84
12, 80832, Note_on_c, 11, 79, 84
12, 82556, Note_off_c, 11, 64, 53
12, 82558, Note_off_c, 11, 79, 53
12, 82560, Note_on_c, 11, 58, 84
12, 82560, Note_on_c, 11, 73, 84
12, 83132, Note_off_c, 11, 58, 53
12, 83134, Note_off_c, 11, 76, 53
12, 83134, Note_off_c, 11, 73, 53
12, 83136, Note_on_c, 11, 66, 84
12, 83136, Note_on_c, 11, 74, 84
12, 83136, Note_on_c, 11, 74, 84
12, 83708, Note_off_c, 11, 66, 53
12, 83710, Note_off_c, 11, 74, 53
12, 83710, Note_off_c, 11, 74, 53
12, 83712, Note_on_c, 11, 67, 84
12, 83712, Note_on_c, 11, 71, 84
12, 83712, Note_on_c, 11, 76, 84
12, 84284, Note_off_c, 11, 67, 53
12, 84286, Note_off_c, 11, 71, 53
12, 84286, Note_off_c, 11, 76, 53
12, 84288, Note_on_c, 11, 61, 84
12, 84288, Note_on_c, 11, 70, 84
12, 84288, Note_on_c, 11, 78, 84
12, 84476, Note_off_c, 11, 61, 53
12, 84478, Note_off_c, 11, 70, 53
12, 84480, Note_on_c, 11, 62, 84
12, 84480, Note_on_c, 11, 71, 84
12, 84668, Note_off_c, 11, 62, 53
12, 84670, Note_off_c, 11, 71, 53
12, 84672, Note_on_c, 11, 64, 84
12, 84672, Note_on_c, 11, 73, 84
12, 84860, Note_off_c, 11, 64, 53
12, 84862, Note_off_c, 11, 73, 53
12, 84864, Note_on_c, 11, 58, 84
12, 84864, Note_on_c, 11, 61, 84
12, 85052, Note_off_c, 11, 58, 53
12, 85054, Note_off_c, 11, 61, 53
12, 85056, Note_on_c, 11, 59, 84
12, 85056, Note_on_c, 11, 62, 84
12, 85244, Note_off_c, 11, 59, 53
12, 85246, Note_off_c, 11, 78, 53
12, 85246, Note_off_c, 11, 62, 53
12, 85248, Note_on_c, 11, 61, 84
12, 85248, Note_on_c, 11, 64, 84
12, 85248, Note_on_c, 11, 70, 84
12, 85436, Note_off_c, 11, 61, 53
12, 85438, Note_off_c, 11, 64, 53
12, 85438, Note_off_c, 11, 70, 53
12, 85440, Note_on_c, 11, 59, 84
12, 85440, Note_on_c, 11, 66, 84
12, 85440, Note_on_c, 11, 69, 84
12, 85486, Note_off_c, 11, 69, 53
12, 85488, Note_on_c, 11, 71, 84
12, 85534, Note_off_c, 11, 71, 53
12, 85536, Note_on_c, 11, 72, 84
12, 85628, Note_off_c, 11, 59, 53
12, 85630, Note_off_c, 11, 66, 53
12, 85632, Note_on_c, 11, 59, 84
12, 85632, Note_on_c, 11, 66, 84
12, 85728, Note_on_c, 11, 71, 84
12, 85820, Note_off_c, 11, 59, 53
12, 85822, Note_off_c, 11, 72, 53
12, 85822, Note_off_c, 11, 66, 53
12, 85822, Note_off_c, 11, 71, 53
12, 85824, Note_on_c, 11, 59, 84
12, 85824, Note_on_c, 11, 66, 84
12, 85824, Note_on_c, 11, 69, 84
12, 86012, Note_off_c, 11, 59, 53
12, 86014, Note_off_c, 11, 66, 53
12, 86014, Note_off_c, 11, 69, 53
12, 86016, Note_on_c, 11, 59, 84
12, 86016, Note_on_c, 11, 66, 84
12, 86016, Note_on_c, 11, 75, 84
12, 86204, Note_off_c, 11, 59, 53
12, 86206, Note_off_c, 11, 66, 53
12, 86208, Note_on_c, 11, 59, 84
12, 86208, Note_on_c, 11, 66, 84
12, 86302, Note_off_c, 11, 75, 53
12, 86304, Note_on_c, 11, 76, 84
12, 86396, Note_off_c, 11, 59, 53
12, 86398, Note_off_c, 11, 66, 53
12, 86398, Note_off_c, 11, 76, 53
12, 86400, Note_on_c, 11, 59, 84
12, 86400, Note_on_c, 11, 66, 84
12, 86400, Note_on_c, 11, 78, 84
12, 86588, Note_off_c, 11, 59, 53
12, 86590, Note_off_c, 11, 66, 53
12, 86590, Note_off_c, 11, 78, 53
12, 86592, Note_on_c, 11, 59, 84
12, 86592, Note_on_c, 11, 67, 84
12, 86592, Note_on_c, 11, 78, 84
12, 86780, Note_off_c, 11, 59, 53
12, 86782, Note_off_c, 11, 67, 53
12, 86782, Note_off_c, 11, 78, 53
12, 86784, Note_on_c, 11, 55, 84
12, 86784, Note_on_c, 11, 64, 84
12, 86784, Note_on_c, 11, 76, 84
12, 86972, Note_off_c, 11, 55, 53
12, 86974, Note_off_c, 11, 64, 53
12, 86976, Note_on_c, 11, 57, 84
12, 86976, Note_on_c, 11, 66, 84
12, 87164, Note_off_c, 11, 57, 53
12, 87166, Note_off_c, 11, 66, 53
12, 87168, Note_on_c, 11, 59, 84
12, 87168, Note_on_c, 11, 67, 84
12, 87356, Note_off_c, 11, 59, 53
12, 87358, Note_off_c, 11, 67, 53
12, 87360, Note_on_c, 11, 61, 84
12, 87360, Note_on_c, 11, 64, 84
12, 87548, Note_off_c, 11, 61, 53
12, 87550, Note_off_c, 11, 76, 53
12, 87550, Note_off_c, 11, 64, 53
12, 87552, Note_on_c, 11, 59, 84
12, 87552, Note_on_c, 11, 62, 84
12, 87552, Note_on_c, 11, 67, 84
12, 87740, Note_off_c, 11, 59, 53
12, 87742, Note_off_c, 11, 62, 53
12, 87744, Note_on_c, 11, 57, 84
12, 87744, Note_on_c, 11, 61, 84
12, 87932, Note_off_c, 11, 57, 53
12, 87934, Note_off_c, 11, 61, 53
12, 87936, Note_on_c, 11, 59, 84
12, 87936, Note_on_c, 11, 62, 84
12, 88030, Note_off_c, 11, 67, 53
12, 88032, Note_on_c, 11, 66, 84
12, 88124, Note_off_c, 11, 59, 53
12, 88126, Note_off_c, 11, 62, 53
12, 88126, Note_off_c, 11, 66, 53
12, 88128, Note_on_c, 11, 61, 84
12, 88128, Note_on_c, 11, 64, 84
12, 88128, Note_on_c, 11, 64, 84
12, 88316, Note_off_c, 11, 61, 53
12, 88318, Note_off_c, 11, 64, 53
12, 88320, Note_on_c, 11, 54, 84
12, 88320, Note_on_c, 11, 70, 84
12, 88508, Note_off_c, 11, 54, 53
12, 88510, Note_off_c, 11, 64, 53
12, 88512, Note_on_c, 11, 54, 84
12, 88512, Note_on_c, 11, 62, 84
12, 88606, Note_off_c, 11, 70, 53
12, 88608, Note_on_c, 11, 71, 84
12, 88700, Note_off_c, 11, 54, 53
12, 88702, Note_off_c, 11, 62, 53
12, 88702, Note_off_c, 11, 71, 53
12, 88704, Note_on_c, 11, 54, 84
12, 88704, Note_on_c, 11, 61, 84
12, 88704, Note_on_c, 11, 73, 84
12, 88892, Note_off_c, 11, 54, 53
12, 88894, Note_off_c, 11, 61, 53
12, 88894, Note_off_c, 11, 73, 53
12, 88896, Note_on_c, 11, 54, 84
12, 88896, Note_on_c, 11, 62, 84
12, 88896, Note_on_c, 11, 71, 84
12, 89084, Note_off_c, 11, 54, 53
12, 89086, Note_off_c, 11, 62, 53
12, 89088, Note_on_c, 11, 50, 84
12, 89088, Note_on_c, 11, 59, 84
12, 89276, Note_off_c, 11, 50, 53
12, 89278, Note_off_c, 11, 59, 53
12, 89280, Note_on_c, 11, 52, 84
12, 89280, Note_on_c, 11, 58, 84
12, 89408, Note_off_c, 11, 52, 53
12, 89408, Note_off_c, 11, 58, 53
12, 89472, Note_on_c, 11, 54, 84
12, 89472, Note_on_c, 11, 59, 84
12, 89660, Note_off_c, 11, 54, 53
12, 89662, Note_off_c, 11, 59, 53
12, 89664, Note_on_c, 11, 62, 84
12, 89664, Note_on_c, 11, 71, 84
12, 89852, Note_off_c, 11, 62, 53
12, 89854, Note_off_c, 11, 71, 53
12, 89854, Note_off_c, 11, 71, 53
12, 89856, Note_on_c, 11, 61, 84
12, 89856, Note_on_c, 11, 70, 84
12, 89856, Note_on_c, 11, 73, 84
12, 89984, Note_off_c, 11, 61, 53
12, 89984, Note_off_c, 11, 70, 53
12, 90046, Note_off_c, 11, 73, 53
12, 90048, Note_on_c, 11, 59, 84
12, 90048, Note_on_c, 11, 71, 84
12, 90048, Note_on_c, 11, 74, 84
12, 91390, Note_off_c, 11, 74, 53
12, 91392, Note_on_c, 11, 73, 84
12, 91582, Note_off_c, 11, 73, 53
12, 91584, Note_on_c, 11, 71, 84
12, 91772, Note_off_c, 11, 59, 53
12, 91774, Note_off_c, 11, 71, 53
12, 91774, Note_off_c, 11, 71, 53
12, 91776, Note_on_c, 11, 66, 84
12, 91776, Note_on_c, 11, 75, 84
12, 91776, Note_on_c, 11, 69, 84
12, 91964, Note_off_c, 11, 66, 53
12, 91966, Note_off_c, 11, 69, 53
12, 91968, Note_on_c, 11, 67, 84
12, 91968, Note_on_c, 11, 67, 84
12, 92156, Note_off_c, 11, 67, 53
12, 92158, Note_off_c, 11, 67, 53
12, 92160, Note_on_c, 11, 69, 84
12, 92160, Note_on_c, 11, 66, 84
12, 92348, Note_off_c, 11, 69, 53
12, 92350, Note_off_c, 11, 75, 53
12, 92350, Note_off_c, 11, 66, 53
12, 92352, Note_on_c, 11, 67, 84
12, 92352, Note_on_c, 11, 76, 84
12, 92352, Note_on_c, 11, 71, 84
12, 92924, Note_off_c, 11, 67, 53
12, 92926, Note_off_c, 11, 76, 53
12, 92928, Note_on_c, 11, 66, 84
12, 92928, Note_on_c, 11, 81, 84
12, 93310, Note_off_c, 11, 81, 53
12, 93312, Note_on_c, 11, 75, 84
12, 93500, Note_off_c, 11, 66, 53
12, 93502, Note_off_c, 11, 75, 53
12, 93504, Note_on_c, 11, 64, 84
12, 93504, Note_on_c, 11, 76, 84
12, 94078, Note_off_c, 11, 76, 53
12, 94080, Note_on_c, 11, 71, 84
12, 94654, Note_off_c, 11, 71, 53
12, 94654, Note_off_c, 11, 71, 53
12, 94656, Note_on_c, 11, 72, 84
12, 94656, Note_on_c, 11, 79, 84
12, 95230, Note_off_c, 11, 72, 53
12, 95232, Note_on_c, 11, 76, 84
12, 96382, Note_off_c, 11, 79, 53
12, 96384, Note_on_c, 11, 73, 84
12, 96574, Note_off_c, 11, 76, 53
12, 96576, Note_on_c, 11, 74, 84
12, 96764, Note_off_c, 11, 64, 53
12, 96766, Note_off_c, 11, 74, 53
12, 96768, Note_on_c, 11, 66, 84
12, 96768, Note_on_c, 11, 73, 84
12, 96956, Note_off_c, 11, 66, 53
12, 96958, Note_off_c, 11, 73, 53
12, 96958, Note_off_c, 11, 73, 53
12, 96960, Note_on_c, 11, 59, 84
12, 96960, Note_on_c, 11, 71, 84
12, 96960, Note_on_c, 11, 78, 84
12, 97534, Note_off_c, 11, 78, 53
12, 97536, Note_on_c, 11, 74, 84
12, 98108, Note_off_c, 11, 59, 53
12, 98110, Note_off_c, 11, 71, 53
12, 98110, Note_off_c, 11, 74, 53
12, 98112, Note_on_c, 11, 66, 84
12, 98112, Note_on_c, 11, 76, 84
12, 98112, Note_on_c, 11, 78, 84
12, 99068, Note_off_c, 11, 66, 53
12, 99070, Note_off_c, 11, 76, 53
12, 99070, Note_off_c, 11, 78, 53
12, 99264, Note_on_c, 11, 61, 84
12, 99264, Note_on_c, 11, 66, 84
12, 99264, Note_on_c, 11, 70, 84
12, 99452, Note_off_c, 11, 61, 53
12, 99454, Note_off_c, 11, 66, 53
12, 99454, Note_off_c, 11, 70, 53
12, 99456, Note_on_c, 11, 62, 84
12, 99456, Note_on_c, 11, 68, 84
12, 99456, Note_on_c, 11, 71, 84
12, 99644, Note_off_c, 11, 62, 53
12, 99646, Note_off_c, 11, 68, 53
12, 99646, Note_off_c, 11, 71, 53
12, 99648, Note_on_c, 11, 64, 84
12, 99648, Note_on_c, 11, 70, 84
12, 99648, Note_on_c, 11, 73, 84
12, 99836, Note_off_c, 11, 64, 53
12, 99838, Note_off_c, 11, 70, 53
12, 99838, Note_off_c, 11, 73, 53
12, 99840, Note_on_c, 11, 54, 84
12, 99840, Note_on_c, 11, 70, 84
12, 99840, Note_on_c, 11, 73, 84
12, 100028, Note_off_c, 11, 54, 53
12, 100030, Note_off_c, 11, 70, 53
12, 100030, Note_off_c, 11, 73, 53
12, 100032, Note_on_c, 11, 54, 84
12, 100032, Note_on_c, 11, 71, 84
12, 100032, Note_on_c, 11, 74, 84
12, 100220, Note_off_c, 11, 54, 53
12, 100222, Note_off_c, 11, 71, 53
12, 100222, Note_off_c, 11, 74, 53
12, 100224, Note_on_c, 11, 54, 84
12, 100224, Note_on_c, 11, 73, 84
12, 100224, Note_on_c, 11, 76, 84
12, 100412, Note_off_c, 11, 54, 53
12, 100414, Note_off_c, 11, 73, 53
12, 100414, Note_off_c, 11, 76, 53
12, 100416, Note_on_c, 11, 54, 84
12, 100416, Note_on_c, 11, 61, 84
12, 100416, Note_on_c, 11, 70, 84
12, 101326, Note_off_c, 11, 61, 53
12, 101326, Note_off_c, 11, 70, 53
12, 101372, Note_off_c, 11, 54, 53
12, 101568, Note_on_c, 11, 54, 84
12, 101568, Note_on_c, 11, 63, 84
12, 101568, Note_on_c, 11, 66, 84
12, 101756, Note_off_c, 11, 54, 53
12, 101758, Note_off_c, 11, 63, 53
12, 101758, Note_off_c, 11, 66, 53
12, 101760, Note_on_c, 11, 59, 84
12, 101760, Note_on_c, 11, 64, 84
12, 101760, Note_on_c, 11, 67, 84
12, 101948, Note_off_c, 11, 59, 53
12, 101950, Note_off_c, 11, 64, 53
12, 101950, Note_off_c, 11, 67, 53
12, 101952, Note_on_c, 11, 59, 84
12, 101952, Note_on_c, 11, 66, 84
12, 101952, Note_on_c, 11, 69, 84
12, 102140, Note_off_c, 11, 59, 53
12, 102142, Note_off_c, 11, 66, 53
12, 102142, Note_off_c, 11, 69, 53
12, 102144, Note_on_c, 11, 59, 84
12, 102144, Note_on_c, 11, 63, 84
12, 102144, Note_on_c, 11, 66, 84
12, 102332, Note_off_c, 11, 59, 53
12, 102334, Note_off_c, 11, 63, 53
12, 102334, Note_off_c, 11, 66, 53
12, 102336, Note_on_c, 11, 59, 84
12, 102336, Note_on_c, 11, 64, 84
12, 102336, Note_on_c, 11, 67, 84
12, 102524, Note_off_c, 11, 59, 53
12, 102526, Note_off_c, 11, 64, 53
12, 102526, Note_off_c, 11, 67, 53
12, 102528, Note_on_c, 11, 59, 84
12, 102528, Note_on_c, 11, 66, 84
12, 102528, Note_on_c, 11, 69, 84
12, 102716, Note_off_c, 11, 59, 53
12, 102718, Note_off_c, 11, 66, 53
12, 102718, Note_off_c, 11, 69, 53
12, 102720, Note_on_c, 11, 59, 84
12, 102720, Note_on_c, 11, 66, 84
12, 102720, Note_on_c, 11, 69, 84
12, 103630, Note_off_c, 11, 66, 53
12, 103676, Note_off_c, 11, 59, 53
12, 103678, Note_off_c, 11, 69, 53
12, 103872, Note_on_c, 11, 59, 84
12, 103872, Note_on_c, 11, 64, 84
12, 103872, Note_on_c, 11, 67, 84
12, 104444, Note_off_c, 11, 59, 53
12, 104446, Note_off_c, 11, 64, 53
12, 104446, Note_off_c, 11, 67, 53
12, 104448, Note_on_c, 11, 71, 84
12, 104448, Note_on_c, 11, 67, 84
12, 104448, Note_on_c, 11, 71, 84
12, 105020, Note_off_c, 11, 71, 53
12, 105022, Note_off_c, 11, 67, 53
12, 105022, Note_off_c, 11, 71, 53
12, 105024, Note_on_c, 11, 67, 84
12, 105024, Note_on_c, 11, 72, 84
12, 105024, Note_on_c, 11, 76, 84
12, 105598, Note_off_c, 11, 72, 53
12, 105598, Note_off_c, 11, 76, 53
12, 105600, Note_on_c, 11, 76, 84
12, 105600, Note_on_c, 11, 73, 84
12, 105694, Note_off_c, 11, 76, 53
12, 105694, Note_off_c, 11, 73, 53
12, 105696, Note_on_c, 11, 73, 84
12, 105696, Note_on_c, 11, 70, 84
12, 105718, Note_off_c, 11, 70, 53
12, 105720, Note_on_c, 11, 71, 84
12, 105742, Note_off_c, 11, 71, 53
12, 105744, Note_on_c, 11, 70, 84
12, 105766, Note_off_c, 11, 70, 53
12, 105768, Note_on_c, 11, 71, 84
12, 105788, Note_off_c, 11, 67, 53
12, 105790, Note_off_c, 11, 71, 53
12, 105792, Note_on_c, 11, 66, 84
12, 105792, Note_on_c, 11, 70, 84
12, 105814, Note_off_c, 11, 70, 53
12, 105816, Note_on_c, 11, 71, 84
12, 105838, Note_off_c, 11, 71, 53
12, 105840, Note_on_c, 11, 70, 84
12, 105862, Note_off_c, 11, 70, 53
12, 105864, Note_on_c, 11, 71, 84
12, 105886, Note_off_c, 11, 71, 53
12, 105888, Note_on_c, 11, 70, 84
12, 105910, Note_off_c, 11, 70, 53
12, 105912, Note_on_c, 11, 71, 84
12, 105934, Note_off_c, 11, 71, 53
12, 105936, Note_on_c, 11, 70, 84
12, 105958, Note_off_c, 11, 70, 53
12, 105960, Note_on_c, 11, 71, 84
12, 105982, Note_off_c, 11, 71, 53
12, 105984, Note_on_c, 11, 70, 84
12, 106006, Note_off_c, 11, 70, 53
12, 106008, Note_on_c, 11, 71, 84
12, 106030, Note_off_c, 11, 71, 53
12, 106032, Note_on_c, 11, 70, 84
12, 106054, Note_off_c, 11, 70, 53
12, 106056, Note_on_c, 11, 71, 84
12, 106078, Note_off_c, 11, 71, 53
12, 106080, Note_on_c, 11, 70, 84
12, 106102, Note_off_c, 11, 70, 53
12, 106104, Note_on_c, 11, 71, 84
12, 106126, Note_off_c, 11, 71, 53
12, 106128, Note_on_c, 11, 70, 84
12, 106150, Note_off_c, 11, 70, 53
12, 106152, Note_on_c, 11, 71, 84
12, 106174, Note_off_c, 11, 73, 53
12, 106174, Note_off_c, 11, 71, 53
12, 106176, Note_on_c, 11, 71, 84
12, 106176, Note_on_c, 11, 71, 84
12, 106364, Note_off_c, 11, 66, 53
12, 106366, Note_off_c, 11, 71, 53
12, 106366, Note_off_c, 11, 71, 53
12, 108480, Note_on_c, 11, 62, 84
12, 108480, Note_on_c, 11, 66, 84
12, 108480, Note_on_c, 11, 71, 84
12, 109630, Note_off_c, 11, 66, 53
12, 109632, Note_on_c, 11, 67, 84
12, 110204, Note_off_c, 11, 62, 53
12, 110206, Note_off_c, 11, 71, 53
12, 110206, Note_off_c, 11, 67, 53
12, 110208, Note_on_c, 11, 66, 84
12, 110208, Note_on_c, 11, 69, 84
12, 110208, Note_on_c, 11, 75, 84
12, 110780, Note_off_c, 11, 66, 53
12, 110782, Note_off_c, 11, 69, 53
12, 110782, Note_off_c, 11, 75, 53
12, 110784, Note_on_c, 11, 59, 84
12, 110784, Note_on_c, 11, 71, 84
12, 110784, Note_on_c, 11, 76, 84
12, 111356, Note_off_c, 11, 59, 53
12, 111358, Note_off_c, 11, 76, 53
12, 111360, Note_on_c, 11, 57, 84
12, 111360, Note_on_c, 11, 75, 84
12, 111932, Note_off_c, 11, 57, 53
12, 111934, Note_off_c, 11, 75, 53
12, 111936, Note_on_c, 11, 55, 84
12, 111936, Note_on_c, 11, 76, 84
12, 112508, Note_off_c, 11, 55, 53
12, 112512, Note_on_c, 11, 67, 84
12, 113084, Note_off_c, 11, 67, 53
12, 113086, Note_off_c, 11, 71, 53
12, 113086, Note_off_c, 11, 76, 53
12, 113088, Note_on_c, 11, 72, 84
12, 113088, Note_on_c, 11, 76, 84
12, 113088, Note_on_c, 11, 79, 84
12, 113660, Note_off_c, 11, 72, 53
12, 113664, Note_on_c, 11, 71, 84
12, 114236, Note_off_c, 11, 71, 53
12, 114240, Note_on_c, 11, 70, 84
12, 114812, Note_off_c, 11, 70, 53
12, 114814, Note_off_c, 11, 79, 53
12, 114816, Note_on_c, 11, 73, 84
12, 114816, Note_on_c, 11, 73, 84
12, 115388, Note_off_c, 11, 73, 53
12, 115390, Note_off_c, 11, 76, 53
12, 115390, Note_off_c, 11, 73, 53
12, 115392, Note_on_c, 11, 66, 84
12, 115392, Note_on_c, 11, 74, 84
12, 115392, Note_on_c, 11, 74, 84
12, 115964, Note_off_c, 11, 66, 53
12, 115966, Note_off_c, 11, 74, 53
12, 115966, Note_off_c, 11, 74, 53
12, 115968, Note_on_c, 11, 67, 84
12, 115968, Note_on_c, 11, 71, 84
12, 115968, Note_on_c, 11, 76, 84
12, 116540, Note_off_c, 11, 67, 53
12, 116542, Note_off_c, 11, 71, 53
12, 116542, Note_off_c, 11, 76, 53
12, 116544, Note_on_c, 11, 61, 84
12, 116544, Note_on_c, 11, 70, 84
12, 116544, Note_on_c, 11, 78, 84
12, 117500, Note_off_c, 11, 61, 53
12, 117502, Note_off_c, 11, 70, 53
12, 117502, Note_off_c, 11, 78, 53
12, 117696, Note_on_c, 11, 61, 84
12, 117696, Note_on_c, 11, 66, 84
12, 117696, Note_on_c, 11, 70, 84
12, 117884, Note_off_c, 11, 61, 53
12, 117886, Note_off_c, 11, 66, 53
12, 117886, Note_off_c, 11, 70, 53
12, 117888, Note_on_c, 11, 62, 84
12, 117888, Note_on_c, 11, 68, 84
12, 117888, Note_on_c, 11, 71, 84
12, 118076, Note_off_c, 11, 62, 53
12, 118078, Note_off_c, 11, 68, 53
12, 118078, Note_off_c, 11, 71, 53
12, 118080, Note_on_c, 11, 64, 84
12, 118080, Note_on_c, 11, 70, 84
12, 118080, Note_on_c, 11, 73, 84
12, 118268, Note_off_c, 11, 64, 53
12, 118270, Note_off_c, 11, 70, 53
12, 118270, Note_off_c, 11, 73, 53
12, 118272, Note_on_c, 11, 54, 84
12, 118272, Note_on_c, 11, 70, 84
12, 118272, Note_on_c, 11, 73, 84
12, 118460, Note_off_c, 11, 54, 53
12, 118462, Note_off_c, 11, 70, 53
12, 118462, Note_off_c, 11, 73, 53
12, 118464, Note_on_c, 11, 54, 84
12, 118464, Note_on_c, 11, 71, 84
12, 118464, Note_on_c, 11, 74, 84
12, 118652, Note_off_c, 11, 54, 53
12, 118654, Note_off_c, 11, 71, 53
12, 118654, Note_off_c, 11, 74, 53
12, 118656, Note_on_c, 11, 54, 84
12, 118656, Note_on_c, 11, 73, 84
12, 118656, Note_on_c, 11, 76, 84
12, 118844, Note_off_c, 11, 54, 53
12, 118846, Note_off_c, 11, 73, 53
12, 118846, Note_off_c, 11, 76, 53
12, 118848, Note_on_c, 11, 70, 84
12, 118848, Note_on_c, 11, 73, 84
12, 118848, Note_on_c, 11, 76, 84
12, 119804, Note_off_c, 11, 70, 53
12, 119806, Note_off_c, 11, 73, 53
12, 119806, Note_off_c, 11, 76, 53
12, 120000, Note_on_c, 11, 57, 84
12, 120000, Note_on_c, 11, 63, 84
12, 120000, Note_on_c, 11, 66, 84
12, 120188, Note_off_c, 11, 57, 53
12, 120190, Note_off_c, 11, 63, 53
12, 120190, Note_off_c, 11, 66, 53
12, 120192, Note_on_c, 11, 55, 84
12, 120192, Note_on_c, 11, 64, 84
12, 120192, Note_on_c, 11, 67, 84
12, 120380, Note_off_c, 11, 55, 53
12, 120382, Note_off_c, 11, 64, 53
12, 120382, Note_off_c, 11, 67, 53
12, 120384, Note_on_c, 11, 54, 84
12, 120384, Note_on_c, 11, 66, 84
12, 120384, Note_on_c, 11, 69, 84
12, 120572, Note_off_c, 11, 54, 53
12, 120574, Note_off_c, 11, 66, 53
12, 120574, Note_off_c, 11, 69, 53
12, 120576, Note_on_c, 11, 59, 84
12, 120576, Note_on_c, 11, 63, 84
12, 120576, Note_on_c, 11, 66, 84
12, 120764, Note_off_c, 11, 59, 53
12, 120766, Note_off_c, 11, 63, 53
12, 120766, Note_off_c, 11, 66, 53
12, 120768, Note_on_c, 11, 59, 84
12, 120768, Note_on_c, 11, 64, 84
12, 120768, Note_on_c, 11, 67, 84
12, 120956, Note_off_c, 11, 59, 53
12, 120958, Note_off_c, 11, 64, 53
12, 120958, Note_off_c, 11, 67, 53
12, 120960, Note_on_c, 11, 59, 84
12, 120960, Note_on_c, 11, 66, 84
12, 120960, Note_on_c, 11, 69, 84
12, 121148, Note_off_c, 11, 59, 53
12, 121150, Note_off_c, 11, 66, 53
12, 121150, Note_off_c, 11, 69, 53
12, 121152, Note_on_c, 11, 63, 84
12, 121152, Note_on_c, 11, 66, 84
12, 121152, Note_on_c, 11, 69, 84
12, 122108, Note_off_c, 11, 63, 53
12, 122110, Note_off_c, 11, 66, 53
12, 122110, Note_off_c, 11, 69, 53
12, 122304, Note_on_c, 11, 59, 84
12, 122304, Note_on_c, 11, 64, 84
12, 122304, Note_on_c, 11, 67, 84
12, 122876, Note_off_c, 11, 59, 53
12, 122878, Note_off_c, 11, 64, 53
12, 122878, Note_off_c, 11, 67, 53
12, 122880, Note_on_c, 11, 64, 84
12, 122880, Note_on_c, 11, 67, 84
12, 122880, Note_on_c, 11, 71, 84
12, 123452, Note_off_c, 11, 64, 53
12, 123454, Note_off_c, 11, 67, 53
12, 123454, Note_off_c, 11, 71, 53
12, 123456, Note_on_c, 11, 67, 84
12, 123456, Note_on_c, 11, 72, 84
12, 123456, Note_on_c, 11, 76, 84
12, 124028, Note_off_c, 11, 67, 53
12, 124030, Note_off_c, 11, 72, 53
12, 124030, Note_off_c, 11, 76, 53
12, 124032, Note_on_c, 11, 61, 84
12, 124032, Note_on_c, 11, 76, 84
12, 124032, Note_on_c, 11, 79, 84
12, 124220, Note_off_c, 11, 61, 53
12, 124222, Note_off_c, 11, 76, 53
12, 124222, Note_off_c, 11, 79, 53
12, 124224, Note_on_c, 11, 70, 84
12, 124224, Note_on_c, 11, 73, 84
12, 124224, Note_on_c, 11, 78, 84
12, 124604, Note_off_c, 11, 70, 53
12, 124606, Note_off_c, 11, 73, 53
12, 124608, Note_on_c, 11, 71, 84
12, 124608, Note_on_c, 11, 74, 84
12, 124796, Note_off_c, 11, 71, 53
12, 124798, Note_off_c, 11, 78, 53
12, 124798, Note_off_c, 11, 74, 53
12, 124800, Note_on_c, 11, 64, 84
12, 124800, Note_on_c, 11, 69, 84
12, 124800, Note_on_c, 11, 76, 84
12, 124988, Note_off_c, 11, 64, 53
12, 124990, Note_off_c, 11, 69, 53
12, 124990, Note_off_c, 11, 76, 53
12, 124992, Note_on_c, 11, 66, 84
12, 124992, Note_on_c, 11, 71, 84
12, 124992, Note_on_c, 11, 74, 84
12, 125180, Note_off_c, 11, 66, 53
12, 125182, Note_off_c, 11, 74, 53
12, 125184, Note_on_c, 11, 61, 84
12, 125184, Note_on_c, 11, 76, 84
12, 125312, Note_off_c, 11, 61, 53
12, 125312, Note_off_c, 11, 76, 53
12, 125374, Note_off_c, 11, 71, 53
12, 125376, Note_on_c, 11, 62, 84
12, 125376, Note_on_c, 11, 71, 84
12, 125376, Note_on_c, 11, 74, 84
12, 125504, Note_off_c, 11, 62, 53
12, 125504, Note_off_c, 11, 71, 53
12, 125504, Note_off_c, 11, 74, 53
12, 125568, Note_on_c, 11, 64, 84
12, 125568, Note_on_c, 11, 69, 84
12, 125568, Note_on_c, 11, 73, 84
12, 125696, Note_off_c, 11, 64, 53
12, 125696, Note_off_c, 11, 69, 53
12, 125696, Note_off_c, 11, 73, 53
12, 125760, Note_on_c, 11, 62, 84
12, 125760, Note_on_c, 11, 66, 84
12, 125760, Note_on_c, 11, 71, 84
12, 125948, Note_off_c, 11, 62, 53
12, 125950, Note_off_c, 11, 66, 53
12, 125950, Note_off_c, 11, 71, 53
12, 125952, Note_on_c, 11, 64, 84
12, 125952, Note_on_c, 11, 69, 84
12, 125952, Note_on_c, 11, 73, 84
12, 126140, Note_off_c, 11, 64, 53
12, 126142, Note_off_c, 11, 69, 53
12, 126142, Note_off_c, 11, 73, 53
12, 126144, Note_on_c, 11, 66, 84
12, 126144, Note_on_c, 11, 71, 84
12, 126144, Note_on_c, 11, 74, 84
12, 126332, Note_off_c, 11, 66, 53
12, 126334, Note_off_c, 11, 71, 53
12, 126334, Note_off_c, 11, 74, 53
12, 126336, Note_on_c, 11, 64, 84
12, 126336, Note_on_c, 11, 69, 84
12, 126336, Note_on_c, 11, 73, 84
12, 126524, Note_off_c, 11, 64, 53
12, 126526, Note_off_c, 11, 69, 53
12, 126526, Note_off_c, 11, 73, 53
12, 126528, Note_on_c, 11, 66, 84
12, 126528, Note_on_c, 11, 71, 84
12, 126528, Note_on_c, 11, 74, 84
12, 126716, Note_off_c, 11, 66, 53
12, 126718, Note_off_c, 11, 71, 53
12, 126718, Note_off_c, 11, 74, 53
12, 126720, Note_on_c, 11, 58, 84
12, 126720, Note_on_c, 11, 73, 84
12, 126720, Note_on_c, 11, 76, 84
12, 126908, Note_off_c, 11, 58, 53
12, 126910, Note_off_c, 11, 73, 53
12, 126910, Note_off_c, 11, 76, 53
12, 126912, Note_on_c, 11, 59, 84
12, 126912, Note_on_c, 11, 71, 84
12, 126912, Note_on_c, 11, 66, 84
12, 128060, Note_off_c, 11, 59, 53
12, 128060, Note_off_c, 11, 71, 53
12, 128060, Note_off_c, 11, 66, 53
12, 128060, End_track
13, 0, Start_track
13, 0, Title_t, "Bass Strings"
13, 0, Control_c, 12, 0, 0
13, 0, Program_c, 12, 48
13, 0, Control_c, 12, 10, 63
13, 0, Key_signature, 0, "major"
13, 0, Control_c, 12, 7, 127
13, 0, Note_on_c, 12, 35, 84
13, 0, Note_on_c, 12, 47, 84
13, 190, Note_off_c, 12, 35, 53
13, 190, Note_off_c, 12, 47, 53
13, 192, Note_on_c, 12, 47, 84
13, 192, Note_on_c, 12, 59, 84
13, 382, Note_off_c, 12, 47, 53
13, 382, Note_off_c, 12, 59, 53
13, 384, Note_on_c, 12, 47, 84
13, 384, Note_on_c, 12, 59, 84
13, 574, Note_off_c, 12, 47, 53
13, 574, Note_off_c, 12, 59, 53
13, 576, Note_on_c, 12, 47, 84
13, 576, Note_on_c, 12, 59, 84
13, 766, Note_off_c, 12, 47, 53
13, 766, Note_off_c, 12, 59, 53
13, 768, Note_on_c, 12, 45, 84
13, 768, Note_on_c, 12, 57, 84
13, 958, Note_off_c, 12, 45, 53
13, 958, Note_off_c, 12, 57, 53
13, 960, Note_on_c, 12, 45, 84
13, 960, Note_on_c, 12, 57, 84
13, 1150, Note_off_c, 12, 45, 53
13, 1150, Note_off_c, 12, 57, 53
13, 1152, Note_on_c, 12, 45, 84
13, 1152, Note_on_c, 12, 57, 84
13, 1342, Note_off_c, 12, 45, 53
13, 1342, Note_off_c, 12, 57, 53
13, 1344, Note_on_c, 12, 43, 84
13, 1344, Note_on_c, 12, 55, 84
13, 1534, Note_off_c, 12, 43, 53
13, 1534, Note_off_c, 12, 55, 53
13, 1536, Note_on_c, 12, 43, 84
13, 1536, Note_on_c, 12, 55, 84
13, 1726, Note_off_c, 12, 43, 53
13, 1726, Note_off_c, 12, 55, 53
13, 1728, Note_on_c, 12, 43, 84
13, 1728, Note_on_c, 12, 55, 84
13, 1918, Note_off_c, 12, 43, 53
13, 1918, Note_off_c, 12, 55, 53
13, 1920, Note_on_c, 12, 42, 84
13, 1920, Note_on_c, 12, 54, 84
13, 2110, Note_off_c, 12, 42, 53
13, 2110, Note_off_c, 12, 54, 53
13, 2112, Note_on_c, 12, 42, 84
13, 2112, Note_on_c, 12, 54, 84
13, 2302, Note_off_c, 12, 42, 53
13, 2302, Note_off_c, 12, 54, 53
13, 2304, Note_on_c, 12, 42, 84
13, 2304, Note_on_c, 12, 54, 84
13, 2494, Note_off_c, 12, 42, 53
13, 2494, Note_off_c, 12, 54, 53
13, 2496, Note_on_c, 12, 40, 84
13, 2496, Note_on_c, 12, 52, 84
13, 2686, Note_off_c, 12, 40, 53
13, 2686, Note_off_c, 12, 52, 53
13, 2688, Note_on_c, 12, 40, 84
13, 2688, Note_on_c, 12, 52, 84
13, 2878, Note_off_c, 12, 40, 53
13, 2878, Note_off_c, 12, 52, 53
13, 2880, Note_on_c, 12, 40, 84
13, 2880, Note_on_c, 12, 52, 84
13, 3070, Note_off_c, 12, 40, 53
13, 3070, Note_off_c, 12, 52, 53
13, 3072, Note_on_c, 12, 42, 84
13, 3072, Note_on_c, 12, 54, 84
13, 3262, Note_off_c, 12, 42, 53
13, 3262, Note_off_c, 12, 54, 53
13, 3264, Note_on_c, 12, 42, 84
13, 3264, Note_on_c, 12, 54, 84
13, 3454, Note_off_c, 12, 42, 53
13, 3454, Note_off_c, 12, 54, 53
13, 3456, Note_on_c, 12, 42, 84
13, 3456, Note_on_c, 12, 54, 84
13, 3646, Note_off_c, 12, 42, 53
13, 3646, Note_off_c, 12, 54, 53
13, 3648, Note_on_c, 12, 43, 84
13, 3648, Note_on_c, 12, 55, 84
13, 3838, Note_off_c, 12, 43, 53
13, 3838, Note_off_c, 12, 55, 53
13, 3840, Note_on_c, 12, 40, 84
13, 3840, Note_on_c, 12, 52, 84
13, 4030, Note_off_c, 12, 40, 53
13, 4030, Note_off_c, 12, 52, 53
13, 4032, Note_on_c, 12, 43, 84
13, 4032, Note_on_c, 12, 55, 84
13, 4222, Note_off_c, 12, 43, 53
13, 4222, Note_off_c, 12, 55, 53
13, 4224, Note_on_c, 12, 47, 84
13, 4224, Note_on_c, 12, 59, 84
13, 4414, Note_off_c, 12, 47, 53
13, 4414, Note_off_c, 12, 59, 53
13, 4416, Note_on_c, 12, 43, 84
13, 4416, Note_on_c, 12, 55, 84
13, 4606, Note_off_c, 12, 43, 53
13, 4606, Note_off_c, 12, 55, 53
13, 4608, Note_on_c, 12, 47, 84
13, 4608, Note_on_c, 12, 59, 84
13, 4798, Note_off_c, 12, 47, 53
13, 4798, Note_off_c, 12, 59, 53
13, 4800, Note_on_c, 12, 52, 84
13, 4800, Note_on_c, 12, 64, 84
13, 4990, Note_off_c, 12, 52, 53
13, 4990, Note_off_c, 12, 64, 53
13, 4992, Note_on_c, 12, 52, 84
13, 4992, Note_on_c, 12, 64, 84
13, 5182, Note_off_c, 12, 52, 53
13, 5182, Note_off_c, 12, 64, 53
13, 5184, Note_on_c, 12, 52, 84
13, 5184, Note_on_c, 12, 64, 84
13, 5374, Note_off_c, 12, 52, 53
13, 5374, Note_off_c, 12, 64, 53
13, 5376, Note_on_c, 12, 50, 84
13, 5376, Note_on_c, 12, 62, 84
13, 5566, Note_off_c, 12, 50, 53
13, 5566, Note_off_c, 12, 62, 53
13, 5568, Note_on_c, 12, 50, 84
13, 5568, Note_on_c, 12, 62, 84
13, 5758, Note_off_c, 12, 50, 53
13, 5758, Note_off_c, 12, 62, 53
13, 5760, Note_on_c, 12, 50, 84
13, 5760, Note_on_c, 12, 62, 84
13, 5950, Note_off_c, 12, 50, 53
13, 5950, Note_off_c, 12, 62, 53
13, 5952, Note_on_c, 12, 49, 84
13, 5952, Note_on_c, 12, 61, 84
13, 6142, Note_off_c, 12, 49, 53
13, 6142, Note_off_c, 12, 61, 53
13, 6144, Note_on_c, 12, 49, 84
13, 6144, Note_on_c, 12, 61, 84
13, 6334, Note_off_c, 12, 49, 53
13, 6334, Note_off_c, 12, 61, 53
13, 6336, Note_on_c, 12, 49, 84
13, 6336, Note_on_c, 12, 61, 84
13, 6526, Note_off_c, 12, 49, 53
13, 6526, Note_off_c, 12, 61, 53
13, 6528, Note_on_c, 12, 46, 84
13, 6528, Note_on_c, 12, 58, 84
13, 6718, Note_off_c, 12, 46, 53
13, 6718, Note_off_c, 12, 58, 53
13, 6720, Note_on_c, 12, 46, 84
13, 6720, Note_on_c, 12, 58, 84
13, 6910, Note_off_c, 12, 46, 53
13, 6910, Note_off_c, 12, 58, 53
13, 6912, Note_on_c, 12, 46, 84
13, 6912, Note_on_c, 12, 58, 84
13, 7102, Note_off_c, 12, 46, 53
13, 7102, Note_off_c, 12, 58, 53
13, 7104, Note_on_c, 12, 47, 84
13, 7104, Note_on_c, 12, 59, 84
13, 7294, Note_off_c, 12, 47, 53
13, 7294, Note_off_c, 12, 59, 53
13, 7296, Note_on_c, 12, 47, 84
13, 7296, Note_on_c, 12, 59, 84
13, 7486, Note_off_c, 12, 47, 53
13, 7486, Note_off_c, 12, 59, 53
13, 7488, Note_on_c, 12, 47, 84
13, 7488, Note_on_c, 12, 59, 84
13, 7678, Note_off_c, 12, 47, 53
13, 7678, Note_off_c, 12, 59, 53
13, 7680, Note_on_c, 12, 43, 84
13, 7680, Note_on_c, 12, 55, 84
13, 7870, Note_off_c, 12, 43, 53
13, 7870, Note_off_c, 12, 55, 53
13, 7872, Note_on_c, 12, 43, 84
13, 7872, Note_on_c, 12, 55, 84
13, 8062, Note_off_c, 12, 43, 53
13, 8062, Note_off_c, 12, 55, 53
13, 8064, Note_on_c, 12, 43, 84
13, 8064, Note_on_c, 12, 55, 84
13, 8254, Note_off_c, 12, 43, 53
13, 8254, Note_off_c, 12, 55, 53
13, 8256, Note_on_c, 12, 42, 84
13, 8256, Note_on_c, 12, 54, 84
13, 8446, Note_off_c, 12, 42, 53
13, 8446, Note_off_c, 12, 54, 53
13, 8448, Note_on_c, 12, 37, 84
13, 8448, Note_on_c, 12, 49, 84
13, 8638, Note_off_c, 12, 37, 53
13, 8638, Note_off_c, 12, 49, 53
13, 8640, Note_on_c, 12, 40, 84
13, 8640, Note_on_c, 12, 52, 84
13, 8830, Note_off_c, 12, 40, 53
13, 8830, Note_off_c, 12, 52, 53
13, 8832, Note_on_c, 12, 40, 84
13, 8832, Note_on_c, 12, 52, 84
13, 9022, Note_off_c, 12, 40, 53
13, 9022, Note_off_c, 12, 52, 53
13, 9024, Note_on_c, 12, 34, 84
13, 9024, Note_on_c, 12, 46, 84
13, 9214, Note_off_c, 12, 34, 53
13, 9214, Note_off_c, 12, 46, 53
13, 9216, Note_on_c, 12, 37, 84
13, 9216, Note_on_c, 12, 49, 84
13, 9406, Note_off_c, 12, 37, 53
13, 9406, Note_off_c, 12, 49, 53
13, 9408, Note_on_c, 12, 30, 84
13, 9408, Note_on_c, 12, 42, 84
13, 10172, Note_off_c, 12, 30, 53
13, 10172, Note_off_c, 12, 42, 53
13, 11712, Note_on_c, 12, 30, 84
13, 11712, Note_on_c, 12, 42, 84
13, 12092, Note_off_c, 12, 30, 53
13, 12092, Note_off_c, 12, 42, 53
13, 12096, Note_on_c, 12, 30, 84
13, 12096, Note_on_c, 12, 42, 84
13, 12476, Note_off_c, 12, 30, 53
13, 12476, Note_off_c, 12, 42, 53
13, 12480, Note_on_c, 12, 30, 84
13, 12480, Note_on_c, 12, 42, 84
13, 12860, Note_off_c, 12, 30, 53
13, 12860, Note_off_c, 12, 42, 53
13, 12864, Note_on_c, 12, 30, 84
13, 12864, Note_on_c, 12, 42, 84
13, 13244, Note_off_c, 12, 30, 53
13, 13244, Note_off_c, 12, 42, 53
13, 13248, Note_on_c, 12, 30, 84
13, 13248, Note_on_c, 12, 42, 84
13, 13628, Note_off_c, 12, 30, 53
13, 13628, Note_off_c, 12, 42, 53
13, 13632, Note_on_c, 12, 30, 84
13, 13632, Note_on_c, 12, 42, 84
13, 14012, Note_off_c, 12, 30, 53
13, 14012, Note_off_c, 12, 42, 53
13, 14016, Note_on_c, 12, 35, 84
13, 14016, Note_on_c, 12, 47, 84
13, 14398, Note_off_c, 12, 35, 53
13, 14398, Note_off_c, 12, 47, 53
13, 15168, Note_on_c, 12, 35, 84
13, 15168, Note_on_c, 12, 47, 84
13, 15358, Note_off_c, 12, 35, 53
13, 15358, Note_off_c, 12, 47, 53
13, 15360, Note_on_c, 12, 35, 84
13, 15360, Note_on_c, 12, 47, 84
13, 15550, Note_off_c, 12, 35, 53
13, 15550, Note_off_c, 12, 47, 53
13, 15552, Note_on_c, 12, 35, 84
13, 15552, Note_on_c, 12, 47, 84
13, 15742, Note_off_c, 12, 35, 53
13, 15742, Note_off_c, 12, 47, 53
13, 15744, Note_on_c, 12, 35, 84
13, 15744, Note_on_c, 12, 47, 84
13, 15934, Note_off_c, 12, 35, 53
13, 15934, Note_off_c, 12, 47, 53
13, 15936, Note_on_c, 12, 35, 84
13, 15936, Note_on_c, 12, 47, 84
13, 16126, Note_off_c, 12, 35, 53
13, 16126, Note_off_c, 12, 47, 53
13, 16128, Note_on_c, 12, 35, 84
13, 16128, Note_on_c, 12, 47, 84
13, 16318, Note_off_c, 12, 35, 53
13, 16318, Note_off_c, 12, 47, 53
13, 16320, Note_on_c, 12, 28, 84
13, 16320, Note_on_c, 12, 40, 84
13, 16510, Note_off_c, 12, 28, 53
13, 16510, Note_off_c, 12, 40, 53
13, 16512, Note_on_c, 12, 28, 84
13, 16512, Note_on_c, 12, 40, 84
13, 16702, Note_off_c, 12, 28, 53
13, 16702, Note_off_c, 12, 40, 53
13, 16704, Note_on_c, 12, 28, 84
13, 16704, Note_on_c, 12, 40, 84
13, 16894, Note_off_c, 12, 28, 53
13, 16894, Note_off_c, 12, 40, 53
13, 16896, Note_on_c, 12, 28, 84
13, 16896, Note_on_c, 12, 40, 84
13, 17086, Note_off_c, 12, 28, 53
13, 17086, Note_off_c, 12, 40, 53
13, 17088, Note_on_c, 12, 28, 84
13, 17088, Note_on_c, 12, 40, 84
13, 17278, Note_off_c, 12, 28, 53
13, 17278, Note_off_c, 12, 40, 53
13, 17280, Note_on_c, 12, 28, 84
13, 17280, Note_on_c, 12, 40, 84
13, 17470, Note_off_c, 12, 28, 53
13, 17470, Note_off_c, 12, 40, 53
13, 17472, Note_on_c, 12, 28, 84
13, 17472, Note_on_c, 12, 40, 84
13, 17662, Note_off_c, 12, 28, 53
13, 17662, Note_off_c, 12, 40, 53
13, 17664, Note_on_c, 12, 28, 84
13, 17664, Note_on_c, 12, 40, 84
13, 17854, Note_off_c, 12, 28, 53
13, 17854, Note_off_c, 12, 40, 53
13, 17856, Note_on_c, 12, 28, 84
13, 17856, Note_on_c, 12, 40, 84
13, 18046, Note_off_c, 12, 28, 53
13, 18046, Note_off_c, 12, 40, 53
13, 18048, Note_on_c, 12, 28, 84
13, 18048, Note_on_c, 12, 40, 84
13, 18238, Note_off_c, 12, 28, 53
13, 18238, Note_off_c, 12, 40, 53
13, 18240, Note_on_c, 12, 28, 84
13, 18240, Note_on_c, 12, 40, 84
13, 18430, Note_off_c, 12, 28, 53
13, 18430, Note_off_c, 12, 40, 53
13, 18432, Note_on_c, 12, 40, 84
13, 18432, Note_on_c, 12, 52, 84
13, 18622, Note_off_c, 12, 40, 53
13, 18622, Note_off_c, 12, 52, 53
13, 18624, Note_on_c, 12, 38, 84
13, 18624, Note_on_c, 12, 50, 84
13, 18814, Note_off_c, 12, 38, 53
13, 18814, Note_off_c, 12, 50, 53
13, 18816, Note_on_c, 12, 37, 84
13, 18816, Note_on_c, 12, 49, 84
13, 19006, Note_off_c, 12, 37, 53
13, 19006, Note_off_c, 12, 49, 53
13, 19008, Note_on_c, 12, 35, 84
13, 19008, Note_on_c, 12, 47, 84
13, 19198, Note_off_c, 12, 35, 53
13, 19198, Note_off_c, 12, 47, 53
13, 19200, Note_on_c, 12, 42, 84
13, 19200, Note_on_c, 12, 54, 84
13, 19390, Note_off_c, 12, 42, 53
13, 19390, Note_off_c, 12, 54, 53
13, 19392, Note_on_c, 12, 30, 84
13, 19392, Note_on_c, 12, 42, 84
13, 19582, Note_off_c, 12, 30, 53
13, 19582, Note_off_c, 12, 42, 53
13, 19584, Note_on_c, 12, 30, 84
13, 19584, Note_on_c, 12, 42, 84
13, 19774, Note_off_c, 12, 30, 53
13, 19774, Note_off_c, 12, 42, 53
13, 19776, Note_on_c, 12, 35, 84
13, 19776, Note_on_c, 12, 47, 84
13, 20734, Note_off_c, 12, 35, 53
13, 20734, Note_off_c, 12, 47, 53
13, 20736, Note_on_c, 12, 35, 84
13, 20736, Note_on_c, 12, 47, 84
13, 20926, Note_off_c, 12, 35, 53
13, 20926, Note_off_c, 12, 47, 53
13, 20928, Note_on_c, 12, 47, 84
13, 20928, Note_on_c, 12, 59, 84
13, 21116, Note_off_c, 12, 47, 53
13, 21116, Note_off_c, 12, 59, 53
13, 21120, Note_on_c, 12, 47, 84
13, 21120, Note_on_c, 12, 59, 84
13, 21308, Note_off_c, 12, 47, 53
13, 21308, Note_off_c, 12, 59, 53
13, 21312, Note_on_c, 12, 47, 84
13, 21312, Note_on_c, 12, 59, 84
13, 21500, Note_off_c, 12, 47, 53
13, 21500, Note_off_c, 12, 59, 53
13, 21504, Note_on_c, 12, 45, 84
13, 21504, Note_on_c, 12, 57, 84
13, 21692, Note_off_c, 12, 45, 53
13, 21692, Note_off_c, 12, 57, 53
13, 21696, Note_on_c, 12, 45, 84
13, 21696, Note_on_c, 12, 57, 84
13, 21884, Note_off_c, 12, 45, 53
13, 21884, Note_off_c, 12, 57, 53
13, 21888, Note_on_c, 12, 45, 84
13, 21888, Note_on_c, 12, 57, 84
13, 22076, Note_off_c, 12, 45, 53
13, 22076, Note_off_c, 12, 57, 53
13, 22080, Note_on_c, 12, 43, 84
13, 22080, Note_on_c, 12, 55, 84
13, 22268, Note_off_c, 12, 43, 53
13, 22268, Note_off_c, 12, 55, 53
13, 22272, Note_on_c, 12, 43, 84
13, 22272, Note_on_c, 12, 55, 84
13, 22460, Note_off_c, 12, 43, 53
13, 22460, Note_off_c, 12, 55, 53
13, 22464, Note_on_c, 12, 43, 84
13, 22464, Note_on_c, 12, 55, 84
13, 22652, Note_off_c, 12, 43, 53
13, 22652, Note_off_c, 12, 55, 53
13, 22656, Note_on_c, 12, 42, 84
13, 22656, Note_on_c, 12, 54, 84
13, 22844, Note_off_c, 12, 42, 53
13, 22844, Note_off_c, 12, 54, 53
13, 22848, Note_on_c, 12, 42, 84
13, 22848, Note_on_c, 12, 54, 84
13, 23036, Note_off_c, 12, 42, 53
13, 23036, Note_off_c, 12, 54, 53
13, 23040, Note_on_c, 12, 42, 84
13, 23040, Note_on_c, 12, 54, 84
13, 23228, Note_off_c, 12, 42, 53
13, 23228, Note_off_c, 12, 54, 53
13, 23232, Note_on_c, 12, 40, 84
13, 23232, Note_on_c, 12, 52, 84
13, 23420, Note_off_c, 12, 40, 53
13, 23420, Note_off_c, 12, 52, 53
13, 23424, Note_on_c, 12, 40, 84
13, 23424, Note_on_c, 12, 52, 84
13, 23612, Note_off_c, 12, 40, 53
13, 23612, Note_off_c, 12, 52, 53
13, 23616, Note_on_c, 12, 40, 84
13, 23616, Note_on_c, 12, 52, 84
13, 23804, Note_off_c, 12, 40, 53
13, 23804, Note_off_c, 12, 52, 53
13, 23808, Note_on_c, 12, 40, 84
13, 23808, Note_on_c, 12, 52, 84
13, 23996, Note_off_c, 12, 40, 53
13, 23996, Note_off_c, 12, 52, 53
13, 24000, Note_on_c, 12, 40, 84
13, 24000, Note_on_c, 12, 52, 84
13, 24188, Note_off_c, 12, 40, 53
13, 24188, Note_off_c, 12, 52, 53
13, 24192, Note_on_c, 12, 40, 84
13, 24192, Note_on_c, 12, 52, 84
13, 24380, Note_off_c, 12, 40, 53
13, 24380, Note_off_c, 12, 52, 53
13, 24384, Note_on_c, 12, 40, 84
13, 24384, Note_on_c, 12, 52, 84
13, 24572, Note_off_c, 12, 40, 53
13, 24572, Note_off_c, 12, 52, 53
13, 24576, Note_on_c, 12, 40, 84
13, 24576, Note_on_c, 12, 52, 84
13, 24764, Note_off_c, 12, 40, 53
13, 24764, Note_off_c, 12, 52, 53
13, 24768, Note_on_c, 12, 40, 84
13, 24768, Note_on_c, 12, 52, 84
13, 24956, Note_off_c, 12, 40, 53
13, 24956, Note_off_c, 12, 52, 53
13, 24960, Note_on_c, 12, 40, 84
13, 24960, Note_on_c, 12, 52, 84
13, 25148, Note_off_c, 12, 40, 53
13, 25148, Note_off_c, 12, 52, 53
13, 25152, Note_on_c, 12, 40, 84
13, 25152, Note_on_c, 12, 52, 84
13, 25340, Note_off_c, 12, 40, 53
13, 25340, Note_off_c, 12, 52, 53
13, 25344, Note_on_c, 12, 40, 84
13, 25344, Note_on_c, 12, 52, 84
13, 25532, Note_off_c, 12, 40, 53
13, 25532, Note_off_c, 12, 52, 53
13, 25536, Note_on_c, 12, 40, 84
13, 25536, Note_on_c, 12, 52, 84
13, 25724, Note_off_c, 12, 40, 53
13, 25724, Note_off_c, 12, 52, 53
13, 25728, Note_on_c, 12, 40, 84
13, 25728, Note_on_c, 12, 52, 84
13, 25916, Note_off_c, 12, 40, 53
13, 25916, Note_off_c, 12, 52, 53
13, 25920, Note_on_c, 12, 40, 84
13, 25920, Note_on_c, 12, 52, 84
13, 26108, Note_off_c, 12, 40, 53
13, 26108, Note_off_c, 12, 52, 53
13, 26112, Note_on_c, 12, 38, 84
13, 26112, Note_on_c, 12, 50, 84
13, 26300, Note_off_c, 12, 38, 53
13, 26300, Note_off_c, 12, 50, 53
13, 26304, Note_on_c, 12, 38, 84
13, 26304, Note_on_c, 12, 50, 84
13, 26492, Note_off_c, 12, 38, 53
13, 26492, Note_off_c, 12, 50, 53
13, 26496, Note_on_c, 12, 38, 84
13, 26496, Note_on_c, 12, 50, 84
13, 26684, Note_off_c, 12, 38, 53
13, 26684, Note_off_c, 12, 50, 53
13, 26688, Note_on_c, 12, 37, 84
13, 26688, Note_on_c, 12, 49, 84
13, 26876, Note_off_c, 12, 37, 53
13, 26876, Note_off_c, 12, 49, 53
13, 26880, Note_on_c, 12, 37, 84
13, 26880, Note_on_c, 12, 49, 84
13, 27068, Note_off_c, 12, 37, 53
13, 27068, Note_off_c, 12, 49, 53
13, 27072, Note_on_c, 12, 37, 84
13, 27072, Note_on_c, 12, 49, 84
13, 27260, Note_off_c, 12, 37, 53
13, 27260, Note_off_c, 12, 49, 53
13, 27264, Note_on_c, 12, 34, 84
13, 27264, Note_on_c, 12, 46, 84
13, 27452, Note_off_c, 12, 34, 53
13, 27452, Note_off_c, 12, 46, 53
13, 27456, Note_on_c, 12, 34, 84
13, 27456, Note_on_c, 12, 46, 84
13, 27644, Note_off_c, 12, 34, 53
13, 27644, Note_off_c, 12, 46, 53
13, 27648, Note_on_c, 12, 34, 84
13, 27648, Note_on_c, 12, 46, 84
13, 27836, Note_off_c, 12, 34, 53
13, 27836, Note_off_c, 12, 46, 53
13, 27840, Note_on_c, 12, 35, 84
13, 27840, Note_on_c, 12, 47, 84
13, 28028, Note_off_c, 12, 35, 53
13, 28028, Note_off_c, 12, 47, 53
13, 28032, Note_on_c, 12, 35, 84
13, 28032, Note_on_c, 12, 47, 84
13, 28220, Note_off_c, 12, 35, 53
13, 28220, Note_off_c, 12, 47, 53
13, 28224, Note_on_c, 12, 35, 84
13, 28224, Note_on_c, 12, 47, 84
13, 28412, Note_off_c, 12, 35, 53
13, 28412, Note_off_c, 12, 47, 53
13, 28416, Note_on_c, 12, 31, 84
13, 28416, Note_on_c, 12, 43, 84
13, 28604, Note_off_c, 12, 31, 53
13, 28604, Note_off_c, 12, 43, 53
13, 28608, Note_on_c, 12, 31, 84
13, 28608, Note_on_c, 12, 43, 84
13, 28796, Note_off_c, 12, 31, 53
13, 28796, Note_off_c, 12, 43, 53
13, 28800, Note_on_c, 12, 31, 84
13, 28800, Note_on_c, 12, 43, 84
13, 28988, Note_off_c, 12, 31, 53
13, 28988, Note_off_c, 12, 43, 53
13, 28992, Note_on_c, 12, 30, 84
13, 28992, Note_on_c, 12, 42, 84
13, 29372, Note_off_c, 12, 30, 53
13, 29372, Note_off_c, 12, 42, 53
13, 30144, Note_on_c, 12, 35, 84
13, 30144, Note_on_c, 12, 47, 84
13, 30524, Note_off_c, 12, 35, 53
13, 30524, Note_off_c, 12, 47, 53
13, 31296, Note_on_c, 12, 40, 84
13, 31296, Note_on_c, 12, 52, 84
13, 31676, Note_off_c, 12, 40, 53
13, 31676, Note_off_c, 12, 52, 53
13, 32448, Note_on_c, 12, 37, 84
13, 32448, Note_on_c, 12, 49, 84
13, 32828, Note_off_c, 12, 37, 53
13, 32828, Note_off_c, 12, 49, 53
13, 33600, Note_on_c, 12, 42, 84
13, 33600, Note_on_c, 12, 54, 84
13, 33980, Note_off_c, 12, 42, 53
13, 33980, Note_off_c, 12, 54, 53
13, 34752, Note_on_c, 12, 42, 84
13, 34752, Note_on_c, 12, 54, 84
13, 34940, Note_off_c, 12, 42, 53
13, 34940, Note_off_c, 12, 54, 53
13, 34944, Note_on_c, 12, 42, 84
13, 34944, Note_on_c, 12, 54, 84
13, 35132, Note_off_c, 12, 42, 53
13, 35132, Note_off_c, 12, 54, 53
13, 35136, Note_on_c, 12, 42, 84
13, 35136, Note_on_c, 12, 54, 84
13, 35324, Note_off_c, 12, 42, 53
13, 35324, Note_off_c, 12, 54, 53
13, 35328, Note_on_c, 12, 40, 84
13, 35328, Note_on_c, 12, 52, 84
13, 35516, Note_off_c, 12, 40, 53
13, 35516, Note_off_c, 12, 52, 53
13, 35520, Note_on_c, 12, 40, 84
13, 35520, Note_on_c, 12, 52, 84
13, 35708, Note_off_c, 12, 40, 53
13, 35708, Note_off_c, 12, 52, 53
13, 35712, Note_on_c, 12, 40, 84
13, 35712, Note_on_c, 12, 52, 84
13, 35900, Note_off_c, 12, 40, 53
13, 35900, Note_off_c, 12, 52, 53
13, 35904, Note_on_c, 12, 38, 84
13, 35904, Note_on_c, 12, 50, 84
13, 36092, Note_off_c, 12, 38, 53
13, 36092, Note_off_c, 12, 50, 53
13, 36096, Note_on_c, 12, 38, 84
13, 36096, Note_on_c, 12, 50, 84
13, 36284, Note_off_c, 12, 38, 53
13, 36284, Note_off_c, 12, 50, 53
13, 36288, Note_on_c, 12, 38, 84
13, 36288, Note_on_c, 12, 50, 84
13, 36476, Note_off_c, 12, 38, 53
13, 36476, Note_off_c, 12, 50, 53
13, 36480, Note_on_c, 12, 37, 84
13, 36480, Note_on_c, 12, 49, 84
13, 36668, Note_off_c, 12, 37, 53
13, 36668, Note_off_c, 12, 49, 53
13, 36672, Note_on_c, 12, 37, 84
13, 36672, Note_on_c, 12, 49, 84
13, 36860, Note_off_c, 12, 37, 53
13, 36860, Note_off_c, 12, 49, 53
13, 36864, Note_on_c, 12, 37, 84
13, 36864, Note_on_c, 12, 49, 84
13, 37052, Note_off_c, 12, 37, 53
13, 37052, Note_off_c, 12, 49, 53
13, 37056, Note_on_c, 12, 35, 84
13, 37056, Note_on_c, 12, 47, 84
13, 37244, Note_off_c, 12, 35, 53
13, 37244, Note_off_c, 12, 47, 53
13, 37248, Note_on_c, 12, 35, 84
13, 37248, Note_on_c, 12, 47, 84
13, 37436, Note_off_c, 12, 35, 53
13, 37436, Note_off_c, 12, 47, 53
13, 37440, Note_on_c, 12, 35, 84
13, 37440, Note_on_c, 12, 47, 84
13, 37628, Note_off_c, 12, 35, 53
13, 37628, Note_off_c, 12, 47, 53
13, 37632, Note_on_c, 12, 37, 84
13, 37632, Note_on_c, 12, 49, 84
13, 37820, Note_off_c, 12, 37, 53
13, 37820, Note_off_c, 12, 49, 53
13, 37824, Note_on_c, 12, 37, 84
13, 37824, Note_on_c, 12, 49, 84
13, 38012, Note_off_c, 12, 37, 53
13, 38012, Note_off_c, 12, 49, 53
13, 38016, Note_on_c, 12, 37, 84
13, 38016, Note_on_c, 12, 49, 84
13, 38204, Note_off_c, 12, 37, 53
13, 38204, Note_off_c, 12, 49, 53
13, 38208, Note_on_c, 12, 38, 84
13, 38208, Note_on_c, 12, 50, 84
13, 38396, Note_off_c, 12, 38, 53
13, 38396, Note_off_c, 12, 50, 53
13, 38400, Note_on_c, 12, 35, 84
13, 38400, Note_on_c, 12, 47, 84
13, 38588, Note_off_c, 12, 35, 53
13, 38588, Note_off_c, 12, 47, 53
13, 38592, Note_on_c, 12, 38, 84
13, 38592, Note_on_c, 12, 50, 84
13, 38780, Note_off_c, 12, 38, 53
13, 38780, Note_off_c, 12, 50, 53
13, 38784, Note_on_c, 12, 42, 84
13, 38784, Note_on_c, 12, 54, 84
13, 38972, Note_off_c, 12, 42, 53
13, 38972, Note_off_c, 12, 54, 53
13, 38976, Note_on_c, 12, 38, 84
13, 38976, Note_on_c, 12, 50, 84
13, 39164, Note_off_c, 12, 38, 53
13, 39164, Note_off_c, 12, 50, 53
13, 39168, Note_on_c, 12, 42, 84
13, 39168, Note_on_c, 12, 54, 84
13, 39356, Note_off_c, 12, 42, 53
13, 39356, Note_off_c, 12, 54, 53
13, 39360, Note_on_c, 12, 47, 84
13, 39360, Note_on_c, 12, 59, 84
13, 39548, Note_off_c, 12, 47, 53
13, 39548, Note_off_c, 12, 59, 53
13, 39552, Note_on_c, 12, 47, 84
13, 39552, Note_on_c, 12, 59, 84
13, 39740, Note_off_c, 12, 47, 53
13, 39740, Note_off_c, 12, 59, 53
13, 39744, Note_on_c, 12, 47, 84
13, 39744, Note_on_c, 12, 59, 84
13, 39932, Note_off_c, 12, 47, 53
13, 39932, Note_off_c, 12, 59, 53
13, 39936, Note_on_c, 12, 45, 84
13, 39936, Note_on_c, 12, 57, 84
13, 40124, Note_off_c, 12, 45, 53
13, 40124, Note_off_c, 12, 57, 53
13, 40128, Note_on_c, 12, 45, 84
13, 40128, Note_on_c, 12, 57, 84
13, 40316, Note_off_c, 12, 45, 53
13, 40316, Note_off_c, 12, 57, 53
13, 40320, Note_on_c, 12, 45, 84
13, 40320, Note_on_c, 12, 57, 84
13, 40508, Note_off_c, 12, 45, 53
13, 40508, Note_off_c, 12, 57, 53
13, 40512, Note_on_c, 12, 44, 84
13, 40512, Note_on_c, 12, 56, 84
13, 40700, Note_off_c, 12, 44, 53
13, 40700, Note_off_c, 12, 56, 53
13, 40704, Note_on_c, 12, 44, 84
13, 40704, Note_on_c, 12, 56, 84
13, 40892, Note_off_c, 12, 44, 53
13, 40892, Note_off_c, 12, 56, 53
13, 40896, Note_on_c, 12, 44, 84
13, 40896, Note_on_c, 12, 56, 84
13, 41084, Note_off_c, 12, 44, 53
13, 41084, Note_off_c, 12, 56, 53
13, 41088, Note_on_c, 12, 41, 84
13, 41088, Note_on_c, 12, 53, 84
13, 41276, Note_off_c, 12, 41, 53
13, 41276, Note_off_c, 12, 53, 53
13, 41280, Note_on_c, 12, 41, 84
13, 41280, Note_on_c, 12, 53, 84
13, 41468, Note_off_c, 12, 41, 53
13, 41468, Note_off_c, 12, 53, 53
13, 41472, Note_on_c, 12, 41, 84
13, 41472, Note_on_c, 12, 53, 84
13, 41660, Note_off_c, 12, 41, 53
13, 41660, Note_off_c, 12, 53, 53
13, 41664, Note_on_c, 12, 42, 84
13, 41664, Note_on_c, 12, 54, 84
13, 41852, Note_off_c, 12, 42, 53
13, 41852, Note_off_c, 12, 54, 53
13, 41856, Note_on_c, 12, 42, 84
13, 41856, Note_on_c, 12, 54, 84
13, 42044, Note_off_c, 12, 42, 53
13, 42044, Note_off_c, 12, 54, 53
13, 42048, Note_on_c, 12, 42, 84
13, 42048, Note_on_c, 12, 54, 84
13, 42236, Note_off_c, 12, 42, 53
13, 42236, Note_off_c, 12, 54, 53
13, 42240, Note_on_c, 12, 38, 84
13, 42240, Note_on_c, 12, 50, 84
13, 42428, Note_off_c, 12, 38, 53
13, 42428, Note_off_c, 12, 50, 53
13, 42432, Note_on_c, 12, 38, 84
13, 42432, Note_on_c, 12, 50, 84
13, 42620, Note_off_c, 12, 38, 53
13, 42620, Note_off_c, 12, 50, 53
13, 42624, Note_on_c, 12, 38, 84
13, 42624, Note_on_c, 12, 50, 84
13, 42812, Note_off_c, 12, 38, 53
13, 42812, Note_off_c, 12, 50, 53
13, 42816, Note_on_c, 12, 37, 84
13, 42816, Note_on_c, 12, 49, 84
13, 43004, Note_off_c, 12, 37, 53
13, 43004, Note_off_c, 12, 49, 53
13, 43008, Note_on_c, 12, 32, 84
13, 43008, Note_on_c, 12, 44, 84
13, 43196, Note_off_c, 12, 32, 53
13, 43196, Note_off_c, 12, 44, 53
13, 43200, Note_on_c, 12, 35, 84
13, 43200, Note_on_c, 12, 47, 84
13, 43388, Note_off_c, 12, 35, 53
13, 43388, Note_off_c, 12, 47, 53
13, 43392, Note_on_c, 12, 35, 84
13, 43392, Note_on_c, 12, 47, 84
13, 43580, Note_off_c, 12, 35, 53
13, 43580, Note_off_c, 12, 47, 53
13, 43584, Note_on_c, 12, 29, 84
13, 43584, Note_on_c, 12, 41, 84
13, 43772, Note_off_c, 12, 29, 53
13, 43772, Note_off_c, 12, 41, 53
13, 43776, Note_on_c, 12, 32, 84
13, 43776, Note_on_c, 12, 44, 84
13, 43964, Note_off_c, 12, 32, 53
13, 43964, Note_off_c, 12, 44, 53
13, 45120, Note_on_c, 12, 37, 84
13, 45120, Note_on_c, 12, 49, 84
13, 45308, Note_off_c, 12, 37, 53
13, 45308, Note_off_c, 12, 49, 53
13, 45312, Note_on_c, 12, 37, 84
13, 45312, Note_on_c, 12, 49, 84
13, 45500, Note_off_c, 12, 37, 53
13, 45500, Note_off_c, 12, 49, 53
13, 45504, Note_on_c, 12, 37, 84
13, 45504, Note_on_c, 12, 49, 84
13, 45692, Note_off_c, 12, 37, 53
13, 45692, Note_off_c, 12, 49, 53
13, 45696, Note_on_c, 12, 37, 84
13, 45696, Note_on_c, 12, 49, 84
13, 45884, Note_off_c, 12, 37, 53
13, 45884, Note_off_c, 12, 49, 53
13, 45888, Note_on_c, 12, 37, 84
13, 45888, Note_on_c, 12, 49, 84
13, 46076, Note_off_c, 12, 37, 53
13, 46076, Note_off_c, 12, 49, 53
13, 46080, Note_on_c, 12, 37, 84
13, 46080, Note_on_c, 12, 49, 84
13, 46268, Note_off_c, 12, 37, 53
13, 46268, Note_off_c, 12, 49, 53
13, 46272, Note_on_c, 12, 30, 84
13, 46272, Note_on_c, 12, 42, 84
13, 46652, Note_off_c, 12, 30, 53
13, 46652, Note_off_c, 12, 42, 53
13, 47424, Note_on_c, 12, 30, 84
13, 47424, Note_on_c, 12, 42, 84
13, 47612, Note_off_c, 12, 30, 53
13, 47612, Note_off_c, 12, 42, 53
13, 47616, Note_on_c, 12, 30, 84
13, 47616, Note_on_c, 12, 42, 84
13, 47804, Note_off_c, 12, 30, 53
13, 47804, Note_off_c, 12, 42, 53
13, 47808, Note_on_c, 12, 30, 84
13, 47808, Note_on_c, 12, 42, 84
13, 47996, Note_off_c, 12, 30, 53
13, 47996, Note_off_c, 12, 42, 53
13, 48000, Note_on_c, 12, 30, 84
13, 48000, Note_on_c, 12, 42, 84
13, 48188, Note_off_c, 12, 30, 53
13, 48188, Note_off_c, 12, 42, 53
13, 48192, Note_on_c, 12, 30, 84
13, 48192, Note_on_c, 12, 42, 84
13, 48380, Note_off_c, 12, 30, 53
13, 48380, Note_off_c, 12, 42, 53
13, 48384, Note_on_c, 12, 30, 84
13, 48384, Note_on_c, 12, 42, 84
13, 48572, Note_off_c, 12, 30, 53
13, 48572, Note_off_c, 12, 42, 53
13, 48576, Note_on_c, 12, 35, 84
13, 48576, Note_on_c, 12, 47, 84
13, 48764, Note_off_c, 12, 35, 53
13, 48764, Note_off_c, 12, 47, 53
13, 48768, Note_on_c, 12, 35, 84
13, 48768, Note_on_c, 12, 47, 84
13, 48956, Note_off_c, 12, 35, 53
13, 48956, Note_off_c, 12, 47, 53
13, 48960, Note_on_c, 12, 35, 84
13, 48960, Note_on_c, 12, 47, 84
13, 49148, Note_off_c, 12, 35, 53
13, 49148, Note_off_c, 12, 47, 53
13, 49152, Note_on_c, 12, 35, 84
13, 49152, Note_on_c, 12, 47, 84
13, 49340, Note_off_c, 12, 35, 53
13, 49340, Note_off_c, 12, 47, 53
13, 49344, Note_on_c, 12, 35, 84
13, 49344, Note_on_c, 12, 47, 84
13, 49532, Note_off_c, 12, 35, 53
13, 49532, Note_off_c, 12, 47, 53
13, 49536, Note_on_c, 12, 35, 84
13, 49536, Note_on_c, 12, 47, 84
13, 49724, Note_off_c, 12, 35, 53
13, 49724, Note_off_c, 12, 47, 53
13, 49728, Note_on_c, 12, 35, 84
13, 49728, Note_on_c, 12, 47, 84
13, 49916, Note_off_c, 12, 35, 53
13, 49916, Note_off_c, 12, 47, 53
13, 49920, Note_on_c, 12, 35, 84
13, 49920, Note_on_c, 12, 47, 84
13, 50108, Note_off_c, 12, 35, 53
13, 50108, Note_off_c, 12, 47, 53
13, 50112, Note_on_c, 12, 35, 84
13, 50112, Note_on_c, 12, 47, 84
13, 50300, Note_off_c, 12, 35, 53
13, 50300, Note_off_c, 12, 47, 53
13, 50304, Note_on_c, 12, 35, 84
13, 50304, Note_on_c, 12, 47, 84
13, 50492, Note_off_c, 12, 35, 53
13, 50492, Note_off_c, 12, 47, 53
13, 50496, Note_on_c, 12, 35, 84
13, 50496, Note_on_c, 12, 47, 84
13, 50684, Note_off_c, 12, 35, 53
13, 50684, Note_off_c, 12, 47, 53
13, 50688, Note_on_c, 12, 35, 84
13, 50688, Note_on_c, 12, 47, 84
13, 50876, Note_off_c, 12, 35, 53
13, 50876, Note_off_c, 12, 47, 53
13, 50880, Note_on_c, 12, 33, 84
13, 50880, Note_on_c, 12, 45, 84
13, 51068, Note_off_c, 12, 33, 53
13, 51068, Note_off_c, 12, 45, 53
13, 51072, Note_on_c, 12, 31, 84
13, 51072, Note_on_c, 12, 43, 84
13, 51260, Note_off_c, 12, 31, 53
13, 51260, Note_off_c, 12, 43, 53
13, 51264, Note_on_c, 12, 30, 84
13, 51264, Note_on_c, 12, 42, 84
13, 51452, Note_off_c, 12, 30, 53
13, 51452, Note_off_c, 12, 42, 53
13, 51456, Note_on_c, 12, 37, 84
13, 51456, Note_on_c, 12, 49, 84
13, 51644, Note_off_c, 12, 37, 53
13, 51644, Note_off_c, 12, 49, 53
13, 51648, Note_on_c, 12, 37, 84
13, 51648, Note_on_c, 12, 49, 84
13, 51836, Note_off_c, 12, 37, 53
13, 51836, Note_off_c, 12, 49, 53
13, 51840, Note_on_c, 12, 37, 84
13, 51840, Note_on_c, 12, 49, 84
13, 52028, Note_off_c, 12, 37, 53
13, 52028, Note_off_c, 12, 49, 53
13, 52032, Note_on_c, 12, 42, 84
13, 52032, Note_on_c, 12, 54, 84
13, 52220, Note_off_c, 12, 42, 53
13, 52220, Note_off_c, 12, 54, 53
13, 52224, Note_on_c, 12, 30, 84
13, 52224, Note_on_c, 12, 42, 84
13, 52412, Note_off_c, 12, 30, 53
13, 52412, Note_off_c, 12, 42, 53
13, 52416, Note_on_c, 12, 33, 84
13, 52416, Note_on_c, 12, 45, 84
13, 52604, Note_off_c, 12, 33, 53
13, 52604, Note_off_c, 12, 45, 53
13, 52608, Note_on_c, 12, 37, 84
13, 52608, Note_on_c, 12, 49, 84
13, 52796, Note_off_c, 12, 37, 53
13, 52796, Note_off_c, 12, 49, 53
13, 52800, Note_on_c, 12, 33, 84
13, 52800, Note_on_c, 12, 45, 84
13, 52988, Note_off_c, 12, 33, 53
13, 52988, Note_off_c, 12, 45, 53
13, 52992, Note_on_c, 12, 37, 84
13, 52992, Note_on_c, 12, 49, 84
13, 53180, Note_off_c, 12, 37, 53
13, 53180, Note_off_c, 12, 49, 53
13, 53184, Note_on_c, 12, 42, 84
13, 53184, Note_on_c, 12, 54, 84
13, 53372, Note_off_c, 12, 42, 53
13, 53372, Note_off_c, 12, 54, 53
13, 53376, Note_on_c, 12, 42, 84
13, 53376, Note_on_c, 12, 54, 84
13, 53564, Note_off_c, 12, 42, 53
13, 53564, Note_off_c, 12, 54, 53
13, 53568, Note_on_c, 12, 42, 84
13, 53568, Note_on_c, 12, 54, 84
13, 53756, Note_off_c, 12, 42, 53
13, 53756, Note_off_c, 12, 54, 53
13, 53760, Note_on_c, 12, 40, 84
13, 53760, Note_on_c, 12, 52, 84
13, 53948, Note_off_c, 12, 40, 53
13, 53948, Note_off_c, 12, 52, 53
13, 53952, Note_on_c, 12, 40, 84
13, 53952, Note_on_c, 12, 52, 84
13, 54140, Note_off_c, 12, 40, 53
13, 54140, Note_off_c, 12, 52, 53
13, 54144, Note_on_c, 12, 40, 84
13, 54144, Note_on_c, 12, 52, 84
13, 54332, Note_off_c, 12, 40, 53
13, 54332, Note_off_c, 12, 52, 53
13, 54336, Note_on_c, 12, 38, 84
13, 54336, Note_on_c, 12, 50, 84
13, 54524, Note_off_c, 12, 38, 53
13, 54524, Note_off_c, 12, 50, 53
13, 54528, Note_on_c, 12, 38, 84
13, 54528, Note_on_c, 12, 50, 84
13, 54716, Note_off_c, 12, 38, 53
13, 54716, Note_off_c, 12, 50, 53
13, 54720, Note_on_c, 12, 38, 84
13, 54720, Note_on_c, 12, 50, 84
13, 54908, Note_off_c, 12, 38, 53
13, 54908, Note_off_c, 12, 50, 53
13, 54912, Note_on_c, 12, 37, 84
13, 54912, Note_on_c, 12, 49, 84
13, 55100, Note_off_c, 12, 37, 53
13, 55100, Note_off_c, 12, 49, 53
13, 55104, Note_on_c, 12, 37, 84
13, 55104, Note_on_c, 12, 49, 84
13, 55292, Note_off_c, 12, 37, 53
13, 55292, Note_off_c, 12, 49, 53
13, 55296, Note_on_c, 12, 37, 84
13, 55296, Note_on_c, 12, 49, 84
13, 55484, Note_off_c, 12, 37, 53
13, 55484, Note_off_c, 12, 49, 53
13, 55488, Note_on_c, 12, 35, 84
13, 55488, Note_on_c, 12, 47, 84
13, 55676, Note_off_c, 12, 35, 53
13, 55676, Note_off_c, 12, 47, 53
13, 55680, Note_on_c, 12, 35, 84
13, 55680, Note_on_c, 12, 47, 84
13, 55868, Note_off_c, 12, 35, 53
13, 55868, Note_off_c, 12, 47, 53
13, 55872, Note_on_c, 12, 35, 84
13, 55872, Note_on_c, 12, 47, 84
13, 56060, Note_off_c, 12, 35, 53
13, 56060, Note_off_c, 12, 47, 53
13, 56064, Note_on_c, 12, 37, 84
13, 56064, Note_on_c, 12, 49, 84
13, 56252, Note_off_c, 12, 37, 53
13, 56252, Note_off_c, 12, 49, 53
13, 56256, Note_on_c, 12, 37, 84
13, 56256, Note_on_c, 12, 49, 84
13, 56444, Note_off_c, 12, 37, 53
13, 56444, Note_off_c, 12, 49, 53
13, 56448, Note_on_c, 12, 37, 84
13, 56448, Note_on_c, 12, 49, 84
13, 56636, Note_off_c, 12, 37, 53
13, 56636, Note_off_c, 12, 49, 53
13, 56640, Note_on_c, 12, 38, 84
13, 56640, Note_on_c, 12, 50, 84
13, 56828, Note_off_c, 12, 38, 53
13, 56828, Note_off_c, 12, 50, 53
13, 56832, Note_on_c, 12, 35, 84
13, 56832, Note_on_c, 12, 47, 84
13, 57020, Note_off_c, 12, 35, 53
13, 57020, Note_off_c, 12, 47, 53
13, 57024, Note_on_c, 12, 38, 84
13, 57024, Note_on_c, 12, 50, 84
13, 57212, Note_off_c, 12, 38, 53
13, 57212, Note_off_c, 12, 50, 53
13, 57216, Note_on_c, 12, 42, 84
13, 57216, Note_on_c, 12, 54, 84
13, 57404, Note_off_c, 12, 42, 53
13, 57404, Note_off_c, 12, 54, 53
13, 57408, Note_on_c, 12, 38, 84
13, 57408, Note_on_c, 12, 50, 84
13, 57596, Note_off_c, 12, 38, 53
13, 57596, Note_off_c, 12, 50, 53
13, 57600, Note_on_c, 12, 42, 84
13, 57600, Note_on_c, 12, 54, 84
13, 57788, Note_off_c, 12, 42, 53
13, 57788, Note_off_c, 12, 54, 53
13, 57792, Note_on_c, 12, 47, 84
13, 57792, Note_on_c, 12, 59, 84
13, 57980, Note_off_c, 12, 47, 53
13, 57980, Note_off_c, 12, 59, 53
13, 57984, Note_on_c, 12, 47, 84
13, 57984, Note_on_c, 12, 59, 84
13, 58172, Note_off_c, 12, 47, 53
13, 58172, Note_off_c, 12, 59, 53
13, 58176, Note_on_c, 12, 47, 84
13, 58176, Note_on_c, 12, 59, 84
13, 58364, Note_off_c, 12, 47, 53
13, 58364, Note_off_c, 12, 59, 53
13, 58368, Note_on_c, 12, 45, 84
13, 58368, Note_on_c, 12, 57, 84
13, 58556, Note_off_c, 12, 45, 53
13, 58556, Note_off_c, 12, 57, 53
13, 58560, Note_on_c, 12, 45, 84
13, 58560, Note_on_c, 12, 57, 84
13, 58748, Note_off_c, 12, 45, 53
13, 58748, Note_off_c, 12, 57, 53
13, 58752, Note_on_c, 12, 45, 84
13, 58752, Note_on_c, 12, 57, 84
13, 58940, Note_off_c, 12, 45, 53
13, 58940, Note_off_c, 12, 57, 53
13, 58944, Note_on_c, 12, 44, 84
13, 58944, Note_on_c, 12, 56, 84
13, 59132, Note_off_c, 12, 44, 53
13, 59132, Note_off_c, 12, 56, 53
13, 59136, Note_on_c, 12, 44, 84
13, 59136, Note_on_c, 12, 56, 84
13, 59324, Note_off_c, 12, 44, 53
13, 59324, Note_off_c, 12, 56, 53
13, 59328, Note_on_c, 12, 44, 84
13, 59328, Note_on_c, 12, 56, 84
13, 59516, Note_off_c, 12, 44, 53
13, 59516, Note_off_c, 12, 56, 53
13, 59520, Note_on_c, 12, 41, 84
13, 59520, Note_on_c, 12, 53, 84
13, 59708, Note_off_c, 12, 41, 53
13, 59708, Note_off_c, 12, 53, 53
13, 59712, Note_on_c, 12, 41, 84
13, 59712, Note_on_c, 12, 53, 84
13, 59900, Note_off_c, 12, 41, 53
13, 59900, Note_off_c, 12, 53, 53
13, 59904, Note_on_c, 12, 41, 84
13, 59904, Note_on_c, 12, 53, 84
13, 60092, Note_off_c, 12, 41, 53
13, 60092, Note_off_c, 12, 53, 53
13, 60096, Note_on_c, 12, 45, 84
13, 60096, Note_on_c, 12, 57, 84
13, 60286, Note_off_c, 12, 45, 53
13, 60286, Note_off_c, 12, 57, 53
13, 60288, Note_on_c, 12, 44, 84
13, 60288, Note_on_c, 12, 56, 84
13, 60478, Note_off_c, 12, 44, 53
13, 60478, Note_off_c, 12, 56, 53
13, 60480, Note_on_c, 12, 42, 84
13, 60480, Note_on_c, 12, 54, 84
13, 60670, Note_off_c, 12, 42, 53
13, 60670, Note_off_c, 12, 54, 53
13, 60672, Note_on_c, 12, 49, 84
13, 60672, Note_on_c, 12, 61, 84
13, 60862, Note_off_c, 12, 49, 53
13, 60862, Note_off_c, 12, 61, 53
13, 60864, Note_on_c, 12, 49, 84
13, 60864, Note_on_c, 12, 61, 84
13, 61054, Note_off_c, 12, 49, 53
13, 61054, Note_off_c, 12, 61, 53
13, 61056, Note_on_c, 12, 37, 84
13, 61056, Note_on_c, 12, 49, 84
13, 61246, Note_off_c, 12, 37, 53
13, 61246, Note_off_c, 12, 49, 53
13, 61248, Note_on_c, 12, 42, 84
13, 61248, Note_on_c, 12, 54, 84
13, 61438, Note_off_c, 12, 42, 53
13, 61438, Note_off_c, 12, 54, 53
13, 61440, Note_on_c, 12, 45, 84
13, 61440, Note_on_c, 12, 57, 84
13, 61630, Note_off_c, 12, 45, 53
13, 61630, Note_off_c, 12, 57, 53
13, 61632, Note_on_c, 12, 37, 84
13, 61632, Note_on_c, 12, 49, 84
13, 61822, Note_off_c, 12, 37, 53
13, 61822, Note_off_c, 12, 49, 53
13, 61824, Note_on_c, 12, 42, 84
13, 61824, Note_on_c, 12, 54, 84
13, 62014, Note_off_c, 12, 42, 53
13, 62014, Note_off_c, 12, 54, 53
13, 62016, Note_on_c, 12, 33, 84
13, 62016, Note_on_c, 12, 45, 84
13, 62206, Note_off_c, 12, 33, 53
13, 62206, Note_off_c, 12, 45, 53
13, 62208, Note_on_c, 12, 37, 84
13, 62208, Note_on_c, 12, 49, 84
13, 62398, Note_off_c, 12, 37, 53
13, 62398, Note_off_c, 12, 49, 53
13, 62400, Note_on_c, 12, 30, 84
13, 62400, Note_on_c, 12, 42, 84
13, 62782, Note_off_c, 12, 30, 53
13, 62782, Note_off_c, 12, 42, 53
13, 63552, Note_on_c, 12, 35, 84
13, 63552, Note_on_c, 12, 47, 84
13, 63742, Note_off_c, 12, 35, 53
13, 63742, Note_off_c, 12, 47, 53
13, 63744, Note_on_c, 12, 35, 84
13, 63744, Note_on_c, 12, 47, 84
13, 63934, Note_off_c, 12, 35, 53
13, 63934, Note_off_c, 12, 47, 53
13, 63936, Note_on_c, 12, 35, 84
13, 63936, Note_on_c, 12, 47, 84
13, 64126, Note_off_c, 12, 35, 53
13, 64126, Note_off_c, 12, 47, 53
13, 64128, Note_on_c, 12, 35, 84
13, 64128, Note_on_c, 12, 47, 84
13, 64318, Note_off_c, 12, 35, 53
13, 64318, Note_off_c, 12, 47, 53
13, 64320, Note_on_c, 12, 35, 84
13, 64320, Note_on_c, 12, 47, 84
13, 64510, Note_off_c, 12, 35, 53
13, 64510, Note_off_c, 12, 47, 53
13, 64512, Note_on_c, 12, 35, 84
13, 64512, Note_on_c, 12, 47, 84
13, 64702, Note_off_c, 12, 35, 53
13, 64702, Note_off_c, 12, 47, 53
13, 64704, Note_on_c, 12, 28, 84
13, 64704, Note_on_c, 12, 40, 84
13, 65086, Note_off_c, 12, 28, 53
13, 65086, Note_off_c, 12, 40, 53
13, 65856, Note_on_c, 12, 30, 84
13, 65856, Note_on_c, 12, 42, 84
13, 66046, Note_off_c, 12, 30, 53
13, 66046, Note_off_c, 12, 42, 53
13, 66048, Note_on_c, 12, 30, 84
13, 66048, Note_on_c, 12, 42, 84
13, 66238, Note_off_c, 12, 30, 53
13, 66238, Note_off_c, 12, 42, 53
13, 66240, Note_on_c, 12, 30, 84
13, 66240, Note_on_c, 12, 42, 84
13, 66430, Note_off_c, 12, 30, 53
13, 66430, Note_off_c, 12, 42, 53
13, 66432, Note_on_c, 12, 30, 84
13, 66432, Note_on_c, 12, 42, 84
13, 66622, Note_off_c, 12, 30, 53
13, 66622, Note_off_c, 12, 42, 53
13, 66624, Note_on_c, 12, 30, 84
13, 66624, Note_on_c, 12, 42, 84
13, 66814, Note_off_c, 12, 30, 53
13, 66814, Note_off_c, 12, 42, 53
13, 66816, Note_on_c, 12, 30, 84
13, 66816, Note_on_c, 12, 42, 84
13, 67006, Note_off_c, 12, 30, 53
13, 67006, Note_off_c, 12, 42, 53
13, 67008, Note_on_c, 12, 35, 84
13, 67008, Note_on_c, 12, 47, 84
13, 67390, Note_off_c, 12, 35, 53
13, 67390, Note_off_c, 12, 47, 53
13, 68160, Note_on_c, 12, 37, 84
13, 68160, Note_on_c, 12, 49, 84
13, 68350, Note_off_c, 12, 37, 53
13, 68350, Note_off_c, 12, 49, 53
13, 68352, Note_on_c, 12, 37, 84
13, 68352, Note_on_c, 12, 49, 84
13, 68542, Note_off_c, 12, 37, 53
13, 68542, Note_off_c, 12, 49, 53
13, 68544, Note_on_c, 12, 37, 84
13, 68544, Note_on_c, 12, 49, 84
13, 68734, Note_off_c, 12, 37, 53
13, 68734, Note_off_c, 12, 49, 53
13, 68736, Note_on_c, 12, 37, 84
13, 68736, Note_on_c, 12, 49, 84
13, 68926, Note_off_c, 12, 37, 53
13, 68926, Note_off_c, 12, 49, 53
13, 68928, Note_on_c, 12, 37, 84
13, 68928, Note_on_c, 12, 49, 84
13, 69118, Note_off_c, 12, 37, 53
13, 69118, Note_off_c, 12, 49, 53
13, 69120, Note_on_c, 12, 37, 84
13, 69120, Note_on_c, 12, 49, 84
13, 69310, Note_off_c, 12, 37, 53
13, 69310, Note_off_c, 12, 49, 53
13, 69312, Note_on_c, 12, 30, 84
13, 69312, Note_on_c, 12, 42, 84
13, 69502, Note_off_c, 12, 30, 53
13, 69502, Note_off_c, 12, 42, 53
13, 69504, Note_on_c, 12, 30, 84
13, 69504, Note_on_c, 12, 42, 84
13, 69694, Note_off_c, 12, 30, 53
13, 69694, Note_off_c, 12, 42, 53
13, 69696, Note_on_c, 12, 30, 84
13, 69696, Note_on_c, 12, 42, 84
13, 69886, Note_off_c, 12, 30, 53
13, 69886, Note_off_c, 12, 42, 53
13, 69888, Note_on_c, 12, 30, 84
13, 69888, Note_on_c, 12, 42, 84
13, 70078, Note_off_c, 12, 30, 53
13, 70078, Note_off_c, 12, 42, 53
13, 70080, Note_on_c, 12, 30, 84
13, 70080, Note_on_c, 12, 42, 84
13, 70270, Note_off_c, 12, 30, 53
13, 70270, Note_off_c, 12, 42, 53
13, 70272, Note_on_c, 12, 30, 84
13, 70272, Note_on_c, 12, 42, 84
13, 70462, Note_off_c, 12, 30, 53
13, 70462, Note_off_c, 12, 42, 53
13, 70464, Note_on_c, 12, 30, 84
13, 70464, Note_on_c, 12, 42, 84
13, 70654, Note_off_c, 12, 30, 53
13, 70654, Note_off_c, 12, 42, 53
13, 70656, Note_on_c, 12, 30, 84
13, 70656, Note_on_c, 12, 42, 84
13, 70846, Note_off_c, 12, 30, 53
13, 70846, Note_off_c, 12, 42, 53
13, 70848, Note_on_c, 12, 30, 84
13, 70848, Note_on_c, 12, 42, 84
13, 71038, Note_off_c, 12, 30, 53
13, 71038, Note_off_c, 12, 42, 53
13, 71040, Note_on_c, 12, 42, 84
13, 71040, Note_on_c, 12, 54, 84
13, 71230, Note_off_c, 12, 42, 53
13, 71230, Note_off_c, 12, 54, 53
13, 71232, Note_on_c, 12, 39, 84
13, 71232, Note_on_c, 12, 51, 84
13, 71422, Note_off_c, 12, 39, 53
13, 71422, Note_off_c, 12, 51, 53
13, 71424, Note_on_c, 12, 36, 84
13, 71424, Note_on_c, 12, 48, 84
13, 71614, Note_off_c, 12, 36, 53
13, 71614, Note_off_c, 12, 48, 53
13, 71616, Note_on_c, 12, 40, 84
13, 71616, Note_on_c, 12, 52, 84
13, 71806, Note_off_c, 12, 40, 53
13, 71806, Note_off_c, 12, 52, 53
13, 71808, Note_on_c, 12, 40, 84
13, 71808, Note_on_c, 12, 52, 84
13, 71998, Note_off_c, 12, 40, 53
13, 71998, Note_off_c, 12, 52, 53
13, 72000, Note_on_c, 12, 40, 84
13, 72000, Note_on_c, 12, 52, 84
13, 72190, Note_off_c, 12, 40, 53
13, 72190, Note_off_c, 12, 52, 53
13, 72192, Note_on_c, 12, 45, 84
13, 72192, Note_on_c, 12, 57, 84
13, 72382, Note_off_c, 12, 45, 53
13, 72382, Note_off_c, 12, 57, 53
13, 72384, Note_on_c, 12, 45, 84
13, 72384, Note_on_c, 12, 57, 84
13, 72574, Note_off_c, 12, 45, 53
13, 72574, Note_off_c, 12, 57, 53
13, 72576, Note_on_c, 12, 45, 84
13, 72576, Note_on_c, 12, 57, 84
13, 72766, Note_off_c, 12, 45, 53
13, 72766, Note_off_c, 12, 57, 53
13, 72768, Note_on_c, 12, 42, 84
13, 72768, Note_on_c, 12, 54, 84
13, 72958, Note_off_c, 12, 42, 53
13, 72958, Note_off_c, 12, 54, 53
13, 72960, Note_on_c, 12, 42, 84
13, 72960, Note_on_c, 12, 54, 84
13, 73150, Note_off_c, 12, 42, 53
13, 73150, Note_off_c, 12, 54, 53
13, 73152, Note_on_c, 12, 42, 84
13, 73152, Note_on_c, 12, 54, 84
13, 73342, Note_off_c, 12, 42, 53
13, 73342, Note_off_c, 12, 54, 53
13, 73344, Note_on_c, 12, 40, 84
13, 73344, Note_on_c, 12, 52, 84
13, 73534, Note_off_c, 12, 40, 53
13, 73534, Note_off_c, 12, 52, 53
13, 73536, Note_on_c, 12, 40, 84
13, 73536, Note_on_c, 12, 52, 84
13, 73726, Note_off_c, 12, 40, 53
13, 73726, Note_off_c, 12, 52, 53
13, 73728, Note_on_c, 12, 40, 84
13, 73728, Note_on_c, 12, 52, 84
13, 73918, Note_off_c, 12, 40, 53
13, 73918, Note_off_c, 12, 52, 53
13, 73920, Note_on_c, 12, 39, 84
13, 73920, Note_on_c, 12, 51, 84
13, 74110, Note_off_c, 12, 39, 53
13, 74110, Note_off_c, 12, 51, 53
13, 74112, Note_on_c, 12, 40, 84
13, 74112, Note_on_c, 12, 52, 84
13, 74302, Note_off_c, 12, 40, 53
13, 74302, Note_off_c, 12, 52, 53
13, 74304, Note_on_c, 12, 42, 84
13, 74304, Note_on_c, 12, 54, 84
13, 74494, Note_off_c, 12, 42, 53
13, 74494, Note_off_c, 12, 54, 53
13, 74496, Note_on_c, 12, 40, 84
13, 74496, Note_on_c, 12, 52, 84
13, 74686, Note_off_c, 12, 40, 53
13, 74686, Note_off_c, 12, 52, 53
13, 74688, Note_on_c, 12, 42, 84
13, 74688, Note_on_c, 12, 54, 84
13, 74878, Note_off_c, 12, 42, 53
13, 74878, Note_off_c, 12, 54, 53
13, 74880, Note_on_c, 12, 44, 84
13, 74880, Note_on_c, 12, 56, 84
13, 75070, Note_off_c, 12, 44, 53
13, 75070, Note_off_c, 12, 56, 53
13, 75072, Note_on_c, 12, 37, 84
13, 75072, Note_on_c, 12, 49, 84
13, 75262, Note_off_c, 12, 37, 53
13, 75262, Note_off_c, 12, 49, 53
13, 75264, Note_on_c, 12, 37, 84
13, 75264, Note_on_c, 12, 49, 84
13, 75454, Note_off_c, 12, 37, 53
13, 75454, Note_off_c, 12, 49, 53
13, 75456, Note_on_c, 12, 37, 84
13, 75456, Note_on_c, 12, 49, 84
13, 75646, Note_off_c, 12, 37, 53
13, 75646, Note_off_c, 12, 49, 53
13, 75648, Note_on_c, 12, 41, 84
13, 75648, Note_on_c, 12, 53, 84
13, 75838, Note_off_c, 12, 41, 53
13, 75838, Note_off_c, 12, 53, 53
13, 75840, Note_on_c, 12, 41, 84
13, 75840, Note_on_c, 12, 53, 84
13, 76030, Note_off_c, 12, 41, 53
13, 76030, Note_off_c, 12, 53, 53
13, 76032, Note_on_c, 12, 41, 84
13, 76032, Note_on_c, 12, 53, 84
13, 76222, Note_off_c, 12, 41, 53
13, 76222, Note_off_c, 12, 53, 53
13, 76224, Note_on_c, 12, 42, 84
13, 76224, Note_on_c, 12, 54, 84
13, 76414, Note_off_c, 12, 42, 53
13, 76414, Note_off_c, 12, 54, 53
13, 76416, Note_on_c, 12, 42, 84
13, 76416, Note_on_c, 12, 54, 84
13, 76606, Note_off_c, 12, 42, 53
13, 76606, Note_off_c, 12, 54, 53
13, 76608, Note_on_c, 12, 42, 84
13, 76608, Note_on_c, 12, 54, 84
13, 76798, Note_off_c, 12, 42, 53
13, 76798, Note_off_c, 12, 54, 53
13, 76800, Note_on_c, 12, 37, 84
13, 76800, Note_on_c, 12, 49, 84
13, 76990, Note_off_c, 12, 37, 53
13, 76990, Note_off_c, 12, 49, 53
13, 76992, Note_on_c, 12, 37, 84
13, 76992, Note_on_c, 12, 49, 84
13, 77182, Note_off_c, 12, 37, 53
13, 77182, Note_off_c, 12, 49, 53
13, 77184, Note_on_c, 12, 37, 84
13, 77184, Note_on_c, 12, 49, 84
13, 77374, Note_off_c, 12, 37, 53
13, 77374, Note_off_c, 12, 49, 53
13, 77376, Note_on_c, 12, 38, 84
13, 77376, Note_on_c, 12, 50, 84
13, 77566, Note_off_c, 12, 38, 53
13, 77566, Note_off_c, 12, 50, 53
13, 77568, Note_on_c, 12, 38, 84
13, 77568, Note_on_c, 12, 50, 84
13, 77758, Note_off_c, 12, 38, 53
13, 77758, Note_off_c, 12, 50, 53
13, 77760, Note_on_c, 12, 38, 84
13, 77760, Note_on_c, 12, 50, 84
13, 77950, Note_off_c, 12, 38, 53
13, 77950, Note_off_c, 12, 50, 53
13, 77952, Note_on_c, 12, 34, 84
13, 77952, Note_on_c, 12, 46, 84
13, 78142, Note_off_c, 12, 34, 53
13, 78142, Note_off_c, 12, 46, 53
13, 78144, Note_on_c, 12, 34, 84
13, 78144, Note_on_c, 12, 46, 84
13, 78334, Note_off_c, 12, 34, 53
13, 78334, Note_off_c, 12, 46, 53
13, 78336, Note_on_c, 12, 34, 84
13, 78336, Note_on_c, 12, 46, 84
13, 78526, Note_off_c, 12, 34, 53
13, 78526, Note_off_c, 12, 46, 53
13, 78528, Note_on_c, 12, 35, 84
13, 78528, Note_on_c, 12, 47, 84
13, 78718, Note_off_c, 12, 35, 53
13, 78718, Note_off_c, 12, 47, 53
13, 78720, Note_on_c, 12, 35, 84
13, 78720, Note_on_c, 12, 47, 84
13, 78910, Note_off_c, 12, 35, 53
13, 78910, Note_off_c, 12, 47, 53
13, 78912, Note_on_c, 12, 35, 84
13, 78912, Note_on_c, 12, 47, 84
13, 79102, Note_off_c, 12, 35, 53
13, 79102, Note_off_c, 12, 47, 53
13, 79104, Note_on_c, 12, 30, 84
13, 79104, Note_on_c, 12, 42, 84
13, 79294, Note_off_c, 12, 30, 53
13, 79294, Note_off_c, 12, 42, 53
13, 79296, Note_on_c, 12, 30, 84
13, 79296, Note_on_c, 12, 42, 84
13, 79486, Note_off_c, 12, 30, 53
13, 79486, Note_off_c, 12, 42, 53
13, 79488, Note_on_c, 12, 30, 84
13, 79488, Note_on_c, 12, 42, 84
13, 79678, Note_off_c, 12, 30, 53
13, 79678, Note_off_c, 12, 42, 53
13, 79680, Note_on_c, 12, 31, 84
13, 79680, Note_on_c, 12, 43, 84
13, 79870, Note_off_c, 12, 31, 53
13, 79870, Note_off_c, 12, 43, 53
13, 79872, Note_on_c, 12, 31, 84
13, 79872, Note_on_c, 12, 43, 84
13, 80062, Note_off_c, 12, 31, 53
13, 80062, Note_off_c, 12, 43, 53
13, 80064, Note_on_c, 12, 31, 84
13, 80064, Note_on_c, 12, 43, 84
13, 80254, Note_off_c, 12, 31, 53
13, 80254, Note_off_c, 12, 43, 53
13, 80256, Note_on_c, 12, 35, 84
13, 80256, Note_on_c, 12, 47, 84
13, 80446, Note_off_c, 12, 35, 53
13, 80446, Note_off_c, 12, 47, 53
13, 80448, Note_on_c, 12, 35, 84
13, 80448, Note_on_c, 12, 47, 84
13, 80638, Note_off_c, 12, 35, 53
13, 80638, Note_off_c, 12, 47, 53
13, 80640, Note_on_c, 12, 35, 84
13, 80640, Note_on_c, 12, 47, 84
13, 80830, Note_off_c, 12, 35, 53
13, 80830, Note_off_c, 12, 47, 53
13, 80832, Note_on_c, 12, 40, 84
13, 80832, Note_on_c, 12, 52, 84
13, 81022, Note_off_c, 12, 40, 53
13, 81022, Note_off_c, 12, 52, 53
13, 81024, Note_on_c, 12, 40, 84
13, 81024, Note_on_c, 12, 52, 84
13, 81214, Note_off_c, 12, 40, 53
13, 81214, Note_off_c, 12, 52, 53
13, 81216, Note_on_c, 12, 40, 84
13, 81216, Note_on_c, 12, 52, 84
13, 81406, Note_off_c, 12, 40, 53
13, 81406, Note_off_c, 12, 52, 53
13, 81408, Note_on_c, 12, 38, 84
13, 81408, Note_on_c, 12, 50, 84
13, 81598, Note_off_c, 12, 38, 53
13, 81598, Note_off_c, 12, 50, 53
13, 81600, Note_on_c, 12, 38, 84
13, 81600, Note_on_c, 12, 50, 84
13, 81790, Note_off_c, 12, 38, 53
13, 81790, Note_off_c, 12, 50, 53
13, 81792, Note_on_c, 12, 38, 84
13, 81792, Note_on_c, 12, 50, 84
13, 81982, Note_off_c, 12, 38, 53
13, 81982, Note_off_c, 12, 50, 53
13, 81984, Note_on_c, 12, 37, 84
13, 81984, Note_on_c, 12, 49, 84
13, 82174, Note_off_c, 12, 37, 53
13, 82174, Note_off_c, 12, 49, 53
13, 82176, Note_on_c, 12, 37, 84
13, 82176, Note_on_c, 12, 49, 84
13, 82366, Note_off_c, 12, 37, 53
13, 82366, Note_off_c, 12, 49, 53
13, 82368, Note_on_c, 12, 37, 84
13, 82368, Note_on_c, 12, 49, 84
13, 82558, Note_off_c, 12, 37, 53
13, 82558, Note_off_c, 12, 49, 53
13, 82560, Note_on_c, 12, 34, 84
13, 82560, Note_on_c, 12, 46, 84
13, 82750, Note_off_c, 12, 34, 53
13, 82750, Note_off_c, 12, 46, 53
13, 82752, Note_on_c, 12, 34, 84
13, 82752, Note_on_c, 12, 46, 84
13, 82942, Note_off_c, 12, 34, 53
13, 82942, Note_off_c, 12, 46, 53
13, 82944, Note_on_c, 12, 34, 84
13, 82944, Note_on_c, 12, 46, 84
13, 83134, Note_off_c, 12, 34, 53
13, 83134, Note_off_c, 12, 46, 53
13, 83136, Note_on_c, 12, 35, 84
13, 83136, Note_on_c, 12, 47, 84
13, 83326, Note_off_c, 12, 35, 53
13, 83326, Note_off_c, 12, 47, 53
13, 83328, Note_on_c, 12, 35, 84
13, 83328, Note_on_c, 12, 47, 84
13, 83518, Note_off_c, 12, 35, 53
13, 83518, Note_off_c, 12, 47, 53
13, 83520, Note_on_c, 12, 35, 84
13, 83520, Note_on_c, 12, 47, 84
13, 83710, Note_off_c, 12, 35, 53
13, 83710, Note_off_c, 12, 47, 53
13, 83712, Note_on_c, 12, 31, 84
13, 83712, Note_on_c, 12, 43, 84
13, 83902, Note_off_c, 12, 31, 53
13, 83902, Note_off_c, 12, 43, 53
13, 83904, Note_on_c, 12, 31, 84
13, 83904, Note_on_c, 12, 43, 84
13, 84094, Note_off_c, 12, 31, 53
13, 84094, Note_off_c, 12, 43, 53
13, 84096, Note_on_c, 12, 31, 84
13, 84096, Note_on_c, 12, 43, 84
13, 84286, Note_off_c, 12, 31, 53
13, 84286, Note_off_c, 12, 43, 53
13, 84288, Note_on_c, 12, 30, 84
13, 84288, Note_on_c, 12, 42, 84
13, 84670, Note_off_c, 12, 30, 53
13, 84670, Note_off_c, 12, 42, 53
13, 85440, Note_on_c, 12, 35, 84
13, 85440, Note_on_c, 12, 47, 84
13, 85822, Note_off_c, 12, 35, 53
13, 85822, Note_off_c, 12, 47, 53
13, 86592, Note_on_c, 12, 40, 84
13, 86592, Note_on_c, 12, 52, 84
13, 86974, Note_off_c, 12, 40, 53
13, 86974, Note_off_c, 12, 52, 53
13, 87744, Note_on_c, 12, 42, 84
13, 87744, Note_on_c, 12, 54, 84
13, 88126, Note_off_c, 12, 42, 53
13, 88126, Note_off_c, 12, 54, 53
13, 88896, Note_on_c, 12, 35, 84
13, 88896, Note_on_c, 12, 47, 84
13, 89278, Note_off_c, 12, 35, 53
13, 89278, Note_off_c, 12, 47, 53
13, 90048, Note_on_c, 12, 47, 84
13, 90048, Note_on_c, 12, 59, 84
13, 90238, Note_off_c, 12, 47, 53
13, 90238, Note_off_c, 12, 59, 53
13, 90240, Note_on_c, 12, 47, 84
13, 90240, Note_on_c, 12, 59, 84
13, 90430, Note_off_c, 12, 47, 53
13, 90430, Note_off_c, 12, 59, 53
13, 90432, Note_on_c, 12, 47, 84
13, 90432, Note_on_c, 12, 59, 84
13, 90622, Note_off_c, 12, 47, 53
13, 90622, Note_off_c, 12, 59, 53
13, 90624, Note_on_c, 12, 45, 84
13, 90624, Note_on_c, 12, 57, 84
13, 90814, Note_off_c, 12, 45, 53
13, 90814, Note_off_c, 12, 57, 53
13, 90816, Note_on_c, 12, 45, 84
13, 90816, Note_on_c, 12, 57, 84
13, 91006, Note_off_c, 12, 45, 53
13, 91006, Note_off_c, 12, 57, 53
13, 91008, Note_on_c, 12, 45, 84
13, 91008, Note_on_c, 12, 57, 84
13, 91198, Note_off_c, 12, 45, 53
13, 91198, Note_off_c, 12, 57, 53
13, 91200, Note_on_c, 12, 43, 84
13, 91200, Note_on_c, 12, 55, 84
13, 91390, Note_off_c, 12, 43, 53
13, 91390, Note_off_c, 12, 55, 53
13, 91392, Note_on_c, 12, 43, 84
13, 91392, Note_on_c, 12, 55, 84
13, 91582, Note_off_c, 12, 43, 53
13, 91582, Note_off_c, 12, 55, 53
13, 91584, Note_on_c, 12, 43, 84
13, 91584, Note_on_c, 12, 55, 84
13, 91774, Note_off_c, 12, 43, 53
13, 91774, Note_off_c, 12, 55, 53
13, 91776, Note_on_c, 12, 42, 84
13, 91776, Note_on_c, 12, 54, 84
13, 91966, Note_off_c, 12, 42, 53
13, 91966, Note_off_c, 12, 54, 53
13, 91968, Note_on_c, 12, 42, 84
13, 91968, Note_on_c, 12, 54, 84
13, 92158, Note_off_c, 12, 42, 53
13, 92158, Note_off_c, 12, 54, 53
13, 92160, Note_on_c, 12, 42, 84
13, 92160, Note_on_c, 12, 54, 84
13, 92350, Note_off_c, 12, 42, 53
13, 92350, Note_off_c, 12, 54, 53
13, 92352, Note_on_c, 12, 40, 84
13, 92352, Note_on_c, 12, 52, 84
13, 92542, Note_off_c, 12, 40, 53
13, 92542, Note_off_c, 12, 52, 53
13, 92544, Note_on_c, 12, 40, 84
13, 92544, Note_on_c, 12, 52, 84
13, 92734, Note_off_c, 12, 40, 53
13, 92734, Note_off_c, 12, 52, 53
13, 92736, Note_on_c, 12, 40, 84
13, 92736, Note_on_c, 12, 52, 84
13, 92926, Note_off_c, 12, 40, 53
13, 92926, Note_off_c, 12, 52, 53
13, 92928, Note_on_c, 12, 42, 84
13, 92928, Note_on_c, 12, 54, 84
13, 93118, Note_off_c, 12, 42, 53
13, 93118, Note_off_c, 12, 54, 53
13, 93120, Note_on_c, 12, 42, 84
13, 93120, Note_on_c, 12, 54, 84
13, 93310, Note_off_c, 12, 42, 53
13, 93310, Note_off_c, 12, 54, 53
13, 93312, Note_on_c, 12, 42, 84
13, 93312, Note_on_c, 12, 54, 84
13, 93502, Note_off_c, 12, 42, 53
13, 93502, Note_off_c, 12, 54, 53
13, 93504, Note_on_c, 12, 43, 84
13, 93504, Note_on_c, 12, 55, 84
13, 93694, Note_off_c, 12, 43, 53
13, 93694, Note_off_c, 12, 55, 53
13, 93696, Note_on_c, 12, 40, 84
13, 93696, Note_on_c, 12, 52, 84
13, 93886, Note_off_c, 12, 40, 53
13, 93886, Note_off_c, 12, 52, 53
13, 93888, Note_on_c, 12, 43, 84
13, 93888, Note_on_c, 12, 55, 84
13, 94078, Note_off_c, 12, 43, 53
13, 94078, Note_off_c, 12, 55, 53
13, 94080, Note_on_c, 12, 47, 84
13, 94080, Note_on_c, 12, 59, 84
13, 94270, Note_off_c, 12, 47, 53
13, 94270, Note_off_c, 12, 59, 53
13, 94272, Note_on_c, 12, 43, 84
13, 94272, Note_on_c, 12, 55, 84
13, 94462, Note_off_c, 12, 43, 53
13, 94462, Note_off_c, 12, 55, 53
13, 94464, Note_on_c, 12, 47, 84
13, 94464, Note_on_c, 12, 59, 84
13, 94654, Note_off_c, 12, 47, 53
13, 94654, Note_off_c, 12, 59, 53
13, 94656, Note_on_c, 12, 52, 84
13, 94656, Note_on_c, 12, 64, 84
13, 94846, Note_off_c, 12, 52, 53
13, 94846, Note_off_c, 12, 64, 53
13, 94848, Note_on_c, 12, 52, 84
13, 94848, Note_on_c, 12, 64, 84
13, 95038, Note_off_c, 12, 52, 53
13, 95038, Note_off_c, 12, 64, 53
13, 95040, Note_on_c, 12, 52, 84
13, 95040, Note_on_c, 12, 64, 84
13, 95230, Note_off_c, 12, 52, 53
13, 95230, Note_off_c, 12, 64, 53
13, 95232, Note_on_c, 12, 50, 84
13, 95232, Note_on_c, 12, 62, 84
13, 95422, Note_off_c, 12, 50, 53
13, 95422, Note_off_c, 12, 62, 53
13, 95424, Note_on_c, 12, 50, 84
13, 95424, Note_on_c, 12, 62, 84
13, 95614, Note_off_c, 12, 50, 53
13, 95614, Note_off_c, 12, 62, 53
13, 95616, Note_on_c, 12, 50, 84
13, 95616, Note_on_c, 12, 62, 84
13, 95806, Note_off_c, 12, 50, 53
13, 95806, Note_off_c, 12, 62, 53
13, 95808, Note_on_c, 12, 49, 84
13, 95808, Note_on_c, 12, 61, 84
13, 95998, Note_off_c, 12, 49, 53
13, 95998, Note_off_c, 12, 61, 53
13, 96000, Note_on_c, 12, 49, 84
13, 96000, Note_on_c, 12, 61, 84
13, 96190, Note_off_c, 12, 49, 53
13, 96190, Note_off_c, 12, 61, 53
13, 96192, Note_on_c, 12, 49, 84
13, 96192, Note_on_c, 12, 61, 84
13, 96382, Note_off_c, 12, 49, 53
13, 96382, Note_off_c, 12, 61, 53
13, 96384, Note_on_c, 12, 46, 84
13, 96384, Note_on_c, 12, 58, 84
13, 96574, Note_off_c, 12, 46, 53
13, 96574, Note_off_c, 12, 58, 53
13, 96576, Note_on_c, 12, 46, 84
13, 96576, Note_on_c, 12, 58, 84
13, 96766, Note_off_c, 12, 46, 53
13, 96766, Note_off_c, 12, 58, 53
13, 96768, Note_on_c, 12, 46, 84
13, 96768, Note_on_c, 12, 58, 84
13, 96958, Note_off_c, 12, 46, 53
13, 96958, Note_off_c, 12, 58, 53
13, 96960, Note_on_c, 12, 47, 84
13, 96960, Note_on_c, 12, 59, 84
13, 97150, Note_off_c, 12, 47, 53
13, 97150, Note_off_c, 12, 59, 53
13, 97152, Note_on_c, 12, 47, 84
13, 97152, Note_on_c, 12, 59, 84
13, 97342, Note_off_c, 12, 47, 53
13, 97342, Note_off_c, 12, 59, 53
13, 97344, Note_on_c, 12, 47, 84
13, 97344, Note_on_c, 12, 59, 84
13, 97534, Note_off_c, 12, 47, 53
13, 97534, Note_off_c, 12, 59, 53
13, 97536, Note_on_c, 12, 43, 84
13, 97536, Note_on_c, 12, 55, 84
13, 97726, Note_off_c, 12, 43, 53
13, 97726, Note_off_c, 12, 55, 53
13, 97728, Note_on_c, 12, 43, 84
13, 97728, Note_on_c, 12, 55, 84
13, 97918, Note_off_c, 12, 43, 53
13, 97918, Note_off_c, 12, 55, 53
13, 97920, Note_on_c, 12, 43, 84
13, 97920, Note_on_c, 12, 55, 84
13, 98110, Note_off_c, 12, 43, 53
13, 98110, Note_off_c, 12, 55, 53
13, 98112, Note_on_c, 12, 42, 84
13, 98112, Note_on_c, 12, 54, 84
13, 98302, Note_off_c, 12, 42, 53
13, 98302, Note_off_c, 12, 54, 53
13, 98304, Note_on_c, 12, 37, 84
13, 98304, Note_on_c, 12, 49, 84
13, 98494, Note_off_c, 12, 37, 53
13, 98494, Note_off_c, 12, 49, 53
13, 98496, Note_on_c, 12, 40, 84
13, 98496, Note_on_c, 12, 52, 84
13, 98686, Note_off_c, 12, 40, 53
13, 98686, Note_off_c, 12, 52, 53
13, 98688, Note_on_c, 12, 40, 84
13, 98688, Note_on_c, 12, 52, 84
13, 98878, Note_off_c, 12, 40, 53
13, 98878, Note_off_c, 12, 52, 53
13, 98880, Note_on_c, 12, 34, 84
13, 98880, Note_on_c, 12, 46, 84
13, 99070, Note_off_c, 12, 34, 53
13, 99070, Note_off_c, 12, 46, 53
13, 99072, Note_on_c, 12, 37, 84
13, 99072, Note_on_c, 12, 49, 84
13, 99262, Note_off_c, 12, 37, 53
13, 99262, Note_off_c, 12, 49, 53
13, 100416, Note_on_c, 12, 30, 84
13, 100416, Note_on_c, 12, 42, 84
13, 100606, Note_off_c, 12, 30, 53
13, 100606, Note_off_c, 12, 42, 53
13, 100608, Note_on_c, 12, 30, 84
13, 100608, Note_on_c, 12, 42, 84
13, 100798, Note_off_c, 12, 30, 53
13, 100798, Note_off_c, 12, 42, 53
13, 100800, Note_on_c, 12, 30, 84
13, 100800, Note_on_c, 12, 42, 84
13, 100990, Note_off_c, 12, 30, 53
13, 100990, Note_off_c, 12, 42, 53
13, 100992, Note_on_c, 12, 30, 84
13, 100992, Note_on_c, 12, 42, 84
13, 101182, Note_off_c, 12, 30, 53
13, 101182, Note_off_c, 12, 42, 53
13, 101184, Note_on_c, 12, 30, 84
13, 101184, Note_on_c, 12, 42, 84
13, 101374, Note_off_c, 12, 30, 53
13, 101374, Note_off_c, 12, 42, 53
13, 101376, Note_on_c, 12, 30, 84
13, 101376, Note_on_c, 12, 42, 84
13, 101566, Note_off_c, 12, 30, 53
13, 101566, Note_off_c, 12, 42, 53
13, 101568, Note_on_c, 12, 35, 84
13, 101568, Note_on_c, 12, 47, 84
13, 101950, Note_off_c, 12, 35, 53
13, 101950, Note_off_c, 12, 47, 53
13, 102720, Note_on_c, 12, 35, 84
13, 102720, Note_on_c, 12, 47, 84
13, 102910, Note_off_c, 12, 35, 53
13, 102910, Note_off_c, 12, 47, 53
13, 102912, Note_on_c, 12, 35, 84
13, 102912, Note_on_c, 12, 47, 84
13, 103102, Note_off_c, 12, 35, 53
13, 103102, Note_off_c, 12, 47, 53
13, 103104, Note_on_c, 12, 35, 84
13, 103104, Note_on_c, 12, 47, 84
13, 103294, Note_off_c, 12, 35, 53
13, 103294, Note_off_c, 12, 47, 53
13, 103296, Note_on_c, 12, 35, 84
13, 103296, Note_on_c, 12, 47, 84
13, 103486, Note_off_c, 12, 35, 53
13, 103486, Note_off_c, 12, 47, 53
13, 103488, Note_on_c, 12, 35, 84
13, 103488, Note_on_c, 12, 47, 84
13, 103678, Note_off_c, 12, 35, 53
13, 103678, Note_off_c, 12, 47, 53
13, 103680, Note_on_c, 12, 35, 84
13, 103680, Note_on_c, 12, 47, 84
13, 103870, Note_off_c, 12, 35, 53
13, 103870, Note_off_c, 12, 47, 53
13, 103872, Note_on_c, 12, 28, 84
13, 103872, Note_on_c, 12, 40, 84
13, 104062, Note_off_c, 12, 28, 53
13, 104062, Note_off_c, 12, 40, 53
13, 104064, Note_on_c, 12, 28, 84
13, 104064, Note_on_c, 12, 40, 84
13, 104254, Note_off_c, 12, 28, 53
13, 104254, Note_off_c, 12, 40, 53
13, 104256, Note_on_c, 12, 28, 84
13, 104256, Note_on_c, 12, 40, 84
13, 104446, Note_off_c, 12, 28, 53
13, 104446, Note_off_c, 12, 40, 53
13, 104448, Note_on_c, 12, 28, 84
13, 104448, Note_on_c, 12, 40, 84
13, 104638, Note_off_c, 12, 28, 53
13, 104638, Note_off_c, 12, 40, 53
13, 104640, Note_on_c, 12, 28, 84
13, 104640, Note_on_c, 12, 40, 84
13, 104830, Note_off_c, 12, 28, 53
13, 104830, Note_off_c, 12, 40, 53
13, 104832, Note_on_c, 12, 28, 84
13, 104832, Note_on_c, 12, 40, 84
13, 105022, Note_off_c, 12, 28, 53
13, 105022, Note_off_c, 12, 40, 53
13, 105024, Note_on_c, 12, 28, 84
13, 105024, Note_on_c, 12, 40, 84
13, 105214, Note_off_c, 12, 28, 53
13, 105214, Note_off_c, 12, 40, 53
13, 105216, Note_on_c, 12, 28, 84
13, 105216, Note_on_c, 12, 40, 84
13, 105406, Note_off_c, 12, 28, 53
13, 105406, Note_off_c, 12, 40, 53
13, 105408, Note_on_c, 12, 28, 84
13, 105408, Note_on_c, 12, 40, 84
13, 105598, Note_off_c, 12, 28, 53
13, 105598, Note_off_c, 12, 40, 53
13, 105600, Note_on_c, 12, 28, 84
13, 105600, Note_on_c, 12, 40, 84
13, 105790, Note_off_c, 12, 28, 53
13, 105790, Note_off_c, 12, 40, 53
13, 105792, Note_on_c, 12, 28, 84
13, 105792, Note_on_c, 12, 40, 84
13, 105982, Note_off_c, 12, 28, 53
13, 105982, Note_off_c, 12, 40, 53
13, 105984, Note_on_c, 12, 40, 84
13, 105984, Note_on_c, 12, 52, 84
13, 106174, Note_off_c, 12, 40, 53
13, 106174, Note_off_c, 12, 52, 53
13, 106176, Note_on_c, 12, 38, 84
13, 106176, Note_on_c, 12, 50, 84
13, 106366, Note_off_c, 12, 38, 53
13, 106366, Note_off_c, 12, 50, 53
13, 106368, Note_on_c, 12, 37, 84
13, 106368, Note_on_c, 12, 49, 84
13, 106558, Note_off_c, 12, 37, 53
13, 106558, Note_off_c, 12, 49, 53
13, 106560, Note_on_c, 12, 35, 84
13, 106560, Note_on_c, 12, 47, 84
13, 106750, Note_off_c, 12, 35, 53
13, 106750, Note_off_c, 12, 47, 53
13, 106752, Note_on_c, 12, 42, 84
13, 106752, Note_on_c, 12, 54, 84
13, 106942, Note_off_c, 12, 42, 53
13, 106942, Note_off_c, 12, 54, 53
13, 106944, Note_on_c, 12, 42, 84
13, 106944, Note_on_c, 12, 54, 84
13, 107134, Note_off_c, 12, 42, 53
13, 107134, Note_off_c, 12, 54, 53
13, 107136, Note_on_c, 12, 30, 84
13, 107136, Note_on_c, 12, 42, 84
13, 107326, Note_off_c, 12, 30, 53
13, 107326, Note_off_c, 12, 42, 53
13, 107328, Note_on_c, 12, 35, 84
13, 107328, Note_on_c, 12, 47, 84
13, 107518, Note_off_c, 12, 35, 53
13, 107518, Note_off_c, 12, 47, 53
13, 107520, Note_on_c, 12, 26, 84
13, 107520, Note_on_c, 12, 38, 84
13, 107710, Note_off_c, 12, 26, 53
13, 107710, Note_off_c, 12, 38, 53
13, 107712, Note_on_c, 12, 30, 84
13, 107712, Note_on_c, 12, 42, 84
13, 107902, Note_off_c, 12, 30, 53
13, 107902, Note_off_c, 12, 42, 53
13, 107904, Note_on_c, 12, 35, 84
13, 107904, Note_on_c, 12, 47, 84
13, 108094, Note_off_c, 12, 35, 53
13, 108094, Note_off_c, 12, 47, 53
13, 108096, Note_on_c, 12, 38, 84
13, 108096, Note_on_c, 12, 50, 84
13, 108286, Note_off_c, 12, 38, 53
13, 108286, Note_off_c, 12, 50, 53
13, 108288, Note_on_c, 12, 42, 84
13, 108288, Note_on_c, 12, 54, 84
13, 108478, Note_off_c, 12, 42, 53
13, 108478, Note_off_c, 12, 54, 53
13, 108480, Note_on_c, 12, 47, 84
13, 108480, Note_on_c, 12, 59, 84
13, 108670, Note_off_c, 12, 47, 53
13, 108670, Note_off_c, 12, 59, 53
13, 108672, Note_on_c, 12, 47, 84
13, 108672, Note_on_c, 12, 59, 84
13, 108862, Note_off_c, 12, 47, 53
13, 108862, Note_off_c, 12, 59, 53
13, 108864, Note_on_c, 12, 47, 84
13, 108864, Note_on_c, 12, 59, 84
13, 109054, Note_off_c, 12, 47, 53
13, 109054, Note_off_c, 12, 59, 53
13, 109056, Note_on_c, 12, 45, 84
13, 109056, Note_on_c, 12, 57, 84
13, 109246, Note_off_c, 12, 45, 53
13, 109246, Note_off_c, 12, 57, 53
13, 109248, Note_on_c, 12, 45, 84
13, 109248, Note_on_c, 12, 57, 84
13, 109438, Note_off_c, 12, 45, 53
13, 109438, Note_off_c, 12, 57, 53
13, 109440, Note_on_c, 12, 45, 84
13, 109440, Note_on_c, 12, 57, 84
13, 109630, Note_off_c, 12, 45, 53
13, 109630, Note_off_c, 12, 57, 53
13, 109632, Note_on_c, 12, 43, 84
13, 109632, Note_on_c, 12, 55, 84
13, 109822, Note_off_c, 12, 43, 53
13, 109822, Note_off_c, 12, 55, 53
13, 109824, Note_on_c, 12, 43, 84
13, 109824, Note_on_c, 12, 55, 84
13, 110014, Note_off_c, 12, 43, 53
13, 110014, Note_off_c, 12, 55, 53
13, 110016, Note_on_c, 12, 43, 84
13, 110016, Note_on_c, 12, 55, 84
13, 110206, Note_off_c, 12, 43, 53
13, 110206, Note_off_c, 12, 55, 53
13, 110208, Note_on_c, 12, 42, 84
13, 110208, Note_on_c, 12, 54, 84
13, 110398, Note_off_c, 12, 42, 53
13, 110398, Note_off_c, 12, 54, 53
13, 110400, Note_on_c, 12, 42, 84
13, 110400, Note_on_c, 12, 54, 84
13, 110590, Note_off_c, 12, 42, 53
13, 110590, Note_off_c, 12, 54, 53
13, 110592, Note_on_c, 12, 42, 84
13, 110592, Note_on_c, 12, 54, 84
13, 110782, Note_off_c, 12, 42, 53
13, 110782, Note_off_c, 12, 54, 53
13, 110784, Note_on_c, 12, 40, 84
13, 110784, Note_on_c, 12, 52, 84
13, 110974, Note_off_c, 12, 40, 53
13, 110974, Note_off_c, 12, 52, 53
13, 110976, Note_on_c, 12, 40, 84
13, 110976, Note_on_c, 12, 52, 84
13, 111166, Note_off_c, 12, 40, 53
13, 111166, Note_off_c, 12, 52, 53
13, 111168, Note_on_c, 12, 40, 84
13, 111168, Note_on_c, 12, 52, 84
13, 111358, Note_off_c, 12, 40, 53
13, 111358, Note_off_c, 12, 52, 53
13, 111360, Note_on_c, 12, 42, 84
13, 111360, Note_on_c, 12, 54, 84
13, 111550, Note_off_c, 12, 42, 53
13, 111550, Note_off_c, 12, 54, 53
13, 111552, Note_on_c, 12, 42, 84
13, 111552, Note_on_c, 12, 54, 84
13, 111742, Note_off_c, 12, 42, 53
13, 111742, Note_off_c, 12, 54, 53
13, 111744, Note_on_c, 12, 42, 84
13, 111744, Note_on_c, 12, 54, 84
13, 111934, Note_off_c, 12, 42, 53
13, 111934, Note_off_c, 12, 54, 53
13, 111936, Note_on_c, 12, 43, 84
13, 111936, Note_on_c, 12, 55, 84
13, 112126, Note_off_c, 12, 43, 53
13, 112126, Note_off_c, 12, 55, 53
13, 112128, Note_on_c, 12, 40, 84
13, 112128, Note_on_c, 12, 52, 84
13, 112318, Note_off_c, 12, 40, 53
13, 112318, Note_off_c, 12, 52, 53
13, 112320, Note_on_c, 12, 43, 84
13, 112320, Note_on_c, 12, 55, 84
13, 112510, Note_off_c, 12, 43, 53
13, 112510, Note_off_c, 12, 55, 53
13, 112512, Note_on_c, 12, 47, 84
13, 112512, Note_on_c, 12, 59, 84
13, 112702, Note_off_c, 12, 47, 53
13, 112702, Note_off_c, 12, 59, 53
13, 112704, Note_on_c, 12, 43, 84
13, 112704, Note_on_c, 12, 55, 84
13, 112894, Note_off_c, 12, 43, 53
13, 112894, Note_off_c, 12, 55, 53
13, 112896, Note_on_c, 12, 47, 84
13, 112896, Note_on_c, 12, 59, 84
13, 113086, Note_off_c, 12, 47, 53
13, 113086, Note_off_c, 12, 59, 53
13, 113088, Note_on_c, 12, 52, 84
13, 113088, Note_on_c, 12, 64, 84
13, 113278, Note_off_c, 12, 52, 53
13, 113278, Note_off_c, 12, 64, 53
13, 113280, Note_on_c, 12, 52, 84
13, 113280, Note_on_c, 12, 64, 84
13, 113470, Note_off_c, 12, 52, 53
13, 113470, Note_off_c, 12, 64, 53
13, 113472, Note_on_c, 12, 52, 84
13, 113472, Note_on_c, 12, 64, 84
13, 113662, Note_off_c, 12, 52, 53
13, 113662, Note_off_c, 12, 64, 53
13, 113664, Note_on_c, 12, 50, 84
13, 113664, Note_on_c, 12, 62, 84
13, 113854, Note_off_c, 12, 50, 53
13, 113854, Note_off_c, 12, 62, 53
13, 113856, Note_on_c, 12, 50, 84
13, 113856, Note_on_c, 12, 62, 84
13, 114046, Note_off_c, 12, 50, 53
13, 114046, Note_off_c, 12, 62, 53
13, 114048, Note_on_c, 12, 50, 84
13, 114048, Note_on_c, 12, 62, 84
13, 114238, Note_off_c, 12, 50, 53
13, 114238, Note_off_c, 12, 62, 53
13, 114240, Note_on_c, 12, 49, 84
13, 114240, Note_on_c, 12, 61, 84
13, 114430, Note_off_c, 12, 49, 53
13, 114430, Note_off_c, 12, 61, 53
13, 114432, Note_on_c, 12, 49, 84
13, 114432, Note_on_c, 12, 61, 84
13, 114622, Note_off_c, 12, 49, 53
13, 114622, Note_off_c, 12, 61, 53
13, 114624, Note_on_c, 12, 49, 84
13, 114624, Note_on_c, 12, 61, 84
13, 114814, Note_off_c, 12, 49, 53
13, 114814, Note_off_c, 12, 61, 53
13, 114816, Note_on_c, 12, 46, 84
13, 114816, Note_on_c, 12, 58, 84
13, 115006, Note_off_c, 12, 46, 53
13, 115006, Note_off_c, 12, 58, 53
13, 115008, Note_on_c, 12, 46, 84
13, 115008, Note_on_c, 12, 58, 84
13, 115198, Note_off_c, 12, 46, 53
13, 115198, Note_off_c, 12, 58, 53
13, 115200, Note_on_c, 12, 46, 84
13, 115200, Note_on_c, 12, 58, 84
13, 115390, Note_off_c, 12, 46, 53
13, 115390, Note_off_c, 12, 58, 53
13, 115392, Note_on_c, 12, 47, 84
13, 115392, Note_on_c, 12, 59, 84
13, 115582, Note_off_c, 12, 47, 53
13, 115582, Note_off_c, 12, 59, 53
13, 115584, Note_on_c, 12, 47, 84
13, 115584, Note_on_c, 12, 59, 84
13, 115774, Note_off_c, 12, 47, 53
13, 115774, Note_off_c, 12, 59, 53
13, 115776, Note_on_c, 12, 47, 84
13, 115776, Note_on_c, 12, 59, 84
13, 115966, Note_off_c, 12, 47, 53
13, 115966, Note_off_c, 12, 59, 53
13, 115968, Note_on_c, 12, 43, 84
13, 115968, Note_on_c, 12, 55, 84
13, 116158, Note_off_c, 12, 43, 53
13, 116158, Note_off_c, 12, 55, 53
13, 116160, Note_on_c, 12, 43, 84
13, 116160, Note_on_c, 12, 55, 84
13, 116350, Note_off_c, 12, 43, 53
13, 116350, Note_off_c, 12, 55, 53
13, 116352, Note_on_c, 12, 43, 84
13, 116352, Note_on_c, 12, 55, 84
13, 116542, Note_off_c, 12, 43, 53
13, 116542, Note_off_c, 12, 55, 53
13, 116544, Note_on_c, 12, 42, 84
13, 116544, Note_on_c, 12, 54, 84
13, 116734, Note_off_c, 12, 42, 53
13, 116734, Note_off_c, 12, 54, 53
13, 116736, Note_on_c, 12, 37, 84
13, 116736, Note_on_c, 12, 49, 84
13, 116926, Note_off_c, 12, 37, 53
13, 116926, Note_off_c, 12, 49, 53
13, 116928, Note_on_c, 12, 40, 84
13, 116928, Note_on_c, 12, 52, 84
13, 117118, Note_off_c, 12, 40, 53
13, 117118, Note_off_c, 12, 52, 53
13, 117120, Note_on_c, 12, 40, 84
13, 117120, Note_on_c, 12, 52, 84
13, 117310, Note_off_c, 12, 40, 53
13, 117310, Note_off_c, 12, 52, 53
13, 117312, Note_on_c, 12, 34, 84
13, 117312, Note_on_c, 12, 46, 84
13, 117502, Note_off_c, 12, 34, 53
13, 117502, Note_off_c, 12, 46, 53
13, 117504, Note_on_c, 12, 37, 84
13, 117504, Note_on_c, 12, 49, 84
13, 117694, Note_off_c, 12, 37, 53
13, 117694, Note_off_c, 12, 49, 53
13, 117696, Note_on_c, 12, 30, 84
13, 117696, Note_on_c, 12, 42, 84
13, 118078, Note_off_c, 12, 30, 53
13, 118078, Note_off_c, 12, 42, 53
13, 118848, Note_on_c, 12, 30, 84
13, 118848, Note_on_c, 12, 42, 84
13, 119038, Note_off_c, 12, 30, 53
13, 119038, Note_off_c, 12, 42, 53
13, 119040, Note_on_c, 12, 30, 84
13, 119040, Note_on_c, 12, 42, 84
13, 119230, Note_off_c, 12, 30, 53
13, 119230, Note_off_c, 12, 42, 53
13, 119232, Note_on_c, 12, 30, 84
13, 119232, Note_on_c, 12, 42, 84
13, 119422, Note_off_c, 12, 30, 53
13, 119422, Note_off_c, 12, 42, 53
13, 119424, Note_on_c, 12, 30, 84
13, 119424, Note_on_c, 12, 42, 84
13, 119614, Note_off_c, 12, 30, 53
13, 119614, Note_off_c, 12, 42, 53
13, 119616, Note_on_c, 12, 30, 84
13, 119616, Note_on_c, 12, 42, 84
13, 119806, Note_off_c, 12, 30, 53
13, 119806, Note_off_c, 12, 42, 53
13, 119808, Note_on_c, 12, 30, 84
13, 119808, Note_on_c, 12, 42, 84
13, 119998, Note_off_c, 12, 30, 53
13, 119998, Note_off_c, 12, 42, 53
13, 120000, Note_on_c, 12, 35, 84
13, 120000, Note_on_c, 12, 47, 84
13, 120382, Note_off_c, 12, 35, 53
13, 120382, Note_off_c, 12, 47, 53
13, 121152, Note_on_c, 12, 35, 84
13, 121152, Note_on_c, 12, 47, 84
13, 121342, Note_off_c, 12, 35, 53
13, 121342, Note_off_c, 12, 47, 53
13, 121344, Note_on_c, 12, 35, 84
13, 121344, Note_on_c, 12, 47, 84
13, 121534, Note_off_c, 12, 35, 53
13, 121534, Note_off_c, 12, 47, 53
13, 121536, Note_on_c, 12, 35, 84
13, 121536, Note_on_c, 12, 47, 84
13, 121726, Note_off_c, 12, 35, 53
13, 121726, Note_off_c, 12, 47, 53
13, 121728, Note_on_c, 12, 35, 84
13, 121728, Note_on_c, 12, 47, 84
13, 121918, Note_off_c, 12, 35, 53
13, 121918, Note_off_c, 12, 47, 53
13, 121920, Note_on_c, 12, 35, 84
13, 121920, Note_on_c, 12, 47, 84
13, 122110, Note_off_c, 12, 35, 53
13, 122110, Note_off_c, 12, 47, 53
13, 122112, Note_on_c, 12, 35, 84
13, 122112, Note_on_c, 12, 47, 84
13, 122302, Note_off_c, 12, 35, 53
13, 122302, Note_off_c, 12, 47, 53
13, 122304, Note_on_c, 12, 28, 84
13, 122304, Note_on_c, 12, 40, 84
13, 122494, Note_off_c, 12, 28, 53
13, 122494, Note_off_c, 12, 40, 53
13, 122496, Note_on_c, 12, 28, 84
13, 122496, Note_on_c, 12, 40, 84
13, 122686, Note_off_c, 12, 28, 53
13, 122686, Note_off_c, 12, 40, 53
13, 122688, Note_on_c, 12, 28, 84
13, 122688, Note_on_c, 12, 40, 84
13, 122878, Note_off_c, 12, 28, 53
13, 122878, Note_off_c, 12, 40, 53
13, 122880, Note_on_c, 12, 28, 84
13, 122880, Note_on_c, 12, 40, 84
13, 123070, Note_off_c, 12, 28, 53
13, 123070, Note_off_c, 12, 40, 53
13, 123072, Note_on_c, 12, 28, 84
13, 123072, Note_on_c, 12, 40, 84
13, 123262, Note_off_c, 12, 28, 53
13, 123262, Note_off_c, 12, 40, 53
13, 123264, Note_on_c, 12, 28, 84
13, 123264, Note_on_c, 12, 40, 84
13, 123454, Note_off_c, 12, 28, 53
13, 123454, Note_off_c, 12, 40, 53
13, 123456, Note_on_c, 12, 28, 84
13, 123456, Note_on_c, 12, 40, 84
13, 123646, Note_off_c, 12, 28, 53
13, 123646, Note_off_c, 12, 40, 53
13, 123648, Note_on_c, 12, 28, 84
13, 123648, Note_on_c, 12, 40, 84
13, 123838, Note_off_c, 12, 28, 53
13, 123838, Note_off_c, 12, 40, 53
13, 123840, Note_on_c, 12, 28, 84
13, 123840, Note_on_c, 12, 40, 84
13, 124030, Note_off_c, 12, 28, 53
13, 124030, Note_off_c, 12, 40, 53
13, 124032, Note_on_c, 12, 28, 84
13, 124032, Note_on_c, 12, 40, 84
13, 124222, Note_off_c, 12, 28, 53
13, 124222, Note_off_c, 12, 40, 53
13, 124224, Note_on_c, 12, 28, 84
13, 124224, Note_on_c, 12, 40, 84
13, 124414, Note_off_c, 12, 28, 53
13, 124414, Note_off_c, 12, 40, 53
13, 124416, Note_on_c, 12, 40, 84
13, 124416, Note_on_c, 12, 52, 84
13, 124606, Note_off_c, 12, 40, 53
13, 124606, Note_off_c, 12, 52, 53
13, 124608, Note_on_c, 12, 38, 84
13, 124608, Note_on_c, 12, 50, 84
13, 124798, Note_off_c, 12, 38, 53
13, 124798, Note_off_c, 12, 50, 53
13, 124800, Note_on_c, 12, 37, 84
13, 124800, Note_on_c, 12, 49, 84
13, 124990, Note_off_c, 12, 37, 53
13, 124990, Note_off_c, 12, 49, 53
13, 124992, Note_on_c, 12, 35, 84
13, 124992, Note_on_c, 12, 47, 84
13, 125182, Note_off_c, 12, 35, 53
13, 125182, Note_off_c, 12, 47, 53
13, 125184, Note_on_c, 12, 42, 84
13, 125184, Note_on_c, 12, 54, 84
13, 125374, Note_off_c, 12, 42, 53
13, 125374, Note_off_c, 12, 54, 53
13, 125376, Note_on_c, 12, 30, 84
13, 125376, Note_on_c, 12, 42, 84
13, 125566, Note_off_c, 12, 30, 53
13, 125566, Note_off_c, 12, 42, 53
13, 125568, Note_on_c, 12, 30, 84
13, 125568, Note_on_c, 12, 42, 84
13, 125758, Note_off_c, 12, 30, 53
13, 125758, Note_off_c, 12, 42, 53
13, 125760, Note_on_c, 12, 35, 84
13, 125760, Note_on_c, 12, 47, 84
13, 126718, Note_off_c, 12, 35, 53
13, 126718, Note_off_c, 12, 47, 53
13, 126720, Note_on_c, 12, 35, 84
13, 126720, Note_on_c, 12, 47, 84
13, 126910, Note_off_c, 12, 35, 53
13, 126910, Note_off_c, 12, 47, 53
13, 126912, Note_on_c, 12, 35, 84
13, 126912, Note_on_c, 12, 23, 84
13, 126912, Note_on_c, 12, 47, 84
13, 126912, Note_on_c, 12, 35, 84
13, 128060, Note_off_c, 12, 35, 53
13, 128060, Note_off_c, 12, 23, 53
13, 128060, Note_off_c, 12, 47, 53
13, 128060, Note_off_c, 12, 35, 53
13, 128060, End_track
14, 0, Start_track
14, 0, Title_t, """Erbarme dich, mein Gott"" from"
14, 0, Key_signature, 0, "major"
14, 0, End_track
15, 0, Start_track
15, 0, Title_t, "St. Matthew Passion  (BWV244)"
15, 0, Key_signature, 0, "major"
15, 0, End_track
16, 0, Start_track
16, 0, Title_t, "by J.S. Bach, 1729"
16, 0, Key_signature, 0, "major"
16, 0, End_track
17, 0, Start_track
17, 0, Title_t, "Sequenced by Ken Whitcomb \2511997"
17, 0, Key_signature, 0, "major"
17, 0, End_track
18, 0, Start_track
18, 0, Title_t, "kendawl@aol.com"
18, 0, Key_signature, 0, "major"
18, 0, End_track
0, 0, End_of_file