0, 0, Header, 1, 4, 120
1, 0, Start_track
1, 0, Time_signature, 4, 2, 24, 8
1, 0, Key_signature, -2, "major"
1, 0, Tempo, 745342
1, 25, Tempo, 863309
1, 95, Tempo, 857143
1, 165, Tempo, 851064
1, 10320, Tempo, 754717
1, 10333, Tempo, 759494
1, 10346, Tempo, 764331
1, 10360, Tempo, 769231
1, 10370, Tempo, 774194
1, 10383, Tempo, 779221
1, 10396, Tempo, 784314
1, 10410, Tempo, 789474
1, 10420, Tempo, 794702
1, 10433, Tempo, 800000
1, 10446, Tempo, 805369
1, 10460, Tempo, 810811
1, 10470, Tempo, 816327
1, 10483, Tempo, 821918
1, 10496, Tempo, 827586
1, 10510, Tempo, 833333
1, 10520, Tempo, 839161
1, 10533, Tempo, 845070
1, 10546, Tempo, 851064
1, 10560, Tempo, 857143
1, 10570, Tempo, 863309
1, 10583, Tempo, 869565
1, 10596, Tempo, 875912
1, 10610, Tempo, 882353
1, 10620, Tempo, 888889
1, 10633, Tempo, 895522
1, 10646, Tempo, 902256
1, 10656, Tempo, 909091
1, 10670, Tempo, 916031
1, 10683, Tempo, 923077
1, 10696, Tempo, 930233
1, 10706, Tempo, 937500
1, 10720, Tempo, 944882
1, 10733, Tempo, 952381
1, 10746, Tempo, 960000
1, 10756, Tempo, 967742
1, 10770, Tempo, 975610
1, 10783, Tempo, 983607
1, 10796, Tempo, 991736
1, 10806, Tempo, 1000000
1, 10820, Tempo, 1008403
1, 10833, Tempo, 1016949
1, 10846, Tempo, 1025641
1, 10856, Tempo, 1034483
1, 10870, Tempo, 1043478
1, 10883, Tempo, 1052632
1, 10896, Tempo, 1061947
1, 10906, Tempo, 1071429
1, 10920, Tempo, 1081081
1, 10933, Tempo, 1090909
1, 10946, Tempo, 1100917
1, 10956, Tempo, 1111111
1, 10970, Tempo, 1121495
1, 10983, Tempo, 1132075
1, 10993, Tempo, 1142857
1, 11006, Tempo, 1153846
1, 11020, Tempo, 1165049
1, 11033, Tempo, 1176471
1, 11043, Tempo, 1188119
1, 11056, Tempo, 1200000
1, 11070, Tempo, 1212121
1, 11083, Tempo, 1224490
1, 11093, Tempo, 1237113
1, 11106, Tempo, 1250000
1, 11120, Tempo, 1263158
1, 11133, Tempo, 1276596
1, 11143, Tempo, 1290323
1, 11156, Tempo, 1304348
1, 11170, Tempo, 1318681
1, 11183, Tempo, 1333333
1, 11193, Tempo, 1348315
1, 11206, Tempo, 1363636
1, 11220, Tempo, 1379310
1, 11233, Tempo, 1395349
1, 11243, Tempo, 1411765
1, 11256, Tempo, 1428571
1, 11270, Tempo, 1445783
1, 11280, Tempo, 1463415
1, 11283, Tempo, 991736
1, 11286, Tempo, 1445783
1, 11473, Tempo, 1463415
1, 11656, Tempo, 1481481
1, 11840, Tempo, 1500000
1, 12023, Tempo, 1518987
1, 12023, End_track
2, 0, Start_track
2, 0, MIDI_port, 0
2, 0, Title_t, "FLUTE"
2, 0, Program_c, 0, 0
2, 0, Control_c, 0, 7, 97
2, 0, Control_c, 0, 10, 37
2, 30, Note_on_c, 0, 62, 64
2, 40, Control_c, 0, 7, 81
2, 60, Note_on_c, 0, 62, 0
2, 60, Note_on_c, 0, 64, 64
2, 90, Note_on_c, 0, 64, 0
2, 90, Note_on_c, 0, 66, 64
2, 120, Note_on_c, 0, 66, 0
2, 120, Note_on_c, 0, 67, 64
2, 150, Note_on_c, 0, 67, 0
2, 150, Note_on_c, 0, 69, 64
2, 180, Note_on_c, 0, 69, 0
2, 180, Note_on_c, 0, 70, 64
2, 210, Note_on_c, 0, 70, 0
2, 210, Note_on_c, 0, 67, 64
2, 210, Control_c, 0, 7, 82
2, 240, Note_on_c, 0, 67, 0
2, 240, Note_on_c, 0, 69, 64
2, 270, Note_on_c, 0, 69, 0
2, 270, Note_on_c, 0, 67, 64
2, 300, Note_on_c, 0, 67, 0
2, 300, Note_on_c, 0, 66, 64
2, 330, Note_on_c, 0, 66, 0
2, 330, Note_on_c, 0, 64, 64
2, 360, Note_on_c, 0, 64, 0
2, 360, Note_on_c, 0, 62, 64
2, 390, Note_on_c, 0, 62, 0
2, 390, Note_on_c, 0, 72, 64
2, 420, Note_on_c, 0, 72, 0
2, 420, Note_on_c, 0, 70, 64
2, 450, Note_on_c, 0, 70, 0
2, 450, Note_on_c, 0, 69, 64
2, 480, Note_on_c, 0, 69, 0
2, 480, Note_on_c, 0, 67, 64
2, 510, Note_on_c, 0, 67, 0
2, 510, Note_on_c, 0, 65, 64
2, 540, Note_on_c, 0, 65, 0
2, 540, Note_on_c, 0, 64, 64
2, 570, Note_on_c, 0, 64, 0
2, 570, Note_on_c, 0, 62, 64
2, 600, Note_on_c, 0, 62, 0
2, 600, Note_on_c, 0, 60, 64
2, 630, Note_on_c, 0, 60, 0
2, 630, Note_on_c, 0, 70, 64
2, 660, Note_on_c, 0, 70, 0
2, 660, Note_on_c, 0, 69, 64
2, 690, Note_on_c, 0, 69, 0
2, 690, Note_on_c, 0, 67, 64
2, 720, Note_on_c, 0, 67, 0
2, 720, Note_on_c, 0, 74, 64
2, 750, Note_on_c, 0, 74, 0
2, 750, Note_on_c, 0, 72, 64
2, 780, Note_on_c, 0, 72, 0
2, 780, Note_on_c, 0, 70, 64
2, 810, Note_on_c, 0, 70, 0
2, 810, Note_on_c, 0, 74, 64
2, 840, Note_on_c, 0, 74, 0
2, 840, Note_on_c, 0, 72, 64
2, 870, Note_on_c, 0, 72, 0
2, 870, Note_on_c, 0, 70, 64
2, 900, Note_on_c, 0, 70, 0
2, 900, Note_on_c, 0, 69, 64
2, 930, Note_on_c, 0, 69, 0
2, 930, Note_on_c, 0, 72, 64
2, 960, Note_on_c, 0, 72, 0
2, 960, Note_on_c, 0, 70, 64
2, 990, Note_on_c, 0, 70, 0
2, 990, Note_on_c, 0, 69, 64
2, 1020, Note_on_c, 0, 69, 0
2, 1020, Note_on_c, 0, 67, 64
2, 1050, Note_on_c, 0, 67, 0
2, 1050, Note_on_c, 0, 69, 64
2, 1080, Note_on_c, 0, 69, 0
2, 1080, Note_on_c, 0, 70, 64
2, 1110, Note_on_c, 0, 70, 0
2, 1110, Note_on_c, 0, 72, 64
2, 1140, Note_on_c, 0, 72, 0
2, 1140, Note_on_c, 0, 74, 64
2, 1170, Note_on_c, 0, 74, 0
2, 1170, Note_on_c, 0, 76, 64
2, 1200, Note_on_c, 0, 76, 0
2, 1200, Note_on_c, 0, 77, 64
2, 1260, Note_on_c, 0, 77, 0
2, 1260, Note_on_c, 0, 74, 64
2, 1290, Note_on_c, 0, 74, 0
2, 1380, Note_on_c, 0, 74, 64
2, 1440, Note_on_c, 0, 74, 0
2, 1440, Note_on_c, 0, 75, 64
2, 1450, Control_c, 0, 7, 78
2, 1470, Note_on_c, 0, 75, 0
2, 1470, Note_on_c, 0, 74, 64
2, 1470, Control_c, 0, 7, 79
2, 1480, Control_c, 0, 7, 80
2, 1500, Note_on_c, 0, 74, 0
2, 1500, Note_on_c, 0, 72, 64
2, 1500, Control_c, 0, 7, 81
2, 1510, Control_c, 0, 7, 82
2, 1530, Note_on_c, 0, 72, 0
2, 1530, Note_on_c, 0, 74, 64
2, 1530, Control_c, 0, 7, 83
2, 1540, Control_c, 0, 7, 84
2, 1550, Control_c, 0, 7, 85
2, 1560, Note_on_c, 0, 74, 0
2, 1560, Note_on_c, 0, 75, 64
2, 1570, Control_c, 0, 7, 86
2, 1580, Control_c, 0, 7, 87
2, 1600, Control_c, 0, 7, 88
2, 1610, Control_c, 0, 7, 89
2, 1620, Note_on_c, 0, 75, 0
2, 1620, Note_on_c, 0, 76, 64
2, 1630, Control_c, 0, 7, 90
2, 1640, Control_c, 0, 7, 91
2, 1650, Control_c, 0, 7, 92
2, 1670, Control_c, 0, 7, 93
2, 1680, Note_on_c, 0, 76, 0
2, 1680, Note_on_c, 0, 77, 64
2, 1680, Control_c, 0, 7, 94
2, 1700, Control_c, 0, 7, 95
2, 1710, Note_on_c, 0, 77, 0
2, 1710, Note_on_c, 0, 76, 64
2, 1710, Control_c, 0, 7, 96
2, 1720, Control_c, 0, 7, 97
2, 1740, Note_on_c, 0, 76, 0
2, 1740, Note_on_c, 0, 74, 64
2, 1740, Control_c, 0, 7, 98
2, 1750, Control_c, 0, 7, 99
2, 1770, Note_on_c, 0, 74, 0
2, 1770, Note_on_c, 0, 76, 64
2, 1770, Control_c, 0, 7, 100
2, 1780, Control_c, 0, 7, 101
2, 1800, Note_on_c, 0, 76, 0
2, 1800, Note_on_c, 0, 77, 64
2, 1800, Control_c, 0, 7, 102
2, 1810, Control_c, 0, 7, 103
2, 1820, Control_c, 0, 7, 104
2, 1840, Control_c, 0, 7, 105
2, 1850, Control_c, 0, 7, 106
2, 1860, Note_on_c, 0, 77, 0
2, 1860, Note_on_c, 0, 78, 64
2, 1870, Control_c, 0, 7, 107
2, 1880, Control_c, 0, 7, 108
2, 1890, Control_c, 0, 7, 109
2, 1920, Note_on_c, 0, 78, 0
2, 1920, Note_on_c, 0, 79, 64
2, 1930, Control_c, 0, 7, 108
2, 1950, Control_c, 0, 7, 107
2, 1970, Control_c, 0, 7, 106
2, 1980, Note_on_c, 0, 79, 0
2, 1980, Note_on_c, 0, 74, 64
2, 1980, Control_c, 0, 7, 105
2, 2000, Control_c, 0, 7, 104
2, 2010, Note_on_c, 0, 74, 0
2, 2010, Note_on_c, 0, 72, 64
2, 2010, Control_c, 0, 7, 103
2, 2030, Control_c, 0, 7, 102
2, 2040, Note_on_c, 0, 72, 0
2, 2040, Note_on_c, 0, 74, 64
2, 2040, Control_c, 0, 7, 101
2, 2060, Control_c, 0, 7, 100
2, 2070, Note_on_c, 0, 74, 0
2, 2070, Note_on_c, 0, 75, 64
2, 2070, Control_c, 0, 7, 99
2, 2090, Control_c, 0, 7, 98
2, 2100, Note_on_c, 0, 75, 0
2, 2100, Note_on_c, 0, 77, 64
2, 2100, Control_c, 0, 7, 97
2, 2120, Control_c, 0, 7, 96
2, 2130, Note_on_c, 0, 77, 0
2, 2130, Note_on_c, 0, 74, 64
2, 2130, Control_c, 0, 7, 95
2, 2150, Control_c, 0, 7, 94
2, 2160, Note_on_c, 0, 74, 0
2, 2160, Note_on_c, 0, 75, 64
2, 2160, Control_c, 0, 7, 93
2, 2180, Control_c, 0, 7, 92
2, 2190, Note_on_c, 0, 75, 0
2, 2190, Note_on_c, 0, 74, 64
2, 2190, Control_c, 0, 7, 91
2, 2210, Control_c, 0, 7, 90
2, 2220, Note_on_c, 0, 74, 0
2, 2220, Note_on_c, 0, 72, 64
2, 2220, Control_c, 0, 7, 89
2, 2240, Control_c, 0, 7, 88
2, 2250, Note_on_c, 0, 72, 0
2, 2250, Note_on_c, 0, 70, 64
2, 2250, Control_c, 0, 7, 87
2, 2270, Control_c, 0, 7, 86
2, 2280, Note_on_c, 0, 70, 0
2, 2280, Note_on_c, 0, 69, 64
2, 2280, Control_c, 0, 7, 85
2, 2300, Control_c, 0, 7, 84
2, 2310, Note_on_c, 0, 69, 0
2, 2310, Note_on_c, 0, 79, 64
2, 2310, Control_c, 0, 7, 83
2, 2330, Control_c, 0, 7, 82
2, 2340, Note_on_c, 0, 79, 0
2, 2340, Note_on_c, 0, 77, 64
2, 2340, Control_c, 0, 7, 81
2, 2360, Control_c, 0, 7, 80
2, 2370, Note_on_c, 0, 77, 0
2, 2370, Note_on_c, 0, 75, 64
2, 2370, Control_c, 0, 7, 79
2, 2390, Control_c, 0, 7, 78
2, 2400, Note_on_c, 0, 75, 0
2, 2400, Note_on_c, 0, 74, 64
2, 2400, Control_c, 0, 7, 77
2, 2430, Note_on_c, 0, 74, 0
2, 2430, Note_on_c, 0, 72, 64
2, 2430, Control_c, 0, 7, 76
2, 2460, Note_on_c, 0, 72, 0
2, 2460, Note_on_c, 0, 74, 64
2, 2490, Note_on_c, 0, 74, 0
2, 2490, Note_on_c, 0, 76, 64
2, 2500, Control_c, 0, 7, 77
2, 2520, Note_on_c, 0, 76, 0
2, 2520, Note_on_c, 0, 77, 64
2, 2550, Note_on_c, 0, 77, 0
2, 2550, Note_on_c, 0, 79, 64
2, 2570, Control_c, 0, 7, 78
2, 2580, Note_on_c, 0, 79, 0
2, 2580, Note_on_c, 0, 81, 64
2, 2610, Note_on_c, 0, 81, 0
2, 2610, Note_on_c, 0, 77, 64
2, 2630, Control_c, 0, 7, 79
2, 2640, Note_on_c, 0, 77, 0
2, 2640, Note_on_c, 0, 79, 64
2, 2670, Note_on_c, 0, 79, 0
2, 2670, Note_on_c, 0, 77, 64
2, 2700, Note_on_c, 0, 77, 0
2, 2700, Note_on_c, 0, 76, 64
2, 2700, Control_c, 0, 7, 80
2, 2730, Note_on_c, 0, 76, 0
2, 2730, Note_on_c, 0, 74, 64
2, 2760, Note_on_c, 0, 74, 0
2, 2760, Note_on_c, 0, 73, 64
2, 2760, Control_c, 0, 7, 81
2, 2790, Note_on_c, 0, 73, 0
2, 2790, Note_on_c, 0, 82, 64
2, 2820, Note_on_c, 0, 82, 0
2, 2820, Note_on_c, 0, 81, 64
2, 2830, Control_c, 0, 7, 82
2, 2850, Note_on_c, 0, 81, 0
2, 2850, Note_on_c, 0, 79, 64
2, 2880, Note_on_c, 0, 79, 0
2, 2880, Note_on_c, 0, 77, 64
2, 2890, Control_c, 0, 7, 83
2, 2895, Note_on_c, 0, 77, 0
2, 2895, Note_on_c, 0, 79, 64
2, 2910, Note_on_c, 0, 79, 0
2, 2910, Note_on_c, 0, 77, 64
2, 2960, Control_c, 0, 7, 84
2, 3020, Control_c, 0, 7, 85
2, 3030, Note_on_c, 0, 77, 0
2, 3030, Note_on_c, 0, 79, 64
2, 3060, Note_on_c, 0, 79, 0
2, 3060, Note_on_c, 0, 81, 64
2, 3090, Note_on_c, 0, 81, 0
2, 3090, Note_on_c, 0, 82, 64
2, 3090, Control_c, 0, 7, 86
2, 3120, Note_on_c, 0, 82, 0
2, 3120, Note_on_c, 0, 73, 64
2, 3150, Note_on_c, 0, 73, 0
2, 3150, Note_on_c, 0, 74, 64
2, 3150, Control_c, 0, 7, 87
2, 3180, Note_on_c, 0, 74, 0
2, 3180, Note_on_c, 0, 76, 64
2, 3210, Note_on_c, 0, 76, 0
2, 3210, Note_on_c, 0, 74, 64
2, 3220, Control_c, 0, 7, 88
2, 3240, Note_on_c, 0, 74, 0
2, 3240, Note_on_c, 0, 73, 64
2, 3280, Control_c, 0, 7, 89
2, 3300, Note_on_c, 0, 73, 0
2, 3300, Note_on_c, 0, 72, 64
2, 3350, Control_c, 0, 7, 90
2, 3360, Note_on_c, 0, 72, 0
2, 3360, Note_on_c, 0, 71, 64
2, 3390, Note_on_c, 0, 71, 0
2, 3390, Note_on_c, 0, 72, 100
2, 3410, Control_c, 0, 7, 91
2, 3420, Note_on_c, 0, 72, 0
2, 3420, Note_on_c, 0, 74, 64
2, 3450, Note_on_c, 0, 74, 0
2, 3450, Note_on_c, 0, 72, 64
2, 3480, Note_on_c, 0, 72, 0
2, 3480, Note_on_c, 0, 71, 64
2, 3480, Control_c, 0, 7, 92
2, 3540, Note_on_c, 0, 71, 0
2, 3540, Note_on_c, 0, 70, 64
2, 3540, Control_c, 0, 7, 93
2, 3600, Note_on_c, 0, 70, 0
2, 3600, Note_on_c, 0, 69, 64
2, 3610, Control_c, 0, 7, 94
2, 3660, Note_on_c, 0, 69, 0
2, 3660, Note_on_c, 0, 74, 64
2, 3670, Control_c, 0, 7, 95
2, 3675, Note_on_c, 0, 74, 0
2, 3675, Note_on_c, 0, 76, 64
2, 3690, Note_on_c, 0, 76, 0
2, 3690, Note_on_c, 0, 74, 64
2, 3740, Control_c, 0, 7, 96
2, 3780, Note_on_c, 0, 74, 0
2, 3780, Note_on_c, 0, 73, 64
2, 3800, Control_c, 0, 7, 97
2, 3840, Note_on_c, 0, 73, 0
2, 3840, Note_on_c, 0, 69, 64
2, 3870, Control_c, 0, 7, 98
2, 3900, Note_on_c, 0, 69, 0
2, 3900, Note_on_c, 0, 77, 64
2, 3915, Note_on_c, 0, 77, 0
2, 3915, Note_on_c, 0, 79, 64
2, 3930, Note_on_c, 0, 79, 0
2, 3930, Note_on_c, 0, 77, 64
2, 3930, Control_c, 0, 7, 99
2, 4000, Control_c, 0, 7, 100
2, 4020, Note_on_c, 0, 77, 0
2, 4020, Note_on_c, 0, 76, 64
2, 4060, Control_c, 0, 7, 101
2, 4080, Note_on_c, 0, 76, 0
2, 4080, Note_on_c, 0, 69, 64
2, 4130, Control_c, 0, 7, 102
2, 4140, Note_on_c, 0, 69, 0
2, 4140, Note_on_c, 0, 81, 64
2, 4155, Note_on_c, 0, 81, 0
2, 4155, Note_on_c, 0, 82, 64
2, 4170, Note_on_c, 0, 82, 0
2, 4170, Note_on_c, 0, 81, 64
2, 4190, Control_c, 0, 7, 103
2, 4260, Note_on_c, 0, 81, 0
2, 4260, Note_on_c, 0, 79, 64
2, 4260, Control_c, 0, 7, 104
2, 4320, Control_c, 0, 7, 105
2, 4380, Note_on_c, 0, 79, 0
2, 4380, Note_on_c, 0, 77, 64
2, 4390, Control_c, 0, 7, 106
2, 4410, Note_on_c, 0, 77, 0
2, 4410, Note_on_c, 0, 76, 64
2, 4440, Note_on_c, 0, 76, 0
2, 4440, Note_on_c, 0, 77, 64
2, 4450, Control_c, 0, 7, 107
2, 4470, Note_on_c, 0, 77, 0
2, 4470, Note_on_c, 0, 74, 64
2, 4500, Note_on_c, 0, 74, 0
2, 4500, Note_on_c, 0, 76, 64
2, 4520, Control_c, 0, 7, 108
2, 4530, Note_on_c, 0, 76, 0
2, 4530, Note_on_c, 0, 73, 64
2, 4560, Note_on_c, 0, 73, 0
2, 4560, Note_on_c, 0, 74, 64
2, 4580, Control_c, 0, 7, 109
2, 4590, Note_on_c, 0, 74, 0
2, 4590, Note_on_c, 0, 76, 100
2, 4605, Note_on_c, 0, 76, 0
2, 4605, Note_on_c, 0, 74, 100
2, 4620, Note_on_c, 0, 74, 0
2, 4620, Note_on_c, 0, 72, 100
2, 4635, Note_on_c, 0, 72, 0
2, 4635, Note_on_c, 0, 74, 100
2, 4650, Note_on_c, 0, 74, 0
2, 4650, Note_on_c, 0, 76, 100
2, 4650, Control_c, 0, 7, 110
2, 4680, Note_on_c, 0, 76, 0
2, 4680, Note_on_c, 0, 77, 64
2, 4695, Note_on_c, 0, 77, 0
2, 4695, Note_on_c, 0, 76, 64
2, 4710, Note_on_c, 0, 76, 0
2, 4710, Note_on_c, 0, 77, 64
2, 4710, Control_c, 0, 7, 111
2, 4725, Note_on_c, 0, 77, 0
2, 4725, Note_on_c, 0, 76, 64
2, 4740, Note_on_c, 0, 76, 0
2, 4740, Note_on_c, 0, 77, 64
2, 4755, Note_on_c, 0, 77, 0
2, 4755, Note_on_c, 0, 76, 64
2, 4770, Note_on_c, 0, 76, 0
2, 4770, Note_on_c, 0, 74, 64
2, 4780, Control_c, 0, 7, 112
2, 4800, Note_on_c, 0, 74, 0
2, 4800, Note_on_c, 0, 74, 64
2, 4840, Control_c, 0, 7, 113
2, 4850, Control_c, 0, 7, 113
2, 4860, Note_on_c, 0, 74, 0
2, 4860, Note_on_c, 0, 72, 64
2, 4890, Note_on_c, 0, 72, 0
2, 4890, Note_on_c, 0, 70, 64
2, 4890, Control_c, 0, 7, 112
2, 4920, Note_on_c, 0, 70, 0
2, 4920, Note_on_c, 0, 69, 64
2, 4920, Control_c, 0, 7, 111
2, 4950, Note_on_c, 0, 69, 0
2, 4950, Note_on_c, 0, 70, 64
2, 4950, Control_c, 0, 7, 110
2, 4980, Note_on_c, 0, 70, 0
2, 4980, Note_on_c, 0, 72, 64
2, 4990, Control_c, 0, 7, 109
2, 5010, Note_on_c, 0, 72, 0
2, 5010, Note_on_c, 0, 69, 64
2, 5020, Control_c, 0, 7, 108
2, 5040, Note_on_c, 0, 69, 0
2, 5040, Note_on_c, 0, 70, 64
2, 5050, Control_c, 0, 7, 107
2, 5070, Note_on_c, 0, 70, 0
2, 5070, Note_on_c, 0, 69, 64
2, 5090, Control_c, 0, 7, 106
2, 5100, Note_on_c, 0, 69, 0
2, 5100, Note_on_c, 0, 67, 64
2, 5120, Control_c, 0, 7, 105
2, 5130, Note_on_c, 0, 67, 0
2, 5130, Note_on_c, 0, 65, 64
2, 5150, Control_c, 0, 7, 104
2, 5160, Note_on_c, 0, 65, 0
2, 5160, Note_on_c, 0, 64, 64
2, 5190, Note_on_c, 0, 64, 0
2, 5190, Note_on_c, 0, 74, 64
2, 5190, Control_c, 0, 7, 103
2, 5220, Note_on_c, 0, 74, 0
2, 5220, Note_on_c, 0, 72, 64
2, 5220, Control_c, 0, 7, 102
2, 5250, Note_on_c, 0, 72, 0
2, 5250, Note_on_c, 0, 70, 64
2, 5250, Control_c, 0, 7, 101
2, 5280, Note_on_c, 0, 70, 0
2, 5280, Note_on_c, 0, 69, 64
2, 5290, Control_c, 0, 7, 100
2, 5310, Note_on_c, 0, 69, 0
2, 5310, Note_on_c, 0, 67, 64
2, 5320, Control_c, 0, 7, 99
2, 5340, Note_on_c, 0, 67, 0
2, 5340, Note_on_c, 0, 69, 64
2, 5350, Control_c, 0, 7, 98
2, 5370, Note_on_c, 0, 69, 0
2, 5370, Note_on_c, 0, 71, 64
2, 5390, Control_c, 0, 7, 97
2, 5400, Note_on_c, 0, 71, 0
2, 5400, Note_on_c, 0, 72, 64
2, 5415, Note_on_c, 0, 72, 0
2, 5415, Note_on_c, 0, 74, 64
2, 5420, Control_c, 0, 7, 96
2, 5430, Note_on_c, 0, 74, 0
2, 5430, Note_on_c, 0, 72, 64
2, 5450, Control_c, 0, 7, 95
2, 5490, Control_c, 0, 7, 94
2, 5520, Control_c, 0, 7, 93
2, 5550, Note_on_c, 0, 72, 0
2, 5550, Note_on_c, 0, 69, 64
2, 5550, Control_c, 0, 7, 92
2, 5580, Note_on_c, 0, 69, 0
2, 5580, Note_on_c, 0, 71, 64
2, 5590, Control_c, 0, 7, 91
2, 5610, Note_on_c, 0, 71, 0
2, 5610, Note_on_c, 0, 72, 64
2, 5620, Control_c, 0, 7, 90
2, 5640, Note_on_c, 0, 72, 0
2, 5640, Note_on_c, 0, 74, 64
2, 5650, Control_c, 0, 7, 89
2, 5655, Note_on_c, 0, 74, 0
2, 5655, Note_on_c, 0, 75, 64
2, 5670, Note_on_c, 0, 75, 0
2, 5670, Note_on_c, 0, 74, 64
2, 5690, Control_c, 0, 7, 88
2, 5720, Control_c, 0, 7, 87
2, 5750, Control_c, 0, 7, 86
2, 5770, Control_c, 0, 7, 84
2, 5790, Note_on_c, 0, 74, 0
2, 5790, Note_on_c, 0, 67, 64
2, 5810, Control_c, 0, 7, 85
2, 5820, Note_on_c, 0, 67, 0
2, 5820, Note_on_c, 0, 69, 64
2, 5850, Note_on_c, 0, 69, 0
2, 5850, Note_on_c, 0, 71, 64
2, 5850, Control_c, 0, 7, 86
2, 5880, Note_on_c, 0, 71, 0
2, 5880, Note_on_c, 0, 72, 64
2, 5880, Control_c, 0, 7, 87
2, 5910, Note_on_c, 0, 72, 0
2, 5910, Note_on_c, 0, 74, 64
2, 5920, Control_c, 0, 7, 88
2, 5940, Note_on_c, 0, 74, 0
2, 5940, Note_on_c, 0, 75, 64
2, 5950, Control_c, 0, 7, 89
2, 5970, Note_on_c, 0, 75, 0
2, 5970, Note_on_c, 0, 72, 64
2, 5990, Control_c, 0, 7, 90
2, 6000, Note_on_c, 0, 72, 0
2, 6000, Note_on_c, 0, 74, 64
2, 6020, Control_c, 0, 7, 91
2, 6030, Note_on_c, 0, 74, 0
2, 6030, Note_on_c, 0, 72, 64
2, 6060, Note_on_c, 0, 72, 0
2, 6060, Note_on_c, 0, 71, 64
2, 6060, Control_c, 0, 7, 92
2, 6090, Note_on_c, 0, 71, 0
2, 6090, Note_on_c, 0, 69, 64
2, 6090, Control_c, 0, 7, 93
2, 6120, Note_on_c, 0, 69, 0
2, 6120, Note_on_c, 0, 67, 64
2, 6130, Control_c, 0, 7, 94
2, 6150, Note_on_c, 0, 67, 0
2, 6150, Note_on_c, 0, 77, 64
2, 6160, Control_c, 0, 7, 95
2, 6180, Note_on_c, 0, 77, 0
2, 6180, Note_on_c, 0, 75, 64
2, 6200, Control_c, 0, 7, 96
2, 6210, Note_on_c, 0, 75, 0
2, 6210, Note_on_c, 0, 74, 64
2, 6230, Control_c, 0, 7, 97
2, 6240, Note_on_c, 0, 74, 0
2, 6240, Note_on_c, 0, 72, 64
2, 6270, Note_on_c, 0, 72, 0
2, 6270, Note_on_c, 0, 70, 64
2, 6270, Control_c, 0, 7, 98
2, 6300, Note_on_c, 0, 70, 0
2, 6300, Note_on_c, 0, 68, 64
2, 6310, Control_c, 0, 7, 99
2, 6330, Note_on_c, 0, 68, 0
2, 6330, Note_on_c, 0, 67, 64
2, 6340, Control_c, 0, 7, 100
2, 6360, Note_on_c, 0, 67, 0
2, 6360, Note_on_c, 0, 65, 64
2, 6380, Control_c, 0, 7, 101
2, 6390, Note_on_c, 0, 65, 0
2, 6390, Note_on_c, 0, 75, 64
2, 6410, Control_c, 0, 7, 102
2, 6420, Note_on_c, 0, 75, 0
2, 6420, Note_on_c, 0, 74, 64
2, 6450, Note_on_c, 0, 74, 0
2, 6450, Note_on_c, 0, 72, 64
2, 6450, Control_c, 0, 7, 103
2, 6480, Note_on_c, 0, 72, 0
2, 6480, Note_on_c, 0, 79, 64
2, 6480, Control_c, 0, 7, 104
2, 6510, Note_on_c, 0, 79, 0
2, 6510, Note_on_c, 0, 77, 64
2, 6520, Control_c, 0, 7, 105
2, 6540, Note_on_c, 0, 77, 0
2, 6540, Note_on_c, 0, 75, 64
2, 6550, Control_c, 0, 7, 106
2, 6570, Note_on_c, 0, 75, 0
2, 6570, Note_on_c, 0, 79, 64
2, 6590, Control_c, 0, 7, 107
2, 6600, Note_on_c, 0, 79, 0
2, 6600, Note_on_c, 0, 77, 64
2, 6620, Control_c, 0, 7, 108
2, 6630, Note_on_c, 0, 77, 0
2, 6630, Note_on_c, 0, 75, 64
2, 6660, Note_on_c, 0, 75, 0
2, 6660, Note_on_c, 0, 74, 64
2, 6660, Control_c, 0, 7, 109
2, 6690, Note_on_c, 0, 74, 0
2, 6690, Note_on_c, 0, 77, 64
2, 6690, Control_c, 0, 7, 110
2, 6720, Note_on_c, 0, 77, 0
2, 6720, Note_on_c, 0, 75, 64
2, 6750, Note_on_c, 0, 75, 0
2, 6750, Note_on_c, 0, 74, 64
2, 6780, Note_on_c, 0, 74, 0
2, 6780, Note_on_c, 0, 72, 64
2, 6810, Note_on_c, 0, 72, 0
2, 6810, Note_on_c, 0, 74, 64
2, 6840, Note_on_c, 0, 74, 0
2, 6840, Note_on_c, 0, 75, 64
2, 6870, Note_on_c, 0, 75, 0
2, 6870, Note_on_c, 0, 77, 64
2, 6900, Note_on_c, 0, 77, 0
2, 6900, Note_on_c, 0, 79, 64
2, 6930, Note_on_c, 0, 79, 0
2, 6930, Note_on_c, 0, 80, 64
2, 6960, Note_on_c, 0, 80, 0
2, 6960, Note_on_c, 0, 71, 64
2, 7020, Note_on_c, 0, 71, 0
2, 7020, Note_on_c, 0, 74, 64
2, 7050, Note_on_c, 0, 74, 0
2, 7140, Note_on_c, 0, 65, 64
2, 7170, Note_on_c, 0, 65, 0
2, 7200, Note_on_c, 0, 63, 64
2, 7230, Note_on_c, 0, 63, 0
2, 7260, Note_on_c, 0, 72, 64
2, 7290, Note_on_c, 0, 72, 0
2, 7320, Note_on_c, 0, 62, 64
2, 7350, Note_on_c, 0, 62, 0
2, 7380, Note_on_c, 0, 72, 64
2, 7395, Note_on_c, 0, 72, 0
2, 7395, Note_on_c, 0, 71, 64
2, 7410, Note_on_c, 0, 71, 0
2, 7410, Note_on_c, 0, 69, 64
2, 7425, Note_on_c, 0, 69, 0
2, 7425, Note_on_c, 0, 71, 64
2, 7440, Note_on_c, 0, 71, 0
2, 7440, Note_on_c, 0, 72, 64
2, 7470, Note_on_c, 0, 72, 0
2, 7470, Note_on_c, 0, 67, 64
2, 7500, Note_on_c, 0, 67, 0
2, 7500, Note_on_c, 0, 72, 64
2, 7530, Note_on_c, 0, 72, 0
2, 7530, Note_on_c, 0, 74, 64
2, 7560, Note_on_c, 0, 74, 0
2, 7560, Note_on_c, 0, 75, 64
2, 7575, Note_on_c, 0, 75, 0
2, 7575, Note_on_c, 0, 77, 64
2, 7590, Note_on_c, 0, 77, 0
2, 7590, Note_on_c, 0, 75, 64
2, 7710, Note_on_c, 0, 75, 0
2, 7710, Note_on_c, 0, 72, 64
2, 7740, Note_on_c, 0, 72, 0
2, 7740, Note_on_c, 0, 74, 64
2, 7770, Note_on_c, 0, 74, 0
2, 7770, Note_on_c, 0, 75, 64
2, 7800, Note_on_c, 0, 75, 0
2, 7800, Note_on_c, 0, 77, 64
2, 7815, Note_on_c, 0, 77, 0
2, 7815, Note_on_c, 0, 79, 64
2, 7830, Note_on_c, 0, 79, 0
2, 7830, Note_on_c, 0, 77, 64
2, 7980, Note_on_c, 0, 77, 0
2, 7980, Note_on_c, 0, 75, 64
2, 8010, Note_on_c, 0, 75, 0
2, 8010, Note_on_c, 0, 74, 64
2, 8040, Note_on_c, 0, 74, 0
2, 8040, Note_on_c, 0, 79, 64
2, 8055, Note_on_c, 0, 79, 0
2, 8055, Note_on_c, 0, 81, 64
2, 8070, Note_on_c, 0, 81, 0
2, 8070, Note_on_c, 0, 79, 64
2, 8130, Note_on_c, 0, 79, 0
2, 8130, Note_on_c, 0, 77, 64
2, 8160, Note_on_c, 0, 77, 0
2, 8160, Note_on_c, 0, 75, 64
2, 8190, Note_on_c, 0, 75, 0
2, 8190, Note_on_c, 0, 74, 64
2, 8220, Note_on_c, 0, 74, 0
2, 8220, Note_on_c, 0, 72, 64
2, 8250, Note_on_c, 0, 72, 0
2, 8250, Note_on_c, 0, 70, 64
2, 8280, Note_on_c, 0, 70, 0
2, 8280, Note_on_c, 0, 69, 64
2, 8310, Note_on_c, 0, 69, 0
2, 8310, Note_on_c, 0, 67, 64
2, 8340, Note_on_c, 0, 67, 0
2, 8340, Note_on_c, 0, 66, 64
2, 8370, Note_on_c, 0, 66, 0
2, 8370, Note_on_c, 0, 69, 64
2, 8400, Note_on_c, 0, 69, 0
2, 8400, Note_on_c, 0, 63, 64
2, 8430, Note_on_c, 0, 63, 0
2, 8430, Note_on_c, 0, 62, 64
2, 8460, Note_on_c, 0, 62, 0
2, 8460, Note_on_c, 0, 64, 64
2, 8490, Note_on_c, 0, 64, 0
2, 8490, Note_on_c, 0, 65, 64
2, 8520, Note_on_c, 0, 65, 0
2, 8520, Note_on_c, 0, 67, 64
2, 8550, Note_on_c, 0, 67, 0
2, 8550, Note_on_c, 0, 69, 64
2, 8580, Note_on_c, 0, 69, 0
2, 8580, Note_on_c, 0, 70, 64
2, 8610, Note_on_c, 0, 70, 0
2, 8610, Note_on_c, 0, 67, 64
2, 8640, Note_on_c, 0, 67, 0
2, 8640, Note_on_c, 0, 69, 64
2, 8670, Note_on_c, 0, 69, 0
2, 8670, Note_on_c, 0, 67, 64
2, 8700, Note_on_c, 0, 67, 0
2, 8700, Note_on_c, 0, 66, 64
2, 8730, Note_on_c, 0, 66, 0
2, 8730, Note_on_c, 0, 64, 64
2, 8760, Note_on_c, 0, 64, 0
2, 8760, Note_on_c, 0, 62, 64
2, 8790, Note_on_c, 0, 62, 0
2, 8790, Note_on_c, 0, 72, 64
2, 8820, Note_on_c, 0, 72, 0
2, 8820, Note_on_c, 0, 70, 64
2, 8850, Note_on_c, 0, 70, 0
2, 8850, Note_on_c, 0, 69, 64
2, 8880, Note_on_c, 0, 69, 0
2, 8880, Note_on_c, 0, 67, 64
2, 8910, Note_on_c, 0, 67, 0
2, 8910, Note_on_c, 0, 65, 64
2, 8940, Note_on_c, 0, 65, 0
2, 8940, Note_on_c, 0, 64, 64
2, 8970, Note_on_c, 0, 64, 0
2, 8970, Note_on_c, 0, 62, 64
2, 9000, Note_on_c, 0, 62, 0
2, 9000, Note_on_c, 0, 60, 64
2, 9030, Note_on_c, 0, 60, 0
2, 9030, Note_on_c, 0, 70, 64
2, 9060, Note_on_c, 0, 70, 0
2, 9060, Note_on_c, 0, 69, 64
2, 9090, Note_on_c, 0, 69, 0
2, 9090, Note_on_c, 0, 67, 64
2, 9120, Note_on_c, 0, 67, 0
2, 9120, Note_on_c, 0, 74, 64
2, 9150, Note_on_c, 0, 74, 0
2, 9150, Note_on_c, 0, 72, 64
2, 9180, Note_on_c, 0, 72, 0
2, 9180, Note_on_c, 0, 70, 64
2, 9210, Note_on_c, 0, 70, 0
2, 9210, Note_on_c, 0, 74, 64
2, 9240, Note_on_c, 0, 74, 0
2, 9240, Note_on_c, 0, 72, 64
2, 9270, Note_on_c, 0, 72, 0
2, 9270, Note_on_c, 0, 70, 64
2, 9300, Note_on_c, 0, 70, 0
2, 9300, Note_on_c, 0, 69, 64
2, 9330, Note_on_c, 0, 69, 0
2, 9330, Note_on_c, 0, 72, 64
2, 9360, Note_on_c, 0, 72, 0
2, 9360, Note_on_c, 0, 70, 64
2, 9390, Note_on_c, 0, 70, 0
2, 9390, Note_on_c, 0, 69, 64
2, 9420, Note_on_c, 0, 69, 0
2, 9420, Note_on_c, 0, 67, 64
2, 9450, Note_on_c, 0, 67, 0
2, 9450, Note_on_c, 0, 70, 64
2, 9480, Note_on_c, 0, 70, 0
2, 9480, Note_on_c, 0, 69, 64
2, 9510, Note_on_c, 0, 69, 0
2, 9510, Note_on_c, 0, 67, 64
2, 9540, Note_on_c, 0, 67, 0
2, 9540, Note_on_c, 0, 66, 64
2, 9570, Note_on_c, 0, 66, 0
2, 9570, Note_on_c, 0, 69, 64
2, 9600, Note_on_c, 0, 69, 0
2, 9600, Note_on_c, 0, 67, 64
2, 9630, Note_on_c, 0, 67, 0
2, 9630, Note_on_c, 0, 69, 64
2, 9660, Note_on_c, 0, 69, 0
2, 9660, Note_on_c, 0, 70, 64
2, 9690, Note_on_c, 0, 70, 0
2, 9690, Note_on_c, 0, 72, 64
2, 9720, Note_on_c, 0, 72, 0
2, 9720, Note_on_c, 0, 74, 64
2, 9750, Note_on_c, 0, 74, 0
2, 9750, Note_on_c, 0, 76, 64
2, 9780, Note_on_c, 0, 76, 0
2, 9780, Note_on_c, 0, 78, 64
2, 9810, Note_on_c, 0, 78, 0
2, 9810, Note_on_c, 0, 79, 64
2, 9840, Note_on_c, 0, 79, 0
2, 9840, Note_on_c, 0, 81, 64
2, 9870, Note_on_c, 0, 81, 0
2, 9870, Note_on_c, 0, 78, 64
2, 9900, Note_on_c, 0, 78, 0
2, 9900, Note_on_c, 0, 79, 64
2, 9930, Note_on_c, 0, 79, 0
2, 9930, Note_on_c, 0, 81, 64
2, 9960, Note_on_c, 0, 81, 0
2, 9960, Note_on_c, 0, 74, 64
2, 10080, Control_c, 0, 7, 112
2, 10110, Note_on_c, 0, 74, 0
2, 10110, Note_on_c, 0, 72, 64
2, 10110, Control_c, 0, 7, 111
2, 10130, Control_c, 0, 7, 110
2, 10140, Note_on_c, 0, 72, 0
2, 10140, Note_on_c, 0, 75, 64
2, 10160, Control_c, 0, 7, 109
2, 10170, Note_on_c, 0, 75, 0
2, 10170, Note_on_c, 0, 74, 64
2, 10180, Control_c, 0, 7, 108
2, 10200, Note_on_c, 0, 74, 0
2, 10200, Note_on_c, 0, 72, 64
2, 10210, Control_c, 0, 7, 107
2, 10230, Note_on_c, 0, 72, 0
2, 10230, Note_on_c, 0, 70, 64
2, 10230, Control_c, 0, 7, 106
2, 10250, Control_c, 0, 7, 105
2, 10260, Note_on_c, 0, 70, 0
2, 10260, Note_on_c, 0, 69, 64
2, 10280, Control_c, 0, 7, 104
2, 10290, Note_on_c, 0, 69, 0
2, 10290, Note_on_c, 0, 72, 64
2, 10300, Control_c, 0, 7, 103
2, 10320, Note_on_c, 0, 72, 0
2, 10320, Note_on_c, 0, 66, 64
2, 10330, Control_c, 0, 7, 102
2, 10350, Note_on_c, 0, 66, 0
2, 10350, Note_on_c, 0, 69, 64
2, 10350, Control_c, 0, 7, 101
2, 10370, Control_c, 0, 7, 100
2, 10380, Note_on_c, 0, 69, 0
2, 10380, Note_on_c, 0, 70, 64
2, 10400, Control_c, 0, 7, 99
2, 10410, Note_on_c, 0, 70, 0
2, 10410, Note_on_c, 0, 69, 64
2, 10420, Control_c, 0, 7, 98
2, 10440, Note_on_c, 0, 69, 0
2, 10440, Note_on_c, 0, 67, 64
2, 10450, Control_c, 0, 7, 97
2, 10470, Note_on_c, 0, 67, 0
2, 10470, Note_on_c, 0, 65, 64
2, 10470, Control_c, 0, 7, 96
2, 10490, Control_c, 0, 7, 95
2, 10500, Note_on_c, 0, 65, 0
2, 10500, Note_on_c, 0, 63, 64
2, 10520, Control_c, 0, 7, 94
2, 10530, Note_on_c, 0, 63, 0
2, 10530, Note_on_c, 0, 67, 64
2, 10540, Control_c, 0, 7, 93
2, 10560, Note_on_c, 0, 67, 0
2, 10560, Note_on_c, 0, 61, 64
2, 10570, Control_c, 0, 7, 92
2, 10590, Note_on_c, 0, 61, 0
2, 10590, Note_on_c, 0, 67, 64
2, 10590, Control_c, 0, 7, 91
2, 10620, Note_on_c, 0, 67, 0
2, 10620, Note_on_c, 0, 69, 64
2, 10620, Control_c, 0, 7, 90
2, 10640, Control_c, 0, 7, 89
2, 10650, Note_on_c, 0, 69, 0
2, 10650, Note_on_c, 0, 70, 64
2, 10660, Control_c, 0, 7, 88
2, 10680, Note_on_c, 0, 70, 0
2, 10680, Note_on_c, 0, 62, 64
2, 10690, Control_c, 0, 7, 87
2, 10710, Note_on_c, 0, 62, 0
2, 10710, Note_on_c, 0, 69, 64
2, 10710, Control_c, 0, 7, 86
2, 10740, Note_on_c, 0, 69, 0
2, 10740, Note_on_c, 0, 67, 64
2, 10740, Control_c, 0, 7, 85
2, 10760, Control_c, 0, 7, 84
2, 10770, Note_on_c, 0, 67, 0
2, 10770, Note_on_c, 0, 66, 64
2, 10780, Control_c, 0, 7, 83
2, 10800, Note_on_c, 0, 66, 0
2, 10800, Note_on_c, 0, 67, 64
2, 10810, Control_c, 0, 7, 82
2, 10815, Note_on_c, 0, 67, 0
2, 10815, Note_on_c, 0, 69, 64
2, 10830, Note_on_c, 0, 69, 0
2, 10830, Note_on_c, 0, 67, 64
2, 10830, Control_c, 0, 7, 81
2, 10860, Control_c, 0, 7, 80
2, 10880, Control_c, 0, 7, 79
2, 10900, Control_c, 0, 7, 78
2, 11040, Note_on_c, 0, 67, 0
2, 11040, End_track
3, 0, Start_track
3, 0, MIDI_port, 0
3, 0, Title_t, "OBOE"
3, 0, Program_c, 1, 0
3, 0, Control_c, 1, 7, 93
3, 0, Control_c, 1, 10, 61
3, 90, Note_on_c, 1, 50, 64
3, 120, Note_on_c, 1, 50, 0
3, 120, Note_on_c, 1, 52, 64
3, 150, Note_on_c, 1, 52, 0
3, 150, Note_on_c, 1, 54, 64
3, 180, Note_on_c, 1, 54, 0
3, 180, Note_on_c, 1, 55, 64
3, 210, Note_on_c, 1, 55, 0
3, 210, Note_on_c, 1, 58, 64
3, 240, Note_on_c, 1, 58, 0
3, 240, Note_on_c, 1, 62, 64
3, 300, Note_on_c, 1, 62, 0
3, 300, Note_on_c, 1, 62, 64
3, 330, Note_on_c, 1, 62, 0
3, 360, Note_on_c, 1, 57, 64
3, 420, Note_on_c, 1, 57, 0
3, 420, Note_on_c, 1, 62, 64
3, 540, Note_on_c, 1, 62, 0
3, 540, Note_on_c, 1, 60, 64
3, 600, Note_on_c, 1, 60, 0
3, 600, Note_on_c, 1, 60, 64
3, 720, Note_on_c, 1, 60, 0
3, 720, Note_on_c, 1, 58, 64
3, 780, Note_on_c, 1, 58, 0
3, 780, Note_on_c, 1, 62, 64
3, 900, Note_on_c, 1, 62, 0
3, 900, Note_on_c, 1, 63, 64
3, 930, Note_on_c, 1, 63, 0
3, 930, Note_on_c, 1, 62, 64
3, 1140, Note_on_c, 1, 62, 0
3, 1140, Note_on_c, 1, 62, 90
3, 1200, Note_on_c, 1, 62, 0
3, 1200, Note_on_c, 1, 62, 64
3, 1260, Note_on_c, 1, 62, 0
3, 1260, Note_on_c, 1, 69, 64
3, 1290, Note_on_c, 1, 69, 0
3, 1290, Note_on_c, 1, 67, 64
3, 1320, Note_on_c, 1, 67, 0
3, 1320, Note_on_c, 1, 65, 64
3, 1350, Note_on_c, 1, 65, 0
3, 1350, Note_on_c, 1, 64, 64
3, 1380, Note_on_c, 1, 64, 0
3, 1380, Note_on_c, 1, 62, 64
3, 1410, Note_on_c, 1, 62, 0
3, 1410, Note_on_c, 1, 60, 64
3, 1440, Note_on_c, 1, 60, 0
3, 1440, Note_on_c, 1, 58, 64
3, 1470, Note_on_c, 1, 58, 0
3, 1470, Note_on_c, 1, 57, 64
3, 1500, Note_on_c, 1, 57, 0
3, 1500, Note_on_c, 1, 55, 64
3, 1530, Note_on_c, 1, 55, 0
3, 1530, Note_on_c, 1, 53, 64
3, 1560, Note_on_c, 1, 53, 0
3, 1560, Note_on_c, 1, 55, 64
3, 1620, Note_on_c, 1, 55, 0
3, 1620, Note_on_c, 1, 72, 64
3, 1650, Note_on_c, 1, 72, 0
3, 1650, Note_on_c, 1, 70, 64
3, 1680, Note_on_c, 1, 70, 0
3, 1680, Note_on_c, 1, 69, 64
3, 1860, Note_on_c, 1, 69, 0
3, 1860, Note_on_c, 1, 69, 64
3, 1920, Note_on_c, 1, 69, 0
3, 1920, Note_on_c, 1, 67, 64
3, 1980, Note_on_c, 1, 67, 0
3, 1980, Note_on_c, 1, 70, 64
3, 2010, Note_on_c, 1, 70, 0
3, 2010, Note_on_c, 1, 69, 64
3, 2040, Note_on_c, 1, 69, 0
3, 2040, Note_on_c, 1, 67, 64
3, 2100, Note_on_c, 1, 67, 0
3, 2100, Note_on_c, 1, 67, 64
3, 2310, Note_on_c, 1, 67, 0
3, 2310, Note_on_c, 1, 63, 64
3, 2340, Note_on_c, 1, 63, 0
3, 2340, Note_on_c, 1, 62, 64
3, 2370, Note_on_c, 1, 62, 0
3, 2370, Note_on_c, 1, 60, 64
3, 2400, Note_on_c, 1, 60, 0
3, 2400, Note_on_c, 1, 62, 64
3, 2460, Note_on_c, 1, 62, 0
3, 2460, Note_on_c, 1, 65, 64
3, 2580, Note_on_c, 1, 65, 0
3, 2580, Note_on_c, 1, 65, 64
3, 2610, Note_on_c, 1, 65, 0
3, 2610, Note_on_c, 1, 64, 64
3, 2640, Note_on_c, 1, 64, 0
3, 2640, Note_on_c, 1, 62, 64
3, 2700, Note_on_c, 1, 62, 0
3, 2700, Note_on_c, 1, 70, 64
3, 2760, Note_on_c, 1, 70, 0
3, 2760, Note_on_c, 1, 64, 64
3, 2820, Note_on_c, 1, 64, 0
3, 2820, Note_on_c, 1, 61, 64
3, 2880, Note_on_c, 1, 61, 0
3, 2880, Note_on_c, 1, 62, 64
3, 2910, Note_on_c, 1, 62, 0
3, 2910, Note_on_c, 1, 61, 64
3, 2940, Note_on_c, 1, 61, 0
3, 2940, Note_on_c, 1, 62, 64
3, 2970, Note_on_c, 1, 62, 0
3, 2970, Note_on_c, 1, 64, 64
3, 3000, Note_on_c, 1, 64, 0
3, 3000, Note_on_c, 1, 65, 64
3, 3030, Note_on_c, 1, 65, 0
3, 3030, Note_on_c, 1, 64, 64
3, 3060, Note_on_c, 1, 64, 0
3, 3060, Note_on_c, 1, 62, 64
3, 3090, Note_on_c, 1, 62, 0
3, 3090, Note_on_c, 1, 65, 64
3, 3120, Note_on_c, 1, 65, 0
3, 3120, Note_on_c, 1, 67, 64
3, 3150, Note_on_c, 1, 67, 0
3, 3150, Note_on_c, 1, 65, 64
3, 3180, Note_on_c, 1, 65, 0
3, 3180, Note_on_c, 1, 64, 64
3, 3300, Note_on_c, 1, 64, 0
3, 3300, Note_on_c, 1, 69, 64
3, 3330, Note_on_c, 1, 69, 0
3, 3330, Note_on_c, 1, 67, 64
3, 3360, Note_on_c, 1, 67, 0
3, 3360, Note_on_c, 1, 65, 64
3, 3390, Note_on_c, 1, 65, 0
3, 3390, Note_on_c, 1, 64, 64
3, 3420, Note_on_c, 1, 64, 0
3, 3420, Note_on_c, 1, 62, 64
3, 3450, Note_on_c, 1, 62, 0
3, 3450, Note_on_c, 1, 64, 64
3, 3480, Note_on_c, 1, 64, 0
3, 3480, Note_on_c, 1, 65, 64
3, 3540, Note_on_c, 1, 65, 0
3, 3540, Note_on_c, 1, 67, 64
3, 3600, Note_on_c, 1, 67, 0
3, 3600, Note_on_c, 1, 65, 64
3, 3630, Note_on_c, 1, 65, 0
3, 3630, Note_on_c, 1, 64, 64
3, 3660, Note_on_c, 1, 64, 0
3, 3660, Note_on_c, 1, 62, 64
3, 3690, Note_on_c, 1, 62, 0
3, 3690, Note_on_c, 1, 65, 64
3, 3720, Note_on_c, 1, 65, 0
3, 3720, Note_on_c, 1, 64, 64
3, 3750, Note_on_c, 1, 64, 0
3, 3750, Note_on_c, 1, 69, 64
3, 3780, Note_on_c, 1, 69, 0
3, 3780, Note_on_c, 1, 67, 64
3, 3810, Note_on_c, 1, 67, 0
3, 3810, Note_on_c, 1, 64, 64
3, 3840, Note_on_c, 1, 64, 0
3, 3840, Note_on_c, 1, 62, 64
3, 3870, Note_on_c, 1, 62, 0
3, 3870, Note_on_c, 1, 67, 64
3, 3900, Note_on_c, 1, 67, 0
3, 3900, Note_on_c, 1, 65, 64
3, 3930, Note_on_c, 1, 65, 0
3, 3930, Note_on_c, 1, 69, 64
3, 3960, Note_on_c, 1, 69, 0
3, 3960, Note_on_c, 1, 67, 64
3, 3990, Note_on_c, 1, 67, 0
3, 3990, Note_on_c, 1, 69, 64
3, 4020, Note_on_c, 1, 69, 0
3, 4020, Note_on_c, 1, 70, 64
3, 4050, Note_on_c, 1, 70, 0
3, 4050, Note_on_c, 1, 67, 64
3, 4080, Note_on_c, 1, 67, 0
3, 4080, Note_on_c, 1, 65, 64
3, 4110, Note_on_c, 1, 65, 0
3, 4110, Note_on_c, 1, 67, 64
3, 4140, Note_on_c, 1, 67, 0
3, 4140, Note_on_c, 1, 69, 64
3, 4170, Note_on_c, 1, 69, 0
3, 4170, Note_on_c, 1, 65, 64
3, 4200, Note_on_c, 1, 65, 0
3, 4200, Note_on_c, 1, 70, 64
3, 4230, Note_on_c, 1, 70, 0
3, 4230, Note_on_c, 1, 72, 64
3, 4260, Note_on_c, 1, 72, 0
3, 4260, Note_on_c, 1, 74, 64
3, 4290, Note_on_c, 1, 74, 0
3, 4290, Note_on_c, 1, 70, 64
3, 4320, Note_on_c, 1, 70, 0
3, 4320, Note_on_c, 1, 69, 64
3, 4500, Note_on_c, 1, 69, 0
3, 4500, Note_on_c, 1, 70, 64
3, 4530, Note_on_c, 1, 70, 0
3, 4530, Note_on_c, 1, 69, 64
3, 4545, Note_on_c, 1, 69, 0
3, 4545, Note_on_c, 1, 67, 64
3, 4560, Note_on_c, 1, 67, 0
3, 4560, Note_on_c, 1, 65, 64
3, 4590, Note_on_c, 1, 65, 0
3, 4590, Note_on_c, 1, 67, 64
3, 4620, Note_on_c, 1, 67, 0
3, 4620, Note_on_c, 1, 69, 64
3, 4650, Note_on_c, 1, 69, 0
3, 4650, Note_on_c, 1, 70, 64
3, 4680, Note_on_c, 1, 70, 0
3, 4680, Note_on_c, 1, 61, 64
3, 4710, Note_on_c, 1, 61, 0
3, 4710, Note_on_c, 1, 59, 64
3, 4740, Note_on_c, 1, 59, 0
3, 4740, Note_on_c, 1, 61, 64
3, 4800, Note_on_c, 1, 61, 0
3, 4800, Note_on_c, 1, 62, 64
3, 4860, Note_on_c, 1, 62, 0
3, 4980, Note_on_c, 1, 62, 64
3, 5040, Note_on_c, 1, 62, 0
3, 5040, Note_on_c, 1, 62, 64
3, 5100, Note_on_c, 1, 62, 0
3, 5100, Note_on_c, 1, 67, 64
3, 5190, Note_on_c, 1, 67, 0
3, 5190, Note_on_c, 1, 70, 64
3, 5220, Note_on_c, 1, 70, 0
3, 5220, Note_on_c, 1, 69, 64
3, 5250, Note_on_c, 1, 69, 0
3, 5250, Note_on_c, 1, 67, 64
3, 5280, Note_on_c, 1, 67, 0
3, 5280, Note_on_c, 1, 65, 64
3, 5400, Note_on_c, 1, 65, 0
3, 5400, Note_on_c, 1, 67, 64
3, 5430, Note_on_c, 1, 67, 0
3, 5430, Note_on_c, 1, 62, 64
3, 5460, Note_on_c, 1, 62, 0
3, 5460, Note_on_c, 1, 63, 64
3, 5490, Note_on_c, 1, 63, 0
3, 5490, Note_on_c, 1, 60, 64
3, 5520, Note_on_c, 1, 60, 0
3, 5520, Note_on_c, 1, 62, 64
3, 5580, Note_on_c, 1, 62, 0
3, 5580, Note_on_c, 1, 65, 64
3, 5610, Note_on_c, 1, 65, 0
3, 5610, Note_on_c, 1, 63, 64
3, 5640, Note_on_c, 1, 63, 0
3, 5640, Note_on_c, 1, 62, 64
3, 5670, Note_on_c, 1, 62, 0
3, 5670, Note_on_c, 1, 65, 64
3, 5700, Note_on_c, 1, 65, 0
3, 5700, Note_on_c, 1, 63, 64
3, 5730, Note_on_c, 1, 63, 0
3, 5730, Note_on_c, 1, 62, 64
3, 5760, Note_on_c, 1, 62, 0
3, 5760, Note_on_c, 1, 60, 64
3, 5790, Note_on_c, 1, 60, 0
3, 5790, Note_on_c, 1, 65, 64
3, 5820, Note_on_c, 1, 65, 0
3, 5820, Note_on_c, 1, 63, 64
3, 5850, Note_on_c, 1, 63, 0
3, 5850, Note_on_c, 1, 65, 64
3, 5880, Note_on_c, 1, 65, 0
3, 5880, Note_on_c, 1, 67, 64
3, 5910, Note_on_c, 1, 67, 0
3, 5910, Note_on_c, 1, 68, 64
3, 5940, Note_on_c, 1, 68, 0
3, 5940, Note_on_c, 1, 59, 64
3, 5970, Note_on_c, 1, 59, 0
3, 5970, Note_on_c, 1, 60, 64
3, 6000, Note_on_c, 1, 60, 0
3, 6000, Note_on_c, 1, 62, 64
3, 6060, Note_on_c, 1, 62, 0
3, 6060, Note_on_c, 1, 62, 64
3, 6090, Note_on_c, 1, 62, 0
3, 6090, Note_on_c, 1, 60, 64
3, 6120, Note_on_c, 1, 60, 0
3, 6120, Note_on_c, 1, 58, 64
3, 6135, Note_on_c, 1, 58, 0
3, 6135, Note_on_c, 1, 60, 64
3, 6150, Note_on_c, 1, 60, 0
3, 6150, Note_on_c, 1, 58, 64
3, 6165, Note_on_c, 1, 58, 0
3, 6165, Note_on_c, 1, 60, 64
3, 6180, Note_on_c, 1, 60, 0
3, 6180, Note_on_c, 1, 58, 64
3, 6195, Note_on_c, 1, 58, 0
3, 6195, Note_on_c, 1, 60, 64
3, 6210, Note_on_c, 1, 60, 0
3, 6210, Note_on_c, 1, 57, 64
3, 6225, Note_on_c, 1, 57, 0
3, 6225, Note_on_c, 1, 58, 64
3, 6240, Note_on_c, 1, 58, 0
3, 6240, Note_on_c, 1, 60, 64
3, 6300, Note_on_c, 1, 60, 0
3, 6300, Note_on_c, 1, 60, 64
3, 6420, Note_on_c, 1, 60, 0
3, 6420, Note_on_c, 1, 65, 64
3, 6450, Note_on_c, 1, 65, 0
3, 6450, Note_on_c, 1, 63, 64
3, 6480, Note_on_c, 1, 63, 0
3, 6480, Note_on_c, 1, 62, 64
3, 6510, Note_on_c, 1, 62, 0
3, 6510, Note_on_c, 1, 60, 64
3, 6540, Note_on_c, 1, 60, 0
3, 6540, Note_on_c, 1, 58, 64
3, 6570, Note_on_c, 1, 58, 0
3, 6570, Note_on_c, 1, 60, 64
3, 6600, Note_on_c, 1, 60, 0
3, 6600, Note_on_c, 1, 62, 64
3, 6660, Note_on_c, 1, 62, 0
3, 6660, Note_on_c, 1, 68, 64
3, 6720, Note_on_c, 1, 68, 0
3, 6720, Note_on_c, 1, 67, 64
3, 6750, Note_on_c, 1, 67, 0
3, 6750, Note_on_c, 1, 65, 64
3, 6780, Note_on_c, 1, 65, 0
3, 6780, Note_on_c, 1, 63, 64
3, 6810, Note_on_c, 1, 63, 0
3, 6810, Note_on_c, 1, 62, 64
3, 6840, Note_on_c, 1, 62, 0
3, 6840, Note_on_c, 1, 60, 64
3, 6900, Note_on_c, 1, 60, 0
3, 6900, Note_on_c, 1, 72, 64
3, 6930, Note_on_c, 1, 72, 0
3, 6930, Note_on_c, 1, 63, 64
3, 6960, Note_on_c, 1, 63, 0
3, 6960, Note_on_c, 1, 65, 64
3, 6990, Note_on_c, 1, 65, 0
3, 6990, Note_on_c, 1, 63, 64
3, 7020, Note_on_c, 1, 63, 0
3, 7020, Note_on_c, 1, 62, 64
3, 7050, Note_on_c, 1, 62, 0
3, 7050, Note_on_c, 1, 60, 64
3, 7080, Note_on_c, 1, 60, 0
3, 7080, Note_on_c, 1, 59, 64
3, 7110, Note_on_c, 1, 59, 0
3, 7110, Note_on_c, 1, 62, 64
3, 7140, Note_on_c, 1, 62, 0
3, 7140, Note_on_c, 1, 60, 64
3, 7170, Note_on_c, 1, 60, 0
3, 7170, Note_on_c, 1, 59, 64
3, 7200, Note_on_c, 1, 59, 0
3, 7200, Note_on_c, 1, 67, 64
3, 7230, Note_on_c, 1, 67, 0
3, 7230, Note_on_c, 1, 62, 64
3, 7260, Note_on_c, 1, 62, 0
3, 7260, Note_on_c, 1, 63, 64
3, 7290, Note_on_c, 1, 63, 0
3, 7290, Note_on_c, 1, 70, 64
3, 7320, Note_on_c, 1, 70, 0
3, 7320, Note_on_c, 1, 69, 64
3, 7350, Note_on_c, 1, 69, 0
3, 7350, Note_on_c, 1, 67, 64
3, 7365, Note_on_c, 1, 67, 0
3, 7365, Note_on_c, 1, 65, 64
3, 7380, Note_on_c, 1, 65, 0
3, 7380, Note_on_c, 1, 63, 64
3, 7410, Note_on_c, 1, 63, 0
3, 7410, Note_on_c, 1, 62, 64
3, 7440, Note_on_c, 1, 62, 0
3, 7440, Note_on_c, 1, 63, 64
3, 7500, Note_on_c, 1, 63, 0
3, 7500, Note_on_c, 1, 72, 64
3, 7530, Note_on_c, 1, 72, 0
3, 7530, Note_on_c, 1, 71, 64
3, 7560, Note_on_c, 1, 71, 0
3, 7560, Note_on_c, 1, 70, 64
3, 7590, Note_on_c, 1, 70, 0
3, 7590, Note_on_c, 1, 72, 64
3, 7620, Note_on_c, 1, 72, 0
3, 7620, Note_on_c, 1, 73, 64
3, 7650, Note_on_c, 1, 73, 0
3, 7650, Note_on_c, 1, 70, 64
3, 7680, Note_on_c, 1, 70, 0
3, 7680, Note_on_c, 1, 72, 64
3, 7710, Note_on_c, 1, 72, 0
3, 7710, Note_on_c, 1, 70, 64
3, 7740, Note_on_c, 1, 70, 0
3, 7740, Note_on_c, 1, 68, 64
3, 7770, Note_on_c, 1, 68, 0
3, 7770, Note_on_c, 1, 67, 64
3, 7800, Note_on_c, 1, 67, 0
3, 7800, Note_on_c, 1, 65, 64
3, 7830, Note_on_c, 1, 65, 0
3, 7830, Note_on_c, 1, 63, 64
3, 7860, Note_on_c, 1, 63, 0
3, 7860, Note_on_c, 1, 62, 64
3, 7890, Note_on_c, 1, 62, 0
3, 7890, Note_on_c, 1, 60, 64
3, 7920, Note_on_c, 1, 60, 0
3, 7920, Note_on_c, 1, 58, 64
3, 7950, Note_on_c, 1, 58, 0
3, 7950, Note_on_c, 1, 57, 64
3, 7980, Note_on_c, 1, 57, 0
3, 7980, Note_on_c, 1, 58, 64
3, 8010, Note_on_c, 1, 58, 0
3, 8010, Note_on_c, 1, 60, 64
3, 8040, Note_on_c, 1, 60, 0
3, 8040, Note_on_c, 1, 62, 64
3, 8070, Note_on_c, 1, 62, 0
3, 8070, Note_on_c, 1, 63, 64
3, 8100, Note_on_c, 1, 63, 0
3, 8100, Note_on_c, 1, 65, 64
3, 8130, Note_on_c, 1, 65, 0
3, 8130, Note_on_c, 1, 62, 64
3, 8160, Note_on_c, 1, 62, 0
3, 8160, Note_on_c, 1, 63, 64
3, 8340, Note_on_c, 1, 63, 0
3, 8340, Note_on_c, 1, 69, 64
3, 8370, Note_on_c, 1, 69, 0
3, 8370, Note_on_c, 1, 66, 64
3, 8400, Note_on_c, 1, 66, 0
3, 8400, Note_on_c, 1, 67, 64
3, 8430, Note_on_c, 1, 67, 0
3, 8430, Note_on_c, 1, 70, 64
3, 8460, Note_on_c, 1, 70, 0
3, 8460, Note_on_c, 1, 72, 64
3, 8490, Note_on_c, 1, 72, 0
3, 8490, Note_on_c, 1, 74, 64
3, 8520, Note_on_c, 1, 74, 0
3, 8520, Note_on_c, 1, 62, 64
3, 8580, Note_on_c, 1, 62, 0
3, 8580, Note_on_c, 1, 67, 64
3, 8610, Note_on_c, 1, 67, 0
3, 8610, Note_on_c, 1, 70, 64
3, 8640, Note_on_c, 1, 70, 0
3, 8640, Note_on_c, 1, 72, 64
3, 8790, Note_on_c, 1, 72, 0
3, 8790, Note_on_c, 1, 69, 64
3, 8820, Note_on_c, 1, 69, 0
3, 8820, Note_on_c, 1, 62, 64
3, 8940, Note_on_c, 1, 62, 0
3, 8940, Note_on_c, 1, 60, 64
3, 9000, Note_on_c, 1, 60, 0
3, 9000, Note_on_c, 1, 67, 64
3, 9060, Note_on_c, 1, 67, 0
3, 9060, Note_on_c, 1, 60, 64
3, 9120, Note_on_c, 1, 60, 0
3, 9120, Note_on_c, 1, 58, 64
3, 9180, Note_on_c, 1, 58, 0
3, 9180, Note_on_c, 1, 62, 90
3, 9300, Note_on_c, 1, 62, 0
3, 9300, Note_on_c, 1, 62, 90
3, 9360, Note_on_c, 1, 62, 0
3, 9360, Note_on_c, 1, 62, 90
3, 9420, Note_on_c, 1, 62, 0
3, 9420, Note_on_c, 1, 63, 64
3, 9540, Note_on_c, 1, 63, 0
3, 9540, Note_on_c, 1, 60, 64
3, 9600, Note_on_c, 1, 60, 0
3, 9600, Note_on_c, 1, 58, 64
3, 9630, Note_on_c, 1, 58, 0
3, 9630, Note_on_c, 1, 54, 64
3, 9660, Note_on_c, 1, 54, 0
3, 9660, Note_on_c, 1, 55, 64
3, 9690, Note_on_c, 1, 55, 0
3, 9690, Note_on_c, 1, 57, 64
3, 9720, Note_on_c, 1, 57, 0
3, 9720, Note_on_c, 1, 58, 64
3, 9750, Note_on_c, 1, 58, 0
3, 9750, Note_on_c, 1, 60, 64
3, 9780, Note_on_c, 1, 60, 0
3, 9780, Note_on_c, 1, 62, 64
3, 9810, Note_on_c, 1, 62, 0
3, 9810, Note_on_c, 1, 64, 64
3, 9840, Note_on_c, 1, 64, 0
3, 9840, Note_on_c, 1, 66, 64
3, 9870, Note_on_c, 1, 66, 0
3, 9870, Note_on_c, 1, 69, 64
3, 9900, Note_on_c, 1, 69, 0
3, 9900, Note_on_c, 1, 64, 64
3, 9930, Note_on_c, 1, 64, 0
3, 9930, Note_on_c, 1, 66, 64
3, 9960, Note_on_c, 1, 66, 0
3, 9960, Note_on_c, 1, 67, 64
3, 9990, Note_on_c, 1, 67, 0
3, 9990, Note_on_c, 1, 66, 64
3, 10020, Note_on_c, 1, 66, 0
3, 10020, Note_on_c, 1, 70, 64
3, 10050, Note_on_c, 1, 70, 0
3, 10050, Note_on_c, 1, 67, 64
3, 10290, Note_on_c, 1, 67, 0
3, 10290, Note_on_c, 1, 60, 64
3, 10380, Note_on_c, 1, 60, 0
3, 10380, Note_on_c, 1, 54, 64
3, 10440, Note_on_c, 1, 54, 0
3, 10440, Note_on_c, 1, 58, 64
3, 10560, Note_on_c, 1, 58, 0
3, 10560, Note_on_c, 1, 52, 64
3, 10620, Note_on_c, 1, 52, 0
3, 10620, Note_on_c, 1, 61, 64
3, 10680, Note_on_c, 1, 61, 0
3, 10680, Note_on_c, 1, 60, 64
3, 10740, Note_on_c, 1, 60, 0
3, 10740, Note_on_c, 1, 58, 64
3, 10770, Note_on_c, 1, 58, 0
3, 10770, Note_on_c, 1, 57, 64
3, 10800, Note_on_c, 1, 57, 0
3, 10800, Note_on_c, 1, 59, 64
3, 11040, Note_on_c, 1, 59, 0
3, 11040, End_track
4, 0, Start_track
4, 0, MIDI_port, 0
4, 0, Title_t, "BASSOON"
4, 0, Program_c, 2, 0
4, 0, Control_c, 2, 7, 100
4, 0, Control_c, 2, 10, 92
4, 0, Note_on_c, 2, 43, 64
4, 10, Control_c, 2, 7, 73
4, 60, Control_c, 2, 7, 74
4, 110, Control_c, 2, 7, 75
4, 120, Note_on_c, 2, 43, 0
4, 180, Note_on_c, 2, 55, 64
4, 240, Note_on_c, 2, 55, 0
4, 240, Note_on_c, 2, 54, 64
4, 270, Note_on_c, 2, 54, 0
4, 270, Note_on_c, 2, 55, 64
4, 300, Note_on_c, 2, 55, 0
4, 300, Note_on_c, 2, 57, 64
4, 330, Note_on_c, 2, 57, 0
4, 330, Note_on_c, 2, 55, 64
4, 360, Note_on_c, 2, 55, 0
4, 360, Note_on_c, 2, 54, 64
4, 420, Note_on_c, 2, 54, 0
4, 420, Note_on_c, 2, 53, 64
4, 480, Note_on_c, 2, 53, 0
4, 480, Note_on_c, 2, 52, 64
4, 510, Note_on_c, 2, 52, 0
4, 510, Note_on_c, 2, 53, 64
4, 540, Note_on_c, 2, 53, 0
4, 540, Note_on_c, 2, 55, 64
4, 570, Note_on_c, 2, 55, 0
4, 570, Note_on_c, 2, 53, 64
4, 600, Note_on_c, 2, 53, 0
4, 600, Note_on_c, 2, 52, 64
4, 660, Note_on_c, 2, 52, 0
4, 660, Note_on_c, 2, 51, 64
4, 720, Note_on_c, 2, 51, 0
4, 720, Note_on_c, 2, 50, 64
4, 780, Note_on_c, 2, 50, 0
4, 780, Note_on_c, 2, 55, 64
4, 795, Note_on_c, 2, 55, 0
4, 795, Note_on_c, 2, 57, 64
4, 810, Note_on_c, 2, 57, 0
4, 810, Note_on_c, 2, 55, 64
4, 900, Note_on_c, 2, 55, 0
4, 900, Note_on_c, 2, 54, 64
4, 960, Note_on_c, 2, 54, 0
4, 960, Note_on_c, 2, 55, 64
4, 990, Note_on_c, 2, 55, 0
4, 990, Note_on_c, 2, 50, 64
4, 1020, Note_on_c, 2, 50, 0
4, 1020, Note_on_c, 2, 52, 64
4, 1050, Note_on_c, 2, 52, 0
4, 1050, Note_on_c, 2, 54, 64
4, 1080, Note_on_c, 2, 54, 0
4, 1080, Note_on_c, 2, 55, 64
4, 1110, Note_on_c, 2, 55, 0
4, 1110, Note_on_c, 2, 57, 64
4, 1140, Note_on_c, 2, 57, 0
4, 1140, Note_on_c, 2, 58, 64
4, 1170, Note_on_c, 2, 58, 0
4, 1170, Note_on_c, 2, 55, 64
4, 1200, Note_on_c, 2, 55, 0
4, 1200, Note_on_c, 2, 57, 64
4, 1230, Note_on_c, 2, 57, 0
4, 1230, Note_on_c, 2, 55, 64
4, 1260, Note_on_c, 2, 55, 0
4, 1260, Note_on_c, 2, 53, 64
4, 1290, Note_on_c, 2, 53, 0
4, 1290, Note_on_c, 2, 52, 64
4, 1320, Note_on_c, 2, 52, 0
4, 1320, Note_on_c, 2, 50, 64
4, 1350, Note_on_c, 2, 50, 0
4, 1350, Note_on_c, 2, 60, 64
4, 1380, Note_on_c, 2, 60, 0
4, 1380, Note_on_c, 2, 58, 64
4, 1410, Note_on_c, 2, 58, 0
4, 1410, Note_on_c, 2, 57, 64
4, 1440, Note_on_c, 2, 57, 0
4, 1440, Note_on_c, 2, 55, 64
4, 1440, Control_c, 2, 7, 78
4, 1460, Control_c, 2, 7, 79
4, 1470, Note_on_c, 2, 55, 0
4, 1470, Note_on_c, 2, 53, 64
4, 1480, Control_c, 2, 7, 80
4, 1490, Control_c, 2, 7, 81
4, 1500, Note_on_c, 2, 53, 0
4, 1500, Note_on_c, 2, 51, 64
4, 1510, Control_c, 2, 7, 82
4, 1520, Control_c, 2, 7, 83
4, 1530, Note_on_c, 2, 51, 0
4, 1530, Note_on_c, 2, 50, 64
4, 1540, Control_c, 2, 7, 84
4, 1550, Control_c, 2, 7, 85
4, 1560, Note_on_c, 2, 50, 0
4, 1560, Note_on_c, 2, 48, 64
4, 1570, Control_c, 2, 7, 86
4, 1590, Note_on_c, 2, 48, 0
4, 1590, Note_on_c, 2, 58, 64
4, 1590, Control_c, 2, 7, 87
4, 1600, Control_c, 2, 7, 88
4, 1620, Note_on_c, 2, 58, 0
4, 1620, Note_on_c, 2, 57, 64
4, 1620, Control_c, 2, 7, 89
4, 1630, Control_c, 2, 7, 90
4, 1650, Note_on_c, 2, 57, 0
4, 1650, Note_on_c, 2, 55, 64
4, 1650, Control_c, 2, 7, 91
4, 1660, Control_c, 2, 7, 92
4, 1680, Note_on_c, 2, 55, 0
4, 1680, Note_on_c, 2, 62, 64
4, 1680, Control_c, 2, 7, 93
4, 1690, Control_c, 2, 7, 94
4, 1710, Note_on_c, 2, 62, 0
4, 1710, Note_on_c, 2, 60, 64
4, 1710, Control_c, 2, 7, 95
4, 1730, Control_c, 2, 7, 96
4, 1740, Note_on_c, 2, 60, 0
4, 1740, Note_on_c, 2, 58, 64
4, 1740, Control_c, 2, 7, 97
4, 1760, Control_c, 2, 7, 98
4, 1770, Note_on_c, 2, 58, 0
4, 1770, Note_on_c, 2, 62, 64
4, 1770, Control_c, 2, 7, 99
4, 1790, Control_c, 2, 7, 100
4, 1800, Note_on_c, 2, 62, 0
4, 1800, Note_on_c, 2, 60, 64
4, 1800, Control_c, 2, 7, 101
4, 1820, Control_c, 2, 7, 102
4, 1830, Note_on_c, 2, 60, 0
4, 1830, Note_on_c, 2, 58, 64
4, 1840, Control_c, 2, 7, 103
4, 1850, Control_c, 2, 7, 104
4, 1860, Note_on_c, 2, 58, 0
4, 1860, Note_on_c, 2, 57, 64
4, 1870, Control_c, 2, 7, 105
4, 1880, Control_c, 2, 7, 106
4, 1890, Note_on_c, 2, 57, 0
4, 1890, Note_on_c, 2, 60, 64
4, 1900, Control_c, 2, 7, 107
4, 1910, Control_c, 2, 7, 108
4, 1920, Note_on_c, 2, 60, 0
4, 1920, Note_on_c, 2, 58, 64
4, 1930, Control_c, 2, 7, 109
4, 1940, Control_c, 2, 7, 110
4, 1950, Note_on_c, 2, 58, 0
4, 1950, Note_on_c, 2, 57, 64
4, 1960, Control_c, 2, 7, 109
4, 1970, Control_c, 2, 7, 108
4, 1980, Note_on_c, 2, 57, 0
4, 1980, Note_on_c, 2, 55, 64
4, 1980, Control_c, 2, 7, 107
4, 1990, Control_c, 2, 7, 106
4, 2010, Note_on_c, 2, 55, 0
4, 2010, Note_on_c, 2, 57, 64
4, 2010, Control_c, 2, 7, 105
4, 2020, Control_c, 2, 7, 104
4, 2030, Control_c, 2, 7, 103
4, 2040, Note_on_c, 2, 57, 0
4, 2040, Note_on_c, 2, 58, 64
4, 2040, Control_c, 2, 7, 102
4, 2060, Control_c, 2, 7, 101
4, 2070, Note_on_c, 2, 58, 0
4, 2070, Note_on_c, 2, 60, 64
4, 2070, Control_c, 2, 7, 100
4, 2080, Control_c, 2, 7, 99
4, 2090, Control_c, 2, 7, 98
4, 2100, Note_on_c, 2, 60, 0
4, 2100, Note_on_c, 2, 62, 64
4, 2110, Control_c, 2, 7, 97
4, 2120, Control_c, 2, 7, 96
4, 2130, Note_on_c, 2, 62, 0
4, 2130, Note_on_c, 2, 58, 64
4, 2130, Control_c, 2, 7, 95
4, 2140, Control_c, 2, 7, 94
4, 2160, Note_on_c, 2, 58, 0
4, 2160, Note_on_c, 2, 60, 64
4, 2160, Control_c, 2, 7, 93
4, 2170, Control_c, 2, 7, 92
4, 2180, Control_c, 2, 7, 91
4, 2190, Control_c, 2, 7, 90
4, 2210, Control_c, 2, 7, 89
4, 2220, Note_on_c, 2, 60, 0
4, 2220, Note_on_c, 2, 51, 64
4, 2220, Control_c, 2, 7, 88
4, 2230, Control_c, 2, 7, 87
4, 2240, Control_c, 2, 7, 86
4, 2260, Control_c, 2, 7, 85
4, 2270, Control_c, 2, 7, 84
4, 2280, Note_on_c, 2, 51, 0
4, 2280, Note_on_c, 2, 53, 64
4, 2280, Control_c, 2, 7, 83
4, 2290, Control_c, 2, 7, 82
4, 2295, Note_on_c, 2, 53, 0
4, 2295, Note_on_c, 2, 52, 64
4, 2310, Note_on_c, 2, 52, 0
4, 2310, Note_on_c, 2, 53, 64
4, 2310, Control_c, 2, 7, 81
4, 2320, Control_c, 2, 7, 80
4, 2330, Control_c, 2, 7, 79
4, 2340, Note_on_c, 2, 53, 0
4, 2340, Note_on_c, 2, 41, 64
4, 2340, Control_c, 2, 7, 78
4, 2360, Control_c, 2, 7, 77
4, 2370, Control_c, 2, 7, 76
4, 2380, Control_c, 2, 7, 75
4, 2390, Control_c, 2, 7, 73
4, 2400, Note_on_c, 2, 41, 0
4, 2400, Note_on_c, 2, 46, 64
4, 2460, Note_on_c, 2, 46, 0
4, 2460, Note_on_c, 2, 58, 64
4, 2460, Control_c, 2, 7, 74
4, 2520, Note_on_c, 2, 58, 0
4, 2520, Note_on_c, 2, 57, 64
4, 2520, Control_c, 2, 7, 75
4, 2580, Note_on_c, 2, 57, 0
4, 2580, Note_on_c, 2, 62, 64
4, 2590, Control_c, 2, 7, 76
4, 2640, Note_on_c, 2, 62, 0
4, 2640, Note_on_c, 2, 58, 64
4, 2650, Control_c, 2, 7, 77
4, 2700, Note_on_c, 2, 58, 0
4, 2700, Note_on_c, 2, 55, 64
4, 2720, Control_c, 2, 7, 78
4, 2760, Note_on_c, 2, 55, 0
4, 2760, Note_on_c, 2, 57, 64
4, 2775, Note_on_c, 2, 57, 0
4, 2775, Note_on_c, 2, 56, 64
4, 2780, Control_c, 2, 7, 79
4, 2790, Note_on_c, 2, 56, 0
4, 2790, Note_on_c, 2, 57, 64
4, 2820, Note_on_c, 2, 57, 0
4, 2820, Note_on_c, 2, 45, 64
4, 2850, Control_c, 2, 7, 80
4, 2880, Note_on_c, 2, 45, 0
4, 2880, Note_on_c, 2, 38, 64
4, 2910, Note_on_c, 2, 38, 0
4, 2910, Note_on_c, 2, 45, 64
4, 2910, Control_c, 2, 7, 81
4, 2940, Note_on_c, 2, 45, 0
4, 2940, Note_on_c, 2, 47, 64
4, 2970, Note_on_c, 2, 47, 0
4, 2970, Note_on_c, 2, 49, 64
4, 2980, Control_c, 2, 7, 82
4, 3000, Note_on_c, 2, 49, 0
4, 3000, Note_on_c, 2, 50, 64
4, 3030, Note_on_c, 2, 50, 0
4, 3030, Note_on_c, 2, 52, 64
4, 3040, Control_c, 2, 7, 83
4, 3060, Note_on_c, 2, 52, 0
4, 3060, Note_on_c, 2, 53, 64
4, 3090, Note_on_c, 2, 53, 0
4, 3090, Note_on_c, 2, 50, 64
4, 3110, Control_c, 2, 7, 84
4, 3120, Note_on_c, 2, 50, 0
4, 3120, Note_on_c, 2, 52, 64
4, 3150, Note_on_c, 2, 52, 0
4, 3150, Note_on_c, 2, 50, 64
4, 3170, Control_c, 2, 7, 85
4, 3180, Note_on_c, 2, 50, 0
4, 3180, Note_on_c, 2, 49, 64
4, 3210, Note_on_c, 2, 49, 0
4, 3210, Note_on_c, 2, 46, 64
4, 3240, Note_on_c, 2, 46, 0
4, 3240, Note_on_c, 2, 45, 64
4, 3240, Control_c, 2, 7, 86
4, 3270, Note_on_c, 2, 45, 0
4, 3270, Note_on_c, 2, 55, 64
4, 3300, Note_on_c, 2, 55, 0
4, 3300, Note_on_c, 2, 53, 64
4, 3300, Control_c, 2, 7, 87
4, 3330, Note_on_c, 2, 53, 0
4, 3330, Note_on_c, 2, 52, 64
4, 3360, Note_on_c, 2, 52, 0
4, 3360, Note_on_c, 2, 50, 64
4, 3370, Control_c, 2, 7, 88
4, 3390, Note_on_c, 2, 50, 0
4, 3390, Note_on_c, 2, 48, 64
4, 3420, Note_on_c, 2, 48, 0
4, 3420, Note_on_c, 2, 47, 64
4, 3430, Control_c, 2, 7, 89
4, 3450, Note_on_c, 2, 47, 0
4, 3450, Note_on_c, 2, 45, 64
4, 3480, Note_on_c, 2, 45, 0
4, 3480, Note_on_c, 2, 43, 64
4, 3500, Control_c, 2, 7, 90
4, 3510, Note_on_c, 2, 43, 0
4, 3510, Note_on_c, 2, 53, 64
4, 3540, Note_on_c, 2, 53, 0
4, 3540, Note_on_c, 2, 52, 64
4, 3560, Control_c, 2, 7, 91
4, 3570, Note_on_c, 2, 52, 0
4, 3570, Note_on_c, 2, 50, 64
4, 3600, Note_on_c, 2, 50, 0
4, 3600, Note_on_c, 2, 57, 64
4, 3630, Note_on_c, 2, 57, 0
4, 3630, Note_on_c, 2, 55, 64
4, 3630, Control_c, 2, 7, 92
4, 3660, Note_on_c, 2, 55, 0
4, 3660, Note_on_c, 2, 53, 64
4, 3690, Note_on_c, 2, 53, 0
4, 3690, Note_on_c, 2, 57, 64
4, 3690, Control_c, 2, 7, 93
4, 3720, Note_on_c, 2, 57, 0
4, 3720, Note_on_c, 2, 55, 64
4, 3750, Note_on_c, 2, 55, 0
4, 3750, Note_on_c, 2, 53, 64
4, 3760, Control_c, 2, 7, 94
4, 3780, Note_on_c, 2, 53, 0
4, 3780, Note_on_c, 2, 52, 64
4, 3810, Note_on_c, 2, 52, 0
4, 3810, Note_on_c, 2, 55, 64
4, 3820, Control_c, 2, 7, 95
4, 3840, Note_on_c, 2, 55, 0
4, 3840, Note_on_c, 2, 53, 64
4, 3870, Note_on_c, 2, 53, 0
4, 3870, Note_on_c, 2, 52, 64
4, 3890, Control_c, 2, 7, 96
4, 3900, Note_on_c, 2, 52, 0
4, 3900, Note_on_c, 2, 50, 64
4, 3930, Note_on_c, 2, 50, 0
4, 3930, Note_on_c, 2, 53, 64
4, 3950, Control_c, 2, 7, 97
4, 3960, Note_on_c, 2, 53, 0
4, 3960, Note_on_c, 2, 52, 64
4, 3990, Note_on_c, 2, 52, 0
4, 3990, Note_on_c, 2, 50, 64
4, 4020, Note_on_c, 2, 50, 0
4, 4020, Note_on_c, 2, 49, 64
4, 4020, Control_c, 2, 7, 98
4, 4050, Note_on_c, 2, 49, 0
4, 4050, Note_on_c, 2, 52, 64
4, 4080, Note_on_c, 2, 52, 0
4, 4080, Note_on_c, 2, 50, 64
4, 4080, Control_c, 2, 7, 99
4, 4110, Note_on_c, 2, 50, 0
4, 4110, Note_on_c, 2, 52, 64
4, 4140, Note_on_c, 2, 52, 0
4, 4140, Note_on_c, 2, 53, 64
4, 4150, Control_c, 2, 7, 100
4, 4170, Note_on_c, 2, 53, 0
4, 4170, Note_on_c, 2, 50, 64
4, 4200, Note_on_c, 2, 50, 0
4, 4200, Note_on_c, 2, 55, 64
4, 4210, Control_c, 2, 7, 101
4, 4230, Note_on_c, 2, 55, 0
4, 4230, Note_on_c, 2, 57, 64
4, 4260, Note_on_c, 2, 57, 0
4, 4260, Note_on_c, 2, 58, 64
4, 4280, Control_c, 2, 7, 102
4, 4290, Note_on_c, 2, 58, 0
4, 4290, Note_on_c, 2, 55, 64
4, 4320, Note_on_c, 2, 55, 0
4, 4320, Note_on_c, 2, 61, 64
4, 4340, Control_c, 2, 7, 103
4, 4350, Note_on_c, 2, 61, 0
4, 4350, Note_on_c, 2, 57, 64
4, 4380, Note_on_c, 2, 57, 0
4, 4380, Note_on_c, 2, 59, 64
4, 4410, Note_on_c, 2, 59, 0
4, 4410, Note_on_c, 2, 61, 64
4, 4410, Control_c, 2, 7, 104
4, 4440, Note_on_c, 2, 61, 0
4, 4440, Note_on_c, 2, 62, 64
4, 4470, Note_on_c, 2, 62, 0
4, 4470, Note_on_c, 2, 53, 64
4, 4470, Control_c, 2, 7, 105
4, 4500, Note_on_c, 2, 53, 0
4, 4500, Note_on_c, 2, 55, 64
4, 4530, Note_on_c, 2, 55, 0
4, 4530, Note_on_c, 2, 57, 64
4, 4540, Control_c, 2, 7, 106
4, 4560, Note_on_c, 2, 57, 0
4, 4560, Note_on_c, 2, 58, 64
4, 4590, Note_on_c, 2, 58, 0
4, 4590, Note_on_c, 2, 52, 64
4, 4600, Control_c, 2, 7, 107
4, 4620, Note_on_c, 2, 52, 0
4, 4620, Note_on_c, 2, 53, 64
4, 4650, Note_on_c, 2, 53, 0
4, 4650, Note_on_c, 2, 55, 64
4, 4670, Control_c, 2, 7, 108
4, 4680, Note_on_c, 2, 55, 0
4, 4680, Note_on_c, 2, 57, 64
4, 4730, Control_c, 2, 7, 109
4, 4740, Note_on_c, 2, 57, 0
4, 4740, Note_on_c, 2, 45, 64
4, 4790, Control_c, 2, 7, 110
4, 4800, Note_on_c, 2, 45, 0
4, 4800, Note_on_c, 2, 50, 64
4, 4800, Control_c, 2, 7, 108
4, 4830, Control_c, 2, 7, 107
4, 4850, Control_c, 2, 7, 106
4, 4870, Control_c, 2, 7, 105
4, 4890, Control_c, 2, 7, 104
4, 4910, Control_c, 2, 7, 103
4, 4920, Note_on_c, 2, 50, 0
4, 4930, Control_c, 2, 7, 102
4, 4950, Note_on_c, 2, 50, 64
4, 4950, Control_c, 2, 7, 101
4, 4970, Control_c, 2, 7, 100
4, 4980, Note_on_c, 2, 50, 0
4, 4980, Note_on_c, 2, 52, 64
4, 4990, Control_c, 2, 7, 99
4, 5010, Note_on_c, 2, 52, 0
4, 5010, Note_on_c, 2, 53, 64
4, 5010, Control_c, 2, 7, 98
4, 5030, Control_c, 2, 7, 97
4, 5040, Note_on_c, 2, 53, 0
4, 5040, Note_on_c, 2, 55, 64
4, 5060, Control_c, 2, 7, 96
4, 5070, Note_on_c, 2, 55, 0
4, 5070, Note_on_c, 2, 57, 64
4, 5080, Control_c, 2, 7, 95
4, 5100, Note_on_c, 2, 57, 0
4, 5100, Note_on_c, 2, 58, 64
4, 5100, Control_c, 2, 7, 94
4, 5120, Control_c, 2, 7, 93
4, 5130, Note_on_c, 2, 58, 0
4, 5130, Note_on_c, 2, 55, 64
4, 5140, Control_c, 2, 7, 92
4, 5160, Note_on_c, 2, 55, 0
4, 5160, Note_on_c, 2, 60, 64
4, 5160, Control_c, 2, 7, 91
4, 5175, Note_on_c, 2, 60, 0
4, 5175, Note_on_c, 2, 59, 64
4, 5180, Control_c, 2, 7, 90
4, 5190, Note_on_c, 2, 59, 0
4, 5190, Note_on_c, 2, 60, 64
4, 5200, Control_c, 2, 7, 89
4, 5220, Note_on_c, 2, 60, 0
4, 5220, Note_on_c, 2, 48, 64
4, 5220, Control_c, 2, 7, 88
4, 5240, Control_c, 2, 7, 87
4, 5260, Control_c, 2, 7, 86
4, 5270, Control_c, 2, 7, 85
4, 5280, Note_on_c, 2, 48, 0
4, 5280, Note_on_c, 2, 53, 64
4, 5310, Control_c, 2, 7, 86
4, 5340, Note_on_c, 2, 53, 0
4, 5340, Note_on_c, 2, 51, 64
4, 5350, Control_c, 2, 7, 87
4, 5370, Note_on_c, 2, 51, 0
4, 5370, Note_on_c, 2, 50, 64
4, 5380, Control_c, 2, 7, 88
4, 5400, Note_on_c, 2, 50, 0
4, 5400, Note_on_c, 2, 51, 64
4, 5420, Control_c, 2, 7, 89
4, 5430, Note_on_c, 2, 51, 0
4, 5430, Note_on_c, 2, 53, 64
4, 5460, Note_on_c, 2, 53, 0
4, 5460, Note_on_c, 2, 55, 64
4, 5460, Control_c, 2, 7, 90
4, 5490, Note_on_c, 2, 55, 0
4, 5490, Note_on_c, 2, 51, 64
4, 5490, Control_c, 2, 7, 91
4, 5520, Note_on_c, 2, 51, 0
4, 5520, Note_on_c, 2, 53, 64
4, 5530, Control_c, 2, 7, 92
4, 5550, Note_on_c, 2, 53, 0
4, 5550, Note_on_c, 2, 51, 64
4, 5570, Control_c, 2, 7, 93
4, 5580, Note_on_c, 2, 51, 0
4, 5580, Note_on_c, 2, 50, 64
4, 5600, Control_c, 2, 7, 94
4, 5610, Note_on_c, 2, 50, 0
4, 5610, Note_on_c, 2, 48, 64
4, 5640, Note_on_c, 2, 48, 0
4, 5640, Note_on_c, 2, 47, 64
4, 5640, Control_c, 2, 7, 95
4, 5670, Note_on_c, 2, 47, 0
4, 5670, Note_on_c, 2, 56, 64
4, 5680, Control_c, 2, 7, 96
4, 5700, Note_on_c, 2, 56, 0
4, 5700, Note_on_c, 2, 55, 64
4, 5710, Control_c, 2, 7, 97
4, 5730, Note_on_c, 2, 55, 0
4, 5730, Note_on_c, 2, 53, 64
4, 5750, Control_c, 2, 7, 98
4, 5760, Note_on_c, 2, 53, 0
4, 5760, Note_on_c, 2, 51, 64
4, 5790, Note_on_c, 2, 51, 0
4, 5790, Note_on_c, 2, 50, 64
4, 5790, Control_c, 2, 7, 99
4, 5820, Note_on_c, 2, 50, 0
4, 5820, Note_on_c, 2, 48, 64
4, 5820, Control_c, 2, 7, 100
4, 5850, Note_on_c, 2, 48, 0
4, 5850, Note_on_c, 2, 50, 64
4, 5860, Control_c, 2, 7, 101
4, 5880, Note_on_c, 2, 50, 0
4, 5880, Note_on_c, 2, 51, 64
4, 5900, Control_c, 2, 7, 102
4, 5910, Note_on_c, 2, 51, 0
4, 5910, Note_on_c, 2, 53, 64
4, 5930, Control_c, 2, 7, 103
4, 5940, Note_on_c, 2, 53, 0
4, 5940, Note_on_c, 2, 55, 64
4, 5970, Note_on_c, 2, 55, 0
4, 5970, Note_on_c, 2, 56, 64
4, 5970, Control_c, 2, 7, 104
4, 6000, Note_on_c, 2, 56, 0
4, 6000, Note_on_c, 2, 47, 64
4, 6010, Control_c, 2, 7, 105
4, 6040, Control_c, 2, 7, 106
4, 6060, Note_on_c, 2, 47, 0
4, 6060, Note_on_c, 2, 43, 64
4, 6080, Control_c, 2, 7, 107
4, 6120, Note_on_c, 2, 43, 0
4, 6120, Control_c, 2, 7, 108
4, 6150, Control_c, 2, 7, 109
4, 6180, Note_on_c, 2, 43, 64
4, 6190, Control_c, 2, 7, 110
4, 6230, Control_c, 2, 7, 111
4, 6240, Note_on_c, 2, 43, 0
4, 6240, Note_on_c, 2, 44, 64
4, 6260, Control_c, 2, 7, 112
4, 6270, Note_on_c, 2, 44, 0
4, 6270, Note_on_c, 2, 43, 64
4, 6300, Note_on_c, 2, 43, 0
4, 6300, Note_on_c, 2, 41, 64
4, 6330, Note_on_c, 2, 41, 0
4, 6330, Note_on_c, 2, 43, 64
4, 6360, Note_on_c, 2, 43, 0
4, 6360, Note_on_c, 2, 44, 64
4, 6420, Note_on_c, 2, 44, 0
4, 6420, Note_on_c, 2, 45, 64
4, 6480, Note_on_c, 2, 45, 0
4, 6480, Note_on_c, 2, 46, 64
4, 6510, Note_on_c, 2, 46, 0
4, 6510, Note_on_c, 2, 45, 64
4, 6540, Note_on_c, 2, 45, 0
4, 6540, Note_on_c, 2, 43, 64
4, 6570, Note_on_c, 2, 43, 0
4, 6570, Note_on_c, 2, 45, 64
4, 6600, Note_on_c, 2, 45, 0
4, 6600, Note_on_c, 2, 46, 64
4, 6660, Note_on_c, 2, 46, 0
4, 6660, Note_on_c, 2, 47, 64
4, 6720, Note_on_c, 2, 47, 0
4, 6720, Note_on_c, 2, 48, 64
4, 6750, Note_on_c, 2, 48, 0
4, 6750, Note_on_c, 2, 43, 64
4, 6780, Note_on_c, 2, 43, 0
4, 6780, Note_on_c, 2, 45, 64
4, 6810, Note_on_c, 2, 45, 0
4, 6810, Note_on_c, 2, 47, 64
4, 6840, Note_on_c, 2, 47, 0
4, 6840, Note_on_c, 2, 48, 64
4, 6870, Note_on_c, 2, 48, 0
4, 6870, Note_on_c, 2, 50, 64
4, 6900, Note_on_c, 2, 50, 0
4, 6900, Note_on_c, 2, 51, 64
4, 6930, Note_on_c, 2, 51, 0
4, 6930, Note_on_c, 2, 48, 64
4, 6960, Note_on_c, 2, 48, 0
4, 6960, Note_on_c, 2, 50, 64
4, 6990, Note_on_c, 2, 50, 0
4, 6990, Note_on_c, 2, 48, 64
4, 7020, Note_on_c, 2, 48, 0
4, 7020, Note_on_c, 2, 46, 64
4, 7050, Note_on_c, 2, 46, 0
4, 7050, Note_on_c, 2, 45, 64
4, 7080, Note_on_c, 2, 45, 0
4, 7080, Note_on_c, 2, 43, 64
4, 7110, Note_on_c, 2, 43, 0
4, 7110, Note_on_c, 2, 53, 64
4, 7140, Note_on_c, 2, 53, 0
4, 7140, Note_on_c, 2, 51, 64
4, 7170, Note_on_c, 2, 51, 0
4, 7170, Note_on_c, 2, 50, 64
4, 7200, Note_on_c, 2, 50, 0
4, 7200, Note_on_c, 2, 48, 64
4, 7230, Note_on_c, 2, 48, 0
4, 7230, Note_on_c, 2, 46, 64
4, 7260, Note_on_c, 2, 46, 0
4, 7260, Note_on_c, 2, 44, 64
4, 7290, Note_on_c, 2, 44, 0
4, 7290, Note_on_c, 2, 43, 64
4, 7320, Note_on_c, 2, 43, 0
4, 7320, Note_on_c, 2, 41, 64
4, 7350, Note_on_c, 2, 41, 0
4, 7350, Note_on_c, 2, 39, 64
4, 7380, Note_on_c, 2, 39, 0
4, 7380, Note_on_c, 2, 41, 64
4, 7410, Note_on_c, 2, 41, 0
4, 7410, Note_on_c, 2, 43, 64
4, 7440, Note_on_c, 2, 43, 0
4, 7440, Note_on_c, 2, 36, 64
4, 7470, Note_on_c, 2, 36, 0
4, 7470, Note_on_c, 2, 50, 64
4, 7500, Note_on_c, 2, 50, 0
4, 7500, Note_on_c, 2, 51, 64
4, 7530, Note_on_c, 2, 51, 0
4, 7530, Note_on_c, 2, 53, 64
4, 7560, Note_on_c, 2, 53, 0
4, 7560, Note_on_c, 2, 55, 64
4, 7590, Note_on_c, 2, 55, 0
4, 7590, Note_on_c, 2, 56, 64
4, 7620, Note_on_c, 2, 56, 0
4, 7620, Note_on_c, 2, 58, 64
4, 7650, Note_on_c, 2, 58, 0
4, 7650, Note_on_c, 2, 55, 64
4, 7680, Note_on_c, 2, 55, 0
4, 7680, Note_on_c, 2, 56, 64
4, 7710, Note_on_c, 2, 56, 0
4, 7710, Note_on_c, 2, 55, 64
4, 7740, Note_on_c, 2, 55, 0
4, 7740, Note_on_c, 2, 53, 64
4, 7770, Note_on_c, 2, 53, 0
4, 7770, Note_on_c, 2, 51, 64
4, 7800, Note_on_c, 2, 51, 0
4, 7800, Note_on_c, 2, 50, 64
4, 7830, Note_on_c, 2, 50, 0
4, 7830, Note_on_c, 2, 60, 64
4, 7860, Note_on_c, 2, 60, 0
4, 7860, Note_on_c, 2, 58, 64
4, 7890, Note_on_c, 2, 58, 0
4, 7890, Note_on_c, 2, 56, 64
4, 7920, Note_on_c, 2, 56, 0
4, 7920, Note_on_c, 2, 55, 64
4, 7950, Note_on_c, 2, 55, 0
4, 7950, Note_on_c, 2, 53, 64
4, 7980, Note_on_c, 2, 53, 0
4, 7980, Note_on_c, 2, 55, 64
4, 8010, Note_on_c, 2, 55, 0
4, 8010, Note_on_c, 2, 57, 64
4, 8040, Note_on_c, 2, 57, 0
4, 8040, Note_on_c, 2, 58, 64
4, 8070, Note_on_c, 2, 58, 0
4, 8070, Note_on_c, 2, 60, 64
4, 8100, Note_on_c, 2, 60, 0
4, 8100, Note_on_c, 2, 62, 64
4, 8130, Note_on_c, 2, 62, 0
4, 8130, Note_on_c, 2, 58, 64
4, 8160, Note_on_c, 2, 58, 0
4, 8160, Note_on_c, 2, 60, 64
4, 8190, Note_on_c, 2, 60, 0
4, 8190, Note_on_c, 2, 58, 64
4, 8220, Note_on_c, 2, 58, 0
4, 8220, Note_on_c, 2, 57, 64
4, 8250, Note_on_c, 2, 57, 0
4, 8250, Note_on_c, 2, 55, 64
4, 8280, Note_on_c, 2, 55, 0
4, 8280, Note_on_c, 2, 54, 64
4, 8310, Note_on_c, 2, 54, 0
4, 8310, Note_on_c, 2, 63, 64
4, 8340, Note_on_c, 2, 63, 0
4, 8340, Note_on_c, 2, 62, 64
4, 8370, Note_on_c, 2, 62, 0
4, 8370, Note_on_c, 2, 60, 64
4, 8400, Note_on_c, 2, 60, 0
4, 8400, Note_on_c, 2, 58, 64
4, 8550, Note_on_c, 2, 58, 0
4, 8550, Note_on_c, 2, 60, 64
4, 8580, Note_on_c, 2, 60, 0
4, 8580, Note_on_c, 2, 62, 64
4, 8610, Note_on_c, 2, 62, 0
4, 8610, Note_on_c, 2, 63, 64
4, 8640, Note_on_c, 2, 63, 0
4, 8640, Note_on_c, 2, 54, 64
4, 8670, Note_on_c, 2, 54, 0
4, 8670, Note_on_c, 2, 55, 64
4, 8700, Note_on_c, 2, 55, 0
4, 8700, Note_on_c, 2, 57, 64
4, 8730, Note_on_c, 2, 57, 0
4, 8730, Note_on_c, 2, 55, 64
4, 8760, Note_on_c, 2, 55, 0
4, 8760, Note_on_c, 2, 54, 64
4, 8820, Note_on_c, 2, 54, 0
4, 8820, Note_on_c, 2, 53, 64
4, 8880, Note_on_c, 2, 53, 0
4, 8880, Note_on_c, 2, 52, 64
4, 8910, Note_on_c, 2, 52, 0
4, 8910, Note_on_c, 2, 53, 64
4, 8940, Note_on_c, 2, 53, 0
4, 8940, Note_on_c, 2, 55, 64
4, 8970, Note_on_c, 2, 55, 0
4, 8970, Note_on_c, 2, 53, 64
4, 9000, Note_on_c, 2, 53, 0
4, 9000, Note_on_c, 2, 52, 64
4, 9060, Note_on_c, 2, 52, 0
4, 9060, Note_on_c, 2, 51, 64
4, 9120, Note_on_c, 2, 51, 0
4, 9120, Note_on_c, 2, 50, 64
4, 9180, Note_on_c, 2, 50, 0
4, 9180, Note_on_c, 2, 55, 64
4, 9195, Note_on_c, 2, 55, 0
4, 9195, Note_on_c, 2, 57, 64
4, 9210, Note_on_c, 2, 57, 0
4, 9210, Note_on_c, 2, 55, 64
4, 9300, Note_on_c, 2, 55, 0
4, 9300, Note_on_c, 2, 54, 64
4, 9360, Note_on_c, 2, 54, 0
4, 9360, Note_on_c, 2, 50, 64
4, 9420, Note_on_c, 2, 50, 0
4, 9420, Note_on_c, 2, 58, 64
4, 9435, Note_on_c, 2, 58, 0
4, 9435, Note_on_c, 2, 60, 64
4, 9450, Note_on_c, 2, 60, 0
4, 9450, Note_on_c, 2, 58, 64
4, 9540, Note_on_c, 2, 58, 0
4, 9540, Note_on_c, 2, 57, 64
4, 9600, Note_on_c, 2, 57, 0
4, 9600, Note_on_c, 2, 50, 64
4, 9610, Control_c, 2, 7, 112
4, 9630, Control_c, 2, 7, 111
4, 9650, Control_c, 2, 7, 110
4, 9660, Note_on_c, 2, 50, 0
4, 9660, Note_on_c, 2, 62, 64
4, 9660, Control_c, 2, 7, 109
4, 9680, Control_c, 2, 7, 108
4, 9690, Control_c, 2, 7, 107
4, 9710, Control_c, 2, 7, 106
4, 9730, Control_c, 2, 7, 105
4, 9740, Control_c, 2, 7, 104
4, 9760, Control_c, 2, 7, 103
4, 9770, Control_c, 2, 7, 102
4, 9780, Note_on_c, 2, 62, 0
4, 9780, Note_on_c, 2, 60, 64
4, 9790, Control_c, 2, 7, 101
4, 9810, Control_c, 2, 7, 100
4, 9820, Control_c, 2, 7, 99
4, 9840, Control_c, 2, 7, 98
4, 9850, Control_c, 2, 7, 97
4, 9870, Note_on_c, 2, 60, 0
4, 9870, Note_on_c, 2, 63, 64
4, 9870, Control_c, 2, 7, 96
4, 9890, Control_c, 2, 7, 95
4, 9900, Note_on_c, 2, 63, 0
4, 9900, Note_on_c, 2, 62, 64
4, 9900, Control_c, 2, 7, 94
4, 9920, Control_c, 2, 7, 93
4, 9930, Note_on_c, 2, 62, 0
4, 9930, Note_on_c, 2, 60, 64
4, 9930, Control_c, 2, 7, 92
4, 9950, Control_c, 2, 7, 91
4, 9960, Note_on_c, 2, 60, 0
4, 9960, Note_on_c, 2, 58, 64
4, 9970, Control_c, 2, 7, 90
4, 9980, Control_c, 2, 7, 89
4, 9990, Note_on_c, 2, 58, 0
4, 9990, Note_on_c, 2, 57, 64
4, 10000, Control_c, 2, 7, 88
4, 10010, Control_c, 2, 7, 87
4, 10020, Note_on_c, 2, 57, 0
4, 10020, Note_on_c, 2, 55, 64
4, 10030, Control_c, 2, 7, 86
4, 10050, Note_on_c, 2, 55, 0
4, 10050, Note_on_c, 2, 58, 64
4, 10050, Control_c, 2, 7, 85
4, 10060, Control_c, 2, 7, 84
4, 10080, Note_on_c, 2, 58, 0
4, 10080, Note_on_c, 2, 51, 64
4, 10080, Control_c, 2, 7, 83
4, 10090, Control_c, 2, 7, 82
4, 10110, Control_c, 2, 7, 81
4, 10130, Control_c, 2, 7, 80
4, 10140, Control_c, 2, 7, 79
4, 10160, Control_c, 2, 7, 78
4, 10170, Control_c, 2, 7, 77
4, 10190, Control_c, 2, 7, 76
4, 10210, Control_c, 2, 7, 75
4, 10220, Control_c, 2, 7, 74
4, 10230, Note_on_c, 2, 51, 0
4, 10230, Note_on_c, 2, 50, 64
4, 10240, Control_c, 2, 7, 73
4, 10250, Control_c, 2, 7, 72
4, 10260, Note_on_c, 2, 50, 0
4, 10260, Note_on_c, 2, 48, 64
4, 10270, Control_c, 2, 7, 71
4, 10290, Note_on_c, 2, 48, 0
4, 10290, Note_on_c, 2, 51, 64
4, 10290, Control_c, 2, 7, 70
4, 10300, Control_c, 2, 7, 69
4, 10320, Note_on_c, 2, 51, 0
4, 10320, Note_on_c, 2, 45, 64
4, 10320, Control_c, 2, 7, 68
4, 10330, Control_c, 2, 7, 67
4, 10380, Note_on_c, 2, 45, 0
4, 10380, Note_on_c, 2, 50, 64
4, 10395, Note_on_c, 2, 50, 0
4, 10395, Note_on_c, 2, 51, 64
4, 10410, Note_on_c, 2, 51, 0
4, 10410, Note_on_c, 2, 50, 64
4, 10500, Note_on_c, 2, 50, 0
4, 10500, Note_on_c, 2, 48, 64
4, 10560, Note_on_c, 2, 48, 0
4, 10560, Note_on_c, 2, 46, 64
4, 10620, Note_on_c, 2, 46, 0
4, 10620, Note_on_c, 2, 45, 64
4, 10650, Note_on_c, 2, 45, 0
4, 10650, Note_on_c, 2, 43, 64
4, 10680, Note_on_c, 2, 43, 0
4, 10680, Note_on_c, 2, 50, 64
4, 10695, Note_on_c, 2, 50, 0
4, 10695, Note_on_c, 2, 49, 64
4, 10710, Note_on_c, 2, 49, 0
4, 10710, Note_on_c, 2, 50, 64
4, 10740, Note_on_c, 2, 50, 0
4, 10740, Note_on_c, 2, 38, 64
4, 10800, Note_on_c, 2, 38, 0
4, 10800, Note_on_c, 2, 43, 64
4, 11040, Note_on_c, 2, 43, 0
4, 11040, End_track
0, 0, End_of_file