0, 0, Header, 0, 1, 240
1, 0, Start_track
1, 0, Time_signature, 1, 2, 24, 8
1, 0, Tempo, 500000
1, 336, Marker_t, "interpreted by (P) 1997 S.D. Rodrian  WTC Book2 Prelude & Fugue in C#"
1, 2011, Program_c, 0, 0
1, 2011, Program_c, 1, 0
1, 2012, Control_c, 0, 10, 74
1, 2012, Program_c, 2, 0
1, 2013, Control_c, 1, 10, 66
1, 2013, Control_c, 2, 10, 59
1, 2430, Control_c, 2, 7, 127
1, 2440, Control_c, 1, 7, 127
1, 2447, Control_c, 0, 7, 127
1, 2522, Control_c, 2, 10, 60
1, 2540, Control_c, 2, 10, 58
1, 2543, Control_c, 1, 10, 67
1, 2546, Control_c, 0, 10, 79
1, 2564, Control_c, 1, 10, 66
1, 2568, Control_c, 2, 10, 55
1, 2583, Control_c, 2, 10, 59
1, 2588, Control_c, 0, 10, 75
1, 2616, Control_c, 0, 10, 74
1, 2790, Note_on_c, 1, 56, 117
1, 2790, Note_on_c, 1, 49, 117
1, 2868, Note_on_c, 1, 65, 127
1, 2940, Note_off_c, 1, 56, 1
1, 2947, Note_on_c, 0, 68, 124
1, 2947, Note_on_c, 1, 56, 127
1, 2953, Note_off_c, 1, 65, 1
1, 3023, Note_off_c, 0, 68, 1
1, 3024, Note_on_c, 0, 73, 124
1, 3099, Note_off_c, 1, 56, 1
1, 3099, Note_off_c, 1, 49, 1
1, 3100, Note_on_c, 0, 68, 124
1, 3100, Note_on_c, 1, 61, 127
1, 3175, Note_off_c, 0, 68, 1
1, 3175, Note_on_c, 1, 66, 127
1, 3247, Note_off_c, 1, 61, 1
1, 3248, Note_on_c, 0, 68, 124
1, 3248, Note_on_c, 1, 61, 127
1, 3254, Note_off_c, 1, 66, 1
1, 3320, Note_off_c, 0, 68, 1
1, 3320, Note_on_c, 1, 65, 127
1, 3393, Note_off_c, 1, 61, 1
1, 3394, Note_off_c, 0, 73, 1
1, 3394, Note_on_c, 1, 49, 127
1, 3395, Note_on_c, 1, 59, 127
1, 3400, Note_off_c, 1, 65, 1
1, 3465, Note_on_c, 1, 65, 127
1, 3536, Note_off_c, 1, 59, 1
1, 3537, Note_on_c, 0, 68, 124
1, 3537, Note_on_c, 1, 59, 127
1, 3543, Note_off_c, 1, 65, 1
1, 3607, Note_off_c, 0, 68, 1
1, 3607, Note_on_c, 0, 73, 124
1, 3678, Note_off_c, 1, 49, 1
1, 3678, Note_off_c, 1, 59, 1
1, 3679, Note_on_c, 0, 68, 124
1, 3679, Note_on_c, 1, 59, 127
1, 3750, Note_off_c, 0, 68, 1
1, 3750, Note_on_c, 1, 66, 127
1, 3821, Note_off_c, 1, 59, 1
1, 3822, Note_on_c, 0, 68, 124
1, 3822, Note_on_c, 1, 59, 127
1, 3828, Note_off_c, 1, 66, 1
1, 3892, Note_off_c, 0, 68, 1
1, 3892, Note_on_c, 1, 65, 127
1, 3965, Note_off_c, 1, 59, 1
1, 3966, Note_off_c, 0, 73, 1
1, 3966, Note_on_c, 1, 49, 127
1, 3967, Note_on_c, 1, 58, 127
1, 3972, Note_off_c, 1, 65, 1
1, 4037, Note_on_c, 1, 66, 127
1, 4110, Note_off_c, 1, 58, 1
1, 4111, Note_on_c, 0, 70, 124
1, 4111, Note_on_c, 1, 58, 127
1, 4117, Note_off_c, 1, 66, 1
1, 4183, Note_off_c, 0, 70, 1
1, 4183, Note_on_c, 0, 73, 124
1, 4256, Note_off_c, 1, 58, 1
1, 4256, Note_off_c, 1, 49, 1
1, 4257, Note_on_c, 0, 70, 124
1, 4257, Note_on_c, 1, 54, 127
1, 4328, Note_off_c, 0, 70, 1
1, 4328, Note_on_c, 0, 68, 124
1, 4400, Note_off_c, 0, 68, 1
1, 4400, Note_off_c, 1, 54, 1
1, 4401, Note_on_c, 0, 70, 124
1, 4401, Note_on_c, 1, 54, 127
1, 4470, Note_off_c, 0, 70, 1
1, 4471, Note_on_c, 1, 66, 127
1, 4542, Note_off_c, 1, 54, 1
1, 4542, Note_off_c, 0, 73, 1
1, 4542, Note_on_c, 1, 49, 127
1, 4543, Note_on_c, 1, 60, 127
1, 4548, Note_off_c, 1, 66, 1
1, 4611, Note_on_c, 1, 66, 127
1, 4682, Note_off_c, 1, 60, 1
1, 4682, Note_on_c, 0, 68, 124
1, 4683, Note_on_c, 1, 60, 127
1, 4688, Note_off_c, 1, 66, 1
1, 4750, Note_off_c, 0, 68, 1
1, 4751, Note_on_c, 0, 75, 124
1, 4820, Note_off_c, 1, 60, 1
1, 4820, Note_off_c, 1, 49, 1
1, 4821, Note_on_c, 0, 68, 124
1, 4821, Note_on_c, 1, 60, 127
1, 4888, Note_off_c, 0, 68, 1
1, 4888, Note_on_c, 1, 66, 127
1, 4957, Note_off_c, 1, 60, 1
1, 4957, Note_on_c, 0, 68, 124
1, 4958, Note_on_c, 1, 60, 127
1, 4963, Note_off_c, 1, 66, 1
1, 5025, Note_off_c, 0, 68, 1
1, 5026, Note_on_c, 1, 66, 127
1, 5096, Note_off_c, 1, 60, 1
1, 5096, Note_off_c, 0, 75, 1
1, 5097, Note_on_c, 1, 49, 127
1, 5097, Note_on_c, 1, 61, 127
1, 5101, Note_off_c, 1, 66, 1
1, 5166, Note_on_c, 1, 65, 127
1, 5238, Note_off_c, 1, 61, 1
1, 5238, Note_on_c, 0, 68, 124
1, 5239, Note_on_c, 1, 61, 127
1, 5244, Note_off_c, 1, 65, 1
1, 5309, Note_off_c, 0, 68, 1
1, 5310, Note_on_c, 0, 75, 124
1, 5380, Note_off_c, 1, 61, 1
1, 5381, Note_off_c, 1, 49, 1
1, 5381, Note_on_c, 0, 68, 124
1, 5382, Note_on_c, 1, 61, 127
1, 5451, Note_off_c, 0, 68, 1
1, 5452, Note_on_c, 1, 66, 127
1, 5522, Note_off_c, 1, 61, 1
1, 5522, Note_on_c, 0, 68, 124
1, 5523, Note_on_c, 1, 61, 127
1, 5527, Note_off_c, 1, 66, 1
1, 5592, Note_off_c, 0, 68, 1
1, 5593, Note_on_c, 1, 66, 127
1, 5664, Note_off_c, 1, 61, 1
1, 5664, Note_off_c, 0, 75, 1
1, 5665, Note_on_c, 1, 49, 127
1, 5665, Note_on_c, 1, 56, 127
1, 5671, Note_off_c, 1, 66, 1
1, 5732, Note_on_c, 1, 65, 127
1, 5801, Note_off_c, 1, 56, 1
1, 5802, Note_on_c, 0, 68, 124
1, 5802, Note_on_c, 1, 56, 127
1, 5807, Note_off_c, 1, 65, 1
1, 5870, Note_off_c, 0, 68, 1
1, 5870, Note_on_c, 0, 73, 124
1, 5939, Note_off_c, 1, 56, 1
1, 5940, Note_off_c, 1, 49, 1
1, 5940, Note_on_c, 0, 68, 124
1, 5940, Note_on_c, 1, 53, 127
1, 6008, Note_off_c, 0, 68, 1
1, 6009, Note_on_c, 1, 66, 127
1, 6078, Note_off_c, 1, 53, 1
1, 6078, Note_on_c, 0, 68, 124
1, 6079, Note_on_c, 1, 53, 127
1, 6083, Note_off_c, 1, 66, 1
1, 6148, Note_off_c, 0, 68, 1
1, 6149, Note_on_c, 1, 65, 127
1, 6219, Note_off_c, 1, 53, 1
1, 6219, Note_off_c, 0, 73, 1
1, 6220, Note_on_c, 1, 49, 127
1, 6220, Note_on_c, 1, 58, 127
1, 6224, Note_off_c, 1, 65, 1
1, 6289, Note_on_c, 1, 63, 127
1, 6360, Note_off_c, 1, 63, 1
1, 6360, Note_off_c, 1, 58, 1
1, 6360, Note_on_c, 1, 67, 127
1, 6361, Note_on_c, 1, 58, 127
1, 6430, Note_off_c, 1, 67, 1
1, 6430, Note_on_c, 0, 70, 124
1, 6500, Note_off_c, 1, 49, 1
1, 6500, Note_off_c, 1, 58, 1
1, 6501, Note_on_c, 1, 67, 127
1, 6501, Note_on_c, 1, 58, 127
1, 6569, Note_off_c, 1, 67, 1
1, 6569, Note_on_c, 1, 65, 127
1, 6638, Note_off_c, 1, 65, 1
1, 6638, Note_off_c, 1, 58, 1
1, 6639, Note_on_c, 1, 58, 127
1, 6639, Note_on_c, 1, 67, 127
1, 6707, Note_off_c, 1, 67, 1
1, 6708, Note_on_c, 1, 63, 127
1, 6776, Note_off_c, 1, 63, 1
1, 6776, Note_off_c, 1, 58, 1
1, 6776, Note_off_c, 0, 70, 1
1, 6777, Note_on_c, 1, 56, 127
1, 6777, Note_on_c, 2, 48, 127
1, 6844, Note_on_c, 1, 63, 127
1, 6912, Note_off_c, 1, 63, 1
1, 6912, Note_off_c, 1, 56, 1
1, 6912, Note_on_c, 0, 68, 124
1, 6913, Note_on_c, 1, 56, 127
1, 6979, Note_off_c, 0, 68, 1
1, 6980, Note_on_c, 0, 72, 124
1, 7048, Note_off_c, 1, 56, 1
1, 7049, Note_off_c, 2, 48, 1
1, 7049, Note_on_c, 0, 68, 124
1, 7049, Note_on_c, 1, 51, 127
1, 7116, Note_off_c, 0, 68, 1
1, 7116, Note_on_c, 1, 67, 127
1, 7185, Note_off_c, 1, 67, 1
1, 7185, Note_off_c, 1, 51, 1
1, 7186, Note_on_c, 0, 68, 124
1, 7186, Note_on_c, 1, 56, 127
1, 7254, Note_off_c, 0, 68, 1
1, 7254, Note_on_c, 1, 63, 127
1, 7322, Note_off_c, 1, 63, 1
1, 7322, Note_off_c, 1, 56, 1
1, 7323, Note_off_c, 0, 72, 1
1, 7323, Note_on_c, 1, 56, 127
1, 7323, Note_on_c, 2, 46, 127
1, 7391, Note_on_c, 1, 63, 127
1, 7460, Note_off_c, 1, 63, 1
1, 7461, Note_off_c, 1, 56, 1
1, 7461, Note_on_c, 0, 70, 124
1, 7462, Note_on_c, 1, 56, 127
1, 7530, Note_off_c, 0, 70, 1
1, 7531, Note_on_c, 0, 73, 124
1, 7599, Note_off_c, 1, 56, 1
1, 7600, Note_off_c, 2, 46, 1
1, 7600, Note_on_c, 0, 70, 124
1, 7601, Note_on_c, 1, 56, 127
1, 7668, Note_off_c, 0, 70, 1
1, 7669, Note_on_c, 0, 68, 124
1, 7738, Note_off_c, 1, 56, 1
1, 7738, Note_off_c, 0, 68, 1
1, 7739, Note_on_c, 0, 70, 124
1, 7739, Note_on_c, 1, 56, 127
1, 7806, Note_off_c, 0, 70, 1
1, 7806, Note_on_c, 1, 65, 127
1, 7874, Note_off_c, 1, 56, 1
1, 7875, Note_off_c, 0, 73, 1
1, 7875, Note_on_c, 1, 55, 127
1, 7876, Note_on_c, 1, 51, 127
1, 7880, Note_off_c, 1, 65, 1
1, 7941, Note_on_c, 1, 63, 127
1, 8008, Note_off_c, 1, 55, 1
1, 8008, Note_on_c, 0, 70, 124
1, 8009, Note_on_c, 1, 55, 127
1, 8013, Note_off_c, 1, 63, 1
1, 8075, Note_off_c, 0, 70, 1
1, 8075, Note_on_c, 0, 73, 124
1, 8142, Note_off_c, 1, 55, 1
1, 8142, Note_off_c, 1, 51, 1
1, 8143, Note_on_c, 0, 70, 124
1, 8143, Note_on_c, 1, 55, 127
1, 8209, Note_off_c, 0, 70, 1
1, 8209, Note_on_c, 0, 68, 124
1, 8276, Note_off_c, 0, 68, 1
1, 8277, Note_off_c, 1, 55, 1
1, 8277, Note_on_c, 0, 70, 124
1, 8278, Note_on_c, 1, 55, 127
1, 8344, Note_off_c, 0, 70, 1
1, 8345, Note_on_c, 1, 63, 127
1, 8412, Note_off_c, 1, 63, 1
1, 8413, Note_off_c, 1, 55, 1
1, 8413, Note_off_c, 0, 73, 1
1, 8414, Note_on_c, 1, 56, 127
1, 8414, Note_on_c, 2, 44, 127
1, 8482, Note_on_c, 1, 63, 127
1, 8551, Note_off_c, 1, 63, 1
1, 8551, Note_off_c, 1, 56, 1
1, 8552, Note_on_c, 0, 70, 124
1, 8552, Note_on_c, 1, 55, 127
1, 8620, Note_off_c, 0, 70, 1
1, 8620, Note_on_c, 0, 73, 124
1, 8689, Note_off_c, 2, 44, 1
1, 8689, Note_off_c, 1, 55, 1
1, 8690, Note_on_c, 0, 70, 124
1, 8690, Note_on_c, 1, 53, 127
1, 8758, Note_off_c, 0, 70, 1
1, 8759, Note_on_c, 0, 68, 124
1, 8825, Note_off_c, 0, 68, 1
1, 8826, Note_off_c, 1, 53, 1
1, 8826, Note_on_c, 0, 70, 124
1, 8827, Note_on_c, 1, 55, 127
1, 8892, Note_off_c, 0, 70, 1
1, 8893, Note_on_c, 1, 63, 127
1, 8960, Note_off_c, 1, 63, 1
1, 8960, Note_off_c, 1, 55, 1
1, 8961, Note_off_c, 0, 73, 1
1, 8961, Note_on_c, 1, 56, 127
1, 8962, Note_on_c, 2, 44, 127
1, 9027, Note_on_c, 1, 63, 127
1, 9094, Note_off_c, 1, 63, 1
1, 9095, Note_off_c, 1, 56, 1
1, 9095, Note_on_c, 0, 68, 124
1, 9096, Note_on_c, 1, 56, 115
1, 9161, Note_off_c, 0, 68, 1
1, 9162, Note_on_c, 0, 72, 124
1, 9228, Note_off_c, 1, 56, 1
1, 9229, Note_off_c, 2, 44, 1
1, 9229, Note_on_c, 0, 68, 124
1, 9230, Note_on_c, 1, 60, 127
1, 9297, Note_off_c, 0, 68, 1
1, 9298, Note_on_c, 1, 67, 127
1, 9352, Note_off_c, 1, 60, 1
1, 9364, Note_off_c, 1, 67, 1
1, 9365, Note_on_c, 0, 68, 124
1, 9365, Note_on_c, 1, 60, 127
1, 9432, Note_off_c, 0, 68, 1
1, 9433, Note_on_c, 1, 63, 127
1, 9501, Note_off_c, 1, 63, 1
1, 9501, Note_off_c, 1, 60, 1
1, 9501, Note_off_c, 0, 72, 1
1, 9502, Note_on_c, 1, 58, 127
1, 9503, Note_on_c, 2, 44, 127
1, 9571, Note_on_c, 1, 63, 127
1, 9642, Note_off_c, 1, 63, 1
1, 9642, Note_off_c, 1, 58, 1
1, 9643, Note_on_c, 0, 70, 124
1, 9643, Note_on_c, 1, 53, 127
1, 9712, Note_off_c, 0, 70, 1
1, 9712, Note_on_c, 0, 74, 124
1, 9782, Note_off_c, 1, 53, 1
1, 9782, Note_off_c, 2, 44, 1
1, 9783, Note_on_c, 0, 70, 124
1, 9783, Note_on_c, 1, 50, 127
1, 9852, Note_off_c, 0, 70, 1
1, 9852, Note_on_c, 0, 68, 124
1, 9922, Note_off_c, 0, 68, 1
1, 9923, Note_off_c, 1, 50, 1
1, 9923, Note_on_c, 0, 70, 124
1, 9924, Note_on_c, 2, 46, 127
1, 9992, Note_off_c, 0, 70, 1
1, 9993, Note_on_c, 1, 65, 127
1, 10062, Note_off_c, 1, 65, 1
1, 10063, Note_off_c, 2, 46, 1
1, 10063, Note_off_c, 0, 74, 1
1, 10064, Note_on_c, 1, 51, 127
1, 10064, Note_on_c, 2, 42, 127
1, 10128, Note_on_c, 1, 63, 127
1, 10197, Note_off_c, 1, 63, 1
1, 10197, Note_off_c, 1, 51, 1
1, 10198, Note_on_c, 0, 70, 124
1, 10198, Note_on_c, 1, 51, 127
1, 10264, Note_off_c, 0, 70, 1
1, 10264, Note_on_c, 0, 75, 124
1, 10330, Note_off_c, 1, 51, 1
1, 10331, Note_off_c, 2, 42, 1
1, 10331, Note_on_c, 0, 70, 124
1, 10332, Note_on_c, 1, 54, 127
1, 10397, Note_off_c, 0, 70, 1
1, 10398, Note_on_c, 0, 68, 124
1, 10464, Note_off_c, 0, 68, 1
1, 10464, Note_off_c, 1, 54, 1
1, 10464, Note_on_c, 0, 70, 124
1, 10465, Note_on_c, 1, 54, 127
1, 10531, Note_off_c, 0, 70, 1
1, 10531, Note_on_c, 1, 63, 127
1, 10597, Note_off_c, 1, 54, 1
1, 10597, Note_off_c, 0, 75, 1
1, 10598, Note_on_c, 2, 41, 127
1, 10598, Note_on_c, 2, 48, 127
1, 10668, Note_on_c, 1, 65, 127
1, 10738, Note_off_c, 1, 65, 1
1, 10739, Note_off_c, 2, 48, 1
1, 10739, Note_on_c, 0, 69, 124
1, 10740, Note_on_c, 2, 48, 127
1, 10809, Note_off_c, 0, 69, 1
1, 10810, Note_on_c, 0, 75, 124
1, 10880, Note_off_c, 2, 41, 1
1, 10880, Note_off_c, 2, 48, 1
1, 10880, Note_off_c, 1, 63, 1
1, 10881, Note_on_c, 0, 69, 124
1, 10881, Note_on_c, 1, 53, 127
1, 10948, Note_off_c, 0, 69, 1
1, 10949, Note_on_c, 1, 67, 127
1, 11018, Note_off_c, 1, 67, 1
1, 11019, Note_off_c, 1, 53, 1
1, 11019, Note_on_c, 0, 69, 124
1, 11020, Note_on_c, 1, 53, 127
1, 11089, Note_off_c, 0, 69, 1
1, 11090, Note_on_c, 1, 65, 127
1, 11160, Note_off_c, 1, 65, 1
1, 11160, Note_off_c, 1, 53, 1
1, 11160, Note_off_c, 0, 75, 1
1, 11161, Note_on_c, 1, 53, 127
1, 11161, Note_on_c, 2, 46, 127
1, 11227, Note_on_c, 1, 65, 127
1, 11293, Note_off_c, 1, 53, 1
1, 11293, Note_off_c, 1, 65, 1
1, 11294, Note_on_c, 0, 70, 124
1, 11294, Note_on_c, 1, 53, 127
1, 11360, Note_off_c, 0, 70, 1
1, 11361, Note_on_c, 0, 73, 124
1, 11427, Note_off_c, 1, 53, 1
1, 11427, Note_off_c, 2, 46, 1
1, 11427, Note_on_c, 0, 70, 124
1, 11428, Note_on_c, 1, 61, 127
1, 11494, Note_off_c, 0, 70, 1
1, 11494, Note_on_c, 0, 69, 124
1, 11561, Note_off_c, 1, 61, 1
1, 11561, Note_off_c, 0, 69, 1
1, 11562, Note_on_c, 0, 70, 124
1, 11562, Note_on_c, 1, 61, 127
1, 11629, Note_off_c, 0, 70, 1
1, 11629, Note_on_c, 1, 65, 127
1, 11697, Note_off_c, 1, 65, 1
1, 11697, Note_off_c, 1, 61, 1
1, 11698, Note_off_c, 0, 73, 1
1, 11698, Note_on_c, 1, 60, 127
1, 11699, Note_on_c, 1, 58, 127
1, 11766, Note_on_c, 1, 66, 127
1, 11835, Note_off_c, 1, 66, 1
1, 11835, Note_off_c, 1, 60, 1
1, 11836, Note_on_c, 0, 72, 124
1, 11836, Note_on_c, 1, 66, 127
1, 11904, Note_off_c, 0, 72, 1
1, 11904, Note_on_c, 0, 75, 124
1, 11972, Note_off_c, 1, 66, 1
1, 11973, Note_off_c, 1, 58, 1
1, 11973, Note_on_c, 0, 72, 124
1, 11973, Note_on_c, 1, 63, 127
1, 12039, Note_off_c, 0, 72, 1
1, 12040, Note_on_c, 0, 70, 124
1, 12108, Note_off_c, 0, 70, 1
1, 12108, Note_off_c, 1, 63, 1
1, 12108, Note_on_c, 0, 72, 124
1, 12108, Note_on_c, 1, 60, 127
1, 12176, Note_off_c, 0, 72, 1
1, 12176, Note_on_c, 1, 66, 127
1, 12244, Note_off_c, 1, 60, 1
1, 12244, Note_off_c, 1, 66, 1
1, 12245, Note_off_c, 0, 75, 1
1, 12245, Note_on_c, 1, 56, 127
1, 12246, Note_on_c, 1, 65, 127
1, 12310, Note_on_c, 0, 68, 124
1, 12377, Note_off_c, 0, 68, 1
1, 12378, Note_off_c, 1, 65, 1
1, 12378, Note_on_c, 0, 72, 124
1, 12379, Note_on_c, 1, 65, 127
1, 12445, Note_off_c, 0, 72, 1
1, 12446, Note_on_c, 0, 77, 122
1, 12513, Note_off_c, 1, 56, 1
1, 12513, Note_off_c, 1, 65, 1
1, 12514, Note_on_c, 0, 72, 124
1, 12514, Note_on_c, 1, 65, 127
1, 12580, Note_off_c, 0, 72, 1
1, 12580, Note_on_c, 0, 70, 124
1, 12648, Note_off_c, 0, 70, 1
1, 12648, Note_off_c, 1, 65, 1
1, 12649, Note_on_c, 0, 72, 124
1, 12649, Note_on_c, 1, 65, 127
1, 12717, Note_off_c, 0, 72, 1
1, 12718, Note_on_c, 0, 68, 124
1, 12786, Note_off_c, 0, 68, 1
1, 12787, Note_off_c, 1, 65, 1
1, 12787, Note_off_c, 0, 77, 1
1, 12788, Note_on_c, 1, 58, 127
1, 12788, Note_on_c, 1, 61, 127
1, 12857, Note_on_c, 1, 66, 127
1, 12927, Note_off_c, 1, 66, 1
1, 12928, Note_off_c, 1, 61, 1
1, 12928, Note_on_c, 0, 73, 124
1, 12929, Note_on_c, 1, 61, 127
1, 12997, Note_off_c, 0, 73, 1
1, 12998, Note_on_c, 0, 77, 122
1, 13067, Note_off_c, 1, 58, 1
1, 13067, Note_off_c, 1, 61, 1
1, 13068, Note_on_c, 0, 73, 124
1, 13068, Note_on_c, 1, 58, 127
1, 13136, Note_off_c, 0, 73, 1
1, 13136, Note_on_c, 0, 72, 124
1, 13204, Note_off_c, 1, 58, 1
1, 13204, Note_off_c, 0, 72, 1
1, 13205, Note_on_c, 0, 73, 124
1, 13205, Note_on_c, 1, 58, 127
1, 13271, Note_off_c, 0, 73, 1
1, 13272, Note_on_c, 1, 66, 127
1, 13340, Note_off_c, 1, 66, 1
1, 13341, Note_off_c, 1, 58, 1
1, 13341, Note_off_c, 0, 77, 1
1, 13342, Note_on_c, 1, 63, 127
1, 13342, Note_on_c, 1, 60, 127
1, 13406, Note_on_c, 1, 66, 127
1, 13472, Note_off_c, 1, 63, 1
1, 13472, Note_off_c, 1, 66, 1
1, 13473, Note_on_c, 0, 68, 124
1, 13473, Note_on_c, 1, 63, 127
1, 13537, Note_off_c, 0, 68, 1
1, 13537, Note_on_c, 0, 75, 124
1, 13602, Note_off_c, 1, 63, 1
1, 13603, Note_off_c, 1, 60, 1
1, 13603, Note_on_c, 0, 68, 124
1, 13604, Note_on_c, 1, 60, 127
1, 13669, Note_off_c, 0, 68, 1
1, 13670, Note_on_c, 1, 66, 127
1, 13737, Note_off_c, 1, 60, 1
1, 13737, Note_off_c, 1, 66, 1
1, 13738, Note_on_c, 0, 68, 124
1, 13738, Note_on_c, 1, 60, 127
1, 13804, Note_off_c, 0, 68, 1
1, 13804, Note_on_c, 1, 66, 127
1, 13872, Note_off_c, 1, 66, 1
1, 13872, Note_off_c, 1, 60, 1
1, 13873, Note_off_c, 0, 75, 1
1, 13873, Note_on_c, 1, 56, 127
1, 13874, Note_on_c, 1, 53, 127
1, 13943, Note_on_c, 1, 66, 127
1, 14014, Note_off_c, 1, 66, 1
1, 14014, Note_off_c, 1, 56, 1
1, 14014, Note_on_c, 0, 68, 124
1, 14015, Note_on_c, 1, 56, 127
1, 14084, Note_off_c, 0, 68, 1
1, 14084, Note_on_c, 0, 75, 124
1, 14154, Note_off_c, 1, 56, 1
1, 14154, Note_off_c, 1, 53, 1
1, 14154, Note_on_c, 0, 68, 124
1, 14155, Note_on_c, 1, 60, 127
1, 14224, Note_off_c, 0, 68, 1
1, 14224, Note_on_c, 1, 66, 127
1, 14293, Note_off_c, 1, 66, 1
1, 14293, Note_off_c, 1, 60, 1
1, 14293, Note_on_c, 0, 68, 124
1, 14294, Note_on_c, 1, 60, 127
1, 14362, Note_off_c, 0, 68, 1
1, 14363, Note_on_c, 1, 66, 127
1, 14431, Note_off_c, 1, 66, 1
1, 14432, Note_off_c, 1, 60, 1
1, 14432, Note_off_c, 0, 75, 1
1, 14433, Note_on_c, 1, 53, 127
1, 14433, Note_on_c, 1, 61, 127
1, 14497, Note_on_c, 1, 65, 127
1, 14564, Note_off_c, 1, 65, 1
1, 14564, Note_off_c, 1, 61, 1
1, 14565, Note_on_c, 0, 68, 124
1, 14565, Note_on_c, 1, 61, 127
1, 14629, Note_off_c, 0, 68, 1
1, 14629, Note_on_c, 0, 73, 124
1, 14695, Note_off_c, 1, 61, 1
1, 14696, Note_off_c, 1, 53, 1
1, 14696, Note_on_c, 0, 68, 124
1, 14697, Note_on_c, 1, 59, 127
1, 14761, Note_off_c, 0, 68, 1
1, 14762, Note_on_c, 1, 66, 127
1, 14828, Note_off_c, 1, 66, 1
1, 14828, Note_off_c, 1, 59, 1
1, 14829, Note_on_c, 0, 68, 124
1, 14829, Note_on_c, 1, 59, 127
1, 14895, Note_off_c, 0, 68, 1
1, 14895, Note_on_c, 1, 65, 127
1, 14961, Note_off_c, 1, 65, 1
1, 14962, Note_off_c, 1, 59, 1
1, 14962, Note_off_c, 0, 73, 1
1, 14963, Note_on_c, 1, 54, 127
1, 14963, Note_on_c, 1, 58, 127
1, 15031, Note_on_c, 1, 63, 127
1, 15101, Note_off_c, 1, 63, 1
1, 15102, Note_off_c, 1, 58, 1
1, 15102, Note_on_c, 1, 66, 127
1, 15103, Note_on_c, 1, 58, 127
1, 15171, Note_off_c, 1, 66, 1
1, 15172, Note_on_c, 0, 73, 124
1, 15240, Note_off_c, 1, 58, 1
1, 15241, Note_off_c, 1, 54, 1
1, 15241, Note_on_c, 1, 66, 127
1, 15242, Note_on_c, 1, 58, 127
1, 15310, Note_off_c, 1, 66, 1
1, 15310, Note_on_c, 1, 65, 127
1, 15379, Note_off_c, 1, 65, 1
1, 15379, Note_off_c, 1, 58, 1
1, 15380, Note_on_c, 1, 66, 127
1, 15380, Note_on_c, 1, 58, 127
1, 15447, Note_off_c, 1, 66, 1
1, 15447, Note_on_c, 1, 63, 127
1, 15516, Note_off_c, 1, 63, 1
1, 15516, Note_off_c, 1, 58, 1
1, 15517, Note_off_c, 0, 73, 1
1, 15517, Note_on_c, 1, 56, 127
1, 15518, Note_on_c, 1, 59, 127
1, 15583, Note_on_c, 1, 63, 127
1, 15650, Note_off_c, 1, 63, 1
1, 15651, Note_off_c, 1, 59, 1
1, 15651, Note_on_c, 1, 66, 127
1, 15652, Note_on_c, 1, 59, 127
1, 15716, Note_off_c, 1, 66, 1
1, 15716, Note_on_c, 0, 71, 124
1, 15781, Note_off_c, 1, 59, 1
1, 15781, Note_off_c, 1, 56, 1
1, 15782, Note_on_c, 1, 59, 127
1, 15782, Note_on_c, 1, 66, 127
1, 15846, Note_off_c, 1, 66, 1
1, 15847, Note_on_c, 1, 65, 127
1, 15912, Note_off_c, 1, 65, 1
1, 15913, Note_off_c, 1, 59, 1
1, 15913, Note_on_c, 1, 59, 127
1, 15914, Note_on_c, 1, 66, 127
1, 15979, Note_off_c, 1, 66, 1
1, 15979, Note_on_c, 1, 63, 127
1, 16044, Note_off_c, 1, 63, 1
1, 16044, Note_off_c, 1, 59, 1
1, 16045, Note_off_c, 0, 71, 1
1, 16045, Note_on_c, 1, 56, 127
1, 16046, Note_on_c, 1, 49, 127
1, 16115, Note_on_c, 1, 61, 127
1, 16186, Note_off_c, 1, 61, 1
1, 16186, Note_off_c, 1, 56, 1
1, 16186, Note_on_c, 1, 56, 127
1, 16187, Note_on_c, 1, 65, 127
1, 16256, Note_off_c, 1, 65, 1
1, 16257, Note_on_c, 0, 71, 124
1, 16327, Note_off_c, 1, 56, 1
1, 16328, Note_off_c, 1, 49, 1
1, 16328, Note_on_c, 1, 56, 127
1, 16329, Note_on_c, 1, 65, 127
1, 16398, Note_off_c, 1, 65, 1
1, 16398, Note_on_c, 1, 63, 127
1, 16466, Note_off_c, 1, 63, 1
1, 16467, Note_off_c, 1, 56, 1
1, 16467, Note_on_c, 1, 56, 127
1, 16468, Note_on_c, 1, 65, 127
1, 16536, Note_off_c, 1, 65, 1
1, 16536, Note_on_c, 1, 61, 127
1, 16605, Note_off_c, 1, 61, 1
1, 16606, Note_off_c, 1, 56, 1
1, 16606, Note_off_c, 0, 71, 1
1, 16606, Note_on_c, 1, 54, 127
1, 16607, Note_on_c, 1, 58, 127
1, 16672, Note_on_c, 1, 61, 127
1, 16738, Note_off_c, 1, 61, 1
1, 16738, Note_off_c, 1, 58, 1
1, 16739, Note_on_c, 1, 58, 127
1, 16739, Note_on_c, 1, 66, 127
1, 16804, Note_off_c, 1, 66, 1
1, 16804, Note_on_c, 0, 70, 124
1, 16870, Note_off_c, 1, 58, 1
1, 16871, Note_off_c, 1, 54, 1
1, 16871, Note_on_c, 1, 66, 127
1, 16872, Note_on_c, 1, 58, 127
1, 16936, Note_off_c, 1, 66, 1
1, 16937, Note_on_c, 1, 65, 127
1, 17003, Note_off_c, 1, 65, 1
1, 17003, Note_off_c, 1, 58, 1
1, 17004, Note_on_c, 1, 66, 127
1, 17004, Note_on_c, 1, 58, 127
1, 17068, Note_off_c, 1, 66, 1
1, 17068, Note_on_c, 1, 61, 127
1, 17134, Note_off_c, 1, 61, 1
1, 17135, Note_off_c, 1, 58, 1
1, 17135, Note_off_c, 0, 70, 1
1, 17136, Note_on_c, 1, 51, 127
1, 17136, Note_on_c, 2, 48, 127
1, 17205, Note_on_c, 1, 63, 127
1, 17275, Note_off_c, 1, 63, 1
1, 17276, Note_off_c, 1, 51, 1
1, 17276, Note_on_c, 1, 51, 127
1, 17277, Note_on_c, 1, 66, 127
1, 17345, Note_off_c, 1, 66, 1
1, 17346, Note_on_c, 0, 68, 124
1, 17415, Note_off_c, 1, 51, 1
1, 17416, Note_off_c, 2, 48, 1
1, 17416, Note_on_c, 1, 51, 127
1, 17417, Note_on_c, 1, 66, 127
1, 17485, Note_off_c, 1, 66, 1
1, 17486, Note_on_c, 1, 65, 127
1, 17556, Note_off_c, 1, 51, 1
1, 17556, Note_off_c, 1, 65, 1
1, 17556, Note_on_c, 1, 51, 127
1, 17557, Note_on_c, 1, 66, 127
1, 17627, Note_off_c, 1, 66, 1
1, 17627, Note_on_c, 1, 63, 127
1, 17697, Note_off_c, 1, 63, 1
1, 17697, Note_off_c, 1, 51, 1
1, 17698, Note_off_c, 0, 68, 1
1, 17698, Note_on_c, 1, 53, 127
1, 17699, Note_on_c, 1, 50, 127
1, 17765, Note_on_c, 1, 58, 127
1, 17832, Note_off_c, 1, 58, 1
1, 17832, Note_off_c, 1, 53, 1
1, 17833, Note_on_c, 1, 53, 127
1, 17833, Note_on_c, 1, 65, 127
1, 17899, Note_off_c, 1, 65, 1
1, 17900, Note_on_c, 0, 68, 124
1, 17966, Note_off_c, 1, 53, 1
1, 17967, Note_off_c, 1, 50, 1
1, 17967, Note_on_c, 1, 65, 127
1, 17968, Note_on_c, 1, 58, 127
1, 18034, Note_off_c, 1, 65, 1
1, 18034, Note_on_c, 1, 63, 127
1, 18100, Note_off_c, 1, 63, 1
1, 18100, Note_off_c, 1, 58, 1
1, 18101, Note_on_c, 1, 58, 127
1, 18101, Note_on_c, 1, 65, 127
1, 18168, Note_off_c, 1, 65, 1
1, 18168, Note_on_c, 1, 62, 127
1, 18235, Note_off_c, 1, 62, 1
1, 18236, Note_off_c, 1, 58, 1
1, 18236, Note_off_c, 0, 68, 1
1, 18237, Note_on_c, 1, 51, 127
1, 18237, Note_on_c, 1, 59, 127
1, 18304, Note_on_c, 1, 62, 127
1, 18374, Note_off_c, 1, 62, 1
1, 18375, Note_off_c, 1, 59, 1
1, 18375, Note_on_c, 1, 65, 127
1, 18376, Note_on_c, 1, 59, 127
1, 18443, Note_off_c, 1, 65, 1
1, 18443, Note_on_c, 0, 68, 124
1, 18512, Note_off_c, 1, 51, 1
1, 18512, Note_off_c, 1, 59, 1
1, 18513, Note_on_c, 1, 65, 127
1, 18513, Note_on_c, 1, 59, 127
1, 18580, Note_off_c, 1, 65, 1
1, 18581, Note_on_c, 1, 63, 127
1, 18648, Note_off_c, 1, 63, 1
1, 18648, Note_off_c, 1, 59, 1
1, 18648, Note_on_c, 1, 59, 127
1, 18648, Note_on_c, 1, 65, 127
1, 18714, Note_off_c, 1, 65, 1
1, 18715, Note_on_c, 1, 62, 127
1, 18782, Note_off_c, 1, 62, 1
1, 18782, Note_off_c, 1, 59, 1
1, 18783, Note_off_c, 0, 68, 1
1, 18783, Note_on_c, 1, 51, 127
1, 18783, Note_on_c, 1, 58, 127
1, 18848, Note_on_c, 1, 61, 127
1, 18914, Note_off_c, 1, 61, 1
1, 18914, Note_off_c, 1, 58, 1
1, 18915, Note_on_c, 1, 58, 127
1, 18915, Note_on_c, 1, 63, 127
1, 18980, Note_off_c, 1, 63, 1
1, 18980, Note_on_c, 1, 67, 127
1, 19046, Note_off_c, 1, 51, 1
1, 19046, Note_off_c, 1, 58, 1
1, 19046, Note_on_c, 1, 63, 127
1, 19047, Note_on_c, 1, 58, 127
1, 19112, Note_off_c, 1, 63, 1
1, 19113, Note_on_c, 1, 61, 127
1, 19178, Note_off_c, 1, 61, 1
1, 19179, Note_off_c, 1, 58, 1
1, 19179, Note_on_c, 1, 58, 127
1, 19180, Note_on_c, 1, 63, 127
1, 19245, Note_off_c, 1, 63, 1
1, 19245, Note_on_c, 1, 61, 127
1, 19312, Note_off_c, 1, 61, 1
1, 19312, Note_off_c, 1, 58, 1
1, 19313, Note_off_c, 1, 67, 1
1, 19313, Note_on_c, 1, 56, 127
1, 19314, Note_on_c, 1, 53, 127
1, 19384, Note_on_c, 1, 60, 127
1, 19455, Note_off_c, 1, 56, 1
1, 19455, Note_off_c, 1, 60, 1
1, 19456, Note_on_c, 1, 56, 127
1, 19456, Note_on_c, 1, 63, 127
1, 19524, Note_off_c, 1, 63, 1
1, 19524, Note_on_c, 1, 66, 127
1, 19593, Note_off_c, 1, 56, 1
1, 19594, Note_off_c, 1, 53, 1
1, 19594, Note_on_c, 1, 56, 127
1, 19595, Note_on_c, 1, 63, 127
1, 19662, Note_off_c, 1, 63, 1
1, 19663, Note_on_c, 1, 61, 127
1, 19731, Note_off_c, 1, 61, 1
1, 19732, Note_off_c, 1, 56, 1
1, 19732, Note_on_c, 1, 56, 127
1, 19733, Note_on_c, 1, 63, 127
1, 19801, Note_off_c, 1, 63, 1
1, 19802, Note_on_c, 1, 60, 127
1, 19871, Note_off_c, 1, 60, 1
1, 19871, Note_off_c, 1, 56, 1
1, 19872, Note_off_c, 1, 66, 1
1, 19872, Note_on_c, 1, 49, 127
1, 19872, Note_on_c, 1, 56, 127
1, 19938, Note_on_c, 1, 59, 127
1, 20005, Note_off_c, 1, 59, 1
1, 20005, Note_off_c, 1, 56, 1
1, 20006, Note_on_c, 1, 56, 127
1, 20006, Note_on_c, 1, 61, 127
1, 20072, Note_off_c, 1, 61, 1
1, 20073, Note_on_c, 1, 65, 127
1, 20138, Note_off_c, 1, 56, 1
1, 20139, Note_off_c, 1, 49, 1
1, 20139, Note_on_c, 1, 56, 127
1, 20140, Note_on_c, 1, 61, 127
1, 20206, Note_off_c, 1, 61, 1
1, 20206, Note_on_c, 1, 59, 127
1, 20273, Note_off_c, 1, 59, 1
1, 20273, Note_off_c, 1, 56, 1
1, 20274, Note_on_c, 1, 56, 127
1, 20274, Note_on_c, 1, 61, 127
1, 20340, Note_off_c, 1, 61, 1
1, 20340, Note_on_c, 1, 59, 127
1, 20407, Note_off_c, 1, 59, 1
1, 20408, Note_off_c, 1, 56, 1
1, 20408, Note_off_c, 1, 65, 1
1, 20409, Note_on_c, 1, 54, 127
1, 20409, Note_on_c, 2, 42, 127
1, 20476, Note_on_c, 1, 58, 127
1, 20545, Note_off_c, 1, 58, 1
1, 20546, Note_off_c, 1, 54, 1
1, 20546, Note_on_c, 1, 54, 127
1, 20547, Note_on_c, 1, 61, 127
1, 20615, Note_off_c, 1, 61, 1
1, 20615, Note_on_c, 1, 65, 127
1, 20684, Note_off_c, 2, 42, 1
1, 20684, Note_off_c, 1, 54, 1
1, 20685, Note_on_c, 1, 54, 127
1, 20685, Note_on_c, 1, 61, 127
1, 20753, Note_off_c, 1, 61, 1
1, 20753, Note_on_c, 1, 60, 127
1, 20822, Note_off_c, 1, 60, 1
1, 20823, Note_off_c, 1, 54, 1
1, 20823, Note_on_c, 1, 54, 127
1, 20824, Note_on_c, 1, 61, 127
1, 20892, Note_off_c, 1, 61, 1
1, 20892, Note_on_c, 1, 58, 127
1, 20961, Note_off_c, 1, 58, 1
1, 20962, Note_off_c, 1, 54, 1
1, 20962, Note_off_c, 1, 65, 1
1, 20963, Note_on_c, 1, 54, 127
1, 20963, Note_on_c, 2, 42, 127
1, 21028, Note_on_c, 1, 58, 127
1, 21095, Note_off_c, 1, 58, 1
1, 21096, Note_off_c, 1, 54, 1
1, 21096, Note_on_c, 1, 61, 127
1, 21096, Note_on_c, 1, 54, 127
1, 21163, Note_off_c, 1, 61, 1
1, 21164, Note_on_c, 1, 63, 127
1, 21231, Note_off_c, 1, 54, 1
1, 21232, Note_off_c, 2, 42, 1
1, 21232, Note_on_c, 1, 54, 127
1, 21233, Note_on_c, 1, 61, 127
1, 21299, Note_off_c, 1, 61, 1
1, 21299, Note_on_c, 1, 60, 127
1, 21367, Note_off_c, 1, 54, 1
1, 21367, Note_off_c, 1, 60, 1
1, 21368, Note_on_c, 1, 54, 127
1, 21368, Note_on_c, 1, 61, 127
1, 21436, Note_off_c, 1, 61, 1
1, 21436, Note_on_c, 1, 58, 127
1, 21504, Note_off_c, 1, 58, 1
1, 21504, Note_off_c, 1, 54, 1
1, 21505, Note_off_c, 1, 63, 1
1, 21505, Note_on_c, 1, 51, 127
1, 21506, Note_on_c, 2, 42, 127
1, 21572, Note_on_c, 1, 56, 127
1, 21641, Note_off_c, 1, 56, 1
1, 21642, Note_off_c, 1, 51, 1
1, 21642, Note_on_c, 1, 51, 127
1, 21643, Note_on_c, 1, 61, 127
1, 21709, Note_off_c, 1, 61, 1
1, 21710, Note_on_c, 1, 63, 127
1, 21779, Note_off_c, 1, 51, 1
1, 21779, Note_off_c, 2, 42, 1
1, 21780, Note_on_c, 1, 59, 127
1, 21780, Note_on_c, 1, 51, 127
1, 21847, Note_off_c, 1, 59, 1
1, 21847, Note_on_c, 1, 58, 127
1, 21915, Note_off_c, 1, 58, 1
1, 21915, Note_off_c, 1, 51, 1
1, 21916, Note_on_c, 1, 51, 127
1, 21916, Note_on_c, 1, 59, 127
1, 21984, Note_off_c, 1, 59, 1
1, 21984, Note_on_c, 1, 56, 127
1, 22052, Note_off_c, 1, 56, 1
1, 22053, Note_off_c, 1, 51, 1
1, 22053, Note_off_c, 1, 63, 1
1, 22054, Note_on_c, 1, 49, 127
1, 22054, Note_on_c, 2, 41, 127
1, 22119, Note_on_c, 1, 56, 127
1, 22187, Note_off_c, 1, 56, 1
1, 22187, Note_off_c, 1, 49, 1
1, 22188, Note_on_c, 1, 49, 127
1, 22188, Note_on_c, 1, 61, 127
1, 22254, Note_off_c, 1, 61, 1
1, 22254, Note_on_c, 1, 65, 127
1, 22321, Note_off_c, 2, 41, 1
1, 22321, Note_off_c, 1, 49, 1
1, 22322, Note_on_c, 1, 61, 127
1, 22322, Note_on_c, 2, 44, 127
1, 22388, Note_off_c, 1, 61, 1
1, 22389, Note_on_c, 1, 60, 127
1, 22455, Note_off_c, 1, 60, 1
1, 22456, Note_off_c, 2, 44, 1
1, 22456, Note_on_c, 1, 49, 127
1, 22457, Note_on_c, 1, 61, 127
1, 22523, Note_off_c, 1, 61, 1
1, 22523, Note_on_c, 1, 56, 127
1, 22590, Note_off_c, 1, 49, 1
1, 22590, Note_off_c, 1, 56, 1
1, 22591, Note_off_c, 1, 65, 1
1, 22591, Note_on_c, 1, 49, 127
1, 22592, Note_on_c, 2, 39, 127
1, 22660, Note_on_c, 1, 58, 127
1, 22729, Note_off_c, 1, 58, 1
1, 22729, Note_off_c, 1, 49, 1
1, 22730, Note_on_c, 1, 49, 127
1, 22730, Note_on_c, 1, 63, 127
1, 22798, Note_off_c, 1, 63, 1
1, 22799, Note_on_c, 1, 66, 127
1, 22867, Note_off_c, 1, 49, 1
1, 22868, Note_off_c, 2, 39, 1
1, 22868, Note_on_c, 1, 63, 127
1, 22869, Note_on_c, 2, 48, 127
1, 22937, Note_off_c, 1, 63, 1
1, 22938, Note_on_c, 1, 61, 127
1, 23006, Note_off_c, 1, 61, 1
1, 23007, Note_off_c, 2, 48, 1
1, 23007, Note_on_c, 1, 63, 127
1, 23008, Note_on_c, 2, 46, 127
1, 23076, Note_off_c, 1, 63, 1
1, 23076, Note_on_c, 1, 58, 127
1, 23145, Note_off_c, 1, 58, 1
1, 23145, Note_off_c, 2, 46, 1
1, 23146, Note_off_c, 1, 66, 1
1, 23146, Note_on_c, 2, 48, 127
1, 23147, Note_on_c, 2, 44, 127
1, 23212, Note_on_c, 1, 56, 127
1, 23279, Note_off_c, 1, 56, 1
1, 23280, Note_off_c, 2, 48, 1
1, 23280, Note_on_c, 1, 63, 127
1, 23280, Note_on_c, 2, 48, 127
1, 23346, Note_off_c, 1, 63, 1
1, 23347, Note_on_c, 1, 66, 127
1, 23413, Note_off_c, 2, 48, 1
1, 23414, Note_off_c, 2, 44, 1
1, 23415, Note_on_c, 1, 63, 127
1, 23415, Note_on_c, 2, 48, 127
1, 23481, Note_off_c, 1, 63, 1
1, 23482, Note_on_c, 1, 61, 127
1, 23548, Note_off_c, 1, 61, 1
1, 23549, Note_off_c, 2, 48, 1
1, 23549, Note_on_c, 1, 63, 127
1, 23549, Note_on_c, 2, 48, 127
1, 23616, Note_off_c, 1, 63, 1
1, 23617, Note_on_c, 1, 56, 127
1, 23684, Note_off_c, 1, 56, 1
1, 23684, Note_off_c, 2, 48, 1
1, 23685, Note_off_c, 1, 66, 1
1, 23685, Note_on_c, 1, 49, 127
1, 23686, Note_on_c, 2, 37, 127
1, 23752, Note_on_c, 1, 56, 127
1, 23820, Note_off_c, 1, 49, 1
1, 23820, Note_off_c, 1, 56, 1
1, 23821, Note_on_c, 1, 63, 127
1, 23821, Note_on_c, 2, 48, 127
1, 23889, Note_off_c, 1, 63, 1
1, 23890, Note_on_c, 1, 66, 127
1, 23957, Note_off_c, 2, 48, 1
1, 23958, Note_off_c, 2, 37, 1
1, 23958, Note_on_c, 1, 63, 127
1, 23959, Note_on_c, 2, 46, 127
1, 24026, Note_off_c, 1, 63, 1
1, 24027, Note_on_c, 1, 61, 127
1, 24095, Note_off_c, 1, 61, 1
1, 24095, Note_off_c, 2, 46, 1
1, 24096, Note_on_c, 1, 63, 127
1, 24096, Note_on_c, 2, 48, 127
1, 24163, Note_off_c, 1, 63, 1
1, 24163, Note_on_c, 1, 56, 127
1, 24230, Note_off_c, 1, 56, 1
1, 24230, Note_off_c, 2, 48, 1
1, 24231, Note_off_c, 1, 66, 1
1, 24231, Note_on_c, 1, 49, 127
1, 24232, Note_on_c, 2, 37, 127
1, 24298, Note_on_c, 1, 56, 127
1, 24366, Note_off_c, 1, 56, 1
1, 24367, Note_off_c, 1, 49, 1
1, 24367, Note_on_c, 1, 49, 127
1, 24368, Note_on_c, 1, 61, 127
1, 24433, Note_off_c, 1, 61, 1
1, 24434, Note_on_c, 1, 65, 127
1, 24502, Note_off_c, 2, 37, 1
1, 24502, Note_off_c, 1, 49, 1
1, 24503, Note_on_c, 1, 53, 127
1, 24503, Note_on_c, 1, 61, 127
1, 24570, Note_off_c, 1, 61, 1
1, 24570, Note_on_c, 1, 60, 127
1, 24638, Note_off_c, 1, 60, 1
1, 24638, Note_off_c, 1, 53, 1
1, 24639, Note_on_c, 1, 53, 127
1, 24639, Note_on_c, 1, 61, 127
1, 24705, Note_off_c, 1, 61, 1
1, 24706, Note_on_c, 1, 56, 127
1, 24773, Note_off_c, 1, 56, 1
1, 24774, Note_off_c, 1, 65, 1
1, 24774, Note_off_c, 1, 53, 1
1, 24775, Note_on_c, 1, 49, 127
1, 24775, Note_on_c, 1, 51, 127
1, 24842, Note_on_c, 1, 58, 127
1, 24911, Note_off_c, 1, 58, 1
1, 24911, Note_off_c, 1, 51, 1
1, 24912, Note_on_c, 1, 63, 127
1, 24912, Note_on_c, 1, 55, 127
1, 24979, Note_off_c, 1, 63, 1
1, 24979, Note_on_c, 1, 67, 127
1, 25048, Note_off_c, 1, 55, 1
1, 25048, Note_off_c, 1, 49, 1
1, 25049, Note_on_c, 1, 63, 127
1, 25049, Note_on_c, 1, 58, 127
1, 25116, Note_off_c, 1, 63, 1
1, 25116, Note_on_c, 1, 61, 127
1, 25185, Note_off_c, 1, 61, 1
1, 25186, Note_off_c, 1, 58, 1
1, 25186, Note_on_c, 1, 55, 127
1, 25187, Note_on_c, 1, 63, 127
1, 25253, Note_off_c, 1, 63, 1
1, 25254, Note_on_c, 1, 58, 127
1, 25322, Note_off_c, 1, 58, 1
1, 25323, Note_off_c, 1, 67, 1
1, 25323, Note_off_c, 1, 55, 1
1, 25324, Note_on_c, 1, 51, 127
1, 25324, Note_on_c, 2, 47, 127
1, 25389, Note_on_c, 1, 59, 127
1, 25455, Note_off_c, 1, 51, 1
1, 25455, Note_off_c, 1, 59, 1
1, 25456, Note_on_c, 1, 51, 127
1, 25456, Note_on_c, 1, 63, 127
1, 25522, Note_off_c, 1, 63, 1
1, 25523, Note_on_c, 0, 68, 124
1, 25590, Note_off_c, 1, 51, 1
1, 25590, Note_off_c, 2, 47, 1
1, 25590, Note_on_c, 1, 56, 127
1, 25591, Note_on_c, 1, 63, 127
1, 25656, Note_off_c, 1, 63, 1
1, 25657, Note_on_c, 1, 61, 127
1, 25724, Note_off_c, 1, 56, 1
1, 25724, Note_off_c, 1, 61, 1
1, 25725, Note_on_c, 1, 56, 127
1, 25725, Note_on_c, 1, 63, 127
1, 25791, Note_off_c, 1, 63, 1
1, 25791, Note_on_c, 1, 59, 127
1, 25858, Note_off_c, 1, 59, 1
1, 25858, Note_off_c, 1, 56, 1
1, 25859, Note_off_c, 0, 68, 1
1, 25859, Note_on_c, 1, 52, 127
1, 25859, Note_on_c, 1, 56, 127
1, 25928, Note_on_c, 1, 59, 127
1, 25999, Note_off_c, 1, 59, 1
1, 25999, Note_off_c, 1, 56, 1
1, 25999, Note_on_c, 1, 56, 127
1, 26000, Note_on_c, 1, 63, 127
1, 26070, Note_off_c, 1, 63, 1
1, 26070, Note_on_c, 0, 68, 124
1, 26140, Note_off_c, 1, 56, 1
1, 26140, Note_off_c, 1, 52, 1
1, 26141, Note_on_c, 1, 63, 127
1, 26141, Note_on_c, 1, 56, 127
1, 26211, Note_off_c, 1, 63, 1
1, 26211, Note_on_c, 1, 61, 127
1, 26281, Note_off_c, 1, 61, 1
1, 26281, Note_off_c, 1, 56, 1
1, 26282, Note_on_c, 1, 56, 127
1, 26282, Note_on_c, 1, 63, 127
1, 26352, Note_off_c, 1, 63, 1
1, 26352, Note_on_c, 1, 59, 127
1, 26422, Note_off_c, 1, 59, 1
1, 26423, Note_off_c, 1, 56, 1
1, 26423, Note_off_c, 0, 68, 1
1, 26424, Note_on_c, 1, 53, 127
1, 26424, Note_on_c, 1, 56, 127
1, 26488, Note_on_c, 1, 59, 127
1, 26555, Note_off_c, 1, 59, 1
1, 26555, Note_off_c, 1, 56, 1
1, 26556, Note_on_c, 1, 56, 127
1, 26556, Note_on_c, 1, 62, 127
1, 26620, Note_off_c, 1, 62, 1
1, 26620, Note_on_c, 0, 68, 124
1, 26686, Note_off_c, 1, 56, 1
1, 26687, Note_off_c, 1, 53, 1
1, 26687, Note_on_c, 1, 56, 127
1, 26688, Note_on_c, 1, 63, 127
1, 26752, Note_off_c, 1, 63, 1
1, 26753, Note_on_c, 1, 62, 127
1, 26819, Note_off_c, 1, 62, 1
1, 26819, Note_off_c, 1, 56, 1
1, 26820, Note_on_c, 1, 63, 127
1, 26820, Note_on_c, 1, 56, 127
1, 26885, Note_off_c, 1, 63, 1
1, 26885, Note_on_c, 1, 62, 127
1, 26950, Note_off_c, 1, 62, 1
1, 26951, Note_off_c, 1, 56, 1
1, 26951, Note_off_c, 0, 68, 1
1, 26952, Note_on_c, 1, 51, 127
1, 26952, Note_on_c, 1, 56, 127
1, 27022, Note_on_c, 1, 59, 127
1, 27093, Note_off_c, 1, 59, 1
1, 27094, Note_off_c, 1, 56, 1
1, 27094, Note_on_c, 1, 56, 127
1, 27095, Note_on_c, 1, 63, 127
1, 27164, Note_off_c, 1, 63, 1
1, 27165, Note_on_c, 0, 68, 124
1, 27235, Note_off_c, 1, 56, 1
1, 27236, Note_off_c, 1, 51, 1
1, 27236, Note_on_c, 1, 56, 127
1, 27237, Note_on_c, 1, 63, 127
1, 27306, Note_off_c, 1, 63, 1
1, 27307, Note_on_c, 1, 61, 127
1, 27377, Note_off_c, 1, 61, 1
1, 27378, Note_off_c, 1, 56, 1
1, 27378, Note_on_c, 1, 56, 127
1, 27379, Note_on_c, 1, 63, 127
1, 27447, Note_off_c, 1, 63, 1
1, 27448, Note_on_c, 1, 59, 127
1, 27507, Note_off_c, 1, 59, 1
1, 27518, Note_off_c, 1, 56, 1
1, 27519, Note_off_c, 0, 68, 1
1, 27519, Note_on_c, 1, 51, 127
1, 27520, Note_on_c, 1, 59, 127
1, 27584, Note_on_c, 1, 62, 127
1, 27648, Note_off_c, 1, 59, 1
1, 27648, Note_off_c, 1, 62, 1
1, 27649, Note_on_c, 1, 65, 127
1, 27649, Note_on_c, 1, 59, 127
1, 27712, Note_off_c, 1, 65, 1
1, 27713, Note_on_c, 0, 68, 124
1, 27777, Note_off_c, 1, 59, 1
1, 27777, Note_off_c, 1, 51, 1
1, 27778, Note_on_c, 1, 59, 127
1, 27778, Note_on_c, 1, 65, 127
1, 27841, Note_off_c, 1, 65, 1
1, 27841, Note_on_c, 1, 63, 127
1, 27905, Note_off_c, 1, 63, 1
1, 27906, Note_off_c, 1, 59, 1
1, 27906, Note_on_c, 1, 59, 127
1, 27907, Note_on_c, 1, 65, 127
1, 27971, Note_off_c, 1, 65, 1
1, 27971, Note_on_c, 1, 62, 127
1, 28036, Note_off_c, 1, 62, 1
1, 28037, Note_off_c, 1, 59, 1
1, 28037, Note_off_c, 0, 68, 1
1, 28037, Note_on_c, 1, 51, 127
1, 28038, Note_on_c, 1, 58, 127
1, 28104, Note_on_c, 1, 61, 127
1, 28171, Note_off_c, 1, 61, 1
1, 28171, Note_off_c, 1, 58, 1
1, 28171, Note_on_c, 1, 64, 127
1, 28172, Note_on_c, 1, 58, 127
1, 28237, Note_off_c, 1, 64, 1
1, 28238, Note_on_c, 0, 68, 124
1, 28306, Note_off_c, 1, 58, 1
1, 28307, Note_off_c, 1, 51, 1
1, 28307, Note_on_c, 1, 58, 127
1, 28307, Note_on_c, 1, 64, 127
1, 28373, Note_off_c, 1, 64, 1
1, 28374, Note_on_c, 1, 63, 127
1, 28440, Note_off_c, 1, 63, 1
1, 28440, Note_off_c, 1, 58, 1
1, 28440, Note_on_c, 1, 58, 127
1, 28440, Note_on_c, 1, 64, 127
1, 28507, Note_off_c, 1, 64, 1
1, 28507, Note_on_c, 1, 61, 127
1, 28573, Note_off_c, 1, 61, 1
1, 28573, Note_off_c, 1, 58, 1
1, 28574, Note_off_c, 0, 68, 1
1, 28574, Note_on_c, 1, 51, 127
1, 28575, Note_on_c, 1, 58, 127
1, 28638, Note_on_c, 1, 61, 127
1, 28703, Note_off_c, 1, 61, 1
1, 28703, Note_off_c, 1, 58, 1
1, 28704, Note_on_c, 1, 58, 127
1, 28704, Note_on_c, 1, 63, 127
1, 28767, Note_off_c, 1, 63, 1
1, 28767, Note_on_c, 1, 67, 127
1, 28831, Note_off_c, 1, 58, 1
1, 28832, Note_off_c, 1, 51, 1
1, 28832, Note_on_c, 1, 63, 127
1, 28833, Note_on_c, 1, 58, 127
1, 28896, Note_off_c, 1, 63, 1
1, 28896, Note_on_c, 1, 61, 127
1, 28961, Note_off_c, 1, 61, 1
1, 28961, Note_off_c, 1, 58, 1
1, 28962, Note_on_c, 1, 58, 127
1, 28962, Note_on_c, 1, 63, 127
1, 29028, Note_off_c, 1, 63, 1
1, 29028, Note_on_c, 1, 61, 127
1, 29095, Note_off_c, 1, 61, 1
1, 29096, Note_off_c, 1, 58, 1
1, 29096, Note_off_c, 1, 67, 1
1, 29097, Note_on_c, 0, 68, 115
1, 29097, Note_on_c, 1, 60, 115
1, 29098, Note_on_c, 1, 56, 115
1, 29098, Note_on_c, 1, 63, 115
1, 29099, Note_on_c, 2, 44, 118
1, 29387, Note_off_c, 2, 44, 1
1, 29388, Note_off_c, 1, 60, 1
1, 29388, Note_off_c, 1, 63, 1
1, 29388, Note_off_c, 1, 56, 1
1, 29389, Note_off_c, 0, 68, 1
1, 29457, Note_on_c, 1, 63, 127
1, 29516, Note_off_c, 1, 63, 1
1, 29516, Note_on_c, 1, 61, 127
1, 29573, Note_off_c, 1, 61, 1
1, 29574, Note_on_c, 1, 63, 127
1, 29630, Note_off_c, 1, 63, 1
1, 29630, Note_on_c, 1, 65, 127
1, 29678, Note_off_c, 1, 65, 1
1, 29688, Note_on_c, 1, 65, 127
1, 29717, Note_off_c, 1, 65, 1
1, 29718, Note_on_c, 1, 66, 127
1, 29806, Note_on_c, 1, 58, 127
1, 29864, Note_off_c, 1, 58, 1
1, 29865, Note_on_c, 1, 56, 127
1, 29924, Note_off_c, 1, 56, 1
1, 29924, Note_on_c, 1, 58, 127
1, 29982, Note_off_c, 1, 58, 1
1, 29983, Note_on_c, 1, 60, 127
1, 30032, Note_off_c, 1, 60, 1
1, 30042, Note_on_c, 1, 60, 127
1, 30072, Note_off_c, 1, 60, 1
1, 30072, Note_on_c, 1, 61, 127
1, 30140, Note_off_c, 1, 66, 1
1, 30160, Note_on_c, 1, 65, 127
1, 30248, Note_off_c, 1, 65, 1
1, 30278, Note_on_c, 0, 70, 124
1, 30366, Note_off_c, 0, 70, 1
1, 30396, Note_on_c, 1, 63, 127
1, 30515, Note_off_c, 1, 63, 1
1, 30515, Note_off_c, 1, 61, 1
1, 30515, Note_on_c, 0, 68, 124
1, 30516, Note_on_c, 1, 60, 127
1, 30543, Note_off_c, 0, 68, 1
1, 30545, Note_on_c, 1, 66, 127
1, 30573, Note_on_c, 0, 68, 124
1, 30575, Note_off_c, 1, 66, 1
1, 30633, Note_off_c, 1, 60, 1
1, 30633, Note_on_c, 1, 65, 127
1, 30750, Note_off_c, 1, 65, 1
1, 30750, Note_on_c, 1, 58, 127
1, 30868, Note_off_c, 1, 58, 1
1, 30868, Note_off_c, 0, 68, 1
1, 30869, Note_on_c, 1, 63, 127
1, 30869, Note_on_c, 1, 66, 127
1, 30898, Note_off_c, 1, 63, 1
1, 30899, Note_on_c, 1, 61, 127
1, 30927, Note_off_c, 1, 66, 1
1, 30928, Note_on_c, 1, 63, 127
1, 30928, Note_on_c, 1, 65, 127
1, 30929, Note_off_c, 1, 61, 1
1, 30986, Note_off_c, 1, 65, 1
1, 30986, Note_on_c, 1, 66, 127
1, 31045, Note_off_c, 1, 66, 1
1, 31046, Note_on_c, 0, 68, 124
1, 31104, Note_off_c, 0, 68, 1
1, 31104, Note_on_c, 1, 66, 127
1, 31134, Note_off_c, 1, 66, 1
1, 31134, Note_on_c, 1, 65, 127
1, 31222, Note_off_c, 1, 63, 1
1, 31223, Note_on_c, 1, 61, 127
1, 31223, Note_on_c, 1, 53, 127
1, 31282, Note_off_c, 1, 53, 1
1, 31282, Note_on_c, 1, 51, 127
1, 31340, Note_off_c, 1, 51, 1
1, 31341, Note_on_c, 1, 53, 127
1, 31400, Note_off_c, 1, 53, 1
1, 31400, Note_on_c, 1, 54, 127
1, 31458, Note_off_c, 1, 54, 1
1, 31459, Note_off_c, 1, 65, 1
1, 31459, Note_on_c, 1, 56, 127
1, 31460, Note_on_c, 1, 63, 127
1, 31576, Note_off_c, 1, 63, 1
1, 31577, Note_off_c, 1, 61, 1
1, 31577, Note_on_c, 0, 68, 121
1, 31578, Note_on_c, 1, 60, 127
1, 31636, Note_off_c, 1, 60, 1
1, 31636, Note_off_c, 0, 68, 1
1, 31637, Note_on_c, 1, 58, 127
1, 31637, Note_on_c, 1, 67, 127
1, 31694, Note_off_c, 1, 58, 1
1, 31695, Note_off_c, 1, 67, 1
1, 31695, Note_on_c, 0, 68, 121
1, 31696, Note_on_c, 1, 60, 127
1, 31754, Note_off_c, 1, 60, 1
1, 31754, Note_off_c, 0, 68, 1
1, 31755, Note_on_c, 0, 70, 121
1, 31755, Note_on_c, 1, 61, 127
1, 31812, Note_off_c, 1, 61, 1
1, 31813, Note_off_c, 0, 70, 1
1, 31813, Note_on_c, 0, 72, 118
1, 31814, Note_on_c, 1, 63, 127
1, 31872, Note_off_c, 0, 72, 1
1, 31872, Note_on_c, 0, 68, 121
1, 31931, Note_off_c, 1, 63, 1
1, 31931, Note_off_c, 0, 68, 1
1, 31932, Note_on_c, 0, 73, 118
1, 31932, Note_on_c, 1, 56, 127
1, 31932, Note_on_c, 1, 53, 127
1, 31933, Note_off_c, 1, 56, 1
1, 31989, Note_off_c, 0, 73, 1
1, 31990, Note_on_c, 0, 75, 118
1, 32049, Note_off_c, 0, 75, 1
1, 32049, Note_off_c, 1, 53, 1
1, 32050, Note_off_c, 1, 56, 1
1, 32050, Note_on_c, 0, 73, 118
1, 32051, Note_on_c, 1, 58, 127
1, 32108, Note_off_c, 0, 73, 1
1, 32109, Note_on_c, 0, 72, 118
1, 32167, Note_off_c, 1, 58, 1
1, 32167, Note_off_c, 0, 72, 1
1, 32168, Note_on_c, 0, 70, 121
1, 32168, Note_on_c, 1, 66, 127
1, 32169, Note_on_c, 1, 51, 127
1, 32226, Note_off_c, 0, 70, 1
1, 32227, Note_on_c, 0, 72, 118
1, 32275, Note_off_c, 0, 72, 1
1, 32285, Note_off_c, 1, 51, 1
1, 32285, Note_on_c, 0, 73, 118
1, 32286, Note_on_c, 1, 56, 127
1, 32315, Note_off_c, 0, 73, 1
1, 32315, Note_on_c, 0, 72, 118
1, 32345, Note_off_c, 0, 72, 1
1, 32346, Note_on_c, 0, 73, 118
1, 32375, Note_off_c, 0, 73, 1
1, 32376, Note_on_c, 0, 72, 118
1, 32406, Note_off_c, 1, 56, 1
1, 32406, Note_off_c, 0, 72, 1
1, 32407, Note_on_c, 0, 73, 118
1, 32407, Note_on_c, 2, 44, 127
1, 32436, Note_off_c, 0, 73, 1
1, 32436, Note_on_c, 0, 72, 118
1, 32466, Note_off_c, 0, 72, 1
1, 32467, Note_on_c, 0, 73, 118
1, 32516, Note_off_c, 0, 73, 1
1, 32527, Note_off_c, 2, 44, 1
1, 32527, Note_on_c, 0, 73, 118
1, 32528, Note_on_c, 1, 49, 127
1, 32586, Note_off_c, 1, 66, 1
1, 32587, Note_on_c, 1, 65, 127
1, 32646, Note_off_c, 1, 49, 1
1, 32646, Note_off_c, 0, 73, 1
1, 32647, Note_on_c, 0, 77, 118
1, 32647, Note_on_c, 1, 61, 127
1, 32706, Note_off_c, 1, 61, 1
1, 32706, Note_on_c, 1, 63, 127
1, 32764, Note_off_c, 1, 63, 1
1, 32764, Note_off_c, 0, 77, 1
1, 32765, Note_off_c, 1, 65, 1
1, 32765, Note_on_c, 0, 75, 118
1, 32766, Note_on_c, 0, 68, 121
1, 32766, Note_on_c, 1, 61, 127
1, 32824, Note_off_c, 1, 61, 1
1, 32824, Note_on_c, 1, 60, 127
1, 32883, Note_off_c, 1, 60, 1
1, 32883, Note_off_c, 0, 75, 1
1, 32884, Note_on_c, 0, 73, 118
1, 32885, Note_on_c, 1, 58, 127
1, 32942, Note_off_c, 0, 68, 1
1, 32943, Note_on_c, 1, 65, 127
1, 33002, Note_off_c, 1, 65, 1
1, 33003, Note_off_c, 0, 73, 1
1, 33003, Note_on_c, 0, 78, 118
1, 33003, Note_on_c, 1, 61, 127
1, 33061, Note_off_c, 1, 61, 1
1, 33061, Note_off_c, 0, 78, 1
1, 33061, Note_on_c, 0, 80, 118
1, 33062, Note_on_c, 1, 65, 127
1, 33120, Note_off_c, 1, 65, 1
1, 33121, Note_off_c, 0, 80, 1
1, 33121, Note_on_c, 0, 78, 118
1, 33122, Note_on_c, 1, 63, 127
1, 33179, Note_off_c, 1, 63, 1
1, 33180, Note_off_c, 0, 78, 1
1, 33180, Note_on_c, 0, 77, 118
1, 33180, Note_on_c, 1, 61, 127
1, 33239, Note_off_c, 1, 61, 1
1, 33239, Note_off_c, 0, 77, 1
1, 33240, Note_on_c, 0, 75, 118
1, 33240, Note_on_c, 1, 60, 127
1, 33297, Note_off_c, 1, 58, 1
1, 33298, Note_on_c, 1, 58, 127
1, 33357, Note_off_c, 1, 58, 1
1, 33357, Note_off_c, 1, 60, 1
1, 33358, Note_on_c, 0, 72, 118
1, 33358, Note_on_c, 1, 57, 127
1, 33417, Note_off_c, 1, 57, 1
1, 33418, Note_on_c, 1, 55, 127
1, 33477, Note_off_c, 1, 55, 1
1, 33477, Note_off_c, 0, 72, 1
1, 33478, Note_on_c, 1, 65, 127
1, 33478, Note_on_c, 1, 57, 127
1, 33537, Note_off_c, 1, 57, 1
1, 33538, Note_off_c, 0, 75, 1
1, 33538, Note_on_c, 0, 75, 118
1, 33539, Note_on_c, 1, 53, 127
1, 33597, Note_off_c, 1, 53, 1
1, 33597, Note_off_c, 0, 75, 1
1, 33598, Note_on_c, 0, 73, 118
1, 33598, Note_on_c, 1, 58, 127
1, 33656, Note_off_c, 1, 65, 1
1, 33657, Note_on_c, 1, 65, 127
1, 33716, Note_off_c, 1, 65, 1
1, 33716, Note_off_c, 1, 58, 1
1, 33717, Note_on_c, 1, 66, 127
1, 33717, Note_on_c, 2, 46, 127
1, 33775, Note_off_c, 2, 46, 1
1, 33776, Note_off_c, 0, 73, 1
1, 33776, Note_on_c, 0, 72, 118
1, 33777, Note_on_c, 2, 44, 127
1, 33835, Note_off_c, 2, 44, 1
1, 33835, Note_off_c, 0, 72, 1
1, 33836, Note_on_c, 0, 73, 118
1, 33836, Note_on_c, 2, 46, 127
1, 33894, Note_off_c, 2, 46, 1
1, 33895, Note_off_c, 0, 73, 1
1, 33895, Note_on_c, 0, 75, 118
1, 33896, Note_on_c, 2, 48, 127
1, 33954, Note_off_c, 2, 48, 1
1, 33954, Note_off_c, 0, 75, 1
1, 33955, Note_on_c, 0, 68, 121
1, 33955, Note_on_c, 1, 49, 127
1, 34012, Note_off_c, 1, 66, 1
1, 34013, Note_on_c, 1, 65, 127
1, 34072, Note_off_c, 0, 68, 1
1, 34072, Note_on_c, 0, 73, 118
1, 34131, Note_off_c, 0, 73, 1
1, 34132, Note_on_c, 0, 75, 118
1, 34191, Note_off_c, 0, 75, 1
1, 34191, Note_on_c, 0, 73, 118
1, 34251, Note_off_c, 0, 73, 1
1, 34252, Note_on_c, 0, 72, 118
1, 34312, Note_off_c, 0, 72, 1
1, 34312, Note_off_c, 1, 65, 1
1, 34313, Note_on_c, 0, 70, 121
1, 34313, Note_on_c, 1, 67, 127
1, 34371, Note_off_c, 1, 67, 1
1, 34372, Note_on_c, 1, 63, 127
1, 34432, Note_off_c, 1, 63, 1
1, 34432, Note_off_c, 1, 49, 1
1, 34433, Note_off_c, 0, 70, 1
1, 34433, Note_on_c, 0, 72, 118
1, 34434, Note_on_c, 0, 68, 121
1, 34434, Note_on_c, 2, 48, 127
1, 34491, Note_off_c, 0, 68, 1
1, 34492, Note_on_c, 1, 67, 127
1, 34552, Note_off_c, 1, 67, 1
1, 34552, Note_off_c, 2, 48, 1
1, 34553, Note_on_c, 0, 68, 121
1, 34553, Note_on_c, 1, 53, 127
1, 34611, Note_off_c, 0, 72, 1
1, 34612, Note_on_c, 0, 72, 118
1, 34672, Note_off_c, 0, 72, 1
1, 34672, Note_off_c, 1, 53, 1
1, 34673, Note_on_c, 0, 73, 118
1, 34673, Note_on_c, 2, 46, 127
1, 34731, Note_off_c, 0, 68, 1
1, 34732, Note_on_c, 0, 68, 121
1, 34792, Note_off_c, 0, 68, 1
1, 34792, Note_off_c, 2, 46, 1
1, 34793, Note_on_c, 1, 67, 127
1, 34793, Note_on_c, 1, 51, 127
1, 34853, Note_off_c, 1, 67, 1
1, 34853, Note_on_c, 1, 65, 127
1, 34913, Note_off_c, 1, 65, 1
1, 34913, Note_off_c, 1, 51, 1
1, 34914, Note_on_c, 1, 67, 127
1, 34914, Note_on_c, 2, 39, 127
1, 34975, Note_off_c, 0, 73, 1
1, 34975, Note_on_c, 0, 73, 118
1, 35035, Note_off_c, 0, 73, 1
1, 35036, Note_off_c, 2, 39, 1
1, 35036, Note_off_c, 1, 67, 1
1, 35036, Note_on_c, 0, 72, 118
1, 35037, Note_on_c, 0, 68, 121
1, 35037, Note_on_c, 2, 44, 127
1, 35094, Note_off_c, 2, 44, 1
1, 35095, Note_on_c, 2, 43, 127
1, 35155, Note_off_c, 2, 43, 1
1, 35156, Note_off_c, 0, 72, 1
1, 35156, Note_off_c, 0, 68, 1
1, 35156, Note_on_c, 1, 63, 127
1, 35157, Note_on_c, 2, 44, 127
1, 35215, Note_off_c, 2, 44, 1
1, 35215, Note_off_c, 1, 63, 1
1, 35215, Note_on_c, 1, 61, 127
1, 35216, Note_on_c, 2, 46, 127
1, 35274, Note_off_c, 2, 46, 1
1, 35275, Note_off_c, 1, 61, 1
1, 35275, Note_on_c, 1, 63, 127
1, 35275, Note_on_c, 2, 48, 127
1, 35334, Note_off_c, 2, 48, 1
1, 35334, Note_off_c, 1, 63, 1
1, 35335, Note_on_c, 1, 49, 127
1, 35335, Note_on_c, 1, 65, 127
1, 35393, Note_off_c, 1, 65, 1
1, 35394, Note_off_c, 1, 49, 1
1, 35394, Note_on_c, 1, 66, 127
1, 35394, Note_on_c, 1, 51, 127
1, 35453, Note_off_c, 1, 51, 1
1, 35453, Note_on_c, 1, 50, 127
1, 35511, Note_off_c, 1, 50, 1
1, 35512, Note_on_c, 0, 70, 124
1, 35512, Note_on_c, 1, 51, 127
1, 35571, Note_off_c, 1, 51, 1
1, 35571, Note_off_c, 0, 70, 1
1, 35572, Note_on_c, 0, 68, 124
1, 35572, Note_on_c, 1, 53, 127
1, 35629, Note_off_c, 1, 53, 1
1, 35630, Note_off_c, 0, 68, 1
1, 35630, Note_on_c, 0, 70, 124
1, 35631, Note_on_c, 1, 54, 127
1, 35688, Note_off_c, 1, 54, 1
1, 35688, Note_off_c, 0, 70, 1
1, 35689, Note_on_c, 0, 72, 121
1, 35689, Note_on_c, 1, 56, 127
1, 35748, Note_off_c, 1, 56, 1
1, 35748, Note_off_c, 0, 72, 1
1, 35748, Note_on_c, 0, 73, 121
1, 35749, Note_on_c, 1, 58, 127
1, 35806, Note_off_c, 1, 58, 1
1, 35807, Note_on_c, 1, 57, 127
1, 35866, Note_off_c, 1, 57, 1
1, 35866, Note_off_c, 1, 66, 1
1, 35867, Note_on_c, 1, 65, 127
1, 35867, Note_on_c, 1, 58, 127
1, 35924, Note_off_c, 1, 58, 1
1, 35925, Note_on_c, 1, 60, 127
1, 35984, Note_off_c, 1, 60, 1
1, 35984, Note_off_c, 1, 65, 1
1, 35985, Note_on_c, 0, 70, 124
1, 35985, Note_on_c, 1, 61, 127
1, 36042, Note_off_c, 1, 61, 1
1, 36043, Note_on_c, 1, 63, 127
1, 36102, Note_off_c, 1, 63, 1
1, 36102, Note_off_c, 0, 70, 1
1, 36103, Note_on_c, 0, 69, 124
1, 36103, Note_on_c, 1, 65, 127
1, 36160, Note_off_c, 1, 65, 1
1, 36161, Note_on_c, 1, 63, 127
1, 36220, Note_off_c, 1, 63, 1
1, 36220, Note_off_c, 0, 73, 1
1, 36221, Note_on_c, 0, 72, 118
1, 36221, Note_on_c, 1, 65, 127
1, 36279, Note_off_c, 1, 65, 1
1, 36280, Note_on_c, 1, 66, 127
1, 36340, Note_off_c, 1, 66, 1
1, 36340, Note_off_c, 0, 72, 1
1, 36341, Note_off_c, 0, 69, 1
1, 36341, Note_on_c, 0, 68, 124
1, 36342, Note_on_c, 0, 77, 118
1, 36342, Note_on_c, 1, 65, 127
1, 36399, Note_off_c, 1, 65, 1
1, 36400, Note_on_c, 1, 63, 127
1, 36460, Note_off_c, 1, 63, 1
1, 36460, Note_off_c, 0, 77, 1
1, 36461, Note_on_c, 0, 70, 121
1, 36461, Note_on_c, 1, 62, 127
1, 36518, Note_off_c, 1, 62, 1
1, 36519, Note_on_c, 1, 58, 127
1, 36578, Note_off_c, 1, 58, 1
1, 36578, Note_off_c, 0, 68, 1
1, 36579, Note_on_c, 1, 67, 127
1, 36579, Note_on_c, 1, 63, 127
1, 36638, Note_off_c, 1, 63, 1
1, 36639, Note_on_c, 1, 65, 127
1, 36698, Note_off_c, 1, 65, 1
1, 36698, Note_off_c, 1, 67, 1
1, 36699, Note_off_c, 0, 70, 1
1, 36699, Note_on_c, 0, 75, 118
1, 36700, Note_on_c, 1, 63, 127
1, 36700, Note_on_c, 1, 66, 127
1, 36757, Note_off_c, 1, 63, 1
1, 36758, Note_on_c, 1, 61, 127
1, 36817, Note_off_c, 1, 61, 1
1, 36817, Note_off_c, 0, 75, 1
1, 36818, Note_on_c, 0, 68, 124
1, 36818, Note_on_c, 1, 60, 127
1, 36876, Note_off_c, 1, 60, 1
1, 36876, Note_on_c, 1, 56, 127
1, 36935, Note_off_c, 1, 56, 1
1, 36936, Note_off_c, 1, 66, 1
1, 36936, Note_on_c, 1, 61, 127
1, 36936, Note_on_c, 1, 65, 127
1, 36994, Note_off_c, 1, 61, 1
1, 36994, Note_on_c, 1, 59, 127
1, 37053, Note_off_c, 1, 59, 1
1, 37054, Note_off_c, 1, 65, 1
1, 37054, Note_off_c, 0, 68, 1
1, 37055, Note_on_c, 0, 73, 121
1, 37055, Note_on_c, 1, 64, 127
1, 37056, Note_on_c, 1, 58, 127
1, 37112, Note_off_c, 1, 58, 1
1, 37112, Note_on_c, 1, 56, 127
1, 37171, Note_off_c, 1, 56, 1
1, 37172, Note_off_c, 1, 64, 1
1, 37172, Note_on_c, 1, 63, 127
1, 37173, Note_on_c, 1, 55, 127
1, 37230, Note_off_c, 1, 55, 1
1, 37230, Note_on_c, 1, 51, 127
1, 37289, Note_off_c, 1, 51, 1
1, 37290, Note_off_c, 0, 73, 1
1, 37290, Note_on_c, 0, 72, 121
1, 37291, Note_on_c, 1, 56, 127
1, 37349, Note_off_c, 1, 56, 1
1, 37349, Note_off_c, 0, 72, 1
1, 37350, Note_on_c, 0, 70, 124
1, 37350, Note_on_c, 1, 58, 127
1, 37408, Note_off_c, 1, 58, 1
1, 37409, Note_off_c, 0, 70, 1
1, 37409, Note_on_c, 0, 72, 121
1, 37410, Note_on_c, 1, 56, 127
1, 37468, Note_off_c, 1, 56, 1
1, 37468, Note_off_c, 0, 72, 1
1, 37469, Note_on_c, 0, 75, 121
1, 37469, Note_on_c, 1, 54, 127
1, 37527, Note_off_c, 1, 54, 1
1, 37528, Note_off_c, 0, 75, 1
1, 37529, Note_on_c, 0, 68, 124
1, 37529, Note_on_c, 1, 53, 127
1, 37587, Note_off_c, 1, 53, 1
1, 37588, Note_on_c, 1, 54, 127
1, 37646, Note_off_c, 1, 54, 1
1, 37646, Note_off_c, 1, 63, 1
1, 37647, Note_off_c, 0, 68, 1
1, 37647, Note_on_c, 0, 73, 121
1, 37647, Note_on_c, 1, 61, 127
1, 37648, Note_on_c, 1, 53, 127
1, 37705, Note_off_c, 1, 53, 1
1, 37705, Note_on_c, 1, 51, 127
1, 37766, Note_off_c, 1, 51, 1
1, 37766, Note_off_c, 1, 61, 1
1, 37767, Note_off_c, 0, 73, 1
1, 37767, Note_on_c, 1, 63, 127
1, 37767, Note_on_c, 1, 53, 127
1, 37768, Note_on_c, 1, 66, 127
1, 37826, Note_off_c, 1, 53, 1
1, 37827, Note_on_c, 1, 54, 127
1, 37888, Note_off_c, 1, 54, 1
1, 37888, Note_off_c, 1, 66, 1
1, 37889, Note_on_c, 1, 56, 127
1, 37889, Note_on_c, 1, 65, 127
1, 37949, Note_off_c, 1, 63, 1
1, 37950, Note_on_c, 1, 61, 127
1, 38013, Note_off_c, 1, 65, 1
1, 38013, Note_off_c, 1, 56, 1
1, 38014, Note_on_c, 1, 63, 127
1, 38014, Note_on_c, 2, 42, 127
1, 38077, Note_off_c, 1, 61, 1
1, 38077, Note_on_c, 1, 58, 127
1, 38143, Note_off_c, 1, 58, 1
1, 38144, Note_off_c, 2, 42, 1
1, 38144, Note_on_c, 1, 60, 127
1, 38145, Note_on_c, 2, 44, 127
1, 38212, Note_on_c, 1, 54, 127
1, 38281, Note_off_c, 1, 54, 1
1, 38282, Note_off_c, 2, 44, 1
1, 38282, Note_off_c, 1, 60, 1
1, 38283, Note_off_c, 1, 63, 1
1, 38283, Note_on_c, 1, 53, 111
1, 38284, Note_on_c, 1, 61, 111
1, 38284, Note_on_c, 1, 56, 111
1, 38285, Note_on_c, 2, 37, 118
1, 39533, Note_off_c, 2, 37, 1
1, 39534, Note_off_c, 1, 56, 1
1, 39534, Note_off_c, 1, 61, 1
1, 39535, Note_off_c, 1, 53, 1
1, 39816, Marker_t, "Copyright 1997 (P) S.D.Rodrian -  NOT to be reproduced or sold sans permission !"
1, 40058, Note_on_c, 1, 49, 127
1, 40292, Note_off_c, 1, 49, 1
1, 40293, Note_on_c, 1, 53, 127
1, 40529, Note_off_c, 1, 53, 1
1, 40530, Note_on_c, 1, 49, 127
1, 40764, Note_off_c, 1, 49, 1
1, 40765, Note_on_c, 1, 56, 127
1, 40997, Note_off_c, 1, 56, 1
1, 40997, Note_on_c, 0, 68, 124
1, 41223, Note_off_c, 0, 68, 1
1, 41224, Note_on_c, 0, 72, 124
1, 41224, Note_on_c, 1, 54, 127
1, 41445, Note_off_c, 1, 54, 1
1, 41446, Note_off_c, 0, 72, 1
1, 41446, Note_on_c, 0, 68, 124
1, 41667, Note_off_c, 0, 68, 1
1, 41667, Note_on_c, 0, 73, 122
1, 41668, Note_on_c, 1, 53, 127
1, 41776, Note_off_c, 1, 53, 1
1, 41777, Note_on_c, 1, 51, 127
1, 41885, Note_off_c, 1, 51, 1
1, 41885, Note_off_c, 0, 73, 1
1, 41886, Note_on_c, 0, 68, 124
1, 41886, Note_on_c, 1, 49, 127
1, 42106, Note_off_c, 0, 68, 1
1, 42107, Note_on_c, 0, 71, 122
1, 42107, Note_on_c, 1, 65, 127
1, 42216, Note_off_c, 1, 49, 1
1, 42217, Note_on_c, 1, 51, 127
1, 42325, Note_off_c, 1, 65, 1
1, 42325, Note_off_c, 1, 51, 1
1, 42325, Note_off_c, 0, 71, 1
1, 42326, Note_on_c, 0, 68, 124
1, 42326, Note_on_c, 1, 53, 127
1, 42432, Note_off_c, 1, 53, 1
1, 42432, Note_on_c, 1, 49, 127
1, 42539, Note_off_c, 1, 49, 1
1, 42540, Note_off_c, 0, 68, 1
1, 42540, Note_on_c, 0, 70, 124
1, 42540, Note_on_c, 1, 61, 127
1, 42541, Note_on_c, 1, 54, 127
1, 42645, Note_off_c, 0, 70, 1
1, 42645, Note_on_c, 0, 68, 124
1, 42751, Note_off_c, 0, 68, 1
1, 42752, Note_off_c, 1, 61, 1
1, 42752, Note_off_c, 1, 54, 1
1, 42753, Note_on_c, 1, 66, 127
1, 42963, Note_on_c, 1, 63, 127
1, 42964, Note_on_c, 2, 42, 127
1, 43068, Note_off_c, 1, 66, 1
1, 43068, Note_on_c, 0, 68, 124
1, 43173, Note_off_c, 0, 68, 1
1, 43173, Note_off_c, 2, 42, 1
1, 43174, Note_off_c, 1, 63, 1
1, 43174, Note_on_c, 0, 70, 124
1, 43278, Note_off_c, 0, 70, 1
1, 43279, Note_on_c, 1, 66, 127
1, 43384, Note_off_c, 1, 66, 1
1, 43384, Note_on_c, 0, 68, 124
1, 43385, Note_on_c, 1, 65, 127
1, 43488, Note_off_c, 1, 65, 1
1, 43489, Note_on_c, 1, 66, 127
1, 43593, Note_off_c, 1, 66, 1
1, 43594, Note_off_c, 0, 68, 1
1, 43594, Note_on_c, 0, 68, 124
1, 43595, Note_on_c, 1, 49, 127
1, 43801, Note_off_c, 1, 49, 1
1, 43802, Note_on_c, 0, 73, 124
1, 43802, Note_on_c, 2, 46, 127
1, 43906, Note_off_c, 0, 68, 1
1, 43907, Note_on_c, 1, 66, 127
1, 44011, Note_off_c, 2, 46, 1
1, 44011, Note_off_c, 1, 66, 1
1, 44012, Note_off_c, 0, 73, 1
1, 44012, Note_on_c, 1, 49, 127
1, 44013, Note_on_c, 1, 65, 127
1, 44114, Note_off_c, 1, 65, 1
1, 44115, Note_on_c, 0, 68, 124
1, 44219, Note_off_c, 0, 68, 1
1, 44220, Note_off_c, 1, 49, 1
1, 44220, Note_on_c, 0, 73, 124
1, 44220, Note_on_c, 1, 63, 127
1, 44221, Note_on_c, 2, 42, 127
1, 44324, Note_off_c, 1, 63, 1
1, 44324, Note_on_c, 1, 65, 127
1, 44428, Note_off_c, 2, 42, 1
1, 44428, Note_off_c, 1, 65, 1
1, 44428, Note_off_c, 0, 73, 1
1, 44429, Note_on_c, 1, 66, 127
1, 44429, Note_on_c, 2, 46, 127
1, 44604, Marker_t, "This file may be freely distributed on the WWW, as long as it's not modified. SDR"
1, 44637, Note_off_c, 2, 46, 1
1, 44638, Note_on_c, 0, 72, 124
1, 44638, Note_on_c, 2, 39, 127
1, 44740, Note_off_c, 1, 66, 1
1, 44741, Note_on_c, 1, 65, 127
1, 44844, Note_off_c, 1, 65, 1
1, 44845, Note_off_c, 2, 39, 1
1, 44845, Note_off_c, 0, 72, 1
1, 44846, Note_on_c, 1, 63, 127
1, 44846, Note_on_c, 2, 44, 127
1, 44947, Note_off_c, 1, 63, 1
1, 44948, Note_on_c, 1, 66, 127
1, 45050, Note_off_c, 1, 66, 1
1, 45050, Note_off_c, 2, 44, 1
1, 45051, Note_on_c, 1, 65, 127
1, 45051, Note_on_c, 2, 37, 127
1, 45251, Note_off_c, 1, 65, 1
1, 45251, Note_on_c, 0, 73, 124
1, 45453, Note_off_c, 0, 73, 1
1, 45454, Note_off_c, 2, 37, 1
1, 45454, Note_on_c, 0, 77, 118
1, 45659, Note_off_c, 0, 77, 1
1, 45659, Note_on_c, 0, 73, 124
1, 45660, Note_on_c, 1, 61, 127
1, 45866, Note_off_c, 1, 61, 1
1, 45866, Note_off_c, 0, 73, 1
1, 45867, Note_on_c, 0, 80, 116
1, 45867, Note_on_c, 1, 60, 127
1, 46074, Note_off_c, 1, 60, 1
1, 46075, Note_off_c, 0, 80, 1
1, 46075, Note_on_c, 0, 68, 124
1, 46076, Note_on_c, 1, 63, 127
1, 46283, Note_off_c, 1, 63, 1
1, 46283, Note_off_c, 0, 68, 1
1, 46284, Note_on_c, 0, 72, 122
1, 46284, Note_on_c, 0, 78, 114
1, 46284, Note_on_c, 1, 56, 127
1, 46488, Note_off_c, 0, 78, 1
1, 46488, Note_off_c, 0, 72, 1
1, 46489, Note_on_c, 0, 68, 122
1, 46698, Note_off_c, 0, 68, 1
1, 46699, Note_off_c, 1, 56, 1
1, 46699, Note_on_c, 0, 73, 122
1, 46700, Note_on_c, 0, 77, 114
1, 46802, Note_off_c, 0, 73, 1
1, 46802, Note_off_c, 0, 77, 1
1, 46803, Note_on_c, 0, 75, 122
1, 46905, Note_off_c, 0, 75, 1
1, 46905, Note_on_c, 0, 73, 122
1, 46906, Note_on_c, 1, 49, 127
1, 47111, Note_off_c, 1, 49, 1
1, 47111, Note_on_c, 0, 71, 122
1, 47111, Note_on_c, 1, 53, 127
1, 47212, Note_off_c, 0, 73, 1
1, 47213, Note_on_c, 0, 75, 122
1, 47312, Note_off_c, 0, 75, 1
1, 47313, Note_off_c, 1, 53, 1
1, 47313, Note_off_c, 0, 71, 1
1, 47313, Note_on_c, 0, 77, 116
1, 47314, Note_on_c, 1, 49, 127
1, 47412, Note_off_c, 0, 77, 1
1, 47412, Note_on_c, 0, 73, 122
1, 47512, Note_off_c, 0, 73, 1
1, 47512, Note_off_c, 1, 49, 1
1, 47513, Note_on_c, 0, 70, 122
1, 47513, Note_on_c, 1, 54, 127
1, 47612, Note_on_c, 0, 75, 122
1, 47712, Note_off_c, 0, 75, 1
1, 47713, Note_off_c, 1, 54, 1
1, 47713, Note_off_c, 0, 70, 1
1, 47714, Note_on_c, 0, 78, 116
1, 47812, Note_off_c, 0, 78, 1
1, 47813, Note_on_c, 0, 75, 122
1, 47911, Note_off_c, 0, 75, 1
1, 47912, Note_on_c, 0, 80, 116
1, 47912, Note_on_c, 1, 53, 127
1, 48010, Note_on_c, 0, 70, 122
1, 48107, Note_off_c, 0, 70, 1
1, 48108, Note_off_c, 1, 53, 1
1, 48108, Note_off_c, 0, 80, 1
1, 48108, Note_on_c, 0, 74, 122
1, 48205, Note_off_c, 0, 74, 1
1, 48205, Note_on_c, 0, 70, 122
1, 48302, Note_off_c, 0, 70, 1
1, 48302, Note_on_c, 0, 78, 116
1, 48303, Note_on_c, 0, 75, 122
1, 48401, Note_on_c, 1, 51, 127
1, 48500, Note_off_c, 1, 51, 1
1, 48500, Note_off_c, 0, 75, 1
1, 48501, Note_on_c, 2, 48, 127
1, 48598, Note_off_c, 2, 48, 1
1, 48598, Note_on_c, 1, 51, 127
1, 48695, Note_off_c, 1, 51, 1
1, 48695, Note_off_c, 0, 78, 1
1, 48696, Note_on_c, 0, 77, 124
1, 48696, Note_on_c, 2, 45, 127
1, 48792, Note_on_c, 0, 75, 124
1, 48889, Note_off_c, 0, 75, 1
1, 48890, Note_off_c, 2, 45, 1
1, 48890, Note_on_c, 0, 73, 124
1, 48891, Note_on_c, 2, 46, 127
1, 48970, Note_off_c, 0, 77, 1
1, 48986, Note_on_c, 0, 77, 124
1, 49084, Note_off_c, 0, 77, 1
1, 49085, Note_off_c, 2, 46, 1
1, 49085, Note_on_c, 0, 79, 122
1, 49086, Note_on_c, 2, 39, 127
1, 49184, Note_off_c, 0, 73, 1
1, 49184, Note_on_c, 0, 72, 124
1, 49282, Note_off_c, 2, 39, 1
1, 49282, Note_off_c, 0, 79, 1
1, 49282, Note_on_c, 0, 80, 122
1, 49283, Note_on_c, 2, 41, 127
1, 49332, Marker_t, "SDRodrian@aol.com  626 Lalor Trenton NJ 08611 http://members.aol.com/sdrodrian"
1, 49380, Note_off_c, 0, 72, 1
1, 49381, Note_on_c, 0, 72, 124
1, 49479, Note_off_c, 2, 41, 1
1, 49479, Note_off_c, 0, 72, 1
1, 49480, Note_on_c, 0, 70, 124
1, 49480, Note_on_c, 2, 37, 127
1, 49578, Note_off_c, 0, 80, 1
1, 49579, Note_on_c, 0, 80, 122
1, 49676, Note_off_c, 0, 80, 1
1, 49677, Note_off_c, 2, 37, 1
1, 49677, Note_on_c, 0, 79, 122
1, 49678, Note_on_c, 2, 39, 127
1, 49775, Note_off_c, 0, 70, 1
1, 49776, Note_on_c, 0, 73, 124
1, 49874, Note_off_c, 0, 73, 1
1, 49874, Note_off_c, 2, 39, 1
1, 49875, Note_off_c, 0, 79, 1
1, 49875, Note_on_c, 0, 80, 116
1, 49876, Note_on_c, 0, 72, 118
1, 50066, Note_off_c, 0, 80, 1
1, 50066, Note_off_c, 0, 72, 1
1, 50067, Note_on_c, 2, 44, 127
1, 50261, Note_off_c, 2, 44, 1
1, 50261, Note_on_c, 2, 48, 127
1, 50455, Note_off_c, 2, 48, 1
1, 50455, Note_on_c, 2, 44, 127
1, 50652, Note_off_c, 2, 44, 1
1, 50652, Note_on_c, 1, 49, 127
1, 50849, Note_off_c, 1, 49, 1
1, 50850, Note_on_c, 1, 56, 127
1, 51049, Note_off_c, 1, 56, 1
1, 51049, Note_on_c, 1, 60, 127
1, 51050, Note_on_c, 2, 48, 127
1, 51250, Note_off_c, 2, 48, 1
1, 51250, Note_off_c, 1, 60, 1
1, 51251, Note_on_c, 1, 56, 127
1, 51450, Note_off_c, 1, 56, 1
1, 51450, Note_on_c, 1, 61, 127
1, 51450, Note_on_c, 2, 46, 127
1, 51543, Note_off_c, 2, 46, 1
1, 51544, Note_on_c, 2, 48, 127
1, 51637, Note_off_c, 2, 48, 1
1, 51637, Note_off_c, 1, 61, 1
1, 51637, Note_on_c, 1, 49, 127
1, 51638, Note_on_c, 1, 65, 127
1, 51731, Note_off_c, 1, 49, 1
1, 51732, Note_on_c, 1, 51, 127
1, 51824, Note_off_c, 1, 51, 1
1, 51825, Note_off_c, 1, 65, 1
1, 51825, Note_on_c, 0, 68, 124
1, 51825, Note_on_c, 1, 59, 127
1, 51826, Note_on_c, 1, 53, 127
1, 51917, Note_off_c, 1, 53, 1
1, 51918, Note_on_c, 1, 54, 127
1, 52011, Note_off_c, 1, 54, 1
1, 52012, Note_off_c, 1, 59, 1
1, 52012, Note_off_c, 0, 68, 1
1, 52012, Note_on_c, 1, 56, 127
1, 52013, Note_on_c, 1, 65, 127
1, 52057, Note_off_c, 1, 56, 1
1, 52058, Note_on_c, 1, 54, 127
1, 52104, Note_off_c, 1, 54, 1
1, 52105, Note_on_c, 1, 53, 127
1, 52199, Note_off_c, 1, 53, 1
1, 52199, Note_off_c, 1, 65, 1
1, 52200, Note_on_c, 0, 70, 124
1, 52200, Note_on_c, 1, 54, 127
1, 52200, Note_on_c, 1, 58, 127
1, 52293, Note_off_c, 1, 58, 1
1, 52293, Note_on_c, 1, 60, 127
1, 52387, Note_off_c, 1, 60, 1
1, 52387, Note_off_c, 1, 54, 1
1, 52388, Note_off_c, 0, 70, 1
1, 52388, Note_on_c, 1, 62, 127
1, 52482, Note_off_c, 1, 62, 1
1, 52482, Note_on_c, 1, 63, 127
1, 52577, Note_off_c, 1, 63, 1
1, 52577, Note_on_c, 0, 68, 124
1, 52578, Note_on_c, 1, 65, 127
1, 52578, Note_on_c, 1, 50, 127
1, 52673, Note_off_c, 1, 65, 1
1, 52673, Note_on_c, 1, 66, 127
1, 52769, Note_off_c, 1, 66, 1
1, 52769, Note_off_c, 1, 50, 1
1, 52770, Note_off_c, 0, 68, 1
1, 52770, Note_on_c, 0, 68, 124
1, 52817, Note_off_c, 0, 68, 1
1, 52817, Note_on_c, 1, 66, 127
1, 52865, Note_off_c, 1, 66, 1
1, 52865, Note_on_c, 1, 65, 127
1, 52961, Note_off_c, 1, 65, 1
1, 52961, Note_on_c, 1, 51, 127
1, 52962, Note_on_c, 1, 66, 127
1, 53056, Note_on_c, 0, 68, 124
1, 53151, Note_off_c, 0, 68, 1
1, 53151, Note_off_c, 1, 66, 1
1, 53152, Note_off_c, 1, 51, 1
1, 53152, Note_on_c, 0, 70, 124
1, 53245, Note_off_c, 0, 70, 1
1, 53245, Note_on_c, 0, 72, 124
1, 53340, Note_off_c, 0, 72, 1
1, 53340, Note_on_c, 0, 74, 122
1, 53341, Note_on_c, 1, 65, 127
1, 53435, Note_off_c, 0, 74, 1
1, 53436, Note_on_c, 0, 75, 122
1, 53529, Note_off_c, 0, 75, 1
1, 53530, Note_off_c, 1, 65, 1
1, 53530, Note_on_c, 0, 77, 122
1, 53531, Note_on_c, 1, 58, 127
1, 53576, Note_off_c, 0, 77, 1
1, 53577, Note_on_c, 0, 75, 122
1, 53623, Note_off_c, 0, 75, 1
1, 53624, Note_on_c, 0, 74, 122
1, 53716, Note_off_c, 0, 74, 1
1, 53717, Note_off_c, 1, 58, 1
1, 53717, Note_on_c, 0, 75, 122
1, 53718, Note_on_c, 1, 54, 127
1, 53904, Note_off_c, 1, 54, 1
1, 53904, Note_off_c, 0, 75, 1
1, 53904, Note_on_c, 0, 70, 124
1, 53905, Note_on_c, 1, 58, 127
1, 54091, Note_off_c, 1, 58, 1
1, 54092, Note_off_c, 0, 70, 1
1, 54092, Note_on_c, 1, 66, 127
1, 54092, Note_on_c, 1, 51, 127
1, 54276, Note_off_c, 1, 66, 1
1, 54277, Note_off_c, 1, 51, 1
1, 54277, Note_on_c, 0, 70, 124
1, 54278, Note_on_c, 0, 75, 124
1, 54278, Note_on_c, 1, 55, 127
1, 54408, Marker_t, "1121 Deutz Ave Trenton NJ 08611 http://www.geocities.com/Paris/LeftBank/3214"
1, 54465, Note_off_c, 1, 55, 1
1, 54465, Note_off_c, 0, 75, 1
1, 54466, Note_off_c, 0, 70, 1
1, 54466, Note_on_c, 0, 72, 124
1, 54467, Note_on_c, 1, 56, 127
1, 54467, Note_on_c, 1, 63, 127
1, 54563, Note_off_c, 1, 56, 1
1, 54563, Note_on_c, 2, 44, 127
1, 54660, Note_off_c, 2, 44, 1
1, 54660, Note_off_c, 1, 63, 1
1, 54660, Note_off_c, 0, 72, 1
1, 54661, Note_on_c, 0, 75, 124
1, 54661, Note_on_c, 1, 66, 127
1, 54662, Note_on_c, 2, 46, 127
1, 54756, Note_off_c, 2, 46, 1
1, 54756, Note_on_c, 2, 48, 127
1, 54852, Note_off_c, 2, 48, 1
1, 54852, Note_off_c, 1, 66, 1
1, 54852, Note_off_c, 0, 75, 1
1, 54853, Note_on_c, 0, 68, 124
1, 54853, Note_on_c, 1, 65, 127
1, 54854, Note_on_c, 1, 49, 127
1, 54947, Note_off_c, 1, 49, 1
1, 54947, Note_on_c, 1, 51, 127
1, 55041, Note_off_c, 1, 65, 1
1, 55041, Note_off_c, 1, 51, 1
1, 55042, Note_off_c, 0, 68, 1
1, 55042, Note_on_c, 0, 73, 124
1, 55043, Note_on_c, 0, 68, 124
1, 55043, Note_on_c, 1, 53, 127
1, 55087, Note_off_c, 1, 53, 1
1, 55087, Note_on_c, 1, 51, 127
1, 55134, Note_off_c, 1, 51, 1
1, 55134, Note_on_c, 1, 49, 127
1, 55228, Note_off_c, 1, 49, 1
1, 55228, Note_off_c, 0, 73, 1
1, 55229, Note_on_c, 0, 70, 124
1, 55229, Note_on_c, 1, 54, 127
1, 55323, Note_off_c, 0, 68, 1
1, 55323, Note_on_c, 0, 68, 124
1, 55418, Note_off_c, 0, 68, 1
1, 55418, Note_off_c, 1, 54, 1
1, 55419, Note_off_c, 0, 70, 1
1, 55419, Note_on_c, 1, 51, 127
1, 55420, Note_on_c, 1, 66, 127
1, 55513, Note_off_c, 1, 66, 1
1, 55513, Note_on_c, 1, 65, 127
1, 55607, Note_off_c, 1, 65, 1
1, 55608, Note_off_c, 1, 51, 1
1, 55608, Note_on_c, 0, 72, 124
1, 55608, Note_on_c, 1, 63, 127
1, 55702, Note_off_c, 1, 63, 1
1, 55703, Note_on_c, 1, 61, 127
1, 55797, Note_off_c, 1, 61, 1
1, 55798, Note_off_c, 0, 72, 1
1, 55798, Note_on_c, 1, 56, 127
1, 55799, Note_on_c, 1, 60, 127
1, 55844, Note_off_c, 1, 60, 1
1, 55845, Note_on_c, 1, 61, 127
1, 55890, Note_off_c, 1, 61, 1
1, 55891, Note_on_c, 1, 63, 127
1, 55984, Note_off_c, 1, 63, 1
1, 55985, Note_off_c, 1, 56, 1
1, 55985, Note_on_c, 0, 73, 124
1, 55986, Note_on_c, 1, 53, 127
1, 55986, Note_on_c, 1, 56, 127
1, 56173, Note_off_c, 1, 53, 1
1, 56174, Note_off_c, 0, 73, 1
1, 56174, Note_on_c, 0, 80, 115
1, 56175, Note_on_c, 1, 56, 127
1, 56364, Note_off_c, 1, 56, 1
1, 56364, Note_off_c, 0, 80, 1
1, 56364, Note_off_c, 1, 56, 1
1, 56365, Note_on_c, 0, 77, 115
1, 56365, Note_on_c, 1, 49, 127
1, 56551, Note_off_c, 1, 49, 1
1, 56552, Note_off_c, 0, 77, 1
1, 56552, Note_on_c, 0, 80, 115
1, 56553, Note_on_c, 1, 61, 127
1, 56738, Note_off_c, 1, 61, 1
1, 56739, Note_off_c, 0, 80, 1
1, 56739, Note_on_c, 0, 73, 124
1, 56739, Note_on_c, 1, 65, 127
1, 56925, Note_off_c, 1, 65, 1
1, 56925, Note_on_c, 1, 49, 127
1, 56926, Note_on_c, 1, 61, 127
1, 57109, Note_off_c, 1, 61, 1
1, 57109, Note_off_c, 1, 49, 1
1, 57110, Note_off_c, 0, 73, 1
1, 57110, Note_on_c, 0, 68, 124
1, 57111, Note_on_c, 1, 53, 127
1, 57201, Note_on_c, 0, 71, 124
1, 57293, Note_off_c, 0, 71, 1
1, 57294, Note_off_c, 1, 53, 1
1, 57294, Note_on_c, 0, 70, 124
1, 57295, Note_on_c, 1, 49, 127
1, 57386, Note_off_c, 0, 70, 1
1, 57387, Note_on_c, 0, 68, 124
1, 57480, Note_off_c, 0, 68, 1
1, 57480, Note_off_c, 1, 49, 1
1, 57480, Note_off_c, 0, 68, 1
1, 57481, Note_on_c, 0, 70, 124
1, 57481, Note_on_c, 1, 54, 127
1, 57572, Note_on_c, 0, 68, 124
1, 57665, Note_off_c, 1, 54, 1
1, 57665, Note_off_c, 0, 68, 1
1, 57666, Note_on_c, 1, 58, 127
1, 57666, Note_on_c, 1, 66, 127
1, 57758, Note_off_c, 1, 66, 1
1, 57758, Note_on_c, 1, 65, 127
1, 57852, Note_off_c, 1, 65, 1
1, 57852, Note_off_c, 1, 58, 1
1, 57853, Note_on_c, 1, 66, 127
1, 57853, Note_on_c, 1, 51, 127
1, 57946, Note_off_c, 0, 70, 1
1, 57947, Note_on_c, 0, 70, 124
1, 58039, Note_off_c, 0, 70, 1
1, 58040, Note_off_c, 1, 51, 1
1, 58040, Note_on_c, 0, 75, 124
1, 58041, Note_on_c, 1, 54, 127
1, 58131, Note_off_c, 1, 66, 1
1, 58132, Note_on_c, 1, 66, 127
1, 58224, Note_off_c, 1, 54, 1
1, 58224, Note_off_c, 0, 75, 1
1, 58224, Note_on_c, 0, 68, 124
1, 58225, Note_on_c, 2, 48, 127
1, 58318, Note_off_c, 1, 66, 1
1, 58318, Note_on_c, 1, 66, 127
1, 58411, Note_off_c, 2, 48, 1
1, 58411, Note_off_c, 1, 66, 1
1, 58412, Note_on_c, 1, 56, 127
1, 58412, Note_on_c, 1, 65, 127
1, 58504, Note_off_c, 1, 65, 1
1, 58504, Note_on_c, 1, 63, 127
1, 58596, Note_off_c, 1, 63, 1
1, 58597, Note_off_c, 1, 56, 1
1, 58597, Note_on_c, 1, 65, 127
1, 58597, Note_on_c, 1, 49, 127
1, 58689, Note_off_c, 0, 68, 1
1, 58689, Note_on_c, 0, 68, 124
1, 58780, Note_off_c, 0, 68, 1
1, 58781, Note_off_c, 1, 49, 1
1, 58782, Note_on_c, 0, 73, 124
1, 58782, Note_on_c, 1, 53, 127
1, 58872, Note_off_c, 1, 65, 1
1, 58872, Note_on_c, 1, 65, 127
1, 58963, Note_off_c, 1, 53, 1
1, 58964, Note_off_c, 0, 73, 1
1, 58964, Note_on_c, 1, 66, 127
1, 58965, Note_on_c, 2, 46, 127
1, 59054, Note_off_c, 1, 65, 1
1, 59055, Note_on_c, 1, 65, 127
1, 59144, Note_off_c, 1, 65, 1
1, 59144, Note_off_c, 2, 46, 1
1, 59145, Note_on_c, 1, 54, 127
1, 59145, Note_on_c, 1, 63, 127
1, 59234, Note_off_c, 1, 63, 1
1, 59234, Note_on_c, 1, 61, 127
1, 59323, Note_off_c, 1, 61, 1
1, 59324, Note_off_c, 1, 54, 1
1, 59324, Note_on_c, 1, 63, 127
1, 59325, Note_on_c, 2, 48, 127
1, 59412, Note_off_c, 1, 66, 1
1, 59412, Note_on_c, 1, 65, 127
1, 59501, Note_off_c, 1, 65, 1
1, 59501, Note_off_c, 2, 48, 1
1, 59502, Note_on_c, 1, 66, 127
1, 59502, Note_on_c, 1, 51, 127
1, 59589, Note_off_c, 1, 63, 1
1, 59590, Note_on_c, 1, 63, 127
1, 59679, Note_off_c, 1, 66, 1
1, 59680, Note_off_c, 1, 51, 1
1, 59680, Note_on_c, 1, 65, 127
1, 59681, Note_on_c, 2, 45, 127
1, 59770, Note_off_c, 1, 63, 1
1, 59770, Note_on_c, 1, 63, 127
1, 59859, Note_off_c, 1, 63, 1
1, 59859, Note_off_c, 2, 45, 1
1, 59860, Note_on_c, 1, 61, 127
1, 59860, Note_on_c, 2, 41, 127
1, 59948, Note_off_c, 1, 61, 1
1, 59949, Note_on_c, 1, 60, 127
1, 60036, Note_off_c, 1, 60, 1
1, 60037, Note_off_c, 2, 41, 1
1, 60037, Note_on_c, 1, 61, 127
1, 60038, Note_on_c, 2, 46, 127
1, 60126, Note_off_c, 1, 65, 1
1, 60126, Note_on_c, 1, 63, 127
1, 60216, Note_off_c, 1, 63, 1
1, 60216, Note_off_c, 2, 46, 1
1, 60217, Note_on_c, 1, 65, 127
1, 60217, Note_on_c, 2, 44, 127
1, 60307, Note_off_c, 1, 61, 1
1, 60308, Note_on_c, 1, 60, 127
1, 60398, Note_off_c, 1, 60, 1
1, 60399, Note_off_c, 2, 44, 1
1, 60399, Note_on_c, 1, 58, 127
1, 60400, Note_on_c, 2, 42, 127
1, 60491, Note_off_c, 1, 58, 1
1, 60491, Note_on_c, 1, 57, 127
1, 60584, Note_off_c, 1, 57, 1
1, 60584, Note_off_c, 2, 42, 1
1, 60585, Note_on_c, 1, 58, 127
1, 60585, Note_on_c, 2, 41, 127
1, 60676, Note_off_c, 1, 65, 1
1, 60676, Note_on_c, 1, 65, 127
1, 60768, Note_off_c, 2, 41, 1
1, 60768, Note_off_c, 1, 65, 1
1, 60769, Note_on_c, 1, 63, 127
1, 60769, Note_on_c, 2, 42, 127
1, 60861, Note_off_c, 1, 58, 1
1, 60862, Note_on_c, 1, 61, 127
1, 60953, Note_off_c, 1, 61, 1
1, 60953, Note_on_c, 1, 60, 127
1, 61044, Note_off_c, 1, 60, 1
1, 61044, Note_on_c, 1, 58, 127
1, 61135, Note_off_c, 1, 58, 1
1, 61136, Note_off_c, 2, 42, 1
1, 61136, Note_off_c, 1, 63, 1
1, 61136, Note_on_c, 1, 57, 127
1, 61137, Note_on_c, 1, 65, 127
1, 61137, Note_on_c, 2, 41, 127
1, 61318, Note_off_c, 2, 41, 1
1, 61318, Note_off_c, 1, 65, 1
1, 61319, Note_off_c, 1, 57, 1
1, 61319, Note_on_c, 1, 53, 127
1, 61502, Note_off_c, 1, 53, 1
1, 61502, Note_on_c, 1, 57, 127
1, 61686, Note_off_c, 1, 57, 1
1, 61687, Note_on_c, 0, 77, 117
1, 61687, Note_on_c, 1, 53, 127
1, 61871, Note_off_c, 1, 53, 1
1, 61871, Note_off_c, 0, 77, 1
1, 61872, Note_on_c, 0, 73, 126
1, 61872, Note_on_c, 1, 58, 127
1, 62053, Note_off_c, 1, 58, 1
1, 62053, Note_off_c, 0, 73, 1
1, 62054, Note_on_c, 0, 77, 117
1, 62054, Note_on_c, 1, 58, 127
1, 62235, Note_off_c, 1, 58, 1
1, 62236, Note_off_c, 0, 77, 1
1, 62236, Note_on_c, 0, 70, 126
1, 62237, Note_on_c, 1, 56, 127
1, 62237, Note_on_c, 1, 62, 127
1, 62417, Note_off_c, 1, 62, 1
1, 62417, Note_off_c, 1, 56, 1
1, 62418, Note_on_c, 1, 58, 127
1, 62597, Note_off_c, 1, 58, 1
1, 62598, Note_off_c, 0, 70, 1
1, 62598, Note_on_c, 1, 55, 127
1, 62599, Note_on_c, 1, 63, 127
1, 62687, Note_off_c, 1, 55, 1
1, 62687, Note_on_c, 1, 53, 127
1, 62777, Note_off_c, 1, 53, 1
1, 62777, Note_off_c, 1, 63, 1
1, 62778, Note_on_c, 0, 82, 117
1, 62778, Note_on_c, 1, 51, 127
1, 62954, Note_off_c, 0, 82, 1
1, 62955, Note_on_c, 0, 79, 117
1, 62955, Note_on_c, 1, 61, 127
1, 63044, Note_off_c, 1, 51, 1
1, 63044, Note_on_c, 1, 53, 127
1, 63132, Note_off_c, 1, 61, 1
1, 63132, Note_off_c, 1, 53, 1
1, 63133, Note_off_c, 0, 79, 1
1, 63133, Note_on_c, 0, 82, 117
1, 63134, Note_on_c, 1, 55, 127
1, 63178, Note_off_c, 1, 55, 1
1, 63178, Note_on_c, 1, 53, 127
1, 63222, Note_off_c, 1, 53, 1
1, 63223, Note_on_c, 1, 51, 127
1, 63312, Note_off_c, 1, 51, 1
1, 63312, Note_off_c, 0, 82, 1
1, 63313, Note_on_c, 0, 75, 126
1, 63313, Note_on_c, 1, 56, 127
1, 63313, Note_on_c, 1, 60, 127
1, 63403, Note_off_c, 1, 56, 1
1, 63404, Note_off_c, 1, 60, 1
1, 63404, Note_on_c, 1, 58, 127
1, 63494, Note_off_c, 1, 58, 1
1, 63495, Note_on_c, 1, 56, 127
1, 63675, Note_off_c, 0, 75, 1
1, 63675, Note_on_c, 0, 77, 117
1, 63765, Note_off_c, 1, 56, 1
1, 63766, Note_on_c, 1, 58, 127
1, 63854, Note_off_c, 1, 58, 1
1, 63855, Note_on_c, 1, 59, 127
1, 63900, Note_off_c, 1, 59, 1
1, 63900, Note_on_c, 1, 58, 127
1, 63944, Note_off_c, 1, 58, 1
1, 63944, Note_on_c, 1, 56, 127
1, 64033, Note_off_c, 1, 56, 1
1, 64033, Note_off_c, 0, 77, 1
1, 64034, Note_on_c, 0, 78, 117
1, 64034, Note_on_c, 1, 58, 127
1, 64123, Note_off_c, 1, 58, 1
1, 64124, Note_off_c, 0, 78, 1
1, 64124, Note_on_c, 0, 80, 117
1, 64125, Note_on_c, 1, 60, 127
1, 64212, Note_off_c, 1, 60, 1
1, 64213, Note_off_c, 0, 80, 1
1, 64213, Note_on_c, 0, 82, 117
1, 64214, Note_on_c, 1, 61, 127
1, 64259, Note_off_c, 1, 61, 1
1, 64259, Note_on_c, 1, 60, 127
1, 64304, Note_off_c, 1, 60, 1
1, 64304, Note_on_c, 1, 58, 127
1, 64395, Note_off_c, 1, 58, 1
1, 64395, Note_on_c, 1, 60, 127
1, 64486, Note_off_c, 1, 60, 1
1, 64487, Note_off_c, 0, 82, 1
1, 64487, Note_on_c, 0, 80, 115
1, 64488, Note_on_c, 1, 61, 127
1, 64576, Note_off_c, 1, 61, 1
1, 64577, Note_off_c, 0, 80, 1
1, 64577, Note_on_c, 0, 78, 115
1, 64578, Note_on_c, 1, 63, 127
1, 64622, Note_off_c, 1, 63, 1
1, 64623, Note_on_c, 1, 61, 127
1, 64667, Note_off_c, 1, 61, 1
1, 64667, Note_off_c, 0, 78, 1
1, 64668, Note_on_c, 0, 80, 115
1, 64668, Note_on_c, 1, 60, 127
1, 64757, Note_off_c, 1, 60, 1
1, 64757, Note_off_c, 0, 80, 1
1, 64758, Note_on_c, 0, 77, 115
1, 64758, Note_on_c, 1, 61, 127
1, 64848, Note_off_c, 0, 77, 1
1, 64848, Note_on_c, 0, 78, 115
1, 64939, Note_off_c, 0, 78, 1
1, 64940, Note_on_c, 0, 80, 115
1, 64940, Note_on_c, 1, 49, 127
1, 65122, Note_off_c, 1, 49, 1
1, 65122, Note_on_c, 1, 53, 127
1, 65212, Note_off_c, 0, 80, 1
1, 65212, Note_on_c, 0, 78, 117
1, 65302, Note_off_c, 0, 78, 1
1, 65303, Note_off_c, 1, 53, 1
1, 65303, Note_on_c, 0, 77, 117
1, 65304, Note_on_c, 1, 49, 127
1, 65391, Note_off_c, 0, 77, 1
1, 65392, Note_on_c, 0, 78, 117
1, 65482, Note_off_c, 0, 78, 1
1, 65482, Note_off_c, 1, 49, 1
1, 65483, Note_on_c, 0, 75, 126
1, 65483, Note_on_c, 1, 56, 127
1, 65573, Note_off_c, 0, 75, 1
1, 65573, Note_on_c, 0, 80, 117
1, 65664, Note_off_c, 0, 80, 1
1, 65664, Note_off_c, 1, 61, 1
1, 65665, Note_on_c, 0, 78, 117
1, 65665, Note_on_c, 1, 61, 127
1, 65756, Note_off_c, 0, 78, 1
1, 65756, Note_on_c, 0, 77, 117
1, 65846, Note_off_c, 1, 61, 1
1, 65846, Note_off_c, 0, 77, 1
1, 65847, Note_on_c, 0, 75, 126
1, 65847, Note_on_c, 1, 60, 127
1, 65935, Note_off_c, 0, 75, 1
1, 65936, Note_on_c, 0, 73, 126
1, 66025, Note_off_c, 0, 73, 1
1, 66026, Note_off_c, 1, 60, 1
1, 66026, Note_on_c, 0, 72, 126
1, 66027, Note_on_c, 1, 65, 127
1, 66071, Note_off_c, 0, 72, 1
1, 66071, Note_on_c, 0, 73, 126
1, 66116, Note_off_c, 0, 73, 1
1, 66116, Note_on_c, 0, 75, 126
1, 66206, Note_off_c, 0, 75, 1
1, 66206, Note_off_c, 1, 65, 1
1, 66207, Note_on_c, 0, 73, 126
1, 66207, Note_on_c, 1, 58, 127
1, 66294, Note_off_c, 0, 73, 1
1, 66295, Note_on_c, 0, 70, 126
1, 66384, Note_off_c, 0, 70, 1
1, 66384, Note_off_c, 1, 56, 1
1, 66384, Note_on_c, 0, 72, 126
1, 66385, Note_on_c, 1, 56, 127
1, 66472, Note_off_c, 0, 72, 1
1, 66472, Note_on_c, 0, 73, 126
1, 66562, Note_off_c, 0, 73, 1
1, 66563, Note_off_c, 1, 56, 1
1, 66563, Note_on_c, 0, 75, 126
1, 66564, Note_on_c, 1, 54, 127
1, 66651, Note_off_c, 0, 75, 1
1, 66652, Note_on_c, 0, 77, 117
1, 66742, Note_off_c, 1, 58, 1
1, 66742, Note_off_c, 0, 77, 1
1, 66743, Note_on_c, 0, 78, 117
1, 66743, Note_on_c, 1, 63, 127
1, 66787, Note_off_c, 0, 78, 1
1, 66787, Note_on_c, 0, 77, 117
1, 66831, Note_off_c, 0, 77, 1
1, 66831, Note_on_c, 0, 75, 126
1, 66920, Note_off_c, 0, 75, 1
1, 66921, Note_off_c, 1, 63, 1
1, 66921, Note_on_c, 0, 73, 126
1, 66922, Note_on_c, 1, 56, 127
1, 67008, Note_off_c, 0, 73, 1
1, 67009, Note_on_c, 0, 72, 126
1, 67097, Note_off_c, 0, 72, 1
1, 67097, Note_off_c, 1, 54, 1
1, 67098, Note_on_c, 0, 70, 126
1, 67098, Note_on_c, 1, 54, 127
1, 67187, Note_off_c, 0, 70, 1
1, 67188, Note_on_c, 0, 68, 126
1, 67280, Note_off_c, 0, 68, 1
1, 67281, Note_off_c, 1, 56, 1
1, 67281, Note_off_c, 1, 54, 1
1, 67282, Note_on_c, 0, 73, 126
1, 67282, Note_on_c, 1, 53, 127
1, 67372, Note_on_c, 0, 68, 126
1, 67462, Note_off_c, 1, 53, 1
1, 67462, Note_off_c, 0, 68, 1
1, 67463, Note_off_c, 0, 73, 1
1, 67463, Note_on_c, 1, 65, 127
1, 67552, Note_off_c, 1, 65, 1
1, 67552, Note_on_c, 0, 68, 126
1, 67643, Note_off_c, 0, 68, 1
1, 67644, Note_on_c, 0, 70, 126
1, 67644, Note_on_c, 1, 61, 127
1, 67733, Note_on_c, 1, 58, 127
1, 67823, Note_off_c, 1, 58, 1
1, 67823, Note_off_c, 1, 61, 1
1, 67824, Note_off_c, 0, 70, 1
1, 67824, Note_on_c, 1, 54, 127
1, 67911, Note_off_c, 1, 54, 1
1, 67911, Note_on_c, 1, 58, 127
1, 67999, Note_off_c, 1, 58, 1
1, 68000, Note_on_c, 0, 78, 117
1, 68000, Note_on_c, 1, 51, 127
1, 68088, Note_on_c, 1, 60, 127
1, 68175, Note_off_c, 1, 60, 1
1, 68176, Note_off_c, 1, 51, 1
1, 68176, Note_off_c, 0, 78, 1
1, 68176, Note_on_c, 1, 56, 127
1, 68264, Note_off_c, 1, 56, 1
1, 68264, Note_on_c, 1, 60, 127
1, 68351, Note_off_c, 1, 60, 1
1, 68352, Note_on_c, 1, 61, 127
1, 68352, Note_on_c, 1, 49, 127
1, 68441, Note_on_c, 0, 78, 117
1, 68532, Note_off_c, 0, 78, 1
1, 68532, Note_off_c, 1, 49, 1
1, 68532, Note_off_c, 1, 61, 1
1, 68532, Note_on_c, 0, 77, 117
1, 68533, Note_on_c, 1, 56, 127
1, 68621, Note_off_c, 0, 77, 1
1, 68621, Note_on_c, 0, 75, 124
1, 68710, Note_off_c, 0, 75, 1
1, 68711, Note_off_c, 1, 56, 1
1, 68711, Note_on_c, 0, 77, 115
1, 68712, Note_on_c, 1, 61, 127
1, 68754, Note_off_c, 0, 77, 1
1, 68755, Note_on_c, 0, 78, 115
1, 68799, Note_off_c, 0, 78, 1
1, 68800, Note_on_c, 0, 80, 115
1, 68800, Note_on_c, 1, 49, 127
1, 68888, Note_off_c, 1, 49, 1
1, 68888, Note_off_c, 0, 80, 1
1, 68889, Note_on_c, 0, 73, 126
1, 68889, Note_on_c, 1, 53, 127
1, 68932, Note_off_c, 0, 73, 1
1, 68932, Note_on_c, 0, 75, 124
1, 68977, Note_off_c, 0, 75, 1
1, 68977, Note_off_c, 1, 53, 1
1, 68978, Note_on_c, 0, 77, 115
1, 68978, Note_on_c, 1, 49, 127
1, 69065, Note_off_c, 1, 49, 1
1, 69066, Note_off_c, 0, 77, 1
1, 69066, Note_on_c, 0, 70, 126
1, 69067, Note_on_c, 1, 54, 127
1, 69155, Note_off_c, 0, 70, 1
1, 69155, Note_on_c, 0, 77, 115
1, 69244, Note_off_c, 0, 77, 1
1, 69244, Note_off_c, 1, 54, 1
1, 69245, Note_off_c, 1, 61, 1
1, 69245, Note_on_c, 0, 75, 124
1, 69246, Note_on_c, 1, 58, 127
1, 69332, Note_off_c, 0, 75, 1
1, 69333, Note_on_c, 0, 73, 126
1, 69420, Note_off_c, 1, 58, 1
1, 69420, Note_off_c, 0, 73, 1
1, 69420, Note_on_c, 0, 75, 124
1, 69421, Note_on_c, 1, 54, 127
1, 69464, Note_off_c, 0, 75, 1
1, 69464, Note_on_c, 0, 77, 115
1, 69508, Note_off_c, 0, 77, 1
1, 69508, Note_on_c, 0, 78, 115
1, 69595, Note_off_c, 0, 78, 1
1, 69596, Note_on_c, 0, 72, 126
1, 69596, Note_on_c, 1, 51, 127
1, 69640, Note_off_c, 0, 72, 1
1, 69640, Note_on_c, 0, 73, 126
1, 69684, Note_off_c, 0, 73, 1
1, 69684, Note_on_c, 0, 75, 124
1, 69771, Note_off_c, 0, 75, 1
1, 69772, Note_off_c, 1, 51, 1
1, 69772, Note_on_c, 0, 68, 126
1, 69773, Note_on_c, 2, 48, 127
1, 69859, Note_off_c, 0, 68, 1
1, 69860, Note_on_c, 0, 75, 124
1, 69947, Note_off_c, 0, 75, 1
1, 69947, Note_off_c, 2, 48, 1
1, 69948, Note_off_c, 1, 54, 1
1, 69948, Note_on_c, 0, 73, 126
1, 69948, Note_on_c, 1, 56, 127
1, 70035, Note_off_c, 0, 73, 1
1, 70036, Note_on_c, 0, 72, 126
1, 70122, Note_off_c, 0, 72, 1
1, 70123, Note_off_c, 1, 56, 1
1, 70123, Note_on_c, 0, 73, 126
1, 70124, Note_on_c, 1, 53, 127
1, 70167, Note_off_c, 0, 73, 1
1, 70167, Note_on_c, 0, 75, 124
1, 70210, Note_off_c, 0, 75, 1
1, 70210, Note_on_c, 0, 77, 115
1, 70298, Note_off_c, 0, 77, 1
1, 70298, Note_off_c, 1, 53, 1
1, 70299, Note_on_c, 0, 68, 126
1, 70299, Note_on_c, 1, 65, 127
1, 70300, Note_on_c, 1, 49, 127
1, 70343, Note_off_c, 0, 68, 1
1, 70343, Note_on_c, 0, 70, 126
1, 70388, Note_off_c, 0, 70, 1
1, 70388, Note_on_c, 0, 71, 126
1, 70476, Note_off_c, 0, 71, 1
1, 70476, Note_off_c, 1, 49, 1
1, 70477, Note_on_c, 0, 70, 126
1, 70477, Note_on_c, 2, 42, 127
1, 70565, Note_off_c, 1, 65, 1
1, 70566, Note_on_c, 1, 61, 127
1, 70654, Note_off_c, 1, 61, 1
1, 70654, Note_off_c, 2, 42, 1
1, 70655, Note_on_c, 1, 63, 127
1, 70655, Note_on_c, 1, 54, 127
1, 70742, Note_off_c, 0, 70, 1
1, 70742, Note_on_c, 1, 66, 127
1, 70830, Note_off_c, 1, 66, 1
1, 70831, Note_off_c, 1, 54, 1
1, 70831, Note_on_c, 0, 68, 126
1, 70831, Note_on_c, 1, 53, 127
1, 70918, Note_off_c, 1, 63, 1
1, 70918, Note_on_c, 1, 60, 127
1, 71006, Note_off_c, 1, 60, 1
1, 71006, Note_off_c, 1, 53, 1
1, 71007, Note_on_c, 1, 61, 127
1, 71007, Note_on_c, 2, 46, 127
1, 71095, Note_off_c, 0, 68, 1
1, 71096, Note_on_c, 1, 65, 127
1, 71185, Note_off_c, 1, 65, 1
1, 71186, Note_off_c, 2, 46, 1
1, 71186, Note_on_c, 1, 51, 127
1, 71187, Note_on_c, 1, 66, 127
1, 71275, Note_off_c, 1, 61, 1
1, 71275, Note_on_c, 1, 58, 127
1, 71364, Note_off_c, 1, 51, 1
1, 71364, Note_off_c, 1, 58, 1
1, 71365, Note_on_c, 1, 60, 127
1, 71365, Note_on_c, 2, 44, 127
1, 71453, Note_off_c, 1, 66, 1
1, 71454, Note_on_c, 1, 63, 127
1, 71543, Note_off_c, 2, 44, 1
1, 71543, Note_off_c, 1, 63, 1
1, 71544, Note_off_c, 1, 60, 1
1, 71544, Note_on_c, 1, 65, 127
1, 71544, Note_on_c, 1, 49, 127
1, 71631, Note_on_c, 1, 61, 127
1, 71720, Note_off_c, 1, 61, 1
1, 71721, Note_off_c, 1, 49, 1
1, 71721, Note_on_c, 1, 56, 127
1, 71722, Note_on_c, 2, 37, 127
1, 71808, Note_off_c, 1, 56, 1
1, 71809, Note_on_c, 1, 59, 127
1, 71898, Note_off_c, 1, 59, 1
1, 71898, Note_off_c, 2, 37, 1
1, 71899, Note_on_c, 1, 58, 127
1, 71899, Note_on_c, 2, 42, 127
1, 71987, Note_off_c, 2, 42, 1
1, 71988, Note_on_c, 1, 49, 127
1, 72076, Note_off_c, 1, 49, 1
1, 72077, Note_on_c, 2, 46, 127
1, 72167, Note_off_c, 2, 46, 1
1, 72167, Note_on_c, 1, 49, 127
1, 72257, Note_off_c, 1, 49, 1
1, 72257, Note_on_c, 1, 54, 127
1, 72346, Note_off_c, 1, 65, 1
1, 72347, Note_on_c, 1, 63, 127
1, 72436, Note_off_c, 1, 63, 1
1, 72436, Note_on_c, 1, 66, 127
1, 72525, Note_off_c, 1, 66, 1
1, 72525, Note_on_c, 1, 63, 127
1, 72614, Note_off_c, 1, 63, 1
1, 72614, Note_off_c, 1, 58, 1
1, 72615, Note_on_c, 1, 60, 127
1, 72701, Note_on_c, 1, 56, 127
1, 72788, Note_off_c, 1, 60, 1
1, 72789, Note_off_c, 1, 54, 1
1, 72789, Note_on_c, 1, 54, 127
1, 72789, Note_on_c, 1, 60, 127
1, 72878, Note_off_c, 1, 60, 1
1, 72879, Note_on_c, 1, 63, 127
1, 72968, Note_off_c, 1, 54, 1
1, 72968, Note_off_c, 1, 63, 1
1, 72969, Note_on_c, 0, 68, 126
1, 72969, Note_on_c, 1, 53, 127
1, 73058, Note_off_c, 1, 56, 1
1, 73058, Note_on_c, 1, 61, 127
1, 73148, Note_off_c, 1, 61, 1
1, 73149, Note_off_c, 1, 53, 1
1, 73149, Note_on_c, 1, 56, 127
1, 73150, Note_on_c, 1, 60, 127
1, 73238, Note_off_c, 0, 68, 1
1, 73239, Note_on_c, 1, 66, 127
1, 73328, Note_off_c, 1, 66, 1
1, 73328, Note_off_c, 1, 60, 1
1, 73329, Note_off_c, 1, 56, 1
1, 73329, Note_on_c, 1, 49, 127
1, 73330, Note_on_c, 1, 65, 127
1, 73417, Note_on_c, 1, 61, 127
1, 73506, Note_off_c, 1, 65, 1
1, 73507, Note_off_c, 1, 49, 1
1, 73507, Note_on_c, 1, 65, 127
1, 73508, Note_on_c, 1, 59, 127
1, 73595, Note_off_c, 1, 65, 1
1, 73595, Note_on_c, 0, 68, 126
1, 73682, Note_off_c, 1, 59, 1
1, 73682, Note_off_c, 0, 68, 1
1, 73683, Note_on_c, 0, 73, 123
1, 73683, Note_on_c, 1, 58, 127
1, 73770, Note_off_c, 1, 61, 1
1, 73771, Note_on_c, 1, 66, 127
1, 73858, Note_off_c, 1, 66, 1
1, 73858, Note_off_c, 1, 58, 1
1, 73859, Note_on_c, 1, 61, 127
1, 73859, Note_on_c, 1, 65, 127
1, 73946, Note_off_c, 0, 73, 1
1, 73946, Note_on_c, 0, 71, 123
1, 74033, Note_off_c, 0, 71, 1
1, 74034, Note_off_c, 1, 65, 1
1, 74034, Note_off_c, 1, 61, 1
1, 74035, Note_on_c, 0, 70, 123
1, 74035, Note_on_c, 1, 54, 127
1, 74121, Note_on_c, 1, 66, 127
1, 74207, Note_off_c, 1, 54, 1
1, 74208, Note_off_c, 0, 70, 1
1, 74208, Note_on_c, 0, 70, 123
1, 74208, Note_on_c, 1, 53, 127
1, 74294, Note_off_c, 0, 70, 1
1, 74295, Note_on_c, 0, 73, 123
1, 74383, Note_off_c, 0, 73, 1
1, 74383, Note_off_c, 1, 53, 1
1, 74384, Note_on_c, 0, 78, 114
1, 74384, Note_on_c, 1, 51, 127
1, 74472, Note_off_c, 1, 66, 1
1, 74472, Note_on_c, 0, 71, 123
1, 74561, Note_off_c, 0, 71, 1
1, 74562, Note_off_c, 1, 51, 1
1, 74562, Note_on_c, 0, 70, 123
1, 74563, Note_on_c, 1, 54, 127
1, 74651, Note_off_c, 0, 70, 1
1, 74652, Note_on_c, 0, 75, 123
1, 74741, Note_off_c, 0, 75, 1
1, 74741, Note_off_c, 1, 54, 1
1, 74742, Note_on_c, 0, 68, 126
1, 74742, Note_on_c, 2, 48, 127
1, 74830, Note_off_c, 0, 78, 1
1, 74831, Note_on_c, 0, 70, 123
1, 74920, Note_off_c, 0, 70, 1
1, 74921, Note_off_c, 2, 48, 1
1, 74921, Note_on_c, 0, 72, 121
1, 74922, Note_on_c, 1, 56, 127
1, 75011, Note_off_c, 0, 72, 1
1, 75011, Note_on_c, 0, 73, 121
1, 75101, Note_off_c, 0, 73, 1
1, 75102, Note_off_c, 1, 56, 1
1, 75102, Note_off_c, 0, 68, 1
1, 75102, Note_on_c, 0, 75, 121
1, 75103, Note_on_c, 1, 60, 127
1, 75191, Note_off_c, 0, 75, 1
1, 75191, Note_on_c, 0, 77, 112
1, 75279, Note_off_c, 0, 77, 1
1, 75279, Note_off_c, 1, 60, 1
1, 75280, Note_on_c, 0, 78, 112
1, 75280, Note_on_c, 1, 56, 127
1, 75323, Note_off_c, 0, 78, 1
1, 75324, Note_on_c, 0, 77, 112
1, 75367, Note_off_c, 0, 77, 1
1, 75367, Note_on_c, 0, 75, 121
1, 75455, Note_off_c, 0, 75, 1
1, 75455, Note_off_c, 1, 56, 1
1, 75456, Note_on_c, 0, 77, 112
1, 75456, Note_on_c, 1, 61, 127
1, 75543, Note_off_c, 0, 77, 1
1, 75543, Note_on_c, 0, 78, 112
1, 75544, Note_on_c, 1, 60, 127
1, 75628, Note_off_c, 1, 60, 1
1, 75629, Note_off_c, 1, 61, 1
1, 75629, Note_off_c, 0, 78, 1
1, 75630, Note_on_c, 0, 77, 112
1, 75630, Note_on_c, 1, 61, 127
1, 75715, Note_off_c, 1, 61, 1
1, 75715, Note_off_c, 0, 77, 1
1, 75716, Note_on_c, 0, 75, 121
1, 75716, Note_on_c, 1, 63, 127
1, 75800, Note_off_c, 1, 63, 1
1, 75801, Note_off_c, 0, 75, 1
1, 75801, Note_on_c, 0, 73, 121
1, 75802, Note_on_c, 1, 58, 127
1, 75802, Note_on_c, 1, 65, 127
1, 75887, Note_off_c, 1, 65, 1
1, 75887, Note_off_c, 0, 73, 1
1, 75888, Note_on_c, 0, 72, 121
1, 75888, Note_on_c, 1, 67, 127
1, 75973, Note_off_c, 1, 67, 1
1, 75973, Note_off_c, 0, 72, 1
1, 75974, Note_off_c, 1, 58, 1
1, 75974, Note_on_c, 0, 70, 123
1, 75975, Note_on_c, 0, 68, 126
1, 76017, Note_off_c, 0, 70, 1
1, 76018, Note_on_c, 0, 72, 121
1, 76061, Note_off_c, 0, 72, 1
1, 76062, Note_off_c, 0, 68, 1
1, 76062, Note_on_c, 0, 73, 121
1, 76063, Note_on_c, 1, 67, 127
1, 76150, Note_off_c, 1, 67, 1
1, 76150, Note_off_c, 0, 73, 1
1, 76151, Note_on_c, 0, 68, 126
1, 76151, Note_on_c, 0, 72, 121
1, 76240, Note_on_c, 1, 56, 127
1, 76330, Note_off_c, 1, 56, 1
1, 76331, Note_off_c, 0, 72, 1
1, 76331, Note_off_c, 0, 68, 1
1, 76332, Note_on_c, 0, 80, 114
1, 76332, Note_on_c, 1, 58, 127
1, 76420, Note_off_c, 1, 58, 1
1, 76421, Note_on_c, 1, 60, 127
1, 76510, Note_off_c, 1, 60, 1
1, 76510, Note_off_c, 0, 80, 1
1, 76511, Note_on_c, 0, 77, 114
1, 76511, Note_on_c, 1, 61, 127
1, 76600, Note_on_c, 1, 63, 127
1, 76690, Note_off_c, 1, 63, 1
1, 76691, Note_off_c, 0, 77, 1
1, 76691, Note_on_c, 0, 80, 112
1, 76692, Note_on_c, 1, 65, 127
1, 76778, Note_off_c, 1, 65, 1
1, 76779, Note_on_c, 1, 61, 127
1, 76868, Note_off_c, 1, 61, 1
1, 76868, Note_off_c, 0, 80, 1
1, 76869, Note_off_c, 1, 61, 1
1, 76869, Note_on_c, 0, 73, 123
1, 76870, Note_on_c, 1, 58, 127
1, 76870, Note_on_c, 1, 65, 127
1, 76956, Note_off_c, 0, 73, 1
1, 76956, Note_on_c, 0, 77, 112
1, 77044, Note_off_c, 0, 77, 1
1, 77045, Note_off_c, 1, 58, 1
1, 77045, Note_on_c, 0, 78, 112
1, 77046, Note_on_c, 1, 58, 127
1, 77132, Note_off_c, 0, 78, 1
1, 77132, Note_on_c, 0, 80, 112
1, 77220, Note_off_c, 0, 80, 1
1, 77220, Note_off_c, 1, 58, 1
1, 77221, Note_off_c, 1, 65, 1
1, 77221, Note_on_c, 0, 82, 112
1, 77222, Note_on_c, 1, 61, 127
1, 77307, Note_off_c, 0, 82, 1
1, 77308, Note_on_c, 0, 84, 112
1, 77395, Note_off_c, 0, 84, 1
1, 77395, Note_on_c, 0, 85, 112
1, 77396, Note_on_c, 1, 58, 127
1, 77484, Note_off_c, 0, 85, 1
1, 77484, Note_on_c, 0, 82, 112
1, 77574, Note_off_c, 1, 61, 1
1, 77574, Note_off_c, 1, 58, 1
1, 77574, Note_off_c, 0, 82, 1
1, 77575, Note_on_c, 0, 78, 114
1, 77575, Note_on_c, 1, 66, 127
1, 77576, Note_on_c, 1, 63, 127
1, 77662, Note_off_c, 0, 78, 1
1, 77662, Note_on_c, 0, 80, 114
1, 77751, Note_off_c, 0, 80, 1
1, 77752, Note_off_c, 1, 63, 1
1, 77752, Note_off_c, 1, 66, 1
1, 77753, Note_on_c, 0, 78, 114
1, 77753, Note_on_c, 1, 51, 127
1, 77840, Note_off_c, 0, 78, 1
1, 77840, Note_on_c, 0, 77, 114
1, 77929, Note_off_c, 0, 77, 1
1, 77929, Note_off_c, 1, 51, 1
1, 77930, Note_on_c, 0, 75, 123
1, 77930, Note_on_c, 2, 48, 127
1, 78018, Note_off_c, 0, 75, 1
1, 78019, Note_on_c, 0, 73, 123
1, 78107, Note_off_c, 0, 73, 1
1, 78107, Note_off_c, 2, 48, 1
1, 78108, Note_on_c, 0, 72, 123
1, 78108, Note_on_c, 1, 51, 127
1, 78108, Note_on_c, 1, 66, 127
1, 78151, Note_off_c, 0, 72, 1
1, 78151, Note_on_c, 0, 73, 123
1, 78196, Note_off_c, 0, 73, 1
1, 78196, Note_on_c, 0, 75, 123
1, 78284, Note_off_c, 0, 75, 1
1, 78285, Note_off_c, 1, 51, 1
1, 78285, Note_on_c, 0, 68, 126
1, 78286, Note_on_c, 1, 53, 127
1, 78372, Note_off_c, 1, 66, 1
1, 78373, Note_on_c, 0, 70, 123
1, 78460, Note_off_c, 0, 70, 1
1, 78460, Note_off_c, 1, 53, 1
1, 78461, Note_off_c, 0, 68, 1
1, 78461, Note_on_c, 0, 68, 126
1, 78462, Note_on_c, 2, 41, 127
1, 78547, Note_on_c, 1, 66, 127
1, 78636, Note_off_c, 1, 66, 1
1, 78636, Note_off_c, 2, 41, 1
1, 78636, Note_on_c, 1, 65, 127
1, 78637, Note_on_c, 2, 37, 127
1, 78723, Note_off_c, 1, 65, 1
1, 78723, Note_on_c, 1, 63, 127
1, 78811, Note_off_c, 1, 63, 1
1, 78812, Note_off_c, 2, 37, 1
1, 78812, Note_on_c, 1, 61, 127
1, 78813, Note_on_c, 2, 41, 127
1, 78855, Note_off_c, 1, 61, 1
1, 78856, Note_on_c, 1, 63, 127
1, 78899, Note_off_c, 1, 63, 1
1, 78899, Note_on_c, 1, 65, 127
1, 78987, Note_off_c, 2, 41, 1
1, 78987, Note_off_c, 1, 65, 1
1, 78988, Note_on_c, 1, 58, 127
1, 78988, Note_on_c, 2, 42, 127
1, 79075, Note_off_c, 0, 68, 1
1, 79076, Note_on_c, 1, 61, 127
1, 79164, Note_off_c, 1, 61, 1
1, 79165, Note_on_c, 1, 63, 127
1, 79255, Note_off_c, 1, 63, 1
1, 79255, Note_on_c, 1, 65, 127
1, 79345, Note_off_c, 1, 65, 1
1, 79346, Note_off_c, 2, 42, 1
1, 79346, Note_off_c, 1, 58, 1
1, 79347, Note_on_c, 1, 51, 127
1, 79347, Note_on_c, 1, 66, 127
1, 79434, Note_off_c, 1, 66, 1
1, 79435, Note_on_c, 0, 68, 126
1, 79523, Note_off_c, 0, 68, 1
1, 79523, Note_on_c, 0, 70, 126
1, 79524, Note_on_c, 1, 63, 127
1, 79610, Note_off_c, 0, 70, 1
1, 79610, Note_on_c, 1, 66, 127
1, 79696, Note_off_c, 1, 66, 1
1, 79697, Note_off_c, 1, 51, 1
1, 79697, Note_on_c, 1, 54, 127
1, 79698, Note_on_c, 1, 63, 127
1, 79698, Note_on_c, 1, 58, 127
1, 79699, Note_off_c, 1, 63, 1
1, 79783, Note_off_c, 1, 63, 1
1, 79783, Note_on_c, 1, 65, 127
1, 79870, Note_off_c, 1, 65, 1
1, 79870, Note_off_c, 1, 58, 1
1, 79870, Note_on_c, 1, 66, 127
1, 79871, Note_on_c, 1, 63, 127
1, 79956, Note_off_c, 1, 66, 1
1, 79956, Note_on_c, 0, 68, 126
1, 80045, Note_off_c, 0, 68, 1
1, 80046, Note_off_c, 1, 54, 1
1, 80046, Note_off_c, 1, 63, 1
1, 80047, Note_on_c, 0, 70, 126
1, 80047, Note_on_c, 1, 54, 127
1, 80047, Note_on_c, 1, 51, 127
1, 80134, Note_off_c, 0, 70, 1
1, 80134, Note_on_c, 0, 72, 126
1, 80222, Note_off_c, 1, 54, 1
1, 80222, Note_off_c, 0, 72, 1
1, 80223, Note_on_c, 0, 73, 126
1, 80223, Note_on_c, 1, 66, 127
1, 80266, Note_off_c, 0, 73, 1
1, 80267, Note_on_c, 0, 72, 126
1, 80309, Note_off_c, 0, 72, 1
1, 80310, Note_on_c, 0, 70, 126
1, 80398, Note_off_c, 0, 70, 1
1, 80398, Note_off_c, 1, 51, 1
1, 80399, Note_on_c, 0, 72, 126
1, 80399, Note_on_c, 1, 56, 127
1, 80485, Note_off_c, 1, 66, 1
1, 80485, Note_on_c, 0, 68, 126
1, 80574, Note_off_c, 0, 68, 1
1, 80575, Note_off_c, 0, 72, 1
1, 80575, Note_on_c, 0, 75, 126
1, 80576, Note_on_c, 1, 66, 127
1, 80663, Note_off_c, 1, 66, 1
1, 80663, Note_off_c, 0, 75, 1
1, 80664, Note_on_c, 0, 73, 126
1, 80664, Note_on_c, 1, 64, 127
1, 80749, Note_off_c, 1, 64, 1
1, 80749, Note_off_c, 0, 73, 1
1, 80750, Note_on_c, 0, 72, 126
1, 80750, Note_on_c, 1, 63, 127
1, 80836, Note_off_c, 1, 63, 1
1, 80837, Note_on_c, 1, 61, 127
1, 80924, Note_off_c, 1, 61, 1
1, 80924, Note_off_c, 0, 72, 1
1, 80925, Note_on_c, 0, 75, 126
1, 80925, Note_on_c, 1, 60, 127
1, 80967, Note_off_c, 1, 60, 1
1, 80967, Note_on_c, 1, 61, 127
1, 81011, Note_off_c, 1, 61, 1
1, 81012, Note_on_c, 1, 63, 127
1, 81099, Note_off_c, 1, 63, 1
1, 81100, Note_off_c, 0, 75, 1
1, 81100, Note_on_c, 0, 68, 126
1, 81101, Note_on_c, 1, 64, 127
1, 81187, Note_off_c, 1, 64, 1
1, 81187, Note_on_c, 1, 66, 127
1, 81274, Note_off_c, 1, 66, 1
1, 81275, Note_off_c, 0, 68, 1
1, 81275, Note_on_c, 0, 73, 126
1, 81276, Note_on_c, 1, 64, 127
1, 81360, Note_off_c, 1, 64, 1
1, 81361, Note_on_c, 1, 63, 127
1, 81447, Note_off_c, 1, 63, 1
1, 81447, Note_off_c, 0, 73, 1
1, 81448, Note_on_c, 0, 76, 117
1, 81448, Note_on_c, 1, 61, 127
1, 81535, Note_off_c, 1, 61, 1
1, 81536, Note_on_c, 1, 60, 127
1, 81623, Note_off_c, 1, 60, 1
1, 81623, Note_off_c, 0, 76, 1
1, 81624, Note_on_c, 0, 73, 126
1, 81624, Note_on_c, 1, 58, 127
1, 81668, Note_off_c, 1, 58, 1
1, 81668, Note_on_c, 1, 60, 127
1, 81713, Note_off_c, 1, 60, 1
1, 81713, Note_on_c, 1, 61, 127
1, 81803, Note_off_c, 1, 61, 1
1, 81804, Note_off_c, 0, 73, 1
1, 81804, Note_on_c, 0, 78, 115
1, 81804, Note_on_c, 1, 60, 127
1, 81891, Note_off_c, 0, 78, 1
1, 81892, Note_on_c, 0, 81, 115
1, 81981, Note_off_c, 0, 81, 1
1, 81981, Note_off_c, 1, 60, 1
1, 81982, Note_on_c, 0, 80, 115
1, 81982, Note_on_c, 1, 63, 127
1, 82069, Note_off_c, 0, 80, 1
1, 82069, Note_on_c, 0, 78, 115
1, 82158, Note_off_c, 1, 63, 1
1, 82158, Note_off_c, 0, 78, 1
1, 82159, Note_on_c, 0, 76, 115
1, 82159, Note_on_c, 1, 61, 127
1, 82246, Note_off_c, 0, 76, 1
1, 82247, Note_on_c, 0, 75, 124
1, 82333, Note_off_c, 1, 61, 1
1, 82333, Note_off_c, 0, 75, 1
1, 82334, Note_on_c, 0, 73, 124
1, 82334, Note_on_c, 1, 64, 127
1, 82378, Note_off_c, 0, 73, 1
1, 82378, Note_on_c, 0, 75, 124
1, 82422, Note_off_c, 0, 75, 1
1, 82422, Note_on_c, 0, 76, 115
1, 82507, Note_off_c, 0, 76, 1
1, 82508, Note_off_c, 1, 64, 1
1, 82508, Note_on_c, 1, 67, 127
1, 82509, Note_on_c, 1, 58, 127
1, 82594, Note_off_c, 1, 67, 1
1, 82594, Note_on_c, 0, 68, 126
1, 82680, Note_off_c, 0, 68, 1
1, 82680, Note_off_c, 1, 58, 1
1, 82681, Note_on_c, 0, 70, 126
1, 82681, Note_on_c, 1, 61, 127
1, 82766, Note_off_c, 0, 70, 1
1, 82767, Note_on_c, 0, 72, 126
1, 82852, Note_off_c, 0, 72, 1
1, 82852, Note_on_c, 0, 73, 126
1, 82853, Note_on_c, 1, 64, 127
1, 82938, Note_off_c, 0, 73, 1
1, 82939, Note_on_c, 0, 75, 126
1, 83026, Note_off_c, 0, 75, 1
1, 83026, Note_on_c, 0, 76, 117
1, 83027, Note_on_c, 1, 67, 127
1, 83069, Note_off_c, 0, 76, 1
1, 83069, Note_on_c, 0, 75, 126
1, 83114, Note_off_c, 0, 75, 1
1, 83114, Note_on_c, 0, 73, 126
1, 83202, Note_off_c, 0, 73, 1
1, 83203, Note_off_c, 1, 64, 1
1, 83203, Note_off_c, 1, 67, 1
1, 83204, Note_off_c, 1, 61, 1
1, 83204, Note_on_c, 0, 68, 126
1, 83205, Note_on_c, 0, 72, 126
1, 83205, Note_on_c, 1, 63, 127
1, 83292, Note_off_c, 1, 56, 1
1, 83292, Note_on_c, 1, 58, 127
1, 83382, Note_off_c, 1, 58, 1
1, 83382, Note_off_c, 1, 63, 1
1, 83383, Note_off_c, 0, 68, 1
1, 83383, Note_off_c, 0, 72, 1
1, 83384, Note_on_c, 0, 75, 126
1, 83384, Note_on_c, 1, 56, 127
1, 83471, Note_off_c, 1, 56, 1
1, 83472, Note_on_c, 1, 54, 127
1, 83559, Note_off_c, 1, 54, 1
1, 83560, Note_off_c, 0, 75, 1
1, 83560, Note_on_c, 0, 80, 111
1, 83561, Note_on_c, 1, 53, 127
1, 83648, Note_off_c, 1, 53, 1
1, 83648, Note_on_c, 1, 51, 127
1, 83735, Note_off_c, 1, 51, 1
1, 83736, Note_on_c, 0, 77, 111
1, 83736, Note_on_c, 1, 50, 127
1, 83779, Note_off_c, 1, 50, 1
1, 83780, Note_on_c, 1, 51, 127
1, 83822, Note_off_c, 1, 51, 1
1, 83823, Note_on_c, 1, 53, 127
1, 83909, Note_off_c, 1, 53, 1
1, 83909, Note_off_c, 0, 77, 1
1, 83910, Note_on_c, 0, 74, 120
1, 83910, Note_on_c, 2, 46, 127
1, 83996, Note_off_c, 2, 46, 1
1, 83997, Note_on_c, 1, 58, 127
1, 84084, Note_off_c, 1, 58, 1
1, 84084, Note_off_c, 0, 74, 1
1, 84084, Note_on_c, 0, 77, 111
1, 84085, Note_on_c, 1, 60, 127
1, 84172, Note_off_c, 1, 60, 1
1, 84172, Note_on_c, 1, 62, 127
1, 84262, Note_off_c, 1, 62, 1
1, 84263, Note_off_c, 0, 80, 1
1, 84263, Note_off_c, 0, 77, 1
1, 84264, Note_on_c, 0, 78, 111
1, 84264, Note_on_c, 0, 70, 126
1, 84264, Note_on_c, 1, 63, 127
1, 84352, Note_off_c, 1, 63, 1
1, 84353, Note_on_c, 1, 65, 127
1, 84441, Note_off_c, 1, 65, 1
1, 84441, Note_off_c, 0, 70, 1
1, 84442, Note_on_c, 0, 75, 120
1, 84442, Note_on_c, 1, 66, 127
1, 84485, Note_off_c, 1, 66, 1
1, 84485, Note_on_c, 1, 65, 127
1, 84530, Note_off_c, 1, 65, 1
1, 84530, Note_on_c, 1, 63, 127
1, 84619, Note_off_c, 1, 63, 1
1, 84619, Note_off_c, 0, 75, 1
1, 84620, Note_on_c, 0, 72, 126
1, 84620, Note_on_c, 0, 68, 126
1, 84707, Note_off_c, 0, 68, 1
1, 84708, Note_on_c, 1, 66, 127
1, 84794, Note_off_c, 1, 66, 1
1, 84795, Note_off_c, 0, 72, 1
1, 84795, Note_on_c, 0, 75, 120
1, 84796, Note_on_c, 1, 65, 127
1, 84883, Note_off_c, 1, 65, 1
1, 84883, Note_on_c, 1, 63, 127
1, 84970, Note_off_c, 1, 63, 1
1, 84971, Note_off_c, 0, 78, 1
1, 84971, Note_off_c, 0, 75, 1
1, 84972, Note_on_c, 0, 77, 111
1, 84972, Note_on_c, 0, 68, 126
1, 84972, Note_on_c, 1, 61, 127
1, 85058, Note_off_c, 1, 61, 1
1, 85059, Note_on_c, 1, 59, 127
1, 85146, Note_off_c, 1, 59, 1
1, 85146, Note_off_c, 0, 68, 1
1, 85147, Note_on_c, 0, 73, 120
1, 85147, Note_on_c, 1, 58, 127
1, 85190, Note_off_c, 1, 58, 1
1, 85190, Note_on_c, 1, 59, 127
1, 85234, Note_off_c, 1, 59, 1
1, 85235, Note_on_c, 1, 61, 127
1, 85323, Note_off_c, 1, 61, 1
1, 85324, Note_off_c, 0, 73, 1
1, 85324, Note_on_c, 0, 70, 126
1, 85325, Note_on_c, 1, 54, 127
1, 85412, Note_off_c, 0, 70, 1
1, 85412, Note_on_c, 0, 73, 120
1, 85500, Note_off_c, 1, 54, 1
1, 85500, Note_off_c, 0, 73, 1
1, 85501, Note_on_c, 1, 66, 127
1, 85501, Note_on_c, 2, 39, 127
1, 85544, Note_off_c, 0, 77, 1
1, 85545, Note_on_c, 0, 75, 126
1, 85587, Note_off_c, 0, 75, 1
1, 85588, Note_on_c, 0, 73, 126
1, 85631, Note_off_c, 0, 73, 1
1, 85631, Note_on_c, 0, 71, 126
1, 85673, Note_off_c, 0, 71, 1
1, 85673, Note_off_c, 2, 39, 1
1, 85674, Note_off_c, 1, 66, 1
1, 85674, Note_on_c, 0, 70, 126
1, 85675, Note_on_c, 2, 42, 127
1, 85715, Note_off_c, 0, 70, 1
1, 85716, Note_on_c, 0, 68, 126
1, 85758, Note_off_c, 0, 68, 1
1, 85759, Note_on_c, 1, 66, 127
1, 85802, Note_off_c, 1, 66, 1
1, 85803, Note_on_c, 1, 65, 127
1, 85846, Note_off_c, 1, 65, 1
1, 85846, Note_off_c, 2, 42, 1
1, 85847, Note_on_c, 1, 66, 127
1, 85847, Note_on_c, 2, 39, 127
1, 85890, Note_on_c, 1, 65, 127
1, 85933, Note_off_c, 1, 65, 1
1, 85933, Note_on_c, 1, 63, 127
1, 85977, Note_off_c, 1, 63, 1
1, 85978, Note_on_c, 1, 61, 127
1, 86021, Note_off_c, 1, 61, 1
1, 86022, Note_off_c, 2, 39, 1
1, 86022, Note_on_c, 1, 60, 127
1, 86023, Note_on_c, 2, 44, 127
1, 86111, Note_off_c, 1, 60, 1
1, 86111, Note_on_c, 1, 63, 127
1, 86200, Note_on_c, 1, 56, 127
1, 86244, Note_on_c, 1, 54, 127
1, 86289, Note_off_c, 1, 54, 1
1, 86290, Note_on_c, 1, 53, 127
1, 86333, Note_off_c, 1, 53, 1
1, 86334, Note_on_c, 1, 51, 127
1, 86377, Note_off_c, 1, 51, 1
1, 86378, Note_on_c, 1, 53, 127
1, 86423, Note_off_c, 1, 53, 1
1, 86423, Note_on_c, 1, 51, 127
1, 86467, Note_off_c, 1, 51, 1
1, 86467, Note_on_c, 1, 49, 127
1, 86512, Note_off_c, 1, 49, 1
1, 86512, Note_on_c, 2, 48, 127
1, 86557, Note_off_c, 2, 48, 1
1, 86557, Note_off_c, 1, 63, 1
1, 86558, Note_off_c, 1, 66, 1
1, 86558, Note_on_c, 1, 49, 127
1, 86559, Note_on_c, 1, 61, 127
1, 86559, Note_on_c, 1, 65, 127
1, 86602, Note_off_c, 2, 44, 1
1, 86603, Note_on_c, 2, 46, 127
1, 86647, Note_off_c, 2, 46, 1
1, 86648, Note_on_c, 2, 44, 127
1, 86692, Note_off_c, 2, 44, 1
1, 86693, Note_on_c, 2, 43, 127
1, 86737, Note_off_c, 2, 43, 1
1, 86738, Note_off_c, 1, 56, 1
1, 86738, Note_off_c, 1, 49, 1
1, 86739, Note_on_c, 2, 44, 127
1, 86783, Note_off_c, 1, 65, 1
1, 86784, Note_on_c, 1, 65, 127
1, 86828, Note_off_c, 1, 65, 1
1, 86828, Note_on_c, 1, 63, 127
1, 86874, Note_off_c, 1, 63, 1
1, 86874, Note_on_c, 1, 61, 127
1, 86919, Note_off_c, 1, 61, 1
1, 86920, Note_on_c, 1, 63, 127
1, 86920, Note_on_c, 1, 55, 127
1, 86965, Note_off_c, 1, 61, 1
1, 86966, Note_on_c, 1, 61, 127
1, 87010, Note_off_c, 1, 61, 1
1, 87011, Note_on_c, 1, 60, 127
1, 87057, Note_off_c, 1, 60, 1
1, 87057, Note_on_c, 1, 58, 127
1, 87102, Note_off_c, 1, 58, 1
1, 87102, Note_off_c, 1, 55, 1
1, 87103, Note_on_c, 1, 60, 127
1, 87103, Note_on_c, 1, 56, 127
1, 87147, Note_off_c, 2, 44, 1
1, 87147, Note_on_c, 2, 46, 127
1, 87192, Note_off_c, 2, 46, 1
1, 87192, Note_on_c, 2, 48, 127
1, 87236, Note_off_c, 2, 48, 1
1, 87237, Note_on_c, 1, 49, 127
1, 87281, Note_off_c, 1, 49, 1
1, 87282, Note_on_c, 1, 51, 127
1, 87326, Note_off_c, 1, 51, 1
1, 87327, Note_on_c, 1, 53, 127
1, 87371, Note_off_c, 1, 53, 1
1, 87371, Note_on_c, 1, 54, 127
1, 87415, Note_off_c, 1, 54, 1
1, 87415, Note_on_c, 1, 51, 127
1, 87460, Note_off_c, 1, 51, 1
1, 87460, Note_off_c, 1, 60, 1
1, 87461, Note_off_c, 1, 56, 1
1, 87461, Note_on_c, 1, 59, 127
1, 87462, Note_on_c, 1, 53, 127
1, 87549, Note_off_c, 1, 59, 1
1, 87550, Note_on_c, 1, 56, 127
1, 87639, Note_off_c, 1, 53, 1
1, 87640, Note_off_c, 1, 63, 1
1, 87640, Note_on_c, 1, 52, 127
1, 87641, Note_on_c, 1, 61, 127
1, 87730, Note_off_c, 1, 56, 1
1, 87730, Note_on_c, 1, 55, 127
1, 87821, Note_off_c, 1, 55, 1
1, 87821, Note_off_c, 1, 52, 1
1, 87822, Note_on_c, 1, 51, 127
1, 87822, Note_on_c, 1, 56, 127
1, 87823, Note_on_c, 2, 44, 127
1, 87912, Note_off_c, 1, 61, 1
1, 87912, Note_on_c, 1, 61, 127
1, 88004, Note_off_c, 1, 61, 1
1, 88005, Note_on_c, 1, 60, 127
1, 88096, Note_off_c, 1, 56, 1
1, 88097, Note_on_c, 1, 54, 127
1, 88188, Note_off_c, 2, 44, 1
1, 88188, Note_off_c, 1, 60, 1
1, 88188, Note_off_c, 1, 51, 1
1, 88189, Note_on_c, 1, 49, 127
1, 88189, Note_on_c, 1, 61, 127
1, 88190, Note_on_c, 2, 37, 127
1, 88279, Note_off_c, 1, 54, 1
1, 88279, Note_on_c, 1, 54, 127
1, 88369, Note_off_c, 1, 54, 1
1, 88369, Note_on_c, 1, 53, 127
1, 88459, Note_off_c, 1, 53, 1
1, 88460, Note_on_c, 1, 51, 127
1, 88550, Note_off_c, 1, 51, 1
1, 88550, Note_on_c, 1, 53, 127
1, 88639, Note_off_c, 1, 61, 1
1, 88639, Note_on_c, 1, 56, 127
1, 88726, Note_off_c, 1, 56, 1
1, 88727, Note_on_c, 1, 59, 127
1, 88814, Note_off_c, 1, 59, 1
1, 88815, Note_on_c, 1, 56, 127
1, 88903, Note_off_c, 1, 56, 1
1, 88903, Note_on_c, 1, 58, 127
1, 88995, Note_off_c, 1, 53, 1
1, 88995, Note_on_c, 1, 56, 127
1, 89087, Note_off_c, 1, 56, 1
1, 89088, Note_on_c, 1, 54, 127
1, 89178, Note_off_c, 1, 54, 1
1, 89179, Note_on_c, 1, 53, 127
1, 89270, Note_off_c, 1, 53, 1
1, 89270, Note_on_c, 1, 54, 127
1, 89361, Note_off_c, 1, 58, 1
1, 89362, Note_on_c, 1, 58, 127
1, 89451, Note_off_c, 1, 58, 1
1, 89451, Note_on_c, 1, 61, 127
1, 89542, Note_off_c, 1, 61, 1
1, 89542, Note_on_c, 1, 58, 127
1, 89631, Note_off_c, 1, 58, 1
1, 89631, Note_on_c, 1, 63, 127
1, 89721, Note_off_c, 1, 49, 1
1, 89722, Note_on_c, 1, 49, 127
1, 89813, Note_off_c, 1, 49, 1
1, 89814, Note_on_c, 2, 48, 127
1, 89905, Note_off_c, 2, 48, 1
1, 89906, Note_on_c, 2, 46, 127
1, 89999, Note_off_c, 2, 46, 1
1, 89999, Note_off_c, 1, 54, 1
1, 90000, Note_on_c, 2, 48, 127
1, 90091, Note_off_c, 1, 63, 1
1, 90091, Note_on_c, 1, 65, 127
1, 90185, Note_off_c, 1, 65, 1
1, 90186, Note_on_c, 1, 66, 127
1, 90282, Note_on_c, 1, 56, 127
1, 90378, Note_off_c, 1, 56, 1
1, 90378, Note_off_c, 2, 48, 1
1, 90379, Note_on_c, 1, 49, 127
1, 90379, Note_on_c, 1, 58, 127
1, 90474, Note_off_c, 1, 66, 1
1, 90474, Note_on_c, 1, 65, 127
1, 90570, Note_off_c, 1, 65, 1
1, 90570, Note_on_c, 1, 63, 127
1, 90667, Note_off_c, 1, 63, 1
1, 90667, Note_on_c, 1, 66, 127
1, 90766, Note_off_c, 1, 58, 1
1, 90766, Note_off_c, 1, 49, 1
1, 90767, Note_on_c, 1, 60, 127
1, 90767, Note_on_c, 1, 51, 127
1, 90864, Note_off_c, 1, 66, 1
1, 90865, Note_on_c, 0, 70, 126
1, 90969, Note_off_c, 0, 70, 1
1, 90970, Note_on_c, 0, 68, 126
1, 91078, Note_off_c, 0, 68, 1
1, 91078, Note_on_c, 1, 66, 127
1, 91204, Note_off_c, 1, 66, 1
1, 91205, Note_off_c, 1, 51, 1
1, 91205, Note_off_c, 1, 60, 1
1, 91210, Note_on_c, 1, 61, 116
1, 91210, Note_on_c, 1, 65, 115
1, 91211, Note_on_c, 1, 49, 113
1, 91211, Note_on_c, 1, 56, 114
1, 93539, Note_off_c, 2, 37, 1
1, 93543, Note_off_c, 1, 56, 1
1, 93544, Note_off_c, 1, 65, 1
1, 93544, Note_off_c, 1, 61, 1
1, 93544, Note_off_c, 1, 49, 1
1, 93544, End_track
0, 0, End_of_file