0, 0, Header, 1, 4, 120
1, 0, Start_track
1, 0, Time_signature, 4, 2, 24, 8
1, 0, Key_signature, 1, "major"
1, 0, Tempo, 750000
1, 10090, Tempo, 739098
1, 10200, Tempo, 743679
1, 10310, Tempo, 748316
1, 10395, Tempo, 743679
1, 10450, Tempo, 753012
1, 10460, Tempo, 757767
1, 10470, Tempo, 762583
1, 10480, Tempo, 767460
1, 10490, Tempo, 772400
1, 10500, Tempo, 777403
1, 10510, Tempo, 782473
1, 10520, Tempo, 787608
1, 10530, Tempo, 792812
1, 10540, Tempo, 798085
1, 10550, Tempo, 803428
1, 10560, Tempo, 808843
1, 10565, Tempo, 814332
1, 10575, Tempo, 819896
1, 10585, Tempo, 825537
1, 10595, Tempo, 831255
1, 10605, Tempo, 837054
1, 10615, Tempo, 842933
1, 10625, Tempo, 848896
1, 10635, Tempo, 854944
1, 10645, Tempo, 861079
1, 10655, Tempo, 867303
1, 10665, Tempo, 873617
1, 10675, Tempo, 880023
1, 10680, Tempo, 886525
1, 10690, Tempo, 893123
1, 10700, Tempo, 899820
1, 10710, Tempo, 906618
1, 10720, Tempo, 913520
1, 10730, Tempo, 920528
1, 10740, Tempo, 927644
1, 10750, Tempo, 934871
1, 10760, Tempo, 942211
1, 10770, Tempo, 949668
1, 10780, Tempo, 957243
1, 10790, Tempo, 964940
1, 10800, Tempo, 972763
1, 10805, Tempo, 980713
1, 10815, Tempo, 988794
1, 10825, Tempo, 997009
1, 10835, Tempo, 1005362
1, 10845, Tempo, 1013856
1, 10855, Tempo, 1022495
1, 10865, Tempo, 1031282
1, 10875, Tempo, 1040222
1, 10885, Tempo, 1049318
1, 10895, Tempo, 1058574
1, 10905, Tempo, 1067996
1, 10915, Tempo, 1077586
1, 10920, Tempo, 1087350
1, 10930, Tempo, 1097293
1, 10940, Tempo, 1107420
1, 10950, Tempo, 1117735
1, 10960, Tempo, 1128244
1, 10970, Tempo, 1138952
1, 10980, Tempo, 1149866
1, 10990, Tempo, 1160991
1, 11000, Tempo, 1172333
1, 11010, Tempo, 1183899
1, 11020, Tempo, 1195695
1, 11030, Tempo, 1207729
1, 11035, Tempo, 1220008
1, 11040, Tempo, 1200000
1, 11060, Tempo, 1363636
1, 11100, Tempo, 1348315
1, 11100, End_track
2, 0, Start_track
2, 0, MIDI_port, 0
2, 0, Title_t, "FLUTE"
2, 0, Program_c, 0, 0
2, 0, Control_c, 0, 7, 100
2, 0, Control_c, 0, 7, 109
2, 60, Note_on_c, 0, 71, 64
2, 90, Note_on_c, 0, 71, 0
2, 90, Note_on_c, 0, 69, 64
2, 120, Note_on_c, 0, 69, 0
2, 120, Note_on_c, 0, 67, 64
2, 150, Note_on_c, 0, 67, 0
2, 150, Note_on_c, 0, 66, 64
2, 180, Note_on_c, 0, 66, 0
2, 180, Note_on_c, 0, 67, 64
2, 210, Note_on_c, 0, 67, 0
2, 210, Note_on_c, 0, 64, 64
2, 240, Note_on_c, 0, 64, 0
2, 240, Note_on_c, 0, 71, 64
2, 255, Note_on_c, 0, 71, 0
2, 255, Note_on_c, 0, 69, 64
2, 270, Note_on_c, 0, 69, 0
2, 270, Note_on_c, 0, 71, 64
2, 300, Note_on_c, 0, 71, 0
2, 300, Note_on_c, 0, 71, 64
2, 360, Note_on_c, 0, 71, 0
2, 360, Note_on_c, 0, 76, 64
2, 375, Note_on_c, 0, 76, 0
2, 375, Note_on_c, 0, 74, 64
2, 390, Note_on_c, 0, 74, 0
2, 390, Note_on_c, 0, 76, 64
2, 450, Note_on_c, 0, 76, 0
2, 450, Note_on_c, 0, 78, 64
2, 480, Note_on_c, 0, 78, 0
2, 480, Note_on_c, 0, 75, 64
2, 495, Note_on_c, 0, 75, 0
2, 495, Note_on_c, 0, 76, 64
2, 510, Note_on_c, 0, 76, 0
2, 510, Note_on_c, 0, 75, 64
2, 540, Note_on_c, 0, 75, 0
2, 540, Note_on_c, 0, 78, 64
2, 570, Note_on_c, 0, 78, 0
2, 570, Note_on_c, 0, 76, 64
2, 600, Note_on_c, 0, 76, 0
2, 600, Note_on_c, 0, 75, 64
2, 630, Note_on_c, 0, 75, 0
2, 630, Note_on_c, 0, 73, 64
2, 660, Note_on_c, 0, 73, 0
2, 660, Note_on_c, 0, 75, 64
2, 690, Note_on_c, 0, 75, 0
2, 690, Note_on_c, 0, 71, 64
2, 720, Note_on_c, 0, 71, 0
2, 720, Note_on_c, 0, 83, 64
2, 780, Note_on_c, 0, 83, 0
2, 780, Note_on_c, 0, 81, 64
2, 810, Note_on_c, 0, 81, 0
2, 810, Note_on_c, 0, 79, 64
2, 840, Note_on_c, 0, 79, 0
2, 840, Note_on_c, 0, 78, 64
2, 855, Note_on_c, 0, 78, 0
2, 855, Note_on_c, 0, 79, 64
2, 870, Note_on_c, 0, 79, 0
2, 870, Note_on_c, 0, 78, 64
2, 885, Note_on_c, 0, 78, 0
2, 885, Note_on_c, 0, 79, 64
2, 900, Note_on_c, 0, 79, 0
2, 900, Note_on_c, 0, 78, 64
2, 915, Note_on_c, 0, 78, 0
2, 915, Note_on_c, 0, 79, 64
2, 930, Note_on_c, 0, 79, 0
2, 930, Note_on_c, 0, 76, 64
2, 945, Note_on_c, 0, 76, 0
2, 945, Note_on_c, 0, 78, 64
2, 960, Note_on_c, 0, 78, 0
2, 960, Note_on_c, 0, 79, 64
2, 1020, Note_on_c, 0, 79, 0
2, 1020, Note_on_c, 0, 83, 64
2, 1050, Note_on_c, 0, 83, 0
2, 1050, Note_on_c, 0, 81, 64
2, 1080, Note_on_c, 0, 81, 0
2, 1080, Note_on_c, 0, 79, 64
2, 1110, Note_on_c, 0, 79, 0
2, 1110, Note_on_c, 0, 78, 64
2, 1140, Note_on_c, 0, 78, 0
2, 1140, Note_on_c, 0, 79, 64
2, 1170, Note_on_c, 0, 79, 0
2, 1170, Note_on_c, 0, 76, 64
2, 1200, Note_on_c, 0, 76, 0
2, 1200, Note_on_c, 0, 84, 64
2, 1290, Note_on_c, 0, 84, 0
2, 1290, Note_on_c, 0, 83, 64
2, 1320, Note_on_c, 0, 83, 0
2, 1320, Note_on_c, 0, 81, 64
2, 1350, Note_on_c, 0, 81, 0
2, 1350, Note_on_c, 0, 79, 64
2, 1380, Note_on_c, 0, 79, 0
2, 1380, Note_on_c, 0, 78, 64
2, 1410, Note_on_c, 0, 78, 0
2, 1410, Note_on_c, 0, 76, 64
2, 1440, Note_on_c, 0, 76, 0
2, 1440, Note_on_c, 0, 78, 64
2, 1500, Note_on_c, 0, 78, 0
2, 1500, Note_on_c, 0, 81, 64
2, 1530, Note_on_c, 0, 81, 0
2, 1530, Note_on_c, 0, 79, 64
2, 1560, Note_on_c, 0, 79, 0
2, 1560, Note_on_c, 0, 78, 64
2, 1590, Note_on_c, 0, 78, 0
2, 1590, Note_on_c, 0, 76, 64
2, 1620, Note_on_c, 0, 76, 0
2, 1620, Note_on_c, 0, 78, 64
2, 1650, Note_on_c, 0, 78, 0
2, 1650, Note_on_c, 0, 74, 64
2, 1680, Note_on_c, 0, 74, 0
2, 1680, Note_on_c, 0, 83, 64
2, 1770, Note_on_c, 0, 83, 0
2, 1770, Note_on_c, 0, 81, 64
2, 1800, Note_on_c, 0, 81, 0
2, 1800, Note_on_c, 0, 79, 64
2, 1830, Note_on_c, 0, 79, 0
2, 1830, Note_on_c, 0, 78, 64
2, 1860, Note_on_c, 0, 78, 0
2, 1860, Note_on_c, 0, 76, 64
2, 1890, Note_on_c, 0, 76, 0
2, 1890, Note_on_c, 0, 74, 64
2, 1920, Note_on_c, 0, 74, 0
2, 1920, Note_on_c, 0, 76, 64
2, 1950, Note_on_c, 0, 76, 0
2, 1950, Note_on_c, 0, 78, 64
2, 1980, Note_on_c, 0, 78, 0
2, 1980, Note_on_c, 0, 76, 64
2, 2010, Note_on_c, 0, 76, 0
2, 2010, Note_on_c, 0, 74, 64
2, 2040, Note_on_c, 0, 74, 0
2, 2040, Note_on_c, 0, 72, 64
2, 2070, Note_on_c, 0, 72, 0
2, 2070, Note_on_c, 0, 71, 64
2, 2100, Note_on_c, 0, 71, 0
2, 2100, Note_on_c, 0, 69, 64
2, 2130, Note_on_c, 0, 69, 0
2, 2130, Note_on_c, 0, 67, 64
2, 2160, Note_on_c, 0, 67, 0
2, 2160, Note_on_c, 0, 72, 64
2, 2190, Note_on_c, 0, 72, 0
2, 2190, Note_on_c, 0, 71, 64
2, 2220, Note_on_c, 0, 71, 0
2, 2220, Note_on_c, 0, 69, 64
2, 2250, Note_on_c, 0, 69, 0
2, 2250, Note_on_c, 0, 71, 64
2, 2280, Note_on_c, 0, 71, 0
2, 2280, Note_on_c, 0, 72, 64
2, 2310, Note_on_c, 0, 72, 0
2, 2310, Note_on_c, 0, 74, 64
2, 2340, Note_on_c, 0, 74, 0
2, 2340, Note_on_c, 0, 76, 64
2, 2370, Note_on_c, 0, 76, 0
2, 2370, Note_on_c, 0, 78, 64
2, 2400, Note_on_c, 0, 78, 0
2, 2400, Note_on_c, 0, 79, 64
2, 2430, Note_on_c, 0, 79, 0
2, 2430, Note_on_c, 0, 78, 64
2, 2460, Note_on_c, 0, 78, 0
2, 2463, Note_on_c, 0, 76, 64
2, 2490, Note_on_c, 0, 74, 64
2, 2493, Note_on_c, 0, 76, 0
2, 2520, Note_on_c, 0, 74, 0
2, 2520, Note_on_c, 0, 79, 64
2, 2534, Note_on_c, 0, 78, 64
2, 2535, Note_on_c, 0, 79, 0
2, 2549, Note_on_c, 0, 78, 0
2, 2550, Note_on_c, 0, 79, 64
2, 2610, Note_on_c, 0, 79, 0
2, 2610, Note_on_c, 0, 79, 90
2, 2640, Note_on_c, 0, 79, 0
2, 2640, Note_on_c, 0, 79, 64
2, 2670, Note_on_c, 0, 79, 0
2, 2670, Note_on_c, 0, 78, 64
2, 2700, Note_on_c, 0, 78, 0
2, 2700, Note_on_c, 0, 76, 64
2, 2730, Note_on_c, 0, 76, 0
2, 2730, Note_on_c, 0, 78, 64
2, 2760, Note_on_c, 0, 78, 0
2, 2760, Note_on_c, 0, 79, 64
2, 2775, Note_on_c, 0, 79, 0
2, 2775, Note_on_c, 0, 78, 64
2, 2789, Note_on_c, 0, 79, 64
2, 2790, Note_on_c, 0, 78, 0
2, 2804, Note_on_c, 0, 79, 0
2, 2805, Note_on_c, 0, 78, 64
2, 2819, Note_on_c, 0, 79, 64
2, 2820, Note_on_c, 0, 78, 0
2, 2832, Note_on_c, 0, 78, 64
2, 2834, Note_on_c, 0, 79, 0
2, 2847, Note_on_c, 0, 78, 0
2, 2850, Note_on_c, 0, 79, 64
2, 2880, Note_on_c, 0, 79, 0
2, 2880, Note_on_c, 0, 79, 90
2, 2900, Control_c, 0, 7, 83
2, 2930, Control_c, 0, 7, 82
2, 2940, Note_on_c, 0, 79, 0
2, 2940, Note_on_c, 0, 74, 64
2, 2970, Note_on_c, 0, 74, 0
2, 2970, Note_on_c, 0, 72, 64
2, 2970, Control_c, 0, 7, 83
2, 3000, Note_on_c, 0, 72, 0
2, 3000, Note_on_c, 0, 71, 64
2, 3010, Control_c, 0, 7, 84
2, 3030, Note_on_c, 0, 71, 0
2, 3030, Note_on_c, 0, 69, 64
2, 3050, Control_c, 0, 7, 85
2, 3060, Note_on_c, 0, 69, 0
2, 3060, Note_on_c, 0, 71, 64
2, 3090, Note_on_c, 0, 71, 0
2, 3090, Note_on_c, 0, 67, 64
2, 3090, Control_c, 0, 7, 86
2, 3120, Note_on_c, 0, 67, 0
2, 3120, Note_on_c, 0, 76, 64
2, 3130, Control_c, 0, 7, 87
2, 3135, Note_on_c, 0, 76, 0
2, 3135, Note_on_c, 0, 74, 64
2, 3150, Note_on_c, 0, 74, 0
2, 3150, Note_on_c, 0, 76, 64
2, 3165, Note_on_c, 0, 76, 0
2, 3165, Note_on_c, 0, 74, 64
2, 3170, Control_c, 0, 7, 88
2, 3180, Note_on_c, 0, 74, 0
2, 3180, Note_on_c, 0, 76, 64
2, 3195, Note_on_c, 0, 76, 0
2, 3195, Note_on_c, 0, 74, 64
2, 3210, Note_on_c, 0, 74, 0
2, 3210, Note_on_c, 0, 76, 64
2, 3210, Control_c, 0, 7, 89
2, 3225, Note_on_c, 0, 76, 0
2, 3225, Note_on_c, 0, 74, 64
2, 3240, Note_on_c, 0, 74, 0
2, 3240, Note_on_c, 0, 76, 64
2, 3250, Control_c, 0, 7, 90
2, 3255, Note_on_c, 0, 76, 0
2, 3255, Note_on_c, 0, 74, 64
2, 3270, Note_on_c, 0, 74, 0
2, 3270, Note_on_c, 0, 76, 64
2, 3285, Note_on_c, 0, 76, 0
2, 3285, Note_on_c, 0, 74, 64
2, 3290, Control_c, 0, 7, 91
2, 3300, Note_on_c, 0, 74, 0
2, 3300, Note_on_c, 0, 76, 64
2, 3315, Note_on_c, 0, 76, 0
2, 3315, Note_on_c, 0, 74, 64
2, 3320, Control_c, 0, 7, 92
2, 3330, Note_on_c, 0, 74, 0
2, 3330, Note_on_c, 0, 76, 64
2, 3345, Note_on_c, 0, 76, 0
2, 3345, Note_on_c, 0, 74, 64
2, 3360, Note_on_c, 0, 74, 0
2, 3360, Note_on_c, 0, 76, 64
2, 3360, Control_c, 0, 7, 93
2, 3375, Note_on_c, 0, 76, 0
2, 3375, Note_on_c, 0, 74, 64
2, 3390, Note_on_c, 0, 74, 0
2, 3390, Note_on_c, 0, 76, 64
2, 3400, Control_c, 0, 7, 94
2, 3405, Note_on_c, 0, 76, 0
2, 3405, Note_on_c, 0, 74, 64
2, 3420, Note_on_c, 0, 74, 0
2, 3420, Note_on_c, 0, 76, 64
2, 3435, Note_on_c, 0, 76, 0
2, 3435, Note_on_c, 0, 74, 64
2, 3440, Control_c, 0, 7, 95
2, 3450, Note_on_c, 0, 74, 0
2, 3450, Note_on_c, 0, 76, 64
2, 3465, Note_on_c, 0, 76, 0
2, 3465, Note_on_c, 0, 74, 64
2, 3480, Note_on_c, 0, 74, 0
2, 3480, Note_on_c, 0, 76, 64
2, 3480, Control_c, 0, 7, 96
2, 3495, Note_on_c, 0, 76, 0
2, 3495, Note_on_c, 0, 74, 64
2, 3510, Note_on_c, 0, 74, 0
2, 3510, Note_on_c, 0, 76, 64
2, 3520, Control_c, 0, 7, 97
2, 3525, Note_on_c, 0, 76, 0
2, 3525, Note_on_c, 0, 74, 64
2, 3540, Note_on_c, 0, 74, 0
2, 3540, Note_on_c, 0, 76, 64
2, 3555, Note_on_c, 0, 76, 0
2, 3555, Note_on_c, 0, 74, 64
2, 3560, Control_c, 0, 7, 98
2, 3570, Note_on_c, 0, 74, 0
2, 3570, Note_on_c, 0, 76, 64
2, 3585, Note_on_c, 0, 76, 0
2, 3585, Note_on_c, 0, 74, 64
2, 3600, Note_on_c, 0, 74, 0
2, 3600, Note_on_c, 0, 76, 64
2, 3600, Control_c, 0, 7, 99
2, 3615, Note_on_c, 0, 76, 0
2, 3615, Note_on_c, 0, 74, 64
2, 3630, Note_on_c, 0, 74, 0
2, 3630, Note_on_c, 0, 76, 64
2, 3640, Control_c, 0, 7, 100
2, 3645, Note_on_c, 0, 76, 0
2, 3645, Note_on_c, 0, 74, 64
2, 3660, Note_on_c, 0, 74, 0
2, 3660, Note_on_c, 0, 76, 64
2, 3675, Note_on_c, 0, 76, 0
2, 3675, Note_on_c, 0, 74, 64
2, 3680, Control_c, 0, 7, 101
2, 3690, Note_on_c, 0, 74, 0
2, 3690, Note_on_c, 0, 76, 64
2, 3705, Note_on_c, 0, 76, 0
2, 3705, Note_on_c, 0, 74, 64
2, 3710, Control_c, 0, 7, 102
2, 3720, Note_on_c, 0, 74, 0
2, 3720, Note_on_c, 0, 76, 64
2, 3735, Note_on_c, 0, 76, 0
2, 3735, Note_on_c, 0, 74, 64
2, 3750, Note_on_c, 0, 74, 0
2, 3750, Note_on_c, 0, 76, 64
2, 3750, Control_c, 0, 7, 103
2, 3765, Note_on_c, 0, 76, 0
2, 3765, Note_on_c, 0, 74, 64
2, 3780, Note_on_c, 0, 74, 0
2, 3780, Note_on_c, 0, 76, 64
2, 3790, Control_c, 0, 7, 104
2, 3795, Note_on_c, 0, 76, 0
2, 3795, Note_on_c, 0, 74, 64
2, 3810, Note_on_c, 0, 74, 0
2, 3810, Note_on_c, 0, 76, 64
2, 3825, Note_on_c, 0, 76, 0
2, 3825, Note_on_c, 0, 74, 64
2, 3830, Control_c, 0, 7, 105
2, 3840, Note_on_c, 0, 74, 0
2, 3840, Note_on_c, 0, 74, 64
2, 3870, Control_c, 0, 7, 106
2, 3910, Control_c, 0, 7, 107
2, 3930, Note_on_c, 0, 74, 0
2, 3930, Note_on_c, 0, 76, 64
2, 3950, Control_c, 0, 7, 108
2, 3960, Note_on_c, 0, 76, 0
2, 3960, Note_on_c, 0, 73, 64
2, 3975, Note_on_c, 0, 73, 0
2, 3975, Note_on_c, 0, 74, 64
2, 3990, Note_on_c, 0, 74, 0
2, 3990, Note_on_c, 0, 73, 64
2, 3990, Control_c, 0, 7, 109
2, 4030, Control_c, 0, 7, 110
2, 4050, Note_on_c, 0, 73, 0
2, 4050, Note_on_c, 0, 74, 64
2, 4070, Control_c, 0, 7, 111
2, 4080, Note_on_c, 0, 74, 0
2, 4080, Note_on_c, 0, 74, 90
2, 4100, Control_c, 0, 7, 112
2, 4140, Note_on_c, 0, 74, 0
2, 4140, Note_on_c, 0, 69, 64
2, 4170, Note_on_c, 0, 69, 0
2, 4170, Note_on_c, 0, 67, 64
2, 4200, Note_on_c, 0, 67, 0
2, 4200, Note_on_c, 0, 66, 64
2, 4230, Note_on_c, 0, 66, 0
2, 4230, Note_on_c, 0, 64, 64
2, 4260, Note_on_c, 0, 64, 0
2, 4260, Note_on_c, 0, 66, 64
2, 4290, Note_on_c, 0, 66, 0
2, 4290, Note_on_c, 0, 62, 64
2, 4320, Note_on_c, 0, 62, 0
2, 4320, Note_on_c, 0, 72, 64
2, 4335, Note_on_c, 0, 72, 0
2, 4335, Note_on_c, 0, 71, 64
2, 4350, Note_on_c, 0, 71, 0
2, 4350, Note_on_c, 0, 72, 64
2, 4410, Note_on_c, 0, 72, 0
2, 4410, Note_on_c, 0, 71, 64
2, 4440, Note_on_c, 0, 71, 0
2, 4440, Note_on_c, 0, 72, 64
2, 4530, Note_on_c, 0, 72, 0
2, 4530, Note_on_c, 0, 74, 64
2, 4560, Note_on_c, 0, 74, 0
2, 4560, Note_on_c, 0, 71, 64
2, 4575, Note_on_c, 0, 71, 0
2, 4575, Note_on_c, 0, 72, 64
2, 4590, Note_on_c, 0, 72, 0
2, 4590, Note_on_c, 0, 71, 64
2, 4650, Note_on_c, 0, 71, 0
2, 4650, Note_on_c, 0, 71, 64
2, 4680, Note_on_c, 0, 71, 0
2, 4680, Note_on_c, 0, 76, 64
2, 4770, Note_on_c, 0, 76, 0
2, 4770, Note_on_c, 0, 76, 64
2, 4800, Note_on_c, 0, 76, 0
2, 4800, Note_on_c, 0, 76, 64
2, 4830, Note_on_c, 0, 76, 0
2, 4830, Note_on_c, 0, 79, 64
2, 4860, Note_on_c, 0, 79, 0
2, 4860, Note_on_c, 0, 78, 64
2, 4890, Note_on_c, 0, 78, 0
2, 4890, Note_on_c, 0, 76, 64
2, 4920, Note_on_c, 0, 76, 0
2, 4920, Note_on_c, 0, 74, 64
2, 4950, Note_on_c, 0, 74, 0
2, 4950, Note_on_c, 0, 73, 64
2, 4980, Note_on_c, 0, 73, 0
2, 4980, Note_on_c, 0, 74, 64
2, 5010, Note_on_c, 0, 74, 0
2, 5010, Note_on_c, 0, 71, 64
2, 5040, Note_on_c, 0, 71, 0
2, 5040, Note_on_c, 0, 70, 64
2, 5100, Note_on_c, 0, 70, 0
2, 5100, Note_on_c, 0, 78, 64
2, 5130, Note_on_c, 0, 78, 0
2, 5130, Note_on_c, 0, 76, 64
2, 5160, Note_on_c, 0, 76, 0
2, 5160, Note_on_c, 0, 74, 64
2, 5190, Note_on_c, 0, 74, 0
2, 5190, Note_on_c, 0, 73, 64
2, 5220, Note_on_c, 0, 73, 0
2, 5220, Note_on_c, 0, 74, 64
2, 5250, Note_on_c, 0, 74, 0
2, 5250, Note_on_c, 0, 71, 64
2, 5280, Note_on_c, 0, 71, 0
2, 5280, Note_on_c, 0, 76, 64
2, 5340, Note_on_c, 0, 76, 0
2, 5340, Note_on_c, 0, 83, 64
2, 5370, Note_on_c, 0, 83, 0
2, 5370, Note_on_c, 0, 81, 64
2, 5400, Note_on_c, 0, 81, 0
2, 5400, Note_on_c, 0, 79, 64
2, 5430, Note_on_c, 0, 79, 0
2, 5430, Note_on_c, 0, 78, 64
2, 5460, Note_on_c, 0, 78, 0
2, 5460, Note_on_c, 0, 79, 64
2, 5480, Control_c, 0, 7, 111
2, 5490, Note_on_c, 0, 79, 0
2, 5490, Note_on_c, 0, 76, 64
2, 5500, Control_c, 0, 7, 110
2, 5520, Note_on_c, 0, 76, 0
2, 5520, Note_on_c, 0, 82, 64
2, 5520, Control_c, 0, 7, 109
2, 5540, Control_c, 0, 7, 108
2, 5560, Control_c, 0, 7, 107
2, 5580, Note_on_c, 0, 82, 0
2, 5580, Note_on_c, 0, 73, 64
2, 5580, Control_c, 0, 7, 106
2, 5590, Control_c, 0, 7, 105
2, 5610, Control_c, 0, 7, 104
2, 5630, Control_c, 0, 7, 103
2, 5640, Note_on_c, 0, 73, 0
2, 5640, Note_on_c, 0, 78, 64
2, 5650, Control_c, 0, 7, 102
2, 5670, Control_c, 0, 7, 101
2, 5690, Control_c, 0, 7, 100
2, 5700, Note_on_c, 0, 78, 0
2, 5700, Note_on_c, 0, 70, 64
2, 5700, Control_c, 0, 7, 99
2, 5720, Control_c, 0, 7, 98
2, 5740, Control_c, 0, 7, 97
2, 5760, Note_on_c, 0, 70, 0
2, 5760, Note_on_c, 0, 71, 64
2, 5760, Control_c, 0, 7, 96
2, 5780, Control_c, 0, 7, 95
2, 5800, Control_c, 0, 7, 94
2, 5810, Control_c, 0, 7, 93
2, 5830, Control_c, 0, 7, 92
2, 5850, Note_on_c, 0, 71, 0
2, 5850, Note_on_c, 0, 72, 64
2, 5850, Control_c, 0, 7, 91
2, 5870, Control_c, 0, 7, 90
2, 5880, Note_on_c, 0, 72, 0
2, 5880, Note_on_c, 0, 72, 64
2, 5890, Control_c, 0, 7, 89
2, 5895, Note_on_c, 0, 72, 0
2, 5895, Note_on_c, 0, 74, 64
2, 5910, Note_on_c, 0, 74, 0
2, 5910, Note_on_c, 0, 72, 64
2, 5910, Control_c, 0, 7, 88
2, 5920, Control_c, 0, 7, 87
2, 5940, Control_c, 0, 7, 86
2, 5960, Control_c, 0, 7, 85
2, 5970, Note_on_c, 0, 72, 0
2, 5970, Note_on_c, 0, 71, 64
2, 5980, Control_c, 0, 7, 84
2, 6000, Note_on_c, 0, 71, 0
2, 6000, Note_on_c, 0, 71, 90
2, 6000, Control_c, 0, 7, 83
2, 6010, Control_c, 0, 7, 82
2, 6060, Note_on_c, 0, 71, 0
2, 6060, Note_on_c, 0, 74, 64
2, 6120, Note_on_c, 0, 74, 0
2, 6120, Note_on_c, 0, 64, 64
2, 6180, Note_on_c, 0, 64, 0
2, 6180, Note_on_c, 0, 74, 64
2, 6240, Note_on_c, 0, 74, 0
2, 6240, Note_on_c, 0, 72, 64
2, 6250, Control_c, 0, 7, 82
2, 6300, Note_on_c, 0, 72, 0
2, 6300, Note_on_c, 0, 69, 64
2, 6320, Control_c, 0, 7, 83
2, 6360, Note_on_c, 0, 69, 0
2, 6360, Note_on_c, 0, 62, 64
2, 6390, Control_c, 0, 7, 84
2, 6420, Note_on_c, 0, 62, 0
2, 6420, Note_on_c, 0, 72, 64
2, 6460, Control_c, 0, 7, 85
2, 6480, Note_on_c, 0, 72, 0
2, 6480, Note_on_c, 0, 71, 64
2, 6530, Control_c, 0, 7, 86
2, 6540, Note_on_c, 0, 71, 0
2, 6540, Note_on_c, 0, 74, 64
2, 6590, Control_c, 0, 7, 87
2, 6600, Note_on_c, 0, 74, 0
2, 6600, Note_on_c, 0, 79, 64
2, 6660, Note_on_c, 0, 79, 0
2, 6660, Note_on_c, 0, 71, 64
2, 6660, Control_c, 0, 7, 88
2, 6720, Note_on_c, 0, 71, 0
2, 6720, Note_on_c, 0, 69, 64
2, 6730, Control_c, 0, 7, 89
2, 6780, Note_on_c, 0, 69, 0
2, 6780, Note_on_c, 0, 78, 64
2, 6800, Control_c, 0, 7, 90
2, 6840, Note_on_c, 0, 78, 0
2, 6840, Note_on_c, 0, 67, 64
2, 6870, Control_c, 0, 7, 91
2, 6900, Note_on_c, 0, 67, 0
2, 6900, Note_on_c, 0, 76, 64
2, 6930, Control_c, 0, 7, 92
2, 6960, Note_on_c, 0, 76, 0
2, 6960, Note_on_c, 0, 75, 64
2, 6975, Note_on_c, 0, 75, 0
2, 6975, Note_on_c, 0, 76, 64
2, 6990, Note_on_c, 0, 76, 0
2, 6990, Note_on_c, 0, 75, 64
2, 7000, Control_c, 0, 7, 93
2, 7020, Note_on_c, 0, 75, 0
2, 7020, Note_on_c, 0, 78, 64
2, 7050, Note_on_c, 0, 78, 0
2, 7050, Note_on_c, 0, 76, 64
2, 7070, Control_c, 0, 7, 94
2, 7080, Note_on_c, 0, 76, 0
2, 7080, Note_on_c, 0, 75, 64
2, 7110, Note_on_c, 0, 75, 0
2, 7110, Note_on_c, 0, 73, 64
2, 7140, Note_on_c, 0, 73, 0
2, 7140, Note_on_c, 0, 71, 64
2, 7140, Control_c, 0, 7, 95
2, 7170, Note_on_c, 0, 71, 0
2, 7170, Note_on_c, 0, 69, 64
2, 7200, Note_on_c, 0, 69, 0
2, 7200, Note_on_c, 0, 67, 64
2, 7210, Control_c, 0, 7, 96
2, 7230, Note_on_c, 0, 67, 0
2, 7230, Note_on_c, 0, 66, 64
2, 7260, Note_on_c, 0, 66, 0
2, 7260, Note_on_c, 0, 67, 64
2, 7270, Control_c, 0, 7, 97
2, 7290, Note_on_c, 0, 67, 0
2, 7290, Note_on_c, 0, 71, 64
2, 7320, Note_on_c, 0, 71, 0
2, 7320, Note_on_c, 0, 76, 64
2, 7340, Control_c, 0, 7, 98
2, 7350, Note_on_c, 0, 76, 0
2, 7350, Note_on_c, 0, 71, 64
2, 7380, Note_on_c, 0, 71, 0
2, 7380, Note_on_c, 0, 69, 64
2, 7410, Note_on_c, 0, 69, 0
2, 7410, Note_on_c, 0, 67, 64
2, 7410, Control_c, 0, 7, 99
2, 7440, Note_on_c, 0, 67, 0
2, 7440, Note_on_c, 0, 66, 64
2, 7470, Note_on_c, 0, 66, 0
2, 7470, Note_on_c, 0, 64, 64
2, 7480, Control_c, 0, 7, 100
2, 7500, Note_on_c, 0, 64, 0
2, 7500, Note_on_c, 0, 66, 64
2, 7530, Note_on_c, 0, 66, 0
2, 7530, Note_on_c, 0, 69, 64
2, 7550, Control_c, 0, 7, 101
2, 7560, Note_on_c, 0, 69, 0
2, 7560, Note_on_c, 0, 75, 64
2, 7590, Note_on_c, 0, 75, 0
2, 7590, Note_on_c, 0, 69, 64
2, 7610, Control_c, 0, 7, 102
2, 7620, Note_on_c, 0, 69, 0
2, 7620, Note_on_c, 0, 67, 64
2, 7650, Note_on_c, 0, 67, 0
2, 7650, Note_on_c, 0, 66, 64
2, 7680, Note_on_c, 0, 66, 0
2, 7680, Note_on_c, 0, 64, 64
2, 7680, Control_c, 0, 7, 103
2, 7710, Note_on_c, 0, 64, 0
2, 7710, Note_on_c, 0, 63, 64
2, 7740, Note_on_c, 0, 63, 0
2, 7740, Note_on_c, 0, 64, 64
2, 7750, Control_c, 0, 7, 104
2, 7770, Note_on_c, 0, 64, 0
2, 7770, Note_on_c, 0, 67, 64
2, 7800, Note_on_c, 0, 67, 0
2, 7800, Note_on_c, 0, 72, 64
2, 7820, Control_c, 0, 7, 105
2, 7830, Note_on_c, 0, 72, 0
2, 7830, Note_on_c, 0, 67, 64
2, 7860, Note_on_c, 0, 67, 0
2, 7860, Note_on_c, 0, 66, 64
2, 7890, Note_on_c, 0, 66, 0
2, 7890, Note_on_c, 0, 64, 64
2, 7890, Control_c, 0, 7, 106
2, 7920, Note_on_c, 0, 64, 0
2, 7920, Note_on_c, 0, 63, 64
2, 7950, Note_on_c, 0, 63, 0
2, 7950, Note_on_c, 0, 61, 64
2, 7950, Control_c, 0, 7, 107
2, 7980, Note_on_c, 0, 61, 0
2, 7980, Note_on_c, 0, 63, 64
2, 8010, Note_on_c, 0, 63, 0
2, 8010, Note_on_c, 0, 66, 64
2, 8020, Control_c, 0, 7, 108
2, 8040, Note_on_c, 0, 66, 0
2, 8040, Note_on_c, 0, 71, 64
2, 8090, Control_c, 0, 7, 109
2, 8100, Note_on_c, 0, 71, 0
2, 8100, Note_on_c, 0, 71, 90
2, 8160, Note_on_c, 0, 71, 0
2, 8160, Note_on_c, 0, 71, 64
2, 8160, Control_c, 0, 7, 110
2, 8220, Control_c, 0, 7, 111
2, 8310, Note_on_c, 0, 71, 0
2, 8310, Note_on_c, 0, 75, 64
2, 8340, Note_on_c, 0, 75, 0
2, 8340, Note_on_c, 0, 76, 64
2, 8370, Note_on_c, 0, 76, 0
2, 8370, Note_on_c, 0, 79, 64
2, 8400, Note_on_c, 0, 79, 0
2, 8400, Note_on_c, 0, 69, 64
2, 8550, Note_on_c, 0, 69, 0
2, 8550, Note_on_c, 0, 73, 64
2, 8580, Note_on_c, 0, 73, 0
2, 8580, Note_on_c, 0, 75, 64
2, 8610, Note_on_c, 0, 75, 0
2, 8610, Note_on_c, 0, 78, 64
2, 8640, Note_on_c, 0, 78, 0
2, 8640, Note_on_c, 0, 67, 64
2, 8660, Control_c, 0, 7, 108
2, 8690, Control_c, 0, 7, 107
2, 8710, Control_c, 0, 7, 106
2, 8730, Control_c, 0, 7, 105
2, 8750, Control_c, 0, 7, 104
2, 8770, Control_c, 0, 7, 103
2, 8790, Note_on_c, 0, 67, 0
2, 8790, Note_on_c, 0, 71, 64
2, 8790, Control_c, 0, 7, 102
2, 8810, Control_c, 0, 7, 101
2, 8820, Note_on_c, 0, 71, 0
2, 8820, Note_on_c, 0, 75, 64
2, 8840, Control_c, 0, 7, 100
2, 8850, Note_on_c, 0, 75, 0
2, 8850, Note_on_c, 0, 76, 64
2, 8860, Control_c, 0, 7, 99
2, 8880, Note_on_c, 0, 76, 0
2, 8880, Note_on_c, 0, 66, 64
2, 8880, Control_c, 0, 7, 98
2, 8900, Control_c, 0, 7, 97
2, 8910, Note_on_c, 0, 66, 0
2, 8910, Note_on_c, 0, 69, 64
2, 8920, Control_c, 0, 7, 96
2, 8940, Note_on_c, 0, 69, 0
2, 8940, Note_on_c, 0, 71, 64
2, 8940, Control_c, 0, 7, 95
2, 8960, Control_c, 0, 7, 94
2, 8970, Note_on_c, 0, 71, 0
2, 8970, Note_on_c, 0, 72, 64
2, 8990, Control_c, 0, 7, 93
2, 9000, Note_on_c, 0, 72, 0
2, 9000, Note_on_c, 0, 63, 64
2, 9010, Control_c, 0, 7, 92
2, 9030, Note_on_c, 0, 63, 0
2, 9030, Note_on_c, 0, 66, 64
2, 9030, Control_c, 0, 7, 91
2, 9050, Control_c, 0, 7, 90
2, 9060, Note_on_c, 0, 66, 0
2, 9060, Note_on_c, 0, 67, 64
2, 9070, Control_c, 0, 7, 89
2, 9090, Note_on_c, 0, 67, 0
2, 9090, Note_on_c, 0, 69, 64
2, 9090, Control_c, 0, 7, 88
2, 9110, Control_c, 0, 7, 87
2, 9120, Note_on_c, 0, 69, 0
2, 9120, Note_on_c, 0, 59, 64
2, 9130, Control_c, 0, 7, 86
2, 9140, Control_c, 0, 7, 84
2, 9180, Note_on_c, 0, 59, 0
2, 9180, Note_on_c, 0, 69, 64
2, 9200, Control_c, 0, 7, 85
2, 9250, Control_c, 0, 7, 86
2, 9270, Note_on_c, 0, 69, 0
2, 9270, Note_on_c, 0, 66, 64
2, 9300, Note_on_c, 0, 66, 0
2, 9300, Note_on_c, 0, 71, 64
2, 9300, Control_c, 0, 7, 87
2, 9330, Note_on_c, 0, 71, 0
2, 9330, Note_on_c, 0, 66, 64
2, 9350, Control_c, 0, 7, 88
2, 9360, Note_on_c, 0, 66, 0
2, 9360, Note_on_c, 0, 67, 64
2, 9400, Control_c, 0, 7, 89
2, 9420, Note_on_c, 0, 67, 0
2, 9420, Note_on_c, 0, 64, 64
2, 9450, Control_c, 0, 7, 90
2, 9480, Note_on_c, 0, 64, 0
2, 9480, Note_on_c, 0, 72, 64
2, 9500, Control_c, 0, 7, 91
2, 9550, Control_c, 0, 7, 92
2, 9570, Note_on_c, 0, 72, 0
2, 9570, Note_on_c, 0, 72, 90
2, 9600, Note_on_c, 0, 72, 0
2, 9600, Note_on_c, 0, 72, 64
2, 9600, Control_c, 0, 7, 93
2, 9615, Note_on_c, 0, 72, 0
2, 9615, Note_on_c, 0, 74, 64
2, 9630, Note_on_c, 0, 74, 0
2, 9630, Note_on_c, 0, 72, 64
2, 9650, Control_c, 0, 7, 94
2, 9660, Note_on_c, 0, 72, 0
2, 9660, Note_on_c, 0, 71, 64
2, 9700, Control_c, 0, 7, 95
2, 9720, Note_on_c, 0, 71, 0
2, 9720, Note_on_c, 0, 79, 90
2, 9750, Control_c, 0, 7, 96
2, 9800, Control_c, 0, 7, 97
2, 9810, Note_on_c, 0, 79, 0
2, 9810, Note_on_c, 0, 79, 90
2, 9840, Note_on_c, 0, 79, 0
2, 9840, Note_on_c, 0, 79, 64
2, 9860, Control_c, 0, 7, 98
2, 9870, Note_on_c, 0, 79, 0
2, 9870, Note_on_c, 0, 81, 64
2, 9900, Note_on_c, 0, 81, 0
2, 9900, Note_on_c, 0, 79, 64
2, 9910, Control_c, 0, 7, 99
2, 9930, Note_on_c, 0, 79, 0
2, 9930, Note_on_c, 0, 78, 64
2, 9960, Note_on_c, 0, 78, 0
2, 9960, Note_on_c, 0, 78, 64
2, 9960, Control_c, 0, 7, 100
2, 9975, Note_on_c, 0, 78, 0
2, 9975, Note_on_c, 0, 79, 64
2, 9990, Note_on_c, 0, 79, 0
2, 9990, Note_on_c, 0, 78, 64
2, 10010, Control_c, 0, 7, 101
2, 10050, Note_on_c, 0, 78, 0
2, 10050, Note_on_c, 0, 76, 64
2, 10060, Control_c, 0, 7, 102
2, 10080, Note_on_c, 0, 76, 0
2, 10080, Note_on_c, 0, 76, 64
2, 10110, Note_on_c, 0, 76, 0
2, 10110, Note_on_c, 0, 74, 64
2, 10110, Control_c, 0, 7, 103
2, 10140, Note_on_c, 0, 74, 0
2, 10140, Note_on_c, 0, 72, 64
2, 10160, Control_c, 0, 7, 104
2, 10170, Note_on_c, 0, 72, 0
2, 10170, Note_on_c, 0, 71, 64
2, 10200, Note_on_c, 0, 71, 0
2, 10200, Note_on_c, 0, 69, 64
2, 10210, Control_c, 0, 7, 105
2, 10230, Note_on_c, 0, 69, 0
2, 10230, Note_on_c, 0, 67, 64
2, 10260, Note_on_c, 0, 67, 0
2, 10260, Note_on_c, 0, 69, 64
2, 10260, Control_c, 0, 7, 106
2, 10290, Note_on_c, 0, 69, 0
2, 10290, Note_on_c, 0, 66, 64
2, 10310, Control_c, 0, 7, 107
2, 10320, Note_on_c, 0, 66, 0
2, 10320, Note_on_c, 0, 75, 64
2, 10360, Control_c, 0, 7, 108
2, 10380, Note_on_c, 0, 75, 0
2, 10380, Note_on_c, 0, 66, 64
2, 10410, Control_c, 0, 7, 109
2, 10440, Note_on_c, 0, 66, 0
2, 10440, Note_on_c, 0, 71, 64
2, 10455, Note_on_c, 0, 71, 0
2, 10457, Note_on_c, 0, 69, 64
2, 10460, Control_c, 0, 7, 110
2, 10470, Note_on_c, 0, 71, 64
2, 10472, Note_on_c, 0, 69, 0
2, 10510, Control_c, 0, 7, 111
2, 10530, Note_on_c, 0, 71, 0
2, 10530, Note_on_c, 0, 72, 64
2, 10540, Control_c, 0, 7, 111
2, 10560, Note_on_c, 0, 72, 0
2, 10560, Note_on_c, 0, 69, 64
2, 10560, Control_c, 0, 7, 110
2, 10570, Control_c, 0, 7, 109
2, 10575, Note_on_c, 0, 69, 0
2, 10576, Note_on_c, 0, 67, 64
2, 10580, Control_c, 0, 7, 108
2, 10590, Note_on_c, 0, 69, 64
2, 10590, Control_c, 0, 7, 107
2, 10591, Note_on_c, 0, 67, 0
2, 10600, Control_c, 0, 7, 106
2, 10610, Control_c, 0, 7, 105
2, 10630, Control_c, 0, 7, 104
2, 10640, Control_c, 0, 7, 103
2, 10650, Note_on_c, 0, 69, 0
2, 10650, Note_on_c, 0, 67, 64
2, 10650, Control_c, 0, 7, 102
2, 10660, Control_c, 0, 7, 101
2, 10670, Control_c, 0, 7, 100
2, 10680, Note_on_c, 0, 67, 0
2, 10680, Note_on_c, 0, 66, 64
2, 10680, Control_c, 0, 7, 99
2, 10695, Note_on_c, 0, 66, 0
2, 10695, Note_on_c, 0, 67, 64
2, 10700, Control_c, 0, 7, 98
2, 10710, Note_on_c, 0, 67, 0
2, 10710, Note_on_c, 0, 66, 64
2, 10710, Control_c, 0, 7, 97
2, 10720, Control_c, 0, 7, 96
2, 10725, Note_on_c, 0, 66, 0
2, 10725, Note_on_c, 0, 67, 64
2, 10730, Control_c, 0, 7, 95
2, 10740, Note_on_c, 0, 67, 0
2, 10740, Note_on_c, 0, 66, 64
2, 10740, Control_c, 0, 7, 94
2, 10750, Control_c, 0, 7, 93
2, 10755, Note_on_c, 0, 66, 0
2, 10755, Note_on_c, 0, 67, 64
2, 10770, Note_on_c, 0, 67, 0
2, 10770, Note_on_c, 0, 64, 64
2, 10770, Control_c, 0, 7, 92
2, 10780, Control_c, 0, 7, 91
2, 10790, Control_c, 0, 7, 90
2, 10800, Note_on_c, 0, 64, 0
2, 10800, Note_on_c, 0, 64, 64
2, 10800, Control_c, 0, 7, 89
2, 10810, Control_c, 0, 7, 88
2, 10820, Control_c, 0, 7, 87
2, 10840, Control_c, 0, 7, 86
2, 10850, Control_c, 0, 7, 85
2, 10860, Control_c, 0, 7, 84
2, 10870, Control_c, 0, 7, 83
2, 10880, Control_c, 0, 7, 82
2, 10890, Control_c, 0, 7, 81
2, 10910, Control_c, 0, 7, 80
2, 10920, Control_c, 0, 7, 79
2, 10930, Control_c, 0, 7, 78
2, 10940, Control_c, 0, 7, 77
2, 10950, Control_c, 0, 7, 76
2, 10960, Control_c, 0, 7, 75
2, 10980, Control_c, 0, 7, 74
2, 10990, Control_c, 0, 7, 73
2, 11000, Control_c, 0, 7, 72
2, 11010, Control_c, 0, 7, 71
2, 11020, Control_c, 0, 7, 70
2, 11030, Control_c, 0, 7, 69
2, 11040, Note_on_c, 0, 64, 0
2, 11040, Control_c, 0, 7, 68
2, 11040, End_track
3, 0, Start_track
3, 0, MIDI_port, 0
3, 0, Title_t, "OBOE"
3, 0, Program_c, 1, 0
3, 0, Control_c, 1, 7, 100
3, 120, Note_on_c, 1, 59, 64
3, 150, Note_on_c, 1, 59, 0
3, 150, Note_on_c, 1, 57, 64
3, 180, Note_on_c, 1, 57, 0
3, 180, Note_on_c, 1, 55, 64
3, 210, Note_on_c, 1, 55, 0
3, 210, Note_on_c, 1, 54, 64
3, 240, Note_on_c, 1, 54, 0
3, 240, Note_on_c, 1, 55, 64
3, 270, Note_on_c, 1, 55, 0
3, 270, Note_on_c, 1, 52, 64
3, 300, Note_on_c, 1, 52, 0
3, 300, Note_on_c, 1, 59, 64
3, 330, Note_on_c, 1, 59, 0
3, 360, Note_on_c, 1, 59, 64
3, 390, Note_on_c, 1, 59, 0
3, 480, Note_on_c, 1, 66, 64
3, 540, Note_on_c, 1, 66, 0
3, 540, Note_on_c, 1, 63, 64
3, 570, Note_on_c, 1, 63, 0
3, 570, Note_on_c, 1, 64, 64
3, 600, Note_on_c, 1, 64, 0
3, 600, Note_on_c, 1, 66, 64
3, 630, Note_on_c, 1, 66, 0
3, 630, Note_on_c, 1, 64, 64
3, 660, Note_on_c, 1, 64, 0
3, 660, Note_on_c, 1, 63, 64
3, 690, Note_on_c, 1, 63, 0
3, 690, Note_on_c, 1, 61, 64
3, 720, Note_on_c, 1, 61, 0
3, 720, Note_on_c, 1, 63, 64
3, 750, Note_on_c, 1, 63, 0
3, 750, Note_on_c, 1, 59, 64
3, 780, Note_on_c, 1, 59, 0
3, 780, Note_on_c, 1, 71, 64
3, 810, Note_on_c, 1, 71, 0
3, 840, Note_on_c, 1, 71, 64
3, 870, Note_on_c, 1, 71, 0
3, 960, Note_on_c, 1, 71, 64
3, 990, Note_on_c, 1, 71, 0
3, 1020, Note_on_c, 1, 67, 64
3, 1050, Note_on_c, 1, 67, 0
3, 1080, Note_on_c, 1, 71, 64
3, 1110, Note_on_c, 1, 71, 0
3, 1110, Note_on_c, 1, 69, 64
3, 1140, Note_on_c, 1, 69, 0
3, 1140, Note_on_c, 1, 67, 64
3, 1170, Note_on_c, 1, 67, 0
3, 1170, Note_on_c, 1, 66, 64
3, 1200, Note_on_c, 1, 66, 0
3, 1200, Note_on_c, 1, 67, 64
3, 1230, Note_on_c, 1, 67, 0
3, 1230, Note_on_c, 1, 64, 64
3, 1260, Note_on_c, 1, 64, 0
3, 1260, Note_on_c, 1, 72, 64
3, 1350, Note_on_c, 1, 72, 0
3, 1350, Note_on_c, 1, 74, 64
3, 1380, Note_on_c, 1, 74, 0
3, 1380, Note_on_c, 1, 72, 64
3, 1470, Note_on_c, 1, 72, 0
3, 1470, Note_on_c, 1, 74, 64
3, 1500, Note_on_c, 1, 74, 0
3, 1500, Note_on_c, 1, 72, 64
3, 1530, Note_on_c, 1, 72, 0
3, 1530, Note_on_c, 1, 71, 64
3, 1560, Note_on_c, 1, 71, 0
3, 1560, Note_on_c, 1, 69, 64
3, 1590, Note_on_c, 1, 69, 0
3, 1590, Note_on_c, 1, 67, 64
3, 1620, Note_on_c, 1, 67, 0
3, 1620, Note_on_c, 1, 66, 64
3, 1650, Note_on_c, 1, 66, 0
3, 1650, Note_on_c, 1, 64, 64
3, 1680, Note_on_c, 1, 64, 0
3, 1680, Note_on_c, 1, 66, 64
3, 1710, Note_on_c, 1, 66, 0
3, 1710, Note_on_c, 1, 62, 64
3, 1740, Note_on_c, 1, 62, 0
3, 1740, Note_on_c, 1, 71, 64
3, 1830, Note_on_c, 1, 71, 0
3, 1830, Note_on_c, 1, 72, 64
3, 1860, Note_on_c, 1, 72, 0
3, 1860, Note_on_c, 1, 71, 64
3, 1950, Note_on_c, 1, 71, 0
3, 1950, Note_on_c, 1, 69, 64
3, 1980, Note_on_c, 1, 69, 0
3, 1980, Note_on_c, 1, 67, 64
3, 2100, Note_on_c, 1, 67, 0
3, 2100, Note_on_c, 1, 62, 64
3, 2160, Note_on_c, 1, 62, 0
3, 2160, Note_on_c, 1, 60, 64
3, 2250, Note_on_c, 1, 60, 0
3, 2250, Note_on_c, 1, 59, 64
3, 2280, Note_on_c, 1, 59, 0
3, 2280, Note_on_c, 1, 57, 64
3, 2310, Note_on_c, 1, 57, 0
3, 2310, Note_on_c, 1, 59, 64
3, 2340, Note_on_c, 1, 59, 0
3, 2340, Note_on_c, 1, 60, 64
3, 2370, Note_on_c, 1, 60, 0
3, 2370, Note_on_c, 1, 62, 64
3, 2460, Note_on_c, 1, 62, 0
3, 2460, Note_on_c, 1, 67, 64
3, 2490, Note_on_c, 1, 67, 0
3, 2490, Note_on_c, 1, 66, 64
3, 2520, Note_on_c, 1, 66, 0
3, 2520, Note_on_c, 1, 67, 64
3, 2550, Note_on_c, 1, 67, 0
3, 2550, Note_on_c, 1, 66, 64
3, 2580, Note_on_c, 1, 66, 0
3, 2580, Note_on_c, 1, 64, 64
3, 2610, Note_on_c, 1, 64, 0
3, 2610, Note_on_c, 1, 62, 64
3, 2640, Note_on_c, 1, 62, 0
3, 2640, Note_on_c, 1, 60, 64
3, 2700, Note_on_c, 1, 60, 0
3, 2700, Note_on_c, 1, 67, 64
3, 2760, Note_on_c, 1, 67, 0
3, 2760, Note_on_c, 1, 62, 64
3, 2790, Note_on_c, 1, 62, 0
3, 2790, Note_on_c, 1, 72, 64
3, 2820, Note_on_c, 1, 72, 0
3, 2820, Note_on_c, 1, 71, 64
3, 2850, Note_on_c, 1, 71, 0
3, 2850, Note_on_c, 1, 69, 64
3, 2880, Note_on_c, 1, 69, 0
3, 2880, Note_on_c, 1, 71, 64
3, 2910, Note_on_c, 1, 71, 0
3, 2910, Note_on_c, 1, 72, 64
3, 2940, Note_on_c, 1, 72, 0
3, 2940, Note_on_c, 1, 71, 64
3, 2970, Note_on_c, 1, 71, 0
3, 2970, Note_on_c, 1, 69, 64
3, 3000, Note_on_c, 1, 69, 0
3, 3000, Note_on_c, 1, 67, 64
3, 3030, Note_on_c, 1, 67, 0
3, 3030, Note_on_c, 1, 66, 64
3, 3060, Note_on_c, 1, 66, 0
3, 3060, Note_on_c, 1, 67, 64
3, 3120, Note_on_c, 1, 67, 0
3, 3180, Note_on_c, 1, 59, 64
3, 3210, Note_on_c, 1, 59, 0
3, 3210, Note_on_c, 1, 60, 64
3, 3240, Note_on_c, 1, 60, 0
3, 3240, Note_on_c, 1, 62, 64
3, 3270, Note_on_c, 1, 62, 0
3, 3270, Note_on_c, 1, 60, 64
3, 3300, Note_on_c, 1, 60, 0
3, 3300, Note_on_c, 1, 62, 64
3, 3330, Note_on_c, 1, 62, 0
3, 3330, Note_on_c, 1, 59, 64
3, 3360, Note_on_c, 1, 59, 0
3, 3360, Note_on_c, 1, 66, 64
3, 3390, Note_on_c, 1, 66, 0
3, 3390, Note_on_c, 1, 64, 64
3, 3420, Note_on_c, 1, 64, 0
3, 3420, Note_on_c, 1, 66, 64
3, 3450, Note_on_c, 1, 66, 0
3, 3450, Note_on_c, 1, 67, 64
3, 3480, Note_on_c, 1, 67, 0
3, 3480, Note_on_c, 1, 69, 64
3, 3510, Note_on_c, 1, 69, 0
3, 3510, Note_on_c, 1, 67, 64
3, 3540, Note_on_c, 1, 67, 0
3, 3540, Note_on_c, 1, 69, 64
3, 3570, Note_on_c, 1, 69, 0
3, 3570, Note_on_c, 1, 66, 64
3, 3600, Note_on_c, 1, 66, 0
3, 3600, Note_on_c, 1, 71, 64
3, 3630, Note_on_c, 1, 71, 0
3, 3630, Note_on_c, 1, 69, 64
3, 3660, Note_on_c, 1, 69, 0
3, 3660, Note_on_c, 1, 71, 64
3, 3690, Note_on_c, 1, 71, 0
3, 3690, Note_on_c, 1, 73, 64
3, 3720, Note_on_c, 1, 73, 0
3, 3720, Note_on_c, 1, 74, 64
3, 3750, Note_on_c, 1, 74, 0
3, 3750, Note_on_c, 1, 73, 64
3, 3780, Note_on_c, 1, 73, 0
3, 3780, Note_on_c, 1, 74, 64
3, 3810, Note_on_c, 1, 74, 0
3, 3810, Note_on_c, 1, 69, 64
3, 3840, Note_on_c, 1, 69, 0
3, 3840, Note_on_c, 1, 71, 64
3, 3870, Note_on_c, 1, 71, 0
3, 3870, Note_on_c, 1, 69, 64
3, 3900, Note_on_c, 1, 69, 0
3, 3900, Note_on_c, 1, 71, 64
3, 3925, Note_on_c, 1, 67, 100
3, 3930, Note_on_c, 1, 71, 0
3, 3985, Note_on_c, 1, 67, 0
3, 3990, Note_on_c, 1, 66, 64
3, 4020, Note_on_c, 1, 66, 0
3, 4020, Note_on_c, 1, 67, 64
3, 4050, Note_on_c, 1, 67, 0
3, 4050, Note_on_c, 1, 64, 64
3, 4080, Note_on_c, 1, 64, 0
3, 4080, Note_on_c, 1, 66, 64
3, 4140, Note_on_c, 1, 66, 0
3, 4200, Note_on_c, 1, 57, 64
3, 4230, Note_on_c, 1, 57, 0
3, 4230, Note_on_c, 1, 55, 64
3, 4260, Note_on_c, 1, 55, 0
3, 4260, Note_on_c, 1, 54, 64
3, 4290, Note_on_c, 1, 54, 0
3, 4290, Note_on_c, 1, 52, 64
3, 4320, Note_on_c, 1, 52, 0
3, 4320, Note_on_c, 1, 54, 64
3, 4350, Note_on_c, 1, 54, 0
3, 4350, Note_on_c, 1, 50, 64
3, 4380, Note_on_c, 1, 50, 0
3, 4380, Note_on_c, 1, 57, 64
3, 4410, Note_on_c, 1, 57, 0
3, 4440, Note_on_c, 1, 57, 64
3, 4470, Note_on_c, 1, 57, 0
3, 4500, Note_on_c, 1, 62, 64
3, 4560, Note_on_c, 1, 62, 0
3, 4560, Note_on_c, 1, 62, 64
3, 4590, Note_on_c, 1, 62, 0
3, 4620, Note_on_c, 1, 71, 64
3, 4650, Note_on_c, 1, 71, 0
3, 4650, Note_on_c, 1, 69, 64
3, 4680, Note_on_c, 1, 69, 0
3, 4680, Note_on_c, 1, 67, 64
3, 4710, Note_on_c, 1, 67, 0
3, 4710, Note_on_c, 1, 66, 64
3, 4740, Note_on_c, 1, 66, 0
3, 4740, Note_on_c, 1, 67, 64
3, 4770, Note_on_c, 1, 67, 0
3, 4770, Note_on_c, 1, 64, 64
3, 4800, Note_on_c, 1, 64, 0
3, 4800, Note_on_c, 1, 58, 64
3, 4830, Note_on_c, 1, 58, 0
3, 4830, Note_on_c, 1, 59, 64
3, 4860, Note_on_c, 1, 59, 0
3, 4860, Note_on_c, 1, 61, 64
3, 4980, Note_on_c, 1, 61, 0
3, 4980, Note_on_c, 1, 59, 64
3, 5040, Note_on_c, 1, 59, 0
3, 5040, Note_on_c, 1, 61, 64
3, 5100, Note_on_c, 1, 61, 0
3, 5160, Note_on_c, 1, 66, 64
3, 5190, Note_on_c, 1, 66, 0
3, 5190, Note_on_c, 1, 64, 64
3, 5220, Note_on_c, 1, 64, 0
3, 5220, Note_on_c, 1, 62, 64
3, 5250, Note_on_c, 1, 62, 0
3, 5250, Note_on_c, 1, 61, 64
3, 5280, Note_on_c, 1, 61, 0
3, 5280, Note_on_c, 1, 59, 64
3, 5340, Note_on_c, 1, 59, 0
3, 5340, Note_on_c, 1, 64, 64
3, 5400, Note_on_c, 1, 64, 0
3, 5400, Note_on_c, 1, 71, 64
3, 5430, Note_on_c, 1, 71, 0
3, 5430, Note_on_c, 1, 69, 64
3, 5460, Note_on_c, 1, 69, 0
3, 5460, Note_on_c, 1, 67, 64
3, 5490, Note_on_c, 1, 67, 0
3, 5490, Note_on_c, 1, 66, 64
3, 5520, Note_on_c, 1, 66, 0
3, 5520, Note_on_c, 1, 67, 64
3, 5550, Note_on_c, 1, 67, 0
3, 5550, Note_on_c, 1, 64, 64
3, 5580, Note_on_c, 1, 64, 0
3, 5580, Note_on_c, 1, 70, 64
3, 5640, Note_on_c, 1, 70, 0
3, 5640, Note_on_c, 1, 61, 64
3, 5700, Note_on_c, 1, 61, 0
3, 5700, Note_on_c, 1, 66, 64
3, 5790, Note_on_c, 1, 66, 0
3, 5790, Note_on_c, 1, 64, 64
3, 5820, Note_on_c, 1, 64, 0
3, 5820, Note_on_c, 1, 66, 64
3, 5850, Note_on_c, 1, 66, 0
3, 5850, Note_on_c, 1, 62, 64
3, 5880, Note_on_c, 1, 62, 0
3, 5880, Note_on_c, 1, 64, 64
3, 5910, Note_on_c, 1, 64, 0
3, 5910, Note_on_c, 1, 62, 64
3, 5940, Note_on_c, 1, 62, 0
3, 5940, Note_on_c, 1, 64, 64
3, 5970, Note_on_c, 1, 64, 0
3, 5970, Note_on_c, 1, 61, 64
3, 6000, Note_on_c, 1, 61, 0
3, 6000, Note_on_c, 1, 62, 64
3, 6030, Note_on_c, 1, 62, 0
3, 6030, Note_on_c, 1, 69, 64
3, 6060, Note_on_c, 1, 69, 0
3, 6060, Note_on_c, 1, 67, 64
3, 6090, Note_on_c, 1, 67, 0
3, 6090, Note_on_c, 1, 65, 64
3, 6120, Note_on_c, 1, 65, 0
3, 6120, Note_on_c, 1, 64, 64
3, 6150, Note_on_c, 1, 64, 0
3, 6150, Note_on_c, 1, 62, 64
3, 6180, Note_on_c, 1, 62, 0
3, 6180, Note_on_c, 1, 64, 64
3, 6210, Note_on_c, 1, 64, 0
3, 6210, Note_on_c, 1, 59, 64
3, 6240, Note_on_c, 1, 59, 0
3, 6240, Note_on_c, 1, 60, 64
3, 6270, Note_on_c, 1, 60, 0
3, 6270, Note_on_c, 1, 67, 64
3, 6300, Note_on_c, 1, 67, 0
3, 6300, Note_on_c, 1, 66, 64
3, 6330, Note_on_c, 1, 66, 0
3, 6330, Note_on_c, 1, 64, 64
3, 6360, Note_on_c, 1, 64, 0
3, 6360, Note_on_c, 1, 62, 64
3, 6390, Note_on_c, 1, 62, 0
3, 6390, Note_on_c, 1, 60, 64
3, 6420, Note_on_c, 1, 60, 0
3, 6420, Note_on_c, 1, 62, 64
3, 6450, Note_on_c, 1, 62, 0
3, 6450, Note_on_c, 1, 57, 64
3, 6480, Note_on_c, 1, 57, 0
3, 6480, Note_on_c, 1, 59, 64
3, 6510, Note_on_c, 1, 59, 0
3, 6510, Note_on_c, 1, 66, 64
3, 6540, Note_on_c, 1, 66, 0
3, 6540, Note_on_c, 1, 64, 64
3, 6570, Note_on_c, 1, 64, 0
3, 6570, Note_on_c, 1, 62, 64
3, 6600, Note_on_c, 1, 62, 0
3, 6600, Note_on_c, 1, 61, 64
3, 6630, Note_on_c, 1, 61, 0
3, 6630, Note_on_c, 1, 59, 64
3, 6660, Note_on_c, 1, 59, 0
3, 6660, Note_on_c, 1, 61, 64
3, 6690, Note_on_c, 1, 61, 0
3, 6690, Note_on_c, 1, 64, 64
3, 6720, Note_on_c, 1, 64, 0
3, 6720, Note_on_c, 1, 66, 64
3, 6750, Note_on_c, 1, 66, 0
3, 6750, Note_on_c, 1, 64, 64
3, 6780, Note_on_c, 1, 64, 0
3, 6780, Note_on_c, 1, 66, 64
3, 6810, Note_on_c, 1, 66, 0
3, 6810, Note_on_c, 1, 63, 64
3, 6840, Note_on_c, 1, 63, 0
3, 6840, Note_on_c, 1, 67, 64
3, 6870, Note_on_c, 1, 67, 0
3, 6870, Note_on_c, 1, 66, 64
3, 6900, Note_on_c, 1, 66, 0
3, 6900, Note_on_c, 1, 67, 64
3, 6930, Note_on_c, 1, 67, 0
3, 6930, Note_on_c, 1, 69, 64
3, 6960, Note_on_c, 1, 69, 0
3, 6960, Note_on_c, 1, 66, 64
3, 7020, Note_on_c, 1, 66, 0
3, 7080, Note_on_c, 1, 66, 64
3, 7110, Note_on_c, 1, 66, 0
3, 7110, Note_on_c, 1, 64, 64
3, 7140, Note_on_c, 1, 64, 0
3, 7140, Note_on_c, 1, 63, 64
3, 7170, Note_on_c, 1, 63, 0
3, 7170, Note_on_c, 1, 61, 64
3, 7200, Note_on_c, 1, 61, 0
3, 7200, Note_on_c, 1, 59, 64
3, 7230, Note_on_c, 1, 59, 0
3, 7230, Note_on_c, 1, 57, 64
3, 7260, Note_on_c, 1, 57, 0
3, 7260, Note_on_c, 1, 55, 64
3, 7290, Note_on_c, 1, 55, 0
3, 7290, Note_on_c, 1, 54, 64
3, 7320, Note_on_c, 1, 54, 0
3, 7320, Note_on_c, 1, 55, 64
3, 7350, Note_on_c, 1, 55, 0
3, 7350, Note_on_c, 1, 59, 64
3, 7380, Note_on_c, 1, 59, 0
3, 7380, Note_on_c, 1, 64, 64
3, 7410, Note_on_c, 1, 64, 0
3, 7410, Note_on_c, 1, 59, 64
3, 7440, Note_on_c, 1, 59, 0
3, 7440, Note_on_c, 1, 57, 64
3, 7470, Note_on_c, 1, 57, 0
3, 7470, Note_on_c, 1, 55, 64
3, 7500, Note_on_c, 1, 55, 0
3, 7500, Note_on_c, 1, 54, 64
3, 7530, Note_on_c, 1, 54, 0
3, 7530, Note_on_c, 1, 52, 64
3, 7560, Note_on_c, 1, 52, 0
3, 7560, Note_on_c, 1, 54, 64
3, 7590, Note_on_c, 1, 54, 0
3, 7590, Note_on_c, 1, 57, 64
3, 7620, Note_on_c, 1, 57, 0
3, 7620, Note_on_c, 1, 63, 64
3, 7650, Note_on_c, 1, 63, 0
3, 7650, Note_on_c, 1, 57, 64
3, 7680, Note_on_c, 1, 57, 0
3, 7680, Note_on_c, 1, 55, 64
3, 7710, Note_on_c, 1, 55, 0
3, 7710, Note_on_c, 1, 54, 64
3, 7740, Note_on_c, 1, 54, 0
3, 7740, Note_on_c, 1, 52, 64
3, 7770, Note_on_c, 1, 52, 0
3, 7770, Note_on_c, 1, 51, 64
3, 7800, Note_on_c, 1, 51, 0
3, 7800, Note_on_c, 1, 52, 64
3, 7830, Note_on_c, 1, 52, 0
3, 7830, Note_on_c, 1, 55, 64
3, 7860, Note_on_c, 1, 55, 0
3, 7860, Note_on_c, 1, 60, 64
3, 7890, Note_on_c, 1, 60, 0
3, 7890, Note_on_c, 1, 55, 64
3, 7920, Note_on_c, 1, 55, 0
3, 7920, Note_on_c, 1, 54, 64
3, 7950, Note_on_c, 1, 54, 0
3, 7950, Note_on_c, 1, 52, 64
3, 7980, Note_on_c, 1, 52, 0
3, 7980, Note_on_c, 1, 51, 64
3, 8010, Note_on_c, 1, 51, 0
3, 8010, Note_on_c, 1, 49, 64
3, 8040, Note_on_c, 1, 49, 0
3, 8040, Note_on_c, 1, 51, 64
3, 8070, Note_on_c, 1, 51, 0
3, 8070, Note_on_c, 1, 54, 64
3, 8100, Note_on_c, 1, 54, 0
3, 8100, Note_on_c, 1, 59, 64
3, 8130, Note_on_c, 1, 59, 0
3, 8130, Note_on_c, 1, 60, 64
3, 8160, Note_on_c, 1, 60, 0
3, 8160, Note_on_c, 1, 59, 64
3, 8190, Note_on_c, 1, 59, 0
3, 8190, Note_on_c, 1, 63, 64
3, 8220, Note_on_c, 1, 63, 0
3, 8220, Note_on_c, 1, 64, 64
3, 8250, Note_on_c, 1, 64, 0
3, 8250, Note_on_c, 1, 67, 64
3, 8280, Note_on_c, 1, 67, 0
3, 8280, Note_on_c, 1, 55, 64
3, 8340, Note_on_c, 1, 55, 0
3, 8340, Note_on_c, 1, 59, 64
3, 8400, Note_on_c, 1, 59, 0
3, 8400, Note_on_c, 1, 57, 64
3, 8430, Note_on_c, 1, 57, 0
3, 8430, Note_on_c, 1, 61, 64
3, 8460, Note_on_c, 1, 61, 0
3, 8460, Note_on_c, 1, 63, 64
3, 8490, Note_on_c, 1, 63, 0
3, 8490, Note_on_c, 1, 66, 64
3, 8520, Note_on_c, 1, 66, 0
3, 8520, Note_on_c, 1, 54, 64
3, 8580, Note_on_c, 1, 54, 0
3, 8580, Note_on_c, 1, 57, 64
3, 8640, Note_on_c, 1, 57, 0
3, 8640, Note_on_c, 1, 55, 64
3, 8670, Note_on_c, 1, 55, 0
3, 8670, Note_on_c, 1, 59, 64
3, 8700, Note_on_c, 1, 59, 0
3, 8700, Note_on_c, 1, 63, 64
3, 8730, Note_on_c, 1, 63, 0
3, 8730, Note_on_c, 1, 64, 64
3, 8760, Note_on_c, 1, 64, 0
3, 8760, Note_on_c, 1, 52, 64
3, 8820, Note_on_c, 1, 52, 0
3, 8820, Note_on_c, 1, 55, 64
3, 8880, Note_on_c, 1, 55, 0
3, 8880, Note_on_c, 1, 59, 64
3, 8940, Note_on_c, 1, 59, 0
3, 8940, Note_on_c, 1, 51, 64
3, 8970, Note_on_c, 1, 51, 0
3, 9240, Note_on_c, 1, 47, 64
3, 9300, Note_on_c, 1, 47, 0
3, 9300, Note_on_c, 1, 57, 64
3, 9360, Note_on_c, 1, 57, 0
3, 9360, Note_on_c, 1, 55, 64
3, 9420, Note_on_c, 1, 55, 0
3, 9420, Note_on_c, 1, 67, 64
3, 9480, Note_on_c, 1, 67, 0
3, 9480, Note_on_c, 1, 66, 64
3, 9510, Note_on_c, 1, 66, 0
3, 9510, Note_on_c, 1, 64, 64
3, 9540, Note_on_c, 1, 64, 0
3, 9540, Note_on_c, 1, 66, 64
3, 9570, Note_on_c, 1, 66, 0
3, 9570, Note_on_c, 1, 62, 64
3, 9600, Note_on_c, 1, 62, 0
3, 9600, Note_on_c, 1, 62, 64
3, 9690, Note_on_c, 1, 62, 0
3, 9690, Note_on_c, 1, 62, 90
3, 9720, Note_on_c, 1, 62, 0
3, 9720, Note_on_c, 1, 62, 64
3, 9735, Note_on_c, 1, 62, 0
3, 9735, Note_on_c, 1, 64, 64
3, 9750, Note_on_c, 1, 64, 0
3, 9750, Note_on_c, 1, 62, 64
3, 9780, Note_on_c, 1, 62, 0
3, 9780, Note_on_c, 1, 60, 64
3, 9840, Note_on_c, 1, 60, 0
3, 9840, Note_on_c, 1, 60, 90
3, 9960, Note_on_c, 1, 60, 0
3, 9960, Note_on_c, 1, 51, 64
3, 10050, Note_on_c, 1, 51, 0
3, 10050, Note_on_c, 1, 59, 64
3, 10080, Note_on_c, 1, 59, 0
3, 10080, Note_on_c, 1, 52, 64
3, 10110, Note_on_c, 1, 52, 0
3, 10110, Note_on_c, 1, 59, 64
3, 10140, Note_on_c, 1, 59, 0
3, 10140, Note_on_c, 1, 57, 64
3, 10170, Note_on_c, 1, 57, 0
3, 10170, Note_on_c, 1, 56, 64
3, 10200, Note_on_c, 1, 56, 0
3, 10200, Note_on_c, 1, 57, 64
3, 10290, Note_on_c, 1, 57, 0
3, 10290, Note_on_c, 1, 57, 90
3, 10320, Note_on_c, 1, 57, 0
3, 10320, Note_on_c, 1, 57, 64
3, 10350, Note_on_c, 1, 57, 0
3, 10350, Note_on_c, 1, 64, 64
3, 10380, Note_on_c, 1, 64, 0
3, 10380, Note_on_c, 1, 63, 64
3, 10440, Note_on_c, 1, 63, 0
3, 10440, Note_on_c, 1, 64, 64
3, 10530, Note_on_c, 1, 64, 0
3, 10530, Note_on_c, 1, 67, 64
3, 10560, Note_on_c, 1, 67, 0
3, 10560, Note_on_c, 1, 66, 64
3, 10590, Note_on_c, 1, 66, 0
3, 10590, Note_on_c, 1, 60, 64
3, 10620, Note_on_c, 1, 60, 0
3, 10620, Note_on_c, 1, 59, 64
3, 10650, Note_on_c, 1, 59, 0
3, 10650, Note_on_c, 1, 64, 64
3, 10710, Note_on_c, 1, 64, 0
3, 10710, Note_on_c, 1, 61, 64
3, 10740, Note_on_c, 1, 61, 0
3, 10740, Note_on_c, 1, 63, 64
3, 10770, Note_on_c, 1, 63, 0
3, 10770, Note_on_c, 1, 57, 64
3, 10800, Note_on_c, 1, 57, 0
3, 10800, Note_on_c, 1, 56, 64
3, 11040, Note_on_c, 1, 56, 0
3, 11040, End_track
4, 0, Start_track
4, 0, MIDI_port, 0
4, 0, Title_t, "BASSOON"
4, 0, Program_c, 2, 0
4, 0, Control_c, 2, 7, 100
4, 0, Note_on_c, 2, 52, 64
4, 0, Control_c, 2, 7, 112
4, 60, Note_on_c, 2, 52, 0
4, 60, Note_on_c, 2, 40, 64
4, 90, Note_on_c, 2, 40, 0
4, 300, Note_on_c, 2, 59, 64
4, 330, Note_on_c, 2, 59, 0
4, 330, Note_on_c, 2, 57, 64
4, 360, Note_on_c, 2, 57, 0
4, 360, Note_on_c, 2, 55, 64
4, 390, Note_on_c, 2, 55, 0
4, 390, Note_on_c, 2, 54, 64
4, 420, Note_on_c, 2, 54, 0
4, 420, Note_on_c, 2, 55, 64
4, 450, Note_on_c, 2, 55, 0
4, 450, Note_on_c, 2, 52, 64
4, 480, Note_on_c, 2, 52, 0
4, 480, Note_on_c, 2, 59, 64
4, 540, Note_on_c, 2, 59, 0
4, 540, Note_on_c, 2, 47, 64
4, 570, Note_on_c, 2, 47, 0
4, 780, Note_on_c, 2, 54, 64
4, 810, Note_on_c, 2, 54, 0
4, 810, Note_on_c, 2, 52, 64
4, 840, Note_on_c, 2, 52, 0
4, 840, Note_on_c, 2, 51, 64
4, 870, Note_on_c, 2, 51, 0
4, 870, Note_on_c, 2, 49, 64
4, 900, Note_on_c, 2, 49, 0
4, 900, Note_on_c, 2, 51, 64
4, 930, Note_on_c, 2, 51, 0
4, 930, Note_on_c, 2, 47, 64
4, 960, Note_on_c, 2, 47, 0
4, 960, Note_on_c, 2, 52, 64
4, 1020, Note_on_c, 2, 52, 0
4, 1020, Note_on_c, 2, 40, 64
4, 1050, Note_on_c, 2, 40, 0
4, 1260, Note_on_c, 2, 52, 64
4, 1290, Note_on_c, 2, 52, 0
4, 1290, Note_on_c, 2, 50, 64
4, 1320, Note_on_c, 2, 50, 0
4, 1320, Note_on_c, 2, 48, 64
4, 1346, Note_on_c, 2, 47, 100
4, 1350, Note_on_c, 2, 48, 0
4, 1376, Note_on_c, 2, 47, 0
4, 1380, Note_on_c, 2, 48, 64
4, 1410, Note_on_c, 2, 48, 0
4, 1410, Note_on_c, 2, 45, 64
4, 1440, Note_on_c, 2, 45, 0
4, 1440, Note_on_c, 2, 50, 64
4, 1500, Note_on_c, 2, 50, 0
4, 1500, Note_on_c, 2, 38, 64
4, 1530, Note_on_c, 2, 38, 0
4, 1740, Note_on_c, 2, 62, 64
4, 1770, Note_on_c, 2, 62, 0
4, 1770, Note_on_c, 2, 60, 64
4, 1800, Note_on_c, 2, 60, 0
4, 1800, Note_on_c, 2, 59, 64
4, 1830, Note_on_c, 2, 59, 0
4, 1830, Note_on_c, 2, 57, 64
4, 1860, Note_on_c, 2, 57, 0
4, 1860, Note_on_c, 2, 59, 64
4, 1890, Note_on_c, 2, 59, 0
4, 1890, Note_on_c, 2, 55, 64
4, 1920, Note_on_c, 2, 55, 0
4, 1920, Note_on_c, 2, 60, 64
4, 2010, Note_on_c, 2, 60, 0
4, 2010, Note_on_c, 2, 59, 64
4, 2040, Note_on_c, 2, 59, 0
4, 2040, Note_on_c, 2, 57, 64
4, 2070, Note_on_c, 2, 57, 0
4, 2070, Note_on_c, 2, 55, 64
4, 2100, Note_on_c, 2, 55, 0
4, 2100, Note_on_c, 2, 54, 64
4, 2130, Note_on_c, 2, 54, 0
4, 2130, Note_on_c, 2, 52, 64
4, 2160, Note_on_c, 2, 52, 0
4, 2160, Note_on_c, 2, 57, 64
4, 2250, Note_on_c, 2, 57, 0
4, 2250, Note_on_c, 2, 55, 64
4, 2280, Note_on_c, 2, 55, 0
4, 2280, Note_on_c, 2, 54, 64
4, 2310, Note_on_c, 2, 54, 0
4, 2310, Note_on_c, 2, 52, 64
4, 2340, Note_on_c, 2, 52, 0
4, 2340, Note_on_c, 2, 50, 64
4, 2370, Note_on_c, 2, 50, 0
4, 2370, Note_on_c, 2, 48, 64
4, 2400, Note_on_c, 2, 48, 0
4, 2400, Note_on_c, 2, 47, 64
4, 2490, Note_on_c, 2, 47, 0
4, 2490, Note_on_c, 2, 48, 64
4, 2520, Note_on_c, 2, 48, 0
4, 2520, Note_on_c, 2, 47, 64
4, 2550, Note_on_c, 2, 47, 0
4, 2550, Note_on_c, 2, 45, 64
4, 2580, Note_on_c, 2, 45, 0
4, 2580, Note_on_c, 2, 43, 64
4, 2610, Note_on_c, 2, 43, 0
4, 2610, Note_on_c, 2, 42, 64
4, 2640, Note_on_c, 2, 42, 0
4, 2640, Note_on_c, 2, 40, 64
4, 2700, Note_on_c, 2, 40, 0
4, 2700, Note_on_c, 2, 48, 64
4, 2760, Note_on_c, 2, 48, 0
4, 2760, Note_on_c, 2, 50, 64
4, 2820, Note_on_c, 2, 50, 0
4, 2820, Note_on_c, 2, 38, 64
4, 2880, Note_on_c, 2, 38, 0
4, 2880, Note_on_c, 2, 43, 64
4, 3000, Note_on_c, 2, 43, 0
4, 3180, Note_on_c, 2, 43, 64
4, 3210, Note_on_c, 2, 43, 0
4, 3210, Note_on_c, 2, 45, 64
4, 3240, Note_on_c, 2, 45, 0
4, 3240, Note_on_c, 2, 47, 64
4, 3270, Note_on_c, 2, 47, 0
4, 3270, Note_on_c, 2, 45, 64
4, 3300, Note_on_c, 2, 45, 0
4, 3300, Note_on_c, 2, 47, 64
4, 3330, Note_on_c, 2, 47, 0
4, 3330, Note_on_c, 2, 43, 64
4, 3360, Note_on_c, 2, 43, 0
4, 3360, Note_on_c, 2, 50, 64
4, 3390, Note_on_c, 2, 50, 0
4, 3390, Note_on_c, 2, 49, 64
4, 3420, Note_on_c, 2, 49, 0
4, 3420, Note_on_c, 2, 50, 64
4, 3450, Note_on_c, 2, 50, 0
4, 3450, Note_on_c, 2, 52, 64
4, 3480, Note_on_c, 2, 52, 0
4, 3480, Note_on_c, 2, 54, 64
4, 3510, Note_on_c, 2, 54, 0
4, 3510, Note_on_c, 2, 52, 64
4, 3540, Note_on_c, 2, 52, 0
4, 3540, Note_on_c, 2, 54, 64
4, 3570, Note_on_c, 2, 54, 0
4, 3570, Note_on_c, 2, 50, 64
4, 3600, Note_on_c, 2, 50, 0
4, 3600, Note_on_c, 2, 55, 64
4, 3630, Note_on_c, 2, 55, 0
4, 3630, Note_on_c, 2, 54, 64
4, 3660, Note_on_c, 2, 54, 0
4, 3660, Note_on_c, 2, 55, 64
4, 3690, Note_on_c, 2, 55, 0
4, 3690, Note_on_c, 2, 57, 64
4, 3720, Note_on_c, 2, 57, 0
4, 3720, Note_on_c, 2, 59, 64
4, 3750, Note_on_c, 2, 59, 0
4, 3750, Note_on_c, 2, 57, 64
4, 3780, Note_on_c, 2, 57, 0
4, 3780, Note_on_c, 2, 59, 64
4, 3810, Note_on_c, 2, 59, 0
4, 3810, Note_on_c, 2, 54, 64
4, 3840, Note_on_c, 2, 54, 0
4, 3840, Note_on_c, 2, 55, 64
4, 3870, Note_on_c, 2, 55, 0
4, 3870, Note_on_c, 2, 54, 64
4, 3900, Note_on_c, 2, 54, 0
4, 3900, Note_on_c, 2, 55, 64
4, 3930, Note_on_c, 2, 55, 0
4, 3930, Note_on_c, 2, 52, 64
4, 3960, Note_on_c, 2, 52, 0
4, 3960, Note_on_c, 2, 57, 64
4, 4020, Note_on_c, 2, 57, 0
4, 4020, Note_on_c, 2, 45, 64
4, 4080, Note_on_c, 2, 45, 0
4, 4080, Note_on_c, 2, 50, 64
4, 4140, Note_on_c, 2, 50, 0
4, 4140, Note_on_c, 2, 38, 64
4, 4200, Note_on_c, 2, 38, 0
4, 4380, Note_on_c, 2, 57, 64
4, 4410, Note_on_c, 2, 57, 0
4, 4410, Note_on_c, 2, 55, 64
4, 4440, Note_on_c, 2, 55, 0
4, 4440, Note_on_c, 2, 54, 64
4, 4470, Note_on_c, 2, 54, 0
4, 4470, Note_on_c, 2, 52, 64
4, 4500, Note_on_c, 2, 52, 0
4, 4500, Note_on_c, 2, 54, 64
4, 4530, Note_on_c, 2, 54, 0
4, 4530, Note_on_c, 2, 50, 64
4, 4560, Note_on_c, 2, 50, 0
4, 4560, Note_on_c, 2, 55, 64
4, 4590, Note_on_c, 2, 55, 0
4, 4590, Note_on_c, 2, 57, 64
4, 4620, Note_on_c, 2, 57, 0
4, 4620, Note_on_c, 2, 55, 64
4, 4650, Note_on_c, 2, 55, 0
4, 4650, Note_on_c, 2, 54, 64
4, 4680, Note_on_c, 2, 54, 0
4, 4680, Note_on_c, 2, 52, 64
4, 4710, Note_on_c, 2, 52, 0
4, 4710, Note_on_c, 2, 50, 64
4, 4740, Note_on_c, 2, 50, 0
4, 4740, Note_on_c, 2, 52, 64
4, 4770, Note_on_c, 2, 52, 0
4, 4770, Note_on_c, 2, 49, 64
4, 4800, Note_on_c, 2, 49, 0
4, 4800, Note_on_c, 2, 54, 64
4, 4860, Note_on_c, 2, 54, 0
4, 4860, Note_on_c, 2, 46, 64
4, 4920, Note_on_c, 2, 46, 0
4, 4920, Note_on_c, 2, 47, 64
4, 4980, Note_on_c, 2, 47, 0
4, 4980, Note_on_c, 2, 43, 64
4, 5040, Note_on_c, 2, 43, 0
4, 5040, Note_on_c, 2, 42, 64
4, 5160, Note_on_c, 2, 42, 0
4, 5220, Note_on_c, 2, 47, 64
4, 5250, Note_on_c, 2, 47, 0
4, 5250, Note_on_c, 2, 45, 64
4, 5280, Note_on_c, 2, 45, 0
4, 5280, Note_on_c, 2, 43, 64
4, 5290, Control_c, 2, 7, 112
4, 5310, Note_on_c, 2, 43, 0
4, 5310, Note_on_c, 2, 42, 64
4, 5310, Control_c, 2, 7, 111
4, 5330, Control_c, 2, 7, 110
4, 5340, Note_on_c, 2, 42, 0
4, 5340, Note_on_c, 2, 43, 64
4, 5350, Control_c, 2, 7, 109
4, 5370, Note_on_c, 2, 43, 0
4, 5370, Note_on_c, 2, 40, 64
4, 5370, Control_c, 2, 7, 108
4, 5390, Control_c, 2, 7, 107
4, 5400, Note_on_c, 2, 40, 0
4, 5400, Note_on_c, 2, 52, 64
4, 5410, Control_c, 2, 7, 106
4, 5430, Control_c, 2, 7, 105
4, 5450, Control_c, 2, 7, 104
4, 5470, Control_c, 2, 7, 103
4, 5490, Note_on_c, 2, 52, 0
4, 5490, Note_on_c, 2, 50, 64
4, 5490, Control_c, 2, 7, 102
4, 5510, Control_c, 2, 7, 101
4, 5520, Note_on_c, 2, 50, 0
4, 5520, Note_on_c, 2, 49, 64
4, 5530, Control_c, 2, 7, 100
4, 5540, Control_c, 2, 7, 99
4, 5560, Control_c, 2, 7, 98
4, 5580, Note_on_c, 2, 49, 0
4, 5580, Note_on_c, 2, 55, 64
4, 5580, Control_c, 2, 7, 97
4, 5600, Control_c, 2, 7, 96
4, 5610, Note_on_c, 2, 55, 0
4, 5610, Note_on_c, 2, 54, 64
4, 5620, Control_c, 2, 7, 95
4, 5640, Note_on_c, 2, 54, 0
4, 5640, Note_on_c, 2, 52, 64
4, 5640, Control_c, 2, 7, 94
4, 5660, Control_c, 2, 7, 93
4, 5670, Note_on_c, 2, 52, 0
4, 5670, Note_on_c, 2, 50, 64
4, 5680, Control_c, 2, 7, 92
4, 5700, Note_on_c, 2, 50, 0
4, 5700, Note_on_c, 2, 52, 64
4, 5700, Control_c, 2, 7, 91
4, 5720, Control_c, 2, 7, 90
4, 5730, Note_on_c, 2, 52, 0
4, 5730, Note_on_c, 2, 49, 64
4, 5740, Control_c, 2, 7, 89
4, 5760, Note_on_c, 2, 49, 0
4, 5760, Note_on_c, 2, 50, 64
4, 5760, Control_c, 2, 7, 88
4, 5780, Control_c, 2, 7, 87
4, 5790, Note_on_c, 2, 50, 0
4, 5790, Note_on_c, 2, 49, 64
4, 5790, Control_c, 2, 7, 86
4, 5810, Control_c, 2, 7, 85
4, 5820, Note_on_c, 2, 49, 0
4, 5820, Note_on_c, 2, 50, 64
4, 5830, Control_c, 2, 7, 84
4, 5850, Note_on_c, 2, 50, 0
4, 5850, Note_on_c, 2, 47, 64
4, 5850, Control_c, 2, 7, 83
4, 5870, Control_c, 2, 7, 82
4, 5880, Note_on_c, 2, 47, 0
4, 5880, Note_on_c, 2, 54, 64
4, 5890, Control_c, 2, 7, 81
4, 5910, Control_c, 2, 7, 80
4, 5930, Control_c, 2, 7, 79
4, 5940, Note_on_c, 2, 54, 0
4, 5940, Note_on_c, 2, 42, 64
4, 5950, Control_c, 2, 7, 78
4, 5970, Control_c, 2, 7, 77
4, 5990, Control_c, 2, 7, 76
4, 6000, Note_on_c, 2, 42, 0
4, 6000, Note_on_c, 2, 47, 64
4, 6010, Control_c, 2, 7, 75
4, 6020, Control_c, 2, 7, 74
4, 6030, Note_on_c, 2, 47, 0
4, 6030, Note_on_c, 2, 60, 64
4, 6060, Note_on_c, 2, 60, 0
4, 6060, Note_on_c, 2, 59, 64
4, 6090, Note_on_c, 2, 59, 0
4, 6090, Note_on_c, 2, 57, 64
4, 6120, Note_on_c, 2, 57, 0
4, 6120, Note_on_c, 2, 56, 64
4, 6150, Note_on_c, 2, 56, 0
4, 6150, Note_on_c, 2, 54, 64
4, 6180, Note_on_c, 2, 54, 0
4, 6180, Note_on_c, 2, 56, 64
4, 6210, Note_on_c, 2, 56, 0
4, 6210, Note_on_c, 2, 52, 64
4, 6240, Note_on_c, 2, 52, 0
4, 6240, Note_on_c, 2, 57, 64
4, 6250, Control_c, 2, 7, 72
4, 6270, Note_on_c, 2, 57, 0
4, 6270, Note_on_c, 2, 59, 64
4, 6300, Note_on_c, 2, 59, 0
4, 6300, Note_on_c, 2, 57, 64
4, 6300, Control_c, 2, 7, 73
4, 6330, Note_on_c, 2, 57, 0
4, 6330, Note_on_c, 2, 55, 64
4, 6350, Control_c, 2, 7, 74
4, 6360, Note_on_c, 2, 55, 0
4, 6360, Note_on_c, 2, 54, 64
4, 6390, Note_on_c, 2, 54, 0
4, 6390, Note_on_c, 2, 52, 64
4, 6400, Control_c, 2, 7, 75
4, 6420, Note_on_c, 2, 52, 0
4, 6420, Note_on_c, 2, 54, 64
4, 6450, Note_on_c, 2, 54, 0
4, 6450, Note_on_c, 2, 50, 64
4, 6450, Control_c, 2, 7, 76
4, 6480, Note_on_c, 2, 50, 0
4, 6480, Note_on_c, 2, 55, 64
4, 6500, Control_c, 2, 7, 77
4, 6510, Note_on_c, 2, 55, 0
4, 6510, Note_on_c, 2, 57, 64
4, 6540, Note_on_c, 2, 57, 0
4, 6540, Note_on_c, 2, 55, 64
4, 6550, Control_c, 2, 7, 78
4, 6570, Note_on_c, 2, 55, 0
4, 6570, Note_on_c, 2, 54, 64
4, 6600, Note_on_c, 2, 54, 0
4, 6600, Note_on_c, 2, 52, 64
4, 6600, Control_c, 2, 7, 79
4, 6630, Note_on_c, 2, 52, 0
4, 6630, Note_on_c, 2, 50, 64
4, 6640, Control_c, 2, 7, 80
4, 6660, Note_on_c, 2, 50, 0
4, 6660, Note_on_c, 2, 52, 64
4, 6690, Note_on_c, 2, 52, 0
4, 6690, Note_on_c, 2, 49, 64
4, 6690, Control_c, 2, 7, 81
4, 6720, Note_on_c, 2, 49, 0
4, 6720, Note_on_c, 2, 51, 64
4, 6740, Control_c, 2, 7, 82
4, 6750, Note_on_c, 2, 51, 0
4, 6750, Note_on_c, 2, 49, 64
4, 6780, Note_on_c, 2, 49, 0
4, 6780, Note_on_c, 2, 51, 64
4, 6790, Control_c, 2, 7, 83
4, 6810, Note_on_c, 2, 51, 0
4, 6810, Note_on_c, 2, 47, 64
4, 6840, Note_on_c, 2, 47, 0
4, 6840, Note_on_c, 2, 52, 64
4, 6840, Control_c, 2, 7, 84
4, 6870, Note_on_c, 2, 52, 0
4, 6870, Note_on_c, 2, 51, 64
4, 6890, Control_c, 2, 7, 85
4, 6900, Note_on_c, 2, 51, 0
4, 6900, Note_on_c, 2, 52, 64
4, 6930, Note_on_c, 2, 52, 0
4, 6930, Note_on_c, 2, 40, 64
4, 6940, Control_c, 2, 7, 86
4, 6960, Note_on_c, 2, 40, 0
4, 6960, Note_on_c, 2, 47, 64
4, 6975, Note_on_c, 2, 47, 0
4, 6975, Note_on_c, 2, 48, 64
4, 6990, Note_on_c, 2, 48, 0
4, 6990, Note_on_c, 2, 47, 64
4, 6990, Control_c, 2, 7, 87
4, 7005, Note_on_c, 2, 47, 0
4, 7005, Note_on_c, 2, 48, 64
4, 7020, Note_on_c, 2, 48, 0
4, 7020, Note_on_c, 2, 47, 64
4, 7030, Control_c, 2, 7, 88
4, 7035, Note_on_c, 2, 47, 0
4, 7035, Note_on_c, 2, 48, 64
4, 7050, Note_on_c, 2, 48, 0
4, 7050, Note_on_c, 2, 47, 64
4, 7065, Note_on_c, 2, 47, 0
4, 7065, Note_on_c, 2, 48, 64
4, 7080, Note_on_c, 2, 48, 0
4, 7080, Note_on_c, 2, 47, 64
4, 7080, Control_c, 2, 7, 89
4, 7095, Note_on_c, 2, 47, 0
4, 7095, Note_on_c, 2, 48, 64
4, 7110, Note_on_c, 2, 48, 0
4, 7110, Note_on_c, 2, 47, 64
4, 7125, Note_on_c, 2, 47, 0
4, 7125, Note_on_c, 2, 48, 64
4, 7130, Control_c, 2, 7, 90
4, 7140, Note_on_c, 2, 48, 0
4, 7140, Note_on_c, 2, 47, 64
4, 7155, Note_on_c, 2, 47, 0
4, 7155, Note_on_c, 2, 48, 64
4, 7170, Note_on_c, 2, 48, 0
4, 7170, Note_on_c, 2, 47, 64
4, 7180, Control_c, 2, 7, 91
4, 7185, Note_on_c, 2, 47, 0
4, 7185, Note_on_c, 2, 48, 64
4, 7200, Note_on_c, 2, 48, 0
4, 7200, Note_on_c, 2, 47, 64
4, 7215, Note_on_c, 2, 47, 0
4, 7215, Note_on_c, 2, 48, 64
4, 7230, Note_on_c, 2, 48, 0
4, 7230, Note_on_c, 2, 47, 64
4, 7230, Control_c, 2, 7, 92
4, 7245, Note_on_c, 2, 47, 0
4, 7245, Note_on_c, 2, 48, 64
4, 7260, Note_on_c, 2, 48, 0
4, 7260, Note_on_c, 2, 47, 64
4, 7275, Note_on_c, 2, 47, 0
4, 7275, Note_on_c, 2, 48, 64
4, 7280, Control_c, 2, 7, 93
4, 7290, Note_on_c, 2, 48, 0
4, 7290, Note_on_c, 2, 47, 64
4, 7305, Note_on_c, 2, 47, 0
4, 7305, Note_on_c, 2, 48, 64
4, 7320, Note_on_c, 2, 48, 0
4, 7320, Note_on_c, 2, 47, 64
4, 7330, Control_c, 2, 7, 94
4, 7335, Note_on_c, 2, 47, 0
4, 7335, Note_on_c, 2, 48, 64
4, 7350, Note_on_c, 2, 48, 0
4, 7350, Note_on_c, 2, 47, 64
4, 7365, Note_on_c, 2, 47, 0
4, 7365, Note_on_c, 2, 48, 64
4, 7370, Control_c, 2, 7, 95
4, 7380, Note_on_c, 2, 48, 0
4, 7380, Note_on_c, 2, 47, 64
4, 7395, Note_on_c, 2, 47, 0
4, 7395, Note_on_c, 2, 48, 64
4, 7410, Note_on_c, 2, 48, 0
4, 7410, Note_on_c, 2, 47, 64
4, 7420, Control_c, 2, 7, 96
4, 7425, Note_on_c, 2, 47, 0
4, 7425, Note_on_c, 2, 48, 64
4, 7440, Note_on_c, 2, 48, 0
4, 7440, Note_on_c, 2, 47, 64
4, 7455, Note_on_c, 2, 47, 0
4, 7455, Note_on_c, 2, 48, 64
4, 7470, Note_on_c, 2, 48, 0
4, 7470, Note_on_c, 2, 47, 64
4, 7470, Control_c, 2, 7, 97
4, 7485, Note_on_c, 2, 47, 0
4, 7485, Note_on_c, 2, 48, 64
4, 7500, Note_on_c, 2, 48, 0
4, 7500, Note_on_c, 2, 47, 64
4, 7515, Note_on_c, 2, 47, 0
4, 7515, Note_on_c, 2, 48, 64
4, 7520, Control_c, 2, 7, 98
4, 7530, Note_on_c, 2, 48, 0
4, 7530, Note_on_c, 2, 47, 64
4, 7545, Note_on_c, 2, 47, 0
4, 7545, Note_on_c, 2, 48, 64
4, 7560, Note_on_c, 2, 48, 0
4, 7560, Note_on_c, 2, 47, 64
4, 7570, Control_c, 2, 7, 99
4, 7575, Note_on_c, 2, 47, 0
4, 7575, Note_on_c, 2, 48, 64
4, 7590, Note_on_c, 2, 48, 0
4, 7590, Note_on_c, 2, 47, 64
4, 7605, Note_on_c, 2, 47, 0
4, 7605, Note_on_c, 2, 48, 64
4, 7620, Note_on_c, 2, 48, 0
4, 7620, Note_on_c, 2, 47, 64
4, 7620, Control_c, 2, 7, 100
4, 7635, Note_on_c, 2, 47, 0
4, 7635, Note_on_c, 2, 48, 64
4, 7650, Note_on_c, 2, 48, 0
4, 7650, Note_on_c, 2, 47, 64
4, 7665, Note_on_c, 2, 47, 0
4, 7665, Note_on_c, 2, 48, 64
4, 7670, Control_c, 2, 7, 101
4, 7680, Note_on_c, 2, 48, 0
4, 7680, Note_on_c, 2, 47, 64
4, 7695, Note_on_c, 2, 47, 0
4, 7695, Note_on_c, 2, 48, 64
4, 7710, Note_on_c, 2, 48, 0
4, 7710, Note_on_c, 2, 47, 64
4, 7720, Control_c, 2, 7, 102
4, 7725, Note_on_c, 2, 47, 0
4, 7725, Note_on_c, 2, 48, 64
4, 7740, Note_on_c, 2, 48, 0
4, 7740, Note_on_c, 2, 47, 64
4, 7755, Note_on_c, 2, 47, 0
4, 7755, Note_on_c, 2, 48, 64
4, 7760, Control_c, 2, 7, 103
4, 7770, Note_on_c, 2, 48, 0
4, 7770, Note_on_c, 2, 47, 64
4, 7785, Note_on_c, 2, 47, 0
4, 7785, Note_on_c, 2, 48, 64
4, 7800, Note_on_c, 2, 48, 0
4, 7800, Note_on_c, 2, 47, 64
4, 7810, Control_c, 2, 7, 104
4, 7815, Note_on_c, 2, 47, 0
4, 7815, Note_on_c, 2, 48, 64
4, 7830, Note_on_c, 2, 48, 0
4, 7830, Note_on_c, 2, 47, 64
4, 7845, Note_on_c, 2, 47, 0
4, 7845, Note_on_c, 2, 48, 64
4, 7860, Note_on_c, 2, 48, 0
4, 7860, Note_on_c, 2, 47, 64
4, 7860, Control_c, 2, 7, 105
4, 7875, Note_on_c, 2, 47, 0
4, 7875, Note_on_c, 2, 48, 64
4, 7890, Note_on_c, 2, 48, 0
4, 7890, Note_on_c, 2, 47, 64
4, 7905, Note_on_c, 2, 47, 0
4, 7905, Note_on_c, 2, 48, 64
4, 7910, Control_c, 2, 7, 106
4, 7920, Note_on_c, 2, 48, 0
4, 7920, Note_on_c, 2, 47, 64
4, 7935, Note_on_c, 2, 47, 0
4, 7935, Note_on_c, 2, 48, 64
4, 7950, Note_on_c, 2, 48, 0
4, 7950, Note_on_c, 2, 47, 64
4, 7960, Control_c, 2, 7, 107
4, 7965, Note_on_c, 2, 47, 0
4, 7965, Note_on_c, 2, 48, 64
4, 7980, Note_on_c, 2, 48, 0
4, 7980, Note_on_c, 2, 47, 64
4, 7995, Note_on_c, 2, 47, 0
4, 7995, Note_on_c, 2, 48, 64
4, 8010, Note_on_c, 2, 48, 0
4, 8010, Note_on_c, 2, 47, 64
4, 8010, Control_c, 2, 7, 108
4, 8025, Note_on_c, 2, 47, 0
4, 8025, Note_on_c, 2, 48, 64
4, 8040, Note_on_c, 2, 48, 0
4, 8042, Note_on_c, 2, 47, 100
4, 8060, Control_c, 2, 7, 109
4, 8070, Note_on_c, 2, 48, 64
4, 8072, Note_on_c, 2, 47, 0
4, 8100, Note_on_c, 2, 48, 0
4, 8100, Note_on_c, 2, 47, 64
4, 8100, Control_c, 2, 7, 110
4, 8120, Control_c, 2, 7, 105
4, 8130, Note_on_c, 2, 47, 0
4, 8130, Note_on_c, 2, 45, 64
4, 8160, Note_on_c, 2, 45, 0
4, 8160, Note_on_c, 2, 43, 64
4, 8170, Control_c, 2, 7, 106
4, 8190, Note_on_c, 2, 43, 0
4, 8190, Note_on_c, 2, 42, 64
4, 8220, Note_on_c, 2, 42, 0
4, 8220, Note_on_c, 2, 43, 64
4, 8230, Control_c, 2, 7, 107
4, 8250, Note_on_c, 2, 43, 0
4, 8250, Note_on_c, 2, 47, 64
4, 8280, Note_on_c, 2, 47, 0
4, 8280, Note_on_c, 2, 52, 64
4, 8290, Control_c, 2, 7, 108
4, 8310, Note_on_c, 2, 52, 0
4, 8310, Note_on_c, 2, 47, 64
4, 8340, Note_on_c, 2, 47, 0
4, 8340, Note_on_c, 2, 45, 64
4, 8350, Control_c, 2, 7, 109
4, 8370, Note_on_c, 2, 45, 0
4, 8370, Note_on_c, 2, 43, 64
4, 8400, Note_on_c, 2, 43, 0
4, 8400, Note_on_c, 2, 42, 64
4, 8400, Control_c, 2, 7, 110
4, 8430, Note_on_c, 2, 42, 0
4, 8430, Note_on_c, 2, 40, 64
4, 8460, Note_on_c, 2, 40, 0
4, 8460, Note_on_c, 2, 42, 64
4, 8490, Note_on_c, 2, 42, 0
4, 8490, Note_on_c, 2, 45, 64
4, 8520, Note_on_c, 2, 45, 0
4, 8520, Note_on_c, 2, 51, 64
4, 8550, Note_on_c, 2, 51, 0
4, 8550, Note_on_c, 2, 45, 64
4, 8580, Note_on_c, 2, 45, 0
4, 8580, Note_on_c, 2, 43, 64
4, 8610, Note_on_c, 2, 43, 0
4, 8610, Note_on_c, 2, 42, 64
4, 8640, Note_on_c, 2, 42, 0
4, 8640, Note_on_c, 2, 40, 64
4, 8670, Note_on_c, 2, 40, 0
4, 8670, Note_on_c, 2, 39, 64
4, 8700, Note_on_c, 2, 39, 0
4, 8700, Note_on_c, 2, 40, 64
4, 8730, Note_on_c, 2, 40, 0
4, 8730, Note_on_c, 2, 43, 64
4, 8760, Note_on_c, 2, 43, 0
4, 8760, Note_on_c, 2, 48, 64
4, 8790, Note_on_c, 2, 48, 0
4, 8790, Note_on_c, 2, 43, 64
4, 8820, Note_on_c, 2, 43, 0
4, 8820, Note_on_c, 2, 42, 64
4, 8850, Note_on_c, 2, 42, 0
4, 8850, Note_on_c, 2, 40, 64
4, 8880, Note_on_c, 2, 40, 0
4, 8880, Note_on_c, 2, 39, 64
4, 8940, Note_on_c, 2, 39, 0
4, 8940, Note_on_c, 2, 47, 64
4, 8970, Note_on_c, 2, 47, 0
4, 9100, Control_c, 2, 7, 80
4, 9130, Control_c, 2, 7, 81
4, 9150, Note_on_c, 2, 55, 64
4, 9160, Control_c, 2, 7, 82
4, 9180, Note_on_c, 2, 55, 0
4, 9180, Note_on_c, 2, 54, 64
4, 9190, Control_c, 2, 7, 83
4, 9210, Note_on_c, 2, 54, 0
4, 9210, Note_on_c, 2, 52, 64
4, 9220, Control_c, 2, 7, 84
4, 9240, Note_on_c, 2, 52, 0
4, 9240, Note_on_c, 2, 51, 64
4, 9250, Control_c, 2, 7, 85
4, 9270, Note_on_c, 2, 51, 0
4, 9270, Note_on_c, 2, 49, 64
4, 9280, Control_c, 2, 7, 86
4, 9300, Note_on_c, 2, 49, 0
4, 9300, Note_on_c, 2, 51, 64
4, 9310, Control_c, 2, 7, 87
4, 9330, Note_on_c, 2, 51, 0
4, 9330, Note_on_c, 2, 47, 64
4, 9340, Control_c, 2, 7, 88
4, 9360, Note_on_c, 2, 47, 0
4, 9360, Note_on_c, 2, 52, 64
4, 9370, Control_c, 2, 7, 89
4, 9390, Note_on_c, 2, 52, 0
4, 9390, Note_on_c, 2, 50, 64
4, 9390, Control_c, 2, 7, 90
4, 9420, Note_on_c, 2, 50, 0
4, 9420, Note_on_c, 2, 48, 64
4, 9420, Control_c, 2, 7, 91
4, 9450, Note_on_c, 2, 48, 0
4, 9450, Note_on_c, 2, 47, 64
4, 9450, Control_c, 2, 7, 92
4, 9480, Note_on_c, 2, 47, 0
4, 9480, Note_on_c, 2, 45, 64
4, 9480, Control_c, 2, 7, 93
4, 9510, Note_on_c, 2, 45, 0
4, 9510, Note_on_c, 2, 43, 64
4, 9510, Control_c, 2, 7, 94
4, 9540, Note_on_c, 2, 43, 0
4, 9540, Note_on_c, 2, 45, 64
4, 9540, Control_c, 2, 7, 95
4, 9570, Note_on_c, 2, 45, 0
4, 9570, Note_on_c, 2, 42, 64
4, 9570, Control_c, 2, 7, 96
4, 9600, Note_on_c, 2, 42, 0
4, 9600, Note_on_c, 2, 43, 64
4, 9600, Control_c, 2, 7, 97
4, 9630, Note_on_c, 2, 43, 0
4, 9630, Note_on_c, 2, 45, 64
4, 9630, Control_c, 2, 7, 98
4, 9650, Control_c, 2, 7, 99
4, 9660, Note_on_c, 2, 45, 0
4, 9660, Note_on_c, 2, 43, 64
4, 9680, Control_c, 2, 7, 100
4, 9690, Note_on_c, 2, 43, 0
4, 9690, Note_on_c, 2, 42, 64
4, 9710, Control_c, 2, 7, 101
4, 9720, Note_on_c, 2, 42, 0
4, 9720, Note_on_c, 2, 40, 64
4, 9740, Control_c, 2, 7, 102
4, 9750, Note_on_c, 2, 40, 0
4, 9750, Note_on_c, 2, 38, 64
4, 9770, Control_c, 2, 7, 103
4, 9780, Note_on_c, 2, 38, 0
4, 9780, Note_on_c, 2, 40, 64
4, 9800, Control_c, 2, 7, 104
4, 9810, Note_on_c, 2, 40, 0
4, 9810, Note_on_c, 2, 36, 64
4, 9830, Control_c, 2, 7, 105
4, 9840, Note_on_c, 2, 36, 0
4, 9840, Note_on_c, 2, 45, 64
4, 9860, Control_c, 2, 7, 106
4, 9870, Note_on_c, 2, 45, 0
4, 9870, Note_on_c, 2, 43, 64
4, 9890, Control_c, 2, 7, 107
4, 9900, Note_on_c, 2, 43, 0
4, 9900, Note_on_c, 2, 45, 64
4, 9910, Control_c, 2, 7, 108
4, 9930, Note_on_c, 2, 45, 0
4, 9930, Note_on_c, 2, 42, 64
4, 9960, Note_on_c, 2, 42, 0
4, 9960, Note_on_c, 2, 47, 64
4, 9990, Note_on_c, 2, 47, 0
4, 9990, Note_on_c, 2, 45, 64
4, 10020, Note_on_c, 2, 45, 0
4, 10020, Note_on_c, 2, 47, 64
4, 10050, Note_on_c, 2, 47, 0
4, 10050, Note_on_c, 2, 43, 64
4, 10080, Note_on_c, 2, 43, 0
4, 10080, Note_on_c, 2, 48, 64
4, 10340, Control_c, 2, 7, 108
4, 10350, Note_on_c, 2, 48, 0
4, 10350, Note_on_c, 2, 60, 64
4, 10360, Control_c, 2, 7, 107
4, 10380, Note_on_c, 2, 60, 0
4, 10380, Note_on_c, 2, 59, 64
4, 10380, Control_c, 2, 7, 106
4, 10400, Control_c, 2, 7, 105
4, 10410, Note_on_c, 2, 59, 0
4, 10410, Note_on_c, 2, 57, 64
4, 10410, Control_c, 2, 7, 104
4, 10430, Control_c, 2, 7, 103
4, 10440, Note_on_c, 2, 57, 0
4, 10440, Note_on_c, 2, 55, 64
4, 10450, Control_c, 2, 7, 102
4, 10460, Control_c, 2, 7, 101
4, 10470, Note_on_c, 2, 55, 0
4, 10470, Note_on_c, 2, 54, 64
4, 10480, Control_c, 2, 7, 100
4, 10500, Note_on_c, 2, 54, 0
4, 10500, Note_on_c, 2, 55, 64
4, 10500, Control_c, 2, 7, 99
4, 10510, Control_c, 2, 7, 98
4, 10530, Note_on_c, 2, 55, 0
4, 10530, Note_on_c, 2, 52, 64
4, 10530, Control_c, 2, 7, 97
4, 10550, Control_c, 2, 7, 96
4, 10560, Note_on_c, 2, 52, 0
4, 10560, Note_on_c, 2, 51, 64
4, 10560, Control_c, 2, 7, 95
4, 10580, Control_c, 2, 7, 94
4, 10600, Control_c, 2, 7, 93
4, 10610, Control_c, 2, 7, 92
4, 10620, Note_on_c, 2, 51, 0
4, 10620, Note_on_c, 2, 52, 64
4, 10630, Control_c, 2, 7, 91
4, 10650, Control_c, 2, 7, 90
4, 10660, Control_c, 2, 7, 89
4, 10680, Note_on_c, 2, 52, 0
4, 10680, Note_on_c, 2, 59, 64
4, 10680, Control_c, 2, 7, 88
4, 10700, Control_c, 2, 7, 87
4, 10720, Control_c, 2, 7, 86
4, 10730, Control_c, 2, 7, 85
4, 10740, Note_on_c, 2, 59, 0
4, 10740, Note_on_c, 2, 47, 64
4, 10750, Control_c, 2, 7, 84
4, 10770, Control_c, 2, 7, 83
4, 10780, Control_c, 2, 7, 82
4, 10795, Note_on_c, 2, 52, 100
4, 10800, Note_on_c, 2, 47, 0
4, 10800, Control_c, 2, 7, 81
4, 10820, Control_c, 2, 7, 80
4, 10830, Control_c, 2, 7, 79
4, 10850, Control_c, 2, 7, 78
4, 10870, Control_c, 2, 7, 77
4, 10880, Control_c, 2, 7, 76
4, 10900, Control_c, 2, 7, 75
4, 10920, Control_c, 2, 7, 74
4, 10930, Control_c, 2, 7, 73
4, 10950, Control_c, 2, 7, 72
4, 10970, Control_c, 2, 7, 71
4, 10980, Control_c, 2, 7, 70
4, 11000, Control_c, 2, 7, 69
4, 11020, Control_c, 2, 7, 68
4, 11030, Control_c, 2, 7, 67
4, 11035, Note_on_c, 2, 52, 0
4, 11035, End_track
0, 0, End_of_file