0, 0, Header, 1, 25, 384
1, 0, Start_track
1, 0, Time_signature, 3, 2, 96, 8
1, 0, Sequencer_specific, 03, 00, 00, 41
1, 0, Tempo, 833333
1, 38784, Tempo, 857142
1, 41472, Tempo, 833333
1, 52992, Tempo, 857142
1, 54144, Tempo, 909090
1, 54528, Tempo, 1000000
1, 55296, Time_signature, 1, 3, 96, 8
1, 55296, Tempo, 1666666
1, 55488, Time_signature, 3, 2, 96, 8
1, 55488, Tempo, 857142
1, 92352, Tempo, 833333
1, 131136, Tempo, 857142
1, 133824, Tempo, 833333
1, 145344, Tempo, 882352
1, 146496, Tempo, 937500
1, 146880, Tempo, 1200000
1, 146880, End_track
2, 0, Start_track
2, 0, Title_t, "Flute I"
2, 0, Control_c, 0, 0, 0
2, 0, Program_c, 0, 74
2, 0, Control_c, 0, 10, 42
2, 0, Key_signature, -3, "major"
2, 0, Control_c, 0, 7, 127
2, 0, Note_on_c, 0, 75, 75
2, 188, Note_off_c, 0, 75, 0
2, 192, Note_on_c, 0, 77, 75
2, 284, Note_off_c, 0, 77, 0
2, 288, Note_on_c, 0, 79, 75
2, 380, Note_off_c, 0, 79, 0
2, 384, Note_on_c, 0, 77, 75
2, 572, Note_off_c, 0, 77, 0
2, 576, Note_on_c, 0, 75, 75
2, 764, Note_off_c, 0, 75, 0
2, 768, Note_on_c, 0, 74, 75
2, 956, Note_off_c, 0, 74, 0
2, 960, Note_on_c, 0, 72, 75
2, 1148, Note_off_c, 0, 72, 0
2, 1152, Note_on_c, 0, 71, 75
2, 2208, Note_off_c, 0, 71, 0
2, 2304, Note_on_c, 0, 70, 75
2, 2492, Note_off_c, 0, 70, 0
2, 2496, Note_on_c, 0, 72, 75
2, 2588, Note_off_c, 0, 72, 0
2, 2592, Note_on_c, 0, 73, 75
2, 2684, Note_off_c, 0, 73, 0
2, 2688, Note_on_c, 0, 73, 75
2, 2876, Note_off_c, 0, 73, 0
2, 2880, Note_on_c, 0, 72, 75
2, 3068, Note_off_c, 0, 72, 0
2, 3072, Note_on_c, 0, 72, 75
2, 3260, Note_off_c, 0, 72, 0
2, 3264, Note_on_c, 0, 70, 75
2, 3452, Note_off_c, 0, 70, 0
2, 3456, Note_on_c, 0, 70, 75
2, 3548, Note_off_c, 0, 70, 0
2, 3552, Note_on_c, 0, 68, 75
2, 3644, Note_off_c, 0, 68, 0
2, 3648, Note_on_c, 0, 67, 75
2, 3836, Note_off_c, 0, 67, 0
2, 3840, Note_on_c, 0, 68, 75
2, 4512, Note_off_c, 0, 68, 0
2, 4608, Note_on_c, 0, 67, 75
2, 4796, Note_off_c, 0, 67, 0
2, 4800, Note_on_c, 0, 67, 75
2, 4988, Note_off_c, 0, 67, 0
2, 4992, Note_on_c, 0, 77, 75
2, 5948, Note_off_c, 0, 77, 0
2, 5952, Note_on_c, 0, 74, 75
2, 6140, Note_off_c, 0, 74, 0
2, 6144, Note_on_c, 0, 75, 75
2, 6332, Note_off_c, 0, 75, 0
2, 6336, Note_on_c, 0, 72, 75
2, 6524, Note_off_c, 0, 72, 0
2, 6528, Note_on_c, 0, 70, 75
2, 6716, Note_off_c, 0, 70, 0
2, 6720, Note_on_c, 0, 68, 75
2, 7100, Note_off_c, 0, 68, 0
2, 7104, Note_on_c, 0, 65, 75
2, 7292, Note_off_c, 0, 65, 0
2, 7296, Note_on_c, 0, 67, 75
2, 7484, Note_off_c, 0, 67, 0
2, 7488, Note_on_c, 0, 72, 75
2, 7676, Note_off_c, 0, 72, 0
2, 7680, Note_on_c, 0, 70, 75
2, 7868, Note_off_c, 0, 70, 0
2, 7872, Note_on_c, 0, 68, 75
2, 8060, Note_off_c, 0, 68, 0
2, 8064, Note_on_c, 0, 67, 75
2, 8256, Note_off_c, 0, 67, 0
2, 8256, Note_on_c, 0, 65, 75
2, 8576, Note_off_c, 0, 65, 0
2, 8640, Control_c, 0, 10, 32
2, 8640, Note_on_c, 0, 74, 60
2, 8832, Note_off_c, 0, 74, 0
2, 8832, Note_on_c, 0, 75, 60
2, 9024, Note_off_c, 0, 75, 0
2, 9024, Note_on_c, 0, 72, 60
2, 9212, Note_off_c, 0, 72, 0
2, 9216, Note_on_c, 0, 69, 60
2, 9408, Note_off_c, 0, 69, 0
2, 9408, Note_on_c, 0, 70, 60
2, 9596, Note_off_c, 0, 70, 0
2, 9600, Note_on_c, 0, 70, 60
2, 9788, Note_off_c, 0, 70, 0
2, 9792, Control_c, 0, 10, 96
2, 9792, Note_on_c, 0, 74, 60
2, 9984, Note_off_c, 0, 74, 0
2, 9984, Note_on_c, 0, 75, 60
2, 10176, Note_off_c, 0, 75, 0
2, 10176, Note_on_c, 0, 72, 60
2, 10364, Note_off_c, 0, 72, 0
2, 10368, Note_on_c, 0, 69, 60
2, 10688, Note_off_c, 0, 69, 0
2, 10752, Note_on_c, 0, 70, 60
2, 10940, Note_off_c, 0, 70, 0
2, 10944, Control_c, 0, 10, 32
2, 10944, Note_on_c, 0, 80, 92
2, 11132, Note_off_c, 0, 80, 0
2, 11136, Note_on_c, 0, 79, 92
2, 11324, Note_off_c, 0, 79, 0
2, 11328, Note_on_c, 0, 77, 92
2, 11516, Note_off_c, 0, 77, 0
2, 11520, Note_on_c, 0, 74, 92
2, 11708, Note_off_c, 0, 74, 0
2, 11712, Note_on_c, 0, 75, 92
2, 11900, Note_off_c, 0, 75, 0
2, 11904, Note_on_c, 0, 70, 92
2, 12092, Note_off_c, 0, 70, 0
2, 12096, Note_on_c, 0, 68, 92
2, 12284, Note_off_c, 0, 68, 0
2, 12288, Note_on_c, 0, 67, 92
2, 12476, Note_off_c, 0, 67, 0
2, 12480, Note_on_c, 0, 65, 92
2, 12668, Note_off_c, 0, 65, 0
2, 12672, Note_on_c, 0, 63, 92
2, 13728, Note_off_c, 0, 63, 0
2, 13824, Note_on_c, 0, 75, 75
2, 14012, Note_off_c, 0, 75, 0
2, 14016, Note_on_c, 0, 77, 75
2, 14108, Note_off_c, 0, 77, 0
2, 14112, Note_on_c, 0, 79, 75
2, 14204, Note_off_c, 0, 79, 0
2, 14208, Note_on_c, 0, 77, 75
2, 14396, Note_off_c, 0, 77, 0
2, 14400, Note_on_c, 0, 75, 75
2, 14588, Note_off_c, 0, 75, 0
2, 14592, Note_on_c, 0, 74, 75
2, 14780, Note_off_c, 0, 74, 0
2, 14784, Note_on_c, 0, 72, 75
2, 14972, Note_off_c, 0, 72, 0
2, 14976, Note_on_c, 0, 71, 75
2, 15068, Note_off_c, 0, 71, 0
2, 15072, Note_on_c, 0, 69, 75
2, 15164, Note_off_c, 0, 69, 0
2, 15168, Note_on_c, 0, 71, 75
2, 16032, Note_off_c, 0, 71, 0
2, 16128, Note_on_c, 0, 70, 75
2, 16316, Note_off_c, 0, 70, 0
2, 16320, Note_on_c, 0, 72, 75
2, 16412, Note_off_c, 0, 72, 0
2, 16416, Note_on_c, 0, 73, 75
2, 16508, Note_off_c, 0, 73, 0
2, 16512, Note_on_c, 0, 73, 75
2, 16700, Note_off_c, 0, 73, 0
2, 16704, Note_on_c, 0, 72, 75
2, 16892, Note_off_c, 0, 72, 0
2, 16896, Note_on_c, 0, 72, 75
2, 17084, Note_off_c, 0, 72, 0
2, 17088, Note_on_c, 0, 70, 75
2, 17276, Note_off_c, 0, 70, 0
2, 17280, Note_on_c, 0, 70, 75
2, 17372, Note_off_c, 0, 70, 0
2, 17376, Note_on_c, 0, 68, 75
2, 17468, Note_off_c, 0, 68, 0
2, 17472, Note_on_c, 0, 67, 75
2, 17660, Note_off_c, 0, 67, 0
2, 17664, Note_on_c, 0, 68, 75
2, 18336, Note_off_c, 0, 68, 0
2, 18432, Note_on_c, 0, 67, 75
2, 18620, Note_off_c, 0, 67, 0
2, 18624, Note_on_c, 0, 67, 75
2, 18812, Note_off_c, 0, 67, 0
2, 18816, Note_on_c, 0, 77, 75
2, 19772, Note_off_c, 0, 77, 0
2, 19776, Note_on_c, 0, 74, 75
2, 19964, Note_off_c, 0, 74, 0
2, 19968, Note_on_c, 0, 75, 75
2, 20156, Note_off_c, 0, 75, 0
2, 20160, Note_on_c, 0, 72, 75
2, 20348, Note_off_c, 0, 72, 0
2, 20352, Note_on_c, 0, 70, 75
2, 20540, Note_off_c, 0, 70, 0
2, 20544, Note_on_c, 0, 68, 75
2, 20924, Note_off_c, 0, 68, 0
2, 20928, Note_on_c, 0, 65, 75
2, 21116, Note_off_c, 0, 65, 0
2, 21120, Note_on_c, 0, 67, 75
2, 21308, Note_off_c, 0, 67, 0
2, 21312, Note_on_c, 0, 72, 75
2, 21500, Note_off_c, 0, 72, 0
2, 21504, Note_on_c, 0, 70, 75
2, 21692, Note_off_c, 0, 70, 0
2, 21696, Note_on_c, 0, 68, 75
2, 21884, Note_off_c, 0, 68, 0
2, 21888, Note_on_c, 0, 67, 75
2, 22076, Note_off_c, 0, 67, 0
2, 22080, Note_on_c, 0, 65, 75
2, 22460, Note_off_c, 0, 65, 0
2, 22464, Note_on_c, 0, 74, 60
2, 22652, Note_off_c, 0, 74, 0
2, 22656, Note_on_c, 0, 75, 60
2, 22844, Note_off_c, 0, 75, 0
2, 22848, Note_on_c, 0, 72, 60
2, 23036, Note_off_c, 0, 72, 0
2, 23040, Note_on_c, 0, 69, 60
2, 23228, Note_off_c, 0, 69, 0
2, 23232, Note_on_c, 0, 70, 60
2, 23612, Note_off_c, 0, 70, 0
2, 23616, Note_on_c, 0, 74, 60
2, 23804, Note_off_c, 0, 74, 0
2, 23808, Note_on_c, 0, 75, 60
2, 23996, Note_off_c, 0, 75, 0
2, 24000, Note_on_c, 0, 72, 60
2, 24188, Note_off_c, 0, 72, 0
2, 24192, Note_on_c, 0, 69, 60
2, 24512, Note_off_c, 0, 69, 0
2, 24576, Note_on_c, 0, 70, 60
2, 24764, Note_off_c, 0, 70, 0
2, 24768, Note_on_c, 0, 80, 92
2, 24956, Note_off_c, 0, 80, 0
2, 24960, Note_on_c, 0, 79, 92
2, 25148, Note_off_c, 0, 79, 0
2, 25152, Note_on_c, 0, 77, 92
2, 25340, Note_off_c, 0, 77, 0
2, 25344, Note_on_c, 0, 74, 92
2, 25532, Note_off_c, 0, 74, 0
2, 25536, Note_on_c, 0, 75, 92
2, 25724, Note_off_c, 0, 75, 0
2, 25728, Note_on_c, 0, 70, 92
2, 25916, Note_off_c, 0, 70, 0
2, 25920, Note_on_c, 0, 68, 92
2, 26108, Note_off_c, 0, 68, 0
2, 26112, Note_on_c, 0, 67, 92
2, 26300, Note_off_c, 0, 67, 0
2, 26304, Note_on_c, 0, 65, 92
2, 26492, Note_off_c, 0, 65, 0
2, 26496, Note_on_c, 0, 63, 60
2, 27552, Note_off_c, 0, 63, 0
2, 27648, Note_on_c, 0, 67, 60
2, 28320, Note_off_c, 0, 67, 0
2, 28800, Note_on_c, 0, 70, 75
2, 29472, Note_off_c, 0, 70, 0
2, 29952, Note_on_c, 0, 73, 75
2, 30140, Note_off_c, 0, 73, 0
2, 30144, Note_on_c, 0, 75, 75
2, 30236, Note_off_c, 0, 75, 0
2, 30240, Note_on_c, 0, 77, 75
2, 30332, Note_off_c, 0, 77, 0
2, 30336, Note_on_c, 0, 77, 75
2, 30524, Note_off_c, 0, 77, 0
2, 30528, Note_on_c, 0, 75, 75
2, 30716, Note_off_c, 0, 75, 0
2, 30720, Note_on_c, 0, 75, 75
2, 30908, Note_off_c, 0, 75, 0
2, 30912, Note_on_c, 0, 73, 75
2, 31100, Note_off_c, 0, 73, 0
2, 31104, Note_on_c, 0, 73, 75
2, 31196, Note_off_c, 0, 73, 0
2, 31200, Note_on_c, 0, 72, 75
2, 31292, Note_off_c, 0, 72, 0
2, 31296, Note_on_c, 0, 70, 75
2, 31484, Note_off_c, 0, 70, 0
2, 31488, Note_on_c, 0, 72, 75
2, 32160, Note_off_c, 0, 72, 0
2, 32256, Note_on_c, 0, 70, 75
2, 32576, Note_off_c, 0, 70, 0
2, 32640, Note_on_c, 0, 79, 92
2, 33596, Note_off_c, 0, 79, 0
2, 33600, Note_on_c, 0, 70, 92
2, 33788, Note_off_c, 0, 70, 0
2, 33792, Note_on_c, 0, 68, 92
2, 33980, Note_off_c, 0, 68, 0
2, 33984, Note_on_c, 0, 67, 92
2, 34172, Note_off_c, 0, 67, 0
2, 34176, Note_on_c, 0, 68, 92
2, 34364, Note_off_c, 0, 68, 0
2, 34368, Note_on_c, 0, 72, 92
2, 34556, Note_off_c, 0, 72, 0
2, 34560, Note_on_c, 0, 77, 92
2, 34748, Note_off_c, 0, 77, 0
2, 34752, Note_on_c, 0, 75, 92
2, 34940, Note_off_c, 0, 75, 0
2, 34944, Note_on_c, 0, 74, 92
2, 35132, Note_off_c, 0, 74, 0
2, 35136, Note_on_c, 0, 72, 92
2, 35324, Note_off_c, 0, 72, 0
2, 35328, Note_on_c, 0, 71, 92
2, 35516, Note_off_c, 0, 71, 0
2, 35520, Note_on_c, 0, 72, 92
2, 35708, Note_off_c, 0, 72, 0
2, 35712, Note_on_c, 0, 68, 92
2, 35900, Note_off_c, 0, 68, 0
2, 35904, Note_on_c, 0, 67, 92
2, 36284, Note_off_c, 0, 67, 0
2, 36288, Note_on_c, 0, 71, 45
2, 36476, Note_off_c, 0, 71, 0
2, 36480, Note_on_c, 0, 72, 45
2, 36668, Note_off_c, 0, 72, 0
2, 36672, Note_on_c, 0, 68, 45
2, 36860, Note_off_c, 0, 68, 0
2, 36864, Note_on_c, 0, 66, 45
2, 37052, Note_off_c, 0, 66, 0
2, 37056, Note_on_c, 0, 67, 45
2, 37436, Note_off_c, 0, 67, 0
2, 37440, Note_on_c, 0, 71, 45
2, 37628, Note_off_c, 0, 71, 0
2, 37632, Note_on_c, 0, 72, 45
2, 37820, Note_off_c, 0, 72, 0
2, 37824, Note_on_c, 0, 68, 45
2, 38012, Note_off_c, 0, 68, 0
2, 38016, Note_on_c, 0, 66, 45
2, 38336, Note_off_c, 0, 66, 0
2, 38400, Note_on_c, 0, 67, 45
2, 38588, Note_off_c, 0, 67, 0
2, 38592, Note_on_c, 0, 77, 92
2, 38780, Note_off_c, 0, 77, 0
2, 38784, Note_on_c, 0, 75, 92
2, 38972, Note_off_c, 0, 75, 0
2, 38976, Note_on_c, 0, 74, 92
2, 39164, Note_off_c, 0, 74, 0
2, 39168, Note_on_c, 0, 71, 92
2, 39356, Note_off_c, 0, 71, 0
2, 39360, Note_on_c, 0, 72, 92
2, 39548, Note_off_c, 0, 72, 0
2, 39552, Note_on_c, 0, 67, 92
2, 39740, Note_off_c, 0, 67, 0
2, 39744, Note_on_c, 0, 65, 92
2, 39932, Note_off_c, 0, 65, 0
2, 39936, Note_on_c, 0, 63, 92
2, 40124, Note_off_c, 0, 63, 0
2, 40128, Note_on_c, 0, 62, 92
2, 40316, Note_off_c, 0, 62, 0
2, 40320, Note_on_c, 0, 71, 92
2, 40640, Note_off_c, 0, 71, 0
2, 40704, Note_on_c, 0, 72, 92
2, 41376, Note_off_c, 0, 72, 0
2, 41472, Note_on_c, 0, 67, 60
2, 41660, Note_off_c, 0, 67, 0
2, 41664, Note_on_c, 0, 68, 60
2, 41756, Note_off_c, 0, 68, 0
2, 41760, Note_on_c, 0, 70, 60
2, 41852, Note_off_c, 0, 70, 0
2, 41856, Note_on_c, 0, 68, 60
2, 42044, Note_off_c, 0, 68, 0
2, 42048, Note_on_c, 0, 67, 60
2, 42236, Note_off_c, 0, 67, 0
2, 42240, Note_on_c, 0, 65, 60
2, 42428, Note_off_c, 0, 65, 0
2, 42432, Note_on_c, 0, 63, 60
2, 42620, Note_off_c, 0, 63, 0
2, 42624, Note_on_c, 0, 70, 60
2, 43680, Note_off_c, 0, 70, 0
2, 43776, Note_on_c, 0, 73, 60
2, 43964, Note_off_c, 0, 73, 0
2, 43968, Note_on_c, 0, 75, 60
2, 44060, Note_off_c, 0, 75, 0
2, 44064, Note_on_c, 0, 77, 60
2, 44156, Note_off_c, 0, 77, 0
2, 44160, Note_on_c, 0, 77, 60
2, 44348, Note_off_c, 0, 77, 0
2, 44352, Note_on_c, 0, 75, 60
2, 44540, Note_off_c, 0, 75, 0
2, 44544, Note_on_c, 0, 75, 60
2, 44732, Note_off_c, 0, 75, 0
2, 44736, Note_on_c, 0, 73, 60
2, 44924, Note_off_c, 0, 73, 0
2, 44928, Note_on_c, 0, 73, 60
2, 45020, Note_off_c, 0, 73, 0
2, 45024, Note_on_c, 0, 72, 60
2, 45116, Note_off_c, 0, 72, 0
2, 45120, Note_on_c, 0, 70, 60
2, 45308, Note_off_c, 0, 70, 0
2, 45312, Note_on_c, 0, 72, 60
2, 45984, Note_off_c, 0, 72, 0
2, 46080, Note_on_c, 0, 70, 60
2, 46400, Note_off_c, 0, 70, 0
2, 46464, Note_on_c, 0, 79, 75
2, 47420, Note_off_c, 0, 79, 0
2, 47424, Note_on_c, 0, 70, 75
2, 47612, Note_off_c, 0, 70, 0
2, 47616, Note_on_c, 0, 68, 75
2, 47804, Note_off_c, 0, 68, 0
2, 47808, Note_on_c, 0, 67, 75
2, 47996, Note_off_c, 0, 67, 0
2, 48000, Note_on_c, 0, 68, 75
2, 48188, Note_off_c, 0, 68, 0
2, 48192, Note_on_c, 0, 72, 75
2, 48380, Note_off_c, 0, 72, 0
2, 48384, Note_on_c, 0, 77, 75
2, 48572, Note_off_c, 0, 77, 0
2, 48576, Note_on_c, 0, 75, 75
2, 48764, Note_off_c, 0, 75, 0
2, 48768, Note_on_c, 0, 74, 75
2, 48956, Note_off_c, 0, 74, 0
2, 48960, Note_on_c, 0, 72, 75
2, 49148, Note_off_c, 0, 72, 0
2, 49152, Note_on_c, 0, 71, 75
2, 49340, Note_off_c, 0, 71, 0
2, 49344, Note_on_c, 0, 72, 75
2, 49532, Note_off_c, 0, 72, 0
2, 49536, Note_on_c, 0, 68, 75
2, 49724, Note_off_c, 0, 68, 0
2, 49728, Note_on_c, 0, 67, 75
2, 50108, Note_off_c, 0, 67, 0
2, 50112, Note_on_c, 0, 71, 45
2, 50300, Note_off_c, 0, 71, 0
2, 50304, Note_on_c, 0, 72, 45
2, 50492, Note_off_c, 0, 72, 0
2, 50496, Note_on_c, 0, 68, 45
2, 50684, Note_off_c, 0, 68, 0
2, 50688, Note_on_c, 0, 66, 45
2, 50876, Note_off_c, 0, 66, 0
2, 50880, Note_on_c, 0, 67, 45
2, 51260, Note_off_c, 0, 67, 0
2, 51264, Note_on_c, 0, 71, 45
2, 51452, Note_off_c, 0, 71, 0
2, 51456, Note_on_c, 0, 72, 45
2, 51644, Note_off_c, 0, 72, 0
2, 51648, Note_on_c, 0, 68, 45
2, 51836, Note_off_c, 0, 68, 0
2, 51840, Note_on_c, 0, 66, 45
2, 52160, Note_off_c, 0, 66, 0
2, 52224, Note_on_c, 0, 67, 45
2, 52412, Note_off_c, 0, 67, 0
2, 52416, Note_on_c, 0, 77, 92
2, 52604, Note_off_c, 0, 77, 0
2, 52608, Note_on_c, 0, 75, 92
2, 52796, Note_off_c, 0, 75, 0
2, 52800, Note_on_c, 0, 74, 92
2, 52988, Note_off_c, 0, 74, 0
2, 52992, Note_on_c, 0, 71, 92
2, 53180, Note_off_c, 0, 71, 0
2, 53184, Note_on_c, 0, 72, 92
2, 53372, Note_off_c, 0, 72, 0
2, 53376, Note_on_c, 0, 67, 92
2, 53564, Note_off_c, 0, 67, 0
2, 53568, Note_on_c, 0, 65, 92
2, 53756, Note_off_c, 0, 65, 0
2, 53760, Note_on_c, 0, 63, 92
2, 53948, Note_off_c, 0, 63, 0
2, 53952, Note_on_c, 0, 62, 92
2, 54140, Note_off_c, 0, 62, 0
2, 54144, Note_on_c, 0, 71, 92
2, 54528, Note_off_c, 0, 71, 0
2, 54528, Note_on_c, 0, 72, 92
2, 55200, Note_off_c, 0, 72, 0
2, 55488, Note_on_c, 0, 67, 75
2, 55680, Note_off_c, 0, 67, 0
2, 55680, Note_on_c, 0, 68, 75
2, 56192, Note_off_c, 0, 68, 0
2, 56256, Note_on_c, 0, 67, 75
2, 56444, Note_off_c, 0, 67, 0
2, 56448, Note_on_c, 0, 70, 75
2, 56636, Note_off_c, 0, 70, 0
2, 56640, Note_on_c, 0, 64, 75
2, 57152, Note_off_c, 0, 64, 0
2, 57216, Note_on_c, 0, 67, 75
2, 57404, Note_off_c, 0, 67, 0
2, 57408, Note_on_c, 0, 70, 75
2, 57980, Note_off_c, 0, 70, 0
2, 57984, Note_on_c, 0, 72, 75
2, 58172, Note_off_c, 0, 72, 0
2, 58176, Note_on_c, 0, 73, 75
2, 58368, Note_off_c, 0, 73, 0
2, 58368, Note_on_c, 0, 72, 75
2, 58556, Note_off_c, 0, 72, 0
2, 58560, Note_on_c, 0, 72, 75
2, 58752, Note_off_c, 0, 72, 0
2, 58752, Note_on_c, 0, 70, 75
2, 58940, Note_off_c, 0, 70, 0
2, 58944, Note_on_c, 0, 70, 75
2, 59136, Note_off_c, 0, 70, 0
2, 59136, Note_on_c, 0, 68, 75
2, 59324, Note_off_c, 0, 68, 0
2, 59328, Note_on_c, 0, 68, 75
2, 59516, Note_off_c, 0, 68, 0
2, 59520, Note_on_c, 0, 68, 75
2, 59712, Note_off_c, 0, 68, 0
2, 59712, Note_on_c, 0, 70, 75
2, 59904, Note_off_c, 0, 70, 0
2, 59904, Note_on_c, 0, 67, 75
2, 60092, Note_off_c, 0, 67, 0
2, 60096, Note_on_c, 0, 64, 75
2, 60288, Note_off_c, 0, 64, 0
2, 60288, Note_on_c, 0, 65, 75
2, 60480, Note_off_c, 0, 65, 0
2, 60480, Note_on_c, 0, 67, 75
2, 60668, Note_off_c, 0, 67, 0
2, 60672, Note_on_c, 0, 68, 75
2, 60864, Note_off_c, 0, 68, 0
2, 60864, Note_on_c, 0, 70, 75
2, 61056, Note_off_c, 0, 70, 0
2, 61056, Note_on_c, 0, 67, 75
2, 61244, Note_off_c, 0, 67, 0
2, 61248, Note_on_c, 0, 64, 75
2, 61632, Note_off_c, 0, 64, 0
2, 61632, Note_on_c, 0, 72, 75
2, 61952, Note_off_c, 0, 72, 0
2, 62016, Note_on_c, 0, 73, 75
2, 62304, Note_off_c, 0, 73, 0
2, 62304, Note_on_c, 0, 75, 75
2, 62396, Note_off_c, 0, 75, 0
2, 62400, Note_on_c, 0, 69, 75
2, 62912, Note_off_c, 0, 69, 0
2, 62976, Note_on_c, 0, 72, 75
2, 63164, Note_off_c, 0, 72, 0
2, 63168, Note_on_c, 0, 75, 75
2, 63744, Note_off_c, 0, 75, 0
2, 63744, Note_on_c, 0, 77, 75
2, 63932, Note_off_c, 0, 77, 0
2, 63936, Note_on_c, 0, 78, 75
2, 64128, Note_off_c, 0, 78, 0
2, 64128, Note_on_c, 0, 77, 75
2, 64316, Note_off_c, 0, 77, 0
2, 64320, Note_on_c, 0, 77, 75
2, 64512, Note_off_c, 0, 77, 0
2, 64512, Note_on_c, 0, 75, 75
2, 64700, Note_off_c, 0, 75, 0
2, 64704, Note_on_c, 0, 75, 75
2, 64896, Note_off_c, 0, 75, 0
2, 64896, Note_on_c, 0, 73, 75
2, 65084, Note_off_c, 0, 73, 0
2, 65088, Note_on_c, 0, 73, 75
2, 65276, Note_off_c, 0, 73, 0
2, 65280, Note_on_c, 0, 73, 45
2, 65472, Note_off_c, 0, 73, 0
2, 65472, Note_on_c, 0, 75, 45
2, 65664, Note_off_c, 0, 75, 0
2, 65664, Note_on_c, 0, 72, 45
2, 65852, Note_off_c, 0, 72, 0
2, 65856, Note_on_c, 0, 69, 45
2, 66048, Note_off_c, 0, 69, 0
2, 66048, Note_on_c, 0, 70, 45
2, 66240, Note_off_c, 0, 70, 0
2, 66240, Note_on_c, 0, 72, 45
2, 66428, Note_off_c, 0, 72, 0
2, 66432, Note_on_c, 0, 73, 45
2, 66624, Note_off_c, 0, 73, 0
2, 66624, Note_on_c, 0, 75, 45
2, 66816, Note_off_c, 0, 75, 0
2, 66816, Note_on_c, 0, 72, 45
2, 67004, Note_off_c, 0, 72, 0
2, 67008, Note_on_c, 0, 69, 45
2, 67392, Note_off_c, 0, 69, 0
2, 67392, Note_on_c, 0, 70, 45
2, 67712, Note_off_c, 0, 70, 0
2, 67776, Note_on_c, 0, 73, 45
2, 68096, Note_off_c, 0, 73, 0
2, 68160, Note_on_c, 0, 73, 75
2, 68480, Note_off_c, 0, 73, 0
2, 68544, Note_on_c, 0, 72, 75
2, 68736, Note_off_c, 0, 72, 0
2, 68736, Note_on_c, 0, 70, 75
2, 68924, Note_off_c, 0, 70, 0
2, 68928, Note_on_c, 0, 70, 75
2, 69120, Note_off_c, 0, 70, 0
2, 69120, Note_on_c, 0, 68, 75
2, 69308, Note_off_c, 0, 68, 0
2, 69312, Note_on_c, 0, 68, 75
2, 69504, Note_off_c, 0, 68, 0
2, 69504, Note_on_c, 0, 72, 75
2, 69692, Note_off_c, 0, 72, 0
2, 69696, Note_on_c, 0, 77, 75
2, 70016, Note_off_c, 0, 77, 0
2, 70080, Note_on_c, 0, 77, 75
2, 70400, Note_off_c, 0, 77, 0
2, 70464, Note_on_c, 0, 77, 75
2, 71520, Note_off_c, 0, 77, 0
2, 71616, Note_on_c, 0, 75, 92
2, 71808, Note_off_c, 0, 75, 0
2, 71808, Note_on_c, 0, 74, 92
2, 71996, Note_off_c, 0, 74, 0
2, 72000, Note_on_c, 0, 77, 92
2, 72192, Note_off_c, 0, 77, 0
2, 72192, Note_on_c, 0, 75, 92
2, 72380, Note_off_c, 0, 75, 0
2, 72384, Note_on_c, 0, 75, 92
2, 72576, Note_off_c, 0, 75, 0
2, 72576, Note_on_c, 0, 74, 92
2, 72764, Note_off_c, 0, 74, 0
2, 72768, Note_on_c, 0, 75, 92
2, 72960, Note_off_c, 0, 75, 0
2, 72960, Note_on_c, 0, 74, 92
2, 73148, Note_off_c, 0, 74, 0
2, 73152, Note_on_c, 0, 77, 92
2, 73344, Note_off_c, 0, 77, 0
2, 73344, Note_on_c, 0, 75, 92
2, 73532, Note_off_c, 0, 75, 0
2, 73536, Note_on_c, 0, 75, 92
2, 73728, Note_off_c, 0, 75, 0
2, 73728, Note_on_c, 0, 74, 92
2, 73916, Note_off_c, 0, 74, 0
2, 73920, Note_on_c, 0, 75, 92
2, 74112, Note_off_c, 0, 75, 0
2, 74112, Note_on_c, 0, 74, 92
2, 74300, Note_off_c, 0, 74, 0
2, 74304, Note_on_c, 0, 74, 92
2, 74496, Note_off_c, 0, 74, 0
2, 74496, Note_on_c, 0, 72, 92
2, 74684, Note_off_c, 0, 72, 0
2, 74688, Note_on_c, 0, 72, 92
2, 74880, Note_off_c, 0, 72, 0
2, 74880, Note_on_c, 0, 74, 92
2, 74976, Note_off_c, 0, 74, 0
2, 74976, Note_on_c, 0, 75, 92
2, 75068, Note_off_c, 0, 75, 0
2, 75072, Note_on_c, 0, 74, 92
2, 75264, Note_off_c, 0, 74, 0
2, 75264, Note_on_c, 0, 72, 92
2, 75452, Note_off_c, 0, 72, 0
2, 75456, Note_on_c, 0, 72, 92
2, 75648, Note_off_c, 0, 72, 0
2, 75648, Note_on_c, 0, 70, 92
2, 75836, Note_off_c, 0, 70, 0
2, 75840, Note_on_c, 0, 70, 92
2, 76032, Note_off_c, 0, 70, 0
2, 76032, Note_on_c, 0, 72, 92
2, 76128, Note_off_c, 0, 72, 0
2, 76128, Note_on_c, 0, 74, 92
2, 76220, Note_off_c, 0, 74, 0
2, 76224, Note_on_c, 0, 72, 92
2, 76412, Note_off_c, 0, 72, 0
2, 76416, Note_on_c, 0, 70, 92
2, 76604, Note_off_c, 0, 70, 0
2, 76608, Note_on_c, 0, 68, 92
2, 76796, Note_off_c, 0, 68, 0
2, 76800, Note_on_c, 0, 67, 92
2, 76988, Note_off_c, 0, 67, 0
2, 76992, Note_on_c, 0, 66, 92
2, 77180, Note_off_c, 0, 66, 0
2, 77184, Note_on_c, 0, 67, 92
2, 77372, Note_off_c, 0, 67, 0
2, 77376, Note_on_c, 0, 62, 92
2, 77888, Note_off_c, 0, 62, 0
2, 77952, Note_on_c, 0, 78, 45
2, 78144, Note_off_c, 0, 78, 0
2, 78144, Note_on_c, 0, 79, 45
2, 78336, Note_off_c, 0, 79, 0
2, 78336, Note_on_c, 0, 75, 45
2, 78524, Note_off_c, 0, 75, 0
2, 78528, Note_on_c, 0, 73, 45
2, 78720, Note_off_c, 0, 73, 0
2, 78720, Note_on_c, 0, 74, 45
2, 78912, Note_off_c, 0, 74, 0
2, 78912, Note_on_c, 0, 76, 45
2, 79100, Note_off_c, 0, 76, 0
2, 79104, Note_on_c, 0, 78, 45
2, 79296, Note_off_c, 0, 78, 0
2, 79296, Note_on_c, 0, 79, 45
2, 79488, Note_off_c, 0, 79, 0
2, 79488, Note_on_c, 0, 75, 45
2, 79676, Note_off_c, 0, 75, 0
2, 79680, Note_on_c, 0, 73, 45
2, 80064, Note_off_c, 0, 73, 0
2, 80064, Note_on_c, 0, 74, 45
2, 80252, Note_off_c, 0, 74, 0
2, 80256, Note_on_c, 0, 72, 92
2, 80444, Note_off_c, 0, 72, 0
2, 80448, Note_on_c, 0, 75, 92
2, 80636, Note_off_c, 0, 75, 0
2, 80640, Note_on_c, 0, 74, 92
2, 80828, Note_off_c, 0, 74, 0
2, 80832, Note_on_c, 0, 74, 92
2, 81152, Note_off_c, 0, 74, 0
2, 81216, Note_on_c, 0, 72, 92
2, 81408, Note_off_c, 0, 72, 0
2, 81408, Note_on_c, 0, 70, 92
2, 81596, Note_off_c, 0, 70, 0
2, 81600, Note_on_c, 0, 69, 92
2, 81792, Note_off_c, 0, 69, 0
2, 81792, Note_on_c, 0, 67, 92
2, 81980, Note_off_c, 0, 67, 0
2, 81984, Note_on_c, 0, 67, 75
2, 83040, Note_off_c, 0, 67, 0
2, 83136, Note_on_c, 0, 74, 75
2, 83520, Note_off_c, 0, 74, 0
2, 83520, Note_on_c, 0, 75, 75
2, 83840, Note_off_c, 0, 75, 0
2, 83904, Note_on_c, 0, 77, 75
2, 84096, Note_off_c, 0, 77, 0
2, 84096, Note_on_c, 0, 74, 75
2, 84284, Note_off_c, 0, 74, 0
2, 84288, Note_on_c, 0, 71, 75
2, 85344, Note_off_c, 0, 71, 0
2, 85440, Note_on_c, 0, 77, 75
2, 85824, Note_off_c, 0, 77, 0
2, 85824, Note_on_c, 0, 79, 75
2, 86144, Note_off_c, 0, 79, 0
2, 86208, Note_on_c, 0, 80, 75
2, 86912, Note_off_c, 0, 80, 0
2, 86976, Note_on_c, 0, 79, 75
2, 87168, Note_off_c, 0, 79, 0
2, 87168, Note_on_c, 0, 77, 75
2, 87356, Note_off_c, 0, 77, 0
2, 87360, Note_on_c, 0, 77, 75
2, 87552, Note_off_c, 0, 77, 0
2, 87552, Note_on_c, 0, 75, 75
2, 87740, Note_off_c, 0, 75, 0
2, 87744, Note_on_c, 0, 75, 75
2, 87936, Note_off_c, 0, 75, 0
2, 87936, Note_on_c, 0, 73, 75
2, 88124, Note_off_c, 0, 73, 0
2, 88128, Note_on_c, 0, 73, 75
2, 88320, Note_off_c, 0, 73, 0
2, 88320, Note_on_c, 0, 72, 75
2, 88508, Note_off_c, 0, 72, 0
2, 88512, Note_on_c, 0, 72, 75
2, 89088, Note_off_c, 0, 72, 0
2, 89088, Note_on_c, 0, 70, 75
2, 89276, Note_off_c, 0, 70, 0
2, 89280, Note_on_c, 0, 70, 75
2, 89468, Note_off_c, 0, 70, 0
2, 89472, Note_on_c, 0, 68, 75
2, 89660, Note_off_c, 0, 68, 0
2, 89664, Note_on_c, 0, 68, 75
2, 90236, Note_off_c, 0, 68, 0
2, 90240, Note_on_c, 0, 67, 75
2, 90428, Note_off_c, 0, 67, 0
2, 90432, Note_on_c, 0, 67, 75
2, 90624, Note_off_c, 0, 67, 0
2, 90624, Note_on_c, 0, 66, 75
2, 90812, Note_off_c, 0, 66, 0
2, 90816, Note_on_c, 0, 66, 75
2, 91008, Note_off_c, 0, 66, 0
2, 91008, Note_on_c, 0, 67, 75
2, 91196, Note_off_c, 0, 67, 0
2, 91200, Note_on_c, 0, 67, 75
2, 92256, Note_off_c, 0, 67, 0
2, 92352, Note_on_c, 0, 75, 75
2, 92540, Note_off_c, 0, 75, 0
2, 92544, Note_on_c, 0, 77, 75
2, 92636, Note_off_c, 0, 77, 0
2, 92640, Note_on_c, 0, 79, 75
2, 92732, Note_off_c, 0, 79, 0
2, 92736, Note_on_c, 0, 77, 75
2, 92924, Note_off_c, 0, 77, 0
2, 92928, Note_on_c, 0, 75, 75
2, 93116, Note_off_c, 0, 75, 0
2, 93120, Note_on_c, 0, 74, 75
2, 93308, Note_off_c, 0, 74, 0
2, 93312, Note_on_c, 0, 72, 75
2, 93500, Note_off_c, 0, 72, 0
2, 93504, Note_on_c, 0, 71, 75
2, 94560, Note_off_c, 0, 71, 0
2, 94656, Note_on_c, 0, 70, 75
2, 94844, Note_off_c, 0, 70, 0
2, 94848, Note_on_c, 0, 72, 75
2, 94940, Note_off_c, 0, 72, 0
2, 94944, Note_on_c, 0, 73, 75
2, 95036, Note_off_c, 0, 73, 0
2, 95040, Note_on_c, 0, 73, 75
2, 95228, Note_off_c, 0, 73, 0
2, 95232, Note_on_c, 0, 72, 75
2, 95420, Note_off_c, 0, 72, 0
2, 95424, Note_on_c, 0, 72, 75
2, 95612, Note_off_c, 0, 72, 0
2, 95616, Note_on_c, 0, 70, 75
2, 95804, Note_off_c, 0, 70, 0
2, 95808, Note_on_c, 0, 70, 75
2, 95900, Note_off_c, 0, 70, 0
2, 95904, Note_on_c, 0, 68, 75
2, 95996, Note_off_c, 0, 68, 0
2, 96000, Note_on_c, 0, 67, 75
2, 96188, Note_off_c, 0, 67, 0
2, 96192, Note_on_c, 0, 68, 75
2, 96864, Note_off_c, 0, 68, 0
2, 96960, Note_on_c, 0, 67, 75
2, 97148, Note_off_c, 0, 67, 0
2, 97152, Note_on_c, 0, 67, 75
2, 97340, Note_off_c, 0, 67, 0
2, 97344, Note_on_c, 0, 77, 75
2, 98300, Note_off_c, 0, 77, 0
2, 98304, Note_on_c, 0, 74, 75
2, 98492, Note_off_c, 0, 74, 0
2, 98496, Note_on_c, 0, 75, 75
2, 98684, Note_off_c, 0, 75, 0
2, 98688, Note_on_c, 0, 72, 75
2, 98876, Note_off_c, 0, 72, 0
2, 98880, Note_on_c, 0, 70, 75
2, 99068, Note_off_c, 0, 70, 0
2, 99072, Note_on_c, 0, 68, 75
2, 99452, Note_off_c, 0, 68, 0
2, 99456, Note_on_c, 0, 65, 75
2, 99644, Note_off_c, 0, 65, 0
2, 99648, Note_on_c, 0, 67, 75
2, 99836, Note_off_c, 0, 67, 0
2, 99840, Note_on_c, 0, 72, 75
2, 100028, Note_off_c, 0, 72, 0
2, 100032, Note_on_c, 0, 70, 75
2, 100220, Note_off_c, 0, 70, 0
2, 100224, Note_on_c, 0, 68, 75
2, 100412, Note_off_c, 0, 68, 0
2, 100416, Note_on_c, 0, 67, 75
2, 100608, Note_off_c, 0, 67, 0
2, 100608, Note_on_c, 0, 65, 75
2, 100928, Note_off_c, 0, 65, 0
2, 100992, Control_c, 0, 10, 32
2, 100992, Note_on_c, 0, 74, 60
2, 101184, Note_off_c, 0, 74, 0
2, 101184, Note_on_c, 0, 75, 60
2, 101376, Note_off_c, 0, 75, 0
2, 101376, Note_on_c, 0, 72, 60
2, 101564, Note_off_c, 0, 72, 0
2, 101568, Note_on_c, 0, 69, 60
2, 101760, Note_off_c, 0, 69, 0
2, 101760, Note_on_c, 0, 70, 60
2, 101948, Note_off_c, 0, 70, 0
2, 101952, Note_on_c, 0, 70, 60
2, 102140, Note_off_c, 0, 70, 0
2, 102144, Control_c, 0, 10, 96
2, 102144, Note_on_c, 0, 74, 60
2, 102336, Note_off_c, 0, 74, 0
2, 102336, Note_on_c, 0, 75, 60
2, 102528, Note_off_c, 0, 75, 0
2, 102528, Note_on_c, 0, 72, 60
2, 102716, Note_off_c, 0, 72, 0
2, 102720, Note_on_c, 0, 69, 60
2, 103040, Note_off_c, 0, 69, 0
2, 103104, Note_on_c, 0, 70, 60
2, 103292, Note_off_c, 0, 70, 0
2, 103296, Control_c, 0, 10, 32
2, 103296, Note_on_c, 0, 80, 92
2, 103484, Note_off_c, 0, 80, 0
2, 103488, Note_on_c, 0, 79, 92
2, 103676, Note_off_c, 0, 79, 0
2, 103680, Note_on_c, 0, 77, 92
2, 103868, Note_off_c, 0, 77, 0
2, 103872, Note_on_c, 0, 74, 92
2, 104060, Note_off_c, 0, 74, 0
2, 104064, Note_on_c, 0, 75, 92
2, 104252, Note_off_c, 0, 75, 0
2, 104256, Note_on_c, 0, 70, 92
2, 104444, Note_off_c, 0, 70, 0
2, 104448, Note_on_c, 0, 68, 92
2, 104636, Note_off_c, 0, 68, 0
2, 104640, Note_on_c, 0, 67, 92
2, 104828, Note_off_c, 0, 67, 0
2, 104832, Note_on_c, 0, 65, 92
2, 105020, Note_off_c, 0, 65, 0
2, 105024, Note_on_c, 0, 63, 92
2, 106080, Note_off_c, 0, 63, 0
2, 106176, Note_on_c, 0, 75, 75
2, 106364, Note_off_c, 0, 75, 0
2, 106368, Note_on_c, 0, 77, 75
2, 106460, Note_off_c, 0, 77, 0
2, 106464, Note_on_c, 0, 79, 75
2, 106556, Note_off_c, 0, 79, 0
2, 106560, Note_on_c, 0, 77, 75
2, 106748, Note_off_c, 0, 77, 0
2, 106752, Note_on_c, 0, 75, 75
2, 106940, Note_off_c, 0, 75, 0
2, 106944, Note_on_c, 0, 74, 75
2, 107132, Note_off_c, 0, 74, 0
2, 107136, Note_on_c, 0, 72, 75
2, 107324, Note_off_c, 0, 72, 0
2, 107328, Note_on_c, 0, 71, 75
2, 107420, Note_off_c, 0, 71, 0
2, 107424, Note_on_c, 0, 69, 75
2, 107516, Note_off_c, 0, 69, 0
2, 107520, Note_on_c, 0, 71, 75
2, 108384, Note_off_c, 0, 71, 0
2, 108480, Note_on_c, 0, 70, 75
2, 108668, Note_off_c, 0, 70, 0
2, 108672, Note_on_c, 0, 72, 75
2, 108764, Note_off_c, 0, 72, 0
2, 108768, Note_on_c, 0, 73, 75
2, 108860, Note_off_c, 0, 73, 0
2, 108864, Note_on_c, 0, 73, 75
2, 109052, Note_off_c, 0, 73, 0
2, 109056, Note_on_c, 0, 72, 75
2, 109244, Note_off_c, 0, 72, 0
2, 109248, Note_on_c, 0, 72, 75
2, 109436, Note_off_c, 0, 72, 0
2, 109440, Note_on_c, 0, 70, 75
2, 109628, Note_off_c, 0, 70, 0
2, 109632, Note_on_c, 0, 70, 75
2, 109724, Note_off_c, 0, 70, 0
2, 109728, Note_on_c, 0, 68, 75
2, 109820, Note_off_c, 0, 68, 0
2, 109824, Note_on_c, 0, 67, 75
2, 110012, Note_off_c, 0, 67, 0
2, 110016, Note_on_c, 0, 68, 75
2, 110688, Note_off_c, 0, 68, 0
2, 110784, Note_on_c, 0, 67, 75
2, 110972, Note_off_c, 0, 67, 0
2, 110976, Note_on_c, 0, 67, 75
2, 111164, Note_off_c, 0, 67, 0
2, 111168, Note_on_c, 0, 77, 75
2, 112124, Note_off_c, 0, 77, 0
2, 112128, Note_on_c, 0, 74, 75
2, 112316, Note_off_c, 0, 74, 0
2, 112320, Note_on_c, 0, 75, 75
2, 112508, Note_off_c, 0, 75, 0
2, 112512, Note_on_c, 0, 72, 75
2, 112700, Note_off_c, 0, 72, 0
2, 112704, Note_on_c, 0, 70, 75
2, 112892, Note_off_c, 0, 70, 0
2, 112896, Note_on_c, 0, 68, 75
2, 113276, Note_off_c, 0, 68, 0
2, 113280, Note_on_c, 0, 65, 75
2, 113468, Note_off_c, 0, 65, 0
2, 113472, Note_on_c, 0, 67, 75
2, 113660, Note_off_c, 0, 67, 0
2, 113664, Note_on_c, 0, 72, 75
2, 113852, Note_off_c, 0, 72, 0
2, 113856, Note_on_c, 0, 70, 75
2, 114044, Note_off_c, 0, 70, 0
2, 114048, Note_on_c, 0, 68, 75
2, 114236, Note_off_c, 0, 68, 0
2, 114240, Note_on_c, 0, 67, 75
2, 114428, Note_off_c, 0, 67, 0
2, 114432, Note_on_c, 0, 65, 75
2, 114812, Note_off_c, 0, 65, 0
2, 114816, Note_on_c, 0, 74, 60
2, 115004, Note_off_c, 0, 74, 0
2, 115008, Note_on_c, 0, 75, 60
2, 115196, Note_off_c, 0, 75, 0
2, 115200, Note_on_c, 0, 72, 60
2, 115388, Note_off_c, 0, 72, 0
2, 115392, Note_on_c, 0, 69, 60
2, 115580, Note_off_c, 0, 69, 0
2, 115584, Note_on_c, 0, 70, 60
2, 115964, Note_off_c, 0, 70, 0
2, 115968, Note_on_c, 0, 74, 60
2, 116156, Note_off_c, 0, 74, 0
2, 116160, Note_on_c, 0, 75, 60
2, 116348, Note_off_c, 0, 75, 0
2, 116352, Note_on_c, 0, 72, 60
2, 116540, Note_off_c, 0, 72, 0
2, 116544, Note_on_c, 0, 69, 60
2, 116864, Note_off_c, 0, 69, 0
2, 116928, Note_on_c, 0, 70, 60
2, 117116, Note_off_c, 0, 70, 0
2, 117120, Note_on_c, 0, 80, 92
2, 117308, Note_off_c, 0, 80, 0
2, 117312, Note_on_c, 0, 79, 92
2, 117500, Note_off_c, 0, 79, 0
2, 117504, Note_on_c, 0, 77, 92
2, 117692, Note_off_c, 0, 77, 0
2, 117696, Note_on_c, 0, 74, 92
2, 117884, Note_off_c, 0, 74, 0
2, 117888, Note_on_c, 0, 75, 92
2, 118076, Note_off_c, 0, 75, 0
2, 118080, Note_on_c, 0, 70, 92
2, 118268, Note_off_c, 0, 70, 0
2, 118272, Note_on_c, 0, 68, 92
2, 118460, Note_off_c, 0, 68, 0
2, 118464, Note_on_c, 0, 67, 92
2, 118652, Note_off_c, 0, 67, 0
2, 118656, Note_on_c, 0, 65, 92
2, 118844, Note_off_c, 0, 65, 0
2, 118848, Note_on_c, 0, 63, 60
2, 119904, Note_off_c, 0, 63, 0
2, 120000, Note_on_c, 0, 67, 60
2, 120672, Note_off_c, 0, 67, 0
2, 121152, Note_on_c, 0, 70, 75
2, 121824, Note_off_c, 0, 70, 0
2, 122304, Note_on_c, 0, 73, 75
2, 122492, Note_off_c, 0, 73, 0
2, 122496, Note_on_c, 0, 75, 75
2, 122588, Note_off_c, 0, 75, 0
2, 122592, Note_on_c, 0, 77, 75
2, 122684, Note_off_c, 0, 77, 0
2, 122688, Note_on_c, 0, 77, 75
2, 122876, Note_off_c, 0, 77, 0
2, 122880, Note_on_c, 0, 75, 75
2, 123068, Note_off_c, 0, 75, 0
2, 123072, Note_on_c, 0, 75, 75
2, 123260, Note_off_c, 0, 75, 0
2, 123264, Note_on_c, 0, 73, 75
2, 123452, Note_off_c, 0, 73, 0
2, 123456, Note_on_c, 0, 73, 75
2, 123548, Note_off_c, 0, 73, 0
2, 123552, Note_on_c, 0, 72, 75
2, 123644, Note_off_c, 0, 72, 0
2, 123648, Note_on_c, 0, 70, 75
2, 123836, Note_off_c, 0, 70, 0
2, 123840, Note_on_c, 0, 72, 75
2, 124512, Note_off_c, 0, 72, 0
2, 124608, Note_on_c, 0, 70, 75
2, 124928, Note_off_c, 0, 70, 0
2, 124992, Note_on_c, 0, 79, 92
2, 125948, Note_off_c, 0, 79, 0
2, 125952, Note_on_c, 0, 70, 92
2, 126140, Note_off_c, 0, 70, 0
2, 126144, Note_on_c, 0, 68, 92
2, 126332, Note_off_c, 0, 68, 0
2, 126336, Note_on_c, 0, 67, 92
2, 126524, Note_off_c, 0, 67, 0
2, 126528, Note_on_c, 0, 68, 92
2, 126716, Note_off_c, 0, 68, 0
2, 126720, Note_on_c, 0, 72, 92
2, 126908, Note_off_c, 0, 72, 0
2, 126912, Note_on_c, 0, 77, 92
2, 127100, Note_off_c, 0, 77, 0
2, 127104, Note_on_c, 0, 75, 92
2, 127292, Note_off_c, 0, 75, 0
2, 127296, Note_on_c, 0, 74, 92
2, 127484, Note_off_c, 0, 74, 0
2, 127488, Note_on_c, 0, 72, 92
2, 127676, Note_off_c, 0, 72, 0
2, 127680, Note_on_c, 0, 71, 92
2, 127868, Note_off_c, 0, 71, 0
2, 127872, Note_on_c, 0, 72, 92
2, 128060, Note_off_c, 0, 72, 0
2, 128064, Note_on_c, 0, 68, 92
2, 128252, Note_off_c, 0, 68, 0
2, 128256, Note_on_c, 0, 67, 92
2, 128636, Note_off_c, 0, 67, 0
2, 128640, Note_on_c, 0, 71, 45
2, 128828, Note_off_c, 0, 71, 0
2, 128832, Note_on_c, 0, 72, 45
2, 129020, Note_off_c, 0, 72, 0
2, 129024, Note_on_c, 0, 68, 45
2, 129212, Note_off_c, 0, 68, 0
2, 129216, Note_on_c, 0, 66, 45
2, 129404, Note_off_c, 0, 66, 0
2, 129408, Note_on_c, 0, 67, 45
2, 129788, Note_off_c, 0, 67, 0
2, 129792, Note_on_c, 0, 71, 45
2, 129980, Note_off_c, 0, 71, 0
2, 129984, Note_on_c, 0, 72, 45
2, 130172, Note_off_c, 0, 72, 0
2, 130176, Note_on_c, 0, 68, 45
2, 130364, Note_off_c, 0, 68, 0
2, 130368, Note_on_c, 0, 66, 45
2, 130688, Note_off_c, 0, 66, 0
2, 130752, Note_on_c, 0, 67, 45
2, 130940, Note_off_c, 0, 67, 0
2, 130944, Note_on_c, 0, 77, 92
2, 131132, Note_off_c, 0, 77, 0
2, 131136, Note_on_c, 0, 75, 92
2, 131324, Note_off_c, 0, 75, 0
2, 131328, Note_on_c, 0, 74, 92
2, 131516, Note_off_c, 0, 74, 0
2, 131520, Note_on_c, 0, 71, 92
2, 131708, Note_off_c, 0, 71, 0
2, 131712, Note_on_c, 0, 72, 92
2, 131900, Note_off_c, 0, 72, 0
2, 131904, Note_on_c, 0, 67, 92
2, 132092, Note_off_c, 0, 67, 0
2, 132096, Note_on_c, 0, 65, 92
2, 132284, Note_off_c, 0, 65, 0
2, 132288, Note_on_c, 0, 63, 92
2, 132476, Note_off_c, 0, 63, 0
2, 132480, Note_on_c, 0, 62, 92
2, 132668, Note_off_c, 0, 62, 0
2, 132672, Note_on_c, 0, 71, 92
2, 132992, Note_off_c, 0, 71, 0
2, 133056, Note_on_c, 0, 72, 92
2, 133728, Note_off_c, 0, 72, 0
2, 133824, Note_on_c, 0, 67, 60
2, 134012, Note_off_c, 0, 67, 0
2, 134016, Note_on_c, 0, 68, 60
2, 134108, Note_off_c, 0, 68, 0
2, 134112, Note_on_c, 0, 70, 60
2, 134204, Note_off_c, 0, 70, 0
2, 134208, Note_on_c, 0, 68, 60
2, 134396, Note_off_c, 0, 68, 0
2, 134400, Note_on_c, 0, 67, 60
2, 134588, Note_off_c, 0, 67, 0
2, 134592, Note_on_c, 0, 65, 60
2, 134780, Note_off_c, 0, 65, 0
2, 134784, Note_on_c, 0, 63, 60
2, 134972, Note_off_c, 0, 63, 0
2, 134976, Note_on_c, 0, 70, 60
2, 136032, Note_off_c, 0, 70, 0
2, 136128, Note_on_c, 0, 73, 60
2, 136316, Note_off_c, 0, 73, 0
2, 136320, Note_on_c, 0, 75, 60
2, 136412, Note_off_c, 0, 75, 0
2, 136416, Note_on_c, 0, 77, 60
2, 136508, Note_off_c, 0, 77, 0
2, 136512, Note_on_c, 0, 77, 60
2, 136700, Note_off_c, 0, 77, 0
2, 136704, Note_on_c, 0, 75, 60
2, 136892, Note_off_c, 0, 75, 0
2, 136896, Note_on_c, 0, 75, 60
2, 137084, Note_off_c, 0, 75, 0
2, 137088, Note_on_c, 0, 73, 60
2, 137276, Note_off_c, 0, 73, 0
2, 137280, Note_on_c, 0, 73, 60
2, 137372, Note_off_c, 0, 73, 0
2, 137376, Note_on_c, 0, 72, 60
2, 137468, Note_off_c, 0, 72, 0
2, 137472, Note_on_c, 0, 70, 60
2, 137660, Note_off_c, 0, 70, 0
2, 137664, Note_on_c, 0, 72, 60
2, 138336, Note_off_c, 0, 72, 0
2, 138432, Note_on_c, 0, 70, 60
2, 138752, Note_off_c, 0, 70, 0
2, 138816, Note_on_c, 0, 79, 75
2, 139772, Note_off_c, 0, 79, 0
2, 139776, Note_on_c, 0, 70, 75
2, 139964, Note_off_c, 0, 70, 0
2, 139968, Note_on_c, 0, 68, 75
2, 140156, Note_off_c, 0, 68, 0
2, 140160, Note_on_c, 0, 67, 75
2, 140348, Note_off_c, 0, 67, 0
2, 140352, Note_on_c, 0, 68, 75
2, 140540, Note_off_c, 0, 68, 0
2, 140544, Note_on_c, 0, 72, 75
2, 140732, Note_off_c, 0, 72, 0
2, 140736, Note_on_c, 0, 77, 75
2, 140924, Note_off_c, 0, 77, 0
2, 140928, Note_on_c, 0, 75, 75
2, 141116, Note_off_c, 0, 75, 0
2, 141120, Note_on_c, 0, 74, 75
2, 141308, Note_off_c, 0, 74, 0
2, 141312, Note_on_c, 0, 72, 75
2, 141500, Note_off_c, 0, 72, 0
2, 141504, Note_on_c, 0, 71, 75
2, 141692, Note_off_c, 0, 71, 0
2, 141696, Note_on_c, 0, 72, 75
2, 141884, Note_off_c, 0, 72, 0
2, 141888, Note_on_c, 0, 68, 75
2, 142076, Note_off_c, 0, 68, 0
2, 142080, Note_on_c, 0, 67, 75
2, 142460, Note_off_c, 0, 67, 0
2, 142464, Note_on_c, 0, 71, 45
2, 142652, Note_off_c, 0, 71, 0
2, 142656, Note_on_c, 0, 72, 45
2, 142844, Note_off_c, 0, 72, 0
2, 142848, Note_on_c, 0, 68, 45
2, 143036, Note_off_c, 0, 68, 0
2, 143040, Note_on_c, 0, 66, 45
2, 143228, Note_off_c, 0, 66, 0
2, 143232, Note_on_c, 0, 67, 45
2, 143612, Note_off_c, 0, 67, 0
2, 143616, Note_on_c, 0, 71, 45
2, 143804, Note_off_c, 0, 71, 0
2, 143808, Note_on_c, 0, 72, 45
2, 143996, Note_off_c, 0, 72, 0
2, 144000, Note_on_c, 0, 68, 45
2, 144188, Note_off_c, 0, 68, 0
2, 144192, Note_on_c, 0, 66, 45
2, 144512, Note_off_c, 0, 66, 0
2, 144576, Note_on_c, 0, 67, 45
2, 144764, Note_off_c, 0, 67, 0
2, 144768, Note_on_c, 0, 77, 92
2, 144956, Note_off_c, 0, 77, 0
2, 144960, Note_on_c, 0, 75, 92
2, 145148, Note_off_c, 0, 75, 0
2, 145152, Note_on_c, 0, 74, 92
2, 145340, Note_off_c, 0, 74, 0
2, 145344, Note_on_c, 0, 71, 92
2, 145532, Note_off_c, 0, 71, 0
2, 145536, Note_on_c, 0, 72, 92
2, 145724, Note_off_c, 0, 72, 0
2, 145728, Note_on_c, 0, 67, 92
2, 145916, Note_off_c, 0, 67, 0
2, 145920, Note_on_c, 0, 65, 92
2, 146108, Note_off_c, 0, 65, 0
2, 146112, Note_on_c, 0, 63, 92
2, 146300, Note_off_c, 0, 63, 0
2, 146304, Note_on_c, 0, 62, 92
2, 146492, Note_off_c, 0, 62, 0
2, 146496, Note_on_c, 0, 71, 92
2, 146880, Note_off_c, 0, 71, 0
2, 146880, Note_on_c, 0, 72, 92
2, 147552, Note_off_c, 0, 72, 0
2, 147552, End_track
3, 0, Start_track
3, 0, Title_t, "Flute II"
3, 0, Control_c, 1, 0, 0
3, 0, Program_c, 1, 74
3, 0, Control_c, 1, 10, 84
3, 0, Key_signature, -3, "major"
3, 0, Control_c, 1, 7, 127
3, 0, Note_on_c, 1, 75, 75
3, 188, Note_off_c, 1, 75, 0
3, 192, Note_on_c, 1, 77, 75
3, 284, Note_off_c, 1, 77, 0
3, 288, Note_on_c, 1, 79, 75
3, 380, Note_off_c, 1, 79, 0
3, 384, Note_on_c, 1, 77, 75
3, 572, Note_off_c, 1, 77, 0
3, 576, Note_on_c, 1, 75, 75
3, 764, Note_off_c, 1, 75, 0
3, 768, Note_on_c, 1, 74, 75
3, 956, Note_off_c, 1, 74, 0
3, 960, Note_on_c, 1, 72, 75
3, 1148, Note_off_c, 1, 72, 0
3, 1152, Note_on_c, 1, 65, 75
3, 2208, Note_off_c, 1, 65, 0
3, 2304, Note_on_c, 1, 67, 75
3, 2492, Note_off_c, 1, 67, 0
3, 2496, Note_on_c, 1, 68, 75
3, 2588, Note_off_c, 1, 68, 0
3, 2592, Note_on_c, 1, 70, 75
3, 2684, Note_off_c, 1, 70, 0
3, 2688, Note_on_c, 1, 70, 75
3, 2876, Note_off_c, 1, 70, 0
3, 2880, Note_on_c, 1, 68, 75
3, 3068, Note_off_c, 1, 68, 0
3, 3072, Note_on_c, 1, 68, 75
3, 3260, Note_off_c, 1, 68, 0
3, 3264, Note_on_c, 1, 67, 75
3, 3452, Note_off_c, 1, 67, 0
3, 3456, Note_on_c, 1, 67, 75
3, 3548, Note_off_c, 1, 67, 0
3, 3552, Note_on_c, 1, 65, 75
3, 3644, Note_off_c, 1, 65, 0
3, 3648, Note_on_c, 1, 64, 75
3, 3836, Note_off_c, 1, 64, 0
3, 3840, Note_on_c, 1, 65, 75
3, 4796, Note_off_c, 1, 65, 0
3, 4800, Note_on_c, 1, 67, 75
3, 4988, Note_off_c, 1, 67, 0
3, 4992, Note_on_c, 1, 68, 75
3, 5180, Note_off_c, 1, 68, 0
3, 5184, Note_on_c, 1, 65, 75
3, 5372, Note_off_c, 1, 65, 0
3, 5376, Note_on_c, 1, 67, 75
3, 5696, Note_off_c, 1, 67, 0
3, 5760, Note_on_c, 1, 74, 75
3, 5948, Note_off_c, 1, 74, 0
3, 5952, Note_on_c, 1, 71, 75
3, 6140, Note_off_c, 1, 71, 0
3, 6144, Note_on_c, 1, 72, 75
3, 6332, Note_off_c, 1, 72, 0
3, 6336, Note_on_c, 1, 67, 75
3, 6524, Note_off_c, 1, 67, 0
3, 6528, Note_on_c, 1, 65, 75
3, 6716, Note_off_c, 1, 65, 0
3, 6720, Note_on_c, 1, 63, 75
3, 6908, Note_off_c, 1, 63, 0
3, 6912, Note_on_c, 1, 65, 75
3, 7232, Note_off_c, 1, 65, 0
3, 7296, Note_on_c, 1, 63, 75
3, 7484, Note_off_c, 1, 63, 0
3, 7488, Note_on_c, 1, 68, 75
3, 7676, Note_off_c, 1, 68, 0
3, 7680, Note_on_c, 1, 67, 75
3, 7868, Note_off_c, 1, 67, 0
3, 7872, Note_on_c, 1, 65, 75
3, 8060, Note_off_c, 1, 65, 0
3, 8064, Note_on_c, 1, 63, 75
3, 8256, Note_off_c, 1, 63, 0
3, 8256, Note_on_c, 1, 62, 75
3, 8576, Note_off_c, 1, 62, 0
3, 8640, Control_c, 1, 10, 32
3, 8640, Note_on_c, 1, 68, 60
3, 8832, Note_off_c, 1, 68, 0
3, 8832, Note_on_c, 1, 70, 60
3, 9024, Note_off_c, 1, 70, 0
3, 9024, Note_on_c, 1, 67, 60
3, 9212, Note_off_c, 1, 67, 0
3, 9216, Note_on_c, 1, 69, 60
3, 9408, Note_off_c, 1, 69, 0
3, 9408, Note_on_c, 1, 65, 60
3, 9596, Note_off_c, 1, 65, 0
3, 9600, Note_on_c, 1, 65, 60
3, 9788, Note_off_c, 1, 65, 0
3, 9792, Control_c, 1, 10, 96
3, 9792, Note_on_c, 1, 68, 60
3, 9984, Note_off_c, 1, 68, 0
3, 9984, Note_on_c, 1, 70, 60
3, 10176, Note_off_c, 1, 70, 0
3, 10176, Note_on_c, 1, 67, 60
3, 10364, Note_off_c, 1, 67, 0
3, 10368, Note_on_c, 1, 63, 60
3, 10688, Note_off_c, 1, 63, 0
3, 10752, Note_on_c, 1, 65, 60
3, 10940, Note_off_c, 1, 65, 0
3, 10944, Control_c, 1, 10, 96
3, 10944, Note_on_c, 1, 77, 92
3, 11132, Note_off_c, 1, 77, 0
3, 11136, Note_on_c, 1, 75, 92
3, 11324, Note_off_c, 1, 75, 0
3, 11328, Note_on_c, 1, 72, 92
3, 11516, Note_off_c, 1, 72, 0
3, 11520, Note_on_c, 1, 70, 92
3, 11840, Note_off_c, 1, 70, 0
3, 11904, Note_on_c, 1, 67, 92
3, 12092, Note_off_c, 1, 67, 0
3, 12096, Note_on_c, 1, 65, 92
3, 12284, Note_off_c, 1, 65, 0
3, 12288, Note_on_c, 1, 63, 92
3, 12476, Note_off_c, 1, 63, 0
3, 12480, Note_on_c, 1, 62, 92
3, 12668, Note_off_c, 1, 62, 0
3, 12672, Note_on_c, 1, 58, 92
3, 13728, Note_off_c, 1, 58, 0
3, 14976, Note_on_c, 1, 65, 75
3, 16032, Note_off_c, 1, 65, 0
3, 16128, Note_on_c, 1, 67, 75
3, 16316, Note_off_c, 1, 67, 0
3, 16320, Note_on_c, 1, 68, 75
3, 16412, Note_off_c, 1, 68, 0
3, 16416, Note_on_c, 1, 70, 75
3, 16508, Note_off_c, 1, 70, 0
3, 16512, Note_on_c, 1, 70, 75
3, 16700, Note_off_c, 1, 70, 0
3, 16704, Note_on_c, 1, 68, 75
3, 16892, Note_off_c, 1, 68, 0
3, 16896, Note_on_c, 1, 68, 75
3, 17084, Note_off_c, 1, 68, 0
3, 17088, Note_on_c, 1, 67, 75
3, 17276, Note_off_c, 1, 67, 0
3, 17280, Note_on_c, 1, 67, 75
3, 17372, Note_off_c, 1, 67, 0
3, 17376, Note_on_c, 1, 65, 75
3, 17468, Note_off_c, 1, 65, 0
3, 17472, Note_on_c, 1, 64, 75
3, 17660, Note_off_c, 1, 64, 0
3, 17664, Note_on_c, 1, 65, 75
3, 18336, Note_off_c, 1, 65, 0
3, 18432, Note_on_c, 1, 65, 75
3, 18752, Note_off_c, 1, 65, 0
3, 18816, Note_on_c, 1, 68, 75
3, 19004, Note_off_c, 1, 68, 0
3, 19008, Note_on_c, 1, 65, 75
3, 19196, Note_off_c, 1, 65, 0
3, 19200, Note_on_c, 1, 67, 75
3, 19520, Note_off_c, 1, 67, 0
3, 19584, Note_on_c, 1, 74, 75
3, 19772, Note_off_c, 1, 74, 0
3, 19776, Note_on_c, 1, 71, 75
3, 19964, Note_off_c, 1, 71, 0
3, 19968, Note_on_c, 1, 72, 75
3, 20156, Note_off_c, 1, 72, 0
3, 20160, Note_on_c, 1, 67, 75
3, 20348, Note_off_c, 1, 67, 0
3, 20352, Note_on_c, 1, 65, 75
3, 20540, Note_off_c, 1, 65, 0
3, 20544, Note_on_c, 1, 63, 75
3, 20732, Note_off_c, 1, 63, 0
3, 20736, Note_on_c, 1, 65, 75
3, 21056, Note_off_c, 1, 65, 0
3, 21120, Note_on_c, 1, 63, 75
3, 21308, Note_off_c, 1, 63, 0
3, 21312, Note_on_c, 1, 68, 75
3, 21500, Note_off_c, 1, 68, 0
3, 21504, Note_on_c, 1, 67, 75
3, 21692, Note_off_c, 1, 67, 0
3, 21696, Note_on_c, 1, 65, 75
3, 21884, Note_off_c, 1, 65, 0
3, 21888, Note_on_c, 1, 63, 75
3, 22076, Note_off_c, 1, 63, 0
3, 22080, Note_on_c, 1, 62, 75
3, 22460, Note_off_c, 1, 62, 0
3, 22464, Note_on_c, 1, 68, 60
3, 22652, Note_off_c, 1, 68, 0
3, 22656, Note_on_c, 1, 70, 60
3, 22844, Note_off_c, 1, 70, 0
3, 22848, Note_on_c, 1, 67, 60
3, 23036, Note_off_c, 1, 67, 0
3, 23040, Note_on_c, 1, 65, 60
3, 23552, Note_off_c, 1, 65, 0
3, 23616, Note_on_c, 1, 68, 60
3, 23804, Note_off_c, 1, 68, 0
3, 23808, Note_on_c, 1, 70, 60
3, 23996, Note_off_c, 1, 70, 0
3, 24000, Note_on_c, 1, 67, 60
3, 24188, Note_off_c, 1, 67, 0
3, 24192, Note_on_c, 1, 63, 60
3, 24512, Note_off_c, 1, 63, 0
3, 24576, Note_on_c, 1, 65, 60
3, 24764, Note_off_c, 1, 65, 0
3, 24768, Note_on_c, 1, 77, 92
3, 24956, Note_off_c, 1, 77, 0
3, 24960, Note_on_c, 1, 75, 92
3, 25148, Note_off_c, 1, 75, 0
3, 25152, Note_on_c, 1, 72, 92
3, 25340, Note_off_c, 1, 72, 0
3, 25344, Note_on_c, 1, 70, 92
3, 25664, Note_off_c, 1, 70, 0
3, 25728, Note_on_c, 1, 67, 92
3, 25916, Note_off_c, 1, 67, 0
3, 25920, Note_on_c, 1, 65, 92
3, 26108, Note_off_c, 1, 65, 0
3, 26112, Note_on_c, 1, 63, 92
3, 26300, Note_off_c, 1, 63, 0
3, 26304, Note_on_c, 1, 62, 92
3, 26492, Note_off_c, 1, 62, 0
3, 26496, Note_on_c, 1, 58, 60
3, 27552, Note_off_c, 1, 58, 0
3, 27648, Note_on_c, 1, 67, 60
3, 27836, Note_off_c, 1, 67, 0
3, 27840, Note_on_c, 1, 68, 60
3, 27932, Note_off_c, 1, 68, 0
3, 27936, Note_on_c, 1, 70, 60
3, 28028, Note_off_c, 1, 70, 0
3, 28032, Note_on_c, 1, 68, 60
3, 28220, Note_off_c, 1, 68, 0
3, 28224, Note_on_c, 1, 67, 60
3, 28412, Note_off_c, 1, 67, 0
3, 28416, Note_on_c, 1, 65, 60
3, 28604, Note_off_c, 1, 65, 0
3, 28608, Note_on_c, 1, 63, 60
3, 28796, Note_off_c, 1, 63, 0
3, 28800, Note_on_c, 1, 63, 75
3, 29472, Note_off_c, 1, 63, 0
3, 29952, Note_on_c, 1, 70, 75
3, 30140, Note_off_c, 1, 70, 0
3, 30144, Note_on_c, 1, 72, 75
3, 30236, Note_off_c, 1, 72, 0
3, 30240, Note_on_c, 1, 73, 75
3, 30332, Note_off_c, 1, 73, 0
3, 30336, Note_on_c, 1, 73, 75
3, 30524, Note_off_c, 1, 73, 0
3, 30528, Note_on_c, 1, 72, 75
3, 30716, Note_off_c, 1, 72, 0
3, 30720, Note_on_c, 1, 72, 75
3, 30908, Note_off_c, 1, 72, 0
3, 30912, Note_on_c, 1, 70, 75
3, 31100, Note_off_c, 1, 70, 0
3, 31104, Note_on_c, 1, 70, 75
3, 31196, Note_off_c, 1, 70, 0
3, 31200, Note_on_c, 1, 68, 75
3, 31292, Note_off_c, 1, 68, 0
3, 31296, Note_on_c, 1, 67, 75
3, 31484, Note_off_c, 1, 67, 0
3, 31488, Note_on_c, 1, 68, 75
3, 32160, Note_off_c, 1, 68, 0
3, 32256, Note_on_c, 1, 67, 75
3, 32576, Note_off_c, 1, 67, 0
3, 32640, Note_on_c, 1, 72, 92
3, 33728, Note_off_c, 1, 72, 0
3, 33792, Note_on_c, 1, 65, 92
3, 33980, Note_off_c, 1, 65, 0
3, 33984, Note_on_c, 1, 64, 92
3, 34172, Note_off_c, 1, 64, 0
3, 34176, Note_on_c, 1, 65, 92
3, 34364, Note_off_c, 1, 65, 0
3, 34368, Note_on_c, 1, 68, 92
3, 34556, Note_off_c, 1, 68, 0
3, 34560, Note_on_c, 1, 71, 92
3, 34880, Note_off_c, 1, 71, 0
3, 35712, Note_on_c, 1, 62, 92
3, 36224, Note_off_c, 1, 62, 0
3, 36288, Note_on_c, 1, 65, 45
3, 36476, Note_off_c, 1, 65, 0
3, 36480, Note_on_c, 1, 67, 45
3, 36668, Note_off_c, 1, 67, 0
3, 36672, Note_on_c, 1, 63, 45
3, 36860, Note_off_c, 1, 63, 0
3, 36864, Note_on_c, 1, 60, 45
3, 37052, Note_off_c, 1, 60, 0
3, 37056, Note_on_c, 1, 62, 45
3, 37436, Note_off_c, 1, 62, 0
3, 37440, Note_on_c, 1, 65, 45
3, 37628, Note_off_c, 1, 65, 0
3, 37632, Note_on_c, 1, 67, 45
3, 37820, Note_off_c, 1, 67, 0
3, 37824, Note_on_c, 1, 63, 45
3, 38012, Note_off_c, 1, 63, 0
3, 38016, Note_on_c, 1, 60, 45
3, 38336, Note_off_c, 1, 60, 0
3, 38400, Note_on_c, 1, 62, 45
3, 38588, Note_off_c, 1, 62, 0
3, 38592, Note_on_c, 1, 74, 92
3, 38780, Note_off_c, 1, 74, 0
3, 38784, Note_on_c, 1, 72, 92
3, 38972, Note_off_c, 1, 72, 0
3, 38976, Note_on_c, 1, 71, 92
3, 39164, Note_off_c, 1, 71, 0
3, 39168, Note_on_c, 1, 65, 92
3, 39356, Note_off_c, 1, 65, 0
3, 39360, Note_on_c, 1, 67, 92
3, 39548, Note_off_c, 1, 67, 0
3, 39552, Note_on_c, 1, 63, 92
3, 39740, Note_off_c, 1, 63, 0
3, 39744, Note_on_c, 1, 62, 92
3, 39932, Note_off_c, 1, 62, 0
3, 39936, Note_on_c, 1, 60, 92
3, 40124, Note_off_c, 1, 60, 0
3, 40128, Note_on_c, 1, 59, 92
3, 40316, Note_off_c, 1, 59, 0
3, 40320, Note_on_c, 1, 67, 92
3, 41376, Note_off_c, 1, 67, 0
3, 41472, Note_on_c, 1, 63, 60
3, 42144, Note_off_c, 1, 63, 0
3, 42240, Note_on_c, 1, 62, 60
3, 42428, Note_off_c, 1, 62, 0
3, 42432, Note_on_c, 1, 63, 60
3, 42620, Note_off_c, 1, 63, 0
3, 42624, Note_on_c, 1, 67, 60
3, 43680, Note_off_c, 1, 67, 0
3, 43776, Note_on_c, 1, 70, 60
3, 43964, Note_off_c, 1, 70, 0
3, 43968, Note_on_c, 1, 72, 60
3, 44060, Note_off_c, 1, 72, 0
3, 44064, Note_on_c, 1, 73, 60
3, 44156, Note_off_c, 1, 73, 0
3, 44160, Note_on_c, 1, 73, 60
3, 44348, Note_off_c, 1, 73, 0
3, 44352, Note_on_c, 1, 72, 60
3, 44540, Note_off_c, 1, 72, 0
3, 44544, Note_on_c, 1, 72, 60
3, 44732, Note_off_c, 1, 72, 0
3, 44736, Note_on_c, 1, 70, 60
3, 44924, Note_off_c, 1, 70, 0
3, 44928, Note_on_c, 1, 70, 60
3, 45020, Note_off_c, 1, 70, 0
3, 45024, Note_on_c, 1, 68, 60
3, 45116, Note_off_c, 1, 68, 0
3, 45120, Note_on_c, 1, 67, 60
3, 45308, Note_off_c, 1, 67, 0
3, 45312, Note_on_c, 1, 68, 60
3, 45984, Note_off_c, 1, 68, 0
3, 46080, Note_on_c, 1, 67, 60
3, 46400, Note_off_c, 1, 67, 0
3, 46464, Note_on_c, 1, 72, 75
3, 47552, Note_off_c, 1, 72, 0
3, 47616, Note_on_c, 1, 65, 75
3, 47804, Note_off_c, 1, 65, 0
3, 47808, Note_on_c, 1, 64, 75
3, 47996, Note_off_c, 1, 64, 0
3, 48000, Note_on_c, 1, 65, 75
3, 48188, Note_off_c, 1, 65, 0
3, 48192, Note_on_c, 1, 68, 75
3, 48380, Note_off_c, 1, 68, 0
3, 48384, Note_on_c, 1, 71, 75
3, 48704, Note_off_c, 1, 71, 0
3, 49536, Note_on_c, 1, 62, 75
3, 50048, Note_off_c, 1, 62, 0
3, 50112, Note_on_c, 1, 65, 45
3, 50300, Note_off_c, 1, 65, 0
3, 50304, Note_on_c, 1, 67, 45
3, 50492, Note_off_c, 1, 67, 0
3, 50496, Note_on_c, 1, 63, 45
3, 50684, Note_off_c, 1, 63, 0
3, 50688, Note_on_c, 1, 60, 45
3, 50876, Note_off_c, 1, 60, 0
3, 50880, Note_on_c, 1, 62, 45
3, 51260, Note_off_c, 1, 62, 0
3, 51264, Note_on_c, 1, 65, 45
3, 51452, Note_off_c, 1, 65, 0
3, 51456, Note_on_c, 1, 67, 45
3, 51644, Note_off_c, 1, 67, 0
3, 51648, Note_on_c, 1, 63, 45
3, 51836, Note_off_c, 1, 63, 0
3, 51840, Note_on_c, 1, 60, 45
3, 52160, Note_off_c, 1, 60, 0
3, 52224, Note_on_c, 1, 62, 45
3, 52412, Note_off_c, 1, 62, 0
3, 52416, Note_on_c, 1, 74, 92
3, 52604, Note_off_c, 1, 74, 0
3, 52608, Note_on_c, 1, 72, 92
3, 52796, Note_off_c, 1, 72, 0
3, 52800, Note_on_c, 1, 71, 92
3, 52988, Note_off_c, 1, 71, 0
3, 52992, Note_on_c, 1, 65, 92
3, 53180, Note_off_c, 1, 65, 0
3, 53184, Note_on_c, 1, 67, 92
3, 53372, Note_off_c, 1, 67, 0
3, 53376, Note_on_c, 1, 63, 92
3, 53564, Note_off_c, 1, 63, 0
3, 53568, Note_on_c, 1, 62, 92
3, 53756, Note_off_c, 1, 62, 0
3, 53760, Note_on_c, 1, 60, 92
3, 53948, Note_off_c, 1, 60, 0
3, 53952, Note_on_c, 1, 59, 92
3, 54140, Note_off_c, 1, 59, 0
3, 54144, Note_on_c, 1, 67, 92
3, 55200, Note_off_c, 1, 67, 0
3, 55488, Note_on_c, 1, 63, 75
3, 56160, Note_off_c, 1, 63, 0
3, 56256, Note_on_c, 1, 67, 75
3, 56576, Note_off_c, 1, 67, 0
3, 56640, Note_on_c, 1, 60, 75
3, 57152, Note_off_c, 1, 60, 0
3, 57216, Note_on_c, 1, 63, 75
3, 57404, Note_off_c, 1, 63, 0
3, 57408, Note_on_c, 1, 67, 75
3, 57728, Note_off_c, 1, 67, 0
3, 57792, Note_on_c, 1, 67, 75
3, 57980, Note_off_c, 1, 67, 0
3, 57984, Note_on_c, 1, 68, 75
3, 58172, Note_off_c, 1, 68, 0
3, 58176, Note_on_c, 1, 72, 75
3, 58368, Note_off_c, 1, 72, 0
3, 58368, Note_on_c, 1, 68, 75
3, 58556, Note_off_c, 1, 68, 0
3, 58560, Note_on_c, 1, 68, 75
3, 58752, Note_off_c, 1, 68, 0
3, 58752, Note_on_c, 1, 65, 75
3, 58940, Note_off_c, 1, 65, 0
3, 58944, Note_on_c, 1, 67, 75
3, 59136, Note_off_c, 1, 67, 0
3, 59136, Note_on_c, 1, 65, 75
3, 59324, Note_off_c, 1, 65, 0
3, 59328, Note_on_c, 1, 65, 75
3, 59516, Note_off_c, 1, 65, 0
3, 59520, Note_on_c, 1, 60, 75
3, 59712, Note_off_c, 1, 60, 0
3, 59712, Note_on_c, 1, 61, 75
3, 59904, Note_off_c, 1, 61, 0
3, 59904, Note_on_c, 1, 58, 75
3, 60092, Note_off_c, 1, 58, 0
3, 60096, Note_on_c, 1, 60, 75
3, 60288, Note_off_c, 1, 60, 0
3, 60288, Note_on_c, 1, 65, 75
3, 60480, Note_off_c, 1, 65, 0
3, 60480, Note_on_c, 1, 63, 75
3, 60668, Note_off_c, 1, 63, 0
3, 60672, Note_on_c, 1, 65, 75
3, 60864, Note_off_c, 1, 65, 0
3, 60864, Note_on_c, 1, 67, 75
3, 61056, Note_off_c, 1, 67, 0
3, 61056, Note_on_c, 1, 67, 75
3, 61244, Note_off_c, 1, 67, 0
3, 61248, Note_on_c, 1, 58, 75
3, 61632, Note_off_c, 1, 58, 0
3, 61632, Note_on_c, 1, 65, 75
3, 61952, Note_off_c, 1, 65, 0
3, 62016, Note_on_c, 1, 70, 75
3, 62304, Note_off_c, 1, 70, 0
3, 62304, Note_on_c, 1, 75, 75
3, 62396, Note_off_c, 1, 75, 0
3, 62400, Note_on_c, 1, 65, 75
3, 62912, Note_off_c, 1, 65, 0
3, 62976, Note_on_c, 1, 68, 75
3, 63164, Note_off_c, 1, 68, 0
3, 63168, Note_on_c, 1, 72, 75
3, 63744, Note_off_c, 1, 72, 0
3, 63744, Note_on_c, 1, 73, 75
3, 63932, Note_off_c, 1, 73, 0
3, 63936, Note_on_c, 1, 75, 75
3, 64128, Note_off_c, 1, 75, 0
3, 64128, Note_on_c, 1, 73, 75
3, 64316, Note_off_c, 1, 73, 0
3, 64320, Note_on_c, 1, 73, 75
3, 64512, Note_off_c, 1, 73, 0
3, 64512, Note_on_c, 1, 72, 75
3, 64700, Note_off_c, 1, 72, 0
3, 64704, Note_on_c, 1, 72, 75
3, 64896, Note_off_c, 1, 72, 0
3, 64896, Note_on_c, 1, 70, 75
3, 65084, Note_off_c, 1, 70, 0
3, 65088, Note_on_c, 1, 70, 75
3, 65276, Note_off_c, 1, 70, 0
3, 65280, Note_on_c, 1, 65, 45
3, 65472, Note_off_c, 1, 65, 0
3, 65472, Note_on_c, 1, 66, 45
3, 65664, Note_off_c, 1, 66, 0
3, 65664, Note_on_c, 1, 69, 45
3, 65852, Note_off_c, 1, 69, 0
3, 65856, Note_on_c, 1, 63, 45
3, 66048, Note_off_c, 1, 63, 0
3, 66048, Note_on_c, 1, 65, 45
3, 66240, Note_off_c, 1, 65, 0
3, 66240, Note_on_c, 1, 66, 45
3, 66428, Note_off_c, 1, 66, 0
3, 66432, Note_on_c, 1, 70, 45
3, 66624, Note_off_c, 1, 70, 0
3, 66624, Note_on_c, 1, 72, 45
3, 66816, Note_off_c, 1, 72, 0
3, 66816, Note_on_c, 1, 66, 45
3, 67004, Note_off_c, 1, 66, 0
3, 67008, Note_on_c, 1, 63, 45
3, 67392, Note_off_c, 1, 63, 0
3, 67392, Note_on_c, 1, 65, 45
3, 67712, Note_off_c, 1, 65, 0
3, 67776, Note_on_c, 1, 70, 45
3, 68096, Note_off_c, 1, 70, 0
3, 68160, Note_on_c, 1, 70, 75
3, 68480, Note_off_c, 1, 70, 0
3, 68544, Note_on_c, 1, 67, 75
3, 68864, Note_off_c, 1, 67, 0
3, 68928, Note_on_c, 1, 67, 75
3, 69120, Note_off_c, 1, 67, 0
3, 69120, Note_on_c, 1, 68, 75
3, 69308, Note_off_c, 1, 68, 0
3, 69312, Note_on_c, 1, 65, 75
3, 69504, Note_off_c, 1, 65, 0
3, 69504, Note_on_c, 1, 67, 75
3, 69692, Note_off_c, 1, 67, 0
3, 69696, Note_on_c, 1, 71, 75
3, 69888, Note_off_c, 1, 71, 0
3, 69888, Note_on_c, 1, 72, 75
3, 70076, Note_off_c, 1, 72, 0
3, 70080, Note_on_c, 1, 74, 75
3, 70400, Note_off_c, 1, 74, 0
3, 70464, Note_on_c, 1, 74, 75
3, 71520, Note_off_c, 1, 74, 0
3, 71616, Note_on_c, 1, 72, 92
3, 71808, Note_off_c, 1, 72, 0
3, 71808, Note_on_c, 1, 71, 92
3, 71996, Note_off_c, 1, 71, 0
3, 72000, Note_on_c, 1, 74, 92
3, 72192, Note_off_c, 1, 74, 0
3, 72192, Note_on_c, 1, 72, 92
3, 72380, Note_off_c, 1, 72, 0
3, 72384, Note_on_c, 1, 72, 92
3, 72576, Note_off_c, 1, 72, 0
3, 72576, Note_on_c, 1, 71, 92
3, 72764, Note_off_c, 1, 71, 0
3, 72768, Note_on_c, 1, 72, 92
3, 72960, Note_off_c, 1, 72, 0
3, 72960, Note_on_c, 1, 71, 92
3, 73148, Note_off_c, 1, 71, 0
3, 73152, Note_on_c, 1, 74, 92
3, 73344, Note_off_c, 1, 74, 0
3, 73344, Note_on_c, 1, 72, 92
3, 73532, Note_off_c, 1, 72, 0
3, 73536, Note_on_c, 1, 72, 92
3, 73728, Note_off_c, 1, 72, 0
3, 73728, Note_on_c, 1, 71, 92
3, 73916, Note_off_c, 1, 71, 0
3, 73920, Note_on_c, 1, 72, 92
3, 74112, Note_off_c, 1, 72, 0
3, 74112, Note_on_c, 1, 70, 92
3, 74300, Note_off_c, 1, 70, 0
3, 74304, Note_on_c, 1, 70, 92
3, 74496, Note_off_c, 1, 70, 0
3, 74496, Note_on_c, 1, 69, 92
3, 74684, Note_off_c, 1, 69, 0
3, 74688, Note_on_c, 1, 69, 92
3, 74880, Note_off_c, 1, 69, 0
3, 74880, Note_on_c, 1, 70, 92
3, 74976, Note_off_c, 1, 70, 0
3, 74976, Note_on_c, 1, 72, 92
3, 75068, Note_off_c, 1, 72, 0
3, 75072, Note_on_c, 1, 70, 92
3, 75264, Note_off_c, 1, 70, 0
3, 75264, Note_on_c, 1, 69, 92
3, 75452, Note_off_c, 1, 69, 0
3, 75456, Note_on_c, 1, 69, 92
3, 75648, Note_off_c, 1, 69, 0
3, 75648, Note_on_c, 1, 67, 92
3, 75836, Note_off_c, 1, 67, 0
3, 75840, Note_on_c, 1, 67, 92
3, 76032, Note_off_c, 1, 67, 0
3, 76032, Note_on_c, 1, 69, 92
3, 76128, Note_off_c, 1, 69, 0
3, 76128, Note_on_c, 1, 70, 92
3, 76220, Note_off_c, 1, 70, 0
3, 76224, Note_on_c, 1, 69, 92
3, 76412, Note_off_c, 1, 69, 0
3, 76416, Note_on_c, 1, 67, 92
3, 76604, Note_off_c, 1, 67, 0
3, 76608, Note_on_c, 1, 66, 92
3, 76796, Note_off_c, 1, 66, 0
3, 76800, Note_on_c, 1, 67, 92
3, 76988, Note_off_c, 1, 67, 0
3, 76992, Note_on_c, 1, 66, 92
3, 77180, Note_off_c, 1, 66, 0
3, 77184, Note_on_c, 1, 67, 92
3, 77372, Note_off_c, 1, 67, 0
3, 77376, Note_on_c, 1, 62, 92
3, 77888, Note_off_c, 1, 62, 0
3, 77952, Note_on_c, 1, 72, 45
3, 78144, Note_off_c, 1, 72, 0
3, 78144, Note_on_c, 1, 74, 45
3, 78336, Note_off_c, 1, 74, 0
3, 78336, Note_on_c, 1, 70, 45
3, 78524, Note_off_c, 1, 70, 0
3, 78528, Note_on_c, 1, 67, 45
3, 78720, Note_off_c, 1, 67, 0
3, 78720, Note_on_c, 1, 69, 45
3, 78912, Note_off_c, 1, 69, 0
3, 78912, Note_on_c, 1, 70, 45
3, 79100, Note_off_c, 1, 70, 0
3, 79104, Note_on_c, 1, 72, 45
3, 79296, Note_off_c, 1, 72, 0
3, 79296, Note_on_c, 1, 74, 45
3, 79488, Note_off_c, 1, 74, 0
3, 79488, Note_on_c, 1, 70, 45
3, 79676, Note_off_c, 1, 70, 0
3, 79680, Note_on_c, 1, 67, 45
3, 79872, Note_off_c, 1, 67, 0
3, 79872, Note_on_c, 1, 66, 45
3, 80064, Note_off_c, 1, 66, 0
3, 80064, Note_on_c, 1, 69, 45
3, 80252, Note_off_c, 1, 69, 0
3, 80256, Note_on_c, 1, 72, 92
3, 80444, Note_off_c, 1, 72, 0
3, 80448, Note_on_c, 1, 72, 92
3, 80636, Note_off_c, 1, 72, 0
3, 80640, Note_on_c, 1, 69, 92
3, 80828, Note_off_c, 1, 69, 0
3, 80832, Note_on_c, 1, 67, 92
3, 81024, Note_off_c, 1, 67, 0
3, 81024, Note_on_c, 1, 70, 92
3, 81212, Note_off_c, 1, 70, 0
3, 81216, Note_on_c, 1, 69, 92
3, 81408, Note_off_c, 1, 69, 0
3, 81408, Note_on_c, 1, 67, 92
3, 81596, Note_off_c, 1, 67, 0
3, 81600, Note_on_c, 1, 66, 92
3, 81792, Note_off_c, 1, 66, 0
3, 81792, Note_on_c, 1, 62, 92
3, 81980, Note_off_c, 1, 62, 0
3, 81984, Note_on_c, 1, 62, 75
3, 83040, Note_off_c, 1, 62, 0
3, 83136, Note_on_c, 1, 71, 75
3, 83520, Note_off_c, 1, 71, 0
3, 83520, Note_on_c, 1, 72, 75
3, 83840, Note_off_c, 1, 72, 0
3, 83904, Note_on_c, 1, 74, 75
3, 84096, Note_off_c, 1, 74, 0
3, 84096, Note_on_c, 1, 74, 75
3, 84284, Note_off_c, 1, 74, 0
3, 84288, Note_on_c, 1, 62, 75
3, 85344, Note_off_c, 1, 62, 0
3, 85440, Note_on_c, 1, 71, 75
3, 86112, Note_off_c, 1, 71, 0
3, 86592, Note_on_c, 1, 71, 75
3, 87648, Note_off_c, 1, 71, 0
3, 87744, Note_on_c, 1, 72, 75
3, 87936, Note_off_c, 1, 72, 0
3, 87936, Note_on_c, 1, 70, 75
3, 88128, Note_off_c, 1, 70, 0
3, 88128, Note_on_c, 1, 70, 75
3, 88320, Note_off_c, 1, 70, 0
3, 88320, Note_on_c, 1, 68, 75
3, 88512, Note_off_c, 1, 68, 0
3, 88512, Note_on_c, 1, 68, 75
3, 89088, Note_off_c, 1, 68, 0
3, 89088, Note_on_c, 1, 67, 75
3, 89276, Note_off_c, 1, 67, 0
3, 89280, Note_on_c, 1, 67, 75
3, 89472, Note_off_c, 1, 67, 0
3, 89472, Note_on_c, 1, 65, 75
3, 89660, Note_off_c, 1, 65, 0
3, 89664, Note_on_c, 1, 65, 75
3, 90236, Note_off_c, 1, 65, 0
3, 90240, Note_on_c, 1, 63, 75
3, 90428, Note_off_c, 1, 63, 0
3, 90432, Note_on_c, 1, 63, 75
3, 90624, Note_off_c, 1, 63, 0
3, 90624, Note_on_c, 1, 62, 75
3, 90812, Note_off_c, 1, 62, 0
3, 90816, Note_on_c, 1, 63, 75
3, 91136, Note_off_c, 1, 63, 0
3, 91200, Note_on_c, 1, 62, 75
3, 92256, Note_off_c, 1, 62, 0
3, 92352, Note_on_c, 1, 75, 75
3, 92540, Note_off_c, 1, 75, 0
3, 92544, Note_on_c, 1, 77, 75
3, 92636, Note_off_c, 1, 77, 0
3, 92640, Note_on_c, 1, 79, 75
3, 92732, Note_off_c, 1, 79, 0
3, 92736, Note_on_c, 1, 77, 75
3, 92924, Note_off_c, 1, 77, 0
3, 92928, Note_on_c, 1, 75, 75
3, 93116, Note_off_c, 1, 75, 0
3, 93120, Note_on_c, 1, 74, 75
3, 93308, Note_off_c, 1, 74, 0
3, 93312, Note_on_c, 1, 72, 75
3, 93500, Note_off_c, 1, 72, 0
3, 93504, Note_on_c, 1, 65, 75
3, 94560, Note_off_c, 1, 65, 0
3, 94656, Note_on_c, 1, 67, 75
3, 94844, Note_off_c, 1, 67, 0
3, 94848, Note_on_c, 1, 68, 75
3, 94940, Note_off_c, 1, 68, 0
3, 94944, Note_on_c, 1, 70, 75
3, 95036, Note_off_c, 1, 70, 0
3, 95040, Note_on_c, 1, 70, 75
3, 95228, Note_off_c, 1, 70, 0
3, 95232, Note_on_c, 1, 68, 75
3, 95420, Note_off_c, 1, 68, 0
3, 95424, Note_on_c, 1, 68, 75
3, 95612, Note_off_c, 1, 68, 0
3, 95616, Note_on_c, 1, 67, 75
3, 95804, Note_off_c, 1, 67, 0
3, 95808, Note_on_c, 1, 67, 75
3, 95900, Note_off_c, 1, 67, 0
3, 95904, Note_on_c, 1, 65, 75
3, 95996, Note_off_c, 1, 65, 0
3, 96000, Note_on_c, 1, 64, 75
3, 96188, Note_off_c, 1, 64, 0
3, 96192, Note_on_c, 1, 65, 75
3, 97148, Note_off_c, 1, 65, 0
3, 97152, Note_on_c, 1, 67, 75
3, 97340, Note_off_c, 1, 67, 0
3, 97344, Note_on_c, 1, 68, 75
3, 97532, Note_off_c, 1, 68, 0
3, 97536, Note_on_c, 1, 65, 75
3, 97724, Note_off_c, 1, 65, 0
3, 97728, Note_on_c, 1, 67, 75
3, 98048, Note_off_c, 1, 67, 0
3, 98112, Note_on_c, 1, 74, 75
3, 98300, Note_off_c, 1, 74, 0
3, 98304, Note_on_c, 1, 71, 75
3, 98492, Note_off_c, 1, 71, 0
3, 98496, Note_on_c, 1, 72, 75
3, 98684, Note_off_c, 1, 72, 0
3, 98688, Note_on_c, 1, 67, 75
3, 98876, Note_off_c, 1, 67, 0
3, 98880, Note_on_c, 1, 65, 75
3, 99068, Note_off_c, 1, 65, 0
3, 99072, Note_on_c, 1, 63, 75
3, 99260, Note_off_c, 1, 63, 0
3, 99264, Note_on_c, 1, 65, 75
3, 99584, Note_off_c, 1, 65, 0
3, 99648, Note_on_c, 1, 63, 75
3, 99836, Note_off_c, 1, 63, 0
3, 99840, Note_on_c, 1, 68, 75
3, 100028, Note_off_c, 1, 68, 0
3, 100032, Note_on_c, 1, 67, 75
3, 100220, Note_off_c, 1, 67, 0
3, 100224, Note_on_c, 1, 65, 75
3, 100412, Note_off_c, 1, 65, 0
3, 100416, Note_on_c, 1, 63, 75
3, 100608, Note_off_c, 1, 63, 0
3, 100608, Note_on_c, 1, 62, 75
3, 100928, Note_off_c, 1, 62, 0
3, 100992, Control_c, 1, 10, 32
3, 100992, Note_on_c, 1, 68, 60
3, 101184, Note_off_c, 1, 68, 0
3, 101184, Note_on_c, 1, 70, 60
3, 101376, Note_off_c, 1, 70, 0
3, 101376, Note_on_c, 1, 67, 60
3, 101564, Note_off_c, 1, 67, 0
3, 101568, Note_on_c, 1, 69, 60
3, 101760, Note_off_c, 1, 69, 0
3, 101760, Note_on_c, 1, 65, 60
3, 101948, Note_off_c, 1, 65, 0
3, 101952, Note_on_c, 1, 65, 60
3, 102140, Note_off_c, 1, 65, 0
3, 102144, Control_c, 1, 10, 96
3, 102144, Note_on_c, 1, 68, 60
3, 102336, Note_off_c, 1, 68, 0
3, 102336, Note_on_c, 1, 70, 60
3, 102528, Note_off_c, 1, 70, 0
3, 102528, Note_on_c, 1, 67, 60
3, 102716, Note_off_c, 1, 67, 0
3, 102720, Note_on_c, 1, 63, 60
3, 103040, Note_off_c, 1, 63, 0
3, 103104, Note_on_c, 1, 65, 60
3, 103292, Note_off_c, 1, 65, 0
3, 103296, Control_c, 1, 10, 96
3, 103296, Note_on_c, 1, 77, 92
3, 103484, Note_off_c, 1, 77, 0
3, 103488, Note_on_c, 1, 75, 92
3, 103676, Note_off_c, 1, 75, 0
3, 103680, Note_on_c, 1, 72, 92
3, 103868, Note_off_c, 1, 72, 0
3, 103872, Note_on_c, 1, 70, 92
3, 104192, Note_off_c, 1, 70, 0
3, 104256, Note_on_c, 1, 67, 92
3, 104444, Note_off_c, 1, 67, 0
3, 104448, Note_on_c, 1, 65, 92
3, 104636, Note_off_c, 1, 65, 0
3, 104640, Note_on_c, 1, 63, 92
3, 104828, Note_off_c, 1, 63, 0
3, 104832, Note_on_c, 1, 62, 92
3, 105020, Note_off_c, 1, 62, 0
3, 105024, Note_on_c, 1, 58, 92
3, 106080, Note_off_c, 1, 58, 0
3, 107328, Note_on_c, 1, 65, 75
3, 108384, Note_off_c, 1, 65, 0
3, 108480, Note_on_c, 1, 67, 75
3, 108668, Note_off_c, 1, 67, 0
3, 108672, Note_on_c, 1, 68, 75
3, 108764, Note_off_c, 1, 68, 0
3, 108768, Note_on_c, 1, 70, 75
3, 108860, Note_off_c, 1, 70, 0
3, 108864, Note_on_c, 1, 70, 75
3, 109052, Note_off_c, 1, 70, 0
3, 109056, Note_on_c, 1, 68, 75
3, 109244, Note_off_c, 1, 68, 0
3, 109248, Note_on_c, 1, 68, 75
3, 109436, Note_off_c, 1, 68, 0
3, 109440, Note_on_c, 1, 67, 75
3, 109628, Note_off_c, 1, 67, 0
3, 109632, Note_on_c, 1, 67, 75
3, 109724, Note_off_c, 1, 67, 0
3, 109728, Note_on_c, 1, 65, 75
3, 109820, Note_off_c, 1, 65, 0
3, 109824, Note_on_c, 1, 64, 75
3, 110012, Note_off_c, 1, 64, 0
3, 110016, Note_on_c, 1, 65, 75
3, 110688, Note_off_c, 1, 65, 0
3, 110784, Note_on_c, 1, 65, 75
3, 111104, Note_off_c, 1, 65, 0
3, 111168, Note_on_c, 1, 68, 75
3, 111356, Note_off_c, 1, 68, 0
3, 111360, Note_on_c, 1, 65, 75
3, 111548, Note_off_c, 1, 65, 0
3, 111552, Note_on_c, 1, 67, 75
3, 111872, Note_off_c, 1, 67, 0
3, 111936, Note_on_c, 1, 74, 75
3, 112124, Note_off_c, 1, 74, 0
3, 112128, Note_on_c, 1, 71, 75
3, 112316, Note_off_c, 1, 71, 0
3, 112320, Note_on_c, 1, 72, 75
3, 112508, Note_off_c, 1, 72, 0
3, 112512, Note_on_c, 1, 67, 75
3, 112700, Note_off_c, 1, 67, 0
3, 112704, Note_on_c, 1, 65, 75
3, 112892, Note_off_c, 1, 65, 0
3, 112896, Note_on_c, 1, 63, 75
3, 113084, Note_off_c, 1, 63, 0
3, 113088, Note_on_c, 1, 65, 75
3, 113408, Note_off_c, 1, 65, 0
3, 113472, Note_on_c, 1, 63, 75
3, 113660, Note_off_c, 1, 63, 0
3, 113664, Note_on_c, 1, 68, 75
3, 113852, Note_off_c, 1, 68, 0
3, 113856, Note_on_c, 1, 67, 75
3, 114044, Note_off_c, 1, 67, 0
3, 114048, Note_on_c, 1, 65, 75
3, 114236, Note_off_c, 1, 65, 0
3, 114240, Note_on_c, 1, 63, 75
3, 114428, Note_off_c, 1, 63, 0
3, 114432, Note_on_c, 1, 62, 75
3, 114812, Note_off_c, 1, 62, 0
3, 114816, Note_on_c, 1, 68, 60
3, 115004, Note_off_c, 1, 68, 0
3, 115008, Note_on_c, 1, 70, 60
3, 115196, Note_off_c, 1, 70, 0
3, 115200, Note_on_c, 1, 67, 60
3, 115388, Note_off_c, 1, 67, 0
3, 115392, Note_on_c, 1, 65, 60
3, 115904, Note_off_c, 1, 65, 0
3, 115968, Note_on_c, 1, 68, 60
3, 116156, Note_off_c, 1, 68, 0
3, 116160, Note_on_c, 1, 70, 60
3, 116348, Note_off_c, 1, 70, 0
3, 116352, Note_on_c, 1, 67, 60
3, 116540, Note_off_c, 1, 67, 0
3, 116544, Note_on_c, 1, 63, 60
3, 116864, Note_off_c, 1, 63, 0
3, 116928, Note_on_c, 1, 65, 60
3, 117116, Note_off_c, 1, 65, 0
3, 117120, Note_on_c, 1, 77, 92
3, 117308, Note_off_c, 1, 77, 0
3, 117312, Note_on_c, 1, 75, 92
3, 117500, Note_off_c, 1, 75, 0
3, 117504, Note_on_c, 1, 72, 92
3, 117692, Note_off_c, 1, 72, 0
3, 117696, Note_on_c, 1, 70, 92
3, 118016, Note_off_c, 1, 70, 0
3, 118080, Note_on_c, 1, 67, 92
3, 118268, Note_off_c, 1, 67, 0
3, 118272, Note_on_c, 1, 65, 92
3, 118460, Note_off_c, 1, 65, 0
3, 118464, Note_on_c, 1, 63, 92
3, 118652, Note_off_c, 1, 63, 0
3, 118656, Note_on_c, 1, 62, 92
3, 118844, Note_off_c, 1, 62, 0
3, 118848, Note_on_c, 1, 58, 60
3, 119904, Note_off_c, 1, 58, 0
3, 120000, Note_on_c, 1, 67, 60
3, 120188, Note_off_c, 1, 67, 0
3, 120192, Note_on_c, 1, 68, 60
3, 120284, Note_off_c, 1, 68, 0
3, 120288, Note_on_c, 1, 70, 60
3, 120380, Note_off_c, 1, 70, 0
3, 120384, Note_on_c, 1, 68, 60
3, 120572, Note_off_c, 1, 68, 0
3, 120576, Note_on_c, 1, 67, 60
3, 120764, Note_off_c, 1, 67, 0
3, 120768, Note_on_c, 1, 65, 60
3, 120956, Note_off_c, 1, 65, 0
3, 120960, Note_on_c, 1, 63, 60
3, 121148, Note_off_c, 1, 63, 0
3, 121152, Note_on_c, 1, 63, 75
3, 121824, Note_off_c, 1, 63, 0
3, 122304, Note_on_c, 1, 70, 75
3, 122492, Note_off_c, 1, 70, 0
3, 122496, Note_on_c, 1, 72, 75
3, 122588, Note_off_c, 1, 72, 0
3, 122592, Note_on_c, 1, 73, 75
3, 122684, Note_off_c, 1, 73, 0
3, 122688, Note_on_c, 1, 73, 75
3, 122876, Note_off_c, 1, 73, 0
3, 122880, Note_on_c, 1, 72, 75
3, 123068, Note_off_c, 1, 72, 0
3, 123072, Note_on_c, 1, 72, 75
3, 123260, Note_off_c, 1, 72, 0
3, 123264, Note_on_c, 1, 70, 75
3, 123452, Note_off_c, 1, 70, 0
3, 123456, Note_on_c, 1, 70, 75
3, 123548, Note_off_c, 1, 70, 0
3, 123552, Note_on_c, 1, 68, 75
3, 123644, Note_off_c, 1, 68, 0
3, 123648, Note_on_c, 1, 67, 75
3, 123836, Note_off_c, 1, 67, 0
3, 123840, Note_on_c, 1, 68, 75
3, 124512, Note_off_c, 1, 68, 0
3, 124608, Note_on_c, 1, 67, 75
3, 124928, Note_off_c, 1, 67, 0
3, 124992, Note_on_c, 1, 72, 92
3, 126080, Note_off_c, 1, 72, 0
3, 126144, Note_on_c, 1, 65, 92
3, 126332, Note_off_c, 1, 65, 0
3, 126336, Note_on_c, 1, 64, 92
3, 126524, Note_off_c, 1, 64, 0
3, 126528, Note_on_c, 1, 65, 92
3, 126716, Note_off_c, 1, 65, 0
3, 126720, Note_on_c, 1, 68, 92
3, 126908, Note_off_c, 1, 68, 0
3, 126912, Note_on_c, 1, 71, 92
3, 127232, Note_off_c, 1, 71, 0
3, 128064, Note_on_c, 1, 62, 92
3, 128576, Note_off_c, 1, 62, 0
3, 128640, Note_on_c, 1, 65, 45
3, 128828, Note_off_c, 1, 65, 0
3, 128832, Note_on_c, 1, 67, 45
3, 129020, Note_off_c, 1, 67, 0
3, 129024, Note_on_c, 1, 63, 45
3, 129212, Note_off_c, 1, 63, 0
3, 129216, Note_on_c, 1, 60, 45
3, 129404, Note_off_c, 1, 60, 0
3, 129408, Note_on_c, 1, 62, 45
3, 129788, Note_off_c, 1, 62, 0
3, 129792, Note_on_c, 1, 65, 45
3, 129980, Note_off_c, 1, 65, 0
3, 129984, Note_on_c, 1, 67, 45
3, 130172, Note_off_c, 1, 67, 0
3, 130176, Note_on_c, 1, 63, 45
3, 130364, Note_off_c, 1, 63, 0
3, 130368, Note_on_c, 1, 60, 45
3, 130688, Note_off_c, 1, 60, 0
3, 130752, Note_on_c, 1, 62, 45
3, 130940, Note_off_c, 1, 62, 0
3, 130944, Note_on_c, 1, 74, 92
3, 131132, Note_off_c, 1, 74, 0
3, 131136, Note_on_c, 1, 72, 92
3, 131324, Note_off_c, 1, 72, 0
3, 131328, Note_on_c, 1, 71, 92
3, 131516, Note_off_c, 1, 71, 0
3, 131520, Note_on_c, 1, 65, 92
3, 131708, Note_off_c, 1, 65, 0
3, 131712, Note_on_c, 1, 67, 92
3, 131900, Note_off_c, 1, 67, 0
3, 131904, Note_on_c, 1, 63, 92
3, 132092, Note_off_c, 1, 63, 0
3, 132096, Note_on_c, 1, 62, 92
3, 132284, Note_off_c, 1, 62, 0
3, 132288, Note_on_c, 1, 60, 92
3, 132476, Note_off_c, 1, 60, 0
3, 132480, Note_on_c, 1, 59, 92
3, 132668, Note_off_c, 1, 59, 0
3, 132672, Note_on_c, 1, 67, 92
3, 133728, Note_off_c, 1, 67, 0
3, 133824, Note_on_c, 1, 63, 60
3, 134496, Note_off_c, 1, 63, 0
3, 134592, Note_on_c, 1, 62, 60
3, 134780, Note_off_c, 1, 62, 0
3, 134784, Note_on_c, 1, 63, 60
3, 134972, Note_off_c, 1, 63, 0
3, 134976, Note_on_c, 1, 67, 60
3, 136032, Note_off_c, 1, 67, 0
3, 136128, Note_on_c, 1, 70, 60
3, 136316, Note_off_c, 1, 70, 0
3, 136320, Note_on_c, 1, 72, 60
3, 136412, Note_off_c, 1, 72, 0
3, 136416, Note_on_c, 1, 73, 60
3, 136508, Note_off_c, 1, 73, 0
3, 136512, Note_on_c, 1, 73, 60
3, 136700, Note_off_c, 1, 73, 0
3, 136704, Note_on_c, 1, 72, 60
3, 136892, Note_off_c, 1, 72, 0
3, 136896, Note_on_c, 1, 72, 60
3, 137084, Note_off_c, 1, 72, 0
3, 137088, Note_on_c, 1, 70, 60
3, 137276, Note_off_c, 1, 70, 0
3, 137280, Note_on_c, 1, 70, 60
3, 137372, Note_off_c, 1, 70, 0
3, 137376, Note_on_c, 1, 68, 60
3, 137468, Note_off_c, 1, 68, 0
3, 137472, Note_on_c, 1, 67, 60
3, 137660, Note_off_c, 1, 67, 0
3, 137664, Note_on_c, 1, 68, 60
3, 138336, Note_off_c, 1, 68, 0
3, 138432, Note_on_c, 1, 67, 60
3, 138752, Note_off_c, 1, 67, 0
3, 138816, Note_on_c, 1, 72, 75
3, 139904, Note_off_c, 1, 72, 0
3, 139968, Note_on_c, 1, 65, 75
3, 140156, Note_off_c, 1, 65, 0
3, 140160, Note_on_c, 1, 64, 75
3, 140348, Note_off_c, 1, 64, 0
3, 140352, Note_on_c, 1, 65, 75
3, 140540, Note_off_c, 1, 65, 0
3, 140544, Note_on_c, 1, 68, 75
3, 140732, Note_off_c, 1, 68, 0
3, 140736, Note_on_c, 1, 71, 75
3, 141056, Note_off_c, 1, 71, 0
3, 141888, Note_on_c, 1, 62, 75
3, 142400, Note_off_c, 1, 62, 0
3, 142464, Note_on_c, 1, 65, 45
3, 142652, Note_off_c, 1, 65, 0
3, 142656, Note_on_c, 1, 67, 45
3, 142844, Note_off_c, 1, 67, 0
3, 142848, Note_on_c, 1, 63, 45
3, 143036, Note_off_c, 1, 63, 0
3, 143040, Note_on_c, 1, 60, 45
3, 143228, Note_off_c, 1, 60, 0
3, 143232, Note_on_c, 1, 62, 45
3, 143612, Note_off_c, 1, 62, 0
3, 143616, Note_on_c, 1, 65, 45
3, 143804, Note_off_c, 1, 65, 0
3, 143808, Note_on_c, 1, 67, 45
3, 143996, Note_off_c, 1, 67, 0
3, 144000, Note_on_c, 1, 63, 45
3, 144188, Note_off_c, 1, 63, 0
3, 144192, Note_on_c, 1, 60, 45
3, 144512, Note_off_c, 1, 60, 0
3, 144576, Note_on_c, 1, 62, 45
3, 144764, Note_off_c, 1, 62, 0
3, 144768, Note_on_c, 1, 74, 92
3, 144956, Note_off_c, 1, 74, 0
3, 144960, Note_on_c, 1, 72, 92
3, 145148, Note_off_c, 1, 72, 0
3, 145152, Note_on_c, 1, 71, 92
3, 145340, Note_off_c, 1, 71, 0
3, 145344, Note_on_c, 1, 65, 92
3, 145532, Note_off_c, 1, 65, 0
3, 145536, Note_on_c, 1, 67, 92
3, 145724, Note_off_c, 1, 67, 0
3, 145728, Note_on_c, 1, 63, 92
3, 145916, Note_off_c, 1, 63, 0
3, 145920, Note_on_c, 1, 62, 92
3, 146108, Note_off_c, 1, 62, 0
3, 146112, Note_on_c, 1, 60, 92
3, 146300, Note_off_c, 1, 60, 0
3, 146304, Note_on_c, 1, 59, 92
3, 146492, Note_off_c, 1, 59, 0
3, 146496, Note_on_c, 1, 67, 92
3, 147552, Note_off_c, 1, 67, 0
3, 147552, End_track
4, 0, Start_track
4, 0, Title_t, "Oboes I & II"
4, 0, Control_c, 7, 0, 0
4, 0, Program_c, 7, 68
4, 0, Control_c, 7, 10, 63
4, 0, Key_signature, -3, "major"
4, 0, Control_c, 7, 7, 127
4, 0, Note_on_c, 7, 75, 60
4, 0, Control_c, 7, 7, 127
4, 0, Note_on_c, 7, 75, 60
4, 188, Note_off_c, 7, 75, 0
4, 188, Note_off_c, 7, 75, 0
4, 192, Note_on_c, 7, 77, 60
4, 192, Note_on_c, 7, 77, 60
4, 284, Note_off_c, 7, 77, 0
4, 284, Note_off_c, 7, 77, 0
4, 288, Note_on_c, 7, 79, 60
4, 288, Note_on_c, 7, 79, 60
4, 380, Note_off_c, 7, 79, 0
4, 380, Note_off_c, 7, 79, 0
4, 384, Note_on_c, 7, 77, 60
4, 384, Note_on_c, 7, 77, 60
4, 572, Note_off_c, 7, 77, 0
4, 572, Note_off_c, 7, 77, 0
4, 576, Note_on_c, 7, 75, 60
4, 576, Note_on_c, 7, 75, 60
4, 764, Note_off_c, 7, 75, 0
4, 764, Note_off_c, 7, 75, 0
4, 768, Note_on_c, 7, 74, 60
4, 768, Note_on_c, 7, 74, 60
4, 956, Note_off_c, 7, 74, 0
4, 956, Note_off_c, 7, 74, 0
4, 960, Note_on_c, 7, 72, 60
4, 960, Note_on_c, 7, 72, 60
4, 1148, Note_off_c, 7, 72, 0
4, 1148, Note_off_c, 7, 72, 0
4, 1152, Note_on_c, 7, 65, 60
4, 1152, Note_on_c, 7, 71, 60
4, 2208, Note_off_c, 7, 65, 0
4, 2208, Note_off_c, 7, 71, 0
4, 2304, Note_on_c, 7, 67, 60
4, 2304, Note_on_c, 7, 70, 60
4, 2492, Note_off_c, 7, 67, 0
4, 2492, Note_off_c, 7, 70, 0
4, 2496, Note_on_c, 7, 68, 60
4, 2496, Note_on_c, 7, 72, 60
4, 2588, Note_off_c, 7, 68, 0
4, 2588, Note_off_c, 7, 72, 0
4, 2592, Note_on_c, 7, 70, 60
4, 2592, Note_on_c, 7, 73, 60
4, 2684, Note_off_c, 7, 70, 0
4, 2684, Note_off_c, 7, 73, 0
4, 2688, Note_on_c, 7, 70, 60
4, 2688, Note_on_c, 7, 73, 60
4, 2876, Note_off_c, 7, 70, 0
4, 2876, Note_off_c, 7, 73, 0
4, 2880, Note_on_c, 7, 68, 60
4, 2880, Note_on_c, 7, 72, 60
4, 3068, Note_off_c, 7, 68, 0
4, 3068, Note_off_c, 7, 72, 0
4, 3072, Note_on_c, 7, 68, 60
4, 3072, Note_on_c, 7, 72, 60
4, 3260, Note_off_c, 7, 68, 0
4, 3260, Note_off_c, 7, 72, 0
4, 3264, Note_on_c, 7, 67, 60
4, 3264, Note_on_c, 7, 70, 60
4, 3452, Note_off_c, 7, 67, 0
4, 3452, Note_off_c, 7, 70, 0
4, 3456, Note_on_c, 7, 67, 60
4, 3456, Note_on_c, 7, 70, 60
4, 3548, Note_off_c, 7, 67, 0
4, 3548, Note_off_c, 7, 70, 0
4, 3552, Note_on_c, 7, 65, 60
4, 3552, Note_on_c, 7, 68, 60
4, 3644, Note_off_c, 7, 65, 0
4, 3644, Note_off_c, 7, 68, 0
4, 3648, Note_on_c, 7, 64, 60
4, 3648, Note_on_c, 7, 67, 60
4, 3836, Note_off_c, 7, 64, 0
4, 3836, Note_off_c, 7, 67, 0
4, 3840, Note_on_c, 7, 65, 60
4, 3840, Note_on_c, 7, 68, 60
4, 4512, Note_off_c, 7, 68, 0
4, 4608, Note_on_c, 7, 67, 60
4, 4796, Note_off_c, 7, 65, 0
4, 4796, Note_off_c, 7, 67, 0
4, 4800, Note_on_c, 7, 67, 60
4, 4800, Note_on_c, 7, 67, 60
4, 4988, Note_off_c, 7, 67, 0
4, 4988, Note_off_c, 7, 67, 0
4, 4992, Note_on_c, 7, 68, 60
4, 4992, Note_on_c, 7, 77, 60
4, 5180, Note_off_c, 7, 68, 0
4, 5184, Note_on_c, 7, 65, 60
4, 5372, Note_off_c, 7, 65, 0
4, 5376, Note_on_c, 7, 67, 60
4, 5696, Note_off_c, 7, 67, 0
4, 5760, Note_on_c, 7, 74, 60
4, 5948, Note_off_c, 7, 77, 0
4, 5948, Note_off_c, 7, 74, 0
4, 5952, Note_on_c, 7, 71, 60
4, 5952, Note_on_c, 7, 74, 60
4, 6140, Note_off_c, 7, 71, 0
4, 6140, Note_off_c, 7, 74, 0
4, 6144, Note_on_c, 7, 72, 60
4, 6144, Note_on_c, 7, 75, 60
4, 6332, Note_off_c, 7, 72, 0
4, 6332, Note_off_c, 7, 75, 0
4, 6336, Note_on_c, 7, 67, 60
4, 6336, Note_on_c, 7, 72, 60
4, 6524, Note_off_c, 7, 67, 0
4, 6524, Note_off_c, 7, 72, 0
4, 6528, Note_on_c, 7, 65, 60
4, 6528, Note_on_c, 7, 70, 60
4, 6716, Note_off_c, 7, 65, 0
4, 6716, Note_off_c, 7, 70, 0
4, 6720, Note_on_c, 7, 63, 60
4, 6720, Note_on_c, 7, 68, 60
4, 6908, Note_off_c, 7, 63, 0
4, 6912, Note_on_c, 7, 65, 60
4, 7100, Note_off_c, 7, 68, 0
4, 7104, Note_on_c, 7, 65, 60
4, 7232, Note_off_c, 7, 65, 0
4, 7292, Note_off_c, 7, 65, 0
4, 7296, Note_on_c, 7, 63, 60
4, 7296, Note_on_c, 7, 67, 60
4, 7484, Note_off_c, 7, 63, 0
4, 7484, Note_off_c, 7, 67, 0
4, 7488, Note_on_c, 7, 68, 60
4, 7488, Note_on_c, 7, 72, 60
4, 7676, Note_off_c, 7, 68, 0
4, 7676, Note_off_c, 7, 72, 0
4, 7680, Note_on_c, 7, 67, 60
4, 7680, Note_on_c, 7, 70, 60
4, 7868, Note_off_c, 7, 67, 0
4, 7868, Note_off_c, 7, 70, 0
4, 7872, Note_on_c, 7, 65, 60
4, 7872, Note_on_c, 7, 68, 60
4, 8060, Note_off_c, 7, 65, 0
4, 8060, Note_off_c, 7, 68, 0
4, 8064, Note_on_c, 7, 63, 60
4, 8064, Note_on_c, 7, 67, 60
4, 8256, Note_off_c, 7, 63, 0
4, 8256, Note_off_c, 7, 67, 0
4, 8256, Note_on_c, 7, 62, 60
4, 8256, Note_on_c, 7, 65, 60
4, 8576, Note_off_c, 7, 62, 0
4, 8576, Note_off_c, 7, 65, 0
4, 8640, Control_c, 7, 10, 32
4, 8640, Note_on_c, 7, 68, 48
4, 8640, Control_c, 7, 10, 32
4, 8640, Note_on_c, 7, 74, 48
4, 8832, Note_off_c, 7, 68, 0
4, 8832, Note_off_c, 7, 74, 0
4, 8832, Note_on_c, 7, 70, 48
4, 8832, Note_on_c, 7, 75, 48
4, 9024, Note_off_c, 7, 70, 0
4, 9024, Note_off_c, 7, 75, 0
4, 9024, Note_on_c, 7, 67, 48
4, 9024, Note_on_c, 7, 72, 48
4, 9212, Note_off_c, 7, 67, 0
4, 9212, Note_off_c, 7, 72, 0
4, 9216, Note_on_c, 7, 69, 48
4, 9216, Note_on_c, 7, 69, 48
4, 9408, Note_off_c, 7, 69, 0
4, 9408, Note_off_c, 7, 69, 0
4, 9408, Note_on_c, 7, 65, 48
4, 9408, Note_on_c, 7, 70, 48
4, 9596, Note_off_c, 7, 65, 0
4, 9596, Note_off_c, 7, 70, 0
4, 9600, Note_on_c, 7, 65, 48
4, 9600, Note_on_c, 7, 70, 48
4, 9788, Note_off_c, 7, 65, 0
4, 9788, Note_off_c, 7, 70, 0
4, 9792, Control_c, 7, 10, 96
4, 9792, Note_on_c, 7, 68, 48
4, 9792, Control_c, 7, 10, 96
4, 9792, Note_on_c, 7, 74, 48
4, 9984, Note_off_c, 7, 68, 0
4, 9984, Note_off_c, 7, 74, 0
4, 9984, Note_on_c, 7, 70, 48
4, 9984, Note_on_c, 7, 75, 48
4, 10176, Note_off_c, 7, 70, 0
4, 10176, Note_off_c, 7, 75, 0
4, 10176, Note_on_c, 7, 67, 48
4, 10176, Note_on_c, 7, 72, 48
4, 10364, Note_off_c, 7, 67, 0
4, 10364, Note_off_c, 7, 72, 0
4, 10368, Note_on_c, 7, 63, 48
4, 10368, Note_on_c, 7, 69, 48
4, 10688, Note_off_c, 7, 63, 0
4, 10688, Note_off_c, 7, 69, 0
4, 10752, Note_on_c, 7, 65, 48
4, 10752, Note_on_c, 7, 70, 48
4, 10940, Note_off_c, 7, 65, 0
4, 10940, Note_off_c, 7, 70, 0
4, 10944, Control_c, 7, 10, 96
4, 10944, Note_on_c, 7, 77, 74
4, 10944, Control_c, 7, 10, 32
4, 10944, Note_on_c, 7, 80, 74
4, 11132, Note_off_c, 7, 77, 0
4, 11132, Note_off_c, 7, 80, 0
4, 11136, Note_on_c, 7, 75, 74
4, 11136, Note_on_c, 7, 79, 74
4, 11324, Note_off_c, 7, 75, 0
4, 11324, Note_off_c, 7, 79, 0
4, 11328, Note_on_c, 7, 72, 74
4, 11328, Note_on_c, 7, 77, 74
4, 11516, Note_off_c, 7, 72, 0
4, 11516, Note_off_c, 7, 77, 0
4, 11520, Note_on_c, 7, 70, 74
4, 11520, Note_on_c, 7, 74, 74
4, 11708, Note_off_c, 7, 74, 0
4, 11712, Note_on_c, 7, 75, 74
4, 11840, Note_off_c, 7, 70, 0
4, 11900, Note_off_c, 7, 75, 0
4, 11904, Note_on_c, 7, 67, 74
4, 11904, Note_on_c, 7, 70, 74
4, 12092, Note_off_c, 7, 67, 0
4, 12092, Note_off_c, 7, 70, 0
4, 12096, Note_on_c, 7, 65, 74
4, 12096, Note_on_c, 7, 68, 74
4, 12284, Note_off_c, 7, 65, 0
4, 12284, Note_off_c, 7, 68, 0
4, 12288, Note_on_c, 7, 63, 74
4, 12288, Note_on_c, 7, 67, 74
4, 12476, Note_off_c, 7, 63, 0
4, 12476, Note_off_c, 7, 67, 0
4, 12480, Note_on_c, 7, 62, 74
4, 12480, Note_on_c, 7, 65, 74
4, 12668, Note_off_c, 7, 62, 0
4, 12668, Note_off_c, 7, 65, 0
4, 12672, Note_on_c, 7, 58, 74
4, 12672, Note_on_c, 7, 63, 74
4, 13728, Note_off_c, 7, 58, 0
4, 13728, Note_off_c, 7, 63, 0
4, 13824, Note_on_c, 7, 75, 60
4, 14012, Note_off_c, 7, 75, 0
4, 14016, Note_on_c, 7, 77, 60
4, 14108, Note_off_c, 7, 77, 0
4, 14112, Note_on_c, 7, 79, 60
4, 14204, Note_off_c, 7, 79, 0
4, 14208, Note_on_c, 7, 77, 60
4, 14396, Note_off_c, 7, 77, 0
4, 14400, Note_on_c, 7, 75, 60
4, 14588, Note_off_c, 7, 75, 0
4, 14592, Note_on_c, 7, 74, 60
4, 14780, Note_off_c, 7, 74, 0
4, 14784, Note_on_c, 7, 72, 60
4, 14972, Note_off_c, 7, 72, 0
4, 14976, Note_on_c, 7, 65, 60
4, 14976, Note_on_c, 7, 71, 60
4, 15068, Note_off_c, 7, 71, 0
4, 15072, Note_on_c, 7, 69, 60
4, 15164, Note_off_c, 7, 69, 0
4, 15168, Note_on_c, 7, 71, 60
4, 16032, Note_off_c, 7, 65, 0
4, 16032, Note_off_c, 7, 71, 0
4, 16128, Note_on_c, 7, 67, 60
4, 16128, Note_on_c, 7, 70, 60
4, 16316, Note_off_c, 7, 67, 0
4, 16316, Note_off_c, 7, 70, 0
4, 16320, Note_on_c, 7, 68, 60
4, 16320, Note_on_c, 7, 72, 60
4, 16412, Note_off_c, 7, 68, 0
4, 16412, Note_off_c, 7, 72, 0
4, 16416, Note_on_c, 7, 70, 60
4, 16416, Note_on_c, 7, 73, 60
4, 16508, Note_off_c, 7, 70, 0
4, 16508, Note_off_c, 7, 73, 0
4, 16512, Note_on_c, 7, 70, 60
4, 16512, Note_on_c, 7, 73, 60
4, 16700, Note_off_c, 7, 70, 0
4, 16700, Note_off_c, 7, 73, 0
4, 16704, Note_on_c, 7, 68, 60
4, 16704, Note_on_c, 7, 72, 60
4, 16892, Note_off_c, 7, 68, 0
4, 16892, Note_off_c, 7, 72, 0
4, 16896, Note_on_c, 7, 68, 60
4, 16896, Note_on_c, 7, 72, 60
4, 17084, Note_off_c, 7, 68, 0
4, 17084, Note_off_c, 7, 72, 0
4, 17088, Note_on_c, 7, 67, 60
4, 17088, Note_on_c, 7, 70, 60
4, 17276, Note_off_c, 7, 67, 0
4, 17276, Note_off_c, 7, 70, 0
4, 17280, Note_on_c, 7, 67, 60
4, 17280, Note_on_c, 7, 70, 60
4, 17372, Note_off_c, 7, 67, 0
4, 17372, Note_off_c, 7, 70, 0
4, 17376, Note_on_c, 7, 65, 60
4, 17376, Note_on_c, 7, 68, 60
4, 17468, Note_off_c, 7, 65, 0
4, 17468, Note_off_c, 7, 68, 0
4, 17472, Note_on_c, 7, 64, 60
4, 17472, Note_on_c, 7, 67, 60
4, 17660, Note_off_c, 7, 64, 0
4, 17660, Note_off_c, 7, 67, 0
4, 17664, Note_on_c, 7, 65, 60
4, 17664, Note_on_c, 7, 68, 60
4, 18336, Note_off_c, 7, 65, 0
4, 18336, Note_off_c, 7, 68, 0
4, 18432, Note_on_c, 7, 65, 60
4, 18432, Note_on_c, 7, 67, 60
4, 18620, Note_off_c, 7, 67, 0
4, 18624, Note_on_c, 7, 67, 60
4, 18752, Note_off_c, 7, 65, 0
4, 18812, Note_off_c, 7, 67, 0
4, 18816, Note_on_c, 7, 68, 60
4, 18816, Note_on_c, 7, 77, 60
4, 19004, Note_off_c, 7, 68, 0
4, 19008, Note_on_c, 7, 65, 60
4, 19196, Note_off_c, 7, 65, 0
4, 19200, Note_on_c, 7, 67, 60
4, 19520, Note_off_c, 7, 67, 0
4, 19584, Note_on_c, 7, 74, 60
4, 19772, Note_off_c, 7, 77, 0
4, 19772, Note_off_c, 7, 74, 0
4, 19776, Note_on_c, 7, 71, 60
4, 19776, Note_on_c, 7, 74, 60
4, 19964, Note_off_c, 7, 71, 0
4, 19964, Note_off_c, 7, 74, 0
4, 19968, Note_on_c, 7, 72, 60
4, 19968, Note_on_c, 7, 75, 60
4, 20156, Note_off_c, 7, 72, 0
4, 20156, Note_off_c, 7, 75, 0
4, 20160, Note_on_c, 7, 67, 60
4, 20160, Note_on_c, 7, 72, 60
4, 20348, Note_off_c, 7, 67, 0
4, 20348, Note_off_c, 7, 72, 0
4, 20352, Note_on_c, 7, 65, 60
4, 20352, Note_on_c, 7, 70, 60
4, 20540, Note_off_c, 7, 65, 0
4, 20540, Note_off_c, 7, 70, 0
4, 20544, Note_on_c, 7, 63, 60
4, 20544, Note_on_c, 7, 68, 60
4, 20732, Note_off_c, 7, 63, 0
4, 20736, Note_on_c, 7, 65, 60
4, 20924, Note_off_c, 7, 68, 0
4, 20928, Note_on_c, 7, 65, 60
4, 21056, Note_off_c, 7, 65, 0
4, 21116, Note_off_c, 7, 65, 0
4, 21120, Note_on_c, 7, 63, 60
4, 21120, Note_on_c, 7, 67, 60
4, 21308, Note_off_c, 7, 63, 0
4, 21308, Note_off_c, 7, 67, 0
4, 21312, Note_on_c, 7, 68, 60
4, 21312, Note_on_c, 7, 72, 60
4, 21500, Note_off_c, 7, 68, 0
4, 21500, Note_off_c, 7, 72, 0
4, 21504, Note_on_c, 7, 67, 60
4, 21504, Note_on_c, 7, 70, 60
4, 21692, Note_off_c, 7, 67, 0
4, 21692, Note_off_c, 7, 70, 0
4, 21696, Note_on_c, 7, 65, 60
4, 21696, Note_on_c, 7, 68, 60
4, 21884, Note_off_c, 7, 65, 0
4, 21884, Note_off_c, 7, 68, 0
4, 21888, Note_on_c, 7, 63, 60
4, 21888, Note_on_c, 7, 67, 60
4, 22076, Note_off_c, 7, 63, 0
4, 22076, Note_off_c, 7, 67, 0
4, 22080, Note_on_c, 7, 62, 60
4, 22080, Note_on_c, 7, 65, 60
4, 22460, Note_off_c, 7, 62, 0
4, 22460, Note_off_c, 7, 65, 0
4, 22464, Note_on_c, 7, 68, 48
4, 22464, Note_on_c, 7, 74, 48
4, 22652, Note_off_c, 7, 68, 0
4, 22652, Note_off_c, 7, 74, 0
4, 22656, Note_on_c, 7, 70, 48
4, 22656, Note_on_c, 7, 75, 48
4, 22844, Note_off_c, 7, 70, 0
4, 22844, Note_off_c, 7, 75, 0
4, 22848, Note_on_c, 7, 67, 48
4, 22848, Note_on_c, 7, 72, 48
4, 23036, Note_off_c, 7, 67, 0
4, 23036, Note_off_c, 7, 72, 0
4, 23040, Note_on_c, 7, 65, 48
4, 23040, Note_on_c, 7, 69, 48
4, 23228, Note_off_c, 7, 69, 0
4, 23232, Note_on_c, 7, 70, 48
4, 23552, Note_off_c, 7, 65, 0
4, 23612, Note_off_c, 7, 70, 0
4, 23616, Note_on_c, 7, 68, 48
4, 23616, Note_on_c, 7, 74, 48
4, 23804, Note_off_c, 7, 68, 0
4, 23804, Note_off_c, 7, 74, 0
4, 23808, Note_on_c, 7, 70, 48
4, 23808, Note_on_c, 7, 75, 48
4, 23996, Note_off_c, 7, 70, 0
4, 23996, Note_off_c, 7, 75, 0
4, 24000, Note_on_c, 7, 67, 48
4, 24000, Note_on_c, 7, 72, 48
4, 24188, Note_off_c, 7, 67, 0
4, 24188, Note_off_c, 7, 72, 0
4, 24192, Note_on_c, 7, 63, 48
4, 24192, Note_on_c, 7, 69, 48
4, 24512, Note_off_c, 7, 63, 0
4, 24512, Note_off_c, 7, 69, 0
4, 24576, Note_on_c, 7, 65, 48
4, 24576, Note_on_c, 7, 70, 48
4, 24764, Note_off_c, 7, 65, 0
4, 24764, Note_off_c, 7, 70, 0
4, 24768, Note_on_c, 7, 77, 74
4, 24768, Note_on_c, 7, 80, 74
4, 24956, Note_off_c, 7, 77, 0
4, 24956, Note_off_c, 7, 80, 0
4, 24960, Note_on_c, 7, 75, 74
4, 24960, Note_on_c, 7, 79, 74
4, 25148, Note_off_c, 7, 75, 0
4, 25148, Note_off_c, 7, 79, 0
4, 25152, Note_on_c, 7, 72, 74
4, 25152, Note_on_c, 7, 77, 74
4, 25340, Note_off_c, 7, 72, 0
4, 25340, Note_off_c, 7, 77, 0
4, 25344, Note_on_c, 7, 70, 74
4, 25344, Note_on_c, 7, 74, 74
4, 25532, Note_off_c, 7, 74, 0
4, 25536, Note_on_c, 7, 75, 74
4, 25664, Note_off_c, 7, 70, 0
4, 25724, Note_off_c, 7, 75, 0
4, 25728, Note_on_c, 7, 67, 74
4, 25728, Note_on_c, 7, 70, 74
4, 25916, Note_off_c, 7, 67, 0
4, 25916, Note_off_c, 7, 70, 0
4, 25920, Note_on_c, 7, 65, 74
4, 25920, Note_on_c, 7, 68, 74
4, 26108, Note_off_c, 7, 65, 0
4, 26108, Note_off_c, 7, 68, 0
4, 26112, Note_on_c, 7, 63, 74
4, 26112, Note_on_c, 7, 67, 74
4, 26300, Note_off_c, 7, 63, 0
4, 26300, Note_off_c, 7, 67, 0
4, 26304, Note_on_c, 7, 62, 74
4, 26304, Note_on_c, 7, 65, 74
4, 26492, Note_off_c, 7, 62, 0
4, 26492, Note_off_c, 7, 65, 0
4, 26496, Note_on_c, 7, 58, 48
4, 26496, Note_on_c, 7, 63, 48
4, 27552, Note_off_c, 7, 58, 0
4, 27552, Note_off_c, 7, 63, 0
4, 27648, Note_on_c, 7, 67, 48
4, 27648, Note_on_c, 7, 67, 48
4, 27836, Note_off_c, 7, 67, 0
4, 27840, Note_on_c, 7, 68, 48
4, 27932, Note_off_c, 7, 68, 0
4, 27936, Note_on_c, 7, 70, 48
4, 28028, Note_off_c, 7, 70, 0
4, 28032, Note_on_c, 7, 68, 48
4, 28220, Note_off_c, 7, 68, 0
4, 28224, Note_on_c, 7, 67, 48
4, 28320, Note_off_c, 7, 67, 0
4, 28412, Note_off_c, 7, 67, 0
4, 28416, Note_on_c, 7, 65, 48
4, 28604, Note_off_c, 7, 65, 0
4, 28608, Note_on_c, 7, 63, 48
4, 28796, Note_off_c, 7, 63, 0
4, 28800, Note_on_c, 7, 63, 60
4, 28800, Note_on_c, 7, 70, 60
4, 29472, Note_off_c, 7, 63, 0
4, 29472, Note_off_c, 7, 70, 0
4, 29952, Note_on_c, 7, 70, 60
4, 29952, Note_on_c, 7, 73, 60
4, 30140, Note_off_c, 7, 70, 0
4, 30140, Note_off_c, 7, 73, 0
4, 30144, Note_on_c, 7, 72, 60
4, 30144, Note_on_c, 7, 75, 60
4, 30236, Note_off_c, 7, 72, 0
4, 30236, Note_off_c, 7, 75, 0
4, 30240, Note_on_c, 7, 73, 60
4, 30240, Note_on_c, 7, 77, 60
4, 30332, Note_off_c, 7, 73, 0
4, 30332, Note_off_c, 7, 77, 0
4, 30336, Note_on_c, 7, 73, 60
4, 30336, Note_on_c, 7, 77, 60
4, 30524, Note_off_c, 7, 73, 0
4, 30524, Note_off_c, 7, 77, 0
4, 30528, Note_on_c, 7, 72, 60
4, 30528, Note_on_c, 7, 75, 60
4, 30716, Note_off_c, 7, 72, 0
4, 30716, Note_off_c, 7, 75, 0
4, 30720, Note_on_c, 7, 72, 60
4, 30720, Note_on_c, 7, 75, 60
4, 30908, Note_off_c, 7, 72, 0
4, 30908, Note_off_c, 7, 75, 0
4, 30912, Note_on_c, 7, 70, 60
4, 30912, Note_on_c, 7, 73, 60
4, 31100, Note_off_c, 7, 70, 0
4, 31100, Note_off_c, 7, 73, 0
4, 31104, Note_on_c, 7, 70, 60
4, 31104, Note_on_c, 7, 73, 60
4, 31196, Note_off_c, 7, 70, 0
4, 31196, Note_off_c, 7, 73, 0
4, 31200, Note_on_c, 7, 68, 60
4, 31200, Note_on_c, 7, 72, 60
4, 31292, Note_off_c, 7, 68, 0
4, 31292, Note_off_c, 7, 72, 0
4, 31296, Note_on_c, 7, 67, 60
4, 31296, Note_on_c, 7, 70, 60
4, 31484, Note_off_c, 7, 67, 0
4, 31484, Note_off_c, 7, 70, 0
4, 31488, Note_on_c, 7, 68, 60
4, 31488, Note_on_c, 7, 72, 60
4, 32160, Note_off_c, 7, 68, 0
4, 32160, Note_off_c, 7, 72, 0
4, 32256, Note_on_c, 7, 67, 60
4, 32256, Note_on_c, 7, 70, 60
4, 32576, Note_off_c, 7, 67, 0
4, 32576, Note_off_c, 7, 70, 0
4, 32640, Note_on_c, 7, 72, 74
4, 32640, Note_on_c, 7, 79, 74
4, 33596, Note_off_c, 7, 79, 0
4, 33600, Note_on_c, 7, 70, 74
4, 33728, Note_off_c, 7, 72, 0
4, 33788, Note_off_c, 7, 70, 0
4, 33792, Note_on_c, 7, 65, 74
4, 33792, Note_on_c, 7, 68, 74
4, 33980, Note_off_c, 7, 65, 0
4, 33980, Note_off_c, 7, 68, 0
4, 33984, Note_on_c, 7, 64, 74
4, 33984, Note_on_c, 7, 67, 74
4, 34172, Note_off_c, 7, 64, 0
4, 34172, Note_off_c, 7, 67, 0
4, 34176, Note_on_c, 7, 65, 74
4, 34176, Note_on_c, 7, 68, 74
4, 34364, Note_off_c, 7, 65, 0
4, 34364, Note_off_c, 7, 68, 0
4, 34368, Note_on_c, 7, 68, 74
4, 34368, Note_on_c, 7, 72, 74
4, 34556, Note_off_c, 7, 68, 0
4, 34556, Note_off_c, 7, 72, 0
4, 34560, Note_on_c, 7, 71, 74
4, 34560, Note_on_c, 7, 77, 74
4, 34748, Note_off_c, 7, 77, 0
4, 34752, Note_on_c, 7, 75, 74
4, 34880, Note_off_c, 7, 71, 0
4, 34940, Note_off_c, 7, 75, 0
4, 34944, Note_on_c, 7, 74, 74
4, 35132, Note_off_c, 7, 74, 0
4, 35136, Note_on_c, 7, 72, 74
4, 35324, Note_off_c, 7, 72, 0
4, 35328, Note_on_c, 7, 71, 74
4, 35516, Note_off_c, 7, 71, 0
4, 35520, Note_on_c, 7, 72, 74
4, 35708, Note_off_c, 7, 72, 0
4, 35712, Note_on_c, 7, 62, 74
4, 35712, Note_on_c, 7, 68, 74
4, 35900, Note_off_c, 7, 68, 0
4, 35904, Note_on_c, 7, 67, 74
4, 36224, Note_off_c, 7, 62, 0
4, 36284, Note_off_c, 7, 67, 0
4, 36288, Note_on_c, 7, 65, 36
4, 36288, Note_on_c, 7, 71, 36
4, 36476, Note_off_c, 7, 65, 0
4, 36476, Note_off_c, 7, 71, 0
4, 36480, Note_on_c, 7, 67, 36
4, 36480, Note_on_c, 7, 72, 36
4, 36668, Note_off_c, 7, 67, 0
4, 36668, Note_off_c, 7, 72, 0
4, 36672, Note_on_c, 7, 63, 36
4, 36672, Note_on_c, 7, 68, 36
4, 36860, Note_off_c, 7, 63, 0
4, 36860, Note_off_c, 7, 68, 0
4, 36864, Note_on_c, 7, 60, 36
4, 36864, Note_on_c, 7, 66, 36
4, 37052, Note_off_c, 7, 60, 0
4, 37052, Note_off_c, 7, 66, 0
4, 37056, Note_on_c, 7, 62, 36
4, 37056, Note_on_c, 7, 67, 36
4, 37436, Note_off_c, 7, 62, 0
4, 37436, Note_off_c, 7, 67, 0
4, 37440, Note_on_c, 7, 65, 36
4, 37440, Note_on_c, 7, 71, 36
4, 37628, Note_off_c, 7, 65, 0
4, 37628, Note_off_c, 7, 71, 0
4, 37632, Note_on_c, 7, 67, 36
4, 37632, Note_on_c, 7, 72, 36
4, 37820, Note_off_c, 7, 67, 0
4, 37820, Note_off_c, 7, 72, 0
4, 37824, Note_on_c, 7, 63, 36
4, 37824, Note_on_c, 7, 68, 36
4, 38012, Note_off_c, 7, 63, 0
4, 38012, Note_off_c, 7, 68, 0
4, 38016, Note_on_c, 7, 60, 36
4, 38016, Note_on_c, 7, 66, 36
4, 38336, Note_off_c, 7, 60, 0
4, 38336, Note_off_c, 7, 66, 0
4, 38400, Note_on_c, 7, 62, 36
4, 38400, Note_on_c, 7, 67, 36
4, 38588, Note_off_c, 7, 62, 0
4, 38588, Note_off_c, 7, 67, 0
4, 38592, Note_on_c, 7, 74, 74
4, 38592, Note_on_c, 7, 77, 74
4, 38780, Note_off_c, 7, 74, 0
4, 38780, Note_off_c, 7, 77, 0
4, 38784, Note_on_c, 7, 72, 74
4, 38784, Note_on_c, 7, 75, 74
4, 38972, Note_off_c, 7, 72, 0
4, 38972, Note_off_c, 7, 75, 0
4, 38976, Note_on_c, 7, 71, 74
4, 38976, Note_on_c, 7, 74, 74
4, 39164, Note_off_c, 7, 71, 0
4, 39164, Note_off_c, 7, 74, 0
4, 39168, Note_on_c, 7, 65, 74
4, 39168, Note_on_c, 7, 71, 74
4, 39356, Note_off_c, 7, 65, 0
4, 39356, Note_off_c, 7, 71, 0
4, 39360, Note_on_c, 7, 67, 74
4, 39360, Note_on_c, 7, 72, 74
4, 39548, Note_off_c, 7, 67, 0
4, 39548, Note_off_c, 7, 72, 0
4, 39552, Note_on_c, 7, 63, 74
4, 39552, Note_on_c, 7, 67, 74
4, 39740, Note_off_c, 7, 63, 0
4, 39740, Note_off_c, 7, 67, 0
4, 39744, Note_on_c, 7, 62, 74
4, 39744, Note_on_c, 7, 65, 74
4, 39932, Note_off_c, 7, 62, 0
4, 39932, Note_off_c, 7, 65, 0
4, 39936, Note_on_c, 7, 60, 74
4, 39936, Note_on_c, 7, 63, 74
4, 40124, Note_off_c, 7, 60, 0
4, 40124, Note_off_c, 7, 63, 0
4, 40128, Note_on_c, 7, 59, 74
4, 40128, Note_on_c, 7, 62, 74
4, 40316, Note_off_c, 7, 59, 0
4, 40316, Note_off_c, 7, 62, 0
4, 40320, Note_on_c, 7, 67, 74
4, 40320, Note_on_c, 7, 71, 74
4, 40640, Note_off_c, 7, 71, 0
4, 40704, Note_on_c, 7, 72, 74
4, 41376, Note_off_c, 7, 67, 0
4, 41376, Note_off_c, 7, 72, 0
4, 41472, Note_on_c, 7, 63, 48
4, 41472, Note_on_c, 7, 67, 48
4, 41660, Note_off_c, 7, 67, 0
4, 41664, Note_on_c, 7, 68, 48
4, 41756, Note_off_c, 7, 68, 0
4, 41760, Note_on_c, 7, 70, 48
4, 41852, Note_off_c, 7, 70, 0
4, 41856, Note_on_c, 7, 68, 48
4, 42044, Note_off_c, 7, 68, 0
4, 42048, Note_on_c, 7, 67, 48
4, 42144, Note_off_c, 7, 63, 0
4, 42236, Note_off_c, 7, 67, 0
4, 42240, Note_on_c, 7, 62, 48
4, 42240, Note_on_c, 7, 65, 48
4, 42428, Note_off_c, 7, 62, 0
4, 42428, Note_off_c, 7, 65, 0
4, 42432, Note_on_c, 7, 63, 48
4, 42432, Note_on_c, 7, 63, 48
4, 42620, Note_off_c, 7, 63, 0
4, 42620, Note_off_c, 7, 63, 0
4, 42624, Note_on_c, 7, 67, 48
4, 42624, Note_on_c, 7, 70, 48
4, 43680, Note_off_c, 7, 67, 0
4, 43680, Note_off_c, 7, 70, 0
4, 43776, Note_on_c, 7, 70, 48
4, 43776, Note_on_c, 7, 73, 48
4, 43964, Note_off_c, 7, 70, 0
4, 43964, Note_off_c, 7, 73, 0
4, 43968, Note_on_c, 7, 72, 48
4, 43968, Note_on_c, 7, 75, 48
4, 44060, Note_off_c, 7, 72, 0
4, 44060, Note_off_c, 7, 75, 0
4, 44064, Note_on_c, 7, 73, 48
4, 44064, Note_on_c, 7, 77, 48
4, 44156, Note_off_c, 7, 73, 0
4, 44156, Note_off_c, 7, 77, 0
4, 44160, Note_on_c, 7, 73, 48
4, 44160, Note_on_c, 7, 77, 48
4, 44348, Note_off_c, 7, 73, 0
4, 44348, Note_off_c, 7, 77, 0
4, 44352, Note_on_c, 7, 72, 48
4, 44352, Note_on_c, 7, 75, 48
4, 44540, Note_off_c, 7, 72, 0
4, 44540, Note_off_c, 7, 75, 0
4, 44544, Note_on_c, 7, 72, 48
4, 44544, Note_on_c, 7, 75, 48
4, 44732, Note_off_c, 7, 72, 0
4, 44732, Note_off_c, 7, 75, 0
4, 44736, Note_on_c, 7, 70, 48
4, 44736, Note_on_c, 7, 73, 48
4, 44924, Note_off_c, 7, 70, 0
4, 44924, Note_off_c, 7, 73, 0
4, 44928, Note_on_c, 7, 70, 48
4, 44928, Note_on_c, 7, 73, 48
4, 45020, Note_off_c, 7, 70, 0
4, 45020, Note_off_c, 7, 73, 0
4, 45024, Note_on_c, 7, 68, 48
4, 45024, Note_on_c, 7, 72, 48
4, 45116, Note_off_c, 7, 68, 0
4, 45116, Note_off_c, 7, 72, 0
4, 45120, Note_on_c, 7, 67, 48
4, 45120, Note_on_c, 7, 70, 48
4, 45308, Note_off_c, 7, 67, 0
4, 45308, Note_off_c, 7, 70, 0
4, 45312, Note_on_c, 7, 68, 48
4, 45312, Note_on_c, 7, 72, 48
4, 45984, Note_off_c, 7, 68, 0
4, 45984, Note_off_c, 7, 72, 0
4, 46080, Note_on_c, 7, 67, 48
4, 46080, Note_on_c, 7, 70, 48
4, 46400, Note_off_c, 7, 67, 0
4, 46400, Note_off_c, 7, 70, 0
4, 46464, Note_on_c, 7, 72, 60
4, 46464, Note_on_c, 7, 79, 60
4, 47420, Note_off_c, 7, 79, 0
4, 47424, Note_on_c, 7, 70, 60
4, 47552, Note_off_c, 7, 72, 0
4, 47612, Note_off_c, 7, 70, 0
4, 47616, Note_on_c, 7, 65, 60
4, 47616, Note_on_c, 7, 68, 60
4, 47804, Note_off_c, 7, 65, 0
4, 47804, Note_off_c, 7, 68, 0
4, 47808, Note_on_c, 7, 64, 60
4, 47808, Note_on_c, 7, 67, 60
4, 47996, Note_off_c, 7, 64, 0
4, 47996, Note_off_c, 7, 67, 0
4, 48000, Note_on_c, 7, 65, 60
4, 48000, Note_on_c, 7, 68, 60
4, 48188, Note_off_c, 7, 65, 0
4, 48188, Note_off_c, 7, 68, 0
4, 48192, Note_on_c, 7, 68, 60
4, 48192, Note_on_c, 7, 72, 60
4, 48380, Note_off_c, 7, 68, 0
4, 48380, Note_off_c, 7, 72, 0
4, 48384, Note_on_c, 7, 71, 60
4, 48384, Note_on_c, 7, 77, 60
4, 48572, Note_off_c, 7, 77, 0
4, 48576, Note_on_c, 7, 75, 60
4, 48704, Note_off_c, 7, 71, 0
4, 48764, Note_off_c, 7, 75, 0
4, 48768, Note_on_c, 7, 74, 60
4, 48956, Note_off_c, 7, 74, 0
4, 48960, Note_on_c, 7, 72, 60
4, 49148, Note_off_c, 7, 72, 0
4, 49152, Note_on_c, 7, 71, 60
4, 49340, Note_off_c, 7, 71, 0
4, 49344, Note_on_c, 7, 72, 60
4, 49532, Note_off_c, 7, 72, 0
4, 49536, Note_on_c, 7, 62, 60
4, 49536, Note_on_c, 7, 68, 60
4, 49724, Note_off_c, 7, 68, 0
4, 49728, Note_on_c, 7, 67, 60
4, 50048, Note_off_c, 7, 62, 0
4, 50108, Note_off_c, 7, 67, 0
4, 50112, Note_on_c, 7, 65, 36
4, 50112, Note_on_c, 7, 71, 36
4, 50300, Note_off_c, 7, 65, 0
4, 50300, Note_off_c, 7, 71, 0
4, 50304, Note_on_c, 7, 67, 36
4, 50304, Note_on_c, 7, 72, 36
4, 50492, Note_off_c, 7, 67, 0
4, 50492, Note_off_c, 7, 72, 0
4, 50496, Note_on_c, 7, 63, 36
4, 50496, Note_on_c, 7, 68, 36
4, 50684, Note_off_c, 7, 63, 0
4, 50684, Note_off_c, 7, 68, 0
4, 50688, Note_on_c, 7, 60, 36
4, 50688, Note_on_c, 7, 66, 36
4, 50876, Note_off_c, 7, 60, 0
4, 50876, Note_off_c, 7, 66, 0
4, 50880, Note_on_c, 7, 62, 36
4, 50880, Note_on_c, 7, 67, 36
4, 51260, Note_off_c, 7, 62, 0
4, 51260, Note_off_c, 7, 67, 0
4, 51264, Note_on_c, 7, 65, 36
4, 51264, Note_on_c, 7, 71, 36
4, 51452, Note_off_c, 7, 65, 0
4, 51452, Note_off_c, 7, 71, 0
4, 51456, Note_on_c, 7, 67, 36
4, 51456, Note_on_c, 7, 72, 36
4, 51644, Note_off_c, 7, 67, 0
4, 51644, Note_off_c, 7, 72, 0
4, 51648, Note_on_c, 7, 63, 36
4, 51648, Note_on_c, 7, 68, 36
4, 51836, Note_off_c, 7, 63, 0
4, 51836, Note_off_c, 7, 68, 0
4, 51840, Note_on_c, 7, 60, 36
4, 51840, Note_on_c, 7, 66, 36
4, 52160, Note_off_c, 7, 60, 0
4, 52160, Note_off_c, 7, 66, 0
4, 52224, Note_on_c, 7, 62, 36
4, 52224, Note_on_c, 7, 67, 36
4, 52412, Note_off_c, 7, 62, 0
4, 52412, Note_off_c, 7, 67, 0
4, 52416, Note_on_c, 7, 74, 74
4, 52416, Note_on_c, 7, 77, 74
4, 52604, Note_off_c, 7, 74, 0
4, 52604, Note_off_c, 7, 77, 0
4, 52608, Note_on_c, 7, 72, 74
4, 52608, Note_on_c, 7, 75, 74
4, 52796, Note_off_c, 7, 72, 0
4, 52796, Note_off_c, 7, 75, 0
4, 52800, Note_on_c, 7, 71, 74
4, 52800, Note_on_c, 7, 74, 74
4, 52988, Note_off_c, 7, 71, 0
4, 52988, Note_off_c, 7, 74, 0
4, 52992, Note_on_c, 7, 65, 74
4, 52992, Note_on_c, 7, 71, 74
4, 53180, Note_off_c, 7, 65, 0
4, 53180, Note_off_c, 7, 71, 0
4, 53184, Note_on_c, 7, 67, 74
4, 53184, Note_on_c, 7, 72, 74
4, 53372, Note_off_c, 7, 67, 0
4, 53372, Note_off_c, 7, 72, 0
4, 53376, Note_on_c, 7, 63, 74
4, 53376, Note_on_c, 7, 67, 74
4, 53564, Note_off_c, 7, 63, 0
4, 53564, Note_off_c, 7, 67, 0
4, 53568, Note_on_c, 7, 62, 74
4, 53568, Note_on_c, 7, 65, 74
4, 53756, Note_off_c, 7, 62, 0
4, 53756, Note_off_c, 7, 65, 0
4, 53760, Note_on_c, 7, 60, 74
4, 53760, Note_on_c, 7, 63, 74
4, 53948, Note_off_c, 7, 60, 0
4, 53948, Note_off_c, 7, 63, 0
4, 53952, Note_on_c, 7, 59, 74
4, 53952, Note_on_c, 7, 62, 74
4, 54140, Note_off_c, 7, 59, 0
4, 54140, Note_off_c, 7, 62, 0
4, 54144, Note_on_c, 7, 67, 74
4, 54144, Note_on_c, 7, 71, 74
4, 54528, Note_off_c, 7, 71, 0
4, 54528, Note_on_c, 7, 72, 74
4, 55200, Note_off_c, 7, 67, 0
4, 55200, Note_off_c, 7, 72, 0
4, 55488, Note_on_c, 7, 63, 60
4, 55488, Note_on_c, 7, 67, 60
4, 55680, Note_off_c, 7, 67, 0
4, 55680, Note_on_c, 7, 68, 60
4, 56160, Note_off_c, 7, 63, 0
4, 56192, Note_off_c, 7, 68, 0
4, 56256, Note_on_c, 7, 67, 60
4, 56256, Note_on_c, 7, 67, 60
4, 56444, Note_off_c, 7, 67, 0
4, 56448, Note_on_c, 7, 70, 60
4, 56576, Note_off_c, 7, 67, 0
4, 56636, Note_off_c, 7, 70, 0
4, 56640, Note_on_c, 7, 60, 60
4, 56640, Note_on_c, 7, 64, 60
4, 57152, Note_off_c, 7, 60, 0
4, 57152, Note_off_c, 7, 64, 0
4, 57216, Note_on_c, 7, 63, 60
4, 57216, Note_on_c, 7, 67, 60
4, 57404, Note_off_c, 7, 63, 0
4, 57404, Note_off_c, 7, 67, 0
4, 57408, Note_on_c, 7, 67, 60
4, 57408, Note_on_c, 7, 70, 60
4, 57728, Note_off_c, 7, 67, 0
4, 57792, Note_on_c, 7, 67, 60
4, 57980, Note_off_c, 7, 70, 0
4, 57980, Note_off_c, 7, 67, 0
4, 57984, Note_on_c, 7, 68, 60
4, 57984, Note_on_c, 7, 72, 60
4, 58172, Note_off_c, 7, 68, 0
4, 58172, Note_off_c, 7, 72, 0
4, 58176, Note_on_c, 7, 72, 60
4, 58176, Note_on_c, 7, 73, 60
4, 58368, Note_off_c, 7, 72, 0
4, 58368, Note_off_c, 7, 73, 0
4, 58368, Note_on_c, 7, 68, 60
4, 58368, Note_on_c, 7, 72, 60
4, 58556, Note_off_c, 7, 68, 0
4, 58556, Note_off_c, 7, 72, 0
4, 58560, Note_on_c, 7, 68, 60
4, 58560, Note_on_c, 7, 72, 60
4, 58752, Note_off_c, 7, 68, 0
4, 58752, Note_off_c, 7, 72, 0
4, 58752, Note_on_c, 7, 65, 60
4, 58752, Note_on_c, 7, 70, 60
4, 58940, Note_off_c, 7, 65, 0
4, 58940, Note_off_c, 7, 70, 0
4, 58944, Note_on_c, 7, 67, 60
4, 58944, Note_on_c, 7, 70, 60
4, 59136, Note_off_c, 7, 67, 0
4, 59136, Note_off_c, 7, 70, 0
4, 59136, Note_on_c, 7, 65, 60
4, 59136, Note_on_c, 7, 68, 60
4, 59324, Note_off_c, 7, 65, 0
4, 59324, Note_off_c, 7, 68, 0
4, 59328, Note_on_c, 7, 65, 60
4, 59328, Note_on_c, 7, 68, 60
4, 59516, Note_off_c, 7, 65, 0
4, 59516, Note_off_c, 7, 68, 0
4, 59520, Note_on_c, 7, 60, 60
4, 59520, Note_on_c, 7, 68, 60
4, 59712, Note_off_c, 7, 60, 0
4, 59712, Note_off_c, 7, 68, 0
4, 59712, Note_on_c, 7, 61, 60
4, 59712, Note_on_c, 7, 70, 60
4, 59904, Note_off_c, 7, 61, 0
4, 59904, Note_off_c, 7, 70, 0
4, 59904, Note_on_c, 7, 58, 60
4, 59904, Note_on_c, 7, 67, 60
4, 60092, Note_off_c, 7, 58, 0
4, 60092, Note_off_c, 7, 67, 0
4, 60096, Note_on_c, 7, 60, 60
4, 60096, Note_on_c, 7, 64, 60
4, 60288, Note_off_c, 7, 60, 0
4, 60288, Note_off_c, 7, 64, 0
4, 60288, Note_on_c, 7, 65, 60
4, 60288, Note_on_c, 7, 65, 60
4, 60480, Note_off_c, 7, 65, 0
4, 60480, Note_off_c, 7, 65, 0
4, 60480, Note_on_c, 7, 63, 60
4, 60480, Note_on_c, 7, 67, 60
4, 60668, Note_off_c, 7, 63, 0
4, 60668, Note_off_c, 7, 67, 0
4, 60672, Note_on_c, 7, 65, 60
4, 60672, Note_on_c, 7, 68, 60
4, 60864, Note_off_c, 7, 65, 0
4, 60864, Note_off_c, 7, 68, 0
4, 60864, Note_on_c, 7, 67, 60
4, 60864, Note_on_c, 7, 70, 60
4, 61056, Note_off_c, 7, 67, 0
4, 61056, Note_off_c, 7, 70, 0
4, 61056, Note_on_c, 7, 67, 60
4, 61056, Note_on_c, 7, 67, 60
4, 61244, Note_off_c, 7, 67, 0
4, 61244, Note_off_c, 7, 67, 0
4, 61248, Note_on_c, 7, 58, 60
4, 61248, Note_on_c, 7, 64, 60
4, 61632, Note_off_c, 7, 58, 0
4, 61632, Note_off_c, 7, 64, 0
4, 61632, Note_on_c, 7, 65, 60
4, 61632, Note_on_c, 7, 72, 60
4, 61952, Note_off_c, 7, 65, 0
4, 61952, Note_off_c, 7, 72, 0
4, 62016, Note_on_c, 7, 70, 60
4, 62016, Note_on_c, 7, 73, 60
4, 62304, Note_off_c, 7, 70, 0
4, 62304, Note_off_c, 7, 73, 0
4, 62304, Note_on_c, 7, 75, 60
4, 62304, Note_on_c, 7, 75, 60
4, 62396, Note_off_c, 7, 75, 0
4, 62396, Note_off_c, 7, 75, 0
4, 62400, Note_on_c, 7, 65, 60
4, 62400, Note_on_c, 7, 69, 60
4, 62912, Note_off_c, 7, 65, 0
4, 62912, Note_off_c, 7, 69, 0
4, 62976, Note_on_c, 7, 68, 60
4, 62976, Note_on_c, 7, 72, 60
4, 63164, Note_off_c, 7, 68, 0
4, 63164, Note_off_c, 7, 72, 0
4, 63168, Note_on_c, 7, 72, 60
4, 63168, Note_on_c, 7, 75, 60
4, 63744, Note_off_c, 7, 72, 0
4, 63744, Note_off_c, 7, 75, 0
4, 63744, Note_on_c, 7, 73, 60
4, 63744, Note_on_c, 7, 77, 60
4, 63932, Note_off_c, 7, 73, 0
4, 63932, Note_off_c, 7, 77, 0
4, 63936, Note_on_c, 7, 75, 60
4, 63936, Note_on_c, 7, 78, 60
4, 64128, Note_off_c, 7, 75, 0
4, 64128, Note_off_c, 7, 78, 0
4, 64128, Note_on_c, 7, 73, 60
4, 64128, Note_on_c, 7, 77, 60
4, 64316, Note_off_c, 7, 73, 0
4, 64316, Note_off_c, 7, 77, 0
4, 64320, Note_on_c, 7, 73, 60
4, 64320, Note_on_c, 7, 77, 60
4, 64512, Note_off_c, 7, 73, 0
4, 64512, Note_off_c, 7, 77, 0
4, 64512, Note_on_c, 7, 72, 60
4, 64512, Note_on_c, 7, 75, 60
4, 64700, Note_off_c, 7, 72, 0
4, 64700, Note_off_c, 7, 75, 0
4, 64704, Note_on_c, 7, 72, 60
4, 64704, Note_on_c, 7, 75, 60
4, 64896, Note_off_c, 7, 72, 0
4, 64896, Note_off_c, 7, 75, 0
4, 64896, Note_on_c, 7, 70, 60
4, 64896, Note_on_c, 7, 73, 60
4, 65084, Note_off_c, 7, 70, 0
4, 65084, Note_off_c, 7, 73, 0
4, 65088, Note_on_c, 7, 70, 60
4, 65088, Note_on_c, 7, 73, 60
4, 65276, Note_off_c, 7, 70, 0
4, 65276, Note_off_c, 7, 73, 0
4, 65280, Note_on_c, 7, 65, 36
4, 65280, Note_on_c, 7, 73, 36
4, 65472, Note_off_c, 7, 65, 0
4, 65472, Note_off_c, 7, 73, 0
4, 65472, Note_on_c, 7, 66, 36
4, 65472, Note_on_c, 7, 75, 36
4, 65664, Note_off_c, 7, 66, 0
4, 65664, Note_off_c, 7, 75, 0
4, 65664, Note_on_c, 7, 69, 36
4, 65664, Note_on_c, 7, 72, 36
4, 65852, Note_off_c, 7, 69, 0
4, 65852, Note_off_c, 7, 72, 0
4, 65856, Note_on_c, 7, 63, 36
4, 65856, Note_on_c, 7, 69, 36
4, 66048, Note_off_c, 7, 63, 0
4, 66048, Note_off_c, 7, 69, 0
4, 66048, Note_on_c, 7, 65, 36
4, 66048, Note_on_c, 7, 70, 36
4, 66240, Note_off_c, 7, 65, 0
4, 66240, Note_off_c, 7, 70, 0
4, 66240, Note_on_c, 7, 66, 36
4, 66240, Note_on_c, 7, 72, 36
4, 66428, Note_off_c, 7, 66, 0
4, 66428, Note_off_c, 7, 72, 0
4, 66432, Note_on_c, 7, 70, 36
4, 66432, Note_on_c, 7, 73, 36
4, 66624, Note_off_c, 7, 70, 0
4, 66624, Note_off_c, 7, 73, 0
4, 66624, Note_on_c, 7, 72, 36
4, 66624, Note_on_c, 7, 75, 36
4, 66816, Note_off_c, 7, 72, 0
4, 66816, Note_off_c, 7, 75, 0
4, 66816, Note_on_c, 7, 66, 36
4, 66816, Note_on_c, 7, 72, 36
4, 67004, Note_off_c, 7, 66, 0
4, 67004, Note_off_c, 7, 72, 0
4, 67008, Note_on_c, 7, 63, 36
4, 67008, Note_on_c, 7, 69, 36
4, 67392, Note_off_c, 7, 63, 0
4, 67392, Note_off_c, 7, 69, 0
4, 67392, Note_on_c, 7, 65, 36
4, 67392, Note_on_c, 7, 70, 36
4, 67712, Note_off_c, 7, 65, 0
4, 67712, Note_off_c, 7, 70, 0
4, 67776, Note_on_c, 7, 70, 36
4, 67776, Note_on_c, 7, 73, 36
4, 68096, Note_off_c, 7, 70, 0
4, 68096, Note_off_c, 7, 73, 0
4, 68160, Note_on_c, 7, 70, 60
4, 68160, Note_on_c, 7, 73, 60
4, 68480, Note_off_c, 7, 70, 0
4, 68480, Note_off_c, 7, 73, 0
4, 68544, Note_on_c, 7, 67, 60
4, 68544, Note_on_c, 7, 72, 60
4, 68736, Note_off_c, 7, 72, 0
4, 68736, Note_on_c, 7, 70, 60
4, 68864, Note_off_c, 7, 67, 0
4, 68924, Note_off_c, 7, 70, 0
4, 68928, Note_on_c, 7, 67, 60
4, 68928, Note_on_c, 7, 70, 60
4, 69120, Note_off_c, 7, 67, 0
4, 69120, Note_off_c, 7, 70, 0
4, 69120, Note_on_c, 7, 68, 60
4, 69120, Note_on_c, 7, 68, 60
4, 69308, Note_off_c, 7, 68, 0
4, 69308, Note_off_c, 7, 68, 0
4, 69312, Note_on_c, 7, 65, 60
4, 69312, Note_on_c, 7, 68, 60
4, 69504, Note_off_c, 7, 65, 0
4, 69504, Note_off_c, 7, 68, 0
4, 69504, Note_on_c, 7, 67, 60
4, 69504, Note_on_c, 7, 72, 60
4, 69692, Note_off_c, 7, 67, 0
4, 69692, Note_off_c, 7, 72, 0
4, 69696, Note_on_c, 7, 71, 60
4, 69696, Note_on_c, 7, 77, 60
4, 69888, Note_off_c, 7, 71, 0
4, 69888, Note_on_c, 7, 72, 60
4, 70016, Note_off_c, 7, 77, 0
4, 70076, Note_off_c, 7, 72, 0
4, 70080, Note_on_c, 7, 74, 60
4, 70080, Note_on_c, 7, 77, 60
4, 70400, Note_off_c, 7, 74, 0
4, 70400, Note_off_c, 7, 77, 0
4, 70464, Note_on_c, 7, 74, 60
4, 70464, Note_on_c, 7, 77, 60
4, 71520, Note_off_c, 7, 74, 0
4, 71520, Note_off_c, 7, 77, 0
4, 71616, Note_on_c, 7, 72, 74
4, 71616, Note_on_c, 7, 75, 74
4, 71808, Note_off_c, 7, 72, 0
4, 71808, Note_off_c, 7, 75, 0
4, 71808, Note_on_c, 7, 71, 74
4, 71808, Note_on_c, 7, 74, 74
4, 71996, Note_off_c, 7, 71, 0
4, 71996, Note_off_c, 7, 74, 0
4, 72000, Note_on_c, 7, 74, 74
4, 72000, Note_on_c, 7, 77, 74
4, 72192, Note_off_c, 7, 74, 0
4, 72192, Note_off_c, 7, 77, 0
4, 72192, Note_on_c, 7, 72, 74
4, 72192, Note_on_c, 7, 75, 74
4, 72380, Note_off_c, 7, 72, 0
4, 72380, Note_off_c, 7, 75, 0
4, 72384, Note_on_c, 7, 72, 74
4, 72384, Note_on_c, 7, 75, 74
4, 72576, Note_off_c, 7, 72, 0
4, 72576, Note_off_c, 7, 75, 0
4, 72576, Note_on_c, 7, 71, 74
4, 72576, Note_on_c, 7, 74, 74
4, 72764, Note_off_c, 7, 71, 0
4, 72764, Note_off_c, 7, 74, 0
4, 72768, Note_on_c, 7, 72, 74
4, 72768, Note_on_c, 7, 75, 74
4, 72960, Note_off_c, 7, 72, 0
4, 72960, Note_off_c, 7, 75, 0
4, 72960, Note_on_c, 7, 71, 74
4, 72960, Note_on_c, 7, 74, 74
4, 73148, Note_off_c, 7, 71, 0
4, 73148, Note_off_c, 7, 74, 0
4, 73152, Note_on_c, 7, 74, 74
4, 73152, Note_on_c, 7, 77, 74
4, 73344, Note_off_c, 7, 74, 0
4, 73344, Note_off_c, 7, 77, 0
4, 73344, Note_on_c, 7, 72, 74
4, 73344, Note_on_c, 7, 75, 74
4, 73532, Note_off_c, 7, 72, 0
4, 73532, Note_off_c, 7, 75, 0
4, 73536, Note_on_c, 7, 72, 74
4, 73536, Note_on_c, 7, 75, 74
4, 73728, Note_off_c, 7, 72, 0
4, 73728, Note_off_c, 7, 75, 0
4, 73728, Note_on_c, 7, 71, 74
4, 73728, Note_on_c, 7, 74, 74
4, 73916, Note_off_c, 7, 71, 0
4, 73916, Note_off_c, 7, 74, 0
4, 73920, Note_on_c, 7, 72, 74
4, 73920, Note_on_c, 7, 75, 74
4, 74112, Note_off_c, 7, 72, 0
4, 74112, Note_off_c, 7, 75, 0
4, 74112, Note_on_c, 7, 70, 74
4, 74112, Note_on_c, 7, 74, 74
4, 74300, Note_off_c, 7, 70, 0
4, 74300, Note_off_c, 7, 74, 0
4, 74304, Note_on_c, 7, 70, 74
4, 74304, Note_on_c, 7, 74, 74
4, 74496, Note_off_c, 7, 70, 0
4, 74496, Note_off_c, 7, 74, 0
4, 74496, Note_on_c, 7, 69, 74
4, 74496, Note_on_c, 7, 72, 74
4, 74684, Note_off_c, 7, 69, 0
4, 74684, Note_off_c, 7, 72, 0
4, 74688, Note_on_c, 7, 69, 74
4, 74688, Note_on_c, 7, 72, 74
4, 74880, Note_off_c, 7, 69, 0
4, 74880, Note_off_c, 7, 72, 0
4, 74880, Note_on_c, 7, 70, 74
4, 74880, Note_on_c, 7, 74, 74
4, 74976, Note_off_c, 7, 70, 0
4, 74976, Note_off_c, 7, 74, 0
4, 74976, Note_on_c, 7, 72, 74
4, 74976, Note_on_c, 7, 75, 74
4, 75068, Note_off_c, 7, 72, 0
4, 75068, Note_off_c, 7, 75, 0
4, 75072, Note_on_c, 7, 70, 74
4, 75072, Note_on_c, 7, 74, 74
4, 75264, Note_off_c, 7, 70, 0
4, 75264, Note_off_c, 7, 74, 0
4, 75264, Note_on_c, 7, 69, 74
4, 75264, Note_on_c, 7, 72, 74
4, 75452, Note_off_c, 7, 69, 0
4, 75452, Note_off_c, 7, 72, 0
4, 75456, Note_on_c, 7, 69, 74
4, 75456, Note_on_c, 7, 72, 74
4, 75648, Note_off_c, 7, 69, 0
4, 75648, Note_off_c, 7, 72, 0
4, 75648, Note_on_c, 7, 67, 74
4, 75648, Note_on_c, 7, 70, 74
4, 75836, Note_off_c, 7, 67, 0
4, 75836, Note_off_c, 7, 70, 0
4, 75840, Note_on_c, 7, 67, 74
4, 75840, Note_on_c, 7, 70, 74
4, 76032, Note_off_c, 7, 67, 0
4, 76032, Note_off_c, 7, 70, 0
4, 76032, Note_on_c, 7, 69, 74
4, 76032, Note_on_c, 7, 72, 74
4, 76128, Note_off_c, 7, 69, 0
4, 76128, Note_off_c, 7, 72, 0
4, 76128, Note_on_c, 7, 70, 74
4, 76128, Note_on_c, 7, 74, 74
4, 76220, Note_off_c, 7, 70, 0
4, 76220, Note_off_c, 7, 74, 0
4, 76224, Note_on_c, 7, 69, 74
4, 76224, Note_on_c, 7, 72, 74
4, 76412, Note_off_c, 7, 69, 0
4, 76412, Note_off_c, 7, 72, 0
4, 76416, Note_on_c, 7, 67, 74
4, 76416, Note_on_c, 7, 70, 74
4, 76604, Note_off_c, 7, 67, 0
4, 76604, Note_off_c, 7, 70, 0
4, 76608, Note_on_c, 7, 66, 74
4, 76608, Note_on_c, 7, 68, 74
4, 76796, Note_off_c, 7, 66, 0
4, 76796, Note_off_c, 7, 68, 0
4, 76800, Note_on_c, 7, 67, 74
4, 76800, Note_on_c, 7, 67, 74
4, 76988, Note_off_c, 7, 67, 0
4, 76988, Note_off_c, 7, 67, 0
4, 76992, Note_on_c, 7, 66, 74
4, 76992, Note_on_c, 7, 66, 74
4, 77180, Note_off_c, 7, 66, 0
4, 77180, Note_off_c, 7, 66, 0
4, 77184, Note_on_c, 7, 67, 74
4, 77184, Note_on_c, 7, 67, 74
4, 77372, Note_off_c, 7, 67, 0
4, 77372, Note_off_c, 7, 67, 0
4, 77376, Note_on_c, 7, 62, 74
4, 77376, Note_on_c, 7, 62, 74
4, 77888, Note_off_c, 7, 62, 0
4, 77888, Note_off_c, 7, 62, 0
4, 77952, Note_on_c, 7, 72, 36
4, 77952, Note_on_c, 7, 78, 36
4, 78144, Note_off_c, 7, 72, 0
4, 78144, Note_off_c, 7, 78, 0
4, 78144, Note_on_c, 7, 74, 36
4, 78144, Note_on_c, 7, 79, 36
4, 78336, Note_off_c, 7, 74, 0
4, 78336, Note_off_c, 7, 79, 0
4, 78336, Note_on_c, 7, 70, 36
4, 78336, Note_on_c, 7, 75, 36
4, 78524, Note_off_c, 7, 70, 0
4, 78524, Note_off_c, 7, 75, 0
4, 78528, Note_on_c, 7, 67, 36
4, 78528, Note_on_c, 7, 73, 36
4, 78720, Note_off_c, 7, 67, 0
4, 78720, Note_off_c, 7, 73, 0
4, 78720, Note_on_c, 7, 69, 36
4, 78720, Note_on_c, 7, 74, 36
4, 78912, Note_off_c, 7, 69, 0
4, 78912, Note_off_c, 7, 74, 0
4, 78912, Note_on_c, 7, 70, 36
4, 78912, Note_on_c, 7, 76, 36
4, 79100, Note_off_c, 7, 70, 0
4, 79100, Note_off_c, 7, 76, 0
4, 79104, Note_on_c, 7, 72, 36
4, 79104, Note_on_c, 7, 78, 36
4, 79296, Note_off_c, 7, 72, 0
4, 79296, Note_off_c, 7, 78, 0
4, 79296, Note_on_c, 7, 74, 36
4, 79296, Note_on_c, 7, 79, 36
4, 79488, Note_off_c, 7, 74, 0
4, 79488, Note_off_c, 7, 79, 0
4, 79488, Note_on_c, 7, 70, 36
4, 79488, Note_on_c, 7, 75, 36
4, 79676, Note_off_c, 7, 70, 0
4, 79676, Note_off_c, 7, 75, 0
4, 79680, Note_on_c, 7, 67, 36
4, 79680, Note_on_c, 7, 73, 36
4, 79872, Note_off_c, 7, 67, 0
4, 79872, Note_on_c, 7, 66, 36
4, 80064, Note_off_c, 7, 73, 0
4, 80064, Note_off_c, 7, 66, 0
4, 80064, Note_on_c, 7, 69, 36
4, 80064, Note_on_c, 7, 74, 36
4, 80252, Note_off_c, 7, 69, 0
4, 80252, Note_off_c, 7, 74, 0
4, 80256, Note_on_c, 7, 72, 74
4, 80256, Note_on_c, 7, 72, 74
4, 80444, Note_off_c, 7, 72, 0
4, 80444, Note_off_c, 7, 72, 0
4, 80448, Note_on_c, 7, 72, 74
4, 80448, Note_on_c, 7, 75, 74
4, 80636, Note_off_c, 7, 72, 0
4, 80636, Note_off_c, 7, 75, 0
4, 80640, Note_on_c, 7, 69, 74
4, 80640, Note_on_c, 7, 74, 74
4, 80828, Note_off_c, 7, 69, 0
4, 80828, Note_off_c, 7, 74, 0
4, 80832, Note_on_c, 7, 67, 74
4, 80832, Note_on_c, 7, 74, 74
4, 81024, Note_off_c, 7, 67, 0
4, 81024, Note_on_c, 7, 70, 74
4, 81152, Note_off_c, 7, 74, 0
4, 81212, Note_off_c, 7, 70, 0
4, 81216, Note_on_c, 7, 69, 74
4, 81216, Note_on_c, 7, 72, 74
4, 81408, Note_off_c, 7, 69, 0
4, 81408, Note_off_c, 7, 72, 0
4, 81408, Note_on_c, 7, 67, 74
4, 81408, Note_on_c, 7, 70, 74
4, 81596, Note_off_c, 7, 67, 0
4, 81596, Note_off_c, 7, 70, 0
4, 81600, Note_on_c, 7, 66, 74
4, 81600, Note_on_c, 7, 69, 74
4, 81792, Note_off_c, 7, 66, 0
4, 81792, Note_off_c, 7, 69, 0
4, 81792, Note_on_c, 7, 62, 74
4, 81792, Note_on_c, 7, 67, 74
4, 81980, Note_off_c, 7, 62, 0
4, 81980, Note_off_c, 7, 67, 0
4, 81984, Note_on_c, 7, 62, 60
4, 81984, Note_on_c, 7, 67, 60
4, 83040, Note_off_c, 7, 62, 0
4, 83040, Note_off_c, 7, 67, 0
4, 83136, Note_on_c, 7, 71, 60
4, 83136, Note_on_c, 7, 74, 60
4, 83520, Note_off_c, 7, 71, 0
4, 83520, Note_off_c, 7, 74, 0
4, 83520, Note_on_c, 7, 72, 60
4, 83520, Note_on_c, 7, 75, 60
4, 83840, Note_off_c, 7, 72, 0
4, 83840, Note_off_c, 7, 75, 0
4, 83904, Note_on_c, 7, 74, 60
4, 83904, Note_on_c, 7, 77, 60
4, 84096, Note_off_c, 7, 74, 0
4, 84096, Note_off_c, 7, 77, 0
4, 84096, Note_on_c, 7, 74, 60
4, 84096, Note_on_c, 7, 74, 60
4, 84284, Note_off_c, 7, 74, 0
4, 84284, Note_off_c, 7, 74, 0
4, 84288, Note_on_c, 7, 62, 60
4, 84288, Note_on_c, 7, 71, 60
4, 85344, Note_off_c, 7, 62, 0
4, 85344, Note_off_c, 7, 71, 0
4, 85440, Note_on_c, 7, 71, 60
4, 85440, Note_on_c, 7, 77, 60
4, 85824, Note_off_c, 7, 77, 0
4, 85824, Note_on_c, 7, 79, 60
4, 86112, Note_off_c, 7, 71, 0
4, 86144, Note_off_c, 7, 79, 0
4, 86208, Note_on_c, 7, 80, 60
4, 86592, Note_on_c, 7, 71, 60
4, 86912, Note_off_c, 7, 80, 0
4, 86976, Note_on_c, 7, 79, 60
4, 87168, Note_off_c, 7, 79, 0
4, 87168, Note_on_c, 7, 77, 60
4, 87356, Note_off_c, 7, 77, 0
4, 87360, Note_on_c, 7, 77, 60
4, 87552, Note_off_c, 7, 77, 0
4, 87552, Note_on_c, 7, 75, 60
4, 87648, Note_off_c, 7, 71, 0
4, 87740, Note_off_c, 7, 75, 0
4, 87744, Note_on_c, 7, 72, 60
4, 87744, Note_on_c, 7, 75, 60
4, 87936, Note_off_c, 7, 72, 0
4, 87936, Note_off_c, 7, 75, 0
4, 87936, Note_on_c, 7, 70, 60
4, 87936, Note_on_c, 7, 73, 60
4, 88124, Note_off_c, 7, 73, 0
4, 88128, Note_off_c, 7, 70, 0
4, 88128, Note_on_c, 7, 70, 60
4, 88128, Note_on_c, 7, 73, 60
4, 88320, Note_off_c, 7, 70, 0
4, 88320, Note_off_c, 7, 73, 0
4, 88320, Note_on_c, 7, 68, 60
4, 88320, Note_on_c, 7, 72, 60
4, 88508, Note_off_c, 7, 72, 0
4, 88512, Note_off_c, 7, 68, 0
4, 88512, Note_on_c, 7, 68, 60
4, 88512, Note_on_c, 7, 72, 60
4, 89088, Note_off_c, 7, 68, 0
4, 89088, Note_off_c, 7, 72, 0
4, 89088, Note_on_c, 7, 67, 60
4, 89088, Note_on_c, 7, 70, 60
4, 89276, Note_off_c, 7, 67, 0
4, 89276, Note_off_c, 7, 70, 0
4, 89280, Note_on_c, 7, 67, 60
4, 89280, Note_on_c, 7, 70, 60
4, 89468, Note_off_c, 7, 70, 0
4, 89472, Note_off_c, 7, 67, 0
4, 89472, Note_on_c, 7, 65, 60
4, 89472, Note_on_c, 7, 68, 60
4, 89660, Note_off_c, 7, 65, 0
4, 89660, Note_off_c, 7, 68, 0
4, 89664, Note_on_c, 7, 65, 60
4, 89664, Note_on_c, 7, 68, 60
4, 90236, Note_off_c, 7, 65, 0
4, 90236, Note_off_c, 7, 68, 0
4, 90240, Note_on_c, 7, 63, 60
4, 90240, Note_on_c, 7, 67, 60
4, 90428, Note_off_c, 7, 63, 0
4, 90428, Note_off_c, 7, 67, 0
4, 90432, Note_on_c, 7, 63, 60
4, 90432, Note_on_c, 7, 67, 60
4, 90624, Note_off_c, 7, 63, 0
4, 90624, Note_off_c, 7, 67, 0
4, 90624, Note_on_c, 7, 62, 60
4, 90624, Note_on_c, 7, 66, 60
4, 90812, Note_off_c, 7, 62, 0
4, 90812, Note_off_c, 7, 66, 0
4, 90816, Note_on_c, 7, 63, 60
4, 90816, Note_on_c, 7, 66, 60
4, 91008, Note_off_c, 7, 66, 0
4, 91008, Note_on_c, 7, 67, 60
4, 91136, Note_off_c, 7, 63, 0
4, 91196, Note_off_c, 7, 67, 0
4, 91200, Note_on_c, 7, 62, 60
4, 91200, Note_on_c, 7, 67, 60
4, 92256, Note_off_c, 7, 62, 0
4, 92256, Note_off_c, 7, 67, 0
4, 92352, Note_on_c, 7, 75, 60
4, 92352, Note_on_c, 7, 75, 60
4, 92540, Note_off_c, 7, 75, 0
4, 92540, Note_off_c, 7, 75, 0
4, 92544, Note_on_c, 7, 77, 60
4, 92544, Note_on_c, 7, 77, 60
4, 92636, Note_off_c, 7, 77, 0
4, 92636, Note_off_c, 7, 77, 0
4, 92640, Note_on_c, 7, 79, 60
4, 92640, Note_on_c, 7, 79, 60
4, 92732, Note_off_c, 7, 79, 0
4, 92732, Note_off_c, 7, 79, 0
4, 92736, Note_on_c, 7, 77, 60
4, 92736, Note_on_c, 7, 77, 60
4, 92924, Note_off_c, 7, 77, 0
4, 92924, Note_off_c, 7, 77, 0
4, 92928, Note_on_c, 7, 75, 60
4, 92928, Note_on_c, 7, 75, 60
4, 93116, Note_off_c, 7, 75, 0
4, 93116, Note_off_c, 7, 75, 0
4, 93120, Note_on_c, 7, 74, 60
4, 93120, Note_on_c, 7, 74, 60
4, 93308, Note_off_c, 7, 74, 0
4, 93308, Note_off_c, 7, 74, 0
4, 93312, Note_on_c, 7, 72, 60
4, 93312, Note_on_c, 7, 72, 60
4, 93500, Note_off_c, 7, 72, 0
4, 93500, Note_off_c, 7, 72, 0
4, 93504, Note_on_c, 7, 65, 60
4, 93504, Note_on_c, 7, 71, 60
4, 94560, Note_off_c, 7, 65, 0
4, 94560, Note_off_c, 7, 71, 0
4, 94656, Note_on_c, 7, 67, 60
4, 94656, Note_on_c, 7, 70, 60
4, 94844, Note_off_c, 7, 67, 0
4, 94844, Note_off_c, 7, 70, 0
4, 94848, Note_on_c, 7, 68, 60
4, 94848, Note_on_c, 7, 72, 60
4, 94940, Note_off_c, 7, 68, 0
4, 94940, Note_off_c, 7, 72, 0
4, 94944, Note_on_c, 7, 70, 60
4, 94944, Note_on_c, 7, 73, 60
4, 95036, Note_off_c, 7, 70, 0
4, 95036, Note_off_c, 7, 73, 0
4, 95040, Note_on_c, 7, 70, 60
4, 95040, Note_on_c, 7, 73, 60
4, 95228, Note_off_c, 7, 70, 0
4, 95228, Note_off_c, 7, 73, 0
4, 95232, Note_on_c, 7, 68, 60
4, 95232, Note_on_c, 7, 72, 60
4, 95420, Note_off_c, 7, 68, 0
4, 95420, Note_off_c, 7, 72, 0
4, 95424, Note_on_c, 7, 68, 60
4, 95424, Note_on_c, 7, 72, 60
4, 95612, Note_off_c, 7, 68, 0
4, 95612, Note_off_c, 7, 72, 0
4, 95616, Note_on_c, 7, 67, 60
4, 95616, Note_on_c, 7, 70, 60
4, 95804, Note_off_c, 7, 67, 0
4, 95804, Note_off_c, 7, 70, 0
4, 95808, Note_on_c, 7, 67, 60
4, 95808, Note_on_c, 7, 70, 60
4, 95900, Note_off_c, 7, 67, 0
4, 95900, Note_off_c, 7, 70, 0
4, 95904, Note_on_c, 7, 65, 60
4, 95904, Note_on_c, 7, 68, 60
4, 95996, Note_off_c, 7, 65, 0
4, 95996, Note_off_c, 7, 68, 0
4, 96000, Note_on_c, 7, 64, 60
4, 96000, Note_on_c, 7, 67, 60
4, 96188, Note_off_c, 7, 64, 0
4, 96188, Note_off_c, 7, 67, 0
4, 96192, Note_on_c, 7, 65, 60
4, 96192, Note_on_c, 7, 68, 60
4, 96864, Note_off_c, 7, 68, 0
4, 96960, Note_on_c, 7, 67, 60
4, 97148, Note_off_c, 7, 65, 0
4, 97148, Note_off_c, 7, 67, 0
4, 97152, Note_on_c, 7, 67, 60
4, 97152, Note_on_c, 7, 67, 60
4, 97340, Note_off_c, 7, 67, 0
4, 97340, Note_off_c, 7, 67, 0
4, 97344, Note_on_c, 7, 68, 60
4, 97344, Note_on_c, 7, 77, 60
4, 97532, Note_off_c, 7, 68, 0
4, 97536, Note_on_c, 7, 65, 60
4, 97724, Note_off_c, 7, 65, 0
4, 97728, Note_on_c, 7, 67, 60
4, 98048, Note_off_c, 7, 67, 0
4, 98112, Note_on_c, 7, 74, 60
4, 98300, Note_off_c, 7, 77, 0
4, 98300, Note_off_c, 7, 74, 0
4, 98304, Note_on_c, 7, 71, 60
4, 98304, Note_on_c, 7, 74, 60
4, 98492, Note_off_c, 7, 71, 0
4, 98492, Note_off_c, 7, 74, 0
4, 98496, Note_on_c, 7, 72, 60
4, 98496, Note_on_c, 7, 75, 60
4, 98684, Note_off_c, 7, 72, 0
4, 98684, Note_off_c, 7, 75, 0
4, 98688, Note_on_c, 7, 67, 60
4, 98688, Note_on_c, 7, 72, 60
4, 98876, Note_off_c, 7, 67, 0
4, 98876, Note_off_c, 7, 72, 0
4, 98880, Note_on_c, 7, 65, 60
4, 98880, Note_on_c, 7, 70, 60
4, 99068, Note_off_c, 7, 65, 0
4, 99068, Note_off_c, 7, 70, 0
4, 99072, Note_on_c, 7, 63, 60
4, 99072, Note_on_c, 7, 68, 60
4, 99260, Note_off_c, 7, 63, 0
4, 99264, Note_on_c, 7, 65, 60
4, 99452, Note_off_c, 7, 68, 0
4, 99456, Note_on_c, 7, 65, 60
4, 99584, Note_off_c, 7, 65, 0
4, 99644, Note_off_c, 7, 65, 0
4, 99648, Note_on_c, 7, 63, 60
4, 99648, Note_on_c, 7, 67, 60
4, 99836, Note_off_c, 7, 63, 0
4, 99836, Note_off_c, 7, 67, 0
4, 99840, Note_on_c, 7, 68, 60
4, 99840, Note_on_c, 7, 72, 60
4, 100028, Note_off_c, 7, 68, 0
4, 100028, Note_off_c, 7, 72, 0
4, 100032, Note_on_c, 7, 67, 60
4, 100032, Note_on_c, 7, 70, 60
4, 100220, Note_off_c, 7, 67, 0
4, 100220, Note_off_c, 7, 70, 0
4, 100224, Note_on_c, 7, 65, 60
4, 100224, Note_on_c, 7, 68, 60
4, 100412, Note_off_c, 7, 65, 0
4, 100412, Note_off_c, 7, 68, 0
4, 100416, Note_on_c, 7, 63, 60
4, 100416, Note_on_c, 7, 67, 60
4, 100608, Note_off_c, 7, 63, 0
4, 100608, Note_off_c, 7, 67, 0
4, 100608, Note_on_c, 7, 62, 60
4, 100608, Note_on_c, 7, 65, 60
4, 100928, Note_off_c, 7, 62, 0
4, 100928, Note_off_c, 7, 65, 0
4, 100992, Control_c, 7, 10, 32
4, 100992, Note_on_c, 7, 68, 48
4, 100992, Control_c, 7, 10, 32
4, 100992, Note_on_c, 7, 74, 48
4, 101184, Note_off_c, 7, 68, 0
4, 101184, Note_off_c, 7, 74, 0
4, 101184, Note_on_c, 7, 70, 48
4, 101184, Note_on_c, 7, 75, 48
4, 101376, Note_off_c, 7, 70, 0
4, 101376, Note_off_c, 7, 75, 0
4, 101376, Note_on_c, 7, 67, 48
4, 101376, Note_on_c, 7, 72, 48
4, 101564, Note_off_c, 7, 67, 0
4, 101564, Note_off_c, 7, 72, 0
4, 101568, Note_on_c, 7, 69, 48
4, 101568, Note_on_c, 7, 69, 48
4, 101760, Note_off_c, 7, 69, 0
4, 101760, Note_off_c, 7, 69, 0
4, 101760, Note_on_c, 7, 65, 48
4, 101760, Note_on_c, 7, 70, 48
4, 101948, Note_off_c, 7, 65, 0
4, 101948, Note_off_c, 7, 70, 0
4, 101952, Note_on_c, 7, 65, 48
4, 101952, Note_on_c, 7, 70, 48
4, 102140, Note_off_c, 7, 65, 0
4, 102140, Note_off_c, 7, 70, 0
4, 102144, Control_c, 7, 10, 96
4, 102144, Note_on_c, 7, 68, 48
4, 102144, Control_c, 7, 10, 96
4, 102144, Note_on_c, 7, 74, 48
4, 102336, Note_off_c, 7, 68, 0
4, 102336, Note_off_c, 7, 74, 0
4, 102336, Note_on_c, 7, 70, 48
4, 102336, Note_on_c, 7, 75, 48
4, 102528, Note_off_c, 7, 70, 0
4, 102528, Note_off_c, 7, 75, 0
4, 102528, Note_on_c, 7, 67, 48
4, 102528, Note_on_c, 7, 72, 48
4, 102716, Note_off_c, 7, 67, 0
4, 102716, Note_off_c, 7, 72, 0
4, 102720, Note_on_c, 7, 63, 48
4, 102720, Note_on_c, 7, 69, 48
4, 103040, Note_off_c, 7, 63, 0
4, 103040, Note_off_c, 7, 69, 0
4, 103104, Note_on_c, 7, 65, 48
4, 103104, Note_on_c, 7, 70, 48
4, 103292, Note_off_c, 7, 65, 0
4, 103292, Note_off_c, 7, 70, 0
4, 103296, Control_c, 7, 10, 96
4, 103296, Note_on_c, 7, 77, 74
4, 103296, Control_c, 7, 10, 32
4, 103296, Note_on_c, 7, 80, 74
4, 103484, Note_off_c, 7, 77, 0
4, 103484, Note_off_c, 7, 80, 0
4, 103488, Note_on_c, 7, 75, 74
4, 103488, Note_on_c, 7, 79, 74
4, 103676, Note_off_c, 7, 75, 0
4, 103676, Note_off_c, 7, 79, 0
4, 103680, Note_on_c, 7, 72, 74
4, 103680, Note_on_c, 7, 77, 74
4, 103868, Note_off_c, 7, 72, 0
4, 103868, Note_off_c, 7, 77, 0
4, 103872, Note_on_c, 7, 70, 74
4, 103872, Note_on_c, 7, 74, 74
4, 104060, Note_off_c, 7, 74, 0
4, 104064, Note_on_c, 7, 75, 74
4, 104192, Note_off_c, 7, 70, 0
4, 104252, Note_off_c, 7, 75, 0
4, 104256, Note_on_c, 7, 67, 74
4, 104256, Note_on_c, 7, 70, 74
4, 104444, Note_off_c, 7, 67, 0
4, 104444, Note_off_c, 7, 70, 0
4, 104448, Note_on_c, 7, 65, 74
4, 104448, Note_on_c, 7, 68, 74
4, 104636, Note_off_c, 7, 65, 0
4, 104636, Note_off_c, 7, 68, 0
4, 104640, Note_on_c, 7, 63, 74
4, 104640, Note_on_c, 7, 67, 74
4, 104828, Note_off_c, 7, 63, 0
4, 104828, Note_off_c, 7, 67, 0
4, 104832, Note_on_c, 7, 62, 74
4, 104832, Note_on_c, 7, 65, 74
4, 105020, Note_off_c, 7, 62, 0
4, 105020, Note_off_c, 7, 65, 0
4, 105024, Note_on_c, 7, 58, 74
4, 105024, Note_on_c, 7, 63, 74
4, 106080, Note_off_c, 7, 58, 0
4, 106080, Note_off_c, 7, 63, 0
4, 106176, Note_on_c, 7, 75, 60
4, 106364, Note_off_c, 7, 75, 0
4, 106368, Note_on_c, 7, 77, 60
4, 106460, Note_off_c, 7, 77, 0
4, 106464, Note_on_c, 7, 79, 60
4, 106556, Note_off_c, 7, 79, 0
4, 106560, Note_on_c, 7, 77, 60
4, 106748, Note_off_c, 7, 77, 0
4, 106752, Note_on_c, 7, 75, 60
4, 106940, Note_off_c, 7, 75, 0
4, 106944, Note_on_c, 7, 74, 60
4, 107132, Note_off_c, 7, 74, 0
4, 107136, Note_on_c, 7, 72, 60
4, 107324, Note_off_c, 7, 72, 0
4, 107328, Note_on_c, 7, 65, 60
4, 107328, Note_on_c, 7, 71, 60
4, 107420, Note_off_c, 7, 71, 0
4, 107424, Note_on_c, 7, 69, 60
4, 107516, Note_off_c, 7, 69, 0
4, 107520, Note_on_c, 7, 71, 60
4, 108384, Note_off_c, 7, 65, 0
4, 108384, Note_off_c, 7, 71, 0
4, 108480, Note_on_c, 7, 67, 60
4, 108480, Note_on_c, 7, 70, 60
4, 108668, Note_off_c, 7, 67, 0
4, 108668, Note_off_c, 7, 70, 0
4, 108672, Note_on_c, 7, 68, 60
4, 108672, Note_on_c, 7, 72, 60
4, 108764, Note_off_c, 7, 68, 0
4, 108764, Note_off_c, 7, 72, 0
4, 108768, Note_on_c, 7, 70, 60
4, 108768, Note_on_c, 7, 73, 60
4, 108860, Note_off_c, 7, 70, 0
4, 108860, Note_off_c, 7, 73, 0
4, 108864, Note_on_c, 7, 70, 60
4, 108864, Note_on_c, 7, 73, 60
4, 109052, Note_off_c, 7, 70, 0
4, 109052, Note_off_c, 7, 73, 0
4, 109056, Note_on_c, 7, 68, 60
4, 109056, Note_on_c, 7, 72, 60
4, 109244, Note_off_c, 7, 68, 0
4, 109244, Note_off_c, 7, 72, 0
4, 109248, Note_on_c, 7, 68, 60
4, 109248, Note_on_c, 7, 72, 60
4, 109436, Note_off_c, 7, 68, 0
4, 109436, Note_off_c, 7, 72, 0
4, 109440, Note_on_c, 7, 67, 60
4, 109440, Note_on_c, 7, 70, 60
4, 109628, Note_off_c, 7, 67, 0
4, 109628, Note_off_c, 7, 70, 0
4, 109632, Note_on_c, 7, 67, 60
4, 109632, Note_on_c, 7, 70, 60
4, 109724, Note_off_c, 7, 67, 0
4, 109724, Note_off_c, 7, 70, 0
4, 109728, Note_on_c, 7, 65, 60
4, 109728, Note_on_c, 7, 68, 60
4, 109820, Note_off_c, 7, 65, 0
4, 109820, Note_off_c, 7, 68, 0
4, 109824, Note_on_c, 7, 64, 60
4, 109824, Note_on_c, 7, 67, 60
4, 110012, Note_off_c, 7, 64, 0
4, 110012, Note_off_c, 7, 67, 0
4, 110016, Note_on_c, 7, 65, 60
4, 110016, Note_on_c, 7, 68, 60
4, 110688, Note_off_c, 7, 65, 0
4, 110688, Note_off_c, 7, 68, 0
4, 110784, Note_on_c, 7, 65, 60
4, 110784, Note_on_c, 7, 67, 60
4, 110972, Note_off_c, 7, 67, 0
4, 110976, Note_on_c, 7, 67, 60
4, 111104, Note_off_c, 7, 65, 0
4, 111164, Note_off_c, 7, 67, 0
4, 111168, Note_on_c, 7, 68, 60
4, 111168, Note_on_c, 7, 77, 60
4, 111356, Note_off_c, 7, 68, 0
4, 111360, Note_on_c, 7, 65, 60
4, 111548, Note_off_c, 7, 65, 0
4, 111552, Note_on_c, 7, 67, 60
4, 111872, Note_off_c, 7, 67, 0
4, 111936, Note_on_c, 7, 74, 60
4, 112124, Note_off_c, 7, 77, 0
4, 112124, Note_off_c, 7, 74, 0
4, 112128, Note_on_c, 7, 71, 60
4, 112128, Note_on_c, 7, 74, 60
4, 112316, Note_off_c, 7, 71, 0
4, 112316, Note_off_c, 7, 74, 0
4, 112320, Note_on_c, 7, 72, 60
4, 112320, Note_on_c, 7, 75, 60
4, 112508, Note_off_c, 7, 72, 0
4, 112508, Note_off_c, 7, 75, 0
4, 112512, Note_on_c, 7, 67, 60
4, 112512, Note_on_c, 7, 72, 60
4, 112700, Note_off_c, 7, 67, 0
4, 112700, Note_off_c, 7, 72, 0
4, 112704, Note_on_c, 7, 65, 60
4, 112704, Note_on_c, 7, 70, 60
4, 112892, Note_off_c, 7, 65, 0
4, 112892, Note_off_c, 7, 70, 0
4, 112896, Note_on_c, 7, 63, 60
4, 112896, Note_on_c, 7, 68, 60
4, 113084, Note_off_c, 7, 63, 0
4, 113088, Note_on_c, 7, 65, 60
4, 113276, Note_off_c, 7, 68, 0
4, 113280, Note_on_c, 7, 65, 60
4, 113408, Note_off_c, 7, 65, 0
4, 113468, Note_off_c, 7, 65, 0
4, 113472, Note_on_c, 7, 63, 60
4, 113472, Note_on_c, 7, 67, 60
4, 113660, Note_off_c, 7, 63, 0
4, 113660, Note_off_c, 7, 67, 0
4, 113664, Note_on_c, 7, 68, 60
4, 113664, Note_on_c, 7, 72, 60
4, 113852, Note_off_c, 7, 68, 0
4, 113852, Note_off_c, 7, 72, 0
4, 113856, Note_on_c, 7, 67, 60
4, 113856, Note_on_c, 7, 70, 60
4, 114044, Note_off_c, 7, 67, 0
4, 114044, Note_off_c, 7, 70, 0
4, 114048, Note_on_c, 7, 65, 60
4, 114048, Note_on_c, 7, 68, 60
4, 114236, Note_off_c, 7, 65, 0
4, 114236, Note_off_c, 7, 68, 0
4, 114240, Note_on_c, 7, 63, 60
4, 114240, Note_on_c, 7, 67, 60
4, 114428, Note_off_c, 7, 63, 0
4, 114428, Note_off_c, 7, 67, 0
4, 114432, Note_on_c, 7, 62, 60
4, 114432, Note_on_c, 7, 65, 60
4, 114812, Note_off_c, 7, 62, 0
4, 114812, Note_off_c, 7, 65, 0
4, 114816, Note_on_c, 7, 68, 48
4, 114816, Note_on_c, 7, 74, 48
4, 115004, Note_off_c, 7, 68, 0
4, 115004, Note_off_c, 7, 74, 0
4, 115008, Note_on_c, 7, 70, 48
4, 115008, Note_on_c, 7, 75, 48
4, 115196, Note_off_c, 7, 70, 0
4, 115196, Note_off_c, 7, 75, 0
4, 115200, Note_on_c, 7, 67, 48
4, 115200, Note_on_c, 7, 72, 48
4, 115388, Note_off_c, 7, 67, 0
4, 115388, Note_off_c, 7, 72, 0
4, 115392, Note_on_c, 7, 65, 48
4, 115392, Note_on_c, 7, 69, 48
4, 115580, Note_off_c, 7, 69, 0
4, 115584, Note_on_c, 7, 70, 48
4, 115904, Note_off_c, 7, 65, 0
4, 115964, Note_off_c, 7, 70, 0
4, 115968, Note_on_c, 7, 68, 48
4, 115968, Note_on_c, 7, 74, 48
4, 116156, Note_off_c, 7, 68, 0
4, 116156, Note_off_c, 7, 74, 0
4, 116160, Note_on_c, 7, 70, 48
4, 116160, Note_on_c, 7, 75, 48
4, 116348, Note_off_c, 7, 70, 0
4, 116348, Note_off_c, 7, 75, 0
4, 116352, Note_on_c, 7, 67, 48
4, 116352, Note_on_c, 7, 72, 48
4, 116540, Note_off_c, 7, 67, 0
4, 116540, Note_off_c, 7, 72, 0
4, 116544, Note_on_c, 7, 63, 48
4, 116544, Note_on_c, 7, 69, 48
4, 116864, Note_off_c, 7, 63, 0
4, 116864, Note_off_c, 7, 69, 0
4, 116928, Note_on_c, 7, 65, 48
4, 116928, Note_on_c, 7, 70, 48
4, 117116, Note_off_c, 7, 65, 0
4, 117116, Note_off_c, 7, 70, 0
4, 117120, Note_on_c, 7, 77, 74
4, 117120, Note_on_c, 7, 80, 74
4, 117308, Note_off_c, 7, 77, 0
4, 117308, Note_off_c, 7, 80, 0
4, 117312, Note_on_c, 7, 75, 74
4, 117312, Note_on_c, 7, 79, 74
4, 117500, Note_off_c, 7, 75, 0
4, 117500, Note_off_c, 7, 79, 0
4, 117504, Note_on_c, 7, 72, 74
4, 117504, Note_on_c, 7, 77, 74
4, 117692, Note_off_c, 7, 72, 0
4, 117692, Note_off_c, 7, 77, 0
4, 117696, Note_on_c, 7, 70, 74
4, 117696, Note_on_c, 7, 74, 74
4, 117884, Note_off_c, 7, 74, 0
4, 117888, Note_on_c, 7, 75, 74
4, 118016, Note_off_c, 7, 70, 0
4, 118076, Note_off_c, 7, 75, 0
4, 118080, Note_on_c, 7, 67, 74
4, 118080, Note_on_c, 7, 70, 74
4, 118268, Note_off_c, 7, 67, 0
4, 118268, Note_off_c, 7, 70, 0
4, 118272, Note_on_c, 7, 65, 74
4, 118272, Note_on_c, 7, 68, 74
4, 118460, Note_off_c, 7, 65, 0
4, 118460, Note_off_c, 7, 68, 0
4, 118464, Note_on_c, 7, 63, 74
4, 118464, Note_on_c, 7, 67, 74
4, 118652, Note_off_c, 7, 63, 0
4, 118652, Note_off_c, 7, 67, 0
4, 118656, Note_on_c, 7, 62, 74
4, 118656, Note_on_c, 7, 65, 74
4, 118844, Note_off_c, 7, 62, 0
4, 118844, Note_off_c, 7, 65, 0
4, 118848, Note_on_c, 7, 58, 48
4, 118848, Note_on_c, 7, 63, 48
4, 119904, Note_off_c, 7, 58, 0
4, 119904, Note_off_c, 7, 63, 0
4, 120000, Note_on_c, 7, 67, 48
4, 120000, Note_on_c, 7, 67, 48
4, 120188, Note_off_c, 7, 67, 0
4, 120192, Note_on_c, 7, 68, 48
4, 120284, Note_off_c, 7, 68, 0
4, 120288, Note_on_c, 7, 70, 48
4, 120380, Note_off_c, 7, 70, 0
4, 120384, Note_on_c, 7, 68, 48
4, 120572, Note_off_c, 7, 68, 0
4, 120576, Note_on_c, 7, 67, 48
4, 120672, Note_off_c, 7, 67, 0
4, 120764, Note_off_c, 7, 67, 0
4, 120768, Note_on_c, 7, 65, 48
4, 120956, Note_off_c, 7, 65, 0
4, 120960, Note_on_c, 7, 63, 48
4, 121148, Note_off_c, 7, 63, 0
4, 121152, Note_on_c, 7, 63, 60
4, 121152, Note_on_c, 7, 70, 60
4, 121824, Note_off_c, 7, 63, 0
4, 121824, Note_off_c, 7, 70, 0
4, 122304, Note_on_c, 7, 70, 60
4, 122304, Note_on_c, 7, 73, 60
4, 122492, Note_off_c, 7, 70, 0
4, 122492, Note_off_c, 7, 73, 0
4, 122496, Note_on_c, 7, 72, 60
4, 122496, Note_on_c, 7, 75, 60
4, 122588, Note_off_c, 7, 72, 0
4, 122588, Note_off_c, 7, 75, 0
4, 122592, Note_on_c, 7, 73, 60
4, 122592, Note_on_c, 7, 77, 60
4, 122684, Note_off_c, 7, 73, 0
4, 122684, Note_off_c, 7, 77, 0
4, 122688, Note_on_c, 7, 73, 60
4, 122688, Note_on_c, 7, 77, 60
4, 122876, Note_off_c, 7, 73, 0
4, 122876, Note_off_c, 7, 77, 0
4, 122880, Note_on_c, 7, 72, 60
4, 122880, Note_on_c, 7, 75, 60
4, 123068, Note_off_c, 7, 72, 0
4, 123068, Note_off_c, 7, 75, 0
4, 123072, Note_on_c, 7, 72, 60
4, 123072, Note_on_c, 7, 75, 60
4, 123260, Note_off_c, 7, 72, 0
4, 123260, Note_off_c, 7, 75, 0
4, 123264, Note_on_c, 7, 70, 60
4, 123264, Note_on_c, 7, 73, 60
4, 123452, Note_off_c, 7, 70, 0
4, 123452, Note_off_c, 7, 73, 0
4, 123456, Note_on_c, 7, 70, 60
4, 123456, Note_on_c, 7, 73, 60
4, 123548, Note_off_c, 7, 70, 0
4, 123548, Note_off_c, 7, 73, 0
4, 123552, Note_on_c, 7, 68, 60
4, 123552, Note_on_c, 7, 72, 60
4, 123644, Note_off_c, 7, 68, 0
4, 123644, Note_off_c, 7, 72, 0
4, 123648, Note_on_c, 7, 67, 60
4, 123648, Note_on_c, 7, 70, 60
4, 123836, Note_off_c, 7, 67, 0
4, 123836, Note_off_c, 7, 70, 0
4, 123840, Note_on_c, 7, 68, 60
4, 123840, Note_on_c, 7, 72, 60
4, 124512, Note_off_c, 7, 68, 0
4, 124512, Note_off_c, 7, 72, 0
4, 124608, Note_on_c, 7, 67, 60
4, 124608, Note_on_c, 7, 70, 60
4, 124928, Note_off_c, 7, 67, 0
4, 124928, Note_off_c, 7, 70, 0
4, 124992, Note_on_c, 7, 72, 74
4, 124992, Note_on_c, 7, 79, 74
4, 125948, Note_off_c, 7, 79, 0
4, 125952, Note_on_c, 7, 70, 74
4, 126080, Note_off_c, 7, 72, 0
4, 126140, Note_off_c, 7, 70, 0
4, 126144, Note_on_c, 7, 65, 74
4, 126144, Note_on_c, 7, 68, 74
4, 126332, Note_off_c, 7, 65, 0
4, 126332, Note_off_c, 7, 68, 0
4, 126336, Note_on_c, 7, 64, 74
4, 126336, Note_on_c, 7, 67, 74
4, 126524, Note_off_c, 7, 64, 0
4, 126524, Note_off_c, 7, 67, 0
4, 126528, Note_on_c, 7, 65, 74
4, 126528, Note_on_c, 7, 68, 74
4, 126716, Note_off_c, 7, 65, 0
4, 126716, Note_off_c, 7, 68, 0
4, 126720, Note_on_c, 7, 68, 74
4, 126720, Note_on_c, 7, 72, 74
4, 126908, Note_off_c, 7, 68, 0
4, 126908, Note_off_c, 7, 72, 0
4, 126912, Note_on_c, 7, 71, 74
4, 126912, Note_on_c, 7, 77, 74
4, 127100, Note_off_c, 7, 77, 0
4, 127104, Note_on_c, 7, 75, 74
4, 127232, Note_off_c, 7, 71, 0
4, 127292, Note_off_c, 7, 75, 0
4, 127296, Note_on_c, 7, 74, 74
4, 127484, Note_off_c, 7, 74, 0
4, 127488, Note_on_c, 7, 72, 74
4, 127676, Note_off_c, 7, 72, 0
4, 127680, Note_on_c, 7, 71, 74
4, 127868, Note_off_c, 7, 71, 0
4, 127872, Note_on_c, 7, 72, 74
4, 128060, Note_off_c, 7, 72, 0
4, 128064, Note_on_c, 7, 62, 74
4, 128064, Note_on_c, 7, 68, 74
4, 128252, Note_off_c, 7, 68, 0
4, 128256, Note_on_c, 7, 67, 74
4, 128576, Note_off_c, 7, 62, 0
4, 128636, Note_off_c, 7, 67, 0
4, 128640, Note_on_c, 7, 65, 36
4, 128640, Note_on_c, 7, 71, 36
4, 128828, Note_off_c, 7, 65, 0
4, 128828, Note_off_c, 7, 71, 0
4, 128832, Note_on_c, 7, 67, 36
4, 128832, Note_on_c, 7, 72, 36
4, 129020, Note_off_c, 7, 67, 0
4, 129020, Note_off_c, 7, 72, 0
4, 129024, Note_on_c, 7, 63, 36
4, 129024, Note_on_c, 7, 68, 36
4, 129212, Note_off_c, 7, 63, 0
4, 129212, Note_off_c, 7, 68, 0
4, 129216, Note_on_c, 7, 60, 36
4, 129216, Note_on_c, 7, 66, 36
4, 129404, Note_off_c, 7, 60, 0
4, 129404, Note_off_c, 7, 66, 0
4, 129408, Note_on_c, 7, 62, 36
4, 129408, Note_on_c, 7, 67, 36
4, 129788, Note_off_c, 7, 62, 0
4, 129788, Note_off_c, 7, 67, 0
4, 129792, Note_on_c, 7, 65, 36
4, 129792, Note_on_c, 7, 71, 36
4, 129980, Note_off_c, 7, 65, 0
4, 129980, Note_off_c, 7, 71, 0
4, 129984, Note_on_c, 7, 67, 36
4, 129984, Note_on_c, 7, 72, 36
4, 130172, Note_off_c, 7, 67, 0
4, 130172, Note_off_c, 7, 72, 0
4, 130176, Note_on_c, 7, 63, 36
4, 130176, Note_on_c, 7, 68, 36
4, 130364, Note_off_c, 7, 63, 0
4, 130364, Note_off_c, 7, 68, 0
4, 130368, Note_on_c, 7, 60, 36
4, 130368, Note_on_c, 7, 66, 36
4, 130688, Note_off_c, 7, 60, 0
4, 130688, Note_off_c, 7, 66, 0
4, 130752, Note_on_c, 7, 62, 36
4, 130752, Note_on_c, 7, 67, 36
4, 130940, Note_off_c, 7, 62, 0
4, 130940, Note_off_c, 7, 67, 0
4, 130944, Note_on_c, 7, 74, 74
4, 130944, Note_on_c, 7, 77, 74
4, 131132, Note_off_c, 7, 74, 0
4, 131132, Note_off_c, 7, 77, 0
4, 131136, Note_on_c, 7, 72, 74
4, 131136, Note_on_c, 7, 75, 74
4, 131324, Note_off_c, 7, 72, 0
4, 131324, Note_off_c, 7, 75, 0
4, 131328, Note_on_c, 7, 71, 74
4, 131328, Note_on_c, 7, 74, 74
4, 131516, Note_off_c, 7, 71, 0
4, 131516, Note_off_c, 7, 74, 0
4, 131520, Note_on_c, 7, 65, 74
4, 131520, Note_on_c, 7, 71, 74
4, 131708, Note_off_c, 7, 65, 0
4, 131708, Note_off_c, 7, 71, 0
4, 131712, Note_on_c, 7, 67, 74
4, 131712, Note_on_c, 7, 72, 74
4, 131900, Note_off_c, 7, 67, 0
4, 131900, Note_off_c, 7, 72, 0
4, 131904, Note_on_c, 7, 63, 74
4, 131904, Note_on_c, 7, 67, 74
4, 132092, Note_off_c, 7, 63, 0
4, 132092, Note_off_c, 7, 67, 0
4, 132096, Note_on_c, 7, 62, 74
4, 132096, Note_on_c, 7, 65, 74
4, 132284, Note_off_c, 7, 62, 0
4, 132284, Note_off_c, 7, 65, 0
4, 132288, Note_on_c, 7, 60, 74
4, 132288, Note_on_c, 7, 63, 74
4, 132476, Note_off_c, 7, 60, 0
4, 132476, Note_off_c, 7, 63, 0
4, 132480, Note_on_c, 7, 59, 74
4, 132480, Note_on_c, 7, 62, 74
4, 132668, Note_off_c, 7, 59, 0
4, 132668, Note_off_c, 7, 62, 0
4, 132672, Note_on_c, 7, 67, 74
4, 132672, Note_on_c, 7, 71, 74
4, 132992, Note_off_c, 7, 71, 0
4, 133056, Note_on_c, 7, 72, 74
4, 133728, Note_off_c, 7, 67, 0
4, 133728, Note_off_c, 7, 72, 0
4, 133824, Note_on_c, 7, 63, 48
4, 133824, Note_on_c, 7, 67, 48
4, 134012, Note_off_c, 7, 67, 0
4, 134016, Note_on_c, 7, 68, 48
4, 134108, Note_off_c, 7, 68, 0
4, 134112, Note_on_c, 7, 70, 48
4, 134204, Note_off_c, 7, 70, 0
4, 134208, Note_on_c, 7, 68, 48
4, 134396, Note_off_c, 7, 68, 0
4, 134400, Note_on_c, 7, 67, 48
4, 134496, Note_off_c, 7, 63, 0
4, 134588, Note_off_c, 7, 67, 0
4, 134592, Note_on_c, 7, 62, 48
4, 134592, Note_on_c, 7, 65, 48
4, 134780, Note_off_c, 7, 62, 0
4, 134780, Note_off_c, 7, 65, 0
4, 134784, Note_on_c, 7, 63, 48
4, 134784, Note_on_c, 7, 63, 48
4, 134972, Note_off_c, 7, 63, 0
4, 134972, Note_off_c, 7, 63, 0
4, 134976, Note_on_c, 7, 67, 48
4, 134976, Note_on_c, 7, 70, 48
4, 136032, Note_off_c, 7, 67, 0
4, 136032, Note_off_c, 7, 70, 0
4, 136128, Note_on_c, 7, 70, 48
4, 136128, Note_on_c, 7, 73, 48
4, 136316, Note_off_c, 7, 70, 0
4, 136316, Note_off_c, 7, 73, 0
4, 136320, Note_on_c, 7, 72, 48
4, 136320, Note_on_c, 7, 75, 48
4, 136412, Note_off_c, 7, 72, 0
4, 136412, Note_off_c, 7, 75, 0
4, 136416, Note_on_c, 7, 73, 48
4, 136416, Note_on_c, 7, 77, 48
4, 136508, Note_off_c, 7, 73, 0
4, 136508, Note_off_c, 7, 77, 0
4, 136512, Note_on_c, 7, 73, 48
4, 136512, Note_on_c, 7, 77, 48
4, 136700, Note_off_c, 7, 73, 0
4, 136700, Note_off_c, 7, 77, 0
4, 136704, Note_on_c, 7, 72, 48
4, 136704, Note_on_c, 7, 75, 48
4, 136892, Note_off_c, 7, 72, 0
4, 136892, Note_off_c, 7, 75, 0
4, 136896, Note_on_c, 7, 72, 48
4, 136896, Note_on_c, 7, 75, 48
4, 137084, Note_off_c, 7, 72, 0
4, 137084, Note_off_c, 7, 75, 0
4, 137088, Note_on_c, 7, 70, 48
4, 137088, Note_on_c, 7, 73, 48
4, 137276, Note_off_c, 7, 70, 0
4, 137276, Note_off_c, 7, 73, 0
4, 137280, Note_on_c, 7, 70, 48
4, 137280, Note_on_c, 7, 73, 48
4, 137372, Note_off_c, 7, 70, 0
4, 137372, Note_off_c, 7, 73, 0
4, 137376, Note_on_c, 7, 68, 48
4, 137376, Note_on_c, 7, 72, 48
4, 137468, Note_off_c, 7, 68, 0
4, 137468, Note_off_c, 7, 72, 0
4, 137472, Note_on_c, 7, 67, 48
4, 137472, Note_on_c, 7, 70, 48
4, 137660, Note_off_c, 7, 67, 0
4, 137660, Note_off_c, 7, 70, 0
4, 137664, Note_on_c, 7, 68, 48
4, 137664, Note_on_c, 7, 72, 48
4, 138336, Note_off_c, 7, 68, 0
4, 138336, Note_off_c, 7, 72, 0
4, 138432, Note_on_c, 7, 67, 48
4, 138432, Note_on_c, 7, 70, 48
4, 138752, Note_off_c, 7, 67, 0
4, 138752, Note_off_c, 7, 70, 0
4, 138816, Note_on_c, 7, 72, 60
4, 138816, Note_on_c, 7, 79, 60
4, 139772, Note_off_c, 7, 79, 0
4, 139776, Note_on_c, 7, 70, 60
4, 139904, Note_off_c, 7, 72, 0
4, 139964, Note_off_c, 7, 70, 0
4, 139968, Note_on_c, 7, 65, 60
4, 139968, Note_on_c, 7, 68, 60
4, 140156, Note_off_c, 7, 65, 0
4, 140156, Note_off_c, 7, 68, 0
4, 140160, Note_on_c, 7, 64, 60
4, 140160, Note_on_c, 7, 67, 60
4, 140348, Note_off_c, 7, 64, 0
4, 140348, Note_off_c, 7, 67, 0
4, 140352, Note_on_c, 7, 65, 60
4, 140352, Note_on_c, 7, 68, 60
4, 140540, Note_off_c, 7, 65, 0
4, 140540, Note_off_c, 7, 68, 0
4, 140544, Note_on_c, 7, 68, 60
4, 140544, Note_on_c, 7, 72, 60
4, 140732, Note_off_c, 7, 68, 0
4, 140732, Note_off_c, 7, 72, 0
4, 140736, Note_on_c, 7, 71, 60
4, 140736, Note_on_c, 7, 77, 60
4, 140924, Note_off_c, 7, 77, 0
4, 140928, Note_on_c, 7, 75, 60
4, 141056, Note_off_c, 7, 71, 0
4, 141116, Note_off_c, 7, 75, 0
4, 141120, Note_on_c, 7, 74, 60
4, 141308, Note_off_c, 7, 74, 0
4, 141312, Note_on_c, 7, 72, 60
4, 141500, Note_off_c, 7, 72, 0
4, 141504, Note_on_c, 7, 71, 60
4, 141692, Note_off_c, 7, 71, 0
4, 141696, Note_on_c, 7, 72, 60
4, 141884, Note_off_c, 7, 72, 0
4, 141888, Note_on_c, 7, 62, 60
4, 141888, Note_on_c, 7, 68, 60
4, 142076, Note_off_c, 7, 68, 0
4, 142080, Note_on_c, 7, 67, 60
4, 142400, Note_off_c, 7, 62, 0
4, 142460, Note_off_c, 7, 67, 0
4, 142464, Note_on_c, 7, 65, 36
4, 142464, Note_on_c, 7, 71, 36
4, 142652, Note_off_c, 7, 65, 0
4, 142652, Note_off_c, 7, 71, 0
4, 142656, Note_on_c, 7, 67, 36
4, 142656, Note_on_c, 7, 72, 36
4, 142844, Note_off_c, 7, 67, 0
4, 142844, Note_off_c, 7, 72, 0
4, 142848, Note_on_c, 7, 63, 36
4, 142848, Note_on_c, 7, 68, 36
4, 143036, Note_off_c, 7, 63, 0
4, 143036, Note_off_c, 7, 68, 0
4, 143040, Note_on_c, 7, 60, 36
4, 143040, Note_on_c, 7, 66, 36
4, 143228, Note_off_c, 7, 60, 0
4, 143228, Note_off_c, 7, 66, 0
4, 143232, Note_on_c, 7, 62, 36
4, 143232, Note_on_c, 7, 67, 36
4, 143612, Note_off_c, 7, 62, 0
4, 143612, Note_off_c, 7, 67, 0
4, 143616, Note_on_c, 7, 65, 36
4, 143616, Note_on_c, 7, 71, 36
4, 143804, Note_off_c, 7, 65, 0
4, 143804, Note_off_c, 7, 71, 0
4, 143808, Note_on_c, 7, 67, 36
4, 143808, Note_on_c, 7, 72, 36
4, 143996, Note_off_c, 7, 67, 0
4, 143996, Note_off_c, 7, 72, 0
4, 144000, Note_on_c, 7, 63, 36
4, 144000, Note_on_c, 7, 68, 36
4, 144188, Note_off_c, 7, 63, 0
4, 144188, Note_off_c, 7, 68, 0
4, 144192, Note_on_c, 7, 60, 36
4, 144192, Note_on_c, 7, 66, 36
4, 144512, Note_off_c, 7, 60, 0
4, 144512, Note_off_c, 7, 66, 0
4, 144576, Note_on_c, 7, 62, 36
4, 144576, Note_on_c, 7, 67, 36
4, 144764, Note_off_c, 7, 62, 0
4, 144764, Note_off_c, 7, 67, 0
4, 144768, Note_on_c, 7, 74, 74
4, 144768, Note_on_c, 7, 77, 74
4, 144956, Note_off_c, 7, 74, 0
4, 144956, Note_off_c, 7, 77, 0
4, 144960, Note_on_c, 7, 72, 74
4, 144960, Note_on_c, 7, 75, 74
4, 145148, Note_off_c, 7, 72, 0
4, 145148, Note_off_c, 7, 75, 0
4, 145152, Note_on_c, 7, 71, 74
4, 145152, Note_on_c, 7, 74, 74
4, 145340, Note_off_c, 7, 71, 0
4, 145340, Note_off_c, 7, 74, 0
4, 145344, Note_on_c, 7, 65, 74
4, 145344, Note_on_c, 7, 71, 74
4, 145532, Note_off_c, 7, 65, 0
4, 145532, Note_off_c, 7, 71, 0
4, 145536, Note_on_c, 7, 67, 74
4, 145536, Note_on_c, 7, 72, 74
4, 145724, Note_off_c, 7, 67, 0
4, 145724, Note_off_c, 7, 72, 0
4, 145728, Note_on_c, 7, 63, 74
4, 145728, Note_on_c, 7, 67, 74
4, 145916, Note_off_c, 7, 63, 0
4, 145916, Note_off_c, 7, 67, 0
4, 145920, Note_on_c, 7, 62, 74
4, 145920, Note_on_c, 7, 65, 74
4, 146108, Note_off_c, 7, 62, 0
4, 146108, Note_off_c, 7, 65, 0
4, 146112, Note_on_c, 7, 60, 74
4, 146112, Note_on_c, 7, 63, 74
4, 146300, Note_off_c, 7, 60, 0
4, 146300, Note_off_c, 7, 63, 0
4, 146304, Note_on_c, 7, 59, 74
4, 146304, Note_on_c, 7, 62, 74
4, 146492, Note_off_c, 7, 59, 0
4, 146492, Note_off_c, 7, 62, 0
4, 146496, Note_on_c, 7, 67, 74
4, 146496, Note_on_c, 7, 71, 74
4, 146880, Note_off_c, 7, 71, 0
4, 146880, Note_on_c, 7, 72, 74
4, 147552, Note_off_c, 7, 67, 0
4, 147552, Note_off_c, 7, 72, 0
4, 147552, End_track
5, 0, Start_track
5, 0, Title_t, "Bassoon"
5, 0, Control_c, 8, 0, 0
5, 0, Program_c, 8, 70
5, 0, Control_c, 8, 10, 64
5, 0, Key_signature, -3, "major"
5, 0, Control_c, 8, 7, 127
5, 0, Note_on_c, 8, 36, 63
5, 0, Note_on_c, 8, 48, 63
5, 384, Note_off_c, 8, 36, 0
5, 384, Note_off_c, 8, 48, 0
5, 384, Note_on_c, 8, 36, 63
5, 384, Note_on_c, 8, 48, 63
5, 768, Note_off_c, 8, 36, 0
5, 768, Note_off_c, 8, 48, 0
5, 768, Note_on_c, 8, 36, 63
5, 768, Note_on_c, 8, 48, 63
5, 1152, Note_off_c, 8, 36, 0
5, 1152, Note_off_c, 8, 48, 0
5, 1152, Note_on_c, 8, 36, 63
5, 1152, Note_on_c, 8, 48, 63
5, 1344, Note_off_c, 8, 36, 0
5, 1344, Note_off_c, 8, 48, 0
5, 1344, Note_on_c, 8, 56, 63
5, 1536, Note_off_c, 8, 56, 0
5, 1536, Note_on_c, 8, 53, 63
5, 1728, Note_off_c, 8, 53, 0
5, 1728, Note_on_c, 8, 50, 63
5, 1920, Note_off_c, 8, 50, 0
5, 1920, Note_on_c, 8, 47, 63
5, 2112, Note_off_c, 8, 47, 0
5, 2112, Note_on_c, 8, 43, 63
5, 2304, Note_off_c, 8, 43, 0
5, 2304, Note_on_c, 8, 36, 63
5, 2304, Note_on_c, 8, 48, 63
5, 2688, Note_off_c, 8, 36, 0
5, 2688, Note_off_c, 8, 48, 0
5, 2688, Note_on_c, 8, 36, 63
5, 2688, Note_on_c, 8, 48, 63
5, 3072, Note_off_c, 8, 36, 0
5, 3072, Note_off_c, 8, 48, 0
5, 3072, Note_on_c, 8, 36, 63
5, 3072, Note_on_c, 8, 48, 63
5, 3456, Note_off_c, 8, 36, 0
5, 3456, Note_off_c, 8, 48, 0
5, 3456, Note_on_c, 8, 36, 63
5, 3456, Note_on_c, 8, 48, 63
5, 3648, Note_off_c, 8, 36, 0
5, 3648, Note_off_c, 8, 48, 0
5, 3648, Note_on_c, 8, 60, 63
5, 3840, Note_off_c, 8, 60, 0
5, 3840, Note_on_c, 8, 56, 63
5, 4032, Note_off_c, 8, 56, 0
5, 4032, Note_on_c, 8, 53, 63
5, 4224, Note_off_c, 8, 53, 0
5, 4224, Note_on_c, 8, 50, 63
5, 4416, Note_off_c, 8, 50, 0
5, 4416, Note_on_c, 8, 48, 63
5, 4608, Note_off_c, 8, 48, 0
5, 4608, Note_on_c, 8, 47, 63
5, 4800, Note_off_c, 8, 47, 0
5, 4800, Note_on_c, 8, 43, 63
5, 4992, Note_off_c, 8, 43, 0
5, 4992, Note_on_c, 8, 43, 63
5, 4992, Note_on_c, 8, 47, 63
5, 5184, Note_off_c, 8, 43, 0
5, 5184, Note_off_c, 8, 47, 0
5, 5184, Note_on_c, 8, 50, 63
5, 5376, Note_off_c, 8, 50, 0
5, 5376, Note_on_c, 8, 47, 63
5, 5376, Note_on_c, 8, 50, 63
5, 5568, Note_off_c, 8, 47, 0
5, 5568, Note_off_c, 8, 50, 0
5, 5568, Note_on_c, 8, 55, 63
5, 5760, Note_off_c, 8, 55, 0
5, 5760, Note_on_c, 8, 36, 63
5, 6144, Note_off_c, 8, 36, 0
5, 6144, Note_on_c, 8, 36, 63
5, 6528, Note_off_c, 8, 36, 0
5, 6528, Note_on_c, 8, 48, 63
5, 6912, Note_off_c, 8, 48, 0
5, 6912, Note_on_c, 8, 50, 63
5, 7296, Note_off_c, 8, 50, 0
5, 7296, Note_on_c, 8, 51, 63
5, 7680, Note_off_c, 8, 51, 0
5, 7680, Note_on_c, 8, 44, 63
5, 8064, Note_off_c, 8, 44, 0
5, 8064, Note_on_c, 8, 46, 63
5, 8448, Note_off_c, 8, 46, 0
5, 8448, Note_on_c, 8, 46, 63
5, 8832, Note_off_c, 8, 46, 0
5, 8832, Note_on_c, 8, 46, 50
5, 9216, Note_off_c, 8, 46, 0
5, 9216, Note_on_c, 8, 46, 50
5, 9600, Note_off_c, 8, 46, 0
5, 9600, Note_on_c, 8, 46, 50
5, 9984, Note_off_c, 8, 46, 0
5, 9984, Note_on_c, 8, 46, 50
5, 10368, Note_off_c, 8, 46, 0
5, 10368, Note_on_c, 8, 46, 50
5, 10944, Note_off_c, 8, 46, 0
5, 10944, Note_on_c, 8, 50, 77
5, 11136, Note_off_c, 8, 50, 0
5, 11136, Note_on_c, 8, 51, 77
5, 11328, Note_off_c, 8, 51, 0
5, 11328, Note_on_c, 8, 53, 77
5, 11520, Note_off_c, 8, 53, 0
5, 11520, Note_on_c, 8, 43, 77
5, 12096, Note_off_c, 8, 43, 0
5, 12096, Note_on_c, 8, 44, 77
5, 12288, Note_off_c, 8, 44, 0
5, 12288, Note_on_c, 8, 46, 77
5, 12480, Note_off_c, 8, 46, 0
5, 12480, Note_on_c, 8, 46, 77
5, 12672, Note_off_c, 8, 46, 0
5, 12672, Note_on_c, 8, 39, 77
5, 12864, Note_off_c, 8, 39, 0
5, 12864, Note_on_c, 8, 43, 77
5, 13056, Note_off_c, 8, 43, 0
5, 13056, Note_on_c, 8, 46, 77
5, 13248, Note_off_c, 8, 46, 0
5, 13248, Note_on_c, 8, 51, 77
5, 13440, Note_off_c, 8, 51, 0
5, 13440, Note_on_c, 8, 55, 77
5, 13632, Note_off_c, 8, 55, 0
5, 13632, Note_on_c, 8, 59, 77
5, 13824, Note_off_c, 8, 59, 0
5, 13824, Note_on_c, 8, 48, 63
5, 14208, Note_off_c, 8, 48, 0
5, 14208, Note_on_c, 8, 36, 63
5, 14592, Note_off_c, 8, 36, 0
5, 14592, Note_on_c, 8, 48, 63
5, 14976, Note_off_c, 8, 48, 0
5, 14976, Note_on_c, 8, 36, 63
5, 15168, Note_off_c, 8, 36, 0
5, 15168, Note_on_c, 8, 56, 63
5, 15360, Note_off_c, 8, 56, 0
5, 15360, Note_on_c, 8, 53, 63
5, 15552, Note_off_c, 8, 53, 0
5, 15552, Note_on_c, 8, 50, 63
5, 15744, Note_off_c, 8, 50, 0
5, 15744, Note_on_c, 8, 47, 63
5, 15936, Note_off_c, 8, 47, 0
5, 15936, Note_on_c, 8, 43, 63
5, 16128, Note_off_c, 8, 43, 0
5, 16128, Note_on_c, 8, 48, 63
5, 16512, Note_off_c, 8, 48, 0
5, 16512, Note_on_c, 8, 36, 63
5, 16896, Note_off_c, 8, 36, 0
5, 16896, Note_on_c, 8, 48, 63
5, 17280, Note_off_c, 8, 48, 0
5, 17280, Note_on_c, 8, 41, 63
5, 17664, Note_off_c, 8, 41, 0
5, 17664, Note_on_c, 8, 56, 63
5, 17856, Note_off_c, 8, 56, 0
5, 17856, Note_on_c, 8, 53, 63
5, 18048, Note_off_c, 8, 53, 0
5, 18048, Note_on_c, 8, 50, 63
5, 18240, Note_off_c, 8, 50, 0
5, 18240, Note_on_c, 8, 48, 63
5, 18432, Note_off_c, 8, 48, 0
5, 18432, Note_on_c, 8, 47, 63
5, 18624, Note_off_c, 8, 47, 0
5, 18624, Note_on_c, 8, 43, 63
5, 18816, Note_off_c, 8, 43, 0
5, 18816, Note_on_c, 8, 43, 63
5, 18816, Note_on_c, 8, 47, 63
5, 19008, Note_off_c, 8, 43, 0
5, 19008, Note_off_c, 8, 47, 0
5, 19008, Note_on_c, 8, 50, 63
5, 19200, Note_off_c, 8, 50, 0
5, 19200, Note_on_c, 8, 47, 63
5, 19200, Note_on_c, 8, 50, 63
5, 19392, Note_off_c, 8, 47, 0
5, 19392, Note_off_c, 8, 50, 0
5, 19392, Note_on_c, 8, 55, 63
5, 19584, Note_off_c, 8, 55, 0
5, 19584, Note_on_c, 8, 48, 63
5, 19968, Note_off_c, 8, 48, 0
5, 19968, Note_on_c, 8, 36, 63
5, 20352, Note_off_c, 8, 36, 0
5, 20352, Note_on_c, 8, 48, 63
5, 20736, Note_off_c, 8, 48, 0
5, 20736, Note_on_c, 8, 50, 63
5, 21120, Note_off_c, 8, 50, 0
5, 21120, Note_on_c, 8, 39, 63
5, 21504, Note_off_c, 8, 39, 0
5, 21504, Note_on_c, 8, 44, 63
5, 21888, Note_off_c, 8, 44, 0
5, 21888, Note_on_c, 8, 46, 63
5, 22272, Note_off_c, 8, 46, 0
5, 22272, Note_on_c, 8, 46, 63
5, 22464, Note_off_c, 8, 46, 0
5, 22464, Note_on_c, 8, 53, 50
5, 22656, Note_off_c, 8, 53, 0
5, 22656, Note_on_c, 8, 46, 50
5, 22656, Note_on_c, 8, 55, 50
5, 22848, Note_off_c, 8, 46, 0
5, 22848, Note_off_c, 8, 55, 0
5, 22848, Note_on_c, 8, 51, 50
5, 23040, Note_off_c, 8, 51, 0
5, 23040, Note_on_c, 8, 46, 50
5, 23040, Note_on_c, 8, 60, 50
5, 23232, Note_off_c, 8, 46, 0
5, 23232, Note_off_c, 8, 60, 0
5, 23232, Note_on_c, 8, 62, 50
5, 23424, Note_off_c, 8, 62, 0
5, 23424, Note_on_c, 8, 46, 50
5, 23616, Note_off_c, 8, 46, 0
5, 23616, Note_on_c, 8, 65, 50
5, 23808, Note_off_c, 8, 65, 0
5, 23808, Note_on_c, 8, 46, 50
5, 24000, Note_off_c, 8, 46, 0
5, 24000, Note_on_c, 8, 63, 50
5, 24192, Note_off_c, 8, 63, 0
5, 24192, Note_on_c, 8, 34, 50
5, 24192, Note_on_c, 8, 46, 50
5, 24768, Note_off_c, 8, 34, 0
5, 24768, Note_off_c, 8, 46, 0
5, 24768, Note_on_c, 8, 50, 77
5, 24960, Note_off_c, 8, 50, 0
5, 24960, Note_on_c, 8, 51, 77
5, 25152, Note_off_c, 8, 51, 0
5, 25152, Note_on_c, 8, 53, 77
5, 25344, Note_off_c, 8, 53, 0
5, 25344, Note_on_c, 8, 43, 77
5, 25344, Note_on_c, 8, 55, 77
5, 25920, Note_off_c, 8, 43, 0
5, 25920, Note_off_c, 8, 55, 0
5, 25920, Note_on_c, 8, 44, 77
5, 25920, Note_on_c, 8, 56, 77
5, 26112, Note_off_c, 8, 44, 0
5, 26112, Note_off_c, 8, 56, 0
5, 26112, Note_on_c, 8, 46, 77
5, 26112, Note_on_c, 8, 58, 77
5, 26496, Note_off_c, 8, 46, 0
5, 26496, Note_off_c, 8, 58, 0
5, 26496, Note_on_c, 8, 39, 63
5, 26496, Note_on_c, 8, 51, 63
5, 26688, Note_off_c, 8, 39, 0
5, 26688, Note_off_c, 8, 51, 0
5, 26688, Note_on_c, 8, 39, 63
5, 26688, Note_on_c, 8, 46, 63
5, 26880, Note_off_c, 8, 39, 0
5, 26880, Note_off_c, 8, 46, 0
5, 26880, Note_on_c, 8, 51, 63
5, 27072, Note_off_c, 8, 51, 0
5, 27072, Note_on_c, 8, 55, 63
5, 27264, Note_off_c, 8, 55, 0
5, 27264, Note_on_c, 8, 58, 63
5, 27456, Note_off_c, 8, 58, 0
5, 27456, Note_on_c, 8, 63, 63
5, 27648, Note_off_c, 8, 63, 0
5, 27648, Note_on_c, 8, 39, 63
5, 27648, Note_on_c, 8, 58, 63
5, 28032, Note_off_c, 8, 39, 0
5, 28032, Note_off_c, 8, 58, 0
5, 28032, Note_on_c, 8, 39, 63
5, 28032, Note_on_c, 8, 60, 63
5, 28416, Note_off_c, 8, 39, 0
5, 28416, Note_off_c, 8, 60, 0
5, 28416, Note_on_c, 8, 39, 63
5, 28800, Note_off_c, 8, 39, 0
5, 28800, Note_on_c, 8, 37, 63
5, 28992, Note_off_c, 8, 37, 0
5, 28992, Note_on_c, 8, 61, 63
5, 29184, Note_off_c, 8, 61, 0
5, 29184, Note_on_c, 8, 58, 63
5, 29376, Note_off_c, 8, 58, 0
5, 29376, Note_on_c, 8, 55, 63
5, 29568, Note_off_c, 8, 55, 0
5, 29568, Note_on_c, 8, 51, 63
5, 29760, Note_off_c, 8, 51, 0
5, 29760, Note_on_c, 8, 46, 63
5, 29952, Note_off_c, 8, 46, 0
5, 29952, Note_on_c, 8, 43, 63
5, 30336, Note_off_c, 8, 43, 0
5, 30336, Note_on_c, 8, 43, 63
5, 30720, Note_off_c, 8, 43, 0
5, 30720, Note_on_c, 8, 43, 63
5, 31104, Note_off_c, 8, 43, 0
5, 31104, Note_on_c, 8, 44, 63
5, 31488, Note_off_c, 8, 44, 0
5, 31488, Note_on_c, 8, 60, 63
5, 31680, Note_off_c, 8, 60, 0
5, 31680, Note_on_c, 8, 56, 63
5, 31872, Note_off_c, 8, 56, 0
5, 31872, Note_on_c, 8, 51, 63
5, 32064, Note_off_c, 8, 51, 0
5, 32064, Note_on_c, 8, 48, 63
5, 32256, Note_off_c, 8, 48, 0
5, 32256, Note_on_c, 8, 40, 77
5, 32448, Note_off_c, 8, 40, 0
5, 32448, Note_on_c, 8, 43, 77
5, 32640, Note_off_c, 8, 43, 0
5, 32640, Note_on_c, 8, 48, 77
5, 32832, Note_off_c, 8, 48, 0
5, 32832, Note_on_c, 8, 52, 77
5, 33024, Note_off_c, 8, 52, 0
5, 33024, Note_on_c, 8, 55, 77
5, 33216, Note_off_c, 8, 55, 0
5, 33216, Note_on_c, 8, 58, 77
5, 33408, Note_off_c, 8, 58, 0
5, 33408, Note_on_c, 8, 41, 77
5, 33408, Note_on_c, 8, 56, 77
5, 33600, Note_off_c, 8, 41, 0
5, 33600, Note_off_c, 8, 56, 0
5, 33600, Note_on_c, 8, 55, 77
5, 33792, Note_off_c, 8, 55, 0
5, 33792, Note_on_c, 8, 53, 77
5, 33984, Note_off_c, 8, 53, 0
5, 33984, Note_on_c, 8, 48, 77
5, 34176, Note_off_c, 8, 48, 0
5, 34176, Note_on_c, 8, 44, 77
5, 34176, Note_on_c, 8, 53, 77
5, 34368, Note_off_c, 8, 44, 0
5, 34368, Note_off_c, 8, 53, 0
5, 34368, Note_on_c, 8, 41, 77
5, 34560, Note_off_c, 8, 41, 0
5, 34560, Note_on_c, 8, 38, 77
5, 34944, Note_off_c, 8, 38, 0
5, 34944, Note_on_c, 8, 39, 77
5, 35328, Note_off_c, 8, 39, 0
5, 35328, Note_on_c, 8, 41, 77
5, 35712, Note_off_c, 8, 41, 0
5, 35712, Note_on_c, 8, 43, 77
5, 35712, Note_on_c, 8, 55, 77
5, 36096, Note_off_c, 8, 43, 0
5, 36096, Note_off_c, 8, 55, 0
5, 36096, Note_on_c, 8, 43, 37
5, 36480, Note_off_c, 8, 43, 0
5, 36480, Note_on_c, 8, 43, 37
5, 36864, Note_off_c, 8, 43, 0
5, 36864, Note_on_c, 8, 43, 37
5, 36864, Note_on_c, 8, 55, 37
5, 37248, Note_off_c, 8, 43, 0
5, 37248, Note_off_c, 8, 55, 0
5, 37248, Note_on_c, 8, 43, 37
5, 37632, Note_off_c, 8, 43, 0
5, 37632, Note_on_c, 8, 43, 37
5, 38016, Note_off_c, 8, 43, 0
5, 38016, Note_on_c, 8, 43, 37
5, 38592, Note_off_c, 8, 43, 0
5, 38592, Note_on_c, 8, 47, 77
5, 38784, Note_off_c, 8, 47, 0
5, 38784, Note_on_c, 8, 48, 77
5, 38976, Note_off_c, 8, 48, 0
5, 38976, Note_on_c, 8, 50, 77
5, 39168, Note_off_c, 8, 50, 0
5, 39168, Note_on_c, 8, 39, 77
5, 39552, Note_off_c, 8, 39, 0
5, 39552, Note_on_c, 8, 55, 77
5, 39744, Note_off_c, 8, 55, 0
5, 39744, Note_on_c, 8, 41, 77
5, 39744, Note_on_c, 8, 56, 77
5, 39936, Note_off_c, 8, 41, 0
5, 39936, Note_off_c, 8, 56, 0
5, 39936, Note_on_c, 8, 43, 77
5, 39936, Note_on_c, 8, 55, 77
5, 40128, Note_off_c, 8, 43, 0
5, 40128, Note_off_c, 8, 55, 0
5, 40128, Note_on_c, 8, 53, 77
5, 40320, Note_off_c, 8, 53, 0
5, 40320, Note_on_c, 8, 36, 77
5, 40320, Note_on_c, 8, 51, 77
5, 40512, Note_off_c, 8, 36, 0
5, 40512, Note_off_c, 8, 51, 0
5, 40512, Note_on_c, 8, 36, 77
5, 40704, Note_off_c, 8, 36, 0
5, 40704, Note_on_c, 8, 39, 77
5, 40896, Note_off_c, 8, 39, 0
5, 40896, Note_on_c, 8, 43, 77
5, 41088, Note_off_c, 8, 43, 0
5, 41088, Note_on_c, 8, 48, 77
5, 41472, Note_off_c, 8, 48, 0
5, 41472, Note_on_c, 8, 39, 50
5, 41856, Note_off_c, 8, 39, 0
5, 41856, Note_on_c, 8, 39, 50
5, 41856, Note_on_c, 8, 51, 50
5, 42240, Note_off_c, 8, 39, 0
5, 42240, Note_off_c, 8, 51, 0
5, 42240, Note_on_c, 8, 39, 50
5, 42624, Note_off_c, 8, 39, 0
5, 42624, Note_on_c, 8, 49, 50
5, 42816, Note_off_c, 8, 49, 0
5, 42816, Note_on_c, 8, 61, 50
5, 43008, Note_off_c, 8, 61, 0
5, 43008, Note_on_c, 8, 58, 50
5, 43200, Note_off_c, 8, 58, 0
5, 43200, Note_on_c, 8, 55, 50
5, 43392, Note_off_c, 8, 55, 0
5, 43392, Note_on_c, 8, 51, 50
5, 43584, Note_off_c, 8, 51, 0
5, 43584, Note_on_c, 8, 43, 50
5, 44160, Note_off_c, 8, 43, 0
5, 44160, Note_on_c, 8, 43, 50
5, 44544, Note_off_c, 8, 43, 0
5, 44544, Note_on_c, 8, 43, 50
5, 44928, Note_off_c, 8, 43, 0
5, 44928, Note_on_c, 8, 44, 50
5, 44928, Note_on_c, 8, 56, 50
5, 45312, Note_off_c, 8, 44, 0
5, 45312, Note_off_c, 8, 56, 0
5, 45312, Note_on_c, 8, 60, 50
5, 45504, Note_off_c, 8, 60, 0
5, 45504, Note_on_c, 8, 56, 50
5, 45696, Note_off_c, 8, 56, 0
5, 45696, Note_on_c, 8, 51, 50
5, 45888, Note_off_c, 8, 51, 0
5, 45888, Note_on_c, 8, 48, 50
5, 46080, Note_off_c, 8, 48, 0
5, 46080, Note_on_c, 8, 40, 50
5, 46272, Note_off_c, 8, 40, 0
5, 46272, Note_on_c, 8, 43, 50
5, 46464, Note_off_c, 8, 43, 0
5, 46464, Note_on_c, 8, 48, 63
5, 46656, Note_off_c, 8, 48, 0
5, 46656, Note_on_c, 8, 52, 63
5, 46848, Note_off_c, 8, 52, 0
5, 46848, Note_on_c, 8, 55, 63
5, 47040, Note_off_c, 8, 55, 0
5, 47040, Note_on_c, 8, 60, 63
5, 47232, Note_off_c, 8, 60, 0
5, 47232, Note_on_c, 8, 41, 63
5, 47232, Note_on_c, 8, 56, 63
5, 47424, Note_off_c, 8, 41, 0
5, 47424, Note_off_c, 8, 56, 0
5, 47424, Note_on_c, 8, 55, 63
5, 47616, Note_off_c, 8, 55, 0
5, 47616, Note_on_c, 8, 53, 63
5, 47808, Note_off_c, 8, 53, 0
5, 47808, Note_on_c, 8, 48, 63
5, 48000, Note_off_c, 8, 48, 0
5, 48000, Note_on_c, 8, 44, 63
5, 48000, Note_on_c, 8, 53, 63
5, 48192, Note_off_c, 8, 44, 0
5, 48192, Note_off_c, 8, 53, 0
5, 48192, Note_on_c, 8, 41, 63
5, 48384, Note_off_c, 8, 41, 0
5, 48384, Note_on_c, 8, 38, 63
5, 48384, Note_on_c, 8, 50, 63
5, 48768, Note_off_c, 8, 38, 0
5, 48768, Note_off_c, 8, 50, 0
5, 48768, Note_on_c, 8, 39, 63
5, 48768, Note_on_c, 8, 51, 63
5, 49152, Note_off_c, 8, 39, 0
5, 49152, Note_off_c, 8, 51, 0
5, 49152, Note_on_c, 8, 41, 63
5, 49152, Note_on_c, 8, 53, 63
5, 49536, Note_off_c, 8, 41, 0
5, 49536, Note_off_c, 8, 53, 0
5, 49536, Note_on_c, 8, 43, 63
5, 49536, Note_on_c, 8, 55, 63
5, 49920, Note_off_c, 8, 43, 0
5, 49920, Note_off_c, 8, 55, 0
5, 49920, Note_on_c, 8, 43, 37
5, 49920, Note_on_c, 8, 55, 37
5, 50304, Note_off_c, 8, 43, 0
5, 50304, Note_off_c, 8, 55, 0
5, 50304, Note_on_c, 8, 43, 37
5, 50304, Note_on_c, 8, 55, 37
5, 50688, Note_off_c, 8, 43, 0
5, 50688, Note_off_c, 8, 55, 0
5, 50688, Note_on_c, 8, 43, 37
5, 50688, Note_on_c, 8, 55, 37
5, 51072, Note_off_c, 8, 43, 0
5, 51072, Note_off_c, 8, 55, 0
5, 51072, Note_on_c, 8, 43, 37
5, 51072, Note_on_c, 8, 55, 37
5, 51456, Note_off_c, 8, 43, 0
5, 51456, Note_off_c, 8, 55, 0
5, 51456, Note_on_c, 8, 43, 37
5, 51456, Note_on_c, 8, 55, 37
5, 51840, Note_off_c, 8, 43, 0
5, 51840, Note_off_c, 8, 55, 0
5, 51840, Note_on_c, 8, 43, 37
5, 51840, Note_on_c, 8, 55, 37
5, 52416, Note_off_c, 8, 43, 0
5, 52416, Note_off_c, 8, 55, 0
5, 52416, Note_on_c, 8, 47, 77
5, 52416, Note_on_c, 8, 59, 77
5, 52608, Note_off_c, 8, 47, 0
5, 52608, Note_off_c, 8, 59, 0
5, 52608, Note_on_c, 8, 48, 77
5, 52608, Note_on_c, 8, 60, 77
5, 52800, Note_off_c, 8, 48, 0
5, 52800, Note_off_c, 8, 60, 0
5, 52800, Note_on_c, 8, 50, 77
5, 52800, Note_on_c, 8, 62, 77
5, 52992, Note_off_c, 8, 50, 0
5, 52992, Note_off_c, 8, 62, 0
5, 52992, Note_on_c, 8, 39, 77
5, 52992, Note_on_c, 8, 51, 77
5, 53568, Note_off_c, 8, 39, 0
5, 53568, Note_off_c, 8, 51, 0
5, 53568, Note_on_c, 8, 41, 77
5, 53568, Note_on_c, 8, 53, 77
5, 53760, Note_off_c, 8, 41, 0
5, 53760, Note_off_c, 8, 53, 0
5, 53760, Note_on_c, 8, 43, 77
5, 53760, Note_on_c, 8, 55, 77
5, 54144, Note_off_c, 8, 43, 0
5, 54144, Note_off_c, 8, 55, 0
5, 54144, Note_on_c, 8, 36, 77
5, 54144, Note_on_c, 8, 48, 77
5, 55296, Note_off_c, 8, 36, 0
5, 55296, Note_off_c, 8, 48, 0
5, 55488, Note_on_c, 8, 39, 63
5, 55872, Note_off_c, 8, 39, 0
5, 55872, Note_on_c, 8, 48, 63
5, 56256, Note_off_c, 8, 48, 0
5, 56256, Note_on_c, 8, 46, 63
5, 56832, Note_off_c, 8, 46, 0
5, 56832, Note_on_c, 8, 58, 63
5, 57024, Note_off_c, 8, 58, 0
5, 57024, Note_on_c, 8, 56, 63
5, 57216, Note_off_c, 8, 56, 0
5, 57216, Note_on_c, 8, 55, 63
5, 57408, Note_off_c, 8, 55, 0
5, 57408, Note_on_c, 8, 53, 63
5, 57600, Note_off_c, 8, 53, 0
5, 57600, Note_on_c, 8, 50, 63
5, 57792, Note_off_c, 8, 50, 0
5, 57792, Note_on_c, 8, 52, 63
5, 58176, Note_off_c, 8, 52, 0
5, 58176, Note_on_c, 8, 43, 63
5, 58560, Note_off_c, 8, 43, 0
5, 58560, Note_on_c, 8, 48, 63
5, 58944, Note_off_c, 8, 48, 0
5, 58944, Note_on_c, 8, 53, 63
5, 59328, Note_off_c, 8, 53, 0
5, 59328, Note_on_c, 8, 41, 63
5, 59712, Note_off_c, 8, 41, 0
5, 59712, Note_on_c, 8, 41, 63
5, 60096, Note_off_c, 8, 41, 0
5, 60096, Note_on_c, 8, 41, 63
5, 60480, Note_off_c, 8, 41, 0
5, 60480, Note_on_c, 8, 41, 63
5, 60864, Note_off_c, 8, 41, 0
5, 60864, Note_on_c, 8, 41, 63
5, 61248, Note_off_c, 8, 41, 0
5, 61248, Note_on_c, 8, 38, 63
5, 61632, Note_off_c, 8, 38, 0
5, 61632, Note_on_c, 8, 53, 63
5, 62016, Note_off_c, 8, 53, 0
5, 62016, Note_on_c, 8, 51, 63
5, 62400, Note_off_c, 8, 51, 0
5, 62400, Note_on_c, 8, 51, 63
5, 62592, Note_off_c, 8, 51, 0
5, 62592, Note_on_c, 8, 63, 63
5, 62784, Note_off_c, 8, 63, 0
5, 62784, Note_on_c, 8, 61, 63
5, 62976, Note_off_c, 8, 61, 0
5, 62976, Note_on_c, 8, 60, 63
5, 63168, Note_off_c, 8, 60, 0
5, 63168, Note_on_c, 8, 58, 63
5, 63360, Note_off_c, 8, 58, 0
5, 63360, Note_on_c, 8, 55, 63
5, 63552, Note_off_c, 8, 55, 0
5, 63552, Note_on_c, 8, 57, 63
5, 63936, Note_off_c, 8, 57, 0
5, 63936, Note_on_c, 8, 48, 63
5, 64320, Note_off_c, 8, 48, 0
5, 64320, Note_on_c, 8, 53, 63
5, 64704, Note_off_c, 8, 53, 0
5, 64704, Note_on_c, 8, 58, 63
5, 65088, Note_off_c, 8, 58, 0
5, 65088, Note_on_c, 8, 46, 63
5, 65472, Note_off_c, 8, 46, 0
5, 65472, Note_on_c, 8, 46, 37
5, 65856, Note_off_c, 8, 46, 0
5, 65856, Note_on_c, 8, 46, 37
5, 66240, Note_off_c, 8, 46, 0
5, 66240, Note_on_c, 8, 46, 37
5, 66624, Note_off_c, 8, 46, 0
5, 66624, Note_on_c, 8, 46, 37
5, 67008, Note_off_c, 8, 46, 0
5, 67008, Note_on_c, 8, 46, 37
5, 67200, Note_off_c, 8, 46, 0
5, 67200, Note_on_c, 8, 60, 37
5, 67392, Note_off_c, 8, 60, 0
5, 67392, Note_on_c, 8, 58, 37
5, 67584, Note_off_c, 8, 58, 0
5, 67584, Note_on_c, 8, 56, 37
5, 67776, Note_off_c, 8, 56, 0
5, 67776, Note_on_c, 8, 55, 37
5, 67968, Note_off_c, 8, 55, 0
5, 67968, Note_on_c, 8, 53, 37
5, 68160, Note_off_c, 8, 53, 0
5, 68160, Note_on_c, 8, 52, 63
5, 68544, Note_off_c, 8, 52, 0
5, 68544, Note_on_c, 8, 40, 63
5, 68928, Note_off_c, 8, 40, 0
5, 68928, Note_on_c, 8, 40, 63
5, 69312, Note_off_c, 8, 40, 0
5, 69312, Note_on_c, 8, 41, 63
5, 69504, Note_off_c, 8, 41, 0
5, 69504, Note_on_c, 8, 51, 63
5, 69696, Note_off_c, 8, 51, 0
5, 69696, Note_on_c, 8, 50, 63
5, 69888, Note_off_c, 8, 50, 0
5, 69888, Note_on_c, 8, 48, 63
5, 70080, Note_off_c, 8, 48, 0
5, 70080, Note_on_c, 8, 47, 63
5, 70272, Note_off_c, 8, 47, 0
5, 70272, Note_on_c, 8, 48, 63
5, 70464, Note_off_c, 8, 48, 0
5, 70464, Note_on_c, 8, 47, 63
5, 70656, Note_off_c, 8, 47, 0
5, 70656, Note_on_c, 8, 43, 63
5, 70848, Note_off_c, 8, 43, 0
5, 70848, Note_on_c, 8, 47, 63
5, 71040, Note_off_c, 8, 47, 0
5, 71040, Note_on_c, 8, 50, 63
5, 71232, Note_off_c, 8, 50, 0
5, 71232, Note_on_c, 8, 55, 63
5, 71424, Note_off_c, 8, 55, 0
5, 71424, Note_on_c, 8, 59, 63
5, 71616, Note_off_c, 8, 59, 0
5, 71616, Note_on_c, 8, 48, 77
5, 71616, Note_on_c, 8, 60, 77
5, 71808, Note_off_c, 8, 48, 0
5, 71808, Note_off_c, 8, 60, 0
5, 71808, Note_on_c, 8, 55, 77
5, 72000, Note_off_c, 8, 55, 0
5, 72000, Note_on_c, 8, 53, 77
5, 72384, Note_off_c, 8, 53, 0
5, 72384, Note_on_c, 8, 55, 77
5, 72768, Note_off_c, 8, 55, 0
5, 72768, Note_on_c, 8, 48, 77
5, 72960, Note_off_c, 8, 48, 0
5, 72960, Note_on_c, 8, 55, 77
5, 73152, Note_off_c, 8, 55, 0
5, 73152, Note_on_c, 8, 53, 77
5, 73536, Note_off_c, 8, 53, 0
5, 73536, Note_on_c, 8, 55, 77
5, 73920, Note_off_c, 8, 55, 0
5, 73920, Note_on_c, 8, 48, 77
5, 74112, Note_off_c, 8, 48, 0
5, 74112, Note_on_c, 8, 50, 77
5, 74304, Note_off_c, 8, 50, 0
5, 74304, Note_on_c, 8, 51, 77
5, 74688, Note_off_c, 8, 51, 0
5, 74688, Note_on_c, 8, 53, 77
5, 75072, Note_off_c, 8, 53, 0
5, 75072, Note_on_c, 8, 46, 77
5, 75264, Note_off_c, 8, 46, 0
5, 75264, Note_on_c, 8, 48, 77
5, 75456, Note_off_c, 8, 48, 0
5, 75456, Note_on_c, 8, 50, 77
5, 75840, Note_off_c, 8, 50, 0
5, 75840, Note_on_c, 8, 51, 77
5, 76224, Note_off_c, 8, 51, 0
5, 76224, Note_on_c, 8, 54, 77
5, 76416, Note_off_c, 8, 54, 0
5, 76416, Note_on_c, 8, 55, 77
5, 76608, Note_off_c, 8, 55, 0
5, 76608, Note_on_c, 8, 57, 77
5, 76800, Note_off_c, 8, 57, 0
5, 76800, Note_on_c, 8, 58, 77
5, 76992, Note_off_c, 8, 58, 0
5, 76992, Note_on_c, 8, 51, 77
5, 77184, Note_off_c, 8, 51, 0
5, 77184, Note_on_c, 8, 39, 77
5, 77376, Note_off_c, 8, 39, 0
5, 77376, Note_on_c, 8, 50, 77
5, 77760, Note_off_c, 8, 50, 0
5, 77760, Note_on_c, 8, 50, 37
5, 78144, Note_off_c, 8, 50, 0
5, 78144, Note_on_c, 8, 50, 37
5, 78528, Note_off_c, 8, 50, 0
5, 78528, Note_on_c, 8, 38, 37
5, 78912, Note_off_c, 8, 38, 0
5, 78912, Note_on_c, 8, 38, 37
5, 79296, Note_off_c, 8, 38, 0
5, 79296, Note_on_c, 8, 38, 37
5, 79680, Note_off_c, 8, 38, 0
5, 79680, Note_on_c, 8, 38, 37
5, 79872, Note_off_c, 8, 38, 0
5, 79872, Note_on_c, 8, 50, 37
5, 80064, Note_off_c, 8, 50, 0
5, 80064, Note_on_c, 8, 48, 37
5, 80256, Note_off_c, 8, 48, 0
5, 80256, Note_on_c, 8, 46, 77
5, 80448, Note_off_c, 8, 46, 0
5, 80448, Note_on_c, 8, 45, 77
5, 80640, Note_off_c, 8, 45, 0
5, 80640, Note_on_c, 8, 48, 77
5, 80832, Note_off_c, 8, 48, 0
5, 80832, Note_on_c, 8, 46, 77
5, 81024, Note_off_c, 8, 46, 0
5, 81024, Note_on_c, 8, 43, 77
5, 81216, Note_off_c, 8, 43, 0
5, 81216, Note_on_c, 8, 50, 77
5, 81600, Note_off_c, 8, 50, 0
5, 81600, Note_on_c, 8, 38, 77
5, 81984, Note_off_c, 8, 38, 0
5, 81984, Note_on_c, 8, 43, 63
5, 82176, Note_off_c, 8, 43, 0
5, 82176, Note_on_c, 8, 62, 63
5, 82368, Note_off_c, 8, 62, 0
5, 82368, Note_on_c, 8, 59, 63
5, 82560, Note_off_c, 8, 59, 0
5, 82560, Note_on_c, 8, 55, 63
5, 82752, Note_off_c, 8, 55, 0
5, 82752, Note_on_c, 8, 50, 63
5, 82944, Note_off_c, 8, 50, 0
5, 82944, Note_on_c, 8, 47, 63
5, 83136, Note_off_c, 8, 47, 0
5, 83136, Note_on_c, 8, 43, 63
5, 83520, Note_off_c, 8, 43, 0
5, 83520, Note_on_c, 8, 43, 63
5, 83904, Note_off_c, 8, 43, 0
5, 83904, Note_on_c, 8, 43, 63
5, 84288, Note_off_c, 8, 43, 0
5, 84288, Note_on_c, 8, 43, 63
5, 84480, Note_off_c, 8, 43, 0
5, 84480, Note_on_c, 8, 62, 63
5, 84672, Note_off_c, 8, 62, 0
5, 84672, Note_on_c, 8, 59, 63
5, 84864, Note_off_c, 8, 59, 0
5, 84864, Note_on_c, 8, 55, 63
5, 85056, Note_off_c, 8, 55, 0
5, 85056, Note_on_c, 8, 50, 63
5, 85248, Note_off_c, 8, 50, 0
5, 85248, Note_on_c, 8, 47, 63
5, 85440, Note_off_c, 8, 47, 0
5, 85440, Note_on_c, 8, 43, 63
5, 85824, Note_off_c, 8, 43, 0
5, 85824, Note_on_c, 8, 43, 63
5, 86208, Note_off_c, 8, 43, 0
5, 86208, Note_on_c, 8, 43, 63
5, 86592, Note_off_c, 8, 43, 0
5, 86592, Note_on_c, 8, 43, 63
5, 86784, Note_off_c, 8, 43, 0
5, 86784, Note_on_c, 8, 59, 63
5, 86976, Note_off_c, 8, 59, 0
5, 86976, Note_on_c, 8, 55, 63
5, 87168, Note_off_c, 8, 55, 0
5, 87168, Note_on_c, 8, 50, 63
5, 87360, Note_off_c, 8, 50, 0
5, 87360, Note_on_c, 8, 47, 63
5, 87552, Note_off_c, 8, 47, 0
5, 87552, Note_on_c, 8, 43, 63
5, 87744, Note_off_c, 8, 43, 0
5, 87744, Note_on_c, 8, 36, 63
5, 88128, Note_off_c, 8, 36, 0
5, 88128, Note_on_c, 8, 36, 63
5, 88512, Note_off_c, 8, 36, 0
5, 88512, Note_on_c, 8, 36, 63
5, 88896, Note_off_c, 8, 36, 0
5, 88896, Note_on_c, 8, 36, 63
5, 89280, Note_off_c, 8, 36, 0
5, 89280, Note_on_c, 8, 36, 63
5, 89664, Note_off_c, 8, 36, 0
5, 89664, Note_on_c, 8, 36, 63
5, 90048, Note_off_c, 8, 36, 0
5, 90048, Note_on_c, 8, 36, 63
5, 90432, Note_off_c, 8, 36, 0
5, 90432, Note_on_c, 8, 36, 63
5, 90816, Note_off_c, 8, 36, 0
5, 90816, Note_on_c, 8, 36, 63
5, 91200, Note_off_c, 8, 36, 0
5, 91200, Note_on_c, 8, 43, 77
5, 91392, Note_off_c, 8, 43, 0
5, 91392, Note_on_c, 8, 44, 77
5, 91584, Note_off_c, 8, 44, 0
5, 91584, Note_on_c, 8, 43, 77
5, 91776, Note_off_c, 8, 43, 0
5, 91776, Note_on_c, 8, 41, 77
5, 91968, Note_off_c, 8, 41, 0
5, 91968, Note_on_c, 8, 39, 77
5, 92160, Note_off_c, 8, 39, 0
5, 92160, Note_on_c, 8, 38, 77
5, 92352, Note_off_c, 8, 38, 0
5, 92352, Note_on_c, 8, 36, 63
5, 92352, Note_on_c, 8, 48, 63
5, 92736, Note_off_c, 8, 36, 0
5, 92736, Note_off_c, 8, 48, 0
5, 92736, Note_on_c, 8, 36, 63
5, 92736, Note_on_c, 8, 48, 63
5, 93120, Note_off_c, 8, 36, 0
5, 93120, Note_off_c, 8, 48, 0
5, 93120, Note_on_c, 8, 36, 63
5, 93120, Note_on_c, 8, 48, 63
5, 93504, Note_off_c, 8, 36, 0
5, 93504, Note_off_c, 8, 48, 0
5, 93504, Note_on_c, 8, 36, 63
5, 93504, Note_on_c, 8, 48, 63
5, 93696, Note_off_c, 8, 36, 0
5, 93696, Note_off_c, 8, 48, 0
5, 93696, Note_on_c, 8, 56, 63
5, 93888, Note_off_c, 8, 56, 0
5, 93888, Note_on_c, 8, 53, 63
5, 94080, Note_off_c, 8, 53, 0
5, 94080, Note_on_c, 8, 50, 63
5, 94272, Note_off_c, 8, 50, 0
5, 94272, Note_on_c, 8, 47, 63
5, 94464, Note_off_c, 8, 47, 0
5, 94464, Note_on_c, 8, 43, 63
5, 94656, Note_off_c, 8, 43, 0
5, 94656, Note_on_c, 8, 36, 63
5, 94656, Note_on_c, 8, 48, 63
5, 95040, Note_off_c, 8, 36, 0
5, 95040, Note_off_c, 8, 48, 0
5, 95040, Note_on_c, 8, 36, 63
5, 95040, Note_on_c, 8, 48, 63
5, 95424, Note_off_c, 8, 36, 0
5, 95424, Note_off_c, 8, 48, 0
5, 95424, Note_on_c, 8, 36, 63
5, 95424, Note_on_c, 8, 48, 63
5, 95808, Note_off_c, 8, 36, 0
5, 95808, Note_off_c, 8, 48, 0
5, 95808, Note_on_c, 8, 36, 63
5, 95808, Note_on_c, 8, 48, 63
5, 96000, Note_off_c, 8, 36, 0
5, 96000, Note_off_c, 8, 48, 0
5, 96000, Note_on_c, 8, 60, 63
5, 96192, Note_off_c, 8, 60, 0
5, 96192, Note_on_c, 8, 56, 63
5, 96384, Note_off_c, 8, 56, 0
5, 96384, Note_on_c, 8, 53, 63
5, 96576, Note_off_c, 8, 53, 0
5, 96576, Note_on_c, 8, 50, 63
5, 96768, Note_off_c, 8, 50, 0
5, 96768, Note_on_c, 8, 48, 63
5, 96960, Note_off_c, 8, 48, 0
5, 96960, Note_on_c, 8, 47, 63
5, 97152, Note_off_c, 8, 47, 0
5, 97152, Note_on_c, 8, 43, 63
5, 97344, Note_off_c, 8, 43, 0
5, 97344, Note_on_c, 8, 43, 63
5, 97344, Note_on_c, 8, 47, 63
5, 97536, Note_off_c, 8, 43, 0
5, 97536, Note_off_c, 8, 47, 0
5, 97536, Note_on_c, 8, 50, 63
5, 97728, Note_off_c, 8, 50, 0
5, 97728, Note_on_c, 8, 47, 63
5, 97728, Note_on_c, 8, 50, 63
5, 97920, Note_off_c, 8, 47, 0
5, 97920, Note_off_c, 8, 50, 0
5, 97920, Note_on_c, 8, 55, 63
5, 98112, Note_off_c, 8, 55, 0
5, 98112, Note_on_c, 8, 36, 63
5, 98496, Note_off_c, 8, 36, 0
5, 98496, Note_on_c, 8, 36, 63
5, 98880, Note_off_c, 8, 36, 0
5, 98880, Note_on_c, 8, 48, 63
5, 99264, Note_off_c, 8, 48, 0
5, 99264, Note_on_c, 8, 50, 63
5, 99648, Note_off_c, 8, 50, 0
5, 99648, Note_on_c, 8, 51, 63
5, 100032, Note_off_c, 8, 51, 0
5, 100032, Note_on_c, 8, 44, 63
5, 100416, Note_off_c, 8, 44, 0
5, 100416, Note_on_c, 8, 46, 63
5, 100800, Note_off_c, 8, 46, 0
5, 100800, Note_on_c, 8, 46, 63
5, 101184, Note_off_c, 8, 46, 0
5, 101184, Note_on_c, 8, 46, 50
5, 101568, Note_off_c, 8, 46, 0
5, 101568, Note_on_c, 8, 46, 50
5, 101952, Note_off_c, 8, 46, 0
5, 101952, Note_on_c, 8, 46, 50
5, 102336, Note_off_c, 8, 46, 0
5, 102336, Note_on_c, 8, 46, 50
5, 102720, Note_off_c, 8, 46, 0
5, 102720, Note_on_c, 8, 46, 50
5, 103296, Note_off_c, 8, 46, 0
5, 103296, Note_on_c, 8, 50, 77
5, 103488, Note_off_c, 8, 50, 0
5, 103488, Note_on_c, 8, 51, 77
5, 103680, Note_off_c, 8, 51, 0
5, 103680, Note_on_c, 8, 53, 77
5, 103872, Note_off_c, 8, 53, 0
5, 103872, Note_on_c, 8, 43, 77
5, 104448, Note_off_c, 8, 43, 0
5, 104448, Note_on_c, 8, 44, 77
5, 104640, Note_off_c, 8, 44, 0
5, 104640, Note_on_c, 8, 46, 77
5, 104832, Note_off_c, 8, 46, 0
5, 104832, Note_on_c, 8, 46, 77
5, 105024, Note_off_c, 8, 46, 0
5, 105024, Note_on_c, 8, 39, 77
5, 105216, Note_off_c, 8, 39, 0
5, 105216, Note_on_c, 8, 43, 77
5, 105408, Note_off_c, 8, 43, 0
5, 105408, Note_on_c, 8, 46, 77
5, 105600, Note_off_c, 8, 46, 0
5, 105600, Note_on_c, 8, 51, 77
5, 105792, Note_off_c, 8, 51, 0
5, 105792, Note_on_c, 8, 55, 77
5, 105984, Note_off_c, 8, 55, 0
5, 105984, Note_on_c, 8, 59, 77
5, 106176, Note_off_c, 8, 59, 0
5, 106176, Note_on_c, 8, 48, 63
5, 106560, Note_off_c, 8, 48, 0
5, 106560, Note_on_c, 8, 36, 63
5, 106944, Note_off_c, 8, 36, 0
5, 106944, Note_on_c, 8, 48, 63
5, 107328, Note_off_c, 8, 48, 0
5, 107328, Note_on_c, 8, 36, 63
5, 107520, Note_off_c, 8, 36, 0
5, 107520, Note_on_c, 8, 56, 63
5, 107712, Note_off_c, 8, 56, 0
5, 107712, Note_on_c, 8, 53, 63
5, 107904, Note_off_c, 8, 53, 0
5, 107904, Note_on_c, 8, 50, 63
5, 108096, Note_off_c, 8, 50, 0
5, 108096, Note_on_c, 8, 47, 63
5, 108288, Note_off_c, 8, 47, 0
5, 108288, Note_on_c, 8, 43, 63
5, 108480, Note_off_c, 8, 43, 0
5, 108480, Note_on_c, 8, 48, 63
5, 108864, Note_off_c, 8, 48, 0
5, 108864, Note_on_c, 8, 36, 63
5, 109248, Note_off_c, 8, 36, 0
5, 109248, Note_on_c, 8, 48, 63
5, 109632, Note_off_c, 8, 48, 0
5, 109632, Note_on_c, 8, 41, 63
5, 110016, Note_off_c, 8, 41, 0
5, 110016, Note_on_c, 8, 56, 63
5, 110208, Note_off_c, 8, 56, 0
5, 110208, Note_on_c, 8, 53, 63
5, 110400, Note_off_c, 8, 53, 0
5, 110400, Note_on_c, 8, 50, 63
5, 110592, Note_off_c, 8, 50, 0
5, 110592, Note_on_c, 8, 48, 63
5, 110784, Note_off_c, 8, 48, 0
5, 110784, Note_on_c, 8, 47, 63
5, 110976, Note_off_c, 8, 47, 0
5, 110976, Note_on_c, 8, 43, 63
5, 111168, Note_off_c, 8, 43, 0
5, 111168, Note_on_c, 8, 43, 63
5, 111168, Note_on_c, 8, 47, 63
5, 111360, Note_off_c, 8, 43, 0
5, 111360, Note_off_c, 8, 47, 0
5, 111360, Note_on_c, 8, 50, 63
5, 111552, Note_off_c, 8, 50, 0
5, 111552, Note_on_c, 8, 47, 63
5, 111552, Note_on_c, 8, 50, 63
5, 111744, Note_off_c, 8, 47, 0
5, 111744, Note_off_c, 8, 50, 0
5, 111744, Note_on_c, 8, 55, 63
5, 111936, Note_off_c, 8, 55, 0
5, 111936, Note_on_c, 8, 48, 63
5, 112320, Note_off_c, 8, 48, 0
5, 112320, Note_on_c, 8, 36, 63
5, 112704, Note_off_c, 8, 36, 0
5, 112704, Note_on_c, 8, 48, 63
5, 113088, Note_off_c, 8, 48, 0
5, 113088, Note_on_c, 8, 50, 63
5, 113472, Note_off_c, 8, 50, 0
5, 113472, Note_on_c, 8, 39, 63
5, 113856, Note_off_c, 8, 39, 0
5, 113856, Note_on_c, 8, 44, 63
5, 114240, Note_off_c, 8, 44, 0
5, 114240, Note_on_c, 8, 46, 63
5, 114624, Note_off_c, 8, 46, 0
5, 114624, Note_on_c, 8, 46, 63
5, 114816, Note_off_c, 8, 46, 0
5, 114816, Note_on_c, 8, 53, 50
5, 115008, Note_off_c, 8, 53, 0
5, 115008, Note_on_c, 8, 46, 50
5, 115008, Note_on_c, 8, 55, 50
5, 115200, Note_off_c, 8, 46, 0
5, 115200, Note_off_c, 8, 55, 0
5, 115200, Note_on_c, 8, 51, 50
5, 115392, Note_off_c, 8, 51, 0
5, 115392, Note_on_c, 8, 46, 50
5, 115392, Note_on_c, 8, 60, 50
5, 115584, Note_off_c, 8, 46, 0
5, 115584, Note_off_c, 8, 60, 0
5, 115584, Note_on_c, 8, 62, 50
5, 115776, Note_off_c, 8, 62, 0
5, 115776, Note_on_c, 8, 46, 50
5, 115968, Note_off_c, 8, 46, 0
5, 115968, Note_on_c, 8, 65, 50
5, 116160, Note_off_c, 8, 65, 0
5, 116160, Note_on_c, 8, 46, 50
5, 116352, Note_off_c, 8, 46, 0
5, 116352, Note_on_c, 8, 63, 50
5, 116544, Note_off_c, 8, 63, 0
5, 116544, Note_on_c, 8, 34, 50
5, 116544, Note_on_c, 8, 46, 50
5, 117120, Note_off_c, 8, 34, 0
5, 117120, Note_off_c, 8, 46, 0
5, 117120, Note_on_c, 8, 50, 77
5, 117312, Note_off_c, 8, 50, 0
5, 117312, Note_on_c, 8, 51, 77
5, 117504, Note_off_c, 8, 51, 0
5, 117504, Note_on_c, 8, 53, 77
5, 117696, Note_off_c, 8, 53, 0
5, 117696, Note_on_c, 8, 43, 77
5, 117696, Note_on_c, 8, 55, 77
5, 118272, Note_off_c, 8, 43, 0
5, 118272, Note_off_c, 8, 55, 0
5, 118272, Note_on_c, 8, 44, 77
5, 118272, Note_on_c, 8, 56, 77
5, 118464, Note_off_c, 8, 44, 0
5, 118464, Note_off_c, 8, 56, 0
5, 118464, Note_on_c, 8, 46, 77
5, 118464, Note_on_c, 8, 58, 77
5, 118848, Note_off_c, 8, 46, 0
5, 118848, Note_off_c, 8, 58, 0
5, 118848, Note_on_c, 8, 39, 63
5, 118848, Note_on_c, 8, 51, 63
5, 119040, Note_off_c, 8, 39, 0
5, 119040, Note_off_c, 8, 51, 0
5, 119040, Note_on_c, 8, 39, 63
5, 119040, Note_on_c, 8, 46, 63
5, 119232, Note_off_c, 8, 39, 0
5, 119232, Note_off_c, 8, 46, 0
5, 119232, Note_on_c, 8, 51, 63
5, 119424, Note_off_c, 8, 51, 0
5, 119424, Note_on_c, 8, 55, 63
5, 119616, Note_off_c, 8, 55, 0
5, 119616, Note_on_c, 8, 58, 63
5, 119808, Note_off_c, 8, 58, 0
5, 119808, Note_on_c, 8, 63, 63
5, 120000, Note_off_c, 8, 63, 0
5, 120000, Note_on_c, 8, 39, 63
5, 120000, Note_on_c, 8, 58, 63
5, 120384, Note_off_c, 8, 39, 0
5, 120384, Note_off_c, 8, 58, 0
5, 120384, Note_on_c, 8, 39, 63
5, 120384, Note_on_c, 8, 60, 63
5, 120768, Note_off_c, 8, 39, 0
5, 120768, Note_off_c, 8, 60, 0
5, 120768, Note_on_c, 8, 39, 63
5, 121152, Note_off_c, 8, 39, 0
5, 121152, Note_on_c, 8, 37, 63
5, 121344, Note_off_c, 8, 37, 0
5, 121344, Note_on_c, 8, 61, 63
5, 121536, Note_off_c, 8, 61, 0
5, 121536, Note_on_c, 8, 58, 63
5, 121728, Note_off_c, 8, 58, 0
5, 121728, Note_on_c, 8, 55, 63
5, 121920, Note_off_c, 8, 55, 0
5, 121920, Note_on_c, 8, 51, 63
5, 122112, Note_off_c, 8, 51, 0
5, 122112, Note_on_c, 8, 46, 63
5, 122304, Note_off_c, 8, 46, 0
5, 122304, Note_on_c, 8, 43, 63
5, 122688, Note_off_c, 8, 43, 0
5, 122688, Note_on_c, 8, 43, 63
5, 123072, Note_off_c, 8, 43, 0
5, 123072, Note_on_c, 8, 43, 63
5, 123456, Note_off_c, 8, 43, 0
5, 123456, Note_on_c, 8, 44, 63
5, 123840, Note_off_c, 8, 44, 0
5, 123840, Note_on_c, 8, 60, 63
5, 124032, Note_off_c, 8, 60, 0
5, 124032, Note_on_c, 8, 56, 63
5, 124224, Note_off_c, 8, 56, 0
5, 124224, Note_on_c, 8, 51, 63
5, 124416, Note_off_c, 8, 51, 0
5, 124416, Note_on_c, 8, 48, 63
5, 124608, Note_off_c, 8, 48, 0
5, 124608, Note_on_c, 8, 40, 77
5, 124800, Note_off_c, 8, 40, 0
5, 124800, Note_on_c, 8, 43, 77
5, 124992, Note_off_c, 8, 43, 0
5, 124992, Note_on_c, 8, 48, 77
5, 125184, Note_off_c, 8, 48, 0
5, 125184, Note_on_c, 8, 52, 77
5, 125376, Note_off_c, 8, 52, 0
5, 125376, Note_on_c, 8, 55, 77
5, 125568, Note_off_c, 8, 55, 0
5, 125568, Note_on_c, 8, 58, 77
5, 125760, Note_off_c, 8, 58, 0
5, 125760, Note_on_c, 8, 41, 77
5, 125760, Note_on_c, 8, 56, 77
5, 125952, Note_off_c, 8, 41, 0
5, 125952, Note_off_c, 8, 56, 0
5, 125952, Note_on_c, 8, 55, 77
5, 126144, Note_off_c, 8, 55, 0
5, 126144, Note_on_c, 8, 53, 77
5, 126336, Note_off_c, 8, 53, 0
5, 126336, Note_on_c, 8, 48, 77
5, 126528, Note_off_c, 8, 48, 0
5, 126528, Note_on_c, 8, 44, 77
5, 126528, Note_on_c, 8, 53, 77
5, 126720, Note_off_c, 8, 44, 0
5, 126720, Note_off_c, 8, 53, 0
5, 126720, Note_on_c, 8, 41, 77
5, 126912, Note_off_c, 8, 41, 0
5, 126912, Note_on_c, 8, 38, 77
5, 127296, Note_off_c, 8, 38, 0
5, 127296, Note_on_c, 8, 39, 77
5, 127680, Note_off_c, 8, 39, 0
5, 127680, Note_on_c, 8, 41, 77
5, 128064, Note_off_c, 8, 41, 0
5, 128064, Note_on_c, 8, 43, 77
5, 128064, Note_on_c, 8, 55, 77
5, 128448, Note_off_c, 8, 43, 0
5, 128448, Note_off_c, 8, 55, 0
5, 128448, Note_on_c, 8, 43, 37
5, 128832, Note_off_c, 8, 43, 0
5, 128832, Note_on_c, 8, 43, 37
5, 129216, Note_off_c, 8, 43, 0
5, 129216, Note_on_c, 8, 43, 37
5, 129216, Note_on_c, 8, 55, 37
5, 129600, Note_off_c, 8, 43, 0
5, 129600, Note_off_c, 8, 55, 0
5, 129600, Note_on_c, 8, 43, 37
5, 129984, Note_off_c, 8, 43, 0
5, 129984, Note_on_c, 8, 43, 37
5, 130368, Note_off_c, 8, 43, 0
5, 130368, Note_on_c, 8, 43, 37
5, 130944, Note_off_c, 8, 43, 0
5, 130944, Note_on_c, 8, 47, 77
5, 131136, Note_off_c, 8, 47, 0
5, 131136, Note_on_c, 8, 48, 77
5, 131328, Note_off_c, 8, 48, 0
5, 131328, Note_on_c, 8, 50, 77
5, 131520, Note_off_c, 8, 50, 0
5, 131520, Note_on_c, 8, 39, 77
5, 131904, Note_off_c, 8, 39, 0
5, 131904, Note_on_c, 8, 55, 77
5, 132096, Note_off_c, 8, 55, 0
5, 132096, Note_on_c, 8, 41, 77
5, 132096, Note_on_c, 8, 56, 77
5, 132288, Note_off_c, 8, 41, 0
5, 132288, Note_off_c, 8, 56, 0
5, 132288, Note_on_c, 8, 43, 77
5, 132288, Note_on_c, 8, 55, 77
5, 132480, Note_off_c, 8, 43, 0
5, 132480, Note_off_c, 8, 55, 0
5, 132480, Note_on_c, 8, 53, 77
5, 132672, Note_off_c, 8, 53, 0
5, 132672, Note_on_c, 8, 36, 77
5, 132672, Note_on_c, 8, 51, 77
5, 132864, Note_off_c, 8, 36, 0
5, 132864, Note_off_c, 8, 51, 0
5, 132864, Note_on_c, 8, 36, 77
5, 133056, Note_off_c, 8, 36, 0
5, 133056, Note_on_c, 8, 39, 77
5, 133248, Note_off_c, 8, 39, 0
5, 133248, Note_on_c, 8, 43, 77
5, 133440, Note_off_c, 8, 43, 0
5, 133440, Note_on_c, 8, 48, 77
5, 133824, Note_off_c, 8, 48, 0
5, 133824, Note_on_c, 8, 39, 50
5, 134208, Note_off_c, 8, 39, 0
5, 134208, Note_on_c, 8, 39, 50
5, 134208, Note_on_c, 8, 51, 50
5, 134592, Note_off_c, 8, 39, 0
5, 134592, Note_off_c, 8, 51, 0
5, 134592, Note_on_c, 8, 39, 50
5, 134976, Note_off_c, 8, 39, 0
5, 134976, Note_on_c, 8, 49, 50
5, 135168, Note_off_c, 8, 49, 0
5, 135168, Note_on_c, 8, 61, 50
5, 135360, Note_off_c, 8, 61, 0
5, 135360, Note_on_c, 8, 58, 50
5, 135552, Note_off_c, 8, 58, 0
5, 135552, Note_on_c, 8, 55, 50
5, 135744, Note_off_c, 8, 55, 0
5, 135744, Note_on_c, 8, 51, 50
5, 135936, Note_off_c, 8, 51, 0
5, 135936, Note_on_c, 8, 43, 50
5, 136512, Note_off_c, 8, 43, 0
5, 136512, Note_on_c, 8, 43, 50
5, 136896, Note_off_c, 8, 43, 0
5, 136896, Note_on_c, 8, 43, 50
5, 137280, Note_off_c, 8, 43, 0
5, 137280, Note_on_c, 8, 44, 50
5, 137280, Note_on_c, 8, 56, 50
5, 137664, Note_off_c, 8, 44, 0
5, 137664, Note_off_c, 8, 56, 0
5, 137664, Note_on_c, 8, 60, 50
5, 137856, Note_off_c, 8, 60, 0
5, 137856, Note_on_c, 8, 56, 50
5, 138048, Note_off_c, 8, 56, 0
5, 138048, Note_on_c, 8, 51, 50
5, 138240, Note_off_c, 8, 51, 0
5, 138240, Note_on_c, 8, 48, 50
5, 138432, Note_off_c, 8, 48, 0
5, 138432, Note_on_c, 8, 40, 50
5, 138624, Note_off_c, 8, 40, 0
5, 138624, Note_on_c, 8, 43, 50
5, 138816, Note_off_c, 8, 43, 0
5, 138816, Note_on_c, 8, 48, 63
5, 139008, Note_off_c, 8, 48, 0
5, 139008, Note_on_c, 8, 52, 63
5, 139200, Note_off_c, 8, 52, 0
5, 139200, Note_on_c, 8, 55, 63
5, 139392, Note_off_c, 8, 55, 0
5, 139392, Note_on_c, 8, 60, 63
5, 139584, Note_off_c, 8, 60, 0
5, 139584, Note_on_c, 8, 41, 63
5, 139584, Note_on_c, 8, 56, 63
5, 139776, Note_off_c, 8, 41, 0
5, 139776, Note_off_c, 8, 56, 0
5, 139776, Note_on_c, 8, 55, 63
5, 139968, Note_off_c, 8, 55, 0
5, 139968, Note_on_c, 8, 53, 63
5, 140160, Note_off_c, 8, 53, 0
5, 140160, Note_on_c, 8, 48, 63
5, 140352, Note_off_c, 8, 48, 0
5, 140352, Note_on_c, 8, 44, 63
5, 140352, Note_on_c, 8, 53, 63
5, 140544, Note_off_c, 8, 44, 0
5, 140544, Note_off_c, 8, 53, 0
5, 140544, Note_on_c, 8, 41, 63
5, 140736, Note_off_c, 8, 41, 0
5, 140736, Note_on_c, 8, 38, 63
5, 140736, Note_on_c, 8, 50, 63
5, 141120, Note_off_c, 8, 38, 0
5, 141120, Note_off_c, 8, 50, 0
5, 141120, Note_on_c, 8, 39, 63
5, 141120, Note_on_c, 8, 51, 63
5, 141504, Note_off_c, 8, 39, 0
5, 141504, Note_off_c, 8, 51, 0
5, 141504, Note_on_c, 8, 41, 63
5, 141504, Note_on_c, 8, 53, 63
5, 141888, Note_off_c, 8, 41, 0
5, 141888, Note_off_c, 8, 53, 0
5, 141888, Note_on_c, 8, 43, 63
5, 141888, Note_on_c, 8, 55, 63
5, 142272, Note_off_c, 8, 43, 0
5, 142272, Note_off_c, 8, 55, 0
5, 142272, Note_on_c, 8, 43, 37
5, 142272, Note_on_c, 8, 55, 37
5, 142656, Note_off_c, 8, 43, 0
5, 142656, Note_off_c, 8, 55, 0
5, 142656, Note_on_c, 8, 43, 37
5, 142656, Note_on_c, 8, 55, 37
5, 143040, Note_off_c, 8, 43, 0
5, 143040, Note_off_c, 8, 55, 0
5, 143040, Note_on_c, 8, 43, 37
5, 143040, Note_on_c, 8, 55, 37
5, 143424, Note_off_c, 8, 43, 0
5, 143424, Note_off_c, 8, 55, 0
5, 143424, Note_on_c, 8, 43, 37
5, 143424, Note_on_c, 8, 55, 37
5, 143808, Note_off_c, 8, 43, 0
5, 143808, Note_off_c, 8, 55, 0
5, 143808, Note_on_c, 8, 43, 37
5, 143808, Note_on_c, 8, 55, 37
5, 144192, Note_off_c, 8, 43, 0
5, 144192, Note_off_c, 8, 55, 0
5, 144192, Note_on_c, 8, 43, 37
5, 144192, Note_on_c, 8, 55, 37
5, 144768, Note_off_c, 8, 43, 0
5, 144768, Note_off_c, 8, 55, 0
5, 144768, Note_on_c, 8, 47, 77
5, 144768, Note_on_c, 8, 59, 77
5, 144960, Note_off_c, 8, 47, 0
5, 144960, Note_off_c, 8, 59, 0
5, 144960, Note_on_c, 8, 48, 77
5, 144960, Note_on_c, 8, 60, 77
5, 145152, Note_off_c, 8, 48, 0
5, 145152, Note_off_c, 8, 60, 0
5, 145152, Note_on_c, 8, 50, 77
5, 145152, Note_on_c, 8, 62, 77
5, 145344, Note_off_c, 8, 50, 0
5, 145344, Note_off_c, 8, 62, 0
5, 145344, Note_on_c, 8, 39, 77
5, 145344, Note_on_c, 8, 51, 77
5, 145920, Note_off_c, 8, 39, 0
5, 145920, Note_off_c, 8, 51, 0
5, 145920, Note_on_c, 8, 41, 77
5, 145920, Note_on_c, 8, 53, 77
5, 146112, Note_off_c, 8, 41, 0
5, 146112, Note_off_c, 8, 53, 0
5, 146112, Note_on_c, 8, 43, 77
5, 146112, Note_on_c, 8, 55, 77
5, 146496, Note_off_c, 8, 43, 0
5, 146496, Note_off_c, 8, 55, 0
5, 146496, Note_on_c, 8, 36, 77
5, 146496, Note_on_c, 8, 48, 77
5, 147648, Note_off_c, 8, 36, 0
5, 147648, Note_off_c, 8, 48, 0
5, 147648, End_track
6, 0, Start_track
6, 0, Title_t, "Violin I"
6, 0, Control_c, 2, 0, 0
6, 0, Program_c, 2, 48
6, 0, Control_c, 2, 10, 21
6, 0, Key_signature, -3, "major"
6, 0, Control_c, 2, 7, 127
6, 0, Note_on_c, 2, 75, 96
6, 192, Note_off_c, 2, 75, 0
6, 192, Note_on_c, 2, 77, 96
6, 288, Note_off_c, 2, 77, 0
6, 288, Note_on_c, 2, 79, 96
6, 384, Note_off_c, 2, 79, 0
6, 384, Note_on_c, 2, 77, 96
6, 576, Note_off_c, 2, 77, 0
6, 576, Note_on_c, 2, 75, 96
6, 768, Note_off_c, 2, 75, 0
6, 768, Note_on_c, 2, 74, 96
6, 960, Note_off_c, 2, 74, 0
6, 960, Note_on_c, 2, 72, 96
6, 1152, Note_off_c, 2, 72, 0
6, 1152, Note_on_c, 2, 71, 96
6, 2304, Note_off_c, 2, 71, 0
6, 2304, Note_on_c, 2, 70, 96
6, 2496, Note_off_c, 2, 70, 0
6, 2496, Note_on_c, 2, 72, 96
6, 2592, Note_off_c, 2, 72, 0
6, 2592, Note_on_c, 2, 73, 96
6, 2688, Note_off_c, 2, 73, 0
6, 2688, Note_on_c, 2, 73, 96
6, 2880, Note_off_c, 2, 73, 0
6, 2880, Note_on_c, 2, 72, 96
6, 3072, Note_off_c, 2, 72, 0
6, 3072, Note_on_c, 2, 72, 96
6, 3264, Note_off_c, 2, 72, 0
6, 3264, Note_on_c, 2, 70, 96
6, 3456, Note_off_c, 2, 70, 0
6, 3456, Note_on_c, 2, 70, 96
6, 3552, Note_off_c, 2, 70, 0
6, 3552, Note_on_c, 2, 68, 96
6, 3648, Note_off_c, 2, 68, 0
6, 3648, Note_on_c, 2, 67, 96
6, 3840, Note_off_c, 2, 67, 0
6, 3840, Note_on_c, 2, 68, 96
6, 4608, Note_off_c, 2, 68, 0
6, 4608, Note_on_c, 2, 67, 96
6, 4800, Note_off_c, 2, 67, 0
6, 4800, Note_on_c, 2, 67, 96
6, 4992, Note_off_c, 2, 67, 0
6, 4992, Note_on_c, 2, 77, 96
6, 5952, Note_off_c, 2, 77, 0
6, 5952, Note_on_c, 2, 74, 96
6, 6144, Note_off_c, 2, 74, 0
6, 6144, Note_on_c, 2, 75, 96
6, 6336, Note_off_c, 2, 75, 0
6, 6336, Note_on_c, 2, 72, 96
6, 6528, Note_off_c, 2, 72, 0
6, 6528, Note_on_c, 2, 70, 96
6, 6720, Note_off_c, 2, 70, 0
6, 6720, Note_on_c, 2, 68, 96
6, 7104, Note_off_c, 2, 68, 0
6, 7104, Note_on_c, 2, 65, 96
6, 7296, Note_off_c, 2, 65, 0
6, 7296, Note_on_c, 2, 67, 96
6, 7488, Note_off_c, 2, 67, 0
6, 7488, Note_on_c, 2, 72, 96
6, 7680, Note_off_c, 2, 72, 0
6, 7680, Note_on_c, 2, 70, 96
6, 7872, Note_off_c, 2, 70, 0
6, 7872, Note_on_c, 2, 68, 96
6, 8064, Note_off_c, 2, 68, 0
6, 8064, Note_on_c, 2, 67, 96
6, 8256, Note_off_c, 2, 67, 0
6, 8256, Note_on_c, 2, 65, 96
6, 8640, Note_off_c, 2, 65, 0
6, 8640, Control_c, 2, 10, 32
6, 8640, Note_on_c, 2, 74, 76
6, 8832, Note_off_c, 2, 74, 0
6, 8832, Note_on_c, 2, 75, 76
6, 9024, Note_off_c, 2, 75, 0
6, 9024, Note_on_c, 2, 72, 76
6, 9216, Note_off_c, 2, 72, 0
6, 9216, Note_on_c, 2, 69, 76
6, 9408, Note_off_c, 2, 69, 0
6, 9408, Note_on_c, 2, 70, 76
6, 9600, Note_off_c, 2, 70, 0
6, 9600, Note_on_c, 2, 70, 76
6, 9792, Note_off_c, 2, 70, 0
6, 9792, Control_c, 2, 10, 96
6, 9792, Note_on_c, 2, 74, 76
6, 9984, Note_off_c, 2, 74, 0
6, 9984, Note_on_c, 2, 75, 76
6, 10176, Note_off_c, 2, 75, 0
6, 10176, Note_on_c, 2, 72, 76
6, 10368, Note_off_c, 2, 72, 0
6, 10368, Note_on_c, 2, 69, 76
6, 10752, Note_off_c, 2, 69, 0
6, 10752, Note_on_c, 2, 70, 76
6, 10944, Note_off_c, 2, 70, 0
6, 10944, Control_c, 2, 10, 32
6, 10944, Note_on_c, 2, 80, 117
6, 11136, Note_off_c, 2, 80, 0
6, 11136, Note_on_c, 2, 79, 117
6, 11328, Note_off_c, 2, 79, 0
6, 11328, Note_on_c, 2, 77, 117
6, 11520, Note_off_c, 2, 77, 0
6, 11520, Note_on_c, 2, 74, 117
6, 11712, Note_off_c, 2, 74, 0
6, 11712, Note_on_c, 2, 75, 117
6, 11904, Note_off_c, 2, 75, 0
6, 11904, Note_on_c, 2, 70, 117
6, 12096, Note_off_c, 2, 70, 0
6, 12096, Note_on_c, 2, 68, 117
6, 12288, Note_off_c, 2, 68, 0
6, 12288, Note_on_c, 2, 67, 117
6, 12480, Note_off_c, 2, 67, 0
6, 12480, Note_on_c, 2, 65, 117
6, 12672, Note_off_c, 2, 65, 0
6, 12672, Note_on_c, 2, 63, 117
6, 13824, Note_off_c, 2, 63, 0
6, 13824, Note_on_c, 2, 75, 96
6, 14016, Note_off_c, 2, 75, 0
6, 14016, Note_on_c, 2, 77, 96
6, 14112, Note_off_c, 2, 77, 0
6, 14112, Note_on_c, 2, 79, 96
6, 14208, Note_off_c, 2, 79, 0
6, 14208, Note_on_c, 2, 77, 96
6, 14400, Note_off_c, 2, 77, 0
6, 14400, Note_on_c, 2, 75, 96
6, 14592, Note_off_c, 2, 75, 0
6, 14592, Note_on_c, 2, 74, 96
6, 14784, Note_off_c, 2, 74, 0
6, 14784, Note_on_c, 2, 72, 96
6, 14976, Note_off_c, 2, 72, 0
6, 14976, Note_on_c, 2, 71, 96
6, 15072, Note_off_c, 2, 71, 0
6, 15072, Note_on_c, 2, 69, 96
6, 15168, Note_off_c, 2, 69, 0
6, 15168, Note_on_c, 2, 71, 96
6, 16128, Note_off_c, 2, 71, 0
6, 16128, Note_on_c, 2, 70, 96
6, 16320, Note_off_c, 2, 70, 0
6, 16320, Note_on_c, 2, 72, 96
6, 16416, Note_off_c, 2, 72, 0
6, 16416, Note_on_c, 2, 73, 96
6, 16512, Note_off_c, 2, 73, 0
6, 16512, Note_on_c, 2, 73, 96
6, 16704, Note_off_c, 2, 73, 0
6, 16704, Note_on_c, 2, 72, 96
6, 16896, Note_off_c, 2, 72, 0
6, 16896, Note_on_c, 2, 72, 96
6, 17088, Note_off_c, 2, 72, 0
6, 17088, Note_on_c, 2, 70, 96
6, 17280, Note_off_c, 2, 70, 0
6, 17280, Note_on_c, 2, 70, 96
6, 17376, Note_off_c, 2, 70, 0
6, 17376, Note_on_c, 2, 68, 96
6, 17472, Note_off_c, 2, 68, 0
6, 17472, Note_on_c, 2, 67, 96
6, 17664, Note_off_c, 2, 67, 0
6, 17664, Note_on_c, 2, 68, 96
6, 18432, Note_off_c, 2, 68, 0
6, 18432, Note_on_c, 2, 67, 96
6, 18624, Note_off_c, 2, 67, 0
6, 18624, Note_on_c, 2, 67, 96
6, 18816, Note_off_c, 2, 67, 0
6, 18816, Note_on_c, 2, 77, 96
6, 19776, Note_off_c, 2, 77, 0
6, 19776, Note_on_c, 2, 74, 96
6, 19968, Note_off_c, 2, 74, 0
6, 19968, Note_on_c, 2, 75, 96
6, 20160, Note_off_c, 2, 75, 0
6, 20160, Note_on_c, 2, 72, 96
6, 20352, Note_off_c, 2, 72, 0
6, 20352, Note_on_c, 2, 70, 96
6, 20544, Note_off_c, 2, 70, 0
6, 20544, Note_on_c, 2, 68, 96
6, 20928, Note_off_c, 2, 68, 0
6, 20928, Note_on_c, 2, 65, 96
6, 21120, Note_off_c, 2, 65, 0
6, 21120, Note_on_c, 2, 67, 96
6, 21312, Note_off_c, 2, 67, 0
6, 21312, Note_on_c, 2, 72, 96
6, 21504, Note_off_c, 2, 72, 0
6, 21504, Note_on_c, 2, 70, 96
6, 21696, Note_off_c, 2, 70, 0
6, 21696, Note_on_c, 2, 68, 96
6, 21888, Note_off_c, 2, 68, 0
6, 21888, Note_on_c, 2, 67, 96
6, 22080, Note_off_c, 2, 67, 0
6, 22080, Note_on_c, 2, 65, 96
6, 22464, Note_off_c, 2, 65, 0
6, 22464, Note_on_c, 2, 74, 76
6, 22656, Note_off_c, 2, 74, 0
6, 22656, Note_on_c, 2, 75, 76
6, 22848, Note_off_c, 2, 75, 0
6, 22848, Note_on_c, 2, 72, 76
6, 23040, Note_off_c, 2, 72, 0
6, 23040, Note_on_c, 2, 69, 76
6, 23232, Note_off_c, 2, 69, 0
6, 23232, Note_on_c, 2, 70, 76
6, 23616, Note_off_c, 2, 70, 0
6, 23616, Note_on_c, 2, 74, 76
6, 23808, Note_off_c, 2, 74, 0
6, 23808, Note_on_c, 2, 75, 76
6, 24000, Note_off_c, 2, 75, 0
6, 24000, Note_on_c, 2, 72, 76
6, 24192, Note_off_c, 2, 72, 0
6, 24192, Note_on_c, 2, 69, 76
6, 24576, Note_off_c, 2, 69, 0
6, 24576, Note_on_c, 2, 70, 76
6, 24768, Note_off_c, 2, 70, 0
6, 24768, Note_on_c, 2, 80, 117
6, 24960, Note_off_c, 2, 80, 0
6, 24960, Note_on_c, 2, 79, 117
6, 25152, Note_off_c, 2, 79, 0
6, 25152, Note_on_c, 2, 77, 117
6, 25344, Note_off_c, 2, 77, 0
6, 25344, Note_on_c, 2, 74, 117
6, 25536, Note_off_c, 2, 74, 0
6, 25536, Note_on_c, 2, 75, 117
6, 25728, Note_off_c, 2, 75, 0
6, 25728, Note_on_c, 2, 70, 117
6, 25920, Note_off_c, 2, 70, 0
6, 25920, Note_on_c, 2, 68, 117
6, 26112, Note_off_c, 2, 68, 0
6, 26112, Note_on_c, 2, 67, 117
6, 26304, Note_off_c, 2, 67, 0
6, 26304, Note_on_c, 2, 65, 117
6, 26496, Note_off_c, 2, 65, 0
6, 26496, Note_on_c, 2, 63, 76
6, 27648, Note_off_c, 2, 63, 0
6, 27648, Note_on_c, 2, 67, 76
6, 28416, Note_off_c, 2, 67, 0
6, 28800, Note_on_c, 2, 70, 96
6, 29568, Note_off_c, 2, 70, 0
6, 29952, Note_on_c, 2, 73, 96
6, 30144, Note_off_c, 2, 73, 0
6, 30144, Note_on_c, 2, 75, 96
6, 30240, Note_off_c, 2, 75, 0
6, 30240, Note_on_c, 2, 77, 96
6, 30336, Note_off_c, 2, 77, 0
6, 30336, Note_on_c, 2, 77, 96
6, 30528, Note_off_c, 2, 77, 0
6, 30528, Note_on_c, 2, 75, 96
6, 30720, Note_off_c, 2, 75, 0
6, 30720, Note_on_c, 2, 75, 96
6, 30912, Note_off_c, 2, 75, 0
6, 30912, Note_on_c, 2, 73, 96
6, 31104, Note_off_c, 2, 73, 0
6, 31104, Note_on_c, 2, 73, 96
6, 31200, Note_off_c, 2, 73, 0
6, 31200, Note_on_c, 2, 72, 96
6, 31296, Note_off_c, 2, 72, 0
6, 31296, Note_on_c, 2, 70, 96
6, 31488, Note_off_c, 2, 70, 0
6, 31488, Note_on_c, 2, 72, 96
6, 32256, Note_off_c, 2, 72, 0
6, 32256, Note_on_c, 2, 70, 96
6, 32640, Note_off_c, 2, 70, 0
6, 32640, Note_on_c, 2, 79, 117
6, 33600, Note_off_c, 2, 79, 0
6, 33600, Note_on_c, 2, 70, 117
6, 33792, Note_off_c, 2, 70, 0
6, 33792, Note_on_c, 2, 68, 117
6, 33984, Note_off_c, 2, 68, 0
6, 33984, Note_on_c, 2, 67, 117
6, 34176, Note_off_c, 2, 67, 0
6, 34176, Note_on_c, 2, 68, 117
6, 34368, Note_off_c, 2, 68, 0
6, 34368, Note_on_c, 2, 72, 117
6, 34560, Note_off_c, 2, 72, 0
6, 34560, Note_on_c, 2, 77, 117
6, 34752, Note_off_c, 2, 77, 0
6, 34752, Note_on_c, 2, 75, 117
6, 34944, Note_off_c, 2, 75, 0
6, 34944, Note_on_c, 2, 74, 117
6, 35136, Note_off_c, 2, 74, 0
6, 35136, Note_on_c, 2, 72, 117
6, 35328, Note_off_c, 2, 72, 0
6, 35328, Note_on_c, 2, 71, 117
6, 35520, Note_off_c, 2, 71, 0
6, 35520, Note_on_c, 2, 72, 117
6, 35712, Note_off_c, 2, 72, 0
6, 35712, Note_on_c, 2, 68, 117
6, 35904, Note_off_c, 2, 68, 0
6, 35904, Note_on_c, 2, 67, 117
6, 36288, Note_off_c, 2, 67, 0
6, 36288, Note_on_c, 2, 71, 57
6, 36480, Note_off_c, 2, 71, 0
6, 36480, Note_on_c, 2, 72, 57
6, 36672, Note_off_c, 2, 72, 0
6, 36672, Note_on_c, 2, 68, 57
6, 36864, Note_off_c, 2, 68, 0
6, 36864, Note_on_c, 2, 66, 57
6, 37056, Note_off_c, 2, 66, 0
6, 37056, Note_on_c, 2, 67, 57
6, 37440, Note_off_c, 2, 67, 0
6, 37440, Note_on_c, 2, 71, 57
6, 37632, Note_off_c, 2, 71, 0
6, 37632, Note_on_c, 2, 72, 57
6, 37824, Note_off_c, 2, 72, 0
6, 37824, Note_on_c, 2, 68, 57
6, 38016, Note_off_c, 2, 68, 0
6, 38016, Note_on_c, 2, 66, 57
6, 38400, Note_off_c, 2, 66, 0
6, 38400, Note_on_c, 2, 67, 57
6, 38592, Note_off_c, 2, 67, 0
6, 38592, Note_on_c, 2, 77, 117
6, 38784, Note_off_c, 2, 77, 0
6, 38784, Note_on_c, 2, 75, 117
6, 38976, Note_off_c, 2, 75, 0
6, 38976, Note_on_c, 2, 74, 117
6, 39168, Note_off_c, 2, 74, 0
6, 39168, Note_on_c, 2, 71, 117
6, 39360, Note_off_c, 2, 71, 0
6, 39360, Note_on_c, 2, 72, 117
6, 39552, Note_off_c, 2, 72, 0
6, 39552, Note_on_c, 2, 67, 117
6, 39744, Note_off_c, 2, 67, 0
6, 39744, Note_on_c, 2, 65, 117
6, 39936, Note_off_c, 2, 65, 0
6, 39936, Note_on_c, 2, 63, 117
6, 40128, Note_off_c, 2, 63, 0
6, 40128, Note_on_c, 2, 62, 117
6, 40320, Note_off_c, 2, 62, 0
6, 40320, Note_on_c, 2, 71, 117
6, 40704, Note_off_c, 2, 71, 0
6, 40704, Note_on_c, 2, 72, 117
6, 41472, Note_off_c, 2, 72, 0
6, 41472, Note_on_c, 2, 67, 76
6, 41664, Note_off_c, 2, 67, 0
6, 41664, Note_on_c, 2, 68, 76
6, 41760, Note_off_c, 2, 68, 0
6, 41760, Note_on_c, 2, 70, 76
6, 41856, Note_off_c, 2, 70, 0
6, 41856, Note_on_c, 2, 68, 76
6, 42048, Note_off_c, 2, 68, 0
6, 42048, Note_on_c, 2, 67, 76
6, 42240, Note_off_c, 2, 67, 0
6, 42240, Note_on_c, 2, 65, 76
6, 42432, Note_off_c, 2, 65, 0
6, 42432, Note_on_c, 2, 63, 76
6, 42624, Note_off_c, 2, 63, 0
6, 42624, Note_on_c, 2, 70, 76
6, 43776, Note_off_c, 2, 70, 0
6, 43776, Note_on_c, 2, 73, 76
6, 43968, Note_off_c, 2, 73, 0
6, 43968, Note_on_c, 2, 75, 76
6, 44064, Note_off_c, 2, 75, 0
6, 44064, Note_on_c, 2, 77, 76
6, 44160, Note_off_c, 2, 77, 0
6, 44160, Note_on_c, 2, 77, 76
6, 44352, Note_off_c, 2, 77, 0
6, 44352, Note_on_c, 2, 75, 76
6, 44544, Note_off_c, 2, 75, 0
6, 44544, Note_on_c, 2, 75, 76
6, 44736, Note_off_c, 2, 75, 0
6, 44736, Note_on_c, 2, 73, 76
6, 44928, Note_off_c, 2, 73, 0
6, 44928, Note_on_c, 2, 73, 76
6, 45024, Note_off_c, 2, 73, 0
6, 45024, Note_on_c, 2, 72, 76
6, 45120, Note_off_c, 2, 72, 0
6, 45120, Note_on_c, 2, 70, 76
6, 45312, Note_off_c, 2, 70, 0
6, 45312, Note_on_c, 2, 72, 76
6, 46080, Note_off_c, 2, 72, 0
6, 46080, Note_on_c, 2, 70, 76
6, 46464, Note_off_c, 2, 70, 0
6, 46464, Note_on_c, 2, 79, 96
6, 47424, Note_off_c, 2, 79, 0
6, 47424, Note_on_c, 2, 70, 96
6, 47616, Note_off_c, 2, 70, 0
6, 47616, Note_on_c, 2, 68, 96
6, 47808, Note_off_c, 2, 68, 0
6, 47808, Note_on_c, 2, 67, 96
6, 48000, Note_off_c, 2, 67, 0
6, 48000, Note_on_c, 2, 68, 96
6, 48192, Note_off_c, 2, 68, 0
6, 48192, Note_on_c, 2, 72, 96
6, 48384, Note_off_c, 2, 72, 0
6, 48384, Note_on_c, 2, 77, 96
6, 48576, Note_off_c, 2, 77, 0
6, 48576, Note_on_c, 2, 75, 96
6, 48768, Note_off_c, 2, 75, 0
6, 48768, Note_on_c, 2, 74, 96
6, 48960, Note_off_c, 2, 74, 0
6, 48960, Note_on_c, 2, 72, 96
6, 49152, Note_off_c, 2, 72, 0
6, 49152, Note_on_c, 2, 71, 96
6, 49344, Note_off_c, 2, 71, 0
6, 49344, Note_on_c, 2, 72, 96
6, 49536, Note_off_c, 2, 72, 0
6, 49536, Note_on_c, 2, 68, 96
6, 49728, Note_off_c, 2, 68, 0
6, 49728, Note_on_c, 2, 67, 96
6, 50112, Note_off_c, 2, 67, 0
6, 50112, Note_on_c, 2, 71, 57
6, 50304, Note_off_c, 2, 71, 0
6, 50304, Note_on_c, 2, 72, 57
6, 50496, Note_off_c, 2, 72, 0
6, 50496, Note_on_c, 2, 68, 57
6, 50688, Note_off_c, 2, 68, 0
6, 50688, Note_on_c, 2, 66, 57
6, 50880, Note_off_c, 2, 66, 0
6, 50880, Note_on_c, 2, 67, 57
6, 51264, Note_off_c, 2, 67, 0
6, 51264, Note_on_c, 2, 71, 57
6, 51456, Note_off_c, 2, 71, 0
6, 51456, Note_on_c, 2, 72, 57
6, 51648, Note_off_c, 2, 72, 0
6, 51648, Note_on_c, 2, 68, 57
6, 51840, Note_off_c, 2, 68, 0
6, 51840, Note_on_c, 2, 66, 57
6, 52224, Note_off_c, 2, 66, 0
6, 52224, Note_on_c, 2, 67, 57
6, 52416, Note_off_c, 2, 67, 0
6, 52416, Note_on_c, 2, 77, 117
6, 52608, Note_off_c, 2, 77, 0
6, 52608, Note_on_c, 2, 75, 117
6, 52800, Note_off_c, 2, 75, 0
6, 52800, Note_on_c, 2, 74, 117
6, 52992, Note_off_c, 2, 74, 0
6, 52992, Note_on_c, 2, 71, 117
6, 53184, Note_off_c, 2, 71, 0
6, 53184, Note_on_c, 2, 72, 117
6, 53376, Note_off_c, 2, 72, 0
6, 53376, Note_on_c, 2, 67, 117
6, 53568, Note_off_c, 2, 67, 0
6, 53568, Note_on_c, 2, 65, 117
6, 53760, Note_off_c, 2, 65, 0
6, 53760, Note_on_c, 2, 63, 117
6, 53952, Note_off_c, 2, 63, 0
6, 53952, Note_on_c, 2, 62, 117
6, 54144, Note_off_c, 2, 62, 0
6, 54144, Note_on_c, 2, 71, 117
6, 54528, Note_off_c, 2, 71, 0
6, 54528, Note_on_c, 2, 72, 117
6, 55296, Note_off_c, 2, 72, 0
6, 55488, Note_on_c, 2, 67, 96
6, 55680, Note_off_c, 2, 67, 0
6, 55680, Note_on_c, 2, 68, 96
6, 56256, Note_off_c, 2, 68, 0
6, 56256, Note_on_c, 2, 67, 96
6, 56448, Note_off_c, 2, 67, 0
6, 56448, Note_on_c, 2, 70, 96
6, 56640, Note_off_c, 2, 70, 0
6, 56640, Note_on_c, 2, 64, 96
6, 57216, Note_off_c, 2, 64, 0
6, 57216, Note_on_c, 2, 67, 96
6, 57408, Note_off_c, 2, 67, 0
6, 57408, Note_on_c, 2, 70, 96
6, 57984, Note_off_c, 2, 70, 0
6, 57984, Note_on_c, 2, 72, 96
6, 58176, Note_off_c, 2, 72, 0
6, 58176, Note_on_c, 2, 73, 96
6, 58368, Note_off_c, 2, 73, 0
6, 58368, Note_on_c, 2, 72, 96
6, 58560, Note_off_c, 2, 72, 0
6, 58560, Note_on_c, 2, 72, 96
6, 58752, Note_off_c, 2, 72, 0
6, 58752, Note_on_c, 2, 70, 96
6, 58944, Note_off_c, 2, 70, 0
6, 58944, Note_on_c, 2, 70, 96
6, 59136, Note_off_c, 2, 70, 0
6, 59136, Note_on_c, 2, 68, 96
6, 59328, Note_off_c, 2, 68, 0
6, 59328, Note_on_c, 2, 68, 96
6, 59520, Note_off_c, 2, 68, 0
6, 59520, Note_on_c, 2, 68, 96
6, 59712, Note_off_c, 2, 68, 0
6, 59712, Note_on_c, 2, 70, 96
6, 59904, Note_off_c, 2, 70, 0
6, 59904, Note_on_c, 2, 67, 96
6, 60096, Note_off_c, 2, 67, 0
6, 60096, Note_on_c, 2, 64, 96
6, 60288, Note_off_c, 2, 64, 0
6, 60288, Note_on_c, 2, 65, 96
6, 60480, Note_off_c, 2, 65, 0
6, 60480, Note_on_c, 2, 67, 96
6, 60672, Note_off_c, 2, 67, 0
6, 60672, Note_on_c, 2, 68, 96
6, 60864, Note_off_c, 2, 68, 0
6, 60864, Note_on_c, 2, 70, 96
6, 61056, Note_off_c, 2, 70, 0
6, 61056, Note_on_c, 2, 67, 96
6, 61248, Note_off_c, 2, 67, 0
6, 61248, Note_on_c, 2, 64, 96
6, 61632, Note_off_c, 2, 64, 0
6, 61632, Note_on_c, 2, 72, 96
6, 62016, Note_off_c, 2, 72, 0
6, 62016, Note_on_c, 2, 73, 96
6, 62304, Note_off_c, 2, 73, 0
6, 62304, Note_on_c, 2, 75, 96
6, 62400, Note_off_c, 2, 75, 0
6, 62400, Note_on_c, 2, 69, 96
6, 62976, Note_off_c, 2, 69, 0
6, 62976, Note_on_c, 2, 72, 96
6, 63168, Note_off_c, 2, 72, 0
6, 63168, Note_on_c, 2, 75, 96
6, 63744, Note_off_c, 2, 75, 0
6, 63744, Note_on_c, 2, 77, 96
6, 63936, Note_off_c, 2, 77, 0
6, 63936, Note_on_c, 2, 78, 96
6, 64128, Note_off_c, 2, 78, 0
6, 64128, Note_on_c, 2, 77, 96
6, 64320, Note_off_c, 2, 77, 0
6, 64320, Note_on_c, 2, 77, 96
6, 64512, Note_off_c, 2, 77, 0
6, 64512, Note_on_c, 2, 75, 96
6, 64704, Note_off_c, 2, 75, 0
6, 64704, Note_on_c, 2, 75, 96
6, 64896, Note_off_c, 2, 75, 0
6, 64896, Note_on_c, 2, 73, 96
6, 65088, Note_off_c, 2, 73, 0
6, 65088, Note_on_c, 2, 73, 96
6, 65280, Note_off_c, 2, 73, 0
6, 65280, Note_on_c, 2, 73, 57
6, 65472, Note_off_c, 2, 73, 0
6, 65472, Note_on_c, 2, 75, 57
6, 65664, Note_off_c, 2, 75, 0
6, 65664, Note_on_c, 2, 72, 57
6, 65856, Note_off_c, 2, 72, 0
6, 65856, Note_on_c, 2, 69, 57
6, 66048, Note_off_c, 2, 69, 0
6, 66048, Note_on_c, 2, 70, 57
6, 66240, Note_off_c, 2, 70, 0
6, 66240, Note_on_c, 2, 72, 57
6, 66432, Note_off_c, 2, 72, 0
6, 66432, Note_on_c, 2, 73, 57
6, 66624, Note_off_c, 2, 73, 0
6, 66624, Note_on_c, 2, 75, 57
6, 66816, Note_off_c, 2, 75, 0
6, 66816, Note_on_c, 2, 72, 57
6, 67008, Note_off_c, 2, 72, 0
6, 67008, Note_on_c, 2, 69, 57
6, 67392, Note_off_c, 2, 69, 0
6, 67392, Note_on_c, 2, 70, 57
6, 67776, Note_off_c, 2, 70, 0
6, 67776, Note_on_c, 2, 73, 57
6, 68160, Note_off_c, 2, 73, 0
6, 68160, Note_on_c, 2, 73, 96
6, 68544, Note_off_c, 2, 73, 0
6, 68544, Note_on_c, 2, 72, 96
6, 68736, Note_off_c, 2, 72, 0
6, 68736, Note_on_c, 2, 70, 96
6, 68928, Note_off_c, 2, 70, 0
6, 68928, Note_on_c, 2, 70, 96
6, 69120, Note_off_c, 2, 70, 0
6, 69120, Note_on_c, 2, 68, 96
6, 69312, Note_off_c, 2, 68, 0
6, 69312, Note_on_c, 2, 68, 96
6, 69504, Note_off_c, 2, 68, 0
6, 69504, Note_on_c, 2, 72, 96
6, 69696, Note_off_c, 2, 72, 0
6, 69696, Note_on_c, 2, 77, 96
6, 70080, Note_off_c, 2, 77, 0
6, 70080, Note_on_c, 2, 77, 96
6, 70464, Note_off_c, 2, 77, 0
6, 70464, Note_on_c, 2, 77, 96
6, 71616, Note_off_c, 2, 77, 0
6, 71616, Note_on_c, 2, 75, 117
6, 71808, Note_off_c, 2, 75, 0
6, 71808, Note_on_c, 2, 74, 117
6, 72000, Note_off_c, 2, 74, 0
6, 72000, Note_on_c, 2, 77, 117
6, 72192, Note_off_c, 2, 77, 0
6, 72192, Note_on_c, 2, 75, 117
6, 72384, Note_off_c, 2, 75, 0
6, 72384, Note_on_c, 2, 75, 117
6, 72576, Note_off_c, 2, 75, 0
6, 72576, Note_on_c, 2, 74, 117
6, 72768, Note_off_c, 2, 74, 0
6, 72768, Note_on_c, 2, 75, 117
6, 72960, Note_off_c, 2, 75, 0
6, 72960, Note_on_c, 2, 74, 117
6, 73152, Note_off_c, 2, 74, 0
6, 73152, Note_on_c, 2, 77, 117
6, 73344, Note_off_c, 2, 77, 0
6, 73344, Note_on_c, 2, 75, 117
6, 73536, Note_off_c, 2, 75, 0
6, 73536, Note_on_c, 2, 75, 117
6, 73728, Note_off_c, 2, 75, 0
6, 73728, Note_on_c, 2, 74, 117
6, 73920, Note_off_c, 2, 74, 0
6, 73920, Note_on_c, 2, 75, 117
6, 74112, Note_off_c, 2, 75, 0
6, 74112, Note_on_c, 2, 74, 117
6, 74304, Note_off_c, 2, 74, 0
6, 74304, Note_on_c, 2, 74, 117
6, 74496, Note_off_c, 2, 74, 0
6, 74496, Note_on_c, 2, 72, 117
6, 74688, Note_off_c, 2, 72, 0
6, 74688, Note_on_c, 2, 72, 117
6, 74880, Note_off_c, 2, 72, 0
6, 74880, Note_on_c, 2, 74, 117
6, 74976, Note_off_c, 2, 74, 0
6, 74976, Note_on_c, 2, 75, 117
6, 75072, Note_off_c, 2, 75, 0
6, 75072, Note_on_c, 2, 74, 117
6, 75264, Note_off_c, 2, 74, 0
6, 75264, Note_on_c, 2, 72, 117
6, 75456, Note_off_c, 2, 72, 0
6, 75456, Note_on_c, 2, 72, 117
6, 75648, Note_off_c, 2, 72, 0
6, 75648, Note_on_c, 2, 70, 117
6, 75840, Note_off_c, 2, 70, 0
6, 75840, Note_on_c, 2, 70, 117
6, 76032, Note_off_c, 2, 70, 0
6, 76032, Note_on_c, 2, 72, 117
6, 76128, Note_off_c, 2, 72, 0
6, 76128, Note_on_c, 2, 74, 117
6, 76224, Note_off_c, 2, 74, 0
6, 76224, Note_on_c, 2, 72, 117
6, 76416, Note_off_c, 2, 72, 0
6, 76416, Note_on_c, 2, 70, 117
6, 76608, Note_off_c, 2, 70, 0
6, 76608, Note_on_c, 2, 68, 117
6, 76800, Note_off_c, 2, 68, 0
6, 76800, Note_on_c, 2, 67, 117
6, 76992, Note_off_c, 2, 67, 0
6, 76992, Note_on_c, 2, 66, 117
6, 77184, Note_off_c, 2, 66, 0
6, 77184, Note_on_c, 2, 67, 117
6, 77376, Note_off_c, 2, 67, 0
6, 77376, Note_on_c, 2, 62, 117
6, 77952, Note_off_c, 2, 62, 0
6, 77952, Note_on_c, 2, 78, 57
6, 78144, Note_off_c, 2, 78, 0
6, 78144, Note_on_c, 2, 79, 57
6, 78336, Note_off_c, 2, 79, 0
6, 78336, Note_on_c, 2, 75, 57
6, 78528, Note_off_c, 2, 75, 0
6, 78528, Note_on_c, 2, 73, 57
6, 78720, Note_off_c, 2, 73, 0
6, 78720, Note_on_c, 2, 74, 57
6, 78912, Note_off_c, 2, 74, 0
6, 78912, Note_on_c, 2, 76, 57
6, 79104, Note_off_c, 2, 76, 0
6, 79104, Note_on_c, 2, 78, 57
6, 79296, Note_off_c, 2, 78, 0
6, 79296, Note_on_c, 2, 79, 57
6, 79488, Note_off_c, 2, 79, 0
6, 79488, Note_on_c, 2, 75, 57
6, 79680, Note_off_c, 2, 75, 0
6, 79680, Note_on_c, 2, 73, 57
6, 80064, Note_off_c, 2, 73, 0
6, 80064, Note_on_c, 2, 74, 57
6, 80256, Note_off_c, 2, 74, 0
6, 80256, Note_on_c, 2, 72, 117
6, 80448, Note_off_c, 2, 72, 0
6, 80448, Note_on_c, 2, 75, 117
6, 80640, Note_off_c, 2, 75, 0
6, 80640, Note_on_c, 2, 74, 117
6, 80832, Note_off_c, 2, 74, 0
6, 80832, Note_on_c, 2, 74, 117
6, 81216, Note_off_c, 2, 74, 0
6, 81216, Note_on_c, 2, 72, 117
6, 81408, Note_off_c, 2, 72, 0
6, 81408, Note_on_c, 2, 70, 117
6, 81600, Note_off_c, 2, 70, 0
6, 81600, Note_on_c, 2, 69, 117
6, 81792, Note_off_c, 2, 69, 0
6, 81792, Note_on_c, 2, 67, 117
6, 81984, Note_off_c, 2, 67, 0
6, 81984, Note_on_c, 2, 67, 96
6, 83136, Note_off_c, 2, 67, 0
6, 83136, Note_on_c, 2, 74, 96
6, 83520, Note_off_c, 2, 74, 0
6, 83520, Note_on_c, 2, 75, 96
6, 83904, Note_off_c, 2, 75, 0
6, 83904, Note_on_c, 2, 77, 96
6, 84096, Note_off_c, 2, 77, 0
6, 84096, Note_on_c, 2, 74, 96
6, 84288, Note_off_c, 2, 74, 0
6, 84288, Note_on_c, 2, 71, 96
6, 85440, Note_off_c, 2, 71, 0
6, 85440, Note_on_c, 2, 77, 96
6, 85824, Note_off_c, 2, 77, 0
6, 85824, Note_on_c, 2, 79, 96
6, 86208, Note_off_c, 2, 79, 0
6, 86208, Note_on_c, 2, 80, 96
6, 86976, Note_off_c, 2, 80, 0
6, 86976, Note_on_c, 2, 79, 96
6, 87168, Note_off_c, 2, 79, 0
6, 87168, Note_on_c, 2, 77, 96
6, 87360, Note_off_c, 2, 77, 0
6, 87360, Note_on_c, 2, 77, 96
6, 87552, Note_off_c, 2, 77, 0
6, 87552, Note_on_c, 2, 75, 96
6, 87744, Note_off_c, 2, 75, 0
6, 87744, Note_on_c, 2, 75, 96
6, 87936, Note_off_c, 2, 75, 0
6, 87936, Note_on_c, 2, 73, 96
6, 88128, Note_off_c, 2, 73, 0
6, 88128, Note_on_c, 2, 73, 96
6, 88320, Note_off_c, 2, 73, 0
6, 88320, Note_on_c, 2, 72, 96
6, 88512, Note_off_c, 2, 72, 0
6, 88512, Note_on_c, 2, 72, 96
6, 89088, Note_off_c, 2, 72, 0
6, 89088, Note_on_c, 2, 70, 96
6, 89280, Note_off_c, 2, 70, 0
6, 89280, Note_on_c, 2, 70, 96
6, 89472, Note_off_c, 2, 70, 0
6, 89472, Note_on_c, 2, 68, 96
6, 89664, Note_off_c, 2, 68, 0
6, 89664, Note_on_c, 2, 68, 96
6, 90240, Note_off_c, 2, 68, 0
6, 90240, Note_on_c, 2, 67, 96
6, 90432, Note_off_c, 2, 67, 0
6, 90432, Note_on_c, 2, 67, 96
6, 90624, Note_off_c, 2, 67, 0
6, 90624, Note_on_c, 2, 66, 96
6, 90816, Note_off_c, 2, 66, 0
6, 90816, Note_on_c, 2, 66, 96
6, 91008, Note_off_c, 2, 66, 0
6, 91008, Note_on_c, 2, 67, 96
6, 91200, Note_off_c, 2, 67, 0
6, 91200, Note_on_c, 2, 67, 96
6, 92352, Note_off_c, 2, 67, 0
6, 92352, Note_on_c, 2, 75, 96
6, 92544, Note_off_c, 2, 75, 0
6, 92544, Note_on_c, 2, 77, 96
6, 92640, Note_off_c, 2, 77, 0
6, 92640, Note_on_c, 2, 79, 96
6, 92736, Note_off_c, 2, 79, 0
6, 92736, Note_on_c, 2, 77, 96
6, 92928, Note_off_c, 2, 77, 0
6, 92928, Note_on_c, 2, 75, 96
6, 93120, Note_off_c, 2, 75, 0
6, 93120, Note_on_c, 2, 74, 96
6, 93312, Note_off_c, 2, 74, 0
6, 93312, Note_on_c, 2, 72, 96
6, 93504, Note_off_c, 2, 72, 0
6, 93504, Note_on_c, 2, 71, 96
6, 94656, Note_off_c, 2, 71, 0
6, 94656, Note_on_c, 2, 70, 96
6, 94848, Note_off_c, 2, 70, 0
6, 94848, Note_on_c, 2, 72, 96
6, 94944, Note_off_c, 2, 72, 0
6, 94944, Note_on_c, 2, 73, 96
6, 95040, Note_off_c, 2, 73, 0
6, 95040, Note_on_c, 2, 73, 96
6, 95232, Note_off_c, 2, 73, 0
6, 95232, Note_on_c, 2, 72, 96
6, 95424, Note_off_c, 2, 72, 0
6, 95424, Note_on_c, 2, 72, 96
6, 95616, Note_off_c, 2, 72, 0
6, 95616, Note_on_c, 2, 70, 96
6, 95808, Note_off_c, 2, 70, 0
6, 95808, Note_on_c, 2, 70, 96
6, 95904, Note_off_c, 2, 70, 0
6, 95904, Note_on_c, 2, 68, 96
6, 96000, Note_off_c, 2, 68, 0
6, 96000, Note_on_c, 2, 67, 96
6, 96192, Note_off_c, 2, 67, 0
6, 96192, Note_on_c, 2, 68, 96
6, 96960, Note_off_c, 2, 68, 0
6, 96960, Note_on_c, 2, 67, 96
6, 97152, Note_off_c, 2, 67, 0
6, 97152, Note_on_c, 2, 67, 96
6, 97344, Note_off_c, 2, 67, 0
6, 97344, Note_on_c, 2, 77, 96
6, 98304, Note_off_c, 2, 77, 0
6, 98304, Note_on_c, 2, 74, 96
6, 98496, Note_off_c, 2, 74, 0
6, 98496, Note_on_c, 2, 75, 96
6, 98688, Note_off_c, 2, 75, 0
6, 98688, Note_on_c, 2, 72, 96
6, 98880, Note_off_c, 2, 72, 0
6, 98880, Note_on_c, 2, 70, 96
6, 99072, Note_off_c, 2, 70, 0
6, 99072, Note_on_c, 2, 68, 96
6, 99456, Note_off_c, 2, 68, 0
6, 99456, Note_on_c, 2, 65, 96
6, 99648, Note_off_c, 2, 65, 0
6, 99648, Note_on_c, 2, 67, 96
6, 99840, Note_off_c, 2, 67, 0
6, 99840, Note_on_c, 2, 72, 96
6, 100032, Note_off_c, 2, 72, 0
6, 100032, Note_on_c, 2, 70, 96
6, 100224, Note_off_c, 2, 70, 0
6, 100224, Note_on_c, 2, 68, 96
6, 100416, Note_off_c, 2, 68, 0
6, 100416, Note_on_c, 2, 67, 96
6, 100608, Note_off_c, 2, 67, 0
6, 100608, Note_on_c, 2, 65, 96
6, 100992, Note_off_c, 2, 65, 0
6, 100992, Control_c, 2, 10, 32
6, 100992, Note_on_c, 2, 74, 76
6, 101184, Note_off_c, 2, 74, 0
6, 101184, Note_on_c, 2, 75, 76
6, 101376, Note_off_c, 2, 75, 0
6, 101376, Note_on_c, 2, 72, 76
6, 101568, Note_off_c, 2, 72, 0
6, 101568, Note_on_c, 2, 69, 76
6, 101760, Note_off_c, 2, 69, 0
6, 101760, Note_on_c, 2, 70, 76
6, 101952, Note_off_c, 2, 70, 0
6, 101952, Note_on_c, 2, 70, 76
6, 102144, Note_off_c, 2, 70, 0
6, 102144, Control_c, 2, 10, 96
6, 102144, Note_on_c, 2, 74, 76
6, 102336, Note_off_c, 2, 74, 0
6, 102336, Note_on_c, 2, 75, 76
6, 102528, Note_off_c, 2, 75, 0
6, 102528, Note_on_c, 2, 72, 76
6, 102720, Note_off_c, 2, 72, 0
6, 102720, Note_on_c, 2, 69, 76
6, 103104, Note_off_c, 2, 69, 0
6, 103104, Note_on_c, 2, 70, 76
6, 103296, Note_off_c, 2, 70, 0
6, 103296, Control_c, 2, 10, 32
6, 103296, Note_on_c, 2, 80, 117
6, 103488, Note_off_c, 2, 80, 0
6, 103488, Note_on_c, 2, 79, 117
6, 103680, Note_off_c, 2, 79, 0
6, 103680, Note_on_c, 2, 77, 117
6, 103872, Note_off_c, 2, 77, 0
6, 103872, Note_on_c, 2, 74, 117
6, 104064, Note_off_c, 2, 74, 0
6, 104064, Note_on_c, 2, 75, 117
6, 104256, Note_off_c, 2, 75, 0
6, 104256, Note_on_c, 2, 70, 117
6, 104448, Note_off_c, 2, 70, 0
6, 104448, Note_on_c, 2, 68, 117
6, 104640, Note_off_c, 2, 68, 0
6, 104640, Note_on_c, 2, 67, 117
6, 104832, Note_off_c, 2, 67, 0
6, 104832, Note_on_c, 2, 65, 117
6, 105024, Note_off_c, 2, 65, 0
6, 105024, Note_on_c, 2, 63, 117
6, 106176, Note_off_c, 2, 63, 0
6, 106176, Note_on_c, 2, 75, 96
6, 106368, Note_off_c, 2, 75, 0
6, 106368, Note_on_c, 2, 77, 96
6, 106464, Note_off_c, 2, 77, 0
6, 106464, Note_on_c, 2, 79, 96
6, 106560, Note_off_c, 2, 79, 0
6, 106560, Note_on_c, 2, 77, 96
6, 106752, Note_off_c, 2, 77, 0
6, 106752, Note_on_c, 2, 75, 96
6, 106944, Note_off_c, 2, 75, 0
6, 106944, Note_on_c, 2, 74, 96
6, 107136, Note_off_c, 2, 74, 0
6, 107136, Note_on_c, 2, 72, 96
6, 107328, Note_off_c, 2, 72, 0
6, 107328, Note_on_c, 2, 71, 96
6, 107424, Note_off_c, 2, 71, 0
6, 107424, Note_on_c, 2, 69, 96
6, 107520, Note_off_c, 2, 69, 0
6, 107520, Note_on_c, 2, 71, 96
6, 108480, Note_off_c, 2, 71, 0
6, 108480, Note_on_c, 2, 70, 96
6, 108672, Note_off_c, 2, 70, 0
6, 108672, Note_on_c, 2, 72, 96
6, 108768, Note_off_c, 2, 72, 0
6, 108768, Note_on_c, 2, 73, 96
6, 108864, Note_off_c, 2, 73, 0
6, 108864, Note_on_c, 2, 73, 96
6, 109056, Note_off_c, 2, 73, 0
6, 109056, Note_on_c, 2, 72, 96
6, 109248, Note_off_c, 2, 72, 0
6, 109248, Note_on_c, 2, 72, 96
6, 109440, Note_off_c, 2, 72, 0
6, 109440, Note_on_c, 2, 70, 96
6, 109632, Note_off_c, 2, 70, 0
6, 109632, Note_on_c, 2, 70, 96
6, 109728, Note_off_c, 2, 70, 0
6, 109728, Note_on_c, 2, 68, 96
6, 109824, Note_off_c, 2, 68, 0
6, 109824, Note_on_c, 2, 67, 96
6, 110016, Note_off_c, 2, 67, 0
6, 110016, Note_on_c, 2, 68, 96
6, 110784, Note_off_c, 2, 68, 0
6, 110784, Note_on_c, 2, 67, 96
6, 110976, Note_off_c, 2, 67, 0
6, 110976, Note_on_c, 2, 67, 96
6, 111168, Note_off_c, 2, 67, 0
6, 111168, Note_on_c, 2, 77, 96
6, 112128, Note_off_c, 2, 77, 0
6, 112128, Note_on_c, 2, 74, 96
6, 112320, Note_off_c, 2, 74, 0
6, 112320, Note_on_c, 2, 75, 96
6, 112512, Note_off_c, 2, 75, 0
6, 112512, Note_on_c, 2, 72, 96
6, 112704, Note_off_c, 2, 72, 0
6, 112704, Note_on_c, 2, 70, 96
6, 112896, Note_off_c, 2, 70, 0
6, 112896, Note_on_c, 2, 68, 96
6, 113280, Note_off_c, 2, 68, 0
6, 113280, Note_on_c, 2, 65, 96
6, 113472, Note_off_c, 2, 65, 0
6, 113472, Note_on_c, 2, 67, 96
6, 113664, Note_off_c, 2, 67, 0
6, 113664, Note_on_c, 2, 72, 96
6, 113856, Note_off_c, 2, 72, 0
6, 113856, Note_on_c, 2, 70, 96
6, 114048, Note_off_c, 2, 70, 0
6, 114048, Note_on_c, 2, 68, 96
6, 114240, Note_off_c, 2, 68, 0
6, 114240, Note_on_c, 2, 67, 96
6, 114432, Note_off_c, 2, 67, 0
6, 114432, Note_on_c, 2, 65, 96
6, 114816, Note_off_c, 2, 65, 0
6, 114816, Note_on_c, 2, 74, 76
6, 115008, Note_off_c, 2, 74, 0
6, 115008, Note_on_c, 2, 75, 76
6, 115200, Note_off_c, 2, 75, 0
6, 115200, Note_on_c, 2, 72, 76
6, 115392, Note_off_c, 2, 72, 0
6, 115392, Note_on_c, 2, 69, 76
6, 115584, Note_off_c, 2, 69, 0
6, 115584, Note_on_c, 2, 70, 76
6, 115968, Note_off_c, 2, 70, 0
6, 115968, Note_on_c, 2, 74, 76
6, 116160, Note_off_c, 2, 74, 0
6, 116160, Note_on_c, 2, 75, 76
6, 116352, Note_off_c, 2, 75, 0
6, 116352, Note_on_c, 2, 72, 76
6, 116544, Note_off_c, 2, 72, 0
6, 116544, Note_on_c, 2, 69, 76
6, 116928, Note_off_c, 2, 69, 0
6, 116928, Note_on_c, 2, 70, 76
6, 117120, Note_off_c, 2, 70, 0
6, 117120, Note_on_c, 2, 80, 117
6, 117312, Note_off_c, 2, 80, 0
6, 117312, Note_on_c, 2, 79, 117
6, 117504, Note_off_c, 2, 79, 0
6, 117504, Note_on_c, 2, 77, 117
6, 117696, Note_off_c, 2, 77, 0
6, 117696, Note_on_c, 2, 74, 117
6, 117888, Note_off_c, 2, 74, 0
6, 117888, Note_on_c, 2, 75, 117
6, 118080, Note_off_c, 2, 75, 0
6, 118080, Note_on_c, 2, 70, 117
6, 118272, Note_off_c, 2, 70, 0
6, 118272, Note_on_c, 2, 68, 117
6, 118464, Note_off_c, 2, 68, 0
6, 118464, Note_on_c, 2, 67, 117
6, 118656, Note_off_c, 2, 67, 0
6, 118656, Note_on_c, 2, 65, 117
6, 118848, Note_off_c, 2, 65, 0
6, 118848, Note_on_c, 2, 63, 76
6, 120000, Note_off_c, 2, 63, 0
6, 120000, Note_on_c, 2, 67, 76
6, 120768, Note_off_c, 2, 67, 0
6, 121152, Note_on_c, 2, 70, 96
6, 121920, Note_off_c, 2, 70, 0
6, 122304, Note_on_c, 2, 73, 96
6, 122496, Note_off_c, 2, 73, 0
6, 122496, Note_on_c, 2, 75, 96
6, 122592, Note_off_c, 2, 75, 0
6, 122592, Note_on_c, 2, 77, 96
6, 122688, Note_off_c, 2, 77, 0
6, 122688, Note_on_c, 2, 77, 96
6, 122880, Note_off_c, 2, 77, 0
6, 122880, Note_on_c, 2, 75, 96
6, 123072, Note_off_c, 2, 75, 0
6, 123072, Note_on_c, 2, 75, 96
6, 123264, Note_off_c, 2, 75, 0
6, 123264, Note_on_c, 2, 73, 96
6, 123456, Note_off_c, 2, 73, 0
6, 123456, Note_on_c, 2, 73, 96
6, 123552, Note_off_c, 2, 73, 0
6, 123552, Note_on_c, 2, 72, 96
6, 123648, Note_off_c, 2, 72, 0
6, 123648, Note_on_c, 2, 70, 96
6, 123840, Note_off_c, 2, 70, 0
6, 123840, Note_on_c, 2, 72, 96
6, 124608, Note_off_c, 2, 72, 0
6, 124608, Note_on_c, 2, 70, 96
6, 124992, Note_off_c, 2, 70, 0
6, 124992, Note_on_c, 2, 79, 117
6, 125952, Note_off_c, 2, 79, 0
6, 125952, Note_on_c, 2, 70, 117
6, 126144, Note_off_c, 2, 70, 0
6, 126144, Note_on_c, 2, 68, 117
6, 126336, Note_off_c, 2, 68, 0
6, 126336, Note_on_c, 2, 67, 117
6, 126528, Note_off_c, 2, 67, 0
6, 126528, Note_on_c, 2, 68, 117
6, 126720, Note_off_c, 2, 68, 0
6, 126720, Note_on_c, 2, 72, 117
6, 126912, Note_off_c, 2, 72, 0
6, 126912, Note_on_c, 2, 77, 117
6, 127104, Note_off_c, 2, 77, 0
6, 127104, Note_on_c, 2, 75, 117
6, 127296, Note_off_c, 2, 75, 0
6, 127296, Note_on_c, 2, 74, 117
6, 127488, Note_off_c, 2, 74, 0
6, 127488, Note_on_c, 2, 72, 117
6, 127680, Note_off_c, 2, 72, 0
6, 127680, Note_on_c, 2, 71, 117
6, 127872, Note_off_c, 2, 71, 0
6, 127872, Note_on_c, 2, 72, 117
6, 128064, Note_off_c, 2, 72, 0
6, 128064, Note_on_c, 2, 68, 117
6, 128256, Note_off_c, 2, 68, 0
6, 128256, Note_on_c, 2, 67, 117
6, 128640, Note_off_c, 2, 67, 0
6, 128640, Note_on_c, 2, 71, 57
6, 128832, Note_off_c, 2, 71, 0
6, 128832, Note_on_c, 2, 72, 57
6, 129024, Note_off_c, 2, 72, 0
6, 129024, Note_on_c, 2, 68, 57
6, 129216, Note_off_c, 2, 68, 0
6, 129216, Note_on_c, 2, 66, 57
6, 129408, Note_off_c, 2, 66, 0
6, 129408, Note_on_c, 2, 67, 57
6, 129792, Note_off_c, 2, 67, 0
6, 129792, Note_on_c, 2, 71, 57
6, 129984, Note_off_c, 2, 71, 0
6, 129984, Note_on_c, 2, 72, 57
6, 130176, Note_off_c, 2, 72, 0
6, 130176, Note_on_c, 2, 68, 57
6, 130368, Note_off_c, 2, 68, 0
6, 130368, Note_on_c, 2, 66, 57
6, 130752, Note_off_c, 2, 66, 0
6, 130752, Note_on_c, 2, 67, 57
6, 130944, Note_off_c, 2, 67, 0
6, 130944, Note_on_c, 2, 77, 117
6, 131136, Note_off_c, 2, 77, 0
6, 131136, Note_on_c, 2, 75, 117
6, 131328, Note_off_c, 2, 75, 0
6, 131328, Note_on_c, 2, 74, 117
6, 131520, Note_off_c, 2, 74, 0
6, 131520, Note_on_c, 2, 71, 117
6, 131712, Note_off_c, 2, 71, 0
6, 131712, Note_on_c, 2, 72, 117
6, 131904, Note_off_c, 2, 72, 0
6, 131904, Note_on_c, 2, 67, 117
6, 132096, Note_off_c, 2, 67, 0
6, 132096, Note_on_c, 2, 65, 117
6, 132288, Note_off_c, 2, 65, 0
6, 132288, Note_on_c, 2, 63, 117
6, 132480, Note_off_c, 2, 63, 0
6, 132480, Note_on_c, 2, 62, 117
6, 132672, Note_off_c, 2, 62, 0
6, 132672, Note_on_c, 2, 71, 117
6, 133056, Note_off_c, 2, 71, 0
6, 133056, Note_on_c, 2, 72, 117
6, 133824, Note_off_c, 2, 72, 0
6, 133824, Note_on_c, 2, 67, 76
6, 134016, Note_off_c, 2, 67, 0
6, 134016, Note_on_c, 2, 68, 76
6, 134112, Note_off_c, 2, 68, 0
6, 134112, Note_on_c, 2, 70, 76
6, 134208, Note_off_c, 2, 70, 0
6, 134208, Note_on_c, 2, 68, 76
6, 134400, Note_off_c, 2, 68, 0
6, 134400, Note_on_c, 2, 67, 76
6, 134592, Note_off_c, 2, 67, 0
6, 134592, Note_on_c, 2, 65, 76
6, 134784, Note_off_c, 2, 65, 0
6, 134784, Note_on_c, 2, 63, 76
6, 134976, Note_off_c, 2, 63, 0
6, 134976, Note_on_c, 2, 70, 76
6, 136128, Note_off_c, 2, 70, 0
6, 136128, Note_on_c, 2, 73, 76
6, 136320, Note_off_c, 2, 73, 0
6, 136320, Note_on_c, 2, 75, 76
6, 136416, Note_off_c, 2, 75, 0
6, 136416, Note_on_c, 2, 77, 76
6, 136512, Note_off_c, 2, 77, 0
6, 136512, Note_on_c, 2, 77, 76
6, 136704, Note_off_c, 2, 77, 0
6, 136704, Note_on_c, 2, 75, 76
6, 136896, Note_off_c, 2, 75, 0
6, 136896, Note_on_c, 2, 75, 76
6, 137088, Note_off_c, 2, 75, 0
6, 137088, Note_on_c, 2, 73, 76
6, 137280, Note_off_c, 2, 73, 0
6, 137280, Note_on_c, 2, 73, 76
6, 137376, Note_off_c, 2, 73, 0
6, 137376, Note_on_c, 2, 72, 76
6, 137472, Note_off_c, 2, 72, 0
6, 137472, Note_on_c, 2, 70, 76
6, 137664, Note_off_c, 2, 70, 0
6, 137664, Note_on_c, 2, 72, 76
6, 138432, Note_off_c, 2, 72, 0
6, 138432, Note_on_c, 2, 70, 76
6, 138816, Note_off_c, 2, 70, 0
6, 138816, Note_on_c, 2, 79, 96
6, 139776, Note_off_c, 2, 79, 0
6, 139776, Note_on_c, 2, 70, 96
6, 139968, Note_off_c, 2, 70, 0
6, 139968, Note_on_c, 2, 68, 96
6, 140160, Note_off_c, 2, 68, 0
6, 140160, Note_on_c, 2, 67, 96
6, 140352, Note_off_c, 2, 67, 0
6, 140352, Note_on_c, 2, 68, 96
6, 140544, Note_off_c, 2, 68, 0
6, 140544, Note_on_c, 2, 72, 96
6, 140736, Note_off_c, 2, 72, 0
6, 140736, Note_on_c, 2, 77, 96
6, 140928, Note_off_c, 2, 77, 0
6, 140928, Note_on_c, 2, 75, 96
6, 141120, Note_off_c, 2, 75, 0
6, 141120, Note_on_c, 2, 74, 96
6, 141312, Note_off_c, 2, 74, 0
6, 141312, Note_on_c, 2, 72, 96
6, 141504, Note_off_c, 2, 72, 0
6, 141504, Note_on_c, 2, 71, 96
6, 141696, Note_off_c, 2, 71, 0
6, 141696, Note_on_c, 2, 72, 96
6, 141888, Note_off_c, 2, 72, 0
6, 141888, Note_on_c, 2, 68, 96
6, 142080, Note_off_c, 2, 68, 0
6, 142080, Note_on_c, 2, 67, 96
6, 142464, Note_off_c, 2, 67, 0
6, 142464, Note_on_c, 2, 71, 57
6, 142656, Note_off_c, 2, 71, 0
6, 142656, Note_on_c, 2, 72, 57
6, 142848, Note_off_c, 2, 72, 0
6, 142848, Note_on_c, 2, 68, 57
6, 143040, Note_off_c, 2, 68, 0
6, 143040, Note_on_c, 2, 66, 57
6, 143232, Note_off_c, 2, 66, 0
6, 143232, Note_on_c, 2, 67, 57
6, 143616, Note_off_c, 2, 67, 0
6, 143616, Note_on_c, 2, 71, 57
6, 143808, Note_off_c, 2, 71, 0
6, 143808, Note_on_c, 2, 72, 57
6, 144000, Note_off_c, 2, 72, 0
6, 144000, Note_on_c, 2, 68, 57
6, 144192, Note_off_c, 2, 68, 0
6, 144192, Note_on_c, 2, 66, 57
6, 144576, Note_off_c, 2, 66, 0
6, 144576, Note_on_c, 2, 67, 57
6, 144768, Note_off_c, 2, 67, 0
6, 144768, Note_on_c, 2, 77, 117
6, 144960, Note_off_c, 2, 77, 0
6, 144960, Note_on_c, 2, 75, 117
6, 145152, Note_off_c, 2, 75, 0
6, 145152, Note_on_c, 2, 74, 117
6, 145344, Note_off_c, 2, 74, 0
6, 145344, Note_on_c, 2, 71, 117
6, 145536, Note_off_c, 2, 71, 0
6, 145536, Note_on_c, 2, 72, 117
6, 145728, Note_off_c, 2, 72, 0
6, 145728, Note_on_c, 2, 67, 117
6, 145920, Note_off_c, 2, 67, 0
6, 145920, Note_on_c, 2, 65, 117
6, 146112, Note_off_c, 2, 65, 0
6, 146112, Note_on_c, 2, 63, 117
6, 146304, Note_off_c, 2, 63, 0
6, 146304, Note_on_c, 2, 62, 117
6, 146496, Note_off_c, 2, 62, 0
6, 146496, Note_on_c, 2, 71, 117
6, 146880, Note_off_c, 2, 71, 0
6, 146880, Note_on_c, 2, 72, 117
6, 147648, Note_off_c, 2, 72, 0
6, 147648, End_track
7, 0, Start_track
7, 0, Title_t, "Violin II"
7, 0, Control_c, 3, 0, 0
7, 0, Program_c, 3, 48
7, 0, Control_c, 3, 10, 109
7, 0, Key_signature, -3, "major"
7, 0, Control_c, 3, 7, 127
7, 0, Note_on_c, 3, 75, 96
7, 192, Note_off_c, 3, 75, 0
7, 192, Note_on_c, 3, 77, 96
7, 288, Note_off_c, 3, 77, 0
7, 288, Note_on_c, 3, 79, 96
7, 384, Note_off_c, 3, 79, 0
7, 384, Note_on_c, 3, 77, 96
7, 576, Note_off_c, 3, 77, 0
7, 576, Note_on_c, 3, 75, 96
7, 768, Note_off_c, 3, 75, 0
7, 768, Note_on_c, 3, 74, 96
7, 960, Note_off_c, 3, 74, 0
7, 960, Note_on_c, 3, 72, 96
7, 1152, Note_off_c, 3, 72, 0
7, 1152, Note_on_c, 3, 65, 96
7, 2304, Note_off_c, 3, 65, 0
7, 2304, Note_on_c, 3, 67, 96
7, 2496, Note_off_c, 3, 67, 0
7, 2496, Note_on_c, 3, 68, 96
7, 2592, Note_off_c, 3, 68, 0
7, 2592, Note_on_c, 3, 70, 96
7, 2688, Note_off_c, 3, 70, 0
7, 2688, Note_on_c, 3, 70, 96
7, 2880, Note_off_c, 3, 70, 0
7, 2880, Note_on_c, 3, 68, 96
7, 3072, Note_off_c, 3, 68, 0
7, 3072, Note_on_c, 3, 68, 96
7, 3264, Note_off_c, 3, 68, 0
7, 3264, Note_on_c, 3, 67, 96
7, 3456, Note_off_c, 3, 67, 0
7, 3456, Note_on_c, 3, 67, 96
7, 3552, Note_off_c, 3, 67, 0
7, 3552, Note_on_c, 3, 65, 96
7, 3648, Note_off_c, 3, 65, 0
7, 3648, Note_on_c, 3, 64, 96
7, 3840, Note_off_c, 3, 64, 0
7, 3840, Note_on_c, 3, 65, 96
7, 4800, Note_off_c, 3, 65, 0
7, 4800, Note_on_c, 3, 67, 96
7, 4992, Note_off_c, 3, 67, 0
7, 4992, Note_on_c, 3, 68, 96
7, 5184, Note_off_c, 3, 68, 0
7, 5184, Note_on_c, 3, 65, 96
7, 5376, Note_off_c, 3, 65, 0
7, 5376, Note_on_c, 3, 67, 96
7, 5760, Note_off_c, 3, 67, 0
7, 5760, Note_on_c, 3, 74, 96
7, 5952, Note_off_c, 3, 74, 0
7, 5952, Note_on_c, 3, 71, 96
7, 6144, Note_off_c, 3, 71, 0
7, 6144, Note_on_c, 3, 72, 96
7, 6336, Note_off_c, 3, 72, 0
7, 6336, Note_on_c, 3, 67, 96
7, 6528, Note_off_c, 3, 67, 0
7, 6528, Note_on_c, 3, 65, 96
7, 6720, Note_off_c, 3, 65, 0
7, 6720, Note_on_c, 3, 63, 96
7, 6912, Note_off_c, 3, 63, 0
7, 6912, Note_on_c, 3, 65, 96
7, 7296, Note_off_c, 3, 65, 0
7, 7296, Note_on_c, 3, 63, 96
7, 7488, Note_off_c, 3, 63, 0
7, 7488, Note_on_c, 3, 68, 96
7, 7680, Note_off_c, 3, 68, 0
7, 7680, Note_on_c, 3, 67, 96
7, 7872, Note_off_c, 3, 67, 0
7, 7872, Note_on_c, 3, 65, 96
7, 8064, Note_off_c, 3, 65, 0
7, 8064, Note_on_c, 3, 63, 96
7, 8256, Note_off_c, 3, 63, 0
7, 8256, Note_on_c, 3, 62, 96
7, 8640, Note_off_c, 3, 62, 0
7, 8640, Control_c, 3, 10, 32
7, 8640, Note_on_c, 3, 68, 76
7, 8832, Note_off_c, 3, 68, 0
7, 8832, Note_on_c, 3, 70, 76
7, 9024, Note_off_c, 3, 70, 0
7, 9024, Note_on_c, 3, 67, 76
7, 9216, Note_off_c, 3, 67, 0
7, 9216, Note_on_c, 3, 69, 76
7, 9408, Note_off_c, 3, 69, 0
7, 9408, Note_on_c, 3, 65, 76
7, 9600, Note_off_c, 3, 65, 0
7, 9600, Note_on_c, 3, 65, 76
7, 9792, Note_off_c, 3, 65, 0
7, 9792, Control_c, 3, 10, 96
7, 9792, Note_on_c, 3, 68, 76
7, 9984, Note_off_c, 3, 68, 0
7, 9984, Note_on_c, 3, 70, 76
7, 10176, Note_off_c, 3, 70, 0
7, 10176, Note_on_c, 3, 67, 76
7, 10368, Note_off_c, 3, 67, 0
7, 10368, Note_on_c, 3, 63, 76
7, 10752, Note_off_c, 3, 63, 0
7, 10752, Note_on_c, 3, 65, 76
7, 10944, Note_off_c, 3, 65, 0
7, 10944, Control_c, 3, 10, 96
7, 10944, Note_on_c, 3, 77, 117
7, 11136, Note_off_c, 3, 77, 0
7, 11136, Note_on_c, 3, 75, 117
7, 11328, Note_off_c, 3, 75, 0
7, 11328, Note_on_c, 3, 72, 117
7, 11520, Note_off_c, 3, 72, 0
7, 11520, Note_on_c, 3, 70, 117
7, 11904, Note_off_c, 3, 70, 0
7, 11904, Note_on_c, 3, 67, 117
7, 12096, Note_off_c, 3, 67, 0
7, 12096, Note_on_c, 3, 65, 117
7, 12288, Note_off_c, 3, 65, 0
7, 12288, Note_on_c, 3, 63, 117
7, 12480, Note_off_c, 3, 63, 0
7, 12480, Note_on_c, 3, 62, 117
7, 12672, Note_off_c, 3, 62, 0
7, 12672, Note_on_c, 3, 58, 117
7, 13824, Note_off_c, 3, 58, 0
7, 14976, Note_on_c, 3, 65, 96
7, 16128, Note_off_c, 3, 65, 0
7, 16128, Note_on_c, 3, 67, 96
7, 16320, Note_off_c, 3, 67, 0
7, 16320, Note_on_c, 3, 68, 96
7, 16416, Note_off_c, 3, 68, 0
7, 16416, Note_on_c, 3, 70, 96
7, 16512, Note_off_c, 3, 70, 0
7, 16512, Note_on_c, 3, 70, 96
7, 16704, Note_off_c, 3, 70, 0
7, 16704, Note_on_c, 3, 68, 96
7, 16896, Note_off_c, 3, 68, 0
7, 16896, Note_on_c, 3, 68, 96
7, 17088, Note_off_c, 3, 68, 0
7, 17088, Note_on_c, 3, 67, 96
7, 17280, Note_off_c, 3, 67, 0
7, 17280, Note_on_c, 3, 67, 96
7, 17376, Note_off_c, 3, 67, 0
7, 17376, Note_on_c, 3, 65, 96
7, 17472, Note_off_c, 3, 65, 0
7, 17472, Note_on_c, 3, 64, 96
7, 17664, Note_off_c, 3, 64, 0
7, 17664, Note_on_c, 3, 65, 96
7, 18432, Note_off_c, 3, 65, 0
7, 18432, Note_on_c, 3, 65, 96
7, 18816, Note_off_c, 3, 65, 0
7, 18816, Note_on_c, 3, 68, 96
7, 19008, Note_off_c, 3, 68, 0
7, 19008, Note_on_c, 3, 65, 96
7, 19200, Note_off_c, 3, 65, 0
7, 19200, Note_on_c, 3, 67, 96
7, 19584, Note_off_c, 3, 67, 0
7, 19584, Note_on_c, 3, 74, 96
7, 19776, Note_off_c, 3, 74, 0
7, 19776, Note_on_c, 3, 71, 96
7, 19968, Note_off_c, 3, 71, 0
7, 19968, Note_on_c, 3, 72, 96
7, 20160, Note_off_c, 3, 72, 0
7, 20160, Note_on_c, 3, 67, 96
7, 20352, Note_off_c, 3, 67, 0
7, 20352, Note_on_c, 3, 65, 96
7, 20544, Note_off_c, 3, 65, 0
7, 20544, Note_on_c, 3, 63, 96
7, 20736, Note_off_c, 3, 63, 0
7, 20736, Note_on_c, 3, 65, 96
7, 21120, Note_off_c, 3, 65, 0
7, 21120, Note_on_c, 3, 63, 96
7, 21312, Note_off_c, 3, 63, 0
7, 21312, Note_on_c, 3, 68, 96
7, 21504, Note_off_c, 3, 68, 0
7, 21504, Note_on_c, 3, 67, 96
7, 21696, Note_off_c, 3, 67, 0
7, 21696, Note_on_c, 3, 65, 96
7, 21888, Note_off_c, 3, 65, 0
7, 21888, Note_on_c, 3, 63, 96
7, 22080, Note_off_c, 3, 63, 0
7, 22080, Note_on_c, 3, 62, 96
7, 22464, Note_off_c, 3, 62, 0
7, 22464, Note_on_c, 3, 68, 76
7, 22656, Note_off_c, 3, 68, 0
7, 22656, Note_on_c, 3, 70, 76
7, 22848, Note_off_c, 3, 70, 0
7, 22848, Note_on_c, 3, 67, 76
7, 23040, Note_off_c, 3, 67, 0
7, 23040, Note_on_c, 3, 65, 76
7, 23616, Note_off_c, 3, 65, 0
7, 23616, Note_on_c, 3, 68, 76
7, 23808, Note_off_c, 3, 68, 0
7, 23808, Note_on_c, 3, 70, 76
7, 24000, Note_off_c, 3, 70, 0
7, 24000, Note_on_c, 3, 67, 76
7, 24192, Note_off_c, 3, 67, 0
7, 24192, Note_on_c, 3, 63, 76
7, 24576, Note_off_c, 3, 63, 0
7, 24576, Note_on_c, 3, 65, 76
7, 24768, Note_off_c, 3, 65, 0
7, 24768, Note_on_c, 3, 77, 117
7, 24960, Note_off_c, 3, 77, 0
7, 24960, Note_on_c, 3, 75, 117
7, 25152, Note_off_c, 3, 75, 0
7, 25152, Note_on_c, 3, 72, 117
7, 25344, Note_off_c, 3, 72, 0
7, 25344, Note_on_c, 3, 70, 117
7, 25728, Note_off_c, 3, 70, 0
7, 25728, Note_on_c, 3, 67, 117
7, 25920, Note_off_c, 3, 67, 0
7, 25920, Note_on_c, 3, 65, 117
7, 26112, Note_off_c, 3, 65, 0
7, 26112, Note_on_c, 3, 63, 117
7, 26304, Note_off_c, 3, 63, 0
7, 26304, Note_on_c, 3, 62, 117
7, 26496, Note_off_c, 3, 62, 0
7, 26496, Note_on_c, 3, 58, 76
7, 27648, Note_off_c, 3, 58, 0
7, 27648, Note_on_c, 3, 67, 76
7, 27840, Note_off_c, 3, 67, 0
7, 27840, Note_on_c, 3, 68, 76
7, 27936, Note_off_c, 3, 68, 0
7, 27936, Note_on_c, 3, 70, 76
7, 28032, Note_off_c, 3, 70, 0
7, 28032, Note_on_c, 3, 68, 76
7, 28224, Note_off_c, 3, 68, 0
7, 28224, Note_on_c, 3, 67, 76
7, 28416, Note_off_c, 3, 67, 0
7, 28416, Note_on_c, 3, 65, 76
7, 28608, Note_off_c, 3, 65, 0
7, 28608, Note_on_c, 3, 63, 76
7, 28800, Note_off_c, 3, 63, 0
7, 28800, Note_on_c, 3, 63, 96
7, 29568, Note_off_c, 3, 63, 0
7, 29952, Note_on_c, 3, 70, 96
7, 30144, Note_off_c, 3, 70, 0
7, 30144, Note_on_c, 3, 72, 96
7, 30240, Note_off_c, 3, 72, 0
7, 30240, Note_on_c, 3, 73, 96
7, 30336, Note_off_c, 3, 73, 0
7, 30336, Note_on_c, 3, 73, 96
7, 30528, Note_off_c, 3, 73, 0
7, 30528, Note_on_c, 3, 72, 96
7, 30720, Note_off_c, 3, 72, 0
7, 30720, Note_on_c, 3, 72, 96
7, 30912, Note_off_c, 3, 72, 0
7, 30912, Note_on_c, 3, 70, 96
7, 31104, Note_off_c, 3, 70, 0
7, 31104, Note_on_c, 3, 70, 96
7, 31200, Note_off_c, 3, 70, 0
7, 31200, Note_on_c, 3, 68, 96
7, 31296, Note_off_c, 3, 68, 0
7, 31296, Note_on_c, 3, 67, 96
7, 31488, Note_off_c, 3, 67, 0
7, 31488, Note_on_c, 3, 68, 96
7, 32256, Note_off_c, 3, 68, 0
7, 32256, Note_on_c, 3, 67, 96
7, 32640, Note_off_c, 3, 67, 0
7, 32640, Note_on_c, 3, 72, 117
7, 33792, Note_off_c, 3, 72, 0
7, 33792, Note_on_c, 3, 65, 117
7, 33984, Note_off_c, 3, 65, 0
7, 33984, Note_on_c, 3, 64, 117
7, 34176, Note_off_c, 3, 64, 0
7, 34176, Note_on_c, 3, 65, 117
7, 34368, Note_off_c, 3, 65, 0
7, 34368, Note_on_c, 3, 68, 117
7, 34560, Note_off_c, 3, 68, 0
7, 34560, Note_on_c, 3, 71, 117
7, 34944, Note_off_c, 3, 71, 0
7, 35712, Note_on_c, 3, 62, 117
7, 36288, Note_off_c, 3, 62, 0
7, 36288, Note_on_c, 3, 65, 57
7, 36480, Note_off_c, 3, 65, 0
7, 36480, Note_on_c, 3, 67, 57
7, 36672, Note_off_c, 3, 67, 0
7, 36672, Note_on_c, 3, 63, 57
7, 36864, Note_off_c, 3, 63, 0
7, 36864, Note_on_c, 3, 60, 57
7, 37056, Note_off_c, 3, 60, 0
7, 37056, Note_on_c, 3, 62, 57
7, 37440, Note_off_c, 3, 62, 0
7, 37440, Note_on_c, 3, 65, 57
7, 37632, Note_off_c, 3, 65, 0
7, 37632, Note_on_c, 3, 67, 57
7, 37824, Note_off_c, 3, 67, 0
7, 37824, Note_on_c, 3, 63, 57
7, 38016, Note_off_c, 3, 63, 0
7, 38016, Note_on_c, 3, 60, 57
7, 38400, Note_off_c, 3, 60, 0
7, 38400, Note_on_c, 3, 62, 57
7, 38592, Note_off_c, 3, 62, 0
7, 38592, Note_on_c, 3, 74, 117
7, 38784, Note_off_c, 3, 74, 0
7, 38784, Note_on_c, 3, 72, 117
7, 38976, Note_off_c, 3, 72, 0
7, 38976, Note_on_c, 3, 71, 117
7, 39168, Note_off_c, 3, 71, 0
7, 39168, Note_on_c, 3, 65, 117
7, 39360, Note_off_c, 3, 65, 0
7, 39360, Note_on_c, 3, 67, 117
7, 39552, Note_off_c, 3, 67, 0
7, 39552, Note_on_c, 3, 63, 117
7, 39744, Note_off_c, 3, 63, 0
7, 39744, Note_on_c, 3, 62, 117
7, 39936, Note_off_c, 3, 62, 0
7, 39936, Note_on_c, 3, 60, 117
7, 40128, Note_off_c, 3, 60, 0
7, 40128, Note_on_c, 3, 59, 117
7, 40320, Note_off_c, 3, 59, 0
7, 40320, Note_on_c, 3, 67, 117
7, 41472, Note_off_c, 3, 67, 0
7, 41472, Note_on_c, 3, 63, 76
7, 42240, Note_off_c, 3, 63, 0
7, 42240, Note_on_c, 3, 62, 76
7, 42432, Note_off_c, 3, 62, 0
7, 42432, Note_on_c, 3, 63, 76
7, 42624, Note_off_c, 3, 63, 0
7, 42624, Note_on_c, 3, 67, 76
7, 43776, Note_off_c, 3, 67, 0
7, 43776, Note_on_c, 3, 70, 76
7, 43968, Note_off_c, 3, 70, 0
7, 43968, Note_on_c, 3, 72, 76
7, 44064, Note_off_c, 3, 72, 0
7, 44064, Note_on_c, 3, 73, 76
7, 44160, Note_off_c, 3, 73, 0
7, 44160, Note_on_c, 3, 73, 76
7, 44352, Note_off_c, 3, 73, 0
7, 44352, Note_on_c, 3, 72, 76
7, 44544, Note_off_c, 3, 72, 0
7, 44544, Note_on_c, 3, 72, 76
7, 44736, Note_off_c, 3, 72, 0
7, 44736, Note_on_c, 3, 70, 76
7, 44928, Note_off_c, 3, 70, 0
7, 44928, Note_on_c, 3, 70, 76
7, 45024, Note_off_c, 3, 70, 0
7, 45024, Note_on_c, 3, 68, 76
7, 45120, Note_off_c, 3, 68, 0
7, 45120, Note_on_c, 3, 67, 76
7, 45312, Note_off_c, 3, 67, 0
7, 45312, Note_on_c, 3, 68, 76
7, 46080, Note_off_c, 3, 68, 0
7, 46080, Note_on_c, 3, 67, 76
7, 46464, Note_off_c, 3, 67, 0
7, 46464, Note_on_c, 3, 72, 96
7, 47616, Note_off_c, 3, 72, 0
7, 47616, Note_on_c, 3, 65, 96
7, 47808, Note_off_c, 3, 65, 0
7, 47808, Note_on_c, 3, 64, 96
7, 48000, Note_off_c, 3, 64, 0
7, 48000, Note_on_c, 3, 65, 96
7, 48192, Note_off_c, 3, 65, 0
7, 48192, Note_on_c, 3, 68, 96
7, 48384, Note_off_c, 3, 68, 0
7, 48384, Note_on_c, 3, 71, 96
7, 48768, Note_off_c, 3, 71, 0
7, 49536, Note_on_c, 3, 62, 96
7, 50112, Note_off_c, 3, 62, 0
7, 50112, Note_on_c, 3, 65, 57
7, 50304, Note_off_c, 3, 65, 0
7, 50304, Note_on_c, 3, 67, 57
7, 50496, Note_off_c, 3, 67, 0
7, 50496, Note_on_c, 3, 63, 57
7, 50688, Note_off_c, 3, 63, 0
7, 50688, Note_on_c, 3, 60, 57
7, 50880, Note_off_c, 3, 60, 0
7, 50880, Note_on_c, 3, 62, 57
7, 51264, Note_off_c, 3, 62, 0
7, 51264, Note_on_c, 3, 65, 57
7, 51456, Note_off_c, 3, 65, 0
7, 51456, Note_on_c, 3, 67, 57
7, 51648, Note_off_c, 3, 67, 0
7, 51648, Note_on_c, 3, 63, 57
7, 51840, Note_off_c, 3, 63, 0
7, 51840, Note_on_c, 3, 60, 57
7, 52224, Note_off_c, 3, 60, 0
7, 52224, Note_on_c, 3, 62, 57
7, 52416, Note_off_c, 3, 62, 0
7, 52416, Note_on_c, 3, 74, 117
7, 52608, Note_off_c, 3, 74, 0
7, 52608, Note_on_c, 3, 72, 117
7, 52800, Note_off_c, 3, 72, 0
7, 52800, Note_on_c, 3, 71, 117
7, 52992, Note_off_c, 3, 71, 0
7, 52992, Note_on_c, 3, 65, 117
7, 53184, Note_off_c, 3, 65, 0
7, 53184, Note_on_c, 3, 67, 117
7, 53376, Note_off_c, 3, 67, 0
7, 53376, Note_on_c, 3, 63, 117
7, 53568, Note_off_c, 3, 63, 0
7, 53568, Note_on_c, 3, 62, 117
7, 53760, Note_off_c, 3, 62, 0
7, 53760, Note_on_c, 3, 60, 117
7, 53952, Note_off_c, 3, 60, 0
7, 53952, Note_on_c, 3, 59, 117
7, 54144, Note_off_c, 3, 59, 0
7, 54144, Note_on_c, 3, 67, 117
7, 55296, Note_off_c, 3, 67, 0
7, 55488, Note_on_c, 3, 63, 96
7, 56256, Note_off_c, 3, 63, 0
7, 56256, Note_on_c, 3, 67, 96
7, 56640, Note_off_c, 3, 67, 0
7, 56640, Note_on_c, 3, 60, 96
7, 57216, Note_off_c, 3, 60, 0
7, 57216, Note_on_c, 3, 63, 96
7, 57408, Note_off_c, 3, 63, 0
7, 57408, Note_on_c, 3, 67, 96
7, 57792, Note_off_c, 3, 67, 0
7, 57792, Note_on_c, 3, 67, 96
7, 57984, Note_off_c, 3, 67, 0
7, 57984, Note_on_c, 3, 68, 96
7, 58176, Note_off_c, 3, 68, 0
7, 58176, Note_on_c, 3, 72, 96
7, 58368, Note_off_c, 3, 72, 0
7, 58368, Note_on_c, 3, 68, 96
7, 58560, Note_off_c, 3, 68, 0
7, 58560, Note_on_c, 3, 68, 96
7, 58752, Note_off_c, 3, 68, 0
7, 58752, Note_on_c, 3, 65, 96
7, 58944, Note_off_c, 3, 65, 0
7, 58944, Note_on_c, 3, 67, 96
7, 59136, Note_off_c, 3, 67, 0
7, 59136, Note_on_c, 3, 65, 96
7, 59328, Note_off_c, 3, 65, 0
7, 59328, Note_on_c, 3, 65, 96
7, 59520, Note_off_c, 3, 65, 0
7, 59520, Note_on_c, 3, 60, 96
7, 59712, Note_off_c, 3, 60, 0
7, 59712, Note_on_c, 3, 61, 96
7, 59904, Note_off_c, 3, 61, 0
7, 59904, Note_on_c, 3, 58, 96
7, 60096, Note_off_c, 3, 58, 0
7, 60096, Note_on_c, 3, 60, 96
7, 60288, Note_off_c, 3, 60, 0
7, 60288, Note_on_c, 3, 65, 96
7, 60480, Note_off_c, 3, 65, 0
7, 60480, Note_on_c, 3, 63, 96
7, 60672, Note_off_c, 3, 63, 0
7, 60672, Note_on_c, 3, 65, 96
7, 60864, Note_off_c, 3, 65, 0
7, 60864, Note_on_c, 3, 67, 96
7, 61056, Note_off_c, 3, 67, 0
7, 61056, Note_on_c, 3, 67, 96
7, 61248, Note_off_c, 3, 67, 0
7, 61248, Note_on_c, 3, 58, 96
7, 61632, Note_off_c, 3, 58, 0
7, 61632, Note_on_c, 3, 65, 96
7, 62016, Note_off_c, 3, 65, 0
7, 62016, Note_on_c, 3, 70, 96
7, 62304, Note_off_c, 3, 70, 0
7, 62304, Note_on_c, 3, 75, 96
7, 62400, Note_off_c, 3, 75, 0
7, 62400, Note_on_c, 3, 65, 96
7, 62976, Note_off_c, 3, 65, 0
7, 62976, Note_on_c, 3, 68, 96
7, 63168, Note_off_c, 3, 68, 0
7, 63168, Note_on_c, 3, 72, 96
7, 63744, Note_off_c, 3, 72, 0
7, 63744, Note_on_c, 3, 73, 96
7, 63936, Note_off_c, 3, 73, 0
7, 63936, Note_on_c, 3, 75, 96
7, 64128, Note_off_c, 3, 75, 0
7, 64128, Note_on_c, 3, 73, 96
7, 64320, Note_off_c, 3, 73, 0
7, 64320, Note_on_c, 3, 73, 96
7, 64512, Note_off_c, 3, 73, 0
7, 64512, Note_on_c, 3, 72, 96
7, 64704, Note_off_c, 3, 72, 0
7, 64704, Note_on_c, 3, 72, 96
7, 64896, Note_off_c, 3, 72, 0
7, 64896, Note_on_c, 3, 70, 96
7, 65088, Note_off_c, 3, 70, 0
7, 65088, Note_on_c, 3, 70, 96
7, 65280, Note_off_c, 3, 70, 0
7, 65280, Note_on_c, 3, 65, 57
7, 65472, Note_off_c, 3, 65, 0
7, 65472, Note_on_c, 3, 66, 57
7, 65664, Note_off_c, 3, 66, 0
7, 65664, Note_on_c, 3, 69, 57
7, 65856, Note_off_c, 3, 69, 0
7, 65856, Note_on_c, 3, 63, 57
7, 66048, Note_off_c, 3, 63, 0
7, 66048, Note_on_c, 3, 65, 57
7, 66240, Note_off_c, 3, 65, 0
7, 66240, Note_on_c, 3, 66, 57
7, 66432, Note_off_c, 3, 66, 0
7, 66432, Note_on_c, 3, 70, 57
7, 66624, Note_off_c, 3, 70, 0
7, 66624, Note_on_c, 3, 72, 57
7, 66816, Note_off_c, 3, 72, 0
7, 66816, Note_on_c, 3, 66, 57
7, 67008, Note_off_c, 3, 66, 0
7, 67008, Note_on_c, 3, 63, 57
7, 67392, Note_off_c, 3, 63, 0
7, 67392, Note_on_c, 3, 65, 57
7, 67776, Note_off_c, 3, 65, 0
7, 67776, Note_on_c, 3, 70, 57
7, 68160, Note_off_c, 3, 70, 0
7, 68160, Note_on_c, 3, 70, 96
7, 68544, Note_off_c, 3, 70, 0
7, 68544, Note_on_c, 3, 67, 96
7, 68928, Note_off_c, 3, 67, 0
7, 68928, Note_on_c, 3, 67, 96
7, 69120, Note_off_c, 3, 67, 0
7, 69120, Note_on_c, 3, 68, 96
7, 69312, Note_off_c, 3, 68, 0
7, 69312, Note_on_c, 3, 65, 96
7, 69504, Note_off_c, 3, 65, 0
7, 69504, Note_on_c, 3, 67, 96
7, 69696, Note_off_c, 3, 67, 0
7, 69696, Note_on_c, 3, 71, 96
7, 69888, Note_off_c, 3, 71, 0
7, 69888, Note_on_c, 3, 72, 96
7, 70080, Note_off_c, 3, 72, 0
7, 70080, Note_on_c, 3, 74, 96
7, 70464, Note_off_c, 3, 74, 0
7, 70464, Note_on_c, 3, 74, 96
7, 71616, Note_off_c, 3, 74, 0
7, 71616, Note_on_c, 3, 72, 117
7, 71808, Note_off_c, 3, 72, 0
7, 71808, Note_on_c, 3, 71, 117
7, 72000, Note_off_c, 3, 71, 0
7, 72000, Note_on_c, 3, 74, 117
7, 72192, Note_off_c, 3, 74, 0
7, 72192, Note_on_c, 3, 72, 117
7, 72384, Note_off_c, 3, 72, 0
7, 72384, Note_on_c, 3, 72, 117
7, 72576, Note_off_c, 3, 72, 0
7, 72576, Note_on_c, 3, 71, 117
7, 72768, Note_off_c, 3, 71, 0
7, 72768, Note_on_c, 3, 72, 117
7, 72960, Note_off_c, 3, 72, 0
7, 72960, Note_on_c, 3, 71, 117
7, 73152, Note_off_c, 3, 71, 0
7, 73152, Note_on_c, 3, 74, 117
7, 73344, Note_off_c, 3, 74, 0
7, 73344, Note_on_c, 3, 72, 117
7, 73536, Note_off_c, 3, 72, 0
7, 73536, Note_on_c, 3, 72, 117
7, 73728, Note_off_c, 3, 72, 0
7, 73728, Note_on_c, 3, 71, 117
7, 73920, Note_off_c, 3, 71, 0
7, 73920, Note_on_c, 3, 72, 117
7, 74112, Note_off_c, 3, 72, 0
7, 74112, Note_on_c, 3, 70, 117
7, 74304, Note_off_c, 3, 70, 0
7, 74304, Note_on_c, 3, 70, 117
7, 74496, Note_off_c, 3, 70, 0
7, 74496, Note_on_c, 3, 69, 117
7, 74688, Note_off_c, 3, 69, 0
7, 74688, Note_on_c, 3, 69, 117
7, 74880, Note_off_c, 3, 69, 0
7, 74880, Note_on_c, 3, 70, 117
7, 74976, Note_off_c, 3, 70, 0
7, 74976, Note_on_c, 3, 72, 117
7, 75072, Note_off_c, 3, 72, 0
7, 75072, Note_on_c, 3, 70, 117
7, 75264, Note_off_c, 3, 70, 0
7, 75264, Note_on_c, 3, 69, 117
7, 75456, Note_off_c, 3, 69, 0
7, 75456, Note_on_c, 3, 69, 117
7, 75648, Note_off_c, 3, 69, 0
7, 75648, Note_on_c, 3, 67, 117
7, 75840, Note_off_c, 3, 67, 0
7, 75840, Note_on_c, 3, 67, 117
7, 76032, Note_off_c, 3, 67, 0
7, 76032, Note_on_c, 3, 69, 117
7, 76128, Note_off_c, 3, 69, 0
7, 76128, Note_on_c, 3, 70, 117
7, 76224, Note_off_c, 3, 70, 0
7, 76224, Note_on_c, 3, 69, 117
7, 76416, Note_off_c, 3, 69, 0
7, 76416, Note_on_c, 3, 67, 117
7, 76608, Note_off_c, 3, 67, 0
7, 76608, Note_on_c, 3, 66, 117
7, 76800, Note_off_c, 3, 66, 0
7, 76800, Note_on_c, 3, 67, 117
7, 76992, Note_off_c, 3, 67, 0
7, 76992, Note_on_c, 3, 66, 117
7, 77184, Note_off_c, 3, 66, 0
7, 77184, Note_on_c, 3, 67, 117
7, 77376, Note_off_c, 3, 67, 0
7, 77376, Note_on_c, 3, 62, 117
7, 77952, Note_off_c, 3, 62, 0
7, 77952, Note_on_c, 3, 72, 57
7, 78144, Note_off_c, 3, 72, 0
7, 78144, Note_on_c, 3, 74, 57
7, 78336, Note_off_c, 3, 74, 0
7, 78336, Note_on_c, 3, 70, 57
7, 78528, Note_off_c, 3, 70, 0
7, 78528, Note_on_c, 3, 67, 57
7, 78720, Note_off_c, 3, 67, 0
7, 78720, Note_on_c, 3, 69, 57
7, 78912, Note_off_c, 3, 69, 0
7, 78912, Note_on_c, 3, 70, 57
7, 79104, Note_off_c, 3, 70, 0
7, 79104, Note_on_c, 3, 72, 57
7, 79296, Note_off_c, 3, 72, 0
7, 79296, Note_on_c, 3, 74, 57
7, 79488, Note_off_c, 3, 74, 0
7, 79488, Note_on_c, 3, 70, 57
7, 79680, Note_off_c, 3, 70, 0
7, 79680, Note_on_c, 3, 67, 57
7, 79872, Note_off_c, 3, 67, 0
7, 79872, Note_on_c, 3, 66, 57
7, 80064, Note_off_c, 3, 66, 0
7, 80064, Note_on_c, 3, 69, 57
7, 80256, Note_off_c, 3, 69, 0
7, 80256, Note_on_c, 3, 72, 117
7, 80448, Note_off_c, 3, 72, 0
7, 80448, Note_on_c, 3, 72, 117
7, 80640, Note_off_c, 3, 72, 0
7, 80640, Note_on_c, 3, 69, 117
7, 80832, Note_off_c, 3, 69, 0
7, 80832, Note_on_c, 3, 67, 117
7, 81024, Note_off_c, 3, 67, 0
7, 81024, Note_on_c, 3, 70, 117
7, 81216, Note_off_c, 3, 70, 0
7, 81216, Note_on_c, 3, 69, 117
7, 81408, Note_off_c, 3, 69, 0
7, 81408, Note_on_c, 3, 67, 117
7, 81600, Note_off_c, 3, 67, 0
7, 81600, Note_on_c, 3, 66, 117
7, 81792, Note_off_c, 3, 66, 0
7, 81792, Note_on_c, 3, 62, 117
7, 81984, Note_off_c, 3, 62, 0
7, 81984, Note_on_c, 3, 62, 96
7, 83136, Note_off_c, 3, 62, 0
7, 83136, Note_on_c, 3, 71, 96
7, 83520, Note_off_c, 3, 71, 0
7, 83520, Note_on_c, 3, 72, 96
7, 83904, Note_off_c, 3, 72, 0
7, 83904, Note_on_c, 3, 74, 96
7, 84096, Note_off_c, 3, 74, 0
7, 84096, Note_on_c, 3, 74, 96
7, 84288, Note_off_c, 3, 74, 0
7, 84288, Note_on_c, 3, 62, 96
7, 85440, Note_off_c, 3, 62, 0
7, 85440, Note_on_c, 3, 71, 96
7, 86208, Note_off_c, 3, 71, 0
7, 86592, Note_on_c, 3, 71, 96
7, 87744, Note_off_c, 3, 71, 0
7, 87744, Note_on_c, 3, 72, 96
7, 87936, Note_off_c, 3, 72, 0
7, 87936, Note_on_c, 3, 70, 96
7, 88128, Note_off_c, 3, 70, 0
7, 88128, Note_on_c, 3, 70, 96
7, 88320, Note_off_c, 3, 70, 0
7, 88320, Note_on_c, 3, 68, 96
7, 88512, Note_off_c, 3, 68, 0
7, 88512, Note_on_c, 3, 68, 96
7, 89088, Note_off_c, 3, 68, 0
7, 89088, Note_on_c, 3, 67, 96
7, 89280, Note_off_c, 3, 67, 0
7, 89280, Note_on_c, 3, 67, 96
7, 89472, Note_off_c, 3, 67, 0
7, 89472, Note_on_c, 3, 65, 96
7, 89664, Note_off_c, 3, 65, 0
7, 89664, Note_on_c, 3, 65, 96
7, 90240, Note_off_c, 3, 65, 0
7, 90240, Note_on_c, 3, 63, 96
7, 90432, Note_off_c, 3, 63, 0
7, 90432, Note_on_c, 3, 63, 96
7, 90624, Note_off_c, 3, 63, 0
7, 90624, Note_on_c, 3, 62, 96
7, 90816, Note_off_c, 3, 62, 0
7, 90816, Note_on_c, 3, 63, 96
7, 91200, Note_off_c, 3, 63, 0
7, 91200, Note_on_c, 3, 62, 96
7, 92352, Note_off_c, 3, 62, 0
7, 92352, Note_on_c, 3, 75, 96
7, 92544, Note_off_c, 3, 75, 0
7, 92544, Note_on_c, 3, 77, 96
7, 92640, Note_off_c, 3, 77, 0
7, 92640, Note_on_c, 3, 79, 96
7, 92736, Note_off_c, 3, 79, 0
7, 92736, Note_on_c, 3, 77, 96
7, 92928, Note_off_c, 3, 77, 0
7, 92928, Note_on_c, 3, 75, 96
7, 93120, Note_off_c, 3, 75, 0
7, 93120, Note_on_c, 3, 74, 96
7, 93312, Note_off_c, 3, 74, 0
7, 93312, Note_on_c, 3, 72, 96
7, 93504, Note_off_c, 3, 72, 0
7, 93504, Note_on_c, 3, 65, 96
7, 94656, Note_off_c, 3, 65, 0
7, 94656, Note_on_c, 3, 67, 96
7, 94848, Note_off_c, 3, 67, 0
7, 94848, Note_on_c, 3, 68, 96
7, 94944, Note_off_c, 3, 68, 0
7, 94944, Note_on_c, 3, 70, 96
7, 95040, Note_off_c, 3, 70, 0
7, 95040, Note_on_c, 3, 70, 96
7, 95232, Note_off_c, 3, 70, 0
7, 95232, Note_on_c, 3, 68, 96
7, 95424, Note_off_c, 3, 68, 0
7, 95424, Note_on_c, 3, 68, 96
7, 95616, Note_off_c, 3, 68, 0
7, 95616, Note_on_c, 3, 67, 96
7, 95808, Note_off_c, 3, 67, 0
7, 95808, Note_on_c, 3, 67, 96
7, 95904, Note_off_c, 3, 67, 0
7, 95904, Note_on_c, 3, 65, 96
7, 96000, Note_off_c, 3, 65, 0
7, 96000, Note_on_c, 3, 64, 96
7, 96192, Note_off_c, 3, 64, 0
7, 96192, Note_on_c, 3, 65, 96
7, 97152, Note_off_c, 3, 65, 0
7, 97152, Note_on_c, 3, 67, 96
7, 97344, Note_off_c, 3, 67, 0
7, 97344, Note_on_c, 3, 68, 96
7, 97536, Note_off_c, 3, 68, 0
7, 97536, Note_on_c, 3, 65, 96
7, 97728, Note_off_c, 3, 65, 0
7, 97728, Note_on_c, 3, 67, 96
7, 98112, Note_off_c, 3, 67, 0
7, 98112, Note_on_c, 3, 74, 96
7, 98304, Note_off_c, 3, 74, 0
7, 98304, Note_on_c, 3, 71, 96
7, 98496, Note_off_c, 3, 71, 0
7, 98496, Note_on_c, 3, 72, 96
7, 98688, Note_off_c, 3, 72, 0
7, 98688, Note_on_c, 3, 67, 96
7, 98880, Note_off_c, 3, 67, 0
7, 98880, Note_on_c, 3, 65, 96
7, 99072, Note_off_c, 3, 65, 0
7, 99072, Note_on_c, 3, 63, 96
7, 99264, Note_off_c, 3, 63, 0
7, 99264, Note_on_c, 3, 65, 96
7, 99648, Note_off_c, 3, 65, 0
7, 99648, Note_on_c, 3, 63, 96
7, 99840, Note_off_c, 3, 63, 0
7, 99840, Note_on_c, 3, 68, 96
7, 100032, Note_off_c, 3, 68, 0
7, 100032, Note_on_c, 3, 67, 96
7, 100224, Note_off_c, 3, 67, 0
7, 100224, Note_on_c, 3, 65, 96
7, 100416, Note_off_c, 3, 65, 0
7, 100416, Note_on_c, 3, 63, 96
7, 100608, Note_off_c, 3, 63, 0
7, 100608, Note_on_c, 3, 62, 96
7, 100992, Note_off_c, 3, 62, 0
7, 100992, Control_c, 3, 10, 32
7, 100992, Note_on_c, 3, 68, 76
7, 101184, Note_off_c, 3, 68, 0
7, 101184, Note_on_c, 3, 70, 76
7, 101376, Note_off_c, 3, 70, 0
7, 101376, Note_on_c, 3, 67, 76
7, 101568, Note_off_c, 3, 67, 0
7, 101568, Note_on_c, 3, 69, 76
7, 101760, Note_off_c, 3, 69, 0
7, 101760, Note_on_c, 3, 65, 76
7, 101952, Note_off_c, 3, 65, 0
7, 101952, Note_on_c, 3, 65, 76
7, 102144, Note_off_c, 3, 65, 0
7, 102144, Control_c, 3, 10, 96
7, 102144, Note_on_c, 3, 68, 76
7, 102336, Note_off_c, 3, 68, 0
7, 102336, Note_on_c, 3, 70, 76
7, 102528, Note_off_c, 3, 70, 0
7, 102528, Note_on_c, 3, 67, 76
7, 102720, Note_off_c, 3, 67, 0
7, 102720, Note_on_c, 3, 63, 76
7, 103104, Note_off_c, 3, 63, 0
7, 103104, Note_on_c, 3, 65, 76
7, 103296, Note_off_c, 3, 65, 0
7, 103296, Control_c, 3, 10, 96
7, 103296, Note_on_c, 3, 77, 117
7, 103488, Note_off_c, 3, 77, 0
7, 103488, Note_on_c, 3, 75, 117
7, 103680, Note_off_c, 3, 75, 0
7, 103680, Note_on_c, 3, 72, 117
7, 103872, Note_off_c, 3, 72, 0
7, 103872, Note_on_c, 3, 70, 117
7, 104256, Note_off_c, 3, 70, 0
7, 104256, Note_on_c, 3, 67, 117
7, 104448, Note_off_c, 3, 67, 0
7, 104448, Note_on_c, 3, 65, 117
7, 104640, Note_off_c, 3, 65, 0
7, 104640, Note_on_c, 3, 63, 117
7, 104832, Note_off_c, 3, 63, 0
7, 104832, Note_on_c, 3, 62, 117
7, 105024, Note_off_c, 3, 62, 0
7, 105024, Note_on_c, 3, 58, 117
7, 106176, Note_off_c, 3, 58, 0
7, 107328, Note_on_c, 3, 65, 96
7, 108480, Note_off_c, 3, 65, 0
7, 108480, Note_on_c, 3, 67, 96
7, 108672, Note_off_c, 3, 67, 0
7, 108672, Note_on_c, 3, 68, 96
7, 108768, Note_off_c, 3, 68, 0
7, 108768, Note_on_c, 3, 70, 96
7, 108864, Note_off_c, 3, 70, 0
7, 108864, Note_on_c, 3, 70, 96
7, 109056, Note_off_c, 3, 70, 0
7, 109056, Note_on_c, 3, 68, 96
7, 109248, Note_off_c, 3, 68, 0
7, 109248, Note_on_c, 3, 68, 96
7, 109440, Note_off_c, 3, 68, 0
7, 109440, Note_on_c, 3, 67, 96
7, 109632, Note_off_c, 3, 67, 0
7, 109632, Note_on_c, 3, 67, 96
7, 109728, Note_off_c, 3, 67, 0
7, 109728, Note_on_c, 3, 65, 96
7, 109824, Note_off_c, 3, 65, 0
7, 109824, Note_on_c, 3, 64, 96
7, 110016, Note_off_c, 3, 64, 0
7, 110016, Note_on_c, 3, 65, 96
7, 110784, Note_off_c, 3, 65, 0
7, 110784, Note_on_c, 3, 65, 96
7, 111168, Note_off_c, 3, 65, 0
7, 111168, Note_on_c, 3, 68, 96
7, 111360, Note_off_c, 3, 68, 0
7, 111360, Note_on_c, 3, 65, 96
7, 111552, Note_off_c, 3, 65, 0
7, 111552, Note_on_c, 3, 67, 96
7, 111936, Note_off_c, 3, 67, 0
7, 111936, Note_on_c, 3, 74, 96
7, 112128, Note_off_c, 3, 74, 0
7, 112128, Note_on_c, 3, 71, 96
7, 112320, Note_off_c, 3, 71, 0
7, 112320, Note_on_c, 3, 72, 96
7, 112512, Note_off_c, 3, 72, 0
7, 112512, Note_on_c, 3, 67, 96
7, 112704, Note_off_c, 3, 67, 0
7, 112704, Note_on_c, 3, 65, 96
7, 112896, Note_off_c, 3, 65, 0
7, 112896, Note_on_c, 3, 63, 96
7, 113088, Note_off_c, 3, 63, 0
7, 113088, Note_on_c, 3, 65, 96
7, 113472, Note_off_c, 3, 65, 0
7, 113472, Note_on_c, 3, 63, 96
7, 113664, Note_off_c, 3, 63, 0
7, 113664, Note_on_c, 3, 68, 96
7, 113856, Note_off_c, 3, 68, 0
7, 113856, Note_on_c, 3, 67, 96
7, 114048, Note_off_c, 3, 67, 0
7, 114048, Note_on_c, 3, 65, 96
7, 114240, Note_off_c, 3, 65, 0
7, 114240, Note_on_c, 3, 63, 96
7, 114432, Note_off_c, 3, 63, 0
7, 114432, Note_on_c, 3, 62, 96
7, 114816, Note_off_c, 3, 62, 0
7, 114816, Note_on_c, 3, 68, 76
7, 115008, Note_off_c, 3, 68, 0
7, 115008, Note_on_c, 3, 70, 76
7, 115200, Note_off_c, 3, 70, 0
7, 115200, Note_on_c, 3, 67, 76
7, 115392, Note_off_c, 3, 67, 0
7, 115392, Note_on_c, 3, 65, 76
7, 115968, Note_off_c, 3, 65, 0
7, 115968, Note_on_c, 3, 68, 76
7, 116160, Note_off_c, 3, 68, 0
7, 116160, Note_on_c, 3, 70, 76
7, 116352, Note_off_c, 3, 70, 0
7, 116352, Note_on_c, 3, 67, 76
7, 116544, Note_off_c, 3, 67, 0
7, 116544, Note_on_c, 3, 63, 76
7, 116928, Note_off_c, 3, 63, 0
7, 116928, Note_on_c, 3, 65, 76
7, 117120, Note_off_c, 3, 65, 0
7, 117120, Note_on_c, 3, 77, 117
7, 117312, Note_off_c, 3, 77, 0
7, 117312, Note_on_c, 3, 75, 117
7, 117504, Note_off_c, 3, 75, 0
7, 117504, Note_on_c, 3, 72, 117
7, 117696, Note_off_c, 3, 72, 0
7, 117696, Note_on_c, 3, 70, 117
7, 118080, Note_off_c, 3, 70, 0
7, 118080, Note_on_c, 3, 67, 117
7, 118272, Note_off_c, 3, 67, 0
7, 118272, Note_on_c, 3, 65, 117
7, 118464, Note_off_c, 3, 65, 0
7, 118464, Note_on_c, 3, 63, 117
7, 118656, Note_off_c, 3, 63, 0
7, 118656, Note_on_c, 3, 62, 117
7, 118848, Note_off_c, 3, 62, 0
7, 118848, Note_on_c, 3, 58, 76
7, 120000, Note_off_c, 3, 58, 0
7, 120000, Note_on_c, 3, 67, 76
7, 120192, Note_off_c, 3, 67, 0
7, 120192, Note_on_c, 3, 68, 76
7, 120288, Note_off_c, 3, 68, 0
7, 120288, Note_on_c, 3, 70, 76
7, 120384, Note_off_c, 3, 70, 0
7, 120384, Note_on_c, 3, 68, 76
7, 120576, Note_off_c, 3, 68, 0
7, 120576, Note_on_c, 3, 67, 76
7, 120768, Note_off_c, 3, 67, 0
7, 120768, Note_on_c, 3, 65, 76
7, 120960, Note_off_c, 3, 65, 0
7, 120960, Note_on_c, 3, 63, 76
7, 121152, Note_off_c, 3, 63, 0
7, 121152, Note_on_c, 3, 63, 96
7, 121920, Note_off_c, 3, 63, 0
7, 122304, Note_on_c, 3, 70, 96
7, 122496, Note_off_c, 3, 70, 0
7, 122496, Note_on_c, 3, 72, 96
7, 122592, Note_off_c, 3, 72, 0
7, 122592, Note_on_c, 3, 73, 96
7, 122688, Note_off_c, 3, 73, 0
7, 122688, Note_on_c, 3, 73, 96
7, 122880, Note_off_c, 3, 73, 0
7, 122880, Note_on_c, 3, 72, 96
7, 123072, Note_off_c, 3, 72, 0
7, 123072, Note_on_c, 3, 72, 96
7, 123264, Note_off_c, 3, 72, 0
7, 123264, Note_on_c, 3, 70, 96
7, 123456, Note_off_c, 3, 70, 0
7, 123456, Note_on_c, 3, 70, 96
7, 123552, Note_off_c, 3, 70, 0
7, 123552, Note_on_c, 3, 68, 96
7, 123648, Note_off_c, 3, 68, 0
7, 123648, Note_on_c, 3, 67, 96
7, 123840, Note_off_c, 3, 67, 0
7, 123840, Note_on_c, 3, 68, 96
7, 124608, Note_off_c, 3, 68, 0
7, 124608, Note_on_c, 3, 67, 96
7, 124992, Note_off_c, 3, 67, 0
7, 124992, Note_on_c, 3, 72, 117
7, 126144, Note_off_c, 3, 72, 0
7, 126144, Note_on_c, 3, 65, 117
7, 126336, Note_off_c, 3, 65, 0
7, 126336, Note_on_c, 3, 64, 117
7, 126528, Note_off_c, 3, 64, 0
7, 126528, Note_on_c, 3, 65, 117
7, 126720, Note_off_c, 3, 65, 0
7, 126720, Note_on_c, 3, 68, 117
7, 126912, Note_off_c, 3, 68, 0
7, 126912, Note_on_c, 3, 71, 117
7, 127296, Note_off_c, 3, 71, 0
7, 128064, Note_on_c, 3, 62, 117
7, 128640, Note_off_c, 3, 62, 0
7, 128640, Note_on_c, 3, 65, 57
7, 128832, Note_off_c, 3, 65, 0
7, 128832, Note_on_c, 3, 67, 57
7, 129024, Note_off_c, 3, 67, 0
7, 129024, Note_on_c, 3, 63, 57
7, 129216, Note_off_c, 3, 63, 0
7, 129216, Note_on_c, 3, 60, 57
7, 129408, Note_off_c, 3, 60, 0
7, 129408, Note_on_c, 3, 62, 57
7, 129792, Note_off_c, 3, 62, 0
7, 129792, Note_on_c, 3, 65, 57
7, 129984, Note_off_c, 3, 65, 0
7, 129984, Note_on_c, 3, 67, 57
7, 130176, Note_off_c, 3, 67, 0
7, 130176, Note_on_c, 3, 63, 57
7, 130368, Note_off_c, 3, 63, 0
7, 130368, Note_on_c, 3, 60, 57
7, 130752, Note_off_c, 3, 60, 0
7, 130752, Note_on_c, 3, 62, 57
7, 130944, Note_off_c, 3, 62, 0
7, 130944, Note_on_c, 3, 74, 117
7, 131136, Note_off_c, 3, 74, 0
7, 131136, Note_on_c, 3, 72, 117
7, 131328, Note_off_c, 3, 72, 0
7, 131328, Note_on_c, 3, 71, 117
7, 131520, Note_off_c, 3, 71, 0
7, 131520, Note_on_c, 3, 65, 117
7, 131712, Note_off_c, 3, 65, 0
7, 131712, Note_on_c, 3, 67, 117
7, 131904, Note_off_c, 3, 67, 0
7, 131904, Note_on_c, 3, 63, 117
7, 132096, Note_off_c, 3, 63, 0
7, 132096, Note_on_c, 3, 62, 117
7, 132288, Note_off_c, 3, 62, 0
7, 132288, Note_on_c, 3, 60, 117
7, 132480, Note_off_c, 3, 60, 0
7, 132480, Note_on_c, 3, 59, 117
7, 132672, Note_off_c, 3, 59, 0
7, 132672, Note_on_c, 3, 67, 117
7, 133824, Note_off_c, 3, 67, 0
7, 133824, Note_on_c, 3, 63, 76
7, 134592, Note_off_c, 3, 63, 0
7, 134592, Note_on_c, 3, 62, 76
7, 134784, Note_off_c, 3, 62, 0
7, 134784, Note_on_c, 3, 63, 76
7, 134976, Note_off_c, 3, 63, 0
7, 134976, Note_on_c, 3, 67, 76
7, 136128, Note_off_c, 3, 67, 0
7, 136128, Note_on_c, 3, 70, 76
7, 136320, Note_off_c, 3, 70, 0
7, 136320, Note_on_c, 3, 72, 76
7, 136416, Note_off_c, 3, 72, 0
7, 136416, Note_on_c, 3, 73, 76
7, 136512, Note_off_c, 3, 73, 0
7, 136512, Note_on_c, 3, 73, 76
7, 136704, Note_off_c, 3, 73, 0
7, 136704, Note_on_c, 3, 72, 76
7, 136896, Note_off_c, 3, 72, 0
7, 136896, Note_on_c, 3, 72, 76
7, 137088, Note_off_c, 3, 72, 0
7, 137088, Note_on_c, 3, 70, 76
7, 137280, Note_off_c, 3, 70, 0
7, 137280, Note_on_c, 3, 70, 76
7, 137376, Note_off_c, 3, 70, 0
7, 137376, Note_on_c, 3, 68, 76
7, 137472, Note_off_c, 3, 68, 0
7, 137472, Note_on_c, 3, 67, 76
7, 137664, Note_off_c, 3, 67, 0
7, 137664, Note_on_c, 3, 68, 76
7, 138432, Note_off_c, 3, 68, 0
7, 138432, Note_on_c, 3, 67, 76
7, 138816, Note_off_c, 3, 67, 0
7, 138816, Note_on_c, 3, 72, 96
7, 139968, Note_off_c, 3, 72, 0
7, 139968, Note_on_c, 3, 65, 96
7, 140160, Note_off_c, 3, 65, 0
7, 140160, Note_on_c, 3, 64, 96
7, 140352, Note_off_c, 3, 64, 0
7, 140352, Note_on_c, 3, 65, 96
7, 140544, Note_off_c, 3, 65, 0
7, 140544, Note_on_c, 3, 68, 96
7, 140736, Note_off_c, 3, 68, 0
7, 140736, Note_on_c, 3, 71, 96
7, 141120, Note_off_c, 3, 71, 0
7, 141888, Note_on_c, 3, 62, 96
7, 142464, Note_off_c, 3, 62, 0
7, 142464, Note_on_c, 3, 65, 57
7, 142656, Note_off_c, 3, 65, 0
7, 142656, Note_on_c, 3, 67, 57
7, 142848, Note_off_c, 3, 67, 0
7, 142848, Note_on_c, 3, 63, 57
7, 143040, Note_off_c, 3, 63, 0
7, 143040, Note_on_c, 3, 60, 57
7, 143232, Note_off_c, 3, 60, 0
7, 143232, Note_on_c, 3, 62, 57
7, 143616, Note_off_c, 3, 62, 0
7, 143616, Note_on_c, 3, 65, 57
7, 143808, Note_off_c, 3, 65, 0
7, 143808, Note_on_c, 3, 67, 57
7, 144000, Note_off_c, 3, 67, 0
7, 144000, Note_on_c, 3, 63, 57
7, 144192, Note_off_c, 3, 63, 0
7, 144192, Note_on_c, 3, 60, 57
7, 144576, Note_off_c, 3, 60, 0
7, 144576, Note_on_c, 3, 62, 57
7, 144768, Note_off_c, 3, 62, 0
7, 144768, Note_on_c, 3, 74, 117
7, 144960, Note_off_c, 3, 74, 0
7, 144960, Note_on_c, 3, 72, 117
7, 145152, Note_off_c, 3, 72, 0
7, 145152, Note_on_c, 3, 71, 117
7, 145344, Note_off_c, 3, 71, 0
7, 145344, Note_on_c, 3, 65, 117
7, 145536, Note_off_c, 3, 65, 0
7, 145536, Note_on_c, 3, 67, 117
7, 145728, Note_off_c, 3, 67, 0
7, 145728, Note_on_c, 3, 63, 117
7, 145920, Note_off_c, 3, 63, 0
7, 145920, Note_on_c, 3, 62, 117
7, 146112, Note_off_c, 3, 62, 0
7, 146112, Note_on_c, 3, 60, 117
7, 146304, Note_off_c, 3, 60, 0
7, 146304, Note_on_c, 3, 59, 117
7, 146496, Note_off_c, 3, 59, 0
7, 146496, Note_on_c, 3, 67, 117
7, 147648, Note_off_c, 3, 67, 0
7, 147648, End_track
8, 0, Start_track
8, 0, Title_t, "Viola"
8, 0, Control_c, 4, 0, 0
8, 0, Program_c, 4, 41
8, 0, Control_c, 4, 10, 105
8, 0, Key_signature, -3, "major"
8, 0, Control_c, 4, 7, 127
8, 0, Note_on_c, 4, 72, 75
8, 192, Note_off_c, 4, 72, 0
8, 192, Note_on_c, 4, 70, 75
8, 384, Note_off_c, 4, 70, 0
8, 384, Note_on_c, 4, 68, 75
8, 576, Note_off_c, 4, 68, 0
8, 576, Note_on_c, 4, 67, 75
8, 768, Note_off_c, 4, 67, 0
8, 768, Note_on_c, 4, 65, 75
8, 960, Note_off_c, 4, 65, 0
8, 960, Note_on_c, 4, 63, 75
8, 1152, Note_off_c, 4, 63, 0
8, 1152, Note_on_c, 4, 62, 75
8, 2304, Note_off_c, 4, 62, 0
8, 2304, Note_on_c, 4, 64, 75
8, 2688, Note_off_c, 4, 64, 0
8, 2688, Note_on_c, 4, 64, 75
8, 3072, Note_off_c, 4, 64, 0
8, 3072, Note_on_c, 4, 64, 75
8, 3456, Note_off_c, 4, 64, 0
8, 3456, Note_on_c, 4, 60, 75
8, 4032, Note_off_c, 4, 60, 0
8, 4032, Note_on_c, 4, 62, 75
8, 4224, Note_off_c, 4, 62, 0
8, 4224, Note_on_c, 4, 59, 75
8, 4416, Note_off_c, 4, 59, 0
8, 4416, Note_on_c, 4, 60, 75
8, 4608, Note_off_c, 4, 60, 0
8, 4608, Note_on_c, 4, 62, 75
8, 4992, Note_off_c, 4, 62, 0
8, 4992, Note_on_c, 4, 68, 75
8, 5184, Note_off_c, 4, 68, 0
8, 5184, Note_on_c, 4, 65, 75
8, 5376, Note_off_c, 4, 65, 0
8, 5376, Note_on_c, 4, 67, 75
8, 5952, Note_off_c, 4, 67, 0
8, 5952, Note_on_c, 4, 65, 75
8, 6144, Note_off_c, 4, 65, 0
8, 6144, Note_on_c, 4, 67, 75
8, 6336, Note_off_c, 4, 67, 0
8, 6336, Note_on_c, 4, 63, 75
8, 6528, Note_off_c, 4, 63, 0
8, 6528, Note_on_c, 4, 62, 75
8, 6720, Note_off_c, 4, 62, 0
8, 6720, Note_on_c, 4, 60, 75
8, 6912, Note_off_c, 4, 60, 0
8, 6912, Note_on_c, 4, 58, 75
8, 7680, Note_off_c, 4, 58, 0
8, 7680, Note_on_c, 4, 60, 75
8, 8064, Note_off_c, 4, 60, 0
8, 8064, Note_on_c, 4, 58, 75
8, 8640, Note_off_c, 4, 58, 0
8, 8640, Note_on_c, 4, 65, 60
8, 8832, Note_off_c, 4, 65, 0
8, 8832, Note_on_c, 4, 67, 60
8, 9024, Note_off_c, 4, 67, 0
8, 9024, Note_on_c, 4, 63, 60
8, 9216, Note_off_c, 4, 63, 0
8, 9216, Note_on_c, 4, 60, 60
8, 9408, Note_off_c, 4, 60, 0
8, 9408, Note_on_c, 4, 62, 60
8, 9600, Note_off_c, 4, 62, 0
8, 9600, Note_on_c, 4, 62, 60
8, 9792, Note_off_c, 4, 62, 0
8, 9792, Note_on_c, 4, 65, 60
8, 9984, Note_off_c, 4, 65, 0
8, 9984, Note_on_c, 4, 67, 60
8, 10176, Note_off_c, 4, 67, 0
8, 10176, Note_on_c, 4, 63, 60
8, 10368, Note_off_c, 4, 63, 0
8, 10368, Note_on_c, 4, 60, 60
8, 10752, Note_off_c, 4, 60, 0
8, 10752, Note_on_c, 4, 62, 60
8, 10944, Note_off_c, 4, 62, 0
8, 10944, Note_on_c, 4, 70, 92
8, 11136, Note_off_c, 4, 70, 0
8, 11136, Note_on_c, 4, 70, 92
8, 11328, Note_off_c, 4, 70, 0
8, 11328, Note_on_c, 4, 68, 92
8, 11520, Note_off_c, 4, 68, 0
8, 11520, Note_on_c, 4, 68, 92
8, 11712, Note_off_c, 4, 68, 0
8, 11712, Note_on_c, 4, 67, 92
8, 11904, Note_off_c, 4, 67, 0
8, 11904, Note_on_c, 4, 58, 92
8, 12096, Note_off_c, 4, 58, 0
8, 12096, Note_on_c, 4, 60, 92
8, 12288, Note_off_c, 4, 60, 0
8, 12288, Note_on_c, 4, 58, 92
8, 12480, Note_off_c, 4, 58, 0
8, 12480, Note_on_c, 4, 56, 92
8, 12672, Note_off_c, 4, 56, 0
8, 12672, Note_on_c, 4, 55, 92
8, 13824, Note_off_c, 4, 55, 0
8, 13824, Note_on_c, 4, 72, 75
8, 14016, Note_off_c, 4, 72, 0
8, 14016, Note_on_c, 4, 70, 75
8, 14208, Note_off_c, 4, 70, 0
8, 14208, Note_on_c, 4, 68, 75
8, 14400, Note_off_c, 4, 68, 0
8, 14400, Note_on_c, 4, 67, 75
8, 14592, Note_off_c, 4, 67, 0
8, 14592, Note_on_c, 4, 65, 75
8, 14784, Note_off_c, 4, 65, 0
8, 14784, Note_on_c, 4, 63, 75
8, 14976, Note_off_c, 4, 63, 0
8, 14976, Note_on_c, 4, 62, 75
8, 16128, Note_off_c, 4, 62, 0
8, 16128, Note_on_c, 4, 64, 75
8, 17280, Note_off_c, 4, 64, 0
8, 17280, Note_on_c, 4, 60, 75
8, 17664, Note_off_c, 4, 60, 0
8, 17664, Note_on_c, 4, 60, 75
8, 17856, Note_off_c, 4, 60, 0
8, 17856, Note_on_c, 4, 62, 75
8, 18048, Note_off_c, 4, 62, 0
8, 18048, Note_on_c, 4, 59, 75
8, 18240, Note_off_c, 4, 59, 0
8, 18240, Note_on_c, 4, 60, 75
8, 18432, Note_off_c, 4, 60, 0
8, 18432, Note_on_c, 4, 62, 75
8, 18816, Note_off_c, 4, 62, 0
8, 19584, Note_on_c, 4, 67, 75
8, 19776, Note_off_c, 4, 67, 0
8, 19776, Note_on_c, 4, 65, 75
8, 19968, Note_off_c, 4, 65, 0
8, 19968, Note_on_c, 4, 67, 75
8, 20160, Note_off_c, 4, 67, 0
8, 20160, Note_on_c, 4, 63, 75
8, 20352, Note_off_c, 4, 63, 0
8, 20352, Note_on_c, 4, 62, 75
8, 20544, Note_off_c, 4, 62, 0
8, 20544, Note_on_c, 4, 60, 75
8, 20736, Note_off_c, 4, 60, 0
8, 20736, Note_on_c, 4, 58, 75
8, 21504, Note_off_c, 4, 58, 0
8, 21504, Note_on_c, 4, 60, 75
8, 21888, Note_off_c, 4, 60, 0
8, 21888, Note_on_c, 4, 58, 75
8, 22272, Note_off_c, 4, 58, 0
8, 22464, Note_on_c, 4, 65, 60
8, 22656, Note_off_c, 4, 65, 0
8, 22656, Note_on_c, 4, 67, 60
8, 22848, Note_off_c, 4, 67, 0
8, 22848, Note_on_c, 4, 63, 60
8, 23040, Note_off_c, 4, 63, 0
8, 23040, Note_on_c, 4, 60, 60
8, 23232, Note_off_c, 4, 60, 0
8, 23232, Note_on_c, 4, 62, 60
8, 23424, Note_off_c, 4, 62, 0
8, 23616, Note_on_c, 4, 65, 60
8, 23808, Note_off_c, 4, 65, 0
8, 23808, Note_on_c, 4, 67, 60
8, 24000, Note_off_c, 4, 67, 0
8, 24000, Note_on_c, 4, 63, 60
8, 24192, Note_off_c, 4, 63, 0
8, 24192, Note_on_c, 4, 60, 60
8, 24576, Note_off_c, 4, 60, 0
8, 24576, Note_on_c, 4, 62, 60
8, 24768, Note_off_c, 4, 62, 0
8, 24768, Note_on_c, 4, 70, 92
8, 24960, Note_off_c, 4, 70, 0
8, 24960, Note_on_c, 4, 70, 92
8, 25152, Note_off_c, 4, 70, 0
8, 25152, Note_on_c, 4, 68, 92
8, 25344, Note_off_c, 4, 68, 0
8, 25344, Note_on_c, 4, 68, 92
8, 25536, Note_off_c, 4, 68, 0
8, 25536, Note_on_c, 4, 67, 92
8, 25728, Note_off_c, 4, 67, 0
8, 25728, Note_on_c, 4, 58, 92
8, 25920, Note_off_c, 4, 58, 0
8, 25920, Note_on_c, 4, 60, 92
8, 26112, Note_off_c, 4, 60, 0
8, 26112, Note_on_c, 4, 58, 92
8, 26304, Note_off_c, 4, 58, 0
8, 26304, Note_on_c, 4, 56, 92
8, 26496, Note_off_c, 4, 56, 0
8, 26496, Note_on_c, 4, 55, 60
8, 27648, Note_off_c, 4, 55, 0
8, 27648, Note_on_c, 4, 63, 60
8, 28416, Note_off_c, 4, 63, 0
8, 28416, Note_on_c, 4, 62, 60
8, 28608, Note_off_c, 4, 62, 0
8, 28608, Note_on_c, 4, 63, 60
8, 28800, Note_off_c, 4, 63, 0
8, 28800, Note_on_c, 4, 67, 75
8, 29568, Note_off_c, 4, 67, 0
8, 29952, Note_on_c, 4, 63, 75
8, 30336, Note_off_c, 4, 63, 0
8, 30336, Note_on_c, 4, 70, 75
8, 30720, Note_off_c, 4, 70, 0
8, 30720, Note_on_c, 4, 63, 75
8, 31104, Note_off_c, 4, 63, 0
8, 31104, Note_on_c, 4, 63, 75
8, 31488, Note_off_c, 4, 63, 0
8, 31488, Note_on_c, 4, 63, 75
8, 32256, Note_off_c, 4, 63, 0
8, 32256, Note_on_c, 4, 60, 75
8, 32640, Note_off_c, 4, 60, 0
8, 32640, Note_on_c, 4, 70, 92
8, 33600, Note_off_c, 4, 70, 0
8, 33600, Note_on_c, 4, 64, 92
8, 33792, Note_off_c, 4, 64, 0
8, 33792, Note_on_c, 4, 60, 92
8, 34176, Note_off_c, 4, 60, 0
8, 34176, Note_on_c, 4, 60, 92
8, 34560, Note_off_c, 4, 60, 0
8, 34560, Note_on_c, 4, 65, 92
8, 34752, Note_off_c, 4, 65, 0
8, 34752, Note_on_c, 4, 67, 92
8, 34944, Note_off_c, 4, 67, 0
8, 34944, Note_on_c, 4, 65, 92
8, 35136, Note_off_c, 4, 65, 0
8, 35136, Note_on_c, 4, 63, 92
8, 35328, Note_off_c, 4, 63, 0
8, 35328, Note_on_c, 4, 62, 92
8, 35520, Note_off_c, 4, 62, 0
8, 35520, Note_on_c, 4, 63, 92
8, 35712, Note_off_c, 4, 63, 0
8, 35712, Note_on_c, 4, 59, 92
8, 36288, Note_off_c, 4, 59, 0
8, 36288, Note_on_c, 4, 62, 45
8, 36480, Note_off_c, 4, 62, 0
8, 36480, Note_on_c, 4, 63, 45
8, 36672, Note_off_c, 4, 63, 0
8, 36672, Note_on_c, 4, 60, 45
8, 36864, Note_off_c, 4, 60, 0
8, 36864, Note_on_c, 4, 57, 45
8, 37056, Note_off_c, 4, 57, 0
8, 37056, Note_on_c, 4, 59, 45
8, 37440, Note_off_c, 4, 59, 0
8, 37440, Note_on_c, 4, 62, 45
8, 37632, Note_off_c, 4, 62, 0
8, 37632, Note_on_c, 4, 63, 45
8, 37824, Note_off_c, 4, 63, 0
8, 37824, Note_on_c, 4, 60, 45
8, 38016, Note_off_c, 4, 60, 0
8, 38016, Note_on_c, 4, 57, 45
8, 38400, Note_off_c, 4, 57, 0
8, 38400, Note_on_c, 4, 59, 45
8, 38592, Note_off_c, 4, 59, 0
8, 38592, Note_on_c, 4, 68, 92
8, 38784, Note_off_c, 4, 68, 0
8, 38784, Note_on_c, 4, 67, 92
8, 38976, Note_off_c, 4, 67, 0
8, 38976, Note_on_c, 4, 65, 92
8, 39168, Note_off_c, 4, 65, 0
8, 39168, Note_on_c, 4, 62, 92
8, 39360, Note_off_c, 4, 62, 0
8, 39360, Note_on_c, 4, 63, 92
8, 40320, Note_off_c, 4, 63, 0
8, 40320, Note_on_c, 4, 60, 92
8, 40320, Note_on_c, 4, 63, 92
8, 41472, Note_off_c, 4, 60, 0
8, 41472, Note_off_c, 4, 63, 0
8, 41472, Note_on_c, 4, 58, 60
8, 41856, Note_off_c, 4, 58, 0
8, 41856, Note_on_c, 4, 60, 60
8, 42240, Note_off_c, 4, 60, 0
8, 42624, Note_on_c, 4, 63, 60
8, 43776, Note_off_c, 4, 63, 0
8, 43776, Note_on_c, 4, 63, 60
8, 44160, Note_off_c, 4, 63, 0
8, 44160, Note_on_c, 4, 70, 60
8, 44544, Note_off_c, 4, 70, 0
8, 44544, Note_on_c, 4, 63, 60
8, 44928, Note_off_c, 4, 63, 0
8, 44928, Note_on_c, 4, 63, 60
8, 45312, Note_off_c, 4, 63, 0
8, 45312, Note_on_c, 4, 63, 60
8, 46080, Note_off_c, 4, 63, 0
8, 46080, Note_on_c, 4, 60, 60
8, 46464, Note_off_c, 4, 60, 0
8, 46464, Note_on_c, 4, 70, 75
8, 47424, Note_off_c, 4, 70, 0
8, 47424, Note_on_c, 4, 64, 75
8, 47616, Note_off_c, 4, 64, 0
8, 47616, Note_on_c, 4, 60, 75
8, 48000, Note_off_c, 4, 60, 0
8, 48000, Note_on_c, 4, 60, 75
8, 48384, Note_off_c, 4, 60, 0
8, 48384, Note_on_c, 4, 65, 75
8, 48576, Note_off_c, 4, 65, 0
8, 48576, Note_on_c, 4, 67, 75
8, 48768, Note_off_c, 4, 67, 0
8, 48768, Note_on_c, 4, 65, 75
8, 48960, Note_off_c, 4, 65, 0
8, 48960, Note_on_c, 4, 63, 75
8, 49152, Note_off_c, 4, 63, 0
8, 49152, Note_on_c, 4, 62, 75
8, 49344, Note_off_c, 4, 62, 0
8, 49344, Note_on_c, 4, 63, 75
8, 49536, Note_off_c, 4, 63, 0
8, 49536, Note_on_c, 4, 59, 75
8, 50112, Note_off_c, 4, 59, 0
8, 50112, Note_on_c, 4, 62, 45
8, 50304, Note_off_c, 4, 62, 0
8, 50304, Note_on_c, 4, 63, 45
8, 50496, Note_off_c, 4, 63, 0
8, 50496, Note_on_c, 4, 60, 45
8, 50688, Note_off_c, 4, 60, 0
8, 50688, Note_on_c, 4, 57, 45
8, 50880, Note_off_c, 4, 57, 0
8, 50880, Note_on_c, 4, 59, 45
8, 51264, Note_off_c, 4, 59, 0
8, 51264, Note_on_c, 4, 62, 45
8, 51456, Note_off_c, 4, 62, 0
8, 51456, Note_on_c, 4, 63, 45
8, 51648, Note_off_c, 4, 63, 0
8, 51648, Note_on_c, 4, 60, 45
8, 51840, Note_off_c, 4, 60, 0
8, 51840, Note_on_c, 4, 57, 45
8, 52224, Note_off_c, 4, 57, 0
8, 52224, Note_on_c, 4, 59, 45
8, 52416, Note_off_c, 4, 59, 0
8, 52416, Note_on_c, 4, 68, 92
8, 52608, Note_off_c, 4, 68, 0
8, 52608, Note_on_c, 4, 67, 92
8, 52800, Note_off_c, 4, 67, 0
8, 52800, Note_on_c, 4, 65, 92
8, 52992, Note_off_c, 4, 65, 0
8, 52992, Note_on_c, 4, 62, 92
8, 53184, Note_off_c, 4, 62, 0
8, 53184, Note_on_c, 4, 63, 92
8, 53376, Note_off_c, 4, 63, 0
8, 53376, Note_on_c, 4, 55, 92
8, 53568, Note_off_c, 4, 55, 0
8, 53568, Note_on_c, 4, 56, 92
8, 53760, Note_off_c, 4, 56, 0
8, 53760, Note_on_c, 4, 55, 92
8, 53952, Note_off_c, 4, 55, 0
8, 53952, Note_on_c, 4, 53, 92
8, 54144, Note_off_c, 4, 53, 0
8, 54144, Note_on_c, 4, 60, 92
8, 54144, Note_on_c, 4, 63, 92
8, 55296, Note_off_c, 4, 60, 0
8, 55296, Note_off_c, 4, 63, 0
8, 55488, Note_on_c, 4, 60, 75
8, 56256, Note_off_c, 4, 60, 0
8, 56256, Note_on_c, 4, 61, 75
8, 56640, Note_off_c, 4, 61, 0
8, 56640, Note_on_c, 4, 55, 75
8, 57216, Note_off_c, 4, 55, 0
8, 57216, Note_on_c, 4, 56, 75
8, 57408, Note_off_c, 4, 56, 0
8, 57408, Note_on_c, 4, 59, 75
8, 57600, Note_off_c, 4, 59, 0
8, 57600, Note_on_c, 4, 56, 75
8, 57792, Note_off_c, 4, 56, 0
8, 57792, Note_on_c, 4, 67, 75
8, 58176, Note_off_c, 4, 67, 0
8, 58176, Note_on_c, 4, 64, 75
8, 58560, Note_off_c, 4, 64, 0
8, 58560, Note_on_c, 4, 64, 75
8, 58944, Note_off_c, 4, 64, 0
8, 58944, Note_on_c, 4, 60, 75
8, 59328, Note_off_c, 4, 60, 0
8, 59328, Note_on_c, 4, 60, 75
8, 59520, Note_off_c, 4, 60, 0
8, 59520, Note_on_c, 4, 65, 75
8, 59904, Note_off_c, 4, 65, 0
8, 59904, Note_on_c, 4, 65, 75
8, 60096, Note_off_c, 4, 65, 0
8, 60096, Note_on_c, 4, 55, 75
8, 60288, Note_off_c, 4, 55, 0
8, 60288, Note_on_c, 4, 56, 75
8, 60480, Note_off_c, 4, 56, 0
8, 60480, Note_on_c, 4, 58, 75
8, 60672, Note_off_c, 4, 58, 0
8, 60672, Note_on_c, 4, 60, 75
8, 60864, Note_off_c, 4, 60, 0
8, 60864, Note_on_c, 4, 61, 75
8, 61056, Note_off_c, 4, 61, 0
8, 61056, Note_on_c, 4, 58, 75
8, 61248, Note_off_c, 4, 58, 0
8, 61248, Note_on_c, 4, 55, 75
8, 61632, Note_off_c, 4, 55, 0
8, 61632, Note_on_c, 4, 56, 75
8, 62016, Note_off_c, 4, 56, 0
8, 62016, Note_on_c, 4, 66, 75
8, 62400, Note_off_c, 4, 66, 0
8, 62400, Note_on_c, 4, 60, 75
8, 62784, Note_off_c, 4, 60, 0
8, 62976, Note_on_c, 4, 63, 75
8, 63168, Note_off_c, 4, 63, 0
8, 63168, Note_on_c, 4, 66, 75
8, 63360, Note_off_c, 4, 66, 0
8, 63360, Note_on_c, 4, 63, 75
8, 63552, Note_off_c, 4, 63, 0
8, 63552, Note_on_c, 4, 66, 75
8, 63936, Note_off_c, 4, 66, 0
8, 63936, Note_on_c, 4, 69, 75
8, 64320, Note_off_c, 4, 69, 0
8, 64320, Note_on_c, 4, 69, 75
8, 64704, Note_off_c, 4, 69, 0
8, 64704, Note_on_c, 4, 65, 75
8, 65088, Note_off_c, 4, 65, 0
8, 65088, Note_on_c, 4, 65, 75
8, 65280, Note_off_c, 4, 65, 0
8, 65280, Note_on_c, 4, 65, 45
8, 65472, Note_off_c, 4, 65, 0
8, 65472, Note_on_c, 4, 66, 45
8, 65664, Note_off_c, 4, 66, 0
8, 65664, Note_on_c, 4, 63, 45
8, 65856, Note_off_c, 4, 63, 0
8, 65856, Note_on_c, 4, 60, 45
8, 66048, Note_off_c, 4, 60, 0
8, 66048, Note_on_c, 4, 62, 45
8, 66240, Note_off_c, 4, 62, 0
8, 66240, Note_on_c, 4, 63, 45
8, 66432, Note_off_c, 4, 63, 0
8, 66432, Note_on_c, 4, 65, 45
8, 66624, Note_off_c, 4, 65, 0
8, 66624, Note_on_c, 4, 67, 45
8, 66816, Note_off_c, 4, 67, 0
8, 66816, Note_on_c, 4, 63, 45
8, 67008, Note_off_c, 4, 63, 0
8, 67008, Note_on_c, 4, 60, 45
8, 67392, Note_off_c, 4, 60, 0
8, 67392, Note_on_c, 4, 61, 45
8, 67776, Note_off_c, 4, 61, 0
8, 67776, Note_on_c, 4, 65, 45
8, 68160, Note_off_c, 4, 65, 0
8, 68160, Note_on_c, 4, 67, 75
8, 68544, Note_off_c, 4, 67, 0
8, 68544, Note_on_c, 4, 64, 75
8, 68928, Note_off_c, 4, 64, 0
8, 68928, Note_on_c, 4, 60, 75
8, 69312, Note_off_c, 4, 60, 0
8, 69312, Note_on_c, 4, 62, 75
8, 69504, Note_off_c, 4, 62, 0
8, 69504, Note_on_c, 4, 63, 75
8, 69696, Note_off_c, 4, 63, 0
8, 69696, Note_on_c, 4, 67, 75
8, 69888, Note_off_c, 4, 67, 0
8, 69888, Note_on_c, 4, 68, 75
8, 70080, Note_off_c, 4, 68, 0
8, 70080, Note_on_c, 4, 68, 75
8, 70464, Note_off_c, 4, 68, 0
8, 70464, Note_on_c, 4, 67, 75
8, 71616, Note_off_c, 4, 67, 0
8, 71616, Note_on_c, 4, 67, 92
8, 72000, Note_off_c, 4, 67, 0
8, 72000, Note_on_c, 4, 68, 92
8, 72384, Note_off_c, 4, 68, 0
8, 72384, Note_on_c, 4, 67, 92
8, 72768, Note_off_c, 4, 67, 0
8, 72768, Note_on_c, 4, 67, 92
8, 73152, Note_off_c, 4, 67, 0
8, 73152, Note_on_c, 4, 68, 92
8, 73536, Note_off_c, 4, 68, 0
8, 73536, Note_on_c, 4, 67, 92
8, 73920, Note_off_c, 4, 67, 0
8, 73920, Note_on_c, 4, 67, 92
8, 74112, Note_off_c, 4, 67, 0
8, 74112, Note_on_c, 4, 65, 92
8, 74304, Note_off_c, 4, 65, 0
8, 74304, Note_on_c, 4, 58, 92
8, 74688, Note_off_c, 4, 58, 0
8, 74688, Note_on_c, 4, 65, 92
8, 75072, Note_off_c, 4, 65, 0
8, 75072, Note_on_c, 4, 65, 92
8, 75264, Note_off_c, 4, 65, 0
8, 75264, Note_on_c, 4, 63, 92
8, 75456, Note_off_c, 4, 63, 0
8, 75456, Note_on_c, 4, 66, 92
8, 75840, Note_off_c, 4, 66, 0
8, 75840, Note_on_c, 4, 67, 92
8, 76224, Note_off_c, 4, 67, 0
8, 76224, Note_on_c, 4, 66, 92
8, 76416, Note_off_c, 4, 66, 0
8, 76416, Note_on_c, 4, 67, 92
8, 76608, Note_off_c, 4, 67, 0
8, 76608, Note_on_c, 4, 69, 92
8, 76800, Note_off_c, 4, 69, 0
8, 76800, Note_on_c, 4, 70, 92
8, 76992, Note_off_c, 4, 70, 0
8, 76992, Note_on_c, 4, 60, 92
8, 77184, Note_off_c, 4, 60, 0
8, 77184, Note_on_c, 4, 55, 92
8, 77376, Note_off_c, 4, 55, 0
8, 77952, Note_on_c, 4, 68, 45
8, 78144, Note_off_c, 4, 68, 0
8, 78144, Note_on_c, 4, 70, 45
8, 78336, Note_off_c, 4, 70, 0
8, 78336, Note_on_c, 4, 67, 45
8, 78528, Note_off_c, 4, 67, 0
8, 78528, Note_on_c, 4, 64, 45
8, 78720, Note_off_c, 4, 64, 0
8, 78720, Note_on_c, 4, 66, 45
8, 78912, Note_off_c, 4, 66, 0
8, 78912, Note_on_c, 4, 67, 45
8, 79104, Note_off_c, 4, 67, 0
8, 79104, Note_on_c, 4, 68, 45
8, 79296, Note_off_c, 4, 68, 0
8, 79296, Note_on_c, 4, 70, 45
8, 79488, Note_off_c, 4, 70, 0
8, 79488, Note_on_c, 4, 67, 45
8, 79680, Note_off_c, 4, 67, 0
8, 79680, Note_on_c, 4, 64, 45
8, 79872, Note_off_c, 4, 64, 0
8, 79872, Note_on_c, 4, 66, 45
8, 80064, Note_off_c, 4, 66, 0
8, 80064, Note_on_c, 4, 66, 45
8, 80256, Note_off_c, 4, 66, 0
8, 80256, Note_on_c, 4, 67, 92
8, 80448, Note_off_c, 4, 67, 0
8, 80448, Note_on_c, 4, 66, 92
8, 80640, Note_off_c, 4, 66, 0
8, 80640, Note_on_c, 4, 66, 92
8, 80832, Note_off_c, 4, 66, 0
8, 80832, Note_on_c, 4, 67, 92
8, 81024, Note_off_c, 4, 67, 0
8, 81024, Note_on_c, 4, 70, 92
8, 81216, Note_off_c, 4, 70, 0
8, 81216, Note_on_c, 4, 66, 92
8, 81408, Note_off_c, 4, 66, 0
8, 81408, Note_on_c, 4, 62, 92
8, 81600, Note_off_c, 4, 62, 0
8, 81600, Note_on_c, 4, 62, 92
8, 81792, Note_off_c, 4, 62, 0
8, 81792, Note_on_c, 4, 59, 92
8, 81984, Note_off_c, 4, 59, 0
8, 81984, Note_on_c, 4, 59, 75
8, 83136, Note_off_c, 4, 59, 0
8, 83136, Note_on_c, 4, 67, 75
8, 83904, Note_off_c, 4, 67, 0
8, 83904, Note_on_c, 4, 65, 75
8, 83904, Note_on_c, 4, 68, 75
8, 84096, Note_off_c, 4, 65, 0
8, 84096, Note_off_c, 4, 68, 0
8, 84096, Note_on_c, 4, 65, 75
8, 84096, Note_on_c, 4, 68, 75
8, 84288, Note_off_c, 4, 65, 0
8, 84288, Note_off_c, 4, 68, 0
8, 85440, Note_on_c, 4, 71, 75
8, 86208, Note_off_c, 4, 71, 0
8, 86208, Note_on_c, 4, 71, 75
8, 86592, Note_off_c, 4, 71, 0
8, 86592, Note_on_c, 4, 71, 75
8, 86976, Note_off_c, 4, 71, 0
8, 86976, Note_on_c, 4, 75, 75
8, 87168, Note_off_c, 4, 75, 0
8, 87168, Note_on_c, 4, 74, 75
8, 87360, Note_off_c, 4, 74, 0
8, 87360, Note_on_c, 4, 74, 75
8, 87552, Note_off_c, 4, 74, 0
8, 87552, Note_on_c, 4, 72, 75
8, 87744, Note_off_c, 4, 72, 0
8, 87744, Note_on_c, 4, 67, 75
8, 88128, Note_off_c, 4, 67, 0
8, 88128, Note_on_c, 4, 64, 75
8, 88512, Note_off_c, 4, 64, 0
8, 88512, Note_on_c, 4, 65, 75
8, 88896, Note_off_c, 4, 65, 0
8, 88896, Note_on_c, 4, 60, 75
8, 89664, Note_off_c, 4, 60, 0
8, 89664, Note_on_c, 4, 60, 75
8, 90048, Note_off_c, 4, 60, 0
8, 90048, Note_on_c, 4, 62, 75
8, 90432, Note_off_c, 4, 62, 0
8, 90432, Note_on_c, 4, 55, 75
8, 90624, Note_off_c, 4, 55, 0
8, 90624, Note_on_c, 4, 57, 75
8, 90816, Note_off_c, 4, 57, 0
8, 90816, Note_on_c, 4, 57, 75
8, 91008, Note_off_c, 4, 57, 0
8, 91008, Note_on_c, 4, 59, 75
8, 91200, Note_off_c, 4, 59, 0
8, 91200, Note_on_c, 4, 59, 75
8, 92352, Note_off_c, 4, 59, 0
8, 92352, Note_on_c, 4, 72, 75
8, 92544, Note_off_c, 4, 72, 0
8, 92544, Note_on_c, 4, 70, 75
8, 92736, Note_off_c, 4, 70, 0
8, 92736, Note_on_c, 4, 68, 75
8, 92928, Note_off_c, 4, 68, 0
8, 92928, Note_on_c, 4, 67, 75
8, 93120, Note_off_c, 4, 67, 0
8, 93120, Note_on_c, 4, 65, 75
8, 93312, Note_off_c, 4, 65, 0
8, 93312, Note_on_c, 4, 63, 75
8, 93504, Note_off_c, 4, 63, 0
8, 93504, Note_on_c, 4, 62, 75
8, 94656, Note_off_c, 4, 62, 0
8, 94656, Note_on_c, 4, 64, 75
8, 95040, Note_off_c, 4, 64, 0
8, 95040, Note_on_c, 4, 64, 75
8, 95424, Note_off_c, 4, 64, 0
8, 95424, Note_on_c, 4, 64, 75
8, 95808, Note_off_c, 4, 64, 0
8, 95808, Note_on_c, 4, 60, 75
8, 96384, Note_off_c, 4, 60, 0
8, 96384, Note_on_c, 4, 62, 75
8, 96576, Note_off_c, 4, 62, 0
8, 96576, Note_on_c, 4, 59, 75
8, 96768, Note_off_c, 4, 59, 0
8, 96768, Note_on_c, 4, 60, 75
8, 96960, Note_off_c, 4, 60, 0
8, 96960, Note_on_c, 4, 62, 75
8, 97344, Note_off_c, 4, 62, 0
8, 97344, Note_on_c, 4, 68, 75
8, 97536, Note_off_c, 4, 68, 0
8, 97536, Note_on_c, 4, 65, 75
8, 97728, Note_off_c, 4, 65, 0
8, 97728, Note_on_c, 4, 67, 75
8, 98304, Note_off_c, 4, 67, 0
8, 98304, Note_on_c, 4, 65, 75
8, 98496, Note_off_c, 4, 65, 0
8, 98496, Note_on_c, 4, 67, 75
8, 98688, Note_off_c, 4, 67, 0
8, 98688, Note_on_c, 4, 63, 75
8, 98880, Note_off_c, 4, 63, 0
8, 98880, Note_on_c, 4, 62, 75
8, 99072, Note_off_c, 4, 62, 0
8, 99072, Note_on_c, 4, 60, 75
8, 99264, Note_off_c, 4, 60, 0
8, 99264, Note_on_c, 4, 58, 75
8, 100032, Note_off_c, 4, 58, 0
8, 100032, Note_on_c, 4, 60, 75
8, 100416, Note_off_c, 4, 60, 0
8, 100416, Note_on_c, 4, 58, 75
8, 100992, Note_off_c, 4, 58, 0
8, 100992, Note_on_c, 4, 65, 60
8, 101184, Note_off_c, 4, 65, 0
8, 101184, Note_on_c, 4, 67, 60
8, 101376, Note_off_c, 4, 67, 0
8, 101376, Note_on_c, 4, 63, 60
8, 101568, Note_off_c, 4, 63, 0
8, 101568, Note_on_c, 4, 60, 60
8, 101760, Note_off_c, 4, 60, 0
8, 101760, Note_on_c, 4, 62, 60
8, 101952, Note_off_c, 4, 62, 0
8, 101952, Note_on_c, 4, 62, 60
8, 102144, Note_off_c, 4, 62, 0
8, 102144, Note_on_c, 4, 65, 60
8, 102336, Note_off_c, 4, 65, 0
8, 102336, Note_on_c, 4, 67, 60
8, 102528, Note_off_c, 4, 67, 0
8, 102528, Note_on_c, 4, 63, 60
8, 102720, Note_off_c, 4, 63, 0
8, 102720, Note_on_c, 4, 60, 60
8, 103104, Note_off_c, 4, 60, 0
8, 103104, Note_on_c, 4, 62, 60
8, 103296, Note_off_c, 4, 62, 0
8, 103296, Note_on_c, 4, 70, 92
8, 103488, Note_off_c, 4, 70, 0
8, 103488, Note_on_c, 4, 70, 92
8, 103680, Note_off_c, 4, 70, 0
8, 103680, Note_on_c, 4, 68, 92
8, 103872, Note_off_c, 4, 68, 0
8, 103872, Note_on_c, 4, 68, 92
8, 104064, Note_off_c, 4, 68, 0
8, 104064, Note_on_c, 4, 67, 92
8, 104256, Note_off_c, 4, 67, 0
8, 104256, Note_on_c, 4, 58, 92
8, 104448, Note_off_c, 4, 58, 0
8, 104448, Note_on_c, 4, 60, 92
8, 104640, Note_off_c, 4, 60, 0
8, 104640, Note_on_c, 4, 58, 92
8, 104832, Note_off_c, 4, 58, 0
8, 104832, Note_on_c, 4, 56, 92
8, 105024, Note_off_c, 4, 56, 0
8, 105024, Note_on_c, 4, 55, 92
8, 106176, Note_off_c, 4, 55, 0
8, 106176, Note_on_c, 4, 72, 75
8, 106368, Note_off_c, 4, 72, 0
8, 106368, Note_on_c, 4, 70, 75
8, 106560, Note_off_c, 4, 70, 0
8, 106560, Note_on_c, 4, 68, 75
8, 106752, Note_off_c, 4, 68, 0
8, 106752, Note_on_c, 4, 67, 75
8, 106944, Note_off_c, 4, 67, 0
8, 106944, Note_on_c, 4, 65, 75
8, 107136, Note_off_c, 4, 65, 0
8, 107136, Note_on_c, 4, 63, 75
8, 107328, Note_off_c, 4, 63, 0
8, 107328, Note_on_c, 4, 62, 75
8, 108480, Note_off_c, 4, 62, 0
8, 108480, Note_on_c, 4, 64, 75
8, 109632, Note_off_c, 4, 64, 0
8, 109632, Note_on_c, 4, 60, 75
8, 110016, Note_off_c, 4, 60, 0
8, 110016, Note_on_c, 4, 60, 75
8, 110208, Note_off_c, 4, 60, 0
8, 110208, Note_on_c, 4, 62, 75
8, 110400, Note_off_c, 4, 62, 0
8, 110400, Note_on_c, 4, 59, 75
8, 110592, Note_off_c, 4, 59, 0
8, 110592, Note_on_c, 4, 60, 75
8, 110784, Note_off_c, 4, 60, 0
8, 110784, Note_on_c, 4, 62, 75
8, 111168, Note_off_c, 4, 62, 0
8, 111936, Note_on_c, 4, 67, 75
8, 112128, Note_off_c, 4, 67, 0
8, 112128, Note_on_c, 4, 65, 75
8, 112320, Note_off_c, 4, 65, 0
8, 112320, Note_on_c, 4, 67, 75
8, 112512, Note_off_c, 4, 67, 0
8, 112512, Note_on_c, 4, 63, 75
8, 112704, Note_off_c, 4, 63, 0
8, 112704, Note_on_c, 4, 62, 75
8, 112896, Note_off_c, 4, 62, 0
8, 112896, Note_on_c, 4, 60, 75
8, 113088, Note_off_c, 4, 60, 0
8, 113088, Note_on_c, 4, 58, 75
8, 113856, Note_off_c, 4, 58, 0
8, 113856, Note_on_c, 4, 60, 75
8, 114240, Note_off_c, 4, 60, 0
8, 114240, Note_on_c, 4, 58, 75
8, 114624, Note_off_c, 4, 58, 0
8, 114816, Note_on_c, 4, 65, 60
8, 115008, Note_off_c, 4, 65, 0
8, 115008, Note_on_c, 4, 67, 60
8, 115200, Note_off_c, 4, 67, 0
8, 115200, Note_on_c, 4, 63, 60
8, 115392, Note_off_c, 4, 63, 0
8, 115392, Note_on_c, 4, 60, 60
8, 115584, Note_off_c, 4, 60, 0
8, 115584, Note_on_c, 4, 62, 60
8, 115776, Note_off_c, 4, 62, 0
8, 115968, Note_on_c, 4, 65, 60
8, 116160, Note_off_c, 4, 65, 0
8, 116160, Note_on_c, 4, 67, 60
8, 116352, Note_off_c, 4, 67, 0
8, 116352, Note_on_c, 4, 63, 60
8, 116544, Note_off_c, 4, 63, 0
8, 116544, Note_on_c, 4, 60, 60
8, 116928, Note_off_c, 4, 60, 0
8, 116928, Note_on_c, 4, 62, 60
8, 117120, Note_off_c, 4, 62, 0
8, 117120, Note_on_c, 4, 70, 92
8, 117312, Note_off_c, 4, 70, 0
8, 117312, Note_on_c, 4, 70, 92
8, 117504, Note_off_c, 4, 70, 0
8, 117504, Note_on_c, 4, 68, 92
8, 117696, Note_off_c, 4, 68, 0
8, 117696, Note_on_c, 4, 68, 92
8, 117888, Note_off_c, 4, 68, 0
8, 117888, Note_on_c, 4, 67, 92
8, 118080, Note_off_c, 4, 67, 0
8, 118080, Note_on_c, 4, 58, 92
8, 118272, Note_off_c, 4, 58, 0
8, 118272, Note_on_c, 4, 60, 92
8, 118464, Note_off_c, 4, 60, 0
8, 118464, Note_on_c, 4, 58, 92
8, 118656, Note_off_c, 4, 58, 0
8, 118656, Note_on_c, 4, 56, 92
8, 118848, Note_off_c, 4, 56, 0
8, 118848, Note_on_c, 4, 55, 60
8, 120000, Note_off_c, 4, 55, 0
8, 120000, Note_on_c, 4, 63, 60
8, 120768, Note_off_c, 4, 63, 0
8, 120768, Note_on_c, 4, 62, 60
8, 120960, Note_off_c, 4, 62, 0
8, 120960, Note_on_c, 4, 63, 60
8, 121152, Note_off_c, 4, 63, 0
8, 121152, Note_on_c, 4, 67, 75
8, 121920, Note_off_c, 4, 67, 0
8, 122304, Note_on_c, 4, 63, 75
8, 122688, Note_off_c, 4, 63, 0
8, 122688, Note_on_c, 4, 70, 75
8, 123072, Note_off_c, 4, 70, 0
8, 123072, Note_on_c, 4, 63, 75
8, 123456, Note_off_c, 4, 63, 0
8, 123456, Note_on_c, 4, 63, 75
8, 123840, Note_off_c, 4, 63, 0
8, 123840, Note_on_c, 4, 63, 75
8, 124608, Note_off_c, 4, 63, 0
8, 124608, Note_on_c, 4, 60, 75
8, 124992, Note_off_c, 4, 60, 0
8, 124992, Note_on_c, 4, 70, 92
8, 125952, Note_off_c, 4, 70, 0
8, 125952, Note_on_c, 4, 64, 92
8, 126144, Note_off_c, 4, 64, 0
8, 126144, Note_on_c, 4, 60, 92
8, 126528, Note_off_c, 4, 60, 0
8, 126528, Note_on_c, 4, 60, 92
8, 126912, Note_off_c, 4, 60, 0
8, 126912, Note_on_c, 4, 65, 92
8, 127104, Note_off_c, 4, 65, 0
8, 127104, Note_on_c, 4, 67, 92
8, 127296, Note_off_c, 4, 67, 0
8, 127296, Note_on_c, 4, 65, 92
8, 127488, Note_off_c, 4, 65, 0
8, 127488, Note_on_c, 4, 63, 92
8, 127680, Note_off_c, 4, 63, 0
8, 127680, Note_on_c, 4, 62, 92
8, 127872, Note_off_c, 4, 62, 0
8, 127872, Note_on_c, 4, 63, 92
8, 128064, Note_off_c, 4, 63, 0
8, 128064, Note_on_c, 4, 59, 92
8, 128640, Note_off_c, 4, 59, 0
8, 128640, Note_on_c, 4, 62, 45
8, 128832, Note_off_c, 4, 62, 0
8, 128832, Note_on_c, 4, 63, 45
8, 129024, Note_off_c, 4, 63, 0
8, 129024, Note_on_c, 4, 60, 45
8, 129216, Note_off_c, 4, 60, 0
8, 129216, Note_on_c, 4, 57, 45
8, 129408, Note_off_c, 4, 57, 0
8, 129408, Note_on_c, 4, 59, 45
8, 129792, Note_off_c, 4, 59, 0
8, 129792, Note_on_c, 4, 62, 45
8, 129984, Note_off_c, 4, 62, 0
8, 129984, Note_on_c, 4, 63, 45
8, 130176, Note_off_c, 4, 63, 0
8, 130176, Note_on_c, 4, 60, 45
8, 130368, Note_off_c, 4, 60, 0
8, 130368, Note_on_c, 4, 57, 45
8, 130752, Note_off_c, 4, 57, 0
8, 130752, Note_on_c, 4, 59, 45
8, 130944, Note_off_c, 4, 59, 0
8, 130944, Note_on_c, 4, 68, 92
8, 131136, Note_off_c, 4, 68, 0
8, 131136, Note_on_c, 4, 67, 92
8, 131328, Note_off_c, 4, 67, 0
8, 131328, Note_on_c, 4, 65, 92
8, 131520, Note_off_c, 4, 65, 0
8, 131520, Note_on_c, 4, 62, 92
8, 131712, Note_off_c, 4, 62, 0
8, 131712, Note_on_c, 4, 63, 92
8, 132672, Note_off_c, 4, 63, 0
8, 132672, Note_on_c, 4, 60, 92
8, 132672, Note_on_c, 4, 63, 92
8, 133824, Note_off_c, 4, 60, 0
8, 133824, Note_off_c, 4, 63, 0
8, 133824, Note_on_c, 4, 58, 60
8, 134208, Note_off_c, 4, 58, 0
8, 134208, Note_on_c, 4, 60, 60
8, 134592, Note_off_c, 4, 60, 0
8, 134976, Note_on_c, 4, 63, 60
8, 136128, Note_off_c, 4, 63, 0
8, 136128, Note_on_c, 4, 63, 60
8, 136512, Note_off_c, 4, 63, 0
8, 136512, Note_on_c, 4, 70, 60
8, 136896, Note_off_c, 4, 70, 0
8, 136896, Note_on_c, 4, 63, 60
8, 137280, Note_off_c, 4, 63, 0
8, 137280, Note_on_c, 4, 63, 60
8, 137664, Note_off_c, 4, 63, 0
8, 137664, Note_on_c, 4, 63, 60
8, 138432, Note_off_c, 4, 63, 0
8, 138432, Note_on_c, 4, 60, 60
8, 138816, Note_off_c, 4, 60, 0
8, 138816, Note_on_c, 4, 70, 75
8, 139776, Note_off_c, 4, 70, 0
8, 139776, Note_on_c, 4, 64, 75
8, 139968, Note_off_c, 4, 64, 0
8, 139968, Note_on_c, 4, 60, 75
8, 140352, Note_off_c, 4, 60, 0
8, 140352, Note_on_c, 4, 60, 75
8, 140736, Note_off_c, 4, 60, 0
8, 140736, Note_on_c, 4, 65, 75
8, 140928, Note_off_c, 4, 65, 0
8, 140928, Note_on_c, 4, 67, 75
8, 141120, Note_off_c, 4, 67, 0
8, 141120, Note_on_c, 4, 65, 75
8, 141312, Note_off_c, 4, 65, 0
8, 141312, Note_on_c, 4, 63, 75
8, 141504, Note_off_c, 4, 63, 0
8, 141504, Note_on_c, 4, 62, 75
8, 141696, Note_off_c, 4, 62, 0
8, 141696, Note_on_c, 4, 63, 75
8, 141888, Note_off_c, 4, 63, 0
8, 141888, Note_on_c, 4, 59, 75
8, 142464, Note_off_c, 4, 59, 0
8, 142464, Note_on_c, 4, 62, 45
8, 142656, Note_off_c, 4, 62, 0
8, 142656, Note_on_c, 4, 63, 45
8, 142848, Note_off_c, 4, 63, 0
8, 142848, Note_on_c, 4, 60, 45
8, 143040, Note_off_c, 4, 60, 0
8, 143040, Note_on_c, 4, 57, 45
8, 143232, Note_off_c, 4, 57, 0
8, 143232, Note_on_c, 4, 59, 45
8, 143616, Note_off_c, 4, 59, 0
8, 143616, Note_on_c, 4, 62, 45
8, 143808, Note_off_c, 4, 62, 0
8, 143808, Note_on_c, 4, 63, 45
8, 144000, Note_off_c, 4, 63, 0
8, 144000, Note_on_c, 4, 60, 45
8, 144192, Note_off_c, 4, 60, 0
8, 144192, Note_on_c, 4, 57, 45
8, 144576, Note_off_c, 4, 57, 0
8, 144576, Note_on_c, 4, 59, 45
8, 144768, Note_off_c, 4, 59, 0
8, 144768, Note_on_c, 4, 68, 92
8, 144960, Note_off_c, 4, 68, 0
8, 144960, Note_on_c, 4, 67, 92
8, 145152, Note_off_c, 4, 67, 0
8, 145152, Note_on_c, 4, 65, 92
8, 145344, Note_off_c, 4, 65, 0
8, 145344, Note_on_c, 4, 62, 92
8, 145536, Note_off_c, 4, 62, 0
8, 145536, Note_on_c, 4, 63, 92
8, 145728, Note_off_c, 4, 63, 0
8, 145728, Note_on_c, 4, 55, 92
8, 145920, Note_off_c, 4, 55, 0
8, 145920, Note_on_c, 4, 56, 92
8, 146112, Note_off_c, 4, 56, 0
8, 146112, Note_on_c, 4, 55, 92
8, 146304, Note_off_c, 4, 55, 0
8, 146304, Note_on_c, 4, 53, 92
8, 146496, Note_off_c, 4, 53, 0
8, 146496, Note_on_c, 4, 60, 92
8, 146496, Note_on_c, 4, 63, 92
8, 147648, Note_off_c, 4, 60, 0
8, 147648, Note_off_c, 4, 63, 0
8, 147648, End_track
9, 0, Start_track
9, 0, Title_t, "Cello"
9, 0, Control_c, 5, 0, 0
9, 0, Program_c, 5, 42
9, 0, Control_c, 5, 10, 21
9, 0, Key_signature, -3, "major"
9, 0, Control_c, 5, 7, 127
9, 0, Note_on_c, 5, 36, 75
9, 0, Note_on_c, 5, 48, 75
9, 384, Note_off_c, 5, 36, 0
9, 384, Note_off_c, 5, 48, 0
9, 384, Note_on_c, 5, 36, 75
9, 384, Note_on_c, 5, 48, 75
9, 768, Note_off_c, 5, 36, 0
9, 768, Note_off_c, 5, 48, 0
9, 768, Note_on_c, 5, 36, 75
9, 768, Note_on_c, 5, 48, 75
9, 1152, Note_off_c, 5, 36, 0
9, 1152, Note_off_c, 5, 48, 0
9, 1152, Note_on_c, 5, 36, 75
9, 1152, Note_on_c, 5, 48, 75
9, 1344, Note_off_c, 5, 36, 0
9, 1344, Note_off_c, 5, 48, 0
9, 1344, Note_on_c, 5, 56, 75
9, 1536, Note_off_c, 5, 56, 0
9, 1536, Note_on_c, 5, 53, 75
9, 1728, Note_off_c, 5, 53, 0
9, 1728, Note_on_c, 5, 50, 75
9, 1920, Note_off_c, 5, 50, 0
9, 1920, Note_on_c, 5, 47, 75
9, 2112, Note_off_c, 5, 47, 0
9, 2112, Note_on_c, 5, 43, 75
9, 2304, Note_off_c, 5, 43, 0
9, 2304, Note_on_c, 5, 36, 75
9, 2304, Note_on_c, 5, 48, 75
9, 2688, Note_off_c, 5, 36, 0
9, 2688, Note_off_c, 5, 48, 0
9, 2688, Note_on_c, 5, 36, 75
9, 2688, Note_on_c, 5, 48, 75
9, 3072, Note_off_c, 5, 36, 0
9, 3072, Note_off_c, 5, 48, 0
9, 3072, Note_on_c, 5, 36, 75
9, 3072, Note_on_c, 5, 48, 75
9, 3456, Note_off_c, 5, 36, 0
9, 3456, Note_off_c, 5, 48, 0
9, 3456, Note_on_c, 5, 36, 75
9, 3456, Note_on_c, 5, 48, 75
9, 3648, Note_off_c, 5, 36, 0
9, 3648, Note_off_c, 5, 48, 0
9, 3648, Note_on_c, 5, 60, 75
9, 3840, Note_off_c, 5, 60, 0
9, 3840, Note_on_c, 5, 56, 75
9, 4032, Note_off_c, 5, 56, 0
9, 4032, Note_on_c, 5, 53, 75
9, 4224, Note_off_c, 5, 53, 0
9, 4224, Note_on_c, 5, 50, 75
9, 4416, Note_off_c, 5, 50, 0
9, 4416, Note_on_c, 5, 48, 75
9, 4608, Note_off_c, 5, 48, 0
9, 4608, Note_on_c, 5, 47, 75
9, 4800, Note_off_c, 5, 47, 0
9, 4800, Note_on_c, 5, 43, 75
9, 4992, Note_off_c, 5, 43, 0
9, 4992, Note_on_c, 5, 43, 75
9, 4992, Note_on_c, 5, 47, 75
9, 5184, Note_off_c, 5, 43, 0
9, 5184, Note_off_c, 5, 47, 0
9, 5184, Note_on_c, 5, 50, 75
9, 5376, Note_off_c, 5, 50, 0
9, 5376, Note_on_c, 5, 47, 75
9, 5376, Note_on_c, 5, 50, 75
9, 5568, Note_off_c, 5, 47, 0
9, 5568, Note_off_c, 5, 50, 0
9, 5568, Note_on_c, 5, 55, 75
9, 5760, Note_off_c, 5, 55, 0
9, 5760, Note_on_c, 5, 36, 75
9, 6144, Note_off_c, 5, 36, 0
9, 6144, Note_on_c, 5, 36, 75
9, 6528, Note_off_c, 5, 36, 0
9, 6528, Note_on_c, 5, 36, 75
9, 6528, Note_on_c, 5, 48, 75
9, 6912, Note_off_c, 5, 36, 0
9, 6912, Note_off_c, 5, 48, 0
9, 6912, Note_on_c, 5, 50, 75
9, 7296, Note_off_c, 5, 50, 0
9, 7296, Note_on_c, 5, 51, 75
9, 7680, Note_off_c, 5, 51, 0
9, 7680, Note_on_c, 5, 44, 75
9, 8064, Note_off_c, 5, 44, 0
9, 8064, Note_on_c, 5, 46, 75
9, 8448, Note_off_c, 5, 46, 0
9, 8448, Note_on_c, 5, 46, 75
9, 8832, Note_off_c, 5, 46, 0
9, 8832, Note_on_c, 5, 46, 60
9, 9216, Note_off_c, 5, 46, 0
9, 9216, Note_on_c, 5, 46, 60
9, 9600, Note_off_c, 5, 46, 0
9, 9600, Note_on_c, 5, 46, 60
9, 9984, Note_off_c, 5, 46, 0
9, 9984, Note_on_c, 5, 46, 60
9, 10368, Note_off_c, 5, 46, 0
9, 10368, Note_on_c, 5, 46, 60
9, 10944, Note_off_c, 5, 46, 0
9, 10944, Note_on_c, 5, 50, 92
9, 11136, Note_off_c, 5, 50, 0
9, 11136, Note_on_c, 5, 51, 92
9, 11328, Note_off_c, 5, 51, 0
9, 11328, Note_on_c, 5, 53, 92
9, 11520, Note_off_c, 5, 53, 0
9, 11520, Note_on_c, 5, 43, 92
9, 12096, Note_off_c, 5, 43, 0
9, 12096, Note_on_c, 5, 44, 92
9, 12288, Note_off_c, 5, 44, 0
9, 12288, Note_on_c, 5, 46, 92
9, 12480, Note_off_c, 5, 46, 0
9, 12480, Note_on_c, 5, 46, 92
9, 12672, Note_off_c, 5, 46, 0
9, 12672, Note_on_c, 5, 39, 92
9, 12864, Note_off_c, 5, 39, 0
9, 12864, Note_on_c, 5, 43, 92
9, 13056, Note_off_c, 5, 43, 0
9, 13056, Note_on_c, 5, 46, 92
9, 13248, Note_off_c, 5, 46, 0
9, 13248, Note_on_c, 5, 51, 92
9, 13440, Note_off_c, 5, 51, 0
9, 13440, Note_on_c, 5, 55, 92
9, 13632, Note_off_c, 5, 55, 0
9, 13632, Note_on_c, 5, 59, 92
9, 13824, Note_off_c, 5, 59, 0
9, 13824, Note_on_c, 5, 48, 75
9, 14208, Note_off_c, 5, 48, 0
9, 14208, Note_on_c, 5, 36, 75
9, 14592, Note_off_c, 5, 36, 0
9, 14592, Note_on_c, 5, 48, 75
9, 14976, Note_off_c, 5, 48, 0
9, 14976, Note_on_c, 5, 36, 75
9, 15168, Note_off_c, 5, 36, 0
9, 15168, Note_on_c, 5, 56, 75
9, 15360, Note_off_c, 5, 56, 0
9, 15360, Note_on_c, 5, 53, 75
9, 15552, Note_off_c, 5, 53, 0
9, 15552, Note_on_c, 5, 50, 75
9, 15744, Note_off_c, 5, 50, 0
9, 15744, Note_on_c, 5, 47, 75
9, 15936, Note_off_c, 5, 47, 0
9, 15936, Note_on_c, 5, 43, 75
9, 16128, Note_off_c, 5, 43, 0
9, 16128, Note_on_c, 5, 48, 75
9, 16512, Note_off_c, 5, 48, 0
9, 16512, Note_on_c, 5, 36, 75
9, 16896, Note_off_c, 5, 36, 0
9, 16896, Note_on_c, 5, 48, 75
9, 17280, Note_off_c, 5, 48, 0
9, 17280, Note_on_c, 5, 41, 75
9, 17664, Note_off_c, 5, 41, 0
9, 17664, Note_on_c, 5, 56, 75
9, 17856, Note_off_c, 5, 56, 0
9, 17856, Note_on_c, 5, 53, 75
9, 18048, Note_off_c, 5, 53, 0
9, 18048, Note_on_c, 5, 50, 75
9, 18240, Note_off_c, 5, 50, 0
9, 18240, Note_on_c, 5, 48, 75
9, 18432, Note_off_c, 5, 48, 0
9, 18432, Note_on_c, 5, 47, 75
9, 18624, Note_off_c, 5, 47, 0
9, 18624, Note_on_c, 5, 43, 75
9, 18816, Note_off_c, 5, 43, 0
9, 18816, Note_on_c, 5, 43, 75
9, 18816, Note_on_c, 5, 47, 75
9, 19008, Note_off_c, 5, 43, 0
9, 19008, Note_off_c, 5, 47, 0
9, 19008, Note_on_c, 5, 50, 75
9, 19200, Note_off_c, 5, 50, 0
9, 19200, Note_on_c, 5, 47, 75
9, 19200, Note_on_c, 5, 50, 75
9, 19392, Note_off_c, 5, 47, 0
9, 19392, Note_off_c, 5, 50, 0
9, 19392, Note_on_c, 5, 55, 75
9, 19584, Note_off_c, 5, 55, 0
9, 19584, Note_on_c, 5, 48, 75
9, 19968, Note_off_c, 5, 48, 0
9, 19968, Note_on_c, 5, 36, 75
9, 20352, Note_off_c, 5, 36, 0
9, 20352, Note_on_c, 5, 48, 75
9, 20736, Note_off_c, 5, 48, 0
9, 20736, Note_on_c, 5, 50, 75
9, 21120, Note_off_c, 5, 50, 0
9, 21120, Note_on_c, 5, 39, 75
9, 21504, Note_off_c, 5, 39, 0
9, 21504, Note_on_c, 5, 44, 75
9, 21888, Note_off_c, 5, 44, 0
9, 21888, Note_on_c, 5, 46, 75
9, 22272, Note_off_c, 5, 46, 0
9, 22272, Note_on_c, 5, 46, 75
9, 22464, Note_off_c, 5, 46, 0
9, 22464, Note_on_c, 5, 53, 60
9, 22656, Note_off_c, 5, 53, 0
9, 22656, Note_on_c, 5, 46, 60
9, 22656, Note_on_c, 5, 55, 60
9, 22848, Note_off_c, 5, 46, 0
9, 22848, Note_off_c, 5, 55, 0
9, 22848, Note_on_c, 5, 51, 60
9, 23040, Note_off_c, 5, 51, 0
9, 23040, Note_on_c, 5, 46, 60
9, 23040, Note_on_c, 5, 60, 60
9, 23232, Note_off_c, 5, 46, 0
9, 23232, Note_off_c, 5, 60, 0
9, 23232, Note_on_c, 5, 62, 60
9, 23424, Note_off_c, 5, 62, 0
9, 23424, Note_on_c, 5, 46, 60
9, 23616, Note_off_c, 5, 46, 0
9, 23616, Note_on_c, 5, 53, 60
9, 23808, Note_off_c, 5, 53, 0
9, 23808, Note_on_c, 5, 46, 60
9, 24000, Note_off_c, 5, 46, 0
9, 24000, Note_on_c, 5, 51, 60
9, 24192, Note_off_c, 5, 51, 0
9, 24192, Note_on_c, 5, 34, 60
9, 24192, Note_on_c, 5, 46, 60
9, 24768, Note_off_c, 5, 34, 0
9, 24768, Note_off_c, 5, 46, 0
9, 24768, Note_on_c, 5, 50, 92
9, 24960, Note_off_c, 5, 50, 0
9, 24960, Note_on_c, 5, 51, 92
9, 25152, Note_off_c, 5, 51, 0
9, 25152, Note_on_c, 5, 53, 92
9, 25344, Note_off_c, 5, 53, 0
9, 25344, Note_on_c, 5, 31, 92
9, 25344, Note_on_c, 5, 43, 92
9, 25920, Note_off_c, 5, 31, 0
9, 25920, Note_off_c, 5, 43, 0
9, 25920, Note_on_c, 5, 32, 92
9, 25920, Note_on_c, 5, 44, 92
9, 26112, Note_off_c, 5, 32, 0
9, 26112, Note_off_c, 5, 44, 0
9, 26112, Note_on_c, 5, 34, 92
9, 26112, Note_on_c, 5, 46, 92
9, 26496, Note_off_c, 5, 34, 0
9, 26496, Note_off_c, 5, 46, 0
9, 26496, Note_on_c, 5, 39, 75
9, 26496, Note_on_c, 5, 51, 75
9, 26688, Note_off_c, 5, 39, 0
9, 26688, Note_off_c, 5, 51, 0
9, 26688, Note_on_c, 5, 39, 75
9, 26688, Note_on_c, 5, 46, 75
9, 26880, Note_off_c, 5, 39, 0
9, 26880, Note_off_c, 5, 46, 0
9, 26880, Note_on_c, 5, 51, 75
9, 27072, Note_off_c, 5, 51, 0
9, 27072, Note_on_c, 5, 55, 75
9, 27264, Note_off_c, 5, 55, 0
9, 27264, Note_on_c, 5, 58, 75
9, 27456, Note_off_c, 5, 58, 0
9, 27456, Note_on_c, 5, 63, 75
9, 27648, Note_off_c, 5, 63, 0
9, 27648, Note_on_c, 5, 39, 75
9, 27648, Note_on_c, 5, 58, 75
9, 28032, Note_off_c, 5, 39, 0
9, 28032, Note_off_c, 5, 58, 0
9, 28032, Note_on_c, 5, 39, 75
9, 28032, Note_on_c, 5, 60, 75
9, 28416, Note_off_c, 5, 39, 0
9, 28416, Note_off_c, 5, 60, 0
9, 28416, Note_on_c, 5, 39, 75
9, 28800, Note_off_c, 5, 39, 0
9, 28800, Note_on_c, 5, 37, 75
9, 28992, Note_off_c, 5, 37, 0
9, 28992, Note_on_c, 5, 61, 75
9, 29184, Note_off_c, 5, 61, 0
9, 29184, Note_on_c, 5, 58, 75
9, 29376, Note_off_c, 5, 58, 0
9, 29376, Note_on_c, 5, 55, 75
9, 29568, Note_off_c, 5, 55, 0
9, 29568, Note_on_c, 5, 51, 75
9, 29760, Note_off_c, 5, 51, 0
9, 29760, Note_on_c, 5, 46, 75
9, 29952, Note_off_c, 5, 46, 0
9, 29952, Note_on_c, 5, 43, 75
9, 30336, Note_off_c, 5, 43, 0
9, 30336, Note_on_c, 5, 43, 75
9, 30720, Note_off_c, 5, 43, 0
9, 30720, Note_on_c, 5, 43, 75
9, 31104, Note_off_c, 5, 43, 0
9, 31104, Note_on_c, 5, 44, 75
9, 31488, Note_off_c, 5, 44, 0
9, 31488, Note_on_c, 5, 60, 75
9, 31680, Note_off_c, 5, 60, 0
9, 31680, Note_on_c, 5, 56, 75
9, 31872, Note_off_c, 5, 56, 0
9, 31872, Note_on_c, 5, 51, 75
9, 32064, Note_off_c, 5, 51, 0
9, 32064, Note_on_c, 5, 48, 75
9, 32256, Note_off_c, 5, 48, 0
9, 32256, Note_on_c, 5, 40, 92
9, 32448, Note_off_c, 5, 40, 0
9, 32448, Note_on_c, 5, 43, 92
9, 32640, Note_off_c, 5, 43, 0
9, 32640, Note_on_c, 5, 48, 92
9, 32832, Note_off_c, 5, 48, 0
9, 32832, Note_on_c, 5, 52, 92
9, 33024, Note_off_c, 5, 52, 0
9, 33024, Note_on_c, 5, 55, 92
9, 33216, Note_off_c, 5, 55, 0
9, 33216, Note_on_c, 5, 58, 92
9, 33408, Note_off_c, 5, 58, 0
9, 33408, Note_on_c, 5, 41, 92
9, 33408, Note_on_c, 5, 56, 92
9, 33600, Note_off_c, 5, 41, 0
9, 33600, Note_off_c, 5, 56, 0
9, 33600, Note_on_c, 5, 55, 92
9, 33792, Note_off_c, 5, 55, 0
9, 33792, Note_on_c, 5, 53, 92
9, 33984, Note_off_c, 5, 53, 0
9, 33984, Note_on_c, 5, 48, 92
9, 34176, Note_off_c, 5, 48, 0
9, 34176, Note_on_c, 5, 44, 92
9, 34176, Note_on_c, 5, 53, 92
9, 34368, Note_off_c, 5, 44, 0
9, 34368, Note_off_c, 5, 53, 0
9, 34368, Note_on_c, 5, 41, 92
9, 34560, Note_off_c, 5, 41, 0
9, 34560, Note_on_c, 5, 38, 92
9, 34944, Note_off_c, 5, 38, 0
9, 34944, Note_on_c, 5, 39, 92
9, 35328, Note_off_c, 5, 39, 0
9, 35328, Note_on_c, 5, 41, 92
9, 35712, Note_off_c, 5, 41, 0
9, 35712, Note_on_c, 5, 43, 92
9, 35712, Note_on_c, 5, 55, 92
9, 36096, Note_off_c, 5, 43, 0
9, 36096, Note_off_c, 5, 55, 0
9, 36096, Note_on_c, 5, 43, 45
9, 36480, Note_off_c, 5, 43, 0
9, 36480, Note_on_c, 5, 43, 45
9, 36864, Note_off_c, 5, 43, 0
9, 36864, Note_on_c, 5, 43, 45
9, 36864, Note_on_c, 5, 55, 45
9, 37248, Note_off_c, 5, 43, 0
9, 37248, Note_off_c, 5, 55, 0
9, 37248, Note_on_c, 5, 43, 45
9, 37632, Note_off_c, 5, 43, 0
9, 37632, Note_on_c, 5, 43, 45
9, 38016, Note_off_c, 5, 43, 0
9, 38016, Note_on_c, 5, 43, 45
9, 38592, Note_off_c, 5, 43, 0
9, 38592, Note_on_c, 5, 47, 92
9, 38784, Note_off_c, 5, 47, 0
9, 38784, Note_on_c, 5, 48, 92
9, 38976, Note_off_c, 5, 48, 0
9, 38976, Note_on_c, 5, 50, 92
9, 39168, Note_off_c, 5, 50, 0
9, 39168, Note_on_c, 5, 39, 92
9, 39552, Note_off_c, 5, 39, 0
9, 39552, Note_on_c, 5, 55, 92
9, 39744, Note_off_c, 5, 55, 0
9, 39744, Note_on_c, 5, 41, 92
9, 39744, Note_on_c, 5, 56, 92
9, 39936, Note_off_c, 5, 41, 0
9, 39936, Note_off_c, 5, 56, 0
9, 39936, Note_on_c, 5, 43, 92
9, 39936, Note_on_c, 5, 55, 92
9, 40128, Note_off_c, 5, 43, 0
9, 40128, Note_off_c, 5, 55, 0
9, 40128, Note_on_c, 5, 53, 92
9, 40320, Note_off_c, 5, 53, 0
9, 40320, Note_on_c, 5, 36, 92
9, 40320, Note_on_c, 5, 51, 92
9, 40512, Note_off_c, 5, 36, 0
9, 40512, Note_off_c, 5, 51, 0
9, 40512, Note_on_c, 5, 36, 92
9, 40704, Note_off_c, 5, 36, 0
9, 40704, Note_on_c, 5, 39, 92
9, 40896, Note_off_c, 5, 39, 0
9, 40896, Note_on_c, 5, 43, 92
9, 41088, Note_off_c, 5, 43, 0
9, 41088, Note_on_c, 5, 48, 92
9, 41472, Note_off_c, 5, 48, 0
9, 41472, Note_on_c, 5, 39, 60
9, 41856, Note_off_c, 5, 39, 0
9, 41856, Note_on_c, 5, 39, 60
9, 41856, Note_on_c, 5, 51, 60
9, 42240, Note_off_c, 5, 39, 0
9, 42240, Note_off_c, 5, 51, 0
9, 42240, Note_on_c, 5, 39, 60
9, 42624, Note_off_c, 5, 39, 0
9, 42624, Note_on_c, 5, 49, 60
9, 42816, Note_off_c, 5, 49, 0
9, 42816, Note_on_c, 5, 61, 60
9, 43008, Note_off_c, 5, 61, 0
9, 43008, Note_on_c, 5, 58, 60
9, 43200, Note_off_c, 5, 58, 0
9, 43200, Note_on_c, 5, 55, 60
9, 43392, Note_off_c, 5, 55, 0
9, 43392, Note_on_c, 5, 51, 60
9, 43584, Note_off_c, 5, 51, 0
9, 43584, Note_on_c, 5, 43, 60
9, 44160, Note_off_c, 5, 43, 0
9, 44160, Note_on_c, 5, 43, 60
9, 44544, Note_off_c, 5, 43, 0
9, 44544, Note_on_c, 5, 43, 60
9, 44928, Note_off_c, 5, 43, 0
9, 44928, Note_on_c, 5, 44, 60
9, 44928, Note_on_c, 5, 56, 60
9, 45312, Note_off_c, 5, 44, 0
9, 45312, Note_off_c, 5, 56, 0
9, 45312, Note_on_c, 5, 60, 60
9, 45504, Note_off_c, 5, 60, 0
9, 45504, Note_on_c, 5, 56, 60
9, 45696, Note_off_c, 5, 56, 0
9, 45696, Note_on_c, 5, 51, 60
9, 45888, Note_off_c, 5, 51, 0
9, 45888, Note_on_c, 5, 48, 60
9, 46080, Note_off_c, 5, 48, 0
9, 46080, Note_on_c, 5, 40, 60
9, 46272, Note_off_c, 5, 40, 0
9, 46272, Note_on_c, 5, 43, 60
9, 46464, Note_off_c, 5, 43, 0
9, 46464, Note_on_c, 5, 48, 75
9, 46656, Note_off_c, 5, 48, 0
9, 46656, Note_on_c, 5, 52, 75
9, 46848, Note_off_c, 5, 52, 0
9, 46848, Note_on_c, 5, 55, 75
9, 47040, Note_off_c, 5, 55, 0
9, 47040, Note_on_c, 5, 60, 75
9, 47232, Note_off_c, 5, 60, 0
9, 47232, Note_on_c, 5, 41, 75
9, 47232, Note_on_c, 5, 56, 75
9, 47424, Note_off_c, 5, 41, 0
9, 47424, Note_off_c, 5, 56, 0
9, 47424, Note_on_c, 5, 55, 75
9, 47616, Note_off_c, 5, 55, 0
9, 47616, Note_on_c, 5, 53, 75
9, 47808, Note_off_c, 5, 53, 0
9, 47808, Note_on_c, 5, 48, 75
9, 48000, Note_off_c, 5, 48, 0
9, 48000, Note_on_c, 5, 44, 75
9, 48000, Note_on_c, 5, 53, 75
9, 48192, Note_off_c, 5, 44, 0
9, 48192, Note_off_c, 5, 53, 0
9, 48192, Note_on_c, 5, 41, 75
9, 48384, Note_off_c, 5, 41, 0
9, 48384, Note_on_c, 5, 38, 75
9, 48384, Note_on_c, 5, 50, 75
9, 48768, Note_off_c, 5, 38, 0
9, 48768, Note_off_c, 5, 50, 0
9, 48768, Note_on_c, 5, 39, 75
9, 48768, Note_on_c, 5, 51, 75
9, 49152, Note_off_c, 5, 39, 0
9, 49152, Note_off_c, 5, 51, 0
9, 49152, Note_on_c, 5, 41, 75
9, 49152, Note_on_c, 5, 53, 75
9, 49536, Note_off_c, 5, 41, 0
9, 49536, Note_off_c, 5, 53, 0
9, 49536, Note_on_c, 5, 43, 75
9, 49536, Note_on_c, 5, 55, 75
9, 49920, Note_off_c, 5, 43, 0
9, 49920, Note_off_c, 5, 55, 0
9, 49920, Note_on_c, 5, 43, 45
9, 49920, Note_on_c, 5, 55, 45
9, 50304, Note_off_c, 5, 43, 0
9, 50304, Note_off_c, 5, 55, 0
9, 50304, Note_on_c, 5, 43, 45
9, 50304, Note_on_c, 5, 55, 45
9, 50688, Note_off_c, 5, 43, 0
9, 50688, Note_off_c, 5, 55, 0
9, 50688, Note_on_c, 5, 43, 45
9, 50688, Note_on_c, 5, 55, 45
9, 51072, Note_off_c, 5, 43, 0
9, 51072, Note_off_c, 5, 55, 0
9, 51072, Note_on_c, 5, 43, 45
9, 51072, Note_on_c, 5, 55, 45
9, 51456, Note_off_c, 5, 43, 0
9, 51456, Note_off_c, 5, 55, 0
9, 51456, Note_on_c, 5, 43, 45
9, 51456, Note_on_c, 5, 55, 45
9, 51840, Note_off_c, 5, 43, 0
9, 51840, Note_off_c, 5, 55, 0
9, 51840, Note_on_c, 5, 43, 45
9, 51840, Note_on_c, 5, 55, 45
9, 52416, Note_off_c, 5, 43, 0
9, 52416, Note_off_c, 5, 55, 0
9, 52416, Note_on_c, 5, 47, 92
9, 52416, Note_on_c, 5, 59, 92
9, 52608, Note_off_c, 5, 47, 0
9, 52608, Note_off_c, 5, 59, 0
9, 52608, Note_on_c, 5, 48, 92
9, 52608, Note_on_c, 5, 60, 92
9, 52800, Note_off_c, 5, 48, 0
9, 52800, Note_off_c, 5, 60, 0
9, 52800, Note_on_c, 5, 50, 92
9, 52800, Note_on_c, 5, 62, 92
9, 52992, Note_off_c, 5, 50, 0
9, 52992, Note_off_c, 5, 62, 0
9, 52992, Note_on_c, 5, 39, 92
9, 52992, Note_on_c, 5, 51, 92
9, 53568, Note_off_c, 5, 39, 0
9, 53568, Note_off_c, 5, 51, 0
9, 53568, Note_on_c, 5, 41, 92
9, 53568, Note_on_c, 5, 53, 92
9, 53760, Note_off_c, 5, 41, 0
9, 53760, Note_off_c, 5, 53, 0
9, 53760, Note_on_c, 5, 43, 92
9, 53760, Note_on_c, 5, 55, 92
9, 54144, Note_off_c, 5, 43, 0
9, 54144, Note_off_c, 5, 55, 0
9, 54144, Note_on_c, 5, 36, 92
9, 54144, Note_on_c, 5, 48, 92
9, 55296, Note_off_c, 5, 36, 0
9, 55296, Note_off_c, 5, 48, 0
9, 55488, Note_on_c, 5, 39, 75
9, 55872, Note_off_c, 5, 39, 0
9, 55872, Note_on_c, 5, 48, 75
9, 56256, Note_off_c, 5, 48, 0
9, 56256, Note_on_c, 5, 46, 75
9, 56832, Note_off_c, 5, 46, 0
9, 56832, Note_on_c, 5, 58, 75
9, 57024, Note_off_c, 5, 58, 0
9, 57024, Note_on_c, 5, 56, 75
9, 57216, Note_off_c, 5, 56, 0
9, 57216, Note_on_c, 5, 55, 75
9, 57408, Note_off_c, 5, 55, 0
9, 57408, Note_on_c, 5, 53, 75
9, 57600, Note_off_c, 5, 53, 0
9, 57600, Note_on_c, 5, 50, 75
9, 57792, Note_off_c, 5, 50, 0
9, 57792, Note_on_c, 5, 52, 75
9, 58176, Note_off_c, 5, 52, 0
9, 58176, Note_on_c, 5, 43, 75
9, 58560, Note_off_c, 5, 43, 0
9, 58560, Note_on_c, 5, 48, 75
9, 58944, Note_off_c, 5, 48, 0
9, 58944, Note_on_c, 5, 53, 75
9, 59328, Note_off_c, 5, 53, 0
9, 59328, Note_on_c, 5, 41, 75
9, 59712, Note_off_c, 5, 41, 0
9, 59712, Note_on_c, 5, 41, 75
9, 60096, Note_off_c, 5, 41, 0
9, 60096, Note_on_c, 5, 41, 75
9, 60480, Note_off_c, 5, 41, 0
9, 60480, Note_on_c, 5, 41, 75
9, 60864, Note_off_c, 5, 41, 0
9, 60864, Note_on_c, 5, 41, 75
9, 61248, Note_off_c, 5, 41, 0
9, 61248, Note_on_c, 5, 38, 75
9, 61632, Note_off_c, 5, 38, 0
9, 61632, Note_on_c, 5, 53, 75
9, 62016, Note_off_c, 5, 53, 0
9, 62016, Note_on_c, 5, 51, 75
9, 62400, Note_off_c, 5, 51, 0
9, 62400, Note_on_c, 5, 51, 75
9, 62592, Note_off_c, 5, 51, 0
9, 62592, Note_on_c, 5, 63, 75
9, 62784, Note_off_c, 5, 63, 0
9, 62784, Note_on_c, 5, 61, 75
9, 62976, Note_off_c, 5, 61, 0
9, 62976, Note_on_c, 5, 60, 75
9, 63168, Note_off_c, 5, 60, 0
9, 63168, Note_on_c, 5, 58, 75
9, 63360, Note_off_c, 5, 58, 0
9, 63360, Note_on_c, 5, 55, 75
9, 63552, Note_off_c, 5, 55, 0
9, 63552, Note_on_c, 5, 57, 75
9, 63936, Note_off_c, 5, 57, 0
9, 63936, Note_on_c, 5, 48, 75
9, 64320, Note_off_c, 5, 48, 0
9, 64320, Note_on_c, 5, 53, 75
9, 64704, Note_off_c, 5, 53, 0
9, 64704, Note_on_c, 5, 58, 75
9, 65088, Note_off_c, 5, 58, 0
9, 65088, Note_on_c, 5, 46, 75
9, 65472, Note_off_c, 5, 46, 0
9, 65472, Note_on_c, 5, 46, 45
9, 65856, Note_off_c, 5, 46, 0
9, 65856, Note_on_c, 5, 46, 45
9, 66240, Note_off_c, 5, 46, 0
9, 66240, Note_on_c, 5, 46, 45
9, 66624, Note_off_c, 5, 46, 0
9, 66624, Note_on_c, 5, 46, 45
9, 67008, Note_off_c, 5, 46, 0
9, 67008, Note_on_c, 5, 46, 45
9, 67200, Note_off_c, 5, 46, 0
9, 67200, Note_on_c, 5, 60, 45
9, 67392, Note_off_c, 5, 60, 0
9, 67392, Note_on_c, 5, 58, 45
9, 67584, Note_off_c, 5, 58, 0
9, 67584, Note_on_c, 5, 56, 45
9, 67776, Note_off_c, 5, 56, 0
9, 67776, Note_on_c, 5, 55, 45
9, 67968, Note_off_c, 5, 55, 0
9, 67968, Note_on_c, 5, 53, 45
9, 68160, Note_off_c, 5, 53, 0
9, 68160, Note_on_c, 5, 52, 75
9, 68544, Note_off_c, 5, 52, 0
9, 68544, Note_on_c, 5, 40, 75
9, 68928, Note_off_c, 5, 40, 0
9, 68928, Note_on_c, 5, 40, 75
9, 69312, Note_off_c, 5, 40, 0
9, 69312, Note_on_c, 5, 41, 75
9, 69504, Note_off_c, 5, 41, 0
9, 69504, Note_on_c, 5, 51, 75
9, 69696, Note_off_c, 5, 51, 0
9, 69696, Note_on_c, 5, 50, 75
9, 69888, Note_off_c, 5, 50, 0
9, 69888, Note_on_c, 5, 48, 75
9, 70080, Note_off_c, 5, 48, 0
9, 70080, Note_on_c, 5, 47, 75
9, 70272, Note_off_c, 5, 47, 0
9, 70272, Note_on_c, 5, 48, 75
9, 70464, Note_off_c, 5, 48, 0
9, 70464, Note_on_c, 5, 47, 75
9, 70656, Note_off_c, 5, 47, 0
9, 70656, Note_on_c, 5, 43, 75
9, 70848, Note_off_c, 5, 43, 0
9, 70848, Note_on_c, 5, 47, 75
9, 71040, Note_off_c, 5, 47, 0
9, 71040, Note_on_c, 5, 50, 75
9, 71232, Note_off_c, 5, 50, 0
9, 71232, Note_on_c, 5, 55, 75
9, 71424, Note_off_c, 5, 55, 0
9, 71424, Note_on_c, 5, 59, 75
9, 71616, Note_off_c, 5, 59, 0
9, 71616, Note_on_c, 5, 48, 92
9, 71616, Note_on_c, 5, 60, 92
9, 71808, Note_off_c, 5, 48, 0
9, 71808, Note_off_c, 5, 60, 0
9, 71808, Note_on_c, 5, 55, 92
9, 72000, Note_off_c, 5, 55, 0
9, 72000, Note_on_c, 5, 53, 92
9, 72384, Note_off_c, 5, 53, 0
9, 72384, Note_on_c, 5, 55, 92
9, 72768, Note_off_c, 5, 55, 0
9, 72768, Note_on_c, 5, 48, 92
9, 72960, Note_off_c, 5, 48, 0
9, 72960, Note_on_c, 5, 55, 92
9, 73152, Note_off_c, 5, 55, 0
9, 73152, Note_on_c, 5, 53, 92
9, 73536, Note_off_c, 5, 53, 0
9, 73536, Note_on_c, 5, 55, 92
9, 73920, Note_off_c, 5, 55, 0
9, 73920, Note_on_c, 5, 48, 92
9, 74112, Note_off_c, 5, 48, 0
9, 74112, Note_on_c, 5, 50, 92
9, 74304, Note_off_c, 5, 50, 0
9, 74304, Note_on_c, 5, 51, 92
9, 74688, Note_off_c, 5, 51, 0
9, 74688, Note_on_c, 5, 53, 92
9, 75072, Note_off_c, 5, 53, 0
9, 75072, Note_on_c, 5, 46, 92
9, 75264, Note_off_c, 5, 46, 0
9, 75264, Note_on_c, 5, 48, 92
9, 75456, Note_off_c, 5, 48, 0
9, 75456, Note_on_c, 5, 50, 92
9, 75840, Note_off_c, 5, 50, 0
9, 75840, Note_on_c, 5, 51, 92
9, 76224, Note_off_c, 5, 51, 0
9, 76224, Note_on_c, 5, 54, 92
9, 76416, Note_off_c, 5, 54, 0
9, 76416, Note_on_c, 5, 55, 92
9, 76608, Note_off_c, 5, 55, 0
9, 76608, Note_on_c, 5, 57, 92
9, 76800, Note_off_c, 5, 57, 0
9, 76800, Note_on_c, 5, 58, 92
9, 76992, Note_off_c, 5, 58, 0
9, 76992, Note_on_c, 5, 51, 92
9, 77184, Note_off_c, 5, 51, 0
9, 77184, Note_on_c, 5, 39, 92
9, 77376, Note_off_c, 5, 39, 0
9, 77376, Note_on_c, 5, 50, 92
9, 77760, Note_off_c, 5, 50, 0
9, 77760, Note_on_c, 5, 50, 45
9, 78144, Note_off_c, 5, 50, 0
9, 78144, Note_on_c, 5, 50, 45
9, 78528, Note_off_c, 5, 50, 0
9, 78528, Note_on_c, 5, 38, 45
9, 78912, Note_off_c, 5, 38, 0
9, 78912, Note_on_c, 5, 38, 45
9, 79296, Note_off_c, 5, 38, 0
9, 79296, Note_on_c, 5, 38, 45
9, 79680, Note_off_c, 5, 38, 0
9, 79680, Note_on_c, 5, 38, 45
9, 79872, Note_off_c, 5, 38, 0
9, 79872, Note_on_c, 5, 50, 45
9, 80064, Note_off_c, 5, 50, 0
9, 80064, Note_on_c, 5, 48, 45
9, 80256, Note_off_c, 5, 48, 0
9, 80256, Note_on_c, 5, 46, 92
9, 80448, Note_off_c, 5, 46, 0
9, 80448, Note_on_c, 5, 45, 92
9, 80640, Note_off_c, 5, 45, 0
9, 80640, Note_on_c, 5, 48, 92
9, 80832, Note_off_c, 5, 48, 0
9, 80832, Note_on_c, 5, 46, 92
9, 81024, Note_off_c, 5, 46, 0
9, 81024, Note_on_c, 5, 43, 92
9, 81216, Note_off_c, 5, 43, 0
9, 81216, Note_on_c, 5, 50, 92
9, 81600, Note_off_c, 5, 50, 0
9, 81600, Note_on_c, 5, 38, 92
9, 81984, Note_off_c, 5, 38, 0
9, 81984, Note_on_c, 5, 43, 75
9, 82176, Note_off_c, 5, 43, 0
9, 82176, Note_on_c, 5, 62, 75
9, 82368, Note_off_c, 5, 62, 0
9, 82368, Note_on_c, 5, 59, 75
9, 82560, Note_off_c, 5, 59, 0
9, 82560, Note_on_c, 5, 55, 75
9, 82752, Note_off_c, 5, 55, 0
9, 82752, Note_on_c, 5, 50, 75
9, 82944, Note_off_c, 5, 50, 0
9, 82944, Note_on_c, 5, 47, 75
9, 83136, Note_off_c, 5, 47, 0
9, 83136, Note_on_c, 5, 43, 75
9, 83520, Note_off_c, 5, 43, 0
9, 83520, Note_on_c, 5, 43, 75
9, 83904, Note_off_c, 5, 43, 0
9, 83904, Note_on_c, 5, 43, 75
9, 84288, Note_off_c, 5, 43, 0
9, 84288, Note_on_c, 5, 43, 75
9, 84480, Note_off_c, 5, 43, 0
9, 84480, Note_on_c, 5, 62, 75
9, 84672, Note_off_c, 5, 62, 0
9, 84672, Note_on_c, 5, 59, 75
9, 84864, Note_off_c, 5, 59, 0
9, 84864, Note_on_c, 5, 55, 75
9, 85056, Note_off_c, 5, 55, 0
9, 85056, Note_on_c, 5, 50, 75
9, 85248, Note_off_c, 5, 50, 0
9, 85248, Note_on_c, 5, 47, 75
9, 85440, Note_off_c, 5, 47, 0
9, 85440, Note_on_c, 5, 43, 75
9, 85824, Note_off_c, 5, 43, 0
9, 85824, Note_on_c, 5, 43, 75
9, 86208, Note_off_c, 5, 43, 0
9, 86208, Note_on_c, 5, 43, 75
9, 86592, Note_off_c, 5, 43, 0
9, 86592, Note_on_c, 5, 43, 75
9, 86784, Note_off_c, 5, 43, 0
9, 86784, Note_on_c, 5, 59, 75
9, 86976, Note_off_c, 5, 59, 0
9, 86976, Note_on_c, 5, 55, 75
9, 87168, Note_off_c, 5, 55, 0
9, 87168, Note_on_c, 5, 50, 75
9, 87360, Note_off_c, 5, 50, 0
9, 87360, Note_on_c, 5, 47, 75
9, 87552, Note_off_c, 5, 47, 0
9, 87552, Note_on_c, 5, 43, 75
9, 87744, Note_off_c, 5, 43, 0
9, 87744, Note_on_c, 5, 36, 75
9, 88128, Note_off_c, 5, 36, 0
9, 88128, Note_on_c, 5, 36, 75
9, 88512, Note_off_c, 5, 36, 0
9, 88512, Note_on_c, 5, 36, 75
9, 88896, Note_off_c, 5, 36, 0
9, 88896, Note_on_c, 5, 36, 75
9, 89280, Note_off_c, 5, 36, 0
9, 89280, Note_on_c, 5, 36, 75
9, 89664, Note_off_c, 5, 36, 0
9, 89664, Note_on_c, 5, 36, 75
9, 90048, Note_off_c, 5, 36, 0
9, 90048, Note_on_c, 5, 36, 75
9, 90432, Note_off_c, 5, 36, 0
9, 90432, Note_on_c, 5, 36, 75
9, 90816, Note_off_c, 5, 36, 0
9, 90816, Note_on_c, 5, 36, 75
9, 91200, Note_off_c, 5, 36, 0
9, 91200, Note_on_c, 5, 43, 92
9, 91392, Note_off_c, 5, 43, 0
9, 91392, Note_on_c, 5, 44, 92
9, 91584, Note_off_c, 5, 44, 0
9, 91584, Note_on_c, 5, 43, 92
9, 91776, Note_off_c, 5, 43, 0
9, 91776, Note_on_c, 5, 41, 92
9, 91968, Note_off_c, 5, 41, 0
9, 91968, Note_on_c, 5, 39, 92
9, 92160, Note_off_c, 5, 39, 0
9, 92160, Note_on_c, 5, 38, 92
9, 92352, Note_off_c, 5, 38, 0
9, 92352, Note_on_c, 5, 36, 75
9, 92352, Note_on_c, 5, 48, 75
9, 92736, Note_off_c, 5, 36, 0
9, 92736, Note_off_c, 5, 48, 0
9, 92736, Note_on_c, 5, 36, 75
9, 92736, Note_on_c, 5, 48, 75
9, 93120, Note_off_c, 5, 36, 0
9, 93120, Note_off_c, 5, 48, 0
9, 93120, Note_on_c, 5, 36, 75
9, 93120, Note_on_c, 5, 48, 75
9, 93504, Note_off_c, 5, 36, 0
9, 93504, Note_off_c, 5, 48, 0
9, 93504, Note_on_c, 5, 36, 75
9, 93504, Note_on_c, 5, 48, 75
9, 93696, Note_off_c, 5, 36, 0
9, 93696, Note_off_c, 5, 48, 0
9, 93696, Note_on_c, 5, 56, 75
9, 93888, Note_off_c, 5, 56, 0
9, 93888, Note_on_c, 5, 53, 75
9, 94080, Note_off_c, 5, 53, 0
9, 94080, Note_on_c, 5, 50, 75
9, 94272, Note_off_c, 5, 50, 0
9, 94272, Note_on_c, 5, 47, 75
9, 94464, Note_off_c, 5, 47, 0
9, 94464, Note_on_c, 5, 43, 75
9, 94656, Note_off_c, 5, 43, 0
9, 94656, Note_on_c, 5, 36, 75
9, 94656, Note_on_c, 5, 48, 75
9, 95040, Note_off_c, 5, 36, 0
9, 95040, Note_off_c, 5, 48, 0
9, 95040, Note_on_c, 5, 36, 75
9, 95040, Note_on_c, 5, 48, 75
9, 95424, Note_off_c, 5, 36, 0
9, 95424, Note_off_c, 5, 48, 0
9, 95424, Note_on_c, 5, 36, 75
9, 95424, Note_on_c, 5, 48, 75
9, 95808, Note_off_c, 5, 36, 0
9, 95808, Note_off_c, 5, 48, 0
9, 95808, Note_on_c, 5, 36, 75
9, 95808, Note_on_c, 5, 48, 75
9, 96000, Note_off_c, 5, 36, 0
9, 96000, Note_off_c, 5, 48, 0
9, 96000, Note_on_c, 5, 60, 75
9, 96192, Note_off_c, 5, 60, 0
9, 96192, Note_on_c, 5, 56, 75
9, 96384, Note_off_c, 5, 56, 0
9, 96384, Note_on_c, 5, 53, 75
9, 96576, Note_off_c, 5, 53, 0
9, 96576, Note_on_c, 5, 50, 75
9, 96768, Note_off_c, 5, 50, 0
9, 96768, Note_on_c, 5, 48, 75
9, 96960, Note_off_c, 5, 48, 0
9, 96960, Note_on_c, 5, 47, 75
9, 97152, Note_off_c, 5, 47, 0
9, 97152, Note_on_c, 5, 43, 75
9, 97344, Note_off_c, 5, 43, 0
9, 97344, Note_on_c, 5, 43, 75
9, 97344, Note_on_c, 5, 47, 75
9, 97536, Note_off_c, 5, 43, 0
9, 97536, Note_off_c, 5, 47, 0
9, 97536, Note_on_c, 5, 50, 75
9, 97728, Note_off_c, 5, 50, 0
9, 97728, Note_on_c, 5, 47, 75
9, 97728, Note_on_c, 5, 50, 75
9, 97920, Note_off_c, 5, 47, 0
9, 97920, Note_off_c, 5, 50, 0
9, 97920, Note_on_c, 5, 55, 75
9, 98112, Note_off_c, 5, 55, 0
9, 98112, Note_on_c, 5, 36, 75
9, 98496, Note_off_c, 5, 36, 0
9, 98496, Note_on_c, 5, 36, 75
9, 98880, Note_off_c, 5, 36, 0
9, 98880, Note_on_c, 5, 36, 75
9, 98880, Note_on_c, 5, 48, 75
9, 99264, Note_off_c, 5, 36, 0
9, 99264, Note_off_c, 5, 48, 0
9, 99264, Note_on_c, 5, 50, 75
9, 99648, Note_off_c, 5, 50, 0
9, 99648, Note_on_c, 5, 51, 75
9, 100032, Note_off_c, 5, 51, 0
9, 100032, Note_on_c, 5, 44, 75
9, 100416, Note_off_c, 5, 44, 0
9, 100416, Note_on_c, 5, 46, 75
9, 100800, Note_off_c, 5, 46, 0
9, 100800, Note_on_c, 5, 46, 75
9, 101184, Note_off_c, 5, 46, 0
9, 101184, Note_on_c, 5, 46, 60
9, 101568, Note_off_c, 5, 46, 0
9, 101568, Note_on_c, 5, 46, 60
9, 101952, Note_off_c, 5, 46, 0
9, 101952, Note_on_c, 5, 46, 60
9, 102336, Note_off_c, 5, 46, 0
9, 102336, Note_on_c, 5, 46, 60
9, 102720, Note_off_c, 5, 46, 0
9, 102720, Note_on_c, 5, 46, 60
9, 103296, Note_off_c, 5, 46, 0
9, 103296, Note_on_c, 5, 50, 92
9, 103488, Note_off_c, 5, 50, 0
9, 103488, Note_on_c, 5, 51, 92
9, 103680, Note_off_c, 5, 51, 0
9, 103680, Note_on_c, 5, 53, 92
9, 103872, Note_off_c, 5, 53, 0
9, 103872, Note_on_c, 5, 43, 92
9, 104448, Note_off_c, 5, 43, 0
9, 104448, Note_on_c, 5, 44, 92
9, 104640, Note_off_c, 5, 44, 0
9, 104640, Note_on_c, 5, 46, 92
9, 104832, Note_off_c, 5, 46, 0
9, 104832, Note_on_c, 5, 46, 92
9, 105024, Note_off_c, 5, 46, 0
9, 105024, Note_on_c, 5, 39, 92
9, 105216, Note_off_c, 5, 39, 0
9, 105216, Note_on_c, 5, 43, 92
9, 105408, Note_off_c, 5, 43, 0
9, 105408, Note_on_c, 5, 46, 92
9, 105600, Note_off_c, 5, 46, 0
9, 105600, Note_on_c, 5, 51, 92
9, 105792, Note_off_c, 5, 51, 0
9, 105792, Note_on_c, 5, 55, 92
9, 105984, Note_off_c, 5, 55, 0
9, 105984, Note_on_c, 5, 59, 92
9, 106176, Note_off_c, 5, 59, 0
9, 106176, Note_on_c, 5, 48, 75
9, 106560, Note_off_c, 5, 48, 0
9, 106560, Note_on_c, 5, 36, 75
9, 106944, Note_off_c, 5, 36, 0
9, 106944, Note_on_c, 5, 48, 75
9, 107328, Note_off_c, 5, 48, 0
9, 107328, Note_on_c, 5, 36, 75
9, 107520, Note_off_c, 5, 36, 0
9, 107520, Note_on_c, 5, 56, 75
9, 107712, Note_off_c, 5, 56, 0
9, 107712, Note_on_c, 5, 53, 75
9, 107904, Note_off_c, 5, 53, 0
9, 107904, Note_on_c, 5, 50, 75
9, 108096, Note_off_c, 5, 50, 0
9, 108096, Note_on_c, 5, 47, 75
9, 108288, Note_off_c, 5, 47, 0
9, 108288, Note_on_c, 5, 43, 75
9, 108480, Note_off_c, 5, 43, 0
9, 108480, Note_on_c, 5, 48, 75
9, 108864, Note_off_c, 5, 48, 0
9, 108864, Note_on_c, 5, 36, 75
9, 109248, Note_off_c, 5, 36, 0
9, 109248, Note_on_c, 5, 48, 75
9, 109632, Note_off_c, 5, 48, 0
9, 109632, Note_on_c, 5, 41, 75
9, 110016, Note_off_c, 5, 41, 0
9, 110016, Note_on_c, 5, 56, 75
9, 110208, Note_off_c, 5, 56, 0
9, 110208, Note_on_c, 5, 53, 75
9, 110400, Note_off_c, 5, 53, 0
9, 110400, Note_on_c, 5, 50, 75
9, 110592, Note_off_c, 5, 50, 0
9, 110592, Note_on_c, 5, 48, 75
9, 110784, Note_off_c, 5, 48, 0
9, 110784, Note_on_c, 5, 47, 75
9, 110976, Note_off_c, 5, 47, 0
9, 110976, Note_on_c, 5, 43, 75
9, 111168, Note_off_c, 5, 43, 0
9, 111168, Note_on_c, 5, 43, 75
9, 111168, Note_on_c, 5, 47, 75
9, 111360, Note_off_c, 5, 43, 0
9, 111360, Note_off_c, 5, 47, 0
9, 111360, Note_on_c, 5, 50, 75
9, 111552, Note_off_c, 5, 50, 0
9, 111552, Note_on_c, 5, 47, 75
9, 111552, Note_on_c, 5, 50, 75
9, 111744, Note_off_c, 5, 47, 0
9, 111744, Note_off_c, 5, 50, 0
9, 111744, Note_on_c, 5, 55, 75
9, 111936, Note_off_c, 5, 55, 0
9, 111936, Note_on_c, 5, 48, 75
9, 112320, Note_off_c, 5, 48, 0
9, 112320, Note_on_c, 5, 36, 75
9, 112704, Note_off_c, 5, 36, 0
9, 112704, Note_on_c, 5, 48, 75
9, 113088, Note_off_c, 5, 48, 0
9, 113088, Note_on_c, 5, 50, 75
9, 113472, Note_off_c, 5, 50, 0
9, 113472, Note_on_c, 5, 39, 75
9, 113856, Note_off_c, 5, 39, 0
9, 113856, Note_on_c, 5, 44, 75
9, 114240, Note_off_c, 5, 44, 0
9, 114240, Note_on_c, 5, 46, 75
9, 114624, Note_off_c, 5, 46, 0
9, 114624, Note_on_c, 5, 46, 75
9, 114816, Note_off_c, 5, 46, 0
9, 114816, Note_on_c, 5, 53, 60
9, 115008, Note_off_c, 5, 53, 0
9, 115008, Note_on_c, 5, 46, 60
9, 115008, Note_on_c, 5, 55, 60
9, 115200, Note_off_c, 5, 46, 0
9, 115200, Note_off_c, 5, 55, 0
9, 115200, Note_on_c, 5, 51, 60
9, 115392, Note_off_c, 5, 51, 0
9, 115392, Note_on_c, 5, 46, 60
9, 115392, Note_on_c, 5, 60, 60
9, 115584, Note_off_c, 5, 46, 0
9, 115584, Note_off_c, 5, 60, 0
9, 115584, Note_on_c, 5, 62, 60
9, 115776, Note_off_c, 5, 62, 0
9, 115776, Note_on_c, 5, 46, 60
9, 115968, Note_off_c, 5, 46, 0
9, 115968, Note_on_c, 5, 53, 60
9, 116160, Note_off_c, 5, 53, 0
9, 116160, Note_on_c, 5, 46, 60
9, 116352, Note_off_c, 5, 46, 0
9, 116352, Note_on_c, 5, 51, 60
9, 116544, Note_off_c, 5, 51, 0
9, 116544, Note_on_c, 5, 34, 60
9, 116544, Note_on_c, 5, 46, 60
9, 117120, Note_off_c, 5, 34, 0
9, 117120, Note_off_c, 5, 46, 0
9, 117120, Note_on_c, 5, 50, 92
9, 117312, Note_off_c, 5, 50, 0
9, 117312, Note_on_c, 5, 51, 92
9, 117504, Note_off_c, 5, 51, 0
9, 117504, Note_on_c, 5, 53, 92
9, 117696, Note_off_c, 5, 53, 0
9, 117696, Note_on_c, 5, 31, 92
9, 117696, Note_on_c, 5, 43, 92
9, 118272, Note_off_c, 5, 31, 0
9, 118272, Note_off_c, 5, 43, 0
9, 118272, Note_on_c, 5, 32, 92
9, 118272, Note_on_c, 5, 44, 92
9, 118464, Note_off_c, 5, 32, 0
9, 118464, Note_off_c, 5, 44, 0
9, 118464, Note_on_c, 5, 34, 92
9, 118464, Note_on_c, 5, 46, 92
9, 118848, Note_off_c, 5, 34, 0
9, 118848, Note_off_c, 5, 46, 0
9, 118848, Note_on_c, 5, 39, 75
9, 118848, Note_on_c, 5, 51, 75
9, 119040, Note_off_c, 5, 39, 0
9, 119040, Note_off_c, 5, 51, 0
9, 119040, Note_on_c, 5, 39, 75
9, 119040, Note_on_c, 5, 46, 75
9, 119232, Note_off_c, 5, 39, 0
9, 119232, Note_off_c, 5, 46, 0
9, 119232, Note_on_c, 5, 51, 75
9, 119424, Note_off_c, 5, 51, 0
9, 119424, Note_on_c, 5, 55, 75
9, 119616, Note_off_c, 5, 55, 0
9, 119616, Note_on_c, 5, 58, 75
9, 119808, Note_off_c, 5, 58, 0
9, 119808, Note_on_c, 5, 63, 75
9, 120000, Note_off_c, 5, 63, 0
9, 120000, Note_on_c, 5, 39, 75
9, 120000, Note_on_c, 5, 58, 75
9, 120384, Note_off_c, 5, 39, 0
9, 120384, Note_off_c, 5, 58, 0
9, 120384, Note_on_c, 5, 39, 75
9, 120384, Note_on_c, 5, 60, 75
9, 120768, Note_off_c, 5, 39, 0
9, 120768, Note_off_c, 5, 60, 0
9, 120768, Note_on_c, 5, 39, 75
9, 121152, Note_off_c, 5, 39, 0
9, 121152, Note_on_c, 5, 37, 75
9, 121344, Note_off_c, 5, 37, 0
9, 121344, Note_on_c, 5, 61, 75
9, 121536, Note_off_c, 5, 61, 0
9, 121536, Note_on_c, 5, 58, 75
9, 121728, Note_off_c, 5, 58, 0
9, 121728, Note_on_c, 5, 55, 75
9, 121920, Note_off_c, 5, 55, 0
9, 121920, Note_on_c, 5, 51, 75
9, 122112, Note_off_c, 5, 51, 0
9, 122112, Note_on_c, 5, 46, 75
9, 122304, Note_off_c, 5, 46, 0
9, 122304, Note_on_c, 5, 43, 75
9, 122688, Note_off_c, 5, 43, 0
9, 122688, Note_on_c, 5, 43, 75
9, 123072, Note_off_c, 5, 43, 0
9, 123072, Note_on_c, 5, 43, 75
9, 123456, Note_off_c, 5, 43, 0
9, 123456, Note_on_c, 5, 44, 75
9, 123840, Note_off_c, 5, 44, 0
9, 123840, Note_on_c, 5, 60, 75
9, 124032, Note_off_c, 5, 60, 0
9, 124032, Note_on_c, 5, 56, 75
9, 124224, Note_off_c, 5, 56, 0
9, 124224, Note_on_c, 5, 51, 75
9, 124416, Note_off_c, 5, 51, 0
9, 124416, Note_on_c, 5, 48, 75
9, 124608, Note_off_c, 5, 48, 0
9, 124608, Note_on_c, 5, 40, 92
9, 124800, Note_off_c, 5, 40, 0
9, 124800, Note_on_c, 5, 43, 92
9, 124992, Note_off_c, 5, 43, 0
9, 124992, Note_on_c, 5, 48, 92
9, 125184, Note_off_c, 5, 48, 0
9, 125184, Note_on_c, 5, 52, 92
9, 125376, Note_off_c, 5, 52, 0
9, 125376, Note_on_c, 5, 55, 92
9, 125568, Note_off_c, 5, 55, 0
9, 125568, Note_on_c, 5, 58, 92
9, 125760, Note_off_c, 5, 58, 0
9, 125760, Note_on_c, 5, 41, 92
9, 125760, Note_on_c, 5, 56, 92
9, 125952, Note_off_c, 5, 41, 0
9, 125952, Note_off_c, 5, 56, 0
9, 125952, Note_on_c, 5, 55, 92
9, 126144, Note_off_c, 5, 55, 0
9, 126144, Note_on_c, 5, 53, 92
9, 126336, Note_off_c, 5, 53, 0
9, 126336, Note_on_c, 5, 48, 92
9, 126528, Note_off_c, 5, 48, 0
9, 126528, Note_on_c, 5, 44, 92
9, 126528, Note_on_c, 5, 53, 92
9, 126720, Note_off_c, 5, 44, 0
9, 126720, Note_off_c, 5, 53, 0
9, 126720, Note_on_c, 5, 41, 92
9, 126912, Note_off_c, 5, 41, 0
9, 126912, Note_on_c, 5, 38, 92
9, 127296, Note_off_c, 5, 38, 0
9, 127296, Note_on_c, 5, 39, 92
9, 127680, Note_off_c, 5, 39, 0
9, 127680, Note_on_c, 5, 41, 92
9, 128064, Note_off_c, 5, 41, 0
9, 128064, Note_on_c, 5, 43, 92
9, 128064, Note_on_c, 5, 55, 92
9, 128448, Note_off_c, 5, 43, 0
9, 128448, Note_off_c, 5, 55, 0
9, 128448, Note_on_c, 5, 43, 45
9, 128832, Note_off_c, 5, 43, 0
9, 128832, Note_on_c, 5, 43, 45
9, 129216, Note_off_c, 5, 43, 0
9, 129216, Note_on_c, 5, 43, 45
9, 129216, Note_on_c, 5, 55, 45
9, 129600, Note_off_c, 5, 43, 0
9, 129600, Note_off_c, 5, 55, 0
9, 129600, Note_on_c, 5, 43, 45
9, 129984, Note_off_c, 5, 43, 0
9, 129984, Note_on_c, 5, 43, 45
9, 130368, Note_off_c, 5, 43, 0
9, 130368, Note_on_c, 5, 43, 45
9, 130944, Note_off_c, 5, 43, 0
9, 130944, Note_on_c, 5, 47, 92
9, 131136, Note_off_c, 5, 47, 0
9, 131136, Note_on_c, 5, 48, 92
9, 131328, Note_off_c, 5, 48, 0
9, 131328, Note_on_c, 5, 50, 92
9, 131520, Note_off_c, 5, 50, 0
9, 131520, Note_on_c, 5, 39, 92
9, 131904, Note_off_c, 5, 39, 0
9, 131904, Note_on_c, 5, 55, 92
9, 132096, Note_off_c, 5, 55, 0
9, 132096, Note_on_c, 5, 41, 92
9, 132096, Note_on_c, 5, 56, 92
9, 132288, Note_off_c, 5, 41, 0
9, 132288, Note_off_c, 5, 56, 0
9, 132288, Note_on_c, 5, 43, 92
9, 132288, Note_on_c, 5, 55, 92
9, 132480, Note_off_c, 5, 43, 0
9, 132480, Note_off_c, 5, 55, 0
9, 132480, Note_on_c, 5, 53, 92
9, 132672, Note_off_c, 5, 53, 0
9, 132672, Note_on_c, 5, 36, 92
9, 132672, Note_on_c, 5, 51, 92
9, 132864, Note_off_c, 5, 36, 0
9, 132864, Note_off_c, 5, 51, 0
9, 132864, Note_on_c, 5, 36, 92
9, 133056, Note_off_c, 5, 36, 0
9, 133056, Note_on_c, 5, 39, 92
9, 133248, Note_off_c, 5, 39, 0
9, 133248, Note_on_c, 5, 43, 92
9, 133440, Note_off_c, 5, 43, 0
9, 133440, Note_on_c, 5, 48, 92
9, 133824, Note_off_c, 5, 48, 0
9, 133824, Note_on_c, 5, 39, 60
9, 134208, Note_off_c, 5, 39, 0
9, 134208, Note_on_c, 5, 39, 60
9, 134208, Note_on_c, 5, 51, 60
9, 134592, Note_off_c, 5, 39, 0
9, 134592, Note_off_c, 5, 51, 0
9, 134592, Note_on_c, 5, 39, 60
9, 134976, Note_off_c, 5, 39, 0
9, 134976, Note_on_c, 5, 49, 60
9, 135168, Note_off_c, 5, 49, 0
9, 135168, Note_on_c, 5, 61, 60
9, 135360, Note_off_c, 5, 61, 0
9, 135360, Note_on_c, 5, 58, 60
9, 135552, Note_off_c, 5, 58, 0
9, 135552, Note_on_c, 5, 55, 60
9, 135744, Note_off_c, 5, 55, 0
9, 135744, Note_on_c, 5, 51, 60
9, 135936, Note_off_c, 5, 51, 0
9, 135936, Note_on_c, 5, 43, 60
9, 136512, Note_off_c, 5, 43, 0
9, 136512, Note_on_c, 5, 43, 60
9, 136896, Note_off_c, 5, 43, 0
9, 136896, Note_on_c, 5, 43, 60
9, 137280, Note_off_c, 5, 43, 0
9, 137280, Note_on_c, 5, 44, 60
9, 137280, Note_on_c, 5, 56, 60
9, 137664, Note_off_c, 5, 44, 0
9, 137664, Note_off_c, 5, 56, 0
9, 137664, Note_on_c, 5, 60, 60
9, 137856, Note_off_c, 5, 60, 0
9, 137856, Note_on_c, 5, 56, 60
9, 138048, Note_off_c, 5, 56, 0
9, 138048, Note_on_c, 5, 51, 60
9, 138240, Note_off_c, 5, 51, 0
9, 138240, Note_on_c, 5, 48, 60
9, 138432, Note_off_c, 5, 48, 0
9, 138432, Note_on_c, 5, 40, 60
9, 138624, Note_off_c, 5, 40, 0
9, 138624, Note_on_c, 5, 43, 60
9, 138816, Note_off_c, 5, 43, 0
9, 138816, Note_on_c, 5, 48, 75
9, 139008, Note_off_c, 5, 48, 0
9, 139008, Note_on_c, 5, 52, 75
9, 139200, Note_off_c, 5, 52, 0
9, 139200, Note_on_c, 5, 55, 75
9, 139392, Note_off_c, 5, 55, 0
9, 139392, Note_on_c, 5, 60, 75
9, 139584, Note_off_c, 5, 60, 0
9, 139584, Note_on_c, 5, 41, 75
9, 139584, Note_on_c, 5, 56, 75
9, 139776, Note_off_c, 5, 41, 0
9, 139776, Note_off_c, 5, 56, 0
9, 139776, Note_on_c, 5, 55, 75
9, 139968, Note_off_c, 5, 55, 0
9, 139968, Note_on_c, 5, 53, 75
9, 140160, Note_off_c, 5, 53, 0
9, 140160, Note_on_c, 5, 48, 75
9, 140352, Note_off_c, 5, 48, 0
9, 140352, Note_on_c, 5, 44, 75
9, 140352, Note_on_c, 5, 53, 75
9, 140544, Note_off_c, 5, 44, 0
9, 140544, Note_off_c, 5, 53, 0
9, 140544, Note_on_c, 5, 41, 75
9, 140736, Note_off_c, 5, 41, 0
9, 140736, Note_on_c, 5, 38, 75
9, 140736, Note_on_c, 5, 50, 75
9, 141120, Note_off_c, 5, 38, 0
9, 141120, Note_off_c, 5, 50, 0
9, 141120, Note_on_c, 5, 39, 75
9, 141120, Note_on_c, 5, 51, 75
9, 141504, Note_off_c, 5, 39, 0
9, 141504, Note_off_c, 5, 51, 0
9, 141504, Note_on_c, 5, 41, 75
9, 141504, Note_on_c, 5, 53, 75
9, 141888, Note_off_c, 5, 41, 0
9, 141888, Note_off_c, 5, 53, 0
9, 141888, Note_on_c, 5, 43, 75
9, 141888, Note_on_c, 5, 55, 75
9, 142272, Note_off_c, 5, 43, 0
9, 142272, Note_off_c, 5, 55, 0
9, 142272, Note_on_c, 5, 43, 45
9, 142272, Note_on_c, 5, 55, 45
9, 142656, Note_off_c, 5, 43, 0
9, 142656, Note_off_c, 5, 55, 0
9, 142656, Note_on_c, 5, 43, 45
9, 142656, Note_on_c, 5, 55, 45
9, 143040, Note_off_c, 5, 43, 0
9, 143040, Note_off_c, 5, 55, 0
9, 143040, Note_on_c, 5, 43, 45
9, 143040, Note_on_c, 5, 55, 45
9, 143424, Note_off_c, 5, 43, 0
9, 143424, Note_off_c, 5, 55, 0
9, 143424, Note_on_c, 5, 43, 45
9, 143424, Note_on_c, 5, 55, 45
9, 143808, Note_off_c, 5, 43, 0
9, 143808, Note_off_c, 5, 55, 0
9, 143808, Note_on_c, 5, 43, 45
9, 143808, Note_on_c, 5, 55, 45
9, 144192, Note_off_c, 5, 43, 0
9, 144192, Note_off_c, 5, 55, 0
9, 144192, Note_on_c, 5, 43, 45
9, 144192, Note_on_c, 5, 55, 45
9, 144768, Note_off_c, 5, 43, 0
9, 144768, Note_off_c, 5, 55, 0
9, 144768, Note_on_c, 5, 47, 92
9, 144768, Note_on_c, 5, 59, 92
9, 144960, Note_off_c, 5, 47, 0
9, 144960, Note_off_c, 5, 59, 0
9, 144960, Note_on_c, 5, 48, 92
9, 144960, Note_on_c, 5, 60, 92
9, 145152, Note_off_c, 5, 48, 0
9, 145152, Note_off_c, 5, 60, 0
9, 145152, Note_on_c, 5, 50, 92
9, 145152, Note_on_c, 5, 62, 92
9, 145344, Note_off_c, 5, 50, 0
9, 145344, Note_off_c, 5, 62, 0
9, 145344, Note_on_c, 5, 39, 92
9, 145344, Note_on_c, 5, 51, 92
9, 145920, Note_off_c, 5, 39, 0
9, 145920, Note_off_c, 5, 51, 0
9, 145920, Note_on_c, 5, 41, 92
9, 145920, Note_on_c, 5, 53, 92
9, 146112, Note_off_c, 5, 41, 0
9, 146112, Note_off_c, 5, 53, 0
9, 146112, Note_on_c, 5, 43, 92
9, 146112, Note_on_c, 5, 55, 92
9, 146496, Note_off_c, 5, 43, 0
9, 146496, Note_off_c, 5, 55, 0
9, 146496, Note_on_c, 5, 36, 92
9, 146496, Note_on_c, 5, 48, 92
9, 147648, Note_off_c, 5, 36, 0
9, 147648, Note_off_c, 5, 48, 0
9, 147648, End_track
10, 0, Start_track
10, 0, Title_t, "Double Bass"
10, 0, Control_c, 6, 0, 0
10, 0, Program_c, 6, 43
10, 0, Control_c, 6, 10, 64
10, 0, Key_signature, -3, "major"
10, 0, Control_c, 6, 7, 127
10, 0, Note_on_c, 6, 24, 63
10, 0, Note_on_c, 6, 36, 63
10, 384, Note_off_c, 6, 24, 0
10, 384, Note_off_c, 6, 36, 0
10, 384, Note_on_c, 6, 24, 63
10, 384, Note_on_c, 6, 36, 63
10, 768, Note_off_c, 6, 24, 0
10, 768, Note_off_c, 6, 36, 0
10, 768, Note_on_c, 6, 24, 63
10, 768, Note_on_c, 6, 36, 63
10, 1152, Note_off_c, 6, 24, 0
10, 1152, Note_off_c, 6, 36, 0
10, 1152, Note_on_c, 6, 24, 63
10, 1152, Note_on_c, 6, 36, 63
10, 1344, Note_off_c, 6, 24, 0
10, 1344, Note_off_c, 6, 36, 0
10, 1344, Note_on_c, 6, 44, 63
10, 1536, Note_off_c, 6, 44, 0
10, 1536, Note_on_c, 6, 41, 63
10, 1728, Note_off_c, 6, 41, 0
10, 1728, Note_on_c, 6, 38, 63
10, 1920, Note_off_c, 6, 38, 0
10, 1920, Note_on_c, 6, 35, 63
10, 2112, Note_off_c, 6, 35, 0
10, 2112, Note_on_c, 6, 31, 63
10, 2304, Note_off_c, 6, 31, 0
10, 2304, Note_on_c, 6, 24, 63
10, 2304, Note_on_c, 6, 36, 63
10, 2688, Note_off_c, 6, 24, 0
10, 2688, Note_off_c, 6, 36, 0
10, 2688, Note_on_c, 6, 24, 63
10, 2688, Note_on_c, 6, 36, 63
10, 3072, Note_off_c, 6, 24, 0
10, 3072, Note_off_c, 6, 36, 0
10, 3072, Note_on_c, 6, 24, 63
10, 3072, Note_on_c, 6, 36, 63
10, 3456, Note_off_c, 6, 24, 0
10, 3456, Note_off_c, 6, 36, 0
10, 3456, Note_on_c, 6, 24, 63
10, 3456, Note_on_c, 6, 36, 63
10, 3648, Note_off_c, 6, 24, 0
10, 3648, Note_off_c, 6, 36, 0
10, 3648, Note_on_c, 6, 48, 63
10, 3840, Note_off_c, 6, 48, 0
10, 3840, Note_on_c, 6, 44, 63
10, 4032, Note_off_c, 6, 44, 0
10, 4032, Note_on_c, 6, 41, 63
10, 4224, Note_off_c, 6, 41, 0
10, 4224, Note_on_c, 6, 38, 63
10, 4416, Note_off_c, 6, 38, 0
10, 4416, Note_on_c, 6, 36, 63
10, 4608, Note_off_c, 6, 36, 0
10, 4608, Note_on_c, 6, 35, 63
10, 4800, Note_off_c, 6, 35, 0
10, 4800, Note_on_c, 6, 31, 63
10, 4992, Note_off_c, 6, 31, 0
10, 4992, Note_on_c, 6, 31, 63
10, 4992, Note_on_c, 6, 35, 63
10, 5184, Note_off_c, 6, 31, 0
10, 5184, Note_off_c, 6, 35, 0
10, 5184, Note_on_c, 6, 38, 63
10, 5376, Note_off_c, 6, 38, 0
10, 5376, Note_on_c, 6, 35, 63
10, 5376, Note_on_c, 6, 38, 63
10, 5568, Note_off_c, 6, 35, 0
10, 5568, Note_off_c, 6, 38, 0
10, 5568, Note_on_c, 6, 43, 63
10, 5760, Note_off_c, 6, 43, 0
10, 5760, Note_on_c, 6, 24, 63
10, 6144, Note_off_c, 6, 24, 0
10, 6144, Note_on_c, 6, 24, 63
10, 6528, Note_off_c, 6, 24, 0
10, 6528, Note_on_c, 6, 36, 63
10, 6912, Note_off_c, 6, 36, 0
10, 6912, Note_on_c, 6, 38, 63
10, 7296, Note_off_c, 6, 38, 0
10, 7296, Note_on_c, 6, 39, 63
10, 7680, Note_off_c, 6, 39, 0
10, 7680, Note_on_c, 6, 32, 63
10, 8064, Note_off_c, 6, 32, 0
10, 8064, Note_on_c, 6, 34, 63
10, 8448, Note_off_c, 6, 34, 0
10, 8448, Note_on_c, 6, 34, 63
10, 8832, Note_off_c, 6, 34, 0
10, 8832, Note_on_c, 6, 34, 50
10, 9216, Note_off_c, 6, 34, 0
10, 9216, Note_on_c, 6, 34, 50
10, 9600, Note_off_c, 6, 34, 0
10, 9600, Note_on_c, 6, 34, 50
10, 9984, Note_off_c, 6, 34, 0
10, 9984, Note_on_c, 6, 34, 50
10, 10368, Note_off_c, 6, 34, 0
10, 10368, Note_on_c, 6, 34, 50
10, 10944, Note_off_c, 6, 34, 0
10, 10944, Note_on_c, 6, 38, 77
10, 11136, Note_off_c, 6, 38, 0
10, 11136, Note_on_c, 6, 39, 77
10, 11328, Note_off_c, 6, 39, 0
10, 11328, Note_on_c, 6, 41, 77
10, 11520, Note_off_c, 6, 41, 0
10, 11520, Note_on_c, 6, 31, 77
10, 12096, Note_off_c, 6, 31, 0
10, 12096, Note_on_c, 6, 32, 77
10, 12288, Note_off_c, 6, 32, 0
10, 12288, Note_on_c, 6, 34, 77
10, 12480, Note_off_c, 6, 34, 0
10, 12480, Note_on_c, 6, 34, 77
10, 12672, Note_off_c, 6, 34, 0
10, 12672, Note_on_c, 6, 27, 77
10, 12864, Note_off_c, 6, 27, 0
10, 12864, Note_on_c, 6, 31, 77
10, 13056, Note_off_c, 6, 31, 0
10, 13056, Note_on_c, 6, 34, 77
10, 13248, Note_off_c, 6, 34, 0
10, 13248, Note_on_c, 6, 39, 77
10, 13440, Note_off_c, 6, 39, 0
10, 13440, Note_on_c, 6, 43, 77
10, 13632, Note_off_c, 6, 43, 0
10, 13632, Note_on_c, 6, 47, 77
10, 13824, Note_off_c, 6, 47, 0
10, 13824, Note_on_c, 6, 36, 63
10, 14208, Note_off_c, 6, 36, 0
10, 14208, Note_on_c, 6, 24, 63
10, 14592, Note_off_c, 6, 24, 0
10, 14592, Note_on_c, 6, 36, 63
10, 14976, Note_off_c, 6, 36, 0
10, 14976, Note_on_c, 6, 24, 63
10, 15168, Note_off_c, 6, 24, 0
10, 15168, Note_on_c, 6, 44, 63
10, 15360, Note_off_c, 6, 44, 0
10, 15360, Note_on_c, 6, 41, 63
10, 15552, Note_off_c, 6, 41, 0
10, 15552, Note_on_c, 6, 38, 63
10, 15744, Note_off_c, 6, 38, 0
10, 15744, Note_on_c, 6, 35, 63
10, 15936, Note_off_c, 6, 35, 0
10, 15936, Note_on_c, 6, 31, 63
10, 16128, Note_off_c, 6, 31, 0
10, 16128, Note_on_c, 6, 36, 63
10, 16512, Note_off_c, 6, 36, 0
10, 16512, Note_on_c, 6, 24, 63
10, 16896, Note_off_c, 6, 24, 0
10, 16896, Note_on_c, 6, 36, 63
10, 17280, Note_off_c, 6, 36, 0
10, 17280, Note_on_c, 6, 29, 63
10, 17664, Note_off_c, 6, 29, 0
10, 17664, Note_on_c, 6, 44, 63
10, 17856, Note_off_c, 6, 44, 0
10, 17856, Note_on_c, 6, 41, 63
10, 18048, Note_off_c, 6, 41, 0
10, 18048, Note_on_c, 6, 38, 63
10, 18240, Note_off_c, 6, 38, 0
10, 18240, Note_on_c, 6, 36, 63
10, 18432, Note_off_c, 6, 36, 0
10, 18432, Note_on_c, 6, 35, 63
10, 18624, Note_off_c, 6, 35, 0
10, 18624, Note_on_c, 6, 31, 63
10, 18816, Note_off_c, 6, 31, 0
10, 18816, Note_on_c, 6, 31, 63
10, 18816, Note_on_c, 6, 35, 63
10, 19008, Note_off_c, 6, 31, 0
10, 19008, Note_off_c, 6, 35, 0
10, 19008, Note_on_c, 6, 38, 63
10, 19200, Note_off_c, 6, 38, 0
10, 19200, Note_on_c, 6, 35, 63
10, 19200, Note_on_c, 6, 38, 63
10, 19392, Note_off_c, 6, 35, 0
10, 19392, Note_off_c, 6, 38, 0
10, 19392, Note_on_c, 6, 43, 63
10, 19584, Note_off_c, 6, 43, 0
10, 19584, Note_on_c, 6, 36, 63
10, 19968, Note_off_c, 6, 36, 0
10, 19968, Note_on_c, 6, 24, 63
10, 20352, Note_off_c, 6, 24, 0
10, 20352, Note_on_c, 6, 36, 63
10, 20736, Note_off_c, 6, 36, 0
10, 20736, Note_on_c, 6, 38, 63
10, 21120, Note_off_c, 6, 38, 0
10, 21120, Note_on_c, 6, 27, 63
10, 21504, Note_off_c, 6, 27, 0
10, 21504, Note_on_c, 6, 32, 63
10, 21888, Note_off_c, 6, 32, 0
10, 21888, Note_on_c, 6, 34, 63
10, 22272, Note_off_c, 6, 34, 0
10, 22272, Note_on_c, 6, 34, 63
10, 22464, Note_off_c, 6, 34, 0
10, 22464, Note_on_c, 6, 41, 50
10, 22656, Note_off_c, 6, 41, 0
10, 22656, Note_on_c, 6, 34, 50
10, 22656, Note_on_c, 6, 43, 50
10, 22848, Note_off_c, 6, 34, 0
10, 22848, Note_off_c, 6, 43, 0
10, 22848, Note_on_c, 6, 39, 50
10, 23040, Note_off_c, 6, 39, 0
10, 23040, Note_on_c, 6, 34, 50
10, 23040, Note_on_c, 6, 48, 50
10, 23232, Note_off_c, 6, 34, 0
10, 23232, Note_off_c, 6, 48, 0
10, 23232, Note_on_c, 6, 50, 50
10, 23424, Note_off_c, 6, 50, 0
10, 23424, Note_on_c, 6, 34, 50
10, 23616, Note_off_c, 6, 34, 0
10, 23616, Note_on_c, 6, 53, 50
10, 23808, Note_off_c, 6, 53, 0
10, 23808, Note_on_c, 6, 34, 50
10, 24000, Note_off_c, 6, 34, 0
10, 24000, Note_on_c, 6, 51, 50
10, 24192, Note_off_c, 6, 51, 0
10, 24192, Note_on_c, 6, 22, 50
10, 24192, Note_on_c, 6, 34, 50
10, 24768, Note_off_c, 6, 22, 0
10, 24768, Note_off_c, 6, 34, 0
10, 24768, Note_on_c, 6, 38, 77
10, 24960, Note_off_c, 6, 38, 0
10, 24960, Note_on_c, 6, 39, 77
10, 25152, Note_off_c, 6, 39, 0
10, 25152, Note_on_c, 6, 41, 77
10, 25344, Note_off_c, 6, 41, 0
10, 25344, Note_on_c, 6, 31, 77
10, 25344, Note_on_c, 6, 43, 77
10, 25920, Note_off_c, 6, 31, 0
10, 25920, Note_off_c, 6, 43, 0
10, 25920, Note_on_c, 6, 32, 77
10, 25920, Note_on_c, 6, 44, 77
10, 26112, Note_off_c, 6, 32, 0
10, 26112, Note_off_c, 6, 44, 0
10, 26112, Note_on_c, 6, 34, 77
10, 26112, Note_on_c, 6, 46, 77
10, 26496, Note_off_c, 6, 34, 0
10, 26496, Note_off_c, 6, 46, 0
10, 26496, Note_on_c, 6, 27, 63
10, 26496, Note_on_c, 6, 39, 63
10, 26688, Note_off_c, 6, 27, 0
10, 26688, Note_off_c, 6, 39, 0
10, 26688, Note_on_c, 6, 27, 63
10, 26688, Note_on_c, 6, 34, 63
10, 26880, Note_off_c, 6, 27, 0
10, 26880, Note_off_c, 6, 34, 0
10, 26880, Note_on_c, 6, 39, 63
10, 27072, Note_off_c, 6, 39, 0
10, 27072, Note_on_c, 6, 43, 63
10, 27264, Note_off_c, 6, 43, 0
10, 27264, Note_on_c, 6, 46, 63
10, 27456, Note_off_c, 6, 46, 0
10, 27456, Note_on_c, 6, 51, 63
10, 27648, Note_off_c, 6, 51, 0
10, 27648, Note_on_c, 6, 27, 63
10, 27648, Note_on_c, 6, 46, 63
10, 28032, Note_off_c, 6, 27, 0
10, 28032, Note_off_c, 6, 46, 0
10, 28032, Note_on_c, 6, 27, 63
10, 28032, Note_on_c, 6, 48, 63
10, 28416, Note_off_c, 6, 27, 0
10, 28416, Note_off_c, 6, 48, 0
10, 28416, Note_on_c, 6, 27, 63
10, 28800, Note_off_c, 6, 27, 0
10, 28800, Note_on_c, 6, 25, 63
10, 28992, Note_off_c, 6, 25, 0
10, 28992, Note_on_c, 6, 49, 63
10, 29184, Note_off_c, 6, 49, 0
10, 29184, Note_on_c, 6, 46, 63
10, 29376, Note_off_c, 6, 46, 0
10, 29376, Note_on_c, 6, 43, 63
10, 29568, Note_off_c, 6, 43, 0
10, 29568, Note_on_c, 6, 39, 63
10, 29760, Note_off_c, 6, 39, 0
10, 29760, Note_on_c, 6, 34, 63
10, 29952, Note_off_c, 6, 34, 0
10, 29952, Note_on_c, 6, 31, 63
10, 30336, Note_off_c, 6, 31, 0
10, 30336, Note_on_c, 6, 31, 63
10, 30720, Note_off_c, 6, 31, 0
10, 30720, Note_on_c, 6, 31, 63
10, 31104, Note_off_c, 6, 31, 0
10, 31104, Note_on_c, 6, 32, 63
10, 31488, Note_off_c, 6, 32, 0
10, 31488, Note_on_c, 6, 48, 63
10, 31680, Note_off_c, 6, 48, 0
10, 31680, Note_on_c, 6, 44, 63
10, 31872, Note_off_c, 6, 44, 0
10, 31872, Note_on_c, 6, 39, 63
10, 32064, Note_off_c, 6, 39, 0
10, 32064, Note_on_c, 6, 36, 63
10, 32256, Note_off_c, 6, 36, 0
10, 32256, Note_on_c, 6, 28, 77
10, 32448, Note_off_c, 6, 28, 0
10, 32448, Note_on_c, 6, 31, 77
10, 32640, Note_off_c, 6, 31, 0
10, 32640, Note_on_c, 6, 36, 77
10, 32832, Note_off_c, 6, 36, 0
10, 32832, Note_on_c, 6, 40, 77
10, 33024, Note_off_c, 6, 40, 0
10, 33024, Note_on_c, 6, 43, 77
10, 33216, Note_off_c, 6, 43, 0
10, 33216, Note_on_c, 6, 46, 77
10, 33408, Note_off_c, 6, 46, 0
10, 33408, Note_on_c, 6, 29, 77
10, 33408, Note_on_c, 6, 44, 77
10, 33600, Note_off_c, 6, 29, 0
10, 33600, Note_off_c, 6, 44, 0
10, 33600, Note_on_c, 6, 43, 77
10, 33792, Note_off_c, 6, 43, 0
10, 33792, Note_on_c, 6, 41, 77
10, 33984, Note_off_c, 6, 41, 0
10, 33984, Note_on_c, 6, 36, 77
10, 34176, Note_off_c, 6, 36, 0
10, 34176, Note_on_c, 6, 32, 77
10, 34176, Note_on_c, 6, 41, 77
10, 34368, Note_off_c, 6, 32, 0
10, 34368, Note_off_c, 6, 41, 0
10, 34368, Note_on_c, 6, 29, 77
10, 34560, Note_off_c, 6, 29, 0
10, 34560, Note_on_c, 6, 26, 77
10, 34944, Note_off_c, 6, 26, 0
10, 34944, Note_on_c, 6, 27, 77
10, 35328, Note_off_c, 6, 27, 0
10, 35328, Note_on_c, 6, 29, 77
10, 35712, Note_off_c, 6, 29, 0
10, 35712, Note_on_c, 6, 31, 77
10, 35712, Note_on_c, 6, 43, 77
10, 36096, Note_off_c, 6, 31, 0
10, 36096, Note_off_c, 6, 43, 0
10, 36096, Note_on_c, 6, 31, 37
10, 36480, Note_off_c, 6, 31, 0
10, 36480, Note_on_c, 6, 31, 37
10, 36864, Note_off_c, 6, 31, 0
10, 36864, Note_on_c, 6, 31, 37
10, 36864, Note_on_c, 6, 43, 37
10, 37248, Note_off_c, 6, 31, 0
10, 37248, Note_off_c, 6, 43, 0
10, 37248, Note_on_c, 6, 31, 37
10, 37632, Note_off_c, 6, 31, 0
10, 37632, Note_on_c, 6, 31, 37
10, 38016, Note_off_c, 6, 31, 0
10, 38016, Note_on_c, 6, 31, 37
10, 38592, Note_off_c, 6, 31, 0
10, 38592, Note_on_c, 6, 35, 77
10, 38784, Note_off_c, 6, 35, 0
10, 38784, Note_on_c, 6, 36, 77
10, 38976, Note_off_c, 6, 36, 0
10, 38976, Note_on_c, 6, 38, 77
10, 39168, Note_off_c, 6, 38, 0
10, 39168, Note_on_c, 6, 27, 77
10, 39552, Note_off_c, 6, 27, 0
10, 39552, Note_on_c, 6, 43, 77
10, 39744, Note_off_c, 6, 43, 0
10, 39744, Note_on_c, 6, 29, 77
10, 39744, Note_on_c, 6, 44, 77
10, 39936, Note_off_c, 6, 29, 0
10, 39936, Note_off_c, 6, 44, 0
10, 39936, Note_on_c, 6, 31, 77
10, 39936, Note_on_c, 6, 43, 77
10, 40128, Note_off_c, 6, 31, 0
10, 40128, Note_off_c, 6, 43, 0
10, 40128, Note_on_c, 6, 41, 77
10, 40320, Note_off_c, 6, 41, 0
10, 40320, Note_on_c, 6, 24, 77
10, 40320, Note_on_c, 6, 39, 77
10, 40512, Note_off_c, 6, 24, 0
10, 40512, Note_off_c, 6, 39, 0
10, 40512, Note_on_c, 6, 24, 77
10, 40704, Note_off_c, 6, 24, 0
10, 40704, Note_on_c, 6, 27, 77
10, 40896, Note_off_c, 6, 27, 0
10, 40896, Note_on_c, 6, 31, 77
10, 41088, Note_off_c, 6, 31, 0
10, 41088, Note_on_c, 6, 36, 77
10, 41472, Note_off_c, 6, 36, 0
10, 41472, Note_on_c, 6, 27, 50
10, 41856, Note_off_c, 6, 27, 0
10, 41856, Note_on_c, 6, 27, 50
10, 41856, Note_on_c, 6, 39, 50
10, 42240, Note_off_c, 6, 27, 0
10, 42240, Note_off_c, 6, 39, 0
10, 42240, Note_on_c, 6, 27, 50
10, 42624, Note_off_c, 6, 27, 0
10, 42624, Note_on_c, 6, 37, 50
10, 42816, Note_off_c, 6, 37, 0
10, 42816, Note_on_c, 6, 49, 50
10, 43008, Note_off_c, 6, 49, 0
10, 43008, Note_on_c, 6, 46, 50
10, 43200, Note_off_c, 6, 46, 0
10, 43200, Note_on_c, 6, 43, 50
10, 43392, Note_off_c, 6, 43, 0
10, 43392, Note_on_c, 6, 39, 50
10, 43584, Note_off_c, 6, 39, 0
10, 43584, Note_on_c, 6, 31, 50
10, 44160, Note_off_c, 6, 31, 0
10, 44160, Note_on_c, 6, 31, 50
10, 44544, Note_off_c, 6, 31, 0
10, 44544, Note_on_c, 6, 31, 50
10, 44928, Note_off_c, 6, 31, 0
10, 44928, Note_on_c, 6, 32, 50
10, 44928, Note_on_c, 6, 44, 50
10, 45312, Note_off_c, 6, 32, 0
10, 45312, Note_off_c, 6, 44, 0
10, 45312, Note_on_c, 6, 48, 50
10, 45504, Note_off_c, 6, 48, 0
10, 45504, Note_on_c, 6, 44, 50
10, 45696, Note_off_c, 6, 44, 0
10, 45696, Note_on_c, 6, 39, 50
10, 45888, Note_off_c, 6, 39, 0
10, 45888, Note_on_c, 6, 36, 50
10, 46080, Note_off_c, 6, 36, 0
10, 46080, Note_on_c, 6, 28, 50
10, 46272, Note_off_c, 6, 28, 0
10, 46272, Note_on_c, 6, 31, 50
10, 46464, Note_off_c, 6, 31, 0
10, 46464, Note_on_c, 6, 36, 63
10, 46656, Note_off_c, 6, 36, 0
10, 46656, Note_on_c, 6, 40, 63
10, 46848, Note_off_c, 6, 40, 0
10, 46848, Note_on_c, 6, 43, 63
10, 47040, Note_off_c, 6, 43, 0
10, 47040, Note_on_c, 6, 48, 63
10, 47232, Note_off_c, 6, 48, 0
10, 47232, Note_on_c, 6, 29, 63
10, 47232, Note_on_c, 6, 44, 63
10, 47424, Note_off_c, 6, 29, 0
10, 47424, Note_off_c, 6, 44, 0
10, 47424, Note_on_c, 6, 43, 63
10, 47616, Note_off_c, 6, 43, 0
10, 47616, Note_on_c, 6, 41, 63
10, 47808, Note_off_c, 6, 41, 0
10, 47808, Note_on_c, 6, 36, 63
10, 48000, Note_off_c, 6, 36, 0
10, 48000, Note_on_c, 6, 32, 63
10, 48000, Note_on_c, 6, 41, 63
10, 48192, Note_off_c, 6, 32, 0
10, 48192, Note_off_c, 6, 41, 0
10, 48192, Note_on_c, 6, 29, 63
10, 48384, Note_off_c, 6, 29, 0
10, 48384, Note_on_c, 6, 26, 63
10, 48384, Note_on_c, 6, 38, 63
10, 48768, Note_off_c, 6, 26, 0
10, 48768, Note_off_c, 6, 38, 0
10, 48768, Note_on_c, 6, 27, 63
10, 48768, Note_on_c, 6, 39, 63
10, 49152, Note_off_c, 6, 27, 0
10, 49152, Note_off_c, 6, 39, 0
10, 49152, Note_on_c, 6, 29, 63
10, 49152, Note_on_c, 6, 41, 63
10, 49536, Note_off_c, 6, 29, 0
10, 49536, Note_off_c, 6, 41, 0
10, 49536, Note_on_c, 6, 31, 63
10, 49536, Note_on_c, 6, 43, 63
10, 49920, Note_off_c, 6, 31, 0
10, 49920, Note_off_c, 6, 43, 0
10, 49920, Note_on_c, 6, 31, 37
10, 49920, Note_on_c, 6, 43, 37
10, 50304, Note_off_c, 6, 31, 0
10, 50304, Note_off_c, 6, 43, 0
10, 50304, Note_on_c, 6, 31, 37
10, 50304, Note_on_c, 6, 43, 37
10, 50688, Note_off_c, 6, 31, 0
10, 50688, Note_off_c, 6, 43, 0
10, 50688, Note_on_c, 6, 31, 37
10, 50688, Note_on_c, 6, 43, 37
10, 51072, Note_off_c, 6, 31, 0
10, 51072, Note_off_c, 6, 43, 0
10, 51072, Note_on_c, 6, 31, 37
10, 51072, Note_on_c, 6, 43, 37
10, 51456, Note_off_c, 6, 31, 0
10, 51456, Note_off_c, 6, 43, 0
10, 51456, Note_on_c, 6, 31, 37
10, 51456, Note_on_c, 6, 43, 37
10, 51840, Note_off_c, 6, 31, 0
10, 51840, Note_off_c, 6, 43, 0
10, 51840, Note_on_c, 6, 31, 37
10, 51840, Note_on_c, 6, 43, 37
10, 52416, Note_off_c, 6, 31, 0
10, 52416, Note_off_c, 6, 43, 0
10, 52416, Note_on_c, 6, 35, 77
10, 52416, Note_on_c, 6, 47, 77
10, 52608, Note_off_c, 6, 35, 0
10, 52608, Note_off_c, 6, 47, 0
10, 52608, Note_on_c, 6, 36, 77
10, 52608, Note_on_c, 6, 48, 77
10, 52800, Note_off_c, 6, 36, 0
10, 52800, Note_off_c, 6, 48, 0
10, 52800, Note_on_c, 6, 38, 77
10, 52800, Note_on_c, 6, 50, 77
10, 52992, Note_off_c, 6, 38, 0
10, 52992, Note_off_c, 6, 50, 0
10, 52992, Note_on_c, 6, 27, 77
10, 52992, Note_on_c, 6, 39, 77
10, 53568, Note_off_c, 6, 27, 0
10, 53568, Note_off_c, 6, 39, 0
10, 53568, Note_on_c, 6, 29, 77
10, 53568, Note_on_c, 6, 41, 77
10, 53760, Note_off_c, 6, 29, 0
10, 53760, Note_off_c, 6, 41, 0
10, 53760, Note_on_c, 6, 31, 77
10, 53760, Note_on_c, 6, 43, 77
10, 54144, Note_off_c, 6, 31, 0
10, 54144, Note_off_c, 6, 43, 0
10, 54144, Note_on_c, 6, 24, 77
10, 54144, Note_on_c, 6, 36, 77
10, 55296, Note_off_c, 6, 24, 0
10, 55296, Note_off_c, 6, 36, 0
10, 55488, Note_on_c, 6, 27, 63
10, 55872, Note_off_c, 6, 27, 0
10, 55872, Note_on_c, 6, 36, 63
10, 56256, Note_off_c, 6, 36, 0
10, 56256, Note_on_c, 6, 34, 63
10, 56832, Note_off_c, 6, 34, 0
10, 56832, Note_on_c, 6, 46, 63
10, 57024, Note_off_c, 6, 46, 0
10, 57024, Note_on_c, 6, 44, 63
10, 57216, Note_off_c, 6, 44, 0
10, 57216, Note_on_c, 6, 43, 63
10, 57408, Note_off_c, 6, 43, 0
10, 57408, Note_on_c, 6, 41, 63
10, 57600, Note_off_c, 6, 41, 0
10, 57600, Note_on_c, 6, 38, 63
10, 57792, Note_off_c, 6, 38, 0
10, 57792, Note_on_c, 6, 40, 63
10, 58176, Note_off_c, 6, 40, 0
10, 58176, Note_on_c, 6, 31, 63
10, 58560, Note_off_c, 6, 31, 0
10, 58560, Note_on_c, 6, 36, 63
10, 58944, Note_off_c, 6, 36, 0
10, 58944, Note_on_c, 6, 41, 63
10, 59328, Note_off_c, 6, 41, 0
10, 59328, Note_on_c, 6, 29, 63
10, 59712, Note_off_c, 6, 29, 0
10, 59712, Note_on_c, 6, 29, 63
10, 60096, Note_off_c, 6, 29, 0
10, 60096, Note_on_c, 6, 29, 63
10, 60480, Note_off_c, 6, 29, 0
10, 60480, Note_on_c, 6, 29, 63
10, 60864, Note_off_c, 6, 29, 0
10, 60864, Note_on_c, 6, 29, 63
10, 61248, Note_off_c, 6, 29, 0
10, 61248, Note_on_c, 6, 26, 63
10, 61632, Note_off_c, 6, 26, 0
10, 61632, Note_on_c, 6, 41, 63
10, 62016, Note_off_c, 6, 41, 0
10, 62016, Note_on_c, 6, 39, 63
10, 62400, Note_off_c, 6, 39, 0
10, 62400, Note_on_c, 6, 39, 63
10, 62592, Note_off_c, 6, 39, 0
10, 62592, Note_on_c, 6, 51, 63
10, 62784, Note_off_c, 6, 51, 0
10, 62784, Note_on_c, 6, 49, 63
10, 62976, Note_off_c, 6, 49, 0
10, 62976, Note_on_c, 6, 48, 63
10, 63168, Note_off_c, 6, 48, 0
10, 63168, Note_on_c, 6, 46, 63
10, 63360, Note_off_c, 6, 46, 0
10, 63360, Note_on_c, 6, 43, 63
10, 63552, Note_off_c, 6, 43, 0
10, 63552, Note_on_c, 6, 45, 63
10, 63936, Note_off_c, 6, 45, 0
10, 63936, Note_on_c, 6, 36, 63
10, 64320, Note_off_c, 6, 36, 0
10, 64320, Note_on_c, 6, 41, 63
10, 64704, Note_off_c, 6, 41, 0
10, 64704, Note_on_c, 6, 46, 63
10, 65088, Note_off_c, 6, 46, 0
10, 65088, Note_on_c, 6, 34, 63
10, 65472, Note_off_c, 6, 34, 0
10, 65472, Note_on_c, 6, 34, 37
10, 65856, Note_off_c, 6, 34, 0
10, 65856, Note_on_c, 6, 34, 37
10, 66240, Note_off_c, 6, 34, 0
10, 66240, Note_on_c, 6, 34, 37
10, 66624, Note_off_c, 6, 34, 0
10, 66624, Note_on_c, 6, 34, 37
10, 67008, Note_off_c, 6, 34, 0
10, 67008, Note_on_c, 6, 34, 37
10, 67200, Note_off_c, 6, 34, 0
10, 67200, Note_on_c, 6, 48, 37
10, 67392, Note_off_c, 6, 48, 0
10, 67392, Note_on_c, 6, 46, 37
10, 67584, Note_off_c, 6, 46, 0
10, 67584, Note_on_c, 6, 44, 37
10, 67776, Note_off_c, 6, 44, 0
10, 67776, Note_on_c, 6, 43, 37
10, 67968, Note_off_c, 6, 43, 0
10, 67968, Note_on_c, 6, 41, 37
10, 68160, Note_off_c, 6, 41, 0
10, 68160, Note_on_c, 6, 40, 63
10, 68544, Note_off_c, 6, 40, 0
10, 68544, Note_on_c, 6, 28, 63
10, 68928, Note_off_c, 6, 28, 0
10, 68928, Note_on_c, 6, 28, 63
10, 69312, Note_off_c, 6, 28, 0
10, 69312, Note_on_c, 6, 29, 63
10, 69504, Note_off_c, 6, 29, 0
10, 69504, Note_on_c, 6, 39, 63
10, 69696, Note_off_c, 6, 39, 0
10, 69696, Note_on_c, 6, 38, 63
10, 69888, Note_off_c, 6, 38, 0
10, 69888, Note_on_c, 6, 36, 63
10, 70080, Note_off_c, 6, 36, 0
10, 70080, Note_on_c, 6, 35, 63
10, 70272, Note_off_c, 6, 35, 0
10, 70272, Note_on_c, 6, 36, 63
10, 70464, Note_off_c, 6, 36, 0
10, 70464, Note_on_c, 6, 35, 63
10, 70656, Note_off_c, 6, 35, 0
10, 70656, Note_on_c, 6, 31, 63
10, 70848, Note_off_c, 6, 31, 0
10, 70848, Note_on_c, 6, 35, 63
10, 71040, Note_off_c, 6, 35, 0
10, 71040, Note_on_c, 6, 38, 63
10, 71232, Note_off_c, 6, 38, 0
10, 71232, Note_on_c, 6, 43, 63
10, 71424, Note_off_c, 6, 43, 0
10, 71424, Note_on_c, 6, 47, 63
10, 71616, Note_off_c, 6, 47, 0
10, 71616, Note_on_c, 6, 36, 77
10, 71616, Note_on_c, 6, 48, 77
10, 71808, Note_off_c, 6, 36, 0
10, 71808, Note_off_c, 6, 48, 0
10, 71808, Note_on_c, 6, 43, 77
10, 72000, Note_off_c, 6, 43, 0
10, 72000, Note_on_c, 6, 41, 77
10, 72384, Note_off_c, 6, 41, 0
10, 72384, Note_on_c, 6, 43, 77
10, 72768, Note_off_c, 6, 43, 0
10, 72768, Note_on_c, 6, 36, 77
10, 72960, Note_off_c, 6, 36, 0
10, 72960, Note_on_c, 6, 43, 77
10, 73152, Note_off_c, 6, 43, 0
10, 73152, Note_on_c, 6, 41, 77
10, 73536, Note_off_c, 6, 41, 0
10, 73536, Note_on_c, 6, 43, 77
10, 73920, Note_off_c, 6, 43, 0
10, 73920, Note_on_c, 6, 36, 77
10, 74112, Note_off_c, 6, 36, 0
10, 74112, Note_on_c, 6, 38, 77
10, 74304, Note_off_c, 6, 38, 0
10, 74304, Note_on_c, 6, 39, 77
10, 74688, Note_off_c, 6, 39, 0
10, 74688, Note_on_c, 6, 41, 77
10, 75072, Note_off_c, 6, 41, 0
10, 75072, Note_on_c, 6, 34, 77
10, 75264, Note_off_c, 6, 34, 0
10, 75264, Note_on_c, 6, 36, 77
10, 75456, Note_off_c, 6, 36, 0
10, 75456, Note_on_c, 6, 38, 77
10, 75840, Note_off_c, 6, 38, 0
10, 75840, Note_on_c, 6, 39, 77
10, 76224, Note_off_c, 6, 39, 0
10, 76224, Note_on_c, 6, 42, 77
10, 76416, Note_off_c, 6, 42, 0
10, 76416, Note_on_c, 6, 43, 77
10, 76608, Note_off_c, 6, 43, 0
10, 76608, Note_on_c, 6, 45, 77
10, 76800, Note_off_c, 6, 45, 0
10, 76800, Note_on_c, 6, 46, 77
10, 76992, Note_off_c, 6, 46, 0
10, 76992, Note_on_c, 6, 39, 77
10, 77184, Note_off_c, 6, 39, 0
10, 77184, Note_on_c, 6, 27, 77
10, 77376, Note_off_c, 6, 27, 0
10, 77376, Note_on_c, 6, 38, 77
10, 77760, Note_off_c, 6, 38, 0
10, 77760, Note_on_c, 6, 38, 37
10, 78144, Note_off_c, 6, 38, 0
10, 78144, Note_on_c, 6, 38, 37
10, 78528, Note_off_c, 6, 38, 0
10, 78528, Note_on_c, 6, 26, 37
10, 78912, Note_off_c, 6, 26, 0
10, 78912, Note_on_c, 6, 26, 37
10, 79296, Note_off_c, 6, 26, 0
10, 79296, Note_on_c, 6, 26, 37
10, 79680, Note_off_c, 6, 26, 0
10, 79680, Note_on_c, 6, 26, 37
10, 79872, Note_off_c, 6, 26, 0
10, 79872, Note_on_c, 6, 38, 37
10, 80064, Note_off_c, 6, 38, 0
10, 80064, Note_on_c, 6, 36, 37
10, 80256, Note_off_c, 6, 36, 0
10, 80256, Note_on_c, 6, 34, 77
10, 80448, Note_off_c, 6, 34, 0
10, 80448, Note_on_c, 6, 33, 77
10, 80640, Note_off_c, 6, 33, 0
10, 80640, Note_on_c, 6, 36, 77
10, 80832, Note_off_c, 6, 36, 0
10, 80832, Note_on_c, 6, 34, 77
10, 81024, Note_off_c, 6, 34, 0
10, 81024, Note_on_c, 6, 31, 77
10, 81216, Note_off_c, 6, 31, 0
10, 81216, Note_on_c, 6, 38, 77
10, 81600, Note_off_c, 6, 38, 0
10, 81600, Note_on_c, 6, 26, 77
10, 81984, Note_off_c, 6, 26, 0
10, 81984, Note_on_c, 6, 31, 63
10, 82176, Note_off_c, 6, 31, 0
10, 82176, Note_on_c, 6, 50, 63
10, 82368, Note_off_c, 6, 50, 0
10, 82368, Note_on_c, 6, 47, 63
10, 82560, Note_off_c, 6, 47, 0
10, 82560, Note_on_c, 6, 43, 63
10, 82752, Note_off_c, 6, 43, 0
10, 82752, Note_on_c, 6, 38, 63
10, 82944, Note_off_c, 6, 38, 0
10, 82944, Note_on_c, 6, 35, 63
10, 83136, Note_off_c, 6, 35, 0
10, 83136, Note_on_c, 6, 31, 63
10, 83520, Note_off_c, 6, 31, 0
10, 83520, Note_on_c, 6, 31, 63
10, 83904, Note_off_c, 6, 31, 0
10, 83904, Note_on_c, 6, 31, 63
10, 84288, Note_off_c, 6, 31, 0
10, 84288, Note_on_c, 6, 31, 63
10, 84480, Note_off_c, 6, 31, 0
10, 84480, Note_on_c, 6, 50, 63
10, 84672, Note_off_c, 6, 50, 0
10, 84672, Note_on_c, 6, 47, 63
10, 84864, Note_off_c, 6, 47, 0
10, 84864, Note_on_c, 6, 43, 63
10, 85056, Note_off_c, 6, 43, 0
10, 85056, Note_on_c, 6, 38, 63
10, 85248, Note_off_c, 6, 38, 0
10, 85248, Note_on_c, 6, 35, 63
10, 85440, Note_off_c, 6, 35, 0
10, 85440, Note_on_c, 6, 31, 63
10, 85824, Note_off_c, 6, 31, 0
10, 85824, Note_on_c, 6, 31, 63
10, 86208, Note_off_c, 6, 31, 0
10, 86208, Note_on_c, 6, 31, 63
10, 86592, Note_off_c, 6, 31, 0
10, 86592, Note_on_c, 6, 31, 63
10, 86784, Note_off_c, 6, 31, 0
10, 86784, Note_on_c, 6, 47, 63
10, 86976, Note_off_c, 6, 47, 0
10, 86976, Note_on_c, 6, 43, 63
10, 87168, Note_off_c, 6, 43, 0
10, 87168, Note_on_c, 6, 38, 63
10, 87360, Note_off_c, 6, 38, 0
10, 87360, Note_on_c, 6, 35, 63
10, 87552, Note_off_c, 6, 35, 0
10, 87552, Note_on_c, 6, 31, 63
10, 87744, Note_off_c, 6, 31, 0
10, 87744, Note_on_c, 6, 24, 63
10, 88128, Note_off_c, 6, 24, 0
10, 88128, Note_on_c, 6, 24, 63
10, 88512, Note_off_c, 6, 24, 0
10, 88512, Note_on_c, 6, 24, 63
10, 88896, Note_off_c, 6, 24, 0
10, 88896, Note_on_c, 6, 24, 63
10, 89280, Note_off_c, 6, 24, 0
10, 89280, Note_on_c, 6, 24, 63
10, 89664, Note_off_c, 6, 24, 0
10, 89664, Note_on_c, 6, 24, 63
10, 90048, Note_off_c, 6, 24, 0
10, 90048, Note_on_c, 6, 24, 63
10, 90432, Note_off_c, 6, 24, 0
10, 90432, Note_on_c, 6, 24, 63
10, 90816, Note_off_c, 6, 24, 0
10, 90816, Note_on_c, 6, 24, 63
10, 91200, Note_off_c, 6, 24, 0
10, 91200, Note_on_c, 6, 31, 77
10, 91392, Note_off_c, 6, 31, 0
10, 91392, Note_on_c, 6, 32, 77
10, 91584, Note_off_c, 6, 32, 0
10, 91584, Note_on_c, 6, 31, 77
10, 91776, Note_off_c, 6, 31, 0
10, 91776, Note_on_c, 6, 29, 77
10, 91968, Note_off_c, 6, 29, 0
10, 91968, Note_on_c, 6, 27, 77
10, 92160, Note_off_c, 6, 27, 0
10, 92160, Note_on_c, 6, 26, 77
10, 92352, Note_off_c, 6, 26, 0
10, 92352, Note_on_c, 6, 24, 63
10, 92352, Note_on_c, 6, 36, 63
10, 92736, Note_off_c, 6, 24, 0
10, 92736, Note_off_c, 6, 36, 0
10, 92736, Note_on_c, 6, 24, 63
10, 92736, Note_on_c, 6, 36, 63
10, 93120, Note_off_c, 6, 24, 0
10, 93120, Note_off_c, 6, 36, 0
10, 93120, Note_on_c, 6, 24, 63
10, 93120, Note_on_c, 6, 36, 63
10, 93504, Note_off_c, 6, 24, 0
10, 93504, Note_off_c, 6, 36, 0
10, 93504, Note_on_c, 6, 24, 63
10, 93504, Note_on_c, 6, 36, 63
10, 93696, Note_off_c, 6, 24, 0
10, 93696, Note_off_c, 6, 36, 0
10, 93696, Note_on_c, 6, 44, 63
10, 93888, Note_off_c, 6, 44, 0
10, 93888, Note_on_c, 6, 41, 63
10, 94080, Note_off_c, 6, 41, 0
10, 94080, Note_on_c, 6, 38, 63
10, 94272, Note_off_c, 6, 38, 0
10, 94272, Note_on_c, 6, 35, 63
10, 94464, Note_off_c, 6, 35, 0
10, 94464, Note_on_c, 6, 31, 63
10, 94656, Note_off_c, 6, 31, 0
10, 94656, Note_on_c, 6, 24, 63
10, 94656, Note_on_c, 6, 36, 63
10, 95040, Note_off_c, 6, 24, 0
10, 95040, Note_off_c, 6, 36, 0
10, 95040, Note_on_c, 6, 24, 63
10, 95040, Note_on_c, 6, 36, 63
10, 95424, Note_off_c, 6, 24, 0
10, 95424, Note_off_c, 6, 36, 0
10, 95424, Note_on_c, 6, 24, 63
10, 95424, Note_on_c, 6, 36, 63
10, 95808, Note_off_c, 6, 24, 0
10, 95808, Note_off_c, 6, 36, 0
10, 95808, Note_on_c, 6, 24, 63
10, 95808, Note_on_c, 6, 36, 63
10, 96000, Note_off_c, 6, 24, 0
10, 96000, Note_off_c, 6, 36, 0
10, 96000, Note_on_c, 6, 48, 63
10, 96192, Note_off_c, 6, 48, 0
10, 96192, Note_on_c, 6, 44, 63
10, 96384, Note_off_c, 6, 44, 0
10, 96384, Note_on_c, 6, 41, 63
10, 96576, Note_off_c, 6, 41, 0
10, 96576, Note_on_c, 6, 38, 63
10, 96768, Note_off_c, 6, 38, 0
10, 96768, Note_on_c, 6, 36, 63
10, 96960, Note_off_c, 6, 36, 0
10, 96960, Note_on_c, 6, 35, 63
10, 97152, Note_off_c, 6, 35, 0
10, 97152, Note_on_c, 6, 31, 63
10, 97344, Note_off_c, 6, 31, 0
10, 97344, Note_on_c, 6, 31, 63
10, 97344, Note_on_c, 6, 35, 63
10, 97536, Note_off_c, 6, 31, 0
10, 97536, Note_off_c, 6, 35, 0
10, 97536, Note_on_c, 6, 38, 63
10, 97728, Note_off_c, 6, 38, 0
10, 97728, Note_on_c, 6, 35, 63
10, 97728, Note_on_c, 6, 38, 63
10, 97920, Note_off_c, 6, 35, 0
10, 97920, Note_off_c, 6, 38, 0
10, 97920, Note_on_c, 6, 43, 63
10, 98112, Note_off_c, 6, 43, 0
10, 98112, Note_on_c, 6, 24, 63
10, 98496, Note_off_c, 6, 24, 0
10, 98496, Note_on_c, 6, 24, 63
10, 98880, Note_off_c, 6, 24, 0
10, 98880, Note_on_c, 6, 36, 63
10, 99264, Note_off_c, 6, 36, 0
10, 99264, Note_on_c, 6, 38, 63
10, 99648, Note_off_c, 6, 38, 0
10, 99648, Note_on_c, 6, 39, 63
10, 100032, Note_off_c, 6, 39, 0
10, 100032, Note_on_c, 6, 32, 63
10, 100416, Note_off_c, 6, 32, 0
10, 100416, Note_on_c, 6, 34, 63
10, 100800, Note_off_c, 6, 34, 0
10, 100800, Note_on_c, 6, 34, 63
10, 101184, Note_off_c, 6, 34, 0
10, 101184, Note_on_c, 6, 34, 50
10, 101568, Note_off_c, 6, 34, 0
10, 101568, Note_on_c, 6, 34, 50
10, 101952, Note_off_c, 6, 34, 0
10, 101952, Note_on_c, 6, 34, 50
10, 102336, Note_off_c, 6, 34, 0
10, 102336, Note_on_c, 6, 34, 50
10, 102720, Note_off_c, 6, 34, 0
10, 102720, Note_on_c, 6, 34, 50
10, 103296, Note_off_c, 6, 34, 0
10, 103296, Note_on_c, 6, 38, 77
10, 103488, Note_off_c, 6, 38, 0
10, 103488, Note_on_c, 6, 39, 77
10, 103680, Note_off_c, 6, 39, 0
10, 103680, Note_on_c, 6, 41, 77
10, 103872, Note_off_c, 6, 41, 0
10, 103872, Note_on_c, 6, 31, 77
10, 104448, Note_off_c, 6, 31, 0
10, 104448, Note_on_c, 6, 32, 77
10, 104640, Note_off_c, 6, 32, 0
10, 104640, Note_on_c, 6, 34, 77
10, 104832, Note_off_c, 6, 34, 0
10, 104832, Note_on_c, 6, 34, 77
10, 105024, Note_off_c, 6, 34, 0
10, 105024, Note_on_c, 6, 27, 77
10, 105216, Note_off_c, 6, 27, 0
10, 105216, Note_on_c, 6, 31, 77
10, 105408, Note_off_c, 6, 31, 0
10, 105408, Note_on_c, 6, 34, 77
10, 105600, Note_off_c, 6, 34, 0
10, 105600, Note_on_c, 6, 39, 77
10, 105792, Note_off_c, 6, 39, 0
10, 105792, Note_on_c, 6, 43, 77
10, 105984, Note_off_c, 6, 43, 0
10, 105984, Note_on_c, 6, 47, 77
10, 106176, Note_off_c, 6, 47, 0
10, 106176, Note_on_c, 6, 36, 63
10, 106560, Note_off_c, 6, 36, 0
10, 106560, Note_on_c, 6, 24, 63
10, 106944, Note_off_c, 6, 24, 0
10, 106944, Note_on_c, 6, 36, 63
10, 107328, Note_off_c, 6, 36, 0
10, 107328, Note_on_c, 6, 24, 63
10, 107520, Note_off_c, 6, 24, 0
10, 107520, Note_on_c, 6, 44, 63
10, 107712, Note_off_c, 6, 44, 0
10, 107712, Note_on_c, 6, 41, 63
10, 107904, Note_off_c, 6, 41, 0
10, 107904, Note_on_c, 6, 38, 63
10, 108096, Note_off_c, 6, 38, 0
10, 108096, Note_on_c, 6, 35, 63
10, 108288, Note_off_c, 6, 35, 0
10, 108288, Note_on_c, 6, 31, 63
10, 108480, Note_off_c, 6, 31, 0
10, 108480, Note_on_c, 6, 36, 63
10, 108864, Note_off_c, 6, 36, 0
10, 108864, Note_on_c, 6, 24, 63
10, 109248, Note_off_c, 6, 24, 0
10, 109248, Note_on_c, 6, 36, 63
10, 109632, Note_off_c, 6, 36, 0
10, 109632, Note_on_c, 6, 29, 63
10, 110016, Note_off_c, 6, 29, 0
10, 110016, Note_on_c, 6, 44, 63
10, 110208, Note_off_c, 6, 44, 0
10, 110208, Note_on_c, 6, 41, 63
10, 110400, Note_off_c, 6, 41, 0
10, 110400, Note_on_c, 6, 38, 63
10, 110592, Note_off_c, 6, 38, 0
10, 110592, Note_on_c, 6, 36, 63
10, 110784, Note_off_c, 6, 36, 0
10, 110784, Note_on_c, 6, 35, 63
10, 110976, Note_off_c, 6, 35, 0
10, 110976, Note_on_c, 6, 31, 63
10, 111168, Note_off_c, 6, 31, 0
10, 111168, Note_on_c, 6, 31, 63
10, 111168, Note_on_c, 6, 35, 63
10, 111360, Note_off_c, 6, 31, 0
10, 111360, Note_off_c, 6, 35, 0
10, 111360, Note_on_c, 6, 38, 63
10, 111552, Note_off_c, 6, 38, 0
10, 111552, Note_on_c, 6, 35, 63
10, 111552, Note_on_c, 6, 38, 63
10, 111744, Note_off_c, 6, 35, 0
10, 111744, Note_off_c, 6, 38, 0
10, 111744, Note_on_c, 6, 43, 63
10, 111936, Note_off_c, 6, 43, 0
10, 111936, Note_on_c, 6, 36, 63
10, 112320, Note_off_c, 6, 36, 0
10, 112320, Note_on_c, 6, 24, 63
10, 112704, Note_off_c, 6, 24, 0
10, 112704, Note_on_c, 6, 36, 63
10, 113088, Note_off_c, 6, 36, 0
10, 113088, Note_on_c, 6, 38, 63
10, 113472, Note_off_c, 6, 38, 0
10, 113472, Note_on_c, 6, 27, 63
10, 113856, Note_off_c, 6, 27, 0
10, 113856, Note_on_c, 6, 32, 63
10, 114240, Note_off_c, 6, 32, 0
10, 114240, Note_on_c, 6, 34, 63
10, 114624, Note_off_c, 6, 34, 0
10, 114624, Note_on_c, 6, 34, 63
10, 114816, Note_off_c, 6, 34, 0
10, 114816, Note_on_c, 6, 41, 50
10, 115008, Note_off_c, 6, 41, 0
10, 115008, Note_on_c, 6, 34, 50
10, 115008, Note_on_c, 6, 43, 50
10, 115200, Note_off_c, 6, 34, 0
10, 115200, Note_off_c, 6, 43, 0
10, 115200, Note_on_c, 6, 39, 50
10, 115392, Note_off_c, 6, 39, 0
10, 115392, Note_on_c, 6, 34, 50
10, 115392, Note_on_c, 6, 48, 50
10, 115584, Note_off_c, 6, 34, 0
10, 115584, Note_off_c, 6, 48, 0
10, 115584, Note_on_c, 6, 50, 50
10, 115776, Note_off_c, 6, 50, 0
10, 115776, Note_on_c, 6, 34, 50
10, 115968, Note_off_c, 6, 34, 0
10, 115968, Note_on_c, 6, 53, 50
10, 116160, Note_off_c, 6, 53, 0
10, 116160, Note_on_c, 6, 34, 50
10, 116352, Note_off_c, 6, 34, 0
10, 116352, Note_on_c, 6, 51, 50
10, 116544, Note_off_c, 6, 51, 0
10, 116544, Note_on_c, 6, 22, 50
10, 116544, Note_on_c, 6, 34, 50
10, 117120, Note_off_c, 6, 22, 0
10, 117120, Note_off_c, 6, 34, 0
10, 117120, Note_on_c, 6, 38, 77
10, 117312, Note_off_c, 6, 38, 0
10, 117312, Note_on_c, 6, 39, 77
10, 117504, Note_off_c, 6, 39, 0
10, 117504, Note_on_c, 6, 41, 77
10, 117696, Note_off_c, 6, 41, 0
10, 117696, Note_on_c, 6, 31, 77
10, 117696, Note_on_c, 6, 43, 77
10, 118272, Note_off_c, 6, 31, 0
10, 118272, Note_off_c, 6, 43, 0
10, 118272, Note_on_c, 6, 32, 77
10, 118272, Note_on_c, 6, 44, 77
10, 118464, Note_off_c, 6, 32, 0
10, 118464, Note_off_c, 6, 44, 0
10, 118464, Note_on_c, 6, 34, 77
10, 118464, Note_on_c, 6, 46, 77
10, 118848, Note_off_c, 6, 34, 0
10, 118848, Note_off_c, 6, 46, 0
10, 118848, Note_on_c, 6, 27, 63
10, 118848, Note_on_c, 6, 39, 63
10, 119040, Note_off_c, 6, 27, 0
10, 119040, Note_off_c, 6, 39, 0
10, 119040, Note_on_c, 6, 27, 63
10, 119040, Note_on_c, 6, 34, 63
10, 119232, Note_off_c, 6, 27, 0
10, 119232, Note_off_c, 6, 34, 0
10, 119232, Note_on_c, 6, 39, 63
10, 119424, Note_off_c, 6, 39, 0
10, 119424, Note_on_c, 6, 43, 63
10, 119616, Note_off_c, 6, 43, 0
10, 119616, Note_on_c, 6, 46, 63
10, 119808, Note_off_c, 6, 46, 0
10, 119808, Note_on_c, 6, 51, 63
10, 120000, Note_off_c, 6, 51, 0
10, 120000, Note_on_c, 6, 27, 63
10, 120000, Note_on_c, 6, 46, 63
10, 120384, Note_off_c, 6, 27, 0
10, 120384, Note_off_c, 6, 46, 0
10, 120384, Note_on_c, 6, 27, 63
10, 120384, Note_on_c, 6, 48, 63
10, 120768, Note_off_c, 6, 27, 0
10, 120768, Note_off_c, 6, 48, 0
10, 120768, Note_on_c, 6, 27, 63
10, 121152, Note_off_c, 6, 27, 0
10, 121152, Note_on_c, 6, 25, 63
10, 121344, Note_off_c, 6, 25, 0
10, 121344, Note_on_c, 6, 49, 63
10, 121536, Note_off_c, 6, 49, 0
10, 121536, Note_on_c, 6, 46, 63
10, 121728, Note_off_c, 6, 46, 0
10, 121728, Note_on_c, 6, 43, 63
10, 121920, Note_off_c, 6, 43, 0
10, 121920, Note_on_c, 6, 39, 63
10, 122112, Note_off_c, 6, 39, 0
10, 122112, Note_on_c, 6, 34, 63
10, 122304, Note_off_c, 6, 34, 0
10, 122304, Note_on_c, 6, 31, 63
10, 122688, Note_off_c, 6, 31, 0
10, 122688, Note_on_c, 6, 31, 63
10, 123072, Note_off_c, 6, 31, 0
10, 123072, Note_on_c, 6, 31, 63
10, 123456, Note_off_c, 6, 31, 0
10, 123456, Note_on_c, 6, 32, 63
10, 123840, Note_off_c, 6, 32, 0
10, 123840, Note_on_c, 6, 48, 63
10, 124032, Note_off_c, 6, 48, 0
10, 124032, Note_on_c, 6, 44, 63
10, 124224, Note_off_c, 6, 44, 0
10, 124224, Note_on_c, 6, 39, 63
10, 124416, Note_off_c, 6, 39, 0
10, 124416, Note_on_c, 6, 36, 63
10, 124608, Note_off_c, 6, 36, 0
10, 124608, Note_on_c, 6, 28, 77
10, 124800, Note_off_c, 6, 28, 0
10, 124800, Note_on_c, 6, 31, 77
10, 124992, Note_off_c, 6, 31, 0
10, 124992, Note_on_c, 6, 36, 77
10, 125184, Note_off_c, 6, 36, 0
10, 125184, Note_on_c, 6, 40, 77
10, 125376, Note_off_c, 6, 40, 0
10, 125376, Note_on_c, 6, 43, 77
10, 125568, Note_off_c, 6, 43, 0
10, 125568, Note_on_c, 6, 46, 77
10, 125760, Note_off_c, 6, 46, 0
10, 125760, Note_on_c, 6, 29, 77
10, 125760, Note_on_c, 6, 44, 77
10, 125952, Note_off_c, 6, 29, 0
10, 125952, Note_off_c, 6, 44, 0
10, 125952, Note_on_c, 6, 43, 77
10, 126144, Note_off_c, 6, 43, 0
10, 126144, Note_on_c, 6, 41, 77
10, 126336, Note_off_c, 6, 41, 0
10, 126336, Note_on_c, 6, 36, 77
10, 126528, Note_off_c, 6, 36, 0
10, 126528, Note_on_c, 6, 32, 77
10, 126528, Note_on_c, 6, 41, 77
10, 126720, Note_off_c, 6, 32, 0
10, 126720, Note_off_c, 6, 41, 0
10, 126720, Note_on_c, 6, 29, 77
10, 126912, Note_off_c, 6, 29, 0
10, 126912, Note_on_c, 6, 26, 77
10, 127296, Note_off_c, 6, 26, 0
10, 127296, Note_on_c, 6, 27, 77
10, 127680, Note_off_c, 6, 27, 0
10, 127680, Note_on_c, 6, 29, 77
10, 128064, Note_off_c, 6, 29, 0
10, 128064, Note_on_c, 6, 31, 77
10, 128064, Note_on_c, 6, 43, 77
10, 128448, Note_off_c, 6, 31, 0
10, 128448, Note_off_c, 6, 43, 0
10, 128448, Note_on_c, 6, 31, 37
10, 128832, Note_off_c, 6, 31, 0
10, 128832, Note_on_c, 6, 31, 37
10, 129216, Note_off_c, 6, 31, 0
10, 129216, Note_on_c, 6, 31, 37
10, 129216, Note_on_c, 6, 43, 37
10, 129600, Note_off_c, 6, 31, 0
10, 129600, Note_off_c, 6, 43, 0
10, 129600, Note_on_c, 6, 31, 37
10, 129984, Note_off_c, 6, 31, 0
10, 129984, Note_on_c, 6, 31, 37
10, 130368, Note_off_c, 6, 31, 0
10, 130368, Note_on_c, 6, 31, 37
10, 130944, Note_off_c, 6, 31, 0
10, 130944, Note_on_c, 6, 35, 77
10, 131136, Note_off_c, 6, 35, 0
10, 131136, Note_on_c, 6, 36, 77
10, 131328, Note_off_c, 6, 36, 0
10, 131328, Note_on_c, 6, 38, 77
10, 131520, Note_off_c, 6, 38, 0
10, 131520, Note_on_c, 6, 27, 77
10, 131904, Note_off_c, 6, 27, 0
10, 131904, Note_on_c, 6, 43, 77
10, 132096, Note_off_c, 6, 43, 0
10, 132096, Note_on_c, 6, 29, 77
10, 132096, Note_on_c, 6, 44, 77
10, 132288, Note_off_c, 6, 29, 0
10, 132288, Note_off_c, 6, 44, 0
10, 132288, Note_on_c, 6, 31, 77
10, 132288, Note_on_c, 6, 43, 77
10, 132480, Note_off_c, 6, 31, 0
10, 132480, Note_off_c, 6, 43, 0
10, 132480, Note_on_c, 6, 41, 77
10, 132672, Note_off_c, 6, 41, 0
10, 132672, Note_on_c, 6, 24, 77
10, 132672, Note_on_c, 6, 39, 77
10, 132864, Note_off_c, 6, 24, 0
10, 132864, Note_off_c, 6, 39, 0
10, 132864, Note_on_c, 6, 24, 77
10, 133056, Note_off_c, 6, 24, 0
10, 133056, Note_on_c, 6, 27, 77
10, 133248, Note_off_c, 6, 27, 0
10, 133248, Note_on_c, 6, 31, 77
10, 133440, Note_off_c, 6, 31, 0
10, 133440, Note_on_c, 6, 36, 77
10, 133824, Note_off_c, 6, 36, 0
10, 133824, Note_on_c, 6, 27, 50
10, 134208, Note_off_c, 6, 27, 0
10, 134208, Note_on_c, 6, 27, 50
10, 134208, Note_on_c, 6, 39, 50
10, 134592, Note_off_c, 6, 27, 0
10, 134592, Note_off_c, 6, 39, 0
10, 134592, Note_on_c, 6, 27, 50
10, 134976, Note_off_c, 6, 27, 0
10, 134976, Note_on_c, 6, 37, 50
10, 135168, Note_off_c, 6, 37, 0
10, 135168, Note_on_c, 6, 49, 50
10, 135360, Note_off_c, 6, 49, 0
10, 135360, Note_on_c, 6, 46, 50
10, 135552, Note_off_c, 6, 46, 0
10, 135552, Note_on_c, 6, 43, 50
10, 135744, Note_off_c, 6, 43, 0
10, 135744, Note_on_c, 6, 39, 50
10, 135936, Note_off_c, 6, 39, 0
10, 135936, Note_on_c, 6, 31, 50
10, 136512, Note_off_c, 6, 31, 0
10, 136512, Note_on_c, 6, 31, 50
10, 136896, Note_off_c, 6, 31, 0
10, 136896, Note_on_c, 6, 31, 50
10, 137280, Note_off_c, 6, 31, 0
10, 137280, Note_on_c, 6, 32, 50
10, 137280, Note_on_c, 6, 44, 50
10, 137664, Note_off_c, 6, 32, 0
10, 137664, Note_off_c, 6, 44, 0
10, 137664, Note_on_c, 6, 48, 50
10, 137856, Note_off_c, 6, 48, 0
10, 137856, Note_on_c, 6, 44, 50
10, 138048, Note_off_c, 6, 44, 0
10, 138048, Note_on_c, 6, 39, 50
10, 138240, Note_off_c, 6, 39, 0
10, 138240, Note_on_c, 6, 36, 50
10, 138432, Note_off_c, 6, 36, 0
10, 138432, Note_on_c, 6, 28, 50
10, 138624, Note_off_c, 6, 28, 0
10, 138624, Note_on_c, 6, 31, 50
10, 138816, Note_off_c, 6, 31, 0
10, 138816, Note_on_c, 6, 36, 63
10, 139008, Note_off_c, 6, 36, 0
10, 139008, Note_on_c, 6, 40, 63
10, 139200, Note_off_c, 6, 40, 0
10, 139200, Note_on_c, 6, 43, 63
10, 139392, Note_off_c, 6, 43, 0
10, 139392, Note_on_c, 6, 48, 63
10, 139584, Note_off_c, 6, 48, 0
10, 139584, Note_on_c, 6, 29, 63
10, 139584, Note_on_c, 6, 44, 63
10, 139776, Note_off_c, 6, 29, 0
10, 139776, Note_off_c, 6, 44, 0
10, 139776, Note_on_c, 6, 43, 63
10, 139968, Note_off_c, 6, 43, 0
10, 139968, Note_on_c, 6, 41, 63
10, 140160, Note_off_c, 6, 41, 0
10, 140160, Note_on_c, 6, 36, 63
10, 140352, Note_off_c, 6, 36, 0
10, 140352, Note_on_c, 6, 32, 63
10, 140352, Note_on_c, 6, 41, 63
10, 140544, Note_off_c, 6, 32, 0
10, 140544, Note_off_c, 6, 41, 0
10, 140544, Note_on_c, 6, 29, 63
10, 140736, Note_off_c, 6, 29, 0
10, 140736, Note_on_c, 6, 26, 63
10, 140736, Note_on_c, 6, 38, 63
10, 141120, Note_off_c, 6, 26, 0
10, 141120, Note_off_c, 6, 38, 0
10, 141120, Note_on_c, 6, 27, 63
10, 141120, Note_on_c, 6, 39, 63
10, 141504, Note_off_c, 6, 27, 0
10, 141504, Note_off_c, 6, 39, 0
10, 141504, Note_on_c, 6, 29, 63
10, 141504, Note_on_c, 6, 41, 63
10, 141888, Note_off_c, 6, 29, 0
10, 141888, Note_off_c, 6, 41, 0
10, 141888, Note_on_c, 6, 31, 63
10, 141888, Note_on_c, 6, 43, 63
10, 142272, Note_off_c, 6, 31, 0
10, 142272, Note_off_c, 6, 43, 0
10, 142272, Note_on_c, 6, 31, 37
10, 142272, Note_on_c, 6, 43, 37
10, 142656, Note_off_c, 6, 31, 0
10, 142656, Note_off_c, 6, 43, 0
10, 142656, Note_on_c, 6, 31, 37
10, 142656, Note_on_c, 6, 43, 37
10, 143040, Note_off_c, 6, 31, 0
10, 143040, Note_off_c, 6, 43, 0
10, 143040, Note_on_c, 6, 31, 37
10, 143040, Note_on_c, 6, 43, 37
10, 143424, Note_off_c, 6, 31, 0
10, 143424, Note_off_c, 6, 43, 0
10, 143424, Note_on_c, 6, 31, 37
10, 143424, Note_on_c, 6, 43, 37
10, 143808, Note_off_c, 6, 31, 0
10, 143808, Note_off_c, 6, 43, 0
10, 143808, Note_on_c, 6, 31, 37
10, 143808, Note_on_c, 6, 43, 37
10, 144192, Note_off_c, 6, 31, 0
10, 144192, Note_off_c, 6, 43, 0
10, 144192, Note_on_c, 6, 31, 37
10, 144192, Note_on_c, 6, 43, 37
10, 144768, Note_off_c, 6, 31, 0
10, 144768, Note_off_c, 6, 43, 0
10, 144768, Note_on_c, 6, 35, 77
10, 144768, Note_on_c, 6, 47, 77
10, 144960, Note_off_c, 6, 35, 0
10, 144960, Note_off_c, 6, 47, 0
10, 144960, Note_on_c, 6, 36, 77
10, 144960, Note_on_c, 6, 48, 77
10, 145152, Note_off_c, 6, 36, 0
10, 145152, Note_off_c, 6, 48, 0
10, 145152, Note_on_c, 6, 38, 77
10, 145152, Note_on_c, 6, 50, 77
10, 145344, Note_off_c, 6, 38, 0
10, 145344, Note_off_c, 6, 50, 0
10, 145344, Note_on_c, 6, 27, 77
10, 145344, Note_on_c, 6, 39, 77
10, 145920, Note_off_c, 6, 27, 0
10, 145920, Note_off_c, 6, 39, 0
10, 145920, Note_on_c, 6, 29, 77
10, 145920, Note_on_c, 6, 41, 77
10, 146112, Note_off_c, 6, 29, 0
10, 146112, Note_off_c, 6, 41, 0
10, 146112, Note_on_c, 6, 31, 77
10, 146112, Note_on_c, 6, 43, 77
10, 146496, Note_off_c, 6, 31, 0
10, 146496, Note_off_c, 6, 43, 0
10, 146496, Note_on_c, 6, 24, 77
10, 146496, Note_on_c, 6, 36, 77
10, 147648, Note_off_c, 6, 24, 0
10, 147648, Note_off_c, 6, 36, 0
10, 147648, End_track
11, 0, Start_track
11, 0, Title_t, "Soprano I"
11, 0, Control_c, 10, 0, 0
11, 0, Program_c, 10, 52
11, 0, Control_c, 10, 10, 0
11, 0, Key_signature, -3, "major"
11, 0, Control_c, 10, 7, 127
11, 13824, Note_on_c, 10, 75, 92
11, 14016, Note_off_c, 10, 75, 0
11, 14016, Note_on_c, 10, 77, 92
11, 14112, Note_off_c, 10, 77, 0
11, 14112, Note_on_c, 10, 79, 92
11, 14208, Note_off_c, 10, 79, 0
11, 14208, Note_on_c, 10, 77, 92
11, 14400, Note_off_c, 10, 77, 0
11, 14400, Note_on_c, 10, 75, 92
11, 14592, Note_off_c, 10, 75, 0
11, 14592, Note_on_c, 10, 74, 92
11, 14784, Note_off_c, 10, 74, 0
11, 14784, Note_on_c, 10, 72, 92
11, 14976, Note_off_c, 10, 72, 0
11, 14976, Note_on_c, 10, 71, 92
11, 16128, Note_off_c, 10, 71, 0
11, 16128, Note_on_c, 10, 70, 92
11, 16320, Note_off_c, 10, 70, 0
11, 16320, Note_on_c, 10, 72, 92
11, 16416, Note_off_c, 10, 72, 0
11, 16416, Note_on_c, 10, 73, 92
11, 16512, Note_off_c, 10, 73, 0
11, 16512, Note_on_c, 10, 73, 92
11, 16704, Note_off_c, 10, 73, 0
11, 16704, Note_on_c, 10, 72, 92
11, 16896, Note_off_c, 10, 72, 0
11, 16896, Note_on_c, 10, 72, 92
11, 17088, Note_off_c, 10, 72, 0
11, 17088, Note_on_c, 10, 70, 92
11, 17280, Note_off_c, 10, 70, 0
11, 17280, Note_on_c, 10, 70, 92
11, 17376, Note_off_c, 10, 70, 0
11, 17376, Note_on_c, 10, 68, 92
11, 17472, Note_off_c, 10, 68, 0
11, 17472, Note_on_c, 10, 67, 92
11, 17664, Note_off_c, 10, 67, 0
11, 17664, Note_on_c, 10, 68, 92
11, 18432, Note_off_c, 10, 68, 0
11, 18432, Note_on_c, 10, 67, 92
11, 18816, Note_off_c, 10, 67, 0
11, 18816, Note_on_c, 10, 77, 92
11, 19776, Note_off_c, 10, 77, 0
11, 19776, Note_on_c, 10, 74, 92
11, 19968, Note_off_c, 10, 74, 0
11, 19968, Note_on_c, 10, 75, 92
11, 20160, Note_off_c, 10, 75, 0
11, 20160, Note_on_c, 10, 72, 92
11, 20352, Note_off_c, 10, 72, 0
11, 20352, Note_on_c, 10, 68, 92
11, 20928, Note_off_c, 10, 68, 0
11, 20928, Note_on_c, 10, 65, 92
11, 21120, Note_off_c, 10, 65, 0
11, 21120, Note_on_c, 10, 67, 92
11, 21312, Note_off_c, 10, 67, 0
11, 21312, Note_on_c, 10, 72, 92
11, 21504, Note_off_c, 10, 72, 0
11, 21504, Note_on_c, 10, 70, 92
11, 21696, Note_off_c, 10, 70, 0
11, 21696, Note_on_c, 10, 68, 92
11, 21888, Note_off_c, 10, 68, 0
11, 21888, Note_on_c, 10, 67, 92
11, 22080, Note_off_c, 10, 67, 0
11, 22080, Note_on_c, 10, 65, 92
11, 22464, Note_off_c, 10, 65, 0
11, 22464, Note_on_c, 10, 74, 60
11, 22656, Note_off_c, 10, 74, 0
11, 22656, Note_on_c, 10, 75, 60
11, 22848, Note_off_c, 10, 75, 0
11, 22848, Note_on_c, 10, 72, 60
11, 23040, Note_off_c, 10, 72, 0
11, 23040, Note_on_c, 10, 69, 60
11, 23232, Note_off_c, 10, 69, 0
11, 23232, Note_on_c, 10, 70, 60
11, 23424, Note_off_c, 10, 70, 0
11, 23424, Note_on_c, 10, 70, 60
11, 23616, Note_off_c, 10, 70, 0
11, 24192, Note_on_c, 10, 69, 60
11, 24576, Note_off_c, 10, 69, 0
11, 24576, Note_on_c, 10, 70, 60
11, 24768, Note_off_c, 10, 70, 0
11, 24768, Note_on_c, 10, 80, 92
11, 24960, Note_off_c, 10, 80, 0
11, 24960, Note_on_c, 10, 79, 92
11, 25152, Note_off_c, 10, 79, 0
11, 25152, Note_on_c, 10, 77, 92
11, 25344, Note_off_c, 10, 77, 0
11, 25344, Note_on_c, 10, 74, 92
11, 25536, Note_off_c, 10, 74, 0
11, 25536, Note_on_c, 10, 75, 92
11, 25728, Note_off_c, 10, 75, 0
11, 25728, Note_on_c, 10, 70, 92
11, 25920, Note_off_c, 10, 70, 0
11, 25920, Note_on_c, 10, 68, 92
11, 26112, Note_off_c, 10, 68, 0
11, 26112, Note_on_c, 10, 67, 92
11, 26304, Note_off_c, 10, 67, 0
11, 26304, Note_on_c, 10, 65, 92
11, 26496, Note_off_c, 10, 65, 0
11, 26496, Note_on_c, 10, 63, 92
11, 27648, Note_off_c, 10, 63, 0
11, 41472, Note_on_c, 10, 67, 75
11, 41664, Note_off_c, 10, 67, 0
11, 41664, Note_on_c, 10, 68, 75
11, 41760, Note_off_c, 10, 68, 0
11, 41760, Note_on_c, 10, 70, 75
11, 41856, Note_off_c, 10, 70, 0
11, 41856, Note_on_c, 10, 68, 75
11, 42048, Note_off_c, 10, 68, 0
11, 42048, Note_on_c, 10, 67, 75
11, 42240, Note_off_c, 10, 67, 0
11, 42240, Note_on_c, 10, 65, 75
11, 42432, Note_off_c, 10, 65, 0
11, 42432, Note_on_c, 10, 63, 75
11, 42624, Note_off_c, 10, 63, 0
11, 42624, Note_on_c, 10, 70, 75
11, 43776, Note_off_c, 10, 70, 0
11, 43776, Note_on_c, 10, 73, 75
11, 43968, Note_off_c, 10, 73, 0
11, 43968, Note_on_c, 10, 75, 75
11, 44064, Note_off_c, 10, 75, 0
11, 44064, Note_on_c, 10, 77, 75
11, 44160, Note_off_c, 10, 77, 0
11, 44160, Note_on_c, 10, 77, 75
11, 44352, Note_off_c, 10, 77, 0
11, 44352, Note_on_c, 10, 75, 75
11, 44544, Note_off_c, 10, 75, 0
11, 44544, Note_on_c, 10, 75, 75
11, 44736, Note_off_c, 10, 75, 0
11, 44736, Note_on_c, 10, 73, 75
11, 44928, Note_off_c, 10, 73, 0
11, 44928, Note_on_c, 10, 73, 75
11, 45024, Note_off_c, 10, 73, 0
11, 45024, Note_on_c, 10, 72, 75
11, 45120, Note_off_c, 10, 72, 0
11, 45120, Note_on_c, 10, 70, 75
11, 45312, Note_off_c, 10, 70, 0
11, 45312, Note_on_c, 10, 72, 75
11, 46080, Note_off_c, 10, 72, 0
11, 46080, Note_on_c, 10, 70, 75
11, 46464, Note_off_c, 10, 70, 0
11, 46464, Note_on_c, 10, 79, 92
11, 47424, Note_off_c, 10, 79, 0
11, 47424, Note_on_c, 10, 70, 92
11, 47616, Note_off_c, 10, 70, 0
11, 47616, Note_on_c, 10, 68, 92
11, 47808, Note_off_c, 10, 68, 0
11, 47808, Note_on_c, 10, 67, 92
11, 48000, Note_off_c, 10, 67, 0
11, 48000, Note_on_c, 10, 68, 92
11, 48192, Note_off_c, 10, 68, 0
11, 48192, Note_on_c, 10, 72, 92
11, 48384, Note_off_c, 10, 72, 0
11, 48384, Note_on_c, 10, 77, 92
11, 48576, Note_off_c, 10, 77, 0
11, 48576, Note_on_c, 10, 75, 92
11, 48768, Note_off_c, 10, 75, 0
11, 48768, Note_on_c, 10, 74, 92
11, 48960, Note_off_c, 10, 74, 0
11, 48960, Note_on_c, 10, 72, 92
11, 49152, Note_off_c, 10, 72, 0
11, 49152, Note_on_c, 10, 71, 92
11, 49344, Note_off_c, 10, 71, 0
11, 49344, Note_on_c, 10, 72, 92
11, 49536, Note_off_c, 10, 72, 0
11, 49536, Note_on_c, 10, 67, 92
11, 50112, Note_off_c, 10, 67, 0
11, 50112, Note_on_c, 10, 71, 60
11, 50304, Note_off_c, 10, 71, 0
11, 50304, Note_on_c, 10, 72, 60
11, 50496, Note_off_c, 10, 72, 0
11, 50496, Note_on_c, 10, 68, 60
11, 50688, Note_off_c, 10, 68, 0
11, 50688, Note_on_c, 10, 66, 60
11, 50880, Note_off_c, 10, 66, 0
11, 50880, Note_on_c, 10, 67, 60
11, 51072, Note_off_c, 10, 67, 0
11, 51072, Note_on_c, 10, 67, 60
11, 51264, Note_off_c, 10, 67, 0
11, 52416, Note_on_c, 10, 77, 108
11, 52608, Note_off_c, 10, 77, 0
11, 52608, Note_on_c, 10, 75, 108
11, 52800, Note_off_c, 10, 75, 0
11, 52800, Note_on_c, 10, 74, 108
11, 52992, Note_off_c, 10, 74, 0
11, 52992, Note_on_c, 10, 71, 108
11, 53184, Note_off_c, 10, 71, 0
11, 53184, Note_on_c, 10, 72, 108
11, 53376, Note_off_c, 10, 72, 0
11, 53376, Note_on_c, 10, 67, 108
11, 53568, Note_off_c, 10, 67, 0
11, 53568, Note_on_c, 10, 65, 108
11, 53760, Note_off_c, 10, 65, 0
11, 53760, Note_on_c, 10, 63, 108
11, 53952, Note_off_c, 10, 63, 0
11, 53952, Note_on_c, 10, 62, 108
11, 54144, Note_off_c, 10, 62, 0
11, 54144, Note_on_c, 10, 60, 108
11, 55296, Note_off_c, 10, 60, 0
11, 55488, Note_on_c, 10, 67, 92
11, 55872, Note_off_c, 10, 67, 0
11, 55872, Note_on_c, 10, 68, 92
11, 56448, Note_off_c, 10, 68, 0
11, 56448, Note_on_c, 10, 70, 92
11, 56640, Note_off_c, 10, 70, 0
11, 56640, Note_on_c, 10, 64, 92
11, 57216, Note_off_c, 10, 64, 0
11, 57216, Note_on_c, 10, 67, 92
11, 57408, Note_off_c, 10, 67, 0
11, 57408, Note_on_c, 10, 70, 92
11, 57984, Note_off_c, 10, 70, 0
11, 57984, Note_on_c, 10, 72, 92
11, 58176, Note_off_c, 10, 72, 0
11, 58176, Note_on_c, 10, 73, 92
11, 58368, Note_off_c, 10, 73, 0
11, 58368, Note_on_c, 10, 72, 92
11, 58560, Note_off_c, 10, 72, 0
11, 58560, Note_on_c, 10, 72, 92
11, 58752, Note_off_c, 10, 72, 0
11, 58752, Note_on_c, 10, 70, 92
11, 58944, Note_off_c, 10, 70, 0
11, 58944, Note_on_c, 10, 70, 92
11, 59136, Note_off_c, 10, 70, 0
11, 59136, Note_on_c, 10, 68, 92
11, 59328, Note_off_c, 10, 68, 0
11, 59328, Note_on_c, 10, 68, 92
11, 59712, Note_off_c, 10, 68, 0
11, 61632, Note_on_c, 10, 72, 92
11, 62016, Note_off_c, 10, 72, 0
11, 62016, Note_on_c, 10, 73, 92
11, 62304, Note_off_c, 10, 73, 0
11, 62304, Note_on_c, 10, 75, 92
11, 62400, Note_off_c, 10, 75, 0
11, 62400, Note_on_c, 10, 69, 92
11, 62976, Note_off_c, 10, 69, 0
11, 62976, Note_on_c, 10, 72, 92
11, 63168, Note_off_c, 10, 72, 0
11, 63168, Note_on_c, 10, 75, 92
11, 63744, Note_off_c, 10, 75, 0
11, 63744, Note_on_c, 10, 77, 92
11, 63936, Note_off_c, 10, 77, 0
11, 63936, Note_on_c, 10, 78, 92
11, 64128, Note_off_c, 10, 78, 0
11, 64128, Note_on_c, 10, 77, 92
11, 64320, Note_off_c, 10, 77, 0
11, 64320, Note_on_c, 10, 77, 92
11, 64512, Note_off_c, 10, 77, 0
11, 64512, Note_on_c, 10, 75, 92
11, 64704, Note_off_c, 10, 75, 0
11, 64704, Note_on_c, 10, 75, 92
11, 64896, Note_off_c, 10, 75, 0
11, 64896, Note_on_c, 10, 73, 92
11, 65088, Note_off_c, 10, 73, 0
11, 65088, Note_on_c, 10, 73, 92
11, 65472, Note_off_c, 10, 73, 0
11, 67392, Note_on_c, 10, 73, 75
11, 67776, Note_off_c, 10, 73, 0
11, 67776, Note_on_c, 10, 73, 75
11, 68160, Note_off_c, 10, 73, 0
11, 68160, Note_on_c, 10, 73, 75
11, 68544, Note_off_c, 10, 73, 0
11, 68544, Note_on_c, 10, 72, 75
11, 68736, Note_off_c, 10, 72, 0
11, 68736, Note_on_c, 10, 70, 75
11, 68928, Note_off_c, 10, 70, 0
11, 68928, Note_on_c, 10, 70, 75
11, 69120, Note_off_c, 10, 70, 0
11, 69120, Note_on_c, 10, 68, 75
11, 69312, Note_off_c, 10, 68, 0
11, 69312, Note_on_c, 10, 68, 75
11, 69504, Note_off_c, 10, 68, 0
11, 69504, Note_on_c, 10, 72, 75
11, 69696, Note_off_c, 10, 72, 0
11, 69696, Note_on_c, 10, 77, 75
11, 70080, Note_off_c, 10, 77, 0
11, 70080, Note_on_c, 10, 77, 75
11, 70464, Note_off_c, 10, 77, 0
11, 70464, Note_on_c, 10, 77, 75
11, 71616, Note_off_c, 10, 77, 0
11, 71616, Note_on_c, 10, 75, 92
11, 71808, Note_off_c, 10, 75, 0
11, 71808, Note_on_c, 10, 74, 92
11, 72000, Note_off_c, 10, 74, 0
11, 72000, Note_on_c, 10, 77, 92
11, 72192, Note_off_c, 10, 77, 0
11, 72192, Note_on_c, 10, 75, 92
11, 72384, Note_off_c, 10, 75, 0
11, 72384, Note_on_c, 10, 75, 92
11, 72576, Note_off_c, 10, 75, 0
11, 72576, Note_on_c, 10, 74, 92
11, 72768, Note_off_c, 10, 74, 0
11, 72768, Note_on_c, 10, 75, 92
11, 72960, Note_off_c, 10, 75, 0
11, 72960, Note_on_c, 10, 74, 92
11, 73152, Note_off_c, 10, 74, 0
11, 73152, Note_on_c, 10, 77, 92
11, 73344, Note_off_c, 10, 77, 0
11, 73344, Note_on_c, 10, 75, 92
11, 73536, Note_off_c, 10, 75, 0
11, 73536, Note_on_c, 10, 75, 92
11, 73728, Note_off_c, 10, 75, 0
11, 73728, Note_on_c, 10, 74, 92
11, 73920, Note_off_c, 10, 74, 0
11, 73920, Note_on_c, 10, 75, 92
11, 74112, Note_off_c, 10, 75, 0
11, 74112, Note_on_c, 10, 74, 92
11, 74304, Note_off_c, 10, 74, 0
11, 74304, Note_on_c, 10, 74, 92
11, 74496, Note_off_c, 10, 74, 0
11, 74496, Note_on_c, 10, 72, 92
11, 74688, Note_off_c, 10, 72, 0
11, 74688, Note_on_c, 10, 72, 92
11, 74880, Note_off_c, 10, 72, 0
11, 74880, Note_on_c, 10, 74, 92
11, 74976, Note_off_c, 10, 74, 0
11, 74976, Note_on_c, 10, 75, 92
11, 75072, Note_off_c, 10, 75, 0
11, 75072, Note_on_c, 10, 74, 92
11, 75264, Note_off_c, 10, 74, 0
11, 75264, Note_on_c, 10, 72, 92
11, 75456, Note_off_c, 10, 72, 0
11, 75456, Note_on_c, 10, 72, 92
11, 75648, Note_off_c, 10, 72, 0
11, 75648, Note_on_c, 10, 70, 92
11, 75840, Note_off_c, 10, 70, 0
11, 75840, Note_on_c, 10, 70, 92
11, 76032, Note_off_c, 10, 70, 0
11, 76032, Note_on_c, 10, 72, 92
11, 76128, Note_off_c, 10, 72, 0
11, 76128, Note_on_c, 10, 74, 92
11, 76224, Note_off_c, 10, 74, 0
11, 76224, Note_on_c, 10, 72, 92
11, 76416, Note_off_c, 10, 72, 0
11, 76416, Note_on_c, 10, 70, 92
11, 76608, Note_off_c, 10, 70, 0
11, 76608, Note_on_c, 10, 69, 92
11, 76800, Note_off_c, 10, 69, 0
11, 76800, Note_on_c, 10, 67, 92
11, 76992, Note_off_c, 10, 67, 0
11, 76992, Note_on_c, 10, 66, 92
11, 77184, Note_off_c, 10, 66, 0
11, 77184, Note_on_c, 10, 67, 92
11, 77376, Note_off_c, 10, 67, 0
11, 77376, Note_on_c, 10, 62, 92
11, 79872, Note_off_c, 10, 62, 0
11, 79872, Note_on_c, 10, 66, 92
11, 80064, Note_off_c, 10, 66, 0
11, 80064, Note_on_c, 10, 69, 92
11, 80256, Note_off_c, 10, 69, 0
11, 80256, Note_on_c, 10, 72, 92
11, 80448, Note_off_c, 10, 72, 0
11, 80448, Note_on_c, 10, 75, 92
11, 80640, Note_off_c, 10, 75, 0
11, 80640, Note_on_c, 10, 74, 92
11, 80832, Note_off_c, 10, 74, 0
11, 80832, Note_on_c, 10, 74, 92
11, 81216, Note_off_c, 10, 74, 0
11, 81216, Note_on_c, 10, 72, 92
11, 81408, Note_off_c, 10, 72, 0
11, 81408, Note_on_c, 10, 70, 92
11, 81600, Note_off_c, 10, 70, 0
11, 81600, Note_on_c, 10, 69, 92
11, 81792, Note_off_c, 10, 69, 0
11, 81792, Note_on_c, 10, 67, 92
11, 81984, Note_off_c, 10, 67, 0
11, 81984, Note_on_c, 10, 67, 92
11, 83136, Note_off_c, 10, 67, 0
11, 83136, Note_on_c, 10, 74, 92
11, 83520, Note_off_c, 10, 74, 0
11, 83520, Note_on_c, 10, 75, 92
11, 83904, Note_off_c, 10, 75, 0
11, 83904, Note_on_c, 10, 77, 92
11, 84096, Note_off_c, 10, 77, 0
11, 84096, Note_on_c, 10, 74, 92
11, 84288, Note_off_c, 10, 74, 0
11, 84288, Note_on_c, 10, 71, 92
11, 85440, Note_off_c, 10, 71, 0
11, 85440, Note_on_c, 10, 77, 92
11, 85824, Note_off_c, 10, 77, 0
11, 85824, Note_on_c, 10, 79, 92
11, 86208, Note_off_c, 10, 79, 0
11, 86208, Note_on_c, 10, 80, 92
11, 86976, Note_off_c, 10, 80, 0
11, 86976, Note_on_c, 10, 79, 92
11, 87168, Note_off_c, 10, 79, 0
11, 87168, Note_on_c, 10, 77, 92
11, 87360, Note_off_c, 10, 77, 0
11, 87360, Note_on_c, 10, 77, 92
11, 87552, Note_off_c, 10, 77, 0
11, 87552, Note_on_c, 10, 75, 92
11, 87744, Note_off_c, 10, 75, 0
11, 87744, Note_on_c, 10, 75, 92
11, 87936, Note_off_c, 10, 75, 0
11, 87936, Note_on_c, 10, 73, 92
11, 88128, Note_off_c, 10, 73, 0
11, 88128, Note_on_c, 10, 73, 92
11, 88320, Note_off_c, 10, 73, 0
11, 88320, Note_on_c, 10, 72, 92
11, 88512, Note_off_c, 10, 72, 0
11, 88512, Note_on_c, 10, 72, 92
11, 89088, Note_off_c, 10, 72, 0
11, 89088, Note_on_c, 10, 70, 92
11, 89280, Note_off_c, 10, 70, 0
11, 89280, Note_on_c, 10, 70, 92
11, 89472, Note_off_c, 10, 70, 0
11, 89472, Note_on_c, 10, 68, 92
11, 89664, Note_off_c, 10, 68, 0
11, 89664, Note_on_c, 10, 68, 92
11, 90240, Note_off_c, 10, 68, 0
11, 90240, Note_on_c, 10, 67, 92
11, 90432, Note_off_c, 10, 67, 0
11, 90432, Note_on_c, 10, 67, 92
11, 90624, Note_off_c, 10, 67, 0
11, 90624, Note_on_c, 10, 66, 92
11, 90816, Note_off_c, 10, 66, 0
11, 90816, Note_on_c, 10, 66, 92
11, 91008, Note_off_c, 10, 66, 0
11, 91008, Note_on_c, 10, 67, 92
11, 91200, Note_off_c, 10, 67, 0
11, 91200, Note_on_c, 10, 67, 92
11, 92352, Note_off_c, 10, 67, 0
11, 106176, Note_on_c, 10, 75, 92
11, 106368, Note_off_c, 10, 75, 0
11, 106368, Note_on_c, 10, 77, 92
11, 106464, Note_off_c, 10, 77, 0
11, 106464, Note_on_c, 10, 79, 92
11, 106560, Note_off_c, 10, 79, 0
11, 106560, Note_on_c, 10, 77, 92
11, 106752, Note_off_c, 10, 77, 0
11, 106752, Note_on_c, 10, 75, 92
11, 106944, Note_off_c, 10, 75, 0
11, 106944, Note_on_c, 10, 74, 92
11, 107136, Note_off_c, 10, 74, 0
11, 107136, Note_on_c, 10, 72, 92
11, 107328, Note_off_c, 10, 72, 0
11, 107328, Note_on_c, 10, 71, 92
11, 108480, Note_off_c, 10, 71, 0
11, 108480, Note_on_c, 10, 70, 92
11, 108672, Note_off_c, 10, 70, 0
11, 108672, Note_on_c, 10, 72, 92
11, 108768, Note_off_c, 10, 72, 0
11, 108768, Note_on_c, 10, 73, 92
11, 108864, Note_off_c, 10, 73, 0
11, 108864, Note_on_c, 10, 73, 92
11, 109056, Note_off_c, 10, 73, 0
11, 109056, Note_on_c, 10, 72, 92
11, 109248, Note_off_c, 10, 72, 0
11, 109248, Note_on_c, 10, 72, 92
11, 109440, Note_off_c, 10, 72, 0
11, 109440, Note_on_c, 10, 70, 92
11, 109632, Note_off_c, 10, 70, 0
11, 109632, Note_on_c, 10, 70, 92
11, 109728, Note_off_c, 10, 70, 0
11, 109728, Note_on_c, 10, 68, 92
11, 109824, Note_off_c, 10, 68, 0
11, 109824, Note_on_c, 10, 67, 92
11, 110016, Note_off_c, 10, 67, 0
11, 110016, Note_on_c, 10, 68, 92
11, 110784, Note_off_c, 10, 68, 0
11, 110784, Note_on_c, 10, 67, 92
11, 111168, Note_off_c, 10, 67, 0
11, 111168, Note_on_c, 10, 77, 92
11, 112128, Note_off_c, 10, 77, 0
11, 112128, Note_on_c, 10, 74, 92
11, 112320, Note_off_c, 10, 74, 0
11, 112320, Note_on_c, 10, 75, 92
11, 112512, Note_off_c, 10, 75, 0
11, 112512, Note_on_c, 10, 72, 92
11, 112704, Note_off_c, 10, 72, 0
11, 112704, Note_on_c, 10, 68, 92
11, 113280, Note_off_c, 10, 68, 0
11, 113280, Note_on_c, 10, 65, 92
11, 113472, Note_off_c, 10, 65, 0
11, 113472, Note_on_c, 10, 67, 92
11, 113664, Note_off_c, 10, 67, 0
11, 113664, Note_on_c, 10, 72, 92
11, 113856, Note_off_c, 10, 72, 0
11, 113856, Note_on_c, 10, 70, 92
11, 114048, Note_off_c, 10, 70, 0
11, 114048, Note_on_c, 10, 68, 92
11, 114240, Note_off_c, 10, 68, 0
11, 114240, Note_on_c, 10, 67, 92
11, 114432, Note_off_c, 10, 67, 0
11, 114432, Note_on_c, 10, 65, 92
11, 114816, Note_off_c, 10, 65, 0
11, 114816, Note_on_c, 10, 74, 60
11, 115008, Note_off_c, 10, 74, 0
11, 115008, Note_on_c, 10, 75, 60
11, 115200, Note_off_c, 10, 75, 0
11, 115200, Note_on_c, 10, 72, 60
11, 115392, Note_off_c, 10, 72, 0
11, 115392, Note_on_c, 10, 69, 60
11, 115584, Note_off_c, 10, 69, 0
11, 115584, Note_on_c, 10, 70, 60
11, 115776, Note_off_c, 10, 70, 0
11, 115776, Note_on_c, 10, 70, 60
11, 115968, Note_off_c, 10, 70, 0
11, 116544, Note_on_c, 10, 69, 60
11, 116928, Note_off_c, 10, 69, 0
11, 116928, Note_on_c, 10, 70, 60
11, 117120, Note_off_c, 10, 70, 0
11, 117120, Note_on_c, 10, 80, 92
11, 117312, Note_off_c, 10, 80, 0
11, 117312, Note_on_c, 10, 79, 92
11, 117504, Note_off_c, 10, 79, 0
11, 117504, Note_on_c, 10, 77, 92
11, 117696, Note_off_c, 10, 77, 0
11, 117696, Note_on_c, 10, 74, 92
11, 117888, Note_off_c, 10, 74, 0
11, 117888, Note_on_c, 10, 75, 92
11, 118080, Note_off_c, 10, 75, 0
11, 118080, Note_on_c, 10, 70, 92
11, 118272, Note_off_c, 10, 70, 0
11, 118272, Note_on_c, 10, 68, 92
11, 118464, Note_off_c, 10, 68, 0
11, 118464, Note_on_c, 10, 67, 92
11, 118656, Note_off_c, 10, 67, 0
11, 118656, Note_on_c, 10, 65, 92
11, 118848, Note_off_c, 10, 65, 0
11, 118848, Note_on_c, 10, 63, 92
11, 120000, Note_off_c, 10, 63, 0
11, 133824, Note_on_c, 10, 67, 75
11, 134016, Note_off_c, 10, 67, 0
11, 134016, Note_on_c, 10, 68, 75
11, 134112, Note_off_c, 10, 68, 0
11, 134112, Note_on_c, 10, 70, 75
11, 134208, Note_off_c, 10, 70, 0
11, 134208, Note_on_c, 10, 68, 75
11, 134400, Note_off_c, 10, 68, 0
11, 134400, Note_on_c, 10, 67, 75
11, 134592, Note_off_c, 10, 67, 0
11, 134592, Note_on_c, 10, 65, 75
11, 134784, Note_off_c, 10, 65, 0
11, 134784, Note_on_c, 10, 63, 75
11, 134976, Note_off_c, 10, 63, 0
11, 134976, Note_on_c, 10, 70, 75
11, 136128, Note_off_c, 10, 70, 0
11, 136128, Note_on_c, 10, 73, 75
11, 136320, Note_off_c, 10, 73, 0
11, 136320, Note_on_c, 10, 75, 75
11, 136416, Note_off_c, 10, 75, 0
11, 136416, Note_on_c, 10, 77, 75
11, 136512, Note_off_c, 10, 77, 0
11, 136512, Note_on_c, 10, 77, 75
11, 136704, Note_off_c, 10, 77, 0
11, 136704, Note_on_c, 10, 75, 75
11, 136896, Note_off_c, 10, 75, 0
11, 136896, Note_on_c, 10, 75, 75
11, 137088, Note_off_c, 10, 75, 0
11, 137088, Note_on_c, 10, 73, 75
11, 137280, Note_off_c, 10, 73, 0
11, 137280, Note_on_c, 10, 73, 75
11, 137376, Note_off_c, 10, 73, 0
11, 137376, Note_on_c, 10, 72, 75
11, 137472, Note_off_c, 10, 72, 0
11, 137472, Note_on_c, 10, 70, 75
11, 137664, Note_off_c, 10, 70, 0
11, 137664, Note_on_c, 10, 72, 75
11, 138432, Note_off_c, 10, 72, 0
11, 138432, Note_on_c, 10, 70, 75
11, 138816, Note_off_c, 10, 70, 0
11, 138816, Note_on_c, 10, 79, 92
11, 139776, Note_off_c, 10, 79, 0
11, 139776, Note_on_c, 10, 70, 92
11, 139968, Note_off_c, 10, 70, 0
11, 139968, Note_on_c, 10, 68, 92
11, 140160, Note_off_c, 10, 68, 0
11, 140160, Note_on_c, 10, 67, 92
11, 140352, Note_off_c, 10, 67, 0
11, 140352, Note_on_c, 10, 68, 92
11, 140544, Note_off_c, 10, 68, 0
11, 140544, Note_on_c, 10, 72, 92
11, 140736, Note_off_c, 10, 72, 0
11, 140736, Note_on_c, 10, 77, 92
11, 140928, Note_off_c, 10, 77, 0
11, 140928, Note_on_c, 10, 75, 92
11, 141120, Note_off_c, 10, 75, 0
11, 141120, Note_on_c, 10, 74, 92
11, 141312, Note_off_c, 10, 74, 0
11, 141312, Note_on_c, 10, 72, 92
11, 141504, Note_off_c, 10, 72, 0
11, 141504, Note_on_c, 10, 71, 92
11, 141696, Note_off_c, 10, 71, 0
11, 141696, Note_on_c, 10, 72, 92
11, 141888, Note_off_c, 10, 72, 0
11, 141888, Note_on_c, 10, 67, 92
11, 142464, Note_off_c, 10, 67, 0
11, 142464, Note_on_c, 10, 71, 60
11, 142656, Note_off_c, 10, 71, 0
11, 142656, Note_on_c, 10, 72, 60
11, 142848, Note_off_c, 10, 72, 0
11, 142848, Note_on_c, 10, 68, 60
11, 143040, Note_off_c, 10, 68, 0
11, 143040, Note_on_c, 10, 66, 60
11, 143232, Note_off_c, 10, 66, 0
11, 143232, Note_on_c, 10, 67, 60
11, 143424, Note_off_c, 10, 67, 0
11, 143424, Note_on_c, 10, 67, 60
11, 143616, Note_off_c, 10, 67, 0
11, 144768, Note_on_c, 10, 77, 108
11, 144960, Note_off_c, 10, 77, 0
11, 144960, Note_on_c, 10, 75, 108
11, 145152, Note_off_c, 10, 75, 0
11, 145152, Note_on_c, 10, 74, 108
11, 145344, Note_off_c, 10, 74, 0
11, 145344, Note_on_c, 10, 71, 108
11, 145536, Note_off_c, 10, 71, 0
11, 145536, Note_on_c, 10, 72, 108
11, 145728, Note_off_c, 10, 72, 0
11, 145728, Note_on_c, 10, 67, 108
11, 145920, Note_off_c, 10, 67, 0
11, 145920, Note_on_c, 10, 65, 108
11, 146112, Note_off_c, 10, 65, 0
11, 146112, Note_on_c, 10, 63, 108
11, 146304, Note_off_c, 10, 63, 0
11, 146304, Note_on_c, 10, 62, 108
11, 146496, Note_off_c, 10, 62, 0
11, 146496, Note_on_c, 10, 60, 108
11, 147648, Note_off_c, 10, 60, 0
11, 147648, End_track
12, 0, Start_track
12, 0, Title_t, "Alto I"
12, 0, Control_c, 11, 0, 0
12, 0, Program_c, 11, 52
12, 0, Control_c, 11, 10, 0
12, 0, Key_signature, -3, "major"
12, 0, Control_c, 11, 7, 127
12, 13824, Note_on_c, 11, 72, 92
12, 14016, Note_off_c, 11, 72, 0
12, 14016, Note_on_c, 11, 70, 92
12, 14208, Note_off_c, 11, 70, 0
12, 14208, Note_on_c, 11, 68, 92
12, 14400, Note_off_c, 11, 68, 0
12, 14400, Note_on_c, 11, 67, 92
12, 14592, Note_off_c, 11, 67, 0
12, 14592, Note_on_c, 11, 65, 92
12, 14784, Note_off_c, 11, 65, 0
12, 14784, Note_on_c, 11, 63, 92
12, 14976, Note_off_c, 11, 63, 0
12, 14976, Note_on_c, 11, 65, 92
12, 16128, Note_off_c, 11, 65, 0
12, 16128, Note_on_c, 11, 67, 92
12, 16320, Note_off_c, 11, 67, 0
12, 16320, Note_on_c, 11, 68, 92
12, 16416, Note_off_c, 11, 68, 0
12, 16416, Note_on_c, 11, 70, 92
12, 16512, Note_off_c, 11, 70, 0
12, 16512, Note_on_c, 11, 70, 92
12, 16704, Note_off_c, 11, 70, 0
12, 16704, Note_on_c, 11, 68, 92
12, 16896, Note_off_c, 11, 68, 0
12, 16896, Note_on_c, 11, 68, 92
12, 17088, Note_off_c, 11, 68, 0
12, 17088, Note_on_c, 11, 67, 92
12, 17280, Note_off_c, 11, 67, 0
12, 17280, Note_on_c, 11, 67, 92
12, 17376, Note_off_c, 11, 67, 0
12, 17376, Note_on_c, 11, 65, 92
12, 17472, Note_off_c, 11, 65, 0
12, 17472, Note_on_c, 11, 64, 92
12, 17664, Note_off_c, 11, 64, 0
12, 17664, Note_on_c, 11, 65, 92
12, 18624, Note_off_c, 11, 65, 0
12, 18624, Note_on_c, 11, 67, 92
12, 18816, Note_off_c, 11, 67, 0
12, 18816, Note_on_c, 11, 68, 92
12, 19008, Note_off_c, 11, 68, 0
12, 19008, Note_on_c, 11, 65, 92
12, 19200, Note_off_c, 11, 65, 0
12, 19200, Note_on_c, 11, 67, 92
12, 19776, Note_off_c, 11, 67, 0
12, 19776, Note_on_c, 11, 71, 92
12, 19968, Note_off_c, 11, 71, 0
12, 19968, Note_on_c, 11, 72, 92
12, 20160, Note_off_c, 11, 72, 0
12, 20160, Note_on_c, 11, 67, 92
12, 20352, Note_off_c, 11, 67, 0
12, 20352, Note_on_c, 11, 65, 92
12, 20544, Note_off_c, 11, 65, 0
12, 20544, Note_on_c, 11, 63, 92
12, 20736, Note_off_c, 11, 63, 0
12, 20736, Note_on_c, 11, 65, 92
12, 21120, Note_off_c, 11, 65, 0
12, 21120, Note_on_c, 11, 63, 92
12, 21312, Note_off_c, 11, 63, 0
12, 21312, Note_on_c, 11, 68, 92
12, 21504, Note_off_c, 11, 68, 0
12, 21504, Note_on_c, 11, 67, 92
12, 21696, Note_off_c, 11, 67, 0
12, 21696, Note_on_c, 11, 65, 92
12, 21888, Note_off_c, 11, 65, 0
12, 21888, Note_on_c, 11, 63, 92
12, 22080, Note_off_c, 11, 63, 0
12, 22080, Note_on_c, 11, 62, 92
12, 22464, Note_off_c, 11, 62, 0
12, 22464, Note_on_c, 11, 68, 60
12, 22656, Note_off_c, 11, 68, 0
12, 22656, Note_on_c, 11, 70, 60
12, 22848, Note_off_c, 11, 70, 0
12, 22848, Note_on_c, 11, 67, 60
12, 23040, Note_off_c, 11, 67, 0
12, 23040, Note_on_c, 11, 63, 60
12, 23232, Note_off_c, 11, 63, 0
12, 23232, Note_on_c, 11, 65, 60
12, 23424, Note_off_c, 11, 65, 0
12, 23424, Note_on_c, 11, 65, 60
12, 23616, Note_off_c, 11, 65, 0
12, 24192, Note_on_c, 11, 63, 60
12, 24576, Note_off_c, 11, 63, 0
12, 24576, Note_on_c, 11, 65, 60
12, 24768, Note_off_c, 11, 65, 0
12, 24768, Note_on_c, 11, 70, 92
12, 25152, Note_off_c, 11, 70, 0
12, 25152, Note_on_c, 11, 68, 92
12, 25344, Note_off_c, 11, 68, 0
12, 25344, Note_on_c, 11, 68, 92
12, 25536, Note_off_c, 11, 68, 0
12, 25536, Note_on_c, 11, 67, 92
12, 25728, Note_off_c, 11, 67, 0
12, 25728, Note_on_c, 11, 67, 92
12, 25920, Note_off_c, 11, 67, 0
12, 25920, Note_on_c, 11, 65, 92
12, 26112, Note_off_c, 11, 65, 0
12, 26112, Note_on_c, 11, 63, 92
12, 26304, Note_off_c, 11, 63, 0
12, 26304, Note_on_c, 11, 62, 92
12, 26496, Note_off_c, 11, 62, 0
12, 26496, Note_on_c, 11, 58, 92
12, 27648, Note_off_c, 11, 58, 0
12, 41472, Note_on_c, 11, 63, 75
12, 41664, Note_off_c, 11, 63, 0
12, 41664, Note_on_c, 11, 62, 75
12, 41856, Note_off_c, 11, 62, 0
12, 41856, Note_on_c, 11, 63, 75
12, 42240, Note_off_c, 11, 63, 0
12, 42240, Note_on_c, 11, 65, 75
12, 42624, Note_off_c, 11, 65, 0
12, 42624, Note_on_c, 11, 67, 75
12, 43776, Note_off_c, 11, 67, 0
12, 43776, Note_on_c, 11, 70, 75
12, 43968, Note_off_c, 11, 70, 0
12, 43968, Note_on_c, 11, 72, 75
12, 44064, Note_off_c, 11, 72, 0
12, 44064, Note_on_c, 11, 73, 75
12, 44160, Note_off_c, 11, 73, 0
12, 44160, Note_on_c, 11, 73, 75
12, 44352, Note_off_c, 11, 73, 0
12, 44352, Note_on_c, 11, 72, 75
12, 44544, Note_off_c, 11, 72, 0
12, 44544, Note_on_c, 11, 72, 75
12, 44736, Note_off_c, 11, 72, 0
12, 44736, Note_on_c, 11, 70, 75
12, 44928, Note_off_c, 11, 70, 0
12, 44928, Note_on_c, 11, 70, 75
12, 45024, Note_off_c, 11, 70, 0
12, 45024, Note_on_c, 11, 68, 75
12, 45120, Note_off_c, 11, 68, 0
12, 45120, Note_on_c, 11, 67, 75
12, 45312, Note_off_c, 11, 67, 0
12, 45312, Note_on_c, 11, 68, 75
12, 46080, Note_off_c, 11, 68, 0
12, 46080, Note_on_c, 11, 67, 75
12, 46464, Note_off_c, 11, 67, 0
12, 46464, Note_on_c, 11, 70, 92
12, 47424, Note_off_c, 11, 70, 0
12, 47424, Note_on_c, 11, 64, 92
12, 47616, Note_off_c, 11, 64, 0
12, 47616, Note_on_c, 11, 65, 92
12, 47808, Note_off_c, 11, 65, 0
12, 47808, Note_on_c, 11, 64, 92
12, 48000, Note_off_c, 11, 64, 0
12, 48000, Note_on_c, 11, 65, 92
12, 48576, Note_off_c, 11, 65, 0
12, 48576, Note_on_c, 11, 67, 92
12, 48768, Note_off_c, 11, 67, 0
12, 48768, Note_on_c, 11, 65, 92
12, 48960, Note_off_c, 11, 65, 0
12, 48960, Note_on_c, 11, 63, 92
12, 49152, Note_off_c, 11, 63, 0
12, 49152, Note_on_c, 11, 62, 92
12, 49344, Note_off_c, 11, 62, 0
12, 49344, Note_on_c, 11, 63, 92
12, 49536, Note_off_c, 11, 63, 0
12, 49536, Note_on_c, 11, 62, 92
12, 50112, Note_off_c, 11, 62, 0
12, 50112, Note_on_c, 11, 65, 60
12, 50304, Note_off_c, 11, 65, 0
12, 50304, Note_on_c, 11, 67, 60
12, 50496, Note_off_c, 11, 67, 0
12, 50496, Note_on_c, 11, 63, 60
12, 50688, Note_off_c, 11, 63, 0
12, 50688, Note_on_c, 11, 60, 60
12, 50880, Note_off_c, 11, 60, 0
12, 50880, Note_on_c, 11, 62, 60
12, 51072, Note_off_c, 11, 62, 0
12, 51072, Note_on_c, 11, 62, 60
12, 51264, Note_off_c, 11, 62, 0
12, 52416, Note_on_c, 11, 67, 108
12, 52800, Note_off_c, 11, 67, 0
12, 52800, Note_on_c, 11, 65, 108
12, 52992, Note_off_c, 11, 65, 0
12, 52992, Note_on_c, 11, 65, 108
12, 53184, Note_off_c, 11, 65, 0
12, 53184, Note_on_c, 11, 63, 108
12, 53376, Note_off_c, 11, 63, 0
12, 53376, Note_on_c, 11, 63, 108
12, 53568, Note_off_c, 11, 63, 0
12, 53568, Note_on_c, 11, 62, 108
12, 53760, Note_off_c, 11, 62, 0
12, 53760, Note_on_c, 11, 60, 108
12, 53952, Note_off_c, 11, 60, 0
12, 53952, Note_on_c, 11, 59, 108
12, 54144, Note_off_c, 11, 59, 0
12, 54144, Note_on_c, 11, 55, 108
12, 55296, Note_off_c, 11, 55, 0
12, 55488, Note_on_c, 11, 63, 92
12, 56256, Note_off_c, 11, 63, 0
12, 56256, Note_on_c, 11, 61, 92
12, 56640, Note_off_c, 11, 61, 0
12, 56640, Note_on_c, 11, 60, 92
12, 57216, Note_off_c, 11, 60, 0
12, 57216, Note_on_c, 11, 64, 92
12, 57408, Note_off_c, 11, 64, 0
12, 57408, Note_on_c, 11, 67, 92
12, 57984, Note_off_c, 11, 67, 0
12, 57984, Note_on_c, 11, 68, 92
12, 58176, Note_off_c, 11, 68, 0
12, 58176, Note_on_c, 11, 70, 92
12, 58368, Note_off_c, 11, 70, 0
12, 58368, Note_on_c, 11, 68, 92
12, 58560, Note_off_c, 11, 68, 0
12, 58560, Note_on_c, 11, 68, 92
12, 58752, Note_off_c, 11, 68, 0
12, 58752, Note_on_c, 11, 67, 92
12, 58944, Note_off_c, 11, 67, 0
12, 58944, Note_on_c, 11, 67, 92
12, 59136, Note_off_c, 11, 67, 0
12, 59136, Note_on_c, 11, 65, 92
12, 59328, Note_off_c, 11, 65, 0
12, 59328, Note_on_c, 11, 65, 92
12, 59712, Note_off_c, 11, 65, 0
12, 61632, Note_on_c, 11, 68, 92
12, 62016, Note_off_c, 11, 68, 0
12, 62016, Note_on_c, 11, 66, 92
12, 62400, Note_off_c, 11, 66, 0
12, 62400, Note_on_c, 11, 65, 92
12, 62976, Note_off_c, 11, 65, 0
12, 62976, Note_on_c, 11, 69, 92
12, 63168, Note_off_c, 11, 69, 0
12, 63168, Note_on_c, 11, 72, 92
12, 63744, Note_off_c, 11, 72, 0
12, 63744, Note_on_c, 11, 73, 92
12, 63936, Note_off_c, 11, 73, 0
12, 63936, Note_on_c, 11, 75, 92
12, 64128, Note_off_c, 11, 75, 0
12, 64128, Note_on_c, 11, 73, 92
12, 64320, Note_off_c, 11, 73, 0
12, 64320, Note_on_c, 11, 73, 92
12, 64512, Note_off_c, 11, 73, 0
12, 64512, Note_on_c, 11, 72, 92
12, 64704, Note_off_c, 11, 72, 0
12, 64704, Note_on_c, 11, 72, 92
12, 64896, Note_off_c, 11, 72, 0
12, 64896, Note_on_c, 11, 70, 92
12, 65088, Note_off_c, 11, 70, 0
12, 65088, Note_on_c, 11, 70, 92
12, 65472, Note_off_c, 11, 70, 0
12, 67392, Note_on_c, 11, 65, 75
12, 67776, Note_off_c, 11, 65, 0
12, 67776, Note_on_c, 11, 64, 75
12, 67968, Note_off_c, 11, 64, 0
12, 67968, Note_on_c, 11, 65, 75
12, 68160, Note_off_c, 11, 65, 0
12, 68160, Note_on_c, 11, 67, 75
12, 68928, Note_off_c, 11, 67, 0
12, 68928, Note_on_c, 11, 67, 75
12, 69312, Note_off_c, 11, 67, 0
12, 69312, Note_on_c, 11, 65, 75
12, 69504, Note_off_c, 11, 65, 0
12, 69504, Note_on_c, 11, 67, 75
12, 69696, Note_off_c, 11, 67, 0
12, 69696, Note_on_c, 11, 68, 75
12, 70080, Note_off_c, 11, 68, 0
12, 70080, Note_on_c, 11, 68, 75
12, 70464, Note_off_c, 11, 68, 0
12, 70464, Note_on_c, 11, 67, 75
12, 71616, Note_off_c, 11, 67, 0
12, 71616, Note_on_c, 11, 72, 92
12, 71808, Note_off_c, 11, 72, 0
12, 71808, Note_on_c, 11, 71, 92
12, 72000, Note_off_c, 11, 71, 0
12, 72000, Note_on_c, 11, 74, 92
12, 72192, Note_off_c, 11, 74, 0
12, 72192, Note_on_c, 11, 72, 92
12, 72384, Note_off_c, 11, 72, 0
12, 72384, Note_on_c, 11, 72, 92
12, 72576, Note_off_c, 11, 72, 0
12, 72576, Note_on_c, 11, 71, 92
12, 72768, Note_off_c, 11, 71, 0
12, 72768, Note_on_c, 11, 72, 92
12, 72960, Note_off_c, 11, 72, 0
12, 72960, Note_on_c, 11, 71, 92
12, 73152, Note_off_c, 11, 71, 0
12, 73152, Note_on_c, 11, 74, 92
12, 73344, Note_off_c, 11, 74, 0
12, 73344, Note_on_c, 11, 72, 92
12, 73536, Note_off_c, 11, 72, 0
12, 73536, Note_on_c, 11, 72, 92
12, 73728, Note_off_c, 11, 72, 0
12, 73728, Note_on_c, 11, 71, 92
12, 73920, Note_off_c, 11, 71, 0
12, 73920, Note_on_c, 11, 72, 92
12, 74112, Note_off_c, 11, 72, 0
12, 74112, Note_on_c, 11, 70, 92
12, 74304, Note_off_c, 11, 70, 0
12, 74304, Note_on_c, 11, 70, 92
12, 74496, Note_off_c, 11, 70, 0
12, 74496, Note_on_c, 11, 69, 92
12, 74688, Note_off_c, 11, 69, 0
12, 74688, Note_on_c, 11, 69, 92
12, 74880, Note_off_c, 11, 69, 0
12, 74880, Note_on_c, 11, 70, 92
12, 74976, Note_off_c, 11, 70, 0
12, 74976, Note_on_c, 11, 72, 92
12, 75072, Note_off_c, 11, 72, 0
12, 75072, Note_on_c, 11, 70, 92
12, 75264, Note_off_c, 11, 70, 0
12, 75264, Note_on_c, 11, 69, 92
12, 75456, Note_off_c, 11, 69, 0
12, 75456, Note_on_c, 11, 69, 92
12, 75648, Note_off_c, 11, 69, 0
12, 75648, Note_on_c, 11, 67, 92
12, 75840, Note_off_c, 11, 67, 0
12, 75840, Note_on_c, 11, 67, 92
12, 76032, Note_off_c, 11, 67, 0
12, 76032, Note_on_c, 11, 69, 92
12, 76128, Note_off_c, 11, 69, 0
12, 76128, Note_on_c, 11, 70, 92
12, 76224, Note_off_c, 11, 70, 0
12, 76224, Note_on_c, 11, 69, 92
12, 76416, Note_off_c, 11, 69, 0
12, 76416, Note_on_c, 11, 67, 92
12, 76608, Note_off_c, 11, 67, 0
12, 76608, Note_on_c, 11, 66, 92
12, 76800, Note_off_c, 11, 66, 0
12, 76800, Note_on_c, 11, 67, 92
12, 76992, Note_off_c, 11, 67, 0
12, 76992, Note_on_c, 11, 60, 92
12, 77376, Note_off_c, 11, 60, 0
12, 77376, Note_on_c, 11, 62, 92
12, 80064, Note_off_c, 11, 62, 0
12, 80064, Note_on_c, 11, 62, 92
12, 80256, Note_off_c, 11, 62, 0
12, 80256, Note_on_c, 11, 67, 92
12, 80448, Note_off_c, 11, 67, 0
12, 80448, Note_on_c, 11, 66, 92
12, 80832, Note_off_c, 11, 66, 0
12, 80832, Note_on_c, 11, 67, 92
12, 81024, Note_off_c, 11, 67, 0
12, 81024, Note_on_c, 11, 70, 92
12, 81216, Note_off_c, 11, 70, 0
12, 81216, Note_on_c, 11, 69, 92
12, 81408, Note_off_c, 11, 69, 0
12, 81408, Note_on_c, 11, 67, 92
12, 81600, Note_off_c, 11, 67, 0
12, 81600, Note_on_c, 11, 66, 92
12, 81792, Note_off_c, 11, 66, 0
12, 81792, Note_on_c, 11, 67, 92
12, 81984, Note_off_c, 11, 67, 0
12, 81984, Note_on_c, 11, 62, 92
12, 83136, Note_off_c, 11, 62, 0
12, 83136, Note_on_c, 11, 67, 92
12, 83904, Note_off_c, 11, 67, 0
12, 83904, Note_on_c, 11, 68, 92
12, 84096, Note_off_c, 11, 68, 0
12, 84096, Note_on_c, 11, 65, 92
12, 84288, Note_off_c, 11, 65, 0
12, 84288, Note_on_c, 11, 62, 92
12, 85440, Note_off_c, 11, 62, 0
12, 85440, Note_on_c, 11, 71, 92
12, 86208, Note_off_c, 11, 71, 0
12, 86592, Note_on_c, 11, 71, 92
12, 87744, Note_off_c, 11, 71, 0
12, 87744, Note_on_c, 11, 72, 92
12, 87936, Note_off_c, 11, 72, 0
12, 87936, Note_on_c, 11, 70, 92
12, 88128, Note_off_c, 11, 70, 0
12, 88128, Note_on_c, 11, 70, 92
12, 88320, Note_off_c, 11, 70, 0
12, 88320, Note_on_c, 11, 68, 92
12, 88512, Note_off_c, 11, 68, 0
12, 88512, Note_on_c, 11, 68, 92
12, 89088, Note_off_c, 11, 68, 0
12, 89088, Note_on_c, 11, 67, 92
12, 89280, Note_off_c, 11, 67, 0
12, 89280, Note_on_c, 11, 67, 92
12, 89472, Note_off_c, 11, 67, 0
12, 89472, Note_on_c, 11, 65, 92
12, 89664, Note_off_c, 11, 65, 0
12, 89664, Note_on_c, 11, 65, 92
12, 90240, Note_off_c, 11, 65, 0
12, 90240, Note_on_c, 11, 63, 92
12, 90432, Note_off_c, 11, 63, 0
12, 90432, Note_on_c, 11, 63, 92
12, 90624, Note_off_c, 11, 63, 0
12, 90624, Note_on_c, 11, 62, 92
12, 90816, Note_off_c, 11, 62, 0
12, 90816, Note_on_c, 11, 63, 92
12, 91200, Note_off_c, 11, 63, 0
12, 91200, Note_on_c, 11, 62, 92
12, 92352, Note_off_c, 11, 62, 0
12, 106176, Note_on_c, 11, 72, 92
12, 106368, Note_off_c, 11, 72, 0
12, 106368, Note_on_c, 11, 70, 92
12, 106560, Note_off_c, 11, 70, 0
12, 106560, Note_on_c, 11, 68, 92
12, 106752, Note_off_c, 11, 68, 0
12, 106752, Note_on_c, 11, 67, 92
12, 106944, Note_off_c, 11, 67, 0
12, 106944, Note_on_c, 11, 65, 92
12, 107136, Note_off_c, 11, 65, 0
12, 107136, Note_on_c, 11, 63, 92
12, 107328, Note_off_c, 11, 63, 0
12, 107328, Note_on_c, 11, 65, 92
12, 108480, Note_off_c, 11, 65, 0
12, 108480, Note_on_c, 11, 67, 92
12, 108672, Note_off_c, 11, 67, 0
12, 108672, Note_on_c, 11, 68, 92
12, 108768, Note_off_c, 11, 68, 0
12, 108768, Note_on_c, 11, 70, 92
12, 108864, Note_off_c, 11, 70, 0
12, 108864, Note_on_c, 11, 70, 92
12, 109056, Note_off_c, 11, 70, 0
12, 109056, Note_on_c, 11, 68, 92
12, 109248, Note_off_c, 11, 68, 0
12, 109248, Note_on_c, 11, 68, 92
12, 109440, Note_off_c, 11, 68, 0
12, 109440, Note_on_c, 11, 67, 92
12, 109632, Note_off_c, 11, 67, 0
12, 109632, Note_on_c, 11, 67, 92
12, 109728, Note_off_c, 11, 67, 0
12, 109728, Note_on_c, 11, 65, 92
12, 109824, Note_off_c, 11, 65, 0
12, 109824, Note_on_c, 11, 64, 92
12, 110016, Note_off_c, 11, 64, 0
12, 110016, Note_on_c, 11, 65, 92
12, 110976, Note_off_c, 11, 65, 0
12, 110976, Note_on_c, 11, 67, 92
12, 111168, Note_off_c, 11, 67, 0
12, 111168, Note_on_c, 11, 68, 92
12, 111360, Note_off_c, 11, 68, 0
12, 111360, Note_on_c, 11, 65, 92
12, 111552, Note_off_c, 11, 65, 0
12, 111552, Note_on_c, 11, 67, 92
12, 112128, Note_off_c, 11, 67, 0
12, 112128, Note_on_c, 11, 71, 92
12, 112320, Note_off_c, 11, 71, 0
12, 112320, Note_on_c, 11, 72, 92
12, 112512, Note_off_c, 11, 72, 0
12, 112512, Note_on_c, 11, 67, 92
12, 112704, Note_off_c, 11, 67, 0
12, 112704, Note_on_c, 11, 65, 92
12, 112896, Note_off_c, 11, 65, 0
12, 112896, Note_on_c, 11, 63, 92
12, 113088, Note_off_c, 11, 63, 0
12, 113088, Note_on_c, 11, 65, 92
12, 113472, Note_off_c, 11, 65, 0
12, 113472, Note_on_c, 11, 63, 92
12, 113664, Note_off_c, 11, 63, 0
12, 113664, Note_on_c, 11, 68, 92
12, 113856, Note_off_c, 11, 68, 0
12, 113856, Note_on_c, 11, 67, 92
12, 114048, Note_off_c, 11, 67, 0
12, 114048, Note_on_c, 11, 65, 92
12, 114240, Note_off_c, 11, 65, 0
12, 114240, Note_on_c, 11, 63, 92
12, 114432, Note_off_c, 11, 63, 0
12, 114432, Note_on_c, 11, 62, 92
12, 114816, Note_off_c, 11, 62, 0
12, 114816, Note_on_c, 11, 68, 60
12, 115008, Note_off_c, 11, 68, 0
12, 115008, Note_on_c, 11, 70, 60
12, 115200, Note_off_c, 11, 70, 0
12, 115200, Note_on_c, 11, 67, 60
12, 115392, Note_off_c, 11, 67, 0
12, 115392, Note_on_c, 11, 63, 60
12, 115584, Note_off_c, 11, 63, 0
12, 115584, Note_on_c, 11, 65, 60
12, 115776, Note_off_c, 11, 65, 0
12, 115776, Note_on_c, 11, 65, 60
12, 115968, Note_off_c, 11, 65, 0
12, 116544, Note_on_c, 11, 63, 60
12, 116928, Note_off_c, 11, 63, 0
12, 116928, Note_on_c, 11, 65, 60
12, 117120, Note_off_c, 11, 65, 0
12, 117120, Note_on_c, 11, 70, 92
12, 117504, Note_off_c, 11, 70, 0
12, 117504, Note_on_c, 11, 68, 92
12, 117696, Note_off_c, 11, 68, 0
12, 117696, Note_on_c, 11, 68, 92
12, 117888, Note_off_c, 11, 68, 0
12, 117888, Note_on_c, 11, 67, 92
12, 118080, Note_off_c, 11, 67, 0
12, 118080, Note_on_c, 11, 67, 92
12, 118272, Note_off_c, 11, 67, 0
12, 118272, Note_on_c, 11, 65, 92
12, 118464, Note_off_c, 11, 65, 0
12, 118464, Note_on_c, 11, 63, 92
12, 118656, Note_off_c, 11, 63, 0
12, 118656, Note_on_c, 11, 62, 92
12, 118848, Note_off_c, 11, 62, 0
12, 118848, Note_on_c, 11, 58, 92
12, 120000, Note_off_c, 11, 58, 0
12, 133824, Note_on_c, 11, 63, 75
12, 134016, Note_off_c, 11, 63, 0
12, 134016, Note_on_c, 11, 62, 75
12, 134208, Note_off_c, 11, 62, 0
12, 134208, Note_on_c, 11, 63, 75
12, 134592, Note_off_c, 11, 63, 0
12, 134592, Note_on_c, 11, 65, 75
12, 134976, Note_off_c, 11, 65, 0
12, 134976, Note_on_c, 11, 67, 75
12, 136128, Note_off_c, 11, 67, 0
12, 136128, Note_on_c, 11, 70, 75
12, 136320, Note_off_c, 11, 70, 0
12, 136320, Note_on_c, 11, 72, 75
12, 136416, Note_off_c, 11, 72, 0
12, 136416, Note_on_c, 11, 73, 75
12, 136512, Note_off_c, 11, 73, 0
12, 136512, Note_on_c, 11, 73, 75
12, 136704, Note_off_c, 11, 73, 0
12, 136704, Note_on_c, 11, 72, 75
12, 136896, Note_off_c, 11, 72, 0
12, 136896, Note_on_c, 11, 72, 75
12, 137088, Note_off_c, 11, 72, 0
12, 137088, Note_on_c, 11, 70, 75
12, 137280, Note_off_c, 11, 70, 0
12, 137280, Note_on_c, 11, 70, 75
12, 137376, Note_off_c, 11, 70, 0
12, 137376, Note_on_c, 11, 68, 75
12, 137472, Note_off_c, 11, 68, 0
12, 137472, Note_on_c, 11, 67, 75
12, 137664, Note_off_c, 11, 67, 0
12, 137664, Note_on_c, 11, 68, 75
12, 138432, Note_off_c, 11, 68, 0
12, 138432, Note_on_c, 11, 67, 75
12, 138816, Note_off_c, 11, 67, 0
12, 138816, Note_on_c, 11, 70, 92
12, 139776, Note_off_c, 11, 70, 0
12, 139776, Note_on_c, 11, 64, 92
12, 139968, Note_off_c, 11, 64, 0
12, 139968, Note_on_c, 11, 65, 92
12, 140160, Note_off_c, 11, 65, 0
12, 140160, Note_on_c, 11, 64, 92
12, 140352, Note_off_c, 11, 64, 0
12, 140352, Note_on_c, 11, 65, 92
12, 140928, Note_off_c, 11, 65, 0
12, 140928, Note_on_c, 11, 67, 92
12, 141120, Note_off_c, 11, 67, 0
12, 141120, Note_on_c, 11, 65, 92
12, 141312, Note_off_c, 11, 65, 0
12, 141312, Note_on_c, 11, 63, 92
12, 141504, Note_off_c, 11, 63, 0
12, 141504, Note_on_c, 11, 62, 92
12, 141696, Note_off_c, 11, 62, 0
12, 141696, Note_on_c, 11, 63, 92
12, 141888, Note_off_c, 11, 63, 0
12, 141888, Note_on_c, 11, 62, 92
12, 142464, Note_off_c, 11, 62, 0
12, 142464, Note_on_c, 11, 65, 60
12, 142656, Note_off_c, 11, 65, 0
12, 142656, Note_on_c, 11, 67, 60
12, 142848, Note_off_c, 11, 67, 0
12, 142848, Note_on_c, 11, 63, 60
12, 143040, Note_off_c, 11, 63, 0
12, 143040, Note_on_c, 11, 60, 60
12, 143232, Note_off_c, 11, 60, 0
12, 143232, Note_on_c, 11, 62, 60
12, 143424, Note_off_c, 11, 62, 0
12, 143424, Note_on_c, 11, 62, 60
12, 143616, Note_off_c, 11, 62, 0
12, 144768, Note_on_c, 11, 67, 108
12, 145152, Note_off_c, 11, 67, 0
12, 145152, Note_on_c, 11, 65, 108
12, 145344, Note_off_c, 11, 65, 0
12, 145344, Note_on_c, 11, 65, 108
12, 145536, Note_off_c, 11, 65, 0
12, 145536, Note_on_c, 11, 63, 108
12, 145728, Note_off_c, 11, 63, 0
12, 145728, Note_on_c, 11, 63, 108
12, 145920, Note_off_c, 11, 63, 0
12, 145920, Note_on_c, 11, 62, 108
12, 146112, Note_off_c, 11, 62, 0
12, 146112, Note_on_c, 11, 60, 108
12, 146304, Note_off_c, 11, 60, 0
12, 146304, Note_on_c, 11, 59, 108
12, 146496, Note_off_c, 11, 59, 0
12, 146496, Note_on_c, 11, 55, 108
12, 147648, Note_off_c, 11, 55, 0
12, 147648, End_track
13, 0, Start_track
13, 0, Title_t, "Tenor I"
13, 0, Control_c, 12, 0, 0
13, 0, Program_c, 12, 52
13, 0, Control_c, 12, 10, 127
13, 0, Key_signature, -3, "major"
13, 0, Control_c, 12, 7, 127
13, 13824, Note_on_c, 12, 67, 92
13, 14208, Note_off_c, 12, 67, 0
13, 14208, Note_on_c, 12, 60, 92
13, 14592, Note_off_c, 12, 60, 0
13, 14592, Note_on_c, 12, 55, 92
13, 14976, Note_off_c, 12, 55, 0
13, 14976, Note_on_c, 12, 62, 92
13, 16128, Note_off_c, 12, 62, 0
13, 16128, Note_on_c, 12, 60, 92
13, 16512, Note_off_c, 12, 60, 0
13, 16512, Note_on_c, 12, 64, 92
13, 16896, Note_off_c, 12, 64, 0
13, 16896, Note_on_c, 12, 60, 92
13, 17280, Note_off_c, 12, 60, 0
13, 17280, Note_on_c, 12, 60, 92
13, 17664, Note_off_c, 12, 60, 0
13, 17664, Note_on_c, 12, 60, 92
13, 17856, Note_off_c, 12, 60, 0
13, 17856, Note_on_c, 12, 62, 92
13, 18048, Note_off_c, 12, 62, 0
13, 18048, Note_on_c, 12, 59, 92
13, 18240, Note_off_c, 12, 59, 0
13, 18240, Note_on_c, 12, 60, 92
13, 18432, Note_off_c, 12, 60, 0
13, 18432, Note_on_c, 12, 62, 92
13, 19200, Note_off_c, 12, 62, 0
13, 19200, Note_on_c, 12, 62, 92
13, 19584, Note_off_c, 12, 62, 0
13, 19584, Note_on_c, 12, 60, 92
13, 19776, Note_off_c, 12, 60, 0
13, 19776, Note_on_c, 12, 65, 92
13, 19968, Note_off_c, 12, 65, 0
13, 19968, Note_on_c, 12, 67, 92
13, 20160, Note_off_c, 12, 67, 0
13, 20160, Note_on_c, 12, 63, 92
13, 20352, Note_off_c, 12, 63, 0
13, 20352, Note_on_c, 12, 62, 92
13, 20544, Note_off_c, 12, 62, 0
13, 20544, Note_on_c, 12, 60, 92
13, 20736, Note_off_c, 12, 60, 0
13, 20736, Note_on_c, 12, 58, 92
13, 21120, Note_off_c, 12, 58, 0
13, 21120, Note_on_c, 12, 58, 92
13, 21504, Note_off_c, 12, 58, 0
13, 21504, Note_on_c, 12, 60, 92
13, 21888, Note_off_c, 12, 60, 0
13, 21888, Note_on_c, 12, 58, 92
13, 22464, Note_off_c, 12, 58, 0
13, 22464, Note_on_c, 12, 65, 60
13, 22656, Note_off_c, 12, 65, 0
13, 22656, Note_on_c, 12, 67, 60
13, 22848, Note_off_c, 12, 67, 0
13, 22848, Note_on_c, 12, 63, 60
13, 23040, Note_off_c, 12, 63, 0
13, 23040, Note_on_c, 12, 60, 60
13, 23232, Note_off_c, 12, 60, 0
13, 23232, Note_on_c, 12, 62, 60
13, 23424, Note_off_c, 12, 62, 0
13, 23424, Note_on_c, 12, 62, 60
13, 23616, Note_off_c, 12, 62, 0
13, 24192, Note_on_c, 12, 60, 60
13, 24576, Note_off_c, 12, 60, 0
13, 24576, Note_on_c, 12, 62, 60
13, 24768, Note_off_c, 12, 62, 0
13, 24768, Note_on_c, 12, 65, 92
13, 24960, Note_off_c, 12, 65, 0
13, 24960, Note_on_c, 12, 63, 92
13, 25152, Note_off_c, 12, 63, 0
13, 25152, Note_on_c, 12, 60, 92
13, 25344, Note_off_c, 12, 60, 0
13, 25344, Note_on_c, 12, 58, 92
13, 25728, Note_off_c, 12, 58, 0
13, 25728, Note_on_c, 12, 58, 92
13, 25920, Note_off_c, 12, 58, 0
13, 25920, Note_on_c, 12, 60, 92
13, 26112, Note_off_c, 12, 60, 0
13, 26112, Note_on_c, 12, 58, 92
13, 26304, Note_off_c, 12, 58, 0
13, 26304, Note_on_c, 12, 56, 92
13, 26496, Note_off_c, 12, 56, 0
13, 26496, Note_on_c, 12, 55, 92
13, 27648, Note_off_c, 12, 55, 0
13, 41472, Note_on_c, 12, 58, 75
13, 41856, Note_off_c, 12, 58, 0
13, 41856, Note_on_c, 12, 60, 75
13, 42240, Note_off_c, 12, 60, 0
13, 42240, Note_on_c, 12, 62, 75
13, 42624, Note_off_c, 12, 62, 0
13, 42624, Note_on_c, 12, 63, 75
13, 43776, Note_off_c, 12, 63, 0
13, 43776, Note_on_c, 12, 63, 75
13, 44160, Note_off_c, 12, 63, 0
13, 44160, Note_on_c, 12, 58, 75
13, 44544, Note_off_c, 12, 58, 0
13, 44544, Note_on_c, 12, 63, 75
13, 44928, Note_off_c, 12, 63, 0
13, 44928, Note_on_c, 12, 63, 75
13, 45312, Note_off_c, 12, 63, 0
13, 45312, Note_on_c, 12, 63, 75
13, 46080, Note_off_c, 12, 63, 0
13, 46080, Note_on_c, 12, 60, 75
13, 46464, Note_off_c, 12, 60, 0
13, 46464, Note_on_c, 12, 60, 92
13, 47616, Note_off_c, 12, 60, 0
13, 47616, Note_on_c, 12, 60, 92
13, 48000, Note_off_c, 12, 60, 0
13, 48000, Note_on_c, 12, 60, 92
13, 48384, Note_off_c, 12, 60, 0
13, 48384, Note_on_c, 12, 59, 92
13, 48768, Note_off_c, 12, 59, 0
13, 48768, Note_on_c, 12, 67, 92
13, 49152, Note_off_c, 12, 67, 0
13, 49152, Note_on_c, 12, 68, 92
13, 49344, Note_off_c, 12, 68, 0
13, 49344, Note_on_c, 12, 60, 92
13, 49536, Note_off_c, 12, 60, 0
13, 49536, Note_on_c, 12, 59, 92
13, 50112, Note_off_c, 12, 59, 0
13, 50112, Note_on_c, 12, 62, 60
13, 50304, Note_off_c, 12, 62, 0
13, 50304, Note_on_c, 12, 63, 60
13, 50496, Note_off_c, 12, 63, 0
13, 50496, Note_on_c, 12, 60, 60
13, 50688, Note_off_c, 12, 60, 0
13, 50688, Note_on_c, 12, 57, 60
13, 50880, Note_off_c, 12, 57, 0
13, 50880, Note_on_c, 12, 59, 60
13, 51072, Note_off_c, 12, 59, 0
13, 51072, Note_on_c, 12, 59, 60
13, 51264, Note_off_c, 12, 59, 0
13, 52416, Note_on_c, 12, 62, 108
13, 52608, Note_off_c, 12, 62, 0
13, 52608, Note_on_c, 12, 60, 108
13, 52800, Note_off_c, 12, 60, 0
13, 52800, Note_on_c, 12, 56, 108
13, 52992, Note_off_c, 12, 56, 0
13, 52992, Note_on_c, 12, 55, 108
13, 53568, Note_off_c, 12, 55, 0
13, 53568, Note_on_c, 12, 56, 108
13, 53760, Note_off_c, 12, 56, 0
13, 53760, Note_on_c, 12, 55, 108
13, 53952, Note_off_c, 12, 55, 0
13, 53952, Note_on_c, 12, 53, 108
13, 54144, Note_off_c, 12, 53, 0
13, 54144, Note_on_c, 12, 51, 108
13, 55296, Note_off_c, 12, 51, 0
13, 55488, Note_on_c, 12, 60, 92
13, 56256, Note_off_c, 12, 60, 0
13, 56256, Note_on_c, 12, 55, 92
13, 56640, Note_off_c, 12, 55, 0
13, 56640, Note_on_c, 12, 55, 92
13, 57216, Note_off_c, 12, 55, 0
13, 57216, Note_on_c, 12, 58, 92
13, 57408, Note_off_c, 12, 58, 0
13, 57408, Note_on_c, 12, 61, 92
13, 57600, Note_off_c, 12, 61, 0
13, 57600, Note_on_c, 12, 58, 92
13, 57792, Note_off_c, 12, 58, 0
13, 57792, Note_on_c, 12, 53, 92
13, 58176, Note_off_c, 12, 53, 0
13, 58176, Note_on_c, 12, 64, 92
13, 58560, Note_off_c, 12, 64, 0
13, 58560, Note_on_c, 12, 64, 92
13, 58944, Note_off_c, 12, 64, 0
13, 58944, Note_on_c, 12, 60, 92
13, 59328, Note_off_c, 12, 60, 0
13, 59328, Note_on_c, 12, 60, 92
13, 59712, Note_off_c, 12, 60, 0
13, 61632, Note_on_c, 12, 65, 92
13, 62016, Note_off_c, 12, 65, 0
13, 62016, Note_on_c, 12, 58, 92
13, 62400, Note_off_c, 12, 58, 0
13, 62400, Note_on_c, 12, 60, 92
13, 62976, Note_off_c, 12, 60, 0
13, 62976, Note_on_c, 12, 63, 92
13, 63168, Note_off_c, 12, 63, 0
13, 63168, Note_on_c, 12, 66, 92
13, 63360, Note_off_c, 12, 66, 0
13, 63360, Note_on_c, 12, 63, 92
13, 63552, Note_off_c, 12, 63, 0
13, 63552, Note_on_c, 12, 60, 92
13, 63936, Note_off_c, 12, 60, 0
13, 63936, Note_on_c, 12, 57, 92
13, 64320, Note_off_c, 12, 57, 0
13, 64320, Note_on_c, 12, 65, 92
13, 64704, Note_off_c, 12, 65, 0
13, 64704, Note_on_c, 12, 65, 92
13, 65088, Note_off_c, 12, 65, 0
13, 65088, Note_on_c, 12, 65, 92
13, 65472, Note_off_c, 12, 65, 0
13, 67392, Note_on_c, 12, 58, 75
13, 67776, Note_off_c, 12, 58, 0
13, 67776, Note_on_c, 12, 58, 75
13, 68160, Note_off_c, 12, 58, 0
13, 68160, Note_on_c, 12, 58, 75
13, 68544, Note_off_c, 12, 58, 0
13, 68544, Note_on_c, 12, 55, 75
13, 68928, Note_off_c, 12, 55, 0
13, 68928, Note_on_c, 12, 60, 75
13, 69312, Note_off_c, 12, 60, 0
13, 69312, Note_on_c, 12, 60, 75
13, 69696, Note_off_c, 12, 60, 0
13, 69696, Note_on_c, 12, 59, 75
13, 69888, Note_off_c, 12, 59, 0
13, 69888, Note_on_c, 12, 60, 75
13, 70080, Note_off_c, 12, 60, 0
13, 70080, Note_on_c, 12, 62, 75
13, 70464, Note_off_c, 12, 62, 0
13, 70464, Note_on_c, 12, 62, 75
13, 71616, Note_off_c, 12, 62, 0
13, 71616, Note_on_c, 12, 55, 92
13, 71808, Note_off_c, 12, 55, 0
13, 71808, Note_on_c, 12, 67, 92
13, 72000, Note_off_c, 12, 67, 0
13, 72000, Note_on_c, 12, 68, 92
13, 72384, Note_off_c, 12, 68, 0
13, 72384, Note_on_c, 12, 67, 92
13, 72768, Note_off_c, 12, 67, 0
13, 72768, Note_on_c, 12, 55, 92
13, 72960, Note_off_c, 12, 55, 0
13, 72960, Note_on_c, 12, 67, 92
13, 73152, Note_off_c, 12, 67, 0
13, 73152, Note_on_c, 12, 68, 92
13, 73536, Note_off_c, 12, 68, 0
13, 73536, Note_on_c, 12, 67, 92
13, 73920, Note_off_c, 12, 67, 0
13, 73920, Note_on_c, 12, 67, 92
13, 74112, Note_off_c, 12, 67, 0
13, 74112, Note_on_c, 12, 65, 92
13, 74304, Note_off_c, 12, 65, 0
13, 74304, Note_on_c, 12, 58, 92
13, 74688, Note_off_c, 12, 58, 0
13, 74688, Note_on_c, 12, 65, 92
13, 75072, Note_off_c, 12, 65, 0
13, 75072, Note_on_c, 12, 65, 92
13, 75264, Note_off_c, 12, 65, 0
13, 75264, Note_on_c, 12, 63, 92
13, 75456, Note_off_c, 12, 63, 0
13, 75456, Note_on_c, 12, 54, 92
13, 75840, Note_off_c, 12, 54, 0
13, 75840, Note_on_c, 12, 55, 92
13, 76224, Note_off_c, 12, 55, 0
13, 76224, Note_on_c, 12, 54, 92
13, 76416, Note_off_c, 12, 54, 0
13, 76416, Note_on_c, 12, 55, 92
13, 76608, Note_off_c, 12, 55, 0
13, 76608, Note_on_c, 12, 57, 92
13, 76800, Note_off_c, 12, 57, 0
13, 76800, Note_on_c, 12, 58, 92
13, 76992, Note_off_c, 12, 58, 0
13, 76992, Note_on_c, 12, 60, 92
13, 77184, Note_off_c, 12, 60, 0
13, 77184, Note_on_c, 12, 55, 92
13, 77376, Note_off_c, 12, 55, 0
13, 77376, Note_on_c, 12, 62, 92
13, 80064, Note_off_c, 12, 62, 0
13, 80064, Note_on_c, 12, 54, 92
13, 80256, Note_off_c, 12, 54, 0
13, 80256, Note_on_c, 12, 63, 92
13, 80448, Note_off_c, 12, 63, 0
13, 80448, Note_on_c, 12, 60, 92
13, 80640, Note_off_c, 12, 60, 0
13, 80640, Note_on_c, 12, 57, 92
13, 80832, Note_off_c, 12, 57, 0
13, 80832, Note_on_c, 12, 58, 92
13, 81216, Note_off_c, 12, 58, 0
13, 81216, Note_on_c, 12, 54, 92
13, 81408, Note_off_c, 12, 54, 0
13, 81408, Note_on_c, 12, 62, 92
13, 81600, Note_off_c, 12, 62, 0
13, 81600, Note_on_c, 12, 60, 92
13, 81792, Note_off_c, 12, 60, 0
13, 81792, Note_on_c, 12, 59, 92
13, 81984, Note_off_c, 12, 59, 0
13, 81984, Note_on_c, 12, 59, 92
13, 83136, Note_off_c, 12, 59, 0
13, 83136, Note_on_c, 12, 59, 92
13, 83520, Note_off_c, 12, 59, 0
13, 83520, Note_on_c, 12, 60, 92
13, 83904, Note_off_c, 12, 60, 0
13, 83904, Note_on_c, 12, 59, 92
13, 84288, Note_off_c, 12, 59, 0
13, 84288, Note_on_c, 12, 65, 92
13, 85440, Note_off_c, 12, 65, 0
13, 85440, Note_on_c, 12, 62, 92
13, 85824, Note_off_c, 12, 62, 0
13, 85824, Note_on_c, 12, 63, 92
13, 86208, Note_off_c, 12, 63, 0
13, 86208, Note_on_c, 12, 65, 92
13, 86976, Note_off_c, 12, 65, 0
13, 86976, Note_on_c, 12, 63, 92
13, 87168, Note_off_c, 12, 63, 0
13, 87168, Note_on_c, 12, 62, 92
13, 87360, Note_off_c, 12, 62, 0
13, 87360, Note_on_c, 12, 62, 92
13, 87552, Note_off_c, 12, 62, 0
13, 87552, Note_on_c, 12, 60, 92
13, 87744, Note_off_c, 12, 60, 0
13, 87744, Note_on_c, 12, 60, 92
13, 88128, Note_off_c, 12, 60, 0
13, 88128, Note_on_c, 12, 64, 92
13, 88512, Note_off_c, 12, 64, 0
13, 88512, Note_on_c, 12, 65, 92
13, 88896, Note_off_c, 12, 65, 0
13, 88896, Note_on_c, 12, 60, 92
13, 89664, Note_off_c, 12, 60, 0
13, 89664, Note_on_c, 12, 60, 92
13, 90048, Note_off_c, 12, 60, 0
13, 90048, Note_on_c, 12, 62, 92
13, 90432, Note_off_c, 12, 62, 0
13, 90432, Note_on_c, 12, 55, 92
13, 90624, Note_off_c, 12, 55, 0
13, 90624, Note_on_c, 12, 57, 92
13, 90816, Note_off_c, 12, 57, 0
13, 90816, Note_on_c, 12, 57, 92
13, 91008, Note_off_c, 12, 57, 0
13, 91008, Note_on_c, 12, 59, 92
13, 91200, Note_off_c, 12, 59, 0
13, 91200, Note_on_c, 12, 59, 92
13, 92352, Note_off_c, 12, 59, 0
13, 106176, Note_on_c, 12, 67, 92
13, 106560, Note_off_c, 12, 67, 0
13, 106560, Note_on_c, 12, 60, 92
13, 106944, Note_off_c, 12, 60, 0
13, 106944, Note_on_c, 12, 55, 92
13, 107328, Note_off_c, 12, 55, 0
13, 107328, Note_on_c, 12, 62, 92
13, 108480, Note_off_c, 12, 62, 0
13, 108480, Note_on_c, 12, 60, 92
13, 108864, Note_off_c, 12, 60, 0
13, 108864, Note_on_c, 12, 64, 92
13, 109248, Note_off_c, 12, 64, 0
13, 109248, Note_on_c, 12, 60, 92
13, 109632, Note_off_c, 12, 60, 0
13, 109632, Note_on_c, 12, 60, 92
13, 110016, Note_off_c, 12, 60, 0
13, 110016, Note_on_c, 12, 60, 92
13, 110208, Note_off_c, 12, 60, 0
13, 110208, Note_on_c, 12, 62, 92
13, 110400, Note_off_c, 12, 62, 0
13, 110400, Note_on_c, 12, 59, 92
13, 110592, Note_off_c, 12, 59, 0
13, 110592, Note_on_c, 12, 60, 92
13, 110784, Note_off_c, 12, 60, 0
13, 110784, Note_on_c, 12, 62, 92
13, 111552, Note_off_c, 12, 62, 0
13, 111552, Note_on_c, 12, 62, 92
13, 111936, Note_off_c, 12, 62, 0
13, 111936, Note_on_c, 12, 60, 92
13, 112128, Note_off_c, 12, 60, 0
13, 112128, Note_on_c, 12, 65, 92
13, 112320, Note_off_c, 12, 65, 0
13, 112320, Note_on_c, 12, 67, 92
13, 112512, Note_off_c, 12, 67, 0
13, 112512, Note_on_c, 12, 63, 92
13, 112704, Note_off_c, 12, 63, 0
13, 112704, Note_on_c, 12, 62, 92
13, 112896, Note_off_c, 12, 62, 0
13, 112896, Note_on_c, 12, 60, 92
13, 113088, Note_off_c, 12, 60, 0
13, 113088, Note_on_c, 12, 58, 92
13, 113472, Note_off_c, 12, 58, 0
13, 113472, Note_on_c, 12, 58, 92
13, 113856, Note_off_c, 12, 58, 0
13, 113856, Note_on_c, 12, 60, 92
13, 114240, Note_off_c, 12, 60, 0
13, 114240, Note_on_c, 12, 58, 92
13, 114816, Note_off_c, 12, 58, 0
13, 114816, Note_on_c, 12, 65, 60
13, 115008, Note_off_c, 12, 65, 0
13, 115008, Note_on_c, 12, 67, 60
13, 115200, Note_off_c, 12, 67, 0
13, 115200, Note_on_c, 12, 63, 60
13, 115392, Note_off_c, 12, 63, 0
13, 115392, Note_on_c, 12, 60, 60
13, 115584, Note_off_c, 12, 60, 0
13, 115584, Note_on_c, 12, 62, 60
13, 115776, Note_off_c, 12, 62, 0
13, 115776, Note_on_c, 12, 62, 60
13, 115968, Note_off_c, 12, 62, 0
13, 116544, Note_on_c, 12, 60, 60
13, 116928, Note_off_c, 12, 60, 0
13, 116928, Note_on_c, 12, 62, 60
13, 117120, Note_off_c, 12, 62, 0
13, 117120, Note_on_c, 12, 65, 92
13, 117312, Note_off_c, 12, 65, 0
13, 117312, Note_on_c, 12, 63, 92
13, 117504, Note_off_c, 12, 63, 0
13, 117504, Note_on_c, 12, 60, 92
13, 117696, Note_off_c, 12, 60, 0
13, 117696, Note_on_c, 12, 58, 92
13, 118080, Note_off_c, 12, 58, 0
13, 118080, Note_on_c, 12, 58, 92
13, 118272, Note_off_c, 12, 58, 0
13, 118272, Note_on_c, 12, 60, 92
13, 118464, Note_off_c, 12, 60, 0
13, 118464, Note_on_c, 12, 58, 92
13, 118656, Note_off_c, 12, 58, 0
13, 118656, Note_on_c, 12, 56, 92
13, 118848, Note_off_c, 12, 56, 0
13, 118848, Note_on_c, 12, 55, 92
13, 120000, Note_off_c, 12, 55, 0
13, 133824, Note_on_c, 12, 58, 75
13, 134208, Note_off_c, 12, 58, 0
13, 134208, Note_on_c, 12, 60, 75
13, 134592, Note_off_c, 12, 60, 0
13, 134592, Note_on_c, 12, 62, 75
13, 134976, Note_off_c, 12, 62, 0
13, 134976, Note_on_c, 12, 63, 75
13, 136128, Note_off_c, 12, 63, 0
13, 136128, Note_on_c, 12, 63, 75
13, 136512, Note_off_c, 12, 63, 0
13, 136512, Note_on_c, 12, 58, 75
13, 136896, Note_off_c, 12, 58, 0
13, 136896, Note_on_c, 12, 63, 75
13, 137280, Note_off_c, 12, 63, 0
13, 137280, Note_on_c, 12, 63, 75
13, 137664, Note_off_c, 12, 63, 0
13, 137664, Note_on_c, 12, 63, 75
13, 138432, Note_off_c, 12, 63, 0
13, 138432, Note_on_c, 12, 60, 75
13, 138816, Note_off_c, 12, 60, 0
13, 138816, Note_on_c, 12, 60, 92
13, 139968, Note_off_c, 12, 60, 0
13, 139968, Note_on_c, 12, 60, 92
13, 140352, Note_off_c, 12, 60, 0
13, 140352, Note_on_c, 12, 60, 92
13, 140736, Note_off_c, 12, 60, 0
13, 140736, Note_on_c, 12, 59, 92
13, 141120, Note_off_c, 12, 59, 0
13, 141120, Note_on_c, 12, 67, 92
13, 141504, Note_off_c, 12, 67, 0
13, 141504, Note_on_c, 12, 68, 92
13, 141696, Note_off_c, 12, 68, 0
13, 141696, Note_on_c, 12, 60, 92
13, 141888, Note_off_c, 12, 60, 0
13, 141888, Note_on_c, 12, 59, 92
13, 142464, Note_off_c, 12, 59, 0
13, 142464, Note_on_c, 12, 62, 60
13, 142656, Note_off_c, 12, 62, 0
13, 142656, Note_on_c, 12, 63, 60
13, 142848, Note_off_c, 12, 63, 0
13, 142848, Note_on_c, 12, 60, 60
13, 143040, Note_off_c, 12, 60, 0
13, 143040, Note_on_c, 12, 57, 60
13, 143232, Note_off_c, 12, 57, 0
13, 143232, Note_on_c, 12, 59, 60
13, 143424, Note_off_c, 12, 59, 0
13, 143424, Note_on_c, 12, 59, 60
13, 143616, Note_off_c, 12, 59, 0
13, 144768, Note_on_c, 12, 62, 108
13, 144960, Note_off_c, 12, 62, 0
13, 144960, Note_on_c, 12, 60, 108
13, 145152, Note_off_c, 12, 60, 0
13, 145152, Note_on_c, 12, 56, 108
13, 145344, Note_off_c, 12, 56, 0
13, 145344, Note_on_c, 12, 55, 108
13, 145920, Note_off_c, 12, 55, 0
13, 145920, Note_on_c, 12, 56, 108
13, 146112, Note_off_c, 12, 56, 0
13, 146112, Note_on_c, 12, 55, 108
13, 146304, Note_off_c, 12, 55, 0
13, 146304, Note_on_c, 12, 53, 108
13, 146496, Note_off_c, 12, 53, 0
13, 146496, Note_on_c, 12, 51, 108
13, 147648, Note_off_c, 12, 51, 0
13, 147648, End_track
14, 0, Start_track
14, 0, Title_t, "Bass I"
14, 0, Control_c, 13, 0, 0
14, 0, Program_c, 13, 52
14, 0, Control_c, 13, 10, 127
14, 0, Key_signature, -3, "major"
14, 0, Control_c, 13, 7, 127
14, 13824, Note_on_c, 13, 60, 92
14, 14208, Note_off_c, 13, 60, 0
14, 14208, Note_on_c, 13, 48, 92
14, 14592, Note_off_c, 13, 48, 0
14, 14592, Note_on_c, 13, 48, 92
14, 14976, Note_off_c, 13, 48, 0
14, 14976, Note_on_c, 13, 50, 92
14, 16128, Note_off_c, 13, 50, 0
14, 16128, Note_on_c, 13, 52, 92
14, 16512, Note_off_c, 13, 52, 0
14, 16512, Note_on_c, 13, 48, 92
14, 16896, Note_off_c, 13, 48, 0
14, 16896, Note_on_c, 13, 52, 92
14, 17280, Note_off_c, 13, 52, 0
14, 17280, Note_on_c, 13, 53, 92
14, 17664, Note_off_c, 13, 53, 0
14, 17664, Note_on_c, 13, 53, 92
14, 18432, Note_off_c, 13, 53, 0
14, 18432, Note_on_c, 13, 47, 92
14, 18816, Note_off_c, 13, 47, 0
14, 18816, Note_on_c, 13, 59, 92
14, 19200, Note_off_c, 13, 59, 0
14, 19200, Note_on_c, 13, 59, 92
14, 19584, Note_off_c, 13, 59, 0
14, 19584, Note_on_c, 13, 60, 92
14, 20352, Note_off_c, 13, 60, 0
14, 20352, Note_on_c, 13, 48, 92
14, 20736, Note_off_c, 13, 48, 0
14, 20736, Note_on_c, 13, 50, 92
14, 21120, Note_off_c, 13, 50, 0
14, 21120, Note_on_c, 13, 51, 92
14, 21504, Note_off_c, 13, 51, 0
14, 21504, Note_on_c, 13, 56, 92
14, 21888, Note_off_c, 13, 56, 0
14, 21888, Note_on_c, 13, 58, 92
14, 22272, Note_off_c, 13, 58, 0
14, 22272, Note_on_c, 13, 46, 60
14, 22656, Note_off_c, 13, 46, 0
14, 22656, Note_on_c, 13, 46, 60
14, 23040, Note_off_c, 13, 46, 0
14, 23040, Note_on_c, 13, 46, 60
14, 24576, Note_off_c, 13, 46, 0
14, 24576, Note_on_c, 13, 46, 60
14, 24768, Note_off_c, 13, 46, 0
14, 24768, Note_on_c, 13, 50, 92
14, 24960, Note_off_c, 13, 50, 0
14, 24960, Note_on_c, 13, 51, 92
14, 25152, Note_off_c, 13, 51, 0
14, 25152, Note_on_c, 13, 53, 92
14, 25344, Note_off_c, 13, 53, 0
14, 25344, Note_on_c, 13, 55, 92
14, 25920, Note_off_c, 13, 55, 0
14, 25920, Note_on_c, 13, 56, 92
14, 26112, Note_off_c, 13, 56, 0
14, 26112, Note_on_c, 13, 58, 92
14, 26304, Note_off_c, 13, 58, 0
14, 26304, Note_on_c, 13, 46, 92
14, 26496, Note_off_c, 13, 46, 0
14, 26496, Note_on_c, 13, 51, 92
14, 27648, Note_off_c, 13, 51, 0
14, 41472, Note_on_c, 13, 51, 75
14, 41856, Note_off_c, 13, 51, 0
14, 41856, Note_on_c, 13, 51, 75
14, 42240, Note_off_c, 13, 51, 0
14, 42240, Note_on_c, 13, 51, 75
14, 42624, Note_off_c, 13, 51, 0
14, 42624, Note_on_c, 13, 49, 75
14, 43776, Note_off_c, 13, 49, 0
14, 43776, Note_on_c, 13, 43, 75
14, 44160, Note_off_c, 13, 43, 0
14, 44160, Note_on_c, 13, 55, 75
14, 44544, Note_off_c, 13, 55, 0
14, 44544, Note_on_c, 13, 55, 75
14, 44928, Note_off_c, 13, 55, 0
14, 44928, Note_on_c, 13, 56, 75
14, 45312, Note_off_c, 13, 56, 0
14, 45312, Note_on_c, 13, 44, 75
14, 46080, Note_off_c, 13, 44, 0
14, 46080, Note_on_c, 13, 52, 75
14, 46464, Note_off_c, 13, 52, 0
14, 46464, Note_on_c, 13, 52, 92
14, 46656, Note_off_c, 13, 52, 0
14, 46656, Note_on_c, 13, 55, 92
14, 46848, Note_off_c, 13, 55, 0
14, 46848, Note_on_c, 13, 60, 92
14, 47040, Note_off_c, 13, 60, 0
14, 47040, Note_on_c, 13, 58, 92
14, 47232, Note_off_c, 13, 58, 0
14, 47232, Note_on_c, 13, 56, 92
14, 47424, Note_off_c, 13, 56, 0
14, 47424, Note_on_c, 13, 55, 92
14, 47616, Note_off_c, 13, 55, 0
14, 47616, Note_on_c, 13, 53, 92
14, 47808, Note_off_c, 13, 53, 0
14, 47808, Note_on_c, 13, 60, 92
14, 48000, Note_off_c, 13, 60, 0
14, 48000, Note_on_c, 13, 56, 92
14, 48192, Note_off_c, 13, 56, 0
14, 48192, Note_on_c, 13, 53, 92
14, 48384, Note_off_c, 13, 53, 0
14, 48384, Note_on_c, 13, 50, 92
14, 48768, Note_off_c, 13, 50, 0
14, 48768, Note_on_c, 13, 51, 92
14, 49152, Note_off_c, 13, 51, 0
14, 49152, Note_on_c, 13, 53, 92
14, 49536, Note_off_c, 13, 53, 0
14, 49536, Note_on_c, 13, 55, 92
14, 49920, Note_off_c, 13, 55, 0
14, 49920, Note_on_c, 13, 43, 92
14, 50304, Note_off_c, 13, 43, 0
14, 50304, Note_on_c, 13, 43, 60
14, 50688, Note_off_c, 13, 43, 0
14, 50688, Note_on_c, 13, 43, 60
14, 52224, Note_off_c, 13, 43, 0
14, 52224, Note_on_c, 13, 43, 92
14, 52416, Note_off_c, 13, 43, 0
14, 52416, Note_on_c, 13, 47, 92
14, 52608, Note_off_c, 13, 47, 0
14, 52608, Note_on_c, 13, 48, 92
14, 52800, Note_off_c, 13, 48, 0
14, 52800, Note_on_c, 13, 50, 92
14, 52992, Note_off_c, 13, 50, 0
14, 52992, Note_on_c, 13, 51, 92
14, 53568, Note_off_c, 13, 51, 0
14, 53568, Note_on_c, 13, 53, 92
14, 53760, Note_off_c, 13, 53, 0
14, 53760, Note_on_c, 13, 55, 92
14, 53952, Note_off_c, 13, 55, 0
14, 53952, Note_on_c, 13, 43, 92
14, 54144, Note_off_c, 13, 43, 0
14, 54144, Note_on_c, 13, 48, 92
14, 55296, Note_off_c, 13, 48, 0
14, 55488, Note_on_c, 13, 48, 92
14, 56256, Note_off_c, 13, 48, 0
14, 56256, Note_on_c, 13, 46, 92
14, 56640, Note_off_c, 13, 46, 0
14, 56640, Note_on_c, 13, 46, 92
14, 56832, Note_off_c, 13, 46, 0
14, 56832, Note_on_c, 13, 58, 92
14, 57024, Note_off_c, 13, 58, 0
14, 57024, Note_on_c, 13, 56, 92
14, 57216, Note_off_c, 13, 56, 0
14, 57216, Note_on_c, 13, 55, 92
14, 57408, Note_off_c, 13, 55, 0
14, 57408, Note_on_c, 13, 53, 92
14, 57600, Note_off_c, 13, 53, 0
14, 57600, Note_on_c, 13, 50, 92
14, 57792, Note_off_c, 13, 50, 0
14, 57792, Note_on_c, 13, 52, 92
14, 58176, Note_off_c, 13, 52, 0
14, 58176, Note_on_c, 13, 55, 92
14, 58560, Note_off_c, 13, 55, 0
14, 58560, Note_on_c, 13, 48, 92
14, 58944, Note_off_c, 13, 48, 0
14, 58944, Note_on_c, 13, 53, 92
14, 59328, Note_off_c, 13, 53, 0
14, 59328, Note_on_c, 13, 41, 92
14, 59328, Note_on_c, 13, 53, 92
14, 59712, Note_off_c, 13, 41, 0
14, 59712, Note_off_c, 13, 53, 0
14, 61632, Note_on_c, 13, 53, 92
14, 62016, Note_off_c, 13, 53, 0
14, 62016, Note_on_c, 13, 51, 92
14, 62400, Note_off_c, 13, 51, 0
14, 62400, Note_on_c, 13, 51, 92
14, 62592, Note_off_c, 13, 51, 0
14, 62592, Note_on_c, 13, 63, 92
14, 62784, Note_off_c, 13, 63, 0
14, 62784, Note_on_c, 13, 61, 92
14, 62976, Note_off_c, 13, 61, 0
14, 62976, Note_on_c, 13, 60, 92
14, 63168, Note_off_c, 13, 60, 0
14, 63168, Note_on_c, 13, 58, 92
14, 63360, Note_off_c, 13, 58, 0
14, 63360, Note_on_c, 13, 55, 92
14, 63552, Note_off_c, 13, 55, 0
14, 63552, Note_on_c, 13, 57, 92
14, 63936, Note_off_c, 13, 57, 0
14, 63936, Note_on_c, 13, 60, 92
14, 64320, Note_off_c, 13, 60, 0
14, 64320, Note_on_c, 13, 53, 92
14, 64704, Note_off_c, 13, 53, 0
14, 64704, Note_on_c, 13, 58, 92
14, 65088, Note_off_c, 13, 58, 0
14, 65088, Note_on_c, 13, 46, 92
14, 65472, Note_off_c, 13, 46, 0
14, 67392, Note_on_c, 13, 56, 75
14, 67776, Note_off_c, 13, 56, 0
14, 67776, Note_on_c, 13, 55, 75
14, 67968, Note_off_c, 13, 55, 0
14, 67968, Note_on_c, 13, 53, 75
14, 68160, Note_off_c, 13, 53, 0
14, 68160, Note_on_c, 13, 52, 75
14, 68928, Note_off_c, 13, 52, 0
14, 68928, Note_on_c, 13, 52, 75
14, 69312, Note_off_c, 13, 52, 0
14, 69312, Note_on_c, 13, 53, 75
14, 69504, Note_off_c, 13, 53, 0
14, 69504, Note_on_c, 13, 51, 75
14, 69696, Note_off_c, 13, 51, 0
14, 69696, Note_on_c, 13, 50, 75
14, 69888, Note_off_c, 13, 50, 0
14, 69888, Note_on_c, 13, 48, 75
14, 70080, Note_off_c, 13, 48, 0
14, 70080, Note_on_c, 13, 47, 75
14, 70272, Note_off_c, 13, 47, 0
14, 70272, Note_on_c, 13, 48, 75
14, 70464, Note_off_c, 13, 48, 0
14, 70464, Note_on_c, 13, 47, 75
14, 71616, Note_off_c, 13, 47, 0
14, 71616, Note_on_c, 13, 48, 92
14, 71808, Note_off_c, 13, 48, 0
14, 71808, Note_on_c, 13, 55, 92
14, 72000, Note_off_c, 13, 55, 0
14, 72000, Note_on_c, 13, 53, 92
14, 72384, Note_off_c, 13, 53, 0
14, 72384, Note_on_c, 13, 55, 92
14, 72768, Note_off_c, 13, 55, 0
14, 72768, Note_on_c, 13, 48, 92
14, 72960, Note_off_c, 13, 48, 0
14, 72960, Note_on_c, 13, 55, 92
14, 73152, Note_off_c, 13, 55, 0
14, 73152, Note_on_c, 13, 53, 92
14, 73536, Note_off_c, 13, 53, 0
14, 73536, Note_on_c, 13, 55, 92
14, 73920, Note_off_c, 13, 55, 0
14, 73920, Note_on_c, 13, 48, 92
14, 74112, Note_off_c, 13, 48, 0
14, 74112, Note_on_c, 13, 50, 92
14, 74304, Note_off_c, 13, 50, 0
14, 74304, Note_on_c, 13, 51, 92
14, 74688, Note_off_c, 13, 51, 0
14, 74688, Note_on_c, 13, 53, 92
14, 75072, Note_off_c, 13, 53, 0
14, 75072, Note_on_c, 13, 46, 92
14, 75264, Note_off_c, 13, 46, 0
14, 75264, Note_on_c, 13, 48, 92
14, 75456, Note_off_c, 13, 48, 0
14, 75456, Note_on_c, 13, 50, 92
14, 75840, Note_off_c, 13, 50, 0
14, 75840, Note_on_c, 13, 51, 92
14, 76224, Note_off_c, 13, 51, 0
14, 76224, Note_on_c, 13, 45, 92
14, 76416, Note_off_c, 13, 45, 0
14, 76416, Note_on_c, 13, 46, 92
14, 76608, Note_off_c, 13, 46, 0
14, 76608, Note_on_c, 13, 48, 92
14, 76800, Note_off_c, 13, 48, 0
14, 76800, Note_on_c, 13, 50, 92
14, 76992, Note_off_c, 13, 50, 0
14, 76992, Note_on_c, 13, 51, 92
14, 77376, Note_off_c, 13, 51, 0
14, 77376, Note_on_c, 13, 50, 92
14, 80064, Note_off_c, 13, 50, 0
14, 80064, Note_on_c, 13, 48, 92
14, 80256, Note_off_c, 13, 48, 0
14, 80256, Note_on_c, 13, 46, 92
14, 80448, Note_off_c, 13, 46, 0
14, 80448, Note_on_c, 13, 45, 92
14, 80640, Note_off_c, 13, 45, 0
14, 80640, Note_on_c, 13, 48, 92
14, 80832, Note_off_c, 13, 48, 0
14, 80832, Note_on_c, 13, 46, 92
14, 81024, Note_off_c, 13, 46, 0
14, 81024, Note_on_c, 13, 43, 92
14, 81216, Note_off_c, 13, 43, 0
14, 81216, Note_on_c, 13, 50, 92
14, 81600, Note_off_c, 13, 50, 0
14, 81600, Note_on_c, 13, 50, 92
14, 81984, Note_off_c, 13, 50, 0
14, 81984, Note_on_c, 13, 43, 92
14, 83136, Note_off_c, 13, 43, 0
14, 83136, Note_on_c, 13, 43, 92
14, 83520, Note_off_c, 13, 43, 0
14, 83520, Note_on_c, 13, 55, 92
14, 83904, Note_off_c, 13, 55, 0
14, 83904, Note_on_c, 13, 55, 92
14, 84288, Note_off_c, 13, 55, 0
14, 84288, Note_on_c, 13, 55, 92
14, 85440, Note_off_c, 13, 55, 0
14, 85440, Note_on_c, 13, 43, 92
14, 85824, Note_off_c, 13, 43, 0
14, 85824, Note_on_c, 13, 55, 92
14, 86208, Note_off_c, 13, 55, 0
14, 86208, Note_on_c, 13, 55, 92
14, 86592, Note_off_c, 13, 55, 0
14, 86592, Note_on_c, 13, 55, 92
14, 88128, Note_off_c, 13, 55, 0
14, 88128, Note_on_c, 13, 55, 92
14, 88512, Note_off_c, 13, 55, 0
14, 88512, Note_on_c, 13, 56, 92
14, 88896, Note_off_c, 13, 56, 0
14, 88896, Note_on_c, 13, 52, 92
14, 89664, Note_off_c, 13, 52, 0
14, 89664, Note_on_c, 13, 53, 92
14, 90048, Note_off_c, 13, 53, 0
14, 90048, Note_on_c, 13, 47, 92
14, 90432, Note_off_c, 13, 47, 0
14, 90432, Note_on_c, 13, 48, 92
14, 91200, Note_off_c, 13, 48, 0
14, 91200, Note_on_c, 13, 43, 92
14, 92352, Note_off_c, 13, 43, 0
14, 106176, Note_on_c, 13, 60, 92
14, 106560, Note_off_c, 13, 60, 0
14, 106560, Note_on_c, 13, 48, 92
14, 106944, Note_off_c, 13, 48, 0
14, 106944, Note_on_c, 13, 48, 92
14, 107328, Note_off_c, 13, 48, 0
14, 107328, Note_on_c, 13, 50, 92
14, 108480, Note_off_c, 13, 50, 0
14, 108480, Note_on_c, 13, 52, 92
14, 108864, Note_off_c, 13, 52, 0
14, 108864, Note_on_c, 13, 48, 92
14, 109248, Note_off_c, 13, 48, 0
14, 109248, Note_on_c, 13, 52, 92
14, 109632, Note_off_c, 13, 52, 0
14, 109632, Note_on_c, 13, 53, 92
14, 110016, Note_off_c, 13, 53, 0
14, 110016, Note_on_c, 13, 53, 92
14, 110784, Note_off_c, 13, 53, 0
14, 110784, Note_on_c, 13, 47, 92
14, 111168, Note_off_c, 13, 47, 0
14, 111168, Note_on_c, 13, 59, 92
14, 111552, Note_off_c, 13, 59, 0
14, 111552, Note_on_c, 13, 59, 92
14, 111936, Note_off_c, 13, 59, 0
14, 111936, Note_on_c, 13, 60, 92
14, 112704, Note_off_c, 13, 60, 0
14, 112704, Note_on_c, 13, 48, 92
14, 113088, Note_off_c, 13, 48, 0
14, 113088, Note_on_c, 13, 50, 92
14, 113472, Note_off_c, 13, 50, 0
14, 113472, Note_on_c, 13, 51, 92
14, 113856, Note_off_c, 13, 51, 0
14, 113856, Note_on_c, 13, 56, 92
14, 114240, Note_off_c, 13, 56, 0
14, 114240, Note_on_c, 13, 58, 92
14, 114624, Note_off_c, 13, 58, 0
14, 114624, Note_on_c, 13, 46, 60
14, 115008, Note_off_c, 13, 46, 0
14, 115008, Note_on_c, 13, 46, 60
14, 115392, Note_off_c, 13, 46, 0
14, 115392, Note_on_c, 13, 46, 60
14, 116928, Note_off_c, 13, 46, 0
14, 116928, Note_on_c, 13, 46, 60
14, 117120, Note_off_c, 13, 46, 0
14, 117120, Note_on_c, 13, 50, 92
14, 117312, Note_off_c, 13, 50, 0
14, 117312, Note_on_c, 13, 51, 92
14, 117504, Note_off_c, 13, 51, 0
14, 117504, Note_on_c, 13, 53, 92
14, 117696, Note_off_c, 13, 53, 0
14, 117696, Note_on_c, 13, 55, 92
14, 118272, Note_off_c, 13, 55, 0
14, 118272, Note_on_c, 13, 56, 92
14, 118464, Note_off_c, 13, 56, 0
14, 118464, Note_on_c, 13, 58, 92
14, 118656, Note_off_c, 13, 58, 0
14, 118656, Note_on_c, 13, 46, 92
14, 118848, Note_off_c, 13, 46, 0
14, 118848, Note_on_c, 13, 51, 92
14, 120000, Note_off_c, 13, 51, 0
14, 133824, Note_on_c, 13, 51, 75
14, 134208, Note_off_c, 13, 51, 0
14, 134208, Note_on_c, 13, 51, 75
14, 134592, Note_off_c, 13, 51, 0
14, 134592, Note_on_c, 13, 51, 75
14, 134976, Note_off_c, 13, 51, 0
14, 134976, Note_on_c, 13, 49, 75
14, 136128, Note_off_c, 13, 49, 0
14, 136128, Note_on_c, 13, 43, 75
14, 136512, Note_off_c, 13, 43, 0
14, 136512, Note_on_c, 13, 55, 75
14, 136896, Note_off_c, 13, 55, 0
14, 136896, Note_on_c, 13, 55, 75
14, 137280, Note_off_c, 13, 55, 0
14, 137280, Note_on_c, 13, 56, 75
14, 137664, Note_off_c, 13, 56, 0
14, 137664, Note_on_c, 13, 44, 75
14, 138432, Note_off_c, 13, 44, 0
14, 138432, Note_on_c, 13, 52, 75
14, 138816, Note_off_c, 13, 52, 0
14, 138816, Note_on_c, 13, 52, 92
14, 139008, Note_off_c, 13, 52, 0
14, 139008, Note_on_c, 13, 55, 92
14, 139200, Note_off_c, 13, 55, 0
14, 139200, Note_on_c, 13, 60, 92
14, 139392, Note_off_c, 13, 60, 0
14, 139392, Note_on_c, 13, 58, 92
14, 139584, Note_off_c, 13, 58, 0
14, 139584, Note_on_c, 13, 56, 92
14, 139776, Note_off_c, 13, 56, 0
14, 139776, Note_on_c, 13, 55, 92
14, 139968, Note_off_c, 13, 55, 0
14, 139968, Note_on_c, 13, 53, 92
14, 140160, Note_off_c, 13, 53, 0
14, 140160, Note_on_c, 13, 60, 92
14, 140352, Note_off_c, 13, 60, 0
14, 140352, Note_on_c, 13, 56, 92
14, 140544, Note_off_c, 13, 56, 0
14, 140544, Note_on_c, 13, 53, 92
14, 140736, Note_off_c, 13, 53, 0
14, 140736, Note_on_c, 13, 50, 92
14, 141120, Note_off_c, 13, 50, 0
14, 141120, Note_on_c, 13, 51, 92
14, 141504, Note_off_c, 13, 51, 0
14, 141504, Note_on_c, 13, 53, 92
14, 141888, Note_off_c, 13, 53, 0
14, 141888, Note_on_c, 13, 55, 92
14, 142272, Note_off_c, 13, 55, 0
14, 142272, Note_on_c, 13, 43, 92
14, 142656, Note_off_c, 13, 43, 0
14, 142656, Note_on_c, 13, 43, 60
14, 143040, Note_off_c, 13, 43, 0
14, 143040, Note_on_c, 13, 43, 60
14, 144576, Note_off_c, 13, 43, 0
14, 144576, Note_on_c, 13, 43, 92
14, 144768, Note_off_c, 13, 43, 0
14, 144768, Note_on_c, 13, 47, 92
14, 144960, Note_off_c, 13, 47, 0
14, 144960, Note_on_c, 13, 48, 92
14, 145152, Note_off_c, 13, 48, 0
14, 145152, Note_on_c, 13, 50, 92
14, 145344, Note_off_c, 13, 50, 0
14, 145344, Note_on_c, 13, 51, 92
14, 145920, Note_off_c, 13, 51, 0
14, 145920, Note_on_c, 13, 53, 92
14, 146112, Note_off_c, 13, 53, 0
14, 146112, Note_on_c, 13, 55, 92
14, 146304, Note_off_c, 13, 55, 0
14, 146304, Note_on_c, 13, 43, 92
14, 146496, Note_off_c, 13, 43, 0
14, 146496, Note_on_c, 13, 48, 92
14, 147648, Note_off_c, 13, 48, 0
14, 147648, End_track
15, 0, Start_track
15, 0, Title_t, "Soprano II"
15, 0, Control_c, 13, 0, 0
15, 0, Program_c, 13, 52
15, 0, Control_c, 13, 10, 127
15, 0, Key_signature, -3, "major"
15, 0, Control_c, 13, 7, 127
15, 13824, Note_on_c, 13, 75, 92
15, 14016, Note_off_c, 13, 75, 0
15, 14016, Note_on_c, 13, 77, 92
15, 14112, Note_off_c, 13, 77, 0
15, 14112, Note_on_c, 13, 79, 92
15, 14204, Note_off_c, 13, 79, 0
15, 14208, Note_on_c, 13, 77, 92
15, 14400, Note_off_c, 13, 77, 0
15, 14400, Note_on_c, 13, 75, 92
15, 14588, Note_off_c, 13, 75, 0
15, 14592, Note_on_c, 13, 74, 92
15, 14784, Note_off_c, 13, 74, 0
15, 14784, Note_on_c, 13, 72, 92
15, 14972, Note_off_c, 13, 72, 0
15, 14976, Note_on_c, 13, 71, 92
15, 16032, Note_off_c, 13, 71, 0
15, 16128, Note_on_c, 13, 70, 92
15, 16320, Note_off_c, 13, 70, 0
15, 16320, Note_on_c, 13, 72, 92
15, 16416, Note_off_c, 13, 72, 0
15, 16416, Note_on_c, 13, 73, 92
15, 16508, Note_off_c, 13, 73, 0
15, 16512, Note_on_c, 13, 73, 92
15, 16704, Note_off_c, 13, 73, 0
15, 16704, Note_on_c, 13, 72, 92
15, 16892, Note_off_c, 13, 72, 0
15, 16896, Note_on_c, 13, 72, 92
15, 17088, Note_off_c, 13, 72, 0
15, 17088, Note_on_c, 13, 70, 92
15, 17276, Note_off_c, 13, 70, 0
15, 17280, Note_on_c, 13, 70, 92
15, 17376, Note_off_c, 13, 70, 0
15, 17376, Note_on_c, 13, 68, 92
15, 17472, Note_off_c, 13, 68, 0
15, 17472, Note_on_c, 13, 67, 92
15, 17660, Note_off_c, 13, 67, 0
15, 17664, Note_on_c, 13, 68, 92
15, 18336, Note_off_c, 13, 68, 0
15, 18432, Note_on_c, 13, 67, 92
15, 18752, Note_off_c, 13, 67, 0
15, 18816, Note_on_c, 13, 77, 92
15, 19776, Note_off_c, 13, 77, 0
15, 19776, Note_on_c, 13, 74, 92
15, 19964, Note_off_c, 13, 74, 0
15, 19968, Note_on_c, 13, 75, 92
15, 20160, Note_off_c, 13, 75, 0
15, 20160, Note_on_c, 13, 72, 92
15, 20348, Note_off_c, 13, 72, 0
15, 20352, Note_on_c, 13, 68, 92
15, 20924, Note_off_c, 13, 68, 0
15, 20928, Note_on_c, 13, 65, 92
15, 21116, Note_off_c, 13, 65, 0
15, 21120, Note_on_c, 13, 67, 92
15, 21312, Note_off_c, 13, 67, 0
15, 21312, Note_on_c, 13, 72, 92
15, 21500, Note_off_c, 13, 72, 0
15, 21504, Note_on_c, 13, 70, 92
15, 21696, Note_off_c, 13, 70, 0
15, 21696, Note_on_c, 13, 68, 92
15, 21884, Note_off_c, 13, 68, 0
15, 21888, Note_on_c, 13, 67, 92
15, 22080, Note_off_c, 13, 67, 0
15, 22080, Note_on_c, 13, 65, 92
15, 22400, Note_off_c, 13, 65, 0
15, 23616, Note_on_c, 13, 74, 45
15, 23808, Note_off_c, 13, 74, 0
15, 23808, Note_on_c, 13, 75, 45
15, 23996, Note_off_c, 13, 75, 0
15, 24000, Note_on_c, 13, 72, 45
15, 24188, Note_off_c, 13, 72, 0
15, 24192, Note_on_c, 13, 69, 45
15, 24576, Note_off_c, 13, 69, 0
15, 24576, Note_on_c, 13, 70, 45
15, 24764, Note_off_c, 13, 70, 0
15, 24768, Note_on_c, 13, 80, 92
15, 24960, Note_off_c, 13, 80, 0
15, 24960, Note_on_c, 13, 79, 92
15, 25148, Note_off_c, 13, 79, 0
15, 25152, Note_on_c, 13, 77, 92
15, 25340, Note_off_c, 13, 77, 0
15, 25344, Note_on_c, 13, 74, 92
15, 25536, Note_off_c, 13, 74, 0
15, 25536, Note_on_c, 13, 75, 92
15, 25724, Note_off_c, 13, 75, 0
15, 25728, Note_on_c, 13, 70, 92
15, 25916, Note_off_c, 13, 70, 0
15, 25920, Note_on_c, 13, 68, 92
15, 26112, Note_off_c, 13, 68, 0
15, 26112, Note_on_c, 13, 67, 92
15, 26300, Note_off_c, 13, 67, 0
15, 26304, Note_on_c, 13, 65, 92
15, 26492, Note_off_c, 13, 65, 0
15, 26496, Note_on_c, 13, 63, 92
15, 27552, Note_off_c, 13, 63, 0
15, 41472, Note_on_c, 13, 67, 75
15, 41664, Note_off_c, 13, 67, 0
15, 41664, Note_on_c, 13, 68, 75
15, 41760, Note_off_c, 13, 68, 0
15, 41760, Note_on_c, 13, 70, 75
15, 41852, Note_off_c, 13, 70, 0
15, 41856, Note_on_c, 13, 68, 75
15, 42048, Note_off_c, 13, 68, 0
15, 42048, Note_on_c, 13, 67, 75
15, 42236, Note_off_c, 13, 67, 0
15, 42240, Note_on_c, 13, 65, 75
15, 42432, Note_off_c, 13, 65, 0
15, 42432, Note_on_c, 13, 63, 75
15, 42620, Note_off_c, 13, 63, 0
15, 42624, Note_on_c, 13, 70, 75
15, 43680, Note_off_c, 13, 70, 0
15, 43776, Note_on_c, 13, 73, 75
15, 43968, Note_off_c, 13, 73, 0
15, 43968, Note_on_c, 13, 75, 75
15, 44064, Note_off_c, 13, 75, 0
15, 44064, Note_on_c, 13, 77, 75
15, 44156, Note_off_c, 13, 77, 0
15, 44160, Note_on_c, 13, 77, 75
15, 44352, Note_off_c, 13, 77, 0
15, 44352, Note_on_c, 13, 75, 75
15, 44540, Note_off_c, 13, 75, 0
15, 44544, Note_on_c, 13, 75, 75
15, 44736, Note_off_c, 13, 75, 0
15, 44736, Note_on_c, 13, 73, 75
15, 44924, Note_off_c, 13, 73, 0
15, 44928, Note_on_c, 13, 73, 75
15, 45024, Note_off_c, 13, 73, 0
15, 45024, Note_on_c, 13, 72, 75
15, 45120, Note_off_c, 13, 72, 0
15, 45120, Note_on_c, 13, 70, 75
15, 45308, Note_off_c, 13, 70, 0
15, 45312, Note_on_c, 13, 72, 75
15, 45984, Note_off_c, 13, 72, 0
15, 46080, Note_on_c, 13, 70, 75
15, 46400, Note_off_c, 13, 70, 0
15, 46464, Note_on_c, 13, 79, 92
15, 47424, Note_off_c, 13, 79, 0
15, 47424, Note_on_c, 13, 70, 92
15, 47612, Note_off_c, 13, 70, 0
15, 47616, Note_on_c, 13, 68, 92
15, 47808, Note_off_c, 13, 68, 0
15, 47808, Note_on_c, 13, 67, 92
15, 47996, Note_off_c, 13, 67, 0
15, 48000, Note_on_c, 13, 68, 92
15, 48192, Note_off_c, 13, 68, 0
15, 48192, Note_on_c, 13, 72, 92
15, 48380, Note_off_c, 13, 72, 0
15, 48384, Note_on_c, 13, 77, 92
15, 48576, Note_off_c, 13, 77, 0
15, 48576, Note_on_c, 13, 75, 92
15, 48764, Note_off_c, 13, 75, 0
15, 48768, Note_on_c, 13, 74, 92
15, 48960, Note_off_c, 13, 74, 0
15, 48960, Note_on_c, 13, 72, 92
15, 49148, Note_off_c, 13, 72, 0
15, 49152, Note_on_c, 13, 71, 92
15, 49344, Note_off_c, 13, 71, 0
15, 49344, Note_on_c, 13, 72, 92
15, 49532, Note_off_c, 13, 72, 0
15, 49536, Note_on_c, 13, 67, 92
15, 50048, Note_off_c, 13, 67, 0
15, 51264, Note_on_c, 13, 71, 45
15, 51456, Note_off_c, 13, 71, 0
15, 51456, Note_on_c, 13, 72, 45
15, 51644, Note_off_c, 13, 72, 0
15, 51648, Note_on_c, 13, 68, 45
15, 51836, Note_off_c, 13, 68, 0
15, 51840, Note_on_c, 13, 66, 45
15, 52224, Note_off_c, 13, 66, 0
15, 52224, Note_on_c, 13, 67, 45
15, 52412, Note_off_c, 13, 67, 0
15, 52416, Note_on_c, 13, 77, 92
15, 52608, Note_off_c, 13, 77, 0
15, 52608, Note_on_c, 13, 75, 92
15, 52796, Note_off_c, 13, 75, 0
15, 52800, Note_on_c, 13, 74, 92
15, 52988, Note_off_c, 13, 74, 0
15, 52992, Note_on_c, 13, 71, 92
15, 53184, Note_off_c, 13, 71, 0
15, 53184, Note_on_c, 13, 72, 92
15, 53372, Note_off_c, 13, 72, 0
15, 53376, Note_on_c, 13, 67, 92
15, 53564, Note_off_c, 13, 67, 0
15, 53568, Note_on_c, 13, 65, 92
15, 53760, Note_off_c, 13, 65, 0
15, 53760, Note_on_c, 13, 63, 92
15, 53948, Note_off_c, 13, 63, 0
15, 53952, Note_on_c, 13, 62, 92
15, 54140, Note_off_c, 13, 62, 0
15, 54144, Note_on_c, 13, 60, 92
15, 55200, Note_off_c, 13, 60, 0
15, 59520, Note_on_c, 13, 68, 45
15, 59712, Note_off_c, 13, 68, 0
15, 59712, Note_on_c, 13, 70, 45
15, 59900, Note_off_c, 13, 70, 0
15, 59904, Note_on_c, 13, 67, 45
15, 60092, Note_off_c, 13, 67, 0
15, 60096, Note_on_c, 13, 64, 45
15, 60288, Note_off_c, 13, 64, 0
15, 60288, Note_on_c, 13, 65, 45
15, 60476, Note_off_c, 13, 65, 0
15, 60480, Note_on_c, 13, 67, 45
15, 60668, Note_off_c, 13, 67, 0
15, 60672, Note_on_c, 13, 68, 45
15, 60864, Note_off_c, 13, 68, 0
15, 60864, Note_on_c, 13, 70, 45
15, 61052, Note_off_c, 13, 70, 0
15, 61056, Note_on_c, 13, 67, 45
15, 61244, Note_off_c, 13, 67, 0
15, 61248, Note_on_c, 13, 64, 45
15, 61632, Note_off_c, 13, 64, 0
15, 61632, Note_on_c, 13, 65, 45
15, 61820, Note_off_c, 13, 65, 0
15, 65280, Note_on_c, 13, 74, 45
15, 65468, Note_off_c, 13, 74, 0
15, 65472, Note_on_c, 13, 75, 45
15, 65660, Note_off_c, 13, 75, 0
15, 65664, Note_on_c, 13, 72, 45
15, 65852, Note_off_c, 13, 72, 0
15, 65856, Note_on_c, 13, 69, 45
15, 66048, Note_off_c, 13, 69, 0
15, 66048, Note_on_c, 13, 70, 45
15, 66236, Note_off_c, 13, 70, 0
15, 66240, Note_on_c, 13, 72, 45
15, 66428, Note_off_c, 13, 72, 0
15, 66432, Note_on_c, 13, 73, 45
15, 66624, Note_off_c, 13, 73, 0
15, 66624, Note_on_c, 13, 75, 45
15, 66812, Note_off_c, 13, 75, 0
15, 66816, Note_on_c, 13, 72, 45
15, 67004, Note_off_c, 13, 72, 0
15, 67008, Note_on_c, 13, 69, 45
15, 67392, Note_off_c, 13, 69, 0
15, 67392, Note_on_c, 13, 73, 45
15, 67580, Note_off_c, 13, 73, 0
15, 77952, Note_on_c, 13, 78, 45
15, 78144, Note_off_c, 13, 78, 0
15, 78144, Note_on_c, 13, 79, 45
15, 78332, Note_off_c, 13, 79, 0
15, 78336, Note_on_c, 13, 75, 45
15, 78524, Note_off_c, 13, 75, 0
15, 78528, Note_on_c, 13, 73, 45
15, 78720, Note_off_c, 13, 73, 0
15, 78720, Note_on_c, 13, 74, 45
15, 78908, Note_off_c, 13, 74, 0
15, 78912, Note_on_c, 13, 76, 45
15, 79100, Note_off_c, 13, 76, 0
15, 79104, Note_on_c, 13, 78, 45
15, 79296, Note_off_c, 13, 78, 0
15, 79296, Note_on_c, 13, 79, 45
15, 79484, Note_off_c, 13, 79, 0
15, 79488, Note_on_c, 13, 75, 45
15, 79676, Note_off_c, 13, 75, 0
15, 79680, Note_on_c, 13, 73, 45
15, 80064, Note_off_c, 13, 73, 0
15, 80064, Note_on_c, 13, 74, 45
15, 80252, Note_off_c, 13, 74, 0
15, 106176, Note_on_c, 13, 75, 92
15, 106368, Note_off_c, 13, 75, 0
15, 106368, Note_on_c, 13, 77, 92
15, 106464, Note_off_c, 13, 77, 0
15, 106464, Note_on_c, 13, 79, 92
15, 106556, Note_off_c, 13, 79, 0
15, 106560, Note_on_c, 13, 77, 92
15, 106752, Note_off_c, 13, 77, 0
15, 106752, Note_on_c, 13, 75, 92
15, 106940, Note_off_c, 13, 75, 0
15, 106944, Note_on_c, 13, 74, 92
15, 107136, Note_off_c, 13, 74, 0
15, 107136, Note_on_c, 13, 72, 92
15, 107324, Note_off_c, 13, 72, 0
15, 107328, Note_on_c, 13, 71, 92
15, 108384, Note_off_c, 13, 71, 0
15, 108480, Note_on_c, 13, 70, 92
15, 108672, Note_off_c, 13, 70, 0
15, 108672, Note_on_c, 13, 72, 92
15, 108768, Note_off_c, 13, 72, 0
15, 108768, Note_on_c, 13, 73, 92
15, 108860, Note_off_c, 13, 73, 0
15, 108864, Note_on_c, 13, 73, 92
15, 109056, Note_off_c, 13, 73, 0
15, 109056, Note_on_c, 13, 72, 92
15, 109244, Note_off_c, 13, 72, 0
15, 109248, Note_on_c, 13, 72, 92
15, 109440, Note_off_c, 13, 72, 0
15, 109440, Note_on_c, 13, 70, 92
15, 109628, Note_off_c, 13, 70, 0
15, 109632, Note_on_c, 13, 70, 92
15, 109728, Note_off_c, 13, 70, 0
15, 109728, Note_on_c, 13, 68, 92
15, 109824, Note_off_c, 13, 68, 0
15, 109824, Note_on_c, 13, 67, 92
15, 110012, Note_off_c, 13, 67, 0
15, 110016, Note_on_c, 13, 68, 92
15, 110688, Note_off_c, 13, 68, 0
15, 110784, Note_on_c, 13, 67, 92
15, 111104, Note_off_c, 13, 67, 0
15, 111168, Note_on_c, 13, 77, 92
15, 112128, Note_off_c, 13, 77, 0
15, 112128, Note_on_c, 13, 74, 92
15, 112316, Note_off_c, 13, 74, 0
15, 112320, Note_on_c, 13, 75, 92
15, 112512, Note_off_c, 13, 75, 0
15, 112512, Note_on_c, 13, 72, 92
15, 112700, Note_off_c, 13, 72, 0
15, 112704, Note_on_c, 13, 68, 92
15, 113276, Note_off_c, 13, 68, 0
15, 113280, Note_on_c, 13, 65, 92
15, 113468, Note_off_c, 13, 65, 0
15, 113472, Note_on_c, 13, 67, 92
15, 113664, Note_off_c, 13, 67, 0
15, 113664, Note_on_c, 13, 72, 92
15, 113852, Note_off_c, 13, 72, 0
15, 113856, Note_on_c, 13, 70, 92
15, 114048, Note_off_c, 13, 70, 0
15, 114048, Note_on_c, 13, 68, 92
15, 114236, Note_off_c, 13, 68, 0
15, 114240, Note_on_c, 13, 67, 92
15, 114432, Note_off_c, 13, 67, 0
15, 114432, Note_on_c, 13, 65, 92
15, 114752, Note_off_c, 13, 65, 0
15, 115968, Note_on_c, 13, 74, 45
15, 116160, Note_off_c, 13, 74, 0
15, 116160, Note_on_c, 13, 75, 45
15, 116348, Note_off_c, 13, 75, 0
15, 116352, Note_on_c, 13, 72, 45
15, 116540, Note_off_c, 13, 72, 0
15, 116544, Note_on_c, 13, 69, 45
15, 116928, Note_off_c, 13, 69, 0
15, 116928, Note_on_c, 13, 70, 45
15, 117116, Note_off_c, 13, 70, 0
15, 117120, Note_on_c, 13, 80, 92
15, 117312, Note_off_c, 13, 80, 0
15, 117312, Note_on_c, 13, 79, 92
15, 117500, Note_off_c, 13, 79, 0
15, 117504, Note_on_c, 13, 77, 92
15, 117692, Note_off_c, 13, 77, 0
15, 117696, Note_on_c, 13, 74, 92
15, 117888, Note_off_c, 13, 74, 0
15, 117888, Note_on_c, 13, 75, 92
15, 118076, Note_off_c, 13, 75, 0
15, 118080, Note_on_c, 13, 70, 92
15, 118268, Note_off_c, 13, 70, 0
15, 118272, Note_on_c, 13, 68, 92
15, 118464, Note_off_c, 13, 68, 0
15, 118464, Note_on_c, 13, 67, 92
15, 118652, Note_off_c, 13, 67, 0
15, 118656, Note_on_c, 13, 65, 92
15, 118844, Note_off_c, 13, 65, 0
15, 118848, Note_on_c, 13, 63, 92
15, 119904, Note_off_c, 13, 63, 0
15, 133824, Note_on_c, 13, 67, 75
15, 134016, Note_off_c, 13, 67, 0
15, 134016, Note_on_c, 13, 68, 75
15, 134112, Note_off_c, 13, 68, 0
15, 134112, Note_on_c, 13, 70, 75
15, 134204, Note_off_c, 13, 70, 0
15, 134208, Note_on_c, 13, 68, 75
15, 134400, Note_off_c, 13, 68, 0
15, 134400, Note_on_c, 13, 67, 75
15, 134588, Note_off_c, 13, 67, 0
15, 134592, Note_on_c, 13, 65, 75
15, 134784, Note_off_c, 13, 65, 0
15, 134784, Note_on_c, 13, 63, 75
15, 134972, Note_off_c, 13, 63, 0
15, 134976, Note_on_c, 13, 70, 75
15, 136032, Note_off_c, 13, 70, 0
15, 136128, Note_on_c, 13, 73, 75
15, 136320, Note_off_c, 13, 73, 0
15, 136320, Note_on_c, 13, 75, 75
15, 136416, Note_off_c, 13, 75, 0
15, 136416, Note_on_c, 13, 77, 75
15, 136508, Note_off_c, 13, 77, 0
15, 136512, Note_on_c, 13, 77, 75
15, 136704, Note_off_c, 13, 77, 0
15, 136704, Note_on_c, 13, 75, 75
15, 136892, Note_off_c, 13, 75, 0
15, 136896, Note_on_c, 13, 75, 75
15, 137088, Note_off_c, 13, 75, 0
15, 137088, Note_on_c, 13, 73, 75
15, 137276, Note_off_c, 13, 73, 0
15, 137280, Note_on_c, 13, 73, 75
15, 137376, Note_off_c, 13, 73, 0
15, 137376, Note_on_c, 13, 72, 75
15, 137472, Note_off_c, 13, 72, 0
15, 137472, Note_on_c, 13, 70, 75
15, 137660, Note_off_c, 13, 70, 0
15, 137664, Note_on_c, 13, 72, 75
15, 138336, Note_off_c, 13, 72, 0
15, 138432, Note_on_c, 13, 70, 75
15, 138752, Note_off_c, 13, 70, 0
15, 138816, Note_on_c, 13, 79, 92
15, 139776, Note_off_c, 13, 79, 0
15, 139776, Note_on_c, 13, 70, 92
15, 139964, Note_off_c, 13, 70, 0
15, 139968, Note_on_c, 13, 68, 92
15, 140160, Note_off_c, 13, 68, 0
15, 140160, Note_on_c, 13, 67, 92
15, 140348, Note_off_c, 13, 67, 0
15, 140352, Note_on_c, 13, 68, 92
15, 140544, Note_off_c, 13, 68, 0
15, 140544, Note_on_c, 13, 72, 92
15, 140732, Note_off_c, 13, 72, 0
15, 140736, Note_on_c, 13, 77, 92
15, 140928, Note_off_c, 13, 77, 0
15, 140928, Note_on_c, 13, 75, 92
15, 141116, Note_off_c, 13, 75, 0
15, 141120, Note_on_c, 13, 74, 92
15, 141312, Note_off_c, 13, 74, 0
15, 141312, Note_on_c, 13, 72, 92
15, 141500, Note_off_c, 13, 72, 0
15, 141504, Note_on_c, 13, 71, 92
15, 141696, Note_off_c, 13, 71, 0
15, 141696, Note_on_c, 13, 72, 92
15, 141884, Note_off_c, 13, 72, 0
15, 141888, Note_on_c, 13, 67, 92
15, 142400, Note_off_c, 13, 67, 0
15, 143616, Note_on_c, 13, 71, 45
15, 143808, Note_off_c, 13, 71, 0
15, 143808, Note_on_c, 13, 72, 45
15, 143996, Note_off_c, 13, 72, 0
15, 144000, Note_on_c, 13, 68, 45
15, 144188, Note_off_c, 13, 68, 0
15, 144192, Note_on_c, 13, 66, 45
15, 144576, Note_off_c, 13, 66, 0
15, 144576, Note_on_c, 13, 67, 45
15, 144764, Note_off_c, 13, 67, 0
15, 144768, Note_on_c, 13, 77, 92
15, 144960, Note_off_c, 13, 77, 0
15, 144960, Note_on_c, 13, 75, 92
15, 145148, Note_off_c, 13, 75, 0
15, 145152, Note_on_c, 13, 74, 92
15, 145340, Note_off_c, 13, 74, 0
15, 145344, Note_on_c, 13, 71, 92
15, 145536, Note_off_c, 13, 71, 0
15, 145536, Note_on_c, 13, 72, 92
15, 145724, Note_off_c, 13, 72, 0
15, 145728, Note_on_c, 13, 67, 92
15, 145916, Note_off_c, 13, 67, 0
15, 145920, Note_on_c, 13, 65, 92
15, 146112, Note_off_c, 13, 65, 0
15, 146112, Note_on_c, 13, 63, 92
15, 146300, Note_off_c, 13, 63, 0
15, 146304, Note_on_c, 13, 62, 92
15, 146492, Note_off_c, 13, 62, 0
15, 146496, Note_on_c, 13, 60, 92
15, 147552, Note_off_c, 13, 60, 0
15, 147552, End_track
16, 0, Start_track
16, 0, Title_t, "Alto II"
16, 0, Control_c, 12, 0, 0
16, 0, Program_c, 12, 52
16, 0, Control_c, 12, 10, 127
16, 0, Key_signature, -3, "major"
16, 0, Control_c, 12, 7, 127
16, 13824, Note_on_c, 12, 72, 92
16, 14016, Note_off_c, 12, 72, 0
16, 14016, Note_on_c, 12, 70, 92
16, 14204, Note_off_c, 12, 70, 0
16, 14208, Note_on_c, 12, 68, 92
16, 14400, Note_off_c, 12, 68, 0
16, 14400, Note_on_c, 12, 67, 92
16, 14588, Note_off_c, 12, 67, 0
16, 14592, Note_on_c, 12, 65, 92
16, 14784, Note_off_c, 12, 65, 0
16, 14784, Note_on_c, 12, 63, 92
16, 14972, Note_off_c, 12, 63, 0
16, 14976, Note_on_c, 12, 65, 92
16, 16032, Note_off_c, 12, 65, 0
16, 16128, Note_on_c, 12, 67, 92
16, 16320, Note_off_c, 12, 67, 0
16, 16320, Note_on_c, 12, 68, 92
16, 16416, Note_off_c, 12, 68, 0
16, 16416, Note_on_c, 12, 70, 92
16, 16508, Note_off_c, 12, 70, 0
16, 16512, Note_on_c, 12, 70, 92
16, 16704, Note_off_c, 12, 70, 0
16, 16704, Note_on_c, 12, 68, 92
16, 16892, Note_off_c, 12, 68, 0
16, 16896, Note_on_c, 12, 68, 92
16, 17088, Note_off_c, 12, 68, 0
16, 17088, Note_on_c, 12, 67, 92
16, 17276, Note_off_c, 12, 67, 0
16, 17280, Note_on_c, 12, 67, 92
16, 17376, Note_off_c, 12, 67, 0
16, 17376, Note_on_c, 12, 65, 92
16, 17472, Note_off_c, 12, 65, 0
16, 17472, Note_on_c, 12, 64, 92
16, 17660, Note_off_c, 12, 64, 0
16, 17664, Note_on_c, 12, 65, 92
16, 18620, Note_off_c, 12, 65, 0
16, 18624, Note_on_c, 12, 67, 92
16, 18812, Note_off_c, 12, 67, 0
16, 18816, Note_on_c, 12, 68, 92
16, 19008, Note_off_c, 12, 68, 0
16, 19008, Note_on_c, 12, 65, 92
16, 19200, Note_off_c, 12, 65, 0
16, 19200, Note_on_c, 12, 67, 92
16, 19776, Note_off_c, 12, 67, 0
16, 19776, Note_on_c, 12, 71, 92
16, 19968, Note_off_c, 12, 71, 0
16, 19968, Note_on_c, 12, 72, 92
16, 20156, Note_off_c, 12, 72, 0
16, 20160, Note_on_c, 12, 67, 92
16, 20348, Note_off_c, 12, 67, 0
16, 20352, Note_on_c, 12, 65, 92
16, 20544, Note_off_c, 12, 65, 0
16, 20544, Note_on_c, 12, 63, 92
16, 20732, Note_off_c, 12, 63, 0
16, 20736, Note_on_c, 12, 65, 92
16, 21056, Note_off_c, 12, 65, 0
16, 21120, Note_on_c, 12, 63, 92
16, 21312, Note_off_c, 12, 63, 0
16, 21312, Note_on_c, 12, 68, 92
16, 21500, Note_off_c, 12, 68, 0
16, 21504, Note_on_c, 12, 67, 92
16, 21696, Note_off_c, 12, 67, 0
16, 21696, Note_on_c, 12, 65, 92
16, 21884, Note_off_c, 12, 65, 0
16, 21888, Note_on_c, 12, 63, 92
16, 22080, Note_off_c, 12, 63, 0
16, 22080, Note_on_c, 12, 62, 92
16, 22400, Note_off_c, 12, 62, 0
16, 23616, Note_on_c, 12, 68, 45
16, 23808, Note_off_c, 12, 68, 0
16, 23808, Note_on_c, 12, 70, 45
16, 23996, Note_off_c, 12, 70, 0
16, 24000, Note_on_c, 12, 67, 45
16, 24188, Note_off_c, 12, 67, 0
16, 24192, Note_on_c, 12, 63, 45
16, 24576, Note_off_c, 12, 63, 0
16, 24576, Note_on_c, 12, 65, 45
16, 24764, Note_off_c, 12, 65, 0
16, 24768, Note_on_c, 12, 70, 92
16, 25088, Note_off_c, 12, 70, 0
16, 25152, Note_on_c, 12, 68, 92
16, 25340, Note_off_c, 12, 68, 0
16, 25344, Note_on_c, 12, 68, 92
16, 25536, Note_off_c, 12, 68, 0
16, 25536, Note_on_c, 12, 67, 92
16, 25724, Note_off_c, 12, 67, 0
16, 25728, Note_on_c, 12, 67, 92
16, 25916, Note_off_c, 12, 67, 0
16, 25920, Note_on_c, 12, 65, 92
16, 26112, Note_off_c, 12, 65, 0
16, 26112, Note_on_c, 12, 63, 92
16, 26300, Note_off_c, 12, 63, 0
16, 26304, Note_on_c, 12, 62, 92
16, 26492, Note_off_c, 12, 62, 0
16, 26496, Note_on_c, 12, 58, 92
16, 27552, Note_off_c, 12, 58, 0
16, 41472, Note_on_c, 12, 63, 75
16, 41664, Note_off_c, 12, 63, 0
16, 41664, Note_on_c, 12, 62, 75
16, 41852, Note_off_c, 12, 62, 0
16, 41856, Note_on_c, 12, 63, 75
16, 42176, Note_off_c, 12, 63, 0
16, 42240, Note_on_c, 12, 65, 75
16, 42560, Note_off_c, 12, 65, 0
16, 42624, Note_on_c, 12, 67, 75
16, 43680, Note_off_c, 12, 67, 0
16, 43776, Note_on_c, 12, 70, 75
16, 43968, Note_off_c, 12, 70, 0
16, 43968, Note_on_c, 12, 72, 75
16, 44064, Note_off_c, 12, 72, 0
16, 44064, Note_on_c, 12, 73, 75
16, 44156, Note_off_c, 12, 73, 0
16, 44160, Note_on_c, 12, 73, 75
16, 44352, Note_off_c, 12, 73, 0
16, 44352, Note_on_c, 12, 72, 75
16, 44540, Note_off_c, 12, 72, 0
16, 44544, Note_on_c, 12, 72, 75
16, 44736, Note_off_c, 12, 72, 0
16, 44736, Note_on_c, 12, 70, 75
16, 44924, Note_off_c, 12, 70, 0
16, 44928, Note_on_c, 12, 70, 75
16, 45024, Note_off_c, 12, 70, 0
16, 45024, Note_on_c, 12, 68, 75
16, 45120, Note_off_c, 12, 68, 0
16, 45120, Note_on_c, 12, 67, 75
16, 45308, Note_off_c, 12, 67, 0
16, 45312, Note_on_c, 12, 68, 75
16, 45984, Note_off_c, 12, 68, 0
16, 46080, Note_on_c, 12, 67, 75
16, 46400, Note_off_c, 12, 67, 0
16, 46464, Note_on_c, 12, 70, 92
16, 47424, Note_off_c, 12, 70, 0
16, 47424, Note_on_c, 12, 64, 92
16, 47612, Note_off_c, 12, 64, 0
16, 47616, Note_on_c, 12, 65, 92
16, 47808, Note_off_c, 12, 65, 0
16, 47808, Note_on_c, 12, 64, 92
16, 47996, Note_off_c, 12, 64, 0
16, 48000, Note_on_c, 12, 65, 92
16, 48572, Note_off_c, 12, 65, 0
16, 48576, Note_on_c, 12, 67, 92
16, 48764, Note_off_c, 12, 67, 0
16, 48768, Note_on_c, 12, 65, 92
16, 48960, Note_off_c, 12, 65, 0
16, 48960, Note_on_c, 12, 63, 92
16, 49148, Note_off_c, 12, 63, 0
16, 49152, Note_on_c, 12, 62, 92
16, 49344, Note_off_c, 12, 62, 0
16, 49344, Note_on_c, 12, 63, 92
16, 49532, Note_off_c, 12, 63, 0
16, 49536, Note_on_c, 12, 62, 92
16, 50048, Note_off_c, 12, 62, 0
16, 51264, Note_on_c, 12, 65, 45
16, 51456, Note_off_c, 12, 65, 0
16, 51456, Note_on_c, 12, 67, 45
16, 51644, Note_off_c, 12, 67, 0
16, 51648, Note_on_c, 12, 63, 45
16, 51836, Note_off_c, 12, 63, 0
16, 51840, Note_on_c, 12, 60, 45
16, 52224, Note_off_c, 12, 60, 0
16, 52224, Note_on_c, 12, 62, 45
16, 52412, Note_off_c, 12, 62, 0
16, 52416, Note_on_c, 12, 67, 92
16, 52736, Note_off_c, 12, 67, 0
16, 52800, Note_on_c, 12, 65, 92
16, 52988, Note_off_c, 12, 65, 0
16, 52992, Note_on_c, 12, 65, 92
16, 53184, Note_off_c, 12, 65, 0
16, 53184, Note_on_c, 12, 63, 92
16, 53372, Note_off_c, 12, 63, 0
16, 53376, Note_on_c, 12, 63, 92
16, 53564, Note_off_c, 12, 63, 0
16, 53568, Note_on_c, 12, 62, 92
16, 53760, Note_off_c, 12, 62, 0
16, 53760, Note_on_c, 12, 60, 92
16, 53948, Note_off_c, 12, 60, 0
16, 53952, Note_on_c, 12, 59, 92
16, 54140, Note_off_c, 12, 59, 0
16, 54144, Note_on_c, 12, 55, 92
16, 55200, Note_off_c, 12, 55, 0
16, 59520, Note_on_c, 12, 65, 45
16, 59840, Note_off_c, 12, 65, 0
16, 59904, Note_on_c, 12, 61, 45
16, 60092, Note_off_c, 12, 61, 0
16, 60096, Note_on_c, 12, 58, 45
16, 60288, Note_off_c, 12, 58, 0
16, 60288, Note_on_c, 12, 60, 45
16, 60476, Note_off_c, 12, 60, 0
16, 60480, Note_on_c, 12, 64, 45
16, 60668, Note_off_c, 12, 64, 0
16, 60672, Note_on_c, 12, 65, 45
16, 60992, Note_off_c, 12, 65, 0
16, 61056, Note_on_c, 12, 61, 45
16, 61244, Note_off_c, 12, 61, 0
16, 61248, Note_on_c, 12, 58, 45
16, 61632, Note_off_c, 12, 58, 0
16, 61632, Note_on_c, 12, 60, 45
16, 61820, Note_off_c, 12, 60, 0
16, 65280, Note_on_c, 12, 70, 45
16, 65600, Note_off_c, 12, 70, 0
16, 65664, Note_on_c, 12, 66, 45
16, 65852, Note_off_c, 12, 66, 0
16, 65856, Note_on_c, 12, 63, 45
16, 66048, Note_off_c, 12, 63, 0
16, 66048, Note_on_c, 12, 65, 45
16, 66236, Note_off_c, 12, 65, 0
16, 66240, Note_on_c, 12, 69, 45
16, 66428, Note_off_c, 12, 69, 0
16, 66432, Note_on_c, 12, 70, 45
16, 66752, Note_off_c, 12, 70, 0
16, 66816, Note_on_c, 12, 66, 45
16, 67004, Note_off_c, 12, 66, 0
16, 67008, Note_on_c, 12, 63, 45
16, 67392, Note_off_c, 12, 63, 0
16, 67392, Note_on_c, 12, 65, 45
16, 67580, Note_off_c, 12, 65, 0
16, 77952, Note_on_c, 12, 69, 45
16, 78144, Note_off_c, 12, 69, 0
16, 78144, Note_on_c, 12, 70, 45
16, 78332, Note_off_c, 12, 70, 0
16, 78336, Note_on_c, 12, 67, 45
16, 78524, Note_off_c, 12, 67, 0
16, 78528, Note_on_c, 12, 67, 45
16, 78720, Note_off_c, 12, 67, 0
16, 78720, Note_on_c, 12, 69, 45
16, 78908, Note_off_c, 12, 69, 0
16, 78912, Note_on_c, 12, 67, 45
16, 79100, Note_off_c, 12, 67, 0
16, 79104, Note_on_c, 12, 69, 45
16, 79296, Note_off_c, 12, 69, 0
16, 79296, Note_on_c, 12, 70, 45
16, 79484, Note_off_c, 12, 70, 0
16, 79488, Note_on_c, 12, 67, 45
16, 79676, Note_off_c, 12, 67, 0
16, 79680, Note_on_c, 12, 67, 45
16, 80064, Note_off_c, 12, 67, 0
16, 80064, Note_on_c, 12, 69, 45
16, 80252, Note_off_c, 12, 69, 0
16, 106176, Note_on_c, 12, 72, 92
16, 106368, Note_off_c, 12, 72, 0
16, 106368, Note_on_c, 12, 70, 92
16, 106556, Note_off_c, 12, 70, 0
16, 106560, Note_on_c, 12, 68, 92
16, 106752, Note_off_c, 12, 68, 0
16, 106752, Note_on_c, 12, 67, 92
16, 106940, Note_off_c, 12, 67, 0
16, 106944, Note_on_c, 12, 65, 92
16, 107136, Note_off_c, 12, 65, 0
16, 107136, Note_on_c, 12, 63, 92
16, 107324, Note_off_c, 12, 63, 0
16, 107328, Note_on_c, 12, 65, 92
16, 108384, Note_off_c, 12, 65, 0
16, 108480, Note_on_c, 12, 67, 92
16, 108672, Note_off_c, 12, 67, 0
16, 108672, Note_on_c, 12, 68, 92
16, 108768, Note_off_c, 12, 68, 0
16, 108768, Note_on_c, 12, 70, 92
16, 108860, Note_off_c, 12, 70, 0
16, 108864, Note_on_c, 12, 70, 92
16, 109056, Note_off_c, 12, 70, 0
16, 109056, Note_on_c, 12, 68, 92
16, 109244, Note_off_c, 12, 68, 0
16, 109248, Note_on_c, 12, 68, 92
16, 109440, Note_off_c, 12, 68, 0
16, 109440, Note_on_c, 12, 67, 92
16, 109628, Note_off_c, 12, 67, 0
16, 109632, Note_on_c, 12, 67, 92
16, 109728, Note_off_c, 12, 67, 0
16, 109728, Note_on_c, 12, 65, 92
16, 109824, Note_off_c, 12, 65, 0
16, 109824, Note_on_c, 12, 64, 92
16, 110012, Note_off_c, 12, 64, 0
16, 110016, Note_on_c, 12, 65, 92
16, 110972, Note_off_c, 12, 65, 0
16, 110976, Note_on_c, 12, 67, 92
16, 111164, Note_off_c, 12, 67, 0
16, 111168, Note_on_c, 12, 68, 92
16, 111360, Note_off_c, 12, 68, 0
16, 111360, Note_on_c, 12, 65, 92
16, 111552, Note_off_c, 12, 65, 0
16, 111552, Note_on_c, 12, 67, 92
16, 112128, Note_off_c, 12, 67, 0
16, 112128, Note_on_c, 12, 71, 92
16, 112320, Note_off_c, 12, 71, 0
16, 112320, Note_on_c, 12, 72, 92
16, 112508, Note_off_c, 12, 72, 0
16, 112512, Note_on_c, 12, 67, 92
16, 112700, Note_off_c, 12, 67, 0
16, 112704, Note_on_c, 12, 65, 92
16, 112896, Note_off_c, 12, 65, 0
16, 112896, Note_on_c, 12, 63, 92
16, 113084, Note_off_c, 12, 63, 0
16, 113088, Note_on_c, 12, 65, 92
16, 113408, Note_off_c, 12, 65, 0
16, 113472, Note_on_c, 12, 63, 92
16, 113664, Note_off_c, 12, 63, 0
16, 113664, Note_on_c, 12, 68, 92
16, 113852, Note_off_c, 12, 68, 0
16, 113856, Note_on_c, 12, 67, 92
16, 114048, Note_off_c, 12, 67, 0
16, 114048, Note_on_c, 12, 65, 92
16, 114236, Note_off_c, 12, 65, 0
16, 114240, Note_on_c, 12, 63, 92
16, 114432, Note_off_c, 12, 63, 0
16, 114432, Note_on_c, 12, 62, 92
16, 114752, Note_off_c, 12, 62, 0
16, 115968, Note_on_c, 12, 68, 45
16, 116160, Note_off_c, 12, 68, 0
16, 116160, Note_on_c, 12, 70, 45
16, 116348, Note_off_c, 12, 70, 0
16, 116352, Note_on_c, 12, 67, 45
16, 116540, Note_off_c, 12, 67, 0
16, 116544, Note_on_c, 12, 63, 45
16, 116928, Note_off_c, 12, 63, 0
16, 116928, Note_on_c, 12, 65, 45
16, 117116, Note_off_c, 12, 65, 0
16, 117120, Note_on_c, 12, 70, 92
16, 117440, Note_off_c, 12, 70, 0
16, 117504, Note_on_c, 12, 68, 92
16, 117692, Note_off_c, 12, 68, 0
16, 117696, Note_on_c, 12, 68, 92
16, 117888, Note_off_c, 12, 68, 0
16, 117888, Note_on_c, 12, 67, 92
16, 118076, Note_off_c, 12, 67, 0
16, 118080, Note_on_c, 12, 67, 92
16, 118268, Note_off_c, 12, 67, 0
16, 118272, Note_on_c, 12, 65, 92
16, 118464, Note_off_c, 12, 65, 0
16, 118464, Note_on_c, 12, 63, 92
16, 118652, Note_off_c, 12, 63, 0
16, 118656, Note_on_c, 12, 62, 92
16, 118844, Note_off_c, 12, 62, 0
16, 118848, Note_on_c, 12, 58, 92
16, 119904, Note_off_c, 12, 58, 0
16, 133824, Note_on_c, 12, 63, 75
16, 134016, Note_off_c, 12, 63, 0
16, 134016, Note_on_c, 12, 62, 75
16, 134204, Note_off_c, 12, 62, 0
16, 134208, Note_on_c, 12, 63, 75
16, 134528, Note_off_c, 12, 63, 0
16, 134592, Note_on_c, 12, 65, 75
16, 134912, Note_off_c, 12, 65, 0
16, 134976, Note_on_c, 12, 67, 75
16, 136032, Note_off_c, 12, 67, 0
16, 136128, Note_on_c, 12, 70, 75
16, 136320, Note_off_c, 12, 70, 0
16, 136320, Note_on_c, 12, 72, 75
16, 136416, Note_off_c, 12, 72, 0
16, 136416, Note_on_c, 12, 73, 75
16, 136508, Note_off_c, 12, 73, 0
16, 136512, Note_on_c, 12, 73, 75
16, 136704, Note_off_c, 12, 73, 0
16, 136704, Note_on_c, 12, 72, 75
16, 136892, Note_off_c, 12, 72, 0
16, 136896, Note_on_c, 12, 72, 75
16, 137088, Note_off_c, 12, 72, 0
16, 137088, Note_on_c, 12, 70, 75
16, 137276, Note_off_c, 12, 70, 0
16, 137280, Note_on_c, 12, 70, 75
16, 137376, Note_off_c, 12, 70, 0
16, 137376, Note_on_c, 12, 68, 75
16, 137472, Note_off_c, 12, 68, 0
16, 137472, Note_on_c, 12, 67, 75
16, 137660, Note_off_c, 12, 67, 0
16, 137664, Note_on_c, 12, 68, 75
16, 138336, Note_off_c, 12, 68, 0
16, 138432, Note_on_c, 12, 67, 75
16, 138752, Note_off_c, 12, 67, 0
16, 138816, Note_on_c, 12, 70, 92
16, 139776, Note_off_c, 12, 70, 0
16, 139776, Note_on_c, 12, 64, 92
16, 139964, Note_off_c, 12, 64, 0
16, 139968, Note_on_c, 12, 65, 92
16, 140160, Note_off_c, 12, 65, 0
16, 140160, Note_on_c, 12, 64, 92
16, 140348, Note_off_c, 12, 64, 0
16, 140352, Note_on_c, 12, 65, 92
16, 140924, Note_off_c, 12, 65, 0
16, 140928, Note_on_c, 12, 67, 92
16, 141116, Note_off_c, 12, 67, 0
16, 141120, Note_on_c, 12, 65, 92
16, 141312, Note_off_c, 12, 65, 0
16, 141312, Note_on_c, 12, 63, 92
16, 141500, Note_off_c, 12, 63, 0
16, 141504, Note_on_c, 12, 62, 92
16, 141696, Note_off_c, 12, 62, 0
16, 141696, Note_on_c, 12, 63, 92
16, 141884, Note_off_c, 12, 63, 0
16, 141888, Note_on_c, 12, 62, 92
16, 142400, Note_off_c, 12, 62, 0
16, 143616, Note_on_c, 12, 65, 45
16, 143808, Note_off_c, 12, 65, 0
16, 143808, Note_on_c, 12, 67, 45
16, 143996, Note_off_c, 12, 67, 0
16, 144000, Note_on_c, 12, 63, 45
16, 144188, Note_off_c, 12, 63, 0
16, 144192, Note_on_c, 12, 60, 45
16, 144576, Note_off_c, 12, 60, 0
16, 144576, Note_on_c, 12, 62, 45
16, 144764, Note_off_c, 12, 62, 0
16, 144768, Note_on_c, 12, 67, 92
16, 145088, Note_off_c, 12, 67, 0
16, 145152, Note_on_c, 12, 65, 92
16, 145340, Note_off_c, 12, 65, 0
16, 145344, Note_on_c, 12, 65, 92
16, 145536, Note_off_c, 12, 65, 0
16, 145536, Note_on_c, 12, 63, 92
16, 145724, Note_off_c, 12, 63, 0
16, 145728, Note_on_c, 12, 63, 92
16, 145916, Note_off_c, 12, 63, 0
16, 145920, Note_on_c, 12, 62, 92
16, 146112, Note_off_c, 12, 62, 0
16, 146112, Note_on_c, 12, 60, 92
16, 146300, Note_off_c, 12, 60, 0
16, 146304, Note_on_c, 12, 59, 92
16, 146492, Note_off_c, 12, 59, 0
16, 146496, Note_on_c, 12, 55, 92
16, 147552, Note_off_c, 12, 55, 0
16, 147552, End_track
17, 0, Start_track
17, 0, Title_t, "Tenor II"
17, 0, Control_c, 11, 0, 0
17, 0, Program_c, 11, 52
17, 0, Control_c, 11, 10, 0
17, 0, Key_signature, -3, "major"
17, 0, Control_c, 11, 7, 127
17, 13824, Note_on_c, 11, 67, 92
17, 14144, Note_off_c, 11, 67, 0
17, 14208, Note_on_c, 11, 60, 92
17, 14528, Note_off_c, 11, 60, 0
17, 14592, Note_on_c, 11, 55, 92
17, 14912, Note_off_c, 11, 55, 0
17, 14976, Note_on_c, 11, 62, 92
17, 16032, Note_off_c, 11, 62, 0
17, 16128, Note_on_c, 11, 60, 92
17, 16448, Note_off_c, 11, 60, 0
17, 16512, Note_on_c, 11, 64, 92
17, 16832, Note_off_c, 11, 64, 0
17, 16896, Note_on_c, 11, 60, 92
17, 17216, Note_off_c, 11, 60, 0
17, 17280, Note_on_c, 11, 60, 92
17, 17600, Note_off_c, 11, 60, 0
17, 17664, Note_on_c, 11, 60, 92
17, 17856, Note_off_c, 11, 60, 0
17, 17856, Note_on_c, 11, 62, 92
17, 18044, Note_off_c, 11, 62, 0
17, 18048, Note_on_c, 11, 59, 92
17, 18240, Note_off_c, 11, 59, 0
17, 18240, Note_on_c, 11, 60, 92
17, 18428, Note_off_c, 11, 60, 0
17, 18432, Note_on_c, 11, 62, 92
17, 19104, Note_off_c, 11, 62, 0
17, 19200, Note_on_c, 11, 62, 92
17, 19520, Note_off_c, 11, 62, 0
17, 19584, Note_on_c, 11, 60, 92
17, 19776, Note_off_c, 11, 60, 0
17, 19776, Note_on_c, 11, 65, 92
17, 19968, Note_off_c, 11, 65, 0
17, 19968, Note_on_c, 11, 67, 92
17, 20156, Note_off_c, 11, 67, 0
17, 20160, Note_on_c, 11, 63, 92
17, 20348, Note_off_c, 11, 63, 0
17, 20352, Note_on_c, 11, 62, 92
17, 20544, Note_off_c, 11, 62, 0
17, 20544, Note_on_c, 11, 60, 92
17, 20732, Note_off_c, 11, 60, 0
17, 20736, Note_on_c, 11, 58, 92
17, 21056, Note_off_c, 11, 58, 0
17, 21120, Note_on_c, 11, 58, 92
17, 21440, Note_off_c, 11, 58, 0
17, 21504, Note_on_c, 11, 60, 92
17, 21824, Note_off_c, 11, 60, 0
17, 21888, Note_on_c, 11, 58, 92
17, 22400, Note_off_c, 11, 58, 0
17, 23616, Note_on_c, 11, 65, 45
17, 23808, Note_off_c, 11, 65, 0
17, 23808, Note_on_c, 11, 67, 45
17, 23996, Note_off_c, 11, 67, 0
17, 24000, Note_on_c, 11, 63, 45
17, 24188, Note_off_c, 11, 63, 0
17, 24192, Note_on_c, 11, 60, 45
17, 24576, Note_off_c, 11, 60, 0
17, 24576, Note_on_c, 11, 62, 45
17, 24764, Note_off_c, 11, 62, 0
17, 24768, Note_on_c, 11, 65, 92
17, 24960, Note_off_c, 11, 65, 0
17, 24960, Note_on_c, 11, 63, 92
17, 25148, Note_off_c, 11, 63, 0
17, 25152, Note_on_c, 11, 60, 92
17, 25340, Note_off_c, 11, 60, 0
17, 25344, Note_on_c, 11, 58, 92
17, 25664, Note_off_c, 11, 58, 0
17, 25728, Note_on_c, 11, 58, 92
17, 25916, Note_off_c, 11, 58, 0
17, 25920, Note_on_c, 11, 60, 92
17, 26112, Note_off_c, 11, 60, 0
17, 26112, Note_on_c, 11, 58, 92
17, 26300, Note_off_c, 11, 58, 0
17, 26304, Note_on_c, 11, 56, 92
17, 26492, Note_off_c, 11, 56, 0
17, 26496, Note_on_c, 11, 55, 92
17, 27552, Note_off_c, 11, 55, 0
17, 41472, Note_on_c, 11, 58, 75
17, 41792, Note_off_c, 11, 58, 0
17, 41856, Note_on_c, 11, 60, 75
17, 42176, Note_off_c, 11, 60, 0
17, 42240, Note_on_c, 11, 62, 75
17, 42560, Note_off_c, 11, 62, 0
17, 42624, Note_on_c, 11, 63, 75
17, 43680, Note_off_c, 11, 63, 0
17, 43776, Note_on_c, 11, 63, 75
17, 44096, Note_off_c, 11, 63, 0
17, 44160, Note_on_c, 11, 58, 75
17, 44480, Note_off_c, 11, 58, 0
17, 44544, Note_on_c, 11, 63, 75
17, 44864, Note_off_c, 11, 63, 0
17, 44928, Note_on_c, 11, 63, 75
17, 45248, Note_off_c, 11, 63, 0
17, 45312, Note_on_c, 11, 63, 75
17, 45984, Note_off_c, 11, 63, 0
17, 46080, Note_on_c, 11, 60, 75
17, 46400, Note_off_c, 11, 60, 0
17, 46464, Note_on_c, 11, 60, 92
17, 47552, Note_off_c, 11, 60, 0
17, 47616, Note_on_c, 11, 60, 92
17, 47936, Note_off_c, 11, 60, 0
17, 48000, Note_on_c, 11, 60, 92
17, 48320, Note_off_c, 11, 60, 0
17, 48384, Note_on_c, 11, 59, 92
17, 48704, Note_off_c, 11, 59, 0
17, 48768, Note_on_c, 11, 67, 92
17, 49088, Note_off_c, 11, 67, 0
17, 49152, Note_on_c, 11, 68, 92
17, 49344, Note_off_c, 11, 68, 0
17, 49344, Note_on_c, 11, 60, 92
17, 49532, Note_off_c, 11, 60, 0
17, 49536, Note_on_c, 11, 59, 92
17, 50048, Note_off_c, 11, 59, 0
17, 51264, Note_on_c, 11, 62, 45
17, 51456, Note_off_c, 11, 62, 0
17, 51456, Note_on_c, 11, 63, 45
17, 51644, Note_off_c, 11, 63, 0
17, 51648, Note_on_c, 11, 60, 45
17, 51836, Note_off_c, 11, 60, 0
17, 51840, Note_on_c, 11, 57, 45
17, 52224, Note_off_c, 11, 57, 0
17, 52224, Note_on_c, 11, 59, 45
17, 52412, Note_off_c, 11, 59, 0
17, 52416, Note_on_c, 11, 62, 92
17, 52608, Note_off_c, 11, 62, 0
17, 52608, Note_on_c, 11, 60, 92
17, 52796, Note_off_c, 11, 60, 0
17, 52800, Note_on_c, 11, 56, 92
17, 52988, Note_off_c, 11, 56, 0
17, 52992, Note_on_c, 11, 55, 92
17, 53504, Note_off_c, 11, 55, 0
17, 53568, Note_on_c, 11, 56, 92
17, 53756, Note_off_c, 11, 56, 0
17, 53760, Note_on_c, 11, 55, 92
17, 53948, Note_off_c, 11, 55, 0
17, 53952, Note_on_c, 11, 53, 92
17, 54140, Note_off_c, 11, 53, 0
17, 54144, Note_on_c, 11, 51, 92
17, 55200, Note_off_c, 11, 51, 0
17, 59520, Note_on_c, 11, 60, 45
17, 59708, Note_off_c, 11, 60, 0
17, 59712, Note_on_c, 11, 61, 45
17, 59900, Note_off_c, 11, 61, 0
17, 59904, Note_on_c, 11, 58, 45
17, 60092, Note_off_c, 11, 58, 0
17, 60096, Note_on_c, 11, 55, 45
17, 60288, Note_off_c, 11, 55, 0
17, 60288, Note_on_c, 11, 56, 45
17, 60476, Note_off_c, 11, 56, 0
17, 60480, Note_on_c, 11, 58, 45
17, 60668, Note_off_c, 11, 58, 0
17, 60672, Note_on_c, 11, 60, 45
17, 60864, Note_off_c, 11, 60, 0
17, 60864, Note_on_c, 11, 61, 45
17, 61052, Note_off_c, 11, 61, 0
17, 61056, Note_on_c, 11, 58, 45
17, 61244, Note_off_c, 11, 58, 0
17, 61248, Note_on_c, 11, 55, 45
17, 61632, Note_off_c, 11, 55, 0
17, 61632, Note_on_c, 11, 56, 45
17, 61820, Note_off_c, 11, 56, 0
17, 65280, Note_on_c, 11, 65, 45
17, 65472, Note_off_c, 11, 65, 0
17, 65472, Note_on_c, 11, 66, 45
17, 65660, Note_off_c, 11, 66, 0
17, 65664, Note_on_c, 11, 63, 45
17, 65852, Note_off_c, 11, 63, 0
17, 65856, Note_on_c, 11, 60, 45
17, 66048, Note_off_c, 11, 60, 0
17, 66048, Note_on_c, 11, 61, 45
17, 66236, Note_off_c, 11, 61, 0
17, 66240, Note_on_c, 11, 63, 45
17, 66428, Note_off_c, 11, 63, 0
17, 66432, Note_on_c, 11, 65, 45
17, 66624, Note_off_c, 11, 65, 0
17, 66624, Note_on_c, 11, 66, 45
17, 66812, Note_off_c, 11, 66, 0
17, 66816, Note_on_c, 11, 63, 45
17, 67004, Note_off_c, 11, 63, 0
17, 67008, Note_on_c, 11, 60, 45
17, 67392, Note_off_c, 11, 60, 0
17, 67392, Note_on_c, 11, 58, 45
17, 67580, Note_off_c, 11, 58, 0
17, 77952, Note_on_c, 11, 62, 45
17, 78272, Note_off_c, 11, 62, 0
17, 78336, Note_on_c, 11, 67, 45
17, 78524, Note_off_c, 11, 67, 0
17, 78528, Note_on_c, 11, 64, 45
17, 78720, Note_off_c, 11, 64, 0
17, 78720, Note_on_c, 11, 66, 45
17, 78908, Note_off_c, 11, 66, 0
17, 78912, Note_on_c, 11, 67, 45
17, 79100, Note_off_c, 11, 67, 0
17, 79104, Note_on_c, 11, 62, 45
17, 79424, Note_off_c, 11, 62, 0
17, 79488, Note_on_c, 11, 67, 45
17, 79676, Note_off_c, 11, 67, 0
17, 79680, Note_on_c, 11, 64, 45
17, 80064, Note_off_c, 11, 64, 0
17, 80064, Note_on_c, 11, 66, 45
17, 80252, Note_off_c, 11, 66, 0
17, 106176, Note_on_c, 11, 67, 92
17, 106496, Note_off_c, 11, 67, 0
17, 106560, Note_on_c, 11, 60, 92
17, 106880, Note_off_c, 11, 60, 0
17, 106944, Note_on_c, 11, 55, 92
17, 107264, Note_off_c, 11, 55, 0
17, 107328, Note_on_c, 11, 62, 92
17, 108384, Note_off_c, 11, 62, 0
17, 108480, Note_on_c, 11, 60, 92
17, 108800, Note_off_c, 11, 60, 0
17, 108864, Note_on_c, 11, 64, 92
17, 109184, Note_off_c, 11, 64, 0
17, 109248, Note_on_c, 11, 60, 92
17, 109568, Note_off_c, 11, 60, 0
17, 109632, Note_on_c, 11, 60, 92
17, 109952, Note_off_c, 11, 60, 0
17, 110016, Note_on_c, 11, 60, 92
17, 110208, Note_off_c, 11, 60, 0
17, 110208, Note_on_c, 11, 62, 92
17, 110396, Note_off_c, 11, 62, 0
17, 110400, Note_on_c, 11, 59, 92
17, 110592, Note_off_c, 11, 59, 0
17, 110592, Note_on_c, 11, 60, 92
17, 110780, Note_off_c, 11, 60, 0
17, 110784, Note_on_c, 11, 62, 92
17, 111456, Note_off_c, 11, 62, 0
17, 111552, Note_on_c, 11, 62, 92
17, 111872, Note_off_c, 11, 62, 0
17, 111936, Note_on_c, 11, 60, 92
17, 112128, Note_off_c, 11, 60, 0
17, 112128, Note_on_c, 11, 65, 92
17, 112320, Note_off_c, 11, 65, 0
17, 112320, Note_on_c, 11, 67, 92
17, 112508, Note_off_c, 11, 67, 0
17, 112512, Note_on_c, 11, 63, 92
17, 112700, Note_off_c, 11, 63, 0
17, 112704, Note_on_c, 11, 62, 92
17, 112896, Note_off_c, 11, 62, 0
17, 112896, Note_on_c, 11, 60, 92
17, 113084, Note_off_c, 11, 60, 0
17, 113088, Note_on_c, 11, 58, 92
17, 113408, Note_off_c, 11, 58, 0
17, 113472, Note_on_c, 11, 58, 92
17, 113792, Note_off_c, 11, 58, 0
17, 113856, Note_on_c, 11, 60, 92
17, 114176, Note_off_c, 11, 60, 0
17, 114240, Note_on_c, 11, 58, 92
17, 114752, Note_off_c, 11, 58, 0
17, 115968, Note_on_c, 11, 65, 45
17, 116160, Note_off_c, 11, 65, 0
17, 116160, Note_on_c, 11, 67, 45
17, 116348, Note_off_c, 11, 67, 0
17, 116352, Note_on_c, 11, 63, 45
17, 116540, Note_off_c, 11, 63, 0
17, 116544, Note_on_c, 11, 60, 45
17, 116928, Note_off_c, 11, 60, 0
17, 116928, Note_on_c, 11, 62, 45
17, 117116, Note_off_c, 11, 62, 0
17, 117120, Note_on_c, 11, 65, 92
17, 117312, Note_off_c, 11, 65, 0
17, 117312, Note_on_c, 11, 63, 92
17, 117500, Note_off_c, 11, 63, 0
17, 117504, Note_on_c, 11, 60, 92
17, 117692, Note_off_c, 11, 60, 0
17, 117696, Note_on_c, 11, 58, 92
17, 118016, Note_off_c, 11, 58, 0
17, 118080, Note_on_c, 11, 58, 92
17, 118268, Note_off_c, 11, 58, 0
17, 118272, Note_on_c, 11, 60, 92
17, 118464, Note_off_c, 11, 60, 0
17, 118464, Note_on_c, 11, 58, 92
17, 118652, Note_off_c, 11, 58, 0
17, 118656, Note_on_c, 11, 56, 92
17, 118844, Note_off_c, 11, 56, 0
17, 118848, Note_on_c, 11, 55, 92
17, 119904, Note_off_c, 11, 55, 0
17, 133824, Note_on_c, 11, 58, 75
17, 134144, Note_off_c, 11, 58, 0
17, 134208, Note_on_c, 11, 60, 75
17, 134528, Note_off_c, 11, 60, 0
17, 134592, Note_on_c, 11, 62, 75
17, 134912, Note_off_c, 11, 62, 0
17, 134976, Note_on_c, 11, 63, 75
17, 136032, Note_off_c, 11, 63, 0
17, 136128, Note_on_c, 11, 63, 75
17, 136448, Note_off_c, 11, 63, 0
17, 136512, Note_on_c, 11, 58, 75
17, 136832, Note_off_c, 11, 58, 0
17, 136896, Note_on_c, 11, 63, 75
17, 137216, Note_off_c, 11, 63, 0
17, 137280, Note_on_c, 11, 63, 75
17, 137600, Note_off_c, 11, 63, 0
17, 137664, Note_on_c, 11, 63, 75
17, 138336, Note_off_c, 11, 63, 0
17, 138432, Note_on_c, 11, 60, 75
17, 138752, Note_off_c, 11, 60, 0
17, 138816, Note_on_c, 11, 60, 92
17, 139904, Note_off_c, 11, 60, 0
17, 139968, Note_on_c, 11, 60, 92
17, 140288, Note_off_c, 11, 60, 0
17, 140352, Note_on_c, 11, 60, 92
17, 140672, Note_off_c, 11, 60, 0
17, 140736, Note_on_c, 11, 59, 92
17, 141056, Note_off_c, 11, 59, 0
17, 141120, Note_on_c, 11, 67, 92
17, 141440, Note_off_c, 11, 67, 0
17, 141504, Note_on_c, 11, 68, 92
17, 141696, Note_off_c, 11, 68, 0
17, 141696, Note_on_c, 11, 60, 92
17, 141884, Note_off_c, 11, 60, 0
17, 141888, Note_on_c, 11, 59, 92
17, 142400, Note_off_c, 11, 59, 0
17, 143616, Note_on_c, 11, 62, 45
17, 143808, Note_off_c, 11, 62, 0
17, 143808, Note_on_c, 11, 63, 45
17, 143996, Note_off_c, 11, 63, 0
17, 144000, Note_on_c, 11, 60, 45
17, 144188, Note_off_c, 11, 60, 0
17, 144192, Note_on_c, 11, 57, 45
17, 144576, Note_off_c, 11, 57, 0
17, 144576, Note_on_c, 11, 59, 45
17, 144764, Note_off_c, 11, 59, 0
17, 144768, Note_on_c, 11, 62, 92
17, 144960, Note_off_c, 11, 62, 0
17, 144960, Note_on_c, 11, 60, 92
17, 145148, Note_off_c, 11, 60, 0
17, 145152, Note_on_c, 11, 56, 92
17, 145340, Note_off_c, 11, 56, 0
17, 145344, Note_on_c, 11, 55, 92
17, 145856, Note_off_c, 11, 55, 0
17, 145920, Note_on_c, 11, 56, 92
17, 146108, Note_off_c, 11, 56, 0
17, 146112, Note_on_c, 11, 55, 92
17, 146300, Note_off_c, 11, 55, 0
17, 146304, Note_on_c, 11, 53, 92
17, 146492, Note_off_c, 11, 53, 0
17, 146496, Note_on_c, 11, 51, 92
17, 147552, Note_off_c, 11, 51, 0
17, 147552, End_track
18, 0, Start_track
18, 0, Title_t, "Bass II"
18, 0, Control_c, 10, 0, 0
18, 0, Program_c, 10, 52
18, 0, Control_c, 10, 10, 0
18, 0, Key_signature, -3, "major"
18, 0, Control_c, 10, 7, 127
18, 13824, Note_on_c, 10, 60, 92
18, 14144, Note_off_c, 10, 60, 0
18, 14208, Note_on_c, 10, 48, 92
18, 14528, Note_off_c, 10, 48, 0
18, 14592, Note_on_c, 10, 48, 92
18, 14912, Note_off_c, 10, 48, 0
18, 14976, Note_on_c, 10, 50, 92
18, 16032, Note_off_c, 10, 50, 0
18, 16128, Note_on_c, 10, 52, 92
18, 16448, Note_off_c, 10, 52, 0
18, 16512, Note_on_c, 10, 48, 92
18, 16832, Note_off_c, 10, 48, 0
18, 16896, Note_on_c, 10, 52, 92
18, 17216, Note_off_c, 10, 52, 0
18, 17280, Note_on_c, 10, 53, 92
18, 17600, Note_off_c, 10, 53, 0
18, 17664, Note_on_c, 10, 53, 92
18, 18336, Note_off_c, 10, 53, 0
18, 18432, Note_on_c, 10, 47, 92
18, 18752, Note_off_c, 10, 47, 0
18, 18816, Note_on_c, 10, 59, 92
18, 19136, Note_off_c, 10, 59, 0
18, 19200, Note_on_c, 10, 59, 92
18, 19520, Note_off_c, 10, 59, 0
18, 19584, Note_on_c, 10, 60, 92
18, 20256, Note_off_c, 10, 60, 0
18, 20352, Note_on_c, 10, 48, 92
18, 20672, Note_off_c, 10, 48, 0
18, 20736, Note_on_c, 10, 50, 92
18, 21120, Note_off_c, 10, 50, 0
18, 21120, Note_on_c, 10, 51, 92
18, 21440, Note_off_c, 10, 51, 0
18, 21504, Note_on_c, 10, 56, 92
18, 21824, Note_off_c, 10, 56, 0
18, 21888, Note_on_c, 10, 58, 92
18, 22400, Note_off_c, 10, 58, 0
18, 23616, Note_on_c, 10, 46, 45
18, 24128, Note_off_c, 10, 46, 0
18, 24192, Note_on_c, 10, 46, 45
18, 24512, Note_off_c, 10, 46, 0
18, 24576, Note_on_c, 10, 46, 45
18, 24764, Note_off_c, 10, 46, 0
18, 24768, Note_on_c, 10, 50, 92
18, 24960, Note_off_c, 10, 50, 0
18, 24960, Note_on_c, 10, 51, 92
18, 25148, Note_off_c, 10, 51, 0
18, 25152, Note_on_c, 10, 53, 92
18, 25340, Note_off_c, 10, 53, 0
18, 25344, Note_on_c, 10, 55, 92
18, 25856, Note_off_c, 10, 55, 0
18, 25920, Note_on_c, 10, 56, 92
18, 26108, Note_off_c, 10, 56, 0
18, 26112, Note_on_c, 10, 58, 92
18, 26300, Note_off_c, 10, 58, 0
18, 26304, Note_on_c, 10, 46, 92
18, 26492, Note_off_c, 10, 46, 0
18, 26496, Note_on_c, 10, 51, 92
18, 27552, Note_off_c, 10, 51, 0
18, 41472, Note_on_c, 10, 51, 75
18, 41792, Note_off_c, 10, 51, 0
18, 41856, Note_on_c, 10, 51, 75
18, 42176, Note_off_c, 10, 51, 0
18, 42240, Note_on_c, 10, 51, 75
18, 42560, Note_off_c, 10, 51, 0
18, 42624, Note_on_c, 10, 49, 75
18, 43680, Note_off_c, 10, 49, 0
18, 43776, Note_on_c, 10, 43, 75
18, 44096, Note_off_c, 10, 43, 0
18, 44160, Note_on_c, 10, 55, 75
18, 44480, Note_off_c, 10, 55, 0
18, 44544, Note_on_c, 10, 55, 75
18, 44864, Note_off_c, 10, 55, 0
18, 44928, Note_on_c, 10, 56, 75
18, 45248, Note_off_c, 10, 56, 0
18, 45312, Note_on_c, 10, 44, 75
18, 45984, Note_off_c, 10, 44, 0
18, 46080, Note_on_c, 10, 52, 75
18, 46400, Note_off_c, 10, 52, 0
18, 46464, Note_on_c, 10, 52, 92
18, 46656, Note_off_c, 10, 52, 0
18, 46656, Note_on_c, 10, 55, 92
18, 46848, Note_off_c, 10, 55, 0
18, 46848, Note_on_c, 10, 60, 92
18, 47040, Note_off_c, 10, 60, 0
18, 47040, Note_on_c, 10, 58, 92
18, 47232, Note_off_c, 10, 58, 0
18, 47232, Note_on_c, 10, 56, 92
18, 47424, Note_off_c, 10, 56, 0
18, 47424, Note_on_c, 10, 55, 92
18, 47612, Note_off_c, 10, 55, 0
18, 47616, Note_on_c, 10, 53, 92
18, 47808, Note_off_c, 10, 53, 0
18, 47808, Note_on_c, 10, 60, 92
18, 47996, Note_off_c, 10, 60, 0
18, 48000, Note_on_c, 10, 56, 92
18, 48192, Note_off_c, 10, 56, 0
18, 48192, Note_on_c, 10, 53, 92
18, 48380, Note_off_c, 10, 53, 0
18, 48384, Note_on_c, 10, 50, 92
18, 48704, Note_off_c, 10, 50, 0
18, 48768, Note_on_c, 10, 51, 92
18, 49088, Note_off_c, 10, 51, 0
18, 49152, Note_on_c, 10, 53, 92
18, 49472, Note_off_c, 10, 53, 0
18, 49536, Note_on_c, 10, 55, 92
18, 50048, Note_off_c, 10, 55, 0
18, 51072, Note_on_c, 10, 43, 45
18, 51456, Note_off_c, 10, 43, 0
18, 51456, Note_on_c, 10, 43, 45
18, 51840, Note_off_c, 10, 43, 0
18, 51840, Note_on_c, 10, 43, 45
18, 52160, Note_off_c, 10, 43, 0
18, 52224, Note_on_c, 10, 43, 92
18, 52416, Note_off_c, 10, 43, 0
18, 52416, Note_on_c, 10, 47, 92
18, 52604, Note_off_c, 10, 47, 0
18, 52608, Note_on_c, 10, 48, 92
18, 52796, Note_off_c, 10, 48, 0
18, 52800, Note_on_c, 10, 50, 92
18, 52988, Note_off_c, 10, 50, 0
18, 52992, Note_on_c, 10, 51, 92
18, 53504, Note_off_c, 10, 51, 0
18, 53568, Note_on_c, 10, 53, 92
18, 53756, Note_off_c, 10, 53, 0
18, 53760, Note_on_c, 10, 55, 92
18, 53948, Note_off_c, 10, 55, 0
18, 53952, Note_on_c, 10, 43, 92
18, 54140, Note_off_c, 10, 43, 0
18, 54144, Note_on_c, 10, 48, 92
18, 55200, Note_off_c, 10, 48, 0
18, 59328, Note_on_c, 10, 53, 45
18, 61632, Note_off_c, 10, 53, 0
18, 61632, Note_on_c, 10, 41, 45
18, 61820, Note_off_c, 10, 41, 0
18, 65088, Note_on_c, 10, 58, 45
18, 67392, Note_off_c, 10, 58, 0
18, 67392, Note_on_c, 10, 56, 45
18, 67580, Note_off_c, 10, 56, 0
18, 77760, Note_on_c, 10, 62, 45
18, 80064, Note_off_c, 10, 62, 0
18, 80064, Note_on_c, 10, 50, 45
18, 80252, Note_off_c, 10, 50, 0
18, 106176, Note_on_c, 10, 60, 92
18, 106496, Note_off_c, 10, 60, 0
18, 106560, Note_on_c, 10, 48, 92
18, 106880, Note_off_c, 10, 48, 0
18, 106944, Note_on_c, 10, 48, 92
18, 107264, Note_off_c, 10, 48, 0
18, 107328, Note_on_c, 10, 50, 92
18, 108384, Note_off_c, 10, 50, 0
18, 108480, Note_on_c, 10, 52, 92
18, 108800, Note_off_c, 10, 52, 0
18, 108864, Note_on_c, 10, 48, 92
18, 109184, Note_off_c, 10, 48, 0
18, 109248, Note_on_c, 10, 52, 92
18, 109568, Note_off_c, 10, 52, 0
18, 109632, Note_on_c, 10, 53, 92
18, 109952, Note_off_c, 10, 53, 0
18, 110016, Note_on_c, 10, 53, 92
18, 110688, Note_off_c, 10, 53, 0
18, 110784, Note_on_c, 10, 47, 92
18, 111104, Note_off_c, 10, 47, 0
18, 111168, Note_on_c, 10, 59, 92
18, 111488, Note_off_c, 10, 59, 0
18, 111552, Note_on_c, 10, 59, 92
18, 111872, Note_off_c, 10, 59, 0
18, 111936, Note_on_c, 10, 60, 92
18, 112608, Note_off_c, 10, 60, 0
18, 112704, Note_on_c, 10, 48, 92
18, 113024, Note_off_c, 10, 48, 0
18, 113088, Note_on_c, 10, 50, 92
18, 113472, Note_off_c, 10, 50, 0
18, 113472, Note_on_c, 10, 51, 92
18, 113792, Note_off_c, 10, 51, 0
18, 113856, Note_on_c, 10, 56, 92
18, 114176, Note_off_c, 10, 56, 0
18, 114240, Note_on_c, 10, 58, 92
18, 114752, Note_off_c, 10, 58, 0
18, 115968, Note_on_c, 10, 46, 45
18, 116480, Note_off_c, 10, 46, 0
18, 116544, Note_on_c, 10, 46, 45
18, 116864, Note_off_c, 10, 46, 0
18, 116928, Note_on_c, 10, 46, 45
18, 117116, Note_off_c, 10, 46, 0
18, 117120, Note_on_c, 10, 50, 92
18, 117312, Note_off_c, 10, 50, 0
18, 117312, Note_on_c, 10, 51, 92
18, 117500, Note_off_c, 10, 51, 0
18, 117504, Note_on_c, 10, 53, 92
18, 117692, Note_off_c, 10, 53, 0
18, 117696, Note_on_c, 10, 55, 92
18, 118208, Note_off_c, 10, 55, 0
18, 118272, Note_on_c, 10, 56, 92
18, 118460, Note_off_c, 10, 56, 0
18, 118464, Note_on_c, 10, 58, 92
18, 118652, Note_off_c, 10, 58, 0
18, 118656, Note_on_c, 10, 46, 92
18, 118844, Note_off_c, 10, 46, 0
18, 118848, Note_on_c, 10, 51, 92
18, 119904, Note_off_c, 10, 51, 0
18, 133824, Note_on_c, 10, 51, 75
18, 134144, Note_off_c, 10, 51, 0
18, 134208, Note_on_c, 10, 51, 75
18, 134528, Note_off_c, 10, 51, 0
18, 134592, Note_on_c, 10, 51, 75
18, 134912, Note_off_c, 10, 51, 0
18, 134976, Note_on_c, 10, 49, 75
18, 136032, Note_off_c, 10, 49, 0
18, 136128, Note_on_c, 10, 43, 75
18, 136448, Note_off_c, 10, 43, 0
18, 136512, Note_on_c, 10, 55, 75
18, 136832, Note_off_c, 10, 55, 0
18, 136896, Note_on_c, 10, 55, 75
18, 137216, Note_off_c, 10, 55, 0
18, 137280, Note_on_c, 10, 56, 75
18, 137600, Note_off_c, 10, 56, 0
18, 137664, Note_on_c, 10, 44, 75
18, 138336, Note_off_c, 10, 44, 0
18, 138432, Note_on_c, 10, 52, 75
18, 138752, Note_off_c, 10, 52, 0
18, 138816, Note_on_c, 10, 52, 92
18, 139008, Note_off_c, 10, 52, 0
18, 139008, Note_on_c, 10, 55, 92
18, 139200, Note_off_c, 10, 55, 0
18, 139200, Note_on_c, 10, 60, 92
18, 139392, Note_off_c, 10, 60, 0
18, 139392, Note_on_c, 10, 58, 92
18, 139584, Note_off_c, 10, 58, 0
18, 139584, Note_on_c, 10, 56, 92
18, 139776, Note_off_c, 10, 56, 0
18, 139776, Note_on_c, 10, 55, 92
18, 139964, Note_off_c, 10, 55, 0
18, 139968, Note_on_c, 10, 53, 92
18, 140160, Note_off_c, 10, 53, 0
18, 140160, Note_on_c, 10, 60, 92
18, 140348, Note_off_c, 10, 60, 0
18, 140352, Note_on_c, 10, 56, 92
18, 140544, Note_off_c, 10, 56, 0
18, 140544, Note_on_c, 10, 53, 92
18, 140732, Note_off_c, 10, 53, 0
18, 140736, Note_on_c, 10, 50, 92
18, 141056, Note_off_c, 10, 50, 0
18, 141120, Note_on_c, 10, 51, 92
18, 141440, Note_off_c, 10, 51, 0
18, 141504, Note_on_c, 10, 53, 92
18, 141824, Note_off_c, 10, 53, 0
18, 141888, Note_on_c, 10, 55, 92
18, 142400, Note_off_c, 10, 55, 0
18, 143424, Note_on_c, 10, 43, 45
18, 143808, Note_off_c, 10, 43, 0
18, 143808, Note_on_c, 10, 43, 45
18, 144192, Note_off_c, 10, 43, 0
18, 144192, Note_on_c, 10, 43, 45
18, 144512, Note_off_c, 10, 43, 0
18, 144576, Note_on_c, 10, 43, 92
18, 144768, Note_off_c, 10, 43, 0
18, 144768, Note_on_c, 10, 47, 92
18, 144956, Note_off_c, 10, 47, 0
18, 144960, Note_on_c, 10, 48, 92
18, 145148, Note_off_c, 10, 48, 0
18, 145152, Note_on_c, 10, 50, 92
18, 145340, Note_off_c, 10, 50, 0
18, 145344, Note_on_c, 10, 51, 92
18, 145856, Note_off_c, 10, 51, 0
18, 145920, Note_on_c, 10, 53, 92
18, 146108, Note_off_c, 10, 53, 0
18, 146112, Note_on_c, 10, 55, 92
18, 146300, Note_off_c, 10, 55, 0
18, 146304, Note_on_c, 10, 43, 92
18, 146492, Note_off_c, 10, 43, 0
18, 146496, Note_on_c, 10, 48, 92
18, 147552, Note_off_c, 10, 48, 0
18, 147552, End_track
19, 0, Start_track
19, 0, Title_t, """Wir setzen uns mit"
19, 0, Key_signature, 0, "major"
19, 0, End_track
20, 0, Start_track
20, 0, Title_t, "Tr\344nen nieder"" from"
20, 0, Key_signature, 0, "major"
20, 0, End_track
21, 0, Start_track
21, 0, Title_t, "St. Matthew Passion, 1729"
21, 0, Key_signature, 0, "major"
21, 0, End_track
22, 0, Start_track
22, 0, Title_t, "by J.S. Bach (BWV244)"
22, 0, Key_signature, 0, "major"
22, 0, End_track
23, 0, Start_track
23, 0, Title_t, "Sequenced by Ken Whitcomb \2511998"
23, 0, Key_signature, 0, "major"
23, 0, End_track
24, 0, Start_track
24, 0, Title_t, "kendawl@aol.com"
24, 0, Key_signature, 0, "major"
24, 0, End_track
25, 0, Start_track
25, 0, Key_signature, 0, "major"
25, 0, End_track
0, 0, End_of_file