0, 0, Header, 1, 4, 120
1, 0, Start_track
1, 0, Time_signature, 3, 2, 24, 8
1, 0, Key_signature, -4, "major"
1, 0, Tempo, 666667
1, 0, Marker_t, "tpinven9.pc"
1, 0, Marker_t, "Staff:0 "
1, 11375, Tempo, 661667
1, 11385, Tempo, 665336
1, 11390, Tempo, 669045
1, 11400, Tempo, 672797
1, 11405, Tempo, 676590
1, 11415, Tempo, 680426
1, 11420, Tempo, 684307
1, 11430, Tempo, 688231
1, 11435, Tempo, 692201
1, 11440, Tempo, 696217
1, 11450, Tempo, 700280
1, 11455, Tempo, 704391
1, 11465, Tempo, 708550
1, 11470, Tempo, 712758
1, 11480, Tempo, 717017
1, 11485, Tempo, 721327
1, 11495, Tempo, 725689
1, 11500, Tempo, 730105
1, 11505, Tempo, 734574
1, 11515, Tempo, 739098
1, 11520, Tempo, 743679
1, 11530, Tempo, 748316
1, 11535, Tempo, 753012
1, 11545, Tempo, 757767
1, 11550, Tempo, 762583
1, 11560, Tempo, 767460
1, 11565, Tempo, 772400
1, 11570, Tempo, 777403
1, 11580, Tempo, 782473
1, 11585, Tempo, 787608
1, 11595, Tempo, 792812
1, 11600, Tempo, 798085
1, 11610, Tempo, 803428
1, 11615, Tempo, 808843
1, 11620, Tempo, 814332
1, 11630, Tempo, 819896
1, 11635, Tempo, 825537
1, 11645, Tempo, 831255
1, 11650, Tempo, 837054
1, 11660, Tempo, 842933
1, 11665, Tempo, 848896
1, 11675, Tempo, 854944
1, 11680, Tempo, 861079
1, 11685, Tempo, 867303
1, 11695, Tempo, 873617
1, 11700, Tempo, 880023
1, 11710, Tempo, 886525
1, 11715, Tempo, 893123
1, 11725, Tempo, 899820
1, 11730, Tempo, 906618
1, 11740, Tempo, 913520
1, 11745, Tempo, 920528
1, 11750, Tempo, 927644
1, 11760, Tempo, 934871
1, 11765, Tempo, 942211
1, 11775, Tempo, 949668
1, 11780, Tempo, 957243
1, 11790, Tempo, 964940
1, 11795, Tempo, 972763
1, 11805, Tempo, 980713
1, 11810, Tempo, 988794
1, 11815, Tempo, 997009
1, 11825, Tempo, 1005362
1, 11830, Tempo, 1013856
1, 11840, Tempo, 1022495
1, 11845, Tempo, 1031282
1, 11855, Tempo, 1040222
1, 11860, Tempo, 1049318
1, 11865, Tempo, 1058574
1, 11875, Tempo, 1067996
1, 11880, Tempo, 1077586
1, 11890, Tempo, 1087350
1, 11895, Tempo, 1097293
1, 11905, Tempo, 1107420
1, 11910, Tempo, 1117735
1, 11920, Tempo, 1128244
1, 11925, Tempo, 1138952
1, 11930, Tempo, 1149866
1, 11940, Tempo, 1160991
1, 11945, Tempo, 1172333
1, 11955, Tempo, 1183899
1, 11960, Tempo, 1195695
1, 11970, Tempo, 1207729
1, 11975, Tempo, 1220008
1, 11985, Tempo, 1232539
1, 11990, Tempo, 1245330
1, 11995, Tempo, 1258389
1, 12005, Tempo, 1271725
1, 12010, Tempo, 1285347
1, 12020, Tempo, 1299264
1, 12025, Tempo, 1313485
1, 12035, Tempo, 1328021
1, 12040, Tempo, 1342883
1, 12050, Tempo, 1358081
1, 12055, Tempo, 1373626
1, 12060, Tempo, 1389532
1, 12070, Tempo, 1405811
1, 12075, Tempo, 1422475
1, 12085, Tempo, 1439539
1, 12090, Tempo, 1457018
1, 12100, Tempo, 1474926
1, 12105, Tempo, 1493280
1, 12110, Tempo, 1512097
1, 12110, End_track
2, 0, Start_track
2, 0, MIDI_port, 0
2, 0, Title_t, "FLUTE"
2, 0, Program_c, 0, 0
2, 0, Control_c, 0, 7, 100
2, 0, Control_c, 0, 10, 45
2, 0, Note_on_c, 0, 72, 64
2, 0, Control_c, 0, 7, 98
2, 30, Note_on_c, 0, 72, 0
2, 30, Note_on_c, 0, 70, 64
2, 60, Note_on_c, 0, 70, 0
2, 60, Note_on_c, 0, 68, 64
2, 80, Control_c, 0, 7, 99
2, 90, Note_on_c, 0, 68, 0
2, 90, Note_on_c, 0, 67, 64
2, 120, Note_on_c, 0, 67, 0
2, 122, Note_on_c, 0, 68, 64
2, 150, Control_c, 0, 7, 100
2, 180, Note_on_c, 0, 65, 64
2, 182, Note_on_c, 0, 68, 0
2, 240, Note_on_c, 0, 65, 0
2, 240, Note_on_c, 0, 73, 64
2, 350, Control_c, 0, 7, 100
2, 390, Note_on_c, 0, 73, 0
2, 390, Note_on_c, 0, 72, 64
2, 400, Control_c, 0, 7, 101
2, 420, Note_on_c, 0, 72, 0
2, 420, Note_on_c, 0, 70, 64
2, 450, Note_on_c, 0, 70, 0
2, 450, Note_on_c, 0, 69, 64
2, 450, Control_c, 0, 7, 102
2, 479, Note_on_c, 0, 70, 64
2, 480, Note_on_c, 0, 69, 0
2, 500, Control_c, 0, 7, 103
2, 536, Note_on_c, 0, 67, 64
2, 539, Note_on_c, 0, 70, 0
2, 550, Control_c, 0, 7, 104
2, 596, Note_on_c, 0, 67, 0
2, 600, Note_on_c, 0, 76, 64
2, 600, Control_c, 0, 7, 105
2, 650, Control_c, 0, 7, 106
2, 700, Control_c, 0, 7, 107
2, 750, Note_on_c, 0, 76, 0
2, 750, Note_on_c, 0, 77, 64
2, 750, Control_c, 0, 7, 108
2, 780, Note_on_c, 0, 77, 0
2, 780, Note_on_c, 0, 79, 64
2, 800, Control_c, 0, 7, 109
2, 810, Note_on_c, 0, 79, 0
2, 810, Note_on_c, 0, 80, 64
2, 840, Note_on_c, 0, 80, 0
2, 841, Note_on_c, 0, 82, 64
2, 850, Control_c, 0, 7, 110
2, 890, Control_c, 0, 7, 111
2, 900, Note_on_c, 0, 79, 64
2, 901, Note_on_c, 0, 82, 0
2, 930, Note_on_c, 0, 79, 0
2, 930, Note_on_c, 0, 76, 64
2, 960, Note_on_c, 0, 76, 0
2, 961, Note_on_c, 0, 73, 64
2, 1021, Note_on_c, 0, 73, 0
2, 1021, Note_on_c, 0, 72, 64
2, 1080, Note_on_c, 0, 70, 64
2, 1081, Note_on_c, 0, 72, 0
2, 1110, Note_on_c, 0, 70, 0
2, 1110, Note_on_c, 0, 68, 64
2, 1140, Note_on_c, 0, 68, 0
2, 1140, Note_on_c, 0, 67, 64
2, 1170, Note_on_c, 0, 67, 0
2, 1170, Note_on_c, 0, 68, 64
2, 1200, Note_on_c, 0, 68, 0
2, 1200, Note_on_c, 0, 70, 64
2, 1230, Note_on_c, 0, 70, 0
2, 1230, Note_on_c, 0, 73, 64
2, 1260, Note_on_c, 0, 73, 0
2, 1260, Note_on_c, 0, 72, 64
2, 1290, Note_on_c, 0, 72, 0
2, 1290, Note_on_c, 0, 70, 64
2, 1320, Note_on_c, 0, 70, 0
2, 1320, Note_on_c, 0, 68, 64
2, 1350, Note_on_c, 0, 68, 0
2, 1350, Note_on_c, 0, 67, 64
2, 1380, Note_on_c, 0, 67, 0
2, 1380, Note_on_c, 0, 65, 64
2, 1410, Note_on_c, 0, 65, 0
2, 1410, Note_on_c, 0, 64, 64
2, 1440, Note_on_c, 0, 64, 0
2, 1440, Note_on_c, 0, 68, 64
2, 1460, Control_c, 0, 7, 97
2, 1500, Note_on_c, 0, 68, 0
2, 1500, Note_on_c, 0, 77, 64
2, 1590, Note_on_c, 0, 77, 0
2, 1590, Note_on_c, 0, 79, 64
2, 1620, Note_on_c, 0, 79, 0
2, 1620, Note_on_c, 0, 80, 64
2, 1650, Note_on_c, 0, 80, 0
2, 1650, Note_on_c, 0, 79, 64
2, 1680, Note_on_c, 0, 79, 0
2, 1680, Note_on_c, 0, 77, 64
2, 1710, Note_on_c, 0, 77, 0
2, 1710, Note_on_c, 0, 75, 64
2, 1740, Note_on_c, 0, 75, 0
2, 1740, Note_on_c, 0, 73, 64
2, 1770, Note_on_c, 0, 73, 0
2, 1770, Note_on_c, 0, 72, 64
2, 1790, Control_c, 0, 7, 97
2, 1800, Note_on_c, 0, 72, 0
2, 1801, Note_on_c, 0, 70, 64
2, 1830, Control_c, 0, 7, 98
2, 1860, Note_on_c, 0, 79, 64
2, 1860, Control_c, 0, 7, 99
2, 1861, Note_on_c, 0, 70, 0
2, 1900, Control_c, 0, 7, 100
2, 1930, Control_c, 0, 7, 101
2, 1950, Note_on_c, 0, 79, 0
2, 1950, Note_on_c, 0, 80, 64
2, 1970, Control_c, 0, 7, 102
2, 1980, Note_on_c, 0, 80, 0
2, 1980, Note_on_c, 0, 82, 64
2, 2000, Control_c, 0, 7, 103
2, 2010, Note_on_c, 0, 82, 0
2, 2010, Note_on_c, 0, 80, 64
2, 2040, Note_on_c, 0, 80, 0
2, 2040, Note_on_c, 0, 79, 64
2, 2040, Control_c, 0, 7, 104
2, 2070, Note_on_c, 0, 79, 0
2, 2070, Note_on_c, 0, 77, 64
2, 2070, Control_c, 0, 7, 105
2, 2100, Note_on_c, 0, 77, 0
2, 2100, Note_on_c, 0, 76, 64
2, 2110, Control_c, 0, 7, 106
2, 2130, Note_on_c, 0, 76, 0
2, 2130, Note_on_c, 0, 74, 64
2, 2140, Control_c, 0, 7, 107
2, 2160, Note_on_c, 0, 74, 0
2, 2160, Note_on_c, 0, 72, 64
2, 2180, Control_c, 0, 7, 108
2, 2190, Note_on_c, 0, 72, 0
2, 2190, Note_on_c, 0, 74, 64
2, 2210, Control_c, 0, 7, 109
2, 2220, Note_on_c, 0, 74, 0
2, 2220, Note_on_c, 0, 76, 64
2, 2250, Note_on_c, 0, 76, 0
2, 2250, Note_on_c, 0, 77, 64
2, 2250, Control_c, 0, 7, 110
2, 2280, Note_on_c, 0, 77, 0
2, 2280, Note_on_c, 0, 79, 64
2, 2280, Control_c, 0, 7, 111
2, 2310, Note_on_c, 0, 79, 0
2, 2310, Note_on_c, 0, 80, 64
2, 2320, Control_c, 0, 7, 112
2, 2340, Note_on_c, 0, 80, 0
2, 2340, Note_on_c, 0, 82, 64
2, 2350, Control_c, 0, 7, 113
2, 2370, Note_on_c, 0, 82, 0
2, 2370, Note_on_c, 0, 79, 64
2, 2400, Note_on_c, 0, 79, 0
2, 2400, Note_on_c, 0, 77, 64
2, 2430, Note_on_c, 0, 77, 0
2, 2430, Note_on_c, 0, 76, 64
2, 2460, Note_on_c, 0, 76, 0
2, 2460, Note_on_c, 0, 77, 64
2, 2490, Note_on_c, 0, 77, 0
2, 2490, Note_on_c, 0, 76, 64
2, 2520, Note_on_c, 0, 76, 0
2, 2520, Note_on_c, 0, 77, 64
2, 2530, Control_c, 0, 7, 112
2, 2550, Control_c, 0, 7, 111
2, 2560, Control_c, 0, 7, 110
2, 2570, Control_c, 0, 7, 109
2, 2580, Note_on_c, 0, 77, 0
2, 2580, Note_on_c, 0, 72, 64
2, 2580, Control_c, 0, 7, 108
2, 2590, Control_c, 0, 7, 107
2, 2600, Control_c, 0, 7, 106
2, 2620, Control_c, 0, 7, 105
2, 2630, Control_c, 0, 7, 104
2, 2640, Control_c, 0, 7, 103
2, 2650, Control_c, 0, 7, 102
2, 2660, Control_c, 0, 7, 101
2, 2670, Note_on_c, 0, 72, 0
2, 2670, Note_on_c, 0, 70, 64
2, 2670, Control_c, 0, 7, 100
2, 2690, Control_c, 0, 7, 99
2, 2700, Note_on_c, 0, 70, 0
2, 2700, Note_on_c, 0, 68, 64
2, 2700, Control_c, 0, 7, 98
2, 2710, Control_c, 0, 7, 97
2, 2720, Control_c, 0, 7, 96
2, 2730, Note_on_c, 0, 68, 0
2, 2730, Note_on_c, 0, 67, 64
2, 2730, Control_c, 0, 7, 95
2, 2740, Control_c, 0, 7, 94
2, 2750, Control_c, 0, 7, 93
2, 2760, Note_on_c, 0, 67, 0
2, 2760, Note_on_c, 0, 65, 64
2, 2770, Control_c, 0, 7, 92
2, 2780, Control_c, 0, 7, 91
2, 2790, Note_on_c, 0, 65, 0
2, 2790, Note_on_c, 0, 64, 64
2, 2790, Control_c, 0, 7, 90
2, 2800, Control_c, 0, 7, 89
2, 2810, Control_c, 0, 7, 88
2, 2820, Note_on_c, 0, 64, 0
2, 2820, Note_on_c, 0, 68, 64
2, 2820, Control_c, 0, 7, 87
2, 2840, Control_c, 0, 7, 86
2, 2850, Note_on_c, 0, 68, 0
2, 2850, Note_on_c, 0, 67, 64
2, 2850, Control_c, 0, 7, 85
2, 2860, Control_c, 0, 7, 84
2, 2870, Control_c, 0, 7, 83
2, 2880, Note_on_c, 0, 67, 0
2, 2880, Note_on_c, 0, 72, 64
2, 2880, Control_c, 0, 7, 82
2, 2890, Control_c, 0, 7, 81
2, 2900, Control_c, 0, 7, 80
2, 2910, Note_on_c, 0, 72, 0
2, 2910, Note_on_c, 0, 70, 64
2, 2940, Note_on_c, 0, 70, 0
2, 2940, Note_on_c, 0, 68, 64
2, 2970, Note_on_c, 0, 68, 0
2, 2970, Note_on_c, 0, 67, 64
2, 2995, Note_on_c, 0, 68, 64
2, 3000, Note_on_c, 0, 67, 0
2, 3055, Note_on_c, 0, 68, 0
2, 3057, Note_on_c, 0, 65, 64
2, 3090, Control_c, 0, 7, 79
2, 3117, Note_on_c, 0, 65, 0
2, 3120, Note_on_c, 0, 80, 64
2, 3150, Control_c, 0, 7, 80
2, 3200, Control_c, 0, 7, 81
2, 3250, Control_c, 0, 7, 82
2, 3270, Note_on_c, 0, 80, 0
2, 3270, Note_on_c, 0, 79, 64
2, 3300, Note_on_c, 0, 79, 0
2, 3300, Note_on_c, 0, 77, 64
2, 3310, Control_c, 0, 7, 83
2, 3330, Note_on_c, 0, 77, 0
2, 3330, Note_on_c, 0, 76, 64
2, 3356, Note_on_c, 0, 77, 64
2, 3360, Note_on_c, 0, 76, 0
2, 3360, Control_c, 0, 7, 84
2, 3410, Control_c, 0, 7, 85
2, 3416, Note_on_c, 0, 77, 0
2, 3420, Note_on_c, 0, 74, 64
2, 3470, Control_c, 0, 7, 86
2, 3480, Note_on_c, 0, 74, 0
2, 3480, Note_on_c, 0, 71, 64
2, 3520, Control_c, 0, 7, 87
2, 3570, Control_c, 0, 7, 88
2, 3630, Note_on_c, 0, 71, 0
2, 3630, Note_on_c, 0, 72, 64
2, 3630, Control_c, 0, 7, 89
2, 3660, Note_on_c, 0, 72, 0
2, 3660, Note_on_c, 0, 74, 64
2, 3680, Control_c, 0, 7, 90
2, 3690, Note_on_c, 0, 74, 0
2, 3690, Note_on_c, 0, 75, 64
2, 3718, Note_on_c, 0, 77, 64
2, 3720, Note_on_c, 0, 75, 0
2, 3730, Control_c, 0, 7, 91
2, 3778, Note_on_c, 0, 77, 0
2, 3780, Note_on_c, 0, 74, 64
2, 3790, Control_c, 0, 7, 92
2, 3810, Note_on_c, 0, 74, 0
2, 3810, Note_on_c, 0, 71, 64
2, 3838, Note_on_c, 0, 68, 64
2, 3840, Note_on_c, 0, 71, 0
2, 3840, Control_c, 0, 7, 93
2, 3890, Control_c, 0, 7, 94
2, 3898, Note_on_c, 0, 68, 0
2, 3900, Note_on_c, 0, 67, 64
2, 3950, Control_c, 0, 7, 95
2, 3990, Note_on_c, 0, 67, 0
2, 3990, Note_on_c, 0, 65, 64
2, 4000, Control_c, 0, 7, 96
2, 4020, Note_on_c, 0, 65, 0
2, 4020, Note_on_c, 0, 63, 64
2, 4050, Note_on_c, 0, 63, 0
2, 4050, Note_on_c, 0, 62, 64
2, 4050, Control_c, 0, 7, 97
2, 4078, Note_on_c, 0, 63, 64
2, 4080, Note_on_c, 0, 62, 0
2, 4110, Control_c, 0, 7, 98
2, 4138, Note_on_c, 0, 63, 0
2, 4139, Note_on_c, 0, 60, 64
2, 4160, Control_c, 0, 7, 99
2, 4199, Note_on_c, 0, 60, 0
2, 4200, Note_on_c, 0, 75, 64
2, 4210, Control_c, 0, 7, 100
2, 4270, Control_c, 0, 7, 101
2, 4320, Control_c, 0, 7, 102
2, 4350, Note_on_c, 0, 75, 0
2, 4350, Note_on_c, 0, 74, 64
2, 4370, Control_c, 0, 7, 103
2, 4380, Note_on_c, 0, 74, 0
2, 4380, Note_on_c, 0, 72, 64
2, 4410, Note_on_c, 0, 72, 0
2, 4410, Note_on_c, 0, 71, 64
2, 4430, Control_c, 0, 7, 104
2, 4436, Note_on_c, 0, 72, 64
2, 4440, Note_on_c, 0, 71, 0
2, 4480, Control_c, 0, 7, 105
2, 4496, Note_on_c, 0, 72, 0
2, 4496, Note_on_c, 0, 69, 64
2, 4530, Control_c, 0, 7, 106
2, 4556, Note_on_c, 0, 69, 0
2, 4560, Note_on_c, 0, 78, 64
2, 4590, Control_c, 0, 7, 107
2, 4640, Control_c, 0, 7, 108
2, 4690, Control_c, 0, 7, 109
2, 4710, Note_on_c, 0, 78, 0
2, 4710, Note_on_c, 0, 79, 64
2, 4740, Note_on_c, 0, 79, 0
2, 4740, Note_on_c, 0, 81, 64
2, 4750, Control_c, 0, 7, 110
2, 4770, Note_on_c, 0, 81, 0
2, 4770, Note_on_c, 0, 82, 64
2, 4796, Note_on_c, 0, 84, 64
2, 4800, Note_on_c, 0, 82, 0
2, 4800, Control_c, 0, 7, 111
2, 4850, Control_c, 0, 7, 112
2, 4856, Note_on_c, 0, 84, 0
2, 4860, Note_on_c, 0, 81, 64
2, 4890, Note_on_c, 0, 81, 0
2, 4890, Note_on_c, 0, 78, 64
2, 4916, Note_on_c, 0, 75, 64
2, 4920, Note_on_c, 0, 78, 0
2, 4976, Note_on_c, 0, 75, 0
2, 4980, Note_on_c, 0, 74, 64
2, 5040, Note_on_c, 0, 74, 0
2, 5040, Note_on_c, 0, 71, 64
2, 5040, Control_c, 0, 7, 111
2, 5055, Note_on_c, 0, 71, 0
2, 5055, Note_on_c, 0, 72, 64
2, 5070, Note_on_c, 0, 72, 0
2, 5070, Note_on_c, 0, 71, 64
2, 5070, Control_c, 0, 7, 110
2, 5100, Control_c, 0, 7, 109
2, 5130, Control_c, 0, 7, 108
2, 5160, Control_c, 0, 7, 107
2, 5190, Control_c, 0, 7, 106
2, 5220, Note_on_c, 0, 71, 0
2, 5220, Note_on_c, 0, 71, 64
2, 5220, Control_c, 0, 7, 105
2, 5250, Control_c, 0, 7, 104
2, 5280, Note_on_c, 0, 71, 0
2, 5280, Note_on_c, 0, 72, 64
2, 5280, Control_c, 0, 7, 103
2, 5295, Note_on_c, 0, 72, 0
2, 5295, Note_on_c, 0, 71, 64
2, 5310, Note_on_c, 0, 71, 0
2, 5310, Note_on_c, 0, 72, 64
2, 5310, Control_c, 0, 7, 102
2, 5340, Control_c, 0, 7, 101
2, 5360, Control_c, 0, 7, 100
2, 5390, Control_c, 0, 7, 99
2, 5420, Control_c, 0, 7, 98
2, 5430, Note_on_c, 0, 72, 0
2, 5430, Note_on_c, 0, 73, 64
2, 5445, Note_on_c, 0, 73, 0
2, 5445, Note_on_c, 0, 72, 64
2, 5450, Control_c, 0, 7, 97
2, 5460, Note_on_c, 0, 72, 0
2, 5460, Note_on_c, 0, 70, 64
2, 5475, Note_on_c, 0, 70, 0
2, 5475, Note_on_c, 0, 72, 64
2, 5480, Control_c, 0, 7, 96
2, 5490, Note_on_c, 0, 72, 0
2, 5490, Note_on_c, 0, 74, 64
2, 5510, Control_c, 0, 7, 95
2, 5519, Note_on_c, 0, 75, 64
2, 5520, Note_on_c, 0, 74, 0
2, 5534, Note_on_c, 0, 75, 0
2, 5535, Note_on_c, 0, 73, 64
2, 5540, Control_c, 0, 7, 94
2, 5549, Note_on_c, 0, 75, 64
2, 5550, Note_on_c, 0, 73, 0
2, 5564, Note_on_c, 0, 75, 0
2, 5566, Note_on_c, 0, 73, 64
2, 5570, Control_c, 0, 7, 93
2, 5580, Note_on_c, 0, 75, 64
2, 5581, Note_on_c, 0, 73, 0
2, 5595, Note_on_c, 0, 75, 0
2, 5595, Note_on_c, 0, 73, 64
2, 5600, Control_c, 0, 7, 92
2, 5609, Note_on_c, 0, 75, 64
2, 5610, Note_on_c, 0, 73, 0
2, 5624, Note_on_c, 0, 75, 0
2, 5625, Note_on_c, 0, 73, 64
2, 5630, Control_c, 0, 7, 91
2, 5639, Note_on_c, 0, 75, 64
2, 5640, Note_on_c, 0, 73, 0
2, 5650, Control_c, 0, 7, 90
2, 5654, Note_on_c, 0, 75, 0
2, 5655, Note_on_c, 0, 73, 64
2, 5669, Note_on_c, 0, 75, 64
2, 5670, Note_on_c, 0, 73, 0
2, 5680, Control_c, 0, 7, 89
2, 5684, Note_on_c, 0, 75, 0
2, 5686, Note_on_c, 0, 73, 64
2, 5701, Note_on_c, 0, 73, 0
2, 5702, Note_on_c, 0, 72, 64
2, 5710, Control_c, 0, 7, 88
2, 5740, Control_c, 0, 7, 87
2, 5760, Note_on_c, 0, 72, 90
2, 5762, Note_on_c, 0, 72, 0
2, 5770, Control_c, 0, 7, 86
2, 5800, Control_c, 0, 7, 85
2, 5830, Control_c, 0, 7, 84
2, 5860, Control_c, 0, 7, 83
2, 5890, Control_c, 0, 7, 82
2, 5910, Note_on_c, 0, 72, 0
2, 5910, Note_on_c, 0, 74, 64
2, 5920, Control_c, 0, 7, 81
2, 5940, Note_on_c, 0, 74, 0
2, 5940, Note_on_c, 0, 75, 64
2, 5940, Control_c, 0, 7, 80
2, 5950, Control_c, 0, 7, 80
2, 5970, Note_on_c, 0, 75, 0
2, 5970, Note_on_c, 0, 74, 64
2, 5980, Control_c, 0, 7, 81
2, 6000, Note_on_c, 0, 74, 0
2, 6000, Note_on_c, 0, 72, 64
2, 6010, Control_c, 0, 7, 82
2, 6030, Note_on_c, 0, 72, 0
2, 6030, Note_on_c, 0, 70, 64
2, 6040, Control_c, 0, 7, 83
2, 6060, Note_on_c, 0, 70, 0
2, 6060, Note_on_c, 0, 68, 64
2, 6060, Control_c, 0, 7, 84
2, 6090, Note_on_c, 0, 68, 0
2, 6090, Note_on_c, 0, 67, 64
2, 6090, Control_c, 0, 7, 85
2, 6120, Note_on_c, 0, 67, 0
2, 6120, Note_on_c, 0, 65, 64
2, 6120, Control_c, 0, 7, 86
2, 6150, Control_c, 0, 7, 87
2, 6170, Control_c, 0, 7, 88
2, 6180, Note_on_c, 0, 65, 0
2, 6180, Note_on_c, 0, 74, 64
2, 6200, Control_c, 0, 7, 89
2, 6230, Control_c, 0, 7, 90
2, 6260, Control_c, 0, 7, 91
2, 6270, Note_on_c, 0, 74, 0
2, 6270, Note_on_c, 0, 75, 64
2, 6280, Control_c, 0, 7, 92
2, 6300, Note_on_c, 0, 75, 0
2, 6300, Note_on_c, 0, 77, 64
2, 6310, Control_c, 0, 7, 93
2, 6330, Note_on_c, 0, 77, 0
2, 6330, Note_on_c, 0, 75, 64
2, 6340, Control_c, 0, 7, 94
2, 6360, Note_on_c, 0, 75, 0
2, 6360, Note_on_c, 0, 74, 64
2, 6360, Control_c, 0, 7, 95
2, 6390, Note_on_c, 0, 74, 0
2, 6390, Note_on_c, 0, 72, 64
2, 6390, Control_c, 0, 7, 96
2, 6420, Note_on_c, 0, 72, 0
2, 6420, Note_on_c, 0, 71, 64
2, 6420, Control_c, 0, 7, 97
2, 6450, Note_on_c, 0, 71, 0
2, 6450, Note_on_c, 0, 69, 64
2, 6450, Control_c, 0, 7, 98
2, 6470, Control_c, 0, 7, 99
2, 6480, Note_on_c, 0, 69, 0
2, 6480, Note_on_c, 0, 67, 64
2, 6500, Control_c, 0, 7, 100
2, 6510, Note_on_c, 0, 67, 0
2, 6510, Note_on_c, 0, 69, 64
2, 6530, Control_c, 0, 7, 101
2, 6540, Note_on_c, 0, 69, 0
2, 6540, Note_on_c, 0, 71, 64
2, 6560, Control_c, 0, 7, 102
2, 6570, Note_on_c, 0, 71, 0
2, 6570, Note_on_c, 0, 72, 64
2, 6580, Control_c, 0, 7, 103
2, 6600, Note_on_c, 0, 72, 0
2, 6600, Note_on_c, 0, 74, 64
2, 6610, Control_c, 0, 7, 104
2, 6630, Note_on_c, 0, 74, 0
2, 6630, Note_on_c, 0, 75, 64
2, 6640, Control_c, 0, 7, 105
2, 6660, Note_on_c, 0, 75, 0
2, 6660, Note_on_c, 0, 77, 64
2, 6660, Control_c, 0, 7, 106
2, 6690, Note_on_c, 0, 77, 0
2, 6690, Note_on_c, 0, 74, 64
2, 6720, Note_on_c, 0, 74, 0
2, 6720, Note_on_c, 0, 72, 64
2, 6750, Note_on_c, 0, 72, 0
2, 6750, Note_on_c, 0, 71, 64
2, 6780, Note_on_c, 0, 71, 0
2, 6780, Note_on_c, 0, 72, 64
2, 6810, Note_on_c, 0, 72, 0
2, 6810, Note_on_c, 0, 71, 64
2, 6830, Control_c, 0, 7, 105
2, 6840, Note_on_c, 0, 71, 0
2, 6840, Note_on_c, 0, 79, 64
2, 6890, Control_c, 0, 7, 104
2, 6940, Control_c, 0, 7, 103
2, 6990, Note_on_c, 0, 79, 0
2, 6990, Note_on_c, 0, 77, 64
2, 6990, Control_c, 0, 7, 102
2, 7020, Note_on_c, 0, 77, 0
2, 7020, Note_on_c, 0, 75, 64
2, 7040, Control_c, 0, 7, 101
2, 7050, Note_on_c, 0, 75, 0
2, 7050, Note_on_c, 0, 74, 64
2, 7080, Note_on_c, 0, 74, 0
2, 7080, Note_on_c, 0, 72, 64
2, 7090, Control_c, 0, 7, 100
2, 7140, Control_c, 0, 7, 99
2, 7190, Control_c, 0, 7, 98
2, 7230, Note_on_c, 0, 72, 0
2, 7230, Note_on_c, 0, 70, 64
2, 7240, Control_c, 0, 7, 97
2, 7260, Note_on_c, 0, 70, 0
2, 7260, Note_on_c, 0, 69, 64
2, 7290, Note_on_c, 0, 69, 0
2, 7290, Note_on_c, 0, 67, 64
2, 7290, Control_c, 0, 7, 96
2, 7320, Note_on_c, 0, 67, 0
2, 7320, Note_on_c, 0, 69, 64
2, 7340, Control_c, 0, 7, 95
2, 7380, Note_on_c, 0, 69, 0
2, 7380, Note_on_c, 0, 65, 64
2, 7390, Control_c, 0, 7, 94
2, 7400, Control_c, 0, 7, 95
2, 7440, Note_on_c, 0, 65, 0
2, 7440, Note_on_c, 0, 75, 64
2, 7440, Control_c, 0, 7, 96
2, 7480, Control_c, 0, 7, 97
2, 7510, Control_c, 0, 7, 98
2, 7550, Control_c, 0, 7, 99
2, 7580, Control_c, 0, 7, 100
2, 7590, Note_on_c, 0, 75, 0
2, 7590, Note_on_c, 0, 73, 64
2, 7620, Note_on_c, 0, 73, 0
2, 7620, Note_on_c, 0, 72, 64
2, 7620, Control_c, 0, 7, 101
2, 7650, Note_on_c, 0, 72, 0
2, 7650, Note_on_c, 0, 73, 64
2, 7650, Control_c, 0, 7, 102
2, 7680, Note_on_c, 0, 73, 0
2, 7680, Note_on_c, 0, 75, 64
2, 7690, Control_c, 0, 7, 103
2, 7710, Note_on_c, 0, 75, 0
2, 7710, Note_on_c, 0, 78, 64
2, 7720, Control_c, 0, 7, 104
2, 7740, Note_on_c, 0, 78, 0
2, 7740, Note_on_c, 0, 77, 64
2, 7760, Control_c, 0, 7, 105
2, 7770, Note_on_c, 0, 77, 0
2, 7770, Note_on_c, 0, 75, 64
2, 7790, Control_c, 0, 7, 106
2, 7800, Note_on_c, 0, 75, 0
2, 7800, Note_on_c, 0, 73, 64
2, 7830, Note_on_c, 0, 73, 0
2, 7830, Note_on_c, 0, 72, 64
2, 7830, Control_c, 0, 7, 107
2, 7860, Note_on_c, 0, 72, 0
2, 7860, Note_on_c, 0, 70, 64
2, 7860, Control_c, 0, 7, 108
2, 7890, Note_on_c, 0, 70, 0
2, 7890, Note_on_c, 0, 68, 64
2, 7900, Control_c, 0, 7, 109
2, 7920, Note_on_c, 0, 68, 0
2, 7920, Note_on_c, 0, 67, 64
2, 7930, Control_c, 0, 7, 110
2, 7980, Note_on_c, 0, 67, 0
2, 7980, Note_on_c, 0, 82, 64
2, 8070, Note_on_c, 0, 82, 0
2, 8070, Note_on_c, 0, 80, 64
2, 8100, Note_on_c, 0, 80, 0
2, 8100, Note_on_c, 0, 79, 64
2, 8130, Note_on_c, 0, 79, 0
2, 8130, Note_on_c, 0, 77, 64
2, 8160, Note_on_c, 0, 77, 0
2, 8160, Note_on_c, 0, 75, 64
2, 8190, Note_on_c, 0, 75, 0
2, 8190, Note_on_c, 0, 73, 64
2, 8220, Note_on_c, 0, 73, 0
2, 8220, Note_on_c, 0, 72, 64
2, 8250, Note_on_c, 0, 72, 0
2, 8250, Note_on_c, 0, 70, 64
2, 8280, Note_on_c, 0, 70, 0
2, 8280, Note_on_c, 0, 68, 64
2, 8340, Note_on_c, 0, 68, 0
2, 8340, Note_on_c, 0, 72, 64
2, 8400, Note_on_c, 0, 72, 0
2, 8400, Note_on_c, 0, 75, 64
2, 8460, Note_on_c, 0, 75, 0
2, 8460, Note_on_c, 0, 79, 64
2, 8520, Note_on_c, 0, 79, 0
2, 8520, Note_on_c, 0, 80, 64
2, 8670, Note_on_c, 0, 80, 0
2, 8670, Note_on_c, 0, 79, 64
2, 8700, Note_on_c, 0, 79, 0
2, 8700, Note_on_c, 0, 77, 64
2, 8730, Note_on_c, 0, 77, 0
2, 8730, Note_on_c, 0, 75, 64
2, 8760, Note_on_c, 0, 75, 0
2, 8760, Note_on_c, 0, 73, 64
2, 8790, Note_on_c, 0, 73, 0
2, 8790, Note_on_c, 0, 70, 64
2, 8820, Note_on_c, 0, 70, 0
2, 8820, Note_on_c, 0, 80, 64
2, 8880, Note_on_c, 0, 80, 0
2, 8880, Note_on_c, 0, 79, 64
2, 9010, Control_c, 0, 7, 108
2, 9030, Note_on_c, 0, 79, 0
2, 9030, Note_on_c, 0, 77, 64
2, 9040, Control_c, 0, 7, 107
2, 9060, Note_on_c, 0, 77, 0
2, 9060, Note_on_c, 0, 75, 64
2, 9060, Control_c, 0, 7, 106
2, 9090, Note_on_c, 0, 75, 0
2, 9090, Note_on_c, 0, 73, 64
2, 9090, Control_c, 0, 7, 105
2, 9110, Control_c, 0, 7, 104
2, 9120, Note_on_c, 0, 73, 0
2, 9120, Note_on_c, 0, 72, 64
2, 9140, Control_c, 0, 7, 103
2, 9150, Note_on_c, 0, 72, 0
2, 9150, Note_on_c, 0, 68, 64
2, 9160, Control_c, 0, 7, 102
2, 9180, Note_on_c, 0, 68, 0
2, 9180, Note_on_c, 0, 78, 64
2, 9180, Control_c, 0, 7, 101
2, 9210, Control_c, 0, 7, 100
2, 9230, Control_c, 0, 7, 99
2, 9240, Note_on_c, 0, 78, 0
2, 9240, Note_on_c, 0, 77, 64
2, 9260, Control_c, 0, 7, 98
2, 9280, Control_c, 0, 7, 97
2, 9300, Control_c, 0, 7, 96
2, 9330, Control_c, 0, 7, 95
2, 9350, Control_c, 0, 7, 94
2, 9380, Control_c, 0, 7, 93
2, 9390, Note_on_c, 0, 77, 0
2, 9390, Note_on_c, 0, 75, 64
2, 9400, Control_c, 0, 7, 92
2, 9420, Note_on_c, 0, 75, 0
2, 9420, Note_on_c, 0, 73, 64
2, 9420, Control_c, 0, 7, 91
2, 9450, Note_on_c, 0, 73, 0
2, 9450, Note_on_c, 0, 72, 64
2, 9450, Control_c, 0, 7, 90
2, 9470, Control_c, 0, 7, 89
2, 9480, Note_on_c, 0, 72, 0
2, 9480, Note_on_c, 0, 70, 64
2, 9500, Control_c, 0, 7, 88
2, 9510, Note_on_c, 0, 70, 0
2, 9510, Note_on_c, 0, 68, 64
2, 9520, Control_c, 0, 7, 87
2, 9540, Note_on_c, 0, 68, 0
2, 9540, Note_on_c, 0, 67, 64
2, 9550, Control_c, 0, 7, 86
2, 9570, Note_on_c, 0, 67, 0
2, 9570, Note_on_c, 0, 68, 64
2, 9570, Control_c, 0, 7, 85
2, 9590, Control_c, 0, 7, 84
2, 9600, Note_on_c, 0, 68, 0
2, 9600, Note_on_c, 0, 70, 64
2, 9620, Control_c, 0, 7, 83
2, 9640, Control_c, 0, 7, 82
2, 9670, Control_c, 0, 7, 81
2, 9690, Control_c, 0, 7, 80
2, 9710, Control_c, 0, 7, 79
2, 9740, Control_c, 0, 7, 78
2, 9750, Note_on_c, 0, 70, 0
2, 9750, Note_on_c, 0, 68, 64
2, 9760, Control_c, 0, 7, 77
2, 9780, Note_on_c, 0, 68, 0
2, 9780, Note_on_c, 0, 67, 64
2, 9790, Control_c, 0, 7, 76
2, 9810, Note_on_c, 0, 67, 0
2, 9810, Note_on_c, 0, 65, 64
2, 9810, Control_c, 0, 7, 75
2, 9830, Control_c, 0, 7, 74
2, 9840, Note_on_c, 0, 65, 0
2, 9840, Note_on_c, 0, 64, 64
2, 9870, Note_on_c, 0, 64, 0
2, 9870, Note_on_c, 0, 65, 64
2, 9870, Control_c, 0, 7, 78
2, 9890, Control_c, 0, 7, 79
2, 9900, Note_on_c, 0, 65, 0
2, 9900, Note_on_c, 0, 67, 64
2, 9900, Control_c, 0, 7, 80
2, 9920, Control_c, 0, 7, 81
2, 9930, Note_on_c, 0, 67, 0
2, 9930, Note_on_c, 0, 68, 64
2, 9930, Control_c, 0, 7, 82
2, 9940, Control_c, 0, 7, 83
2, 9960, Note_on_c, 0, 68, 0
2, 9960, Note_on_c, 0, 70, 64
2, 9960, Control_c, 0, 7, 84
2, 9970, Control_c, 0, 7, 85
2, 9990, Note_on_c, 0, 70, 0
2, 9990, Note_on_c, 0, 72, 64
2, 9990, Control_c, 0, 7, 86
2, 10000, Control_c, 0, 7, 87
2, 10010, Control_c, 0, 7, 88
2, 10020, Note_on_c, 0, 72, 0
2, 10020, Note_on_c, 0, 73, 64
2, 10030, Control_c, 0, 7, 89
2, 10040, Control_c, 0, 7, 90
2, 10050, Note_on_c, 0, 73, 0
2, 10050, Note_on_c, 0, 70, 64
2, 10060, Control_c, 0, 7, 91
2, 10070, Control_c, 0, 7, 92
2, 10080, Note_on_c, 0, 70, 0
2, 10080, Note_on_c, 0, 72, 64
2, 10080, Control_c, 0, 7, 93
2, 10100, Control_c, 0, 7, 94
2, 10110, Note_on_c, 0, 72, 0
2, 10110, Note_on_c, 0, 70, 64
2, 10110, Control_c, 0, 7, 95
2, 10120, Control_c, 0, 7, 96
2, 10140, Note_on_c, 0, 70, 0
2, 10140, Note_on_c, 0, 68, 64
2, 10170, Note_on_c, 0, 68, 0
2, 10170, Note_on_c, 0, 67, 64
2, 10200, Note_on_c, 0, 67, 0
2, 10200, Note_on_c, 0, 68, 64
2, 10260, Note_on_c, 0, 68, 0
2, 10260, Note_on_c, 0, 65, 64
2, 10320, Note_on_c, 0, 65, 0
2, 10320, Note_on_c, 0, 73, 64
2, 10450, Control_c, 0, 7, 96
2, 10470, Note_on_c, 0, 73, 0
2, 10470, Note_on_c, 0, 72, 64
2, 10490, Control_c, 0, 7, 97
2, 10500, Note_on_c, 0, 72, 0
2, 10500, Note_on_c, 0, 70, 64
2, 10530, Note_on_c, 0, 70, 0
2, 10530, Note_on_c, 0, 69, 64
2, 10530, Control_c, 0, 7, 98
2, 10560, Note_on_c, 0, 69, 0
2, 10560, Note_on_c, 0, 70, 64
2, 10570, Control_c, 0, 7, 99
2, 10610, Control_c, 0, 7, 100
2, 10620, Note_on_c, 0, 70, 0
2, 10620, Note_on_c, 0, 67, 64
2, 10640, Control_c, 0, 7, 101
2, 10680, Note_on_c, 0, 67, 0
2, 10680, Note_on_c, 0, 76, 64
2, 10680, Control_c, 0, 7, 102
2, 10720, Control_c, 0, 7, 103
2, 10760, Control_c, 0, 7, 104
2, 10790, Control_c, 0, 7, 105
2, 10830, Note_on_c, 0, 76, 0
2, 10830, Note_on_c, 0, 77, 64
2, 10830, Control_c, 0, 7, 106
2, 10860, Note_on_c, 0, 77, 0
2, 10860, Note_on_c, 0, 79, 64
2, 10870, Control_c, 0, 7, 107
2, 10890, Note_on_c, 0, 79, 0
2, 10890, Note_on_c, 0, 80, 64
2, 10910, Control_c, 0, 7, 108
2, 10920, Note_on_c, 0, 80, 0
2, 10920, Note_on_c, 0, 82, 64
2, 10940, Control_c, 0, 7, 109
2, 10980, Note_on_c, 0, 82, 0
2, 10980, Note_on_c, 0, 79, 64
2, 11010, Note_on_c, 0, 79, 0
2, 11010, Note_on_c, 0, 76, 64
2, 11040, Note_on_c, 0, 76, 0
2, 11040, Note_on_c, 0, 73, 64
2, 11100, Note_on_c, 0, 73, 0
2, 11100, Note_on_c, 0, 72, 64
2, 11150, Control_c, 0, 7, 108
2, 11160, Note_on_c, 0, 72, 0
2, 11160, Note_on_c, 0, 70, 64
2, 11170, Control_c, 0, 7, 107
2, 11190, Note_on_c, 0, 70, 0
2, 11190, Note_on_c, 0, 68, 64
2, 11190, Control_c, 0, 7, 106
2, 11210, Control_c, 0, 7, 105
2, 11220, Note_on_c, 0, 68, 0
2, 11220, Note_on_c, 0, 67, 64
2, 11230, Control_c, 0, 7, 104
2, 11240, Control_c, 0, 7, 103
2, 11250, Note_on_c, 0, 67, 0
2, 11250, Note_on_c, 0, 68, 64
2, 11260, Control_c, 0, 7, 102
2, 11280, Note_on_c, 0, 68, 0
2, 11280, Note_on_c, 0, 70, 64
2, 11280, Control_c, 0, 7, 101
2, 11300, Control_c, 0, 7, 100
2, 11310, Note_on_c, 0, 70, 0
2, 11310, Note_on_c, 0, 73, 64
2, 11310, Control_c, 0, 7, 99
2, 11330, Control_c, 0, 7, 98
2, 11340, Note_on_c, 0, 73, 0
2, 11340, Note_on_c, 0, 72, 64
2, 11350, Control_c, 0, 7, 97
2, 11370, Note_on_c, 0, 72, 0
2, 11370, Note_on_c, 0, 70, 64
2, 11370, Control_c, 0, 7, 96
2, 11380, Control_c, 0, 7, 95
2, 11400, Note_on_c, 0, 70, 0
2, 11400, Note_on_c, 0, 68, 64
2, 11400, Control_c, 0, 7, 94
2, 11420, Control_c, 0, 7, 93
2, 11430, Note_on_c, 0, 68, 0
2, 11430, Note_on_c, 0, 67, 64
2, 11440, Control_c, 0, 7, 92
2, 11450, Control_c, 0, 7, 91
2, 11460, Note_on_c, 0, 67, 0
2, 11460, Note_on_c, 0, 65, 64
2, 11470, Control_c, 0, 7, 90
2, 11490, Note_on_c, 0, 65, 0
2, 11490, Note_on_c, 0, 64, 64
2, 11490, Control_c, 0, 7, 89
2, 11510, Control_c, 0, 7, 88
2, 11520, Note_on_c, 0, 64, 0
2, 11520, Note_on_c, 0, 72, 64
2, 11520, Control_c, 0, 7, 87
2, 11535, Note_on_c, 0, 72, 0
2, 11535, Note_on_c, 0, 70, 64
2, 11540, Control_c, 0, 7, 86
2, 11550, Note_on_c, 0, 70, 0
2, 11550, Note_on_c, 0, 72, 64
2, 11560, Control_c, 0, 7, 85
2, 11580, Control_c, 0, 7, 84
2, 11590, Control_c, 0, 7, 83
2, 11610, Note_on_c, 0, 72, 0
2, 11610, Note_on_c, 0, 73, 64
2, 11610, Control_c, 0, 7, 82
2, 11630, Control_c, 0, 7, 81
2, 11640, Note_on_c, 0, 73, 0
2, 11640, Note_on_c, 0, 67, 64
2, 11650, Control_c, 0, 7, 80
2, 11655, Note_on_c, 0, 67, 0
2, 11655, Note_on_c, 0, 68, 64
2, 11660, Control_c, 0, 7, 79
2, 11670, Note_on_c, 0, 68, 0
2, 11670, Note_on_c, 0, 67, 64
2, 11680, Control_c, 0, 7, 78
2, 11685, Note_on_c, 0, 67, 0
2, 11685, Note_on_c, 0, 68, 64
2, 11700, Note_on_c, 0, 68, 0
2, 11700, Note_on_c, 0, 67, 64
2, 11700, Control_c, 0, 7, 77
2, 11715, Note_on_c, 0, 67, 0
2, 11715, Note_on_c, 0, 68, 64
2, 11720, Control_c, 0, 7, 76
2, 11730, Note_on_c, 0, 68, 0
2, 11730, Note_on_c, 0, 67, 64
2, 11730, Control_c, 0, 7, 75
2, 11745, Note_on_c, 0, 67, 0
2, 11745, Note_on_c, 0, 68, 64
2, 11750, Control_c, 0, 7, 74
2, 11760, Note_on_c, 0, 68, 0
2, 11760, Note_on_c, 0, 67, 64
2, 11770, Control_c, 0, 7, 73
2, 11775, Note_on_c, 0, 67, 0
2, 11775, Note_on_c, 0, 68, 64
2, 11790, Note_on_c, 0, 68, 0
2, 11790, Note_on_c, 0, 67, 64
2, 11790, Control_c, 0, 7, 72
2, 11800, Control_c, 0, 7, 71
2, 11805, Note_on_c, 0, 67, 0
2, 11805, Note_on_c, 0, 68, 64
2, 11820, Note_on_c, 0, 68, 0
2, 11820, Note_on_c, 0, 67, 64
2, 11820, Control_c, 0, 7, 70
2, 11835, Note_on_c, 0, 67, 0
2, 11835, Note_on_c, 0, 68, 64
2, 11840, Control_c, 0, 7, 69
2, 11850, Note_on_c, 0, 68, 0
2, 11850, Note_on_c, 0, 65, 64
2, 11860, Control_c, 0, 7, 68
2, 11870, Control_c, 0, 7, 67
2, 11880, Note_on_c, 0, 65, 0
2, 11880, Note_on_c, 0, 65, 64
2, 12240, Note_on_c, 0, 65, 0
2, 12240, End_track
3, 0, Start_track
3, 0, MIDI_port, 0
3, 0, Title_t, "OBOE"
3, 0, Program_c, 1, 0
3, 0, Control_c, 1, 7, 100
3, 0, Control_c, 1, 10, 58
3, 60, Note_on_c, 1, 60, 64
3, 90, Note_on_c, 1, 60, 0
3, 90, Note_on_c, 1, 58, 64
3, 120, Note_on_c, 1, 58, 0
3, 120, Note_on_c, 1, 56, 64
3, 150, Note_on_c, 1, 56, 0
3, 150, Note_on_c, 1, 58, 64
3, 180, Note_on_c, 1, 58, 0
3, 180, Note_on_c, 1, 60, 64
3, 210, Note_on_c, 1, 60, 0
3, 210, Note_on_c, 1, 58, 64
3, 240, Note_on_c, 1, 58, 0
3, 240, Note_on_c, 1, 56, 64
3, 300, Note_on_c, 1, 56, 0
3, 300, Note_on_c, 1, 53, 64
3, 360, Note_on_c, 1, 53, 0
3, 360, Note_on_c, 1, 61, 64
3, 450, Note_on_c, 1, 61, 0
3, 450, Note_on_c, 1, 60, 64
3, 480, Note_on_c, 1, 60, 0
3, 480, Note_on_c, 1, 58, 64
3, 510, Note_on_c, 1, 58, 0
3, 510, Note_on_c, 1, 60, 64
3, 540, Note_on_c, 1, 60, 0
3, 540, Note_on_c, 1, 61, 64
3, 570, Note_on_c, 1, 61, 0
3, 570, Note_on_c, 1, 60, 64
3, 600, Note_on_c, 1, 60, 0
3, 600, Note_on_c, 1, 58, 64
3, 660, Note_on_c, 1, 58, 0
3, 660, Note_on_c, 1, 55, 64
3, 720, Note_on_c, 1, 55, 0
3, 720, Note_on_c, 1, 64, 64
3, 840, Note_on_c, 1, 64, 0
3, 840, Note_on_c, 1, 64, 64
3, 870, Note_on_c, 1, 64, 0
3, 870, Note_on_c, 1, 65, 64
3, 900, Note_on_c, 1, 65, 0
3, 900, Note_on_c, 1, 67, 64
3, 1110, Note_on_c, 1, 67, 0
3, 1110, Note_on_c, 1, 65, 64
3, 1140, Note_on_c, 1, 65, 0
3, 1140, Note_on_c, 1, 60, 64
3, 1170, Note_on_c, 1, 60, 0
3, 1170, Note_on_c, 1, 65, 64
3, 1200, Note_on_c, 1, 65, 0
3, 1200, Note_on_c, 1, 67, 64
3, 1230, Note_on_c, 1, 67, 0
3, 1230, Note_on_c, 1, 70, 64
3, 1260, Note_on_c, 1, 70, 0
3, 1260, Note_on_c, 1, 68, 64
3, 1290, Note_on_c, 1, 68, 0
3, 1290, Note_on_c, 1, 67, 64
3, 1320, Note_on_c, 1, 67, 0
3, 1320, Note_on_c, 1, 65, 64
3, 1350, Note_on_c, 1, 65, 0
3, 1350, Note_on_c, 1, 58, 64
3, 1380, Note_on_c, 1, 58, 0
3, 1380, Note_on_c, 1, 60, 64
3, 1410, Note_on_c, 1, 60, 0
3, 1410, Note_on_c, 1, 61, 64
3, 1440, Note_on_c, 1, 61, 0
3, 1440, Note_on_c, 1, 53, 64
3, 1500, Note_on_c, 1, 53, 0
3, 1500, Note_on_c, 1, 72, 64
3, 1530, Note_on_c, 1, 72, 0
3, 1530, Note_on_c, 1, 70, 64
3, 1560, Note_on_c, 1, 70, 0
3, 1560, Note_on_c, 1, 68, 64
3, 1590, Note_on_c, 1, 68, 0
3, 1590, Note_on_c, 1, 70, 64
3, 1620, Note_on_c, 1, 70, 0
3, 1620, Note_on_c, 1, 72, 64
3, 1650, Note_on_c, 1, 72, 0
3, 1650, Note_on_c, 1, 70, 64
3, 1680, Note_on_c, 1, 70, 0
3, 1680, Note_on_c, 1, 68, 64
3, 1710, Note_on_c, 1, 68, 0
3, 1710, Note_on_c, 1, 67, 64
3, 1740, Note_on_c, 1, 67, 0
3, 1740, Note_on_c, 1, 65, 64
3, 1860, Note_on_c, 1, 65, 0
3, 1860, Note_on_c, 1, 73, 64
3, 1890, Note_on_c, 1, 73, 0
3, 1890, Note_on_c, 1, 72, 64
3, 1920, Note_on_c, 1, 72, 0
3, 1920, Note_on_c, 1, 70, 64
3, 1950, Note_on_c, 1, 70, 0
3, 1950, Note_on_c, 1, 72, 64
3, 1980, Note_on_c, 1, 72, 0
3, 1980, Note_on_c, 1, 73, 64
3, 2010, Note_on_c, 1, 73, 0
3, 2010, Note_on_c, 1, 72, 64
3, 2040, Note_on_c, 1, 72, 0
3, 2040, Note_on_c, 1, 70, 64
3, 2070, Note_on_c, 1, 70, 0
3, 2070, Note_on_c, 1, 68, 64
3, 2100, Note_on_c, 1, 68, 0
3, 2100, Note_on_c, 1, 67, 64
3, 2220, Note_on_c, 1, 67, 0
3, 2220, Note_on_c, 1, 70, 64
3, 2280, Note_on_c, 1, 70, 0
3, 2280, Note_on_c, 1, 61, 64
3, 2400, Note_on_c, 1, 61, 0
3, 2400, Note_on_c, 1, 70, 64
3, 2430, Note_on_c, 1, 70, 0
3, 2430, Note_on_c, 1, 67, 64
3, 2460, Note_on_c, 1, 67, 0
3, 2460, Note_on_c, 1, 68, 64
3, 2490, Note_on_c, 1, 68, 0
3, 2490, Note_on_c, 1, 67, 64
3, 2520, Note_on_c, 1, 67, 0
3, 2520, Note_on_c, 1, 60, 64
3, 2550, Note_on_c, 1, 60, 0
3, 2550, Note_on_c, 1, 62, 64
3, 2580, Note_on_c, 1, 62, 0
3, 2580, Note_on_c, 1, 64, 64
3, 2610, Note_on_c, 1, 64, 0
3, 2610, Note_on_c, 1, 65, 64
3, 2640, Note_on_c, 1, 65, 0
3, 2640, Note_on_c, 1, 61, 64
3, 2760, Note_on_c, 1, 61, 0
3, 2760, Note_on_c, 1, 60, 64
3, 2940, Note_on_c, 1, 60, 0
3, 2940, Note_on_c, 1, 72, 64
3, 2970, Note_on_c, 1, 72, 0
3, 2970, Note_on_c, 1, 70, 64
3, 3000, Note_on_c, 1, 70, 0
3, 3000, Note_on_c, 1, 68, 64
3, 3030, Note_on_c, 1, 68, 0
3, 3030, Note_on_c, 1, 70, 64
3, 3060, Note_on_c, 1, 70, 0
3, 3060, Note_on_c, 1, 72, 64
3, 3090, Note_on_c, 1, 72, 0
3, 3090, Note_on_c, 1, 70, 64
3, 3120, Note_on_c, 1, 70, 0
3, 3120, Note_on_c, 1, 68, 64
3, 3180, Note_on_c, 1, 68, 0
3, 3180, Note_on_c, 1, 65, 64
3, 3240, Note_on_c, 1, 65, 0
3, 3240, Note_on_c, 1, 74, 64
3, 3300, Note_on_c, 1, 74, 0
3, 3300, Note_on_c, 1, 62, 64
3, 3420, Note_on_c, 1, 62, 0
3, 3420, Note_on_c, 1, 68, 64
3, 3450, Note_on_c, 1, 68, 0
3, 3450, Note_on_c, 1, 67, 64
3, 3480, Note_on_c, 1, 67, 0
3, 3480, Note_on_c, 1, 65, 64
3, 3540, Note_on_c, 1, 65, 0
3, 3540, Note_on_c, 1, 62, 64
3, 3660, Note_on_c, 1, 62, 0
3, 3660, Note_on_c, 1, 68, 64
3, 3780, Note_on_c, 1, 68, 0
3, 3780, Note_on_c, 1, 68, 64
3, 3810, Note_on_c, 1, 68, 0
3, 3810, Note_on_c, 1, 65, 64
3, 3870, Note_on_c, 1, 65, 0
3, 3870, Note_on_c, 1, 62, 64
3, 3900, Note_on_c, 1, 62, 0
3, 3900, Note_on_c, 1, 63, 64
3, 3930, Note_on_c, 1, 63, 0
3, 3930, Note_on_c, 1, 62, 64
3, 3960, Note_on_c, 1, 62, 0
3, 3960, Note_on_c, 1, 60, 64
3, 4020, Note_on_c, 1, 60, 0
3, 4020, Note_on_c, 1, 67, 64
3, 4050, Note_on_c, 1, 67, 0
3, 4050, Note_on_c, 1, 65, 64
3, 4080, Note_on_c, 1, 65, 0
3, 4080, Note_on_c, 1, 67, 64
3, 4110, Note_on_c, 1, 67, 0
3, 4110, Note_on_c, 1, 65, 64
3, 4140, Note_on_c, 1, 65, 0
3, 4140, Note_on_c, 1, 63, 64
3, 4170, Note_on_c, 1, 63, 0
3, 4170, Note_on_c, 1, 65, 64
3, 4200, Note_on_c, 1, 65, 0
3, 4200, Note_on_c, 1, 67, 64
3, 4260, Note_on_c, 1, 67, 0
3, 4260, Note_on_c, 1, 72, 64
3, 4290, Note_on_c, 1, 72, 0
3, 4290, Note_on_c, 1, 70, 64
3, 4320, Note_on_c, 1, 70, 0
3, 4320, Note_on_c, 1, 69, 64
3, 4410, Note_on_c, 1, 69, 0
3, 4410, Note_on_c, 1, 67, 64
3, 4440, Note_on_c, 1, 67, 0
3, 4440, Note_on_c, 1, 66, 64
3, 4560, Note_on_c, 1, 66, 0
3, 4560, Note_on_c, 1, 72, 64
3, 4620, Note_on_c, 1, 72, 0
3, 4620, Note_on_c, 1, 69, 64
3, 4710, Note_on_c, 1, 69, 0
3, 4710, Note_on_c, 1, 67, 64
3, 4740, Note_on_c, 1, 67, 0
3, 4740, Note_on_c, 1, 66, 64
3, 4770, Note_on_c, 1, 66, 0
3, 4770, Note_on_c, 1, 64, 64
3, 4800, Note_on_c, 1, 64, 0
3, 4800, Note_on_c, 1, 63, 64
3, 4830, Note_on_c, 1, 63, 0
3, 4830, Note_on_c, 1, 62, 64
3, 4860, Note_on_c, 1, 62, 0
3, 4860, Note_on_c, 1, 63, 64
3, 4920, Note_on_c, 1, 63, 0
3, 4920, Note_on_c, 1, 69, 64
3, 4950, Note_on_c, 1, 69, 0
3, 4950, Note_on_c, 1, 72, 64
3, 4980, Note_on_c, 1, 72, 0
3, 4980, Note_on_c, 1, 70, 64
3, 5010, Note_on_c, 1, 70, 0
3, 5010, Note_on_c, 1, 69, 64
3, 5100, Note_on_c, 1, 69, 0
3, 5100, Note_on_c, 1, 67, 64
3, 5130, Note_on_c, 1, 67, 0
3, 5130, Note_on_c, 1, 66, 64
3, 5160, Note_on_c, 1, 66, 0
3, 5160, Note_on_c, 1, 65, 64
3, 5190, Note_on_c, 1, 65, 0
3, 5190, Note_on_c, 1, 67, 64
3, 5220, Note_on_c, 1, 67, 0
3, 5220, Note_on_c, 1, 68, 64
3, 5250, Note_on_c, 1, 68, 0
3, 5250, Note_on_c, 1, 65, 64
3, 5280, Note_on_c, 1, 65, 0
3, 5280, Note_on_c, 1, 67, 64
3, 5310, Note_on_c, 1, 67, 0
3, 5310, Note_on_c, 1, 63, 64
3, 5340, Note_on_c, 1, 63, 0
3, 5340, Note_on_c, 1, 65, 64
3, 5370, Note_on_c, 1, 65, 0
3, 5370, Note_on_c, 1, 67, 64
3, 5400, Note_on_c, 1, 67, 0
3, 5400, Note_on_c, 1, 68, 64
3, 5430, Note_on_c, 1, 68, 0
3, 5430, Note_on_c, 1, 64, 64
3, 5460, Note_on_c, 1, 64, 0
3, 5460, Note_on_c, 1, 65, 64
3, 5490, Note_on_c, 1, 65, 0
3, 5490, Note_on_c, 1, 68, 64
3, 5520, Note_on_c, 1, 68, 0
3, 5520, Note_on_c, 1, 59, 64
3, 5580, Note_on_c, 1, 59, 0
3, 5580, Note_on_c, 1, 60, 64
3, 5610, Note_on_c, 1, 60, 0
3, 5610, Note_on_c, 1, 62, 64
3, 5640, Note_on_c, 1, 62, 0
3, 5640, Note_on_c, 1, 60, 64
3, 5670, Note_on_c, 1, 60, 0
3, 5670, Note_on_c, 1, 59, 64
3, 5700, Note_on_c, 1, 59, 0
3, 5700, Note_on_c, 1, 67, 64
3, 5790, Note_on_c, 1, 67, 0
3, 5790, Note_on_c, 1, 68, 64
3, 5820, Note_on_c, 1, 68, 0
3, 5820, Note_on_c, 1, 67, 64
3, 5850, Note_on_c, 1, 67, 0
3, 5850, Note_on_c, 1, 65, 64
3, 5880, Note_on_c, 1, 65, 0
3, 5880, Note_on_c, 1, 67, 64
3, 5970, Note_on_c, 1, 67, 0
3, 5970, Note_on_c, 1, 65, 64
3, 6000, Note_on_c, 1, 65, 0
3, 6000, Note_on_c, 1, 63, 64
3, 6060, Note_on_c, 1, 63, 0
3, 6060, Note_on_c, 1, 60, 64
3, 6120, Note_on_c, 1, 60, 0
3, 6120, Note_on_c, 1, 68, 64
3, 6210, Note_on_c, 1, 68, 0
3, 6210, Note_on_c, 1, 67, 64
3, 6240, Note_on_c, 1, 67, 0
3, 6240, Note_on_c, 1, 65, 64
3, 6270, Note_on_c, 1, 65, 0
3, 6270, Note_on_c, 1, 63, 64
3, 6300, Note_on_c, 1, 63, 0
3, 6300, Note_on_c, 1, 62, 64
3, 6330, Note_on_c, 1, 62, 0
3, 6330, Note_on_c, 1, 63, 64
3, 6360, Note_on_c, 1, 63, 0
3, 6360, Note_on_c, 1, 65, 64
3, 6420, Note_on_c, 1, 65, 0
3, 6420, Note_on_c, 1, 62, 64
3, 6480, Note_on_c, 1, 62, 0
3, 6480, Note_on_c, 1, 74, 64
3, 6540, Note_on_c, 1, 74, 0
3, 6540, Note_on_c, 1, 65, 64
3, 6570, Note_on_c, 1, 65, 0
3, 6570, Note_on_c, 1, 67, 64
3, 6600, Note_on_c, 1, 67, 0
3, 6600, Note_on_c, 1, 68, 64
3, 6720, Note_on_c, 1, 68, 0
3, 6720, Note_on_c, 1, 62, 64
3, 6840, Note_on_c, 1, 62, 0
3, 6840, Note_on_c, 1, 62, 64
3, 6870, Note_on_c, 1, 62, 0
3, 6870, Note_on_c, 1, 60, 64
3, 6900, Note_on_c, 1, 60, 0
3, 6900, Note_on_c, 1, 59, 64
3, 6930, Note_on_c, 1, 59, 0
3, 6930, Note_on_c, 1, 60, 64
3, 6960, Note_on_c, 1, 60, 0
3, 6960, Note_on_c, 1, 62, 64
3, 6990, Note_on_c, 1, 62, 0
3, 6990, Note_on_c, 1, 60, 64
3, 7020, Note_on_c, 1, 60, 0
3, 7020, Note_on_c, 1, 59, 64
3, 7080, Note_on_c, 1, 59, 0
3, 7080, Note_on_c, 1, 67, 64
3, 7110, Note_on_c, 1, 67, 0
3, 7110, Note_on_c, 1, 65, 64
3, 7140, Note_on_c, 1, 65, 0
3, 7140, Note_on_c, 1, 63, 64
3, 7170, Note_on_c, 1, 63, 0
3, 7170, Note_on_c, 1, 62, 64
3, 7200, Note_on_c, 1, 62, 0
3, 7200, Note_on_c, 1, 60, 64
3, 7260, Note_on_c, 1, 60, 0
3, 7260, Note_on_c, 1, 72, 64
3, 7290, Note_on_c, 1, 72, 0
3, 7290, Note_on_c, 1, 70, 64
3, 7320, Note_on_c, 1, 70, 0
3, 7320, Note_on_c, 1, 69, 64
3, 7380, Note_on_c, 1, 69, 0
3, 7380, Note_on_c, 1, 72, 64
3, 7440, Note_on_c, 1, 72, 0
3, 7440, Note_on_c, 1, 69, 64
3, 7500, Note_on_c, 1, 69, 0
3, 7500, Note_on_c, 1, 65, 64
3, 7680, Note_on_c, 1, 65, 0
3, 7680, Note_on_c, 1, 57, 64
3, 7740, Note_on_c, 1, 57, 0
3, 7740, Note_on_c, 1, 60, 64
3, 7800, Note_on_c, 1, 60, 0
3, 7800, Note_on_c, 1, 61, 64
3, 7950, Note_on_c, 1, 61, 0
3, 7950, Note_on_c, 1, 60, 64
3, 7980, Note_on_c, 1, 60, 0
3, 7980, Note_on_c, 1, 58, 64
3, 8010, Note_on_c, 1, 58, 0
3, 8010, Note_on_c, 1, 56, 64
3, 8040, Note_on_c, 1, 56, 0
3, 8040, Note_on_c, 1, 58, 64
3, 8100, Note_on_c, 1, 58, 0
3, 8100, Note_on_c, 1, 70, 64
3, 8130, Note_on_c, 1, 70, 0
3, 8130, Note_on_c, 1, 68, 64
3, 8160, Note_on_c, 1, 68, 0
3, 8160, Note_on_c, 1, 67, 64
3, 8190, Note_on_c, 1, 67, 0
3, 8190, Note_on_c, 1, 65, 64
3, 8220, Note_on_c, 1, 65, 0
3, 8220, Note_on_c, 1, 67, 64
3, 8280, Note_on_c, 1, 67, 0
3, 8280, Note_on_c, 1, 63, 64
3, 8400, Note_on_c, 1, 63, 0
3, 8400, Note_on_c, 1, 55, 64
3, 8460, Note_on_c, 1, 55, 0
3, 8460, Note_on_c, 1, 58, 64
3, 8520, Note_on_c, 1, 58, 0
3, 8520, Note_on_c, 1, 60, 64
3, 8700, Note_on_c, 1, 60, 0
3, 8700, Note_on_c, 1, 68, 64
3, 8730, Note_on_c, 1, 68, 0
3, 8730, Note_on_c, 1, 67, 64
3, 8760, Note_on_c, 1, 67, 0
3, 8760, Note_on_c, 1, 68, 64
3, 8790, Note_on_c, 1, 68, 0
3, 8790, Note_on_c, 1, 67, 64
3, 8820, Note_on_c, 1, 67, 0
3, 8820, Note_on_c, 1, 65, 64
3, 8850, Note_on_c, 1, 65, 0
3, 8850, Note_on_c, 1, 63, 64
3, 8880, Note_on_c, 1, 63, 0
3, 8880, Note_on_c, 1, 61, 64
3, 8910, Note_on_c, 1, 61, 0
3, 8910, Note_on_c, 1, 60, 64
3, 8940, Note_on_c, 1, 60, 0
3, 8940, Note_on_c, 1, 58, 64
3, 8970, Note_on_c, 1, 58, 0
3, 8970, Note_on_c, 1, 61, 64
3, 9060, Note_on_c, 1, 61, 0
3, 9060, Note_on_c, 1, 67, 64
3, 9090, Note_on_c, 1, 67, 0
3, 9090, Note_on_c, 1, 65, 64
3, 9120, Note_on_c, 1, 65, 0
3, 9120, Note_on_c, 1, 67, 64
3, 9150, Note_on_c, 1, 67, 0
3, 9150, Note_on_c, 1, 65, 64
3, 9180, Note_on_c, 1, 65, 0
3, 9180, Note_on_c, 1, 63, 64
3, 9210, Note_on_c, 1, 63, 0
3, 9210, Note_on_c, 1, 61, 64
3, 9240, Note_on_c, 1, 61, 0
3, 9240, Note_on_c, 1, 60, 64
3, 9270, Note_on_c, 1, 60, 0
3, 9270, Note_on_c, 1, 58, 64
3, 9300, Note_on_c, 1, 58, 0
3, 9300, Note_on_c, 1, 56, 64
3, 9330, Note_on_c, 1, 56, 0
3, 9330, Note_on_c, 1, 60, 64
3, 9420, Note_on_c, 1, 60, 0
3, 9420, Note_on_c, 1, 65, 64
3, 9450, Note_on_c, 1, 65, 0
3, 9450, Note_on_c, 1, 63, 64
3, 9480, Note_on_c, 1, 63, 0
3, 9480, Note_on_c, 1, 65, 64
3, 9510, Note_on_c, 1, 65, 0
3, 9510, Note_on_c, 1, 63, 64
3, 9540, Note_on_c, 1, 63, 0
3, 9540, Note_on_c, 1, 61, 64
3, 9570, Note_on_c, 1, 61, 0
3, 9570, Note_on_c, 1, 60, 64
3, 9600, Note_on_c, 1, 60, 0
3, 9600, Note_on_c, 1, 58, 64
3, 9630, Note_on_c, 1, 58, 0
3, 9630, Note_on_c, 1, 56, 64
3, 9660, Note_on_c, 1, 56, 0
3, 9660, Note_on_c, 1, 55, 64
3, 9690, Note_on_c, 1, 55, 0
3, 9690, Note_on_c, 1, 58, 64
3, 9720, Note_on_c, 1, 58, 0
3, 9720, Note_on_c, 1, 52, 64
3, 9780, Note_on_c, 1, 52, 0
3, 9780, Note_on_c, 1, 58, 64
3, 9810, Note_on_c, 1, 58, 0
3, 9810, Note_on_c, 1, 56, 64
3, 9840, Note_on_c, 1, 56, 0
3, 9840, Note_on_c, 1, 55, 64
3, 9900, Note_on_c, 1, 55, 0
3, 9900, Note_on_c, 1, 61, 64
3, 9930, Note_on_c, 1, 61, 0
3, 9930, Note_on_c, 1, 60, 64
3, 9960, Note_on_c, 1, 60, 0
3, 9960, Note_on_c, 1, 58, 64
3, 10020, Note_on_c, 1, 58, 0
3, 10020, Note_on_c, 1, 64, 64
3, 10110, Note_on_c, 1, 64, 0
3, 10110, Note_on_c, 1, 67, 64
3, 10140, Note_on_c, 1, 67, 0
3, 10140, Note_on_c, 1, 65, 64
3, 10170, Note_on_c, 1, 65, 0
3, 10170, Note_on_c, 1, 64, 64
3, 10200, Note_on_c, 1, 64, 0
3, 10200, Note_on_c, 1, 65, 64
3, 10230, Note_on_c, 1, 65, 0
3, 10230, Note_on_c, 1, 61, 64
3, 10260, Note_on_c, 1, 61, 0
3, 10260, Note_on_c, 1, 60, 64
3, 10290, Note_on_c, 1, 60, 0
3, 10290, Note_on_c, 1, 58, 64
3, 10320, Note_on_c, 1, 58, 0
3, 10320, Note_on_c, 1, 56, 64
3, 10350, Note_on_c, 1, 56, 0
3, 10350, Note_on_c, 1, 55, 64
3, 10380, Note_on_c, 1, 55, 0
3, 10380, Note_on_c, 1, 53, 64
3, 10410, Note_on_c, 1, 53, 0
3, 10410, Note_on_c, 1, 63, 64
3, 10440, Note_on_c, 1, 63, 0
3, 10440, Note_on_c, 1, 61, 64
3, 10470, Note_on_c, 1, 61, 0
3, 10470, Note_on_c, 1, 63, 64
3, 10500, Note_on_c, 1, 63, 0
3, 10500, Note_on_c, 1, 65, 64
3, 10530, Note_on_c, 1, 65, 0
3, 10530, Note_on_c, 1, 66, 64
3, 10560, Note_on_c, 1, 66, 0
3, 10560, Note_on_c, 1, 65, 64
3, 10590, Note_on_c, 1, 65, 0
3, 10590, Note_on_c, 1, 63, 64
3, 10620, Note_on_c, 1, 63, 0
3, 10620, Note_on_c, 1, 61, 64
3, 10650, Note_on_c, 1, 61, 0
3, 10650, Note_on_c, 1, 60, 64
3, 10680, Note_on_c, 1, 60, 0
3, 10680, Note_on_c, 1, 58, 64
3, 10710, Note_on_c, 1, 58, 0
3, 10710, Note_on_c, 1, 56, 64
3, 10740, Note_on_c, 1, 56, 0
3, 10740, Note_on_c, 1, 55, 64
3, 10770, Note_on_c, 1, 55, 0
3, 10770, Note_on_c, 1, 56, 64
3, 10800, Note_on_c, 1, 56, 0
3, 10800, Note_on_c, 1, 58, 64
3, 10860, Note_on_c, 1, 58, 0
3, 10860, Note_on_c, 1, 61, 64
3, 10890, Note_on_c, 1, 61, 0
3, 10890, Note_on_c, 1, 60, 64
3, 10920, Note_on_c, 1, 60, 0
3, 10920, Note_on_c, 1, 58, 64
3, 10950, Note_on_c, 1, 58, 0
3, 10950, Note_on_c, 1, 60, 64
3, 10980, Note_on_c, 1, 60, 0
3, 10980, Note_on_c, 1, 61, 64
3, 11010, Note_on_c, 1, 61, 0
3, 11010, Note_on_c, 1, 58, 64
3, 11130, Note_on_c, 1, 58, 0
3, 11130, Note_on_c, 1, 67, 64
3, 11190, Note_on_c, 1, 67, 0
3, 11190, Note_on_c, 1, 65, 64
3, 11220, Note_on_c, 1, 65, 0
3, 11220, Note_on_c, 1, 64, 64
3, 11250, Note_on_c, 1, 64, 0
3, 11250, Note_on_c, 1, 65, 64
3, 11280, Note_on_c, 1, 65, 0
3, 11280, Note_on_c, 1, 64, 64
3, 11340, Note_on_c, 1, 64, 0
3, 11340, Note_on_c, 1, 65, 64
3, 11370, Note_on_c, 1, 65, 0
3, 11370, Note_on_c, 1, 67, 64
3, 11400, Note_on_c, 1, 67, 0
3, 11400, Note_on_c, 1, 60, 64
3, 11460, Note_on_c, 1, 60, 0
3, 11460, Note_on_c, 1, 68, 64
3, 11490, Note_on_c, 1, 68, 0
3, 11490, Note_on_c, 1, 67, 64
3, 11520, Note_on_c, 1, 67, 0
3, 11520, Note_on_c, 1, 65, 64
3, 11550, Note_on_c, 1, 65, 0
3, 11550, Note_on_c, 1, 64, 64
3, 11580, Note_on_c, 1, 64, 0
3, 11580, Note_on_c, 1, 65, 64
3, 11670, Note_on_c, 1, 65, 0
3, 11670, Note_on_c, 1, 62, 64
3, 11700, Note_on_c, 1, 62, 0
3, 11700, Note_on_c, 1, 64, 64
3, 11730, Note_on_c, 1, 64, 0
3, 11730, Note_on_c, 1, 65, 64
3, 11790, Note_on_c, 1, 65, 0
3, 11790, Note_on_c, 1, 62, 64
3, 11820, Note_on_c, 1, 62, 0
3, 11820, Note_on_c, 1, 64, 64
3, 11850, Note_on_c, 1, 64, 0
3, 11850, Note_on_c, 1, 58, 64
3, 11880, Note_on_c, 1, 58, 0
3, 11880, Note_on_c, 1, 57, 64
3, 12240, Note_on_c, 1, 57, 0
3, 12240, End_track
4, 0, Start_track
4, 0, MIDI_port, 0
4, 0, Title_t, "BASSOON"
4, 0, Program_c, 2, 0
4, 0, Control_c, 2, 7, 100
4, 0, Control_c, 2, 10, 90
4, 0, Note_on_c, 2, 41, 64
4, 30, Control_c, 2, 7, 96
4, 60, Note_on_c, 2, 41, 0
4, 60, Note_on_c, 2, 53, 64
4, 120, Note_on_c, 2, 53, 0
4, 120, Note_on_c, 2, 53, 64
4, 150, Note_on_c, 2, 53, 0
4, 150, Note_on_c, 2, 55, 64
4, 150, Control_c, 2, 7, 97
4, 180, Note_on_c, 2, 55, 0
4, 180, Note_on_c, 2, 56, 64
4, 200, Control_c, 2, 7, 98
4, 210, Note_on_c, 2, 56, 0
4, 210, Note_on_c, 2, 55, 64
4, 240, Note_on_c, 2, 55, 0
4, 240, Note_on_c, 2, 53, 64
4, 250, Control_c, 2, 7, 99
4, 270, Note_on_c, 2, 53, 0
4, 270, Note_on_c, 2, 51, 64
4, 290, Control_c, 2, 7, 100
4, 300, Note_on_c, 2, 51, 0
4, 300, Note_on_c, 2, 49, 64
4, 330, Note_on_c, 2, 49, 0
4, 330, Note_on_c, 2, 48, 64
4, 340, Control_c, 2, 7, 101
4, 360, Note_on_c, 2, 48, 0
4, 360, Note_on_c, 2, 46, 64
4, 380, Control_c, 2, 7, 102
4, 420, Note_on_c, 2, 46, 0
4, 420, Note_on_c, 2, 55, 64
4, 430, Control_c, 2, 7, 103
4, 470, Control_c, 2, 7, 104
4, 510, Note_on_c, 2, 55, 0
4, 510, Note_on_c, 2, 56, 64
4, 520, Control_c, 2, 7, 105
4, 540, Note_on_c, 2, 56, 0
4, 540, Note_on_c, 2, 58, 64
4, 560, Control_c, 2, 7, 106
4, 570, Note_on_c, 2, 58, 0
4, 570, Note_on_c, 2, 56, 64
4, 600, Note_on_c, 2, 56, 0
4, 600, Note_on_c, 2, 55, 64
4, 610, Control_c, 2, 7, 107
4, 630, Note_on_c, 2, 55, 0
4, 630, Note_on_c, 2, 53, 64
4, 650, Control_c, 2, 7, 108
4, 660, Note_on_c, 2, 53, 0
4, 660, Note_on_c, 2, 52, 64
4, 690, Note_on_c, 2, 52, 0
4, 690, Note_on_c, 2, 50, 64
4, 700, Control_c, 2, 7, 109
4, 720, Note_on_c, 2, 50, 0
4, 720, Note_on_c, 2, 48, 64
4, 720, Control_c, 2, 7, 109
4, 750, Note_on_c, 2, 48, 0
4, 750, Note_on_c, 2, 50, 64
4, 770, Control_c, 2, 7, 110
4, 780, Note_on_c, 2, 50, 0
4, 780, Note_on_c, 2, 52, 64
4, 810, Note_on_c, 2, 52, 0
4, 810, Note_on_c, 2, 53, 64
4, 820, Control_c, 2, 7, 111
4, 840, Note_on_c, 2, 53, 0
4, 840, Note_on_c, 2, 55, 64
4, 870, Note_on_c, 2, 55, 0
4, 870, Note_on_c, 2, 56, 64
4, 870, Control_c, 2, 7, 112
4, 900, Note_on_c, 2, 56, 0
4, 900, Note_on_c, 2, 58, 64
4, 910, Control_c, 2, 7, 113
4, 930, Note_on_c, 2, 58, 0
4, 930, Note_on_c, 2, 55, 64
4, 960, Note_on_c, 2, 55, 0
4, 960, Note_on_c, 2, 53, 64
4, 990, Note_on_c, 2, 53, 0
4, 990, Note_on_c, 2, 52, 64
4, 1020, Note_on_c, 2, 52, 0
4, 1020, Note_on_c, 2, 53, 64
4, 1050, Note_on_c, 2, 53, 0
4, 1050, Note_on_c, 2, 52, 64
4, 1080, Note_on_c, 2, 52, 0
4, 1080, Note_on_c, 2, 53, 64
4, 1200, Note_on_c, 2, 53, 0
4, 1230, Note_on_c, 2, 48, 64
4, 1260, Note_on_c, 2, 48, 0
4, 1260, Note_on_c, 2, 50, 64
4, 1280, Control_c, 2, 7, 110
4, 1290, Note_on_c, 2, 50, 0
4, 1290, Note_on_c, 2, 52, 64
4, 1300, Control_c, 2, 7, 109
4, 1320, Note_on_c, 2, 52, 0
4, 1320, Note_on_c, 2, 53, 64
4, 1320, Control_c, 2, 7, 108
4, 1330, Control_c, 2, 7, 107
4, 1350, Note_on_c, 2, 53, 0
4, 1350, Note_on_c, 2, 55, 64
4, 1350, Control_c, 2, 7, 106
4, 1360, Control_c, 2, 7, 105
4, 1380, Note_on_c, 2, 55, 0
4, 1380, Note_on_c, 2, 56, 64
4, 1380, Control_c, 2, 7, 104
4, 1390, Control_c, 2, 7, 103
4, 1410, Note_on_c, 2, 56, 0
4, 1410, Note_on_c, 2, 58, 64
4, 1410, Control_c, 2, 7, 102
4, 1420, Control_c, 2, 7, 101
4, 1440, Note_on_c, 2, 58, 0
4, 1440, Note_on_c, 2, 60, 64
4, 1440, Control_c, 2, 7, 100
4, 1450, Control_c, 2, 7, 99
4, 1470, Note_on_c, 2, 60, 0
4, 1470, Note_on_c, 2, 58, 64
4, 1470, Control_c, 2, 7, 98
4, 1480, Control_c, 2, 7, 97
4, 1500, Note_on_c, 2, 58, 0
4, 1500, Note_on_c, 2, 56, 64
4, 1520, Control_c, 2, 7, 96
4, 1530, Note_on_c, 2, 56, 0
4, 1530, Note_on_c, 2, 55, 64
4, 1560, Note_on_c, 2, 55, 0
4, 1560, Note_on_c, 2, 56, 64
4, 1570, Control_c, 2, 7, 97
4, 1620, Note_on_c, 2, 56, 0
4, 1620, Note_on_c, 2, 41, 64
4, 1620, Control_c, 2, 7, 98
4, 1670, Control_c, 2, 7, 99
4, 1680, Note_on_c, 2, 41, 0
4, 1680, Note_on_c, 2, 49, 64
4, 1720, Control_c, 2, 7, 100
4, 1770, Control_c, 2, 7, 101
4, 1820, Control_c, 2, 7, 102
4, 1830, Note_on_c, 2, 49, 0
4, 1830, Note_on_c, 2, 48, 64
4, 1860, Note_on_c, 2, 48, 0
4, 1860, Note_on_c, 2, 46, 64
4, 1860, Control_c, 2, 7, 103
4, 1890, Note_on_c, 2, 46, 0
4, 1890, Note_on_c, 2, 45, 64
4, 1910, Control_c, 2, 7, 104
4, 1920, Note_on_c, 2, 45, 0
4, 1920, Note_on_c, 2, 46, 64
4, 1960, Control_c, 2, 7, 105
4, 1980, Note_on_c, 2, 46, 0
4, 1980, Note_on_c, 2, 43, 64
4, 2010, Control_c, 2, 7, 106
4, 2040, Note_on_c, 2, 43, 0
4, 2040, Note_on_c, 2, 52, 64
4, 2060, Control_c, 2, 7, 107
4, 2110, Control_c, 2, 7, 108
4, 2160, Control_c, 2, 7, 109
4, 2190, Note_on_c, 2, 52, 0
4, 2190, Note_on_c, 2, 53, 64
4, 2200, Control_c, 2, 7, 110
4, 2220, Note_on_c, 2, 53, 0
4, 2220, Note_on_c, 2, 55, 64
4, 2250, Note_on_c, 2, 55, 0
4, 2250, Note_on_c, 2, 56, 64
4, 2280, Note_on_c, 2, 56, 0
4, 2280, Note_on_c, 2, 58, 64
4, 2340, Note_on_c, 2, 58, 0
4, 2340, Note_on_c, 2, 55, 64
4, 2370, Note_on_c, 2, 55, 0
4, 2370, Note_on_c, 2, 52, 64
4, 2400, Note_on_c, 2, 52, 0
4, 2400, Note_on_c, 2, 49, 64
4, 2460, Note_on_c, 2, 49, 0
4, 2460, Note_on_c, 2, 48, 64
4, 2520, Note_on_c, 2, 48, 0
4, 2520, Note_on_c, 2, 46, 64
4, 2550, Note_on_c, 2, 46, 0
4, 2550, Note_on_c, 2, 44, 64
4, 2580, Note_on_c, 2, 44, 0
4, 2580, Note_on_c, 2, 43, 64
4, 2610, Note_on_c, 2, 43, 0
4, 2610, Note_on_c, 2, 44, 64
4, 2630, Control_c, 2, 7, 109
4, 2640, Note_on_c, 2, 44, 0
4, 2640, Note_on_c, 2, 46, 64
4, 2650, Control_c, 2, 7, 108
4, 2660, Control_c, 2, 7, 107
4, 2670, Note_on_c, 2, 46, 0
4, 2670, Note_on_c, 2, 49, 64
4, 2670, Control_c, 2, 7, 106
4, 2680, Control_c, 2, 7, 105
4, 2700, Note_on_c, 2, 49, 0
4, 2700, Note_on_c, 2, 48, 64
4, 2700, Control_c, 2, 7, 104
4, 2710, Control_c, 2, 7, 103
4, 2720, Control_c, 2, 7, 102
4, 2730, Note_on_c, 2, 48, 0
4, 2730, Note_on_c, 2, 46, 64
4, 2730, Control_c, 2, 7, 101
4, 2750, Control_c, 2, 7, 100
4, 2760, Note_on_c, 2, 46, 0
4, 2760, Note_on_c, 2, 44, 64
4, 2760, Control_c, 2, 7, 99
4, 2770, Control_c, 2, 7, 98
4, 2780, Control_c, 2, 7, 97
4, 2790, Note_on_c, 2, 44, 0
4, 2790, Note_on_c, 2, 43, 64
4, 2790, Control_c, 2, 7, 96
4, 2810, Control_c, 2, 7, 95
4, 2820, Note_on_c, 2, 43, 0
4, 2820, Note_on_c, 2, 41, 64
4, 2820, Control_c, 2, 7, 94
4, 2830, Control_c, 2, 7, 93
4, 2840, Control_c, 2, 7, 92
4, 2850, Note_on_c, 2, 41, 0
4, 2850, Note_on_c, 2, 40, 64
4, 2860, Control_c, 2, 7, 91
4, 2870, Control_c, 2, 7, 90
4, 2880, Note_on_c, 2, 40, 0
4, 2880, Note_on_c, 2, 44, 64
4, 2880, Control_c, 2, 7, 89
4, 2890, Control_c, 2, 7, 88
4, 2900, Control_c, 2, 7, 87
4, 2940, Note_on_c, 2, 44, 0
4, 2940, Note_on_c, 2, 53, 64
4, 3020, Control_c, 2, 7, 87
4, 3030, Note_on_c, 2, 53, 0
4, 3030, Note_on_c, 2, 55, 64
4, 3060, Note_on_c, 2, 55, 0
4, 3060, Note_on_c, 2, 56, 64
4, 3090, Note_on_c, 2, 56, 0
4, 3090, Note_on_c, 2, 55, 64
4, 3100, Control_c, 2, 7, 88
4, 3120, Note_on_c, 2, 55, 0
4, 3120, Note_on_c, 2, 53, 64
4, 3150, Note_on_c, 2, 53, 0
4, 3150, Note_on_c, 2, 51, 64
4, 3180, Note_on_c, 2, 51, 0
4, 3180, Note_on_c, 2, 50, 64
4, 3180, Control_c, 2, 7, 89
4, 3210, Note_on_c, 2, 50, 0
4, 3210, Note_on_c, 2, 48, 64
4, 3240, Note_on_c, 2, 48, 0
4, 3240, Note_on_c, 2, 47, 64
4, 3260, Control_c, 2, 7, 90
4, 3300, Note_on_c, 2, 47, 0
4, 3300, Note_on_c, 2, 56, 64
4, 3330, Control_c, 2, 7, 91
4, 3390, Note_on_c, 2, 56, 0
4, 3390, Note_on_c, 2, 55, 64
4, 3410, Control_c, 2, 7, 92
4, 3420, Note_on_c, 2, 55, 0
4, 3420, Note_on_c, 2, 53, 64
4, 3450, Note_on_c, 2, 53, 0
4, 3450, Note_on_c, 2, 51, 64
4, 3480, Note_on_c, 2, 51, 0
4, 3480, Note_on_c, 2, 50, 64
4, 3490, Control_c, 2, 7, 93
4, 3510, Note_on_c, 2, 50, 0
4, 3510, Note_on_c, 2, 48, 64
4, 3540, Note_on_c, 2, 48, 0
4, 3540, Note_on_c, 2, 47, 64
4, 3560, Control_c, 2, 7, 94
4, 3570, Note_on_c, 2, 47, 0
4, 3570, Note_on_c, 2, 45, 64
4, 3600, Note_on_c, 2, 45, 0
4, 3600, Note_on_c, 2, 43, 64
4, 3630, Note_on_c, 2, 43, 0
4, 3630, Note_on_c, 2, 45, 64
4, 3640, Control_c, 2, 7, 95
4, 3660, Note_on_c, 2, 45, 0
4, 3660, Note_on_c, 2, 47, 64
4, 3690, Note_on_c, 2, 47, 0
4, 3690, Note_on_c, 2, 48, 64
4, 3720, Note_on_c, 2, 48, 0
4, 3720, Note_on_c, 2, 50, 64
4, 3720, Control_c, 2, 7, 96
4, 3750, Note_on_c, 2, 50, 0
4, 3750, Note_on_c, 2, 51, 64
4, 3780, Note_on_c, 2, 51, 0
4, 3780, Note_on_c, 2, 53, 64
4, 3800, Control_c, 2, 7, 97
4, 3810, Note_on_c, 2, 53, 0
4, 3810, Note_on_c, 2, 50, 64
4, 3840, Note_on_c, 2, 50, 0
4, 3840, Note_on_c, 2, 48, 64
4, 3870, Note_on_c, 2, 48, 0
4, 3870, Note_on_c, 2, 47, 64
4, 3870, Control_c, 2, 7, 98
4, 3900, Note_on_c, 2, 47, 0
4, 3900, Note_on_c, 2, 48, 64
4, 3930, Note_on_c, 2, 48, 0
4, 3930, Note_on_c, 2, 47, 64
4, 3950, Control_c, 2, 7, 99
4, 3960, Note_on_c, 2, 47, 0
4, 3960, Note_on_c, 2, 51, 64
4, 4020, Note_on_c, 2, 51, 0
4, 4020, Note_on_c, 2, 48, 64
4, 4030, Control_c, 2, 7, 100
4, 4100, Control_c, 2, 7, 101
4, 4110, Note_on_c, 2, 48, 0
4, 4110, Note_on_c, 2, 50, 64
4, 4140, Note_on_c, 2, 50, 0
4, 4140, Note_on_c, 2, 51, 64
4, 4170, Note_on_c, 2, 51, 0
4, 4170, Note_on_c, 2, 50, 64
4, 4180, Control_c, 2, 7, 102
4, 4200, Note_on_c, 2, 50, 0
4, 4200, Note_on_c, 2, 48, 64
4, 4230, Note_on_c, 2, 48, 0
4, 4230, Note_on_c, 2, 46, 64
4, 4260, Note_on_c, 2, 46, 0
4, 4260, Note_on_c, 2, 45, 64
4, 4260, Control_c, 2, 7, 103
4, 4290, Note_on_c, 2, 45, 0
4, 4290, Note_on_c, 2, 43, 64
4, 4320, Note_on_c, 2, 43, 0
4, 4320, Note_on_c, 2, 42, 64
4, 4340, Control_c, 2, 7, 104
4, 4380, Note_on_c, 2, 42, 0
4, 4380, Note_on_c, 2, 51, 64
4, 4410, Control_c, 2, 7, 105
4, 4470, Note_on_c, 2, 51, 0
4, 4470, Note_on_c, 2, 50, 64
4, 4490, Control_c, 2, 7, 106
4, 4500, Note_on_c, 2, 50, 0
4, 4500, Note_on_c, 2, 48, 64
4, 4530, Note_on_c, 2, 48, 0
4, 4530, Note_on_c, 2, 46, 64
4, 4560, Note_on_c, 2, 46, 0
4, 4560, Note_on_c, 2, 45, 64
4, 4570, Control_c, 2, 7, 107
4, 4590, Note_on_c, 2, 45, 0
4, 4590, Note_on_c, 2, 43, 64
4, 4620, Note_on_c, 2, 43, 0
4, 4620, Note_on_c, 2, 42, 64
4, 4640, Control_c, 2, 7, 108
4, 4650, Note_on_c, 2, 42, 0
4, 4650, Note_on_c, 2, 40, 64
4, 4680, Note_on_c, 2, 40, 0
4, 4680, Note_on_c, 2, 38, 64
4, 4710, Note_on_c, 2, 38, 0
4, 4710, Note_on_c, 2, 40, 64
4, 4720, Control_c, 2, 7, 109
4, 4740, Note_on_c, 2, 40, 0
4, 4740, Note_on_c, 2, 42, 64
4, 4770, Note_on_c, 2, 42, 0
4, 4770, Note_on_c, 2, 43, 64
4, 4800, Note_on_c, 2, 43, 0
4, 4800, Note_on_c, 2, 45, 64
4, 4800, Control_c, 2, 7, 110
4, 4830, Note_on_c, 2, 45, 0
4, 4830, Note_on_c, 2, 46, 64
4, 4860, Note_on_c, 2, 46, 0
4, 4860, Note_on_c, 2, 48, 64
4, 4870, Control_c, 2, 7, 111
4, 4890, Note_on_c, 2, 48, 0
4, 4890, Note_on_c, 2, 45, 64
4, 4920, Note_on_c, 2, 45, 0
4, 4920, Note_on_c, 2, 43, 64
4, 4950, Note_on_c, 2, 43, 0
4, 4950, Note_on_c, 2, 42, 64
4, 4980, Note_on_c, 2, 42, 0
4, 4980, Note_on_c, 2, 43, 64
4, 5010, Note_on_c, 2, 43, 0
4, 5010, Note_on_c, 2, 42, 64
4, 5040, Note_on_c, 2, 42, 0
4, 5040, Note_on_c, 2, 43, 64
4, 5070, Note_on_c, 2, 43, 0
4, 5070, Note_on_c, 2, 45, 64
4, 5100, Note_on_c, 2, 45, 0
4, 5100, Note_on_c, 2, 47, 64
4, 5130, Note_on_c, 2, 47, 0
4, 5130, Note_on_c, 2, 48, 64
4, 5160, Note_on_c, 2, 48, 0
4, 5160, Note_on_c, 2, 50, 64
4, 5190, Note_on_c, 2, 50, 0
4, 5190, Note_on_c, 2, 51, 64
4, 5220, Note_on_c, 2, 51, 0
4, 5220, Note_on_c, 2, 53, 64
4, 5250, Note_on_c, 2, 53, 0
4, 5250, Note_on_c, 2, 50, 64
4, 5280, Note_on_c, 2, 50, 0
4, 5280, Note_on_c, 2, 51, 64
4, 5310, Note_on_c, 2, 51, 0
4, 5310, Note_on_c, 2, 48, 64
4, 5320, Control_c, 2, 7, 106
4, 5340, Note_on_c, 2, 48, 0
4, 5340, Note_on_c, 2, 50, 64
4, 5360, Control_c, 2, 7, 105
4, 5370, Note_on_c, 2, 50, 0
4, 5370, Note_on_c, 2, 51, 64
4, 5390, Control_c, 2, 7, 104
4, 5400, Note_on_c, 2, 51, 0
4, 5400, Note_on_c, 2, 53, 64
4, 5420, Control_c, 2, 7, 103
4, 5430, Note_on_c, 2, 53, 0
4, 5430, Note_on_c, 2, 55, 64
4, 5450, Control_c, 2, 7, 102
4, 5460, Note_on_c, 2, 55, 0
4, 5460, Note_on_c, 2, 56, 64
4, 5480, Control_c, 2, 7, 101
4, 5490, Note_on_c, 2, 56, 0
4, 5490, Note_on_c, 2, 53, 64
4, 5510, Control_c, 2, 7, 100
4, 5520, Note_on_c, 2, 53, 0
4, 5520, Note_on_c, 2, 55, 64
4, 5540, Control_c, 2, 7, 99
4, 5550, Note_on_c, 2, 55, 0
4, 5550, Note_on_c, 2, 50, 64
4, 5570, Control_c, 2, 7, 98
4, 5580, Note_on_c, 2, 50, 0
4, 5580, Note_on_c, 2, 51, 64
4, 5600, Control_c, 2, 7, 97
4, 5610, Note_on_c, 2, 51, 0
4, 5610, Note_on_c, 2, 53, 64
4, 5640, Note_on_c, 2, 53, 0
4, 5640, Note_on_c, 2, 43, 64
4, 5640, Control_c, 2, 7, 96
4, 5670, Note_on_c, 2, 43, 0
4, 5670, Note_on_c, 2, 53, 64
4, 5670, Control_c, 2, 7, 95
4, 5700, Note_on_c, 2, 53, 0
4, 5700, Note_on_c, 2, 51, 64
4, 5700, Control_c, 2, 7, 94
4, 5730, Note_on_c, 2, 51, 0
4, 5730, Note_on_c, 2, 50, 64
4, 5730, Control_c, 2, 7, 93
4, 5760, Note_on_c, 2, 50, 0
4, 5760, Note_on_c, 2, 51, 64
4, 5760, Control_c, 2, 7, 92
4, 5790, Note_on_c, 2, 51, 0
4, 5790, Note_on_c, 2, 53, 64
4, 5790, Control_c, 2, 7, 91
4, 5820, Note_on_c, 2, 53, 0
4, 5820, Note_on_c, 2, 51, 64
4, 5820, Control_c, 2, 7, 90
4, 5850, Note_on_c, 2, 51, 0
4, 5850, Note_on_c, 2, 50, 64
4, 5850, Control_c, 2, 7, 89
4, 5880, Note_on_c, 2, 50, 0
4, 5880, Note_on_c, 2, 51, 64
4, 5880, Control_c, 2, 7, 88
4, 5940, Note_on_c, 2, 51, 0
4, 5940, Note_on_c, 2, 48, 64
4, 6000, Note_on_c, 2, 48, 0
4, 6000, Note_on_c, 2, 56, 64
4, 6000, Control_c, 2, 7, 85
4, 6040, Control_c, 2, 7, 86
4, 6070, Control_c, 2, 7, 87
4, 6100, Control_c, 2, 7, 88
4, 6130, Control_c, 2, 7, 89
4, 6150, Note_on_c, 2, 56, 0
4, 6150, Note_on_c, 2, 55, 64
4, 6170, Control_c, 2, 7, 90
4, 6180, Note_on_c, 2, 55, 0
4, 6180, Note_on_c, 2, 53, 64
4, 6200, Control_c, 2, 7, 91
4, 6210, Note_on_c, 2, 53, 0
4, 6210, Note_on_c, 2, 52, 64
4, 6230, Control_c, 2, 7, 92
4, 6240, Note_on_c, 2, 52, 0
4, 6240, Note_on_c, 2, 53, 64
4, 6260, Control_c, 2, 7, 93
4, 6300, Note_on_c, 2, 53, 0
4, 6300, Note_on_c, 2, 38, 64
4, 6300, Control_c, 2, 7, 94
4, 6330, Control_c, 2, 7, 95
4, 6360, Note_on_c, 2, 38, 0
4, 6360, Note_on_c, 2, 47, 64
4, 6360, Control_c, 2, 7, 96
4, 6390, Control_c, 2, 7, 97
4, 6430, Control_c, 2, 7, 98
4, 6460, Control_c, 2, 7, 99
4, 6490, Control_c, 2, 7, 100
4, 6510, Note_on_c, 2, 47, 0
4, 6510, Note_on_c, 2, 48, 64
4, 6520, Control_c, 2, 7, 101
4, 6540, Note_on_c, 2, 48, 0
4, 6540, Note_on_c, 2, 50, 64
4, 6560, Control_c, 2, 7, 102
4, 6570, Note_on_c, 2, 50, 0
4, 6570, Note_on_c, 2, 51, 64
4, 6590, Control_c, 2, 7, 103
4, 6600, Note_on_c, 2, 51, 0
4, 6600, Note_on_c, 2, 53, 64
4, 6620, Control_c, 2, 7, 104
4, 6650, Control_c, 2, 7, 105
4, 6660, Note_on_c, 2, 53, 0
4, 6660, Note_on_c, 2, 50, 64
4, 6680, Control_c, 2, 7, 106
4, 6690, Note_on_c, 2, 50, 0
4, 6690, Note_on_c, 2, 47, 64
4, 6720, Note_on_c, 2, 47, 0
4, 6720, Note_on_c, 2, 44, 64
4, 6720, Control_c, 2, 7, 106
4, 6780, Note_on_c, 2, 44, 0
4, 6780, Note_on_c, 2, 43, 64
4, 6840, Note_on_c, 2, 43, 0
4, 6840, Note_on_c, 2, 41, 64
4, 6870, Note_on_c, 2, 41, 0
4, 6870, Note_on_c, 2, 39, 64
4, 6870, Control_c, 2, 7, 103
4, 6900, Note_on_c, 2, 39, 0
4, 6900, Note_on_c, 2, 38, 64
4, 6910, Control_c, 2, 7, 102
4, 6930, Note_on_c, 2, 38, 0
4, 6930, Note_on_c, 2, 39, 64
4, 6940, Control_c, 2, 7, 101
4, 6960, Note_on_c, 2, 39, 0
4, 6960, Note_on_c, 2, 41, 64
4, 6970, Control_c, 2, 7, 100
4, 6990, Note_on_c, 2, 41, 0
4, 6990, Note_on_c, 2, 56, 64
4, 7000, Control_c, 2, 7, 99
4, 7020, Note_on_c, 2, 56, 0
4, 7020, Note_on_c, 2, 55, 64
4, 7030, Control_c, 2, 7, 98
4, 7050, Note_on_c, 2, 55, 0
4, 7050, Note_on_c, 2, 53, 64
4, 7060, Control_c, 2, 7, 97
4, 7080, Note_on_c, 2, 53, 0
4, 7080, Note_on_c, 2, 51, 64
4, 7090, Control_c, 2, 7, 96
4, 7110, Note_on_c, 2, 51, 0
4, 7110, Note_on_c, 2, 50, 64
4, 7120, Control_c, 2, 7, 95
4, 7140, Note_on_c, 2, 50, 0
4, 7140, Note_on_c, 2, 48, 64
4, 7150, Control_c, 2, 7, 94
4, 7170, Note_on_c, 2, 48, 0
4, 7170, Note_on_c, 2, 46, 64
4, 7180, Control_c, 2, 7, 93
4, 7200, Note_on_c, 2, 46, 0
4, 7200, Note_on_c, 2, 45, 64
4, 7210, Control_c, 2, 7, 92
4, 7260, Note_on_c, 2, 45, 0
4, 7260, Note_on_c, 2, 60, 64
4, 7350, Note_on_c, 2, 60, 0
4, 7350, Note_on_c, 2, 58, 64
4, 7360, Control_c, 2, 7, 93
4, 7380, Note_on_c, 2, 58, 0
4, 7380, Note_on_c, 2, 57, 64
4, 7400, Control_c, 2, 7, 94
4, 7410, Note_on_c, 2, 57, 0
4, 7410, Note_on_c, 2, 55, 64
4, 7430, Control_c, 2, 7, 95
4, 7440, Note_on_c, 2, 55, 0
4, 7440, Note_on_c, 2, 53, 64
4, 7460, Control_c, 2, 7, 96
4, 7470, Note_on_c, 2, 53, 0
4, 7470, Note_on_c, 2, 51, 64
4, 7490, Control_c, 2, 7, 97
4, 7500, Note_on_c, 2, 51, 0
4, 7500, Note_on_c, 2, 49, 64
4, 7530, Note_on_c, 2, 49, 0
4, 7530, Note_on_c, 2, 48, 64
4, 7530, Control_c, 2, 7, 98
4, 7560, Note_on_c, 2, 48, 0
4, 7560, Note_on_c, 2, 46, 64
4, 7560, Control_c, 2, 7, 99
4, 7590, Control_c, 2, 7, 100
4, 7620, Note_on_c, 2, 46, 0
4, 7620, Note_on_c, 2, 49, 64
4, 7620, Control_c, 2, 7, 101
4, 7660, Control_c, 2, 7, 102
4, 7680, Note_on_c, 2, 49, 0
4, 7680, Note_on_c, 2, 53, 64
4, 7690, Control_c, 2, 7, 103
4, 7720, Control_c, 2, 7, 104
4, 7740, Note_on_c, 2, 53, 0
4, 7740, Note_on_c, 2, 57, 64
4, 7750, Control_c, 2, 7, 105
4, 7790, Control_c, 2, 7, 106
4, 7800, Note_on_c, 2, 57, 0
4, 7800, Note_on_c, 2, 58, 64
4, 7820, Control_c, 2, 7, 107
4, 7850, Control_c, 2, 7, 108
4, 7880, Control_c, 2, 7, 109
4, 7950, Note_on_c, 2, 58, 0
4, 7950, Note_on_c, 2, 56, 64
4, 7980, Note_on_c, 2, 56, 0
4, 7980, Note_on_c, 2, 55, 64
4, 8010, Note_on_c, 2, 55, 0
4, 8010, Note_on_c, 2, 53, 64
4, 8040, Note_on_c, 2, 53, 0
4, 8040, Note_on_c, 2, 55, 64
4, 8100, Note_on_c, 2, 55, 0
4, 8100, Note_on_c, 2, 39, 64
4, 8160, Note_on_c, 2, 39, 0
4, 8160, Note_on_c, 2, 49, 64
4, 8310, Note_on_c, 2, 49, 0
4, 8310, Note_on_c, 2, 48, 64
4, 8340, Note_on_c, 2, 48, 0
4, 8340, Note_on_c, 2, 46, 64
4, 8370, Note_on_c, 2, 46, 0
4, 8370, Note_on_c, 2, 48, 64
4, 8400, Note_on_c, 2, 48, 0
4, 8400, Note_on_c, 2, 49, 64
4, 8430, Note_on_c, 2, 49, 0
4, 8430, Note_on_c, 2, 53, 64
4, 8460, Note_on_c, 2, 53, 0
4, 8460, Note_on_c, 2, 51, 64
4, 8490, Note_on_c, 2, 51, 0
4, 8490, Note_on_c, 2, 49, 64
4, 8520, Note_on_c, 2, 49, 0
4, 8520, Note_on_c, 2, 48, 64
4, 8550, Note_on_c, 2, 48, 0
4, 8550, Note_on_c, 2, 46, 64
4, 8580, Note_on_c, 2, 46, 0
4, 8580, Note_on_c, 2, 44, 64
4, 8610, Note_on_c, 2, 44, 0
4, 8610, Note_on_c, 2, 43, 64
4, 8640, Note_on_c, 2, 43, 0
4, 8640, Note_on_c, 2, 41, 64
4, 8650, Control_c, 2, 7, 102
4, 8670, Control_c, 2, 7, 101
4, 8690, Control_c, 2, 7, 100
4, 8700, Note_on_c, 2, 41, 0
4, 8700, Note_on_c, 2, 53, 64
4, 8700, Control_c, 2, 7, 99
4, 8720, Control_c, 2, 7, 98
4, 8740, Control_c, 2, 7, 97
4, 8750, Control_c, 2, 7, 96
4, 8770, Control_c, 2, 7, 95
4, 8790, Note_on_c, 2, 53, 0
4, 8790, Note_on_c, 2, 51, 64
4, 8790, Control_c, 2, 7, 94
4, 8800, Control_c, 2, 7, 93
4, 8820, Note_on_c, 2, 51, 0
4, 8820, Note_on_c, 2, 49, 64
4, 8820, Control_c, 2, 7, 92
4, 8840, Control_c, 2, 7, 91
4, 8850, Note_on_c, 2, 49, 0
4, 8850, Note_on_c, 2, 48, 64
4, 8850, Control_c, 2, 7, 90
4, 8870, Control_c, 2, 7, 89
4, 8880, Note_on_c, 2, 48, 0
4, 8880, Note_on_c, 2, 46, 64
4, 8890, Control_c, 2, 7, 88
4, 8900, Control_c, 2, 7, 87
4, 8910, Note_on_c, 2, 46, 0
4, 8910, Note_on_c, 2, 44, 64
4, 8920, Control_c, 2, 7, 86
4, 8940, Note_on_c, 2, 44, 0
4, 8940, Note_on_c, 2, 43, 64
4, 8940, Control_c, 2, 7, 85
4, 8950, Control_c, 2, 7, 84
4, 8970, Note_on_c, 2, 43, 0
4, 8970, Note_on_c, 2, 46, 64
4, 8970, Control_c, 2, 7, 83
4, 8980, Control_c, 2, 7, 82
4, 9000, Note_on_c, 2, 46, 0
4, 9000, Note_on_c, 2, 39, 64
4, 9060, Note_on_c, 2, 39, 0
4, 9060, Note_on_c, 2, 51, 64
4, 9150, Note_on_c, 2, 51, 0
4, 9150, Note_on_c, 2, 49, 64
4, 9180, Note_on_c, 2, 49, 0
4, 9180, Note_on_c, 2, 48, 64
4, 9210, Note_on_c, 2, 48, 0
4, 9210, Note_on_c, 2, 46, 64
4, 9240, Note_on_c, 2, 46, 0
4, 9240, Note_on_c, 2, 44, 64
4, 9270, Note_on_c, 2, 44, 0
4, 9270, Note_on_c, 2, 42, 64
4, 9300, Note_on_c, 2, 42, 0
4, 9300, Note_on_c, 2, 41, 64
4, 9330, Note_on_c, 2, 41, 0
4, 9330, Note_on_c, 2, 44, 64
4, 9360, Note_on_c, 2, 44, 0
4, 9360, Note_on_c, 2, 37, 64
4, 9420, Note_on_c, 2, 37, 0
4, 9420, Note_on_c, 2, 49, 64
4, 9510, Note_on_c, 2, 49, 0
4, 9510, Note_on_c, 2, 48, 64
4, 9540, Note_on_c, 2, 48, 0
4, 9540, Note_on_c, 2, 46, 64
4, 9570, Note_on_c, 2, 46, 0
4, 9570, Note_on_c, 2, 44, 64
4, 9600, Note_on_c, 2, 44, 0
4, 9600, Note_on_c, 2, 43, 64
4, 9630, Note_on_c, 2, 43, 0
4, 9630, Note_on_c, 2, 41, 64
4, 9660, Note_on_c, 2, 41, 0
4, 9660, Note_on_c, 2, 40, 64
4, 9690, Note_on_c, 2, 40, 0
4, 9690, Note_on_c, 2, 41, 64
4, 9720, Note_on_c, 2, 41, 0
4, 9720, Note_on_c, 2, 36, 64
4, 9860, Control_c, 2, 7, 80
4, 9870, Note_on_c, 2, 36, 0
4, 9870, Note_on_c, 2, 38, 64
4, 9900, Note_on_c, 2, 38, 0
4, 9900, Note_on_c, 2, 40, 64
4, 9900, Control_c, 2, 7, 81
4, 9930, Note_on_c, 2, 40, 0
4, 9930, Note_on_c, 2, 41, 64
4, 9930, Control_c, 2, 7, 82
4, 9960, Note_on_c, 2, 41, 0
4, 9960, Note_on_c, 2, 43, 64
4, 9960, Control_c, 2, 7, 83
4, 9990, Note_on_c, 2, 43, 0
4, 9990, Note_on_c, 2, 44, 64
4, 10000, Control_c, 2, 7, 84
4, 10020, Note_on_c, 2, 44, 0
4, 10020, Note_on_c, 2, 46, 64
4, 10030, Control_c, 2, 7, 85
4, 10050, Note_on_c, 2, 46, 0
4, 10050, Note_on_c, 2, 43, 64
4, 10060, Control_c, 2, 7, 86
4, 10080, Note_on_c, 2, 43, 0
4, 10080, Note_on_c, 2, 44, 64
4, 10100, Control_c, 2, 7, 87
4, 10110, Note_on_c, 2, 44, 0
4, 10110, Note_on_c, 2, 46, 64
4, 10130, Control_c, 2, 7, 88
4, 10140, Note_on_c, 2, 46, 0
4, 10140, Note_on_c, 2, 48, 64
4, 10160, Control_c, 2, 7, 89
4, 10200, Control_c, 2, 7, 90
4, 10230, Note_on_c, 2, 48, 0
4, 10230, Note_on_c, 2, 58, 64
4, 10230, Control_c, 2, 7, 91
4, 10260, Note_on_c, 2, 58, 0
4, 10260, Note_on_c, 2, 56, 64
4, 10260, Control_c, 2, 7, 92
4, 10290, Note_on_c, 2, 56, 0
4, 10290, Note_on_c, 2, 55, 64
4, 10290, Control_c, 2, 7, 93
4, 10320, Note_on_c, 2, 55, 0
4, 10320, Note_on_c, 2, 53, 64
4, 10330, Control_c, 2, 7, 94
4, 10350, Note_on_c, 2, 53, 0
4, 10350, Note_on_c, 2, 51, 64
4, 10360, Control_c, 2, 7, 95
4, 10380, Note_on_c, 2, 51, 0
4, 10380, Note_on_c, 2, 49, 64
4, 10390, Control_c, 2, 7, 96
4, 10410, Note_on_c, 2, 49, 0
4, 10410, Note_on_c, 2, 48, 64
4, 10430, Control_c, 2, 7, 97
4, 10440, Note_on_c, 2, 48, 0
4, 10440, Note_on_c, 2, 46, 64
4, 10460, Control_c, 2, 7, 98
4, 10470, Note_on_c, 2, 46, 0
4, 10470, Note_on_c, 2, 48, 64
4, 10490, Control_c, 2, 7, 99
4, 10500, Note_on_c, 2, 48, 0
4, 10500, Note_on_c, 2, 49, 64
4, 10530, Control_c, 2, 7, 100
4, 10560, Control_c, 2, 7, 101
4, 10590, Note_on_c, 2, 49, 0
4, 10590, Note_on_c, 2, 48, 64
4, 10590, Control_c, 2, 7, 102
4, 10620, Note_on_c, 2, 48, 0
4, 10620, Note_on_c, 2, 46, 64
4, 10620, Control_c, 2, 7, 103
4, 10650, Note_on_c, 2, 46, 0
4, 10650, Note_on_c, 2, 44, 64
4, 10660, Control_c, 2, 7, 104
4, 10680, Note_on_c, 2, 44, 0
4, 10680, Note_on_c, 2, 43, 64
4, 10690, Control_c, 2, 7, 105
4, 10710, Note_on_c, 2, 43, 0
4, 10710, Note_on_c, 2, 41, 64
4, 10720, Control_c, 2, 7, 106
4, 10740, Note_on_c, 2, 41, 0
4, 10740, Note_on_c, 2, 40, 64
4, 10760, Control_c, 2, 7, 107
4, 10770, Note_on_c, 2, 40, 0
4, 10770, Note_on_c, 2, 38, 64
4, 10790, Control_c, 2, 7, 108
4, 10800, Note_on_c, 2, 38, 0
4, 10800, Note_on_c, 2, 36, 64
4, 10820, Control_c, 2, 7, 109
4, 10830, Note_on_c, 2, 36, 0
4, 10830, Note_on_c, 2, 38, 64
4, 10860, Note_on_c, 2, 38, 0
4, 10860, Note_on_c, 2, 40, 64
4, 10860, Control_c, 2, 7, 110
4, 10890, Note_on_c, 2, 40, 0
4, 10890, Note_on_c, 2, 41, 64
4, 10890, Control_c, 2, 7, 111
4, 10920, Note_on_c, 2, 41, 0
4, 10920, Note_on_c, 2, 43, 64
4, 10920, Control_c, 2, 7, 112
4, 10950, Note_on_c, 2, 43, 0
4, 10950, Note_on_c, 2, 44, 64
4, 10950, Control_c, 2, 7, 113
4, 10980, Note_on_c, 2, 44, 0
4, 10980, Note_on_c, 2, 46, 64
4, 11010, Note_on_c, 2, 46, 0
4, 11010, Note_on_c, 2, 43, 64
4, 11040, Note_on_c, 2, 43, 0
4, 11040, Note_on_c, 2, 41, 64
4, 11070, Note_on_c, 2, 41, 0
4, 11070, Note_on_c, 2, 40, 64
4, 11100, Note_on_c, 2, 40, 0
4, 11100, Note_on_c, 2, 41, 64
4, 11130, Note_on_c, 2, 41, 0
4, 11130, Note_on_c, 2, 40, 64
4, 11150, Control_c, 2, 7, 107
4, 11160, Note_on_c, 2, 40, 0
4, 11160, Note_on_c, 2, 41, 64
4, 11180, Control_c, 2, 7, 106
4, 11210, Control_c, 2, 7, 105
4, 11240, Control_c, 2, 7, 104
4, 11270, Control_c, 2, 7, 103
4, 11280, Note_on_c, 2, 41, 0
4, 11300, Control_c, 2, 7, 102
4, 11310, Note_on_c, 2, 48, 64
4, 11330, Control_c, 2, 7, 101
4, 11340, Note_on_c, 2, 48, 0
4, 11340, Note_on_c, 2, 50, 64
4, 11350, Control_c, 2, 7, 100
4, 11370, Note_on_c, 2, 50, 0
4, 11370, Note_on_c, 2, 52, 64
4, 11380, Control_c, 2, 7, 99
4, 11400, Note_on_c, 2, 52, 0
4, 11400, Note_on_c, 2, 53, 64
4, 11410, Control_c, 2, 7, 98
4, 11430, Note_on_c, 2, 53, 0
4, 11430, Note_on_c, 2, 52, 64
4, 11440, Control_c, 2, 7, 97
4, 11460, Note_on_c, 2, 52, 0
4, 11460, Note_on_c, 2, 53, 64
4, 11470, Control_c, 2, 7, 96
4, 11490, Note_on_c, 2, 53, 0
4, 11490, Note_on_c, 2, 55, 64
4, 11500, Control_c, 2, 7, 95
4, 11520, Note_on_c, 2, 55, 0
4, 11520, Note_on_c, 2, 56, 64
4, 11520, Control_c, 2, 7, 94
4, 11550, Note_on_c, 2, 56, 0
4, 11550, Note_on_c, 2, 55, 64
4, 11550, Control_c, 2, 7, 93
4, 11580, Note_on_c, 2, 55, 0
4, 11580, Note_on_c, 2, 56, 64
4, 11580, Control_c, 2, 7, 92
4, 11610, Note_on_c, 2, 56, 0
4, 11610, Note_on_c, 2, 58, 64
4, 11610, Control_c, 2, 7, 91
4, 11640, Note_on_c, 2, 58, 0
4, 11640, Note_on_c, 2, 60, 64
4, 11640, Control_c, 2, 7, 90
4, 11670, Control_c, 2, 7, 89
4, 11690, Control_c, 2, 7, 88
4, 11700, Note_on_c, 2, 60, 0
4, 11700, Note_on_c, 2, 58, 64
4, 11720, Control_c, 2, 7, 87
4, 11750, Control_c, 2, 7, 86
4, 11760, Note_on_c, 2, 58, 0
4, 11760, Note_on_c, 2, 60, 64
4, 11780, Control_c, 2, 7, 85
4, 11810, Control_c, 2, 7, 84
4, 11820, Note_on_c, 2, 60, 0
4, 11820, Note_on_c, 2, 48, 64
4, 11840, Control_c, 2, 7, 83
4, 11870, Control_c, 2, 7, 82
4, 11880, Note_on_c, 2, 48, 0
4, 11880, Note_on_c, 2, 53, 64
4, 11890, Control_c, 2, 7, 81
4, 11920, Control_c, 2, 7, 80
4, 11950, Control_c, 2, 7, 79
4, 11980, Control_c, 2, 7, 78
4, 12010, Control_c, 2, 7, 77
4, 12040, Control_c, 2, 7, 76
4, 12060, Control_c, 2, 7, 75
4, 12090, Control_c, 2, 7, 74
4, 12120, Control_c, 2, 7, 73
4, 12150, Control_c, 2, 7, 72
4, 12180, Control_c, 2, 7, 71
4, 12210, Control_c, 2, 7, 70
4, 12230, Control_c, 2, 7, 69
4, 12240, Note_on_c, 2, 53, 0
4, 12240, End_track
0, 0, End_of_file