0, 0, Header, 1, 13, 384
1, 0, Start_track
1, 0, Title_t, "untitled"
1, 0, Text_t, "harpsichord: John Sankey\012"
1, 0, SMPTE_offset, 96, 0, 3, 0, 0
1, 0, Time_signature, 4, 2, 24, 8
1, 0, Key_signature, 0, "major"
1, 0, Tempo, 909091
1, 29184, Time_signature, 3, 2, 24, 8
1, 30336, Tempo, 750000
1, 66048, Time_signature, 4, 2, 24, 8
1, 66048, Tempo, 714286
1, 201984, Tempo, 731707
1, 202752, Time_signature, 6, 3, 12, 8
1, 202752, End_track
2, 0, Start_track
2, 0, MIDI_port, 0
2, 0, Title_t, "Solo Keyboard"
2, 0, Program_c, 0, 0
2, 0, Control_c, 0, 7, 100
2, 0, Control_c, 0, 10, 64
2, 0, Pitch_bend_c, 0, 8192
2, 10708, Note_on_c, 0, 60, 100
2, 11148, Note_on_c, 0, 60, 0
2, 13127, Note_on_c, 0, 48, 100
2, 13499, Note_on_c, 0, 48, 0
2, 14736, Note_on_c, 0, 60, 100
2, 14826, Note_on_c, 0, 60, 0
2, 20779, Note_on_c, 0, 36, 100
2, 21159, Note_on_c, 0, 36, 0
2, 23072, Note_on_c, 0, 48, 100
2, 23167, Note_on_c, 0, 48, 0
2, 30336, Note_on_c, 0, 60, 100
2, 31486, Note_on_c, 0, 60, 0
2, 33024, Note_on_c, 0, 60, 100
2, 33407, Note_on_c, 0, 60, 0
2, 38424, Note_on_c, 0, 48, 100
2, 38807, Note_on_c, 0, 48, 0
2, 39984, Note_on_c, 0, 72, 100
2, 40175, Note_on_c, 0, 72, 0
2, 47704, Note_on_c, 0, 72, 100
2, 48084, Note_on_c, 0, 72, 0
2, 49656, Note_on_c, 0, 72, 100
2, 50036, Note_on_c, 0, 72, 0
2, 61896, Note_on_c, 0, 72, 100
2, 62471, Note_on_c, 0, 72, 0
2, 62714, Note_on_c, 0, 72, 100
2, 62755, Note_on_c, 0, 72, 0
2, 70072, Note_on_c, 0, 60, 100
2, 70167, Note_on_c, 0, 60, 0
2, 70264, Note_on_c, 0, 60, 100
2, 70359, Note_on_c, 0, 60, 0
2, 70456, Note_on_c, 0, 72, 100
2, 70647, Note_on_c, 0, 72, 0
2, 76216, Note_on_c, 0, 72, 100
2, 76311, Note_on_c, 0, 72, 0
2, 76408, Note_on_c, 0, 72, 100
2, 76503, Note_on_c, 0, 72, 0
2, 76600, Note_on_c, 0, 48, 100
2, 76791, Note_on_c, 0, 48, 0
2, 76984, Note_on_c, 0, 48, 100
2, 77080, Note_on_c, 0, 72, 100
2, 77175, Note_on_c, 0, 72, 0
2, 77175, Note_on_c, 0, 48, 0
2, 95416, Note_on_c, 0, 72, 100
2, 95895, Note_on_c, 0, 72, 0
2, 98104, Note_on_c, 0, 60, 100
2, 98487, Note_on_c, 0, 60, 0
2, 99640, Note_on_c, 0, 72, 100
2, 99831, Note_on_c, 0, 72, 0
2, 100024, Note_on_c, 0, 48, 100
2, 100119, Note_on_c, 0, 48, 0
2, 100216, Note_on_c, 0, 48, 100
2, 100311, Note_on_c, 0, 48, 0
2, 100408, Note_on_c, 0, 72, 100
2, 100599, Note_on_c, 0, 72, 0
2, 100792, Note_on_c, 0, 60, 100
2, 100983, Note_on_c, 0, 60, 0
2, 101272, Note_on_c, 0, 60, 100
2, 101367, Note_on_c, 0, 60, 0
2, 101464, Note_on_c, 0, 60, 100
2, 101559, Note_on_c, 0, 60, 0
2, 116440, Note_on_c, 0, 72, 100
2, 116631, Note_on_c, 0, 72, 0
2, 124408, Note_on_c, 0, 60, 100
2, 124503, Note_on_c, 0, 60, 0
2, 125368, Note_on_c, 0, 48, 100
2, 125558, Note_on_c, 0, 48, 0
2, 125944, Note_on_c, 0, 60, 100
2, 126025, Note_on_c, 0, 60, 0
2, 131608, Note_on_c, 0, 72, 100
2, 131703, Note_on_c, 0, 72, 0
2, 132760, Note_on_c, 0, 72, 100
2, 132855, Note_on_c, 0, 72, 0
2, 133240, Note_on_c, 0, 48, 100
2, 133431, Note_on_c, 0, 48, 0
2, 133528, Note_on_c, 0, 72, 100
2, 133623, Note_on_c, 0, 72, 0
2, 136120, Note_on_c, 0, 48, 100
2, 136311, Note_on_c, 0, 48, 0
2, 136312, Note_on_c, 0, 60, 100
2, 136503, Note_on_c, 0, 60, 0
2, 136984, Note_on_c, 0, 60, 100
2, 137079, Note_on_c, 0, 60, 0
2, 137272, Note_on_c, 0, 60, 100
2, 137655, Note_on_c, 0, 60, 0
2, 139192, Note_on_c, 0, 60, 100
2, 139287, Note_on_c, 0, 60, 0
2, 139384, Note_on_c, 0, 60, 100
2, 139479, Note_on_c, 0, 60, 0
2, 139576, Note_on_c, 0, 72, 100
2, 139767, Note_on_c, 0, 72, 0
2, 140056, Note_on_c, 0, 60, 100
2, 140151, Note_on_c, 0, 60, 0
2, 140632, Note_on_c, 0, 60, 100
2, 140727, Note_on_c, 0, 60, 0
2, 148216, Note_on_c, 0, 48, 100
2, 148407, Note_on_c, 0, 48, 0
2, 151651, Note_on_c, 0, 36, 100
2, 152069, Note_on_c, 0, 36, 0
2, 153235, Note_on_c, 0, 60, 100
2, 153339, Note_on_c, 0, 60, 0
2, 158375, Note_on_c, 0, 60, 100
2, 158513, Note_on_c, 0, 60, 0
2, 168926, Note_on_c, 0, 72, 100
2, 169206, Note_on_c, 0, 72, 0
2, 169310, Note_on_c, 0, 60, 100
2, 169501, Note_on_c, 0, 60, 0
2, 169502, Note_on_c, 0, 60, 100
2, 169693, Note_on_c, 0, 60, 0
2, 173473, Note_on_c, 0, 72, 100
2, 173754, Note_on_c, 0, 72, 0
2, 173850, Note_on_c, 0, 72, 100
2, 174037, Note_on_c, 0, 72, 0
2, 174038, Note_on_c, 0, 72, 100
2, 174225, Note_on_c, 0, 72, 0
2, 182448, Note_on_c, 0, 72, 100
2, 182723, Note_on_c, 0, 72, 0
2, 182818, Note_on_c, 0, 72, 100
2, 183001, Note_on_c, 0, 72, 0
2, 183002, Note_on_c, 0, 72, 100
2, 183185, Note_on_c, 0, 72, 0
2, 200557, Note_on_c, 0, 36, 100
2, 201021, Note_on_c, 0, 36, 0
2, 204418, Note_on_c, 0, 72, 100
2, 204609, Note_on_c, 0, 72, 0
2, 210658, Note_on_c, 0, 60, 100
2, 210753, Note_on_c, 0, 60, 0
2, 211522, Note_on_c, 0, 60, 100
2, 211617, Note_on_c, 0, 60, 0
2, 211906, Note_on_c, 0, 60, 100
2, 212481, Note_on_c, 0, 60, 0
2, 212578, Note_on_c, 0, 48, 100
2, 212673, Note_on_c, 0, 48, 0
2, 213058, Note_on_c, 0, 60, 100
2, 213249, Note_on_c, 0, 60, 0
2, 220546, Note_on_c, 0, 60, 100
2, 220737, Note_on_c, 0, 60, 0
2, 221698, Note_on_c, 0, 60, 100
2, 221793, Note_on_c, 0, 60, 0
2, 221890, Note_on_c, 0, 72, 100
2, 222081, Note_on_c, 0, 72, 0
2, 222466, Note_on_c, 0, 72, 100
2, 222849, Note_on_c, 0, 72, 0
2, 224578, Note_on_c, 0, 72, 100
2, 224769, Note_on_c, 0, 72, 0
2, 232258, Note_on_c, 0, 72, 100
2, 232641, Note_on_c, 0, 72, 0
2, 233602, Note_on_c, 0, 60, 100
2, 233697, Note_on_c, 0, 60, 0
2, 235522, Note_on_c, 0, 72, 100
2, 235713, Note_on_c, 0, 72, 0
2, 236290, Note_on_c, 0, 72, 100
2, 236673, Note_on_c, 0, 72, 0
2, 237634, Note_on_c, 0, 48, 100
2, 237729, Note_on_c, 0, 48, 0
2, 238594, Note_on_c, 0, 72, 100
2, 238977, Note_on_c, 0, 72, 0
2, 259714, Note_on_c, 0, 60, 100
2, 260001, Note_on_c, 0, 60, 0
2, 260001, End_track
3, 0, Start_track
3, 0, MIDI_port, 0
3, 0, Title_t, "--------------------------------------"
3, 0, Program_c, 1, 0
3, 0, Control_c, 1, 7, 100
3, 0, Control_c, 1, 10, 64
3, 0, Pitch_bend_c, 1, 7790
3, 432, Note_on_c, 1, 61, 100
3, 479, Note_on_c, 1, 61, 0
3, 528, Note_on_c, 1, 61, 100
3, 575, Note_on_c, 1, 61, 0
3, 816, Note_on_c, 1, 61, 100
3, 863, Note_on_c, 1, 61, 0
3, 960, Note_on_c, 1, 61, 100
3, 1007, Note_on_c, 1, 61, 0
3, 1248, Note_on_c, 1, 73, 100
3, 1295, Note_on_c, 1, 73, 0
3, 1344, Note_on_c, 1, 73, 100
3, 1391, Note_on_c, 1, 73, 0
3, 1632, Note_on_c, 1, 73, 100
3, 1679, Note_on_c, 1, 73, 0
3, 2160, Note_on_c, 1, 73, 100
3, 2207, Note_on_c, 1, 73, 0
3, 2400, Note_on_c, 1, 61, 100
3, 2447, Note_on_c, 1, 61, 0
3, 2496, Note_on_c, 1, 61, 100
3, 2636, Note_on_c, 1, 61, 0
3, 2640, Note_on_c, 1, 49, 100
3, 2687, Note_on_c, 1, 49, 0
3, 3744, Note_on_c, 1, 73, 100
3, 3791, Note_on_c, 1, 73, 0
3, 3936, Note_on_c, 1, 73, 100
3, 3983, Note_on_c, 1, 73, 0
3, 4032, Note_on_c, 1, 73, 100
3, 4079, Note_on_c, 1, 73, 0
3, 4944, Note_on_c, 1, 61, 100
3, 4991, Note_on_c, 1, 61, 0
3, 5088, Note_on_c, 1, 61, 100
3, 5139, Note_on_c, 1, 61, 0
3, 5904, Note_on_c, 1, 61, 100
3, 5951, Note_on_c, 1, 61, 0
3, 6000, Note_on_c, 1, 61, 100
3, 6090, Note_on_c, 1, 61, 0
3, 6240, Note_on_c, 1, 61, 100
3, 6287, Note_on_c, 1, 61, 0
3, 6648, Note_on_c, 1, 73, 100
3, 6695, Note_on_c, 1, 73, 0
3, 7416, Note_on_c, 1, 73, 100
3, 7511, Note_on_c, 1, 73, 0
3, 7896, Note_on_c, 1, 61, 100
3, 7991, Note_on_c, 1, 61, 0
3, 8376, Note_on_c, 1, 61, 100
3, 8656, Note_on_c, 1, 61, 0
3, 8664, Note_on_c, 1, 61, 100
3, 8759, Note_on_c, 1, 61, 0
3, 9720, Note_on_c, 1, 61, 100
3, 9815, Note_on_c, 1, 61, 0
3, 10200, Note_on_c, 1, 49, 100
3, 10295, Note_on_c, 1, 49, 0
3, 11777, Note_on_c, 1, 61, 100
3, 12260, Note_on_c, 1, 49, 100
3, 12356, Note_on_c, 1, 49, 0
3, 12363, Note_on_c, 1, 61, 0
3, 12465, Note_on_c, 1, 61, 100
3, 12561, Note_on_c, 1, 61, 0
3, 12655, Note_on_c, 1, 61, 100
3, 12751, Note_on_c, 1, 61, 0
3, 13880, Note_on_c, 1, 49, 100
3, 14081, Note_on_c, 1, 73, 100
3, 14168, Note_on_c, 1, 73, 0
3, 14252, Note_on_c, 1, 49, 0
3, 14827, Note_on_c, 1, 61, 100
3, 14917, Note_on_c, 1, 61, 0
3, 15708, Note_on_c, 1, 73, 100
3, 15798, Note_on_c, 1, 73, 0
3, 15980, Note_on_c, 1, 73, 100
3, 16477, Note_on_c, 1, 61, 100
3, 16527, Note_on_c, 1, 73, 0
3, 16567, Note_on_c, 1, 61, 0
3, 17706, Note_on_c, 1, 49, 100
3, 17837, Note_on_c, 1, 73, 100
3, 17927, Note_on_c, 1, 73, 0
3, 18020, Note_on_c, 1, 73, 100
3, 18067, Note_on_c, 1, 49, 0
3, 18110, Note_on_c, 1, 73, 0
3, 18294, Note_on_c, 1, 73, 100
3, 18384, Note_on_c, 1, 73, 0
3, 18477, Note_on_c, 1, 61, 100
3, 18477, Note_on_c, 1, 49, 100
3, 18601, Note_on_c, 1, 73, 100
3, 18691, Note_on_c, 1, 73, 0
3, 18784, Note_on_c, 1, 73, 100
3, 18838, Note_on_c, 1, 49, 0
3, 18838, Note_on_c, 1, 61, 0
3, 18874, Note_on_c, 1, 73, 0
3, 19058, Note_on_c, 1, 73, 100
3, 19148, Note_on_c, 1, 73, 0
3, 19241, Note_on_c, 1, 61, 100
3, 19241, Note_on_c, 1, 49, 100
3, 19507, Note_on_c, 1, 61, 0
3, 19531, Note_on_c, 1, 61, 100
3, 19602, Note_on_c, 1, 49, 0
3, 19621, Note_on_c, 1, 61, 0
3, 19805, Note_on_c, 1, 61, 100
3, 19895, Note_on_c, 1, 61, 0
3, 20370, Note_on_c, 1, 49, 100
3, 20460, Note_on_c, 1, 49, 0
3, 21320, Note_on_c, 1, 61, 100
3, 21415, Note_on_c, 1, 61, 0
3, 21608, Note_on_c, 1, 37, 100
3, 21728, Note_on_c, 1, 61, 100
3, 21823, Note_on_c, 1, 61, 0
3, 22016, Note_on_c, 1, 61, 100
3, 22088, Note_on_c, 1, 37, 0
3, 22111, Note_on_c, 1, 61, 0
3, 22592, Note_on_c, 1, 61, 100
3, 22687, Note_on_c, 1, 61, 0
3, 23168, Note_on_c, 1, 49, 100
3, 23548, Note_on_c, 1, 49, 0
3, 23744, Note_on_c, 1, 49, 100
3, 23934, Note_on_c, 1, 49, 0
3, 24064, Note_on_c, 1, 49, 100
3, 24159, Note_on_c, 1, 49, 0
3, 24262, Note_on_c, 1, 49, 100
3, 24542, Note_on_c, 1, 49, 0
3, 24752, Note_on_c, 1, 61, 100
3, 24872, Note_on_c, 1, 61, 0
3, 24944, Note_on_c, 1, 61, 100
3, 25039, Note_on_c, 1, 61, 0
3, 25144, Note_on_c, 1, 37, 100
3, 25524, Note_on_c, 1, 37, 0
3, 25760, Note_on_c, 1, 61, 100
3, 25855, Note_on_c, 1, 61, 0
3, 25952, Note_on_c, 1, 61, 100
3, 26047, Note_on_c, 1, 61, 0
3, 26864, Note_on_c, 1, 61, 100
3, 27344, Note_on_c, 1, 61, 0
3, 27472, Note_on_c, 1, 61, 100
3, 27662, Note_on_c, 1, 61, 0
3, 29040, Note_on_c, 1, 73, 100
3, 29135, Note_on_c, 1, 73, 0
3, 29760, Note_on_c, 1, 73, 100
3, 29807, Note_on_c, 1, 73, 0
3, 30288, Note_on_c, 1, 61, 100
3, 30335, Note_on_c, 1, 61, 0
3, 31488, Note_on_c, 1, 61, 100
3, 31488, Note_on_c, 1, 49, 100
3, 31871, Note_on_c, 1, 61, 0
3, 31872, Note_on_c, 1, 61, 100
3, 32255, Note_on_c, 1, 61, 0
3, 32256, Note_on_c, 1, 61, 100
3, 32636, Note_on_c, 1, 61, 0
3, 32638, Note_on_c, 1, 49, 0
3, 32640, Note_on_c, 1, 61, 100
3, 33023, Note_on_c, 1, 61, 0
3, 34426, Note_on_c, 1, 49, 100
3, 34487, Note_on_c, 1, 49, 0
3, 34572, Note_on_c, 1, 61, 100
3, 35339, Note_on_c, 1, 61, 0
3, 35352, Note_on_c, 1, 49, 100
3, 35732, Note_on_c, 1, 49, 0
3, 36504, Note_on_c, 1, 49, 100
3, 37271, Note_on_c, 1, 49, 0
3, 38328, Note_on_c, 1, 49, 100
3, 38423, Note_on_c, 1, 49, 0
3, 38808, Note_on_c, 1, 73, 100
3, 38808, Note_on_c, 1, 49, 100
3, 38999, Note_on_c, 1, 49, 0
3, 39188, Note_on_c, 1, 73, 0
3, 39192, Note_on_c, 1, 73, 100
3, 39288, Note_on_c, 1, 49, 100
3, 39341, Note_on_c, 1, 49, 0
3, 39572, Note_on_c, 1, 73, 0
3, 39600, Note_on_c, 1, 73, 100
3, 39980, Note_on_c, 1, 73, 0
3, 40368, Note_on_c, 1, 49, 100
3, 40656, Note_on_c, 1, 61, 100
3, 40748, Note_on_c, 1, 49, 0
3, 40751, Note_on_c, 1, 61, 0
3, 41040, Note_on_c, 1, 73, 100
3, 41135, Note_on_c, 1, 73, 0
3, 41136, Note_on_c, 1, 61, 100
3, 41516, Note_on_c, 1, 61, 0
3, 41520, Note_on_c, 1, 61, 100
3, 41900, Note_on_c, 1, 61, 0
3, 41904, Note_on_c, 1, 61, 100
3, 42287, Note_on_c, 1, 61, 0
3, 42696, Note_on_c, 1, 61, 100
3, 43079, Note_on_c, 1, 61, 0
3, 44232, Note_on_c, 1, 61, 100
3, 44962, Note_on_c, 1, 61, 0
3, 46744, Note_on_c, 1, 73, 100
3, 46935, Note_on_c, 1, 73, 0
3, 46936, Note_on_c, 1, 73, 100
3, 47127, Note_on_c, 1, 73, 0
3, 47608, Note_on_c, 1, 73, 100
3, 47703, Note_on_c, 1, 73, 0
3, 48088, Note_on_c, 1, 73, 100
3, 48088, Note_on_c, 1, 61, 100
3, 48468, Note_on_c, 1, 61, 0
3, 48855, Note_on_c, 1, 73, 0
3, 48856, Note_on_c, 1, 73, 100
3, 49623, Note_on_c, 1, 73, 0
3, 49848, Note_on_c, 1, 73, 100
3, 50039, Note_on_c, 1, 73, 0
3, 50040, Note_on_c, 1, 73, 100
3, 50615, Note_on_c, 1, 73, 0
3, 51000, Note_on_c, 1, 73, 100
3, 51191, Note_on_c, 1, 73, 0
3, 51192, Note_on_c, 1, 73, 100
3, 51192, Note_on_c, 1, 61, 100
3, 51767, Note_on_c, 1, 61, 0
3, 52342, Note_on_c, 1, 73, 0
3, 52920, Note_on_c, 1, 61, 100
3, 53110, Note_on_c, 1, 61, 0
3, 53880, Note_on_c, 1, 73, 100
3, 54360, Note_on_c, 1, 73, 0
3, 54648, Note_on_c, 1, 61, 100
3, 54936, Note_on_c, 1, 73, 100
3, 55031, Note_on_c, 1, 73, 0
3, 55032, Note_on_c, 1, 49, 100
3, 55415, Note_on_c, 1, 61, 0
3, 55799, Note_on_c, 1, 49, 0
3, 56088, Note_on_c, 1, 61, 100
3, 56183, Note_on_c, 1, 61, 0
3, 56472, Note_on_c, 1, 61, 100
3, 56567, Note_on_c, 1, 61, 0
3, 56568, Note_on_c, 1, 61, 100
3, 57048, Note_on_c, 1, 61, 0
3, 57624, Note_on_c, 1, 73, 100
3, 57719, Note_on_c, 1, 73, 0
3, 57912, Note_on_c, 1, 73, 100
3, 58007, Note_on_c, 1, 73, 0
3, 58104, Note_on_c, 1, 49, 100
3, 58488, Note_on_c, 1, 73, 100
3, 58679, Note_on_c, 1, 73, 0
3, 58679, Note_on_c, 1, 49, 0
3, 58680, Note_on_c, 1, 49, 100
3, 58870, Note_on_c, 1, 49, 0
3, 59352, Note_on_c, 1, 73, 100
3, 59447, Note_on_c, 1, 73, 0
3, 59640, Note_on_c, 1, 61, 100
3, 59640, Note_on_c, 1, 49, 100
3, 60020, Note_on_c, 1, 61, 0
3, 60407, Note_on_c, 1, 49, 0
3, 61460, Note_on_c, 1, 73, 100
3, 61507, Note_on_c, 1, 73, 0
3, 62512, Note_on_c, 1, 73, 100
3, 62559, Note_on_c, 1, 73, 0
3, 62618, Note_on_c, 1, 73, 100
3, 62681, Note_on_c, 1, 73, 0
3, 62752, Note_on_c, 1, 73, 100
3, 62752, Note_on_c, 1, 61, 100
3, 63232, Note_on_c, 1, 61, 0
3, 63924, Note_on_c, 1, 73, 0
3, 64338, Note_on_c, 1, 73, 100
3, 64338, Note_on_c, 1, 49, 100
3, 65337, Note_on_c, 1, 49, 0
3, 65388, Note_on_c, 1, 73, 0
3, 66040, Note_on_c, 1, 73, 100
3, 66231, Note_on_c, 1, 73, 0
3, 66424, Note_on_c, 1, 73, 100
3, 66615, Note_on_c, 1, 73, 0
3, 67768, Note_on_c, 1, 61, 100
3, 67959, Note_on_c, 1, 61, 0
3, 69784, Note_on_c, 1, 61, 100
3, 69879, Note_on_c, 1, 61, 0
3, 69976, Note_on_c, 1, 61, 100
3, 70071, Note_on_c, 1, 61, 0
3, 70264, Note_on_c, 1, 73, 100
3, 70455, Note_on_c, 1, 73, 0
3, 71128, Note_on_c, 1, 49, 100
3, 71223, Note_on_c, 1, 49, 0
3, 71608, Note_on_c, 1, 49, 100
3, 71608, Note_on_c, 1, 73, 100
3, 71799, Note_on_c, 1, 49, 0
3, 71800, Note_on_c, 1, 61, 100
3, 71895, Note_on_c, 1, 61, 0
3, 71991, Note_on_c, 1, 73, 0
3, 71992, Note_on_c, 1, 73, 100
3, 72183, Note_on_c, 1, 73, 0
3, 72856, Note_on_c, 1, 73, 100
3, 72951, Note_on_c, 1, 73, 0
3, 73048, Note_on_c, 1, 73, 100
3, 73143, Note_on_c, 1, 73, 0
3, 73720, Note_on_c, 1, 73, 100
3, 73911, Note_on_c, 1, 73, 0
3, 74392, Note_on_c, 1, 73, 100
3, 74487, Note_on_c, 1, 73, 0
3, 74584, Note_on_c, 1, 73, 100
3, 74679, Note_on_c, 1, 73, 0
3, 75448, Note_on_c, 1, 61, 100
3, 75639, Note_on_c, 1, 61, 0
3, 75928, Note_on_c, 1, 73, 100
3, 76023, Note_on_c, 1, 73, 0
3, 76120, Note_on_c, 1, 73, 100
3, 76215, Note_on_c, 1, 73, 0
3, 76312, Note_on_c, 1, 73, 100
3, 76407, Note_on_c, 1, 73, 0
3, 76408, Note_on_c, 1, 49, 100
3, 76504, Note_on_c, 1, 73, 100
3, 76599, Note_on_c, 1, 73, 0
3, 76599, Note_on_c, 1, 49, 0
3, 76792, Note_on_c, 1, 49, 100
3, 76983, Note_on_c, 1, 49, 0
3, 77176, Note_on_c, 1, 73, 100
3, 77486, Note_on_c, 1, 73, 0
3, 77752, Note_on_c, 1, 49, 100
3, 77847, Note_on_c, 1, 49, 0
3, 77848, Note_on_c, 1, 61, 100
3, 78039, Note_on_c, 1, 61, 0
3, 78040, Note_on_c, 1, 61, 100
3, 78135, Note_on_c, 1, 61, 0
3, 78232, Note_on_c, 1, 61, 100
3, 78327, Note_on_c, 1, 61, 0
3, 78520, Note_on_c, 1, 61, 100
3, 78615, Note_on_c, 1, 61, 0
3, 78712, Note_on_c, 1, 61, 100
3, 78807, Note_on_c, 1, 61, 0
3, 79096, Note_on_c, 1, 49, 100
3, 79287, Note_on_c, 1, 49, 0
3, 79384, Note_on_c, 1, 61, 100
3, 79479, Note_on_c, 1, 61, 0
3, 79576, Note_on_c, 1, 61, 100
3, 79671, Note_on_c, 1, 61, 0
3, 80248, Note_on_c, 1, 61, 100
3, 80343, Note_on_c, 1, 61, 0
3, 80824, Note_on_c, 1, 73, 100
3, 81264, Note_on_c, 1, 73, 0
3, 81304, Note_on_c, 1, 73, 100
3, 81399, Note_on_c, 1, 73, 0
3, 81496, Note_on_c, 1, 73, 100
3, 81591, Note_on_c, 1, 73, 0
3, 82360, Note_on_c, 1, 61, 100
3, 82456, Note_on_c, 1, 73, 100
3, 82551, Note_on_c, 1, 73, 0
3, 82551, Note_on_c, 1, 61, 0
3, 82552, Note_on_c, 1, 49, 100
3, 82648, Note_on_c, 1, 73, 100
3, 82743, Note_on_c, 1, 73, 0
3, 82743, Note_on_c, 1, 49, 0
3, 82840, Note_on_c, 1, 49, 100
3, 82935, Note_on_c, 1, 49, 0
3, 82936, Note_on_c, 1, 73, 100
3, 83032, Note_on_c, 1, 49, 100
3, 83127, Note_on_c, 1, 49, 0
3, 83127, Note_on_c, 1, 73, 0
3, 83320, Note_on_c, 1, 73, 100
3, 83511, Note_on_c, 1, 73, 0
3, 83704, Note_on_c, 1, 61, 100
3, 83895, Note_on_c, 1, 61, 0
3, 84664, Note_on_c, 1, 61, 100
3, 84760, Note_on_c, 1, 49, 100
3, 84855, Note_on_c, 1, 49, 0
3, 84855, Note_on_c, 1, 61, 0
3, 85048, Note_on_c, 1, 49, 100
3, 85431, Note_on_c, 1, 49, 0
3, 86008, Note_on_c, 1, 49, 100
3, 86104, Note_on_c, 1, 73, 100
3, 86199, Note_on_c, 1, 73, 0
3, 86199, Note_on_c, 1, 49, 0
3, 86584, Note_on_c, 1, 61, 100
3, 86775, Note_on_c, 1, 61, 0
3, 87448, Note_on_c, 1, 73, 100
3, 87568, Note_on_c, 1, 73, 0
3, 87736, Note_on_c, 1, 49, 100
3, 87736, Note_on_c, 1, 73, 100
3, 87926, Note_on_c, 1, 73, 0
3, 87927, Note_on_c, 1, 49, 0
3, 87928, Note_on_c, 1, 61, 100
3, 87928, Note_on_c, 1, 73, 100
3, 88119, Note_on_c, 1, 61, 0
3, 88311, Note_on_c, 1, 73, 0
3, 88792, Note_on_c, 1, 73, 100
3, 88912, Note_on_c, 1, 73, 0
3, 89080, Note_on_c, 1, 73, 100
3, 89271, Note_on_c, 1, 73, 0
3, 89848, Note_on_c, 1, 61, 100
3, 89848, Note_on_c, 1, 73, 100
3, 90039, Note_on_c, 1, 73, 0
3, 90039, Note_on_c, 1, 61, 0
3, 90424, Note_on_c, 1, 73, 100
3, 90615, Note_on_c, 1, 73, 0
3, 91000, Note_on_c, 1, 73, 100
3, 91383, Note_on_c, 1, 73, 0
3, 91576, Note_on_c, 1, 61, 100
3, 91766, Note_on_c, 1, 61, 0
3, 91864, Note_on_c, 1, 73, 100
3, 91959, Note_on_c, 1, 73, 0
3, 92056, Note_on_c, 1, 73, 100
3, 92151, Note_on_c, 1, 73, 0
3, 92344, Note_on_c, 1, 73, 100
3, 92631, Note_on_c, 1, 73, 0
3, 92632, Note_on_c, 1, 73, 100
3, 92727, Note_on_c, 1, 73, 0
3, 92920, Note_on_c, 1, 61, 100
3, 93111, Note_on_c, 1, 61, 0
3, 93208, Note_on_c, 1, 73, 100
3, 93303, Note_on_c, 1, 73, 0
3, 93400, Note_on_c, 1, 73, 100
3, 93495, Note_on_c, 1, 73, 0
3, 94072, Note_on_c, 1, 73, 100
3, 94167, Note_on_c, 1, 73, 0
3, 94264, Note_on_c, 1, 73, 100
3, 94312, Note_on_c, 1, 73, 0
3, 94360, Note_on_c, 1, 73, 100
3, 94408, Note_on_c, 1, 73, 0
3, 94744, Note_on_c, 1, 73, 100
3, 94839, Note_on_c, 1, 73, 0
3, 94936, Note_on_c, 1, 73, 100
3, 95031, Note_on_c, 1, 73, 0
3, 95224, Note_on_c, 1, 49, 100
3, 95319, Note_on_c, 1, 49, 0
3, 95800, Note_on_c, 1, 61, 100
3, 95896, Note_on_c, 1, 73, 100
3, 95991, Note_on_c, 1, 73, 0
3, 96088, Note_on_c, 1, 73, 100
3, 96183, Note_on_c, 1, 73, 0
3, 96279, Note_on_c, 1, 61, 0
3, 97336, Note_on_c, 1, 61, 100
3, 97432, Note_on_c, 1, 73, 100
3, 97527, Note_on_c, 1, 73, 0
3, 97624, Note_on_c, 1, 73, 100
3, 97719, Note_on_c, 1, 73, 0
3, 97815, Note_on_c, 1, 61, 0
3, 97912, Note_on_c, 1, 61, 100
3, 98007, Note_on_c, 1, 61, 0
3, 98488, Note_on_c, 1, 37, 100
3, 98488, Note_on_c, 1, 61, 100
3, 98583, Note_on_c, 1, 37, 0
3, 99063, Note_on_c, 1, 61, 0
3, 99736, Note_on_c, 1, 49, 100
3, 99831, Note_on_c, 1, 49, 0
3, 99928, Note_on_c, 1, 49, 100
3, 100023, Note_on_c, 1, 49, 0
3, 100120, Note_on_c, 1, 49, 100
3, 100215, Note_on_c, 1, 49, 0
3, 100216, Note_on_c, 1, 73, 100
3, 100312, Note_on_c, 1, 49, 100
3, 100407, Note_on_c, 1, 49, 0
3, 100407, Note_on_c, 1, 73, 0
3, 100600, Note_on_c, 1, 61, 100
3, 100791, Note_on_c, 1, 61, 0
3, 100984, Note_on_c, 1, 61, 100
3, 101271, Note_on_c, 1, 61, 0
3, 101560, Note_on_c, 1, 49, 100
3, 101560, Note_on_c, 1, 61, 100
3, 101940, Note_on_c, 1, 61, 0
3, 101940, Note_on_c, 1, 49, 0
3, 102040, Note_on_c, 1, 61, 100
3, 102135, Note_on_c, 1, 61, 0
3, 102232, Note_on_c, 1, 61, 100
3, 102327, Note_on_c, 1, 61, 0
3, 102424, Note_on_c, 1, 61, 100
3, 102519, Note_on_c, 1, 61, 0
3, 102616, Note_on_c, 1, 61, 100
3, 102711, Note_on_c, 1, 61, 0
3, 103096, Note_on_c, 1, 61, 100
3, 103191, Note_on_c, 1, 61, 0
3, 103288, Note_on_c, 1, 61, 100
3, 103383, Note_on_c, 1, 61, 0
3, 104248, Note_on_c, 1, 73, 100
3, 104631, Note_on_c, 1, 73, 0
3, 105304, Note_on_c, 1, 49, 100
3, 105399, Note_on_c, 1, 49, 0
3, 105592, Note_on_c, 1, 49, 100
3, 105687, Note_on_c, 1, 49, 0
3, 105784, Note_on_c, 1, 49, 100
3, 105879, Note_on_c, 1, 49, 0
3, 105976, Note_on_c, 1, 49, 100
3, 105976, Note_on_c, 1, 73, 100
3, 106167, Note_on_c, 1, 73, 0
3, 106167, Note_on_c, 1, 49, 0
3, 106360, Note_on_c, 1, 73, 100
3, 106456, Note_on_c, 1, 61, 100
3, 106551, Note_on_c, 1, 61, 0
3, 106551, Note_on_c, 1, 73, 0
3, 106648, Note_on_c, 1, 61, 100
3, 106743, Note_on_c, 1, 61, 0
3, 106840, Note_on_c, 1, 61, 100
3, 106935, Note_on_c, 1, 61, 0
3, 107704, Note_on_c, 1, 61, 100
3, 107800, Note_on_c, 1, 49, 100
3, 107895, Note_on_c, 1, 49, 0
3, 107895, Note_on_c, 1, 61, 0
3, 109240, Note_on_c, 1, 61, 100
3, 109528, Note_on_c, 1, 73, 100
3, 109623, Note_on_c, 1, 73, 0
3, 109690, Note_on_c, 1, 61, 0
3, 109816, Note_on_c, 1, 61, 100
3, 109911, Note_on_c, 1, 61, 0
3, 110104, Note_on_c, 1, 73, 100
3, 110199, Note_on_c, 1, 73, 0
3, 111064, Note_on_c, 1, 73, 100
3, 111159, Note_on_c, 1, 73, 0
3, 111736, Note_on_c, 1, 73, 100
3, 112023, Note_on_c, 1, 73, 0
3, 112312, Note_on_c, 1, 61, 100
3, 112862, Note_on_c, 1, 61, 0
3, 112984, Note_on_c, 1, 61, 100
3, 113079, Note_on_c, 1, 61, 0
3, 113848, Note_on_c, 1, 49, 100
3, 114039, Note_on_c, 1, 49, 0
3, 114232, Note_on_c, 1, 61, 100
3, 114327, Note_on_c, 1, 61, 0
3, 114424, Note_on_c, 1, 61, 100
3, 114519, Note_on_c, 1, 61, 0
3, 115000, Note_on_c, 1, 61, 100
3, 115095, Note_on_c, 1, 61, 0
3, 115768, Note_on_c, 1, 73, 100
3, 115959, Note_on_c, 1, 73, 0
3, 116152, Note_on_c, 1, 73, 100
3, 116343, Note_on_c, 1, 73, 0
3, 116632, Note_on_c, 1, 73, 100
3, 116823, Note_on_c, 1, 73, 0
3, 116920, Note_on_c, 1, 49, 100
3, 117015, Note_on_c, 1, 49, 0
3, 117112, Note_on_c, 1, 73, 100
3, 117303, Note_on_c, 1, 73, 0
3, 117880, Note_on_c, 1, 49, 100
3, 117975, Note_on_c, 1, 49, 0
3, 118072, Note_on_c, 1, 73, 100
3, 118263, Note_on_c, 1, 73, 0
3, 119032, Note_on_c, 1, 61, 100
3, 119127, Note_on_c, 1, 61, 0
3, 119128, Note_on_c, 1, 49, 100
3, 119223, Note_on_c, 1, 49, 0
3, 119416, Note_on_c, 1, 49, 100
3, 119416, Note_on_c, 1, 73, 100
3, 119511, Note_on_c, 1, 73, 0
3, 119607, Note_on_c, 1, 49, 0
3, 119800, Note_on_c, 1, 73, 100
3, 119991, Note_on_c, 1, 73, 0
3, 120376, Note_on_c, 1, 61, 100
3, 120567, Note_on_c, 1, 61, 0
3, 120760, Note_on_c, 1, 73, 100
3, 120856, Note_on_c, 1, 61, 100
3, 120951, Note_on_c, 1, 61, 0
3, 120951, Note_on_c, 1, 73, 0
3, 121048, Note_on_c, 1, 61, 100
3, 121143, Note_on_c, 1, 61, 0
3, 121720, Note_on_c, 1, 61, 100
3, 121910, Note_on_c, 1, 61, 0
3, 122680, Note_on_c, 1, 61, 100
3, 122871, Note_on_c, 1, 61, 0
3, 123256, Note_on_c, 1, 61, 100
3, 123351, Note_on_c, 1, 61, 0
3, 123640, Note_on_c, 1, 61, 100
3, 123831, Note_on_c, 1, 61, 0
3, 124600, Note_on_c, 1, 61, 100
3, 124696, Note_on_c, 1, 49, 100
3, 124791, Note_on_c, 1, 49, 0
3, 124791, Note_on_c, 1, 61, 0
3, 124888, Note_on_c, 1, 49, 100
3, 124983, Note_on_c, 1, 49, 0
3, 124984, Note_on_c, 1, 61, 100
3, 125175, Note_on_c, 1, 61, 0
3, 125272, Note_on_c, 1, 49, 100
3, 125367, Note_on_c, 1, 49, 0
3, 125560, Note_on_c, 1, 61, 100
3, 125656, Note_on_c, 1, 49, 100
3, 125751, Note_on_c, 1, 49, 0
3, 125943, Note_on_c, 1, 61, 0
3, 126136, Note_on_c, 1, 49, 100
3, 126136, Note_on_c, 1, 61, 100
3, 126326, Note_on_c, 1, 49, 0
3, 126327, Note_on_c, 1, 61, 0
3, 126424, Note_on_c, 1, 49, 100
3, 126519, Note_on_c, 1, 49, 0
3, 126616, Note_on_c, 1, 49, 100
3, 126711, Note_on_c, 1, 49, 0
3, 126808, Note_on_c, 1, 49, 100
3, 126903, Note_on_c, 1, 49, 0
3, 127000, Note_on_c, 1, 73, 100
3, 127095, Note_on_c, 1, 73, 0
3, 127192, Note_on_c, 1, 73, 100
3, 127287, Note_on_c, 1, 73, 0
3, 127672, Note_on_c, 1, 73, 100
3, 127863, Note_on_c, 1, 73, 0
3, 128056, Note_on_c, 1, 49, 100
3, 128247, Note_on_c, 1, 49, 0
3, 128440, Note_on_c, 1, 73, 100
3, 128680, Note_on_c, 1, 73, 0
3, 129208, Note_on_c, 1, 73, 100
3, 129303, Note_on_c, 1, 73, 0
3, 129400, Note_on_c, 1, 73, 100
3, 129495, Note_on_c, 1, 73, 0
3, 129592, Note_on_c, 1, 73, 100
3, 129687, Note_on_c, 1, 73, 0
3, 130552, Note_on_c, 1, 73, 100
3, 130839, Note_on_c, 1, 73, 0
3, 134392, Note_on_c, 1, 73, 100
3, 134679, Note_on_c, 1, 73, 0
3, 134872, Note_on_c, 1, 73, 100
3, 134967, Note_on_c, 1, 73, 0
3, 135160, Note_on_c, 1, 73, 100
3, 135255, Note_on_c, 1, 73, 0
3, 135352, Note_on_c, 1, 49, 100
3, 135543, Note_on_c, 1, 49, 0
3, 135928, Note_on_c, 1, 49, 100
3, 136119, Note_on_c, 1, 49, 0
3, 136504, Note_on_c, 1, 61, 100
3, 136983, Note_on_c, 1, 61, 0
3, 137080, Note_on_c, 1, 61, 100
3, 137271, Note_on_c, 1, 61, 0
3, 137560, Note_on_c, 1, 73, 100
3, 137655, Note_on_c, 1, 73, 0
3, 137656, Note_on_c, 1, 49, 100
3, 137656, Note_on_c, 1, 61, 100
3, 137656, Note_on_c, 1, 73, 100
3, 137751, Note_on_c, 1, 61, 0
3, 138036, Note_on_c, 1, 73, 0
3, 138039, Note_on_c, 1, 49, 0
3, 138904, Note_on_c, 1, 61, 100
3, 138999, Note_on_c, 1, 61, 0
3, 139096, Note_on_c, 1, 61, 100
3, 139191, Note_on_c, 1, 61, 0
3, 139288, Note_on_c, 1, 61, 100
3, 139383, Note_on_c, 1, 61, 0
3, 139384, Note_on_c, 1, 73, 100
3, 139480, Note_on_c, 1, 61, 100
3, 139575, Note_on_c, 1, 61, 0
3, 139575, Note_on_c, 1, 73, 0
3, 140152, Note_on_c, 1, 61, 100
3, 140247, Note_on_c, 1, 61, 0
3, 140344, Note_on_c, 1, 61, 100
3, 140631, Note_on_c, 1, 61, 0
3, 140728, Note_on_c, 1, 61, 100
3, 140728, Note_on_c, 1, 73, 100
3, 140823, Note_on_c, 1, 61, 0
3, 140920, Note_on_c, 1, 61, 100
3, 141008, Note_on_c, 1, 73, 0
3, 141015, Note_on_c, 1, 61, 0
3, 142264, Note_on_c, 1, 73, 100
3, 142360, Note_on_c, 1, 61, 100
3, 142455, Note_on_c, 1, 61, 0
3, 142455, Note_on_c, 1, 73, 0
3, 142744, Note_on_c, 1, 73, 100
3, 142839, Note_on_c, 1, 73, 0
3, 144664, Note_on_c, 1, 73, 100
3, 144759, Note_on_c, 1, 73, 0
3, 145912, Note_on_c, 1, 61, 100
3, 145912, Note_on_c, 1, 73, 100
3, 146007, Note_on_c, 1, 73, 0
3, 146103, Note_on_c, 1, 61, 0
3, 146200, Note_on_c, 1, 61, 100
3, 146295, Note_on_c, 1, 61, 0
3, 146680, Note_on_c, 1, 49, 100
3, 146871, Note_on_c, 1, 49, 0
3, 147064, Note_on_c, 1, 49, 100
3, 147160, Note_on_c, 1, 73, 100
3, 147255, Note_on_c, 1, 73, 0
3, 147255, Note_on_c, 1, 49, 0
3, 147352, Note_on_c, 1, 73, 100
3, 147447, Note_on_c, 1, 73, 0
3, 147544, Note_on_c, 1, 73, 100
3, 147639, Note_on_c, 1, 73, 0
3, 148024, Note_on_c, 1, 49, 100
3, 148215, Note_on_c, 1, 49, 0
3, 148417, Note_on_c, 1, 49, 100
3, 148417, Note_on_c, 1, 37, 100
3, 148516, Note_on_c, 1, 49, 0
3, 148820, Note_on_c, 1, 61, 100
3, 149322, Note_on_c, 1, 61, 0
3, 149324, Note_on_c, 1, 61, 100
3, 149423, Note_on_c, 1, 61, 0
3, 149726, Note_on_c, 1, 37, 0
3, 149727, Note_on_c, 1, 49, 100
3, 149826, Note_on_c, 1, 49, 0
3, 149828, Note_on_c, 1, 73, 100
3, 150028, Note_on_c, 1, 73, 0
3, 150030, Note_on_c, 1, 61, 100
3, 150230, Note_on_c, 1, 61, 0
3, 150231, Note_on_c, 1, 61, 100
3, 150431, Note_on_c, 1, 61, 0
3, 150534, Note_on_c, 1, 49, 100
3, 150633, Note_on_c, 1, 49, 0
3, 150634, Note_on_c, 1, 73, 100
3, 150735, Note_on_c, 1, 49, 100
3, 150834, Note_on_c, 1, 49, 0
3, 150834, Note_on_c, 1, 73, 0
3, 152390, Note_on_c, 1, 73, 100
3, 152494, Note_on_c, 1, 73, 0
3, 153341, Note_on_c, 1, 73, 100
3, 153341, Note_on_c, 1, 61, 100
3, 153867, Note_on_c, 1, 61, 0
3, 153867, Note_on_c, 1, 73, 0
3, 153974, Note_on_c, 1, 73, 100
3, 154078, Note_on_c, 1, 73, 0
3, 154305, Note_on_c, 1, 73, 100
3, 154414, Note_on_c, 1, 73, 0
3, 154746, Note_on_c, 1, 73, 100
3, 154855, Note_on_c, 1, 73, 0
3, 155077, Note_on_c, 1, 73, 100
3, 155188, Note_on_c, 1, 61, 100
3, 155297, Note_on_c, 1, 61, 0
3, 155629, Note_on_c, 1, 61, 100
3, 155738, Note_on_c, 1, 61, 0
3, 155738, Note_on_c, 1, 73, 0
3, 155961, Note_on_c, 1, 61, 100
3, 156071, Note_on_c, 1, 49, 100
3, 156180, Note_on_c, 1, 49, 0
3, 156401, Note_on_c, 1, 61, 0
3, 156513, Note_on_c, 1, 49, 100
3, 156622, Note_on_c, 1, 49, 0
3, 156853, Note_on_c, 1, 49, 100
3, 157773, Note_on_c, 1, 49, 0
3, 158538, Note_on_c, 1, 61, 100
3, 159162, Note_on_c, 1, 61, 0
3, 159557, Note_on_c, 1, 73, 100
3, 160045, Note_on_c, 1, 73, 0
3, 160046, Note_on_c, 1, 73, 100
3, 160142, Note_on_c, 1, 73, 0
3, 161123, Note_on_c, 1, 49, 100
3, 161319, Note_on_c, 1, 61, 100
3, 161415, Note_on_c, 1, 49, 0
3, 161706, Note_on_c, 1, 61, 0
3, 161711, Note_on_c, 1, 73, 100
3, 161711, Note_on_c, 1, 61, 100
3, 161807, Note_on_c, 1, 73, 0
3, 161905, Note_on_c, 1, 61, 0
3, 161907, Note_on_c, 1, 61, 100
3, 162005, Note_on_c, 1, 73, 100
3, 162101, Note_on_c, 1, 73, 0
3, 162200, Note_on_c, 1, 73, 100
3, 162294, Note_on_c, 1, 61, 0
3, 162296, Note_on_c, 1, 73, 0
3, 162396, Note_on_c, 1, 73, 100
3, 162492, Note_on_c, 1, 73, 0
3, 162690, Note_on_c, 1, 61, 100
3, 162975, Note_on_c, 1, 61, 0
3, 163082, Note_on_c, 1, 49, 100
3, 163276, Note_on_c, 1, 49, 0
3, 163277, Note_on_c, 1, 49, 100
3, 163471, Note_on_c, 1, 49, 0
3, 164550, Note_on_c, 1, 49, 100
3, 164646, Note_on_c, 1, 49, 0
3, 165823, Note_on_c, 1, 49, 100
3, 166019, Note_on_c, 1, 61, 100
3, 166115, Note_on_c, 1, 49, 0
3, 166406, Note_on_c, 1, 61, 0
3, 166411, Note_on_c, 1, 73, 100
3, 166411, Note_on_c, 1, 61, 100
3, 166507, Note_on_c, 1, 73, 0
3, 166605, Note_on_c, 1, 61, 0
3, 166607, Note_on_c, 1, 61, 100
3, 166705, Note_on_c, 1, 73, 100
3, 166801, Note_on_c, 1, 73, 0
3, 166901, Note_on_c, 1, 73, 100
3, 166994, Note_on_c, 1, 61, 0
3, 166997, Note_on_c, 1, 73, 0
3, 167096, Note_on_c, 1, 73, 100
3, 167192, Note_on_c, 1, 73, 0
3, 167486, Note_on_c, 1, 61, 100
3, 167581, Note_on_c, 1, 61, 0
3, 167774, Note_on_c, 1, 73, 100
3, 167965, Note_on_c, 1, 73, 0
3, 167966, Note_on_c, 1, 73, 100
3, 168056, Note_on_c, 1, 73, 0
3, 168062, Note_on_c, 1, 73, 100
3, 168157, Note_on_c, 1, 73, 0
3, 169214, Note_on_c, 1, 73, 100
3, 169309, Note_on_c, 1, 73, 0
3, 169694, Note_on_c, 1, 73, 100
3, 169694, Note_on_c, 1, 61, 100
3, 169789, Note_on_c, 1, 61, 0
3, 170074, Note_on_c, 1, 73, 0
3, 170078, Note_on_c, 1, 61, 100
3, 170173, Note_on_c, 1, 61, 0
3, 170366, Note_on_c, 1, 61, 100
3, 170413, Note_on_c, 1, 61, 0
3, 170650, Note_on_c, 1, 73, 100
3, 170743, Note_on_c, 1, 73, 0
3, 170838, Note_on_c, 1, 73, 100
3, 171025, Note_on_c, 1, 73, 0
3, 171026, Note_on_c, 1, 61, 100
3, 171026, Note_on_c, 1, 73, 100
3, 171119, Note_on_c, 1, 61, 0
3, 171213, Note_on_c, 1, 73, 0
3, 171214, Note_on_c, 1, 73, 100
3, 171309, Note_on_c, 1, 61, 100
3, 171402, Note_on_c, 1, 61, 0
3, 171497, Note_on_c, 1, 61, 100
3, 171586, Note_on_c, 1, 73, 0
3, 171590, Note_on_c, 1, 61, 0
3, 171685, Note_on_c, 1, 61, 100
3, 171778, Note_on_c, 1, 61, 0
3, 172250, Note_on_c, 1, 73, 100
3, 172343, Note_on_c, 1, 73, 0
3, 173756, Note_on_c, 1, 73, 100
3, 173849, Note_on_c, 1, 73, 0
3, 174414, Note_on_c, 1, 61, 100
3, 174414, Note_on_c, 1, 73, 100
3, 174507, Note_on_c, 1, 61, 0
3, 174600, Note_on_c, 1, 73, 0
3, 174791, Note_on_c, 1, 49, 100
3, 174884, Note_on_c, 1, 49, 0
3, 175073, Note_on_c, 1, 61, 100
3, 175166, Note_on_c, 1, 61, 0
3, 175356, Note_on_c, 1, 73, 100
3, 175543, Note_on_c, 1, 73, 0
3, 175544, Note_on_c, 1, 73, 100
3, 175638, Note_on_c, 1, 49, 100
3, 175731, Note_on_c, 1, 49, 0
3, 175731, Note_on_c, 1, 73, 0
3, 175732, Note_on_c, 1, 73, 100
3, 175919, Note_on_c, 1, 73, 0
3, 176673, Note_on_c, 1, 61, 100
3, 176766, Note_on_c, 1, 61, 0
3, 176862, Note_on_c, 1, 61, 100
3, 177049, Note_on_c, 1, 61, 0
3, 177050, Note_on_c, 1, 49, 100
3, 177050, Note_on_c, 1, 61, 100
3, 177143, Note_on_c, 1, 49, 0
3, 177237, Note_on_c, 1, 61, 0
3, 177238, Note_on_c, 1, 61, 100
3, 177332, Note_on_c, 1, 49, 100
3, 177425, Note_on_c, 1, 49, 0
3, 177520, Note_on_c, 1, 49, 100
3, 177610, Note_on_c, 1, 61, 0
3, 177613, Note_on_c, 1, 49, 0
3, 177709, Note_on_c, 1, 49, 100
3, 177802, Note_on_c, 1, 49, 0
3, 178273, Note_on_c, 1, 61, 100
3, 178366, Note_on_c, 1, 61, 0
3, 180233, Note_on_c, 1, 49, 100
3, 180324, Note_on_c, 1, 49, 0
3, 180602, Note_on_c, 1, 49, 100
3, 180693, Note_on_c, 1, 49, 0
3, 181064, Note_on_c, 1, 61, 100
3, 181155, Note_on_c, 1, 61, 0
3, 181341, Note_on_c, 1, 73, 100
3, 181524, Note_on_c, 1, 73, 0
3, 181525, Note_on_c, 1, 73, 100
3, 181618, Note_on_c, 1, 49, 100
3, 181708, Note_on_c, 1, 73, 0
3, 181709, Note_on_c, 1, 49, 0
3, 181710, Note_on_c, 1, 73, 100
3, 181893, Note_on_c, 1, 73, 0
3, 182725, Note_on_c, 1, 73, 100
3, 182816, Note_on_c, 1, 73, 0
3, 183371, Note_on_c, 1, 73, 100
3, 183371, Note_on_c, 1, 61, 100
3, 183462, Note_on_c, 1, 61, 0
3, 183553, Note_on_c, 1, 73, 0
3, 183741, Note_on_c, 1, 49, 100
3, 183832, Note_on_c, 1, 49, 0
3, 183925, Note_on_c, 1, 73, 100
3, 184200, Note_on_c, 1, 73, 0
3, 184295, Note_on_c, 1, 73, 100
3, 184478, Note_on_c, 1, 73, 0
3, 184479, Note_on_c, 1, 73, 100
3, 184662, Note_on_c, 1, 73, 0
3, 184664, Note_on_c, 1, 73, 100
3, 184847, Note_on_c, 1, 73, 0
3, 185679, Note_on_c, 1, 73, 100
3, 185770, Note_on_c, 1, 73, 0
3, 187064, Note_on_c, 1, 73, 100
3, 187155, Note_on_c, 1, 73, 0
3, 187248, Note_on_c, 1, 73, 100
3, 187431, Note_on_c, 1, 73, 0
3, 187433, Note_on_c, 1, 73, 100
3, 187433, Note_on_c, 1, 61, 100
3, 187524, Note_on_c, 1, 61, 0
3, 187616, Note_on_c, 1, 73, 0
3, 187618, Note_on_c, 1, 73, 100
3, 187710, Note_on_c, 1, 61, 100
3, 187801, Note_on_c, 1, 61, 0
3, 187895, Note_on_c, 1, 61, 100
3, 187983, Note_on_c, 1, 73, 0
3, 187986, Note_on_c, 1, 61, 0
3, 188079, Note_on_c, 1, 61, 100
3, 188170, Note_on_c, 1, 61, 0
3, 188438, Note_on_c, 1, 61, 100
3, 188531, Note_on_c, 1, 61, 0
3, 188720, Note_on_c, 1, 73, 100
3, 188907, Note_on_c, 1, 73, 0
3, 188908, Note_on_c, 1, 73, 100
3, 188996, Note_on_c, 1, 73, 0
3, 189002, Note_on_c, 1, 73, 100
3, 189095, Note_on_c, 1, 73, 0
3, 189755, Note_on_c, 1, 73, 100
3, 189801, Note_on_c, 1, 73, 0
3, 189850, Note_on_c, 1, 49, 100
3, 190042, Note_on_c, 1, 61, 100
3, 190137, Note_on_c, 1, 49, 0
3, 190329, Note_on_c, 1, 61, 0
3, 190426, Note_on_c, 1, 73, 100
3, 190426, Note_on_c, 1, 61, 100
3, 190521, Note_on_c, 1, 61, 0
3, 190521, Note_on_c, 1, 73, 0
3, 190618, Note_on_c, 1, 61, 100
3, 190714, Note_on_c, 1, 73, 100
3, 190809, Note_on_c, 1, 73, 0
3, 190906, Note_on_c, 1, 73, 100
3, 190998, Note_on_c, 1, 61, 0
3, 191001, Note_on_c, 1, 73, 0
3, 191098, Note_on_c, 1, 73, 100
3, 191193, Note_on_c, 1, 73, 0
3, 191679, Note_on_c, 1, 49, 100
3, 191775, Note_on_c, 1, 49, 0
3, 192169, Note_on_c, 1, 49, 100
3, 192365, Note_on_c, 1, 73, 100
3, 192461, Note_on_c, 1, 73, 0
3, 192556, Note_on_c, 1, 49, 0
3, 192756, Note_on_c, 1, 61, 100
3, 192852, Note_on_c, 1, 61, 0
3, 192952, Note_on_c, 1, 61, 100
3, 193153, Note_on_c, 1, 73, 100
3, 193251, Note_on_c, 1, 73, 0
3, 193555, Note_on_c, 1, 61, 0
3, 193557, Note_on_c, 1, 61, 100
3, 193755, Note_on_c, 1, 61, 0
3, 193960, Note_on_c, 1, 73, 100
3, 194058, Note_on_c, 1, 73, 0
3, 194364, Note_on_c, 1, 61, 100
3, 194462, Note_on_c, 1, 61, 0
3, 194566, Note_on_c, 1, 49, 100
3, 194566, Note_on_c, 1, 61, 100
3, 194964, Note_on_c, 1, 61, 0
3, 194964, Note_on_c, 1, 49, 0
3, 195171, Note_on_c, 1, 49, 100
3, 195171, Note_on_c, 1, 61, 100
3, 195269, Note_on_c, 1, 61, 0
3, 195370, Note_on_c, 1, 49, 0
3, 195373, Note_on_c, 1, 49, 100
3, 195584, Note_on_c, 1, 61, 100
3, 195687, Note_on_c, 1, 61, 0
3, 195795, Note_on_c, 1, 49, 0
3, 195796, Note_on_c, 1, 49, 100
3, 196007, Note_on_c, 1, 61, 100
3, 196110, Note_on_c, 1, 61, 0
3, 196218, Note_on_c, 1, 49, 0
3, 196431, Note_on_c, 1, 61, 100
3, 196534, Note_on_c, 1, 61, 0
3, 196643, Note_on_c, 1, 49, 100
3, 196855, Note_on_c, 1, 61, 100
3, 196958, Note_on_c, 1, 61, 0
3, 197061, Note_on_c, 1, 49, 0
3, 197173, Note_on_c, 1, 49, 100
3, 197278, Note_on_c, 1, 49, 0
3, 197497, Note_on_c, 1, 61, 100
3, 197710, Note_on_c, 1, 61, 0
3, 197714, Note_on_c, 1, 61, 100
3, 197812, Note_on_c, 1, 61, 0
3, 197823, Note_on_c, 1, 61, 100
3, 197928, Note_on_c, 1, 61, 0
3, 198686, Note_on_c, 1, 61, 100
3, 198737, Note_on_c, 1, 61, 0
3, 198794, Note_on_c, 1, 37, 100
3, 199014, Note_on_c, 1, 49, 100
3, 199120, Note_on_c, 1, 37, 0
3, 199447, Note_on_c, 1, 49, 0
3, 199455, Note_on_c, 1, 61, 100
3, 199455, Note_on_c, 1, 49, 100
3, 199561, Note_on_c, 1, 61, 0
3, 199671, Note_on_c, 1, 49, 0
3, 199676, Note_on_c, 1, 49, 100
3, 199786, Note_on_c, 1, 61, 100
3, 199892, Note_on_c, 1, 61, 0
3, 200007, Note_on_c, 1, 61, 100
3, 200109, Note_on_c, 1, 49, 0
3, 200113, Note_on_c, 1, 61, 0
3, 200226, Note_on_c, 1, 61, 100
3, 200277, Note_on_c, 1, 61, 0
3, 201044, Note_on_c, 1, 37, 100
3, 201322, Note_on_c, 1, 49, 100
3, 201322, Note_on_c, 1, 61, 100
3, 201531, Note_on_c, 1, 37, 0
3, 201642, Note_on_c, 1, 61, 0
3, 201642, Note_on_c, 1, 49, 0
3, 201710, Note_on_c, 1, 49, 100
3, 201710, Note_on_c, 1, 61, 100
3, 202285, Note_on_c, 1, 61, 0
3, 202285, Note_on_c, 1, 49, 0
3, 203842, Note_on_c, 1, 61, 100
3, 203937, Note_on_c, 1, 61, 0
3, 204034, Note_on_c, 1, 73, 100
3, 204034, Note_on_c, 1, 61, 100
3, 204129, Note_on_c, 1, 61, 0
3, 204225, Note_on_c, 1, 73, 0
3, 204226, Note_on_c, 1, 73, 100
3, 204322, Note_on_c, 1, 61, 100
3, 204417, Note_on_c, 1, 61, 0
3, 204417, Note_on_c, 1, 73, 0
3, 204994, Note_on_c, 1, 61, 100
3, 205185, Note_on_c, 1, 61, 0
3, 206914, Note_on_c, 1, 73, 100
3, 207009, Note_on_c, 1, 73, 0
3, 207106, Note_on_c, 1, 73, 100
3, 207106, Note_on_c, 1, 61, 100
3, 207297, Note_on_c, 1, 61, 0
3, 207297, Note_on_c, 1, 73, 0
3, 207874, Note_on_c, 1, 49, 100
3, 208065, Note_on_c, 1, 49, 0
3, 208642, Note_on_c, 1, 61, 100
3, 208642, Note_on_c, 1, 49, 100
3, 208833, Note_on_c, 1, 61, 0
3, 209025, Note_on_c, 1, 49, 0
3, 210274, Note_on_c, 1, 61, 100
3, 210369, Note_on_c, 1, 61, 0
3, 210754, Note_on_c, 1, 61, 100
3, 211425, Note_on_c, 1, 61, 0
3, 211618, Note_on_c, 1, 61, 100
3, 211713, Note_on_c, 1, 61, 0
3, 212482, Note_on_c, 1, 61, 100
3, 212482, Note_on_c, 1, 49, 100
3, 212577, Note_on_c, 1, 49, 0
3, 212673, Note_on_c, 1, 61, 0
3, 212674, Note_on_c, 1, 61, 100
3, 212674, Note_on_c, 1, 49, 100
3, 212769, Note_on_c, 1, 49, 0
3, 212865, Note_on_c, 1, 61, 0
3, 212866, Note_on_c, 1, 61, 100
3, 212962, Note_on_c, 1, 49, 100
3, 213057, Note_on_c, 1, 49, 0
3, 213057, Note_on_c, 1, 61, 0
3, 213634, Note_on_c, 1, 49, 100
3, 213825, Note_on_c, 1, 49, 0
3, 213826, Note_on_c, 1, 61, 100
3, 214209, Note_on_c, 1, 61, 0
3, 214306, Note_on_c, 1, 73, 100
3, 214401, Note_on_c, 1, 73, 0
3, 214594, Note_on_c, 1, 61, 100
3, 214977, Note_on_c, 1, 61, 0
3, 214978, Note_on_c, 1, 73, 100
3, 215169, Note_on_c, 1, 73, 0
3, 215266, Note_on_c, 1, 49, 100
3, 215361, Note_on_c, 1, 49, 0
3, 215746, Note_on_c, 1, 49, 100
3, 215937, Note_on_c, 1, 49, 0
3, 216706, Note_on_c, 1, 73, 100
3, 216801, Note_on_c, 1, 73, 0
3, 216898, Note_on_c, 1, 73, 100
3, 217089, Note_on_c, 1, 73, 0
3, 217666, Note_on_c, 1, 73, 100
3, 217857, Note_on_c, 1, 73, 0
3, 218434, Note_on_c, 1, 73, 100
3, 219009, Note_on_c, 1, 73, 0
3, 219490, Note_on_c, 1, 73, 100
3, 219585, Note_on_c, 1, 73, 0
3, 220162, Note_on_c, 1, 61, 100
3, 220353, Note_on_c, 1, 61, 0
3, 220354, Note_on_c, 1, 61, 100
3, 220545, Note_on_c, 1, 61, 0
3, 221122, Note_on_c, 1, 61, 100
3, 221313, Note_on_c, 1, 61, 0
3, 221314, Note_on_c, 1, 73, 100
3, 221505, Note_on_c, 1, 73, 0
3, 222082, Note_on_c, 1, 73, 100
3, 222465, Note_on_c, 1, 73, 0
3, 222850, Note_on_c, 1, 73, 100
3, 222850, Note_on_c, 1, 49, 100
3, 222946, Note_on_c, 1, 61, 100
3, 223041, Note_on_c, 1, 61, 0
3, 223137, Note_on_c, 1, 49, 0
3, 223138, Note_on_c, 1, 61, 100
3, 223230, Note_on_c, 1, 73, 0
3, 223233, Note_on_c, 1, 61, 0
3, 224002, Note_on_c, 1, 61, 100
3, 224097, Note_on_c, 1, 61, 0
3, 224194, Note_on_c, 1, 73, 100
3, 224290, Note_on_c, 1, 61, 100
3, 224385, Note_on_c, 1, 61, 0
3, 224385, Note_on_c, 1, 73, 0
3, 224386, Note_on_c, 1, 73, 100
3, 224577, Note_on_c, 1, 73, 0
3, 225058, Note_on_c, 1, 61, 100
3, 225153, Note_on_c, 1, 61, 0
3, 225442, Note_on_c, 1, 61, 100
3, 225537, Note_on_c, 1, 61, 0
3, 225922, Note_on_c, 1, 73, 100
3, 225922, Note_on_c, 1, 61, 100
3, 226017, Note_on_c, 1, 73, 0
3, 226114, Note_on_c, 1, 73, 100
3, 226305, Note_on_c, 1, 73, 0
3, 226497, Note_on_c, 1, 61, 0
3, 226882, Note_on_c, 1, 61, 100
3, 226882, Note_on_c, 1, 49, 100
3, 227073, Note_on_c, 1, 49, 0
3, 227073, Note_on_c, 1, 61, 0
3, 227266, Note_on_c, 1, 61, 100
3, 227457, Note_on_c, 1, 61, 0
3, 227650, Note_on_c, 1, 61, 100
3, 227650, Note_on_c, 1, 49, 100
3, 227841, Note_on_c, 1, 61, 0
3, 227842, Note_on_c, 1, 61, 100
3, 228033, Note_on_c, 1, 61, 0
3, 228033, Note_on_c, 1, 49, 0
3, 228322, Note_on_c, 1, 61, 100
3, 228417, Note_on_c, 1, 61, 0
3, 228610, Note_on_c, 1, 61, 100
3, 228897, Note_on_c, 1, 61, 0
3, 228994, Note_on_c, 1, 61, 100
3, 229185, Note_on_c, 1, 61, 0
3, 229570, Note_on_c, 1, 61, 100
3, 229761, Note_on_c, 1, 61, 0
3, 230530, Note_on_c, 1, 61, 100
3, 230625, Note_on_c, 1, 61, 0
3, 230722, Note_on_c, 1, 73, 100
3, 230722, Note_on_c, 1, 61, 100
3, 230913, Note_on_c, 1, 61, 0
3, 230913, Note_on_c, 1, 73, 0
3, 231490, Note_on_c, 1, 61, 100
3, 231681, Note_on_c, 1, 61, 0
3, 231682, Note_on_c, 1, 73, 100
3, 232257, Note_on_c, 1, 73, 0
3, 232642, Note_on_c, 1, 73, 100
3, 232642, Note_on_c, 1, 49, 100
3, 233022, Note_on_c, 1, 49, 0
3, 233025, Note_on_c, 1, 73, 0
3, 233026, Note_on_c, 1, 61, 100
3, 233121, Note_on_c, 1, 61, 0
3, 233506, Note_on_c, 1, 61, 100
3, 233601, Note_on_c, 1, 61, 0
3, 233794, Note_on_c, 1, 61, 100
3, 233985, Note_on_c, 1, 61, 0
3, 233986, Note_on_c, 1, 73, 100
3, 233986, Note_on_c, 1, 61, 100
3, 234081, Note_on_c, 1, 61, 0
3, 234177, Note_on_c, 1, 73, 0
3, 234274, Note_on_c, 1, 61, 100
3, 234369, Note_on_c, 1, 61, 0
3, 234466, Note_on_c, 1, 61, 100
3, 234561, Note_on_c, 1, 61, 0
3, 234946, Note_on_c, 1, 73, 100
3, 235137, Note_on_c, 1, 73, 0
3, 235138, Note_on_c, 1, 61, 100
3, 235329, Note_on_c, 1, 61, 0
3, 235714, Note_on_c, 1, 73, 100
3, 236289, Note_on_c, 1, 73, 0
3, 236674, Note_on_c, 1, 73, 100
3, 236674, Note_on_c, 1, 61, 100
3, 236865, Note_on_c, 1, 61, 0
3, 237057, Note_on_c, 1, 73, 0
3, 237058, Note_on_c, 1, 73, 100
3, 237058, Note_on_c, 1, 49, 100
3, 237153, Note_on_c, 1, 49, 0
3, 237249, Note_on_c, 1, 73, 0
3, 237538, Note_on_c, 1, 49, 100
3, 237633, Note_on_c, 1, 49, 0
3, 237826, Note_on_c, 1, 49, 100
3, 237921, Note_on_c, 1, 49, 0
3, 238018, Note_on_c, 1, 49, 100
3, 238113, Note_on_c, 1, 49, 0
3, 238210, Note_on_c, 1, 73, 100
3, 238593, Note_on_c, 1, 73, 0
3, 238978, Note_on_c, 1, 73, 100
3, 238978, Note_on_c, 1, 49, 100
3, 238978, Note_on_c, 1, 37, 100
3, 239073, Note_on_c, 1, 73, 0
3, 239168, Note_on_c, 1, 37, 0
3, 239265, Note_on_c, 1, 49, 0
3, 239266, Note_on_c, 1, 61, 100
3, 239361, Note_on_c, 1, 61, 0
3, 240226, Note_on_c, 1, 73, 100
3, 240321, Note_on_c, 1, 73, 0
3, 240322, Note_on_c, 1, 61, 100
3, 240418, Note_on_c, 1, 73, 100
3, 240513, Note_on_c, 1, 73, 0
3, 240705, Note_on_c, 1, 61, 0
3, 241282, Note_on_c, 1, 61, 100
3, 241473, Note_on_c, 1, 61, 0
3, 242434, Note_on_c, 1, 73, 100
3, 242529, Note_on_c, 1, 73, 0
3, 243106, Note_on_c, 1, 61, 100
3, 243201, Note_on_c, 1, 61, 0
3, 244162, Note_on_c, 1, 61, 100
3, 244354, Note_on_c, 1, 73, 100
3, 244449, Note_on_c, 1, 73, 0
3, 244545, Note_on_c, 1, 61, 0
3, 244546, Note_on_c, 1, 61, 100
3, 244926, Note_on_c, 1, 61, 0
3, 245314, Note_on_c, 1, 73, 100
3, 245697, Note_on_c, 1, 73, 0
3, 246274, Note_on_c, 1, 61, 100
3, 246369, Note_on_c, 1, 61, 0
3, 246562, Note_on_c, 1, 61, 100
3, 246657, Note_on_c, 1, 61, 0
3, 247042, Note_on_c, 1, 61, 100
3, 247137, Note_on_c, 1, 61, 0
3, 247234, Note_on_c, 1, 61, 100
3, 247329, Note_on_c, 1, 61, 0
3, 247330, Note_on_c, 1, 73, 100
3, 247425, Note_on_c, 1, 73, 0
3, 247618, Note_on_c, 1, 73, 100
3, 247714, Note_on_c, 1, 61, 100
3, 247809, Note_on_c, 1, 61, 0
3, 247809, Note_on_c, 1, 73, 0
3, 248674, Note_on_c, 1, 73, 100
3, 248769, Note_on_c, 1, 73, 0
3, 249058, Note_on_c, 1, 61, 100
3, 249153, Note_on_c, 1, 61, 0
3, 249346, Note_on_c, 1, 61, 100
3, 249537, Note_on_c, 1, 61, 0
3, 250498, Note_on_c, 1, 73, 100
3, 250690, Note_on_c, 1, 61, 100
3, 250881, Note_on_c, 1, 61, 0
3, 250881, Note_on_c, 1, 73, 0
3, 250882, Note_on_c, 1, 73, 100
3, 251073, Note_on_c, 1, 73, 0
3, 252418, Note_on_c, 1, 73, 100
3, 252513, Note_on_c, 1, 73, 0
3, 252610, Note_on_c, 1, 73, 100
3, 252897, Note_on_c, 1, 73, 0
3, 252898, Note_on_c, 1, 73, 100
3, 252993, Note_on_c, 1, 73, 0
3, 253378, Note_on_c, 1, 49, 100
3, 253569, Note_on_c, 1, 49, 0
3, 253666, Note_on_c, 1, 73, 100
3, 253761, Note_on_c, 1, 73, 0
3, 254530, Note_on_c, 1, 49, 100
3, 254721, Note_on_c, 1, 49, 0
3, 255682, Note_on_c, 1, 61, 100
3, 255872, Note_on_c, 1, 61, 0
3, 255874, Note_on_c, 1, 73, 100
3, 255969, Note_on_c, 1, 73, 0
3, 256162, Note_on_c, 1, 73, 100
3, 256257, Note_on_c, 1, 73, 0
3, 256450, Note_on_c, 1, 61, 100
3, 256641, Note_on_c, 1, 61, 0
3, 256642, Note_on_c, 1, 73, 100
3, 256642, Note_on_c, 1, 49, 100
3, 256737, Note_on_c, 1, 73, 0
3, 256833, Note_on_c, 1, 49, 0
3, 257506, Note_on_c, 1, 61, 100
3, 257601, Note_on_c, 1, 61, 0
3, 257698, Note_on_c, 1, 73, 100
3, 257793, Note_on_c, 1, 73, 0
3, 258562, Note_on_c, 1, 61, 100
3, 258849, Note_on_c, 1, 61, 0
3, 260290, Note_on_c, 1, 49, 100
3, 260385, Note_on_c, 1, 49, 0
3, 260482, Note_on_c, 1, 73, 100
3, 260482, Note_on_c, 1, 49, 100
3, 260577, Note_on_c, 1, 49, 0
3, 260577, Note_on_c, 1, 73, 0
3, 260674, Note_on_c, 1, 73, 100
3, 260769, Note_on_c, 1, 73, 0
3, 260770, Note_on_c, 1, 49, 100
3, 260865, Note_on_c, 1, 49, 0
3, 261154, Note_on_c, 1, 73, 100
3, 261249, Note_on_c, 1, 73, 0
3, 261634, Note_on_c, 1, 73, 100
3, 261729, Note_on_c, 1, 73, 0
3, 261826, Note_on_c, 1, 73, 100
3, 262017, Note_on_c, 1, 73, 0
3, 262594, Note_on_c, 1, 73, 100
3, 262594, Note_on_c, 1, 49, 100
3, 262785, Note_on_c, 1, 73, 0
3, 262786, Note_on_c, 1, 61, 100
3, 262881, Note_on_c, 1, 61, 0
3, 262978, Note_on_c, 1, 61, 100
3, 263169, Note_on_c, 1, 61, 0
3, 263169, Note_on_c, 1, 49, 0
3, 263746, Note_on_c, 1, 73, 100
3, 263842, Note_on_c, 1, 61, 100
3, 263937, Note_on_c, 1, 61, 0
3, 264130, Note_on_c, 1, 49, 100
3, 264225, Note_on_c, 1, 49, 0
3, 264321, Note_on_c, 1, 73, 0
3, 264322, Note_on_c, 1, 73, 100
3, 264417, Note_on_c, 1, 73, 0
3, 264514, Note_on_c, 1, 73, 100
3, 264609, Note_on_c, 1, 73, 0
3, 265858, Note_on_c, 1, 49, 100
3, 266049, Note_on_c, 1, 49, 0
3, 266146, Note_on_c, 1, 61, 100
3, 266241, Note_on_c, 1, 61, 0
3, 266338, Note_on_c, 1, 61, 100
3, 266433, Note_on_c, 1, 61, 0
3, 266530, Note_on_c, 1, 61, 100
3, 266722, Note_on_c, 1, 49, 100
3, 266817, Note_on_c, 1, 49, 0
3, 266914, Note_on_c, 1, 49, 100
3, 267009, Note_on_c, 1, 49, 0
3, 267106, Note_on_c, 1, 49, 100
3, 267201, Note_on_c, 1, 49, 0
3, 267203, Note_on_c, 1, 61, 0
3, 267298, Note_on_c, 1, 37, 100
3, 267393, Note_on_c, 1, 37, 0
3, 268066, Note_on_c, 1, 49, 100
3, 268161, Note_on_c, 1, 49, 0
3, 268354, Note_on_c, 1, 49, 100
3, 268449, Note_on_c, 1, 49, 0
3, 268546, Note_on_c, 1, 49, 100
3, 268641, Note_on_c, 1, 49, 0
3, 269026, Note_on_c, 1, 49, 100
3, 269121, Note_on_c, 1, 49, 0
3, 269794, Note_on_c, 1, 61, 100
3, 269889, Note_on_c, 1, 61, 0
3, 270082, Note_on_c, 1, 61, 100
3, 270177, Note_on_c, 1, 61, 0
3, 270274, Note_on_c, 1, 61, 100
3, 270369, Note_on_c, 1, 61, 0
3, 270754, Note_on_c, 1, 61, 100
3, 270849, Note_on_c, 1, 61, 0
3, 271522, Note_on_c, 1, 73, 100
3, 271617, Note_on_c, 1, 73, 0
3, 271817, Note_on_c, 1, 73, 100
3, 271915, Note_on_c, 1, 73, 0
3, 272017, Note_on_c, 1, 73, 100
3, 272065, Note_on_c, 1, 73, 0
3, 273031, Note_on_c, 1, 73, 100
3, 273246, Note_on_c, 1, 61, 100
3, 273460, Note_on_c, 1, 73, 0
3, 273675, Note_on_c, 1, 61, 0
3, 274020, Note_on_c, 1, 61, 100
3, 274020, Note_on_c, 1, 73, 100
3, 274130, Note_on_c, 1, 73, 0
3, 274130, Note_on_c, 1, 61, 0
3, 274592, Note_on_c, 1, 61, 100
3, 274702, Note_on_c, 1, 61, 0
3, 274820, Note_on_c, 1, 61, 100
3, 274820, Note_on_c, 1, 73, 100
3, 275271, Note_on_c, 1, 73, 0
3, 275271, Note_on_c, 1, 61, 0
3, 276276, Note_on_c, 1, 73, 100
3, 276407, Note_on_c, 1, 73, 0
3, 276563, Note_on_c, 1, 61, 100
3, 278027, Note_on_c, 1, 61, 0
3, 278027, End_track
4, 0, Start_track
4, 0, MIDI_port, 0
4, 0, Title_t, "Johann Sebastian Bach  (1685-1750)"
4, 0, Program_c, 2, 0
4, 0, Control_c, 2, 7, 100
4, 0, Control_c, 2, 10, 64
4, 0, Pitch_bend_c, 2, 7876
4, 480, Note_on_c, 2, 62, 100
4, 527, Note_on_c, 2, 62, 0
4, 1296, Note_on_c, 2, 74, 100
4, 1343, Note_on_c, 2, 74, 0
4, 3480, Note_on_c, 2, 74, 100
4, 3550, Note_on_c, 2, 74, 0
4, 3696, Note_on_c, 2, 74, 100
4, 3743, Note_on_c, 2, 74, 0
4, 3984, Note_on_c, 2, 74, 100
4, 4031, Note_on_c, 2, 74, 0
4, 5952, Note_on_c, 2, 62, 100
4, 5999, Note_on_c, 2, 62, 0
4, 6696, Note_on_c, 2, 74, 100
4, 6743, Note_on_c, 2, 74, 0
4, 6840, Note_on_c, 2, 74, 100
4, 6935, Note_on_c, 2, 74, 0
4, 7992, Note_on_c, 2, 62, 100
4, 8272, Note_on_c, 2, 62, 0
4, 8952, Note_on_c, 2, 62, 100
4, 9047, Note_on_c, 2, 62, 0
4, 12358, Note_on_c, 2, 38, 100
4, 12745, Note_on_c, 2, 38, 0
4, 12750, Note_on_c, 2, 62, 100
4, 13137, Note_on_c, 2, 62, 0
4, 15797, Note_on_c, 2, 74, 100
4, 15887, Note_on_c, 2, 74, 0
4, 16569, Note_on_c, 2, 62, 100
4, 16659, Note_on_c, 2, 62, 0
4, 16934, Note_on_c, 2, 50, 100
4, 17295, Note_on_c, 2, 50, 0
4, 18112, Note_on_c, 2, 74, 100
4, 18202, Note_on_c, 2, 74, 0
4, 18875, Note_on_c, 2, 74, 100
4, 18965, Note_on_c, 2, 74, 0
4, 19622, Note_on_c, 2, 62, 100
4, 19712, Note_on_c, 2, 62, 0
4, 26048, Note_on_c, 2, 62, 100
4, 26528, Note_on_c, 2, 62, 0
4, 26672, Note_on_c, 2, 62, 100
4, 26767, Note_on_c, 2, 62, 0
4, 29712, Note_on_c, 2, 74, 100
4, 29759, Note_on_c, 2, 74, 0
4, 34372, Note_on_c, 2, 50, 100
4, 34425, Note_on_c, 2, 50, 0
4, 34480, Note_on_c, 2, 50, 100
4, 34533, Note_on_c, 2, 50, 0
4, 35736, Note_on_c, 2, 50, 100
4, 36119, Note_on_c, 2, 50, 0
4, 43848, Note_on_c, 2, 74, 100
4, 44039, Note_on_c, 2, 74, 0
4, 46152, Note_on_c, 2, 74, 100
4, 46247, Note_on_c, 2, 74, 0
4, 46496, Note_on_c, 2, 74, 100
4, 46549, Note_on_c, 2, 74, 0
4, 46552, Note_on_c, 2, 74, 100
4, 46743, Note_on_c, 2, 74, 0
4, 50808, Note_on_c, 2, 74, 100
4, 50999, Note_on_c, 2, 74, 0
4, 51768, Note_on_c, 2, 62, 100
4, 51959, Note_on_c, 2, 62, 0
4, 53112, Note_on_c, 2, 62, 100
4, 53492, Note_on_c, 2, 62, 0
4, 54264, Note_on_c, 2, 62, 100
4, 54644, Note_on_c, 2, 62, 0
4, 56376, Note_on_c, 2, 62, 100
4, 56471, Note_on_c, 2, 62, 0
4, 57336, Note_on_c, 2, 74, 100
4, 57527, Note_on_c, 2, 74, 0
4, 57720, Note_on_c, 2, 74, 100
4, 58487, Note_on_c, 2, 74, 0
4, 58872, Note_on_c, 2, 50, 100
4, 59252, Note_on_c, 2, 50, 0
4, 59256, Note_on_c, 2, 74, 100
4, 59351, Note_on_c, 2, 74, 0
4, 59448, Note_on_c, 2, 62, 100
4, 59638, Note_on_c, 2, 62, 0
4, 61312, Note_on_c, 2, 74, 100
4, 61407, Note_on_c, 2, 74, 0
4, 61512, Note_on_c, 2, 74, 100
4, 61751, Note_on_c, 2, 74, 0
4, 63936, Note_on_c, 2, 50, 100
4, 64336, Note_on_c, 2, 50, 0
4, 66232, Note_on_c, 2, 74, 100
4, 66423, Note_on_c, 2, 74, 0
4, 73144, Note_on_c, 2, 74, 100
4, 73719, Note_on_c, 2, 74, 0
4, 78136, Note_on_c, 2, 62, 100
4, 78231, Note_on_c, 2, 62, 0
4, 78328, Note_on_c, 2, 62, 100
4, 78423, Note_on_c, 2, 62, 0
4, 78712, Note_on_c, 2, 50, 100
4, 78903, Note_on_c, 2, 50, 0
4, 79672, Note_on_c, 2, 62, 100
4, 80151, Note_on_c, 2, 62, 0
4, 81592, Note_on_c, 2, 74, 100
4, 82152, Note_on_c, 2, 74, 0
4, 82168, Note_on_c, 2, 74, 100
4, 82455, Note_on_c, 2, 74, 0
4, 82744, Note_on_c, 2, 50, 100
4, 82839, Note_on_c, 2, 50, 0
4, 82936, Note_on_c, 2, 50, 100
4, 83031, Note_on_c, 2, 50, 0
4, 83128, Note_on_c, 2, 74, 100
4, 83319, Note_on_c, 2, 74, 0
4, 85432, Note_on_c, 2, 50, 100
4, 85623, Note_on_c, 2, 50, 0
4, 85624, Note_on_c, 2, 50, 100
4, 86007, Note_on_c, 2, 50, 0
4, 86200, Note_on_c, 2, 74, 100
4, 86391, Note_on_c, 2, 74, 0
4, 86488, Note_on_c, 2, 62, 100
4, 86608, Note_on_c, 2, 62, 0
4, 87544, Note_on_c, 2, 50, 100
4, 87640, Note_on_c, 2, 74, 100
4, 87735, Note_on_c, 2, 74, 0
4, 87735, Note_on_c, 2, 50, 0
4, 88984, Note_on_c, 2, 74, 100
4, 89104, Note_on_c, 2, 74, 0
4, 89272, Note_on_c, 2, 50, 100
4, 89272, Note_on_c, 2, 74, 100
4, 89463, Note_on_c, 2, 74, 0
4, 89463, Note_on_c, 2, 50, 0
4, 89464, Note_on_c, 2, 62, 100
4, 89847, Note_on_c, 2, 62, 0
4, 90040, Note_on_c, 2, 74, 100
4, 90230, Note_on_c, 2, 74, 0
4, 90328, Note_on_c, 2, 74, 100
4, 90448, Note_on_c, 2, 74, 0
4, 90904, Note_on_c, 2, 74, 100
4, 90999, Note_on_c, 2, 74, 0
4, 91192, Note_on_c, 2, 62, 100
4, 91382, Note_on_c, 2, 62, 0
4, 91480, Note_on_c, 2, 74, 100
4, 91575, Note_on_c, 2, 74, 0
4, 91672, Note_on_c, 2, 74, 100
4, 91767, Note_on_c, 2, 74, 0
4, 91960, Note_on_c, 2, 74, 100
4, 92055, Note_on_c, 2, 74, 0
4, 92152, Note_on_c, 2, 74, 100
4, 92247, Note_on_c, 2, 74, 0
4, 93112, Note_on_c, 2, 74, 100
4, 93207, Note_on_c, 2, 74, 0
4, 93304, Note_on_c, 2, 74, 100
4, 93399, Note_on_c, 2, 74, 0
4, 93688, Note_on_c, 2, 62, 100
4, 93975, Note_on_c, 2, 62, 0
4, 93976, Note_on_c, 2, 74, 100
4, 94071, Note_on_c, 2, 74, 0
4, 94264, Note_on_c, 2, 50, 100
4, 94455, Note_on_c, 2, 50, 0
4, 102328, Note_on_c, 2, 62, 100
4, 102423, Note_on_c, 2, 62, 0
4, 102520, Note_on_c, 2, 62, 100
4, 102615, Note_on_c, 2, 62, 0
4, 103864, Note_on_c, 2, 74, 100
4, 104055, Note_on_c, 2, 74, 0
4, 105208, Note_on_c, 2, 50, 100
4, 105303, Note_on_c, 2, 50, 0
4, 105496, Note_on_c, 2, 50, 100
4, 105591, Note_on_c, 2, 50, 0
4, 106168, Note_on_c, 2, 74, 100
4, 106359, Note_on_c, 2, 74, 0
4, 106552, Note_on_c, 2, 62, 100
4, 106647, Note_on_c, 2, 62, 0
4, 106744, Note_on_c, 2, 62, 100
4, 106839, Note_on_c, 2, 62, 0
4, 109624, Note_on_c, 2, 74, 100
4, 109912, Note_on_c, 2, 62, 100
4, 110007, Note_on_c, 2, 62, 0
4, 110084, Note_on_c, 2, 74, 0
4, 110200, Note_on_c, 2, 74, 100
4, 110295, Note_on_c, 2, 74, 0
4, 110488, Note_on_c, 2, 62, 100
4, 110583, Note_on_c, 2, 62, 0
4, 111352, Note_on_c, 2, 74, 100
4, 111639, Note_on_c, 2, 74, 0
4, 111928, Note_on_c, 2, 62, 100
4, 112215, Note_on_c, 2, 62, 0
4, 112888, Note_on_c, 2, 62, 100
4, 112983, Note_on_c, 2, 62, 0
4, 113656, Note_on_c, 2, 50, 100
4, 113847, Note_on_c, 2, 50, 0
4, 113944, Note_on_c, 2, 62, 100
4, 114039, Note_on_c, 2, 62, 0
4, 114136, Note_on_c, 2, 62, 100
4, 114231, Note_on_c, 2, 62, 0
4, 114328, Note_on_c, 2, 62, 100
4, 114423, Note_on_c, 2, 62, 0
4, 114520, Note_on_c, 2, 62, 100
4, 114615, Note_on_c, 2, 62, 0
4, 114808, Note_on_c, 2, 62, 100
4, 114903, Note_on_c, 2, 62, 0
4, 115384, Note_on_c, 2, 62, 100
4, 115575, Note_on_c, 2, 62, 0
4, 115960, Note_on_c, 2, 50, 100
4, 116055, Note_on_c, 2, 50, 0
4, 117880, Note_on_c, 2, 74, 100
4, 118071, Note_on_c, 2, 74, 0
4, 118648, Note_on_c, 2, 62, 100
4, 118743, Note_on_c, 2, 62, 0
4, 119224, Note_on_c, 2, 50, 100
4, 119415, Note_on_c, 2, 50, 0
4, 119608, Note_on_c, 2, 74, 100
4, 119799, Note_on_c, 2, 74, 0
4, 120568, Note_on_c, 2, 62, 100
4, 120758, Note_on_c, 2, 62, 0
4, 131512, Note_on_c, 2, 74, 100
4, 131607, Note_on_c, 2, 74, 0
4, 132856, Note_on_c, 2, 74, 100
4, 132951, Note_on_c, 2, 74, 0
4, 133048, Note_on_c, 2, 50, 100
4, 133239, Note_on_c, 2, 50, 0
4, 133624, Note_on_c, 2, 74, 100
4, 133719, Note_on_c, 2, 74, 0
4, 133816, Note_on_c, 2, 74, 100
4, 134007, Note_on_c, 2, 74, 0
4, 134008, Note_on_c, 2, 50, 100
4, 134008, Note_on_c, 2, 74, 100
4, 134199, Note_on_c, 2, 50, 0
4, 134391, Note_on_c, 2, 74, 0
4, 142840, Note_on_c, 2, 74, 100
4, 142935, Note_on_c, 2, 74, 0
4, 143032, Note_on_c, 2, 62, 100
4, 143127, Note_on_c, 2, 62, 0
4, 143416, Note_on_c, 2, 74, 100
4, 143511, Note_on_c, 2, 74, 0
4, 145816, Note_on_c, 2, 74, 100
4, 145911, Note_on_c, 2, 74, 0
4, 146872, Note_on_c, 2, 50, 100
4, 147063, Note_on_c, 2, 50, 0
4, 147256, Note_on_c, 2, 74, 100
4, 147351, Note_on_c, 2, 74, 0
4, 147448, Note_on_c, 2, 74, 100
4, 147543, Note_on_c, 2, 74, 0
4, 150433, Note_on_c, 2, 62, 100
4, 150433, Note_on_c, 2, 50, 100
4, 150532, Note_on_c, 2, 50, 0
4, 150633, Note_on_c, 2, 62, 0
4, 150634, Note_on_c, 2, 50, 100
4, 150733, Note_on_c, 2, 50, 0
4, 150836, Note_on_c, 2, 74, 100
4, 151036, Note_on_c, 2, 74, 0
4, 153869, Note_on_c, 2, 74, 100
4, 153973, Note_on_c, 2, 74, 0
4, 154636, Note_on_c, 2, 74, 100
4, 154745, Note_on_c, 2, 74, 0
4, 154857, Note_on_c, 2, 74, 100
4, 154966, Note_on_c, 2, 74, 0
4, 155519, Note_on_c, 2, 62, 100
4, 155628, Note_on_c, 2, 62, 0
4, 155740, Note_on_c, 2, 62, 100
4, 155849, Note_on_c, 2, 62, 0
4, 156402, Note_on_c, 2, 62, 100
4, 156402, Note_on_c, 2, 50, 100
4, 156511, Note_on_c, 2, 50, 0
4, 156623, Note_on_c, 2, 50, 100
4, 156732, Note_on_c, 2, 50, 0
4, 156732, Note_on_c, 2, 62, 0
4, 162984, Note_on_c, 2, 62, 100
4, 163080, Note_on_c, 2, 62, 0
4, 163473, Note_on_c, 2, 62, 100
4, 163473, Note_on_c, 2, 50, 100
4, 163669, Note_on_c, 2, 74, 100
4, 163765, Note_on_c, 2, 74, 0
4, 163860, Note_on_c, 2, 50, 0
4, 163860, Note_on_c, 2, 62, 0
4, 164061, Note_on_c, 2, 62, 100
4, 164157, Note_on_c, 2, 62, 0
4, 168158, Note_on_c, 2, 74, 100
4, 168253, Note_on_c, 2, 74, 0
4, 168542, Note_on_c, 2, 74, 100
4, 168637, Note_on_c, 2, 74, 0
4, 175732, Note_on_c, 2, 50, 100
4, 175825, Note_on_c, 2, 50, 0
4, 176109, Note_on_c, 2, 50, 100
4, 176202, Note_on_c, 2, 50, 0
4, 176391, Note_on_c, 2, 50, 100
4, 176437, Note_on_c, 2, 50, 0
4, 179450, Note_on_c, 2, 50, 100
4, 179494, Note_on_c, 2, 50, 0
4, 179495, Note_on_c, 2, 50, 100
4, 179955, Note_on_c, 2, 50, 0
4, 179956, Note_on_c, 2, 50, 100
4, 180047, Note_on_c, 2, 50, 0
4, 181710, Note_on_c, 2, 50, 100
4, 181801, Note_on_c, 2, 50, 0
4, 182079, Note_on_c, 2, 50, 100
4, 182170, Note_on_c, 2, 50, 0
4, 184202, Note_on_c, 2, 74, 100
4, 184293, Note_on_c, 2, 74, 0
4, 184848, Note_on_c, 2, 74, 100
4, 184848, Note_on_c, 2, 62, 100
4, 184939, Note_on_c, 2, 62, 0
4, 185030, Note_on_c, 2, 74, 0
4, 185218, Note_on_c, 2, 50, 100
4, 185309, Note_on_c, 2, 50, 0
4, 189096, Note_on_c, 2, 74, 100
4, 189189, Note_on_c, 2, 74, 0
4, 189473, Note_on_c, 2, 74, 100
4, 189566, Note_on_c, 2, 74, 0
4, 191386, Note_on_c, 2, 62, 100
4, 191482, Note_on_c, 2, 62, 0
4, 191483, Note_on_c, 2, 50, 100
4, 191579, Note_on_c, 2, 50, 0
4, 191777, Note_on_c, 2, 50, 100
4, 191971, Note_on_c, 2, 50, 0
4, 191973, Note_on_c, 2, 50, 100
4, 192167, Note_on_c, 2, 50, 0
4, 193759, Note_on_c, 2, 62, 100
4, 194564, Note_on_c, 2, 62, 0
4, 196219, Note_on_c, 2, 50, 100
4, 196641, Note_on_c, 2, 50, 0
4, 197930, Note_on_c, 2, 62, 100
4, 198035, Note_on_c, 2, 62, 0
4, 198362, Note_on_c, 2, 62, 100
4, 198467, Note_on_c, 2, 62, 0
4, 198523, Note_on_c, 2, 62, 100
4, 198574, Note_on_c, 2, 62, 0
4, 203458, Note_on_c, 2, 62, 100
4, 203649, Note_on_c, 2, 62, 0
4, 203650, Note_on_c, 2, 62, 100
4, 203841, Note_on_c, 2, 62, 0
4, 206530, Note_on_c, 2, 62, 100
4, 206913, Note_on_c, 2, 62, 0
4, 207490, Note_on_c, 2, 50, 100
4, 207681, Note_on_c, 2, 50, 0
4, 207682, Note_on_c, 2, 50, 100
4, 207873, Note_on_c, 2, 50, 0
4, 208066, Note_on_c, 2, 50, 100
4, 208449, Note_on_c, 2, 50, 0
4, 209026, Note_on_c, 2, 50, 100
4, 209601, Note_on_c, 2, 50, 0
4, 215170, Note_on_c, 2, 50, 100
4, 215265, Note_on_c, 2, 50, 0
4, 217282, Note_on_c, 2, 74, 100
4, 217473, Note_on_c, 2, 74, 0
4, 217474, Note_on_c, 2, 74, 100
4, 217665, Note_on_c, 2, 74, 0
4, 223426, Note_on_c, 2, 62, 100
4, 223618, Note_on_c, 2, 74, 100
4, 223713, Note_on_c, 2, 74, 0
4, 223713, Note_on_c, 2, 62, 0
4, 223714, Note_on_c, 2, 62, 100
4, 223809, Note_on_c, 2, 62, 0
4, 225346, Note_on_c, 2, 62, 100
4, 225441, Note_on_c, 2, 62, 0
4, 225538, Note_on_c, 2, 74, 100
4, 225538, Note_on_c, 2, 62, 100
4, 225729, Note_on_c, 2, 74, 0
4, 225921, Note_on_c, 2, 62, 0
4, 226498, Note_on_c, 2, 50, 100
4, 226689, Note_on_c, 2, 50, 0
4, 226690, Note_on_c, 2, 50, 100
4, 226881, Note_on_c, 2, 50, 0
4, 227074, Note_on_c, 2, 50, 100
4, 227265, Note_on_c, 2, 50, 0
4, 227458, Note_on_c, 2, 62, 100
4, 227649, Note_on_c, 2, 62, 0
4, 228418, Note_on_c, 2, 62, 100
4, 228609, Note_on_c, 2, 62, 0
4, 229186, Note_on_c, 2, 62, 100
4, 229377, Note_on_c, 2, 62, 0
4, 230146, Note_on_c, 2, 74, 100
4, 230337, Note_on_c, 2, 74, 0
4, 231106, Note_on_c, 2, 62, 100
4, 231297, Note_on_c, 2, 62, 0
4, 231298, Note_on_c, 2, 62, 100
4, 231489, Note_on_c, 2, 62, 0
4, 239746, Note_on_c, 2, 74, 100
4, 240225, Note_on_c, 2, 74, 0
4, 241474, Note_on_c, 2, 74, 100
4, 241569, Note_on_c, 2, 74, 0
4, 241666, Note_on_c, 2, 62, 100
4, 241762, Note_on_c, 2, 74, 100
4, 241857, Note_on_c, 2, 74, 0
4, 241857, Note_on_c, 2, 62, 0
4, 241858, Note_on_c, 2, 62, 100
4, 242138, Note_on_c, 2, 62, 0
4, 242338, Note_on_c, 2, 74, 100
4, 242433, Note_on_c, 2, 74, 0
4, 243010, Note_on_c, 2, 62, 100
4, 243105, Note_on_c, 2, 62, 0
4, 243970, Note_on_c, 2, 62, 100
4, 244161, Note_on_c, 2, 62, 0
4, 244930, Note_on_c, 2, 74, 100
4, 245121, Note_on_c, 2, 74, 0
4, 245122, Note_on_c, 2, 74, 100
4, 245313, Note_on_c, 2, 74, 0
4, 247522, Note_on_c, 2, 74, 100
4, 247617, Note_on_c, 2, 74, 0
4, 249154, Note_on_c, 2, 62, 100
4, 249345, Note_on_c, 2, 62, 0
4, 249922, Note_on_c, 2, 74, 100
4, 250113, Note_on_c, 2, 74, 0
4, 250114, Note_on_c, 2, 62, 100
4, 250305, Note_on_c, 2, 62, 0
4, 250306, Note_on_c, 2, 74, 100
4, 250497, Note_on_c, 2, 74, 0
4, 251842, Note_on_c, 2, 74, 100
4, 251937, Note_on_c, 2, 74, 0
4, 252034, Note_on_c, 2, 74, 100
4, 252321, Note_on_c, 2, 74, 0
4, 252322, Note_on_c, 2, 74, 100
4, 252417, Note_on_c, 2, 74, 0
4, 252802, Note_on_c, 2, 50, 100
4, 252993, Note_on_c, 2, 50, 0
4, 253090, Note_on_c, 2, 74, 100
4, 253185, Note_on_c, 2, 74, 0
4, 254146, Note_on_c, 2, 62, 100
4, 254529, Note_on_c, 2, 62, 0
4, 255298, Note_on_c, 2, 62, 100
4, 255489, Note_on_c, 2, 62, 0
4, 255490, Note_on_c, 2, 62, 100
4, 255681, Note_on_c, 2, 62, 0
4, 255970, Note_on_c, 2, 62, 100
4, 256065, Note_on_c, 2, 62, 0
4, 256066, Note_on_c, 2, 74, 100
4, 256161, Note_on_c, 2, 74, 0
4, 256354, Note_on_c, 2, 74, 100
4, 256449, Note_on_c, 2, 74, 0
4, 256546, Note_on_c, 2, 74, 100
4, 256641, Note_on_c, 2, 74, 0
4, 260386, Note_on_c, 2, 50, 100
4, 260481, Note_on_c, 2, 50, 0
4, 260578, Note_on_c, 2, 74, 100
4, 260673, Note_on_c, 2, 74, 0
4, 261058, Note_on_c, 2, 74, 100
4, 261153, Note_on_c, 2, 74, 0
4, 261250, Note_on_c, 2, 74, 100
4, 261441, Note_on_c, 2, 74, 0
4, 262210, Note_on_c, 2, 62, 100
4, 262210, Note_on_c, 2, 50, 100
4, 262401, Note_on_c, 2, 50, 0
4, 262401, Note_on_c, 2, 62, 0
4, 262402, Note_on_c, 2, 62, 100
4, 262402, Note_on_c, 2, 50, 100
4, 262593, Note_on_c, 2, 50, 0
4, 262593, Note_on_c, 2, 62, 0
4, 263362, Note_on_c, 2, 74, 100
4, 263553, Note_on_c, 2, 74, 0
4, 263554, Note_on_c, 2, 74, 100
4, 263745, Note_on_c, 2, 74, 0
4, 265570, Note_on_c, 2, 74, 100
4, 265665, Note_on_c, 2, 74, 0
4, 268258, Note_on_c, 2, 50, 100
4, 268353, Note_on_c, 2, 50, 0
4, 269986, Note_on_c, 2, 62, 100
4, 270081, Note_on_c, 2, 62, 0
4, 271717, Note_on_c, 2, 74, 100
4, 271815, Note_on_c, 2, 74, 0
4, 273906, Note_on_c, 2, 62, 100
4, 274016, Note_on_c, 2, 62, 0
4, 274135, Note_on_c, 2, 74, 100
4, 274586, Note_on_c, 2, 74, 0
4, 275287, Note_on_c, 2, 74, 100
4, 275515, Note_on_c, 2, 74, 0
4, 275522, Note_on_c, 2, 74, 100
4, 275750, Note_on_c, 2, 74, 0
4, 275757, Note_on_c, 2, 74, 100
4, 276101, Note_on_c, 2, 74, 0
4, 276138, Note_on_c, 2, 74, 100
4, 276269, Note_on_c, 2, 74, 0
4, 276269, End_track
5, 0, Start_track
5, 0, MIDI_port, 0
5, 0, Title_t, "Tocatta No. 1 in F# minor - BWV 910"
5, 0, Program_c, 3, 0
5, 0, Control_c, 3, 7, 100
5, 0, Control_c, 3, 10, 64
5, 0, Pitch_bend_c, 3, 7952
5, 4608, Note_on_c, 3, 63, 100
5, 4655, Note_on_c, 3, 63, 0
5, 4896, Note_on_c, 3, 63, 100
5, 4943, Note_on_c, 3, 63, 0
5, 9432, Note_on_c, 3, 51, 100
5, 9527, Note_on_c, 3, 51, 0
5, 10488, Note_on_c, 3, 51, 100
5, 11063, Note_on_c, 3, 51, 0
5, 11477, Note_on_c, 3, 39, 100
5, 11573, Note_on_c, 3, 39, 0
5, 12064, Note_on_c, 3, 51, 100
5, 12160, Note_on_c, 3, 51, 0
5, 13789, Note_on_c, 3, 63, 100
5, 13881, Note_on_c, 3, 63, 0
5, 14529, Note_on_c, 3, 63, 100
5, 14619, Note_on_c, 3, 63, 0
5, 15284, Note_on_c, 3, 51, 100
5, 15374, Note_on_c, 3, 51, 0
5, 17614, Note_on_c, 3, 75, 100
5, 17704, Note_on_c, 3, 75, 0
5, 21416, Note_on_c, 3, 63, 100
5, 21511, Note_on_c, 3, 63, 0
5, 30192, Note_on_c, 3, 63, 100
5, 30239, Note_on_c, 3, 63, 0
5, 30336, Note_on_c, 3, 51, 100
5, 31486, Note_on_c, 3, 51, 0
5, 32640, Note_on_c, 3, 51, 100
5, 33407, Note_on_c, 3, 51, 0
5, 34968, Note_on_c, 3, 63, 100
5, 35338, Note_on_c, 3, 63, 0
5, 38040, Note_on_c, 3, 51, 100
5, 38231, Note_on_c, 3, 51, 0
5, 39792, Note_on_c, 3, 63, 100
5, 40367, Note_on_c, 3, 63, 0
5, 40464, Note_on_c, 3, 63, 100
5, 40559, Note_on_c, 3, 63, 0
5, 40752, Note_on_c, 3, 63, 100
5, 40752, Note_on_c, 3, 51, 100
5, 41132, Note_on_c, 3, 63, 0
5, 41902, Note_on_c, 3, 51, 0
5, 43464, Note_on_c, 3, 75, 100
5, 43847, Note_on_c, 3, 75, 0
5, 45000, Note_on_c, 3, 63, 100
5, 45383, Note_on_c, 3, 63, 0
5, 47128, Note_on_c, 3, 75, 100
5, 47223, Note_on_c, 3, 75, 0
5, 47320, Note_on_c, 3, 75, 100
5, 47511, Note_on_c, 3, 75, 0
5, 48760, Note_on_c, 3, 75, 100
5, 48855, Note_on_c, 3, 75, 0
5, 49272, Note_on_c, 3, 75, 100
5, 49847, Note_on_c, 3, 75, 0
5, 50424, Note_on_c, 3, 75, 100
5, 50804, Note_on_c, 3, 75, 0
5, 52728, Note_on_c, 3, 63, 100
5, 52919, Note_on_c, 3, 63, 0
5, 61896, Note_on_c, 3, 63, 100
5, 62536, Note_on_c, 3, 63, 0
5, 62566, Note_on_c, 3, 75, 100
5, 62613, Note_on_c, 3, 75, 0
5, 62673, Note_on_c, 3, 75, 100
5, 62714, Note_on_c, 3, 75, 0
5, 63536, Note_on_c, 3, 51, 100
5, 63937, Note_on_c, 3, 51, 0
5, 67576, Note_on_c, 3, 63, 100
5, 67767, Note_on_c, 3, 63, 0
5, 69688, Note_on_c, 3, 63, 100
5, 69783, Note_on_c, 3, 63, 0
5, 69880, Note_on_c, 3, 63, 100
5, 69975, Note_on_c, 3, 63, 0
5, 70072, Note_on_c, 3, 75, 100
5, 70263, Note_on_c, 3, 75, 0
5, 70936, Note_on_c, 3, 51, 100
5, 71031, Note_on_c, 3, 51, 0
5, 71272, Note_on_c, 3, 75, 100
5, 71320, Note_on_c, 3, 75, 0
5, 71368, Note_on_c, 3, 75, 100
5, 71608, Note_on_c, 3, 75, 0
5, 71896, Note_on_c, 3, 63, 100
5, 71991, Note_on_c, 3, 63, 0
5, 72184, Note_on_c, 3, 75, 100
5, 72375, Note_on_c, 3, 75, 0
5, 75832, Note_on_c, 3, 75, 100
5, 75927, Note_on_c, 3, 75, 0
5, 76024, Note_on_c, 3, 75, 100
5, 76119, Note_on_c, 3, 75, 0
5, 76216, Note_on_c, 3, 51, 100
5, 76407, Note_on_c, 3, 51, 0
5, 76600, Note_on_c, 3, 75, 100
5, 76695, Note_on_c, 3, 75, 0
5, 76792, Note_on_c, 3, 75, 100
5, 76887, Note_on_c, 3, 75, 0
5, 77368, Note_on_c, 3, 51, 100
5, 77751, Note_on_c, 3, 51, 0
5, 80152, Note_on_c, 3, 63, 100
5, 80247, Note_on_c, 3, 63, 0
5, 80344, Note_on_c, 3, 63, 100
5, 80439, Note_on_c, 3, 63, 0
5, 81016, Note_on_c, 3, 63, 100
5, 81111, Note_on_c, 3, 63, 0
5, 84472, Note_on_c, 3, 63, 100
5, 84663, Note_on_c, 3, 63, 0
5, 85240, Note_on_c, 3, 51, 100
5, 85335, Note_on_c, 3, 51, 0
5, 86776, Note_on_c, 3, 63, 100
5, 86967, Note_on_c, 3, 63, 0
5, 88120, Note_on_c, 3, 63, 100
5, 88311, Note_on_c, 3, 63, 0
5, 90616, Note_on_c, 3, 75, 100
5, 90807, Note_on_c, 3, 75, 0
5, 92728, Note_on_c, 3, 63, 100
5, 92919, Note_on_c, 3, 63, 0
5, 95128, Note_on_c, 3, 51, 100
5, 95223, Note_on_c, 3, 51, 0
5, 95320, Note_on_c, 3, 51, 100
5, 95415, Note_on_c, 3, 51, 0
5, 96568, Note_on_c, 3, 63, 100
5, 97047, Note_on_c, 3, 63, 0
5, 97144, Note_on_c, 3, 63, 100
5, 97239, Note_on_c, 3, 63, 0
5, 97720, Note_on_c, 3, 39, 100
5, 97816, Note_on_c, 3, 63, 100
5, 97911, Note_on_c, 3, 63, 0
5, 98008, Note_on_c, 3, 63, 100
5, 98100, Note_on_c, 3, 39, 0
5, 98103, Note_on_c, 3, 63, 0
5, 98200, Note_on_c, 3, 63, 100
5, 98295, Note_on_c, 3, 63, 0
5, 98392, Note_on_c, 3, 63, 100
5, 98487, Note_on_c, 3, 63, 0
5, 99256, Note_on_c, 3, 75, 100
5, 99447, Note_on_c, 3, 75, 0
5, 99640, Note_on_c, 3, 51, 100
5, 99735, Note_on_c, 3, 51, 0
5, 99832, Note_on_c, 3, 51, 100
5, 99927, Note_on_c, 3, 51, 0
5, 100024, Note_on_c, 3, 75, 100
5, 100215, Note_on_c, 3, 75, 0
5, 100408, Note_on_c, 3, 51, 100
5, 100408, Note_on_c, 3, 63, 100
5, 100503, Note_on_c, 3, 51, 0
5, 100599, Note_on_c, 3, 63, 0
5, 100600, Note_on_c, 3, 51, 100
5, 100695, Note_on_c, 3, 51, 0
5, 101248, Note_on_c, 3, 75, 100
5, 101312, Note_on_c, 3, 75, 0
5, 101376, Note_on_c, 3, 75, 100
5, 101516, Note_on_c, 3, 75, 0
5, 103288, Note_on_c, 3, 75, 100
5, 103383, Note_on_c, 3, 75, 0
5, 104632, Note_on_c, 3, 51, 100
5, 104727, Note_on_c, 3, 51, 0
5, 107512, Note_on_c, 3, 63, 100
5, 107703, Note_on_c, 3, 63, 0
5, 113176, Note_on_c, 3, 63, 100
5, 113271, Note_on_c, 3, 63, 0
5, 116824, Note_on_c, 3, 75, 100
5, 117015, Note_on_c, 3, 75, 0
5, 117208, Note_on_c, 3, 75, 100
5, 117399, Note_on_c, 3, 75, 0
5, 118072, Note_on_c, 3, 51, 100
5, 118167, Note_on_c, 3, 51, 0
5, 121528, Note_on_c, 3, 63, 100
5, 121719, Note_on_c, 3, 63, 0
5, 122104, Note_on_c, 3, 63, 100
5, 122199, Note_on_c, 3, 63, 0
5, 122488, Note_on_c, 3, 63, 100
5, 122679, Note_on_c, 3, 63, 0
5, 123448, Note_on_c, 3, 63, 100
5, 123544, Note_on_c, 3, 51, 100
5, 123639, Note_on_c, 3, 51, 0
5, 123639, Note_on_c, 3, 63, 0
5, 123736, Note_on_c, 3, 51, 100
5, 123831, Note_on_c, 3, 51, 0
5, 123832, Note_on_c, 3, 63, 100
5, 123922, Note_on_c, 3, 63, 0
5, 123928, Note_on_c, 3, 63, 100
5, 124023, Note_on_c, 3, 63, 0
5, 124120, Note_on_c, 3, 63, 100
5, 124215, Note_on_c, 3, 63, 0
5, 124408, Note_on_c, 3, 51, 100
5, 124598, Note_on_c, 3, 51, 0
5, 124792, Note_on_c, 3, 63, 100
5, 124983, Note_on_c, 3, 63, 0
5, 125176, Note_on_c, 3, 51, 100
5, 125271, Note_on_c, 3, 51, 0
5, 125752, Note_on_c, 3, 63, 100
5, 125848, Note_on_c, 3, 51, 100
5, 125942, Note_on_c, 3, 63, 0
5, 125943, Note_on_c, 3, 51, 0
5, 126520, Note_on_c, 3, 51, 100
5, 126615, Note_on_c, 3, 51, 0
5, 126712, Note_on_c, 3, 51, 100
5, 126807, Note_on_c, 3, 51, 0
5, 126904, Note_on_c, 3, 75, 100
5, 126999, Note_on_c, 3, 75, 0
5, 127096, Note_on_c, 3, 63, 100
5, 127096, Note_on_c, 3, 75, 100
5, 127191, Note_on_c, 3, 75, 0
5, 127287, Note_on_c, 3, 63, 0
5, 127480, Note_on_c, 3, 51, 100
5, 127671, Note_on_c, 3, 51, 0
5, 127864, Note_on_c, 3, 51, 100
5, 128055, Note_on_c, 3, 51, 0
5, 128248, Note_on_c, 3, 75, 100
5, 128439, Note_on_c, 3, 75, 0
5, 128824, Note_on_c, 3, 63, 100
5, 129015, Note_on_c, 3, 63, 0
5, 129208, Note_on_c, 3, 39, 100
5, 129304, Note_on_c, 3, 75, 100
5, 129399, Note_on_c, 3, 75, 0
5, 129399, Note_on_c, 3, 39, 0
5, 129496, Note_on_c, 3, 75, 100
5, 129591, Note_on_c, 3, 75, 0
5, 129784, Note_on_c, 3, 75, 100
5, 129879, Note_on_c, 3, 75, 0
5, 130072, Note_on_c, 3, 75, 100
5, 130167, Note_on_c, 3, 75, 0
5, 130264, Note_on_c, 3, 75, 100
5, 130359, Note_on_c, 3, 75, 0
5, 130744, Note_on_c, 3, 75, 100
5, 131031, Note_on_c, 3, 75, 0
5, 131032, Note_on_c, 3, 75, 100
5, 131127, Note_on_c, 3, 75, 0
5, 131416, Note_on_c, 3, 75, 100
5, 131511, Note_on_c, 3, 75, 0
5, 132376, Note_on_c, 3, 75, 100
5, 132471, Note_on_c, 3, 75, 0
5, 132856, Note_on_c, 3, 51, 100
5, 132952, Note_on_c, 3, 75, 100
5, 133042, Note_on_c, 3, 75, 0
5, 133047, Note_on_c, 3, 51, 0
5, 133144, Note_on_c, 3, 75, 100
5, 133239, Note_on_c, 3, 75, 0
5, 133720, Note_on_c, 3, 75, 100
5, 133815, Note_on_c, 3, 75, 0
5, 134584, Note_on_c, 3, 39, 100
5, 134775, Note_on_c, 3, 39, 0
5, 134776, Note_on_c, 3, 51, 100
5, 134776, Note_on_c, 3, 75, 100
5, 134871, Note_on_c, 3, 75, 0
5, 134967, Note_on_c, 3, 51, 0
5, 135064, Note_on_c, 3, 75, 100
5, 135159, Note_on_c, 3, 75, 0
5, 135160, Note_on_c, 3, 51, 100
5, 135351, Note_on_c, 3, 51, 0
5, 135736, Note_on_c, 3, 51, 100
5, 135927, Note_on_c, 3, 51, 0
5, 136888, Note_on_c, 3, 75, 100
5, 136983, Note_on_c, 3, 75, 0
5, 137080, Note_on_c, 3, 51, 100
5, 137176, Note_on_c, 3, 75, 100
5, 137271, Note_on_c, 3, 75, 0
5, 137271, Note_on_c, 3, 51, 0
5, 137328, Note_on_c, 3, 75, 100
5, 137376, Note_on_c, 3, 75, 0
5, 137424, Note_on_c, 3, 75, 100
5, 137564, Note_on_c, 3, 75, 0
5, 138808, Note_on_c, 3, 63, 100
5, 138903, Note_on_c, 3, 63, 0
5, 139000, Note_on_c, 3, 63, 100
5, 139095, Note_on_c, 3, 63, 0
5, 139192, Note_on_c, 3, 75, 100
5, 139383, Note_on_c, 3, 75, 0
5, 139576, Note_on_c, 3, 63, 100
5, 139671, Note_on_c, 3, 63, 0
5, 139768, Note_on_c, 3, 63, 100
5, 139863, Note_on_c, 3, 63, 0
5, 140248, Note_on_c, 3, 63, 100
5, 140343, Note_on_c, 3, 63, 0
5, 140400, Note_on_c, 3, 75, 100
5, 140448, Note_on_c, 3, 75, 0
5, 140496, Note_on_c, 3, 75, 100
5, 140712, Note_on_c, 3, 75, 0
5, 140824, Note_on_c, 3, 63, 100
5, 140919, Note_on_c, 3, 63, 0
5, 141016, Note_on_c, 3, 63, 100
5, 141111, Note_on_c, 3, 63, 0
5, 141592, Note_on_c, 3, 63, 100
5, 141687, Note_on_c, 3, 63, 0
5, 142456, Note_on_c, 3, 63, 100
5, 142551, Note_on_c, 3, 63, 0
5, 143896, Note_on_c, 3, 75, 100
5, 143991, Note_on_c, 3, 75, 0
5, 144760, Note_on_c, 3, 75, 100
5, 144855, Note_on_c, 3, 75, 0
5, 148216, Note_on_c, 3, 39, 100
5, 148407, Note_on_c, 3, 39, 0
5, 149828, Note_on_c, 3, 51, 100
5, 149927, Note_on_c, 3, 51, 0
5, 151038, Note_on_c, 3, 75, 100
5, 151238, Note_on_c, 3, 75, 0
5, 152496, Note_on_c, 3, 75, 100
5, 153339, Note_on_c, 3, 75, 0
5, 159557, Note_on_c, 3, 51, 100
5, 159752, Note_on_c, 3, 63, 100
5, 159842, Note_on_c, 3, 51, 0
5, 160139, Note_on_c, 3, 63, 0
5, 160144, Note_on_c, 3, 75, 100
5, 160144, Note_on_c, 3, 63, 100
5, 160240, Note_on_c, 3, 75, 0
5, 160338, Note_on_c, 3, 63, 0
5, 160340, Note_on_c, 3, 63, 100
5, 160438, Note_on_c, 3, 75, 100
5, 160534, Note_on_c, 3, 75, 0
5, 160634, Note_on_c, 3, 75, 100
5, 160727, Note_on_c, 3, 63, 0
5, 160730, Note_on_c, 3, 75, 0
5, 160829, Note_on_c, 3, 75, 100
5, 160925, Note_on_c, 3, 75, 0
5, 161417, Note_on_c, 3, 51, 100
5, 161513, Note_on_c, 3, 51, 0
5, 164257, Note_on_c, 3, 63, 100
5, 164542, Note_on_c, 3, 63, 0
5, 164648, Note_on_c, 3, 51, 100
5, 164842, Note_on_c, 3, 51, 0
5, 164844, Note_on_c, 3, 51, 100
5, 165038, Note_on_c, 3, 51, 0
5, 166117, Note_on_c, 3, 51, 100
5, 166213, Note_on_c, 3, 51, 0
5, 169022, Note_on_c, 3, 63, 100
5, 169117, Note_on_c, 3, 63, 0
5, 169310, Note_on_c, 3, 75, 100
5, 169501, Note_on_c, 3, 75, 0
5, 169502, Note_on_c, 3, 75, 100
5, 169592, Note_on_c, 3, 75, 0
5, 169598, Note_on_c, 3, 75, 100
5, 169693, Note_on_c, 3, 75, 0
5, 170744, Note_on_c, 3, 75, 100
5, 170837, Note_on_c, 3, 75, 0
5, 171967, Note_on_c, 3, 75, 100
5, 172248, Note_on_c, 3, 75, 0
5, 172344, Note_on_c, 3, 75, 100
5, 172531, Note_on_c, 3, 75, 0
5, 172532, Note_on_c, 3, 75, 100
5, 172719, Note_on_c, 3, 75, 0
5, 173567, Note_on_c, 3, 63, 100
5, 173660, Note_on_c, 3, 63, 0
5, 173850, Note_on_c, 3, 75, 100
5, 174037, Note_on_c, 3, 75, 0
5, 174038, Note_on_c, 3, 75, 100
5, 174132, Note_on_c, 3, 51, 100
5, 174225, Note_on_c, 3, 51, 0
5, 174225, Note_on_c, 3, 75, 0
5, 174226, Note_on_c, 3, 75, 100
5, 174413, Note_on_c, 3, 75, 0
5, 174932, Note_on_c, 3, 51, 100
5, 174978, Note_on_c, 3, 51, 0
5, 176767, Note_on_c, 3, 63, 100
5, 176860, Note_on_c, 3, 63, 0
5, 177991, Note_on_c, 3, 63, 100
5, 178272, Note_on_c, 3, 63, 0
5, 178367, Note_on_c, 3, 63, 100
5, 178554, Note_on_c, 3, 63, 0
5, 178556, Note_on_c, 3, 63, 100
5, 178743, Note_on_c, 3, 63, 0
5, 180925, Note_on_c, 3, 51, 100
5, 180970, Note_on_c, 3, 51, 0
5, 182541, Note_on_c, 3, 63, 100
5, 182632, Note_on_c, 3, 63, 0
5, 182818, Note_on_c, 3, 75, 100
5, 183001, Note_on_c, 3, 75, 0
5, 183002, Note_on_c, 3, 75, 100
5, 183095, Note_on_c, 3, 51, 100
5, 183185, Note_on_c, 3, 75, 0
5, 183186, Note_on_c, 3, 51, 0
5, 183187, Note_on_c, 3, 75, 100
5, 183370, Note_on_c, 3, 75, 0
5, 185402, Note_on_c, 3, 75, 100
5, 185677, Note_on_c, 3, 75, 0
5, 185771, Note_on_c, 3, 75, 100
5, 185954, Note_on_c, 3, 75, 0
5, 185956, Note_on_c, 3, 75, 100
5, 186139, Note_on_c, 3, 75, 0
5, 187156, Note_on_c, 3, 75, 100
5, 187247, Note_on_c, 3, 75, 0
5, 188310, Note_on_c, 3, 75, 100
5, 188355, Note_on_c, 3, 75, 0
5, 190138, Note_on_c, 3, 51, 100
5, 190233, Note_on_c, 3, 51, 0
5, 197013, Note_on_c, 3, 63, 100
5, 197064, Note_on_c, 3, 63, 0
5, 199124, Note_on_c, 3, 39, 100
5, 199230, Note_on_c, 3, 39, 0
5, 203266, Note_on_c, 3, 63, 100
5, 203457, Note_on_c, 3, 63, 0
5, 204130, Note_on_c, 3, 63, 100
5, 204225, Note_on_c, 3, 63, 0
5, 204418, Note_on_c, 3, 63, 100
5, 204609, Note_on_c, 3, 63, 0
5, 207298, Note_on_c, 3, 51, 100
5, 207489, Note_on_c, 3, 51, 0
5, 209602, Note_on_c, 3, 51, 100
5, 210177, Note_on_c, 3, 51, 0
5, 211330, Note_on_c, 3, 51, 100
5, 211714, Note_on_c, 3, 63, 100
5, 211809, Note_on_c, 3, 63, 0
5, 211905, Note_on_c, 3, 51, 0
5, 212290, Note_on_c, 3, 63, 100
5, 212385, Note_on_c, 3, 63, 0
5, 212770, Note_on_c, 3, 51, 100
5, 212865, Note_on_c, 3, 51, 0
5, 213058, Note_on_c, 3, 51, 100
5, 213249, Note_on_c, 3, 51, 0
5, 213250, Note_on_c, 3, 63, 100
5, 213441, Note_on_c, 3, 63, 0
5, 217090, Note_on_c, 3, 75, 100
5, 217281, Note_on_c, 3, 75, 0
5, 218914, Note_on_c, 3, 75, 100
5, 219009, Note_on_c, 3, 75, 0
5, 220546, Note_on_c, 3, 63, 100
5, 220737, Note_on_c, 3, 63, 0
5, 220738, Note_on_c, 3, 75, 100
5, 220929, Note_on_c, 3, 75, 0
5, 221794, Note_on_c, 3, 63, 100
5, 221889, Note_on_c, 3, 63, 0
5, 222562, Note_on_c, 3, 63, 100
5, 222657, Note_on_c, 3, 63, 0
5, 224578, Note_on_c, 3, 63, 100
5, 224673, Note_on_c, 3, 63, 0
5, 224866, Note_on_c, 3, 63, 100
5, 224961, Note_on_c, 3, 63, 0
5, 226306, Note_on_c, 3, 51, 100
5, 226497, Note_on_c, 3, 51, 0
5, 228034, Note_on_c, 3, 51, 100
5, 228225, Note_on_c, 3, 51, 0
5, 229474, Note_on_c, 3, 63, 100
5, 229569, Note_on_c, 3, 63, 0
5, 230914, Note_on_c, 3, 63, 100
5, 231105, Note_on_c, 3, 63, 0
5, 232258, Note_on_c, 3, 63, 100
5, 232353, Note_on_c, 3, 63, 0
5, 232546, Note_on_c, 3, 63, 100
5, 232641, Note_on_c, 3, 63, 0
5, 232930, Note_on_c, 3, 63, 100
5, 233025, Note_on_c, 3, 63, 0
5, 233218, Note_on_c, 3, 63, 100
5, 233313, Note_on_c, 3, 63, 0
5, 233410, Note_on_c, 3, 63, 100
5, 233505, Note_on_c, 3, 63, 0
5, 233602, Note_on_c, 3, 75, 100
5, 233697, Note_on_c, 3, 75, 0
5, 233698, Note_on_c, 3, 63, 100
5, 233793, Note_on_c, 3, 63, 0
5, 233890, Note_on_c, 3, 63, 100
5, 233985, Note_on_c, 3, 63, 0
5, 234370, Note_on_c, 3, 75, 100
5, 234561, Note_on_c, 3, 75, 0
5, 234562, Note_on_c, 3, 63, 100
5, 234753, Note_on_c, 3, 63, 0
5, 235330, Note_on_c, 3, 75, 100
5, 235521, Note_on_c, 3, 75, 0
5, 236290, Note_on_c, 3, 63, 100
5, 236482, Note_on_c, 3, 51, 100
5, 236577, Note_on_c, 3, 51, 0
5, 236673, Note_on_c, 3, 63, 0
5, 236962, Note_on_c, 3, 51, 100
5, 237057, Note_on_c, 3, 51, 0
5, 237250, Note_on_c, 3, 51, 100
5, 237345, Note_on_c, 3, 51, 0
5, 237442, Note_on_c, 3, 51, 100
5, 237537, Note_on_c, 3, 51, 0
5, 237634, Note_on_c, 3, 75, 100
5, 237730, Note_on_c, 3, 51, 100
5, 237825, Note_on_c, 3, 51, 0
5, 237922, Note_on_c, 3, 51, 100
5, 238017, Note_on_c, 3, 51, 0
5, 238017, Note_on_c, 3, 75, 0
5, 238498, Note_on_c, 3, 51, 100
5, 238593, Note_on_c, 3, 51, 0
5, 238594, Note_on_c, 3, 51, 100
5, 238882, Note_on_c, 3, 63, 100
5, 238977, Note_on_c, 3, 63, 0
5, 238977, Note_on_c, 3, 51, 0
5, 239074, Note_on_c, 3, 75, 100
5, 239169, Note_on_c, 3, 75, 0
5, 240706, Note_on_c, 3, 63, 100
5, 240897, Note_on_c, 3, 63, 0
5, 243586, Note_on_c, 3, 51, 100
5, 243777, Note_on_c, 3, 51, 0
5, 244738, Note_on_c, 3, 75, 100
5, 244929, Note_on_c, 3, 75, 0
5, 245698, Note_on_c, 3, 63, 100
5, 245793, Note_on_c, 3, 63, 0
5, 248002, Note_on_c, 3, 75, 100
5, 248193, Note_on_c, 3, 75, 0
5, 248962, Note_on_c, 3, 63, 100
5, 249057, Note_on_c, 3, 63, 0
5, 251362, Note_on_c, 3, 75, 100
5, 251457, Note_on_c, 3, 75, 0
5, 257410, Note_on_c, 3, 63, 100
5, 257697, Note_on_c, 3, 63, 0
5, 259138, Note_on_c, 3, 51, 100
5, 259425, Note_on_c, 3, 51, 0
5, 259522, Note_on_c, 3, 63, 100
5, 259617, Note_on_c, 3, 63, 0
5, 259618, Note_on_c, 3, 51, 100
5, 259713, Note_on_c, 3, 51, 0
5, 262018, Note_on_c, 3, 51, 100
5, 262209, Note_on_c, 3, 51, 0
5, 263170, Note_on_c, 3, 75, 100
5, 263361, Note_on_c, 3, 75, 0
5, 264898, Note_on_c, 3, 63, 100
5, 265186, Note_on_c, 3, 51, 100
5, 265281, Note_on_c, 3, 51, 0
5, 265473, Note_on_c, 3, 63, 0
5, 272067, Note_on_c, 3, 75, 100
5, 272115, Note_on_c, 3, 75, 0
5, 272217, Note_on_c, 3, 75, 100
5, 272265, Note_on_c, 3, 75, 0
5, 275052, Note_on_c, 3, 75, 100
5, 275280, Note_on_c, 3, 75, 0
5, 275280, End_track
6, 0, Start_track
6, 0, MIDI_port, 0
6, 0, Title_t, "--------------------------------------"
6, 0, Program_c, 4, 0
6, 0, Control_c, 4, 7, 100
6, 0, Control_c, 4, 10, 64
6, 0, Pitch_bend_c, 4, 7792
6, 3368, Note_on_c, 4, 76, 100
6, 3478, Note_on_c, 4, 76, 0
6, 3552, Note_on_c, 4, 76, 100
6, 3599, Note_on_c, 4, 76, 0
6, 3648, Note_on_c, 4, 76, 100
6, 3695, Note_on_c, 4, 76, 0
6, 6744, Note_on_c, 4, 76, 100
6, 6791, Note_on_c, 4, 76, 0
6, 7224, Note_on_c, 4, 64, 100
6, 7319, Note_on_c, 4, 64, 0
6, 11281, Note_on_c, 4, 40, 100
6, 11377, Note_on_c, 4, 40, 0
6, 11575, Note_on_c, 4, 40, 100
6, 12064, Note_on_c, 4, 40, 0
6, 12162, Note_on_c, 4, 52, 100
6, 12258, Note_on_c, 4, 52, 0
6, 13880, Note_on_c, 4, 64, 100
6, 14252, Note_on_c, 4, 64, 0
6, 14620, Note_on_c, 4, 64, 100
6, 14755, Note_on_c, 4, 64, 0
6, 29664, Note_on_c, 4, 76, 100
6, 29711, Note_on_c, 4, 76, 0
6, 30144, Note_on_c, 4, 64, 100
6, 30191, Note_on_c, 4, 64, 0
6, 30240, Note_on_c, 4, 64, 100
6, 30287, Note_on_c, 4, 64, 0
6, 32256, Note_on_c, 4, 64, 100
6, 32447, Note_on_c, 4, 64, 0
6, 34276, Note_on_c, 4, 52, 100
6, 34371, Note_on_c, 4, 52, 0
6, 34572, Note_on_c, 4, 64, 100
6, 34955, Note_on_c, 4, 64, 0
6, 37848, Note_on_c, 4, 52, 100
6, 38039, Note_on_c, 4, 52, 0
6, 38232, Note_on_c, 4, 52, 100
6, 38327, Note_on_c, 4, 52, 0
6, 39192, Note_on_c, 4, 64, 100
6, 39767, Note_on_c, 4, 64, 0
6, 40368, Note_on_c, 4, 64, 100
6, 40558, Note_on_c, 4, 64, 0
6, 40560, Note_on_c, 4, 64, 100
6, 40655, Note_on_c, 4, 64, 0
6, 42312, Note_on_c, 4, 76, 100
6, 42695, Note_on_c, 4, 76, 0
6, 42696, Note_on_c, 4, 76, 100
6, 43079, Note_on_c, 4, 76, 0
6, 43080, Note_on_c, 4, 76, 100
6, 43463, Note_on_c, 4, 76, 0
6, 44136, Note_on_c, 4, 76, 100
6, 44231, Note_on_c, 4, 76, 0
6, 44232, Note_on_c, 4, 76, 100
6, 44982, Note_on_c, 4, 76, 0
6, 45384, Note_on_c, 4, 64, 100
6, 45768, Note_on_c, 4, 76, 100
6, 46148, Note_on_c, 4, 76, 0
6, 46344, Note_on_c, 4, 76, 100
6, 46439, Note_on_c, 4, 76, 0
6, 46534, Note_on_c, 4, 64, 0
6, 47224, Note_on_c, 4, 76, 100
6, 47319, Note_on_c, 4, 76, 0
6, 47512, Note_on_c, 4, 76, 100
6, 47607, Note_on_c, 4, 76, 0
6, 48280, Note_on_c, 4, 76, 100
6, 48660, Note_on_c, 4, 76, 0
6, 48856, Note_on_c, 4, 76, 100
6, 48999, Note_on_c, 4, 76, 0
6, 49106, Note_on_c, 4, 76, 100
6, 49159, Note_on_c, 4, 76, 0
6, 51960, Note_on_c, 4, 64, 100
6, 52727, Note_on_c, 4, 64, 0
6, 52920, Note_on_c, 4, 64, 100
6, 53110, Note_on_c, 4, 64, 0
6, 54072, Note_on_c, 4, 64, 100
6, 54263, Note_on_c, 4, 64, 0
6, 55800, Note_on_c, 4, 76, 100
6, 57330, Note_on_c, 4, 76, 0
6, 57528, Note_on_c, 4, 76, 100
6, 57623, Note_on_c, 4, 76, 0
6, 59160, Note_on_c, 4, 76, 100
6, 59255, Note_on_c, 4, 76, 0
6, 61260, Note_on_c, 4, 76, 100
6, 61311, Note_on_c, 4, 76, 0
6, 61408, Note_on_c, 4, 76, 100
6, 61455, Note_on_c, 4, 76, 0
6, 61704, Note_on_c, 4, 64, 100
6, 61800, Note_on_c, 4, 76, 100
6, 61847, Note_on_c, 4, 76, 0
6, 61894, Note_on_c, 4, 64, 0
6, 63136, Note_on_c, 4, 52, 100
6, 63516, Note_on_c, 4, 52, 0
6, 69400, Note_on_c, 4, 64, 100
6, 69495, Note_on_c, 4, 64, 0
6, 69592, Note_on_c, 4, 64, 100
6, 69687, Note_on_c, 4, 64, 0
6, 69880, Note_on_c, 4, 76, 100
6, 70071, Note_on_c, 4, 76, 0
6, 70840, Note_on_c, 4, 52, 100
6, 70935, Note_on_c, 4, 52, 0
6, 71032, Note_on_c, 4, 52, 100
6, 71032, Note_on_c, 4, 76, 100
6, 71127, Note_on_c, 4, 52, 0
6, 71223, Note_on_c, 4, 76, 0
6, 71224, Note_on_c, 4, 76, 100
6, 71272, Note_on_c, 4, 76, 0
6, 71320, Note_on_c, 4, 76, 100
6, 71368, Note_on_c, 4, 76, 0
6, 75544, Note_on_c, 4, 76, 100
6, 75639, Note_on_c, 4, 76, 0
6, 75736, Note_on_c, 4, 76, 100
6, 75831, Note_on_c, 4, 76, 0
6, 76024, Note_on_c, 4, 52, 100
6, 76215, Note_on_c, 4, 52, 0
6, 76696, Note_on_c, 4, 76, 100
6, 76791, Note_on_c, 4, 76, 0
6, 76888, Note_on_c, 4, 76, 100
6, 76983, Note_on_c, 4, 76, 0
6, 77176, Note_on_c, 4, 52, 100
6, 77367, Note_on_c, 4, 52, 0
6, 78328, Note_on_c, 4, 52, 100
6, 78519, Note_on_c, 4, 52, 0
6, 79864, Note_on_c, 4, 52, 100
6, 79959, Note_on_c, 4, 52, 0
6, 80440, Note_on_c, 4, 64, 100
6, 80919, Note_on_c, 4, 64, 0
6, 86680, Note_on_c, 4, 64, 100
6, 86800, Note_on_c, 4, 64, 0
6, 86968, Note_on_c, 4, 64, 100
6, 87159, Note_on_c, 4, 64, 0
6, 87160, Note_on_c, 4, 52, 100
6, 87543, Note_on_c, 4, 52, 0
6, 87736, Note_on_c, 4, 76, 100
6, 87927, Note_on_c, 4, 76, 0
6, 88024, Note_on_c, 4, 64, 100
6, 88144, Note_on_c, 4, 64, 0
6, 89080, Note_on_c, 4, 52, 100
6, 89176, Note_on_c, 4, 76, 100
6, 89271, Note_on_c, 4, 52, 0
6, 89296, Note_on_c, 4, 76, 0
6, 90520, Note_on_c, 4, 76, 100
6, 90640, Note_on_c, 4, 76, 0
6, 90808, Note_on_c, 4, 76, 100
6, 90998, Note_on_c, 4, 76, 0
6, 91288, Note_on_c, 4, 76, 100
6, 91383, Note_on_c, 4, 76, 0
6, 91576, Note_on_c, 4, 76, 100
6, 91671, Note_on_c, 4, 76, 0
6, 91768, Note_on_c, 4, 76, 100
6, 91863, Note_on_c, 4, 76, 0
6, 92248, Note_on_c, 4, 64, 100
6, 92248, Note_on_c, 4, 76, 100
6, 92343, Note_on_c, 4, 76, 0
6, 92343, Note_on_c, 4, 64, 0
6, 92536, Note_on_c, 4, 64, 100
6, 92727, Note_on_c, 4, 64, 0
6, 92824, Note_on_c, 4, 76, 100
6, 92919, Note_on_c, 4, 76, 0
6, 93016, Note_on_c, 4, 76, 100
6, 93111, Note_on_c, 4, 76, 0
6, 93496, Note_on_c, 4, 64, 100
6, 93687, Note_on_c, 4, 64, 0
6, 93880, Note_on_c, 4, 52, 100
6, 94071, Note_on_c, 4, 52, 0
6, 94456, Note_on_c, 4, 52, 100
6, 94647, Note_on_c, 4, 52, 0
6, 95224, Note_on_c, 4, 76, 100
6, 95319, Note_on_c, 4, 76, 0
6, 96376, Note_on_c, 4, 64, 100
6, 96471, Note_on_c, 4, 64, 0
6, 96952, Note_on_c, 4, 40, 100
6, 97048, Note_on_c, 4, 64, 100
6, 97143, Note_on_c, 4, 64, 0
6, 97240, Note_on_c, 4, 64, 100
6, 97332, Note_on_c, 4, 40, 0
6, 97335, Note_on_c, 4, 64, 0
6, 98488, Note_on_c, 4, 64, 100
6, 98679, Note_on_c, 4, 64, 0
6, 98680, Note_on_c, 4, 76, 100
6, 98871, Note_on_c, 4, 76, 0
6, 99064, Note_on_c, 4, 76, 100
6, 99255, Note_on_c, 4, 76, 0
6, 99352, Note_on_c, 4, 52, 100
6, 99447, Note_on_c, 4, 52, 0
6, 99448, Note_on_c, 4, 76, 100
6, 99544, Note_on_c, 4, 52, 100
6, 99639, Note_on_c, 4, 52, 0
6, 99639, Note_on_c, 4, 76, 0
6, 99832, Note_on_c, 4, 76, 100
6, 100023, Note_on_c, 4, 76, 0
6, 100216, Note_on_c, 4, 64, 100
6, 100407, Note_on_c, 4, 64, 0
6, 100504, Note_on_c, 4, 52, 100
6, 100599, Note_on_c, 4, 52, 0
6, 100696, Note_on_c, 4, 52, 100
6, 100791, Note_on_c, 4, 52, 0
6, 100984, Note_on_c, 4, 52, 100
6, 100984, Note_on_c, 4, 76, 100
6, 101079, Note_on_c, 4, 52, 0
6, 101175, Note_on_c, 4, 76, 0
6, 101176, Note_on_c, 4, 76, 100
6, 101240, Note_on_c, 4, 76, 0
6, 101312, Note_on_c, 4, 76, 100
6, 101376, Note_on_c, 4, 76, 0
6, 103096, Note_on_c, 4, 76, 100
6, 103286, Note_on_c, 4, 76, 0
6, 103384, Note_on_c, 4, 76, 100
6, 103479, Note_on_c, 4, 76, 0
6, 103576, Note_on_c, 4, 76, 100
6, 103671, Note_on_c, 4, 76, 0
6, 103768, Note_on_c, 4, 76, 100
6, 103863, Note_on_c, 4, 76, 0
6, 104824, Note_on_c, 4, 52, 100
6, 104919, Note_on_c, 4, 52, 0
6, 105112, Note_on_c, 4, 52, 100
6, 105207, Note_on_c, 4, 52, 0
6, 110008, Note_on_c, 4, 64, 100
6, 110296, Note_on_c, 4, 76, 100
6, 110391, Note_on_c, 4, 76, 0
6, 110478, Note_on_c, 4, 64, 0
6, 110584, Note_on_c, 4, 64, 100
6, 110679, Note_on_c, 4, 64, 0
6, 110968, Note_on_c, 4, 76, 100
6, 111255, Note_on_c, 4, 76, 0
6, 111544, Note_on_c, 4, 64, 100
6, 111831, Note_on_c, 4, 64, 0
6, 112792, Note_on_c, 4, 64, 100
6, 112887, Note_on_c, 4, 64, 0
6, 113272, Note_on_c, 4, 64, 100
6, 113367, Note_on_c, 4, 64, 0
6, 113464, Note_on_c, 4, 52, 100
6, 113655, Note_on_c, 4, 52, 0
6, 113848, Note_on_c, 4, 64, 100
6, 113943, Note_on_c, 4, 64, 0
6, 114040, Note_on_c, 4, 64, 100
6, 114135, Note_on_c, 4, 64, 0
6, 114616, Note_on_c, 4, 64, 100
6, 114711, Note_on_c, 4, 64, 0
6, 114904, Note_on_c, 4, 64, 100
6, 114999, Note_on_c, 4, 64, 0
6, 115000, Note_on_c, 4, 40, 100
6, 115191, Note_on_c, 4, 40, 0
6, 115192, Note_on_c, 4, 64, 100
6, 115287, Note_on_c, 4, 64, 0
6, 116920, Note_on_c, 4, 64, 100
6, 117111, Note_on_c, 4, 64, 0
6, 120376, Note_on_c, 4, 64, 100
6, 120567, Note_on_c, 4, 64, 0
6, 121336, Note_on_c, 4, 64, 100
6, 121527, Note_on_c, 4, 64, 0
6, 122296, Note_on_c, 4, 64, 100
6, 122392, Note_on_c, 4, 52, 100
6, 122487, Note_on_c, 4, 52, 0
6, 122487, Note_on_c, 4, 64, 0
6, 122584, Note_on_c, 4, 52, 100
6, 122679, Note_on_c, 4, 52, 0
6, 122776, Note_on_c, 4, 64, 100
6, 122871, Note_on_c, 4, 64, 0
6, 122968, Note_on_c, 4, 64, 100
6, 123063, Note_on_c, 4, 64, 0
6, 123256, Note_on_c, 4, 52, 100
6, 123446, Note_on_c, 4, 52, 0
6, 123640, Note_on_c, 4, 64, 100
6, 123830, Note_on_c, 4, 64, 0
6, 124216, Note_on_c, 4, 52, 100
6, 124407, Note_on_c, 4, 52, 0
6, 124600, Note_on_c, 4, 64, 100
6, 124791, Note_on_c, 4, 64, 0
6, 124792, Note_on_c, 4, 52, 100
6, 124887, Note_on_c, 4, 52, 0
6, 125080, Note_on_c, 4, 52, 100
6, 125175, Note_on_c, 4, 52, 0
6, 125560, Note_on_c, 4, 64, 100
6, 125751, Note_on_c, 4, 64, 0
6, 126328, Note_on_c, 4, 64, 100
6, 126519, Note_on_c, 4, 64, 0
6, 127672, Note_on_c, 4, 52, 100
6, 127863, Note_on_c, 4, 52, 0
6, 128056, Note_on_c, 4, 76, 100
6, 128247, Note_on_c, 4, 76, 0
6, 129688, Note_on_c, 4, 76, 100
6, 129783, Note_on_c, 4, 76, 0
6, 129976, Note_on_c, 4, 76, 100
6, 130071, Note_on_c, 4, 76, 0
6, 130168, Note_on_c, 4, 76, 100
6, 130263, Note_on_c, 4, 76, 0
6, 130360, Note_on_c, 4, 76, 100
6, 130455, Note_on_c, 4, 76, 0
6, 130648, Note_on_c, 4, 76, 100
6, 130743, Note_on_c, 4, 76, 0
6, 134680, Note_on_c, 4, 76, 100
6, 134775, Note_on_c, 4, 76, 0
6, 134968, Note_on_c, 4, 52, 100
6, 135159, Note_on_c, 4, 52, 0
6, 136504, Note_on_c, 4, 76, 100
6, 136599, Note_on_c, 4, 76, 0
6, 136792, Note_on_c, 4, 76, 100
6, 136887, Note_on_c, 4, 76, 0
6, 137272, Note_on_c, 4, 76, 100
6, 137320, Note_on_c, 4, 76, 0
6, 137376, Note_on_c, 4, 76, 100
6, 137424, Note_on_c, 4, 76, 0
6, 137752, Note_on_c, 4, 64, 100
6, 137847, Note_on_c, 4, 64, 0
6, 138520, Note_on_c, 4, 64, 100
6, 138615, Note_on_c, 4, 64, 0
6, 138712, Note_on_c, 4, 64, 100
6, 138807, Note_on_c, 4, 64, 0
6, 139000, Note_on_c, 4, 76, 100
6, 139191, Note_on_c, 4, 76, 0
6, 139672, Note_on_c, 4, 64, 100
6, 139767, Note_on_c, 4, 64, 0
6, 139864, Note_on_c, 4, 64, 100
6, 139959, Note_on_c, 4, 64, 0
6, 140152, Note_on_c, 4, 76, 100
6, 140343, Note_on_c, 4, 76, 0
6, 140344, Note_on_c, 4, 76, 100
6, 140392, Note_on_c, 4, 76, 0
6, 140448, Note_on_c, 4, 76, 100
6, 140496, Note_on_c, 4, 76, 0
6, 141112, Note_on_c, 4, 64, 100
6, 141492, Note_on_c, 4, 64, 0
6, 141688, Note_on_c, 4, 64, 100
6, 141783, Note_on_c, 4, 64, 0
6, 142840, Note_on_c, 4, 64, 100
6, 142936, Note_on_c, 4, 76, 100
6, 143031, Note_on_c, 4, 76, 0
6, 143031, Note_on_c, 4, 64, 0
6, 143224, Note_on_c, 4, 76, 100
6, 143415, Note_on_c, 4, 76, 0
6, 143992, Note_on_c, 4, 76, 100
6, 144087, Note_on_c, 4, 76, 0
6, 150130, Note_on_c, 4, 52, 100
6, 150229, Note_on_c, 4, 52, 0
6, 150332, Note_on_c, 4, 52, 100
6, 150431, Note_on_c, 4, 52, 0
6, 150634, Note_on_c, 4, 64, 100
6, 150834, Note_on_c, 4, 64, 0
6, 154525, Note_on_c, 4, 76, 100
6, 154634, Note_on_c, 4, 76, 0
6, 155409, Note_on_c, 4, 64, 100
6, 155518, Note_on_c, 4, 64, 0
6, 156292, Note_on_c, 4, 52, 100
6, 156401, Note_on_c, 4, 52, 0
6, 162788, Note_on_c, 4, 52, 100
6, 162884, Note_on_c, 4, 52, 0
6, 163082, Note_on_c, 4, 64, 100
6, 163276, Note_on_c, 4, 64, 0
6, 163277, Note_on_c, 4, 64, 100
6, 163368, Note_on_c, 4, 64, 0
6, 163375, Note_on_c, 4, 64, 100
6, 163471, Note_on_c, 4, 64, 0
6, 164550, Note_on_c, 4, 64, 100
6, 164646, Note_on_c, 4, 64, 0
6, 165040, Note_on_c, 4, 64, 100
6, 165040, Note_on_c, 4, 52, 100
6, 165236, Note_on_c, 4, 76, 100
6, 165332, Note_on_c, 4, 76, 0
6, 165427, Note_on_c, 4, 52, 0
6, 165427, Note_on_c, 4, 64, 0
6, 165628, Note_on_c, 4, 64, 100
6, 165724, Note_on_c, 4, 64, 0
6, 167341, Note_on_c, 4, 76, 100
6, 167388, Note_on_c, 4, 76, 0
6, 167390, Note_on_c, 4, 76, 100
6, 167869, Note_on_c, 4, 76, 0
6, 167870, Note_on_c, 4, 76, 100
6, 167965, Note_on_c, 4, 76, 0
6, 169694, Note_on_c, 4, 76, 100
6, 169790, Note_on_c, 4, 64, 100
6, 169885, Note_on_c, 4, 64, 0
6, 169982, Note_on_c, 4, 64, 100
6, 170074, Note_on_c, 4, 76, 0
6, 170077, Note_on_c, 4, 64, 0
6, 170174, Note_on_c, 4, 64, 100
6, 170269, Note_on_c, 4, 64, 0
6, 172250, Note_on_c, 4, 76, 100
6, 172343, Note_on_c, 4, 76, 0
6, 172909, Note_on_c, 4, 64, 100
6, 172909, Note_on_c, 4, 76, 100
6, 173002, Note_on_c, 4, 64, 0
6, 173095, Note_on_c, 4, 76, 0
6, 173285, Note_on_c, 4, 52, 100
6, 173378, Note_on_c, 4, 52, 0
6, 174226, Note_on_c, 4, 52, 100
6, 174319, Note_on_c, 4, 52, 0
6, 174603, Note_on_c, 4, 52, 100
6, 174696, Note_on_c, 4, 52, 0
6, 174885, Note_on_c, 4, 52, 100
6, 174931, Note_on_c, 4, 52, 0
6, 174979, Note_on_c, 4, 52, 100
6, 175440, Note_on_c, 4, 52, 0
6, 175450, Note_on_c, 4, 52, 100
6, 175543, Note_on_c, 4, 52, 0
6, 178273, Note_on_c, 4, 64, 100
6, 178366, Note_on_c, 4, 64, 0
6, 178932, Note_on_c, 4, 52, 100
6, 178932, Note_on_c, 4, 64, 100
6, 179025, Note_on_c, 4, 52, 0
6, 179118, Note_on_c, 4, 64, 0
6, 179309, Note_on_c, 4, 40, 100
6, 179402, Note_on_c, 4, 40, 0
6, 179403, Note_on_c, 4, 52, 100
6, 179449, Note_on_c, 4, 52, 0
6, 179679, Note_on_c, 4, 64, 100
6, 179770, Note_on_c, 4, 64, 0
6, 179864, Note_on_c, 4, 64, 100
6, 180047, Note_on_c, 4, 64, 0
6, 180048, Note_on_c, 4, 64, 100
6, 180048, Note_on_c, 4, 52, 100
6, 180139, Note_on_c, 4, 52, 0
6, 180231, Note_on_c, 4, 64, 0
6, 180233, Note_on_c, 4, 64, 100
6, 180325, Note_on_c, 4, 52, 100
6, 180416, Note_on_c, 4, 52, 0
6, 180510, Note_on_c, 4, 52, 100
6, 180598, Note_on_c, 4, 64, 0
6, 180601, Note_on_c, 4, 52, 0
6, 180695, Note_on_c, 4, 52, 100
6, 180786, Note_on_c, 4, 52, 0
6, 180879, Note_on_c, 4, 52, 100
6, 180924, Note_on_c, 4, 52, 0
6, 180971, Note_on_c, 4, 52, 100
6, 181431, Note_on_c, 4, 52, 0
6, 181433, Note_on_c, 4, 52, 100
6, 181524, Note_on_c, 4, 52, 0
6, 183187, Note_on_c, 4, 52, 100
6, 183278, Note_on_c, 4, 52, 0
6, 183556, Note_on_c, 4, 52, 100
6, 183647, Note_on_c, 4, 52, 0
6, 184018, Note_on_c, 4, 64, 100
6, 184109, Note_on_c, 4, 64, 0
6, 184295, Note_on_c, 4, 76, 100
6, 184478, Note_on_c, 4, 76, 0
6, 184479, Note_on_c, 4, 76, 100
6, 184571, Note_on_c, 4, 52, 100
6, 184662, Note_on_c, 4, 52, 0
6, 184662, Note_on_c, 4, 76, 0
6, 184664, Note_on_c, 4, 76, 100
6, 184847, Note_on_c, 4, 76, 0
6, 185679, Note_on_c, 4, 76, 100
6, 185770, Note_on_c, 4, 76, 0
6, 186325, Note_on_c, 4, 76, 100
6, 186325, Note_on_c, 4, 64, 100
6, 186416, Note_on_c, 4, 64, 0
6, 186507, Note_on_c, 4, 76, 0
6, 186695, Note_on_c, 4, 52, 100
6, 186786, Note_on_c, 4, 52, 0
6, 188264, Note_on_c, 4, 76, 100
6, 188309, Note_on_c, 4, 76, 0
6, 188344, Note_on_c, 4, 76, 100
6, 188813, Note_on_c, 4, 76, 0
6, 188814, Note_on_c, 4, 76, 100
6, 188907, Note_on_c, 4, 76, 0
6, 191679, Note_on_c, 4, 64, 100
6, 191775, Note_on_c, 4, 64, 0
6, 196961, Note_on_c, 4, 64, 100
6, 197012, Note_on_c, 4, 64, 0
6, 197066, Note_on_c, 4, 64, 100
6, 197603, Note_on_c, 4, 64, 0
6, 197605, Note_on_c, 4, 64, 100
6, 197710, Note_on_c, 4, 64, 0
6, 202882, Note_on_c, 4, 64, 100
6, 203073, Note_on_c, 4, 64, 0
6, 203074, Note_on_c, 4, 64, 100
6, 203265, Note_on_c, 4, 64, 0
6, 204226, Note_on_c, 4, 64, 100
6, 204321, Note_on_c, 4, 64, 0
6, 206914, Note_on_c, 4, 52, 100
6, 207105, Note_on_c, 4, 52, 0
6, 207106, Note_on_c, 4, 52, 100
6, 207297, Note_on_c, 4, 52, 0
6, 209698, Note_on_c, 4, 64, 100
6, 209793, Note_on_c, 4, 64, 0
6, 210178, Note_on_c, 4, 52, 100
6, 210753, Note_on_c, 4, 52, 0
6, 211138, Note_on_c, 4, 64, 100
6, 211233, Note_on_c, 4, 64, 0
6, 212194, Note_on_c, 4, 64, 100
6, 212289, Note_on_c, 4, 64, 0
6, 212482, Note_on_c, 4, 64, 100
6, 212865, Note_on_c, 4, 64, 0
6, 212866, Note_on_c, 4, 64, 100
6, 212866, Note_on_c, 4, 52, 100
6, 212961, Note_on_c, 4, 52, 0
6, 213057, Note_on_c, 4, 64, 0
6, 215074, Note_on_c, 4, 52, 100
6, 215169, Note_on_c, 4, 52, 0
6, 216706, Note_on_c, 4, 76, 100
6, 216897, Note_on_c, 4, 76, 0
6, 216898, Note_on_c, 4, 76, 100
6, 217089, Note_on_c, 4, 76, 0
6, 220162, Note_on_c, 4, 76, 100
6, 220353, Note_on_c, 4, 76, 0
6, 220354, Note_on_c, 4, 64, 100
6, 220449, Note_on_c, 4, 64, 0
6, 222082, Note_on_c, 4, 64, 100
6, 222273, Note_on_c, 4, 64, 0
6, 222850, Note_on_c, 4, 64, 100
6, 222945, Note_on_c, 4, 64, 0
6, 224482, Note_on_c, 4, 64, 100
6, 224577, Note_on_c, 4, 64, 0
6, 225250, Note_on_c, 4, 64, 100
6, 225345, Note_on_c, 4, 64, 0
6, 225442, Note_on_c, 4, 64, 100
6, 225537, Note_on_c, 4, 64, 0
6, 225922, Note_on_c, 4, 52, 100
6, 226113, Note_on_c, 4, 52, 0
6, 226114, Note_on_c, 4, 52, 100
6, 226305, Note_on_c, 4, 52, 0
6, 228226, Note_on_c, 4, 52, 100
6, 228417, Note_on_c, 4, 52, 0
6, 230530, Note_on_c, 4, 64, 100
6, 230721, Note_on_c, 4, 64, 0
6, 230722, Note_on_c, 4, 64, 100
6, 230913, Note_on_c, 4, 64, 0
6, 231874, Note_on_c, 4, 64, 100
6, 231970, Note_on_c, 4, 52, 100
6, 232065, Note_on_c, 4, 52, 0
6, 232065, Note_on_c, 4, 64, 0
6, 232450, Note_on_c, 4, 64, 100
6, 232545, Note_on_c, 4, 64, 0
6, 232642, Note_on_c, 4, 64, 100
6, 232737, Note_on_c, 4, 64, 0
6, 232834, Note_on_c, 4, 64, 100
6, 232929, Note_on_c, 4, 64, 0
6, 233122, Note_on_c, 4, 64, 100
6, 233217, Note_on_c, 4, 64, 0
6, 233314, Note_on_c, 4, 64, 100
6, 233409, Note_on_c, 4, 64, 0
6, 233506, Note_on_c, 4, 76, 100
6, 233601, Note_on_c, 4, 76, 0
6, 233794, Note_on_c, 4, 76, 100
6, 233985, Note_on_c, 4, 76, 0
6, 233986, Note_on_c, 4, 64, 100
6, 234177, Note_on_c, 4, 64, 0
6, 234754, Note_on_c, 4, 76, 100
6, 234945, Note_on_c, 4, 76, 0
6, 235714, Note_on_c, 4, 64, 100
6, 235905, Note_on_c, 4, 64, 0
6, 235906, Note_on_c, 4, 52, 100
6, 236001, Note_on_c, 4, 52, 0
6, 236386, Note_on_c, 4, 52, 100
6, 236481, Note_on_c, 4, 52, 0
6, 236674, Note_on_c, 4, 52, 100
6, 236769, Note_on_c, 4, 52, 0
6, 236866, Note_on_c, 4, 52, 100
6, 236961, Note_on_c, 4, 52, 0
6, 237058, Note_on_c, 4, 76, 100
6, 237154, Note_on_c, 4, 52, 100
6, 237249, Note_on_c, 4, 52, 0
6, 237346, Note_on_c, 4, 52, 100
6, 237441, Note_on_c, 4, 52, 0
6, 237441, Note_on_c, 4, 76, 0
6, 238018, Note_on_c, 4, 52, 100
6, 238209, Note_on_c, 4, 52, 0
6, 238210, Note_on_c, 4, 52, 100
6, 238497, Note_on_c, 4, 52, 0
6, 238978, Note_on_c, 4, 64, 100
6, 239169, Note_on_c, 4, 64, 0
6, 239170, Note_on_c, 4, 76, 100
6, 239649, Note_on_c, 4, 76, 0
6, 239650, Note_on_c, 4, 76, 100
6, 239745, Note_on_c, 4, 76, 0
6, 239938, Note_on_c, 4, 64, 100
6, 240034, Note_on_c, 4, 52, 100
6, 240129, Note_on_c, 4, 52, 0
6, 240417, Note_on_c, 4, 64, 0
6, 240898, Note_on_c, 4, 76, 100
6, 241186, Note_on_c, 4, 64, 100
6, 241281, Note_on_c, 4, 64, 0
6, 241377, Note_on_c, 4, 76, 0
6, 241378, Note_on_c, 4, 76, 100
6, 241473, Note_on_c, 4, 76, 0
6, 241858, Note_on_c, 4, 64, 100
6, 241858, Note_on_c, 4, 52, 100
6, 242138, Note_on_c, 4, 52, 0
6, 242138, Note_on_c, 4, 64, 0
6, 242242, Note_on_c, 4, 76, 100
6, 242337, Note_on_c, 4, 76, 0
6, 242914, Note_on_c, 4, 64, 100
6, 243009, Note_on_c, 4, 64, 0
6, 243778, Note_on_c, 4, 52, 100
6, 244161, Note_on_c, 4, 52, 0
6, 244354, Note_on_c, 4, 76, 100
6, 244545, Note_on_c, 4, 76, 0
6, 244546, Note_on_c, 4, 76, 100
6, 244737, Note_on_c, 4, 76, 0
6, 245218, Note_on_c, 4, 52, 100
6, 245313, Note_on_c, 4, 52, 0
6, 245410, Note_on_c, 4, 64, 100
6, 245505, Note_on_c, 4, 64, 0
6, 245890, Note_on_c, 4, 64, 100
6, 246082, Note_on_c, 4, 76, 100
6, 246177, Note_on_c, 4, 64, 0
6, 246178, Note_on_c, 4, 64, 100
6, 246273, Note_on_c, 4, 64, 0
6, 246657, Note_on_c, 4, 76, 0
6, 246658, Note_on_c, 4, 76, 100
6, 247138, Note_on_c, 4, 64, 100
6, 247233, Note_on_c, 4, 64, 0
6, 247233, Note_on_c, 4, 76, 0
6, 247234, Note_on_c, 4, 76, 100
6, 247522, Note_on_c, 4, 52, 100
6, 247617, Note_on_c, 4, 52, 0
6, 247713, Note_on_c, 4, 76, 0
6, 247714, Note_on_c, 4, 76, 100
6, 248001, Note_on_c, 4, 76, 0
6, 248194, Note_on_c, 4, 76, 100
6, 248194, Note_on_c, 4, 52, 100
6, 248385, Note_on_c, 4, 52, 0
6, 248386, Note_on_c, 4, 64, 100
6, 248481, Note_on_c, 4, 76, 0
6, 248577, Note_on_c, 4, 64, 0
6, 248578, Note_on_c, 4, 76, 100
6, 248578, Note_on_c, 4, 64, 100
6, 248673, Note_on_c, 4, 76, 0
6, 248961, Note_on_c, 4, 64, 0
6, 249538, Note_on_c, 4, 76, 100
6, 249634, Note_on_c, 4, 64, 100
6, 249729, Note_on_c, 4, 64, 0
6, 249729, Note_on_c, 4, 76, 0
6, 249730, Note_on_c, 4, 76, 100
6, 249921, Note_on_c, 4, 76, 0
6, 250786, Note_on_c, 4, 76, 100
6, 250881, Note_on_c, 4, 76, 0
6, 251266, Note_on_c, 4, 76, 100
6, 251361, Note_on_c, 4, 76, 0
6, 251458, Note_on_c, 4, 76, 100
6, 251458, Note_on_c, 4, 64, 100
6, 251649, Note_on_c, 4, 64, 0
6, 251745, Note_on_c, 4, 76, 0
6, 251746, Note_on_c, 4, 76, 100
6, 251841, Note_on_c, 4, 76, 0
6, 252226, Note_on_c, 4, 52, 100
6, 252417, Note_on_c, 4, 52, 0
6, 252514, Note_on_c, 4, 76, 100
6, 252609, Note_on_c, 4, 76, 0
6, 253378, Note_on_c, 4, 64, 100
6, 253568, Note_on_c, 4, 64, 0
6, 253666, Note_on_c, 4, 52, 100
6, 253761, Note_on_c, 4, 52, 0
6, 253954, Note_on_c, 4, 64, 100
6, 254145, Note_on_c, 4, 64, 0
6, 254434, Note_on_c, 4, 52, 100
6, 254529, Note_on_c, 4, 52, 0
6, 254530, Note_on_c, 4, 64, 100
6, 254913, Note_on_c, 4, 64, 0
6, 254914, Note_on_c, 4, 64, 100
6, 255194, Note_on_c, 4, 64, 0
6, 257986, Note_on_c, 4, 52, 100
6, 258273, Note_on_c, 4, 52, 0
6, 258370, Note_on_c, 4, 64, 100
6, 258465, Note_on_c, 4, 64, 0
6, 258466, Note_on_c, 4, 52, 100
6, 258561, Note_on_c, 4, 52, 0
6, 259426, Note_on_c, 4, 64, 100
6, 259426, Note_on_c, 4, 52, 100
6, 259521, Note_on_c, 4, 52, 0
6, 259521, Note_on_c, 4, 64, 0
6, 261634, Note_on_c, 4, 52, 100
6, 261825, Note_on_c, 4, 52, 0
6, 261826, Note_on_c, 4, 52, 100
6, 262017, Note_on_c, 4, 52, 0
6, 262786, Note_on_c, 4, 76, 100
6, 262977, Note_on_c, 4, 76, 0
6, 262978, Note_on_c, 4, 76, 100
6, 263169, Note_on_c, 4, 76, 0
6, 272117, Note_on_c, 4, 76, 100
6, 272215, Note_on_c, 4, 76, 0
6, 273791, Note_on_c, 4, 64, 100
6, 273901, Note_on_c, 4, 64, 0
6, 274592, Note_on_c, 4, 76, 100
6, 274816, Note_on_c, 4, 76, 0
6, 274820, Note_on_c, 4, 76, 100
6, 275044, Note_on_c, 4, 76, 0
6, 275044, End_track
7, 0, Start_track
7, 0, MIDI_port, 0
7, 0, Program_c, 5, 0
7, 0, Control_c, 5, 7, 100
7, 0, Control_c, 5, 10, 64
7, 0, Pitch_bend_c, 5, 8112
7, 1752, Note_on_c, 5, 77, 100
7, 1800, Note_on_c, 5, 77, 0
7, 1800, Note_on_c, 5, 77, 100
7, 1848, Note_on_c, 5, 77, 0
7, 4560, Note_on_c, 5, 65, 100
7, 4607, Note_on_c, 5, 65, 0
7, 4656, Note_on_c, 5, 65, 100
7, 4786, Note_on_c, 5, 65, 0
7, 4848, Note_on_c, 5, 65, 100
7, 4895, Note_on_c, 5, 65, 0
7, 5194, Note_on_c, 5, 65, 100
7, 5254, Note_on_c, 5, 65, 0
7, 5664, Note_on_c, 5, 53, 100
7, 5711, Note_on_c, 5, 53, 0
7, 6346, Note_on_c, 5, 65, 100
7, 6406, Note_on_c, 5, 65, 0
7, 7704, Note_on_c, 5, 65, 100
7, 7799, Note_on_c, 5, 65, 0
7, 9528, Note_on_c, 5, 53, 100
7, 9908, Note_on_c, 5, 53, 0
7, 10008, Note_on_c, 5, 53, 100
7, 10103, Note_on_c, 5, 53, 0
7, 13607, Note_on_c, 5, 65, 100
7, 13699, Note_on_c, 5, 65, 0
7, 15376, Note_on_c, 5, 53, 100
7, 15529, Note_on_c, 5, 77, 100
7, 15619, Note_on_c, 5, 77, 0
7, 15737, Note_on_c, 5, 53, 0
7, 16294, Note_on_c, 5, 65, 100
7, 16384, Note_on_c, 5, 65, 0
7, 17432, Note_on_c, 5, 77, 100
7, 17522, Note_on_c, 5, 77, 0
7, 17706, Note_on_c, 5, 77, 100
7, 17819, Note_on_c, 5, 77, 0
7, 17929, Note_on_c, 5, 77, 100
7, 18476, Note_on_c, 5, 77, 0
7, 19348, Note_on_c, 5, 65, 100
7, 19438, Note_on_c, 5, 65, 0
7, 20096, Note_on_c, 5, 53, 100
7, 20186, Note_on_c, 5, 53, 0
7, 21128, Note_on_c, 5, 65, 100
7, 21223, Note_on_c, 5, 65, 0
7, 22304, Note_on_c, 5, 53, 100
7, 22399, Note_on_c, 5, 53, 0
7, 22880, Note_on_c, 5, 53, 100
7, 22975, Note_on_c, 5, 53, 0
7, 23456, Note_on_c, 5, 53, 100
7, 23551, Note_on_c, 5, 53, 0
7, 25356, Note_on_c, 5, 65, 100
7, 25516, Note_on_c, 5, 65, 0
7, 26352, Note_on_c, 5, 53, 100
7, 26447, Note_on_c, 5, 53, 0
7, 27168, Note_on_c, 5, 53, 100
7, 27263, Note_on_c, 5, 53, 0
7, 27978, Note_on_c, 5, 53, 100
7, 28110, Note_on_c, 5, 53, 0
7, 29504, Note_on_c, 5, 77, 100
7, 29551, Note_on_c, 5, 77, 0
7, 31872, Note_on_c, 5, 65, 100
7, 32255, Note_on_c, 5, 65, 0
7, 33408, Note_on_c, 5, 53, 100
7, 33791, Note_on_c, 5, 53, 0
7, 35544, Note_on_c, 5, 65, 100
7, 35735, Note_on_c, 5, 65, 0
7, 36504, Note_on_c, 5, 65, 100
7, 37079, Note_on_c, 5, 65, 0
7, 38808, Note_on_c, 5, 65, 100
7, 39188, Note_on_c, 5, 65, 0
7, 44040, Note_on_c, 5, 77, 100
7, 44135, Note_on_c, 5, 77, 0
7, 46248, Note_on_c, 5, 77, 100
7, 46343, Note_on_c, 5, 77, 0
7, 46440, Note_on_c, 5, 77, 100
7, 46493, Note_on_c, 5, 77, 0
7, 47896, Note_on_c, 5, 77, 100
7, 48087, Note_on_c, 5, 77, 0
7, 50232, Note_on_c, 5, 65, 100
7, 50423, Note_on_c, 5, 65, 0
7, 50808, Note_on_c, 5, 77, 100
7, 51188, Note_on_c, 5, 77, 0
7, 53400, Note_on_c, 5, 77, 100
7, 53495, Note_on_c, 5, 77, 0
7, 53496, Note_on_c, 5, 77, 100
7, 53879, Note_on_c, 5, 77, 0
7, 55416, Note_on_c, 5, 77, 100
7, 55796, Note_on_c, 5, 77, 0
7, 58104, Note_on_c, 5, 53, 100
7, 58644, Note_on_c, 5, 53, 0
7, 58776, Note_on_c, 5, 77, 100
7, 58871, Note_on_c, 5, 77, 0
7, 60024, Note_on_c, 5, 53, 100
7, 60404, Note_on_c, 5, 53, 0
7, 62752, Note_on_c, 5, 53, 100
7, 63135, Note_on_c, 5, 53, 0
7, 64032, Note_on_c, 5, 65, 100
7, 64222, Note_on_c, 5, 65, 0
7, 64622, Note_on_c, 5, 65, 100
7, 65402, Note_on_c, 5, 65, 0
7, 67384, Note_on_c, 5, 65, 100
7, 67575, Note_on_c, 5, 65, 0
7, 71992, Note_on_c, 5, 65, 100
7, 72087, Note_on_c, 5, 65, 0
7, 72184, Note_on_c, 5, 65, 100
7, 72279, Note_on_c, 5, 65, 0
7, 72376, Note_on_c, 5, 77, 100
7, 72567, Note_on_c, 5, 77, 0
7, 74488, Note_on_c, 5, 77, 100
7, 74679, Note_on_c, 5, 77, 0
7, 77560, Note_on_c, 5, 53, 100
7, 77655, Note_on_c, 5, 53, 0
7, 77752, Note_on_c, 5, 53, 100
7, 77943, Note_on_c, 5, 53, 0
7, 79096, Note_on_c, 5, 65, 100
7, 79266, Note_on_c, 5, 65, 0
7, 80920, Note_on_c, 5, 65, 100
7, 81015, Note_on_c, 5, 65, 0
7, 81112, Note_on_c, 5, 65, 100
7, 81207, Note_on_c, 5, 65, 0
7, 81784, Note_on_c, 5, 65, 100
7, 81879, Note_on_c, 5, 65, 0
7, 82360, Note_on_c, 5, 65, 100
7, 82743, Note_on_c, 5, 65, 0
7, 83512, Note_on_c, 5, 65, 100
7, 83703, Note_on_c, 5, 65, 0
7, 83896, Note_on_c, 5, 41, 100
7, 83991, Note_on_c, 5, 41, 0
7, 84088, Note_on_c, 5, 41, 100
7, 84183, Note_on_c, 5, 41, 0
7, 84280, Note_on_c, 5, 65, 100
7, 84471, Note_on_c, 5, 65, 0
7, 84664, Note_on_c, 5, 53, 100
7, 84855, Note_on_c, 5, 53, 0
7, 85144, Note_on_c, 5, 53, 100
7, 85239, Note_on_c, 5, 53, 0
7, 85336, Note_on_c, 5, 53, 100
7, 85431, Note_on_c, 5, 53, 0
7, 88312, Note_on_c, 5, 65, 100
7, 88503, Note_on_c, 5, 65, 0
7, 102520, Note_on_c, 5, 77, 100
7, 102615, Note_on_c, 5, 77, 0
7, 104248, Note_on_c, 5, 53, 100
7, 104343, Note_on_c, 5, 53, 0
7, 105783, Note_on_c, 5, 65, 100
7, 105923, Note_on_c, 5, 65, 0
7, 107320, Note_on_c, 5, 65, 100
7, 107511, Note_on_c, 5, 65, 0
7, 107704, Note_on_c, 5, 53, 100
7, 107799, Note_on_c, 5, 53, 0
7, 108184, Note_on_c, 5, 53, 100
7, 108279, Note_on_c, 5, 53, 0
7, 115672, Note_on_c, 5, 77, 100
7, 115762, Note_on_c, 5, 77, 0
7, 117016, Note_on_c, 5, 77, 100
7, 117207, Note_on_c, 5, 77, 0
7, 117400, Note_on_c, 5, 77, 100
7, 117591, Note_on_c, 5, 77, 0
7, 117688, Note_on_c, 5, 53, 100
7, 117783, Note_on_c, 5, 53, 0
7, 117976, Note_on_c, 5, 53, 100
7, 118071, Note_on_c, 5, 53, 0
7, 118264, Note_on_c, 5, 53, 100
7, 118359, Note_on_c, 5, 53, 0
7, 119032, Note_on_c, 5, 65, 100
7, 119223, Note_on_c, 5, 65, 0
7, 120952, Note_on_c, 5, 65, 100
7, 121047, Note_on_c, 5, 65, 0
7, 129016, Note_on_c, 5, 41, 100
7, 129207, Note_on_c, 5, 41, 0
7, 131128, Note_on_c, 5, 77, 100
7, 131223, Note_on_c, 5, 77, 0
7, 131320, Note_on_c, 5, 77, 100
7, 131415, Note_on_c, 5, 77, 0
7, 131512, Note_on_c, 5, 65, 100
7, 131892, Note_on_c, 5, 65, 0
7, 132472, Note_on_c, 5, 77, 100
7, 132567, Note_on_c, 5, 77, 0
7, 132664, Note_on_c, 5, 53, 100
7, 132855, Note_on_c, 5, 53, 0
7, 133048, Note_on_c, 5, 77, 100
7, 133143, Note_on_c, 5, 77, 0
7, 133240, Note_on_c, 5, 77, 100
7, 133335, Note_on_c, 5, 77, 0
7, 134008, Note_on_c, 5, 77, 100
7, 134103, Note_on_c, 5, 77, 0
7, 134200, Note_on_c, 5, 77, 100
7, 134295, Note_on_c, 5, 77, 0
7, 142264, Note_on_c, 5, 65, 100
7, 142359, Note_on_c, 5, 65, 0
7, 142552, Note_on_c, 5, 65, 100
7, 142647, Note_on_c, 5, 65, 0
7, 144568, Note_on_c, 5, 77, 100
7, 144663, Note_on_c, 5, 77, 0
7, 144856, Note_on_c, 5, 77, 100
7, 144951, Note_on_c, 5, 77, 0
7, 145336, Note_on_c, 5, 77, 100
7, 145527, Note_on_c, 5, 77, 0
7, 145720, Note_on_c, 5, 65, 100
7, 145911, Note_on_c, 5, 65, 0
7, 146488, Note_on_c, 5, 65, 100
7, 146679, Note_on_c, 5, 65, 0
7, 146680, Note_on_c, 5, 65, 100
7, 146775, Note_on_c, 5, 65, 0
7, 147640, Note_on_c, 5, 53, 100
7, 147831, Note_on_c, 5, 53, 0
7, 148024, Note_on_c, 5, 41, 100
7, 148215, Note_on_c, 5, 41, 0
7, 148417, Note_on_c, 5, 65, 100
7, 148919, Note_on_c, 5, 65, 0
7, 148921, Note_on_c, 5, 65, 100
7, 149020, Note_on_c, 5, 65, 0
7, 149727, Note_on_c, 5, 65, 100
7, 149826, Note_on_c, 5, 65, 0
7, 149929, Note_on_c, 5, 53, 100
7, 150028, Note_on_c, 5, 53, 0
7, 151239, Note_on_c, 5, 77, 100
7, 151439, Note_on_c, 5, 77, 0
7, 151441, Note_on_c, 5, 41, 100
7, 151540, Note_on_c, 5, 41, 0
7, 152179, Note_on_c, 5, 77, 100
7, 152283, Note_on_c, 5, 77, 0
7, 153024, Note_on_c, 5, 65, 100
7, 153128, Note_on_c, 5, 65, 0
7, 153763, Note_on_c, 5, 77, 100
7, 154289, Note_on_c, 5, 77, 0
7, 157314, Note_on_c, 5, 53, 100
7, 157428, Note_on_c, 5, 53, 0
7, 157429, Note_on_c, 5, 65, 100
7, 157543, Note_on_c, 5, 65, 0
7, 157660, Note_on_c, 5, 53, 100
7, 157774, Note_on_c, 5, 53, 0
7, 158121, Note_on_c, 5, 65, 100
7, 158235, Note_on_c, 5, 65, 0
7, 159850, Note_on_c, 5, 53, 100
7, 159946, Note_on_c, 5, 53, 0
7, 161123, Note_on_c, 5, 65, 100
7, 161408, Note_on_c, 5, 65, 0
7, 161515, Note_on_c, 5, 53, 100
7, 161709, Note_on_c, 5, 53, 0
7, 161711, Note_on_c, 5, 53, 100
7, 161905, Note_on_c, 5, 53, 0
7, 165823, Note_on_c, 5, 65, 100
7, 166108, Note_on_c, 5, 65, 0
7, 166215, Note_on_c, 5, 53, 100
7, 166409, Note_on_c, 5, 53, 0
7, 166411, Note_on_c, 5, 53, 100
7, 166605, Note_on_c, 5, 53, 0
7, 168878, Note_on_c, 5, 77, 100
7, 168925, Note_on_c, 5, 77, 0
7, 170462, Note_on_c, 5, 77, 100
7, 170743, Note_on_c, 5, 77, 0
7, 170838, Note_on_c, 5, 77, 100
7, 171025, Note_on_c, 5, 77, 0
7, 171026, Note_on_c, 5, 77, 100
7, 171213, Note_on_c, 5, 77, 0
7, 176485, Note_on_c, 5, 65, 100
7, 176766, Note_on_c, 5, 65, 0
7, 176862, Note_on_c, 5, 65, 100
7, 177049, Note_on_c, 5, 65, 0
7, 177050, Note_on_c, 5, 65, 100
7, 177237, Note_on_c, 5, 65, 0
7, 182402, Note_on_c, 5, 53, 100
7, 182447, Note_on_c, 5, 53, 0
7, 186879, Note_on_c, 5, 77, 100
7, 187154, Note_on_c, 5, 77, 0
7, 187248, Note_on_c, 5, 77, 100
7, 187431, Note_on_c, 5, 77, 0
7, 187433, Note_on_c, 5, 77, 100
7, 187616, Note_on_c, 5, 77, 0
7, 187618, Note_on_c, 5, 77, 100
7, 187801, Note_on_c, 5, 77, 0
7, 189850, Note_on_c, 5, 77, 100
7, 190137, Note_on_c, 5, 77, 0
7, 190234, Note_on_c, 5, 53, 100
7, 190425, Note_on_c, 5, 53, 0
7, 190426, Note_on_c, 5, 53, 100
7, 190617, Note_on_c, 5, 53, 0
7, 192169, Note_on_c, 5, 65, 100
7, 192265, Note_on_c, 5, 65, 0
7, 192561, Note_on_c, 5, 65, 100
7, 192657, Note_on_c, 5, 65, 0
7, 192903, Note_on_c, 5, 65, 100
7, 192950, Note_on_c, 5, 65, 0
7, 193708, Note_on_c, 5, 65, 100
7, 193756, Note_on_c, 5, 65, 0
7, 194515, Note_on_c, 5, 65, 100
7, 194563, Note_on_c, 5, 65, 0
7, 194969, Note_on_c, 5, 65, 100
7, 195067, Note_on_c, 5, 65, 0
7, 195120, Note_on_c, 5, 65, 100
7, 195168, Note_on_c, 5, 65, 0
7, 195322, Note_on_c, 5, 65, 100
7, 195370, Note_on_c, 5, 65, 0
7, 195742, Note_on_c, 5, 65, 100
7, 195793, Note_on_c, 5, 65, 0
7, 196166, Note_on_c, 5, 65, 100
7, 196217, Note_on_c, 5, 65, 0
7, 196590, Note_on_c, 5, 65, 100
7, 196641, Note_on_c, 5, 65, 0
7, 199234, Note_on_c, 5, 41, 100
7, 199450, Note_on_c, 5, 41, 0
7, 199455, Note_on_c, 5, 41, 100
7, 199671, Note_on_c, 5, 41, 0
7, 200737, Note_on_c, 5, 65, 100
7, 200792, Note_on_c, 5, 65, 0
7, 201502, Note_on_c, 5, 65, 100
7, 201726, Note_on_c, 5, 65, 0
7, 202690, Note_on_c, 5, 65, 100
7, 202881, Note_on_c, 5, 65, 0
7, 205282, Note_on_c, 5, 65, 100
7, 205377, Note_on_c, 5, 65, 0
7, 205762, Note_on_c, 5, 65, 100
7, 206145, Note_on_c, 5, 65, 0
7, 206722, Note_on_c, 5, 53, 100
7, 206913, Note_on_c, 5, 53, 0
7, 207874, Note_on_c, 5, 65, 100
7, 208065, Note_on_c, 5, 65, 0
7, 208642, Note_on_c, 5, 65, 100
7, 208737, Note_on_c, 5, 65, 0
7, 208930, Note_on_c, 5, 65, 100
7, 209025, Note_on_c, 5, 65, 0
7, 213634, Note_on_c, 5, 65, 100
7, 213825, Note_on_c, 5, 65, 0
7, 213922, Note_on_c, 5, 53, 100
7, 214017, Note_on_c, 5, 53, 0
7, 214402, Note_on_c, 5, 53, 100
7, 214785, Note_on_c, 5, 53, 0
7, 215554, Note_on_c, 5, 77, 100
7, 215937, Note_on_c, 5, 77, 0
7, 216514, Note_on_c, 5, 77, 100
7, 216705, Note_on_c, 5, 77, 0
7, 218434, Note_on_c, 5, 77, 100
7, 218529, Note_on_c, 5, 77, 0
7, 218722, Note_on_c, 5, 77, 100
7, 218817, Note_on_c, 5, 77, 0
7, 219394, Note_on_c, 5, 77, 100
7, 219489, Note_on_c, 5, 77, 0
7, 221410, Note_on_c, 5, 65, 100
7, 221505, Note_on_c, 5, 65, 0
7, 224002, Note_on_c, 5, 65, 100
7, 224193, Note_on_c, 5, 65, 0
7, 224770, Note_on_c, 5, 65, 100
7, 224865, Note_on_c, 5, 65, 0
7, 224962, Note_on_c, 5, 65, 100
7, 225057, Note_on_c, 5, 65, 0
7, 225730, Note_on_c, 5, 53, 100
7, 225921, Note_on_c, 5, 53, 0
7, 226882, Note_on_c, 5, 65, 100
7, 227073, Note_on_c, 5, 65, 0
7, 227650, Note_on_c, 5, 65, 100
7, 227745, Note_on_c, 5, 65, 0
7, 227842, Note_on_c, 5, 65, 100
7, 228033, Note_on_c, 5, 65, 0
7, 228418, Note_on_c, 5, 53, 100
7, 228609, Note_on_c, 5, 53, 0
7, 228898, Note_on_c, 5, 65, 100
7, 228993, Note_on_c, 5, 65, 0
7, 229378, Note_on_c, 5, 65, 100
7, 229473, Note_on_c, 5, 65, 0
7, 229570, Note_on_c, 5, 65, 100
7, 229761, Note_on_c, 5, 65, 0
7, 230050, Note_on_c, 5, 53, 100
7, 230145, Note_on_c, 5, 53, 0
7, 230338, Note_on_c, 5, 65, 100
7, 230529, Note_on_c, 5, 65, 0
7, 231490, Note_on_c, 5, 65, 100
7, 231681, Note_on_c, 5, 65, 0
7, 237826, Note_on_c, 5, 53, 100
7, 238017, Note_on_c, 5, 53, 0
7, 241474, Note_on_c, 5, 53, 100
7, 241665, Note_on_c, 5, 53, 0
7, 241666, Note_on_c, 5, 77, 100
7, 241666, Note_on_c, 5, 53, 100
7, 241761, Note_on_c, 5, 77, 0
7, 241857, Note_on_c, 5, 53, 0
7, 249346, Note_on_c, 5, 77, 100
7, 249537, Note_on_c, 5, 77, 0
7, 255682, Note_on_c, 5, 65, 100
7, 255777, Note_on_c, 5, 65, 0
7, 256450, Note_on_c, 5, 65, 100
7, 256545, Note_on_c, 5, 65, 0
7, 260098, Note_on_c, 5, 53, 100
7, 260193, Note_on_c, 5, 53, 0
7, 260290, Note_on_c, 5, 65, 100
7, 260385, Note_on_c, 5, 65, 0
7, 261442, Note_on_c, 5, 53, 100
7, 261633, Note_on_c, 5, 53, 0
7, 262594, Note_on_c, 5, 77, 100
7, 262785, Note_on_c, 5, 77, 0
7, 263746, Note_on_c, 5, 65, 100
7, 264034, Note_on_c, 5, 53, 100
7, 264129, Note_on_c, 5, 53, 0
7, 264321, Note_on_c, 5, 65, 0
7, 265474, Note_on_c, 5, 65, 100
7, 265854, Note_on_c, 5, 65, 0
7, 265858, Note_on_c, 5, 65, 100
7, 266048, Note_on_c, 5, 65, 0
7, 268738, Note_on_c, 5, 53, 100
7, 268833, Note_on_c, 5, 53, 0
7, 270466, Note_on_c, 5, 65, 100
7, 270561, Note_on_c, 5, 65, 0
7, 272266, Note_on_c, 5, 77, 100
7, 272314, Note_on_c, 5, 77, 0
7, 272416, Note_on_c, 5, 77, 100
7, 272464, Note_on_c, 5, 77, 0
7, 273462, Note_on_c, 5, 65, 100
7, 273676, Note_on_c, 5, 65, 0
7, 274363, Note_on_c, 5, 77, 100
7, 274587, Note_on_c, 5, 77, 0
7, 276002, Note_on_c, 5, 65, 100
7, 276243, Note_on_c, 5, 65, 0
7, 276243, End_track
8, 0, Start_track
8, 0, MIDI_port, 0
8, 0, Program_c, 6, 0
8, 0, Control_c, 6, 7, 100
8, 0, Control_c, 6, 10, 64
8, 0, Pitch_bend_c, 6, 7710
8, 96, Note_on_c, 6, 54, 100
8, 286, Note_on_c, 6, 54, 0
8, 768, Note_on_c, 6, 54, 100
8, 815, Note_on_c, 6, 54, 0
8, 912, Note_on_c, 6, 66, 100
8, 959, Note_on_c, 6, 66, 0
8, 1008, Note_on_c, 6, 66, 100
8, 1098, Note_on_c, 6, 66, 0
8, 1584, Note_on_c, 6, 66, 100
8, 1631, Note_on_c, 6, 66, 0
8, 1728, Note_on_c, 6, 78, 100
8, 1776, Note_on_c, 6, 78, 0
8, 1776, Note_on_c, 6, 78, 100
8, 1824, Note_on_c, 6, 78, 0
8, 1824, Note_on_c, 6, 78, 100
8, 2144, Note_on_c, 6, 78, 0
8, 2352, Note_on_c, 6, 66, 100
8, 2399, Note_on_c, 6, 66, 0
8, 2592, Note_on_c, 6, 54, 100
8, 2688, Note_on_c, 6, 42, 100
8, 2932, Note_on_c, 6, 54, 0
8, 3168, Note_on_c, 6, 42, 0
8, 3600, Note_on_c, 6, 78, 100
8, 3647, Note_on_c, 6, 78, 0
8, 4224, Note_on_c, 6, 66, 100
8, 4271, Note_on_c, 6, 66, 0
8, 4512, Note_on_c, 6, 66, 100
8, 4559, Note_on_c, 6, 66, 0
8, 4704, Note_on_c, 6, 66, 100
8, 4751, Note_on_c, 6, 66, 0
8, 4800, Note_on_c, 6, 66, 100
8, 4847, Note_on_c, 6, 66, 0
8, 5141, Note_on_c, 6, 66, 100
8, 5200, Note_on_c, 6, 66, 0
8, 5255, Note_on_c, 6, 66, 100
8, 5471, Note_on_c, 6, 54, 100
8, 5518, Note_on_c, 6, 54, 0
8, 5616, Note_on_c, 6, 54, 100
8, 5635, Note_on_c, 6, 66, 0
8, 5663, Note_on_c, 6, 54, 0
8, 5712, Note_on_c, 6, 54, 100
8, 5759, Note_on_c, 6, 54, 0
8, 6048, Note_on_c, 6, 66, 100
8, 6095, Note_on_c, 6, 66, 0
8, 6288, Note_on_c, 6, 66, 100
8, 6346, Note_on_c, 6, 66, 0
8, 6404, Note_on_c, 6, 66, 100
8, 6503, Note_on_c, 6, 66, 0
8, 6792, Note_on_c, 6, 78, 100
8, 6839, Note_on_c, 6, 78, 0
8, 7608, Note_on_c, 6, 42, 100
8, 7800, Note_on_c, 6, 66, 100
8, 7990, Note_on_c, 6, 66, 0
8, 8760, Note_on_c, 6, 66, 100
8, 9040, Note_on_c, 6, 66, 0
8, 9048, Note_on_c, 6, 54, 100
8, 9143, Note_on_c, 6, 54, 0
8, 9240, Note_on_c, 6, 54, 100
8, 9335, Note_on_c, 6, 54, 0
8, 9908, Note_on_c, 6, 42, 0
8, 10104, Note_on_c, 6, 54, 100
8, 10392, Note_on_c, 6, 42, 100
8, 10484, Note_on_c, 6, 54, 0
8, 10582, Note_on_c, 6, 42, 0
8, 10592, Note_on_c, 6, 42, 100
8, 11060, Note_on_c, 6, 42, 0
8, 11379, Note_on_c, 6, 42, 100
8, 11475, Note_on_c, 6, 42, 0
8, 11872, Note_on_c, 6, 54, 100
8, 11963, Note_on_c, 6, 54, 0
8, 12560, Note_on_c, 6, 66, 100
8, 13032, Note_on_c, 6, 54, 100
8, 13146, Note_on_c, 6, 66, 0
8, 13230, Note_on_c, 6, 66, 100
8, 13314, Note_on_c, 6, 54, 0
8, 13322, Note_on_c, 6, 66, 0
8, 13412, Note_on_c, 6, 66, 100
8, 13506, Note_on_c, 6, 66, 0
8, 13697, Note_on_c, 6, 66, 100
8, 13789, Note_on_c, 6, 54, 100
8, 13881, Note_on_c, 6, 54, 0
8, 13882, Note_on_c, 6, 66, 0
8, 14346, Note_on_c, 6, 66, 100
8, 14436, Note_on_c, 6, 66, 0
8, 15101, Note_on_c, 6, 54, 100
8, 15191, Note_on_c, 6, 54, 0
8, 16163, Note_on_c, 6, 54, 100
8, 16386, Note_on_c, 6, 66, 100
8, 16476, Note_on_c, 6, 66, 0
8, 16524, Note_on_c, 6, 54, 0
8, 16843, Note_on_c, 6, 54, 100
8, 16933, Note_on_c, 6, 54, 0
8, 17066, Note_on_c, 6, 78, 100
8, 17156, Note_on_c, 6, 78, 0
8, 17249, Note_on_c, 6, 78, 100
8, 17339, Note_on_c, 6, 78, 0
8, 17523, Note_on_c, 6, 78, 100
8, 17703, Note_on_c, 6, 78, 0
8, 18477, Note_on_c, 6, 54, 100
8, 18692, Note_on_c, 6, 78, 100
8, 18782, Note_on_c, 6, 78, 0
8, 18838, Note_on_c, 6, 54, 0
8, 19241, Note_on_c, 6, 54, 100
8, 19440, Note_on_c, 6, 66, 100
8, 19530, Note_on_c, 6, 66, 0
8, 19602, Note_on_c, 6, 54, 0
8, 20187, Note_on_c, 6, 54, 100
8, 20277, Note_on_c, 6, 54, 0
8, 20659, Note_on_c, 6, 42, 100
8, 20759, Note_on_c, 6, 42, 0
8, 20928, Note_on_c, 6, 66, 100
8, 21043, Note_on_c, 6, 66, 0
8, 21224, Note_on_c, 6, 66, 100
8, 21604, Note_on_c, 6, 66, 0
8, 21824, Note_on_c, 6, 66, 100
8, 21919, Note_on_c, 6, 66, 0
8, 22400, Note_on_c, 6, 54, 100
8, 22780, Note_on_c, 6, 54, 0
8, 22976, Note_on_c, 6, 54, 100
8, 23166, Note_on_c, 6, 54, 0
8, 23264, Note_on_c, 6, 54, 100
8, 23359, Note_on_c, 6, 54, 0
8, 23552, Note_on_c, 6, 54, 100
8, 23647, Note_on_c, 6, 54, 0
8, 24162, Note_on_c, 6, 54, 100
8, 24270, Note_on_c, 6, 54, 0
8, 24368, Note_on_c, 6, 54, 100
8, 24463, Note_on_c, 6, 54, 0
8, 24560, Note_on_c, 6, 54, 100
8, 24840, Note_on_c, 6, 54, 0
8, 25044, Note_on_c, 6, 66, 100
8, 25214, Note_on_c, 6, 66, 0
8, 25248, Note_on_c, 6, 66, 100
8, 25368, Note_on_c, 6, 66, 0
8, 25584, Note_on_c, 6, 42, 100
8, 25856, Note_on_c, 6, 66, 100
8, 25951, Note_on_c, 6, 66, 0
8, 26448, Note_on_c, 6, 54, 100
8, 26928, Note_on_c, 6, 54, 0
8, 27264, Note_on_c, 6, 54, 100
8, 27584, Note_on_c, 6, 54, 0
8, 27760, Note_on_c, 6, 54, 100
8, 27855, Note_on_c, 6, 54, 0
8, 27884, Note_on_c, 6, 42, 0
8, 28118, Note_on_c, 6, 54, 100
8, 28885, Note_on_c, 6, 54, 0
8, 29136, Note_on_c, 6, 78, 100
8, 29241, Note_on_c, 6, 78, 0
8, 29344, Note_on_c, 6, 78, 100
8, 29449, Note_on_c, 6, 78, 0
8, 29552, Note_on_c, 6, 78, 100
8, 29657, Note_on_c, 6, 78, 0
8, 29952, Note_on_c, 6, 66, 100
8, 29999, Note_on_c, 6, 66, 0
8, 30096, Note_on_c, 6, 66, 100
8, 30143, Note_on_c, 6, 66, 0
8, 30720, Note_on_c, 6, 66, 100
8, 31103, Note_on_c, 6, 66, 0
8, 31104, Note_on_c, 6, 66, 100
8, 31464, Note_on_c, 6, 66, 0
8, 31488, Note_on_c, 6, 66, 100
8, 31871, Note_on_c, 6, 66, 0
8, 32544, Note_on_c, 6, 66, 100
8, 32633, Note_on_c, 6, 66, 0
8, 32640, Note_on_c, 6, 66, 100
8, 33380, Note_on_c, 6, 66, 0
8, 33792, Note_on_c, 6, 54, 100
8, 34176, Note_on_c, 6, 66, 100
8, 34272, Note_on_c, 6, 54, 0
8, 34592, Note_on_c, 6, 66, 0
8, 35352, Note_on_c, 6, 66, 100
8, 35543, Note_on_c, 6, 66, 0
8, 35736, Note_on_c, 6, 66, 100
8, 36106, Note_on_c, 6, 66, 0
8, 37080, Note_on_c, 6, 66, 100
8, 37271, Note_on_c, 6, 66, 0
8, 37272, Note_on_c, 6, 66, 100
8, 37272, Note_on_c, 6, 42, 100
8, 37272, Note_on_c, 6, 54, 100
8, 37612, Note_on_c, 6, 66, 0
8, 37632, Note_on_c, 6, 54, 0
8, 37655, Note_on_c, 6, 42, 0
8, 37656, Note_on_c, 6, 66, 100
8, 37656, Note_on_c, 6, 54, 100
8, 37847, Note_on_c, 6, 54, 0
8, 38036, Note_on_c, 6, 66, 0
8, 38040, Note_on_c, 6, 66, 100
8, 38420, Note_on_c, 6, 66, 0
8, 38424, Note_on_c, 6, 66, 100
8, 38807, Note_on_c, 6, 66, 0
8, 40272, Note_on_c, 6, 66, 100
8, 40367, Note_on_c, 6, 66, 0
8, 43080, Note_on_c, 6, 66, 100
8, 43463, Note_on_c, 6, 66, 0
8, 45000, Note_on_c, 6, 78, 100
8, 45383, Note_on_c, 6, 78, 0
8, 45960, Note_on_c, 6, 66, 100
8, 46151, Note_on_c, 6, 66, 0
8, 46936, Note_on_c, 6, 78, 100
8, 47316, Note_on_c, 6, 78, 0
8, 47320, Note_on_c, 6, 66, 100
8, 47320, Note_on_c, 6, 78, 100
8, 47700, Note_on_c, 6, 78, 0
8, 47700, Note_on_c, 6, 66, 0
8, 47704, Note_on_c, 6, 78, 100
8, 47895, Note_on_c, 6, 78, 0
8, 48472, Note_on_c, 6, 66, 100
8, 48852, Note_on_c, 6, 66, 0
8, 49053, Note_on_c, 6, 78, 100
8, 49106, Note_on_c, 6, 78, 0
8, 49159, Note_on_c, 6, 78, 100
8, 49212, Note_on_c, 6, 78, 0
8, 49272, Note_on_c, 6, 66, 100
8, 49655, Note_on_c, 6, 66, 0
8, 49656, Note_on_c, 6, 66, 100
8, 50036, Note_on_c, 6, 66, 0
8, 50040, Note_on_c, 6, 66, 100
8, 50231, Note_on_c, 6, 66, 0
8, 50424, Note_on_c, 6, 66, 100
8, 50804, Note_on_c, 6, 66, 0
8, 51192, Note_on_c, 6, 78, 100
8, 51959, Note_on_c, 6, 78, 0
8, 51960, Note_on_c, 6, 78, 100
8, 52343, Note_on_c, 6, 78, 0
8, 53112, Note_on_c, 6, 66, 100
8, 53304, Note_on_c, 6, 78, 100
8, 53399, Note_on_c, 6, 78, 0
8, 53492, Note_on_c, 6, 66, 0
8, 53880, Note_on_c, 6, 78, 100
8, 53880, Note_on_c, 6, 66, 100
8, 54071, Note_on_c, 6, 66, 0
8, 55030, Note_on_c, 6, 78, 0
8, 55800, Note_on_c, 6, 66, 100
8, 55800, Note_on_c, 6, 54, 100
8, 56180, Note_on_c, 6, 54, 0
8, 57330, Note_on_c, 6, 66, 0
8, 57912, Note_on_c, 6, 54, 100
8, 58102, Note_on_c, 6, 54, 0
8, 58680, Note_on_c, 6, 78, 100
8, 58775, Note_on_c, 6, 78, 0
8, 58872, Note_on_c, 6, 78, 100
8, 58872, Note_on_c, 6, 54, 100
8, 59159, Note_on_c, 6, 78, 0
8, 59252, Note_on_c, 6, 54, 0
8, 59448, Note_on_c, 6, 54, 100
8, 59828, Note_on_c, 6, 54, 0
8, 60216, Note_on_c, 6, 66, 100
8, 60311, Note_on_c, 6, 66, 0
8, 60408, Note_on_c, 6, 66, 100
8, 60408, Note_on_c, 6, 54, 100
8, 60408, Note_on_c, 6, 42, 100
8, 60791, Note_on_c, 6, 42, 0
8, 60791, Note_on_c, 6, 54, 0
8, 61088, Note_on_c, 6, 66, 0
8, 61104, Note_on_c, 6, 78, 100
8, 61155, Note_on_c, 6, 78, 0
8, 61208, Note_on_c, 6, 78, 100
8, 61262, Note_on_c, 6, 78, 0
8, 61512, Note_on_c, 6, 54, 100
8, 61512, Note_on_c, 6, 66, 100
8, 61702, Note_on_c, 6, 66, 0
8, 61848, Note_on_c, 6, 78, 100
8, 61895, Note_on_c, 6, 78, 0
8, 62692, Note_on_c, 6, 54, 0
8, 63488, Note_on_c, 6, 54, 100
8, 63535, Note_on_c, 6, 54, 0
8, 63536, Note_on_c, 6, 54, 100
8, 63727, Note_on_c, 6, 54, 0
8, 64224, Note_on_c, 6, 54, 100
8, 64224, Note_on_c, 6, 66, 100
8, 64319, Note_on_c, 6, 54, 0
8, 64335, Note_on_c, 6, 66, 0
8, 64338, Note_on_c, 6, 66, 100
8, 64582, Note_on_c, 6, 66, 0
8, 67192, Note_on_c, 6, 66, 100
8, 67383, Note_on_c, 6, 66, 0
8, 68536, Note_on_c, 6, 66, 100
8, 68727, Note_on_c, 6, 66, 0
8, 68728, Note_on_c, 6, 66, 100
8, 68823, Note_on_c, 6, 66, 0
8, 69112, Note_on_c, 6, 78, 100
8, 69303, Note_on_c, 6, 78, 0
8, 69304, Note_on_c, 6, 66, 100
8, 69399, Note_on_c, 6, 66, 0
8, 69496, Note_on_c, 6, 66, 100
8, 69591, Note_on_c, 6, 66, 0
8, 69688, Note_on_c, 6, 78, 100
8, 69879, Note_on_c, 6, 78, 0
8, 70552, Note_on_c, 6, 54, 100
8, 70647, Note_on_c, 6, 54, 0
8, 70744, Note_on_c, 6, 54, 100
8, 70839, Note_on_c, 6, 54, 0
8, 71224, Note_on_c, 6, 54, 100
8, 71415, Note_on_c, 6, 54, 0
8, 72088, Note_on_c, 6, 66, 100
8, 72183, Note_on_c, 6, 66, 0
8, 72280, Note_on_c, 6, 66, 100
8, 72375, Note_on_c, 6, 66, 0
8, 72568, Note_on_c, 6, 78, 100
8, 72759, Note_on_c, 6, 78, 0
8, 73240, Note_on_c, 6, 78, 100
8, 73335, Note_on_c, 6, 78, 0
8, 74104, Note_on_c, 6, 78, 100
8, 74487, Note_on_c, 6, 78, 0
8, 74680, Note_on_c, 6, 78, 100
8, 74871, Note_on_c, 6, 78, 0
8, 74872, Note_on_c, 6, 78, 100
8, 74967, Note_on_c, 6, 78, 0
8, 75064, Note_on_c, 6, 66, 100
8, 75255, Note_on_c, 6, 66, 0
8, 75256, Note_on_c, 6, 54, 100
8, 75447, Note_on_c, 6, 54, 0
8, 75448, Note_on_c, 6, 78, 100
8, 75543, Note_on_c, 6, 78, 0
8, 75640, Note_on_c, 6, 78, 100
8, 75735, Note_on_c, 6, 78, 0
8, 75832, Note_on_c, 6, 54, 100
8, 76023, Note_on_c, 6, 54, 0
8, 76216, Note_on_c, 6, 54, 100
8, 76791, Note_on_c, 6, 54, 0
8, 76984, Note_on_c, 6, 78, 100
8, 77079, Note_on_c, 6, 78, 0
8, 77656, Note_on_c, 6, 54, 100
8, 77751, Note_on_c, 6, 54, 0
8, 77944, Note_on_c, 6, 54, 100
8, 78135, Note_on_c, 6, 54, 0
8, 78712, Note_on_c, 6, 66, 100
8, 79095, Note_on_c, 6, 66, 0
8, 79288, Note_on_c, 6, 42, 100
8, 79288, Note_on_c, 6, 66, 100
8, 79668, Note_on_c, 6, 66, 0
8, 79668, Note_on_c, 6, 42, 0
8, 79768, Note_on_c, 6, 54, 100
8, 79863, Note_on_c, 6, 54, 0
8, 79960, Note_on_c, 6, 54, 100
8, 80055, Note_on_c, 6, 54, 0
8, 80632, Note_on_c, 6, 54, 100
8, 80727, Note_on_c, 6, 54, 0
8, 81208, Note_on_c, 6, 66, 100
8, 81687, Note_on_c, 6, 66, 0
8, 81688, Note_on_c, 6, 66, 100
8, 81783, Note_on_c, 6, 66, 0
8, 81880, Note_on_c, 6, 66, 100
8, 81975, Note_on_c, 6, 66, 0
8, 82168, Note_on_c, 6, 66, 100
8, 82359, Note_on_c, 6, 66, 0
8, 82744, Note_on_c, 6, 66, 100
8, 82935, Note_on_c, 6, 66, 0
8, 83320, Note_on_c, 6, 66, 100
8, 83511, Note_on_c, 6, 66, 0
8, 83608, Note_on_c, 6, 42, 100
8, 83703, Note_on_c, 6, 42, 0
8, 83800, Note_on_c, 6, 42, 100
8, 83895, Note_on_c, 6, 42, 0
8, 83992, Note_on_c, 6, 42, 100
8, 84087, Note_on_c, 6, 42, 0
8, 84088, Note_on_c, 6, 66, 100
8, 84184, Note_on_c, 6, 42, 100
8, 84279, Note_on_c, 6, 42, 0
8, 84279, Note_on_c, 6, 66, 0
8, 84472, Note_on_c, 6, 54, 100
8, 84663, Note_on_c, 6, 54, 0
8, 84856, Note_on_c, 6, 54, 100
8, 85143, Note_on_c, 6, 54, 0
8, 85432, Note_on_c, 6, 54, 100
8, 85432, Note_on_c, 6, 66, 100
8, 85622, Note_on_c, 6, 66, 0
8, 85623, Note_on_c, 6, 54, 0
8, 85624, Note_on_c, 6, 66, 100
8, 85815, Note_on_c, 6, 66, 0
8, 86872, Note_on_c, 6, 66, 100
8, 86967, Note_on_c, 6, 66, 0
8, 88216, Note_on_c, 6, 66, 100
8, 88336, Note_on_c, 6, 66, 0
8, 88504, Note_on_c, 6, 66, 100
8, 88695, Note_on_c, 6, 66, 0
8, 88696, Note_on_c, 6, 54, 100
8, 89079, Note_on_c, 6, 54, 0
8, 89368, Note_on_c, 6, 78, 100
8, 89558, Note_on_c, 6, 78, 0
8, 89560, Note_on_c, 6, 78, 100
8, 89680, Note_on_c, 6, 78, 0
8, 90712, Note_on_c, 6, 78, 100
8, 90807, Note_on_c, 6, 78, 0
8, 91192, Note_on_c, 6, 78, 100
8, 91287, Note_on_c, 6, 78, 0
8, 91384, Note_on_c, 6, 78, 100
8, 91479, Note_on_c, 6, 78, 0
8, 91864, Note_on_c, 6, 66, 100
8, 91959, Note_on_c, 6, 66, 0
8, 92344, Note_on_c, 6, 66, 100
8, 92535, Note_on_c, 6, 66, 0
8, 92728, Note_on_c, 6, 78, 100
8, 92823, Note_on_c, 6, 78, 0
8, 92920, Note_on_c, 6, 78, 100
8, 93015, Note_on_c, 6, 78, 0
8, 93688, Note_on_c, 6, 54, 100
8, 93879, Note_on_c, 6, 54, 0
8, 94072, Note_on_c, 6, 54, 100
8, 94263, Note_on_c, 6, 54, 0
8, 95032, Note_on_c, 6, 66, 100
8, 95128, Note_on_c, 6, 78, 100
8, 95223, Note_on_c, 6, 78, 0
8, 95320, Note_on_c, 6, 78, 100
8, 95415, Note_on_c, 6, 78, 0
8, 95511, Note_on_c, 6, 66, 0
8, 95608, Note_on_c, 6, 66, 100
8, 95703, Note_on_c, 6, 66, 0
8, 96184, Note_on_c, 6, 42, 100
8, 96280, Note_on_c, 6, 66, 100
8, 96375, Note_on_c, 6, 66, 0
8, 96472, Note_on_c, 6, 66, 100
8, 96564, Note_on_c, 6, 42, 0
8, 96567, Note_on_c, 6, 66, 0
8, 96760, Note_on_c, 6, 42, 100
8, 96855, Note_on_c, 6, 42, 0
8, 97720, Note_on_c, 6, 66, 100
8, 98199, Note_on_c, 6, 66, 0
8, 98296, Note_on_c, 6, 42, 100
8, 98391, Note_on_c, 6, 42, 0
8, 98680, Note_on_c, 6, 54, 100
8, 98775, Note_on_c, 6, 54, 0
8, 98872, Note_on_c, 6, 78, 100
8, 99063, Note_on_c, 6, 78, 0
8, 99256, Note_on_c, 6, 54, 100
8, 99351, Note_on_c, 6, 54, 0
8, 99448, Note_on_c, 6, 54, 100
8, 99543, Note_on_c, 6, 54, 0
8, 99640, Note_on_c, 6, 78, 100
8, 99831, Note_on_c, 6, 78, 0
8, 100024, Note_on_c, 6, 66, 100
8, 100215, Note_on_c, 6, 66, 0
8, 100792, Note_on_c, 6, 54, 100
8, 100887, Note_on_c, 6, 54, 0
8, 101080, Note_on_c, 6, 54, 100
8, 101175, Note_on_c, 6, 54, 0
8, 101752, Note_on_c, 6, 66, 100
8, 101847, Note_on_c, 6, 66, 0
8, 102328, Note_on_c, 6, 66, 100
8, 102424, Note_on_c, 6, 78, 100
8, 102518, Note_on_c, 6, 66, 0
8, 102519, Note_on_c, 6, 78, 0
8, 102616, Note_on_c, 6, 78, 100
8, 102711, Note_on_c, 6, 78, 0
8, 102808, Note_on_c, 6, 78, 100
8, 102903, Note_on_c, 6, 78, 0
8, 103000, Note_on_c, 6, 78, 100
8, 103095, Note_on_c, 6, 78, 0
8, 103288, Note_on_c, 6, 66, 100
8, 103383, Note_on_c, 6, 66, 0
8, 103480, Note_on_c, 6, 78, 100
8, 103575, Note_on_c, 6, 78, 0
8, 103672, Note_on_c, 6, 78, 100
8, 103767, Note_on_c, 6, 78, 0
8, 103864, Note_on_c, 6, 66, 100
8, 104034, Note_on_c, 6, 66, 0
8, 104152, Note_on_c, 6, 54, 100
8, 104247, Note_on_c, 6, 54, 0
8, 104440, Note_on_c, 6, 54, 100
8, 104535, Note_on_c, 6, 54, 0
8, 104728, Note_on_c, 6, 54, 100
8, 104823, Note_on_c, 6, 54, 0
8, 105016, Note_on_c, 6, 54, 100
8, 105111, Note_on_c, 6, 54, 0
8, 105208, Note_on_c, 6, 66, 100
8, 105591, Note_on_c, 6, 66, 0
8, 105592, Note_on_c, 6, 66, 100
8, 105783, Note_on_c, 6, 66, 0
8, 106168, Note_on_c, 6, 42, 100
8, 106168, Note_on_c, 6, 66, 100
8, 106358, Note_on_c, 6, 42, 0
8, 106448, Note_on_c, 6, 66, 0
8, 107128, Note_on_c, 6, 66, 100
8, 107319, Note_on_c, 6, 66, 0
8, 107416, Note_on_c, 6, 54, 100
8, 107511, Note_on_c, 6, 54, 0
8, 107608, Note_on_c, 6, 54, 100
8, 107703, Note_on_c, 6, 54, 0
8, 107896, Note_on_c, 6, 54, 100
8, 108183, Note_on_c, 6, 54, 0
8, 108280, Note_on_c, 6, 54, 100
8, 108375, Note_on_c, 6, 54, 0
8, 108568, Note_on_c, 6, 66, 100
8, 108663, Note_on_c, 6, 66, 0
8, 110392, Note_on_c, 6, 78, 100
8, 110680, Note_on_c, 6, 66, 100
8, 110775, Note_on_c, 6, 66, 0
8, 110912, Note_on_c, 6, 78, 0
8, 111160, Note_on_c, 6, 66, 100
8, 111447, Note_on_c, 6, 66, 0
8, 112024, Note_on_c, 6, 66, 100
8, 112119, Note_on_c, 6, 66, 0
8, 112888, Note_on_c, 6, 54, 100
8, 113079, Note_on_c, 6, 54, 0
8, 113272, Note_on_c, 6, 54, 100
8, 113368, Note_on_c, 6, 66, 100
8, 113463, Note_on_c, 6, 66, 0
8, 113463, Note_on_c, 6, 54, 0
8, 113560, Note_on_c, 6, 66, 100
8, 113655, Note_on_c, 6, 66, 0
8, 113752, Note_on_c, 6, 66, 100
8, 113847, Note_on_c, 6, 66, 0
8, 114232, Note_on_c, 6, 66, 100
8, 114423, Note_on_c, 6, 66, 0
8, 114616, Note_on_c, 6, 42, 100
8, 114712, Note_on_c, 6, 66, 100
8, 114807, Note_on_c, 6, 66, 0
8, 114807, Note_on_c, 6, 42, 0
8, 115096, Note_on_c, 6, 66, 100
8, 115191, Note_on_c, 6, 66, 0
8, 115192, Note_on_c, 6, 42, 100
8, 115288, Note_on_c, 6, 66, 100
8, 115383, Note_on_c, 6, 66, 0
8, 115383, Note_on_c, 6, 42, 0
8, 115480, Note_on_c, 6, 78, 100
8, 115671, Note_on_c, 6, 78, 0
8, 115864, Note_on_c, 6, 78, 100
8, 116055, Note_on_c, 6, 78, 0
8, 116152, Note_on_c, 6, 54, 100
8, 116532, Note_on_c, 6, 54, 0
8, 116632, Note_on_c, 6, 42, 100
8, 116727, Note_on_c, 6, 42, 0
8, 116728, Note_on_c, 6, 66, 100
8, 116824, Note_on_c, 6, 42, 100
8, 116919, Note_on_c, 6, 42, 0
8, 116919, Note_on_c, 6, 66, 0
8, 117496, Note_on_c, 6, 54, 100
8, 117591, Note_on_c, 6, 54, 0
8, 117592, Note_on_c, 6, 78, 100
8, 117783, Note_on_c, 6, 78, 0
8, 118168, Note_on_c, 6, 54, 100
8, 118263, Note_on_c, 6, 54, 0
8, 118456, Note_on_c, 6, 54, 100
8, 118551, Note_on_c, 6, 54, 0
8, 118648, Note_on_c, 6, 66, 100
8, 119031, Note_on_c, 6, 66, 0
8, 119224, Note_on_c, 6, 66, 100
8, 119604, Note_on_c, 6, 66, 0
8, 119704, Note_on_c, 6, 66, 100
8, 119799, Note_on_c, 6, 66, 0
8, 119896, Note_on_c, 6, 66, 100
8, 119991, Note_on_c, 6, 66, 0
8, 120184, Note_on_c, 6, 66, 100
8, 120375, Note_on_c, 6, 66, 0
8, 121144, Note_on_c, 6, 66, 100
8, 121240, Note_on_c, 6, 54, 100
8, 121335, Note_on_c, 6, 54, 0
8, 121335, Note_on_c, 6, 66, 0
8, 121432, Note_on_c, 6, 54, 100
8, 121527, Note_on_c, 6, 54, 0
8, 121624, Note_on_c, 6, 66, 100
8, 121719, Note_on_c, 6, 66, 0
8, 121816, Note_on_c, 6, 66, 100
8, 121911, Note_on_c, 6, 66, 0
8, 122104, Note_on_c, 6, 54, 100
8, 122294, Note_on_c, 6, 54, 0
8, 122488, Note_on_c, 6, 66, 100
8, 122678, Note_on_c, 6, 66, 0
8, 123064, Note_on_c, 6, 54, 100
8, 123255, Note_on_c, 6, 54, 0
8, 123448, Note_on_c, 6, 66, 100
8, 123639, Note_on_c, 6, 66, 0
8, 123640, Note_on_c, 6, 54, 100
8, 123735, Note_on_c, 6, 54, 0
8, 124024, Note_on_c, 6, 54, 100
8, 124024, Note_on_c, 6, 66, 100
8, 124119, Note_on_c, 6, 66, 0
8, 124215, Note_on_c, 6, 54, 0
8, 124408, Note_on_c, 6, 66, 100
8, 124599, Note_on_c, 6, 66, 0
8, 124984, Note_on_c, 6, 54, 100
8, 125079, Note_on_c, 6, 54, 0
8, 125176, Note_on_c, 6, 66, 100
8, 125559, Note_on_c, 6, 66, 0
8, 125752, Note_on_c, 6, 54, 100
8, 125847, Note_on_c, 6, 54, 0
8, 129880, Note_on_c, 6, 78, 100
8, 129975, Note_on_c, 6, 78, 0
8, 130552, Note_on_c, 6, 78, 100
8, 130647, Note_on_c, 6, 78, 0
8, 130840, Note_on_c, 6, 66, 100
8, 130935, Note_on_c, 6, 66, 0
8, 131992, Note_on_c, 6, 78, 100
8, 132087, Note_on_c, 6, 78, 0
8, 132472, Note_on_c, 6, 54, 100
8, 132568, Note_on_c, 6, 78, 100
8, 132658, Note_on_c, 6, 78, 0
8, 132663, Note_on_c, 6, 54, 0
8, 132856, Note_on_c, 6, 78, 100
8, 133047, Note_on_c, 6, 78, 0
8, 133336, Note_on_c, 6, 78, 100
8, 133431, Note_on_c, 6, 78, 0
8, 134104, Note_on_c, 6, 78, 100
8, 134199, Note_on_c, 6, 78, 0
8, 135736, Note_on_c, 6, 78, 100
8, 136215, Note_on_c, 6, 78, 0
8, 136216, Note_on_c, 6, 78, 100
8, 136311, Note_on_c, 6, 78, 0
8, 136408, Note_on_c, 6, 78, 100
8, 136503, Note_on_c, 6, 78, 0
8, 136696, Note_on_c, 6, 78, 100
8, 136791, Note_on_c, 6, 78, 0
8, 136888, Note_on_c, 6, 54, 100
8, 137079, Note_on_c, 6, 54, 0
8, 137848, Note_on_c, 6, 66, 100
8, 137943, Note_on_c, 6, 66, 0
8, 138424, Note_on_c, 6, 66, 100
8, 138519, Note_on_c, 6, 66, 0
8, 138616, Note_on_c, 6, 66, 100
8, 138711, Note_on_c, 6, 66, 0
8, 138808, Note_on_c, 6, 78, 100
8, 138999, Note_on_c, 6, 78, 0
8, 139960, Note_on_c, 6, 66, 100
8, 140055, Note_on_c, 6, 66, 0
8, 141784, Note_on_c, 6, 66, 100
8, 141879, Note_on_c, 6, 66, 0
8, 142072, Note_on_c, 6, 66, 100
8, 142263, Note_on_c, 6, 66, 0
8, 142648, Note_on_c, 6, 66, 100
8, 142839, Note_on_c, 6, 66, 0
8, 143032, Note_on_c, 6, 78, 100
8, 143128, Note_on_c, 6, 66, 100
8, 143223, Note_on_c, 6, 66, 0
8, 143223, Note_on_c, 6, 78, 0
8, 143512, Note_on_c, 6, 78, 100
8, 143607, Note_on_c, 6, 78, 0
8, 144088, Note_on_c, 6, 78, 100
8, 144183, Note_on_c, 6, 78, 0
8, 144280, Note_on_c, 6, 78, 100
8, 144375, Note_on_c, 6, 78, 0
8, 144472, Note_on_c, 6, 78, 100
8, 144567, Note_on_c, 6, 78, 0
8, 144952, Note_on_c, 6, 78, 100
8, 145143, Note_on_c, 6, 78, 0
8, 145240, Note_on_c, 6, 78, 100
8, 145335, Note_on_c, 6, 78, 0
8, 145528, Note_on_c, 6, 78, 100
8, 145624, Note_on_c, 6, 66, 100
8, 145719, Note_on_c, 6, 66, 0
8, 145719, Note_on_c, 6, 78, 0
8, 146104, Note_on_c, 6, 66, 100
8, 146199, Note_on_c, 6, 66, 0
8, 146392, Note_on_c, 6, 66, 100
8, 146487, Note_on_c, 6, 66, 0
8, 146776, Note_on_c, 6, 66, 100
8, 146871, Note_on_c, 6, 66, 0
8, 146872, Note_on_c, 6, 54, 100
8, 146872, Note_on_c, 6, 66, 100
8, 146967, Note_on_c, 6, 66, 0
8, 147639, Note_on_c, 6, 54, 0
8, 147832, Note_on_c, 6, 42, 100
8, 147832, Note_on_c, 6, 54, 100
8, 148023, Note_on_c, 6, 54, 0
8, 148023, Note_on_c, 6, 42, 0
8, 148120, Note_on_c, 6, 66, 100
8, 148215, Note_on_c, 6, 66, 0
8, 148316, Note_on_c, 6, 66, 100
8, 148415, Note_on_c, 6, 66, 0
8, 149022, Note_on_c, 6, 66, 100
8, 149121, Note_on_c, 6, 66, 0
8, 149425, Note_on_c, 6, 66, 100
8, 149726, Note_on_c, 6, 66, 0
8, 149828, Note_on_c, 6, 66, 100
8, 149927, Note_on_c, 6, 66, 0
8, 150030, Note_on_c, 6, 54, 100
8, 150129, Note_on_c, 6, 54, 0
8, 150231, Note_on_c, 6, 54, 100
8, 150330, Note_on_c, 6, 54, 0
8, 150836, Note_on_c, 6, 66, 100
8, 151036, Note_on_c, 6, 66, 0
8, 151038, Note_on_c, 6, 66, 100
8, 151238, Note_on_c, 6, 66, 0
8, 151340, Note_on_c, 6, 42, 100
8, 151439, Note_on_c, 6, 42, 0
8, 151441, Note_on_c, 6, 78, 100
8, 151545, Note_on_c, 6, 42, 100
8, 151640, Note_on_c, 6, 78, 0
8, 151649, Note_on_c, 6, 42, 0
8, 151757, Note_on_c, 6, 78, 100
8, 151861, Note_on_c, 6, 78, 0
8, 152073, Note_on_c, 6, 78, 100
8, 152177, Note_on_c, 6, 78, 0
8, 152285, Note_on_c, 6, 78, 100
8, 152601, Note_on_c, 6, 66, 100
8, 152705, Note_on_c, 6, 66, 0
8, 152811, Note_on_c, 6, 78, 0
8, 152918, Note_on_c, 6, 66, 100
8, 153022, Note_on_c, 6, 66, 0
8, 153129, Note_on_c, 6, 66, 100
8, 153437, Note_on_c, 6, 66, 0
8, 153446, Note_on_c, 6, 66, 100
8, 153550, Note_on_c, 6, 66, 0
8, 153657, Note_on_c, 6, 78, 100
8, 153761, Note_on_c, 6, 78, 0
8, 154194, Note_on_c, 6, 54, 100
8, 154415, Note_on_c, 6, 78, 100
8, 154524, Note_on_c, 6, 78, 0
8, 155298, Note_on_c, 6, 66, 100
8, 155407, Note_on_c, 6, 66, 0
8, 155519, Note_on_c, 6, 66, 100
8, 156069, Note_on_c, 6, 54, 0
8, 156181, Note_on_c, 6, 54, 100
8, 156290, Note_on_c, 6, 54, 0
8, 156401, Note_on_c, 6, 66, 0
8, 156402, Note_on_c, 6, 66, 100
8, 156732, Note_on_c, 6, 66, 0
8, 156969, Note_on_c, 6, 66, 100
8, 157083, Note_on_c, 6, 66, 0
8, 157199, Note_on_c, 6, 54, 100
8, 157313, Note_on_c, 6, 54, 0
8, 157545, Note_on_c, 6, 66, 100
8, 157545, Note_on_c, 6, 54, 100
8, 157659, Note_on_c, 6, 54, 0
8, 157659, Note_on_c, 6, 66, 0
8, 157775, Note_on_c, 6, 42, 100
8, 157775, Note_on_c, 6, 54, 100
8, 158005, Note_on_c, 6, 66, 100
8, 158119, Note_on_c, 6, 66, 0
8, 158236, Note_on_c, 6, 66, 100
8, 158572, Note_on_c, 6, 66, 0
8, 159155, Note_on_c, 6, 54, 0
8, 159155, Note_on_c, 6, 42, 0
8, 161417, Note_on_c, 6, 66, 100
8, 161513, Note_on_c, 6, 66, 0
8, 161907, Note_on_c, 6, 66, 100
8, 161907, Note_on_c, 6, 54, 100
8, 162102, Note_on_c, 6, 78, 100
8, 162198, Note_on_c, 6, 78, 0
8, 162294, Note_on_c, 6, 54, 0
8, 162294, Note_on_c, 6, 66, 0
8, 162494, Note_on_c, 6, 66, 100
8, 162590, Note_on_c, 6, 66, 0
8, 163473, Note_on_c, 6, 66, 100
8, 163569, Note_on_c, 6, 66, 0
8, 163865, Note_on_c, 6, 66, 100
8, 163961, Note_on_c, 6, 66, 0
8, 164355, Note_on_c, 6, 54, 100
8, 164451, Note_on_c, 6, 54, 0
8, 164648, Note_on_c, 6, 66, 100
8, 164842, Note_on_c, 6, 66, 0
8, 164844, Note_on_c, 6, 66, 100
8, 164935, Note_on_c, 6, 66, 0
8, 164942, Note_on_c, 6, 66, 100
8, 165038, Note_on_c, 6, 66, 0
8, 166117, Note_on_c, 6, 66, 100
8, 166213, Note_on_c, 6, 66, 0
8, 166607, Note_on_c, 6, 66, 100
8, 166607, Note_on_c, 6, 54, 100
8, 166803, Note_on_c, 6, 78, 100
8, 166899, Note_on_c, 6, 78, 0
8, 166994, Note_on_c, 6, 54, 0
8, 166994, Note_on_c, 6, 66, 0
8, 167194, Note_on_c, 6, 66, 100
8, 167290, Note_on_c, 6, 66, 0
8, 167292, Note_on_c, 6, 78, 100
8, 167339, Note_on_c, 6, 78, 0
8, 167390, Note_on_c, 6, 54, 100
8, 167582, Note_on_c, 6, 66, 100
8, 167677, Note_on_c, 6, 54, 0
8, 167962, Note_on_c, 6, 66, 0
8, 167966, Note_on_c, 6, 78, 100
8, 167966, Note_on_c, 6, 66, 100
8, 168061, Note_on_c, 6, 78, 0
8, 168157, Note_on_c, 6, 66, 0
8, 168158, Note_on_c, 6, 66, 100
8, 168254, Note_on_c, 6, 78, 100
8, 168349, Note_on_c, 6, 78, 0
8, 168446, Note_on_c, 6, 78, 100
8, 168538, Note_on_c, 6, 66, 0
8, 168541, Note_on_c, 6, 78, 0
8, 168638, Note_on_c, 6, 78, 100
8, 168733, Note_on_c, 6, 78, 0
8, 168830, Note_on_c, 6, 78, 100
8, 168877, Note_on_c, 6, 78, 0
8, 168926, Note_on_c, 6, 78, 100
8, 169405, Note_on_c, 6, 78, 0
8, 169406, Note_on_c, 6, 78, 100
8, 169501, Note_on_c, 6, 78, 0
8, 170744, Note_on_c, 6, 78, 100
8, 170837, Note_on_c, 6, 78, 0
8, 171403, Note_on_c, 6, 66, 100
8, 171403, Note_on_c, 6, 78, 100
8, 171496, Note_on_c, 6, 66, 0
8, 171589, Note_on_c, 6, 78, 0
8, 171779, Note_on_c, 6, 54, 100
8, 171872, Note_on_c, 6, 54, 0
8, 172062, Note_on_c, 6, 66, 100
8, 172155, Note_on_c, 6, 66, 0
8, 172344, Note_on_c, 6, 78, 100
8, 172531, Note_on_c, 6, 78, 0
8, 172532, Note_on_c, 6, 78, 100
8, 172626, Note_on_c, 6, 54, 100
8, 172719, Note_on_c, 6, 54, 0
8, 172719, Note_on_c, 6, 78, 0
8, 172720, Note_on_c, 6, 78, 100
8, 172907, Note_on_c, 6, 78, 0
8, 173426, Note_on_c, 6, 54, 100
8, 173472, Note_on_c, 6, 54, 0
8, 173473, Note_on_c, 6, 54, 100
8, 173942, Note_on_c, 6, 54, 0
8, 173944, Note_on_c, 6, 54, 100
8, 174037, Note_on_c, 6, 54, 0
8, 175167, Note_on_c, 6, 66, 100
8, 175260, Note_on_c, 6, 66, 0
8, 175356, Note_on_c, 6, 66, 100
8, 175543, Note_on_c, 6, 66, 0
8, 175544, Note_on_c, 6, 54, 100
8, 175544, Note_on_c, 6, 66, 100
8, 175637, Note_on_c, 6, 54, 0
8, 175731, Note_on_c, 6, 66, 0
8, 175732, Note_on_c, 6, 66, 100
8, 175826, Note_on_c, 6, 54, 100
8, 175919, Note_on_c, 6, 54, 0
8, 176014, Note_on_c, 6, 54, 100
8, 176104, Note_on_c, 6, 66, 0
8, 176107, Note_on_c, 6, 54, 0
8, 176203, Note_on_c, 6, 54, 100
8, 176296, Note_on_c, 6, 54, 0
8, 176767, Note_on_c, 6, 66, 100
8, 176860, Note_on_c, 6, 66, 0
8, 177426, Note_on_c, 6, 54, 100
8, 177426, Note_on_c, 6, 66, 100
8, 177519, Note_on_c, 6, 54, 0
8, 177612, Note_on_c, 6, 66, 0
8, 177803, Note_on_c, 6, 42, 100
8, 177896, Note_on_c, 6, 42, 0
8, 178085, Note_on_c, 6, 54, 100
8, 178178, Note_on_c, 6, 54, 0
8, 178367, Note_on_c, 6, 66, 100
8, 178554, Note_on_c, 6, 66, 0
8, 178556, Note_on_c, 6, 66, 100
8, 178650, Note_on_c, 6, 42, 100
8, 178743, Note_on_c, 6, 42, 0
8, 178743, Note_on_c, 6, 66, 0
8, 178744, Note_on_c, 6, 66, 100
8, 178931, Note_on_c, 6, 66, 0
8, 179771, Note_on_c, 6, 66, 100
8, 179862, Note_on_c, 6, 66, 0
8, 181156, Note_on_c, 6, 66, 100
8, 181247, Note_on_c, 6, 66, 0
8, 181341, Note_on_c, 6, 66, 100
8, 181524, Note_on_c, 6, 66, 0
8, 181525, Note_on_c, 6, 66, 100
8, 181525, Note_on_c, 6, 54, 100
8, 181616, Note_on_c, 6, 54, 0
8, 181708, Note_on_c, 6, 66, 0
8, 181710, Note_on_c, 6, 66, 100
8, 181802, Note_on_c, 6, 54, 100
8, 181893, Note_on_c, 6, 54, 0
8, 181987, Note_on_c, 6, 54, 100
8, 182075, Note_on_c, 6, 66, 0
8, 182078, Note_on_c, 6, 54, 0
8, 182171, Note_on_c, 6, 54, 100
8, 182262, Note_on_c, 6, 54, 0
8, 182356, Note_on_c, 6, 54, 100
8, 182401, Note_on_c, 6, 54, 0
8, 182448, Note_on_c, 6, 54, 100
8, 182908, Note_on_c, 6, 54, 0
8, 182910, Note_on_c, 6, 54, 100
8, 183001, Note_on_c, 6, 54, 0
8, 183879, Note_on_c, 6, 54, 100
8, 183924, Note_on_c, 6, 54, 0
8, 184664, Note_on_c, 6, 54, 100
8, 184755, Note_on_c, 6, 54, 0
8, 185033, Note_on_c, 6, 54, 100
8, 185124, Note_on_c, 6, 54, 0
8, 185495, Note_on_c, 6, 66, 100
8, 185586, Note_on_c, 6, 66, 0
8, 185771, Note_on_c, 6, 78, 100
8, 185954, Note_on_c, 6, 78, 0
8, 185956, Note_on_c, 6, 78, 100
8, 186048, Note_on_c, 6, 54, 100
8, 186139, Note_on_c, 6, 54, 0
8, 186139, Note_on_c, 6, 78, 0
8, 186141, Note_on_c, 6, 78, 100
8, 186324, Note_on_c, 6, 78, 0
8, 187156, Note_on_c, 6, 78, 100
8, 187247, Note_on_c, 6, 78, 0
8, 187802, Note_on_c, 6, 78, 100
8, 187802, Note_on_c, 6, 66, 100
8, 187893, Note_on_c, 6, 66, 0
8, 187984, Note_on_c, 6, 78, 0
8, 188171, Note_on_c, 6, 54, 100
8, 188341, Note_on_c, 6, 54, 0
8, 188344, Note_on_c, 6, 54, 100
8, 188532, Note_on_c, 6, 66, 100
8, 188625, Note_on_c, 6, 66, 0
8, 188625, Note_on_c, 6, 54, 0
8, 188908, Note_on_c, 6, 66, 100
8, 188908, Note_on_c, 6, 78, 100
8, 189001, Note_on_c, 6, 78, 0
8, 189095, Note_on_c, 6, 66, 0
8, 189096, Note_on_c, 6, 66, 100
8, 189191, Note_on_c, 6, 78, 100
8, 189284, Note_on_c, 6, 78, 0
8, 189379, Note_on_c, 6, 78, 100
8, 189468, Note_on_c, 6, 66, 0
8, 189472, Note_on_c, 6, 78, 0
8, 189567, Note_on_c, 6, 78, 100
8, 189660, Note_on_c, 6, 78, 0
8, 190138, Note_on_c, 6, 78, 100
8, 190233, Note_on_c, 6, 78, 0
8, 190618, Note_on_c, 6, 54, 100
8, 190810, Note_on_c, 6, 78, 100
8, 190905, Note_on_c, 6, 78, 0
8, 190998, Note_on_c, 6, 54, 0
8, 191194, Note_on_c, 6, 66, 100
8, 191289, Note_on_c, 6, 66, 0
8, 191875, Note_on_c, 6, 66, 100
8, 191971, Note_on_c, 6, 66, 0
8, 191973, Note_on_c, 6, 54, 100
8, 192071, Note_on_c, 6, 66, 100
8, 192167, Note_on_c, 6, 66, 0
8, 192167, Note_on_c, 6, 54, 0
8, 192854, Note_on_c, 6, 66, 100
8, 192901, Note_on_c, 6, 66, 0
8, 192952, Note_on_c, 6, 54, 100
8, 192952, Note_on_c, 6, 66, 100
8, 193050, Note_on_c, 6, 66, 0
8, 193355, Note_on_c, 6, 66, 100
8, 193453, Note_on_c, 6, 66, 0
8, 193506, Note_on_c, 6, 66, 100
8, 193554, Note_on_c, 6, 66, 0
8, 193658, Note_on_c, 6, 66, 100
8, 193706, Note_on_c, 6, 66, 0
8, 193757, Note_on_c, 6, 54, 0
8, 193759, Note_on_c, 6, 54, 100
8, 193759, Note_on_c, 6, 66, 100
8, 193857, Note_on_c, 6, 66, 0
8, 194162, Note_on_c, 6, 66, 100
8, 194260, Note_on_c, 6, 66, 0
8, 194313, Note_on_c, 6, 66, 100
8, 194361, Note_on_c, 6, 66, 0
8, 194465, Note_on_c, 6, 66, 100
8, 194513, Note_on_c, 6, 66, 0
8, 194564, Note_on_c, 6, 54, 0
8, 194566, Note_on_c, 6, 54, 100
8, 194566, Note_on_c, 6, 66, 100
8, 194664, Note_on_c, 6, 66, 0
8, 194964, Note_on_c, 6, 54, 0
8, 195272, Note_on_c, 6, 66, 100
8, 195320, Note_on_c, 6, 66, 0
8, 195373, Note_on_c, 6, 66, 100
8, 195373, Note_on_c, 6, 54, 100
8, 195373, Note_on_c, 6, 42, 100
8, 195476, Note_on_c, 6, 66, 0
8, 195531, Note_on_c, 6, 66, 100
8, 195582, Note_on_c, 6, 66, 0
8, 195690, Note_on_c, 6, 66, 100
8, 195741, Note_on_c, 6, 66, 0
8, 195795, Note_on_c, 6, 42, 0
8, 195795, Note_on_c, 6, 54, 0
8, 195796, Note_on_c, 6, 66, 100
8, 195796, Note_on_c, 6, 54, 100
8, 195899, Note_on_c, 6, 66, 0
8, 195954, Note_on_c, 6, 66, 100
8, 196005, Note_on_c, 6, 66, 0
8, 196113, Note_on_c, 6, 66, 100
8, 196164, Note_on_c, 6, 66, 0
8, 196218, Note_on_c, 6, 54, 0
8, 196219, Note_on_c, 6, 66, 100
8, 196219, Note_on_c, 6, 54, 100
8, 196322, Note_on_c, 6, 66, 0
8, 196377, Note_on_c, 6, 66, 100
8, 196428, Note_on_c, 6, 66, 0
8, 196537, Note_on_c, 6, 66, 100
8, 196588, Note_on_c, 6, 66, 0
8, 196641, Note_on_c, 6, 54, 0
8, 196643, Note_on_c, 6, 66, 100
8, 196746, Note_on_c, 6, 66, 0
8, 196801, Note_on_c, 6, 66, 100
8, 196852, Note_on_c, 6, 66, 0
8, 197066, Note_on_c, 6, 42, 100
8, 197281, Note_on_c, 6, 54, 100
8, 197387, Note_on_c, 6, 42, 0
8, 197707, Note_on_c, 6, 54, 0
8, 197714, Note_on_c, 6, 54, 100
8, 197714, Note_on_c, 6, 66, 100
8, 197819, Note_on_c, 6, 66, 0
8, 197927, Note_on_c, 6, 54, 0
8, 197930, Note_on_c, 6, 54, 100
8, 198038, Note_on_c, 6, 66, 100
8, 198143, Note_on_c, 6, 66, 0
8, 198254, Note_on_c, 6, 66, 100
8, 198356, Note_on_c, 6, 54, 0
8, 198359, Note_on_c, 6, 66, 0
8, 198469, Note_on_c, 6, 66, 100
8, 198520, Note_on_c, 6, 66, 0
8, 199124, Note_on_c, 6, 54, 100
8, 199230, Note_on_c, 6, 54, 0
8, 199676, Note_on_c, 6, 54, 100
8, 199676, Note_on_c, 6, 42, 100
8, 199896, Note_on_c, 6, 66, 100
8, 200002, Note_on_c, 6, 66, 0
8, 200109, Note_on_c, 6, 42, 0
8, 200109, Note_on_c, 6, 54, 0
8, 200336, Note_on_c, 6, 54, 100
8, 200442, Note_on_c, 6, 54, 0
8, 200676, Note_on_c, 6, 66, 100
8, 200731, Note_on_c, 6, 66, 0
8, 200798, Note_on_c, 6, 66, 100
8, 200917, Note_on_c, 6, 66, 0
8, 201175, Note_on_c, 6, 66, 100
8, 201416, Note_on_c, 6, 66, 0
8, 201710, Note_on_c, 6, 42, 100
8, 201710, Note_on_c, 6, 66, 100
8, 202285, Note_on_c, 6, 66, 0
8, 202285, Note_on_c, 6, 42, 0
8, 202306, Note_on_c, 6, 66, 100
8, 202497, Note_on_c, 6, 66, 0
8, 202498, Note_on_c, 6, 66, 100
8, 202689, Note_on_c, 6, 66, 0
8, 204706, Note_on_c, 6, 66, 100
8, 204801, Note_on_c, 6, 66, 0
8, 205186, Note_on_c, 6, 66, 100
8, 205281, Note_on_c, 6, 66, 0
8, 205378, Note_on_c, 6, 66, 100
8, 205658, Note_on_c, 6, 66, 0
8, 205666, Note_on_c, 6, 66, 100
8, 205761, Note_on_c, 6, 66, 0
8, 206146, Note_on_c, 6, 66, 100
8, 206337, Note_on_c, 6, 66, 0
8, 206338, Note_on_c, 6, 66, 100
8, 206338, Note_on_c, 6, 54, 100
8, 206433, Note_on_c, 6, 66, 0
8, 206529, Note_on_c, 6, 54, 0
8, 206530, Note_on_c, 6, 54, 100
8, 206626, Note_on_c, 6, 66, 100
8, 206721, Note_on_c, 6, 66, 0
8, 206721, Note_on_c, 6, 54, 0
8, 207298, Note_on_c, 6, 66, 100
8, 207298, Note_on_c, 6, 54, 100
8, 207489, Note_on_c, 6, 54, 0
8, 207489, Note_on_c, 6, 66, 0
8, 208066, Note_on_c, 6, 66, 100
8, 208354, Note_on_c, 6, 54, 100
8, 208449, Note_on_c, 6, 54, 0
8, 208545, Note_on_c, 6, 66, 0
8, 208546, Note_on_c, 6, 66, 100
8, 208641, Note_on_c, 6, 66, 0
8, 208738, Note_on_c, 6, 66, 100
8, 208833, Note_on_c, 6, 66, 0
8, 209026, Note_on_c, 6, 66, 100
8, 209410, Note_on_c, 6, 54, 100
8, 209505, Note_on_c, 6, 54, 0
8, 209697, Note_on_c, 6, 66, 0
8, 209794, Note_on_c, 6, 66, 100
8, 209889, Note_on_c, 6, 66, 0
8, 210082, Note_on_c, 6, 66, 100
8, 210177, Note_on_c, 6, 66, 0
8, 211042, Note_on_c, 6, 66, 100
8, 211137, Note_on_c, 6, 66, 0
8, 211330, Note_on_c, 6, 66, 100
8, 212001, Note_on_c, 6, 66, 0
8, 212098, Note_on_c, 6, 66, 100
8, 212193, Note_on_c, 6, 66, 0
8, 212386, Note_on_c, 6, 66, 100
8, 212481, Note_on_c, 6, 66, 0
8, 213058, Note_on_c, 6, 66, 100
8, 213249, Note_on_c, 6, 66, 0
8, 213346, Note_on_c, 6, 54, 100
8, 213441, Note_on_c, 6, 54, 0
8, 213826, Note_on_c, 6, 54, 100
8, 213921, Note_on_c, 6, 54, 0
8, 214018, Note_on_c, 6, 54, 100
8, 214401, Note_on_c, 6, 54, 0
8, 214786, Note_on_c, 6, 54, 100
8, 214881, Note_on_c, 6, 54, 0
8, 214978, Note_on_c, 6, 54, 100
8, 215073, Note_on_c, 6, 54, 0
8, 215170, Note_on_c, 6, 78, 100
8, 215170, Note_on_c, 6, 66, 100
8, 215361, Note_on_c, 6, 66, 0
8, 215458, Note_on_c, 6, 66, 100
8, 215553, Note_on_c, 6, 66, 0
8, 215553, Note_on_c, 6, 78, 0
8, 215938, Note_on_c, 6, 78, 100
8, 215938, Note_on_c, 6, 42, 100
8, 216128, Note_on_c, 6, 42, 0
8, 216129, Note_on_c, 6, 78, 0
8, 216130, Note_on_c, 6, 78, 100
8, 216321, Note_on_c, 6, 78, 0
8, 216322, Note_on_c, 6, 78, 100
8, 216322, Note_on_c, 6, 66, 100
8, 216417, Note_on_c, 6, 66, 0
8, 216513, Note_on_c, 6, 78, 0
8, 217090, Note_on_c, 6, 66, 100
8, 217281, Note_on_c, 6, 66, 0
8, 217858, Note_on_c, 6, 78, 100
8, 218050, Note_on_c, 6, 66, 100
8, 218145, Note_on_c, 6, 66, 0
8, 218337, Note_on_c, 6, 78, 0
8, 218338, Note_on_c, 6, 78, 100
8, 218433, Note_on_c, 6, 78, 0
8, 218530, Note_on_c, 6, 78, 100
8, 218625, Note_on_c, 6, 78, 0
8, 218818, Note_on_c, 6, 78, 100
8, 218913, Note_on_c, 6, 78, 0
8, 219298, Note_on_c, 6, 78, 100
8, 219393, Note_on_c, 6, 78, 0
8, 219586, Note_on_c, 6, 78, 100
8, 219874, Note_on_c, 6, 66, 100
8, 219969, Note_on_c, 6, 66, 0
8, 220161, Note_on_c, 6, 78, 0
8, 220258, Note_on_c, 6, 66, 100
8, 220353, Note_on_c, 6, 66, 0
8, 220450, Note_on_c, 6, 66, 100
8, 220545, Note_on_c, 6, 66, 0
8, 220834, Note_on_c, 6, 66, 100
8, 220929, Note_on_c, 6, 66, 0
8, 221314, Note_on_c, 6, 66, 100
8, 221409, Note_on_c, 6, 66, 0
8, 221506, Note_on_c, 6, 78, 100
8, 221506, Note_on_c, 6, 66, 100
8, 221697, Note_on_c, 6, 66, 0
8, 221889, Note_on_c, 6, 78, 0
8, 221986, Note_on_c, 6, 66, 100
8, 222081, Note_on_c, 6, 66, 0
8, 222274, Note_on_c, 6, 66, 100
8, 222274, Note_on_c, 6, 54, 100
8, 222369, Note_on_c, 6, 54, 0
8, 222561, Note_on_c, 6, 66, 0
8, 222562, Note_on_c, 6, 54, 100
8, 222657, Note_on_c, 6, 54, 0
8, 222754, Note_on_c, 6, 66, 100
8, 222849, Note_on_c, 6, 66, 0
8, 223522, Note_on_c, 6, 66, 100
8, 223617, Note_on_c, 6, 66, 0
8, 224194, Note_on_c, 6, 66, 100
8, 224289, Note_on_c, 6, 66, 0
8, 224386, Note_on_c, 6, 66, 100
8, 224481, Note_on_c, 6, 66, 0
8, 224674, Note_on_c, 6, 66, 100
8, 224769, Note_on_c, 6, 66, 0
8, 224866, Note_on_c, 6, 66, 100
8, 224961, Note_on_c, 6, 66, 0
8, 225154, Note_on_c, 6, 66, 100
8, 225345, Note_on_c, 6, 66, 0
8, 225346, Note_on_c, 6, 66, 100
8, 225346, Note_on_c, 6, 54, 100
8, 225441, Note_on_c, 6, 66, 0
8, 225537, Note_on_c, 6, 54, 0
8, 225538, Note_on_c, 6, 54, 100
8, 225729, Note_on_c, 6, 54, 0
8, 226306, Note_on_c, 6, 66, 100
8, 226497, Note_on_c, 6, 66, 0
8, 226498, Note_on_c, 6, 54, 100
8, 226881, Note_on_c, 6, 54, 0
8, 227074, Note_on_c, 6, 66, 100
8, 227074, Note_on_c, 6, 54, 100
8, 227361, Note_on_c, 6, 54, 0
8, 227553, Note_on_c, 6, 66, 0
8, 227554, Note_on_c, 6, 66, 100
8, 227649, Note_on_c, 6, 66, 0
8, 227746, Note_on_c, 6, 66, 100
8, 227841, Note_on_c, 6, 66, 0
8, 228034, Note_on_c, 6, 66, 100
8, 228129, Note_on_c, 6, 66, 0
8, 228322, Note_on_c, 6, 66, 100
8, 228417, Note_on_c, 6, 66, 0
8, 228610, Note_on_c, 6, 54, 100
8, 228802, Note_on_c, 6, 66, 100
8, 228897, Note_on_c, 6, 66, 0
8, 228897, Note_on_c, 6, 54, 0
8, 228994, Note_on_c, 6, 66, 100
8, 229184, Note_on_c, 6, 66, 0
8, 229282, Note_on_c, 6, 66, 100
8, 229377, Note_on_c, 6, 66, 0
8, 229762, Note_on_c, 6, 66, 100
8, 229762, Note_on_c, 6, 54, 100
8, 229952, Note_on_c, 6, 54, 0
8, 229953, Note_on_c, 6, 66, 0
8, 229954, Note_on_c, 6, 66, 100
8, 229954, Note_on_c, 6, 54, 100
8, 230049, Note_on_c, 6, 54, 0
8, 230145, Note_on_c, 6, 66, 0
8, 230146, Note_on_c, 6, 66, 100
8, 230146, Note_on_c, 6, 54, 100
8, 230337, Note_on_c, 6, 54, 0
8, 230337, Note_on_c, 6, 66, 0
8, 230914, Note_on_c, 6, 54, 100
8, 231105, Note_on_c, 6, 54, 0
8, 231106, Note_on_c, 6, 66, 100
8, 231297, Note_on_c, 6, 66, 0
8, 231682, Note_on_c, 6, 66, 100
8, 231873, Note_on_c, 6, 66, 0
8, 232066, Note_on_c, 6, 54, 100
8, 232161, Note_on_c, 6, 54, 0
8, 232162, Note_on_c, 6, 66, 100
8, 232257, Note_on_c, 6, 66, 0
8, 232354, Note_on_c, 6, 66, 100
8, 232354, Note_on_c, 6, 54, 100
8, 232449, Note_on_c, 6, 54, 0
8, 232449, Note_on_c, 6, 66, 0
8, 232738, Note_on_c, 6, 66, 100
8, 232833, Note_on_c, 6, 66, 0
8, 233218, Note_on_c, 6, 78, 100
8, 233313, Note_on_c, 6, 78, 0
8, 233410, Note_on_c, 6, 78, 100
8, 233505, Note_on_c, 6, 78, 0
8, 233698, Note_on_c, 6, 78, 100
8, 233793, Note_on_c, 6, 78, 0
8, 234178, Note_on_c, 6, 78, 100
8, 234369, Note_on_c, 6, 78, 0
8, 235330, Note_on_c, 6, 66, 100
8, 235330, Note_on_c, 6, 54, 100
8, 235425, Note_on_c, 6, 54, 0
8, 235713, Note_on_c, 6, 66, 0
8, 235810, Note_on_c, 6, 54, 100
8, 235905, Note_on_c, 6, 54, 0
8, 236098, Note_on_c, 6, 54, 100
8, 236193, Note_on_c, 6, 54, 0
8, 236290, Note_on_c, 6, 54, 100
8, 236385, Note_on_c, 6, 54, 0
8, 236578, Note_on_c, 6, 54, 100
8, 236673, Note_on_c, 6, 54, 0
8, 236770, Note_on_c, 6, 54, 100
8, 236865, Note_on_c, 6, 54, 0
8, 237442, Note_on_c, 6, 54, 100
8, 237633, Note_on_c, 6, 54, 0
8, 237634, Note_on_c, 6, 54, 100
8, 237825, Note_on_c, 6, 54, 0
8, 238402, Note_on_c, 6, 42, 100
8, 238593, Note_on_c, 6, 42, 0
8, 238786, Note_on_c, 6, 66, 100
8, 238881, Note_on_c, 6, 66, 0
8, 239362, Note_on_c, 6, 66, 100
8, 239458, Note_on_c, 6, 54, 100
8, 239553, Note_on_c, 6, 54, 0
8, 239937, Note_on_c, 6, 66, 0
8, 240322, Note_on_c, 6, 78, 100
8, 240610, Note_on_c, 6, 66, 100
8, 240705, Note_on_c, 6, 66, 0
8, 240801, Note_on_c, 6, 78, 0
8, 240802, Note_on_c, 6, 78, 100
8, 240897, Note_on_c, 6, 78, 0
8, 241282, Note_on_c, 6, 54, 100
8, 241473, Note_on_c, 6, 54, 0
8, 242146, Note_on_c, 6, 78, 100
8, 242241, Note_on_c, 6, 78, 0
8, 242818, Note_on_c, 6, 66, 100
8, 242913, Note_on_c, 6, 66, 0
8, 243682, Note_on_c, 6, 78, 100
8, 243777, Note_on_c, 6, 78, 0
8, 244738, Note_on_c, 6, 66, 100
8, 244833, Note_on_c, 6, 66, 0
8, 244834, Note_on_c, 6, 54, 100
8, 244929, Note_on_c, 6, 54, 0
8, 245602, Note_on_c, 6, 66, 100
8, 245697, Note_on_c, 6, 66, 0
8, 245698, Note_on_c, 6, 78, 100
8, 245985, Note_on_c, 6, 78, 0
8, 246466, Note_on_c, 6, 66, 100
8, 246753, Note_on_c, 6, 66, 0
8, 246754, Note_on_c, 6, 54, 100
8, 246849, Note_on_c, 6, 54, 0
8, 247810, Note_on_c, 6, 66, 100
8, 247906, Note_on_c, 6, 54, 100
8, 248001, Note_on_c, 6, 54, 0
8, 248193, Note_on_c, 6, 66, 0
8, 248770, Note_on_c, 6, 66, 100
8, 248962, Note_on_c, 6, 78, 100
8, 249153, Note_on_c, 6, 78, 0
8, 249153, Note_on_c, 6, 66, 0
8, 249154, Note_on_c, 6, 78, 100
8, 249345, Note_on_c, 6, 78, 0
8, 249538, Note_on_c, 6, 66, 100
8, 249633, Note_on_c, 6, 66, 0
8, 249730, Note_on_c, 6, 66, 100
8, 249921, Note_on_c, 6, 66, 0
8, 250210, Note_on_c, 6, 78, 100
8, 250305, Note_on_c, 6, 78, 0
8, 250690, Note_on_c, 6, 78, 100
8, 250785, Note_on_c, 6, 78, 0
8, 250882, Note_on_c, 6, 78, 100
8, 250882, Note_on_c, 6, 66, 100
8, 251073, Note_on_c, 6, 78, 0
8, 251265, Note_on_c, 6, 66, 0
8, 251650, Note_on_c, 6, 66, 100
8, 251650, Note_on_c, 6, 54, 100
8, 251840, Note_on_c, 6, 66, 0
8, 251841, Note_on_c, 6, 54, 0
8, 251938, Note_on_c, 6, 78, 100
8, 252033, Note_on_c, 6, 78, 0
8, 252802, Note_on_c, 6, 66, 100
8, 252992, Note_on_c, 6, 66, 0
8, 253090, Note_on_c, 6, 54, 100
8, 253185, Note_on_c, 6, 54, 0
8, 253570, Note_on_c, 6, 54, 100
8, 253665, Note_on_c, 6, 54, 0
8, 253762, Note_on_c, 6, 54, 100
8, 253858, Note_on_c, 6, 66, 100
8, 254049, Note_on_c, 6, 54, 0
8, 254050, Note_on_c, 6, 54, 100
8, 254145, Note_on_c, 6, 54, 0
8, 254145, Note_on_c, 6, 66, 0
8, 254722, Note_on_c, 6, 66, 100
8, 254722, Note_on_c, 6, 54, 100
8, 254913, Note_on_c, 6, 54, 0
8, 254914, Note_on_c, 6, 42, 100
8, 255102, Note_on_c, 6, 66, 0
8, 255105, Note_on_c, 6, 42, 0
8, 255202, Note_on_c, 6, 66, 100
8, 255297, Note_on_c, 6, 66, 0
8, 255586, Note_on_c, 6, 66, 100
8, 255681, Note_on_c, 6, 66, 0
8, 255970, Note_on_c, 6, 78, 100
8, 256065, Note_on_c, 6, 78, 0
8, 256834, Note_on_c, 6, 54, 100
8, 257121, Note_on_c, 6, 54, 0
8, 257218, Note_on_c, 6, 66, 100
8, 257313, Note_on_c, 6, 66, 0
8, 257314, Note_on_c, 6, 54, 100
8, 257409, Note_on_c, 6, 54, 0
8, 258274, Note_on_c, 6, 66, 100
8, 258274, Note_on_c, 6, 54, 100
8, 258369, Note_on_c, 6, 54, 0
8, 258369, Note_on_c, 6, 66, 0
8, 258946, Note_on_c, 6, 54, 100
8, 259041, Note_on_c, 6, 54, 0
8, 259138, Note_on_c, 6, 66, 100
8, 259233, Note_on_c, 6, 66, 0
8, 259330, Note_on_c, 6, 66, 100
8, 259425, Note_on_c, 6, 66, 0
8, 259522, Note_on_c, 6, 54, 100
8, 259617, Note_on_c, 6, 54, 0
8, 259618, Note_on_c, 6, 66, 100
8, 259713, Note_on_c, 6, 66, 0
8, 260002, Note_on_c, 6, 54, 100
8, 260097, Note_on_c, 6, 54, 0
8, 260194, Note_on_c, 6, 66, 100
8, 260289, Note_on_c, 6, 66, 0
8, 260866, Note_on_c, 6, 42, 100
8, 261057, Note_on_c, 6, 42, 0
8, 261058, Note_on_c, 6, 54, 100
8, 261249, Note_on_c, 6, 54, 0
8, 261250, Note_on_c, 6, 54, 100
8, 261441, Note_on_c, 6, 54, 0
8, 262018, Note_on_c, 6, 66, 100
8, 262209, Note_on_c, 6, 66, 0
8, 262210, Note_on_c, 6, 78, 100
8, 262401, Note_on_c, 6, 78, 0
8, 262402, Note_on_c, 6, 78, 100
8, 262593, Note_on_c, 6, 78, 0
8, 263170, Note_on_c, 6, 54, 100
8, 263361, Note_on_c, 6, 54, 0
8, 263362, Note_on_c, 6, 66, 100
8, 263457, Note_on_c, 6, 66, 0
8, 264322, Note_on_c, 6, 66, 100
8, 264418, Note_on_c, 6, 78, 100
8, 264513, Note_on_c, 6, 78, 0
8, 264702, Note_on_c, 6, 66, 0
8, 264706, Note_on_c, 6, 66, 100
8, 264896, Note_on_c, 6, 66, 0
8, 264898, Note_on_c, 6, 54, 100
8, 264993, Note_on_c, 6, 54, 0
8, 265090, Note_on_c, 6, 54, 100
8, 265185, Note_on_c, 6, 54, 0
8, 265378, Note_on_c, 6, 54, 100
8, 265473, Note_on_c, 6, 54, 0
8, 266050, Note_on_c, 6, 54, 100
8, 266050, Note_on_c, 6, 42, 100
8, 266242, Note_on_c, 6, 66, 100
8, 266337, Note_on_c, 6, 66, 0
8, 266625, Note_on_c, 6, 42, 0
8, 266625, Note_on_c, 6, 54, 0
8, 266626, Note_on_c, 6, 54, 100
8, 266721, Note_on_c, 6, 54, 0
8, 266818, Note_on_c, 6, 54, 100
8, 266913, Note_on_c, 6, 54, 0
8, 267202, Note_on_c, 6, 42, 100
8, 267297, Note_on_c, 6, 42, 0
8, 267394, Note_on_c, 6, 42, 100
8, 267489, Note_on_c, 6, 42, 0
8, 267874, Note_on_c, 6, 42, 100
8, 267969, Note_on_c, 6, 42, 0
8, 268642, Note_on_c, 6, 54, 100
8, 268737, Note_on_c, 6, 54, 0
8, 268930, Note_on_c, 6, 54, 100
8, 269025, Note_on_c, 6, 54, 0
8, 269122, Note_on_c, 6, 54, 100
8, 269217, Note_on_c, 6, 54, 0
8, 269602, Note_on_c, 6, 54, 100
8, 269697, Note_on_c, 6, 54, 0
8, 270370, Note_on_c, 6, 66, 100
8, 270465, Note_on_c, 6, 66, 0
8, 270658, Note_on_c, 6, 66, 100
8, 270753, Note_on_c, 6, 66, 0
8, 270850, Note_on_c, 6, 66, 100
8, 270945, Note_on_c, 6, 66, 0
8, 271330, Note_on_c, 6, 66, 100
8, 271425, Note_on_c, 6, 66, 0
8, 272316, Note_on_c, 6, 78, 100
8, 272414, Note_on_c, 6, 78, 0
8, 272466, Note_on_c, 6, 78, 100
8, 272514, Note_on_c, 6, 78, 0
8, 272616, Note_on_c, 6, 78, 100
8, 272664, Note_on_c, 6, 78, 0
8, 273031, Note_on_c, 6, 66, 100
8, 273031, Note_on_c, 6, 54, 100
8, 273245, Note_on_c, 6, 54, 0
8, 273460, Note_on_c, 6, 66, 0
8, 273570, Note_on_c, 6, 78, 100
8, 273676, Note_on_c, 6, 78, 0
8, 273678, Note_on_c, 6, 54, 100
8, 273678, Note_on_c, 6, 66, 100
8, 273678, Note_on_c, 6, 78, 100
8, 273788, Note_on_c, 6, 66, 0
8, 273902, Note_on_c, 6, 78, 0
8, 273906, Note_on_c, 6, 78, 100
8, 274130, Note_on_c, 6, 78, 0
8, 274135, Note_on_c, 6, 78, 100
8, 274359, Note_on_c, 6, 78, 0
8, 275034, Note_on_c, 6, 54, 0
8, 275052, Note_on_c, 6, 54, 100
8, 275287, Note_on_c, 6, 66, 100
8, 275515, Note_on_c, 6, 66, 0
8, 275522, Note_on_c, 6, 66, 100
8, 275634, Note_on_c, 6, 66, 0
8, 275875, Note_on_c, 6, 66, 100
8, 275993, Note_on_c, 6, 66, 0
8, 276435, Note_on_c, 6, 54, 0
8, 276562, Note_on_c, 6, 42, 100
8, 276563, Note_on_c, 6, 66, 100
8, 276563, Note_on_c, 6, 54, 100
8, 278026, Note_on_c, 6, 42, 0
8, 278027, Note_on_c, 6, 54, 0
8, 278027, Note_on_c, 6, 66, 0
8, 278027, End_track
9, 0, Start_track
9, 0, MIDI_port, 0
9, 0, Program_c, 7, 0
9, 0, Control_c, 7, 7, 100
9, 0, Control_c, 7, 10, 64
9, 0, Pitch_bend_c, 7, 8037
9, 32448, Note_on_c, 7, 67, 100
9, 32543, Note_on_c, 7, 67, 0
9, 39192, Note_on_c, 7, 67, 100
9, 39382, Note_on_c, 7, 67, 0
9, 39600, Note_on_c, 7, 43, 100
9, 39980, Note_on_c, 7, 43, 0
9, 40752, Note_on_c, 7, 55, 100
9, 40943, Note_on_c, 7, 55, 0
9, 41328, Note_on_c, 7, 55, 100
9, 41519, Note_on_c, 7, 55, 0
9, 41520, Note_on_c, 7, 55, 100
9, 41800, Note_on_c, 7, 55, 0
9, 52536, Note_on_c, 7, 79, 100
9, 52631, Note_on_c, 7, 79, 0
9, 52728, Note_on_c, 7, 79, 100
9, 52919, Note_on_c, 7, 79, 0
9, 53112, Note_on_c, 7, 79, 100
9, 53303, Note_on_c, 7, 79, 0
9, 57720, Note_on_c, 7, 55, 100
9, 57910, Note_on_c, 7, 55, 0
9, 61156, Note_on_c, 7, 79, 100
9, 61207, Note_on_c, 7, 79, 0
9, 102712, Note_on_c, 7, 79, 100
9, 102807, Note_on_c, 7, 79, 0
9, 102904, Note_on_c, 7, 79, 100
9, 102999, Note_on_c, 7, 79, 0
9, 110776, Note_on_c, 7, 67, 100
9, 111063, Note_on_c, 7, 67, 0
9, 111640, Note_on_c, 7, 67, 100
9, 111735, Note_on_c, 7, 67, 0
9, 112216, Note_on_c, 7, 67, 100
9, 112311, Note_on_c, 7, 67, 0
9, 113080, Note_on_c, 7, 55, 100
9, 113271, Note_on_c, 7, 55, 0
9, 113464, Note_on_c, 7, 67, 100
9, 113559, Note_on_c, 7, 67, 0
9, 113656, Note_on_c, 7, 67, 100
9, 113751, Note_on_c, 7, 67, 0
9, 126520, Note_on_c, 7, 67, 100
9, 126711, Note_on_c, 7, 67, 0
9, 127384, Note_on_c, 7, 67, 100
9, 127479, Note_on_c, 7, 67, 0
9, 127576, Note_on_c, 7, 67, 100
9, 127671, Note_on_c, 7, 67, 0
9, 127768, Note_on_c, 7, 67, 100
9, 127863, Note_on_c, 7, 67, 0
9, 127960, Note_on_c, 7, 67, 100
9, 128055, Note_on_c, 7, 67, 0
9, 128152, Note_on_c, 7, 67, 100
9, 128247, Note_on_c, 7, 67, 0
9, 128344, Note_on_c, 7, 67, 100
9, 128439, Note_on_c, 7, 67, 0
9, 128536, Note_on_c, 7, 67, 100
9, 128631, Note_on_c, 7, 67, 0
9, 128824, Note_on_c, 7, 43, 100
9, 129015, Note_on_c, 7, 43, 0
9, 129208, Note_on_c, 7, 67, 100
9, 129399, Note_on_c, 7, 67, 0
9, 129784, Note_on_c, 7, 43, 100
9, 129975, Note_on_c, 7, 43, 0
9, 130168, Note_on_c, 7, 43, 100
9, 130359, Note_on_c, 7, 43, 0
9, 134584, Note_on_c, 7, 79, 100
9, 134967, Note_on_c, 7, 79, 0
9, 159557, Note_on_c, 7, 67, 100
9, 159849, Note_on_c, 7, 67, 0
9, 159948, Note_on_c, 7, 55, 100
9, 160142, Note_on_c, 7, 55, 0
9, 160144, Note_on_c, 7, 55, 100
9, 160338, Note_on_c, 7, 55, 0
9, 162641, Note_on_c, 7, 67, 100
9, 162688, Note_on_c, 7, 67, 0
9, 162690, Note_on_c, 7, 67, 100
9, 163178, Note_on_c, 7, 67, 0
9, 163180, Note_on_c, 7, 67, 100
9, 163276, Note_on_c, 7, 67, 0
9, 183833, Note_on_c, 7, 55, 100
9, 183878, Note_on_c, 7, 55, 0
9, 183925, Note_on_c, 7, 55, 100
9, 184385, Note_on_c, 7, 55, 0
9, 184387, Note_on_c, 7, 55, 100
9, 184478, Note_on_c, 7, 55, 0
9, 191338, Note_on_c, 7, 67, 100
9, 191385, Note_on_c, 7, 67, 0
9, 191386, Note_on_c, 7, 67, 100
9, 191581, Note_on_c, 7, 55, 100
9, 191677, Note_on_c, 7, 55, 0
9, 191874, Note_on_c, 7, 67, 0
9, 237250, Note_on_c, 7, 55, 100
9, 237441, Note_on_c, 7, 55, 0
9, 240898, Note_on_c, 7, 55, 100
9, 241089, Note_on_c, 7, 55, 0
9, 241090, Note_on_c, 7, 67, 100
9, 241090, Note_on_c, 7, 55, 100
9, 241185, Note_on_c, 7, 67, 0
9, 241281, Note_on_c, 7, 55, 0
9, 248482, Note_on_c, 7, 79, 100
9, 248577, Note_on_c, 7, 79, 0
9, 248578, Note_on_c, 7, 67, 100
9, 248769, Note_on_c, 7, 67, 0
9, 250114, Note_on_c, 7, 79, 100
9, 250209, Note_on_c, 7, 79, 0
9, 250306, Note_on_c, 7, 79, 100
9, 250306, Note_on_c, 7, 67, 100
9, 250497, Note_on_c, 7, 79, 0
9, 250689, Note_on_c, 7, 67, 0
9, 251266, Note_on_c, 7, 55, 100
9, 251457, Note_on_c, 7, 55, 0
9, 251458, Note_on_c, 7, 55, 100
9, 251649, Note_on_c, 7, 55, 0
9, 252226, Note_on_c, 7, 67, 100
9, 252416, Note_on_c, 7, 67, 0
9, 252514, Note_on_c, 7, 55, 100
9, 252609, Note_on_c, 7, 55, 0
9, 252994, Note_on_c, 7, 55, 100
9, 253089, Note_on_c, 7, 55, 0
9, 253186, Note_on_c, 7, 55, 100
9, 253282, Note_on_c, 7, 67, 100
9, 253377, Note_on_c, 7, 55, 0
9, 253562, Note_on_c, 7, 67, 0
9, 254146, Note_on_c, 7, 55, 100
9, 254241, Note_on_c, 7, 55, 0
9, 254338, Note_on_c, 7, 67, 100
9, 254338, Note_on_c, 7, 55, 100
9, 254433, Note_on_c, 7, 55, 0
9, 254721, Note_on_c, 7, 67, 0
9, 255298, Note_on_c, 7, 67, 100
9, 255393, Note_on_c, 7, 67, 0
9, 255490, Note_on_c, 7, 67, 100
9, 255585, Note_on_c, 7, 67, 0
9, 255585, End_track
10, 0, Start_track
10, 0, MIDI_port, 0
10, 0, Program_c, 8, 0
10, 0, Control_c, 8, 7, 100
10, 0, Control_c, 8, 10, 64
10, 0, Pitch_bend_c, 8, 7870
10, 288, Note_on_c, 8, 56, 100
10, 335, Note_on_c, 8, 56, 0
10, 672, Note_on_c, 8, 56, 100
10, 719, Note_on_c, 8, 56, 0
10, 1104, Note_on_c, 8, 68, 100
10, 1151, Note_on_c, 8, 68, 0
10, 1488, Note_on_c, 8, 68, 100
10, 1535, Note_on_c, 8, 68, 0
10, 2256, Note_on_c, 8, 68, 100
10, 2303, Note_on_c, 8, 68, 0
10, 4176, Note_on_c, 8, 68, 100
10, 4223, Note_on_c, 8, 68, 0
10, 4272, Note_on_c, 8, 68, 100
10, 4402, Note_on_c, 8, 68, 0
10, 4464, Note_on_c, 8, 68, 100
10, 4511, Note_on_c, 8, 68, 0
10, 4752, Note_on_c, 8, 68, 100
10, 4799, Note_on_c, 8, 68, 0
10, 5568, Note_on_c, 8, 56, 100
10, 5615, Note_on_c, 8, 56, 0
10, 5760, Note_on_c, 8, 56, 100
10, 5807, Note_on_c, 8, 56, 0
10, 6144, Note_on_c, 8, 68, 100
10, 6191, Note_on_c, 8, 68, 0
10, 6504, Note_on_c, 8, 68, 100
10, 6551, Note_on_c, 8, 68, 0
10, 7128, Note_on_c, 8, 68, 100
10, 7223, Note_on_c, 8, 68, 0
10, 7320, Note_on_c, 8, 68, 100
10, 7415, Note_on_c, 8, 68, 0
10, 7512, Note_on_c, 8, 68, 100
10, 7607, Note_on_c, 8, 68, 0
10, 8184, Note_on_c, 8, 68, 100
10, 8464, Note_on_c, 8, 68, 0
10, 8472, Note_on_c, 8, 56, 100
10, 8567, Note_on_c, 8, 56, 0
10, 9336, Note_on_c, 8, 56, 100
10, 9616, Note_on_c, 8, 56, 0
10, 9624, Note_on_c, 8, 56, 100
10, 9719, Note_on_c, 8, 56, 0
10, 9816, Note_on_c, 8, 56, 100
10, 9911, Note_on_c, 8, 56, 0
10, 10708, Note_on_c, 8, 56, 100
10, 11188, Note_on_c, 8, 56, 0
10, 11682, Note_on_c, 8, 56, 100
10, 11778, Note_on_c, 8, 56, 0
10, 11966, Note_on_c, 8, 56, 100
10, 12353, Note_on_c, 8, 56, 0
10, 13504, Note_on_c, 8, 68, 100
10, 13607, Note_on_c, 8, 56, 100
10, 13689, Note_on_c, 8, 68, 0
10, 13699, Note_on_c, 8, 56, 0
10, 13880, Note_on_c, 8, 56, 100
10, 13995, Note_on_c, 8, 68, 100
10, 14082, Note_on_c, 8, 68, 0
10, 14169, Note_on_c, 8, 68, 100
10, 14252, Note_on_c, 8, 56, 0
10, 14256, Note_on_c, 8, 68, 0
10, 14437, Note_on_c, 8, 68, 100
10, 14527, Note_on_c, 8, 68, 0
10, 14918, Note_on_c, 8, 56, 100
10, 15008, Note_on_c, 8, 56, 0
10, 15193, Note_on_c, 8, 56, 100
10, 15283, Note_on_c, 8, 56, 0
10, 15618, Note_on_c, 8, 80, 100
10, 15708, Note_on_c, 8, 80, 0
10, 16072, Note_on_c, 8, 68, 100
10, 16162, Note_on_c, 8, 68, 0
10, 16934, Note_on_c, 8, 56, 100
10, 17295, Note_on_c, 8, 56, 0
10, 17340, Note_on_c, 8, 80, 100
10, 17430, Note_on_c, 8, 80, 0
10, 17706, Note_on_c, 8, 56, 100
10, 18067, Note_on_c, 8, 56, 0
10, 18386, Note_on_c, 8, 68, 100
10, 18476, Note_on_c, 8, 68, 0
10, 19149, Note_on_c, 8, 68, 100
10, 19239, Note_on_c, 8, 68, 0
10, 19902, Note_on_c, 8, 56, 100
10, 19992, Note_on_c, 8, 56, 0
10, 20461, Note_on_c, 8, 44, 100
10, 20551, Note_on_c, 8, 44, 0
10, 21512, Note_on_c, 8, 56, 100
10, 21607, Note_on_c, 8, 56, 0
10, 22112, Note_on_c, 8, 56, 100
10, 22207, Note_on_c, 8, 56, 0
10, 22688, Note_on_c, 8, 56, 100
10, 22783, Note_on_c, 8, 56, 0
10, 23840, Note_on_c, 8, 44, 100
10, 23935, Note_on_c, 8, 44, 0
10, 25140, Note_on_c, 8, 56, 100
10, 25460, Note_on_c, 8, 56, 0
10, 26976, Note_on_c, 8, 56, 100
10, 27071, Note_on_c, 8, 56, 0
10, 27568, Note_on_c, 8, 56, 100
10, 27663, Note_on_c, 8, 56, 0
10, 27856, Note_on_c, 8, 56, 100
10, 27972, Note_on_c, 8, 56, 0
10, 29296, Note_on_c, 8, 80, 100
10, 29343, Note_on_c, 8, 80, 0
10, 29456, Note_on_c, 8, 80, 100
10, 29503, Note_on_c, 8, 80, 0
10, 29904, Note_on_c, 8, 68, 100
10, 29951, Note_on_c, 8, 68, 0
10, 30048, Note_on_c, 8, 68, 100
10, 30095, Note_on_c, 8, 68, 0
10, 30336, Note_on_c, 8, 44, 100
10, 30336, Note_on_c, 8, 56, 100
10, 31486, Note_on_c, 8, 56, 0
10, 31486, Note_on_c, 8, 44, 0
10, 31488, Note_on_c, 8, 56, 100
10, 31871, Note_on_c, 8, 56, 0
10, 33408, Note_on_c, 8, 68, 100
10, 34138, Note_on_c, 8, 68, 0
10, 36120, Note_on_c, 8, 56, 100
10, 36312, Note_on_c, 8, 68, 100
10, 36407, Note_on_c, 8, 68, 0
10, 37270, Note_on_c, 8, 56, 0
10, 38424, Note_on_c, 8, 56, 100
10, 38999, Note_on_c, 8, 56, 0
10, 39000, Note_on_c, 8, 68, 100
10, 39191, Note_on_c, 8, 68, 0
10, 39384, Note_on_c, 8, 68, 100
10, 39546, Note_on_c, 8, 44, 100
10, 39574, Note_on_c, 8, 68, 0
10, 39599, Note_on_c, 8, 44, 0
10, 39984, Note_on_c, 8, 44, 100
10, 40176, Note_on_c, 8, 68, 100
10, 40271, Note_on_c, 8, 68, 0
10, 40364, Note_on_c, 8, 44, 0
10, 40944, Note_on_c, 8, 56, 100
10, 41324, Note_on_c, 8, 56, 0
10, 41712, Note_on_c, 8, 68, 100
10, 41808, Note_on_c, 8, 56, 100
10, 41902, Note_on_c, 8, 68, 0
10, 41903, Note_on_c, 8, 56, 0
10, 41904, Note_on_c, 8, 68, 100
10, 41904, Note_on_c, 8, 56, 100
10, 41904, Note_on_c, 8, 44, 100
10, 42287, Note_on_c, 8, 44, 0
10, 42287, Note_on_c, 8, 68, 0
10, 42671, Note_on_c, 8, 56, 0
10, 45768, Note_on_c, 8, 68, 100
10, 45959, Note_on_c, 8, 68, 0
10, 46152, Note_on_c, 8, 68, 100
10, 46532, Note_on_c, 8, 68, 0
10, 47704, Note_on_c, 8, 68, 100
10, 48084, Note_on_c, 8, 68, 0
10, 48856, Note_on_c, 8, 68, 100
10, 49000, Note_on_c, 8, 80, 100
10, 49053, Note_on_c, 8, 80, 0
10, 49212, Note_on_c, 8, 80, 100
10, 49236, Note_on_c, 8, 68, 0
10, 49265, Note_on_c, 8, 80, 0
10, 50808, Note_on_c, 8, 68, 100
10, 51188, Note_on_c, 8, 68, 0
10, 53496, Note_on_c, 8, 68, 100
10, 53496, Note_on_c, 8, 56, 100
10, 53879, Note_on_c, 8, 56, 0
10, 53879, Note_on_c, 8, 68, 0
10, 54552, Note_on_c, 8, 68, 100
10, 54647, Note_on_c, 8, 68, 0
10, 55032, Note_on_c, 8, 68, 100
10, 55224, Note_on_c, 8, 80, 100
10, 55415, Note_on_c, 8, 80, 0
10, 55607, Note_on_c, 8, 68, 0
10, 56184, Note_on_c, 8, 56, 100
10, 56564, Note_on_c, 8, 56, 0
10, 58104, Note_on_c, 8, 68, 100
10, 58679, Note_on_c, 8, 68, 0
10, 58680, Note_on_c, 8, 56, 100
10, 58870, Note_on_c, 8, 56, 0
10, 59592, Note_on_c, 8, 68, 100
10, 59639, Note_on_c, 8, 68, 0
10, 59832, Note_on_c, 8, 56, 100
10, 60022, Note_on_c, 8, 56, 0
10, 60024, Note_on_c, 8, 68, 100
10, 60215, Note_on_c, 8, 68, 0
10, 60312, Note_on_c, 8, 68, 100
10, 60407, Note_on_c, 8, 68, 0
10, 61896, Note_on_c, 8, 68, 100
10, 62536, Note_on_c, 8, 68, 0
10, 63440, Note_on_c, 8, 56, 100
10, 63487, Note_on_c, 8, 56, 0
10, 63728, Note_on_c, 8, 56, 100
10, 63823, Note_on_c, 8, 56, 0
10, 63824, Note_on_c, 8, 68, 100
10, 63887, Note_on_c, 8, 68, 0
10, 63936, Note_on_c, 8, 56, 100
10, 64126, Note_on_c, 8, 56, 0
10, 64338, Note_on_c, 8, 56, 100
10, 65337, Note_on_c, 8, 56, 0
10, 67000, Note_on_c, 8, 68, 100
10, 67191, Note_on_c, 8, 68, 0
10, 68200, Note_on_c, 8, 68, 100
10, 68248, Note_on_c, 8, 68, 0
10, 68296, Note_on_c, 8, 68, 100
10, 68536, Note_on_c, 8, 68, 0
10, 68824, Note_on_c, 8, 68, 100
10, 68919, Note_on_c, 8, 68, 0
10, 69016, Note_on_c, 8, 68, 100
10, 69111, Note_on_c, 8, 68, 0
10, 69208, Note_on_c, 8, 68, 100
10, 69303, Note_on_c, 8, 68, 0
10, 69496, Note_on_c, 8, 80, 100
10, 69687, Note_on_c, 8, 80, 0
10, 70456, Note_on_c, 8, 56, 100
10, 70551, Note_on_c, 8, 56, 0
10, 70648, Note_on_c, 8, 56, 100
10, 70743, Note_on_c, 8, 56, 0
10, 70840, Note_on_c, 8, 68, 100
10, 71031, Note_on_c, 8, 68, 0
10, 71416, Note_on_c, 8, 56, 100
10, 71607, Note_on_c, 8, 56, 0
10, 72376, Note_on_c, 8, 68, 100
10, 72471, Note_on_c, 8, 68, 0
10, 72568, Note_on_c, 8, 68, 100
10, 72663, Note_on_c, 8, 68, 0
10, 72760, Note_on_c, 8, 80, 100
10, 73219, Note_on_c, 8, 80, 0
10, 73336, Note_on_c, 8, 80, 100
10, 73431, Note_on_c, 8, 80, 0
10, 73912, Note_on_c, 8, 80, 100
10, 74007, Note_on_c, 8, 80, 0
10, 74296, Note_on_c, 8, 68, 100
10, 74391, Note_on_c, 8, 68, 0
10, 74776, Note_on_c, 8, 68, 100
10, 74871, Note_on_c, 8, 68, 0
10, 74968, Note_on_c, 8, 68, 100
10, 74968, Note_on_c, 8, 80, 100
10, 75063, Note_on_c, 8, 80, 0
10, 75063, Note_on_c, 8, 68, 0
10, 75160, Note_on_c, 8, 80, 100
10, 75255, Note_on_c, 8, 80, 0
10, 75352, Note_on_c, 8, 80, 100
10, 75447, Note_on_c, 8, 80, 0
10, 75640, Note_on_c, 8, 56, 100
10, 75831, Note_on_c, 8, 56, 0
10, 76024, Note_on_c, 8, 56, 100
10, 76215, Note_on_c, 8, 56, 0
10, 76984, Note_on_c, 8, 44, 100
10, 77175, Note_on_c, 8, 44, 0
10, 77176, Note_on_c, 8, 56, 100
10, 77271, Note_on_c, 8, 56, 0
10, 77368, Note_on_c, 8, 56, 100
10, 77463, Note_on_c, 8, 56, 0
10, 78328, Note_on_c, 8, 68, 100
10, 78711, Note_on_c, 8, 68, 0
10, 78904, Note_on_c, 8, 44, 100
10, 79095, Note_on_c, 8, 44, 0
10, 79192, Note_on_c, 8, 56, 100
10, 79287, Note_on_c, 8, 56, 0
10, 79864, Note_on_c, 8, 68, 100
10, 79959, Note_on_c, 8, 68, 0
10, 80056, Note_on_c, 8, 56, 100
10, 80436, Note_on_c, 8, 56, 0
10, 80536, Note_on_c, 8, 56, 100
10, 80631, Note_on_c, 8, 56, 0
10, 80728, Note_on_c, 8, 56, 100
10, 80823, Note_on_c, 8, 56, 0
10, 81400, Note_on_c, 8, 56, 100
10, 81495, Note_on_c, 8, 56, 0
10, 81976, Note_on_c, 8, 68, 100
10, 82167, Note_on_c, 8, 68, 0
10, 83512, Note_on_c, 8, 44, 100
10, 83607, Note_on_c, 8, 44, 0
10, 83704, Note_on_c, 8, 44, 100
10, 83799, Note_on_c, 8, 44, 0
10, 83896, Note_on_c, 8, 68, 100
10, 84087, Note_on_c, 8, 68, 0
10, 84280, Note_on_c, 8, 44, 100
10, 84280, Note_on_c, 8, 56, 100
10, 84375, Note_on_c, 8, 44, 0
10, 84471, Note_on_c, 8, 56, 0
10, 84472, Note_on_c, 8, 44, 100
10, 84567, Note_on_c, 8, 44, 0
10, 85120, Note_on_c, 8, 68, 100
10, 85184, Note_on_c, 8, 68, 0
10, 85248, Note_on_c, 8, 68, 100
10, 85431, Note_on_c, 8, 68, 0
10, 85816, Note_on_c, 8, 68, 100
10, 86007, Note_on_c, 8, 68, 0
10, 87064, Note_on_c, 8, 68, 100
10, 87154, Note_on_c, 8, 68, 0
10, 87160, Note_on_c, 8, 68, 100
10, 87351, Note_on_c, 8, 68, 0
10, 88408, Note_on_c, 8, 68, 100
10, 88503, Note_on_c, 8, 68, 0
10, 89752, Note_on_c, 8, 80, 100
10, 89872, Note_on_c, 8, 80, 0
10, 90808, Note_on_c, 8, 80, 100
10, 91191, Note_on_c, 8, 80, 0
10, 91480, Note_on_c, 8, 68, 100
10, 91575, Note_on_c, 8, 68, 0
10, 92152, Note_on_c, 8, 68, 100
10, 92343, Note_on_c, 8, 68, 0
10, 92440, Note_on_c, 8, 68, 100
10, 92535, Note_on_c, 8, 68, 0
10, 92632, Note_on_c, 8, 68, 100
10, 92919, Note_on_c, 8, 68, 0
10, 93112, Note_on_c, 8, 68, 100
10, 93303, Note_on_c, 8, 68, 0
10, 93496, Note_on_c, 8, 56, 100
10, 93687, Note_on_c, 8, 56, 0
10, 93880, Note_on_c, 8, 68, 100
10, 93975, Note_on_c, 8, 68, 0
10, 93976, Note_on_c, 8, 56, 100
10, 94071, Note_on_c, 8, 56, 0
10, 94552, Note_on_c, 8, 56, 100
10, 94647, Note_on_c, 8, 56, 0
10, 95416, Note_on_c, 8, 44, 100
10, 95512, Note_on_c, 8, 68, 100
10, 95607, Note_on_c, 8, 68, 0
10, 95704, Note_on_c, 8, 68, 100
10, 95796, Note_on_c, 8, 44, 0
10, 95799, Note_on_c, 8, 68, 0
10, 95992, Note_on_c, 8, 44, 100
10, 96087, Note_on_c, 8, 44, 0
10, 96664, Note_on_c, 8, 44, 100
10, 96759, Note_on_c, 8, 44, 0
10, 96856, Note_on_c, 8, 44, 100
10, 96951, Note_on_c, 8, 44, 0
10, 96952, Note_on_c, 8, 68, 100
10, 97431, Note_on_c, 8, 68, 0
10, 97528, Note_on_c, 8, 44, 100
10, 97623, Note_on_c, 8, 44, 0
10, 98200, Note_on_c, 8, 44, 100
10, 98295, Note_on_c, 8, 44, 0
10, 98296, Note_on_c, 8, 68, 100
10, 98391, Note_on_c, 8, 68, 0
10, 98392, Note_on_c, 8, 44, 100
10, 98487, Note_on_c, 8, 44, 0
10, 98584, Note_on_c, 8, 56, 100
10, 98679, Note_on_c, 8, 56, 0
10, 98776, Note_on_c, 8, 56, 100
10, 98871, Note_on_c, 8, 56, 0
10, 98968, Note_on_c, 8, 56, 100
10, 99063, Note_on_c, 8, 56, 0
10, 99064, Note_on_c, 8, 80, 100
10, 99160, Note_on_c, 8, 56, 100
10, 99255, Note_on_c, 8, 56, 0
10, 99255, Note_on_c, 8, 80, 0
10, 99448, Note_on_c, 8, 80, 100
10, 99639, Note_on_c, 8, 80, 0
10, 99832, Note_on_c, 8, 68, 100
10, 100023, Note_on_c, 8, 68, 0
10, 100792, Note_on_c, 8, 68, 100
10, 100888, Note_on_c, 8, 56, 100
10, 100983, Note_on_c, 8, 56, 0
10, 100983, Note_on_c, 8, 68, 0
10, 101176, Note_on_c, 8, 56, 100
10, 101559, Note_on_c, 8, 56, 0
10, 101656, Note_on_c, 8, 68, 100
10, 101751, Note_on_c, 8, 68, 0
10, 101848, Note_on_c, 8, 68, 100
10, 101943, Note_on_c, 8, 68, 0
10, 102040, Note_on_c, 8, 68, 100
10, 102135, Note_on_c, 8, 68, 0
10, 102232, Note_on_c, 8, 68, 100
10, 102327, Note_on_c, 8, 68, 0
10, 103192, Note_on_c, 8, 68, 100
10, 103287, Note_on_c, 8, 68, 0
10, 103384, Note_on_c, 8, 68, 100
10, 103479, Note_on_c, 8, 68, 0
10, 103576, Note_on_c, 8, 68, 100
10, 103671, Note_on_c, 8, 68, 0
10, 103672, Note_on_c, 8, 56, 100
10, 103767, Note_on_c, 8, 56, 0
10, 103768, Note_on_c, 8, 68, 100
10, 103863, Note_on_c, 8, 68, 0
10, 104056, Note_on_c, 8, 56, 100
10, 104151, Note_on_c, 8, 56, 0
10, 104344, Note_on_c, 8, 56, 100
10, 104439, Note_on_c, 8, 56, 0
10, 104824, Note_on_c, 8, 68, 100
10, 104920, Note_on_c, 8, 56, 100
10, 105015, Note_on_c, 8, 56, 0
10, 105207, Note_on_c, 8, 68, 0
10, 105400, Note_on_c, 8, 68, 100
10, 105780, Note_on_c, 8, 68, 0
10, 106936, Note_on_c, 8, 68, 100
10, 107127, Note_on_c, 8, 68, 0
10, 107320, Note_on_c, 8, 56, 100
10, 107415, Note_on_c, 8, 56, 0
10, 107512, Note_on_c, 8, 56, 100
10, 107607, Note_on_c, 8, 56, 0
10, 108144, Note_on_c, 8, 68, 100
10, 108192, Note_on_c, 8, 68, 0
10, 108240, Note_on_c, 8, 68, 100
10, 108376, Note_on_c, 8, 56, 100
10, 108430, Note_on_c, 8, 68, 0
10, 108471, Note_on_c, 8, 56, 0
10, 108664, Note_on_c, 8, 68, 100
10, 108759, Note_on_c, 8, 68, 0
10, 108952, Note_on_c, 8, 56, 100
10, 109047, Note_on_c, 8, 56, 0
10, 112600, Note_on_c, 8, 68, 100
10, 112695, Note_on_c, 8, 68, 0
10, 114424, Note_on_c, 8, 44, 100
10, 114424, Note_on_c, 8, 68, 100
10, 114615, Note_on_c, 8, 68, 0
10, 114615, Note_on_c, 8, 44, 0
10, 116056, Note_on_c, 8, 80, 100
10, 116146, Note_on_c, 8, 80, 0
10, 116536, Note_on_c, 8, 68, 100
10, 116727, Note_on_c, 8, 68, 0
10, 117304, Note_on_c, 8, 56, 100
10, 117399, Note_on_c, 8, 56, 0
10, 117688, Note_on_c, 8, 68, 100
10, 117784, Note_on_c, 8, 56, 100
10, 117784, Note_on_c, 8, 80, 100
10, 117879, Note_on_c, 8, 80, 0
10, 117879, Note_on_c, 8, 56, 0
10, 117879, Note_on_c, 8, 68, 0
10, 118264, Note_on_c, 8, 68, 100
10, 118360, Note_on_c, 8, 56, 100
10, 118455, Note_on_c, 8, 56, 0
10, 118647, Note_on_c, 8, 68, 0
10, 118840, Note_on_c, 8, 68, 100
10, 118936, Note_on_c, 8, 56, 100
10, 119031, Note_on_c, 8, 56, 0
10, 119223, Note_on_c, 8, 68, 0
10, 119992, Note_on_c, 8, 44, 100
10, 119992, Note_on_c, 8, 68, 100
10, 120087, Note_on_c, 8, 44, 0
10, 120088, Note_on_c, 8, 56, 100
10, 120183, Note_on_c, 8, 56, 0
10, 120183, Note_on_c, 8, 68, 0
10, 120280, Note_on_c, 8, 56, 100
10, 120375, Note_on_c, 8, 56, 0
10, 120472, Note_on_c, 8, 68, 100
10, 120567, Note_on_c, 8, 68, 0
10, 120664, Note_on_c, 8, 68, 100
10, 120759, Note_on_c, 8, 68, 0
10, 120952, Note_on_c, 8, 56, 100
10, 121142, Note_on_c, 8, 56, 0
10, 121336, Note_on_c, 8, 68, 100
10, 121526, Note_on_c, 8, 68, 0
10, 121912, Note_on_c, 8, 56, 100
10, 122103, Note_on_c, 8, 56, 0
10, 122296, Note_on_c, 8, 68, 100
10, 122487, Note_on_c, 8, 68, 0
10, 122488, Note_on_c, 8, 56, 100
10, 122583, Note_on_c, 8, 56, 0
10, 122872, Note_on_c, 8, 56, 100
10, 122872, Note_on_c, 8, 68, 100
10, 122967, Note_on_c, 8, 68, 0
10, 123063, Note_on_c, 8, 56, 0
10, 123256, Note_on_c, 8, 68, 100
10, 123447, Note_on_c, 8, 68, 0
10, 123832, Note_on_c, 8, 56, 100
10, 124023, Note_on_c, 8, 56, 0
10, 124216, Note_on_c, 8, 68, 100
10, 124312, Note_on_c, 8, 56, 100
10, 124407, Note_on_c, 8, 56, 0
10, 124407, Note_on_c, 8, 68, 0
10, 124504, Note_on_c, 8, 56, 100
10, 124599, Note_on_c, 8, 56, 0
10, 125464, Note_on_c, 8, 56, 100
10, 125559, Note_on_c, 8, 56, 0
10, 125944, Note_on_c, 8, 56, 100
10, 126039, Note_on_c, 8, 56, 0
10, 126040, Note_on_c, 8, 44, 100
10, 126042, Note_on_c, 8, 68, 100
10, 126135, Note_on_c, 8, 44, 0
10, 126137, Note_on_c, 8, 68, 0
10, 126232, Note_on_c, 8, 68, 100
10, 126327, Note_on_c, 8, 68, 0
10, 126424, Note_on_c, 8, 68, 100
10, 126519, Note_on_c, 8, 68, 0
10, 127288, Note_on_c, 8, 44, 100
10, 127288, Note_on_c, 8, 68, 100
10, 127383, Note_on_c, 8, 68, 0
10, 127479, Note_on_c, 8, 44, 0
10, 127480, Note_on_c, 8, 68, 100
10, 127575, Note_on_c, 8, 68, 0
10, 127672, Note_on_c, 8, 68, 100
10, 127767, Note_on_c, 8, 68, 0
10, 127864, Note_on_c, 8, 68, 100
10, 127959, Note_on_c, 8, 68, 0
10, 128056, Note_on_c, 8, 68, 100
10, 128151, Note_on_c, 8, 68, 0
10, 128248, Note_on_c, 8, 68, 100
10, 128343, Note_on_c, 8, 68, 0
10, 128440, Note_on_c, 8, 68, 100
10, 128535, Note_on_c, 8, 68, 0
10, 128632, Note_on_c, 8, 44, 100
10, 128632, Note_on_c, 8, 68, 100
10, 128823, Note_on_c, 8, 68, 0
10, 128823, Note_on_c, 8, 44, 0
10, 129016, Note_on_c, 8, 68, 100
10, 129207, Note_on_c, 8, 68, 0
10, 129400, Note_on_c, 8, 44, 100
10, 129400, Note_on_c, 8, 68, 100
10, 129591, Note_on_c, 8, 68, 0
10, 129740, Note_on_c, 8, 44, 0
10, 129976, Note_on_c, 8, 44, 100
10, 130167, Note_on_c, 8, 44, 0
10, 130360, Note_on_c, 8, 44, 100
10, 130456, Note_on_c, 8, 80, 100
10, 130551, Note_on_c, 8, 80, 0
10, 130551, Note_on_c, 8, 44, 0
10, 131128, Note_on_c, 8, 44, 100
10, 131224, Note_on_c, 8, 80, 100
10, 131319, Note_on_c, 8, 80, 0
10, 131319, Note_on_c, 8, 44, 0
10, 131320, Note_on_c, 8, 56, 100
10, 131511, Note_on_c, 8, 56, 0
10, 132088, Note_on_c, 8, 80, 100
10, 132183, Note_on_c, 8, 80, 0
10, 132280, Note_on_c, 8, 56, 100
10, 132471, Note_on_c, 8, 56, 0
10, 132664, Note_on_c, 8, 80, 100
10, 132855, Note_on_c, 8, 80, 0
10, 133432, Note_on_c, 8, 80, 100
10, 133624, Note_on_c, 8, 44, 100
10, 133815, Note_on_c, 8, 44, 0
10, 133911, Note_on_c, 8, 80, 0
10, 134488, Note_on_c, 8, 80, 100
10, 134583, Note_on_c, 8, 80, 0
10, 134968, Note_on_c, 8, 80, 100
10, 135447, Note_on_c, 8, 80, 0
10, 135448, Note_on_c, 8, 80, 100
10, 135543, Note_on_c, 8, 80, 0
10, 135640, Note_on_c, 8, 80, 100
10, 135735, Note_on_c, 8, 80, 0
10, 136120, Note_on_c, 8, 68, 100
10, 136311, Note_on_c, 8, 68, 0
10, 136312, Note_on_c, 8, 56, 100
10, 136312, Note_on_c, 8, 80, 100
10, 136407, Note_on_c, 8, 80, 0
10, 136503, Note_on_c, 8, 56, 0
10, 136600, Note_on_c, 8, 80, 100
10, 136695, Note_on_c, 8, 80, 0
10, 136696, Note_on_c, 8, 56, 100
10, 136887, Note_on_c, 8, 56, 0
10, 136984, Note_on_c, 8, 80, 100
10, 137079, Note_on_c, 8, 80, 0
10, 137272, Note_on_c, 8, 56, 100
10, 137655, Note_on_c, 8, 56, 0
10, 137944, Note_on_c, 8, 68, 100
10, 138039, Note_on_c, 8, 68, 0
10, 138136, Note_on_c, 8, 68, 100
10, 138231, Note_on_c, 8, 68, 0
10, 138232, Note_on_c, 8, 80, 100
10, 138328, Note_on_c, 8, 68, 100
10, 138423, Note_on_c, 8, 68, 0
10, 138423, Note_on_c, 8, 80, 0
10, 138616, Note_on_c, 8, 80, 100
10, 138807, Note_on_c, 8, 80, 0
10, 139960, Note_on_c, 8, 68, 100
10, 140151, Note_on_c, 8, 68, 0
10, 141112, Note_on_c, 8, 68, 100
10, 141207, Note_on_c, 8, 68, 0
10, 141304, Note_on_c, 8, 68, 100
10, 141399, Note_on_c, 8, 68, 0
10, 141880, Note_on_c, 8, 68, 100
10, 141970, Note_on_c, 8, 68, 0
10, 141976, Note_on_c, 8, 68, 100
10, 142071, Note_on_c, 8, 68, 0
10, 143224, Note_on_c, 8, 68, 100
10, 143319, Note_on_c, 8, 68, 0
10, 143608, Note_on_c, 8, 80, 100
10, 143703, Note_on_c, 8, 80, 0
10, 143800, Note_on_c, 8, 68, 100
10, 143895, Note_on_c, 8, 68, 0
10, 144184, Note_on_c, 8, 80, 100
10, 144279, Note_on_c, 8, 80, 0
10, 144376, Note_on_c, 8, 80, 100
10, 144471, Note_on_c, 8, 80, 0
10, 145144, Note_on_c, 8, 80, 100
10, 145239, Note_on_c, 8, 80, 0
10, 145528, Note_on_c, 8, 68, 100
10, 145623, Note_on_c, 8, 68, 0
10, 145720, Note_on_c, 8, 80, 100
10, 145815, Note_on_c, 8, 80, 0
10, 146296, Note_on_c, 8, 68, 100
10, 146391, Note_on_c, 8, 68, 0
10, 146488, Note_on_c, 8, 56, 100
10, 146868, Note_on_c, 8, 56, 0
10, 147640, Note_on_c, 8, 44, 100
10, 147831, Note_on_c, 8, 44, 0
10, 148024, Note_on_c, 8, 68, 100
10, 148119, Note_on_c, 8, 68, 0
10, 148216, Note_on_c, 8, 68, 100
10, 148311, Note_on_c, 8, 68, 0
10, 148518, Note_on_c, 8, 56, 100
10, 148617, Note_on_c, 8, 56, 0
10, 149122, Note_on_c, 8, 68, 100
10, 149221, Note_on_c, 8, 68, 0
10, 149626, Note_on_c, 8, 68, 100
10, 149826, Note_on_c, 8, 68, 0
10, 149929, Note_on_c, 8, 68, 100
10, 150028, Note_on_c, 8, 68, 0
10, 151239, Note_on_c, 8, 68, 100
10, 151239, Note_on_c, 8, 44, 100
10, 151338, Note_on_c, 8, 44, 0
10, 151439, Note_on_c, 8, 68, 0
10, 151968, Note_on_c, 8, 80, 100
10, 152072, Note_on_c, 8, 80, 0
10, 152813, Note_on_c, 8, 68, 100
10, 152813, Note_on_c, 8, 80, 100
10, 152917, Note_on_c, 8, 80, 0
10, 152917, Note_on_c, 8, 68, 0
10, 153024, Note_on_c, 8, 80, 100
10, 153128, Note_on_c, 8, 80, 0
10, 153552, Note_on_c, 8, 68, 100
10, 153552, Note_on_c, 8, 80, 100
10, 153656, Note_on_c, 8, 80, 0
10, 153656, Note_on_c, 8, 68, 0
10, 157084, Note_on_c, 8, 56, 100
10, 157084, Note_on_c, 8, 68, 100
10, 157198, Note_on_c, 8, 68, 0
10, 157198, Note_on_c, 8, 56, 0
10, 157429, Note_on_c, 8, 56, 100
10, 157543, Note_on_c, 8, 56, 0
10, 157660, Note_on_c, 8, 68, 100
10, 157774, Note_on_c, 8, 68, 0
10, 157890, Note_on_c, 8, 68, 100
10, 158004, Note_on_c, 8, 68, 0
10, 159850, Note_on_c, 8, 68, 100
10, 159946, Note_on_c, 8, 68, 0
10, 160340, Note_on_c, 8, 68, 100
10, 160340, Note_on_c, 8, 56, 100
10, 160536, Note_on_c, 8, 80, 100
10, 160632, Note_on_c, 8, 80, 0
10, 160727, Note_on_c, 8, 56, 0
10, 160727, Note_on_c, 8, 68, 0
10, 160927, Note_on_c, 8, 68, 100
10, 161023, Note_on_c, 8, 68, 0
10, 161221, Note_on_c, 8, 56, 100
10, 161317, Note_on_c, 8, 56, 0
10, 161515, Note_on_c, 8, 68, 100
10, 161709, Note_on_c, 8, 68, 0
10, 161711, Note_on_c, 8, 68, 100
10, 161802, Note_on_c, 8, 68, 0
10, 161809, Note_on_c, 8, 68, 100
10, 161905, Note_on_c, 8, 68, 0
10, 164208, Note_on_c, 8, 68, 100
10, 164255, Note_on_c, 8, 68, 0
10, 165040, Note_on_c, 8, 68, 100
10, 165136, Note_on_c, 8, 68, 0
10, 165432, Note_on_c, 8, 68, 100
10, 165528, Note_on_c, 8, 68, 0
10, 165921, Note_on_c, 8, 56, 100
10, 166017, Note_on_c, 8, 56, 0
10, 166215, Note_on_c, 8, 68, 100
10, 166409, Note_on_c, 8, 68, 0
10, 166411, Note_on_c, 8, 68, 100
10, 166502, Note_on_c, 8, 68, 0
10, 166509, Note_on_c, 8, 68, 100
10, 166605, Note_on_c, 8, 68, 0
10, 167678, Note_on_c, 8, 56, 100
10, 167773, Note_on_c, 8, 56, 0
10, 168926, Note_on_c, 8, 56, 100
10, 169118, Note_on_c, 8, 68, 100
10, 169213, Note_on_c, 8, 56, 0
10, 169498, Note_on_c, 8, 68, 0
10, 169502, Note_on_c, 8, 80, 100
10, 169502, Note_on_c, 8, 68, 100
10, 169597, Note_on_c, 8, 80, 0
10, 169693, Note_on_c, 8, 68, 0
10, 169694, Note_on_c, 8, 68, 100
10, 169884, Note_on_c, 8, 68, 0
10, 169886, Note_on_c, 8, 68, 100
10, 170076, Note_on_c, 8, 68, 0
10, 170270, Note_on_c, 8, 56, 100
10, 170365, Note_on_c, 8, 56, 0
10, 170556, Note_on_c, 8, 68, 100
10, 170649, Note_on_c, 8, 68, 0
10, 170838, Note_on_c, 8, 80, 100
10, 171025, Note_on_c, 8, 80, 0
10, 171026, Note_on_c, 8, 80, 100
10, 171120, Note_on_c, 8, 56, 100
10, 171213, Note_on_c, 8, 56, 0
10, 171213, Note_on_c, 8, 80, 0
10, 171214, Note_on_c, 8, 80, 100
10, 171401, Note_on_c, 8, 80, 0
10, 171920, Note_on_c, 8, 56, 100
10, 171966, Note_on_c, 8, 56, 0
10, 172720, Note_on_c, 8, 56, 100
10, 172813, Note_on_c, 8, 56, 0
10, 173097, Note_on_c, 8, 56, 100
10, 173190, Note_on_c, 8, 56, 0
10, 173379, Note_on_c, 8, 56, 100
10, 173425, Note_on_c, 8, 56, 0
10, 173662, Note_on_c, 8, 68, 100
10, 173755, Note_on_c, 8, 68, 0
10, 173850, Note_on_c, 8, 68, 100
10, 174037, Note_on_c, 8, 68, 0
10, 174038, Note_on_c, 8, 56, 100
10, 174038, Note_on_c, 8, 68, 100
10, 174131, Note_on_c, 8, 56, 0
10, 174225, Note_on_c, 8, 68, 0
10, 174226, Note_on_c, 8, 68, 100
10, 174320, Note_on_c, 8, 56, 100
10, 174413, Note_on_c, 8, 56, 0
10, 174509, Note_on_c, 8, 56, 100
10, 174598, Note_on_c, 8, 68, 0
10, 174602, Note_on_c, 8, 56, 0
10, 174697, Note_on_c, 8, 56, 100
10, 174790, Note_on_c, 8, 56, 0
10, 175262, Note_on_c, 8, 68, 100
10, 175355, Note_on_c, 8, 68, 0
10, 176579, Note_on_c, 8, 56, 100
10, 176672, Note_on_c, 8, 56, 0
10, 176862, Note_on_c, 8, 68, 100
10, 177049, Note_on_c, 8, 68, 0
10, 177050, Note_on_c, 8, 68, 100
10, 177144, Note_on_c, 8, 44, 100
10, 177237, Note_on_c, 8, 44, 0
10, 177237, Note_on_c, 8, 68, 0
10, 177238, Note_on_c, 8, 68, 100
10, 177425, Note_on_c, 8, 68, 0
10, 177944, Note_on_c, 8, 44, 100
10, 177990, Note_on_c, 8, 44, 0
10, 178744, Note_on_c, 8, 44, 100
10, 178837, Note_on_c, 8, 44, 0
10, 179120, Note_on_c, 8, 44, 100
10, 179213, Note_on_c, 8, 44, 0
10, 179495, Note_on_c, 8, 68, 100
10, 179770, Note_on_c, 8, 68, 0
10, 179864, Note_on_c, 8, 68, 100
10, 180047, Note_on_c, 8, 68, 0
10, 180048, Note_on_c, 8, 68, 100
10, 180231, Note_on_c, 8, 68, 0
10, 180233, Note_on_c, 8, 68, 100
10, 180416, Note_on_c, 8, 68, 0
10, 181248, Note_on_c, 8, 68, 100
10, 181339, Note_on_c, 8, 68, 0
10, 182633, Note_on_c, 8, 68, 100
10, 182724, Note_on_c, 8, 68, 0
10, 182818, Note_on_c, 8, 68, 100
10, 183001, Note_on_c, 8, 68, 0
10, 183002, Note_on_c, 8, 68, 100
10, 183002, Note_on_c, 8, 56, 100
10, 183093, Note_on_c, 8, 56, 0
10, 183185, Note_on_c, 8, 68, 0
10, 183187, Note_on_c, 8, 68, 100
10, 183279, Note_on_c, 8, 56, 100
10, 183370, Note_on_c, 8, 56, 0
10, 183464, Note_on_c, 8, 56, 100
10, 183552, Note_on_c, 8, 68, 0
10, 183555, Note_on_c, 8, 56, 0
10, 183648, Note_on_c, 8, 56, 100
10, 183739, Note_on_c, 8, 56, 0
10, 185356, Note_on_c, 8, 56, 100
10, 185401, Note_on_c, 8, 56, 0
10, 186141, Note_on_c, 8, 56, 100
10, 186232, Note_on_c, 8, 56, 0
10, 186510, Note_on_c, 8, 56, 100
10, 186601, Note_on_c, 8, 56, 0
10, 186971, Note_on_c, 8, 68, 100
10, 187062, Note_on_c, 8, 68, 0
10, 187248, Note_on_c, 8, 80, 100
10, 187431, Note_on_c, 8, 80, 0
10, 187433, Note_on_c, 8, 80, 100
10, 187525, Note_on_c, 8, 56, 100
10, 187616, Note_on_c, 8, 56, 0
10, 187616, Note_on_c, 8, 80, 0
10, 187618, Note_on_c, 8, 80, 100
10, 187801, Note_on_c, 8, 80, 0
10, 188626, Note_on_c, 8, 56, 100
10, 188719, Note_on_c, 8, 56, 0
10, 189946, Note_on_c, 8, 56, 100
10, 190041, Note_on_c, 8, 56, 0
10, 190234, Note_on_c, 8, 80, 100
10, 190522, Note_on_c, 8, 68, 100
10, 190617, Note_on_c, 8, 68, 0
10, 190713, Note_on_c, 8, 80, 0
10, 192169, Note_on_c, 8, 56, 100
10, 192267, Note_on_c, 8, 68, 100
10, 192363, Note_on_c, 8, 68, 0
10, 192463, Note_on_c, 8, 68, 100
10, 192556, Note_on_c, 8, 56, 0
10, 192559, Note_on_c, 8, 68, 0
10, 192658, Note_on_c, 8, 68, 100
10, 192754, Note_on_c, 8, 68, 0
10, 194666, Note_on_c, 8, 68, 100
10, 194764, Note_on_c, 8, 68, 0
10, 194868, Note_on_c, 8, 68, 100
10, 194966, Note_on_c, 8, 68, 0
10, 195070, Note_on_c, 8, 68, 100
10, 195118, Note_on_c, 8, 68, 0
10, 195171, Note_on_c, 8, 56, 100
10, 195370, Note_on_c, 8, 56, 0
10, 196855, Note_on_c, 8, 56, 100
10, 197065, Note_on_c, 8, 56, 0
10, 197389, Note_on_c, 8, 44, 100
10, 197494, Note_on_c, 8, 44, 0
10, 198794, Note_on_c, 8, 56, 100
10, 198903, Note_on_c, 8, 44, 100
10, 199009, Note_on_c, 8, 44, 0
10, 199113, Note_on_c, 8, 56, 0
10, 199234, Note_on_c, 8, 56, 100
10, 199450, Note_on_c, 8, 56, 0
10, 199455, Note_on_c, 8, 56, 100
10, 199554, Note_on_c, 8, 56, 0
10, 199565, Note_on_c, 8, 56, 100
10, 199671, Note_on_c, 8, 56, 0
10, 200501, Note_on_c, 8, 56, 100
10, 200552, Note_on_c, 8, 56, 0
10, 201044, Note_on_c, 8, 56, 100
10, 201285, Note_on_c, 8, 56, 0
10, 204610, Note_on_c, 8, 68, 100
10, 204705, Note_on_c, 8, 68, 0
10, 204802, Note_on_c, 8, 68, 100
10, 204993, Note_on_c, 8, 68, 0
10, 205570, Note_on_c, 8, 68, 100
10, 205665, Note_on_c, 8, 68, 0
10, 205762, Note_on_c, 8, 68, 100
10, 205857, Note_on_c, 8, 68, 0
10, 206050, Note_on_c, 8, 68, 100
10, 206145, Note_on_c, 8, 68, 0
10, 206242, Note_on_c, 8, 68, 100
10, 206337, Note_on_c, 8, 68, 0
10, 206434, Note_on_c, 8, 68, 100
10, 206529, Note_on_c, 8, 68, 0
10, 206722, Note_on_c, 8, 68, 100
10, 206913, Note_on_c, 8, 68, 0
10, 206914, Note_on_c, 8, 56, 100
10, 207105, Note_on_c, 8, 56, 0
10, 208162, Note_on_c, 8, 56, 100
10, 208257, Note_on_c, 8, 56, 0
10, 208450, Note_on_c, 8, 56, 100
10, 208641, Note_on_c, 8, 56, 0
10, 208834, Note_on_c, 8, 68, 100
10, 208929, Note_on_c, 8, 68, 0
10, 209314, Note_on_c, 8, 56, 100
10, 209409, Note_on_c, 8, 56, 0
10, 209890, Note_on_c, 8, 68, 100
10, 209985, Note_on_c, 8, 68, 0
10, 210178, Note_on_c, 8, 68, 100
10, 210562, Note_on_c, 8, 56, 100
10, 210657, Note_on_c, 8, 56, 0
10, 210849, Note_on_c, 8, 68, 0
10, 210946, Note_on_c, 8, 68, 100
10, 211041, Note_on_c, 8, 68, 0
10, 211234, Note_on_c, 8, 68, 100
10, 211329, Note_on_c, 8, 68, 0
10, 211906, Note_on_c, 8, 56, 100
10, 212002, Note_on_c, 8, 68, 100
10, 212097, Note_on_c, 8, 68, 0
10, 212481, Note_on_c, 8, 56, 0
10, 213250, Note_on_c, 8, 56, 100
10, 213345, Note_on_c, 8, 56, 0
10, 213442, Note_on_c, 8, 68, 100
10, 213442, Note_on_c, 8, 56, 100
10, 213633, Note_on_c, 8, 56, 0
10, 213633, Note_on_c, 8, 68, 0
10, 214210, Note_on_c, 8, 56, 100
10, 214593, Note_on_c, 8, 56, 0
10, 214594, Note_on_c, 8, 68, 100
10, 214689, Note_on_c, 8, 68, 0
10, 214882, Note_on_c, 8, 56, 100
10, 214977, Note_on_c, 8, 56, 0
10, 215362, Note_on_c, 8, 68, 100
10, 215457, Note_on_c, 8, 68, 0
10, 215554, Note_on_c, 8, 68, 100
10, 215554, Note_on_c, 8, 44, 100
10, 215649, Note_on_c, 8, 68, 0
10, 215745, Note_on_c, 8, 44, 0
10, 215842, Note_on_c, 8, 68, 100
10, 215937, Note_on_c, 8, 68, 0
10, 216226, Note_on_c, 8, 68, 100
10, 216321, Note_on_c, 8, 68, 0
10, 216514, Note_on_c, 8, 68, 100
10, 216705, Note_on_c, 8, 68, 0
10, 217954, Note_on_c, 8, 68, 100
10, 218049, Note_on_c, 8, 68, 0
10, 218242, Note_on_c, 8, 68, 100
10, 218433, Note_on_c, 8, 68, 0
10, 218626, Note_on_c, 8, 80, 100
10, 218721, Note_on_c, 8, 80, 0
10, 219010, Note_on_c, 8, 80, 100
10, 219105, Note_on_c, 8, 80, 0
10, 219202, Note_on_c, 8, 80, 100
10, 219297, Note_on_c, 8, 80, 0
10, 219778, Note_on_c, 8, 68, 100
10, 219873, Note_on_c, 8, 68, 0
10, 219970, Note_on_c, 8, 68, 100
10, 220065, Note_on_c, 8, 68, 0
10, 220162, Note_on_c, 8, 68, 100
10, 220257, Note_on_c, 8, 68, 0
10, 220738, Note_on_c, 8, 68, 100
10, 220833, Note_on_c, 8, 68, 0
10, 220930, Note_on_c, 8, 80, 100
10, 220930, Note_on_c, 8, 68, 100
10, 221121, Note_on_c, 8, 68, 0
10, 221313, Note_on_c, 8, 80, 0
10, 221698, Note_on_c, 8, 56, 100
10, 221890, Note_on_c, 8, 68, 100
10, 221985, Note_on_c, 8, 68, 0
10, 221985, Note_on_c, 8, 56, 0
10, 221986, Note_on_c, 8, 56, 100
10, 222081, Note_on_c, 8, 56, 0
10, 222178, Note_on_c, 8, 56, 100
10, 222273, Note_on_c, 8, 56, 0
10, 222370, Note_on_c, 8, 56, 100
10, 222417, Note_on_c, 8, 56, 0
10, 222466, Note_on_c, 8, 56, 100
10, 222561, Note_on_c, 8, 56, 0
10, 222658, Note_on_c, 8, 68, 100
10, 222658, Note_on_c, 8, 56, 100
10, 222753, Note_on_c, 8, 68, 0
10, 222849, Note_on_c, 8, 56, 0
10, 223810, Note_on_c, 8, 68, 100
10, 223905, Note_on_c, 8, 68, 0
10, 223906, Note_on_c, 8, 56, 100
10, 224001, Note_on_c, 8, 56, 0
10, 224290, Note_on_c, 8, 68, 100
10, 224385, Note_on_c, 8, 68, 0
10, 224770, Note_on_c, 8, 68, 100
10, 224865, Note_on_c, 8, 68, 0
10, 224962, Note_on_c, 8, 68, 100
10, 225152, Note_on_c, 8, 68, 0
10, 225730, Note_on_c, 8, 68, 100
10, 225921, Note_on_c, 8, 68, 0
10, 225922, Note_on_c, 8, 56, 100
10, 226305, Note_on_c, 8, 56, 0
10, 227362, Note_on_c, 8, 56, 100
10, 227457, Note_on_c, 8, 56, 0
10, 227650, Note_on_c, 8, 56, 100
10, 227841, Note_on_c, 8, 56, 0
10, 227842, Note_on_c, 8, 68, 100
10, 227937, Note_on_c, 8, 68, 0
10, 228226, Note_on_c, 8, 68, 100
10, 228321, Note_on_c, 8, 68, 0
10, 228418, Note_on_c, 8, 68, 100
10, 228608, Note_on_c, 8, 68, 0
10, 228706, Note_on_c, 8, 68, 100
10, 228801, Note_on_c, 8, 68, 0
10, 228898, Note_on_c, 8, 56, 100
10, 228993, Note_on_c, 8, 56, 0
10, 229186, Note_on_c, 8, 68, 100
10, 229378, Note_on_c, 8, 56, 100
10, 229569, Note_on_c, 8, 56, 0
10, 229665, Note_on_c, 8, 68, 0
10, 229858, Note_on_c, 8, 56, 100
10, 229953, Note_on_c, 8, 56, 0
10, 230338, Note_on_c, 8, 56, 100
10, 230529, Note_on_c, 8, 56, 0
10, 230530, Note_on_c, 8, 68, 100
10, 230721, Note_on_c, 8, 68, 0
10, 231778, Note_on_c, 8, 56, 100
10, 231873, Note_on_c, 8, 56, 0
10, 232258, Note_on_c, 8, 56, 100
10, 232353, Note_on_c, 8, 56, 0
10, 232450, Note_on_c, 8, 56, 100
10, 232545, Note_on_c, 8, 56, 0
10, 232546, Note_on_c, 8, 44, 100
10, 232641, Note_on_c, 8, 44, 0
10, 233026, Note_on_c, 8, 80, 100
10, 233217, Note_on_c, 8, 80, 0
10, 233314, Note_on_c, 8, 80, 100
10, 233409, Note_on_c, 8, 80, 0
10, 233602, Note_on_c, 8, 56, 100
10, 233793, Note_on_c, 8, 56, 0
10, 234754, Note_on_c, 8, 68, 100
10, 234754, Note_on_c, 8, 56, 100
10, 234849, Note_on_c, 8, 56, 0
10, 235137, Note_on_c, 8, 68, 0
10, 235234, Note_on_c, 8, 56, 100
10, 235329, Note_on_c, 8, 56, 0
10, 235522, Note_on_c, 8, 56, 100
10, 235617, Note_on_c, 8, 56, 0
10, 235714, Note_on_c, 8, 56, 100
10, 235809, Note_on_c, 8, 56, 0
10, 235906, Note_on_c, 8, 68, 100
10, 236002, Note_on_c, 8, 56, 100
10, 236097, Note_on_c, 8, 56, 0
10, 236097, Note_on_c, 8, 68, 0
10, 236194, Note_on_c, 8, 56, 100
10, 236289, Note_on_c, 8, 56, 0
10, 236866, Note_on_c, 8, 68, 100
10, 236866, Note_on_c, 8, 56, 100
10, 237057, Note_on_c, 8, 56, 0
10, 237057, Note_on_c, 8, 68, 0
10, 237058, Note_on_c, 8, 56, 100
10, 237249, Note_on_c, 8, 56, 0
10, 237634, Note_on_c, 8, 68, 100
10, 238014, Note_on_c, 8, 68, 0
10, 238018, Note_on_c, 8, 68, 100
10, 238209, Note_on_c, 8, 68, 0
10, 238210, Note_on_c, 8, 68, 100
10, 238306, Note_on_c, 8, 44, 100
10, 238401, Note_on_c, 8, 44, 0
10, 238401, Note_on_c, 8, 68, 0
10, 238594, Note_on_c, 8, 68, 100
10, 238594, Note_on_c, 8, 44, 100
10, 238689, Note_on_c, 8, 68, 0
10, 238977, Note_on_c, 8, 44, 0
10, 239170, Note_on_c, 8, 68, 100
10, 239361, Note_on_c, 8, 68, 0
10, 239938, Note_on_c, 8, 56, 100
10, 240033, Note_on_c, 8, 56, 0
10, 240706, Note_on_c, 8, 56, 100
10, 240897, Note_on_c, 8, 56, 0
10, 241858, Note_on_c, 8, 68, 100
10, 242145, Note_on_c, 8, 68, 0
10, 242722, Note_on_c, 8, 68, 100
10, 242817, Note_on_c, 8, 68, 0
10, 243394, Note_on_c, 8, 56, 100
10, 243489, Note_on_c, 8, 56, 0
10, 243970, Note_on_c, 8, 68, 100
10, 244161, Note_on_c, 8, 68, 0
10, 244642, Note_on_c, 8, 68, 100
10, 244737, Note_on_c, 8, 68, 0
10, 244834, Note_on_c, 8, 68, 100
10, 244929, Note_on_c, 8, 68, 0
10, 245122, Note_on_c, 8, 56, 100
10, 245217, Note_on_c, 8, 56, 0
10, 245890, Note_on_c, 8, 68, 100
10, 246273, Note_on_c, 8, 68, 0
10, 246274, Note_on_c, 8, 68, 100
10, 246370, Note_on_c, 8, 56, 100
10, 246465, Note_on_c, 8, 56, 0
10, 246465, Note_on_c, 8, 68, 0
10, 246850, Note_on_c, 8, 68, 100
10, 246945, Note_on_c, 8, 68, 0
10, 246946, Note_on_c, 8, 56, 100
10, 247041, Note_on_c, 8, 56, 0
10, 247426, Note_on_c, 8, 56, 100
10, 247521, Note_on_c, 8, 56, 0
10, 248194, Note_on_c, 8, 68, 100
10, 248289, Note_on_c, 8, 68, 0
10, 249634, Note_on_c, 8, 68, 100
10, 249729, Note_on_c, 8, 68, 0
10, 251074, Note_on_c, 8, 56, 100
10, 251265, Note_on_c, 8, 56, 0
10, 255778, Note_on_c, 8, 68, 100
10, 255873, Note_on_c, 8, 68, 0
10, 256258, Note_on_c, 8, 56, 100
10, 256449, Note_on_c, 8, 56, 0
10, 257122, Note_on_c, 8, 68, 100
10, 257122, Note_on_c, 8, 56, 100
10, 257217, Note_on_c, 8, 56, 0
10, 257217, Note_on_c, 8, 68, 0
10, 257794, Note_on_c, 8, 56, 100
10, 257889, Note_on_c, 8, 56, 0
10, 257986, Note_on_c, 8, 68, 100
10, 258081, Note_on_c, 8, 68, 0
10, 258178, Note_on_c, 8, 68, 100
10, 258273, Note_on_c, 8, 68, 0
10, 258370, Note_on_c, 8, 56, 100
10, 258465, Note_on_c, 8, 56, 0
10, 258466, Note_on_c, 8, 68, 100
10, 258561, Note_on_c, 8, 68, 0
10, 258850, Note_on_c, 8, 56, 100
10, 258945, Note_on_c, 8, 56, 0
10, 259042, Note_on_c, 8, 68, 100
10, 259137, Note_on_c, 8, 68, 0
10, 259234, Note_on_c, 8, 68, 100
10, 259329, Note_on_c, 8, 68, 0
10, 259714, Note_on_c, 8, 56, 100
10, 259809, Note_on_c, 8, 56, 0
10, 259906, Note_on_c, 8, 56, 100
10, 260001, Note_on_c, 8, 56, 0
10, 260098, Note_on_c, 8, 68, 100
10, 260193, Note_on_c, 8, 68, 0
10, 260194, Note_on_c, 8, 56, 100
10, 260289, Note_on_c, 8, 56, 0
10, 260386, Note_on_c, 8, 68, 100
10, 260481, Note_on_c, 8, 68, 0
10, 261442, Note_on_c, 8, 68, 100
10, 261633, Note_on_c, 8, 68, 0
10, 262594, Note_on_c, 8, 56, 100
10, 262785, Note_on_c, 8, 56, 0
10, 262786, Note_on_c, 8, 68, 100
10, 262977, Note_on_c, 8, 68, 0
10, 263554, Note_on_c, 8, 68, 100
10, 263649, Note_on_c, 8, 68, 0
10, 263746, Note_on_c, 8, 56, 100
10, 263841, Note_on_c, 8, 56, 0
10, 263938, Note_on_c, 8, 56, 100
10, 264033, Note_on_c, 8, 56, 0
10, 264226, Note_on_c, 8, 56, 100
10, 264321, Note_on_c, 8, 56, 0
10, 265474, Note_on_c, 8, 56, 100
10, 265474, Note_on_c, 8, 44, 100
10, 265762, Note_on_c, 8, 68, 100
10, 265857, Note_on_c, 8, 68, 0
10, 265857, Note_on_c, 8, 44, 0
10, 265857, Note_on_c, 8, 56, 0
10, 265858, Note_on_c, 8, 56, 100
10, 265954, Note_on_c, 8, 68, 100
10, 266049, Note_on_c, 8, 68, 0
10, 266049, Note_on_c, 8, 56, 0
10, 267586, Note_on_c, 8, 44, 100
10, 267681, Note_on_c, 8, 44, 0
10, 268834, Note_on_c, 8, 56, 100
10, 268929, Note_on_c, 8, 56, 0
10, 269314, Note_on_c, 8, 56, 100
10, 269409, Note_on_c, 8, 56, 0
10, 270562, Note_on_c, 8, 68, 100
10, 270657, Note_on_c, 8, 68, 0
10, 271042, Note_on_c, 8, 68, 100
10, 271137, Note_on_c, 8, 68, 0
10, 272516, Note_on_c, 8, 80, 100
10, 272614, Note_on_c, 8, 80, 0
10, 272666, Note_on_c, 8, 80, 100
10, 272714, Note_on_c, 8, 80, 0
10, 272816, Note_on_c, 8, 80, 100
10, 272868, Note_on_c, 8, 80, 0
10, 273246, Note_on_c, 8, 80, 100
10, 273567, Note_on_c, 8, 80, 0
10, 274363, Note_on_c, 8, 56, 100
10, 274587, Note_on_c, 8, 56, 0
10, 274592, Note_on_c, 8, 68, 100
10, 274816, Note_on_c, 8, 68, 0
10, 275757, Note_on_c, 8, 68, 100
10, 275869, Note_on_c, 8, 68, 0
10, 276002, Note_on_c, 8, 56, 100
10, 276488, Note_on_c, 8, 56, 0
10, 276488, End_track
11, 0, Start_track
11, 0, MIDI_port, 0
11, 0, Program_c, 10, 0
11, 0, Control_c, 10, 7, 100
11, 0, Control_c, 10, 10, 64
11, 0, Pitch_bend_c, 10, 7712
11, 336, Note_on_c, 10, 57, 100
11, 383, Note_on_c, 10, 57, 0
11, 624, Note_on_c, 10, 57, 100
11, 671, Note_on_c, 10, 57, 0
11, 720, Note_on_c, 10, 57, 100
11, 767, Note_on_c, 10, 57, 0
11, 864, Note_on_c, 10, 57, 100
11, 911, Note_on_c, 10, 57, 0
11, 1152, Note_on_c, 10, 69, 100
11, 1199, Note_on_c, 10, 69, 0
11, 1440, Note_on_c, 10, 69, 100
11, 1487, Note_on_c, 10, 69, 0
11, 1536, Note_on_c, 10, 69, 100
11, 1583, Note_on_c, 10, 69, 0
11, 1680, Note_on_c, 10, 69, 100
11, 1727, Note_on_c, 10, 69, 0
11, 2208, Note_on_c, 10, 69, 100
11, 2255, Note_on_c, 10, 69, 0
11, 2304, Note_on_c, 10, 69, 100
11, 2444, Note_on_c, 10, 69, 0
11, 2544, Note_on_c, 10, 57, 100
11, 2591, Note_on_c, 10, 57, 0
11, 4128, Note_on_c, 10, 69, 100
11, 4175, Note_on_c, 10, 69, 0
11, 4320, Note_on_c, 10, 69, 100
11, 4367, Note_on_c, 10, 69, 0
11, 4416, Note_on_c, 10, 69, 100
11, 4463, Note_on_c, 10, 69, 0
11, 5040, Note_on_c, 10, 57, 100
11, 5130, Note_on_c, 10, 57, 0
11, 5520, Note_on_c, 10, 57, 100
11, 5567, Note_on_c, 10, 57, 0
11, 5808, Note_on_c, 10, 57, 100
11, 5855, Note_on_c, 10, 57, 0
11, 6096, Note_on_c, 10, 69, 100
11, 6143, Note_on_c, 10, 69, 0
11, 6192, Note_on_c, 10, 69, 100
11, 6282, Note_on_c, 10, 69, 0
11, 6552, Note_on_c, 10, 69, 100
11, 6599, Note_on_c, 10, 69, 0
11, 6936, Note_on_c, 10, 69, 100
11, 7031, Note_on_c, 10, 69, 0
11, 7608, Note_on_c, 10, 69, 100
11, 7703, Note_on_c, 10, 69, 0
11, 8568, Note_on_c, 10, 57, 100
11, 8663, Note_on_c, 10, 57, 0
11, 8856, Note_on_c, 10, 57, 100
11, 8951, Note_on_c, 10, 57, 0
11, 9912, Note_on_c, 10, 57, 100
11, 10007, Note_on_c, 10, 57, 0
11, 10296, Note_on_c, 10, 45, 100
11, 10391, Note_on_c, 10, 45, 0
11, 12845, Note_on_c, 10, 57, 100
11, 12937, Note_on_c, 10, 57, 0
11, 13321, Note_on_c, 10, 69, 100
11, 13506, Note_on_c, 10, 69, 0
11, 13697, Note_on_c, 10, 57, 100
11, 13789, Note_on_c, 10, 57, 0
11, 14254, Note_on_c, 10, 69, 100
11, 14341, Note_on_c, 10, 69, 0
11, 15010, Note_on_c, 10, 57, 100
11, 15100, Note_on_c, 10, 57, 0
11, 16163, Note_on_c, 10, 69, 100
11, 16524, Note_on_c, 10, 69, 0
11, 16660, Note_on_c, 10, 57, 100
11, 16750, Note_on_c, 10, 57, 0
11, 18477, Note_on_c, 10, 69, 100
11, 18567, Note_on_c, 10, 69, 0
11, 19241, Note_on_c, 10, 69, 100
11, 19331, Note_on_c, 10, 69, 0
11, 19990, Note_on_c, 10, 57, 100
11, 20109, Note_on_c, 10, 57, 0
11, 20553, Note_on_c, 10, 45, 100
11, 20653, Note_on_c, 10, 45, 0
11, 21032, Note_on_c, 10, 69, 100
11, 21127, Note_on_c, 10, 69, 0
11, 21608, Note_on_c, 10, 57, 100
11, 21798, Note_on_c, 10, 57, 0
11, 22208, Note_on_c, 10, 57, 100
11, 22303, Note_on_c, 10, 57, 0
11, 22496, Note_on_c, 10, 57, 100
11, 22591, Note_on_c, 10, 57, 0
11, 22784, Note_on_c, 10, 57, 100
11, 22879, Note_on_c, 10, 57, 0
11, 23360, Note_on_c, 10, 57, 100
11, 23455, Note_on_c, 10, 57, 0
11, 23936, Note_on_c, 10, 45, 100
11, 24216, Note_on_c, 10, 45, 0
11, 24464, Note_on_c, 10, 57, 100
11, 24559, Note_on_c, 10, 57, 0
11, 24656, Note_on_c, 10, 57, 100
11, 24776, Note_on_c, 10, 57, 0
11, 24848, Note_on_c, 10, 57, 100
11, 25128, Note_on_c, 10, 57, 0
11, 29248, Note_on_c, 10, 81, 100
11, 29295, Note_on_c, 10, 81, 0
11, 29856, Note_on_c, 10, 69, 100
11, 29903, Note_on_c, 10, 69, 0
11, 30000, Note_on_c, 10, 69, 100
11, 30047, Note_on_c, 10, 69, 0
11, 35736, Note_on_c, 10, 57, 100
11, 36119, Note_on_c, 10, 57, 0
11, 36216, Note_on_c, 10, 69, 100
11, 36311, Note_on_c, 10, 69, 0
11, 38040, Note_on_c, 10, 57, 100
11, 38420, Note_on_c, 10, 57, 0
11, 45000, Note_on_c, 10, 69, 100
11, 45383, Note_on_c, 10, 69, 0
11, 45384, Note_on_c, 10, 69, 100
11, 45767, Note_on_c, 10, 69, 0
11, 46552, Note_on_c, 10, 69, 100
11, 46552, Note_on_c, 10, 57, 100
11, 46932, Note_on_c, 10, 57, 0
11, 46932, Note_on_c, 10, 69, 0
11, 46936, Note_on_c, 10, 69, 100
11, 47316, Note_on_c, 10, 69, 0
11, 48664, Note_on_c, 10, 81, 100
11, 48759, Note_on_c, 10, 81, 0
11, 52632, Note_on_c, 10, 81, 100
11, 52727, Note_on_c, 10, 81, 0
11, 52920, Note_on_c, 10, 81, 100
11, 53015, Note_on_c, 10, 81, 0
11, 53880, Note_on_c, 10, 57, 100
11, 54260, Note_on_c, 10, 57, 0
11, 54456, Note_on_c, 10, 69, 100
11, 54551, Note_on_c, 10, 69, 0
11, 54648, Note_on_c, 10, 69, 100
11, 54839, Note_on_c, 10, 69, 0
11, 57528, Note_on_c, 10, 57, 100
11, 57718, Note_on_c, 10, 57, 0
11, 58008, Note_on_c, 10, 69, 100
11, 58103, Note_on_c, 10, 69, 0
11, 58872, Note_on_c, 10, 69, 100
11, 59252, Note_on_c, 10, 69, 0
11, 59544, Note_on_c, 10, 69, 100
11, 59591, Note_on_c, 10, 69, 0
11, 59640, Note_on_c, 10, 69, 100
11, 59860, Note_on_c, 10, 69, 0
11, 61512, Note_on_c, 10, 69, 100
11, 61892, Note_on_c, 10, 69, 0
11, 63288, Note_on_c, 10, 57, 100
11, 63341, Note_on_c, 10, 57, 0
11, 63344, Note_on_c, 10, 57, 100
11, 63439, Note_on_c, 10, 57, 0
11, 63536, Note_on_c, 10, 69, 100
11, 63816, Note_on_c, 10, 69, 0
11, 63824, Note_on_c, 10, 57, 100
11, 63881, Note_on_c, 10, 69, 100
11, 63935, Note_on_c, 10, 57, 0
11, 63940, Note_on_c, 10, 69, 0
11, 64128, Note_on_c, 10, 57, 100
11, 64223, Note_on_c, 10, 57, 0
11, 66808, Note_on_c, 10, 69, 100
11, 66999, Note_on_c, 10, 69, 0
11, 67960, Note_on_c, 10, 69, 100
11, 68151, Note_on_c, 10, 69, 0
11, 68152, Note_on_c, 10, 69, 100
11, 68200, Note_on_c, 10, 69, 0
11, 68248, Note_on_c, 10, 69, 100
11, 68296, Note_on_c, 10, 69, 0
11, 68920, Note_on_c, 10, 69, 100
11, 69015, Note_on_c, 10, 69, 0
11, 69112, Note_on_c, 10, 69, 100
11, 69207, Note_on_c, 10, 69, 0
11, 69304, Note_on_c, 10, 81, 100
11, 69495, Note_on_c, 10, 81, 0
11, 72472, Note_on_c, 10, 69, 100
11, 72567, Note_on_c, 10, 69, 0
11, 72664, Note_on_c, 10, 69, 100
11, 72759, Note_on_c, 10, 69, 0
11, 73432, Note_on_c, 10, 81, 100
11, 73527, Note_on_c, 10, 81, 0
11, 73624, Note_on_c, 10, 81, 100
11, 73719, Note_on_c, 10, 81, 0
11, 73816, Note_on_c, 10, 81, 100
11, 73911, Note_on_c, 10, 81, 0
11, 74008, Note_on_c, 10, 69, 100
11, 74008, Note_on_c, 10, 81, 100
11, 74103, Note_on_c, 10, 81, 0
11, 74103, Note_on_c, 10, 69, 0
11, 74200, Note_on_c, 10, 69, 100
11, 74295, Note_on_c, 10, 69, 0
11, 74680, Note_on_c, 10, 69, 100
11, 74775, Note_on_c, 10, 69, 0
11, 74872, Note_on_c, 10, 69, 100
11, 74967, Note_on_c, 10, 69, 0
11, 75064, Note_on_c, 10, 81, 100
11, 75159, Note_on_c, 10, 81, 0
11, 75256, Note_on_c, 10, 81, 100
11, 75351, Note_on_c, 10, 81, 0
11, 75448, Note_on_c, 10, 57, 100
11, 75639, Note_on_c, 10, 57, 0
11, 75832, Note_on_c, 10, 57, 100
11, 76023, Note_on_c, 10, 57, 0
11, 77272, Note_on_c, 10, 57, 100
11, 77367, Note_on_c, 10, 57, 0
11, 77464, Note_on_c, 10, 57, 100
11, 77559, Note_on_c, 10, 57, 0
11, 77944, Note_on_c, 10, 69, 100
11, 78327, Note_on_c, 10, 69, 0
11, 78520, Note_on_c, 10, 45, 100
11, 78711, Note_on_c, 10, 45, 0
11, 78808, Note_on_c, 10, 57, 100
11, 78903, Note_on_c, 10, 57, 0
11, 79000, Note_on_c, 10, 57, 100
11, 79095, Note_on_c, 10, 57, 0
11, 79288, Note_on_c, 10, 57, 100
11, 79383, Note_on_c, 10, 57, 0
11, 79768, Note_on_c, 10, 69, 100
11, 79863, Note_on_c, 10, 69, 0
11, 79960, Note_on_c, 10, 69, 100
11, 80055, Note_on_c, 10, 69, 0
11, 80632, Note_on_c, 10, 69, 100
11, 80727, Note_on_c, 10, 69, 0
11, 80824, Note_on_c, 10, 57, 100
11, 81204, Note_on_c, 10, 57, 0
11, 81304, Note_on_c, 10, 57, 100
11, 81399, Note_on_c, 10, 57, 0
11, 82168, Note_on_c, 10, 57, 100
11, 82263, Note_on_c, 10, 57, 0
11, 82744, Note_on_c, 10, 69, 100
11, 82935, Note_on_c, 10, 69, 0
11, 83224, Note_on_c, 10, 45, 100
11, 83319, Note_on_c, 10, 45, 0
11, 83416, Note_on_c, 10, 45, 100
11, 83511, Note_on_c, 10, 45, 0
11, 83704, Note_on_c, 10, 69, 100
11, 83895, Note_on_c, 10, 69, 0
11, 84088, Note_on_c, 10, 57, 100
11, 84279, Note_on_c, 10, 57, 0
11, 84376, Note_on_c, 10, 45, 100
11, 84471, Note_on_c, 10, 45, 0
11, 84568, Note_on_c, 10, 45, 100
11, 84663, Note_on_c, 10, 45, 0
11, 84856, Note_on_c, 10, 45, 100
11, 84856, Note_on_c, 10, 69, 100
11, 84951, Note_on_c, 10, 45, 0
11, 85047, Note_on_c, 10, 69, 0
11, 85048, Note_on_c, 10, 69, 100
11, 85112, Note_on_c, 10, 69, 0
11, 85184, Note_on_c, 10, 69, 100
11, 85248, Note_on_c, 10, 69, 0
11, 85720, Note_on_c, 10, 69, 100
11, 85840, Note_on_c, 10, 69, 0
11, 86776, Note_on_c, 10, 69, 100
11, 86967, Note_on_c, 10, 69, 0
11, 86968, Note_on_c, 10, 69, 100
11, 87063, Note_on_c, 10, 69, 0
11, 87352, Note_on_c, 10, 69, 100
11, 87543, Note_on_c, 10, 69, 0
11, 88600, Note_on_c, 10, 69, 100
11, 88690, Note_on_c, 10, 69, 0
11, 88696, Note_on_c, 10, 69, 100
11, 88887, Note_on_c, 10, 69, 0
11, 89464, Note_on_c, 10, 69, 100
11, 89655, Note_on_c, 10, 69, 0
11, 90616, Note_on_c, 10, 81, 100
11, 90807, Note_on_c, 10, 81, 0
11, 91096, Note_on_c, 10, 69, 100
11, 91191, Note_on_c, 10, 69, 0
11, 91768, Note_on_c, 10, 69, 100
11, 92151, Note_on_c, 10, 69, 0
11, 92344, Note_on_c, 10, 69, 100
11, 92439, Note_on_c, 10, 69, 0
11, 92536, Note_on_c, 10, 69, 100
11, 92631, Note_on_c, 10, 69, 0
11, 92920, Note_on_c, 10, 69, 100
11, 93111, Note_on_c, 10, 69, 0
11, 93304, Note_on_c, 10, 57, 100
11, 93304, Note_on_c, 10, 69, 100
11, 93495, Note_on_c, 10, 69, 0
11, 93495, Note_on_c, 10, 57, 0
11, 93592, Note_on_c, 10, 69, 100
11, 93687, Note_on_c, 10, 69, 0
11, 93784, Note_on_c, 10, 69, 100
11, 93879, Note_on_c, 10, 69, 0
11, 94072, Note_on_c, 10, 57, 100
11, 94551, Note_on_c, 10, 57, 0
11, 94552, Note_on_c, 10, 69, 100
11, 94647, Note_on_c, 10, 69, 0
11, 94648, Note_on_c, 10, 45, 100
11, 94648, Note_on_c, 10, 57, 100
11, 94648, Note_on_c, 10, 69, 100
11, 94743, Note_on_c, 10, 57, 0
11, 95028, Note_on_c, 10, 45, 0
11, 95127, Note_on_c, 10, 69, 0
11, 95896, Note_on_c, 10, 45, 100
11, 95991, Note_on_c, 10, 45, 0
11, 96088, Note_on_c, 10, 45, 100
11, 96183, Note_on_c, 10, 45, 0
11, 96184, Note_on_c, 10, 69, 100
11, 96663, Note_on_c, 10, 69, 0
11, 96760, Note_on_c, 10, 69, 100
11, 96855, Note_on_c, 10, 69, 0
11, 97432, Note_on_c, 10, 45, 100
11, 97527, Note_on_c, 10, 45, 0
11, 97624, Note_on_c, 10, 45, 100
11, 97719, Note_on_c, 10, 45, 0
11, 98872, Note_on_c, 10, 57, 100
11, 98967, Note_on_c, 10, 57, 0
11, 99064, Note_on_c, 10, 57, 100
11, 99159, Note_on_c, 10, 57, 0
11, 99256, Note_on_c, 10, 81, 100
11, 99447, Note_on_c, 10, 81, 0
11, 101944, Note_on_c, 10, 69, 100
11, 102048, Note_on_c, 10, 69, 0
11, 102136, Note_on_c, 10, 69, 100
11, 102241, Note_on_c, 10, 69, 0
11, 102904, Note_on_c, 10, 57, 100
11, 102999, Note_on_c, 10, 57, 0
11, 103480, Note_on_c, 10, 57, 100
11, 103480, Note_on_c, 10, 69, 100
11, 103575, Note_on_c, 10, 69, 0
11, 103575, Note_on_c, 10, 57, 0
11, 103576, Note_on_c, 10, 57, 100
11, 103671, Note_on_c, 10, 57, 0
11, 103672, Note_on_c, 10, 69, 100
11, 103767, Note_on_c, 10, 69, 0
11, 103768, Note_on_c, 10, 57, 100
11, 103863, Note_on_c, 10, 57, 0
11, 103960, Note_on_c, 10, 57, 100
11, 104055, Note_on_c, 10, 57, 0
11, 104440, Note_on_c, 10, 69, 100
11, 104536, Note_on_c, 10, 57, 100
11, 104631, Note_on_c, 10, 57, 0
11, 104823, Note_on_c, 10, 69, 0
11, 105016, Note_on_c, 10, 69, 100
11, 105399, Note_on_c, 10, 69, 0
11, 106744, Note_on_c, 10, 69, 100
11, 106935, Note_on_c, 10, 69, 0
11, 107032, Note_on_c, 10, 57, 100
11, 107127, Note_on_c, 10, 57, 0
11, 107224, Note_on_c, 10, 57, 100
11, 107319, Note_on_c, 10, 57, 0
11, 107896, Note_on_c, 10, 69, 100
11, 108087, Note_on_c, 10, 69, 0
11, 108088, Note_on_c, 10, 69, 100
11, 108136, Note_on_c, 10, 69, 0
11, 108192, Note_on_c, 10, 69, 100
11, 108240, Note_on_c, 10, 69, 0
11, 108472, Note_on_c, 10, 57, 100
11, 108760, Note_on_c, 10, 69, 100
11, 108855, Note_on_c, 10, 69, 0
11, 108902, Note_on_c, 10, 57, 0
11, 109048, Note_on_c, 10, 57, 100
11, 109143, Note_on_c, 10, 57, 0
11, 109336, Note_on_c, 10, 69, 100
11, 109431, Note_on_c, 10, 69, 0
11, 111256, Note_on_c, 10, 69, 100
11, 111351, Note_on_c, 10, 69, 0
11, 111832, Note_on_c, 10, 69, 100
11, 111927, Note_on_c, 10, 69, 0
11, 116248, Note_on_c, 10, 81, 100
11, 116344, Note_on_c, 10, 69, 100
11, 116439, Note_on_c, 10, 81, 0
11, 116535, Note_on_c, 10, 69, 0
11, 116728, Note_on_c, 10, 45, 100
11, 116823, Note_on_c, 10, 45, 0
11, 117112, Note_on_c, 10, 57, 100
11, 117207, Note_on_c, 10, 57, 0
11, 117496, Note_on_c, 10, 69, 100
11, 117592, Note_on_c, 10, 57, 100
11, 117687, Note_on_c, 10, 57, 0
11, 117687, Note_on_c, 10, 69, 0
11, 118072, Note_on_c, 10, 69, 100
11, 118263, Note_on_c, 10, 69, 0
11, 118456, Note_on_c, 10, 69, 100
11, 118552, Note_on_c, 10, 57, 100
11, 118647, Note_on_c, 10, 57, 0
11, 118744, Note_on_c, 10, 57, 100
11, 118839, Note_on_c, 10, 57, 0
11, 118839, Note_on_c, 10, 69, 0
11, 119320, Note_on_c, 10, 69, 100
11, 119415, Note_on_c, 10, 69, 0
11, 119512, Note_on_c, 10, 69, 100
11, 119607, Note_on_c, 10, 69, 0
11, 119800, Note_on_c, 10, 45, 100
11, 119800, Note_on_c, 10, 69, 100
11, 119895, Note_on_c, 10, 69, 0
11, 119991, Note_on_c, 10, 45, 0
11, 120184, Note_on_c, 10, 69, 100
11, 120471, Note_on_c, 10, 69, 0
11, 120760, Note_on_c, 10, 57, 100
11, 120951, Note_on_c, 10, 57, 0
11, 121144, Note_on_c, 10, 69, 100
11, 121335, Note_on_c, 10, 69, 0
11, 121336, Note_on_c, 10, 57, 100
11, 121431, Note_on_c, 10, 57, 0
11, 121720, Note_on_c, 10, 57, 100
11, 121720, Note_on_c, 10, 69, 100
11, 121815, Note_on_c, 10, 69, 0
11, 121911, Note_on_c, 10, 57, 0
11, 122104, Note_on_c, 10, 69, 100
11, 122295, Note_on_c, 10, 69, 0
11, 122680, Note_on_c, 10, 57, 100
11, 122871, Note_on_c, 10, 57, 0
11, 123064, Note_on_c, 10, 69, 100
11, 123160, Note_on_c, 10, 57, 100
11, 123255, Note_on_c, 10, 57, 0
11, 123255, Note_on_c, 10, 69, 0
11, 123352, Note_on_c, 10, 57, 100
11, 123447, Note_on_c, 10, 57, 0
11, 124024, Note_on_c, 10, 57, 100
11, 124214, Note_on_c, 10, 57, 0
11, 124984, Note_on_c, 10, 57, 100
11, 125364, Note_on_c, 10, 57, 0
11, 126136, Note_on_c, 10, 69, 100
11, 126231, Note_on_c, 10, 69, 0
11, 126328, Note_on_c, 10, 69, 100
11, 126423, Note_on_c, 10, 69, 0
11, 135832, Note_on_c, 10, 69, 100
11, 135927, Note_on_c, 10, 69, 0
11, 136024, Note_on_c, 10, 69, 100
11, 136119, Note_on_c, 10, 69, 0
11, 136504, Note_on_c, 10, 57, 100
11, 136695, Note_on_c, 10, 57, 0
11, 137080, Note_on_c, 10, 81, 100
11, 137175, Note_on_c, 10, 81, 0
11, 138040, Note_on_c, 10, 69, 100
11, 138135, Note_on_c, 10, 69, 0
11, 138232, Note_on_c, 10, 69, 100
11, 138327, Note_on_c, 10, 69, 0
11, 138424, Note_on_c, 10, 81, 100
11, 138615, Note_on_c, 10, 81, 0
11, 142072, Note_on_c, 10, 69, 100
11, 142167, Note_on_c, 10, 69, 0
11, 142648, Note_on_c, 10, 69, 100
11, 142743, Note_on_c, 10, 69, 0
11, 143608, Note_on_c, 10, 69, 100
11, 143704, Note_on_c, 10, 81, 100
11, 143799, Note_on_c, 10, 81, 0
11, 143799, Note_on_c, 10, 69, 0
11, 145048, Note_on_c, 10, 81, 100
11, 145143, Note_on_c, 10, 81, 0
11, 145432, Note_on_c, 10, 69, 100
11, 145527, Note_on_c, 10, 69, 0
11, 146104, Note_on_c, 10, 69, 100
11, 146295, Note_on_c, 10, 69, 0
11, 146392, Note_on_c, 10, 57, 100
11, 146487, Note_on_c, 10, 57, 0
11, 146968, Note_on_c, 10, 69, 100
11, 147063, Note_on_c, 10, 69, 0
11, 147448, Note_on_c, 10, 45, 100
11, 147639, Note_on_c, 10, 45, 0
11, 147736, Note_on_c, 10, 69, 100
11, 147831, Note_on_c, 10, 69, 0
11, 147928, Note_on_c, 10, 69, 100
11, 148023, Note_on_c, 10, 69, 0
11, 148618, Note_on_c, 10, 57, 100
11, 148717, Note_on_c, 10, 57, 0
11, 149223, Note_on_c, 10, 69, 100
11, 149524, Note_on_c, 10, 69, 0
11, 149526, Note_on_c, 10, 69, 100
11, 149625, Note_on_c, 10, 69, 0
11, 150030, Note_on_c, 10, 69, 100
11, 150230, Note_on_c, 10, 69, 0
11, 150937, Note_on_c, 10, 45, 100
11, 151036, Note_on_c, 10, 45, 0
11, 151138, Note_on_c, 10, 45, 100
11, 151237, Note_on_c, 10, 45, 0
11, 151441, Note_on_c, 10, 69, 100
11, 151640, Note_on_c, 10, 69, 0
11, 151862, Note_on_c, 10, 81, 100
11, 151966, Note_on_c, 10, 81, 0
11, 152707, Note_on_c, 10, 69, 100
11, 152811, Note_on_c, 10, 69, 0
11, 152918, Note_on_c, 10, 81, 100
11, 153022, Note_on_c, 10, 81, 0
11, 153129, Note_on_c, 10, 81, 100
11, 153444, Note_on_c, 10, 81, 0
11, 153446, Note_on_c, 10, 81, 100
11, 153550, Note_on_c, 10, 81, 0
11, 153657, Note_on_c, 10, 69, 100
11, 153761, Note_on_c, 10, 69, 0
11, 156969, Note_on_c, 10, 57, 100
11, 157083, Note_on_c, 10, 57, 0
11, 157199, Note_on_c, 10, 69, 100
11, 157313, Note_on_c, 10, 69, 0
11, 161907, Note_on_c, 10, 69, 100
11, 162003, Note_on_c, 10, 69, 0
11, 162298, Note_on_c, 10, 69, 100
11, 162394, Note_on_c, 10, 69, 0
11, 162592, Note_on_c, 10, 69, 100
11, 162639, Note_on_c, 10, 69, 0
11, 162690, Note_on_c, 10, 45, 100
11, 162886, Note_on_c, 10, 57, 100
11, 162982, Note_on_c, 10, 45, 0
11, 163273, Note_on_c, 10, 57, 0
11, 163277, Note_on_c, 10, 69, 100
11, 163277, Note_on_c, 10, 57, 100
11, 163373, Note_on_c, 10, 69, 0
11, 163471, Note_on_c, 10, 57, 0
11, 163473, Note_on_c, 10, 57, 100
11, 163571, Note_on_c, 10, 69, 100
11, 163667, Note_on_c, 10, 69, 0
11, 163767, Note_on_c, 10, 69, 100
11, 163860, Note_on_c, 10, 57, 0
11, 163863, Note_on_c, 10, 69, 0
11, 163963, Note_on_c, 10, 69, 100
11, 164059, Note_on_c, 10, 69, 0
11, 164159, Note_on_c, 10, 69, 100
11, 164206, Note_on_c, 10, 69, 0
11, 164257, Note_on_c, 10, 69, 100
11, 164745, Note_on_c, 10, 69, 0
11, 164746, Note_on_c, 10, 69, 100
11, 164842, Note_on_c, 10, 69, 0
11, 166607, Note_on_c, 10, 69, 100
11, 166703, Note_on_c, 10, 69, 0
11, 166998, Note_on_c, 10, 69, 100
11, 167094, Note_on_c, 10, 69, 0
11, 171214, Note_on_c, 10, 57, 100
11, 171307, Note_on_c, 10, 57, 0
11, 171591, Note_on_c, 10, 57, 100
11, 171684, Note_on_c, 10, 57, 0
11, 171873, Note_on_c, 10, 57, 100
11, 171919, Note_on_c, 10, 57, 0
11, 171967, Note_on_c, 10, 57, 100
11, 172436, Note_on_c, 10, 57, 0
11, 172438, Note_on_c, 10, 57, 100
11, 172531, Note_on_c, 10, 57, 0
11, 177238, Note_on_c, 10, 45, 100
11, 177331, Note_on_c, 10, 45, 0
11, 177614, Note_on_c, 10, 45, 100
11, 177707, Note_on_c, 10, 45, 0
11, 177897, Note_on_c, 10, 45, 100
11, 177943, Note_on_c, 10, 45, 0
11, 177991, Note_on_c, 10, 45, 100
11, 178460, Note_on_c, 10, 45, 0
11, 178462, Note_on_c, 10, 45, 100
11, 178555, Note_on_c, 10, 45, 0
11, 179771, Note_on_c, 10, 69, 100
11, 179862, Note_on_c, 10, 69, 0
11, 180418, Note_on_c, 10, 69, 100
11, 180418, Note_on_c, 10, 57, 100
11, 180509, Note_on_c, 10, 57, 0
11, 180600, Note_on_c, 10, 69, 0
11, 180787, Note_on_c, 10, 45, 100
11, 180878, Note_on_c, 10, 45, 0
11, 184110, Note_on_c, 10, 69, 100
11, 184201, Note_on_c, 10, 69, 0
11, 184295, Note_on_c, 10, 69, 100
11, 184478, Note_on_c, 10, 69, 0
11, 184479, Note_on_c, 10, 69, 100
11, 184479, Note_on_c, 10, 57, 100
11, 184570, Note_on_c, 10, 57, 0
11, 184662, Note_on_c, 10, 69, 0
11, 184664, Note_on_c, 10, 69, 100
11, 184756, Note_on_c, 10, 57, 100
11, 184847, Note_on_c, 10, 57, 0
11, 184941, Note_on_c, 10, 57, 100
11, 185029, Note_on_c, 10, 69, 0
11, 185032, Note_on_c, 10, 57, 0
11, 185125, Note_on_c, 10, 57, 100
11, 185216, Note_on_c, 10, 57, 0
11, 185310, Note_on_c, 10, 57, 100
11, 185355, Note_on_c, 10, 57, 0
11, 185402, Note_on_c, 10, 57, 100
11, 185862, Note_on_c, 10, 57, 0
11, 185864, Note_on_c, 10, 57, 100
11, 185955, Note_on_c, 10, 57, 0
11, 187618, Note_on_c, 10, 57, 100
11, 187709, Note_on_c, 10, 57, 0
11, 187987, Note_on_c, 10, 57, 100
11, 188078, Note_on_c, 10, 57, 0
11, 190618, Note_on_c, 10, 69, 100
11, 190998, Note_on_c, 10, 69, 0
11, 191002, Note_on_c, 10, 69, 100
11, 191097, Note_on_c, 10, 69, 0
11, 191290, Note_on_c, 10, 69, 100
11, 191337, Note_on_c, 10, 69, 0
11, 192952, Note_on_c, 10, 45, 100
11, 192952, Note_on_c, 10, 57, 100
11, 193052, Note_on_c, 10, 69, 100
11, 193150, Note_on_c, 10, 69, 0
11, 193254, Note_on_c, 10, 69, 100
11, 193352, Note_on_c, 10, 69, 0
11, 193456, Note_on_c, 10, 69, 100
11, 193504, Note_on_c, 10, 69, 0
11, 193757, Note_on_c, 10, 57, 0
11, 193757, Note_on_c, 10, 45, 0
11, 193759, Note_on_c, 10, 57, 100
11, 193859, Note_on_c, 10, 69, 100
11, 193957, Note_on_c, 10, 69, 0
11, 194061, Note_on_c, 10, 69, 100
11, 194159, Note_on_c, 10, 69, 0
11, 194263, Note_on_c, 10, 69, 100
11, 194311, Note_on_c, 10, 69, 0
11, 194564, Note_on_c, 10, 57, 0
11, 194566, Note_on_c, 10, 57, 100
11, 194964, Note_on_c, 10, 57, 0
11, 195373, Note_on_c, 10, 57, 100
11, 195478, Note_on_c, 10, 69, 100
11, 195529, Note_on_c, 10, 69, 0
11, 195795, Note_on_c, 10, 57, 0
11, 195796, Note_on_c, 10, 57, 100
11, 195796, Note_on_c, 10, 45, 100
11, 195902, Note_on_c, 10, 69, 100
11, 195953, Note_on_c, 10, 69, 0
11, 196218, Note_on_c, 10, 45, 0
11, 196218, Note_on_c, 10, 57, 0
11, 196219, Note_on_c, 10, 57, 100
11, 196325, Note_on_c, 10, 69, 100
11, 196376, Note_on_c, 10, 69, 0
11, 196641, Note_on_c, 10, 57, 0
11, 196643, Note_on_c, 10, 57, 100
11, 196749, Note_on_c, 10, 69, 100
11, 196800, Note_on_c, 10, 69, 0
11, 196853, Note_on_c, 10, 57, 0
11, 199676, Note_on_c, 10, 57, 100
11, 199782, Note_on_c, 10, 57, 0
11, 200117, Note_on_c, 10, 57, 100
11, 200223, Note_on_c, 10, 57, 0
11, 200281, Note_on_c, 10, 57, 100
11, 200332, Note_on_c, 10, 57, 0
11, 200447, Note_on_c, 10, 57, 100
11, 200498, Note_on_c, 10, 57, 0
11, 200557, Note_on_c, 10, 57, 100
11, 200671, Note_on_c, 10, 57, 0
11, 200921, Note_on_c, 10, 57, 100
11, 201040, Note_on_c, 10, 57, 0
11, 205186, Note_on_c, 10, 69, 100
11, 205377, Note_on_c, 10, 69, 0
11, 205378, Note_on_c, 10, 69, 100
11, 205569, Note_on_c, 10, 69, 0
11, 205858, Note_on_c, 10, 69, 100
11, 205953, Note_on_c, 10, 69, 0
11, 206146, Note_on_c, 10, 69, 100
11, 206241, Note_on_c, 10, 69, 0
11, 206338, Note_on_c, 10, 57, 100
11, 206529, Note_on_c, 10, 57, 0
11, 206530, Note_on_c, 10, 69, 100
11, 206625, Note_on_c, 10, 69, 0
11, 208066, Note_on_c, 10, 57, 100
11, 208161, Note_on_c, 10, 57, 0
11, 208258, Note_on_c, 10, 57, 100
11, 208353, Note_on_c, 10, 57, 0
11, 209026, Note_on_c, 10, 57, 100
11, 209121, Note_on_c, 10, 57, 0
11, 209218, Note_on_c, 10, 57, 100
11, 209313, Note_on_c, 10, 57, 0
11, 209506, Note_on_c, 10, 57, 100
11, 209601, Note_on_c, 10, 57, 0
11, 209986, Note_on_c, 10, 69, 100
11, 210081, Note_on_c, 10, 69, 0
11, 210466, Note_on_c, 10, 57, 100
11, 210561, Note_on_c, 10, 57, 0
11, 210754, Note_on_c, 10, 57, 100
11, 210850, Note_on_c, 10, 69, 100
11, 210945, Note_on_c, 10, 69, 0
11, 211329, Note_on_c, 10, 57, 0
11, 213826, Note_on_c, 10, 57, 100
11, 214017, Note_on_c, 10, 57, 0
11, 214018, Note_on_c, 10, 57, 100
11, 214209, Note_on_c, 10, 57, 0
11, 214498, Note_on_c, 10, 69, 100
11, 214593, Note_on_c, 10, 69, 0
11, 214786, Note_on_c, 10, 69, 100
11, 214977, Note_on_c, 10, 69, 0
11, 214978, Note_on_c, 10, 69, 100
11, 215169, Note_on_c, 10, 69, 0
11, 215650, Note_on_c, 10, 69, 100
11, 215745, Note_on_c, 10, 69, 0
11, 215938, Note_on_c, 10, 69, 100
11, 216033, Note_on_c, 10, 69, 0
11, 216130, Note_on_c, 10, 69, 100
11, 216225, Note_on_c, 10, 69, 0
11, 216418, Note_on_c, 10, 69, 100
11, 216513, Note_on_c, 10, 69, 0
11, 217858, Note_on_c, 10, 69, 100
11, 217953, Note_on_c, 10, 69, 0
11, 218146, Note_on_c, 10, 69, 100
11, 218241, Note_on_c, 10, 69, 0
11, 219106, Note_on_c, 10, 81, 100
11, 219201, Note_on_c, 10, 81, 0
11, 219682, Note_on_c, 10, 69, 100
11, 219777, Note_on_c, 10, 69, 0
11, 220066, Note_on_c, 10, 69, 100
11, 220161, Note_on_c, 10, 69, 0
11, 220354, Note_on_c, 10, 81, 100
11, 220737, Note_on_c, 10, 81, 0
11, 221314, Note_on_c, 10, 57, 100
11, 221505, Note_on_c, 10, 57, 0
11, 221506, Note_on_c, 10, 57, 100
11, 221697, Note_on_c, 10, 57, 0
11, 222082, Note_on_c, 10, 57, 100
11, 222177, Note_on_c, 10, 57, 0
11, 222418, Note_on_c, 10, 57, 100
11, 222465, Note_on_c, 10, 57, 0
11, 223042, Note_on_c, 10, 69, 100
11, 223330, Note_on_c, 10, 57, 100
11, 223425, Note_on_c, 10, 57, 0
11, 223521, Note_on_c, 10, 69, 0
11, 224194, Note_on_c, 10, 57, 100
11, 224289, Note_on_c, 10, 57, 0
11, 224386, Note_on_c, 10, 69, 100
11, 224769, Note_on_c, 10, 69, 0
11, 225346, Note_on_c, 10, 69, 100
11, 225537, Note_on_c, 10, 69, 0
11, 225634, Note_on_c, 10, 57, 100
11, 225729, Note_on_c, 10, 57, 0
11, 226306, Note_on_c, 10, 57, 100
11, 226497, Note_on_c, 10, 57, 0
11, 227074, Note_on_c, 10, 57, 100
11, 227169, Note_on_c, 10, 57, 0
11, 227266, Note_on_c, 10, 45, 100
11, 227457, Note_on_c, 10, 45, 0
11, 227458, Note_on_c, 10, 57, 100
11, 227649, Note_on_c, 10, 57, 0
11, 227938, Note_on_c, 10, 69, 100
11, 228033, Note_on_c, 10, 69, 0
11, 228130, Note_on_c, 10, 69, 100
11, 228225, Note_on_c, 10, 69, 0
11, 228610, Note_on_c, 10, 69, 100
11, 228994, Note_on_c, 10, 57, 100
11, 229089, Note_on_c, 10, 69, 0
11, 229090, Note_on_c, 10, 69, 100
11, 229185, Note_on_c, 10, 69, 0
11, 229185, Note_on_c, 10, 57, 0
11, 229666, Note_on_c, 10, 69, 100
11, 229761, Note_on_c, 10, 69, 0
11, 229762, Note_on_c, 10, 57, 100
11, 229857, Note_on_c, 10, 57, 0
11, 229954, Note_on_c, 10, 69, 100
11, 230145, Note_on_c, 10, 69, 0
11, 231682, Note_on_c, 10, 57, 100
11, 231777, Note_on_c, 10, 57, 0
11, 231874, Note_on_c, 10, 57, 100
11, 231969, Note_on_c, 10, 57, 0
11, 232066, Note_on_c, 10, 69, 100
11, 232161, Note_on_c, 10, 69, 0
11, 232162, Note_on_c, 10, 57, 100
11, 232257, Note_on_c, 10, 57, 0
11, 234178, Note_on_c, 10, 69, 100
11, 234178, Note_on_c, 10, 57, 100
11, 234273, Note_on_c, 10, 57, 0
11, 234561, Note_on_c, 10, 69, 0
11, 234658, Note_on_c, 10, 57, 100
11, 234753, Note_on_c, 10, 57, 0
11, 234946, Note_on_c, 10, 57, 100
11, 235041, Note_on_c, 10, 57, 0
11, 235138, Note_on_c, 10, 69, 100
11, 235138, Note_on_c, 10, 57, 100
11, 235233, Note_on_c, 10, 57, 0
11, 235329, Note_on_c, 10, 69, 0
11, 235426, Note_on_c, 10, 57, 100
11, 235521, Note_on_c, 10, 57, 0
11, 235618, Note_on_c, 10, 57, 100
11, 235713, Note_on_c, 10, 57, 0
11, 236098, Note_on_c, 10, 69, 100
11, 236289, Note_on_c, 10, 69, 0
11, 237442, Note_on_c, 10, 69, 100
11, 237633, Note_on_c, 10, 69, 0
11, 238210, Note_on_c, 10, 45, 100
11, 238305, Note_on_c, 10, 45, 0
11, 238402, Note_on_c, 10, 69, 100
11, 238593, Note_on_c, 10, 69, 0
11, 238690, Note_on_c, 10, 69, 100
11, 238785, Note_on_c, 10, 69, 0
11, 240130, Note_on_c, 10, 57, 100
11, 240321, Note_on_c, 10, 57, 0
11, 240322, Note_on_c, 10, 57, 100
11, 240513, Note_on_c, 10, 57, 0
11, 240514, Note_on_c, 10, 69, 100
11, 240514, Note_on_c, 10, 57, 100
11, 240609, Note_on_c, 10, 69, 0
11, 240705, Note_on_c, 10, 57, 0
11, 241282, Note_on_c, 10, 69, 100
11, 241474, Note_on_c, 10, 57, 100
11, 241570, Note_on_c, 10, 81, 100
11, 241665, Note_on_c, 10, 81, 0
11, 241665, Note_on_c, 10, 57, 0
11, 241857, Note_on_c, 10, 69, 0
11, 242626, Note_on_c, 10, 69, 100
11, 242721, Note_on_c, 10, 69, 0
11, 243298, Note_on_c, 10, 57, 100
11, 243393, Note_on_c, 10, 57, 0
11, 243490, Note_on_c, 10, 57, 100
11, 243585, Note_on_c, 10, 57, 0
11, 243778, Note_on_c, 10, 69, 100
11, 243969, Note_on_c, 10, 69, 0
11, 244066, Note_on_c, 10, 69, 100
11, 244161, Note_on_c, 10, 69, 0
11, 244162, Note_on_c, 10, 69, 100
11, 244162, Note_on_c, 10, 45, 100
11, 244353, Note_on_c, 10, 69, 0
11, 244542, Note_on_c, 10, 45, 0
11, 244546, Note_on_c, 10, 69, 100
11, 244641, Note_on_c, 10, 69, 0
11, 244930, Note_on_c, 10, 69, 100
11, 245026, Note_on_c, 10, 57, 100
11, 245121, Note_on_c, 10, 57, 0
11, 245121, Note_on_c, 10, 69, 0
11, 245314, Note_on_c, 10, 57, 100
11, 245506, Note_on_c, 10, 69, 100
11, 245601, Note_on_c, 10, 57, 0
11, 245889, Note_on_c, 10, 69, 0
11, 246466, Note_on_c, 10, 57, 100
11, 246561, Note_on_c, 10, 57, 0
11, 246658, Note_on_c, 10, 57, 100
11, 246753, Note_on_c, 10, 57, 0
11, 246754, Note_on_c, 10, 69, 100
11, 246849, Note_on_c, 10, 69, 0
11, 247042, Note_on_c, 10, 69, 100
11, 247329, Note_on_c, 10, 69, 0
11, 247330, Note_on_c, 10, 57, 100
11, 247425, Note_on_c, 10, 57, 0
11, 247618, Note_on_c, 10, 57, 100
11, 247713, Note_on_c, 10, 57, 0
11, 247810, Note_on_c, 10, 57, 100
11, 247905, Note_on_c, 10, 57, 0
11, 248290, Note_on_c, 10, 69, 100
11, 248385, Note_on_c, 10, 69, 0
11, 250690, Note_on_c, 10, 57, 100
11, 250881, Note_on_c, 10, 57, 0
11, 250882, Note_on_c, 10, 57, 100
11, 251073, Note_on_c, 10, 57, 0
11, 252418, Note_on_c, 10, 57, 100
11, 252513, Note_on_c, 10, 57, 0
11, 252610, Note_on_c, 10, 57, 100
11, 252706, Note_on_c, 10, 69, 100
11, 252801, Note_on_c, 10, 57, 0
11, 252986, Note_on_c, 10, 69, 0
11, 255874, Note_on_c, 10, 57, 100
11, 255969, Note_on_c, 10, 57, 0
11, 256162, Note_on_c, 10, 57, 100
11, 256257, Note_on_c, 10, 57, 0
11, 256834, Note_on_c, 10, 69, 100
11, 256929, Note_on_c, 10, 69, 0
11, 257026, Note_on_c, 10, 69, 100
11, 257121, Note_on_c, 10, 69, 0
11, 257218, Note_on_c, 10, 57, 100
11, 257313, Note_on_c, 10, 57, 0
11, 257314, Note_on_c, 10, 69, 100
11, 257409, Note_on_c, 10, 69, 0
11, 257698, Note_on_c, 10, 57, 100
11, 257793, Note_on_c, 10, 57, 0
11, 257890, Note_on_c, 10, 69, 100
11, 257985, Note_on_c, 10, 69, 0
11, 258082, Note_on_c, 10, 69, 100
11, 258177, Note_on_c, 10, 69, 0
11, 258562, Note_on_c, 10, 57, 100
11, 258657, Note_on_c, 10, 57, 0
11, 258754, Note_on_c, 10, 57, 100
11, 258849, Note_on_c, 10, 57, 0
11, 258946, Note_on_c, 10, 69, 100
11, 259041, Note_on_c, 10, 69, 0
11, 259042, Note_on_c, 10, 57, 100
11, 259137, Note_on_c, 10, 57, 0
11, 259810, Note_on_c, 10, 57, 100
11, 259905, Note_on_c, 10, 57, 0
11, 260002, Note_on_c, 10, 69, 100
11, 260097, Note_on_c, 10, 69, 0
11, 260674, Note_on_c, 10, 45, 100
11, 260769, Note_on_c, 10, 45, 0
11, 260866, Note_on_c, 10, 69, 100
11, 261057, Note_on_c, 10, 69, 0
11, 262306, Note_on_c, 10, 69, 100
11, 262401, Note_on_c, 10, 69, 0
11, 263458, Note_on_c, 10, 69, 100
11, 263458, Note_on_c, 10, 57, 100
11, 263553, Note_on_c, 10, 57, 0
11, 263553, Note_on_c, 10, 69, 0
11, 264322, Note_on_c, 10, 57, 100
11, 264322, Note_on_c, 10, 45, 100
11, 264610, Note_on_c, 10, 69, 100
11, 264705, Note_on_c, 10, 69, 0
11, 264802, Note_on_c, 10, 69, 100
11, 264897, Note_on_c, 10, 69, 0
11, 264897, Note_on_c, 10, 45, 0
11, 264897, Note_on_c, 10, 57, 0
11, 264898, Note_on_c, 10, 45, 100
11, 265473, Note_on_c, 10, 45, 0
11, 266050, Note_on_c, 10, 69, 100
11, 266434, Note_on_c, 10, 57, 100
11, 266529, Note_on_c, 10, 57, 0
11, 267010, Note_on_c, 10, 45, 100
11, 267105, Note_on_c, 10, 45, 0
11, 267200, Note_on_c, 10, 69, 0
11, 267490, Note_on_c, 10, 45, 100
11, 267585, Note_on_c, 10, 45, 0
11, 267778, Note_on_c, 10, 45, 100
11, 267873, Note_on_c, 10, 45, 0
11, 267970, Note_on_c, 10, 45, 100
11, 268065, Note_on_c, 10, 45, 0
11, 268450, Note_on_c, 10, 45, 100
11, 268545, Note_on_c, 10, 45, 0
11, 269218, Note_on_c, 10, 57, 100
11, 269313, Note_on_c, 10, 57, 0
11, 269506, Note_on_c, 10, 57, 100
11, 269601, Note_on_c, 10, 57, 0
11, 269698, Note_on_c, 10, 57, 100
11, 269793, Note_on_c, 10, 57, 0
11, 270178, Note_on_c, 10, 57, 100
11, 270273, Note_on_c, 10, 57, 0
11, 270946, Note_on_c, 10, 69, 100
11, 271041, Note_on_c, 10, 69, 0
11, 271234, Note_on_c, 10, 69, 100
11, 271329, Note_on_c, 10, 69, 0
11, 271426, Note_on_c, 10, 69, 100
11, 271521, Note_on_c, 10, 69, 0
11, 271917, Note_on_c, 10, 69, 100
11, 272015, Note_on_c, 10, 69, 0
11, 272716, Note_on_c, 10, 81, 100
11, 272814, Note_on_c, 10, 81, 0
11, 272869, Note_on_c, 10, 81, 100
11, 272921, Note_on_c, 10, 81, 0
11, 273139, Note_on_c, 10, 81, 100
11, 273245, Note_on_c, 10, 81, 0
11, 275639, Note_on_c, 10, 69, 100
11, 275751, Note_on_c, 10, 69, 0
11, 275875, Note_on_c, 10, 57, 100
11, 275993, Note_on_c, 10, 57, 0
11, 275993, End_track
12, 0, Start_track
12, 0, MIDI_port, 0
12, 0, Program_c, 11, 0
12, 0, Control_c, 11, 7, 100
12, 0, Control_c, 11, 10, 64
12, 0, Pitch_bend_c, 11, 8032
12, 3840, Note_on_c, 11, 70, 100
12, 3887, Note_on_c, 11, 70, 0
12, 25584, Note_on_c, 11, 58, 100
12, 26064, Note_on_c, 11, 58, 0
12, 26160, Note_on_c, 11, 58, 100
12, 26255, Note_on_c, 11, 58, 0
12, 27072, Note_on_c, 11, 58, 100
12, 27167, Note_on_c, 11, 58, 0
12, 27376, Note_on_c, 11, 58, 100
12, 27466, Note_on_c, 11, 58, 0
12, 27664, Note_on_c, 11, 58, 100
12, 27834, Note_on_c, 11, 58, 0
12, 33792, Note_on_c, 11, 58, 100
12, 34175, Note_on_c, 11, 58, 0
12, 34572, Note_on_c, 11, 46, 100
12, 34955, Note_on_c, 11, 46, 0
12, 37656, Note_on_c, 11, 58, 100
12, 38036, Note_on_c, 11, 58, 0
12, 39192, Note_on_c, 11, 46, 100
12, 39287, Note_on_c, 11, 46, 0
12, 39396, Note_on_c, 11, 46, 100
12, 39491, Note_on_c, 11, 46, 0
12, 39600, Note_on_c, 11, 70, 100
12, 40175, Note_on_c, 11, 70, 0
12, 40560, Note_on_c, 11, 70, 100
12, 40750, Note_on_c, 11, 70, 0
12, 41136, Note_on_c, 11, 70, 100
12, 41711, Note_on_c, 11, 70, 0
12, 42696, Note_on_c, 11, 58, 100
12, 43079, Note_on_c, 11, 58, 0
12, 44616, Note_on_c, 11, 70, 100
12, 44999, Note_on_c, 11, 70, 0
12, 51576, Note_on_c, 11, 58, 100
12, 52343, Note_on_c, 11, 58, 0
12, 55800, Note_on_c, 11, 58, 100
12, 55991, Note_on_c, 11, 58, 0
12, 56568, Note_on_c, 11, 58, 100
12, 56948, Note_on_c, 11, 58, 0
12, 60408, Note_on_c, 11, 58, 100
12, 60791, Note_on_c, 11, 58, 0
12, 70168, Note_on_c, 11, 58, 100
12, 70263, Note_on_c, 11, 58, 0
12, 70360, Note_on_c, 11, 58, 100
12, 70455, Note_on_c, 11, 58, 0
12, 70648, Note_on_c, 11, 70, 100
12, 70839, Note_on_c, 11, 70, 0
12, 76792, Note_on_c, 11, 46, 100
12, 76983, Note_on_c, 11, 46, 0
12, 81496, Note_on_c, 11, 58, 100
12, 81591, Note_on_c, 11, 58, 0
12, 82936, Note_on_c, 11, 70, 100
12, 83127, Note_on_c, 11, 70, 0
12, 86008, Note_on_c, 11, 70, 100
12, 86199, Note_on_c, 11, 70, 0
12, 89944, Note_on_c, 11, 82, 100
12, 90231, Note_on_c, 11, 82, 0
12, 100600, Note_on_c, 11, 70, 100
12, 100791, Note_on_c, 11, 70, 0
12, 101368, Note_on_c, 11, 58, 100
12, 101463, Note_on_c, 11, 58, 0
12, 112504, Note_on_c, 11, 70, 100
12, 112599, Note_on_c, 11, 70, 0
12, 112696, Note_on_c, 11, 70, 100
12, 113056, Note_on_c, 11, 70, 0
12, 113848, Note_on_c, 11, 70, 100
12, 114039, Note_on_c, 11, 70, 0
12, 114232, Note_on_c, 11, 46, 100
12, 114423, Note_on_c, 11, 46, 0
12, 114616, Note_on_c, 11, 70, 100
12, 114807, Note_on_c, 11, 70, 0
12, 115192, Note_on_c, 11, 70, 100
12, 115383, Note_on_c, 11, 70, 0
12, 126520, Note_on_c, 11, 58, 100
12, 126710, Note_on_c, 11, 58, 0
12, 126712, Note_on_c, 11, 70, 100
12, 126903, Note_on_c, 11, 70, 0
12, 127000, Note_on_c, 11, 46, 100
12, 127095, Note_on_c, 11, 46, 0
12, 127192, Note_on_c, 11, 46, 100
12, 127287, Note_on_c, 11, 46, 0
12, 127480, Note_on_c, 11, 70, 100
12, 127671, Note_on_c, 11, 70, 0
12, 128440, Note_on_c, 11, 46, 100
12, 128631, Note_on_c, 11, 46, 0
12, 128824, Note_on_c, 11, 70, 100
12, 128919, Note_on_c, 11, 70, 0
12, 129016, Note_on_c, 11, 70, 100
12, 129111, Note_on_c, 11, 70, 0
12, 129592, Note_on_c, 11, 70, 100
12, 129975, Note_on_c, 11, 70, 0
12, 130168, Note_on_c, 11, 70, 100
12, 130359, Note_on_c, 11, 70, 0
12, 130552, Note_on_c, 11, 46, 100
12, 130743, Note_on_c, 11, 46, 0
12, 130936, Note_on_c, 11, 46, 100
12, 131127, Note_on_c, 11, 46, 0
12, 131608, Note_on_c, 11, 58, 100
12, 131703, Note_on_c, 11, 58, 0
12, 131704, Note_on_c, 11, 70, 100
12, 131800, Note_on_c, 11, 58, 100
12, 131894, Note_on_c, 11, 70, 0
12, 131895, Note_on_c, 11, 58, 0
12, 132088, Note_on_c, 11, 58, 100
12, 132184, Note_on_c, 11, 82, 100
12, 132279, Note_on_c, 11, 82, 0
12, 132279, Note_on_c, 11, 58, 0
12, 132472, Note_on_c, 11, 82, 100
12, 132663, Note_on_c, 11, 82, 0
12, 133432, Note_on_c, 11, 46, 100
12, 133623, Note_on_c, 11, 46, 0
12, 133816, Note_on_c, 11, 46, 100
12, 133912, Note_on_c, 11, 82, 100
12, 134007, Note_on_c, 11, 82, 0
12, 134007, Note_on_c, 11, 46, 0
12, 134200, Note_on_c, 11, 46, 100
12, 134391, Note_on_c, 11, 46, 0
12, 134392, Note_on_c, 11, 46, 100
12, 134392, Note_on_c, 11, 82, 100
12, 134487, Note_on_c, 11, 82, 0
12, 134583, Note_on_c, 11, 46, 0
12, 135352, Note_on_c, 11, 70, 100
12, 135544, Note_on_c, 11, 46, 100
12, 135544, Note_on_c, 11, 82, 100
12, 135639, Note_on_c, 11, 82, 0
12, 135735, Note_on_c, 11, 46, 0
12, 135831, Note_on_c, 11, 70, 0
12, 139768, Note_on_c, 11, 70, 100
12, 139959, Note_on_c, 11, 70, 0
12, 141208, Note_on_c, 11, 70, 100
12, 141303, Note_on_c, 11, 70, 0
12, 141400, Note_on_c, 11, 70, 100
12, 141495, Note_on_c, 11, 70, 0
12, 143320, Note_on_c, 11, 70, 100
12, 143415, Note_on_c, 11, 70, 0
12, 150231, Note_on_c, 11, 70, 100
12, 150431, Note_on_c, 11, 70, 0
12, 154194, Note_on_c, 11, 70, 100
12, 155186, Note_on_c, 11, 70, 0
12, 155298, Note_on_c, 11, 70, 100
12, 155516, Note_on_c, 11, 70, 0
12, 156181, Note_on_c, 11, 70, 100
12, 156400, Note_on_c, 11, 70, 0
12, 157775, Note_on_c, 11, 70, 100
12, 159155, Note_on_c, 11, 70, 0
12, 159654, Note_on_c, 11, 58, 100
12, 159750, Note_on_c, 11, 58, 0
12, 159948, Note_on_c, 11, 70, 100
12, 160142, Note_on_c, 11, 70, 0
12, 160144, Note_on_c, 11, 70, 100
12, 160235, Note_on_c, 11, 70, 0
12, 160242, Note_on_c, 11, 70, 100
12, 160338, Note_on_c, 11, 70, 0
12, 161074, Note_on_c, 11, 70, 100
12, 161121, Note_on_c, 11, 70, 0
12, 165774, Note_on_c, 11, 70, 100
12, 165821, Note_on_c, 11, 70, 0
12, 167390, Note_on_c, 11, 70, 100
12, 167670, Note_on_c, 11, 70, 0
12, 167774, Note_on_c, 11, 58, 100
12, 167965, Note_on_c, 11, 58, 0
12, 167966, Note_on_c, 11, 58, 100
12, 168157, Note_on_c, 11, 58, 0
12, 169214, Note_on_c, 11, 58, 100
12, 169309, Note_on_c, 11, 58, 0
12, 173756, Note_on_c, 11, 70, 100
12, 173849, Note_on_c, 11, 70, 0
12, 174979, Note_on_c, 11, 70, 100
12, 175253, Note_on_c, 11, 70, 0
12, 175356, Note_on_c, 11, 70, 100
12, 175543, Note_on_c, 11, 70, 0
12, 175544, Note_on_c, 11, 70, 100
12, 175731, Note_on_c, 11, 70, 0
12, 176438, Note_on_c, 11, 46, 100
12, 176484, Note_on_c, 11, 46, 0
12, 180971, Note_on_c, 11, 70, 100
12, 181246, Note_on_c, 11, 70, 0
12, 181341, Note_on_c, 11, 70, 100
12, 181524, Note_on_c, 11, 70, 0
12, 181525, Note_on_c, 11, 70, 100
12, 181708, Note_on_c, 11, 70, 0
12, 182725, Note_on_c, 11, 70, 100
12, 182816, Note_on_c, 11, 70, 0
12, 186833, Note_on_c, 11, 58, 100
12, 186878, Note_on_c, 11, 58, 0
12, 188344, Note_on_c, 11, 70, 100
12, 188437, Note_on_c, 11, 70, 0
12, 188720, Note_on_c, 11, 58, 100
12, 188907, Note_on_c, 11, 58, 0
12, 188908, Note_on_c, 11, 58, 100
12, 189095, Note_on_c, 11, 58, 0
12, 189802, Note_on_c, 11, 70, 100
12, 189848, Note_on_c, 11, 70, 0
12, 191679, Note_on_c, 11, 58, 100
12, 191775, Note_on_c, 11, 58, 0
12, 197066, Note_on_c, 11, 58, 100
12, 197379, Note_on_c, 11, 58, 0
12, 197497, Note_on_c, 11, 46, 100
12, 197710, Note_on_c, 11, 46, 0
12, 197714, Note_on_c, 11, 46, 100
12, 197927, Note_on_c, 11, 46, 0
12, 198740, Note_on_c, 11, 58, 100
12, 198791, Note_on_c, 11, 58, 0
12, 201710, Note_on_c, 11, 58, 100
12, 202285, Note_on_c, 11, 58, 0
12, 204994, Note_on_c, 11, 70, 100
12, 205185, Note_on_c, 11, 70, 0
12, 207586, Note_on_c, 11, 70, 100
12, 207681, Note_on_c, 11, 70, 0
12, 211426, Note_on_c, 11, 58, 100
12, 211521, Note_on_c, 11, 58, 0
12, 211810, Note_on_c, 11, 58, 100
12, 211905, Note_on_c, 11, 58, 0
12, 213634, Note_on_c, 11, 58, 100
12, 213825, Note_on_c, 11, 58, 0
12, 217378, Note_on_c, 11, 70, 100
12, 217473, Note_on_c, 11, 70, 0
12, 221122, Note_on_c, 11, 58, 100
12, 221313, Note_on_c, 11, 58, 0
12, 225154, Note_on_c, 11, 70, 100
12, 225345, Note_on_c, 11, 70, 0
12, 226594, Note_on_c, 11, 70, 100
12, 226689, Note_on_c, 11, 70, 0
12, 230914, Note_on_c, 11, 70, 100
12, 231105, Note_on_c, 11, 70, 0
12, 231202, Note_on_c, 11, 58, 100
12, 231297, Note_on_c, 11, 58, 0
12, 237250, Note_on_c, 11, 70, 100
12, 237441, Note_on_c, 11, 70, 0
12, 239362, Note_on_c, 11, 58, 100
12, 239457, Note_on_c, 11, 58, 0
12, 248770, Note_on_c, 11, 70, 100
12, 248961, Note_on_c, 11, 70, 0
12, 249538, Note_on_c, 11, 70, 100
12, 249633, Note_on_c, 11, 70, 0
12, 249730, Note_on_c, 11, 70, 100
12, 249921, Note_on_c, 11, 70, 0
12, 250498, Note_on_c, 11, 58, 100
12, 250689, Note_on_c, 11, 58, 0
12, 251650, Note_on_c, 11, 70, 100
12, 251938, Note_on_c, 11, 58, 100
12, 252033, Note_on_c, 11, 58, 0
12, 252129, Note_on_c, 11, 70, 0
12, 253570, Note_on_c, 11, 70, 100
12, 253665, Note_on_c, 11, 70, 0
12, 253762, Note_on_c, 11, 70, 100
12, 254145, Note_on_c, 11, 70, 0
12, 254722, Note_on_c, 11, 70, 100
12, 255009, Note_on_c, 11, 70, 0
12, 255010, Note_on_c, 11, 70, 100
12, 255105, Note_on_c, 11, 70, 0
12, 262978, Note_on_c, 11, 70, 100
12, 263169, Note_on_c, 11, 70, 0
12, 273678, Note_on_c, 11, 70, 100
12, 273902, Note_on_c, 11, 70, 0
12, 274249, Note_on_c, 11, 58, 100
12, 274359, Note_on_c, 11, 58, 0
12, 274820, Note_on_c, 11, 70, 100
12, 275271, Note_on_c, 11, 70, 0
12, 275404, Note_on_c, 11, 58, 100
12, 275516, Note_on_c, 11, 58, 0
12, 276563, Note_on_c, 11, 70, 100
12, 278027, Note_on_c, 11, 70, 0
12, 278027, End_track
13, 0, Start_track
13, 0, MIDI_port, 0
13, 0, Program_c, 12, 0
13, 0, Control_c, 12, 7, 100
13, 0, Control_c, 12, 10, 64
13, 0, Pitch_bend_c, 12, 7872
13, 384, Note_on_c, 12, 59, 100
13, 431, Note_on_c, 12, 59, 0
13, 576, Note_on_c, 12, 59, 100
13, 623, Note_on_c, 12, 59, 0
13, 1200, Note_on_c, 12, 71, 100
13, 1247, Note_on_c, 12, 71, 0
13, 1392, Note_on_c, 12, 71, 100
13, 1439, Note_on_c, 12, 71, 0
13, 2448, Note_on_c, 12, 59, 100
13, 2495, Note_on_c, 12, 59, 0
13, 3792, Note_on_c, 12, 71, 100
13, 3839, Note_on_c, 12, 71, 0
13, 3888, Note_on_c, 12, 71, 100
13, 4018, Note_on_c, 12, 71, 0
13, 4080, Note_on_c, 12, 71, 100
13, 4127, Note_on_c, 12, 71, 0
13, 4368, Note_on_c, 12, 71, 100
13, 4415, Note_on_c, 12, 71, 0
13, 4992, Note_on_c, 12, 59, 100
13, 5039, Note_on_c, 12, 59, 0
13, 5856, Note_on_c, 12, 59, 100
13, 5903, Note_on_c, 12, 59, 0
13, 6600, Note_on_c, 12, 71, 100
13, 6647, Note_on_c, 12, 71, 0
13, 7032, Note_on_c, 12, 71, 100
13, 7127, Note_on_c, 12, 71, 0
13, 8088, Note_on_c, 12, 59, 100
13, 8183, Note_on_c, 12, 59, 0
13, 8280, Note_on_c, 12, 59, 100
13, 8375, Note_on_c, 12, 59, 0
13, 9144, Note_on_c, 12, 59, 100
13, 9424, Note_on_c, 12, 59, 0
13, 12938, Note_on_c, 12, 59, 100
13, 13030, Note_on_c, 12, 59, 0
13, 15889, Note_on_c, 12, 71, 100
13, 15979, Note_on_c, 12, 71, 0
13, 16752, Note_on_c, 12, 59, 100
13, 16842, Note_on_c, 12, 59, 0
13, 17157, Note_on_c, 12, 83, 100
13, 17247, Note_on_c, 12, 83, 0
13, 18203, Note_on_c, 12, 71, 100
13, 18293, Note_on_c, 12, 71, 0
13, 18966, Note_on_c, 12, 71, 100
13, 19056, Note_on_c, 12, 71, 0
13, 19714, Note_on_c, 12, 59, 100
13, 19804, Note_on_c, 12, 59, 0
13, 20278, Note_on_c, 12, 47, 100
13, 20368, Note_on_c, 12, 47, 0
13, 21920, Note_on_c, 12, 59, 100
13, 22015, Note_on_c, 12, 59, 0
13, 23648, Note_on_c, 12, 47, 100
13, 23743, Note_on_c, 12, 47, 0
13, 25464, Note_on_c, 12, 59, 100
13, 25584, Note_on_c, 12, 59, 0
13, 26256, Note_on_c, 12, 59, 100
13, 26351, Note_on_c, 12, 59, 0
13, 26576, Note_on_c, 12, 59, 100
13, 26671, Note_on_c, 12, 59, 0
13, 26768, Note_on_c, 12, 59, 100
13, 26863, Note_on_c, 12, 59, 0
13, 29808, Note_on_c, 12, 71, 100
13, 29855, Note_on_c, 12, 71, 0
13, 33408, Note_on_c, 12, 59, 100
13, 33791, Note_on_c, 12, 59, 0
13, 34176, Note_on_c, 12, 59, 100
13, 34540, Note_on_c, 12, 47, 100
13, 34592, Note_on_c, 12, 59, 0
13, 34593, Note_on_c, 12, 47, 0
13, 34968, Note_on_c, 12, 47, 100
13, 35351, Note_on_c, 12, 47, 0
13, 35352, Note_on_c, 12, 59, 100
13, 35732, Note_on_c, 12, 59, 0
13, 36120, Note_on_c, 12, 47, 100
13, 36408, Note_on_c, 12, 71, 100
13, 36500, Note_on_c, 12, 47, 0
13, 36503, Note_on_c, 12, 71, 0
13, 36504, Note_on_c, 12, 59, 100
13, 36887, Note_on_c, 12, 59, 0
13, 36888, Note_on_c, 12, 59, 100
13, 37268, Note_on_c, 12, 59, 0
13, 37272, Note_on_c, 12, 59, 100
13, 37655, Note_on_c, 12, 59, 0
13, 39000, Note_on_c, 12, 47, 100
13, 39191, Note_on_c, 12, 47, 0
13, 39342, Note_on_c, 12, 47, 100
13, 39395, Note_on_c, 12, 47, 0
13, 39492, Note_on_c, 12, 47, 100
13, 39545, Note_on_c, 12, 47, 0
13, 40176, Note_on_c, 12, 71, 100
13, 40556, Note_on_c, 12, 71, 0
13, 40752, Note_on_c, 12, 71, 100
13, 41032, Note_on_c, 12, 71, 0
13, 42312, Note_on_c, 12, 59, 100
13, 42695, Note_on_c, 12, 59, 0
13, 43080, Note_on_c, 12, 59, 100
13, 43464, Note_on_c, 12, 71, 100
13, 43847, Note_on_c, 12, 71, 0
13, 43847, Note_on_c, 12, 59, 0
13, 43848, Note_on_c, 12, 59, 100
13, 43848, Note_on_c, 12, 71, 100
13, 44228, Note_on_c, 12, 71, 0
13, 44228, Note_on_c, 12, 59, 0
13, 44232, Note_on_c, 12, 71, 100
13, 44615, Note_on_c, 12, 71, 0
13, 45384, Note_on_c, 12, 71, 100
13, 45767, Note_on_c, 12, 71, 0
13, 50424, Note_on_c, 12, 59, 100
13, 50616, Note_on_c, 12, 71, 100
13, 50804, Note_on_c, 12, 59, 0
13, 50807, Note_on_c, 12, 71, 0
13, 50808, Note_on_c, 12, 59, 100
13, 51188, Note_on_c, 12, 59, 0
13, 51192, Note_on_c, 12, 59, 100
13, 51575, Note_on_c, 12, 59, 0
13, 52344, Note_on_c, 12, 71, 100
13, 52344, Note_on_c, 12, 59, 100
13, 52919, Note_on_c, 12, 59, 0
13, 53016, Note_on_c, 12, 83, 100
13, 53111, Note_on_c, 12, 83, 0
13, 53874, Note_on_c, 12, 71, 0
13, 54264, Note_on_c, 12, 59, 100
13, 54360, Note_on_c, 12, 71, 100
13, 54455, Note_on_c, 12, 71, 0
13, 54644, Note_on_c, 12, 59, 0
13, 54840, Note_on_c, 12, 71, 100
13, 54935, Note_on_c, 12, 71, 0
13, 55416, Note_on_c, 12, 59, 100
13, 55608, Note_on_c, 12, 71, 100
13, 55796, Note_on_c, 12, 59, 0
13, 55799, Note_on_c, 12, 71, 0
13, 55992, Note_on_c, 12, 59, 100
13, 56087, Note_on_c, 12, 59, 0
13, 56184, Note_on_c, 12, 59, 100
13, 56375, Note_on_c, 12, 59, 0
13, 56952, Note_on_c, 12, 59, 100
13, 57335, Note_on_c, 12, 59, 0
13, 57336, Note_on_c, 12, 59, 100
13, 57336, Note_on_c, 12, 47, 100
13, 57527, Note_on_c, 12, 59, 0
13, 57720, Note_on_c, 12, 71, 100
13, 57911, Note_on_c, 12, 71, 0
13, 58103, Note_on_c, 12, 47, 0
13, 58680, Note_on_c, 12, 71, 100
13, 58870, Note_on_c, 12, 71, 0
13, 59256, Note_on_c, 12, 47, 100
13, 59448, Note_on_c, 12, 71, 100
13, 59543, Note_on_c, 12, 71, 0
13, 59636, Note_on_c, 12, 47, 0
13, 59928, Note_on_c, 12, 71, 100
13, 60023, Note_on_c, 12, 71, 0
13, 60024, Note_on_c, 12, 59, 100
13, 60404, Note_on_c, 12, 59, 0
13, 63232, Note_on_c, 12, 59, 100
13, 63285, Note_on_c, 12, 59, 0
13, 63936, Note_on_c, 12, 71, 100
13, 64336, Note_on_c, 12, 71, 0
13, 66616, Note_on_c, 12, 71, 100
13, 66807, Note_on_c, 12, 71, 0
13, 72760, Note_on_c, 12, 71, 100
13, 72855, Note_on_c, 12, 71, 0
13, 72952, Note_on_c, 12, 71, 100
13, 73047, Note_on_c, 12, 71, 0
13, 73528, Note_on_c, 12, 83, 100
13, 73623, Note_on_c, 12, 83, 0
13, 73720, Note_on_c, 12, 83, 100
13, 73815, Note_on_c, 12, 83, 0
13, 73912, Note_on_c, 12, 71, 100
13, 74007, Note_on_c, 12, 71, 0
13, 74104, Note_on_c, 12, 71, 100
13, 74199, Note_on_c, 12, 71, 0
13, 74488, Note_on_c, 12, 71, 100
13, 74583, Note_on_c, 12, 71, 0
13, 75640, Note_on_c, 12, 59, 100
13, 75831, Note_on_c, 12, 59, 0
13, 77560, Note_on_c, 12, 71, 100
13, 77943, Note_on_c, 12, 71, 0
13, 78136, Note_on_c, 12, 47, 100
13, 78327, Note_on_c, 12, 47, 0
13, 78424, Note_on_c, 12, 59, 100
13, 78519, Note_on_c, 12, 59, 0
13, 78616, Note_on_c, 12, 59, 100
13, 78711, Note_on_c, 12, 59, 0
13, 78904, Note_on_c, 12, 59, 100
13, 78999, Note_on_c, 12, 59, 0
13, 79096, Note_on_c, 12, 59, 100
13, 79191, Note_on_c, 12, 59, 0
13, 79480, Note_on_c, 12, 59, 100
13, 79575, Note_on_c, 12, 59, 0
13, 80056, Note_on_c, 12, 71, 100
13, 80476, Note_on_c, 12, 71, 0
13, 80536, Note_on_c, 12, 71, 100
13, 80631, Note_on_c, 12, 71, 0
13, 80728, Note_on_c, 12, 71, 100
13, 80823, Note_on_c, 12, 71, 0
13, 81400, Note_on_c, 12, 71, 100
13, 81495, Note_on_c, 12, 71, 0
13, 81592, Note_on_c, 12, 59, 100
13, 81972, Note_on_c, 12, 59, 0
13, 82072, Note_on_c, 12, 59, 100
13, 82167, Note_on_c, 12, 59, 0
13, 82264, Note_on_c, 12, 59, 100
13, 82359, Note_on_c, 12, 59, 0
13, 82552, Note_on_c, 12, 71, 100
13, 82647, Note_on_c, 12, 71, 0
13, 83128, Note_on_c, 12, 47, 100
13, 83128, Note_on_c, 12, 71, 100
13, 83223, Note_on_c, 12, 47, 0
13, 83319, Note_on_c, 12, 71, 0
13, 83320, Note_on_c, 12, 47, 100
13, 83415, Note_on_c, 12, 47, 0
13, 83512, Note_on_c, 12, 71, 100
13, 83703, Note_on_c, 12, 71, 0
13, 83896, Note_on_c, 12, 59, 100
13, 84087, Note_on_c, 12, 59, 0
13, 84664, Note_on_c, 12, 47, 100
13, 84759, Note_on_c, 12, 47, 0
13, 84952, Note_on_c, 12, 47, 100
13, 85047, Note_on_c, 12, 47, 0
13, 85912, Note_on_c, 12, 71, 100
13, 86032, Note_on_c, 12, 71, 0
13, 86200, Note_on_c, 12, 47, 100
13, 86200, Note_on_c, 12, 71, 100
13, 86390, Note_on_c, 12, 71, 0
13, 86391, Note_on_c, 12, 47, 0
13, 86392, Note_on_c, 12, 59, 100
13, 86392, Note_on_c, 12, 71, 100
13, 86583, Note_on_c, 12, 59, 0
13, 86775, Note_on_c, 12, 71, 0
13, 87256, Note_on_c, 12, 71, 100
13, 87376, Note_on_c, 12, 71, 0
13, 87544, Note_on_c, 12, 71, 100
13, 87735, Note_on_c, 12, 71, 0
13, 88312, Note_on_c, 12, 71, 100
13, 88503, Note_on_c, 12, 71, 0
13, 88504, Note_on_c, 12, 71, 100
13, 88599, Note_on_c, 12, 71, 0
13, 88888, Note_on_c, 12, 71, 100
13, 89079, Note_on_c, 12, 71, 0
13, 89656, Note_on_c, 12, 71, 100
13, 89847, Note_on_c, 12, 71, 0
13, 90040, Note_on_c, 12, 59, 100
13, 90231, Note_on_c, 12, 59, 0
13, 90232, Note_on_c, 12, 71, 100
13, 90232, Note_on_c, 12, 83, 100
13, 90423, Note_on_c, 12, 71, 0
13, 90615, Note_on_c, 12, 83, 0
13, 91384, Note_on_c, 12, 71, 100
13, 91767, Note_on_c, 12, 71, 0
13, 91960, Note_on_c, 12, 59, 100
13, 92150, Note_on_c, 12, 59, 0
13, 93112, Note_on_c, 12, 59, 100
13, 93303, Note_on_c, 12, 59, 0
13, 93496, Note_on_c, 12, 71, 100
13, 93591, Note_on_c, 12, 71, 0
13, 93688, Note_on_c, 12, 71, 100
13, 93783, Note_on_c, 12, 71, 0
13, 94168, Note_on_c, 12, 71, 100
13, 94263, Note_on_c, 12, 71, 0
13, 94312, Note_on_c, 12, 71, 100
13, 94360, Note_on_c, 12, 71, 0
13, 94408, Note_on_c, 12, 71, 100
13, 94548, Note_on_c, 12, 71, 0
13, 94840, Note_on_c, 12, 71, 100
13, 94935, Note_on_c, 12, 71, 0
13, 95992, Note_on_c, 12, 71, 100
13, 96087, Note_on_c, 12, 71, 0
13, 96664, Note_on_c, 12, 71, 100
13, 96759, Note_on_c, 12, 71, 0
13, 96856, Note_on_c, 12, 71, 100
13, 96951, Note_on_c, 12, 71, 0
13, 97528, Note_on_c, 12, 71, 100
13, 97623, Note_on_c, 12, 71, 0
13, 102136, Note_on_c, 12, 59, 100
13, 102231, Note_on_c, 12, 59, 0
13, 102712, Note_on_c, 12, 59, 100
13, 102807, Note_on_c, 12, 59, 0
13, 102808, Note_on_c, 12, 59, 100
13, 102903, Note_on_c, 12, 59, 0
13, 103000, Note_on_c, 12, 59, 100
13, 103095, Note_on_c, 12, 59, 0
13, 103192, Note_on_c, 12, 59, 100
13, 103287, Note_on_c, 12, 59, 0
13, 103384, Note_on_c, 12, 59, 100
13, 103479, Note_on_c, 12, 59, 0
13, 103864, Note_on_c, 12, 59, 100
13, 103959, Note_on_c, 12, 59, 0
13, 104056, Note_on_c, 12, 71, 100
13, 104439, Note_on_c, 12, 71, 0
13, 104632, Note_on_c, 12, 71, 100
13, 105015, Note_on_c, 12, 71, 0
13, 105400, Note_on_c, 12, 47, 100
13, 105495, Note_on_c, 12, 47, 0
13, 105688, Note_on_c, 12, 47, 100
13, 105783, Note_on_c, 12, 47, 0
13, 105880, Note_on_c, 12, 47, 100
13, 105975, Note_on_c, 12, 47, 0
13, 106552, Note_on_c, 12, 71, 100
13, 106743, Note_on_c, 12, 71, 0
13, 106936, Note_on_c, 12, 59, 100
13, 107031, Note_on_c, 12, 59, 0
13, 107128, Note_on_c, 12, 59, 100
13, 107223, Note_on_c, 12, 59, 0
13, 108856, Note_on_c, 12, 71, 100
13, 109144, Note_on_c, 12, 59, 100
13, 109239, Note_on_c, 12, 59, 0
13, 109296, Note_on_c, 12, 71, 0
13, 109432, Note_on_c, 12, 71, 100
13, 109527, Note_on_c, 12, 71, 0
13, 109720, Note_on_c, 12, 59, 100
13, 109815, Note_on_c, 12, 59, 0
13, 110872, Note_on_c, 12, 71, 100
13, 110967, Note_on_c, 12, 71, 0
13, 111448, Note_on_c, 12, 71, 100
13, 111543, Note_on_c, 12, 71, 0
13, 112120, Note_on_c, 12, 71, 100
13, 112407, Note_on_c, 12, 71, 0
13, 112408, Note_on_c, 12, 71, 100
13, 112503, Note_on_c, 12, 71, 0
13, 113080, Note_on_c, 12, 59, 100
13, 113080, Note_on_c, 12, 71, 100
13, 113175, Note_on_c, 12, 59, 0
13, 113270, Note_on_c, 12, 71, 0
13, 113656, Note_on_c, 12, 71, 100
13, 113847, Note_on_c, 12, 71, 0
13, 114040, Note_on_c, 12, 47, 100
13, 114040, Note_on_c, 12, 71, 100
13, 114231, Note_on_c, 12, 71, 0
13, 114231, Note_on_c, 12, 47, 0
13, 114808, Note_on_c, 12, 47, 100
13, 114808, Note_on_c, 12, 71, 100
13, 114999, Note_on_c, 12, 47, 0
13, 115191, Note_on_c, 12, 71, 0
13, 115384, Note_on_c, 12, 47, 100
13, 115384, Note_on_c, 12, 71, 100
13, 115479, Note_on_c, 12, 71, 0
13, 115576, Note_on_c, 12, 71, 100
13, 115664, Note_on_c, 12, 47, 0
13, 115767, Note_on_c, 12, 71, 0
13, 115864, Note_on_c, 12, 47, 100
13, 115959, Note_on_c, 12, 47, 0
13, 115960, Note_on_c, 12, 71, 100
13, 116056, Note_on_c, 12, 47, 100
13, 116151, Note_on_c, 12, 47, 0
13, 116151, Note_on_c, 12, 71, 0
13, 117016, Note_on_c, 12, 59, 100
13, 117111, Note_on_c, 12, 59, 0
13, 117208, Note_on_c, 12, 59, 100
13, 117303, Note_on_c, 12, 59, 0
13, 117304, Note_on_c, 12, 71, 100
13, 117400, Note_on_c, 12, 59, 100
13, 117495, Note_on_c, 12, 59, 0
13, 117495, Note_on_c, 12, 71, 0
13, 117880, Note_on_c, 12, 71, 100
13, 118071, Note_on_c, 12, 71, 0
13, 118264, Note_on_c, 12, 71, 100
13, 118455, Note_on_c, 12, 71, 0
13, 118840, Note_on_c, 12, 59, 100
13, 118935, Note_on_c, 12, 59, 0
13, 119608, Note_on_c, 12, 47, 100
13, 119799, Note_on_c, 12, 47, 0
13, 119992, Note_on_c, 12, 71, 100
13, 120183, Note_on_c, 12, 71, 0
13, 120184, Note_on_c, 12, 59, 100
13, 120279, Note_on_c, 12, 59, 0
13, 120568, Note_on_c, 12, 59, 100
13, 120568, Note_on_c, 12, 71, 100
13, 120663, Note_on_c, 12, 71, 0
13, 120759, Note_on_c, 12, 59, 0
13, 120952, Note_on_c, 12, 71, 100
13, 121143, Note_on_c, 12, 71, 0
13, 121528, Note_on_c, 12, 59, 100
13, 121719, Note_on_c, 12, 59, 0
13, 121912, Note_on_c, 12, 71, 100
13, 122008, Note_on_c, 12, 59, 100
13, 122103, Note_on_c, 12, 59, 0
13, 122103, Note_on_c, 12, 71, 0
13, 122200, Note_on_c, 12, 59, 100
13, 122295, Note_on_c, 12, 59, 0
13, 122872, Note_on_c, 12, 59, 100
13, 123062, Note_on_c, 12, 59, 0
13, 124792, Note_on_c, 12, 59, 100
13, 124983, Note_on_c, 12, 59, 0
13, 126904, Note_on_c, 12, 47, 100
13, 126999, Note_on_c, 12, 47, 0
13, 127096, Note_on_c, 12, 47, 100
13, 127191, Note_on_c, 12, 47, 0
13, 127288, Note_on_c, 12, 71, 100
13, 127479, Note_on_c, 12, 71, 0
13, 127864, Note_on_c, 12, 71, 100
13, 128055, Note_on_c, 12, 71, 0
13, 128248, Note_on_c, 12, 47, 100
13, 128439, Note_on_c, 12, 47, 0
13, 128728, Note_on_c, 12, 71, 100
13, 128823, Note_on_c, 12, 71, 0
13, 128920, Note_on_c, 12, 71, 100
13, 129015, Note_on_c, 12, 71, 0
13, 129112, Note_on_c, 12, 71, 100
13, 129207, Note_on_c, 12, 71, 0
13, 129976, Note_on_c, 12, 71, 100
13, 130167, Note_on_c, 12, 71, 0
13, 130360, Note_on_c, 12, 71, 100
13, 130551, Note_on_c, 12, 71, 0
13, 130744, Note_on_c, 12, 47, 100
13, 130935, Note_on_c, 12, 47, 0
13, 130936, Note_on_c, 12, 71, 100
13, 131416, Note_on_c, 12, 71, 0
13, 131704, Note_on_c, 12, 59, 100
13, 131799, Note_on_c, 12, 59, 0
13, 131896, Note_on_c, 12, 59, 100
13, 132087, Note_on_c, 12, 59, 0
13, 132280, Note_on_c, 12, 83, 100
13, 132471, Note_on_c, 12, 83, 0
13, 134296, Note_on_c, 12, 83, 100
13, 134391, Note_on_c, 12, 83, 0
13, 134968, Note_on_c, 12, 71, 100
13, 135063, Note_on_c, 12, 71, 0
13, 135256, Note_on_c, 12, 71, 100
13, 135351, Note_on_c, 12, 71, 0
13, 135928, Note_on_c, 12, 71, 100
13, 136023, Note_on_c, 12, 71, 0
13, 141496, Note_on_c, 12, 71, 100
13, 141876, Note_on_c, 12, 71, 0
13, 142168, Note_on_c, 12, 71, 100
13, 142263, Note_on_c, 12, 71, 0
13, 142456, Note_on_c, 12, 71, 100
13, 142647, Note_on_c, 12, 71, 0
13, 143416, Note_on_c, 12, 71, 100
13, 143607, Note_on_c, 12, 71, 0
13, 143800, Note_on_c, 12, 83, 100
13, 144950, Note_on_c, 12, 83, 0
13, 145144, Note_on_c, 12, 71, 100
13, 145431, Note_on_c, 12, 71, 0
13, 146008, Note_on_c, 12, 71, 100
13, 146103, Note_on_c, 12, 71, 0
13, 146296, Note_on_c, 12, 59, 100
13, 146391, Note_on_c, 12, 59, 0
13, 147064, Note_on_c, 12, 71, 100
13, 147159, Note_on_c, 12, 71, 0
13, 147256, Note_on_c, 12, 47, 100
13, 147447, Note_on_c, 12, 47, 0
13, 147640, Note_on_c, 12, 71, 100
13, 147735, Note_on_c, 12, 71, 0
13, 147832, Note_on_c, 12, 71, 100
13, 147927, Note_on_c, 12, 71, 0
13, 148719, Note_on_c, 12, 59, 100
13, 148818, Note_on_c, 12, 59, 0
13, 150433, Note_on_c, 12, 71, 100
13, 150633, Note_on_c, 12, 71, 0
13, 150836, Note_on_c, 12, 47, 100
13, 150935, Note_on_c, 12, 47, 0
13, 151038, Note_on_c, 12, 47, 100
13, 151137, Note_on_c, 12, 47, 0
13, 153763, Note_on_c, 12, 71, 100
13, 154071, Note_on_c, 12, 71, 0
13, 154084, Note_on_c, 12, 71, 100
13, 154193, Note_on_c, 12, 71, 0
13, 154967, Note_on_c, 12, 71, 100
13, 155076, Note_on_c, 12, 71, 0
13, 155740, Note_on_c, 12, 71, 100
13, 155850, Note_on_c, 12, 59, 100
13, 155959, Note_on_c, 12, 59, 0
13, 156180, Note_on_c, 12, 71, 0
13, 156402, Note_on_c, 12, 71, 100
13, 156732, Note_on_c, 12, 71, 0
13, 156738, Note_on_c, 12, 47, 100
13, 156852, Note_on_c, 12, 47, 0
13, 157314, Note_on_c, 12, 71, 100
13, 157773, Note_on_c, 12, 71, 0
13, 160340, Note_on_c, 12, 71, 100
13, 160436, Note_on_c, 12, 71, 0
13, 160732, Note_on_c, 12, 71, 100
13, 160828, Note_on_c, 12, 71, 0
13, 161025, Note_on_c, 12, 71, 100
13, 161072, Note_on_c, 12, 71, 0
13, 161123, Note_on_c, 12, 71, 100
13, 161611, Note_on_c, 12, 71, 0
13, 161613, Note_on_c, 12, 71, 100
13, 161709, Note_on_c, 12, 71, 0
13, 162984, Note_on_c, 12, 47, 100
13, 163080, Note_on_c, 12, 47, 0
13, 164257, Note_on_c, 12, 47, 100
13, 164453, Note_on_c, 12, 59, 100
13, 164549, Note_on_c, 12, 47, 0
13, 164840, Note_on_c, 12, 59, 0
13, 164844, Note_on_c, 12, 71, 100
13, 164844, Note_on_c, 12, 59, 100
13, 164940, Note_on_c, 12, 71, 0
13, 165038, Note_on_c, 12, 59, 0
13, 165040, Note_on_c, 12, 59, 100
13, 165138, Note_on_c, 12, 71, 100
13, 165234, Note_on_c, 12, 71, 0
13, 165334, Note_on_c, 12, 71, 100
13, 165427, Note_on_c, 12, 59, 0
13, 165430, Note_on_c, 12, 71, 0
13, 165530, Note_on_c, 12, 71, 100
13, 165626, Note_on_c, 12, 71, 0
13, 165725, Note_on_c, 12, 71, 100
13, 165772, Note_on_c, 12, 71, 0
13, 165823, Note_on_c, 12, 71, 100
13, 166311, Note_on_c, 12, 71, 0
13, 166313, Note_on_c, 12, 71, 100
13, 166409, Note_on_c, 12, 71, 0
13, 167678, Note_on_c, 12, 71, 100
13, 167773, Note_on_c, 12, 71, 0
13, 168158, Note_on_c, 12, 71, 100
13, 168158, Note_on_c, 12, 59, 100
13, 168350, Note_on_c, 12, 83, 100
13, 168445, Note_on_c, 12, 83, 0
13, 168538, Note_on_c, 12, 59, 0
13, 168538, Note_on_c, 12, 71, 0
13, 168734, Note_on_c, 12, 71, 100
13, 168829, Note_on_c, 12, 71, 0
13, 170414, Note_on_c, 12, 59, 100
13, 170461, Note_on_c, 12, 59, 0
13, 170462, Note_on_c, 12, 59, 100
13, 170926, Note_on_c, 12, 59, 0
13, 170932, Note_on_c, 12, 59, 100
13, 171025, Note_on_c, 12, 59, 0
13, 172156, Note_on_c, 12, 71, 100
13, 172249, Note_on_c, 12, 71, 0
13, 172344, Note_on_c, 12, 71, 100
13, 172531, Note_on_c, 12, 71, 0
13, 172532, Note_on_c, 12, 59, 100
13, 172532, Note_on_c, 12, 71, 100
13, 172625, Note_on_c, 12, 59, 0
13, 172719, Note_on_c, 12, 71, 0
13, 172720, Note_on_c, 12, 71, 100
13, 172814, Note_on_c, 12, 59, 100
13, 172907, Note_on_c, 12, 59, 0
13, 173003, Note_on_c, 12, 59, 100
13, 173092, Note_on_c, 12, 71, 0
13, 173096, Note_on_c, 12, 59, 0
13, 173191, Note_on_c, 12, 59, 100
13, 173284, Note_on_c, 12, 59, 0
13, 175262, Note_on_c, 12, 71, 100
13, 175355, Note_on_c, 12, 71, 0
13, 175920, Note_on_c, 12, 59, 100
13, 175920, Note_on_c, 12, 71, 100
13, 176013, Note_on_c, 12, 59, 0
13, 176106, Note_on_c, 12, 71, 0
13, 176297, Note_on_c, 12, 47, 100
13, 176390, Note_on_c, 12, 47, 0
13, 176485, Note_on_c, 12, 47, 100
13, 176948, Note_on_c, 12, 47, 0
13, 176956, Note_on_c, 12, 47, 100
13, 177049, Note_on_c, 12, 47, 0
13, 178179, Note_on_c, 12, 59, 100
13, 178272, Note_on_c, 12, 59, 0
13, 178367, Note_on_c, 12, 59, 100
13, 178554, Note_on_c, 12, 59, 0
13, 178556, Note_on_c, 12, 47, 100
13, 178556, Note_on_c, 12, 59, 100
13, 178649, Note_on_c, 12, 47, 0
13, 178743, Note_on_c, 12, 59, 0
13, 178744, Note_on_c, 12, 59, 100
13, 178838, Note_on_c, 12, 47, 100
13, 178931, Note_on_c, 12, 47, 0
13, 179026, Note_on_c, 12, 47, 100
13, 179116, Note_on_c, 12, 59, 0
13, 179119, Note_on_c, 12, 47, 0
13, 179214, Note_on_c, 12, 47, 100
13, 179307, Note_on_c, 12, 47, 0
13, 179587, Note_on_c, 12, 59, 100
13, 179678, Note_on_c, 12, 59, 0
13, 179864, Note_on_c, 12, 71, 100
13, 180047, Note_on_c, 12, 71, 0
13, 180048, Note_on_c, 12, 71, 100
13, 180141, Note_on_c, 12, 47, 100
13, 180231, Note_on_c, 12, 71, 0
13, 180232, Note_on_c, 12, 47, 0
13, 180233, Note_on_c, 12, 71, 100
13, 180416, Note_on_c, 12, 71, 0
13, 181248, Note_on_c, 12, 71, 100
13, 181339, Note_on_c, 12, 71, 0
13, 181895, Note_on_c, 12, 71, 100
13, 181895, Note_on_c, 12, 59, 100
13, 181986, Note_on_c, 12, 59, 0
13, 182077, Note_on_c, 12, 71, 0
13, 182264, Note_on_c, 12, 47, 100
13, 182355, Note_on_c, 12, 47, 0
13, 184202, Note_on_c, 12, 71, 100
13, 184293, Note_on_c, 12, 71, 0
13, 185587, Note_on_c, 12, 71, 100
13, 185678, Note_on_c, 12, 71, 0
13, 185771, Note_on_c, 12, 71, 100
13, 185954, Note_on_c, 12, 71, 0
13, 185956, Note_on_c, 12, 71, 100
13, 185956, Note_on_c, 12, 59, 100
13, 186047, Note_on_c, 12, 59, 0
13, 186139, Note_on_c, 12, 71, 0
13, 186141, Note_on_c, 12, 71, 100
13, 186233, Note_on_c, 12, 59, 100
13, 186324, Note_on_c, 12, 59, 0
13, 186418, Note_on_c, 12, 59, 100
13, 186506, Note_on_c, 12, 71, 0
13, 186509, Note_on_c, 12, 59, 0
13, 186602, Note_on_c, 12, 59, 100
13, 186693, Note_on_c, 12, 59, 0
13, 186787, Note_on_c, 12, 59, 100
13, 186832, Note_on_c, 12, 59, 0
13, 186879, Note_on_c, 12, 59, 100
13, 187339, Note_on_c, 12, 59, 0
13, 187341, Note_on_c, 12, 59, 100
13, 187432, Note_on_c, 12, 59, 0
13, 188626, Note_on_c, 12, 71, 100
13, 188719, Note_on_c, 12, 71, 0
13, 189096, Note_on_c, 12, 59, 100
13, 189096, Note_on_c, 12, 71, 100
13, 189285, Note_on_c, 12, 83, 100
13, 189378, Note_on_c, 12, 83, 0
13, 189468, Note_on_c, 12, 71, 0
13, 189468, Note_on_c, 12, 59, 0
13, 189661, Note_on_c, 12, 71, 100
13, 189754, Note_on_c, 12, 71, 0
13, 189850, Note_on_c, 12, 71, 100
13, 190040, Note_on_c, 12, 71, 0
13, 190330, Note_on_c, 12, 71, 100
13, 190425, Note_on_c, 12, 71, 0
13, 191386, Note_on_c, 12, 47, 100
13, 191678, Note_on_c, 12, 47, 0
13, 191777, Note_on_c, 12, 59, 100
13, 191971, Note_on_c, 12, 59, 0
13, 191973, Note_on_c, 12, 71, 100
13, 191973, Note_on_c, 12, 59, 100
13, 192069, Note_on_c, 12, 71, 0
13, 192167, Note_on_c, 12, 59, 0
13, 192169, Note_on_c, 12, 59, 100
13, 192556, Note_on_c, 12, 59, 0
13, 193759, Note_on_c, 12, 47, 100
13, 194564, Note_on_c, 12, 47, 0
13, 194767, Note_on_c, 12, 71, 100
13, 194865, Note_on_c, 12, 71, 0
13, 195171, Note_on_c, 12, 59, 100
13, 195370, Note_on_c, 12, 59, 0
13, 196219, Note_on_c, 12, 47, 100
13, 196641, Note_on_c, 12, 47, 0
13, 197389, Note_on_c, 12, 59, 100
13, 197494, Note_on_c, 12, 59, 0
13, 197930, Note_on_c, 12, 47, 100
13, 197930, Note_on_c, 12, 59, 100
13, 198146, Note_on_c, 12, 71, 100
13, 198251, Note_on_c, 12, 71, 0
13, 198356, Note_on_c, 12, 59, 0
13, 198356, Note_on_c, 12, 47, 0
13, 198578, Note_on_c, 12, 59, 100
13, 198683, Note_on_c, 12, 59, 0
13, 198794, Note_on_c, 12, 59, 100
13, 199340, Note_on_c, 12, 59, 0
13, 199345, Note_on_c, 12, 59, 100
13, 199451, Note_on_c, 12, 59, 0
13, 201322, Note_on_c, 12, 59, 100
13, 201704, Note_on_c, 12, 59, 0
13, 203938, Note_on_c, 12, 59, 100
13, 204033, Note_on_c, 12, 59, 0
13, 204610, Note_on_c, 12, 71, 100
13, 204801, Note_on_c, 12, 71, 0
13, 204802, Note_on_c, 12, 71, 100
13, 204993, Note_on_c, 12, 71, 0
13, 205954, Note_on_c, 12, 71, 100
13, 206049, Note_on_c, 12, 71, 0
13, 207010, Note_on_c, 12, 71, 100
13, 207105, Note_on_c, 12, 71, 0
13, 207490, Note_on_c, 12, 71, 100
13, 207490, Note_on_c, 12, 59, 100
13, 207585, Note_on_c, 12, 71, 0
13, 207682, Note_on_c, 12, 71, 100
13, 207873, Note_on_c, 12, 71, 0
13, 207969, Note_on_c, 12, 59, 0
13, 207970, Note_on_c, 12, 59, 100
13, 208065, Note_on_c, 12, 59, 0
13, 208450, Note_on_c, 12, 47, 100
13, 208641, Note_on_c, 12, 47, 0
13, 208834, Note_on_c, 12, 59, 100
13, 209025, Note_on_c, 12, 59, 0
13, 209122, Note_on_c, 12, 59, 100
13, 209217, Note_on_c, 12, 59, 0
13, 209602, Note_on_c, 12, 59, 100
13, 210273, Note_on_c, 12, 59, 0
13, 210370, Note_on_c, 12, 59, 100
13, 210465, Note_on_c, 12, 59, 0
13, 213250, Note_on_c, 12, 59, 100
13, 213441, Note_on_c, 12, 59, 0
13, 213442, Note_on_c, 12, 59, 100
13, 213633, Note_on_c, 12, 59, 0
13, 214210, Note_on_c, 12, 71, 100
13, 214305, Note_on_c, 12, 71, 0
13, 214402, Note_on_c, 12, 71, 100
13, 214497, Note_on_c, 12, 71, 0
13, 214690, Note_on_c, 12, 71, 100
13, 214785, Note_on_c, 12, 71, 0
13, 215362, Note_on_c, 12, 47, 100
13, 215553, Note_on_c, 12, 47, 0
13, 215746, Note_on_c, 12, 71, 100
13, 215841, Note_on_c, 12, 71, 0
13, 216034, Note_on_c, 12, 71, 100
13, 216129, Note_on_c, 12, 71, 0
13, 216802, Note_on_c, 12, 71, 100
13, 216897, Note_on_c, 12, 71, 0
13, 217282, Note_on_c, 12, 71, 100
13, 217377, Note_on_c, 12, 71, 0
13, 217474, Note_on_c, 12, 71, 100
13, 217761, Note_on_c, 12, 71, 0
13, 217762, Note_on_c, 12, 71, 100
13, 217857, Note_on_c, 12, 71, 0
13, 219010, Note_on_c, 12, 71, 100
13, 219681, Note_on_c, 12, 71, 0
13, 220738, Note_on_c, 12, 59, 100
13, 220929, Note_on_c, 12, 59, 0
13, 220930, Note_on_c, 12, 59, 100
13, 221121, Note_on_c, 12, 59, 0
13, 223234, Note_on_c, 12, 59, 100
13, 223329, Note_on_c, 12, 59, 0
13, 223714, Note_on_c, 12, 71, 100
13, 223809, Note_on_c, 12, 71, 0
13, 223810, Note_on_c, 12, 59, 100
13, 223905, Note_on_c, 12, 59, 0
13, 223906, Note_on_c, 12, 71, 100
13, 224001, Note_on_c, 12, 71, 0
13, 224098, Note_on_c, 12, 59, 100
13, 224193, Note_on_c, 12, 59, 0
13, 224770, Note_on_c, 12, 71, 100
13, 224961, Note_on_c, 12, 71, 0
13, 224962, Note_on_c, 12, 71, 100
13, 225153, Note_on_c, 12, 71, 0
13, 225538, Note_on_c, 12, 59, 100
13, 225633, Note_on_c, 12, 59, 0
13, 225730, Note_on_c, 12, 59, 100
13, 225921, Note_on_c, 12, 59, 0
13, 226018, Note_on_c, 12, 71, 100
13, 226113, Note_on_c, 12, 71, 0
13, 226498, Note_on_c, 12, 71, 100
13, 226498, Note_on_c, 12, 59, 100
13, 226593, Note_on_c, 12, 71, 0
13, 226690, Note_on_c, 12, 71, 100
13, 226881, Note_on_c, 12, 71, 0
13, 226977, Note_on_c, 12, 59, 0
13, 226978, Note_on_c, 12, 59, 100
13, 227073, Note_on_c, 12, 59, 0
13, 227170, Note_on_c, 12, 59, 100
13, 227265, Note_on_c, 12, 59, 0
13, 227458, Note_on_c, 12, 47, 100
13, 227649, Note_on_c, 12, 47, 0
13, 228034, Note_on_c, 12, 71, 100
13, 228034, Note_on_c, 12, 59, 100
13, 228321, Note_on_c, 12, 59, 0
13, 228513, Note_on_c, 12, 71, 0
13, 228514, Note_on_c, 12, 71, 100
13, 228609, Note_on_c, 12, 71, 0
13, 228898, Note_on_c, 12, 59, 100
13, 228993, Note_on_c, 12, 59, 0
13, 229186, Note_on_c, 12, 59, 100
13, 229377, Note_on_c, 12, 59, 0
13, 229378, Note_on_c, 12, 59, 100
13, 229568, Note_on_c, 12, 59, 0
13, 230338, Note_on_c, 12, 71, 100
13, 230529, Note_on_c, 12, 71, 0
13, 230626, Note_on_c, 12, 59, 100
13, 230721, Note_on_c, 12, 59, 0
13, 231106, Note_on_c, 12, 59, 100
13, 231201, Note_on_c, 12, 59, 0
13, 231298, Note_on_c, 12, 71, 100
13, 231298, Note_on_c, 12, 59, 100
13, 231489, Note_on_c, 12, 71, 0
13, 231585, Note_on_c, 12, 59, 0
13, 231586, Note_on_c, 12, 59, 100
13, 231681, Note_on_c, 12, 59, 0
13, 234082, Note_on_c, 12, 59, 100
13, 234177, Note_on_c, 12, 59, 0
13, 234370, Note_on_c, 12, 59, 100
13, 234465, Note_on_c, 12, 59, 0
13, 234562, Note_on_c, 12, 71, 100
13, 234562, Note_on_c, 12, 59, 100
13, 234657, Note_on_c, 12, 59, 0
13, 234753, Note_on_c, 12, 71, 0
13, 234850, Note_on_c, 12, 59, 100
13, 234945, Note_on_c, 12, 59, 0
13, 235042, Note_on_c, 12, 59, 100
13, 235137, Note_on_c, 12, 59, 0
13, 238114, Note_on_c, 12, 47, 100
13, 238209, Note_on_c, 12, 47, 0
13, 239554, Note_on_c, 12, 59, 100
13, 239744, Note_on_c, 12, 59, 0
13, 239842, Note_on_c, 12, 59, 100
13, 239937, Note_on_c, 12, 59, 0
13, 240706, Note_on_c, 12, 71, 100
13, 240898, Note_on_c, 12, 59, 100
13, 240993, Note_on_c, 12, 71, 0
13, 240994, Note_on_c, 12, 71, 100
13, 241089, Note_on_c, 12, 71, 0
13, 241089, Note_on_c, 12, 59, 0
13, 241090, Note_on_c, 12, 59, 100
13, 241281, Note_on_c, 12, 59, 0
13, 242530, Note_on_c, 12, 71, 100
13, 242625, Note_on_c, 12, 71, 0
13, 243202, Note_on_c, 12, 59, 100
13, 243297, Note_on_c, 12, 59, 0
13, 243778, Note_on_c, 12, 71, 100
13, 243778, Note_on_c, 12, 59, 100
13, 243969, Note_on_c, 12, 59, 0
13, 244065, Note_on_c, 12, 71, 0
13, 244258, Note_on_c, 12, 71, 100
13, 244353, Note_on_c, 12, 71, 0
13, 244450, Note_on_c, 12, 71, 100
13, 244545, Note_on_c, 12, 71, 0
13, 244930, Note_on_c, 12, 59, 100
13, 245025, Note_on_c, 12, 59, 0
13, 245122, Note_on_c, 12, 71, 100
13, 245409, Note_on_c, 12, 71, 0
13, 245794, Note_on_c, 12, 59, 100
13, 245889, Note_on_c, 12, 59, 0
13, 245986, Note_on_c, 12, 71, 100
13, 246081, Note_on_c, 12, 71, 0
13, 246850, Note_on_c, 12, 59, 100
13, 246945, Note_on_c, 12, 59, 0
13, 246946, Note_on_c, 12, 71, 100
13, 247041, Note_on_c, 12, 71, 0
13, 247426, Note_on_c, 12, 71, 100
13, 247521, Note_on_c, 12, 71, 0
13, 248002, Note_on_c, 12, 59, 100
13, 248097, Note_on_c, 12, 59, 0
13, 248098, Note_on_c, 12, 47, 100
13, 248193, Note_on_c, 12, 47, 0
13, 248386, Note_on_c, 12, 71, 100
13, 248577, Note_on_c, 12, 71, 0
13, 249154, Note_on_c, 12, 71, 100
13, 249537, Note_on_c, 12, 71, 0
13, 249922, Note_on_c, 12, 71, 100
13, 249922, Note_on_c, 12, 59, 100
13, 250113, Note_on_c, 12, 59, 0
13, 250114, Note_on_c, 12, 59, 100
13, 250305, Note_on_c, 12, 59, 0
13, 250305, Note_on_c, 12, 71, 0
13, 250306, Note_on_c, 12, 59, 100
13, 250497, Note_on_c, 12, 59, 0
13, 251074, Note_on_c, 12, 71, 100
13, 251266, Note_on_c, 12, 59, 100
13, 251457, Note_on_c, 12, 59, 0
13, 251457, Note_on_c, 12, 71, 0
13, 251458, Note_on_c, 12, 71, 100
13, 251649, Note_on_c, 12, 71, 0
13, 251842, Note_on_c, 12, 59, 100
13, 251937, Note_on_c, 12, 59, 0
13, 252034, Note_on_c, 12, 59, 100
13, 252130, Note_on_c, 12, 71, 100
13, 252225, Note_on_c, 12, 59, 0
13, 252410, Note_on_c, 12, 71, 0
13, 252994, Note_on_c, 12, 71, 100
13, 253089, Note_on_c, 12, 71, 0
13, 253186, Note_on_c, 12, 71, 100
13, 253473, Note_on_c, 12, 71, 0
13, 253474, Note_on_c, 12, 71, 100
13, 253569, Note_on_c, 12, 71, 0
13, 254146, Note_on_c, 12, 71, 100
13, 254146, Note_on_c, 12, 59, 100
13, 254236, Note_on_c, 12, 59, 0
13, 254242, Note_on_c, 12, 59, 100
13, 254337, Note_on_c, 12, 59, 0
13, 254625, Note_on_c, 12, 71, 0
13, 254626, Note_on_c, 12, 71, 100
13, 254721, Note_on_c, 12, 71, 0
13, 255106, Note_on_c, 12, 71, 100
13, 255106, Note_on_c, 12, 47, 100
13, 255201, Note_on_c, 12, 71, 0
13, 255394, Note_on_c, 12, 71, 100
13, 255489, Note_on_c, 12, 71, 0
13, 255489, Note_on_c, 12, 47, 0
13, 255490, Note_on_c, 12, 59, 100
13, 255777, Note_on_c, 12, 59, 0
13, 255778, Note_on_c, 12, 59, 100
13, 255873, Note_on_c, 12, 59, 0
13, 256066, Note_on_c, 12, 59, 100
13, 256161, Note_on_c, 12, 59, 0
13, 256258, Note_on_c, 12, 71, 100
13, 256353, Note_on_c, 12, 71, 0
13, 256738, Note_on_c, 12, 71, 100
13, 256833, Note_on_c, 12, 71, 0
13, 256930, Note_on_c, 12, 71, 100
13, 257025, Note_on_c, 12, 71, 0
13, 257410, Note_on_c, 12, 59, 100
13, 257505, Note_on_c, 12, 59, 0
13, 257602, Note_on_c, 12, 59, 100
13, 257697, Note_on_c, 12, 59, 0
13, 257794, Note_on_c, 12, 71, 100
13, 257889, Note_on_c, 12, 71, 0
13, 257890, Note_on_c, 12, 59, 100
13, 257985, Note_on_c, 12, 59, 0
13, 258658, Note_on_c, 12, 59, 100
13, 258753, Note_on_c, 12, 59, 0
13, 258850, Note_on_c, 12, 71, 100
13, 258945, Note_on_c, 12, 71, 0
13, 260578, Note_on_c, 12, 47, 100
13, 260673, Note_on_c, 12, 47, 0
13, 260770, Note_on_c, 12, 71, 100
13, 260865, Note_on_c, 12, 71, 0
13, 261730, Note_on_c, 12, 71, 100
13, 261825, Note_on_c, 12, 71, 0
13, 262210, Note_on_c, 12, 71, 100
13, 262305, Note_on_c, 12, 71, 0
13, 262402, Note_on_c, 12, 71, 100
13, 262593, Note_on_c, 12, 71, 0
13, 262882, Note_on_c, 12, 59, 100
13, 262977, Note_on_c, 12, 59, 0
13, 263170, Note_on_c, 12, 71, 100
13, 263170, Note_on_c, 12, 47, 100
13, 263361, Note_on_c, 12, 71, 0
13, 263362, Note_on_c, 12, 59, 100
13, 263457, Note_on_c, 12, 59, 0
13, 263554, Note_on_c, 12, 59, 100
13, 263650, Note_on_c, 12, 71, 100
13, 263745, Note_on_c, 12, 71, 0
13, 263745, Note_on_c, 12, 59, 0
13, 263745, Note_on_c, 12, 47, 0
13, 263746, Note_on_c, 12, 47, 100
13, 264321, Note_on_c, 12, 47, 0
13, 264898, Note_on_c, 12, 71, 100
13, 264994, Note_on_c, 12, 59, 100
13, 265089, Note_on_c, 12, 59, 0
13, 265282, Note_on_c, 12, 47, 100
13, 265377, Note_on_c, 12, 47, 0
13, 265473, Note_on_c, 12, 71, 0
13, 265474, Note_on_c, 12, 71, 100
13, 265569, Note_on_c, 12, 71, 0
13, 265666, Note_on_c, 12, 71, 100
13, 265761, Note_on_c, 12, 71, 0
13, 267682, Note_on_c, 12, 47, 100
13, 267777, Note_on_c, 12, 47, 0
13, 268162, Note_on_c, 12, 47, 100
13, 268257, Note_on_c, 12, 47, 0
13, 269410, Note_on_c, 12, 59, 100
13, 269505, Note_on_c, 12, 59, 0
13, 269890, Note_on_c, 12, 59, 100
13, 269985, Note_on_c, 12, 59, 0
13, 271138, Note_on_c, 12, 71, 100
13, 271233, Note_on_c, 12, 71, 0
13, 271618, Note_on_c, 12, 71, 100
13, 271716, Note_on_c, 12, 71, 0
13, 272923, Note_on_c, 12, 83, 100
13, 273029, Note_on_c, 12, 83, 0
13, 273462, Note_on_c, 12, 71, 100
13, 273676, Note_on_c, 12, 71, 0
13, 273906, Note_on_c, 12, 71, 100
13, 274016, Note_on_c, 12, 71, 0
13, 274135, Note_on_c, 12, 59, 100
13, 274245, Note_on_c, 12, 59, 0
13, 274705, Note_on_c, 12, 59, 100
13, 274815, Note_on_c, 12, 59, 0
13, 275287, Note_on_c, 12, 71, 100
13, 275287, Note_on_c, 12, 59, 100
13, 275399, Note_on_c, 12, 59, 0
13, 275515, Note_on_c, 12, 71, 0
13, 275522, Note_on_c, 12, 71, 100
13, 275522, Note_on_c, 12, 59, 100
13, 275634, Note_on_c, 12, 71, 0
13, 275866, Note_on_c, 12, 59, 0
13, 276276, Note_on_c, 12, 59, 100
13, 276415, Note_on_c, 12, 71, 100
13, 276537, Note_on_c, 12, 59, 0
13, 276555, Note_on_c, 12, 71, 0
13, 276555, End_track
0, 0, End_of_file