0, 0, Header, 1, 2, 256
1, 0, Start_track
1, 0, Time_signature, 4, 2, 24, 8
1, 0, Key_signature, -1, "major"
1, 0, Time_signature, 4, 2, 24, 8
1, 0, Tempo, 2000000
1, 640, Tempo, 2400000
1, 1023, Tempo, 3000000
1, 1024, Time_signature, 2, 2, 24, 8
1, 1152, Tempo, 4000000
1, 1536, Time_signature, 7, 2, 24, 8
1, 1536, Tempo, 750000
1, 2560, Tempo, 750000
1, 2611, Tempo, 759493
1, 2662, Tempo, 769230
1, 2713, Tempo, 779220
1, 2764, Tempo, 789473
1, 2815, Tempo, 800000
1, 2866, Tempo, 810810
1, 2917, Tempo, 821917
1, 2968, Tempo, 833333
1, 3019, Tempo, 845070
1, 3070, Tempo, 857142
1, 3328, Time_signature, 2, 2, 24, 8
1, 3584, Tempo, 2400000
1, 3840, Time_signature, 7, 4, 18, 8
1, 4193, Tempo, 600000
1, 4288, Time_signature, 4, 2, 24, 8
1, 7488, Tempo, 600000
1, 7520, Tempo, 615384
1, 7552, Tempo, 631578
1, 7584, Tempo, 648648
1, 7616, Tempo, 666666
1, 7648, Tempo, 685714
1, 7680, Tempo, 705882
1, 7712, Tempo, 727272
1, 7744, Tempo, 750000
1, 8086, Tempo, 600000
1, 10901, Tempo, 750000
1, 12352, Tempo, 1500000
1, 12901, Tempo, 800000
1, 16320, Tempo, 800000
1, 16352, Tempo, 815438
1, 16384, Tempo, 831485
1, 16416, Tempo, 848176
1, 16448, Tempo, 865551
1, 16480, Tempo, 883652
1, 16512, Tempo, 902527
1, 16544, Tempo, 923076
1, 16640, Tempo, 800000
1, 17088, Tempo, 923076
1, 17665, Tempo, 800000
1, 18112, Tempo, 923076
1, 18880, Tempo, 750000
1, 19648, Tempo, 800000
1, 20032, Tempo, 923076
1, 21056, Tempo, 923076
1, 21107, Tempo, 960000
1, 21158, Tempo, 1000000
1, 21209, Tempo, 1043478
1, 21260, Tempo, 1090909
1, 21311, Tempo, 1142857
1, 21362, Tempo, 1200000
1, 21413, Tempo, 1263157
1, 21464, Tempo, 1333333
1, 21515, Tempo, 1411764
1, 21566, Tempo, 1500000
1, 21794, Tempo, 800000
1, 22208, Tempo, 800000
1, 22256, Tempo, 839160
1, 22304, Tempo, 882352
1, 22352, Tempo, 930232
1, 22400, Tempo, 983606
1, 22448, Tempo, 1043478
1, 22496, Tempo, 1111111
1, 22544, Tempo, 1188118
1, 22592, Tempo, 1276595
1, 22640, Tempo, 1379310
1, 22688, Tempo, 1500000
1, 23232, Tempo, 666666
1, 28352, Tempo, 1000000
1, 29568, Tempo, 1500000
1, 29888, Tempo, 1500000
1, 29926, Tempo, 1538461
1, 29964, Tempo, 1578947
1, 30002, Tempo, 1621621
1, 30040, Tempo, 1666666
1, 30078, Tempo, 1714285
1, 30116, Tempo, 1764705
1, 30154, Tempo, 1818181
1, 30192, Tempo, 1875000
1, 30230, Tempo, 1935483
1, 30268, Tempo, 2000000
1, 30297, Tempo, 3000000
1, 31040, Tempo, 4000000
1, 31488, Tempo, 625000
1, 59136, Tempo, 625000
1, 129216, Tempo, 625000
1, 129305, Tempo, 649350
1, 129394, Tempo, 675675
1, 129483, Tempo, 704225
1, 129572, Tempo, 735294
1, 129661, Tempo, 769230
1, 129984, Tempo, 1090909
1, 130112, Tempo, 1333333
1, 130784, Tempo, 750000
1, 133056, Tempo, 750000
1, 133088, Tempo, 777705
1, 133120, Tempo, 807536
1, 133152, Tempo, 839748
1, 133184, Tempo, 874635
1, 133216, Tempo, 912547
1, 133248, Tempo, 953895
1, 133280, Tempo, 1000000
1, 133312, Tempo, 1000000
1, 134848, Tempo, 1500000
1, 135701, Tempo, 2000000
1, 135872, Tempo, 1500000
1, 136896, Tempo, 625000
1, 139904, Tempo, 857142
1, 140096, Tempo, 2000000
1, 140160, Tempo, 2400000
1, 140480, Tempo, 1000000
1, 142528, Tempo, 1000000
1, 142656, Tempo, 1016949
1, 142784, Tempo, 1034482
1, 142912, Tempo, 1052631
1, 143040, Tempo, 1071428
1, 143168, Tempo, 1090909
1, 143296, Tempo, 1111111
1, 143424, Tempo, 1132075
1, 143552, Tempo, 1153846
1, 143680, Tempo, 1176470
1, 143808, Tempo, 1200000
1, 143936, Tempo, 1224489
1, 144064, Tempo, 1250000
1, 144192, Tempo, 1276595
1, 144320, Tempo, 1304347
1, 144448, Tempo, 1333333
1, 144576, Tempo, 1500000
1, 144704, Tempo, 1527106
1, 144832, Tempo, 1555209
1, 144960, Tempo, 1584367
1, 145088, Tempo, 1614639
1, 145216, Tempo, 1646090
1, 145344, Tempo, 1678791
1, 145472, Tempo, 1699716
1, 145600, Tempo, 1748251
1, 146112, Tempo, 2000000
1, 146368, Tempo, 2400000
1, 146369, End_track
2, 0, Start_track
2, 0, Title_t, "Piano"
2, 0, Control_c, 0, 91, 60
2, 0, Control_c, 0, 10, 76
2, 0, Control_c, 0, 91, 60
2, 0, Control_c, 0, 10, 76
2, 0, Control_c, 1, 91, 60
2, 0, Control_c, 1, 10, 50
2, 0, Control_c, 1, 91, 60
2, 0, Control_c, 1, 10, 50
2, 0, Control_c, 0, 0, 0
2, 0, Control_c, 0, 32, 0
2, 0, Program_c, 0, 0
2, 0, Note_on_c, 0, 81, 90
2, 0, Note_on_c, 0, 93, 89
2, 0, Control_c, 1, 0, 0
2, 0, Control_c, 1, 32, 0
2, 0, Program_c, 1, 0
2, 0, Note_on_c, 1, 69, 89
2, 15, Note_on_c, 0, 81, 0
2, 15, Note_on_c, 0, 93, 0
2, 15, Note_on_c, 1, 69, 0
2, 16, Note_on_c, 0, 91, 86
2, 16, Note_on_c, 1, 67, 117
2, 16, Note_on_c, 1, 79, 118
2, 31, Note_on_c, 0, 91, 0
2, 31, Note_on_c, 1, 67, 0
2, 31, Note_on_c, 1, 79, 0
2, 32, Note_on_c, 0, 81, 100
2, 32, Note_on_c, 0, 93, 101
2, 32, Note_on_c, 1, 69, 78
2, 87, Tempo, 3750000
2, 87, Tempo, 3750000
2, 119, Note_on_c, 0, 81, 0
2, 119, Note_on_c, 0, 93, 0
2, 119, Tempo, 2400000
2, 119, Note_on_c, 1, 69, 0
2, 119, Tempo, 2400000
2, 160, Note_on_c, 0, 79, 85
2, 160, Note_on_c, 0, 91, 87
2, 160, Note_on_c, 1, 67, 85
2, 175, Note_on_c, 0, 79, 0
2, 175, Note_on_c, 0, 91, 0
2, 175, Note_on_c, 1, 67, 0
2, 176, Note_on_c, 0, 89, 89
2, 176, Note_on_c, 1, 65, 87
2, 191, Note_on_c, 0, 89, 0
2, 191, Note_on_c, 1, 65, 0
2, 192, Note_on_c, 0, 88, 92
2, 192, Note_on_c, 1, 64, 88
2, 207, Note_on_c, 0, 88, 0
2, 207, Note_on_c, 1, 64, 0
2, 208, Note_on_c, 0, 86, 91
2, 208, Note_on_c, 1, 62, 89
2, 223, Note_on_c, 0, 86, 0
2, 223, Note_on_c, 1, 62, 0
2, 224, Note_on_c, 0, 85, 90
2, 224, Note_on_c, 1, 61, 122
2, 224, Note_on_c, 1, 73, 120
2, 253, Note_on_c, 0, 85, 0
2, 253, Note_on_c, 1, 61, 0
2, 253, Note_on_c, 1, 73, 0
2, 256, Note_on_c, 0, 86, 103
2, 256, Note_on_c, 1, 62, 108
2, 256, Note_on_c, 1, 74, 107
2, 314, Note_on_c, 0, 86, 0
2, 314, Note_on_c, 1, 62, 0
2, 314, Note_on_c, 1, 74, 0
2, 346, Tempo, 3750000
2, 346, Tempo, 3750000
2, 378, Tempo, 2400000
2, 378, Tempo, 2400000
2, 468, Tempo, 3750000
2, 468, Tempo, 3750000
2, 500, Tempo, 2400000
2, 500, Tempo, 2400000
2, 512, Note_on_c, 0, 69, 89
2, 512, Note_on_c, 0, 81, 89
2, 512, Note_on_c, 1, 57, 89
2, 527, Note_on_c, 0, 69, 0
2, 527, Note_on_c, 0, 81, 0
2, 527, Note_on_c, 1, 57, 0
2, 528, Note_on_c, 0, 79, 87
2, 528, Note_on_c, 1, 55, 116
2, 528, Note_on_c, 1, 67, 117
2, 543, Note_on_c, 0, 79, 0
2, 543, Note_on_c, 1, 55, 0
2, 543, Note_on_c, 1, 67, 0
2, 544, Note_on_c, 0, 69, 100
2, 544, Note_on_c, 0, 81, 101
2, 544, Note_on_c, 1, 57, 77
2, 599, Tempo, 3750000
2, 599, Tempo, 3750000
2, 631, Note_on_c, 0, 69, 0
2, 631, Note_on_c, 0, 81, 0
2, 631, Tempo, 2400000
2, 631, Note_on_c, 1, 57, 0
2, 631, Tempo, 2400000
2, 672, Note_on_c, 0, 64, 85
2, 672, Note_on_c, 0, 76, 88
2, 672, Note_on_c, 1, 52, 86
2, 701, Note_on_c, 0, 64, 0
2, 701, Note_on_c, 0, 76, 0
2, 701, Note_on_c, 1, 52, 0
2, 704, Note_on_c, 0, 65, 99
2, 704, Note_on_c, 0, 77, 98
2, 704, Note_on_c, 1, 53, 100
2, 733, Note_on_c, 0, 65, 0
2, 733, Note_on_c, 0, 77, 0
2, 733, Note_on_c, 1, 53, 0
2, 736, Note_on_c, 0, 73, 83
2, 736, Note_on_c, 1, 49, 113
2, 736, Note_on_c, 1, 61, 112
2, 765, Note_on_c, 0, 73, 0
2, 765, Note_on_c, 1, 49, 0
2, 765, Note_on_c, 1, 61, 0
2, 768, Note_on_c, 0, 74, 102
2, 768, Note_on_c, 1, 50, 106
2, 768, Note_on_c, 1, 62, 106
2, 826, Note_on_c, 0, 74, 0
2, 826, Note_on_c, 1, 50, 0
2, 826, Note_on_c, 1, 62, 0
2, 1024, Note_on_c, 0, 57, 91
2, 1024, Note_on_c, 0, 69, 90
2, 1024, Note_on_c, 1, 45, 91
2, 1039, Note_on_c, 0, 57, 0
2, 1039, Note_on_c, 0, 69, 0
2, 1039, Note_on_c, 1, 45, 0
2, 1040, Note_on_c, 0, 67, 88
2, 1040, Note_on_c, 1, 43, 117
2, 1040, Note_on_c, 1, 55, 116
2, 1055, Note_on_c, 0, 67, 0
2, 1055, Note_on_c, 1, 43, 0
2, 1055, Note_on_c, 1, 55, 0
2, 1056, Note_on_c, 0, 57, 100
2, 1056, Note_on_c, 0, 69, 101
2, 1056, Note_on_c, 1, 45, 79
2, 1111, Tempo, 3750000
2, 1111, Tempo, 3750000
2, 1143, Note_on_c, 0, 57, 0
2, 1143, Note_on_c, 0, 69, 0
2, 1143, Tempo, 2400000
2, 1143, Note_on_c, 1, 45, 0
2, 1143, Tempo, 2400000
2, 1184, Note_on_c, 0, 55, 85
2, 1184, Note_on_c, 0, 67, 87
2, 1184, Note_on_c, 1, 43, 87
2, 1199, Note_on_c, 0, 55, 0
2, 1199, Note_on_c, 0, 67, 0
2, 1199, Note_on_c, 1, 43, 0
2, 1200, Note_on_c, 0, 65, 88
2, 1200, Note_on_c, 1, 41, 87
2, 1215, Note_on_c, 0, 65, 0
2, 1215, Note_on_c, 1, 41, 0
2, 1216, Note_on_c, 0, 64, 92
2, 1216, Note_on_c, 1, 40, 90
2, 1231, Note_on_c, 0, 64, 0
2, 1231, Note_on_c, 1, 40, 0
2, 1232, Note_on_c, 0, 62, 88
2, 1232, Note_on_c, 1, 38, 89
2, 1245, Tempo, 3750000
2, 1245, Tempo, 3750000
2, 1247, Note_on_c, 0, 62, 0
2, 1247, Note_on_c, 1, 38, 0
2, 1248, Note_on_c, 0, 61, 91
2, 1248, Note_on_c, 1, 37, 120
2, 1248, Note_on_c, 1, 49, 122
2, 1277, Note_on_c, 0, 61, 0
2, 1277, Tempo, 2400000
2, 1277, Note_on_c, 1, 37, 0
2, 1277, Note_on_c, 1, 49, 0
2, 1277, Tempo, 2400000
2, 1280, Note_on_c, 0, 62, 102
2, 1280, Note_on_c, 1, 38, 109
2, 1280, Note_on_c, 1, 50, 107
2, 1338, Note_on_c, 0, 62, 0
2, 1338, Note_on_c, 1, 38, 0
2, 1338, Note_on_c, 1, 50, 0
2, 1536, Note_on_c, 1, 26, 116
2, 1536, Note_on_c, 1, 38, 118
2, 1792, Note_on_c, 0, 52, 84
2, 1792, Note_on_c, 0, 55, 87
2, 1792, Note_on_c, 0, 61, 87
2, 1792, Note_on_c, 1, 38, 42
2, 1792, Note_on_c, 1, 40, 43
2, 1792, Note_on_c, 1, 46, 42
2, 2023, Note_on_c, 0, 52, 0
2, 2023, Note_on_c, 0, 55, 0
2, 2023, Note_on_c, 0, 61, 0
2, 2023, Note_on_c, 1, 38, 0
2, 2023, Note_on_c, 1, 40, 0
2, 2023, Note_on_c, 1, 46, 0
2, 2048, Note_on_c, 0, 55, 106
2, 2048, Note_on_c, 0, 58, 106
2, 2048, Note_on_c, 0, 64, 104
2, 2048, Note_on_c, 1, 38, 63
2, 2048, Note_on_c, 1, 40, 65
2, 2048, Note_on_c, 1, 46, 66
2, 2048, Note_on_c, 1, 49, 63
2, 2279, Note_on_c, 0, 55, 0
2, 2279, Note_on_c, 0, 58, 0
2, 2279, Note_on_c, 0, 64, 0
2, 2279, Note_on_c, 1, 38, 0
2, 2279, Note_on_c, 1, 40, 0
2, 2279, Note_on_c, 1, 46, 0
2, 2279, Note_on_c, 1, 49, 0
2, 2304, Note_on_c, 0, 55, 110
2, 2304, Note_on_c, 0, 58, 113
2, 2304, Note_on_c, 0, 61, 110
2, 2304, Note_on_c, 0, 67, 109
2, 2304, Note_on_c, 1, 38, 75
2, 2304, Note_on_c, 1, 40, 76
2, 2304, Note_on_c, 1, 46, 76
2, 2304, Note_on_c, 1, 50, 74
2, 2510, Note_on_c, 1, 26, 0
2, 2510, Note_on_c, 1, 38, 0
2, 2535, Note_on_c, 0, 55, 0
2, 2535, Note_on_c, 0, 58, 0
2, 2535, Note_on_c, 0, 61, 0
2, 2535, Note_on_c, 0, 67, 0
2, 2535, Note_on_c, 1, 38, 0
2, 2535, Note_on_c, 1, 40, 0
2, 2535, Note_on_c, 1, 46, 0
2, 2535, Note_on_c, 1, 50, 0
2, 2560, Note_on_c, 0, 55, 116
2, 2560, Note_on_c, 0, 61, 115
2, 2560, Note_on_c, 0, 64, 114
2, 2560, Note_on_c, 0, 70, 115
2, 2560, Note_on_c, 1, 38, 91
2, 2560, Note_on_c, 1, 43, 93
2, 2560, Note_on_c, 1, 46, 91
2, 2560, Note_on_c, 1, 50, 93
2, 2560, Note_on_c, 1, 52, 92
2, 2791, Note_on_c, 0, 55, 0
2, 2791, Note_on_c, 0, 61, 0
2, 2791, Note_on_c, 0, 64, 0
2, 2791, Note_on_c, 0, 70, 0
2, 2791, Note_on_c, 1, 38, 0
2, 2791, Note_on_c, 1, 43, 0
2, 2791, Note_on_c, 1, 46, 0
2, 2791, Note_on_c, 1, 50, 0
2, 2791, Note_on_c, 1, 52, 0
2, 2816, Note_on_c, 0, 58, 117
2, 2816, Note_on_c, 0, 64, 118
2, 2816, Note_on_c, 0, 67, 119
2, 2816, Note_on_c, 0, 73, 117
2, 2816, Note_on_c, 1, 38, 97
2, 2816, Note_on_c, 1, 43, 100
2, 2816, Note_on_c, 1, 46, 98
2, 2816, Note_on_c, 1, 50, 98
2, 2816, Note_on_c, 1, 52, 99
2, 3047, Note_on_c, 0, 58, 0
2, 3047, Note_on_c, 0, 64, 0
2, 3047, Note_on_c, 0, 67, 0
2, 3047, Note_on_c, 0, 73, 0
2, 3047, Note_on_c, 1, 38, 0
2, 3047, Note_on_c, 1, 43, 0
2, 3047, Note_on_c, 1, 46, 0
2, 3047, Note_on_c, 1, 50, 0
2, 3047, Note_on_c, 1, 52, 0
2, 3072, Note_on_c, 0, 62, 121
2, 3072, Note_on_c, 0, 67, 124
2, 3072, Note_on_c, 0, 70, 123
2, 3072, Note_on_c, 0, 73, 121
2, 3072, Note_on_c, 0, 76, 120
2, 3072, Note_on_c, 1, 38, 111
2, 3072, Note_on_c, 1, 43, 113
2, 3072, Note_on_c, 1, 46, 111
2, 3072, Note_on_c, 1, 49, 109
2, 3072, Note_on_c, 1, 50, 111
2, 3072, Note_on_c, 1, 52, 110
2, 3559, Note_on_c, 0, 62, 0
2, 3559, Note_on_c, 0, 67, 0
2, 3559, Note_on_c, 0, 70, 0
2, 3559, Note_on_c, 0, 73, 0
2, 3559, Note_on_c, 0, 76, 0
2, 3559, Note_on_c, 1, 38, 0
2, 3559, Note_on_c, 1, 43, 0
2, 3559, Note_on_c, 1, 46, 0
2, 3559, Note_on_c, 1, 49, 0
2, 3559, Note_on_c, 1, 50, 0
2, 3559, Note_on_c, 1, 52, 0
2, 3584, Note_on_c, 0, 62, 103
2, 3584, Note_on_c, 0, 69, 102
2, 3584, Note_on_c, 0, 74, 104
2, 3584, Note_on_c, 0, 67, 90
2, 3584, Note_on_c, 1, 43, 90
2, 3584, Note_on_c, 1, 38, 76
2, 3584, Note_on_c, 1, 45, 79
2, 3584, Note_on_c, 1, 50, 76
2, 3642, Note_on_c, 0, 67, 0
2, 3642, Note_on_c, 1, 43, 0
2, 3648, Note_on_c, 0, 64, 85
2, 3648, Note_on_c, 1, 40, 126
2, 3648, Note_on_c, 1, 52, 127
2, 3706, Note_on_c, 0, 64, 0
2, 3706, Note_on_c, 1, 40, 0
2, 3706, Note_on_c, 1, 52, 0
2, 3712, Note_on_c, 0, 66, 100
2, 3712, Note_on_c, 1, 42, 123
2, 3712, Note_on_c, 1, 54, 122
2, 3956, Note_on_c, 0, 62, 0
2, 3956, Note_on_c, 0, 69, 0
2, 3956, Note_on_c, 0, 74, 0
2, 3956, Note_on_c, 0, 66, 0
2, 3956, Note_on_c, 1, 42, 0
2, 3956, Note_on_c, 1, 54, 0
2, 4071, Note_on_c, 1, 38, 0
2, 4071, Note_on_c, 1, 45, 0
2, 4071, Note_on_c, 1, 50, 0
2, 4224, Note_on_c, 0, 61, 88
2, 4224, Note_on_c, 0, 73, 87
2, 4282, Note_on_c, 0, 61, 0
2, 4282, Note_on_c, 0, 73, 0
2, 4288, Note_on_c, 0, 62, 103
2, 4288, Note_on_c, 0, 74, 101
2, 4326, Note_on_c, 0, 62, 0
2, 4326, Note_on_c, 0, 74, 0
2, 4330, Note_on_c, 0, 64, 102
2, 4330, Note_on_c, 0, 76, 104
2, 4369, Note_on_c, 0, 64, 0
2, 4369, Note_on_c, 0, 76, 0
2, 4373, Note_on_c, 0, 61, 87
2, 4373, Note_on_c, 0, 73, 89
2, 4412, Note_on_c, 0, 61, 0
2, 4412, Note_on_c, 0, 73, 0
2, 4416, Note_on_c, 0, 62, 99
2, 4416, Note_on_c, 0, 74, 100
2, 4454, Note_on_c, 0, 62, 0
2, 4454, Note_on_c, 0, 74, 0
2, 4458, Note_on_c, 0, 64, 103
2, 4458, Note_on_c, 0, 76, 101
2, 4497, Note_on_c, 0, 64, 0
2, 4497, Note_on_c, 0, 76, 0
2, 4501, Note_on_c, 0, 61, 90
2, 4501, Note_on_c, 0, 73, 87
2, 4540, Note_on_c, 0, 61, 0
2, 4540, Note_on_c, 0, 73, 0
2, 4544, Note_on_c, 0, 62, 101
2, 4544, Note_on_c, 0, 74, 104
2, 4582, Note_on_c, 0, 62, 0
2, 4582, Note_on_c, 0, 74, 0
2, 4586, Note_on_c, 0, 64, 101
2, 4586, Note_on_c, 0, 76, 102
2, 4625, Note_on_c, 0, 64, 0
2, 4625, Note_on_c, 0, 76, 0
2, 4629, Note_on_c, 0, 61, 88
2, 4629, Note_on_c, 0, 73, 86
2, 4668, Note_on_c, 0, 61, 0
2, 4668, Note_on_c, 0, 73, 0
2, 4672, Note_on_c, 0, 62, 100
2, 4672, Note_on_c, 0, 74, 98
2, 4704, Note_on_c, 0, 62, 0
2, 4704, Note_on_c, 0, 74, 0
2, 4736, Note_on_c, 0, 64, 104
2, 4736, Note_on_c, 0, 76, 100
2, 4768, Note_on_c, 0, 64, 0
2, 4768, Note_on_c, 0, 76, 0
2, 4800, Note_on_c, 0, 65, 104
2, 4800, Note_on_c, 0, 77, 103
2, 4838, Note_on_c, 0, 65, 0
2, 4838, Note_on_c, 0, 77, 0
2, 4842, Note_on_c, 0, 67, 102
2, 4842, Note_on_c, 0, 79, 103
2, 4881, Note_on_c, 0, 67, 0
2, 4881, Note_on_c, 0, 79, 0
2, 4885, Note_on_c, 0, 64, 87
2, 4885, Note_on_c, 0, 76, 86
2, 4924, Note_on_c, 0, 64, 0
2, 4924, Note_on_c, 0, 76, 0
2, 4928, Note_on_c, 0, 65, 98
2, 4928, Note_on_c, 0, 77, 99
2, 4966, Note_on_c, 0, 65, 0
2, 4966, Note_on_c, 0, 77, 0
2, 4970, Note_on_c, 0, 67, 104
2, 4970, Note_on_c, 0, 79, 103
2, 5009, Note_on_c, 0, 67, 0
2, 5009, Note_on_c, 0, 79, 0
2, 5013, Note_on_c, 0, 64, 89
2, 5013, Note_on_c, 0, 76, 86
2, 5052, Note_on_c, 0, 64, 0
2, 5052, Note_on_c, 0, 76, 0
2, 5056, Note_on_c, 0, 65, 103
2, 5056, Note_on_c, 0, 77, 102
2, 5094, Note_on_c, 0, 65, 0
2, 5094, Note_on_c, 0, 77, 0
2, 5098, Note_on_c, 0, 67, 104
2, 5098, Note_on_c, 0, 79, 101
2, 5137, Note_on_c, 0, 67, 0
2, 5137, Note_on_c, 0, 79, 0
2, 5141, Note_on_c, 0, 64, 86
2, 5141, Note_on_c, 0, 76, 88
2, 5180, Note_on_c, 0, 64, 0
2, 5180, Note_on_c, 0, 76, 0
2, 5184, Note_on_c, 0, 65, 100
2, 5184, Note_on_c, 0, 77, 101
2, 5216, Note_on_c, 0, 65, 0
2, 5216, Note_on_c, 0, 77, 0
2, 5248, Note_on_c, 0, 67, 104
2, 5248, Note_on_c, 0, 79, 100
2, 5280, Note_on_c, 0, 67, 0
2, 5280, Note_on_c, 0, 79, 0
2, 5312, Note_on_c, 0, 69, 104
2, 5312, Note_on_c, 0, 81, 106
2, 5350, Note_on_c, 0, 69, 0
2, 5350, Note_on_c, 0, 81, 0
2, 5354, Note_on_c, 0, 70, 102
2, 5354, Note_on_c, 0, 82, 101
2, 5393, Note_on_c, 0, 70, 0
2, 5393, Note_on_c, 0, 82, 0
2, 5397, Note_on_c, 0, 67, 87
2, 5397, Note_on_c, 0, 79, 87
2, 5436, Note_on_c, 0, 67, 0
2, 5436, Note_on_c, 0, 79, 0
2, 5440, Note_on_c, 0, 69, 101
2, 5440, Note_on_c, 0, 81, 101
2, 5478, Note_on_c, 0, 69, 0
2, 5478, Note_on_c, 0, 81, 0
2, 5482, Note_on_c, 0, 70, 102
2, 5482, Note_on_c, 0, 82, 102
2, 5521, Note_on_c, 0, 70, 0
2, 5521, Note_on_c, 0, 82, 0
2, 5525, Note_on_c, 0, 67, 87
2, 5525, Note_on_c, 0, 79, 87
2, 5564, Note_on_c, 0, 67, 0
2, 5564, Note_on_c, 0, 79, 0
2, 5568, Note_on_c, 0, 69, 106
2, 5568, Note_on_c, 0, 81, 105
2, 5606, Note_on_c, 0, 69, 0
2, 5606, Note_on_c, 0, 81, 0
2, 5610, Note_on_c, 0, 70, 100
2, 5610, Note_on_c, 0, 82, 102
2, 5649, Note_on_c, 0, 70, 0
2, 5649, Note_on_c, 0, 82, 0
2, 5653, Note_on_c, 0, 67, 90
2, 5653, Note_on_c, 0, 79, 89
2, 5675, Note_on_c, 0, 67, 0
2, 5675, Note_on_c, 0, 79, 0
2, 5696, Note_on_c, 0, 69, 101
2, 5696, Note_on_c, 0, 81, 102
2, 5728, Note_on_c, 0, 69, 0
2, 5728, Note_on_c, 0, 81, 0
2, 6272, Note_on_c, 0, 73, 56
2, 6272, Note_on_c, 0, 85, 56
2, 6330, Note_on_c, 0, 73, 0
2, 6330, Note_on_c, 0, 85, 0
2, 6336, Note_on_c, 0, 74, 67
2, 6336, Note_on_c, 0, 86, 68
2, 6336, Note_on_c, 1, 62, 88
2, 6374, Note_on_c, 0, 74, 0
2, 6374, Note_on_c, 0, 86, 0
2, 6374, Note_on_c, 1, 62, 0
2, 6378, Note_on_c, 0, 76, 47
2, 6378, Note_on_c, 1, 64, 99
2, 6417, Note_on_c, 0, 76, 0
2, 6417, Note_on_c, 1, 64, 0
2, 6421, Note_on_c, 0, 85, 74
2, 6421, Note_on_c, 1, 61, 88
2, 6460, Note_on_c, 0, 85, 0
2, 6460, Note_on_c, 1, 61, 0
2, 6464, Note_on_c, 0, 74, 67
2, 6464, Note_on_c, 0, 86, 69
2, 6464, Note_on_c, 1, 62, 99
2, 6502, Note_on_c, 0, 74, 0
2, 6502, Note_on_c, 0, 86, 0
2, 6502, Note_on_c, 1, 62, 0
2, 6506, Note_on_c, 0, 76, 50
2, 6506, Note_on_c, 1, 64, 103
2, 6545, Note_on_c, 0, 76, 0
2, 6545, Note_on_c, 1, 64, 0
2, 6549, Note_on_c, 0, 85, 74
2, 6549, Note_on_c, 1, 61, 90
2, 6588, Note_on_c, 0, 85, 0
2, 6588, Note_on_c, 1, 61, 0
2, 6592, Note_on_c, 0, 74, 69
2, 6592, Note_on_c, 0, 86, 71
2, 6592, Note_on_c, 1, 62, 102
2, 6630, Note_on_c, 0, 74, 0
2, 6630, Note_on_c, 0, 86, 0
2, 6630, Note_on_c, 1, 62, 0
2, 6634, Note_on_c, 0, 76, 46
2, 6634, Note_on_c, 1, 64, 104
2, 6673, Note_on_c, 0, 76, 0
2, 6673, Note_on_c, 1, 64, 0
2, 6677, Note_on_c, 0, 85, 74
2, 6677, Note_on_c, 1, 61, 87
2, 6716, Note_on_c, 0, 85, 0
2, 6716, Note_on_c, 1, 61, 0
2, 6720, Note_on_c, 0, 74, 67
2, 6720, Note_on_c, 0, 86, 66
2, 6720, Note_on_c, 1, 62, 101
2, 6752, Note_on_c, 0, 74, 0
2, 6752, Note_on_c, 0, 86, 0
2, 6778, Note_on_c, 1, 62, 0
2, 6784, Note_on_c, 0, 76, 67
2, 6784, Note_on_c, 0, 88, 66
2, 6784, Note_on_c, 1, 64, 103
2, 6816, Note_on_c, 0, 76, 0
2, 6816, Note_on_c, 0, 88, 0
2, 6816, Note_on_c, 1, 64, 0
2, 6848, Note_on_c, 0, 77, 67
2, 6848, Note_on_c, 0, 89, 69
2, 6848, Note_on_c, 1, 65, 103
2, 6886, Note_on_c, 0, 77, 0
2, 6886, Note_on_c, 0, 89, 0
2, 6886, Note_on_c, 1, 65, 0
2, 6890, Note_on_c, 0, 79, 50
2, 6890, Note_on_c, 1, 67, 101
2, 6929, Note_on_c, 0, 79, 0
2, 6929, Note_on_c, 1, 67, 0
2, 6933, Note_on_c, 0, 88, 75
2, 6933, Note_on_c, 1, 64, 89
2, 6972, Note_on_c, 0, 88, 0
2, 6972, Note_on_c, 1, 64, 0
2, 6976, Note_on_c, 0, 77, 67
2, 6976, Note_on_c, 0, 89, 67
2, 6976, Note_on_c, 1, 65, 99
2, 7014, Note_on_c, 0, 77, 0
2, 7014, Note_on_c, 0, 89, 0
2, 7014, Note_on_c, 1, 65, 0
2, 7018, Note_on_c, 0, 79, 47
2, 7018, Note_on_c, 1, 67, 102
2, 7057, Note_on_c, 0, 79, 0
2, 7057, Note_on_c, 1, 67, 0
2, 7061, Note_on_c, 0, 88, 73
2, 7061, Note_on_c, 1, 64, 87
2, 7100, Note_on_c, 0, 88, 0
2, 7100, Note_on_c, 1, 64, 0
2, 7104, Note_on_c, 0, 77, 69
2, 7104, Note_on_c, 0, 89, 70
2, 7104, Note_on_c, 1, 65, 102
2, 7142, Note_on_c, 0, 77, 0
2, 7142, Note_on_c, 0, 89, 0
2, 7142, Note_on_c, 1, 65, 0
2, 7146, Note_on_c, 0, 79, 47
2, 7146, Note_on_c, 1, 67, 101
2, 7185, Note_on_c, 0, 79, 0
2, 7185, Note_on_c, 1, 67, 0
2, 7189, Note_on_c, 0, 88, 73
2, 7189, Note_on_c, 1, 64, 89
2, 7228, Note_on_c, 0, 88, 0
2, 7228, Note_on_c, 1, 64, 0
2, 7232, Note_on_c, 0, 77, 67
2, 7232, Note_on_c, 0, 89, 66
2, 7232, Note_on_c, 1, 65, 97
2, 7264, Note_on_c, 0, 77, 0
2, 7264, Note_on_c, 0, 89, 0
2, 7264, Note_on_c, 1, 65, 0
2, 7296, Note_on_c, 0, 79, 66
2, 7296, Note_on_c, 0, 91, 65
2, 7296, Note_on_c, 1, 67, 95
2, 7328, Note_on_c, 0, 79, 0
2, 7328, Note_on_c, 0, 91, 0
2, 7328, Note_on_c, 1, 67, 0
2, 7360, Note_on_c, 0, 81, 66
2, 7360, Note_on_c, 0, 93, 67
2, 7360, Note_on_c, 1, 69, 92
2, 7398, Note_on_c, 0, 81, 0
2, 7398, Note_on_c, 0, 93, 0
2, 7398, Note_on_c, 1, 69, 0
2, 7402, Note_on_c, 0, 82, 41
2, 7402, Note_on_c, 1, 70, 81
2, 7441, Note_on_c, 0, 82, 0
2, 7441, Note_on_c, 1, 70, 0
2, 7445, Note_on_c, 0, 91, 63
2, 7445, Note_on_c, 1, 67, 66
2, 7484, Note_on_c, 0, 91, 0
2, 7484, Note_on_c, 1, 67, 0
2, 7488, Note_on_c, 0, 81, 58
2, 7488, Note_on_c, 0, 93, 57
2, 7488, Note_on_c, 1, 69, 70
2, 7526, Note_on_c, 0, 81, 0
2, 7526, Note_on_c, 0, 93, 0
2, 7526, Note_on_c, 1, 69, 0
2, 7530, Note_on_c, 0, 82, 38
2, 7530, Note_on_c, 1, 70, 64
2, 7569, Note_on_c, 0, 82, 0
2, 7569, Note_on_c, 1, 70, 0
2, 7573, Note_on_c, 0, 91, 57
2, 7573, Note_on_c, 1, 67, 47
2, 7612, Note_on_c, 0, 91, 0
2, 7612, Note_on_c, 1, 67, 0
2, 7616, Note_on_c, 0, 81, 56
2, 7616, Note_on_c, 0, 93, 54
2, 7616, Note_on_c, 1, 69, 51
2, 7654, Note_on_c, 0, 81, 0
2, 7654, Note_on_c, 0, 93, 0
2, 7654, Note_on_c, 1, 69, 0
2, 7658, Note_on_c, 0, 82, 33
2, 7658, Note_on_c, 1, 70, 46
2, 7697, Note_on_c, 0, 82, 0
2, 7697, Note_on_c, 1, 70, 0
2, 7701, Note_on_c, 0, 91, 49
2, 7701, Note_on_c, 1, 67, 32
2, 7740, Note_on_c, 0, 91, 0
2, 7740, Note_on_c, 1, 67, 0
2, 7744, Note_on_c, 0, 81, 44
2, 7744, Note_on_c, 0, 93, 43
2, 7744, Note_on_c, 1, 69, 33
2, 7776, Note_on_c, 0, 81, 0
2, 7776, Note_on_c, 0, 93, 0
2, 7776, Note_on_c, 1, 69, 0
2, 8320, Note_on_c, 0, 81, 88
2, 8320, Note_on_c, 0, 93, 86
2, 8378, Note_on_c, 0, 81, 0
2, 8378, Note_on_c, 0, 93, 0
2, 8384, Note_on_c, 0, 79, 90
2, 8384, Note_on_c, 0, 91, 91
2, 8384, Note_on_c, 1, 67, 27
2, 8422, Note_on_c, 0, 79, 0
2, 8422, Note_on_c, 0, 91, 0
2, 8422, Note_on_c, 1, 67, 0
2, 8426, Note_on_c, 0, 82, 105
2, 8426, Note_on_c, 0, 94, 102
2, 8426, Note_on_c, 1, 70, 35
2, 8465, Note_on_c, 0, 82, 0
2, 8465, Note_on_c, 0, 94, 0
2, 8465, Note_on_c, 1, 70, 0
2, 8469, Note_on_c, 0, 88, 84
2, 8469, Note_on_c, 1, 64, 40
2, 8469, Note_on_c, 1, 76, 38
2, 8508, Note_on_c, 0, 88, 0
2, 8508, Note_on_c, 1, 64, 0
2, 8508, Note_on_c, 1, 76, 0
2, 8512, Note_on_c, 0, 79, 104
2, 8512, Note_on_c, 0, 91, 103
2, 8512, Note_on_c, 1, 67, 27
2, 8550, Note_on_c, 0, 79, 0
2, 8550, Note_on_c, 0, 91, 0
2, 8550, Note_on_c, 1, 67, 0
2, 8554, Note_on_c, 0, 82, 108
2, 8554, Note_on_c, 0, 94, 105
2, 8554, Note_on_c, 1, 70, 40
2, 8593, Note_on_c, 0, 82, 0
2, 8593, Note_on_c, 0, 94, 0
2, 8593, Note_on_c, 1, 70, 0
2, 8597, Note_on_c, 0, 88, 84
2, 8597, Note_on_c, 1, 64, 47
2, 8597, Note_on_c, 1, 76, 46
2, 8636, Note_on_c, 0, 88, 0
2, 8636, Note_on_c, 1, 64, 0
2, 8636, Note_on_c, 1, 76, 0
2, 8640, Note_on_c, 0, 77, 101
2, 8640, Note_on_c, 0, 89, 101
2, 8640, Note_on_c, 1, 65, 36
2, 8678, Note_on_c, 0, 77, 0
2, 8678, Note_on_c, 0, 89, 0
2, 8678, Note_on_c, 1, 65, 0
2, 8682, Note_on_c, 0, 81, 109
2, 8682, Note_on_c, 0, 93, 108
2, 8682, Note_on_c, 1, 69, 45
2, 8721, Note_on_c, 0, 81, 0
2, 8721, Note_on_c, 0, 93, 0
2, 8721, Note_on_c, 1, 69, 0
2, 8725, Note_on_c, 0, 86, 81
2, 8725, Note_on_c, 1, 62, 51
2, 8725, Note_on_c, 1, 74, 52
2, 8764, Note_on_c, 0, 86, 0
2, 8764, Note_on_c, 1, 62, 0
2, 8764, Note_on_c, 1, 74, 0
2, 8768, Note_on_c, 0, 77, 105
2, 8768, Note_on_c, 0, 89, 104
2, 8768, Note_on_c, 1, 65, 38
2, 8806, Note_on_c, 0, 77, 0
2, 8806, Note_on_c, 0, 89, 0
2, 8806, Note_on_c, 1, 65, 0
2, 8810, Note_on_c, 0, 81, 110
2, 8810, Note_on_c, 0, 93, 113
2, 8810, Note_on_c, 1, 69, 51
2, 8849, Note_on_c, 0, 81, 0
2, 8849, Note_on_c, 0, 93, 0
2, 8849, Note_on_c, 1, 69, 0
2, 8853, Note_on_c, 0, 86, 83
2, 8853, Note_on_c, 1, 62, 60
2, 8853, Note_on_c, 1, 74, 58
2, 8892, Note_on_c, 0, 86, 0
2, 8892, Note_on_c, 1, 62, 0
2, 8892, Note_on_c, 1, 74, 0
2, 8896, Note_on_c, 0, 76, 107
2, 8896, Note_on_c, 0, 88, 106
2, 8896, Note_on_c, 1, 64, 45
2, 8934, Note_on_c, 0, 76, 0
2, 8934, Note_on_c, 0, 88, 0
2, 8934, Note_on_c, 1, 64, 0
2, 8938, Note_on_c, 0, 79, 107
2, 8938, Note_on_c, 0, 91, 108
2, 8938, Note_on_c, 1, 67, 59
2, 8977, Note_on_c, 0, 79, 0
2, 8977, Note_on_c, 0, 91, 0
2, 8977, Note_on_c, 1, 67, 0
2, 8981, Note_on_c, 0, 84, 83
2, 8981, Note_on_c, 1, 60, 66
2, 8981, Note_on_c, 1, 72, 66
2, 9020, Note_on_c, 0, 84, 0
2, 9020, Note_on_c, 1, 60, 0
2, 9020, Note_on_c, 1, 72, 0
2, 9024, Note_on_c, 0, 76, 110
2, 9024, Note_on_c, 0, 88, 110
2, 9024, Note_on_c, 1, 64, 51
2, 9062, Note_on_c, 0, 76, 0
2, 9062, Note_on_c, 0, 88, 0
2, 9062, Note_on_c, 1, 64, 0
2, 9066, Note_on_c, 0, 79, 113
2, 9066, Note_on_c, 0, 91, 110
2, 9066, Note_on_c, 1, 67, 67
2, 9105, Note_on_c, 0, 79, 0
2, 9105, Note_on_c, 0, 91, 0
2, 9105, Note_on_c, 1, 67, 0
2, 9109, Note_on_c, 0, 84, 83
2, 9109, Note_on_c, 1, 60, 73
2, 9109, Note_on_c, 1, 72, 71
2, 9148, Note_on_c, 0, 84, 0
2, 9148, Note_on_c, 1, 60, 0
2, 9148, Note_on_c, 1, 72, 0
2, 9152, Note_on_c, 0, 74, 110
2, 9152, Note_on_c, 0, 86, 110
2, 9152, Note_on_c, 1, 62, 54
2, 9190, Note_on_c, 0, 74, 0
2, 9190, Note_on_c, 0, 86, 0
2, 9190, Note_on_c, 1, 62, 0
2, 9194, Note_on_c, 0, 77, 113
2, 9194, Note_on_c, 0, 89, 111
2, 9194, Note_on_c, 1, 65, 70
2, 9233, Note_on_c, 0, 77, 0
2, 9233, Note_on_c, 0, 89, 0
2, 9233, Note_on_c, 1, 65, 0
2, 9237, Note_on_c, 0, 82, 87
2, 9237, Note_on_c, 1, 58, 81
2, 9237, Note_on_c, 1, 70, 80
2, 9276, Note_on_c, 0, 82, 0
2, 9276, Note_on_c, 1, 58, 0
2, 9276, Note_on_c, 1, 70, 0
2, 9280, Note_on_c, 0, 74, 113
2, 9280, Note_on_c, 0, 86, 111
2, 9280, Note_on_c, 1, 62, 60
2, 9318, Note_on_c, 0, 74, 0
2, 9318, Note_on_c, 0, 86, 0
2, 9318, Note_on_c, 1, 62, 0
2, 9322, Note_on_c, 0, 77, 116
2, 9322, Note_on_c, 0, 89, 114
2, 9322, Note_on_c, 1, 65, 77
2, 9361, Note_on_c, 0, 77, 0
2, 9361, Note_on_c, 0, 89, 0
2, 9361, Note_on_c, 1, 65, 0
2, 9365, Note_on_c, 0, 82, 86
2, 9365, Note_on_c, 1, 58, 86
2, 9365, Note_on_c, 1, 70, 84
2, 9404, Note_on_c, 0, 82, 0
2, 9404, Note_on_c, 1, 58, 0
2, 9404, Note_on_c, 1, 70, 0
2, 9408, Note_on_c, 0, 72, 113
2, 9408, Note_on_c, 0, 84, 111
2, 9408, Note_on_c, 1, 60, 62
2, 9446, Note_on_c, 0, 72, 0
2, 9446, Note_on_c, 0, 84, 0
2, 9446, Note_on_c, 1, 60, 0
2, 9450, Note_on_c, 0, 76, 114
2, 9450, Note_on_c, 0, 88, 117
2, 9450, Note_on_c, 1, 64, 86
2, 9489, Note_on_c, 0, 76, 0
2, 9489, Note_on_c, 0, 88, 0
2, 9489, Note_on_c, 1, 64, 0
2, 9493, Note_on_c, 0, 81, 89
2, 9493, Note_on_c, 1, 57, 93
2, 9493, Note_on_c, 1, 69, 95
2, 9532, Note_on_c, 0, 81, 0
2, 9532, Note_on_c, 1, 57, 0
2, 9532, Note_on_c, 1, 69, 0
2, 9536, Note_on_c, 0, 72, 111
2, 9536, Note_on_c, 0, 84, 111
2, 9536, Note_on_c, 1, 60, 67
2, 9574, Note_on_c, 0, 72, 0
2, 9574, Note_on_c, 0, 84, 0
2, 9574, Note_on_c, 1, 60, 0
2, 9578, Note_on_c, 0, 76, 116
2, 9578, Note_on_c, 0, 88, 117
2, 9578, Note_on_c, 1, 64, 94
2, 9617, Note_on_c, 0, 76, 0
2, 9617, Note_on_c, 0, 88, 0
2, 9617, Note_on_c, 1, 64, 0
2, 9621, Note_on_c, 0, 81, 88
2, 9621, Note_on_c, 1, 57, 100
2, 9621, Note_on_c, 1, 69, 101
2, 9660, Note_on_c, 0, 81, 0
2, 9660, Note_on_c, 1, 57, 0
2, 9660, Note_on_c, 1, 69, 0
2, 9664, Note_on_c, 0, 70, 112
2, 9664, Note_on_c, 0, 82, 112
2, 9664, Note_on_c, 1, 58, 70
2, 9702, Note_on_c, 0, 70, 0
2, 9702, Note_on_c, 0, 82, 0
2, 9702, Note_on_c, 1, 58, 0
2, 9706, Note_on_c, 0, 74, 117
2, 9706, Note_on_c, 0, 86, 117
2, 9706, Note_on_c, 1, 62, 96
2, 9745, Note_on_c, 0, 74, 0
2, 9745, Note_on_c, 0, 86, 0
2, 9745, Note_on_c, 1, 62, 0
2, 9749, Note_on_c, 0, 79, 92
2, 9749, Note_on_c, 1, 55, 106
2, 9749, Note_on_c, 1, 67, 108
2, 9788, Note_on_c, 0, 79, 0
2, 9788, Note_on_c, 1, 55, 0
2, 9788, Note_on_c, 1, 67, 0
2, 9792, Note_on_c, 0, 70, 112
2, 9792, Note_on_c, 0, 82, 112
2, 9792, Note_on_c, 1, 58, 76
2, 9830, Note_on_c, 0, 70, 0
2, 9830, Note_on_c, 0, 82, 0
2, 9830, Note_on_c, 1, 58, 0
2, 9834, Note_on_c, 0, 74, 121
2, 9834, Note_on_c, 0, 86, 120
2, 9834, Note_on_c, 1, 62, 103
2, 9873, Note_on_c, 0, 74, 0
2, 9873, Note_on_c, 0, 86, 0
2, 9873, Note_on_c, 1, 62, 0
2, 9877, Note_on_c, 0, 79, 89
2, 9877, Note_on_c, 1, 55, 112
2, 9877, Note_on_c, 1, 67, 114
2, 9916, Note_on_c, 0, 79, 0
2, 9916, Note_on_c, 1, 55, 0
2, 9916, Note_on_c, 1, 67, 0
2, 9920, Note_on_c, 0, 69, 114
2, 9920, Note_on_c, 0, 81, 116
2, 9920, Note_on_c, 1, 57, 81
2, 9958, Note_on_c, 0, 69, 0
2, 9958, Note_on_c, 0, 81, 0
2, 9958, Note_on_c, 1, 57, 0
2, 9962, Note_on_c, 0, 72, 121
2, 9962, Note_on_c, 0, 84, 120
2, 9962, Note_on_c, 1, 60, 108
2, 10001, Note_on_c, 0, 72, 0
2, 10001, Note_on_c, 0, 84, 0
2, 10001, Note_on_c, 1, 60, 0
2, 10005, Note_on_c, 0, 77, 90
2, 10005, Note_on_c, 1, 53, 118
2, 10005, Note_on_c, 1, 65, 118
2, 10044, Note_on_c, 0, 77, 0
2, 10044, Note_on_c, 1, 53, 0
2, 10044, Note_on_c, 1, 65, 0
2, 10048, Note_on_c, 0, 69, 121
2, 10048, Note_on_c, 0, 81, 119
2, 10048, Note_on_c, 1, 57, 90
2, 10086, Note_on_c, 0, 69, 0
2, 10086, Note_on_c, 0, 81, 0
2, 10086, Note_on_c, 1, 57, 0
2, 10090, Note_on_c, 0, 72, 123
2, 10090, Note_on_c, 0, 84, 122
2, 10090, Note_on_c, 1, 60, 117
2, 10129, Note_on_c, 0, 72, 0
2, 10129, Note_on_c, 0, 84, 0
2, 10129, Note_on_c, 1, 60, 0
2, 10133, Note_on_c, 0, 77, 92
2, 10133, Note_on_c, 1, 53, 127
2, 10133, Note_on_c, 1, 65, 127
2, 10172, Note_on_c, 0, 77, 0
2, 10172, Note_on_c, 1, 53, 0
2, 10172, Note_on_c, 1, 65, 0
2, 10176, Note_on_c, 0, 67, 118
2, 10176, Note_on_c, 0, 79, 118
2, 10176, Note_on_c, 1, 55, 91
2, 10214, Note_on_c, 0, 67, 0
2, 10214, Note_on_c, 0, 79, 0
2, 10214, Note_on_c, 1, 55, 0
2, 10218, Note_on_c, 0, 70, 121
2, 10218, Note_on_c, 0, 82, 122
2, 10218, Note_on_c, 1, 58, 121
2, 10257, Note_on_c, 0, 70, 0
2, 10257, Note_on_c, 0, 82, 0
2, 10257, Note_on_c, 1, 58, 0
2, 10261, Note_on_c, 0, 76, 97
2, 10261, Note_on_c, 1, 52, 125
2, 10261, Note_on_c, 1, 64, 126
2, 10300, Note_on_c, 0, 76, 0
2, 10300, Note_on_c, 1, 52, 0
2, 10300, Note_on_c, 1, 64, 0
2, 10304, Note_on_c, 0, 67, 121
2, 10304, Note_on_c, 0, 79, 121
2, 10304, Note_on_c, 1, 55, 95
2, 10342, Note_on_c, 0, 67, 0
2, 10342, Note_on_c, 0, 79, 0
2, 10342, Note_on_c, 1, 55, 0
2, 10346, Note_on_c, 0, 70, 122
2, 10346, Note_on_c, 0, 82, 121
2, 10346, Note_on_c, 1, 58, 127
2, 10385, Note_on_c, 0, 70, 0
2, 10385, Note_on_c, 0, 82, 0
2, 10385, Note_on_c, 1, 58, 0
2, 10389, Note_on_c, 0, 76, 95
2, 10389, Note_on_c, 1, 52, 127
2, 10389, Note_on_c, 1, 64, 127
2, 10428, Note_on_c, 0, 76, 0
2, 10428, Note_on_c, 1, 52, 0
2, 10428, Note_on_c, 1, 64, 0
2, 10432, Note_on_c, 0, 65, 121
2, 10432, Note_on_c, 0, 77, 120
2, 10432, Note_on_c, 1, 53, 99
2, 10470, Note_on_c, 0, 65, 0
2, 10470, Note_on_c, 0, 77, 0
2, 10470, Note_on_c, 1, 53, 0
2, 10474, Note_on_c, 0, 69, 124
2, 10474, Note_on_c, 0, 81, 125
2, 10474, Note_on_c, 1, 57, 127
2, 10513, Note_on_c, 0, 69, 0
2, 10513, Note_on_c, 0, 81, 0
2, 10513, Note_on_c, 1, 57, 0
2, 10517, Note_on_c, 0, 74, 96
2, 10517, Note_on_c, 1, 50, 126
2, 10517, Note_on_c, 1, 62, 126
2, 10556, Note_on_c, 0, 74, 0
2, 10556, Note_on_c, 1, 50, 0
2, 10556, Note_on_c, 1, 62, 0
2, 10560, Note_on_c, 0, 65, 120
2, 10560, Note_on_c, 0, 77, 122
2, 10560, Note_on_c, 1, 53, 103
2, 10598, Note_on_c, 0, 65, 0
2, 10598, Note_on_c, 0, 77, 0
2, 10598, Note_on_c, 1, 53, 0
2, 10602, Note_on_c, 0, 69, 126
2, 10602, Note_on_c, 0, 81, 127
2, 10602, Note_on_c, 1, 57, 127
2, 10641, Note_on_c, 0, 69, 0
2, 10641, Note_on_c, 0, 81, 0
2, 10641, Note_on_c, 1, 57, 0
2, 10645, Note_on_c, 0, 74, 95
2, 10645, Note_on_c, 1, 50, 126
2, 10645, Note_on_c, 1, 62, 125
2, 10684, Note_on_c, 0, 74, 0
2, 10684, Note_on_c, 1, 50, 0
2, 10684, Note_on_c, 1, 62, 0
2, 10688, Note_on_c, 0, 64, 122
2, 10688, Note_on_c, 0, 76, 123
2, 10688, Note_on_c, 1, 52, 100
2, 10726, Note_on_c, 0, 64, 0
2, 10726, Note_on_c, 0, 76, 0
2, 10726, Note_on_c, 1, 52, 0
2, 10730, Note_on_c, 0, 67, 124
2, 10730, Note_on_c, 0, 79, 124
2, 10730, Note_on_c, 1, 55, 127
2, 10769, Note_on_c, 0, 67, 0
2, 10769, Note_on_c, 0, 79, 0
2, 10769, Note_on_c, 1, 55, 0
2, 10773, Note_on_c, 0, 72, 99
2, 10773, Note_on_c, 1, 48, 126
2, 10773, Note_on_c, 1, 60, 127
2, 10812, Note_on_c, 0, 72, 0
2, 10812, Note_on_c, 1, 48, 0
2, 10812, Note_on_c, 1, 60, 0
2, 10816, Note_on_c, 0, 64, 126
2, 10816, Note_on_c, 0, 76, 127
2, 10816, Note_on_c, 1, 52, 105
2, 10854, Note_on_c, 0, 64, 0
2, 10854, Note_on_c, 0, 76, 0
2, 10854, Note_on_c, 1, 52, 0
2, 10858, Note_on_c, 0, 67, 126
2, 10858, Note_on_c, 0, 79, 125
2, 10858, Note_on_c, 1, 55, 127
2, 10897, Note_on_c, 0, 67, 0
2, 10897, Note_on_c, 0, 79, 0
2, 10897, Note_on_c, 1, 55, 0
2, 10901, Note_on_c, 0, 72, 98
2, 10901, Note_on_c, 1, 48, 127
2, 10901, Note_on_c, 1, 60, 127
2, 10940, Note_on_c, 0, 72, 0
2, 10940, Note_on_c, 1, 48, 0
2, 10940, Note_on_c, 1, 60, 0
2, 10944, Note_on_c, 1, 26, 107
2, 10944, Note_on_c, 1, 38, 106
2, 11200, Note_on_c, 0, 70, 112
2, 11200, Note_on_c, 0, 73, 111
2, 11200, Note_on_c, 0, 76, 112
2, 11200, Note_on_c, 0, 79, 113
2, 11200, Note_on_c, 0, 82, 115
2, 11200, Note_on_c, 1, 50, 115
2, 11200, Note_on_c, 1, 55, 113
2, 11200, Note_on_c, 1, 58, 112
2, 11200, Note_on_c, 1, 61, 113
2, 11200, Note_on_c, 1, 64, 112
2, 11406, Note_on_c, 1, 26, 0
2, 11406, Note_on_c, 1, 38, 0
2, 11687, Note_on_c, 0, 73, 0
2, 11687, Note_on_c, 0, 76, 0
2, 11687, Note_on_c, 0, 79, 0
2, 11687, Note_on_c, 1, 50, 0
2, 11687, Note_on_c, 1, 55, 0
2, 11687, Note_on_c, 1, 58, 0
2, 11687, Note_on_c, 1, 61, 0
2, 11687, Note_on_c, 1, 64, 0
2, 11741, Note_on_c, 0, 70, 0
2, 11741, Note_on_c, 0, 82, 0
2, 11744, Note_on_c, 0, 81, 114
2, 11744, Note_on_c, 1, 69, 113
2, 11773, Note_on_c, 0, 81, 0
2, 11773, Note_on_c, 1, 69, 0
2, 11776, Note_on_c, 0, 79, 111
2, 11776, Note_on_c, 1, 67, 115
2, 11805, Note_on_c, 0, 79, 0
2, 11805, Note_on_c, 1, 67, 0
2, 11808, Note_on_c, 0, 77, 110
2, 11808, Note_on_c, 1, 65, 117
2, 11837, Note_on_c, 0, 77, 0
2, 11837, Note_on_c, 1, 65, 0
2, 11840, Note_on_c, 0, 76, 112
2, 11840, Note_on_c, 1, 64, 120
2, 11869, Note_on_c, 0, 76, 0
2, 11869, Note_on_c, 1, 64, 0
2, 11872, Note_on_c, 0, 74, 109
2, 11872, Note_on_c, 1, 62, 115
2, 11901, Note_on_c, 0, 74, 0
2, 11901, Note_on_c, 1, 62, 0
2, 11904, Note_on_c, 0, 73, 113
2, 11904, Note_on_c, 1, 61, 120
2, 11933, Note_on_c, 0, 73, 0
2, 11933, Note_on_c, 1, 61, 0
2, 11936, Note_on_c, 0, 71, 112
2, 11936, Note_on_c, 1, 59, 119
2, 11965, Note_on_c, 0, 71, 0
2, 11965, Note_on_c, 1, 59, 0
2, 11968, Note_on_c, 0, 73, 127
2, 11968, Note_on_c, 1, 61, 127
2, 12026, Note_on_c, 0, 73, 0
2, 12026, Note_on_c, 1, 61, 0
2, 12032, Note_on_c, 0, 69, 107
2, 12032, Note_on_c, 1, 57, 115
2, 12090, Note_on_c, 0, 69, 0
2, 12090, Note_on_c, 1, 57, 0
2, 12096, Note_on_c, 0, 73, 127
2, 12096, Note_on_c, 1, 61, 126
2, 12154, Note_on_c, 0, 73, 0
2, 12154, Note_on_c, 1, 61, 0
2, 12160, Note_on_c, 0, 76, 126
2, 12160, Note_on_c, 1, 64, 127
2, 12189, Note_on_c, 0, 76, 0
2, 12189, Note_on_c, 1, 64, 0
2, 12192, Note_on_c, 0, 79, 127
2, 12192, Note_on_c, 1, 67, 127
2, 12221, Note_on_c, 0, 79, 0
2, 12221, Note_on_c, 1, 67, 0
2, 12224, Note_on_c, 0, 77, 119
2, 12224, Note_on_c, 1, 65, 123
2, 12243, Note_on_c, 0, 77, 0
2, 12243, Note_on_c, 1, 65, 0
2, 12245, Note_on_c, 0, 79, 127
2, 12245, Note_on_c, 1, 67, 127
2, 12264, Note_on_c, 0, 79, 0
2, 12264, Note_on_c, 1, 67, 0
2, 12266, Note_on_c, 0, 77, 111
2, 12266, Note_on_c, 1, 65, 120
2, 12286, Note_on_c, 0, 77, 0
2, 12286, Note_on_c, 1, 65, 0
2, 12288, Note_on_c, 0, 79, 124
2, 12288, Note_on_c, 1, 67, 126
2, 12307, Note_on_c, 0, 79, 0
2, 12307, Note_on_c, 1, 67, 0
2, 12309, Note_on_c, 0, 77, 113
2, 12309, Note_on_c, 1, 65, 118
2, 12328, Note_on_c, 0, 77, 0
2, 12328, Note_on_c, 1, 65, 0
2, 12330, Note_on_c, 0, 79, 127
2, 12330, Note_on_c, 1, 67, 127
2, 12350, Note_on_c, 0, 79, 0
2, 12350, Note_on_c, 1, 67, 0
2, 12352, Note_on_c, 0, 77, 114
2, 12352, Note_on_c, 1, 65, 121
2, 12410, Note_on_c, 0, 77, 0
2, 12410, Note_on_c, 1, 65, 0
2, 12416, Note_on_c, 0, 76, 111
2, 12416, Note_on_c, 1, 64, 117
2, 12474, Note_on_c, 0, 76, 0
2, 12474, Note_on_c, 1, 64, 0
2, 12480, Note_on_c, 0, 65, 127
2, 12480, Note_on_c, 0, 69, 127
2, 12480, Note_on_c, 0, 74, 127
2, 12480, Note_on_c, 0, 77, 127
2, 12480, Note_on_c, 1, 38, 92
2, 12480, Note_on_c, 1, 41, 94
2, 12480, Note_on_c, 1, 45, 94
2, 12480, Note_on_c, 1, 50, 94
2, 12679, Tempo, 3750000
2, 12679, Tempo, 3750000
2, 12711, Note_on_c, 0, 65, 0
2, 12711, Note_on_c, 0, 69, 0
2, 12711, Note_on_c, 0, 74, 0
2, 12711, Note_on_c, 0, 77, 0
2, 12711, Tempo, 2400000
2, 12711, Note_on_c, 1, 38, 0
2, 12711, Note_on_c, 1, 41, 0
2, 12711, Note_on_c, 1, 45, 0
2, 12711, Note_on_c, 1, 50, 0
2, 12711, Tempo, 2400000
2, 12928, Note_on_c, 0, 81, 70
2, 12928, Note_on_c, 1, 57, 72
2, 12928, Note_on_c, 1, 69, 70
2, 12986, Note_on_c, 0, 81, 0
2, 12986, Note_on_c, 1, 57, 0
2, 12992, Note_on_c, 0, 74, 68
2, 12992, Note_on_c, 0, 86, 66
2, 12992, Note_on_c, 0, 74, 74
2, 12992, Note_on_c, 1, 62, 75
2, 12992, Note_on_c, 1, 62, 93
2, 13021, Note_on_c, 0, 74, 0
2, 13021, Note_on_c, 1, 62, 0
2, 13024, Note_on_c, 0, 74, 0
2, 13024, Note_on_c, 0, 86, 0
2, 13024, Note_on_c, 0, 81, 95
2, 13024, Note_on_c, 1, 57, 69
2, 13050, Note_on_c, 1, 62, 0
2, 13053, Note_on_c, 0, 81, 0
2, 13053, Note_on_c, 1, 57, 0
2, 13056, Note_on_c, 0, 76, 80
2, 13056, Note_on_c, 0, 88, 83
2, 13056, Note_on_c, 0, 76, 71
2, 13056, Note_on_c, 1, 64, 81
2, 13056, Note_on_c, 1, 64, 94
2, 13085, Note_on_c, 0, 76, 0
2, 13085, Note_on_c, 1, 64, 0
2, 13088, Note_on_c, 0, 76, 0
2, 13088, Note_on_c, 0, 88, 0
2, 13088, Note_on_c, 0, 81, 88
2, 13088, Note_on_c, 1, 57, 66
2, 13114, Note_on_c, 1, 64, 0
2, 13117, Note_on_c, 0, 81, 0
2, 13117, Note_on_c, 1, 57, 0
2, 13120, Note_on_c, 0, 77, 85
2, 13120, Note_on_c, 0, 89, 83
2, 13120, Note_on_c, 0, 77, 73
2, 13120, Note_on_c, 1, 65, 85
2, 13120, Note_on_c, 1, 65, 94
2, 13149, Note_on_c, 0, 77, 0
2, 13149, Note_on_c, 1, 65, 0
2, 13152, Note_on_c, 0, 77, 0
2, 13152, Note_on_c, 0, 89, 0
2, 13152, Note_on_c, 0, 81, 89
2, 13152, Note_on_c, 1, 57, 67
2, 13178, Note_on_c, 1, 65, 0
2, 13181, Note_on_c, 0, 81, 0
2, 13181, Note_on_c, 1, 57, 0
2, 13184, Note_on_c, 0, 74, 75
2, 13184, Note_on_c, 0, 86, 74
2, 13184, Note_on_c, 0, 74, 65
2, 13184, Note_on_c, 1, 62, 74
2, 13184, Note_on_c, 1, 62, 87
2, 13213, Note_on_c, 0, 74, 0
2, 13213, Note_on_c, 1, 62, 0
2, 13216, Note_on_c, 0, 74, 0
2, 13216, Note_on_c, 0, 86, 0
2, 13216, Note_on_c, 0, 81, 91
2, 13216, Note_on_c, 1, 57, 70
2, 13242, Note_on_c, 1, 62, 0
2, 13245, Note_on_c, 0, 81, 0
2, 13245, Note_on_c, 1, 57, 0
2, 13248, Note_on_c, 0, 76, 88
2, 13248, Note_on_c, 0, 88, 86
2, 13248, Note_on_c, 0, 76, 74
2, 13248, Note_on_c, 1, 64, 89
2, 13248, Note_on_c, 1, 64, 94
2, 13277, Note_on_c, 0, 76, 0
2, 13277, Note_on_c, 1, 64, 0
2, 13280, Note_on_c, 0, 76, 0
2, 13280, Note_on_c, 0, 88, 0
2, 13280, Note_on_c, 0, 81, 91
2, 13280, Note_on_c, 1, 57, 67
2, 13306, Note_on_c, 1, 64, 0
2, 13309, Note_on_c, 0, 81, 0
2, 13309, Note_on_c, 1, 57, 0
2, 13312, Note_on_c, 0, 77, 83
2, 13312, Note_on_c, 0, 89, 83
2, 13312, Note_on_c, 0, 77, 72
2, 13312, Note_on_c, 1, 65, 83
2, 13312, Note_on_c, 1, 65, 95
2, 13341, Note_on_c, 0, 77, 0
2, 13341, Note_on_c, 1, 65, 0
2, 13344, Note_on_c, 0, 77, 0
2, 13344, Note_on_c, 0, 89, 0
2, 13344, Note_on_c, 0, 81, 87
2, 13344, Note_on_c, 1, 57, 66
2, 13370, Note_on_c, 1, 65, 0
2, 13373, Note_on_c, 0, 81, 0
2, 13373, Note_on_c, 1, 57, 0
2, 13376, Note_on_c, 0, 79, 85
2, 13376, Note_on_c, 0, 91, 83
2, 13376, Note_on_c, 0, 79, 78
2, 13376, Note_on_c, 1, 67, 87
2, 13376, Note_on_c, 1, 67, 94
2, 13405, Note_on_c, 0, 79, 0
2, 13405, Note_on_c, 1, 67, 0
2, 13408, Note_on_c, 0, 79, 0
2, 13408, Note_on_c, 0, 91, 0
2, 13408, Note_on_c, 0, 81, 84
2, 13408, Note_on_c, 1, 57, 63
2, 13434, Note_on_c, 1, 67, 0
2, 13437, Note_on_c, 0, 81, 0
2, 13437, Note_on_c, 1, 57, 0
2, 13440, Note_on_c, 0, 76, 72
2, 13440, Note_on_c, 0, 88, 72
2, 13440, Note_on_c, 0, 76, 68
2, 13440, Note_on_c, 1, 64, 74
2, 13440, Note_on_c, 1, 64, 92
2, 13454, Note_on_c, 1, 69, 0
2, 13469, Note_on_c, 0, 76, 0
2, 13469, Note_on_c, 1, 64, 0
2, 13472, Note_on_c, 0, 76, 0
2, 13472, Note_on_c, 0, 88, 0
2, 13472, Note_on_c, 0, 81, 90
2, 13472, Note_on_c, 1, 57, 65
2, 13498, Note_on_c, 1, 64, 0
2, 13501, Note_on_c, 0, 81, 0
2, 13501, Note_on_c, 1, 57, 0
2, 13504, Note_on_c, 0, 77, 88
2, 13504, Note_on_c, 0, 89, 85
2, 13504, Note_on_c, 1, 65, 97
2, 13533, Note_on_c, 1, 65, 0
2, 13536, Note_on_c, 0, 81, 73
2, 13536, Note_on_c, 1, 57, 68
2, 13562, Note_on_c, 0, 77, 0
2, 13562, Note_on_c, 0, 89, 0
2, 13565, Note_on_c, 1, 57, 0
2, 13568, Note_on_c, 0, 79, 84
2, 13568, Note_on_c, 0, 91, 84
2, 13568, Note_on_c, 1, 67, 96
2, 13594, Note_on_c, 0, 81, 0
2, 13597, Note_on_c, 1, 67, 0
2, 13600, Note_on_c, 0, 81, 79
2, 13600, Note_on_c, 1, 57, 62
2, 13626, Note_on_c, 0, 79, 0
2, 13626, Note_on_c, 0, 91, 0
2, 13629, Note_on_c, 1, 57, 0
2, 13632, Note_on_c, 0, 81, 86
2, 13632, Note_on_c, 0, 93, 86
2, 13632, Note_on_c, 1, 69, 100
2, 13658, Note_on_c, 0, 81, 0
2, 13661, Note_on_c, 1, 69, 0
2, 13664, Note_on_c, 0, 81, 80
2, 13664, Note_on_c, 1, 57, 61
2, 13690, Note_on_c, 0, 81, 0
2, 13690, Note_on_c, 0, 93, 0
2, 13693, Note_on_c, 1, 57, 0
2, 13696, Note_on_c, 0, 77, 69
2, 13696, Note_on_c, 0, 89, 70
2, 13696, Note_on_c, 1, 65, 92
2, 13722, Note_on_c, 0, 81, 0
2, 13725, Note_on_c, 1, 65, 0
2, 13728, Note_on_c, 0, 81, 81
2, 13728, Note_on_c, 1, 57, 68
2, 13754, Note_on_c, 0, 77, 0
2, 13754, Note_on_c, 0, 89, 0
2, 13757, Note_on_c, 1, 57, 0
2, 13760, Note_on_c, 0, 79, 86
2, 13760, Note_on_c, 0, 91, 88
2, 13760, Note_on_c, 1, 67, 99
2, 13786, Note_on_c, 0, 81, 0
2, 13789, Note_on_c, 1, 67, 0
2, 13792, Note_on_c, 0, 81, 79
2, 13792, Note_on_c, 1, 57, 64
2, 13818, Note_on_c, 0, 79, 0
2, 13818, Note_on_c, 0, 91, 0
2, 13821, Note_on_c, 1, 57, 0
2, 13824, Note_on_c, 0, 81, 86
2, 13824, Note_on_c, 0, 93, 84
2, 13824, Note_on_c, 1, 69, 97
2, 13850, Note_on_c, 0, 81, 0
2, 13853, Note_on_c, 1, 69, 0
2, 13856, Note_on_c, 0, 81, 79
2, 13856, Note_on_c, 1, 57, 62
2, 13882, Note_on_c, 0, 81, 0
2, 13882, Note_on_c, 0, 93, 0
2, 13885, Note_on_c, 1, 57, 0
2, 13888, Note_on_c, 0, 82, 84
2, 13888, Note_on_c, 0, 94, 84
2, 13888, Note_on_c, 1, 70, 99
2, 13914, Note_on_c, 0, 81, 0
2, 13917, Note_on_c, 1, 70, 0
2, 13920, Note_on_c, 0, 81, 79
2, 13920, Note_on_c, 1, 57, 61
2, 13946, Note_on_c, 0, 82, 0
2, 13946, Note_on_c, 0, 94, 0
2, 13949, Note_on_c, 1, 57, 0
2, 13952, Note_on_c, 0, 79, 75
2, 13952, Note_on_c, 0, 91, 73
2, 13952, Note_on_c, 1, 67, 95
2, 13978, Note_on_c, 0, 81, 0
2, 13981, Note_on_c, 1, 67, 0
2, 13984, Note_on_c, 0, 81, 80
2, 13984, Note_on_c, 1, 57, 62
2, 14010, Note_on_c, 0, 79, 0
2, 14010, Note_on_c, 0, 91, 0
2, 14013, Note_on_c, 1, 57, 0
2, 14016, Note_on_c, 0, 81, 88
2, 14016, Note_on_c, 0, 93, 87
2, 14016, Note_on_c, 1, 69, 70
2, 14016, Note_on_c, 1, 69, 103
2, 14042, Note_on_c, 0, 81, 0
2, 14045, Note_on_c, 1, 69, 0
2, 14048, Note_on_c, 0, 81, 80
2, 14048, Note_on_c, 1, 57, 60
2, 14074, Note_on_c, 0, 81, 0
2, 14074, Note_on_c, 0, 93, 0
2, 14077, Note_on_c, 1, 57, 0
2, 14080, Note_on_c, 0, 77, 69
2, 14080, Note_on_c, 0, 89, 72
2, 14080, Note_on_c, 1, 65, 93
2, 14106, Note_on_c, 0, 81, 0
2, 14109, Note_on_c, 1, 65, 0
2, 14112, Note_on_c, 0, 81, 79
2, 14112, Note_on_c, 1, 57, 66
2, 14138, Note_on_c, 0, 77, 0
2, 14138, Note_on_c, 0, 89, 0
2, 14141, Note_on_c, 1, 57, 0
2, 14144, Note_on_c, 0, 79, 83
2, 14144, Note_on_c, 0, 91, 83
2, 14144, Note_on_c, 1, 67, 94
2, 14170, Note_on_c, 0, 81, 0
2, 14173, Note_on_c, 1, 67, 0
2, 14176, Note_on_c, 0, 81, 79
2, 14176, Note_on_c, 1, 57, 61
2, 14202, Note_on_c, 0, 79, 0
2, 14202, Note_on_c, 0, 91, 0
2, 14205, Note_on_c, 1, 57, 0
2, 14208, Note_on_c, 0, 76, 72
2, 14208, Note_on_c, 0, 88, 74
2, 14208, Note_on_c, 1, 64, 89
2, 14234, Note_on_c, 0, 81, 0
2, 14237, Note_on_c, 1, 64, 0
2, 14240, Note_on_c, 0, 81, 82
2, 14240, Note_on_c, 1, 57, 67
2, 14266, Note_on_c, 0, 76, 0
2, 14266, Note_on_c, 0, 88, 0
2, 14269, Note_on_c, 1, 57, 0
2, 14272, Note_on_c, 0, 77, 87
2, 14272, Note_on_c, 0, 89, 87
2, 14272, Note_on_c, 1, 65, 95
2, 14298, Note_on_c, 0, 81, 0
2, 14301, Note_on_c, 1, 65, 0
2, 14304, Note_on_c, 0, 81, 79
2, 14304, Note_on_c, 1, 57, 67
2, 14330, Note_on_c, 0, 77, 0
2, 14330, Note_on_c, 0, 89, 0
2, 14333, Note_on_c, 1, 57, 0
2, 14336, Note_on_c, 0, 74, 71
2, 14336, Note_on_c, 0, 86, 72
2, 14336, Note_on_c, 1, 62, 89
2, 14362, Note_on_c, 0, 81, 0
2, 14365, Note_on_c, 1, 62, 0
2, 14368, Note_on_c, 0, 81, 79
2, 14368, Note_on_c, 1, 57, 70
2, 14394, Note_on_c, 0, 74, 0
2, 14394, Note_on_c, 0, 86, 0
2, 14397, Note_on_c, 1, 57, 0
2, 14400, Note_on_c, 0, 76, 84
2, 14400, Note_on_c, 0, 88, 81
2, 14400, Note_on_c, 1, 64, 94
2, 14426, Note_on_c, 0, 81, 0
2, 14429, Note_on_c, 1, 64, 0
2, 14432, Note_on_c, 0, 81, 79
2, 14432, Note_on_c, 1, 57, 67
2, 14458, Note_on_c, 0, 76, 0
2, 14458, Note_on_c, 0, 88, 0
2, 14461, Note_on_c, 1, 57, 0
2, 14464, Note_on_c, 0, 73, 72
2, 14464, Note_on_c, 0, 85, 73
2, 14464, Note_on_c, 1, 61, 86
2, 14478, Note_on_c, 1, 69, 0
2, 14490, Note_on_c, 0, 81, 0
2, 14493, Note_on_c, 1, 61, 0
2, 14496, Note_on_c, 0, 81, 81
2, 14496, Note_on_c, 1, 57, 70
2, 14522, Note_on_c, 0, 73, 0
2, 14522, Note_on_c, 0, 85, 0
2, 14525, Note_on_c, 0, 81, 0
2, 14525, Note_on_c, 1, 57, 0
2, 14528, Note_on_c, 0, 74, 104
2, 14528, Note_on_c, 0, 86, 103
2, 14528, Note_on_c, 1, 62, 93
2, 14557, Note_on_c, 1, 62, 0
2, 14560, Note_on_c, 0, 69, 70
2, 14560, Note_on_c, 1, 57, 69
2, 14586, Note_on_c, 0, 74, 0
2, 14586, Note_on_c, 0, 86, 0
2, 14589, Note_on_c, 0, 69, 0
2, 14589, Note_on_c, 1, 57, 0
2, 14592, Note_on_c, 0, 81, 72
2, 14592, Note_on_c, 1, 69, 98
2, 14621, Note_on_c, 1, 69, 0
2, 14624, Note_on_c, 0, 69, 73
2, 14624, Note_on_c, 1, 57, 61
2, 14650, Note_on_c, 0, 81, 0
2, 14653, Note_on_c, 1, 57, 0
2, 14656, Note_on_c, 0, 82, 82
2, 14656, Note_on_c, 1, 70, 100
2, 14682, Note_on_c, 0, 69, 0
2, 14685, Note_on_c, 1, 70, 0
2, 14688, Note_on_c, 0, 69, 79
2, 14688, Note_on_c, 1, 57, 62
2, 14714, Note_on_c, 0, 82, 0
2, 14717, Note_on_c, 1, 57, 0
2, 14720, Note_on_c, 0, 79, 74
2, 14720, Note_on_c, 1, 67, 94
2, 14746, Note_on_c, 0, 69, 0
2, 14749, Note_on_c, 1, 67, 0
2, 14752, Note_on_c, 0, 69, 80
2, 14752, Note_on_c, 1, 57, 62
2, 14778, Note_on_c, 0, 79, 0
2, 14781, Note_on_c, 1, 57, 0
2, 14784, Note_on_c, 0, 81, 87
2, 14784, Note_on_c, 1, 69, 102
2, 14810, Note_on_c, 0, 69, 0
2, 14813, Note_on_c, 1, 69, 0
2, 14816, Note_on_c, 0, 69, 80
2, 14816, Note_on_c, 1, 57, 61
2, 14842, Note_on_c, 0, 81, 0
2, 14845, Note_on_c, 1, 57, 0
2, 14848, Note_on_c, 0, 77, 73
2, 14848, Note_on_c, 1, 65, 93
2, 14874, Note_on_c, 0, 69, 0
2, 14877, Note_on_c, 1, 65, 0
2, 14880, Note_on_c, 0, 69, 81
2, 14880, Note_on_c, 1, 57, 65
2, 14906, Note_on_c, 0, 77, 0
2, 14909, Note_on_c, 1, 57, 0
2, 14912, Note_on_c, 0, 79, 83
2, 14912, Note_on_c, 1, 67, 95
2, 14938, Note_on_c, 0, 69, 0
2, 14941, Note_on_c, 1, 67, 0
2, 14944, Note_on_c, 0, 69, 80
2, 14944, Note_on_c, 1, 57, 65
2, 14970, Note_on_c, 0, 79, 0
2, 14973, Note_on_c, 1, 57, 0
2, 14976, Note_on_c, 0, 76, 73
2, 14976, Note_on_c, 1, 64, 90
2, 15002, Note_on_c, 0, 69, 0
2, 15005, Note_on_c, 1, 64, 0
2, 15008, Note_on_c, 0, 69, 82
2, 15008, Note_on_c, 1, 57, 67
2, 15034, Note_on_c, 0, 76, 0
2, 15037, Note_on_c, 0, 69, 0
2, 15037, Note_on_c, 1, 57, 0
2, 15040, Note_on_c, 0, 77, 87
2, 15040, Note_on_c, 1, 65, 96
2, 15069, Note_on_c, 1, 65, 0
2, 15072, Note_on_c, 0, 69, 71
2, 15072, Note_on_c, 1, 57, 65
2, 15098, Note_on_c, 0, 77, 0
2, 15101, Note_on_c, 0, 69, 0
2, 15101, Note_on_c, 1, 57, 0
2, 15104, Note_on_c, 0, 74, 71
2, 15104, Note_on_c, 0, 69, 78
2, 15104, Note_on_c, 1, 62, 86
2, 15133, Note_on_c, 0, 69, 0
2, 15133, Note_on_c, 1, 62, 0
2, 15136, Note_on_c, 0, 69, 79
2, 15136, Note_on_c, 1, 57, 68
2, 15162, Note_on_c, 0, 74, 0
2, 15165, Note_on_c, 0, 69, 0
2, 15165, Note_on_c, 1, 57, 0
2, 15168, Note_on_c, 0, 79, 90
2, 15168, Note_on_c, 0, 69, 81
2, 15168, Note_on_c, 1, 67, 97
2, 15197, Note_on_c, 0, 69, 0
2, 15197, Note_on_c, 1, 67, 0
2, 15200, Note_on_c, 0, 69, 82
2, 15200, Note_on_c, 1, 57, 63
2, 15226, Note_on_c, 0, 79, 0
2, 15229, Note_on_c, 0, 69, 0
2, 15229, Note_on_c, 1, 57, 0
2, 15232, Note_on_c, 0, 76, 73
2, 15232, Note_on_c, 0, 69, 81
2, 15232, Note_on_c, 1, 64, 91
2, 15261, Note_on_c, 0, 69, 0
2, 15261, Note_on_c, 1, 64, 0
2, 15264, Note_on_c, 0, 69, 82
2, 15264, Note_on_c, 1, 57, 69
2, 15290, Note_on_c, 0, 76, 0
2, 15293, Note_on_c, 0, 69, 0
2, 15293, Note_on_c, 1, 57, 0
2, 15296, Note_on_c, 0, 77, 88
2, 15296, Note_on_c, 0, 69, 85
2, 15296, Note_on_c, 1, 65, 95
2, 15325, Note_on_c, 0, 69, 0
2, 15325, Note_on_c, 1, 65, 0
2, 15328, Note_on_c, 0, 69, 80
2, 15328, Note_on_c, 1, 57, 64
2, 15354, Note_on_c, 0, 77, 0
2, 15357, Note_on_c, 0, 69, 0
2, 15357, Note_on_c, 1, 57, 0
2, 15360, Note_on_c, 0, 74, 73
2, 15360, Note_on_c, 0, 69, 79
2, 15360, Note_on_c, 1, 62, 89
2, 15389, Note_on_c, 0, 69, 0
2, 15389, Note_on_c, 1, 62, 0
2, 15392, Note_on_c, 0, 69, 81
2, 15392, Note_on_c, 1, 57, 71
2, 15418, Note_on_c, 0, 74, 0
2, 15421, Note_on_c, 0, 69, 0
2, 15421, Note_on_c, 1, 57, 0
2, 15424, Note_on_c, 0, 76, 82
2, 15424, Note_on_c, 0, 69, 78
2, 15424, Note_on_c, 1, 64, 93
2, 15453, Note_on_c, 0, 69, 0
2, 15453, Note_on_c, 1, 64, 0
2, 15456, Note_on_c, 0, 69, 81
2, 15456, Note_on_c, 1, 57, 66
2, 15482, Note_on_c, 0, 76, 0
2, 15485, Note_on_c, 0, 69, 0
2, 15485, Note_on_c, 1, 57, 0
2, 15488, Note_on_c, 0, 73, 73
2, 15488, Note_on_c, 0, 69, 81
2, 15488, Note_on_c, 1, 61, 88
2, 15517, Note_on_c, 0, 69, 0
2, 15517, Note_on_c, 1, 61, 0
2, 15520, Note_on_c, 0, 69, 82
2, 15520, Note_on_c, 1, 57, 72
2, 15546, Note_on_c, 0, 73, 0
2, 15549, Note_on_c, 0, 69, 0
2, 15549, Note_on_c, 1, 57, 0
2, 15552, Note_on_c, 0, 74, 84
2, 15552, Note_on_c, 0, 69, 81
2, 15552, Note_on_c, 1, 62, 91
2, 15581, Note_on_c, 0, 69, 0
2, 15581, Note_on_c, 1, 62, 0
2, 15584, Note_on_c, 0, 69, 80
2, 15584, Note_on_c, 1, 57, 70
2, 15610, Note_on_c, 0, 74, 0
2, 15613, Note_on_c, 0, 69, 0
2, 15613, Note_on_c, 1, 57, 0
2, 15616, Note_on_c, 0, 57, 69
2, 15616, Note_on_c, 0, 69, 67
2, 15645, Note_on_c, 0, 57, 0
2, 15645, Note_on_c, 0, 69, 0
2, 15648, Note_on_c, 0, 69, 99
2, 15648, Note_on_c, 0, 81, 101
2, 15677, Note_on_c, 0, 69, 0
2, 15677, Note_on_c, 0, 81, 0
2, 15680, Note_on_c, 0, 58, 63
2, 15680, Note_on_c, 0, 70, 64
2, 15709, Note_on_c, 0, 58, 0
2, 15709, Note_on_c, 0, 70, 0
2, 15712, Note_on_c, 0, 69, 99
2, 15712, Note_on_c, 0, 81, 100
2, 15741, Note_on_c, 0, 69, 0
2, 15741, Note_on_c, 0, 81, 0
2, 15744, Note_on_c, 0, 55, 64
2, 15744, Note_on_c, 0, 67, 61
2, 15773, Note_on_c, 0, 55, 0
2, 15773, Note_on_c, 0, 67, 0
2, 15776, Note_on_c, 0, 69, 99
2, 15776, Note_on_c, 0, 81, 101
2, 15805, Note_on_c, 0, 69, 0
2, 15805, Note_on_c, 0, 81, 0
2, 15808, Note_on_c, 0, 57, 64
2, 15808, Note_on_c, 0, 69, 68
2, 15837, Note_on_c, 0, 57, 0
2, 15837, Note_on_c, 0, 69, 0
2, 15840, Note_on_c, 0, 69, 103
2, 15840, Note_on_c, 0, 81, 103
2, 15869, Note_on_c, 0, 69, 0
2, 15869, Note_on_c, 0, 81, 0
2, 15872, Note_on_c, 0, 53, 63
2, 15872, Note_on_c, 0, 65, 64
2, 15901, Note_on_c, 0, 53, 0
2, 15901, Note_on_c, 0, 65, 0
2, 15904, Note_on_c, 0, 69, 102
2, 15904, Note_on_c, 0, 81, 104
2, 15933, Note_on_c, 0, 69, 0
2, 15933, Note_on_c, 0, 81, 0
2, 15936, Note_on_c, 0, 55, 64
2, 15936, Note_on_c, 0, 67, 63
2, 15965, Note_on_c, 0, 55, 0
2, 15965, Note_on_c, 0, 67, 0
2, 15968, Note_on_c, 0, 69, 105
2, 15968, Note_on_c, 0, 81, 107
2, 15997, Note_on_c, 0, 69, 0
2, 15997, Note_on_c, 0, 81, 0
2, 16000, Note_on_c, 0, 52, 66
2, 16000, Note_on_c, 0, 64, 67
2, 16029, Note_on_c, 0, 52, 0
2, 16029, Note_on_c, 0, 64, 0
2, 16032, Note_on_c, 0, 69, 108
2, 16032, Note_on_c, 0, 81, 107
2, 16061, Note_on_c, 0, 69, 0
2, 16061, Note_on_c, 0, 81, 0
2, 16064, Note_on_c, 0, 53, 68
2, 16064, Note_on_c, 0, 65, 70
2, 16093, Note_on_c, 0, 53, 0
2, 16093, Note_on_c, 0, 65, 0
2, 16096, Note_on_c, 0, 69, 109
2, 16096, Note_on_c, 0, 77, 109
2, 16096, Note_on_c, 0, 81, 110
2, 16125, Note_on_c, 0, 69, 0
2, 16125, Note_on_c, 0, 77, 0
2, 16125, Note_on_c, 0, 81, 0
2, 16128, Note_on_c, 0, 50, 67
2, 16128, Note_on_c, 0, 62, 69
2, 16157, Note_on_c, 0, 50, 0
2, 16157, Note_on_c, 0, 62, 0
2, 16160, Note_on_c, 0, 69, 109
2, 16160, Note_on_c, 0, 74, 108
2, 16160, Note_on_c, 0, 81, 109
2, 16189, Note_on_c, 0, 69, 0
2, 16189, Note_on_c, 0, 74, 0
2, 16189, Note_on_c, 0, 81, 0
2, 16192, Note_on_c, 0, 55, 66
2, 16192, Note_on_c, 0, 67, 67
2, 16221, Note_on_c, 0, 55, 0
2, 16221, Note_on_c, 0, 67, 0
2, 16224, Note_on_c, 0, 69, 110
2, 16224, Note_on_c, 0, 77, 110
2, 16224, Note_on_c, 0, 81, 111
2, 16253, Note_on_c, 0, 69, 0
2, 16253, Note_on_c, 0, 77, 0
2, 16253, Note_on_c, 0, 81, 0
2, 16256, Note_on_c, 0, 52, 69
2, 16256, Note_on_c, 0, 64, 68
2, 16285, Note_on_c, 0, 52, 0
2, 16285, Note_on_c, 0, 64, 0
2, 16288, Note_on_c, 0, 69, 110
2, 16288, Note_on_c, 0, 76, 114
2, 16288, Note_on_c, 0, 81, 110
2, 16317, Note_on_c, 0, 69, 0
2, 16317, Note_on_c, 0, 76, 0
2, 16317, Note_on_c, 0, 81, 0
2, 16320, Note_on_c, 0, 53, 71
2, 16320, Note_on_c, 0, 57, 75
2, 16320, Note_on_c, 0, 65, 73
2, 16349, Note_on_c, 0, 53, 0
2, 16349, Note_on_c, 0, 57, 0
2, 16349, Note_on_c, 0, 65, 0
2, 16352, Note_on_c, 0, 69, 114
2, 16352, Note_on_c, 0, 77, 115
2, 16352, Note_on_c, 0, 81, 112
2, 16381, Note_on_c, 0, 69, 0
2, 16381, Note_on_c, 0, 77, 0
2, 16381, Note_on_c, 0, 81, 0
2, 16384, Note_on_c, 0, 50, 70
2, 16384, Note_on_c, 0, 57, 71
2, 16384, Note_on_c, 0, 62, 72
2, 16413, Note_on_c, 0, 50, 0
2, 16413, Note_on_c, 0, 57, 0
2, 16413, Note_on_c, 0, 62, 0
2, 16416, Note_on_c, 0, 69, 118
2, 16416, Note_on_c, 0, 74, 116
2, 16416, Note_on_c, 0, 81, 115
2, 16445, Note_on_c, 0, 69, 0
2, 16445, Note_on_c, 0, 74, 0
2, 16445, Note_on_c, 0, 81, 0
2, 16448, Note_on_c, 0, 52, 70
2, 16448, Note_on_c, 0, 57, 72
2, 16448, Note_on_c, 0, 64, 71
2, 16477, Note_on_c, 0, 52, 0
2, 16477, Note_on_c, 0, 57, 0
2, 16477, Note_on_c, 0, 64, 0
2, 16480, Note_on_c, 0, 69, 115
2, 16480, Note_on_c, 0, 76, 117
2, 16480, Note_on_c, 0, 81, 116
2, 16509, Note_on_c, 0, 69, 0
2, 16509, Note_on_c, 0, 76, 0
2, 16509, Note_on_c, 0, 81, 0
2, 16512, Note_on_c, 0, 49, 72
2, 16512, Note_on_c, 0, 57, 74
2, 16512, Note_on_c, 0, 61, 72
2, 16541, Note_on_c, 0, 49, 0
2, 16541, Note_on_c, 0, 57, 0
2, 16541, Note_on_c, 0, 61, 0
2, 16544, Note_on_c, 0, 69, 120
2, 16544, Note_on_c, 0, 73, 119
2, 16544, Note_on_c, 0, 81, 119
2, 16573, Note_on_c, 0, 69, 0
2, 16573, Note_on_c, 0, 73, 0
2, 16573, Note_on_c, 0, 81, 0
2, 16576, Note_on_c, 0, 50, 85
2, 16576, Note_on_c, 0, 62, 84
2, 16576, Note_on_c, 0, 74, 84
2, 16692, Note_on_c, 0, 50, 0
2, 16692, Note_on_c, 0, 62, 0
2, 16692, Note_on_c, 0, 74, 0
2, 16704, Note_on_c, 0, 82, 82
2, 16704, Note_on_c, 1, 62, 69
2, 16704, Note_on_c, 1, 74, 73
2, 16733, Note_on_c, 0, 82, 0
2, 16733, Note_on_c, 1, 62, 0
2, 16733, Note_on_c, 1, 74, 0
2, 16736, Note_on_c, 0, 89, 112
2, 16736, Note_on_c, 1, 65, 61
2, 16765, Note_on_c, 0, 89, 0
2, 16765, Note_on_c, 1, 65, 0
2, 16768, Note_on_c, 0, 86, 111
2, 16768, Note_on_c, 0, 94, 112
2, 16768, Note_on_c, 1, 70, 86
2, 16797, Note_on_c, 0, 86, 0
2, 16797, Note_on_c, 0, 94, 0
2, 16797, Note_on_c, 1, 70, 0
2, 16800, Note_on_c, 0, 89, 86
2, 16800, Note_on_c, 1, 65, 68
2, 16829, Note_on_c, 0, 89, 0
2, 16829, Note_on_c, 1, 65, 0
2, 16832, Note_on_c, 0, 81, 79
2, 16832, Note_on_c, 1, 60, 96
2, 16832, Note_on_c, 1, 72, 96
2, 16861, Note_on_c, 0, 81, 0
2, 16861, Note_on_c, 1, 60, 0
2, 16861, Note_on_c, 1, 72, 0
2, 16864, Note_on_c, 0, 88, 109
2, 16864, Note_on_c, 1, 64, 66
2, 16893, Note_on_c, 0, 88, 0
2, 16893, Note_on_c, 1, 64, 0
2, 16896, Note_on_c, 0, 84, 109
2, 16896, Note_on_c, 0, 93, 109
2, 16896, Note_on_c, 1, 69, 87
2, 16925, Note_on_c, 0, 84, 0
2, 16925, Note_on_c, 0, 93, 0
2, 16925, Note_on_c, 1, 69, 0
2, 16928, Note_on_c, 0, 88, 87
2, 16928, Note_on_c, 1, 64, 70
2, 16957, Note_on_c, 0, 88, 0
2, 16957, Note_on_c, 1, 64, 0
2, 16960, Note_on_c, 0, 79, 71
2, 16960, Note_on_c, 1, 58, 89
2, 16960, Note_on_c, 1, 70, 89
2, 16989, Note_on_c, 0, 79, 0
2, 16989, Note_on_c, 1, 58, 0
2, 16989, Note_on_c, 1, 70, 0
2, 16992, Note_on_c, 0, 86, 110
2, 16992, Note_on_c, 1, 62, 65
2, 17021, Note_on_c, 0, 86, 0
2, 17021, Note_on_c, 1, 62, 0
2, 17024, Note_on_c, 0, 82, 112
2, 17024, Note_on_c, 0, 91, 113
2, 17024, Note_on_c, 1, 67, 88
2, 17053, Note_on_c, 0, 82, 0
2, 17053, Note_on_c, 0, 91, 0
2, 17053, Note_on_c, 1, 67, 0
2, 17056, Note_on_c, 0, 86, 84
2, 17056, Note_on_c, 1, 62, 70
2, 17085, Note_on_c, 0, 86, 0
2, 17085, Note_on_c, 1, 62, 0
2, 17088, Note_on_c, 0, 81, 84
2, 17088, Note_on_c, 1, 57, 69
2, 17117, Note_on_c, 0, 81, 0
2, 17117, Note_on_c, 1, 57, 0
2, 17120, Note_on_c, 0, 85, 102
2, 17120, Note_on_c, 1, 64, 93
2, 17149, Note_on_c, 0, 85, 0
2, 17149, Note_on_c, 1, 64, 0
2, 17152, Note_on_c, 0, 88, 105
2, 17152, Note_on_c, 1, 61, 91
2, 17152, Note_on_c, 1, 69, 90
2, 17181, Note_on_c, 0, 88, 0
2, 17184, Note_on_c, 0, 81, 108
2, 17184, Note_on_c, 0, 93, 110
2, 17210, Note_on_c, 1, 61, 0
2, 17210, Note_on_c, 1, 69, 0
2, 17213, Note_on_c, 0, 81, 0
2, 17213, Note_on_c, 0, 93, 0
2, 17216, Note_on_c, 0, 62, 98
2, 17216, Note_on_c, 1, 38, 101
2, 17216, Note_on_c, 1, 50, 97
2, 17280, Note_on_c, 0, 58, 99
2, 17280, Note_on_c, 0, 65, 100
2, 17280, Note_on_c, 0, 70, 98
2, 17280, Note_on_c, 1, 50, 99
2, 17280, Note_on_c, 1, 53, 98
2, 17332, Note_on_c, 0, 62, 0
2, 17332, Note_on_c, 1, 38, 0
2, 17332, Note_on_c, 1, 50, 0
2, 17338, Note_on_c, 0, 58, 0
2, 17338, Note_on_c, 0, 65, 0
2, 17338, Note_on_c, 0, 70, 0
2, 17338, Note_on_c, 1, 50, 0
2, 17338, Note_on_c, 1, 53, 0
2, 17344, Note_on_c, 0, 60, 107
2, 17344, Note_on_c, 1, 36, 105
2, 17344, Note_on_c, 1, 48, 105
2, 17408, Note_on_c, 0, 57, 100
2, 17408, Note_on_c, 0, 64, 98
2, 17408, Note_on_c, 0, 69, 100
2, 17408, Note_on_c, 1, 48, 97
2, 17408, Note_on_c, 1, 52, 97
2, 17460, Note_on_c, 0, 60, 0
2, 17460, Note_on_c, 1, 36, 0
2, 17460, Note_on_c, 1, 48, 0
2, 17466, Note_on_c, 0, 57, 0
2, 17466, Note_on_c, 0, 64, 0
2, 17466, Note_on_c, 0, 69, 0
2, 17466, Note_on_c, 1, 48, 0
2, 17466, Note_on_c, 1, 52, 0
2, 17472, Note_on_c, 0, 58, 101
2, 17472, Note_on_c, 1, 34, 104
2, 17472, Note_on_c, 1, 46, 104
2, 17536, Note_on_c, 0, 55, 101
2, 17536, Note_on_c, 0, 62, 100
2, 17536, Note_on_c, 0, 67, 97
2, 17536, Note_on_c, 1, 46, 100
2, 17536, Note_on_c, 1, 50, 97
2, 17588, Note_on_c, 0, 58, 0
2, 17588, Note_on_c, 1, 34, 0
2, 17588, Note_on_c, 1, 46, 0
2, 17594, Note_on_c, 0, 55, 0
2, 17594, Note_on_c, 0, 62, 0
2, 17594, Note_on_c, 0, 67, 0
2, 17594, Note_on_c, 1, 46, 0
2, 17594, Note_on_c, 1, 50, 0
2, 17600, Note_on_c, 0, 57, 127
2, 17600, Note_on_c, 0, 61, 127
2, 17600, Note_on_c, 0, 64, 127
2, 17600, Note_on_c, 0, 69, 127
2, 17600, Note_on_c, 1, 33, 95
2, 17600, Note_on_c, 1, 45, 95
2, 17716, Note_on_c, 0, 57, 0
2, 17716, Note_on_c, 0, 61, 0
2, 17716, Note_on_c, 0, 64, 0
2, 17716, Note_on_c, 0, 69, 0
2, 17716, Note_on_c, 1, 33, 0
2, 17716, Note_on_c, 1, 45, 0
2, 17728, Note_on_c, 0, 82, 67
2, 17728, Note_on_c, 1, 62, 77
2, 17728, Note_on_c, 1, 74, 78
2, 17757, Note_on_c, 0, 82, 0
2, 17757, Note_on_c, 1, 62, 0
2, 17757, Note_on_c, 1, 74, 0
2, 17760, Note_on_c, 0, 89, 80
2, 17760, Note_on_c, 1, 65, 47
2, 17789, Note_on_c, 0, 89, 0
2, 17789, Note_on_c, 1, 65, 0
2, 17792, Note_on_c, 0, 86, 81
2, 17792, Note_on_c, 0, 94, 82
2, 17792, Note_on_c, 1, 70, 51
2, 17821, Note_on_c, 0, 86, 0
2, 17821, Note_on_c, 0, 94, 0
2, 17821, Note_on_c, 1, 70, 0
2, 17824, Note_on_c, 0, 89, 67
2, 17824, Note_on_c, 1, 65, 35
2, 17853, Note_on_c, 0, 89, 0
2, 17853, Note_on_c, 1, 65, 0
2, 17856, Note_on_c, 0, 81, 65
2, 17856, Note_on_c, 1, 60, 37
2, 17856, Note_on_c, 1, 72, 40
2, 17885, Note_on_c, 0, 81, 0
2, 17885, Note_on_c, 1, 60, 0
2, 17885, Note_on_c, 1, 72, 0
2, 17888, Note_on_c, 0, 88, 92
2, 17888, Note_on_c, 1, 64, 24
2, 17917, Note_on_c, 0, 88, 0
2, 17917, Note_on_c, 1, 64, 0
2, 17920, Note_on_c, 0, 84, 93
2, 17920, Note_on_c, 0, 93, 91
2, 17920, Note_on_c, 1, 69, 36
2, 17949, Note_on_c, 0, 84, 0
2, 17949, Note_on_c, 0, 93, 0
2, 17949, Note_on_c, 1, 69, 0
2, 17952, Note_on_c, 0, 88, 71
2, 17952, Note_on_c, 1, 64, 29
2, 17981, Note_on_c, 0, 88, 0
2, 17981, Note_on_c, 1, 64, 0
2, 17984, Note_on_c, 0, 79, 62
2, 17984, Note_on_c, 1, 58, 36
2, 17984, Note_on_c, 1, 70, 37
2, 18013, Note_on_c, 0, 79, 0
2, 18013, Note_on_c, 1, 58, 0
2, 18013, Note_on_c, 1, 70, 0
2, 18016, Note_on_c, 0, 86, 83
2, 18016, Note_on_c, 1, 62, 26
2, 18045, Note_on_c, 0, 86, 0
2, 18045, Note_on_c, 1, 62, 0
2, 18048, Note_on_c, 0, 82, 81
2, 18048, Note_on_c, 0, 91, 81
2, 18048, Note_on_c, 1, 67, 40
2, 18077, Note_on_c, 0, 82, 0
2, 18077, Note_on_c, 0, 91, 0
2, 18077, Note_on_c, 1, 67, 0
2, 18080, Note_on_c, 0, 86, 57
2, 18080, Note_on_c, 1, 62, 34
2, 18109, Note_on_c, 0, 86, 0
2, 18109, Note_on_c, 1, 62, 0
2, 18112, Note_on_c, 0, 81, 56
2, 18112, Note_on_c, 1, 57, 38
2, 18141, Note_on_c, 0, 81, 0
2, 18141, Note_on_c, 1, 57, 0
2, 18144, Note_on_c, 0, 85, 62
2, 18144, Note_on_c, 1, 64, 47
2, 18173, Note_on_c, 0, 85, 0
2, 18173, Note_on_c, 1, 64, 0
2, 18176, Note_on_c, 0, 88, 59
2, 18176, Note_on_c, 1, 61, 52
2, 18176, Note_on_c, 1, 69, 51
2, 18205, Note_on_c, 0, 88, 0
2, 18208, Note_on_c, 0, 81, 56
2, 18208, Note_on_c, 0, 93, 53
2, 18234, Note_on_c, 1, 61, 0
2, 18234, Note_on_c, 1, 69, 0
2, 18237, Note_on_c, 0, 81, 0
2, 18237, Note_on_c, 0, 93, 0
2, 18240, Note_on_c, 0, 62, 98
2, 18240, Note_on_c, 1, 38, 98
2, 18240, Note_on_c, 1, 50, 99
2, 18304, Note_on_c, 0, 58, 99
2, 18304, Note_on_c, 0, 65, 99
2, 18304, Note_on_c, 0, 70, 100
2, 18304, Note_on_c, 1, 50, 100
2, 18304, Note_on_c, 1, 53, 101
2, 18356, Note_on_c, 0, 62, 0
2, 18356, Note_on_c, 1, 38, 0
2, 18356, Note_on_c, 1, 50, 0
2, 18362, Note_on_c, 0, 58, 0
2, 18362, Note_on_c, 0, 65, 0
2, 18362, Note_on_c, 0, 70, 0
2, 18362, Note_on_c, 1, 50, 0
2, 18362, Note_on_c, 1, 53, 0
2, 18368, Note_on_c, 0, 60, 105
2, 18368, Note_on_c, 1, 36, 106
2, 18368, Note_on_c, 1, 48, 105
2, 18432, Note_on_c, 0, 57, 100
2, 18432, Note_on_c, 0, 64, 100
2, 18432, Note_on_c, 0, 69, 98
2, 18432, Note_on_c, 1, 48, 101
2, 18432, Note_on_c, 1, 52, 100
2, 18484, Note_on_c, 0, 60, 0
2, 18484, Note_on_c, 1, 36, 0
2, 18484, Note_on_c, 1, 48, 0
2, 18490, Note_on_c, 0, 57, 0
2, 18490, Note_on_c, 0, 64, 0
2, 18490, Note_on_c, 0, 69, 0
2, 18490, Note_on_c, 1, 48, 0
2, 18490, Note_on_c, 1, 52, 0
2, 18496, Note_on_c, 0, 58, 104
2, 18496, Note_on_c, 1, 34, 103
2, 18496, Note_on_c, 1, 46, 104
2, 18560, Note_on_c, 0, 55, 98
2, 18560, Note_on_c, 0, 62, 101
2, 18560, Note_on_c, 0, 67, 99
2, 18560, Note_on_c, 1, 46, 99
2, 18560, Note_on_c, 1, 50, 98
2, 18612, Note_on_c, 0, 58, 0
2, 18612, Note_on_c, 1, 34, 0
2, 18612, Note_on_c, 1, 46, 0
2, 18618, Note_on_c, 0, 55, 0
2, 18618, Note_on_c, 0, 62, 0
2, 18618, Note_on_c, 0, 67, 0
2, 18618, Note_on_c, 1, 46, 0
2, 18618, Note_on_c, 1, 50, 0
2, 18624, Note_on_c, 0, 57, 127
2, 18624, Note_on_c, 0, 61, 127
2, 18624, Note_on_c, 0, 64, 127
2, 18624, Note_on_c, 0, 69, 127
2, 18624, Note_on_c, 1, 33, 96
2, 18624, Note_on_c, 1, 45, 98
2, 18855, Note_on_c, 0, 57, 0
2, 18855, Note_on_c, 0, 61, 0
2, 18855, Note_on_c, 0, 64, 0
2, 18855, Note_on_c, 1, 33, 0
2, 18855, Note_on_c, 1, 45, 0
2, 18909, Note_on_c, 0, 69, 0
2, 18912, Note_on_c, 0, 67, 106
2, 18941, Note_on_c, 0, 67, 0
2, 18944, Note_on_c, 0, 65, 104
2, 18973, Note_on_c, 0, 65, 0
2, 18976, Note_on_c, 0, 64, 106
2, 19005, Note_on_c, 0, 64, 0
2, 19008, Note_on_c, 0, 62, 102
2, 19037, Note_on_c, 0, 62, 0
2, 19040, Note_on_c, 0, 61, 105
2, 19069, Note_on_c, 0, 61, 0
2, 19072, Note_on_c, 0, 59, 102
2, 19101, Note_on_c, 0, 59, 0
2, 19104, Note_on_c, 0, 61, 119
2, 19133, Note_on_c, 0, 61, 0
2, 19136, Note_on_c, 0, 57, 117
2, 19165, Note_on_c, 0, 57, 0
2, 19168, Note_on_c, 0, 59, 116
2, 19197, Note_on_c, 0, 59, 0
2, 19200, Note_on_c, 0, 61, 116
2, 19229, Note_on_c, 0, 61, 0
2, 19232, Note_on_c, 0, 62, 116
2, 19261, Note_on_c, 0, 62, 0
2, 19264, Note_on_c, 0, 64, 117
2, 19293, Note_on_c, 0, 64, 0
2, 19296, Note_on_c, 0, 65, 117
2, 19325, Note_on_c, 0, 65, 0
2, 19328, Note_on_c, 0, 67, 119
2, 19357, Note_on_c, 0, 67, 0
2, 19360, Note_on_c, 0, 69, 117
2, 19389, Note_on_c, 0, 69, 0
2, 19392, Note_on_c, 0, 67, 124
2, 19421, Note_on_c, 0, 67, 0
2, 19424, Note_on_c, 0, 65, 103
2, 19453, Note_on_c, 0, 65, 0
2, 19456, Note_on_c, 0, 64, 104
2, 19485, Note_on_c, 0, 64, 0
2, 19488, Note_on_c, 0, 65, 117
2, 19517, Note_on_c, 0, 65, 0
2, 19520, Note_on_c, 0, 62, 116
2, 19549, Note_on_c, 0, 62, 0
2, 19552, Note_on_c, 0, 65, 120
2, 19581, Note_on_c, 0, 65, 0
2, 19584, Note_on_c, 0, 69, 124
2, 19613, Note_on_c, 0, 69, 0
2, 19616, Note_on_c, 0, 73, 124
2, 19645, Note_on_c, 0, 73, 0
2, 19648, Note_on_c, 0, 74, 120
2, 19706, Note_on_c, 0, 74, 0
2, 19712, Note_on_c, 0, 69, 99
2, 19712, Note_on_c, 1, 45, 100
2, 19741, Note_on_c, 0, 69, 0
2, 19741, Note_on_c, 1, 45, 0
2, 19744, Note_on_c, 0, 71, 114
2, 19744, Note_on_c, 1, 47, 117
2, 19773, Note_on_c, 0, 71, 0
2, 19773, Note_on_c, 1, 47, 0
2, 19776, Note_on_c, 0, 73, 118
2, 19776, Note_on_c, 1, 49, 116
2, 19805, Note_on_c, 0, 73, 0
2, 19805, Note_on_c, 1, 49, 0
2, 19808, Note_on_c, 0, 74, 118
2, 19808, Note_on_c, 1, 50, 118
2, 19837, Note_on_c, 0, 74, 0
2, 19837, Note_on_c, 1, 50, 0
2, 19840, Note_on_c, 0, 76, 118
2, 19840, Note_on_c, 1, 52, 120
2, 19869, Note_on_c, 0, 76, 0
2, 19869, Note_on_c, 1, 52, 0
2, 19872, Note_on_c, 0, 77, 117
2, 19872, Note_on_c, 1, 53, 116
2, 19901, Note_on_c, 0, 77, 0
2, 19901, Note_on_c, 1, 53, 0
2, 19904, Note_on_c, 0, 79, 120
2, 19904, Note_on_c, 1, 55, 122
2, 19933, Note_on_c, 0, 79, 0
2, 19933, Note_on_c, 1, 55, 0
2, 19936, Note_on_c, 0, 81, 117
2, 19936, Note_on_c, 1, 57, 118
2, 19965, Note_on_c, 0, 81, 0
2, 19965, Note_on_c, 1, 57, 0
2, 19968, Note_on_c, 0, 82, 127
2, 19968, Note_on_c, 1, 58, 127
2, 19994, Tempo, 3750000
2, 19994, Tempo, 3750000
2, 20026, Note_on_c, 0, 82, 0
2, 20026, Tempo, 2400000
2, 20026, Note_on_c, 1, 58, 0
2, 20026, Tempo, 2400000
2, 20032, Note_on_c, 0, 74, 100
2, 20032, Note_on_c, 1, 38, 100
2, 20032, Note_on_c, 1, 50, 100
2, 20096, Note_on_c, 0, 70, 97
2, 20096, Note_on_c, 0, 74, 98
2, 20096, Note_on_c, 0, 82, 98
2, 20096, Note_on_c, 1, 53, 100
2, 20096, Note_on_c, 1, 58, 99
2, 20096, Note_on_c, 1, 62, 101
2, 20148, Note_on_c, 0, 74, 0
2, 20148, Note_on_c, 1, 38, 0
2, 20148, Note_on_c, 1, 50, 0
2, 20154, Note_on_c, 0, 70, 0
2, 20154, Note_on_c, 0, 74, 0
2, 20154, Note_on_c, 0, 82, 0
2, 20154, Note_on_c, 1, 53, 0
2, 20154, Note_on_c, 1, 58, 0
2, 20154, Note_on_c, 1, 62, 0
2, 20160, Note_on_c, 0, 72, 104
2, 20160, Note_on_c, 1, 36, 104
2, 20160, Note_on_c, 1, 48, 106
2, 20224, Note_on_c, 0, 76, 99
2, 20224, Note_on_c, 0, 81, 97
2, 20224, Note_on_c, 1, 52, 100
2, 20224, Note_on_c, 1, 57, 100
2, 20276, Note_on_c, 0, 72, 0
2, 20276, Note_on_c, 1, 36, 0
2, 20276, Note_on_c, 1, 48, 0
2, 20282, Note_on_c, 0, 76, 0
2, 20282, Note_on_c, 0, 81, 0
2, 20282, Note_on_c, 1, 52, 0
2, 20282, Note_on_c, 1, 57, 0
2, 20288, Note_on_c, 0, 70, 104
2, 20288, Note_on_c, 1, 34, 102
2, 20288, Note_on_c, 1, 46, 102
2, 20352, Note_on_c, 0, 67, 97
2, 20352, Note_on_c, 0, 74, 98
2, 20352, Note_on_c, 0, 79, 98
2, 20352, Note_on_c, 1, 50, 98
2, 20352, Note_on_c, 1, 55, 100
2, 20352, Note_on_c, 1, 58, 98
2, 20404, Note_on_c, 0, 70, 0
2, 20404, Note_on_c, 1, 34, 0
2, 20404, Note_on_c, 1, 46, 0
2, 20410, Note_on_c, 0, 67, 0
2, 20410, Note_on_c, 0, 74, 0
2, 20410, Note_on_c, 0, 79, 0
2, 20410, Note_on_c, 1, 50, 0
2, 20410, Note_on_c, 1, 55, 0
2, 20410, Note_on_c, 1, 58, 0
2, 20416, Note_on_c, 0, 69, 120
2, 20416, Note_on_c, 0, 73, 121
2, 20416, Note_on_c, 0, 76, 118
2, 20416, Note_on_c, 0, 81, 117
2, 20416, Note_on_c, 1, 33, 82
2, 20416, Note_on_c, 1, 45, 81
2, 20532, Note_on_c, 0, 69, 0
2, 20532, Note_on_c, 0, 73, 0
2, 20532, Note_on_c, 0, 76, 0
2, 20532, Note_on_c, 0, 81, 0
2, 20532, Note_on_c, 1, 33, 0
2, 20532, Note_on_c, 1, 45, 0
2, 20544, Note_on_c, 0, 82, 46
2, 20544, Note_on_c, 1, 74, 77
2, 20573, Note_on_c, 0, 82, 0
2, 20576, Note_on_c, 0, 89, 70
2, 20576, Note_on_c, 1, 74, 0
2, 20605, Note_on_c, 0, 89, 0
2, 20608, Note_on_c, 0, 86, 72
2, 20608, Note_on_c, 0, 94, 73
2, 20608, Note_on_c, 1, 77, 71
2, 20637, Note_on_c, 0, 86, 0
2, 20637, Note_on_c, 0, 94, 0
2, 20640, Note_on_c, 0, 89, 57
2, 20640, Note_on_c, 1, 77, 0
2, 20669, Note_on_c, 0, 89, 0
2, 20672, Note_on_c, 0, 81, 53
2, 20672, Note_on_c, 1, 72, 61
2, 20701, Note_on_c, 0, 81, 0
2, 20704, Note_on_c, 0, 88, 71
2, 20704, Note_on_c, 1, 72, 0
2, 20733, Note_on_c, 0, 88, 0
2, 20736, Note_on_c, 0, 84, 70
2, 20736, Note_on_c, 0, 93, 73
2, 20736, Note_on_c, 1, 76, 70
2, 20765, Note_on_c, 0, 84, 0
2, 20765, Note_on_c, 0, 93, 0
2, 20768, Note_on_c, 0, 88, 58
2, 20768, Note_on_c, 1, 76, 0
2, 20797, Note_on_c, 0, 88, 0
2, 20800, Note_on_c, 0, 79, 49
2, 20800, Note_on_c, 1, 70, 55
2, 20829, Note_on_c, 0, 79, 0
2, 20832, Note_on_c, 0, 86, 71
2, 20832, Note_on_c, 1, 70, 0
2, 20861, Note_on_c, 0, 86, 0
2, 20864, Note_on_c, 0, 82, 72
2, 20864, Note_on_c, 0, 91, 74
2, 20864, Note_on_c, 1, 74, 68
2, 20893, Note_on_c, 0, 82, 0
2, 20893, Note_on_c, 0, 91, 0
2, 20896, Note_on_c, 0, 86, 57
2, 20896, Note_on_c, 1, 74, 0
2, 20925, Note_on_c, 0, 86, 0
2, 20928, Note_on_c, 0, 81, 55
2, 20928, Note_on_c, 1, 69, 56
2, 20957, Note_on_c, 0, 81, 0
2, 20960, Note_on_c, 0, 85, 69
2, 20960, Note_on_c, 1, 69, 0
2, 20989, Note_on_c, 0, 85, 0
2, 20992, Note_on_c, 0, 88, 70
2, 20992, Note_on_c, 1, 73, 68
2, 21021, Note_on_c, 0, 88, 0
2, 21024, Note_on_c, 0, 81, 73
2, 21024, Note_on_c, 0, 93, 71
2, 21024, Note_on_c, 1, 73, 0
2, 21053, Note_on_c, 0, 81, 0
2, 21053, Note_on_c, 0, 93, 0
2, 21056, Note_on_c, 0, 74, 97
2, 21056, Note_on_c, 1, 38, 99
2, 21056, Note_on_c, 1, 50, 98
2, 21120, Note_on_c, 0, 70, 99
2, 21120, Note_on_c, 0, 74, 98
2, 21120, Note_on_c, 0, 82, 99
2, 21120, Note_on_c, 1, 53, 100
2, 21120, Note_on_c, 1, 58, 98
2, 21120, Note_on_c, 1, 62, 100
2, 21172, Note_on_c, 0, 74, 0
2, 21172, Note_on_c, 1, 38, 0
2, 21172, Note_on_c, 1, 50, 0
2, 21178, Note_on_c, 0, 70, 0
2, 21178, Note_on_c, 0, 74, 0
2, 21178, Note_on_c, 0, 82, 0
2, 21178, Note_on_c, 1, 53, 0
2, 21178, Note_on_c, 1, 58, 0
2, 21178, Note_on_c, 1, 62, 0
2, 21184, Note_on_c, 0, 72, 104
2, 21184, Note_on_c, 1, 36, 107
2, 21184, Note_on_c, 1, 48, 106
2, 21248, Note_on_c, 0, 76, 100
2, 21248, Note_on_c, 0, 81, 100
2, 21248, Note_on_c, 1, 52, 97
2, 21248, Note_on_c, 1, 57, 97
2, 21300, Note_on_c, 0, 72, 0
2, 21300, Note_on_c, 1, 36, 0
2, 21300, Note_on_c, 1, 48, 0
2, 21306, Note_on_c, 0, 76, 0
2, 21306, Note_on_c, 0, 81, 0
2, 21306, Note_on_c, 1, 52, 0
2, 21306, Note_on_c, 1, 57, 0
2, 21312, Note_on_c, 0, 70, 102
2, 21312, Note_on_c, 1, 34, 102
2, 21312, Note_on_c, 1, 46, 105
2, 21376, Note_on_c, 0, 67, 98
2, 21376, Note_on_c, 0, 74, 99
2, 21376, Note_on_c, 0, 79, 100
2, 21376, Note_on_c, 1, 50, 101
2, 21376, Note_on_c, 1, 55, 100
2, 21376, Note_on_c, 1, 58, 100
2, 21428, Note_on_c, 0, 70, 0
2, 21428, Note_on_c, 1, 34, 0
2, 21428, Note_on_c, 1, 46, 0
2, 21434, Note_on_c, 0, 67, 0
2, 21434, Note_on_c, 0, 74, 0
2, 21434, Note_on_c, 0, 79, 0
2, 21434, Note_on_c, 1, 50, 0
2, 21434, Note_on_c, 1, 55, 0
2, 21434, Note_on_c, 1, 58, 0
2, 21440, Note_on_c, 0, 69, 119
2, 21440, Note_on_c, 0, 73, 118
2, 21440, Note_on_c, 0, 76, 117
2, 21440, Note_on_c, 0, 81, 119
2, 21440, Note_on_c, 1, 33, 80
2, 21440, Note_on_c, 1, 37, 81
2, 21440, Note_on_c, 1, 40, 82
2, 21440, Note_on_c, 1, 45, 81
2, 21556, Note_on_c, 0, 69, 0
2, 21556, Note_on_c, 0, 73, 0
2, 21556, Note_on_c, 0, 76, 0
2, 21556, Note_on_c, 0, 81, 0
2, 21556, Note_on_c, 1, 33, 0
2, 21556, Note_on_c, 1, 37, 0
2, 21556, Note_on_c, 1, 40, 0
2, 21556, Note_on_c, 1, 45, 0
2, 21568, Note_on_c, 0, 71, 118
2, 21568, Note_on_c, 0, 74, 119
2, 21568, Note_on_c, 0, 77, 117
2, 21568, Note_on_c, 0, 83, 117
2, 21568, Note_on_c, 1, 32, 102
2, 21568, Note_on_c, 1, 35, 100
2, 21568, Note_on_c, 1, 38, 98
2, 21568, Note_on_c, 1, 44, 98
2, 21684, Note_on_c, 0, 71, 0
2, 21684, Note_on_c, 0, 74, 0
2, 21684, Note_on_c, 0, 77, 0
2, 21684, Note_on_c, 0, 83, 0
2, 21684, Note_on_c, 1, 32, 0
2, 21684, Note_on_c, 1, 35, 0
2, 21684, Note_on_c, 1, 38, 0
2, 21684, Note_on_c, 1, 44, 0
2, 21696, Note_on_c, 0, 73, 123
2, 21696, Note_on_c, 0, 76, 119
2, 21696, Note_on_c, 0, 81, 122
2, 21696, Note_on_c, 0, 85, 121
2, 21696, Note_on_c, 1, 31, 115
2, 21696, Note_on_c, 1, 33, 115
2, 21696, Note_on_c, 1, 37, 118
2, 21696, Note_on_c, 1, 43, 117
2, 21696, Note_on_c, 1, 45, 117
2, 21869, Note_on_c, 0, 73, 0
2, 21869, Note_on_c, 0, 76, 0
2, 21869, Note_on_c, 0, 81, 0
2, 21869, Note_on_c, 0, 85, 0
2, 21869, Note_on_c, 1, 31, 0
2, 21869, Note_on_c, 1, 33, 0
2, 21869, Note_on_c, 1, 37, 0
2, 21869, Note_on_c, 1, 43, 0
2, 21869, Note_on_c, 1, 45, 0
2, 21888, Note_on_c, 0, 71, 102
2, 21888, Note_on_c, 0, 83, 104
2, 21888, Note_on_c, 1, 59, 126
2, 21946, Note_on_c, 0, 71, 0
2, 21946, Note_on_c, 0, 83, 0
2, 21946, Note_on_c, 1, 59, 0
2, 21952, Note_on_c, 0, 69, 105
2, 21952, Note_on_c, 0, 81, 104
2, 21952, Note_on_c, 1, 57, 112
2, 22010, Note_on_c, 0, 69, 0
2, 22010, Note_on_c, 0, 81, 0
2, 22010, Note_on_c, 1, 57, 0
2, 22016, Note_on_c, 0, 73, 122
2, 22016, Note_on_c, 0, 85, 120
2, 22016, Note_on_c, 1, 61, 124
2, 22074, Note_on_c, 0, 73, 0
2, 22074, Note_on_c, 0, 85, 0
2, 22074, Note_on_c, 1, 61, 0
2, 22080, Note_on_c, 0, 88, 122
2, 22080, Note_on_c, 1, 64, 122
2, 22109, Note_on_c, 0, 88, 0
2, 22109, Note_on_c, 1, 64, 0
2, 22112, Note_on_c, 0, 91, 122
2, 22112, Note_on_c, 1, 67, 123
2, 22141, Note_on_c, 0, 91, 0
2, 22141, Note_on_c, 1, 67, 0
2, 22144, Note_on_c, 0, 82, 123
2, 22144, Note_on_c, 0, 94, 121
2, 22144, Note_on_c, 1, 70, 120
2, 22170, Tempo, 3750000
2, 22170, Tempo, 3750000
2, 22202, Note_on_c, 0, 82, 0
2, 22202, Note_on_c, 0, 94, 0
2, 22202, Tempo, 2400000
2, 22202, Note_on_c, 1, 70, 0
2, 22202, Tempo, 2400000
2, 22208, Note_on_c, 0, 81, 111
2, 22208, Note_on_c, 0, 93, 108
2, 22208, Note_on_c, 1, 69, 111
2, 22237, Note_on_c, 0, 81, 0
2, 22237, Note_on_c, 0, 93, 0
2, 22237, Note_on_c, 1, 69, 0
2, 22240, Note_on_c, 0, 91, 99
2, 22240, Note_on_c, 1, 67, 100
2, 22269, Note_on_c, 0, 91, 0
2, 22269, Note_on_c, 1, 67, 0
2, 22272, Note_on_c, 0, 89, 94
2, 22272, Note_on_c, 1, 65, 95
2, 22301, Note_on_c, 0, 89, 0
2, 22301, Note_on_c, 1, 65, 0
2, 22304, Note_on_c, 0, 88, 89
2, 22304, Note_on_c, 1, 64, 89
2, 22333, Note_on_c, 0, 88, 0
2, 22333, Note_on_c, 1, 64, 0
2, 22336, Note_on_c, 0, 89, 93
2, 22336, Note_on_c, 1, 65, 95
2, 22365, Note_on_c, 0, 89, 0
2, 22365, Note_on_c, 1, 65, 0
2, 22368, Note_on_c, 0, 88, 83
2, 22368, Note_on_c, 1, 64, 80
2, 22397, Note_on_c, 0, 88, 0
2, 22397, Note_on_c, 1, 64, 0
2, 22400, Note_on_c, 0, 86, 76
2, 22400, Note_on_c, 1, 62, 74
2, 22429, Note_on_c, 0, 86, 0
2, 22429, Note_on_c, 1, 62, 0
2, 22432, Note_on_c, 0, 85, 69
2, 22432, Note_on_c, 1, 61, 71
2, 22461, Note_on_c, 0, 85, 0
2, 22461, Note_on_c, 1, 61, 0
2, 22464, Note_on_c, 0, 86, 78
2, 22464, Note_on_c, 1, 62, 78
2, 22493, Note_on_c, 0, 86, 0
2, 22493, Note_on_c, 1, 62, 0
2, 22496, Note_on_c, 0, 84, 61
2, 22496, Note_on_c, 1, 60, 61
2, 22525, Note_on_c, 0, 84, 0
2, 22525, Note_on_c, 1, 60, 0
2, 22528, Note_on_c, 0, 82, 55
2, 22528, Note_on_c, 1, 58, 56
2, 22557, Note_on_c, 0, 82, 0
2, 22557, Note_on_c, 1, 58, 0
2, 22560, Note_on_c, 0, 81, 52
2, 22560, Note_on_c, 1, 57, 51
2, 22589, Note_on_c, 0, 81, 0
2, 22589, Note_on_c, 1, 57, 0
2, 22592, Note_on_c, 0, 79, 47
2, 22592, Note_on_c, 1, 55, 47
2, 22621, Note_on_c, 0, 79, 0
2, 22621, Note_on_c, 1, 55, 0
2, 22624, Note_on_c, 0, 77, 41
2, 22624, Note_on_c, 1, 53, 41
2, 22653, Note_on_c, 0, 77, 0
2, 22653, Note_on_c, 1, 53, 0
2, 22656, Note_on_c, 0, 76, 39
2, 22656, Note_on_c, 1, 52, 39
2, 22685, Note_on_c, 0, 76, 0
2, 22685, Note_on_c, 1, 52, 0
2, 22688, Note_on_c, 0, 74, 32
2, 22688, Note_on_c, 1, 50, 43
2, 22688, Note_on_c, 1, 62, 42
2, 22717, Note_on_c, 0, 74, 0
2, 22717, Note_on_c, 1, 50, 0
2, 22717, Note_on_c, 1, 62, 0
2, 22720, Note_on_c, 0, 76, 46
2, 22720, Note_on_c, 0, 79, 49
2, 22720, Note_on_c, 0, 82, 47
2, 22720, Note_on_c, 0, 85, 47
2, 22720, Note_on_c, 0, 88, 47
2, 22720, Note_on_c, 1, 43, 34
2, 22720, Note_on_c, 1, 46, 31
2, 22720, Note_on_c, 1, 49, 33
2, 22720, Note_on_c, 1, 52, 32
2, 22720, Note_on_c, 1, 55, 32
2, 23182, Note_on_c, 0, 76, 0
2, 23182, Note_on_c, 0, 79, 0
2, 23182, Note_on_c, 0, 82, 0
2, 23182, Note_on_c, 0, 85, 0
2, 23182, Note_on_c, 0, 88, 0
2, 23182, Note_on_c, 1, 43, 0
2, 23182, Note_on_c, 1, 46, 0
2, 23182, Note_on_c, 1, 49, 0
2, 23182, Note_on_c, 1, 52, 0
2, 23182, Note_on_c, 1, 55, 0
2, 23232, Note_on_c, 0, 76, 37
2, 23232, Note_on_c, 0, 85, 36
2, 23270, Note_on_c, 0, 76, 0
2, 23270, Note_on_c, 0, 85, 0
2, 23274, Note_on_c, 0, 79, 38
2, 23274, Note_on_c, 0, 88, 36
2, 23313, Note_on_c, 0, 79, 0
2, 23313, Note_on_c, 0, 88, 0
2, 23317, Note_on_c, 0, 76, 33
2, 23317, Note_on_c, 0, 85, 30
2, 23356, Note_on_c, 0, 76, 0
2, 23356, Note_on_c, 0, 85, 0
2, 23360, Note_on_c, 0, 73, 32
2, 23360, Note_on_c, 0, 82, 31
2, 23398, Note_on_c, 0, 73, 0
2, 23398, Note_on_c, 0, 82, 0
2, 23402, Note_on_c, 0, 76, 38
2, 23402, Note_on_c, 0, 85, 38
2, 23441, Note_on_c, 0, 76, 0
2, 23441, Note_on_c, 0, 85, 0
2, 23445, Note_on_c, 0, 73, 32
2, 23445, Note_on_c, 0, 82, 34
2, 23484, Note_on_c, 0, 73, 0
2, 23484, Note_on_c, 0, 82, 0
2, 23488, Note_on_c, 0, 76, 41
2, 23488, Note_on_c, 0, 85, 41
2, 23526, Note_on_c, 0, 76, 0
2, 23526, Note_on_c, 0, 85, 0
2, 23530, Note_on_c, 0, 79, 40
2, 23530, Note_on_c, 0, 88, 37
2, 23569, Note_on_c, 0, 79, 0
2, 23569, Note_on_c, 0, 88, 0
2, 23573, Note_on_c, 0, 76, 30
2, 23573, Note_on_c, 0, 85, 33
2, 23612, Note_on_c, 0, 76, 0
2, 23612, Note_on_c, 0, 85, 0
2, 23616, Note_on_c, 0, 73, 30
2, 23616, Note_on_c, 0, 82, 31
2, 23654, Note_on_c, 0, 73, 0
2, 23654, Note_on_c, 0, 82, 0
2, 23658, Note_on_c, 0, 76, 35
2, 23658, Note_on_c, 0, 85, 39
2, 23697, Note_on_c, 0, 76, 0
2, 23697, Note_on_c, 0, 85, 0
2, 23701, Note_on_c, 0, 73, 32
2, 23701, Note_on_c, 0, 82, 31
2, 23740, Note_on_c, 0, 73, 0
2, 23740, Note_on_c, 0, 82, 0
2, 23744, Note_on_c, 0, 76, 39
2, 23744, Note_on_c, 0, 85, 41
2, 23782, Note_on_c, 0, 76, 0
2, 23782, Note_on_c, 0, 85, 0
2, 23786, Note_on_c, 0, 79, 38
2, 23786, Note_on_c, 0, 88, 40
2, 23825, Note_on_c, 0, 79, 0
2, 23825, Note_on_c, 0, 88, 0
2, 23829, Note_on_c, 0, 76, 33
2, 23829, Note_on_c, 0, 85, 32
2, 23868, Note_on_c, 0, 76, 0
2, 23868, Note_on_c, 0, 85, 0
2, 23872, Note_on_c, 0, 73, 30
2, 23872, Note_on_c, 0, 82, 30
2, 23910, Note_on_c, 0, 73, 0
2, 23910, Note_on_c, 0, 82, 0
2, 23914, Note_on_c, 0, 76, 35
2, 23914, Note_on_c, 0, 85, 37
2, 23953, Note_on_c, 0, 76, 0
2, 23953, Note_on_c, 0, 85, 0
2, 23957, Note_on_c, 0, 73, 30
2, 23957, Note_on_c, 0, 82, 33
2, 23996, Note_on_c, 0, 73, 0
2, 23996, Note_on_c, 0, 82, 0
2, 24000, Note_on_c, 0, 76, 41
2, 24000, Note_on_c, 0, 85, 41
2, 24038, Note_on_c, 0, 76, 0
2, 24038, Note_on_c, 0, 85, 0
2, 24042, Note_on_c, 0, 79, 40
2, 24042, Note_on_c, 0, 88, 40
2, 24081, Note_on_c, 0, 79, 0
2, 24081, Note_on_c, 0, 88, 0
2, 24085, Note_on_c, 0, 76, 33
2, 24085, Note_on_c, 0, 85, 34
2, 24124, Note_on_c, 0, 76, 0
2, 24124, Note_on_c, 0, 85, 0
2, 24128, Note_on_c, 0, 73, 30
2, 24128, Note_on_c, 0, 82, 33
2, 24166, Note_on_c, 0, 73, 0
2, 24166, Note_on_c, 0, 82, 0
2, 24170, Note_on_c, 0, 76, 35
2, 24170, Note_on_c, 0, 85, 36
2, 24209, Note_on_c, 0, 76, 0
2, 24209, Note_on_c, 0, 85, 0
2, 24213, Note_on_c, 0, 73, 34
2, 24213, Note_on_c, 0, 82, 31
2, 24252, Note_on_c, 0, 73, 0
2, 24252, Note_on_c, 0, 82, 0
2, 24256, Note_on_c, 0, 70, 34
2, 24256, Note_on_c, 0, 79, 35
2, 24294, Note_on_c, 0, 70, 0
2, 24294, Note_on_c, 0, 79, 0
2, 24298, Note_on_c, 0, 73, 36
2, 24298, Note_on_c, 0, 82, 39
2, 24337, Note_on_c, 0, 73, 0
2, 24337, Note_on_c, 0, 82, 0
2, 24341, Note_on_c, 0, 70, 31
2, 24341, Note_on_c, 0, 79, 30
2, 24380, Note_on_c, 0, 70, 0
2, 24380, Note_on_c, 0, 79, 0
2, 24384, Note_on_c, 0, 67, 31
2, 24384, Note_on_c, 0, 76, 31
2, 24422, Note_on_c, 0, 67, 0
2, 24422, Note_on_c, 0, 76, 0
2, 24426, Note_on_c, 0, 70, 39
2, 24426, Note_on_c, 0, 79, 38
2, 24465, Note_on_c, 0, 70, 0
2, 24465, Note_on_c, 0, 79, 0
2, 24469, Note_on_c, 0, 67, 34
2, 24469, Note_on_c, 0, 76, 33
2, 24508, Note_on_c, 0, 67, 0
2, 24508, Note_on_c, 0, 76, 0
2, 24512, Note_on_c, 0, 70, 39
2, 24512, Note_on_c, 0, 79, 41
2, 24550, Note_on_c, 0, 70, 0
2, 24550, Note_on_c, 0, 79, 0
2, 24554, Note_on_c, 0, 73, 40
2, 24554, Note_on_c, 0, 82, 37
2, 24593, Note_on_c, 0, 73, 0
2, 24593, Note_on_c, 0, 82, 0
2, 24597, Note_on_c, 0, 70, 31
2, 24597, Note_on_c, 0, 79, 31
2, 24636, Note_on_c, 0, 70, 0
2, 24636, Note_on_c, 0, 79, 0
2, 24640, Note_on_c, 0, 67, 31
2, 24640, Note_on_c, 0, 76, 31
2, 24678, Note_on_c, 0, 67, 0
2, 24678, Note_on_c, 0, 76, 0
2, 24682, Note_on_c, 0, 70, 37
2, 24682, Note_on_c, 0, 79, 36
2, 24721, Note_on_c, 0, 70, 0
2, 24721, Note_on_c, 0, 79, 0
2, 24725, Note_on_c, 0, 67, 33
2, 24725, Note_on_c, 0, 76, 33
2, 24764, Note_on_c, 0, 67, 0
2, 24764, Note_on_c, 0, 76, 0
2, 24768, Note_on_c, 0, 70, 41
2, 24768, Note_on_c, 0, 79, 38
2, 24806, Note_on_c, 0, 70, 0
2, 24806, Note_on_c, 0, 79, 0
2, 24810, Note_on_c, 0, 73, 38
2, 24810, Note_on_c, 0, 82, 39
2, 24849, Note_on_c, 0, 73, 0
2, 24849, Note_on_c, 0, 82, 0
2, 24853, Note_on_c, 0, 70, 30
2, 24853, Note_on_c, 0, 79, 33
2, 24892, Note_on_c, 0, 70, 0
2, 24892, Note_on_c, 0, 79, 0
2, 24896, Note_on_c, 0, 67, 30
2, 24896, Note_on_c, 0, 76, 33
2, 24934, Note_on_c, 0, 67, 0
2, 24934, Note_on_c, 0, 76, 0
2, 24938, Note_on_c, 0, 70, 38
2, 24938, Note_on_c, 0, 79, 35
2, 24977, Note_on_c, 0, 70, 0
2, 24977, Note_on_c, 0, 79, 0
2, 24981, Note_on_c, 0, 67, 31
2, 24981, Note_on_c, 0, 76, 32
2, 25020, Note_on_c, 0, 67, 0
2, 25020, Note_on_c, 0, 76, 0
2, 25024, Note_on_c, 0, 70, 41
2, 25024, Note_on_c, 0, 79, 41
2, 25062, Note_on_c, 0, 70, 0
2, 25062, Note_on_c, 0, 79, 0
2, 25066, Note_on_c, 0, 73, 40
2, 25066, Note_on_c, 0, 82, 39
2, 25105, Note_on_c, 0, 73, 0
2, 25105, Note_on_c, 0, 82, 0
2, 25109, Note_on_c, 0, 70, 30
2, 25109, Note_on_c, 0, 79, 31
2, 25148, Note_on_c, 0, 70, 0
2, 25148, Note_on_c, 0, 79, 0
2, 25152, Note_on_c, 0, 67, 32
2, 25152, Note_on_c, 0, 76, 29
2, 25190, Note_on_c, 0, 67, 0
2, 25190, Note_on_c, 0, 76, 0
2, 25194, Note_on_c, 0, 70, 39
2, 25194, Note_on_c, 0, 79, 35
2, 25233, Note_on_c, 0, 70, 0
2, 25233, Note_on_c, 0, 79, 0
2, 25237, Note_on_c, 0, 67, 31
2, 25237, Note_on_c, 0, 76, 31
2, 25276, Note_on_c, 0, 67, 0
2, 25276, Note_on_c, 0, 76, 0
2, 25280, Note_on_c, 0, 64, 32
2, 25280, Note_on_c, 0, 73, 34
2, 25318, Note_on_c, 0, 64, 0
2, 25318, Note_on_c, 0, 73, 0
2, 25322, Note_on_c, 0, 67, 39
2, 25322, Note_on_c, 0, 76, 40
2, 25361, Note_on_c, 0, 67, 0
2, 25361, Note_on_c, 0, 76, 0
2, 25365, Note_on_c, 0, 64, 35
2, 25365, Note_on_c, 0, 73, 32
2, 25404, Note_on_c, 0, 64, 0
2, 25404, Note_on_c, 0, 73, 0
2, 25408, Note_on_c, 0, 61, 33
2, 25408, Note_on_c, 0, 70, 35
2, 25446, Note_on_c, 0, 61, 0
2, 25446, Note_on_c, 0, 70, 0
2, 25450, Note_on_c, 0, 64, 40
2, 25450, Note_on_c, 0, 73, 40
2, 25489, Note_on_c, 0, 64, 0
2, 25489, Note_on_c, 0, 73, 0
2, 25493, Note_on_c, 0, 61, 36
2, 25493, Note_on_c, 0, 70, 38
2, 25532, Note_on_c, 0, 61, 0
2, 25532, Note_on_c, 0, 70, 0
2, 25536, Note_on_c, 0, 64, 47
2, 25536, Note_on_c, 0, 73, 45
2, 25574, Note_on_c, 0, 64, 0
2, 25574, Note_on_c, 0, 73, 0
2, 25578, Note_on_c, 0, 67, 45
2, 25578, Note_on_c, 0, 76, 44
2, 25617, Note_on_c, 0, 67, 0
2, 25617, Note_on_c, 0, 76, 0
2, 25621, Note_on_c, 0, 64, 38
2, 25621, Note_on_c, 0, 73, 40
2, 25660, Note_on_c, 0, 64, 0
2, 25660, Note_on_c, 0, 73, 0
2, 25664, Note_on_c, 0, 61, 39
2, 25664, Note_on_c, 0, 70, 37
2, 25702, Note_on_c, 0, 61, 0
2, 25702, Note_on_c, 0, 70, 0
2, 25706, Note_on_c, 0, 64, 45
2, 25706, Note_on_c, 0, 73, 46
2, 25745, Note_on_c, 0, 64, 0
2, 25745, Note_on_c, 0, 73, 0
2, 25749, Note_on_c, 0, 61, 43
2, 25749, Note_on_c, 0, 70, 39
2, 25788, Note_on_c, 0, 61, 0
2, 25788, Note_on_c, 0, 70, 0
2, 25792, Note_on_c, 0, 64, 51
2, 25792, Note_on_c, 0, 73, 51
2, 25830, Note_on_c, 0, 64, 0
2, 25830, Note_on_c, 0, 73, 0
2, 25834, Note_on_c, 0, 67, 50
2, 25834, Note_on_c, 0, 76, 53
2, 25873, Note_on_c, 0, 67, 0
2, 25873, Note_on_c, 0, 76, 0
2, 25877, Note_on_c, 0, 64, 46
2, 25877, Note_on_c, 0, 73, 44
2, 25916, Note_on_c, 0, 64, 0
2, 25916, Note_on_c, 0, 73, 0
2, 25920, Note_on_c, 0, 61, 42
2, 25920, Note_on_c, 0, 70, 43
2, 25958, Note_on_c, 0, 61, 0
2, 25958, Note_on_c, 0, 70, 0
2, 25962, Note_on_c, 0, 64, 51
2, 25962, Note_on_c, 0, 73, 53
2, 26001, Note_on_c, 0, 64, 0
2, 26001, Note_on_c, 0, 73, 0
2, 26005, Note_on_c, 0, 61, 47
2, 26005, Note_on_c, 0, 70, 45
2, 26044, Note_on_c, 0, 61, 0
2, 26044, Note_on_c, 0, 70, 0
2, 26048, Note_on_c, 0, 64, 57
2, 26048, Note_on_c, 0, 73, 57
2, 26086, Note_on_c, 0, 64, 0
2, 26086, Note_on_c, 0, 73, 0
2, 26090, Note_on_c, 0, 67, 57
2, 26090, Note_on_c, 0, 76, 55
2, 26129, Note_on_c, 0, 67, 0
2, 26129, Note_on_c, 0, 76, 0
2, 26133, Note_on_c, 0, 64, 48
2, 26133, Note_on_c, 0, 73, 48
2, 26172, Note_on_c, 0, 64, 0
2, 26172, Note_on_c, 0, 73, 0
2, 26176, Note_on_c, 0, 61, 48
2, 26176, Note_on_c, 0, 70, 50
2, 26214, Note_on_c, 0, 61, 0
2, 26214, Note_on_c, 0, 70, 0
2, 26218, Note_on_c, 0, 64, 57
2, 26218, Note_on_c, 0, 73, 56
2, 26257, Note_on_c, 0, 64, 0
2, 26257, Note_on_c, 0, 73, 0
2, 26261, Note_on_c, 0, 61, 51
2, 26261, Note_on_c, 0, 70, 52
2, 26300, Note_on_c, 0, 61, 0
2, 26300, Note_on_c, 0, 70, 0
2, 26304, Note_on_c, 0, 64, 62
2, 26304, Note_on_c, 0, 73, 63
2, 26342, Note_on_c, 0, 64, 0
2, 26342, Note_on_c, 0, 73, 0
2, 26346, Note_on_c, 0, 67, 62
2, 26346, Note_on_c, 0, 76, 62
2, 26385, Note_on_c, 0, 67, 0
2, 26385, Note_on_c, 0, 76, 0
2, 26389, Note_on_c, 0, 64, 53
2, 26389, Note_on_c, 0, 73, 53
2, 26428, Note_on_c, 0, 64, 0
2, 26428, Note_on_c, 0, 73, 0
2, 26432, Note_on_c, 0, 67, 62
2, 26432, Note_on_c, 0, 76, 62
2, 26470, Note_on_c, 0, 67, 0
2, 26470, Note_on_c, 0, 76, 0
2, 26474, Note_on_c, 0, 70, 65
2, 26474, Note_on_c, 0, 79, 66
2, 26513, Note_on_c, 0, 70, 0
2, 26513, Note_on_c, 0, 79, 0
2, 26517, Note_on_c, 0, 67, 54
2, 26517, Note_on_c, 0, 76, 56
2, 26556, Note_on_c, 0, 67, 0
2, 26556, Note_on_c, 0, 76, 0
2, 26560, Note_on_c, 0, 64, 58
2, 26560, Note_on_c, 0, 73, 58
2, 26598, Note_on_c, 0, 64, 0
2, 26598, Note_on_c, 0, 73, 0
2, 26602, Note_on_c, 0, 67, 68
2, 26602, Note_on_c, 0, 76, 68
2, 26641, Note_on_c, 0, 67, 0
2, 26641, Note_on_c, 0, 76, 0
2, 26645, Note_on_c, 0, 64, 60
2, 26645, Note_on_c, 0, 73, 60
2, 26684, Note_on_c, 0, 64, 0
2, 26684, Note_on_c, 0, 73, 0
2, 26688, Note_on_c, 0, 67, 68
2, 26688, Note_on_c, 0, 76, 69
2, 26726, Note_on_c, 0, 67, 0
2, 26726, Note_on_c, 0, 76, 0
2, 26730, Note_on_c, 0, 70, 72
2, 26730, Note_on_c, 0, 79, 69
2, 26769, Note_on_c, 0, 70, 0
2, 26769, Note_on_c, 0, 79, 0
2, 26773, Note_on_c, 0, 67, 60
2, 26773, Note_on_c, 0, 76, 60
2, 26812, Note_on_c, 0, 67, 0
2, 26812, Note_on_c, 0, 76, 0
2, 26816, Note_on_c, 0, 64, 62
2, 26816, Note_on_c, 0, 73, 63
2, 26854, Note_on_c, 0, 64, 0
2, 26854, Note_on_c, 0, 73, 0
2, 26858, Note_on_c, 0, 67, 72
2, 26858, Note_on_c, 0, 76, 71
2, 26897, Note_on_c, 0, 67, 0
2, 26897, Note_on_c, 0, 76, 0
2, 26901, Note_on_c, 0, 64, 64
2, 26901, Note_on_c, 0, 73, 63
2, 26940, Note_on_c, 0, 64, 0
2, 26940, Note_on_c, 0, 73, 0
2, 26944, Note_on_c, 0, 67, 74
2, 26944, Note_on_c, 0, 76, 75
2, 26982, Note_on_c, 0, 67, 0
2, 26982, Note_on_c, 0, 76, 0
2, 26986, Note_on_c, 0, 70, 77
2, 26986, Note_on_c, 0, 79, 78
2, 27025, Note_on_c, 0, 70, 0
2, 27025, Note_on_c, 0, 79, 0
2, 27029, Note_on_c, 0, 67, 65
2, 27029, Note_on_c, 0, 76, 68
2, 27068, Note_on_c, 0, 67, 0
2, 27068, Note_on_c, 0, 76, 0
2, 27072, Note_on_c, 0, 64, 70
2, 27072, Note_on_c, 0, 73, 70
2, 27110, Note_on_c, 0, 64, 0
2, 27110, Note_on_c, 0, 73, 0
2, 27114, Note_on_c, 0, 67, 80
2, 27114, Note_on_c, 0, 76, 77
2, 27153, Note_on_c, 0, 67, 0
2, 27153, Note_on_c, 0, 76, 0
2, 27157, Note_on_c, 0, 64, 66
2, 27157, Note_on_c, 0, 73, 69
2, 27196, Note_on_c, 0, 64, 0
2, 27196, Note_on_c, 0, 73, 0
2, 27200, Note_on_c, 0, 67, 80
2, 27200, Note_on_c, 0, 76, 80
2, 27238, Note_on_c, 0, 67, 0
2, 27238, Note_on_c, 0, 76, 0
2, 27242, Note_on_c, 0, 70, 84
2, 27242, Note_on_c, 0, 79, 85
2, 27281, Note_on_c, 0, 70, 0
2, 27281, Note_on_c, 0, 79, 0
2, 27285, Note_on_c, 0, 67, 73
2, 27285, Note_on_c, 0, 76, 71
2, 27324, Note_on_c, 0, 67, 0
2, 27324, Note_on_c, 0, 76, 0
2, 27328, Note_on_c, 0, 79, 87
2, 27328, Note_on_c, 1, 64, 35
2, 27366, Note_on_c, 0, 79, 0
2, 27366, Note_on_c, 1, 64, 0
2, 27370, Note_on_c, 0, 70, 85
2, 27370, Note_on_c, 0, 82, 87
2, 27370, Note_on_c, 1, 67, 44
2, 27409, Note_on_c, 0, 70, 0
2, 27409, Note_on_c, 0, 82, 0
2, 27409, Note_on_c, 1, 67, 0
2, 27413, Note_on_c, 0, 79, 75
2, 27413, Note_on_c, 1, 64, 40
2, 27452, Note_on_c, 0, 79, 0
2, 27452, Note_on_c, 1, 64, 0
2, 27456, Note_on_c, 0, 70, 90
2, 27456, Note_on_c, 0, 82, 87
2, 27456, Note_on_c, 1, 67, 53
2, 27494, Note_on_c, 0, 70, 0
2, 27494, Note_on_c, 0, 82, 0
2, 27494, Note_on_c, 1, 67, 0
2, 27498, Note_on_c, 0, 79, 79
2, 27498, Note_on_c, 1, 64, 48
2, 27537, Note_on_c, 0, 79, 0
2, 27537, Note_on_c, 1, 64, 0
2, 27541, Note_on_c, 0, 70, 95
2, 27541, Note_on_c, 0, 82, 94
2, 27541, Note_on_c, 1, 67, 62
2, 27580, Note_on_c, 0, 70, 0
2, 27580, Note_on_c, 0, 82, 0
2, 27580, Note_on_c, 1, 67, 0
2, 27584, Note_on_c, 0, 73, 85
2, 27584, Note_on_c, 0, 79, 84
2, 27584, Note_on_c, 1, 58, 52
2, 27622, Note_on_c, 0, 73, 0
2, 27622, Note_on_c, 0, 79, 0
2, 27622, Note_on_c, 1, 58, 0
2, 27626, Note_on_c, 0, 70, 98
2, 27626, Note_on_c, 0, 82, 100
2, 27626, Note_on_c, 1, 61, 72
2, 27665, Note_on_c, 0, 70, 0
2, 27665, Note_on_c, 0, 82, 0
2, 27665, Note_on_c, 1, 61, 0
2, 27669, Note_on_c, 0, 73, 87
2, 27669, Note_on_c, 0, 79, 84
2, 27669, Note_on_c, 1, 58, 68
2, 27708, Note_on_c, 0, 73, 0
2, 27708, Note_on_c, 0, 79, 0
2, 27708, Note_on_c, 1, 58, 0
2, 27712, Note_on_c, 0, 70, 102
2, 27712, Note_on_c, 0, 82, 103
2, 27712, Note_on_c, 1, 61, 85
2, 27750, Note_on_c, 0, 70, 0
2, 27750, Note_on_c, 0, 82, 0
2, 27750, Note_on_c, 1, 61, 0
2, 27754, Note_on_c, 0, 73, 88
2, 27754, Note_on_c, 0, 79, 90
2, 27754, Note_on_c, 1, 58, 75
2, 27793, Note_on_c, 0, 73, 0
2, 27793, Note_on_c, 0, 79, 0
2, 27793, Note_on_c, 1, 58, 0
2, 27797, Note_on_c, 0, 70, 109
2, 27797, Note_on_c, 0, 82, 107
2, 27797, Note_on_c, 1, 61, 91
2, 27836, Note_on_c, 0, 70, 0
2, 27836, Note_on_c, 0, 82, 0
2, 27836, Note_on_c, 1, 61, 0
2, 27840, Note_on_c, 0, 73, 116
2, 27840, Note_on_c, 0, 85, 116
2, 27840, Note_on_c, 1, 58, 89
2, 27878, Note_on_c, 0, 73, 0
2, 27878, Note_on_c, 0, 85, 0
2, 27878, Note_on_c, 1, 58, 0
2, 27882, Note_on_c, 0, 81, 94
2, 27882, Note_on_c, 1, 52, 82
2, 27921, Note_on_c, 0, 81, 0
2, 27921, Note_on_c, 1, 52, 0
2, 27925, Note_on_c, 0, 73, 115
2, 27925, Note_on_c, 0, 85, 117
2, 27925, Note_on_c, 1, 58, 113
2, 27964, Note_on_c, 0, 73, 0
2, 27964, Note_on_c, 0, 85, 0
2, 27964, Note_on_c, 1, 58, 0
2, 27968, Note_on_c, 0, 76, 120
2, 27968, Note_on_c, 0, 88, 121
2, 27968, Note_on_c, 1, 49, 116
2, 27968, Note_on_c, 1, 61, 119
2, 28006, Note_on_c, 0, 76, 0
2, 28006, Note_on_c, 0, 88, 0
2, 28006, Note_on_c, 1, 49, 0
2, 28006, Note_on_c, 1, 61, 0
2, 28010, Note_on_c, 0, 85, 104
2, 28010, Note_on_c, 1, 52, 89
2, 28049, Note_on_c, 0, 85, 0
2, 28049, Note_on_c, 1, 52, 0
2, 28053, Note_on_c, 0, 76, 122
2, 28053, Note_on_c, 0, 88, 120
2, 28053, Note_on_c, 1, 49, 127
2, 28053, Note_on_c, 1, 61, 127
2, 28092, Note_on_c, 0, 76, 0
2, 28092, Note_on_c, 0, 88, 0
2, 28092, Note_on_c, 1, 49, 0
2, 28092, Note_on_c, 1, 61, 0
2, 28096, Note_on_c, 0, 85, 110
2, 28096, Note_on_c, 1, 52, 103
2, 28134, Note_on_c, 0, 85, 0
2, 28134, Note_on_c, 1, 52, 0
2, 28138, Note_on_c, 0, 76, 127
2, 28138, Note_on_c, 0, 88, 127
2, 28138, Note_on_c, 1, 49, 126
2, 28138, Note_on_c, 1, 61, 127
2, 28177, Note_on_c, 0, 76, 0
2, 28177, Note_on_c, 0, 88, 0
2, 28177, Note_on_c, 1, 49, 0
2, 28177, Note_on_c, 1, 61, 0
2, 28181, Note_on_c, 0, 85, 112
2, 28181, Note_on_c, 1, 52, 104
2, 28220, Note_on_c, 0, 85, 0
2, 28220, Note_on_c, 1, 52, 0
2, 28224, Note_on_c, 0, 76, 127
2, 28224, Note_on_c, 0, 88, 127
2, 28224, Note_on_c, 1, 49, 127
2, 28224, Note_on_c, 1, 61, 127
2, 28262, Note_on_c, 0, 76, 0
2, 28262, Note_on_c, 0, 88, 0
2, 28262, Note_on_c, 1, 49, 0
2, 28262, Note_on_c, 1, 61, 0
2, 28266, Note_on_c, 0, 85, 115
2, 28266, Note_on_c, 1, 52, 101
2, 28305, Note_on_c, 0, 85, 0
2, 28305, Note_on_c, 1, 52, 0
2, 28309, Note_on_c, 0, 76, 127
2, 28309, Note_on_c, 0, 88, 127
2, 28309, Note_on_c, 1, 49, 125
2, 28309, Note_on_c, 1, 61, 127
2, 28348, Note_on_c, 0, 76, 0
2, 28348, Note_on_c, 0, 88, 0
2, 28348, Note_on_c, 1, 49, 0
2, 28348, Note_on_c, 1, 61, 0
2, 28352, Note_on_c, 0, 81, 127
2, 28352, Note_on_c, 0, 85, 127
2, 28352, Note_on_c, 0, 88, 126
2, 28352, Note_on_c, 0, 93, 126
2, 28352, Note_on_c, 1, 43, 112
2, 28352, Note_on_c, 1, 45, 112
2, 28352, Note_on_c, 1, 49, 110
2, 28352, Note_on_c, 1, 52, 110
2, 28352, Note_on_c, 1, 55, 111
2, 28583, Note_on_c, 0, 81, 0
2, 28583, Note_on_c, 0, 85, 0
2, 28583, Note_on_c, 0, 88, 0
2, 28583, Note_on_c, 0, 93, 0
2, 28583, Note_on_c, 1, 43, 0
2, 28583, Note_on_c, 1, 45, 0
2, 28583, Note_on_c, 1, 49, 0
2, 28583, Note_on_c, 1, 52, 0
2, 28583, Note_on_c, 1, 55, 0
2, 28608, Note_on_c, 0, 81, 127
2, 28608, Note_on_c, 0, 86, 126
2, 28608, Note_on_c, 0, 89, 127
2, 28608, Note_on_c, 0, 93, 127
2, 28608, Note_on_c, 1, 41, 114
2, 28608, Note_on_c, 1, 45, 114
2, 28608, Note_on_c, 1, 50, 115
2, 28608, Note_on_c, 1, 53, 116
2, 28839, Note_on_c, 0, 81, 0
2, 28839, Note_on_c, 0, 86, 0
2, 28839, Note_on_c, 0, 89, 0
2, 28839, Note_on_c, 0, 93, 0
2, 28839, Note_on_c, 1, 41, 0
2, 28839, Note_on_c, 1, 45, 0
2, 28839, Note_on_c, 1, 50, 0
2, 28839, Note_on_c, 1, 53, 0
2, 28864, Note_on_c, 0, 79, 123
2, 28864, Note_on_c, 0, 82, 120
2, 28864, Note_on_c, 0, 86, 122
2, 28864, Note_on_c, 0, 91, 122
2, 28864, Note_on_c, 1, 50, 119
2, 28864, Note_on_c, 1, 55, 117
2, 28864, Note_on_c, 1, 46, 103
2, 28864, Note_on_c, 1, 58, 100
2, 29095, Note_on_c, 0, 79, 0
2, 29095, Note_on_c, 0, 82, 0
2, 29095, Note_on_c, 0, 86, 0
2, 29095, Note_on_c, 0, 91, 0
2, 29095, Note_on_c, 1, 50, 0
2, 29095, Note_on_c, 1, 55, 0
2, 29210, Note_on_c, 1, 46, 0
2, 29210, Note_on_c, 1, 58, 0
2, 29248, Note_on_c, 1, 45, 103
2, 29248, Note_on_c, 1, 57, 104
2, 29306, Note_on_c, 1, 45, 0
2, 29306, Note_on_c, 1, 57, 0
2, 29312, Note_on_c, 1, 43, 103
2, 29312, Note_on_c, 1, 55, 102
2, 29370, Note_on_c, 1, 43, 0
2, 29370, Note_on_c, 1, 55, 0
2, 29376, Note_on_c, 0, 79, 112
2, 29376, Note_on_c, 0, 81, 112
2, 29376, Note_on_c, 0, 85, 113
2, 29376, Note_on_c, 0, 88, 114
2, 29376, Note_on_c, 0, 91, 115
2, 29376, Note_on_c, 1, 45, 121
2, 29376, Note_on_c, 1, 49, 118
2, 29376, Note_on_c, 1, 52, 122
2, 29376, Note_on_c, 1, 55, 118
2, 29376, Note_on_c, 1, 57, 120
2, 29549, Note_on_c, 1, 45, 0
2, 29549, Note_on_c, 1, 49, 0
2, 29549, Note_on_c, 1, 52, 0
2, 29549, Note_on_c, 1, 55, 0
2, 29549, Note_on_c, 1, 57, 0
2, 29568, Note_on_c, 1, 40, 99
2, 29568, Note_on_c, 1, 52, 95
2, 29607, Note_on_c, 0, 79, 0
2, 29607, Note_on_c, 0, 81, 0
2, 29607, Note_on_c, 0, 85, 0
2, 29607, Note_on_c, 0, 88, 0
2, 29607, Note_on_c, 0, 91, 0
2, 29626, Note_on_c, 1, 40, 0
2, 29626, Note_on_c, 1, 52, 0
2, 29632, Note_on_c, 1, 41, 114
2, 29632, Note_on_c, 1, 53, 114
2, 29690, Note_on_c, 1, 41, 0
2, 29690, Note_on_c, 1, 53, 0
2, 29696, Note_on_c, 1, 38, 100
2, 29696, Note_on_c, 1, 50, 102
2, 29754, Note_on_c, 1, 38, 0
2, 29754, Note_on_c, 1, 50, 0
2, 29760, Note_on_c, 1, 40, 114
2, 29760, Note_on_c, 1, 52, 118
2, 29818, Note_on_c, 1, 40, 0
2, 29818, Note_on_c, 1, 52, 0
2, 29824, Note_on_c, 1, 37, 100
2, 29824, Note_on_c, 1, 49, 102
2, 29882, Note_on_c, 1, 37, 0
2, 29882, Note_on_c, 1, 49, 0
2, 29888, Note_on_c, 1, 38, 120
2, 29888, Note_on_c, 1, 50, 120
2, 29946, Note_on_c, 1, 38, 0
2, 29946, Note_on_c, 1, 50, 0
2, 29952, Note_on_c, 1, 35, 100
2, 29952, Note_on_c, 1, 47, 102
2, 30010, Note_on_c, 1, 35, 0
2, 30010, Note_on_c, 1, 47, 0
2, 30016, Note_on_c, 1, 37, 115
2, 30016, Note_on_c, 1, 49, 116
2, 30074, Note_on_c, 1, 37, 0
2, 30074, Note_on_c, 1, 49, 0
2, 30080, Note_on_c, 1, 33, 101
2, 30080, Note_on_c, 1, 45, 98
2, 30138, Note_on_c, 1, 33, 0
2, 30138, Note_on_c, 1, 45, 0
2, 30144, Note_on_c, 1, 34, 115
2, 30144, Note_on_c, 1, 46, 119
2, 30202, Note_on_c, 1, 34, 0
2, 30202, Note_on_c, 1, 46, 0
2, 30208, Note_on_c, 1, 32, 105
2, 30208, Note_on_c, 1, 44, 102
2, 30266, Note_on_c, 1, 32, 0
2, 30266, Note_on_c, 1, 44, 0
2, 30272, Note_on_c, 1, 33, 115
2, 30272, Note_on_c, 1, 45, 117
2, 30330, Note_on_c, 1, 33, 0
2, 30330, Note_on_c, 1, 45, 0
2, 30336, Note_on_c, 0, 73, 97
2, 30336, Note_on_c, 0, 76, 97
2, 30336, Note_on_c, 0, 81, 100
2, 30336, Note_on_c, 0, 85, 100
2, 30336, Note_on_c, 1, 43, 126
2, 30336, Note_on_c, 1, 45, 126
2, 30336, Note_on_c, 1, 49, 126
2, 30336, Note_on_c, 1, 55, 127
2, 30394, Note_on_c, 0, 73, 0
2, 30394, Note_on_c, 0, 76, 0
2, 30394, Note_on_c, 0, 81, 0
2, 30394, Note_on_c, 0, 85, 0
2, 30394, Note_on_c, 1, 43, 0
2, 30394, Note_on_c, 1, 45, 0
2, 30394, Note_on_c, 1, 49, 0
2, 30394, Note_on_c, 1, 55, 0
2, 30400, Note_on_c, 0, 74, 117
2, 30400, Note_on_c, 0, 77, 117
2, 30400, Note_on_c, 0, 81, 116
2, 30400, Note_on_c, 0, 86, 115
2, 30400, Note_on_c, 1, 41, 110
2, 30400, Note_on_c, 1, 45, 111
2, 30400, Note_on_c, 1, 50, 112
2, 30400, Note_on_c, 1, 53, 111
2, 30516, Note_on_c, 0, 74, 0
2, 30516, Note_on_c, 0, 77, 0
2, 30516, Note_on_c, 0, 81, 0
2, 30516, Note_on_c, 0, 86, 0
2, 30516, Note_on_c, 1, 41, 0
2, 30516, Note_on_c, 1, 45, 0
2, 30516, Note_on_c, 1, 50, 0
2, 30516, Note_on_c, 1, 53, 0
2, 30528, Note_on_c, 0, 65, 86
2, 30528, Note_on_c, 0, 69, 88
2, 30528, Note_on_c, 0, 74, 87
2, 30528, Note_on_c, 0, 77, 86
2, 30528, Note_on_c, 1, 38, 102
2, 30528, Note_on_c, 1, 41, 103
2, 30528, Note_on_c, 1, 45, 100
2, 30528, Note_on_c, 1, 50, 102
2, 30644, Note_on_c, 0, 65, 0
2, 30644, Note_on_c, 0, 69, 0
2, 30644, Note_on_c, 0, 74, 0
2, 30644, Note_on_c, 0, 77, 0
2, 30644, Note_on_c, 1, 38, 0
2, 30644, Note_on_c, 1, 41, 0
2, 30644, Note_on_c, 1, 45, 0
2, 30644, Note_on_c, 1, 50, 0
2, 30656, Note_on_c, 0, 76, 100
2, 30656, Note_on_c, 0, 64, 102
2, 30656, Note_on_c, 0, 74, 102
2, 30656, Note_on_c, 0, 69, 100
2, 30656, Note_on_c, 1, 62, 104
2, 30656, Note_on_c, 1, 33, 96
2, 30656, Note_on_c, 1, 45, 93
2, 30772, Note_on_c, 0, 64, 0
2, 30772, Note_on_c, 0, 74, 0
2, 30772, Note_on_c, 1, 62, 0
2, 30784, Note_on_c, 0, 64, 105
2, 30784, Note_on_c, 0, 69, 106
2, 30784, Note_on_c, 0, 73, 103
2, 30784, Note_on_c, 1, 52, 105
2, 30784, Note_on_c, 1, 61, 106
2, 30784, Note_on_c, 1, 57, 98
2, 30829, Note_on_c, 0, 69, 0
2, 30842, Note_on_c, 1, 57, 0
2, 30848, Note_on_c, 0, 67, 100
2, 30848, Note_on_c, 1, 55, 103
2, 30887, Note_on_c, 0, 76, 0
2, 30887, Note_on_c, 1, 33, 0
2, 30887, Note_on_c, 1, 45, 0
2, 30900, Note_on_c, 0, 64, 0
2, 30900, Note_on_c, 0, 69, 0
2, 30900, Note_on_c, 0, 73, 0
2, 30900, Note_on_c, 1, 52, 0
2, 30900, Note_on_c, 1, 61, 0
2, 30906, Note_on_c, 0, 67, 0
2, 30912, Note_on_c, 0, 69, 105
2, 30912, Note_on_c, 0, 74, 104
2, 30912, Note_on_c, 0, 67, 93
2, 30912, Note_on_c, 0, 62, 99
2, 30912, Note_on_c, 1, 26, 91
2, 30912, Note_on_c, 1, 38, 91
2, 31028, Note_on_c, 0, 67, 0
2, 31028, Note_on_c, 1, 55, 0
2, 31040, Note_on_c, 0, 65, 101
2, 31040, Note_on_c, 1, 53, 103
2, 31098, Note_on_c, 0, 65, 0
2, 31098, Note_on_c, 1, 53, 0
2, 31104, Note_on_c, 0, 64, 90
2, 31104, Note_on_c, 1, 52, 91
2, 31143, Note_on_c, 0, 62, 0
2, 31162, Note_on_c, 0, 64, 0
2, 31162, Note_on_c, 1, 52, 0
2, 31168, Note_on_c, 0, 57, 101
2, 31168, Note_on_c, 0, 62, 98
2, 31168, Note_on_c, 0, 65, 98
2, 31168, Note_on_c, 1, 38, 87
2, 31168, Note_on_c, 1, 45, 86
2, 31168, Note_on_c, 1, 50, 86
2, 31168, Note_on_c, 1, 53, 101
2, 31374, Note_on_c, 0, 69, 0
2, 31374, Note_on_c, 0, 74, 0
2, 31374, Note_on_c, 1, 26, 0
2, 31374, Note_on_c, 1, 38, 0
2, 31399, Note_on_c, 0, 57, 0
2, 31399, Note_on_c, 0, 62, 0
2, 31399, Note_on_c, 0, 65, 0
2, 31399, Note_on_c, 1, 38, 0
2, 31399, Note_on_c, 1, 45, 0
2, 31399, Note_on_c, 1, 50, 0
2, 31399, Note_on_c, 1, 53, 0
2, 31488, Note_on_c, 1, 69, 71
2, 31546, Note_on_c, 1, 69, 0
2, 31552, Note_on_c, 1, 67, 75
2, 31610, Note_on_c, 1, 67, 0
2, 31616, Note_on_c, 1, 69, 84
2, 31674, Note_on_c, 1, 69, 0
2, 31680, Note_on_c, 1, 65, 73
2, 31738, Note_on_c, 1, 65, 0
2, 31744, Note_on_c, 1, 69, 86
2, 31802, Note_on_c, 1, 69, 0
2, 31808, Note_on_c, 1, 64, 68
2, 31866, Note_on_c, 1, 64, 0
2, 31872, Note_on_c, 1, 69, 87
2, 31930, Note_on_c, 1, 69, 0
2, 31936, Note_on_c, 1, 62, 69
2, 31994, Note_on_c, 1, 62, 0
2, 32000, Note_on_c, 1, 69, 90
2, 32058, Note_on_c, 1, 69, 0
2, 32064, Note_on_c, 1, 61, 65
2, 32122, Note_on_c, 1, 61, 0
2, 32128, Note_on_c, 1, 69, 93
2, 32186, Note_on_c, 1, 69, 0
2, 32192, Note_on_c, 1, 62, 71
2, 32250, Note_on_c, 1, 62, 0
2, 32256, Note_on_c, 1, 69, 92
2, 32314, Note_on_c, 1, 69, 0
2, 32320, Note_on_c, 1, 64, 71
2, 32378, Note_on_c, 1, 64, 0
2, 32384, Note_on_c, 1, 69, 89
2, 32442, Note_on_c, 1, 69, 0
2, 32448, Note_on_c, 1, 65, 74
2, 32506, Note_on_c, 1, 65, 0
2, 32512, Note_on_c, 1, 69, 86
2, 32570, Note_on_c, 1, 69, 0
2, 32576, Note_on_c, 1, 57, 61
2, 32634, Note_on_c, 1, 57, 0
2, 32640, Note_on_c, 1, 69, 96
2, 32698, Note_on_c, 1, 69, 0
2, 32704, Note_on_c, 1, 59, 66
2, 32762, Note_on_c, 1, 59, 0
2, 32768, Note_on_c, 1, 69, 94
2, 32826, Note_on_c, 1, 69, 0
2, 32832, Note_on_c, 1, 61, 68
2, 32890, Note_on_c, 1, 61, 0
2, 32896, Note_on_c, 1, 69, 94
2, 32954, Note_on_c, 1, 69, 0
2, 32960, Note_on_c, 1, 62, 69
2, 33018, Note_on_c, 1, 62, 0
2, 33024, Note_on_c, 1, 69, 94
2, 33082, Note_on_c, 1, 69, 0
2, 33088, Note_on_c, 1, 61, 65
2, 33146, Note_on_c, 1, 61, 0
2, 33152, Note_on_c, 1, 69, 94
2, 33210, Note_on_c, 1, 69, 0
2, 33216, Note_on_c, 1, 62, 71
2, 33274, Note_on_c, 1, 62, 0
2, 33280, Note_on_c, 1, 69, 91
2, 33338, Note_on_c, 1, 69, 0
2, 33344, Note_on_c, 1, 64, 69
2, 33402, Note_on_c, 1, 64, 0
2, 33408, Note_on_c, 1, 69, 87
2, 33466, Note_on_c, 1, 69, 0
2, 33472, Note_on_c, 1, 65, 75
2, 33536, Note_on_c, 0, 74, 69
2, 33588, Note_on_c, 1, 65, 0
2, 33594, Note_on_c, 0, 74, 0
2, 33600, Note_on_c, 0, 72, 71
2, 33600, Note_on_c, 1, 66, 81
2, 33658, Note_on_c, 0, 72, 0
2, 33664, Note_on_c, 0, 74, 86
2, 33716, Note_on_c, 1, 66, 0
2, 33722, Note_on_c, 0, 74, 0
2, 33728, Note_on_c, 0, 70, 73
2, 33728, Note_on_c, 1, 67, 87
2, 33786, Note_on_c, 0, 70, 0
2, 33792, Note_on_c, 0, 74, 87
2, 33844, Note_on_c, 1, 67, 0
2, 33850, Note_on_c, 0, 74, 0
2, 33856, Note_on_c, 0, 69, 69
2, 33856, Note_on_c, 1, 60, 64
2, 33914, Note_on_c, 0, 69, 0
2, 33920, Note_on_c, 0, 74, 91
2, 33972, Note_on_c, 1, 60, 0
2, 33978, Note_on_c, 0, 74, 0
2, 33984, Note_on_c, 0, 67, 70
2, 33984, Note_on_c, 1, 58, 76
2, 34042, Note_on_c, 0, 67, 0
2, 34048, Note_on_c, 0, 74, 91
2, 34100, Note_on_c, 1, 58, 0
2, 34106, Note_on_c, 0, 74, 0
2, 34112, Note_on_c, 0, 66, 66
2, 34112, Note_on_c, 1, 57, 73
2, 34170, Note_on_c, 0, 66, 0
2, 34176, Note_on_c, 0, 74, 93
2, 34228, Note_on_c, 1, 57, 0
2, 34234, Note_on_c, 0, 74, 0
2, 34240, Note_on_c, 0, 67, 69
2, 34240, Note_on_c, 1, 58, 85
2, 34298, Note_on_c, 0, 67, 0
2, 34304, Note_on_c, 0, 74, 94
2, 34356, Note_on_c, 1, 58, 0
2, 34362, Note_on_c, 0, 74, 0
2, 34368, Note_on_c, 0, 69, 72
2, 34368, Note_on_c, 1, 60, 87
2, 34426, Note_on_c, 0, 69, 0
2, 34432, Note_on_c, 0, 74, 89
2, 34484, Note_on_c, 1, 60, 0
2, 34490, Note_on_c, 0, 74, 0
2, 34496, Note_on_c, 0, 70, 76
2, 34496, Note_on_c, 1, 62, 87
2, 34554, Note_on_c, 0, 70, 0
2, 34560, Note_on_c, 0, 74, 88
2, 34612, Note_on_c, 1, 62, 0
2, 34618, Note_on_c, 0, 74, 0
2, 34624, Note_on_c, 0, 62, 59
2, 34624, Note_on_c, 1, 54, 65
2, 34682, Note_on_c, 0, 62, 0
2, 34688, Note_on_c, 0, 74, 97
2, 34740, Note_on_c, 1, 54, 0
2, 34746, Note_on_c, 0, 74, 0
2, 34752, Note_on_c, 0, 64, 67
2, 34752, Note_on_c, 1, 55, 83
2, 34810, Note_on_c, 0, 64, 0
2, 34816, Note_on_c, 0, 74, 94
2, 34868, Note_on_c, 1, 55, 0
2, 34874, Note_on_c, 0, 74, 0
2, 34880, Note_on_c, 0, 66, 67
2, 34880, Note_on_c, 1, 57, 85
2, 34938, Note_on_c, 0, 66, 0
2, 34944, Note_on_c, 0, 74, 92
2, 34996, Note_on_c, 1, 57, 0
2, 35002, Note_on_c, 0, 74, 0
2, 35008, Note_on_c, 0, 67, 72
2, 35008, Note_on_c, 1, 58, 85
2, 35066, Note_on_c, 0, 67, 0
2, 35072, Note_on_c, 0, 74, 92
2, 35124, Note_on_c, 1, 58, 0
2, 35130, Note_on_c, 0, 74, 0
2, 35136, Note_on_c, 0, 66, 66
2, 35136, Note_on_c, 1, 57, 77
2, 35194, Note_on_c, 0, 66, 0
2, 35200, Note_on_c, 0, 74, 94
2, 35252, Note_on_c, 1, 57, 0
2, 35258, Note_on_c, 0, 74, 0
2, 35264, Note_on_c, 0, 67, 71
2, 35264, Note_on_c, 1, 58, 85
2, 35322, Note_on_c, 0, 67, 0
2, 35328, Note_on_c, 0, 74, 93
2, 35380, Note_on_c, 1, 58, 0
2, 35386, Note_on_c, 0, 74, 0
2, 35392, Note_on_c, 0, 69, 72
2, 35392, Note_on_c, 1, 54, 72
2, 35450, Note_on_c, 0, 69, 0
2, 35456, Note_on_c, 0, 74, 88
2, 35508, Note_on_c, 1, 54, 0
2, 35514, Note_on_c, 0, 74, 0
2, 35520, Note_on_c, 0, 70, 76
2, 35520, Note_on_c, 1, 55, 84
2, 35578, Note_on_c, 1, 55, 0
2, 35583, Note_on_c, 0, 70, 0
2, 35584, Note_on_c, 1, 67, 103
2, 35642, Note_on_c, 1, 67, 0
2, 35648, Note_on_c, 0, 74, 86
2, 35648, Note_on_c, 1, 55, 62
2, 35706, Note_on_c, 1, 55, 0
2, 35711, Note_on_c, 0, 74, 0
2, 35712, Note_on_c, 1, 67, 98
2, 35770, Note_on_c, 1, 67, 0
2, 35776, Note_on_c, 0, 70, 74
2, 35776, Note_on_c, 1, 62, 74
2, 35834, Note_on_c, 1, 62, 0
2, 35839, Note_on_c, 0, 70, 0
2, 35840, Note_on_c, 1, 67, 89
2, 35898, Note_on_c, 1, 67, 0
2, 35904, Note_on_c, 0, 74, 88
2, 35904, Note_on_c, 1, 62, 71
2, 35962, Note_on_c, 1, 62, 0
2, 35967, Note_on_c, 0, 74, 0
2, 35968, Note_on_c, 1, 67, 89
2, 36026, Note_on_c, 1, 67, 0
2, 36032, Note_on_c, 0, 75, 88
2, 36032, Note_on_c, 1, 60, 68
2, 36090, Note_on_c, 1, 60, 0
2, 36095, Note_on_c, 0, 75, 0
2, 36096, Note_on_c, 1, 63, 86
2, 36154, Note_on_c, 1, 63, 0
2, 36160, Note_on_c, 0, 67, 66
2, 36160, Note_on_c, 1, 60, 71
2, 36218, Note_on_c, 1, 60, 0
2, 36223, Note_on_c, 0, 67, 0
2, 36224, Note_on_c, 1, 63, 85
2, 36282, Note_on_c, 1, 63, 0
2, 36288, Note_on_c, 0, 75, 95
2, 36288, Note_on_c, 1, 60, 76
2, 36346, Note_on_c, 1, 60, 0
2, 36351, Note_on_c, 0, 75, 0
2, 36352, Note_on_c, 1, 63, 85
2, 36410, Note_on_c, 1, 63, 0
2, 36416, Note_on_c, 0, 67, 66
2, 36416, Note_on_c, 1, 60, 73
2, 36474, Note_on_c, 1, 60, 0
2, 36479, Note_on_c, 0, 67, 0
2, 36480, Note_on_c, 1, 63, 86
2, 36538, Note_on_c, 1, 63, 0
2, 36544, Note_on_c, 0, 72, 92
2, 36544, Note_on_c, 1, 60, 76
2, 36602, Note_on_c, 1, 60, 0
2, 36607, Note_on_c, 0, 72, 0
2, 36608, Note_on_c, 1, 65, 91
2, 36666, Note_on_c, 1, 65, 0
2, 36672, Note_on_c, 0, 69, 75
2, 36672, Note_on_c, 1, 60, 72
2, 36730, Note_on_c, 1, 60, 0
2, 36735, Note_on_c, 0, 69, 0
2, 36736, Note_on_c, 1, 65, 91
2, 36794, Note_on_c, 1, 65, 0
2, 36800, Note_on_c, 0, 72, 89
2, 36800, Note_on_c, 1, 60, 74
2, 36858, Note_on_c, 1, 60, 0
2, 36863, Note_on_c, 0, 72, 0
2, 36864, Note_on_c, 1, 65, 89
2, 36922, Note_on_c, 1, 65, 0
2, 36928, Note_on_c, 0, 69, 72
2, 36928, Note_on_c, 1, 60, 70
2, 36986, Note_on_c, 1, 60, 0
2, 36991, Note_on_c, 0, 69, 0
2, 36992, Note_on_c, 1, 65, 90
2, 37050, Note_on_c, 1, 65, 0
2, 37056, Note_on_c, 0, 74, 91
2, 37056, Note_on_c, 1, 58, 70
2, 37114, Note_on_c, 1, 58, 0
2, 37119, Note_on_c, 0, 74, 0
2, 37120, Note_on_c, 1, 62, 85
2, 37178, Note_on_c, 1, 62, 0
2, 37184, Note_on_c, 0, 65, 65
2, 37184, Note_on_c, 1, 58, 71
2, 37242, Note_on_c, 1, 58, 0
2, 37247, Note_on_c, 0, 65, 0
2, 37248, Note_on_c, 1, 62, 87
2, 37306, Note_on_c, 1, 62, 0
2, 37312, Note_on_c, 0, 74, 97
2, 37312, Note_on_c, 1, 58, 77
2, 37370, Note_on_c, 1, 58, 0
2, 37375, Note_on_c, 0, 74, 0
2, 37376, Note_on_c, 1, 62, 87
2, 37434, Note_on_c, 1, 62, 0
2, 37440, Note_on_c, 0, 65, 64
2, 37440, Note_on_c, 1, 58, 74
2, 37498, Note_on_c, 1, 58, 0
2, 37503, Note_on_c, 0, 65, 0
2, 37504, Note_on_c, 1, 62, 87
2, 37562, Note_on_c, 1, 62, 0
2, 37568, Note_on_c, 0, 70, 91
2, 37568, Note_on_c, 1, 58, 75
2, 37626, Note_on_c, 1, 58, 0
2, 37631, Note_on_c, 0, 70, 0
2, 37632, Note_on_c, 1, 64, 90
2, 37690, Note_on_c, 1, 64, 0
2, 37696, Note_on_c, 0, 67, 72
2, 37696, Note_on_c, 1, 58, 68
2, 37754, Note_on_c, 1, 58, 0
2, 37759, Note_on_c, 0, 67, 0
2, 37760, Note_on_c, 1, 64, 90
2, 37818, Note_on_c, 1, 64, 0
2, 37824, Note_on_c, 0, 70, 89
2, 37824, Note_on_c, 1, 58, 71
2, 37882, Note_on_c, 1, 58, 0
2, 37887, Note_on_c, 0, 70, 0
2, 37888, Note_on_c, 1, 64, 90
2, 37946, Note_on_c, 1, 64, 0
2, 37952, Note_on_c, 0, 67, 73
2, 37952, Note_on_c, 1, 58, 70
2, 38010, Note_on_c, 1, 58, 0
2, 38015, Note_on_c, 0, 67, 0
2, 38016, Note_on_c, 1, 64, 90
2, 38074, Note_on_c, 1, 64, 0
2, 38080, Note_on_c, 0, 73, 93
2, 38080, Note_on_c, 1, 57, 72
2, 38138, Note_on_c, 1, 57, 0
2, 38144, Note_on_c, 1, 61, 85
2, 38196, Note_on_c, 0, 73, 0
2, 38202, Note_on_c, 1, 61, 0
2, 38208, Note_on_c, 0, 64, 65
2, 38208, Note_on_c, 1, 57, 71
2, 38266, Note_on_c, 1, 57, 0
2, 38272, Note_on_c, 1, 61, 86
2, 38324, Note_on_c, 0, 64, 0
2, 38330, Note_on_c, 1, 61, 0
2, 38336, Note_on_c, 0, 73, 100
2, 38336, Note_on_c, 1, 57, 76
2, 38394, Note_on_c, 1, 57, 0
2, 38400, Note_on_c, 1, 61, 85
2, 38452, Note_on_c, 0, 73, 0
2, 38458, Note_on_c, 1, 61, 0
2, 38464, Note_on_c, 0, 64, 64
2, 38464, Note_on_c, 1, 57, 72
2, 38522, Note_on_c, 1, 57, 0
2, 38528, Note_on_c, 1, 61, 86
2, 38580, Note_on_c, 0, 64, 0
2, 38586, Note_on_c, 1, 61, 0
2, 38592, Note_on_c, 0, 69, 91
2, 38592, Note_on_c, 1, 53, 67
2, 38650, Note_on_c, 1, 53, 0
2, 38656, Note_on_c, 1, 62, 96
2, 38708, Note_on_c, 0, 69, 0
2, 38714, Note_on_c, 1, 62, 0
2, 38720, Note_on_c, 0, 65, 72
2, 38720, Note_on_c, 1, 53, 66
2, 38778, Note_on_c, 1, 53, 0
2, 38784, Note_on_c, 1, 62, 94
2, 38836, Note_on_c, 0, 65, 0
2, 38842, Note_on_c, 1, 62, 0
2, 38848, Note_on_c, 0, 69, 90
2, 38848, Note_on_c, 1, 53, 68
2, 38906, Note_on_c, 1, 53, 0
2, 38912, Note_on_c, 1, 62, 97
2, 38964, Note_on_c, 0, 69, 0
2, 38970, Note_on_c, 1, 62, 0
2, 38976, Note_on_c, 0, 65, 71
2, 38976, Note_on_c, 1, 53, 66
2, 39034, Note_on_c, 1, 53, 0
2, 39040, Note_on_c, 1, 62, 95
2, 39092, Note_on_c, 0, 65, 0
2, 39098, Note_on_c, 1, 62, 0
2, 39104, Note_on_c, 0, 67, 85
2, 39104, Note_on_c, 1, 52, 68
2, 39162, Note_on_c, 1, 52, 0
2, 39168, Note_on_c, 1, 58, 88
2, 39220, Note_on_c, 0, 67, 0
2, 39226, Note_on_c, 1, 58, 0
2, 39232, Note_on_c, 0, 61, 66
2, 39232, Note_on_c, 1, 52, 70
2, 39290, Note_on_c, 1, 52, 0
2, 39296, Note_on_c, 1, 58, 89
2, 39348, Note_on_c, 0, 61, 0
2, 39354, Note_on_c, 1, 58, 0
2, 39360, Note_on_c, 0, 67, 94
2, 39360, Note_on_c, 1, 52, 71
2, 39418, Note_on_c, 1, 52, 0
2, 39424, Note_on_c, 1, 58, 90
2, 39476, Note_on_c, 0, 67, 0
2, 39482, Note_on_c, 1, 58, 0
2, 39488, Note_on_c, 0, 61, 69
2, 39488, Note_on_c, 1, 52, 69
2, 39546, Note_on_c, 1, 52, 0
2, 39552, Note_on_c, 1, 58, 89
2, 39604, Note_on_c, 0, 61, 0
2, 39610, Note_on_c, 1, 58, 0
2, 39616, Note_on_c, 0, 65, 89
2, 39616, Note_on_c, 1, 50, 70
2, 39674, Note_on_c, 1, 50, 0
2, 39680, Note_on_c, 1, 57, 91
2, 39732, Note_on_c, 0, 65, 0
2, 39738, Note_on_c, 1, 57, 0
2, 39744, Note_on_c, 0, 62, 74
2, 39744, Note_on_c, 1, 50, 67
2, 39802, Note_on_c, 1, 50, 0
2, 39808, Note_on_c, 1, 57, 92
2, 39860, Note_on_c, 0, 62, 0
2, 39866, Note_on_c, 1, 57, 0
2, 39872, Note_on_c, 0, 65, 89
2, 39872, Note_on_c, 1, 50, 70
2, 39930, Note_on_c, 1, 50, 0
2, 39936, Note_on_c, 1, 57, 91
2, 39988, Note_on_c, 0, 65, 0
2, 39994, Note_on_c, 1, 57, 0
2, 40000, Note_on_c, 0, 62, 74
2, 40000, Note_on_c, 1, 50, 66
2, 40058, Note_on_c, 1, 50, 0
2, 40064, Note_on_c, 1, 57, 91
2, 40116, Note_on_c, 0, 62, 0
2, 40122, Note_on_c, 1, 57, 0
2, 40128, Note_on_c, 0, 64, 86
2, 40128, Note_on_c, 1, 52, 73
2, 40186, Note_on_c, 1, 52, 0
2, 40192, Note_on_c, 1, 55, 85
2, 40244, Note_on_c, 0, 64, 0
2, 40250, Note_on_c, 1, 55, 0
2, 40256, Note_on_c, 0, 58, 67
2, 40256, Note_on_c, 1, 52, 72
2, 40314, Note_on_c, 1, 52, 0
2, 40320, Note_on_c, 1, 55, 87
2, 40372, Note_on_c, 0, 58, 0
2, 40378, Note_on_c, 1, 55, 0
2, 40384, Note_on_c, 0, 64, 92
2, 40384, Note_on_c, 1, 52, 75
2, 40442, Note_on_c, 1, 52, 0
2, 40448, Note_on_c, 1, 55, 85
2, 40500, Note_on_c, 0, 64, 0
2, 40506, Note_on_c, 1, 55, 0
2, 40512, Note_on_c, 0, 58, 68
2, 40512, Note_on_c, 1, 52, 74
2, 40570, Note_on_c, 1, 52, 0
2, 40576, Note_on_c, 1, 55, 85
2, 40628, Note_on_c, 0, 58, 0
2, 40634, Note_on_c, 1, 55, 0
2, 40640, Note_on_c, 1, 57, 88
2, 40640, Note_on_c, 1, 53, 75
2, 40704, Note_on_c, 0, 81, 71
2, 40756, Note_on_c, 1, 57, 0
2, 40756, Note_on_c, 1, 53, 0
2, 40762, Note_on_c, 0, 81, 0
2, 40768, Note_on_c, 0, 79, 74
2, 40768, Note_on_c, 1, 57, 80
2, 40768, Note_on_c, 1, 52, 77
2, 40826, Note_on_c, 0, 79, 0
2, 40832, Note_on_c, 0, 81, 85
2, 40884, Note_on_c, 1, 57, 0
2, 40884, Note_on_c, 1, 52, 0
2, 40890, Note_on_c, 0, 81, 0
2, 40896, Note_on_c, 0, 77, 76
2, 40896, Note_on_c, 1, 57, 81
2, 40896, Note_on_c, 1, 50, 78
2, 40954, Note_on_c, 0, 77, 0
2, 40960, Note_on_c, 0, 81, 88
2, 41012, Note_on_c, 1, 57, 0
2, 41012, Note_on_c, 1, 50, 0
2, 41018, Note_on_c, 0, 81, 0
2, 41024, Note_on_c, 0, 76, 68
2, 41024, Note_on_c, 1, 57, 80
2, 41024, Note_on_c, 1, 55, 90
2, 41082, Note_on_c, 0, 76, 0
2, 41088, Note_on_c, 0, 81, 90
2, 41140, Note_on_c, 1, 57, 0
2, 41140, Note_on_c, 1, 55, 0
2, 41146, Note_on_c, 0, 81, 0
2, 41152, Note_on_c, 0, 74, 67
2, 41152, Note_on_c, 1, 57, 84
2, 41152, Note_on_c, 1, 53, 79
2, 41210, Note_on_c, 0, 74, 0
2, 41216, Note_on_c, 0, 81, 91
2, 41268, Note_on_c, 1, 57, 0
2, 41268, Note_on_c, 1, 53, 0
2, 41274, Note_on_c, 0, 81, 0
2, 41280, Note_on_c, 0, 73, 68
2, 41280, Note_on_c, 1, 57, 82
2, 41280, Note_on_c, 1, 52, 77
2, 41338, Note_on_c, 0, 73, 0
2, 41344, Note_on_c, 0, 81, 92
2, 41396, Note_on_c, 1, 57, 0
2, 41396, Note_on_c, 1, 52, 0
2, 41402, Note_on_c, 0, 81, 0
2, 41408, Note_on_c, 0, 74, 71
2, 41408, Note_on_c, 1, 57, 82
2, 41408, Note_on_c, 1, 53, 86
2, 41466, Note_on_c, 0, 74, 0
2, 41472, Note_on_c, 0, 81, 92
2, 41524, Note_on_c, 1, 57, 0
2, 41524, Note_on_c, 1, 53, 0
2, 41530, Note_on_c, 0, 81, 0
2, 41536, Note_on_c, 0, 76, 71
2, 41536, Note_on_c, 1, 57, 78
2, 41536, Note_on_c, 1, 49, 70
2, 41594, Note_on_c, 0, 76, 0
2, 41600, Note_on_c, 0, 81, 90
2, 41652, Note_on_c, 1, 57, 0
2, 41652, Note_on_c, 1, 49, 0
2, 41658, Note_on_c, 0, 81, 0
2, 41664, Note_on_c, 0, 77, 77
2, 41664, Note_on_c, 1, 57, 84
2, 41664, Note_on_c, 1, 50, 85
2, 41722, Note_on_c, 0, 77, 0
2, 41728, Note_on_c, 0, 81, 85
2, 41780, Note_on_c, 1, 57, 0
2, 41780, Note_on_c, 1, 50, 0
2, 41786, Note_on_c, 0, 81, 0
2, 41792, Note_on_c, 0, 69, 58
2, 41792, Note_on_c, 1, 57, 81
2, 41792, Note_on_c, 1, 49, 76
2, 41850, Note_on_c, 0, 69, 0
2, 41856, Note_on_c, 0, 81, 97
2, 41908, Note_on_c, 1, 57, 0
2, 41908, Note_on_c, 1, 49, 0
2, 41914, Note_on_c, 0, 81, 0
2, 41920, Note_on_c, 0, 71, 66
2, 41920, Note_on_c, 1, 57, 83
2, 41920, Note_on_c, 1, 50, 84
2, 41978, Note_on_c, 0, 71, 0
2, 41984, Note_on_c, 0, 81, 96
2, 42036, Note_on_c, 1, 57, 0
2, 42036, Note_on_c, 1, 50, 0
2, 42042, Note_on_c, 0, 81, 0
2, 42048, Note_on_c, 0, 73, 65
2, 42048, Note_on_c, 1, 57, 78
2, 42048, Note_on_c, 1, 52, 85
2, 42106, Note_on_c, 0, 73, 0
2, 42112, Note_on_c, 0, 81, 91
2, 42164, Note_on_c, 1, 57, 0
2, 42164, Note_on_c, 1, 52, 0
2, 42170, Note_on_c, 0, 81, 0
2, 42176, Note_on_c, 0, 74, 72
2, 42176, Note_on_c, 1, 57, 85
2, 42176, Note_on_c, 1, 53, 89
2, 42234, Note_on_c, 0, 74, 0
2, 42240, Note_on_c, 0, 81, 91
2, 42292, Note_on_c, 1, 57, 0
2, 42292, Note_on_c, 1, 53, 0
2, 42298, Note_on_c, 0, 81, 0
2, 42304, Note_on_c, 0, 73, 68
2, 42304, Note_on_c, 1, 57, 80
2, 42304, Note_on_c, 1, 52, 74
2, 42362, Note_on_c, 0, 73, 0
2, 42368, Note_on_c, 0, 81, 92
2, 42420, Note_on_c, 1, 57, 0
2, 42420, Note_on_c, 1, 52, 0
2, 42426, Note_on_c, 0, 81, 0
2, 42432, Note_on_c, 0, 74, 70
2, 42432, Note_on_c, 1, 57, 84
2, 42432, Note_on_c, 1, 53, 87
2, 42490, Note_on_c, 0, 74, 0
2, 42496, Note_on_c, 0, 81, 94
2, 42548, Note_on_c, 1, 57, 0
2, 42548, Note_on_c, 1, 53, 0
2, 42554, Note_on_c, 0, 81, 0
2, 42560, Note_on_c, 0, 76, 73
2, 42560, Note_on_c, 1, 57, 81
2, 42560, Note_on_c, 1, 49, 69
2, 42618, Note_on_c, 0, 76, 0
2, 42624, Note_on_c, 0, 81, 90
2, 42676, Note_on_c, 1, 57, 0
2, 42676, Note_on_c, 1, 49, 0
2, 42682, Note_on_c, 0, 81, 0
2, 42688, Note_on_c, 0, 77, 77
2, 42688, Note_on_c, 1, 57, 78
2, 42688, Note_on_c, 1, 50, 83
2, 42746, Note_on_c, 0, 77, 0
2, 42752, Note_on_c, 0, 81, 85
2, 42804, Note_on_c, 1, 50, 0
2, 42810, Note_on_c, 0, 81, 0
2, 42816, Note_on_c, 0, 76, 69
2, 42816, Note_on_c, 1, 53, 88
2, 42874, Note_on_c, 0, 76, 0
2, 42879, Note_on_c, 1, 53, 0
2, 42880, Note_on_c, 0, 81, 90
2, 42919, Note_on_c, 1, 57, 0
2, 42938, Note_on_c, 0, 81, 0
2, 42944, Note_on_c, 0, 74, 71
2, 42944, Note_on_c, 1, 62, 90
2, 42944, Note_on_c, 1, 53, 84
2, 43002, Note_on_c, 0, 74, 0
2, 43008, Note_on_c, 0, 81, 91
2, 43060, Note_on_c, 1, 53, 0
2, 43066, Note_on_c, 0, 81, 0
2, 43072, Note_on_c, 0, 72, 64
2, 43072, Note_on_c, 1, 57, 87
2, 43130, Note_on_c, 0, 72, 0
2, 43135, Note_on_c, 1, 57, 0
2, 43136, Note_on_c, 0, 81, 96
2, 43175, Note_on_c, 1, 62, 0
2, 43194, Note_on_c, 0, 81, 0
2, 43200, Note_on_c, 0, 70, 64
2, 43200, Note_on_c, 1, 62, 82
2, 43200, Note_on_c, 1, 55, 81
2, 43258, Note_on_c, 0, 70, 0
2, 43264, Note_on_c, 0, 81, 96
2, 43316, Note_on_c, 1, 62, 0
2, 43322, Note_on_c, 0, 81, 0
2, 43328, Note_on_c, 0, 72, 66
2, 43328, Note_on_c, 1, 65, 84
2, 43386, Note_on_c, 0, 72, 0
2, 43391, Note_on_c, 1, 65, 0
2, 43392, Note_on_c, 0, 81, 95
2, 43431, Note_on_c, 1, 55, 0
2, 43450, Note_on_c, 0, 81, 0
2, 43456, Note_on_c, 0, 74, 70
2, 43456, Note_on_c, 1, 65, 83
2, 43514, Note_on_c, 0, 74, 0
2, 43520, Note_on_c, 0, 79, 87
2, 43572, Note_on_c, 1, 65, 0
2, 43578, Note_on_c, 0, 79, 0
2, 43584, Note_on_c, 0, 70, 65
2, 43584, Note_on_c, 1, 70, 91
2, 43642, Note_on_c, 0, 70, 0
2, 43648, Note_on_c, 0, 79, 97
2, 43700, Note_on_c, 1, 70, 0
2, 43706, Note_on_c, 0, 79, 0
2, 43712, Note_on_c, 0, 76, 77
2, 43712, Note_on_c, 1, 60, 65
2, 43712, Note_on_c, 1, 48, 74
2, 43770, Note_on_c, 0, 76, 0
2, 43776, Note_on_c, 0, 79, 87
2, 43828, Note_on_c, 1, 48, 0
2, 43834, Note_on_c, 0, 79, 0
2, 43840, Note_on_c, 0, 74, 70
2, 43840, Note_on_c, 1, 52, 88
2, 43898, Note_on_c, 0, 74, 0
2, 43903, Note_on_c, 1, 52, 0
2, 43904, Note_on_c, 0, 79, 88
2, 43943, Note_on_c, 1, 60, 0
2, 43962, Note_on_c, 0, 79, 0
2, 43968, Note_on_c, 0, 72, 71
2, 43968, Note_on_c, 1, 60, 77
2, 43968, Note_on_c, 1, 52, 84
2, 44026, Note_on_c, 0, 72, 0
2, 44032, Note_on_c, 0, 79, 93
2, 44084, Note_on_c, 1, 52, 0
2, 44090, Note_on_c, 0, 79, 0
2, 44096, Note_on_c, 0, 70, 65
2, 44096, Note_on_c, 1, 55, 85
2, 44154, Note_on_c, 0, 70, 0
2, 44159, Note_on_c, 1, 55, 0
2, 44160, Note_on_c, 0, 79, 94
2, 44199, Note_on_c, 1, 60, 0
2, 44218, Note_on_c, 0, 79, 0
2, 44224, Note_on_c, 0, 69, 67
2, 44224, Note_on_c, 1, 60, 83
2, 44224, Note_on_c, 1, 53, 78
2, 44282, Note_on_c, 0, 69, 0
2, 44288, Note_on_c, 0, 79, 95
2, 44340, Note_on_c, 1, 60, 0
2, 44346, Note_on_c, 0, 79, 0
2, 44352, Note_on_c, 0, 70, 65
2, 44352, Note_on_c, 1, 64, 90
2, 44410, Note_on_c, 0, 70, 0
2, 44415, Note_on_c, 1, 64, 0
2, 44416, Note_on_c, 0, 79, 93
2, 44455, Note_on_c, 1, 53, 0
2, 44474, Note_on_c, 0, 79, 0
2, 44480, Note_on_c, 0, 72, 71
2, 44480, Note_on_c, 1, 64, 84
2, 44538, Note_on_c, 0, 72, 0
2, 44544, Note_on_c, 0, 77, 88
2, 44596, Note_on_c, 1, 64, 0
2, 44602, Note_on_c, 0, 77, 0
2, 44608, Note_on_c, 0, 69, 63
2, 44608, Note_on_c, 1, 69, 89
2, 44666, Note_on_c, 0, 69, 0
2, 44672, Note_on_c, 0, 77, 91
2, 44724, Note_on_c, 1, 69, 0
2, 44730, Note_on_c, 0, 77, 0
2, 44736, Note_on_c, 0, 74, 76
2, 44736, Note_on_c, 1, 58, 62
2, 44736, Note_on_c, 1, 46, 74
2, 44794, Note_on_c, 0, 74, 0
2, 44800, Note_on_c, 0, 77, 87
2, 44852, Note_on_c, 1, 46, 0
2, 44858, Note_on_c, 0, 77, 0
2, 44864, Note_on_c, 0, 72, 69
2, 44864, Note_on_c, 1, 50, 88
2, 44922, Note_on_c, 0, 72, 0
2, 44927, Note_on_c, 1, 50, 0
2, 44928, Note_on_c, 0, 77, 87
2, 44967, Note_on_c, 1, 58, 0
2, 44986, Note_on_c, 0, 77, 0
2, 44992, Note_on_c, 0, 70, 68
2, 44992, Note_on_c, 1, 58, 75
2, 44992, Note_on_c, 1, 50, 85
2, 45050, Note_on_c, 0, 70, 0
2, 45056, Note_on_c, 0, 77, 92
2, 45108, Note_on_c, 1, 50, 0
2, 45114, Note_on_c, 0, 77, 0
2, 45120, Note_on_c, 0, 69, 67
2, 45120, Note_on_c, 1, 53, 86
2, 45178, Note_on_c, 0, 69, 0
2, 45183, Note_on_c, 1, 53, 0
2, 45184, Note_on_c, 0, 77, 94
2, 45223, Note_on_c, 1, 58, 0
2, 45242, Note_on_c, 0, 77, 0
2, 45248, Note_on_c, 0, 67, 67
2, 45248, Note_on_c, 1, 58, 83
2, 45248, Note_on_c, 1, 52, 81
2, 45306, Note_on_c, 0, 67, 0
2, 45312, Note_on_c, 0, 77, 95
2, 45364, Note_on_c, 1, 58, 0
2, 45370, Note_on_c, 0, 77, 0
2, 45376, Note_on_c, 0, 69, 66
2, 45376, Note_on_c, 1, 62, 88
2, 45434, Note_on_c, 0, 69, 0
2, 45439, Note_on_c, 1, 62, 0
2, 45440, Note_on_c, 0, 77, 93
2, 45479, Note_on_c, 1, 52, 0
2, 45498, Note_on_c, 0, 77, 0
2, 45504, Note_on_c, 0, 70, 71
2, 45504, Note_on_c, 1, 62, 82
2, 45562, Note_on_c, 0, 70, 0
2, 45568, Note_on_c, 0, 76, 89
2, 45620, Note_on_c, 1, 62, 0
2, 45626, Note_on_c, 0, 76, 0
2, 45632, Note_on_c, 0, 67, 64
2, 45632, Note_on_c, 1, 67, 89
2, 45690, Note_on_c, 0, 67, 0
2, 45696, Note_on_c, 0, 76, 94
2, 45748, Note_on_c, 1, 67, 0
2, 45754, Note_on_c, 0, 76, 0
2, 45760, Note_on_c, 0, 73, 78
2, 45760, Note_on_c, 1, 57, 65
2, 45760, Note_on_c, 1, 45, 76
2, 45818, Note_on_c, 0, 73, 0
2, 45824, Note_on_c, 0, 76, 84
2, 45876, Note_on_c, 1, 45, 0
2, 45882, Note_on_c, 0, 76, 0
2, 45888, Note_on_c, 0, 70, 66
2, 45888, Note_on_c, 1, 49, 87
2, 45946, Note_on_c, 0, 70, 0
2, 45951, Note_on_c, 1, 49, 0
2, 45952, Note_on_c, 0, 76, 91
2, 45991, Note_on_c, 1, 57, 0
2, 46010, Note_on_c, 0, 76, 0
2, 46016, Note_on_c, 0, 69, 71
2, 46016, Note_on_c, 1, 57, 76
2, 46016, Note_on_c, 1, 49, 84
2, 46074, Note_on_c, 0, 69, 0
2, 46080, Note_on_c, 0, 76, 93
2, 46132, Note_on_c, 1, 49, 0
2, 46138, Note_on_c, 0, 76, 0
2, 46144, Note_on_c, 0, 67, 65
2, 46144, Note_on_c, 1, 52, 87
2, 46202, Note_on_c, 0, 67, 0
2, 46207, Note_on_c, 1, 52, 0
2, 46208, Note_on_c, 0, 76, 95
2, 46247, Note_on_c, 1, 57, 0
2, 46266, Note_on_c, 0, 76, 0
2, 46272, Note_on_c, 0, 65, 64
2, 46272, Note_on_c, 1, 57, 82
2, 46272, Note_on_c, 1, 50, 79
2, 46330, Note_on_c, 0, 65, 0
2, 46336, Note_on_c, 0, 76, 96
2, 46394, Note_on_c, 0, 76, 0
2, 46400, Note_on_c, 0, 67, 67
2, 46458, Note_on_c, 0, 67, 0
2, 46464, Note_on_c, 0, 76, 96
2, 46503, Note_on_c, 1, 57, 0
2, 46503, Note_on_c, 1, 50, 0
2, 46522, Note_on_c, 0, 76, 0
2, 46528, Note_on_c, 0, 69, 71
2, 46586, Note_on_c, 0, 69, 0
2, 46592, Note_on_c, 0, 74, 87
2, 46650, Note_on_c, 0, 74, 0
2, 46656, Note_on_c, 0, 65, 62
2, 46656, Note_on_c, 1, 62, 72
2, 46656, Note_on_c, 1, 53, 72
2, 46714, Note_on_c, 0, 65, 0
2, 46720, Note_on_c, 0, 74, 95
2, 46772, Note_on_c, 1, 62, 0
2, 46772, Note_on_c, 1, 53, 0
2, 46778, Note_on_c, 0, 74, 0
2, 46784, Note_on_c, 0, 64, 66
2, 46784, Note_on_c, 1, 61, 78
2, 46784, Note_on_c, 1, 58, 92
2, 46842, Note_on_c, 0, 64, 0
2, 46848, Note_on_c, 0, 76, 100
2, 46900, Note_on_c, 1, 61, 0
2, 46900, Note_on_c, 1, 58, 0
2, 46906, Note_on_c, 0, 76, 0
2, 46912, Note_on_c, 0, 64, 62
2, 46912, Note_on_c, 1, 61, 80
2, 46912, Note_on_c, 1, 58, 82
2, 46970, Note_on_c, 0, 64, 0
2, 46976, Note_on_c, 0, 76, 100
2, 47028, Note_on_c, 1, 61, 0
2, 47028, Note_on_c, 1, 58, 0
2, 47034, Note_on_c, 0, 76, 0
2, 47040, Note_on_c, 0, 65, 66
2, 47040, Note_on_c, 1, 62, 86
2, 47040, Note_on_c, 1, 57, 79
2, 47098, Note_on_c, 0, 65, 0
2, 47104, Note_on_c, 0, 74, 93
2, 47156, Note_on_c, 1, 62, 0
2, 47156, Note_on_c, 1, 57, 0
2, 47162, Note_on_c, 0, 74, 0
2, 47168, Note_on_c, 0, 65, 65
2, 47168, Note_on_c, 1, 62, 82
2, 47168, Note_on_c, 1, 57, 78
2, 47226, Note_on_c, 0, 65, 0
2, 47232, Note_on_c, 0, 74, 95
2, 47284, Note_on_c, 1, 62, 0
2, 47284, Note_on_c, 1, 57, 0
2, 47290, Note_on_c, 0, 74, 0
2, 47296, Note_on_c, 0, 70, 75
2, 47296, Note_on_c, 1, 64, 87
2, 47296, Note_on_c, 1, 55, 79
2, 47354, Note_on_c, 0, 70, 0
2, 47360, Note_on_c, 0, 73, 86
2, 47418, Note_on_c, 0, 73, 0
2, 47424, Note_on_c, 0, 70, 73
2, 47482, Note_on_c, 0, 70, 0
2, 47488, Note_on_c, 0, 73, 88
2, 47527, Note_on_c, 1, 64, 0
2, 47527, Note_on_c, 1, 55, 0
2, 47546, Note_on_c, 0, 73, 0
2, 47552, Note_on_c, 0, 69, 76
2, 47610, Note_on_c, 0, 69, 0
2, 47616, Note_on_c, 0, 74, 89
2, 47674, Note_on_c, 0, 74, 0
2, 47680, Note_on_c, 0, 65, 62
2, 47680, Note_on_c, 1, 62, 70
2, 47680, Note_on_c, 1, 57, 72
2, 47738, Note_on_c, 0, 65, 0
2, 47744, Note_on_c, 0, 74, 95
2, 47796, Note_on_c, 1, 62, 0
2, 47796, Note_on_c, 1, 57, 0
2, 47802, Note_on_c, 0, 74, 0
2, 47808, Note_on_c, 0, 64, 64
2, 47808, Note_on_c, 1, 61, 79
2, 47808, Note_on_c, 1, 58, 85
2, 47866, Note_on_c, 0, 64, 0
2, 47872, Note_on_c, 0, 76, 98
2, 47924, Note_on_c, 1, 61, 0
2, 47924, Note_on_c, 1, 58, 0
2, 47930, Note_on_c, 0, 76, 0
2, 47936, Note_on_c, 0, 64, 62
2, 47936, Note_on_c, 1, 61, 80
2, 47936, Note_on_c, 1, 58, 80
2, 47994, Note_on_c, 0, 64, 0
2, 48000, Note_on_c, 0, 76, 100
2, 48052, Note_on_c, 1, 61, 0
2, 48052, Note_on_c, 1, 58, 0
2, 48058, Note_on_c, 0, 76, 0
2, 48064, Note_on_c, 0, 65, 66
2, 48064, Note_on_c, 1, 62, 87
2, 48064, Note_on_c, 1, 57, 79
2, 48122, Note_on_c, 0, 65, 0
2, 48128, Note_on_c, 0, 74, 92
2, 48180, Note_on_c, 1, 62, 0
2, 48180, Note_on_c, 1, 57, 0
2, 48186, Note_on_c, 0, 74, 0
2, 48192, Note_on_c, 0, 65, 64
2, 48192, Note_on_c, 1, 62, 79
2, 48192, Note_on_c, 1, 57, 80
2, 48250, Note_on_c, 0, 65, 0
2, 48256, Note_on_c, 0, 74, 95
2, 48308, Note_on_c, 1, 62, 0
2, 48308, Note_on_c, 1, 57, 0
2, 48314, Note_on_c, 0, 74, 0
2, 48320, Note_on_c, 1, 64, 89
2, 48320, Note_on_c, 1, 56, 81
2, 48384, Note_on_c, 0, 74, 70
2, 48442, Note_on_c, 0, 74, 0
2, 48448, Note_on_c, 0, 73, 73
2, 48506, Note_on_c, 0, 73, 0
2, 48512, Note_on_c, 0, 74, 82
2, 48551, Note_on_c, 1, 64, 0
2, 48551, Note_on_c, 1, 56, 0
2, 48570, Note_on_c, 0, 74, 0
2, 48576, Note_on_c, 0, 71, 75
2, 48634, Note_on_c, 0, 71, 0
2, 48640, Note_on_c, 0, 74, 85
2, 48698, Note_on_c, 0, 74, 0
2, 48704, Note_on_c, 0, 73, 77
2, 48762, Note_on_c, 0, 73, 0
2, 48768, Note_on_c, 0, 71, 73
2, 48826, Note_on_c, 0, 71, 0
2, 48832, Note_on_c, 0, 73, 83
2, 48896, Note_on_c, 0, 69, 72
2, 48954, Note_on_c, 0, 69, 0
2, 48960, Note_on_c, 0, 67, 74
2, 49018, Note_on_c, 0, 67, 0
2, 49024, Note_on_c, 0, 69, 84
2, 49063, Note_on_c, 0, 73, 0
2, 49082, Note_on_c, 0, 69, 0
2, 49088, Note_on_c, 0, 64, 71
2, 49146, Note_on_c, 0, 64, 0
2, 49152, Note_on_c, 0, 67, 83
2, 49210, Note_on_c, 0, 67, 0
2, 49216, Note_on_c, 0, 65, 75
2, 49274, Note_on_c, 0, 65, 0
2, 49280, Note_on_c, 0, 64, 74
2, 49338, Note_on_c, 0, 64, 0
2, 49344, Note_on_c, 0, 65, 85
2, 49408, Note_on_c, 0, 74, 72
2, 49466, Note_on_c, 0, 74, 0
2, 49472, Note_on_c, 0, 73, 73
2, 49530, Note_on_c, 0, 73, 0
2, 49536, Note_on_c, 0, 74, 82
2, 49575, Note_on_c, 0, 65, 0
2, 49594, Note_on_c, 0, 74, 0
2, 49600, Note_on_c, 0, 77, 87
2, 49600, Note_on_c, 0, 62, 71
2, 49658, Note_on_c, 0, 77, 0
2, 49664, Note_on_c, 0, 74, 74
2, 49722, Note_on_c, 0, 74, 0
2, 49728, Note_on_c, 0, 73, 74
2, 49786, Note_on_c, 0, 73, 0
2, 49792, Note_on_c, 0, 71, 75
2, 49831, Note_on_c, 0, 62, 0
2, 49850, Note_on_c, 0, 71, 0
2, 49856, Note_on_c, 0, 73, 83
2, 49856, Note_on_c, 0, 57, 70
2, 49914, Note_on_c, 0, 57, 0
2, 49920, Note_on_c, 0, 69, 98
2, 49978, Note_on_c, 0, 69, 0
2, 49984, Note_on_c, 0, 67, 78
2, 50042, Note_on_c, 0, 67, 0
2, 50048, Note_on_c, 0, 69, 86
2, 50087, Note_on_c, 0, 73, 0
2, 50106, Note_on_c, 0, 69, 0
2, 50112, Note_on_c, 0, 76, 88
2, 50112, Note_on_c, 0, 61, 66
2, 50170, Note_on_c, 0, 61, 0
2, 50176, Note_on_c, 0, 67, 89
2, 50234, Note_on_c, 0, 67, 0
2, 50240, Note_on_c, 0, 65, 75
2, 50298, Note_on_c, 0, 65, 0
2, 50304, Note_on_c, 0, 64, 77
2, 50362, Note_on_c, 0, 64, 0
2, 50368, Note_on_c, 0, 65, 87
2, 50432, Note_on_c, 1, 62, 70
2, 50484, Note_on_c, 0, 76, 0
2, 50490, Note_on_c, 1, 62, 0
2, 50496, Note_on_c, 0, 74, 74
2, 50496, Note_on_c, 1, 61, 74
2, 50554, Note_on_c, 1, 61, 0
2, 50560, Note_on_c, 1, 62, 82
2, 50599, Note_on_c, 0, 65, 0
2, 50618, Note_on_c, 1, 62, 0
2, 50624, Note_on_c, 0, 64, 75
2, 50624, Note_on_c, 1, 57, 73
2, 50682, Note_on_c, 1, 57, 0
2, 50688, Note_on_c, 1, 57, 78
2, 50740, Note_on_c, 0, 74, 0
2, 50746, Note_on_c, 1, 57, 0
2, 50752, Note_on_c, 0, 73, 77
2, 50752, Note_on_c, 1, 55, 74
2, 50810, Note_on_c, 1, 55, 0
2, 50816, Note_on_c, 1, 57, 85
2, 50855, Note_on_c, 0, 64, 0
2, 50868, Note_on_c, 0, 73, 0
2, 50874, Note_on_c, 1, 57, 0
2, 50880, Note_on_c, 0, 72, 73
2, 50880, Note_on_c, 0, 62, 77
2, 50880, Note_on_c, 1, 54, 75
2, 50938, Note_on_c, 1, 54, 0
2, 50944, Note_on_c, 1, 62, 96
2, 50996, Note_on_c, 0, 62, 0
2, 51002, Note_on_c, 1, 62, 0
2, 51008, Note_on_c, 0, 69, 92
2, 51008, Note_on_c, 1, 60, 78
2, 51066, Note_on_c, 1, 60, 0
2, 51072, Note_on_c, 1, 62, 87
2, 51111, Note_on_c, 0, 72, 0
2, 51130, Note_on_c, 1, 62, 0
2, 51136, Note_on_c, 0, 70, 74
2, 51136, Note_on_c, 1, 55, 69
2, 51194, Note_on_c, 1, 55, 0
2, 51200, Note_on_c, 1, 65, 95
2, 51252, Note_on_c, 0, 69, 0
2, 51258, Note_on_c, 1, 65, 0
2, 51264, Note_on_c, 0, 67, 76
2, 51264, Note_on_c, 1, 63, 79
2, 51322, Note_on_c, 1, 63, 0
2, 51328, Note_on_c, 1, 62, 76
2, 51367, Note_on_c, 0, 70, 0
2, 51386, Note_on_c, 1, 62, 0
2, 51392, Note_on_c, 0, 69, 77
2, 51392, Note_on_c, 1, 61, 79
2, 51450, Note_on_c, 1, 61, 0
2, 51456, Note_on_c, 1, 64, 86
2, 51514, Note_on_c, 1, 64, 0
2, 51520, Note_on_c, 1, 57, 67
2, 51578, Note_on_c, 1, 57, 0
2, 51584, Note_on_c, 1, 61, 84
2, 51623, Note_on_c, 0, 69, 0
2, 51623, Note_on_c, 0, 67, 0
2, 51642, Note_on_c, 1, 61, 0
2, 51648, Note_on_c, 0, 69, 78
2, 51648, Note_on_c, 0, 66, 78
2, 51648, Note_on_c, 1, 50, 63
2, 51706, Note_on_c, 1, 50, 0
2, 51712, Note_on_c, 1, 63, 99
2, 51770, Note_on_c, 1, 63, 0
2, 51776, Note_on_c, 1, 62, 77
2, 51834, Note_on_c, 1, 62, 0
2, 51840, Note_on_c, 1, 60, 77
2, 51879, Note_on_c, 0, 69, 0
2, 51879, Note_on_c, 0, 66, 0
2, 51898, Note_on_c, 1, 60, 0
2, 51904, Note_on_c, 0, 67, 76
2, 51904, Note_on_c, 0, 65, 77
2, 51904, Note_on_c, 1, 59, 79
2, 51962, Note_on_c, 1, 59, 0
2, 51968, Note_on_c, 1, 62, 88
2, 52026, Note_on_c, 1, 62, 0
2, 52032, Note_on_c, 1, 55, 65
2, 52090, Note_on_c, 1, 55, 0
2, 52096, Note_on_c, 1, 59, 86
2, 52135, Note_on_c, 0, 67, 0
2, 52135, Note_on_c, 0, 65, 0
2, 52154, Note_on_c, 1, 59, 0
2, 52160, Note_on_c, 0, 67, 81
2, 52160, Note_on_c, 0, 63, 74
2, 52160, Note_on_c, 1, 48, 65
2, 52218, Note_on_c, 1, 48, 0
2, 52224, Note_on_c, 1, 62, 96
2, 52282, Note_on_c, 1, 62, 0
2, 52288, Note_on_c, 1, 60, 80
2, 52346, Note_on_c, 1, 60, 0
2, 52352, Note_on_c, 1, 58, 76
2, 52391, Note_on_c, 0, 67, 0
2, 52391, Note_on_c, 0, 63, 0
2, 52410, Note_on_c, 1, 58, 0
2, 52416, Note_on_c, 0, 66, 78
2, 52416, Note_on_c, 0, 63, 84
2, 52416, Note_on_c, 1, 57, 76
2, 52474, Note_on_c, 1, 57, 0
2, 52480, Note_on_c, 1, 60, 85
2, 52532, Note_on_c, 0, 66, 0
2, 52532, Note_on_c, 0, 63, 0
2, 52538, Note_on_c, 1, 60, 0
2, 52544, Note_on_c, 0, 69, 85
2, 52544, Note_on_c, 0, 62, 77
2, 52544, Note_on_c, 1, 54, 67
2, 52602, Note_on_c, 1, 54, 0
2, 52608, Note_on_c, 1, 57, 85
2, 52660, Note_on_c, 0, 62, 0
2, 52666, Note_on_c, 1, 57, 0
2, 52672, Note_on_c, 0, 66, 89
2, 52672, Note_on_c, 1, 50, 68
2, 52730, Note_on_c, 1, 50, 0
2, 52736, Note_on_c, 1, 60, 96
2, 52775, Note_on_c, 0, 69, 0
2, 52788, Note_on_c, 0, 66, 0
2, 52794, Note_on_c, 1, 60, 0
2, 52800, Note_on_c, 0, 75, 94
2, 52800, Note_on_c, 0, 72, 92
2, 52800, Note_on_c, 1, 58, 77
2, 52858, Note_on_c, 1, 58, 0
2, 52864, Note_on_c, 1, 57, 77
2, 52916, Note_on_c, 0, 75, 0
2, 52916, Note_on_c, 0, 72, 0
2, 52922, Note_on_c, 1, 57, 0
2, 52928, Note_on_c, 0, 74, 79
2, 52928, Note_on_c, 0, 72, 87
2, 52928, Note_on_c, 1, 58, 85
2, 52986, Note_on_c, 1, 58, 0
2, 52992, Note_on_c, 1, 69, 99
2, 53044, Note_on_c, 0, 72, 0
2, 53050, Note_on_c, 1, 69, 0
2, 53056, Note_on_c, 0, 70, 75
2, 53056, Note_on_c, 1, 67, 79
2, 53114, Note_on_c, 0, 70, 0
2, 53114, Note_on_c, 1, 67, 0
2, 53120, Note_on_c, 0, 69, 76
2, 53120, Note_on_c, 1, 66, 76
2, 53159, Note_on_c, 0, 74, 0
2, 53178, Note_on_c, 0, 69, 0
2, 53178, Note_on_c, 1, 66, 0
2, 53184, Note_on_c, 0, 70, 85
2, 53184, Note_on_c, 1, 67, 87
2, 53242, Note_on_c, 1, 67, 0
2, 53248, Note_on_c, 1, 58, 62
2, 53300, Note_on_c, 0, 70, 0
2, 53306, Note_on_c, 1, 58, 0
2, 53312, Note_on_c, 0, 79, 71
2, 53312, Note_on_c, 0, 70, 78
2, 53312, Note_on_c, 1, 57, 72
2, 53370, Note_on_c, 1, 57, 0
2, 53376, Note_on_c, 1, 55, 72
2, 53428, Note_on_c, 0, 70, 0
2, 53434, Note_on_c, 1, 55, 0
2, 53440, Note_on_c, 0, 69, 78
2, 53440, Note_on_c, 1, 62, 96
2, 53504, Note_on_c, 1, 38, 71
2, 53556, Note_on_c, 0, 79, 0
2, 53562, Note_on_c, 1, 38, 0
2, 53568, Note_on_c, 0, 78, 75
2, 53568, Note_on_c, 1, 36, 98
2, 53568, Note_on_c, 1, 48, 95
2, 53626, Note_on_c, 1, 36, 0
2, 53626, Note_on_c, 1, 48, 0
2, 53632, Note_on_c, 1, 38, 64
2, 53671, Note_on_c, 0, 69, 0
2, 53671, Note_on_c, 1, 62, 0
2, 53684, Note_on_c, 0, 78, 0
2, 53690, Note_on_c, 1, 38, 0
2, 53696, Note_on_c, 0, 79, 81
2, 53696, Note_on_c, 0, 74, 93
2, 53696, Note_on_c, 1, 34, 96
2, 53696, Note_on_c, 1, 46, 95
2, 53754, Note_on_c, 1, 34, 0
2, 53754, Note_on_c, 1, 46, 0
2, 53760, Note_on_c, 1, 38, 66
2, 53812, Note_on_c, 0, 74, 0
2, 53818, Note_on_c, 1, 38, 0
2, 53824, Note_on_c, 0, 62, 76
2, 53824, Note_on_c, 0, 72, 78
2, 53824, Note_on_c, 1, 33, 91
2, 53824, Note_on_c, 1, 45, 91
2, 53882, Note_on_c, 1, 33, 0
2, 53882, Note_on_c, 1, 45, 0
2, 53888, Note_on_c, 1, 38, 68
2, 53927, Note_on_c, 0, 79, 0
2, 53940, Note_on_c, 0, 62, 0
2, 53940, Note_on_c, 0, 72, 0
2, 53946, Note_on_c, 1, 38, 0
2, 53952, Note_on_c, 0, 62, 80
2, 53952, Note_on_c, 0, 70, 80
2, 53952, Note_on_c, 1, 31, 91
2, 53952, Note_on_c, 1, 43, 90
2, 54010, Note_on_c, 1, 31, 0
2, 54010, Note_on_c, 1, 43, 0
2, 54016, Note_on_c, 1, 38, 71
2, 54068, Note_on_c, 0, 62, 0
2, 54068, Note_on_c, 0, 70, 0
2, 54074, Note_on_c, 1, 38, 0
2, 54080, Note_on_c, 0, 62, 87
2, 54080, Note_on_c, 0, 69, 89
2, 54080, Note_on_c, 0, 74, 89
2, 54080, Note_on_c, 1, 30, 89
2, 54080, Note_on_c, 1, 42, 87
2, 54138, Note_on_c, 1, 30, 0
2, 54138, Note_on_c, 1, 42, 0
2, 54144, Note_on_c, 1, 38, 72
2, 54196, Note_on_c, 0, 62, 0
2, 54196, Note_on_c, 0, 69, 0
2, 54196, Note_on_c, 0, 74, 0
2, 54202, Note_on_c, 1, 38, 0
2, 54208, Note_on_c, 0, 62, 86
2, 54208, Note_on_c, 0, 70, 84
2, 54208, Note_on_c, 0, 74, 82
2, 54208, Note_on_c, 1, 31, 94
2, 54208, Note_on_c, 1, 43, 93
2, 54266, Note_on_c, 1, 31, 0
2, 54266, Note_on_c, 1, 43, 0
2, 54272, Note_on_c, 1, 38, 68
2, 54324, Note_on_c, 0, 62, 0
2, 54324, Note_on_c, 0, 70, 0
2, 54324, Note_on_c, 0, 74, 0
2, 54330, Note_on_c, 1, 38, 0
2, 54336, Note_on_c, 0, 60, 80
2, 54336, Note_on_c, 0, 66, 80
2, 54336, Note_on_c, 0, 74, 81
2, 54336, Note_on_c, 1, 33, 91
2, 54336, Note_on_c, 1, 45, 93
2, 54394, Note_on_c, 1, 33, 0
2, 54394, Note_on_c, 1, 45, 0
2, 54400, Note_on_c, 1, 38, 65
2, 54452, Note_on_c, 0, 60, 0
2, 54452, Note_on_c, 0, 66, 0
2, 54452, Note_on_c, 0, 74, 0
2, 54458, Note_on_c, 1, 38, 0
2, 54464, Note_on_c, 0, 58, 83
2, 54464, Note_on_c, 0, 67, 82
2, 54464, Note_on_c, 0, 74, 85
2, 54464, Note_on_c, 1, 34, 97
2, 54464, Note_on_c, 1, 46, 98
2, 54522, Note_on_c, 1, 34, 0
2, 54522, Note_on_c, 1, 46, 0
2, 54528, Note_on_c, 1, 38, 68
2, 54580, Note_on_c, 0, 58, 0
2, 54580, Note_on_c, 0, 67, 0
2, 54580, Note_on_c, 0, 74, 0
2, 54586, Note_on_c, 1, 38, 0
2, 54592, Note_on_c, 0, 62, 79
2, 54592, Note_on_c, 0, 66, 81
2, 54592, Note_on_c, 0, 74, 78
2, 54592, Note_on_c, 1, 26, 79
2, 54592, Note_on_c, 1, 38, 78
2, 54650, Note_on_c, 1, 26, 0
2, 54650, Note_on_c, 1, 38, 0
2, 54656, Note_on_c, 1, 38, 79
2, 54708, Note_on_c, 0, 62, 0
2, 54708, Note_on_c, 0, 66, 0
2, 54708, Note_on_c, 0, 74, 0
2, 54714, Note_on_c, 1, 38, 0
2, 54720, Note_on_c, 0, 62, 82
2, 54720, Note_on_c, 0, 67, 84
2, 54720, Note_on_c, 0, 74, 85
2, 54720, Note_on_c, 1, 28, 89
2, 54720, Note_on_c, 1, 40, 86
2, 54778, Note_on_c, 1, 28, 0
2, 54778, Note_on_c, 1, 40, 0
2, 54784, Note_on_c, 1, 38, 74
2, 54836, Note_on_c, 0, 62, 0
2, 54836, Note_on_c, 0, 67, 0
2, 54836, Note_on_c, 0, 74, 0
2, 54842, Note_on_c, 1, 38, 0
2, 54848, Note_on_c, 0, 60, 79
2, 54848, Note_on_c, 0, 69, 79
2, 54848, Note_on_c, 0, 74, 79
2, 54848, Note_on_c, 1, 30, 89
2, 54848, Note_on_c, 1, 42, 87
2, 54906, Note_on_c, 1, 30, 0
2, 54906, Note_on_c, 1, 42, 0
2, 54912, Note_on_c, 1, 38, 73
2, 54964, Note_on_c, 0, 60, 0
2, 54964, Note_on_c, 0, 69, 0
2, 54964, Note_on_c, 0, 74, 0
2, 54970, Note_on_c, 1, 38, 0
2, 54976, Note_on_c, 0, 58, 81
2, 54976, Note_on_c, 0, 70, 85
2, 54976, Note_on_c, 0, 74, 84
2, 54976, Note_on_c, 1, 31, 90
2, 54976, Note_on_c, 1, 43, 92
2, 55034, Note_on_c, 1, 31, 0
2, 55034, Note_on_c, 1, 43, 0
2, 55040, Note_on_c, 1, 38, 72
2, 55092, Note_on_c, 0, 58, 0
2, 55092, Note_on_c, 0, 70, 0
2, 55092, Note_on_c, 0, 74, 0
2, 55098, Note_on_c, 1, 38, 0
2, 55104, Note_on_c, 0, 62, 79
2, 55104, Note_on_c, 0, 69, 79
2, 55104, Note_on_c, 0, 74, 79
2, 55104, Note_on_c, 1, 30, 87
2, 55104, Note_on_c, 1, 42, 88
2, 55162, Note_on_c, 1, 30, 0
2, 55162, Note_on_c, 1, 42, 0
2, 55168, Note_on_c, 1, 38, 72
2, 55220, Note_on_c, 0, 62, 0
2, 55220, Note_on_c, 0, 69, 0
2, 55220, Note_on_c, 0, 74, 0
2, 55226, Note_on_c, 1, 38, 0
2, 55232, Note_on_c, 0, 62, 82
2, 55232, Note_on_c, 0, 70, 83
2, 55232, Note_on_c, 0, 74, 84
2, 55232, Note_on_c, 1, 31, 92
2, 55232, Note_on_c, 1, 43, 91
2, 55290, Note_on_c, 1, 31, 0
2, 55290, Note_on_c, 1, 43, 0
2, 55296, Note_on_c, 1, 38, 68
2, 55348, Note_on_c, 0, 62, 0
2, 55348, Note_on_c, 0, 70, 0
2, 55348, Note_on_c, 0, 74, 0
2, 55354, Note_on_c, 1, 38, 0
2, 55360, Note_on_c, 0, 60, 81
2, 55360, Note_on_c, 0, 66, 82
2, 55360, Note_on_c, 0, 74, 79
2, 55360, Note_on_c, 1, 33, 92
2, 55360, Note_on_c, 1, 45, 92
2, 55418, Note_on_c, 1, 33, 0
2, 55418, Note_on_c, 1, 45, 0
2, 55424, Note_on_c, 1, 38, 67
2, 55476, Note_on_c, 0, 60, 0
2, 55476, Note_on_c, 0, 66, 0
2, 55476, Note_on_c, 0, 74, 0
2, 55482, Note_on_c, 1, 38, 0
2, 55488, Note_on_c, 0, 67, 76
2, 55488, Note_on_c, 0, 74, 75
2, 55488, Note_on_c, 0, 62, 62
2, 55488, Note_on_c, 1, 34, 76
2, 55488, Note_on_c, 1, 46, 72
2, 55546, Note_on_c, 0, 67, 0
2, 55546, Note_on_c, 0, 74, 0
2, 55552, Note_on_c, 0, 70, 72
2, 55552, Note_on_c, 0, 79, 69
2, 55610, Note_on_c, 0, 70, 0
2, 55610, Note_on_c, 0, 79, 0
2, 55616, Note_on_c, 0, 69, 59
2, 55616, Note_on_c, 0, 77, 60
2, 55674, Note_on_c, 0, 69, 0
2, 55674, Note_on_c, 0, 77, 0
2, 55680, Note_on_c, 0, 70, 66
2, 55680, Note_on_c, 0, 79, 64
2, 55719, Note_on_c, 0, 62, 0
2, 55719, Note_on_c, 1, 34, 0
2, 55719, Note_on_c, 1, 46, 0
2, 55738, Note_on_c, 0, 70, 0
2, 55738, Note_on_c, 0, 79, 0
2, 55744, Note_on_c, 0, 67, 60
2, 55744, Note_on_c, 0, 76, 62
2, 55802, Note_on_c, 0, 67, 0
2, 55802, Note_on_c, 0, 76, 0
2, 55808, Note_on_c, 0, 69, 65
2, 55808, Note_on_c, 0, 77, 65
2, 55866, Note_on_c, 0, 69, 0
2, 55866, Note_on_c, 0, 77, 0
2, 55872, Note_on_c, 0, 65, 58
2, 55872, Note_on_c, 0, 74, 58
2, 55872, Note_on_c, 1, 35, 72
2, 55872, Note_on_c, 1, 47, 70
2, 55930, Note_on_c, 0, 65, 0
2, 55930, Note_on_c, 0, 74, 0
2, 55936, Note_on_c, 0, 67, 67
2, 55936, Note_on_c, 0, 76, 63
2, 55988, Note_on_c, 1, 35, 0
2, 55988, Note_on_c, 1, 47, 0
2, 55994, Note_on_c, 0, 67, 0
2, 55994, Note_on_c, 0, 76, 0
2, 56000, Note_on_c, 0, 64, 59
2, 56000, Note_on_c, 0, 72, 58
2, 56000, Note_on_c, 1, 36, 86
2, 56000, Note_on_c, 1, 48, 85
2, 56058, Note_on_c, 0, 64, 0
2, 56058, Note_on_c, 0, 72, 0
2, 56064, Note_on_c, 0, 72, 76
2, 56064, Note_on_c, 0, 81, 76
2, 56116, Note_on_c, 1, 36, 0
2, 56116, Note_on_c, 1, 48, 0
2, 56122, Note_on_c, 0, 72, 0
2, 56122, Note_on_c, 0, 81, 0
2, 56128, Note_on_c, 0, 70, 62
2, 56128, Note_on_c, 0, 79, 63
2, 56186, Note_on_c, 0, 70, 0
2, 56186, Note_on_c, 0, 79, 0
2, 56192, Note_on_c, 0, 72, 70
2, 56192, Note_on_c, 0, 81, 72
2, 56250, Note_on_c, 0, 72, 0
2, 56250, Note_on_c, 0, 81, 0
2, 56256, Note_on_c, 0, 69, 63
2, 56256, Note_on_c, 0, 77, 64
2, 56314, Note_on_c, 0, 69, 0
2, 56314, Note_on_c, 0, 77, 0
2, 56320, Note_on_c, 0, 70, 72
2, 56320, Note_on_c, 0, 79, 72
2, 56378, Note_on_c, 0, 70, 0
2, 56378, Note_on_c, 0, 79, 0
2, 56384, Note_on_c, 0, 67, 68
2, 56384, Note_on_c, 0, 76, 68
2, 56384, Note_on_c, 1, 37, 74
2, 56384, Note_on_c, 1, 49, 75
2, 56442, Note_on_c, 0, 67, 0
2, 56442, Note_on_c, 0, 76, 0
2, 56448, Note_on_c, 0, 69, 74
2, 56448, Note_on_c, 0, 77, 74
2, 56500, Note_on_c, 1, 37, 0
2, 56500, Note_on_c, 1, 49, 0
2, 56506, Note_on_c, 0, 69, 0
2, 56506, Note_on_c, 0, 77, 0
2, 56512, Note_on_c, 0, 65, 71
2, 56512, Note_on_c, 0, 74, 72
2, 56512, Note_on_c, 1, 38, 92
2, 56512, Note_on_c, 1, 50, 88
2, 56570, Note_on_c, 0, 65, 0
2, 56570, Note_on_c, 0, 74, 0
2, 56576, Note_on_c, 0, 74, 88
2, 56576, Note_on_c, 0, 82, 87
2, 56628, Note_on_c, 1, 38, 0
2, 56628, Note_on_c, 1, 50, 0
2, 56634, Note_on_c, 0, 74, 0
2, 56634, Note_on_c, 0, 82, 0
2, 56640, Note_on_c, 0, 72, 74
2, 56640, Note_on_c, 0, 81, 75
2, 56698, Note_on_c, 0, 72, 0
2, 56698, Note_on_c, 0, 81, 0
2, 56704, Note_on_c, 0, 74, 83
2, 56704, Note_on_c, 0, 82, 81
2, 56762, Note_on_c, 0, 74, 0
2, 56762, Note_on_c, 0, 82, 0
2, 56768, Note_on_c, 0, 70, 76
2, 56768, Note_on_c, 0, 79, 75
2, 56826, Note_on_c, 0, 70, 0
2, 56826, Note_on_c, 0, 79, 0
2, 56832, Note_on_c, 0, 72, 87
2, 56832, Note_on_c, 0, 81, 85
2, 56890, Note_on_c, 0, 72, 0
2, 56890, Note_on_c, 0, 81, 0
2, 56896, Note_on_c, 0, 69, 74
2, 56896, Note_on_c, 0, 77, 73
2, 56896, Note_on_c, 1, 38, 81
2, 56896, Note_on_c, 1, 50, 79
2, 56954, Note_on_c, 0, 69, 0
2, 56954, Note_on_c, 0, 77, 0
2, 56960, Note_on_c, 0, 70, 87
2, 56960, Note_on_c, 0, 79, 88
2, 57012, Note_on_c, 1, 38, 0
2, 57012, Note_on_c, 1, 50, 0
2, 57018, Note_on_c, 0, 70, 0
2, 57018, Note_on_c, 0, 79, 0
2, 57024, Note_on_c, 0, 67, 82
2, 57024, Note_on_c, 0, 76, 84
2, 57024, Note_on_c, 1, 40, 99
2, 57024, Note_on_c, 1, 52, 99
2, 57082, Note_on_c, 0, 67, 0
2, 57082, Note_on_c, 0, 76, 0
2, 57088, Note_on_c, 0, 76, 104
2, 57088, Note_on_c, 0, 84, 103
2, 57140, Note_on_c, 1, 40, 0
2, 57140, Note_on_c, 1, 52, 0
2, 57146, Note_on_c, 0, 76, 0
2, 57146, Note_on_c, 0, 84, 0
2, 57152, Note_on_c, 0, 74, 85
2, 57152, Note_on_c, 0, 82, 88
2, 57210, Note_on_c, 0, 74, 0
2, 57210, Note_on_c, 0, 82, 0
2, 57216, Note_on_c, 0, 76, 95
2, 57216, Note_on_c, 0, 84, 94
2, 57274, Note_on_c, 0, 76, 0
2, 57274, Note_on_c, 0, 84, 0
2, 57280, Note_on_c, 0, 72, 89
2, 57280, Note_on_c, 0, 81, 86
2, 57338, Note_on_c, 0, 72, 0
2, 57338, Note_on_c, 0, 81, 0
2, 57344, Note_on_c, 0, 74, 95
2, 57344, Note_on_c, 0, 82, 97
2, 57402, Note_on_c, 0, 74, 0
2, 57402, Note_on_c, 0, 82, 0
2, 57408, Note_on_c, 0, 70, 88
2, 57408, Note_on_c, 0, 79, 84
2, 57408, Note_on_c, 1, 40, 85
2, 57408, Note_on_c, 1, 52, 85
2, 57466, Note_on_c, 0, 70, 0
2, 57466, Note_on_c, 0, 79, 0
2, 57472, Note_on_c, 0, 72, 100
2, 57472, Note_on_c, 0, 81, 101
2, 57524, Note_on_c, 1, 40, 0
2, 57524, Note_on_c, 1, 52, 0
2, 57530, Note_on_c, 0, 72, 0
2, 57530, Note_on_c, 0, 81, 0
2, 57536, Note_on_c, 0, 77, 89
2, 57536, Note_on_c, 0, 69, 70
2, 57536, Note_on_c, 1, 41, 103
2, 57536, Note_on_c, 1, 53, 105
2, 57594, Note_on_c, 0, 77, 0
2, 57599, Note_on_c, 1, 41, 0
2, 57599, Note_on_c, 1, 53, 0
2, 57600, Note_on_c, 0, 75, 87
2, 57652, Note_on_c, 0, 69, 0
2, 57658, Note_on_c, 0, 75, 0
2, 57664, Note_on_c, 0, 74, 89
2, 57664, Note_on_c, 0, 65, 66
2, 57664, Note_on_c, 1, 33, 76
2, 57664, Note_on_c, 1, 45, 76
2, 57722, Note_on_c, 0, 74, 0
2, 57727, Note_on_c, 1, 33, 0
2, 57727, Note_on_c, 1, 45, 0
2, 57728, Note_on_c, 0, 72, 90
2, 57780, Note_on_c, 0, 65, 0
2, 57786, Note_on_c, 0, 72, 0
2, 57792, Note_on_c, 0, 74, 103
2, 57792, Note_on_c, 0, 70, 86
2, 57792, Note_on_c, 1, 34, 99
2, 57792, Note_on_c, 1, 46, 101
2, 57850, Note_on_c, 0, 74, 0
2, 57850, Note_on_c, 0, 70, 0
2, 57855, Note_on_c, 1, 34, 0
2, 57855, Note_on_c, 1, 46, 0
2, 57856, Note_on_c, 0, 72, 85
2, 57856, Note_on_c, 0, 69, 70
2, 57914, Note_on_c, 0, 72, 0
2, 57914, Note_on_c, 0, 69, 0
2, 57920, Note_on_c, 0, 70, 81
2, 57920, Note_on_c, 0, 67, 64
2, 57920, Note_on_c, 1, 38, 99
2, 57920, Note_on_c, 1, 50, 96
2, 57978, Note_on_c, 0, 70, 0
2, 57978, Note_on_c, 0, 67, 0
2, 57983, Note_on_c, 1, 38, 0
2, 57983, Note_on_c, 1, 50, 0
2, 57984, Note_on_c, 0, 69, 78
2, 57984, Note_on_c, 0, 65, 60
2, 58042, Note_on_c, 0, 69, 0
2, 58042, Note_on_c, 0, 65, 0
2, 58048, Note_on_c, 0, 70, 88
2, 58048, Note_on_c, 0, 67, 64
2, 58048, Note_on_c, 1, 31, 68
2, 58048, Note_on_c, 1, 43, 66
2, 58106, Note_on_c, 0, 70, 0
2, 58112, Note_on_c, 0, 74, 85
2, 58164, Note_on_c, 0, 67, 0
2, 58170, Note_on_c, 0, 74, 0
2, 58174, Note_on_c, 1, 31, 0
2, 58174, Note_on_c, 1, 43, 0
2, 58176, Note_on_c, 0, 70, 65
2, 58176, Note_on_c, 0, 67, 49
2, 58234, Note_on_c, 0, 70, 0
2, 58234, Note_on_c, 0, 67, 0
2, 58240, Note_on_c, 0, 69, 64
2, 58240, Note_on_c, 0, 65, 46
2, 58298, Note_on_c, 0, 69, 0
2, 58298, Note_on_c, 0, 65, 0
2, 58304, Note_on_c, 0, 67, 65
2, 58304, Note_on_c, 0, 64, 44
2, 58362, Note_on_c, 0, 67, 0
2, 58368, Note_on_c, 0, 70, 63
2, 58420, Note_on_c, 0, 64, 0
2, 58426, Note_on_c, 0, 70, 0
2, 58432, Note_on_c, 0, 67, 51
2, 58432, Note_on_c, 0, 64, 33
2, 58432, Note_on_c, 1, 34, 94
2, 58432, Note_on_c, 1, 46, 93
2, 58490, Note_on_c, 0, 67, 0
2, 58490, Note_on_c, 0, 64, 0
2, 58496, Note_on_c, 0, 65, 51
2, 58496, Note_on_c, 0, 62, 28
2, 58554, Note_on_c, 0, 65, 0
2, 58554, Note_on_c, 0, 62, 0
2, 58560, Note_on_c, 0, 64, 48
2, 58560, Note_on_c, 0, 60, 28
2, 58618, Note_on_c, 0, 64, 0
2, 58618, Note_on_c, 0, 60, 0
2, 58624, Note_on_c, 0, 65, 50
2, 58624, Note_on_c, 0, 62, 28
2, 58676, Note_on_c, 1, 34, 0
2, 58676, Note_on_c, 1, 46, 0
2, 58682, Note_on_c, 0, 65, 0
2, 58682, Note_on_c, 0, 62, 0
2, 58688, Note_on_c, 0, 67, 54
2, 58688, Note_on_c, 0, 64, 27
2, 58688, Note_on_c, 1, 33, 65
2, 58688, Note_on_c, 1, 45, 68
2, 58746, Note_on_c, 0, 67, 0
2, 58746, Note_on_c, 0, 64, 0
2, 58752, Note_on_c, 0, 69, 54
2, 58752, Note_on_c, 0, 65, 29
2, 58804, Note_on_c, 1, 33, 0
2, 58804, Note_on_c, 1, 45, 0
2, 58810, Note_on_c, 0, 69, 0
2, 58810, Note_on_c, 0, 65, 0
2, 58816, Note_on_c, 0, 70, 52
2, 58816, Note_on_c, 0, 67, 33
2, 58816, Note_on_c, 1, 31, 69
2, 58816, Note_on_c, 1, 43, 69
2, 58874, Note_on_c, 0, 70, 0
2, 58880, Note_on_c, 0, 74, 54
2, 58932, Note_on_c, 0, 67, 0
2, 58932, Note_on_c, 1, 31, 0
2, 58932, Note_on_c, 1, 43, 0
2, 58938, Note_on_c, 0, 74, 0
2, 58944, Note_on_c, 0, 72, 46
2, 58944, Note_on_c, 0, 64, 25
2, 58944, Note_on_c, 1, 36, 80
2, 58944, Note_on_c, 1, 48, 77
2, 59002, Note_on_c, 0, 72, 0
2, 59008, Note_on_c, 0, 70, 44
2, 59060, Note_on_c, 0, 64, 0
2, 59060, Note_on_c, 1, 36, 0
2, 59060, Note_on_c, 1, 48, 0
2, 59066, Note_on_c, 0, 70, 0
2, 59072, Note_on_c, 0, 65, 28
2, 59072, Note_on_c, 0, 69, 56
2, 59072, Note_on_c, 1, 29, 60
2, 59072, Note_on_c, 1, 41, 57
2, 59098, Tempo, 3750000
2, 59130, Tempo, 2400000
2, 59136, Note_on_c, 0, 72, 31
2, 59136, Note_on_c, 1, 60, 32
2, 59194, Note_on_c, 0, 72, 0
2, 59194, Note_on_c, 1, 60, 0
2, 59200, Note_on_c, 0, 70, 32
2, 59200, Note_on_c, 1, 58, 34
2, 59258, Note_on_c, 0, 70, 0
2, 59258, Note_on_c, 1, 58, 0
2, 59264, Note_on_c, 0, 72, 38
2, 59264, Note_on_c, 1, 60, 37
2, 59303, Note_on_c, 0, 65, 0
2, 59303, Note_on_c, 0, 69, 0
2, 59303, Note_on_c, 1, 29, 0
2, 59303, Note_on_c, 1, 41, 0
2, 59322, Note_on_c, 0, 72, 0
2, 59322, Note_on_c, 1, 60, 0
2, 59328, Note_on_c, 0, 84, 48
2, 59328, Note_on_c, 1, 57, 46
2, 59328, Note_on_c, 1, 69, 44
2, 59386, Note_on_c, 0, 84, 0
2, 59386, Note_on_c, 1, 57, 0
2, 59386, Note_on_c, 1, 69, 0
2, 59392, Note_on_c, 0, 72, 26
2, 59392, Note_on_c, 1, 60, 27
2, 59450, Note_on_c, 0, 72, 0
2, 59450, Note_on_c, 1, 60, 0
2, 59456, Note_on_c, 0, 82, 42
2, 59456, Note_on_c, 1, 55, 41
2, 59456, Note_on_c, 1, 67, 39
2, 59514, Note_on_c, 0, 82, 0
2, 59514, Note_on_c, 1, 55, 0
2, 59514, Note_on_c, 1, 67, 0
2, 59520, Note_on_c, 0, 72, 28
2, 59520, Note_on_c, 1, 60, 28
2, 59578, Note_on_c, 0, 72, 0
2, 59578, Note_on_c, 1, 60, 0
2, 59584, Note_on_c, 0, 81, 43
2, 59584, Note_on_c, 1, 53, 41
2, 59584, Note_on_c, 1, 65, 42
2, 59642, Note_on_c, 0, 81, 0
2, 59642, Note_on_c, 1, 53, 0
2, 59642, Note_on_c, 1, 65, 0
2, 59648, Note_on_c, 0, 72, 28
2, 59648, Note_on_c, 1, 60, 29
2, 59706, Note_on_c, 0, 72, 0
2, 59706, Note_on_c, 1, 60, 0
2, 59712, Note_on_c, 0, 79, 40
2, 59712, Note_on_c, 1, 52, 37
2, 59712, Note_on_c, 1, 64, 38
2, 59770, Note_on_c, 0, 79, 0
2, 59770, Note_on_c, 1, 52, 0
2, 59770, Note_on_c, 1, 64, 0
2, 59776, Note_on_c, 0, 72, 28
2, 59776, Note_on_c, 1, 60, 30
2, 59834, Note_on_c, 0, 72, 0
2, 59834, Note_on_c, 1, 60, 0
2, 59840, Note_on_c, 0, 81, 44
2, 59840, Note_on_c, 1, 53, 43
2, 59840, Note_on_c, 1, 65, 42
2, 59898, Note_on_c, 0, 81, 0
2, 59898, Note_on_c, 1, 53, 0
2, 59898, Note_on_c, 1, 65, 0
2, 59904, Note_on_c, 0, 72, 27
2, 59904, Note_on_c, 1, 60, 28
2, 59962, Note_on_c, 0, 72, 0
2, 59962, Note_on_c, 1, 60, 0
2, 59968, Note_on_c, 0, 82, 43
2, 59968, Note_on_c, 1, 55, 40
2, 59968, Note_on_c, 1, 67, 39
2, 60026, Note_on_c, 0, 82, 0
2, 60026, Note_on_c, 1, 55, 0
2, 60026, Note_on_c, 1, 67, 0
2, 60032, Note_on_c, 0, 72, 28
2, 60032, Note_on_c, 1, 60, 27
2, 60090, Note_on_c, 0, 72, 0
2, 60090, Note_on_c, 1, 60, 0
2, 60096, Note_on_c, 0, 84, 47
2, 60096, Note_on_c, 1, 57, 46
2, 60096, Note_on_c, 1, 69, 44
2, 60154, Note_on_c, 0, 84, 0
2, 60154, Note_on_c, 1, 57, 0
2, 60154, Note_on_c, 1, 69, 0
2, 60160, Note_on_c, 0, 72, 27
2, 60160, Note_on_c, 1, 60, 27
2, 60218, Note_on_c, 0, 72, 0
2, 60218, Note_on_c, 1, 60, 0
2, 60224, Note_on_c, 0, 76, 38
2, 60224, Note_on_c, 1, 48, 33
2, 60224, Note_on_c, 1, 60, 31
2, 60282, Note_on_c, 0, 76, 0
2, 60282, Note_on_c, 1, 48, 0
2, 60282, Note_on_c, 1, 60, 0
2, 60288, Note_on_c, 0, 72, 32
2, 60288, Note_on_c, 1, 60, 37
2, 60346, Note_on_c, 0, 72, 0
2, 60346, Note_on_c, 1, 60, 0
2, 60352, Note_on_c, 0, 77, 40
2, 60352, Note_on_c, 1, 50, 39
2, 60352, Note_on_c, 1, 62, 38
2, 60410, Note_on_c, 0, 77, 0
2, 60410, Note_on_c, 1, 50, 0
2, 60410, Note_on_c, 1, 62, 0
2, 60416, Note_on_c, 0, 72, 28
2, 60416, Note_on_c, 1, 60, 32
2, 60474, Note_on_c, 0, 72, 0
2, 60474, Note_on_c, 1, 60, 0
2, 60480, Note_on_c, 0, 79, 39
2, 60480, Note_on_c, 1, 52, 38
2, 60480, Note_on_c, 1, 64, 39
2, 60538, Note_on_c, 0, 79, 0
2, 60538, Note_on_c, 1, 52, 0
2, 60538, Note_on_c, 1, 64, 0
2, 60544, Note_on_c, 0, 72, 28
2, 60544, Note_on_c, 1, 60, 30
2, 60602, Note_on_c, 0, 72, 0
2, 60602, Note_on_c, 1, 60, 0
2, 60608, Note_on_c, 0, 81, 42
2, 60608, Note_on_c, 1, 53, 43
2, 60608, Note_on_c, 1, 65, 43
2, 60666, Note_on_c, 0, 81, 0
2, 60666, Note_on_c, 1, 53, 0
2, 60666, Note_on_c, 1, 65, 0
2, 60672, Note_on_c, 0, 72, 27
2, 60672, Note_on_c, 1, 60, 29
2, 60730, Note_on_c, 0, 72, 0
2, 60730, Note_on_c, 1, 60, 0
2, 60736, Note_on_c, 0, 79, 39
2, 60736, Note_on_c, 1, 52, 36
2, 60736, Note_on_c, 1, 64, 37
2, 60794, Note_on_c, 0, 79, 0
2, 60794, Note_on_c, 1, 52, 0
2, 60794, Note_on_c, 1, 64, 0
2, 60800, Note_on_c, 0, 72, 30
2, 60800, Note_on_c, 1, 60, 30
2, 60858, Note_on_c, 0, 72, 0
2, 60858, Note_on_c, 1, 60, 0
2, 60864, Note_on_c, 0, 81, 46
2, 60864, Note_on_c, 1, 53, 42
2, 60864, Note_on_c, 1, 65, 41
2, 60922, Note_on_c, 0, 81, 0
2, 60922, Note_on_c, 1, 53, 0
2, 60922, Note_on_c, 1, 65, 0
2, 60928, Note_on_c, 0, 72, 27
2, 60928, Note_on_c, 1, 60, 31
2, 60986, Note_on_c, 0, 72, 0
2, 60986, Note_on_c, 1, 60, 0
2, 60992, Note_on_c, 0, 82, 42
2, 60992, Note_on_c, 1, 55, 39
2, 60992, Note_on_c, 1, 67, 39
2, 61050, Note_on_c, 0, 82, 0
2, 61050, Note_on_c, 1, 55, 0
2, 61050, Note_on_c, 1, 67, 0
2, 61056, Note_on_c, 0, 72, 27
2, 61056, Note_on_c, 1, 60, 28
2, 61114, Note_on_c, 1, 60, 0
2, 61120, Note_on_c, 0, 84, 47
2, 61120, Note_on_c, 1, 57, 32
2, 61120, Note_on_c, 1, 69, 29
2, 61178, Note_on_c, 0, 72, 0
2, 61178, Note_on_c, 0, 84, 0
2, 61184, Note_on_c, 0, 82, 34
2, 61184, Note_on_c, 1, 70, 31
2, 61242, Note_on_c, 0, 82, 0
2, 61242, Note_on_c, 1, 70, 0
2, 61248, Note_on_c, 0, 81, 34
2, 61248, Note_on_c, 1, 69, 32
2, 61306, Note_on_c, 0, 81, 0
2, 61306, Note_on_c, 1, 69, 0
2, 61312, Note_on_c, 0, 79, 33
2, 61312, Note_on_c, 1, 67, 31
2, 61351, Note_on_c, 1, 57, 0
2, 61351, Note_on_c, 1, 69, 0
2, 61370, Note_on_c, 0, 79, 0
2, 61370, Note_on_c, 1, 67, 0
2, 61376, Note_on_c, 0, 77, 35
2, 61376, Note_on_c, 1, 65, 36
2, 61434, Note_on_c, 0, 77, 0
2, 61434, Note_on_c, 1, 65, 0
2, 61440, Note_on_c, 0, 75, 32
2, 61440, Note_on_c, 1, 63, 33
2, 61498, Note_on_c, 0, 75, 0
2, 61498, Note_on_c, 1, 63, 0
2, 61504, Note_on_c, 0, 74, 33
2, 61504, Note_on_c, 1, 62, 31
2, 61562, Note_on_c, 0, 74, 0
2, 61562, Note_on_c, 1, 62, 0
2, 61568, Note_on_c, 0, 72, 33
2, 61568, Note_on_c, 1, 60, 30
2, 61626, Note_on_c, 0, 72, 0
2, 61626, Note_on_c, 1, 60, 0
2, 61632, Note_on_c, 0, 86, 45
2, 61632, Note_on_c, 1, 74, 46
2, 61632, Note_on_c, 1, 58, 32
2, 61632, Note_on_c, 1, 70, 36
2, 61690, Note_on_c, 0, 86, 0
2, 61690, Note_on_c, 1, 74, 0
2, 61696, Note_on_c, 0, 84, 35
2, 61696, Note_on_c, 1, 72, 32
2, 61748, Note_on_c, 1, 58, 0
2, 61748, Note_on_c, 1, 70, 0
2, 61754, Note_on_c, 0, 84, 0
2, 61754, Note_on_c, 1, 72, 0
2, 61760, Note_on_c, 0, 82, 31
2, 61760, Note_on_c, 1, 70, 31
2, 61818, Note_on_c, 0, 82, 0
2, 61818, Note_on_c, 1, 70, 0
2, 61824, Note_on_c, 0, 81, 31
2, 61824, Note_on_c, 1, 69, 35
2, 61882, Note_on_c, 0, 81, 0
2, 61882, Note_on_c, 1, 69, 0
2, 61888, Note_on_c, 0, 79, 35
2, 61888, Note_on_c, 1, 67, 37
2, 61946, Note_on_c, 0, 79, 0
2, 61946, Note_on_c, 1, 67, 0
2, 61952, Note_on_c, 0, 77, 32
2, 61952, Note_on_c, 1, 65, 34
2, 62010, Note_on_c, 0, 77, 0
2, 62010, Note_on_c, 1, 65, 0
2, 62016, Note_on_c, 0, 76, 32
2, 62016, Note_on_c, 1, 64, 32
2, 62074, Note_on_c, 0, 76, 0
2, 62074, Note_on_c, 1, 64, 0
2, 62080, Note_on_c, 0, 74, 33
2, 62080, Note_on_c, 1, 62, 34
2, 62138, Note_on_c, 0, 74, 0
2, 62138, Note_on_c, 1, 62, 0
2, 62144, Note_on_c, 0, 88, 48
2, 62144, Note_on_c, 1, 76, 49
2, 62144, Note_on_c, 1, 60, 34
2, 62144, Note_on_c, 1, 72, 33
2, 62202, Note_on_c, 0, 88, 0
2, 62202, Note_on_c, 1, 76, 0
2, 62208, Note_on_c, 0, 86, 34
2, 62208, Note_on_c, 1, 74, 36
2, 62260, Note_on_c, 1, 60, 0
2, 62260, Note_on_c, 1, 72, 0
2, 62266, Note_on_c, 0, 86, 0
2, 62266, Note_on_c, 1, 74, 0
2, 62272, Note_on_c, 0, 84, 32
2, 62272, Note_on_c, 1, 72, 30
2, 62330, Note_on_c, 0, 84, 0
2, 62330, Note_on_c, 1, 72, 0
2, 62336, Note_on_c, 0, 82, 33
2, 62336, Note_on_c, 1, 70, 31
2, 62394, Note_on_c, 0, 82, 0
2, 62394, Note_on_c, 1, 70, 0
2, 62400, Note_on_c, 0, 81, 37
2, 62400, Note_on_c, 1, 69, 36
2, 62458, Note_on_c, 0, 81, 0
2, 62458, Note_on_c, 1, 69, 0
2, 62464, Note_on_c, 0, 79, 31
2, 62464, Note_on_c, 1, 67, 30
2, 62522, Note_on_c, 0, 79, 0
2, 62522, Note_on_c, 1, 67, 0
2, 62528, Note_on_c, 0, 77, 31
2, 62528, Note_on_c, 1, 65, 30
2, 62586, Note_on_c, 0, 77, 0
2, 62586, Note_on_c, 1, 65, 0
2, 62592, Note_on_c, 0, 76, 32
2, 62592, Note_on_c, 1, 64, 34
2, 62650, Note_on_c, 0, 76, 0
2, 62650, Note_on_c, 1, 64, 0
2, 62656, Note_on_c, 0, 89, 49
2, 62656, Note_on_c, 1, 77, 46
2, 62656, Note_on_c, 1, 62, 32
2, 62656, Note_on_c, 1, 74, 32
2, 62714, Note_on_c, 0, 89, 0
2, 62714, Note_on_c, 1, 77, 0
2, 62720, Note_on_c, 0, 88, 34
2, 62720, Note_on_c, 1, 76, 33
2, 62772, Note_on_c, 1, 62, 0
2, 62772, Note_on_c, 1, 74, 0
2, 62778, Note_on_c, 0, 88, 0
2, 62778, Note_on_c, 1, 76, 0
2, 62784, Note_on_c, 0, 86, 32
2, 62784, Note_on_c, 1, 74, 33
2, 62842, Note_on_c, 0, 86, 0
2, 62842, Note_on_c, 1, 74, 0
2, 62848, Note_on_c, 0, 84, 31
2, 62848, Note_on_c, 1, 72, 30
2, 62906, Note_on_c, 0, 84, 0
2, 62906, Note_on_c, 1, 72, 0
2, 62912, Note_on_c, 0, 82, 33
2, 62912, Note_on_c, 1, 70, 34
2, 62970, Note_on_c, 0, 82, 0
2, 62970, Note_on_c, 1, 70, 0
2, 62976, Note_on_c, 0, 81, 33
2, 62976, Note_on_c, 1, 69, 33
2, 63034, Note_on_c, 0, 81, 0
2, 63034, Note_on_c, 1, 69, 0
2, 63040, Note_on_c, 0, 79, 33
2, 63040, Note_on_c, 1, 67, 34
2, 63098, Note_on_c, 0, 79, 0
2, 63098, Note_on_c, 1, 67, 0
2, 63104, Note_on_c, 0, 77, 31
2, 63104, Note_on_c, 1, 65, 33
2, 63162, Note_on_c, 0, 77, 0
2, 63162, Note_on_c, 1, 65, 0
2, 63168, Note_on_c, 0, 91, 46
2, 63168, Note_on_c, 1, 79, 48
2, 63168, Note_on_c, 1, 64, 34
2, 63168, Note_on_c, 1, 76, 35
2, 63226, Note_on_c, 0, 91, 0
2, 63226, Note_on_c, 1, 79, 0
2, 63232, Note_on_c, 0, 89, 35
2, 63232, Note_on_c, 1, 77, 33
2, 63284, Note_on_c, 1, 64, 0
2, 63284, Note_on_c, 1, 76, 0
2, 63290, Note_on_c, 0, 89, 0
2, 63290, Note_on_c, 1, 77, 0
2, 63296, Note_on_c, 0, 88, 33
2, 63296, Note_on_c, 1, 76, 32
2, 63354, Note_on_c, 0, 88, 0
2, 63354, Note_on_c, 1, 76, 0
2, 63360, Note_on_c, 0, 86, 34
2, 63360, Note_on_c, 1, 74, 32
2, 63392, Note_on_c, 0, 86, 0
2, 63392, Note_on_c, 1, 74, 0
2, 63424, Note_on_c, 0, 84, 35
2, 63424, Note_on_c, 1, 72, 35
2, 63456, Note_on_c, 0, 84, 0
2, 63456, Note_on_c, 1, 72, 0
2, 63488, Note_on_c, 0, 82, 30
2, 63488, Note_on_c, 1, 70, 31
2, 63520, Note_on_c, 0, 82, 0
2, 63520, Note_on_c, 1, 70, 0
2, 63552, Note_on_c, 0, 81, 32
2, 63552, Note_on_c, 1, 69, 33
2, 63584, Note_on_c, 0, 81, 0
2, 63584, Note_on_c, 1, 69, 0
2, 63616, Note_on_c, 0, 79, 30
2, 63616, Note_on_c, 1, 67, 31
2, 63648, Note_on_c, 0, 79, 0
2, 63648, Note_on_c, 1, 67, 0
2, 63680, Note_on_c, 0, 81, 46
2, 63680, Note_on_c, 0, 93, 48
2, 63680, Note_on_c, 1, 65, 45
2, 63680, Note_on_c, 1, 77, 43
2, 63712, Note_on_c, 0, 81, 0
2, 63712, Note_on_c, 0, 93, 0
2, 63743, Note_on_c, 1, 65, 0
2, 63743, Note_on_c, 1, 77, 0
2, 63744, Note_on_c, 0, 77, 32
2, 63744, Note_on_c, 0, 89, 31
2, 63802, Note_on_c, 0, 77, 0
2, 63802, Note_on_c, 0, 89, 0
2, 63808, Note_on_c, 0, 88, 32
2, 63808, Note_on_c, 1, 76, 34
2, 63866, Note_on_c, 0, 88, 0
2, 63871, Note_on_c, 1, 76, 0
2, 63872, Note_on_c, 0, 77, 36
2, 63872, Note_on_c, 0, 89, 37
2, 63930, Note_on_c, 0, 77, 0
2, 63930, Note_on_c, 0, 89, 0
2, 63936, Note_on_c, 0, 84, 32
2, 63936, Note_on_c, 1, 72, 35
2, 63968, Note_on_c, 0, 84, 0
2, 63999, Note_on_c, 1, 72, 0
2, 64000, Note_on_c, 0, 77, 36
2, 64000, Note_on_c, 0, 89, 38
2, 64058, Note_on_c, 0, 77, 0
2, 64058, Note_on_c, 0, 89, 0
2, 64064, Note_on_c, 0, 76, 33
2, 64064, Note_on_c, 0, 88, 35
2, 64064, Note_on_c, 1, 76, 37
2, 64122, Note_on_c, 0, 76, 0
2, 64122, Note_on_c, 0, 88, 0
2, 64127, Note_on_c, 1, 76, 0
2, 64128, Note_on_c, 0, 77, 37
2, 64128, Note_on_c, 0, 89, 37
2, 64186, Note_on_c, 0, 77, 0
2, 64186, Note_on_c, 0, 89, 0
2, 64192, Note_on_c, 0, 81, 42
2, 64192, Note_on_c, 0, 93, 40
2, 64192, Note_on_c, 1, 65, 39
2, 64192, Note_on_c, 1, 77, 41
2, 64224, Note_on_c, 0, 81, 0
2, 64224, Note_on_c, 0, 93, 0
2, 64255, Note_on_c, 1, 65, 0
2, 64255, Note_on_c, 1, 77, 0
2, 64256, Note_on_c, 0, 77, 32
2, 64256, Note_on_c, 0, 89, 32
2, 64314, Note_on_c, 0, 77, 0
2, 64314, Note_on_c, 0, 89, 0
2, 64320, Note_on_c, 0, 88, 33
2, 64320, Note_on_c, 1, 76, 34
2, 64378, Note_on_c, 0, 88, 0
2, 64383, Note_on_c, 1, 76, 0
2, 64384, Note_on_c, 0, 77, 37
2, 64384, Note_on_c, 0, 89, 36
2, 64442, Note_on_c, 0, 77, 0
2, 64442, Note_on_c, 0, 89, 0
2, 64448, Note_on_c, 0, 84, 33
2, 64448, Note_on_c, 1, 72, 35
2, 64480, Note_on_c, 0, 84, 0
2, 64511, Note_on_c, 1, 72, 0
2, 64512, Note_on_c, 0, 77, 36
2, 64512, Note_on_c, 0, 89, 40
2, 64570, Note_on_c, 0, 77, 0
2, 64570, Note_on_c, 0, 89, 0
2, 64576, Note_on_c, 0, 76, 34
2, 64576, Note_on_c, 0, 88, 32
2, 64576, Note_on_c, 1, 76, 38
2, 64634, Note_on_c, 0, 76, 0
2, 64634, Note_on_c, 0, 88, 0
2, 64639, Note_on_c, 1, 76, 0
2, 64640, Note_on_c, 0, 77, 37
2, 64640, Note_on_c, 0, 89, 36
2, 64698, Note_on_c, 0, 77, 0
2, 64698, Note_on_c, 0, 89, 0
2, 64704, Note_on_c, 0, 79, 39
2, 64704, Note_on_c, 0, 91, 42
2, 64704, Note_on_c, 1, 64, 38
2, 64704, Note_on_c, 1, 76, 39
2, 64736, Note_on_c, 0, 79, 0
2, 64736, Note_on_c, 0, 91, 0
2, 64767, Note_on_c, 1, 64, 0
2, 64767, Note_on_c, 1, 76, 0
2, 64768, Note_on_c, 0, 76, 33
2, 64768, Note_on_c, 0, 88, 32
2, 64826, Note_on_c, 0, 76, 0
2, 64826, Note_on_c, 0, 88, 0
2, 64832, Note_on_c, 0, 86, 32
2, 64832, Note_on_c, 1, 74, 32
2, 64890, Note_on_c, 0, 86, 0
2, 64895, Note_on_c, 1, 74, 0
2, 64896, Note_on_c, 0, 76, 36
2, 64896, Note_on_c, 0, 88, 36
2, 64954, Note_on_c, 0, 76, 0
2, 64954, Note_on_c, 0, 88, 0
2, 64960, Note_on_c, 0, 84, 32
2, 64960, Note_on_c, 1, 72, 36
2, 64992, Note_on_c, 0, 84, 0
2, 65023, Note_on_c, 1, 72, 0
2, 65024, Note_on_c, 0, 76, 37
2, 65024, Note_on_c, 0, 88, 40
2, 65082, Note_on_c, 0, 76, 0
2, 65082, Note_on_c, 0, 88, 0
2, 65088, Note_on_c, 0, 86, 32
2, 65088, Note_on_c, 1, 74, 38
2, 65146, Note_on_c, 0, 86, 0
2, 65151, Note_on_c, 1, 74, 0
2, 65152, Note_on_c, 0, 76, 35
2, 65152, Note_on_c, 0, 88, 34
2, 65210, Note_on_c, 0, 76, 0
2, 65210, Note_on_c, 0, 88, 0
2, 65216, Note_on_c, 0, 79, 42
2, 65216, Note_on_c, 0, 91, 40
2, 65216, Note_on_c, 1, 64, 41
2, 65216, Note_on_c, 1, 76, 42
2, 65248, Note_on_c, 0, 79, 0
2, 65248, Note_on_c, 0, 91, 0
2, 65279, Note_on_c, 1, 64, 0
2, 65279, Note_on_c, 1, 76, 0
2, 65280, Note_on_c, 0, 76, 31
2, 65280, Note_on_c, 0, 88, 30
2, 65338, Note_on_c, 0, 76, 0
2, 65338, Note_on_c, 0, 88, 0
2, 65344, Note_on_c, 0, 86, 32
2, 65344, Note_on_c, 1, 74, 32
2, 65402, Note_on_c, 0, 86, 0
2, 65407, Note_on_c, 1, 74, 0
2, 65408, Note_on_c, 0, 76, 35
2, 65408, Note_on_c, 0, 88, 35
2, 65466, Note_on_c, 0, 76, 0
2, 65466, Note_on_c, 0, 88, 0
2, 65472, Note_on_c, 0, 84, 34
2, 65472, Note_on_c, 1, 72, 35
2, 65504, Note_on_c, 0, 84, 0
2, 65535, Note_on_c, 1, 72, 0
2, 65536, Note_on_c, 0, 76, 39
2, 65536, Note_on_c, 0, 88, 40
2, 65594, Note_on_c, 0, 76, 0
2, 65594, Note_on_c, 0, 88, 0
2, 65600, Note_on_c, 0, 86, 35
2, 65600, Note_on_c, 1, 74, 37
2, 65658, Note_on_c, 0, 86, 0
2, 65663, Note_on_c, 1, 74, 0
2, 65664, Note_on_c, 0, 76, 36
2, 65664, Note_on_c, 0, 88, 35
2, 65722, Note_on_c, 0, 76, 0
2, 65722, Note_on_c, 0, 88, 0
2, 65728, Note_on_c, 0, 81, 21
2, 65728, Note_on_c, 0, 93, 23
2, 65728, Note_on_c, 1, 65, 29
2, 65728, Note_on_c, 1, 77, 30
2, 65786, Note_on_c, 0, 81, 0
2, 65786, Note_on_c, 0, 93, 0
2, 65786, Note_on_c, 1, 65, 0
2, 65786, Note_on_c, 1, 77, 0
2, 65792, Note_on_c, 0, 89, 21
2, 65792, Note_on_c, 1, 77, 23
2, 65850, Note_on_c, 0, 89, 0
2, 65850, Note_on_c, 1, 77, 0
2, 65856, Note_on_c, 0, 88, 23
2, 65856, Note_on_c, 1, 76, 21
2, 65914, Note_on_c, 0, 88, 0
2, 65914, Note_on_c, 1, 76, 0
2, 65920, Note_on_c, 0, 89, 24
2, 65920, Note_on_c, 1, 77, 24
2, 65978, Note_on_c, 0, 89, 0
2, 65978, Note_on_c, 1, 77, 0
2, 65984, Note_on_c, 0, 84, 24
2, 65984, Note_on_c, 1, 72, 23
2, 66042, Note_on_c, 0, 84, 0
2, 66042, Note_on_c, 1, 72, 0
2, 66048, Note_on_c, 0, 89, 25
2, 66048, Note_on_c, 1, 77, 27
2, 66106, Note_on_c, 0, 89, 0
2, 66106, Note_on_c, 1, 77, 0
2, 66112, Note_on_c, 0, 88, 22
2, 66112, Note_on_c, 1, 76, 22
2, 66170, Note_on_c, 0, 88, 0
2, 66170, Note_on_c, 1, 76, 0
2, 66176, Note_on_c, 0, 89, 25
2, 66176, Note_on_c, 1, 77, 26
2, 66234, Note_on_c, 0, 89, 0
2, 66234, Note_on_c, 1, 77, 0
2, 66240, Note_on_c, 0, 81, 30
2, 66240, Note_on_c, 0, 93, 28
2, 66240, Note_on_c, 1, 65, 27
2, 66240, Note_on_c, 1, 77, 28
2, 66298, Note_on_c, 0, 81, 0
2, 66298, Note_on_c, 0, 93, 0
2, 66298, Note_on_c, 1, 65, 0
2, 66298, Note_on_c, 1, 77, 0
2, 66304, Note_on_c, 0, 89, 21
2, 66304, Note_on_c, 1, 77, 23
2, 66362, Note_on_c, 0, 89, 0
2, 66362, Note_on_c, 1, 77, 0
2, 66368, Note_on_c, 0, 88, 22
2, 66368, Note_on_c, 1, 76, 22
2, 66426, Note_on_c, 0, 88, 0
2, 66426, Note_on_c, 1, 76, 0
2, 66432, Note_on_c, 0, 89, 26
2, 66432, Note_on_c, 1, 77, 24
2, 66490, Note_on_c, 0, 89, 0
2, 66490, Note_on_c, 1, 77, 0
2, 66496, Note_on_c, 0, 84, 24
2, 66496, Note_on_c, 1, 72, 23
2, 66554, Note_on_c, 0, 84, 0
2, 66554, Note_on_c, 1, 72, 0
2, 66560, Note_on_c, 0, 89, 24
2, 66560, Note_on_c, 1, 77, 26
2, 66618, Note_on_c, 0, 89, 0
2, 66618, Note_on_c, 1, 77, 0
2, 66624, Note_on_c, 0, 88, 22
2, 66624, Note_on_c, 1, 76, 25
2, 66682, Note_on_c, 0, 88, 0
2, 66682, Note_on_c, 1, 76, 0
2, 66688, Note_on_c, 0, 89, 24
2, 66688, Note_on_c, 1, 77, 24
2, 66746, Note_on_c, 0, 89, 0
2, 66746, Note_on_c, 1, 77, 0
2, 66752, Note_on_c, 0, 79, 26
2, 66752, Note_on_c, 0, 91, 27
2, 66752, Note_on_c, 1, 64, 26
2, 66752, Note_on_c, 1, 76, 26
2, 66810, Note_on_c, 0, 79, 0
2, 66810, Note_on_c, 0, 91, 0
2, 66810, Note_on_c, 1, 64, 0
2, 66810, Note_on_c, 1, 76, 0
2, 66816, Note_on_c, 0, 88, 22
2, 66816, Note_on_c, 1, 76, 24
2, 66874, Note_on_c, 0, 88, 0
2, 66874, Note_on_c, 1, 76, 0
2, 66880, Note_on_c, 0, 86, 24
2, 66880, Note_on_c, 1, 74, 20
2, 66938, Note_on_c, 0, 86, 0
2, 66938, Note_on_c, 1, 74, 0
2, 66944, Note_on_c, 0, 88, 27
2, 66944, Note_on_c, 1, 76, 27
2, 67002, Note_on_c, 0, 88, 0
2, 67002, Note_on_c, 1, 76, 0
2, 67008, Note_on_c, 0, 84, 26
2, 67008, Note_on_c, 1, 72, 23
2, 67066, Note_on_c, 0, 84, 0
2, 67066, Note_on_c, 1, 72, 0
2, 67072, Note_on_c, 0, 88, 24
2, 67072, Note_on_c, 1, 76, 26
2, 67130, Note_on_c, 0, 88, 0
2, 67130, Note_on_c, 1, 76, 0
2, 67136, Note_on_c, 0, 86, 22
2, 67136, Note_on_c, 1, 74, 24
2, 67194, Note_on_c, 0, 86, 0
2, 67194, Note_on_c, 1, 74, 0
2, 67200, Note_on_c, 0, 88, 26
2, 67200, Note_on_c, 1, 76, 26
2, 67258, Note_on_c, 0, 88, 0
2, 67258, Note_on_c, 1, 76, 0
2, 67264, Note_on_c, 0, 79, 30
2, 67264, Note_on_c, 0, 91, 30
2, 67264, Note_on_c, 1, 64, 27
2, 67264, Note_on_c, 1, 76, 28
2, 67322, Note_on_c, 0, 79, 0
2, 67322, Note_on_c, 0, 91, 0
2, 67322, Note_on_c, 1, 64, 0
2, 67322, Note_on_c, 1, 76, 0
2, 67328, Note_on_c, 0, 88, 23
2, 67328, Note_on_c, 1, 76, 23
2, 67386, Note_on_c, 0, 88, 0
2, 67386, Note_on_c, 1, 76, 0
2, 67392, Note_on_c, 0, 86, 22
2, 67392, Note_on_c, 1, 74, 24
2, 67450, Note_on_c, 0, 86, 0
2, 67450, Note_on_c, 1, 74, 0
2, 67456, Note_on_c, 0, 88, 27
2, 67456, Note_on_c, 1, 76, 27
2, 67514, Note_on_c, 0, 88, 0
2, 67514, Note_on_c, 1, 76, 0
2, 67520, Note_on_c, 0, 84, 24
2, 67520, Note_on_c, 1, 72, 22
2, 67578, Note_on_c, 0, 84, 0
2, 67578, Note_on_c, 1, 72, 0
2, 67584, Note_on_c, 0, 88, 27
2, 67584, Note_on_c, 1, 76, 27
2, 67642, Note_on_c, 0, 88, 0
2, 67642, Note_on_c, 1, 76, 0
2, 67648, Note_on_c, 0, 86, 23
2, 67648, Note_on_c, 1, 74, 22
2, 67706, Note_on_c, 0, 86, 0
2, 67706, Note_on_c, 1, 74, 0
2, 67712, Note_on_c, 0, 88, 26
2, 67712, Note_on_c, 1, 76, 24
2, 67770, Note_on_c, 0, 88, 0
2, 67770, Note_on_c, 1, 76, 0
2, 67776, Note_on_c, 0, 77, 28
2, 67776, Note_on_c, 0, 89, 30
2, 67776, Note_on_c, 1, 62, 26
2, 67776, Note_on_c, 1, 74, 26
2, 67834, Note_on_c, 0, 77, 0
2, 67834, Note_on_c, 0, 89, 0
2, 67834, Note_on_c, 1, 62, 0
2, 67834, Note_on_c, 1, 74, 0
2, 67840, Note_on_c, 0, 91, 32
2, 67840, Note_on_c, 1, 79, 35
2, 67898, Note_on_c, 0, 91, 0
2, 67898, Note_on_c, 1, 79, 0
2, 67904, Note_on_c, 0, 89, 37
2, 67904, Note_on_c, 1, 77, 38
2, 67962, Note_on_c, 0, 89, 0
2, 67962, Note_on_c, 1, 77, 0
2, 67968, Note_on_c, 0, 88, 46
2, 67968, Note_on_c, 1, 76, 44
2, 68026, Note_on_c, 0, 88, 0
2, 68026, Note_on_c, 1, 76, 0
2, 68032, Note_on_c, 0, 86, 47
2, 68032, Note_on_c, 1, 74, 47
2, 68090, Note_on_c, 0, 86, 0
2, 68090, Note_on_c, 1, 74, 0
2, 68096, Note_on_c, 0, 84, 44
2, 68096, Note_on_c, 1, 72, 46
2, 68154, Note_on_c, 0, 84, 0
2, 68154, Note_on_c, 1, 72, 0
2, 68160, Note_on_c, 0, 83, 45
2, 68160, Note_on_c, 1, 71, 45
2, 68218, Note_on_c, 0, 83, 0
2, 68218, Note_on_c, 1, 71, 0
2, 68224, Note_on_c, 0, 81, 42
2, 68224, Note_on_c, 1, 69, 45
2, 68282, Note_on_c, 0, 81, 0
2, 68282, Note_on_c, 1, 69, 0
2, 68288, Note_on_c, 0, 83, 54
2, 68288, Note_on_c, 1, 71, 53
2, 68346, Note_on_c, 0, 83, 0
2, 68346, Note_on_c, 1, 71, 0
2, 68352, Note_on_c, 1, 67, 57
2, 68352, Note_on_c, 1, 79, 56
2, 68410, Note_on_c, 1, 67, 0
2, 68410, Note_on_c, 1, 79, 0
2, 68416, Note_on_c, 1, 71, 39
2, 68474, Note_on_c, 1, 71, 0
2, 68480, Note_on_c, 1, 74, 58
2, 68480, Note_on_c, 1, 86, 61
2, 68538, Note_on_c, 1, 74, 0
2, 68538, Note_on_c, 1, 86, 0
2, 68544, Note_on_c, 1, 77, 43
2, 68602, Note_on_c, 1, 77, 0
2, 68608, Note_on_c, 1, 81, 60
2, 68608, Note_on_c, 1, 93, 59
2, 68666, Note_on_c, 1, 81, 0
2, 68666, Note_on_c, 1, 93, 0
2, 68672, Note_on_c, 1, 89, 44
2, 68730, Note_on_c, 1, 89, 0
2, 68736, Note_on_c, 1, 74, 45
2, 68736, Note_on_c, 1, 86, 44
2, 68794, Note_on_c, 1, 74, 0
2, 68794, Note_on_c, 1, 86, 0
2, 68800, Note_on_c, 1, 83, 45
2, 68858, Note_on_c, 1, 83, 0
2, 68864, Note_on_c, 1, 67, 43
2, 68864, Note_on_c, 1, 79, 44
2, 68922, Note_on_c, 1, 67, 0
2, 68922, Note_on_c, 1, 79, 0
2, 68928, Note_on_c, 1, 71, 35
2, 68986, Note_on_c, 1, 71, 0
2, 68992, Note_on_c, 1, 74, 58
2, 68992, Note_on_c, 1, 86, 58
2, 69050, Note_on_c, 1, 74, 0
2, 69050, Note_on_c, 1, 86, 0
2, 69056, Note_on_c, 1, 77, 41
2, 69114, Note_on_c, 1, 77, 0
2, 69120, Note_on_c, 1, 81, 60
2, 69120, Note_on_c, 1, 93, 58
2, 69178, Note_on_c, 1, 81, 0
2, 69178, Note_on_c, 1, 93, 0
2, 69184, Note_on_c, 1, 89, 45
2, 69242, Note_on_c, 1, 89, 0
2, 69248, Note_on_c, 1, 74, 41
2, 69248, Note_on_c, 1, 86, 42
2, 69306, Note_on_c, 1, 74, 0
2, 69306, Note_on_c, 1, 86, 0
2, 69312, Note_on_c, 1, 82, 46
2, 69370, Note_on_c, 1, 82, 0
2, 69376, Note_on_c, 1, 67, 43
2, 69376, Note_on_c, 1, 79, 42
2, 69434, Note_on_c, 1, 67, 0
2, 69434, Note_on_c, 1, 79, 0
2, 69440, Note_on_c, 1, 70, 35
2, 69498, Note_on_c, 1, 70, 0
2, 69504, Note_on_c, 1, 72, 60
2, 69504, Note_on_c, 1, 84, 60
2, 69562, Note_on_c, 1, 72, 0
2, 69562, Note_on_c, 1, 84, 0
2, 69568, Note_on_c, 1, 76, 42
2, 69626, Note_on_c, 1, 76, 0
2, 69632, Note_on_c, 1, 79, 59
2, 69632, Note_on_c, 1, 91, 62
2, 69690, Note_on_c, 1, 79, 0
2, 69690, Note_on_c, 1, 91, 0
2, 69696, Note_on_c, 1, 88, 47
2, 69754, Note_on_c, 1, 88, 0
2, 69760, Note_on_c, 1, 72, 44
2, 69760, Note_on_c, 1, 84, 43
2, 69818, Note_on_c, 1, 72, 0
2, 69818, Note_on_c, 1, 84, 0
2, 69824, Note_on_c, 1, 82, 49
2, 69882, Note_on_c, 1, 82, 0
2, 69888, Note_on_c, 1, 67, 42
2, 69888, Note_on_c, 1, 79, 44
2, 69946, Note_on_c, 1, 67, 0
2, 69946, Note_on_c, 1, 79, 0
2, 69952, Note_on_c, 1, 70, 35
2, 70010, Note_on_c, 1, 70, 0
2, 70016, Note_on_c, 1, 72, 58
2, 70016, Note_on_c, 1, 84, 61
2, 70074, Note_on_c, 1, 72, 0
2, 70074, Note_on_c, 1, 84, 0
2, 70080, Note_on_c, 1, 76, 44
2, 70138, Note_on_c, 1, 76, 0
2, 70144, Note_on_c, 1, 79, 61
2, 70144, Note_on_c, 1, 91, 60
2, 70202, Note_on_c, 1, 79, 0
2, 70202, Note_on_c, 1, 91, 0
2, 70208, Note_on_c, 1, 88, 45
2, 70266, Note_on_c, 1, 88, 0
2, 70272, Note_on_c, 1, 72, 44
2, 70272, Note_on_c, 1, 84, 40
2, 70330, Note_on_c, 1, 72, 0
2, 70330, Note_on_c, 1, 84, 0
2, 70336, Note_on_c, 0, 81, 44
2, 70394, Note_on_c, 0, 81, 0
2, 70400, Note_on_c, 0, 77, 42
2, 70400, Note_on_c, 1, 65, 45
2, 70458, Note_on_c, 0, 77, 0
2, 70458, Note_on_c, 1, 65, 0
2, 70464, Note_on_c, 0, 81, 54
2, 70464, Note_on_c, 1, 69, 55
2, 70522, Note_on_c, 0, 81, 0
2, 70522, Note_on_c, 1, 69, 0
2, 70528, Note_on_c, 0, 72, 54
2, 70528, Note_on_c, 0, 84, 54
2, 70586, Note_on_c, 0, 72, 0
2, 70586, Note_on_c, 0, 84, 0
2, 70592, Note_on_c, 0, 74, 40
2, 70650, Note_on_c, 0, 74, 0
2, 70656, Note_on_c, 0, 77, 51
2, 70656, Note_on_c, 1, 89, 44
2, 70714, Note_on_c, 0, 77, 0
2, 70714, Note_on_c, 1, 89, 0
2, 70720, Note_on_c, 0, 74, 46
2, 70720, Note_on_c, 1, 86, 44
2, 70778, Note_on_c, 0, 74, 0
2, 70778, Note_on_c, 1, 86, 0
2, 70784, Note_on_c, 0, 70, 59
2, 70784, Note_on_c, 0, 82, 60
2, 70842, Note_on_c, 0, 70, 0
2, 70842, Note_on_c, 0, 82, 0
2, 70848, Note_on_c, 0, 69, 56
2, 70848, Note_on_c, 0, 81, 54
2, 70906, Note_on_c, 0, 69, 0
2, 70906, Note_on_c, 0, 81, 0
2, 70912, Note_on_c, 0, 77, 49
2, 70912, Note_on_c, 1, 65, 49
2, 70970, Note_on_c, 0, 77, 0
2, 70970, Note_on_c, 1, 65, 0
2, 70976, Note_on_c, 0, 81, 57
2, 70976, Note_on_c, 1, 69, 58
2, 71034, Note_on_c, 0, 81, 0
2, 71034, Note_on_c, 1, 69, 0
2, 71040, Note_on_c, 0, 72, 60
2, 71040, Note_on_c, 0, 84, 61
2, 71098, Note_on_c, 0, 72, 0
2, 71098, Note_on_c, 0, 84, 0
2, 71104, Note_on_c, 0, 74, 45
2, 71162, Note_on_c, 0, 74, 0
2, 71168, Note_on_c, 0, 77, 60
2, 71168, Note_on_c, 1, 89, 52
2, 71226, Note_on_c, 0, 77, 0
2, 71226, Note_on_c, 1, 89, 0
2, 71232, Note_on_c, 0, 74, 53
2, 71232, Note_on_c, 1, 86, 49
2, 71290, Note_on_c, 0, 74, 0
2, 71290, Note_on_c, 1, 86, 0
2, 71296, Note_on_c, 0, 70, 69
2, 71296, Note_on_c, 0, 82, 69
2, 71354, Note_on_c, 0, 70, 0
2, 71354, Note_on_c, 0, 82, 0
2, 71360, Note_on_c, 0, 67, 56
2, 71360, Note_on_c, 0, 79, 55
2, 71418, Note_on_c, 0, 67, 0
2, 71418, Note_on_c, 0, 79, 0
2, 71424, Note_on_c, 0, 76, 53
2, 71424, Note_on_c, 1, 64, 53
2, 71482, Note_on_c, 0, 76, 0
2, 71482, Note_on_c, 1, 64, 0
2, 71488, Note_on_c, 0, 79, 64
2, 71488, Note_on_c, 1, 67, 62
2, 71546, Note_on_c, 0, 79, 0
2, 71546, Note_on_c, 1, 67, 0
2, 71552, Note_on_c, 0, 70, 66
2, 71552, Note_on_c, 0, 82, 66
2, 71610, Note_on_c, 0, 70, 0
2, 71610, Note_on_c, 0, 82, 0
2, 71616, Note_on_c, 0, 73, 50
2, 71674, Note_on_c, 0, 73, 0
2, 71680, Note_on_c, 0, 76, 67
2, 71680, Note_on_c, 1, 88, 54
2, 71738, Note_on_c, 0, 76, 0
2, 71738, Note_on_c, 1, 88, 0
2, 71744, Note_on_c, 0, 73, 59
2, 71744, Note_on_c, 1, 85, 56
2, 71802, Note_on_c, 0, 73, 0
2, 71802, Note_on_c, 1, 85, 0
2, 71808, Note_on_c, 0, 82, 76
2, 71866, Note_on_c, 0, 82, 0
2, 71872, Note_on_c, 0, 79, 64
2, 71930, Note_on_c, 0, 79, 0
2, 71936, Note_on_c, 0, 76, 58
2, 71936, Note_on_c, 1, 64, 55
2, 71994, Note_on_c, 0, 76, 0
2, 71994, Note_on_c, 1, 64, 0
2, 72000, Note_on_c, 0, 79, 68
2, 72000, Note_on_c, 1, 67, 67
2, 72058, Note_on_c, 0, 79, 0
2, 72058, Note_on_c, 1, 67, 0
2, 72064, Note_on_c, 0, 70, 68
2, 72064, Note_on_c, 0, 82, 70
2, 72122, Note_on_c, 0, 70, 0
2, 72122, Note_on_c, 0, 82, 0
2, 72128, Note_on_c, 0, 73, 54
2, 72186, Note_on_c, 0, 73, 0
2, 72192, Note_on_c, 0, 76, 66
2, 72192, Note_on_c, 1, 88, 55
2, 72250, Note_on_c, 0, 76, 0
2, 72250, Note_on_c, 1, 88, 0
2, 72256, Note_on_c, 0, 73, 58
2, 72256, Note_on_c, 1, 85, 56
2, 72314, Note_on_c, 0, 73, 0
2, 72314, Note_on_c, 1, 85, 0
2, 72320, Note_on_c, 0, 70, 77
2, 72320, Note_on_c, 0, 82, 75
2, 72378, Note_on_c, 0, 70, 0
2, 72378, Note_on_c, 0, 82, 0
2, 72384, Note_on_c, 0, 69, 64
2, 72384, Note_on_c, 0, 81, 64
2, 72384, Note_on_c, 1, 57, 74
2, 72442, Note_on_c, 0, 69, 0
2, 72442, Note_on_c, 0, 81, 0
2, 72448, Note_on_c, 0, 93, 78
2, 72448, Note_on_c, 1, 69, 72
2, 72500, Note_on_c, 1, 57, 0
2, 72506, Note_on_c, 0, 93, 0
2, 72506, Note_on_c, 1, 69, 0
2, 72512, Note_on_c, 0, 91, 76
2, 72512, Note_on_c, 0, 85, 72
2, 72512, Note_on_c, 1, 67, 71
2, 72512, Note_on_c, 1, 61, 86
2, 72570, Note_on_c, 0, 91, 0
2, 72570, Note_on_c, 1, 67, 0
2, 72576, Note_on_c, 0, 93, 85
2, 72576, Note_on_c, 1, 69, 83
2, 72628, Note_on_c, 0, 85, 0
2, 72628, Note_on_c, 1, 61, 0
2, 72634, Note_on_c, 0, 93, 0
2, 72634, Note_on_c, 1, 69, 0
2, 72640, Note_on_c, 0, 89, 72
2, 72640, Note_on_c, 0, 86, 85
2, 72640, Note_on_c, 1, 65, 75
2, 72640, Note_on_c, 1, 62, 88
2, 72698, Note_on_c, 0, 89, 0
2, 72698, Note_on_c, 1, 65, 0
2, 72704, Note_on_c, 0, 93, 86
2, 72704, Note_on_c, 1, 69, 87
2, 72756, Note_on_c, 0, 86, 0
2, 72756, Note_on_c, 1, 62, 0
2, 72762, Note_on_c, 0, 93, 0
2, 72762, Note_on_c, 1, 69, 0
2, 72768, Note_on_c, 0, 88, 71
2, 72768, Note_on_c, 0, 79, 65
2, 72768, Note_on_c, 1, 64, 69
2, 72768, Note_on_c, 1, 55, 67
2, 72826, Note_on_c, 0, 88, 0
2, 72826, Note_on_c, 1, 64, 0
2, 72832, Note_on_c, 0, 93, 87
2, 72832, Note_on_c, 1, 69, 87
2, 72884, Note_on_c, 0, 79, 0
2, 72884, Note_on_c, 1, 55, 0
2, 72890, Note_on_c, 0, 93, 0
2, 72890, Note_on_c, 1, 69, 0
2, 72896, Note_on_c, 0, 86, 67
2, 72896, Note_on_c, 0, 77, 73
2, 72896, Note_on_c, 1, 62, 68
2, 72896, Note_on_c, 1, 53, 73
2, 72954, Note_on_c, 0, 86, 0
2, 72954, Note_on_c, 1, 62, 0
2, 72960, Note_on_c, 0, 93, 90
2, 72960, Note_on_c, 1, 69, 92
2, 73012, Note_on_c, 0, 77, 0
2, 73012, Note_on_c, 1, 53, 0
2, 73018, Note_on_c, 0, 93, 0
2, 73018, Note_on_c, 1, 69, 0
2, 73024, Note_on_c, 0, 85, 67
2, 73024, Note_on_c, 0, 81, 86
2, 73024, Note_on_c, 1, 61, 64
2, 73024, Note_on_c, 1, 57, 87
2, 73082, Note_on_c, 0, 85, 0
2, 73082, Note_on_c, 1, 61, 0
2, 73088, Note_on_c, 0, 93, 92
2, 73088, Note_on_c, 1, 69, 94
2, 73140, Note_on_c, 0, 81, 0
2, 73140, Note_on_c, 1, 57, 0
2, 73146, Note_on_c, 0, 93, 0
2, 73146, Note_on_c, 1, 69, 0
2, 73152, Note_on_c, 0, 86, 71
2, 73152, Note_on_c, 0, 83, 87
2, 73152, Note_on_c, 1, 62, 71
2, 73152, Note_on_c, 1, 59, 90
2, 73210, Note_on_c, 0, 86, 0
2, 73210, Note_on_c, 1, 62, 0
2, 73216, Note_on_c, 0, 93, 92
2, 73216, Note_on_c, 1, 69, 91
2, 73268, Note_on_c, 0, 83, 0
2, 73268, Note_on_c, 1, 59, 0
2, 73274, Note_on_c, 0, 93, 0
2, 73274, Note_on_c, 1, 69, 0
2, 73280, Note_on_c, 0, 88, 71
2, 73280, Note_on_c, 0, 85, 85
2, 73280, Note_on_c, 1, 64, 70
2, 73280, Note_on_c, 1, 61, 87
2, 73338, Note_on_c, 0, 88, 0
2, 73338, Note_on_c, 1, 64, 0
2, 73344, Note_on_c, 0, 93, 88
2, 73344, Note_on_c, 1, 69, 91
2, 73396, Note_on_c, 0, 85, 0
2, 73396, Note_on_c, 1, 61, 0
2, 73402, Note_on_c, 0, 93, 0
2, 73402, Note_on_c, 1, 69, 0
2, 73408, Note_on_c, 0, 89, 74
2, 73408, Note_on_c, 0, 86, 88
2, 73408, Note_on_c, 1, 65, 76
2, 73408, Note_on_c, 1, 62, 89
2, 73466, Note_on_c, 0, 89, 0
2, 73466, Note_on_c, 1, 65, 0
2, 73472, Note_on_c, 0, 93, 88
2, 73472, Note_on_c, 1, 69, 87
2, 73524, Note_on_c, 0, 86, 0
2, 73524, Note_on_c, 1, 62, 0
2, 73530, Note_on_c, 0, 93, 0
2, 73530, Note_on_c, 1, 69, 0
2, 73536, Note_on_c, 0, 81, 61
2, 73536, Note_on_c, 0, 85, 78
2, 73536, Note_on_c, 1, 61, 78
2, 73594, Note_on_c, 0, 81, 0
2, 73600, Note_on_c, 0, 93, 97
2, 73600, Note_on_c, 1, 69, 69
2, 73652, Note_on_c, 0, 85, 0
2, 73652, Note_on_c, 1, 61, 0
2, 73658, Note_on_c, 0, 93, 0
2, 73658, Note_on_c, 1, 69, 0
2, 73664, Note_on_c, 0, 83, 69
2, 73664, Note_on_c, 0, 86, 85
2, 73664, Note_on_c, 1, 71, 87
2, 73664, Note_on_c, 1, 62, 86
2, 73722, Note_on_c, 0, 83, 0
2, 73722, Note_on_c, 1, 71, 0
2, 73728, Note_on_c, 0, 81, 97
2, 73728, Note_on_c, 0, 93, 95
2, 73728, Note_on_c, 1, 69, 73
2, 73780, Note_on_c, 0, 86, 0
2, 73780, Note_on_c, 1, 62, 0
2, 73786, Note_on_c, 0, 81, 0
2, 73786, Note_on_c, 0, 93, 0
2, 73786, Note_on_c, 1, 69, 0
2, 73792, Note_on_c, 0, 85, 68
2, 73792, Note_on_c, 0, 88, 87
2, 73792, Note_on_c, 1, 73, 88
2, 73792, Note_on_c, 1, 64, 84
2, 73850, Note_on_c, 0, 85, 0
2, 73850, Note_on_c, 1, 73, 0
2, 73856, Note_on_c, 0, 81, 93
2, 73856, Note_on_c, 0, 93, 92
2, 73856, Note_on_c, 1, 71, 76
2, 73908, Note_on_c, 0, 88, 0
2, 73908, Note_on_c, 1, 64, 0
2, 73914, Note_on_c, 0, 81, 0
2, 73914, Note_on_c, 0, 93, 0
2, 73914, Note_on_c, 1, 71, 0
2, 73920, Note_on_c, 0, 88, 76
2, 73920, Note_on_c, 1, 74, 89
2, 73920, Note_on_c, 1, 65, 105
2, 73920, Note_on_c, 1, 77, 105
2, 73978, Note_on_c, 0, 88, 0
2, 73978, Note_on_c, 1, 74, 0
2, 73984, Note_on_c, 0, 81, 92
2, 73984, Note_on_c, 0, 93, 92
2, 73984, Note_on_c, 1, 69, 74
2, 74036, Note_on_c, 1, 65, 0
2, 74036, Note_on_c, 1, 77, 0
2, 74042, Note_on_c, 0, 81, 0
2, 74042, Note_on_c, 0, 93, 0
2, 74042, Note_on_c, 1, 69, 0
2, 74048, Note_on_c, 0, 85, 74
2, 74048, Note_on_c, 1, 73, 97
2, 74048, Note_on_c, 1, 64, 87
2, 74048, Note_on_c, 1, 76, 89
2, 74106, Note_on_c, 0, 85, 0
2, 74106, Note_on_c, 1, 73, 0
2, 74112, Note_on_c, 0, 81, 106
2, 74112, Note_on_c, 0, 93, 106
2, 74112, Note_on_c, 1, 69, 84
2, 74164, Note_on_c, 1, 64, 0
2, 74164, Note_on_c, 1, 76, 0
2, 74170, Note_on_c, 0, 81, 0
2, 74170, Note_on_c, 0, 93, 0
2, 74170, Note_on_c, 1, 69, 0
2, 74176, Note_on_c, 0, 86, 88
2, 74176, Note_on_c, 0, 89, 91
2, 74176, Note_on_c, 1, 74, 114
2, 74176, Note_on_c, 1, 77, 116
2, 74240, Note_on_c, 0, 81, 84
2, 74240, Note_on_c, 1, 69, 87
2, 74292, Note_on_c, 0, 86, 0
2, 74292, Note_on_c, 0, 89, 0
2, 74292, Note_on_c, 1, 74, 0
2, 74292, Note_on_c, 1, 77, 0
2, 74298, Note_on_c, 0, 81, 0
2, 74298, Note_on_c, 1, 69, 0
2, 74304, Note_on_c, 0, 85, 88
2, 74304, Note_on_c, 0, 88, 90
2, 74304, Note_on_c, 0, 79, 88
2, 74304, Note_on_c, 1, 73, 94
2, 74304, Note_on_c, 1, 76, 96
2, 74304, Note_on_c, 1, 67, 89
2, 74362, Note_on_c, 0, 79, 0
2, 74362, Note_on_c, 1, 67, 0
2, 74368, Note_on_c, 0, 81, 101
2, 74368, Note_on_c, 1, 69, 100
2, 74420, Note_on_c, 0, 85, 0
2, 74420, Note_on_c, 0, 88, 0
2, 74420, Note_on_c, 1, 73, 0
2, 74420, Note_on_c, 1, 76, 0
2, 74426, Note_on_c, 0, 81, 0
2, 74426, Note_on_c, 1, 69, 0
2, 74432, Note_on_c, 0, 82, 93
2, 74432, Note_on_c, 0, 86, 90
2, 74432, Note_on_c, 1, 70, 92
2, 74432, Note_on_c, 1, 74, 94
2, 74496, Note_on_c, 0, 77, 84
2, 74496, Note_on_c, 1, 65, 83
2, 74548, Note_on_c, 0, 82, 0
2, 74548, Note_on_c, 0, 86, 0
2, 74548, Note_on_c, 1, 70, 0
2, 74548, Note_on_c, 1, 74, 0
2, 74554, Note_on_c, 0, 77, 0
2, 74554, Note_on_c, 1, 65, 0
2, 74560, Note_on_c, 0, 81, 84
2, 74560, Note_on_c, 0, 84, 82
2, 74560, Note_on_c, 0, 76, 86
2, 74560, Note_on_c, 1, 69, 84
2, 74560, Note_on_c, 1, 72, 86
2, 74560, Note_on_c, 1, 64, 86
2, 74618, Note_on_c, 0, 76, 0
2, 74618, Note_on_c, 1, 64, 0
2, 74624, Note_on_c, 0, 78, 95
2, 74624, Note_on_c, 1, 66, 93
2, 74676, Note_on_c, 0, 81, 0
2, 74676, Note_on_c, 0, 84, 0
2, 74676, Note_on_c, 1, 69, 0
2, 74676, Note_on_c, 1, 72, 0
2, 74682, Note_on_c, 0, 78, 0
2, 74682, Note_on_c, 1, 66, 0
2, 74688, Note_on_c, 0, 79, 109
2, 74688, Note_on_c, 0, 82, 109
2, 74688, Note_on_c, 1, 67, 83
2, 74688, Note_on_c, 1, 70, 84
2, 74752, Note_on_c, 0, 74, 76
2, 74752, Note_on_c, 1, 62, 75
2, 74804, Note_on_c, 0, 79, 0
2, 74804, Note_on_c, 0, 82, 0
2, 74804, Note_on_c, 1, 67, 0
2, 74804, Note_on_c, 1, 70, 0
2, 74810, Note_on_c, 0, 74, 0
2, 74810, Note_on_c, 1, 62, 0
2, 74816, Note_on_c, 0, 78, 80
2, 74816, Note_on_c, 0, 81, 81
2, 74816, Note_on_c, 0, 72, 75
2, 74816, Note_on_c, 1, 66, 78
2, 74816, Note_on_c, 1, 69, 79
2, 74816, Note_on_c, 1, 60, 74
2, 74874, Note_on_c, 0, 72, 0
2, 74874, Note_on_c, 1, 60, 0
2, 74880, Note_on_c, 0, 74, 84
2, 74880, Note_on_c, 1, 62, 83
2, 74932, Note_on_c, 0, 78, 0
2, 74932, Note_on_c, 0, 81, 0
2, 74932, Note_on_c, 1, 66, 0
2, 74932, Note_on_c, 1, 69, 0
2, 74938, Note_on_c, 0, 74, 0
2, 74938, Note_on_c, 1, 62, 0
2, 74944, Note_on_c, 0, 79, 75
2, 74944, Note_on_c, 0, 70, 75
2, 74944, Note_on_c, 1, 67, 72
2, 74944, Note_on_c, 1, 58, 72
2, 75002, Note_on_c, 0, 70, 0
2, 75002, Note_on_c, 1, 58, 0
2, 75008, Note_on_c, 0, 69, 71
2, 75008, Note_on_c, 1, 60, 79
2, 75060, Note_on_c, 0, 79, 0
2, 75060, Note_on_c, 1, 67, 0
2, 75066, Note_on_c, 0, 69, 0
2, 75066, Note_on_c, 1, 60, 0
2, 75072, Note_on_c, 0, 67, 63
2, 75072, Note_on_c, 1, 58, 65
2, 75130, Note_on_c, 0, 67, 0
2, 75130, Note_on_c, 1, 58, 0
2, 75136, Note_on_c, 0, 65, 57
2, 75136, Note_on_c, 1, 57, 60
2, 75194, Note_on_c, 0, 65, 0
2, 75194, Note_on_c, 1, 57, 0
2, 75200, Note_on_c, 0, 64, 57
2, 75200, Note_on_c, 1, 55, 56
2, 75258, Note_on_c, 0, 64, 0
2, 75258, Note_on_c, 1, 55, 0
2, 75264, Note_on_c, 0, 62, 48
2, 75264, Note_on_c, 1, 53, 49
2, 75322, Note_on_c, 0, 62, 0
2, 75322, Note_on_c, 1, 53, 0
2, 75328, Note_on_c, 0, 61, 44
2, 75328, Note_on_c, 1, 52, 46
2, 75386, Note_on_c, 0, 61, 0
2, 75386, Note_on_c, 1, 52, 0
2, 75392, Note_on_c, 0, 59, 38
2, 75392, Note_on_c, 1, 50, 39
2, 75450, Note_on_c, 0, 59, 0
2, 75450, Note_on_c, 1, 50, 0
2, 75456, Note_on_c, 0, 57, 38
2, 75456, Note_on_c, 1, 49, 37
2, 75514, Note_on_c, 0, 57, 0
2, 75514, Note_on_c, 1, 49, 0
2, 75520, Note_on_c, 1, 45, 34
2, 75578, Note_on_c, 1, 45, 0
2, 75584, Note_on_c, 1, 49, 42
2, 75642, Note_on_c, 1, 49, 0
2, 75648, Note_on_c, 1, 52, 41
2, 75706, Note_on_c, 1, 52, 0
2, 75712, Note_on_c, 1, 55, 43
2, 75770, Note_on_c, 1, 55, 0
2, 75776, Note_on_c, 1, 58, 42
2, 75834, Note_on_c, 1, 58, 0
2, 75840, Note_on_c, 1, 55, 35
2, 75898, Note_on_c, 1, 55, 0
2, 75904, Note_on_c, 1, 52, 35
2, 75962, Note_on_c, 1, 52, 0
2, 75968, Note_on_c, 1, 49, 36
2, 76026, Note_on_c, 1, 49, 0
2, 76032, Note_on_c, 1, 45, 34
2, 76090, Note_on_c, 1, 45, 0
2, 76096, Note_on_c, 1, 49, 40
2, 76154, Note_on_c, 1, 49, 0
2, 76160, Note_on_c, 1, 52, 42
2, 76218, Note_on_c, 1, 52, 0
2, 76224, Note_on_c, 1, 55, 42
2, 76282, Note_on_c, 1, 55, 0
2, 76288, Note_on_c, 1, 58, 43
2, 76346, Note_on_c, 1, 58, 0
2, 76352, Note_on_c, 1, 55, 36
2, 76410, Note_on_c, 1, 55, 0
2, 76416, Note_on_c, 1, 52, 35
2, 76474, Note_on_c, 1, 52, 0
2, 76480, Note_on_c, 1, 50, 38
2, 76538, Note_on_c, 1, 50, 0
2, 76544, Note_on_c, 1, 45, 32
2, 76602, Note_on_c, 1, 45, 0
2, 76608, Note_on_c, 1, 50, 41
2, 76666, Note_on_c, 1, 50, 0
2, 76672, Note_on_c, 1, 53, 43
2, 76730, Note_on_c, 1, 53, 0
2, 76736, Note_on_c, 1, 57, 44
2, 76794, Note_on_c, 1, 57, 0
2, 76800, Note_on_c, 1, 62, 44
2, 76858, Note_on_c, 1, 62, 0
2, 76864, Note_on_c, 1, 57, 31
2, 76922, Note_on_c, 1, 57, 0
2, 76928, Note_on_c, 1, 53, 31
2, 76986, Note_on_c, 1, 53, 0
2, 76992, Note_on_c, 1, 50, 37
2, 77050, Note_on_c, 1, 50, 0
2, 77056, Note_on_c, 1, 45, 32
2, 77114, Note_on_c, 1, 45, 0
2, 77120, Note_on_c, 1, 50, 42
2, 77178, Note_on_c, 1, 50, 0
2, 77184, Note_on_c, 1, 53, 41
2, 77242, Note_on_c, 1, 53, 0
2, 77248, Note_on_c, 1, 57, 43
2, 77306, Note_on_c, 1, 57, 0
2, 77312, Note_on_c, 1, 62, 45
2, 77370, Note_on_c, 1, 62, 0
2, 77376, Note_on_c, 1, 57, 32
2, 77434, Note_on_c, 1, 57, 0
2, 77440, Note_on_c, 1, 53, 43
2, 77498, Note_on_c, 1, 53, 0
2, 77504, Note_on_c, 0, 61, 48
2, 77504, Control_c, 1, 64, 127
2, 77504, Note_on_c, 1, 49, 44
2, 77562, Note_on_c, 0, 61, 0
2, 77562, Note_on_c, 1, 49, 0
2, 77568, Note_on_c, 0, 57, 43
2, 77568, Note_on_c, 1, 45, 41
2, 77626, Note_on_c, 0, 57, 0
2, 77626, Note_on_c, 1, 45, 0
2, 77632, Note_on_c, 0, 61, 52
2, 77632, Note_on_c, 1, 49, 51
2, 77690, Note_on_c, 0, 61, 0
2, 77690, Note_on_c, 1, 49, 0
2, 77696, Note_on_c, 0, 64, 52
2, 77696, Note_on_c, 1, 52, 53
2, 77754, Note_on_c, 0, 64, 0
2, 77754, Note_on_c, 1, 52, 0
2, 77760, Note_on_c, 0, 67, 56
2, 77760, Note_on_c, 1, 55, 54
2, 77818, Note_on_c, 0, 67, 0
2, 77818, Note_on_c, 1, 55, 0
2, 77824, Note_on_c, 0, 70, 53
2, 77824, Control_c, 1, 64, 0
2, 77824, Note_on_c, 1, 58, 53
2, 77882, Note_on_c, 0, 70, 0
2, 77882, Note_on_c, 1, 58, 0
2, 77888, Note_on_c, 0, 67, 45
2, 77888, Note_on_c, 1, 55, 45
2, 77946, Note_on_c, 0, 67, 0
2, 77946, Note_on_c, 1, 55, 0
2, 77952, Note_on_c, 0, 64, 41
2, 77952, Note_on_c, 1, 52, 41
2, 78010, Note_on_c, 0, 64, 0
2, 78010, Note_on_c, 1, 52, 0
2, 78016, Note_on_c, 0, 61, 46
2, 78016, Control_c, 1, 64, 127
2, 78016, Note_on_c, 1, 49, 46
2, 78074, Note_on_c, 0, 61, 0
2, 78074, Note_on_c, 1, 49, 0
2, 78080, Note_on_c, 0, 57, 40
2, 78080, Note_on_c, 1, 45, 44
2, 78138, Note_on_c, 0, 57, 0
2, 78138, Note_on_c, 1, 45, 0
2, 78144, Note_on_c, 0, 61, 54
2, 78144, Note_on_c, 1, 49, 53
2, 78202, Note_on_c, 0, 61, 0
2, 78202, Note_on_c, 1, 49, 0
2, 78208, Note_on_c, 0, 64, 52
2, 78208, Note_on_c, 1, 52, 50
2, 78266, Note_on_c, 0, 64, 0
2, 78266, Note_on_c, 1, 52, 0
2, 78272, Note_on_c, 0, 67, 57
2, 78272, Note_on_c, 1, 55, 53
2, 78330, Note_on_c, 0, 67, 0
2, 78330, Note_on_c, 1, 55, 0
2, 78336, Note_on_c, 0, 70, 54
2, 78336, Control_c, 1, 64, 0
2, 78336, Note_on_c, 1, 58, 51
2, 78394, Note_on_c, 0, 70, 0
2, 78394, Note_on_c, 1, 58, 0
2, 78400, Note_on_c, 0, 67, 46
2, 78400, Note_on_c, 1, 55, 44
2, 78458, Note_on_c, 0, 67, 0
2, 78458, Note_on_c, 1, 55, 0
2, 78464, Note_on_c, 0, 64, 44
2, 78464, Note_on_c, 1, 52, 42
2, 78522, Note_on_c, 0, 64, 0
2, 78522, Note_on_c, 1, 52, 0
2, 78528, Note_on_c, 0, 62, 48
2, 78528, Control_c, 1, 64, 127
2, 78528, Note_on_c, 1, 50, 46
2, 78586, Note_on_c, 0, 62, 0
2, 78586, Note_on_c, 1, 50, 0
2, 78592, Note_on_c, 0, 57, 42
2, 78592, Note_on_c, 1, 45, 39
2, 78650, Note_on_c, 0, 57, 0
2, 78650, Note_on_c, 1, 45, 0
2, 78656, Note_on_c, 0, 62, 54
2, 78656, Note_on_c, 1, 50, 55
2, 78714, Note_on_c, 0, 62, 0
2, 78714, Note_on_c, 1, 50, 0
2, 78720, Note_on_c, 0, 65, 50
2, 78720, Note_on_c, 1, 53, 53
2, 78778, Note_on_c, 0, 65, 0
2, 78778, Note_on_c, 1, 53, 0
2, 78784, Note_on_c, 0, 69, 55
2, 78784, Note_on_c, 1, 57, 55
2, 78842, Note_on_c, 0, 69, 0
2, 78842, Note_on_c, 1, 57, 0
2, 78848, Note_on_c, 0, 74, 54
2, 78848, Control_c, 1, 64, 0
2, 78848, Note_on_c, 1, 62, 57
2, 78906, Note_on_c, 0, 74, 0
2, 78906, Note_on_c, 1, 62, 0
2, 78912, Note_on_c, 0, 69, 44
2, 78912, Note_on_c, 1, 57, 42
2, 78970, Note_on_c, 0, 69, 0
2, 78970, Note_on_c, 1, 57, 0
2, 78976, Note_on_c, 0, 65, 42
2, 78976, Note_on_c, 1, 53, 43
2, 79034, Note_on_c, 0, 65, 0
2, 79034, Note_on_c, 1, 53, 0
2, 79040, Note_on_c, 0, 62, 44
2, 79040, Control_c, 1, 64, 127
2, 79040, Note_on_c, 1, 50, 45
2, 79098, Note_on_c, 0, 62, 0
2, 79098, Note_on_c, 1, 50, 0
2, 79104, Note_on_c, 0, 57, 40
2, 79104, Note_on_c, 1, 45, 38
2, 79162, Note_on_c, 0, 57, 0
2, 79162, Note_on_c, 1, 45, 0
2, 79168, Note_on_c, 0, 62, 54
2, 79168, Note_on_c, 1, 50, 51
2, 79226, Note_on_c, 0, 62, 0
2, 79226, Note_on_c, 1, 50, 0
2, 79232, Note_on_c, 0, 65, 51
2, 79232, Note_on_c, 1, 53, 53
2, 79290, Note_on_c, 0, 65, 0
2, 79290, Note_on_c, 1, 53, 0
2, 79296, Note_on_c, 0, 69, 57
2, 79296, Note_on_c, 1, 57, 57
2, 79354, Note_on_c, 0, 69, 0
2, 79354, Note_on_c, 1, 57, 0
2, 79360, Note_on_c, 0, 74, 56
2, 79360, Control_c, 1, 64, 0
2, 79360, Note_on_c, 1, 62, 55
2, 79418, Note_on_c, 0, 74, 0
2, 79418, Note_on_c, 1, 62, 0
2, 79424, Note_on_c, 0, 69, 43
2, 79424, Note_on_c, 1, 57, 42
2, 79482, Note_on_c, 0, 69, 0
2, 79482, Note_on_c, 1, 57, 0
2, 79488, Note_on_c, 0, 65, 40
2, 79488, Note_on_c, 1, 53, 43
2, 79546, Note_on_c, 0, 65, 0
2, 79546, Note_on_c, 1, 53, 0
2, 79552, Note_on_c, 1, 52, 45
2, 79610, Note_on_c, 1, 52, 0
2, 79616, Note_on_c, 1, 49, 44
2, 79674, Note_on_c, 1, 49, 0
2, 79680, Note_on_c, 1, 52, 50
2, 79738, Note_on_c, 1, 52, 0
2, 79744, Note_on_c, 1, 55, 51
2, 79802, Note_on_c, 1, 55, 0
2, 79808, Note_on_c, 1, 58, 55
2, 79866, Note_on_c, 1, 58, 0
2, 79872, Note_on_c, 1, 61, 53
2, 79930, Note_on_c, 1, 61, 0
2, 79936, Note_on_c, 1, 58, 43
2, 79994, Note_on_c, 1, 58, 0
2, 80000, Note_on_c, 1, 55, 44
2, 80058, Note_on_c, 1, 55, 0
2, 80064, Note_on_c, 1, 52, 45
2, 80122, Note_on_c, 1, 52, 0
2, 80128, Note_on_c, 1, 49, 43
2, 80186, Note_on_c, 1, 49, 0
2, 80192, Note_on_c, 1, 52, 50
2, 80250, Note_on_c, 1, 52, 0
2, 80256, Note_on_c, 1, 55, 53
2, 80314, Note_on_c, 1, 55, 0
2, 80320, Note_on_c, 1, 58, 55
2, 80378, Note_on_c, 1, 58, 0
2, 80384, Note_on_c, 1, 61, 52
2, 80442, Note_on_c, 1, 61, 0
2, 80448, Note_on_c, 1, 58, 42
2, 80506, Note_on_c, 1, 58, 0
2, 80512, Note_on_c, 1, 55, 45
2, 80570, Note_on_c, 1, 55, 0
2, 80576, Note_on_c, 1, 53, 48
2, 80634, Note_on_c, 1, 53, 0
2, 80640, Note_on_c, 1, 50, 41
2, 80698, Note_on_c, 1, 50, 0
2, 80704, Note_on_c, 1, 53, 51
2, 80762, Note_on_c, 1, 53, 0
2, 80768, Note_on_c, 1, 57, 52
2, 80826, Note_on_c, 1, 57, 0
2, 80832, Note_on_c, 1, 62, 60
2, 80890, Note_on_c, 1, 62, 0
2, 80896, Note_on_c, 1, 65, 51
2, 80954, Note_on_c, 1, 65, 0
2, 80960, Note_on_c, 1, 62, 45
2, 81018, Note_on_c, 1, 62, 0
2, 81024, Note_on_c, 1, 57, 39
2, 81082, Note_on_c, 1, 57, 0
2, 81088, Note_on_c, 1, 53, 44
2, 81146, Note_on_c, 1, 53, 0
2, 81152, Note_on_c, 1, 50, 41
2, 81210, Note_on_c, 1, 50, 0
2, 81216, Note_on_c, 1, 53, 51
2, 81274, Note_on_c, 1, 53, 0
2, 81280, Note_on_c, 1, 57, 55
2, 81338, Note_on_c, 1, 57, 0
2, 81344, Note_on_c, 1, 62, 56
2, 81402, Note_on_c, 1, 62, 0
2, 81408, Note_on_c, 1, 65, 53
2, 81466, Note_on_c, 1, 65, 0
2, 81472, Note_on_c, 1, 62, 45
2, 81530, Note_on_c, 1, 62, 0
2, 81536, Control_c, 1, 64, 127
2, 81536, Note_on_c, 1, 57, 41
2, 81594, Note_on_c, 1, 57, 0
2, 81600, Note_on_c, 0, 64, 58
2, 81600, Note_on_c, 1, 52, 57
2, 81658, Note_on_c, 0, 64, 0
2, 81658, Note_on_c, 1, 52, 0
2, 81664, Note_on_c, 0, 61, 57
2, 81664, Note_on_c, 1, 49, 56
2, 81722, Note_on_c, 0, 61, 0
2, 81722, Note_on_c, 1, 49, 0
2, 81728, Note_on_c, 0, 64, 68
2, 81728, Note_on_c, 1, 52, 67
2, 81786, Note_on_c, 0, 64, 0
2, 81786, Note_on_c, 1, 52, 0
2, 81792, Note_on_c, 0, 67, 70
2, 81792, Note_on_c, 1, 55, 67
2, 81850, Note_on_c, 0, 67, 0
2, 81850, Note_on_c, 1, 55, 0
2, 81856, Note_on_c, 0, 70, 74
2, 81856, Control_c, 1, 64, 0
2, 81856, Note_on_c, 1, 58, 71
2, 81914, Note_on_c, 0, 70, 0
2, 81914, Note_on_c, 1, 58, 0
2, 81920, Note_on_c, 0, 73, 69
2, 81920, Note_on_c, 1, 61, 69
2, 81978, Note_on_c, 0, 73, 0
2, 81978, Note_on_c, 1, 61, 0
2, 81984, Note_on_c, 0, 70, 58
2, 81984, Note_on_c, 1, 58, 58
2, 82042, Note_on_c, 0, 70, 0
2, 82042, Note_on_c, 1, 58, 0
2, 82048, Note_on_c, 0, 67, 59
2, 82048, Note_on_c, 1, 55, 57
2, 82106, Note_on_c, 0, 67, 0
2, 82106, Note_on_c, 1, 55, 0
2, 82112, Note_on_c, 0, 64, 60
2, 82112, Control_c, 1, 64, 127
2, 82112, Note_on_c, 1, 52, 59
2, 82170, Note_on_c, 0, 64, 0
2, 82170, Note_on_c, 1, 52, 0
2, 82176, Note_on_c, 0, 61, 57
2, 82176, Note_on_c, 1, 49, 54
2, 82234, Note_on_c, 0, 61, 0
2, 82234, Note_on_c, 1, 49, 0
2, 82240, Note_on_c, 0, 64, 66
2, 82240, Note_on_c, 1, 52, 69
2, 82298, Note_on_c, 0, 64, 0
2, 82298, Note_on_c, 1, 52, 0
2, 82304, Note_on_c, 0, 67, 66
2, 82304, Note_on_c, 1, 55, 67
2, 82362, Note_on_c, 0, 67, 0
2, 82362, Note_on_c, 1, 55, 0
2, 82368, Note_on_c, 0, 70, 70
2, 82368, Note_on_c, 1, 58, 70
2, 82426, Note_on_c, 0, 70, 0
2, 82426, Note_on_c, 1, 58, 0
2, 82432, Note_on_c, 0, 73, 68
2, 82432, Control_c, 1, 64, 0
2, 82432, Note_on_c, 1, 61, 68
2, 82490, Note_on_c, 0, 73, 0
2, 82490, Note_on_c, 1, 61, 0
2, 82496, Note_on_c, 0, 70, 60
2, 82496, Note_on_c, 1, 58, 59
2, 82554, Note_on_c, 0, 70, 0
2, 82554, Note_on_c, 1, 58, 0
2, 82560, Note_on_c, 0, 67, 58
2, 82560, Note_on_c, 1, 55, 57
2, 82618, Note_on_c, 0, 67, 0
2, 82618, Note_on_c, 1, 55, 0
2, 82624, Note_on_c, 0, 65, 62
2, 82624, Control_c, 1, 64, 127
2, 82624, Note_on_c, 1, 53, 62
2, 82682, Note_on_c, 0, 65, 0
2, 82682, Note_on_c, 1, 53, 0
2, 82688, Note_on_c, 0, 62, 57
2, 82688, Note_on_c, 1, 50, 56
2, 82746, Note_on_c, 0, 62, 0
2, 82746, Note_on_c, 1, 50, 0
2, 82752, Note_on_c, 0, 65, 67
2, 82752, Note_on_c, 1, 53, 66
2, 82810, Note_on_c, 0, 65, 0
2, 82810, Note_on_c, 1, 53, 0
2, 82816, Note_on_c, 0, 69, 69
2, 82816, Note_on_c, 1, 57, 71
2, 82874, Note_on_c, 0, 69, 0
2, 82874, Note_on_c, 1, 57, 0
2, 82880, Note_on_c, 0, 74, 75
2, 82880, Note_on_c, 1, 62, 76
2, 82938, Note_on_c, 0, 74, 0
2, 82938, Note_on_c, 1, 62, 0
2, 82944, Note_on_c, 0, 77, 69
2, 82944, Control_c, 1, 64, 0
2, 82944, Note_on_c, 1, 65, 70
2, 83002, Note_on_c, 0, 77, 0
2, 83002, Note_on_c, 1, 65, 0
2, 83008, Note_on_c, 0, 74, 59
2, 83008, Note_on_c, 1, 62, 60
2, 83066, Note_on_c, 0, 74, 0
2, 83066, Note_on_c, 1, 62, 0
2, 83072, Note_on_c, 0, 69, 53
2, 83072, Note_on_c, 1, 57, 54
2, 83130, Note_on_c, 0, 69, 0
2, 83130, Note_on_c, 1, 57, 0
2, 83136, Note_on_c, 0, 65, 56
2, 83136, Control_c, 1, 64, 127
2, 83136, Note_on_c, 1, 53, 59
2, 83194, Note_on_c, 0, 65, 0
2, 83194, Note_on_c, 1, 53, 0
2, 83200, Note_on_c, 0, 62, 55
2, 83200, Note_on_c, 1, 50, 56
2, 83258, Note_on_c, 0, 62, 0
2, 83258, Note_on_c, 1, 50, 0
2, 83264, Note_on_c, 0, 65, 69
2, 83264, Note_on_c, 1, 53, 65
2, 83322, Note_on_c, 0, 65, 0
2, 83322, Note_on_c, 1, 53, 0
2, 83328, Note_on_c, 0, 69, 72
2, 83328, Note_on_c, 1, 57, 68
2, 83386, Note_on_c, 0, 69, 0
2, 83386, Note_on_c, 1, 57, 0
2, 83392, Note_on_c, 0, 74, 73
2, 83392, Note_on_c, 1, 62, 74
2, 83450, Note_on_c, 0, 74, 0
2, 83450, Note_on_c, 1, 62, 0
2, 83456, Note_on_c, 0, 77, 71
2, 83456, Control_c, 1, 64, 0
2, 83456, Note_on_c, 1, 65, 67
2, 83514, Note_on_c, 0, 77, 0
2, 83514, Note_on_c, 1, 65, 0
2, 83520, Note_on_c, 0, 74, 56
2, 83520, Note_on_c, 1, 62, 57
2, 83578, Note_on_c, 0, 74, 0
2, 83578, Note_on_c, 1, 62, 0
2, 83584, Note_on_c, 0, 69, 53
2, 83584, Note_on_c, 1, 57, 55
2, 83642, Note_on_c, 0, 69, 0
2, 83642, Note_on_c, 1, 57, 0
2, 83648, Note_on_c, 0, 67, 59
2, 83648, Control_c, 1, 64, 127
2, 83648, Note_on_c, 1, 55, 62
2, 83706, Note_on_c, 0, 67, 0
2, 83706, Note_on_c, 1, 55, 0
2, 83712, Note_on_c, 0, 64, 56
2, 83712, Note_on_c, 1, 52, 57
2, 83770, Note_on_c, 0, 64, 0
2, 83770, Note_on_c, 1, 52, 0
2, 83776, Note_on_c, 0, 67, 68
2, 83776, Note_on_c, 1, 55, 69
2, 83834, Note_on_c, 0, 67, 0
2, 83834, Note_on_c, 1, 55, 0
2, 83840, Note_on_c, 0, 70, 66
2, 83840, Note_on_c, 1, 58, 66
2, 83898, Note_on_c, 0, 70, 0
2, 83898, Note_on_c, 1, 58, 0
2, 83904, Note_on_c, 0, 73, 70
2, 83904, Note_on_c, 1, 61, 73
2, 83962, Note_on_c, 0, 73, 0
2, 83962, Note_on_c, 1, 61, 0
2, 83968, Note_on_c, 0, 76, 69
2, 83968, Control_c, 1, 64, 0
2, 83968, Note_on_c, 1, 64, 69
2, 84026, Note_on_c, 0, 76, 0
2, 84026, Note_on_c, 1, 64, 0
2, 84032, Note_on_c, 0, 73, 57
2, 84032, Note_on_c, 1, 61, 56
2, 84090, Note_on_c, 0, 73, 0
2, 84090, Note_on_c, 1, 61, 0
2, 84096, Note_on_c, 0, 70, 56
2, 84096, Note_on_c, 1, 58, 55
2, 84154, Note_on_c, 0, 70, 0
2, 84154, Note_on_c, 1, 58, 0
2, 84160, Note_on_c, 0, 67, 60
2, 84160, Control_c, 1, 64, 127
2, 84160, Note_on_c, 1, 55, 59
2, 84218, Note_on_c, 0, 67, 0
2, 84218, Note_on_c, 1, 55, 0
2, 84224, Note_on_c, 0, 64, 57
2, 84224, Note_on_c, 1, 52, 56
2, 84282, Note_on_c, 0, 64, 0
2, 84282, Note_on_c, 1, 52, 0
2, 84288, Note_on_c, 0, 67, 67
2, 84288, Note_on_c, 1, 55, 67
2, 84346, Note_on_c, 0, 67, 0
2, 84346, Note_on_c, 1, 55, 0
2, 84352, Note_on_c, 0, 70, 70
2, 84352, Note_on_c, 1, 58, 68
2, 84410, Note_on_c, 0, 70, 0
2, 84410, Note_on_c, 1, 58, 0
2, 84416, Note_on_c, 0, 73, 73
2, 84416, Note_on_c, 1, 61, 73
2, 84474, Note_on_c, 0, 73, 0
2, 84474, Note_on_c, 1, 61, 0
2, 84480, Note_on_c, 0, 76, 68
2, 84480, Control_c, 1, 64, 0
2, 84480, Note_on_c, 1, 64, 67
2, 84538, Note_on_c, 0, 76, 0
2, 84538, Note_on_c, 1, 64, 0
2, 84544, Note_on_c, 0, 73, 58
2, 84544, Note_on_c, 1, 61, 58
2, 84602, Note_on_c, 0, 73, 0
2, 84602, Note_on_c, 1, 61, 0
2, 84608, Note_on_c, 0, 70, 57
2, 84608, Note_on_c, 1, 58, 55
2, 84666, Note_on_c, 0, 70, 0
2, 84666, Note_on_c, 1, 58, 0
2, 84672, Note_on_c, 0, 69, 63
2, 84672, Note_on_c, 1, 57, 63
2, 84730, Note_on_c, 0, 69, 0
2, 84730, Note_on_c, 1, 57, 0
2, 84736, Note_on_c, 0, 77, 75
2, 84736, Note_on_c, 1, 53, 73
2, 84736, Note_on_c, 1, 65, 73
2, 84794, Note_on_c, 0, 77, 0
2, 84794, Note_on_c, 1, 53, 0
2, 84794, Note_on_c, 1, 65, 0
2, 84800, Note_on_c, 0, 81, 69
2, 84800, Note_on_c, 1, 57, 51
2, 84858, Note_on_c, 0, 81, 0
2, 84858, Note_on_c, 1, 57, 0
2, 84864, Note_on_c, 0, 85, 70
2, 84864, Note_on_c, 1, 61, 67
2, 84922, Note_on_c, 0, 85, 0
2, 84922, Note_on_c, 1, 61, 0
2, 84928, Note_on_c, 0, 86, 71
2, 84928, Note_on_c, 1, 62, 69
2, 84986, Note_on_c, 0, 86, 0
2, 84986, Note_on_c, 1, 62, 0
2, 84992, Note_on_c, 0, 89, 67
2, 84992, Note_on_c, 1, 65, 67
2, 85050, Note_on_c, 0, 89, 0
2, 85050, Note_on_c, 1, 65, 0
2, 85056, Note_on_c, 0, 86, 57
2, 85056, Note_on_c, 1, 62, 60
2, 85114, Note_on_c, 0, 86, 0
2, 85114, Note_on_c, 1, 62, 0
2, 85120, Note_on_c, 0, 81, 53
2, 85120, Note_on_c, 1, 57, 74
2, 85120, Note_on_c, 1, 69, 72
2, 85178, Note_on_c, 0, 81, 0
2, 85178, Note_on_c, 1, 57, 0
2, 85178, Note_on_c, 1, 69, 0
2, 85184, Note_on_c, 0, 82, 66
2, 85184, Control_c, 1, 64, 127
2, 85184, Note_on_c, 1, 70, 69
2, 85184, Note_on_c, 1, 58, 59
2, 85242, Note_on_c, 0, 82, 0
2, 85242, Note_on_c, 1, 58, 0
2, 85248, Note_on_c, 0, 74, 67
2, 85248, Note_on_c, 0, 86, 68
2, 85248, Note_on_c, 1, 62, 68
2, 85306, Note_on_c, 0, 74, 0
2, 85306, Note_on_c, 0, 86, 0
2, 85306, Note_on_c, 1, 62, 0
2, 85312, Note_on_c, 0, 82, 56
2, 85312, Note_on_c, 1, 58, 59
2, 85357, Note_on_c, 1, 70, 0
2, 85370, Note_on_c, 0, 82, 0
2, 85370, Note_on_c, 1, 58, 0
2, 85376, Note_on_c, 0, 79, 57
2, 85376, Note_on_c, 1, 67, 57
2, 85376, Note_on_c, 1, 55, 55
2, 85434, Note_on_c, 0, 79, 0
2, 85434, Note_on_c, 1, 67, 0
2, 85434, Note_on_c, 1, 55, 0
2, 85440, Note_on_c, 0, 77, 60
2, 85440, Control_c, 1, 64, 127
2, 85440, Control_c, 1, 64, 0
2, 85440, Note_on_c, 1, 65, 59
2, 85440, Note_on_c, 1, 53, 60
2, 85498, Note_on_c, 0, 77, 0
2, 85498, Note_on_c, 1, 53, 0
2, 85504, Note_on_c, 0, 69, 67
2, 85504, Note_on_c, 0, 81, 69
2, 85504, Note_on_c, 1, 57, 67
2, 85562, Note_on_c, 0, 69, 0
2, 85562, Note_on_c, 0, 81, 0
2, 85562, Note_on_c, 1, 57, 0
2, 85568, Note_on_c, 0, 77, 57
2, 85568, Note_on_c, 1, 53, 55
2, 85613, Note_on_c, 1, 65, 0
2, 85626, Note_on_c, 0, 77, 0
2, 85626, Note_on_c, 1, 53, 0
2, 85632, Note_on_c, 0, 74, 56
2, 85632, Note_on_c, 1, 62, 56
2, 85632, Note_on_c, 1, 50, 55
2, 85690, Note_on_c, 0, 74, 0
2, 85690, Note_on_c, 1, 62, 0
2, 85690, Note_on_c, 1, 50, 0
2, 85696, Note_on_c, 0, 69, 55
2, 85696, Control_c, 1, 64, 127
2, 85696, Control_c, 1, 64, 0
2, 85696, Note_on_c, 1, 57, 57
2, 85696, Note_on_c, 1, 45, 57
2, 85754, Note_on_c, 0, 69, 0
2, 85754, Note_on_c, 1, 45, 0
2, 85760, Note_on_c, 0, 62, 71
2, 85760, Note_on_c, 0, 74, 70
2, 85760, Note_on_c, 1, 50, 68
2, 85812, Note_on_c, 1, 57, 0
2, 85818, Note_on_c, 0, 62, 0
2, 85818, Note_on_c, 0, 74, 0
2, 85818, Note_on_c, 1, 50, 0
2, 85824, Note_on_c, 0, 69, 55
2, 85824, Note_on_c, 1, 45, 56
2, 85882, Note_on_c, 0, 69, 0
2, 85882, Note_on_c, 1, 45, 0
2, 85888, Note_on_c, 0, 65, 54
2, 85888, Control_c, 1, 64, 0
2, 85888, Note_on_c, 1, 41, 56
2, 85946, Note_on_c, 0, 65, 0
2, 85946, Note_on_c, 1, 41, 0
2, 85952, Note_on_c, 0, 62, 60
2, 85952, Control_c, 1, 64, 127
2, 85952, Note_on_c, 1, 38, 58
2, 86010, Note_on_c, 0, 62, 0
2, 86010, Note_on_c, 1, 38, 0
2, 86016, Note_on_c, 0, 74, 79
2, 86016, Note_on_c, 1, 50, 80
2, 86074, Note_on_c, 0, 74, 0
2, 86074, Note_on_c, 1, 50, 0
2, 86080, Note_on_c, 0, 73, 63
2, 86080, Note_on_c, 1, 49, 62
2, 86138, Note_on_c, 0, 73, 0
2, 86138, Note_on_c, 1, 49, 0
2, 86144, Note_on_c, 0, 71, 59
2, 86144, Note_on_c, 1, 47, 58
2, 86202, Note_on_c, 0, 71, 0
2, 86202, Note_on_c, 1, 47, 0
2, 86208, Note_on_c, 0, 73, 68
2, 86208, Note_on_c, 1, 49, 59
2, 86208, Note_on_c, 1, 61, 59
2, 86240, Note_on_c, 0, 73, 0
2, 86240, Note_on_c, 1, 49, 0
2, 86240, Note_on_c, 1, 61, 0
2, 86272, Note_on_c, 0, 70, 76
2, 86272, Note_on_c, 0, 82, 79
2, 86272, Control_c, 1, 64, 0
2, 86272, Note_on_c, 1, 58, 57
2, 86330, Note_on_c, 0, 70, 0
2, 86330, Note_on_c, 0, 82, 0
2, 86330, Note_on_c, 1, 58, 0
2, 86336, Note_on_c, 0, 69, 62
2, 86336, Note_on_c, 0, 81, 62
2, 86336, Note_on_c, 1, 57, 57
2, 86394, Note_on_c, 0, 69, 0
2, 86394, Note_on_c, 0, 81, 0
2, 86394, Note_on_c, 1, 57, 0
2, 86400, Note_on_c, 0, 67, 59
2, 86400, Note_on_c, 0, 79, 57
2, 86400, Note_on_c, 1, 55, 60
2, 86458, Note_on_c, 0, 67, 0
2, 86458, Note_on_c, 0, 79, 0
2, 86458, Note_on_c, 1, 55, 0
2, 86464, Note_on_c, 0, 65, 62
2, 86464, Note_on_c, 0, 77, 59
2, 86464, Note_on_c, 1, 53, 63
2, 86496, Note_on_c, 0, 65, 0
2, 86496, Note_on_c, 0, 77, 0
2, 86496, Note_on_c, 1, 53, 0
2, 86528, Note_on_c, 0, 67, 64
2, 86528, Note_on_c, 0, 79, 67
2, 86528, Note_on_c, 1, 55, 66
2, 86586, Note_on_c, 0, 67, 0
2, 86586, Note_on_c, 0, 79, 0
2, 86586, Note_on_c, 1, 55, 0
2, 86592, Note_on_c, 0, 65, 59
2, 86592, Note_on_c, 0, 77, 60
2, 86592, Note_on_c, 1, 53, 59
2, 86650, Note_on_c, 0, 65, 0
2, 86650, Note_on_c, 0, 77, 0
2, 86650, Note_on_c, 1, 53, 0
2, 86656, Note_on_c, 0, 64, 58
2, 86656, Note_on_c, 0, 76, 59
2, 86656, Note_on_c, 1, 52, 58
2, 86714, Note_on_c, 0, 64, 0
2, 86714, Note_on_c, 0, 76, 0
2, 86714, Note_on_c, 1, 52, 0
2, 86720, Note_on_c, 0, 62, 59
2, 86720, Note_on_c, 0, 74, 59
2, 86720, Note_on_c, 1, 50, 60
2, 86778, Note_on_c, 0, 62, 0
2, 86778, Note_on_c, 0, 74, 0
2, 86778, Note_on_c, 1, 50, 0
2, 86784, Note_on_c, 0, 70, 56
2, 86784, Note_on_c, 1, 46, 75
2, 86784, Note_on_c, 1, 58, 76
2, 86816, Note_on_c, 0, 70, 0
2, 86816, Note_on_c, 1, 46, 0
2, 86816, Note_on_c, 1, 58, 0
2, 86848, Note_on_c, 0, 69, 60
2, 86848, Note_on_c, 1, 45, 62
2, 86848, Note_on_c, 1, 57, 61
2, 86880, Note_on_c, 0, 69, 0
2, 86880, Note_on_c, 1, 45, 0
2, 86880, Note_on_c, 1, 57, 0
2, 86912, Note_on_c, 0, 67, 60
2, 86912, Note_on_c, 1, 43, 58
2, 86912, Note_on_c, 1, 55, 58
2, 86944, Note_on_c, 0, 67, 0
2, 86944, Note_on_c, 1, 43, 0
2, 86944, Note_on_c, 1, 55, 0
2, 86976, Note_on_c, 0, 65, 62
2, 86976, Note_on_c, 1, 41, 59
2, 86976, Note_on_c, 1, 53, 60
2, 87008, Note_on_c, 0, 65, 0
2, 87008, Note_on_c, 1, 41, 0
2, 87008, Note_on_c, 1, 53, 0
2, 87040, Note_on_c, 0, 67, 65
2, 87040, Note_on_c, 1, 43, 64
2, 87040, Note_on_c, 1, 55, 68
2, 87072, Note_on_c, 0, 67, 0
2, 87072, Note_on_c, 1, 43, 0
2, 87072, Note_on_c, 1, 55, 0
2, 87104, Note_on_c, 0, 65, 60
2, 87104, Note_on_c, 1, 41, 60
2, 87104, Note_on_c, 1, 53, 58
2, 87136, Note_on_c, 0, 65, 0
2, 87136, Note_on_c, 1, 41, 0
2, 87136, Note_on_c, 1, 53, 0
2, 87168, Note_on_c, 0, 64, 59
2, 87168, Note_on_c, 1, 40, 59
2, 87168, Note_on_c, 1, 52, 60
2, 87200, Note_on_c, 0, 64, 0
2, 87200, Note_on_c, 1, 40, 0
2, 87200, Note_on_c, 1, 52, 0
2, 87232, Note_on_c, 0, 62, 61
2, 87232, Note_on_c, 1, 50, 61
2, 87232, Note_on_c, 1, 38, 51
2, 87290, Note_on_c, 0, 62, 0
2, 87290, Note_on_c, 1, 50, 0
2, 87290, Note_on_c, 1, 38, 0
2, 87296, Note_on_c, 0, 64, 66
2, 87296, Note_on_c, 1, 40, 64
2, 87325, Note_on_c, 0, 64, 0
2, 87325, Note_on_c, 1, 40, 0
2, 87328, Note_on_c, 0, 65, 70
2, 87328, Note_on_c, 1, 41, 74
2, 87357, Note_on_c, 0, 65, 0
2, 87357, Note_on_c, 1, 41, 0
2, 87360, Note_on_c, 0, 67, 72
2, 87360, Note_on_c, 1, 43, 79
2, 87389, Note_on_c, 0, 67, 0
2, 87389, Note_on_c, 1, 43, 0
2, 87392, Note_on_c, 0, 69, 78
2, 87392, Note_on_c, 1, 45, 89
2, 87421, Note_on_c, 0, 69, 0
2, 87421, Note_on_c, 1, 45, 0
2, 87424, Note_on_c, 0, 71, 81
2, 87424, Note_on_c, 1, 47, 96
2, 87453, Note_on_c, 0, 71, 0
2, 87453, Note_on_c, 1, 47, 0
2, 87456, Note_on_c, 0, 73, 86
2, 87456, Note_on_c, 1, 49, 102
2, 87485, Note_on_c, 0, 73, 0
2, 87485, Note_on_c, 1, 49, 0
2, 87488, Note_on_c, 0, 74, 89
2, 87488, Note_on_c, 1, 50, 105
2, 87546, Note_on_c, 0, 74, 0
2, 87546, Note_on_c, 1, 50, 0
2, 87552, Note_on_c, 0, 77, 85
2, 87552, Note_on_c, 1, 53, 106
2, 87610, Note_on_c, 0, 77, 0
2, 87610, Note_on_c, 1, 53, 0
2, 87616, Note_on_c, 0, 76, 78
2, 87616, Note_on_c, 1, 52, 92
2, 87674, Note_on_c, 0, 76, 0
2, 87674, Note_on_c, 1, 52, 0
2, 87680, Note_on_c, 0, 74, 76
2, 87680, Note_on_c, 1, 50, 89
2, 87738, Note_on_c, 0, 74, 0
2, 87738, Note_on_c, 1, 50, 0
2, 87744, Note_on_c, 0, 69, 73
2, 87744, Note_on_c, 0, 81, 78
2, 87744, Note_on_c, 1, 45, 85
2, 87802, Note_on_c, 0, 69, 0
2, 87802, Note_on_c, 0, 81, 0
2, 87802, Note_on_c, 1, 45, 0
2, 87808, Note_on_c, 0, 71, 85
2, 87808, Note_on_c, 1, 47, 99
2, 87837, Note_on_c, 0, 71, 0
2, 87837, Note_on_c, 1, 47, 0
2, 87840, Note_on_c, 0, 73, 85
2, 87840, Note_on_c, 1, 49, 101
2, 87869, Note_on_c, 0, 73, 0
2, 87869, Note_on_c, 1, 49, 0
2, 87872, Note_on_c, 0, 74, 85
2, 87872, Note_on_c, 1, 50, 100
2, 87901, Note_on_c, 0, 74, 0
2, 87901, Note_on_c, 1, 50, 0
2, 87904, Note_on_c, 0, 76, 85
2, 87904, Note_on_c, 1, 52, 102
2, 87933, Note_on_c, 0, 76, 0
2, 87933, Note_on_c, 1, 52, 0
2, 87936, Note_on_c, 0, 77, 85
2, 87936, Note_on_c, 1, 53, 101
2, 87965, Note_on_c, 0, 77, 0
2, 87965, Note_on_c, 1, 53, 0
2, 87968, Note_on_c, 0, 79, 85
2, 87968, Note_on_c, 1, 55, 102
2, 87997, Note_on_c, 0, 79, 0
2, 87997, Note_on_c, 1, 55, 0
2, 88000, Note_on_c, 0, 81, 87
2, 88000, Note_on_c, 0, 69, 78
2, 88000, Note_on_c, 1, 57, 105
2, 88058, Note_on_c, 0, 81, 0
2, 88058, Note_on_c, 0, 69, 0
2, 88058, Note_on_c, 1, 57, 0
2, 88064, Note_on_c, 0, 79, 103
2, 88064, Note_on_c, 0, 88, 103
2, 88064, Note_on_c, 1, 67, 122
2, 88064, Note_on_c, 1, 76, 121
2, 88122, Note_on_c, 0, 79, 0
2, 88122, Note_on_c, 0, 88, 0
2, 88122, Note_on_c, 1, 67, 0
2, 88122, Note_on_c, 1, 76, 0
2, 88128, Note_on_c, 0, 77, 80
2, 88128, Note_on_c, 0, 86, 81
2, 88128, Note_on_c, 1, 65, 93
2, 88128, Note_on_c, 1, 74, 93
2, 88186, Note_on_c, 0, 77, 0
2, 88186, Note_on_c, 0, 86, 0
2, 88186, Note_on_c, 1, 65, 0
2, 88186, Note_on_c, 1, 74, 0
2, 88192, Note_on_c, 0, 76, 81
2, 88192, Note_on_c, 0, 85, 80
2, 88192, Note_on_c, 1, 64, 91
2, 88192, Note_on_c, 1, 73, 91
2, 88250, Note_on_c, 0, 76, 0
2, 88250, Note_on_c, 0, 85, 0
2, 88250, Note_on_c, 1, 64, 0
2, 88250, Note_on_c, 1, 73, 0
2, 88256, Note_on_c, 0, 77, 76
2, 88256, Note_on_c, 0, 86, 75
2, 88256, Note_on_c, 1, 65, 95
2, 88256, Note_on_c, 1, 74, 95
2, 88314, Note_on_c, 0, 77, 0
2, 88314, Note_on_c, 0, 86, 0
2, 88314, Note_on_c, 1, 65, 0
2, 88314, Note_on_c, 1, 74, 0
2, 88320, Note_on_c, 0, 87, 83
2, 88320, Note_on_c, 1, 75, 107
2, 88349, Note_on_c, 0, 87, 0
2, 88349, Note_on_c, 1, 75, 0
2, 88352, Note_on_c, 0, 86, 79
2, 88352, Note_on_c, 1, 74, 96
2, 88381, Note_on_c, 0, 86, 0
2, 88381, Note_on_c, 1, 74, 0
2, 88384, Note_on_c, 0, 84, 79
2, 88384, Note_on_c, 1, 72, 91
2, 88413, Note_on_c, 0, 84, 0
2, 88413, Note_on_c, 1, 72, 0
2, 88416, Note_on_c, 0, 82, 84
2, 88416, Note_on_c, 1, 70, 93
2, 88445, Note_on_c, 0, 82, 0
2, 88445, Note_on_c, 1, 70, 0
2, 88448, Note_on_c, 0, 81, 87
2, 88448, Note_on_c, 1, 69, 91
2, 88477, Note_on_c, 0, 81, 0
2, 88477, Note_on_c, 1, 69, 0
2, 88480, Note_on_c, 0, 79, 91
2, 88480, Note_on_c, 1, 67, 87
2, 88509, Note_on_c, 0, 79, 0
2, 88509, Note_on_c, 1, 67, 0
2, 88512, Note_on_c, 0, 78, 95
2, 88512, Note_on_c, 1, 66, 93
2, 88576, Note_on_c, 0, 75, 94
2, 88576, Note_on_c, 1, 63, 80
2, 88628, Note_on_c, 0, 78, 0
2, 88628, Note_on_c, 1, 66, 0
2, 88634, Note_on_c, 0, 75, 0
2, 88634, Note_on_c, 1, 63, 0
2, 88640, Note_on_c, 0, 81, 103
2, 88640, Note_on_c, 0, 74, 98
2, 88640, Note_on_c, 1, 69, 104
2, 88640, Note_on_c, 1, 62, 81
2, 88698, Note_on_c, 0, 74, 0
2, 88698, Note_on_c, 1, 62, 0
2, 88704, Note_on_c, 0, 72, 98
2, 88704, Note_on_c, 1, 60, 82
2, 88762, Note_on_c, 0, 72, 0
2, 88762, Note_on_c, 1, 60, 0
2, 88768, Note_on_c, 0, 70, 100
2, 88768, Note_on_c, 1, 58, 85
2, 88826, Note_on_c, 1, 58, 0
2, 88832, Note_on_c, 1, 43, 77
2, 88832, Note_on_c, 1, 55, 81
2, 88884, Note_on_c, 0, 81, 0
2, 88884, Note_on_c, 0, 70, 0
2, 88884, Note_on_c, 1, 69, 0
2, 88890, Note_on_c, 1, 43, 0
2, 88890, Note_on_c, 1, 55, 0
2, 88896, Note_on_c, 0, 79, 91
2, 88896, Note_on_c, 0, 71, 107
2, 88896, Note_on_c, 1, 67, 88
2, 88896, Note_on_c, 1, 41, 81
2, 88896, Note_on_c, 1, 53, 80
2, 88954, Note_on_c, 1, 41, 0
2, 88954, Note_on_c, 1, 53, 0
2, 88960, Note_on_c, 1, 43, 94
2, 88960, Note_on_c, 1, 55, 90
2, 89012, Note_on_c, 0, 79, 0
2, 89012, Note_on_c, 0, 71, 0
2, 89012, Note_on_c, 1, 67, 0
2, 89018, Note_on_c, 1, 43, 0
2, 89018, Note_on_c, 1, 55, 0
2, 89024, Note_on_c, 0, 84, 111
2, 89024, Note_on_c, 0, 72, 127
2, 89024, Note_on_c, 0, 79, 126
2, 89024, Note_on_c, 1, 39, 81
2, 89024, Note_on_c, 1, 51, 80
2, 89082, Note_on_c, 1, 39, 0
2, 89082, Note_on_c, 1, 51, 0
2, 89088, Note_on_c, 1, 43, 96
2, 89088, Note_on_c, 1, 55, 95
2, 89140, Note_on_c, 0, 84, 0
2, 89140, Note_on_c, 0, 72, 0
2, 89140, Note_on_c, 0, 79, 0
2, 89146, Note_on_c, 1, 43, 0
2, 89146, Note_on_c, 1, 55, 0
2, 89152, Note_on_c, 0, 71, 93
2, 89152, Note_on_c, 0, 83, 94
2, 89152, Note_on_c, 0, 79, 108
2, 89152, Note_on_c, 1, 38, 76
2, 89152, Note_on_c, 1, 50, 79
2, 89210, Note_on_c, 1, 38, 0
2, 89210, Note_on_c, 1, 50, 0
2, 89216, Note_on_c, 1, 43, 99
2, 89216, Note_on_c, 1, 55, 99
2, 89268, Note_on_c, 0, 71, 0
2, 89268, Note_on_c, 0, 83, 0
2, 89268, Note_on_c, 0, 79, 0
2, 89274, Note_on_c, 1, 43, 0
2, 89274, Note_on_c, 1, 55, 0
2, 89280, Note_on_c, 0, 75, 110
2, 89280, Note_on_c, 0, 87, 107
2, 89280, Note_on_c, 0, 79, 97
2, 89280, Note_on_c, 1, 36, 84
2, 89280, Note_on_c, 1, 48, 82
2, 89318, Note_on_c, 0, 79, 0
2, 89322, Note_on_c, 0, 80, 99
2, 89338, Note_on_c, 1, 36, 0
2, 89338, Note_on_c, 1, 48, 0
2, 89344, Note_on_c, 1, 43, 112
2, 89344, Note_on_c, 1, 55, 110
2, 89361, Note_on_c, 0, 80, 0
2, 89365, Note_on_c, 0, 79, 92
2, 89396, Note_on_c, 0, 75, 0
2, 89396, Note_on_c, 0, 87, 0
2, 89402, Note_on_c, 1, 43, 0
2, 89402, Note_on_c, 1, 55, 0
2, 89404, Note_on_c, 0, 79, 0
2, 89408, Note_on_c, 0, 74, 94
2, 89408, Note_on_c, 0, 86, 92
2, 89408, Note_on_c, 0, 80, 99
2, 89408, Note_on_c, 1, 35, 81
2, 89408, Note_on_c, 1, 47, 77
2, 89446, Note_on_c, 0, 80, 0
2, 89450, Note_on_c, 0, 79, 93
2, 89466, Note_on_c, 1, 35, 0
2, 89466, Note_on_c, 1, 47, 0
2, 89472, Note_on_c, 1, 43, 112
2, 89472, Note_on_c, 1, 55, 109
2, 89489, Note_on_c, 0, 79, 0
2, 89493, Note_on_c, 0, 80, 101
2, 89524, Note_on_c, 0, 74, 0
2, 89524, Note_on_c, 0, 86, 0
2, 89530, Note_on_c, 1, 43, 0
2, 89530, Note_on_c, 1, 55, 0
2, 89532, Note_on_c, 0, 80, 0
2, 89536, Note_on_c, 0, 75, 105
2, 89536, Note_on_c, 0, 87, 103
2, 89536, Note_on_c, 0, 79, 94
2, 89536, Note_on_c, 1, 36, 82
2, 89536, Note_on_c, 1, 48, 84
2, 89574, Note_on_c, 0, 79, 0
2, 89578, Note_on_c, 0, 80, 100
2, 89594, Note_on_c, 1, 36, 0
2, 89594, Note_on_c, 1, 48, 0
2, 89600, Note_on_c, 1, 43, 110
2, 89600, Note_on_c, 1, 55, 109
2, 89617, Note_on_c, 0, 80, 0
2, 89621, Note_on_c, 0, 79, 94
2, 89652, Note_on_c, 0, 75, 0
2, 89652, Note_on_c, 0, 87, 0
2, 89658, Note_on_c, 1, 43, 0
2, 89658, Note_on_c, 1, 55, 0
2, 89660, Note_on_c, 0, 79, 0
2, 89664, Note_on_c, 0, 71, 84
2, 89664, Note_on_c, 0, 83, 87
2, 89664, Note_on_c, 0, 80, 100
2, 89664, Note_on_c, 1, 38, 83
2, 89664, Note_on_c, 1, 50, 87
2, 89702, Note_on_c, 0, 80, 0
2, 89706, Note_on_c, 0, 79, 92
2, 89722, Note_on_c, 1, 38, 0
2, 89722, Note_on_c, 1, 50, 0
2, 89728, Note_on_c, 1, 43, 107
2, 89728, Note_on_c, 1, 55, 105
2, 89745, Note_on_c, 0, 79, 0
2, 89749, Note_on_c, 0, 80, 102
2, 89780, Note_on_c, 0, 71, 0
2, 89780, Note_on_c, 0, 83, 0
2, 89786, Note_on_c, 1, 43, 0
2, 89786, Note_on_c, 1, 55, 0
2, 89788, Note_on_c, 0, 80, 0
2, 89792, Note_on_c, 0, 72, 100
2, 89792, Note_on_c, 0, 84, 104
2, 89792, Note_on_c, 0, 79, 95
2, 89792, Note_on_c, 1, 39, 92
2, 89792, Note_on_c, 1, 51, 90
2, 89830, Note_on_c, 0, 79, 0
2, 89834, Note_on_c, 0, 80, 101
2, 89850, Note_on_c, 1, 39, 0
2, 89850, Note_on_c, 1, 51, 0
2, 89856, Note_on_c, 1, 43, 105
2, 89856, Note_on_c, 1, 55, 103
2, 89873, Note_on_c, 0, 80, 0
2, 89877, Note_on_c, 0, 79, 93
2, 89908, Note_on_c, 0, 72, 0
2, 89908, Note_on_c, 0, 84, 0
2, 89914, Note_on_c, 1, 43, 0
2, 89914, Note_on_c, 1, 55, 0
2, 89916, Note_on_c, 0, 79, 0
2, 89920, Note_on_c, 0, 71, 92
2, 89920, Note_on_c, 0, 83, 92
2, 89920, Note_on_c, 0, 80, 102
2, 89920, Note_on_c, 1, 31, 70
2, 89920, Note_on_c, 1, 43, 71
2, 89958, Note_on_c, 0, 80, 0
2, 89962, Note_on_c, 0, 79, 91
2, 89978, Note_on_c, 1, 31, 0
2, 89978, Note_on_c, 1, 43, 0
2, 89984, Note_on_c, 1, 43, 117
2, 89984, Note_on_c, 1, 55, 119
2, 90001, Note_on_c, 0, 79, 0
2, 90005, Note_on_c, 0, 80, 102
2, 90036, Note_on_c, 0, 71, 0
2, 90036, Note_on_c, 0, 83, 0
2, 90042, Note_on_c, 1, 43, 0
2, 90042, Note_on_c, 1, 55, 0
2, 90044, Note_on_c, 0, 80, 0
2, 90048, Note_on_c, 0, 72, 101
2, 90048, Note_on_c, 0, 84, 101
2, 90048, Note_on_c, 0, 79, 94
2, 90048, Note_on_c, 1, 33, 81
2, 90048, Note_on_c, 1, 45, 79
2, 90086, Note_on_c, 0, 79, 0
2, 90090, Note_on_c, 0, 80, 101
2, 90106, Note_on_c, 1, 33, 0
2, 90106, Note_on_c, 1, 45, 0
2, 90112, Note_on_c, 1, 43, 117
2, 90112, Note_on_c, 1, 55, 116
2, 90129, Note_on_c, 0, 80, 0
2, 90133, Note_on_c, 0, 79, 91
2, 90164, Note_on_c, 0, 72, 0
2, 90164, Note_on_c, 0, 84, 0
2, 90170, Note_on_c, 1, 43, 0
2, 90170, Note_on_c, 1, 55, 0
2, 90172, Note_on_c, 0, 79, 0
2, 90176, Note_on_c, 0, 74, 103
2, 90176, Note_on_c, 0, 86, 102
2, 90176, Note_on_c, 0, 80, 100
2, 90176, Note_on_c, 1, 35, 81
2, 90176, Note_on_c, 1, 47, 82
2, 90214, Note_on_c, 0, 80, 0
2, 90218, Note_on_c, 0, 79, 94
2, 90234, Note_on_c, 1, 35, 0
2, 90234, Note_on_c, 1, 47, 0
2, 90240, Note_on_c, 1, 43, 112
2, 90240, Note_on_c, 1, 55, 112
2, 90257, Note_on_c, 0, 79, 0
2, 90261, Note_on_c, 0, 80, 101
2, 90292, Note_on_c, 0, 74, 0
2, 90292, Note_on_c, 0, 86, 0
2, 90298, Note_on_c, 1, 43, 0
2, 90298, Note_on_c, 1, 55, 0
2, 90300, Note_on_c, 0, 80, 0
2, 90304, Note_on_c, 0, 75, 103
2, 90304, Note_on_c, 0, 87, 103
2, 90304, Note_on_c, 0, 79, 96
2, 90304, Note_on_c, 1, 36, 84
2, 90304, Note_on_c, 1, 48, 83
2, 90342, Note_on_c, 0, 79, 0
2, 90346, Note_on_c, 0, 80, 102
2, 90362, Note_on_c, 1, 36, 0
2, 90362, Note_on_c, 1, 48, 0
2, 90368, Note_on_c, 1, 43, 109
2, 90368, Note_on_c, 1, 55, 111
2, 90385, Note_on_c, 0, 80, 0
2, 90389, Note_on_c, 0, 79, 90
2, 90420, Note_on_c, 0, 75, 0
2, 90420, Note_on_c, 0, 87, 0
2, 90426, Note_on_c, 1, 43, 0
2, 90426, Note_on_c, 1, 55, 0
2, 90428, Note_on_c, 0, 79, 0
2, 90432, Note_on_c, 0, 74, 93
2, 90432, Note_on_c, 0, 86, 93
2, 90432, Note_on_c, 0, 80, 100
2, 90432, Note_on_c, 1, 35, 78
2, 90432, Note_on_c, 1, 47, 78
2, 90470, Note_on_c, 0, 80, 0
2, 90474, Note_on_c, 0, 79, 94
2, 90490, Note_on_c, 1, 35, 0
2, 90490, Note_on_c, 1, 47, 0
2, 90496, Note_on_c, 1, 43, 112
2, 90496, Note_on_c, 1, 55, 111
2, 90513, Note_on_c, 0, 79, 0
2, 90517, Note_on_c, 0, 80, 98
2, 90548, Note_on_c, 0, 74, 0
2, 90548, Note_on_c, 0, 86, 0
2, 90554, Note_on_c, 1, 43, 0
2, 90554, Note_on_c, 1, 55, 0
2, 90556, Note_on_c, 0, 80, 0
2, 90560, Note_on_c, 0, 75, 103
2, 90560, Note_on_c, 0, 87, 102
2, 90560, Note_on_c, 0, 79, 96
2, 90560, Note_on_c, 1, 36, 86
2, 90560, Note_on_c, 1, 48, 83
2, 90598, Note_on_c, 0, 79, 0
2, 90602, Note_on_c, 0, 80, 98
2, 90618, Note_on_c, 1, 36, 0
2, 90618, Note_on_c, 1, 48, 0
2, 90624, Note_on_c, 1, 43, 113
2, 90624, Note_on_c, 1, 55, 110
2, 90641, Note_on_c, 0, 80, 0
2, 90645, Note_on_c, 0, 79, 90
2, 90676, Note_on_c, 0, 75, 0
2, 90676, Note_on_c, 0, 87, 0
2, 90682, Note_on_c, 1, 43, 0
2, 90682, Note_on_c, 1, 55, 0
2, 90684, Note_on_c, 0, 79, 0
2, 90688, Note_on_c, 0, 77, 101
2, 90688, Note_on_c, 0, 89, 103
2, 90688, Note_on_c, 0, 80, 98
2, 90688, Note_on_c, 1, 38, 84
2, 90688, Note_on_c, 1, 50, 84
2, 90726, Note_on_c, 0, 80, 0
2, 90730, Note_on_c, 0, 79, 93
2, 90746, Note_on_c, 1, 38, 0
2, 90746, Note_on_c, 1, 50, 0
2, 90752, Note_on_c, 1, 43, 108
2, 90752, Note_on_c, 1, 55, 107
2, 90769, Note_on_c, 0, 79, 0
2, 90773, Note_on_c, 0, 80, 100
2, 90804, Note_on_c, 0, 77, 0
2, 90804, Note_on_c, 0, 89, 0
2, 90810, Note_on_c, 1, 43, 0
2, 90810, Note_on_c, 1, 55, 0
2, 90812, Note_on_c, 0, 80, 0
2, 90816, Note_on_c, 0, 91, 106
2, 90816, Note_on_c, 0, 79, 95
2, 90816, Note_on_c, 1, 51, 89
2, 90816, Note_on_c, 1, 39, 75
2, 90854, Note_on_c, 0, 79, 0
2, 90858, Note_on_c, 0, 80, 100
2, 90874, Note_on_c, 1, 39, 0
2, 90880, Note_on_c, 1, 55, 116
2, 90897, Note_on_c, 0, 80, 0
2, 90901, Note_on_c, 0, 79, 92
2, 90932, Note_on_c, 0, 91, 0
2, 90932, Note_on_c, 1, 51, 0
2, 90938, Note_on_c, 1, 55, 0
2, 90940, Note_on_c, 0, 79, 0
2, 90944, Note_on_c, 0, 77, 68
2, 90944, Note_on_c, 0, 80, 98
2, 90944, Note_on_c, 1, 65, 119
2, 90944, Note_on_c, 1, 50, 87
2, 90982, Note_on_c, 0, 80, 0
2, 90986, Note_on_c, 0, 79, 92
2, 91002, Note_on_c, 1, 50, 0
2, 91008, Note_on_c, 1, 55, 109
2, 91025, Note_on_c, 0, 79, 0
2, 91029, Note_on_c, 0, 80, 99
2, 91060, Note_on_c, 0, 77, 0
2, 91060, Note_on_c, 1, 65, 0
2, 91066, Note_on_c, 1, 55, 0
2, 91068, Note_on_c, 0, 80, 0
2, 91072, Note_on_c, 0, 75, 86
2, 91072, Note_on_c, 0, 79, 97
2, 91072, Note_on_c, 1, 63, 95
2, 91072, Note_on_c, 1, 48, 84
2, 91110, Note_on_c, 0, 79, 0
2, 91114, Note_on_c, 0, 80, 99
2, 91130, Note_on_c, 1, 48, 0
2, 91136, Note_on_c, 1, 55, 111
2, 91153, Note_on_c, 0, 80, 0
2, 91157, Note_on_c, 0, 79, 91
2, 91188, Note_on_c, 0, 75, 0
2, 91188, Note_on_c, 1, 63, 0
2, 91194, Note_on_c, 1, 55, 0
2, 91196, Note_on_c, 0, 79, 0
2, 91200, Note_on_c, 0, 74, 91
2, 91200, Note_on_c, 0, 80, 100
2, 91200, Note_on_c, 1, 62, 92
2, 91200, Note_on_c, 1, 47, 79
2, 91238, Note_on_c, 0, 80, 0
2, 91242, Note_on_c, 0, 79, 93
2, 91258, Note_on_c, 1, 47, 0
2, 91264, Note_on_c, 1, 55, 111
2, 91281, Note_on_c, 0, 79, 0
2, 91285, Note_on_c, 0, 80, 100
2, 91316, Note_on_c, 0, 74, 0
2, 91316, Note_on_c, 1, 62, 0
2, 91322, Note_on_c, 1, 55, 0
2, 91324, Note_on_c, 0, 80, 0
2, 91328, Note_on_c, 0, 72, 92
2, 91328, Note_on_c, 0, 79, 93
2, 91328, Note_on_c, 1, 60, 93
2, 91328, Note_on_c, 1, 48, 84
2, 91366, Note_on_c, 0, 79, 0
2, 91370, Note_on_c, 0, 80, 101
2, 91386, Note_on_c, 1, 48, 0
2, 91392, Note_on_c, 1, 55, 112
2, 91409, Note_on_c, 0, 80, 0
2, 91413, Note_on_c, 0, 79, 90
2, 91444, Note_on_c, 0, 72, 0
2, 91444, Note_on_c, 1, 60, 0
2, 91450, Note_on_c, 1, 55, 0
2, 91452, Note_on_c, 0, 79, 0
2, 91456, Note_on_c, 0, 71, 90
2, 91456, Note_on_c, 0, 80, 101
2, 91456, Note_on_c, 1, 62, 100
2, 91456, Note_on_c, 1, 50, 110
2, 91456, Note_on_c, 1, 59, 106
2, 91494, Note_on_c, 0, 80, 0
2, 91498, Note_on_c, 0, 79, 91
2, 91514, Note_on_c, 1, 50, 0
2, 91514, Note_on_c, 1, 59, 0
2, 91520, Note_on_c, 1, 55, 86
2, 91537, Note_on_c, 0, 79, 0
2, 91541, Note_on_c, 0, 80, 98
2, 91572, Note_on_c, 0, 71, 0
2, 91572, Note_on_c, 1, 62, 0
2, 91578, Note_on_c, 1, 55, 0
2, 91580, Note_on_c, 0, 80, 0
2, 91584, Note_on_c, 0, 72, 100
2, 91584, Note_on_c, 0, 79, 96
2, 91584, Note_on_c, 1, 63, 103
2, 91584, Note_on_c, 1, 51, 110
2, 91584, Note_on_c, 1, 60, 111
2, 91622, Note_on_c, 0, 79, 0
2, 91626, Note_on_c, 0, 80, 100
2, 91642, Note_on_c, 1, 51, 0
2, 91642, Note_on_c, 1, 60, 0
2, 91648, Note_on_c, 1, 55, 83
2, 91665, Note_on_c, 0, 80, 0
2, 91669, Note_on_c, 0, 79, 90
2, 91700, Note_on_c, 0, 72, 0
2, 91700, Note_on_c, 1, 63, 0
2, 91706, Note_on_c, 1, 55, 0
2, 91708, Note_on_c, 0, 79, 0
2, 91712, Note_on_c, 0, 74, 103
2, 91712, Note_on_c, 0, 80, 101
2, 91712, Note_on_c, 1, 65, 102
2, 91712, Note_on_c, 1, 53, 113
2, 91712, Note_on_c, 1, 62, 110
2, 91750, Note_on_c, 0, 80, 0
2, 91754, Note_on_c, 0, 79, 91
2, 91770, Note_on_c, 1, 53, 0
2, 91770, Note_on_c, 1, 62, 0
2, 91776, Note_on_c, 1, 55, 82
2, 91793, Note_on_c, 0, 79, 0
2, 91797, Note_on_c, 0, 80, 101
2, 91828, Note_on_c, 0, 74, 0
2, 91828, Note_on_c, 1, 65, 0
2, 91836, Note_on_c, 0, 80, 0
2, 91840, Note_on_c, 0, 75, 105
2, 91840, Note_on_c, 0, 79, 95
2, 91840, Note_on_c, 1, 63, 105
2, 91840, Note_on_c, 1, 67, 103
2, 91878, Note_on_c, 0, 79, 0
2, 91882, Note_on_c, 0, 80, 99
2, 91898, Note_on_c, 1, 55, 0
2, 91904, Note_on_c, 1, 55, 96
2, 91921, Note_on_c, 0, 80, 0
2, 91925, Note_on_c, 0, 79, 93
2, 91956, Note_on_c, 0, 75, 0
2, 91956, Note_on_c, 1, 63, 0
2, 91956, Note_on_c, 1, 67, 0
2, 91962, Note_on_c, 1, 55, 0
2, 91964, Note_on_c, 0, 79, 0
2, 91968, Note_on_c, 0, 67, 79
2, 91968, Note_on_c, 0, 80, 101
2, 91968, Note_on_c, 1, 59, 76
2, 91968, Note_on_c, 1, 47, 79
2, 92006, Note_on_c, 0, 80, 0
2, 92010, Note_on_c, 0, 79, 92
2, 92026, Note_on_c, 1, 47, 0
2, 92032, Note_on_c, 1, 55, 111
2, 92049, Note_on_c, 0, 79, 0
2, 92053, Note_on_c, 0, 80, 101
2, 92084, Note_on_c, 0, 67, 0
2, 92084, Note_on_c, 1, 59, 0
2, 92090, Note_on_c, 1, 55, 0
2, 92092, Note_on_c, 0, 80, 0
2, 92096, Note_on_c, 0, 69, 124
2, 92096, Note_on_c, 0, 81, 123
2, 92096, Note_on_c, 0, 79, 94
2, 92096, Note_on_c, 1, 60, 100
2, 92096, Note_on_c, 1, 48, 106
2, 92096, Note_on_c, 1, 57, 108
2, 92134, Note_on_c, 0, 79, 0
2, 92138, Note_on_c, 0, 80, 100
2, 92154, Note_on_c, 1, 48, 0
2, 92154, Note_on_c, 1, 57, 0
2, 92160, Note_on_c, 1, 55, 90
2, 92177, Note_on_c, 0, 80, 0
2, 92181, Note_on_c, 0, 79, 90
2, 92212, Note_on_c, 0, 69, 0
2, 92212, Note_on_c, 0, 81, 0
2, 92212, Note_on_c, 1, 60, 0
2, 92218, Note_on_c, 1, 55, 0
2, 92220, Note_on_c, 0, 79, 0
2, 92224, Note_on_c, 0, 71, 104
2, 92224, Note_on_c, 0, 83, 107
2, 92224, Note_on_c, 0, 80, 102
2, 92224, Note_on_c, 1, 62, 101
2, 92224, Note_on_c, 1, 50, 106
2, 92224, Note_on_c, 1, 59, 105
2, 92262, Note_on_c, 0, 80, 0
2, 92266, Note_on_c, 0, 79, 93
2, 92282, Note_on_c, 1, 50, 0
2, 92282, Note_on_c, 1, 59, 0
2, 92288, Note_on_c, 1, 55, 86
2, 92305, Note_on_c, 0, 79, 0
2, 92309, Note_on_c, 0, 80, 98
2, 92340, Note_on_c, 0, 71, 0
2, 92340, Note_on_c, 0, 83, 0
2, 92340, Note_on_c, 1, 62, 0
2, 92346, Note_on_c, 1, 55, 0
2, 92348, Note_on_c, 0, 80, 0
2, 92352, Note_on_c, 0, 72, 105
2, 92352, Note_on_c, 0, 84, 107
2, 92352, Note_on_c, 0, 79, 94
2, 92352, Note_on_c, 1, 63, 102
2, 92352, Note_on_c, 1, 51, 111
2, 92352, Note_on_c, 1, 60, 109
2, 92390, Note_on_c, 0, 79, 0
2, 92394, Note_on_c, 0, 80, 102
2, 92410, Note_on_c, 1, 51, 0
2, 92410, Note_on_c, 1, 60, 0
2, 92416, Note_on_c, 1, 55, 85
2, 92433, Note_on_c, 0, 80, 0
2, 92437, Note_on_c, 0, 79, 93
2, 92468, Note_on_c, 0, 72, 0
2, 92468, Note_on_c, 0, 84, 0
2, 92468, Note_on_c, 1, 63, 0
2, 92474, Note_on_c, 1, 55, 0
2, 92476, Note_on_c, 0, 79, 0
2, 92480, Note_on_c, 0, 71, 91
2, 92480, Note_on_c, 0, 83, 92
2, 92480, Note_on_c, 0, 80, 100
2, 92480, Note_on_c, 1, 62, 92
2, 92480, Note_on_c, 1, 50, 106
2, 92480, Note_on_c, 1, 59, 104
2, 92518, Note_on_c, 0, 80, 0
2, 92522, Note_on_c, 0, 79, 93
2, 92538, Note_on_c, 1, 50, 0
2, 92538, Note_on_c, 1, 59, 0
2, 92544, Note_on_c, 1, 55, 87
2, 92561, Note_on_c, 0, 79, 0
2, 92565, Note_on_c, 0, 80, 98
2, 92596, Note_on_c, 0, 71, 0
2, 92596, Note_on_c, 0, 83, 0
2, 92596, Note_on_c, 1, 62, 0
2, 92602, Note_on_c, 1, 55, 0
2, 92604, Note_on_c, 0, 80, 0
2, 92608, Note_on_c, 0, 72, 105
2, 92608, Note_on_c, 0, 84, 104
2, 92608, Note_on_c, 0, 79, 95
2, 92608, Note_on_c, 1, 63, 102
2, 92608, Note_on_c, 1, 51, 109
2, 92608, Note_on_c, 1, 60, 108
2, 92646, Note_on_c, 0, 79, 0
2, 92650, Note_on_c, 0, 80, 99
2, 92666, Note_on_c, 1, 51, 0
2, 92666, Note_on_c, 1, 60, 0
2, 92672, Note_on_c, 1, 55, 84
2, 92689, Note_on_c, 0, 80, 0
2, 92693, Note_on_c, 0, 79, 92
2, 92724, Note_on_c, 0, 72, 0
2, 92724, Note_on_c, 0, 84, 0
2, 92724, Note_on_c, 1, 63, 0
2, 92730, Note_on_c, 1, 55, 0
2, 92732, Note_on_c, 0, 79, 0
2, 92736, Note_on_c, 0, 74, 100
2, 92736, Note_on_c, 0, 86, 102
2, 92736, Note_on_c, 0, 80, 100
2, 92736, Note_on_c, 1, 65, 103
2, 92736, Note_on_c, 1, 53, 111
2, 92736, Note_on_c, 1, 62, 113
2, 92774, Note_on_c, 0, 80, 0
2, 92778, Note_on_c, 0, 79, 91
2, 92794, Note_on_c, 1, 53, 0
2, 92794, Note_on_c, 1, 62, 0
2, 92800, Note_on_c, 1, 55, 82
2, 92817, Note_on_c, 0, 79, 0
2, 92821, Note_on_c, 0, 80, 100
2, 92852, Note_on_c, 0, 74, 0
2, 92852, Note_on_c, 0, 86, 0
2, 92852, Note_on_c, 1, 65, 0
2, 92860, Note_on_c, 0, 80, 0
2, 92864, Note_on_c, 0, 75, 104
2, 92864, Note_on_c, 0, 87, 103
2, 92864, Note_on_c, 1, 63, 106
2, 92864, Note_on_c, 1, 67, 103
2, 92922, Note_on_c, 0, 75, 0
2, 92922, Note_on_c, 0, 87, 0
2, 92928, Note_on_c, 0, 91, 79
2, 92980, Note_on_c, 1, 63, 0
2, 92980, Note_on_c, 1, 67, 0
2, 92980, Note_on_c, 1, 55, 0
2, 92986, Note_on_c, 0, 91, 0
2, 92992, Note_on_c, 0, 89, 86
2, 92992, Note_on_c, 0, 79, 85
2, 92992, Note_on_c, 0, 86, 87
2, 92992, Note_on_c, 1, 35, 69
2, 92992, Note_on_c, 1, 38, 71
2, 92992, Note_on_c, 1, 47, 70
2, 93050, Note_on_c, 0, 89, 0
2, 93056, Note_on_c, 0, 91, 101
2, 93108, Note_on_c, 0, 79, 0
2, 93108, Note_on_c, 0, 86, 0
2, 93108, Note_on_c, 1, 35, 0
2, 93108, Note_on_c, 1, 38, 0
2, 93108, Note_on_c, 1, 47, 0
2, 93114, Note_on_c, 0, 91, 0
2, 93120, Note_on_c, 0, 79, 87
2, 93120, Note_on_c, 0, 87, 88
2, 93120, Note_on_c, 1, 36, 100
2, 93120, Note_on_c, 1, 39, 101
2, 93120, Note_on_c, 1, 48, 100
2, 93178, Note_on_c, 0, 79, 0
2, 93178, Note_on_c, 0, 87, 0
2, 93184, Note_on_c, 0, 80, 100
2, 93184, Note_on_c, 0, 89, 99
2, 93236, Note_on_c, 1, 36, 0
2, 93236, Note_on_c, 1, 39, 0
2, 93236, Note_on_c, 1, 48, 0
2, 93242, Note_on_c, 0, 80, 0
2, 93242, Note_on_c, 0, 89, 0
2, 93248, Note_on_c, 0, 77, 88
2, 93248, Note_on_c, 0, 86, 88
2, 93248, Note_on_c, 1, 38, 102
2, 93248, Note_on_c, 1, 41, 101
2, 93248, Note_on_c, 1, 50, 101
2, 93306, Note_on_c, 0, 77, 0
2, 93306, Note_on_c, 0, 86, 0
2, 93312, Note_on_c, 0, 79, 99
2, 93312, Note_on_c, 0, 87, 100
2, 93364, Note_on_c, 1, 38, 0
2, 93364, Note_on_c, 1, 41, 0
2, 93364, Note_on_c, 1, 50, 0
2, 93370, Note_on_c, 0, 79, 0
2, 93370, Note_on_c, 0, 87, 0
2, 93376, Note_on_c, 0, 75, 91
2, 93376, Note_on_c, 0, 84, 90
2, 93376, Note_on_c, 1, 39, 105
2, 93376, Note_on_c, 1, 43, 103
2, 93376, Note_on_c, 1, 51, 102
2, 93434, Note_on_c, 0, 75, 0
2, 93434, Note_on_c, 0, 84, 0
2, 93440, Note_on_c, 0, 89, 108
2, 93492, Note_on_c, 1, 39, 0
2, 93492, Note_on_c, 1, 43, 0
2, 93492, Note_on_c, 1, 51, 0
2, 93498, Note_on_c, 0, 89, 0
2, 93504, Note_on_c, 0, 87, 90
2, 93504, Note_on_c, 0, 77, 87
2, 93504, Note_on_c, 0, 84, 85
2, 93504, Note_on_c, 1, 33, 82
2, 93504, Note_on_c, 1, 36, 80
2, 93504, Note_on_c, 1, 45, 79
2, 93562, Note_on_c, 0, 87, 0
2, 93568, Note_on_c, 0, 89, 102
2, 93620, Note_on_c, 0, 77, 0
2, 93620, Note_on_c, 0, 84, 0
2, 93620, Note_on_c, 1, 33, 0
2, 93620, Note_on_c, 1, 36, 0
2, 93620, Note_on_c, 1, 45, 0
2, 93626, Note_on_c, 0, 89, 0
2, 93632, Note_on_c, 0, 77, 91
2, 93632, Note_on_c, 0, 86, 90
2, 93632, Note_on_c, 1, 34, 103
2, 93632, Note_on_c, 1, 38, 101
2, 93632, Note_on_c, 1, 46, 102
2, 93690, Note_on_c, 0, 77, 0
2, 93690, Note_on_c, 0, 86, 0
2, 93696, Note_on_c, 0, 79, 99
2, 93696, Note_on_c, 0, 87, 98
2, 93748, Note_on_c, 1, 34, 0
2, 93748, Note_on_c, 1, 38, 0
2, 93748, Note_on_c, 1, 46, 0
2, 93754, Note_on_c, 0, 79, 0
2, 93754, Note_on_c, 0, 87, 0
2, 93760, Note_on_c, 0, 75, 89
2, 93760, Note_on_c, 0, 84, 87
2, 93760, Note_on_c, 1, 36, 100
2, 93760, Note_on_c, 1, 39, 101
2, 93760, Note_on_c, 1, 48, 102
2, 93818, Note_on_c, 0, 75, 0
2, 93818, Note_on_c, 0, 84, 0
2, 93824, Note_on_c, 0, 77, 99
2, 93824, Note_on_c, 0, 86, 100
2, 93876, Note_on_c, 1, 36, 0
2, 93876, Note_on_c, 1, 39, 0
2, 93876, Note_on_c, 1, 48, 0
2, 93882, Note_on_c, 0, 77, 0
2, 93882, Note_on_c, 0, 86, 0
2, 93888, Note_on_c, 0, 74, 88
2, 93888, Note_on_c, 0, 82, 90
2, 93888, Note_on_c, 1, 38, 104
2, 93888, Note_on_c, 1, 41, 103
2, 93888, Note_on_c, 1, 50, 107
2, 93946, Note_on_c, 0, 74, 0
2, 93946, Note_on_c, 0, 82, 0
2, 93952, Note_on_c, 0, 87, 107
2, 94004, Note_on_c, 1, 38, 0
2, 94004, Note_on_c, 1, 41, 0
2, 94004, Note_on_c, 1, 50, 0
2, 94010, Note_on_c, 0, 87, 0
2, 94016, Note_on_c, 0, 86, 91
2, 94016, Note_on_c, 0, 75, 85
2, 94016, Note_on_c, 0, 82, 85
2, 94016, Note_on_c, 1, 31, 78
2, 94016, Note_on_c, 1, 34, 79
2, 94016, Note_on_c, 1, 43, 78
2, 94074, Note_on_c, 0, 86, 0
2, 94080, Note_on_c, 0, 87, 99
2, 94132, Note_on_c, 0, 75, 0
2, 94132, Note_on_c, 0, 82, 0
2, 94132, Note_on_c, 1, 31, 0
2, 94132, Note_on_c, 1, 34, 0
2, 94132, Note_on_c, 1, 43, 0
2, 94138, Note_on_c, 0, 87, 0
2, 94144, Note_on_c, 0, 75, 92
2, 94144, Note_on_c, 0, 84, 93
2, 94144, Note_on_c, 1, 33, 101
2, 94144, Note_on_c, 1, 36, 104
2, 94144, Note_on_c, 1, 45, 102
2, 94202, Note_on_c, 0, 75, 0
2, 94202, Note_on_c, 0, 84, 0
2, 94208, Note_on_c, 0, 77, 101
2, 94208, Note_on_c, 0, 86, 101
2, 94260, Note_on_c, 1, 33, 0
2, 94260, Note_on_c, 1, 36, 0
2, 94260, Note_on_c, 1, 45, 0
2, 94266, Note_on_c, 0, 77, 0
2, 94266, Note_on_c, 0, 86, 0
2, 94272, Note_on_c, 0, 74, 86
2, 94272, Note_on_c, 0, 82, 85
2, 94272, Note_on_c, 1, 34, 98
2, 94272, Note_on_c, 1, 38, 100
2, 94272, Note_on_c, 1, 46, 99
2, 94330, Note_on_c, 0, 74, 0
2, 94330, Note_on_c, 0, 82, 0
2, 94336, Note_on_c, 0, 75, 102
2, 94336, Note_on_c, 0, 84, 102
2, 94388, Note_on_c, 1, 34, 0
2, 94388, Note_on_c, 1, 38, 0
2, 94388, Note_on_c, 1, 46, 0
2, 94394, Note_on_c, 0, 75, 0
2, 94394, Note_on_c, 0, 84, 0
2, 94400, Note_on_c, 0, 72, 89
2, 94400, Note_on_c, 0, 81, 92
2, 94400, Note_on_c, 1, 36, 104
2, 94400, Note_on_c, 1, 39, 106
2, 94400, Note_on_c, 1, 48, 106
2, 94458, Note_on_c, 0, 72, 0
2, 94458, Note_on_c, 0, 81, 0
2, 94464, Note_on_c, 0, 86, 108
2, 94516, Note_on_c, 1, 36, 0
2, 94516, Note_on_c, 1, 39, 0
2, 94516, Note_on_c, 1, 48, 0
2, 94522, Note_on_c, 0, 86, 0
2, 94528, Note_on_c, 0, 84, 90
2, 94528, Note_on_c, 0, 72, 85
2, 94528, Note_on_c, 0, 78, 86
2, 94528, Note_on_c, 1, 38, 102
2, 94528, Note_on_c, 1, 50, 100
2, 94586, Note_on_c, 0, 84, 0
2, 94592, Note_on_c, 0, 86, 101
2, 94644, Note_on_c, 0, 72, 0
2, 94644, Note_on_c, 0, 78, 0
2, 94644, Note_on_c, 1, 38, 0
2, 94644, Note_on_c, 1, 50, 0
2, 94650, Note_on_c, 0, 86, 0
2, 94656, Note_on_c, 0, 79, 88
2, 94656, Note_on_c, 0, 82, 90
2, 94656, Note_on_c, 0, 70, 77
2, 94656, Note_on_c, 1, 43, 112
2, 94656, Note_on_c, 1, 55, 111
2, 94714, Note_on_c, 0, 70, 0
2, 94720, Note_on_c, 0, 72, 96
2, 94772, Note_on_c, 0, 79, 0
2, 94772, Note_on_c, 0, 82, 0
2, 94772, Note_on_c, 1, 43, 0
2, 94772, Note_on_c, 1, 55, 0
2, 94778, Note_on_c, 0, 72, 0
2, 94784, Note_on_c, 0, 77, 90
2, 94784, Note_on_c, 0, 81, 91
2, 94784, Note_on_c, 0, 69, 86
2, 94784, Note_on_c, 1, 38, 86
2, 94784, Note_on_c, 1, 50, 85
2, 94842, Note_on_c, 0, 69, 0
2, 94848, Note_on_c, 0, 70, 99
2, 94900, Note_on_c, 0, 77, 0
2, 94900, Note_on_c, 0, 81, 0
2, 94900, Note_on_c, 1, 38, 0
2, 94900, Note_on_c, 1, 50, 0
2, 94906, Note_on_c, 0, 70, 0
2, 94912, Note_on_c, 0, 75, 93
2, 94912, Note_on_c, 0, 79, 92
2, 94912, Note_on_c, 0, 67, 92
2, 94912, Note_on_c, 1, 39, 103
2, 94912, Note_on_c, 1, 51, 103
2, 94970, Note_on_c, 0, 75, 0
2, 94970, Note_on_c, 0, 79, 0
2, 94976, Note_on_c, 0, 79, 103
2, 94976, Note_on_c, 0, 82, 105
2, 95028, Note_on_c, 0, 67, 0
2, 95028, Note_on_c, 1, 39, 0
2, 95028, Note_on_c, 1, 51, 0
2, 95034, Note_on_c, 0, 79, 0
2, 95034, Note_on_c, 0, 82, 0
2, 95040, Note_on_c, 0, 78, 93
2, 95040, Note_on_c, 0, 81, 93
2, 95040, Note_on_c, 0, 74, 109
2, 95040, Note_on_c, 1, 34, 82
2, 95040, Note_on_c, 1, 46, 81
2, 95098, Note_on_c, 0, 78, 0
2, 95098, Note_on_c, 0, 81, 0
2, 95104, Note_on_c, 0, 79, 101
2, 95104, Note_on_c, 0, 82, 101
2, 95156, Note_on_c, 0, 74, 0
2, 95156, Note_on_c, 1, 34, 0
2, 95156, Note_on_c, 1, 46, 0
2, 95162, Note_on_c, 0, 79, 0
2, 95162, Note_on_c, 0, 82, 0
2, 95168, Note_on_c, 0, 81, 126
2, 95168, Note_on_c, 0, 84, 127
2, 95168, Note_on_c, 0, 72, 124
2, 95168, Note_on_c, 1, 33, 91
2, 95168, Note_on_c, 1, 45, 91
2, 95226, Note_on_c, 0, 81, 0
2, 95226, Note_on_c, 0, 84, 0
2, 95232, Note_on_c, 0, 79, 95
2, 95232, Note_on_c, 0, 82, 95
2, 95284, Note_on_c, 0, 72, 0
2, 95284, Note_on_c, 1, 33, 0
2, 95284, Note_on_c, 1, 45, 0
2, 95290, Note_on_c, 0, 79, 0
2, 95290, Note_on_c, 0, 82, 0
2, 95296, Note_on_c, 0, 78, 91
2, 95296, Note_on_c, 0, 81, 93
2, 95296, Note_on_c, 0, 69, 93
2, 95296, Note_on_c, 1, 36, 103
2, 95296, Note_on_c, 1, 48, 103
2, 95354, Note_on_c, 0, 78, 0
2, 95354, Note_on_c, 0, 81, 0
2, 95360, Note_on_c, 0, 76, 88
2, 95360, Note_on_c, 0, 79, 87
2, 95412, Note_on_c, 0, 69, 0
2, 95412, Note_on_c, 1, 36, 0
2, 95412, Note_on_c, 1, 48, 0
2, 95418, Note_on_c, 0, 76, 0
2, 95418, Note_on_c, 0, 79, 0
2, 95424, Note_on_c, 0, 66, 95
2, 95424, Note_on_c, 0, 78, 94
2, 95424, Note_on_c, 1, 38, 107
2, 95424, Note_on_c, 1, 50, 106
2, 95488, Note_on_c, 0, 74, 87
2, 95488, Note_on_c, 1, 62, 84
2, 95540, Note_on_c, 0, 66, 0
2, 95540, Note_on_c, 0, 78, 0
2, 95546, Note_on_c, 0, 74, 0
2, 95546, Note_on_c, 1, 62, 0
2, 95552, Note_on_c, 0, 69, 103
2, 95552, Note_on_c, 0, 81, 102
2, 95552, Note_on_c, 0, 72, 89
2, 95552, Note_on_c, 1, 60, 88
2, 95610, Note_on_c, 0, 72, 0
2, 95610, Note_on_c, 1, 60, 0
2, 95616, Note_on_c, 0, 74, 102
2, 95616, Note_on_c, 1, 62, 101
2, 95668, Note_on_c, 0, 69, 0
2, 95668, Note_on_c, 0, 81, 0
2, 95674, Note_on_c, 0, 74, 0
2, 95674, Note_on_c, 1, 62, 0
2, 95680, Note_on_c, 0, 74, 114
2, 95680, Note_on_c, 0, 86, 113
2, 95680, Note_on_c, 1, 58, 116
2, 95680, Note_on_c, 1, 70, 118
2, 95738, Note_on_c, 0, 74, 0
2, 95738, Note_on_c, 0, 86, 0
2, 95738, Note_on_c, 1, 58, 0
2, 95738, Note_on_c, 1, 70, 0
2, 95744, Note_on_c, 0, 79, 80
2, 95744, Note_on_c, 1, 62, 91
2, 95744, Note_on_c, 1, 67, 89
2, 95802, Note_on_c, 0, 79, 0
2, 95802, Note_on_c, 1, 62, 0
2, 95802, Note_on_c, 1, 67, 0
2, 95808, Note_on_c, 0, 72, 105
2, 95808, Note_on_c, 0, 84, 105
2, 95808, Note_on_c, 1, 57, 103
2, 95808, Note_on_c, 1, 69, 101
2, 95866, Note_on_c, 0, 72, 0
2, 95866, Note_on_c, 0, 84, 0
2, 95866, Note_on_c, 1, 57, 0
2, 95866, Note_on_c, 1, 69, 0
2, 95872, Note_on_c, 0, 74, 83
2, 95872, Note_on_c, 0, 78, 82
2, 95872, Note_on_c, 1, 62, 88
2, 95872, Note_on_c, 1, 66, 87
2, 95930, Note_on_c, 0, 74, 0
2, 95930, Note_on_c, 0, 78, 0
2, 95930, Note_on_c, 1, 62, 0
2, 95930, Note_on_c, 1, 66, 0
2, 95936, Note_on_c, 0, 70, 109
2, 95936, Note_on_c, 0, 82, 106
2, 95936, Note_on_c, 1, 55, 100
2, 95936, Note_on_c, 1, 67, 104
2, 95994, Note_on_c, 0, 70, 0
2, 95994, Note_on_c, 0, 82, 0
2, 95994, Note_on_c, 1, 55, 0
2, 95994, Note_on_c, 1, 67, 0
2, 96000, Note_on_c, 0, 74, 89
2, 96000, Note_on_c, 0, 79, 87
2, 96000, Note_on_c, 1, 62, 85
2, 96058, Note_on_c, 0, 74, 0
2, 96058, Note_on_c, 0, 79, 0
2, 96058, Note_on_c, 1, 62, 0
2, 96064, Note_on_c, 0, 74, 113
2, 96064, Note_on_c, 0, 86, 113
2, 96064, Note_on_c, 1, 54, 105
2, 96064, Note_on_c, 1, 66, 103
2, 96122, Note_on_c, 0, 74, 0
2, 96122, Note_on_c, 0, 86, 0
2, 96122, Note_on_c, 1, 54, 0
2, 96122, Note_on_c, 1, 66, 0
2, 96128, Note_on_c, 0, 81, 87
2, 96128, Note_on_c, 1, 62, 89
2, 96186, Note_on_c, 0, 81, 0
2, 96186, Note_on_c, 1, 62, 0
2, 96192, Note_on_c, 0, 70, 102
2, 96192, Note_on_c, 0, 82, 100
2, 96192, Note_on_c, 1, 55, 109
2, 96192, Note_on_c, 1, 67, 109
2, 96250, Note_on_c, 0, 70, 0
2, 96250, Note_on_c, 0, 82, 0
2, 96250, Note_on_c, 1, 55, 0
2, 96250, Note_on_c, 1, 67, 0
2, 96256, Note_on_c, 0, 74, 86
2, 96256, Note_on_c, 0, 79, 85
2, 96256, Note_on_c, 1, 62, 83
2, 96314, Note_on_c, 0, 74, 0
2, 96314, Note_on_c, 0, 79, 0
2, 96314, Note_on_c, 1, 62, 0
2, 96320, Note_on_c, 0, 69, 99
2, 96320, Note_on_c, 0, 81, 100
2, 96320, Note_on_c, 1, 57, 104
2, 96320, Note_on_c, 1, 66, 106
2, 96378, Note_on_c, 0, 69, 0
2, 96378, Note_on_c, 0, 81, 0
2, 96378, Note_on_c, 1, 57, 0
2, 96378, Note_on_c, 1, 66, 0
2, 96384, Note_on_c, 0, 74, 88
2, 96384, Note_on_c, 0, 78, 89
2, 96384, Note_on_c, 1, 62, 89
2, 96442, Note_on_c, 0, 74, 0
2, 96442, Note_on_c, 0, 78, 0
2, 96442, Note_on_c, 1, 62, 0
2, 96448, Note_on_c, 0, 79, 100
2, 96448, Note_on_c, 1, 58, 109
2, 96448, Note_on_c, 1, 67, 109
2, 96506, Note_on_c, 0, 79, 0
2, 96506, Note_on_c, 1, 58, 0
2, 96506, Note_on_c, 1, 67, 0
2, 96512, Note_on_c, 0, 74, 115
2, 96512, Note_on_c, 0, 86, 113
2, 96512, Note_on_c, 1, 62, 86
2, 96570, Note_on_c, 0, 74, 0
2, 96570, Note_on_c, 0, 86, 0
2, 96570, Note_on_c, 1, 62, 0
2, 96576, Note_on_c, 0, 78, 79
2, 96576, Note_on_c, 1, 50, 94
2, 96576, Note_on_c, 1, 54, 95
2, 96576, Note_on_c, 1, 62, 95
2, 96634, Note_on_c, 0, 78, 0
2, 96634, Note_on_c, 1, 50, 0
2, 96634, Note_on_c, 1, 54, 0
2, 96634, Note_on_c, 1, 62, 0
2, 96640, Note_on_c, 0, 74, 114
2, 96640, Note_on_c, 0, 86, 113
2, 96640, Note_on_c, 1, 62, 96
2, 96698, Note_on_c, 0, 74, 0
2, 96698, Note_on_c, 0, 86, 0
2, 96698, Note_on_c, 1, 62, 0
2, 96704, Note_on_c, 0, 79, 83
2, 96704, Note_on_c, 1, 52, 105
2, 96704, Note_on_c, 1, 55, 106
2, 96704, Note_on_c, 1, 64, 105
2, 96762, Note_on_c, 0, 79, 0
2, 96762, Note_on_c, 1, 52, 0
2, 96762, Note_on_c, 1, 55, 0
2, 96762, Note_on_c, 1, 64, 0
2, 96768, Note_on_c, 0, 74, 109
2, 96768, Note_on_c, 0, 86, 112
2, 96768, Note_on_c, 1, 62, 89
2, 96826, Note_on_c, 0, 74, 0
2, 96826, Note_on_c, 0, 86, 0
2, 96826, Note_on_c, 1, 62, 0
2, 96832, Note_on_c, 0, 81, 87
2, 96832, Note_on_c, 1, 54, 104
2, 96832, Note_on_c, 1, 57, 106
2, 96832, Note_on_c, 1, 66, 104
2, 96890, Note_on_c, 0, 81, 0
2, 96890, Note_on_c, 1, 54, 0
2, 96890, Note_on_c, 1, 57, 0
2, 96890, Note_on_c, 1, 66, 0
2, 96896, Note_on_c, 0, 74, 107
2, 96896, Note_on_c, 0, 86, 107
2, 96896, Note_on_c, 1, 62, 87
2, 96954, Note_on_c, 0, 74, 0
2, 96954, Note_on_c, 0, 86, 0
2, 96954, Note_on_c, 1, 62, 0
2, 96960, Note_on_c, 0, 70, 92
2, 96960, Note_on_c, 0, 82, 91
2, 96960, Note_on_c, 1, 55, 110
2, 96960, Note_on_c, 1, 58, 110
2, 96960, Note_on_c, 1, 67, 112
2, 97018, Note_on_c, 0, 70, 0
2, 97018, Note_on_c, 0, 82, 0
2, 97018, Note_on_c, 1, 55, 0
2, 97018, Note_on_c, 1, 58, 0
2, 97018, Note_on_c, 1, 67, 0
2, 97024, Note_on_c, 0, 79, 86
2, 97024, Note_on_c, 1, 62, 82
2, 97082, Note_on_c, 0, 79, 0
2, 97082, Note_on_c, 1, 62, 0
2, 97088, Note_on_c, 0, 74, 111
2, 97088, Note_on_c, 0, 86, 110
2, 97088, Note_on_c, 1, 54, 79
2, 97088, Note_on_c, 1, 57, 80
2, 97088, Note_on_c, 1, 67, 85
2, 97146, Note_on_c, 0, 74, 0
2, 97146, Note_on_c, 0, 86, 0
2, 97146, Note_on_c, 1, 54, 0
2, 97146, Note_on_c, 1, 57, 0
2, 97152, Note_on_c, 0, 81, 85
2, 97152, Note_on_c, 1, 62, 105
2, 97204, Note_on_c, 1, 67, 0
2, 97210, Note_on_c, 0, 81, 0
2, 97210, Note_on_c, 1, 62, 0
2, 97216, Note_on_c, 0, 70, 104
2, 97216, Note_on_c, 0, 82, 101
2, 97216, Note_on_c, 1, 55, 113
2, 97216, Note_on_c, 1, 58, 114
2, 97216, Note_on_c, 1, 67, 111
2, 97216, Note_on_c, 1, 70, 104
2, 97274, Note_on_c, 0, 70, 0
2, 97274, Note_on_c, 0, 82, 0
2, 97274, Note_on_c, 1, 55, 0
2, 97274, Note_on_c, 1, 58, 0
2, 97274, Note_on_c, 1, 67, 0
2, 97280, Note_on_c, 0, 79, 87
2, 97280, Note_on_c, 1, 62, 86
2, 97332, Note_on_c, 1, 70, 0
2, 97338, Note_on_c, 0, 79, 0
2, 97338, Note_on_c, 1, 62, 0
2, 97344, Note_on_c, 0, 72, 106
2, 97344, Note_on_c, 0, 84, 108
2, 97344, Note_on_c, 1, 57, 113
2, 97344, Note_on_c, 1, 60, 113
2, 97344, Note_on_c, 1, 69, 112
2, 97344, Note_on_c, 1, 72, 103
2, 97402, Note_on_c, 0, 72, 0
2, 97402, Note_on_c, 0, 84, 0
2, 97402, Note_on_c, 1, 57, 0
2, 97402, Note_on_c, 1, 60, 0
2, 97402, Note_on_c, 1, 69, 0
2, 97408, Note_on_c, 0, 81, 90
2, 97408, Note_on_c, 1, 62, 81
2, 97460, Note_on_c, 1, 72, 0
2, 97466, Note_on_c, 0, 81, 0
2, 97466, Note_on_c, 1, 62, 0
2, 97472, Note_on_c, 0, 74, 110
2, 97472, Note_on_c, 0, 86, 112
2, 97472, Note_on_c, 1, 58, 114
2, 97472, Note_on_c, 1, 62, 114
2, 97472, Note_on_c, 1, 70, 117
2, 97530, Note_on_c, 0, 74, 0
2, 97530, Note_on_c, 0, 86, 0
2, 97536, Note_on_c, 0, 72, 60
2, 97588, Note_on_c, 1, 38, 0
2, 97588, Note_on_c, 1, 50, 0
2, 97588, Note_on_c, 1, 58, 0
2, 97588, Note_on_c, 1, 62, 0
2, 97588, Note_on_c, 1, 70, 0
2, 97594, Note_on_c, 0, 72, 0
2, 97600, Note_on_c, 0, 70, 70
2, 97600, Note_on_c, 1, 57, 62
2, 97600, Note_on_c, 1, 60, 64
2, 97658, Note_on_c, 0, 70, 0
2, 97664, Note_on_c, 0, 69, 76
2, 97716, Note_on_c, 1, 57, 0
2, 97716, Note_on_c, 1, 60, 0
2, 97722, Note_on_c, 0, 69, 0
2, 97728, Note_on_c, 0, 79, 99
2, 97728, Note_on_c, 0, 70, 76
2, 97728, Note_on_c, 1, 67, 70
2, 97728, Note_on_c, 1, 55, 73
2, 97728, Note_on_c, 1, 58, 73
2, 97786, Note_on_c, 0, 70, 0
2, 97792, Note_on_c, 0, 69, 74
2, 97844, Note_on_c, 1, 55, 0
2, 97844, Note_on_c, 1, 58, 0
2, 97850, Note_on_c, 0, 69, 0
2, 97856, Note_on_c, 0, 70, 81
2, 97856, Note_on_c, 1, 31, 70
2, 97856, Note_on_c, 1, 43, 71
2, 97914, Note_on_c, 0, 70, 0
2, 97920, Note_on_c, 0, 67, 72
2, 97959, Note_on_c, 1, 67, 0
2, 97972, Note_on_c, 1, 31, 0
2, 97972, Note_on_c, 1, 43, 0
2, 97984, Note_on_c, 0, 69, 74
2, 97984, Note_on_c, 1, 36, 92
2, 97984, Note_on_c, 1, 48, 91
2, 98042, Note_on_c, 0, 69, 0
2, 98048, Note_on_c, 0, 70, 83
2, 98100, Note_on_c, 1, 36, 0
2, 98100, Note_on_c, 1, 48, 0
2, 98106, Note_on_c, 0, 70, 0
2, 98112, Note_on_c, 0, 72, 86
2, 98112, Note_on_c, 1, 33, 75
2, 98112, Note_on_c, 1, 45, 74
2, 98170, Note_on_c, 0, 72, 0
2, 98176, Note_on_c, 0, 74, 86
2, 98190, Note_on_c, 0, 79, 0
2, 98215, Note_on_c, 0, 67, 0
2, 98228, Note_on_c, 1, 33, 0
2, 98228, Note_on_c, 1, 45, 0
2, 98234, Note_on_c, 0, 74, 0
2, 98240, Note_on_c, 0, 66, 77
2, 98240, Note_on_c, 0, 78, 79
2, 98240, Note_on_c, 0, 75, 111
2, 98240, Note_on_c, 1, 38, 94
2, 98240, Note_on_c, 1, 50, 95
2, 98298, Note_on_c, 0, 75, 0
2, 98304, Note_on_c, 0, 74, 75
2, 98356, Note_on_c, 1, 38, 0
2, 98356, Note_on_c, 1, 50, 0
2, 98362, Note_on_c, 0, 74, 0
2, 98368, Note_on_c, 0, 72, 73
2, 98368, Note_on_c, 1, 26, 61
2, 98368, Note_on_c, 1, 38, 60
2, 98426, Note_on_c, 0, 72, 0
2, 98432, Note_on_c, 0, 74, 83
2, 98471, Note_on_c, 0, 66, 0
2, 98471, Note_on_c, 0, 78, 0
2, 98484, Note_on_c, 1, 26, 0
2, 98484, Note_on_c, 1, 38, 0
2, 98490, Note_on_c, 0, 74, 0
2, 98496, Note_on_c, 0, 79, 86
2, 98496, Note_on_c, 0, 67, 73
2, 98496, Note_on_c, 0, 70, 74
2, 98496, Note_on_c, 1, 31, 75
2, 98496, Note_on_c, 1, 43, 75
2, 98554, Note_on_c, 0, 70, 0
2, 98560, Note_on_c, 0, 72, 83
2, 98612, Note_on_c, 0, 79, 0
2, 98612, Note_on_c, 0, 67, 0
2, 98618, Note_on_c, 0, 72, 0
2, 98624, Note_on_c, 0, 57, 59
2, 98624, Note_on_c, 0, 69, 72
2, 98682, Note_on_c, 0, 69, 0
2, 98688, Note_on_c, 0, 70, 82
2, 98727, Note_on_c, 1, 31, 0
2, 98727, Note_on_c, 1, 43, 0
2, 98740, Note_on_c, 0, 57, 0
2, 98746, Note_on_c, 0, 70, 0
2, 98752, Note_on_c, 0, 58, 84
2, 98752, Note_on_c, 0, 67, 75
2, 98810, Note_on_c, 0, 58, 0
2, 98816, Note_on_c, 0, 69, 99
2, 98868, Note_on_c, 0, 67, 0
2, 98874, Note_on_c, 0, 69, 0
2, 98880, Note_on_c, 0, 67, 77
2, 98880, Note_on_c, 0, 59, 88
2, 98880, Note_on_c, 0, 71, 87
2, 98880, Note_on_c, 1, 31, 70
2, 98880, Note_on_c, 1, 43, 69
2, 98938, Note_on_c, 0, 67, 0
2, 98944, Note_on_c, 0, 65, 76
2, 98996, Note_on_c, 0, 59, 0
2, 98996, Note_on_c, 0, 71, 0
2, 98996, Note_on_c, 1, 31, 0
2, 98996, Note_on_c, 1, 43, 0
2, 99002, Note_on_c, 0, 65, 0
2, 99008, Note_on_c, 0, 60, 73
2, 99008, Note_on_c, 0, 72, 73
2, 99008, Note_on_c, 0, 63, 79
2, 99008, Note_on_c, 1, 36, 88
2, 99008, Note_on_c, 1, 48, 88
2, 99066, Note_on_c, 0, 60, 0
2, 99066, Note_on_c, 0, 72, 0
2, 99066, Note_on_c, 0, 63, 0
2, 99072, Note_on_c, 0, 75, 84
2, 99072, Note_on_c, 0, 75, 100
2, 99072, Note_on_c, 1, 63, 72
2, 99072, Note_on_c, 1, 63, 69
2, 99130, Note_on_c, 0, 75, 0
2, 99130, Note_on_c, 1, 63, 0
2, 99136, Note_on_c, 0, 77, 87
2, 99136, Note_on_c, 1, 65, 85
2, 99194, Note_on_c, 0, 77, 0
2, 99194, Note_on_c, 1, 65, 0
2, 99200, Note_on_c, 0, 79, 83
2, 99200, Note_on_c, 1, 67, 83
2, 99245, Note_on_c, 0, 75, 0
2, 99245, Note_on_c, 1, 63, 0
2, 99258, Note_on_c, 0, 79, 0
2, 99258, Note_on_c, 1, 67, 0
2, 99264, Note_on_c, 0, 80, 111
2, 99264, Note_on_c, 0, 74, 82
2, 99264, Note_on_c, 1, 68, 114
2, 99264, Note_on_c, 1, 62, 76
2, 99322, Note_on_c, 0, 80, 0
2, 99322, Note_on_c, 1, 68, 0
2, 99328, Note_on_c, 0, 79, 75
2, 99328, Note_on_c, 1, 67, 76
2, 99354, Note_on_c, 1, 36, 0
2, 99354, Note_on_c, 1, 48, 0
2, 99380, Note_on_c, 0, 74, 0
2, 99386, Note_on_c, 0, 79, 0
2, 99386, Note_on_c, 1, 67, 0
2, 99392, Note_on_c, 0, 77, 74
2, 99392, Note_on_c, 0, 74, 80
2, 99392, Note_on_c, 1, 35, 75
2, 99392, Note_on_c, 1, 47, 78
2, 99450, Note_on_c, 0, 77, 0
2, 99450, Note_on_c, 0, 74, 0
2, 99456, Note_on_c, 0, 79, 82
2, 99456, Note_on_c, 0, 67, 63
2, 99495, Note_on_c, 1, 62, 0
2, 99508, Note_on_c, 1, 35, 0
2, 99508, Note_on_c, 1, 47, 0
2, 99514, Note_on_c, 0, 79, 0
2, 99520, Note_on_c, 0, 75, 76
2, 99520, Note_on_c, 1, 36, 87
2, 99520, Note_on_c, 1, 48, 86
2, 99578, Note_on_c, 0, 75, 0
2, 99584, Note_on_c, 0, 77, 83
2, 99636, Note_on_c, 1, 36, 0
2, 99636, Note_on_c, 1, 48, 0
2, 99642, Note_on_c, 0, 77, 0
2, 99648, Note_on_c, 0, 74, 75
2, 99648, Note_on_c, 1, 62, 103
2, 99706, Note_on_c, 0, 74, 0
2, 99712, Note_on_c, 0, 75, 84
2, 99751, Note_on_c, 0, 67, 0
2, 99764, Note_on_c, 1, 62, 0
2, 99770, Note_on_c, 0, 75, 0
2, 99776, Note_on_c, 0, 72, 76
2, 99776, Note_on_c, 1, 63, 88
2, 99834, Note_on_c, 1, 63, 0
2, 99840, Note_on_c, 1, 65, 88
2, 99892, Note_on_c, 0, 72, 0
2, 99898, Note_on_c, 1, 65, 0
2, 99904, Note_on_c, 0, 70, 74
2, 99904, Note_on_c, 1, 62, 74
2, 99962, Note_on_c, 1, 62, 0
2, 99968, Note_on_c, 1, 63, 85
2, 100020, Note_on_c, 0, 70, 0
2, 100026, Note_on_c, 1, 63, 0
2, 100032, Note_on_c, 0, 69, 77
2, 100032, Note_on_c, 1, 60, 76
2, 100090, Note_on_c, 1, 60, 0
2, 100096, Note_on_c, 1, 63, 86
2, 100148, Note_on_c, 0, 69, 0
2, 100154, Note_on_c, 1, 63, 0
2, 100160, Note_on_c, 0, 70, 102
2, 100160, Note_on_c, 0, 82, 101
2, 100160, Note_on_c, 1, 62, 75
2, 100218, Note_on_c, 1, 62, 0
2, 100224, Note_on_c, 1, 65, 85
2, 100282, Note_on_c, 1, 65, 0
2, 100288, Note_on_c, 1, 67, 90
2, 100346, Note_on_c, 1, 67, 0
2, 100352, Note_on_c, 1, 65, 73
2, 100391, Note_on_c, 0, 70, 0
2, 100391, Note_on_c, 0, 82, 0
2, 100410, Note_on_c, 1, 65, 0
2, 100416, Note_on_c, 0, 69, 81
2, 100416, Note_on_c, 0, 81, 81
2, 100416, Note_on_c, 1, 63, 75
2, 100474, Note_on_c, 1, 63, 0
2, 100480, Note_on_c, 1, 65, 86
2, 100538, Note_on_c, 1, 65, 0
2, 100544, Note_on_c, 1, 62, 78
2, 100602, Note_on_c, 1, 62, 0
2, 100608, Note_on_c, 1, 58, 70
2, 100660, Note_on_c, 0, 69, 0
2, 100660, Note_on_c, 0, 81, 0
2, 100666, Note_on_c, 1, 58, 0
2, 100672, Note_on_c, 0, 67, 73
2, 100672, Note_on_c, 0, 79, 74
2, 100672, Note_on_c, 1, 63, 91
2, 100730, Note_on_c, 1, 63, 0
2, 100736, Note_on_c, 1, 62, 78
2, 100794, Note_on_c, 1, 62, 0
2, 100800, Note_on_c, 1, 61, 78
2, 100858, Note_on_c, 1, 61, 0
2, 100864, Note_on_c, 1, 57, 70
2, 100903, Note_on_c, 0, 67, 0
2, 100903, Note_on_c, 0, 79, 0
2, 100922, Note_on_c, 1, 57, 0
2, 100928, Note_on_c, 0, 66, 75
2, 100928, Note_on_c, 0, 78, 75
2, 100928, Note_on_c, 1, 62, 90
2, 100986, Note_on_c, 1, 62, 0
2, 100992, Note_on_c, 1, 60, 75
2, 101044, Note_on_c, 0, 66, 0
2, 101044, Note_on_c, 0, 78, 0
2, 101050, Note_on_c, 1, 60, 0
2, 101056, Note_on_c, 0, 65, 79
2, 101056, Note_on_c, 0, 77, 78
2, 101056, Note_on_c, 1, 59, 80
2, 101114, Note_on_c, 1, 59, 0
2, 101120, Note_on_c, 1, 55, 68
2, 101172, Note_on_c, 0, 65, 0
2, 101172, Note_on_c, 0, 77, 0
2, 101178, Note_on_c, 1, 55, 0
2, 101184, Note_on_c, 0, 64, 75
2, 101184, Note_on_c, 0, 76, 73
2, 101184, Note_on_c, 1, 60, 89
2, 101242, Note_on_c, 1, 60, 0
2, 101248, Note_on_c, 1, 58, 76
2, 101306, Note_on_c, 1, 58, 0
2, 101312, Note_on_c, 1, 57, 76
2, 101370, Note_on_c, 1, 57, 0
2, 101376, Note_on_c, 1, 53, 69
2, 101415, Note_on_c, 0, 64, 0
2, 101415, Note_on_c, 0, 76, 0
2, 101434, Note_on_c, 1, 53, 0
2, 101440, Note_on_c, 0, 74, 75
2, 101440, Note_on_c, 1, 58, 87
2, 101498, Note_on_c, 0, 74, 0
2, 101498, Note_on_c, 1, 58, 0
2, 101504, Note_on_c, 0, 70, 95
2, 101504, Note_on_c, 0, 82, 96
2, 101504, Note_on_c, 1, 62, 88
2, 101562, Note_on_c, 0, 70, 0
2, 101562, Note_on_c, 0, 82, 0
2, 101562, Note_on_c, 1, 62, 0
2, 101568, Note_on_c, 0, 81, 79
2, 101568, Note_on_c, 0, 69, 76
2, 101568, Note_on_c, 1, 60, 78
2, 101626, Note_on_c, 0, 81, 0
2, 101626, Note_on_c, 1, 60, 0
2, 101632, Note_on_c, 0, 82, 82
2, 101632, Note_on_c, 1, 62, 83
2, 101690, Note_on_c, 0, 82, 0
2, 101690, Note_on_c, 1, 62, 0
2, 101696, Note_on_c, 0, 81, 77
2, 101696, Note_on_c, 1, 60, 74
2, 101741, Note_on_c, 0, 69, 0
2, 101754, Note_on_c, 0, 81, 0
2, 101754, Note_on_c, 1, 60, 0
2, 101760, Note_on_c, 0, 79, 73
2, 101760, Note_on_c, 0, 67, 73
2, 101760, Note_on_c, 1, 58, 72
2, 101818, Note_on_c, 0, 79, 0
2, 101818, Note_on_c, 0, 67, 0
2, 101818, Note_on_c, 1, 58, 0
2, 101824, Note_on_c, 0, 78, 79
2, 101824, Note_on_c, 1, 66, 71
2, 101824, Note_on_c, 1, 57, 77
2, 101882, Note_on_c, 0, 78, 0
2, 101882, Note_on_c, 1, 57, 0
2, 101888, Note_on_c, 0, 75, 95
2, 101888, Note_on_c, 0, 87, 96
2, 101888, Note_on_c, 1, 60, 87
2, 101946, Note_on_c, 0, 75, 0
2, 101946, Note_on_c, 0, 87, 0
2, 101946, Note_on_c, 1, 60, 0
2, 101952, Note_on_c, 0, 74, 79
2, 101952, Note_on_c, 0, 86, 78
2, 101952, Note_on_c, 1, 58, 75
2, 102010, Note_on_c, 0, 74, 0
2, 102010, Note_on_c, 0, 86, 0
2, 102010, Note_on_c, 1, 58, 0
2, 102016, Note_on_c, 0, 72, 76
2, 102016, Note_on_c, 0, 84, 77
2, 102016, Note_on_c, 1, 57, 74
2, 102055, Note_on_c, 1, 66, 0
2, 102074, Note_on_c, 0, 72, 0
2, 102074, Note_on_c, 0, 84, 0
2, 102074, Note_on_c, 1, 57, 0
2, 102080, Note_on_c, 0, 70, 79
2, 102080, Note_on_c, 0, 82, 77
2, 102080, Note_on_c, 1, 67, 85
2, 102080, Note_on_c, 1, 55, 76
2, 102138, Note_on_c, 0, 70, 0
2, 102138, Note_on_c, 0, 82, 0
2, 102138, Note_on_c, 1, 67, 0
2, 102138, Note_on_c, 1, 55, 0
2, 102144, Note_on_c, 0, 84, 99
2, 102144, Note_on_c, 0, 93, 101
2, 102144, Note_on_c, 1, 69, 85
2, 102144, Note_on_c, 1, 60, 91
2, 102202, Note_on_c, 0, 84, 0
2, 102202, Note_on_c, 0, 93, 0
2, 102202, Note_on_c, 1, 69, 0
2, 102202, Note_on_c, 1, 60, 0
2, 102208, Note_on_c, 0, 82, 79
2, 102208, Note_on_c, 0, 91, 78
2, 102208, Note_on_c, 1, 67, 73
2, 102208, Note_on_c, 1, 58, 74
2, 102266, Note_on_c, 0, 82, 0
2, 102266, Note_on_c, 0, 91, 0
2, 102266, Note_on_c, 1, 67, 0
2, 102266, Note_on_c, 1, 58, 0
2, 102272, Note_on_c, 0, 81, 77
2, 102272, Note_on_c, 0, 90, 76
2, 102272, Note_on_c, 1, 66, 74
2, 102272, Note_on_c, 1, 57, 75
2, 102330, Note_on_c, 0, 81, 0
2, 102330, Note_on_c, 0, 90, 0
2, 102330, Note_on_c, 1, 66, 0
2, 102330, Note_on_c, 1, 57, 0
2, 102336, Note_on_c, 0, 91, 87
2, 102336, Note_on_c, 0, 82, 73
2, 102336, Note_on_c, 1, 67, 83
2, 102336, Note_on_c, 1, 58, 87
2, 102394, Note_on_c, 0, 82, 0
2, 102394, Note_on_c, 1, 58, 0
2, 102400, Note_on_c, 0, 81, 74
2, 102400, Note_on_c, 1, 60, 86
2, 102458, Note_on_c, 0, 81, 0
2, 102458, Note_on_c, 1, 60, 0
2, 102464, Note_on_c, 0, 79, 73
2, 102464, Note_on_c, 1, 58, 77
2, 102509, Note_on_c, 0, 91, 0
2, 102522, Note_on_c, 0, 79, 0
2, 102522, Note_on_c, 1, 58, 0
2, 102528, Note_on_c, 0, 89, 75
2, 102528, Note_on_c, 0, 77, 75
2, 102528, Note_on_c, 1, 57, 74
2, 102586, Note_on_c, 0, 89, 0
2, 102586, Note_on_c, 0, 77, 0
2, 102586, Note_on_c, 1, 57, 0
2, 102592, Note_on_c, 0, 87, 77
2, 102592, Note_on_c, 0, 75, 76
2, 102592, Note_on_c, 1, 55, 77
2, 102650, Note_on_c, 0, 75, 0
2, 102650, Note_on_c, 1, 55, 0
2, 102656, Note_on_c, 0, 77, 84
2, 102656, Note_on_c, 1, 57, 85
2, 102708, Note_on_c, 0, 87, 0
2, 102708, Note_on_c, 1, 67, 0
2, 102714, Note_on_c, 0, 77, 0
2, 102714, Note_on_c, 1, 57, 0
2, 102720, Note_on_c, 0, 86, 75
2, 102720, Note_on_c, 0, 74, 72
2, 102720, Note_on_c, 1, 65, 74
2, 102720, Note_on_c, 1, 53, 70
2, 102778, Note_on_c, 0, 74, 0
2, 102778, Note_on_c, 1, 53, 0
2, 102784, Note_on_c, 0, 75, 82
2, 102784, Note_on_c, 1, 55, 82
2, 102836, Note_on_c, 0, 86, 0
2, 102836, Note_on_c, 1, 65, 0
2, 102842, Note_on_c, 0, 75, 0
2, 102842, Note_on_c, 1, 55, 0
2, 102848, Note_on_c, 0, 73, 76
2, 102848, Note_on_c, 0, 85, 74
2, 102848, Note_on_c, 1, 52, 74
2, 102848, Note_on_c, 1, 64, 76
2, 102848, Note_on_c, 1, 53, 79
2, 102906, Note_on_c, 1, 53, 0
2, 102912, Note_on_c, 0, 82, 70
2, 102912, Note_on_c, 1, 58, 87
2, 102970, Note_on_c, 0, 82, 0
2, 102970, Note_on_c, 1, 58, 0
2, 102976, Note_on_c, 0, 81, 73
2, 102976, Note_on_c, 1, 57, 75
2, 103034, Note_on_c, 0, 81, 0
2, 103034, Note_on_c, 1, 57, 0
2, 103040, Note_on_c, 0, 79, 68
2, 103040, Note_on_c, 1, 55, 69
2, 103079, Note_on_c, 0, 73, 0
2, 103079, Note_on_c, 0, 85, 0
2, 103079, Note_on_c, 1, 52, 0
2, 103079, Note_on_c, 1, 64, 0
2, 103098, Note_on_c, 0, 79, 0
2, 103098, Note_on_c, 1, 55, 0
2, 103104, Note_on_c, 0, 86, 74
2, 103104, Note_on_c, 0, 74, 77
2, 103104, Note_on_c, 0, 81, 80
2, 103104, Note_on_c, 1, 54, 77
2, 103104, Note_on_c, 1, 66, 78
2, 103104, Note_on_c, 1, 57, 82
2, 103162, Note_on_c, 1, 57, 0
2, 103168, Note_on_c, 1, 63, 83
2, 103226, Note_on_c, 1, 63, 0
2, 103232, Note_on_c, 1, 62, 68
2, 103290, Note_on_c, 1, 62, 0
2, 103296, Note_on_c, 1, 60, 65
2, 103335, Note_on_c, 0, 86, 0
2, 103335, Note_on_c, 0, 74, 0
2, 103335, Note_on_c, 0, 81, 0
2, 103335, Note_on_c, 1, 54, 0
2, 103335, Note_on_c, 1, 66, 0
2, 103354, Note_on_c, 1, 60, 0
2, 103360, Note_on_c, 0, 72, 63
2, 103360, Note_on_c, 0, 84, 62
2, 103360, Note_on_c, 0, 78, 62
2, 103360, Note_on_c, 1, 50, 59
2, 103360, Note_on_c, 1, 62, 59
2, 103360, Note_on_c, 1, 62, 73
2, 103418, Note_on_c, 1, 62, 0
2, 103424, Note_on_c, 1, 60, 63
2, 103482, Note_on_c, 1, 60, 0
2, 103488, Note_on_c, 1, 58, 60
2, 103546, Note_on_c, 1, 58, 0
2, 103552, Note_on_c, 1, 57, 57
2, 103591, Note_on_c, 0, 72, 0
2, 103591, Note_on_c, 0, 84, 0
2, 103591, Note_on_c, 0, 78, 0
2, 103591, Note_on_c, 1, 50, 0
2, 103591, Note_on_c, 1, 62, 0
2, 103610, Note_on_c, 1, 57, 0
2, 103616, Note_on_c, 0, 70, 63
2, 103616, Note_on_c, 0, 82, 61
2, 103616, Note_on_c, 0, 79, 70
2, 103616, Note_on_c, 1, 67, 72
2, 103616, Note_on_c, 1, 55, 61
2, 103674, Note_on_c, 0, 79, 0
2, 103674, Note_on_c, 1, 67, 0
2, 103680, Note_on_c, 0, 77, 57
2, 103680, Note_on_c, 1, 65, 60
2, 103738, Note_on_c, 0, 77, 0
2, 103738, Note_on_c, 1, 65, 0
2, 103744, Note_on_c, 0, 75, 57
2, 103744, Note_on_c, 1, 63, 58
2, 103802, Note_on_c, 0, 75, 0
2, 103802, Note_on_c, 1, 63, 0
2, 103808, Note_on_c, 0, 74, 59
2, 103808, Note_on_c, 1, 62, 57
2, 103847, Note_on_c, 0, 70, 0
2, 103847, Note_on_c, 0, 82, 0
2, 103847, Note_on_c, 1, 55, 0
2, 103866, Note_on_c, 0, 74, 0
2, 103866, Note_on_c, 1, 62, 0
2, 103872, Note_on_c, 0, 69, 61
2, 103872, Note_on_c, 0, 81, 62
2, 103872, Note_on_c, 0, 73, 60
2, 103872, Note_on_c, 1, 61, 64
2, 103872, Note_on_c, 1, 57, 70
2, 103930, Note_on_c, 1, 57, 0
2, 103936, Note_on_c, 1, 58, 67
2, 103988, Note_on_c, 0, 69, 0
2, 103988, Note_on_c, 0, 81, 0
2, 103988, Note_on_c, 1, 61, 0
2, 103994, Note_on_c, 1, 58, 0
2, 104000, Note_on_c, 0, 73, 68
2, 104000, Note_on_c, 0, 76, 69
2, 104000, Note_on_c, 0, 85, 68
2, 104000, Note_on_c, 1, 57, 61
2, 104058, Note_on_c, 1, 57, 0
2, 104064, Note_on_c, 1, 55, 60
2, 104103, Note_on_c, 0, 73, 0
2, 104116, Note_on_c, 0, 73, 0
2, 104116, Note_on_c, 0, 76, 0
2, 104116, Note_on_c, 0, 85, 0
2, 104122, Note_on_c, 1, 55, 0
2, 104128, Note_on_c, 0, 74, 69
2, 104128, Note_on_c, 0, 77, 71
2, 104128, Note_on_c, 0, 86, 70
2, 104128, Note_on_c, 1, 53, 62
2, 104186, Note_on_c, 1, 53, 0
2, 104192, Note_on_c, 1, 55, 64
2, 104244, Note_on_c, 0, 74, 0
2, 104244, Note_on_c, 0, 77, 0
2, 104244, Note_on_c, 0, 86, 0
2, 104250, Note_on_c, 1, 55, 0
2, 104256, Note_on_c, 0, 76, 65
2, 104256, Note_on_c, 0, 79, 66
2, 104256, Note_on_c, 0, 88, 68
2, 104256, Note_on_c, 1, 52, 58
2, 104314, Note_on_c, 1, 52, 0
2, 104320, Note_on_c, 1, 53, 67
2, 104372, Note_on_c, 0, 76, 0
2, 104372, Note_on_c, 0, 79, 0
2, 104372, Note_on_c, 0, 88, 0
2, 104378, Note_on_c, 1, 53, 0
2, 104384, Note_on_c, 0, 77, 64
2, 104384, Note_on_c, 0, 89, 67
2, 104384, Note_on_c, 0, 81, 57
2, 104384, Note_on_c, 1, 50, 57
2, 104442, Note_on_c, 0, 81, 0
2, 104448, Note_on_c, 0, 79, 57
2, 104506, Note_on_c, 0, 79, 0
2, 104512, Note_on_c, 0, 81, 66
2, 104570, Note_on_c, 0, 81, 0
2, 104576, Note_on_c, 0, 79, 57
2, 104615, Note_on_c, 0, 77, 0
2, 104615, Note_on_c, 0, 89, 0
2, 104615, Note_on_c, 1, 50, 0
2, 104634, Note_on_c, 0, 79, 0
2, 104640, Note_on_c, 0, 88, 65
2, 104640, Note_on_c, 0, 79, 66
2, 104640, Note_on_c, 0, 86, 58
2, 104640, Note_on_c, 1, 76, 59
2, 104640, Note_on_c, 1, 67, 82
2, 104640, Note_on_c, 1, 74, 59
2, 104698, Note_on_c, 0, 79, 0
2, 104698, Note_on_c, 1, 67, 0
2, 104704, Note_on_c, 0, 81, 66
2, 104704, Note_on_c, 1, 69, 70
2, 104762, Note_on_c, 0, 81, 0
2, 104762, Note_on_c, 1, 69, 0
2, 104768, Note_on_c, 0, 79, 58
2, 104768, Note_on_c, 1, 67, 60
2, 104826, Note_on_c, 0, 79, 0
2, 104826, Note_on_c, 1, 67, 0
2, 104832, Note_on_c, 0, 81, 65
2, 104832, Note_on_c, 1, 69, 65
2, 104871, Note_on_c, 0, 86, 0
2, 104871, Note_on_c, 1, 74, 0
2, 104890, Note_on_c, 0, 81, 0
2, 104890, Note_on_c, 1, 69, 0
2, 104896, Note_on_c, 0, 82, 70
2, 104896, Note_on_c, 0, 85, 61
2, 104896, Note_on_c, 1, 70, 69
2, 104896, Note_on_c, 1, 73, 57
2, 104954, Note_on_c, 0, 82, 0
2, 104954, Note_on_c, 1, 70, 0
2, 104960, Note_on_c, 0, 81, 60
2, 104960, Note_on_c, 1, 69, 60
2, 105018, Note_on_c, 0, 81, 0
2, 105018, Note_on_c, 1, 69, 0
2, 105024, Note_on_c, 0, 79, 59
2, 105024, Note_on_c, 1, 67, 59
2, 105082, Note_on_c, 0, 79, 0
2, 105082, Note_on_c, 1, 67, 0
2, 105088, Note_on_c, 0, 81, 65
2, 105088, Note_on_c, 1, 69, 64
2, 105102, Note_on_c, 0, 88, 0
2, 105102, Note_on_c, 1, 76, 0
2, 105127, Note_on_c, 0, 85, 0
2, 105127, Note_on_c, 1, 73, 0
2, 105146, Note_on_c, 0, 81, 0
2, 105146, Note_on_c, 1, 69, 0
2, 105152, Note_on_c, 0, 86, 58
2, 105152, Note_on_c, 0, 81, 66
2, 105152, Note_on_c, 1, 65, 59
2, 105210, Note_on_c, 0, 81, 0
2, 105210, Note_on_c, 1, 65, 0
2, 105216, Note_on_c, 0, 82, 66
2, 105216, Note_on_c, 1, 67, 64
2, 105274, Note_on_c, 0, 82, 0
2, 105274, Note_on_c, 1, 67, 0
2, 105280, Note_on_c, 0, 79, 58
2, 105280, Note_on_c, 1, 64, 58
2, 105338, Note_on_c, 0, 79, 0
2, 105338, Note_on_c, 1, 64, 0
2, 105344, Note_on_c, 0, 81, 66
2, 105344, Note_on_c, 1, 65, 65
2, 105402, Note_on_c, 0, 81, 0
2, 105402, Note_on_c, 1, 65, 0
2, 105408, Note_on_c, 0, 77, 58
2, 105408, Note_on_c, 1, 62, 60
2, 105466, Note_on_c, 1, 62, 0
2, 105472, Note_on_c, 1, 60, 67
2, 105472, Note_on_c, 1, 64, 66
2, 105498, Note_on_c, 0, 86, 0
2, 105524, Note_on_c, 0, 77, 0
2, 105530, Note_on_c, 1, 60, 0
2, 105530, Note_on_c, 1, 64, 0
2, 105536, Note_on_c, 0, 89, 67
2, 105536, Note_on_c, 1, 58, 59
2, 105536, Note_on_c, 1, 62, 58
2, 105594, Note_on_c, 1, 58, 0
2, 105594, Note_on_c, 1, 62, 0
2, 105600, Note_on_c, 1, 57, 58
2, 105600, Note_on_c, 1, 60, 57
2, 105652, Note_on_c, 0, 89, 0
2, 105658, Note_on_c, 1, 57, 0
2, 105658, Note_on_c, 1, 60, 0
2, 105664, Note_on_c, 0, 79, 70
2, 105664, Note_on_c, 0, 91, 72
2, 105664, Note_on_c, 1, 58, 71
2, 105664, Note_on_c, 1, 62, 70
2, 105722, Note_on_c, 1, 58, 0
2, 105722, Note_on_c, 1, 62, 0
2, 105728, Note_on_c, 1, 57, 58
2, 105728, Note_on_c, 1, 60, 57
2, 105780, Note_on_c, 0, 79, 0
2, 105780, Note_on_c, 0, 91, 0
2, 105786, Note_on_c, 1, 57, 0
2, 105786, Note_on_c, 1, 60, 0
2, 105792, Note_on_c, 0, 81, 56
2, 105792, Note_on_c, 0, 86, 57
2, 105792, Note_on_c, 1, 55, 60
2, 105792, Note_on_c, 1, 58, 59
2, 105850, Note_on_c, 1, 55, 0
2, 105850, Note_on_c, 1, 58, 0
2, 105856, Note_on_c, 1, 53, 59
2, 105856, Note_on_c, 1, 57, 59
2, 105908, Note_on_c, 0, 81, 0
2, 105908, Note_on_c, 0, 86, 0
2, 105914, Note_on_c, 1, 53, 0
2, 105914, Note_on_c, 1, 57, 0
2, 105920, Note_on_c, 0, 79, 62
2, 105920, Note_on_c, 0, 85, 62
2, 105920, Note_on_c, 1, 52, 60
2, 105920, Note_on_c, 1, 55, 61
2, 105978, Note_on_c, 1, 52, 0
2, 105978, Note_on_c, 1, 55, 0
2, 105984, Note_on_c, 1, 53, 65
2, 105984, Note_on_c, 1, 57, 65
2, 106036, Note_on_c, 0, 79, 0
2, 106036, Note_on_c, 0, 85, 0
2, 106042, Note_on_c, 1, 53, 0
2, 106042, Note_on_c, 1, 57, 0
2, 106048, Note_on_c, 0, 77, 63
2, 106048, Note_on_c, 0, 86, 66
2, 106048, Note_on_c, 1, 52, 60
2, 106048, Note_on_c, 1, 55, 58
2, 106106, Note_on_c, 1, 52, 0
2, 106106, Note_on_c, 1, 55, 0
2, 106112, Note_on_c, 1, 50, 59
2, 106112, Note_on_c, 1, 53, 56
2, 106164, Note_on_c, 0, 77, 0
2, 106164, Note_on_c, 0, 86, 0
2, 106170, Note_on_c, 1, 50, 0
2, 106170, Note_on_c, 1, 53, 0
2, 106176, Note_on_c, 0, 76, 68
2, 106176, Note_on_c, 0, 79, 71
2, 106176, Note_on_c, 0, 88, 68
2, 106176, Note_on_c, 1, 49, 62
2, 106176, Note_on_c, 1, 52, 62
2, 106234, Note_on_c, 1, 49, 0
2, 106234, Note_on_c, 1, 52, 0
2, 106240, Note_on_c, 1, 45, 71
2, 106240, Note_on_c, 1, 57, 68
2, 106292, Note_on_c, 0, 76, 0
2, 106292, Note_on_c, 0, 79, 0
2, 106292, Note_on_c, 0, 88, 0
2, 106298, Note_on_c, 1, 45, 0
2, 106298, Note_on_c, 1, 57, 0
2, 106304, Note_on_c, 0, 74, 58
2, 106304, Note_on_c, 0, 77, 59
2, 106304, Note_on_c, 0, 86, 58
2, 106304, Note_on_c, 1, 50, 58
2, 106304, Note_on_c, 1, 53, 57
2, 106362, Note_on_c, 1, 50, 0
2, 106362, Note_on_c, 1, 53, 0
2, 106368, Note_on_c, 1, 45, 67
2, 106368, Note_on_c, 1, 57, 70
2, 106420, Note_on_c, 0, 74, 0
2, 106420, Note_on_c, 0, 77, 0
2, 106420, Note_on_c, 0, 86, 0
2, 106426, Note_on_c, 1, 45, 0
2, 106426, Note_on_c, 1, 57, 0
2, 106432, Note_on_c, 0, 73, 63
2, 106432, Note_on_c, 0, 76, 61
2, 106432, Note_on_c, 0, 85, 63
2, 106432, Note_on_c, 1, 52, 61
2, 106432, Note_on_c, 1, 55, 64
2, 106490, Note_on_c, 1, 52, 0
2, 106490, Note_on_c, 1, 55, 0
2, 106496, Note_on_c, 1, 45, 66
2, 106496, Note_on_c, 1, 57, 66
2, 106548, Note_on_c, 0, 73, 0
2, 106548, Note_on_c, 0, 76, 0
2, 106548, Note_on_c, 0, 85, 0
2, 106554, Note_on_c, 1, 45, 0
2, 106554, Note_on_c, 1, 57, 0
2, 106560, Note_on_c, 0, 74, 66
2, 106560, Note_on_c, 0, 81, 64
2, 106560, Note_on_c, 0, 86, 64
2, 106560, Note_on_c, 1, 50, 55
2, 106560, Note_on_c, 1, 53, 54
2, 106618, Note_on_c, 1, 50, 0
2, 106618, Note_on_c, 1, 53, 0
2, 106624, Note_on_c, 1, 45, 68
2, 106624, Note_on_c, 1, 57, 66
2, 106676, Note_on_c, 0, 74, 0
2, 106676, Note_on_c, 0, 81, 0
2, 106676, Note_on_c, 0, 86, 0
2, 106682, Note_on_c, 1, 45, 0
2, 106682, Note_on_c, 1, 57, 0
2, 106688, Note_on_c, 0, 76, 70
2, 106688, Note_on_c, 0, 82, 68
2, 106688, Note_on_c, 0, 88, 71
2, 106688, Note_on_c, 1, 55, 68
2, 106688, Note_on_c, 1, 58, 71
2, 106746, Note_on_c, 1, 55, 0
2, 106746, Note_on_c, 1, 58, 0
2, 106752, Note_on_c, 1, 45, 61
2, 106752, Note_on_c, 1, 57, 59
2, 106804, Note_on_c, 0, 76, 0
2, 106804, Note_on_c, 0, 82, 0
2, 106804, Note_on_c, 0, 88, 0
2, 106810, Note_on_c, 1, 45, 0
2, 106810, Note_on_c, 1, 57, 0
2, 106816, Note_on_c, 0, 74, 58
2, 106816, Note_on_c, 0, 81, 59
2, 106816, Note_on_c, 0, 86, 60
2, 106816, Note_on_c, 1, 53, 62
2, 106816, Note_on_c, 1, 57, 64
2, 106874, Note_on_c, 1, 53, 0
2, 106874, Note_on_c, 1, 57, 0
2, 106880, Note_on_c, 1, 45, 62
2, 106880, Note_on_c, 1, 57, 64
2, 106932, Note_on_c, 0, 74, 0
2, 106932, Note_on_c, 0, 81, 0
2, 106932, Note_on_c, 0, 86, 0
2, 106938, Note_on_c, 1, 45, 0
2, 106938, Note_on_c, 1, 57, 0
2, 106944, Note_on_c, 0, 73, 61
2, 106944, Note_on_c, 0, 79, 61
2, 106944, Note_on_c, 0, 85, 60
2, 106944, Note_on_c, 1, 52, 63
2, 106944, Note_on_c, 1, 55, 62
2, 107002, Note_on_c, 1, 52, 0
2, 107002, Note_on_c, 1, 55, 0
2, 107008, Note_on_c, 1, 45, 66
2, 107008, Note_on_c, 1, 57, 64
2, 107060, Note_on_c, 0, 73, 0
2, 107060, Note_on_c, 0, 79, 0
2, 107060, Note_on_c, 0, 85, 0
2, 107066, Note_on_c, 1, 45, 0
2, 107066, Note_on_c, 1, 57, 0
2, 107072, Note_on_c, 0, 74, 64
2, 107072, Note_on_c, 0, 77, 64
2, 107072, Note_on_c, 0, 86, 63
2, 107072, Note_on_c, 1, 50, 56
2, 107072, Note_on_c, 1, 53, 57
2, 107130, Note_on_c, 1, 50, 0
2, 107130, Note_on_c, 1, 53, 0
2, 107136, Note_on_c, 1, 45, 68
2, 107136, Note_on_c, 1, 57, 68
2, 107188, Note_on_c, 0, 74, 0
2, 107188, Note_on_c, 0, 77, 0
2, 107188, Note_on_c, 0, 86, 0
2, 107194, Note_on_c, 1, 45, 0
2, 107194, Note_on_c, 1, 57, 0
2, 107200, Note_on_c, 0, 76, 68
2, 107200, Note_on_c, 0, 81, 69
2, 107200, Note_on_c, 0, 88, 69
2, 107200, Note_on_c, 1, 49, 56
2, 107200, Note_on_c, 1, 52, 57
2, 107258, Note_on_c, 1, 49, 0
2, 107258, Note_on_c, 1, 52, 0
2, 107264, Note_on_c, 1, 57, 69
2, 107316, Note_on_c, 0, 76, 0
2, 107316, Note_on_c, 0, 81, 0
2, 107316, Note_on_c, 0, 88, 0
2, 107322, Note_on_c, 1, 57, 0
2, 107328, Note_on_c, 0, 79, 69
2, 107328, Note_on_c, 0, 88, 69
2, 107328, Note_on_c, 0, 91, 69
2, 107328, Note_on_c, 1, 45, 47
2, 107386, Note_on_c, 1, 45, 0
2, 107392, Note_on_c, 1, 57, 76
2, 107444, Note_on_c, 0, 79, 0
2, 107444, Note_on_c, 0, 88, 0
2, 107444, Note_on_c, 0, 91, 0
2, 107450, Note_on_c, 1, 57, 0
2, 107456, Note_on_c, 0, 77, 64
2, 107456, Note_on_c, 0, 86, 63
2, 107456, Note_on_c, 0, 89, 64
2, 107456, Note_on_c, 1, 50, 77
2, 107456, Note_on_c, 1, 53, 77
2, 107456, Note_on_c, 1, 62, 78
2, 107514, Note_on_c, 1, 50, 0
2, 107514, Note_on_c, 1, 53, 0
2, 107514, Note_on_c, 1, 62, 0
2, 107520, Note_on_c, 1, 57, 56
2, 107572, Note_on_c, 0, 77, 0
2, 107572, Note_on_c, 0, 86, 0
2, 107572, Note_on_c, 0, 89, 0
2, 107578, Note_on_c, 1, 57, 0
2, 107584, Note_on_c, 0, 74, 56
2, 107584, Note_on_c, 0, 81, 57
2, 107584, Note_on_c, 0, 86, 56
2, 107584, Note_on_c, 1, 53, 74
2, 107584, Note_on_c, 1, 57, 73
2, 107584, Note_on_c, 1, 65, 76
2, 107642, Note_on_c, 1, 53, 0
2, 107642, Note_on_c, 1, 57, 0
2, 107642, Note_on_c, 1, 65, 0
2, 107648, Note_on_c, 1, 62, 59
2, 107700, Note_on_c, 0, 74, 0
2, 107700, Note_on_c, 0, 81, 0
2, 107700, Note_on_c, 0, 86, 0
2, 107706, Note_on_c, 1, 62, 0
2, 107712, Note_on_c, 0, 70, 57
2, 107712, Note_on_c, 0, 79, 58
2, 107712, Note_on_c, 0, 82, 57
2, 107712, Note_on_c, 1, 55, 74
2, 107712, Note_on_c, 1, 58, 74
2, 107712, Note_on_c, 1, 67, 75
2, 107770, Note_on_c, 1, 55, 0
2, 107770, Note_on_c, 1, 58, 0
2, 107770, Note_on_c, 1, 67, 0
2, 107776, Note_on_c, 1, 62, 57
2, 107828, Note_on_c, 0, 70, 0
2, 107828, Note_on_c, 0, 79, 0
2, 107828, Note_on_c, 0, 82, 0
2, 107834, Note_on_c, 1, 62, 0
2, 107840, Note_on_c, 0, 76, 70
2, 107840, Note_on_c, 0, 79, 73
2, 107840, Note_on_c, 0, 88, 71
2, 107840, Note_on_c, 1, 52, 66
2, 107840, Note_on_c, 1, 55, 66
2, 107840, Note_on_c, 1, 64, 65
2, 107898, Note_on_c, 1, 52, 0
2, 107898, Note_on_c, 1, 55, 0
2, 107898, Note_on_c, 1, 64, 0
2, 107904, Note_on_c, 1, 61, 59
2, 107956, Note_on_c, 0, 76, 0
2, 107956, Note_on_c, 0, 79, 0
2, 107956, Note_on_c, 0, 88, 0
2, 107962, Note_on_c, 1, 61, 0
2, 107968, Note_on_c, 0, 74, 63
2, 107968, Note_on_c, 0, 81, 62
2, 107968, Note_on_c, 0, 86, 64
2, 107968, Note_on_c, 1, 53, 71
2, 107968, Note_on_c, 1, 57, 70
2, 107968, Note_on_c, 1, 65, 73
2, 108026, Note_on_c, 1, 53, 0
2, 108026, Note_on_c, 1, 57, 0
2, 108026, Note_on_c, 1, 65, 0
2, 108032, Note_on_c, 1, 62, 60
2, 108084, Note_on_c, 0, 74, 0
2, 108084, Note_on_c, 0, 81, 0
2, 108084, Note_on_c, 0, 86, 0
2, 108090, Note_on_c, 1, 62, 0
2, 108096, Note_on_c, 0, 74, 65
2, 108096, Note_on_c, 0, 77, 64
2, 108096, Note_on_c, 0, 86, 63
2, 108096, Note_on_c, 1, 50, 47
2, 108154, Note_on_c, 1, 50, 0
2, 108160, Note_on_c, 1, 62, 75
2, 108212, Note_on_c, 0, 74, 0
2, 108212, Note_on_c, 0, 77, 0
2, 108212, Note_on_c, 0, 86, 0
2, 108218, Note_on_c, 1, 62, 0
2, 108224, Note_on_c, 0, 73, 58
2, 108224, Note_on_c, 0, 85, 62
2, 108224, Note_on_c, 0, 76, 59
2, 108224, Note_on_c, 1, 64, 58
2, 108224, Note_on_c, 1, 57, 56
2, 108282, Note_on_c, 0, 76, 0
2, 108282, Note_on_c, 1, 64, 0
2, 108288, Note_on_c, 0, 81, 69
2, 108288, Note_on_c, 1, 69, 70
2, 108346, Note_on_c, 0, 81, 0
2, 108346, Note_on_c, 1, 69, 0
2, 108352, Note_on_c, 0, 79, 58
2, 108352, Note_on_c, 1, 67, 60
2, 108410, Note_on_c, 0, 79, 0
2, 108410, Note_on_c, 1, 67, 0
2, 108416, Note_on_c, 0, 81, 64
2, 108416, Note_on_c, 1, 69, 67
2, 108455, Note_on_c, 0, 73, 0
2, 108455, Note_on_c, 0, 85, 0
2, 108474, Note_on_c, 0, 81, 0
2, 108474, Note_on_c, 1, 69, 0
2, 108480, Note_on_c, 0, 74, 69
2, 108480, Note_on_c, 0, 86, 67
2, 108480, Note_on_c, 0, 77, 59
2, 108480, Note_on_c, 1, 65, 57
2, 108538, Note_on_c, 0, 77, 0
2, 108538, Note_on_c, 1, 65, 0
2, 108544, Note_on_c, 0, 81, 67
2, 108544, Note_on_c, 1, 69, 69
2, 108596, Note_on_c, 0, 74, 0
2, 108596, Note_on_c, 0, 86, 0
2, 108602, Note_on_c, 0, 81, 0
2, 108602, Note_on_c, 1, 69, 0
2, 108608, Note_on_c, 0, 76, 66
2, 108608, Note_on_c, 0, 88, 66
2, 108608, Note_on_c, 0, 76, 53
2, 108608, Note_on_c, 1, 64, 54
2, 108666, Note_on_c, 0, 76, 0
2, 108666, Note_on_c, 1, 64, 0
2, 108672, Note_on_c, 0, 81, 68
2, 108672, Note_on_c, 1, 69, 69
2, 108724, Note_on_c, 0, 76, 0
2, 108724, Note_on_c, 0, 88, 0
2, 108730, Note_on_c, 0, 81, 0
2, 108730, Note_on_c, 1, 69, 0
2, 108736, Note_on_c, 0, 89, 68
2, 108736, Note_on_c, 0, 77, 59
2, 108736, Note_on_c, 1, 62, 75
2, 108736, Note_on_c, 1, 74, 74
2, 108794, Note_on_c, 0, 77, 0
2, 108794, Note_on_c, 1, 62, 0
2, 108794, Note_on_c, 1, 74, 0
2, 108800, Note_on_c, 0, 81, 69
2, 108800, Note_on_c, 1, 69, 55
2, 108852, Note_on_c, 0, 89, 0
2, 108858, Note_on_c, 0, 81, 0
2, 108858, Note_on_c, 1, 69, 0
2, 108864, Note_on_c, 0, 88, 58
2, 108864, Note_on_c, 0, 76, 54
2, 108864, Note_on_c, 1, 61, 68
2, 108864, Note_on_c, 1, 73, 67
2, 108922, Note_on_c, 0, 76, 0
2, 108922, Note_on_c, 1, 61, 0
2, 108922, Note_on_c, 1, 73, 0
2, 108928, Note_on_c, 0, 81, 68
2, 108928, Note_on_c, 1, 69, 57
2, 108980, Note_on_c, 0, 88, 0
2, 108986, Note_on_c, 0, 81, 0
2, 108986, Note_on_c, 1, 69, 0
2, 108992, Note_on_c, 0, 89, 67
2, 108992, Note_on_c, 0, 77, 59
2, 108992, Note_on_c, 1, 62, 71
2, 108992, Note_on_c, 1, 74, 72
2, 109050, Note_on_c, 0, 77, 0
2, 109050, Note_on_c, 1, 62, 0
2, 109050, Note_on_c, 1, 74, 0
2, 109056, Note_on_c, 0, 81, 68
2, 109056, Note_on_c, 1, 69, 55
2, 109108, Note_on_c, 0, 89, 0
2, 109114, Note_on_c, 0, 81, 0
2, 109114, Note_on_c, 1, 69, 0
2, 109120, Note_on_c, 0, 85, 57
2, 109120, Note_on_c, 0, 76, 55
2, 109120, Note_on_c, 1, 64, 67
2, 109120, Note_on_c, 1, 73, 67
2, 109178, Note_on_c, 0, 76, 0
2, 109178, Note_on_c, 1, 64, 0
2, 109178, Note_on_c, 1, 73, 0
2, 109184, Note_on_c, 0, 81, 72
2, 109184, Note_on_c, 1, 69, 55
2, 109236, Note_on_c, 0, 85, 0
2, 109242, Note_on_c, 0, 81, 0
2, 109242, Note_on_c, 1, 69, 0
2, 109248, Note_on_c, 0, 86, 68
2, 109248, Note_on_c, 0, 77, 60
2, 109248, Note_on_c, 1, 65, 73
2, 109248, Note_on_c, 1, 74, 74
2, 109306, Note_on_c, 0, 77, 0
2, 109306, Note_on_c, 1, 65, 0
2, 109306, Note_on_c, 1, 74, 0
2, 109312, Note_on_c, 0, 81, 69
2, 109312, Note_on_c, 1, 69, 55
2, 109364, Note_on_c, 0, 86, 0
2, 109364, Note_on_c, 1, 57, 0
2, 109370, Note_on_c, 0, 81, 0
2, 109370, Note_on_c, 1, 69, 0
2, 109376, Note_on_c, 0, 73, 62
2, 109376, Note_on_c, 0, 85, 59
2, 109376, Note_on_c, 0, 73, 52
2, 109376, Note_on_c, 1, 69, 64
2, 109376, Note_on_c, 1, 57, 63
2, 109434, Note_on_c, 0, 73, 0
2, 109434, Note_on_c, 1, 69, 0
2, 109440, Note_on_c, 0, 81, 73
2, 109440, Note_on_c, 1, 69, 62
2, 109492, Note_on_c, 0, 73, 0
2, 109492, Note_on_c, 0, 85, 0
2, 109498, Note_on_c, 0, 81, 0
2, 109498, Note_on_c, 1, 69, 0
2, 109504, Note_on_c, 0, 74, 67
2, 109504, Note_on_c, 0, 83, 69
2, 109504, Note_on_c, 0, 86, 69
2, 109504, Note_on_c, 0, 74, 57
2, 109504, Note_on_c, 1, 59, 69
2, 109504, Note_on_c, 1, 62, 68
2, 109504, Note_on_c, 1, 71, 68
2, 109562, Note_on_c, 0, 74, 0
2, 109562, Note_on_c, 1, 59, 0
2, 109562, Note_on_c, 1, 62, 0
2, 109562, Note_on_c, 1, 71, 0
2, 109568, Note_on_c, 0, 81, 71
2, 109568, Note_on_c, 1, 69, 60
2, 109620, Note_on_c, 0, 74, 0
2, 109620, Note_on_c, 0, 83, 0
2, 109620, Note_on_c, 0, 86, 0
2, 109626, Note_on_c, 0, 81, 0
2, 109626, Note_on_c, 1, 69, 0
2, 109632, Note_on_c, 0, 76, 64
2, 109632, Note_on_c, 0, 85, 65
2, 109632, Note_on_c, 0, 88, 65
2, 109632, Note_on_c, 0, 76, 55
2, 109632, Note_on_c, 1, 61, 70
2, 109632, Note_on_c, 1, 64, 68
2, 109632, Note_on_c, 1, 73, 67
2, 109690, Note_on_c, 0, 76, 0
2, 109690, Note_on_c, 1, 61, 0
2, 109690, Note_on_c, 1, 64, 0
2, 109690, Note_on_c, 1, 73, 0
2, 109696, Note_on_c, 0, 81, 72
2, 109696, Note_on_c, 1, 69, 56
2, 109748, Note_on_c, 0, 76, 0
2, 109748, Note_on_c, 0, 85, 0
2, 109748, Note_on_c, 0, 88, 0
2, 109754, Note_on_c, 0, 81, 0
2, 109754, Note_on_c, 1, 69, 0
2, 109760, Note_on_c, 0, 77, 70
2, 109760, Note_on_c, 0, 86, 70
2, 109760, Note_on_c, 0, 89, 68
2, 109760, Note_on_c, 0, 77, 58
2, 109760, Note_on_c, 1, 62, 74
2, 109760, Note_on_c, 1, 65, 74
2, 109760, Note_on_c, 1, 74, 72
2, 109818, Note_on_c, 0, 77, 0
2, 109818, Note_on_c, 1, 62, 0
2, 109818, Note_on_c, 1, 65, 0
2, 109818, Note_on_c, 1, 74, 0
2, 109824, Note_on_c, 0, 81, 70
2, 109824, Note_on_c, 1, 69, 56
2, 109876, Note_on_c, 0, 77, 0
2, 109876, Note_on_c, 0, 86, 0
2, 109876, Note_on_c, 0, 89, 0
2, 109882, Note_on_c, 0, 81, 0
2, 109882, Note_on_c, 1, 69, 0
2, 109888, Note_on_c, 0, 76, 61
2, 109888, Note_on_c, 0, 85, 61
2, 109888, Note_on_c, 0, 88, 60
2, 109888, Note_on_c, 0, 76, 56
2, 109888, Note_on_c, 1, 61, 69
2, 109888, Note_on_c, 1, 64, 70
2, 109888, Note_on_c, 1, 73, 69
2, 109946, Note_on_c, 0, 76, 0
2, 109946, Note_on_c, 1, 61, 0
2, 109946, Note_on_c, 1, 64, 0
2, 109946, Note_on_c, 1, 73, 0
2, 109952, Note_on_c, 0, 81, 71
2, 109952, Note_on_c, 1, 69, 58
2, 110004, Note_on_c, 0, 76, 0
2, 110004, Note_on_c, 0, 85, 0
2, 110004, Note_on_c, 0, 88, 0
2, 110010, Note_on_c, 0, 81, 0
2, 110010, Note_on_c, 1, 69, 0
2, 110016, Note_on_c, 0, 77, 67
2, 110016, Note_on_c, 0, 86, 68
2, 110016, Note_on_c, 0, 89, 67
2, 110016, Note_on_c, 0, 77, 59
2, 110016, Note_on_c, 1, 62, 73
2, 110016, Note_on_c, 1, 65, 74
2, 110016, Note_on_c, 1, 74, 73
2, 110074, Note_on_c, 0, 77, 0
2, 110074, Note_on_c, 1, 62, 0
2, 110074, Note_on_c, 1, 65, 0
2, 110074, Note_on_c, 1, 74, 0
2, 110080, Note_on_c, 0, 81, 69
2, 110080, Note_on_c, 1, 69, 53
2, 110132, Note_on_c, 0, 77, 0
2, 110132, Note_on_c, 0, 86, 0
2, 110132, Note_on_c, 0, 89, 0
2, 110138, Note_on_c, 0, 81, 0
2, 110138, Note_on_c, 1, 69, 0
2, 110144, Note_on_c, 0, 79, 67
2, 110144, Note_on_c, 0, 88, 66
2, 110144, Note_on_c, 0, 91, 68
2, 110144, Note_on_c, 0, 79, 61
2, 110144, Note_on_c, 1, 64, 72
2, 110144, Note_on_c, 1, 67, 72
2, 110144, Note_on_c, 1, 76, 74
2, 110202, Note_on_c, 0, 79, 0
2, 110202, Note_on_c, 1, 64, 0
2, 110202, Note_on_c, 1, 67, 0
2, 110202, Note_on_c, 1, 76, 0
2, 110208, Note_on_c, 0, 81, 65
2, 110208, Note_on_c, 1, 69, 53
2, 110260, Note_on_c, 0, 79, 0
2, 110260, Note_on_c, 0, 88, 0
2, 110260, Note_on_c, 0, 91, 0
2, 110266, Note_on_c, 0, 81, 0
2, 110266, Note_on_c, 1, 69, 0
2, 110272, Note_on_c, 0, 93, 70
2, 110272, Note_on_c, 0, 81, 78
2, 110272, Note_on_c, 0, 89, 78
2, 110272, Note_on_c, 1, 69, 64
2, 110330, Note_on_c, 0, 93, 0
2, 110330, Note_on_c, 1, 69, 0
2, 110336, Note_on_c, 0, 94, 65
2, 110336, Note_on_c, 1, 70, 64
2, 110388, Note_on_c, 0, 81, 0
2, 110388, Note_on_c, 0, 89, 0
2, 110394, Note_on_c, 0, 94, 0
2, 110394, Note_on_c, 1, 70, 0
2, 110400, Note_on_c, 0, 91, 57
2, 110400, Note_on_c, 0, 79, 63
2, 110400, Note_on_c, 0, 88, 61
2, 110400, Note_on_c, 1, 67, 57
2, 110458, Note_on_c, 0, 91, 0
2, 110458, Note_on_c, 1, 67, 0
2, 110464, Note_on_c, 0, 93, 67
2, 110464, Note_on_c, 1, 69, 67
2, 110516, Note_on_c, 0, 79, 0
2, 110516, Note_on_c, 0, 88, 0
2, 110522, Note_on_c, 0, 93, 0
2, 110522, Note_on_c, 1, 69, 0
2, 110528, Note_on_c, 0, 89, 57
2, 110528, Note_on_c, 0, 77, 61
2, 110528, Note_on_c, 0, 86, 63
2, 110528, Note_on_c, 1, 65, 61
2, 110586, Note_on_c, 0, 89, 0
2, 110586, Note_on_c, 1, 65, 0
2, 110592, Note_on_c, 0, 91, 66
2, 110592, Note_on_c, 1, 79, 78
2, 110644, Note_on_c, 0, 77, 0
2, 110644, Note_on_c, 0, 86, 0
2, 110650, Note_on_c, 0, 91, 0
2, 110650, Note_on_c, 1, 79, 0
2, 110656, Note_on_c, 0, 88, 58
2, 110656, Note_on_c, 0, 79, 52
2, 110656, Note_on_c, 1, 76, 61
2, 110714, Note_on_c, 0, 88, 0
2, 110714, Note_on_c, 1, 76, 0
2, 110720, Note_on_c, 0, 89, 63
2, 110720, Note_on_c, 1, 77, 64
2, 110772, Note_on_c, 0, 79, 0
2, 110778, Note_on_c, 0, 89, 0
2, 110778, Note_on_c, 1, 77, 0
2, 110784, Note_on_c, 0, 86, 59
2, 110784, Note_on_c, 0, 77, 59
2, 110784, Note_on_c, 1, 65, 61
2, 110784, Note_on_c, 1, 74, 59
2, 110842, Note_on_c, 0, 77, 0
2, 110842, Note_on_c, 1, 65, 0
2, 110842, Note_on_c, 1, 74, 0
2, 110848, Note_on_c, 0, 81, 69
2, 110848, Note_on_c, 1, 69, 55
2, 110900, Note_on_c, 0, 86, 0
2, 110906, Note_on_c, 0, 81, 0
2, 110906, Note_on_c, 1, 69, 0
2, 110912, Note_on_c, 0, 85, 60
2, 110912, Note_on_c, 0, 76, 53
2, 110912, Note_on_c, 1, 64, 69
2, 110912, Note_on_c, 1, 73, 66
2, 110970, Note_on_c, 0, 76, 0
2, 110970, Note_on_c, 1, 64, 0
2, 110970, Note_on_c, 1, 73, 0
2, 110976, Note_on_c, 0, 79, 68
2, 110976, Note_on_c, 1, 69, 58
2, 111028, Note_on_c, 0, 85, 0
2, 111034, Note_on_c, 0, 79, 0
2, 111034, Note_on_c, 1, 69, 0
2, 111040, Note_on_c, 0, 86, 69
2, 111040, Note_on_c, 0, 77, 64
2, 111040, Note_on_c, 1, 65, 71
2, 111040, Note_on_c, 1, 74, 72
2, 111098, Note_on_c, 0, 77, 0
2, 111098, Note_on_c, 1, 65, 0
2, 111098, Note_on_c, 1, 74, 0
2, 111104, Note_on_c, 0, 81, 69
2, 111104, Note_on_c, 1, 69, 55
2, 111156, Note_on_c, 0, 86, 0
2, 111162, Note_on_c, 0, 81, 0
2, 111162, Note_on_c, 1, 69, 0
2, 111168, Note_on_c, 0, 85, 66
2, 111168, Note_on_c, 0, 88, 66
2, 111168, Note_on_c, 0, 76, 55
2, 111168, Note_on_c, 1, 61, 67
2, 111168, Note_on_c, 1, 64, 69
2, 111168, Note_on_c, 1, 73, 67
2, 111226, Note_on_c, 0, 76, 0
2, 111226, Note_on_c, 1, 61, 0
2, 111226, Note_on_c, 1, 64, 0
2, 111226, Note_on_c, 1, 73, 0
2, 111232, Note_on_c, 0, 81, 68
2, 111232, Note_on_c, 1, 69, 57
2, 111284, Note_on_c, 0, 85, 0
2, 111284, Note_on_c, 0, 88, 0
2, 111290, Note_on_c, 0, 81, 0
2, 111290, Note_on_c, 1, 69, 0
2, 111296, Note_on_c, 0, 86, 71
2, 111296, Note_on_c, 0, 89, 70
2, 111296, Note_on_c, 0, 77, 59
2, 111296, Note_on_c, 1, 62, 74
2, 111296, Note_on_c, 1, 65, 74
2, 111296, Note_on_c, 1, 74, 73
2, 111354, Note_on_c, 0, 77, 0
2, 111354, Note_on_c, 1, 62, 0
2, 111354, Note_on_c, 1, 65, 0
2, 111354, Note_on_c, 1, 74, 0
2, 111360, Note_on_c, 0, 81, 66
2, 111360, Note_on_c, 1, 69, 55
2, 111412, Note_on_c, 0, 86, 0
2, 111412, Note_on_c, 0, 89, 0
2, 111418, Note_on_c, 0, 81, 0
2, 111418, Note_on_c, 1, 69, 0
2, 111424, Note_on_c, 0, 85, 61
2, 111424, Note_on_c, 0, 88, 60
2, 111424, Note_on_c, 0, 76, 54
2, 111424, Note_on_c, 1, 61, 69
2, 111424, Note_on_c, 1, 64, 67
2, 111424, Note_on_c, 1, 73, 68
2, 111482, Note_on_c, 0, 76, 0
2, 111482, Note_on_c, 1, 61, 0
2, 111482, Note_on_c, 1, 64, 0
2, 111482, Note_on_c, 1, 73, 0
2, 111488, Note_on_c, 0, 81, 69
2, 111488, Note_on_c, 1, 69, 59
2, 111540, Note_on_c, 0, 85, 0
2, 111540, Note_on_c, 0, 88, 0
2, 111546, Note_on_c, 0, 81, 0
2, 111546, Note_on_c, 1, 69, 0
2, 111552, Note_on_c, 0, 86, 66
2, 111552, Note_on_c, 0, 89, 70
2, 111552, Note_on_c, 0, 77, 61
2, 111552, Note_on_c, 1, 62, 74
2, 111552, Note_on_c, 1, 65, 71
2, 111552, Note_on_c, 1, 74, 74
2, 111610, Note_on_c, 0, 77, 0
2, 111610, Note_on_c, 1, 62, 0
2, 111610, Note_on_c, 1, 65, 0
2, 111610, Note_on_c, 1, 74, 0
2, 111616, Note_on_c, 0, 81, 66
2, 111616, Note_on_c, 1, 69, 57
2, 111668, Note_on_c, 0, 86, 0
2, 111668, Note_on_c, 0, 89, 0
2, 111674, Note_on_c, 0, 81, 0
2, 111674, Note_on_c, 1, 69, 0
2, 111680, Note_on_c, 0, 86, 67
2, 111680, Note_on_c, 0, 91, 66
2, 111680, Note_on_c, 0, 79, 62
2, 111680, Note_on_c, 1, 59, 64
2, 111680, Note_on_c, 1, 62, 65
2, 111680, Note_on_c, 1, 71, 64
2, 111738, Note_on_c, 0, 79, 0
2, 111738, Note_on_c, 1, 59, 0
2, 111738, Note_on_c, 1, 62, 0
2, 111738, Note_on_c, 1, 71, 0
2, 111744, Note_on_c, 0, 81, 65
2, 111744, Note_on_c, 1, 69, 58
2, 111796, Note_on_c, 0, 86, 0
2, 111796, Note_on_c, 0, 91, 0
2, 111802, Note_on_c, 0, 81, 0
2, 111802, Note_on_c, 1, 69, 0
2, 111808, Note_on_c, 0, 85, 71
2, 111808, Note_on_c, 0, 93, 70
2, 111808, Note_on_c, 0, 81, 65
2, 111808, Note_on_c, 1, 61, 73
2, 111808, Note_on_c, 1, 64, 73
2, 111808, Note_on_c, 1, 73, 71
2, 111866, Note_on_c, 0, 81, 0
2, 111866, Note_on_c, 1, 61, 0
2, 111866, Note_on_c, 1, 64, 0
2, 111866, Note_on_c, 1, 73, 0
2, 111866, Note_on_c, 1, 57, 0
2, 111872, Note_on_c, 0, 81, 64
2, 111872, Note_on_c, 1, 57, 55
2, 111872, Note_on_c, 1, 69, 58
2, 111924, Note_on_c, 0, 85, 0
2, 111924, Note_on_c, 0, 93, 0
2, 111930, Note_on_c, 0, 81, 0
2, 111930, Note_on_c, 1, 57, 0
2, 111930, Note_on_c, 1, 69, 0
2, 111936, Note_on_c, 0, 79, 56
2, 111936, Note_on_c, 0, 88, 54
2, 111936, Note_on_c, 0, 76, 55
2, 111936, Note_on_c, 1, 64, 57
2, 111936, Note_on_c, 1, 67, 60
2, 111994, Note_on_c, 0, 76, 0
2, 111994, Note_on_c, 1, 64, 0
2, 111994, Note_on_c, 1, 67, 0
2, 112000, Note_on_c, 0, 81, 70
2, 112000, Note_on_c, 1, 57, 66
2, 112000, Note_on_c, 1, 69, 67
2, 112052, Note_on_c, 0, 79, 0
2, 112052, Note_on_c, 0, 88, 0
2, 112058, Note_on_c, 0, 81, 0
2, 112058, Note_on_c, 1, 57, 0
2, 112058, Note_on_c, 1, 69, 0
2, 112064, Note_on_c, 0, 77, 67
2, 112064, Note_on_c, 0, 89, 68
2, 112064, Note_on_c, 0, 77, 58
2, 112064, Note_on_c, 1, 62, 59
2, 112064, Note_on_c, 1, 65, 59
2, 112122, Note_on_c, 0, 77, 0
2, 112122, Note_on_c, 1, 62, 0
2, 112122, Note_on_c, 1, 65, 0
2, 112128, Note_on_c, 0, 81, 69
2, 112128, Note_on_c, 1, 57, 66
2, 112128, Note_on_c, 1, 69, 70
2, 112180, Note_on_c, 0, 77, 0
2, 112180, Note_on_c, 0, 89, 0
2, 112186, Note_on_c, 0, 81, 0
2, 112186, Note_on_c, 1, 57, 0
2, 112186, Note_on_c, 1, 69, 0
2, 112192, Note_on_c, 0, 86, 66
2, 112192, Note_on_c, 0, 91, 67
2, 112192, Note_on_c, 0, 79, 62
2, 112192, Note_on_c, 1, 62, 60
2, 112192, Note_on_c, 1, 67, 60
2, 112250, Note_on_c, 0, 79, 0
2, 112250, Note_on_c, 1, 62, 0
2, 112250, Note_on_c, 1, 67, 0
2, 112256, Note_on_c, 0, 81, 66
2, 112256, Note_on_c, 1, 57, 66
2, 112256, Note_on_c, 1, 69, 67
2, 112308, Note_on_c, 0, 86, 0
2, 112308, Note_on_c, 0, 91, 0
2, 112314, Note_on_c, 0, 81, 0
2, 112320, Note_on_c, 0, 81, 67
2, 112320, Note_on_c, 0, 85, 68
2, 112320, Note_on_c, 0, 93, 66
2, 112320, Note_on_c, 1, 61, 66
2, 112320, Note_on_c, 1, 64, 65
2, 112378, Note_on_c, 1, 57, 0
2, 112378, Note_on_c, 1, 61, 0
2, 112378, Note_on_c, 1, 64, 0
2, 112378, Note_on_c, 1, 69, 0
2, 112384, Note_on_c, 0, 45, 87
2, 112384, Note_on_c, 0, 57, 86
2, 112384, Note_on_c, 1, 33, 85
2, 112442, Note_on_c, 0, 45, 0
2, 112442, Note_on_c, 0, 57, 0
2, 112442, Note_on_c, 1, 33, 0
2, 112448, Note_on_c, 0, 55, 88
2, 112448, Note_on_c, 1, 31, 118
2, 112448, Note_on_c, 1, 43, 119
2, 112506, Note_on_c, 0, 55, 0
2, 112506, Note_on_c, 1, 31, 0
2, 112506, Note_on_c, 1, 43, 0
2, 112512, Note_on_c, 0, 45, 101
2, 112512, Note_on_c, 0, 57, 101
2, 112512, Note_on_c, 1, 33, 76
2, 112551, Note_on_c, 0, 81, 0
2, 112551, Note_on_c, 0, 85, 0
2, 112551, Note_on_c, 0, 93, 0
2, 112570, Note_on_c, 0, 45, 0
2, 112570, Note_on_c, 0, 57, 0
2, 112570, Note_on_c, 1, 33, 0
2, 112576, Note_on_c, 0, 53, 91
2, 112576, Note_on_c, 1, 29, 115
2, 112576, Note_on_c, 1, 41, 114
2, 112634, Note_on_c, 0, 53, 0
2, 112634, Note_on_c, 1, 29, 0
2, 112634, Note_on_c, 1, 41, 0
2, 112640, Note_on_c, 0, 45, 107
2, 112640, Note_on_c, 0, 57, 105
2, 112640, Note_on_c, 1, 33, 78
2, 112698, Note_on_c, 0, 45, 0
2, 112698, Note_on_c, 0, 57, 0
2, 112698, Note_on_c, 1, 33, 0
2, 112704, Note_on_c, 0, 52, 85
2, 112704, Note_on_c, 1, 28, 109
2, 112704, Note_on_c, 1, 40, 111
2, 112762, Note_on_c, 0, 52, 0
2, 112762, Note_on_c, 1, 28, 0
2, 112762, Note_on_c, 1, 40, 0
2, 112768, Note_on_c, 0, 45, 107
2, 112768, Note_on_c, 0, 57, 108
2, 112768, Note_on_c, 1, 33, 81
2, 112826, Note_on_c, 0, 45, 0
2, 112826, Note_on_c, 0, 57, 0
2, 112826, Note_on_c, 1, 33, 0
2, 112832, Note_on_c, 0, 50, 83
2, 112832, Note_on_c, 1, 26, 110
2, 112832, Note_on_c, 1, 38, 110
2, 112890, Note_on_c, 0, 50, 0
2, 112890, Note_on_c, 1, 26, 0
2, 112890, Note_on_c, 1, 38, 0
2, 112896, Note_on_c, 0, 45, 110
2, 112896, Note_on_c, 0, 57, 111
2, 112896, Note_on_c, 1, 33, 84
2, 112954, Note_on_c, 0, 45, 0
2, 112954, Note_on_c, 0, 57, 0
2, 112954, Note_on_c, 1, 33, 0
2, 112960, Note_on_c, 0, 49, 80
2, 112960, Note_on_c, 1, 25, 106
2, 112960, Note_on_c, 1, 37, 105
2, 113018, Note_on_c, 0, 49, 0
2, 113018, Note_on_c, 1, 25, 0
2, 113018, Note_on_c, 1, 37, 0
2, 113024, Note_on_c, 0, 45, 111
2, 113024, Note_on_c, 0, 57, 110
2, 113024, Note_on_c, 1, 33, 87
2, 113082, Note_on_c, 0, 45, 0
2, 113082, Note_on_c, 0, 57, 0
2, 113082, Note_on_c, 1, 33, 0
2, 113088, Note_on_c, 0, 50, 85
2, 113088, Note_on_c, 1, 26, 109
2, 113088, Note_on_c, 1, 38, 108
2, 113146, Note_on_c, 0, 50, 0
2, 113146, Note_on_c, 1, 26, 0
2, 113146, Note_on_c, 1, 38, 0
2, 113152, Note_on_c, 0, 45, 112
2, 113152, Note_on_c, 0, 57, 109
2, 113152, Note_on_c, 1, 33, 83
2, 113210, Note_on_c, 0, 45, 0
2, 113210, Note_on_c, 0, 57, 0
2, 113210, Note_on_c, 1, 33, 0
2, 113216, Note_on_c, 0, 52, 85
2, 113216, Note_on_c, 1, 28, 113
2, 113216, Note_on_c, 1, 40, 112
2, 113274, Note_on_c, 0, 52, 0
2, 113274, Note_on_c, 1, 28, 0
2, 113274, Note_on_c, 1, 40, 0
2, 113280, Note_on_c, 0, 45, 106
2, 113280, Note_on_c, 0, 57, 106
2, 113280, Note_on_c, 1, 33, 80
2, 113338, Note_on_c, 0, 45, 0
2, 113338, Note_on_c, 0, 57, 0
2, 113338, Note_on_c, 1, 33, 0
2, 113344, Note_on_c, 0, 53, 91
2, 113344, Note_on_c, 1, 29, 114
2, 113344, Note_on_c, 1, 41, 115
2, 113402, Note_on_c, 0, 53, 0
2, 113402, Note_on_c, 1, 29, 0
2, 113402, Note_on_c, 1, 41, 0
2, 113408, Note_on_c, 0, 45, 104
2, 113408, Note_on_c, 0, 57, 105
2, 113408, Note_on_c, 1, 33, 81
2, 113466, Note_on_c, 0, 45, 0
2, 113466, Note_on_c, 0, 57, 0
2, 113466, Note_on_c, 1, 33, 0
2, 113472, Note_on_c, 0, 45, 71
2, 113472, Note_on_c, 1, 21, 93
2, 113472, Note_on_c, 1, 33, 91
2, 113530, Note_on_c, 0, 45, 0
2, 113530, Note_on_c, 1, 21, 0
2, 113530, Note_on_c, 1, 33, 0
2, 113536, Note_on_c, 0, 45, 117
2, 113536, Note_on_c, 0, 57, 115
2, 113536, Note_on_c, 1, 33, 96
2, 113594, Note_on_c, 0, 45, 0
2, 113594, Note_on_c, 0, 57, 0
2, 113594, Note_on_c, 1, 33, 0
2, 113600, Note_on_c, 0, 47, 80
2, 113600, Note_on_c, 1, 23, 107
2, 113600, Note_on_c, 1, 35, 105
2, 113658, Note_on_c, 0, 47, 0
2, 113658, Note_on_c, 1, 23, 0
2, 113658, Note_on_c, 1, 35, 0
2, 113664, Note_on_c, 0, 45, 114
2, 113664, Note_on_c, 0, 57, 115
2, 113664, Note_on_c, 1, 33, 92
2, 113722, Note_on_c, 0, 45, 0
2, 113722, Note_on_c, 0, 57, 0
2, 113722, Note_on_c, 1, 33, 0
2, 113728, Note_on_c, 0, 49, 81
2, 113728, Note_on_c, 1, 25, 105
2, 113728, Note_on_c, 1, 37, 105
2, 113786, Note_on_c, 0, 49, 0
2, 113786, Note_on_c, 1, 25, 0
2, 113786, Note_on_c, 1, 37, 0
2, 113792, Note_on_c, 0, 45, 112
2, 113792, Note_on_c, 0, 57, 112
2, 113792, Note_on_c, 1, 33, 85
2, 113850, Note_on_c, 0, 45, 0
2, 113850, Note_on_c, 0, 57, 0
2, 113850, Note_on_c, 1, 33, 0
2, 113856, Note_on_c, 0, 50, 82
2, 113856, Note_on_c, 1, 26, 111
2, 113856, Note_on_c, 1, 38, 111
2, 113914, Note_on_c, 0, 50, 0
2, 113914, Note_on_c, 1, 26, 0
2, 113914, Note_on_c, 1, 38, 0
2, 113920, Note_on_c, 0, 45, 110
2, 113920, Note_on_c, 0, 57, 110
2, 113920, Note_on_c, 1, 33, 83
2, 113978, Note_on_c, 0, 45, 0
2, 113978, Note_on_c, 0, 57, 0
2, 113978, Note_on_c, 1, 33, 0
2, 113984, Note_on_c, 0, 49, 81
2, 113984, Note_on_c, 1, 25, 106
2, 113984, Note_on_c, 1, 37, 105
2, 114042, Note_on_c, 0, 49, 0
2, 114042, Note_on_c, 1, 25, 0
2, 114042, Note_on_c, 1, 37, 0
2, 114048, Note_on_c, 0, 45, 112
2, 114048, Note_on_c, 0, 57, 113
2, 114048, Note_on_c, 1, 33, 87
2, 114106, Note_on_c, 0, 45, 0
2, 114106, Note_on_c, 0, 57, 0
2, 114106, Note_on_c, 1, 33, 0
2, 114112, Note_on_c, 0, 50, 83
2, 114112, Note_on_c, 1, 26, 108
2, 114112, Note_on_c, 1, 38, 109
2, 114170, Note_on_c, 0, 50, 0
2, 114170, Note_on_c, 1, 26, 0
2, 114170, Note_on_c, 1, 38, 0
2, 114176, Note_on_c, 0, 45, 111
2, 114176, Note_on_c, 0, 57, 109
2, 114176, Note_on_c, 1, 33, 85
2, 114234, Note_on_c, 0, 45, 0
2, 114234, Note_on_c, 0, 57, 0
2, 114234, Note_on_c, 1, 33, 0
2, 114240, Note_on_c, 0, 52, 84
2, 114240, Note_on_c, 1, 28, 111
2, 114240, Note_on_c, 1, 40, 113
2, 114298, Note_on_c, 0, 52, 0
2, 114298, Note_on_c, 1, 28, 0
2, 114298, Note_on_c, 1, 40, 0
2, 114304, Note_on_c, 0, 45, 107
2, 114304, Note_on_c, 0, 57, 106
2, 114304, Note_on_c, 1, 33, 80
2, 114362, Note_on_c, 0, 45, 0
2, 114362, Note_on_c, 0, 57, 0
2, 114362, Note_on_c, 1, 33, 0
2, 114368, Note_on_c, 0, 53, 111
2, 114368, Note_on_c, 1, 29, 126
2, 114368, Note_on_c, 1, 41, 127
2, 114432, Note_on_c, 0, 67, 88
2, 114432, Note_on_c, 0, 76, 87
2, 114490, Note_on_c, 0, 67, 0
2, 114490, Note_on_c, 0, 76, 0
2, 114496, Note_on_c, 0, 65, 89
2, 114496, Note_on_c, 0, 74, 89
2, 114554, Note_on_c, 0, 65, 0
2, 114554, Note_on_c, 0, 74, 0
2, 114560, Note_on_c, 0, 64, 92
2, 114560, Note_on_c, 0, 73, 90
2, 114599, Note_on_c, 0, 53, 0
2, 114599, Note_on_c, 1, 29, 0
2, 114599, Note_on_c, 1, 41, 0
2, 114618, Note_on_c, 0, 64, 0
2, 114618, Note_on_c, 0, 73, 0
2, 114624, Note_on_c, 0, 65, 101
2, 114624, Note_on_c, 0, 74, 101
2, 114624, Note_on_c, 1, 65, 87
2, 114682, Note_on_c, 1, 65, 0
2, 114688, Note_on_c, 1, 61, 86
2, 114740, Note_on_c, 0, 65, 0
2, 114740, Note_on_c, 0, 74, 0
2, 114746, Note_on_c, 1, 61, 0
2, 114752, Note_on_c, 1, 62, 99
2, 114752, Note_on_c, 1, 53, 86
2, 114752, Note_on_c, 1, 65, 85
2, 114816, Note_on_c, 0, 77, 84
2, 114868, Note_on_c, 1, 62, 0
2, 114868, Note_on_c, 1, 53, 0
2, 114868, Note_on_c, 1, 65, 0
2, 114874, Note_on_c, 0, 77, 0
2, 114880, Note_on_c, 0, 76, 94
2, 114880, Note_on_c, 0, 74, 89
2, 114880, Note_on_c, 1, 62, 99
2, 114880, Note_on_c, 1, 55, 104
2, 114880, Note_on_c, 1, 67, 101
2, 114938, Note_on_c, 0, 76, 0
2, 114944, Note_on_c, 0, 77, 97
2, 114996, Note_on_c, 1, 55, 0
2, 114996, Note_on_c, 1, 67, 0
2, 115002, Note_on_c, 0, 77, 0
2, 115008, Note_on_c, 0, 79, 103
2, 115008, Note_on_c, 1, 50, 82
2, 115008, Note_on_c, 1, 62, 84
2, 115066, Note_on_c, 0, 79, 0
2, 115072, Note_on_c, 0, 81, 101
2, 115111, Note_on_c, 0, 74, 0
2, 115111, Note_on_c, 1, 62, 0
2, 115124, Note_on_c, 1, 50, 0
2, 115124, Note_on_c, 1, 62, 0
2, 115130, Note_on_c, 0, 81, 0
2, 115136, Note_on_c, 0, 82, 103
2, 115136, Note_on_c, 0, 73, 92
2, 115136, Note_on_c, 1, 61, 92
2, 115136, Note_on_c, 1, 57, 115
2, 115136, Note_on_c, 1, 69, 114
2, 115194, Note_on_c, 0, 82, 0
2, 115200, Note_on_c, 0, 81, 91
2, 115252, Note_on_c, 1, 57, 0
2, 115252, Note_on_c, 1, 69, 0
2, 115258, Note_on_c, 0, 81, 0
2, 115264, Note_on_c, 0, 79, 88
2, 115264, Note_on_c, 1, 33, 74
2, 115264, Note_on_c, 1, 45, 71
2, 115322, Note_on_c, 0, 79, 0
2, 115328, Note_on_c, 0, 81, 102
2, 115367, Note_on_c, 0, 73, 0
2, 115367, Note_on_c, 1, 61, 0
2, 115380, Note_on_c, 1, 33, 0
2, 115380, Note_on_c, 1, 45, 0
2, 115386, Note_on_c, 0, 81, 0
2, 115392, Note_on_c, 0, 77, 90
2, 115392, Note_on_c, 0, 74, 104
2, 115392, Note_on_c, 1, 38, 102
2, 115392, Note_on_c, 1, 50, 102
2, 115450, Note_on_c, 0, 74, 0
2, 115456, Note_on_c, 0, 69, 84
2, 115456, Note_on_c, 1, 57, 88
2, 115508, Note_on_c, 0, 77, 0
2, 115514, Note_on_c, 0, 69, 0
2, 115514, Note_on_c, 1, 57, 0
2, 115520, Note_on_c, 0, 76, 91
2, 115520, Note_on_c, 0, 71, 100
2, 115520, Note_on_c, 1, 59, 101
2, 115578, Note_on_c, 0, 71, 0
2, 115578, Note_on_c, 1, 59, 0
2, 115584, Note_on_c, 0, 73, 102
2, 115584, Note_on_c, 1, 61, 102
2, 115623, Note_on_c, 1, 38, 0
2, 115623, Note_on_c, 1, 50, 0
2, 115636, Note_on_c, 0, 76, 0
2, 115642, Note_on_c, 0, 73, 0
2, 115642, Note_on_c, 1, 61, 0
2, 115648, Note_on_c, 0, 74, 92
2, 115648, Note_on_c, 0, 74, 104
2, 115648, Note_on_c, 1, 62, 101
2, 115706, Note_on_c, 0, 74, 0
2, 115712, Note_on_c, 0, 76, 100
2, 115764, Note_on_c, 0, 74, 0
2, 115770, Note_on_c, 0, 76, 0
2, 115776, Note_on_c, 0, 77, 102
2, 115776, Note_on_c, 0, 65, 92
2, 115776, Note_on_c, 0, 73, 92
2, 115776, Note_on_c, 1, 33, 87
2, 115776, Note_on_c, 1, 45, 85
2, 115834, Note_on_c, 0, 77, 0
2, 115840, Note_on_c, 0, 75, 91
2, 115879, Note_on_c, 1, 62, 0
2, 115892, Note_on_c, 0, 65, 0
2, 115892, Note_on_c, 0, 73, 0
2, 115892, Note_on_c, 1, 33, 0
2, 115892, Note_on_c, 1, 45, 0
2, 115898, Note_on_c, 0, 75, 0
2, 115904, Note_on_c, 0, 65, 105
2, 115904, Note_on_c, 0, 77, 105
2, 115904, Note_on_c, 0, 74, 102
2, 115904, Note_on_c, 1, 34, 103
2, 115904, Note_on_c, 1, 46, 102
2, 115962, Note_on_c, 0, 74, 0
2, 115968, Note_on_c, 0, 72, 92
2, 116020, Note_on_c, 1, 34, 0
2, 116020, Note_on_c, 1, 46, 0
2, 116026, Note_on_c, 0, 72, 0
2, 116032, Note_on_c, 0, 70, 87
2, 116032, Note_on_c, 1, 31, 87
2, 116032, Note_on_c, 1, 43, 88
2, 116090, Note_on_c, 0, 70, 0
2, 116096, Note_on_c, 0, 69, 89
2, 116148, Note_on_c, 1, 31, 0
2, 116148, Note_on_c, 1, 43, 0
2, 116154, Note_on_c, 0, 69, 0
2, 116160, Note_on_c, 0, 67, 90
2, 116160, Note_on_c, 1, 65, 88
2, 116160, Note_on_c, 1, 36, 109
2, 116160, Note_on_c, 1, 48, 109
2, 116218, Note_on_c, 0, 67, 0
2, 116224, Note_on_c, 0, 69, 102
2, 116250, Note_on_c, 0, 65, 0
2, 116250, Note_on_c, 0, 77, 0
2, 116276, Note_on_c, 1, 65, 0
2, 116276, Note_on_c, 1, 36, 0
2, 116276, Note_on_c, 1, 48, 0
2, 116282, Note_on_c, 0, 69, 0
2, 116288, Note_on_c, 0, 63, 90
2, 116288, Note_on_c, 0, 75, 91
2, 116288, Note_on_c, 0, 70, 101
2, 116288, Note_on_c, 1, 70, 107
2, 116288, Note_on_c, 1, 21, 70
2, 116288, Note_on_c, 1, 33, 70
2, 116346, Note_on_c, 0, 70, 0
2, 116352, Note_on_c, 0, 72, 101
2, 116404, Note_on_c, 1, 70, 0
2, 116404, Note_on_c, 1, 21, 0
2, 116404, Note_on_c, 1, 33, 0
2, 116410, Note_on_c, 0, 72, 0
2, 116416, Note_on_c, 0, 69, 88
2, 116416, Note_on_c, 1, 63, 84
2, 116416, Note_on_c, 1, 29, 112
2, 116416, Note_on_c, 1, 41, 108
2, 116474, Note_on_c, 0, 63, 0
2, 116474, Note_on_c, 0, 75, 0
2, 116474, Note_on_c, 1, 63, 0
2, 116480, Note_on_c, 0, 72, 88
2, 116480, Note_on_c, 1, 60, 87
2, 116538, Note_on_c, 0, 72, 0
2, 116538, Note_on_c, 1, 60, 0
2, 116544, Note_on_c, 0, 69, 85
2, 116544, Note_on_c, 1, 57, 85
2, 116602, Note_on_c, 0, 69, 0
2, 116602, Note_on_c, 1, 57, 0
2, 116608, Note_on_c, 0, 65, 86
2, 116608, Note_on_c, 1, 53, 84
2, 116647, Note_on_c, 0, 69, 0
2, 116647, Note_on_c, 1, 29, 0
2, 116647, Note_on_c, 1, 41, 0
2, 116666, Note_on_c, 0, 65, 0
2, 116666, Note_on_c, 1, 53, 0
2, 116672, Note_on_c, 0, 69, 96
2, 116672, Note_on_c, 1, 57, 106
2, 116730, Note_on_c, 0, 69, 0
2, 116736, Note_on_c, 0, 72, 105
2, 116788, Note_on_c, 1, 57, 0
2, 116794, Note_on_c, 0, 72, 0
2, 116800, Note_on_c, 0, 84, 87
2, 116800, Note_on_c, 0, 75, 105
2, 116800, Note_on_c, 1, 33, 87
2, 116800, Note_on_c, 1, 45, 86
2, 116858, Note_on_c, 0, 75, 0
2, 116864, Note_on_c, 0, 72, 89
2, 116916, Note_on_c, 1, 33, 0
2, 116916, Note_on_c, 1, 45, 0
2, 116928, Note_on_c, 1, 34, 103
2, 116928, Note_on_c, 1, 46, 103
2, 116992, Note_on_c, 1, 58, 87
2, 117044, Note_on_c, 0, 84, 0
2, 117044, Note_on_c, 0, 72, 0
2, 117050, Note_on_c, 1, 58, 0
2, 117056, Note_on_c, 0, 82, 89
2, 117056, Note_on_c, 0, 70, 92
2, 117056, Note_on_c, 1, 55, 84
2, 117114, Note_on_c, 1, 55, 0
2, 117120, Note_on_c, 1, 50, 112
2, 117120, Note_on_c, 1, 62, 112
2, 117159, Note_on_c, 1, 34, 0
2, 117159, Note_on_c, 1, 46, 0
2, 117172, Note_on_c, 0, 82, 0
2, 117172, Note_on_c, 0, 70, 0
2, 117178, Note_on_c, 1, 50, 0
2, 117178, Note_on_c, 1, 62, 0
2, 117184, Note_on_c, 0, 67, 92
2, 117184, Note_on_c, 1, 55, 84
2, 117242, Note_on_c, 0, 67, 0
2, 117242, Note_on_c, 1, 55, 0
2, 117248, Note_on_c, 0, 70, 103
2, 117306, Note_on_c, 0, 70, 0
2, 117312, Note_on_c, 0, 79, 84
2, 117312, Note_on_c, 0, 74, 107
2, 117312, Note_on_c, 1, 34, 87
2, 117312, Note_on_c, 1, 46, 85
2, 117370, Note_on_c, 0, 74, 0
2, 117376, Note_on_c, 0, 67, 80
2, 117428, Note_on_c, 0, 79, 0
2, 117428, Note_on_c, 1, 34, 0
2, 117428, Note_on_c, 1, 46, 0
2, 117440, Note_on_c, 0, 75, 88
2, 117440, Note_on_c, 1, 36, 101
2, 117440, Note_on_c, 1, 48, 102
2, 117498, Note_on_c, 0, 75, 0
2, 117504, Note_on_c, 0, 77, 101
2, 117504, Note_on_c, 1, 62, 85
2, 117562, Note_on_c, 0, 77, 0
2, 117562, Note_on_c, 1, 62, 0
2, 117568, Note_on_c, 0, 74, 86
2, 117568, Note_on_c, 1, 58, 86
2, 117626, Note_on_c, 0, 74, 0
2, 117626, Note_on_c, 1, 58, 0
2, 117632, Note_on_c, 0, 75, 98
2, 117632, Note_on_c, 1, 60, 97
2, 117671, Note_on_c, 0, 67, 0
2, 117671, Note_on_c, 1, 36, 0
2, 117671, Note_on_c, 1, 48, 0
2, 117690, Note_on_c, 0, 75, 0
2, 117690, Note_on_c, 1, 60, 0
2, 117696, Note_on_c, 0, 72, 91
2, 117696, Note_on_c, 1, 57, 88
2, 117754, Note_on_c, 0, 72, 0
2, 117754, Note_on_c, 1, 57, 0
2, 117760, Note_on_c, 0, 70, 89
2, 117760, Note_on_c, 1, 67, 118
2, 117818, Note_on_c, 0, 70, 0
2, 117818, Note_on_c, 1, 67, 0
2, 117824, Note_on_c, 0, 69, 88
2, 117824, Note_on_c, 1, 66, 95
2, 117824, Note_on_c, 1, 36, 87
2, 117824, Note_on_c, 1, 48, 87
2, 117882, Note_on_c, 0, 69, 0
2, 117882, Note_on_c, 1, 66, 0
2, 117888, Note_on_c, 0, 67, 90
2, 117888, Note_on_c, 1, 64, 89
2, 117940, Note_on_c, 1, 36, 0
2, 117940, Note_on_c, 1, 48, 0
2, 117946, Note_on_c, 0, 67, 0
2, 117946, Note_on_c, 1, 64, 0
2, 117952, Note_on_c, 0, 66, 93
2, 117952, Control_c, 1, 64, 127
2, 117952, Note_on_c, 1, 57, 110
2, 117952, Note_on_c, 1, 69, 109
2, 117952, Note_on_c, 1, 38, 127
2, 117952, Note_on_c, 1, 50, 127
2, 118010, Note_on_c, 0, 66, 0
2, 118016, Note_on_c, 0, 62, 86
2, 118074, Note_on_c, 0, 62, 0
2, 118080, Note_on_c, 0, 66, 105
2, 118138, Note_on_c, 0, 66, 0
2, 118144, Note_on_c, 0, 67, 101
2, 118183, Note_on_c, 1, 57, 0
2, 118183, Note_on_c, 1, 69, 0
2, 118202, Note_on_c, 0, 67, 0
2, 118208, Note_on_c, 0, 69, 104
2, 118208, Note_on_c, 1, 38, 0
2, 118208, Note_on_c, 1, 50, 0
2, 118208, Note_on_c, 1, 57, 74
2, 118266, Note_on_c, 0, 69, 0
2, 118272, Note_on_c, 0, 62, 111
2, 118272, Note_on_c, 0, 74, 110
2, 118330, Note_on_c, 0, 62, 0
2, 118330, Note_on_c, 0, 74, 0
2, 118336, Note_on_c, 0, 69, 86
2, 118381, Note_on_c, 1, 57, 0
2, 118394, Note_on_c, 0, 69, 0
2, 118400, Note_on_c, 0, 67, 90
2, 118400, Control_c, 1, 64, 0
2, 118400, Note_on_c, 1, 55, 84
2, 118458, Note_on_c, 0, 67, 0
2, 118458, Note_on_c, 1, 55, 0
2, 118464, Note_on_c, 0, 66, 94
2, 118464, Control_c, 1, 64, 127
2, 118464, Note_on_c, 1, 54, 95
2, 118464, Note_on_c, 1, 38, 114
2, 118464, Note_on_c, 1, 50, 112
2, 118522, Note_on_c, 0, 66, 0
2, 118528, Note_on_c, 0, 62, 84
2, 118586, Note_on_c, 0, 62, 0
2, 118592, Note_on_c, 0, 66, 105
2, 118637, Note_on_c, 1, 54, 0
2, 118650, Note_on_c, 0, 66, 0
2, 118656, Note_on_c, 0, 67, 103
2, 118656, Note_on_c, 1, 55, 100
2, 118714, Note_on_c, 0, 67, 0
2, 118714, Note_on_c, 1, 55, 0
2, 118720, Note_on_c, 0, 69, 107
2, 118720, Note_on_c, 1, 38, 0
2, 118720, Note_on_c, 1, 50, 0
2, 118720, Note_on_c, 1, 57, 106
2, 118778, Note_on_c, 0, 69, 0
2, 118784, Note_on_c, 0, 62, 109
2, 118784, Note_on_c, 0, 74, 108
2, 118842, Note_on_c, 0, 62, 0
2, 118842, Note_on_c, 0, 74, 0
2, 118848, Note_on_c, 0, 69, 84
2, 118893, Note_on_c, 1, 57, 0
2, 118906, Note_on_c, 0, 69, 0
2, 118912, Note_on_c, 0, 67, 88
2, 118912, Control_c, 1, 64, 0
2, 118912, Note_on_c, 1, 55, 92
2, 118970, Note_on_c, 0, 67, 0
2, 118970, Note_on_c, 1, 55, 0
2, 118976, Note_on_c, 0, 67, 98
2, 118976, Control_c, 1, 64, 127
2, 118976, Note_on_c, 1, 55, 124
2, 118976, Note_on_c, 1, 38, 110
2, 118976, Note_on_c, 1, 43, 109
2, 118976, Note_on_c, 1, 50, 111
2, 119034, Note_on_c, 0, 67, 0
2, 119040, Note_on_c, 0, 62, 83
2, 119098, Note_on_c, 0, 62, 0
2, 119104, Note_on_c, 0, 67, 104
2, 119149, Note_on_c, 1, 55, 0
2, 119162, Note_on_c, 0, 67, 0
2, 119168, Note_on_c, 0, 69, 102
2, 119168, Note_on_c, 1, 57, 127
2, 119207, Note_on_c, 1, 38, 0
2, 119207, Note_on_c, 1, 43, 0
2, 119207, Note_on_c, 1, 50, 0
2, 119226, Note_on_c, 0, 69, 0
2, 119226, Note_on_c, 1, 57, 0
2, 119232, Note_on_c, 0, 70, 102
2, 119232, Note_on_c, 1, 58, 127
2, 119290, Note_on_c, 0, 70, 0
2, 119296, Note_on_c, 0, 62, 107
2, 119296, Note_on_c, 0, 74, 107
2, 119354, Note_on_c, 0, 62, 0
2, 119354, Note_on_c, 0, 74, 0
2, 119360, Note_on_c, 0, 70, 88
2, 119405, Note_on_c, 1, 58, 0
2, 119418, Note_on_c, 0, 70, 0
2, 119424, Note_on_c, 0, 69, 89
2, 119424, Control_c, 1, 64, 0
2, 119424, Note_on_c, 1, 57, 115
2, 119482, Note_on_c, 0, 69, 0
2, 119482, Note_on_c, 1, 57, 0
2, 119488, Note_on_c, 0, 67, 92
2, 119488, Control_c, 1, 64, 127
2, 119488, Note_on_c, 1, 55, 117
2, 119488, Note_on_c, 1, 38, 107
2, 119488, Note_on_c, 1, 43, 108
2, 119488, Note_on_c, 1, 50, 107
2, 119546, Note_on_c, 0, 67, 0
2, 119552, Note_on_c, 0, 62, 84
2, 119610, Note_on_c, 0, 62, 0
2, 119616, Note_on_c, 0, 67, 106
2, 119661, Note_on_c, 1, 55, 0
2, 119674, Note_on_c, 0, 67, 0
2, 119680, Note_on_c, 0, 69, 105
2, 119680, Note_on_c, 1, 57, 126
2, 119719, Note_on_c, 1, 38, 0
2, 119719, Note_on_c, 1, 43, 0
2, 119719, Note_on_c, 1, 50, 0
2, 119738, Note_on_c, 0, 69, 0
2, 119738, Note_on_c, 1, 57, 0
2, 119744, Note_on_c, 0, 70, 103
2, 119744, Note_on_c, 1, 58, 127
2, 119802, Note_on_c, 0, 70, 0
2, 119808, Note_on_c, 0, 62, 108
2, 119808, Note_on_c, 0, 74, 107
2, 119860, Note_on_c, 1, 58, 0
2, 119866, Note_on_c, 0, 62, 0
2, 119866, Note_on_c, 0, 74, 0
2, 119872, Note_on_c, 0, 70, 86
2, 119872, Control_c, 1, 64, 0
2, 119872, Note_on_c, 1, 60, 127
2, 119930, Note_on_c, 0, 70, 0
2, 119930, Note_on_c, 1, 60, 0
2, 119936, Note_on_c, 0, 69, 90
2, 119936, Note_on_c, 1, 58, 91
2, 119994, Note_on_c, 0, 69, 0
2, 119994, Note_on_c, 1, 58, 0
2, 120000, Note_on_c, 0, 69, 97
2, 120000, Control_c, 1, 64, 127
2, 120000, Note_on_c, 1, 57, 91
2, 120000, Note_on_c, 1, 38, 110
2, 120000, Note_on_c, 1, 45, 111
2, 120000, Note_on_c, 1, 50, 109
2, 120058, Note_on_c, 0, 69, 0
2, 120064, Note_on_c, 0, 66, 89
2, 120122, Note_on_c, 0, 66, 0
2, 120128, Note_on_c, 0, 69, 103
2, 120173, Note_on_c, 1, 57, 0
2, 120186, Note_on_c, 0, 69, 0
2, 120192, Note_on_c, 0, 70, 101
2, 120192, Note_on_c, 1, 58, 124
2, 120231, Note_on_c, 1, 38, 0
2, 120231, Note_on_c, 1, 45, 0
2, 120231, Note_on_c, 1, 50, 0
2, 120250, Note_on_c, 0, 70, 0
2, 120250, Note_on_c, 1, 58, 0
2, 120256, Note_on_c, 0, 72, 104
2, 120256, Note_on_c, 1, 60, 127
2, 120314, Note_on_c, 0, 72, 0
2, 120320, Note_on_c, 0, 63, 105
2, 120320, Note_on_c, 0, 75, 106
2, 120378, Note_on_c, 0, 63, 0
2, 120378, Note_on_c, 0, 75, 0
2, 120384, Note_on_c, 0, 72, 89
2, 120429, Note_on_c, 1, 60, 0
2, 120442, Note_on_c, 0, 72, 0
2, 120448, Note_on_c, 0, 70, 87
2, 120448, Control_c, 1, 64, 0
2, 120448, Note_on_c, 1, 58, 92
2, 120506, Note_on_c, 0, 70, 0
2, 120506, Note_on_c, 1, 58, 0
2, 120512, Note_on_c, 0, 69, 94
2, 120512, Control_c, 1, 64, 127
2, 120512, Note_on_c, 1, 57, 94
2, 120512, Note_on_c, 1, 38, 108
2, 120512, Note_on_c, 1, 45, 109
2, 120512, Note_on_c, 1, 50, 109
2, 120570, Note_on_c, 0, 69, 0
2, 120576, Note_on_c, 0, 66, 87
2, 120634, Note_on_c, 0, 66, 0
2, 120640, Note_on_c, 0, 69, 102
2, 120685, Note_on_c, 1, 57, 0
2, 120698, Note_on_c, 0, 69, 0
2, 120704, Note_on_c, 0, 70, 101
2, 120704, Note_on_c, 1, 58, 101
2, 120743, Note_on_c, 1, 38, 0
2, 120743, Note_on_c, 1, 45, 0
2, 120743, Note_on_c, 1, 50, 0
2, 120762, Note_on_c, 0, 70, 0
2, 120762, Note_on_c, 1, 58, 0
2, 120768, Note_on_c, 0, 72, 106
2, 120768, Note_on_c, 1, 60, 106
2, 120826, Note_on_c, 0, 72, 0
2, 120832, Note_on_c, 0, 63, 104
2, 120832, Note_on_c, 0, 75, 105
2, 120890, Note_on_c, 0, 63, 0
2, 120890, Note_on_c, 0, 75, 0
2, 120896, Note_on_c, 0, 72, 88
2, 120941, Note_on_c, 1, 60, 0
2, 120954, Note_on_c, 0, 72, 0
2, 120960, Note_on_c, 0, 70, 89
2, 120960, Control_c, 1, 64, 0
2, 120960, Note_on_c, 1, 58, 92
2, 121018, Note_on_c, 0, 70, 0
2, 121018, Note_on_c, 1, 58, 0
2, 121024, Note_on_c, 0, 57, 91
2, 121024, Note_on_c, 0, 69, 93
2, 121024, Control_c, 1, 64, 127
2, 121024, Note_on_c, 1, 38, 113
2, 121024, Note_on_c, 1, 46, 112
2, 121024, Note_on_c, 1, 50, 110
2, 121082, Note_on_c, 0, 57, 0
2, 121082, Note_on_c, 0, 69, 0
2, 121088, Note_on_c, 0, 70, 100
2, 121146, Note_on_c, 0, 70, 0
2, 121152, Note_on_c, 0, 74, 107
2, 121152, Note_on_c, 1, 62, 84
2, 121210, Note_on_c, 0, 74, 0
2, 121210, Note_on_c, 1, 62, 0
2, 121216, Note_on_c, 0, 78, 107
2, 121216, Note_on_c, 1, 66, 104
2, 121255, Note_on_c, 1, 38, 0
2, 121255, Note_on_c, 1, 46, 0
2, 121255, Note_on_c, 1, 50, 0
2, 121274, Note_on_c, 0, 78, 0
2, 121274, Note_on_c, 1, 66, 0
2, 121280, Note_on_c, 0, 79, 107
2, 121280, Note_on_c, 1, 67, 105
2, 121338, Note_on_c, 0, 79, 0
2, 121344, Note_on_c, 0, 70, 106
2, 121344, Note_on_c, 0, 82, 103
2, 121402, Note_on_c, 0, 70, 0
2, 121402, Note_on_c, 0, 82, 0
2, 121408, Note_on_c, 0, 79, 90
2, 121453, Note_on_c, 1, 67, 0
2, 121466, Note_on_c, 0, 79, 0
2, 121472, Note_on_c, 0, 74, 81
2, 121472, Control_c, 1, 64, 0
2, 121472, Note_on_c, 1, 62, 84
2, 121530, Note_on_c, 0, 74, 0
2, 121530, Note_on_c, 1, 62, 0
2, 121536, Note_on_c, 0, 70, 86
2, 121536, Control_c, 1, 64, 127
2, 121536, Note_on_c, 1, 58, 86
2, 121536, Note_on_c, 1, 38, 109
2, 121536, Note_on_c, 1, 46, 108
2, 121536, Note_on_c, 1, 50, 109
2, 121594, Note_on_c, 0, 70, 0
2, 121600, Note_on_c, 0, 67, 84
2, 121658, Note_on_c, 0, 67, 0
2, 121664, Note_on_c, 0, 70, 102
2, 121709, Note_on_c, 1, 58, 0
2, 121722, Note_on_c, 0, 70, 0
2, 121728, Note_on_c, 0, 74, 107
2, 121728, Note_on_c, 1, 50, 103
2, 121728, Note_on_c, 1, 62, 105
2, 121767, Note_on_c, 1, 38, 0
2, 121767, Note_on_c, 1, 46, 0
2, 121767, Note_on_c, 1, 50, 0
2, 121786, Note_on_c, 0, 74, 0
2, 121786, Note_on_c, 1, 50, 0
2, 121786, Note_on_c, 1, 62, 0
2, 121792, Note_on_c, 0, 79, 112
2, 121792, Note_on_c, 1, 55, 84
2, 121850, Note_on_c, 0, 79, 0
2, 121850, Note_on_c, 1, 55, 0
2, 121856, Note_on_c, 0, 70, 107
2, 121856, Note_on_c, 0, 82, 105
2, 121856, Control_c, 1, 64, 0
2, 121856, Note_on_c, 1, 58, 102
2, 121914, Note_on_c, 0, 70, 0
2, 121914, Note_on_c, 0, 82, 0
2, 121914, Note_on_c, 1, 58, 0
2, 121920, Note_on_c, 0, 79, 88
2, 121920, Note_on_c, 1, 55, 87
2, 121978, Note_on_c, 0, 79, 0
2, 121978, Note_on_c, 1, 55, 0
2, 121984, Note_on_c, 0, 74, 82
2, 121984, Note_on_c, 1, 50, 84
2, 122042, Note_on_c, 0, 74, 0
2, 122042, Note_on_c, 1, 50, 0
2, 122048, Note_on_c, 0, 72, 91
2, 122048, Note_on_c, 0, 62, 88
2, 122048, Note_on_c, 1, 48, 91
2, 122048, Note_on_c, 1, 38, 112
2, 122048, Note_on_c, 1, 50, 112
2, 122048, Note_on_c, 1, 60, 89
2, 122106, Note_on_c, 0, 72, 0
2, 122106, Note_on_c, 1, 48, 0
2, 122112, Note_on_c, 0, 69, 87
2, 122112, Control_c, 1, 64, 127
2, 122112, Note_on_c, 1, 45, 85
2, 122170, Note_on_c, 0, 69, 0
2, 122170, Note_on_c, 1, 45, 0
2, 122176, Note_on_c, 0, 72, 102
2, 122176, Note_on_c, 1, 48, 103
2, 122221, Note_on_c, 1, 60, 0
2, 122234, Note_on_c, 0, 72, 0
2, 122234, Note_on_c, 1, 48, 0
2, 122240, Note_on_c, 0, 75, 106
2, 122240, Note_on_c, 1, 51, 105
2, 122240, Note_on_c, 1, 63, 101
2, 122279, Note_on_c, 0, 62, 0
2, 122279, Note_on_c, 1, 38, 0
2, 122279, Note_on_c, 1, 50, 0
2, 122298, Note_on_c, 0, 75, 0
2, 122298, Note_on_c, 1, 51, 0
2, 122298, Note_on_c, 1, 63, 0
2, 122304, Note_on_c, 0, 78, 109
2, 122304, Note_on_c, 1, 54, 106
2, 122362, Note_on_c, 0, 78, 0
2, 122362, Note_on_c, 1, 54, 0
2, 122368, Note_on_c, 0, 69, 107
2, 122368, Note_on_c, 0, 81, 107
2, 122368, Control_c, 1, 64, 0
2, 122368, Note_on_c, 1, 57, 104
2, 122426, Note_on_c, 0, 69, 0
2, 122426, Note_on_c, 0, 81, 0
2, 122426, Note_on_c, 1, 57, 0
2, 122432, Note_on_c, 0, 78, 88
2, 122432, Note_on_c, 1, 54, 91
2, 122490, Note_on_c, 0, 78, 0
2, 122490, Note_on_c, 1, 54, 0
2, 122496, Note_on_c, 0, 74, 83
2, 122496, Note_on_c, 1, 51, 85
2, 122554, Note_on_c, 0, 74, 0
2, 122554, Note_on_c, 1, 51, 0
2, 122560, Note_on_c, 0, 72, 91
2, 122560, Note_on_c, 0, 62, 85
2, 122560, Control_c, 1, 64, 127
2, 122560, Note_on_c, 1, 48, 90
2, 122560, Note_on_c, 1, 38, 110
2, 122560, Note_on_c, 1, 50, 109
2, 122560, Note_on_c, 1, 60, 90
2, 122618, Note_on_c, 0, 72, 0
2, 122618, Note_on_c, 1, 48, 0
2, 122624, Note_on_c, 0, 69, 88
2, 122624, Note_on_c, 1, 45, 86
2, 122682, Note_on_c, 0, 69, 0
2, 122682, Note_on_c, 1, 45, 0
2, 122688, Note_on_c, 0, 72, 103
2, 122688, Note_on_c, 1, 48, 103
2, 122733, Note_on_c, 1, 60, 0
2, 122746, Note_on_c, 0, 72, 0
2, 122746, Note_on_c, 1, 48, 0
2, 122752, Note_on_c, 0, 75, 103
2, 122752, Note_on_c, 1, 51, 104
2, 122752, Note_on_c, 1, 63, 103
2, 122791, Note_on_c, 0, 62, 0
2, 122791, Note_on_c, 1, 38, 0
2, 122791, Note_on_c, 1, 50, 0
2, 122810, Note_on_c, 0, 75, 0
2, 122810, Note_on_c, 1, 51, 0
2, 122810, Note_on_c, 1, 63, 0
2, 122816, Note_on_c, 0, 78, 110
2, 122816, Note_on_c, 1, 54, 108
2, 122874, Note_on_c, 0, 78, 0
2, 122874, Note_on_c, 1, 54, 0
2, 122880, Note_on_c, 0, 69, 107
2, 122880, Note_on_c, 0, 81, 106
2, 122880, Note_on_c, 1, 57, 103
2, 122938, Note_on_c, 0, 69, 0
2, 122938, Note_on_c, 0, 81, 0
2, 122938, Note_on_c, 1, 57, 0
2, 122944, Note_on_c, 0, 78, 89
2, 122944, Note_on_c, 1, 54, 91
2, 123002, Note_on_c, 0, 78, 0
2, 123002, Note_on_c, 1, 54, 0
2, 123008, Note_on_c, 0, 75, 87
2, 123008, Note_on_c, 1, 51, 114
2, 123008, Note_on_c, 1, 63, 116
2, 123008, Control_c, 1, 64, 0
2, 123066, Note_on_c, 0, 75, 0
2, 123066, Note_on_c, 1, 51, 0
2, 123066, Note_on_c, 1, 63, 0
2, 123072, Note_on_c, 0, 66, 93
2, 123072, Note_on_c, 0, 74, 92
2, 123072, Note_on_c, 1, 54, 96
2, 123072, Note_on_c, 1, 62, 100
2, 123136, Note_on_c, 1, 38, 85
2, 123136, Note_on_c, 1, 50, 86
2, 123188, Note_on_c, 0, 66, 0
2, 123188, Note_on_c, 0, 74, 0
2, 123188, Note_on_c, 1, 54, 0
2, 123188, Note_on_c, 1, 62, 0
2, 123194, Note_on_c, 1, 38, 0
2, 123194, Note_on_c, 1, 50, 0
2, 123200, Note_on_c, 1, 36, 89
2, 123200, Note_on_c, 1, 48, 87
2, 123258, Note_on_c, 1, 36, 0
2, 123258, Note_on_c, 1, 48, 0
2, 123264, Note_on_c, 1, 38, 101
2, 123264, Note_on_c, 1, 50, 102
2, 123322, Note_on_c, 1, 38, 0
2, 123322, Note_on_c, 1, 50, 0
2, 123328, Note_on_c, 0, 74, 88
2, 123328, Note_on_c, 0, 79, 87
2, 123328, Note_on_c, 0, 86, 88
2, 123328, Note_on_c, 1, 34, 91
2, 123328, Note_on_c, 1, 46, 90
2, 123386, Note_on_c, 1, 34, 0
2, 123386, Note_on_c, 1, 46, 0
2, 123392, Note_on_c, 1, 38, 105
2, 123392, Note_on_c, 1, 50, 106
2, 123444, Note_on_c, 0, 74, 0
2, 123444, Note_on_c, 0, 79, 0
2, 123444, Note_on_c, 0, 86, 0
2, 123450, Note_on_c, 1, 38, 0
2, 123450, Note_on_c, 1, 50, 0
2, 123456, Note_on_c, 0, 72, 87
2, 123456, Note_on_c, 0, 78, 87
2, 123456, Note_on_c, 0, 84, 88
2, 123456, Note_on_c, 1, 33, 85
2, 123456, Note_on_c, 1, 45, 82
2, 123514, Note_on_c, 1, 33, 0
2, 123514, Note_on_c, 1, 45, 0
2, 123520, Note_on_c, 1, 38, 107
2, 123520, Note_on_c, 1, 50, 107
2, 123572, Note_on_c, 0, 72, 0
2, 123572, Note_on_c, 0, 78, 0
2, 123572, Note_on_c, 0, 84, 0
2, 123578, Note_on_c, 1, 38, 0
2, 123578, Note_on_c, 1, 50, 0
2, 123584, Note_on_c, 0, 70, 87
2, 123584, Note_on_c, 0, 79, 87
2, 123584, Note_on_c, 0, 82, 91
2, 123584, Note_on_c, 1, 31, 83
2, 123584, Note_on_c, 1, 43, 85
2, 123642, Note_on_c, 1, 31, 0
2, 123642, Note_on_c, 1, 43, 0
2, 123648, Note_on_c, 1, 43, 118
2, 123648, Note_on_c, 1, 55, 122
2, 123706, Note_on_c, 1, 43, 0
2, 123706, Note_on_c, 1, 55, 0
2, 123712, Note_on_c, 1, 41, 94
2, 123712, Note_on_c, 1, 53, 94
2, 123770, Note_on_c, 1, 41, 0
2, 123770, Note_on_c, 1, 53, 0
2, 123776, Note_on_c, 1, 43, 104
2, 123776, Note_on_c, 1, 55, 103
2, 123815, Note_on_c, 0, 70, 0
2, 123815, Note_on_c, 0, 79, 0
2, 123815, Note_on_c, 0, 82, 0
2, 123834, Note_on_c, 1, 43, 0
2, 123834, Note_on_c, 1, 55, 0
2, 123840, Note_on_c, 0, 72, 104
2, 123840, Note_on_c, 0, 79, 103
2, 123840, Note_on_c, 0, 84, 104
2, 123840, Note_on_c, 1, 39, 89
2, 123840, Note_on_c, 1, 51, 90
2, 123898, Note_on_c, 1, 39, 0
2, 123898, Note_on_c, 1, 51, 0
2, 123904, Note_on_c, 1, 43, 106
2, 123904, Note_on_c, 1, 55, 104
2, 123956, Note_on_c, 0, 72, 0
2, 123956, Note_on_c, 0, 79, 0
2, 123956, Note_on_c, 0, 84, 0
2, 123962, Note_on_c, 1, 43, 0
2, 123962, Note_on_c, 1, 55, 0
2, 123968, Note_on_c, 0, 74, 102
2, 123968, Note_on_c, 0, 83, 101
2, 123968, Note_on_c, 0, 86, 101
2, 123968, Note_on_c, 1, 38, 83
2, 123968, Note_on_c, 1, 50, 85
2, 124026, Note_on_c, 1, 38, 0
2, 124026, Note_on_c, 1, 50, 0
2, 124032, Note_on_c, 1, 43, 107
2, 124032, Note_on_c, 1, 55, 109
2, 124084, Note_on_c, 0, 74, 0
2, 124084, Note_on_c, 0, 83, 0
2, 124084, Note_on_c, 0, 86, 0
2, 124090, Note_on_c, 1, 43, 0
2, 124090, Note_on_c, 1, 55, 0
2, 124096, Note_on_c, 0, 75, 104
2, 124096, Note_on_c, 0, 79, 104
2, 124096, Note_on_c, 0, 84, 102
2, 124096, Note_on_c, 0, 87, 105
2, 124096, Note_on_c, 1, 36, 82
2, 124096, Note_on_c, 1, 48, 85
2, 124154, Note_on_c, 1, 36, 0
2, 124154, Note_on_c, 1, 48, 0
2, 124160, Note_on_c, 1, 36, 94
2, 124160, Note_on_c, 1, 48, 91
2, 124218, Note_on_c, 1, 36, 0
2, 124218, Note_on_c, 1, 48, 0
2, 124224, Note_on_c, 1, 34, 89
2, 124224, Note_on_c, 1, 46, 89
2, 124282, Note_on_c, 1, 34, 0
2, 124282, Note_on_c, 1, 46, 0
2, 124288, Note_on_c, 1, 36, 101
2, 124288, Note_on_c, 1, 48, 102
2, 124327, Note_on_c, 0, 75, 0
2, 124327, Note_on_c, 0, 79, 0
2, 124327, Note_on_c, 0, 84, 0
2, 124327, Note_on_c, 0, 87, 0
2, 124346, Note_on_c, 1, 36, 0
2, 124346, Note_on_c, 1, 48, 0
2, 124352, Note_on_c, 0, 77, 106
2, 124352, Note_on_c, 0, 84, 105
2, 124352, Note_on_c, 0, 89, 105
2, 124352, Note_on_c, 1, 33, 90
2, 124352, Note_on_c, 1, 45, 90
2, 124410, Note_on_c, 1, 33, 0
2, 124410, Note_on_c, 1, 45, 0
2, 124416, Note_on_c, 1, 36, 102
2, 124416, Note_on_c, 1, 48, 103
2, 124468, Note_on_c, 0, 77, 0
2, 124468, Note_on_c, 0, 84, 0
2, 124468, Note_on_c, 0, 89, 0
2, 124474, Note_on_c, 1, 36, 0
2, 124474, Note_on_c, 1, 48, 0
2, 124480, Note_on_c, 0, 79, 102
2, 124480, Note_on_c, 0, 82, 101
2, 124480, Note_on_c, 0, 88, 104
2, 124480, Note_on_c, 0, 91, 101
2, 124480, Note_on_c, 1, 31, 83
2, 124480, Note_on_c, 1, 43, 84
2, 124538, Note_on_c, 1, 31, 0
2, 124538, Note_on_c, 1, 43, 0
2, 124544, Note_on_c, 1, 36, 106
2, 124544, Note_on_c, 1, 48, 107
2, 124596, Note_on_c, 0, 79, 0
2, 124596, Note_on_c, 0, 82, 0
2, 124596, Note_on_c, 0, 88, 0
2, 124596, Note_on_c, 0, 91, 0
2, 124602, Note_on_c, 1, 36, 0
2, 124602, Note_on_c, 1, 48, 0
2, 124608, Note_on_c, 0, 81, 101
2, 124608, Note_on_c, 0, 84, 103
2, 124608, Note_on_c, 0, 89, 101
2, 124608, Note_on_c, 0, 93, 103
2, 124608, Note_on_c, 1, 29, 85
2, 124608, Note_on_c, 1, 41, 84
2, 124666, Note_on_c, 1, 29, 0
2, 124666, Note_on_c, 1, 41, 0
2, 124672, Note_on_c, 1, 41, 122
2, 124672, Note_on_c, 1, 53, 119
2, 124730, Note_on_c, 1, 41, 0
2, 124730, Note_on_c, 1, 53, 0
2, 124736, Note_on_c, 1, 39, 93
2, 124736, Note_on_c, 1, 51, 95
2, 124794, Note_on_c, 1, 39, 0
2, 124794, Note_on_c, 1, 51, 0
2, 124800, Note_on_c, 1, 41, 102
2, 124800, Note_on_c, 1, 53, 104
2, 124839, Note_on_c, 0, 81, 0
2, 124839, Note_on_c, 0, 84, 0
2, 124839, Note_on_c, 0, 89, 0
2, 124839, Note_on_c, 0, 93, 0
2, 124858, Note_on_c, 1, 41, 0
2, 124858, Note_on_c, 1, 53, 0
2, 124864, Note_on_c, 0, 77, 88
2, 124864, Note_on_c, 0, 82, 90
2, 124864, Note_on_c, 0, 89, 91
2, 124864, Note_on_c, 1, 38, 92
2, 124864, Note_on_c, 1, 50, 91
2, 124922, Note_on_c, 1, 38, 0
2, 124922, Note_on_c, 1, 50, 0
2, 124928, Note_on_c, 1, 41, 101
2, 124928, Note_on_c, 1, 53, 104
2, 124980, Note_on_c, 0, 77, 0
2, 124980, Note_on_c, 0, 82, 0
2, 124980, Note_on_c, 0, 89, 0
2, 124986, Note_on_c, 1, 41, 0
2, 124986, Note_on_c, 1, 53, 0
2, 124992, Note_on_c, 0, 75, 86
2, 124992, Note_on_c, 0, 81, 89
2, 124992, Note_on_c, 0, 87, 88
2, 124992, Note_on_c, 1, 36, 83
2, 124992, Note_on_c, 1, 48, 86
2, 125050, Note_on_c, 1, 36, 0
2, 125050, Note_on_c, 1, 48, 0
2, 125056, Note_on_c, 1, 41, 108
2, 125056, Note_on_c, 1, 53, 107
2, 125108, Note_on_c, 0, 75, 0
2, 125108, Note_on_c, 0, 81, 0
2, 125108, Note_on_c, 0, 87, 0
2, 125114, Note_on_c, 1, 41, 0
2, 125114, Note_on_c, 1, 53, 0
2, 125120, Note_on_c, 0, 74, 93
2, 125120, Note_on_c, 0, 82, 93
2, 125120, Note_on_c, 0, 86, 91
2, 125120, Note_on_c, 1, 34, 83
2, 125120, Note_on_c, 1, 46, 81
2, 125178, Note_on_c, 0, 74, 0
2, 125178, Note_on_c, 0, 82, 0
2, 125178, Note_on_c, 0, 86, 0
2, 125184, Note_on_c, 0, 75, 100
2, 125184, Note_on_c, 0, 79, 99
2, 125184, Note_on_c, 0, 87, 100
2, 125236, Note_on_c, 1, 34, 0
2, 125236, Note_on_c, 1, 46, 0
2, 125242, Note_on_c, 0, 75, 0
2, 125242, Note_on_c, 0, 79, 0
2, 125242, Note_on_c, 0, 87, 0
2, 125248, Note_on_c, 0, 74, 90
2, 125248, Note_on_c, 0, 77, 89
2, 125248, Note_on_c, 0, 86, 92
2, 125248, Note_on_c, 1, 39, 105
2, 125248, Note_on_c, 1, 51, 105
2, 125306, Note_on_c, 0, 74, 0
2, 125306, Note_on_c, 0, 77, 0
2, 125306, Note_on_c, 0, 86, 0
2, 125312, Note_on_c, 0, 72, 91
2, 125312, Note_on_c, 0, 75, 91
2, 125312, Note_on_c, 0, 84, 90
2, 125364, Note_on_c, 1, 39, 0
2, 125364, Note_on_c, 1, 51, 0
2, 125370, Note_on_c, 0, 72, 0
2, 125370, Note_on_c, 0, 75, 0
2, 125370, Note_on_c, 0, 84, 0
2, 125376, Note_on_c, 0, 70, 93
2, 125376, Note_on_c, 0, 74, 91
2, 125376, Note_on_c, 0, 82, 90
2, 125376, Note_on_c, 1, 41, 107
2, 125376, Note_on_c, 1, 53, 107
2, 125434, Note_on_c, 0, 70, 0
2, 125434, Note_on_c, 0, 74, 0
2, 125434, Note_on_c, 0, 82, 0
2, 125440, Note_on_c, 0, 72, 102
2, 125440, Note_on_c, 0, 75, 100
2, 125440, Note_on_c, 0, 84, 102
2, 125492, Note_on_c, 1, 41, 0
2, 125492, Note_on_c, 1, 53, 0
2, 125498, Note_on_c, 0, 72, 0
2, 125498, Note_on_c, 0, 75, 0
2, 125498, Note_on_c, 0, 84, 0
2, 125504, Note_on_c, 0, 70, 89
2, 125504, Note_on_c, 0, 74, 88
2, 125504, Note_on_c, 0, 82, 90
2, 125504, Note_on_c, 1, 29, 69
2, 125504, Note_on_c, 1, 41, 69
2, 125562, Note_on_c, 0, 70, 0
2, 125562, Note_on_c, 0, 74, 0
2, 125562, Note_on_c, 0, 82, 0
2, 125568, Note_on_c, 0, 69, 92
2, 125568, Note_on_c, 0, 72, 92
2, 125568, Note_on_c, 0, 81, 90
2, 125620, Note_on_c, 1, 29, 0
2, 125620, Note_on_c, 1, 41, 0
2, 125626, Note_on_c, 0, 69, 0
2, 125626, Note_on_c, 0, 72, 0
2, 125626, Note_on_c, 0, 81, 0
2, 125632, Note_on_c, 0, 67, 92
2, 125632, Note_on_c, 0, 70, 92
2, 125632, Note_on_c, 0, 79, 94
2, 125632, Note_on_c, 1, 31, 100
2, 125632, Note_on_c, 1, 43, 101
2, 125690, Note_on_c, 0, 67, 0
2, 125690, Note_on_c, 0, 70, 0
2, 125690, Note_on_c, 0, 79, 0
2, 125696, Note_on_c, 0, 72, 108
2, 125696, Note_on_c, 0, 75, 106
2, 125696, Note_on_c, 0, 84, 109
2, 125748, Note_on_c, 1, 31, 0
2, 125748, Note_on_c, 1, 43, 0
2, 125754, Note_on_c, 0, 72, 0
2, 125754, Note_on_c, 0, 75, 0
2, 125754, Note_on_c, 0, 84, 0
2, 125760, Note_on_c, 0, 70, 91
2, 125760, Note_on_c, 0, 74, 93
2, 125760, Note_on_c, 0, 82, 91
2, 125760, Note_on_c, 1, 36, 110
2, 125760, Note_on_c, 1, 48, 107
2, 125818, Note_on_c, 0, 70, 0
2, 125818, Note_on_c, 0, 74, 0
2, 125818, Note_on_c, 0, 82, 0
2, 125824, Note_on_c, 0, 69, 91
2, 125824, Note_on_c, 0, 72, 92
2, 125824, Note_on_c, 0, 81, 92
2, 125876, Note_on_c, 1, 36, 0
2, 125876, Note_on_c, 1, 48, 0
2, 125882, Note_on_c, 0, 69, 0
2, 125882, Note_on_c, 0, 72, 0
2, 125882, Note_on_c, 0, 81, 0
2, 125888, Note_on_c, 0, 67, 91
2, 125888, Note_on_c, 0, 70, 93
2, 125888, Note_on_c, 0, 79, 92
2, 125888, Note_on_c, 1, 38, 106
2, 125888, Note_on_c, 1, 50, 107
2, 125946, Note_on_c, 0, 67, 0
2, 125946, Note_on_c, 0, 70, 0
2, 125946, Note_on_c, 0, 79, 0
2, 125952, Note_on_c, 0, 69, 99
2, 125952, Note_on_c, 0, 72, 99
2, 125952, Note_on_c, 0, 81, 101
2, 126004, Note_on_c, 1, 38, 0
2, 126004, Note_on_c, 1, 50, 0
2, 126010, Note_on_c, 0, 69, 0
2, 126010, Note_on_c, 0, 72, 0
2, 126010, Note_on_c, 0, 81, 0
2, 126016, Note_on_c, 0, 67, 89
2, 126016, Note_on_c, 0, 70, 90
2, 126016, Note_on_c, 0, 79, 92
2, 126016, Note_on_c, 1, 26, 71
2, 126016, Note_on_c, 1, 38, 69
2, 126074, Note_on_c, 0, 67, 0
2, 126074, Note_on_c, 0, 70, 0
2, 126074, Note_on_c, 0, 79, 0
2, 126080, Note_on_c, 0, 66, 90
2, 126080, Note_on_c, 0, 69, 89
2, 126080, Note_on_c, 0, 78, 91
2, 126132, Note_on_c, 1, 26, 0
2, 126132, Note_on_c, 1, 38, 0
2, 126138, Note_on_c, 0, 66, 0
2, 126138, Note_on_c, 0, 69, 0
2, 126138, Note_on_c, 0, 78, 0
2, 126144, Note_on_c, 0, 67, 101
2, 126144, Note_on_c, 0, 70, 101
2, 126144, Note_on_c, 0, 79, 102
2, 126144, Note_on_c, 1, 31, 107
2, 126144, Note_on_c, 1, 43, 109
2, 126202, Note_on_c, 0, 67, 0
2, 126202, Note_on_c, 0, 70, 0
2, 126202, Note_on_c, 0, 79, 0
2, 126208, Note_on_c, 0, 65, 91
2, 126208, Note_on_c, 0, 69, 90
2, 126208, Note_on_c, 0, 77, 91
2, 126266, Note_on_c, 0, 65, 0
2, 126266, Note_on_c, 0, 69, 0
2, 126266, Note_on_c, 0, 77, 0
2, 126272, Note_on_c, 0, 64, 88
2, 126272, Note_on_c, 0, 67, 91
2, 126272, Note_on_c, 0, 76, 92
2, 126330, Note_on_c, 0, 64, 0
2, 126330, Note_on_c, 0, 67, 0
2, 126330, Note_on_c, 0, 76, 0
2, 126336, Note_on_c, 0, 62, 90
2, 126336, Note_on_c, 0, 65, 87
2, 126336, Note_on_c, 0, 74, 89
2, 126375, Note_on_c, 1, 31, 0
2, 126375, Note_on_c, 1, 43, 0
2, 126394, Note_on_c, 0, 62, 0
2, 126394, Note_on_c, 0, 65, 0
2, 126394, Note_on_c, 0, 74, 0
2, 126400, Note_on_c, 0, 61, 91
2, 126400, Note_on_c, 0, 64, 91
2, 126400, Note_on_c, 0, 73, 91
2, 126464, Note_on_c, 1, 33, 84
2, 126464, Note_on_c, 1, 45, 85
2, 126516, Note_on_c, 0, 61, 0
2, 126516, Note_on_c, 0, 64, 0
2, 126516, Note_on_c, 0, 73, 0
2, 126522, Note_on_c, 1, 33, 0
2, 126522, Note_on_c, 1, 45, 0
2, 126528, Note_on_c, 0, 64, 104
2, 126528, Note_on_c, 0, 67, 104
2, 126528, Note_on_c, 0, 76, 102
2, 126528, Note_on_c, 1, 31, 89
2, 126528, Note_on_c, 1, 43, 89
2, 126586, Note_on_c, 1, 31, 0
2, 126586, Note_on_c, 1, 43, 0
2, 126592, Note_on_c, 1, 33, 103
2, 126592, Note_on_c, 1, 45, 102
2, 126644, Note_on_c, 0, 64, 0
2, 126644, Note_on_c, 0, 67, 0
2, 126644, Note_on_c, 0, 76, 0
2, 126650, Note_on_c, 1, 33, 0
2, 126650, Note_on_c, 1, 45, 0
2, 126656, Note_on_c, 0, 65, 103
2, 126656, Note_on_c, 0, 69, 103
2, 126656, Note_on_c, 0, 77, 103
2, 126656, Note_on_c, 1, 29, 91
2, 126656, Note_on_c, 1, 41, 90
2, 126714, Note_on_c, 0, 65, 0
2, 126714, Note_on_c, 0, 69, 0
2, 126714, Note_on_c, 0, 77, 0
2, 126720, Note_on_c, 0, 67, 102
2, 126720, Note_on_c, 0, 71, 101
2, 126720, Note_on_c, 0, 79, 101
2, 126772, Note_on_c, 1, 29, 0
2, 126772, Note_on_c, 1, 41, 0
2, 126778, Note_on_c, 0, 67, 0
2, 126778, Note_on_c, 0, 71, 0
2, 126778, Note_on_c, 0, 79, 0
2, 126784, Note_on_c, 0, 69, 102
2, 126784, Note_on_c, 0, 73, 101
2, 126784, Note_on_c, 0, 81, 104
2, 126784, Note_on_c, 1, 26, 88
2, 126784, Note_on_c, 1, 38, 86
2, 126842, Note_on_c, 0, 69, 0
2, 126842, Note_on_c, 0, 73, 0
2, 126842, Note_on_c, 0, 81, 0
2, 126848, Note_on_c, 0, 71, 103
2, 126848, Note_on_c, 0, 74, 102
2, 126848, Note_on_c, 0, 83, 101
2, 126900, Note_on_c, 1, 26, 0
2, 126900, Note_on_c, 1, 38, 0
2, 126906, Note_on_c, 0, 71, 0
2, 126906, Note_on_c, 0, 74, 0
2, 126906, Note_on_c, 0, 83, 0
2, 126912, Note_on_c, 0, 73, 103
2, 126912, Note_on_c, 0, 76, 103
2, 126912, Note_on_c, 0, 85, 107
2, 126912, Note_on_c, 1, 33, 111
2, 126912, Note_on_c, 1, 45, 112
2, 126970, Note_on_c, 0, 73, 0
2, 126970, Note_on_c, 0, 76, 0
2, 126970, Note_on_c, 0, 85, 0
2, 126976, Note_on_c, 0, 74, 100
2, 126976, Note_on_c, 0, 77, 102
2, 126976, Note_on_c, 0, 86, 102
2, 127034, Note_on_c, 0, 74, 0
2, 127034, Note_on_c, 0, 77, 0
2, 127034, Note_on_c, 0, 86, 0
2, 127040, Note_on_c, 0, 76, 102
2, 127040, Note_on_c, 0, 79, 100
2, 127040, Note_on_c, 0, 88, 100
2, 127098, Note_on_c, 0, 76, 0
2, 127098, Note_on_c, 0, 79, 0
2, 127098, Note_on_c, 0, 88, 0
2, 127104, Note_on_c, 0, 77, 101
2, 127104, Note_on_c, 0, 81, 101
2, 127104, Note_on_c, 0, 89, 103
2, 127143, Note_on_c, 1, 33, 0
2, 127143, Note_on_c, 1, 45, 0
2, 127162, Note_on_c, 0, 77, 0
2, 127162, Note_on_c, 0, 81, 0
2, 127162, Note_on_c, 0, 89, 0
2, 127168, Note_on_c, 0, 79, 107
2, 127168, Note_on_c, 0, 82, 104
2, 127168, Note_on_c, 0, 91, 107
2, 127168, Note_on_c, 1, 26, 82
2, 127168, Note_on_c, 1, 38, 85
2, 127232, Note_on_c, 1, 58, 86
2, 127232, Note_on_c, 1, 70, 86
2, 127284, Note_on_c, 0, 79, 0
2, 127284, Note_on_c, 0, 82, 0
2, 127284, Note_on_c, 0, 91, 0
2, 127290, Note_on_c, 1, 58, 0
2, 127290, Note_on_c, 1, 70, 0
2, 127296, Note_on_c, 0, 77, 89
2, 127296, Note_on_c, 0, 81, 90
2, 127296, Note_on_c, 0, 89, 88
2, 127296, Note_on_c, 1, 57, 89
2, 127296, Note_on_c, 1, 69, 90
2, 127354, Note_on_c, 0, 77, 0
2, 127354, Note_on_c, 0, 81, 0
2, 127354, Note_on_c, 0, 89, 0
2, 127354, Note_on_c, 1, 57, 0
2, 127354, Note_on_c, 1, 69, 0
2, 127360, Note_on_c, 0, 76, 91
2, 127360, Note_on_c, 0, 79, 90
2, 127360, Note_on_c, 0, 88, 92
2, 127360, Note_on_c, 1, 55, 89
2, 127360, Note_on_c, 1, 67, 91
2, 127418, Note_on_c, 0, 76, 0
2, 127418, Note_on_c, 0, 79, 0
2, 127418, Note_on_c, 0, 88, 0
2, 127418, Note_on_c, 1, 55, 0
2, 127418, Note_on_c, 1, 67, 0
2, 127424, Note_on_c, 0, 77, 101
2, 127424, Note_on_c, 0, 81, 100
2, 127424, Note_on_c, 0, 89, 100
2, 127424, Note_on_c, 1, 53, 93
2, 127424, Note_on_c, 1, 65, 92
2, 127482, Note_on_c, 1, 53, 0
2, 127482, Note_on_c, 1, 65, 0
2, 127488, Note_on_c, 1, 57, 106
2, 127488, Note_on_c, 1, 69, 106
2, 127540, Note_on_c, 0, 77, 0
2, 127540, Note_on_c, 0, 81, 0
2, 127540, Note_on_c, 0, 89, 0
2, 127546, Note_on_c, 1, 57, 0
2, 127546, Note_on_c, 1, 69, 0
2, 127552, Note_on_c, 0, 73, 83
2, 127552, Note_on_c, 0, 76, 85
2, 127552, Note_on_c, 0, 85, 85
2, 127552, Note_on_c, 1, 52, 83
2, 127552, Note_on_c, 1, 64, 84
2, 127610, Note_on_c, 1, 52, 0
2, 127610, Note_on_c, 1, 64, 0
2, 127616, Note_on_c, 1, 57, 107
2, 127616, Note_on_c, 1, 69, 108
2, 127668, Note_on_c, 0, 73, 0
2, 127668, Note_on_c, 0, 76, 0
2, 127668, Note_on_c, 0, 85, 0
2, 127674, Note_on_c, 1, 57, 0
2, 127674, Note_on_c, 1, 69, 0
2, 127680, Note_on_c, 0, 74, 103
2, 127680, Note_on_c, 0, 77, 104
2, 127680, Note_on_c, 0, 86, 103
2, 127680, Note_on_c, 1, 50, 83
2, 127680, Note_on_c, 1, 62, 82
2, 127738, Note_on_c, 1, 50, 0
2, 127738, Note_on_c, 1, 62, 0
2, 127744, Note_on_c, 1, 57, 110
2, 127744, Note_on_c, 1, 69, 110
2, 127796, Note_on_c, 0, 74, 0
2, 127796, Note_on_c, 0, 77, 0
2, 127796, Note_on_c, 0, 86, 0
2, 127802, Note_on_c, 1, 57, 0
2, 127802, Note_on_c, 1, 69, 0
2, 127808, Note_on_c, 0, 76, 102
2, 127808, Note_on_c, 0, 81, 103
2, 127808, Note_on_c, 0, 88, 104
2, 127808, Note_on_c, 1, 49, 80
2, 127808, Note_on_c, 1, 61, 77
2, 127866, Note_on_c, 1, 49, 0
2, 127866, Note_on_c, 1, 61, 0
2, 127872, Note_on_c, 1, 57, 112
2, 127872, Note_on_c, 1, 69, 112
2, 127924, Note_on_c, 0, 76, 0
2, 127924, Note_on_c, 0, 81, 0
2, 127924, Note_on_c, 0, 88, 0
2, 127930, Note_on_c, 1, 57, 0
2, 127930, Note_on_c, 1, 69, 0
2, 127936, Note_on_c, 0, 77, 105
2, 127936, Note_on_c, 0, 81, 105
2, 127936, Note_on_c, 0, 89, 105
2, 127936, Note_on_c, 1, 50, 86
2, 127936, Note_on_c, 1, 62, 84
2, 127994, Note_on_c, 1, 50, 0
2, 127994, Note_on_c, 1, 62, 0
2, 128000, Note_on_c, 1, 57, 112
2, 128000, Note_on_c, 1, 69, 112
2, 128052, Note_on_c, 0, 77, 0
2, 128052, Note_on_c, 0, 81, 0
2, 128052, Note_on_c, 0, 89, 0
2, 128058, Note_on_c, 1, 57, 0
2, 128058, Note_on_c, 1, 69, 0
2, 128064, Note_on_c, 0, 79, 101
2, 128064, Note_on_c, 0, 81, 101
2, 128064, Note_on_c, 0, 91, 101
2, 128064, Note_on_c, 1, 52, 86
2, 128064, Note_on_c, 1, 64, 84
2, 128122, Note_on_c, 1, 52, 0
2, 128122, Note_on_c, 1, 64, 0
2, 128128, Note_on_c, 1, 57, 108
2, 128128, Note_on_c, 1, 69, 107
2, 128180, Note_on_c, 0, 79, 0
2, 128180, Note_on_c, 0, 81, 0
2, 128180, Note_on_c, 0, 91, 0
2, 128186, Note_on_c, 1, 57, 0
2, 128186, Note_on_c, 1, 69, 0
2, 128192, Note_on_c, 0, 81, 106
2, 128192, Note_on_c, 0, 93, 105
2, 128192, Note_on_c, 1, 53, 90
2, 128192, Note_on_c, 1, 65, 88
2, 128250, Note_on_c, 1, 53, 0
2, 128250, Note_on_c, 1, 65, 0
2, 128256, Note_on_c, 1, 57, 104
2, 128256, Note_on_c, 1, 69, 104
2, 128308, Note_on_c, 0, 81, 0
2, 128308, Note_on_c, 0, 93, 0
2, 128314, Note_on_c, 1, 57, 0
2, 128314, Note_on_c, 1, 69, 0
2, 128320, Note_on_c, 0, 73, 77
2, 128320, Note_on_c, 0, 81, 77
2, 128320, Note_on_c, 0, 85, 76
2, 128320, Note_on_c, 1, 45, 72
2, 128320, Note_on_c, 1, 57, 71
2, 128378, Note_on_c, 1, 45, 0
2, 128378, Note_on_c, 1, 57, 0
2, 128384, Note_on_c, 1, 57, 116
2, 128384, Note_on_c, 1, 69, 117
2, 128436, Note_on_c, 0, 73, 0
2, 128436, Note_on_c, 0, 81, 0
2, 128436, Note_on_c, 0, 85, 0
2, 128442, Note_on_c, 1, 57, 0
2, 128442, Note_on_c, 1, 69, 0
2, 128448, Note_on_c, 0, 74, 100
2, 128448, Note_on_c, 0, 81, 98
2, 128448, Note_on_c, 0, 86, 98
2, 128448, Note_on_c, 1, 47, 79
2, 128448, Note_on_c, 1, 59, 80
2, 128506, Note_on_c, 1, 47, 0
2, 128506, Note_on_c, 1, 59, 0
2, 128512, Note_on_c, 1, 57, 115
2, 128512, Note_on_c, 1, 69, 114
2, 128564, Note_on_c, 0, 74, 0
2, 128564, Note_on_c, 0, 81, 0
2, 128564, Note_on_c, 0, 86, 0
2, 128570, Note_on_c, 1, 57, 0
2, 128570, Note_on_c, 1, 69, 0
2, 128576, Note_on_c, 0, 76, 100
2, 128576, Note_on_c, 0, 81, 100
2, 128576, Note_on_c, 0, 88, 101
2, 128576, Note_on_c, 1, 49, 79
2, 128576, Note_on_c, 1, 61, 80
2, 128634, Note_on_c, 1, 49, 0
2, 128634, Note_on_c, 1, 61, 0
2, 128640, Note_on_c, 1, 57, 114
2, 128640, Note_on_c, 1, 69, 111
2, 128654, Note_on_c, 1, 26, 0
2, 128654, Note_on_c, 1, 38, 0
2, 128692, Note_on_c, 0, 76, 0
2, 128692, Note_on_c, 0, 81, 0
2, 128692, Note_on_c, 0, 88, 0
2, 128698, Note_on_c, 1, 57, 0
2, 128698, Note_on_c, 1, 69, 0
2, 128704, Note_on_c, 0, 77, 105
2, 128704, Note_on_c, 0, 81, 105
2, 128704, Note_on_c, 0, 89, 104
2, 128704, Note_on_c, 1, 50, 83
2, 128704, Note_on_c, 1, 62, 86
2, 128762, Note_on_c, 1, 50, 0
2, 128762, Note_on_c, 1, 62, 0
2, 128768, Note_on_c, 1, 57, 112
2, 128768, Note_on_c, 1, 69, 113
2, 128820, Note_on_c, 0, 77, 0
2, 128820, Note_on_c, 0, 81, 0
2, 128820, Note_on_c, 0, 89, 0
2, 128826, Note_on_c, 1, 57, 0
2, 128826, Note_on_c, 1, 69, 0
2, 128832, Note_on_c, 0, 76, 92
2, 128832, Note_on_c, 0, 81, 93
2, 128832, Note_on_c, 0, 88, 94
2, 128832, Note_on_c, 1, 49, 80
2, 128832, Note_on_c, 1, 61, 77
2, 128890, Note_on_c, 1, 49, 0
2, 128890, Note_on_c, 1, 61, 0
2, 128896, Note_on_c, 1, 57, 113
2, 128896, Note_on_c, 1, 69, 109
2, 128948, Note_on_c, 0, 76, 0
2, 128948, Note_on_c, 0, 81, 0
2, 128948, Note_on_c, 0, 88, 0
2, 128954, Note_on_c, 1, 57, 0
2, 128954, Note_on_c, 1, 69, 0
2, 128960, Note_on_c, 0, 77, 104
2, 128960, Note_on_c, 0, 81, 101
2, 128960, Note_on_c, 0, 89, 103
2, 128960, Note_on_c, 1, 50, 84
2, 128960, Note_on_c, 1, 62, 83
2, 129018, Note_on_c, 1, 50, 0
2, 129018, Note_on_c, 1, 62, 0
2, 129024, Note_on_c, 1, 57, 110
2, 129024, Note_on_c, 1, 69, 110
2, 129076, Note_on_c, 0, 77, 0
2, 129076, Note_on_c, 0, 81, 0
2, 129076, Note_on_c, 0, 89, 0
2, 129082, Note_on_c, 1, 57, 0
2, 129082, Note_on_c, 1, 69, 0
2, 129088, Note_on_c, 0, 74, 89
2, 129088, Note_on_c, 0, 77, 89
2, 129088, Note_on_c, 0, 81, 87
2, 129088, Note_on_c, 0, 86, 89
2, 129088, Note_on_c, 1, 50, 71
2, 129088, Note_on_c, 1, 38, 86
2, 129088, Note_on_c, 1, 47, 87
2, 129146, Note_on_c, 1, 50, 0
2, 129152, Note_on_c, 1, 57, 116
2, 129152, Note_on_c, 1, 69, 117
2, 129204, Note_on_c, 0, 74, 0
2, 129204, Note_on_c, 0, 77, 0
2, 129204, Note_on_c, 0, 81, 0
2, 129204, Note_on_c, 0, 86, 0
2, 129204, Note_on_c, 1, 38, 0
2, 129204, Note_on_c, 1, 47, 0
2, 129210, Note_on_c, 1, 57, 0
2, 129210, Note_on_c, 1, 69, 0
2, 129216, Note_on_c, 0, 76, 104
2, 129216, Note_on_c, 0, 81, 102
2, 129216, Note_on_c, 0, 85, 103
2, 129216, Note_on_c, 0, 88, 106
2, 129216, Note_on_c, 1, 33, 77
2, 129216, Note_on_c, 1, 37, 75
2, 129216, Note_on_c, 1, 40, 75
2, 129216, Note_on_c, 1, 45, 78
2, 129332, Note_on_c, 0, 76, 0
2, 129332, Note_on_c, 0, 81, 0
2, 129332, Note_on_c, 0, 85, 0
2, 129332, Note_on_c, 0, 88, 0
2, 129332, Note_on_c, 1, 33, 0
2, 129332, Note_on_c, 1, 37, 0
2, 129332, Note_on_c, 1, 40, 0
2, 129332, Note_on_c, 1, 45, 0
2, 129344, Note_on_c, 0, 74, 94
2, 129344, Note_on_c, 0, 77, 96
2, 129344, Note_on_c, 0, 81, 94
2, 129344, Note_on_c, 0, 86, 94
2, 129344, Note_on_c, 1, 29, 86
2, 129344, Note_on_c, 1, 33, 86
2, 129344, Note_on_c, 1, 38, 83
2, 129344, Note_on_c, 1, 41, 84
2, 129460, Note_on_c, 0, 74, 0
2, 129460, Note_on_c, 0, 77, 0
2, 129460, Note_on_c, 0, 81, 0
2, 129460, Note_on_c, 0, 86, 0
2, 129460, Note_on_c, 1, 29, 0
2, 129460, Note_on_c, 1, 33, 0
2, 129460, Note_on_c, 1, 38, 0
2, 129460, Note_on_c, 1, 41, 0
2, 129472, Note_on_c, 0, 74, 106
2, 129472, Note_on_c, 0, 79, 106
2, 129472, Note_on_c, 0, 82, 108
2, 129472, Note_on_c, 0, 86, 106
2, 129472, Note_on_c, 1, 31, 111
2, 129472, Note_on_c, 1, 34, 110
2, 129472, Note_on_c, 1, 38, 111
2, 129472, Note_on_c, 1, 43, 109
2, 129588, Note_on_c, 0, 74, 0
2, 129588, Note_on_c, 0, 79, 0
2, 129588, Note_on_c, 0, 82, 0
2, 129588, Note_on_c, 0, 86, 0
2, 129588, Note_on_c, 1, 31, 0
2, 129588, Note_on_c, 1, 34, 0
2, 129588, Note_on_c, 1, 38, 0
2, 129588, Note_on_c, 1, 43, 0
2, 129600, Note_on_c, 0, 73, 102
2, 129600, Note_on_c, 0, 76, 100
2, 129600, Note_on_c, 0, 81, 101
2, 129600, Note_on_c, 0, 85, 100
2, 129600, Note_on_c, 1, 33, 112
2, 129600, Note_on_c, 1, 37, 114
2, 129600, Note_on_c, 1, 40, 113
2, 129600, Note_on_c, 1, 45, 112
2, 129716, Note_on_c, 0, 73, 0
2, 129716, Note_on_c, 0, 76, 0
2, 129716, Note_on_c, 0, 81, 0
2, 129716, Note_on_c, 0, 85, 0
2, 129716, Note_on_c, 1, 33, 0
2, 129716, Note_on_c, 1, 37, 0
2, 129716, Note_on_c, 1, 40, 0
2, 129716, Note_on_c, 1, 45, 0
2, 129728, Note_on_c, 0, 74, 116
2, 129728, Note_on_c, 0, 77, 117
2, 129728, Note_on_c, 0, 81, 117
2, 129728, Note_on_c, 0, 86, 117
2, 129728, Note_on_c, 1, 29, 103
2, 129728, Note_on_c, 1, 33, 103
2, 129728, Note_on_c, 1, 38, 103
2, 129728, Note_on_c, 1, 41, 100
2, 129844, Note_on_c, 0, 74, 0
2, 129844, Note_on_c, 0, 77, 0
2, 129844, Note_on_c, 0, 81, 0
2, 129844, Note_on_c, 0, 86, 0
2, 129844, Note_on_c, 1, 29, 0
2, 129844, Note_on_c, 1, 33, 0
2, 129844, Note_on_c, 1, 38, 0
2, 129844, Note_on_c, 1, 41, 0
2, 129856, Note_on_c, 0, 77, 122
2, 129856, Note_on_c, 0, 81, 122
2, 129856, Note_on_c, 0, 86, 125
2, 129856, Note_on_c, 0, 89, 124
2, 129856, Note_on_c, 1, 26, 103
2, 129856, Note_on_c, 1, 29, 104
2, 129856, Note_on_c, 1, 33, 103
2, 129856, Note_on_c, 1, 38, 102
2, 129972, Note_on_c, 0, 77, 0
2, 129972, Note_on_c, 0, 81, 0
2, 129972, Note_on_c, 0, 86, 0
2, 129972, Note_on_c, 0, 89, 0
2, 129972, Note_on_c, 1, 26, 0
2, 129972, Note_on_c, 1, 29, 0
2, 129972, Note_on_c, 1, 33, 0
2, 129972, Note_on_c, 1, 38, 0
2, 129984, Note_on_c, 0, 76, 114
2, 129984, Note_on_c, 0, 88, 115
2, 129984, Note_on_c, 0, 74, 88
2, 129984, Note_on_c, 0, 82, 89
2, 129984, Note_on_c, 0, 86, 90
2, 129984, Note_on_c, 1, 31, 127
2, 129984, Note_on_c, 1, 34, 127
2, 129984, Note_on_c, 1, 38, 127
2, 129984, Note_on_c, 1, 40, 127
2, 129984, Note_on_c, 1, 43, 127
2, 130100, Note_on_c, 0, 74, 0
2, 130100, Note_on_c, 0, 82, 0
2, 130100, Note_on_c, 0, 86, 0
2, 130100, Note_on_c, 1, 31, 0
2, 130100, Note_on_c, 1, 34, 0
2, 130100, Note_on_c, 1, 38, 0
2, 130100, Note_on_c, 1, 40, 0
2, 130100, Note_on_c, 1, 43, 0
2, 130112, Note_on_c, 0, 72, 94
2, 130112, Note_on_c, 0, 81, 92
2, 130112, Note_on_c, 0, 84, 94
2, 130112, Note_on_c, 1, 33, 125
2, 130112, Note_on_c, 1, 36, 125
2, 130112, Note_on_c, 1, 40, 127
2, 130112, Note_on_c, 1, 45, 127
2, 130215, Note_on_c, 0, 76, 0
2, 130215, Note_on_c, 0, 88, 0
2, 130228, Note_on_c, 0, 72, 0
2, 130228, Note_on_c, 0, 81, 0
2, 130228, Note_on_c, 0, 84, 0
2, 130228, Note_on_c, 1, 33, 0
2, 130228, Note_on_c, 1, 36, 0
2, 130228, Note_on_c, 1, 40, 0
2, 130228, Note_on_c, 1, 45, 0
2, 130240, Note_on_c, 0, 74, 119
2, 130240, Note_on_c, 0, 77, 122
2, 130240, Note_on_c, 0, 82, 119
2, 130240, Note_on_c, 0, 86, 122
2, 130240, Note_on_c, 1, 34, 127
2, 130240, Note_on_c, 1, 38, 127
2, 130240, Note_on_c, 1, 41, 127
2, 130240, Note_on_c, 1, 46, 127
2, 130670, Tempo, 3750000
2, 130670, Tempo, 3750000
2, 130702, Note_on_c, 0, 74, 0
2, 130702, Note_on_c, 0, 77, 0
2, 130702, Note_on_c, 0, 82, 0
2, 130702, Note_on_c, 0, 86, 0
2, 130702, Tempo, 2400000
2, 130702, Note_on_c, 1, 34, 0
2, 130702, Note_on_c, 1, 38, 0
2, 130702, Note_on_c, 1, 41, 0
2, 130702, Note_on_c, 1, 46, 0
2, 130702, Tempo, 2400000
2, 130784, Note_on_c, 0, 89, 86
2, 130784, Note_on_c, 1, 65, 87
2, 130813, Note_on_c, 0, 89, 0
2, 130813, Note_on_c, 1, 65, 0
2, 130816, Note_on_c, 0, 91, 100
2, 130816, Note_on_c, 1, 67, 100
2, 130845, Note_on_c, 0, 91, 0
2, 130845, Note_on_c, 1, 67, 0
2, 130848, Note_on_c, 0, 93, 102
2, 130848, Note_on_c, 1, 69, 103
2, 130877, Note_on_c, 0, 93, 0
2, 130877, Note_on_c, 1, 69, 0
2, 130880, Note_on_c, 0, 94, 127
2, 130880, Note_on_c, 1, 70, 127
2, 130909, Note_on_c, 0, 94, 0
2, 130909, Note_on_c, 1, 70, 0
2, 130912, Note_on_c, 0, 81, 71
2, 130912, Note_on_c, 1, 57, 69
2, 130941, Note_on_c, 0, 81, 0
2, 130941, Note_on_c, 1, 57, 0
2, 130944, Note_on_c, 0, 82, 95
2, 130944, Note_on_c, 1, 58, 98
2, 130973, Note_on_c, 0, 82, 0
2, 130973, Note_on_c, 1, 58, 0
2, 130976, Note_on_c, 0, 84, 104
2, 130976, Note_on_c, 1, 60, 101
2, 131005, Note_on_c, 0, 84, 0
2, 131005, Note_on_c, 1, 60, 0
2, 131008, Note_on_c, 0, 86, 107
2, 131008, Note_on_c, 1, 62, 106
2, 131037, Note_on_c, 0, 86, 0
2, 131037, Note_on_c, 1, 62, 0
2, 131040, Note_on_c, 0, 84, 90
2, 131040, Note_on_c, 1, 60, 91
2, 131069, Note_on_c, 0, 84, 0
2, 131069, Note_on_c, 1, 60, 0
2, 131072, Note_on_c, 0, 86, 102
2, 131072, Note_on_c, 1, 62, 100
2, 131101, Note_on_c, 0, 86, 0
2, 131101, Note_on_c, 1, 62, 0
2, 131104, Note_on_c, 0, 87, 103
2, 131104, Note_on_c, 1, 63, 102
2, 131133, Note_on_c, 0, 87, 0
2, 131133, Note_on_c, 1, 63, 0
2, 131136, Note_on_c, 0, 89, 102
2, 131136, Note_on_c, 1, 65, 101
2, 131165, Note_on_c, 0, 89, 0
2, 131165, Note_on_c, 1, 65, 0
2, 131168, Note_on_c, 0, 77, 68
2, 131168, Note_on_c, 1, 53, 72
2, 131197, Note_on_c, 0, 77, 0
2, 131197, Note_on_c, 1, 53, 0
2, 131200, Note_on_c, 0, 79, 97
2, 131200, Note_on_c, 1, 55, 97
2, 131229, Note_on_c, 0, 79, 0
2, 131229, Note_on_c, 1, 55, 0
2, 131232, Note_on_c, 0, 81, 102
2, 131232, Note_on_c, 1, 57, 103
2, 131261, Note_on_c, 0, 81, 0
2, 131261, Note_on_c, 1, 57, 0
2, 131264, Note_on_c, 0, 82, 126
2, 131264, Note_on_c, 1, 70, 125
2, 131293, Note_on_c, 0, 82, 0
2, 131293, Note_on_c, 1, 70, 0
2, 131296, Note_on_c, 0, 81, 94
2, 131296, Note_on_c, 1, 69, 96
2, 131325, Note_on_c, 0, 81, 0
2, 131325, Note_on_c, 1, 69, 0
2, 131328, Note_on_c, 0, 82, 101
2, 131328, Note_on_c, 1, 70, 100
2, 131357, Note_on_c, 0, 82, 0
2, 131357, Note_on_c, 1, 70, 0
2, 131360, Note_on_c, 0, 84, 102
2, 131360, Note_on_c, 1, 72, 100
2, 131389, Note_on_c, 0, 84, 0
2, 131389, Note_on_c, 1, 72, 0
2, 131392, Note_on_c, 0, 86, 100
2, 131392, Note_on_c, 1, 74, 102
2, 131421, Note_on_c, 0, 86, 0
2, 131421, Note_on_c, 1, 74, 0
2, 131424, Note_on_c, 0, 81, 86
2, 131424, Note_on_c, 1, 69, 83
2, 131453, Note_on_c, 0, 81, 0
2, 131453, Note_on_c, 1, 69, 0
2, 131456, Note_on_c, 0, 79, 88
2, 131456, Note_on_c, 1, 67, 86
2, 131485, Note_on_c, 0, 79, 0
2, 131485, Note_on_c, 1, 67, 0
2, 131488, Note_on_c, 0, 77, 87
2, 131488, Note_on_c, 1, 65, 88
2, 131517, Note_on_c, 0, 77, 0
2, 131517, Note_on_c, 1, 65, 0
2, 131520, Note_on_c, 0, 75, 93
2, 131520, Note_on_c, 1, 63, 91
2, 131549, Note_on_c, 0, 75, 0
2, 131549, Note_on_c, 1, 63, 0
2, 131552, Note_on_c, 0, 79, 106
2, 131552, Note_on_c, 1, 67, 104
2, 131581, Note_on_c, 0, 79, 0
2, 131581, Note_on_c, 1, 67, 0
2, 131584, Note_on_c, 0, 81, 103
2, 131584, Note_on_c, 1, 69, 104
2, 131613, Note_on_c, 0, 81, 0
2, 131613, Note_on_c, 1, 69, 0
2, 131616, Note_on_c, 0, 82, 101
2, 131616, Note_on_c, 1, 70, 101
2, 131645, Note_on_c, 0, 82, 0
2, 131645, Note_on_c, 1, 70, 0
2, 131648, Note_on_c, 0, 84, 102
2, 131648, Note_on_c, 1, 72, 104
2, 131677, Note_on_c, 0, 84, 0
2, 131677, Note_on_c, 1, 72, 0
2, 131680, Note_on_c, 0, 79, 86
2, 131680, Note_on_c, 1, 67, 85
2, 131709, Note_on_c, 0, 79, 0
2, 131709, Note_on_c, 1, 67, 0
2, 131712, Note_on_c, 0, 77, 88
2, 131712, Note_on_c, 1, 65, 85
2, 131741, Note_on_c, 0, 77, 0
2, 131741, Note_on_c, 1, 65, 0
2, 131744, Note_on_c, 0, 75, 87
2, 131744, Note_on_c, 1, 63, 90
2, 131773, Note_on_c, 0, 75, 0
2, 131773, Note_on_c, 1, 63, 0
2, 131776, Note_on_c, 0, 74, 93
2, 131776, Note_on_c, 1, 62, 95
2, 131805, Note_on_c, 0, 74, 0
2, 131805, Note_on_c, 1, 62, 0
2, 131808, Note_on_c, 0, 77, 103
2, 131808, Note_on_c, 1, 53, 76
2, 131837, Note_on_c, 0, 77, 0
2, 131837, Note_on_c, 1, 53, 0
2, 131840, Note_on_c, 0, 79, 101
2, 131840, Note_on_c, 1, 55, 97
2, 131869, Note_on_c, 0, 79, 0
2, 131869, Note_on_c, 1, 55, 0
2, 131872, Note_on_c, 0, 81, 100
2, 131872, Note_on_c, 1, 57, 103
2, 131901, Note_on_c, 0, 81, 0
2, 131901, Note_on_c, 1, 57, 0
2, 131904, Note_on_c, 0, 82, 126
2, 131904, Note_on_c, 1, 58, 127
2, 131933, Note_on_c, 0, 82, 0
2, 131933, Note_on_c, 1, 58, 0
2, 131936, Note_on_c, 0, 69, 71
2, 131936, Note_on_c, 1, 57, 94
2, 131965, Note_on_c, 0, 69, 0
2, 131965, Note_on_c, 1, 57, 0
2, 131968, Note_on_c, 0, 70, 96
2, 131968, Note_on_c, 1, 58, 99
2, 131997, Note_on_c, 0, 70, 0
2, 131997, Note_on_c, 1, 58, 0
2, 132000, Note_on_c, 0, 72, 103
2, 132000, Note_on_c, 1, 60, 100
2, 132029, Note_on_c, 0, 72, 0
2, 132029, Note_on_c, 1, 60, 0
2, 132032, Note_on_c, 0, 74, 104
2, 132032, Note_on_c, 1, 62, 104
2, 132061, Note_on_c, 0, 74, 0
2, 132061, Note_on_c, 1, 62, 0
2, 132064, Note_on_c, 0, 72, 90
2, 132064, Note_on_c, 1, 48, 69
2, 132093, Note_on_c, 0, 72, 0
2, 132093, Note_on_c, 1, 48, 0
2, 132096, Note_on_c, 0, 74, 103
2, 132096, Note_on_c, 1, 50, 95
2, 132125, Note_on_c, 0, 74, 0
2, 132125, Note_on_c, 1, 50, 0
2, 132128, Note_on_c, 0, 75, 101
2, 132128, Note_on_c, 1, 51, 98
2, 132157, Note_on_c, 0, 75, 0
2, 132157, Note_on_c, 1, 51, 0
2, 132160, Note_on_c, 0, 77, 126
2, 132160, Note_on_c, 1, 53, 126
2, 132189, Note_on_c, 0, 77, 0
2, 132189, Note_on_c, 1, 53, 0
2, 132192, Note_on_c, 0, 65, 72
2, 132192, Note_on_c, 1, 53, 98
2, 132221, Note_on_c, 0, 65, 0
2, 132221, Note_on_c, 1, 53, 0
2, 132224, Note_on_c, 0, 67, 96
2, 132224, Note_on_c, 1, 55, 101
2, 132253, Note_on_c, 0, 67, 0
2, 132253, Note_on_c, 1, 55, 0
2, 132256, Note_on_c, 0, 69, 102
2, 132256, Note_on_c, 1, 57, 101
2, 132285, Note_on_c, 0, 69, 0
2, 132285, Note_on_c, 1, 57, 0
2, 132288, Note_on_c, 1, 58, 104
2, 132317, Note_on_c, 1, 58, 0
2, 132320, Note_on_c, 0, 81, 86
2, 132320, Note_on_c, 1, 57, 94
2, 132349, Note_on_c, 0, 81, 0
2, 132349, Note_on_c, 1, 57, 0
2, 132352, Note_on_c, 0, 82, 97
2, 132352, Note_on_c, 1, 58, 99
2, 132381, Note_on_c, 0, 82, 0
2, 132381, Note_on_c, 1, 58, 0
2, 132384, Note_on_c, 0, 84, 100
2, 132384, Note_on_c, 1, 60, 101
2, 132413, Note_on_c, 0, 84, 0
2, 132413, Note_on_c, 1, 60, 0
2, 132416, Note_on_c, 0, 86, 101
2, 132416, Note_on_c, 1, 62, 101
2, 132445, Note_on_c, 0, 86, 0
2, 132445, Note_on_c, 1, 62, 0
2, 132448, Note_on_c, 0, 69, 68
2, 132448, Note_on_c, 1, 60, 88
2, 132477, Note_on_c, 0, 69, 0
2, 132477, Note_on_c, 1, 60, 0
2, 132480, Note_on_c, 0, 67, 85
2, 132480, Note_on_c, 1, 58, 90
2, 132509, Note_on_c, 0, 67, 0
2, 132509, Note_on_c, 1, 58, 0
2, 132512, Note_on_c, 0, 65, 86
2, 132512, Note_on_c, 1, 57, 88
2, 132541, Note_on_c, 0, 65, 0
2, 132541, Note_on_c, 1, 57, 0
2, 132544, Note_on_c, 0, 67, 105
2, 132544, Note_on_c, 1, 55, 90
2, 132573, Note_on_c, 0, 67, 0
2, 132573, Note_on_c, 1, 55, 0
2, 132576, Note_on_c, 0, 82, 124
2, 132576, Note_on_c, 1, 58, 103
2, 132605, Note_on_c, 0, 82, 0
2, 132605, Note_on_c, 1, 58, 0
2, 132608, Note_on_c, 0, 84, 105
2, 132608, Note_on_c, 1, 60, 100
2, 132637, Note_on_c, 0, 84, 0
2, 132637, Note_on_c, 1, 60, 0
2, 132640, Note_on_c, 0, 86, 105
2, 132640, Note_on_c, 1, 62, 102
2, 132669, Note_on_c, 0, 86, 0
2, 132669, Note_on_c, 1, 62, 0
2, 132672, Note_on_c, 0, 87, 102
2, 132672, Note_on_c, 1, 63, 100
2, 132701, Note_on_c, 0, 87, 0
2, 132701, Note_on_c, 1, 63, 0
2, 132704, Note_on_c, 0, 74, 72
2, 132704, Note_on_c, 1, 62, 94
2, 132733, Note_on_c, 0, 74, 0
2, 132733, Note_on_c, 1, 62, 0
2, 132736, Note_on_c, 0, 72, 84
2, 132736, Note_on_c, 1, 60, 90
2, 132765, Note_on_c, 0, 72, 0
2, 132765, Note_on_c, 1, 60, 0
2, 132768, Note_on_c, 0, 70, 90
2, 132768, Note_on_c, 1, 58, 91
2, 132797, Note_on_c, 0, 70, 0
2, 132797, Note_on_c, 1, 58, 0
2, 132800, Note_on_c, 0, 65, 87
2, 132800, Note_on_c, 1, 57, 93
2, 132829, Note_on_c, 0, 65, 0
2, 132829, Note_on_c, 1, 57, 0
2, 132832, Note_on_c, 0, 84, 119
2, 132832, Note_on_c, 1, 60, 103
2, 132861, Note_on_c, 0, 84, 0
2, 132861, Note_on_c, 1, 60, 0
2, 132864, Note_on_c, 0, 86, 107
2, 132864, Note_on_c, 1, 62, 102
2, 132893, Note_on_c, 0, 86, 0
2, 132893, Note_on_c, 1, 62, 0
2, 132896, Note_on_c, 0, 88, 103
2, 132896, Note_on_c, 1, 64, 103
2, 132925, Note_on_c, 0, 88, 0
2, 132925, Note_on_c, 1, 64, 0
2, 132928, Note_on_c, 0, 78, 127
2, 132928, Note_on_c, 0, 90, 127
2, 132928, Note_on_c, 1, 66, 126
2, 132957, Note_on_c, 0, 78, 0
2, 132957, Note_on_c, 0, 90, 0
2, 132957, Note_on_c, 1, 66, 0
2, 132960, Note_on_c, 0, 75, 72
2, 132960, Note_on_c, 1, 63, 86
2, 132989, Note_on_c, 0, 75, 0
2, 132989, Note_on_c, 1, 63, 0
2, 132992, Note_on_c, 0, 74, 87
2, 132992, Note_on_c, 1, 62, 88
2, 133021, Note_on_c, 0, 74, 0
2, 133021, Note_on_c, 1, 62, 0
2, 133024, Note_on_c, 0, 72, 89
2, 133024, Note_on_c, 1, 60, 90
2, 133053, Note_on_c, 0, 72, 0
2, 133053, Note_on_c, 1, 60, 0
2, 133056, Note_on_c, 0, 70, 92
2, 133056, Note_on_c, 1, 58, 90
2, 133085, Note_on_c, 0, 70, 0
2, 133085, Note_on_c, 1, 58, 0
2, 133088, Note_on_c, 0, 78, 115
2, 133088, Note_on_c, 1, 66, 114
2, 133117, Note_on_c, 0, 78, 0
2, 133117, Note_on_c, 1, 66, 0
2, 133120, Note_on_c, 0, 79, 104
2, 133120, Note_on_c, 1, 67, 105
2, 133149, Note_on_c, 0, 79, 0
2, 133149, Note_on_c, 1, 67, 0
2, 133152, Note_on_c, 0, 81, 101
2, 133152, Note_on_c, 1, 69, 102
2, 133181, Note_on_c, 0, 81, 0
2, 133181, Note_on_c, 1, 69, 0
2, 133184, Note_on_c, 0, 82, 101
2, 133184, Note_on_c, 0, 82, 88
2, 133184, Note_on_c, 1, 70, 100
2, 133184, Note_on_c, 1, 70, 87
2, 133213, Note_on_c, 0, 82, 0
2, 133213, Note_on_c, 1, 70, 0
2, 133216, Note_on_c, 0, 84, 100
2, 133216, Note_on_c, 1, 72, 101
2, 133242, Note_on_c, 0, 82, 0
2, 133242, Note_on_c, 1, 70, 0
2, 133245, Note_on_c, 0, 84, 0
2, 133245, Note_on_c, 1, 72, 0
2, 133248, Note_on_c, 0, 74, 109
2, 133248, Note_on_c, 0, 86, 106
2, 133248, Note_on_c, 0, 82, 90
2, 133248, Note_on_c, 1, 70, 89
2, 133248, Note_on_c, 1, 69, 91
2, 133277, Note_on_c, 0, 82, 0
2, 133277, Tempo, 3750000
2, 133277, Note_on_c, 1, 70, 0
2, 133277, Tempo, 3750000
2, 133280, Note_on_c, 0, 79, 86
2, 133280, Note_on_c, 1, 67, 85
2, 133306, Note_on_c, 0, 74, 0
2, 133306, Note_on_c, 0, 86, 0
2, 133306, Note_on_c, 1, 69, 0
2, 133309, Note_on_c, 0, 79, 0
2, 133309, Tempo, 2400000
2, 133309, Note_on_c, 1, 67, 0
2, 133309, Tempo, 2400000
2, 133311, Control_c, 1, 64, 127
2, 133312, Note_on_c, 0, 76, 104
2, 133312, Note_on_c, 0, 79, 106
2, 133312, Note_on_c, 0, 82, 107
2, 133312, Note_on_c, 0, 88, 105
2, 133312, Note_on_c, 1, 37, 73
2, 133312, Note_on_c, 1, 43, 72
2, 133312, Note_on_c, 1, 46, 72
2, 133312, Note_on_c, 1, 49, 72
2, 133568, Note_on_c, 0, 67, 107
2, 133568, Note_on_c, 0, 70, 107
2, 133568, Note_on_c, 0, 76, 108
2, 133568, Note_on_c, 1, 49, 107
2, 133568, Note_on_c, 1, 55, 110
2, 133568, Note_on_c, 1, 58, 109
2, 133568, Note_on_c, 1, 64, 110
2, 133774, Note_on_c, 1, 37, 0
2, 133774, Note_on_c, 1, 43, 0
2, 133774, Note_on_c, 1, 46, 0
2, 133774, Note_on_c, 1, 49, 0
2, 133824, Control_c, 1, 64, 0
2, 133824, Note_on_c, 1, 29, 77
2, 133824, Note_on_c, 1, 41, 78
2, 134030, Note_on_c, 0, 76, 0
2, 134030, Note_on_c, 0, 79, 0
2, 134030, Note_on_c, 0, 82, 0
2, 134030, Note_on_c, 0, 88, 0
2, 134030, Note_on_c, 0, 67, 0
2, 134030, Note_on_c, 0, 70, 0
2, 134030, Note_on_c, 0, 76, 0
2, 134030, Note_on_c, 1, 49, 0
2, 134030, Note_on_c, 1, 55, 0
2, 134030, Note_on_c, 1, 58, 0
2, 134030, Note_on_c, 1, 64, 0
2, 134080, Note_on_c, 0, 74, 75
2, 134080, Note_on_c, 0, 77, 75
2, 134080, Note_on_c, 0, 81, 75
2, 134080, Note_on_c, 0, 86, 77
2, 134080, Control_c, 1, 64, 127
2, 134080, Note_on_c, 1, 53, 71
2, 134080, Note_on_c, 1, 57, 73
2, 134080, Note_on_c, 1, 62, 74
2, 134170, Note_on_c, 1, 29, 0
2, 134170, Note_on_c, 1, 41, 0
2, 134208, Note_on_c, 1, 38, 95
2, 134208, Note_on_c, 1, 50, 95
2, 134208, Control_c, 1, 64, 0
2, 134311, Note_on_c, 0, 74, 0
2, 134311, Note_on_c, 0, 77, 0
2, 134311, Note_on_c, 0, 81, 0
2, 134311, Note_on_c, 0, 86, 0
2, 134311, Note_on_c, 1, 53, 0
2, 134311, Note_on_c, 1, 57, 0
2, 134311, Note_on_c, 1, 62, 0
2, 134324, Note_on_c, 1, 38, 0
2, 134324, Note_on_c, 1, 50, 0
2, 134336, Note_on_c, 0, 71, 50
2, 134336, Note_on_c, 0, 77, 48
2, 134336, Note_on_c, 0, 83, 49
2, 134336, Note_on_c, 0, 86, 51
2, 134336, Note_on_c, 1, 32, 38
2, 134336, Note_on_c, 1, 35, 37
2, 134336, Note_on_c, 1, 38, 36
2, 134336, Note_on_c, 1, 44, 37
2, 134798, Note_on_c, 0, 71, 0
2, 134798, Note_on_c, 0, 77, 0
2, 134798, Note_on_c, 0, 83, 0
2, 134798, Note_on_c, 0, 86, 0
2, 134798, Note_on_c, 1, 32, 0
2, 134798, Note_on_c, 1, 35, 0
2, 134798, Note_on_c, 1, 38, 0
2, 134798, Note_on_c, 1, 44, 0
2, 134912, Note_on_c, 1, 44, 70
2, 134912, Note_on_c, 1, 56, 70
2, 134970, Note_on_c, 1, 44, 0
2, 134970, Note_on_c, 1, 56, 0
2, 134976, Note_on_c, 1, 47, 85
2, 134976, Note_on_c, 1, 59, 85
2, 135034, Note_on_c, 1, 47, 0
2, 135034, Note_on_c, 1, 59, 0
2, 135040, Note_on_c, 1, 41, 69
2, 135040, Note_on_c, 1, 53, 72
2, 135098, Note_on_c, 1, 41, 0
2, 135098, Note_on_c, 1, 53, 0
2, 135104, Note_on_c, 1, 44, 92
2, 135104, Note_on_c, 1, 56, 92
2, 135162, Note_on_c, 1, 44, 0
2, 135162, Note_on_c, 1, 56, 0
2, 135168, Note_on_c, 1, 38, 75
2, 135168, Note_on_c, 1, 50, 74
2, 135226, Note_on_c, 1, 38, 0
2, 135226, Note_on_c, 1, 50, 0
2, 135232, Note_on_c, 1, 41, 93
2, 135232, Note_on_c, 1, 53, 94
2, 135290, Note_on_c, 1, 41, 0
2, 135290, Note_on_c, 1, 53, 0
2, 135296, Note_on_c, 1, 35, 78
2, 135296, Note_on_c, 1, 47, 77
2, 135354, Note_on_c, 1, 35, 0
2, 135354, Note_on_c, 1, 47, 0
2, 135360, Note_on_c, 1, 38, 101
2, 135360, Note_on_c, 1, 50, 98
2, 135418, Note_on_c, 1, 38, 0
2, 135418, Note_on_c, 1, 50, 0
2, 135424, Note_on_c, 1, 32, 78
2, 135424, Note_on_c, 1, 44, 81
2, 135482, Note_on_c, 1, 32, 0
2, 135482, Note_on_c, 1, 44, 0
2, 135488, Note_on_c, 1, 33, 97
2, 135488, Note_on_c, 1, 45, 98
2, 135604, Note_on_c, 1, 33, 0
2, 135604, Note_on_c, 1, 45, 0
2, 135616, Note_on_c, 1, 28, 100
2, 135616, Note_on_c, 1, 40, 101
2, 135744, Note_on_c, 0, 74, 101
2, 135744, Note_on_c, 0, 76, 99
2, 135744, Note_on_c, 0, 80, 99
2, 135744, Note_on_c, 0, 83, 99
2, 135744, Note_on_c, 0, 86, 98
2, 135744, Note_on_c, 1, 52, 98
2, 135744, Note_on_c, 1, 56, 100
2, 135744, Note_on_c, 1, 59, 98
2, 135744, Note_on_c, 1, 62, 97
2, 135744, Note_on_c, 1, 64, 101
2, 135824, Note_on_c, 0, 74, 0
2, 135824, Note_on_c, 0, 76, 0
2, 135824, Note_on_c, 0, 80, 0
2, 135824, Note_on_c, 0, 83, 0
2, 135824, Note_on_c, 0, 86, 0
2, 135824, Note_on_c, 1, 52, 0
2, 135824, Note_on_c, 1, 56, 0
2, 135824, Note_on_c, 1, 59, 0
2, 135824, Note_on_c, 1, 62, 0
2, 135824, Note_on_c, 1, 64, 0
2, 135872, Note_on_c, 0, 76, 45
2, 135872, Note_on_c, 0, 80, 44
2, 135872, Note_on_c, 0, 88, 44
2, 135872, Note_on_c, 0, 81, 44
2, 135872, Note_on_c, 1, 52, 43
2, 135872, Note_on_c, 1, 57, 42
2, 135872, Note_on_c, 1, 60, 41
2, 135872, Note_on_c, 1, 69, 43
2, 136218, Note_on_c, 0, 81, 0
2, 136218, Note_on_c, 1, 69, 0
2, 136256, Note_on_c, 0, 79, 42
2, 136256, Note_on_c, 1, 67, 45
2, 136314, Note_on_c, 0, 79, 0
2, 136314, Note_on_c, 1, 67, 0
2, 136320, Note_on_c, 0, 77, 43
2, 136320, Note_on_c, 1, 65, 44
2, 136334, Note_on_c, 0, 80, 0
2, 136334, Note_on_c, 0, 88, 0
2, 136334, Note_on_c, 1, 57, 0
2, 136378, Note_on_c, 0, 77, 0
2, 136378, Note_on_c, 1, 65, 0
2, 136384, Note_on_c, 0, 67, 37
2, 136384, Note_on_c, 0, 72, 45
2, 136384, Note_on_c, 1, 55, 50
2, 136384, Note_on_c, 1, 64, 47
2, 136447, Note_on_c, 1, 28, 0
2, 136447, Note_on_c, 1, 40, 0
2, 136635, Note_on_c, 1, 52, 0
2, 136635, Note_on_c, 1, 55, 0
2, 136635, Note_on_c, 1, 60, 0
2, 136635, Note_on_c, 1, 64, 0
2, 136846, Note_on_c, 0, 67, 0
2, 136846, Note_on_c, 0, 76, 0
2, 136846, Note_on_c, 0, 72, 0
2, 136928, Note_on_c, 0, 67, 57
2, 136928, Note_on_c, 0, 79, 54
2, 136957, Note_on_c, 0, 67, 0
2, 136957, Note_on_c, 0, 79, 0
2, 136960, Note_on_c, 0, 77, 57
2, 136960, Note_on_c, 1, 65, 55
2, 136989, Note_on_c, 0, 77, 0
2, 136992, Note_on_c, 0, 67, 65
2, 136992, Note_on_c, 0, 79, 65
2, 136992, Note_on_c, 1, 65, 0
2, 137021, Note_on_c, 0, 67, 0
2, 137021, Note_on_c, 0, 79, 0
2, 137024, Note_on_c, 0, 76, 57
2, 137024, Note_on_c, 1, 64, 59
2, 137040, Note_on_c, 0, 76, 0
2, 137056, Note_on_c, 0, 64, 62
2, 137056, Note_on_c, 0, 76, 64
2, 137056, Note_on_c, 1, 64, 0
2, 137085, Note_on_c, 0, 64, 0
2, 137085, Note_on_c, 0, 76, 0
2, 137088, Note_on_c, 0, 74, 60
2, 137088, Note_on_c, 1, 62, 58
2, 137117, Note_on_c, 0, 74, 0
2, 137120, Note_on_c, 0, 64, 66
2, 137120, Note_on_c, 0, 76, 64
2, 137120, Note_on_c, 1, 62, 0
2, 137149, Note_on_c, 0, 64, 0
2, 137149, Note_on_c, 0, 76, 0
2, 137152, Note_on_c, 0, 72, 58
2, 137152, Note_on_c, 1, 60, 61
2, 137168, Note_on_c, 0, 72, 0
2, 137184, Note_on_c, 0, 69, 74
2, 137184, Note_on_c, 0, 81, 73
2, 137184, Note_on_c, 1, 60, 0
2, 137213, Note_on_c, 0, 69, 0
2, 137213, Note_on_c, 0, 81, 0
2, 137216, Note_on_c, 0, 79, 61
2, 137216, Note_on_c, 1, 67, 73
2, 137245, Note_on_c, 0, 79, 0
2, 137248, Note_on_c, 0, 69, 64
2, 137248, Note_on_c, 0, 81, 64
2, 137248, Note_on_c, 1, 67, 0
2, 137277, Note_on_c, 0, 69, 0
2, 137277, Note_on_c, 0, 81, 0
2, 137280, Note_on_c, 0, 77, 58
2, 137280, Note_on_c, 1, 65, 62
2, 137296, Note_on_c, 0, 77, 0
2, 137312, Note_on_c, 0, 65, 61
2, 137312, Note_on_c, 0, 77, 61
2, 137312, Note_on_c, 1, 65, 0
2, 137341, Note_on_c, 0, 65, 0
2, 137341, Note_on_c, 0, 77, 0
2, 137344, Note_on_c, 0, 76, 59
2, 137344, Note_on_c, 1, 64, 61
2, 137373, Note_on_c, 0, 76, 0
2, 137376, Note_on_c, 0, 65, 63
2, 137376, Note_on_c, 0, 77, 63
2, 137376, Note_on_c, 1, 64, 0
2, 137405, Note_on_c, 0, 65, 0
2, 137405, Note_on_c, 0, 77, 0
2, 137408, Note_on_c, 0, 74, 59
2, 137408, Note_on_c, 1, 62, 62
2, 137424, Note_on_c, 0, 74, 0
2, 137440, Note_on_c, 0, 71, 75
2, 137440, Note_on_c, 0, 83, 76
2, 137440, Note_on_c, 1, 62, 0
2, 137469, Note_on_c, 0, 71, 0
2, 137469, Note_on_c, 0, 83, 0
2, 137472, Note_on_c, 0, 81, 61
2, 137472, Note_on_c, 1, 69, 74
2, 137501, Note_on_c, 0, 81, 0
2, 137504, Note_on_c, 0, 71, 64
2, 137504, Note_on_c, 0, 83, 64
2, 137504, Note_on_c, 1, 69, 0
2, 137533, Note_on_c, 0, 71, 0
2, 137533, Note_on_c, 0, 83, 0
2, 137536, Note_on_c, 0, 79, 58
2, 137536, Note_on_c, 1, 67, 61
2, 137552, Note_on_c, 0, 79, 0
2, 137568, Note_on_c, 0, 67, 60
2, 137568, Note_on_c, 0, 79, 62
2, 137568, Note_on_c, 1, 67, 0
2, 137597, Note_on_c, 0, 67, 0
2, 137597, Note_on_c, 0, 79, 0
2, 137600, Note_on_c, 0, 77, 61
2, 137600, Note_on_c, 1, 65, 59
2, 137629, Note_on_c, 0, 77, 0
2, 137632, Note_on_c, 0, 67, 66
2, 137632, Note_on_c, 0, 79, 65
2, 137632, Note_on_c, 1, 65, 0
2, 137661, Note_on_c, 0, 67, 0
2, 137661, Note_on_c, 0, 79, 0
2, 137664, Note_on_c, 0, 76, 60
2, 137664, Note_on_c, 1, 64, 63
2, 137680, Note_on_c, 0, 76, 0
2, 137696, Note_on_c, 0, 72, 75
2, 137696, Note_on_c, 0, 84, 74
2, 137696, Note_on_c, 1, 64, 0
2, 137725, Note_on_c, 0, 72, 0
2, 137725, Note_on_c, 0, 84, 0
2, 137728, Note_on_c, 0, 83, 61
2, 137728, Note_on_c, 1, 71, 74
2, 137757, Note_on_c, 0, 83, 0
2, 137760, Note_on_c, 0, 72, 66
2, 137760, Note_on_c, 0, 84, 66
2, 137760, Note_on_c, 1, 71, 0
2, 137789, Note_on_c, 0, 72, 0
2, 137789, Note_on_c, 0, 84, 0
2, 137792, Note_on_c, 0, 81, 60
2, 137792, Note_on_c, 1, 69, 61
2, 137808, Note_on_c, 0, 81, 0
2, 137824, Note_on_c, 0, 74, 72
2, 137824, Note_on_c, 0, 86, 70
2, 137824, Note_on_c, 1, 69, 0
2, 137853, Note_on_c, 0, 74, 0
2, 137853, Note_on_c, 0, 86, 0
2, 137856, Note_on_c, 0, 84, 62
2, 137856, Note_on_c, 1, 72, 66
2, 137885, Note_on_c, 0, 84, 0
2, 137888, Note_on_c, 0, 74, 65
2, 137888, Note_on_c, 0, 86, 66
2, 137888, Note_on_c, 1, 72, 0
2, 137917, Note_on_c, 0, 74, 0
2, 137917, Note_on_c, 0, 86, 0
2, 137920, Note_on_c, 0, 83, 61
2, 137920, Note_on_c, 1, 71, 63
2, 137936, Note_on_c, 0, 83, 0
2, 137952, Note_on_c, 0, 76, 70
2, 137952, Note_on_c, 0, 88, 69
2, 137952, Note_on_c, 1, 71, 0
2, 137981, Note_on_c, 0, 76, 0
2, 137981, Note_on_c, 0, 88, 0
2, 137984, Note_on_c, 0, 86, 62
2, 137984, Note_on_c, 1, 74, 68
2, 138013, Note_on_c, 0, 86, 0
2, 138016, Note_on_c, 0, 76, 65
2, 138016, Note_on_c, 0, 88, 68
2, 138016, Note_on_c, 1, 74, 0
2, 138045, Note_on_c, 0, 76, 0
2, 138045, Note_on_c, 0, 88, 0
2, 138048, Note_on_c, 0, 84, 56
2, 138048, Note_on_c, 1, 72, 59
2, 138064, Note_on_c, 0, 84, 0
2, 138080, Note_on_c, 0, 77, 70
2, 138080, Note_on_c, 0, 89, 70
2, 138080, Note_on_c, 1, 72, 0
2, 138109, Note_on_c, 0, 77, 0
2, 138109, Note_on_c, 0, 89, 0
2, 138112, Note_on_c, 0, 88, 62
2, 138112, Note_on_c, 1, 76, 68
2, 138141, Note_on_c, 0, 88, 0
2, 138144, Note_on_c, 0, 77, 66
2, 138144, Note_on_c, 0, 89, 63
2, 138144, Note_on_c, 1, 76, 0
2, 138173, Note_on_c, 0, 77, 0
2, 138173, Note_on_c, 0, 89, 0
2, 138176, Note_on_c, 0, 86, 62
2, 138176, Note_on_c, 1, 74, 62
2, 138192, Note_on_c, 0, 86, 0
2, 138208, Note_on_c, 0, 79, 69
2, 138208, Note_on_c, 0, 91, 68
2, 138208, Note_on_c, 1, 74, 0
2, 138237, Note_on_c, 0, 79, 0
2, 138237, Note_on_c, 0, 91, 0
2, 138240, Note_on_c, 0, 89, 59
2, 138240, Note_on_c, 1, 77, 67
2, 138269, Note_on_c, 0, 89, 0
2, 138272, Note_on_c, 0, 79, 66
2, 138272, Note_on_c, 0, 91, 66
2, 138272, Note_on_c, 1, 77, 0
2, 138301, Note_on_c, 0, 79, 0
2, 138301, Note_on_c, 0, 91, 0
2, 138304, Note_on_c, 0, 88, 59
2, 138304, Note_on_c, 1, 76, 60
2, 138320, Note_on_c, 0, 88, 0
2, 138336, Note_on_c, 0, 72, 57
2, 138336, Note_on_c, 0, 84, 55
2, 138336, Note_on_c, 1, 76, 0
2, 138365, Note_on_c, 0, 72, 0
2, 138365, Note_on_c, 0, 84, 0
2, 138368, Note_on_c, 0, 83, 57
2, 138368, Note_on_c, 1, 71, 55
2, 138397, Note_on_c, 0, 83, 0
2, 138400, Note_on_c, 0, 72, 63
2, 138400, Note_on_c, 0, 84, 66
2, 138400, Note_on_c, 1, 71, 0
2, 138429, Note_on_c, 0, 72, 0
2, 138429, Note_on_c, 0, 84, 0
2, 138432, Note_on_c, 0, 81, 60
2, 138432, Note_on_c, 1, 69, 59
2, 138461, Note_on_c, 0, 81, 0
2, 138464, Note_on_c, 0, 74, 72
2, 138464, Note_on_c, 0, 86, 69
2, 138464, Note_on_c, 1, 69, 0
2, 138493, Note_on_c, 0, 74, 0
2, 138493, Note_on_c, 0, 86, 0
2, 138496, Note_on_c, 0, 84, 58
2, 138496, Note_on_c, 1, 72, 69
2, 138525, Note_on_c, 0, 84, 0
2, 138528, Note_on_c, 0, 74, 64
2, 138528, Note_on_c, 0, 86, 68
2, 138528, Note_on_c, 1, 72, 0
2, 138557, Note_on_c, 0, 74, 0
2, 138557, Note_on_c, 0, 86, 0
2, 138560, Note_on_c, 0, 83, 60
2, 138560, Note_on_c, 1, 71, 59
2, 138589, Note_on_c, 0, 83, 0
2, 138592, Note_on_c, 0, 68, 57
2, 138592, Note_on_c, 0, 80, 56
2, 138592, Note_on_c, 1, 71, 0
2, 138621, Note_on_c, 0, 68, 0
2, 138621, Note_on_c, 0, 80, 0
2, 138624, Note_on_c, 0, 78, 56
2, 138624, Note_on_c, 1, 66, 53
2, 138653, Note_on_c, 0, 78, 0
2, 138656, Note_on_c, 0, 68, 68
2, 138656, Note_on_c, 0, 80, 65
2, 138656, Note_on_c, 1, 66, 0
2, 138685, Note_on_c, 0, 68, 0
2, 138685, Note_on_c, 0, 80, 0
2, 138688, Note_on_c, 0, 76, 60
2, 138688, Note_on_c, 1, 64, 60
2, 138717, Note_on_c, 0, 76, 0
2, 138720, Note_on_c, 0, 72, 73
2, 138720, Note_on_c, 0, 84, 75
2, 138720, Note_on_c, 1, 64, 0
2, 138749, Note_on_c, 0, 72, 0
2, 138749, Note_on_c, 0, 84, 0
2, 138752, Note_on_c, 0, 83, 62
2, 138752, Note_on_c, 1, 71, 74
2, 138781, Note_on_c, 0, 83, 0
2, 138784, Note_on_c, 0, 72, 63
2, 138784, Note_on_c, 0, 84, 63
2, 138784, Note_on_c, 1, 71, 0
2, 138813, Note_on_c, 0, 72, 0
2, 138813, Note_on_c, 0, 84, 0
2, 138816, Note_on_c, 0, 81, 57
2, 138816, Note_on_c, 1, 69, 62
2, 138845, Note_on_c, 0, 81, 0
2, 138848, Note_on_c, 0, 65, 53
2, 138848, Note_on_c, 0, 77, 55
2, 138848, Note_on_c, 1, 69, 0
2, 138877, Note_on_c, 0, 65, 0
2, 138877, Note_on_c, 0, 77, 0
2, 138880, Note_on_c, 0, 76, 59
2, 138880, Note_on_c, 1, 64, 54
2, 138909, Note_on_c, 0, 76, 0
2, 138912, Note_on_c, 0, 65, 64
2, 138912, Note_on_c, 0, 77, 63
2, 138912, Note_on_c, 1, 64, 0
2, 138941, Note_on_c, 0, 65, 0
2, 138941, Note_on_c, 0, 77, 0
2, 138944, Note_on_c, 0, 74, 60
2, 138944, Note_on_c, 1, 62, 61
2, 138973, Note_on_c, 0, 74, 0
2, 138976, Note_on_c, 0, 71, 77
2, 138976, Note_on_c, 0, 83, 76
2, 138976, Note_on_c, 1, 62, 0
2, 139005, Note_on_c, 0, 71, 0
2, 139005, Note_on_c, 0, 83, 0
2, 139008, Note_on_c, 0, 81, 62
2, 139008, Note_on_c, 1, 69, 72
2, 139037, Note_on_c, 0, 81, 0
2, 139040, Note_on_c, 0, 71, 64
2, 139040, Note_on_c, 0, 83, 65
2, 139040, Note_on_c, 1, 69, 0
2, 139069, Note_on_c, 0, 71, 0
2, 139069, Note_on_c, 0, 83, 0
2, 139072, Note_on_c, 1, 60, 51
2, 139104, Note_on_c, 0, 69, 58
2, 139104, Note_on_c, 0, 81, 54
2, 139104, Note_on_c, 1, 60, 0
2, 139133, Note_on_c, 0, 69, 0
2, 139133, Note_on_c, 0, 81, 0
2, 139136, Note_on_c, 0, 80, 58
2, 139136, Note_on_c, 1, 68, 73
2, 139165, Note_on_c, 0, 80, 0
2, 139168, Note_on_c, 0, 69, 66
2, 139168, Note_on_c, 0, 81, 64
2, 139168, Note_on_c, 1, 68, 0
2, 139197, Note_on_c, 0, 69, 0
2, 139197, Note_on_c, 0, 81, 0
2, 139200, Note_on_c, 1, 59, 51
2, 139232, Note_on_c, 0, 68, 55
2, 139232, Note_on_c, 0, 80, 56
2, 139232, Note_on_c, 1, 59, 0
2, 139261, Note_on_c, 0, 68, 0
2, 139261, Note_on_c, 0, 80, 0
2, 139264, Note_on_c, 0, 77, 54
2, 139264, Note_on_c, 1, 66, 74
2, 139293, Note_on_c, 0, 77, 0
2, 139296, Note_on_c, 0, 68, 67
2, 139296, Note_on_c, 0, 80, 67
2, 139296, Note_on_c, 1, 66, 0
2, 139325, Note_on_c, 0, 68, 0
2, 139325, Note_on_c, 0, 80, 0
2, 139328, Note_on_c, 1, 64, 59
2, 139360, Note_on_c, 0, 60, 54
2, 139360, Note_on_c, 0, 72, 57
2, 139360, Note_on_c, 1, 64, 0
2, 139389, Note_on_c, 0, 60, 0
2, 139389, Note_on_c, 0, 72, 0
2, 139392, Note_on_c, 0, 71, 60
2, 139392, Note_on_c, 1, 59, 54
2, 139421, Note_on_c, 0, 71, 0
2, 139421, Note_on_c, 1, 59, 0
2, 139424, Note_on_c, 0, 69, 57
2, 139424, Note_on_c, 1, 57, 57
2, 139453, Note_on_c, 0, 69, 0
2, 139453, Note_on_c, 1, 57, 0
2, 139456, Note_on_c, 0, 68, 61
2, 139456, Note_on_c, 1, 56, 64
2, 139485, Note_on_c, 0, 68, 0
2, 139485, Note_on_c, 1, 56, 0
2, 139488, Note_on_c, 0, 62, 74
2, 139488, Note_on_c, 0, 74, 75
2, 139488, Note_on_c, 1, 62, 71
2, 139517, Note_on_c, 0, 62, 0
2, 139517, Note_on_c, 0, 74, 0
2, 139517, Note_on_c, 1, 62, 0
2, 139520, Note_on_c, 0, 72, 64
2, 139520, Note_on_c, 1, 60, 62
2, 139549, Note_on_c, 0, 72, 0
2, 139549, Note_on_c, 1, 60, 0
2, 139552, Note_on_c, 0, 71, 63
2, 139552, Note_on_c, 1, 59, 62
2, 139581, Note_on_c, 0, 71, 0
2, 139581, Note_on_c, 1, 59, 0
2, 139584, Note_on_c, 0, 69, 66
2, 139584, Note_on_c, 1, 57, 64
2, 139613, Note_on_c, 0, 69, 0
2, 139613, Note_on_c, 1, 57, 0
2, 139616, Note_on_c, 0, 64, 80
2, 139616, Note_on_c, 0, 76, 82
2, 139616, Note_on_c, 1, 64, 83
2, 139645, Note_on_c, 0, 64, 0
2, 139645, Note_on_c, 0, 76, 0
2, 139645, Note_on_c, 1, 64, 0
2, 139648, Note_on_c, 0, 74, 69
2, 139648, Note_on_c, 1, 62, 67
2, 139677, Note_on_c, 0, 74, 0
2, 139677, Note_on_c, 1, 62, 0
2, 139680, Note_on_c, 0, 72, 68
2, 139680, Note_on_c, 1, 60, 70
2, 139709, Note_on_c, 0, 72, 0
2, 139709, Note_on_c, 1, 60, 0
2, 139712, Note_on_c, 0, 71, 73
2, 139712, Note_on_c, 1, 59, 72
2, 139741, Note_on_c, 0, 71, 0
2, 139741, Note_on_c, 1, 59, 0
2, 139744, Note_on_c, 0, 65, 87
2, 139744, Note_on_c, 0, 77, 86
2, 139744, Note_on_c, 1, 65, 85
2, 139773, Note_on_c, 0, 65, 0
2, 139773, Note_on_c, 0, 77, 0
2, 139773, Note_on_c, 1, 65, 0
2, 139776, Note_on_c, 0, 76, 75
2, 139776, Note_on_c, 1, 64, 77
2, 139805, Note_on_c, 0, 76, 0
2, 139805, Note_on_c, 1, 64, 0
2, 139808, Note_on_c, 0, 74, 74
2, 139808, Note_on_c, 1, 62, 71
2, 139837, Note_on_c, 0, 74, 0
2, 139837, Note_on_c, 1, 62, 0
2, 139840, Note_on_c, 0, 72, 75
2, 139840, Note_on_c, 1, 60, 74
2, 139869, Note_on_c, 0, 72, 0
2, 139869, Note_on_c, 1, 60, 0
2, 139872, Note_on_c, 0, 67, 93
2, 139872, Note_on_c, 0, 79, 95
2, 139872, Note_on_c, 1, 67, 94
2, 139901, Note_on_c, 0, 67, 0
2, 139901, Note_on_c, 0, 79, 0
2, 139901, Note_on_c, 1, 67, 0
2, 139904, Note_on_c, 0, 77, 79
2, 139904, Note_on_c, 1, 65, 77
2, 139933, Note_on_c, 0, 77, 0
2, 139933, Note_on_c, 1, 65, 0
2, 139936, Note_on_c, 0, 76, 79
2, 139936, Note_on_c, 1, 64, 78
2, 139965, Note_on_c, 0, 76, 0
2, 139965, Note_on_c, 1, 64, 0
2, 139968, Note_on_c, 0, 74, 83
2, 139968, Note_on_c, 1, 62, 80
2, 139997, Note_on_c, 0, 74, 0
2, 139997, Note_on_c, 1, 62, 0
2, 140000, Note_on_c, 0, 69, 101
2, 140000, Note_on_c, 0, 81, 101
2, 140000, Note_on_c, 1, 69, 98
2, 140029, Note_on_c, 0, 69, 0
2, 140029, Note_on_c, 0, 81, 0
2, 140029, Note_on_c, 1, 69, 0
2, 140032, Note_on_c, 0, 79, 84
2, 140032, Note_on_c, 1, 67, 85
2, 140061, Note_on_c, 0, 79, 0
2, 140061, Note_on_c, 1, 67, 0
2, 140064, Note_on_c, 0, 77, 85
2, 140064, Note_on_c, 1, 65, 85
2, 140093, Note_on_c, 0, 77, 0
2, 140093, Note_on_c, 1, 65, 0
2, 140096, Note_on_c, 0, 76, 110
2, 140096, Note_on_c, 1, 64, 107
2, 140125, Note_on_c, 0, 76, 0
2, 140125, Note_on_c, 1, 64, 0
2, 140128, Note_on_c, 0, 79, 100
2, 140128, Note_on_c, 1, 55, 71
2, 140157, Note_on_c, 0, 79, 0
2, 140157, Note_on_c, 1, 55, 0
2, 140160, Note_on_c, 0, 81, 98
2, 140160, Note_on_c, 1, 57, 96
2, 140189, Note_on_c, 0, 81, 0
2, 140189, Note_on_c, 1, 57, 0
2, 140192, Note_on_c, 0, 83, 101
2, 140192, Note_on_c, 1, 59, 99
2, 140221, Note_on_c, 0, 83, 0
2, 140221, Note_on_c, 1, 59, 0
2, 140224, Note_on_c, 0, 72, 100
2, 140224, Note_on_c, 0, 84, 100
2, 140224, Note_on_c, 1, 60, 118
2, 140352, Note_on_c, 0, 67, 99
2, 140352, Note_on_c, 0, 72, 99
2, 140352, Note_on_c, 0, 76, 97
2, 140352, Note_on_c, 0, 79, 100
2, 140352, Note_on_c, 1, 40, 100
2, 140352, Note_on_c, 1, 43, 99
2, 140352, Note_on_c, 1, 48, 98
2, 140352, Note_on_c, 1, 52, 101
2, 140455, Note_on_c, 0, 72, 0
2, 140455, Note_on_c, 0, 84, 0
2, 140455, Note_on_c, 1, 60, 0
2, 140468, Note_on_c, 0, 67, 0
2, 140468, Note_on_c, 0, 72, 0
2, 140468, Note_on_c, 0, 76, 0
2, 140468, Note_on_c, 0, 79, 0
2, 140468, Note_on_c, 1, 40, 0
2, 140468, Note_on_c, 1, 43, 0
2, 140468, Note_on_c, 1, 48, 0
2, 140468, Note_on_c, 1, 52, 0
2, 140480, Control_c, 0, 64, 127
2, 140480, Note_on_c, 0, 73, 122
2, 140480, Note_on_c, 0, 76, 121
2, 140480, Note_on_c, 0, 81, 119
2, 140480, Note_on_c, 0, 85, 121
2, 140480, Control_c, 1, 64, 127
2, 140480, Note_on_c, 1, 43, 105
2, 140480, Note_on_c, 1, 49, 105
2, 140480, Note_on_c, 1, 52, 106
2, 140480, Note_on_c, 1, 55, 103
2, 140480, Note_on_c, 1, 57, 105
2, 140596, Note_on_c, 0, 73, 0
2, 140596, Note_on_c, 0, 76, 0
2, 140596, Note_on_c, 0, 81, 0
2, 140596, Note_on_c, 0, 85, 0
2, 140596, Note_on_c, 1, 43, 0
2, 140596, Note_on_c, 1, 49, 0
2, 140596, Note_on_c, 1, 52, 0
2, 140596, Note_on_c, 1, 55, 0
2, 140596, Note_on_c, 1, 57, 0
2, 140608, Note_on_c, 0, 69, 70
2, 140608, Note_on_c, 1, 52, 104
2, 140608, Note_on_c, 1, 61, 103
2, 140637, Note_on_c, 0, 69, 0
2, 140637, Note_on_c, 1, 52, 0
2, 140637, Note_on_c, 1, 61, 0
2, 140640, Note_on_c, 0, 73, 103
2, 140640, Note_on_c, 1, 57, 107
2, 140640, Note_on_c, 1, 64, 104
2, 140669, Note_on_c, 0, 73, 0
2, 140669, Note_on_c, 1, 57, 0
2, 140669, Note_on_c, 1, 64, 0
2, 140672, Note_on_c, 0, 69, 106
2, 140672, Note_on_c, 0, 76, 105
2, 140701, Note_on_c, 0, 69, 0
2, 140701, Note_on_c, 0, 76, 0
2, 140704, Note_on_c, 0, 73, 109
2, 140704, Note_on_c, 0, 81, 111
2, 140733, Note_on_c, 0, 73, 0
2, 140733, Note_on_c, 0, 81, 0
2, 140736, Note_on_c, 0, 69, 100
2, 140736, Note_on_c, 0, 76, 100
2, 140736, Note_on_c, 0, 85, 100
2, 140852, Note_on_c, 0, 69, 0
2, 140852, Note_on_c, 0, 76, 0
2, 140852, Note_on_c, 0, 85, 0
2, 140864, Note_on_c, 0, 73, 125
2, 140864, Note_on_c, 0, 76, 127
2, 140864, Note_on_c, 0, 81, 126
2, 140864, Note_on_c, 0, 85, 126
2, 140864, Note_on_c, 1, 43, 97
2, 140864, Note_on_c, 1, 49, 101
2, 140864, Note_on_c, 1, 52, 98
2, 140864, Note_on_c, 1, 55, 99
2, 140864, Note_on_c, 1, 57, 97
2, 140980, Note_on_c, 0, 73, 0
2, 140980, Note_on_c, 0, 76, 0
2, 140980, Note_on_c, 0, 81, 0
2, 140980, Note_on_c, 0, 85, 0
2, 140980, Note_on_c, 1, 43, 0
2, 140980, Note_on_c, 1, 49, 0
2, 140980, Note_on_c, 1, 52, 0
2, 140980, Note_on_c, 1, 55, 0
2, 140980, Note_on_c, 1, 57, 0
2, 140992, Control_c, 0, 64, 0
2, 140992, Note_on_c, 0, 74, 121
2, 140992, Note_on_c, 0, 77, 123
2, 140992, Note_on_c, 0, 81, 121
2, 140992, Note_on_c, 0, 86, 123
2, 140992, Control_c, 1, 64, 127
2, 140992, Control_c, 1, 64, 0
2, 140992, Note_on_c, 1, 41, 102
2, 140992, Note_on_c, 1, 45, 100
2, 140992, Note_on_c, 1, 50, 101
2, 140992, Note_on_c, 1, 53, 100
2, 141108, Note_on_c, 0, 74, 0
2, 141108, Note_on_c, 0, 77, 0
2, 141108, Note_on_c, 0, 81, 0
2, 141108, Note_on_c, 0, 86, 0
2, 141108, Note_on_c, 1, 41, 0
2, 141108, Note_on_c, 1, 45, 0
2, 141108, Note_on_c, 1, 50, 0
2, 141108, Note_on_c, 1, 53, 0
2, 141120, Control_c, 0, 64, 127
2, 141120, Note_on_c, 0, 69, 69
2, 141120, Note_on_c, 1, 53, 115
2, 141120, Note_on_c, 1, 62, 113
2, 141149, Note_on_c, 0, 69, 0
2, 141149, Note_on_c, 1, 53, 0
2, 141149, Note_on_c, 1, 62, 0
2, 141152, Note_on_c, 0, 74, 106
2, 141152, Note_on_c, 1, 57, 109
2, 141152, Note_on_c, 1, 65, 108
2, 141181, Note_on_c, 0, 74, 0
2, 141181, Note_on_c, 1, 57, 0
2, 141181, Note_on_c, 1, 65, 0
2, 141184, Note_on_c, 0, 69, 104
2, 141184, Note_on_c, 0, 77, 103
2, 141213, Note_on_c, 0, 69, 0
2, 141213, Note_on_c, 0, 77, 0
2, 141216, Note_on_c, 0, 74, 109
2, 141216, Note_on_c, 0, 81, 107
2, 141245, Note_on_c, 0, 74, 0
2, 141245, Note_on_c, 0, 81, 0
2, 141248, Note_on_c, 0, 69, 106
2, 141248, Note_on_c, 0, 77, 104
2, 141248, Note_on_c, 0, 86, 104
2, 141364, Note_on_c, 0, 69, 0
2, 141364, Note_on_c, 0, 77, 0
2, 141364, Note_on_c, 0, 86, 0
2, 141376, Note_on_c, 0, 74, 126
2, 141376, Note_on_c, 0, 77, 126
2, 141376, Note_on_c, 0, 81, 127
2, 141376, Note_on_c, 0, 86, 127
2, 141376, Note_on_c, 1, 41, 99
2, 141376, Note_on_c, 1, 45, 98
2, 141376, Note_on_c, 1, 50, 100
2, 141376, Note_on_c, 1, 53, 99
2, 141376, Control_c, 1, 64, 0
2, 141492, Note_on_c, 0, 74, 0
2, 141492, Note_on_c, 0, 77, 0
2, 141492, Note_on_c, 0, 81, 0
2, 141492, Note_on_c, 0, 86, 0
2, 141492, Note_on_c, 1, 41, 0
2, 141492, Note_on_c, 1, 45, 0
2, 141492, Note_on_c, 1, 50, 0
2, 141492, Note_on_c, 1, 53, 0
2, 141504, Note_on_c, 0, 71, 109
2, 141504, Note_on_c, 0, 74, 108
2, 141504, Note_on_c, 0, 79, 106
2, 141504, Note_on_c, 0, 83, 109
2, 141504, Control_c, 1, 64, 127
2, 141504, Note_on_c, 1, 41, 120
2, 141504, Note_on_c, 1, 47, 118
2, 141504, Note_on_c, 1, 50, 118
2, 141504, Note_on_c, 1, 53, 118
2, 141504, Note_on_c, 1, 55, 118
2, 141620, Note_on_c, 0, 71, 0
2, 141620, Note_on_c, 0, 74, 0
2, 141620, Note_on_c, 0, 79, 0
2, 141620, Note_on_c, 0, 83, 0
2, 141620, Note_on_c, 1, 41, 0
2, 141620, Note_on_c, 1, 47, 0
2, 141620, Note_on_c, 1, 50, 0
2, 141620, Note_on_c, 1, 53, 0
2, 141620, Note_on_c, 1, 55, 0
2, 141632, Control_c, 0, 64, 0
2, 141632, Note_on_c, 0, 67, 68
2, 141632, Note_on_c, 1, 50, 108
2, 141632, Note_on_c, 1, 59, 107
2, 141661, Note_on_c, 0, 67, 0
2, 141661, Note_on_c, 1, 50, 0
2, 141661, Note_on_c, 1, 59, 0
2, 141664, Note_on_c, 0, 71, 102
2, 141664, Note_on_c, 1, 55, 104
2, 141664, Note_on_c, 1, 62, 105
2, 141693, Note_on_c, 0, 71, 0
2, 141693, Note_on_c, 1, 55, 0
2, 141693, Note_on_c, 1, 62, 0
2, 141696, Note_on_c, 0, 67, 105
2, 141696, Note_on_c, 0, 74, 106
2, 141725, Note_on_c, 0, 67, 0
2, 141725, Note_on_c, 0, 74, 0
2, 141728, Note_on_c, 0, 71, 111
2, 141728, Note_on_c, 0, 79, 111
2, 141757, Note_on_c, 0, 71, 0
2, 141757, Note_on_c, 0, 79, 0
2, 141760, Note_on_c, 0, 67, 102
2, 141760, Note_on_c, 0, 74, 102
2, 141760, Note_on_c, 0, 83, 115
2, 141876, Note_on_c, 0, 67, 0
2, 141876, Note_on_c, 0, 74, 0
2, 141876, Note_on_c, 0, 83, 0
2, 141888, Note_on_c, 0, 71, 127
2, 141888, Note_on_c, 0, 74, 127
2, 141888, Note_on_c, 0, 79, 127
2, 141888, Note_on_c, 0, 83, 127
2, 141888, Note_on_c, 1, 41, 98
2, 141888, Note_on_c, 1, 47, 98
2, 141888, Note_on_c, 1, 50, 97
2, 141888, Note_on_c, 1, 53, 100
2, 141888, Note_on_c, 1, 55, 98
2, 142004, Note_on_c, 0, 71, 0
2, 142004, Note_on_c, 0, 74, 0
2, 142004, Note_on_c, 0, 79, 0
2, 142004, Note_on_c, 0, 83, 0
2, 142004, Note_on_c, 1, 41, 0
2, 142004, Note_on_c, 1, 47, 0
2, 142004, Note_on_c, 1, 50, 0
2, 142004, Note_on_c, 1, 53, 0
2, 142004, Note_on_c, 1, 55, 0
2, 142016, Note_on_c, 0, 72, 124
2, 142016, Note_on_c, 0, 76, 122
2, 142016, Note_on_c, 0, 79, 124
2, 142016, Note_on_c, 0, 84, 120
2, 142016, Control_c, 1, 64, 127
2, 142016, Control_c, 1, 64, 0
2, 142016, Note_on_c, 1, 40, 100
2, 142016, Note_on_c, 1, 43, 102
2, 142016, Note_on_c, 1, 48, 101
2, 142016, Note_on_c, 1, 52, 104
2, 142132, Note_on_c, 0, 72, 0
2, 142132, Note_on_c, 0, 76, 0
2, 142132, Note_on_c, 0, 79, 0
2, 142132, Note_on_c, 0, 84, 0
2, 142132, Note_on_c, 1, 40, 0
2, 142132, Note_on_c, 1, 43, 0
2, 142132, Note_on_c, 1, 48, 0
2, 142132, Note_on_c, 1, 52, 0
2, 142144, Note_on_c, 0, 67, 71
2, 142144, Note_on_c, 1, 52, 111
2, 142144, Note_on_c, 1, 60, 114
2, 142173, Note_on_c, 0, 67, 0
2, 142173, Note_on_c, 1, 52, 0
2, 142173, Note_on_c, 1, 60, 0
2, 142176, Note_on_c, 0, 72, 106
2, 142176, Note_on_c, 1, 55, 109
2, 142176, Note_on_c, 1, 64, 111
2, 142205, Note_on_c, 0, 72, 0
2, 142205, Note_on_c, 1, 55, 0
2, 142205, Note_on_c, 1, 64, 0
2, 142208, Note_on_c, 0, 67, 107
2, 142208, Note_on_c, 0, 76, 106
2, 142237, Note_on_c, 0, 67, 0
2, 142237, Note_on_c, 0, 76, 0
2, 142240, Note_on_c, 0, 72, 104
2, 142240, Note_on_c, 0, 79, 107
2, 142269, Note_on_c, 0, 72, 0
2, 142269, Note_on_c, 0, 79, 0
2, 142272, Note_on_c, 0, 67, 106
2, 142272, Note_on_c, 0, 76, 104
2, 142272, Note_on_c, 0, 84, 116
2, 142388, Note_on_c, 0, 67, 0
2, 142388, Note_on_c, 0, 76, 0
2, 142388, Note_on_c, 0, 84, 0
2, 142400, Note_on_c, 0, 72, 127
2, 142400, Note_on_c, 0, 76, 127
2, 142400, Note_on_c, 0, 79, 127
2, 142400, Note_on_c, 0, 84, 127
2, 142400, Note_on_c, 1, 40, 100
2, 142400, Note_on_c, 1, 43, 97
2, 142400, Note_on_c, 1, 48, 99
2, 142400, Note_on_c, 1, 52, 100
2, 142400, Control_c, 1, 64, 0
2, 142516, Note_on_c, 0, 72, 0
2, 142516, Note_on_c, 0, 76, 0
2, 142516, Note_on_c, 0, 79, 0
2, 142516, Note_on_c, 0, 84, 0
2, 142516, Note_on_c, 1, 40, 0
2, 142516, Note_on_c, 1, 43, 0
2, 142516, Note_on_c, 1, 48, 0
2, 142516, Note_on_c, 1, 52, 0
2, 142528, Note_on_c, 0, 69, 107
2, 142528, Note_on_c, 0, 72, 106
2, 142528, Note_on_c, 0, 77, 107
2, 142528, Note_on_c, 0, 81, 105
2, 142528, Control_c, 1, 64, 127
2, 142528, Note_on_c, 1, 40, 118
2, 142528, Note_on_c, 1, 45, 115
2, 142528, Note_on_c, 1, 48, 116
2, 142528, Note_on_c, 1, 52, 118
2, 142528, Note_on_c, 1, 53, 118
2, 142644, Note_on_c, 0, 69, 0
2, 142644, Note_on_c, 0, 72, 0
2, 142644, Note_on_c, 0, 77, 0
2, 142644, Note_on_c, 0, 81, 0
2, 142644, Note_on_c, 1, 40, 0
2, 142644, Note_on_c, 1, 45, 0
2, 142644, Note_on_c, 1, 48, 0
2, 142644, Note_on_c, 1, 52, 0
2, 142644, Note_on_c, 1, 53, 0
2, 142656, Note_on_c, 0, 65, 68
2, 142656, Note_on_c, 1, 48, 107
2, 142656, Note_on_c, 1, 57, 107
2, 142685, Note_on_c, 0, 65, 0
2, 142685, Note_on_c, 1, 48, 0
2, 142685, Note_on_c, 1, 57, 0
2, 142688, Note_on_c, 0, 69, 101
2, 142688, Note_on_c, 1, 53, 105
2, 142688, Note_on_c, 1, 60, 107
2, 142717, Note_on_c, 0, 69, 0
2, 142717, Note_on_c, 1, 53, 0
2, 142717, Note_on_c, 1, 60, 0
2, 142720, Note_on_c, 0, 65, 103
2, 142720, Note_on_c, 0, 72, 104
2, 142749, Note_on_c, 0, 65, 0
2, 142749, Note_on_c, 0, 72, 0
2, 142752, Note_on_c, 0, 69, 109
2, 142752, Note_on_c, 0, 77, 111
2, 142781, Note_on_c, 0, 69, 0
2, 142781, Note_on_c, 0, 77, 0
2, 142784, Note_on_c, 0, 65, 102
2, 142784, Note_on_c, 0, 72, 102
2, 142784, Note_on_c, 0, 81, 115
2, 142900, Note_on_c, 0, 65, 0
2, 142900, Note_on_c, 0, 72, 0
2, 142900, Note_on_c, 0, 81, 0
2, 142912, Note_on_c, 0, 69, 125
2, 142912, Note_on_c, 0, 72, 127
2, 142912, Note_on_c, 0, 77, 127
2, 142912, Note_on_c, 0, 81, 127
2, 142912, Note_on_c, 1, 40, 98
2, 142912, Note_on_c, 1, 45, 100
2, 142912, Note_on_c, 1, 48, 99
2, 142912, Note_on_c, 1, 52, 100
2, 142912, Note_on_c, 1, 53, 99
2, 143028, Note_on_c, 0, 69, 0
2, 143028, Note_on_c, 0, 72, 0
2, 143028, Note_on_c, 0, 77, 0
2, 143028, Note_on_c, 0, 81, 0
2, 143028, Note_on_c, 1, 40, 0
2, 143028, Note_on_c, 1, 45, 0
2, 143028, Note_on_c, 1, 48, 0
2, 143028, Note_on_c, 1, 52, 0
2, 143028, Note_on_c, 1, 53, 0
2, 143040, Note_on_c, 0, 70, 121
2, 143040, Note_on_c, 0, 74, 124
2, 143040, Note_on_c, 0, 77, 124
2, 143040, Note_on_c, 0, 82, 121
2, 143040, Control_c, 1, 64, 127
2, 143040, Control_c, 1, 64, 0
2, 143040, Note_on_c, 1, 38, 100
2, 143040, Note_on_c, 1, 41, 100
2, 143040, Note_on_c, 1, 46, 101
2, 143040, Note_on_c, 1, 50, 102
2, 143156, Note_on_c, 0, 70, 0
2, 143156, Note_on_c, 0, 74, 0
2, 143156, Note_on_c, 0, 77, 0
2, 143156, Note_on_c, 0, 82, 0
2, 143156, Note_on_c, 1, 38, 0
2, 143156, Note_on_c, 1, 41, 0
2, 143156, Note_on_c, 1, 46, 0
2, 143156, Note_on_c, 1, 50, 0
2, 143168, Note_on_c, 0, 65, 72
2, 143168, Note_on_c, 1, 50, 113
2, 143168, Note_on_c, 1, 58, 112
2, 143197, Note_on_c, 0, 65, 0
2, 143197, Note_on_c, 1, 50, 0
2, 143197, Note_on_c, 1, 58, 0
2, 143200, Note_on_c, 0, 70, 105
2, 143200, Note_on_c, 1, 53, 110
2, 143200, Note_on_c, 1, 62, 109
2, 143229, Note_on_c, 0, 70, 0
2, 143229, Note_on_c, 1, 53, 0
2, 143229, Note_on_c, 1, 62, 0
2, 143232, Note_on_c, 0, 65, 107
2, 143232, Note_on_c, 0, 74, 109
2, 143261, Note_on_c, 0, 65, 0
2, 143261, Note_on_c, 0, 74, 0
2, 143264, Note_on_c, 0, 70, 106
2, 143264, Note_on_c, 0, 77, 105
2, 143293, Note_on_c, 0, 70, 0
2, 143293, Note_on_c, 0, 77, 0
2, 143296, Note_on_c, 0, 65, 104
2, 143296, Note_on_c, 0, 74, 106
2, 143296, Note_on_c, 0, 82, 114
2, 143412, Note_on_c, 0, 65, 0
2, 143412, Note_on_c, 0, 74, 0
2, 143412, Note_on_c, 0, 82, 0
2, 143424, Note_on_c, 0, 70, 127
2, 143424, Note_on_c, 0, 74, 126
2, 143424, Note_on_c, 0, 77, 127
2, 143424, Note_on_c, 0, 82, 125
2, 143424, Note_on_c, 1, 38, 101
2, 143424, Note_on_c, 1, 41, 99
2, 143424, Note_on_c, 1, 46, 98
2, 143424, Note_on_c, 1, 50, 98
2, 143424, Control_c, 1, 64, 0
2, 143540, Note_on_c, 0, 70, 0
2, 143540, Note_on_c, 0, 74, 0
2, 143540, Note_on_c, 0, 77, 0
2, 143540, Note_on_c, 0, 82, 0
2, 143540, Note_on_c, 1, 38, 0
2, 143540, Note_on_c, 1, 41, 0
2, 143540, Note_on_c, 1, 46, 0
2, 143540, Note_on_c, 1, 50, 0
2, 143552, Note_on_c, 0, 70, 118
2, 143552, Note_on_c, 0, 76, 115
2, 143552, Note_on_c, 0, 79, 117
2, 143552, Note_on_c, 0, 82, 116
2, 143552, Control_c, 1, 64, 127
2, 143552, Note_on_c, 1, 37, 120
2, 143552, Note_on_c, 1, 43, 119
2, 143552, Note_on_c, 1, 46, 118
2, 143552, Note_on_c, 1, 52, 118
2, 143668, Note_on_c, 0, 70, 0
2, 143668, Note_on_c, 0, 76, 0
2, 143668, Note_on_c, 0, 79, 0
2, 143668, Note_on_c, 0, 82, 0
2, 143668, Note_on_c, 1, 37, 0
2, 143668, Note_on_c, 1, 43, 0
2, 143668, Note_on_c, 1, 46, 0
2, 143668, Note_on_c, 1, 52, 0
2, 143680, Note_on_c, 0, 67, 67
2, 143680, Note_on_c, 1, 52, 111
2, 143680, Note_on_c, 1, 58, 111
2, 143709, Note_on_c, 0, 67, 0
2, 143709, Note_on_c, 1, 52, 0
2, 143709, Note_on_c, 1, 58, 0
2, 143712, Note_on_c, 0, 70, 97
2, 143712, Note_on_c, 1, 55, 112
2, 143712, Note_on_c, 1, 64, 111
2, 143741, Note_on_c, 0, 70, 0
2, 143741, Note_on_c, 1, 55, 0
2, 143741, Note_on_c, 1, 64, 0
2, 143744, Note_on_c, 0, 67, 110
2, 143744, Note_on_c, 0, 76, 111
2, 143773, Note_on_c, 0, 67, 0
2, 143773, Note_on_c, 0, 76, 0
2, 143776, Note_on_c, 0, 70, 108
2, 143776, Note_on_c, 0, 79, 107
2, 143805, Note_on_c, 0, 70, 0
2, 143805, Note_on_c, 0, 79, 0
2, 143808, Note_on_c, 0, 67, 106
2, 143808, Note_on_c, 0, 76, 108
2, 143808, Note_on_c, 0, 82, 101
2, 143924, Note_on_c, 0, 67, 0
2, 143924, Note_on_c, 0, 76, 0
2, 143924, Note_on_c, 0, 82, 0
2, 143936, Note_on_c, 0, 70, 127
2, 143936, Note_on_c, 0, 76, 127
2, 143936, Note_on_c, 0, 79, 127
2, 143936, Note_on_c, 0, 82, 127
2, 143936, Note_on_c, 1, 37, 98
2, 143936, Note_on_c, 1, 43, 100
2, 143936, Note_on_c, 1, 46, 101
2, 143936, Note_on_c, 1, 52, 98
2, 144052, Note_on_c, 0, 70, 0
2, 144052, Note_on_c, 0, 76, 0
2, 144052, Note_on_c, 0, 79, 0
2, 144052, Note_on_c, 0, 82, 0
2, 144052, Note_on_c, 1, 37, 0
2, 144052, Note_on_c, 1, 43, 0
2, 144052, Note_on_c, 1, 46, 0
2, 144052, Note_on_c, 1, 52, 0
2, 144064, Control_c, 0, 64, 127
2, 144064, Note_on_c, 0, 69, 110
2, 144064, Note_on_c, 0, 74, 111
2, 144064, Note_on_c, 0, 78, 111
2, 144064, Note_on_c, 0, 81, 110
2, 144064, Control_c, 1, 64, 127
2, 144064, Control_c, 1, 64, 0
2, 144064, Note_on_c, 1, 36, 106
2, 144064, Note_on_c, 1, 42, 105
2, 144064, Note_on_c, 1, 45, 103
2, 144064, Note_on_c, 1, 50, 106
2, 144180, Note_on_c, 0, 69, 0
2, 144180, Note_on_c, 0, 74, 0
2, 144180, Note_on_c, 0, 78, 0
2, 144180, Note_on_c, 0, 81, 0
2, 144180, Note_on_c, 1, 36, 0
2, 144180, Note_on_c, 1, 42, 0
2, 144180, Note_on_c, 1, 45, 0
2, 144180, Note_on_c, 1, 50, 0
2, 144192, Note_on_c, 0, 66, 69
2, 144192, Note_on_c, 1, 50, 113
2, 144192, Note_on_c, 1, 57, 112
2, 144221, Note_on_c, 0, 66, 0
2, 144221, Note_on_c, 1, 50, 0
2, 144221, Note_on_c, 1, 57, 0
2, 144224, Note_on_c, 0, 69, 99
2, 144224, Note_on_c, 1, 54, 112
2, 144224, Note_on_c, 1, 62, 111
2, 144253, Note_on_c, 0, 69, 0
2, 144253, Note_on_c, 1, 54, 0
2, 144253, Note_on_c, 1, 62, 0
2, 144256, Note_on_c, 0, 66, 107
2, 144256, Note_on_c, 0, 74, 109
2, 144285, Note_on_c, 0, 66, 0
2, 144285, Note_on_c, 0, 74, 0
2, 144288, Note_on_c, 0, 69, 106
2, 144288, Note_on_c, 0, 78, 108
2, 144317, Note_on_c, 0, 69, 0
2, 144317, Note_on_c, 0, 78, 0
2, 144320, Note_on_c, 0, 66, 119
2, 144320, Note_on_c, 0, 74, 116
2, 144320, Note_on_c, 0, 81, 112
2, 144436, Note_on_c, 0, 66, 0
2, 144436, Note_on_c, 0, 74, 0
2, 144448, Note_on_c, 0, 69, 107
2, 144448, Note_on_c, 0, 57, 114
2, 144448, Note_on_c, 0, 62, 113
2, 144448, Note_on_c, 0, 66, 112
2, 144448, Control_c, 0, 64, 0
2, 144448, Note_on_c, 1, 36, 114
2, 144448, Note_on_c, 1, 42, 114
2, 144448, Note_on_c, 1, 45, 111
2, 144448, Note_on_c, 1, 48, 114
2, 144448, Note_on_c, 1, 50, 114
2, 144448, Control_c, 1, 64, 0
2, 144551, Note_on_c, 0, 81, 0
2, 144564, Note_on_c, 0, 57, 0
2, 144564, Note_on_c, 0, 62, 0
2, 144564, Note_on_c, 0, 66, 0
2, 144564, Note_on_c, 1, 36, 0
2, 144564, Note_on_c, 1, 42, 0
2, 144564, Note_on_c, 1, 45, 0
2, 144564, Note_on_c, 1, 48, 0
2, 144564, Note_on_c, 1, 50, 0
2, 144576, Note_on_c, 0, 81, 45
2, 144576, Note_on_c, 0, 69, 47
2, 144576, Note_on_c, 0, 70, 48
2, 144576, Note_on_c, 0, 74, 44
2, 144576, Note_on_c, 0, 57, 112
2, 144576, Note_on_c, 0, 58, 112
2, 144576, Note_on_c, 0, 62, 115
2, 144576, Note_on_c, 1, 43, 46
2, 144576, Note_on_c, 1, 50, 46
2, 144576, Note_on_c, 1, 55, 46
2, 144576, Note_on_c, 1, 57, 47
2, 144576, Note_on_c, 1, 31, 109
2, 144576, Note_on_c, 1, 38, 110
2, 144576, Note_on_c, 1, 43, 109
2, 144576, Note_on_c, 1, 45, 108
2, 144807, Note_on_c, 0, 81, 0
2, 144807, Note_on_c, 0, 69, 0
2, 144807, Note_on_c, 0, 70, 0
2, 144807, Note_on_c, 0, 74, 0
2, 144807, Note_on_c, 0, 69, 0
2, 144807, Note_on_c, 0, 57, 0
2, 144807, Note_on_c, 0, 58, 0
2, 144807, Note_on_c, 0, 62, 0
2, 144807, Note_on_c, 1, 43, 0
2, 144807, Note_on_c, 1, 50, 0
2, 144807, Note_on_c, 1, 55, 0
2, 144807, Note_on_c, 1, 57, 0
2, 144807, Note_on_c, 1, 31, 0
2, 144807, Note_on_c, 1, 38, 0
2, 144807, Note_on_c, 1, 43, 0
2, 144807, Note_on_c, 1, 45, 0
2, 144832, Note_on_c, 0, 79, 44
2, 144832, Note_on_c, 0, 67, 46
2, 144832, Note_on_c, 0, 70, 46
2, 144832, Note_on_c, 0, 74, 45
2, 144832, Note_on_c, 0, 67, 117
2, 144832, Note_on_c, 0, 55, 122
2, 144832, Note_on_c, 0, 58, 122
2, 144832, Note_on_c, 0, 62, 125
2, 144832, Note_on_c, 1, 46, 48
2, 144832, Note_on_c, 1, 50, 49
2, 144832, Note_on_c, 1, 55, 50
2, 144832, Note_on_c, 1, 58, 49
2, 144832, Note_on_c, 1, 34, 125
2, 144832, Note_on_c, 1, 38, 127
2, 144832, Note_on_c, 1, 43, 127
2, 144832, Note_on_c, 1, 46, 127
2, 145063, Note_on_c, 0, 67, 0
2, 145063, Note_on_c, 0, 70, 0
2, 145063, Note_on_c, 0, 74, 0
2, 145063, Note_on_c, 0, 55, 0
2, 145063, Note_on_c, 0, 58, 0
2, 145063, Note_on_c, 0, 62, 0
2, 145063, Note_on_c, 1, 46, 0
2, 145063, Note_on_c, 1, 50, 0
2, 145063, Note_on_c, 1, 55, 0
2, 145063, Note_on_c, 1, 58, 0
2, 145063, Note_on_c, 1, 34, 0
2, 145063, Note_on_c, 1, 38, 0
2, 145063, Note_on_c, 1, 43, 0
2, 145063, Note_on_c, 1, 46, 0
2, 145088, Note_on_c, 0, 67, 44
2, 145088, Note_on_c, 0, 70, 45
2, 145088, Note_on_c, 0, 73, 45
2, 145088, Note_on_c, 0, 55, 121
2, 145088, Note_on_c, 0, 58, 119
2, 145088, Note_on_c, 0, 61, 118
2, 145088, Note_on_c, 1, 40, 40
2, 145088, Note_on_c, 1, 46, 40
2, 145088, Note_on_c, 1, 49, 39
2, 145088, Note_on_c, 1, 52, 39
2, 145088, Note_on_c, 1, 28, 107
2, 145088, Note_on_c, 1, 34, 105
2, 145088, Note_on_c, 1, 37, 105
2, 145088, Note_on_c, 1, 40, 107
2, 145294, Note_on_c, 0, 79, 0
2, 145294, Note_on_c, 0, 67, 0
2, 145319, Note_on_c, 0, 67, 0
2, 145319, Note_on_c, 0, 70, 0
2, 145319, Note_on_c, 0, 73, 0
2, 145319, Note_on_c, 0, 55, 0
2, 145319, Note_on_c, 0, 58, 0
2, 145319, Note_on_c, 0, 61, 0
2, 145319, Note_on_c, 1, 40, 0
2, 145319, Note_on_c, 1, 46, 0
2, 145319, Note_on_c, 1, 49, 0
2, 145319, Note_on_c, 1, 52, 0
2, 145319, Note_on_c, 1, 28, 0
2, 145319, Note_on_c, 1, 34, 0
2, 145319, Note_on_c, 1, 37, 0
2, 145319, Note_on_c, 1, 40, 0
2, 145344, Note_on_c, 0, 77, 42
2, 145344, Note_on_c, 0, 65, 51
2, 145344, Note_on_c, 0, 69, 51
2, 145344, Note_on_c, 0, 74, 49
2, 145344, Note_on_c, 0, 65, 118
2, 145344, Note_on_c, 0, 53, 126
2, 145344, Note_on_c, 0, 57, 127
2, 145344, Note_on_c, 0, 62, 126
2, 145344, Note_on_c, 1, 41, 49
2, 145344, Note_on_c, 1, 45, 47
2, 145344, Note_on_c, 1, 50, 48
2, 145344, Note_on_c, 1, 53, 51
2, 145344, Note_on_c, 1, 29, 126
2, 145344, Note_on_c, 1, 33, 127
2, 145344, Note_on_c, 1, 38, 126
2, 145344, Note_on_c, 1, 41, 127
2, 145575, Note_on_c, 0, 77, 0
2, 145575, Note_on_c, 0, 65, 0
2, 145575, Note_on_c, 0, 69, 0
2, 145575, Note_on_c, 0, 74, 0
2, 145575, Note_on_c, 0, 65, 0
2, 145575, Note_on_c, 0, 53, 0
2, 145575, Note_on_c, 0, 57, 0
2, 145575, Note_on_c, 0, 62, 0
2, 145575, Note_on_c, 1, 41, 0
2, 145575, Note_on_c, 1, 45, 0
2, 145575, Note_on_c, 1, 50, 0
2, 145575, Note_on_c, 1, 53, 0
2, 145575, Note_on_c, 1, 29, 0
2, 145575, Note_on_c, 1, 33, 0
2, 145575, Note_on_c, 1, 38, 0
2, 145575, Note_on_c, 1, 41, 0
2, 145600, Note_on_c, 0, 76, 50
2, 145600, Note_on_c, 0, 62, 52
2, 145600, Note_on_c, 0, 64, 50
2, 145600, Note_on_c, 0, 69, 51
2, 145600, Note_on_c, 0, 74, 50
2, 145600, Note_on_c, 0, 64, 121
2, 145600, Note_on_c, 0, 50, 127
2, 145600, Note_on_c, 0, 52, 127
2, 145600, Note_on_c, 0, 57, 127
2, 145600, Note_on_c, 0, 62, 127
2, 145600, Note_on_c, 1, 57, 56
2, 145600, Note_on_c, 1, 45, 45
2, 145600, Note_on_c, 1, 52, 46
2, 145600, Note_on_c, 1, 45, 127
2, 145600, Note_on_c, 1, 33, 92
2, 145600, Note_on_c, 1, 40, 94
2, 145831, Note_on_c, 0, 62, 0
2, 145831, Note_on_c, 0, 64, 0
2, 145831, Note_on_c, 0, 69, 0
2, 145831, Note_on_c, 0, 74, 0
2, 145831, Note_on_c, 0, 50, 0
2, 145831, Note_on_c, 0, 52, 0
2, 145831, Note_on_c, 0, 57, 0
2, 145831, Note_on_c, 0, 62, 0
2, 145831, Note_on_c, 1, 57, 0
2, 145831, Note_on_c, 1, 45, 0
2, 145856, Note_on_c, 0, 64, 47
2, 145856, Note_on_c, 0, 69, 47
2, 145856, Note_on_c, 0, 72, 45
2, 145856, Note_on_c, 0, 52, 117
2, 145856, Note_on_c, 0, 57, 118
2, 145856, Note_on_c, 0, 60, 118
2, 145856, Note_on_c, 1, 52, 53
2, 145856, Note_on_c, 1, 57, 51
2, 145856, Note_on_c, 1, 60, 51
2, 145856, Note_on_c, 1, 40, 126
2, 145856, Note_on_c, 1, 45, 127
2, 145856, Note_on_c, 1, 48, 127
2, 146062, Note_on_c, 0, 76, 0
2, 146062, Note_on_c, 0, 64, 0
2, 146062, Note_on_c, 1, 45, 0
2, 146062, Note_on_c, 1, 52, 0
2, 146062, Note_on_c, 1, 33, 0
2, 146062, Note_on_c, 1, 40, 0
2, 146087, Note_on_c, 0, 64, 0
2, 146087, Note_on_c, 0, 69, 0
2, 146087, Note_on_c, 0, 72, 0
2, 146087, Note_on_c, 0, 52, 0
2, 146087, Note_on_c, 0, 57, 0
2, 146087, Note_on_c, 0, 60, 0
2, 146087, Note_on_c, 1, 52, 0
2, 146087, Note_on_c, 1, 57, 0
2, 146087, Note_on_c, 1, 60, 0
2, 146087, Note_on_c, 1, 40, 0
2, 146087, Note_on_c, 1, 45, 0
2, 146087, Note_on_c, 1, 48, 0
2, 146112, Note_on_c, 0, 74, 42
2, 146112, Note_on_c, 0, 62, 47
2, 146112, Note_on_c, 0, 69, 46
2, 146112, Note_on_c, 0, 72, 47
2, 146112, Note_on_c, 0, 62, 118
2, 146112, Note_on_c, 0, 50, 124
2, 146112, Note_on_c, 0, 57, 125
2, 146112, Note_on_c, 0, 60, 125
2, 146112, Note_on_c, 1, 60, 46
2, 146112, Note_on_c, 1, 46, 49
2, 146112, Note_on_c, 1, 50, 48
2, 146112, Note_on_c, 1, 53, 47
2, 146112, Note_on_c, 1, 48, 127
2, 146112, Note_on_c, 1, 34, 127
2, 146112, Note_on_c, 1, 38, 127
2, 146112, Note_on_c, 1, 41, 127
2, 146343, Note_on_c, 0, 62, 0
2, 146343, Note_on_c, 0, 69, 0
2, 146343, Note_on_c, 0, 72, 0
2, 146343, Note_on_c, 0, 50, 0
2, 146343, Note_on_c, 0, 57, 0
2, 146343, Note_on_c, 0, 60, 0
2, 146343, Note_on_c, 1, 60, 0
2, 146343, Note_on_c, 1, 46, 0
2, 146343, Note_on_c, 1, 50, 0
2, 146343, Note_on_c, 1, 53, 0
2, 146343, Note_on_c, 1, 48, 0
2, 146343, Note_on_c, 1, 34, 0
2, 146343, Note_on_c, 1, 38, 0
2, 146343, Note_on_c, 1, 41, 0
2, 146368, Note_on_c, 0, 62, 45
2, 146368, Note_on_c, 0, 67, 46
2, 146368, Note_on_c, 0, 70, 46
2, 146368, Note_on_c, 0, 50, 116
2, 146368, Note_on_c, 0, 55, 117
2, 146368, Note_on_c, 0, 58, 119
2, 146368, Note_on_c, 1, 58, 47
2, 146368, Note_on_c, 1, 43, 44
2, 146368, Note_on_c, 1, 46, 41
2, 146368, Note_on_c, 1, 50, 42
2, 146368, Note_on_c, 1, 46, 118
2, 146368, Note_on_c, 1, 31, 115
2, 146368, Note_on_c, 1, 34, 116
2, 146368, Note_on_c, 1, 38, 113
2, 146574, Note_on_c, 0, 74, 0
2, 146599, Note_on_c, 0, 67, 0
2, 146599, Note_on_c, 0, 70, 0
2, 146599, Note_on_c, 0, 55, 0
2, 146599, Note_on_c, 0, 58, 0
2, 146599, Note_on_c, 1, 58, 0
2, 146599, Note_on_c, 1, 43, 0
2, 146599, Note_on_c, 1, 46, 0
2, 146599, Note_on_c, 1, 50, 0
2, 146599, Note_on_c, 1, 46, 0
2, 146599, Note_on_c, 1, 31, 0
2, 146599, Note_on_c, 1, 34, 0
2, 146599, Note_on_c, 1, 38, 0
2, 146624, Note_on_c, 0, 74, 49
2, 146624, Note_on_c, 0, 57, 47
2, 146624, Note_on_c, 0, 65, 48
2, 146624, Note_on_c, 0, 69, 48
2, 146624, Note_on_c, 0, 45, 123
2, 146624, Note_on_c, 0, 53, 123
2, 146624, Note_on_c, 0, 57, 120
2, 146624, Note_on_c, 1, 50, 42
2, 146624, Note_on_c, 1, 38, 42
2, 146624, Note_on_c, 1, 41, 41
2, 146624, Note_on_c, 1, 45, 43
2, 146624, Note_on_c, 1, 38, 104
2, 146624, Note_on_c, 1, 26, 111
2, 146624, Note_on_c, 1, 29, 111
2, 146624, Note_on_c, 1, 33, 109
2, 147598, Note_on_c, 0, 74, 0
2, 147598, Note_on_c, 0, 57, 0
2, 147598, Note_on_c, 0, 62, 0
2, 147598, Note_on_c, 0, 65, 0
2, 147598, Note_on_c, 0, 69, 0
2, 147598, Note_on_c, 0, 62, 0
2, 147598, Note_on_c, 0, 45, 0
2, 147598, Note_on_c, 0, 50, 0
2, 147598, Note_on_c, 0, 53, 0
2, 147598, Note_on_c, 0, 57, 0
2, 147598, Note_on_c, 1, 50, 0
2, 147598, Note_on_c, 1, 38, 0
2, 147598, Note_on_c, 1, 41, 0
2, 147598, Note_on_c, 1, 45, 0
2, 147598, Note_on_c, 1, 38, 0
2, 147598, Note_on_c, 1, 26, 0
2, 147598, Note_on_c, 1, 29, 0
2, 147598, Note_on_c, 1, 33, 0
2, 147599, End_track
0, 0, End_of_file