0, 0, Header, 1, 4, 120
1, 0, Start_track
1, 0, Time_signature, 9, 3, 12, 8
1, 0, Key_signature, 1, "major"
1, 0, Tempo, 495868
1, 0, Marker_t, "tpnvnt10.pc"
1, 0, Marker_t, "Staff:0 "
1, 15903, Tempo, 502092
1, 15920, Tempo, 504202
1, 16046, Tempo, 506329
1, 16093, Tempo, 510638
1, 16103, Tempo, 512821
1, 16113, Tempo, 515021
1, 16126, Tempo, 519481
1, 16140, Tempo, 524017
1, 16173, Tempo, 526316
1, 16180, Tempo, 528634
1, 16190, Tempo, 530973
1, 16243, Tempo, 538117
1, 16296, Tempo, 547945
1, 16330, Tempo, 552995
1, 16343, Tempo, 558140
1, 16383, Tempo, 568720
1, 16396, Tempo, 576923
1, 16403, Tempo, 579710
1, 16413, Tempo, 582524
1, 16416, Tempo, 585366
1, 16420, Tempo, 588235
1, 16430, Tempo, 591133
1, 16436, Tempo, 594059
1, 16443, Tempo, 597015
1, 16483, Tempo, 603015
1, 16523, Tempo, 612245
1, 16533, Tempo, 615385
1, 16543, Tempo, 618557
1, 16553, Tempo, 621762
1, 16556, Tempo, 625000
1, 16566, Tempo, 628272
1, 16570, Tempo, 631579
1, 16606, Tempo, 638298
1, 16680, Tempo, 645161
1, 16740, Tempo, 652174
1, 16750, Tempo, 655738
1, 16763, Tempo, 659341
1, 16773, Tempo, 666667
1, 16780, Tempo, 670391
1, 16790, Tempo, 674157
1, 16823, Tempo, 681818
1, 16833, Tempo, 685714
1, 16840, Tempo, 689655
1, 16846, Tempo, 693642
1, 16853, Tempo, 697674
1, 16893, Tempo, 701754
1, 16940, Tempo, 710059
1, 16973, Tempo, 714286
1, 16980, Tempo, 718563
1, 16996, Tempo, 722892
1, 17000, Tempo, 727273
1, 17006, Tempo, 731707
1, 17010, Tempo, 736196
1, 17016, Tempo, 740741
1, 17020, Tempo, 745342
1, 17033, Tempo, 750000
1, 17046, Tempo, 736196
1, 17056, Tempo, 740741
1, 17063, Tempo, 750000
1, 17066, Tempo, 759494
1, 17070, Tempo, 662983
1, 17070, End_track
2, 0, Start_track
2, 0, MIDI_port, 0
2, 0, Title_t, "PIANO"
2, 0, Program_c, 0, 0
2, 0, Control_c, 0, 7, 100
2, 0, Note_on_c, 0, 67, 64
2, 20, Control_c, 0, 7, 109
2, 60, Note_on_c, 0, 67, 0
2, 60, Note_on_c, 0, 71, 64
2, 110, Control_c, 0, 7, 108
2, 120, Note_on_c, 0, 71, 0
2, 120, Note_on_c, 0, 74, 64
2, 180, Note_on_c, 0, 74, 0
2, 180, Note_on_c, 0, 71, 64
2, 240, Note_on_c, 0, 71, 0
2, 240, Note_on_c, 0, 67, 64
2, 300, Note_on_c, 0, 67, 0
2, 300, Note_on_c, 0, 74, 64
2, 360, Note_on_c, 0, 74, 0
2, 360, Note_on_c, 0, 71, 64
2, 420, Note_on_c, 0, 71, 0
2, 420, Note_on_c, 0, 67, 64
2, 480, Note_on_c, 0, 67, 0
2, 480, Note_on_c, 0, 79, 64
2, 540, Note_on_c, 0, 79, 0
2, 540, Note_on_c, 0, 78, 64
2, 555, Note_on_c, 0, 78, 0
2, 555, Note_on_c, 0, 79, 64
2, 570, Note_on_c, 0, 79, 0
2, 570, Note_on_c, 0, 78, 64
2, 660, Note_on_c, 0, 78, 0
2, 660, Note_on_c, 0, 74, 64
2, 720, Note_on_c, 0, 74, 0
2, 720, Note_on_c, 0, 81, 64
2, 780, Note_on_c, 0, 81, 0
2, 780, Note_on_c, 0, 78, 64
2, 840, Note_on_c, 0, 78, 0
2, 840, Note_on_c, 0, 74, 64
2, 900, Note_on_c, 0, 74, 0
2, 900, Note_on_c, 0, 81, 64
2, 960, Note_on_c, 0, 81, 0
2, 960, Note_on_c, 0, 78, 64
2, 1020, Note_on_c, 0, 78, 0
2, 1020, Note_on_c, 0, 74, 64
2, 1080, Note_on_c, 0, 74, 0
2, 1080, Note_on_c, 0, 79, 64
2, 1140, Note_on_c, 0, 79, 0
2, 1140, Note_on_c, 0, 74, 64
2, 1200, Note_on_c, 0, 74, 0
2, 1200, Note_on_c, 0, 71, 64
2, 1260, Note_on_c, 0, 71, 0
2, 1260, Note_on_c, 0, 77, 64
2, 1320, Note_on_c, 0, 77, 0
2, 1320, Note_on_c, 0, 74, 64
2, 1380, Note_on_c, 0, 74, 0
2, 1380, Note_on_c, 0, 71, 64
2, 1440, Note_on_c, 0, 71, 0
2, 1440, Note_on_c, 0, 77, 64
2, 1500, Note_on_c, 0, 77, 0
2, 1500, Note_on_c, 0, 74, 64
2, 1560, Note_on_c, 0, 74, 0
2, 1560, Note_on_c, 0, 71, 64
2, 1620, Note_on_c, 0, 71, 0
2, 1620, Note_on_c, 0, 76, 64
2, 1680, Note_on_c, 0, 76, 0
2, 1680, Note_on_c, 0, 72, 64
2, 1740, Note_on_c, 0, 72, 0
2, 1740, Note_on_c, 0, 69, 64
2, 1800, Note_on_c, 0, 69, 0
2, 1800, Note_on_c, 0, 66, 64
2, 1860, Note_on_c, 0, 66, 0
2, 1860, Note_on_c, 0, 69, 64
2, 1920, Note_on_c, 0, 69, 0
2, 1920, Note_on_c, 0, 72, 64
2, 1980, Note_on_c, 0, 72, 0
2, 1980, Note_on_c, 0, 76, 64
2, 2040, Note_on_c, 0, 76, 0
2, 2040, Note_on_c, 0, 74, 64
2, 2100, Note_on_c, 0, 74, 0
2, 2100, Note_on_c, 0, 72, 64
2, 2160, Note_on_c, 0, 72, 0
2, 2160, Note_on_c, 0, 74, 64
2, 2220, Note_on_c, 0, 74, 0
2, 2220, Note_on_c, 0, 71, 64
2, 2280, Note_on_c, 0, 71, 0
2, 2280, Note_on_c, 0, 67, 64
2, 2340, Note_on_c, 0, 67, 0
2, 2340, Note_on_c, 0, 64, 64
2, 2400, Note_on_c, 0, 64, 0
2, 2400, Note_on_c, 0, 67, 64
2, 2460, Note_on_c, 0, 67, 0
2, 2460, Note_on_c, 0, 71, 64
2, 2520, Note_on_c, 0, 71, 0
2, 2520, Note_on_c, 0, 74, 64
2, 2580, Note_on_c, 0, 74, 0
2, 2580, Note_on_c, 0, 72, 64
2, 2640, Note_on_c, 0, 72, 0
2, 2640, Note_on_c, 0, 71, 64
2, 2700, Note_on_c, 0, 71, 0
2, 2700, Note_on_c, 0, 72, 64
2, 2760, Note_on_c, 0, 72, 0
2, 2760, Note_on_c, 0, 69, 64
2, 2820, Note_on_c, 0, 69, 0
2, 2820, Note_on_c, 0, 66, 64
2, 2880, Note_on_c, 0, 66, 0
2, 2880, Note_on_c, 0, 62, 64
2, 2940, Note_on_c, 0, 62, 0
2, 2940, Note_on_c, 0, 66, 64
2, 3000, Note_on_c, 0, 66, 0
2, 3000, Note_on_c, 0, 69, 64
2, 3060, Note_on_c, 0, 69, 0
2, 3060, Note_on_c, 0, 72, 64
2, 3120, Note_on_c, 0, 72, 0
2, 3120, Note_on_c, 0, 71, 64
2, 3180, Note_on_c, 0, 71, 0
2, 3180, Note_on_c, 0, 69, 64
2, 3240, Note_on_c, 0, 69, 0
2, 3240, Note_on_c, 0, 71, 64
2, 3300, Note_on_c, 0, 71, 0
2, 3300, Note_on_c, 0, 72, 64
2, 3360, Note_on_c, 0, 72, 0
2, 3360, Note_on_c, 0, 74, 64
2, 3420, Note_on_c, 0, 74, 0
2, 3420, Note_on_c, 0, 76, 64
2, 3480, Note_on_c, 0, 76, 0
2, 3480, Note_on_c, 0, 71, 64
2, 3540, Note_on_c, 0, 71, 0
2, 3540, Note_on_c, 0, 79, 64
2, 3600, Note_on_c, 0, 79, 0
2, 3600, Note_on_c, 0, 76, 64
2, 3660, Note_on_c, 0, 76, 0
2, 3660, Note_on_c, 0, 71, 64
2, 3720, Note_on_c, 0, 71, 0
2, 3720, Note_on_c, 0, 79, 64
2, 3780, Note_on_c, 0, 79, 0
2, 3780, Note_on_c, 0, 69, 64
2, 3840, Note_on_c, 0, 69, 0
2, 3840, Note_on_c, 0, 71, 64
2, 3900, Note_on_c, 0, 71, 0
2, 3900, Note_on_c, 0, 73, 64
2, 3960, Note_on_c, 0, 73, 0
2, 3960, Note_on_c, 0, 74, 64
2, 4020, Note_on_c, 0, 74, 0
2, 4020, Note_on_c, 0, 69, 64
2, 4080, Note_on_c, 0, 69, 0
2, 4080, Note_on_c, 0, 78, 64
2, 4140, Note_on_c, 0, 78, 0
2, 4140, Note_on_c, 0, 74, 64
2, 4200, Note_on_c, 0, 74, 0
2, 4200, Note_on_c, 0, 69, 64
2, 4260, Note_on_c, 0, 69, 0
2, 4260, Note_on_c, 0, 79, 64
2, 4320, Note_on_c, 0, 79, 0
2, 4320, Note_on_c, 0, 67, 64
2, 4335, Note_on_c, 0, 67, 0
2, 4337, Note_on_c, 0, 66, 64
2, 4350, Note_on_c, 0, 67, 64
2, 4352, Note_on_c, 0, 66, 0
2, 4560, Note_on_c, 0, 67, 0
2, 4560, Note_on_c, 0, 69, 64
2, 4620, Note_on_c, 0, 69, 0
2, 4620, Note_on_c, 0, 67, 64
2, 4680, Note_on_c, 0, 67, 0
2, 4680, Note_on_c, 0, 66, 64
2, 4740, Note_on_c, 0, 66, 0
2, 4741, Note_on_c, 0, 67, 64
2, 4800, Note_on_c, 0, 64, 64
2, 4801, Note_on_c, 0, 67, 0
2, 4860, Note_on_c, 0, 64, 0
2, 4860, Note_on_c, 0, 66, 64
2, 4920, Note_on_c, 0, 66, 0
2, 4920, Note_on_c, 0, 67, 64
2, 4980, Note_on_c, 0, 67, 0
2, 4980, Note_on_c, 0, 66, 64
2, 5040, Note_on_c, 0, 66, 0
2, 5040, Note_on_c, 0, 64, 64
2, 5100, Note_on_c, 0, 64, 0
2, 5100, Note_on_c, 0, 66, 64
2, 5160, Note_on_c, 0, 66, 0
2, 5160, Note_on_c, 0, 62, 64
2, 5220, Note_on_c, 0, 62, 0
2, 5220, Note_on_c, 0, 69, 64
2, 5280, Note_on_c, 0, 69, 0
2, 5280, Note_on_c, 0, 71, 64
2, 5340, Note_on_c, 0, 71, 0
2, 5340, Note_on_c, 0, 72, 64
2, 5400, Note_on_c, 0, 72, 0
2, 5400, Note_on_c, 0, 71, 64
2, 5460, Note_on_c, 0, 71, 0
2, 5460, Note_on_c, 0, 72, 64
2, 5520, Note_on_c, 0, 72, 0
2, 5520, Note_on_c, 0, 71, 64
2, 5580, Note_on_c, 0, 71, 0
2, 5580, Note_on_c, 0, 69, 64
2, 5640, Note_on_c, 0, 69, 0
2, 5640, Note_on_c, 0, 71, 64
2, 5700, Note_on_c, 0, 71, 0
2, 5700, Note_on_c, 0, 67, 64
2, 5760, Note_on_c, 0, 67, 0
2, 5760, Note_on_c, 0, 76, 64
2, 5820, Note_on_c, 0, 76, 0
2, 5820, Note_on_c, 0, 78, 64
2, 5880, Note_on_c, 0, 78, 0
2, 5880, Note_on_c, 0, 79, 64
2, 5940, Note_on_c, 0, 79, 0
2, 5940, Note_on_c, 0, 73, 64
2, 5940, Control_c, 0, 7, 111
2, 5960, Control_c, 0, 7, 110
2, 5970, Control_c, 0, 7, 109
2, 5980, Control_c, 0, 7, 108
2, 6000, Note_on_c, 0, 73, 0
2, 6000, Note_on_c, 0, 74, 64
2, 6000, Control_c, 0, 7, 107
2, 6010, Control_c, 0, 7, 106
2, 6020, Control_c, 0, 7, 105
2, 6040, Control_c, 0, 7, 104
2, 6050, Control_c, 0, 7, 103
2, 6060, Note_on_c, 0, 74, 0
2, 6060, Note_on_c, 0, 73, 64
2, 6060, Control_c, 0, 7, 102
2, 6070, Control_c, 0, 7, 101
2, 6090, Control_c, 0, 7, 100
2, 6100, Control_c, 0, 7, 99
2, 6110, Control_c, 0, 7, 98
2, 6120, Note_on_c, 0, 73, 0
2, 6120, Note_on_c, 0, 71, 64
2, 6130, Control_c, 0, 7, 97
2, 6140, Control_c, 0, 7, 96
2, 6150, Control_c, 0, 7, 95
2, 6160, Control_c, 0, 7, 94
2, 6180, Note_on_c, 0, 71, 0
2, 6180, Note_on_c, 0, 73, 64
2, 6180, Control_c, 0, 7, 93
2, 6190, Control_c, 0, 7, 92
2, 6200, Control_c, 0, 7, 91
2, 6220, Control_c, 0, 7, 90
2, 6230, Control_c, 0, 7, 89
2, 6240, Note_on_c, 0, 73, 0
2, 6240, Note_on_c, 0, 69, 64
2, 6240, Control_c, 0, 7, 88
2, 6250, Control_c, 0, 7, 87
2, 6270, Control_c, 0, 7, 86
2, 6280, Control_c, 0, 7, 85
2, 6290, Control_c, 0, 7, 84
2, 6300, Note_on_c, 0, 69, 0
2, 6300, Note_on_c, 0, 79, 64
2, 6310, Control_c, 0, 7, 83
2, 6320, Control_c, 0, 7, 82
2, 6330, Control_c, 0, 7, 81
2, 6340, Control_c, 0, 7, 80
2, 6360, Note_on_c, 0, 79, 0
2, 6360, Note_on_c, 0, 81, 64
2, 6360, Control_c, 0, 7, 79
2, 6370, Control_c, 0, 7, 78
2, 6380, Control_c, 0, 7, 77
2, 6400, Control_c, 0, 7, 76
2, 6410, Control_c, 0, 7, 75
2, 6420, Note_on_c, 0, 81, 0
2, 6420, Note_on_c, 0, 83, 64
2, 6420, Control_c, 0, 7, 74
2, 6430, Control_c, 0, 7, 73
2, 6480, Note_on_c, 0, 83, 0
2, 6480, Note_on_c, 0, 81, 64
2, 6540, Note_on_c, 0, 81, 0
2, 6540, Note_on_c, 0, 79, 64
2, 6600, Note_on_c, 0, 79, 0
2, 6600, Note_on_c, 0, 78, 64
2, 6660, Note_on_c, 0, 78, 0
2, 6660, Note_on_c, 0, 76, 64
2, 6720, Note_on_c, 0, 76, 0
2, 6720, Note_on_c, 0, 78, 64
2, 6780, Note_on_c, 0, 78, 0
2, 6780, Note_on_c, 0, 74, 64
2, 6840, Note_on_c, 0, 74, 0
2, 6840, Note_on_c, 0, 69, 64
2, 6900, Note_on_c, 0, 69, 0
2, 6900, Note_on_c, 0, 74, 64
2, 6960, Note_on_c, 0, 74, 0
2, 6960, Note_on_c, 0, 73, 64
2, 7020, Note_on_c, 0, 73, 0
2, 7020, Note_on_c, 0, 74, 64
2, 7035, Note_on_c, 0, 74, 0
2, 7036, Note_on_c, 0, 72, 64
2, 7050, Note_on_c, 0, 74, 64
2, 7051, Note_on_c, 0, 72, 0
2, 7200, Note_on_c, 0, 74, 0
2, 7560, Note_on_c, 0, 69, 64
2, 7620, Note_on_c, 0, 69, 0
2, 7620, Note_on_c, 0, 73, 64
2, 7680, Note_on_c, 0, 73, 0
2, 7680, Note_on_c, 0, 76, 64
2, 7740, Note_on_c, 0, 76, 0
2, 7740, Note_on_c, 0, 73, 64
2, 7800, Note_on_c, 0, 73, 0
2, 7800, Note_on_c, 0, 69, 64
2, 7860, Note_on_c, 0, 69, 0
2, 7860, Note_on_c, 0, 76, 64
2, 7920, Note_on_c, 0, 76, 0
2, 7920, Note_on_c, 0, 73, 64
2, 7980, Note_on_c, 0, 73, 0
2, 7980, Note_on_c, 0, 69, 64
2, 8040, Note_on_c, 0, 69, 0
2, 8040, Note_on_c, 0, 79, 64
2, 8100, Note_on_c, 0, 79, 0
2, 8100, Note_on_c, 0, 78, 64
2, 8100, Control_c, 0, 7, 73
2, 8115, Note_on_c, 0, 78, 0
2, 8115, Note_on_c, 0, 79, 64
2, 8130, Note_on_c, 0, 79, 0
2, 8130, Note_on_c, 0, 78, 64
2, 8160, Control_c, 0, 7, 74
2, 8210, Control_c, 0, 7, 75
2, 8270, Control_c, 0, 7, 76
2, 8280, Note_on_c, 0, 78, 0
2, 8280, Note_on_c, 0, 76, 64
2, 8320, Control_c, 0, 7, 77
2, 8380, Control_c, 0, 7, 78
2, 8430, Control_c, 0, 7, 79
2, 8460, Note_on_c, 0, 76, 0
2, 8480, Control_c, 0, 7, 80
2, 8540, Control_c, 0, 7, 81
2, 8590, Control_c, 0, 7, 82
2, 8640, Note_on_c, 0, 67, 64
2, 8650, Control_c, 0, 7, 83
2, 8700, Note_on_c, 0, 67, 0
2, 8700, Note_on_c, 0, 71, 64
2, 8700, Control_c, 0, 7, 84
2, 8760, Note_on_c, 0, 71, 0
2, 8760, Note_on_c, 0, 74, 64
2, 8760, Control_c, 0, 7, 85
2, 8810, Control_c, 0, 7, 86
2, 8820, Note_on_c, 0, 74, 0
2, 8820, Note_on_c, 0, 71, 64
2, 8860, Control_c, 0, 7, 87
2, 8880, Note_on_c, 0, 71, 0
2, 8880, Note_on_c, 0, 67, 64
2, 8920, Control_c, 0, 7, 88
2, 8940, Note_on_c, 0, 67, 0
2, 8940, Note_on_c, 0, 74, 64
2, 8970, Control_c, 0, 7, 89
2, 9000, Note_on_c, 0, 74, 0
2, 9000, Note_on_c, 0, 71, 64
2, 9030, Control_c, 0, 7, 90
2, 9060, Note_on_c, 0, 71, 0
2, 9060, Note_on_c, 0, 67, 64
2, 9080, Control_c, 0, 7, 91
2, 9120, Note_on_c, 0, 67, 0
2, 9120, Note_on_c, 0, 77, 64
2, 9140, Control_c, 0, 7, 92
2, 9180, Note_on_c, 0, 77, 0
2, 9180, Note_on_c, 0, 76, 64
2, 9190, Control_c, 0, 7, 93
2, 9236, Note_on_c, 0, 72, 64
2, 9240, Note_on_c, 0, 76, 0
2, 9240, Control_c, 0, 7, 94
2, 9296, Note_on_c, 0, 72, 0
2, 9300, Note_on_c, 0, 69, 64
2, 9300, Control_c, 0, 7, 95
2, 9350, Control_c, 0, 7, 96
2, 9360, Note_on_c, 0, 69, 0
2, 9360, Note_on_c, 0, 81, 64
2, 9410, Control_c, 0, 7, 97
2, 9420, Note_on_c, 0, 81, 0
2, 9420, Note_on_c, 0, 76, 64
2, 9460, Control_c, 0, 7, 98
2, 9480, Note_on_c, 0, 76, 0
2, 9480, Note_on_c, 0, 72, 64
2, 9520, Control_c, 0, 7, 99
2, 9540, Note_on_c, 0, 72, 0
2, 9540, Note_on_c, 0, 69, 64
2, 9570, Control_c, 0, 7, 100
2, 9600, Note_on_c, 0, 69, 0
2, 9600, Note_on_c, 0, 71, 64
2, 9620, Control_c, 0, 7, 101
2, 9660, Note_on_c, 0, 71, 0
2, 9660, Note_on_c, 0, 72, 64
2, 9680, Control_c, 0, 7, 102
2, 9720, Note_on_c, 0, 72, 0
2, 9720, Note_on_c, 0, 74, 64
2, 9730, Control_c, 0, 7, 103
2, 9780, Note_on_c, 0, 74, 0
2, 9780, Note_on_c, 0, 71, 64
2, 9790, Control_c, 0, 7, 104
2, 9840, Note_on_c, 0, 71, 0
2, 9840, Note_on_c, 0, 67, 64
2, 9840, Control_c, 0, 7, 105
2, 9900, Note_on_c, 0, 67, 0
2, 9900, Note_on_c, 0, 79, 64
2, 9900, Control_c, 0, 7, 106
2, 9950, Control_c, 0, 7, 107
2, 9960, Note_on_c, 0, 79, 0
2, 9960, Note_on_c, 0, 74, 64
2, 10000, Control_c, 0, 7, 108
2, 10020, Note_on_c, 0, 74, 0
2, 10020, Note_on_c, 0, 71, 64
2, 10060, Control_c, 0, 7, 109
2, 10080, Note_on_c, 0, 71, 0
2, 10080, Note_on_c, 0, 67, 64
2, 10110, Control_c, 0, 7, 110
2, 10140, Note_on_c, 0, 67, 0
2, 10140, Note_on_c, 0, 71, 64
2, 10170, Control_c, 0, 7, 111
2, 10200, Note_on_c, 0, 71, 0
2, 10200, Note_on_c, 0, 74, 64
2, 10220, Control_c, 0, 7, 112
2, 10260, Note_on_c, 0, 74, 0
2, 10260, Note_on_c, 0, 72, 64
2, 10270, Control_c, 0, 7, 113
2, 10275, Note_on_c, 0, 72, 0
2, 10275, Note_on_c, 0, 74, 64
2, 10290, Note_on_c, 0, 74, 0
2, 10290, Note_on_c, 0, 72, 64
2, 10305, Note_on_c, 0, 72, 0
2, 10305, Note_on_c, 0, 74, 64
2, 10320, Note_on_c, 0, 74, 0
2, 10320, Note_on_c, 0, 72, 64
2, 10335, Note_on_c, 0, 72, 0
2, 10335, Note_on_c, 0, 74, 64
2, 10350, Note_on_c, 0, 74, 0
2, 10350, Note_on_c, 0, 72, 64
2, 10365, Note_on_c, 0, 72, 0
2, 10365, Note_on_c, 0, 74, 64
2, 10380, Note_on_c, 0, 74, 0
2, 10380, Note_on_c, 0, 72, 64
2, 10395, Note_on_c, 0, 72, 0
2, 10395, Note_on_c, 0, 74, 64
2, 10410, Note_on_c, 0, 74, 0
2, 10410, Note_on_c, 0, 72, 64
2, 10425, Note_on_c, 0, 72, 0
2, 10425, Note_on_c, 0, 74, 64
2, 10440, Note_on_c, 0, 74, 0
2, 10440, Note_on_c, 0, 72, 64
2, 10455, Note_on_c, 0, 72, 0
2, 10455, Note_on_c, 0, 74, 64
2, 10470, Note_on_c, 0, 74, 0
2, 10470, Note_on_c, 0, 72, 64
2, 10485, Note_on_c, 0, 72, 0
2, 10485, Note_on_c, 0, 74, 64
2, 10500, Note_on_c, 0, 74, 0
2, 10500, Note_on_c, 0, 72, 64
2, 10515, Note_on_c, 0, 72, 0
2, 10515, Note_on_c, 0, 74, 64
2, 10530, Note_on_c, 0, 74, 0
2, 10530, Note_on_c, 0, 72, 64
2, 10545, Note_on_c, 0, 72, 0
2, 10545, Note_on_c, 0, 74, 64
2, 10560, Note_on_c, 0, 74, 0
2, 10560, Note_on_c, 0, 72, 64
2, 10575, Note_on_c, 0, 72, 0
2, 10575, Note_on_c, 0, 74, 64
2, 10590, Note_on_c, 0, 74, 0
2, 10590, Note_on_c, 0, 72, 64
2, 10605, Note_on_c, 0, 72, 0
2, 10605, Note_on_c, 0, 74, 64
2, 10620, Note_on_c, 0, 74, 0
2, 10620, Note_on_c, 0, 72, 64
2, 10635, Note_on_c, 0, 72, 0
2, 10635, Note_on_c, 0, 74, 64
2, 10650, Note_on_c, 0, 74, 0
2, 10650, Note_on_c, 0, 72, 64
2, 10665, Note_on_c, 0, 72, 0
2, 10665, Note_on_c, 0, 74, 64
2, 10680, Note_on_c, 0, 74, 0
2, 10680, Note_on_c, 0, 72, 64
2, 10695, Note_on_c, 0, 72, 0
2, 10695, Note_on_c, 0, 74, 64
2, 10710, Note_on_c, 0, 74, 0
2, 10710, Note_on_c, 0, 72, 64
2, 10725, Note_on_c, 0, 72, 0
2, 10725, Note_on_c, 0, 74, 64
2, 10740, Note_on_c, 0, 74, 0
2, 10740, Note_on_c, 0, 72, 64
2, 10755, Note_on_c, 0, 72, 0
2, 10755, Note_on_c, 0, 74, 64
2, 10770, Note_on_c, 0, 74, 0
2, 10770, Note_on_c, 0, 72, 64
2, 10785, Note_on_c, 0, 72, 0
2, 10785, Note_on_c, 0, 74, 64
2, 10800, Note_on_c, 0, 74, 0
2, 10800, Note_on_c, 0, 72, 64
2, 10815, Note_on_c, 0, 72, 0
2, 10815, Note_on_c, 0, 74, 64
2, 10830, Note_on_c, 0, 74, 0
2, 10830, Note_on_c, 0, 72, 64
2, 10845, Note_on_c, 0, 72, 0
2, 10845, Note_on_c, 0, 74, 64
2, 10860, Note_on_c, 0, 74, 0
2, 10860, Note_on_c, 0, 72, 64
2, 10875, Note_on_c, 0, 72, 0
2, 10875, Note_on_c, 0, 74, 64
2, 10890, Note_on_c, 0, 74, 0
2, 10890, Note_on_c, 0, 72, 64
2, 10905, Note_on_c, 0, 72, 0
2, 10905, Note_on_c, 0, 74, 64
2, 10920, Note_on_c, 0, 74, 0
2, 10920, Note_on_c, 0, 72, 64
2, 10935, Note_on_c, 0, 72, 0
2, 10935, Note_on_c, 0, 74, 64
2, 10950, Note_on_c, 0, 74, 0
2, 10950, Note_on_c, 0, 72, 64
2, 10965, Note_on_c, 0, 72, 0
2, 10965, Note_on_c, 0, 74, 64
2, 10980, Note_on_c, 0, 74, 0
2, 10980, Note_on_c, 0, 72, 64
2, 10995, Note_on_c, 0, 72, 0
2, 10995, Note_on_c, 0, 74, 64
2, 11010, Note_on_c, 0, 74, 0
2, 11010, Note_on_c, 0, 72, 64
2, 11025, Note_on_c, 0, 72, 0
2, 11025, Note_on_c, 0, 74, 64
2, 11040, Note_on_c, 0, 74, 0
2, 11040, Note_on_c, 0, 72, 64
2, 11055, Note_on_c, 0, 72, 0
2, 11055, Note_on_c, 0, 74, 64
2, 11070, Note_on_c, 0, 74, 0
2, 11070, Note_on_c, 0, 72, 64
2, 11085, Note_on_c, 0, 72, 0
2, 11085, Note_on_c, 0, 74, 64
2, 11100, Note_on_c, 0, 74, 0
2, 11100, Note_on_c, 0, 72, 64
2, 11115, Note_on_c, 0, 72, 0
2, 11115, Note_on_c, 0, 74, 64
2, 11130, Note_on_c, 0, 74, 0
2, 11130, Note_on_c, 0, 72, 64
2, 11145, Note_on_c, 0, 72, 0
2, 11145, Note_on_c, 0, 74, 64
2, 11160, Note_on_c, 0, 74, 0
2, 11160, Note_on_c, 0, 72, 64
2, 11175, Note_on_c, 0, 72, 0
2, 11175, Note_on_c, 0, 74, 64
2, 11190, Note_on_c, 0, 74, 0
2, 11190, Note_on_c, 0, 72, 64
2, 11205, Note_on_c, 0, 72, 0
2, 11205, Note_on_c, 0, 74, 64
2, 11220, Note_on_c, 0, 74, 0
2, 11220, Note_on_c, 0, 72, 64
2, 11235, Note_on_c, 0, 72, 0
2, 11235, Note_on_c, 0, 74, 64
2, 11250, Note_on_c, 0, 74, 0
2, 11250, Note_on_c, 0, 72, 64
2, 11265, Note_on_c, 0, 72, 0
2, 11265, Note_on_c, 0, 74, 64
2, 11280, Note_on_c, 0, 74, 0
2, 11280, Note_on_c, 0, 72, 64
2, 11295, Note_on_c, 0, 72, 0
2, 11295, Note_on_c, 0, 74, 64
2, 11310, Note_on_c, 0, 74, 0
2, 11310, Note_on_c, 0, 72, 64
2, 11325, Note_on_c, 0, 72, 0
2, 11325, Note_on_c, 0, 74, 64
2, 11340, Note_on_c, 0, 74, 0
2, 11340, Note_on_c, 0, 71, 64
2, 11355, Note_on_c, 0, 71, 0
2, 11355, Note_on_c, 0, 72, 64
2, 11370, Note_on_c, 0, 72, 0
2, 11370, Note_on_c, 0, 71, 64
2, 11385, Note_on_c, 0, 71, 0
2, 11385, Note_on_c, 0, 72, 64
2, 11400, Note_on_c, 0, 72, 0
2, 11400, Note_on_c, 0, 71, 64
2, 11415, Note_on_c, 0, 71, 0
2, 11415, Note_on_c, 0, 72, 64
2, 11430, Note_on_c, 0, 72, 0
2, 11430, Note_on_c, 0, 71, 64
2, 11445, Note_on_c, 0, 71, 0
2, 11445, Note_on_c, 0, 72, 64
2, 11460, Note_on_c, 0, 72, 0
2, 11460, Note_on_c, 0, 71, 64
2, 11475, Note_on_c, 0, 71, 0
2, 11475, Note_on_c, 0, 72, 64
2, 11490, Note_on_c, 0, 72, 0
2, 11490, Note_on_c, 0, 71, 64
2, 11505, Note_on_c, 0, 71, 0
2, 11505, Note_on_c, 0, 72, 64
2, 11520, Note_on_c, 0, 72, 0
2, 11520, Note_on_c, 0, 71, 64
2, 11535, Note_on_c, 0, 71, 0
2, 11535, Note_on_c, 0, 72, 64
2, 11550, Note_on_c, 0, 72, 0
2, 11550, Note_on_c, 0, 71, 64
2, 11565, Note_on_c, 0, 71, 0
2, 11565, Note_on_c, 0, 72, 64
2, 11580, Note_on_c, 0, 72, 0
2, 11580, Note_on_c, 0, 71, 64
2, 11595, Note_on_c, 0, 71, 0
2, 11595, Note_on_c, 0, 72, 64
2, 11610, Note_on_c, 0, 72, 0
2, 11610, Note_on_c, 0, 71, 64
2, 11625, Note_on_c, 0, 71, 0
2, 11625, Note_on_c, 0, 72, 64
2, 11640, Note_on_c, 0, 72, 0
2, 11640, Note_on_c, 0, 71, 64
2, 11655, Note_on_c, 0, 71, 0
2, 11655, Note_on_c, 0, 72, 64
2, 11670, Note_on_c, 0, 72, 0
2, 11670, Note_on_c, 0, 71, 64
2, 11685, Note_on_c, 0, 71, 0
2, 11685, Note_on_c, 0, 72, 64
2, 11700, Note_on_c, 0, 72, 0
2, 11700, Note_on_c, 0, 71, 64
2, 11715, Note_on_c, 0, 71, 0
2, 11715, Note_on_c, 0, 72, 64
2, 11730, Note_on_c, 0, 72, 0
2, 11730, Note_on_c, 0, 71, 64
2, 11745, Note_on_c, 0, 71, 0
2, 11745, Note_on_c, 0, 72, 64
2, 11760, Note_on_c, 0, 72, 0
2, 11760, Note_on_c, 0, 71, 64
2, 11775, Note_on_c, 0, 71, 0
2, 11775, Note_on_c, 0, 72, 64
2, 11790, Note_on_c, 0, 72, 0
2, 11790, Note_on_c, 0, 71, 64
2, 11805, Note_on_c, 0, 71, 0
2, 11805, Note_on_c, 0, 72, 64
2, 11820, Note_on_c, 0, 72, 0
2, 11820, Note_on_c, 0, 71, 64
2, 11835, Note_on_c, 0, 71, 0
2, 11835, Note_on_c, 0, 72, 64
2, 11850, Note_on_c, 0, 72, 0
2, 11850, Note_on_c, 0, 71, 64
2, 11865, Note_on_c, 0, 71, 0
2, 11865, Note_on_c, 0, 72, 64
2, 11880, Note_on_c, 0, 72, 0
2, 11880, Note_on_c, 0, 71, 64
2, 11895, Note_on_c, 0, 71, 0
2, 11895, Note_on_c, 0, 72, 64
2, 11910, Note_on_c, 0, 72, 0
2, 11910, Note_on_c, 0, 71, 64
2, 11925, Note_on_c, 0, 71, 0
2, 11925, Note_on_c, 0, 72, 64
2, 11940, Note_on_c, 0, 72, 0
2, 11940, Note_on_c, 0, 71, 64
2, 11955, Note_on_c, 0, 71, 0
2, 11955, Note_on_c, 0, 72, 64
2, 11970, Note_on_c, 0, 72, 0
2, 11970, Note_on_c, 0, 71, 64
2, 11985, Note_on_c, 0, 71, 0
2, 11985, Note_on_c, 0, 72, 64
2, 12000, Note_on_c, 0, 72, 0
2, 12000, Note_on_c, 0, 71, 64
2, 12015, Note_on_c, 0, 71, 0
2, 12015, Note_on_c, 0, 72, 64
2, 12030, Note_on_c, 0, 72, 0
2, 12030, Note_on_c, 0, 71, 64
2, 12045, Note_on_c, 0, 71, 0
2, 12045, Note_on_c, 0, 72, 64
2, 12060, Note_on_c, 0, 72, 0
2, 12060, Note_on_c, 0, 71, 64
2, 12075, Note_on_c, 0, 71, 0
2, 12075, Note_on_c, 0, 72, 64
2, 12090, Note_on_c, 0, 72, 0
2, 12090, Note_on_c, 0, 71, 64
2, 12105, Note_on_c, 0, 71, 0
2, 12105, Note_on_c, 0, 72, 64
2, 12120, Note_on_c, 0, 72, 0
2, 12120, Note_on_c, 0, 71, 64
2, 12135, Note_on_c, 0, 71, 0
2, 12135, Note_on_c, 0, 72, 64
2, 12150, Note_on_c, 0, 72, 0
2, 12150, Note_on_c, 0, 71, 64
2, 12165, Note_on_c, 0, 71, 0
2, 12165, Note_on_c, 0, 72, 64
2, 12180, Note_on_c, 0, 72, 0
2, 12180, Note_on_c, 0, 71, 64
2, 12195, Note_on_c, 0, 71, 0
2, 12195, Note_on_c, 0, 72, 64
2, 12210, Note_on_c, 0, 72, 0
2, 12210, Note_on_c, 0, 71, 64
2, 12225, Note_on_c, 0, 71, 0
2, 12225, Note_on_c, 0, 72, 64
2, 12240, Note_on_c, 0, 72, 0
2, 12240, Note_on_c, 0, 71, 64
2, 12255, Note_on_c, 0, 71, 0
2, 12255, Note_on_c, 0, 72, 64
2, 12270, Note_on_c, 0, 72, 0
2, 12270, Note_on_c, 0, 71, 64
2, 12285, Note_on_c, 0, 71, 0
2, 12285, Note_on_c, 0, 72, 64
2, 12300, Note_on_c, 0, 72, 0
2, 12300, Note_on_c, 0, 71, 64
2, 12315, Note_on_c, 0, 71, 0
2, 12315, Note_on_c, 0, 72, 64
2, 12330, Note_on_c, 0, 72, 0
2, 12330, Note_on_c, 0, 71, 64
2, 12345, Note_on_c, 0, 71, 0
2, 12345, Note_on_c, 0, 72, 64
2, 12360, Note_on_c, 0, 72, 0
2, 12360, Note_on_c, 0, 71, 64
2, 12375, Note_on_c, 0, 71, 0
2, 12375, Note_on_c, 0, 72, 64
2, 12390, Note_on_c, 0, 72, 0
2, 12390, Note_on_c, 0, 71, 64
2, 12405, Note_on_c, 0, 71, 0
2, 12405, Note_on_c, 0, 72, 64
2, 12420, Note_on_c, 0, 72, 0
2, 12420, Note_on_c, 0, 71, 64
2, 12480, Note_on_c, 0, 71, 0
2, 12480, Note_on_c, 0, 76, 64
2, 12540, Note_on_c, 0, 76, 0
2, 12540, Note_on_c, 0, 74, 64
2, 12600, Note_on_c, 0, 74, 0
2, 12600, Note_on_c, 0, 72, 64
2, 12660, Note_on_c, 0, 72, 0
2, 12660, Note_on_c, 0, 74, 64
2, 12720, Note_on_c, 0, 74, 0
2, 12720, Note_on_c, 0, 71, 64
2, 12780, Note_on_c, 0, 71, 0
2, 12780, Note_on_c, 0, 69, 64
2, 12840, Note_on_c, 0, 69, 0
2, 12840, Note_on_c, 0, 71, 64
2, 12900, Note_on_c, 0, 71, 0
2, 12900, Note_on_c, 0, 67, 64
2, 12960, Note_on_c, 0, 67, 0
2, 12960, Note_on_c, 0, 69, 64
2, 12970, Control_c, 0, 7, 108
2, 13020, Note_on_c, 0, 69, 0
2, 13020, Note_on_c, 0, 72, 64
2, 13080, Note_on_c, 0, 72, 0
2, 13080, Note_on_c, 0, 71, 64
2, 13120, Control_c, 0, 7, 109
2, 13140, Note_on_c, 0, 71, 0
2, 13140, Note_on_c, 0, 69, 64
2, 13200, Note_on_c, 0, 69, 0
2, 13200, Note_on_c, 0, 71, 64
2, 13260, Note_on_c, 0, 71, 0
2, 13260, Note_on_c, 0, 67, 64
2, 13270, Control_c, 0, 7, 110
2, 13320, Note_on_c, 0, 67, 0
2, 13320, Note_on_c, 0, 66, 64
2, 13380, Note_on_c, 0, 66, 0
2, 13380, Note_on_c, 0, 67, 64
2, 13420, Control_c, 0, 7, 111
2, 13440, Note_on_c, 0, 67, 0
2, 13440, Note_on_c, 0, 64, 64
2, 13500, Note_on_c, 0, 64, 0
2, 13500, Note_on_c, 0, 66, 64
2, 13515, Note_on_c, 0, 66, 0
2, 13515, Note_on_c, 0, 67, 64
2, 13530, Note_on_c, 0, 67, 0
2, 13530, Note_on_c, 0, 66, 64
2, 13570, Control_c, 0, 7, 112
2, 13620, Note_on_c, 0, 66, 0
2, 13620, Note_on_c, 0, 62, 64
2, 13680, Note_on_c, 0, 62, 0
2, 13680, Note_on_c, 0, 69, 64
2, 13695, Note_on_c, 0, 69, 0
2, 13695, Note_on_c, 0, 71, 64
2, 13710, Note_on_c, 0, 71, 0
2, 13710, Note_on_c, 0, 69, 64
2, 13720, Control_c, 0, 7, 113
2, 13800, Note_on_c, 0, 69, 0
2, 13800, Note_on_c, 0, 66, 64
2, 13860, Note_on_c, 0, 66, 0
2, 13860, Note_on_c, 0, 74, 64
2, 13870, Control_c, 0, 7, 114
2, 13875, Note_on_c, 0, 74, 0
2, 13875, Note_on_c, 0, 76, 64
2, 13890, Note_on_c, 0, 76, 0
2, 13890, Note_on_c, 0, 74, 64
2, 13980, Note_on_c, 0, 74, 0
2, 13980, Note_on_c, 0, 66, 64
2, 14020, Control_c, 0, 7, 115
2, 14040, Note_on_c, 0, 66, 0
2, 14040, Note_on_c, 0, 67, 64
2, 14100, Note_on_c, 0, 67, 0
2, 14100, Note_on_c, 0, 71, 64
2, 14160, Note_on_c, 0, 71, 0
2, 14160, Note_on_c, 0, 74, 64
2, 14170, Control_c, 0, 7, 116
2, 14220, Note_on_c, 0, 74, 0
2, 14220, Note_on_c, 0, 71, 64
2, 14280, Note_on_c, 0, 71, 0
2, 14280, Note_on_c, 0, 67, 64
2, 14320, Control_c, 0, 7, 117
2, 14340, Note_on_c, 0, 67, 0
2, 14340, Note_on_c, 0, 74, 64
2, 14400, Note_on_c, 0, 74, 0
2, 14400, Note_on_c, 0, 71, 64
2, 14460, Note_on_c, 0, 71, 0
2, 14460, Note_on_c, 0, 67, 64
2, 14470, Control_c, 0, 7, 118
2, 14520, Note_on_c, 0, 67, 0
2, 14520, Note_on_c, 0, 79, 64
2, 14580, Note_on_c, 0, 79, 0
2, 14580, Note_on_c, 0, 74, 64
2, 14620, Control_c, 0, 7, 119
2, 14640, Note_on_c, 0, 74, 0
2, 14640, Note_on_c, 0, 78, 64
2, 14700, Note_on_c, 0, 78, 0
2, 14700, Note_on_c, 0, 81, 64
2, 14760, Note_on_c, 0, 81, 0
2, 14760, Note_on_c, 0, 78, 64
2, 14820, Note_on_c, 0, 78, 0
2, 14820, Note_on_c, 0, 74, 64
2, 14880, Note_on_c, 0, 74, 0
2, 14880, Note_on_c, 0, 81, 64
2, 14940, Note_on_c, 0, 81, 0
2, 14940, Note_on_c, 0, 78, 64
2, 15000, Note_on_c, 0, 78, 0
2, 15000, Note_on_c, 0, 74, 64
2, 15060, Note_on_c, 0, 74, 0
2, 15060, Note_on_c, 0, 84, 64
2, 15120, Note_on_c, 0, 84, 0
2, 15120, Note_on_c, 0, 83, 64
2, 15180, Note_on_c, 0, 83, 0
2, 15180, Note_on_c, 0, 81, 64
2, 15240, Note_on_c, 0, 81, 0
2, 15240, Note_on_c, 0, 79, 64
2, 15300, Note_on_c, 0, 79, 0
2, 15300, Note_on_c, 0, 78, 64
2, 15360, Note_on_c, 0, 78, 0
2, 15360, Note_on_c, 0, 79, 64
2, 15420, Note_on_c, 0, 79, 0
2, 15420, Note_on_c, 0, 81, 64
2, 15480, Note_on_c, 0, 81, 0
2, 15480, Note_on_c, 0, 74, 64
2, 15540, Note_on_c, 0, 74, 0
2, 15540, Note_on_c, 0, 79, 64
2, 15600, Note_on_c, 0, 79, 0
2, 15600, Note_on_c, 0, 78, 64
2, 15660, Note_on_c, 0, 78, 0
2, 15660, Note_on_c, 0, 79, 64
2, 15720, Note_on_c, 0, 79, 0
2, 15720, Note_on_c, 0, 78, 64
2, 15780, Note_on_c, 0, 78, 0
2, 15780, Note_on_c, 0, 76, 64
2, 15840, Note_on_c, 0, 76, 0
2, 15840, Note_on_c, 0, 74, 64
2, 15900, Note_on_c, 0, 74, 0
2, 15900, Note_on_c, 0, 72, 64
2, 15960, Note_on_c, 0, 72, 0
2, 15960, Note_on_c, 0, 71, 64
2, 16020, Note_on_c, 0, 71, 0
2, 16020, Note_on_c, 0, 69, 64
2, 16080, Note_on_c, 0, 69, 0
2, 16080, Note_on_c, 0, 71, 64
2, 16140, Note_on_c, 0, 71, 0
2, 16140, Note_on_c, 0, 72, 64
2, 16200, Note_on_c, 0, 72, 0
2, 16200, Note_on_c, 0, 71, 64
2, 16260, Note_on_c, 0, 71, 0
2, 16260, Note_on_c, 0, 69, 64
2, 16320, Note_on_c, 0, 69, 0
2, 16320, Note_on_c, 0, 67, 64
2, 16380, Note_on_c, 0, 67, 0
2, 16380, Note_on_c, 0, 66, 64
2, 16440, Note_on_c, 0, 66, 0
2, 16440, Note_on_c, 0, 67, 64
2, 16500, Note_on_c, 0, 67, 0
2, 16500, Note_on_c, 0, 69, 64
2, 16560, Note_on_c, 0, 69, 0
2, 16560, Note_on_c, 0, 62, 64
2, 16620, Note_on_c, 0, 62, 0
2, 16620, Note_on_c, 0, 67, 64
2, 16680, Note_on_c, 0, 67, 0
2, 16680, Note_on_c, 0, 66, 64
2, 16740, Note_on_c, 0, 66, 0
2, 16740, Note_on_c, 0, 67, 64
2, 16800, Note_on_c, 0, 67, 0
2, 16800, Note_on_c, 0, 62, 64
2, 16860, Note_on_c, 0, 62, 0
2, 16860, Note_on_c, 0, 59, 64
2, 16920, Note_on_c, 0, 59, 0
2, 16920, Note_on_c, 0, 55, 64
2, 17100, Note_on_c, 0, 55, 0
2, 17100, End_track
3, 0, Start_track
3, 0, MIDI_port, 0
3, 0, Title_t, "PIANO"
3, 0, Program_c, 1, 0
3, 0, Control_c, 1, 7, 100
3, 60, Note_on_c, 1, 55, 64
3, 120, Note_on_c, 1, 55, 0
3, 120, Note_on_c, 1, 59, 64
3, 180, Note_on_c, 1, 59, 0
3, 180, Note_on_c, 1, 62, 64
3, 240, Note_on_c, 1, 62, 0
3, 240, Note_on_c, 1, 59, 64
3, 300, Note_on_c, 1, 59, 0
3, 300, Note_on_c, 1, 55, 64
3, 360, Note_on_c, 1, 55, 0
3, 360, Note_on_c, 1, 62, 64
3, 420, Note_on_c, 1, 62, 0
3, 420, Note_on_c, 1, 59, 64
3, 480, Note_on_c, 1, 59, 0
3, 480, Note_on_c, 1, 55, 64
3, 540, Note_on_c, 1, 55, 0
3, 540, Note_on_c, 1, 57, 64
3, 600, Note_on_c, 1, 57, 0
3, 600, Note_on_c, 1, 50, 64
3, 660, Note_on_c, 1, 50, 0
3, 660, Note_on_c, 1, 54, 64
3, 720, Note_on_c, 1, 54, 0
3, 720, Note_on_c, 1, 50, 64
3, 780, Note_on_c, 1, 50, 0
3, 780, Note_on_c, 1, 57, 64
3, 840, Note_on_c, 1, 57, 0
3, 840, Note_on_c, 1, 54, 64
3, 900, Note_on_c, 1, 54, 0
3, 900, Note_on_c, 1, 50, 64
3, 960, Note_on_c, 1, 50, 0
3, 960, Note_on_c, 1, 57, 64
3, 1020, Note_on_c, 1, 57, 0
3, 1020, Note_on_c, 1, 54, 64
3, 1080, Note_on_c, 1, 54, 0
3, 1080, Note_on_c, 1, 50, 64
3, 1140, Note_on_c, 1, 50, 0
3, 1140, Note_on_c, 1, 55, 64
3, 1200, Note_on_c, 1, 55, 0
3, 1200, Note_on_c, 1, 62, 64
3, 1260, Note_on_c, 1, 62, 0
3, 1260, Note_on_c, 1, 59, 64
3, 1320, Note_on_c, 1, 59, 0
3, 1320, Note_on_c, 1, 62, 64
3, 1380, Note_on_c, 1, 62, 0
3, 1380, Note_on_c, 1, 65, 64
3, 1440, Note_on_c, 1, 65, 0
3, 1440, Note_on_c, 1, 59, 64
3, 1500, Note_on_c, 1, 59, 0
3, 1500, Note_on_c, 1, 62, 64
3, 1560, Note_on_c, 1, 62, 0
3, 1560, Note_on_c, 1, 65, 64
3, 1620, Note_on_c, 1, 65, 0
3, 1620, Note_on_c, 1, 64, 64
3, 1680, Note_on_c, 1, 64, 0
3, 1680, Note_on_c, 1, 57, 64
3, 1740, Note_on_c, 1, 57, 0
3, 1740, Note_on_c, 1, 64, 64
3, 1800, Note_on_c, 1, 64, 0
3, 1800, Note_on_c, 1, 60, 64
3, 1860, Note_on_c, 1, 60, 0
3, 1860, Note_on_c, 1, 64, 64
3, 1920, Note_on_c, 1, 64, 0
3, 1920, Note_on_c, 1, 60, 64
3, 1980, Note_on_c, 1, 60, 0
3, 1980, Note_on_c, 1, 57, 64
3, 2040, Note_on_c, 1, 57, 0
3, 2040, Note_on_c, 1, 60, 64
3, 2100, Note_on_c, 1, 60, 0
3, 2100, Note_on_c, 1, 57, 64
3, 2160, Note_on_c, 1, 57, 0
3, 2160, Note_on_c, 1, 54, 64
3, 2220, Note_on_c, 1, 54, 0
3, 2220, Note_on_c, 1, 55, 64
3, 2280, Note_on_c, 1, 55, 0
3, 2280, Note_on_c, 1, 57, 64
3, 2340, Note_on_c, 1, 57, 0
3, 2340, Note_on_c, 1, 59, 64
3, 2400, Note_on_c, 1, 59, 0
3, 2400, Note_on_c, 1, 62, 64
3, 2460, Note_on_c, 1, 62, 0
3, 2460, Note_on_c, 1, 59, 64
3, 2520, Note_on_c, 1, 59, 0
3, 2520, Note_on_c, 1, 55, 64
3, 2580, Note_on_c, 1, 55, 0
3, 2580, Note_on_c, 1, 59, 64
3, 2640, Note_on_c, 1, 59, 0
3, 2640, Note_on_c, 1, 55, 64
3, 2700, Note_on_c, 1, 55, 0
3, 2700, Note_on_c, 1, 52, 64
3, 2760, Note_on_c, 1, 52, 0
3, 2760, Note_on_c, 1, 54, 64
3, 2820, Note_on_c, 1, 54, 0
3, 2820, Note_on_c, 1, 55, 64
3, 2880, Note_on_c, 1, 55, 0
3, 2880, Note_on_c, 1, 57, 64
3, 2940, Note_on_c, 1, 57, 0
3, 2940, Note_on_c, 1, 60, 64
3, 3000, Note_on_c, 1, 60, 0
3, 3000, Note_on_c, 1, 57, 64
3, 3060, Note_on_c, 1, 57, 0
3, 3060, Note_on_c, 1, 54, 64
3, 3120, Note_on_c, 1, 54, 0
3, 3120, Note_on_c, 1, 57, 64
3, 3180, Note_on_c, 1, 57, 0
3, 3180, Note_on_c, 1, 54, 64
3, 3240, Note_on_c, 1, 54, 0
3, 3240, Note_on_c, 1, 50, 64
3, 3300, Note_on_c, 1, 50, 0
3, 3300, Note_on_c, 1, 52, 64
3, 3360, Note_on_c, 1, 52, 0
3, 3360, Note_on_c, 1, 54, 64
3, 3420, Note_on_c, 1, 54, 0
3, 3420, Note_on_c, 1, 55, 64
3, 3435, Note_on_c, 1, 55, 0
3, 3435, Note_on_c, 1, 54, 64
3, 3450, Note_on_c, 1, 54, 0
3, 3450, Note_on_c, 1, 55, 64
3, 3660, Note_on_c, 1, 55, 0
3, 3660, Note_on_c, 1, 67, 64
3, 3720, Note_on_c, 1, 67, 0
3, 3720, Note_on_c, 1, 64, 64
3, 3840, Note_on_c, 1, 64, 0
3, 3840, Note_on_c, 1, 62, 64
3, 3900, Note_on_c, 1, 62, 0
3, 3900, Note_on_c, 1, 64, 64
3, 3960, Note_on_c, 1, 64, 0
3, 3960, Note_on_c, 1, 57, 64
3, 3975, Note_on_c, 1, 57, 0
3, 3975, Note_on_c, 1, 59, 64
3, 3990, Note_on_c, 1, 59, 0
3, 3990, Note_on_c, 1, 57, 64
3, 4200, Note_on_c, 1, 57, 0
3, 4200, Note_on_c, 1, 66, 64
3, 4260, Note_on_c, 1, 66, 0
3, 4260, Note_on_c, 1, 62, 64
3, 4320, Note_on_c, 1, 62, 0
3, 4320, Note_on_c, 1, 59, 64
3, 4500, Note_on_c, 1, 59, 0
3, 4500, Note_on_c, 1, 61, 64
3, 4560, Note_on_c, 1, 61, 0
3, 4560, Note_on_c, 1, 57, 64
3, 4620, Note_on_c, 1, 57, 0
3, 4620, Note_on_c, 1, 52, 64
3, 4680, Note_on_c, 1, 52, 0
3, 4680, Note_on_c, 1, 61, 64
3, 4740, Note_on_c, 1, 61, 0
3, 4740, Note_on_c, 1, 57, 64
3, 4920, Note_on_c, 1, 57, 0
3, 4920, Note_on_c, 1, 59, 64
3, 4980, Note_on_c, 1, 59, 0
3, 4980, Note_on_c, 1, 57, 64
3, 5040, Note_on_c, 1, 57, 0
3, 5040, Note_on_c, 1, 55, 64
3, 5100, Note_on_c, 1, 55, 0
3, 5100, Note_on_c, 1, 57, 64
3, 5220, Note_on_c, 1, 57, 0
3, 5220, Note_on_c, 1, 62, 64
3, 5235, Note_on_c, 1, 62, 0
3, 5235, Note_on_c, 1, 64, 64
3, 5250, Note_on_c, 1, 64, 0
3, 5250, Note_on_c, 1, 62, 64
3, 5265, Note_on_c, 1, 62, 0
3, 5265, Note_on_c, 1, 64, 64
3, 5280, Note_on_c, 1, 64, 0
3, 5280, Note_on_c, 1, 62, 64
3, 5295, Note_on_c, 1, 62, 0
3, 5295, Note_on_c, 1, 64, 64
3, 5310, Note_on_c, 1, 64, 0
3, 5310, Note_on_c, 1, 62, 64
3, 5325, Note_on_c, 1, 62, 0
3, 5325, Note_on_c, 1, 64, 64
3, 5340, Note_on_c, 1, 64, 0
3, 5340, Note_on_c, 1, 62, 64
3, 5355, Note_on_c, 1, 62, 0
3, 5355, Note_on_c, 1, 64, 64
3, 5370, Note_on_c, 1, 64, 0
3, 5370, Note_on_c, 1, 62, 64
3, 5385, Note_on_c, 1, 62, 0
3, 5385, Note_on_c, 1, 64, 64
3, 5400, Note_on_c, 1, 64, 0
3, 5400, Note_on_c, 1, 62, 64
3, 5415, Note_on_c, 1, 62, 0
3, 5415, Note_on_c, 1, 64, 64
3, 5430, Note_on_c, 1, 64, 0
3, 5430, Note_on_c, 1, 62, 64
3, 5445, Note_on_c, 1, 62, 0
3, 5445, Note_on_c, 1, 64, 64
3, 5460, Note_on_c, 1, 64, 0
3, 5460, Note_on_c, 1, 62, 64
3, 5475, Note_on_c, 1, 62, 0
3, 5475, Note_on_c, 1, 64, 64
3, 5490, Note_on_c, 1, 64, 0
3, 5490, Note_on_c, 1, 62, 64
3, 5505, Note_on_c, 1, 62, 0
3, 5505, Note_on_c, 1, 64, 64
3, 5520, Note_on_c, 1, 64, 0
3, 5520, Note_on_c, 1, 62, 64
3, 5535, Note_on_c, 1, 62, 0
3, 5535, Note_on_c, 1, 64, 64
3, 5550, Note_on_c, 1, 64, 0
3, 5550, Note_on_c, 1, 62, 64
3, 5565, Note_on_c, 1, 62, 0
3, 5565, Note_on_c, 1, 64, 64
3, 5580, Note_on_c, 1, 64, 0
3, 5580, Note_on_c, 1, 62, 64
3, 5595, Note_on_c, 1, 62, 0
3, 5595, Note_on_c, 1, 64, 64
3, 5610, Note_on_c, 1, 64, 0
3, 5610, Note_on_c, 1, 62, 64
3, 5625, Note_on_c, 1, 62, 0
3, 5625, Note_on_c, 1, 64, 64
3, 5640, Note_on_c, 1, 64, 0
3, 5640, Note_on_c, 1, 62, 64
3, 5655, Note_on_c, 1, 62, 0
3, 5655, Note_on_c, 1, 64, 64
3, 5670, Note_on_c, 1, 64, 0
3, 5670, Note_on_c, 1, 62, 64
3, 5685, Note_on_c, 1, 62, 0
3, 5685, Note_on_c, 1, 64, 64
3, 5700, Note_on_c, 1, 64, 0
3, 5700, Note_on_c, 1, 62, 64
3, 5715, Note_on_c, 1, 62, 0
3, 5715, Note_on_c, 1, 64, 64
3, 5730, Note_on_c, 1, 64, 0
3, 5730, Note_on_c, 1, 61, 64
3, 5745, Note_on_c, 1, 61, 0
3, 5745, Note_on_c, 1, 62, 64
3, 5760, Note_on_c, 1, 62, 0
3, 5760, Note_on_c, 1, 71, 64
3, 6060, Note_on_c, 1, 71, 0
3, 6060, Note_on_c, 1, 69, 64
3, 6120, Note_on_c, 1, 69, 0
3, 6120, Note_on_c, 1, 62, 64
3, 6180, Note_on_c, 1, 62, 0
3, 6180, Note_on_c, 1, 64, 64
3, 6240, Note_on_c, 1, 64, 0
3, 6240, Note_on_c, 1, 61, 64
3, 6300, Note_on_c, 1, 61, 0
3, 6300, Note_on_c, 1, 71, 64
3, 6360, Note_on_c, 1, 71, 0
3, 6360, Note_on_c, 1, 66, 64
3, 6420, Note_on_c, 1, 66, 0
3, 6420, Note_on_c, 1, 67, 64
3, 6480, Note_on_c, 1, 67, 0
3, 6480, Note_on_c, 1, 66, 64
3, 6540, Note_on_c, 1, 66, 0
3, 6540, Note_on_c, 1, 67, 64
3, 6600, Note_on_c, 1, 67, 0
3, 6600, Note_on_c, 1, 69, 64
3, 6660, Note_on_c, 1, 69, 0
3, 6660, Note_on_c, 1, 71, 64
3, 6720, Note_on_c, 1, 71, 0
3, 6720, Note_on_c, 1, 73, 64
3, 6780, Note_on_c, 1, 73, 0
3, 6780, Note_on_c, 1, 67, 64
3, 6840, Note_on_c, 1, 67, 0
3, 6840, Note_on_c, 1, 66, 64
3, 6960, Note_on_c, 1, 66, 0
3, 6960, Note_on_c, 1, 64, 64
3, 7020, Note_on_c, 1, 64, 0
3, 7020, Note_on_c, 1, 66, 64
3, 7080, Note_on_c, 1, 66, 0
3, 7080, Note_on_c, 1, 62, 64
3, 7140, Note_on_c, 1, 62, 0
3, 7140, Note_on_c, 1, 66, 64
3, 7200, Note_on_c, 1, 66, 0
3, 7200, Note_on_c, 1, 69, 64
3, 7260, Note_on_c, 1, 69, 0
3, 7260, Note_on_c, 1, 66, 64
3, 7320, Note_on_c, 1, 66, 0
3, 7320, Note_on_c, 1, 62, 64
3, 7380, Note_on_c, 1, 62, 0
3, 7380, Note_on_c, 1, 69, 64
3, 7440, Note_on_c, 1, 69, 0
3, 7440, Note_on_c, 1, 66, 64
3, 7500, Note_on_c, 1, 66, 0
3, 7500, Note_on_c, 1, 62, 64
3, 7560, Note_on_c, 1, 62, 0
3, 7560, Note_on_c, 1, 64, 64
3, 7620, Note_on_c, 1, 64, 0
3, 7620, Note_on_c, 1, 57, 64
3, 7680, Note_on_c, 1, 57, 0
3, 7680, Note_on_c, 1, 61, 64
3, 7740, Note_on_c, 1, 61, 0
3, 7740, Note_on_c, 1, 64, 64
3, 7800, Note_on_c, 1, 64, 0
3, 7800, Note_on_c, 1, 61, 64
3, 7860, Note_on_c, 1, 61, 0
3, 7860, Note_on_c, 1, 57, 64
3, 7920, Note_on_c, 1, 57, 0
3, 7920, Note_on_c, 1, 64, 64
3, 7980, Note_on_c, 1, 64, 0
3, 7980, Note_on_c, 1, 61, 64
3, 8040, Note_on_c, 1, 61, 0
3, 8040, Note_on_c, 1, 57, 64
3, 8160, Note_on_c, 1, 57, 0
3, 8160, Note_on_c, 1, 62, 64
3, 8220, Note_on_c, 1, 62, 0
3, 8220, Note_on_c, 1, 66, 64
3, 8280, Note_on_c, 1, 66, 0
3, 8280, Note_on_c, 1, 69, 64
3, 8340, Note_on_c, 1, 69, 0
3, 8340, Note_on_c, 1, 66, 64
3, 8400, Note_on_c, 1, 66, 0
3, 8400, Note_on_c, 1, 62, 64
3, 8460, Note_on_c, 1, 62, 0
3, 8460, Note_on_c, 1, 69, 64
3, 8520, Note_on_c, 1, 69, 0
3, 8520, Note_on_c, 1, 66, 64
3, 8580, Note_on_c, 1, 66, 0
3, 8580, Note_on_c, 1, 62, 64
3, 8640, Note_on_c, 1, 62, 0
3, 8640, Note_on_c, 1, 62, 64
3, 8700, Note_on_c, 1, 62, 0
3, 8700, Note_on_c, 1, 55, 64
3, 8760, Note_on_c, 1, 55, 0
3, 8760, Note_on_c, 1, 59, 64
3, 8820, Note_on_c, 1, 59, 0
3, 8820, Note_on_c, 1, 62, 64
3, 8880, Note_on_c, 1, 62, 0
3, 8880, Note_on_c, 1, 59, 64
3, 8940, Note_on_c, 1, 59, 0
3, 8940, Note_on_c, 1, 55, 64
3, 9000, Note_on_c, 1, 55, 0
3, 9000, Note_on_c, 1, 62, 64
3, 9060, Note_on_c, 1, 62, 0
3, 9060, Note_on_c, 1, 59, 64
3, 9120, Note_on_c, 1, 59, 0
3, 9120, Note_on_c, 1, 55, 64
3, 9180, Note_on_c, 1, 55, 0
3, 9180, Note_on_c, 1, 67, 64
3, 9240, Note_on_c, 1, 67, 0
3, 9240, Note_on_c, 1, 64, 64
3, 9300, Note_on_c, 1, 64, 0
3, 9300, Note_on_c, 1, 60, 64
3, 9360, Note_on_c, 1, 60, 0
3, 9360, Note_on_c, 1, 57, 64
3, 9420, Note_on_c, 1, 57, 0
3, 9420, Note_on_c, 1, 69, 64
3, 9480, Note_on_c, 1, 69, 0
3, 9480, Note_on_c, 1, 64, 64
3, 9540, Note_on_c, 1, 64, 0
3, 9540, Note_on_c, 1, 60, 64
3, 9600, Note_on_c, 1, 60, 0
3, 9600, Note_on_c, 1, 59, 64
3, 9660, Note_on_c, 1, 59, 0
3, 9660, Note_on_c, 1, 57, 64
3, 9780, Note_on_c, 1, 57, 0
3, 9780, Note_on_c, 1, 55, 64
3, 9840, Note_on_c, 1, 55, 0
3, 9840, Note_on_c, 1, 59, 64
3, 9900, Note_on_c, 1, 59, 0
3, 9900, Note_on_c, 1, 55, 64
3, 9960, Note_on_c, 1, 55, 0
3, 9960, Note_on_c, 1, 67, 64
3, 10020, Note_on_c, 1, 67, 0
3, 10020, Note_on_c, 1, 62, 64
3, 10080, Note_on_c, 1, 62, 0
3, 10080, Note_on_c, 1, 59, 64
3, 10140, Note_on_c, 1, 59, 0
3, 10140, Note_on_c, 1, 57, 64
3, 10200, Note_on_c, 1, 57, 0
3, 10200, Note_on_c, 1, 55, 64
3, 10260, Note_on_c, 1, 55, 0
3, 10260, Note_on_c, 1, 52, 64
3, 10320, Note_on_c, 1, 52, 0
3, 10320, Note_on_c, 1, 57, 64
3, 10380, Note_on_c, 1, 57, 0
3, 10380, Note_on_c, 1, 60, 64
3, 10440, Note_on_c, 1, 60, 0
3, 10440, Note_on_c, 1, 64, 64
3, 10500, Note_on_c, 1, 64, 0
3, 10500, Note_on_c, 1, 69, 64
3, 10560, Note_on_c, 1, 69, 0
3, 10560, Note_on_c, 1, 64, 64
3, 10620, Note_on_c, 1, 64, 0
3, 10620, Note_on_c, 1, 60, 64
3, 10680, Note_on_c, 1, 60, 0
3, 10680, Note_on_c, 1, 59, 64
3, 10740, Note_on_c, 1, 59, 0
3, 10740, Note_on_c, 1, 57, 64
3, 10860, Note_on_c, 1, 57, 0
3, 10860, Note_on_c, 1, 62, 64
3, 10920, Note_on_c, 1, 62, 0
3, 10920, Note_on_c, 1, 66, 64
3, 10980, Note_on_c, 1, 66, 0
3, 10980, Note_on_c, 1, 69, 64
3, 11040, Note_on_c, 1, 69, 0
3, 11040, Note_on_c, 1, 74, 64
3, 11100, Note_on_c, 1, 74, 0
3, 11100, Note_on_c, 1, 69, 64
3, 11160, Note_on_c, 1, 69, 0
3, 11160, Note_on_c, 1, 66, 64
3, 11220, Note_on_c, 1, 66, 0
3, 11220, Note_on_c, 1, 64, 64
3, 11280, Note_on_c, 1, 64, 0
3, 11280, Note_on_c, 1, 62, 64
3, 11400, Note_on_c, 1, 62, 0
3, 11400, Note_on_c, 1, 55, 64
3, 11460, Note_on_c, 1, 55, 0
3, 11460, Note_on_c, 1, 59, 64
3, 11520, Note_on_c, 1, 59, 0
3, 11520, Note_on_c, 1, 62, 64
3, 11580, Note_on_c, 1, 62, 0
3, 11580, Note_on_c, 1, 67, 64
3, 11640, Note_on_c, 1, 67, 0
3, 11640, Note_on_c, 1, 62, 64
3, 11700, Note_on_c, 1, 62, 0
3, 11700, Note_on_c, 1, 59, 64
3, 11760, Note_on_c, 1, 59, 0
3, 11760, Note_on_c, 1, 57, 64
3, 11820, Note_on_c, 1, 57, 0
3, 11820, Note_on_c, 1, 55, 64
3, 11940, Note_on_c, 1, 55, 0
3, 11940, Note_on_c, 1, 52, 64
3, 12000, Note_on_c, 1, 52, 0
3, 12000, Note_on_c, 1, 55, 64
3, 12060, Note_on_c, 1, 55, 0
3, 12060, Note_on_c, 1, 59, 64
3, 12120, Note_on_c, 1, 59, 0
3, 12120, Note_on_c, 1, 64, 64
3, 12180, Note_on_c, 1, 64, 0
3, 12180, Note_on_c, 1, 59, 64
3, 12240, Note_on_c, 1, 59, 0
3, 12240, Note_on_c, 1, 55, 64
3, 12300, Note_on_c, 1, 55, 0
3, 12300, Note_on_c, 1, 54, 64
3, 12360, Note_on_c, 1, 54, 0
3, 12360, Note_on_c, 1, 52, 64
3, 12420, Note_on_c, 1, 52, 0
3, 12420, Note_on_c, 1, 64, 64
3, 12480, Note_on_c, 1, 64, 0
3, 12480, Note_on_c, 1, 67, 64
3, 12540, Note_on_c, 1, 67, 0
3, 12540, Note_on_c, 1, 66, 64
3, 12600, Note_on_c, 1, 66, 0
3, 12600, Note_on_c, 1, 64, 64
3, 12660, Note_on_c, 1, 64, 0
3, 12660, Note_on_c, 1, 66, 64
3, 12720, Note_on_c, 1, 66, 0
3, 12720, Note_on_c, 1, 62, 64
3, 12780, Note_on_c, 1, 62, 0
3, 12780, Note_on_c, 1, 60, 64
3, 12840, Note_on_c, 1, 60, 0
3, 12840, Note_on_c, 1, 62, 64
3, 12900, Note_on_c, 1, 62, 0
3, 12900, Note_on_c, 1, 59, 64
3, 12960, Note_on_c, 1, 59, 0
3, 12960, Note_on_c, 1, 60, 64
3, 13020, Note_on_c, 1, 60, 0
3, 13020, Note_on_c, 1, 64, 64
3, 13080, Note_on_c, 1, 64, 0
3, 13080, Note_on_c, 1, 62, 64
3, 13140, Note_on_c, 1, 62, 0
3, 13140, Note_on_c, 1, 60, 64
3, 13200, Note_on_c, 1, 60, 0
3, 13200, Note_on_c, 1, 62, 64
3, 13260, Note_on_c, 1, 62, 0
3, 13260, Note_on_c, 1, 59, 64
3, 13320, Note_on_c, 1, 59, 0
3, 13320, Note_on_c, 1, 57, 64
3, 13380, Note_on_c, 1, 57, 0
3, 13380, Note_on_c, 1, 59, 64
3, 13440, Note_on_c, 1, 59, 0
3, 13440, Note_on_c, 1, 55, 64
3, 13500, Note_on_c, 1, 55, 0
3, 13500, Note_on_c, 1, 57, 64
3, 13680, Note_on_c, 1, 57, 0
3, 13680, Note_on_c, 1, 66, 64
3, 13740, Note_on_c, 1, 66, 0
3, 13740, Note_on_c, 1, 62, 64
3, 13860, Note_on_c, 1, 62, 0
3, 13860, Note_on_c, 1, 66, 64
3, 13980, Note_on_c, 1, 66, 0
3, 13980, Note_on_c, 1, 62, 64
3, 13995, Note_on_c, 1, 62, 0
3, 13995, Note_on_c, 1, 64, 64
3, 14010, Note_on_c, 1, 64, 0
3, 14010, Note_on_c, 1, 62, 64
3, 14025, Note_on_c, 1, 62, 0
3, 14025, Note_on_c, 1, 64, 64
3, 14040, Note_on_c, 1, 64, 0
3, 14040, Note_on_c, 1, 62, 64
3, 14055, Note_on_c, 1, 62, 0
3, 14055, Note_on_c, 1, 64, 64
3, 14070, Note_on_c, 1, 64, 0
3, 14070, Note_on_c, 1, 62, 64
3, 14085, Note_on_c, 1, 62, 0
3, 14085, Note_on_c, 1, 64, 64
3, 14100, Note_on_c, 1, 64, 0
3, 14100, Note_on_c, 1, 62, 64
3, 14115, Note_on_c, 1, 62, 0
3, 14115, Note_on_c, 1, 64, 64
3, 14130, Note_on_c, 1, 64, 0
3, 14130, Note_on_c, 1, 62, 64
3, 14145, Note_on_c, 1, 62, 0
3, 14145, Note_on_c, 1, 64, 64
3, 14160, Note_on_c, 1, 64, 0
3, 14160, Note_on_c, 1, 62, 64
3, 14175, Note_on_c, 1, 62, 0
3, 14175, Note_on_c, 1, 64, 64
3, 14190, Note_on_c, 1, 64, 0
3, 14190, Note_on_c, 1, 62, 64
3, 14205, Note_on_c, 1, 62, 0
3, 14205, Note_on_c, 1, 64, 64
3, 14220, Note_on_c, 1, 64, 0
3, 14220, Note_on_c, 1, 62, 64
3, 14235, Note_on_c, 1, 62, 0
3, 14235, Note_on_c, 1, 64, 64
3, 14250, Note_on_c, 1, 64, 0
3, 14250, Note_on_c, 1, 62, 64
3, 14265, Note_on_c, 1, 62, 0
3, 14265, Note_on_c, 1, 64, 64
3, 14280, Note_on_c, 1, 64, 0
3, 14280, Note_on_c, 1, 62, 64
3, 14295, Note_on_c, 1, 62, 0
3, 14295, Note_on_c, 1, 64, 64
3, 14310, Note_on_c, 1, 64, 0
3, 14310, Note_on_c, 1, 62, 64
3, 14325, Note_on_c, 1, 62, 0
3, 14325, Note_on_c, 1, 64, 64
3, 14340, Note_on_c, 1, 64, 0
3, 14340, Note_on_c, 1, 62, 64
3, 14355, Note_on_c, 1, 62, 0
3, 14355, Note_on_c, 1, 64, 64
3, 14370, Note_on_c, 1, 64, 0
3, 14370, Note_on_c, 1, 62, 64
3, 14385, Note_on_c, 1, 62, 0
3, 14385, Note_on_c, 1, 64, 64
3, 14400, Note_on_c, 1, 64, 0
3, 14400, Note_on_c, 1, 62, 64
3, 14415, Note_on_c, 1, 62, 0
3, 14415, Note_on_c, 1, 64, 64
3, 14430, Note_on_c, 1, 64, 0
3, 14430, Note_on_c, 1, 62, 64
3, 14445, Note_on_c, 1, 62, 0
3, 14445, Note_on_c, 1, 64, 64
3, 14460, Note_on_c, 1, 64, 0
3, 14460, Note_on_c, 1, 62, 64
3, 14475, Note_on_c, 1, 62, 0
3, 14475, Note_on_c, 1, 64, 64
3, 14490, Note_on_c, 1, 64, 0
3, 14490, Note_on_c, 1, 62, 64
3, 14505, Note_on_c, 1, 62, 0
3, 14505, Note_on_c, 1, 64, 64
3, 14520, Note_on_c, 1, 64, 0
3, 14520, Note_on_c, 1, 62, 64
3, 14535, Note_on_c, 1, 62, 0
3, 14535, Note_on_c, 1, 64, 64
3, 14550, Note_on_c, 1, 64, 0
3, 14550, Note_on_c, 1, 62, 64
3, 14565, Note_on_c, 1, 62, 0
3, 14565, Note_on_c, 1, 64, 64
3, 14580, Note_on_c, 1, 64, 0
3, 14580, Note_on_c, 1, 62, 64
3, 14595, Note_on_c, 1, 62, 0
3, 14595, Note_on_c, 1, 64, 64
3, 14610, Note_on_c, 1, 64, 0
3, 14610, Note_on_c, 1, 62, 64
3, 14625, Note_on_c, 1, 62, 0
3, 14625, Note_on_c, 1, 64, 64
3, 14640, Note_on_c, 1, 64, 0
3, 14640, Note_on_c, 1, 62, 64
3, 14655, Note_on_c, 1, 62, 0
3, 14655, Note_on_c, 1, 64, 64
3, 14670, Note_on_c, 1, 64, 0
3, 14670, Note_on_c, 1, 62, 64
3, 14685, Note_on_c, 1, 62, 0
3, 14685, Note_on_c, 1, 64, 64
3, 14700, Note_on_c, 1, 64, 0
3, 14700, Note_on_c, 1, 62, 64
3, 14715, Note_on_c, 1, 62, 0
3, 14715, Note_on_c, 1, 64, 64
3, 14730, Note_on_c, 1, 64, 0
3, 14730, Note_on_c, 1, 62, 64
3, 14745, Note_on_c, 1, 62, 0
3, 14745, Note_on_c, 1, 64, 64
3, 14760, Note_on_c, 1, 64, 0
3, 14760, Note_on_c, 1, 62, 64
3, 14775, Note_on_c, 1, 62, 0
3, 14775, Note_on_c, 1, 64, 64
3, 14790, Note_on_c, 1, 64, 0
3, 14790, Note_on_c, 1, 62, 64
3, 14805, Note_on_c, 1, 62, 0
3, 14805, Note_on_c, 1, 64, 64
3, 14820, Note_on_c, 1, 64, 0
3, 14820, Note_on_c, 1, 62, 64
3, 14835, Note_on_c, 1, 62, 0
3, 14835, Note_on_c, 1, 64, 64
3, 14850, Note_on_c, 1, 64, 0
3, 14850, Note_on_c, 1, 62, 64
3, 14865, Note_on_c, 1, 62, 0
3, 14865, Note_on_c, 1, 64, 64
3, 14880, Note_on_c, 1, 64, 0
3, 14880, Note_on_c, 1, 62, 64
3, 14895, Note_on_c, 1, 62, 0
3, 14895, Note_on_c, 1, 64, 64
3, 14910, Note_on_c, 1, 64, 0
3, 14910, Note_on_c, 1, 62, 64
3, 14925, Note_on_c, 1, 62, 0
3, 14925, Note_on_c, 1, 64, 64
3, 14940, Note_on_c, 1, 64, 0
3, 14940, Note_on_c, 1, 62, 64
3, 14955, Note_on_c, 1, 62, 0
3, 14955, Note_on_c, 1, 64, 64
3, 14970, Note_on_c, 1, 64, 0
3, 14970, Note_on_c, 1, 62, 64
3, 14985, Note_on_c, 1, 62, 0
3, 14985, Note_on_c, 1, 64, 64
3, 15000, Note_on_c, 1, 64, 0
3, 15000, Note_on_c, 1, 62, 64
3, 15015, Note_on_c, 1, 62, 0
3, 15015, Note_on_c, 1, 64, 64
3, 15030, Note_on_c, 1, 64, 0
3, 15030, Note_on_c, 1, 62, 64
3, 15045, Note_on_c, 1, 62, 0
3, 15045, Note_on_c, 1, 64, 64
3, 15060, Note_on_c, 1, 64, 0
3, 15060, Note_on_c, 1, 62, 64
3, 15075, Note_on_c, 1, 62, 0
3, 15075, Note_on_c, 1, 64, 64
3, 15090, Note_on_c, 1, 64, 0
3, 15090, Note_on_c, 1, 62, 64
3, 15105, Note_on_c, 1, 62, 0
3, 15105, Note_on_c, 1, 64, 64
3, 15120, Note_on_c, 1, 64, 0
3, 15120, Note_on_c, 1, 62, 64
3, 15180, Note_on_c, 1, 62, 0
3, 15180, Note_on_c, 1, 60, 64
3, 15240, Note_on_c, 1, 60, 0
3, 15240, Note_on_c, 1, 62, 64
3, 15300, Note_on_c, 1, 62, 0
3, 15300, Note_on_c, 1, 60, 64
3, 15360, Note_on_c, 1, 60, 0
3, 15360, Note_on_c, 1, 62, 64
3, 15420, Note_on_c, 1, 62, 0
3, 15420, Note_on_c, 1, 64, 64
3, 15480, Note_on_c, 1, 64, 0
3, 15480, Note_on_c, 1, 66, 64
3, 15540, Note_on_c, 1, 66, 0
3, 15540, Note_on_c, 1, 64, 64
3, 15600, Note_on_c, 1, 64, 0
3, 15600, Note_on_c, 1, 62, 64
3, 15780, Note_on_c, 1, 62, 0
3, 15780, Note_on_c, 1, 60, 64
3, 15840, Note_on_c, 1, 60, 0
3, 15840, Note_on_c, 1, 59, 64
3, 15900, Note_on_c, 1, 59, 0
3, 15900, Note_on_c, 1, 57, 64
3, 15960, Note_on_c, 1, 57, 0
3, 15960, Note_on_c, 1, 55, 64
3, 16020, Note_on_c, 1, 55, 0
3, 16020, Note_on_c, 1, 57, 64
3, 16080, Note_on_c, 1, 57, 0
3, 16080, Note_on_c, 1, 55, 64
3, 16140, Note_on_c, 1, 55, 0
3, 16140, Note_on_c, 1, 54, 64
3, 16200, Note_on_c, 1, 54, 0
3, 16200, Note_on_c, 1, 62, 64
3, 16380, Note_on_c, 1, 62, 0
3, 16380, Note_on_c, 1, 60, 64
3, 16440, Note_on_c, 1, 60, 0
3, 16440, Note_on_c, 1, 59, 64
3, 16500, Note_on_c, 1, 59, 0
3, 16500, Note_on_c, 1, 57, 64
3, 16560, Note_on_c, 1, 57, 0
3, 16560, Note_on_c, 1, 59, 64
3, 16680, Note_on_c, 1, 59, 0
3, 16680, Note_on_c, 1, 57, 64
3, 16740, Note_on_c, 1, 57, 0
3, 16740, Note_on_c, 1, 59, 64
3, 17100, Note_on_c, 1, 59, 0
3, 17100, End_track
4, 0, Start_track
4, 0, MIDI_port, 0
4, 0, Title_t, "PIANO"
4, 0, Program_c, 2, 0
4, 0, Control_c, 2, 7, 100
4, 20, Control_c, 2, 7, 111
4, 130, Control_c, 2, 7, 110
4, 540, Note_on_c, 2, 38, 64
4, 600, Note_on_c, 2, 38, 0
4, 600, Note_on_c, 2, 42, 64
4, 660, Note_on_c, 2, 42, 0
4, 660, Note_on_c, 2, 45, 64
4, 720, Note_on_c, 2, 45, 0
4, 720, Note_on_c, 2, 42, 64
4, 780, Note_on_c, 2, 42, 0
4, 780, Note_on_c, 2, 38, 64
4, 840, Note_on_c, 2, 38, 0
4, 840, Note_on_c, 2, 45, 64
4, 900, Note_on_c, 2, 45, 0
4, 900, Note_on_c, 2, 42, 64
4, 960, Note_on_c, 2, 42, 0
4, 960, Note_on_c, 2, 38, 64
4, 1020, Note_on_c, 2, 38, 0
4, 1020, Note_on_c, 2, 48, 64
4, 1080, Note_on_c, 2, 48, 0
4, 1080, Note_on_c, 2, 47, 64
4, 1110, Note_on_c, 2, 47, 0
4, 1110, Note_on_c, 2, 48, 64
4, 1140, Note_on_c, 2, 48, 0
4, 1140, Note_on_c, 2, 47, 64
4, 1198, Note_on_c, 2, 43, 64
4, 1200, Note_on_c, 2, 47, 0
4, 1258, Note_on_c, 2, 43, 0
4, 1260, Note_on_c, 2, 50, 64
4, 1320, Note_on_c, 2, 50, 0
4, 1320, Note_on_c, 2, 47, 64
4, 1380, Note_on_c, 2, 47, 0
4, 1380, Note_on_c, 2, 43, 64
4, 1440, Note_on_c, 2, 43, 0
4, 1440, Note_on_c, 2, 50, 64
4, 1500, Note_on_c, 2, 50, 0
4, 1500, Note_on_c, 2, 47, 64
4, 1560, Note_on_c, 2, 47, 0
4, 1560, Note_on_c, 2, 43, 64
4, 1620, Note_on_c, 2, 43, 0
4, 1620, Note_on_c, 2, 48, 64
4, 1680, Note_on_c, 2, 48, 0
4, 1680, Note_on_c, 2, 52, 64
4, 1740, Note_on_c, 2, 52, 0
4, 1740, Note_on_c, 2, 48, 64
4, 1800, Note_on_c, 2, 48, 0
4, 1800, Note_on_c, 2, 45, 64
4, 1860, Note_on_c, 2, 45, 0
4, 1860, Note_on_c, 2, 48, 64
4, 1920, Note_on_c, 2, 48, 0
4, 1920, Note_on_c, 2, 45, 64
4, 1980, Note_on_c, 2, 45, 0
4, 1980, Note_on_c, 2, 42, 64
4, 2040, Note_on_c, 2, 42, 0
4, 2040, Note_on_c, 2, 43, 64
4, 2100, Note_on_c, 2, 43, 0
4, 2100, Note_on_c, 2, 45, 64
4, 2160, Note_on_c, 2, 45, 0
4, 2160, Note_on_c, 2, 47, 64
4, 2220, Note_on_c, 2, 47, 0
4, 2220, Note_on_c, 2, 50, 64
4, 2280, Note_on_c, 2, 50, 0
4, 2280, Note_on_c, 2, 47, 64
4, 2340, Note_on_c, 2, 47, 0
4, 2340, Note_on_c, 2, 43, 64
4, 2400, Note_on_c, 2, 43, 0
4, 2400, Note_on_c, 2, 47, 64
4, 2460, Note_on_c, 2, 47, 0
4, 2460, Note_on_c, 2, 43, 64
4, 2520, Note_on_c, 2, 43, 0
4, 2520, Note_on_c, 2, 40, 64
4, 2580, Note_on_c, 2, 40, 0
4, 2580, Note_on_c, 2, 42, 64
4, 2640, Note_on_c, 2, 42, 0
4, 2640, Note_on_c, 2, 43, 64
4, 2700, Note_on_c, 2, 43, 0
4, 2700, Note_on_c, 2, 45, 64
4, 2760, Note_on_c, 2, 45, 0
4, 2760, Note_on_c, 2, 48, 64
4, 2820, Note_on_c, 2, 48, 0
4, 2820, Note_on_c, 2, 45, 64
4, 2880, Note_on_c, 2, 45, 0
4, 2880, Note_on_c, 2, 42, 64
4, 2940, Note_on_c, 2, 42, 0
4, 2940, Note_on_c, 2, 45, 64
4, 3000, Note_on_c, 2, 45, 0
4, 3000, Note_on_c, 2, 42, 64
4, 3060, Note_on_c, 2, 42, 0
4, 3060, Note_on_c, 2, 38, 64
4, 3120, Note_on_c, 2, 38, 0
4, 3120, Note_on_c, 2, 40, 64
4, 3180, Note_on_c, 2, 40, 0
4, 3180, Note_on_c, 2, 42, 64
4, 3240, Note_on_c, 2, 42, 0
4, 3240, Note_on_c, 2, 43, 64
4, 3270, Note_on_c, 2, 43, 0
4, 3270, Note_on_c, 2, 45, 64
4, 3300, Note_on_c, 2, 45, 0
4, 3300, Note_on_c, 2, 43, 64
4, 3420, Note_on_c, 2, 43, 0
4, 3420, Note_on_c, 2, 43, 64
4, 3480, Note_on_c, 2, 43, 0
4, 3480, Note_on_c, 2, 55, 64
4, 3540, Note_on_c, 2, 55, 0
4, 3540, Note_on_c, 2, 52, 64
4, 3600, Note_on_c, 2, 52, 0
4, 3600, Note_on_c, 2, 50, 64
4, 3660, Note_on_c, 2, 50, 0
4, 3660, Note_on_c, 2, 52, 64
4, 3720, Note_on_c, 2, 52, 0
4, 3720, Note_on_c, 2, 49, 64
4, 3780, Note_on_c, 2, 49, 0
4, 3780, Note_on_c, 2, 54, 64
4, 3810, Note_on_c, 2, 54, 0
4, 3810, Note_on_c, 2, 53, 64
4, 3840, Note_on_c, 2, 53, 0
4, 3840, Note_on_c, 2, 54, 64
4, 3960, Note_on_c, 2, 54, 0
4, 3960, Note_on_c, 2, 54, 64
4, 4020, Note_on_c, 2, 54, 0
4, 4020, Note_on_c, 2, 52, 64
4, 4080, Note_on_c, 2, 52, 0
4, 4080, Note_on_c, 2, 50, 64
4, 4140, Note_on_c, 2, 50, 0
4, 4140, Note_on_c, 2, 49, 64
4, 4200, Note_on_c, 2, 49, 0
4, 4200, Note_on_c, 2, 50, 64
4, 4260, Note_on_c, 2, 50, 0
4, 4260, Note_on_c, 2, 47, 64
4, 4320, Note_on_c, 2, 47, 0
4, 4320, Note_on_c, 2, 52, 64
4, 4380, Note_on_c, 2, 52, 0
4, 4380, Note_on_c, 2, 54, 64
4, 4440, Note_on_c, 2, 54, 0
4, 4440, Note_on_c, 2, 55, 64
4, 4500, Note_on_c, 2, 55, 0
4, 4500, Note_on_c, 2, 57, 64
4, 4560, Note_on_c, 2, 57, 0
4, 4560, Note_on_c, 2, 52, 64
4, 4620, Note_on_c, 2, 52, 0
4, 4620, Note_on_c, 2, 61, 64
4, 4680, Note_on_c, 2, 61, 0
4, 4680, Note_on_c, 2, 57, 64
4, 4740, Note_on_c, 2, 57, 0
4, 4740, Note_on_c, 2, 52, 64
4, 4800, Note_on_c, 2, 52, 0
4, 4800, Note_on_c, 2, 61, 64
4, 4860, Note_on_c, 2, 61, 0
4, 4860, Note_on_c, 2, 62, 64
4, 4890, Note_on_c, 2, 62, 0
4, 4890, Note_on_c, 2, 61, 64
4, 4920, Note_on_c, 2, 61, 0
4, 4920, Note_on_c, 2, 62, 64
4, 5040, Note_on_c, 2, 62, 0
4, 5040, Note_on_c, 2, 62, 64
4, 5100, Note_on_c, 2, 62, 0
4, 5100, Note_on_c, 2, 50, 64
4, 5160, Note_on_c, 2, 50, 0
4, 5160, Note_on_c, 2, 52, 64
4, 5220, Note_on_c, 2, 52, 0
4, 5220, Note_on_c, 2, 54, 64
4, 5280, Note_on_c, 2, 54, 0
4, 5280, Note_on_c, 2, 52, 64
4, 5340, Note_on_c, 2, 52, 0
4, 5340, Note_on_c, 2, 50, 64
4, 5400, Note_on_c, 2, 50, 0
4, 5400, Note_on_c, 2, 55, 64
4, 5430, Note_on_c, 2, 55, 0
4, 5430, Note_on_c, 2, 57, 64
4, 5460, Note_on_c, 2, 57, 0
4, 5460, Note_on_c, 2, 55, 64
4, 5580, Note_on_c, 2, 55, 0
4, 5580, Note_on_c, 2, 55, 64
4, 5640, Note_on_c, 2, 55, 0
4, 5640, Note_on_c, 2, 52, 64
4, 5700, Note_on_c, 2, 52, 0
4, 5700, Note_on_c, 2, 54, 64
4, 5760, Note_on_c, 2, 54, 0
4, 5760, Note_on_c, 2, 55, 64
4, 5820, Note_on_c, 2, 55, 0
4, 5820, Note_on_c, 2, 54, 64
4, 5880, Note_on_c, 2, 54, 0
4, 5880, Note_on_c, 2, 52, 64
4, 5940, Note_on_c, 2, 52, 0
4, 5940, Note_on_c, 2, 57, 64
4, 5970, Note_on_c, 2, 57, 0
4, 5970, Note_on_c, 2, 59, 64
4, 6000, Note_on_c, 2, 59, 0
4, 6000, Note_on_c, 2, 57, 64
4, 6000, Control_c, 2, 7, 111
4, 6030, Control_c, 2, 7, 110
4, 6060, Control_c, 2, 7, 109
4, 6090, Control_c, 2, 7, 108
4, 6120, Note_on_c, 2, 57, 0
4, 6120, Note_on_c, 2, 57, 64
4, 6120, Control_c, 2, 7, 107
4, 6150, Control_c, 2, 7, 106
4, 6170, Control_c, 2, 7, 105
4, 6180, Note_on_c, 2, 57, 0
4, 6180, Note_on_c, 2, 55, 64
4, 6200, Control_c, 2, 7, 104
4, 6230, Control_c, 2, 7, 103
4, 6240, Note_on_c, 2, 55, 0
4, 6240, Note_on_c, 2, 54, 64
4, 6260, Control_c, 2, 7, 102
4, 6290, Control_c, 2, 7, 101
4, 6300, Note_on_c, 2, 54, 0
4, 6300, Note_on_c, 2, 52, 64
4, 6310, Control_c, 2, 7, 100
4, 6340, Control_c, 2, 7, 99
4, 6360, Note_on_c, 2, 52, 0
4, 6360, Note_on_c, 2, 50, 64
4, 6370, Control_c, 2, 7, 98
4, 6400, Control_c, 2, 7, 97
4, 6420, Note_on_c, 2, 50, 0
4, 6420, Note_on_c, 2, 49, 64
4, 6430, Control_c, 2, 7, 96
4, 6450, Control_c, 2, 7, 95
4, 6480, Note_on_c, 2, 49, 0
4, 6480, Note_on_c, 2, 50, 64
4, 6480, Control_c, 2, 7, 94
4, 6510, Control_c, 2, 7, 93
4, 6540, Note_on_c, 2, 50, 0
4, 6540, Note_on_c, 2, 52, 64
4, 6540, Control_c, 2, 7, 92
4, 6570, Control_c, 2, 7, 91
4, 6600, Note_on_c, 2, 52, 0
4, 6600, Note_on_c, 2, 54, 64
4, 6600, Control_c, 2, 7, 90
4, 6620, Control_c, 2, 7, 89
4, 6650, Control_c, 2, 7, 88
4, 6660, Note_on_c, 2, 54, 0
4, 6660, Note_on_c, 2, 55, 64
4, 6680, Control_c, 2, 7, 87
4, 6710, Control_c, 2, 7, 86
4, 6720, Note_on_c, 2, 55, 0
4, 6720, Note_on_c, 2, 57, 64
4, 6740, Control_c, 2, 7, 85
4, 6760, Control_c, 2, 7, 84
4, 6780, Note_on_c, 2, 57, 0
4, 6780, Note_on_c, 2, 59, 64
4, 6790, Control_c, 2, 7, 83
4, 6820, Control_c, 2, 7, 82
4, 6840, Note_on_c, 2, 59, 0
4, 6840, Note_on_c, 2, 57, 64
4, 6850, Control_c, 2, 7, 81
4, 6880, Control_c, 2, 7, 80
4, 6900, Control_c, 2, 7, 79
4, 6930, Control_c, 2, 7, 78
4, 6960, Note_on_c, 2, 57, 0
4, 6960, Note_on_c, 2, 45, 64
4, 6960, Control_c, 2, 7, 77
4, 6990, Control_c, 2, 7, 76
4, 7020, Note_on_c, 2, 45, 0
4, 7020, Note_on_c, 2, 50, 64
4, 7020, Control_c, 2, 7, 75
4, 7040, Control_c, 2, 7, 74
4, 7080, Note_on_c, 2, 50, 0
4, 7080, Note_on_c, 2, 54, 64
4, 7140, Note_on_c, 2, 54, 0
4, 7140, Note_on_c, 2, 57, 64
4, 7200, Note_on_c, 2, 57, 0
4, 7200, Note_on_c, 2, 54, 64
4, 7260, Note_on_c, 2, 54, 0
4, 7260, Note_on_c, 2, 50, 64
4, 7320, Note_on_c, 2, 50, 0
4, 7320, Note_on_c, 2, 57, 64
4, 7380, Note_on_c, 2, 57, 0
4, 7380, Note_on_c, 2, 54, 64
4, 7440, Note_on_c, 2, 54, 0
4, 7440, Note_on_c, 2, 50, 64
4, 7500, Note_on_c, 2, 50, 0
4, 7500, Note_on_c, 2, 62, 64
4, 7560, Note_on_c, 2, 62, 0
4, 7560, Note_on_c, 2, 61, 64
4, 7590, Note_on_c, 2, 61, 0
4, 7590, Note_on_c, 2, 62, 64
4, 7620, Note_on_c, 2, 62, 0
4, 7620, Note_on_c, 2, 61, 64
4, 7740, Note_on_c, 2, 61, 0
4, 7740, Note_on_c, 2, 57, 64
4, 7920, Note_on_c, 2, 57, 0
4, 8100, Note_on_c, 2, 50, 64
4, 8110, Control_c, 2, 7, 77
4, 8160, Note_on_c, 2, 50, 0
4, 8160, Note_on_c, 2, 54, 64
4, 8180, Control_c, 2, 7, 78
4, 8220, Note_on_c, 2, 54, 0
4, 8220, Note_on_c, 2, 57, 64
4, 8250, Control_c, 2, 7, 79
4, 8280, Note_on_c, 2, 57, 0
4, 8280, Note_on_c, 2, 54, 64
4, 8310, Control_c, 2, 7, 80
4, 8340, Note_on_c, 2, 54, 0
4, 8340, Note_on_c, 2, 50, 64
4, 8380, Control_c, 2, 7, 81
4, 8400, Note_on_c, 2, 50, 0
4, 8400, Note_on_c, 2, 57, 64
4, 8440, Control_c, 2, 7, 82
4, 8460, Note_on_c, 2, 57, 0
4, 8460, Note_on_c, 2, 54, 64
4, 8510, Control_c, 2, 7, 83
4, 8520, Note_on_c, 2, 54, 0
4, 8520, Note_on_c, 2, 50, 64
4, 8570, Control_c, 2, 7, 84
4, 8580, Note_on_c, 2, 50, 0
4, 8580, Note_on_c, 2, 60, 64
4, 8640, Note_on_c, 2, 60, 0
4, 8640, Note_on_c, 2, 59, 64
4, 8640, Control_c, 2, 7, 85
4, 8670, Note_on_c, 2, 59, 0
4, 8670, Note_on_c, 2, 60, 64
4, 8700, Note_on_c, 2, 60, 0
4, 8700, Note_on_c, 2, 59, 64
4, 8700, Control_c, 2, 7, 86
4, 8770, Control_c, 2, 7, 87
4, 8820, Note_on_c, 2, 59, 0
4, 8820, Note_on_c, 2, 55, 64
4, 8830, Control_c, 2, 7, 88
4, 8900, Control_c, 2, 7, 89
4, 8970, Control_c, 2, 7, 90
4, 9000, Note_on_c, 2, 55, 0
4, 9030, Control_c, 2, 7, 91
4, 9100, Control_c, 2, 7, 92
4, 9160, Control_c, 2, 7, 93
4, 9180, Note_on_c, 2, 48, 64
4, 9210, Note_on_c, 2, 48, 0
4, 9210, Note_on_c, 2, 47, 64
4, 9230, Control_c, 2, 7, 94
4, 9240, Note_on_c, 2, 47, 0
4, 9240, Note_on_c, 2, 48, 64
4, 9290, Control_c, 2, 7, 95
4, 9360, Note_on_c, 2, 48, 0
4, 9360, Note_on_c, 2, 48, 64
4, 9360, Control_c, 2, 7, 96
4, 9420, Note_on_c, 2, 48, 0
4, 9420, Note_on_c, 2, 50, 64
4, 9420, Control_c, 2, 7, 97
4, 9480, Note_on_c, 2, 50, 0
4, 9480, Note_on_c, 2, 52, 64
4, 9490, Control_c, 2, 7, 98
4, 9540, Note_on_c, 2, 52, 0
4, 9540, Note_on_c, 2, 42, 64
4, 9550, Control_c, 2, 7, 99
4, 9600, Note_on_c, 2, 42, 0
4, 9600, Note_on_c, 2, 43, 64
4, 9620, Control_c, 2, 7, 100
4, 9660, Note_on_c, 2, 43, 0
4, 9660, Note_on_c, 2, 45, 64
4, 9690, Control_c, 2, 7, 101
4, 9720, Note_on_c, 2, 45, 0
4, 9720, Note_on_c, 2, 47, 64
4, 9750, Note_on_c, 2, 47, 0
4, 9750, Note_on_c, 2, 46, 64
4, 9750, Control_c, 2, 7, 102
4, 9780, Note_on_c, 2, 46, 0
4, 9780, Note_on_c, 2, 47, 64
4, 9820, Control_c, 2, 7, 103
4, 9880, Control_c, 2, 7, 104
4, 9900, Note_on_c, 2, 47, 0
4, 9900, Note_on_c, 2, 47, 64
4, 9950, Control_c, 2, 7, 105
4, 9960, Note_on_c, 2, 47, 0
4, 9960, Note_on_c, 2, 48, 64
4, 10010, Control_c, 2, 7, 106
4, 10020, Note_on_c, 2, 48, 0
4, 10020, Note_on_c, 2, 50, 64
4, 10080, Note_on_c, 2, 50, 0
4, 10080, Note_on_c, 2, 40, 64
4, 10080, Control_c, 2, 7, 107
4, 10140, Note_on_c, 2, 40, 0
4, 10140, Note_on_c, 2, 42, 64
4, 10140, Control_c, 2, 7, 108
4, 10200, Note_on_c, 2, 42, 0
4, 10200, Note_on_c, 2, 43, 64
4, 10210, Control_c, 2, 7, 109
4, 10260, Note_on_c, 2, 43, 0
4, 10260, Note_on_c, 2, 45, 64
4, 10270, Control_c, 2, 7, 110
4, 10320, Note_on_c, 2, 45, 0
4, 10320, Note_on_c, 2, 48, 64
4, 10380, Note_on_c, 2, 48, 0
4, 10380, Note_on_c, 2, 52, 64
4, 10440, Note_on_c, 2, 52, 0
4, 10440, Note_on_c, 2, 57, 64
4, 10500, Note_on_c, 2, 57, 0
4, 10500, Note_on_c, 2, 52, 64
4, 10560, Note_on_c, 2, 52, 0
4, 10560, Note_on_c, 2, 48, 64
4, 10620, Note_on_c, 2, 48, 0
4, 10620, Note_on_c, 2, 45, 64
4, 10680, Note_on_c, 2, 45, 0
4, 10680, Note_on_c, 2, 47, 64
4, 10740, Note_on_c, 2, 47, 0
4, 10740, Note_on_c, 2, 48, 64
4, 10800, Note_on_c, 2, 48, 0
4, 10800, Note_on_c, 2, 50, 64
4, 10860, Note_on_c, 2, 50, 0
4, 10860, Note_on_c, 2, 54, 64
4, 10920, Note_on_c, 2, 54, 0
4, 10920, Note_on_c, 2, 57, 64
4, 10980, Note_on_c, 2, 57, 0
4, 10980, Note_on_c, 2, 62, 64
4, 11040, Note_on_c, 2, 62, 0
4, 11040, Note_on_c, 2, 57, 64
4, 11100, Note_on_c, 2, 57, 0
4, 11100, Note_on_c, 2, 54, 64
4, 11160, Note_on_c, 2, 54, 0
4, 11160, Note_on_c, 2, 50, 64
4, 11220, Note_on_c, 2, 50, 0
4, 11220, Note_on_c, 2, 52, 64
4, 11280, Note_on_c, 2, 52, 0
4, 11280, Note_on_c, 2, 54, 64
4, 11340, Note_on_c, 2, 54, 0
4, 11340, Note_on_c, 2, 43, 64
4, 11400, Note_on_c, 2, 43, 0
4, 11400, Note_on_c, 2, 47, 64
4, 11460, Note_on_c, 2, 47, 0
4, 11460, Note_on_c, 2, 50, 64
4, 11520, Note_on_c, 2, 50, 0
4, 11520, Note_on_c, 2, 55, 64
4, 11580, Note_on_c, 2, 55, 0
4, 11580, Note_on_c, 2, 50, 64
4, 11640, Note_on_c, 2, 50, 0
4, 11640, Note_on_c, 2, 47, 64
4, 11700, Note_on_c, 2, 47, 0
4, 11700, Note_on_c, 2, 43, 64
4, 11760, Note_on_c, 2, 43, 0
4, 11760, Note_on_c, 2, 45, 64
4, 11820, Note_on_c, 2, 45, 0
4, 11820, Note_on_c, 2, 47, 64
4, 11880, Note_on_c, 2, 47, 0
4, 11880, Note_on_c, 2, 40, 64
4, 11940, Note_on_c, 2, 40, 0
4, 11940, Note_on_c, 2, 43, 64
4, 12000, Note_on_c, 2, 43, 0
4, 12000, Note_on_c, 2, 47, 64
4, 12060, Note_on_c, 2, 47, 0
4, 12060, Note_on_c, 2, 52, 64
4, 12120, Note_on_c, 2, 52, 0
4, 12120, Note_on_c, 2, 47, 64
4, 12180, Note_on_c, 2, 47, 0
4, 12180, Note_on_c, 2, 43, 64
4, 12240, Note_on_c, 2, 43, 0
4, 12240, Note_on_c, 2, 40, 64
4, 12300, Note_on_c, 2, 40, 0
4, 12300, Note_on_c, 2, 42, 64
4, 12360, Note_on_c, 2, 42, 0
4, 12360, Note_on_c, 2, 43, 64
4, 12420, Note_on_c, 2, 43, 0
4, 12420, Note_on_c, 2, 48, 64
4, 12450, Note_on_c, 2, 48, 0
4, 12450, Note_on_c, 2, 50, 64
4, 12480, Note_on_c, 2, 50, 0
4, 12480, Note_on_c, 2, 48, 64
4, 12510, Note_on_c, 2, 48, 0
4, 12510, Note_on_c, 2, 50, 64
4, 12540, Note_on_c, 2, 50, 0
4, 12540, Note_on_c, 2, 48, 64
4, 12570, Note_on_c, 2, 48, 0
4, 12570, Note_on_c, 2, 50, 64
4, 12600, Note_on_c, 2, 50, 0
4, 12600, Note_on_c, 2, 48, 64
4, 12630, Note_on_c, 2, 48, 0
4, 12630, Note_on_c, 2, 50, 64
4, 12660, Note_on_c, 2, 50, 0
4, 12660, Note_on_c, 2, 48, 64
4, 12690, Note_on_c, 2, 48, 0
4, 12690, Note_on_c, 2, 50, 64
4, 12720, Note_on_c, 2, 50, 0
4, 12720, Note_on_c, 2, 48, 64
4, 12750, Note_on_c, 2, 48, 0
4, 12750, Note_on_c, 2, 50, 64
4, 12780, Note_on_c, 2, 50, 0
4, 12780, Note_on_c, 2, 48, 64
4, 12810, Note_on_c, 2, 48, 0
4, 12810, Note_on_c, 2, 50, 64
4, 12840, Note_on_c, 2, 50, 0
4, 12840, Note_on_c, 2, 48, 64
4, 12870, Note_on_c, 2, 48, 0
4, 12870, Note_on_c, 2, 50, 64
4, 12900, Note_on_c, 2, 50, 0
4, 12900, Note_on_c, 2, 48, 64
4, 12930, Note_on_c, 2, 48, 0
4, 12930, Note_on_c, 2, 50, 64
4, 12960, Note_on_c, 2, 50, 0
4, 12960, Note_on_c, 2, 48, 64
4, 12980, Control_c, 2, 7, 107
4, 12990, Note_on_c, 2, 48, 0
4, 12990, Note_on_c, 2, 50, 64
4, 13020, Note_on_c, 2, 50, 0
4, 13020, Note_on_c, 2, 48, 64
4, 13050, Note_on_c, 2, 48, 0
4, 13050, Note_on_c, 2, 50, 64
4, 13080, Note_on_c, 2, 50, 0
4, 13080, Note_on_c, 2, 48, 64
4, 13110, Note_on_c, 2, 48, 0
4, 13110, Note_on_c, 2, 50, 64
4, 13110, Control_c, 2, 7, 108
4, 13140, Note_on_c, 2, 50, 0
4, 13140, Note_on_c, 2, 48, 64
4, 13170, Note_on_c, 2, 48, 0
4, 13170, Note_on_c, 2, 50, 64
4, 13200, Note_on_c, 2, 50, 0
4, 13200, Note_on_c, 2, 48, 64
4, 13230, Note_on_c, 2, 48, 0
4, 13230, Note_on_c, 2, 50, 64
4, 13230, Control_c, 2, 7, 109
4, 13260, Note_on_c, 2, 50, 0
4, 13260, Note_on_c, 2, 48, 64
4, 13290, Note_on_c, 2, 48, 0
4, 13290, Note_on_c, 2, 50, 64
4, 13320, Note_on_c, 2, 50, 0
4, 13320, Note_on_c, 2, 48, 64
4, 13350, Note_on_c, 2, 48, 0
4, 13350, Note_on_c, 2, 50, 64
4, 13360, Control_c, 2, 7, 110
4, 13380, Note_on_c, 2, 50, 0
4, 13380, Note_on_c, 2, 48, 64
4, 13410, Note_on_c, 2, 48, 0
4, 13410, Note_on_c, 2, 50, 64
4, 13440, Note_on_c, 2, 50, 0
4, 13440, Note_on_c, 2, 48, 64
4, 13470, Note_on_c, 2, 48, 0
4, 13470, Note_on_c, 2, 50, 64
4, 13480, Control_c, 2, 7, 111
4, 13500, Note_on_c, 2, 50, 0
4, 13500, Note_on_c, 2, 48, 64
4, 13560, Note_on_c, 2, 48, 0
4, 13560, Note_on_c, 2, 50, 64
4, 13610, Control_c, 2, 7, 112
4, 13620, Note_on_c, 2, 50, 0
4, 13620, Note_on_c, 2, 54, 64
4, 13680, Note_on_c, 2, 54, 0
4, 13680, Note_on_c, 2, 57, 64
4, 13730, Control_c, 2, 7, 113
4, 13740, Note_on_c, 2, 57, 0
4, 13740, Note_on_c, 2, 54, 64
4, 13800, Note_on_c, 2, 54, 0
4, 13800, Note_on_c, 2, 50, 64
4, 13860, Note_on_c, 2, 50, 0
4, 13860, Note_on_c, 2, 48, 64
4, 13860, Control_c, 2, 7, 114
4, 13920, Note_on_c, 2, 48, 0
4, 13920, Note_on_c, 2, 47, 64
4, 13980, Note_on_c, 2, 47, 0
4, 13980, Note_on_c, 2, 45, 64
4, 13980, Control_c, 2, 7, 115
4, 14040, Note_on_c, 2, 45, 0
4, 14040, Note_on_c, 2, 47, 64
4, 14100, Note_on_c, 2, 47, 0
4, 14100, Note_on_c, 2, 43, 64
4, 14110, Control_c, 2, 7, 116
4, 14160, Note_on_c, 2, 43, 0
4, 14160, Note_on_c, 2, 47, 64
4, 14220, Note_on_c, 2, 47, 0
4, 14220, Note_on_c, 2, 50, 64
4, 14230, Control_c, 2, 7, 117
4, 14280, Note_on_c, 2, 50, 0
4, 14280, Note_on_c, 2, 47, 64
4, 14340, Note_on_c, 2, 47, 0
4, 14340, Note_on_c, 2, 43, 64
4, 14360, Control_c, 2, 7, 118
4, 14400, Note_on_c, 2, 43, 0
4, 14400, Note_on_c, 2, 50, 64
4, 14460, Note_on_c, 2, 50, 0
4, 14460, Note_on_c, 2, 47, 64
4, 14480, Control_c, 2, 7, 119
4, 14520, Note_on_c, 2, 47, 0
4, 14520, Note_on_c, 2, 43, 64
4, 14580, Note_on_c, 2, 43, 0
4, 14580, Note_on_c, 2, 42, 64
4, 14600, Control_c, 2, 7, 120
4, 14640, Note_on_c, 2, 42, 0
4, 14640, Note_on_c, 2, 38, 64
4, 14700, Note_on_c, 2, 38, 0
4, 14700, Note_on_c, 2, 42, 64
4, 14760, Note_on_c, 2, 42, 0
4, 14760, Note_on_c, 2, 45, 64
4, 14820, Note_on_c, 2, 45, 0
4, 14820, Note_on_c, 2, 42, 64
4, 14880, Note_on_c, 2, 42, 0
4, 14880, Note_on_c, 2, 38, 64
4, 14940, Note_on_c, 2, 38, 0
4, 14940, Note_on_c, 2, 45, 64
4, 15000, Note_on_c, 2, 45, 0
4, 15000, Note_on_c, 2, 42, 64
4, 15060, Note_on_c, 2, 42, 0
4, 15060, Note_on_c, 2, 38, 64
4, 15120, Note_on_c, 2, 38, 0
4, 15120, Note_on_c, 2, 43, 64
4, 15180, Note_on_c, 2, 43, 0
4, 15180, Note_on_c, 2, 45, 64
4, 15240, Note_on_c, 2, 45, 0
4, 15240, Note_on_c, 2, 47, 64
4, 15300, Note_on_c, 2, 47, 0
4, 15300, Note_on_c, 2, 45, 64
4, 15360, Note_on_c, 2, 45, 0
4, 15360, Note_on_c, 2, 47, 64
4, 15420, Note_on_c, 2, 47, 0
4, 15420, Note_on_c, 2, 48, 64
4, 15480, Note_on_c, 2, 48, 0
4, 15480, Note_on_c, 2, 47, 64
4, 15540, Note_on_c, 2, 47, 0
4, 15540, Note_on_c, 2, 48, 64
4, 15600, Note_on_c, 2, 48, 0
4, 15600, Note_on_c, 2, 50, 64
4, 15660, Note_on_c, 2, 50, 0
4, 15660, Note_on_c, 2, 40, 64
4, 15960, Note_on_c, 2, 40, 0
4, 15960, Note_on_c, 2, 52, 64
4, 16020, Note_on_c, 2, 52, 0
4, 16020, Note_on_c, 2, 54, 64
4, 16080, Note_on_c, 2, 54, 0
4, 16080, Note_on_c, 2, 52, 64
4, 16140, Note_on_c, 2, 52, 0
4, 16140, Note_on_c, 2, 50, 64
4, 16200, Note_on_c, 2, 50, 0
4, 16200, Note_on_c, 2, 55, 64
4, 16230, Note_on_c, 2, 55, 0
4, 16230, Note_on_c, 2, 54, 64
4, 16260, Note_on_c, 2, 54, 0
4, 16260, Note_on_c, 2, 55, 64
4, 16320, Note_on_c, 2, 55, 0
4, 16320, Note_on_c, 2, 47, 64
4, 16380, Note_on_c, 2, 47, 0
4, 16380, Note_on_c, 2, 52, 64
4, 16440, Note_on_c, 2, 52, 0
4, 16440, Note_on_c, 2, 50, 64
4, 16500, Note_on_c, 2, 50, 0
4, 16500, Note_on_c, 2, 48, 64
4, 16560, Note_on_c, 2, 48, 0
4, 16560, Note_on_c, 2, 50, 64
4, 16590, Note_on_c, 2, 50, 0
4, 16590, Note_on_c, 2, 49, 64
4, 16620, Note_on_c, 2, 49, 0
4, 16620, Note_on_c, 2, 50, 64
4, 16680, Note_on_c, 2, 50, 0
4, 16680, Note_on_c, 2, 38, 64
4, 16740, Note_on_c, 2, 38, 0
4, 16740, Note_on_c, 2, 43, 64
4, 16980, Note_on_c, 2, 43, 0
4, 16980, Note_on_c, 2, 47, 64
4, 17040, Note_on_c, 2, 47, 0
4, 17040, Note_on_c, 2, 50, 64
4, 17100, Note_on_c, 2, 50, 0
4, 17100, Note_on_c, 2, 55, 64
4, 17280, Note_on_c, 2, 55, 0
4, 17280, End_track
0, 0, End_of_file