0, 0, Header, 1, 16, 384
1, 0, Start_track
1, 0, Time_signature, 12, 3, 96, 8
1, 0, Sequencer_specific, 03, 00, 00, 41
1, 0, Tempo, 769230
1, 184320, Tempo, 1538461
1, 184320, End_track
2, 0, Start_track
2, 0, Title_t, "Bass Solo"
2, 0, Control_c, 0, 0, 0
2, 0, Program_c, 0, 70
2, 0, Control_c, 0, 10, 63
2, 0, Key_signature, -2, "major"
2, 0, Control_c, 0, 121, 0
2, 0, Control_c, 0, 7, 127
2, 19008, Note_on_c, 0, 53, 127
2, 19328, Note_off_c, 0, 53, 0
2, 19392, Note_on_c, 0, 51, 127
2, 19580, Note_off_c, 0, 51, 0
2, 19584, Note_on_c, 0, 50, 127
2, 19904, Note_off_c, 0, 50, 0
2, 19968, Note_on_c, 0, 51, 127
2, 20156, Note_off_c, 0, 51, 0
2, 20160, Note_on_c, 0, 53, 127
2, 20352, Note_off_c, 0, 53, 0
2, 20352, Note_on_c, 0, 55, 127
2, 20540, Note_off_c, 0, 55, 0
2, 20544, Note_on_c, 0, 57, 127
2, 20732, Note_off_c, 0, 57, 0
2, 20736, Note_on_c, 0, 58, 127
2, 23552, Note_off_c, 0, 58, 0
2, 25920, Note_on_c, 0, 53, 127
2, 26240, Note_off_c, 0, 53, 0
2, 26304, Note_on_c, 0, 51, 127
2, 26492, Note_off_c, 0, 51, 0
2, 26496, Note_on_c, 0, 50, 127
2, 26816, Note_off_c, 0, 50, 0
2, 26880, Note_on_c, 0, 51, 127
2, 27068, Note_off_c, 0, 51, 0
2, 27072, Note_on_c, 0, 53, 127
2, 27264, Note_off_c, 0, 53, 0
2, 27264, Note_on_c, 0, 55, 127
2, 27452, Note_off_c, 0, 55, 0
2, 27456, Note_on_c, 0, 57, 127
2, 27644, Note_off_c, 0, 57, 0
2, 27648, Note_on_c, 0, 58, 127
2, 28412, Note_off_c, 0, 58, 0
2, 28416, Note_on_c, 0, 50, 127
2, 28604, Note_off_c, 0, 50, 0
2, 28608, Note_on_c, 0, 51, 127
2, 28796, Note_off_c, 0, 51, 0
2, 28800, Note_on_c, 0, 57, 127
2, 28992, Note_off_c, 0, 57, 0
2, 28992, Note_on_c, 0, 58, 127
2, 29180, Note_off_c, 0, 58, 0
2, 29184, Note_on_c, 0, 51, 127
2, 29504, Note_off_c, 0, 51, 0
2, 29568, Note_on_c, 0, 48, 127
2, 29756, Note_off_c, 0, 48, 0
2, 29760, Note_on_c, 0, 50, 127
2, 29948, Note_off_c, 0, 50, 0
2, 29952, Note_on_c, 0, 57, 127
2, 30144, Note_off_c, 0, 57, 0
2, 30144, Note_on_c, 0, 58, 127
2, 30332, Note_off_c, 0, 58, 0
2, 30336, Note_on_c, 0, 50, 127
2, 30656, Note_off_c, 0, 50, 0
2, 30720, Note_on_c, 0, 46, 127
2, 30908, Note_off_c, 0, 46, 0
2, 30912, Note_on_c, 0, 48, 127
2, 31100, Note_off_c, 0, 48, 0
2, 31104, Note_on_c, 0, 57, 127
2, 31296, Note_off_c, 0, 57, 0
2, 31296, Note_on_c, 0, 58, 127
2, 31484, Note_off_c, 0, 58, 0
2, 31488, Note_on_c, 0, 48, 127
2, 31808, Note_off_c, 0, 48, 0
2, 31872, Note_on_c, 0, 46, 127
2, 32060, Note_off_c, 0, 46, 0
2, 32064, Note_on_c, 0, 51, 127
2, 32252, Note_off_c, 0, 51, 0
2, 32256, Note_on_c, 0, 51, 127
2, 32300, Note_off_c, 0, 51, 0
2, 32304, Note_on_c, 0, 50, 127
2, 32348, Note_off_c, 0, 50, 0
2, 32352, Note_on_c, 0, 51, 127
2, 32396, Note_off_c, 0, 51, 0
2, 32400, Note_on_c, 0, 50, 127
2, 32444, Note_off_c, 0, 50, 0
2, 32448, Note_on_c, 0, 51, 127
2, 32492, Note_off_c, 0, 51, 0
2, 32496, Note_on_c, 0, 50, 127
2, 32636, Note_off_c, 0, 50, 0
2, 32640, Note_on_c, 0, 48, 127
2, 32828, Note_off_c, 0, 48, 0
2, 35136, Note_on_c, 0, 58, 127
2, 35328, Note_off_c, 0, 58, 0
2, 35328, Note_on_c, 0, 57, 127
2, 35516, Note_off_c, 0, 57, 0
2, 35520, Note_on_c, 0, 58, 127
2, 35708, Note_off_c, 0, 58, 0
2, 35712, Note_on_c, 0, 63, 127
2, 36032, Note_off_c, 0, 63, 0
2, 36096, Note_on_c, 0, 60, 127
2, 36284, Note_off_c, 0, 60, 0
2, 36288, Note_on_c, 0, 57, 127
2, 36480, Note_off_c, 0, 57, 0
2, 36480, Note_on_c, 0, 58, 127
2, 36668, Note_off_c, 0, 58, 0
2, 36672, Note_on_c, 0, 60, 127
2, 36860, Note_off_c, 0, 60, 0
2, 36864, Note_on_c, 0, 62, 127
2, 37184, Note_off_c, 0, 62, 0
2, 39744, Note_on_c, 0, 51, 127
2, 39936, Note_off_c, 0, 51, 0
2, 39936, Note_on_c, 0, 50, 127
2, 40124, Note_off_c, 0, 50, 0
2, 40128, Note_on_c, 0, 51, 127
2, 40316, Note_off_c, 0, 51, 0
2, 40320, Note_on_c, 0, 56, 127
2, 40640, Note_off_c, 0, 56, 0
2, 40704, Note_on_c, 0, 53, 127
2, 40892, Note_off_c, 0, 53, 0
2, 40896, Note_on_c, 0, 50, 127
2, 41088, Note_off_c, 0, 50, 0
2, 41088, Note_on_c, 0, 51, 127
2, 41276, Note_off_c, 0, 51, 0
2, 41280, Note_on_c, 0, 53, 127
2, 41468, Note_off_c, 0, 53, 0
2, 41472, Note_on_c, 0, 55, 127
2, 42236, Note_off_c, 0, 55, 0
2, 42240, Note_on_c, 0, 55, 127
2, 42428, Note_off_c, 0, 55, 0
2, 42432, Note_on_c, 0, 56, 127
2, 42620, Note_off_c, 0, 56, 0
2, 42624, Note_on_c, 0, 62, 127
2, 42816, Note_off_c, 0, 62, 0
2, 42816, Note_on_c, 0, 63, 127
2, 43004, Note_off_c, 0, 63, 0
2, 43008, Note_on_c, 0, 56, 127
2, 43328, Note_off_c, 0, 56, 0
2, 43392, Note_on_c, 0, 53, 127
2, 43580, Note_off_c, 0, 53, 0
2, 43584, Note_on_c, 0, 55, 127
2, 43772, Note_off_c, 0, 55, 0
2, 43776, Note_on_c, 0, 62, 127
2, 43968, Note_off_c, 0, 62, 0
2, 43968, Note_on_c, 0, 63, 127
2, 44156, Note_off_c, 0, 63, 0
2, 44160, Note_on_c, 0, 55, 127
2, 44480, Note_off_c, 0, 55, 0
2, 44544, Note_on_c, 0, 51, 127
2, 44732, Note_off_c, 0, 51, 0
2, 44736, Note_on_c, 0, 53, 127
2, 44924, Note_off_c, 0, 53, 0
2, 44928, Note_on_c, 0, 62, 127
2, 45120, Note_off_c, 0, 62, 0
2, 45120, Note_on_c, 0, 63, 127
2, 45308, Note_off_c, 0, 63, 0
2, 45312, Note_on_c, 0, 53, 127
2, 45632, Note_off_c, 0, 53, 0
2, 45696, Note_on_c, 0, 51, 127
2, 45884, Note_off_c, 0, 51, 0
2, 45888, Note_on_c, 0, 56, 127
2, 46076, Note_off_c, 0, 56, 0
2, 46080, Note_on_c, 0, 55, 127
2, 46464, Note_off_c, 0, 55, 0
2, 46464, Note_on_c, 0, 53, 127
2, 46848, Note_off_c, 0, 53, 0
2, 46848, Note_on_c, 0, 50, 127
2, 47040, Note_off_c, 0, 50, 0
2, 47040, Note_on_c, 0, 51, 127
2, 47232, Note_off_c, 0, 51, 0
2, 47232, Note_on_c, 0, 53, 127
2, 47424, Note_off_c, 0, 53, 0
2, 47424, Note_on_c, 0, 55, 127
2, 47616, Note_off_c, 0, 55, 0
2, 47616, Note_on_c, 0, 56, 127
2, 48000, Note_off_c, 0, 56, 0
2, 48000, Note_on_c, 0, 47, 127
2, 48192, Note_off_c, 0, 47, 0
2, 48192, Note_on_c, 0, 50, 127
2, 48384, Note_off_c, 0, 50, 0
2, 48384, Note_on_c, 0, 51, 127
2, 49152, Note_off_c, 0, 51, 0
2, 49152, Note_on_c, 0, 48, 127
2, 49344, Note_off_c, 0, 48, 0
2, 49344, Note_on_c, 0, 50, 127
2, 49536, Note_off_c, 0, 50, 0
2, 49536, Note_on_c, 0, 51, 127
2, 50304, Note_off_c, 0, 51, 0
2, 50304, Note_on_c, 0, 45, 127
2, 50496, Note_off_c, 0, 45, 0
2, 50496, Note_on_c, 0, 48, 127
2, 50688, Note_off_c, 0, 48, 0
2, 50688, Note_on_c, 0, 50, 127
2, 50880, Note_off_c, 0, 50, 0
2, 50880, Note_on_c, 0, 48, 127
2, 51068, Note_off_c, 0, 48, 0
2, 51072, Note_on_c, 0, 46, 127
2, 51260, Note_off_c, 0, 46, 0
2, 51264, Note_on_c, 0, 55, 127
2, 51456, Note_off_c, 0, 55, 0
2, 51456, Note_on_c, 0, 56, 127
2, 51644, Note_off_c, 0, 56, 0
2, 51648, Note_on_c, 0, 55, 127
2, 51836, Note_off_c, 0, 55, 0
2, 51840, Note_on_c, 0, 53, 127
2, 52032, Note_off_c, 0, 53, 0
2, 52032, Note_on_c, 0, 58, 127
2, 52220, Note_off_c, 0, 58, 0
2, 52224, Note_on_c, 0, 46, 127
2, 52412, Note_off_c, 0, 46, 0
2, 52416, Note_on_c, 0, 48, 127
2, 52608, Note_off_c, 0, 48, 0
2, 52608, Note_on_c, 0, 50, 127
2, 52796, Note_off_c, 0, 50, 0
2, 52800, Note_on_c, 0, 51, 127
2, 52988, Note_off_c, 0, 51, 0
2, 52992, Note_on_c, 0, 50, 127
2, 53180, Note_off_c, 0, 50, 0
2, 53184, Note_on_c, 0, 58, 127
2, 53372, Note_off_c, 0, 58, 0
2, 53376, Note_on_c, 0, 57, 127
2, 53564, Note_off_c, 0, 57, 0
2, 53568, Note_on_c, 0, 58, 127
2, 53760, Note_off_c, 0, 58, 0
2, 53760, Note_on_c, 0, 57, 127
2, 53948, Note_off_c, 0, 57, 0
2, 53952, Note_on_c, 0, 58, 127
2, 54140, Note_off_c, 0, 58, 0
2, 54144, Note_on_c, 0, 48, 127
2, 54912, Note_off_c, 0, 48, 0
2, 54912, Note_on_c, 0, 57, 127
2, 55100, Note_off_c, 0, 57, 0
2, 55104, Note_on_c, 0, 58, 127
2, 55292, Note_off_c, 0, 58, 0
2, 55296, Note_on_c, 0, 48, 127
2, 56064, Note_off_c, 0, 48, 0
2, 56064, Note_on_c, 0, 51, 127
2, 56256, Note_off_c, 0, 51, 0
2, 56256, Note_on_c, 0, 50, 127
2, 56448, Note_off_c, 0, 50, 0
2, 56448, Note_on_c, 0, 55, 127
2, 56640, Note_off_c, 0, 55, 0
2, 56640, Note_on_c, 0, 53, 127
2, 56832, Note_off_c, 0, 53, 0
2, 56832, Note_on_c, 0, 51, 127
2, 57216, Note_off_c, 0, 51, 0
2, 57216, Note_on_c, 0, 50, 127
2, 57264, Note_off_c, 0, 50, 0
2, 57264, Note_on_c, 0, 48, 127
2, 57312, Note_off_c, 0, 48, 0
2, 57312, Note_on_c, 0, 50, 127
2, 57360, Note_off_c, 0, 50, 0
2, 57360, Note_on_c, 0, 48, 127
2, 57408, Note_off_c, 0, 48, 0
2, 57408, Note_on_c, 0, 50, 127
2, 57456, Note_off_c, 0, 50, 0
2, 57456, Note_on_c, 0, 48, 127
2, 57596, Note_off_c, 0, 48, 0
2, 57600, Note_on_c, 0, 46, 127
2, 58364, Note_off_c, 0, 46, 0
2, 58368, Note_on_c, 0, 48, 127
2, 58556, Note_off_c, 0, 48, 0
2, 58560, Note_on_c, 0, 50, 127
2, 58748, Note_off_c, 0, 50, 0
2, 58752, Note_on_c, 0, 51, 127
2, 58944, Note_off_c, 0, 51, 0
2, 58944, Note_on_c, 0, 53, 127
2, 59132, Note_off_c, 0, 53, 0
2, 59136, Note_on_c, 0, 55, 127
2, 59324, Note_off_c, 0, 55, 0
2, 59328, Note_on_c, 0, 56, 127
2, 59520, Note_off_c, 0, 56, 0
2, 59520, Note_on_c, 0, 55, 127
2, 59708, Note_off_c, 0, 55, 0
2, 59712, Note_on_c, 0, 56, 127
2, 59900, Note_off_c, 0, 56, 0
2, 59904, Note_on_c, 0, 55, 127
2, 60092, Note_off_c, 0, 55, 0
2, 60096, Note_on_c, 0, 60, 127
2, 60668, Note_off_c, 0, 60, 0
2, 60672, Note_on_c, 0, 57, 127
2, 60860, Note_off_c, 0, 57, 0
2, 60864, Note_on_c, 0, 58, 127
2, 61184, Note_off_c, 0, 58, 0
2, 61248, Note_on_c, 0, 55, 127
2, 61436, Note_off_c, 0, 55, 0
2, 61440, Note_on_c, 0, 51, 127
2, 61824, Note_off_c, 0, 51, 0
2, 61824, Note_on_c, 0, 50, 127
2, 62012, Note_off_c, 0, 50, 0
2, 62016, Note_on_c, 0, 51, 127
2, 62204, Note_off_c, 0, 51, 0
2, 62208, Note_on_c, 0, 51, 127
2, 62400, Note_off_c, 0, 51, 0
2, 62400, Note_on_c, 0, 48, 127
2, 62588, Note_off_c, 0, 48, 0
2, 62592, Note_on_c, 0, 45, 127
2, 62780, Note_off_c, 0, 45, 0
2, 62976, Note_on_c, 0, 63, 127
2, 63164, Note_off_c, 0, 63, 0
2, 63168, Note_on_c, 0, 60, 127
2, 63356, Note_off_c, 0, 60, 0
2, 63360, Note_on_c, 0, 62, 127
2, 63552, Note_off_c, 0, 62, 0
2, 63552, Note_on_c, 0, 58, 127
2, 63740, Note_off_c, 0, 58, 0
2, 63744, Note_on_c, 0, 55, 127
2, 63932, Note_off_c, 0, 55, 0
2, 63936, Note_on_c, 0, 57, 127
2, 64128, Note_off_c, 0, 57, 0
2, 64128, Note_on_c, 0, 58, 127
2, 64316, Note_off_c, 0, 58, 0
2, 64320, Note_on_c, 0, 46, 127
2, 64508, Note_off_c, 0, 46, 0
2, 64512, Note_on_c, 0, 46, 127
2, 64832, Note_off_c, 0, 46, 0
2, 64896, Note_on_c, 0, 46, 127
2, 65084, Note_off_c, 0, 46, 0
2, 83520, Note_on_c, 0, 58, 127
2, 83708, Note_off_c, 0, 58, 0
2, 83712, Note_on_c, 0, 54, 127
2, 84032, Note_off_c, 0, 54, 0
2, 84096, Note_on_c, 0, 55, 127
2, 84284, Note_off_c, 0, 55, 0
2, 84288, Note_on_c, 0, 50, 127
2, 84608, Note_off_c, 0, 50, 0
2, 84672, Note_on_c, 0, 51, 127
2, 84768, Note_off_c, 0, 51, 0
2, 84768, Note_on_c, 0, 50, 127
2, 84864, Note_off_c, 0, 50, 0
2, 84864, Note_on_c, 0, 48, 127
2, 85052, Note_off_c, 0, 48, 0
2, 85056, Note_on_c, 0, 57, 127
2, 85244, Note_off_c, 0, 57, 0
2, 85248, Note_on_c, 0, 48, 127
2, 85632, Note_off_c, 0, 48, 0
2, 85632, Note_on_c, 0, 46, 127
2, 85820, Note_off_c, 0, 46, 0
2, 85824, Note_on_c, 0, 51, 127
2, 86588, Note_off_c, 0, 51, 0
2, 86592, Note_on_c, 0, 50, 127
2, 86780, Note_off_c, 0, 50, 0
2, 86784, Note_on_c, 0, 48, 127
2, 86972, Note_off_c, 0, 48, 0
2, 86976, Note_on_c, 0, 50, 127
2, 87740, Note_off_c, 0, 50, 0
2, 87744, Note_on_c, 0, 48, 127
2, 87932, Note_off_c, 0, 48, 0
2, 87936, Note_on_c, 0, 55, 127
2, 88124, Note_off_c, 0, 55, 0
2, 88128, Note_on_c, 0, 60, 127
2, 88316, Note_off_c, 0, 60, 0
2, 88320, Note_on_c, 0, 58, 127
2, 88508, Note_off_c, 0, 58, 0
2, 88512, Note_on_c, 0, 57, 127
2, 88700, Note_off_c, 0, 57, 0
2, 88704, Note_on_c, 0, 63, 127
2, 88896, Note_off_c, 0, 63, 0
2, 88896, Note_on_c, 0, 62, 127
2, 89084, Note_off_c, 0, 62, 0
2, 89088, Note_on_c, 0, 60, 127
2, 89276, Note_off_c, 0, 60, 0
2, 89280, Note_on_c, 0, 58, 127
2, 89472, Note_off_c, 0, 58, 0
2, 89472, Note_on_c, 0, 57, 127
2, 89660, Note_off_c, 0, 57, 0
2, 89664, Note_on_c, 0, 55, 127
2, 89852, Note_off_c, 0, 55, 0
2, 89856, Note_on_c, 0, 54, 127
2, 90048, Note_off_c, 0, 54, 0
2, 90048, Note_on_c, 0, 52, 127
2, 90236, Note_off_c, 0, 52, 0
2, 90240, Note_on_c, 0, 50, 127
2, 90428, Note_off_c, 0, 50, 0
2, 91008, Note_on_c, 0, 60, 127
2, 91196, Note_off_c, 0, 60, 0
2, 91200, Note_on_c, 0, 57, 127
2, 91392, Note_off_c, 0, 57, 0
2, 91392, Note_on_c, 0, 58, 127
2, 91580, Note_off_c, 0, 58, 0
2, 91584, Note_on_c, 0, 54, 127
2, 91904, Note_off_c, 0, 54, 0
2, 91968, Note_on_c, 0, 50, 127
2, 92156, Note_off_c, 0, 50, 0
2, 92160, Note_on_c, 0, 60, 127
2, 92352, Note_off_c, 0, 60, 0
2, 92352, Note_on_c, 0, 57, 127
2, 92540, Note_off_c, 0, 57, 0
2, 92544, Note_on_c, 0, 58, 127
2, 92732, Note_off_c, 0, 58, 0
2, 92736, Note_on_c, 0, 58, 127
2, 93056, Note_off_c, 0, 58, 0
2, 93312, Note_on_c, 0, 62, 127
2, 94080, Note_off_c, 0, 62, 0
2, 94080, Note_on_c, 0, 59, 127
2, 94268, Note_off_c, 0, 59, 0
2, 94272, Note_on_c, 0, 60, 127
2, 94460, Note_off_c, 0, 60, 0
2, 94464, Note_on_c, 0, 53, 127
2, 95228, Note_off_c, 0, 53, 0
2, 95232, Note_on_c, 0, 51, 127
2, 95420, Note_off_c, 0, 51, 0
2, 95424, Note_on_c, 0, 50, 127
2, 95612, Note_off_c, 0, 50, 0
2, 95616, Note_on_c, 0, 48, 127
2, 95808, Note_off_c, 0, 48, 0
2, 95808, Note_on_c, 0, 47, 127
2, 95996, Note_off_c, 0, 47, 0
2, 96000, Note_on_c, 0, 48, 127
2, 96188, Note_off_c, 0, 48, 0
2, 96192, Note_on_c, 0, 55, 127
2, 98688, Note_off_c, 0, 55, 0
2, 98688, Note_on_c, 0, 60, 127
2, 98876, Note_off_c, 0, 60, 0
2, 98880, Note_on_c, 0, 57, 127
2, 99068, Note_off_c, 0, 57, 0
2, 99072, Note_on_c, 0, 54, 127
2, 99392, Note_off_c, 0, 54, 0
2, 99456, Note_on_c, 0, 50, 127
2, 99644, Note_off_c, 0, 50, 0
2, 99840, Note_on_c, 0, 60, 127
2, 100028, Note_off_c, 0, 60, 0
2, 100032, Note_on_c, 0, 58, 127
2, 100220, Note_off_c, 0, 58, 0
2, 100224, Note_on_c, 0, 57, 127
2, 100412, Note_off_c, 0, 57, 0
2, 100416, Note_on_c, 0, 55, 127
2, 100512, Note_off_c, 0, 55, 0
2, 100512, Note_on_c, 0, 54, 127
2, 100604, Note_off_c, 0, 54, 0
2, 100608, Note_on_c, 0, 55, 127
2, 100892, Note_off_c, 0, 55, 0
2, 100896, Note_on_c, 0, 57, 127
2, 100988, Note_off_c, 0, 57, 0
2, 100992, Note_on_c, 0, 57, 127
2, 101280, Note_off_c, 0, 57, 0
2, 101280, Note_on_c, 0, 55, 127
2, 101372, Note_off_c, 0, 55, 0
2, 101376, Note_on_c, 0, 55, 127
2, 101696, Note_off_c, 0, 55, 0
2, 108864, Note_on_c, 0, 58, 127
2, 109184, Note_off_c, 0, 58, 0
2, 109824, Note_on_c, 0, 48, 127
2, 110012, Note_off_c, 0, 48, 0
2, 110016, Note_on_c, 0, 58, 127
2, 110336, Note_off_c, 0, 58, 0
2, 111168, Note_on_c, 0, 56, 127
2, 111488, Note_off_c, 0, 56, 0
2, 112128, Note_on_c, 0, 46, 127
2, 112316, Note_off_c, 0, 46, 0
2, 112320, Note_on_c, 0, 56, 127
2, 112640, Note_off_c, 0, 56, 0
2, 113280, Note_on_c, 0, 55, 127
2, 113468, Note_off_c, 0, 55, 0
2, 113472, Note_on_c, 0, 60, 127
2, 113664, Note_off_c, 0, 60, 0
2, 113664, Note_on_c, 0, 57, 127
2, 113852, Note_off_c, 0, 57, 0
2, 113856, Note_on_c, 0, 58, 127
2, 114044, Note_off_c, 0, 58, 0
2, 114048, Note_on_c, 0, 51, 127
2, 114812, Note_off_c, 0, 51, 0
2, 114816, Note_on_c, 0, 55, 127
2, 115004, Note_off_c, 0, 55, 0
2, 115008, Note_on_c, 0, 60, 127
2, 115196, Note_off_c, 0, 60, 0
2, 115200, Note_on_c, 0, 63, 127
2, 115392, Note_off_c, 0, 63, 0
2, 115392, Note_on_c, 0, 60, 127
2, 115580, Note_off_c, 0, 60, 0
2, 115584, Note_on_c, 0, 62, 127
2, 115772, Note_off_c, 0, 62, 0
2, 115776, Note_on_c, 0, 57, 127
2, 115968, Note_off_c, 0, 57, 0
2, 115968, Note_on_c, 0, 58, 127
2, 116156, Note_off_c, 0, 58, 0
2, 116160, Note_on_c, 0, 51, 127
2, 116348, Note_off_c, 0, 51, 0
2, 116352, Note_on_c, 0, 48, 127
2, 116864, Note_off_c, 0, 48, 0
2, 120384, Note_on_c, 0, 53, 127
2, 120704, Note_off_c, 0, 53, 0
2, 120768, Note_on_c, 0, 51, 127
2, 120956, Note_off_c, 0, 51, 0
2, 120960, Note_on_c, 0, 50, 127
2, 121280, Note_off_c, 0, 50, 0
2, 121344, Note_on_c, 0, 51, 127
2, 121532, Note_off_c, 0, 51, 0
2, 121536, Note_on_c, 0, 53, 127
2, 121728, Note_off_c, 0, 53, 0
2, 121728, Note_on_c, 0, 55, 127
2, 121916, Note_off_c, 0, 55, 0
2, 121920, Note_on_c, 0, 57, 127
2, 122108, Note_off_c, 0, 57, 0
2, 122112, Note_on_c, 0, 58, 127
2, 124928, Note_off_c, 0, 58, 0
2, 127296, Note_on_c, 0, 53, 127
2, 127616, Note_off_c, 0, 53, 0
2, 127680, Note_on_c, 0, 51, 127
2, 127868, Note_off_c, 0, 51, 0
2, 127872, Note_on_c, 0, 50, 127
2, 128192, Note_off_c, 0, 50, 0
2, 128256, Note_on_c, 0, 51, 127
2, 128444, Note_off_c, 0, 51, 0
2, 128448, Note_on_c, 0, 53, 127
2, 128640, Note_off_c, 0, 53, 0
2, 128640, Note_on_c, 0, 55, 127
2, 128828, Note_off_c, 0, 55, 0
2, 128832, Note_on_c, 0, 57, 127
2, 129020, Note_off_c, 0, 57, 0
2, 129024, Note_on_c, 0, 58, 127
2, 129788, Note_off_c, 0, 58, 0
2, 129792, Note_on_c, 0, 50, 127
2, 129980, Note_off_c, 0, 50, 0
2, 129984, Note_on_c, 0, 51, 127
2, 130172, Note_off_c, 0, 51, 0
2, 130176, Note_on_c, 0, 57, 127
2, 130368, Note_off_c, 0, 57, 0
2, 130368, Note_on_c, 0, 58, 127
2, 130556, Note_off_c, 0, 58, 0
2, 130560, Note_on_c, 0, 51, 127
2, 130880, Note_off_c, 0, 51, 0
2, 130944, Note_on_c, 0, 48, 127
2, 131132, Note_off_c, 0, 48, 0
2, 131136, Note_on_c, 0, 50, 127
2, 131324, Note_off_c, 0, 50, 0
2, 131328, Note_on_c, 0, 57, 127
2, 131520, Note_off_c, 0, 57, 0
2, 131520, Note_on_c, 0, 58, 127
2, 131708, Note_off_c, 0, 58, 0
2, 131712, Note_on_c, 0, 50, 127
2, 132032, Note_off_c, 0, 50, 0
2, 132096, Note_on_c, 0, 46, 127
2, 132284, Note_off_c, 0, 46, 0
2, 132288, Note_on_c, 0, 48, 127
2, 132476, Note_off_c, 0, 48, 0
2, 132480, Note_on_c, 0, 57, 127
2, 132672, Note_off_c, 0, 57, 0
2, 132672, Note_on_c, 0, 58, 127
2, 132860, Note_off_c, 0, 58, 0
2, 132864, Note_on_c, 0, 48, 127
2, 133184, Note_off_c, 0, 48, 0
2, 133248, Note_on_c, 0, 46, 127
2, 133436, Note_off_c, 0, 46, 0
2, 133440, Note_on_c, 0, 51, 127
2, 133628, Note_off_c, 0, 51, 0
2, 133632, Note_on_c, 0, 51, 127
2, 133676, Note_off_c, 0, 51, 0
2, 133680, Note_on_c, 0, 50, 127
2, 133724, Note_off_c, 0, 50, 0
2, 133728, Note_on_c, 0, 51, 127
2, 133772, Note_off_c, 0, 51, 0
2, 133776, Note_on_c, 0, 50, 127
2, 133820, Note_off_c, 0, 50, 0
2, 133824, Note_on_c, 0, 51, 127
2, 133868, Note_off_c, 0, 51, 0
2, 133872, Note_on_c, 0, 50, 127
2, 134012, Note_off_c, 0, 50, 0
2, 134016, Note_on_c, 0, 48, 127
2, 134204, Note_off_c, 0, 48, 0
2, 136512, Note_on_c, 0, 58, 127
2, 136704, Note_off_c, 0, 58, 0
2, 136704, Note_on_c, 0, 57, 127
2, 136892, Note_off_c, 0, 57, 0
2, 136896, Note_on_c, 0, 58, 127
2, 137084, Note_off_c, 0, 58, 0
2, 137088, Note_on_c, 0, 63, 127
2, 137408, Note_off_c, 0, 63, 0
2, 137472, Note_on_c, 0, 60, 127
2, 137660, Note_off_c, 0, 60, 0
2, 137664, Note_on_c, 0, 57, 127
2, 137856, Note_off_c, 0, 57, 0
2, 137856, Note_on_c, 0, 58, 127
2, 138044, Note_off_c, 0, 58, 0
2, 138048, Note_on_c, 0, 60, 127
2, 138236, Note_off_c, 0, 60, 0
2, 138240, Note_on_c, 0, 62, 127
2, 138560, Note_off_c, 0, 62, 0
2, 141120, Note_on_c, 0, 51, 127
2, 141312, Note_off_c, 0, 51, 0
2, 141312, Note_on_c, 0, 50, 127
2, 141500, Note_off_c, 0, 50, 0
2, 141504, Note_on_c, 0, 51, 127
2, 141692, Note_off_c, 0, 51, 0
2, 141696, Note_on_c, 0, 56, 127
2, 142016, Note_off_c, 0, 56, 0
2, 142080, Note_on_c, 0, 53, 127
2, 142268, Note_off_c, 0, 53, 0
2, 142272, Note_on_c, 0, 50, 127
2, 142464, Note_off_c, 0, 50, 0
2, 142464, Note_on_c, 0, 51, 127
2, 142652, Note_off_c, 0, 51, 0
2, 142656, Note_on_c, 0, 53, 127
2, 142844, Note_off_c, 0, 53, 0
2, 142848, Note_on_c, 0, 55, 127
2, 143612, Note_off_c, 0, 55, 0
2, 143616, Note_on_c, 0, 55, 127
2, 143804, Note_off_c, 0, 55, 0
2, 143808, Note_on_c, 0, 56, 127
2, 143996, Note_off_c, 0, 56, 0
2, 144000, Note_on_c, 0, 62, 127
2, 144192, Note_off_c, 0, 62, 0
2, 144192, Note_on_c, 0, 63, 127
2, 144380, Note_off_c, 0, 63, 0
2, 144384, Note_on_c, 0, 56, 127
2, 144704, Note_off_c, 0, 56, 0
2, 144768, Note_on_c, 0, 53, 127
2, 144956, Note_off_c, 0, 53, 0
2, 144960, Note_on_c, 0, 55, 127
2, 145148, Note_off_c, 0, 55, 0
2, 145152, Note_on_c, 0, 62, 127
2, 145344, Note_off_c, 0, 62, 0
2, 145344, Note_on_c, 0, 63, 127
2, 145532, Note_off_c, 0, 63, 0
2, 145536, Note_on_c, 0, 55, 127
2, 145856, Note_off_c, 0, 55, 0
2, 145920, Note_on_c, 0, 51, 127
2, 146108, Note_off_c, 0, 51, 0
2, 146112, Note_on_c, 0, 53, 127
2, 146300, Note_off_c, 0, 53, 0
2, 146304, Note_on_c, 0, 62, 127
2, 146496, Note_off_c, 0, 62, 0
2, 146496, Note_on_c, 0, 63, 127
2, 146684, Note_off_c, 0, 63, 0
2, 146688, Note_on_c, 0, 53, 127
2, 147008, Note_off_c, 0, 53, 0
2, 147072, Note_on_c, 0, 51, 127
2, 147260, Note_off_c, 0, 51, 0
2, 147264, Note_on_c, 0, 56, 127
2, 147452, Note_off_c, 0, 56, 0
2, 147456, Note_on_c, 0, 55, 127
2, 147840, Note_off_c, 0, 55, 0
2, 147840, Note_on_c, 0, 53, 127
2, 148224, Note_off_c, 0, 53, 0
2, 148224, Note_on_c, 0, 50, 127
2, 148416, Note_off_c, 0, 50, 0
2, 148416, Note_on_c, 0, 51, 127
2, 148608, Note_off_c, 0, 51, 0
2, 148608, Note_on_c, 0, 53, 127
2, 148800, Note_off_c, 0, 53, 0
2, 148800, Note_on_c, 0, 55, 127
2, 148992, Note_off_c, 0, 55, 0
2, 148992, Note_on_c, 0, 56, 127
2, 149376, Note_off_c, 0, 56, 0
2, 149376, Note_on_c, 0, 47, 127
2, 149568, Note_off_c, 0, 47, 0
2, 149568, Note_on_c, 0, 50, 127
2, 149760, Note_off_c, 0, 50, 0
2, 149760, Note_on_c, 0, 51, 127
2, 150528, Note_off_c, 0, 51, 0
2, 150528, Note_on_c, 0, 48, 127
2, 150720, Note_off_c, 0, 48, 0
2, 150720, Note_on_c, 0, 50, 127
2, 150912, Note_off_c, 0, 50, 0
2, 150912, Note_on_c, 0, 51, 127
2, 151680, Note_off_c, 0, 51, 0
2, 151680, Note_on_c, 0, 45, 127
2, 151872, Note_off_c, 0, 45, 0
2, 151872, Note_on_c, 0, 48, 127
2, 152064, Note_off_c, 0, 48, 0
2, 152064, Note_on_c, 0, 50, 127
2, 152256, Note_off_c, 0, 50, 0
2, 152256, Note_on_c, 0, 48, 127
2, 152444, Note_off_c, 0, 48, 0
2, 152448, Note_on_c, 0, 46, 127
2, 152636, Note_off_c, 0, 46, 0
2, 152640, Note_on_c, 0, 55, 127
2, 152832, Note_off_c, 0, 55, 0
2, 152832, Note_on_c, 0, 56, 127
2, 153020, Note_off_c, 0, 56, 0
2, 153024, Note_on_c, 0, 55, 127
2, 153212, Note_off_c, 0, 55, 0
2, 153216, Note_on_c, 0, 53, 127
2, 153408, Note_off_c, 0, 53, 0
2, 153408, Note_on_c, 0, 58, 127
2, 153596, Note_off_c, 0, 58, 0
2, 153600, Note_on_c, 0, 46, 127
2, 153788, Note_off_c, 0, 46, 0
2, 153792, Note_on_c, 0, 48, 127
2, 153984, Note_off_c, 0, 48, 0
2, 153984, Note_on_c, 0, 50, 127
2, 154172, Note_off_c, 0, 50, 0
2, 154176, Note_on_c, 0, 51, 127
2, 154364, Note_off_c, 0, 51, 0
2, 154368, Note_on_c, 0, 50, 127
2, 154556, Note_off_c, 0, 50, 0
2, 154560, Note_on_c, 0, 58, 127
2, 154748, Note_off_c, 0, 58, 0
2, 154752, Note_on_c, 0, 57, 127
2, 154940, Note_off_c, 0, 57, 0
2, 154944, Note_on_c, 0, 58, 127
2, 155136, Note_off_c, 0, 58, 0
2, 155136, Note_on_c, 0, 57, 127
2, 155324, Note_off_c, 0, 57, 0
2, 155328, Note_on_c, 0, 58, 127
2, 155516, Note_off_c, 0, 58, 0
2, 155520, Note_on_c, 0, 48, 127
2, 156288, Note_off_c, 0, 48, 0
2, 156288, Note_on_c, 0, 57, 127
2, 156476, Note_off_c, 0, 57, 0
2, 156480, Note_on_c, 0, 58, 127
2, 156668, Note_off_c, 0, 58, 0
2, 156672, Note_on_c, 0, 48, 127
2, 157440, Note_off_c, 0, 48, 0
2, 157440, Note_on_c, 0, 51, 127
2, 157632, Note_off_c, 0, 51, 0
2, 157632, Note_on_c, 0, 50, 127
2, 157824, Note_off_c, 0, 50, 0
2, 157824, Note_on_c, 0, 55, 127
2, 158016, Note_off_c, 0, 55, 0
2, 158016, Note_on_c, 0, 53, 127
2, 158208, Note_off_c, 0, 53, 0
2, 158208, Note_on_c, 0, 51, 127
2, 158592, Note_off_c, 0, 51, 0
2, 158592, Note_on_c, 0, 50, 127
2, 158640, Note_off_c, 0, 50, 0
2, 158640, Note_on_c, 0, 48, 127
2, 158688, Note_off_c, 0, 48, 0
2, 158688, Note_on_c, 0, 50, 127
2, 158736, Note_off_c, 0, 50, 0
2, 158736, Note_on_c, 0, 48, 127
2, 158784, Note_off_c, 0, 48, 0
2, 158784, Note_on_c, 0, 50, 127
2, 158832, Note_off_c, 0, 50, 0
2, 158832, Note_on_c, 0, 48, 127
2, 158972, Note_off_c, 0, 48, 0
2, 158976, Note_on_c, 0, 46, 127
2, 159740, Note_off_c, 0, 46, 0
2, 159744, Note_on_c, 0, 48, 127
2, 159932, Note_off_c, 0, 48, 0
2, 159936, Note_on_c, 0, 50, 127
2, 160124, Note_off_c, 0, 50, 0
2, 160128, Note_on_c, 0, 51, 127
2, 160320, Note_off_c, 0, 51, 0
2, 160320, Note_on_c, 0, 53, 127
2, 160508, Note_off_c, 0, 53, 0
2, 160512, Note_on_c, 0, 55, 127
2, 160700, Note_off_c, 0, 55, 0
2, 160704, Note_on_c, 0, 56, 127
2, 160896, Note_off_c, 0, 56, 0
2, 160896, Note_on_c, 0, 55, 127
2, 161084, Note_off_c, 0, 55, 0
2, 161088, Note_on_c, 0, 56, 127
2, 161276, Note_off_c, 0, 56, 0
2, 161280, Note_on_c, 0, 55, 127
2, 161468, Note_off_c, 0, 55, 0
2, 161472, Note_on_c, 0, 60, 127
2, 162044, Note_off_c, 0, 60, 0
2, 162048, Note_on_c, 0, 57, 127
2, 162236, Note_off_c, 0, 57, 0
2, 162240, Note_on_c, 0, 58, 127
2, 162560, Note_off_c, 0, 58, 0
2, 162624, Note_on_c, 0, 55, 127
2, 162812, Note_off_c, 0, 55, 0
2, 162816, Note_on_c, 0, 51, 127
2, 163200, Note_off_c, 0, 51, 0
2, 163200, Note_on_c, 0, 50, 127
2, 163388, Note_off_c, 0, 50, 0
2, 163392, Note_on_c, 0, 51, 127
2, 163580, Note_off_c, 0, 51, 0
2, 163584, Note_on_c, 0, 51, 127
2, 163776, Note_off_c, 0, 51, 0
2, 163776, Note_on_c, 0, 48, 127
2, 163964, Note_off_c, 0, 48, 0
2, 163968, Note_on_c, 0, 45, 127
2, 164156, Note_off_c, 0, 45, 0
2, 164352, Note_on_c, 0, 63, 127
2, 164540, Note_off_c, 0, 63, 0
2, 164544, Note_on_c, 0, 60, 127
2, 164732, Note_off_c, 0, 60, 0
2, 164736, Note_on_c, 0, 62, 127
2, 164928, Note_off_c, 0, 62, 0
2, 164928, Note_on_c, 0, 58, 127
2, 165116, Note_off_c, 0, 58, 0
2, 165120, Note_on_c, 0, 55, 127
2, 165308, Note_off_c, 0, 55, 0
2, 165312, Note_on_c, 0, 57, 127
2, 165504, Note_off_c, 0, 57, 0
2, 165504, Note_on_c, 0, 58, 127
2, 165692, Note_off_c, 0, 58, 0
2, 165696, Note_on_c, 0, 46, 127
2, 165884, Note_off_c, 0, 46, 0
2, 165888, Note_on_c, 0, 46, 127
2, 166208, Note_off_c, 0, 46, 0
2, 166272, Note_on_c, 0, 46, 127
2, 166460, Note_off_c, 0, 46, 0
2, 166460, End_track
3, 0, Start_track
3, 0, Title_t, "Violin I"
3, 0, Control_c, 1, 0, 0
3, 0, Program_c, 1, 48
3, 0, Control_c, 1, 10, 24
3, 0, Key_signature, -2, "major"
3, 0, Control_c, 1, 121, 0
3, 0, Control_c, 1, 7, 127
3, 576, Note_on_c, 1, 65, 102
3, 960, Note_off_c, 1, 65, 0
3, 960, Note_on_c, 1, 63, 102
3, 1152, Note_off_c, 1, 63, 0
3, 1152, Note_on_c, 1, 62, 102
3, 1536, Note_off_c, 1, 62, 0
3, 1536, Note_on_c, 1, 63, 102
3, 1728, Note_off_c, 1, 63, 0
3, 1728, Note_on_c, 1, 65, 102
3, 1920, Note_off_c, 1, 65, 0
3, 1920, Note_on_c, 1, 67, 102
3, 2112, Note_off_c, 1, 67, 0
3, 2112, Note_on_c, 1, 69, 102
3, 2304, Note_off_c, 1, 69, 0
3, 2304, Note_on_c, 1, 70, 102
3, 3072, Note_off_c, 1, 70, 0
3, 3072, Note_on_c, 1, 65, 102
3, 3264, Note_off_c, 1, 65, 0
3, 3264, Note_on_c, 1, 70, 102
3, 3456, Note_off_c, 1, 70, 0
3, 3456, Note_on_c, 1, 69, 102
3, 3648, Note_off_c, 1, 69, 0
3, 3648, Note_on_c, 1, 70, 102
3, 3840, Note_off_c, 1, 70, 0
3, 3840, Note_on_c, 1, 63, 102
3, 4224, Note_off_c, 1, 63, 0
3, 4224, Note_on_c, 1, 69, 102
3, 4416, Note_off_c, 1, 69, 0
3, 4416, Note_on_c, 1, 70, 102
3, 4608, Note_off_c, 1, 70, 0
3, 4608, Note_on_c, 1, 69, 102
3, 4800, Note_off_c, 1, 69, 0
3, 4800, Note_on_c, 1, 70, 102
3, 4992, Note_off_c, 1, 70, 0
3, 4992, Note_on_c, 1, 62, 102
3, 5376, Note_off_c, 1, 62, 0
3, 5376, Note_on_c, 1, 65, 102
3, 5568, Note_off_c, 1, 65, 0
3, 5568, Note_on_c, 1, 69, 102
3, 5760, Note_off_c, 1, 69, 0
3, 5760, Note_on_c, 1, 72, 102
3, 5952, Note_off_c, 1, 72, 0
3, 5952, Note_on_c, 1, 70, 102
3, 6144, Note_off_c, 1, 70, 0
3, 6144, Note_on_c, 1, 69, 102
3, 6336, Note_off_c, 1, 69, 0
3, 6336, Note_on_c, 1, 70, 102
3, 6720, Note_off_c, 1, 70, 0
3, 6720, Note_on_c, 1, 63, 102
3, 6912, Note_off_c, 1, 63, 0
3, 6912, Note_on_c, 1, 63, 127
3, 6960, Note_off_c, 1, 63, 0
3, 6960, Note_on_c, 1, 62, 127
3, 7008, Note_off_c, 1, 62, 0
3, 7008, Note_on_c, 1, 63, 127
3, 7056, Note_off_c, 1, 63, 0
3, 7056, Note_on_c, 1, 62, 127
3, 7104, Note_off_c, 1, 62, 0
3, 7104, Note_on_c, 1, 63, 127
3, 7152, Note_off_c, 1, 63, 0
3, 7152, Note_on_c, 1, 62, 127
3, 7296, Note_off_c, 1, 62, 0
3, 7296, Note_on_c, 1, 60, 102
3, 7488, Note_off_c, 1, 60, 0
3, 7488, Note_on_c, 1, 72, 102
3, 7584, Note_off_c, 1, 72, 0
3, 7584, Note_on_c, 1, 74, 102
3, 7680, Note_off_c, 1, 74, 0
3, 7680, Note_on_c, 1, 75, 102
3, 7776, Note_off_c, 1, 75, 0
3, 7776, Note_on_c, 1, 72, 102
3, 7872, Note_off_c, 1, 72, 0
3, 7872, Note_on_c, 1, 72, 102
3, 7968, Note_off_c, 1, 72, 0
3, 7968, Note_on_c, 1, 70, 102
3, 8064, Note_off_c, 1, 70, 0
3, 8064, Note_on_c, 1, 70, 102
3, 8160, Note_off_c, 1, 70, 0
3, 8160, Note_on_c, 1, 69, 102
3, 8256, Note_off_c, 1, 69, 0
3, 8256, Note_on_c, 1, 69, 102
3, 8352, Note_off_c, 1, 69, 0
3, 8352, Note_on_c, 1, 67, 102
3, 8448, Note_off_c, 1, 67, 0
3, 8448, Note_on_c, 1, 67, 102
3, 8544, Note_off_c, 1, 67, 0
3, 8544, Note_on_c, 1, 65, 102
3, 8640, Note_off_c, 1, 65, 0
3, 8640, Note_on_c, 1, 72, 102
3, 8736, Note_off_c, 1, 72, 0
3, 8736, Note_on_c, 1, 74, 102
3, 8832, Note_off_c, 1, 74, 0
3, 8832, Note_on_c, 1, 75, 102
3, 8928, Note_off_c, 1, 75, 0
3, 8928, Note_on_c, 1, 72, 102
3, 9024, Note_off_c, 1, 72, 0
3, 9024, Note_on_c, 1, 72, 102
3, 9120, Note_off_c, 1, 72, 0
3, 9120, Note_on_c, 1, 70, 102
3, 9216, Note_off_c, 1, 70, 0
3, 9216, Note_on_c, 1, 70, 102
3, 9312, Note_off_c, 1, 70, 0
3, 9312, Note_on_c, 1, 69, 102
3, 9408, Note_off_c, 1, 69, 0
3, 9408, Note_on_c, 1, 69, 102
3, 9504, Note_off_c, 1, 69, 0
3, 9504, Note_on_c, 1, 67, 102
3, 9600, Note_off_c, 1, 67, 0
3, 9600, Note_on_c, 1, 67, 102
3, 9696, Note_off_c, 1, 67, 0
3, 9696, Note_on_c, 1, 65, 102
3, 9792, Note_off_c, 1, 65, 0
3, 9792, Note_on_c, 1, 74, 102
3, 9888, Note_off_c, 1, 74, 0
3, 9888, Note_on_c, 1, 75, 102
3, 9984, Note_off_c, 1, 75, 0
3, 9984, Note_on_c, 1, 77, 102
3, 10080, Note_off_c, 1, 77, 0
3, 10080, Note_on_c, 1, 74, 102
3, 10176, Note_off_c, 1, 74, 0
3, 10176, Note_on_c, 1, 74, 102
3, 10272, Note_off_c, 1, 74, 0
3, 10272, Note_on_c, 1, 72, 102
3, 10368, Note_off_c, 1, 72, 0
3, 10368, Note_on_c, 1, 72, 102
3, 10464, Note_off_c, 1, 72, 0
3, 10464, Note_on_c, 1, 70, 102
3, 10560, Note_off_c, 1, 70, 0
3, 10560, Note_on_c, 1, 70, 102
3, 10656, Note_off_c, 1, 70, 0
3, 10656, Note_on_c, 1, 68, 102
3, 10752, Note_off_c, 1, 68, 0
3, 10752, Note_on_c, 1, 68, 102
3, 10848, Note_off_c, 1, 68, 0
3, 10848, Note_on_c, 1, 70, 102
3, 10944, Note_off_c, 1, 70, 0
3, 10944, Note_on_c, 1, 74, 102
3, 11040, Note_off_c, 1, 74, 0
3, 11040, Note_on_c, 1, 75, 102
3, 11136, Note_off_c, 1, 75, 0
3, 11136, Note_on_c, 1, 77, 102
3, 11232, Note_off_c, 1, 77, 0
3, 11232, Note_on_c, 1, 74, 102
3, 11328, Note_off_c, 1, 74, 0
3, 11328, Note_on_c, 1, 74, 102
3, 11424, Note_off_c, 1, 74, 0
3, 11424, Note_on_c, 1, 72, 102
3, 11520, Note_off_c, 1, 72, 0
3, 11520, Note_on_c, 1, 72, 102
3, 11616, Note_off_c, 1, 72, 0
3, 11616, Note_on_c, 1, 70, 102
3, 11712, Note_off_c, 1, 70, 0
3, 11712, Note_on_c, 1, 70, 102
3, 11808, Note_off_c, 1, 70, 0
3, 11808, Note_on_c, 1, 68, 102
3, 11904, Note_off_c, 1, 68, 0
3, 11904, Note_on_c, 1, 68, 102
3, 12000, Note_off_c, 1, 68, 0
3, 12000, Note_on_c, 1, 67, 102
3, 12096, Note_off_c, 1, 67, 0
3, 12096, Note_on_c, 1, 67, 102
3, 12192, Note_off_c, 1, 67, 0
3, 12192, Note_on_c, 1, 70, 102
3, 12288, Note_off_c, 1, 70, 0
3, 12288, Note_on_c, 1, 68, 102
3, 12384, Note_off_c, 1, 68, 0
3, 12384, Note_on_c, 1, 67, 102
3, 12480, Note_off_c, 1, 67, 0
3, 12480, Note_on_c, 1, 67, 102
3, 12576, Note_off_c, 1, 67, 0
3, 12576, Note_on_c, 1, 65, 102
3, 12672, Note_off_c, 1, 65, 0
3, 12672, Note_on_c, 1, 65, 102
3, 12768, Note_off_c, 1, 65, 0
3, 12768, Note_on_c, 1, 70, 102
3, 12864, Note_off_c, 1, 70, 0
3, 12864, Note_on_c, 1, 67, 102
3, 12960, Note_off_c, 1, 67, 0
3, 12960, Note_on_c, 1, 65, 102
3, 13056, Note_off_c, 1, 65, 0
3, 13056, Note_on_c, 1, 65, 102
3, 13152, Note_off_c, 1, 65, 0
3, 13152, Note_on_c, 1, 63, 102
3, 13248, Note_off_c, 1, 63, 0
3, 13248, Note_on_c, 1, 63, 102
3, 13344, Note_off_c, 1, 63, 0
3, 13344, Note_on_c, 1, 70, 102
3, 13440, Note_off_c, 1, 70, 0
3, 13440, Note_on_c, 1, 65, 102
3, 13536, Note_off_c, 1, 65, 0
3, 13536, Note_on_c, 1, 63, 102
3, 13632, Note_off_c, 1, 63, 0
3, 13632, Note_on_c, 1, 63, 102
3, 13728, Note_off_c, 1, 63, 0
3, 13728, Note_on_c, 1, 62, 105
3, 13824, Note_off_c, 1, 62, 0
3, 13824, Note_on_c, 1, 62, 108
3, 13920, Note_off_c, 1, 62, 0
3, 13920, Note_on_c, 1, 70, 110
3, 14016, Note_off_c, 1, 70, 0
3, 14016, Note_on_c, 1, 63, 113
3, 14112, Note_off_c, 1, 63, 0
3, 14112, Note_on_c, 1, 62, 116
3, 14208, Note_off_c, 1, 62, 0
3, 14208, Note_on_c, 1, 62, 119
3, 14304, Note_off_c, 1, 62, 0
3, 14304, Note_on_c, 1, 60, 121
3, 14400, Note_off_c, 1, 60, 0
3, 14400, Note_on_c, 1, 70, 126
3, 14496, Note_off_c, 1, 70, 0
3, 14496, Note_on_c, 1, 69, 126
3, 14592, Note_off_c, 1, 69, 0
3, 14592, Note_on_c, 1, 69, 126
3, 14688, Note_off_c, 1, 69, 0
3, 14688, Note_on_c, 1, 70, 126
3, 14784, Note_off_c, 1, 70, 0
3, 14784, Note_on_c, 1, 70, 126
3, 14880, Note_off_c, 1, 70, 0
3, 14880, Note_on_c, 1, 60, 126
3, 14976, Note_off_c, 1, 60, 0
3, 14976, Note_on_c, 1, 60, 126
3, 15072, Note_off_c, 1, 60, 0
3, 15072, Note_on_c, 1, 69, 126
3, 15168, Note_off_c, 1, 69, 0
3, 15168, Note_on_c, 1, 69, 126
3, 15264, Note_off_c, 1, 69, 0
3, 15264, Note_on_c, 1, 70, 126
3, 15360, Note_off_c, 1, 70, 0
3, 15360, Note_on_c, 1, 70, 126
3, 15456, Note_off_c, 1, 70, 0
3, 15456, Note_on_c, 1, 60, 126
3, 15552, Note_off_c, 1, 60, 0
3, 15552, Note_on_c, 1, 60, 126
3, 15648, Note_off_c, 1, 60, 0
3, 15648, Note_on_c, 1, 69, 126
3, 15744, Note_off_c, 1, 69, 0
3, 15744, Note_on_c, 1, 69, 126
3, 15840, Note_off_c, 1, 69, 0
3, 15840, Note_on_c, 1, 70, 126
3, 15936, Note_off_c, 1, 70, 0
3, 15936, Note_on_c, 1, 70, 126
3, 16032, Note_off_c, 1, 70, 0
3, 16032, Note_on_c, 1, 60, 126
3, 16128, Note_off_c, 1, 60, 0
3, 16128, Note_on_c, 1, 60, 126
3, 16224, Note_off_c, 1, 60, 0
3, 16224, Note_on_c, 1, 69, 126
3, 16320, Note_off_c, 1, 69, 0
3, 16320, Note_on_c, 1, 69, 126
3, 16416, Note_off_c, 1, 69, 0
3, 16416, Note_on_c, 1, 70, 126
3, 16512, Note_off_c, 1, 70, 0
3, 16512, Note_on_c, 1, 70, 126
3, 16608, Note_off_c, 1, 70, 0
3, 16608, Note_on_c, 1, 60, 126
3, 16704, Note_off_c, 1, 60, 0
3, 16704, Note_on_c, 1, 60, 126
3, 16800, Note_off_c, 1, 60, 0
3, 16800, Note_on_c, 1, 63, 126
3, 16896, Note_off_c, 1, 63, 0
3, 16896, Note_on_c, 1, 63, 126
3, 16992, Note_off_c, 1, 63, 0
3, 16992, Note_on_c, 1, 62, 126
3, 17088, Note_off_c, 1, 62, 0
3, 17088, Note_on_c, 1, 62, 126
3, 17184, Note_off_c, 1, 62, 0
3, 17184, Note_on_c, 1, 67, 126
3, 17280, Note_off_c, 1, 67, 0
3, 17280, Note_on_c, 1, 67, 126
3, 17376, Note_off_c, 1, 67, 0
3, 17376, Note_on_c, 1, 65, 126
3, 17472, Note_off_c, 1, 65, 0
3, 17472, Note_on_c, 1, 65, 126
3, 17568, Note_off_c, 1, 65, 0
3, 17568, Note_on_c, 1, 69, 126
3, 17664, Note_off_c, 1, 69, 0
3, 17664, Note_on_c, 1, 69, 126
3, 17760, Note_off_c, 1, 69, 0
3, 17760, Note_on_c, 1, 70, 126
3, 17856, Note_off_c, 1, 70, 0
3, 17856, Note_on_c, 1, 60, 126
3, 17856, Note_on_c, 1, 63, 126
3, 17920, Note_off_c, 1, 60, 0
3, 17920, Note_off_c, 1, 63, 0
3, 18048, Note_on_c, 1, 62, 126
3, 18096, Note_off_c, 1, 62, 0
3, 18096, Note_on_c, 1, 60, 126
3, 18144, Note_off_c, 1, 60, 0
3, 18144, Note_on_c, 1, 62, 126
3, 18192, Note_off_c, 1, 62, 0
3, 18192, Note_on_c, 1, 60, 126
3, 18240, Note_off_c, 1, 60, 0
3, 18240, Note_on_c, 1, 62, 126
3, 18288, Note_off_c, 1, 62, 0
3, 18288, Note_on_c, 1, 60, 126
3, 18432, Note_off_c, 1, 60, 0
3, 18432, Note_on_c, 1, 58, 126
3, 18816, Note_off_c, 1, 58, 0
3, 18816, Note_on_c, 1, 60, 126
3, 19008, Note_off_c, 1, 60, 0
3, 19008, Note_on_c, 1, 62, 102
3, 19104, Note_off_c, 1, 62, 0
3, 19104, Note_on_c, 1, 70, 102
3, 19200, Note_off_c, 1, 70, 0
3, 19200, Note_on_c, 1, 65, 102
3, 19296, Note_off_c, 1, 65, 0
3, 19296, Note_on_c, 1, 63, 102
3, 19392, Note_off_c, 1, 63, 0
3, 19392, Note_on_c, 1, 63, 102
3, 19488, Note_off_c, 1, 63, 0
3, 19488, Note_on_c, 1, 62, 102
3, 19584, Note_off_c, 1, 62, 0
3, 19584, Note_on_c, 1, 62, 102
3, 20256, Note_off_c, 1, 62, 0
3, 20256, Note_on_c, 1, 70, 102
3, 20352, Note_off_c, 1, 70, 0
3, 20352, Note_on_c, 1, 62, 102
3, 20448, Note_off_c, 1, 62, 0
3, 20448, Note_on_c, 1, 60, 102
3, 20544, Note_off_c, 1, 60, 0
3, 20544, Note_on_c, 1, 60, 102
3, 20640, Note_off_c, 1, 60, 0
3, 20640, Note_on_c, 1, 58, 102
3, 20736, Note_off_c, 1, 58, 0
3, 20736, Note_on_c, 1, 62, 102
3, 21312, Note_off_c, 1, 62, 0
3, 21312, Note_on_c, 1, 74, 102
3, 21696, Note_off_c, 1, 74, 0
3, 21696, Note_on_c, 1, 72, 102
3, 21888, Note_off_c, 1, 72, 0
3, 21888, Note_on_c, 1, 70, 102
3, 22080, Note_off_c, 1, 70, 0
3, 22080, Note_on_c, 1, 65, 102
3, 22272, Note_off_c, 1, 65, 0
3, 22272, Note_on_c, 1, 72, 102
3, 22464, Note_off_c, 1, 72, 0
3, 22464, Note_on_c, 1, 74, 102
3, 22656, Note_off_c, 1, 74, 0
3, 22656, Note_on_c, 1, 75, 102
3, 22848, Note_off_c, 1, 75, 0
3, 22848, Note_on_c, 1, 77, 102
3, 23232, Note_off_c, 1, 77, 0
3, 23232, Note_on_c, 1, 75, 102
3, 23424, Note_off_c, 1, 75, 0
3, 23424, Note_on_c, 1, 74, 102
3, 23616, Note_off_c, 1, 74, 0
3, 23616, Note_on_c, 1, 72, 102
3, 24000, Note_off_c, 1, 72, 0
3, 24000, Note_on_c, 1, 70, 102
3, 24192, Note_off_c, 1, 70, 0
3, 24192, Note_on_c, 1, 69, 102
3, 24576, Note_off_c, 1, 69, 0
3, 24576, Note_on_c, 1, 70, 102
3, 24768, Note_off_c, 1, 70, 0
3, 24768, Note_on_c, 1, 72, 102
3, 24960, Note_off_c, 1, 72, 0
3, 24960, Note_on_c, 1, 74, 102
3, 25152, Note_off_c, 1, 74, 0
3, 25152, Note_on_c, 1, 75, 102
3, 25536, Note_off_c, 1, 75, 0
3, 25536, Note_on_c, 1, 74, 102
3, 25728, Note_off_c, 1, 74, 0
3, 25728, Note_on_c, 1, 72, 102
3, 25920, Note_off_c, 1, 72, 0
3, 25920, Note_on_c, 1, 70, 82
3, 26016, Note_off_c, 1, 70, 0
3, 26016, Note_on_c, 1, 68, 82
3, 26112, Note_off_c, 1, 68, 0
3, 26112, Note_on_c, 1, 68, 82
3, 26208, Note_off_c, 1, 68, 0
3, 26208, Note_on_c, 1, 67, 82
3, 26304, Note_off_c, 1, 67, 0
3, 26304, Note_on_c, 1, 67, 82
3, 26400, Note_off_c, 1, 67, 0
3, 26400, Note_on_c, 1, 65, 82
3, 26496, Note_off_c, 1, 65, 0
3, 26496, Note_on_c, 1, 65, 82
3, 26592, Note_off_c, 1, 65, 0
3, 26592, Note_on_c, 1, 70, 82
3, 26688, Note_off_c, 1, 70, 0
3, 26688, Note_on_c, 1, 65, 82
3, 26784, Note_off_c, 1, 65, 0
3, 26784, Note_on_c, 1, 63, 82
3, 26880, Note_off_c, 1, 63, 0
3, 26880, Note_on_c, 1, 63, 82
3, 26976, Note_off_c, 1, 63, 0
3, 26976, Note_on_c, 1, 62, 82
3, 27072, Note_off_c, 1, 62, 0
3, 27072, Note_on_c, 1, 62, 82
3, 27168, Note_off_c, 1, 62, 0
3, 27168, Note_on_c, 1, 70, 82
3, 27264, Note_off_c, 1, 70, 0
3, 27264, Note_on_c, 1, 62, 82
3, 27360, Note_off_c, 1, 62, 0
3, 27360, Note_on_c, 1, 60, 82
3, 27456, Note_off_c, 1, 60, 0
3, 27456, Note_on_c, 1, 60, 82
3, 27552, Note_off_c, 1, 60, 0
3, 27552, Note_on_c, 1, 58, 82
3, 27648, Note_off_c, 1, 58, 0
3, 27648, Note_on_c, 1, 62, 82
3, 28416, Note_off_c, 1, 62, 0
3, 28416, Note_on_c, 1, 65, 82
3, 28608, Note_off_c, 1, 65, 0
3, 28608, Note_on_c, 1, 70, 82
3, 28800, Note_off_c, 1, 70, 0
3, 28800, Note_on_c, 1, 69, 82
3, 28992, Note_off_c, 1, 69, 0
3, 28992, Note_on_c, 1, 70, 82
3, 29184, Note_off_c, 1, 70, 0
3, 29184, Note_on_c, 1, 63, 82
3, 29376, Note_off_c, 1, 63, 0
3, 29376, Note_on_c, 1, 63, 82
3, 29568, Note_off_c, 1, 63, 0
3, 29568, Note_on_c, 1, 69, 82
3, 29760, Note_off_c, 1, 69, 0
3, 29760, Note_on_c, 1, 70, 82
3, 29952, Note_off_c, 1, 70, 0
3, 29952, Note_on_c, 1, 69, 82
3, 30144, Note_off_c, 1, 69, 0
3, 30144, Note_on_c, 1, 70, 82
3, 30336, Note_off_c, 1, 70, 0
3, 30336, Note_on_c, 1, 62, 82
3, 30528, Note_off_c, 1, 62, 0
3, 30528, Note_on_c, 1, 62, 82
3, 30720, Note_off_c, 1, 62, 0
3, 30720, Note_on_c, 1, 65, 82
3, 30912, Note_off_c, 1, 65, 0
3, 30912, Note_on_c, 1, 69, 82
3, 31104, Note_off_c, 1, 69, 0
3, 31104, Note_on_c, 1, 72, 82
3, 31296, Note_off_c, 1, 72, 0
3, 31296, Note_on_c, 1, 70, 82
3, 31488, Note_off_c, 1, 70, 0
3, 31488, Note_on_c, 1, 69, 82
3, 31680, Note_off_c, 1, 69, 0
3, 31680, Note_on_c, 1, 70, 82
3, 32064, Note_off_c, 1, 70, 0
3, 32064, Note_on_c, 1, 63, 82
3, 32256, Note_off_c, 1, 63, 0
3, 32256, Note_on_c, 1, 63, 115
3, 32304, Note_off_c, 1, 63, 0
3, 32304, Note_on_c, 1, 62, 115
3, 32352, Note_off_c, 1, 62, 0
3, 32352, Note_on_c, 1, 63, 115
3, 32400, Note_off_c, 1, 63, 0
3, 32400, Note_on_c, 1, 62, 115
3, 32448, Note_off_c, 1, 62, 0
3, 32448, Note_on_c, 1, 63, 115
3, 32496, Note_off_c, 1, 63, 0
3, 32496, Note_on_c, 1, 62, 115
3, 32640, Note_off_c, 1, 62, 0
3, 32640, Note_on_c, 1, 60, 82
3, 32832, Note_off_c, 1, 60, 0
3, 32832, Note_on_c, 1, 72, 126
3, 33216, Note_off_c, 1, 72, 0
3, 33216, Note_on_c, 1, 70, 126
3, 33408, Note_off_c, 1, 70, 0
3, 33408, Note_on_c, 1, 69, 126
3, 33792, Note_off_c, 1, 69, 0
3, 33792, Note_on_c, 1, 70, 126
3, 33984, Note_off_c, 1, 70, 0
3, 33984, Note_on_c, 1, 72, 126
3, 34176, Note_off_c, 1, 72, 0
3, 34176, Note_on_c, 1, 74, 126
3, 34368, Note_off_c, 1, 74, 0
3, 34368, Note_on_c, 1, 75, 126
3, 34560, Note_off_c, 1, 75, 0
3, 34560, Note_on_c, 1, 77, 126
3, 35232, Note_off_c, 1, 77, 0
3, 35232, Note_on_c, 1, 72, 82
3, 35328, Note_off_c, 1, 72, 0
3, 35328, Note_on_c, 1, 72, 82
3, 35424, Note_off_c, 1, 72, 0
3, 35424, Note_on_c, 1, 70, 82
3, 35520, Note_off_c, 1, 70, 0
3, 35520, Note_on_c, 1, 70, 82
3, 35616, Note_off_c, 1, 70, 0
3, 35616, Note_on_c, 1, 69, 82
3, 35712, Note_off_c, 1, 69, 0
3, 35712, Note_on_c, 1, 67, 82
3, 35808, Note_off_c, 1, 67, 0
3, 35808, Note_on_c, 1, 74, 82
3, 35904, Note_off_c, 1, 74, 0
3, 35904, Note_on_c, 1, 67, 82
3, 36000, Note_off_c, 1, 67, 0
3, 36000, Note_on_c, 1, 65, 82
3, 36096, Note_off_c, 1, 65, 0
3, 36096, Note_on_c, 1, 65, 82
3, 36192, Note_off_c, 1, 65, 0
3, 36192, Note_on_c, 1, 63, 82
3, 36288, Note_off_c, 1, 63, 0
3, 36288, Note_on_c, 1, 63, 82
3, 36480, Note_off_c, 1, 63, 0
3, 36480, Note_on_c, 1, 63, 82
3, 36576, Note_off_c, 1, 63, 0
3, 36576, Note_on_c, 1, 62, 82
3, 36672, Note_off_c, 1, 62, 0
3, 36672, Note_on_c, 1, 62, 82
3, 36768, Note_off_c, 1, 62, 0
3, 36768, Note_on_c, 1, 60, 82
3, 36864, Note_off_c, 1, 60, 0
3, 36864, Note_on_c, 1, 70, 126
3, 37056, Note_off_c, 1, 70, 0
3, 37056, Note_on_c, 1, 69, 126
3, 37152, Note_off_c, 1, 69, 0
3, 37152, Note_on_c, 1, 67, 126
3, 37248, Note_off_c, 1, 67, 0
3, 37248, Note_on_c, 1, 67, 126
3, 37344, Note_off_c, 1, 67, 0
3, 37344, Note_on_c, 1, 65, 126
3, 37440, Note_off_c, 1, 65, 0
3, 37440, Note_on_c, 1, 65, 126
3, 37536, Note_off_c, 1, 65, 0
3, 37536, Note_on_c, 1, 70, 126
3, 37632, Note_off_c, 1, 70, 0
3, 37632, Note_on_c, 1, 65, 126
3, 37728, Note_off_c, 1, 65, 0
3, 37728, Note_on_c, 1, 63, 126
3, 37824, Note_off_c, 1, 63, 0
3, 37824, Note_on_c, 1, 63, 126
3, 37920, Note_off_c, 1, 63, 0
3, 37920, Note_on_c, 1, 62, 126
3, 38016, Note_off_c, 1, 62, 0
3, 38016, Note_on_c, 1, 62, 126
3, 38400, Note_off_c, 1, 62, 0
3, 38400, Note_on_c, 1, 63, 126
3, 38592, Note_off_c, 1, 63, 0
3, 38592, Note_on_c, 1, 65, 126
3, 38784, Note_off_c, 1, 65, 0
3, 38784, Note_on_c, 1, 67, 126
3, 38976, Note_off_c, 1, 67, 0
3, 38976, Note_on_c, 1, 68, 126
3, 39168, Note_off_c, 1, 68, 0
3, 39168, Note_on_c, 1, 70, 126
3, 39840, Note_off_c, 1, 70, 0
3, 39840, Note_on_c, 1, 65, 82
3, 39936, Note_off_c, 1, 65, 0
3, 39936, Note_on_c, 1, 65, 82
3, 40032, Note_off_c, 1, 65, 0
3, 40032, Note_on_c, 1, 63, 82
3, 40128, Note_off_c, 1, 63, 0
3, 40128, Note_on_c, 1, 63, 82
3, 40224, Note_off_c, 1, 63, 0
3, 40224, Note_on_c, 1, 62, 82
3, 40320, Note_off_c, 1, 62, 0
3, 40320, Note_on_c, 1, 62, 82
3, 40416, Note_off_c, 1, 62, 0
3, 40416, Note_on_c, 1, 68, 82
3, 40512, Note_off_c, 1, 68, 0
3, 40512, Note_on_c, 1, 62, 82
3, 40608, Note_off_c, 1, 62, 0
3, 40608, Note_on_c, 1, 60, 82
3, 40704, Note_off_c, 1, 60, 0
3, 40704, Note_on_c, 1, 60, 82
3, 40800, Note_off_c, 1, 60, 0
3, 40800, Note_on_c, 1, 58, 82
3, 40896, Note_off_c, 1, 58, 0
3, 40896, Note_on_c, 1, 58, 82
3, 40992, Note_off_c, 1, 58, 0
3, 40992, Note_on_c, 1, 65, 82
3, 41088, Note_off_c, 1, 65, 0
3, 41088, Note_on_c, 1, 58, 82
3, 41184, Note_off_c, 1, 58, 0
3, 41184, Note_on_c, 1, 56, 82
3, 41280, Note_off_c, 1, 56, 0
3, 41280, Note_on_c, 1, 56, 82
3, 41376, Note_off_c, 1, 56, 0
3, 41376, Note_on_c, 1, 55, 82
3, 41472, Note_off_c, 1, 55, 0
3, 41472, Note_on_c, 1, 63, 82
3, 42240, Note_off_c, 1, 63, 0
3, 42240, Note_on_c, 1, 67, 82
3, 42432, Note_off_c, 1, 67, 0
3, 42432, Note_on_c, 1, 68, 82
3, 42624, Note_off_c, 1, 68, 0
3, 42624, Note_on_c, 1, 74, 82
3, 42816, Note_off_c, 1, 74, 0
3, 42816, Note_on_c, 1, 75, 82
3, 43008, Note_off_c, 1, 75, 0
3, 43008, Note_on_c, 1, 68, 82
3, 43392, Note_off_c, 1, 68, 0
3, 43392, Note_on_c, 1, 65, 82
3, 43584, Note_off_c, 1, 65, 0
3, 43584, Note_on_c, 1, 67, 82
3, 43776, Note_off_c, 1, 67, 0
3, 43776, Note_on_c, 1, 74, 82
3, 43968, Note_off_c, 1, 74, 0
3, 43968, Note_on_c, 1, 75, 82
3, 44160, Note_off_c, 1, 75, 0
3, 44160, Note_on_c, 1, 67, 82
3, 44352, Note_off_c, 1, 67, 0
3, 44352, Note_on_c, 1, 67, 82
3, 44544, Note_off_c, 1, 67, 0
3, 44544, Note_on_c, 1, 70, 82
3, 44736, Note_off_c, 1, 70, 0
3, 44736, Note_on_c, 1, 74, 82
3, 44928, Note_off_c, 1, 74, 0
3, 44928, Note_on_c, 1, 77, 82
3, 45312, Note_off_c, 1, 77, 0
3, 45312, Note_on_c, 1, 74, 82
3, 45504, Note_off_c, 1, 74, 0
3, 45504, Note_on_c, 1, 75, 82
3, 45888, Note_off_c, 1, 75, 0
3, 45888, Note_on_c, 1, 68, 82
3, 46080, Note_off_c, 1, 68, 0
3, 46080, Note_on_c, 1, 69, 82
3, 46128, Note_off_c, 1, 69, 0
3, 46128, Note_on_c, 1, 67, 82
3, 46176, Note_off_c, 1, 67, 0
3, 46176, Note_on_c, 1, 69, 82
3, 46224, Note_off_c, 1, 69, 0
3, 46224, Note_on_c, 1, 67, 82
3, 46272, Note_off_c, 1, 67, 0
3, 46272, Note_on_c, 1, 69, 82
3, 46320, Note_off_c, 1, 69, 0
3, 46320, Note_on_c, 1, 67, 82
3, 46464, Note_off_c, 1, 67, 0
3, 46464, Note_on_c, 1, 65, 82
3, 46656, Note_off_c, 1, 65, 0
3, 46656, Note_on_c, 1, 74, 82
3, 46752, Note_off_c, 1, 74, 0
3, 46752, Note_on_c, 1, 75, 82
3, 46848, Note_off_c, 1, 75, 0
3, 46848, Note_on_c, 1, 77, 82
3, 46944, Note_off_c, 1, 77, 0
3, 46944, Note_on_c, 1, 74, 82
3, 47040, Note_off_c, 1, 74, 0
3, 47040, Note_on_c, 1, 74, 82
3, 47136, Note_off_c, 1, 74, 0
3, 47136, Note_on_c, 1, 72, 82
3, 47232, Note_off_c, 1, 72, 0
3, 47232, Note_on_c, 1, 72, 82
3, 47328, Note_off_c, 1, 72, 0
3, 47328, Note_on_c, 1, 71, 82
3, 47424, Note_off_c, 1, 71, 0
3, 47424, Note_on_c, 1, 71, 82
3, 47520, Note_off_c, 1, 71, 0
3, 47520, Note_on_c, 1, 72, 82
3, 47616, Note_off_c, 1, 72, 0
3, 47616, Note_on_c, 1, 74, 82
3, 47712, Note_off_c, 1, 74, 0
3, 47712, Note_on_c, 1, 71, 82
3, 47808, Note_off_c, 1, 71, 0
3, 47808, Note_on_c, 1, 65, 82
3, 47904, Note_off_c, 1, 65, 0
3, 47904, Note_on_c, 1, 67, 82
3, 48000, Note_off_c, 1, 67, 0
3, 48000, Note_on_c, 1, 69, 82
3, 48096, Note_off_c, 1, 69, 0
3, 48096, Note_on_c, 1, 67, 82
3, 48192, Note_off_c, 1, 67, 0
3, 48192, Note_on_c, 1, 67, 82
3, 48288, Note_off_c, 1, 67, 0
3, 48288, Note_on_c, 1, 65, 82
3, 48384, Note_off_c, 1, 65, 0
3, 48384, Note_on_c, 1, 63, 82
3, 48480, Note_off_c, 1, 63, 0
3, 48480, Note_on_c, 1, 65, 82
3, 48576, Note_off_c, 1, 65, 0
3, 48576, Note_on_c, 1, 67, 82
3, 48672, Note_off_c, 1, 67, 0
3, 48672, Note_on_c, 1, 71, 82
3, 48768, Note_off_c, 1, 71, 0
3, 48768, Note_on_c, 1, 71, 82
3, 48864, Note_off_c, 1, 71, 0
3, 48864, Note_on_c, 1, 72, 82
3, 48960, Note_off_c, 1, 72, 0
3, 48960, Note_on_c, 1, 72, 82
3, 49056, Note_off_c, 1, 72, 0
3, 49056, Note_on_c, 1, 74, 82
3, 49152, Note_off_c, 1, 74, 0
3, 49152, Note_on_c, 1, 75, 82
3, 49248, Note_off_c, 1, 75, 0
3, 49248, Note_on_c, 1, 72, 82
3, 49344, Note_off_c, 1, 72, 0
3, 49344, Note_on_c, 1, 72, 82
3, 49440, Note_off_c, 1, 72, 0
3, 49440, Note_on_c, 1, 70, 82
3, 49536, Note_off_c, 1, 70, 0
3, 49536, Note_on_c, 1, 70, 82
3, 49632, Note_off_c, 1, 70, 0
3, 49632, Note_on_c, 1, 69, 82
3, 49728, Note_off_c, 1, 69, 0
3, 49728, Note_on_c, 1, 69, 82
3, 49824, Note_off_c, 1, 69, 0
3, 49824, Note_on_c, 1, 70, 82
3, 49920, Note_off_c, 1, 70, 0
3, 49920, Note_on_c, 1, 72, 82
3, 50016, Note_off_c, 1, 72, 0
3, 50016, Note_on_c, 1, 69, 82
3, 50112, Note_off_c, 1, 69, 0
3, 50112, Note_on_c, 1, 63, 82
3, 50208, Note_off_c, 1, 63, 0
3, 50208, Note_on_c, 1, 65, 82
3, 50304, Note_off_c, 1, 65, 0
3, 50304, Note_on_c, 1, 67, 82
3, 50400, Note_off_c, 1, 67, 0
3, 50400, Note_on_c, 1, 65, 82
3, 50496, Note_off_c, 1, 65, 0
3, 50496, Note_on_c, 1, 65, 82
3, 50592, Note_off_c, 1, 65, 0
3, 50592, Note_on_c, 1, 63, 82
3, 50688, Note_off_c, 1, 63, 0
3, 50688, Note_on_c, 1, 62, 82
3, 50784, Note_off_c, 1, 62, 0
3, 50784, Note_on_c, 1, 63, 82
3, 50880, Note_off_c, 1, 63, 0
3, 50880, Note_on_c, 1, 65, 82
3, 50976, Note_off_c, 1, 65, 0
3, 50976, Note_on_c, 1, 69, 82
3, 51072, Note_off_c, 1, 69, 0
3, 51072, Note_on_c, 1, 69, 82
3, 51168, Note_off_c, 1, 69, 0
3, 51168, Note_on_c, 1, 70, 82
3, 51264, Note_off_c, 1, 70, 0
3, 51264, Note_on_c, 1, 70, 82
3, 51360, Note_off_c, 1, 70, 0
3, 51360, Note_on_c, 1, 68, 82
3, 51456, Note_off_c, 1, 68, 0
3, 51456, Note_on_c, 1, 68, 82
3, 51552, Note_off_c, 1, 68, 0
3, 51552, Note_on_c, 1, 67, 82
3, 51648, Note_off_c, 1, 67, 0
3, 51648, Note_on_c, 1, 67, 82
3, 51744, Note_off_c, 1, 67, 0
3, 51744, Note_on_c, 1, 65, 82
3, 51840, Note_off_c, 1, 65, 0
3, 51840, Note_on_c, 1, 65, 82
3, 51936, Note_off_c, 1, 65, 0
3, 51936, Note_on_c, 1, 70, 82
3, 52032, Note_off_c, 1, 70, 0
3, 52032, Note_on_c, 1, 67, 82
3, 52128, Note_off_c, 1, 67, 0
3, 52128, Note_on_c, 1, 65, 82
3, 52224, Note_off_c, 1, 65, 0
3, 52224, Note_on_c, 1, 65, 82
3, 52320, Note_off_c, 1, 65, 0
3, 52320, Note_on_c, 1, 63, 82
3, 52416, Note_off_c, 1, 63, 0
3, 52416, Note_on_c, 1, 63, 82
3, 52512, Note_off_c, 1, 63, 0
3, 52512, Note_on_c, 1, 70, 82
3, 52608, Note_off_c, 1, 70, 0
3, 52608, Note_on_c, 1, 65, 82
3, 52704, Note_off_c, 1, 65, 0
3, 52704, Note_on_c, 1, 63, 82
3, 52800, Note_off_c, 1, 63, 0
3, 52800, Note_on_c, 1, 63, 82
3, 52896, Note_off_c, 1, 63, 0
3, 52896, Note_on_c, 1, 62, 82
3, 52992, Note_off_c, 1, 62, 0
3, 52992, Note_on_c, 1, 62, 82
3, 53088, Note_off_c, 1, 62, 0
3, 53088, Note_on_c, 1, 70, 82
3, 53184, Note_off_c, 1, 70, 0
3, 53184, Note_on_c, 1, 63, 82
3, 53280, Note_off_c, 1, 63, 0
3, 53280, Note_on_c, 1, 62, 82
3, 53376, Note_off_c, 1, 62, 0
3, 53376, Note_on_c, 1, 62, 82
3, 53472, Note_off_c, 1, 62, 0
3, 53472, Note_on_c, 1, 60, 82
3, 53568, Note_off_c, 1, 60, 0
3, 53568, Note_on_c, 1, 60, 82
3, 54240, Note_off_c, 1, 60, 0
3, 54240, Note_on_c, 1, 69, 115
3, 54336, Note_off_c, 1, 69, 0
3, 54336, Note_on_c, 1, 69, 115
3, 54432, Note_off_c, 1, 69, 0
3, 54432, Note_on_c, 1, 70, 115
3, 54528, Note_off_c, 1, 70, 0
3, 54528, Note_on_c, 1, 70, 115
3, 54624, Note_off_c, 1, 70, 0
3, 54624, Note_on_c, 1, 60, 115
3, 54720, Note_off_c, 1, 60, 0
3, 54720, Note_on_c, 1, 60, 82
3, 55392, Note_off_c, 1, 60, 0
3, 55392, Note_on_c, 1, 69, 115
3, 55488, Note_off_c, 1, 69, 0
3, 55488, Note_on_c, 1, 69, 115
3, 55584, Note_off_c, 1, 69, 0
3, 55584, Note_on_c, 1, 70, 115
3, 55680, Note_off_c, 1, 70, 0
3, 55680, Note_on_c, 1, 70, 115
3, 55776, Note_off_c, 1, 70, 0
3, 55776, Note_on_c, 1, 60, 115
3, 55872, Note_off_c, 1, 60, 0
3, 55872, Note_on_c, 1, 60, 82
3, 55968, Note_off_c, 1, 60, 0
3, 55968, Note_on_c, 1, 63, 82
3, 56064, Note_off_c, 1, 63, 0
3, 56064, Note_on_c, 1, 63, 82
3, 56160, Note_off_c, 1, 63, 0
3, 56160, Note_on_c, 1, 62, 82
3, 56256, Note_off_c, 1, 62, 0
3, 56256, Note_on_c, 1, 62, 82
3, 56352, Note_off_c, 1, 62, 0
3, 56352, Note_on_c, 1, 67, 82
3, 56448, Note_off_c, 1, 67, 0
3, 56448, Note_on_c, 1, 67, 82
3, 56544, Note_off_c, 1, 67, 0
3, 56544, Note_on_c, 1, 65, 82
3, 56640, Note_off_c, 1, 65, 0
3, 56640, Note_on_c, 1, 65, 82
3, 56736, Note_off_c, 1, 65, 0
3, 56736, Note_on_c, 1, 69, 82
3, 56832, Note_off_c, 1, 69, 0
3, 56832, Note_on_c, 1, 69, 82
3, 56928, Note_off_c, 1, 69, 0
3, 56928, Note_on_c, 1, 70, 82
3, 57024, Note_off_c, 1, 70, 0
3, 57024, Note_on_c, 1, 63, 82
3, 57216, Note_off_c, 1, 63, 0
3, 57216, Note_on_c, 1, 60, 82
3, 57600, Note_off_c, 1, 60, 0
3, 58176, Note_on_c, 1, 65, 82
3, 58752, Note_off_c, 1, 65, 0
3, 58752, Note_on_c, 1, 63, 82
3, 59328, Note_off_c, 1, 63, 0
3, 59328, Note_on_c, 1, 68, 82
3, 59904, Note_off_c, 1, 68, 0
3, 59904, Note_on_c, 1, 67, 82
3, 60288, Note_off_c, 1, 67, 0
3, 60288, Note_on_c, 1, 72, 82
3, 60480, Note_off_c, 1, 72, 0
3, 60480, Note_on_c, 1, 72, 82
3, 60672, Note_off_c, 1, 72, 0
3, 60864, Note_on_c, 1, 70, 82
3, 61056, Note_off_c, 1, 70, 0
3, 61056, Note_on_c, 1, 70, 82
3, 61248, Note_off_c, 1, 70, 0
3, 61440, Note_on_c, 1, 69, 82
3, 61632, Note_off_c, 1, 69, 0
3, 61632, Note_on_c, 1, 67, 82
3, 61824, Note_off_c, 1, 67, 0
3, 62016, Note_on_c, 1, 67, 82
3, 62208, Note_off_c, 1, 67, 0
3, 62784, Note_on_c, 1, 65, 102
3, 63168, Note_off_c, 1, 65, 0
3, 63168, Note_on_c, 1, 63, 102
3, 63360, Note_off_c, 1, 63, 0
3, 63360, Note_on_c, 1, 62, 102
3, 63744, Note_off_c, 1, 62, 0
3, 63744, Note_on_c, 1, 63, 102
3, 63936, Note_off_c, 1, 63, 0
3, 63936, Note_on_c, 1, 65, 102
3, 64128, Note_off_c, 1, 65, 0
3, 64128, Note_on_c, 1, 67, 102
3, 64320, Note_off_c, 1, 67, 0
3, 64320, Note_on_c, 1, 69, 102
3, 64512, Note_off_c, 1, 69, 0
3, 64512, Note_on_c, 1, 70, 126
3, 65280, Note_off_c, 1, 70, 0
3, 65280, Note_on_c, 1, 65, 126
3, 65472, Note_off_c, 1, 65, 0
3, 65472, Note_on_c, 1, 70, 126
3, 65664, Note_off_c, 1, 70, 0
3, 65664, Note_on_c, 1, 69, 126
3, 65856, Note_off_c, 1, 69, 0
3, 65856, Note_on_c, 1, 70, 126
3, 66048, Note_off_c, 1, 70, 0
3, 66048, Note_on_c, 1, 63, 126
3, 66240, Note_off_c, 1, 63, 0
3, 66240, Note_on_c, 1, 63, 126
3, 66432, Note_off_c, 1, 63, 0
3, 66432, Note_on_c, 1, 69, 126
3, 66624, Note_off_c, 1, 69, 0
3, 66624, Note_on_c, 1, 70, 126
3, 66816, Note_off_c, 1, 70, 0
3, 66816, Note_on_c, 1, 70, 126
3, 67584, Note_off_c, 1, 70, 0
3, 67584, Note_on_c, 1, 65, 126
3, 67776, Note_off_c, 1, 65, 0
3, 67776, Note_on_c, 1, 70, 126
3, 67968, Note_off_c, 1, 70, 0
3, 67968, Note_on_c, 1, 69, 126
3, 68160, Note_off_c, 1, 69, 0
3, 68160, Note_on_c, 1, 70, 126
3, 68352, Note_off_c, 1, 70, 0
3, 68352, Note_on_c, 1, 63, 126
3, 68736, Note_off_c, 1, 63, 0
3, 68736, Note_on_c, 1, 69, 126
3, 68928, Note_off_c, 1, 69, 0
3, 68928, Note_on_c, 1, 70, 126
3, 69120, Note_off_c, 1, 70, 0
3, 69120, Note_on_c, 1, 69, 126
3, 69312, Note_off_c, 1, 69, 0
3, 69312, Note_on_c, 1, 70, 126
3, 69504, Note_off_c, 1, 70, 0
3, 69504, Note_on_c, 1, 62, 126
3, 69696, Note_off_c, 1, 62, 0
3, 69696, Note_on_c, 1, 62, 126
3, 69888, Note_off_c, 1, 62, 0
3, 69888, Note_on_c, 1, 65, 126
3, 70080, Note_off_c, 1, 65, 0
3, 70080, Note_on_c, 1, 69, 126
3, 70272, Note_off_c, 1, 69, 0
3, 70272, Note_on_c, 1, 72, 126
3, 70656, Note_off_c, 1, 72, 0
3, 70656, Note_on_c, 1, 69, 126
3, 70848, Note_off_c, 1, 69, 0
3, 70848, Note_on_c, 1, 70, 126
3, 71232, Note_off_c, 1, 70, 0
3, 71232, Note_on_c, 1, 63, 126
3, 71424, Note_off_c, 1, 63, 0
3, 71424, Note_on_c, 1, 63, 126
3, 71472, Note_off_c, 1, 63, 0
3, 71472, Note_on_c, 1, 62, 126
3, 71520, Note_off_c, 1, 62, 0
3, 71520, Note_on_c, 1, 63, 126
3, 71568, Note_off_c, 1, 63, 0
3, 71568, Note_on_c, 1, 62, 126
3, 71616, Note_off_c, 1, 62, 0
3, 71616, Note_on_c, 1, 63, 126
3, 71664, Note_off_c, 1, 63, 0
3, 71664, Note_on_c, 1, 62, 126
3, 71808, Note_off_c, 1, 62, 0
3, 71808, Note_on_c, 1, 60, 126
3, 72000, Note_off_c, 1, 60, 0
3, 72000, Note_on_c, 1, 72, 126
3, 72096, Note_off_c, 1, 72, 0
3, 72096, Note_on_c, 1, 74, 126
3, 72192, Note_off_c, 1, 74, 0
3, 72192, Note_on_c, 1, 75, 126
3, 72288, Note_off_c, 1, 75, 0
3, 72288, Note_on_c, 1, 72, 126
3, 72384, Note_off_c, 1, 72, 0
3, 72384, Note_on_c, 1, 72, 126
3, 72480, Note_off_c, 1, 72, 0
3, 72480, Note_on_c, 1, 70, 126
3, 72576, Note_off_c, 1, 70, 0
3, 72576, Note_on_c, 1, 70, 126
3, 72672, Note_off_c, 1, 70, 0
3, 72672, Note_on_c, 1, 69, 126
3, 72768, Note_off_c, 1, 69, 0
3, 72768, Note_on_c, 1, 69, 126
3, 72864, Note_off_c, 1, 69, 0
3, 72864, Note_on_c, 1, 67, 126
3, 72960, Note_off_c, 1, 67, 0
3, 72960, Note_on_c, 1, 67, 126
3, 73056, Note_off_c, 1, 67, 0
3, 73056, Note_on_c, 1, 65, 126
3, 73152, Note_off_c, 1, 65, 0
3, 73152, Note_on_c, 1, 72, 126
3, 73248, Note_off_c, 1, 72, 0
3, 73248, Note_on_c, 1, 74, 126
3, 73344, Note_off_c, 1, 74, 0
3, 73344, Note_on_c, 1, 75, 126
3, 73440, Note_off_c, 1, 75, 0
3, 73440, Note_on_c, 1, 72, 126
3, 73536, Note_off_c, 1, 72, 0
3, 73536, Note_on_c, 1, 72, 126
3, 73632, Note_off_c, 1, 72, 0
3, 73632, Note_on_c, 1, 70, 126
3, 73728, Note_off_c, 1, 70, 0
3, 73728, Note_on_c, 1, 70, 126
3, 73824, Note_off_c, 1, 70, 0
3, 73824, Note_on_c, 1, 69, 126
3, 73920, Note_off_c, 1, 69, 0
3, 73920, Note_on_c, 1, 69, 126
3, 74016, Note_off_c, 1, 69, 0
3, 74016, Note_on_c, 1, 67, 126
3, 74112, Note_off_c, 1, 67, 0
3, 74112, Note_on_c, 1, 67, 126
3, 74208, Note_off_c, 1, 67, 0
3, 74208, Note_on_c, 1, 65, 126
3, 74304, Note_off_c, 1, 65, 0
3, 74304, Note_on_c, 1, 74, 126
3, 74400, Note_off_c, 1, 74, 0
3, 74400, Note_on_c, 1, 75, 126
3, 74496, Note_off_c, 1, 75, 0
3, 74496, Note_on_c, 1, 77, 126
3, 74592, Note_off_c, 1, 77, 0
3, 74592, Note_on_c, 1, 74, 126
3, 74688, Note_off_c, 1, 74, 0
3, 74688, Note_on_c, 1, 74, 126
3, 74784, Note_off_c, 1, 74, 0
3, 74784, Note_on_c, 1, 72, 126
3, 74880, Note_off_c, 1, 72, 0
3, 74880, Note_on_c, 1, 72, 126
3, 74976, Note_off_c, 1, 72, 0
3, 74976, Note_on_c, 1, 70, 126
3, 75072, Note_off_c, 1, 70, 0
3, 75072, Note_on_c, 1, 70, 126
3, 75168, Note_off_c, 1, 70, 0
3, 75168, Note_on_c, 1, 68, 126
3, 75264, Note_off_c, 1, 68, 0
3, 75264, Note_on_c, 1, 68, 126
3, 75360, Note_off_c, 1, 68, 0
3, 75360, Note_on_c, 1, 70, 126
3, 75456, Note_off_c, 1, 70, 0
3, 75456, Note_on_c, 1, 74, 126
3, 75552, Note_off_c, 1, 74, 0
3, 75552, Note_on_c, 1, 75, 126
3, 75648, Note_off_c, 1, 75, 0
3, 75648, Note_on_c, 1, 77, 126
3, 75744, Note_off_c, 1, 77, 0
3, 75744, Note_on_c, 1, 74, 126
3, 75840, Note_off_c, 1, 74, 0
3, 75840, Note_on_c, 1, 74, 126
3, 75936, Note_off_c, 1, 74, 0
3, 75936, Note_on_c, 1, 72, 126
3, 76032, Note_off_c, 1, 72, 0
3, 76032, Note_on_c, 1, 72, 126
3, 76128, Note_off_c, 1, 72, 0
3, 76128, Note_on_c, 1, 70, 126
3, 76224, Note_off_c, 1, 70, 0
3, 76224, Note_on_c, 1, 70, 126
3, 76320, Note_off_c, 1, 70, 0
3, 76320, Note_on_c, 1, 68, 126
3, 76416, Note_off_c, 1, 68, 0
3, 76416, Note_on_c, 1, 68, 126
3, 76512, Note_off_c, 1, 68, 0
3, 76512, Note_on_c, 1, 67, 126
3, 76608, Note_off_c, 1, 67, 0
3, 76608, Note_on_c, 1, 67, 126
3, 76704, Note_off_c, 1, 67, 0
3, 76704, Note_on_c, 1, 70, 126
3, 76800, Note_off_c, 1, 70, 0
3, 76800, Note_on_c, 1, 68, 126
3, 76896, Note_off_c, 1, 68, 0
3, 76896, Note_on_c, 1, 67, 126
3, 76992, Note_off_c, 1, 67, 0
3, 76992, Note_on_c, 1, 67, 126
3, 77088, Note_off_c, 1, 67, 0
3, 77088, Note_on_c, 1, 65, 126
3, 77184, Note_off_c, 1, 65, 0
3, 77184, Note_on_c, 1, 65, 126
3, 77280, Note_off_c, 1, 65, 0
3, 77280, Note_on_c, 1, 70, 126
3, 77376, Note_off_c, 1, 70, 0
3, 77376, Note_on_c, 1, 67, 126
3, 77472, Note_off_c, 1, 67, 0
3, 77472, Note_on_c, 1, 65, 126
3, 77568, Note_off_c, 1, 65, 0
3, 77568, Note_on_c, 1, 65, 126
3, 77664, Note_off_c, 1, 65, 0
3, 77664, Note_on_c, 1, 63, 126
3, 77760, Note_off_c, 1, 63, 0
3, 77760, Note_on_c, 1, 63, 126
3, 77856, Note_off_c, 1, 63, 0
3, 77856, Note_on_c, 1, 70, 126
3, 77952, Note_off_c, 1, 70, 0
3, 77952, Note_on_c, 1, 65, 126
3, 78048, Note_off_c, 1, 65, 0
3, 78048, Note_on_c, 1, 63, 126
3, 78144, Note_off_c, 1, 63, 0
3, 78144, Note_on_c, 1, 63, 126
3, 78240, Note_off_c, 1, 63, 0
3, 78240, Note_on_c, 1, 62, 126
3, 78336, Note_off_c, 1, 62, 0
3, 78336, Note_on_c, 1, 62, 126
3, 78432, Note_off_c, 1, 62, 0
3, 78432, Note_on_c, 1, 70, 126
3, 78528, Note_off_c, 1, 70, 0
3, 78528, Note_on_c, 1, 63, 126
3, 78624, Note_off_c, 1, 63, 0
3, 78624, Note_on_c, 1, 62, 126
3, 78720, Note_off_c, 1, 62, 0
3, 78720, Note_on_c, 1, 62, 126
3, 78816, Note_off_c, 1, 62, 0
3, 78816, Note_on_c, 1, 60, 126
3, 78912, Note_off_c, 1, 60, 0
3, 78912, Note_on_c, 1, 60, 126
3, 79008, Note_off_c, 1, 60, 0
3, 79008, Note_on_c, 1, 69, 126
3, 79104, Note_off_c, 1, 69, 0
3, 79104, Note_on_c, 1, 69, 126
3, 79200, Note_off_c, 1, 69, 0
3, 79200, Note_on_c, 1, 70, 126
3, 79296, Note_off_c, 1, 70, 0
3, 79296, Note_on_c, 1, 70, 126
3, 79392, Note_off_c, 1, 70, 0
3, 79392, Note_on_c, 1, 60, 126
3, 79488, Note_off_c, 1, 60, 0
3, 79488, Note_on_c, 1, 60, 126
3, 79584, Note_off_c, 1, 60, 0
3, 79584, Note_on_c, 1, 69, 126
3, 79680, Note_off_c, 1, 69, 0
3, 79680, Note_on_c, 1, 69, 126
3, 79776, Note_off_c, 1, 69, 0
3, 79776, Note_on_c, 1, 70, 126
3, 79872, Note_off_c, 1, 70, 0
3, 79872, Note_on_c, 1, 70, 126
3, 79968, Note_off_c, 1, 70, 0
3, 79968, Note_on_c, 1, 60, 126
3, 80064, Note_off_c, 1, 60, 0
3, 80064, Note_on_c, 1, 60, 126
3, 80160, Note_off_c, 1, 60, 0
3, 80160, Note_on_c, 1, 69, 126
3, 80256, Note_off_c, 1, 69, 0
3, 80256, Note_on_c, 1, 69, 126
3, 80352, Note_off_c, 1, 69, 0
3, 80352, Note_on_c, 1, 70, 126
3, 80448, Note_off_c, 1, 70, 0
3, 80448, Note_on_c, 1, 70, 126
3, 80544, Note_off_c, 1, 70, 0
3, 80544, Note_on_c, 1, 60, 126
3, 80640, Note_off_c, 1, 60, 0
3, 80640, Note_on_c, 1, 60, 126
3, 80736, Note_off_c, 1, 60, 0
3, 80736, Note_on_c, 1, 69, 126
3, 80832, Note_off_c, 1, 69, 0
3, 80832, Note_on_c, 1, 69, 126
3, 80928, Note_off_c, 1, 69, 0
3, 80928, Note_on_c, 1, 70, 126
3, 81024, Note_off_c, 1, 70, 0
3, 81024, Note_on_c, 1, 70, 126
3, 81120, Note_off_c, 1, 70, 0
3, 81120, Note_on_c, 1, 60, 126
3, 81216, Note_off_c, 1, 60, 0
3, 81216, Note_on_c, 1, 60, 126
3, 81312, Note_off_c, 1, 60, 0
3, 81312, Note_on_c, 1, 63, 126
3, 81408, Note_off_c, 1, 63, 0
3, 81408, Note_on_c, 1, 63, 126
3, 81504, Note_off_c, 1, 63, 0
3, 81504, Note_on_c, 1, 62, 126
3, 81600, Note_off_c, 1, 62, 0
3, 81600, Note_on_c, 1, 62, 126
3, 81696, Note_off_c, 1, 62, 0
3, 81696, Note_on_c, 1, 67, 126
3, 81792, Note_off_c, 1, 67, 0
3, 81792, Note_on_c, 1, 67, 126
3, 81888, Note_off_c, 1, 67, 0
3, 81888, Note_on_c, 1, 65, 126
3, 81984, Note_off_c, 1, 65, 0
3, 81984, Note_on_c, 1, 65, 126
3, 82080, Note_off_c, 1, 65, 0
3, 82080, Note_on_c, 1, 69, 126
3, 82176, Note_off_c, 1, 69, 0
3, 82176, Note_on_c, 1, 69, 126
3, 82272, Note_off_c, 1, 69, 0
3, 82272, Note_on_c, 1, 70, 126
3, 82368, Note_off_c, 1, 70, 0
3, 82368, Note_on_c, 1, 63, 126
3, 82560, Note_off_c, 1, 63, 0
3, 82560, Note_on_c, 1, 62, 126
3, 82608, Note_off_c, 1, 62, 0
3, 82608, Note_on_c, 1, 60, 126
3, 82656, Note_off_c, 1, 60, 0
3, 82656, Note_on_c, 1, 62, 126
3, 82704, Note_off_c, 1, 62, 0
3, 82704, Note_on_c, 1, 60, 126
3, 82752, Note_off_c, 1, 60, 0
3, 82752, Note_on_c, 1, 62, 126
3, 82800, Note_off_c, 1, 62, 0
3, 82800, Note_on_c, 1, 60, 126
3, 82944, Note_off_c, 1, 60, 0
3, 82944, Note_on_c, 1, 58, 126
3, 83328, Note_off_c, 1, 58, 0
3, 85824, Note_on_c, 1, 72, 126
3, 85920, Note_off_c, 1, 72, 0
3, 85920, Note_on_c, 1, 74, 126
3, 86016, Note_off_c, 1, 74, 0
3, 86016, Note_on_c, 1, 75, 126
3, 86112, Note_off_c, 1, 75, 0
3, 86112, Note_on_c, 1, 72, 126
3, 86208, Note_off_c, 1, 72, 0
3, 86208, Note_on_c, 1, 72, 126
3, 86304, Note_off_c, 1, 72, 0
3, 86304, Note_on_c, 1, 70, 126
3, 86400, Note_off_c, 1, 70, 0
3, 86400, Note_on_c, 1, 69, 126
3, 86592, Note_off_c, 1, 69, 0
3, 86976, Note_on_c, 1, 70, 126
3, 87072, Note_off_c, 1, 70, 0
3, 87072, Note_on_c, 1, 72, 126
3, 87168, Note_off_c, 1, 72, 0
3, 87168, Note_on_c, 1, 74, 126
3, 87264, Note_off_c, 1, 74, 0
3, 87264, Note_on_c, 1, 70, 126
3, 87360, Note_off_c, 1, 70, 0
3, 87360, Note_on_c, 1, 70, 126
3, 87456, Note_off_c, 1, 70, 0
3, 87456, Note_on_c, 1, 69, 126
3, 87552, Note_off_c, 1, 69, 0
3, 87552, Note_on_c, 1, 67, 126
3, 87744, Note_off_c, 1, 67, 0
3, 88128, Note_on_c, 1, 67, 126
3, 88320, Note_off_c, 1, 67, 0
3, 88512, Note_on_c, 1, 69, 126
3, 88704, Note_off_c, 1, 69, 0
3, 88704, Note_on_c, 1, 72, 126
3, 88896, Note_off_c, 1, 72, 0
3, 89088, Note_on_c, 1, 72, 126
3, 89280, Note_off_c, 1, 72, 0
3, 89280, Note_on_c, 1, 70, 126
3, 89472, Note_off_c, 1, 70, 0
3, 89664, Note_on_c, 1, 69, 126
3, 89856, Note_off_c, 1, 69, 0
3, 89856, Note_on_c, 1, 69, 126
3, 90048, Note_off_c, 1, 69, 0
3, 90432, Note_on_c, 1, 69, 126
3, 90528, Note_off_c, 1, 69, 0
3, 90528, Note_on_c, 1, 70, 126
3, 90624, Note_off_c, 1, 70, 0
3, 90624, Note_on_c, 1, 72, 126
3, 90720, Note_off_c, 1, 72, 0
3, 90720, Note_on_c, 1, 69, 126
3, 90816, Note_off_c, 1, 69, 0
3, 90816, Note_on_c, 1, 69, 126
3, 90912, Note_off_c, 1, 69, 0
3, 90912, Note_on_c, 1, 67, 126
3, 91008, Note_off_c, 1, 67, 0
3, 91008, Note_on_c, 1, 67, 126
3, 91104, Note_off_c, 1, 67, 0
3, 91104, Note_on_c, 1, 66, 126
3, 91200, Note_off_c, 1, 66, 0
3, 91200, Note_on_c, 1, 66, 126
3, 91296, Note_off_c, 1, 66, 0
3, 91296, Note_on_c, 1, 64, 126
3, 91392, Note_off_c, 1, 64, 0
3, 91392, Note_on_c, 1, 64, 126
3, 91488, Note_off_c, 1, 64, 0
3, 91488, Note_on_c, 1, 62, 126
3, 91584, Note_off_c, 1, 62, 0
3, 91584, Note_on_c, 1, 69, 126
3, 91680, Note_off_c, 1, 69, 0
3, 91680, Note_on_c, 1, 70, 126
3, 91776, Note_off_c, 1, 70, 0
3, 91776, Note_on_c, 1, 72, 126
3, 91872, Note_off_c, 1, 72, 0
3, 91872, Note_on_c, 1, 69, 126
3, 91968, Note_off_c, 1, 69, 0
3, 91968, Note_on_c, 1, 69, 126
3, 92064, Note_off_c, 1, 69, 0
3, 92064, Note_on_c, 1, 67, 126
3, 92160, Note_off_c, 1, 67, 0
3, 92160, Note_on_c, 1, 67, 126
3, 92256, Note_off_c, 1, 67, 0
3, 92256, Note_on_c, 1, 66, 126
3, 92352, Note_off_c, 1, 66, 0
3, 92352, Note_on_c, 1, 66, 126
3, 92448, Note_off_c, 1, 66, 0
3, 92448, Note_on_c, 1, 64, 126
3, 92544, Note_off_c, 1, 64, 0
3, 92544, Note_on_c, 1, 64, 126
3, 92640, Note_off_c, 1, 64, 0
3, 92640, Note_on_c, 1, 62, 126
3, 92736, Note_off_c, 1, 62, 0
3, 92736, Note_on_c, 1, 74, 126
3, 92832, Note_off_c, 1, 74, 0
3, 92832, Note_on_c, 1, 75, 126
3, 92928, Note_off_c, 1, 75, 0
3, 92928, Note_on_c, 1, 77, 126
3, 93024, Note_off_c, 1, 77, 0
3, 93024, Note_on_c, 1, 74, 126
3, 93120, Note_off_c, 1, 74, 0
3, 93120, Note_on_c, 1, 74, 126
3, 93216, Note_off_c, 1, 74, 0
3, 93216, Note_on_c, 1, 72, 126
3, 93312, Note_off_c, 1, 72, 0
3, 93312, Note_on_c, 1, 72, 126
3, 93408, Note_off_c, 1, 72, 0
3, 93408, Note_on_c, 1, 71, 126
3, 93504, Note_off_c, 1, 71, 0
3, 93504, Note_on_c, 1, 71, 126
3, 93600, Note_off_c, 1, 71, 0
3, 93600, Note_on_c, 1, 69, 126
3, 93696, Note_off_c, 1, 69, 0
3, 93696, Note_on_c, 1, 69, 126
3, 93792, Note_off_c, 1, 69, 0
3, 93792, Note_on_c, 1, 67, 126
3, 93888, Note_off_c, 1, 67, 0
3, 93888, Note_on_c, 1, 74, 126
3, 93984, Note_off_c, 1, 74, 0
3, 93984, Note_on_c, 1, 75, 126
3, 94080, Note_off_c, 1, 75, 0
3, 94080, Note_on_c, 1, 77, 126
3, 94176, Note_off_c, 1, 77, 0
3, 94176, Note_on_c, 1, 74, 126
3, 94272, Note_off_c, 1, 74, 0
3, 94272, Note_on_c, 1, 74, 126
3, 94368, Note_off_c, 1, 74, 0
3, 94368, Note_on_c, 1, 72, 126
3, 94464, Note_off_c, 1, 72, 0
3, 94464, Note_on_c, 1, 72, 126
3, 94560, Note_off_c, 1, 72, 0
3, 94560, Note_on_c, 1, 71, 126
3, 94656, Note_off_c, 1, 71, 0
3, 94656, Note_on_c, 1, 71, 126
3, 94752, Note_off_c, 1, 71, 0
3, 94752, Note_on_c, 1, 69, 126
3, 94848, Note_off_c, 1, 69, 0
3, 94848, Note_on_c, 1, 69, 126
3, 94944, Note_off_c, 1, 69, 0
3, 94944, Note_on_c, 1, 67, 126
3, 95040, Note_off_c, 1, 67, 0
3, 95040, Note_on_c, 1, 74, 126
3, 95136, Note_off_c, 1, 74, 0
3, 95136, Note_on_c, 1, 68, 126
3, 95232, Note_off_c, 1, 68, 0
3, 95232, Note_on_c, 1, 68, 126
3, 95328, Note_off_c, 1, 68, 0
3, 95328, Note_on_c, 1, 67, 126
3, 95424, Note_off_c, 1, 67, 0
3, 95424, Note_on_c, 1, 67, 126
3, 95520, Note_off_c, 1, 67, 0
3, 95520, Note_on_c, 1, 65, 126
3, 95616, Note_off_c, 1, 65, 0
3, 95616, Note_on_c, 1, 65, 126
3, 95712, Note_off_c, 1, 65, 0
3, 95712, Note_on_c, 1, 63, 126
3, 95808, Note_off_c, 1, 63, 0
3, 95808, Note_on_c, 1, 63, 126
3, 95904, Note_off_c, 1, 63, 0
3, 95904, Note_on_c, 1, 62, 126
3, 96000, Note_off_c, 1, 62, 0
3, 96000, Note_on_c, 1, 62, 126
3, 96096, Note_off_c, 1, 62, 0
3, 96096, Note_on_c, 1, 60, 126
3, 96192, Note_off_c, 1, 60, 0
3, 96192, Note_on_c, 1, 60, 126
3, 96288, Note_off_c, 1, 60, 0
3, 96288, Note_on_c, 1, 67, 126
3, 96384, Note_off_c, 1, 67, 0
3, 96384, Note_on_c, 1, 62, 126
3, 96480, Note_off_c, 1, 62, 0
3, 96480, Note_on_c, 1, 60, 126
3, 96576, Note_off_c, 1, 60, 0
3, 96576, Note_on_c, 1, 60, 126
3, 96672, Note_off_c, 1, 60, 0
3, 96672, Note_on_c, 1, 56, 126
3, 96768, Note_off_c, 1, 56, 0
3, 96768, Note_on_c, 1, 58, 126
3, 96864, Note_off_c, 1, 58, 0
3, 96864, Note_on_c, 1, 67, 126
3, 96960, Note_off_c, 1, 67, 0
3, 96960, Note_on_c, 1, 60, 126
3, 97056, Note_off_c, 1, 60, 0
3, 97056, Note_on_c, 1, 58, 126
3, 97152, Note_off_c, 1, 58, 0
3, 97152, Note_on_c, 1, 58, 126
3, 97248, Note_off_c, 1, 58, 0
3, 97248, Note_on_c, 1, 57, 126
3, 97344, Note_off_c, 1, 57, 0
3, 97344, Note_on_c, 1, 57, 126
3, 97440, Note_off_c, 1, 57, 0
3, 97440, Note_on_c, 1, 67, 126
3, 97536, Note_off_c, 1, 67, 0
3, 97536, Note_on_c, 1, 60, 126
3, 97632, Note_off_c, 1, 60, 0
3, 97632, Note_on_c, 1, 58, 126
3, 97728, Note_off_c, 1, 58, 0
3, 97728, Note_on_c, 1, 58, 126
3, 97824, Note_off_c, 1, 58, 0
3, 97824, Note_on_c, 1, 57, 126
3, 97920, Note_off_c, 1, 57, 0
3, 97920, Note_on_c, 1, 62, 126
3, 98016, Note_off_c, 1, 62, 0
3, 98016, Note_on_c, 1, 66, 126
3, 98112, Note_off_c, 1, 66, 0
3, 98112, Note_on_c, 1, 66, 126
3, 98208, Note_off_c, 1, 66, 0
3, 98208, Note_on_c, 1, 67, 126
3, 98304, Note_off_c, 1, 67, 0
3, 98304, Note_on_c, 1, 67, 126
3, 98400, Note_off_c, 1, 67, 0
3, 98400, Note_on_c, 1, 57, 126
3, 98496, Note_off_c, 1, 57, 0
3, 98496, Note_on_c, 1, 57, 126
3, 98592, Note_off_c, 1, 57, 0
3, 98592, Note_on_c, 1, 66, 126
3, 98688, Note_off_c, 1, 66, 0
3, 98688, Note_on_c, 1, 66, 126
3, 98784, Note_off_c, 1, 66, 0
3, 98784, Note_on_c, 1, 67, 126
3, 98880, Note_off_c, 1, 67, 0
3, 98880, Note_on_c, 1, 67, 126
3, 98976, Note_off_c, 1, 67, 0
3, 98976, Note_on_c, 1, 57, 126
3, 99072, Note_off_c, 1, 57, 0
3, 99072, Note_on_c, 1, 57, 126
3, 99168, Note_off_c, 1, 57, 0
3, 99168, Note_on_c, 1, 66, 126
3, 99264, Note_off_c, 1, 66, 0
3, 99264, Note_on_c, 1, 66, 126
3, 99360, Note_off_c, 1, 66, 0
3, 99360, Note_on_c, 1, 67, 126
3, 99456, Note_off_c, 1, 67, 0
3, 99456, Note_on_c, 1, 67, 126
3, 99552, Note_off_c, 1, 67, 0
3, 99552, Note_on_c, 1, 57, 126
3, 99648, Note_off_c, 1, 57, 0
3, 99648, Note_on_c, 1, 57, 126
3, 99744, Note_off_c, 1, 57, 0
3, 99744, Note_on_c, 1, 60, 126
3, 99840, Note_off_c, 1, 60, 0
3, 99840, Note_on_c, 1, 60, 126
3, 99936, Note_off_c, 1, 60, 0
3, 99936, Note_on_c, 1, 58, 126
3, 100032, Note_off_c, 1, 58, 0
3, 100032, Note_on_c, 1, 58, 126
3, 100128, Note_off_c, 1, 58, 0
3, 100128, Note_on_c, 1, 63, 126
3, 100224, Note_off_c, 1, 63, 0
3, 100224, Note_on_c, 1, 63, 126
3, 100416, Note_off_c, 1, 63, 0
3, 101952, Note_on_c, 1, 67, 82
3, 103488, Note_off_c, 1, 67, 0
3, 103488, Note_on_c, 1, 69, 82
3, 103680, Note_off_c, 1, 69, 0
3, 103680, Note_on_c, 1, 70, 82
3, 104064, Note_off_c, 1, 70, 0
3, 104064, Note_on_c, 1, 72, 82
3, 104256, Note_off_c, 1, 72, 0
3, 104256, Note_on_c, 1, 74, 82
3, 104448, Note_off_c, 1, 74, 0
3, 104448, Note_on_c, 1, 72, 82
3, 104640, Note_off_c, 1, 72, 0
3, 104640, Note_on_c, 1, 74, 82
3, 105024, Note_off_c, 1, 74, 0
3, 105024, Note_on_c, 1, 72, 82
3, 105216, Note_off_c, 1, 72, 0
3, 105216, Note_on_c, 1, 70, 82
3, 105408, Note_off_c, 1, 70, 0
3, 105408, Note_on_c, 1, 72, 82
3, 105600, Note_off_c, 1, 72, 0
3, 105600, Note_on_c, 1, 75, 82
3, 105792, Note_off_c, 1, 75, 0
3, 105792, Note_on_c, 1, 74, 82
3, 105984, Note_off_c, 1, 74, 0
3, 105984, Note_on_c, 1, 75, 126
3, 106368, Note_off_c, 1, 75, 0
3, 106368, Note_on_c, 1, 74, 126
3, 106560, Note_off_c, 1, 74, 0
3, 106560, Note_on_c, 1, 75, 126
3, 106752, Note_off_c, 1, 75, 0
3, 106752, Note_on_c, 1, 69, 126
3, 106944, Note_off_c, 1, 69, 0
3, 106944, Note_on_c, 1, 67, 126
3, 107136, Note_off_c, 1, 67, 0
3, 107136, Note_on_c, 1, 66, 126
3, 107328, Note_off_c, 1, 66, 0
3, 107328, Note_on_c, 1, 72, 126
3, 107520, Note_off_c, 1, 72, 0
3, 107520, Note_on_c, 1, 70, 126
3, 107712, Note_off_c, 1, 70, 0
3, 107712, Note_on_c, 1, 69, 126
3, 107904, Note_off_c, 1, 69, 0
3, 107904, Note_on_c, 1, 67, 126
3, 107952, Note_off_c, 1, 67, 0
3, 107952, Note_on_c, 1, 66, 126
3, 108000, Note_off_c, 1, 66, 0
3, 108000, Note_on_c, 1, 67, 126
3, 108048, Note_off_c, 1, 67, 0
3, 108048, Note_on_c, 1, 66, 126
3, 108096, Note_off_c, 1, 66, 0
3, 108096, Note_on_c, 1, 67, 126
3, 108144, Note_off_c, 1, 67, 0
3, 108144, Note_on_c, 1, 66, 126
3, 108288, Note_off_c, 1, 66, 0
3, 108288, Note_on_c, 1, 67, 102
3, 108480, Note_off_c, 1, 67, 0
3, 108480, Note_on_c, 1, 70, 102
3, 108672, Note_off_c, 1, 70, 0
3, 108672, Note_on_c, 1, 72, 102
3, 108864, Note_off_c, 1, 72, 0
3, 108864, Note_on_c, 1, 74, 102
3, 109056, Note_off_c, 1, 74, 0
3, 109056, Note_on_c, 1, 76, 102
3, 109248, Note_off_c, 1, 76, 0
3, 109248, Note_on_c, 1, 77, 102
3, 109440, Note_off_c, 1, 77, 0
3, 109440, Note_on_c, 1, 76, 102
3, 109632, Note_off_c, 1, 76, 0
3, 109632, Note_on_c, 1, 72, 102
3, 109824, Note_off_c, 1, 72, 0
3, 109824, Note_on_c, 1, 74, 102
3, 110016, Note_off_c, 1, 74, 0
3, 110016, Note_on_c, 1, 76, 102
3, 110208, Note_off_c, 1, 76, 0
3, 110208, Note_on_c, 1, 77, 102
3, 110400, Note_off_c, 1, 77, 0
3, 110400, Note_on_c, 1, 79, 102
3, 110592, Note_off_c, 1, 79, 0
3, 110592, Note_on_c, 1, 80, 102
3, 110784, Note_off_c, 1, 80, 0
3, 110784, Note_on_c, 1, 68, 102
3, 110976, Note_off_c, 1, 68, 0
3, 110976, Note_on_c, 1, 70, 102
3, 111168, Note_off_c, 1, 70, 0
3, 111168, Note_on_c, 1, 72, 102
3, 111360, Note_off_c, 1, 72, 0
3, 111360, Note_on_c, 1, 74, 102
3, 111552, Note_off_c, 1, 74, 0
3, 111552, Note_on_c, 1, 75, 102
3, 111744, Note_off_c, 1, 75, 0
3, 111744, Note_on_c, 1, 74, 102
3, 111936, Note_off_c, 1, 74, 0
3, 111936, Note_on_c, 1, 70, 102
3, 112128, Note_off_c, 1, 70, 0
3, 112128, Note_on_c, 1, 72, 102
3, 112320, Note_off_c, 1, 72, 0
3, 112320, Note_on_c, 1, 74, 102
3, 112512, Note_off_c, 1, 74, 0
3, 112512, Note_on_c, 1, 75, 102
3, 112704, Note_off_c, 1, 75, 0
3, 112704, Note_on_c, 1, 77, 102
3, 112896, Note_off_c, 1, 77, 0
3, 112896, Note_on_c, 1, 79, 102
3, 113280, Note_off_c, 1, 79, 0
3, 113472, Note_on_c, 1, 69, 102
3, 113856, Note_off_c, 1, 69, 0
3, 113856, Note_on_c, 1, 70, 102
3, 114048, Note_off_c, 1, 70, 0
3, 114624, Note_on_c, 1, 67, 102
3, 115200, Note_off_c, 1, 67, 0
3, 115200, Note_on_c, 1, 72, 102
3, 115392, Note_off_c, 1, 72, 0
3, 115584, Note_on_c, 1, 70, 102
3, 115776, Note_off_c, 1, 70, 0
3, 115776, Note_on_c, 1, 70, 102
3, 115968, Note_off_c, 1, 70, 0
3, 116160, Note_on_c, 1, 70, 102
3, 116352, Note_off_c, 1, 70, 0
3, 116352, Note_on_c, 1, 69, 102
3, 116544, Note_off_c, 1, 69, 0
3, 116544, Note_on_c, 1, 65, 102
3, 116736, Note_off_c, 1, 65, 0
3, 116736, Note_on_c, 1, 67, 102
3, 116928, Note_off_c, 1, 67, 0
3, 116928, Note_on_c, 1, 69, 102
3, 117120, Note_off_c, 1, 69, 0
3, 117120, Note_on_c, 1, 70, 102
3, 117312, Note_off_c, 1, 70, 0
3, 117312, Note_on_c, 1, 72, 102
3, 117504, Note_off_c, 1, 72, 0
3, 117504, Note_on_c, 1, 74, 102
3, 117696, Note_off_c, 1, 74, 0
3, 117696, Note_on_c, 1, 75, 102
3, 117888, Note_off_c, 1, 75, 0
3, 117888, Note_on_c, 1, 72, 102
3, 118272, Note_off_c, 1, 72, 0
3, 118272, Note_on_c, 1, 74, 102
3, 118464, Note_off_c, 1, 74, 0
3, 118464, Note_on_c, 1, 70, 102
3, 118848, Note_off_c, 1, 70, 0
3, 118848, Note_on_c, 1, 72, 102
3, 119040, Note_off_c, 1, 72, 0
3, 119040, Note_on_c, 1, 69, 102
3, 119328, Note_off_c, 1, 69, 0
3, 119328, Note_on_c, 1, 70, 102
3, 119424, Note_off_c, 1, 70, 0
3, 119424, Note_on_c, 1, 72, 102
3, 119616, Note_off_c, 1, 72, 0
3, 119616, Note_on_c, 1, 63, 102
3, 119808, Note_off_c, 1, 63, 0
3, 119808, Note_on_c, 1, 62, 102
3, 120480, Note_off_c, 1, 62, 0
3, 120480, Note_on_c, 1, 70, 102
3, 120576, Note_off_c, 1, 70, 0
3, 120576, Note_on_c, 1, 65, 102
3, 120672, Note_off_c, 1, 65, 0
3, 120672, Note_on_c, 1, 63, 102
3, 120768, Note_off_c, 1, 63, 0
3, 120768, Note_on_c, 1, 63, 102
3, 120864, Note_off_c, 1, 63, 0
3, 120864, Note_on_c, 1, 62, 102
3, 120960, Note_off_c, 1, 62, 0
3, 120960, Note_on_c, 1, 62, 102
3, 121632, Note_off_c, 1, 62, 0
3, 121632, Note_on_c, 1, 70, 102
3, 121728, Note_off_c, 1, 70, 0
3, 121728, Note_on_c, 1, 62, 102
3, 121824, Note_off_c, 1, 62, 0
3, 121824, Note_on_c, 1, 60, 102
3, 121920, Note_off_c, 1, 60, 0
3, 121920, Note_on_c, 1, 60, 102
3, 122016, Note_off_c, 1, 60, 0
3, 122016, Note_on_c, 1, 58, 102
3, 122112, Note_off_c, 1, 58, 0
3, 122112, Note_on_c, 1, 62, 102
3, 122688, Note_off_c, 1, 62, 0
3, 122688, Note_on_c, 1, 74, 102
3, 123072, Note_off_c, 1, 74, 0
3, 123072, Note_on_c, 1, 72, 102
3, 123264, Note_off_c, 1, 72, 0
3, 123264, Note_on_c, 1, 70, 102
3, 123456, Note_off_c, 1, 70, 0
3, 123456, Note_on_c, 1, 65, 102
3, 123648, Note_off_c, 1, 65, 0
3, 123648, Note_on_c, 1, 72, 102
3, 123840, Note_off_c, 1, 72, 0
3, 123840, Note_on_c, 1, 74, 102
3, 124032, Note_off_c, 1, 74, 0
3, 124032, Note_on_c, 1, 75, 102
3, 124224, Note_off_c, 1, 75, 0
3, 124224, Note_on_c, 1, 77, 102
3, 124608, Note_off_c, 1, 77, 0
3, 124608, Note_on_c, 1, 75, 102
3, 124800, Note_off_c, 1, 75, 0
3, 124800, Note_on_c, 1, 74, 102
3, 124992, Note_off_c, 1, 74, 0
3, 124992, Note_on_c, 1, 72, 102
3, 125376, Note_off_c, 1, 72, 0
3, 125376, Note_on_c, 1, 70, 102
3, 125568, Note_off_c, 1, 70, 0
3, 125568, Note_on_c, 1, 69, 102
3, 125952, Note_off_c, 1, 69, 0
3, 125952, Note_on_c, 1, 70, 102
3, 126144, Note_off_c, 1, 70, 0
3, 126144, Note_on_c, 1, 72, 102
3, 126336, Note_off_c, 1, 72, 0
3, 126336, Note_on_c, 1, 74, 102
3, 126528, Note_off_c, 1, 74, 0
3, 126528, Note_on_c, 1, 75, 102
3, 126912, Note_off_c, 1, 75, 0
3, 126912, Note_on_c, 1, 74, 102
3, 127104, Note_off_c, 1, 74, 0
3, 127104, Note_on_c, 1, 72, 102
3, 127296, Note_off_c, 1, 72, 0
3, 127296, Note_on_c, 1, 70, 82
3, 127392, Note_off_c, 1, 70, 0
3, 127392, Note_on_c, 1, 68, 82
3, 127488, Note_off_c, 1, 68, 0
3, 127488, Note_on_c, 1, 68, 82
3, 127584, Note_off_c, 1, 68, 0
3, 127584, Note_on_c, 1, 67, 82
3, 127680, Note_off_c, 1, 67, 0
3, 127680, Note_on_c, 1, 67, 82
3, 127776, Note_off_c, 1, 67, 0
3, 127776, Note_on_c, 1, 65, 82
3, 127872, Note_off_c, 1, 65, 0
3, 127872, Note_on_c, 1, 65, 82
3, 127968, Note_off_c, 1, 65, 0
3, 127968, Note_on_c, 1, 70, 82
3, 128064, Note_off_c, 1, 70, 0
3, 128064, Note_on_c, 1, 65, 82
3, 128160, Note_off_c, 1, 65, 0
3, 128160, Note_on_c, 1, 63, 82
3, 128256, Note_off_c, 1, 63, 0
3, 128256, Note_on_c, 1, 63, 82
3, 128352, Note_off_c, 1, 63, 0
3, 128352, Note_on_c, 1, 62, 82
3, 128448, Note_off_c, 1, 62, 0
3, 128448, Note_on_c, 1, 62, 82
3, 128544, Note_off_c, 1, 62, 0
3, 128544, Note_on_c, 1, 70, 82
3, 128640, Note_off_c, 1, 70, 0
3, 128640, Note_on_c, 1, 62, 82
3, 128736, Note_off_c, 1, 62, 0
3, 128736, Note_on_c, 1, 60, 82
3, 128832, Note_off_c, 1, 60, 0
3, 128832, Note_on_c, 1, 60, 82
3, 128928, Note_off_c, 1, 60, 0
3, 128928, Note_on_c, 1, 58, 82
3, 129024, Note_off_c, 1, 58, 0
3, 129024, Note_on_c, 1, 62, 82
3, 129792, Note_off_c, 1, 62, 0
3, 129792, Note_on_c, 1, 65, 82
3, 129984, Note_off_c, 1, 65, 0
3, 129984, Note_on_c, 1, 70, 82
3, 130176, Note_off_c, 1, 70, 0
3, 130176, Note_on_c, 1, 69, 82
3, 130368, Note_off_c, 1, 69, 0
3, 130368, Note_on_c, 1, 70, 82
3, 130560, Note_off_c, 1, 70, 0
3, 130560, Note_on_c, 1, 63, 82
3, 130752, Note_off_c, 1, 63, 0
3, 130752, Note_on_c, 1, 63, 82
3, 130944, Note_off_c, 1, 63, 0
3, 130944, Note_on_c, 1, 69, 82
3, 131136, Note_off_c, 1, 69, 0
3, 131136, Note_on_c, 1, 70, 82
3, 131328, Note_off_c, 1, 70, 0
3, 131328, Note_on_c, 1, 69, 82
3, 131520, Note_off_c, 1, 69, 0
3, 131520, Note_on_c, 1, 70, 82
3, 131712, Note_off_c, 1, 70, 0
3, 131712, Note_on_c, 1, 62, 82
3, 131904, Note_off_c, 1, 62, 0
3, 131904, Note_on_c, 1, 62, 82
3, 132096, Note_off_c, 1, 62, 0
3, 132096, Note_on_c, 1, 65, 82
3, 132288, Note_off_c, 1, 65, 0
3, 132288, Note_on_c, 1, 69, 82
3, 132480, Note_off_c, 1, 69, 0
3, 132480, Note_on_c, 1, 72, 82
3, 132672, Note_off_c, 1, 72, 0
3, 132672, Note_on_c, 1, 70, 82
3, 132864, Note_off_c, 1, 70, 0
3, 132864, Note_on_c, 1, 69, 82
3, 133056, Note_off_c, 1, 69, 0
3, 133056, Note_on_c, 1, 70, 82
3, 133440, Note_off_c, 1, 70, 0
3, 133440, Note_on_c, 1, 63, 82
3, 133632, Note_off_c, 1, 63, 0
3, 133632, Note_on_c, 1, 63, 115
3, 133680, Note_off_c, 1, 63, 0
3, 133680, Note_on_c, 1, 62, 115
3, 133728, Note_off_c, 1, 62, 0
3, 133728, Note_on_c, 1, 63, 115
3, 133776, Note_off_c, 1, 63, 0
3, 133776, Note_on_c, 1, 62, 115
3, 133824, Note_off_c, 1, 62, 0
3, 133824, Note_on_c, 1, 63, 115
3, 133872, Note_off_c, 1, 63, 0
3, 133872, Note_on_c, 1, 62, 115
3, 134016, Note_off_c, 1, 62, 0
3, 134016, Note_on_c, 1, 60, 82
3, 134208, Note_off_c, 1, 60, 0
3, 134208, Note_on_c, 1, 72, 126
3, 134592, Note_off_c, 1, 72, 0
3, 134592, Note_on_c, 1, 70, 126
3, 134784, Note_off_c, 1, 70, 0
3, 134784, Note_on_c, 1, 69, 126
3, 135168, Note_off_c, 1, 69, 0
3, 135168, Note_on_c, 1, 70, 126
3, 135360, Note_off_c, 1, 70, 0
3, 135360, Note_on_c, 1, 72, 126
3, 135552, Note_off_c, 1, 72, 0
3, 135552, Note_on_c, 1, 74, 126
3, 135744, Note_off_c, 1, 74, 0
3, 135744, Note_on_c, 1, 75, 126
3, 135936, Note_off_c, 1, 75, 0
3, 135936, Note_on_c, 1, 77, 126
3, 136608, Note_off_c, 1, 77, 0
3, 136608, Note_on_c, 1, 72, 82
3, 136704, Note_off_c, 1, 72, 0
3, 136704, Note_on_c, 1, 72, 82
3, 136800, Note_off_c, 1, 72, 0
3, 136800, Note_on_c, 1, 70, 82
3, 136896, Note_off_c, 1, 70, 0
3, 136896, Note_on_c, 1, 70, 82
3, 136992, Note_off_c, 1, 70, 0
3, 136992, Note_on_c, 1, 69, 82
3, 137088, Note_off_c, 1, 69, 0
3, 137088, Note_on_c, 1, 67, 82
3, 137184, Note_off_c, 1, 67, 0
3, 137184, Note_on_c, 1, 74, 82
3, 137280, Note_off_c, 1, 74, 0
3, 137280, Note_on_c, 1, 67, 82
3, 137376, Note_off_c, 1, 67, 0
3, 137376, Note_on_c, 1, 65, 82
3, 137472, Note_off_c, 1, 65, 0
3, 137472, Note_on_c, 1, 65, 82
3, 137568, Note_off_c, 1, 65, 0
3, 137568, Note_on_c, 1, 63, 82
3, 137664, Note_off_c, 1, 63, 0
3, 137664, Note_on_c, 1, 63, 82
3, 137856, Note_off_c, 1, 63, 0
3, 137856, Note_on_c, 1, 63, 82
3, 137952, Note_off_c, 1, 63, 0
3, 137952, Note_on_c, 1, 62, 82
3, 138048, Note_off_c, 1, 62, 0
3, 138048, Note_on_c, 1, 62, 82
3, 138144, Note_off_c, 1, 62, 0
3, 138144, Note_on_c, 1, 60, 82
3, 138240, Note_off_c, 1, 60, 0
3, 138240, Note_on_c, 1, 70, 126
3, 138432, Note_off_c, 1, 70, 0
3, 138432, Note_on_c, 1, 69, 126
3, 138528, Note_off_c, 1, 69, 0
3, 138528, Note_on_c, 1, 67, 126
3, 138624, Note_off_c, 1, 67, 0
3, 138624, Note_on_c, 1, 67, 126
3, 138720, Note_off_c, 1, 67, 0
3, 138720, Note_on_c, 1, 65, 126
3, 138816, Note_off_c, 1, 65, 0
3, 138816, Note_on_c, 1, 65, 126
3, 138912, Note_off_c, 1, 65, 0
3, 138912, Note_on_c, 1, 70, 126
3, 139008, Note_off_c, 1, 70, 0
3, 139008, Note_on_c, 1, 65, 126
3, 139104, Note_off_c, 1, 65, 0
3, 139104, Note_on_c, 1, 63, 126
3, 139200, Note_off_c, 1, 63, 0
3, 139200, Note_on_c, 1, 63, 126
3, 139296, Note_off_c, 1, 63, 0
3, 139296, Note_on_c, 1, 62, 126
3, 139392, Note_off_c, 1, 62, 0
3, 139392, Note_on_c, 1, 62, 126
3, 139776, Note_off_c, 1, 62, 0
3, 139776, Note_on_c, 1, 63, 126
3, 139968, Note_off_c, 1, 63, 0
3, 139968, Note_on_c, 1, 65, 126
3, 140160, Note_off_c, 1, 65, 0
3, 140160, Note_on_c, 1, 67, 126
3, 140352, Note_off_c, 1, 67, 0
3, 140352, Note_on_c, 1, 68, 126
3, 140544, Note_off_c, 1, 68, 0
3, 140544, Note_on_c, 1, 70, 126
3, 141216, Note_off_c, 1, 70, 0
3, 141216, Note_on_c, 1, 65, 82
3, 141312, Note_off_c, 1, 65, 0
3, 141312, Note_on_c, 1, 65, 82
3, 141408, Note_off_c, 1, 65, 0
3, 141408, Note_on_c, 1, 63, 82
3, 141504, Note_off_c, 1, 63, 0
3, 141504, Note_on_c, 1, 63, 82
3, 141600, Note_off_c, 1, 63, 0
3, 141600, Note_on_c, 1, 62, 82
3, 141696, Note_off_c, 1, 62, 0
3, 141696, Note_on_c, 1, 62, 82
3, 141792, Note_off_c, 1, 62, 0
3, 141792, Note_on_c, 1, 68, 82
3, 141888, Note_off_c, 1, 68, 0
3, 141888, Note_on_c, 1, 62, 82
3, 141984, Note_off_c, 1, 62, 0
3, 141984, Note_on_c, 1, 60, 82
3, 142080, Note_off_c, 1, 60, 0
3, 142080, Note_on_c, 1, 60, 82
3, 142176, Note_off_c, 1, 60, 0
3, 142176, Note_on_c, 1, 58, 82
3, 142272, Note_off_c, 1, 58, 0
3, 142272, Note_on_c, 1, 58, 82
3, 142368, Note_off_c, 1, 58, 0
3, 142368, Note_on_c, 1, 65, 82
3, 142464, Note_off_c, 1, 65, 0
3, 142464, Note_on_c, 1, 58, 82
3, 142560, Note_off_c, 1, 58, 0
3, 142560, Note_on_c, 1, 56, 82
3, 142656, Note_off_c, 1, 56, 0
3, 142656, Note_on_c, 1, 56, 82
3, 142752, Note_off_c, 1, 56, 0
3, 142752, Note_on_c, 1, 55, 82
3, 142848, Note_off_c, 1, 55, 0
3, 142848, Note_on_c, 1, 63, 82
3, 143616, Note_off_c, 1, 63, 0
3, 143616, Note_on_c, 1, 67, 82
3, 143808, Note_off_c, 1, 67, 0
3, 143808, Note_on_c, 1, 68, 82
3, 144000, Note_off_c, 1, 68, 0
3, 144000, Note_on_c, 1, 74, 82
3, 144192, Note_off_c, 1, 74, 0
3, 144192, Note_on_c, 1, 75, 82
3, 144384, Note_off_c, 1, 75, 0
3, 144384, Note_on_c, 1, 68, 82
3, 144768, Note_off_c, 1, 68, 0
3, 144768, Note_on_c, 1, 65, 82
3, 144960, Note_off_c, 1, 65, 0
3, 144960, Note_on_c, 1, 67, 82
3, 145152, Note_off_c, 1, 67, 0
3, 145152, Note_on_c, 1, 74, 82
3, 145344, Note_off_c, 1, 74, 0
3, 145344, Note_on_c, 1, 75, 82
3, 145536, Note_off_c, 1, 75, 0
3, 145536, Note_on_c, 1, 67, 82
3, 145728, Note_off_c, 1, 67, 0
3, 145728, Note_on_c, 1, 67, 82
3, 145920, Note_off_c, 1, 67, 0
3, 145920, Note_on_c, 1, 70, 82
3, 146112, Note_off_c, 1, 70, 0
3, 146112, Note_on_c, 1, 74, 82
3, 146304, Note_off_c, 1, 74, 0
3, 146304, Note_on_c, 1, 77, 82
3, 146688, Note_off_c, 1, 77, 0
3, 146688, Note_on_c, 1, 74, 82
3, 146880, Note_off_c, 1, 74, 0
3, 146880, Note_on_c, 1, 75, 82
3, 147264, Note_off_c, 1, 75, 0
3, 147264, Note_on_c, 1, 68, 82
3, 147456, Note_off_c, 1, 68, 0
3, 147456, Note_on_c, 1, 69, 82
3, 147504, Note_off_c, 1, 69, 0
3, 147504, Note_on_c, 1, 67, 82
3, 147552, Note_off_c, 1, 67, 0
3, 147552, Note_on_c, 1, 69, 82
3, 147600, Note_off_c, 1, 69, 0
3, 147600, Note_on_c, 1, 67, 82
3, 147648, Note_off_c, 1, 67, 0
3, 147648, Note_on_c, 1, 69, 82
3, 147696, Note_off_c, 1, 69, 0
3, 147696, Note_on_c, 1, 67, 82
3, 147840, Note_off_c, 1, 67, 0
3, 147840, Note_on_c, 1, 65, 82
3, 148032, Note_off_c, 1, 65, 0
3, 148032, Note_on_c, 1, 74, 82
3, 148128, Note_off_c, 1, 74, 0
3, 148128, Note_on_c, 1, 75, 82
3, 148224, Note_off_c, 1, 75, 0
3, 148224, Note_on_c, 1, 77, 82
3, 148320, Note_off_c, 1, 77, 0
3, 148320, Note_on_c, 1, 74, 82
3, 148416, Note_off_c, 1, 74, 0
3, 148416, Note_on_c, 1, 74, 82
3, 148512, Note_off_c, 1, 74, 0
3, 148512, Note_on_c, 1, 72, 82
3, 148608, Note_off_c, 1, 72, 0
3, 148608, Note_on_c, 1, 72, 82
3, 148704, Note_off_c, 1, 72, 0
3, 148704, Note_on_c, 1, 71, 82
3, 148800, Note_off_c, 1, 71, 0
3, 148800, Note_on_c, 1, 71, 82
3, 148896, Note_off_c, 1, 71, 0
3, 148896, Note_on_c, 1, 72, 82
3, 148992, Note_off_c, 1, 72, 0
3, 148992, Note_on_c, 1, 74, 82
3, 149088, Note_off_c, 1, 74, 0
3, 149088, Note_on_c, 1, 71, 82
3, 149184, Note_off_c, 1, 71, 0
3, 149184, Note_on_c, 1, 65, 82
3, 149280, Note_off_c, 1, 65, 0
3, 149280, Note_on_c, 1, 67, 82
3, 149376, Note_off_c, 1, 67, 0
3, 149376, Note_on_c, 1, 69, 82
3, 149472, Note_off_c, 1, 69, 0
3, 149472, Note_on_c, 1, 67, 82
3, 149568, Note_off_c, 1, 67, 0
3, 149568, Note_on_c, 1, 67, 82
3, 149664, Note_off_c, 1, 67, 0
3, 149664, Note_on_c, 1, 65, 82
3, 149760, Note_off_c, 1, 65, 0
3, 149760, Note_on_c, 1, 63, 82
3, 149856, Note_off_c, 1, 63, 0
3, 149856, Note_on_c, 1, 65, 82
3, 149952, Note_off_c, 1, 65, 0
3, 149952, Note_on_c, 1, 67, 82
3, 150048, Note_off_c, 1, 67, 0
3, 150048, Note_on_c, 1, 71, 82
3, 150144, Note_off_c, 1, 71, 0
3, 150144, Note_on_c, 1, 71, 82
3, 150240, Note_off_c, 1, 71, 0
3, 150240, Note_on_c, 1, 72, 82
3, 150336, Note_off_c, 1, 72, 0
3, 150336, Note_on_c, 1, 72, 82
3, 150432, Note_off_c, 1, 72, 0
3, 150432, Note_on_c, 1, 74, 82
3, 150528, Note_off_c, 1, 74, 0
3, 150528, Note_on_c, 1, 75, 82
3, 150624, Note_off_c, 1, 75, 0
3, 150624, Note_on_c, 1, 72, 82
3, 150720, Note_off_c, 1, 72, 0
3, 150720, Note_on_c, 1, 72, 82
3, 150816, Note_off_c, 1, 72, 0
3, 150816, Note_on_c, 1, 70, 82
3, 150912, Note_off_c, 1, 70, 0
3, 150912, Note_on_c, 1, 70, 82
3, 151008, Note_off_c, 1, 70, 0
3, 151008, Note_on_c, 1, 69, 82
3, 151104, Note_off_c, 1, 69, 0
3, 151104, Note_on_c, 1, 69, 82
3, 151200, Note_off_c, 1, 69, 0
3, 151200, Note_on_c, 1, 70, 82
3, 151296, Note_off_c, 1, 70, 0
3, 151296, Note_on_c, 1, 72, 82
3, 151392, Note_off_c, 1, 72, 0
3, 151392, Note_on_c, 1, 69, 82
3, 151488, Note_off_c, 1, 69, 0
3, 151488, Note_on_c, 1, 63, 82
3, 151584, Note_off_c, 1, 63, 0
3, 151584, Note_on_c, 1, 65, 82
3, 151680, Note_off_c, 1, 65, 0
3, 151680, Note_on_c, 1, 67, 82
3, 151776, Note_off_c, 1, 67, 0
3, 151776, Note_on_c, 1, 65, 82
3, 151872, Note_off_c, 1, 65, 0
3, 151872, Note_on_c, 1, 65, 82
3, 151968, Note_off_c, 1, 65, 0
3, 151968, Note_on_c, 1, 63, 82
3, 152064, Note_off_c, 1, 63, 0
3, 152064, Note_on_c, 1, 62, 82
3, 152160, Note_off_c, 1, 62, 0
3, 152160, Note_on_c, 1, 63, 82
3, 152256, Note_off_c, 1, 63, 0
3, 152256, Note_on_c, 1, 65, 82
3, 152352, Note_off_c, 1, 65, 0
3, 152352, Note_on_c, 1, 69, 82
3, 152448, Note_off_c, 1, 69, 0
3, 152448, Note_on_c, 1, 69, 82
3, 152544, Note_off_c, 1, 69, 0
3, 152544, Note_on_c, 1, 70, 82
3, 152640, Note_off_c, 1, 70, 0
3, 152640, Note_on_c, 1, 70, 82
3, 152736, Note_off_c, 1, 70, 0
3, 152736, Note_on_c, 1, 68, 82
3, 152832, Note_off_c, 1, 68, 0
3, 152832, Note_on_c, 1, 68, 82
3, 152928, Note_off_c, 1, 68, 0
3, 152928, Note_on_c, 1, 67, 82
3, 153024, Note_off_c, 1, 67, 0
3, 153024, Note_on_c, 1, 67, 82
3, 153120, Note_off_c, 1, 67, 0
3, 153120, Note_on_c, 1, 65, 82
3, 153216, Note_off_c, 1, 65, 0
3, 153216, Note_on_c, 1, 65, 82
3, 153312, Note_off_c, 1, 65, 0
3, 153312, Note_on_c, 1, 70, 82
3, 153408, Note_off_c, 1, 70, 0
3, 153408, Note_on_c, 1, 67, 82
3, 153504, Note_off_c, 1, 67, 0
3, 153504, Note_on_c, 1, 65, 82
3, 153600, Note_off_c, 1, 65, 0
3, 153600, Note_on_c, 1, 65, 82
3, 153696, Note_off_c, 1, 65, 0
3, 153696, Note_on_c, 1, 63, 82
3, 153792, Note_off_c, 1, 63, 0
3, 153792, Note_on_c, 1, 63, 82
3, 153888, Note_off_c, 1, 63, 0
3, 153888, Note_on_c, 1, 70, 82
3, 153984, Note_off_c, 1, 70, 0
3, 153984, Note_on_c, 1, 65, 82
3, 154080, Note_off_c, 1, 65, 0
3, 154080, Note_on_c, 1, 63, 82
3, 154176, Note_off_c, 1, 63, 0
3, 154176, Note_on_c, 1, 63, 82
3, 154272, Note_off_c, 1, 63, 0
3, 154272, Note_on_c, 1, 62, 82
3, 154368, Note_off_c, 1, 62, 0
3, 154368, Note_on_c, 1, 62, 82
3, 154464, Note_off_c, 1, 62, 0
3, 154464, Note_on_c, 1, 70, 82
3, 154560, Note_off_c, 1, 70, 0
3, 154560, Note_on_c, 1, 63, 82
3, 154656, Note_off_c, 1, 63, 0
3, 154656, Note_on_c, 1, 62, 82
3, 154752, Note_off_c, 1, 62, 0
3, 154752, Note_on_c, 1, 62, 82
3, 154848, Note_off_c, 1, 62, 0
3, 154848, Note_on_c, 1, 60, 82
3, 154944, Note_off_c, 1, 60, 0
3, 154944, Note_on_c, 1, 60, 82
3, 155616, Note_off_c, 1, 60, 0
3, 155616, Note_on_c, 1, 69, 115
3, 155712, Note_off_c, 1, 69, 0
3, 155712, Note_on_c, 1, 69, 115
3, 155808, Note_off_c, 1, 69, 0
3, 155808, Note_on_c, 1, 70, 115
3, 155904, Note_off_c, 1, 70, 0
3, 155904, Note_on_c, 1, 70, 115
3, 156000, Note_off_c, 1, 70, 0
3, 156000, Note_on_c, 1, 60, 115
3, 156096, Note_off_c, 1, 60, 0
3, 156096, Note_on_c, 1, 60, 82
3, 156768, Note_off_c, 1, 60, 0
3, 156768, Note_on_c, 1, 69, 115
3, 156864, Note_off_c, 1, 69, 0
3, 156864, Note_on_c, 1, 69, 115
3, 156960, Note_off_c, 1, 69, 0
3, 156960, Note_on_c, 1, 70, 115
3, 157056, Note_off_c, 1, 70, 0
3, 157056, Note_on_c, 1, 70, 115
3, 157152, Note_off_c, 1, 70, 0
3, 157152, Note_on_c, 1, 60, 115
3, 157248, Note_off_c, 1, 60, 0
3, 157248, Note_on_c, 1, 60, 82
3, 157344, Note_off_c, 1, 60, 0
3, 157344, Note_on_c, 1, 63, 82
3, 157440, Note_off_c, 1, 63, 0
3, 157440, Note_on_c, 1, 63, 82
3, 157536, Note_off_c, 1, 63, 0
3, 157536, Note_on_c, 1, 62, 82
3, 157632, Note_off_c, 1, 62, 0
3, 157632, Note_on_c, 1, 62, 82
3, 157728, Note_off_c, 1, 62, 0
3, 157728, Note_on_c, 1, 67, 82
3, 157824, Note_off_c, 1, 67, 0
3, 157824, Note_on_c, 1, 67, 82
3, 157920, Note_off_c, 1, 67, 0
3, 157920, Note_on_c, 1, 65, 82
3, 158016, Note_off_c, 1, 65, 0
3, 158016, Note_on_c, 1, 65, 82
3, 158112, Note_off_c, 1, 65, 0
3, 158112, Note_on_c, 1, 69, 82
3, 158208, Note_off_c, 1, 69, 0
3, 158208, Note_on_c, 1, 69, 82
3, 158304, Note_off_c, 1, 69, 0
3, 158304, Note_on_c, 1, 70, 82
3, 158400, Note_off_c, 1, 70, 0
3, 158400, Note_on_c, 1, 63, 82
3, 158592, Note_off_c, 1, 63, 0
3, 158592, Note_on_c, 1, 60, 82
3, 158976, Note_off_c, 1, 60, 0
3, 159552, Note_on_c, 1, 65, 82
3, 160128, Note_off_c, 1, 65, 0
3, 160128, Note_on_c, 1, 63, 82
3, 160704, Note_off_c, 1, 63, 0
3, 160704, Note_on_c, 1, 68, 82
3, 161280, Note_off_c, 1, 68, 0
3, 161280, Note_on_c, 1, 67, 82
3, 161664, Note_off_c, 1, 67, 0
3, 161664, Note_on_c, 1, 72, 82
3, 161856, Note_off_c, 1, 72, 0
3, 161856, Note_on_c, 1, 72, 82
3, 162048, Note_off_c, 1, 72, 0
3, 162240, Note_on_c, 1, 70, 82
3, 162432, Note_off_c, 1, 70, 0
3, 162432, Note_on_c, 1, 70, 82
3, 162624, Note_off_c, 1, 70, 0
3, 162816, Note_on_c, 1, 69, 82
3, 163008, Note_off_c, 1, 69, 0
3, 163008, Note_on_c, 1, 67, 82
3, 163200, Note_off_c, 1, 67, 0
3, 163392, Note_on_c, 1, 67, 82
3, 163584, Note_off_c, 1, 67, 0
3, 164160, Note_on_c, 1, 65, 102
3, 164544, Note_off_c, 1, 65, 0
3, 164544, Note_on_c, 1, 63, 102
3, 164736, Note_off_c, 1, 63, 0
3, 164736, Note_on_c, 1, 62, 102
3, 165120, Note_off_c, 1, 62, 0
3, 165120, Note_on_c, 1, 63, 102
3, 165312, Note_off_c, 1, 63, 0
3, 165312, Note_on_c, 1, 65, 102
3, 165504, Note_off_c, 1, 65, 0
3, 165504, Note_on_c, 1, 67, 102
3, 165696, Note_off_c, 1, 67, 0
3, 165696, Note_on_c, 1, 69, 102
3, 165888, Note_off_c, 1, 69, 0
3, 165888, Note_on_c, 1, 70, 126
3, 166656, Note_off_c, 1, 70, 0
3, 166656, Note_on_c, 1, 65, 126
3, 166848, Note_off_c, 1, 65, 0
3, 166848, Note_on_c, 1, 70, 126
3, 167040, Note_off_c, 1, 70, 0
3, 167040, Note_on_c, 1, 69, 126
3, 167232, Note_off_c, 1, 69, 0
3, 167232, Note_on_c, 1, 70, 126
3, 167424, Note_off_c, 1, 70, 0
3, 167424, Note_on_c, 1, 63, 126
3, 167616, Note_off_c, 1, 63, 0
3, 167616, Note_on_c, 1, 63, 126
3, 167808, Note_off_c, 1, 63, 0
3, 167808, Note_on_c, 1, 69, 126
3, 168000, Note_off_c, 1, 69, 0
3, 168000, Note_on_c, 1, 70, 126
3, 168192, Note_off_c, 1, 70, 0
3, 168192, Note_on_c, 1, 70, 126
3, 168960, Note_off_c, 1, 70, 0
3, 168960, Note_on_c, 1, 65, 126
3, 169152, Note_off_c, 1, 65, 0
3, 169152, Note_on_c, 1, 70, 126
3, 169344, Note_off_c, 1, 70, 0
3, 169344, Note_on_c, 1, 69, 126
3, 169536, Note_off_c, 1, 69, 0
3, 169536, Note_on_c, 1, 70, 126
3, 169728, Note_off_c, 1, 70, 0
3, 169728, Note_on_c, 1, 63, 126
3, 170112, Note_off_c, 1, 63, 0
3, 170112, Note_on_c, 1, 69, 126
3, 170304, Note_off_c, 1, 69, 0
3, 170304, Note_on_c, 1, 70, 126
3, 170496, Note_off_c, 1, 70, 0
3, 170496, Note_on_c, 1, 69, 126
3, 170688, Note_off_c, 1, 69, 0
3, 170688, Note_on_c, 1, 70, 126
3, 170880, Note_off_c, 1, 70, 0
3, 170880, Note_on_c, 1, 62, 126
3, 171072, Note_off_c, 1, 62, 0
3, 171072, Note_on_c, 1, 62, 126
3, 171264, Note_off_c, 1, 62, 0
3, 171264, Note_on_c, 1, 65, 126
3, 171456, Note_off_c, 1, 65, 0
3, 171456, Note_on_c, 1, 69, 126
3, 171648, Note_off_c, 1, 69, 0
3, 171648, Note_on_c, 1, 72, 126
3, 172032, Note_off_c, 1, 72, 0
3, 172032, Note_on_c, 1, 69, 126
3, 172224, Note_off_c, 1, 69, 0
3, 172224, Note_on_c, 1, 70, 126
3, 172608, Note_off_c, 1, 70, 0
3, 172608, Note_on_c, 1, 63, 126
3, 172800, Note_off_c, 1, 63, 0
3, 172800, Note_on_c, 1, 63, 126
3, 172848, Note_off_c, 1, 63, 0
3, 172848, Note_on_c, 1, 62, 126
3, 172896, Note_off_c, 1, 62, 0
3, 172896, Note_on_c, 1, 63, 126
3, 172944, Note_off_c, 1, 63, 0
3, 172944, Note_on_c, 1, 62, 126
3, 172992, Note_off_c, 1, 62, 0
3, 172992, Note_on_c, 1, 63, 126
3, 173040, Note_off_c, 1, 63, 0
3, 173040, Note_on_c, 1, 62, 126
3, 173184, Note_off_c, 1, 62, 0
3, 173184, Note_on_c, 1, 60, 126
3, 173376, Note_off_c, 1, 60, 0
3, 173376, Note_on_c, 1, 72, 126
3, 173472, Note_off_c, 1, 72, 0
3, 173472, Note_on_c, 1, 74, 126
3, 173568, Note_off_c, 1, 74, 0
3, 173568, Note_on_c, 1, 75, 126
3, 173664, Note_off_c, 1, 75, 0
3, 173664, Note_on_c, 1, 72, 126
3, 173760, Note_off_c, 1, 72, 0
3, 173760, Note_on_c, 1, 72, 126
3, 173856, Note_off_c, 1, 72, 0
3, 173856, Note_on_c, 1, 70, 126
3, 173952, Note_off_c, 1, 70, 0
3, 173952, Note_on_c, 1, 70, 126
3, 174048, Note_off_c, 1, 70, 0
3, 174048, Note_on_c, 1, 69, 126
3, 174144, Note_off_c, 1, 69, 0
3, 174144, Note_on_c, 1, 69, 126
3, 174240, Note_off_c, 1, 69, 0
3, 174240, Note_on_c, 1, 67, 126
3, 174336, Note_off_c, 1, 67, 0
3, 174336, Note_on_c, 1, 67, 126
3, 174432, Note_off_c, 1, 67, 0
3, 174432, Note_on_c, 1, 65, 126
3, 174528, Note_off_c, 1, 65, 0
3, 174528, Note_on_c, 1, 72, 126
3, 174624, Note_off_c, 1, 72, 0
3, 174624, Note_on_c, 1, 74, 126
3, 174720, Note_off_c, 1, 74, 0
3, 174720, Note_on_c, 1, 75, 126
3, 174816, Note_off_c, 1, 75, 0
3, 174816, Note_on_c, 1, 72, 126
3, 174912, Note_off_c, 1, 72, 0
3, 174912, Note_on_c, 1, 72, 126
3, 175008, Note_off_c, 1, 72, 0
3, 175008, Note_on_c, 1, 70, 126
3, 175104, Note_off_c, 1, 70, 0
3, 175104, Note_on_c, 1, 70, 126
3, 175200, Note_off_c, 1, 70, 0
3, 175200, Note_on_c, 1, 69, 126
3, 175296, Note_off_c, 1, 69, 0
3, 175296, Note_on_c, 1, 69, 126
3, 175392, Note_off_c, 1, 69, 0
3, 175392, Note_on_c, 1, 67, 126
3, 175488, Note_off_c, 1, 67, 0
3, 175488, Note_on_c, 1, 67, 126
3, 175584, Note_off_c, 1, 67, 0
3, 175584, Note_on_c, 1, 65, 126
3, 175680, Note_off_c, 1, 65, 0
3, 175680, Note_on_c, 1, 74, 126
3, 175776, Note_off_c, 1, 74, 0
3, 175776, Note_on_c, 1, 75, 126
3, 175872, Note_off_c, 1, 75, 0
3, 175872, Note_on_c, 1, 77, 126
3, 175968, Note_off_c, 1, 77, 0
3, 175968, Note_on_c, 1, 74, 126
3, 176064, Note_off_c, 1, 74, 0
3, 176064, Note_on_c, 1, 74, 126
3, 176160, Note_off_c, 1, 74, 0
3, 176160, Note_on_c, 1, 72, 126
3, 176256, Note_off_c, 1, 72, 0
3, 176256, Note_on_c, 1, 72, 126
3, 176352, Note_off_c, 1, 72, 0
3, 176352, Note_on_c, 1, 70, 126
3, 176448, Note_off_c, 1, 70, 0
3, 176448, Note_on_c, 1, 70, 126
3, 176544, Note_off_c, 1, 70, 0
3, 176544, Note_on_c, 1, 68, 126
3, 176640, Note_off_c, 1, 68, 0
3, 176640, Note_on_c, 1, 68, 126
3, 176736, Note_off_c, 1, 68, 0
3, 176736, Note_on_c, 1, 70, 126
3, 176832, Note_off_c, 1, 70, 0
3, 176832, Note_on_c, 1, 74, 126
3, 176928, Note_off_c, 1, 74, 0
3, 176928, Note_on_c, 1, 75, 126
3, 177024, Note_off_c, 1, 75, 0
3, 177024, Note_on_c, 1, 77, 126
3, 177120, Note_off_c, 1, 77, 0
3, 177120, Note_on_c, 1, 74, 126
3, 177216, Note_off_c, 1, 74, 0
3, 177216, Note_on_c, 1, 74, 126
3, 177312, Note_off_c, 1, 74, 0
3, 177312, Note_on_c, 1, 72, 126
3, 177408, Note_off_c, 1, 72, 0
3, 177408, Note_on_c, 1, 72, 126
3, 177504, Note_off_c, 1, 72, 0
3, 177504, Note_on_c, 1, 70, 126
3, 177600, Note_off_c, 1, 70, 0
3, 177600, Note_on_c, 1, 70, 126
3, 177696, Note_off_c, 1, 70, 0
3, 177696, Note_on_c, 1, 68, 126
3, 177792, Note_off_c, 1, 68, 0
3, 177792, Note_on_c, 1, 68, 126
3, 177888, Note_off_c, 1, 68, 0
3, 177888, Note_on_c, 1, 67, 126
3, 177984, Note_off_c, 1, 67, 0
3, 177984, Note_on_c, 1, 67, 126
3, 178080, Note_off_c, 1, 67, 0
3, 178080, Note_on_c, 1, 70, 126
3, 178176, Note_off_c, 1, 70, 0
3, 178176, Note_on_c, 1, 68, 126
3, 178272, Note_off_c, 1, 68, 0
3, 178272, Note_on_c, 1, 67, 126
3, 178368, Note_off_c, 1, 67, 0
3, 178368, Note_on_c, 1, 67, 126
3, 178464, Note_off_c, 1, 67, 0
3, 178464, Note_on_c, 1, 65, 126
3, 178560, Note_off_c, 1, 65, 0
3, 178560, Note_on_c, 1, 65, 126
3, 178656, Note_off_c, 1, 65, 0
3, 178656, Note_on_c, 1, 70, 126
3, 178752, Note_off_c, 1, 70, 0
3, 178752, Note_on_c, 1, 67, 126
3, 178848, Note_off_c, 1, 67, 0
3, 178848, Note_on_c, 1, 65, 126
3, 178944, Note_off_c, 1, 65, 0
3, 178944, Note_on_c, 1, 65, 126
3, 179040, Note_off_c, 1, 65, 0
3, 179040, Note_on_c, 1, 63, 126
3, 179136, Note_off_c, 1, 63, 0
3, 179136, Note_on_c, 1, 63, 126
3, 179232, Note_off_c, 1, 63, 0
3, 179232, Note_on_c, 1, 70, 126
3, 179328, Note_off_c, 1, 70, 0
3, 179328, Note_on_c, 1, 65, 126
3, 179424, Note_off_c, 1, 65, 0
3, 179424, Note_on_c, 1, 63, 126
3, 179520, Note_off_c, 1, 63, 0
3, 179520, Note_on_c, 1, 63, 126
3, 179616, Note_off_c, 1, 63, 0
3, 179616, Note_on_c, 1, 62, 126
3, 179712, Note_off_c, 1, 62, 0
3, 179712, Note_on_c, 1, 62, 126
3, 179808, Note_off_c, 1, 62, 0
3, 179808, Note_on_c, 1, 70, 126
3, 179904, Note_off_c, 1, 70, 0
3, 179904, Note_on_c, 1, 63, 126
3, 180000, Note_off_c, 1, 63, 0
3, 180000, Note_on_c, 1, 62, 126
3, 180096, Note_off_c, 1, 62, 0
3, 180096, Note_on_c, 1, 62, 126
3, 180192, Note_off_c, 1, 62, 0
3, 180192, Note_on_c, 1, 60, 126
3, 180288, Note_off_c, 1, 60, 0
3, 180288, Note_on_c, 1, 60, 126
3, 180384, Note_off_c, 1, 60, 0
3, 180384, Note_on_c, 1, 69, 126
3, 180480, Note_off_c, 1, 69, 0
3, 180480, Note_on_c, 1, 69, 126
3, 180576, Note_off_c, 1, 69, 0
3, 180576, Note_on_c, 1, 70, 126
3, 180672, Note_off_c, 1, 70, 0
3, 180672, Note_on_c, 1, 70, 126
3, 180768, Note_off_c, 1, 70, 0
3, 180768, Note_on_c, 1, 60, 126
3, 180864, Note_off_c, 1, 60, 0
3, 180864, Note_on_c, 1, 60, 126
3, 180960, Note_off_c, 1, 60, 0
3, 180960, Note_on_c, 1, 69, 126
3, 181056, Note_off_c, 1, 69, 0
3, 181056, Note_on_c, 1, 69, 126
3, 181152, Note_off_c, 1, 69, 0
3, 181152, Note_on_c, 1, 70, 126
3, 181248, Note_off_c, 1, 70, 0
3, 181248, Note_on_c, 1, 70, 126
3, 181344, Note_off_c, 1, 70, 0
3, 181344, Note_on_c, 1, 60, 126
3, 181440, Note_off_c, 1, 60, 0
3, 181440, Note_on_c, 1, 60, 126
3, 181536, Note_off_c, 1, 60, 0
3, 181536, Note_on_c, 1, 69, 126
3, 181632, Note_off_c, 1, 69, 0
3, 181632, Note_on_c, 1, 69, 126
3, 181728, Note_off_c, 1, 69, 0
3, 181728, Note_on_c, 1, 70, 126
3, 181824, Note_off_c, 1, 70, 0
3, 181824, Note_on_c, 1, 70, 126
3, 181920, Note_off_c, 1, 70, 0
3, 181920, Note_on_c, 1, 60, 126
3, 182016, Note_off_c, 1, 60, 0
3, 182016, Note_on_c, 1, 60, 126
3, 182112, Note_off_c, 1, 60, 0
3, 182112, Note_on_c, 1, 69, 126
3, 182208, Note_off_c, 1, 69, 0
3, 182208, Note_on_c, 1, 69, 126
3, 182304, Note_off_c, 1, 69, 0
3, 182304, Note_on_c, 1, 70, 126
3, 182400, Note_off_c, 1, 70, 0
3, 182400, Note_on_c, 1, 70, 126
3, 182496, Note_off_c, 1, 70, 0
3, 182496, Note_on_c, 1, 60, 126
3, 182592, Note_off_c, 1, 60, 0
3, 182592, Note_on_c, 1, 60, 126
3, 182688, Note_off_c, 1, 60, 0
3, 182688, Note_on_c, 1, 63, 126
3, 182784, Note_off_c, 1, 63, 0
3, 182784, Note_on_c, 1, 63, 126
3, 182880, Note_off_c, 1, 63, 0
3, 182880, Note_on_c, 1, 62, 126
3, 182976, Note_off_c, 1, 62, 0
3, 182976, Note_on_c, 1, 62, 126
3, 183072, Note_off_c, 1, 62, 0
3, 183072, Note_on_c, 1, 67, 126
3, 183168, Note_off_c, 1, 67, 0
3, 183168, Note_on_c, 1, 67, 126
3, 183264, Note_off_c, 1, 67, 0
3, 183264, Note_on_c, 1, 65, 126
3, 183360, Note_off_c, 1, 65, 0
3, 183360, Note_on_c, 1, 65, 126
3, 183456, Note_off_c, 1, 65, 0
3, 183456, Note_on_c, 1, 69, 126
3, 183552, Note_off_c, 1, 69, 0
3, 183552, Note_on_c, 1, 69, 126
3, 183648, Note_off_c, 1, 69, 0
3, 183648, Note_on_c, 1, 70, 126
3, 183744, Note_off_c, 1, 70, 0
3, 183744, Note_on_c, 1, 63, 126
3, 183936, Note_off_c, 1, 63, 0
3, 183936, Note_on_c, 1, 62, 126
3, 183984, Note_off_c, 1, 62, 0
3, 183984, Note_on_c, 1, 60, 126
3, 184032, Note_off_c, 1, 60, 0
3, 184032, Note_on_c, 1, 62, 126
3, 184080, Note_off_c, 1, 62, 0
3, 184080, Note_on_c, 1, 60, 126
3, 184128, Note_off_c, 1, 60, 0
3, 184128, Note_on_c, 1, 62, 126
3, 184176, Note_off_c, 1, 62, 0
3, 184176, Note_on_c, 1, 60, 126
3, 184320, Note_off_c, 1, 60, 0
3, 184320, Note_on_c, 1, 58, 126
3, 184704, Note_off_c, 1, 58, 0
3, 184704, End_track
4, 0, Start_track
4, 0, Title_t, "Violin II"
4, 0, Control_c, 2, 0, 0
4, 0, Program_c, 2, 48
4, 0, Control_c, 2, 10, 105
4, 0, Key_signature, -2, "major"
4, 0, Control_c, 2, 121, 0
4, 0, Control_c, 2, 7, 127
4, 576, Note_on_c, 2, 62, 105
4, 960, Note_off_c, 2, 62, 0
4, 960, Note_on_c, 2, 60, 105
4, 1152, Note_off_c, 2, 60, 0
4, 1152, Note_on_c, 2, 62, 105
4, 1536, Note_off_c, 2, 62, 0
4, 1536, Note_on_c, 2, 60, 105
4, 1728, Note_off_c, 2, 60, 0
4, 1728, Note_on_c, 2, 62, 105
4, 1920, Note_off_c, 2, 62, 0
4, 1920, Note_on_c, 2, 63, 105
4, 2112, Note_off_c, 2, 63, 0
4, 2112, Note_on_c, 2, 63, 105
4, 2304, Note_off_c, 2, 63, 0
4, 2304, Note_on_c, 2, 65, 105
4, 3072, Note_off_c, 2, 65, 0
4, 3072, Note_on_c, 2, 65, 105
4, 3264, Note_off_c, 2, 65, 0
4, 3264, Note_on_c, 2, 63, 105
4, 3456, Note_off_c, 2, 63, 0
4, 4032, Note_on_c, 2, 63, 105
4, 4224, Note_off_c, 2, 63, 0
4, 4224, Note_on_c, 2, 60, 105
4, 4416, Note_off_c, 2, 60, 0
4, 4416, Note_on_c, 2, 62, 105
4, 4608, Note_off_c, 2, 62, 0
4, 4608, Note_on_c, 2, 65, 105
4, 4608, Note_on_c, 2, 69, 105
4, 5184, Note_off_c, 2, 65, 0
4, 5184, Note_off_c, 2, 69, 0
4, 5184, Note_on_c, 2, 62, 105
4, 5376, Note_off_c, 2, 62, 0
4, 5376, Note_on_c, 2, 58, 105
4, 5568, Note_off_c, 2, 58, 0
4, 5568, Note_on_c, 2, 60, 105
4, 5760, Note_off_c, 2, 60, 0
4, 5760, Note_on_c, 2, 72, 105
4, 6336, Note_off_c, 2, 72, 0
4, 6336, Note_on_c, 2, 63, 105
4, 6528, Note_off_c, 2, 63, 0
4, 6528, Note_on_c, 2, 58, 105
4, 6720, Note_off_c, 2, 58, 0
4, 6720, Note_on_c, 2, 58, 105
4, 6912, Note_off_c, 2, 58, 0
4, 6912, Note_on_c, 2, 62, 105
4, 7488, Note_off_c, 2, 62, 0
4, 7488, Note_on_c, 2, 69, 105
4, 7680, Note_off_c, 2, 69, 0
4, 7680, Note_on_c, 2, 72, 105
4, 7872, Note_off_c, 2, 72, 0
4, 7872, Note_on_c, 2, 69, 105
4, 8064, Note_off_c, 2, 69, 0
4, 8064, Note_on_c, 2, 65, 105
4, 8256, Note_off_c, 2, 65, 0
4, 8256, Note_on_c, 2, 69, 105
4, 8448, Note_off_c, 2, 69, 0
4, 8448, Note_on_c, 2, 72, 105
4, 8640, Note_off_c, 2, 72, 0
4, 8640, Note_on_c, 2, 69, 105
4, 8832, Note_off_c, 2, 69, 0
4, 8832, Note_on_c, 2, 72, 105
4, 9024, Note_off_c, 2, 72, 0
4, 9024, Note_on_c, 2, 75, 105
4, 9216, Note_off_c, 2, 75, 0
4, 9216, Note_on_c, 2, 60, 105
4, 9408, Note_off_c, 2, 60, 0
4, 9408, Note_on_c, 2, 65, 105
4, 9600, Note_off_c, 2, 65, 0
4, 9600, Note_on_c, 2, 60, 105
4, 9792, Note_off_c, 2, 60, 0
4, 9792, Note_on_c, 2, 70, 105
4, 10176, Note_off_c, 2, 70, 0
4, 10176, Note_on_c, 2, 65, 105
4, 10368, Note_off_c, 2, 65, 0
4, 10368, Note_on_c, 2, 63, 105
4, 10560, Note_off_c, 2, 63, 0
4, 10560, Note_on_c, 2, 67, 105
4, 10752, Note_off_c, 2, 67, 0
4, 10752, Note_on_c, 2, 63, 105
4, 10944, Note_off_c, 2, 63, 0
4, 10944, Note_on_c, 2, 70, 105
4, 11328, Note_off_c, 2, 70, 0
4, 11328, Note_on_c, 2, 65, 105
4, 11520, Note_off_c, 2, 65, 0
4, 11520, Note_on_c, 2, 62, 105
4, 11712, Note_off_c, 2, 62, 0
4, 11712, Note_on_c, 2, 65, 105
4, 11904, Note_off_c, 2, 65, 0
4, 11904, Note_on_c, 2, 62, 105
4, 12096, Note_off_c, 2, 62, 0
4, 12096, Note_on_c, 2, 63, 105
4, 12288, Note_off_c, 2, 63, 0
4, 12672, Note_on_c, 2, 65, 105
4, 12864, Note_off_c, 2, 65, 0
4, 13248, Note_on_c, 2, 63, 105
4, 13440, Note_off_c, 2, 63, 0
4, 13824, Note_on_c, 2, 70, 110
4, 14208, Note_off_c, 2, 70, 0
4, 14400, Note_on_c, 2, 60, 127
4, 14976, Note_off_c, 2, 60, 0
4, 16704, Note_on_c, 2, 58, 127
4, 17472, Note_off_c, 2, 58, 0
4, 17472, Note_on_c, 2, 62, 127
4, 17664, Note_off_c, 2, 62, 0
4, 17664, Note_on_c, 2, 62, 127
4, 17856, Note_off_c, 2, 62, 0
4, 17856, Note_on_c, 2, 60, 127
4, 17856, Note_on_c, 2, 63, 127
4, 17920, Note_off_c, 2, 60, 0
4, 17920, Note_off_c, 2, 63, 0
4, 18048, Note_on_c, 2, 58, 127
4, 18096, Note_off_c, 2, 58, 0
4, 18096, Note_on_c, 2, 57, 127
4, 18144, Note_off_c, 2, 57, 0
4, 18144, Note_on_c, 2, 58, 127
4, 18192, Note_off_c, 2, 58, 0
4, 18192, Note_on_c, 2, 57, 127
4, 18240, Note_off_c, 2, 57, 0
4, 18240, Note_on_c, 2, 58, 127
4, 18288, Note_off_c, 2, 58, 0
4, 18288, Note_on_c, 2, 57, 127
4, 18432, Note_off_c, 2, 57, 0
4, 18432, Note_on_c, 2, 58, 127
4, 19008, Note_off_c, 2, 58, 0
4, 19008, Note_on_c, 2, 58, 105
4, 19392, Note_off_c, 2, 58, 0
4, 19392, Note_on_c, 2, 60, 105
4, 19584, Note_off_c, 2, 60, 0
4, 19584, Note_on_c, 2, 58, 105
4, 19968, Note_off_c, 2, 58, 0
4, 19968, Note_on_c, 2, 60, 105
4, 20160, Note_off_c, 2, 60, 0
4, 20160, Note_on_c, 2, 62, 105
4, 20352, Note_off_c, 2, 62, 0
4, 20352, Note_on_c, 2, 65, 105
4, 20544, Note_off_c, 2, 65, 0
4, 20544, Note_on_c, 2, 63, 105
4, 20736, Note_off_c, 2, 63, 0
4, 20736, Note_on_c, 2, 58, 105
4, 21312, Note_off_c, 2, 58, 0
4, 21312, Note_on_c, 2, 65, 105
4, 21696, Note_off_c, 2, 65, 0
4, 21696, Note_on_c, 2, 63, 105
4, 21888, Note_off_c, 2, 63, 0
4, 21888, Note_on_c, 2, 62, 105
4, 22080, Note_off_c, 2, 62, 0
4, 22080, Note_on_c, 2, 65, 105
4, 22272, Note_off_c, 2, 65, 0
4, 22272, Note_on_c, 2, 63, 105
4, 22464, Note_off_c, 2, 63, 0
4, 22464, Note_on_c, 2, 65, 105
4, 22656, Note_off_c, 2, 65, 0
4, 22656, Note_on_c, 2, 67, 105
4, 22848, Note_off_c, 2, 67, 0
4, 22848, Note_on_c, 2, 68, 105
4, 23232, Note_off_c, 2, 68, 0
4, 23232, Note_on_c, 2, 67, 105
4, 23232, Note_on_c, 2, 70, 105
4, 23424, Note_off_c, 2, 67, 0
4, 23424, Note_off_c, 2, 70, 0
4, 23424, Note_on_c, 2, 65, 105
4, 23424, Note_on_c, 2, 68, 105
4, 23616, Note_off_c, 2, 65, 0
4, 23616, Note_off_c, 2, 68, 0
4, 23616, Note_on_c, 2, 63, 105
4, 23616, Note_on_c, 2, 67, 105
4, 24000, Note_off_c, 2, 63, 0
4, 24000, Note_off_c, 2, 67, 0
4, 24000, Note_on_c, 2, 62, 105
4, 24000, Note_on_c, 2, 67, 105
4, 24192, Note_off_c, 2, 62, 0
4, 24192, Note_off_c, 2, 67, 0
4, 24192, Note_on_c, 2, 60, 105
4, 24192, Note_on_c, 2, 65, 105
4, 24576, Note_off_c, 2, 60, 0
4, 24576, Note_off_c, 2, 65, 0
4, 24576, Note_on_c, 2, 62, 105
4, 24576, Note_on_c, 2, 65, 105
4, 24768, Note_off_c, 2, 62, 0
4, 24768, Note_off_c, 2, 65, 0
4, 24768, Note_on_c, 2, 65, 105
4, 24768, Note_on_c, 2, 68, 105
4, 24960, Note_off_c, 2, 65, 0
4, 24960, Note_off_c, 2, 68, 0
4, 24960, Note_on_c, 2, 70, 105
4, 25152, Note_off_c, 2, 70, 0
4, 25152, Note_on_c, 2, 68, 105
4, 25152, Note_on_c, 2, 72, 105
4, 25344, Note_off_c, 2, 68, 0
4, 25344, Note_on_c, 2, 65, 105
4, 25536, Note_off_c, 2, 72, 0
4, 25536, Note_off_c, 2, 65, 0
4, 25536, Note_on_c, 2, 70, 105
4, 25728, Note_off_c, 2, 70, 0
4, 25728, Note_on_c, 2, 63, 105
4, 25728, Note_on_c, 2, 69, 105
4, 25920, Note_off_c, 2, 63, 0
4, 25920, Note_off_c, 2, 69, 0
4, 25920, Note_on_c, 2, 62, 84
4, 26304, Note_off_c, 2, 62, 0
4, 26304, Note_on_c, 2, 60, 84
4, 26496, Note_off_c, 2, 60, 0
4, 26496, Note_on_c, 2, 58, 84
4, 26880, Note_off_c, 2, 58, 0
4, 26880, Note_on_c, 2, 60, 84
4, 27072, Note_off_c, 2, 60, 0
4, 27072, Note_on_c, 2, 62, 84
4, 27264, Note_off_c, 2, 62, 0
4, 27264, Note_on_c, 2, 65, 84
4, 27456, Note_off_c, 2, 65, 0
4, 27456, Note_on_c, 2, 63, 84
4, 27648, Note_off_c, 2, 63, 0
4, 27648, Note_on_c, 2, 58, 84
4, 28416, Note_off_c, 2, 58, 0
4, 28416, Note_on_c, 2, 62, 84
4, 28608, Note_off_c, 2, 62, 0
4, 28608, Note_on_c, 2, 63, 84
4, 28800, Note_off_c, 2, 63, 0
4, 28800, Note_on_c, 2, 63, 84
4, 29568, Note_off_c, 2, 63, 0
4, 29568, Note_on_c, 2, 60, 84
4, 29760, Note_off_c, 2, 60, 0
4, 29760, Note_on_c, 2, 62, 84
4, 29952, Note_off_c, 2, 62, 0
4, 29952, Note_on_c, 2, 62, 84
4, 30720, Note_off_c, 2, 62, 0
4, 30720, Note_on_c, 2, 58, 84
4, 30912, Note_off_c, 2, 58, 0
4, 30912, Note_on_c, 2, 60, 84
4, 31104, Note_off_c, 2, 60, 0
4, 31104, Note_on_c, 2, 69, 84
4, 31488, Note_off_c, 2, 69, 0
4, 31488, Note_on_c, 2, 60, 84
4, 31680, Note_off_c, 2, 60, 0
4, 31680, Note_on_c, 2, 60, 84
4, 31872, Note_off_c, 2, 60, 0
4, 31872, Note_on_c, 2, 58, 84
4, 32064, Note_off_c, 2, 58, 0
4, 32064, Note_on_c, 2, 55, 84
4, 32064, Note_on_c, 2, 58, 84
4, 32256, Note_off_c, 2, 55, 0
4, 32256, Note_off_c, 2, 58, 0
4, 32256, Note_on_c, 2, 58, 84
4, 32640, Note_off_c, 2, 58, 0
4, 32640, Note_on_c, 2, 57, 84
4, 32832, Note_off_c, 2, 57, 0
4, 32832, Note_on_c, 2, 69, 127
4, 33216, Note_off_c, 2, 69, 0
4, 33216, Note_on_c, 2, 67, 127
4, 33408, Note_off_c, 2, 67, 0
4, 33408, Note_on_c, 2, 65, 127
4, 33792, Note_off_c, 2, 65, 0
4, 33792, Note_on_c, 2, 67, 127
4, 33984, Note_off_c, 2, 67, 0
4, 33984, Note_on_c, 2, 69, 127
4, 34176, Note_off_c, 2, 69, 0
4, 34176, Note_on_c, 2, 70, 127
4, 34368, Note_off_c, 2, 70, 0
4, 34368, Note_on_c, 2, 72, 127
4, 34752, Note_off_c, 2, 72, 0
4, 34752, Note_on_c, 2, 70, 127
4, 34944, Note_off_c, 2, 70, 0
4, 34944, Note_on_c, 2, 69, 127
4, 35136, Note_off_c, 2, 69, 0
4, 35136, Note_on_c, 2, 70, 84
4, 35328, Note_off_c, 2, 70, 0
4, 35328, Note_on_c, 2, 65, 84
4, 35520, Note_off_c, 2, 65, 0
4, 35520, Note_on_c, 2, 67, 84
4, 35712, Note_off_c, 2, 67, 0
4, 35712, Note_on_c, 2, 69, 84
4, 36096, Note_off_c, 2, 69, 0
4, 36096, Note_on_c, 2, 70, 84
4, 36288, Note_off_c, 2, 70, 0
4, 36288, Note_on_c, 2, 72, 84
4, 36384, Note_off_c, 2, 72, 0
4, 36384, Note_on_c, 2, 74, 84
4, 36480, Note_off_c, 2, 74, 0
4, 36480, Note_on_c, 2, 75, 84
4, 36672, Note_off_c, 2, 75, 0
4, 36672, Note_on_c, 2, 69, 84
4, 36864, Note_off_c, 2, 69, 0
4, 36864, Note_on_c, 2, 62, 127
4, 37056, Note_off_c, 2, 62, 0
4, 37056, Note_on_c, 2, 65, 127
4, 37248, Note_off_c, 2, 65, 0
4, 37248, Note_on_c, 2, 63, 127
4, 37440, Note_off_c, 2, 63, 0
4, 37440, Note_on_c, 2, 62, 127
4, 37824, Note_off_c, 2, 62, 0
4, 37824, Note_on_c, 2, 60, 127
4, 38016, Note_off_c, 2, 60, 0
4, 38016, Note_on_c, 2, 58, 127
4, 38400, Note_off_c, 2, 58, 0
4, 38400, Note_on_c, 2, 60, 127
4, 38592, Note_off_c, 2, 60, 0
4, 38592, Note_on_c, 2, 62, 127
4, 38784, Note_off_c, 2, 62, 0
4, 38784, Note_on_c, 2, 63, 127
4, 38976, Note_off_c, 2, 63, 0
4, 38976, Note_on_c, 2, 65, 127
4, 39360, Note_off_c, 2, 65, 0
4, 39360, Note_on_c, 2, 63, 127
4, 39552, Note_off_c, 2, 63, 0
4, 39552, Note_on_c, 2, 62, 127
4, 39744, Note_off_c, 2, 62, 0
4, 39744, Note_on_c, 2, 63, 84
4, 39936, Note_off_c, 2, 63, 0
4, 39936, Note_on_c, 2, 58, 84
4, 40128, Note_off_c, 2, 58, 0
4, 40128, Note_on_c, 2, 60, 84
4, 40320, Note_off_c, 2, 60, 0
4, 40320, Note_on_c, 2, 62, 84
4, 40704, Note_off_c, 2, 62, 0
4, 40704, Note_on_c, 2, 63, 84
4, 40896, Note_off_c, 2, 63, 0
4, 40896, Note_on_c, 2, 65, 84
4, 40992, Note_off_c, 2, 65, 0
4, 40992, Note_on_c, 2, 67, 84
4, 41088, Note_off_c, 2, 67, 0
4, 41088, Note_on_c, 2, 69, 84
4, 41280, Note_off_c, 2, 69, 0
4, 41280, Note_on_c, 2, 62, 84
4, 41472, Note_off_c, 2, 62, 0
4, 41472, Note_on_c, 2, 55, 84
4, 42240, Note_off_c, 2, 55, 0
4, 42240, Note_on_c, 2, 67, 84
4, 42432, Note_off_c, 2, 67, 0
4, 42432, Note_on_c, 2, 65, 84
4, 42624, Note_off_c, 2, 65, 0
4, 42624, Note_on_c, 2, 63, 84
4, 42624, Note_on_c, 2, 67, 84
4, 43008, Note_off_c, 2, 63, 0
4, 43008, Note_off_c, 2, 67, 0
4, 43008, Note_on_c, 2, 65, 84
4, 43200, Note_off_c, 2, 65, 0
4, 43200, Note_on_c, 2, 63, 84
4, 43392, Note_off_c, 2, 63, 0
4, 43392, Note_on_c, 2, 74, 84
4, 43584, Note_off_c, 2, 74, 0
4, 43584, Note_on_c, 2, 75, 84
4, 43776, Note_off_c, 2, 75, 0
4, 43776, Note_on_c, 2, 67, 84
4, 44544, Note_off_c, 2, 67, 0
4, 44544, Note_on_c, 2, 63, 84
4, 44736, Note_off_c, 2, 63, 0
4, 44736, Note_on_c, 2, 65, 84
4, 44928, Note_off_c, 2, 65, 0
4, 44928, Note_on_c, 2, 74, 84
4, 45120, Note_off_c, 2, 74, 0
4, 45120, Note_on_c, 2, 75, 84
4, 45312, Note_off_c, 2, 75, 0
4, 45312, Note_on_c, 2, 65, 84
4, 45696, Note_off_c, 2, 65, 0
4, 45696, Note_on_c, 2, 63, 84
4, 45888, Note_off_c, 2, 63, 0
4, 45888, Note_on_c, 2, 60, 84
4, 45888, Note_on_c, 2, 63, 84
4, 46080, Note_off_c, 2, 60, 0
4, 46080, Note_off_c, 2, 63, 0
4, 46080, Note_on_c, 2, 65, 84
4, 46128, Note_off_c, 2, 65, 0
4, 46128, Note_on_c, 2, 63, 84
4, 46176, Note_off_c, 2, 63, 0
4, 46176, Note_on_c, 2, 65, 84
4, 46224, Note_off_c, 2, 65, 0
4, 46224, Note_on_c, 2, 63, 84
4, 46272, Note_off_c, 2, 63, 0
4, 46272, Note_on_c, 2, 65, 84
4, 46320, Note_off_c, 2, 65, 0
4, 46320, Note_on_c, 2, 63, 84
4, 46464, Note_off_c, 2, 63, 0
4, 46464, Note_on_c, 2, 62, 84
4, 46656, Note_off_c, 2, 62, 0
4, 46656, Note_on_c, 2, 65, 84
4, 47040, Note_off_c, 2, 65, 0
4, 47040, Note_on_c, 2, 68, 84
4, 47232, Note_off_c, 2, 68, 0
4, 47232, Note_on_c, 2, 62, 84
4, 47616, Note_off_c, 2, 62, 0
4, 47616, Note_on_c, 2, 62, 84
4, 47808, Note_off_c, 2, 62, 0
4, 47808, Note_on_c, 2, 62, 84
4, 48192, Note_off_c, 2, 62, 0
4, 48192, Note_on_c, 2, 62, 84
4, 48384, Note_off_c, 2, 62, 0
4, 48384, Note_on_c, 2, 60, 84
4, 48768, Note_off_c, 2, 60, 0
4, 48768, Note_on_c, 2, 65, 84
4, 48960, Note_off_c, 2, 65, 0
4, 48960, Note_on_c, 2, 67, 84
4, 49536, Note_off_c, 2, 67, 0
4, 49536, Note_on_c, 2, 65, 84
4, 49920, Note_off_c, 2, 65, 0
4, 49920, Note_on_c, 2, 65, 84
4, 50112, Note_off_c, 2, 65, 0
4, 50112, Note_on_c, 2, 60, 84
4, 50688, Note_off_c, 2, 60, 0
4, 51072, Note_on_c, 2, 65, 84
4, 51264, Note_off_c, 2, 65, 0
4, 51264, Note_on_c, 2, 63, 84
4, 51456, Note_off_c, 2, 63, 0
4, 51456, Note_on_c, 2, 62, 84
4, 51648, Note_off_c, 2, 62, 0
4, 51648, Note_on_c, 2, 63, 84
4, 51840, Note_off_c, 2, 63, 0
4, 55296, Note_on_c, 2, 57, 84
4, 55488, Note_off_c, 2, 57, 0
4, 55488, Note_on_c, 2, 60, 84
4, 55680, Note_off_c, 2, 60, 0
4, 55680, Note_on_c, 2, 62, 84
4, 55872, Note_off_c, 2, 62, 0
4, 55872, Note_on_c, 2, 57, 84
4, 56064, Note_off_c, 2, 57, 0
4, 56064, Note_on_c, 2, 58, 84
4, 56256, Note_off_c, 2, 58, 0
4, 56256, Note_on_c, 2, 62, 84
4, 56448, Note_off_c, 2, 62, 0
4, 56448, Note_on_c, 2, 63, 84
4, 56640, Note_off_c, 2, 63, 0
4, 56640, Note_on_c, 2, 65, 84
4, 56832, Note_off_c, 2, 65, 0
4, 56832, Note_on_c, 2, 58, 84
4, 57024, Note_off_c, 2, 58, 0
4, 57024, Note_on_c, 2, 58, 84
4, 57216, Note_off_c, 2, 58, 0
4, 57216, Note_on_c, 2, 57, 84
4, 57600, Note_off_c, 2, 57, 0
4, 58176, Note_on_c, 2, 62, 84
4, 58752, Note_off_c, 2, 62, 0
4, 58752, Note_on_c, 2, 63, 84
4, 59328, Note_off_c, 2, 63, 0
4, 59328, Note_on_c, 2, 62, 84
4, 59904, Note_off_c, 2, 62, 0
4, 59904, Note_on_c, 2, 63, 84
4, 60288, Note_off_c, 2, 63, 0
4, 60288, Note_on_c, 2, 67, 84
4, 60480, Note_off_c, 2, 67, 0
4, 60480, Note_on_c, 2, 65, 84
4, 60672, Note_off_c, 2, 65, 0
4, 60864, Note_on_c, 2, 65, 84
4, 61056, Note_off_c, 2, 65, 0
4, 61056, Note_on_c, 2, 63, 84
4, 61248, Note_off_c, 2, 63, 0
4, 61440, Note_on_c, 2, 63, 84
4, 61632, Note_off_c, 2, 63, 0
4, 61632, Note_on_c, 2, 63, 84
4, 61824, Note_off_c, 2, 63, 0
4, 62016, Note_on_c, 2, 63, 84
4, 62208, Note_off_c, 2, 63, 0
4, 62784, Note_on_c, 2, 62, 105
4, 63168, Note_off_c, 2, 62, 0
4, 63168, Note_on_c, 2, 60, 105
4, 63360, Note_off_c, 2, 60, 0
4, 63360, Note_on_c, 2, 58, 105
4, 63744, Note_off_c, 2, 58, 0
4, 63744, Note_on_c, 2, 60, 105
4, 63936, Note_off_c, 2, 60, 0
4, 63936, Note_on_c, 2, 62, 105
4, 64128, Note_off_c, 2, 62, 0
4, 64128, Note_on_c, 2, 63, 105
4, 64320, Note_off_c, 2, 63, 0
4, 64320, Note_on_c, 2, 63, 105
4, 64512, Note_off_c, 2, 63, 0
4, 64512, Note_on_c, 2, 65, 127
4, 65280, Note_off_c, 2, 65, 0
4, 65280, Note_on_c, 2, 65, 127
4, 65472, Note_off_c, 2, 65, 0
4, 65472, Note_on_c, 2, 67, 127
4, 65664, Note_off_c, 2, 67, 0
4, 65664, Note_on_c, 2, 63, 127
4, 66432, Note_off_c, 2, 63, 0
4, 66432, Note_on_c, 2, 60, 127
4, 66624, Note_off_c, 2, 60, 0
4, 66624, Note_on_c, 2, 62, 127
4, 66816, Note_off_c, 2, 62, 0
4, 66816, Note_on_c, 2, 65, 127
4, 67584, Note_off_c, 2, 65, 0
4, 67584, Note_on_c, 2, 65, 127
4, 67776, Note_off_c, 2, 65, 0
4, 67776, Note_on_c, 2, 67, 127
4, 67968, Note_off_c, 2, 67, 0
4, 67968, Note_on_c, 2, 63, 127
4, 68736, Note_off_c, 2, 63, 0
4, 68736, Note_on_c, 2, 60, 127
4, 68928, Note_off_c, 2, 60, 0
4, 68928, Note_on_c, 2, 62, 127
4, 69120, Note_off_c, 2, 62, 0
4, 69120, Note_on_c, 2, 62, 127
4, 69888, Note_off_c, 2, 62, 0
4, 69888, Note_on_c, 2, 58, 127
4, 70080, Note_off_c, 2, 58, 0
4, 70080, Note_on_c, 2, 60, 127
4, 70272, Note_off_c, 2, 60, 0
4, 70272, Note_on_c, 2, 69, 127
4, 70464, Note_off_c, 2, 69, 0
4, 70464, Note_on_c, 2, 70, 127
4, 70656, Note_off_c, 2, 70, 0
4, 70656, Note_on_c, 2, 60, 127
4, 70848, Note_on_c, 2, 63, 127
4, 71040, Note_off_c, 2, 60, 0
4, 71040, Note_off_c, 2, 63, 0
4, 71040, Note_on_c, 2, 58, 127
4, 71232, Note_off_c, 2, 58, 0
4, 71232, Note_on_c, 2, 58, 127
4, 71424, Note_off_c, 2, 58, 0
4, 71424, Note_on_c, 2, 60, 127
4, 71472, Note_off_c, 2, 60, 0
4, 71472, Note_on_c, 2, 58, 127
4, 71520, Note_off_c, 2, 58, 0
4, 71520, Note_on_c, 2, 60, 127
4, 71568, Note_off_c, 2, 60, 0
4, 71568, Note_on_c, 2, 58, 127
4, 71616, Note_off_c, 2, 58, 0
4, 71616, Note_on_c, 2, 60, 127
4, 71664, Note_off_c, 2, 60, 0
4, 71664, Note_on_c, 2, 58, 127
4, 71808, Note_off_c, 2, 58, 0
4, 71808, Note_on_c, 2, 57, 127
4, 72000, Note_off_c, 2, 57, 0
4, 72000, Note_on_c, 2, 69, 127
4, 72192, Note_off_c, 2, 69, 0
4, 72192, Note_on_c, 2, 72, 127
4, 72384, Note_off_c, 2, 72, 0
4, 72384, Note_on_c, 2, 69, 127
4, 72576, Note_off_c, 2, 69, 0
4, 72576, Note_on_c, 2, 65, 127
4, 72768, Note_off_c, 2, 65, 0
4, 72768, Note_on_c, 2, 69, 127
4, 72960, Note_off_c, 2, 69, 0
4, 72960, Note_on_c, 2, 60, 127
4, 73152, Note_off_c, 2, 60, 0
4, 73152, Note_on_c, 2, 69, 127
4, 73344, Note_off_c, 2, 69, 0
4, 73344, Note_on_c, 2, 72, 127
4, 73536, Note_off_c, 2, 72, 0
4, 73536, Note_on_c, 2, 75, 127
4, 73728, Note_off_c, 2, 75, 0
4, 73728, Note_on_c, 2, 60, 127
4, 73920, Note_off_c, 2, 60, 0
4, 73920, Note_on_c, 2, 65, 127
4, 74112, Note_off_c, 2, 65, 0
4, 74112, Note_on_c, 2, 57, 127
4, 74304, Note_off_c, 2, 57, 0
4, 74304, Note_on_c, 2, 65, 127
4, 74880, Note_off_c, 2, 65, 0
4, 74880, Note_on_c, 2, 62, 127
4, 75072, Note_off_c, 2, 62, 0
4, 75072, Note_on_c, 2, 65, 127
4, 75264, Note_off_c, 2, 65, 0
4, 75264, Note_on_c, 2, 62, 127
4, 75456, Note_off_c, 2, 62, 0
4, 75456, Note_on_c, 2, 65, 127
4, 76032, Note_off_c, 2, 65, 0
4, 76032, Note_on_c, 2, 62, 127
4, 76224, Note_off_c, 2, 62, 0
4, 76224, Note_on_c, 2, 62, 127
4, 76416, Note_off_c, 2, 62, 0
4, 76416, Note_on_c, 2, 58, 127
4, 76416, Note_on_c, 2, 62, 127
4, 76608, Note_off_c, 2, 58, 0
4, 76608, Note_off_c, 2, 62, 0
4, 76608, Note_on_c, 2, 58, 127
4, 76608, Note_on_c, 2, 63, 127
4, 76992, Note_off_c, 2, 58, 0
4, 76992, Note_off_c, 2, 63, 0
4, 77184, Note_on_c, 2, 58, 127
4, 77568, Note_off_c, 2, 58, 0
4, 77760, Note_on_c, 2, 57, 127
4, 78144, Note_off_c, 2, 57, 0
4, 78336, Note_on_c, 2, 70, 127
4, 78912, Note_off_c, 2, 70, 0
4, 78912, Note_on_c, 2, 60, 127
4, 79488, Note_off_c, 2, 60, 0
4, 79488, Note_on_c, 2, 60, 127
4, 80064, Note_off_c, 2, 60, 0
4, 80064, Note_on_c, 2, 60, 127
4, 80640, Note_off_c, 2, 60, 0
4, 80640, Note_on_c, 2, 60, 127
4, 80832, Note_off_c, 2, 60, 0
4, 80832, Note_on_c, 2, 60, 127
4, 80832, Note_on_c, 2, 63, 127
4, 81024, Note_off_c, 2, 60, 0
4, 81024, Note_off_c, 2, 63, 0
4, 81024, Note_on_c, 2, 58, 127
4, 81024, Note_on_c, 2, 62, 127
4, 81216, Note_off_c, 2, 58, 0
4, 81216, Note_off_c, 2, 62, 0
4, 81216, Note_on_c, 2, 58, 127
4, 81600, Note_off_c, 2, 58, 0
4, 81600, Note_on_c, 2, 58, 127
4, 81984, Note_off_c, 2, 58, 0
4, 81984, Note_on_c, 2, 62, 127
4, 82176, Note_off_c, 2, 62, 0
4, 82176, Note_on_c, 2, 58, 127
4, 82368, Note_off_c, 2, 58, 0
4, 82368, Note_on_c, 2, 60, 127
4, 82560, Note_off_c, 2, 60, 0
4, 82560, Note_on_c, 2, 58, 127
4, 82608, Note_off_c, 2, 58, 0
4, 82608, Note_on_c, 2, 57, 127
4, 82656, Note_off_c, 2, 57, 0
4, 82656, Note_on_c, 2, 58, 127
4, 82704, Note_off_c, 2, 58, 0
4, 82704, Note_on_c, 2, 57, 127
4, 82752, Note_off_c, 2, 57, 0
4, 82752, Note_on_c, 2, 58, 127
4, 82800, Note_off_c, 2, 58, 0
4, 82800, Note_on_c, 2, 57, 127
4, 82944, Note_off_c, 2, 57, 0
4, 82944, Note_on_c, 2, 58, 127
4, 83328, Note_off_c, 2, 58, 0
4, 88128, Note_on_c, 2, 60, 127
4, 88320, Note_off_c, 2, 60, 0
4, 88512, Note_on_c, 2, 63, 127
4, 88704, Note_off_c, 2, 63, 0
4, 88704, Note_on_c, 2, 69, 127
4, 88896, Note_off_c, 2, 69, 0
4, 89088, Note_on_c, 2, 69, 127
4, 89280, Note_off_c, 2, 69, 0
4, 89280, Note_on_c, 2, 67, 127
4, 89472, Note_off_c, 2, 67, 0
4, 89664, Note_on_c, 2, 67, 127
4, 89856, Note_off_c, 2, 67, 0
4, 89856, Note_on_c, 2, 66, 127
4, 90048, Note_off_c, 2, 66, 0
4, 96576, Note_on_c, 2, 65, 127
4, 96768, Note_off_c, 2, 65, 0
4, 97920, Note_on_c, 2, 62, 127
4, 98112, Note_off_c, 2, 62, 0
4, 98112, Note_on_c, 2, 63, 127
4, 98304, Note_off_c, 2, 63, 0
4, 98304, Note_on_c, 2, 62, 127
4, 98496, Note_off_c, 2, 62, 0
4, 98496, Note_on_c, 2, 60, 127
4, 98688, Note_off_c, 2, 60, 0
4, 98688, Note_on_c, 2, 63, 127
4, 98880, Note_off_c, 2, 63, 0
4, 98880, Note_on_c, 2, 60, 127
4, 99072, Note_off_c, 2, 60, 0
4, 99072, Note_on_c, 2, 62, 127
4, 99648, Note_off_c, 2, 62, 0
4, 99648, Note_on_c, 2, 62, 127
4, 99840, Note_off_c, 2, 62, 0
4, 99840, Note_on_c, 2, 65, 127
4, 100032, Note_off_c, 2, 65, 0
4, 100032, Note_on_c, 2, 67, 127
4, 100224, Note_off_c, 2, 67, 0
4, 100224, Note_on_c, 2, 60, 127
4, 100224, Note_on_c, 2, 69, 127
4, 100416, Note_off_c, 2, 60, 0
4, 100416, Note_off_c, 2, 69, 0
4, 101952, Note_on_c, 2, 62, 84
4, 102336, Note_off_c, 2, 62, 0
4, 102336, Note_on_c, 2, 60, 84
4, 102528, Note_off_c, 2, 60, 0
4, 102528, Note_on_c, 2, 58, 84
4, 102912, Note_off_c, 2, 58, 0
4, 102912, Note_on_c, 2, 60, 84
4, 103104, Note_off_c, 2, 60, 0
4, 103104, Note_on_c, 2, 62, 84
4, 103296, Note_off_c, 2, 62, 0
4, 103296, Note_on_c, 2, 64, 84
4, 103488, Note_off_c, 2, 64, 0
4, 103488, Note_on_c, 2, 66, 84
4, 103680, Note_off_c, 2, 66, 0
4, 103680, Note_on_c, 2, 67, 84
4, 104064, Note_off_c, 2, 67, 0
4, 104064, Note_on_c, 2, 69, 84
4, 104256, Note_off_c, 2, 69, 0
4, 104256, Note_on_c, 2, 71, 84
4, 104448, Note_off_c, 2, 71, 0
4, 104448, Note_on_c, 2, 67, 84
4, 104640, Note_off_c, 2, 67, 0
4, 104640, Note_on_c, 2, 71, 84
4, 104832, Note_off_c, 2, 71, 0
4, 104832, Note_on_c, 2, 67, 84
4, 105024, Note_off_c, 2, 67, 0
4, 105024, Note_on_c, 2, 67, 84
4, 105216, Note_off_c, 2, 67, 0
4, 105216, Note_on_c, 2, 65, 84
4, 105408, Note_off_c, 2, 65, 0
4, 105408, Note_on_c, 2, 67, 84
4, 105600, Note_off_c, 2, 67, 0
4, 105600, Note_on_c, 2, 69, 84
4, 105792, Note_off_c, 2, 69, 0
4, 105792, Note_on_c, 2, 71, 84
4, 105984, Note_off_c, 2, 71, 0
4, 105984, Note_on_c, 2, 72, 127
4, 106368, Note_off_c, 2, 72, 0
4, 106368, Note_on_c, 2, 71, 127
4, 106560, Note_off_c, 2, 71, 0
4, 106560, Note_on_c, 2, 72, 127
4, 106752, Note_off_c, 2, 72, 0
4, 106752, Note_on_c, 2, 69, 127
4, 106944, Note_off_c, 2, 69, 0
4, 106944, Note_on_c, 2, 63, 127
4, 107136, Note_off_c, 2, 63, 0
4, 107136, Note_on_c, 2, 62, 127
4, 107328, Note_off_c, 2, 62, 0
4, 107328, Note_on_c, 2, 63, 127
4, 107520, Note_off_c, 2, 63, 0
4, 107520, Note_on_c, 2, 65, 127
4, 107712, Note_off_c, 2, 65, 0
4, 107712, Note_on_c, 2, 62, 127
4, 107904, Note_off_c, 2, 62, 0
4, 107904, Note_on_c, 2, 63, 127
4, 107952, Note_off_c, 2, 63, 0
4, 107952, Note_on_c, 2, 62, 127
4, 108000, Note_off_c, 2, 62, 0
4, 108000, Note_on_c, 2, 63, 127
4, 108048, Note_off_c, 2, 63, 0
4, 108048, Note_on_c, 2, 62, 127
4, 108096, Note_off_c, 2, 62, 0
4, 108096, Note_on_c, 2, 63, 127
4, 108144, Note_off_c, 2, 63, 0
4, 108144, Note_on_c, 2, 62, 127
4, 108288, Note_off_c, 2, 62, 0
4, 108288, Note_on_c, 2, 67, 105
4, 108480, Note_off_c, 2, 67, 0
4, 108480, Note_on_c, 2, 67, 105
4, 108672, Note_off_c, 2, 67, 0
4, 108672, Note_on_c, 2, 69, 105
4, 108864, Note_off_c, 2, 69, 0
4, 108864, Note_on_c, 2, 70, 105
4, 109056, Note_off_c, 2, 70, 0
4, 109056, Note_on_c, 2, 72, 105
4, 109248, Note_off_c, 2, 72, 0
4, 109248, Note_on_c, 2, 74, 105
4, 109440, Note_off_c, 2, 74, 0
4, 109440, Note_on_c, 2, 72, 105
4, 109632, Note_off_c, 2, 72, 0
4, 109632, Note_on_c, 2, 67, 105
4, 109824, Note_off_c, 2, 67, 0
4, 109824, Note_on_c, 2, 68, 105
4, 110016, Note_off_c, 2, 68, 0
4, 110016, Note_on_c, 2, 70, 105
4, 110208, Note_off_c, 2, 70, 0
4, 110208, Note_on_c, 2, 72, 105
4, 110400, Note_off_c, 2, 72, 0
4, 110400, Note_on_c, 2, 75, 105
4, 110592, Note_off_c, 2, 75, 0
4, 110592, Note_on_c, 2, 72, 105
4, 110592, Note_on_c, 2, 77, 105
4, 110784, Note_off_c, 2, 72, 0
4, 110784, Note_off_c, 2, 77, 0
4, 110784, Note_on_c, 2, 65, 105
4, 110976, Note_off_c, 2, 65, 0
4, 110976, Note_on_c, 2, 67, 105
4, 111168, Note_off_c, 2, 67, 0
4, 111168, Note_on_c, 2, 69, 105
4, 111360, Note_off_c, 2, 69, 0
4, 111360, Note_on_c, 2, 70, 105
4, 111552, Note_off_c, 2, 70, 0
4, 111552, Note_on_c, 2, 72, 105
4, 111744, Note_off_c, 2, 72, 0
4, 111744, Note_on_c, 2, 70, 105
4, 111936, Note_off_c, 2, 70, 0
4, 111936, Note_on_c, 2, 65, 105
4, 112128, Note_off_c, 2, 65, 0
4, 112128, Note_on_c, 2, 67, 105
4, 112320, Note_off_c, 2, 67, 0
4, 112320, Note_on_c, 2, 69, 105
4, 112512, Note_off_c, 2, 69, 0
4, 112512, Note_on_c, 2, 70, 105
4, 112704, Note_off_c, 2, 70, 0
4, 112704, Note_on_c, 2, 74, 105
4, 112896, Note_off_c, 2, 74, 0
4, 112896, Note_on_c, 2, 75, 105
4, 113280, Note_off_c, 2, 75, 0
4, 113472, Note_on_c, 2, 65, 105
4, 113856, Note_off_c, 2, 65, 0
4, 113856, Note_on_c, 2, 65, 105
4, 114048, Note_off_c, 2, 65, 0
4, 114048, Note_on_c, 2, 63, 105
4, 114240, Note_off_c, 2, 63, 0
4, 114624, Note_on_c, 2, 63, 105
4, 115200, Note_off_c, 2, 63, 0
4, 115200, Note_on_c, 2, 65, 105
4, 115392, Note_off_c, 2, 65, 0
4, 115584, Note_on_c, 2, 65, 105
4, 115776, Note_off_c, 2, 65, 0
4, 115776, Note_on_c, 2, 62, 105
4, 115968, Note_off_c, 2, 62, 0
4, 116160, Note_on_c, 2, 67, 105
4, 116352, Note_off_c, 2, 67, 0
4, 116352, Note_on_c, 2, 65, 105
4, 116544, Note_off_c, 2, 65, 0
4, 116544, Note_on_c, 2, 60, 105
4, 116736, Note_off_c, 2, 60, 0
4, 116736, Note_on_c, 2, 62, 105
4, 116928, Note_off_c, 2, 62, 0
4, 116928, Note_on_c, 2, 63, 105
4, 117120, Note_off_c, 2, 63, 0
4, 117120, Note_on_c, 2, 65, 105
4, 117312, Note_off_c, 2, 65, 0
4, 117312, Note_on_c, 2, 69, 105
4, 117504, Note_off_c, 2, 69, 0
4, 117504, Note_on_c, 2, 70, 105
4, 117696, Note_off_c, 2, 70, 0
4, 117696, Note_on_c, 2, 72, 105
4, 117888, Note_off_c, 2, 72, 0
4, 117888, Note_on_c, 2, 69, 105
4, 118272, Note_off_c, 2, 69, 0
4, 118272, Note_on_c, 2, 70, 105
4, 118464, Note_off_c, 2, 70, 0
4, 118464, Note_on_c, 2, 65, 105
4, 118848, Note_off_c, 2, 65, 0
4, 118848, Note_on_c, 2, 67, 105
4, 119040, Note_off_c, 2, 67, 0
4, 119040, Note_on_c, 2, 63, 105
4, 119424, Note_off_c, 2, 63, 0
4, 119424, Note_on_c, 2, 63, 105
4, 119616, Note_off_c, 2, 63, 0
4, 119616, Note_on_c, 2, 60, 105
4, 119808, Note_off_c, 2, 60, 0
4, 119808, Note_on_c, 2, 58, 105
4, 120192, Note_off_c, 2, 58, 0
4, 120192, Note_on_c, 2, 60, 105
4, 120384, Note_off_c, 2, 60, 0
4, 120384, Note_on_c, 2, 63, 105
4, 120576, Note_off_c, 2, 63, 0
4, 120576, Note_on_c, 2, 62, 105
4, 120768, Note_off_c, 2, 62, 0
4, 120768, Note_on_c, 2, 60, 105
4, 121152, Note_off_c, 2, 60, 0
4, 121152, Note_on_c, 2, 62, 105
4, 121536, Note_off_c, 2, 62, 0
4, 121536, Note_on_c, 2, 63, 105
4, 121920, Note_off_c, 2, 63, 0
4, 121920, Note_on_c, 2, 57, 105
4, 122112, Note_off_c, 2, 57, 0
4, 122112, Note_on_c, 2, 58, 105
4, 122688, Note_off_c, 2, 58, 0
4, 122688, Note_on_c, 2, 65, 105
4, 123072, Note_off_c, 2, 65, 0
4, 123072, Note_on_c, 2, 63, 105
4, 123264, Note_off_c, 2, 63, 0
4, 123264, Note_on_c, 2, 62, 105
4, 123456, Note_off_c, 2, 62, 0
4, 123456, Note_on_c, 2, 65, 105
4, 123648, Note_off_c, 2, 65, 0
4, 123648, Note_on_c, 2, 63, 105
4, 123840, Note_off_c, 2, 63, 0
4, 123840, Note_on_c, 2, 65, 105
4, 124032, Note_off_c, 2, 65, 0
4, 124032, Note_on_c, 2, 67, 105
4, 124224, Note_off_c, 2, 67, 0
4, 124224, Note_on_c, 2, 68, 105
4, 124608, Note_off_c, 2, 68, 0
4, 124608, Note_on_c, 2, 67, 105
4, 124608, Note_on_c, 2, 70, 105
4, 124800, Note_off_c, 2, 67, 0
4, 124800, Note_off_c, 2, 70, 0
4, 124800, Note_on_c, 2, 65, 105
4, 124800, Note_on_c, 2, 68, 105
4, 124992, Note_off_c, 2, 65, 0
4, 124992, Note_off_c, 2, 68, 0
4, 124992, Note_on_c, 2, 63, 105
4, 124992, Note_on_c, 2, 67, 105
4, 125376, Note_off_c, 2, 63, 0
4, 125376, Note_off_c, 2, 67, 0
4, 125376, Note_on_c, 2, 62, 105
4, 125376, Note_on_c, 2, 67, 105
4, 125568, Note_off_c, 2, 62, 0
4, 125568, Note_off_c, 2, 67, 0
4, 125568, Note_on_c, 2, 60, 105
4, 125568, Note_on_c, 2, 65, 105
4, 125952, Note_off_c, 2, 60, 0
4, 125952, Note_off_c, 2, 65, 0
4, 125952, Note_on_c, 2, 62, 105
4, 125952, Note_on_c, 2, 65, 105
4, 126144, Note_off_c, 2, 62, 0
4, 126144, Note_off_c, 2, 65, 0
4, 126144, Note_on_c, 2, 65, 105
4, 126144, Note_on_c, 2, 68, 105
4, 126336, Note_off_c, 2, 65, 0
4, 126336, Note_off_c, 2, 68, 0
4, 126336, Note_on_c, 2, 70, 105
4, 126528, Note_off_c, 2, 70, 0
4, 126528, Note_on_c, 2, 68, 105
4, 126528, Note_on_c, 2, 72, 105
4, 126720, Note_off_c, 2, 68, 0
4, 126720, Note_on_c, 2, 65, 105
4, 126912, Note_off_c, 2, 72, 0
4, 126912, Note_off_c, 2, 65, 0
4, 126912, Note_on_c, 2, 70, 105
4, 127104, Note_off_c, 2, 70, 0
4, 127104, Note_on_c, 2, 63, 105
4, 127104, Note_on_c, 2, 69, 105
4, 127296, Note_off_c, 2, 63, 0
4, 127296, Note_off_c, 2, 69, 0
4, 127296, Note_on_c, 2, 62, 84
4, 127680, Note_off_c, 2, 62, 0
4, 127680, Note_on_c, 2, 60, 84
4, 127872, Note_off_c, 2, 60, 0
4, 127872, Note_on_c, 2, 58, 84
4, 128256, Note_off_c, 2, 58, 0
4, 128256, Note_on_c, 2, 60, 84
4, 128448, Note_off_c, 2, 60, 0
4, 128448, Note_on_c, 2, 62, 84
4, 128640, Note_off_c, 2, 62, 0
4, 128640, Note_on_c, 2, 65, 84
4, 128832, Note_off_c, 2, 65, 0
4, 128832, Note_on_c, 2, 63, 84
4, 129024, Note_off_c, 2, 63, 0
4, 129024, Note_on_c, 2, 58, 84
4, 129792, Note_off_c, 2, 58, 0
4, 129792, Note_on_c, 2, 62, 84
4, 129984, Note_off_c, 2, 62, 0
4, 129984, Note_on_c, 2, 63, 84
4, 130176, Note_off_c, 2, 63, 0
4, 130176, Note_on_c, 2, 63, 84
4, 130944, Note_off_c, 2, 63, 0
4, 130944, Note_on_c, 2, 60, 84
4, 131136, Note_off_c, 2, 60, 0
4, 131136, Note_on_c, 2, 62, 84
4, 131328, Note_off_c, 2, 62, 0
4, 131328, Note_on_c, 2, 62, 84
4, 132096, Note_off_c, 2, 62, 0
4, 132096, Note_on_c, 2, 58, 84
4, 132288, Note_off_c, 2, 58, 0
4, 132288, Note_on_c, 2, 60, 84
4, 132480, Note_off_c, 2, 60, 0
4, 132480, Note_on_c, 2, 69, 84
4, 132864, Note_off_c, 2, 69, 0
4, 132864, Note_on_c, 2, 60, 84
4, 133056, Note_off_c, 2, 60, 0
4, 133056, Note_on_c, 2, 60, 84
4, 133248, Note_off_c, 2, 60, 0
4, 133248, Note_on_c, 2, 58, 84
4, 133440, Note_off_c, 2, 58, 0
4, 133440, Note_on_c, 2, 55, 84
4, 133440, Note_on_c, 2, 58, 84
4, 133632, Note_off_c, 2, 55, 0
4, 133632, Note_off_c, 2, 58, 0
4, 133632, Note_on_c, 2, 58, 84
4, 134016, Note_off_c, 2, 58, 0
4, 134016, Note_on_c, 2, 57, 84
4, 134208, Note_off_c, 2, 57, 0
4, 134208, Note_on_c, 2, 69, 127
4, 134592, Note_off_c, 2, 69, 0
4, 134592, Note_on_c, 2, 67, 127
4, 134784, Note_off_c, 2, 67, 0
4, 134784, Note_on_c, 2, 65, 127
4, 135168, Note_off_c, 2, 65, 0
4, 135168, Note_on_c, 2, 67, 127
4, 135360, Note_off_c, 2, 67, 0
4, 135360, Note_on_c, 2, 69, 127
4, 135552, Note_off_c, 2, 69, 0
4, 135552, Note_on_c, 2, 70, 127
4, 135744, Note_off_c, 2, 70, 0
4, 135744, Note_on_c, 2, 72, 127
4, 136128, Note_off_c, 2, 72, 0
4, 136128, Note_on_c, 2, 70, 127
4, 136320, Note_off_c, 2, 70, 0
4, 136320, Note_on_c, 2, 69, 127
4, 136512, Note_off_c, 2, 69, 0
4, 136512, Note_on_c, 2, 70, 84
4, 136704, Note_off_c, 2, 70, 0
4, 136704, Note_on_c, 2, 65, 84
4, 136896, Note_off_c, 2, 65, 0
4, 136896, Note_on_c, 2, 67, 84
4, 137088, Note_off_c, 2, 67, 0
4, 137088, Note_on_c, 2, 69, 84
4, 137472, Note_off_c, 2, 69, 0
4, 137472, Note_on_c, 2, 70, 84
4, 137664, Note_off_c, 2, 70, 0
4, 137664, Note_on_c, 2, 72, 84
4, 137760, Note_off_c, 2, 72, 0
4, 137760, Note_on_c, 2, 74, 84
4, 137856, Note_off_c, 2, 74, 0
4, 137856, Note_on_c, 2, 75, 84
4, 138048, Note_off_c, 2, 75, 0
4, 138048, Note_on_c, 2, 69, 84
4, 138240, Note_off_c, 2, 69, 0
4, 138240, Note_on_c, 2, 62, 127
4, 138432, Note_off_c, 2, 62, 0
4, 138432, Note_on_c, 2, 65, 127
4, 138624, Note_off_c, 2, 65, 0
4, 138624, Note_on_c, 2, 63, 127
4, 138816, Note_off_c, 2, 63, 0
4, 138816, Note_on_c, 2, 62, 127
4, 139200, Note_off_c, 2, 62, 0
4, 139200, Note_on_c, 2, 60, 127
4, 139392, Note_off_c, 2, 60, 0
4, 139392, Note_on_c, 2, 58, 127
4, 139776, Note_off_c, 2, 58, 0
4, 139776, Note_on_c, 2, 60, 127
4, 139968, Note_off_c, 2, 60, 0
4, 139968, Note_on_c, 2, 62, 127
4, 140160, Note_off_c, 2, 62, 0
4, 140160, Note_on_c, 2, 63, 127
4, 140352, Note_off_c, 2, 63, 0
4, 140352, Note_on_c, 2, 65, 127
4, 140736, Note_off_c, 2, 65, 0
4, 140736, Note_on_c, 2, 63, 127
4, 140928, Note_off_c, 2, 63, 0
4, 140928, Note_on_c, 2, 62, 127
4, 141120, Note_off_c, 2, 62, 0
4, 141120, Note_on_c, 2, 63, 84
4, 141312, Note_off_c, 2, 63, 0
4, 141312, Note_on_c, 2, 58, 84
4, 141504, Note_off_c, 2, 58, 0
4, 141504, Note_on_c, 2, 60, 84
4, 141696, Note_off_c, 2, 60, 0
4, 141696, Note_on_c, 2, 62, 84
4, 142080, Note_off_c, 2, 62, 0
4, 142080, Note_on_c, 2, 63, 84
4, 142272, Note_off_c, 2, 63, 0
4, 142272, Note_on_c, 2, 65, 84
4, 142368, Note_off_c, 2, 65, 0
4, 142368, Note_on_c, 2, 67, 84
4, 142464, Note_off_c, 2, 67, 0
4, 142464, Note_on_c, 2, 69, 84
4, 142656, Note_off_c, 2, 69, 0
4, 142656, Note_on_c, 2, 62, 84
4, 142848, Note_off_c, 2, 62, 0
4, 142848, Note_on_c, 2, 55, 84
4, 143616, Note_off_c, 2, 55, 0
4, 143616, Note_on_c, 2, 67, 84
4, 143808, Note_off_c, 2, 67, 0
4, 143808, Note_on_c, 2, 65, 84
4, 144000, Note_off_c, 2, 65, 0
4, 144000, Note_on_c, 2, 63, 84
4, 144000, Note_on_c, 2, 67, 84
4, 144384, Note_off_c, 2, 63, 0
4, 144384, Note_off_c, 2, 67, 0
4, 144384, Note_on_c, 2, 65, 84
4, 144576, Note_off_c, 2, 65, 0
4, 144576, Note_on_c, 2, 63, 84
4, 144768, Note_off_c, 2, 63, 0
4, 144768, Note_on_c, 2, 74, 84
4, 144960, Note_off_c, 2, 74, 0
4, 144960, Note_on_c, 2, 75, 84
4, 145152, Note_off_c, 2, 75, 0
4, 145152, Note_on_c, 2, 67, 84
4, 145920, Note_off_c, 2, 67, 0
4, 145920, Note_on_c, 2, 63, 84
4, 146112, Note_off_c, 2, 63, 0
4, 146112, Note_on_c, 2, 65, 84
4, 146304, Note_off_c, 2, 65, 0
4, 146304, Note_on_c, 2, 74, 84
4, 146496, Note_off_c, 2, 74, 0
4, 146496, Note_on_c, 2, 75, 84
4, 146688, Note_off_c, 2, 75, 0
4, 146688, Note_on_c, 2, 65, 84
4, 147072, Note_off_c, 2, 65, 0
4, 147072, Note_on_c, 2, 63, 84
4, 147264, Note_off_c, 2, 63, 0
4, 147264, Note_on_c, 2, 60, 84
4, 147264, Note_on_c, 2, 63, 84
4, 147456, Note_off_c, 2, 60, 0
4, 147456, Note_off_c, 2, 63, 0
4, 147456, Note_on_c, 2, 65, 84
4, 147504, Note_off_c, 2, 65, 0
4, 147504, Note_on_c, 2, 63, 84
4, 147552, Note_off_c, 2, 63, 0
4, 147552, Note_on_c, 2, 65, 84
4, 147600, Note_off_c, 2, 65, 0
4, 147600, Note_on_c, 2, 63, 84
4, 147648, Note_off_c, 2, 63, 0
4, 147648, Note_on_c, 2, 65, 84
4, 147696, Note_off_c, 2, 65, 0
4, 147696, Note_on_c, 2, 63, 84
4, 147840, Note_off_c, 2, 63, 0
4, 147840, Note_on_c, 2, 62, 84
4, 148032, Note_off_c, 2, 62, 0
4, 148032, Note_on_c, 2, 65, 84
4, 148416, Note_off_c, 2, 65, 0
4, 148416, Note_on_c, 2, 68, 84
4, 148608, Note_off_c, 2, 68, 0
4, 148608, Note_on_c, 2, 62, 84
4, 148992, Note_off_c, 2, 62, 0
4, 148992, Note_on_c, 2, 62, 84
4, 149184, Note_off_c, 2, 62, 0
4, 149184, Note_on_c, 2, 62, 84
4, 149568, Note_off_c, 2, 62, 0
4, 149568, Note_on_c, 2, 62, 84
4, 149760, Note_off_c, 2, 62, 0
4, 149760, Note_on_c, 2, 60, 84
4, 150144, Note_off_c, 2, 60, 0
4, 150144, Note_on_c, 2, 65, 84
4, 150336, Note_off_c, 2, 65, 0
4, 150336, Note_on_c, 2, 67, 84
4, 150912, Note_off_c, 2, 67, 0
4, 150912, Note_on_c, 2, 65, 84
4, 151296, Note_off_c, 2, 65, 0
4, 151296, Note_on_c, 2, 65, 84
4, 151488, Note_off_c, 2, 65, 0
4, 151488, Note_on_c, 2, 60, 84
4, 152064, Note_off_c, 2, 60, 0
4, 152448, Note_on_c, 2, 65, 84
4, 152640, Note_off_c, 2, 65, 0
4, 152640, Note_on_c, 2, 63, 84
4, 152832, Note_off_c, 2, 63, 0
4, 152832, Note_on_c, 2, 62, 84
4, 153024, Note_off_c, 2, 62, 0
4, 153024, Note_on_c, 2, 63, 84
4, 153216, Note_off_c, 2, 63, 0
4, 156672, Note_on_c, 2, 57, 84
4, 156864, Note_off_c, 2, 57, 0
4, 156864, Note_on_c, 2, 60, 84
4, 157056, Note_off_c, 2, 60, 0
4, 157056, Note_on_c, 2, 62, 84
4, 157248, Note_off_c, 2, 62, 0
4, 157248, Note_on_c, 2, 57, 84
4, 157440, Note_off_c, 2, 57, 0
4, 157440, Note_on_c, 2, 58, 84
4, 157632, Note_off_c, 2, 58, 0
4, 157632, Note_on_c, 2, 62, 84
4, 157824, Note_off_c, 2, 62, 0
4, 157824, Note_on_c, 2, 63, 84
4, 158016, Note_off_c, 2, 63, 0
4, 158016, Note_on_c, 2, 65, 84
4, 158208, Note_off_c, 2, 65, 0
4, 158208, Note_on_c, 2, 58, 84
4, 158400, Note_off_c, 2, 58, 0
4, 158400, Note_on_c, 2, 58, 84
4, 158592, Note_off_c, 2, 58, 0
4, 158592, Note_on_c, 2, 57, 84
4, 158976, Note_off_c, 2, 57, 0
4, 159552, Note_on_c, 2, 62, 84
4, 160128, Note_off_c, 2, 62, 0
4, 160128, Note_on_c, 2, 63, 84
4, 160704, Note_off_c, 2, 63, 0
4, 160704, Note_on_c, 2, 62, 84
4, 161280, Note_off_c, 2, 62, 0
4, 161280, Note_on_c, 2, 63, 84
4, 161664, Note_off_c, 2, 63, 0
4, 161664, Note_on_c, 2, 67, 84
4, 161856, Note_off_c, 2, 67, 0
4, 161856, Note_on_c, 2, 65, 84
4, 162048, Note_off_c, 2, 65, 0
4, 162240, Note_on_c, 2, 65, 84
4, 162432, Note_off_c, 2, 65, 0
4, 162432, Note_on_c, 2, 63, 84
4, 162624, Note_off_c, 2, 63, 0
4, 162816, Note_on_c, 2, 63, 84
4, 163008, Note_off_c, 2, 63, 0
4, 163008, Note_on_c, 2, 63, 84
4, 163200, Note_off_c, 2, 63, 0
4, 163392, Note_on_c, 2, 63, 84
4, 163584, Note_off_c, 2, 63, 0
4, 164160, Note_on_c, 2, 62, 105
4, 164544, Note_off_c, 2, 62, 0
4, 164544, Note_on_c, 2, 60, 105
4, 164736, Note_off_c, 2, 60, 0
4, 164736, Note_on_c, 2, 58, 105
4, 165120, Note_off_c, 2, 58, 0
4, 165120, Note_on_c, 2, 60, 105
4, 165312, Note_off_c, 2, 60, 0
4, 165312, Note_on_c, 2, 62, 105
4, 165504, Note_off_c, 2, 62, 0
4, 165504, Note_on_c, 2, 63, 105
4, 165696, Note_off_c, 2, 63, 0
4, 165696, Note_on_c, 2, 63, 105
4, 165888, Note_off_c, 2, 63, 0
4, 165888, Note_on_c, 2, 65, 127
4, 166656, Note_off_c, 2, 65, 0
4, 166656, Note_on_c, 2, 65, 127
4, 166848, Note_off_c, 2, 65, 0
4, 166848, Note_on_c, 2, 67, 127
4, 167040, Note_off_c, 2, 67, 0
4, 167040, Note_on_c, 2, 63, 127
4, 167808, Note_off_c, 2, 63, 0
4, 167808, Note_on_c, 2, 60, 127
4, 168000, Note_off_c, 2, 60, 0
4, 168000, Note_on_c, 2, 62, 127
4, 168192, Note_off_c, 2, 62, 0
4, 168192, Note_on_c, 2, 65, 127
4, 168960, Note_off_c, 2, 65, 0
4, 168960, Note_on_c, 2, 65, 127
4, 169152, Note_off_c, 2, 65, 0
4, 169152, Note_on_c, 2, 67, 127
4, 169344, Note_off_c, 2, 67, 0
4, 169344, Note_on_c, 2, 63, 127
4, 170112, Note_off_c, 2, 63, 0
4, 170112, Note_on_c, 2, 60, 127
4, 170304, Note_off_c, 2, 60, 0
4, 170304, Note_on_c, 2, 62, 127
4, 170496, Note_off_c, 2, 62, 0
4, 170496, Note_on_c, 2, 62, 127
4, 171264, Note_off_c, 2, 62, 0
4, 171264, Note_on_c, 2, 58, 127
4, 171456, Note_off_c, 2, 58, 0
4, 171456, Note_on_c, 2, 60, 127
4, 171648, Note_off_c, 2, 60, 0
4, 171648, Note_on_c, 2, 69, 127
4, 171840, Note_off_c, 2, 69, 0
4, 171840, Note_on_c, 2, 70, 127
4, 172032, Note_off_c, 2, 70, 0
4, 172032, Note_on_c, 2, 60, 127
4, 172224, Note_on_c, 2, 63, 127
4, 172416, Note_off_c, 2, 60, 0
4, 172416, Note_off_c, 2, 63, 0
4, 172416, Note_on_c, 2, 58, 127
4, 172608, Note_off_c, 2, 58, 0
4, 172608, Note_on_c, 2, 58, 127
4, 172800, Note_off_c, 2, 58, 0
4, 172800, Note_on_c, 2, 60, 127
4, 172848, Note_off_c, 2, 60, 0
4, 172848, Note_on_c, 2, 58, 127
4, 172896, Note_off_c, 2, 58, 0
4, 172896, Note_on_c, 2, 60, 127
4, 172944, Note_off_c, 2, 60, 0
4, 172944, Note_on_c, 2, 58, 127
4, 172992, Note_off_c, 2, 58, 0
4, 172992, Note_on_c, 2, 60, 127
4, 173040, Note_off_c, 2, 60, 0
4, 173040, Note_on_c, 2, 58, 127
4, 173184, Note_off_c, 2, 58, 0
4, 173184, Note_on_c, 2, 57, 127
4, 173376, Note_off_c, 2, 57, 0
4, 173376, Note_on_c, 2, 69, 127
4, 173568, Note_off_c, 2, 69, 0
4, 173568, Note_on_c, 2, 72, 127
4, 173760, Note_off_c, 2, 72, 0
4, 173760, Note_on_c, 2, 69, 127
4, 173952, Note_off_c, 2, 69, 0
4, 173952, Note_on_c, 2, 65, 127
4, 174144, Note_off_c, 2, 65, 0
4, 174144, Note_on_c, 2, 69, 127
4, 174336, Note_off_c, 2, 69, 0
4, 174336, Note_on_c, 2, 60, 127
4, 174528, Note_off_c, 2, 60, 0
4, 174528, Note_on_c, 2, 69, 127
4, 174720, Note_off_c, 2, 69, 0
4, 174720, Note_on_c, 2, 72, 127
4, 174912, Note_off_c, 2, 72, 0
4, 174912, Note_on_c, 2, 75, 127
4, 175104, Note_off_c, 2, 75, 0
4, 175104, Note_on_c, 2, 60, 127
4, 175296, Note_off_c, 2, 60, 0
4, 175296, Note_on_c, 2, 65, 127
4, 175488, Note_off_c, 2, 65, 0
4, 175488, Note_on_c, 2, 57, 127
4, 175680, Note_off_c, 2, 57, 0
4, 175680, Note_on_c, 2, 65, 127
4, 176256, Note_off_c, 2, 65, 0
4, 176256, Note_on_c, 2, 62, 127
4, 176448, Note_off_c, 2, 62, 0
4, 176448, Note_on_c, 2, 65, 127
4, 176640, Note_off_c, 2, 65, 0
4, 176640, Note_on_c, 2, 62, 127
4, 176832, Note_off_c, 2, 62, 0
4, 176832, Note_on_c, 2, 65, 127
4, 177408, Note_off_c, 2, 65, 0
4, 177408, Note_on_c, 2, 62, 127
4, 177600, Note_off_c, 2, 62, 0
4, 177600, Note_on_c, 2, 62, 127
4, 177792, Note_off_c, 2, 62, 0
4, 177792, Note_on_c, 2, 58, 127
4, 177792, Note_on_c, 2, 62, 127
4, 177984, Note_off_c, 2, 58, 0
4, 177984, Note_off_c, 2, 62, 0
4, 177984, Note_on_c, 2, 58, 127
4, 177984, Note_on_c, 2, 63, 127
4, 178368, Note_off_c, 2, 58, 0
4, 178368, Note_off_c, 2, 63, 0
4, 178560, Note_on_c, 2, 58, 127
4, 178944, Note_off_c, 2, 58, 0
4, 179136, Note_on_c, 2, 57, 127
4, 179520, Note_off_c, 2, 57, 0
4, 179712, Note_on_c, 2, 70, 127
4, 180288, Note_off_c, 2, 70, 0
4, 180288, Note_on_c, 2, 60, 127
4, 180864, Note_off_c, 2, 60, 0
4, 180864, Note_on_c, 2, 60, 127
4, 181440, Note_off_c, 2, 60, 0
4, 181440, Note_on_c, 2, 60, 127
4, 182016, Note_off_c, 2, 60, 0
4, 182016, Note_on_c, 2, 60, 127
4, 182208, Note_off_c, 2, 60, 0
4, 182208, Note_on_c, 2, 60, 127
4, 182208, Note_on_c, 2, 63, 127
4, 182400, Note_off_c, 2, 60, 0
4, 182400, Note_off_c, 2, 63, 0
4, 182400, Note_on_c, 2, 58, 127
4, 182400, Note_on_c, 2, 62, 127
4, 182592, Note_off_c, 2, 58, 0
4, 182592, Note_off_c, 2, 62, 0
4, 182592, Note_on_c, 2, 58, 127
4, 182976, Note_off_c, 2, 58, 0
4, 182976, Note_on_c, 2, 58, 127
4, 183360, Note_off_c, 2, 58, 0
4, 183360, Note_on_c, 2, 62, 127
4, 183552, Note_off_c, 2, 62, 0
4, 183552, Note_on_c, 2, 58, 127
4, 183744, Note_off_c, 2, 58, 0
4, 183744, Note_on_c, 2, 60, 127
4, 183936, Note_off_c, 2, 60, 0
4, 183936, Note_on_c, 2, 58, 127
4, 183984, Note_off_c, 2, 58, 0
4, 183984, Note_on_c, 2, 57, 127
4, 184032, Note_off_c, 2, 57, 0
4, 184032, Note_on_c, 2, 58, 127
4, 184080, Note_off_c, 2, 58, 0
4, 184080, Note_on_c, 2, 57, 127
4, 184128, Note_off_c, 2, 57, 0
4, 184128, Note_on_c, 2, 58, 127
4, 184176, Note_off_c, 2, 58, 0
4, 184176, Note_on_c, 2, 57, 127
4, 184320, Note_off_c, 2, 57, 0
4, 184320, Note_on_c, 2, 58, 127
4, 184704, Note_off_c, 2, 58, 0
4, 184704, End_track
5, 0, Start_track
5, 0, Title_t, "Viola"
5, 0, Control_c, 3, 0, 0
5, 0, Program_c, 3, 41
5, 0, Control_c, 3, 10, 42
5, 0, Key_signature, -2, "major"
5, 0, Control_c, 3, 121, 0
5, 0, Control_c, 3, 7, 127
5, 576, Note_on_c, 3, 58, 75
5, 960, Note_off_c, 3, 58, 0
5, 2112, Note_on_c, 3, 60, 75
5, 2304, Note_off_c, 3, 60, 0
5, 2304, Note_on_c, 3, 62, 75
5, 3072, Note_off_c, 3, 62, 0
5, 3072, Note_on_c, 3, 62, 75
5, 3264, Note_off_c, 3, 62, 0
5, 3264, Note_on_c, 3, 63, 75
5, 3840, Note_off_c, 3, 63, 0
5, 4032, Note_on_c, 3, 62, 75
5, 4224, Note_off_c, 3, 62, 0
5, 4224, Note_on_c, 3, 58, 75
5, 4416, Note_off_c, 3, 58, 0
5, 4416, Note_on_c, 3, 60, 75
5, 4608, Note_off_c, 3, 60, 0
5, 4608, Note_on_c, 3, 53, 75
5, 5184, Note_off_c, 3, 53, 0
5, 6144, Note_on_c, 3, 60, 75
5, 6528, Note_off_c, 3, 60, 0
5, 6528, Note_on_c, 3, 58, 75
5, 6720, Note_off_c, 3, 58, 0
5, 6720, Note_on_c, 3, 55, 75
5, 6912, Note_off_c, 3, 55, 0
5, 6912, Note_on_c, 3, 53, 75
5, 6912, Note_on_c, 3, 58, 75
5, 7296, Note_off_c, 3, 53, 0
5, 7296, Note_off_c, 3, 58, 0
5, 7296, Note_on_c, 3, 53, 75
5, 7296, Note_on_c, 3, 57, 75
5, 7680, Note_off_c, 3, 53, 0
5, 7680, Note_off_c, 3, 57, 0
5, 8640, Note_on_c, 3, 57, 75
5, 8832, Note_off_c, 3, 57, 0
5, 8832, Note_on_c, 3, 62, 75
5, 9024, Note_off_c, 3, 62, 0
5, 9024, Note_on_c, 3, 65, 75
5, 9216, Note_off_c, 3, 65, 0
5, 9216, Note_on_c, 3, 53, 75
5, 9408, Note_off_c, 3, 53, 0
5, 9408, Note_on_c, 3, 60, 75
5, 9600, Note_off_c, 3, 60, 0
5, 9600, Note_on_c, 3, 57, 75
5, 9792, Note_off_c, 3, 57, 0
5, 9792, Note_on_c, 3, 53, 75
5, 10368, Note_off_c, 3, 53, 0
5, 10368, Note_on_c, 3, 58, 75
5, 10752, Note_off_c, 3, 58, 0
5, 10752, Note_on_c, 3, 58, 75
5, 10944, Note_off_c, 3, 58, 0
5, 10944, Note_on_c, 3, 58, 75
5, 11712, Note_off_c, 3, 58, 0
5, 11712, Note_on_c, 3, 62, 75
5, 11904, Note_off_c, 3, 62, 0
5, 11904, Note_on_c, 3, 58, 75
5, 12096, Note_off_c, 3, 58, 0
5, 12096, Note_on_c, 3, 58, 75
5, 12288, Note_off_c, 3, 58, 0
5, 12672, Note_on_c, 3, 58, 75
5, 12864, Note_off_c, 3, 58, 0
5, 13248, Note_on_c, 3, 58, 75
5, 13440, Note_off_c, 3, 58, 0
5, 14016, Note_on_c, 3, 58, 92
5, 14208, Note_off_c, 3, 58, 0
5, 14208, Note_on_c, 3, 62, 92
5, 14400, Note_off_c, 3, 62, 0
5, 14400, Note_on_c, 3, 55, 92
5, 14592, Note_off_c, 3, 55, 0
5, 14784, Note_on_c, 3, 55, 92
5, 14976, Note_off_c, 3, 55, 0
5, 14976, Note_on_c, 3, 57, 92
5, 15168, Note_off_c, 3, 57, 0
5, 15360, Note_on_c, 3, 57, 92
5, 15552, Note_off_c, 3, 57, 0
5, 15552, Note_on_c, 3, 58, 92
5, 15744, Note_off_c, 3, 58, 0
5, 15936, Note_on_c, 3, 58, 92
5, 16128, Note_off_c, 3, 58, 0
5, 16128, Note_on_c, 3, 57, 92
5, 16320, Note_off_c, 3, 57, 0
5, 16320, Note_on_c, 3, 60, 92
5, 16320, Note_on_c, 3, 63, 92
5, 16512, Note_off_c, 3, 60, 0
5, 16512, Note_off_c, 3, 63, 0
5, 16512, Note_on_c, 3, 58, 92
5, 16512, Note_on_c, 3, 62, 92
5, 16704, Note_off_c, 3, 58, 0
5, 16704, Note_off_c, 3, 62, 0
5, 17856, Note_on_c, 3, 55, 92
5, 18048, Note_off_c, 3, 55, 0
5, 18048, Note_on_c, 3, 53, 92
5, 18240, Note_off_c, 3, 53, 0
5, 18240, Note_on_c, 3, 51, 92
5, 18432, Note_off_c, 3, 51, 0
5, 18432, Note_on_c, 3, 50, 92
5, 18816, Note_off_c, 3, 50, 0
5, 18816, Note_on_c, 3, 51, 92
5, 19008, Note_off_c, 3, 51, 0
5, 19008, Note_on_c, 3, 53, 75
5, 19392, Note_off_c, 3, 53, 0
5, 19392, Note_on_c, 3, 57, 75
5, 19584, Note_off_c, 3, 57, 0
5, 19584, Note_on_c, 3, 58, 75
5, 19968, Note_off_c, 3, 58, 0
5, 19968, Note_on_c, 3, 57, 75
5, 20160, Note_off_c, 3, 57, 0
5, 20160, Note_on_c, 3, 58, 75
5, 20544, Note_off_c, 3, 58, 0
5, 22464, Note_on_c, 3, 62, 75
5, 22656, Note_off_c, 3, 62, 0
5, 22656, Note_on_c, 3, 60, 75
5, 22848, Note_off_c, 3, 60, 0
5, 22848, Note_on_c, 3, 58, 75
5, 23040, Note_off_c, 3, 58, 0
5, 23040, Note_on_c, 3, 58, 75
5, 23616, Note_off_c, 3, 58, 0
5, 24192, Note_on_c, 3, 41, 75
5, 24576, Note_off_c, 3, 41, 0
5, 24576, Note_on_c, 3, 53, 75
5, 24768, Note_off_c, 3, 53, 0
5, 24768, Note_on_c, 3, 53, 75
5, 25152, Note_off_c, 3, 53, 0
5, 25152, Note_on_c, 3, 53, 75
5, 25344, Note_off_c, 3, 53, 0
5, 25344, Note_on_c, 3, 53, 75
5, 25728, Note_off_c, 3, 53, 0
5, 25728, Note_on_c, 3, 58, 75
5, 25920, Note_off_c, 3, 58, 0
5, 25920, Note_on_c, 3, 58, 60
5, 26304, Note_off_c, 3, 58, 0
5, 26304, Note_on_c, 3, 57, 60
5, 26496, Note_off_c, 3, 57, 0
5, 26496, Note_on_c, 3, 53, 60
5, 26880, Note_off_c, 3, 53, 0
5, 26880, Note_on_c, 3, 58, 60
5, 27072, Note_off_c, 3, 58, 0
5, 27072, Note_on_c, 3, 58, 60
5, 27456, Note_off_c, 3, 58, 0
5, 27648, Note_on_c, 3, 53, 60
5, 28032, Note_off_c, 3, 53, 0
5, 28032, Note_on_c, 3, 58, 60
5, 28224, Note_off_c, 3, 58, 0
5, 28224, Note_on_c, 3, 57, 60
5, 28608, Note_off_c, 3, 57, 0
5, 29184, Note_on_c, 3, 55, 60
5, 29376, Note_off_c, 3, 55, 0
5, 29376, Note_on_c, 3, 55, 60
5, 29760, Note_off_c, 3, 55, 0
5, 32832, Note_on_c, 3, 53, 92
5, 33024, Note_off_c, 3, 53, 0
5, 33024, Note_on_c, 3, 57, 92
5, 33216, Note_off_c, 3, 57, 0
5, 33216, Note_on_c, 3, 58, 92
5, 33408, Note_off_c, 3, 58, 0
5, 33408, Note_on_c, 3, 60, 92
5, 34368, Note_off_c, 3, 60, 0
5, 34368, Note_on_c, 3, 57, 92
5, 34560, Note_off_c, 3, 57, 0
5, 34560, Note_on_c, 3, 53, 92
5, 35136, Note_off_c, 3, 53, 0
5, 35136, Note_on_c, 3, 53, 60
5, 35520, Note_off_c, 3, 53, 0
5, 35520, Note_on_c, 3, 58, 60
5, 35712, Note_off_c, 3, 58, 0
5, 35712, Note_on_c, 3, 60, 60
5, 35904, Note_off_c, 3, 60, 0
5, 35904, Note_on_c, 3, 62, 60
5, 36096, Note_off_c, 3, 62, 0
5, 36096, Note_on_c, 3, 63, 60
5, 36288, Note_off_c, 3, 63, 0
5, 36288, Note_on_c, 3, 63, 60
5, 36480, Note_off_c, 3, 63, 0
5, 36480, Note_on_c, 3, 62, 60
5, 36672, Note_off_c, 3, 62, 0
5, 36672, Note_on_c, 3, 60, 60
5, 36864, Note_off_c, 3, 60, 0
5, 46080, Note_on_c, 3, 58, 60
5, 46656, Note_off_c, 3, 58, 0
5, 47808, Note_on_c, 3, 59, 60
5, 48192, Note_off_c, 3, 59, 0
5, 48192, Note_on_c, 3, 59, 60
5, 48384, Note_off_c, 3, 59, 0
5, 48768, Note_on_c, 3, 62, 60
5, 48960, Note_off_c, 3, 62, 0
5, 48960, Note_on_c, 3, 63, 60
5, 49536, Note_off_c, 3, 63, 0
5, 49536, Note_on_c, 3, 60, 60
5, 49920, Note_off_c, 3, 60, 0
5, 49920, Note_on_c, 3, 60, 60
5, 50112, Note_off_c, 3, 60, 0
5, 50112, Note_on_c, 3, 57, 60
5, 50688, Note_off_c, 3, 57, 0
5, 50688, Note_on_c, 3, 58, 60
5, 52416, Note_off_c, 3, 58, 0
5, 52416, Note_on_c, 3, 58, 60
5, 52800, Note_off_c, 3, 58, 0
5, 52800, Note_on_c, 3, 57, 60
5, 52992, Note_off_c, 3, 57, 0
5, 52992, Note_on_c, 3, 58, 60
5, 55296, Note_off_c, 3, 58, 0
5, 56448, Note_on_c, 3, 58, 60
5, 57024, Note_off_c, 3, 58, 0
5, 57024, Note_on_c, 3, 55, 60
5, 57216, Note_off_c, 3, 55, 0
5, 57216, Note_on_c, 3, 53, 60
5, 57408, Note_off_c, 3, 53, 0
5, 57408, Note_on_c, 3, 51, 60
5, 57600, Note_off_c, 3, 51, 0
5, 57600, Note_on_c, 3, 58, 60
5, 60288, Note_off_c, 3, 58, 0
5, 60288, Note_on_c, 3, 58, 60
5, 60480, Note_off_c, 3, 58, 0
5, 62016, Note_on_c, 3, 57, 60
5, 62208, Note_off_c, 3, 57, 0
5, 62784, Note_on_c, 3, 57, 75
5, 63168, Note_off_c, 3, 57, 0
5, 63168, Note_on_c, 3, 55, 75
5, 63360, Note_off_c, 3, 55, 0
5, 64320, Note_on_c, 3, 60, 75
5, 64512, Note_off_c, 3, 60, 0
5, 64512, Note_on_c, 3, 62, 92
5, 65280, Note_off_c, 3, 62, 0
5, 65280, Note_on_c, 3, 62, 92
5, 65472, Note_off_c, 3, 62, 0
5, 65472, Note_on_c, 3, 63, 92
5, 65664, Note_off_c, 3, 63, 0
5, 66816, Note_on_c, 3, 58, 92
5, 67584, Note_off_c, 3, 58, 0
5, 82368, Note_on_c, 3, 55, 92
5, 82560, Note_off_c, 3, 55, 0
5, 82560, Note_on_c, 3, 53, 92
5, 82752, Note_off_c, 3, 53, 0
5, 82752, Note_on_c, 3, 51, 92
5, 82944, Note_off_c, 3, 51, 0
5, 88704, Note_on_c, 3, 63, 92
5, 88896, Note_off_c, 3, 63, 0
5, 88896, Note_on_c, 3, 62, 92
5, 89088, Note_off_c, 3, 62, 0
5, 89088, Note_on_c, 3, 62, 92
5, 89280, Note_off_c, 3, 62, 0
5, 89664, Note_on_c, 3, 63, 92
5, 89856, Note_off_c, 3, 63, 0
5, 89856, Note_on_c, 3, 62, 92
5, 90048, Note_off_c, 3, 62, 0
5, 90432, Note_on_c, 3, 54, 92
5, 90624, Note_off_c, 3, 54, 0
5, 90624, Note_on_c, 3, 57, 92
5, 90816, Note_off_c, 3, 57, 0
5, 90816, Note_on_c, 3, 58, 92
5, 91008, Note_off_c, 3, 58, 0
5, 91008, Note_on_c, 3, 62, 92
5, 91200, Note_off_c, 3, 62, 0
5, 91200, Note_on_c, 3, 60, 92
5, 91392, Note_off_c, 3, 60, 0
5, 91392, Note_on_c, 3, 58, 92
5, 91584, Note_off_c, 3, 58, 0
5, 91584, Note_on_c, 3, 54, 92
5, 91584, Note_on_c, 3, 57, 92
5, 91968, Note_off_c, 3, 54, 0
5, 91968, Note_off_c, 3, 57, 0
5, 91968, Note_on_c, 3, 55, 92
5, 91968, Note_on_c, 3, 58, 92
5, 92160, Note_off_c, 3, 55, 0
5, 92160, Note_off_c, 3, 58, 0
5, 92160, Note_on_c, 3, 57, 92
5, 92160, Note_on_c, 3, 62, 92
5, 92544, Note_off_c, 3, 57, 0
5, 92544, Note_off_c, 3, 62, 0
5, 92928, Note_on_c, 3, 62, 92
5, 93120, Note_off_c, 3, 62, 0
5, 93120, Note_on_c, 3, 63, 92
5, 93312, Note_off_c, 3, 63, 0
5, 93312, Note_on_c, 3, 67, 92
5, 93504, Note_off_c, 3, 67, 0
5, 93504, Note_on_c, 3, 65, 92
5, 93696, Note_off_c, 3, 65, 0
5, 93696, Note_on_c, 3, 63, 92
5, 93888, Note_off_c, 3, 63, 0
5, 93888, Note_on_c, 3, 62, 92
5, 94080, Note_off_c, 3, 62, 0
5, 94080, Note_on_c, 3, 60, 92
5, 94272, Note_off_c, 3, 60, 0
5, 94272, Note_on_c, 3, 62, 92
5, 94464, Note_off_c, 3, 62, 0
5, 94464, Note_on_c, 3, 60, 92
5, 94848, Note_off_c, 3, 60, 0
5, 95040, Note_on_c, 3, 59, 92
5, 95232, Note_off_c, 3, 59, 0
5, 95232, Note_on_c, 3, 60, 92
5, 95424, Note_off_c, 3, 60, 0
5, 95424, Note_on_c, 3, 59, 92
5, 95616, Note_off_c, 3, 59, 0
5, 95616, Note_on_c, 3, 60, 92
5, 96000, Note_off_c, 3, 60, 0
5, 96000, Note_on_c, 3, 50, 92
5, 96192, Note_off_c, 3, 50, 0
5, 96192, Note_on_c, 3, 60, 92
5, 96384, Note_off_c, 3, 60, 0
5, 96384, Note_on_c, 3, 58, 92
5, 96576, Note_off_c, 3, 58, 0
5, 96576, Note_on_c, 3, 57, 92
5, 96768, Note_off_c, 3, 57, 0
5, 96768, Note_on_c, 3, 58, 92
5, 96960, Note_off_c, 3, 58, 0
5, 96960, Note_on_c, 3, 57, 92
5, 97152, Note_off_c, 3, 57, 0
5, 97152, Note_on_c, 3, 55, 92
5, 97344, Note_off_c, 3, 55, 0
5, 101952, Note_on_c, 3, 58, 60
5, 102336, Note_off_c, 3, 58, 0
5, 102336, Note_on_c, 3, 57, 60
5, 102528, Note_off_c, 3, 57, 0
5, 102528, Note_on_c, 3, 55, 60
5, 102912, Note_off_c, 3, 55, 0
5, 102912, Note_on_c, 3, 57, 60
5, 103104, Note_off_c, 3, 57, 0
5, 103104, Note_on_c, 3, 58, 60
5, 103296, Note_off_c, 3, 58, 0
5, 103296, Note_on_c, 3, 64, 60
5, 103488, Note_off_c, 3, 64, 0
5, 103488, Note_on_c, 3, 60, 60
5, 103680, Note_off_c, 3, 60, 0
5, 103680, Note_on_c, 3, 62, 60
5, 104064, Note_off_c, 3, 62, 0
5, 104064, Note_on_c, 3, 63, 60
5, 104256, Note_off_c, 3, 63, 0
5, 104256, Note_on_c, 3, 65, 60
5, 104448, Note_off_c, 3, 65, 0
5, 104448, Note_on_c, 3, 63, 60
5, 104640, Note_off_c, 3, 63, 0
5, 104640, Note_on_c, 3, 65, 60
5, 104832, Note_off_c, 3, 65, 0
5, 104832, Note_on_c, 3, 63, 60
5, 105024, Note_off_c, 3, 63, 0
5, 105024, Note_on_c, 3, 63, 60
5, 105216, Note_off_c, 3, 63, 0
5, 105216, Note_on_c, 3, 62, 60
5, 105408, Note_off_c, 3, 62, 0
5, 105408, Note_on_c, 3, 63, 60
5, 105600, Note_off_c, 3, 63, 0
5, 105600, Note_on_c, 3, 63, 60
5, 105792, Note_off_c, 3, 63, 0
5, 105792, Note_on_c, 3, 65, 60
5, 105984, Note_off_c, 3, 65, 0
5, 105984, Note_on_c, 3, 67, 92
5, 106368, Note_off_c, 3, 67, 0
5, 106368, Note_on_c, 3, 65, 92
5, 106560, Note_off_c, 3, 65, 0
5, 106560, Note_on_c, 3, 63, 92
5, 106752, Note_off_c, 3, 63, 0
5, 106752, Note_on_c, 3, 60, 92
5, 106944, Note_off_c, 3, 60, 0
5, 106944, Note_on_c, 3, 54, 92
5, 107136, Note_off_c, 3, 54, 0
5, 107136, Note_on_c, 3, 60, 92
5, 107328, Note_off_c, 3, 60, 0
5, 107328, Note_on_c, 3, 63, 92
5, 107520, Note_off_c, 3, 63, 0
5, 107520, Note_on_c, 3, 62, 92
5, 107712, Note_off_c, 3, 62, 0
5, 107712, Note_on_c, 3, 60, 92
5, 107904, Note_off_c, 3, 60, 0
5, 107904, Note_on_c, 3, 58, 92
5, 107952, Note_off_c, 3, 58, 0
5, 107952, Note_on_c, 3, 57, 92
5, 108000, Note_off_c, 3, 57, 0
5, 108000, Note_on_c, 3, 58, 92
5, 108048, Note_off_c, 3, 58, 0
5, 108048, Note_on_c, 3, 57, 92
5, 108096, Note_off_c, 3, 57, 0
5, 108096, Note_on_c, 3, 58, 92
5, 108144, Note_off_c, 3, 58, 0
5, 108144, Note_on_c, 3, 57, 92
5, 108288, Note_off_c, 3, 57, 0
5, 108288, Note_on_c, 3, 58, 75
5, 108480, Note_off_c, 3, 58, 0
5, 108480, Note_on_c, 3, 62, 75
5, 108672, Note_off_c, 3, 62, 0
5, 109632, Note_on_c, 3, 64, 75
5, 109824, Note_off_c, 3, 64, 0
5, 109824, Note_on_c, 3, 65, 75
5, 110016, Note_off_c, 3, 65, 0
5, 110016, Note_on_c, 3, 67, 75
5, 110208, Note_off_c, 3, 67, 0
5, 110208, Note_on_c, 3, 69, 75
5, 110400, Note_off_c, 3, 69, 0
5, 110400, Note_on_c, 3, 70, 75
5, 110592, Note_off_c, 3, 70, 0
5, 111936, Note_on_c, 3, 62, 75
5, 112128, Note_off_c, 3, 62, 0
5, 112128, Note_on_c, 3, 63, 75
5, 112320, Note_off_c, 3, 63, 0
5, 112320, Note_on_c, 3, 65, 75
5, 112512, Note_off_c, 3, 65, 0
5, 112512, Note_on_c, 3, 67, 75
5, 112704, Note_off_c, 3, 67, 0
5, 112704, Note_on_c, 3, 69, 75
5, 112896, Note_off_c, 3, 69, 0
5, 112896, Note_on_c, 3, 67, 75
5, 113280, Note_off_c, 3, 67, 0
5, 113472, Note_on_c, 3, 60, 75
5, 113856, Note_off_c, 3, 60, 0
5, 113856, Note_on_c, 3, 58, 75
5, 114048, Note_off_c, 3, 58, 0
5, 115200, Note_on_c, 3, 63, 75
5, 115392, Note_off_c, 3, 63, 0
5, 115584, Note_on_c, 3, 62, 75
5, 115776, Note_off_c, 3, 62, 0
5, 115776, Note_on_c, 3, 62, 75
5, 115968, Note_off_c, 3, 62, 0
5, 116160, Note_on_c, 3, 60, 75
5, 116352, Note_off_c, 3, 60, 0
5, 116352, Note_on_c, 3, 60, 75
5, 116544, Note_off_c, 3, 60, 0
5, 116544, Note_on_c, 3, 57, 75
5, 116736, Note_off_c, 3, 57, 0
5, 116736, Note_on_c, 3, 58, 75
5, 116928, Note_off_c, 3, 58, 0
5, 116928, Note_on_c, 3, 60, 75
5, 117120, Note_off_c, 3, 60, 0
5, 117120, Note_on_c, 3, 62, 75
5, 117312, Note_off_c, 3, 62, 0
5, 117312, Note_on_c, 3, 63, 75
5, 117504, Note_off_c, 3, 63, 0
5, 117504, Note_on_c, 3, 65, 75
5, 117696, Note_off_c, 3, 65, 0
5, 117696, Note_on_c, 3, 67, 75
5, 117888, Note_off_c, 3, 67, 0
5, 117888, Note_on_c, 3, 63, 75
5, 118272, Note_off_c, 3, 63, 0
5, 118272, Note_on_c, 3, 65, 75
5, 118464, Note_off_c, 3, 65, 0
5, 118464, Note_on_c, 3, 62, 75
5, 118848, Note_off_c, 3, 62, 0
5, 118848, Note_on_c, 3, 63, 75
5, 119040, Note_off_c, 3, 63, 0
5, 119040, Note_on_c, 3, 60, 75
5, 119424, Note_off_c, 3, 60, 0
5, 119424, Note_on_c, 3, 63, 75
5, 119616, Note_off_c, 3, 63, 0
5, 119616, Note_on_c, 3, 57, 75
5, 119808, Note_off_c, 3, 57, 0
5, 123840, Note_on_c, 3, 62, 75
5, 124032, Note_off_c, 3, 62, 0
5, 124032, Note_on_c, 3, 60, 75
5, 124224, Note_off_c, 3, 60, 0
5, 124224, Note_on_c, 3, 58, 75
5, 124416, Note_off_c, 3, 58, 0
5, 124416, Note_on_c, 3, 58, 75
5, 124992, Note_off_c, 3, 58, 0
5, 125568, Note_on_c, 3, 41, 75
5, 125952, Note_off_c, 3, 41, 0
5, 125952, Note_on_c, 3, 53, 75
5, 126144, Note_off_c, 3, 53, 0
5, 126144, Note_on_c, 3, 53, 75
5, 126528, Note_off_c, 3, 53, 0
5, 126528, Note_on_c, 3, 53, 75
5, 126720, Note_off_c, 3, 53, 0
5, 126720, Note_on_c, 3, 53, 75
5, 127104, Note_off_c, 3, 53, 0
5, 127104, Note_on_c, 3, 58, 75
5, 127296, Note_off_c, 3, 58, 0
5, 127296, Note_on_c, 3, 58, 60
5, 127680, Note_off_c, 3, 58, 0
5, 127680, Note_on_c, 3, 57, 60
5, 127872, Note_off_c, 3, 57, 0
5, 127872, Note_on_c, 3, 53, 60
5, 128256, Note_off_c, 3, 53, 0
5, 128256, Note_on_c, 3, 58, 60
5, 128448, Note_off_c, 3, 58, 0
5, 128448, Note_on_c, 3, 58, 60
5, 128832, Note_off_c, 3, 58, 0
5, 129024, Note_on_c, 3, 53, 60
5, 129408, Note_off_c, 3, 53, 0
5, 129408, Note_on_c, 3, 58, 60
5, 129600, Note_off_c, 3, 58, 0
5, 129600, Note_on_c, 3, 57, 60
5, 129984, Note_off_c, 3, 57, 0
5, 130560, Note_on_c, 3, 55, 60
5, 130752, Note_off_c, 3, 55, 0
5, 130752, Note_on_c, 3, 55, 60
5, 131136, Note_off_c, 3, 55, 0
5, 134208, Note_on_c, 3, 53, 92
5, 134400, Note_off_c, 3, 53, 0
5, 134400, Note_on_c, 3, 57, 92
5, 134592, Note_off_c, 3, 57, 0
5, 134592, Note_on_c, 3, 58, 92
5, 134784, Note_off_c, 3, 58, 0
5, 134784, Note_on_c, 3, 60, 92
5, 135744, Note_off_c, 3, 60, 0
5, 135744, Note_on_c, 3, 57, 92
5, 135936, Note_off_c, 3, 57, 0
5, 135936, Note_on_c, 3, 53, 92
5, 136512, Note_off_c, 3, 53, 0
5, 136512, Note_on_c, 3, 53, 60
5, 136896, Note_off_c, 3, 53, 0
5, 136896, Note_on_c, 3, 58, 60
5, 137088, Note_off_c, 3, 58, 0
5, 137088, Note_on_c, 3, 60, 60
5, 137280, Note_off_c, 3, 60, 0
5, 137280, Note_on_c, 3, 62, 60
5, 137472, Note_off_c, 3, 62, 0
5, 137472, Note_on_c, 3, 63, 60
5, 137664, Note_off_c, 3, 63, 0
5, 137664, Note_on_c, 3, 63, 60
5, 137856, Note_off_c, 3, 63, 0
5, 137856, Note_on_c, 3, 62, 60
5, 138048, Note_off_c, 3, 62, 0
5, 138048, Note_on_c, 3, 60, 60
5, 138240, Note_off_c, 3, 60, 0
5, 147456, Note_on_c, 3, 58, 60
5, 148032, Note_off_c, 3, 58, 0
5, 149184, Note_on_c, 3, 59, 60
5, 149568, Note_off_c, 3, 59, 0
5, 149568, Note_on_c, 3, 59, 60
5, 149760, Note_off_c, 3, 59, 0
5, 150144, Note_on_c, 3, 62, 60
5, 150336, Note_off_c, 3, 62, 0
5, 150336, Note_on_c, 3, 63, 60
5, 150912, Note_off_c, 3, 63, 0
5, 150912, Note_on_c, 3, 60, 60
5, 151296, Note_off_c, 3, 60, 0
5, 151296, Note_on_c, 3, 60, 60
5, 151488, Note_off_c, 3, 60, 0
5, 151488, Note_on_c, 3, 57, 60
5, 152064, Note_off_c, 3, 57, 0
5, 152064, Note_on_c, 3, 58, 60
5, 153792, Note_off_c, 3, 58, 0
5, 153792, Note_on_c, 3, 58, 60
5, 154176, Note_off_c, 3, 58, 0
5, 154176, Note_on_c, 3, 57, 60
5, 154368, Note_off_c, 3, 57, 0
5, 154368, Note_on_c, 3, 58, 60
5, 156672, Note_off_c, 3, 58, 0
5, 157824, Note_on_c, 3, 58, 60
5, 158400, Note_off_c, 3, 58, 0
5, 158400, Note_on_c, 3, 55, 60
5, 158592, Note_off_c, 3, 55, 0
5, 158592, Note_on_c, 3, 53, 60
5, 158784, Note_off_c, 3, 53, 0
5, 158784, Note_on_c, 3, 51, 60
5, 158976, Note_off_c, 3, 51, 0
5, 158976, Note_on_c, 3, 58, 60
5, 161664, Note_off_c, 3, 58, 0
5, 161664, Note_on_c, 3, 58, 60
5, 161856, Note_off_c, 3, 58, 0
5, 163392, Note_on_c, 3, 57, 60
5, 163584, Note_off_c, 3, 57, 0
5, 164160, Note_on_c, 3, 57, 75
5, 164544, Note_off_c, 3, 57, 0
5, 164544, Note_on_c, 3, 55, 75
5, 164736, Note_off_c, 3, 55, 0
5, 165696, Note_on_c, 3, 60, 75
5, 165888, Note_off_c, 3, 60, 0
5, 165888, Note_on_c, 3, 62, 92
5, 166656, Note_off_c, 3, 62, 0
5, 166656, Note_on_c, 3, 62, 92
5, 166848, Note_off_c, 3, 62, 0
5, 166848, Note_on_c, 3, 63, 92
5, 167040, Note_off_c, 3, 63, 0
5, 168192, Note_on_c, 3, 58, 92
5, 168960, Note_off_c, 3, 58, 0
5, 183744, Note_on_c, 3, 55, 92
5, 183936, Note_off_c, 3, 55, 0
5, 183936, Note_on_c, 3, 53, 92
5, 184128, Note_off_c, 3, 53, 0
5, 184128, Note_on_c, 3, 51, 92
5, 184320, Note_off_c, 3, 51, 0
5, 184320, End_track
6, 0, Start_track
6, 0, Title_t, "Cello"
6, 0, Control_c, 4, 0, 0
6, 0, Program_c, 4, 42
6, 0, Control_c, 4, 10, 42
6, 0, Key_signature, -2, "major"
6, 0, Control_c, 4, 121, 0
6, 0, Control_c, 4, 7, 127
6, 0, Note_on_c, 4, 46, 75
6, 384, Note_off_c, 4, 46, 0
6, 384, Note_on_c, 4, 58, 75
6, 576, Note_off_c, 4, 58, 0
6, 576, Note_on_c, 4, 58, 75
6, 960, Note_off_c, 4, 58, 0
6, 960, Note_on_c, 4, 46, 75
6, 1152, Note_off_c, 4, 46, 0
6, 1152, Note_on_c, 4, 46, 75
6, 1536, Note_off_c, 4, 46, 0
6, 1536, Note_on_c, 4, 58, 75
6, 1728, Note_off_c, 4, 58, 0
6, 1728, Note_on_c, 4, 58, 75
6, 2112, Note_off_c, 4, 58, 0
6, 2112, Note_on_c, 4, 46, 75
6, 2304, Note_off_c, 4, 46, 0
6, 2304, Note_on_c, 4, 46, 75
6, 2688, Note_off_c, 4, 46, 0
6, 2688, Note_on_c, 4, 58, 75
6, 2880, Note_off_c, 4, 58, 0
6, 2880, Note_on_c, 4, 57, 75
6, 3264, Note_off_c, 4, 57, 0
6, 3264, Note_on_c, 4, 45, 75
6, 3456, Note_off_c, 4, 45, 0
6, 3456, Note_on_c, 4, 43, 75
6, 3840, Note_off_c, 4, 43, 0
6, 3840, Note_on_c, 4, 55, 75
6, 4032, Note_off_c, 4, 55, 0
6, 4032, Note_on_c, 4, 55, 75
6, 4416, Note_off_c, 4, 55, 0
6, 4416, Note_on_c, 4, 43, 75
6, 4608, Note_off_c, 4, 43, 0
6, 4608, Note_on_c, 4, 41, 75
6, 4992, Note_off_c, 4, 41, 0
6, 4992, Note_on_c, 4, 53, 75
6, 5184, Note_off_c, 4, 53, 0
6, 5184, Note_on_c, 4, 53, 75
6, 5568, Note_off_c, 4, 53, 0
6, 5568, Note_on_c, 4, 41, 75
6, 5760, Note_off_c, 4, 41, 0
6, 5760, Note_on_c, 4, 39, 75
6, 6144, Note_off_c, 4, 39, 0
6, 6144, Note_on_c, 4, 41, 75
6, 6336, Note_off_c, 4, 41, 0
6, 6336, Note_on_c, 4, 43, 75
6, 6720, Note_off_c, 4, 43, 0
6, 6720, Note_on_c, 4, 39, 75
6, 6912, Note_off_c, 4, 39, 0
6, 6912, Note_on_c, 4, 41, 75
6, 7488, Note_off_c, 4, 41, 0
6, 7488, Note_on_c, 4, 41, 75
6, 7680, Note_off_c, 4, 41, 0
6, 7680, Note_on_c, 4, 45, 75
6, 7872, Note_off_c, 4, 45, 0
6, 7872, Note_on_c, 4, 48, 75
6, 8064, Note_off_c, 4, 48, 0
6, 8064, Note_on_c, 4, 51, 75
6, 8448, Note_off_c, 4, 51, 0
6, 8640, Note_on_c, 4, 53, 75
6, 8832, Note_off_c, 4, 53, 0
6, 8832, Note_on_c, 4, 57, 75
6, 9024, Note_off_c, 4, 57, 0
6, 9024, Note_on_c, 4, 60, 75
6, 9216, Note_off_c, 4, 60, 0
6, 9216, Note_on_c, 4, 51, 75
6, 9792, Note_off_c, 4, 51, 0
6, 9792, Note_on_c, 4, 46, 75
6, 9984, Note_off_c, 4, 46, 0
6, 9984, Note_on_c, 4, 50, 75
6, 10176, Note_off_c, 4, 50, 0
6, 10176, Note_on_c, 4, 53, 75
6, 10368, Note_off_c, 4, 53, 0
6, 10368, Note_on_c, 4, 56, 75
6, 10752, Note_off_c, 4, 56, 0
6, 11520, Note_on_c, 4, 56, 75
6, 12096, Note_off_c, 4, 56, 0
6, 12096, Note_on_c, 4, 51, 75
6, 12288, Note_off_c, 4, 51, 0
6, 12288, Note_on_c, 4, 53, 75
6, 12480, Note_off_c, 4, 53, 0
6, 12480, Note_on_c, 4, 51, 75
6, 12672, Note_off_c, 4, 51, 0
6, 12672, Note_on_c, 4, 50, 75
6, 12864, Note_off_c, 4, 50, 0
6, 12864, Note_on_c, 4, 51, 75
6, 13056, Note_off_c, 4, 51, 0
6, 13056, Note_on_c, 4, 50, 75
6, 13248, Note_off_c, 4, 50, 0
6, 13248, Note_on_c, 4, 48, 75
6, 13440, Note_off_c, 4, 48, 0
6, 13440, Note_on_c, 4, 50, 75
6, 13632, Note_off_c, 4, 50, 0
6, 13632, Note_on_c, 4, 48, 75
6, 13824, Note_off_c, 4, 48, 0
6, 13824, Note_on_c, 4, 46, 79
6, 14016, Note_off_c, 4, 46, 0
6, 14016, Note_on_c, 4, 55, 83
6, 14208, Note_off_c, 4, 55, 0
6, 14208, Note_on_c, 4, 53, 87
6, 14400, Note_off_c, 4, 53, 0
6, 14400, Note_on_c, 4, 52, 92
6, 14592, Note_off_c, 4, 52, 0
6, 14592, Note_on_c, 4, 40, 92
6, 14784, Note_off_c, 4, 40, 0
6, 14784, Note_on_c, 4, 52, 92
6, 14976, Note_off_c, 4, 52, 0
6, 14976, Note_on_c, 4, 53, 92
6, 15168, Note_off_c, 4, 53, 0
6, 15168, Note_on_c, 4, 41, 92
6, 15360, Note_off_c, 4, 41, 0
6, 15360, Note_on_c, 4, 53, 92
6, 15552, Note_off_c, 4, 53, 0
6, 15552, Note_on_c, 4, 55, 92
6, 15744, Note_off_c, 4, 55, 0
6, 15744, Note_on_c, 4, 43, 92
6, 15936, Note_off_c, 4, 43, 0
6, 15936, Note_on_c, 4, 55, 92
6, 16128, Note_off_c, 4, 55, 0
6, 16128, Note_on_c, 4, 53, 92
6, 16512, Note_off_c, 4, 53, 0
6, 16512, Note_on_c, 4, 53, 92
6, 16704, Note_off_c, 4, 53, 0
6, 16704, Note_on_c, 4, 51, 92
6, 16896, Note_off_c, 4, 51, 0
6, 16896, Note_on_c, 4, 55, 92
6, 17088, Note_off_c, 4, 55, 0
6, 17088, Note_on_c, 4, 53, 92
6, 17280, Note_off_c, 4, 53, 0
6, 17280, Note_on_c, 4, 51, 92
6, 17472, Note_off_c, 4, 51, 0
6, 17472, Note_on_c, 4, 50, 92
6, 17664, Note_off_c, 4, 50, 0
6, 17664, Note_on_c, 4, 55, 92
6, 17856, Note_off_c, 4, 55, 0
6, 17856, Note_on_c, 4, 51, 92
6, 18048, Note_off_c, 4, 51, 0
6, 18240, Note_on_c, 4, 41, 92
6, 18432, Note_off_c, 4, 41, 0
6, 18432, Note_on_c, 4, 46, 92
6, 18816, Note_off_c, 4, 46, 0
6, 18816, Note_on_c, 4, 46, 92
6, 19008, Note_off_c, 4, 46, 0
6, 19008, Note_on_c, 4, 46, 75
6, 19392, Note_off_c, 4, 46, 0
6, 19392, Note_on_c, 4, 46, 75
6, 19584, Note_off_c, 4, 46, 0
6, 19584, Note_on_c, 4, 46, 75
6, 19968, Note_off_c, 4, 46, 0
6, 20544, Note_on_c, 4, 46, 75
6, 20736, Note_off_c, 4, 46, 0
6, 20736, Note_on_c, 4, 46, 75
6, 21120, Note_off_c, 4, 46, 0
6, 21120, Note_on_c, 4, 58, 75
6, 21312, Note_off_c, 4, 58, 0
6, 21312, Note_on_c, 4, 58, 75
6, 21696, Note_off_c, 4, 58, 0
6, 21696, Note_on_c, 4, 46, 75
6, 21888, Note_off_c, 4, 46, 0
6, 21888, Note_on_c, 4, 46, 75
6, 22464, Note_off_c, 4, 46, 0
6, 22848, Note_on_c, 4, 50, 75
6, 23040, Note_off_c, 4, 50, 0
6, 23040, Note_on_c, 4, 51, 75
6, 23424, Note_off_c, 4, 51, 0
6, 23424, Note_on_c, 4, 51, 75
6, 23616, Note_off_c, 4, 51, 0
6, 23616, Note_on_c, 4, 51, 75
6, 24000, Note_off_c, 4, 51, 0
6, 24000, Note_on_c, 4, 39, 75
6, 24192, Note_off_c, 4, 39, 0
6, 24192, Note_on_c, 4, 41, 75
6, 24576, Note_off_c, 4, 41, 0
6, 24576, Note_on_c, 4, 53, 75
6, 24768, Note_off_c, 4, 53, 0
6, 24768, Note_on_c, 4, 53, 75
6, 25152, Note_off_c, 4, 53, 0
6, 25152, Note_on_c, 4, 41, 75
6, 25344, Note_off_c, 4, 41, 0
6, 25344, Note_on_c, 4, 46, 75
6, 25728, Note_off_c, 4, 46, 0
6, 26304, Note_on_c, 4, 46, 60
6, 26496, Note_off_c, 4, 46, 0
6, 26496, Note_on_c, 4, 46, 60
6, 26880, Note_off_c, 4, 46, 0
6, 27456, Note_on_c, 4, 46, 60
6, 27648, Note_off_c, 4, 46, 0
6, 27648, Note_on_c, 4, 46, 60
6, 28032, Note_off_c, 4, 46, 0
6, 28608, Note_on_c, 4, 45, 60
6, 28800, Note_off_c, 4, 45, 0
6, 28800, Note_on_c, 4, 43, 60
6, 29184, Note_off_c, 4, 43, 0
6, 29760, Note_on_c, 4, 43, 60
6, 29952, Note_off_c, 4, 43, 0
6, 29952, Note_on_c, 4, 41, 60
6, 30336, Note_off_c, 4, 41, 0
6, 30336, Note_on_c, 4, 53, 60
6, 30528, Note_off_c, 4, 53, 0
6, 30528, Note_on_c, 4, 53, 60
6, 30912, Note_off_c, 4, 53, 0
6, 30912, Note_on_c, 4, 41, 60
6, 31104, Note_off_c, 4, 41, 0
6, 31104, Note_on_c, 4, 39, 60
6, 31488, Note_off_c, 4, 39, 0
6, 31488, Note_on_c, 4, 41, 60
6, 31680, Note_off_c, 4, 41, 0
6, 31680, Note_on_c, 4, 43, 60
6, 32064, Note_off_c, 4, 43, 0
6, 32064, Note_on_c, 4, 39, 60
6, 32256, Note_off_c, 4, 39, 0
6, 32256, Note_on_c, 4, 41, 60
6, 32640, Note_off_c, 4, 41, 0
6, 32640, Note_on_c, 4, 53, 60
6, 32832, Note_off_c, 4, 53, 0
6, 32832, Note_on_c, 4, 53, 92
6, 33216, Note_off_c, 4, 53, 0
6, 33216, Note_on_c, 4, 53, 92
6, 33408, Note_off_c, 4, 53, 0
6, 33408, Note_on_c, 4, 51, 92
6, 33792, Note_off_c, 4, 51, 0
6, 33792, Note_on_c, 4, 51, 92
6, 33984, Note_off_c, 4, 51, 0
6, 33984, Note_on_c, 4, 51, 92
6, 34368, Note_off_c, 4, 51, 0
6, 34368, Note_on_c, 4, 51, 92
6, 34560, Note_off_c, 4, 51, 0
6, 34560, Note_on_c, 4, 50, 92
6, 34944, Note_off_c, 4, 50, 0
6, 34944, Note_on_c, 4, 50, 92
6, 35136, Note_off_c, 4, 50, 0
6, 35136, Note_on_c, 4, 50, 60
6, 35520, Note_off_c, 4, 50, 0
6, 35520, Note_on_c, 4, 50, 60
6, 35712, Note_off_c, 4, 50, 0
6, 35712, Note_on_c, 4, 48, 60
6, 36096, Note_off_c, 4, 48, 0
6, 36096, Note_on_c, 4, 60, 60
6, 36288, Note_off_c, 4, 60, 0
6, 36288, Note_on_c, 4, 60, 60
6, 36672, Note_off_c, 4, 60, 0
6, 36672, Note_on_c, 4, 48, 60
6, 36864, Note_off_c, 4, 48, 0
6, 36864, Note_on_c, 4, 46, 92
6, 37248, Note_off_c, 4, 46, 0
6, 37248, Note_on_c, 4, 58, 92
6, 37440, Note_off_c, 4, 58, 0
6, 37440, Note_on_c, 4, 58, 92
6, 37824, Note_off_c, 4, 58, 0
6, 37824, Note_on_c, 4, 46, 92
6, 38016, Note_off_c, 4, 46, 0
6, 38016, Note_on_c, 4, 44, 92
6, 38400, Note_off_c, 4, 44, 0
6, 38400, Note_on_c, 4, 56, 92
6, 38592, Note_off_c, 4, 56, 0
6, 38592, Note_on_c, 4, 56, 92
6, 38976, Note_off_c, 4, 56, 0
6, 38976, Note_on_c, 4, 44, 92
6, 39168, Note_off_c, 4, 44, 0
6, 39168, Note_on_c, 4, 43, 92
6, 39552, Note_off_c, 4, 43, 0
6, 39552, Note_on_c, 4, 55, 92
6, 39744, Note_off_c, 4, 55, 0
6, 39744, Note_on_c, 4, 55, 60
6, 40128, Note_off_c, 4, 55, 0
6, 40128, Note_on_c, 4, 43, 60
6, 40320, Note_off_c, 4, 43, 0
6, 40320, Note_on_c, 4, 41, 60
6, 40704, Note_off_c, 4, 41, 0
6, 40704, Note_on_c, 4, 53, 60
6, 40896, Note_off_c, 4, 53, 0
6, 40896, Note_on_c, 4, 53, 60
6, 41280, Note_off_c, 4, 53, 0
6, 41280, Note_on_c, 4, 41, 60
6, 41472, Note_off_c, 4, 41, 0
6, 41472, Note_on_c, 4, 39, 60
6, 41856, Note_off_c, 4, 39, 0
6, 41856, Note_on_c, 4, 51, 60
6, 42048, Note_off_c, 4, 51, 0
6, 42048, Note_on_c, 4, 50, 60
6, 42432, Note_off_c, 4, 50, 0
6, 42432, Note_on_c, 4, 38, 60
6, 42624, Note_off_c, 4, 38, 0
6, 42624, Note_on_c, 4, 36, 60
6, 43008, Note_off_c, 4, 36, 0
6, 43008, Note_on_c, 4, 60, 60
6, 43200, Note_off_c, 4, 60, 0
6, 43200, Note_on_c, 4, 60, 60
6, 43584, Note_off_c, 4, 60, 0
6, 43584, Note_on_c, 4, 48, 60
6, 43776, Note_off_c, 4, 48, 0
6, 43776, Note_on_c, 4, 46, 60
6, 44160, Note_off_c, 4, 46, 0
6, 44160, Note_on_c, 4, 58, 60
6, 44352, Note_off_c, 4, 58, 0
6, 44352, Note_on_c, 4, 58, 60
6, 44736, Note_off_c, 4, 58, 0
6, 44736, Note_on_c, 4, 46, 60
6, 44928, Note_off_c, 4, 46, 0
6, 44928, Note_on_c, 4, 44, 60
6, 45312, Note_off_c, 4, 44, 0
6, 45312, Note_on_c, 4, 46, 60
6, 45504, Note_off_c, 4, 46, 0
6, 45504, Note_on_c, 4, 48, 60
6, 45888, Note_off_c, 4, 48, 0
6, 45888, Note_on_c, 4, 44, 60
6, 46080, Note_off_c, 4, 44, 0
6, 46080, Note_on_c, 4, 46, 60
6, 46464, Note_off_c, 4, 46, 0
6, 46464, Note_on_c, 4, 58, 60
6, 46656, Note_off_c, 4, 58, 0
6, 46656, Note_on_c, 4, 56, 60
6, 47040, Note_off_c, 4, 56, 0
6, 47040, Note_on_c, 4, 44, 60
6, 47232, Note_off_c, 4, 44, 0
6, 47232, Note_on_c, 4, 43, 60
6, 47616, Note_off_c, 4, 43, 0
6, 47616, Note_on_c, 4, 55, 60
6, 47808, Note_off_c, 4, 55, 0
6, 47808, Note_on_c, 4, 55, 60
6, 48192, Note_off_c, 4, 55, 0
6, 48192, Note_on_c, 4, 43, 60
6, 48384, Note_off_c, 4, 43, 0
6, 48384, Note_on_c, 4, 48, 60
6, 48768, Note_off_c, 4, 48, 0
6, 48768, Note_on_c, 4, 60, 60
6, 48960, Note_off_c, 4, 60, 0
6, 48960, Note_on_c, 4, 60, 60
6, 49344, Note_off_c, 4, 60, 0
6, 49344, Note_on_c, 4, 48, 60
6, 49536, Note_off_c, 4, 48, 0
6, 49536, Note_on_c, 4, 41, 60
6, 49920, Note_off_c, 4, 41, 0
6, 49920, Note_on_c, 4, 53, 60
6, 50112, Note_off_c, 4, 53, 0
6, 50112, Note_on_c, 4, 53, 60
6, 50496, Note_off_c, 4, 53, 0
6, 50496, Note_on_c, 4, 41, 60
6, 50688, Note_off_c, 4, 41, 0
6, 50688, Note_on_c, 4, 46, 60
6, 50880, Note_off_c, 4, 46, 0
6, 50880, Note_on_c, 4, 48, 60
6, 51072, Note_off_c, 4, 48, 0
6, 51072, Note_on_c, 4, 50, 60
6, 51264, Note_off_c, 4, 50, 0
6, 51264, Note_on_c, 4, 51, 60
6, 51456, Note_off_c, 4, 51, 0
6, 51456, Note_on_c, 4, 53, 60
6, 51648, Note_off_c, 4, 53, 0
6, 51648, Note_on_c, 4, 51, 60
6, 51840, Note_off_c, 4, 51, 0
6, 51840, Note_on_c, 4, 50, 60
6, 52032, Note_off_c, 4, 50, 0
6, 52032, Note_on_c, 4, 51, 60
6, 52224, Note_off_c, 4, 51, 0
6, 52224, Note_on_c, 4, 50, 60
6, 52416, Note_off_c, 4, 50, 0
6, 52416, Note_on_c, 4, 48, 60
6, 52608, Note_off_c, 4, 48, 0
6, 52608, Note_on_c, 4, 50, 60
6, 52800, Note_off_c, 4, 50, 0
6, 52800, Note_on_c, 4, 48, 60
6, 52992, Note_off_c, 4, 48, 0
6, 52992, Note_on_c, 4, 46, 60
6, 53184, Note_off_c, 4, 46, 0
6, 53184, Note_on_c, 4, 43, 60
6, 53376, Note_off_c, 4, 43, 0
6, 53376, Note_on_c, 4, 41, 60
6, 53568, Note_off_c, 4, 41, 0
6, 53568, Note_on_c, 4, 40, 60
6, 53952, Note_off_c, 4, 40, 0
6, 53952, Note_on_c, 4, 52, 60
6, 54144, Note_off_c, 4, 52, 0
6, 54144, Note_on_c, 4, 53, 60
6, 54528, Note_off_c, 4, 53, 0
6, 54528, Note_on_c, 4, 41, 60
6, 54720, Note_off_c, 4, 41, 0
6, 54720, Note_on_c, 4, 43, 60
6, 55104, Note_off_c, 4, 43, 0
6, 55104, Note_on_c, 4, 55, 60
6, 55296, Note_off_c, 4, 55, 0
6, 55296, Note_on_c, 4, 53, 60
6, 55680, Note_off_c, 4, 53, 0
6, 55680, Note_on_c, 4, 41, 60
6, 55872, Note_off_c, 4, 41, 0
6, 55872, Note_on_c, 4, 39, 60
6, 56064, Note_off_c, 4, 39, 0
6, 56064, Note_on_c, 4, 55, 60
6, 56256, Note_off_c, 4, 55, 0
6, 56256, Note_on_c, 4, 53, 60
6, 56448, Note_off_c, 4, 53, 0
6, 56448, Note_on_c, 4, 51, 60
6, 56640, Note_off_c, 4, 51, 0
6, 56640, Note_on_c, 4, 50, 60
6, 56832, Note_off_c, 4, 50, 0
6, 56832, Note_on_c, 4, 55, 60
6, 57024, Note_off_c, 4, 55, 0
6, 57024, Note_on_c, 4, 51, 60
6, 57216, Note_off_c, 4, 51, 0
6, 57216, Note_on_c, 4, 53, 60
6, 57408, Note_off_c, 4, 53, 0
6, 57408, Note_on_c, 4, 41, 60
6, 57600, Note_off_c, 4, 41, 0
6, 57600, Note_on_c, 4, 46, 60
6, 58176, Note_off_c, 4, 46, 0
6, 58176, Note_on_c, 4, 56, 60
6, 58560, Note_off_c, 4, 56, 0
6, 58560, Note_on_c, 4, 44, 60
6, 58752, Note_off_c, 4, 44, 0
6, 58752, Note_on_c, 4, 43, 60
6, 59136, Note_off_c, 4, 43, 0
6, 59136, Note_on_c, 4, 55, 60
6, 59328, Note_off_c, 4, 55, 0
6, 59328, Note_on_c, 4, 53, 60
6, 59712, Note_off_c, 4, 53, 0
6, 59712, Note_on_c, 4, 41, 60
6, 59904, Note_off_c, 4, 41, 0
6, 59904, Note_on_c, 4, 39, 60
6, 60288, Note_off_c, 4, 39, 0
6, 60288, Note_on_c, 4, 51, 60
6, 60480, Note_off_c, 4, 51, 0
6, 60480, Note_on_c, 4, 50, 60
6, 60864, Note_off_c, 4, 50, 0
6, 60864, Note_on_c, 4, 38, 60
6, 61056, Note_off_c, 4, 38, 0
6, 61056, Note_on_c, 4, 36, 60
6, 61440, Note_off_c, 4, 36, 0
6, 61440, Note_on_c, 4, 48, 60
6, 61632, Note_off_c, 4, 48, 0
6, 61632, Note_on_c, 4, 46, 60
6, 62016, Note_off_c, 4, 46, 0
6, 62016, Note_on_c, 4, 43, 60
6, 62208, Note_off_c, 4, 43, 0
6, 62208, Note_on_c, 4, 45, 60
6, 62592, Note_off_c, 4, 45, 0
6, 62592, Note_on_c, 4, 41, 60
6, 62784, Note_off_c, 4, 41, 0
6, 62784, Note_on_c, 4, 43, 75
6, 63168, Note_off_c, 4, 43, 0
6, 63168, Note_on_c, 4, 45, 75
6, 63360, Note_off_c, 4, 45, 0
6, 63360, Note_on_c, 4, 46, 75
6, 63744, Note_off_c, 4, 46, 0
6, 63744, Note_on_c, 4, 51, 75
6, 63936, Note_off_c, 4, 51, 0
6, 63936, Note_on_c, 4, 53, 75
6, 64320, Note_off_c, 4, 53, 0
6, 64320, Note_on_c, 4, 41, 75
6, 64512, Note_off_c, 4, 41, 0
6, 64512, Note_on_c, 4, 46, 75
6, 64896, Note_off_c, 4, 46, 0
6, 64896, Note_on_c, 4, 58, 75
6, 65088, Note_off_c, 4, 58, 0
6, 65088, Note_on_c, 4, 58, 92
6, 65472, Note_off_c, 4, 58, 0
6, 65472, Note_on_c, 4, 46, 92
6, 65664, Note_off_c, 4, 46, 0
6, 65664, Note_on_c, 4, 46, 92
6, 66048, Note_off_c, 4, 46, 0
6, 66048, Note_on_c, 4, 58, 92
6, 66240, Note_off_c, 4, 58, 0
6, 66240, Note_on_c, 4, 58, 92
6, 66624, Note_off_c, 4, 58, 0
6, 66624, Note_on_c, 4, 46, 92
6, 66816, Note_off_c, 4, 46, 0
6, 66816, Note_on_c, 4, 46, 92
6, 67200, Note_off_c, 4, 46, 0
6, 67200, Note_on_c, 4, 58, 92
6, 67392, Note_off_c, 4, 58, 0
6, 67392, Note_on_c, 4, 57, 92
6, 67776, Note_off_c, 4, 57, 0
6, 67776, Note_on_c, 4, 45, 92
6, 67968, Note_off_c, 4, 45, 0
6, 67968, Note_on_c, 4, 43, 92
6, 68352, Note_off_c, 4, 43, 0
6, 68352, Note_on_c, 4, 55, 92
6, 68544, Note_off_c, 4, 55, 0
6, 68544, Note_on_c, 4, 55, 92
6, 68928, Note_off_c, 4, 55, 0
6, 68928, Note_on_c, 4, 43, 92
6, 69120, Note_off_c, 4, 43, 0
6, 69120, Note_on_c, 4, 41, 92
6, 69504, Note_off_c, 4, 41, 0
6, 69504, Note_on_c, 4, 53, 92
6, 69696, Note_off_c, 4, 53, 0
6, 69696, Note_on_c, 4, 53, 92
6, 70080, Note_off_c, 4, 53, 0
6, 70080, Note_on_c, 4, 41, 92
6, 70272, Note_off_c, 4, 41, 0
6, 70272, Note_on_c, 4, 39, 92
6, 70656, Note_off_c, 4, 39, 0
6, 70656, Note_on_c, 4, 41, 92
6, 70848, Note_off_c, 4, 41, 0
6, 70848, Note_on_c, 4, 43, 92
6, 71232, Note_off_c, 4, 43, 0
6, 71232, Note_on_c, 4, 39, 92
6, 71424, Note_off_c, 4, 39, 0
6, 71424, Note_on_c, 4, 41, 92
6, 72192, Note_off_c, 4, 41, 0
6, 72192, Note_on_c, 4, 45, 92
6, 72256, Note_off_c, 4, 45, 0
6, 72384, Note_on_c, 4, 48, 92
6, 72448, Note_off_c, 4, 48, 0
6, 72576, Note_on_c, 4, 51, 92
6, 72960, Note_off_c, 4, 51, 0
6, 73152, Note_on_c, 4, 41, 92
6, 73216, Note_off_c, 4, 41, 0
6, 73344, Note_on_c, 4, 45, 92
6, 73408, Note_off_c, 4, 45, 0
6, 73536, Note_on_c, 4, 48, 92
6, 73600, Note_off_c, 4, 48, 0
6, 73728, Note_on_c, 4, 51, 92
6, 74112, Note_off_c, 4, 51, 0
6, 74304, Note_on_c, 4, 46, 92
6, 74368, Note_off_c, 4, 46, 0
6, 74496, Note_on_c, 4, 50, 92
6, 74560, Note_off_c, 4, 50, 0
6, 74688, Note_on_c, 4, 53, 92
6, 74752, Note_off_c, 4, 53, 0
6, 74880, Note_on_c, 4, 56, 127
6, 75264, Note_off_c, 4, 56, 0
6, 75456, Note_on_c, 4, 46, 92
6, 75520, Note_off_c, 4, 46, 0
6, 75648, Note_on_c, 4, 50, 92
6, 75712, Note_off_c, 4, 50, 0
6, 75840, Note_on_c, 4, 53, 92
6, 75904, Note_off_c, 4, 53, 0
6, 76032, Note_on_c, 4, 56, 127
6, 76416, Note_off_c, 4, 56, 0
6, 76608, Note_on_c, 4, 51, 92
6, 76800, Note_off_c, 4, 51, 0
6, 76800, Note_on_c, 4, 53, 92
6, 76992, Note_off_c, 4, 53, 0
6, 76992, Note_on_c, 4, 51, 92
6, 77184, Note_off_c, 4, 51, 0
6, 77184, Note_on_c, 4, 50, 92
6, 77376, Note_off_c, 4, 50, 0
6, 77376, Note_on_c, 4, 51, 92
6, 77568, Note_off_c, 4, 51, 0
6, 77568, Note_on_c, 4, 50, 92
6, 77760, Note_off_c, 4, 50, 0
6, 77760, Note_on_c, 4, 48, 92
6, 77952, Note_off_c, 4, 48, 0
6, 77952, Note_on_c, 4, 50, 92
6, 78144, Note_off_c, 4, 50, 0
6, 78144, Note_on_c, 4, 48, 92
6, 78336, Note_off_c, 4, 48, 0
6, 78336, Note_on_c, 4, 46, 92
6, 78528, Note_off_c, 4, 46, 0
6, 78528, Note_on_c, 4, 43, 92
6, 78720, Note_off_c, 4, 43, 0
6, 78720, Note_on_c, 4, 41, 92
6, 78912, Note_off_c, 4, 41, 0
6, 78912, Note_on_c, 4, 40, 92
6, 79296, Note_off_c, 4, 40, 0
6, 79296, Note_on_c, 4, 52, 92
6, 79488, Note_off_c, 4, 52, 0
6, 79488, Note_on_c, 4, 53, 92
6, 79872, Note_off_c, 4, 53, 0
6, 79872, Note_on_c, 4, 41, 92
6, 80064, Note_off_c, 4, 41, 0
6, 80064, Note_on_c, 4, 43, 92
6, 80448, Note_off_c, 4, 43, 0
6, 80448, Note_on_c, 4, 55, 92
6, 80640, Note_off_c, 4, 55, 0
6, 80640, Note_on_c, 4, 53, 92
6, 81024, Note_off_c, 4, 53, 0
6, 81024, Note_on_c, 4, 41, 92
6, 81216, Note_off_c, 4, 41, 0
6, 81216, Note_on_c, 4, 39, 92
6, 81408, Note_off_c, 4, 39, 0
6, 81408, Note_on_c, 4, 55, 92
6, 81600, Note_off_c, 4, 55, 0
6, 81600, Note_on_c, 4, 53, 92
6, 81792, Note_off_c, 4, 53, 0
6, 81792, Note_on_c, 4, 51, 92
6, 81984, Note_off_c, 4, 51, 0
6, 81984, Note_on_c, 4, 50, 92
6, 82176, Note_off_c, 4, 50, 0
6, 82176, Note_on_c, 4, 55, 92
6, 82368, Note_off_c, 4, 55, 0
6, 82368, Note_on_c, 4, 51, 92
6, 82560, Note_off_c, 4, 51, 0
6, 82560, Note_on_c, 4, 53, 92
6, 82752, Note_off_c, 4, 53, 0
6, 82752, Note_on_c, 4, 41, 92
6, 82944, Note_off_c, 4, 41, 0
6, 82944, Note_on_c, 4, 46, 92
6, 83328, Note_off_c, 4, 46, 0
6, 83328, Note_on_c, 4, 45, 92
6, 83520, Note_off_c, 4, 45, 0
6, 83520, Note_on_c, 4, 43, 92
6, 83712, Note_off_c, 4, 43, 0
6, 83712, Note_on_c, 4, 50, 92
6, 83904, Note_off_c, 4, 50, 0
6, 83904, Note_on_c, 4, 48, 92
6, 84096, Note_off_c, 4, 48, 0
6, 84096, Note_on_c, 4, 46, 92
6, 84288, Note_off_c, 4, 46, 0
6, 84288, Note_on_c, 4, 45, 92
6, 84480, Note_off_c, 4, 45, 0
6, 84480, Note_on_c, 4, 43, 92
6, 84672, Note_off_c, 4, 43, 0
6, 84672, Note_on_c, 4, 48, 92
6, 84864, Note_off_c, 4, 48, 0
6, 84864, Note_on_c, 4, 45, 92
6, 85056, Note_off_c, 4, 45, 0
6, 85056, Note_on_c, 4, 42, 92
6, 85248, Note_off_c, 4, 42, 0
6, 85248, Note_on_c, 4, 43, 92
6, 85440, Note_off_c, 4, 43, 0
6, 85440, Note_on_c, 4, 45, 92
6, 85632, Note_off_c, 4, 45, 0
6, 85632, Note_on_c, 4, 46, 92
6, 85824, Note_off_c, 4, 46, 0
6, 85824, Note_on_c, 4, 48, 92
6, 86016, Note_off_c, 4, 48, 0
6, 86016, Note_on_c, 4, 50, 92
6, 86208, Note_off_c, 4, 50, 0
6, 86208, Note_on_c, 4, 51, 92
6, 86400, Note_off_c, 4, 51, 0
6, 86400, Note_on_c, 4, 41, 92
6, 86592, Note_off_c, 4, 41, 0
6, 86592, Note_on_c, 4, 43, 92
6, 86784, Note_off_c, 4, 43, 0
6, 86784, Note_on_c, 4, 45, 92
6, 86976, Note_off_c, 4, 45, 0
6, 86976, Note_on_c, 4, 46, 92
6, 87168, Note_off_c, 4, 46, 0
6, 87168, Note_on_c, 4, 48, 92
6, 87360, Note_off_c, 4, 48, 0
6, 87360, Note_on_c, 4, 50, 92
6, 87552, Note_off_c, 4, 50, 0
6, 87552, Note_on_c, 4, 39, 92
6, 87936, Note_off_c, 4, 39, 0
6, 87936, Note_on_c, 4, 51, 92
6, 88128, Note_off_c, 4, 51, 0
6, 88128, Note_on_c, 4, 51, 92
6, 88512, Note_off_c, 4, 51, 0
6, 88512, Note_on_c, 4, 48, 92
6, 88704, Note_off_c, 4, 48, 0
6, 88704, Note_on_c, 4, 42, 92
6, 89088, Note_off_c, 4, 42, 0
6, 89088, Note_on_c, 4, 54, 92
6, 89280, Note_off_c, 4, 54, 0
6, 89280, Note_on_c, 4, 55, 92
6, 89664, Note_off_c, 4, 55, 0
6, 89664, Note_on_c, 4, 48, 92
6, 89856, Note_off_c, 4, 48, 0
6, 89856, Note_on_c, 4, 50, 92
6, 90240, Note_off_c, 4, 50, 0
6, 90240, Note_on_c, 4, 38, 92
6, 90432, Note_off_c, 4, 38, 0
6, 90432, Note_on_c, 4, 50, 92
6, 90816, Note_off_c, 4, 50, 0
6, 90816, Note_on_c, 4, 50, 92
6, 91008, Note_off_c, 4, 50, 0
6, 91008, Note_on_c, 4, 50, 92
6, 91008, Note_on_c, 4, 57, 92
6, 91392, Note_off_c, 4, 50, 0
6, 91392, Note_off_c, 4, 57, 0
6, 91392, Note_on_c, 4, 50, 92
6, 91584, Note_off_c, 4, 50, 0
6, 91584, Note_on_c, 4, 50, 92
6, 91968, Note_off_c, 4, 50, 0
6, 91968, Note_on_c, 4, 50, 92
6, 92160, Note_off_c, 4, 50, 0
6, 92160, Note_on_c, 4, 50, 92
6, 92544, Note_off_c, 4, 50, 0
6, 92544, Note_on_c, 4, 38, 92
6, 92736, Note_off_c, 4, 38, 0
6, 92736, Note_on_c, 4, 43, 92
6, 92928, Note_off_c, 4, 43, 0
6, 92928, Note_on_c, 4, 58, 92
6, 93120, Note_off_c, 4, 58, 0
6, 93120, Note_on_c, 4, 55, 92
6, 93312, Note_off_c, 4, 55, 0
6, 93312, Note_on_c, 4, 55, 92
6, 93696, Note_off_c, 4, 55, 0
6, 93696, Note_on_c, 4, 55, 92
6, 93888, Note_off_c, 4, 55, 0
6, 93888, Note_on_c, 4, 55, 92
6, 94272, Note_off_c, 4, 55, 0
6, 94272, Note_on_c, 4, 55, 92
6, 94464, Note_off_c, 4, 55, 0
6, 94464, Note_on_c, 4, 55, 92
6, 94848, Note_off_c, 4, 55, 0
6, 94848, Note_on_c, 4, 43, 92
6, 95040, Note_off_c, 4, 43, 0
6, 95040, Note_on_c, 4, 55, 92
6, 95424, Note_off_c, 4, 55, 0
6, 95424, Note_on_c, 4, 55, 92
6, 95616, Note_off_c, 4, 55, 0
6, 95616, Note_on_c, 4, 48, 92
6, 96000, Note_off_c, 4, 48, 0
6, 96000, Note_on_c, 4, 50, 92
6, 96192, Note_off_c, 4, 50, 0
6, 96192, Note_on_c, 4, 51, 92
6, 96576, Note_off_c, 4, 51, 0
6, 96576, Note_on_c, 4, 51, 92
6, 96768, Note_off_c, 4, 51, 0
6, 96768, Note_on_c, 4, 50, 92
6, 97152, Note_off_c, 4, 50, 0
6, 97152, Note_on_c, 4, 50, 92
6, 97344, Note_off_c, 4, 50, 0
6, 97344, Note_on_c, 4, 48, 92
6, 97728, Note_off_c, 4, 48, 0
6, 97728, Note_on_c, 4, 36, 92
6, 97920, Note_off_c, 4, 36, 0
6, 97920, Note_on_c, 4, 38, 92
6, 98304, Note_off_c, 4, 38, 0
6, 98304, Note_on_c, 4, 50, 92
6, 98496, Note_off_c, 4, 50, 0
6, 98496, Note_on_c, 4, 51, 92
6, 98880, Note_off_c, 4, 51, 0
6, 98880, Note_on_c, 4, 39, 92
6, 99072, Note_off_c, 4, 39, 0
6, 99072, Note_on_c, 4, 38, 92
6, 99456, Note_off_c, 4, 38, 0
6, 99456, Note_on_c, 4, 50, 92
6, 99648, Note_off_c, 4, 50, 0
6, 99648, Note_on_c, 4, 48, 92
6, 99840, Note_off_c, 4, 48, 0
6, 99840, Note_on_c, 4, 51, 92
6, 100032, Note_off_c, 4, 51, 0
6, 100032, Note_on_c, 4, 50, 92
6, 100224, Note_off_c, 4, 50, 0
6, 100224, Note_on_c, 4, 48, 92
6, 100416, Note_off_c, 4, 48, 0
6, 100416, Note_on_c, 4, 45, 92
6, 100608, Note_off_c, 4, 45, 0
6, 100608, Note_on_c, 4, 46, 92
6, 100800, Note_off_c, 4, 46, 0
6, 100800, Note_on_c, 4, 48, 92
6, 100992, Note_off_c, 4, 48, 0
6, 100992, Note_on_c, 4, 50, 92
6, 101184, Note_off_c, 4, 50, 0
6, 101184, Note_on_c, 4, 38, 92
6, 101376, Note_off_c, 4, 38, 0
6, 101376, Note_on_c, 4, 43, 60
6, 101760, Note_off_c, 4, 43, 0
6, 101760, Note_on_c, 4, 55, 60
6, 101952, Note_off_c, 4, 55, 0
6, 101952, Note_on_c, 4, 55, 60
6, 102336, Note_off_c, 4, 55, 0
6, 102336, Note_on_c, 4, 43, 60
6, 102528, Note_off_c, 4, 43, 0
6, 102528, Note_on_c, 4, 43, 60
6, 102912, Note_off_c, 4, 43, 0
6, 102912, Note_on_c, 4, 55, 60
6, 103104, Note_off_c, 4, 55, 0
6, 103104, Note_on_c, 4, 55, 60
6, 103488, Note_off_c, 4, 55, 0
6, 103488, Note_on_c, 4, 43, 60
6, 103680, Note_off_c, 4, 43, 0
6, 103680, Note_on_c, 4, 43, 60
6, 104064, Note_off_c, 4, 43, 0
6, 104064, Note_on_c, 4, 55, 60
6, 104256, Note_off_c, 4, 55, 0
6, 104256, Note_on_c, 4, 55, 60
6, 104640, Note_off_c, 4, 55, 0
6, 104640, Note_on_c, 4, 43, 60
6, 104832, Note_off_c, 4, 43, 0
6, 104832, Note_on_c, 4, 43, 60
6, 105216, Note_off_c, 4, 43, 0
6, 105216, Note_on_c, 4, 55, 60
6, 105408, Note_off_c, 4, 55, 0
6, 105408, Note_on_c, 4, 55, 60
6, 105792, Note_off_c, 4, 55, 0
6, 105792, Note_on_c, 4, 43, 60
6, 105984, Note_off_c, 4, 43, 0
6, 105984, Note_on_c, 4, 48, 92
6, 106368, Note_off_c, 4, 48, 0
6, 106368, Note_on_c, 4, 36, 92
6, 106560, Note_off_c, 4, 36, 0
6, 106560, Note_on_c, 4, 36, 92
6, 106944, Note_off_c, 4, 36, 0
6, 106944, Note_on_c, 4, 48, 92
6, 107328, Note_off_c, 4, 48, 0
6, 107328, Note_on_c, 4, 45, 92
6, 107520, Note_off_c, 4, 45, 0
6, 107520, Note_on_c, 4, 46, 92
6, 107712, Note_off_c, 4, 46, 0
6, 107712, Note_on_c, 4, 48, 92
6, 107904, Note_off_c, 4, 48, 0
6, 107904, Note_on_c, 4, 50, 92
6, 108096, Note_off_c, 4, 50, 0
6, 108096, Note_on_c, 4, 38, 92
6, 108288, Note_off_c, 4, 38, 0
6, 108288, Note_on_c, 4, 43, 75
6, 108672, Note_off_c, 4, 43, 0
6, 108672, Note_on_c, 4, 55, 75
6, 108864, Note_off_c, 4, 55, 0
6, 108864, Note_on_c, 4, 55, 75
6, 109248, Note_off_c, 4, 55, 0
6, 109248, Note_on_c, 4, 43, 75
6, 109440, Note_off_c, 4, 43, 0
6, 109440, Note_on_c, 4, 48, 75
6, 109824, Note_off_c, 4, 48, 0
6, 109824, Note_on_c, 4, 60, 75
6, 110016, Note_off_c, 4, 60, 0
6, 110016, Note_on_c, 4, 60, 75
6, 110400, Note_off_c, 4, 60, 0
6, 110400, Note_on_c, 4, 48, 75
6, 110592, Note_off_c, 4, 48, 0
6, 110592, Note_on_c, 4, 41, 75
6, 110976, Note_off_c, 4, 41, 0
6, 110976, Note_on_c, 4, 53, 75
6, 111168, Note_off_c, 4, 53, 0
6, 111168, Note_on_c, 4, 53, 75
6, 111552, Note_off_c, 4, 53, 0
6, 111552, Note_on_c, 4, 41, 75
6, 111744, Note_off_c, 4, 41, 0
6, 111744, Note_on_c, 4, 46, 75
6, 112128, Note_off_c, 4, 46, 0
6, 112128, Note_on_c, 4, 58, 75
6, 112320, Note_off_c, 4, 58, 0
6, 112320, Note_on_c, 4, 58, 75
6, 112704, Note_off_c, 4, 58, 0
6, 112704, Note_on_c, 4, 46, 75
6, 112896, Note_off_c, 4, 46, 0
6, 112896, Note_on_c, 4, 39, 75
6, 113280, Note_off_c, 4, 39, 0
6, 113280, Note_on_c, 4, 51, 75
6, 113472, Note_off_c, 4, 51, 0
6, 113472, Note_on_c, 4, 51, 75
6, 113856, Note_off_c, 4, 51, 0
6, 113856, Note_on_c, 4, 50, 75
6, 114048, Note_off_c, 4, 50, 0
6, 114048, Note_on_c, 4, 48, 75
6, 114112, Note_off_c, 4, 48, 0
6, 114240, Note_on_c, 4, 51, 75
6, 114304, Note_off_c, 4, 51, 0
6, 114432, Note_on_c, 4, 55, 75
6, 114496, Note_off_c, 4, 55, 0
6, 114624, Note_on_c, 4, 60, 75
6, 115008, Note_off_c, 4, 60, 0
6, 115008, Note_on_c, 4, 58, 75
6, 115200, Note_off_c, 4, 58, 0
6, 115200, Note_on_c, 4, 57, 75
6, 115584, Note_off_c, 4, 57, 0
6, 115584, Note_on_c, 4, 58, 75
6, 115776, Note_off_c, 4, 58, 0
6, 115776, Note_on_c, 4, 55, 75
6, 116160, Note_off_c, 4, 55, 0
6, 116160, Note_on_c, 4, 51, 75
6, 116352, Note_off_c, 4, 51, 0
6, 116352, Note_on_c, 4, 53, 75
6, 116736, Note_off_c, 4, 53, 0
6, 116736, Note_on_c, 4, 51, 75
6, 116928, Note_off_c, 4, 51, 0
6, 116928, Note_on_c, 4, 50, 75
6, 117312, Note_off_c, 4, 50, 0
6, 117312, Note_on_c, 4, 48, 75
6, 117504, Note_off_c, 4, 48, 0
6, 117504, Note_on_c, 4, 46, 75
6, 117888, Note_off_c, 4, 46, 0
6, 117888, Note_on_c, 4, 58, 75
6, 118080, Note_off_c, 4, 58, 0
6, 118080, Note_on_c, 4, 58, 75
6, 118464, Note_off_c, 4, 58, 0
6, 118464, Note_on_c, 4, 46, 75
6, 118656, Note_off_c, 4, 46, 0
6, 118656, Note_on_c, 4, 46, 75
6, 119040, Note_off_c, 4, 46, 0
6, 119040, Note_on_c, 4, 58, 75
6, 119232, Note_off_c, 4, 58, 0
6, 119232, Note_on_c, 4, 58, 75
6, 119616, Note_off_c, 4, 58, 0
6, 119616, Note_on_c, 4, 46, 75
6, 119808, Note_off_c, 4, 46, 0
6, 119808, Note_on_c, 4, 46, 75
6, 120192, Note_off_c, 4, 46, 0
6, 120192, Note_on_c, 4, 58, 75
6, 120384, Note_off_c, 4, 58, 0
6, 120384, Note_on_c, 4, 58, 75
6, 120768, Note_off_c, 4, 58, 0
6, 120768, Note_on_c, 4, 46, 75
6, 120960, Note_off_c, 4, 46, 0
6, 120960, Note_on_c, 4, 46, 75
6, 121344, Note_off_c, 4, 46, 0
6, 121344, Note_on_c, 4, 58, 75
6, 121536, Note_off_c, 4, 58, 0
6, 121536, Note_on_c, 4, 58, 75
6, 121920, Note_off_c, 4, 58, 0
6, 121920, Note_on_c, 4, 46, 75
6, 122112, Note_off_c, 4, 46, 0
6, 122112, Note_on_c, 4, 46, 75
6, 122496, Note_off_c, 4, 46, 0
6, 122496, Note_on_c, 4, 58, 75
6, 122688, Note_off_c, 4, 58, 0
6, 122688, Note_on_c, 4, 58, 75
6, 123072, Note_off_c, 4, 58, 0
6, 123072, Note_on_c, 4, 46, 75
6, 123264, Note_off_c, 4, 46, 0
6, 123264, Note_on_c, 4, 46, 75
6, 123840, Note_off_c, 4, 46, 0
6, 124224, Note_on_c, 4, 50, 75
6, 124416, Note_off_c, 4, 50, 0
6, 124416, Note_on_c, 4, 51, 75
6, 124800, Note_off_c, 4, 51, 0
6, 124800, Note_on_c, 4, 51, 75
6, 124992, Note_off_c, 4, 51, 0
6, 124992, Note_on_c, 4, 51, 75
6, 125376, Note_off_c, 4, 51, 0
6, 125376, Note_on_c, 4, 39, 75
6, 125568, Note_off_c, 4, 39, 0
6, 125568, Note_on_c, 4, 41, 75
6, 125952, Note_off_c, 4, 41, 0
6, 125952, Note_on_c, 4, 53, 75
6, 126144, Note_off_c, 4, 53, 0
6, 126144, Note_on_c, 4, 53, 75
6, 126528, Note_off_c, 4, 53, 0
6, 126528, Note_on_c, 4, 41, 75
6, 126720, Note_off_c, 4, 41, 0
6, 126720, Note_on_c, 4, 46, 75
6, 127104, Note_off_c, 4, 46, 0
6, 127680, Note_on_c, 4, 46, 60
6, 127872, Note_off_c, 4, 46, 0
6, 127872, Note_on_c, 4, 46, 60
6, 128256, Note_off_c, 4, 46, 0
6, 128832, Note_on_c, 4, 46, 60
6, 129024, Note_off_c, 4, 46, 0
6, 129024, Note_on_c, 4, 46, 60
6, 129408, Note_off_c, 4, 46, 0
6, 129984, Note_on_c, 4, 45, 60
6, 130176, Note_off_c, 4, 45, 0
6, 130176, Note_on_c, 4, 43, 60
6, 130560, Note_off_c, 4, 43, 0
6, 131136, Note_on_c, 4, 43, 60
6, 131328, Note_off_c, 4, 43, 0
6, 131328, Note_on_c, 4, 41, 60
6, 131712, Note_off_c, 4, 41, 0
6, 131712, Note_on_c, 4, 53, 60
6, 131904, Note_off_c, 4, 53, 0
6, 131904, Note_on_c, 4, 53, 60
6, 132288, Note_off_c, 4, 53, 0
6, 132288, Note_on_c, 4, 41, 60
6, 132480, Note_off_c, 4, 41, 0
6, 132480, Note_on_c, 4, 39, 60
6, 132864, Note_off_c, 4, 39, 0
6, 132864, Note_on_c, 4, 41, 60
6, 133056, Note_off_c, 4, 41, 0
6, 133056, Note_on_c, 4, 43, 60
6, 133440, Note_off_c, 4, 43, 0
6, 133440, Note_on_c, 4, 39, 60
6, 133632, Note_off_c, 4, 39, 0
6, 133632, Note_on_c, 4, 41, 60
6, 134016, Note_off_c, 4, 41, 0
6, 134016, Note_on_c, 4, 53, 60
6, 134208, Note_off_c, 4, 53, 0
6, 134208, Note_on_c, 4, 53, 92
6, 134592, Note_off_c, 4, 53, 0
6, 134592, Note_on_c, 4, 53, 92
6, 134784, Note_off_c, 4, 53, 0
6, 134784, Note_on_c, 4, 51, 92
6, 135168, Note_off_c, 4, 51, 0
6, 135168, Note_on_c, 4, 51, 92
6, 135360, Note_off_c, 4, 51, 0
6, 135360, Note_on_c, 4, 51, 92
6, 135744, Note_off_c, 4, 51, 0
6, 135744, Note_on_c, 4, 51, 92
6, 135936, Note_off_c, 4, 51, 0
6, 135936, Note_on_c, 4, 50, 92
6, 136320, Note_off_c, 4, 50, 0
6, 136320, Note_on_c, 4, 50, 92
6, 136512, Note_off_c, 4, 50, 0
6, 136512, Note_on_c, 4, 50, 60
6, 136896, Note_off_c, 4, 50, 0
6, 136896, Note_on_c, 4, 50, 60
6, 137088, Note_off_c, 4, 50, 0
6, 137088, Note_on_c, 4, 48, 60
6, 137472, Note_off_c, 4, 48, 0
6, 137472, Note_on_c, 4, 60, 60
6, 137664, Note_off_c, 4, 60, 0
6, 137664, Note_on_c, 4, 60, 60
6, 138048, Note_off_c, 4, 60, 0
6, 138048, Note_on_c, 4, 48, 60
6, 138240, Note_off_c, 4, 48, 0
6, 138240, Note_on_c, 4, 46, 92
6, 138624, Note_off_c, 4, 46, 0
6, 138624, Note_on_c, 4, 58, 92
6, 138816, Note_off_c, 4, 58, 0
6, 138816, Note_on_c, 4, 58, 92
6, 139200, Note_off_c, 4, 58, 0
6, 139200, Note_on_c, 4, 46, 92
6, 139392, Note_off_c, 4, 46, 0
6, 139392, Note_on_c, 4, 44, 92
6, 139776, Note_off_c, 4, 44, 0
6, 139776, Note_on_c, 4, 56, 92
6, 139968, Note_off_c, 4, 56, 0
6, 139968, Note_on_c, 4, 56, 92
6, 140352, Note_off_c, 4, 56, 0
6, 140352, Note_on_c, 4, 44, 92
6, 140544, Note_off_c, 4, 44, 0
6, 140544, Note_on_c, 4, 43, 92
6, 140928, Note_off_c, 4, 43, 0
6, 140928, Note_on_c, 4, 55, 92
6, 141120, Note_off_c, 4, 55, 0
6, 141120, Note_on_c, 4, 55, 60
6, 141504, Note_off_c, 4, 55, 0
6, 141504, Note_on_c, 4, 43, 60
6, 141696, Note_off_c, 4, 43, 0
6, 141696, Note_on_c, 4, 41, 60
6, 142080, Note_off_c, 4, 41, 0
6, 142080, Note_on_c, 4, 53, 60
6, 142272, Note_off_c, 4, 53, 0
6, 142272, Note_on_c, 4, 53, 60
6, 142656, Note_off_c, 4, 53, 0
6, 142656, Note_on_c, 4, 41, 60
6, 142848, Note_off_c, 4, 41, 0
6, 142848, Note_on_c, 4, 39, 60
6, 143232, Note_off_c, 4, 39, 0
6, 143232, Note_on_c, 4, 51, 60
6, 143424, Note_off_c, 4, 51, 0
6, 143424, Note_on_c, 4, 50, 60
6, 143808, Note_off_c, 4, 50, 0
6, 143808, Note_on_c, 4, 38, 60
6, 144000, Note_off_c, 4, 38, 0
6, 144000, Note_on_c, 4, 36, 60
6, 144384, Note_off_c, 4, 36, 0
6, 144384, Note_on_c, 4, 60, 60
6, 144576, Note_off_c, 4, 60, 0
6, 144576, Note_on_c, 4, 60, 60
6, 144960, Note_off_c, 4, 60, 0
6, 144960, Note_on_c, 4, 48, 60
6, 145152, Note_off_c, 4, 48, 0
6, 145152, Note_on_c, 4, 46, 60
6, 145536, Note_off_c, 4, 46, 0
6, 145536, Note_on_c, 4, 58, 60
6, 145728, Note_off_c, 4, 58, 0
6, 145728, Note_on_c, 4, 58, 60
6, 146112, Note_off_c, 4, 58, 0
6, 146112, Note_on_c, 4, 46, 60
6, 146304, Note_off_c, 4, 46, 0
6, 146304, Note_on_c, 4, 44, 60
6, 146688, Note_off_c, 4, 44, 0
6, 146688, Note_on_c, 4, 46, 60
6, 146880, Note_off_c, 4, 46, 0
6, 146880, Note_on_c, 4, 48, 60
6, 147264, Note_off_c, 4, 48, 0
6, 147264, Note_on_c, 4, 44, 60
6, 147456, Note_off_c, 4, 44, 0
6, 147456, Note_on_c, 4, 46, 60
6, 147840, Note_off_c, 4, 46, 0
6, 147840, Note_on_c, 4, 58, 60
6, 148032, Note_off_c, 4, 58, 0
6, 148032, Note_on_c, 4, 56, 60
6, 148416, Note_off_c, 4, 56, 0
6, 148416, Note_on_c, 4, 44, 60
6, 148608, Note_off_c, 4, 44, 0
6, 148608, Note_on_c, 4, 43, 60
6, 148992, Note_off_c, 4, 43, 0
6, 148992, Note_on_c, 4, 55, 60
6, 149184, Note_off_c, 4, 55, 0
6, 149184, Note_on_c, 4, 55, 60
6, 149568, Note_off_c, 4, 55, 0
6, 149568, Note_on_c, 4, 43, 60
6, 149760, Note_off_c, 4, 43, 0
6, 149760, Note_on_c, 4, 48, 60
6, 150144, Note_off_c, 4, 48, 0
6, 150144, Note_on_c, 4, 60, 60
6, 150336, Note_off_c, 4, 60, 0
6, 150336, Note_on_c, 4, 60, 60
6, 150720, Note_off_c, 4, 60, 0
6, 150720, Note_on_c, 4, 48, 60
6, 150912, Note_off_c, 4, 48, 0
6, 150912, Note_on_c, 4, 41, 60
6, 151296, Note_off_c, 4, 41, 0
6, 151296, Note_on_c, 4, 53, 60
6, 151488, Note_off_c, 4, 53, 0
6, 151488, Note_on_c, 4, 53, 60
6, 151872, Note_off_c, 4, 53, 0
6, 151872, Note_on_c, 4, 41, 60
6, 152064, Note_off_c, 4, 41, 0
6, 152064, Note_on_c, 4, 46, 60
6, 152256, Note_off_c, 4, 46, 0
6, 152256, Note_on_c, 4, 48, 60
6, 152448, Note_off_c, 4, 48, 0
6, 152448, Note_on_c, 4, 50, 60
6, 152640, Note_off_c, 4, 50, 0
6, 152640, Note_on_c, 4, 51, 60
6, 152832, Note_off_c, 4, 51, 0
6, 152832, Note_on_c, 4, 53, 60
6, 153024, Note_off_c, 4, 53, 0
6, 153024, Note_on_c, 4, 51, 60
6, 153216, Note_off_c, 4, 51, 0
6, 153216, Note_on_c, 4, 50, 60
6, 153408, Note_off_c, 4, 50, 0
6, 153408, Note_on_c, 4, 51, 60
6, 153600, Note_off_c, 4, 51, 0
6, 153600, Note_on_c, 4, 50, 60
6, 153792, Note_off_c, 4, 50, 0
6, 153792, Note_on_c, 4, 48, 60
6, 153984, Note_off_c, 4, 48, 0
6, 153984, Note_on_c, 4, 50, 60
6, 154176, Note_off_c, 4, 50, 0
6, 154176, Note_on_c, 4, 48, 60
6, 154368, Note_off_c, 4, 48, 0
6, 154368, Note_on_c, 4, 46, 60
6, 154560, Note_off_c, 4, 46, 0
6, 154560, Note_on_c, 4, 43, 60
6, 154752, Note_off_c, 4, 43, 0
6, 154752, Note_on_c, 4, 41, 60
6, 154944, Note_off_c, 4, 41, 0
6, 154944, Note_on_c, 4, 40, 60
6, 155328, Note_off_c, 4, 40, 0
6, 155328, Note_on_c, 4, 52, 60
6, 155520, Note_off_c, 4, 52, 0
6, 155520, Note_on_c, 4, 53, 60
6, 155904, Note_off_c, 4, 53, 0
6, 155904, Note_on_c, 4, 41, 60
6, 156096, Note_off_c, 4, 41, 0
6, 156096, Note_on_c, 4, 43, 60
6, 156480, Note_off_c, 4, 43, 0
6, 156480, Note_on_c, 4, 55, 60
6, 156672, Note_off_c, 4, 55, 0
6, 156672, Note_on_c, 4, 53, 60
6, 157056, Note_off_c, 4, 53, 0
6, 157056, Note_on_c, 4, 41, 60
6, 157248, Note_off_c, 4, 41, 0
6, 157248, Note_on_c, 4, 39, 60
6, 157440, Note_off_c, 4, 39, 0
6, 157440, Note_on_c, 4, 55, 60
6, 157632, Note_off_c, 4, 55, 0
6, 157632, Note_on_c, 4, 53, 60
6, 157824, Note_off_c, 4, 53, 0
6, 157824, Note_on_c, 4, 51, 60
6, 158016, Note_off_c, 4, 51, 0
6, 158016, Note_on_c, 4, 50, 60
6, 158208, Note_off_c, 4, 50, 0
6, 158208, Note_on_c, 4, 55, 60
6, 158400, Note_off_c, 4, 55, 0
6, 158400, Note_on_c, 4, 51, 60
6, 158592, Note_off_c, 4, 51, 0
6, 158592, Note_on_c, 4, 53, 60
6, 158784, Note_off_c, 4, 53, 0
6, 158784, Note_on_c, 4, 41, 60
6, 158976, Note_off_c, 4, 41, 0
6, 158976, Note_on_c, 4, 46, 60
6, 159552, Note_off_c, 4, 46, 0
6, 159552, Note_on_c, 4, 56, 60
6, 159936, Note_off_c, 4, 56, 0
6, 159936, Note_on_c, 4, 44, 60
6, 160128, Note_off_c, 4, 44, 0
6, 160128, Note_on_c, 4, 43, 60
6, 160512, Note_off_c, 4, 43, 0
6, 160512, Note_on_c, 4, 55, 60
6, 160704, Note_off_c, 4, 55, 0
6, 160704, Note_on_c, 4, 53, 60
6, 161088, Note_off_c, 4, 53, 0
6, 161088, Note_on_c, 4, 41, 60
6, 161280, Note_off_c, 4, 41, 0
6, 161280, Note_on_c, 4, 39, 60
6, 161664, Note_off_c, 4, 39, 0
6, 161664, Note_on_c, 4, 51, 60
6, 161856, Note_off_c, 4, 51, 0
6, 161856, Note_on_c, 4, 50, 60
6, 162240, Note_off_c, 4, 50, 0
6, 162240, Note_on_c, 4, 38, 60
6, 162432, Note_off_c, 4, 38, 0
6, 162432, Note_on_c, 4, 36, 60
6, 162816, Note_off_c, 4, 36, 0
6, 162816, Note_on_c, 4, 48, 60
6, 163008, Note_off_c, 4, 48, 0
6, 163008, Note_on_c, 4, 46, 60
6, 163392, Note_off_c, 4, 46, 0
6, 163392, Note_on_c, 4, 43, 60
6, 163584, Note_off_c, 4, 43, 0
6, 163584, Note_on_c, 4, 45, 60
6, 163968, Note_off_c, 4, 45, 0
6, 163968, Note_on_c, 4, 41, 60
6, 164160, Note_off_c, 4, 41, 0
6, 164160, Note_on_c, 4, 43, 75
6, 164544, Note_off_c, 4, 43, 0
6, 164544, Note_on_c, 4, 45, 75
6, 164736, Note_off_c, 4, 45, 0
6, 164736, Note_on_c, 4, 46, 75
6, 165120, Note_off_c, 4, 46, 0
6, 165120, Note_on_c, 4, 51, 75
6, 165312, Note_off_c, 4, 51, 0
6, 165312, Note_on_c, 4, 53, 75
6, 165696, Note_off_c, 4, 53, 0
6, 165696, Note_on_c, 4, 41, 75
6, 165888, Note_off_c, 4, 41, 0
6, 165888, Note_on_c, 4, 46, 75
6, 166272, Note_off_c, 4, 46, 0
6, 166272, Note_on_c, 4, 58, 75
6, 166464, Note_off_c, 4, 58, 0
6, 166464, Note_on_c, 4, 58, 92
6, 166848, Note_off_c, 4, 58, 0
6, 166848, Note_on_c, 4, 46, 92
6, 167040, Note_off_c, 4, 46, 0
6, 167040, Note_on_c, 4, 46, 92
6, 167424, Note_off_c, 4, 46, 0
6, 167424, Note_on_c, 4, 58, 92
6, 167616, Note_off_c, 4, 58, 0
6, 167616, Note_on_c, 4, 58, 92
6, 168000, Note_off_c, 4, 58, 0
6, 168000, Note_on_c, 4, 46, 92
6, 168192, Note_off_c, 4, 46, 0
6, 168192, Note_on_c, 4, 46, 92
6, 168576, Note_off_c, 4, 46, 0
6, 168576, Note_on_c, 4, 58, 92
6, 168768, Note_off_c, 4, 58, 0
6, 168768, Note_on_c, 4, 57, 92
6, 169152, Note_off_c, 4, 57, 0
6, 169152, Note_on_c, 4, 45, 92
6, 169344, Note_off_c, 4, 45, 0
6, 169344, Note_on_c, 4, 43, 92
6, 169728, Note_off_c, 4, 43, 0
6, 169728, Note_on_c, 4, 55, 92
6, 169920, Note_off_c, 4, 55, 0
6, 169920, Note_on_c, 4, 55, 92
6, 170304, Note_off_c, 4, 55, 0
6, 170304, Note_on_c, 4, 43, 92
6, 170496, Note_off_c, 4, 43, 0
6, 170496, Note_on_c, 4, 41, 92
6, 170880, Note_off_c, 4, 41, 0
6, 170880, Note_on_c, 4, 53, 92
6, 171072, Note_off_c, 4, 53, 0
6, 171072, Note_on_c, 4, 53, 92
6, 171456, Note_off_c, 4, 53, 0
6, 171456, Note_on_c, 4, 41, 92
6, 171648, Note_off_c, 4, 41, 0
6, 171648, Note_on_c, 4, 39, 92
6, 172032, Note_off_c, 4, 39, 0
6, 172032, Note_on_c, 4, 41, 92
6, 172224, Note_off_c, 4, 41, 0
6, 172224, Note_on_c, 4, 43, 92
6, 172608, Note_off_c, 4, 43, 0
6, 172608, Note_on_c, 4, 39, 92
6, 172800, Note_off_c, 4, 39, 0
6, 172800, Note_on_c, 4, 41, 92
6, 173568, Note_off_c, 4, 41, 0
6, 173568, Note_on_c, 4, 45, 92
6, 173632, Note_off_c, 4, 45, 0
6, 173760, Note_on_c, 4, 48, 92
6, 173824, Note_off_c, 4, 48, 0
6, 173952, Note_on_c, 4, 51, 92
6, 174336, Note_off_c, 4, 51, 0
6, 174528, Note_on_c, 4, 41, 92
6, 174592, Note_off_c, 4, 41, 0
6, 174720, Note_on_c, 4, 45, 92
6, 174784, Note_off_c, 4, 45, 0
6, 174912, Note_on_c, 4, 48, 92
6, 174976, Note_off_c, 4, 48, 0
6, 175104, Note_on_c, 4, 51, 92
6, 175488, Note_off_c, 4, 51, 0
6, 175680, Note_on_c, 4, 46, 92
6, 175744, Note_off_c, 4, 46, 0
6, 175872, Note_on_c, 4, 50, 92
6, 175936, Note_off_c, 4, 50, 0
6, 176064, Note_on_c, 4, 53, 92
6, 176128, Note_off_c, 4, 53, 0
6, 176256, Note_on_c, 4, 56, 127
6, 176640, Note_off_c, 4, 56, 0
6, 176832, Note_on_c, 4, 46, 92
6, 176896, Note_off_c, 4, 46, 0
6, 177024, Note_on_c, 4, 50, 92
6, 177088, Note_off_c, 4, 50, 0
6, 177216, Note_on_c, 4, 53, 92
6, 177280, Note_off_c, 4, 53, 0
6, 177408, Note_on_c, 4, 56, 127
6, 177792, Note_off_c, 4, 56, 0
6, 177984, Note_on_c, 4, 51, 92
6, 178176, Note_off_c, 4, 51, 0
6, 178176, Note_on_c, 4, 53, 92
6, 178368, Note_off_c, 4, 53, 0
6, 178368, Note_on_c, 4, 51, 92
6, 178560, Note_off_c, 4, 51, 0
6, 178560, Note_on_c, 4, 50, 92
6, 178752, Note_off_c, 4, 50, 0
6, 178752, Note_on_c, 4, 51, 92
6, 178944, Note_off_c, 4, 51, 0
6, 178944, Note_on_c, 4, 50, 92
6, 179136, Note_off_c, 4, 50, 0
6, 179136, Note_on_c, 4, 48, 92
6, 179328, Note_off_c, 4, 48, 0
6, 179328, Note_on_c, 4, 50, 92
6, 179520, Note_off_c, 4, 50, 0
6, 179520, Note_on_c, 4, 48, 92
6, 179712, Note_off_c, 4, 48, 0
6, 179712, Note_on_c, 4, 46, 92
6, 179904, Note_off_c, 4, 46, 0
6, 179904, Note_on_c, 4, 43, 92
6, 180096, Note_off_c, 4, 43, 0
6, 180096, Note_on_c, 4, 41, 92
6, 180288, Note_off_c, 4, 41, 0
6, 180288, Note_on_c, 4, 40, 92
6, 180672, Note_off_c, 4, 40, 0
6, 180672, Note_on_c, 4, 52, 92
6, 180864, Note_off_c, 4, 52, 0
6, 180864, Note_on_c, 4, 53, 92
6, 181248, Note_off_c, 4, 53, 0
6, 181248, Note_on_c, 4, 41, 92
6, 181440, Note_off_c, 4, 41, 0
6, 181440, Note_on_c, 4, 43, 92
6, 181824, Note_off_c, 4, 43, 0
6, 181824, Note_on_c, 4, 55, 92
6, 182016, Note_off_c, 4, 55, 0
6, 182016, Note_on_c, 4, 53, 92
6, 182400, Note_off_c, 4, 53, 0
6, 182400, Note_on_c, 4, 41, 92
6, 182592, Note_off_c, 4, 41, 0
6, 182592, Note_on_c, 4, 39, 92
6, 182784, Note_off_c, 4, 39, 0
6, 182784, Note_on_c, 4, 55, 92
6, 182976, Note_off_c, 4, 55, 0
6, 182976, Note_on_c, 4, 53, 92
6, 183168, Note_off_c, 4, 53, 0
6, 183168, Note_on_c, 4, 51, 92
6, 183360, Note_off_c, 4, 51, 0
6, 183360, Note_on_c, 4, 50, 92
6, 183552, Note_off_c, 4, 50, 0
6, 183552, Note_on_c, 4, 55, 92
6, 183744, Note_off_c, 4, 55, 0
6, 183744, Note_on_c, 4, 51, 92
6, 183936, Note_off_c, 4, 51, 0
6, 183936, Note_on_c, 4, 53, 92
6, 184128, Note_off_c, 4, 53, 0
6, 184128, Note_on_c, 4, 41, 92
6, 184320, Note_off_c, 4, 41, 0
6, 184320, Note_on_c, 4, 46, 92
6, 184704, Note_off_c, 4, 46, 0
6, 184704, End_track
7, 0, Start_track
7, 0, Title_t, "Double Bass"
7, 0, Control_c, 5, 0, 0
7, 0, Program_c, 5, 43
7, 0, Control_c, 5, 10, 64
7, 0, Key_signature, -2, "major"
7, 0, Control_c, 5, 121, 0
7, 0, Control_c, 5, 7, 127
7, 0, Note_on_c, 5, 46, 63
7, 320, Note_off_c, 5, 46, 0
7, 384, Note_on_c, 5, 58, 63
7, 572, Note_off_c, 5, 58, 0
7, 576, Note_on_c, 5, 58, 63
7, 896, Note_off_c, 5, 58, 0
7, 960, Note_on_c, 5, 46, 63
7, 1148, Note_off_c, 5, 46, 0
7, 1152, Note_on_c, 5, 46, 63
7, 1472, Note_off_c, 5, 46, 0
7, 1536, Note_on_c, 5, 58, 63
7, 1724, Note_off_c, 5, 58, 0
7, 1728, Note_on_c, 5, 58, 63
7, 2048, Note_off_c, 5, 58, 0
7, 2112, Note_on_c, 5, 46, 63
7, 2300, Note_off_c, 5, 46, 0
7, 2304, Note_on_c, 5, 46, 63
7, 2624, Note_off_c, 5, 46, 0
7, 2688, Note_on_c, 5, 58, 63
7, 2880, Note_off_c, 5, 58, 0
7, 2880, Note_on_c, 5, 57, 63
7, 3200, Note_off_c, 5, 57, 0
7, 3264, Note_on_c, 5, 45, 63
7, 3456, Note_off_c, 5, 45, 0
7, 3456, Note_on_c, 5, 43, 63
7, 3776, Note_off_c, 5, 43, 0
7, 3840, Note_on_c, 5, 55, 63
7, 4028, Note_off_c, 5, 55, 0
7, 4032, Note_on_c, 5, 55, 63
7, 4352, Note_off_c, 5, 55, 0
7, 4416, Note_on_c, 5, 43, 63
7, 4608, Note_off_c, 5, 43, 0
7, 4608, Note_on_c, 5, 41, 63
7, 4928, Note_off_c, 5, 41, 0
7, 4992, Note_on_c, 5, 53, 63
7, 5180, Note_off_c, 5, 53, 0
7, 5184, Note_on_c, 5, 53, 63
7, 5504, Note_off_c, 5, 53, 0
7, 5568, Note_on_c, 5, 41, 63
7, 5760, Note_off_c, 5, 41, 0
7, 5760, Note_on_c, 5, 39, 63
7, 6080, Note_off_c, 5, 39, 0
7, 6144, Note_on_c, 5, 41, 63
7, 6336, Note_off_c, 5, 41, 0
7, 6336, Note_on_c, 5, 43, 63
7, 6656, Note_off_c, 5, 43, 0
7, 6720, Note_on_c, 5, 39, 63
7, 6912, Note_off_c, 5, 39, 0
7, 6912, Note_on_c, 5, 41, 63
7, 7484, Note_off_c, 5, 41, 0
7, 7488, Note_on_c, 5, 41, 63
7, 7676, Note_off_c, 5, 41, 0
7, 7680, Note_on_c, 5, 45, 63
7, 7868, Note_off_c, 5, 45, 0
7, 7872, Note_on_c, 5, 48, 63
7, 8060, Note_off_c, 5, 48, 0
7, 8064, Note_on_c, 5, 51, 63
7, 8448, Note_off_c, 5, 51, 0
7, 8640, Note_on_c, 5, 53, 63
7, 8828, Note_off_c, 5, 53, 0
7, 8832, Note_on_c, 5, 57, 63
7, 9020, Note_off_c, 5, 57, 0
7, 9024, Note_on_c, 5, 60, 63
7, 9212, Note_off_c, 5, 60, 0
7, 9216, Note_on_c, 5, 51, 63
7, 9728, Note_off_c, 5, 51, 0
7, 9792, Note_on_c, 5, 46, 63
7, 9980, Note_off_c, 5, 46, 0
7, 9984, Note_on_c, 5, 50, 63
7, 10172, Note_off_c, 5, 50, 0
7, 10176, Note_on_c, 5, 53, 63
7, 10364, Note_off_c, 5, 53, 0
7, 10368, Note_on_c, 5, 56, 63
7, 10688, Note_off_c, 5, 56, 0
7, 11520, Note_on_c, 5, 56, 63
7, 12032, Note_off_c, 5, 56, 0
7, 12096, Note_on_c, 5, 51, 63
7, 12288, Note_off_c, 5, 51, 0
7, 12288, Note_on_c, 5, 53, 63
7, 12476, Note_off_c, 5, 53, 0
7, 12480, Note_on_c, 5, 51, 63
7, 12668, Note_off_c, 5, 51, 0
7, 12672, Note_on_c, 5, 50, 63
7, 12864, Note_off_c, 5, 50, 0
7, 12864, Note_on_c, 5, 51, 63
7, 13052, Note_off_c, 5, 51, 0
7, 13056, Note_on_c, 5, 50, 63
7, 13244, Note_off_c, 5, 50, 0
7, 13248, Note_on_c, 5, 48, 63
7, 13440, Note_off_c, 5, 48, 0
7, 13440, Note_on_c, 5, 50, 63
7, 13628, Note_off_c, 5, 50, 0
7, 13632, Note_on_c, 5, 48, 63
7, 13820, Note_off_c, 5, 48, 0
7, 13824, Note_on_c, 5, 46, 66
7, 14012, Note_off_c, 5, 46, 0
7, 14016, Note_on_c, 5, 55, 69
7, 14208, Note_off_c, 5, 55, 0
7, 14208, Note_on_c, 5, 53, 73
7, 14396, Note_off_c, 5, 53, 0
7, 14400, Note_on_c, 5, 52, 77
7, 14588, Note_off_c, 5, 52, 0
7, 14592, Note_on_c, 5, 40, 77
7, 14780, Note_off_c, 5, 40, 0
7, 14784, Note_on_c, 5, 52, 77
7, 14976, Note_off_c, 5, 52, 0
7, 14976, Note_on_c, 5, 53, 77
7, 15164, Note_off_c, 5, 53, 0
7, 15168, Note_on_c, 5, 41, 77
7, 15356, Note_off_c, 5, 41, 0
7, 15360, Note_on_c, 5, 53, 77
7, 15552, Note_off_c, 5, 53, 0
7, 15552, Note_on_c, 5, 55, 77
7, 15740, Note_off_c, 5, 55, 0
7, 15744, Note_on_c, 5, 43, 77
7, 15932, Note_off_c, 5, 43, 0
7, 15936, Note_on_c, 5, 55, 77
7, 16128, Note_off_c, 5, 55, 0
7, 16128, Note_on_c, 5, 53, 77
7, 16448, Note_off_c, 5, 53, 0
7, 16512, Note_on_c, 5, 53, 77
7, 16700, Note_off_c, 5, 53, 0
7, 16704, Note_on_c, 5, 51, 77
7, 16896, Note_off_c, 5, 51, 0
7, 16896, Note_on_c, 5, 55, 77
7, 17084, Note_off_c, 5, 55, 0
7, 17088, Note_on_c, 5, 53, 77
7, 17276, Note_off_c, 5, 53, 0
7, 17280, Note_on_c, 5, 51, 77
7, 17472, Note_off_c, 5, 51, 0
7, 17472, Note_on_c, 5, 50, 77
7, 17660, Note_off_c, 5, 50, 0
7, 17664, Note_on_c, 5, 55, 77
7, 17852, Note_off_c, 5, 55, 0
7, 17856, Note_on_c, 5, 51, 77
7, 18044, Note_off_c, 5, 51, 0
7, 18240, Note_on_c, 5, 41, 77
7, 18428, Note_off_c, 5, 41, 0
7, 18432, Note_on_c, 5, 46, 77
7, 18816, Note_off_c, 5, 46, 0
7, 18816, Note_on_c, 5, 46, 77
7, 19004, Note_off_c, 5, 46, 0
7, 19008, Note_on_c, 5, 46, 63
7, 19328, Note_off_c, 5, 46, 0
7, 19392, Note_on_c, 5, 46, 63
7, 19580, Note_off_c, 5, 46, 0
7, 19584, Note_on_c, 5, 46, 63
7, 19904, Note_off_c, 5, 46, 0
7, 20544, Note_on_c, 5, 46, 63
7, 20732, Note_off_c, 5, 46, 0
7, 20736, Note_on_c, 5, 46, 63
7, 21056, Note_off_c, 5, 46, 0
7, 21120, Note_on_c, 5, 58, 63
7, 21308, Note_off_c, 5, 58, 0
7, 21312, Note_on_c, 5, 58, 63
7, 21632, Note_off_c, 5, 58, 0
7, 21696, Note_on_c, 5, 46, 63
7, 21884, Note_off_c, 5, 46, 0
7, 21888, Note_on_c, 5, 46, 63
7, 22400, Note_off_c, 5, 46, 0
7, 22848, Note_on_c, 5, 50, 63
7, 23036, Note_off_c, 5, 50, 0
7, 23040, Note_on_c, 5, 51, 63
7, 23360, Note_off_c, 5, 51, 0
7, 23424, Note_on_c, 5, 51, 63
7, 23612, Note_off_c, 5, 51, 0
7, 23616, Note_on_c, 5, 51, 63
7, 23936, Note_off_c, 5, 51, 0
7, 24000, Note_on_c, 5, 39, 63
7, 24188, Note_off_c, 5, 39, 0
7, 24192, Note_on_c, 5, 41, 63
7, 24512, Note_off_c, 5, 41, 0
7, 24576, Note_on_c, 5, 53, 63
7, 24764, Note_off_c, 5, 53, 0
7, 24768, Note_on_c, 5, 53, 63
7, 25088, Note_off_c, 5, 53, 0
7, 25152, Note_on_c, 5, 41, 63
7, 25340, Note_off_c, 5, 41, 0
7, 25344, Note_on_c, 5, 46, 63
7, 25664, Note_off_c, 5, 46, 0
7, 26304, Note_on_c, 5, 46, 50
7, 26492, Note_off_c, 5, 46, 0
7, 26496, Note_on_c, 5, 46, 50
7, 26816, Note_off_c, 5, 46, 0
7, 27456, Note_on_c, 5, 46, 50
7, 27644, Note_off_c, 5, 46, 0
7, 27648, Note_on_c, 5, 46, 50
7, 27968, Note_off_c, 5, 46, 0
7, 28608, Note_on_c, 5, 45, 50
7, 28800, Note_off_c, 5, 45, 0
7, 28800, Note_on_c, 5, 43, 50
7, 29120, Note_off_c, 5, 43, 0
7, 29760, Note_on_c, 5, 43, 50
7, 29952, Note_off_c, 5, 43, 0
7, 29952, Note_on_c, 5, 41, 50
7, 30272, Note_off_c, 5, 41, 0
7, 30336, Note_on_c, 5, 53, 50
7, 30524, Note_off_c, 5, 53, 0
7, 30528, Note_on_c, 5, 53, 50
7, 30848, Note_off_c, 5, 53, 0
7, 30912, Note_on_c, 5, 41, 50
7, 31104, Note_off_c, 5, 41, 0
7, 31104, Note_on_c, 5, 39, 50
7, 31424, Note_off_c, 5, 39, 0
7, 31488, Note_on_c, 5, 41, 50
7, 31680, Note_off_c, 5, 41, 0
7, 31680, Note_on_c, 5, 43, 50
7, 32000, Note_off_c, 5, 43, 0
7, 32064, Note_on_c, 5, 39, 50
7, 32256, Note_off_c, 5, 39, 0
7, 32256, Note_on_c, 5, 41, 50
7, 32576, Note_off_c, 5, 41, 0
7, 32640, Note_on_c, 5, 53, 50
7, 32828, Note_off_c, 5, 53, 0
7, 32832, Note_on_c, 5, 53, 77
7, 33152, Note_off_c, 5, 53, 0
7, 33216, Note_on_c, 5, 53, 77
7, 33404, Note_off_c, 5, 53, 0
7, 33408, Note_on_c, 5, 51, 77
7, 33728, Note_off_c, 5, 51, 0
7, 33792, Note_on_c, 5, 51, 77
7, 33980, Note_off_c, 5, 51, 0
7, 33984, Note_on_c, 5, 51, 77
7, 34304, Note_off_c, 5, 51, 0
7, 34368, Note_on_c, 5, 51, 77
7, 34556, Note_off_c, 5, 51, 0
7, 34560, Note_on_c, 5, 50, 77
7, 34880, Note_off_c, 5, 50, 0
7, 34944, Note_on_c, 5, 50, 77
7, 35132, Note_off_c, 5, 50, 0
7, 35136, Note_on_c, 5, 50, 50
7, 35456, Note_off_c, 5, 50, 0
7, 35520, Note_on_c, 5, 50, 50
7, 35708, Note_off_c, 5, 50, 0
7, 35712, Note_on_c, 5, 48, 50
7, 36032, Note_off_c, 5, 48, 0
7, 36096, Note_on_c, 5, 60, 50
7, 36284, Note_off_c, 5, 60, 0
7, 36288, Note_on_c, 5, 60, 50
7, 36608, Note_off_c, 5, 60, 0
7, 36672, Note_on_c, 5, 48, 50
7, 36860, Note_off_c, 5, 48, 0
7, 36864, Note_on_c, 5, 46, 77
7, 37184, Note_off_c, 5, 46, 0
7, 37248, Note_on_c, 5, 58, 77
7, 37436, Note_off_c, 5, 58, 0
7, 37440, Note_on_c, 5, 58, 77
7, 37760, Note_off_c, 5, 58, 0
7, 37824, Note_on_c, 5, 46, 77
7, 38016, Note_off_c, 5, 46, 0
7, 38016, Note_on_c, 5, 44, 77
7, 38336, Note_off_c, 5, 44, 0
7, 38400, Note_on_c, 5, 56, 77
7, 38588, Note_off_c, 5, 56, 0
7, 38592, Note_on_c, 5, 56, 77
7, 38912, Note_off_c, 5, 56, 0
7, 38976, Note_on_c, 5, 44, 77
7, 39168, Note_off_c, 5, 44, 0
7, 39168, Note_on_c, 5, 43, 77
7, 39488, Note_off_c, 5, 43, 0
7, 39552, Note_on_c, 5, 55, 77
7, 39740, Note_off_c, 5, 55, 0
7, 39744, Note_on_c, 5, 55, 50
7, 40064, Note_off_c, 5, 55, 0
7, 40128, Note_on_c, 5, 43, 50
7, 40320, Note_off_c, 5, 43, 0
7, 40320, Note_on_c, 5, 41, 50
7, 40640, Note_off_c, 5, 41, 0
7, 40704, Note_on_c, 5, 53, 50
7, 40892, Note_off_c, 5, 53, 0
7, 40896, Note_on_c, 5, 53, 50
7, 41216, Note_off_c, 5, 53, 0
7, 41280, Note_on_c, 5, 41, 50
7, 41472, Note_off_c, 5, 41, 0
7, 41472, Note_on_c, 5, 39, 50
7, 41792, Note_off_c, 5, 39, 0
7, 41856, Note_on_c, 5, 51, 50
7, 42048, Note_off_c, 5, 51, 0
7, 42048, Note_on_c, 5, 50, 50
7, 42368, Note_off_c, 5, 50, 0
7, 42432, Note_on_c, 5, 38, 50
7, 42624, Note_off_c, 5, 38, 0
7, 42624, Note_on_c, 5, 36, 50
7, 42944, Note_off_c, 5, 36, 0
7, 43008, Note_on_c, 5, 60, 50
7, 43196, Note_off_c, 5, 60, 0
7, 43200, Note_on_c, 5, 60, 50
7, 43520, Note_off_c, 5, 60, 0
7, 43584, Note_on_c, 5, 48, 50
7, 43776, Note_off_c, 5, 48, 0
7, 43776, Note_on_c, 5, 46, 50
7, 44096, Note_off_c, 5, 46, 0
7, 44160, Note_on_c, 5, 58, 50
7, 44348, Note_off_c, 5, 58, 0
7, 44352, Note_on_c, 5, 58, 50
7, 44672, Note_off_c, 5, 58, 0
7, 44736, Note_on_c, 5, 46, 50
7, 44928, Note_off_c, 5, 46, 0
7, 44928, Note_on_c, 5, 44, 50
7, 45248, Note_off_c, 5, 44, 0
7, 45312, Note_on_c, 5, 46, 50
7, 45504, Note_off_c, 5, 46, 0
7, 45504, Note_on_c, 5, 48, 50
7, 45824, Note_off_c, 5, 48, 0
7, 45888, Note_on_c, 5, 44, 50
7, 46080, Note_off_c, 5, 44, 0
7, 46080, Note_on_c, 5, 46, 50
7, 46400, Note_off_c, 5, 46, 0
7, 46464, Note_on_c, 5, 58, 50
7, 46656, Note_off_c, 5, 58, 0
7, 46656, Note_on_c, 5, 56, 50
7, 46976, Note_off_c, 5, 56, 0
7, 47040, Note_on_c, 5, 44, 50
7, 47232, Note_off_c, 5, 44, 0
7, 47232, Note_on_c, 5, 43, 50
7, 47552, Note_off_c, 5, 43, 0
7, 47616, Note_on_c, 5, 55, 50
7, 47804, Note_off_c, 5, 55, 0
7, 47808, Note_on_c, 5, 55, 50
7, 48128, Note_off_c, 5, 55, 0
7, 48192, Note_on_c, 5, 43, 50
7, 48384, Note_off_c, 5, 43, 0
7, 48384, Note_on_c, 5, 48, 50
7, 48704, Note_off_c, 5, 48, 0
7, 48768, Note_on_c, 5, 60, 50
7, 48956, Note_off_c, 5, 60, 0
7, 48960, Note_on_c, 5, 60, 50
7, 49280, Note_off_c, 5, 60, 0
7, 49344, Note_on_c, 5, 48, 50
7, 49536, Note_off_c, 5, 48, 0
7, 49536, Note_on_c, 5, 41, 50
7, 49856, Note_off_c, 5, 41, 0
7, 49920, Note_on_c, 5, 53, 50
7, 50108, Note_off_c, 5, 53, 0
7, 50112, Note_on_c, 5, 53, 50
7, 50432, Note_off_c, 5, 53, 0
7, 50496, Note_on_c, 5, 41, 50
7, 50684, Note_off_c, 5, 41, 0
7, 50688, Note_on_c, 5, 46, 50
7, 50880, Note_off_c, 5, 46, 0
7, 50880, Note_on_c, 5, 48, 50
7, 51068, Note_off_c, 5, 48, 0
7, 51072, Note_on_c, 5, 50, 50
7, 51260, Note_off_c, 5, 50, 0
7, 51264, Note_on_c, 5, 51, 50
7, 51456, Note_off_c, 5, 51, 0
7, 51456, Note_on_c, 5, 53, 50
7, 51644, Note_off_c, 5, 53, 0
7, 51648, Note_on_c, 5, 51, 50
7, 51836, Note_off_c, 5, 51, 0
7, 51840, Note_on_c, 5, 50, 50
7, 52032, Note_off_c, 5, 50, 0
7, 52032, Note_on_c, 5, 51, 50
7, 52220, Note_off_c, 5, 51, 0
7, 52224, Note_on_c, 5, 50, 50
7, 52412, Note_off_c, 5, 50, 0
7, 52416, Note_on_c, 5, 48, 50
7, 52608, Note_off_c, 5, 48, 0
7, 52608, Note_on_c, 5, 50, 50
7, 52796, Note_off_c, 5, 50, 0
7, 52800, Note_on_c, 5, 48, 50
7, 52988, Note_off_c, 5, 48, 0
7, 52992, Note_on_c, 5, 46, 50
7, 53184, Note_off_c, 5, 46, 0
7, 53184, Note_on_c, 5, 43, 50
7, 53376, Note_off_c, 5, 43, 0
7, 53376, Note_on_c, 5, 41, 50
7, 53568, Note_off_c, 5, 41, 0
7, 53568, Note_on_c, 5, 40, 50
7, 53888, Note_off_c, 5, 40, 0
7, 53952, Note_on_c, 5, 52, 50
7, 54144, Note_off_c, 5, 52, 0
7, 54144, Note_on_c, 5, 53, 50
7, 54464, Note_off_c, 5, 53, 0
7, 54528, Note_on_c, 5, 41, 50
7, 54720, Note_off_c, 5, 41, 0
7, 54720, Note_on_c, 5, 43, 50
7, 55040, Note_off_c, 5, 43, 0
7, 55104, Note_on_c, 5, 55, 50
7, 55296, Note_off_c, 5, 55, 0
7, 55296, Note_on_c, 5, 53, 50
7, 55616, Note_off_c, 5, 53, 0
7, 55680, Note_on_c, 5, 41, 50
7, 55872, Note_off_c, 5, 41, 0
7, 55872, Note_on_c, 5, 39, 50
7, 56060, Note_off_c, 5, 39, 0
7, 56064, Note_on_c, 5, 55, 50
7, 56256, Note_off_c, 5, 55, 0
7, 56256, Note_on_c, 5, 53, 50
7, 56444, Note_off_c, 5, 53, 0
7, 56448, Note_on_c, 5, 51, 50
7, 56640, Note_off_c, 5, 51, 0
7, 56640, Note_on_c, 5, 50, 50
7, 56828, Note_off_c, 5, 50, 0
7, 56832, Note_on_c, 5, 55, 50
7, 57020, Note_off_c, 5, 55, 0
7, 57024, Note_on_c, 5, 51, 50
7, 57216, Note_off_c, 5, 51, 0
7, 57216, Note_on_c, 5, 53, 50
7, 57404, Note_off_c, 5, 53, 0
7, 57408, Note_on_c, 5, 41, 50
7, 57596, Note_off_c, 5, 41, 0
7, 57600, Note_on_c, 5, 46, 50
7, 58112, Note_off_c, 5, 46, 0
7, 58176, Note_on_c, 5, 56, 50
7, 58496, Note_off_c, 5, 56, 0
7, 58560, Note_on_c, 5, 44, 50
7, 58752, Note_off_c, 5, 44, 0
7, 58752, Note_on_c, 5, 43, 50
7, 59072, Note_off_c, 5, 43, 0
7, 59136, Note_on_c, 5, 55, 50
7, 59328, Note_off_c, 5, 55, 0
7, 59328, Note_on_c, 5, 53, 50
7, 59648, Note_off_c, 5, 53, 0
7, 59712, Note_on_c, 5, 41, 50
7, 59904, Note_off_c, 5, 41, 0
7, 59904, Note_on_c, 5, 39, 50
7, 60224, Note_off_c, 5, 39, 0
7, 60288, Note_on_c, 5, 51, 50
7, 60480, Note_off_c, 5, 51, 0
7, 60480, Note_on_c, 5, 50, 50
7, 60800, Note_off_c, 5, 50, 0
7, 60864, Note_on_c, 5, 38, 50
7, 61056, Note_off_c, 5, 38, 0
7, 61056, Note_on_c, 5, 36, 50
7, 61376, Note_off_c, 5, 36, 0
7, 61440, Note_on_c, 5, 48, 50
7, 61632, Note_off_c, 5, 48, 0
7, 61632, Note_on_c, 5, 46, 50
7, 61952, Note_off_c, 5, 46, 0
7, 62016, Note_on_c, 5, 43, 50
7, 62208, Note_off_c, 5, 43, 0
7, 62208, Note_on_c, 5, 45, 50
7, 62528, Note_off_c, 5, 45, 0
7, 62592, Note_on_c, 5, 41, 50
7, 62784, Note_off_c, 5, 41, 0
7, 62784, Note_on_c, 5, 43, 63
7, 63104, Note_off_c, 5, 43, 0
7, 63168, Note_on_c, 5, 45, 63
7, 63360, Note_off_c, 5, 45, 0
7, 63360, Note_on_c, 5, 46, 63
7, 63680, Note_off_c, 5, 46, 0
7, 63744, Note_on_c, 5, 51, 63
7, 63936, Note_off_c, 5, 51, 0
7, 63936, Note_on_c, 5, 53, 63
7, 64256, Note_off_c, 5, 53, 0
7, 64320, Note_on_c, 5, 41, 63
7, 64512, Note_off_c, 5, 41, 0
7, 64512, Note_on_c, 5, 46, 63
7, 64832, Note_off_c, 5, 46, 0
7, 64896, Note_on_c, 5, 58, 63
7, 65084, Note_off_c, 5, 58, 0
7, 65088, Note_on_c, 5, 58, 77
7, 65408, Note_off_c, 5, 58, 0
7, 65472, Note_on_c, 5, 46, 77
7, 65660, Note_off_c, 5, 46, 0
7, 65664, Note_on_c, 5, 46, 77
7, 65984, Note_off_c, 5, 46, 0
7, 66048, Note_on_c, 5, 58, 77
7, 66236, Note_off_c, 5, 58, 0
7, 66240, Note_on_c, 5, 58, 77
7, 66560, Note_off_c, 5, 58, 0
7, 66624, Note_on_c, 5, 46, 77
7, 66812, Note_off_c, 5, 46, 0
7, 66816, Note_on_c, 5, 46, 77
7, 67136, Note_off_c, 5, 46, 0
7, 67200, Note_on_c, 5, 58, 77
7, 67392, Note_off_c, 5, 58, 0
7, 67392, Note_on_c, 5, 57, 77
7, 67712, Note_off_c, 5, 57, 0
7, 67776, Note_on_c, 5, 45, 77
7, 67968, Note_off_c, 5, 45, 0
7, 67968, Note_on_c, 5, 43, 77
7, 68288, Note_off_c, 5, 43, 0
7, 68352, Note_on_c, 5, 55, 77
7, 68540, Note_off_c, 5, 55, 0
7, 68544, Note_on_c, 5, 55, 77
7, 68864, Note_off_c, 5, 55, 0
7, 68928, Note_on_c, 5, 43, 77
7, 69120, Note_off_c, 5, 43, 0
7, 69120, Note_on_c, 5, 41, 77
7, 69440, Note_off_c, 5, 41, 0
7, 69504, Note_on_c, 5, 53, 77
7, 69692, Note_off_c, 5, 53, 0
7, 69696, Note_on_c, 5, 53, 77
7, 70016, Note_off_c, 5, 53, 0
7, 70080, Note_on_c, 5, 41, 77
7, 70272, Note_off_c, 5, 41, 0
7, 70272, Note_on_c, 5, 39, 77
7, 70592, Note_off_c, 5, 39, 0
7, 70656, Note_on_c, 5, 41, 77
7, 70848, Note_off_c, 5, 41, 0
7, 70848, Note_on_c, 5, 43, 77
7, 71168, Note_off_c, 5, 43, 0
7, 71232, Note_on_c, 5, 39, 77
7, 71424, Note_off_c, 5, 39, 0
7, 71424, Note_on_c, 5, 41, 77
7, 72188, Note_off_c, 5, 41, 0
7, 72192, Note_on_c, 5, 45, 77
7, 72256, Note_off_c, 5, 45, 0
7, 72384, Note_on_c, 5, 48, 77
7, 72448, Note_off_c, 5, 48, 0
7, 72576, Note_on_c, 5, 51, 77
7, 72960, Note_off_c, 5, 51, 0
7, 73152, Note_on_c, 5, 41, 77
7, 73216, Note_off_c, 5, 41, 0
7, 73344, Note_on_c, 5, 45, 77
7, 73408, Note_off_c, 5, 45, 0
7, 73536, Note_on_c, 5, 48, 77
7, 73600, Note_off_c, 5, 48, 0
7, 73728, Note_on_c, 5, 51, 77
7, 74112, Note_off_c, 5, 51, 0
7, 74304, Note_on_c, 5, 46, 77
7, 74368, Note_off_c, 5, 46, 0
7, 74496, Note_on_c, 5, 50, 77
7, 74560, Note_off_c, 5, 50, 0
7, 74688, Note_on_c, 5, 53, 77
7, 74752, Note_off_c, 5, 53, 0
7, 74880, Note_on_c, 5, 56, 106
7, 75200, Note_off_c, 5, 56, 0
7, 75456, Note_on_c, 5, 46, 77
7, 75520, Note_off_c, 5, 46, 0
7, 75648, Note_on_c, 5, 50, 77
7, 75712, Note_off_c, 5, 50, 0
7, 75840, Note_on_c, 5, 53, 77
7, 75904, Note_off_c, 5, 53, 0
7, 76032, Note_on_c, 5, 56, 106
7, 76352, Note_off_c, 5, 56, 0
7, 76608, Note_on_c, 5, 51, 77
7, 76800, Note_off_c, 5, 51, 0
7, 76800, Note_on_c, 5, 53, 77
7, 76992, Note_off_c, 5, 53, 0
7, 76992, Note_on_c, 5, 51, 77
7, 77180, Note_off_c, 5, 51, 0
7, 77184, Note_on_c, 5, 50, 77
7, 77376, Note_off_c, 5, 50, 0
7, 77376, Note_on_c, 5, 51, 77
7, 77568, Note_off_c, 5, 51, 0
7, 77568, Note_on_c, 5, 50, 77
7, 77756, Note_off_c, 5, 50, 0
7, 77760, Note_on_c, 5, 48, 77
7, 77952, Note_off_c, 5, 48, 0
7, 77952, Note_on_c, 5, 50, 77
7, 78144, Note_off_c, 5, 50, 0
7, 78144, Note_on_c, 5, 48, 77
7, 78332, Note_off_c, 5, 48, 0
7, 78336, Note_on_c, 5, 46, 77
7, 78528, Note_off_c, 5, 46, 0
7, 78528, Note_on_c, 5, 43, 77
7, 78720, Note_off_c, 5, 43, 0
7, 78720, Note_on_c, 5, 41, 77
7, 78912, Note_off_c, 5, 41, 0
7, 78912, Note_on_c, 5, 40, 77
7, 79232, Note_off_c, 5, 40, 0
7, 79296, Note_on_c, 5, 52, 77
7, 79488, Note_off_c, 5, 52, 0
7, 79488, Note_on_c, 5, 53, 77
7, 79808, Note_off_c, 5, 53, 0
7, 79872, Note_on_c, 5, 41, 77
7, 80064, Note_off_c, 5, 41, 0
7, 80064, Note_on_c, 5, 43, 77
7, 80384, Note_off_c, 5, 43, 0
7, 80448, Note_on_c, 5, 55, 77
7, 80640, Note_off_c, 5, 55, 0
7, 80640, Note_on_c, 5, 53, 77
7, 80960, Note_off_c, 5, 53, 0
7, 81024, Note_on_c, 5, 41, 77
7, 81216, Note_off_c, 5, 41, 0
7, 81216, Note_on_c, 5, 39, 77
7, 81404, Note_off_c, 5, 39, 0
7, 81408, Note_on_c, 5, 55, 77
7, 81600, Note_off_c, 5, 55, 0
7, 81600, Note_on_c, 5, 53, 77
7, 81788, Note_off_c, 5, 53, 0
7, 81792, Note_on_c, 5, 51, 77
7, 81984, Note_off_c, 5, 51, 0
7, 81984, Note_on_c, 5, 50, 77
7, 82172, Note_off_c, 5, 50, 0
7, 82176, Note_on_c, 5, 55, 77
7, 82364, Note_off_c, 5, 55, 0
7, 82368, Note_on_c, 5, 51, 77
7, 82556, Note_off_c, 5, 51, 0
7, 82560, Note_on_c, 5, 53, 77
7, 82752, Note_off_c, 5, 53, 0
7, 82752, Note_on_c, 5, 41, 77
7, 82940, Note_off_c, 5, 41, 0
7, 82944, Note_on_c, 5, 46, 77
7, 83264, Note_off_c, 5, 46, 0
7, 83328, Note_on_c, 5, 45, 77
7, 83516, Note_off_c, 5, 45, 0
7, 83520, Note_on_c, 5, 43, 77
7, 83712, Note_off_c, 5, 43, 0
7, 83712, Note_on_c, 5, 50, 77
7, 83904, Note_off_c, 5, 50, 0
7, 83904, Note_on_c, 5, 48, 77
7, 84092, Note_off_c, 5, 48, 0
7, 84096, Note_on_c, 5, 46, 77
7, 84288, Note_off_c, 5, 46, 0
7, 84288, Note_on_c, 5, 45, 77
7, 84480, Note_off_c, 5, 45, 0
7, 84480, Note_on_c, 5, 43, 77
7, 84668, Note_off_c, 5, 43, 0
7, 84672, Note_on_c, 5, 48, 77
7, 84864, Note_off_c, 5, 48, 0
7, 84864, Note_on_c, 5, 45, 77
7, 85056, Note_off_c, 5, 45, 0
7, 85056, Note_on_c, 5, 42, 77
7, 85244, Note_off_c, 5, 42, 0
7, 85248, Note_on_c, 5, 43, 77
7, 85440, Note_off_c, 5, 43, 0
7, 85440, Note_on_c, 5, 45, 77
7, 85632, Note_off_c, 5, 45, 0
7, 85632, Note_on_c, 5, 46, 77
7, 85820, Note_off_c, 5, 46, 0
7, 85824, Note_on_c, 5, 48, 77
7, 86016, Note_off_c, 5, 48, 0
7, 86016, Note_on_c, 5, 50, 77
7, 86208, Note_off_c, 5, 50, 0
7, 86208, Note_on_c, 5, 51, 77
7, 86396, Note_off_c, 5, 51, 0
7, 86400, Note_on_c, 5, 41, 77
7, 86592, Note_off_c, 5, 41, 0
7, 86592, Note_on_c, 5, 43, 77
7, 86784, Note_off_c, 5, 43, 0
7, 86784, Note_on_c, 5, 45, 77
7, 86972, Note_off_c, 5, 45, 0
7, 86976, Note_on_c, 5, 46, 77
7, 87168, Note_off_c, 5, 46, 0
7, 87168, Note_on_c, 5, 48, 77
7, 87360, Note_off_c, 5, 48, 0
7, 87360, Note_on_c, 5, 50, 77
7, 87548, Note_off_c, 5, 50, 0
7, 87552, Note_on_c, 5, 39, 77
7, 87872, Note_off_c, 5, 39, 0
7, 87936, Note_on_c, 5, 51, 77
7, 88124, Note_off_c, 5, 51, 0
7, 88128, Note_on_c, 5, 51, 77
7, 88448, Note_off_c, 5, 51, 0
7, 88512, Note_on_c, 5, 48, 77
7, 88704, Note_off_c, 5, 48, 0
7, 88704, Note_on_c, 5, 42, 77
7, 89024, Note_off_c, 5, 42, 0
7, 89088, Note_on_c, 5, 54, 77
7, 89280, Note_off_c, 5, 54, 0
7, 89280, Note_on_c, 5, 55, 77
7, 89600, Note_off_c, 5, 55, 0
7, 89664, Note_on_c, 5, 48, 77
7, 89856, Note_off_c, 5, 48, 0
7, 89856, Note_on_c, 5, 50, 77
7, 90176, Note_off_c, 5, 50, 0
7, 90240, Note_on_c, 5, 38, 77
7, 90428, Note_off_c, 5, 38, 0
7, 90432, Note_on_c, 5, 50, 77
7, 90752, Note_off_c, 5, 50, 0
7, 90816, Note_on_c, 5, 50, 77
7, 91004, Note_off_c, 5, 50, 0
7, 91008, Note_on_c, 5, 50, 77
7, 91008, Note_on_c, 5, 57, 77
7, 91328, Note_off_c, 5, 50, 0
7, 91328, Note_off_c, 5, 57, 0
7, 91392, Note_on_c, 5, 50, 77
7, 91580, Note_off_c, 5, 50, 0
7, 91584, Note_on_c, 5, 50, 77
7, 91904, Note_off_c, 5, 50, 0
7, 91968, Note_on_c, 5, 50, 77
7, 92156, Note_off_c, 5, 50, 0
7, 92160, Note_on_c, 5, 50, 77
7, 92480, Note_off_c, 5, 50, 0
7, 92544, Note_on_c, 5, 38, 77
7, 92732, Note_off_c, 5, 38, 0
7, 92736, Note_on_c, 5, 43, 77
7, 92924, Note_off_c, 5, 43, 0
7, 92928, Note_on_c, 5, 58, 77
7, 93120, Note_off_c, 5, 58, 0
7, 93120, Note_on_c, 5, 55, 77
7, 93308, Note_off_c, 5, 55, 0
7, 93312, Note_on_c, 5, 55, 77
7, 93632, Note_off_c, 5, 55, 0
7, 93696, Note_on_c, 5, 55, 77
7, 93884, Note_off_c, 5, 55, 0
7, 93888, Note_on_c, 5, 55, 77
7, 94208, Note_off_c, 5, 55, 0
7, 94272, Note_on_c, 5, 55, 77
7, 94460, Note_off_c, 5, 55, 0
7, 94464, Note_on_c, 5, 55, 77
7, 94784, Note_off_c, 5, 55, 0
7, 94848, Note_on_c, 5, 43, 77
7, 95036, Note_off_c, 5, 43, 0
7, 95040, Note_on_c, 5, 55, 77
7, 95360, Note_off_c, 5, 55, 0
7, 95424, Note_on_c, 5, 55, 77
7, 95612, Note_off_c, 5, 55, 0
7, 95616, Note_on_c, 5, 48, 77
7, 95936, Note_off_c, 5, 48, 0
7, 96000, Note_on_c, 5, 50, 77
7, 96188, Note_off_c, 5, 50, 0
7, 96192, Note_on_c, 5, 51, 77
7, 96512, Note_off_c, 5, 51, 0
7, 96576, Note_on_c, 5, 51, 77
7, 96764, Note_off_c, 5, 51, 0
7, 96768, Note_on_c, 5, 50, 77
7, 97088, Note_off_c, 5, 50, 0
7, 97152, Note_on_c, 5, 50, 77
7, 97340, Note_off_c, 5, 50, 0
7, 97344, Note_on_c, 5, 48, 77
7, 97664, Note_off_c, 5, 48, 0
7, 97728, Note_on_c, 5, 36, 77
7, 97920, Note_off_c, 5, 36, 0
7, 97920, Note_on_c, 5, 38, 77
7, 98240, Note_off_c, 5, 38, 0
7, 98304, Note_on_c, 5, 50, 77
7, 98496, Note_off_c, 5, 50, 0
7, 98496, Note_on_c, 5, 51, 77
7, 98816, Note_off_c, 5, 51, 0
7, 98880, Note_on_c, 5, 39, 77
7, 99072, Note_off_c, 5, 39, 0
7, 99072, Note_on_c, 5, 38, 77
7, 99392, Note_off_c, 5, 38, 0
7, 99456, Note_on_c, 5, 50, 77
7, 99644, Note_off_c, 5, 50, 0
7, 99648, Note_on_c, 5, 48, 77
7, 99840, Note_off_c, 5, 48, 0
7, 99840, Note_on_c, 5, 51, 77
7, 100028, Note_off_c, 5, 51, 0
7, 100032, Note_on_c, 5, 50, 77
7, 100220, Note_off_c, 5, 50, 0
7, 100224, Note_on_c, 5, 48, 77
7, 100416, Note_off_c, 5, 48, 0
7, 100416, Note_on_c, 5, 45, 77
7, 100604, Note_off_c, 5, 45, 0
7, 100608, Note_on_c, 5, 46, 77
7, 100796, Note_off_c, 5, 46, 0
7, 100800, Note_on_c, 5, 48, 77
7, 100992, Note_off_c, 5, 48, 0
7, 100992, Note_on_c, 5, 50, 77
7, 101180, Note_off_c, 5, 50, 0
7, 101184, Note_on_c, 5, 38, 77
7, 101372, Note_off_c, 5, 38, 0
7, 101376, Note_on_c, 5, 43, 50
7, 101696, Note_off_c, 5, 43, 0
7, 101760, Note_on_c, 5, 55, 50
7, 101948, Note_off_c, 5, 55, 0
7, 101952, Note_on_c, 5, 55, 50
7, 102272, Note_off_c, 5, 55, 0
7, 102336, Note_on_c, 5, 43, 50
7, 102524, Note_off_c, 5, 43, 0
7, 102528, Note_on_c, 5, 43, 50
7, 102848, Note_off_c, 5, 43, 0
7, 102912, Note_on_c, 5, 55, 50
7, 103100, Note_off_c, 5, 55, 0
7, 103104, Note_on_c, 5, 55, 50
7, 103424, Note_off_c, 5, 55, 0
7, 103488, Note_on_c, 5, 43, 50
7, 103676, Note_off_c, 5, 43, 0
7, 103680, Note_on_c, 5, 43, 50
7, 104000, Note_off_c, 5, 43, 0
7, 104064, Note_on_c, 5, 55, 50
7, 104252, Note_off_c, 5, 55, 0
7, 104256, Note_on_c, 5, 55, 50
7, 104576, Note_off_c, 5, 55, 0
7, 104640, Note_on_c, 5, 43, 50
7, 104828, Note_off_c, 5, 43, 0
7, 104832, Note_on_c, 5, 43, 50
7, 105152, Note_off_c, 5, 43, 0
7, 105216, Note_on_c, 5, 55, 50
7, 105404, Note_off_c, 5, 55, 0
7, 105408, Note_on_c, 5, 55, 50
7, 105728, Note_off_c, 5, 55, 0
7, 105792, Note_on_c, 5, 43, 50
7, 105980, Note_off_c, 5, 43, 0
7, 105984, Note_on_c, 5, 48, 77
7, 106304, Note_off_c, 5, 48, 0
7, 106368, Note_on_c, 5, 36, 77
7, 106556, Note_off_c, 5, 36, 0
7, 106560, Note_on_c, 5, 36, 77
7, 106880, Note_off_c, 5, 36, 0
7, 106944, Note_on_c, 5, 48, 77
7, 107324, Note_off_c, 5, 48, 0
7, 107328, Note_on_c, 5, 45, 77
7, 107516, Note_off_c, 5, 45, 0
7, 107520, Note_on_c, 5, 46, 77
7, 107708, Note_off_c, 5, 46, 0
7, 107712, Note_on_c, 5, 48, 77
7, 107904, Note_off_c, 5, 48, 0
7, 107904, Note_on_c, 5, 50, 77
7, 108092, Note_off_c, 5, 50, 0
7, 108096, Note_on_c, 5, 38, 77
7, 108284, Note_off_c, 5, 38, 0
7, 108288, Note_on_c, 5, 43, 63
7, 108608, Note_off_c, 5, 43, 0
7, 108672, Note_on_c, 5, 55, 63
7, 108860, Note_off_c, 5, 55, 0
7, 108864, Note_on_c, 5, 55, 63
7, 109184, Note_off_c, 5, 55, 0
7, 109248, Note_on_c, 5, 43, 63
7, 109440, Note_off_c, 5, 43, 0
7, 109440, Note_on_c, 5, 48, 63
7, 109760, Note_off_c, 5, 48, 0
7, 109824, Note_on_c, 5, 60, 63
7, 110012, Note_off_c, 5, 60, 0
7, 110016, Note_on_c, 5, 60, 63
7, 110336, Note_off_c, 5, 60, 0
7, 110400, Note_on_c, 5, 48, 63
7, 110592, Note_off_c, 5, 48, 0
7, 110592, Note_on_c, 5, 41, 63
7, 110912, Note_off_c, 5, 41, 0
7, 110976, Note_on_c, 5, 53, 63
7, 111164, Note_off_c, 5, 53, 0
7, 111168, Note_on_c, 5, 53, 63
7, 111488, Note_off_c, 5, 53, 0
7, 111552, Note_on_c, 5, 41, 63
7, 111744, Note_off_c, 5, 41, 0
7, 111744, Note_on_c, 5, 46, 63
7, 112064, Note_off_c, 5, 46, 0
7, 112128, Note_on_c, 5, 58, 63
7, 112316, Note_off_c, 5, 58, 0
7, 112320, Note_on_c, 5, 58, 63
7, 112640, Note_off_c, 5, 58, 0
7, 112704, Note_on_c, 5, 46, 63
7, 112896, Note_off_c, 5, 46, 0
7, 112896, Note_on_c, 5, 39, 63
7, 113216, Note_off_c, 5, 39, 0
7, 113280, Note_on_c, 5, 51, 63
7, 113468, Note_off_c, 5, 51, 0
7, 113472, Note_on_c, 5, 51, 63
7, 113792, Note_off_c, 5, 51, 0
7, 113856, Note_on_c, 5, 50, 63
7, 114048, Note_off_c, 5, 50, 0
7, 114048, Note_on_c, 5, 48, 63
7, 114112, Note_off_c, 5, 48, 0
7, 114240, Note_on_c, 5, 51, 63
7, 114304, Note_off_c, 5, 51, 0
7, 114432, Note_on_c, 5, 55, 63
7, 114496, Note_off_c, 5, 55, 0
7, 114624, Note_on_c, 5, 60, 63
7, 114944, Note_off_c, 5, 60, 0
7, 115008, Note_on_c, 5, 58, 63
7, 115200, Note_off_c, 5, 58, 0
7, 115200, Note_on_c, 5, 57, 63
7, 115520, Note_off_c, 5, 57, 0
7, 115584, Note_on_c, 5, 58, 63
7, 115776, Note_off_c, 5, 58, 0
7, 115776, Note_on_c, 5, 55, 63
7, 116096, Note_off_c, 5, 55, 0
7, 116160, Note_on_c, 5, 51, 63
7, 116352, Note_off_c, 5, 51, 0
7, 116352, Note_on_c, 5, 53, 63
7, 116672, Note_off_c, 5, 53, 0
7, 116736, Note_on_c, 5, 51, 63
7, 116928, Note_off_c, 5, 51, 0
7, 116928, Note_on_c, 5, 50, 63
7, 117248, Note_off_c, 5, 50, 0
7, 117312, Note_on_c, 5, 48, 63
7, 117504, Note_off_c, 5, 48, 0
7, 117504, Note_on_c, 5, 46, 63
7, 117824, Note_off_c, 5, 46, 0
7, 117888, Note_on_c, 5, 58, 63
7, 118076, Note_off_c, 5, 58, 0
7, 118080, Note_on_c, 5, 58, 63
7, 118400, Note_off_c, 5, 58, 0
7, 118464, Note_on_c, 5, 46, 63
7, 118652, Note_off_c, 5, 46, 0
7, 118656, Note_on_c, 5, 46, 63
7, 118976, Note_off_c, 5, 46, 0
7, 119040, Note_on_c, 5, 58, 63
7, 119228, Note_off_c, 5, 58, 0
7, 119232, Note_on_c, 5, 58, 63
7, 119552, Note_off_c, 5, 58, 0
7, 119616, Note_on_c, 5, 46, 63
7, 119804, Note_off_c, 5, 46, 0
7, 119808, Note_on_c, 5, 46, 63
7, 120128, Note_off_c, 5, 46, 0
7, 120192, Note_on_c, 5, 58, 63
7, 120380, Note_off_c, 5, 58, 0
7, 120384, Note_on_c, 5, 58, 63
7, 120704, Note_off_c, 5, 58, 0
7, 120768, Note_on_c, 5, 46, 63
7, 120956, Note_off_c, 5, 46, 0
7, 120960, Note_on_c, 5, 46, 63
7, 121280, Note_off_c, 5, 46, 0
7, 121344, Note_on_c, 5, 58, 63
7, 121532, Note_off_c, 5, 58, 0
7, 121536, Note_on_c, 5, 58, 63
7, 121856, Note_off_c, 5, 58, 0
7, 121920, Note_on_c, 5, 46, 63
7, 122108, Note_off_c, 5, 46, 0
7, 122112, Note_on_c, 5, 46, 63
7, 122432, Note_off_c, 5, 46, 0
7, 122496, Note_on_c, 5, 58, 63
7, 122684, Note_off_c, 5, 58, 0
7, 122688, Note_on_c, 5, 58, 63
7, 123008, Note_off_c, 5, 58, 0
7, 123072, Note_on_c, 5, 46, 63
7, 123260, Note_off_c, 5, 46, 0
7, 123264, Note_on_c, 5, 46, 63
7, 123776, Note_off_c, 5, 46, 0
7, 124224, Note_on_c, 5, 50, 63
7, 124412, Note_off_c, 5, 50, 0
7, 124416, Note_on_c, 5, 51, 63
7, 124736, Note_off_c, 5, 51, 0
7, 124800, Note_on_c, 5, 51, 63
7, 124988, Note_off_c, 5, 51, 0
7, 124992, Note_on_c, 5, 51, 63
7, 125312, Note_off_c, 5, 51, 0
7, 125376, Note_on_c, 5, 39, 63
7, 125564, Note_off_c, 5, 39, 0
7, 125568, Note_on_c, 5, 41, 63
7, 125888, Note_off_c, 5, 41, 0
7, 125952, Note_on_c, 5, 53, 63
7, 126140, Note_off_c, 5, 53, 0
7, 126144, Note_on_c, 5, 53, 63
7, 126464, Note_off_c, 5, 53, 0
7, 126528, Note_on_c, 5, 41, 63
7, 126716, Note_off_c, 5, 41, 0
7, 126720, Note_on_c, 5, 46, 63
7, 127040, Note_off_c, 5, 46, 0
7, 127680, Note_on_c, 5, 46, 50
7, 127868, Note_off_c, 5, 46, 0
7, 127872, Note_on_c, 5, 46, 50
7, 128192, Note_off_c, 5, 46, 0
7, 128832, Note_on_c, 5, 46, 50
7, 129020, Note_off_c, 5, 46, 0
7, 129024, Note_on_c, 5, 46, 50
7, 129344, Note_off_c, 5, 46, 0
7, 129984, Note_on_c, 5, 45, 50
7, 130176, Note_off_c, 5, 45, 0
7, 130176, Note_on_c, 5, 43, 50
7, 130496, Note_off_c, 5, 43, 0
7, 131136, Note_on_c, 5, 43, 50
7, 131328, Note_off_c, 5, 43, 0
7, 131328, Note_on_c, 5, 41, 50
7, 131648, Note_off_c, 5, 41, 0
7, 131712, Note_on_c, 5, 53, 50
7, 131900, Note_off_c, 5, 53, 0
7, 131904, Note_on_c, 5, 53, 50
7, 132224, Note_off_c, 5, 53, 0
7, 132288, Note_on_c, 5, 41, 50
7, 132480, Note_off_c, 5, 41, 0
7, 132480, Note_on_c, 5, 39, 50
7, 132800, Note_off_c, 5, 39, 0
7, 132864, Note_on_c, 5, 41, 50
7, 133056, Note_off_c, 5, 41, 0
7, 133056, Note_on_c, 5, 43, 50
7, 133376, Note_off_c, 5, 43, 0
7, 133440, Note_on_c, 5, 39, 50
7, 133632, Note_off_c, 5, 39, 0
7, 133632, Note_on_c, 5, 41, 50
7, 133952, Note_off_c, 5, 41, 0
7, 134016, Note_on_c, 5, 53, 50
7, 134204, Note_off_c, 5, 53, 0
7, 134208, Note_on_c, 5, 53, 77
7, 134528, Note_off_c, 5, 53, 0
7, 134592, Note_on_c, 5, 53, 77
7, 134780, Note_off_c, 5, 53, 0
7, 134784, Note_on_c, 5, 51, 77
7, 135104, Note_off_c, 5, 51, 0
7, 135168, Note_on_c, 5, 51, 77
7, 135356, Note_off_c, 5, 51, 0
7, 135360, Note_on_c, 5, 51, 77
7, 135680, Note_off_c, 5, 51, 0
7, 135744, Note_on_c, 5, 51, 77
7, 135932, Note_off_c, 5, 51, 0
7, 135936, Note_on_c, 5, 50, 77
7, 136256, Note_off_c, 5, 50, 0
7, 136320, Note_on_c, 5, 50, 77
7, 136508, Note_off_c, 5, 50, 0
7, 136512, Note_on_c, 5, 50, 50
7, 136832, Note_off_c, 5, 50, 0
7, 136896, Note_on_c, 5, 50, 50
7, 137084, Note_off_c, 5, 50, 0
7, 137088, Note_on_c, 5, 48, 50
7, 137408, Note_off_c, 5, 48, 0
7, 137472, Note_on_c, 5, 60, 50
7, 137660, Note_off_c, 5, 60, 0
7, 137664, Note_on_c, 5, 60, 50
7, 137984, Note_off_c, 5, 60, 0
7, 138048, Note_on_c, 5, 48, 50
7, 138236, Note_off_c, 5, 48, 0
7, 138240, Note_on_c, 5, 46, 77
7, 138560, Note_off_c, 5, 46, 0
7, 138624, Note_on_c, 5, 58, 77
7, 138812, Note_off_c, 5, 58, 0
7, 138816, Note_on_c, 5, 58, 77
7, 139136, Note_off_c, 5, 58, 0
7, 139200, Note_on_c, 5, 46, 77
7, 139392, Note_off_c, 5, 46, 0
7, 139392, Note_on_c, 5, 44, 77
7, 139712, Note_off_c, 5, 44, 0
7, 139776, Note_on_c, 5, 56, 77
7, 139964, Note_off_c, 5, 56, 0
7, 139968, Note_on_c, 5, 56, 77
7, 140288, Note_off_c, 5, 56, 0
7, 140352, Note_on_c, 5, 44, 77
7, 140544, Note_off_c, 5, 44, 0
7, 140544, Note_on_c, 5, 43, 77
7, 140864, Note_off_c, 5, 43, 0
7, 140928, Note_on_c, 5, 55, 77
7, 141116, Note_off_c, 5, 55, 0
7, 141120, Note_on_c, 5, 55, 50
7, 141440, Note_off_c, 5, 55, 0
7, 141504, Note_on_c, 5, 43, 50
7, 141696, Note_off_c, 5, 43, 0
7, 141696, Note_on_c, 5, 41, 50
7, 142016, Note_off_c, 5, 41, 0
7, 142080, Note_on_c, 5, 53, 50
7, 142268, Note_off_c, 5, 53, 0
7, 142272, Note_on_c, 5, 53, 50
7, 142592, Note_off_c, 5, 53, 0
7, 142656, Note_on_c, 5, 41, 50
7, 142848, Note_off_c, 5, 41, 0
7, 142848, Note_on_c, 5, 39, 50
7, 143168, Note_off_c, 5, 39, 0
7, 143232, Note_on_c, 5, 51, 50
7, 143424, Note_off_c, 5, 51, 0
7, 143424, Note_on_c, 5, 50, 50
7, 143744, Note_off_c, 5, 50, 0
7, 143808, Note_on_c, 5, 38, 50
7, 144000, Note_off_c, 5, 38, 0
7, 144000, Note_on_c, 5, 36, 50
7, 144320, Note_off_c, 5, 36, 0
7, 144384, Note_on_c, 5, 60, 50
7, 144572, Note_off_c, 5, 60, 0
7, 144576, Note_on_c, 5, 60, 50
7, 144896, Note_off_c, 5, 60, 0
7, 144960, Note_on_c, 5, 48, 50
7, 145152, Note_off_c, 5, 48, 0
7, 145152, Note_on_c, 5, 46, 50
7, 145472, Note_off_c, 5, 46, 0
7, 145536, Note_on_c, 5, 58, 50
7, 145724, Note_off_c, 5, 58, 0
7, 145728, Note_on_c, 5, 58, 50
7, 146048, Note_off_c, 5, 58, 0
7, 146112, Note_on_c, 5, 46, 50
7, 146304, Note_off_c, 5, 46, 0
7, 146304, Note_on_c, 5, 44, 50
7, 146624, Note_off_c, 5, 44, 0
7, 146688, Note_on_c, 5, 46, 50
7, 146880, Note_off_c, 5, 46, 0
7, 146880, Note_on_c, 5, 48, 50
7, 147200, Note_off_c, 5, 48, 0
7, 147264, Note_on_c, 5, 44, 50
7, 147456, Note_off_c, 5, 44, 0
7, 147456, Note_on_c, 5, 46, 50
7, 147776, Note_off_c, 5, 46, 0
7, 147840, Note_on_c, 5, 58, 50
7, 148032, Note_off_c, 5, 58, 0
7, 148032, Note_on_c, 5, 56, 50
7, 148352, Note_off_c, 5, 56, 0
7, 148416, Note_on_c, 5, 44, 50
7, 148608, Note_off_c, 5, 44, 0
7, 148608, Note_on_c, 5, 43, 50
7, 148928, Note_off_c, 5, 43, 0
7, 148992, Note_on_c, 5, 55, 50
7, 149180, Note_off_c, 5, 55, 0
7, 149184, Note_on_c, 5, 55, 50
7, 149504, Note_off_c, 5, 55, 0
7, 149568, Note_on_c, 5, 43, 50
7, 149760, Note_off_c, 5, 43, 0
7, 149760, Note_on_c, 5, 48, 50
7, 150080, Note_off_c, 5, 48, 0
7, 150144, Note_on_c, 5, 60, 50
7, 150332, Note_off_c, 5, 60, 0
7, 150336, Note_on_c, 5, 60, 50
7, 150656, Note_off_c, 5, 60, 0
7, 150720, Note_on_c, 5, 48, 50
7, 150912, Note_off_c, 5, 48, 0
7, 150912, Note_on_c, 5, 41, 50
7, 151232, Note_off_c, 5, 41, 0
7, 151296, Note_on_c, 5, 53, 50
7, 151484, Note_off_c, 5, 53, 0
7, 151488, Note_on_c, 5, 53, 50
7, 151808, Note_off_c, 5, 53, 0
7, 151872, Note_on_c, 5, 41, 50
7, 152060, Note_off_c, 5, 41, 0
7, 152064, Note_on_c, 5, 46, 50
7, 152256, Note_off_c, 5, 46, 0
7, 152256, Note_on_c, 5, 48, 50
7, 152444, Note_off_c, 5, 48, 0
7, 152448, Note_on_c, 5, 50, 50
7, 152636, Note_off_c, 5, 50, 0
7, 152640, Note_on_c, 5, 51, 50
7, 152832, Note_off_c, 5, 51, 0
7, 152832, Note_on_c, 5, 53, 50
7, 153020, Note_off_c, 5, 53, 0
7, 153024, Note_on_c, 5, 51, 50
7, 153212, Note_off_c, 5, 51, 0
7, 153216, Note_on_c, 5, 50, 50
7, 153408, Note_off_c, 5, 50, 0
7, 153408, Note_on_c, 5, 51, 50
7, 153596, Note_off_c, 5, 51, 0
7, 153600, Note_on_c, 5, 50, 50
7, 153788, Note_off_c, 5, 50, 0
7, 153792, Note_on_c, 5, 48, 50
7, 153984, Note_off_c, 5, 48, 0
7, 153984, Note_on_c, 5, 50, 50
7, 154172, Note_off_c, 5, 50, 0
7, 154176, Note_on_c, 5, 48, 50
7, 154364, Note_off_c, 5, 48, 0
7, 154368, Note_on_c, 5, 46, 50
7, 154560, Note_off_c, 5, 46, 0
7, 154560, Note_on_c, 5, 43, 50
7, 154752, Note_off_c, 5, 43, 0
7, 154752, Note_on_c, 5, 41, 50
7, 154944, Note_off_c, 5, 41, 0
7, 154944, Note_on_c, 5, 40, 50
7, 155264, Note_off_c, 5, 40, 0
7, 155328, Note_on_c, 5, 52, 50
7, 155520, Note_off_c, 5, 52, 0
7, 155520, Note_on_c, 5, 53, 50
7, 155840, Note_off_c, 5, 53, 0
7, 155904, Note_on_c, 5, 41, 50
7, 156096, Note_off_c, 5, 41, 0
7, 156096, Note_on_c, 5, 43, 50
7, 156416, Note_off_c, 5, 43, 0
7, 156480, Note_on_c, 5, 55, 50
7, 156672, Note_off_c, 5, 55, 0
7, 156672, Note_on_c, 5, 53, 50
7, 156992, Note_off_c, 5, 53, 0
7, 157056, Note_on_c, 5, 41, 50
7, 157248, Note_off_c, 5, 41, 0
7, 157248, Note_on_c, 5, 39, 50
7, 157436, Note_off_c, 5, 39, 0
7, 157440, Note_on_c, 5, 55, 50
7, 157632, Note_off_c, 5, 55, 0
7, 157632, Note_on_c, 5, 53, 50
7, 157820, Note_off_c, 5, 53, 0
7, 157824, Note_on_c, 5, 51, 50
7, 158016, Note_off_c, 5, 51, 0
7, 158016, Note_on_c, 5, 50, 50
7, 158204, Note_off_c, 5, 50, 0
7, 158208, Note_on_c, 5, 55, 50
7, 158396, Note_off_c, 5, 55, 0
7, 158400, Note_on_c, 5, 51, 50
7, 158592, Note_off_c, 5, 51, 0
7, 158592, Note_on_c, 5, 53, 50
7, 158780, Note_off_c, 5, 53, 0
7, 158784, Note_on_c, 5, 41, 50
7, 158972, Note_off_c, 5, 41, 0
7, 158976, Note_on_c, 5, 46, 50
7, 159488, Note_off_c, 5, 46, 0
7, 159552, Note_on_c, 5, 56, 50
7, 159872, Note_off_c, 5, 56, 0
7, 159936, Note_on_c, 5, 44, 50
7, 160128, Note_off_c, 5, 44, 0
7, 160128, Note_on_c, 5, 43, 50
7, 160448, Note_off_c, 5, 43, 0
7, 160512, Note_on_c, 5, 55, 50
7, 160704, Note_off_c, 5, 55, 0
7, 160704, Note_on_c, 5, 53, 50
7, 161024, Note_off_c, 5, 53, 0
7, 161088, Note_on_c, 5, 41, 50
7, 161280, Note_off_c, 5, 41, 0
7, 161280, Note_on_c, 5, 39, 50
7, 161600, Note_off_c, 5, 39, 0
7, 161664, Note_on_c, 5, 51, 50
7, 161856, Note_off_c, 5, 51, 0
7, 161856, Note_on_c, 5, 50, 50
7, 162176, Note_off_c, 5, 50, 0
7, 162240, Note_on_c, 5, 38, 50
7, 162432, Note_off_c, 5, 38, 0
7, 162432, Note_on_c, 5, 36, 50
7, 162752, Note_off_c, 5, 36, 0
7, 162816, Note_on_c, 5, 48, 50
7, 163008, Note_off_c, 5, 48, 0
7, 163008, Note_on_c, 5, 46, 50
7, 163328, Note_off_c, 5, 46, 0
7, 163392, Note_on_c, 5, 43, 50
7, 163584, Note_off_c, 5, 43, 0
7, 163584, Note_on_c, 5, 45, 50
7, 163904, Note_off_c, 5, 45, 0
7, 163968, Note_on_c, 5, 41, 50
7, 164160, Note_off_c, 5, 41, 0
7, 164160, Note_on_c, 5, 43, 63
7, 164480, Note_off_c, 5, 43, 0
7, 164544, Note_on_c, 5, 45, 63
7, 164736, Note_off_c, 5, 45, 0
7, 164736, Note_on_c, 5, 46, 63
7, 165056, Note_off_c, 5, 46, 0
7, 165120, Note_on_c, 5, 51, 63
7, 165312, Note_off_c, 5, 51, 0
7, 165312, Note_on_c, 5, 53, 63
7, 165632, Note_off_c, 5, 53, 0
7, 165696, Note_on_c, 5, 41, 63
7, 165888, Note_off_c, 5, 41, 0
7, 165888, Note_on_c, 5, 46, 63
7, 166208, Note_off_c, 5, 46, 0
7, 166272, Note_on_c, 5, 58, 63
7, 166460, Note_off_c, 5, 58, 0
7, 166464, Note_on_c, 5, 58, 77
7, 166784, Note_off_c, 5, 58, 0
7, 166848, Note_on_c, 5, 46, 77
7, 167036, Note_off_c, 5, 46, 0
7, 167040, Note_on_c, 5, 46, 77
7, 167360, Note_off_c, 5, 46, 0
7, 167424, Note_on_c, 5, 58, 77
7, 167612, Note_off_c, 5, 58, 0
7, 167616, Note_on_c, 5, 58, 77
7, 167936, Note_off_c, 5, 58, 0
7, 168000, Note_on_c, 5, 46, 77
7, 168188, Note_off_c, 5, 46, 0
7, 168192, Note_on_c, 5, 46, 77
7, 168512, Note_off_c, 5, 46, 0
7, 168576, Note_on_c, 5, 58, 77
7, 168768, Note_off_c, 5, 58, 0
7, 168768, Note_on_c, 5, 57, 77
7, 169088, Note_off_c, 5, 57, 0
7, 169152, Note_on_c, 5, 45, 77
7, 169344, Note_off_c, 5, 45, 0
7, 169344, Note_on_c, 5, 43, 77
7, 169664, Note_off_c, 5, 43, 0
7, 169728, Note_on_c, 5, 55, 77
7, 169916, Note_off_c, 5, 55, 0
7, 169920, Note_on_c, 5, 55, 77
7, 170240, Note_off_c, 5, 55, 0
7, 170304, Note_on_c, 5, 43, 77
7, 170496, Note_off_c, 5, 43, 0
7, 170496, Note_on_c, 5, 41, 77
7, 170816, Note_off_c, 5, 41, 0
7, 170880, Note_on_c, 5, 53, 77
7, 171068, Note_off_c, 5, 53, 0
7, 171072, Note_on_c, 5, 53, 77
7, 171392, Note_off_c, 5, 53, 0
7, 171456, Note_on_c, 5, 41, 77
7, 171648, Note_off_c, 5, 41, 0
7, 171648, Note_on_c, 5, 39, 77
7, 171968, Note_off_c, 5, 39, 0
7, 172032, Note_on_c, 5, 41, 77
7, 172224, Note_off_c, 5, 41, 0
7, 172224, Note_on_c, 5, 43, 77
7, 172544, Note_off_c, 5, 43, 0
7, 172608, Note_on_c, 5, 39, 77
7, 172800, Note_off_c, 5, 39, 0
7, 172800, Note_on_c, 5, 41, 77
7, 173564, Note_off_c, 5, 41, 0
7, 173568, Note_on_c, 5, 45, 77
7, 173632, Note_off_c, 5, 45, 0
7, 173760, Note_on_c, 5, 48, 77
7, 173824, Note_off_c, 5, 48, 0
7, 173952, Note_on_c, 5, 51, 77
7, 174336, Note_off_c, 5, 51, 0
7, 174528, Note_on_c, 5, 41, 77
7, 174592, Note_off_c, 5, 41, 0
7, 174720, Note_on_c, 5, 45, 77
7, 174784, Note_off_c, 5, 45, 0
7, 174912, Note_on_c, 5, 48, 77
7, 174976, Note_off_c, 5, 48, 0
7, 175104, Note_on_c, 5, 51, 77
7, 175488, Note_off_c, 5, 51, 0
7, 175680, Note_on_c, 5, 46, 77
7, 175744, Note_off_c, 5, 46, 0
7, 175872, Note_on_c, 5, 50, 77
7, 175936, Note_off_c, 5, 50, 0
7, 176064, Note_on_c, 5, 53, 77
7, 176128, Note_off_c, 5, 53, 0
7, 176256, Note_on_c, 5, 56, 106
7, 176576, Note_off_c, 5, 56, 0
7, 176832, Note_on_c, 5, 46, 77
7, 176896, Note_off_c, 5, 46, 0
7, 177024, Note_on_c, 5, 50, 77
7, 177088, Note_off_c, 5, 50, 0
7, 177216, Note_on_c, 5, 53, 77
7, 177280, Note_off_c, 5, 53, 0
7, 177408, Note_on_c, 5, 56, 106
7, 177728, Note_off_c, 5, 56, 0
7, 177984, Note_on_c, 5, 51, 77
7, 178176, Note_off_c, 5, 51, 0
7, 178176, Note_on_c, 5, 53, 77
7, 178368, Note_off_c, 5, 53, 0
7, 178368, Note_on_c, 5, 51, 77
7, 178556, Note_off_c, 5, 51, 0
7, 178560, Note_on_c, 5, 50, 77
7, 178752, Note_off_c, 5, 50, 0
7, 178752, Note_on_c, 5, 51, 77
7, 178944, Note_off_c, 5, 51, 0
7, 178944, Note_on_c, 5, 50, 77
7, 179132, Note_off_c, 5, 50, 0
7, 179136, Note_on_c, 5, 48, 77
7, 179328, Note_off_c, 5, 48, 0
7, 179328, Note_on_c, 5, 50, 77
7, 179520, Note_off_c, 5, 50, 0
7, 179520, Note_on_c, 5, 48, 77
7, 179708, Note_off_c, 5, 48, 0
7, 179712, Note_on_c, 5, 46, 77
7, 179904, Note_off_c, 5, 46, 0
7, 179904, Note_on_c, 5, 43, 77
7, 180096, Note_off_c, 5, 43, 0
7, 180096, Note_on_c, 5, 41, 77
7, 180288, Note_off_c, 5, 41, 0
7, 180288, Note_on_c, 5, 40, 77
7, 180608, Note_off_c, 5, 40, 0
7, 180672, Note_on_c, 5, 52, 77
7, 180864, Note_off_c, 5, 52, 0
7, 180864, Note_on_c, 5, 53, 77
7, 181184, Note_off_c, 5, 53, 0
7, 181248, Note_on_c, 5, 41, 77
7, 181440, Note_off_c, 5, 41, 0
7, 181440, Note_on_c, 5, 43, 77
7, 181760, Note_off_c, 5, 43, 0
7, 181824, Note_on_c, 5, 55, 77
7, 182016, Note_off_c, 5, 55, 0
7, 182016, Note_on_c, 5, 53, 77
7, 182336, Note_off_c, 5, 53, 0
7, 182400, Note_on_c, 5, 41, 77
7, 182592, Note_off_c, 5, 41, 0
7, 182592, Note_on_c, 5, 39, 77
7, 182780, Note_off_c, 5, 39, 0
7, 182784, Note_on_c, 5, 55, 77
7, 182976, Note_off_c, 5, 55, 0
7, 182976, Note_on_c, 5, 53, 77
7, 183164, Note_off_c, 5, 53, 0
7, 183168, Note_on_c, 5, 51, 77
7, 183360, Note_off_c, 5, 51, 0
7, 183360, Note_on_c, 5, 50, 77
7, 183548, Note_off_c, 5, 50, 0
7, 183552, Note_on_c, 5, 55, 77
7, 183740, Note_off_c, 5, 55, 0
7, 183744, Note_on_c, 5, 51, 77
7, 183932, Note_off_c, 5, 51, 0
7, 183936, Note_on_c, 5, 53, 77
7, 184128, Note_off_c, 5, 53, 0
7, 184128, Note_on_c, 5, 41, 77
7, 184316, Note_off_c, 5, 41, 0
7, 184320, Note_on_c, 5, 46, 77
7, 184640, Note_off_c, 5, 46, 0
7, 184640, End_track
8, 0, Start_track
8, 0, Title_t, "Flutes"
8, 0, Control_c, 6, 0, 0
8, 0, Program_c, 6, 68
8, 0, Control_c, 6, 10, 105
8, 0, Key_signature, -2, "major"
8, 0, Control_c, 6, 121, 0
8, 0, Control_c, 6, 7, 127
8, 576, Note_on_c, 6, 65, 85
8, 960, Note_off_c, 6, 65, 0
8, 960, Note_on_c, 6, 63, 85
8, 1152, Note_off_c, 6, 63, 0
8, 1152, Note_on_c, 6, 62, 85
8, 1536, Note_off_c, 6, 62, 0
8, 1536, Note_on_c, 6, 63, 85
8, 1728, Note_off_c, 6, 63, 0
8, 1728, Note_on_c, 6, 65, 85
8, 1920, Note_off_c, 6, 65, 0
8, 1920, Note_on_c, 6, 67, 85
8, 2112, Note_off_c, 6, 67, 0
8, 2112, Note_on_c, 6, 69, 85
8, 2304, Note_off_c, 6, 69, 0
8, 2304, Note_on_c, 6, 70, 85
8, 3072, Note_off_c, 6, 70, 0
8, 3072, Note_on_c, 6, 65, 85
8, 3264, Note_off_c, 6, 65, 0
8, 3264, Note_on_c, 6, 70, 85
8, 3456, Note_off_c, 6, 70, 0
8, 3456, Note_on_c, 6, 69, 85
8, 3648, Note_off_c, 6, 69, 0
8, 3648, Note_on_c, 6, 70, 85
8, 3840, Note_off_c, 6, 70, 0
8, 3840, Note_on_c, 6, 63, 85
8, 4224, Note_off_c, 6, 63, 0
8, 4224, Note_on_c, 6, 69, 85
8, 4416, Note_off_c, 6, 69, 0
8, 4416, Note_on_c, 6, 70, 85
8, 4608, Note_off_c, 6, 70, 0
8, 4608, Note_on_c, 6, 69, 85
8, 4800, Note_off_c, 6, 69, 0
8, 4800, Note_on_c, 6, 70, 85
8, 4992, Note_off_c, 6, 70, 0
8, 4992, Note_on_c, 6, 62, 85
8, 5376, Note_off_c, 6, 62, 0
8, 5376, Note_on_c, 6, 65, 85
8, 5568, Note_off_c, 6, 65, 0
8, 5568, Note_on_c, 6, 69, 85
8, 5760, Note_off_c, 6, 69, 0
8, 5760, Note_on_c, 6, 72, 85
8, 5952, Note_off_c, 6, 72, 0
8, 5952, Note_on_c, 6, 70, 85
8, 6144, Note_off_c, 6, 70, 0
8, 6144, Note_on_c, 6, 69, 85
8, 6336, Note_off_c, 6, 69, 0
8, 6336, Note_on_c, 6, 70, 85
8, 6720, Note_off_c, 6, 70, 0
8, 6720, Note_on_c, 6, 63, 85
8, 6912, Note_off_c, 6, 63, 0
8, 6912, Note_on_c, 6, 63, 106
8, 6960, Note_off_c, 6, 63, 0
8, 6960, Note_on_c, 6, 62, 106
8, 7008, Note_off_c, 6, 62, 0
8, 7008, Note_on_c, 6, 63, 106
8, 7056, Note_off_c, 6, 63, 0
8, 7056, Note_on_c, 6, 62, 106
8, 7104, Note_off_c, 6, 62, 0
8, 7104, Note_on_c, 6, 63, 106
8, 7152, Note_off_c, 6, 63, 0
8, 7152, Note_on_c, 6, 62, 106
8, 7296, Note_off_c, 6, 62, 0
8, 7296, Note_on_c, 6, 60, 85
8, 7488, Note_off_c, 6, 60, 0
8, 7488, Note_on_c, 6, 72, 85
8, 7584, Note_off_c, 6, 72, 0
8, 7584, Note_on_c, 6, 74, 85
8, 7680, Note_off_c, 6, 74, 0
8, 7680, Note_on_c, 6, 75, 85
8, 7776, Note_off_c, 6, 75, 0
8, 7776, Note_on_c, 6, 72, 85
8, 7872, Note_off_c, 6, 72, 0
8, 7872, Note_on_c, 6, 72, 85
8, 7968, Note_off_c, 6, 72, 0
8, 7968, Note_on_c, 6, 70, 85
8, 8064, Note_off_c, 6, 70, 0
8, 8064, Note_on_c, 6, 70, 85
8, 8160, Note_off_c, 6, 70, 0
8, 8160, Note_on_c, 6, 69, 85
8, 8256, Note_off_c, 6, 69, 0
8, 8256, Note_on_c, 6, 69, 85
8, 8352, Note_off_c, 6, 69, 0
8, 8352, Note_on_c, 6, 67, 85
8, 8448, Note_off_c, 6, 67, 0
8, 8448, Note_on_c, 6, 67, 85
8, 8544, Note_off_c, 6, 67, 0
8, 8544, Note_on_c, 6, 65, 85
8, 8640, Note_off_c, 6, 65, 0
8, 8640, Note_on_c, 6, 72, 85
8, 8736, Note_off_c, 6, 72, 0
8, 8736, Note_on_c, 6, 74, 85
8, 8832, Note_off_c, 6, 74, 0
8, 8832, Note_on_c, 6, 75, 85
8, 8928, Note_off_c, 6, 75, 0
8, 8928, Note_on_c, 6, 72, 85
8, 9024, Note_off_c, 6, 72, 0
8, 9024, Note_on_c, 6, 72, 85
8, 9120, Note_off_c, 6, 72, 0
8, 9120, Note_on_c, 6, 70, 85
8, 9216, Note_off_c, 6, 70, 0
8, 9216, Note_on_c, 6, 70, 85
8, 9312, Note_off_c, 6, 70, 0
8, 9312, Note_on_c, 6, 69, 85
8, 9408, Note_off_c, 6, 69, 0
8, 9408, Note_on_c, 6, 69, 85
8, 9504, Note_off_c, 6, 69, 0
8, 9504, Note_on_c, 6, 67, 85
8, 9600, Note_off_c, 6, 67, 0
8, 9600, Note_on_c, 6, 67, 85
8, 9696, Note_off_c, 6, 67, 0
8, 9696, Note_on_c, 6, 65, 85
8, 9792, Note_off_c, 6, 65, 0
8, 9792, Note_on_c, 6, 74, 85
8, 9888, Note_off_c, 6, 74, 0
8, 9888, Note_on_c, 6, 75, 85
8, 9984, Note_off_c, 6, 75, 0
8, 9984, Note_on_c, 6, 77, 85
8, 10080, Note_off_c, 6, 77, 0
8, 10080, Note_on_c, 6, 74, 85
8, 10176, Note_off_c, 6, 74, 0
8, 10176, Note_on_c, 6, 74, 85
8, 10272, Note_off_c, 6, 74, 0
8, 10272, Note_on_c, 6, 72, 85
8, 10368, Note_off_c, 6, 72, 0
8, 10368, Note_on_c, 6, 72, 85
8, 10464, Note_off_c, 6, 72, 0
8, 10464, Note_on_c, 6, 70, 85
8, 10560, Note_off_c, 6, 70, 0
8, 10560, Note_on_c, 6, 70, 85
8, 10656, Note_off_c, 6, 70, 0
8, 10656, Note_on_c, 6, 68, 85
8, 10752, Note_off_c, 6, 68, 0
8, 10752, Note_on_c, 6, 68, 85
8, 10848, Note_off_c, 6, 68, 0
8, 10848, Note_on_c, 6, 70, 85
8, 10944, Note_off_c, 6, 70, 0
8, 10944, Note_on_c, 6, 74, 85
8, 11040, Note_off_c, 6, 74, 0
8, 11040, Note_on_c, 6, 75, 85
8, 11136, Note_off_c, 6, 75, 0
8, 11136, Note_on_c, 6, 77, 85
8, 11232, Note_off_c, 6, 77, 0
8, 11232, Note_on_c, 6, 74, 85
8, 11328, Note_off_c, 6, 74, 0
8, 11328, Note_on_c, 6, 74, 85
8, 11424, Note_off_c, 6, 74, 0
8, 11424, Note_on_c, 6, 72, 85
8, 11520, Note_off_c, 6, 72, 0
8, 11520, Note_on_c, 6, 72, 85
8, 11616, Note_off_c, 6, 72, 0
8, 11616, Note_on_c, 6, 70, 85
8, 11712, Note_off_c, 6, 70, 0
8, 11712, Note_on_c, 6, 70, 85
8, 11808, Note_off_c, 6, 70, 0
8, 11808, Note_on_c, 6, 68, 85
8, 11904, Note_off_c, 6, 68, 0
8, 11904, Note_on_c, 6, 68, 85
8, 12000, Note_off_c, 6, 68, 0
8, 12000, Note_on_c, 6, 67, 85
8, 12096, Note_off_c, 6, 67, 0
8, 12096, Note_on_c, 6, 67, 85
8, 12192, Note_off_c, 6, 67, 0
8, 12192, Note_on_c, 6, 70, 85
8, 12288, Note_off_c, 6, 70, 0
8, 12288, Note_on_c, 6, 68, 85
8, 12384, Note_off_c, 6, 68, 0
8, 12384, Note_on_c, 6, 67, 85
8, 12480, Note_off_c, 6, 67, 0
8, 12480, Note_on_c, 6, 67, 85
8, 12576, Note_off_c, 6, 67, 0
8, 12576, Note_on_c, 6, 65, 85
8, 12672, Note_off_c, 6, 65, 0
8, 12672, Note_on_c, 6, 65, 85
8, 12768, Note_off_c, 6, 65, 0
8, 12768, Note_on_c, 6, 70, 85
8, 12864, Note_off_c, 6, 70, 0
8, 12864, Note_on_c, 6, 67, 85
8, 12960, Note_off_c, 6, 67, 0
8, 12960, Note_on_c, 6, 65, 85
8, 13056, Note_off_c, 6, 65, 0
8, 13056, Note_on_c, 6, 65, 85
8, 13152, Note_off_c, 6, 65, 0
8, 13152, Note_on_c, 6, 63, 85
8, 13248, Note_off_c, 6, 63, 0
8, 13248, Note_on_c, 6, 63, 85
8, 13344, Note_off_c, 6, 63, 0
8, 13344, Note_on_c, 6, 70, 85
8, 13440, Note_off_c, 6, 70, 0
8, 13440, Note_on_c, 6, 65, 85
8, 13536, Note_off_c, 6, 65, 0
8, 13536, Note_on_c, 6, 63, 85
8, 13632, Note_off_c, 6, 63, 0
8, 13632, Note_on_c, 6, 63, 85
8, 13728, Note_off_c, 6, 63, 0
8, 13728, Note_on_c, 6, 62, 88
8, 13824, Note_off_c, 6, 62, 0
8, 13824, Note_on_c, 6, 62, 90
8, 13920, Note_off_c, 6, 62, 0
8, 13920, Note_on_c, 6, 70, 92
8, 14016, Note_off_c, 6, 70, 0
8, 14016, Note_on_c, 6, 63, 94
8, 14112, Note_off_c, 6, 63, 0
8, 14112, Note_on_c, 6, 62, 97
8, 14208, Note_off_c, 6, 62, 0
8, 14208, Note_on_c, 6, 62, 99
8, 14304, Note_off_c, 6, 62, 0
8, 14304, Note_on_c, 6, 60, 101
8, 14400, Note_off_c, 6, 60, 0
8, 14400, Note_on_c, 6, 70, 105
8, 14496, Note_off_c, 6, 70, 0
8, 14496, Note_on_c, 6, 69, 105
8, 14592, Note_off_c, 6, 69, 0
8, 14592, Note_on_c, 6, 69, 105
8, 14688, Note_off_c, 6, 69, 0
8, 14688, Note_on_c, 6, 70, 105
8, 14784, Note_off_c, 6, 70, 0
8, 14784, Note_on_c, 6, 70, 105
8, 14880, Note_off_c, 6, 70, 0
8, 14880, Note_on_c, 6, 60, 105
8, 14976, Note_off_c, 6, 60, 0
8, 14976, Note_on_c, 6, 60, 105
8, 15072, Note_off_c, 6, 60, 0
8, 15072, Note_on_c, 6, 69, 105
8, 15168, Note_off_c, 6, 69, 0
8, 15168, Note_on_c, 6, 69, 105
8, 15264, Note_off_c, 6, 69, 0
8, 15264, Note_on_c, 6, 70, 105
8, 15360, Note_off_c, 6, 70, 0
8, 15360, Note_on_c, 6, 70, 105
8, 15456, Note_off_c, 6, 70, 0
8, 15456, Note_on_c, 6, 60, 105
8, 15552, Note_off_c, 6, 60, 0
8, 15552, Note_on_c, 6, 60, 105
8, 15648, Note_off_c, 6, 60, 0
8, 15648, Note_on_c, 6, 69, 105
8, 15744, Note_off_c, 6, 69, 0
8, 15744, Note_on_c, 6, 69, 105
8, 15840, Note_off_c, 6, 69, 0
8, 15840, Note_on_c, 6, 70, 105
8, 15936, Note_off_c, 6, 70, 0
8, 15936, Note_on_c, 6, 70, 105
8, 16032, Note_off_c, 6, 70, 0
8, 16032, Note_on_c, 6, 60, 105
8, 16128, Note_off_c, 6, 60, 0
8, 16128, Note_on_c, 6, 60, 105
8, 16224, Note_off_c, 6, 60, 0
8, 16224, Note_on_c, 6, 69, 105
8, 16320, Note_off_c, 6, 69, 0
8, 16320, Note_on_c, 6, 69, 105
8, 16416, Note_off_c, 6, 69, 0
8, 16416, Note_on_c, 6, 70, 105
8, 16512, Note_off_c, 6, 70, 0
8, 16512, Note_on_c, 6, 70, 105
8, 16608, Note_off_c, 6, 70, 0
8, 16608, Note_on_c, 6, 60, 105
8, 16704, Note_off_c, 6, 60, 0
8, 16704, Note_on_c, 6, 60, 105
8, 16800, Note_off_c, 6, 60, 0
8, 16800, Note_on_c, 6, 63, 105
8, 16896, Note_off_c, 6, 63, 0
8, 16896, Note_on_c, 6, 63, 105
8, 16992, Note_off_c, 6, 63, 0
8, 16992, Note_on_c, 6, 62, 105
8, 17088, Note_off_c, 6, 62, 0
8, 17088, Note_on_c, 6, 62, 105
8, 17184, Note_off_c, 6, 62, 0
8, 17184, Note_on_c, 6, 67, 105
8, 17280, Note_off_c, 6, 67, 0
8, 17280, Note_on_c, 6, 67, 105
8, 17376, Note_off_c, 6, 67, 0
8, 17376, Note_on_c, 6, 65, 105
8, 17472, Note_off_c, 6, 65, 0
8, 17472, Note_on_c, 6, 65, 105
8, 17568, Note_off_c, 6, 65, 0
8, 17568, Note_on_c, 6, 69, 105
8, 17664, Note_off_c, 6, 69, 0
8, 17664, Note_on_c, 6, 69, 105
8, 17760, Note_off_c, 6, 69, 0
8, 17760, Note_on_c, 6, 70, 105
8, 17856, Note_off_c, 6, 70, 0
8, 17856, Note_on_c, 6, 60, 105
8, 17856, Note_on_c, 6, 63, 105
8, 17920, Note_off_c, 6, 60, 0
8, 17920, Note_off_c, 6, 63, 0
8, 18048, Note_on_c, 6, 62, 105
8, 18096, Note_off_c, 6, 62, 0
8, 18096, Note_on_c, 6, 60, 105
8, 18144, Note_off_c, 6, 60, 0
8, 18144, Note_on_c, 6, 62, 105
8, 18192, Note_off_c, 6, 62, 0
8, 18192, Note_on_c, 6, 60, 105
8, 18240, Note_off_c, 6, 60, 0
8, 18240, Note_on_c, 6, 62, 105
8, 18288, Note_off_c, 6, 62, 0
8, 18288, Note_on_c, 6, 60, 105
8, 18432, Note_off_c, 6, 60, 0
8, 18432, Note_on_c, 6, 58, 105
8, 18816, Note_off_c, 6, 58, 0
8, 18816, Note_on_c, 6, 60, 105
8, 19008, Note_off_c, 6, 60, 0
8, 19008, Note_on_c, 6, 62, 85
8, 19104, Note_off_c, 6, 62, 0
8, 19104, Note_on_c, 6, 70, 85
8, 19200, Note_off_c, 6, 70, 0
8, 19200, Note_on_c, 6, 65, 85
8, 19296, Note_off_c, 6, 65, 0
8, 19296, Note_on_c, 6, 63, 85
8, 19392, Note_off_c, 6, 63, 0
8, 19392, Note_on_c, 6, 63, 85
8, 19488, Note_off_c, 6, 63, 0
8, 19488, Note_on_c, 6, 62, 85
8, 19584, Note_off_c, 6, 62, 0
8, 19584, Note_on_c, 6, 62, 85
8, 20256, Note_off_c, 6, 62, 0
8, 20256, Note_on_c, 6, 70, 85
8, 20352, Note_off_c, 6, 70, 0
8, 20352, Note_on_c, 6, 62, 85
8, 20448, Note_off_c, 6, 62, 0
8, 20448, Note_on_c, 6, 60, 85
8, 20544, Note_off_c, 6, 60, 0
8, 20544, Note_on_c, 6, 60, 85
8, 20640, Note_off_c, 6, 60, 0
8, 20640, Note_on_c, 6, 58, 85
8, 20736, Note_off_c, 6, 58, 0
8, 20736, Note_on_c, 6, 62, 85
8, 21312, Note_off_c, 6, 62, 0
8, 21312, Note_on_c, 6, 74, 85
8, 21696, Note_off_c, 6, 74, 0
8, 21696, Note_on_c, 6, 72, 85
8, 21888, Note_off_c, 6, 72, 0
8, 21888, Note_on_c, 6, 70, 85
8, 22080, Note_off_c, 6, 70, 0
8, 22080, Note_on_c, 6, 65, 85
8, 22272, Note_off_c, 6, 65, 0
8, 22272, Note_on_c, 6, 72, 85
8, 22464, Note_off_c, 6, 72, 0
8, 22464, Note_on_c, 6, 74, 85
8, 22656, Note_off_c, 6, 74, 0
8, 22656, Note_on_c, 6, 75, 85
8, 22848, Note_off_c, 6, 75, 0
8, 22848, Note_on_c, 6, 77, 85
8, 23232, Note_off_c, 6, 77, 0
8, 23232, Note_on_c, 6, 75, 85
8, 23424, Note_off_c, 6, 75, 0
8, 23424, Note_on_c, 6, 74, 85
8, 23616, Note_off_c, 6, 74, 0
8, 23616, Note_on_c, 6, 72, 85
8, 24000, Note_off_c, 6, 72, 0
8, 24000, Note_on_c, 6, 70, 85
8, 24192, Note_off_c, 6, 70, 0
8, 24192, Note_on_c, 6, 69, 85
8, 24576, Note_off_c, 6, 69, 0
8, 24576, Note_on_c, 6, 70, 85
8, 24768, Note_off_c, 6, 70, 0
8, 24768, Note_on_c, 6, 72, 85
8, 24960, Note_off_c, 6, 72, 0
8, 24960, Note_on_c, 6, 74, 85
8, 25152, Note_off_c, 6, 74, 0
8, 25152, Note_on_c, 6, 75, 85
8, 25536, Note_off_c, 6, 75, 0
8, 25536, Note_on_c, 6, 74, 85
8, 25728, Note_off_c, 6, 74, 0
8, 25728, Note_on_c, 6, 72, 85
8, 25920, Note_off_c, 6, 72, 0
8, 25920, Note_on_c, 6, 70, 68
8, 26016, Note_off_c, 6, 70, 0
8, 26016, Note_on_c, 6, 68, 68
8, 26112, Note_off_c, 6, 68, 0
8, 26112, Note_on_c, 6, 68, 68
8, 26208, Note_off_c, 6, 68, 0
8, 26208, Note_on_c, 6, 67, 68
8, 26304, Note_off_c, 6, 67, 0
8, 26304, Note_on_c, 6, 67, 68
8, 26400, Note_off_c, 6, 67, 0
8, 26400, Note_on_c, 6, 65, 68
8, 26496, Note_off_c, 6, 65, 0
8, 26496, Note_on_c, 6, 65, 68
8, 26592, Note_off_c, 6, 65, 0
8, 26592, Note_on_c, 6, 70, 68
8, 26688, Note_off_c, 6, 70, 0
8, 26688, Note_on_c, 6, 65, 68
8, 26784, Note_off_c, 6, 65, 0
8, 26784, Note_on_c, 6, 63, 68
8, 26880, Note_off_c, 6, 63, 0
8, 26880, Note_on_c, 6, 63, 68
8, 26976, Note_off_c, 6, 63, 0
8, 26976, Note_on_c, 6, 62, 68
8, 27072, Note_off_c, 6, 62, 0
8, 27072, Note_on_c, 6, 62, 68
8, 27168, Note_off_c, 6, 62, 0
8, 27168, Note_on_c, 6, 70, 68
8, 27264, Note_off_c, 6, 70, 0
8, 27264, Note_on_c, 6, 62, 68
8, 27360, Note_off_c, 6, 62, 0
8, 27360, Note_on_c, 6, 60, 68
8, 27456, Note_off_c, 6, 60, 0
8, 27456, Note_on_c, 6, 60, 68
8, 27552, Note_off_c, 6, 60, 0
8, 27552, Note_on_c, 6, 58, 68
8, 27648, Note_off_c, 6, 58, 0
8, 27648, Note_on_c, 6, 62, 68
8, 28416, Note_off_c, 6, 62, 0
8, 28416, Note_on_c, 6, 65, 68
8, 28608, Note_off_c, 6, 65, 0
8, 28608, Note_on_c, 6, 70, 68
8, 28800, Note_off_c, 6, 70, 0
8, 28800, Note_on_c, 6, 69, 68
8, 28992, Note_off_c, 6, 69, 0
8, 28992, Note_on_c, 6, 70, 68
8, 29184, Note_off_c, 6, 70, 0
8, 29184, Note_on_c, 6, 63, 68
8, 29376, Note_off_c, 6, 63, 0
8, 29376, Note_on_c, 6, 63, 68
8, 29568, Note_off_c, 6, 63, 0
8, 29568, Note_on_c, 6, 69, 68
8, 29760, Note_off_c, 6, 69, 0
8, 29760, Note_on_c, 6, 70, 68
8, 29952, Note_off_c, 6, 70, 0
8, 29952, Note_on_c, 6, 69, 68
8, 30144, Note_off_c, 6, 69, 0
8, 30144, Note_on_c, 6, 70, 68
8, 30336, Note_off_c, 6, 70, 0
8, 30336, Note_on_c, 6, 62, 68
8, 30528, Note_off_c, 6, 62, 0
8, 30528, Note_on_c, 6, 62, 68
8, 30720, Note_off_c, 6, 62, 0
8, 30720, Note_on_c, 6, 65, 68
8, 30912, Note_off_c, 6, 65, 0
8, 30912, Note_on_c, 6, 69, 68
8, 31104, Note_off_c, 6, 69, 0
8, 31104, Note_on_c, 6, 72, 68
8, 31296, Note_off_c, 6, 72, 0
8, 31296, Note_on_c, 6, 70, 68
8, 31488, Note_off_c, 6, 70, 0
8, 31488, Note_on_c, 6, 69, 68
8, 31680, Note_off_c, 6, 69, 0
8, 31680, Note_on_c, 6, 70, 68
8, 32064, Note_off_c, 6, 70, 0
8, 32064, Note_on_c, 6, 63, 68
8, 32256, Note_off_c, 6, 63, 0
8, 32256, Note_on_c, 6, 63, 96
8, 32304, Note_off_c, 6, 63, 0
8, 32304, Note_on_c, 6, 62, 96
8, 32352, Note_off_c, 6, 62, 0
8, 32352, Note_on_c, 6, 63, 96
8, 32400, Note_off_c, 6, 63, 0
8, 32400, Note_on_c, 6, 62, 96
8, 32448, Note_off_c, 6, 62, 0
8, 32448, Note_on_c, 6, 63, 96
8, 32496, Note_off_c, 6, 63, 0
8, 32496, Note_on_c, 6, 62, 96
8, 32640, Note_off_c, 6, 62, 0
8, 32640, Note_on_c, 6, 60, 68
8, 32832, Note_off_c, 6, 60, 0
8, 32832, Note_on_c, 6, 72, 105
8, 33216, Note_off_c, 6, 72, 0
8, 33216, Note_on_c, 6, 70, 105
8, 33408, Note_off_c, 6, 70, 0
8, 33408, Note_on_c, 6, 69, 105
8, 33792, Note_off_c, 6, 69, 0
8, 33792, Note_on_c, 6, 70, 105
8, 33984, Note_off_c, 6, 70, 0
8, 33984, Note_on_c, 6, 72, 105
8, 34176, Note_off_c, 6, 72, 0
8, 34176, Note_on_c, 6, 74, 105
8, 34368, Note_off_c, 6, 74, 0
8, 34368, Note_on_c, 6, 75, 105
8, 34560, Note_off_c, 6, 75, 0
8, 34560, Note_on_c, 6, 77, 105
8, 35232, Note_off_c, 6, 77, 0
8, 35232, Note_on_c, 6, 72, 68
8, 35328, Note_off_c, 6, 72, 0
8, 35328, Note_on_c, 6, 72, 68
8, 35424, Note_off_c, 6, 72, 0
8, 35424, Note_on_c, 6, 70, 68
8, 35520, Note_off_c, 6, 70, 0
8, 35520, Note_on_c, 6, 70, 68
8, 35616, Note_off_c, 6, 70, 0
8, 35616, Note_on_c, 6, 69, 68
8, 35712, Note_off_c, 6, 69, 0
8, 35712, Note_on_c, 6, 67, 68
8, 35808, Note_off_c, 6, 67, 0
8, 35808, Note_on_c, 6, 74, 68
8, 35904, Note_off_c, 6, 74, 0
8, 35904, Note_on_c, 6, 67, 68
8, 36000, Note_off_c, 6, 67, 0
8, 36000, Note_on_c, 6, 65, 68
8, 36096, Note_off_c, 6, 65, 0
8, 36096, Note_on_c, 6, 65, 68
8, 36192, Note_off_c, 6, 65, 0
8, 36192, Note_on_c, 6, 63, 68
8, 36288, Note_off_c, 6, 63, 0
8, 36288, Note_on_c, 6, 63, 68
8, 36480, Note_off_c, 6, 63, 0
8, 36480, Note_on_c, 6, 63, 68
8, 36576, Note_off_c, 6, 63, 0
8, 36576, Note_on_c, 6, 62, 68
8, 36672, Note_off_c, 6, 62, 0
8, 36672, Note_on_c, 6, 62, 68
8, 36768, Note_off_c, 6, 62, 0
8, 36768, Note_on_c, 6, 60, 68
8, 36864, Note_off_c, 6, 60, 0
8, 36864, Note_on_c, 6, 70, 105
8, 37056, Note_off_c, 6, 70, 0
8, 37056, Note_on_c, 6, 69, 105
8, 37152, Note_off_c, 6, 69, 0
8, 37152, Note_on_c, 6, 67, 105
8, 37248, Note_off_c, 6, 67, 0
8, 37248, Note_on_c, 6, 67, 105
8, 37344, Note_off_c, 6, 67, 0
8, 37344, Note_on_c, 6, 65, 105
8, 37440, Note_off_c, 6, 65, 0
8, 37440, Note_on_c, 6, 65, 105
8, 37536, Note_off_c, 6, 65, 0
8, 37536, Note_on_c, 6, 70, 105
8, 37632, Note_off_c, 6, 70, 0
8, 37632, Note_on_c, 6, 65, 105
8, 37728, Note_off_c, 6, 65, 0
8, 37728, Note_on_c, 6, 63, 105
8, 37824, Note_off_c, 6, 63, 0
8, 37824, Note_on_c, 6, 63, 105
8, 37920, Note_off_c, 6, 63, 0
8, 37920, Note_on_c, 6, 62, 105
8, 38016, Note_off_c, 6, 62, 0
8, 38016, Note_on_c, 6, 62, 105
8, 38400, Note_off_c, 6, 62, 0
8, 38400, Note_on_c, 6, 63, 105
8, 38592, Note_off_c, 6, 63, 0
8, 38592, Note_on_c, 6, 65, 105
8, 38784, Note_off_c, 6, 65, 0
8, 38784, Note_on_c, 6, 67, 105
8, 38976, Note_off_c, 6, 67, 0
8, 38976, Note_on_c, 6, 68, 105
8, 39168, Note_off_c, 6, 68, 0
8, 39168, Note_on_c, 6, 70, 105
8, 39840, Note_off_c, 6, 70, 0
8, 39840, Note_on_c, 6, 65, 68
8, 39936, Note_off_c, 6, 65, 0
8, 39936, Note_on_c, 6, 65, 68
8, 40032, Note_off_c, 6, 65, 0
8, 40032, Note_on_c, 6, 63, 68
8, 40128, Note_off_c, 6, 63, 0
8, 40128, Note_on_c, 6, 63, 68
8, 40224, Note_off_c, 6, 63, 0
8, 40224, Note_on_c, 6, 62, 68
8, 40320, Note_off_c, 6, 62, 0
8, 40320, Note_on_c, 6, 62, 68
8, 40416, Note_off_c, 6, 62, 0
8, 40416, Note_on_c, 6, 68, 68
8, 40512, Note_off_c, 6, 68, 0
8, 40512, Note_on_c, 6, 62, 68
8, 40608, Note_off_c, 6, 62, 0
8, 40608, Note_on_c, 6, 60, 68
8, 40704, Note_off_c, 6, 60, 0
8, 40704, Note_on_c, 6, 60, 68
8, 40800, Note_off_c, 6, 60, 0
8, 40800, Note_on_c, 6, 58, 68
8, 40896, Note_off_c, 6, 58, 0
8, 40896, Note_on_c, 6, 58, 68
8, 40992, Note_off_c, 6, 58, 0
8, 40992, Note_on_c, 6, 65, 68
8, 41088, Note_off_c, 6, 65, 0
8, 41088, Note_on_c, 6, 58, 68
8, 41184, Note_off_c, 6, 58, 0
8, 41184, Note_on_c, 6, 56, 68
8, 41280, Note_off_c, 6, 56, 0
8, 41280, Note_on_c, 6, 56, 68
8, 41376, Note_off_c, 6, 56, 0
8, 41376, Note_on_c, 6, 55, 68
8, 41472, Note_off_c, 6, 55, 0
8, 41472, Note_on_c, 6, 63, 68
8, 42240, Note_off_c, 6, 63, 0
8, 42240, Note_on_c, 6, 67, 68
8, 42432, Note_off_c, 6, 67, 0
8, 42432, Note_on_c, 6, 68, 68
8, 42624, Note_off_c, 6, 68, 0
8, 42624, Note_on_c, 6, 74, 68
8, 42816, Note_off_c, 6, 74, 0
8, 42816, Note_on_c, 6, 75, 68
8, 43008, Note_off_c, 6, 75, 0
8, 43008, Note_on_c, 6, 68, 68
8, 43392, Note_off_c, 6, 68, 0
8, 43392, Note_on_c, 6, 65, 68
8, 43584, Note_off_c, 6, 65, 0
8, 43584, Note_on_c, 6, 67, 68
8, 43776, Note_off_c, 6, 67, 0
8, 43776, Note_on_c, 6, 74, 68
8, 43968, Note_off_c, 6, 74, 0
8, 43968, Note_on_c, 6, 75, 68
8, 44160, Note_off_c, 6, 75, 0
8, 44160, Note_on_c, 6, 67, 68
8, 44352, Note_off_c, 6, 67, 0
8, 44352, Note_on_c, 6, 67, 68
8, 44544, Note_off_c, 6, 67, 0
8, 44544, Note_on_c, 6, 70, 68
8, 44736, Note_off_c, 6, 70, 0
8, 44736, Note_on_c, 6, 74, 68
8, 44928, Note_off_c, 6, 74, 0
8, 44928, Note_on_c, 6, 77, 68
8, 45312, Note_off_c, 6, 77, 0
8, 45312, Note_on_c, 6, 74, 68
8, 45504, Note_off_c, 6, 74, 0
8, 45504, Note_on_c, 6, 75, 68
8, 45888, Note_off_c, 6, 75, 0
8, 45888, Note_on_c, 6, 68, 68
8, 46080, Note_off_c, 6, 68, 0
8, 46080, Note_on_c, 6, 69, 68
8, 46128, Note_off_c, 6, 69, 0
8, 46128, Note_on_c, 6, 67, 68
8, 46176, Note_off_c, 6, 67, 0
8, 46176, Note_on_c, 6, 69, 68
8, 46224, Note_off_c, 6, 69, 0
8, 46224, Note_on_c, 6, 67, 68
8, 46272, Note_off_c, 6, 67, 0
8, 46272, Note_on_c, 6, 69, 68
8, 46320, Note_off_c, 6, 69, 0
8, 46320, Note_on_c, 6, 67, 68
8, 46464, Note_off_c, 6, 67, 0
8, 46464, Note_on_c, 6, 65, 68
8, 46656, Note_off_c, 6, 65, 0
8, 46656, Note_on_c, 6, 74, 68
8, 46752, Note_off_c, 6, 74, 0
8, 46752, Note_on_c, 6, 75, 68
8, 46848, Note_off_c, 6, 75, 0
8, 46848, Note_on_c, 6, 77, 68
8, 46944, Note_off_c, 6, 77, 0
8, 46944, Note_on_c, 6, 74, 68
8, 47040, Note_off_c, 6, 74, 0
8, 47040, Note_on_c, 6, 74, 68
8, 47136, Note_off_c, 6, 74, 0
8, 47136, Note_on_c, 6, 72, 68
8, 47232, Note_off_c, 6, 72, 0
8, 47232, Note_on_c, 6, 72, 68
8, 47328, Note_off_c, 6, 72, 0
8, 47328, Note_on_c, 6, 71, 68
8, 47424, Note_off_c, 6, 71, 0
8, 47424, Note_on_c, 6, 71, 68
8, 47520, Note_off_c, 6, 71, 0
8, 47520, Note_on_c, 6, 72, 68
8, 47616, Note_off_c, 6, 72, 0
8, 47616, Note_on_c, 6, 74, 68
8, 47712, Note_off_c, 6, 74, 0
8, 47712, Note_on_c, 6, 71, 68
8, 47808, Note_off_c, 6, 71, 0
8, 47808, Note_on_c, 6, 65, 68
8, 47904, Note_off_c, 6, 65, 0
8, 47904, Note_on_c, 6, 67, 68
8, 48000, Note_off_c, 6, 67, 0
8, 48000, Note_on_c, 6, 69, 68
8, 48096, Note_off_c, 6, 69, 0
8, 48096, Note_on_c, 6, 67, 68
8, 48192, Note_off_c, 6, 67, 0
8, 48192, Note_on_c, 6, 67, 68
8, 48288, Note_off_c, 6, 67, 0
8, 48288, Note_on_c, 6, 65, 68
8, 48384, Note_off_c, 6, 65, 0
8, 48384, Note_on_c, 6, 63, 68
8, 48480, Note_off_c, 6, 63, 0
8, 48480, Note_on_c, 6, 65, 68
8, 48576, Note_off_c, 6, 65, 0
8, 48576, Note_on_c, 6, 67, 68
8, 48672, Note_off_c, 6, 67, 0
8, 48672, Note_on_c, 6, 71, 68
8, 48768, Note_off_c, 6, 71, 0
8, 48768, Note_on_c, 6, 71, 68
8, 48864, Note_off_c, 6, 71, 0
8, 48864, Note_on_c, 6, 72, 68
8, 48960, Note_off_c, 6, 72, 0
8, 48960, Note_on_c, 6, 72, 68
8, 49056, Note_off_c, 6, 72, 0
8, 49056, Note_on_c, 6, 74, 68
8, 49152, Note_off_c, 6, 74, 0
8, 49152, Note_on_c, 6, 75, 68
8, 49248, Note_off_c, 6, 75, 0
8, 49248, Note_on_c, 6, 72, 68
8, 49344, Note_off_c, 6, 72, 0
8, 49344, Note_on_c, 6, 72, 68
8, 49440, Note_off_c, 6, 72, 0
8, 49440, Note_on_c, 6, 70, 68
8, 49536, Note_off_c, 6, 70, 0
8, 49536, Note_on_c, 6, 70, 68
8, 49632, Note_off_c, 6, 70, 0
8, 49632, Note_on_c, 6, 69, 68
8, 49728, Note_off_c, 6, 69, 0
8, 49728, Note_on_c, 6, 69, 68
8, 49824, Note_off_c, 6, 69, 0
8, 49824, Note_on_c, 6, 70, 68
8, 49920, Note_off_c, 6, 70, 0
8, 49920, Note_on_c, 6, 72, 68
8, 50016, Note_off_c, 6, 72, 0
8, 50016, Note_on_c, 6, 69, 68
8, 50112, Note_off_c, 6, 69, 0
8, 50112, Note_on_c, 6, 63, 68
8, 50208, Note_off_c, 6, 63, 0
8, 50208, Note_on_c, 6, 65, 68
8, 50304, Note_off_c, 6, 65, 0
8, 50304, Note_on_c, 6, 67, 68
8, 50400, Note_off_c, 6, 67, 0
8, 50400, Note_on_c, 6, 65, 68
8, 50496, Note_off_c, 6, 65, 0
8, 50496, Note_on_c, 6, 65, 68
8, 50592, Note_off_c, 6, 65, 0
8, 50592, Note_on_c, 6, 63, 68
8, 50688, Note_off_c, 6, 63, 0
8, 50688, Note_on_c, 6, 62, 68
8, 50784, Note_off_c, 6, 62, 0
8, 50784, Note_on_c, 6, 63, 68
8, 50880, Note_off_c, 6, 63, 0
8, 50880, Note_on_c, 6, 65, 68
8, 50976, Note_off_c, 6, 65, 0
8, 50976, Note_on_c, 6, 69, 68
8, 51072, Note_off_c, 6, 69, 0
8, 51072, Note_on_c, 6, 69, 68
8, 51168, Note_off_c, 6, 69, 0
8, 51168, Note_on_c, 6, 70, 68
8, 51264, Note_off_c, 6, 70, 0
8, 51264, Note_on_c, 6, 70, 68
8, 51360, Note_off_c, 6, 70, 0
8, 51360, Note_on_c, 6, 68, 68
8, 51456, Note_off_c, 6, 68, 0
8, 51456, Note_on_c, 6, 68, 68
8, 51552, Note_off_c, 6, 68, 0
8, 51552, Note_on_c, 6, 67, 68
8, 51648, Note_off_c, 6, 67, 0
8, 51648, Note_on_c, 6, 67, 68
8, 51744, Note_off_c, 6, 67, 0
8, 51744, Note_on_c, 6, 65, 68
8, 51840, Note_off_c, 6, 65, 0
8, 51840, Note_on_c, 6, 65, 68
8, 51936, Note_off_c, 6, 65, 0
8, 51936, Note_on_c, 6, 70, 68
8, 52032, Note_off_c, 6, 70, 0
8, 52032, Note_on_c, 6, 67, 68
8, 52128, Note_off_c, 6, 67, 0
8, 52128, Note_on_c, 6, 65, 68
8, 52224, Note_off_c, 6, 65, 0
8, 52224, Note_on_c, 6, 65, 68
8, 52320, Note_off_c, 6, 65, 0
8, 52320, Note_on_c, 6, 63, 68
8, 52416, Note_off_c, 6, 63, 0
8, 52416, Note_on_c, 6, 63, 68
8, 52512, Note_off_c, 6, 63, 0
8, 52512, Note_on_c, 6, 70, 68
8, 52608, Note_off_c, 6, 70, 0
8, 52608, Note_on_c, 6, 65, 68
8, 52704, Note_off_c, 6, 65, 0
8, 52704, Note_on_c, 6, 63, 68
8, 52800, Note_off_c, 6, 63, 0
8, 52800, Note_on_c, 6, 63, 68
8, 52896, Note_off_c, 6, 63, 0
8, 52896, Note_on_c, 6, 62, 68
8, 52992, Note_off_c, 6, 62, 0
8, 52992, Note_on_c, 6, 62, 68
8, 53088, Note_off_c, 6, 62, 0
8, 53088, Note_on_c, 6, 70, 68
8, 53184, Note_off_c, 6, 70, 0
8, 53184, Note_on_c, 6, 63, 68
8, 53280, Note_off_c, 6, 63, 0
8, 53280, Note_on_c, 6, 62, 68
8, 53376, Note_off_c, 6, 62, 0
8, 53376, Note_on_c, 6, 62, 68
8, 53472, Note_off_c, 6, 62, 0
8, 53472, Note_on_c, 6, 60, 68
8, 53568, Note_off_c, 6, 60, 0
8, 53568, Note_on_c, 6, 60, 68
8, 54240, Note_off_c, 6, 60, 0
8, 54240, Note_on_c, 6, 69, 96
8, 54336, Note_off_c, 6, 69, 0
8, 54336, Note_on_c, 6, 69, 96
8, 54432, Note_off_c, 6, 69, 0
8, 54432, Note_on_c, 6, 70, 96
8, 54528, Note_off_c, 6, 70, 0
8, 54528, Note_on_c, 6, 70, 96
8, 54624, Note_off_c, 6, 70, 0
8, 54624, Note_on_c, 6, 60, 96
8, 54720, Note_off_c, 6, 60, 0
8, 54720, Note_on_c, 6, 60, 68
8, 55392, Note_off_c, 6, 60, 0
8, 55392, Note_on_c, 6, 69, 96
8, 55488, Note_off_c, 6, 69, 0
8, 55488, Note_on_c, 6, 69, 96
8, 55584, Note_off_c, 6, 69, 0
8, 55584, Note_on_c, 6, 70, 96
8, 55680, Note_off_c, 6, 70, 0
8, 55680, Note_on_c, 6, 70, 96
8, 55776, Note_off_c, 6, 70, 0
8, 55776, Note_on_c, 6, 60, 96
8, 55872, Note_off_c, 6, 60, 0
8, 55872, Note_on_c, 6, 60, 68
8, 55968, Note_off_c, 6, 60, 0
8, 55968, Note_on_c, 6, 63, 68
8, 56064, Note_off_c, 6, 63, 0
8, 56064, Note_on_c, 6, 63, 68
8, 56160, Note_off_c, 6, 63, 0
8, 56160, Note_on_c, 6, 62, 68
8, 56256, Note_off_c, 6, 62, 0
8, 56256, Note_on_c, 6, 62, 68
8, 56352, Note_off_c, 6, 62, 0
8, 56352, Note_on_c, 6, 67, 68
8, 56448, Note_off_c, 6, 67, 0
8, 56448, Note_on_c, 6, 67, 68
8, 56544, Note_off_c, 6, 67, 0
8, 56544, Note_on_c, 6, 65, 68
8, 56640, Note_off_c, 6, 65, 0
8, 56640, Note_on_c, 6, 65, 68
8, 56736, Note_off_c, 6, 65, 0
8, 56736, Note_on_c, 6, 69, 68
8, 56832, Note_off_c, 6, 69, 0
8, 56832, Note_on_c, 6, 69, 68
8, 56928, Note_off_c, 6, 69, 0
8, 56928, Note_on_c, 6, 70, 68
8, 57024, Note_off_c, 6, 70, 0
8, 57024, Note_on_c, 6, 63, 68
8, 57216, Note_off_c, 6, 63, 0
8, 57216, Note_on_c, 6, 60, 68
8, 57600, Note_off_c, 6, 60, 0
8, 58176, Note_on_c, 6, 65, 68
8, 58752, Note_off_c, 6, 65, 0
8, 58752, Note_on_c, 6, 63, 68
8, 59328, Note_off_c, 6, 63, 0
8, 59328, Note_on_c, 6, 68, 68
8, 59904, Note_off_c, 6, 68, 0
8, 59904, Note_on_c, 6, 67, 68
8, 60288, Note_off_c, 6, 67, 0
8, 60288, Note_on_c, 6, 72, 68
8, 60480, Note_off_c, 6, 72, 0
8, 60480, Note_on_c, 6, 72, 68
8, 60672, Note_off_c, 6, 72, 0
8, 60864, Note_on_c, 6, 70, 68
8, 61056, Note_off_c, 6, 70, 0
8, 61056, Note_on_c, 6, 70, 68
8, 61248, Note_off_c, 6, 70, 0
8, 61440, Note_on_c, 6, 69, 68
8, 61632, Note_off_c, 6, 69, 0
8, 61632, Note_on_c, 6, 67, 68
8, 61824, Note_off_c, 6, 67, 0
8, 62016, Note_on_c, 6, 67, 68
8, 62208, Note_off_c, 6, 67, 0
8, 62784, Note_on_c, 6, 65, 85
8, 63168, Note_off_c, 6, 65, 0
8, 63168, Note_on_c, 6, 63, 85
8, 63360, Note_off_c, 6, 63, 0
8, 63360, Note_on_c, 6, 62, 85
8, 63744, Note_off_c, 6, 62, 0
8, 63744, Note_on_c, 6, 63, 85
8, 63936, Note_off_c, 6, 63, 0
8, 63936, Note_on_c, 6, 65, 85
8, 64128, Note_off_c, 6, 65, 0
8, 64128, Note_on_c, 6, 67, 85
8, 64320, Note_off_c, 6, 67, 0
8, 64320, Note_on_c, 6, 69, 85
8, 64512, Note_off_c, 6, 69, 0
8, 64512, Note_on_c, 6, 70, 105
8, 65280, Note_off_c, 6, 70, 0
8, 65280, Note_on_c, 6, 65, 105
8, 65472, Note_off_c, 6, 65, 0
8, 65472, Note_on_c, 6, 70, 105
8, 65664, Note_off_c, 6, 70, 0
8, 65664, Note_on_c, 6, 69, 105
8, 65856, Note_off_c, 6, 69, 0
8, 65856, Note_on_c, 6, 70, 105
8, 66048, Note_off_c, 6, 70, 0
8, 66048, Note_on_c, 6, 63, 105
8, 66240, Note_off_c, 6, 63, 0
8, 66240, Note_on_c, 6, 63, 105
8, 66432, Note_off_c, 6, 63, 0
8, 66432, Note_on_c, 6, 69, 105
8, 66624, Note_off_c, 6, 69, 0
8, 66624, Note_on_c, 6, 70, 105
8, 66816, Note_off_c, 6, 70, 0
8, 66816, Note_on_c, 6, 70, 105
8, 67584, Note_off_c, 6, 70, 0
8, 67584, Note_on_c, 6, 65, 105
8, 67776, Note_off_c, 6, 65, 0
8, 67776, Note_on_c, 6, 70, 105
8, 67968, Note_off_c, 6, 70, 0
8, 67968, Note_on_c, 6, 69, 105
8, 68160, Note_off_c, 6, 69, 0
8, 68160, Note_on_c, 6, 70, 105
8, 68352, Note_off_c, 6, 70, 0
8, 68352, Note_on_c, 6, 63, 105
8, 68736, Note_off_c, 6, 63, 0
8, 68736, Note_on_c, 6, 69, 105
8, 68928, Note_off_c, 6, 69, 0
8, 68928, Note_on_c, 6, 70, 105
8, 69120, Note_off_c, 6, 70, 0
8, 69120, Note_on_c, 6, 69, 105
8, 69312, Note_off_c, 6, 69, 0
8, 69312, Note_on_c, 6, 70, 105
8, 69504, Note_off_c, 6, 70, 0
8, 69504, Note_on_c, 6, 62, 105
8, 69696, Note_off_c, 6, 62, 0
8, 69696, Note_on_c, 6, 62, 105
8, 69888, Note_off_c, 6, 62, 0
8, 69888, Note_on_c, 6, 65, 105
8, 70080, Note_off_c, 6, 65, 0
8, 70080, Note_on_c, 6, 69, 105
8, 70272, Note_off_c, 6, 69, 0
8, 70272, Note_on_c, 6, 72, 105
8, 70656, Note_off_c, 6, 72, 0
8, 70656, Note_on_c, 6, 69, 105
8, 70848, Note_off_c, 6, 69, 0
8, 70848, Note_on_c, 6, 70, 105
8, 71232, Note_off_c, 6, 70, 0
8, 71232, Note_on_c, 6, 63, 105
8, 71424, Note_off_c, 6, 63, 0
8, 71424, Note_on_c, 6, 63, 105
8, 71472, Note_off_c, 6, 63, 0
8, 71472, Note_on_c, 6, 62, 105
8, 71520, Note_off_c, 6, 62, 0
8, 71520, Note_on_c, 6, 63, 105
8, 71568, Note_off_c, 6, 63, 0
8, 71568, Note_on_c, 6, 62, 105
8, 71616, Note_off_c, 6, 62, 0
8, 71616, Note_on_c, 6, 63, 105
8, 71664, Note_off_c, 6, 63, 0
8, 71664, Note_on_c, 6, 62, 105
8, 71808, Note_off_c, 6, 62, 0
8, 71808, Note_on_c, 6, 60, 105
8, 72000, Note_off_c, 6, 60, 0
8, 72000, Note_on_c, 6, 72, 105
8, 72096, Note_off_c, 6, 72, 0
8, 72096, Note_on_c, 6, 74, 105
8, 72192, Note_off_c, 6, 74, 0
8, 72192, Note_on_c, 6, 75, 105
8, 72288, Note_off_c, 6, 75, 0
8, 72288, Note_on_c, 6, 72, 105
8, 72384, Note_off_c, 6, 72, 0
8, 72384, Note_on_c, 6, 72, 105
8, 72480, Note_off_c, 6, 72, 0
8, 72480, Note_on_c, 6, 70, 105
8, 72576, Note_off_c, 6, 70, 0
8, 72576, Note_on_c, 6, 70, 105
8, 72672, Note_off_c, 6, 70, 0
8, 72672, Note_on_c, 6, 69, 105
8, 72768, Note_off_c, 6, 69, 0
8, 72768, Note_on_c, 6, 69, 105
8, 72864, Note_off_c, 6, 69, 0
8, 72864, Note_on_c, 6, 67, 105
8, 72960, Note_off_c, 6, 67, 0
8, 72960, Note_on_c, 6, 67, 105
8, 73056, Note_off_c, 6, 67, 0
8, 73056, Note_on_c, 6, 65, 105
8, 73152, Note_off_c, 6, 65, 0
8, 73152, Note_on_c, 6, 72, 105
8, 73248, Note_off_c, 6, 72, 0
8, 73248, Note_on_c, 6, 74, 105
8, 73344, Note_off_c, 6, 74, 0
8, 73344, Note_on_c, 6, 75, 105
8, 73440, Note_off_c, 6, 75, 0
8, 73440, Note_on_c, 6, 72, 105
8, 73536, Note_off_c, 6, 72, 0
8, 73536, Note_on_c, 6, 72, 105
8, 73632, Note_off_c, 6, 72, 0
8, 73632, Note_on_c, 6, 70, 105
8, 73728, Note_off_c, 6, 70, 0
8, 73728, Note_on_c, 6, 70, 105
8, 73824, Note_off_c, 6, 70, 0
8, 73824, Note_on_c, 6, 69, 105
8, 73920, Note_off_c, 6, 69, 0
8, 73920, Note_on_c, 6, 69, 105
8, 74016, Note_off_c, 6, 69, 0
8, 74016, Note_on_c, 6, 67, 105
8, 74112, Note_off_c, 6, 67, 0
8, 74112, Note_on_c, 6, 67, 105
8, 74208, Note_off_c, 6, 67, 0
8, 74208, Note_on_c, 6, 65, 105
8, 74304, Note_off_c, 6, 65, 0
8, 74304, Note_on_c, 6, 74, 105
8, 74400, Note_off_c, 6, 74, 0
8, 74400, Note_on_c, 6, 75, 105
8, 74496, Note_off_c, 6, 75, 0
8, 74496, Note_on_c, 6, 77, 105
8, 74592, Note_off_c, 6, 77, 0
8, 74592, Note_on_c, 6, 74, 105
8, 74688, Note_off_c, 6, 74, 0
8, 74688, Note_on_c, 6, 74, 105
8, 74784, Note_off_c, 6, 74, 0
8, 74784, Note_on_c, 6, 72, 105
8, 74880, Note_off_c, 6, 72, 0
8, 74880, Note_on_c, 6, 72, 105
8, 74976, Note_off_c, 6, 72, 0
8, 74976, Note_on_c, 6, 70, 105
8, 75072, Note_off_c, 6, 70, 0
8, 75072, Note_on_c, 6, 70, 105
8, 75168, Note_off_c, 6, 70, 0
8, 75168, Note_on_c, 6, 68, 105
8, 75264, Note_off_c, 6, 68, 0
8, 75264, Note_on_c, 6, 68, 105
8, 75360, Note_off_c, 6, 68, 0
8, 75360, Note_on_c, 6, 70, 105
8, 75456, Note_off_c, 6, 70, 0
8, 75456, Note_on_c, 6, 74, 105
8, 75552, Note_off_c, 6, 74, 0
8, 75552, Note_on_c, 6, 75, 105
8, 75648, Note_off_c, 6, 75, 0
8, 75648, Note_on_c, 6, 77, 105
8, 75744, Note_off_c, 6, 77, 0
8, 75744, Note_on_c, 6, 74, 105
8, 75840, Note_off_c, 6, 74, 0
8, 75840, Note_on_c, 6, 74, 105
8, 75936, Note_off_c, 6, 74, 0
8, 75936, Note_on_c, 6, 72, 105
8, 76032, Note_off_c, 6, 72, 0
8, 76032, Note_on_c, 6, 72, 105
8, 76128, Note_off_c, 6, 72, 0
8, 76128, Note_on_c, 6, 70, 105
8, 76224, Note_off_c, 6, 70, 0
8, 76224, Note_on_c, 6, 70, 105
8, 76320, Note_off_c, 6, 70, 0
8, 76320, Note_on_c, 6, 68, 105
8, 76416, Note_off_c, 6, 68, 0
8, 76416, Note_on_c, 6, 68, 105
8, 76512, Note_off_c, 6, 68, 0
8, 76512, Note_on_c, 6, 67, 105
8, 76608, Note_off_c, 6, 67, 0
8, 76608, Note_on_c, 6, 67, 105
8, 76704, Note_off_c, 6, 67, 0
8, 76704, Note_on_c, 6, 70, 105
8, 76800, Note_off_c, 6, 70, 0
8, 76800, Note_on_c, 6, 68, 105
8, 76896, Note_off_c, 6, 68, 0
8, 76896, Note_on_c, 6, 67, 105
8, 76992, Note_off_c, 6, 67, 0
8, 76992, Note_on_c, 6, 67, 105
8, 77088, Note_off_c, 6, 67, 0
8, 77088, Note_on_c, 6, 65, 105
8, 77184, Note_off_c, 6, 65, 0
8, 77184, Note_on_c, 6, 65, 105
8, 77280, Note_off_c, 6, 65, 0
8, 77280, Note_on_c, 6, 70, 105
8, 77376, Note_off_c, 6, 70, 0
8, 77376, Note_on_c, 6, 67, 105
8, 77472, Note_off_c, 6, 67, 0
8, 77472, Note_on_c, 6, 65, 105
8, 77568, Note_off_c, 6, 65, 0
8, 77568, Note_on_c, 6, 65, 105
8, 77664, Note_off_c, 6, 65, 0
8, 77664, Note_on_c, 6, 63, 105
8, 77760, Note_off_c, 6, 63, 0
8, 77760, Note_on_c, 6, 63, 105
8, 77856, Note_off_c, 6, 63, 0
8, 77856, Note_on_c, 6, 70, 105
8, 77952, Note_off_c, 6, 70, 0
8, 77952, Note_on_c, 6, 65, 105
8, 78048, Note_off_c, 6, 65, 0
8, 78048, Note_on_c, 6, 63, 105
8, 78144, Note_off_c, 6, 63, 0
8, 78144, Note_on_c, 6, 63, 105
8, 78240, Note_off_c, 6, 63, 0
8, 78240, Note_on_c, 6, 62, 105
8, 78336, Note_off_c, 6, 62, 0
8, 78336, Note_on_c, 6, 62, 105
8, 78432, Note_off_c, 6, 62, 0
8, 78432, Note_on_c, 6, 70, 105
8, 78528, Note_off_c, 6, 70, 0
8, 78528, Note_on_c, 6, 63, 105
8, 78624, Note_off_c, 6, 63, 0
8, 78624, Note_on_c, 6, 62, 105
8, 78720, Note_off_c, 6, 62, 0
8, 78720, Note_on_c, 6, 62, 105
8, 78816, Note_off_c, 6, 62, 0
8, 78816, Note_on_c, 6, 60, 105
8, 78912, Note_off_c, 6, 60, 0
8, 78912, Note_on_c, 6, 60, 105
8, 79008, Note_off_c, 6, 60, 0
8, 79008, Note_on_c, 6, 69, 105
8, 79104, Note_off_c, 6, 69, 0
8, 79104, Note_on_c, 6, 69, 105
8, 79200, Note_off_c, 6, 69, 0
8, 79200, Note_on_c, 6, 70, 105
8, 79296, Note_off_c, 6, 70, 0
8, 79296, Note_on_c, 6, 70, 105
8, 79392, Note_off_c, 6, 70, 0
8, 79392, Note_on_c, 6, 60, 105
8, 79488, Note_off_c, 6, 60, 0
8, 79488, Note_on_c, 6, 60, 105
8, 79584, Note_off_c, 6, 60, 0
8, 79584, Note_on_c, 6, 69, 105
8, 79680, Note_off_c, 6, 69, 0
8, 79680, Note_on_c, 6, 69, 105
8, 79776, Note_off_c, 6, 69, 0
8, 79776, Note_on_c, 6, 70, 105
8, 79872, Note_off_c, 6, 70, 0
8, 79872, Note_on_c, 6, 70, 105
8, 79968, Note_off_c, 6, 70, 0
8, 79968, Note_on_c, 6, 60, 105
8, 80064, Note_off_c, 6, 60, 0
8, 80064, Note_on_c, 6, 60, 105
8, 80160, Note_off_c, 6, 60, 0
8, 80160, Note_on_c, 6, 69, 105
8, 80256, Note_off_c, 6, 69, 0
8, 80256, Note_on_c, 6, 69, 105
8, 80352, Note_off_c, 6, 69, 0
8, 80352, Note_on_c, 6, 70, 105
8, 80448, Note_off_c, 6, 70, 0
8, 80448, Note_on_c, 6, 70, 105
8, 80544, Note_off_c, 6, 70, 0
8, 80544, Note_on_c, 6, 60, 105
8, 80640, Note_off_c, 6, 60, 0
8, 80640, Note_on_c, 6, 60, 105
8, 80736, Note_off_c, 6, 60, 0
8, 80736, Note_on_c, 6, 69, 105
8, 80832, Note_off_c, 6, 69, 0
8, 80832, Note_on_c, 6, 69, 105
8, 80928, Note_off_c, 6, 69, 0
8, 80928, Note_on_c, 6, 70, 105
8, 81024, Note_off_c, 6, 70, 0
8, 81024, Note_on_c, 6, 70, 105
8, 81120, Note_off_c, 6, 70, 0
8, 81120, Note_on_c, 6, 60, 105
8, 81216, Note_off_c, 6, 60, 0
8, 81216, Note_on_c, 6, 60, 105
8, 81312, Note_off_c, 6, 60, 0
8, 81312, Note_on_c, 6, 63, 105
8, 81408, Note_off_c, 6, 63, 0
8, 81408, Note_on_c, 6, 63, 105
8, 81504, Note_off_c, 6, 63, 0
8, 81504, Note_on_c, 6, 62, 105
8, 81600, Note_off_c, 6, 62, 0
8, 81600, Note_on_c, 6, 62, 105
8, 81696, Note_off_c, 6, 62, 0
8, 81696, Note_on_c, 6, 67, 105
8, 81792, Note_off_c, 6, 67, 0
8, 81792, Note_on_c, 6, 67, 105
8, 81888, Note_off_c, 6, 67, 0
8, 81888, Note_on_c, 6, 65, 105
8, 81984, Note_off_c, 6, 65, 0
8, 81984, Note_on_c, 6, 65, 105
8, 82080, Note_off_c, 6, 65, 0
8, 82080, Note_on_c, 6, 69, 105
8, 82176, Note_off_c, 6, 69, 0
8, 82176, Note_on_c, 6, 69, 105
8, 82272, Note_off_c, 6, 69, 0
8, 82272, Note_on_c, 6, 70, 105
8, 82368, Note_off_c, 6, 70, 0
8, 82368, Note_on_c, 6, 63, 105
8, 82560, Note_off_c, 6, 63, 0
8, 82560, Note_on_c, 6, 62, 105
8, 82608, Note_off_c, 6, 62, 0
8, 82608, Note_on_c, 6, 60, 105
8, 82656, Note_off_c, 6, 60, 0
8, 82656, Note_on_c, 6, 62, 105
8, 82704, Note_off_c, 6, 62, 0
8, 82704, Note_on_c, 6, 60, 105
8, 82752, Note_off_c, 6, 60, 0
8, 82752, Note_on_c, 6, 62, 105
8, 82800, Note_off_c, 6, 62, 0
8, 82800, Note_on_c, 6, 60, 105
8, 82944, Note_off_c, 6, 60, 0
8, 82944, Note_on_c, 6, 58, 105
8, 83328, Note_off_c, 6, 58, 0
8, 85824, Note_on_c, 6, 72, 105
8, 85920, Note_off_c, 6, 72, 0
8, 85920, Note_on_c, 6, 74, 105
8, 86016, Note_off_c, 6, 74, 0
8, 86016, Note_on_c, 6, 75, 105
8, 86112, Note_off_c, 6, 75, 0
8, 86112, Note_on_c, 6, 72, 105
8, 86208, Note_off_c, 6, 72, 0
8, 86208, Note_on_c, 6, 72, 105
8, 86304, Note_off_c, 6, 72, 0
8, 86304, Note_on_c, 6, 70, 105
8, 86400, Note_off_c, 6, 70, 0
8, 86400, Note_on_c, 6, 69, 105
8, 86592, Note_off_c, 6, 69, 0
8, 86976, Note_on_c, 6, 70, 105
8, 87072, Note_off_c, 6, 70, 0
8, 87072, Note_on_c, 6, 72, 105
8, 87168, Note_off_c, 6, 72, 0
8, 87168, Note_on_c, 6, 74, 105
8, 87264, Note_off_c, 6, 74, 0
8, 87264, Note_on_c, 6, 70, 105
8, 87360, Note_off_c, 6, 70, 0
8, 87360, Note_on_c, 6, 70, 105
8, 87456, Note_off_c, 6, 70, 0
8, 87456, Note_on_c, 6, 69, 105
8, 87552, Note_off_c, 6, 69, 0
8, 87552, Note_on_c, 6, 67, 105
8, 87744, Note_off_c, 6, 67, 0
8, 88128, Note_on_c, 6, 67, 105
8, 88320, Note_off_c, 6, 67, 0
8, 88512, Note_on_c, 6, 69, 105
8, 88704, Note_off_c, 6, 69, 0
8, 88704, Note_on_c, 6, 72, 105
8, 88896, Note_off_c, 6, 72, 0
8, 89088, Note_on_c, 6, 72, 105
8, 89280, Note_off_c, 6, 72, 0
8, 89280, Note_on_c, 6, 70, 105
8, 89472, Note_off_c, 6, 70, 0
8, 89664, Note_on_c, 6, 69, 105
8, 89856, Note_off_c, 6, 69, 0
8, 89856, Note_on_c, 6, 69, 105
8, 90048, Note_off_c, 6, 69, 0
8, 90432, Note_on_c, 6, 69, 105
8, 90528, Note_off_c, 6, 69, 0
8, 90528, Note_on_c, 6, 70, 105
8, 90624, Note_off_c, 6, 70, 0
8, 90624, Note_on_c, 6, 72, 105
8, 90720, Note_off_c, 6, 72, 0
8, 90720, Note_on_c, 6, 69, 105
8, 90816, Note_off_c, 6, 69, 0
8, 90816, Note_on_c, 6, 69, 105
8, 90912, Note_off_c, 6, 69, 0
8, 90912, Note_on_c, 6, 67, 105
8, 91008, Note_off_c, 6, 67, 0
8, 91008, Note_on_c, 6, 67, 105
8, 91104, Note_off_c, 6, 67, 0
8, 91104, Note_on_c, 6, 66, 105
8, 91200, Note_off_c, 6, 66, 0
8, 91200, Note_on_c, 6, 66, 105
8, 91296, Note_off_c, 6, 66, 0
8, 91296, Note_on_c, 6, 64, 105
8, 91392, Note_off_c, 6, 64, 0
8, 91392, Note_on_c, 6, 64, 105
8, 91488, Note_off_c, 6, 64, 0
8, 91488, Note_on_c, 6, 62, 105
8, 91584, Note_off_c, 6, 62, 0
8, 91584, Note_on_c, 6, 69, 105
8, 91680, Note_off_c, 6, 69, 0
8, 91680, Note_on_c, 6, 70, 105
8, 91776, Note_off_c, 6, 70, 0
8, 91776, Note_on_c, 6, 72, 105
8, 91872, Note_off_c, 6, 72, 0
8, 91872, Note_on_c, 6, 69, 105
8, 91968, Note_off_c, 6, 69, 0
8, 91968, Note_on_c, 6, 69, 105
8, 92064, Note_off_c, 6, 69, 0
8, 92064, Note_on_c, 6, 67, 105
8, 92160, Note_off_c, 6, 67, 0
8, 92160, Note_on_c, 6, 67, 105
8, 92256, Note_off_c, 6, 67, 0
8, 92256, Note_on_c, 6, 66, 105
8, 92352, Note_off_c, 6, 66, 0
8, 92352, Note_on_c, 6, 66, 105
8, 92448, Note_off_c, 6, 66, 0
8, 92448, Note_on_c, 6, 64, 105
8, 92544, Note_off_c, 6, 64, 0
8, 92544, Note_on_c, 6, 64, 105
8, 92640, Note_off_c, 6, 64, 0
8, 92640, Note_on_c, 6, 62, 105
8, 92736, Note_off_c, 6, 62, 0
8, 92736, Note_on_c, 6, 74, 105
8, 92832, Note_off_c, 6, 74, 0
8, 92832, Note_on_c, 6, 75, 105
8, 92928, Note_off_c, 6, 75, 0
8, 92928, Note_on_c, 6, 77, 105
8, 93024, Note_off_c, 6, 77, 0
8, 93024, Note_on_c, 6, 74, 105
8, 93120, Note_off_c, 6, 74, 0
8, 93120, Note_on_c, 6, 74, 105
8, 93216, Note_off_c, 6, 74, 0
8, 93216, Note_on_c, 6, 72, 105
8, 93312, Note_off_c, 6, 72, 0
8, 93312, Note_on_c, 6, 72, 105
8, 93408, Note_off_c, 6, 72, 0
8, 93408, Note_on_c, 6, 71, 105
8, 93504, Note_off_c, 6, 71, 0
8, 93504, Note_on_c, 6, 71, 105
8, 93600, Note_off_c, 6, 71, 0
8, 93600, Note_on_c, 6, 69, 105
8, 93696, Note_off_c, 6, 69, 0
8, 93696, Note_on_c, 6, 69, 105
8, 93792, Note_off_c, 6, 69, 0
8, 93792, Note_on_c, 6, 67, 105
8, 93888, Note_off_c, 6, 67, 0
8, 93888, Note_on_c, 6, 74, 105
8, 93984, Note_off_c, 6, 74, 0
8, 93984, Note_on_c, 6, 75, 105
8, 94080, Note_off_c, 6, 75, 0
8, 94080, Note_on_c, 6, 77, 105
8, 94176, Note_off_c, 6, 77, 0
8, 94176, Note_on_c, 6, 74, 105
8, 94272, Note_off_c, 6, 74, 0
8, 94272, Note_on_c, 6, 74, 105
8, 94368, Note_off_c, 6, 74, 0
8, 94368, Note_on_c, 6, 72, 105
8, 94464, Note_off_c, 6, 72, 0
8, 94464, Note_on_c, 6, 72, 105
8, 94560, Note_off_c, 6, 72, 0
8, 94560, Note_on_c, 6, 71, 105
8, 94656, Note_off_c, 6, 71, 0
8, 94656, Note_on_c, 6, 71, 105
8, 94752, Note_off_c, 6, 71, 0
8, 94752, Note_on_c, 6, 69, 105
8, 94848, Note_off_c, 6, 69, 0
8, 94848, Note_on_c, 6, 69, 105
8, 94944, Note_off_c, 6, 69, 0
8, 94944, Note_on_c, 6, 67, 105
8, 95040, Note_off_c, 6, 67, 0
8, 95040, Note_on_c, 6, 74, 105
8, 95136, Note_off_c, 6, 74, 0
8, 95136, Note_on_c, 6, 68, 105
8, 95232, Note_off_c, 6, 68, 0
8, 95232, Note_on_c, 6, 68, 105
8, 95328, Note_off_c, 6, 68, 0
8, 95328, Note_on_c, 6, 67, 105
8, 95424, Note_off_c, 6, 67, 0
8, 95424, Note_on_c, 6, 67, 105
8, 95520, Note_off_c, 6, 67, 0
8, 95520, Note_on_c, 6, 65, 105
8, 95616, Note_off_c, 6, 65, 0
8, 95616, Note_on_c, 6, 65, 105
8, 95712, Note_off_c, 6, 65, 0
8, 95712, Note_on_c, 6, 63, 105
8, 95808, Note_off_c, 6, 63, 0
8, 95808, Note_on_c, 6, 63, 105
8, 95904, Note_off_c, 6, 63, 0
8, 95904, Note_on_c, 6, 62, 105
8, 96000, Note_off_c, 6, 62, 0
8, 96000, Note_on_c, 6, 62, 105
8, 96096, Note_off_c, 6, 62, 0
8, 96096, Note_on_c, 6, 60, 105
8, 96192, Note_off_c, 6, 60, 0
8, 96192, Note_on_c, 6, 60, 105
8, 96288, Note_off_c, 6, 60, 0
8, 96288, Note_on_c, 6, 67, 105
8, 96384, Note_off_c, 6, 67, 0
8, 96384, Note_on_c, 6, 62, 105
8, 96480, Note_off_c, 6, 62, 0
8, 96480, Note_on_c, 6, 60, 105
8, 96576, Note_off_c, 6, 60, 0
8, 96576, Note_on_c, 6, 60, 105
8, 96672, Note_off_c, 6, 60, 0
8, 96672, Note_on_c, 6, 56, 105
8, 96768, Note_off_c, 6, 56, 0
8, 96768, Note_on_c, 6, 58, 105
8, 96864, Note_off_c, 6, 58, 0
8, 96864, Note_on_c, 6, 67, 105
8, 96960, Note_off_c, 6, 67, 0
8, 96960, Note_on_c, 6, 60, 105
8, 97056, Note_off_c, 6, 60, 0
8, 97056, Note_on_c, 6, 58, 105
8, 97152, Note_off_c, 6, 58, 0
8, 97152, Note_on_c, 6, 58, 105
8, 97248, Note_off_c, 6, 58, 0
8, 97248, Note_on_c, 6, 57, 105
8, 97344, Note_off_c, 6, 57, 0
8, 97344, Note_on_c, 6, 57, 105
8, 97440, Note_off_c, 6, 57, 0
8, 97440, Note_on_c, 6, 67, 105
8, 97536, Note_off_c, 6, 67, 0
8, 97536, Note_on_c, 6, 60, 105
8, 97632, Note_off_c, 6, 60, 0
8, 97632, Note_on_c, 6, 58, 105
8, 97728, Note_off_c, 6, 58, 0
8, 97728, Note_on_c, 6, 58, 105
8, 97824, Note_off_c, 6, 58, 0
8, 97824, Note_on_c, 6, 57, 105
8, 97920, Note_off_c, 6, 57, 0
8, 97920, Note_on_c, 6, 62, 105
8, 98016, Note_off_c, 6, 62, 0
8, 98016, Note_on_c, 6, 66, 105
8, 98112, Note_off_c, 6, 66, 0
8, 98112, Note_on_c, 6, 66, 105
8, 98208, Note_off_c, 6, 66, 0
8, 98208, Note_on_c, 6, 67, 105
8, 98304, Note_off_c, 6, 67, 0
8, 98304, Note_on_c, 6, 67, 105
8, 98400, Note_off_c, 6, 67, 0
8, 98400, Note_on_c, 6, 57, 105
8, 98496, Note_off_c, 6, 57, 0
8, 98496, Note_on_c, 6, 57, 105
8, 98592, Note_off_c, 6, 57, 0
8, 98592, Note_on_c, 6, 66, 105
8, 98688, Note_off_c, 6, 66, 0
8, 98688, Note_on_c, 6, 66, 105
8, 98784, Note_off_c, 6, 66, 0
8, 98784, Note_on_c, 6, 67, 105
8, 98880, Note_off_c, 6, 67, 0
8, 98880, Note_on_c, 6, 67, 105
8, 98976, Note_off_c, 6, 67, 0
8, 98976, Note_on_c, 6, 57, 105
8, 99072, Note_off_c, 6, 57, 0
8, 99072, Note_on_c, 6, 57, 105
8, 99168, Note_off_c, 6, 57, 0
8, 99168, Note_on_c, 6, 66, 105
8, 99264, Note_off_c, 6, 66, 0
8, 99264, Note_on_c, 6, 66, 105
8, 99360, Note_off_c, 6, 66, 0
8, 99360, Note_on_c, 6, 67, 105
8, 99456, Note_off_c, 6, 67, 0
8, 99456, Note_on_c, 6, 67, 105
8, 99552, Note_off_c, 6, 67, 0
8, 99552, Note_on_c, 6, 57, 105
8, 99648, Note_off_c, 6, 57, 0
8, 99648, Note_on_c, 6, 57, 105
8, 99744, Note_off_c, 6, 57, 0
8, 99744, Note_on_c, 6, 60, 105
8, 99840, Note_off_c, 6, 60, 0
8, 99840, Note_on_c, 6, 60, 105
8, 99936, Note_off_c, 6, 60, 0
8, 99936, Note_on_c, 6, 58, 105
8, 100032, Note_off_c, 6, 58, 0
8, 100032, Note_on_c, 6, 58, 105
8, 100128, Note_off_c, 6, 58, 0
8, 100128, Note_on_c, 6, 63, 105
8, 100224, Note_off_c, 6, 63, 0
8, 100224, Note_on_c, 6, 63, 105
8, 100416, Note_off_c, 6, 63, 0
8, 101952, Note_on_c, 6, 67, 68
8, 103488, Note_off_c, 6, 67, 0
8, 103488, Note_on_c, 6, 69, 68
8, 103680, Note_off_c, 6, 69, 0
8, 103680, Note_on_c, 6, 70, 68
8, 104064, Note_off_c, 6, 70, 0
8, 104064, Note_on_c, 6, 72, 68
8, 104256, Note_off_c, 6, 72, 0
8, 104256, Note_on_c, 6, 74, 68
8, 104448, Note_off_c, 6, 74, 0
8, 104448, Note_on_c, 6, 72, 68
8, 104640, Note_off_c, 6, 72, 0
8, 104640, Note_on_c, 6, 74, 68
8, 105024, Note_off_c, 6, 74, 0
8, 105024, Note_on_c, 6, 72, 68
8, 105216, Note_off_c, 6, 72, 0
8, 105216, Note_on_c, 6, 70, 68
8, 105408, Note_off_c, 6, 70, 0
8, 105408, Note_on_c, 6, 72, 68
8, 105600, Note_off_c, 6, 72, 0
8, 105600, Note_on_c, 6, 75, 68
8, 105792, Note_off_c, 6, 75, 0
8, 105792, Note_on_c, 6, 74, 68
8, 105984, Note_off_c, 6, 74, 0
8, 105984, Note_on_c, 6, 75, 105
8, 106368, Note_off_c, 6, 75, 0
8, 106368, Note_on_c, 6, 74, 105
8, 106560, Note_off_c, 6, 74, 0
8, 106560, Note_on_c, 6, 75, 105
8, 106752, Note_off_c, 6, 75, 0
8, 106752, Note_on_c, 6, 69, 105
8, 106944, Note_off_c, 6, 69, 0
8, 106944, Note_on_c, 6, 67, 105
8, 107136, Note_off_c, 6, 67, 0
8, 107136, Note_on_c, 6, 66, 105
8, 107328, Note_off_c, 6, 66, 0
8, 107328, Note_on_c, 6, 72, 105
8, 107520, Note_off_c, 6, 72, 0
8, 107520, Note_on_c, 6, 70, 105
8, 107712, Note_off_c, 6, 70, 0
8, 107712, Note_on_c, 6, 69, 105
8, 107904, Note_off_c, 6, 69, 0
8, 107904, Note_on_c, 6, 67, 105
8, 107952, Note_off_c, 6, 67, 0
8, 107952, Note_on_c, 6, 66, 105
8, 108000, Note_off_c, 6, 66, 0
8, 108000, Note_on_c, 6, 67, 105
8, 108048, Note_off_c, 6, 67, 0
8, 108048, Note_on_c, 6, 66, 105
8, 108096, Note_off_c, 6, 66, 0
8, 108096, Note_on_c, 6, 67, 105
8, 108144, Note_off_c, 6, 67, 0
8, 108144, Note_on_c, 6, 66, 105
8, 108288, Note_off_c, 6, 66, 0
8, 108288, Note_on_c, 6, 67, 85
8, 108480, Note_off_c, 6, 67, 0
8, 108480, Note_on_c, 6, 70, 85
8, 108672, Note_off_c, 6, 70, 0
8, 108672, Note_on_c, 6, 72, 85
8, 108864, Note_off_c, 6, 72, 0
8, 108864, Note_on_c, 6, 74, 85
8, 109056, Note_off_c, 6, 74, 0
8, 109056, Note_on_c, 6, 76, 85
8, 109248, Note_off_c, 6, 76, 0
8, 109248, Note_on_c, 6, 77, 85
8, 109440, Note_off_c, 6, 77, 0
8, 109440, Note_on_c, 6, 76, 85
8, 109632, Note_off_c, 6, 76, 0
8, 109632, Note_on_c, 6, 72, 85
8, 109824, Note_off_c, 6, 72, 0
8, 109824, Note_on_c, 6, 74, 85
8, 110016, Note_off_c, 6, 74, 0
8, 110016, Note_on_c, 6, 76, 85
8, 110208, Note_off_c, 6, 76, 0
8, 110208, Note_on_c, 6, 77, 85
8, 110400, Note_off_c, 6, 77, 0
8, 110400, Note_on_c, 6, 79, 85
8, 110592, Note_off_c, 6, 79, 0
8, 110592, Note_on_c, 6, 80, 85
8, 110784, Note_off_c, 6, 80, 0
8, 110784, Note_on_c, 6, 68, 85
8, 110976, Note_off_c, 6, 68, 0
8, 110976, Note_on_c, 6, 70, 85
8, 111168, Note_off_c, 6, 70, 0
8, 111168, Note_on_c, 6, 72, 85
8, 111360, Note_off_c, 6, 72, 0
8, 111360, Note_on_c, 6, 74, 85
8, 111552, Note_off_c, 6, 74, 0
8, 111552, Note_on_c, 6, 75, 85
8, 111744, Note_off_c, 6, 75, 0
8, 111744, Note_on_c, 6, 74, 85
8, 111936, Note_off_c, 6, 74, 0
8, 111936, Note_on_c, 6, 70, 85
8, 112128, Note_off_c, 6, 70, 0
8, 112128, Note_on_c, 6, 72, 85
8, 112320, Note_off_c, 6, 72, 0
8, 112320, Note_on_c, 6, 74, 85
8, 112512, Note_off_c, 6, 74, 0
8, 112512, Note_on_c, 6, 75, 85
8, 112704, Note_off_c, 6, 75, 0
8, 112704, Note_on_c, 6, 77, 85
8, 112896, Note_off_c, 6, 77, 0
8, 112896, Note_on_c, 6, 79, 85
8, 113280, Note_off_c, 6, 79, 0
8, 113472, Note_on_c, 6, 69, 85
8, 113856, Note_off_c, 6, 69, 0
8, 113856, Note_on_c, 6, 70, 85
8, 114048, Note_off_c, 6, 70, 0
8, 114624, Note_on_c, 6, 67, 85
8, 115200, Note_off_c, 6, 67, 0
8, 115200, Note_on_c, 6, 72, 85
8, 115392, Note_off_c, 6, 72, 0
8, 115584, Note_on_c, 6, 70, 85
8, 115776, Note_off_c, 6, 70, 0
8, 115776, Note_on_c, 6, 70, 85
8, 115968, Note_off_c, 6, 70, 0
8, 116160, Note_on_c, 6, 70, 85
8, 116352, Note_off_c, 6, 70, 0
8, 116352, Note_on_c, 6, 69, 85
8, 116544, Note_off_c, 6, 69, 0
8, 116544, Note_on_c, 6, 65, 85
8, 116736, Note_off_c, 6, 65, 0
8, 116736, Note_on_c, 6, 67, 85
8, 116928, Note_off_c, 6, 67, 0
8, 116928, Note_on_c, 6, 69, 85
8, 117120, Note_off_c, 6, 69, 0
8, 117120, Note_on_c, 6, 70, 85
8, 117312, Note_off_c, 6, 70, 0
8, 117312, Note_on_c, 6, 72, 85
8, 117504, Note_off_c, 6, 72, 0
8, 117504, Note_on_c, 6, 74, 85
8, 117696, Note_off_c, 6, 74, 0
8, 117696, Note_on_c, 6, 75, 85
8, 117888, Note_off_c, 6, 75, 0
8, 117888, Note_on_c, 6, 72, 85
8, 118272, Note_off_c, 6, 72, 0
8, 118272, Note_on_c, 6, 74, 85
8, 118464, Note_off_c, 6, 74, 0
8, 118464, Note_on_c, 6, 70, 85
8, 118848, Note_off_c, 6, 70, 0
8, 118848, Note_on_c, 6, 72, 85
8, 119040, Note_off_c, 6, 72, 0
8, 119040, Note_on_c, 6, 69, 85
8, 119328, Note_off_c, 6, 69, 0
8, 119328, Note_on_c, 6, 70, 85
8, 119424, Note_off_c, 6, 70, 0
8, 119424, Note_on_c, 6, 72, 85
8, 119616, Note_off_c, 6, 72, 0
8, 119616, Note_on_c, 6, 63, 85
8, 119808, Note_off_c, 6, 63, 0
8, 119808, Note_on_c, 6, 62, 85
8, 120480, Note_off_c, 6, 62, 0
8, 120480, Note_on_c, 6, 70, 85
8, 120576, Note_off_c, 6, 70, 0
8, 120576, Note_on_c, 6, 65, 85
8, 120672, Note_off_c, 6, 65, 0
8, 120672, Note_on_c, 6, 63, 85
8, 120768, Note_off_c, 6, 63, 0
8, 120768, Note_on_c, 6, 63, 85
8, 120864, Note_off_c, 6, 63, 0
8, 120864, Note_on_c, 6, 62, 85
8, 120960, Note_off_c, 6, 62, 0
8, 120960, Note_on_c, 6, 62, 85
8, 121632, Note_off_c, 6, 62, 0
8, 121632, Note_on_c, 6, 70, 85
8, 121728, Note_off_c, 6, 70, 0
8, 121728, Note_on_c, 6, 62, 85
8, 121824, Note_off_c, 6, 62, 0
8, 121824, Note_on_c, 6, 60, 85
8, 121920, Note_off_c, 6, 60, 0
8, 121920, Note_on_c, 6, 60, 85
8, 122016, Note_off_c, 6, 60, 0
8, 122016, Note_on_c, 6, 58, 85
8, 122112, Note_off_c, 6, 58, 0
8, 122112, Note_on_c, 6, 62, 85
8, 122688, Note_off_c, 6, 62, 0
8, 122688, Note_on_c, 6, 74, 85
8, 123072, Note_off_c, 6, 74, 0
8, 123072, Note_on_c, 6, 72, 85
8, 123264, Note_off_c, 6, 72, 0
8, 123264, Note_on_c, 6, 70, 85
8, 123456, Note_off_c, 6, 70, 0
8, 123456, Note_on_c, 6, 65, 85
8, 123648, Note_off_c, 6, 65, 0
8, 123648, Note_on_c, 6, 72, 85
8, 123840, Note_off_c, 6, 72, 0
8, 123840, Note_on_c, 6, 74, 85
8, 124032, Note_off_c, 6, 74, 0
8, 124032, Note_on_c, 6, 75, 85
8, 124224, Note_off_c, 6, 75, 0
8, 124224, Note_on_c, 6, 77, 85
8, 124608, Note_off_c, 6, 77, 0
8, 124608, Note_on_c, 6, 75, 85
8, 124800, Note_off_c, 6, 75, 0
8, 124800, Note_on_c, 6, 74, 85
8, 124992, Note_off_c, 6, 74, 0
8, 124992, Note_on_c, 6, 72, 85
8, 125376, Note_off_c, 6, 72, 0
8, 125376, Note_on_c, 6, 70, 85
8, 125568, Note_off_c, 6, 70, 0
8, 125568, Note_on_c, 6, 69, 85
8, 125952, Note_off_c, 6, 69, 0
8, 125952, Note_on_c, 6, 70, 85
8, 126144, Note_off_c, 6, 70, 0
8, 126144, Note_on_c, 6, 72, 85
8, 126336, Note_off_c, 6, 72, 0
8, 126336, Note_on_c, 6, 74, 85
8, 126528, Note_off_c, 6, 74, 0
8, 126528, Note_on_c, 6, 75, 85
8, 126912, Note_off_c, 6, 75, 0
8, 126912, Note_on_c, 6, 74, 85
8, 127104, Note_off_c, 6, 74, 0
8, 127104, Note_on_c, 6, 72, 85
8, 127296, Note_off_c, 6, 72, 0
8, 127296, Note_on_c, 6, 70, 68
8, 127392, Note_off_c, 6, 70, 0
8, 127392, Note_on_c, 6, 68, 68
8, 127488, Note_off_c, 6, 68, 0
8, 127488, Note_on_c, 6, 68, 68
8, 127584, Note_off_c, 6, 68, 0
8, 127584, Note_on_c, 6, 67, 68
8, 127680, Note_off_c, 6, 67, 0
8, 127680, Note_on_c, 6, 67, 68
8, 127776, Note_off_c, 6, 67, 0
8, 127776, Note_on_c, 6, 65, 68
8, 127872, Note_off_c, 6, 65, 0
8, 127872, Note_on_c, 6, 65, 68
8, 127968, Note_off_c, 6, 65, 0
8, 127968, Note_on_c, 6, 70, 68
8, 128064, Note_off_c, 6, 70, 0
8, 128064, Note_on_c, 6, 65, 68
8, 128160, Note_off_c, 6, 65, 0
8, 128160, Note_on_c, 6, 63, 68
8, 128256, Note_off_c, 6, 63, 0
8, 128256, Note_on_c, 6, 63, 68
8, 128352, Note_off_c, 6, 63, 0
8, 128352, Note_on_c, 6, 62, 68
8, 128448, Note_off_c, 6, 62, 0
8, 128448, Note_on_c, 6, 62, 68
8, 128544, Note_off_c, 6, 62, 0
8, 128544, Note_on_c, 6, 70, 68
8, 128640, Note_off_c, 6, 70, 0
8, 128640, Note_on_c, 6, 62, 68
8, 128736, Note_off_c, 6, 62, 0
8, 128736, Note_on_c, 6, 60, 68
8, 128832, Note_off_c, 6, 60, 0
8, 128832, Note_on_c, 6, 60, 68
8, 128928, Note_off_c, 6, 60, 0
8, 128928, Note_on_c, 6, 58, 68
8, 129024, Note_off_c, 6, 58, 0
8, 129024, Note_on_c, 6, 62, 68
8, 129792, Note_off_c, 6, 62, 0
8, 129792, Note_on_c, 6, 65, 68
8, 129984, Note_off_c, 6, 65, 0
8, 129984, Note_on_c, 6, 70, 68
8, 130176, Note_off_c, 6, 70, 0
8, 130176, Note_on_c, 6, 69, 68
8, 130368, Note_off_c, 6, 69, 0
8, 130368, Note_on_c, 6, 70, 68
8, 130560, Note_off_c, 6, 70, 0
8, 130560, Note_on_c, 6, 63, 68
8, 130752, Note_off_c, 6, 63, 0
8, 130752, Note_on_c, 6, 63, 68
8, 130944, Note_off_c, 6, 63, 0
8, 130944, Note_on_c, 6, 69, 68
8, 131136, Note_off_c, 6, 69, 0
8, 131136, Note_on_c, 6, 70, 68
8, 131328, Note_off_c, 6, 70, 0
8, 131328, Note_on_c, 6, 69, 68
8, 131520, Note_off_c, 6, 69, 0
8, 131520, Note_on_c, 6, 70, 68
8, 131712, Note_off_c, 6, 70, 0
8, 131712, Note_on_c, 6, 62, 68
8, 131904, Note_off_c, 6, 62, 0
8, 131904, Note_on_c, 6, 62, 68
8, 132096, Note_off_c, 6, 62, 0
8, 132096, Note_on_c, 6, 65, 68
8, 132288, Note_off_c, 6, 65, 0
8, 132288, Note_on_c, 6, 69, 68
8, 132480, Note_off_c, 6, 69, 0
8, 132480, Note_on_c, 6, 72, 68
8, 132672, Note_off_c, 6, 72, 0
8, 132672, Note_on_c, 6, 70, 68
8, 132864, Note_off_c, 6, 70, 0
8, 132864, Note_on_c, 6, 69, 68
8, 133056, Note_off_c, 6, 69, 0
8, 133056, Note_on_c, 6, 70, 68
8, 133440, Note_off_c, 6, 70, 0
8, 133440, Note_on_c, 6, 63, 68
8, 133632, Note_off_c, 6, 63, 0
8, 133632, Note_on_c, 6, 63, 96
8, 133680, Note_off_c, 6, 63, 0
8, 133680, Note_on_c, 6, 62, 96
8, 133728, Note_off_c, 6, 62, 0
8, 133728, Note_on_c, 6, 63, 96
8, 133776, Note_off_c, 6, 63, 0
8, 133776, Note_on_c, 6, 62, 96
8, 133824, Note_off_c, 6, 62, 0
8, 133824, Note_on_c, 6, 63, 96
8, 133872, Note_off_c, 6, 63, 0
8, 133872, Note_on_c, 6, 62, 96
8, 134016, Note_off_c, 6, 62, 0
8, 134016, Note_on_c, 6, 60, 68
8, 134208, Note_off_c, 6, 60, 0
8, 134208, Note_on_c, 6, 72, 105
8, 134592, Note_off_c, 6, 72, 0
8, 134592, Note_on_c, 6, 70, 105
8, 134784, Note_off_c, 6, 70, 0
8, 134784, Note_on_c, 6, 69, 105
8, 135168, Note_off_c, 6, 69, 0
8, 135168, Note_on_c, 6, 70, 105
8, 135360, Note_off_c, 6, 70, 0
8, 135360, Note_on_c, 6, 72, 105
8, 135552, Note_off_c, 6, 72, 0
8, 135552, Note_on_c, 6, 74, 105
8, 135744, Note_off_c, 6, 74, 0
8, 135744, Note_on_c, 6, 75, 105
8, 135936, Note_off_c, 6, 75, 0
8, 135936, Note_on_c, 6, 77, 105
8, 136608, Note_off_c, 6, 77, 0
8, 136608, Note_on_c, 6, 72, 68
8, 136704, Note_off_c, 6, 72, 0
8, 136704, Note_on_c, 6, 72, 68
8, 136800, Note_off_c, 6, 72, 0
8, 136800, Note_on_c, 6, 70, 68
8, 136896, Note_off_c, 6, 70, 0
8, 136896, Note_on_c, 6, 70, 68
8, 136992, Note_off_c, 6, 70, 0
8, 136992, Note_on_c, 6, 69, 68
8, 137088, Note_off_c, 6, 69, 0
8, 137088, Note_on_c, 6, 67, 68
8, 137184, Note_off_c, 6, 67, 0
8, 137184, Note_on_c, 6, 74, 68
8, 137280, Note_off_c, 6, 74, 0
8, 137280, Note_on_c, 6, 67, 68
8, 137376, Note_off_c, 6, 67, 0
8, 137376, Note_on_c, 6, 65, 68
8, 137472, Note_off_c, 6, 65, 0
8, 137472, Note_on_c, 6, 65, 68
8, 137568, Note_off_c, 6, 65, 0
8, 137568, Note_on_c, 6, 63, 68
8, 137664, Note_off_c, 6, 63, 0
8, 137664, Note_on_c, 6, 63, 68
8, 137856, Note_off_c, 6, 63, 0
8, 137856, Note_on_c, 6, 63, 68
8, 137952, Note_off_c, 6, 63, 0
8, 137952, Note_on_c, 6, 62, 68
8, 138048, Note_off_c, 6, 62, 0
8, 138048, Note_on_c, 6, 62, 68
8, 138144, Note_off_c, 6, 62, 0
8, 138144, Note_on_c, 6, 60, 68
8, 138240, Note_off_c, 6, 60, 0
8, 138240, Note_on_c, 6, 70, 105
8, 138432, Note_off_c, 6, 70, 0
8, 138432, Note_on_c, 6, 69, 105
8, 138528, Note_off_c, 6, 69, 0
8, 138528, Note_on_c, 6, 67, 105
8, 138624, Note_off_c, 6, 67, 0
8, 138624, Note_on_c, 6, 67, 105
8, 138720, Note_off_c, 6, 67, 0
8, 138720, Note_on_c, 6, 65, 105
8, 138816, Note_off_c, 6, 65, 0
8, 138816, Note_on_c, 6, 65, 105
8, 138912, Note_off_c, 6, 65, 0
8, 138912, Note_on_c, 6, 70, 105
8, 139008, Note_off_c, 6, 70, 0
8, 139008, Note_on_c, 6, 65, 105
8, 139104, Note_off_c, 6, 65, 0
8, 139104, Note_on_c, 6, 63, 105
8, 139200, Note_off_c, 6, 63, 0
8, 139200, Note_on_c, 6, 63, 105
8, 139296, Note_off_c, 6, 63, 0
8, 139296, Note_on_c, 6, 62, 105
8, 139392, Note_off_c, 6, 62, 0
8, 139392, Note_on_c, 6, 62, 105
8, 139776, Note_off_c, 6, 62, 0
8, 139776, Note_on_c, 6, 63, 105
8, 139968, Note_off_c, 6, 63, 0
8, 139968, Note_on_c, 6, 65, 105
8, 140160, Note_off_c, 6, 65, 0
8, 140160, Note_on_c, 6, 67, 105
8, 140352, Note_off_c, 6, 67, 0
8, 140352, Note_on_c, 6, 68, 105
8, 140544, Note_off_c, 6, 68, 0
8, 140544, Note_on_c, 6, 70, 105
8, 141216, Note_off_c, 6, 70, 0
8, 141216, Note_on_c, 6, 65, 68
8, 141312, Note_off_c, 6, 65, 0
8, 141312, Note_on_c, 6, 65, 68
8, 141408, Note_off_c, 6, 65, 0
8, 141408, Note_on_c, 6, 63, 68
8, 141504, Note_off_c, 6, 63, 0
8, 141504, Note_on_c, 6, 63, 68
8, 141600, Note_off_c, 6, 63, 0
8, 141600, Note_on_c, 6, 62, 68
8, 141696, Note_off_c, 6, 62, 0
8, 141696, Note_on_c, 6, 62, 68
8, 141792, Note_off_c, 6, 62, 0
8, 141792, Note_on_c, 6, 68, 68
8, 141888, Note_off_c, 6, 68, 0
8, 141888, Note_on_c, 6, 62, 68
8, 141984, Note_off_c, 6, 62, 0
8, 141984, Note_on_c, 6, 60, 68
8, 142080, Note_off_c, 6, 60, 0
8, 142080, Note_on_c, 6, 60, 68
8, 142176, Note_off_c, 6, 60, 0
8, 142176, Note_on_c, 6, 58, 68
8, 142272, Note_off_c, 6, 58, 0
8, 142272, Note_on_c, 6, 58, 68
8, 142368, Note_off_c, 6, 58, 0
8, 142368, Note_on_c, 6, 65, 68
8, 142464, Note_off_c, 6, 65, 0
8, 142464, Note_on_c, 6, 58, 68
8, 142560, Note_off_c, 6, 58, 0
8, 142560, Note_on_c, 6, 56, 68
8, 142656, Note_off_c, 6, 56, 0
8, 142656, Note_on_c, 6, 56, 68
8, 142752, Note_off_c, 6, 56, 0
8, 142752, Note_on_c, 6, 55, 68
8, 142848, Note_off_c, 6, 55, 0
8, 142848, Note_on_c, 6, 63, 68
8, 143616, Note_off_c, 6, 63, 0
8, 143616, Note_on_c, 6, 67, 68
8, 143808, Note_off_c, 6, 67, 0
8, 143808, Note_on_c, 6, 68, 68
8, 144000, Note_off_c, 6, 68, 0
8, 144000, Note_on_c, 6, 74, 68
8, 144192, Note_off_c, 6, 74, 0
8, 144192, Note_on_c, 6, 75, 68
8, 144384, Note_off_c, 6, 75, 0
8, 144384, Note_on_c, 6, 68, 68
8, 144768, Note_off_c, 6, 68, 0
8, 144768, Note_on_c, 6, 65, 68
8, 144960, Note_off_c, 6, 65, 0
8, 144960, Note_on_c, 6, 67, 68
8, 145152, Note_off_c, 6, 67, 0
8, 145152, Note_on_c, 6, 74, 68
8, 145344, Note_off_c, 6, 74, 0
8, 145344, Note_on_c, 6, 75, 68
8, 145536, Note_off_c, 6, 75, 0
8, 145536, Note_on_c, 6, 67, 68
8, 145728, Note_off_c, 6, 67, 0
8, 145728, Note_on_c, 6, 67, 68
8, 145920, Note_off_c, 6, 67, 0
8, 145920, Note_on_c, 6, 70, 68
8, 146112, Note_off_c, 6, 70, 0
8, 146112, Note_on_c, 6, 74, 68
8, 146304, Note_off_c, 6, 74, 0
8, 146304, Note_on_c, 6, 77, 68
8, 146688, Note_off_c, 6, 77, 0
8, 146688, Note_on_c, 6, 74, 68
8, 146880, Note_off_c, 6, 74, 0
8, 146880, Note_on_c, 6, 75, 68
8, 147264, Note_off_c, 6, 75, 0
8, 147264, Note_on_c, 6, 68, 68
8, 147456, Note_off_c, 6, 68, 0
8, 147456, Note_on_c, 6, 69, 68
8, 147504, Note_off_c, 6, 69, 0
8, 147504, Note_on_c, 6, 67, 68
8, 147552, Note_off_c, 6, 67, 0
8, 147552, Note_on_c, 6, 69, 68
8, 147600, Note_off_c, 6, 69, 0
8, 147600, Note_on_c, 6, 67, 68
8, 147648, Note_off_c, 6, 67, 0
8, 147648, Note_on_c, 6, 69, 68
8, 147696, Note_off_c, 6, 69, 0
8, 147696, Note_on_c, 6, 67, 68
8, 147840, Note_off_c, 6, 67, 0
8, 147840, Note_on_c, 6, 65, 68
8, 148032, Note_off_c, 6, 65, 0
8, 148032, Note_on_c, 6, 74, 68
8, 148128, Note_off_c, 6, 74, 0
8, 148128, Note_on_c, 6, 75, 68
8, 148224, Note_off_c, 6, 75, 0
8, 148224, Note_on_c, 6, 77, 68
8, 148320, Note_off_c, 6, 77, 0
8, 148320, Note_on_c, 6, 74, 68
8, 148416, Note_off_c, 6, 74, 0
8, 148416, Note_on_c, 6, 74, 68
8, 148512, Note_off_c, 6, 74, 0
8, 148512, Note_on_c, 6, 72, 68
8, 148608, Note_off_c, 6, 72, 0
8, 148608, Note_on_c, 6, 72, 68
8, 148704, Note_off_c, 6, 72, 0
8, 148704, Note_on_c, 6, 71, 68
8, 148800, Note_off_c, 6, 71, 0
8, 148800, Note_on_c, 6, 71, 68
8, 148896, Note_off_c, 6, 71, 0
8, 148896, Note_on_c, 6, 72, 68
8, 148992, Note_off_c, 6, 72, 0
8, 148992, Note_on_c, 6, 74, 68
8, 149088, Note_off_c, 6, 74, 0
8, 149088, Note_on_c, 6, 71, 68
8, 149184, Note_off_c, 6, 71, 0
8, 149184, Note_on_c, 6, 65, 68
8, 149280, Note_off_c, 6, 65, 0
8, 149280, Note_on_c, 6, 67, 68
8, 149376, Note_off_c, 6, 67, 0
8, 149376, Note_on_c, 6, 69, 68
8, 149472, Note_off_c, 6, 69, 0
8, 149472, Note_on_c, 6, 67, 68
8, 149568, Note_off_c, 6, 67, 0
8, 149568, Note_on_c, 6, 67, 68
8, 149664, Note_off_c, 6, 67, 0
8, 149664, Note_on_c, 6, 65, 68
8, 149760, Note_off_c, 6, 65, 0
8, 149760, Note_on_c, 6, 63, 68
8, 149856, Note_off_c, 6, 63, 0
8, 149856, Note_on_c, 6, 65, 68
8, 149952, Note_off_c, 6, 65, 0
8, 149952, Note_on_c, 6, 67, 68
8, 150048, Note_off_c, 6, 67, 0
8, 150048, Note_on_c, 6, 71, 68
8, 150144, Note_off_c, 6, 71, 0
8, 150144, Note_on_c, 6, 71, 68
8, 150240, Note_off_c, 6, 71, 0
8, 150240, Note_on_c, 6, 72, 68
8, 150336, Note_off_c, 6, 72, 0
8, 150336, Note_on_c, 6, 72, 68
8, 150432, Note_off_c, 6, 72, 0
8, 150432, Note_on_c, 6, 74, 68
8, 150528, Note_off_c, 6, 74, 0
8, 150528, Note_on_c, 6, 75, 68
8, 150624, Note_off_c, 6, 75, 0
8, 150624, Note_on_c, 6, 72, 68
8, 150720, Note_off_c, 6, 72, 0
8, 150720, Note_on_c, 6, 72, 68
8, 150816, Note_off_c, 6, 72, 0
8, 150816, Note_on_c, 6, 70, 68
8, 150912, Note_off_c, 6, 70, 0
8, 150912, Note_on_c, 6, 70, 68
8, 151008, Note_off_c, 6, 70, 0
8, 151008, Note_on_c, 6, 69, 68
8, 151104, Note_off_c, 6, 69, 0
8, 151104, Note_on_c, 6, 69, 68
8, 151200, Note_off_c, 6, 69, 0
8, 151200, Note_on_c, 6, 70, 68
8, 151296, Note_off_c, 6, 70, 0
8, 151296, Note_on_c, 6, 72, 68
8, 151392, Note_off_c, 6, 72, 0
8, 151392, Note_on_c, 6, 69, 68
8, 151488, Note_off_c, 6, 69, 0
8, 151488, Note_on_c, 6, 63, 68
8, 151584, Note_off_c, 6, 63, 0
8, 151584, Note_on_c, 6, 65, 68
8, 151680, Note_off_c, 6, 65, 0
8, 151680, Note_on_c, 6, 67, 68
8, 151776, Note_off_c, 6, 67, 0
8, 151776, Note_on_c, 6, 65, 68
8, 151872, Note_off_c, 6, 65, 0
8, 151872, Note_on_c, 6, 65, 68
8, 151968, Note_off_c, 6, 65, 0
8, 151968, Note_on_c, 6, 63, 68
8, 152064, Note_off_c, 6, 63, 0
8, 152064, Note_on_c, 6, 62, 68
8, 152160, Note_off_c, 6, 62, 0
8, 152160, Note_on_c, 6, 63, 68
8, 152256, Note_off_c, 6, 63, 0
8, 152256, Note_on_c, 6, 65, 68
8, 152352, Note_off_c, 6, 65, 0
8, 152352, Note_on_c, 6, 69, 68
8, 152448, Note_off_c, 6, 69, 0
8, 152448, Note_on_c, 6, 69, 68
8, 152544, Note_off_c, 6, 69, 0
8, 152544, Note_on_c, 6, 70, 68
8, 152640, Note_off_c, 6, 70, 0
8, 152640, Note_on_c, 6, 70, 68
8, 152736, Note_off_c, 6, 70, 0
8, 152736, Note_on_c, 6, 68, 68
8, 152832, Note_off_c, 6, 68, 0
8, 152832, Note_on_c, 6, 68, 68
8, 152928, Note_off_c, 6, 68, 0
8, 152928, Note_on_c, 6, 67, 68
8, 153024, Note_off_c, 6, 67, 0
8, 153024, Note_on_c, 6, 67, 68
8, 153120, Note_off_c, 6, 67, 0
8, 153120, Note_on_c, 6, 65, 68
8, 153216, Note_off_c, 6, 65, 0
8, 153216, Note_on_c, 6, 65, 68
8, 153312, Note_off_c, 6, 65, 0
8, 153312, Note_on_c, 6, 70, 68
8, 153408, Note_off_c, 6, 70, 0
8, 153408, Note_on_c, 6, 67, 68
8, 153504, Note_off_c, 6, 67, 0
8, 153504, Note_on_c, 6, 65, 68
8, 153600, Note_off_c, 6, 65, 0
8, 153600, Note_on_c, 6, 65, 68
8, 153696, Note_off_c, 6, 65, 0
8, 153696, Note_on_c, 6, 63, 68
8, 153792, Note_off_c, 6, 63, 0
8, 153792, Note_on_c, 6, 63, 68
8, 153888, Note_off_c, 6, 63, 0
8, 153888, Note_on_c, 6, 70, 68
8, 153984, Note_off_c, 6, 70, 0
8, 153984, Note_on_c, 6, 65, 68
8, 154080, Note_off_c, 6, 65, 0
8, 154080, Note_on_c, 6, 63, 68
8, 154176, Note_off_c, 6, 63, 0
8, 154176, Note_on_c, 6, 63, 68
8, 154272, Note_off_c, 6, 63, 0
8, 154272, Note_on_c, 6, 62, 68
8, 154368, Note_off_c, 6, 62, 0
8, 154368, Note_on_c, 6, 62, 68
8, 154464, Note_off_c, 6, 62, 0
8, 154464, Note_on_c, 6, 70, 68
8, 154560, Note_off_c, 6, 70, 0
8, 154560, Note_on_c, 6, 63, 68
8, 154656, Note_off_c, 6, 63, 0
8, 154656, Note_on_c, 6, 62, 68
8, 154752, Note_off_c, 6, 62, 0
8, 154752, Note_on_c, 6, 62, 68
8, 154848, Note_off_c, 6, 62, 0
8, 154848, Note_on_c, 6, 60, 68
8, 154944, Note_off_c, 6, 60, 0
8, 154944, Note_on_c, 6, 60, 68
8, 155616, Note_off_c, 6, 60, 0
8, 155616, Note_on_c, 6, 69, 96
8, 155712, Note_off_c, 6, 69, 0
8, 155712, Note_on_c, 6, 69, 96
8, 155808, Note_off_c, 6, 69, 0
8, 155808, Note_on_c, 6, 70, 96
8, 155904, Note_off_c, 6, 70, 0
8, 155904, Note_on_c, 6, 70, 96
8, 156000, Note_off_c, 6, 70, 0
8, 156000, Note_on_c, 6, 60, 96
8, 156096, Note_off_c, 6, 60, 0
8, 156096, Note_on_c, 6, 60, 68
8, 156768, Note_off_c, 6, 60, 0
8, 156768, Note_on_c, 6, 69, 96
8, 156864, Note_off_c, 6, 69, 0
8, 156864, Note_on_c, 6, 69, 96
8, 156960, Note_off_c, 6, 69, 0
8, 156960, Note_on_c, 6, 70, 96
8, 157056, Note_off_c, 6, 70, 0
8, 157056, Note_on_c, 6, 70, 96
8, 157152, Note_off_c, 6, 70, 0
8, 157152, Note_on_c, 6, 60, 96
8, 157248, Note_off_c, 6, 60, 0
8, 157248, Note_on_c, 6, 60, 68
8, 157344, Note_off_c, 6, 60, 0
8, 157344, Note_on_c, 6, 63, 68
8, 157440, Note_off_c, 6, 63, 0
8, 157440, Note_on_c, 6, 63, 68
8, 157536, Note_off_c, 6, 63, 0
8, 157536, Note_on_c, 6, 62, 68
8, 157632, Note_off_c, 6, 62, 0
8, 157632, Note_on_c, 6, 62, 68
8, 157728, Note_off_c, 6, 62, 0
8, 157728, Note_on_c, 6, 67, 68
8, 157824, Note_off_c, 6, 67, 0
8, 157824, Note_on_c, 6, 67, 68
8, 157920, Note_off_c, 6, 67, 0
8, 157920, Note_on_c, 6, 65, 68
8, 158016, Note_off_c, 6, 65, 0
8, 158016, Note_on_c, 6, 65, 68
8, 158112, Note_off_c, 6, 65, 0
8, 158112, Note_on_c, 6, 69, 68
8, 158208, Note_off_c, 6, 69, 0
8, 158208, Note_on_c, 6, 69, 68
8, 158304, Note_off_c, 6, 69, 0
8, 158304, Note_on_c, 6, 70, 68
8, 158400, Note_off_c, 6, 70, 0
8, 158400, Note_on_c, 6, 63, 68
8, 158592, Note_off_c, 6, 63, 0
8, 158592, Note_on_c, 6, 60, 68
8, 158976, Note_off_c, 6, 60, 0
8, 159552, Note_on_c, 6, 65, 68
8, 160128, Note_off_c, 6, 65, 0
8, 160128, Note_on_c, 6, 63, 68
8, 160704, Note_off_c, 6, 63, 0
8, 160704, Note_on_c, 6, 68, 68
8, 161280, Note_off_c, 6, 68, 0
8, 161280, Note_on_c, 6, 67, 68
8, 161664, Note_off_c, 6, 67, 0
8, 161664, Note_on_c, 6, 72, 68
8, 161856, Note_off_c, 6, 72, 0
8, 161856, Note_on_c, 6, 72, 68
8, 162048, Note_off_c, 6, 72, 0
8, 162240, Note_on_c, 6, 70, 68
8, 162432, Note_off_c, 6, 70, 0
8, 162432, Note_on_c, 6, 70, 68
8, 162624, Note_off_c, 6, 70, 0
8, 162816, Note_on_c, 6, 69, 68
8, 163008, Note_off_c, 6, 69, 0
8, 163008, Note_on_c, 6, 67, 68
8, 163200, Note_off_c, 6, 67, 0
8, 163392, Note_on_c, 6, 67, 68
8, 163584, Note_off_c, 6, 67, 0
8, 164160, Note_on_c, 6, 65, 85
8, 164544, Note_off_c, 6, 65, 0
8, 164544, Note_on_c, 6, 63, 85
8, 164736, Note_off_c, 6, 63, 0
8, 164736, Note_on_c, 6, 62, 85
8, 165120, Note_off_c, 6, 62, 0
8, 165120, Note_on_c, 6, 63, 85
8, 165312, Note_off_c, 6, 63, 0
8, 165312, Note_on_c, 6, 65, 85
8, 165504, Note_off_c, 6, 65, 0
8, 165504, Note_on_c, 6, 67, 85
8, 165696, Note_off_c, 6, 67, 0
8, 165696, Note_on_c, 6, 69, 85
8, 165888, Note_off_c, 6, 69, 0
8, 165888, Note_on_c, 6, 70, 105
8, 166656, Note_off_c, 6, 70, 0
8, 166656, Note_on_c, 6, 65, 105
8, 166848, Note_off_c, 6, 65, 0
8, 166848, Note_on_c, 6, 70, 105
8, 167040, Note_off_c, 6, 70, 0
8, 167040, Note_on_c, 6, 69, 105
8, 167232, Note_off_c, 6, 69, 0
8, 167232, Note_on_c, 6, 70, 105
8, 167424, Note_off_c, 6, 70, 0
8, 167424, Note_on_c, 6, 63, 105
8, 167616, Note_off_c, 6, 63, 0
8, 167616, Note_on_c, 6, 63, 105
8, 167808, Note_off_c, 6, 63, 0
8, 167808, Note_on_c, 6, 69, 105
8, 168000, Note_off_c, 6, 69, 0
8, 168000, Note_on_c, 6, 70, 105
8, 168192, Note_off_c, 6, 70, 0
8, 168192, Note_on_c, 6, 70, 105
8, 168960, Note_off_c, 6, 70, 0
8, 168960, Note_on_c, 6, 65, 105
8, 169152, Note_off_c, 6, 65, 0
8, 169152, Note_on_c, 6, 70, 105
8, 169344, Note_off_c, 6, 70, 0
8, 169344, Note_on_c, 6, 69, 105
8, 169536, Note_off_c, 6, 69, 0
8, 169536, Note_on_c, 6, 70, 105
8, 169728, Note_off_c, 6, 70, 0
8, 169728, Note_on_c, 6, 63, 105
8, 170112, Note_off_c, 6, 63, 0
8, 170112, Note_on_c, 6, 69, 105
8, 170304, Note_off_c, 6, 69, 0
8, 170304, Note_on_c, 6, 70, 105
8, 170496, Note_off_c, 6, 70, 0
8, 170496, Note_on_c, 6, 69, 105
8, 170688, Note_off_c, 6, 69, 0
8, 170688, Note_on_c, 6, 70, 105
8, 170880, Note_off_c, 6, 70, 0
8, 170880, Note_on_c, 6, 62, 105
8, 171072, Note_off_c, 6, 62, 0
8, 171072, Note_on_c, 6, 62, 105
8, 171264, Note_off_c, 6, 62, 0
8, 171264, Note_on_c, 6, 65, 105
8, 171456, Note_off_c, 6, 65, 0
8, 171456, Note_on_c, 6, 69, 105
8, 171648, Note_off_c, 6, 69, 0
8, 171648, Note_on_c, 6, 72, 105
8, 172032, Note_off_c, 6, 72, 0
8, 172032, Note_on_c, 6, 69, 105
8, 172224, Note_off_c, 6, 69, 0
8, 172224, Note_on_c, 6, 70, 105
8, 172608, Note_off_c, 6, 70, 0
8, 172608, Note_on_c, 6, 63, 105
8, 172800, Note_off_c, 6, 63, 0
8, 172800, Note_on_c, 6, 63, 105
8, 172848, Note_off_c, 6, 63, 0
8, 172848, Note_on_c, 6, 62, 105
8, 172896, Note_off_c, 6, 62, 0
8, 172896, Note_on_c, 6, 63, 105
8, 172944, Note_off_c, 6, 63, 0
8, 172944, Note_on_c, 6, 62, 105
8, 172992, Note_off_c, 6, 62, 0
8, 172992, Note_on_c, 6, 63, 105
8, 173040, Note_off_c, 6, 63, 0
8, 173040, Note_on_c, 6, 62, 105
8, 173184, Note_off_c, 6, 62, 0
8, 173184, Note_on_c, 6, 60, 105
8, 173376, Note_off_c, 6, 60, 0
8, 173376, Note_on_c, 6, 72, 105
8, 173472, Note_off_c, 6, 72, 0
8, 173472, Note_on_c, 6, 74, 105
8, 173568, Note_off_c, 6, 74, 0
8, 173568, Note_on_c, 6, 75, 105
8, 173664, Note_off_c, 6, 75, 0
8, 173664, Note_on_c, 6, 72, 105
8, 173760, Note_off_c, 6, 72, 0
8, 173760, Note_on_c, 6, 72, 105
8, 173856, Note_off_c, 6, 72, 0
8, 173856, Note_on_c, 6, 70, 105
8, 173952, Note_off_c, 6, 70, 0
8, 173952, Note_on_c, 6, 70, 105
8, 174048, Note_off_c, 6, 70, 0
8, 174048, Note_on_c, 6, 69, 105
8, 174144, Note_off_c, 6, 69, 0
8, 174144, Note_on_c, 6, 69, 105
8, 174240, Note_off_c, 6, 69, 0
8, 174240, Note_on_c, 6, 67, 105
8, 174336, Note_off_c, 6, 67, 0
8, 174336, Note_on_c, 6, 67, 105
8, 174432, Note_off_c, 6, 67, 0
8, 174432, Note_on_c, 6, 65, 105
8, 174528, Note_off_c, 6, 65, 0
8, 174528, Note_on_c, 6, 72, 105
8, 174624, Note_off_c, 6, 72, 0
8, 174624, Note_on_c, 6, 74, 105
8, 174720, Note_off_c, 6, 74, 0
8, 174720, Note_on_c, 6, 75, 105
8, 174816, Note_off_c, 6, 75, 0
8, 174816, Note_on_c, 6, 72, 105
8, 174912, Note_off_c, 6, 72, 0
8, 174912, Note_on_c, 6, 72, 105
8, 175008, Note_off_c, 6, 72, 0
8, 175008, Note_on_c, 6, 70, 105
8, 175104, Note_off_c, 6, 70, 0
8, 175104, Note_on_c, 6, 70, 105
8, 175200, Note_off_c, 6, 70, 0
8, 175200, Note_on_c, 6, 69, 105
8, 175296, Note_off_c, 6, 69, 0
8, 175296, Note_on_c, 6, 69, 105
8, 175392, Note_off_c, 6, 69, 0
8, 175392, Note_on_c, 6, 67, 105
8, 175488, Note_off_c, 6, 67, 0
8, 175488, Note_on_c, 6, 67, 105
8, 175584, Note_off_c, 6, 67, 0
8, 175584, Note_on_c, 6, 65, 105
8, 175680, Note_off_c, 6, 65, 0
8, 175680, Note_on_c, 6, 74, 105
8, 175776, Note_off_c, 6, 74, 0
8, 175776, Note_on_c, 6, 75, 105
8, 175872, Note_off_c, 6, 75, 0
8, 175872, Note_on_c, 6, 77, 105
8, 175968, Note_off_c, 6, 77, 0
8, 175968, Note_on_c, 6, 74, 105
8, 176064, Note_off_c, 6, 74, 0
8, 176064, Note_on_c, 6, 74, 105
8, 176160, Note_off_c, 6, 74, 0
8, 176160, Note_on_c, 6, 72, 105
8, 176256, Note_off_c, 6, 72, 0
8, 176256, Note_on_c, 6, 72, 105
8, 176352, Note_off_c, 6, 72, 0
8, 176352, Note_on_c, 6, 70, 105
8, 176448, Note_off_c, 6, 70, 0
8, 176448, Note_on_c, 6, 70, 105
8, 176544, Note_off_c, 6, 70, 0
8, 176544, Note_on_c, 6, 68, 105
8, 176640, Note_off_c, 6, 68, 0
8, 176640, Note_on_c, 6, 68, 105
8, 176736, Note_off_c, 6, 68, 0
8, 176736, Note_on_c, 6, 70, 105
8, 176832, Note_off_c, 6, 70, 0
8, 176832, Note_on_c, 6, 74, 105
8, 176928, Note_off_c, 6, 74, 0
8, 176928, Note_on_c, 6, 75, 105
8, 177024, Note_off_c, 6, 75, 0
8, 177024, Note_on_c, 6, 77, 105
8, 177120, Note_off_c, 6, 77, 0
8, 177120, Note_on_c, 6, 74, 105
8, 177216, Note_off_c, 6, 74, 0
8, 177216, Note_on_c, 6, 74, 105
8, 177312, Note_off_c, 6, 74, 0
8, 177312, Note_on_c, 6, 72, 105
8, 177408, Note_off_c, 6, 72, 0
8, 177408, Note_on_c, 6, 72, 105
8, 177504, Note_off_c, 6, 72, 0
8, 177504, Note_on_c, 6, 70, 105
8, 177600, Note_off_c, 6, 70, 0
8, 177600, Note_on_c, 6, 70, 105
8, 177696, Note_off_c, 6, 70, 0
8, 177696, Note_on_c, 6, 68, 105
8, 177792, Note_off_c, 6, 68, 0
8, 177792, Note_on_c, 6, 68, 105
8, 177888, Note_off_c, 6, 68, 0
8, 177888, Note_on_c, 6, 67, 105
8, 177984, Note_off_c, 6, 67, 0
8, 177984, Note_on_c, 6, 67, 105
8, 178080, Note_off_c, 6, 67, 0
8, 178080, Note_on_c, 6, 70, 105
8, 178176, Note_off_c, 6, 70, 0
8, 178176, Note_on_c, 6, 68, 105
8, 178272, Note_off_c, 6, 68, 0
8, 178272, Note_on_c, 6, 67, 105
8, 178368, Note_off_c, 6, 67, 0
8, 178368, Note_on_c, 6, 67, 105
8, 178464, Note_off_c, 6, 67, 0
8, 178464, Note_on_c, 6, 65, 105
8, 178560, Note_off_c, 6, 65, 0
8, 178560, Note_on_c, 6, 65, 105
8, 178656, Note_off_c, 6, 65, 0
8, 178656, Note_on_c, 6, 70, 105
8, 178752, Note_off_c, 6, 70, 0
8, 178752, Note_on_c, 6, 67, 105
8, 178848, Note_off_c, 6, 67, 0
8, 178848, Note_on_c, 6, 65, 105
8, 178944, Note_off_c, 6, 65, 0
8, 178944, Note_on_c, 6, 65, 105
8, 179040, Note_off_c, 6, 65, 0
8, 179040, Note_on_c, 6, 63, 105
8, 179136, Note_off_c, 6, 63, 0
8, 179136, Note_on_c, 6, 63, 105
8, 179232, Note_off_c, 6, 63, 0
8, 179232, Note_on_c, 6, 70, 105
8, 179328, Note_off_c, 6, 70, 0
8, 179328, Note_on_c, 6, 65, 105
8, 179424, Note_off_c, 6, 65, 0
8, 179424, Note_on_c, 6, 63, 105
8, 179520, Note_off_c, 6, 63, 0
8, 179520, Note_on_c, 6, 63, 105
8, 179616, Note_off_c, 6, 63, 0
8, 179616, Note_on_c, 6, 62, 105
8, 179712, Note_off_c, 6, 62, 0
8, 179712, Note_on_c, 6, 62, 105
8, 179808, Note_off_c, 6, 62, 0
8, 179808, Note_on_c, 6, 70, 105
8, 179904, Note_off_c, 6, 70, 0
8, 179904, Note_on_c, 6, 63, 105
8, 180000, Note_off_c, 6, 63, 0
8, 180000, Note_on_c, 6, 62, 105
8, 180096, Note_off_c, 6, 62, 0
8, 180096, Note_on_c, 6, 62, 105
8, 180192, Note_off_c, 6, 62, 0
8, 180192, Note_on_c, 6, 60, 105
8, 180288, Note_off_c, 6, 60, 0
8, 180288, Note_on_c, 6, 60, 105
8, 180384, Note_off_c, 6, 60, 0
8, 180384, Note_on_c, 6, 69, 105
8, 180480, Note_off_c, 6, 69, 0
8, 180480, Note_on_c, 6, 69, 105
8, 180576, Note_off_c, 6, 69, 0
8, 180576, Note_on_c, 6, 70, 105
8, 180672, Note_off_c, 6, 70, 0
8, 180672, Note_on_c, 6, 70, 105
8, 180768, Note_off_c, 6, 70, 0
8, 180768, Note_on_c, 6, 60, 105
8, 180864, Note_off_c, 6, 60, 0
8, 180864, Note_on_c, 6, 60, 105
8, 180960, Note_off_c, 6, 60, 0
8, 180960, Note_on_c, 6, 69, 105
8, 181056, Note_off_c, 6, 69, 0
8, 181056, Note_on_c, 6, 69, 105
8, 181152, Note_off_c, 6, 69, 0
8, 181152, Note_on_c, 6, 70, 105
8, 181248, Note_off_c, 6, 70, 0
8, 181248, Note_on_c, 6, 70, 105
8, 181344, Note_off_c, 6, 70, 0
8, 181344, Note_on_c, 6, 60, 105
8, 181440, Note_off_c, 6, 60, 0
8, 181440, Note_on_c, 6, 60, 105
8, 181536, Note_off_c, 6, 60, 0
8, 181536, Note_on_c, 6, 69, 105
8, 181632, Note_off_c, 6, 69, 0
8, 181632, Note_on_c, 6, 69, 105
8, 181728, Note_off_c, 6, 69, 0
8, 181728, Note_on_c, 6, 70, 105
8, 181824, Note_off_c, 6, 70, 0
8, 181824, Note_on_c, 6, 70, 105
8, 181920, Note_off_c, 6, 70, 0
8, 181920, Note_on_c, 6, 60, 105
8, 182016, Note_off_c, 6, 60, 0
8, 182016, Note_on_c, 6, 60, 105
8, 182112, Note_off_c, 6, 60, 0
8, 182112, Note_on_c, 6, 69, 105
8, 182208, Note_off_c, 6, 69, 0
8, 182208, Note_on_c, 6, 69, 105
8, 182304, Note_off_c, 6, 69, 0
8, 182304, Note_on_c, 6, 70, 105
8, 182400, Note_off_c, 6, 70, 0
8, 182400, Note_on_c, 6, 70, 105
8, 182496, Note_off_c, 6, 70, 0
8, 182496, Note_on_c, 6, 60, 105
8, 182592, Note_off_c, 6, 60, 0
8, 182592, Note_on_c, 6, 60, 105
8, 182688, Note_off_c, 6, 60, 0
8, 182688, Note_on_c, 6, 63, 105
8, 182784, Note_off_c, 6, 63, 0
8, 182784, Note_on_c, 6, 63, 105
8, 182880, Note_off_c, 6, 63, 0
8, 182880, Note_on_c, 6, 62, 105
8, 182976, Note_off_c, 6, 62, 0
8, 182976, Note_on_c, 6, 62, 105
8, 183072, Note_off_c, 6, 62, 0
8, 183072, Note_on_c, 6, 67, 105
8, 183168, Note_off_c, 6, 67, 0
8, 183168, Note_on_c, 6, 67, 105
8, 183264, Note_off_c, 6, 67, 0
8, 183264, Note_on_c, 6, 65, 105
8, 183360, Note_off_c, 6, 65, 0
8, 183360, Note_on_c, 6, 65, 105
8, 183456, Note_off_c, 6, 65, 0
8, 183456, Note_on_c, 6, 69, 105
8, 183552, Note_off_c, 6, 69, 0
8, 183552, Note_on_c, 6, 69, 105
8, 183648, Note_off_c, 6, 69, 0
8, 183648, Note_on_c, 6, 70, 105
8, 183744, Note_off_c, 6, 70, 0
8, 183744, Note_on_c, 6, 63, 105
8, 183936, Note_off_c, 6, 63, 0
8, 183936, Note_on_c, 6, 62, 105
8, 183984, Note_off_c, 6, 62, 0
8, 183984, Note_on_c, 6, 60, 105
8, 184032, Note_off_c, 6, 60, 0
8, 184032, Note_on_c, 6, 62, 105
8, 184080, Note_off_c, 6, 62, 0
8, 184080, Note_on_c, 6, 60, 105
8, 184128, Note_off_c, 6, 60, 0
8, 184128, Note_on_c, 6, 62, 105
8, 184176, Note_off_c, 6, 62, 0
8, 184176, Note_on_c, 6, 60, 105
8, 184320, Note_off_c, 6, 60, 0
8, 184320, Note_on_c, 6, 58, 105
8, 184704, Note_off_c, 6, 58, 0
8, 184704, End_track
9, 0, Start_track
9, 0, Title_t, "Oboes"
9, 0, Control_c, 7, 0, 0
9, 0, Program_c, 7, 71
9, 0, Control_c, 7, 10, 63
9, 0, Key_signature, -2, "major"
9, 0, Control_c, 7, 121, 0
9, 0, Control_c, 7, 7, 127
9, 576, Note_on_c, 7, 62, 88
9, 960, Note_off_c, 7, 62, 0
9, 960, Note_on_c, 7, 60, 88
9, 1152, Note_off_c, 7, 60, 0
9, 1152, Note_on_c, 7, 62, 88
9, 1536, Note_off_c, 7, 62, 0
9, 1536, Note_on_c, 7, 60, 88
9, 1728, Note_off_c, 7, 60, 0
9, 1728, Note_on_c, 7, 62, 88
9, 1920, Note_off_c, 7, 62, 0
9, 1920, Note_on_c, 7, 63, 88
9, 2112, Note_off_c, 7, 63, 0
9, 2112, Note_on_c, 7, 63, 88
9, 2304, Note_off_c, 7, 63, 0
9, 2304, Note_on_c, 7, 65, 88
9, 3072, Note_off_c, 7, 65, 0
9, 3072, Note_on_c, 7, 65, 88
9, 3264, Note_off_c, 7, 65, 0
9, 3264, Note_on_c, 7, 63, 88
9, 3456, Note_off_c, 7, 63, 0
9, 4032, Note_on_c, 7, 63, 88
9, 4224, Note_off_c, 7, 63, 0
9, 4224, Note_on_c, 7, 60, 88
9, 4416, Note_off_c, 7, 60, 0
9, 4416, Note_on_c, 7, 62, 88
9, 4608, Note_off_c, 7, 62, 0
9, 4608, Note_on_c, 7, 65, 88
9, 4608, Note_on_c, 7, 69, 88
9, 5184, Note_off_c, 7, 65, 0
9, 5184, Note_off_c, 7, 69, 0
9, 5184, Note_on_c, 7, 62, 88
9, 5376, Note_off_c, 7, 62, 0
9, 5376, Note_on_c, 7, 58, 88
9, 5568, Note_off_c, 7, 58, 0
9, 5568, Note_on_c, 7, 60, 88
9, 5760, Note_off_c, 7, 60, 0
9, 5760, Note_on_c, 7, 72, 88
9, 6336, Note_off_c, 7, 72, 0
9, 6336, Note_on_c, 7, 63, 88
9, 6528, Note_off_c, 7, 63, 0
9, 6528, Note_on_c, 7, 58, 88
9, 6720, Note_off_c, 7, 58, 0
9, 6720, Note_on_c, 7, 58, 88
9, 6912, Note_off_c, 7, 58, 0
9, 6912, Note_on_c, 7, 62, 88
9, 7488, Note_off_c, 7, 62, 0
9, 7488, Note_on_c, 7, 69, 88
9, 7680, Note_off_c, 7, 69, 0
9, 7680, Note_on_c, 7, 72, 88
9, 7872, Note_off_c, 7, 72, 0
9, 7872, Note_on_c, 7, 69, 88
9, 8064, Note_off_c, 7, 69, 0
9, 8064, Note_on_c, 7, 65, 88
9, 8256, Note_off_c, 7, 65, 0
9, 8256, Note_on_c, 7, 69, 88
9, 8448, Note_off_c, 7, 69, 0
9, 8448, Note_on_c, 7, 72, 88
9, 8640, Note_off_c, 7, 72, 0
9, 8640, Note_on_c, 7, 69, 88
9, 8832, Note_off_c, 7, 69, 0
9, 8832, Note_on_c, 7, 72, 88
9, 9024, Note_off_c, 7, 72, 0
9, 9024, Note_on_c, 7, 75, 88
9, 9216, Note_off_c, 7, 75, 0
9, 9216, Note_on_c, 7, 60, 88
9, 9408, Note_off_c, 7, 60, 0
9, 9408, Note_on_c, 7, 65, 88
9, 9600, Note_off_c, 7, 65, 0
9, 9600, Note_on_c, 7, 60, 88
9, 9792, Note_off_c, 7, 60, 0
9, 9792, Note_on_c, 7, 70, 88
9, 10176, Note_off_c, 7, 70, 0
9, 10176, Note_on_c, 7, 65, 88
9, 10368, Note_off_c, 7, 65, 0
9, 10368, Note_on_c, 7, 63, 88
9, 10560, Note_off_c, 7, 63, 0
9, 10560, Note_on_c, 7, 67, 88
9, 10752, Note_off_c, 7, 67, 0
9, 10752, Note_on_c, 7, 63, 88
9, 10944, Note_off_c, 7, 63, 0
9, 10944, Note_on_c, 7, 70, 88
9, 11328, Note_off_c, 7, 70, 0
9, 11328, Note_on_c, 7, 65, 88
9, 11520, Note_off_c, 7, 65, 0
9, 11520, Note_on_c, 7, 62, 88
9, 11712, Note_off_c, 7, 62, 0
9, 11712, Note_on_c, 7, 65, 88
9, 11904, Note_off_c, 7, 65, 0
9, 11904, Note_on_c, 7, 62, 88
9, 12096, Note_off_c, 7, 62, 0
9, 12096, Note_on_c, 7, 63, 88
9, 12288, Note_off_c, 7, 63, 0
9, 12672, Note_on_c, 7, 65, 88
9, 12864, Note_off_c, 7, 65, 0
9, 13248, Note_on_c, 7, 63, 88
9, 13440, Note_off_c, 7, 63, 0
9, 13824, Note_on_c, 7, 70, 92
9, 14208, Note_off_c, 7, 70, 0
9, 14400, Note_on_c, 7, 60, 106
9, 14976, Note_off_c, 7, 60, 0
9, 16704, Note_on_c, 7, 58, 106
9, 17472, Note_off_c, 7, 58, 0
9, 17472, Note_on_c, 7, 62, 106
9, 17664, Note_off_c, 7, 62, 0
9, 17664, Note_on_c, 7, 62, 106
9, 17856, Note_off_c, 7, 62, 0
9, 17856, Note_on_c, 7, 60, 106
9, 17856, Note_on_c, 7, 63, 106
9, 17920, Note_off_c, 7, 60, 0
9, 17920, Note_off_c, 7, 63, 0
9, 18048, Note_on_c, 7, 58, 106
9, 18096, Note_off_c, 7, 58, 0
9, 18096, Note_on_c, 7, 57, 106
9, 18144, Note_off_c, 7, 57, 0
9, 18144, Note_on_c, 7, 58, 106
9, 18192, Note_off_c, 7, 58, 0
9, 18192, Note_on_c, 7, 57, 106
9, 18240, Note_off_c, 7, 57, 0
9, 18240, Note_on_c, 7, 58, 106
9, 18288, Note_off_c, 7, 58, 0
9, 18288, Note_on_c, 7, 57, 106
9, 18432, Note_off_c, 7, 57, 0
9, 18432, Note_on_c, 7, 58, 106
9, 19008, Note_off_c, 7, 58, 0
9, 19008, Note_on_c, 7, 58, 88
9, 19392, Note_off_c, 7, 58, 0
9, 19392, Note_on_c, 7, 60, 88
9, 19584, Note_off_c, 7, 60, 0
9, 19584, Note_on_c, 7, 58, 88
9, 19968, Note_off_c, 7, 58, 0
9, 19968, Note_on_c, 7, 60, 88
9, 20160, Note_off_c, 7, 60, 0
9, 20160, Note_on_c, 7, 62, 88
9, 20352, Note_off_c, 7, 62, 0
9, 20352, Note_on_c, 7, 65, 88
9, 20544, Note_off_c, 7, 65, 0
9, 20544, Note_on_c, 7, 63, 88
9, 20736, Note_off_c, 7, 63, 0
9, 20736, Note_on_c, 7, 58, 88
9, 21312, Note_off_c, 7, 58, 0
9, 21312, Note_on_c, 7, 65, 88
9, 21696, Note_off_c, 7, 65, 0
9, 21696, Note_on_c, 7, 63, 88
9, 21888, Note_off_c, 7, 63, 0
9, 21888, Note_on_c, 7, 62, 88
9, 22080, Note_off_c, 7, 62, 0
9, 22080, Note_on_c, 7, 65, 88
9, 22272, Note_off_c, 7, 65, 0
9, 22272, Note_on_c, 7, 63, 88
9, 22464, Note_off_c, 7, 63, 0
9, 22464, Note_on_c, 7, 65, 88
9, 22656, Note_off_c, 7, 65, 0
9, 22656, Note_on_c, 7, 67, 88
9, 22848, Note_off_c, 7, 67, 0
9, 22848, Note_on_c, 7, 68, 88
9, 23232, Note_off_c, 7, 68, 0
9, 23232, Note_on_c, 7, 67, 88
9, 23232, Note_on_c, 7, 70, 88
9, 23424, Note_off_c, 7, 67, 0
9, 23424, Note_off_c, 7, 70, 0
9, 23424, Note_on_c, 7, 65, 88
9, 23424, Note_on_c, 7, 68, 88
9, 23616, Note_off_c, 7, 65, 0
9, 23616, Note_off_c, 7, 68, 0
9, 23616, Note_on_c, 7, 63, 88
9, 23616, Note_on_c, 7, 67, 88
9, 24000, Note_off_c, 7, 63, 0
9, 24000, Note_off_c, 7, 67, 0
9, 24000, Note_on_c, 7, 62, 88
9, 24000, Note_on_c, 7, 67, 88
9, 24192, Note_off_c, 7, 62, 0
9, 24192, Note_off_c, 7, 67, 0
9, 24192, Note_on_c, 7, 60, 88
9, 24192, Note_on_c, 7, 65, 88
9, 24576, Note_off_c, 7, 60, 0
9, 24576, Note_off_c, 7, 65, 0
9, 24576, Note_on_c, 7, 62, 88
9, 24576, Note_on_c, 7, 65, 88
9, 24768, Note_off_c, 7, 62, 0
9, 24768, Note_off_c, 7, 65, 0
9, 24768, Note_on_c, 7, 65, 88
9, 24768, Note_on_c, 7, 68, 88
9, 24960, Note_off_c, 7, 65, 0
9, 24960, Note_off_c, 7, 68, 0
9, 24960, Note_on_c, 7, 70, 88
9, 25152, Note_off_c, 7, 70, 0
9, 25152, Note_on_c, 7, 68, 88
9, 25152, Note_on_c, 7, 72, 88
9, 25344, Note_off_c, 7, 68, 0
9, 25344, Note_on_c, 7, 65, 88
9, 25536, Note_off_c, 7, 72, 0
9, 25536, Note_off_c, 7, 65, 0
9, 25536, Note_on_c, 7, 70, 88
9, 25728, Note_off_c, 7, 70, 0
9, 25728, Note_on_c, 7, 63, 88
9, 25728, Note_on_c, 7, 69, 88
9, 25920, Note_off_c, 7, 63, 0
9, 25920, Note_off_c, 7, 69, 0
9, 25920, Note_on_c, 7, 62, 70
9, 26304, Note_off_c, 7, 62, 0
9, 26304, Note_on_c, 7, 60, 70
9, 26496, Note_off_c, 7, 60, 0
9, 26496, Note_on_c, 7, 58, 70
9, 26880, Note_off_c, 7, 58, 0
9, 26880, Note_on_c, 7, 60, 70
9, 27072, Note_off_c, 7, 60, 0
9, 27072, Note_on_c, 7, 62, 70
9, 27264, Note_off_c, 7, 62, 0
9, 27264, Note_on_c, 7, 65, 70
9, 27456, Note_off_c, 7, 65, 0
9, 27456, Note_on_c, 7, 63, 70
9, 27648, Note_off_c, 7, 63, 0
9, 27648, Note_on_c, 7, 58, 70
9, 28416, Note_off_c, 7, 58, 0
9, 28416, Note_on_c, 7, 62, 70
9, 28608, Note_off_c, 7, 62, 0
9, 28608, Note_on_c, 7, 63, 70
9, 28800, Note_off_c, 7, 63, 0
9, 28800, Note_on_c, 7, 63, 70
9, 29568, Note_off_c, 7, 63, 0
9, 29568, Note_on_c, 7, 60, 70
9, 29760, Note_off_c, 7, 60, 0
9, 29760, Note_on_c, 7, 62, 70
9, 29952, Note_off_c, 7, 62, 0
9, 29952, Note_on_c, 7, 62, 70
9, 30720, Note_off_c, 7, 62, 0
9, 30720, Note_on_c, 7, 58, 70
9, 30912, Note_off_c, 7, 58, 0
9, 30912, Note_on_c, 7, 60, 70
9, 31104, Note_off_c, 7, 60, 0
9, 31104, Note_on_c, 7, 69, 70
9, 31488, Note_off_c, 7, 69, 0
9, 31488, Note_on_c, 7, 60, 70
9, 31680, Note_off_c, 7, 60, 0
9, 31680, Note_on_c, 7, 60, 70
9, 31872, Note_off_c, 7, 60, 0
9, 31872, Note_on_c, 7, 58, 70
9, 32064, Note_off_c, 7, 58, 0
9, 32064, Note_on_c, 7, 55, 70
9, 32064, Note_on_c, 7, 58, 70
9, 32256, Note_off_c, 7, 55, 0
9, 32256, Note_off_c, 7, 58, 0
9, 32256, Note_on_c, 7, 58, 70
9, 32640, Note_off_c, 7, 58, 0
9, 32640, Note_on_c, 7, 57, 70
9, 32832, Note_off_c, 7, 57, 0
9, 32832, Note_on_c, 7, 69, 106
9, 33216, Note_off_c, 7, 69, 0
9, 33216, Note_on_c, 7, 67, 106
9, 33408, Note_off_c, 7, 67, 0
9, 33408, Note_on_c, 7, 65, 106
9, 33792, Note_off_c, 7, 65, 0
9, 33792, Note_on_c, 7, 67, 106
9, 33984, Note_off_c, 7, 67, 0
9, 33984, Note_on_c, 7, 69, 106
9, 34176, Note_off_c, 7, 69, 0
9, 34176, Note_on_c, 7, 70, 106
9, 34368, Note_off_c, 7, 70, 0
9, 34368, Note_on_c, 7, 72, 106
9, 34752, Note_off_c, 7, 72, 0
9, 34752, Note_on_c, 7, 70, 106
9, 34944, Note_off_c, 7, 70, 0
9, 34944, Note_on_c, 7, 69, 106
9, 35136, Note_off_c, 7, 69, 0
9, 35136, Note_on_c, 7, 70, 70
9, 35328, Note_off_c, 7, 70, 0
9, 35328, Note_on_c, 7, 65, 70
9, 35520, Note_off_c, 7, 65, 0
9, 35520, Note_on_c, 7, 67, 70
9, 35712, Note_off_c, 7, 67, 0
9, 35712, Note_on_c, 7, 69, 70
9, 36096, Note_off_c, 7, 69, 0
9, 36096, Note_on_c, 7, 70, 70
9, 36288, Note_off_c, 7, 70, 0
9, 36288, Note_on_c, 7, 72, 70
9, 36384, Note_off_c, 7, 72, 0
9, 36384, Note_on_c, 7, 74, 70
9, 36480, Note_off_c, 7, 74, 0
9, 36480, Note_on_c, 7, 75, 70
9, 36672, Note_off_c, 7, 75, 0
9, 36672, Note_on_c, 7, 69, 70
9, 36864, Note_off_c, 7, 69, 0
9, 36864, Note_on_c, 7, 62, 106
9, 37056, Note_off_c, 7, 62, 0
9, 37056, Note_on_c, 7, 65, 106
9, 37248, Note_off_c, 7, 65, 0
9, 37248, Note_on_c, 7, 63, 106
9, 37440, Note_off_c, 7, 63, 0
9, 37440, Note_on_c, 7, 62, 106
9, 37824, Note_off_c, 7, 62, 0
9, 37824, Note_on_c, 7, 60, 106
9, 38016, Note_off_c, 7, 60, 0
9, 38016, Note_on_c, 7, 58, 106
9, 38400, Note_off_c, 7, 58, 0
9, 38400, Note_on_c, 7, 60, 106
9, 38592, Note_off_c, 7, 60, 0
9, 38592, Note_on_c, 7, 62, 106
9, 38784, Note_off_c, 7, 62, 0
9, 38784, Note_on_c, 7, 63, 106
9, 38976, Note_off_c, 7, 63, 0
9, 38976, Note_on_c, 7, 65, 106
9, 39360, Note_off_c, 7, 65, 0
9, 39360, Note_on_c, 7, 63, 106
9, 39552, Note_off_c, 7, 63, 0
9, 39552, Note_on_c, 7, 62, 106
9, 39744, Note_off_c, 7, 62, 0
9, 39744, Note_on_c, 7, 63, 70
9, 39936, Note_off_c, 7, 63, 0
9, 39936, Note_on_c, 7, 58, 70
9, 40128, Note_off_c, 7, 58, 0
9, 40128, Note_on_c, 7, 60, 70
9, 40320, Note_off_c, 7, 60, 0
9, 40320, Note_on_c, 7, 62, 70
9, 40704, Note_off_c, 7, 62, 0
9, 40704, Note_on_c, 7, 63, 70
9, 40896, Note_off_c, 7, 63, 0
9, 40896, Note_on_c, 7, 65, 70
9, 40992, Note_off_c, 7, 65, 0
9, 40992, Note_on_c, 7, 67, 70
9, 41088, Note_off_c, 7, 67, 0
9, 41088, Note_on_c, 7, 69, 70
9, 41280, Note_off_c, 7, 69, 0
9, 41280, Note_on_c, 7, 62, 70
9, 41472, Note_off_c, 7, 62, 0
9, 41472, Note_on_c, 7, 55, 70
9, 42240, Note_off_c, 7, 55, 0
9, 42240, Note_on_c, 7, 67, 70
9, 42432, Note_off_c, 7, 67, 0
9, 42432, Note_on_c, 7, 65, 70
9, 42624, Note_off_c, 7, 65, 0
9, 42624, Note_on_c, 7, 63, 70
9, 42624, Note_on_c, 7, 67, 70
9, 43008, Note_off_c, 7, 63, 0
9, 43008, Note_off_c, 7, 67, 0
9, 43008, Note_on_c, 7, 65, 70
9, 43200, Note_off_c, 7, 65, 0
9, 43200, Note_on_c, 7, 63, 70
9, 43392, Note_off_c, 7, 63, 0
9, 43392, Note_on_c, 7, 74, 70
9, 43584, Note_off_c, 7, 74, 0
9, 43584, Note_on_c, 7, 75, 70
9, 43776, Note_off_c, 7, 75, 0
9, 43776, Note_on_c, 7, 67, 70
9, 44544, Note_off_c, 7, 67, 0
9, 44544, Note_on_c, 7, 63, 70
9, 44736, Note_off_c, 7, 63, 0
9, 44736, Note_on_c, 7, 65, 70
9, 44928, Note_off_c, 7, 65, 0
9, 44928, Note_on_c, 7, 74, 70
9, 45120, Note_off_c, 7, 74, 0
9, 45120, Note_on_c, 7, 75, 70
9, 45312, Note_off_c, 7, 75, 0
9, 45312, Note_on_c, 7, 65, 70
9, 45696, Note_off_c, 7, 65, 0
9, 45696, Note_on_c, 7, 63, 70
9, 45888, Note_off_c, 7, 63, 0
9, 45888, Note_on_c, 7, 60, 70
9, 45888, Note_on_c, 7, 63, 70
9, 46080, Note_off_c, 7, 60, 0
9, 46080, Note_off_c, 7, 63, 0
9, 46080, Note_on_c, 7, 65, 70
9, 46128, Note_off_c, 7, 65, 0
9, 46128, Note_on_c, 7, 63, 70
9, 46176, Note_off_c, 7, 63, 0
9, 46176, Note_on_c, 7, 65, 70
9, 46224, Note_off_c, 7, 65, 0
9, 46224, Note_on_c, 7, 63, 70
9, 46272, Note_off_c, 7, 63, 0
9, 46272, Note_on_c, 7, 65, 70
9, 46320, Note_off_c, 7, 65, 0
9, 46320, Note_on_c, 7, 63, 70
9, 46464, Note_off_c, 7, 63, 0
9, 46464, Note_on_c, 7, 62, 70
9, 46656, Note_off_c, 7, 62, 0
9, 46656, Note_on_c, 7, 65, 70
9, 47040, Note_off_c, 7, 65, 0
9, 47040, Note_on_c, 7, 68, 70
9, 47232, Note_off_c, 7, 68, 0
9, 47232, Note_on_c, 7, 62, 70
9, 47616, Note_off_c, 7, 62, 0
9, 47616, Note_on_c, 7, 62, 70
9, 47808, Note_off_c, 7, 62, 0
9, 47808, Note_on_c, 7, 62, 70
9, 48192, Note_off_c, 7, 62, 0
9, 48192, Note_on_c, 7, 62, 70
9, 48384, Note_off_c, 7, 62, 0
9, 48384, Note_on_c, 7, 60, 70
9, 48768, Note_off_c, 7, 60, 0
9, 48768, Note_on_c, 7, 65, 70
9, 48960, Note_off_c, 7, 65, 0
9, 48960, Note_on_c, 7, 67, 70
9, 49536, Note_off_c, 7, 67, 0
9, 49536, Note_on_c, 7, 65, 70
9, 49920, Note_off_c, 7, 65, 0
9, 49920, Note_on_c, 7, 65, 70
9, 50112, Note_off_c, 7, 65, 0
9, 50112, Note_on_c, 7, 60, 70
9, 50688, Note_off_c, 7, 60, 0
9, 51072, Note_on_c, 7, 65, 70
9, 51264, Note_off_c, 7, 65, 0
9, 51264, Note_on_c, 7, 63, 70
9, 51456, Note_off_c, 7, 63, 0
9, 51456, Note_on_c, 7, 62, 70
9, 51648, Note_off_c, 7, 62, 0
9, 51648, Note_on_c, 7, 63, 70
9, 51840, Note_off_c, 7, 63, 0
9, 55296, Note_on_c, 7, 57, 70
9, 55488, Note_off_c, 7, 57, 0
9, 55488, Note_on_c, 7, 60, 70
9, 55680, Note_off_c, 7, 60, 0
9, 55680, Note_on_c, 7, 62, 70
9, 55872, Note_off_c, 7, 62, 0
9, 55872, Note_on_c, 7, 57, 70
9, 56064, Note_off_c, 7, 57, 0
9, 56064, Note_on_c, 7, 58, 70
9, 56256, Note_off_c, 7, 58, 0
9, 56256, Note_on_c, 7, 62, 70
9, 56448, Note_off_c, 7, 62, 0
9, 56448, Note_on_c, 7, 63, 70
9, 56640, Note_off_c, 7, 63, 0
9, 56640, Note_on_c, 7, 65, 70
9, 56832, Note_off_c, 7, 65, 0
9, 56832, Note_on_c, 7, 58, 70
9, 57024, Note_off_c, 7, 58, 0
9, 57024, Note_on_c, 7, 58, 70
9, 57216, Note_off_c, 7, 58, 0
9, 57216, Note_on_c, 7, 57, 70
9, 57600, Note_off_c, 7, 57, 0
9, 58176, Note_on_c, 7, 62, 70
9, 58752, Note_off_c, 7, 62, 0
9, 58752, Note_on_c, 7, 63, 70
9, 59328, Note_off_c, 7, 63, 0
9, 59328, Note_on_c, 7, 62, 70
9, 59904, Note_off_c, 7, 62, 0
9, 59904, Note_on_c, 7, 63, 70
9, 60288, Note_off_c, 7, 63, 0
9, 60288, Note_on_c, 7, 67, 70
9, 60480, Note_off_c, 7, 67, 0
9, 60480, Note_on_c, 7, 65, 70
9, 60672, Note_off_c, 7, 65, 0
9, 60864, Note_on_c, 7, 65, 70
9, 61056, Note_off_c, 7, 65, 0
9, 61056, Note_on_c, 7, 63, 70
9, 61248, Note_off_c, 7, 63, 0
9, 61440, Note_on_c, 7, 63, 70
9, 61632, Note_off_c, 7, 63, 0
9, 61632, Note_on_c, 7, 63, 70
9, 61824, Note_off_c, 7, 63, 0
9, 62016, Note_on_c, 7, 63, 70
9, 62208, Note_off_c, 7, 63, 0
9, 62784, Note_on_c, 7, 62, 88
9, 63168, Note_off_c, 7, 62, 0
9, 63168, Note_on_c, 7, 60, 88
9, 63360, Note_off_c, 7, 60, 0
9, 63360, Note_on_c, 7, 58, 88
9, 63744, Note_off_c, 7, 58, 0
9, 63744, Note_on_c, 7, 60, 88
9, 63936, Note_off_c, 7, 60, 0
9, 63936, Note_on_c, 7, 62, 88
9, 64128, Note_off_c, 7, 62, 0
9, 64128, Note_on_c, 7, 63, 88
9, 64320, Note_off_c, 7, 63, 0
9, 64320, Note_on_c, 7, 63, 88
9, 64512, Note_off_c, 7, 63, 0
9, 64512, Note_on_c, 7, 65, 106
9, 65280, Note_off_c, 7, 65, 0
9, 65280, Note_on_c, 7, 65, 106
9, 65472, Note_off_c, 7, 65, 0
9, 65472, Note_on_c, 7, 67, 106
9, 65664, Note_off_c, 7, 67, 0
9, 65664, Note_on_c, 7, 63, 106
9, 66432, Note_off_c, 7, 63, 0
9, 66432, Note_on_c, 7, 60, 106
9, 66624, Note_off_c, 7, 60, 0
9, 66624, Note_on_c, 7, 62, 106
9, 66816, Note_off_c, 7, 62, 0
9, 66816, Note_on_c, 7, 65, 106
9, 67584, Note_off_c, 7, 65, 0
9, 67584, Note_on_c, 7, 65, 106
9, 67776, Note_off_c, 7, 65, 0
9, 67776, Note_on_c, 7, 67, 106
9, 67968, Note_off_c, 7, 67, 0
9, 67968, Note_on_c, 7, 63, 106
9, 68736, Note_off_c, 7, 63, 0
9, 68736, Note_on_c, 7, 60, 106
9, 68928, Note_off_c, 7, 60, 0
9, 68928, Note_on_c, 7, 62, 106
9, 69120, Note_off_c, 7, 62, 0
9, 69120, Note_on_c, 7, 62, 106
9, 69888, Note_off_c, 7, 62, 0
9, 69888, Note_on_c, 7, 58, 106
9, 70080, Note_off_c, 7, 58, 0
9, 70080, Note_on_c, 7, 60, 106
9, 70272, Note_off_c, 7, 60, 0
9, 70272, Note_on_c, 7, 69, 106
9, 70464, Note_off_c, 7, 69, 0
9, 70464, Note_on_c, 7, 70, 106
9, 70656, Note_off_c, 7, 70, 0
9, 70656, Note_on_c, 7, 60, 106
9, 70848, Note_on_c, 7, 63, 106
9, 71040, Note_off_c, 7, 60, 0
9, 71040, Note_off_c, 7, 63, 0
9, 71040, Note_on_c, 7, 58, 106
9, 71232, Note_off_c, 7, 58, 0
9, 71232, Note_on_c, 7, 58, 106
9, 71424, Note_off_c, 7, 58, 0
9, 71424, Note_on_c, 7, 60, 106
9, 71472, Note_off_c, 7, 60, 0
9, 71472, Note_on_c, 7, 58, 106
9, 71520, Note_off_c, 7, 58, 0
9, 71520, Note_on_c, 7, 60, 106
9, 71568, Note_off_c, 7, 60, 0
9, 71568, Note_on_c, 7, 58, 106
9, 71616, Note_off_c, 7, 58, 0
9, 71616, Note_on_c, 7, 60, 106
9, 71664, Note_off_c, 7, 60, 0
9, 71664, Note_on_c, 7, 58, 106
9, 71808, Note_off_c, 7, 58, 0
9, 71808, Note_on_c, 7, 57, 106
9, 72000, Note_off_c, 7, 57, 0
9, 72000, Note_on_c, 7, 69, 106
9, 72192, Note_off_c, 7, 69, 0
9, 72192, Note_on_c, 7, 72, 106
9, 72384, Note_off_c, 7, 72, 0
9, 72384, Note_on_c, 7, 69, 106
9, 72576, Note_off_c, 7, 69, 0
9, 72576, Note_on_c, 7, 65, 106
9, 72768, Note_off_c, 7, 65, 0
9, 72768, Note_on_c, 7, 69, 106
9, 72960, Note_off_c, 7, 69, 0
9, 72960, Note_on_c, 7, 60, 106
9, 73152, Note_off_c, 7, 60, 0
9, 73152, Note_on_c, 7, 69, 106
9, 73344, Note_off_c, 7, 69, 0
9, 73344, Note_on_c, 7, 72, 106
9, 73536, Note_off_c, 7, 72, 0
9, 73536, Note_on_c, 7, 75, 106
9, 73728, Note_off_c, 7, 75, 0
9, 73728, Note_on_c, 7, 60, 106
9, 73920, Note_off_c, 7, 60, 0
9, 73920, Note_on_c, 7, 65, 106
9, 74112, Note_off_c, 7, 65, 0
9, 74112, Note_on_c, 7, 57, 106
9, 74304, Note_off_c, 7, 57, 0
9, 74304, Note_on_c, 7, 65, 106
9, 74880, Note_off_c, 7, 65, 0
9, 74880, Note_on_c, 7, 62, 106
9, 75072, Note_off_c, 7, 62, 0
9, 75072, Note_on_c, 7, 65, 106
9, 75264, Note_off_c, 7, 65, 0
9, 75264, Note_on_c, 7, 62, 106
9, 75456, Note_off_c, 7, 62, 0
9, 75456, Note_on_c, 7, 65, 106
9, 76032, Note_off_c, 7, 65, 0
9, 76032, Note_on_c, 7, 62, 106
9, 76224, Note_off_c, 7, 62, 0
9, 76224, Note_on_c, 7, 62, 106
9, 76416, Note_off_c, 7, 62, 0
9, 76416, Note_on_c, 7, 58, 106
9, 76416, Note_on_c, 7, 62, 106
9, 76608, Note_off_c, 7, 58, 0
9, 76608, Note_off_c, 7, 62, 0
9, 76608, Note_on_c, 7, 58, 106
9, 76608, Note_on_c, 7, 63, 106
9, 76992, Note_off_c, 7, 58, 0
9, 76992, Note_off_c, 7, 63, 0
9, 77184, Note_on_c, 7, 58, 106
9, 77568, Note_off_c, 7, 58, 0
9, 77760, Note_on_c, 7, 57, 106
9, 78144, Note_off_c, 7, 57, 0
9, 78336, Note_on_c, 7, 70, 106
9, 78912, Note_off_c, 7, 70, 0
9, 78912, Note_on_c, 7, 60, 106
9, 79488, Note_off_c, 7, 60, 0
9, 79488, Note_on_c, 7, 60, 106
9, 80064, Note_off_c, 7, 60, 0
9, 80064, Note_on_c, 7, 60, 106
9, 80640, Note_off_c, 7, 60, 0
9, 80640, Note_on_c, 7, 60, 106
9, 80832, Note_off_c, 7, 60, 0
9, 80832, Note_on_c, 7, 60, 106
9, 80832, Note_on_c, 7, 63, 106
9, 81024, Note_off_c, 7, 60, 0
9, 81024, Note_off_c, 7, 63, 0
9, 81024, Note_on_c, 7, 58, 106
9, 81024, Note_on_c, 7, 62, 106
9, 81216, Note_off_c, 7, 58, 0
9, 81216, Note_off_c, 7, 62, 0
9, 81216, Note_on_c, 7, 58, 106
9, 81600, Note_off_c, 7, 58, 0
9, 81600, Note_on_c, 7, 58, 106
9, 81984, Note_off_c, 7, 58, 0
9, 81984, Note_on_c, 7, 62, 106
9, 82176, Note_off_c, 7, 62, 0
9, 82176, Note_on_c, 7, 58, 106
9, 82368, Note_off_c, 7, 58, 0
9, 82368, Note_on_c, 7, 60, 106
9, 82560, Note_off_c, 7, 60, 0
9, 82560, Note_on_c, 7, 58, 106
9, 82608, Note_off_c, 7, 58, 0
9, 82608, Note_on_c, 7, 57, 106
9, 82656, Note_off_c, 7, 57, 0
9, 82656, Note_on_c, 7, 58, 106
9, 82704, Note_off_c, 7, 58, 0
9, 82704, Note_on_c, 7, 57, 106
9, 82752, Note_off_c, 7, 57, 0
9, 82752, Note_on_c, 7, 58, 106
9, 82800, Note_off_c, 7, 58, 0
9, 82800, Note_on_c, 7, 57, 106
9, 82944, Note_off_c, 7, 57, 0
9, 82944, Note_on_c, 7, 58, 106
9, 83328, Note_off_c, 7, 58, 0
9, 88128, Note_on_c, 7, 60, 106
9, 88320, Note_off_c, 7, 60, 0
9, 88512, Note_on_c, 7, 63, 106
9, 88704, Note_off_c, 7, 63, 0
9, 88704, Note_on_c, 7, 69, 106
9, 88896, Note_off_c, 7, 69, 0
9, 89088, Note_on_c, 7, 69, 106
9, 89280, Note_off_c, 7, 69, 0
9, 89280, Note_on_c, 7, 67, 106
9, 89472, Note_off_c, 7, 67, 0
9, 89664, Note_on_c, 7, 67, 106
9, 89856, Note_off_c, 7, 67, 0
9, 89856, Note_on_c, 7, 66, 106
9, 90048, Note_off_c, 7, 66, 0
9, 96576, Note_on_c, 7, 65, 106
9, 96768, Note_off_c, 7, 65, 0
9, 97920, Note_on_c, 7, 62, 106
9, 98112, Note_off_c, 7, 62, 0
9, 98112, Note_on_c, 7, 63, 106
9, 98304, Note_off_c, 7, 63, 0
9, 98304, Note_on_c, 7, 62, 106
9, 98496, Note_off_c, 7, 62, 0
9, 98496, Note_on_c, 7, 60, 106
9, 98688, Note_off_c, 7, 60, 0
9, 98688, Note_on_c, 7, 63, 106
9, 98880, Note_off_c, 7, 63, 0
9, 98880, Note_on_c, 7, 60, 106
9, 99072, Note_off_c, 7, 60, 0
9, 99072, Note_on_c, 7, 62, 106
9, 99648, Note_off_c, 7, 62, 0
9, 99648, Note_on_c, 7, 62, 106
9, 99840, Note_off_c, 7, 62, 0
9, 99840, Note_on_c, 7, 65, 106
9, 100032, Note_off_c, 7, 65, 0
9, 100032, Note_on_c, 7, 67, 106
9, 100224, Note_off_c, 7, 67, 0
9, 100224, Note_on_c, 7, 60, 106
9, 100224, Note_on_c, 7, 69, 106
9, 100416, Note_off_c, 7, 60, 0
9, 100416, Note_off_c, 7, 69, 0
9, 101952, Note_on_c, 7, 62, 70
9, 102336, Note_off_c, 7, 62, 0
9, 102336, Note_on_c, 7, 60, 70
9, 102528, Note_off_c, 7, 60, 0
9, 102528, Note_on_c, 7, 58, 70
9, 102912, Note_off_c, 7, 58, 0
9, 102912, Note_on_c, 7, 60, 70
9, 103104, Note_off_c, 7, 60, 0
9, 103104, Note_on_c, 7, 62, 70
9, 103296, Note_off_c, 7, 62, 0
9, 103296, Note_on_c, 7, 64, 70
9, 103488, Note_off_c, 7, 64, 0
9, 103488, Note_on_c, 7, 66, 70
9, 103680, Note_off_c, 7, 66, 0
9, 103680, Note_on_c, 7, 67, 70
9, 104064, Note_off_c, 7, 67, 0
9, 104064, Note_on_c, 7, 69, 70
9, 104256, Note_off_c, 7, 69, 0
9, 104256, Note_on_c, 7, 71, 70
9, 104448, Note_off_c, 7, 71, 0
9, 104448, Note_on_c, 7, 67, 70
9, 104640, Note_off_c, 7, 67, 0
9, 104640, Note_on_c, 7, 71, 70
9, 104832, Note_off_c, 7, 71, 0
9, 104832, Note_on_c, 7, 67, 70
9, 105024, Note_off_c, 7, 67, 0
9, 105024, Note_on_c, 7, 67, 70
9, 105216, Note_off_c, 7, 67, 0
9, 105216, Note_on_c, 7, 65, 70
9, 105408, Note_off_c, 7, 65, 0
9, 105408, Note_on_c, 7, 67, 70
9, 105600, Note_off_c, 7, 67, 0
9, 105600, Note_on_c, 7, 69, 70
9, 105792, Note_off_c, 7, 69, 0
9, 105792, Note_on_c, 7, 71, 70
9, 105984, Note_off_c, 7, 71, 0
9, 105984, Note_on_c, 7, 72, 106
9, 106368, Note_off_c, 7, 72, 0
9, 106368, Note_on_c, 7, 71, 106
9, 106560, Note_off_c, 7, 71, 0
9, 106560, Note_on_c, 7, 72, 106
9, 106752, Note_off_c, 7, 72, 0
9, 106752, Note_on_c, 7, 69, 106
9, 106944, Note_off_c, 7, 69, 0
9, 106944, Note_on_c, 7, 63, 106
9, 107136, Note_off_c, 7, 63, 0
9, 107136, Note_on_c, 7, 62, 106
9, 107328, Note_off_c, 7, 62, 0
9, 107328, Note_on_c, 7, 63, 106
9, 107520, Note_off_c, 7, 63, 0
9, 107520, Note_on_c, 7, 65, 106
9, 107712, Note_off_c, 7, 65, 0
9, 107712, Note_on_c, 7, 62, 106
9, 107904, Note_off_c, 7, 62, 0
9, 107904, Note_on_c, 7, 63, 106
9, 107952, Note_off_c, 7, 63, 0
9, 107952, Note_on_c, 7, 62, 106
9, 108000, Note_off_c, 7, 62, 0
9, 108000, Note_on_c, 7, 63, 106
9, 108048, Note_off_c, 7, 63, 0
9, 108048, Note_on_c, 7, 62, 106
9, 108096, Note_off_c, 7, 62, 0
9, 108096, Note_on_c, 7, 63, 106
9, 108144, Note_off_c, 7, 63, 0
9, 108144, Note_on_c, 7, 62, 106
9, 108288, Note_off_c, 7, 62, 0
9, 108288, Note_on_c, 7, 67, 88
9, 108480, Note_off_c, 7, 67, 0
9, 108480, Note_on_c, 7, 67, 88
9, 108672, Note_off_c, 7, 67, 0
9, 108672, Note_on_c, 7, 69, 88
9, 108864, Note_off_c, 7, 69, 0
9, 108864, Note_on_c, 7, 70, 88
9, 109056, Note_off_c, 7, 70, 0
9, 109056, Note_on_c, 7, 72, 88
9, 109248, Note_off_c, 7, 72, 0
9, 109248, Note_on_c, 7, 74, 88
9, 109440, Note_off_c, 7, 74, 0
9, 109440, Note_on_c, 7, 72, 88
9, 109632, Note_off_c, 7, 72, 0
9, 109632, Note_on_c, 7, 67, 88
9, 109824, Note_off_c, 7, 67, 0
9, 109824, Note_on_c, 7, 68, 88
9, 110016, Note_off_c, 7, 68, 0
9, 110016, Note_on_c, 7, 70, 88
9, 110208, Note_off_c, 7, 70, 0
9, 110208, Note_on_c, 7, 72, 88
9, 110400, Note_off_c, 7, 72, 0
9, 110400, Note_on_c, 7, 75, 88
9, 110592, Note_off_c, 7, 75, 0
9, 110592, Note_on_c, 7, 72, 88
9, 110592, Note_on_c, 7, 77, 88
9, 110784, Note_off_c, 7, 72, 0
9, 110784, Note_off_c, 7, 77, 0
9, 110784, Note_on_c, 7, 65, 88
9, 110976, Note_off_c, 7, 65, 0
9, 110976, Note_on_c, 7, 67, 88
9, 111168, Note_off_c, 7, 67, 0
9, 111168, Note_on_c, 7, 69, 88
9, 111360, Note_off_c, 7, 69, 0
9, 111360, Note_on_c, 7, 70, 88
9, 111552, Note_off_c, 7, 70, 0
9, 111552, Note_on_c, 7, 72, 88
9, 111744, Note_off_c, 7, 72, 0
9, 111744, Note_on_c, 7, 70, 88
9, 111936, Note_off_c, 7, 70, 0
9, 111936, Note_on_c, 7, 65, 88
9, 112128, Note_off_c, 7, 65, 0
9, 112128, Note_on_c, 7, 67, 88
9, 112320, Note_off_c, 7, 67, 0
9, 112320, Note_on_c, 7, 69, 88
9, 112512, Note_off_c, 7, 69, 0
9, 112512, Note_on_c, 7, 70, 88
9, 112704, Note_off_c, 7, 70, 0
9, 112704, Note_on_c, 7, 74, 88
9, 112896, Note_off_c, 7, 74, 0
9, 112896, Note_on_c, 7, 75, 88
9, 113280, Note_off_c, 7, 75, 0
9, 113472, Note_on_c, 7, 65, 88
9, 113856, Note_off_c, 7, 65, 0
9, 113856, Note_on_c, 7, 65, 88
9, 114048, Note_off_c, 7, 65, 0
9, 114048, Note_on_c, 7, 63, 88
9, 114240, Note_off_c, 7, 63, 0
9, 114624, Note_on_c, 7, 63, 88
9, 115200, Note_off_c, 7, 63, 0
9, 115200, Note_on_c, 7, 65, 88
9, 115392, Note_off_c, 7, 65, 0
9, 115584, Note_on_c, 7, 65, 88
9, 115776, Note_off_c, 7, 65, 0
9, 115776, Note_on_c, 7, 62, 88
9, 115968, Note_off_c, 7, 62, 0
9, 116160, Note_on_c, 7, 67, 88
9, 116352, Note_off_c, 7, 67, 0
9, 116352, Note_on_c, 7, 65, 88
9, 116544, Note_off_c, 7, 65, 0
9, 116544, Note_on_c, 7, 60, 88
9, 116736, Note_off_c, 7, 60, 0
9, 116736, Note_on_c, 7, 62, 88
9, 116928, Note_off_c, 7, 62, 0
9, 116928, Note_on_c, 7, 63, 88
9, 117120, Note_off_c, 7, 63, 0
9, 117120, Note_on_c, 7, 65, 88
9, 117312, Note_off_c, 7, 65, 0
9, 117312, Note_on_c, 7, 69, 88
9, 117504, Note_off_c, 7, 69, 0
9, 117504, Note_on_c, 7, 70, 88
9, 117696, Note_off_c, 7, 70, 0
9, 117696, Note_on_c, 7, 72, 88
9, 117888, Note_off_c, 7, 72, 0
9, 117888, Note_on_c, 7, 69, 88
9, 118272, Note_off_c, 7, 69, 0
9, 118272, Note_on_c, 7, 70, 88
9, 118464, Note_off_c, 7, 70, 0
9, 118464, Note_on_c, 7, 65, 88
9, 118848, Note_off_c, 7, 65, 0
9, 118848, Note_on_c, 7, 67, 88
9, 119040, Note_off_c, 7, 67, 0
9, 119040, Note_on_c, 7, 63, 88
9, 119424, Note_off_c, 7, 63, 0
9, 119424, Note_on_c, 7, 63, 88
9, 119616, Note_off_c, 7, 63, 0
9, 119616, Note_on_c, 7, 60, 88
9, 119808, Note_off_c, 7, 60, 0
9, 119808, Note_on_c, 7, 58, 88
9, 120192, Note_off_c, 7, 58, 0
9, 120192, Note_on_c, 7, 60, 88
9, 120384, Note_off_c, 7, 60, 0
9, 120384, Note_on_c, 7, 63, 88
9, 120576, Note_off_c, 7, 63, 0
9, 120576, Note_on_c, 7, 62, 88
9, 120768, Note_off_c, 7, 62, 0
9, 120768, Note_on_c, 7, 60, 88
9, 121152, Note_off_c, 7, 60, 0
9, 121152, Note_on_c, 7, 62, 88
9, 121536, Note_off_c, 7, 62, 0
9, 121536, Note_on_c, 7, 63, 88
9, 121920, Note_off_c, 7, 63, 0
9, 121920, Note_on_c, 7, 57, 88
9, 122112, Note_off_c, 7, 57, 0
9, 122112, Note_on_c, 7, 58, 88
9, 122688, Note_off_c, 7, 58, 0
9, 122688, Note_on_c, 7, 65, 88
9, 123072, Note_off_c, 7, 65, 0
9, 123072, Note_on_c, 7, 63, 88
9, 123264, Note_off_c, 7, 63, 0
9, 123264, Note_on_c, 7, 62, 88
9, 123456, Note_off_c, 7, 62, 0
9, 123456, Note_on_c, 7, 65, 88
9, 123648, Note_off_c, 7, 65, 0
9, 123648, Note_on_c, 7, 63, 88
9, 123840, Note_off_c, 7, 63, 0
9, 123840, Note_on_c, 7, 65, 88
9, 124032, Note_off_c, 7, 65, 0
9, 124032, Note_on_c, 7, 67, 88
9, 124224, Note_off_c, 7, 67, 0
9, 124224, Note_on_c, 7, 68, 88
9, 124608, Note_off_c, 7, 68, 0
9, 124608, Note_on_c, 7, 67, 88
9, 124608, Note_on_c, 7, 70, 88
9, 124800, Note_off_c, 7, 67, 0
9, 124800, Note_off_c, 7, 70, 0
9, 124800, Note_on_c, 7, 65, 88
9, 124800, Note_on_c, 7, 68, 88
9, 124992, Note_off_c, 7, 65, 0
9, 124992, Note_off_c, 7, 68, 0
9, 124992, Note_on_c, 7, 63, 88
9, 124992, Note_on_c, 7, 67, 88
9, 125376, Note_off_c, 7, 63, 0
9, 125376, Note_off_c, 7, 67, 0
9, 125376, Note_on_c, 7, 62, 88
9, 125376, Note_on_c, 7, 67, 88
9, 125568, Note_off_c, 7, 62, 0
9, 125568, Note_off_c, 7, 67, 0
9, 125568, Note_on_c, 7, 60, 88
9, 125568, Note_on_c, 7, 65, 88
9, 125952, Note_off_c, 7, 60, 0
9, 125952, Note_off_c, 7, 65, 0
9, 125952, Note_on_c, 7, 62, 88
9, 125952, Note_on_c, 7, 65, 88
9, 126144, Note_off_c, 7, 62, 0
9, 126144, Note_off_c, 7, 65, 0
9, 126144, Note_on_c, 7, 65, 88
9, 126144, Note_on_c, 7, 68, 88
9, 126336, Note_off_c, 7, 65, 0
9, 126336, Note_off_c, 7, 68, 0
9, 126336, Note_on_c, 7, 70, 88
9, 126528, Note_off_c, 7, 70, 0
9, 126528, Note_on_c, 7, 68, 88
9, 126528, Note_on_c, 7, 72, 88
9, 126720, Note_off_c, 7, 68, 0
9, 126720, Note_on_c, 7, 65, 88
9, 126912, Note_off_c, 7, 72, 0
9, 126912, Note_off_c, 7, 65, 0
9, 126912, Note_on_c, 7, 70, 88
9, 127104, Note_off_c, 7, 70, 0
9, 127104, Note_on_c, 7, 63, 88
9, 127104, Note_on_c, 7, 69, 88
9, 127296, Note_off_c, 7, 63, 0
9, 127296, Note_off_c, 7, 69, 0
9, 127296, Note_on_c, 7, 62, 70
9, 127680, Note_off_c, 7, 62, 0
9, 127680, Note_on_c, 7, 60, 70
9, 127872, Note_off_c, 7, 60, 0
9, 127872, Note_on_c, 7, 58, 70
9, 128256, Note_off_c, 7, 58, 0
9, 128256, Note_on_c, 7, 60, 70
9, 128448, Note_off_c, 7, 60, 0
9, 128448, Note_on_c, 7, 62, 70
9, 128640, Note_off_c, 7, 62, 0
9, 128640, Note_on_c, 7, 65, 70
9, 128832, Note_off_c, 7, 65, 0
9, 128832, Note_on_c, 7, 63, 70
9, 129024, Note_off_c, 7, 63, 0
9, 129024, Note_on_c, 7, 58, 70
9, 129792, Note_off_c, 7, 58, 0
9, 129792, Note_on_c, 7, 62, 70
9, 129984, Note_off_c, 7, 62, 0
9, 129984, Note_on_c, 7, 63, 70
9, 130176, Note_off_c, 7, 63, 0
9, 130176, Note_on_c, 7, 63, 70
9, 130944, Note_off_c, 7, 63, 0
9, 130944, Note_on_c, 7, 60, 70
9, 131136, Note_off_c, 7, 60, 0
9, 131136, Note_on_c, 7, 62, 70
9, 131328, Note_off_c, 7, 62, 0
9, 131328, Note_on_c, 7, 62, 70
9, 132096, Note_off_c, 7, 62, 0
9, 132096, Note_on_c, 7, 58, 70
9, 132288, Note_off_c, 7, 58, 0
9, 132288, Note_on_c, 7, 60, 70
9, 132480, Note_off_c, 7, 60, 0
9, 132480, Note_on_c, 7, 69, 70
9, 132864, Note_off_c, 7, 69, 0
9, 132864, Note_on_c, 7, 60, 70
9, 133056, Note_off_c, 7, 60, 0
9, 133056, Note_on_c, 7, 60, 70
9, 133248, Note_off_c, 7, 60, 0
9, 133248, Note_on_c, 7, 58, 70
9, 133440, Note_off_c, 7, 58, 0
9, 133440, Note_on_c, 7, 55, 70
9, 133440, Note_on_c, 7, 58, 70
9, 133632, Note_off_c, 7, 55, 0
9, 133632, Note_off_c, 7, 58, 0
9, 133632, Note_on_c, 7, 58, 70
9, 134016, Note_off_c, 7, 58, 0
9, 134016, Note_on_c, 7, 57, 70
9, 134208, Note_off_c, 7, 57, 0
9, 134208, Note_on_c, 7, 69, 106
9, 134592, Note_off_c, 7, 69, 0
9, 134592, Note_on_c, 7, 67, 106
9, 134784, Note_off_c, 7, 67, 0
9, 134784, Note_on_c, 7, 65, 106
9, 135168, Note_off_c, 7, 65, 0
9, 135168, Note_on_c, 7, 67, 106
9, 135360, Note_off_c, 7, 67, 0
9, 135360, Note_on_c, 7, 69, 106
9, 135552, Note_off_c, 7, 69, 0
9, 135552, Note_on_c, 7, 70, 106
9, 135744, Note_off_c, 7, 70, 0
9, 135744, Note_on_c, 7, 72, 106
9, 136128, Note_off_c, 7, 72, 0
9, 136128, Note_on_c, 7, 70, 106
9, 136320, Note_off_c, 7, 70, 0
9, 136320, Note_on_c, 7, 69, 106
9, 136512, Note_off_c, 7, 69, 0
9, 136512, Note_on_c, 7, 70, 70
9, 136704, Note_off_c, 7, 70, 0
9, 136704, Note_on_c, 7, 65, 70
9, 136896, Note_off_c, 7, 65, 0
9, 136896, Note_on_c, 7, 67, 70
9, 137088, Note_off_c, 7, 67, 0
9, 137088, Note_on_c, 7, 69, 70
9, 137472, Note_off_c, 7, 69, 0
9, 137472, Note_on_c, 7, 70, 70
9, 137664, Note_off_c, 7, 70, 0
9, 137664, Note_on_c, 7, 72, 70
9, 137760, Note_off_c, 7, 72, 0
9, 137760, Note_on_c, 7, 74, 70
9, 137856, Note_off_c, 7, 74, 0
9, 137856, Note_on_c, 7, 75, 70
9, 138048, Note_off_c, 7, 75, 0
9, 138048, Note_on_c, 7, 69, 70
9, 138240, Note_off_c, 7, 69, 0
9, 138240, Note_on_c, 7, 62, 106
9, 138432, Note_off_c, 7, 62, 0
9, 138432, Note_on_c, 7, 65, 106
9, 138624, Note_off_c, 7, 65, 0
9, 138624, Note_on_c, 7, 63, 106
9, 138816, Note_off_c, 7, 63, 0
9, 138816, Note_on_c, 7, 62, 106
9, 139200, Note_off_c, 7, 62, 0
9, 139200, Note_on_c, 7, 60, 106
9, 139392, Note_off_c, 7, 60, 0
9, 139392, Note_on_c, 7, 58, 106
9, 139776, Note_off_c, 7, 58, 0
9, 139776, Note_on_c, 7, 60, 106
9, 139968, Note_off_c, 7, 60, 0
9, 139968, Note_on_c, 7, 62, 106
9, 140160, Note_off_c, 7, 62, 0
9, 140160, Note_on_c, 7, 63, 106
9, 140352, Note_off_c, 7, 63, 0
9, 140352, Note_on_c, 7, 65, 106
9, 140736, Note_off_c, 7, 65, 0
9, 140736, Note_on_c, 7, 63, 106
9, 140928, Note_off_c, 7, 63, 0
9, 140928, Note_on_c, 7, 62, 106
9, 141120, Note_off_c, 7, 62, 0
9, 141120, Note_on_c, 7, 63, 70
9, 141312, Note_off_c, 7, 63, 0
9, 141312, Note_on_c, 7, 58, 70
9, 141504, Note_off_c, 7, 58, 0
9, 141504, Note_on_c, 7, 60, 70
9, 141696, Note_off_c, 7, 60, 0
9, 141696, Note_on_c, 7, 62, 70
9, 142080, Note_off_c, 7, 62, 0
9, 142080, Note_on_c, 7, 63, 70
9, 142272, Note_off_c, 7, 63, 0
9, 142272, Note_on_c, 7, 65, 70
9, 142368, Note_off_c, 7, 65, 0
9, 142368, Note_on_c, 7, 67, 70
9, 142464, Note_off_c, 7, 67, 0
9, 142464, Note_on_c, 7, 69, 70
9, 142656, Note_off_c, 7, 69, 0
9, 142656, Note_on_c, 7, 62, 70
9, 142848, Note_off_c, 7, 62, 0
9, 142848, Note_on_c, 7, 55, 70
9, 143616, Note_off_c, 7, 55, 0
9, 143616, Note_on_c, 7, 67, 70
9, 143808, Note_off_c, 7, 67, 0
9, 143808, Note_on_c, 7, 65, 70
9, 144000, Note_off_c, 7, 65, 0
9, 144000, Note_on_c, 7, 63, 70
9, 144000, Note_on_c, 7, 67, 70
9, 144384, Note_off_c, 7, 63, 0
9, 144384, Note_off_c, 7, 67, 0
9, 144384, Note_on_c, 7, 65, 70
9, 144576, Note_off_c, 7, 65, 0
9, 144576, Note_on_c, 7, 63, 70
9, 144768, Note_off_c, 7, 63, 0
9, 144768, Note_on_c, 7, 74, 70
9, 144960, Note_off_c, 7, 74, 0
9, 144960, Note_on_c, 7, 75, 70
9, 145152, Note_off_c, 7, 75, 0
9, 145152, Note_on_c, 7, 67, 70
9, 145920, Note_off_c, 7, 67, 0
9, 145920, Note_on_c, 7, 63, 70
9, 146112, Note_off_c, 7, 63, 0
9, 146112, Note_on_c, 7, 65, 70
9, 146304, Note_off_c, 7, 65, 0
9, 146304, Note_on_c, 7, 74, 70
9, 146496, Note_off_c, 7, 74, 0
9, 146496, Note_on_c, 7, 75, 70
9, 146688, Note_off_c, 7, 75, 0
9, 146688, Note_on_c, 7, 65, 70
9, 147072, Note_off_c, 7, 65, 0
9, 147072, Note_on_c, 7, 63, 70
9, 147264, Note_off_c, 7, 63, 0
9, 147264, Note_on_c, 7, 60, 70
9, 147264, Note_on_c, 7, 63, 70
9, 147456, Note_off_c, 7, 60, 0
9, 147456, Note_off_c, 7, 63, 0
9, 147456, Note_on_c, 7, 65, 70
9, 147504, Note_off_c, 7, 65, 0
9, 147504, Note_on_c, 7, 63, 70
9, 147552, Note_off_c, 7, 63, 0
9, 147552, Note_on_c, 7, 65, 70
9, 147600, Note_off_c, 7, 65, 0
9, 147600, Note_on_c, 7, 63, 70
9, 147648, Note_off_c, 7, 63, 0
9, 147648, Note_on_c, 7, 65, 70
9, 147696, Note_off_c, 7, 65, 0
9, 147696, Note_on_c, 7, 63, 70
9, 147840, Note_off_c, 7, 63, 0
9, 147840, Note_on_c, 7, 62, 70
9, 148032, Note_off_c, 7, 62, 0
9, 148032, Note_on_c, 7, 65, 70
9, 148416, Note_off_c, 7, 65, 0
9, 148416, Note_on_c, 7, 68, 70
9, 148608, Note_off_c, 7, 68, 0
9, 148608, Note_on_c, 7, 62, 70
9, 148992, Note_off_c, 7, 62, 0
9, 148992, Note_on_c, 7, 62, 70
9, 149184, Note_off_c, 7, 62, 0
9, 149184, Note_on_c, 7, 62, 70
9, 149568, Note_off_c, 7, 62, 0
9, 149568, Note_on_c, 7, 62, 70
9, 149760, Note_off_c, 7, 62, 0
9, 149760, Note_on_c, 7, 60, 70
9, 150144, Note_off_c, 7, 60, 0
9, 150144, Note_on_c, 7, 65, 70
9, 150336, Note_off_c, 7, 65, 0
9, 150336, Note_on_c, 7, 67, 70
9, 150912, Note_off_c, 7, 67, 0
9, 150912, Note_on_c, 7, 65, 70
9, 151296, Note_off_c, 7, 65, 0
9, 151296, Note_on_c, 7, 65, 70
9, 151488, Note_off_c, 7, 65, 0
9, 151488, Note_on_c, 7, 60, 70
9, 152064, Note_off_c, 7, 60, 0
9, 152448, Note_on_c, 7, 65, 70
9, 152640, Note_off_c, 7, 65, 0
9, 152640, Note_on_c, 7, 63, 70
9, 152832, Note_off_c, 7, 63, 0
9, 152832, Note_on_c, 7, 62, 70
9, 153024, Note_off_c, 7, 62, 0
9, 153024, Note_on_c, 7, 63, 70
9, 153216, Note_off_c, 7, 63, 0
9, 156672, Note_on_c, 7, 57, 70
9, 156864, Note_off_c, 7, 57, 0
9, 156864, Note_on_c, 7, 60, 70
9, 157056, Note_off_c, 7, 60, 0
9, 157056, Note_on_c, 7, 62, 70
9, 157248, Note_off_c, 7, 62, 0
9, 157248, Note_on_c, 7, 57, 70
9, 157440, Note_off_c, 7, 57, 0
9, 157440, Note_on_c, 7, 58, 70
9, 157632, Note_off_c, 7, 58, 0
9, 157632, Note_on_c, 7, 62, 70
9, 157824, Note_off_c, 7, 62, 0
9, 157824, Note_on_c, 7, 63, 70
9, 158016, Note_off_c, 7, 63, 0
9, 158016, Note_on_c, 7, 65, 70
9, 158208, Note_off_c, 7, 65, 0
9, 158208, Note_on_c, 7, 58, 70
9, 158400, Note_off_c, 7, 58, 0
9, 158400, Note_on_c, 7, 58, 70
9, 158592, Note_off_c, 7, 58, 0
9, 158592, Note_on_c, 7, 57, 70
9, 158976, Note_off_c, 7, 57, 0
9, 159552, Note_on_c, 7, 62, 70
9, 160128, Note_off_c, 7, 62, 0
9, 160128, Note_on_c, 7, 63, 70
9, 160704, Note_off_c, 7, 63, 0
9, 160704, Note_on_c, 7, 62, 70
9, 161280, Note_off_c, 7, 62, 0
9, 161280, Note_on_c, 7, 63, 70
9, 161664, Note_off_c, 7, 63, 0
9, 161664, Note_on_c, 7, 67, 70
9, 161856, Note_off_c, 7, 67, 0
9, 161856, Note_on_c, 7, 65, 70
9, 162048, Note_off_c, 7, 65, 0
9, 162240, Note_on_c, 7, 65, 70
9, 162432, Note_off_c, 7, 65, 0
9, 162432, Note_on_c, 7, 63, 70
9, 162624, Note_off_c, 7, 63, 0
9, 162816, Note_on_c, 7, 63, 70
9, 163008, Note_off_c, 7, 63, 0
9, 163008, Note_on_c, 7, 63, 70
9, 163200, Note_off_c, 7, 63, 0
9, 163392, Note_on_c, 7, 63, 70
9, 163584, Note_off_c, 7, 63, 0
9, 164160, Note_on_c, 7, 62, 88
9, 164544, Note_off_c, 7, 62, 0
9, 164544, Note_on_c, 7, 60, 88
9, 164736, Note_off_c, 7, 60, 0
9, 164736, Note_on_c, 7, 58, 88
9, 165120, Note_off_c, 7, 58, 0
9, 165120, Note_on_c, 7, 60, 88
9, 165312, Note_off_c, 7, 60, 0
9, 165312, Note_on_c, 7, 62, 88
9, 165504, Note_off_c, 7, 62, 0
9, 165504, Note_on_c, 7, 63, 88
9, 165696, Note_off_c, 7, 63, 0
9, 165696, Note_on_c, 7, 63, 88
9, 165888, Note_off_c, 7, 63, 0
9, 165888, Note_on_c, 7, 65, 106
9, 166656, Note_off_c, 7, 65, 0
9, 166656, Note_on_c, 7, 65, 106
9, 166848, Note_off_c, 7, 65, 0
9, 166848, Note_on_c, 7, 67, 106
9, 167040, Note_off_c, 7, 67, 0
9, 167040, Note_on_c, 7, 63, 106
9, 167808, Note_off_c, 7, 63, 0
9, 167808, Note_on_c, 7, 60, 106
9, 168000, Note_off_c, 7, 60, 0
9, 168000, Note_on_c, 7, 62, 106
9, 168192, Note_off_c, 7, 62, 0
9, 168192, Note_on_c, 7, 65, 106
9, 168960, Note_off_c, 7, 65, 0
9, 168960, Note_on_c, 7, 65, 106
9, 169152, Note_off_c, 7, 65, 0
9, 169152, Note_on_c, 7, 67, 106
9, 169344, Note_off_c, 7, 67, 0
9, 169344, Note_on_c, 7, 63, 106
9, 170112, Note_off_c, 7, 63, 0
9, 170112, Note_on_c, 7, 60, 106
9, 170304, Note_off_c, 7, 60, 0
9, 170304, Note_on_c, 7, 62, 106
9, 170496, Note_off_c, 7, 62, 0
9, 170496, Note_on_c, 7, 62, 106
9, 171264, Note_off_c, 7, 62, 0
9, 171264, Note_on_c, 7, 58, 106
9, 171456, Note_off_c, 7, 58, 0
9, 171456, Note_on_c, 7, 60, 106
9, 171648, Note_off_c, 7, 60, 0
9, 171648, Note_on_c, 7, 69, 106
9, 171840, Note_off_c, 7, 69, 0
9, 171840, Note_on_c, 7, 70, 106
9, 172032, Note_off_c, 7, 70, 0
9, 172032, Note_on_c, 7, 60, 106
9, 172224, Note_on_c, 7, 63, 106
9, 172416, Note_off_c, 7, 60, 0
9, 172416, Note_off_c, 7, 63, 0
9, 172416, Note_on_c, 7, 58, 106
9, 172608, Note_off_c, 7, 58, 0
9, 172608, Note_on_c, 7, 58, 106
9, 172800, Note_off_c, 7, 58, 0
9, 172800, Note_on_c, 7, 60, 106
9, 172848, Note_off_c, 7, 60, 0
9, 172848, Note_on_c, 7, 58, 106
9, 172896, Note_off_c, 7, 58, 0
9, 172896, Note_on_c, 7, 60, 106
9, 172944, Note_off_c, 7, 60, 0
9, 172944, Note_on_c, 7, 58, 106
9, 172992, Note_off_c, 7, 58, 0
9, 172992, Note_on_c, 7, 60, 106
9, 173040, Note_off_c, 7, 60, 0
9, 173040, Note_on_c, 7, 58, 106
9, 173184, Note_off_c, 7, 58, 0
9, 173184, Note_on_c, 7, 57, 106
9, 173376, Note_off_c, 7, 57, 0
9, 173376, Note_on_c, 7, 69, 106
9, 173568, Note_off_c, 7, 69, 0
9, 173568, Note_on_c, 7, 72, 106
9, 173760, Note_off_c, 7, 72, 0
9, 173760, Note_on_c, 7, 69, 106
9, 173952, Note_off_c, 7, 69, 0
9, 173952, Note_on_c, 7, 65, 106
9, 174144, Note_off_c, 7, 65, 0
9, 174144, Note_on_c, 7, 69, 106
9, 174336, Note_off_c, 7, 69, 0
9, 174336, Note_on_c, 7, 60, 106
9, 174528, Note_off_c, 7, 60, 0
9, 174528, Note_on_c, 7, 69, 106
9, 174720, Note_off_c, 7, 69, 0
9, 174720, Note_on_c, 7, 72, 106
9, 174912, Note_off_c, 7, 72, 0
9, 174912, Note_on_c, 7, 75, 106
9, 175104, Note_off_c, 7, 75, 0
9, 175104, Note_on_c, 7, 60, 106
9, 175296, Note_off_c, 7, 60, 0
9, 175296, Note_on_c, 7, 65, 106
9, 175488, Note_off_c, 7, 65, 0
9, 175488, Note_on_c, 7, 57, 106
9, 175680, Note_off_c, 7, 57, 0
9, 175680, Note_on_c, 7, 65, 106
9, 176256, Note_off_c, 7, 65, 0
9, 176256, Note_on_c, 7, 62, 106
9, 176448, Note_off_c, 7, 62, 0
9, 176448, Note_on_c, 7, 65, 106
9, 176640, Note_off_c, 7, 65, 0
9, 176640, Note_on_c, 7, 62, 106
9, 176832, Note_off_c, 7, 62, 0
9, 176832, Note_on_c, 7, 65, 106
9, 177408, Note_off_c, 7, 65, 0
9, 177408, Note_on_c, 7, 62, 106
9, 177600, Note_off_c, 7, 62, 0
9, 177600, Note_on_c, 7, 62, 106
9, 177792, Note_off_c, 7, 62, 0
9, 177792, Note_on_c, 7, 58, 106
9, 177792, Note_on_c, 7, 62, 106
9, 177984, Note_off_c, 7, 58, 0
9, 177984, Note_off_c, 7, 62, 0
9, 177984, Note_on_c, 7, 58, 106
9, 177984, Note_on_c, 7, 63, 106
9, 178368, Note_off_c, 7, 58, 0
9, 178368, Note_off_c, 7, 63, 0
9, 178560, Note_on_c, 7, 58, 106
9, 178944, Note_off_c, 7, 58, 0
9, 179136, Note_on_c, 7, 57, 106
9, 179520, Note_off_c, 7, 57, 0
9, 179712, Note_on_c, 7, 70, 106
9, 180288, Note_off_c, 7, 70, 0
9, 180288, Note_on_c, 7, 60, 106
9, 180864, Note_off_c, 7, 60, 0
9, 180864, Note_on_c, 7, 60, 106
9, 181440, Note_off_c, 7, 60, 0
9, 181440, Note_on_c, 7, 60, 106
9, 182016, Note_off_c, 7, 60, 0
9, 182016, Note_on_c, 7, 60, 106
9, 182208, Note_off_c, 7, 60, 0
9, 182208, Note_on_c, 7, 60, 106
9, 182208, Note_on_c, 7, 63, 106
9, 182400, Note_off_c, 7, 60, 0
9, 182400, Note_off_c, 7, 63, 0
9, 182400, Note_on_c, 7, 58, 106
9, 182400, Note_on_c, 7, 62, 106
9, 182592, Note_off_c, 7, 58, 0
9, 182592, Note_off_c, 7, 62, 0
9, 182592, Note_on_c, 7, 58, 106
9, 182976, Note_off_c, 7, 58, 0
9, 182976, Note_on_c, 7, 58, 106
9, 183360, Note_off_c, 7, 58, 0
9, 183360, Note_on_c, 7, 62, 106
9, 183552, Note_off_c, 7, 62, 0
9, 183552, Note_on_c, 7, 58, 106
9, 183744, Note_off_c, 7, 58, 0
9, 183744, Note_on_c, 7, 60, 106
9, 183936, Note_off_c, 7, 60, 0
9, 183936, Note_on_c, 7, 58, 106
9, 183984, Note_off_c, 7, 58, 0
9, 183984, Note_on_c, 7, 57, 106
9, 184032, Note_off_c, 7, 57, 0
9, 184032, Note_on_c, 7, 58, 106
9, 184080, Note_off_c, 7, 58, 0
9, 184080, Note_on_c, 7, 57, 106
9, 184128, Note_off_c, 7, 57, 0
9, 184128, Note_on_c, 7, 58, 106
9, 184176, Note_off_c, 7, 58, 0
9, 184176, Note_on_c, 7, 57, 106
9, 184320, Note_off_c, 7, 57, 0
9, 184320, Note_on_c, 7, 58, 106
9, 184704, Note_off_c, 7, 58, 0
9, 184704, End_track
10, 0, Start_track
10, 0, Title_t, "Bassoons"
10, 0, Control_c, 8, 0, 0
10, 0, Program_c, 8, 70
10, 0, Control_c, 8, 10, 105
10, 0, Key_signature, -2, "major"
10, 0, Control_c, 8, 121, 0
10, 0, Control_c, 8, 7, 127
10, 0, Note_on_c, 8, 46, 63
10, 384, Note_off_c, 8, 46, 0
10, 384, Note_on_c, 8, 58, 63
10, 576, Note_off_c, 8, 58, 0
10, 576, Note_on_c, 8, 58, 63
10, 576, Note_on_c, 8, 58, 63
10, 960, Note_off_c, 8, 58, 0
10, 960, Note_off_c, 8, 58, 0
10, 960, Note_on_c, 8, 46, 63
10, 1152, Note_off_c, 8, 46, 0
10, 1152, Note_on_c, 8, 46, 63
10, 1536, Note_off_c, 8, 46, 0
10, 1536, Note_on_c, 8, 58, 63
10, 1728, Note_off_c, 8, 58, 0
10, 1728, Note_on_c, 8, 58, 63
10, 2112, Note_off_c, 8, 58, 0
10, 2112, Note_on_c, 8, 46, 63
10, 2112, Note_on_c, 8, 60, 63
10, 2304, Note_off_c, 8, 46, 0
10, 2304, Note_off_c, 8, 60, 0
10, 2304, Note_on_c, 8, 46, 63
10, 2304, Note_on_c, 8, 62, 63
10, 2688, Note_off_c, 8, 46, 0
10, 2688, Note_on_c, 8, 58, 63
10, 2880, Note_off_c, 8, 58, 0
10, 2880, Note_on_c, 8, 57, 63
10, 3072, Note_off_c, 8, 62, 0
10, 3072, Note_on_c, 8, 62, 63
10, 3264, Note_off_c, 8, 57, 0
10, 3264, Note_off_c, 8, 62, 0
10, 3264, Note_on_c, 8, 45, 63
10, 3264, Note_on_c, 8, 63, 63
10, 3456, Note_off_c, 8, 45, 0
10, 3456, Note_on_c, 8, 43, 63
10, 3840, Note_off_c, 8, 63, 0
10, 3840, Note_off_c, 8, 43, 0
10, 3840, Note_on_c, 8, 55, 63
10, 4032, Note_off_c, 8, 55, 0
10, 4032, Note_on_c, 8, 55, 63
10, 4032, Note_on_c, 8, 62, 63
10, 4224, Note_off_c, 8, 62, 0
10, 4224, Note_on_c, 8, 58, 63
10, 4416, Note_off_c, 8, 55, 0
10, 4416, Note_off_c, 8, 58, 0
10, 4416, Note_on_c, 8, 43, 63
10, 4416, Note_on_c, 8, 60, 63
10, 4608, Note_off_c, 8, 43, 0
10, 4608, Note_off_c, 8, 60, 0
10, 4608, Note_on_c, 8, 41, 63
10, 4608, Note_on_c, 8, 53, 63
10, 4992, Note_off_c, 8, 41, 0
10, 4992, Note_on_c, 8, 53, 63
10, 5184, Note_off_c, 8, 53, 0
10, 5184, Note_off_c, 8, 53, 0
10, 5184, Note_on_c, 8, 53, 63
10, 5568, Note_off_c, 8, 53, 0
10, 5568, Note_on_c, 8, 41, 63
10, 5760, Note_off_c, 8, 41, 0
10, 5760, Note_on_c, 8, 39, 63
10, 6144, Note_off_c, 8, 39, 0
10, 6144, Note_on_c, 8, 41, 63
10, 6144, Note_on_c, 8, 60, 63
10, 6336, Note_off_c, 8, 41, 0
10, 6336, Note_on_c, 8, 43, 63
10, 6528, Note_off_c, 8, 60, 0
10, 6528, Note_on_c, 8, 58, 63
10, 6720, Note_off_c, 8, 43, 0
10, 6720, Note_off_c, 8, 58, 0
10, 6720, Note_on_c, 8, 39, 63
10, 6720, Note_on_c, 8, 55, 63
10, 6912, Note_off_c, 8, 39, 0
10, 6912, Note_off_c, 8, 55, 0
10, 6912, Note_on_c, 8, 41, 63
10, 6912, Note_on_c, 8, 53, 63
10, 6912, Note_on_c, 8, 58, 63
10, 7296, Note_off_c, 8, 53, 0
10, 7296, Note_off_c, 8, 58, 0
10, 7296, Note_on_c, 8, 53, 63
10, 7296, Note_on_c, 8, 57, 63
10, 7488, Note_off_c, 8, 41, 0
10, 7488, Note_on_c, 8, 41, 63
10, 7680, Note_off_c, 8, 53, 0
10, 7680, Note_off_c, 8, 57, 0
10, 7680, Note_off_c, 8, 41, 0
10, 7680, Note_on_c, 8, 45, 63
10, 7872, Note_off_c, 8, 45, 0
10, 7872, Note_on_c, 8, 48, 63
10, 8064, Note_off_c, 8, 48, 0
10, 8064, Note_on_c, 8, 51, 63
10, 8448, Note_off_c, 8, 51, 0
10, 8640, Note_on_c, 8, 53, 63
10, 8640, Note_on_c, 8, 57, 63
10, 8832, Note_off_c, 8, 53, 0
10, 8832, Note_off_c, 8, 57, 0
10, 8832, Note_on_c, 8, 57, 63
10, 8832, Note_on_c, 8, 62, 63
10, 9024, Note_off_c, 8, 57, 0
10, 9024, Note_off_c, 8, 62, 0
10, 9024, Note_on_c, 8, 60, 63
10, 9024, Note_on_c, 8, 65, 63
10, 9216, Note_off_c, 8, 60, 0
10, 9216, Note_off_c, 8, 65, 0
10, 9216, Note_on_c, 8, 51, 63
10, 9216, Note_on_c, 8, 53, 63
10, 9408, Note_off_c, 8, 53, 0
10, 9408, Note_on_c, 8, 60, 63
10, 9600, Note_off_c, 8, 60, 0
10, 9600, Note_on_c, 8, 57, 63
10, 9792, Note_off_c, 8, 51, 0
10, 9792, Note_off_c, 8, 57, 0
10, 9792, Note_on_c, 8, 46, 63
10, 9792, Note_on_c, 8, 53, 63
10, 9984, Note_off_c, 8, 46, 0
10, 9984, Note_on_c, 8, 50, 63
10, 10176, Note_off_c, 8, 50, 0
10, 10176, Note_on_c, 8, 53, 63
10, 10368, Note_off_c, 8, 53, 0
10, 10368, Note_off_c, 8, 53, 0
10, 10368, Note_on_c, 8, 56, 63
10, 10368, Note_on_c, 8, 58, 63
10, 10752, Note_off_c, 8, 56, 0
10, 10752, Note_off_c, 8, 58, 0
10, 10752, Note_on_c, 8, 58, 63
10, 10944, Note_off_c, 8, 58, 0
10, 10944, Note_on_c, 8, 58, 63
10, 11520, Note_on_c, 8, 56, 63
10, 11712, Note_off_c, 8, 58, 0
10, 11712, Note_on_c, 8, 62, 63
10, 11904, Note_off_c, 8, 62, 0
10, 11904, Note_on_c, 8, 58, 63
10, 12096, Note_off_c, 8, 56, 0
10, 12096, Note_off_c, 8, 58, 0
10, 12096, Note_on_c, 8, 51, 63
10, 12096, Note_on_c, 8, 58, 63
10, 12288, Note_off_c, 8, 51, 0
10, 12288, Note_off_c, 8, 58, 0
10, 12288, Note_on_c, 8, 53, 63
10, 12480, Note_off_c, 8, 53, 0
10, 12480, Note_on_c, 8, 51, 63
10, 12672, Note_off_c, 8, 51, 0
10, 12672, Note_on_c, 8, 50, 63
10, 12672, Note_on_c, 8, 58, 63
10, 12864, Note_off_c, 8, 50, 0
10, 12864, Note_off_c, 8, 58, 0
10, 12864, Note_on_c, 8, 51, 63
10, 13056, Note_off_c, 8, 51, 0
10, 13056, Note_on_c, 8, 50, 63
10, 13248, Note_off_c, 8, 50, 0
10, 13248, Note_on_c, 8, 48, 63
10, 13248, Note_on_c, 8, 58, 63
10, 13440, Note_off_c, 8, 48, 0
10, 13440, Note_off_c, 8, 58, 0
10, 13440, Note_on_c, 8, 50, 63
10, 13632, Note_off_c, 8, 50, 0
10, 13632, Note_on_c, 8, 48, 63
10, 13824, Note_off_c, 8, 48, 0
10, 13824, Note_on_c, 8, 46, 66
10, 14016, Note_off_c, 8, 46, 0
10, 14016, Note_on_c, 8, 55, 69
10, 14016, Note_on_c, 8, 58, 77
10, 14208, Note_off_c, 8, 55, 0
10, 14208, Note_off_c, 8, 58, 0
10, 14208, Note_on_c, 8, 53, 73
10, 14208, Note_on_c, 8, 62, 77
10, 14400, Note_off_c, 8, 53, 0
10, 14400, Note_off_c, 8, 62, 0
10, 14400, Note_on_c, 8, 52, 77
10, 14400, Note_on_c, 8, 55, 77
10, 14592, Note_off_c, 8, 52, 0
10, 14592, Note_off_c, 8, 55, 0
10, 14592, Note_on_c, 8, 40, 77
10, 14784, Note_off_c, 8, 40, 0
10, 14784, Note_on_c, 8, 52, 77
10, 14784, Note_on_c, 8, 55, 77
10, 14976, Note_off_c, 8, 52, 0
10, 14976, Note_off_c, 8, 55, 0
10, 14976, Note_on_c, 8, 53, 77
10, 14976, Note_on_c, 8, 57, 77
10, 15168, Note_off_c, 8, 53, 0
10, 15168, Note_off_c, 8, 57, 0
10, 15168, Note_on_c, 8, 41, 77
10, 15360, Note_off_c, 8, 41, 0
10, 15360, Note_on_c, 8, 53, 77
10, 15360, Note_on_c, 8, 57, 77
10, 15552, Note_off_c, 8, 53, 0
10, 15552, Note_off_c, 8, 57, 0
10, 15552, Note_on_c, 8, 55, 77
10, 15552, Note_on_c, 8, 58, 77
10, 15744, Note_off_c, 8, 55, 0
10, 15744, Note_off_c, 8, 58, 0
10, 15744, Note_on_c, 8, 43, 77
10, 15936, Note_off_c, 8, 43, 0
10, 15936, Note_on_c, 8, 55, 77
10, 15936, Note_on_c, 8, 58, 77
10, 16128, Note_off_c, 8, 55, 0
10, 16128, Note_off_c, 8, 58, 0
10, 16128, Note_on_c, 8, 53, 77
10, 16128, Note_on_c, 8, 57, 77
10, 16320, Note_off_c, 8, 57, 0
10, 16320, Note_on_c, 8, 60, 77
10, 16320, Note_on_c, 8, 63, 77
10, 16512, Note_off_c, 8, 53, 0
10, 16512, Note_off_c, 8, 60, 0
10, 16512, Note_off_c, 8, 63, 0
10, 16512, Note_on_c, 8, 53, 77
10, 16512, Note_on_c, 8, 58, 77
10, 16512, Note_on_c, 8, 62, 77
10, 16704, Note_off_c, 8, 53, 0
10, 16704, Note_off_c, 8, 58, 0
10, 16704, Note_off_c, 8, 62, 0
10, 16704, Note_on_c, 8, 51, 77
10, 16896, Note_off_c, 8, 51, 0
10, 16896, Note_on_c, 8, 55, 77
10, 17088, Note_off_c, 8, 55, 0
10, 17088, Note_on_c, 8, 53, 77
10, 17280, Note_off_c, 8, 53, 0
10, 17280, Note_on_c, 8, 51, 77
10, 17472, Note_off_c, 8, 51, 0
10, 17472, Note_on_c, 8, 50, 77
10, 17664, Note_off_c, 8, 50, 0
10, 17664, Note_on_c, 8, 55, 77
10, 17856, Note_off_c, 8, 55, 0
10, 17856, Note_on_c, 8, 51, 77
10, 17856, Note_on_c, 8, 55, 77
10, 18048, Note_off_c, 8, 51, 0
10, 18048, Note_off_c, 8, 55, 0
10, 18048, Note_on_c, 8, 53, 77
10, 18240, Note_off_c, 8, 53, 0
10, 18240, Note_on_c, 8, 41, 77
10, 18240, Note_on_c, 8, 51, 77
10, 18432, Note_off_c, 8, 41, 0
10, 18432, Note_off_c, 8, 51, 0
10, 18432, Note_on_c, 8, 46, 77
10, 18432, Note_on_c, 8, 50, 77
10, 18816, Note_off_c, 8, 46, 0
10, 18816, Note_off_c, 8, 50, 0
10, 18816, Note_on_c, 8, 46, 77
10, 18816, Note_on_c, 8, 51, 77
10, 19008, Note_off_c, 8, 46, 0
10, 19008, Note_off_c, 8, 51, 0
10, 19008, Note_on_c, 8, 46, 63
10, 19008, Note_on_c, 8, 53, 63
10, 19392, Note_off_c, 8, 46, 0
10, 19392, Note_off_c, 8, 53, 0
10, 19392, Note_on_c, 8, 46, 63
10, 19392, Note_on_c, 8, 57, 63
10, 19584, Note_off_c, 8, 46, 0
10, 19584, Note_off_c, 8, 57, 0
10, 19584, Note_on_c, 8, 46, 63
10, 19584, Note_on_c, 8, 58, 63
10, 19968, Note_off_c, 8, 46, 0
10, 19968, Note_off_c, 8, 58, 0
10, 19968, Note_on_c, 8, 57, 63
10, 20160, Note_off_c, 8, 57, 0
10, 20160, Note_on_c, 8, 58, 63
10, 20544, Note_off_c, 8, 58, 0
10, 20544, Note_on_c, 8, 46, 63
10, 20736, Note_off_c, 8, 46, 0
10, 20736, Note_on_c, 8, 46, 63
10, 21120, Note_off_c, 8, 46, 0
10, 21120, Note_on_c, 8, 58, 63
10, 21312, Note_off_c, 8, 58, 0
10, 21312, Note_on_c, 8, 58, 63
10, 21696, Note_off_c, 8, 58, 0
10, 21696, Note_on_c, 8, 46, 63
10, 21888, Note_off_c, 8, 46, 0
10, 21888, Note_on_c, 8, 46, 63
10, 22464, Note_off_c, 8, 46, 0
10, 22464, Note_on_c, 8, 62, 63
10, 22656, Note_off_c, 8, 62, 0
10, 22656, Note_on_c, 8, 60, 63
10, 22848, Note_off_c, 8, 60, 0
10, 22848, Note_on_c, 8, 50, 63
10, 22848, Note_on_c, 8, 58, 63
10, 23040, Note_off_c, 8, 50, 0
10, 23040, Note_off_c, 8, 58, 0
10, 23040, Note_on_c, 8, 51, 63
10, 23040, Note_on_c, 8, 58, 63
10, 23424, Note_off_c, 8, 51, 0
10, 23424, Note_on_c, 8, 51, 63
10, 23616, Note_off_c, 8, 58, 0
10, 23616, Note_off_c, 8, 51, 0
10, 23616, Note_on_c, 8, 51, 63
10, 24000, Note_off_c, 8, 51, 0
10, 24000, Note_on_c, 8, 39, 63
10, 24192, Note_off_c, 8, 39, 0
10, 24192, Note_on_c, 8, 41, 63
10, 24192, Note_on_c, 8, 41, 63
10, 24576, Note_off_c, 8, 41, 0
10, 24576, Note_off_c, 8, 41, 0
10, 24576, Note_on_c, 8, 53, 63
10, 24576, Note_on_c, 8, 53, 63
10, 24768, Note_off_c, 8, 53, 0
10, 24768, Note_off_c, 8, 53, 0
10, 24768, Note_on_c, 8, 53, 63
10, 24768, Note_on_c, 8, 53, 63
10, 25152, Note_off_c, 8, 53, 0
10, 25152, Note_off_c, 8, 53, 0
10, 25152, Note_on_c, 8, 41, 63
10, 25152, Note_on_c, 8, 53, 63
10, 25344, Note_off_c, 8, 41, 0
10, 25344, Note_off_c, 8, 53, 0
10, 25344, Note_on_c, 8, 46, 63
10, 25344, Note_on_c, 8, 53, 63
10, 25728, Note_off_c, 8, 46, 0
10, 25728, Note_off_c, 8, 53, 0
10, 25728, Note_on_c, 8, 58, 63
10, 25920, Note_off_c, 8, 58, 0
10, 25920, Note_on_c, 8, 58, 50
10, 26304, Note_off_c, 8, 58, 0
10, 26304, Note_on_c, 8, 46, 50
10, 26304, Note_on_c, 8, 57, 50
10, 26496, Note_off_c, 8, 46, 0
10, 26496, Note_off_c, 8, 57, 0
10, 26496, Note_on_c, 8, 46, 50
10, 26496, Note_on_c, 8, 53, 50
10, 26880, Note_off_c, 8, 46, 0
10, 26880, Note_off_c, 8, 53, 0
10, 26880, Note_on_c, 8, 58, 50
10, 27072, Note_off_c, 8, 58, 0
10, 27072, Note_on_c, 8, 58, 50
10, 27456, Note_off_c, 8, 58, 0
10, 27456, Note_on_c, 8, 46, 50
10, 27648, Note_off_c, 8, 46, 0
10, 27648, Note_on_c, 8, 46, 50
10, 27648, Note_on_c, 8, 53, 50
10, 28032, Note_off_c, 8, 46, 0
10, 28032, Note_off_c, 8, 53, 0
10, 28032, Note_on_c, 8, 58, 50
10, 28224, Note_off_c, 8, 58, 0
10, 28224, Note_on_c, 8, 57, 50
10, 28608, Note_off_c, 8, 57, 0
10, 28608, Note_on_c, 8, 45, 50
10, 28800, Note_off_c, 8, 45, 0
10, 28800, Note_on_c, 8, 43, 50
10, 29184, Note_off_c, 8, 43, 0
10, 29184, Note_on_c, 8, 55, 50
10, 29376, Note_off_c, 8, 55, 0
10, 29376, Note_on_c, 8, 55, 50
10, 29760, Note_off_c, 8, 55, 0
10, 29760, Note_on_c, 8, 43, 50
10, 29952, Note_off_c, 8, 43, 0
10, 29952, Note_on_c, 8, 41, 50
10, 30336, Note_off_c, 8, 41, 0
10, 30336, Note_on_c, 8, 53, 50
10, 30528, Note_off_c, 8, 53, 0
10, 30528, Note_on_c, 8, 53, 50
10, 30912, Note_off_c, 8, 53, 0
10, 30912, Note_on_c, 8, 41, 50
10, 31104, Note_off_c, 8, 41, 0
10, 31104, Note_on_c, 8, 39, 50
10, 31488, Note_off_c, 8, 39, 0
10, 31488, Note_on_c, 8, 41, 50
10, 31680, Note_off_c, 8, 41, 0
10, 31680, Note_on_c, 8, 43, 50
10, 32064, Note_off_c, 8, 43, 0
10, 32064, Note_on_c, 8, 39, 50
10, 32256, Note_off_c, 8, 39, 0
10, 32256, Note_on_c, 8, 41, 50
10, 32640, Note_off_c, 8, 41, 0
10, 32640, Note_on_c, 8, 53, 50
10, 32832, Note_off_c, 8, 53, 0
10, 32832, Note_on_c, 8, 53, 77
10, 32832, Note_on_c, 8, 53, 77
10, 33024, Note_off_c, 8, 53, 0
10, 33024, Note_on_c, 8, 57, 77
10, 33216, Note_off_c, 8, 53, 0
10, 33216, Note_off_c, 8, 57, 0
10, 33216, Note_on_c, 8, 53, 77
10, 33216, Note_on_c, 8, 58, 77
10, 33408, Note_off_c, 8, 53, 0
10, 33408, Note_off_c, 8, 58, 0
10, 33408, Note_on_c, 8, 51, 77
10, 33408, Note_on_c, 8, 60, 77
10, 33792, Note_off_c, 8, 51, 0
10, 33792, Note_on_c, 8, 51, 77
10, 33984, Note_off_c, 8, 51, 0
10, 33984, Note_on_c, 8, 51, 77
10, 34368, Note_off_c, 8, 60, 0
10, 34368, Note_off_c, 8, 51, 0
10, 34368, Note_on_c, 8, 51, 77
10, 34368, Note_on_c, 8, 57, 77
10, 34560, Note_off_c, 8, 51, 0
10, 34560, Note_off_c, 8, 57, 0
10, 34560, Note_on_c, 8, 50, 77
10, 34560, Note_on_c, 8, 53, 77
10, 34944, Note_off_c, 8, 50, 0
10, 34944, Note_on_c, 8, 50, 77
10, 35136, Note_off_c, 8, 53, 0
10, 35136, Note_off_c, 8, 50, 0
10, 35136, Note_on_c, 8, 50, 50
10, 35136, Note_on_c, 8, 53, 50
10, 35520, Note_off_c, 8, 50, 0
10, 35520, Note_off_c, 8, 53, 0
10, 35520, Note_on_c, 8, 50, 50
10, 35520, Note_on_c, 8, 58, 50
10, 35712, Note_off_c, 8, 50, 0
10, 35712, Note_off_c, 8, 58, 0
10, 35712, Note_on_c, 8, 48, 50
10, 35712, Note_on_c, 8, 60, 50
10, 35904, Note_off_c, 8, 60, 0
10, 35904, Note_on_c, 8, 62, 50
10, 36096, Note_off_c, 8, 48, 0
10, 36096, Note_off_c, 8, 62, 0
10, 36096, Note_on_c, 8, 60, 50
10, 36096, Note_on_c, 8, 63, 50
10, 36288, Note_off_c, 8, 60, 0
10, 36288, Note_off_c, 8, 63, 0
10, 36288, Note_on_c, 8, 60, 50
10, 36288, Note_on_c, 8, 63, 50
10, 36480, Note_off_c, 8, 63, 0
10, 36480, Note_on_c, 8, 62, 50
10, 36672, Note_off_c, 8, 60, 0
10, 36672, Note_off_c, 8, 62, 0
10, 36672, Note_on_c, 8, 48, 50
10, 36672, Note_on_c, 8, 60, 50
10, 36864, Note_off_c, 8, 48, 0
10, 36864, Note_off_c, 8, 60, 0
10, 36864, Note_on_c, 8, 46, 77
10, 37248, Note_off_c, 8, 46, 0
10, 37248, Note_on_c, 8, 58, 77
10, 37440, Note_off_c, 8, 58, 0
10, 37440, Note_on_c, 8, 58, 77
10, 37824, Note_off_c, 8, 58, 0
10, 37824, Note_on_c, 8, 46, 77
10, 38016, Note_off_c, 8, 46, 0
10, 38016, Note_on_c, 8, 44, 77
10, 38400, Note_off_c, 8, 44, 0
10, 38400, Note_on_c, 8, 56, 77
10, 38592, Note_off_c, 8, 56, 0
10, 38592, Note_on_c, 8, 56, 77
10, 38976, Note_off_c, 8, 56, 0
10, 38976, Note_on_c, 8, 44, 77
10, 39168, Note_off_c, 8, 44, 0
10, 39168, Note_on_c, 8, 43, 77
10, 39552, Note_off_c, 8, 43, 0
10, 39552, Note_on_c, 8, 55, 77
10, 39744, Note_off_c, 8, 55, 0
10, 39744, Note_on_c, 8, 55, 50
10, 40128, Note_off_c, 8, 55, 0
10, 40128, Note_on_c, 8, 43, 50
10, 40320, Note_off_c, 8, 43, 0
10, 40320, Note_on_c, 8, 41, 50
10, 40704, Note_off_c, 8, 41, 0
10, 40704, Note_on_c, 8, 53, 50
10, 40896, Note_off_c, 8, 53, 0
10, 40896, Note_on_c, 8, 53, 50
10, 41280, Note_off_c, 8, 53, 0
10, 41280, Note_on_c, 8, 41, 50
10, 41472, Note_off_c, 8, 41, 0
10, 41472, Note_on_c, 8, 39, 50
10, 41856, Note_off_c, 8, 39, 0
10, 41856, Note_on_c, 8, 51, 50
10, 42048, Note_off_c, 8, 51, 0
10, 42048, Note_on_c, 8, 50, 50
10, 42432, Note_off_c, 8, 50, 0
10, 42432, Note_on_c, 8, 38, 50
10, 42624, Note_off_c, 8, 38, 0
10, 42624, Note_on_c, 8, 36, 50
10, 43008, Note_off_c, 8, 36, 0
10, 43008, Note_on_c, 8, 60, 50
10, 43200, Note_off_c, 8, 60, 0
10, 43200, Note_on_c, 8, 60, 50
10, 43584, Note_off_c, 8, 60, 0
10, 43584, Note_on_c, 8, 48, 50
10, 43776, Note_off_c, 8, 48, 0
10, 43776, Note_on_c, 8, 46, 50
10, 44160, Note_off_c, 8, 46, 0
10, 44160, Note_on_c, 8, 58, 50
10, 44352, Note_off_c, 8, 58, 0
10, 44352, Note_on_c, 8, 58, 50
10, 44736, Note_off_c, 8, 58, 0
10, 44736, Note_on_c, 8, 46, 50
10, 44928, Note_off_c, 8, 46, 0
10, 44928, Note_on_c, 8, 44, 50
10, 45312, Note_off_c, 8, 44, 0
10, 45312, Note_on_c, 8, 46, 50
10, 45504, Note_off_c, 8, 46, 0
10, 45504, Note_on_c, 8, 48, 50
10, 45888, Note_off_c, 8, 48, 0
10, 45888, Note_on_c, 8, 44, 50
10, 46080, Note_off_c, 8, 44, 0
10, 46080, Note_on_c, 8, 46, 50
10, 46080, Note_on_c, 8, 58, 50
10, 46464, Note_off_c, 8, 46, 0
10, 46464, Note_on_c, 8, 58, 50
10, 46656, Note_off_c, 8, 58, 0
10, 46656, Note_off_c, 8, 58, 0
10, 46656, Note_on_c, 8, 56, 50
10, 47040, Note_off_c, 8, 56, 0
10, 47040, Note_on_c, 8, 44, 50
10, 47232, Note_off_c, 8, 44, 0
10, 47232, Note_on_c, 8, 43, 50
10, 47616, Note_off_c, 8, 43, 0
10, 47616, Note_on_c, 8, 55, 50
10, 47808, Note_off_c, 8, 55, 0
10, 47808, Note_on_c, 8, 55, 50
10, 47808, Note_on_c, 8, 59, 50
10, 48192, Note_off_c, 8, 55, 0
10, 48192, Note_off_c, 8, 59, 0
10, 48192, Note_on_c, 8, 43, 50
10, 48192, Note_on_c, 8, 59, 50
10, 48384, Note_off_c, 8, 43, 0
10, 48384, Note_off_c, 8, 59, 0
10, 48384, Note_on_c, 8, 48, 50
10, 48768, Note_off_c, 8, 48, 0
10, 48768, Note_on_c, 8, 60, 50
10, 48768, Note_on_c, 8, 62, 50
10, 48960, Note_off_c, 8, 60, 0
10, 48960, Note_off_c, 8, 62, 0
10, 48960, Note_on_c, 8, 60, 50
10, 48960, Note_on_c, 8, 63, 50
10, 49344, Note_off_c, 8, 60, 0
10, 49344, Note_on_c, 8, 48, 50
10, 49536, Note_off_c, 8, 63, 0
10, 49536, Note_off_c, 8, 48, 0
10, 49536, Note_on_c, 8, 41, 50
10, 49536, Note_on_c, 8, 60, 50
10, 49920, Note_off_c, 8, 41, 0
10, 49920, Note_off_c, 8, 60, 0
10, 49920, Note_on_c, 8, 53, 50
10, 49920, Note_on_c, 8, 60, 50
10, 50112, Note_off_c, 8, 53, 0
10, 50112, Note_off_c, 8, 60, 0
10, 50112, Note_on_c, 8, 53, 50
10, 50112, Note_on_c, 8, 57, 50
10, 50496, Note_off_c, 8, 53, 0
10, 50496, Note_on_c, 8, 41, 50
10, 50688, Note_off_c, 8, 57, 0
10, 50688, Note_off_c, 8, 41, 0
10, 50688, Note_on_c, 8, 46, 50
10, 50688, Note_on_c, 8, 58, 50
10, 50880, Note_off_c, 8, 46, 0
10, 50880, Note_on_c, 8, 48, 50
10, 51072, Note_off_c, 8, 48, 0
10, 51072, Note_on_c, 8, 50, 50
10, 51264, Note_off_c, 8, 50, 0
10, 51264, Note_on_c, 8, 51, 50
10, 51456, Note_off_c, 8, 51, 0
10, 51456, Note_on_c, 8, 53, 50
10, 51648, Note_off_c, 8, 53, 0
10, 51648, Note_on_c, 8, 51, 50
10, 51840, Note_off_c, 8, 51, 0
10, 51840, Note_on_c, 8, 50, 50
10, 52032, Note_off_c, 8, 50, 0
10, 52032, Note_on_c, 8, 51, 50
10, 52224, Note_off_c, 8, 51, 0
10, 52224, Note_on_c, 8, 50, 50
10, 52416, Note_off_c, 8, 58, 0
10, 52416, Note_off_c, 8, 50, 0
10, 52416, Note_on_c, 8, 48, 50
10, 52416, Note_on_c, 8, 58, 50
10, 52608, Note_off_c, 8, 48, 0
10, 52608, Note_on_c, 8, 50, 50
10, 52800, Note_off_c, 8, 58, 0
10, 52800, Note_off_c, 8, 50, 0
10, 52800, Note_on_c, 8, 48, 50
10, 52800, Note_on_c, 8, 57, 50
10, 52992, Note_off_c, 8, 48, 0
10, 52992, Note_off_c, 8, 57, 0
10, 52992, Note_on_c, 8, 46, 50
10, 52992, Note_on_c, 8, 58, 50
10, 53184, Note_off_c, 8, 46, 0
10, 53184, Note_on_c, 8, 43, 50
10, 53376, Note_off_c, 8, 43, 0
10, 53376, Note_on_c, 8, 41, 50
10, 53568, Note_off_c, 8, 41, 0
10, 53568, Note_on_c, 8, 40, 50
10, 53952, Note_off_c, 8, 40, 0
10, 53952, Note_on_c, 8, 52, 50
10, 54144, Note_off_c, 8, 52, 0
10, 54144, Note_on_c, 8, 53, 50
10, 54528, Note_off_c, 8, 53, 0
10, 54528, Note_on_c, 8, 41, 50
10, 54720, Note_off_c, 8, 41, 0
10, 54720, Note_on_c, 8, 43, 50
10, 55104, Note_off_c, 8, 43, 0
10, 55104, Note_on_c, 8, 55, 50
10, 55296, Note_off_c, 8, 58, 0
10, 55296, Note_off_c, 8, 55, 0
10, 55296, Note_on_c, 8, 53, 50
10, 55680, Note_off_c, 8, 53, 0
10, 55680, Note_on_c, 8, 41, 50
10, 55872, Note_off_c, 8, 41, 0
10, 55872, Note_on_c, 8, 39, 50
10, 56064, Note_off_c, 8, 39, 0
10, 56064, Note_on_c, 8, 55, 50
10, 56256, Note_off_c, 8, 55, 0
10, 56256, Note_on_c, 8, 53, 50
10, 56448, Note_off_c, 8, 53, 0
10, 56448, Note_on_c, 8, 51, 50
10, 56448, Note_on_c, 8, 58, 50
10, 56640, Note_off_c, 8, 51, 0
10, 56640, Note_on_c, 8, 50, 50
10, 56832, Note_off_c, 8, 50, 0
10, 56832, Note_on_c, 8, 55, 50
10, 57024, Note_off_c, 8, 58, 0
10, 57024, Note_off_c, 8, 55, 0
10, 57024, Note_on_c, 8, 51, 50
10, 57024, Note_on_c, 8, 55, 50
10, 57216, Note_off_c, 8, 51, 0
10, 57216, Note_off_c, 8, 55, 0
10, 57216, Note_on_c, 8, 53, 50
10, 57216, Note_on_c, 8, 53, 50
10, 57408, Note_off_c, 8, 53, 0
10, 57408, Note_off_c, 8, 53, 0
10, 57408, Note_on_c, 8, 41, 50
10, 57408, Note_on_c, 8, 51, 50
10, 57600, Note_off_c, 8, 41, 0
10, 57600, Note_off_c, 8, 51, 0
10, 57600, Note_on_c, 8, 46, 50
10, 57600, Note_on_c, 8, 58, 50
10, 58176, Note_off_c, 8, 46, 0
10, 58176, Note_on_c, 8, 56, 50
10, 58560, Note_off_c, 8, 56, 0
10, 58560, Note_on_c, 8, 44, 50
10, 58752, Note_off_c, 8, 44, 0
10, 58752, Note_on_c, 8, 43, 50
10, 59136, Note_off_c, 8, 43, 0
10, 59136, Note_on_c, 8, 55, 50
10, 59328, Note_off_c, 8, 55, 0
10, 59328, Note_on_c, 8, 53, 50
10, 59712, Note_off_c, 8, 53, 0
10, 59712, Note_on_c, 8, 41, 50
10, 59904, Note_off_c, 8, 41, 0
10, 59904, Note_on_c, 8, 39, 50
10, 60288, Note_off_c, 8, 58, 0
10, 60288, Note_off_c, 8, 39, 0
10, 60288, Note_on_c, 8, 51, 50
10, 60288, Note_on_c, 8, 58, 50
10, 60480, Note_off_c, 8, 51, 0
10, 60480, Note_off_c, 8, 58, 0
10, 60480, Note_on_c, 8, 50, 50
10, 60864, Note_off_c, 8, 50, 0
10, 60864, Note_on_c, 8, 38, 50
10, 61056, Note_off_c, 8, 38, 0
10, 61056, Note_on_c, 8, 36, 50
10, 61440, Note_off_c, 8, 36, 0
10, 61440, Note_on_c, 8, 48, 50
10, 61632, Note_off_c, 8, 48, 0
10, 61632, Note_on_c, 8, 46, 50
10, 62016, Note_off_c, 8, 46, 0
10, 62016, Note_on_c, 8, 43, 50
10, 62016, Note_on_c, 8, 57, 50
10, 62208, Note_off_c, 8, 43, 0
10, 62208, Note_off_c, 8, 57, 0
10, 62208, Note_on_c, 8, 45, 50
10, 62592, Note_off_c, 8, 45, 0
10, 62592, Note_on_c, 8, 41, 50
10, 62784, Note_off_c, 8, 41, 0
10, 62784, Note_on_c, 8, 43, 63
10, 62784, Note_on_c, 8, 57, 63
10, 63168, Note_off_c, 8, 43, 0
10, 63168, Note_off_c, 8, 57, 0
10, 63168, Note_on_c, 8, 45, 63
10, 63168, Note_on_c, 8, 55, 63
10, 63360, Note_off_c, 8, 45, 0
10, 63360, Note_off_c, 8, 55, 0
10, 63360, Note_on_c, 8, 46, 63
10, 63744, Note_off_c, 8, 46, 0
10, 63744, Note_on_c, 8, 51, 63
10, 63936, Note_off_c, 8, 51, 0
10, 63936, Note_on_c, 8, 53, 63
10, 64320, Note_off_c, 8, 53, 0
10, 64320, Note_on_c, 8, 41, 63
10, 64320, Note_on_c, 8, 60, 63
10, 64512, Note_off_c, 8, 41, 0
10, 64512, Note_off_c, 8, 60, 0
10, 64512, Note_on_c, 8, 46, 63
10, 64512, Note_on_c, 8, 62, 77
10, 64896, Note_off_c, 8, 46, 0
10, 64896, Note_on_c, 8, 58, 63
10, 65088, Note_off_c, 8, 58, 0
10, 65088, Note_on_c, 8, 58, 77
10, 65280, Note_off_c, 8, 62, 0
10, 65280, Note_on_c, 8, 62, 77
10, 65472, Note_off_c, 8, 58, 0
10, 65472, Note_off_c, 8, 62, 0
10, 65472, Note_on_c, 8, 46, 77
10, 65472, Note_on_c, 8, 63, 77
10, 65664, Note_off_c, 8, 46, 0
10, 65664, Note_off_c, 8, 63, 0
10, 65664, Note_on_c, 8, 46, 77
10, 66048, Note_off_c, 8, 46, 0
10, 66048, Note_on_c, 8, 58, 77
10, 66240, Note_off_c, 8, 58, 0
10, 66240, Note_on_c, 8, 58, 77
10, 66624, Note_off_c, 8, 58, 0
10, 66624, Note_on_c, 8, 46, 77
10, 66816, Note_off_c, 8, 46, 0
10, 66816, Note_on_c, 8, 46, 77
10, 66816, Note_on_c, 8, 58, 77
10, 67200, Note_off_c, 8, 46, 0
10, 67200, Note_on_c, 8, 58, 77
10, 67392, Note_off_c, 8, 58, 0
10, 67392, Note_on_c, 8, 57, 77
10, 67584, Note_off_c, 8, 58, 0
10, 67776, Note_off_c, 8, 57, 0
10, 67776, Note_on_c, 8, 45, 77
10, 67968, Note_off_c, 8, 45, 0
10, 67968, Note_on_c, 8, 43, 77
10, 68352, Note_off_c, 8, 43, 0
10, 68352, Note_on_c, 8, 55, 77
10, 68544, Note_off_c, 8, 55, 0
10, 68544, Note_on_c, 8, 55, 77
10, 68928, Note_off_c, 8, 55, 0
10, 68928, Note_on_c, 8, 43, 77
10, 69120, Note_off_c, 8, 43, 0
10, 69120, Note_on_c, 8, 41, 77
10, 69504, Note_off_c, 8, 41, 0
10, 69504, Note_on_c, 8, 53, 77
10, 69696, Note_off_c, 8, 53, 0
10, 69696, Note_on_c, 8, 53, 77
10, 70080, Note_off_c, 8, 53, 0
10, 70080, Note_on_c, 8, 41, 77
10, 70272, Note_off_c, 8, 41, 0
10, 70272, Note_on_c, 8, 39, 77
10, 70656, Note_off_c, 8, 39, 0
10, 70656, Note_on_c, 8, 41, 77
10, 70848, Note_off_c, 8, 41, 0
10, 70848, Note_on_c, 8, 43, 77
10, 71232, Note_off_c, 8, 43, 0
10, 71232, Note_on_c, 8, 39, 77
10, 71424, Note_off_c, 8, 39, 0
10, 71424, Note_on_c, 8, 41, 77
10, 72192, Note_off_c, 8, 41, 0
10, 72192, Note_on_c, 8, 45, 77
10, 72256, Note_off_c, 8, 45, 0
10, 72384, Note_on_c, 8, 48, 77
10, 72448, Note_off_c, 8, 48, 0
10, 72576, Note_on_c, 8, 51, 77
10, 72960, Note_off_c, 8, 51, 0
10, 73152, Note_on_c, 8, 41, 77
10, 73216, Note_off_c, 8, 41, 0
10, 73344, Note_on_c, 8, 45, 77
10, 73408, Note_off_c, 8, 45, 0
10, 73536, Note_on_c, 8, 48, 77
10, 73600, Note_off_c, 8, 48, 0
10, 73728, Note_on_c, 8, 51, 77
10, 74112, Note_off_c, 8, 51, 0
10, 74304, Note_on_c, 8, 46, 77
10, 74368, Note_off_c, 8, 46, 0
10, 74496, Note_on_c, 8, 50, 77
10, 74560, Note_off_c, 8, 50, 0
10, 74688, Note_on_c, 8, 53, 77
10, 74752, Note_off_c, 8, 53, 0
10, 74880, Note_on_c, 8, 56, 106
10, 75264, Note_off_c, 8, 56, 0
10, 75456, Note_on_c, 8, 46, 77
10, 75520, Note_off_c, 8, 46, 0
10, 75648, Note_on_c, 8, 50, 77
10, 75712, Note_off_c, 8, 50, 0
10, 75840, Note_on_c, 8, 53, 77
10, 75904, Note_off_c, 8, 53, 0
10, 76032, Note_on_c, 8, 56, 106
10, 76416, Note_off_c, 8, 56, 0
10, 76608, Note_on_c, 8, 51, 77
10, 76800, Note_off_c, 8, 51, 0
10, 76800, Note_on_c, 8, 53, 77
10, 76992, Note_off_c, 8, 53, 0
10, 76992, Note_on_c, 8, 51, 77
10, 77184, Note_off_c, 8, 51, 0
10, 77184, Note_on_c, 8, 50, 77
10, 77376, Note_off_c, 8, 50, 0
10, 77376, Note_on_c, 8, 51, 77
10, 77568, Note_off_c, 8, 51, 0
10, 77568, Note_on_c, 8, 50, 77
10, 77760, Note_off_c, 8, 50, 0
10, 77760, Note_on_c, 8, 48, 77
10, 77952, Note_off_c, 8, 48, 0
10, 77952, Note_on_c, 8, 50, 77
10, 78144, Note_off_c, 8, 50, 0
10, 78144, Note_on_c, 8, 48, 77
10, 78336, Note_off_c, 8, 48, 0
10, 78336, Note_on_c, 8, 46, 77
10, 78528, Note_off_c, 8, 46, 0
10, 78528, Note_on_c, 8, 43, 77
10, 78720, Note_off_c, 8, 43, 0
10, 78720, Note_on_c, 8, 41, 77
10, 78912, Note_off_c, 8, 41, 0
10, 78912, Note_on_c, 8, 40, 77
10, 79296, Note_off_c, 8, 40, 0
10, 79296, Note_on_c, 8, 52, 77
10, 79488, Note_off_c, 8, 52, 0
10, 79488, Note_on_c, 8, 53, 77
10, 79872, Note_off_c, 8, 53, 0
10, 79872, Note_on_c, 8, 41, 77
10, 80064, Note_off_c, 8, 41, 0
10, 80064, Note_on_c, 8, 43, 77
10, 80448, Note_off_c, 8, 43, 0
10, 80448, Note_on_c, 8, 55, 77
10, 80640, Note_off_c, 8, 55, 0
10, 80640, Note_on_c, 8, 53, 77
10, 81024, Note_off_c, 8, 53, 0
10, 81024, Note_on_c, 8, 41, 77
10, 81216, Note_off_c, 8, 41, 0
10, 81216, Note_on_c, 8, 39, 77
10, 81408, Note_off_c, 8, 39, 0
10, 81408, Note_on_c, 8, 55, 77
10, 81600, Note_off_c, 8, 55, 0
10, 81600, Note_on_c, 8, 53, 77
10, 81792, Note_off_c, 8, 53, 0
10, 81792, Note_on_c, 8, 51, 77
10, 81984, Note_off_c, 8, 51, 0
10, 81984, Note_on_c, 8, 50, 77
10, 82176, Note_off_c, 8, 50, 0
10, 82176, Note_on_c, 8, 55, 77
10, 82368, Note_off_c, 8, 55, 0
10, 82368, Note_on_c, 8, 51, 77
10, 82368, Note_on_c, 8, 55, 77
10, 82560, Note_off_c, 8, 51, 0
10, 82560, Note_off_c, 8, 55, 0
10, 82560, Note_on_c, 8, 53, 77
10, 82560, Note_on_c, 8, 53, 77
10, 82752, Note_off_c, 8, 53, 0
10, 82752, Note_off_c, 8, 53, 0
10, 82752, Note_on_c, 8, 41, 77
10, 82752, Note_on_c, 8, 51, 77
10, 82944, Note_off_c, 8, 41, 0
10, 82944, Note_off_c, 8, 51, 0
10, 82944, Note_on_c, 8, 46, 77
10, 83328, Note_off_c, 8, 46, 0
10, 83328, Note_on_c, 8, 45, 77
10, 83520, Note_off_c, 8, 45, 0
10, 83520, Note_on_c, 8, 43, 77
10, 83712, Note_off_c, 8, 43, 0
10, 83712, Note_on_c, 8, 50, 77
10, 83904, Note_off_c, 8, 50, 0
10, 83904, Note_on_c, 8, 48, 77
10, 84096, Note_off_c, 8, 48, 0
10, 84096, Note_on_c, 8, 46, 77
10, 84288, Note_off_c, 8, 46, 0
10, 84288, Note_on_c, 8, 45, 77
10, 84480, Note_off_c, 8, 45, 0
10, 84480, Note_on_c, 8, 43, 77
10, 84672, Note_off_c, 8, 43, 0
10, 84672, Note_on_c, 8, 48, 77
10, 84864, Note_off_c, 8, 48, 0
10, 84864, Note_on_c, 8, 45, 77
10, 85056, Note_off_c, 8, 45, 0
10, 85056, Note_on_c, 8, 42, 77
10, 85248, Note_off_c, 8, 42, 0
10, 85248, Note_on_c, 8, 43, 77
10, 85440, Note_off_c, 8, 43, 0
10, 85440, Note_on_c, 8, 45, 77
10, 85632, Note_off_c, 8, 45, 0
10, 85632, Note_on_c, 8, 46, 77
10, 85824, Note_off_c, 8, 46, 0
10, 85824, Note_on_c, 8, 48, 77
10, 86016, Note_off_c, 8, 48, 0
10, 86016, Note_on_c, 8, 50, 77
10, 86208, Note_off_c, 8, 50, 0
10, 86208, Note_on_c, 8, 51, 77
10, 86400, Note_off_c, 8, 51, 0
10, 86400, Note_on_c, 8, 41, 77
10, 86592, Note_off_c, 8, 41, 0
10, 86592, Note_on_c, 8, 43, 77
10, 86784, Note_off_c, 8, 43, 0
10, 86784, Note_on_c, 8, 45, 77
10, 86976, Note_off_c, 8, 45, 0
10, 86976, Note_on_c, 8, 46, 77
10, 87168, Note_off_c, 8, 46, 0
10, 87168, Note_on_c, 8, 48, 77
10, 87360, Note_off_c, 8, 48, 0
10, 87360, Note_on_c, 8, 50, 77
10, 87552, Note_off_c, 8, 50, 0
10, 87552, Note_on_c, 8, 39, 77
10, 87936, Note_off_c, 8, 39, 0
10, 87936, Note_on_c, 8, 51, 77
10, 88128, Note_off_c, 8, 51, 0
10, 88128, Note_on_c, 8, 51, 77
10, 88512, Note_off_c, 8, 51, 0
10, 88512, Note_on_c, 8, 48, 77
10, 88704, Note_off_c, 8, 48, 0
10, 88704, Note_on_c, 8, 42, 77
10, 88704, Note_on_c, 8, 63, 77
10, 88896, Note_off_c, 8, 63, 0
10, 88896, Note_on_c, 8, 62, 77
10, 89088, Note_off_c, 8, 42, 0
10, 89088, Note_off_c, 8, 62, 0
10, 89088, Note_on_c, 8, 54, 77
10, 89088, Note_on_c, 8, 62, 77
10, 89280, Note_off_c, 8, 54, 0
10, 89280, Note_off_c, 8, 62, 0
10, 89280, Note_on_c, 8, 55, 77
10, 89664, Note_off_c, 8, 55, 0
10, 89664, Note_on_c, 8, 48, 77
10, 89664, Note_on_c, 8, 63, 77
10, 89856, Note_off_c, 8, 48, 0
10, 89856, Note_off_c, 8, 63, 0
10, 89856, Note_on_c, 8, 50, 77
10, 89856, Note_on_c, 8, 62, 77
10, 90048, Note_off_c, 8, 62, 0
10, 90240, Note_off_c, 8, 50, 0
10, 90240, Note_on_c, 8, 38, 77
10, 90432, Note_off_c, 8, 38, 0
10, 90432, Note_on_c, 8, 50, 77
10, 90432, Note_on_c, 8, 54, 77
10, 90624, Note_off_c, 8, 54, 0
10, 90624, Note_on_c, 8, 57, 77
10, 90816, Note_off_c, 8, 50, 0
10, 90816, Note_off_c, 8, 57, 0
10, 90816, Note_on_c, 8, 50, 77
10, 90816, Note_on_c, 8, 58, 77
10, 91008, Note_off_c, 8, 50, 0
10, 91008, Note_off_c, 8, 58, 0
10, 91008, Note_on_c, 8, 50, 77
10, 91008, Note_on_c, 8, 57, 77
10, 91008, Note_on_c, 8, 62, 77
10, 91200, Note_off_c, 8, 62, 0
10, 91200, Note_on_c, 8, 60, 77
10, 91392, Note_off_c, 8, 50, 0
10, 91392, Note_off_c, 8, 57, 0
10, 91392, Note_off_c, 8, 60, 0
10, 91392, Note_on_c, 8, 50, 77
10, 91392, Note_on_c, 8, 58, 77
10, 91584, Note_off_c, 8, 50, 0
10, 91584, Note_off_c, 8, 58, 0
10, 91584, Note_on_c, 8, 50, 77
10, 91584, Note_on_c, 8, 54, 77
10, 91584, Note_on_c, 8, 57, 77
10, 91968, Note_off_c, 8, 50, 0
10, 91968, Note_off_c, 8, 54, 0
10, 91968, Note_off_c, 8, 57, 0
10, 91968, Note_on_c, 8, 50, 77
10, 91968, Note_on_c, 8, 55, 77
10, 91968, Note_on_c, 8, 58, 77
10, 92160, Note_off_c, 8, 50, 0
10, 92160, Note_off_c, 8, 55, 0
10, 92160, Note_off_c, 8, 58, 0
10, 92160, Note_on_c, 8, 50, 77
10, 92160, Note_on_c, 8, 57, 77
10, 92160, Note_on_c, 8, 62, 77
10, 92544, Note_off_c, 8, 50, 0
10, 92544, Note_off_c, 8, 57, 0
10, 92544, Note_off_c, 8, 62, 0
10, 92544, Note_on_c, 8, 38, 77
10, 92736, Note_off_c, 8, 38, 0
10, 92736, Note_on_c, 8, 43, 77
10, 92928, Note_off_c, 8, 43, 0
10, 92928, Note_on_c, 8, 58, 77
10, 92928, Note_on_c, 8, 62, 77
10, 93120, Note_off_c, 8, 58, 0
10, 93120, Note_off_c, 8, 62, 0
10, 93120, Note_on_c, 8, 55, 77
10, 93120, Note_on_c, 8, 63, 77
10, 93312, Note_off_c, 8, 55, 0
10, 93312, Note_off_c, 8, 63, 0
10, 93312, Note_on_c, 8, 55, 77
10, 93312, Note_on_c, 8, 67, 77
10, 93504, Note_off_c, 8, 67, 0
10, 93504, Note_on_c, 8, 65, 77
10, 93696, Note_off_c, 8, 55, 0
10, 93696, Note_off_c, 8, 65, 0
10, 93696, Note_on_c, 8, 55, 77
10, 93696, Note_on_c, 8, 63, 77
10, 93888, Note_off_c, 8, 55, 0
10, 93888, Note_off_c, 8, 63, 0
10, 93888, Note_on_c, 8, 55, 77
10, 93888, Note_on_c, 8, 62, 77
10, 94080, Note_off_c, 8, 62, 0
10, 94080, Note_on_c, 8, 60, 77
10, 94272, Note_off_c, 8, 55, 0
10, 94272, Note_off_c, 8, 60, 0
10, 94272, Note_on_c, 8, 55, 77
10, 94272, Note_on_c, 8, 62, 77
10, 94464, Note_off_c, 8, 55, 0
10, 94464, Note_off_c, 8, 62, 0
10, 94464, Note_on_c, 8, 55, 77
10, 94464, Note_on_c, 8, 60, 77
10, 94848, Note_off_c, 8, 55, 0
10, 94848, Note_off_c, 8, 60, 0
10, 94848, Note_on_c, 8, 43, 77
10, 95040, Note_off_c, 8, 43, 0
10, 95040, Note_on_c, 8, 55, 77
10, 95040, Note_on_c, 8, 59, 77
10, 95232, Note_off_c, 8, 59, 0
10, 95232, Note_on_c, 8, 60, 77
10, 95424, Note_off_c, 8, 55, 0
10, 95424, Note_off_c, 8, 60, 0
10, 95424, Note_on_c, 8, 55, 77
10, 95424, Note_on_c, 8, 59, 77
10, 95616, Note_off_c, 8, 55, 0
10, 95616, Note_off_c, 8, 59, 0
10, 95616, Note_on_c, 8, 48, 77
10, 95616, Note_on_c, 8, 60, 77
10, 96000, Note_off_c, 8, 48, 0
10, 96000, Note_off_c, 8, 60, 0
10, 96000, Note_on_c, 8, 50, 77
10, 96000, Note_on_c, 8, 50, 77
10, 96192, Note_off_c, 8, 50, 0
10, 96192, Note_off_c, 8, 50, 0
10, 96192, Note_on_c, 8, 51, 77
10, 96192, Note_on_c, 8, 60, 77
10, 96384, Note_off_c, 8, 60, 0
10, 96384, Note_on_c, 8, 58, 77
10, 96576, Note_off_c, 8, 51, 0
10, 96576, Note_off_c, 8, 58, 0
10, 96576, Note_on_c, 8, 51, 77
10, 96576, Note_on_c, 8, 57, 77
10, 96768, Note_off_c, 8, 51, 0
10, 96768, Note_off_c, 8, 57, 0
10, 96768, Note_on_c, 8, 50, 77
10, 96768, Note_on_c, 8, 58, 77
10, 96960, Note_off_c, 8, 58, 0
10, 96960, Note_on_c, 8, 57, 77
10, 97152, Note_off_c, 8, 50, 0
10, 97152, Note_off_c, 8, 57, 0
10, 97152, Note_on_c, 8, 50, 77
10, 97152, Note_on_c, 8, 55, 77
10, 97344, Note_off_c, 8, 50, 0
10, 97344, Note_off_c, 8, 55, 0
10, 97344, Note_on_c, 8, 48, 77
10, 97728, Note_off_c, 8, 48, 0
10, 97728, Note_on_c, 8, 36, 77
10, 97920, Note_off_c, 8, 36, 0
10, 97920, Note_on_c, 8, 38, 77
10, 98304, Note_off_c, 8, 38, 0
10, 98304, Note_on_c, 8, 50, 77
10, 98496, Note_off_c, 8, 50, 0
10, 98496, Note_on_c, 8, 51, 77
10, 98880, Note_off_c, 8, 51, 0
10, 98880, Note_on_c, 8, 39, 77
10, 99072, Note_off_c, 8, 39, 0
10, 99072, Note_on_c, 8, 38, 77
10, 99456, Note_off_c, 8, 38, 0
10, 99456, Note_on_c, 8, 50, 77
10, 99648, Note_off_c, 8, 50, 0
10, 99648, Note_on_c, 8, 48, 77
10, 99840, Note_off_c, 8, 48, 0
10, 99840, Note_on_c, 8, 51, 77
10, 100032, Note_off_c, 8, 51, 0
10, 100032, Note_on_c, 8, 50, 77
10, 100224, Note_off_c, 8, 50, 0
10, 100224, Note_on_c, 8, 48, 77
10, 100416, Note_off_c, 8, 48, 0
10, 100416, Note_on_c, 8, 45, 77
10, 100608, Note_off_c, 8, 45, 0
10, 100608, Note_on_c, 8, 46, 77
10, 100800, Note_off_c, 8, 46, 0
10, 100800, Note_on_c, 8, 48, 77
10, 100992, Note_off_c, 8, 48, 0
10, 100992, Note_on_c, 8, 50, 77
10, 101184, Note_off_c, 8, 50, 0
10, 101184, Note_on_c, 8, 38, 77
10, 101376, Note_off_c, 8, 38, 0
10, 101376, Note_on_c, 8, 43, 50
10, 101760, Note_off_c, 8, 43, 0
10, 101760, Note_on_c, 8, 55, 50
10, 101952, Note_off_c, 8, 55, 0
10, 101952, Note_on_c, 8, 55, 50
10, 101952, Note_on_c, 8, 58, 50
10, 102336, Note_off_c, 8, 55, 0
10, 102336, Note_off_c, 8, 58, 0
10, 102336, Note_on_c, 8, 43, 50
10, 102336, Note_on_c, 8, 57, 50
10, 102528, Note_off_c, 8, 43, 0
10, 102528, Note_off_c, 8, 57, 0
10, 102528, Note_on_c, 8, 43, 50
10, 102528, Note_on_c, 8, 55, 50
10, 102912, Note_off_c, 8, 43, 0
10, 102912, Note_off_c, 8, 55, 0
10, 102912, Note_on_c, 8, 55, 50
10, 102912, Note_on_c, 8, 57, 50
10, 103104, Note_off_c, 8, 55, 0
10, 103104, Note_off_c, 8, 57, 0
10, 103104, Note_on_c, 8, 55, 50
10, 103104, Note_on_c, 8, 58, 50
10, 103296, Note_off_c, 8, 58, 0
10, 103296, Note_on_c, 8, 64, 50
10, 103488, Note_off_c, 8, 55, 0
10, 103488, Note_off_c, 8, 64, 0
10, 103488, Note_on_c, 8, 43, 50
10, 103488, Note_on_c, 8, 60, 50
10, 103680, Note_off_c, 8, 43, 0
10, 103680, Note_off_c, 8, 60, 0
10, 103680, Note_on_c, 8, 43, 50
10, 103680, Note_on_c, 8, 62, 50
10, 104064, Note_off_c, 8, 43, 0
10, 104064, Note_off_c, 8, 62, 0
10, 104064, Note_on_c, 8, 55, 50
10, 104064, Note_on_c, 8, 63, 50
10, 104256, Note_off_c, 8, 55, 0
10, 104256, Note_off_c, 8, 63, 0
10, 104256, Note_on_c, 8, 55, 50
10, 104256, Note_on_c, 8, 65, 50
10, 104448, Note_off_c, 8, 65, 0
10, 104448, Note_on_c, 8, 63, 50
10, 104640, Note_off_c, 8, 55, 0
10, 104640, Note_off_c, 8, 63, 0
10, 104640, Note_on_c, 8, 43, 50
10, 104640, Note_on_c, 8, 65, 50
10, 104832, Note_off_c, 8, 43, 0
10, 104832, Note_off_c, 8, 65, 0
10, 104832, Note_on_c, 8, 43, 50
10, 104832, Note_on_c, 8, 63, 50
10, 105024, Note_off_c, 8, 63, 0
10, 105024, Note_on_c, 8, 63, 50
10, 105216, Note_off_c, 8, 43, 0
10, 105216, Note_off_c, 8, 63, 0
10, 105216, Note_on_c, 8, 55, 50
10, 105216, Note_on_c, 8, 62, 50
10, 105408, Note_off_c, 8, 55, 0
10, 105408, Note_off_c, 8, 62, 0
10, 105408, Note_on_c, 8, 55, 50
10, 105408, Note_on_c, 8, 63, 50
10, 105600, Note_off_c, 8, 63, 0
10, 105600, Note_on_c, 8, 63, 50
10, 105792, Note_off_c, 8, 55, 0
10, 105792, Note_off_c, 8, 63, 0
10, 105792, Note_on_c, 8, 43, 50
10, 105792, Note_on_c, 8, 65, 50
10, 105984, Note_off_c, 8, 43, 0
10, 105984, Note_off_c, 8, 65, 0
10, 105984, Note_on_c, 8, 48, 77
10, 105984, Note_on_c, 8, 67, 77
10, 106368, Note_off_c, 8, 48, 0
10, 106368, Note_off_c, 8, 67, 0
10, 106368, Note_on_c, 8, 36, 77
10, 106368, Note_on_c, 8, 65, 77
10, 106560, Note_off_c, 8, 36, 0
10, 106560, Note_off_c, 8, 65, 0
10, 106560, Note_on_c, 8, 36, 77
10, 106560, Note_on_c, 8, 63, 77
10, 106752, Note_off_c, 8, 63, 0
10, 106752, Note_on_c, 8, 60, 77
10, 106944, Note_off_c, 8, 36, 0
10, 106944, Note_off_c, 8, 60, 0
10, 106944, Note_on_c, 8, 48, 77
10, 106944, Note_on_c, 8, 54, 77
10, 107136, Note_off_c, 8, 54, 0
10, 107136, Note_on_c, 8, 60, 77
10, 107328, Note_off_c, 8, 48, 0
10, 107328, Note_off_c, 8, 60, 0
10, 107328, Note_on_c, 8, 45, 77
10, 107328, Note_on_c, 8, 63, 77
10, 107520, Note_off_c, 8, 45, 0
10, 107520, Note_off_c, 8, 63, 0
10, 107520, Note_on_c, 8, 46, 77
10, 107520, Note_on_c, 8, 62, 77
10, 107712, Note_off_c, 8, 46, 0
10, 107712, Note_off_c, 8, 62, 0
10, 107712, Note_on_c, 8, 48, 77
10, 107712, Note_on_c, 8, 60, 77
10, 107904, Note_off_c, 8, 48, 0
10, 107904, Note_off_c, 8, 60, 0
10, 107904, Note_on_c, 8, 50, 77
10, 107904, Note_on_c, 8, 58, 77
10, 107952, Note_off_c, 8, 58, 0
10, 107952, Note_on_c, 8, 57, 77
10, 108000, Note_off_c, 8, 57, 0
10, 108000, Note_on_c, 8, 58, 77
10, 108048, Note_off_c, 8, 58, 0
10, 108048, Note_on_c, 8, 57, 77
10, 108096, Note_off_c, 8, 50, 0
10, 108096, Note_off_c, 8, 57, 0
10, 108096, Note_on_c, 8, 38, 77
10, 108096, Note_on_c, 8, 58, 77
10, 108144, Note_off_c, 8, 58, 0
10, 108144, Note_on_c, 8, 57, 77
10, 108288, Note_off_c, 8, 38, 0
10, 108288, Note_off_c, 8, 57, 0
10, 108288, Note_on_c, 8, 43, 63
10, 108288, Note_on_c, 8, 58, 63
10, 108480, Note_off_c, 8, 58, 0
10, 108480, Note_on_c, 8, 62, 63
10, 108672, Note_off_c, 8, 43, 0
10, 108672, Note_off_c, 8, 62, 0
10, 108672, Note_on_c, 8, 55, 63
10, 108864, Note_off_c, 8, 55, 0
10, 108864, Note_on_c, 8, 55, 63
10, 109248, Note_off_c, 8, 55, 0
10, 109248, Note_on_c, 8, 43, 63
10, 109440, Note_off_c, 8, 43, 0
10, 109440, Note_on_c, 8, 48, 63
10, 109632, Note_on_c, 8, 64, 63
10, 109824, Note_off_c, 8, 48, 0
10, 109824, Note_off_c, 8, 64, 0
10, 109824, Note_on_c, 8, 60, 63
10, 109824, Note_on_c, 8, 65, 63
10, 110016, Note_off_c, 8, 60, 0
10, 110016, Note_off_c, 8, 65, 0
10, 110016, Note_on_c, 8, 60, 63
10, 110016, Note_on_c, 8, 67, 63
10, 110208, Note_off_c, 8, 67, 0
10, 110208, Note_on_c, 8, 69, 63
10, 110400, Note_off_c, 8, 60, 0
10, 110400, Note_off_c, 8, 69, 0
10, 110400, Note_on_c, 8, 48, 63
10, 110400, Note_on_c, 8, 70, 63
10, 110592, Note_off_c, 8, 48, 0
10, 110592, Note_off_c, 8, 70, 0
10, 110592, Note_on_c, 8, 41, 63
10, 110976, Note_off_c, 8, 41, 0
10, 110976, Note_on_c, 8, 53, 63
10, 111168, Note_off_c, 8, 53, 0
10, 111168, Note_on_c, 8, 53, 63
10, 111552, Note_off_c, 8, 53, 0
10, 111552, Note_on_c, 8, 41, 63
10, 111744, Note_off_c, 8, 41, 0
10, 111744, Note_on_c, 8, 46, 63
10, 111936, Note_on_c, 8, 62, 63
10, 112128, Note_off_c, 8, 46, 0
10, 112128, Note_off_c, 8, 62, 0
10, 112128, Note_on_c, 8, 58, 63
10, 112128, Note_on_c, 8, 63, 63
10, 112320, Note_off_c, 8, 58, 0
10, 112320, Note_off_c, 8, 63, 0
10, 112320, Note_on_c, 8, 58, 63
10, 112320, Note_on_c, 8, 65, 63
10, 112512, Note_off_c, 8, 65, 0
10, 112512, Note_on_c, 8, 67, 63
10, 112704, Note_off_c, 8, 58, 0
10, 112704, Note_off_c, 8, 67, 0
10, 112704, Note_on_c, 8, 46, 63
10, 112704, Note_on_c, 8, 69, 63
10, 112896, Note_off_c, 8, 46, 0
10, 112896, Note_off_c, 8, 69, 0
10, 112896, Note_on_c, 8, 39, 63
10, 112896, Note_on_c, 8, 67, 63
10, 113280, Note_off_c, 8, 39, 0
10, 113280, Note_off_c, 8, 67, 0
10, 113280, Note_on_c, 8, 51, 63
10, 113472, Note_off_c, 8, 51, 0
10, 113472, Note_on_c, 8, 51, 63
10, 113472, Note_on_c, 8, 60, 63
10, 113856, Note_off_c, 8, 51, 0
10, 113856, Note_off_c, 8, 60, 0
10, 113856, Note_on_c, 8, 50, 63
10, 113856, Note_on_c, 8, 58, 63
10, 114048, Note_off_c, 8, 50, 0
10, 114048, Note_off_c, 8, 58, 0
10, 114048, Note_on_c, 8, 48, 63
10, 114112, Note_off_c, 8, 48, 0
10, 114240, Note_on_c, 8, 51, 63
10, 114304, Note_off_c, 8, 51, 0
10, 114432, Note_on_c, 8, 55, 63
10, 114496, Note_off_c, 8, 55, 0
10, 114624, Note_on_c, 8, 60, 63
10, 115008, Note_off_c, 8, 60, 0
10, 115008, Note_on_c, 8, 58, 63
10, 115200, Note_off_c, 8, 58, 0
10, 115200, Note_on_c, 8, 57, 63
10, 115200, Note_on_c, 8, 63, 63
10, 115392, Note_off_c, 8, 63, 0
10, 115584, Note_off_c, 8, 57, 0
10, 115584, Note_on_c, 8, 58, 63
10, 115584, Note_on_c, 8, 62, 63
10, 115776, Note_off_c, 8, 58, 0
10, 115776, Note_off_c, 8, 62, 0
10, 115776, Note_on_c, 8, 55, 63
10, 115776, Note_on_c, 8, 62, 63
10, 115968, Note_off_c, 8, 62, 0
10, 116160, Note_off_c, 8, 55, 0
10, 116160, Note_on_c, 8, 51, 63
10, 116160, Note_on_c, 8, 60, 63
10, 116352, Note_off_c, 8, 51, 0
10, 116352, Note_off_c, 8, 60, 0
10, 116352, Note_on_c, 8, 53, 63
10, 116352, Note_on_c, 8, 60, 63
10, 116544, Note_off_c, 8, 60, 0
10, 116544, Note_on_c, 8, 57, 63
10, 116736, Note_off_c, 8, 53, 0
10, 116736, Note_off_c, 8, 57, 0
10, 116736, Note_on_c, 8, 51, 63
10, 116736, Note_on_c, 8, 58, 63
10, 116928, Note_off_c, 8, 51, 0
10, 116928, Note_off_c, 8, 58, 0
10, 116928, Note_on_c, 8, 50, 63
10, 116928, Note_on_c, 8, 60, 63
10, 117120, Note_off_c, 8, 60, 0
10, 117120, Note_on_c, 8, 62, 63
10, 117312, Note_off_c, 8, 50, 0
10, 117312, Note_off_c, 8, 62, 0
10, 117312, Note_on_c, 8, 48, 63
10, 117312, Note_on_c, 8, 63, 63
10, 117504, Note_off_c, 8, 48, 0
10, 117504, Note_off_c, 8, 63, 0
10, 117504, Note_on_c, 8, 46, 63
10, 117504, Note_on_c, 8, 65, 63
10, 117696, Note_off_c, 8, 65, 0
10, 117696, Note_on_c, 8, 67, 63
10, 117888, Note_off_c, 8, 46, 0
10, 117888, Note_off_c, 8, 67, 0
10, 117888, Note_on_c, 8, 58, 63
10, 117888, Note_on_c, 8, 63, 63
10, 118080, Note_off_c, 8, 58, 0
10, 118080, Note_on_c, 8, 58, 63
10, 118272, Note_off_c, 8, 63, 0
10, 118272, Note_on_c, 8, 65, 63
10, 118464, Note_off_c, 8, 58, 0
10, 118464, Note_off_c, 8, 65, 0
10, 118464, Note_on_c, 8, 46, 63
10, 118464, Note_on_c, 8, 62, 63
10, 118656, Note_off_c, 8, 46, 0
10, 118656, Note_on_c, 8, 46, 63
10, 118848, Note_off_c, 8, 62, 0
10, 118848, Note_on_c, 8, 63, 63
10, 119040, Note_off_c, 8, 46, 0
10, 119040, Note_off_c, 8, 63, 0
10, 119040, Note_on_c, 8, 58, 63
10, 119040, Note_on_c, 8, 60, 63
10, 119232, Note_off_c, 8, 58, 0
10, 119232, Note_on_c, 8, 58, 63
10, 119424, Note_off_c, 8, 60, 0
10, 119424, Note_on_c, 8, 63, 63
10, 119616, Note_off_c, 8, 58, 0
10, 119616, Note_off_c, 8, 63, 0
10, 119616, Note_on_c, 8, 46, 63
10, 119616, Note_on_c, 8, 57, 63
10, 119808, Note_off_c, 8, 46, 0
10, 119808, Note_off_c, 8, 57, 0
10, 119808, Note_on_c, 8, 46, 63
10, 120192, Note_off_c, 8, 46, 0
10, 120192, Note_on_c, 8, 58, 63
10, 120384, Note_off_c, 8, 58, 0
10, 120384, Note_on_c, 8, 58, 63
10, 120768, Note_off_c, 8, 58, 0
10, 120768, Note_on_c, 8, 46, 63
10, 120960, Note_off_c, 8, 46, 0
10, 120960, Note_on_c, 8, 46, 63
10, 121344, Note_off_c, 8, 46, 0
10, 121344, Note_on_c, 8, 58, 63
10, 121536, Note_off_c, 8, 58, 0
10, 121536, Note_on_c, 8, 58, 63
10, 121920, Note_off_c, 8, 58, 0
10, 121920, Note_on_c, 8, 46, 63
10, 122112, Note_off_c, 8, 46, 0
10, 122112, Note_on_c, 8, 46, 63
10, 122496, Note_off_c, 8, 46, 0
10, 122496, Note_on_c, 8, 58, 63
10, 122688, Note_off_c, 8, 58, 0
10, 122688, Note_on_c, 8, 58, 63
10, 123072, Note_off_c, 8, 58, 0
10, 123072, Note_on_c, 8, 46, 63
10, 123264, Note_off_c, 8, 46, 0
10, 123264, Note_on_c, 8, 46, 63
10, 123840, Note_off_c, 8, 46, 0
10, 123840, Note_on_c, 8, 62, 63
10, 124032, Note_off_c, 8, 62, 0
10, 124032, Note_on_c, 8, 60, 63
10, 124224, Note_off_c, 8, 60, 0
10, 124224, Note_on_c, 8, 50, 63
10, 124224, Note_on_c, 8, 58, 63
10, 124416, Note_off_c, 8, 50, 0
10, 124416, Note_off_c, 8, 58, 0
10, 124416, Note_on_c, 8, 51, 63
10, 124416, Note_on_c, 8, 58, 63
10, 124800, Note_off_c, 8, 51, 0
10, 124800, Note_on_c, 8, 51, 63
10, 124992, Note_off_c, 8, 58, 0
10, 124992, Note_off_c, 8, 51, 0
10, 124992, Note_on_c, 8, 51, 63
10, 125376, Note_off_c, 8, 51, 0
10, 125376, Note_on_c, 8, 39, 63
10, 125568, Note_off_c, 8, 39, 0
10, 125568, Note_on_c, 8, 41, 63
10, 125568, Note_on_c, 8, 41, 63
10, 125952, Note_off_c, 8, 41, 0
10, 125952, Note_off_c, 8, 41, 0
10, 125952, Note_on_c, 8, 53, 63
10, 125952, Note_on_c, 8, 53, 63
10, 126144, Note_off_c, 8, 53, 0
10, 126144, Note_off_c, 8, 53, 0
10, 126144, Note_on_c, 8, 53, 63
10, 126144, Note_on_c, 8, 53, 63
10, 126528, Note_off_c, 8, 53, 0
10, 126528, Note_off_c, 8, 53, 0
10, 126528, Note_on_c, 8, 41, 63
10, 126528, Note_on_c, 8, 53, 63
10, 126720, Note_off_c, 8, 41, 0
10, 126720, Note_off_c, 8, 53, 0
10, 126720, Note_on_c, 8, 46, 63
10, 126720, Note_on_c, 8, 53, 63
10, 127104, Note_off_c, 8, 46, 0
10, 127104, Note_off_c, 8, 53, 0
10, 127104, Note_on_c, 8, 58, 63
10, 127296, Note_off_c, 8, 58, 0
10, 127296, Note_on_c, 8, 58, 50
10, 127680, Note_off_c, 8, 58, 0
10, 127680, Note_on_c, 8, 46, 50
10, 127680, Note_on_c, 8, 57, 50
10, 127872, Note_off_c, 8, 46, 0
10, 127872, Note_off_c, 8, 57, 0
10, 127872, Note_on_c, 8, 46, 50
10, 127872, Note_on_c, 8, 53, 50
10, 128256, Note_off_c, 8, 46, 0
10, 128256, Note_off_c, 8, 53, 0
10, 128256, Note_on_c, 8, 58, 50
10, 128448, Note_off_c, 8, 58, 0
10, 128448, Note_on_c, 8, 58, 50
10, 128832, Note_off_c, 8, 58, 0
10, 128832, Note_on_c, 8, 46, 50
10, 129024, Note_off_c, 8, 46, 0
10, 129024, Note_on_c, 8, 46, 50
10, 129024, Note_on_c, 8, 53, 50
10, 129408, Note_off_c, 8, 46, 0
10, 129408, Note_off_c, 8, 53, 0
10, 129408, Note_on_c, 8, 58, 50
10, 129600, Note_off_c, 8, 58, 0
10, 129600, Note_on_c, 8, 57, 50
10, 129984, Note_off_c, 8, 57, 0
10, 129984, Note_on_c, 8, 45, 50
10, 130176, Note_off_c, 8, 45, 0
10, 130176, Note_on_c, 8, 43, 50
10, 130560, Note_off_c, 8, 43, 0
10, 130560, Note_on_c, 8, 55, 50
10, 130752, Note_off_c, 8, 55, 0
10, 130752, Note_on_c, 8, 55, 50
10, 131136, Note_off_c, 8, 55, 0
10, 131136, Note_on_c, 8, 43, 50
10, 131328, Note_off_c, 8, 43, 0
10, 131328, Note_on_c, 8, 41, 50
10, 131712, Note_off_c, 8, 41, 0
10, 131712, Note_on_c, 8, 53, 50
10, 131904, Note_off_c, 8, 53, 0
10, 131904, Note_on_c, 8, 53, 50
10, 132288, Note_off_c, 8, 53, 0
10, 132288, Note_on_c, 8, 41, 50
10, 132480, Note_off_c, 8, 41, 0
10, 132480, Note_on_c, 8, 39, 50
10, 132864, Note_off_c, 8, 39, 0
10, 132864, Note_on_c, 8, 41, 50
10, 133056, Note_off_c, 8, 41, 0
10, 133056, Note_on_c, 8, 43, 50
10, 133440, Note_off_c, 8, 43, 0
10, 133440, Note_on_c, 8, 39, 50
10, 133632, Note_off_c, 8, 39, 0
10, 133632, Note_on_c, 8, 41, 50
10, 134016, Note_off_c, 8, 41, 0
10, 134016, Note_on_c, 8, 53, 50
10, 134208, Note_off_c, 8, 53, 0
10, 134208, Note_on_c, 8, 53, 77
10, 134208, Note_on_c, 8, 53, 77
10, 134400, Note_off_c, 8, 53, 0
10, 134400, Note_on_c, 8, 57, 77
10, 134592, Note_off_c, 8, 53, 0
10, 134592, Note_off_c, 8, 57, 0
10, 134592, Note_on_c, 8, 53, 77
10, 134592, Note_on_c, 8, 58, 77
10, 134784, Note_off_c, 8, 53, 0
10, 134784, Note_off_c, 8, 58, 0
10, 134784, Note_on_c, 8, 51, 77
10, 134784, Note_on_c, 8, 60, 77
10, 135168, Note_off_c, 8, 51, 0
10, 135168, Note_on_c, 8, 51, 77
10, 135360, Note_off_c, 8, 51, 0
10, 135360, Note_on_c, 8, 51, 77
10, 135744, Note_off_c, 8, 60, 0
10, 135744, Note_off_c, 8, 51, 0
10, 135744, Note_on_c, 8, 51, 77
10, 135744, Note_on_c, 8, 57, 77
10, 135936, Note_off_c, 8, 51, 0
10, 135936, Note_off_c, 8, 57, 0
10, 135936, Note_on_c, 8, 50, 77
10, 135936, Note_on_c, 8, 53, 77
10, 136320, Note_off_c, 8, 50, 0
10, 136320, Note_on_c, 8, 50, 77
10, 136512, Note_off_c, 8, 53, 0
10, 136512, Note_off_c, 8, 50, 0
10, 136512, Note_on_c, 8, 50, 50
10, 136512, Note_on_c, 8, 53, 50
10, 136896, Note_off_c, 8, 50, 0
10, 136896, Note_off_c, 8, 53, 0
10, 136896, Note_on_c, 8, 50, 50
10, 136896, Note_on_c, 8, 58, 50
10, 137088, Note_off_c, 8, 50, 0
10, 137088, Note_off_c, 8, 58, 0
10, 137088, Note_on_c, 8, 48, 50
10, 137088, Note_on_c, 8, 60, 50
10, 137280, Note_off_c, 8, 60, 0
10, 137280, Note_on_c, 8, 62, 50
10, 137472, Note_off_c, 8, 48, 0
10, 137472, Note_off_c, 8, 62, 0
10, 137472, Note_on_c, 8, 60, 50
10, 137472, Note_on_c, 8, 63, 50
10, 137664, Note_off_c, 8, 60, 0
10, 137664, Note_off_c, 8, 63, 0
10, 137664, Note_on_c, 8, 60, 50
10, 137664, Note_on_c, 8, 63, 50
10, 137856, Note_off_c, 8, 63, 0
10, 137856, Note_on_c, 8, 62, 50
10, 138048, Note_off_c, 8, 60, 0
10, 138048, Note_off_c, 8, 62, 0
10, 138048, Note_on_c, 8, 48, 50
10, 138048, Note_on_c, 8, 60, 50
10, 138240, Note_off_c, 8, 48, 0
10, 138240, Note_off_c, 8, 60, 0
10, 138240, Note_on_c, 8, 46, 77
10, 138624, Note_off_c, 8, 46, 0
10, 138624, Note_on_c, 8, 58, 77
10, 138816, Note_off_c, 8, 58, 0
10, 138816, Note_on_c, 8, 58, 77
10, 139200, Note_off_c, 8, 58, 0
10, 139200, Note_on_c, 8, 46, 77
10, 139392, Note_off_c, 8, 46, 0
10, 139392, Note_on_c, 8, 44, 77
10, 139776, Note_off_c, 8, 44, 0
10, 139776, Note_on_c, 8, 56, 77
10, 139968, Note_off_c, 8, 56, 0
10, 139968, Note_on_c, 8, 56, 77
10, 140352, Note_off_c, 8, 56, 0
10, 140352, Note_on_c, 8, 44, 77
10, 140544, Note_off_c, 8, 44, 0
10, 140544, Note_on_c, 8, 43, 77
10, 140928, Note_off_c, 8, 43, 0
10, 140928, Note_on_c, 8, 55, 77
10, 141120, Note_off_c, 8, 55, 0
10, 141120, Note_on_c, 8, 55, 50
10, 141504, Note_off_c, 8, 55, 0
10, 141504, Note_on_c, 8, 43, 50
10, 141696, Note_off_c, 8, 43, 0
10, 141696, Note_on_c, 8, 41, 50
10, 142080, Note_off_c, 8, 41, 0
10, 142080, Note_on_c, 8, 53, 50
10, 142272, Note_off_c, 8, 53, 0
10, 142272, Note_on_c, 8, 53, 50
10, 142656, Note_off_c, 8, 53, 0
10, 142656, Note_on_c, 8, 41, 50
10, 142848, Note_off_c, 8, 41, 0
10, 142848, Note_on_c, 8, 39, 50
10, 143232, Note_off_c, 8, 39, 0
10, 143232, Note_on_c, 8, 51, 50
10, 143424, Note_off_c, 8, 51, 0
10, 143424, Note_on_c, 8, 50, 50
10, 143808, Note_off_c, 8, 50, 0
10, 143808, Note_on_c, 8, 38, 50
10, 144000, Note_off_c, 8, 38, 0
10, 144000, Note_on_c, 8, 36, 50
10, 144384, Note_off_c, 8, 36, 0
10, 144384, Note_on_c, 8, 60, 50
10, 144576, Note_off_c, 8, 60, 0
10, 144576, Note_on_c, 8, 60, 50
10, 144960, Note_off_c, 8, 60, 0
10, 144960, Note_on_c, 8, 48, 50
10, 145152, Note_off_c, 8, 48, 0
10, 145152, Note_on_c, 8, 46, 50
10, 145536, Note_off_c, 8, 46, 0
10, 145536, Note_on_c, 8, 58, 50
10, 145728, Note_off_c, 8, 58, 0
10, 145728, Note_on_c, 8, 58, 50
10, 146112, Note_off_c, 8, 58, 0
10, 146112, Note_on_c, 8, 46, 50
10, 146304, Note_off_c, 8, 46, 0
10, 146304, Note_on_c, 8, 44, 50
10, 146688, Note_off_c, 8, 44, 0
10, 146688, Note_on_c, 8, 46, 50
10, 146880, Note_off_c, 8, 46, 0
10, 146880, Note_on_c, 8, 48, 50
10, 147264, Note_off_c, 8, 48, 0
10, 147264, Note_on_c, 8, 44, 50
10, 147456, Note_off_c, 8, 44, 0
10, 147456, Note_on_c, 8, 46, 50
10, 147456, Note_on_c, 8, 58, 50
10, 147840, Note_off_c, 8, 46, 0
10, 147840, Note_on_c, 8, 58, 50
10, 148032, Note_off_c, 8, 58, 0
10, 148032, Note_off_c, 8, 58, 0
10, 148032, Note_on_c, 8, 56, 50
10, 148416, Note_off_c, 8, 56, 0
10, 148416, Note_on_c, 8, 44, 50
10, 148608, Note_off_c, 8, 44, 0
10, 148608, Note_on_c, 8, 43, 50
10, 148992, Note_off_c, 8, 43, 0
10, 148992, Note_on_c, 8, 55, 50
10, 149184, Note_off_c, 8, 55, 0
10, 149184, Note_on_c, 8, 55, 50
10, 149184, Note_on_c, 8, 59, 50
10, 149568, Note_off_c, 8, 55, 0
10, 149568, Note_off_c, 8, 59, 0
10, 149568, Note_on_c, 8, 43, 50
10, 149568, Note_on_c, 8, 59, 50
10, 149760, Note_off_c, 8, 43, 0
10, 149760, Note_off_c, 8, 59, 0
10, 149760, Note_on_c, 8, 48, 50
10, 150144, Note_off_c, 8, 48, 0
10, 150144, Note_on_c, 8, 60, 50
10, 150144, Note_on_c, 8, 62, 50
10, 150336, Note_off_c, 8, 60, 0
10, 150336, Note_off_c, 8, 62, 0
10, 150336, Note_on_c, 8, 60, 50
10, 150336, Note_on_c, 8, 63, 50
10, 150720, Note_off_c, 8, 60, 0
10, 150720, Note_on_c, 8, 48, 50
10, 150912, Note_off_c, 8, 63, 0
10, 150912, Note_off_c, 8, 48, 0
10, 150912, Note_on_c, 8, 41, 50
10, 150912, Note_on_c, 8, 60, 50
10, 151296, Note_off_c, 8, 41, 0
10, 151296, Note_off_c, 8, 60, 0
10, 151296, Note_on_c, 8, 53, 50
10, 151296, Note_on_c, 8, 60, 50
10, 151488, Note_off_c, 8, 53, 0
10, 151488, Note_off_c, 8, 60, 0
10, 151488, Note_on_c, 8, 53, 50
10, 151488, Note_on_c, 8, 57, 50
10, 151872, Note_off_c, 8, 53, 0
10, 151872, Note_on_c, 8, 41, 50
10, 152064, Note_off_c, 8, 57, 0
10, 152064, Note_off_c, 8, 41, 0
10, 152064, Note_on_c, 8, 46, 50
10, 152064, Note_on_c, 8, 58, 50
10, 152256, Note_off_c, 8, 46, 0
10, 152256, Note_on_c, 8, 48, 50
10, 152448, Note_off_c, 8, 48, 0
10, 152448, Note_on_c, 8, 50, 50
10, 152640, Note_off_c, 8, 50, 0
10, 152640, Note_on_c, 8, 51, 50
10, 152832, Note_off_c, 8, 51, 0
10, 152832, Note_on_c, 8, 53, 50
10, 153024, Note_off_c, 8, 53, 0
10, 153024, Note_on_c, 8, 51, 50
10, 153216, Note_off_c, 8, 51, 0
10, 153216, Note_on_c, 8, 50, 50
10, 153408, Note_off_c, 8, 50, 0
10, 153408, Note_on_c, 8, 51, 50
10, 153600, Note_off_c, 8, 51, 0
10, 153600, Note_on_c, 8, 50, 50
10, 153792, Note_off_c, 8, 58, 0
10, 153792, Note_off_c, 8, 50, 0
10, 153792, Note_on_c, 8, 48, 50
10, 153792, Note_on_c, 8, 58, 50
10, 153984, Note_off_c, 8, 48, 0
10, 153984, Note_on_c, 8, 50, 50
10, 154176, Note_off_c, 8, 58, 0
10, 154176, Note_off_c, 8, 50, 0
10, 154176, Note_on_c, 8, 48, 50
10, 154176, Note_on_c, 8, 57, 50
10, 154368, Note_off_c, 8, 48, 0
10, 154368, Note_off_c, 8, 57, 0
10, 154368, Note_on_c, 8, 46, 50
10, 154368, Note_on_c, 8, 58, 50
10, 154560, Note_off_c, 8, 46, 0
10, 154560, Note_on_c, 8, 43, 50
10, 154752, Note_off_c, 8, 43, 0
10, 154752, Note_on_c, 8, 41, 50
10, 154944, Note_off_c, 8, 41, 0
10, 154944, Note_on_c, 8, 40, 50
10, 155328, Note_off_c, 8, 40, 0
10, 155328, Note_on_c, 8, 52, 50
10, 155520, Note_off_c, 8, 52, 0
10, 155520, Note_on_c, 8, 53, 50
10, 155904, Note_off_c, 8, 53, 0
10, 155904, Note_on_c, 8, 41, 50
10, 156096, Note_off_c, 8, 41, 0
10, 156096, Note_on_c, 8, 43, 50
10, 156480, Note_off_c, 8, 43, 0
10, 156480, Note_on_c, 8, 55, 50
10, 156672, Note_off_c, 8, 58, 0
10, 156672, Note_off_c, 8, 55, 0
10, 156672, Note_on_c, 8, 53, 50
10, 157056, Note_off_c, 8, 53, 0
10, 157056, Note_on_c, 8, 41, 50
10, 157248, Note_off_c, 8, 41, 0
10, 157248, Note_on_c, 8, 39, 50
10, 157440, Note_off_c, 8, 39, 0
10, 157440, Note_on_c, 8, 55, 50
10, 157632, Note_off_c, 8, 55, 0
10, 157632, Note_on_c, 8, 53, 50
10, 157824, Note_off_c, 8, 53, 0
10, 157824, Note_on_c, 8, 51, 50
10, 157824, Note_on_c, 8, 58, 50
10, 158016, Note_off_c, 8, 51, 0
10, 158016, Note_on_c, 8, 50, 50
10, 158208, Note_off_c, 8, 50, 0
10, 158208, Note_on_c, 8, 55, 50
10, 158400, Note_off_c, 8, 58, 0
10, 158400, Note_off_c, 8, 55, 0
10, 158400, Note_on_c, 8, 51, 50
10, 158400, Note_on_c, 8, 55, 50
10, 158592, Note_off_c, 8, 51, 0
10, 158592, Note_off_c, 8, 55, 0
10, 158592, Note_on_c, 8, 53, 50
10, 158592, Note_on_c, 8, 53, 50
10, 158784, Note_off_c, 8, 53, 0
10, 158784, Note_off_c, 8, 53, 0
10, 158784, Note_on_c, 8, 41, 50
10, 158784, Note_on_c, 8, 51, 50
10, 158976, Note_off_c, 8, 41, 0
10, 158976, Note_off_c, 8, 51, 0
10, 158976, Note_on_c, 8, 46, 50
10, 158976, Note_on_c, 8, 58, 50
10, 159552, Note_off_c, 8, 46, 0
10, 159552, Note_on_c, 8, 56, 50
10, 159936, Note_off_c, 8, 56, 0
10, 159936, Note_on_c, 8, 44, 50
10, 160128, Note_off_c, 8, 44, 0
10, 160128, Note_on_c, 8, 43, 50
10, 160512, Note_off_c, 8, 43, 0
10, 160512, Note_on_c, 8, 55, 50
10, 160704, Note_off_c, 8, 55, 0
10, 160704, Note_on_c, 8, 53, 50
10, 161088, Note_off_c, 8, 53, 0
10, 161088, Note_on_c, 8, 41, 50
10, 161280, Note_off_c, 8, 41, 0
10, 161280, Note_on_c, 8, 39, 50
10, 161664, Note_off_c, 8, 58, 0
10, 161664, Note_off_c, 8, 39, 0
10, 161664, Note_on_c, 8, 51, 50
10, 161664, Note_on_c, 8, 58, 50
10, 161856, Note_off_c, 8, 51, 0
10, 161856, Note_off_c, 8, 58, 0
10, 161856, Note_on_c, 8, 50, 50
10, 162240, Note_off_c, 8, 50, 0
10, 162240, Note_on_c, 8, 38, 50
10, 162432, Note_off_c, 8, 38, 0
10, 162432, Note_on_c, 8, 36, 50
10, 162816, Note_off_c, 8, 36, 0
10, 162816, Note_on_c, 8, 48, 50
10, 163008, Note_off_c, 8, 48, 0
10, 163008, Note_on_c, 8, 46, 50
10, 163392, Note_off_c, 8, 46, 0
10, 163392, Note_on_c, 8, 43, 50
10, 163392, Note_on_c, 8, 57, 50
10, 163584, Note_off_c, 8, 43, 0
10, 163584, Note_off_c, 8, 57, 0
10, 163584, Note_on_c, 8, 45, 50
10, 163968, Note_off_c, 8, 45, 0
10, 163968, Note_on_c, 8, 41, 50
10, 164160, Note_off_c, 8, 41, 0
10, 164160, Note_on_c, 8, 43, 63
10, 164160, Note_on_c, 8, 57, 63
10, 164544, Note_off_c, 8, 43, 0
10, 164544, Note_off_c, 8, 57, 0
10, 164544, Note_on_c, 8, 45, 63
10, 164544, Note_on_c, 8, 55, 63
10, 164736, Note_off_c, 8, 45, 0
10, 164736, Note_off_c, 8, 55, 0
10, 164736, Note_on_c, 8, 46, 63
10, 165120, Note_off_c, 8, 46, 0
10, 165120, Note_on_c, 8, 51, 63
10, 165312, Note_off_c, 8, 51, 0
10, 165312, Note_on_c, 8, 53, 63
10, 165696, Note_off_c, 8, 53, 0
10, 165696, Note_on_c, 8, 41, 63
10, 165696, Note_on_c, 8, 60, 63
10, 165888, Note_off_c, 8, 41, 0
10, 165888, Note_off_c, 8, 60, 0
10, 165888, Note_on_c, 8, 46, 63
10, 165888, Note_on_c, 8, 62, 77
10, 166272, Note_off_c, 8, 46, 0
10, 166272, Note_on_c, 8, 58, 63
10, 166464, Note_off_c, 8, 58, 0
10, 166464, Note_on_c, 8, 58, 77
10, 166656, Note_off_c, 8, 62, 0
10, 166656, Note_on_c, 8, 62, 77
10, 166848, Note_off_c, 8, 58, 0
10, 166848, Note_off_c, 8, 62, 0
10, 166848, Note_on_c, 8, 46, 77
10, 166848, Note_on_c, 8, 63, 77
10, 167040, Note_off_c, 8, 46, 0
10, 167040, Note_off_c, 8, 63, 0
10, 167040, Note_on_c, 8, 46, 77
10, 167424, Note_off_c, 8, 46, 0
10, 167424, Note_on_c, 8, 58, 77
10, 167616, Note_off_c, 8, 58, 0
10, 167616, Note_on_c, 8, 58, 77
10, 168000, Note_off_c, 8, 58, 0
10, 168000, Note_on_c, 8, 46, 77
10, 168192, Note_off_c, 8, 46, 0
10, 168192, Note_on_c, 8, 46, 77
10, 168192, Note_on_c, 8, 58, 77
10, 168576, Note_off_c, 8, 46, 0
10, 168576, Note_on_c, 8, 58, 77
10, 168768, Note_off_c, 8, 58, 0
10, 168768, Note_on_c, 8, 57, 77
10, 168960, Note_off_c, 8, 58, 0
10, 169152, Note_off_c, 8, 57, 0
10, 169152, Note_on_c, 8, 45, 77
10, 169344, Note_off_c, 8, 45, 0
10, 169344, Note_on_c, 8, 43, 77
10, 169728, Note_off_c, 8, 43, 0
10, 169728, Note_on_c, 8, 55, 77
10, 169920, Note_off_c, 8, 55, 0
10, 169920, Note_on_c, 8, 55, 77
10, 170304, Note_off_c, 8, 55, 0
10, 170304, Note_on_c, 8, 43, 77
10, 170496, Note_off_c, 8, 43, 0
10, 170496, Note_on_c, 8, 41, 77
10, 170880, Note_off_c, 8, 41, 0
10, 170880, Note_on_c, 8, 53, 77
10, 171072, Note_off_c, 8, 53, 0
10, 171072, Note_on_c, 8, 53, 77
10, 171456, Note_off_c, 8, 53, 0
10, 171456, Note_on_c, 8, 41, 77
10, 171648, Note_off_c, 8, 41, 0
10, 171648, Note_on_c, 8, 39, 77
10, 172032, Note_off_c, 8, 39, 0
10, 172032, Note_on_c, 8, 41, 77
10, 172224, Note_off_c, 8, 41, 0
10, 172224, Note_on_c, 8, 43, 77
10, 172608, Note_off_c, 8, 43, 0
10, 172608, Note_on_c, 8, 39, 77
10, 172800, Note_off_c, 8, 39, 0
10, 172800, Note_on_c, 8, 41, 77
10, 173568, Note_off_c, 8, 41, 0
10, 173568, Note_on_c, 8, 45, 77
10, 173632, Note_off_c, 8, 45, 0
10, 173760, Note_on_c, 8, 48, 77
10, 173824, Note_off_c, 8, 48, 0
10, 173952, Note_on_c, 8, 51, 77
10, 174336, Note_off_c, 8, 51, 0
10, 174528, Note_on_c, 8, 41, 77
10, 174592, Note_off_c, 8, 41, 0
10, 174720, Note_on_c, 8, 45, 77
10, 174784, Note_off_c, 8, 45, 0
10, 174912, Note_on_c, 8, 48, 77
10, 174976, Note_off_c, 8, 48, 0
10, 175104, Note_on_c, 8, 51, 77
10, 175488, Note_off_c, 8, 51, 0
10, 175680, Note_on_c, 8, 46, 77
10, 175744, Note_off_c, 8, 46, 0
10, 175872, Note_on_c, 8, 50, 77
10, 175936, Note_off_c, 8, 50, 0
10, 176064, Note_on_c, 8, 53, 77
10, 176128, Note_off_c, 8, 53, 0
10, 176256, Note_on_c, 8, 56, 106
10, 176640, Note_off_c, 8, 56, 0
10, 176832, Note_on_c, 8, 46, 77
10, 176896, Note_off_c, 8, 46, 0
10, 177024, Note_on_c, 8, 50, 77
10, 177088, Note_off_c, 8, 50, 0
10, 177216, Note_on_c, 8, 53, 77
10, 177280, Note_off_c, 8, 53, 0
10, 177408, Note_on_c, 8, 56, 106
10, 177792, Note_off_c, 8, 56, 0
10, 177984, Note_on_c, 8, 51, 77
10, 178176, Note_off_c, 8, 51, 0
10, 178176, Note_on_c, 8, 53, 77
10, 178368, Note_off_c, 8, 53, 0
10, 178368, Note_on_c, 8, 51, 77
10, 178560, Note_off_c, 8, 51, 0
10, 178560, Note_on_c, 8, 50, 77
10, 178752, Note_off_c, 8, 50, 0
10, 178752, Note_on_c, 8, 51, 77
10, 178944, Note_off_c, 8, 51, 0
10, 178944, Note_on_c, 8, 50, 77
10, 179136, Note_off_c, 8, 50, 0
10, 179136, Note_on_c, 8, 48, 77
10, 179328, Note_off_c, 8, 48, 0
10, 179328, Note_on_c, 8, 50, 77
10, 179520, Note_off_c, 8, 50, 0
10, 179520, Note_on_c, 8, 48, 77
10, 179712, Note_off_c, 8, 48, 0
10, 179712, Note_on_c, 8, 46, 77
10, 179904, Note_off_c, 8, 46, 0
10, 179904, Note_on_c, 8, 43, 77
10, 180096, Note_off_c, 8, 43, 0
10, 180096, Note_on_c, 8, 41, 77
10, 180288, Note_off_c, 8, 41, 0
10, 180288, Note_on_c, 8, 40, 77
10, 180672, Note_off_c, 8, 40, 0
10, 180672, Note_on_c, 8, 52, 77
10, 180864, Note_off_c, 8, 52, 0
10, 180864, Note_on_c, 8, 53, 77
10, 181248, Note_off_c, 8, 53, 0
10, 181248, Note_on_c, 8, 41, 77
10, 181440, Note_off_c, 8, 41, 0
10, 181440, Note_on_c, 8, 43, 77
10, 181824, Note_off_c, 8, 43, 0
10, 181824, Note_on_c, 8, 55, 77
10, 182016, Note_off_c, 8, 55, 0
10, 182016, Note_on_c, 8, 53, 77
10, 182400, Note_off_c, 8, 53, 0
10, 182400, Note_on_c, 8, 41, 77
10, 182592, Note_off_c, 8, 41, 0
10, 182592, Note_on_c, 8, 39, 77
10, 182784, Note_off_c, 8, 39, 0
10, 182784, Note_on_c, 8, 55, 77
10, 182976, Note_off_c, 8, 55, 0
10, 182976, Note_on_c, 8, 53, 77
10, 183168, Note_off_c, 8, 53, 0
10, 183168, Note_on_c, 8, 51, 77
10, 183360, Note_off_c, 8, 51, 0
10, 183360, Note_on_c, 8, 50, 77
10, 183552, Note_off_c, 8, 50, 0
10, 183552, Note_on_c, 8, 55, 77
10, 183744, Note_off_c, 8, 55, 0
10, 183744, Note_on_c, 8, 51, 77
10, 183744, Note_on_c, 8, 55, 77
10, 183936, Note_off_c, 8, 51, 0
10, 183936, Note_off_c, 8, 55, 0
10, 183936, Note_on_c, 8, 53, 77
10, 183936, Note_on_c, 8, 53, 77
10, 184128, Note_off_c, 8, 53, 0
10, 184128, Note_off_c, 8, 53, 0
10, 184128, Note_on_c, 8, 41, 77
10, 184128, Note_on_c, 8, 51, 77
10, 184320, Note_off_c, 8, 41, 0
10, 184320, Note_off_c, 8, 51, 0
10, 184320, Note_on_c, 8, 46, 77
10, 184704, Note_off_c, 8, 46, 0
10, 184704, End_track
11, 0, Start_track
11, 0, Title_t, """Mache dich mein herz"" "
11, 0, Key_signature, 0, "major"
11, 0, End_track
12, 0, Start_track
12, 0, Title_t, "Bass aria (#75) from the"
12, 0, Key_signature, 0, "major"
12, 0, End_track
13, 0, Start_track
13, 0, Title_t, "St. Matthew Passion BWV244"
13, 0, Key_signature, 0, "major"
13, 0, End_track
14, 0, Start_track
14, 0, Title_t, "by J.S. Bach, 1729"
14, 0, Key_signature, 0, "major"
14, 0, End_track
15, 0, Start_track
15, 0, Title_t, "Sequenced by Ken Whitcomb \2511998"
15, 0, Key_signature, 0, "major"
15, 0, End_track
16, 0, Start_track
16, 0, Title_t, "kendawl@aol.com"
16, 0, Key_signature, 0, "major"
16, 0, End_track
0, 0, End_of_file