0, 0, Header, 1, 7, 120
1, 0, Start_track
1, 0, Time_signature, 4, 2, 24, 8
1, 0, Key_signature, 1, "major"
1, 0, Tempo, 769231
1, 0, Marker_t, "Gebt mir meinen Jesum Wieder"
1, 6720, Marker_t, "Bass Aria from J.S. Bach's St. Matthew Passion"
1, 16320, Marker_t, "4 October 1995  by James M. Westhues"
1, 16320, End_track
2, 0, Start_track
2, 0, MIDI_port, 0
2, 0, Title_t, "Violin Solo"
2, 0, Control_c, 0, 0, 0
2, 0, Program_c, 0, 48
2, 0, Control_c, 0, 7, 115
2, 0, Control_c, 0, 10, 50
2, 0, Control_c, 0, 93, 0
2, 0, Control_c, 0, 91, 72
2, 0, Note_on_c, 0, 67, 127
2, 59, Note_on_c, 0, 67, 0
2, 60, Note_on_c, 0, 62, 127
2, 179, Note_on_c, 0, 62, 0
2, 180, Note_on_c, 0, 60, 127
2, 239, Note_on_c, 0, 60, 0
2, 240, Note_on_c, 0, 59, 127
2, 299, Note_on_c, 0, 59, 0
2, 300, Note_on_c, 0, 60, 127
2, 329, Note_on_c, 0, 60, 0
2, 330, Note_on_c, 0, 62, 127
2, 359, Note_on_c, 0, 62, 0
2, 360, Note_on_c, 0, 64, 127
2, 419, Note_on_c, 0, 64, 0
2, 420, Note_on_c, 0, 69, 127
2, 479, Note_on_c, 0, 69, 0
2, 480, Note_on_c, 0, 66, 127
2, 539, Note_on_c, 0, 66, 0
2, 540, Note_on_c, 0, 67, 127
2, 599, Note_on_c, 0, 67, 0
2, 600, Note_on_c, 0, 72, 127
2, 659, Note_on_c, 0, 72, 0
2, 660, Note_on_c, 0, 71, 127
2, 719, Note_on_c, 0, 71, 0
2, 720, Note_on_c, 0, 71, 127
2, 739, Note_on_c, 0, 71, 0
2, 740, Note_on_c, 0, 72, 127
2, 759, Note_on_c, 0, 72, 0
2, 760, Note_on_c, 0, 71, 127
2, 779, Note_on_c, 0, 71, 0
2, 780, Note_on_c, 0, 69, 127
2, 839, Note_on_c, 0, 69, 0
2, 960, Note_on_c, 0, 69, 127
2, 1019, Note_on_c, 0, 69, 0
2, 1020, Note_on_c, 0, 64, 127
2, 1139, Note_on_c, 0, 64, 0
2, 1140, Note_on_c, 0, 62, 127
2, 1199, Note_on_c, 0, 62, 0
2, 1200, Note_on_c, 0, 60, 127
2, 1259, Note_on_c, 0, 60, 0
2, 1260, Note_on_c, 0, 62, 127
2, 1289, Note_on_c, 0, 62, 0
2, 1290, Note_on_c, 0, 64, 127
2, 1319, Note_on_c, 0, 64, 0
2, 1320, Note_on_c, 0, 65, 127
2, 1334, Note_on_c, 0, 65, 0
2, 1335, Note_on_c, 0, 64, 127
2, 1349, Note_on_c, 0, 64, 0
2, 1350, Note_on_c, 0, 62, 127
2, 1379, Note_on_c, 0, 62, 0
2, 1380, Note_on_c, 0, 71, 127
2, 1439, Note_on_c, 0, 71, 0
2, 1440, Note_on_c, 0, 68, 127
2, 1499, Note_on_c, 0, 68, 0
2, 1500, Note_on_c, 0, 69, 127
2, 1559, Note_on_c, 0, 69, 0
2, 1560, Note_on_c, 0, 74, 127
2, 1619, Note_on_c, 0, 74, 0
2, 1620, Note_on_c, 0, 72, 127
2, 1679, Note_on_c, 0, 72, 0
2, 1680, Note_on_c, 0, 72, 127
2, 1699, Note_on_c, 0, 72, 0
2, 1700, Note_on_c, 0, 74, 127
2, 1719, Note_on_c, 0, 74, 0
2, 1720, Note_on_c, 0, 72, 127
2, 1739, Note_on_c, 0, 72, 0
2, 1740, Note_on_c, 0, 71, 127
2, 1799, Note_on_c, 0, 71, 0
2, 1830, Note_on_c, 0, 71, 127
2, 1859, Note_on_c, 0, 71, 0
2, 1860, Note_on_c, 0, 69, 127
2, 1889, Note_on_c, 0, 69, 0
2, 1890, Note_on_c, 0, 71, 127
2, 1919, Note_on_c, 0, 71, 0
2, 1920, Note_on_c, 0, 72, 127
2, 1949, Note_on_c, 0, 72, 0
2, 1950, Note_on_c, 0, 64, 127
2, 1979, Note_on_c, 0, 64, 0
2, 1980, Note_on_c, 0, 57, 127
2, 2009, Note_on_c, 0, 57, 0
2, 2010, Note_on_c, 0, 64, 127
2, 2039, Note_on_c, 0, 64, 0
2, 2040, Note_on_c, 0, 72, 118
2, 2054, Note_on_c, 0, 72, 0
2, 2055, Note_on_c, 0, 69, 127
2, 2069, Note_on_c, 0, 69, 0
2, 2070, Note_on_c, 0, 71, 127
2, 2084, Note_on_c, 0, 71, 0
2, 2085, Note_on_c, 0, 72, 127
2, 2099, Note_on_c, 0, 72, 0
2, 2100, Note_on_c, 0, 74, 127
2, 2114, Note_on_c, 0, 74, 0
2, 2115, Note_on_c, 0, 76, 127
2, 2129, Note_on_c, 0, 76, 0
2, 2130, Note_on_c, 0, 78, 127
2, 2144, Note_on_c, 0, 78, 0
2, 2145, Note_on_c, 0, 79, 127
2, 2159, Note_on_c, 0, 79, 0
2, 2160, Note_on_c, 0, 81, 127
2, 2189, Note_on_c, 0, 81, 0
2, 2190, Note_on_c, 0, 72, 127
2, 2219, Note_on_c, 0, 72, 0
2, 2220, Note_on_c, 0, 64, 127
2, 2249, Note_on_c, 0, 64, 0
2, 2250, Note_on_c, 0, 72, 127
2, 2279, Note_on_c, 0, 72, 0
2, 2280, Note_on_c, 0, 81, 127
2, 2309, Note_on_c, 0, 81, 0
2, 2310, Note_on_c, 0, 72, 127
2, 2339, Note_on_c, 0, 72, 0
2, 2340, Note_on_c, 0, 79, 127
2, 2369, Note_on_c, 0, 79, 0
2, 2370, Note_on_c, 0, 72, 127
2, 2399, Note_on_c, 0, 72, 0
2, 2400, Note_on_c, 0, 78, 127
2, 2429, Note_on_c, 0, 78, 0
2, 2430, Note_on_c, 0, 72, 127
2, 2459, Note_on_c, 0, 72, 0
2, 2460, Note_on_c, 0, 62, 127
2, 2489, Note_on_c, 0, 62, 0
2, 2490, Note_on_c, 0, 72, 127
2, 2519, Note_on_c, 0, 72, 0
2, 2520, Note_on_c, 0, 78, 127
2, 2534, Note_on_c, 0, 78, 0
2, 2535, Note_on_c, 0, 74, 127
2, 2549, Note_on_c, 0, 74, 0
2, 2550, Note_on_c, 0, 76, 127
2, 2564, Note_on_c, 0, 76, 0
2, 2565, Note_on_c, 0, 78, 127
2, 2579, Note_on_c, 0, 78, 0
2, 2580, Note_on_c, 0, 79, 127
2, 2594, Note_on_c, 0, 79, 0
2, 2595, Note_on_c, 0, 81, 127
2, 2609, Note_on_c, 0, 81, 0
2, 2610, Note_on_c, 0, 83, 127
2, 2624, Note_on_c, 0, 83, 0
2, 2625, Note_on_c, 0, 84, 127
2, 2639, Note_on_c, 0, 84, 0
2, 2640, Note_on_c, 0, 86, 127
2, 2669, Note_on_c, 0, 86, 0
2, 2670, Note_on_c, 0, 74, 111
2, 2699, Note_on_c, 0, 74, 0
2, 2700, Note_on_c, 0, 62, 127
2, 2729, Note_on_c, 0, 62, 0
2, 2730, Note_on_c, 0, 74, 127
2, 2759, Note_on_c, 0, 74, 0
2, 2760, Note_on_c, 0, 86, 118
2, 2789, Note_on_c, 0, 86, 0
2, 2790, Note_on_c, 0, 74, 127
2, 2819, Note_on_c, 0, 74, 0
2, 2820, Note_on_c, 0, 84, 127
2, 2849, Note_on_c, 0, 84, 0
2, 2850, Note_on_c, 0, 74, 127
2, 2879, Note_on_c, 0, 74, 0
2, 2880, Note_on_c, 0, 83, 127
2, 2909, Note_on_c, 0, 83, 0
2, 2910, Note_on_c, 0, 74, 127
2, 2939, Note_on_c, 0, 74, 0
2, 2940, Note_on_c, 0, 67, 127
2, 2969, Note_on_c, 0, 67, 0
2, 2970, Note_on_c, 0, 74, 127
2, 2999, Note_on_c, 0, 74, 0
2, 3000, Note_on_c, 0, 83, 127
2, 3029, Note_on_c, 0, 83, 0
2, 3030, Note_on_c, 0, 74, 127
2, 3059, Note_on_c, 0, 74, 0
2, 3060, Note_on_c, 0, 83, 127
2, 3089, Note_on_c, 0, 83, 0
2, 3090, Note_on_c, 0, 74, 127
2, 3119, Note_on_c, 0, 74, 0
2, 3120, Note_on_c, 0, 83, 127
2, 3149, Note_on_c, 0, 83, 0
2, 3150, Note_on_c, 0, 76, 127
2, 3179, Note_on_c, 0, 76, 0
2, 3180, Note_on_c, 0, 67, 127
2, 3209, Note_on_c, 0, 67, 0
2, 3210, Note_on_c, 0, 76, 127
2, 3239, Note_on_c, 0, 76, 0
2, 3240, Note_on_c, 0, 84, 127
2, 3269, Note_on_c, 0, 84, 0
2, 3270, Note_on_c, 0, 76, 127
2, 3299, Note_on_c, 0, 76, 0
2, 3300, Note_on_c, 0, 83, 127
2, 3329, Note_on_c, 0, 83, 0
2, 3330, Note_on_c, 0, 76, 127
2, 3359, Note_on_c, 0, 76, 0
2, 3360, Note_on_c, 0, 81, 115
2, 3389, Note_on_c, 0, 81, 0
2, 3390, Note_on_c, 0, 76, 127
2, 3419, Note_on_c, 0, 76, 0
2, 3420, Note_on_c, 0, 66, 127
2, 3449, Note_on_c, 0, 66, 0
2, 3450, Note_on_c, 0, 76, 127
2, 3479, Note_on_c, 0, 76, 0
2, 3480, Note_on_c, 0, 81, 127
2, 3509, Note_on_c, 0, 81, 0
2, 3510, Note_on_c, 0, 76, 127
2, 3539, Note_on_c, 0, 76, 0
2, 3540, Note_on_c, 0, 81, 120
2, 3569, Note_on_c, 0, 81, 0
2, 3570, Note_on_c, 0, 76, 127
2, 3599, Note_on_c, 0, 76, 0
2, 3600, Note_on_c, 0, 81, 115
2, 3629, Note_on_c, 0, 81, 0
2, 3630, Note_on_c, 0, 74, 127
2, 3659, Note_on_c, 0, 74, 0
2, 3660, Note_on_c, 0, 66, 127
2, 3689, Note_on_c, 0, 66, 0
2, 3690, Note_on_c, 0, 74, 127
2, 3719, Note_on_c, 0, 74, 0
2, 3720, Note_on_c, 0, 83, 127
2, 3749, Note_on_c, 0, 83, 0
2, 3750, Note_on_c, 0, 74, 127
2, 3779, Note_on_c, 0, 74, 0
2, 3780, Note_on_c, 0, 81, 127
2, 3809, Note_on_c, 0, 81, 0
2, 3810, Note_on_c, 0, 74, 127
2, 3839, Note_on_c, 0, 74, 0
2, 3840, Note_on_c, 0, 79, 127
2, 3869, Note_on_c, 0, 79, 0
2, 3870, Note_on_c, 0, 74, 127
2, 3899, Note_on_c, 0, 74, 0
2, 3900, Note_on_c, 0, 64, 127
2, 3929, Note_on_c, 0, 64, 0
2, 3930, Note_on_c, 0, 74, 127
2, 3959, Note_on_c, 0, 74, 0
2, 3960, Note_on_c, 0, 79, 127
2, 3989, Note_on_c, 0, 79, 0
2, 3990, Note_on_c, 0, 74, 127
2, 4019, Note_on_c, 0, 74, 0
2, 4020, Note_on_c, 0, 79, 127
2, 4049, Note_on_c, 0, 79, 0
2, 4050, Note_on_c, 0, 74, 127
2, 4079, Note_on_c, 0, 74, 0
2, 4080, Note_on_c, 0, 79, 127
2, 4109, Note_on_c, 0, 79, 0
2, 4110, Note_on_c, 0, 72, 127
2, 4139, Note_on_c, 0, 72, 0
2, 4140, Note_on_c, 0, 64, 127
2, 4169, Note_on_c, 0, 64, 0
2, 4170, Note_on_c, 0, 72, 127
2, 4199, Note_on_c, 0, 72, 0
2, 4200, Note_on_c, 0, 81, 127
2, 4229, Note_on_c, 0, 81, 0
2, 4230, Note_on_c, 0, 72, 127
2, 4259, Note_on_c, 0, 72, 0
2, 4260, Note_on_c, 0, 79, 127
2, 4289, Note_on_c, 0, 79, 0
2, 4290, Note_on_c, 0, 72, 127
2, 4319, Note_on_c, 0, 72, 0
2, 4320, Note_on_c, 0, 78, 127
2, 4349, Note_on_c, 0, 78, 0
2, 4350, Note_on_c, 0, 72, 127
2, 4379, Note_on_c, 0, 72, 0
2, 4380, Note_on_c, 0, 62, 127
2, 4409, Note_on_c, 0, 62, 0
2, 4410, Note_on_c, 0, 72, 127
2, 4439, Note_on_c, 0, 72, 0
2, 4440, Note_on_c, 0, 78, 127
2, 4469, Note_on_c, 0, 78, 0
2, 4470, Note_on_c, 0, 72, 127
2, 4499, Note_on_c, 0, 72, 0
2, 4500, Note_on_c, 0, 79, 127
2, 4529, Note_on_c, 0, 79, 0
2, 4530, Note_on_c, 0, 72, 127
2, 4559, Note_on_c, 0, 72, 0
2, 4560, Note_on_c, 0, 81, 127
2, 4589, Note_on_c, 0, 81, 0
2, 4590, Note_on_c, 0, 72, 127
2, 4619, Note_on_c, 0, 72, 0
2, 4620, Note_on_c, 0, 83, 127
2, 4649, Note_on_c, 0, 83, 0
2, 4650, Note_on_c, 0, 72, 127
2, 4679, Note_on_c, 0, 72, 0
2, 4680, Note_on_c, 0, 81, 127
2, 4709, Note_on_c, 0, 81, 0
2, 4710, Note_on_c, 0, 72, 118
2, 4739, Note_on_c, 0, 72, 0
2, 4740, Note_on_c, 0, 79, 127
2, 4769, Note_on_c, 0, 79, 0
2, 4770, Note_on_c, 0, 72, 127
2, 4799, Note_on_c, 0, 72, 0
2, 4800, Note_on_c, 0, 78, 127
2, 4829, Note_on_c, 0, 78, 0
2, 4830, Note_on_c, 0, 72, 127
2, 4859, Note_on_c, 0, 72, 0
2, 4860, Note_on_c, 0, 62, 127
2, 4889, Note_on_c, 0, 62, 0
2, 4890, Note_on_c, 0, 72, 127
2, 4919, Note_on_c, 0, 72, 0
2, 4920, Note_on_c, 0, 78, 127
2, 4949, Note_on_c, 0, 78, 0
2, 4950, Note_on_c, 0, 72, 127
2, 4979, Note_on_c, 0, 72, 0
2, 4980, Note_on_c, 0, 79, 127
2, 5009, Note_on_c, 0, 79, 0
2, 5010, Note_on_c, 0, 72, 127
2, 5039, Note_on_c, 0, 72, 0
2, 5040, Note_on_c, 0, 81, 127
2, 5069, Note_on_c, 0, 81, 0
2, 5070, Note_on_c, 0, 72, 127
2, 5099, Note_on_c, 0, 72, 0
2, 5100, Note_on_c, 0, 83, 120
2, 5129, Note_on_c, 0, 83, 0
2, 5130, Note_on_c, 0, 72, 127
2, 5159, Note_on_c, 0, 72, 0
2, 5160, Note_on_c, 0, 81, 127
2, 5189, Note_on_c, 0, 81, 0
2, 5190, Note_on_c, 0, 72, 127
2, 5219, Note_on_c, 0, 72, 0
2, 5220, Note_on_c, 0, 79, 127
2, 5249, Note_on_c, 0, 79, 0
2, 5250, Note_on_c, 0, 72, 127
2, 5279, Note_on_c, 0, 72, 0
2, 5280, Note_on_c, 0, 78, 127
2, 5309, Note_on_c, 0, 78, 0
2, 5310, Note_on_c, 0, 72, 127
2, 5339, Note_on_c, 0, 72, 0
2, 5340, Note_on_c, 0, 71, 127
2, 5369, Note_on_c, 0, 71, 0
2, 5370, Note_on_c, 0, 69, 127
2, 5399, Note_on_c, 0, 69, 0
2, 5400, Note_on_c, 0, 71, 127
2, 5429, Note_on_c, 0, 71, 0
2, 5430, Note_on_c, 0, 79, 127
2, 5459, Note_on_c, 0, 79, 0
2, 5460, Note_on_c, 0, 69, 127
2, 5489, Note_on_c, 0, 69, 0
2, 5490, Note_on_c, 0, 67, 127
2, 5519, Note_on_c, 0, 67, 0
2, 5520, Note_on_c, 0, 62, 127
2, 5549, Note_on_c, 0, 62, 0
2, 5550, Note_on_c, 0, 69, 127
2, 5579, Note_on_c, 0, 69, 0
2, 5580, Note_on_c, 0, 79, 127
2, 5609, Note_on_c, 0, 79, 0
2, 5610, Note_on_c, 0, 76, 127
2, 5639, Note_on_c, 0, 76, 0
2, 5640, Note_on_c, 0, 78, 127
2, 5669, Note_on_c, 0, 78, 0
2, 5670, Note_on_c, 0, 81, 127
2, 5699, Note_on_c, 0, 81, 0
2, 5700, Note_on_c, 0, 74, 127
2, 5729, Note_on_c, 0, 74, 0
2, 5730, Note_on_c, 0, 78, 127
2, 5759, Note_on_c, 0, 78, 0
2, 5760, Note_on_c, 0, 79, 127
2, 5810, Control_c, 0, 7, 113
2, 5815, Control_c, 0, 7, 104
2, 5815, Control_c, 0, 7, 106
2, 5819, Note_on_c, 0, 79, 0
2, 5820, Note_on_c, 0, 67, 127
2, 5845, Control_c, 0, 7, 103
2, 5850, Control_c, 0, 7, 101
2, 5865, Control_c, 0, 7, 99
2, 5865, Control_c, 0, 7, 100
2, 5879, Note_on_c, 0, 67, 0
2, 5880, Control_c, 0, 7, 98
2, 5885, Control_c, 0, 7, 97
2, 5910, Control_c, 0, 7, 96
2, 6300, Note_on_c, 0, 67, 127
2, 6359, Note_on_c, 0, 67, 0
2, 6360, Note_on_c, 0, 72, 111
2, 6419, Note_on_c, 0, 72, 0
2, 6420, Note_on_c, 0, 71, 111
2, 6479, Note_on_c, 0, 71, 0
2, 6480, Note_on_c, 0, 71, 110
2, 6499, Note_on_c, 0, 71, 0
2, 6500, Note_on_c, 0, 72, 115
2, 6519, Note_on_c, 0, 72, 0
2, 6520, Note_on_c, 0, 71, 118
2, 6539, Note_on_c, 0, 71, 0
2, 6540, Note_on_c, 0, 69, 127
2, 6629, Note_on_c, 0, 69, 0
2, 6630, Note_on_c, 0, 71, 120
2, 6644, Note_on_c, 0, 71, 0
2, 6645, Note_on_c, 0, 72, 115
2, 6659, Note_on_c, 0, 72, 0
2, 6660, Note_on_c, 0, 74, 120
2, 6674, Note_on_c, 0, 74, 0
2, 6675, Note_on_c, 0, 76, 118
2, 6689, Note_on_c, 0, 76, 0
2, 6690, Note_on_c, 0, 78, 125
2, 6704, Note_on_c, 0, 78, 0
2, 6705, Note_on_c, 0, 80, 127
2, 6719, Note_on_c, 0, 80, 0
2, 6720, Note_on_c, 0, 81, 127
2, 6779, Note_on_c, 0, 81, 0
2, 6780, Note_on_c, 0, 69, 127
2, 6839, Note_on_c, 0, 69, 0
2, 7260, Note_on_c, 0, 69, 127
2, 7319, Note_on_c, 0, 69, 0
2, 7320, Note_on_c, 0, 74, 127
2, 7379, Note_on_c, 0, 74, 0
2, 7380, Note_on_c, 0, 72, 127
2, 7439, Note_on_c, 0, 72, 0
2, 7440, Note_on_c, 0, 72, 115
2, 7459, Note_on_c, 0, 72, 0
2, 7460, Note_on_c, 0, 74, 120
2, 7479, Note_on_c, 0, 74, 0
2, 7480, Note_on_c, 0, 72, 117
2, 7499, Note_on_c, 0, 72, 0
2, 7500, Note_on_c, 0, 71, 127
2, 7559, Note_on_c, 0, 71, 0
2, 7560, Note_on_c, 0, 71, 127
2, 7574, Note_on_c, 0, 71, 0
2, 7575, Note_on_c, 0, 69, 127
2, 7589, Note_on_c, 0, 69, 0
2, 7590, Note_on_c, 0, 71, 127
2, 7604, Note_on_c, 0, 71, 0
2, 7605, Note_on_c, 0, 72, 110
2, 7619, Note_on_c, 0, 72, 0
2, 7620, Note_on_c, 0, 74, 120
2, 7634, Note_on_c, 0, 74, 0
2, 7635, Note_on_c, 0, 76, 115
2, 7649, Note_on_c, 0, 76, 0
2, 7650, Note_on_c, 0, 78, 126
2, 7664, Note_on_c, 0, 78, 0
2, 7665, Note_on_c, 0, 80, 126
2, 7679, Note_on_c, 0, 80, 0
2, 7680, Note_on_c, 0, 81, 118
2, 7709, Note_on_c, 0, 81, 0
2, 7710, Note_on_c, 0, 72, 115
2, 7739, Note_on_c, 0, 72, 0
2, 7740, Note_on_c, 0, 64, 127
2, 7769, Note_on_c, 0, 64, 0
2, 7770, Note_on_c, 0, 72, 118
2, 7799, Note_on_c, 0, 72, 0
2, 7799, Note_on_c, 0, 81, 120
2, 7828, Note_on_c, 0, 81, 0
2, 7829, Note_on_c, 0, 72, 117
2, 7858, Note_on_c, 0, 72, 0
2, 7859, Note_on_c, 0, 81, 127
2, 7888, Note_on_c, 0, 81, 0
2, 7889, Note_on_c, 0, 72, 127
2, 7918, Note_on_c, 0, 72, 0
2, 7919, Note_on_c, 0, 81, 127
2, 7948, Note_on_c, 0, 81, 0
2, 7949, Note_on_c, 0, 72, 127
2, 7978, Note_on_c, 0, 72, 0
2, 7979, Note_on_c, 0, 62, 127
2, 8008, Note_on_c, 0, 62, 0
2, 8009, Note_on_c, 0, 72, 127
2, 8038, Note_on_c, 0, 72, 0
2, 8039, Note_on_c, 0, 81, 127
2, 8068, Note_on_c, 0, 81, 0
2, 8069, Note_on_c, 0, 72, 127
2, 8098, Note_on_c, 0, 72, 0
2, 8099, Note_on_c, 0, 81, 127
2, 8128, Note_on_c, 0, 81, 0
2, 8129, Note_on_c, 0, 72, 127
2, 8158, Note_on_c, 0, 72, 0
2, 8158, Note_on_c, 0, 79, 127
2, 8187, Note_on_c, 0, 79, 0
2, 8188, Note_on_c, 0, 71, 127
2, 8217, Note_on_c, 0, 71, 0
2, 8218, Note_on_c, 0, 62, 127
2, 8247, Note_on_c, 0, 62, 0
2, 8248, Note_on_c, 0, 71, 127
2, 8277, Note_on_c, 0, 71, 0
2, 8278, Note_on_c, 0, 79, 127
2, 8307, Note_on_c, 0, 79, 0
2, 8308, Note_on_c, 0, 71, 127
2, 8337, Note_on_c, 0, 71, 0
2, 8338, Note_on_c, 0, 79, 127
2, 8367, Note_on_c, 0, 79, 0
2, 8368, Note_on_c, 0, 71, 127
2, 8397, Note_on_c, 0, 71, 0
2, 8398, Note_on_c, 0, 79, 127
2, 8427, Note_on_c, 0, 79, 0
2, 8428, Note_on_c, 0, 69, 127
2, 8457, Note_on_c, 0, 69, 0
2, 8458, Note_on_c, 0, 64, 127
2, 8487, Note_on_c, 0, 64, 0
2, 8488, Note_on_c, 0, 69, 127
2, 8517, Note_on_c, 0, 69, 0
2, 8518, Note_on_c, 0, 78, 127
2, 8547, Note_on_c, 0, 78, 0
2, 8548, Note_on_c, 0, 69, 127
2, 8577, Note_on_c, 0, 69, 0
2, 8578, Note_on_c, 0, 78, 127
2, 8607, Note_on_c, 0, 78, 0
2, 8608, Note_on_c, 0, 69, 127
2, 8637, Note_on_c, 0, 69, 0
2, 8637, Note_on_c, 0, 78, 127
2, 8666, Note_on_c, 0, 78, 0
2, 8667, Note_on_c, 0, 71, 127
2, 8696, Note_on_c, 0, 71, 0
2, 8697, Note_on_c, 0, 69, 127
2, 8726, Note_on_c, 0, 69, 0
2, 8727, Note_on_c, 0, 71, 127
2, 8756, Note_on_c, 0, 71, 0
2, 8757, Note_on_c, 0, 78, 127
2, 8786, Note_on_c, 0, 78, 0
2, 8787, Note_on_c, 0, 71, 127
2, 8816, Note_on_c, 0, 71, 0
2, 8817, Note_on_c, 0, 78, 127
2, 8846, Note_on_c, 0, 78, 0
2, 8847, Note_on_c, 0, 71, 127
2, 8876, Note_on_c, 0, 71, 0
2, 8877, Note_on_c, 0, 76, 127
2, 8906, Note_on_c, 0, 76, 0
2, 8907, Note_on_c, 0, 71, 127
2, 8936, Note_on_c, 0, 71, 0
2, 8937, Note_on_c, 0, 67, 127
2, 8966, Note_on_c, 0, 67, 0
2, 8967, Note_on_c, 0, 71, 127
2, 8996, Note_on_c, 0, 71, 0
2, 8997, Note_on_c, 0, 76, 127
2, 9056, Note_on_c, 0, 76, 0
2, 9387, Note_on_c, 0, 81, 127
2, 9416, Note_on_c, 0, 81, 0
2, 9417, Note_on_c, 0, 83, 117
2, 9446, Note_on_c, 0, 83, 0
2, 9447, Note_on_c, 0, 81, 118
2, 9476, Note_on_c, 0, 81, 0
2, 9477, Note_on_c, 0, 79, 127
2, 9506, Note_on_c, 0, 79, 0
2, 9507, Note_on_c, 0, 78, 127
2, 9536, Note_on_c, 0, 78, 0
2, 9537, Note_on_c, 0, 76, 127
2, 9566, Note_on_c, 0, 76, 0
2, 9567, Note_on_c, 0, 74, 127
2, 9596, Note_on_c, 0, 74, 0
2, 9597, Note_on_c, 0, 73, 127
2, 9626, Note_on_c, 0, 73, 0
2, 9627, Note_on_c, 0, 67, 127
2, 9656, Note_on_c, 0, 67, 0
2, 9657, Note_on_c, 0, 57, 127
2, 9686, Note_on_c, 0, 57, 0
2, 9687, Note_on_c, 0, 67, 127
2, 9716, Note_on_c, 0, 67, 0
2, 9717, Note_on_c, 0, 73, 127
2, 9746, Note_on_c, 0, 73, 0
2, 9747, Note_on_c, 0, 67, 127
2, 9776, Note_on_c, 0, 67, 0
2, 9777, Note_on_c, 0, 74, 127
2, 9806, Note_on_c, 0, 74, 0
2, 9807, Note_on_c, 0, 67, 127
2, 9836, Note_on_c, 0, 67, 0
2, 9837, Note_on_c, 0, 76, 127
2, 9866, Note_on_c, 0, 76, 0
2, 9867, Note_on_c, 0, 67, 127
2, 9896, Note_on_c, 0, 67, 0
2, 9897, Note_on_c, 0, 78, 127
2, 9926, Note_on_c, 0, 78, 0
2, 9927, Note_on_c, 0, 67, 127
2, 9956, Note_on_c, 0, 67, 0
2, 9957, Note_on_c, 0, 76, 127
2, 9986, Note_on_c, 0, 76, 0
2, 9987, Note_on_c, 0, 67, 127
2, 10016, Note_on_c, 0, 67, 0
2, 10017, Note_on_c, 0, 74, 127
2, 10046, Note_on_c, 0, 74, 0
2, 10047, Note_on_c, 0, 67, 127
2, 10076, Note_on_c, 0, 67, 0
2, 10077, Note_on_c, 0, 73, 127
2, 10106, Note_on_c, 0, 73, 0
2, 10107, Note_on_c, 0, 67, 127
2, 10136, Note_on_c, 0, 67, 0
2, 10137, Note_on_c, 0, 57, 127
2, 10166, Note_on_c, 0, 57, 0
2, 10167, Note_on_c, 0, 67, 127
2, 10196, Note_on_c, 0, 67, 0
2, 10197, Note_on_c, 0, 73, 127
2, 10226, Note_on_c, 0, 73, 0
2, 10227, Note_on_c, 0, 67, 127
2, 10256, Note_on_c, 0, 67, 0
2, 10257, Note_on_c, 0, 74, 127
2, 10286, Note_on_c, 0, 74, 0
2, 10287, Note_on_c, 0, 67, 127
2, 10316, Note_on_c, 0, 67, 0
2, 10317, Note_on_c, 0, 76, 127
2, 10346, Note_on_c, 0, 76, 0
2, 10347, Note_on_c, 0, 67, 127
2, 10376, Note_on_c, 0, 67, 0
2, 10377, Note_on_c, 0, 78, 127
2, 10406, Note_on_c, 0, 78, 0
2, 10407, Note_on_c, 0, 67, 127
2, 10436, Note_on_c, 0, 67, 0
2, 10437, Note_on_c, 0, 76, 127
2, 10466, Note_on_c, 0, 76, 0
2, 10467, Note_on_c, 0, 67, 127
2, 10496, Note_on_c, 0, 67, 0
2, 10497, Note_on_c, 0, 74, 127
2, 10526, Note_on_c, 0, 74, 0
2, 10527, Note_on_c, 0, 67, 127
2, 10556, Note_on_c, 0, 67, 0
2, 10560, Note_on_c, 0, 73, 125
2, 10589, Note_on_c, 0, 73, 0
2, 10590, Note_on_c, 0, 67, 127
2, 10619, Note_on_c, 0, 67, 0
2, 10620, Note_on_c, 0, 57, 127
2, 10649, Note_on_c, 0, 57, 0
2, 10650, Note_on_c, 0, 67, 127
2, 10679, Note_on_c, 0, 67, 0
2, 10680, Note_on_c, 0, 73, 127
2, 10709, Note_on_c, 0, 73, 0
2, 10710, Note_on_c, 0, 67, 127
2, 10739, Note_on_c, 0, 67, 0
2, 10740, Note_on_c, 0, 74, 127
2, 10769, Note_on_c, 0, 74, 0
2, 10770, Note_on_c, 0, 67, 127
2, 10799, Note_on_c, 0, 67, 0
2, 10800, Note_on_c, 0, 76, 127
2, 10829, Note_on_c, 0, 76, 0
2, 10830, Note_on_c, 0, 67, 127
2, 10859, Note_on_c, 0, 67, 0
2, 10860, Note_on_c, 0, 73, 127
2, 10889, Note_on_c, 0, 73, 0
2, 10890, Note_on_c, 0, 67, 127
2, 10919, Note_on_c, 0, 67, 0
2, 10920, Note_on_c, 0, 76, 127
2, 10949, Note_on_c, 0, 76, 0
2, 10950, Note_on_c, 0, 67, 127
2, 10979, Note_on_c, 0, 67, 0
2, 10980, Note_on_c, 0, 73, 127
2, 11009, Note_on_c, 0, 73, 0
2, 11010, Note_on_c, 0, 67, 127
2, 11039, Note_on_c, 0, 67, 0
2, 11040, Note_on_c, 0, 74, 127
2, 11069, Note_on_c, 0, 74, 0
2, 11070, Note_on_c, 0, 66, 127
2, 11099, Note_on_c, 0, 66, 0
2, 11100, Note_on_c, 0, 57, 127
2, 11129, Note_on_c, 0, 57, 0
2, 11130, Note_on_c, 0, 66, 127
2, 11159, Note_on_c, 0, 66, 0
2, 11160, Note_on_c, 0, 74, 127
2, 11189, Note_on_c, 0, 74, 0
2, 11190, Note_on_c, 0, 66, 127
2, 11219, Note_on_c, 0, 66, 0
2, 11220, Note_on_c, 0, 74, 127
2, 11249, Note_on_c, 0, 74, 0
2, 11250, Note_on_c, 0, 66, 127
2, 11279, Note_on_c, 0, 66, 0
2, 11280, Note_on_c, 0, 73, 127
2, 11309, Note_on_c, 0, 73, 0
2, 11310, Note_on_c, 0, 67, 127
2, 11339, Note_on_c, 0, 67, 0
2, 11340, Note_on_c, 0, 57, 127
2, 11369, Note_on_c, 0, 57, 0
2, 11370, Note_on_c, 0, 67, 127
2, 11399, Note_on_c, 0, 67, 0
2, 11400, Note_on_c, 0, 73, 127
2, 11429, Note_on_c, 0, 73, 0
2, 11430, Note_on_c, 0, 67, 127
2, 11459, Note_on_c, 0, 67, 0
2, 11460, Note_on_c, 0, 74, 127
2, 11489, Note_on_c, 0, 74, 0
2, 11490, Note_on_c, 0, 67, 127
2, 11519, Note_on_c, 0, 67, 0
2, 11520, Note_on_c, 0, 76, 127
2, 11549, Note_on_c, 0, 76, 0
2, 11550, Note_on_c, 0, 67, 127
2, 11579, Note_on_c, 0, 67, 0
2, 11580, Note_on_c, 0, 73, 127
2, 11609, Note_on_c, 0, 73, 0
2, 11610, Note_on_c, 0, 67, 127
2, 11639, Note_on_c, 0, 67, 0
2, 11640, Note_on_c, 0, 76, 127
2, 11669, Note_on_c, 0, 76, 0
2, 11670, Note_on_c, 0, 67, 127
2, 11699, Note_on_c, 0, 67, 0
2, 11700, Note_on_c, 0, 73, 127
2, 11729, Note_on_c, 0, 73, 0
2, 11730, Note_on_c, 0, 67, 127
2, 11759, Note_on_c, 0, 67, 0
2, 11760, Note_on_c, 0, 74, 127
2, 11819, Note_on_c, 0, 74, 0
2, 12450, Control_c, 0, 7, 97
2, 12455, Control_c, 0, 7, 99
2, 12460, Control_c, 0, 7, 100
2, 12465, Control_c, 0, 7, 103
2, 12465, Control_c, 0, 7, 102
2, 12470, Control_c, 0, 7, 105
2, 12475, Control_c, 0, 7, 106
2, 12480, Control_c, 0, 7, 109
2, 12480, Control_c, 0, 7, 107
2, 12480, Note_on_c, 0, 74, 127
2, 12485, Control_c, 0, 7, 110
2, 12490, Control_c, 0, 7, 113
2, 12490, Control_c, 0, 7, 111
2, 12495, Control_c, 0, 7, 114
2, 12539, Note_on_c, 0, 74, 0
2, 12540, Note_on_c, 0, 69, 127
2, 12659, Note_on_c, 0, 69, 0
2, 12660, Note_on_c, 0, 67, 127
2, 12719, Note_on_c, 0, 67, 0
2, 12720, Note_on_c, 0, 66, 127
2, 12779, Note_on_c, 0, 66, 0
2, 12780, Note_on_c, 0, 67, 127
2, 12809, Note_on_c, 0, 67, 0
2, 12810, Note_on_c, 0, 69, 127
2, 12839, Note_on_c, 0, 69, 0
2, 12840, Note_on_c, 0, 71, 127
2, 12899, Note_on_c, 0, 71, 0
2, 12900, Note_on_c, 0, 76, 127
2, 12959, Note_on_c, 0, 76, 0
2, 12960, Note_on_c, 0, 73, 127
2, 13019, Note_on_c, 0, 73, 0
2, 13020, Note_on_c, 0, 74, 127
2, 13079, Note_on_c, 0, 74, 0
2, 13080, Note_on_c, 0, 79, 127
2, 13139, Note_on_c, 0, 79, 0
2, 13140, Note_on_c, 0, 78, 127
2, 13199, Note_on_c, 0, 78, 0
2, 13200, Note_on_c, 0, 78, 127
2, 13219, Note_on_c, 0, 78, 0
2, 13220, Note_on_c, 0, 79, 127
2, 13239, Note_on_c, 0, 79, 0
2, 13240, Note_on_c, 0, 78, 127
2, 13259, Note_on_c, 0, 78, 0
2, 13260, Note_on_c, 0, 76, 127
2, 13319, Note_on_c, 0, 76, 0
2, 13440, Note_on_c, 0, 76, 127
2, 13499, Note_on_c, 0, 76, 0
2, 13500, Note_on_c, 0, 71, 127
2, 13619, Note_on_c, 0, 71, 0
2, 13620, Note_on_c, 0, 69, 127
2, 13679, Note_on_c, 0, 69, 0
2, 13680, Note_on_c, 0, 67, 127
2, 13739, Note_on_c, 0, 67, 0
2, 13740, Note_on_c, 0, 69, 127
2, 13769, Note_on_c, 0, 69, 0
2, 13770, Note_on_c, 0, 71, 127
2, 13799, Note_on_c, 0, 71, 0
2, 13800, Note_on_c, 0, 72, 118
2, 13814, Note_on_c, 0, 72, 0
2, 13815, Note_on_c, 0, 71, 127
2, 13829, Note_on_c, 0, 71, 0
2, 13830, Note_on_c, 0, 69, 127
2, 13859, Note_on_c, 0, 69, 0
2, 13860, Note_on_c, 0, 78, 127
2, 13919, Note_on_c, 0, 78, 0
2, 13920, Note_on_c, 0, 75, 127
2, 13979, Note_on_c, 0, 75, 0
2, 13980, Note_on_c, 0, 76, 127
2, 14039, Note_on_c, 0, 76, 0
2, 14040, Note_on_c, 0, 81, 127
2, 14099, Note_on_c, 0, 81, 0
2, 14100, Note_on_c, 0, 79, 127
2, 14159, Note_on_c, 0, 79, 0
2, 14160, Note_on_c, 0, 79, 127
2, 14179, Note_on_c, 0, 79, 0
2, 14180, Note_on_c, 0, 81, 127
2, 14199, Note_on_c, 0, 81, 0
2, 14200, Note_on_c, 0, 79, 127
2, 14219, Note_on_c, 0, 79, 0
2, 14220, Note_on_c, 0, 78, 127
2, 14279, Note_on_c, 0, 78, 0
2, 14310, Note_on_c, 0, 78, 127
2, 14339, Note_on_c, 0, 78, 0
2, 14340, Note_on_c, 0, 76, 127
2, 14369, Note_on_c, 0, 76, 0
2, 14370, Note_on_c, 0, 78, 127
2, 14399, Note_on_c, 0, 78, 0
2, 14400, Note_on_c, 0, 79, 127
2, 14429, Note_on_c, 0, 79, 0
2, 14430, Note_on_c, 0, 71, 127
2, 14459, Note_on_c, 0, 71, 0
2, 14460, Note_on_c, 0, 64, 127
2, 14489, Note_on_c, 0, 64, 0
2, 14490, Note_on_c, 0, 71, 127
2, 14519, Note_on_c, 0, 71, 0
2, 14520, Note_on_c, 0, 79, 127
2, 14534, Note_on_c, 0, 79, 0
2, 14535, Note_on_c, 0, 81, 127
2, 14549, Note_on_c, 0, 81, 0
2, 14550, Note_on_c, 0, 79, 127
2, 14564, Note_on_c, 0, 79, 0
2, 14565, Note_on_c, 0, 78, 127
2, 14579, Note_on_c, 0, 78, 0
2, 14580, Note_on_c, 0, 76, 127
2, 14594, Note_on_c, 0, 76, 0
2, 14595, Note_on_c, 0, 74, 127
2, 14609, Note_on_c, 0, 74, 0
2, 14610, Note_on_c, 0, 72, 127
2, 14624, Note_on_c, 0, 72, 0
2, 14625, Note_on_c, 0, 71, 127
2, 14639, Note_on_c, 0, 71, 0
2, 14640, Note_on_c, 0, 72, 127
2, 14669, Note_on_c, 0, 72, 0
2, 14670, Note_on_c, 0, 64, 127
2, 14699, Note_on_c, 0, 64, 0
2, 14700, Note_on_c, 0, 57, 127
2, 14729, Note_on_c, 0, 57, 0
2, 14730, Note_on_c, 0, 64, 127
2, 14759, Note_on_c, 0, 64, 0
2, 14760, Note_on_c, 0, 72, 127
2, 14774, Note_on_c, 0, 72, 0
2, 14775, Note_on_c, 0, 69, 127
2, 14789, Note_on_c, 0, 69, 0
2, 14790, Note_on_c, 0, 71, 127
2, 14804, Note_on_c, 0, 71, 0
2, 14805, Note_on_c, 0, 72, 127
2, 14819, Note_on_c, 0, 72, 0
2, 14820, Note_on_c, 0, 74, 127
2, 14834, Note_on_c, 0, 74, 0
2, 14835, Note_on_c, 0, 76, 127
2, 14849, Note_on_c, 0, 76, 0
2, 14850, Note_on_c, 0, 78, 127
2, 14864, Note_on_c, 0, 78, 0
2, 14865, Note_on_c, 0, 79, 127
2, 14879, Note_on_c, 0, 79, 0
2, 14880, Note_on_c, 0, 78, 127
2, 14909, Note_on_c, 0, 78, 0
2, 14910, Note_on_c, 0, 69, 127
2, 14939, Note_on_c, 0, 69, 0
2, 14940, Note_on_c, 0, 62, 127
2, 14969, Note_on_c, 0, 62, 0
2, 14970, Note_on_c, 0, 69, 127
2, 14999, Note_on_c, 0, 69, 0
2, 15000, Note_on_c, 0, 78, 127
2, 15014, Note_on_c, 0, 78, 0
2, 15015, Note_on_c, 0, 79, 127
2, 15029, Note_on_c, 0, 79, 0
2, 15030, Note_on_c, 0, 78, 127
2, 15044, Note_on_c, 0, 78, 0
2, 15045, Note_on_c, 0, 76, 127
2, 15059, Note_on_c, 0, 76, 0
2, 15060, Note_on_c, 0, 74, 127
2, 15074, Note_on_c, 0, 74, 0
2, 15075, Note_on_c, 0, 72, 127
2, 15089, Note_on_c, 0, 72, 0
2, 15090, Note_on_c, 0, 71, 127
2, 15104, Note_on_c, 0, 71, 0
2, 15105, Note_on_c, 0, 69, 127
2, 15119, Note_on_c, 0, 69, 0
2, 15120, Note_on_c, 0, 71, 127
2, 15149, Note_on_c, 0, 71, 0
2, 15150, Note_on_c, 0, 62, 127
2, 15179, Note_on_c, 0, 62, 0
2, 15180, Note_on_c, 0, 55, 127
2, 15209, Note_on_c, 0, 55, 0
2, 15210, Note_on_c, 0, 62, 127
2, 15239, Note_on_c, 0, 62, 0
2, 15240, Note_on_c, 0, 71, 127
2, 15254, Note_on_c, 0, 71, 0
2, 15255, Note_on_c, 0, 67, 127
2, 15269, Note_on_c, 0, 67, 0
2, 15270, Note_on_c, 0, 69, 127
2, 15284, Note_on_c, 0, 69, 0
2, 15285, Note_on_c, 0, 71, 127
2, 15299, Note_on_c, 0, 71, 0
2, 15300, Note_on_c, 0, 72, 127
2, 15314, Note_on_c, 0, 72, 0
2, 15315, Note_on_c, 0, 74, 127
2, 15329, Note_on_c, 0, 74, 0
2, 15330, Note_on_c, 0, 76, 127
2, 15335, Control_c, 0, 7, 113
2, 15340, Control_c, 0, 7, 112
2, 15344, Note_on_c, 0, 76, 0
2, 15345, Note_on_c, 0, 77, 127
2, 15350, Control_c, 0, 7, 109
2, 15355, Control_c, 0, 7, 107
2, 15355, Control_c, 0, 7, 108
2, 15359, Note_on_c, 0, 77, 0
2, 15360, Note_on_c, 0, 76, 127
2, 15365, Control_c, 0, 7, 106
2, 15370, Control_c, 0, 7, 104
2, 15370, Control_c, 0, 7, 105
2, 15380, Control_c, 0, 7, 102
2, 15380, Control_c, 0, 7, 103
2, 15385, Control_c, 0, 7, 100
2, 15385, Control_c, 0, 7, 101
2, 15389, Note_on_c, 0, 76, 0
2, 15390, Control_c, 0, 7, 99
2, 15390, Note_on_c, 0, 74, 127
2, 15395, Control_c, 0, 7, 97
2, 15395, Control_c, 0, 7, 98
2, 15400, Control_c, 0, 7, 95
2, 15400, Control_c, 0, 7, 96
2, 15405, Control_c, 0, 7, 94
2, 15410, Control_c, 0, 7, 92
2, 15410, Control_c, 0, 7, 93
2, 15415, Control_c, 0, 7, 91
2, 15419, Note_on_c, 0, 74, 0
2, 15420, Control_c, 0, 7, 89
2, 15420, Note_on_c, 0, 68, 127
2, 15430, Control_c, 0, 7, 88
2, 15435, Control_c, 0, 7, 86
2, 15440, Control_c, 0, 7, 85
2, 15445, Control_c, 0, 7, 84
2, 15449, Note_on_c, 0, 68, 0
2, 15450, Note_on_c, 0, 74, 127
2, 15479, Note_on_c, 0, 74, 0
2, 15480, Note_on_c, 0, 76, 127
2, 15509, Note_on_c, 0, 76, 0
2, 15510, Note_on_c, 0, 74, 127
2, 15539, Note_on_c, 0, 74, 0
2, 15540, Note_on_c, 0, 76, 127
2, 15569, Note_on_c, 0, 76, 0
2, 15570, Note_on_c, 0, 74, 127
2, 15599, Note_on_c, 0, 74, 0
2, 15600, Note_on_c, 0, 83, 127
2, 15629, Note_on_c, 0, 83, 0
2, 15630, Note_on_c, 0, 74, 127
2, 15659, Note_on_c, 0, 74, 0
2, 15660, Note_on_c, 0, 64, 127
2, 15689, Note_on_c, 0, 64, 0
2, 15690, Note_on_c, 0, 74, 127
2, 15719, Note_on_c, 0, 74, 0
2, 15720, Note_on_c, 0, 83, 127
2, 15749, Note_on_c, 0, 83, 0
2, 15750, Note_on_c, 0, 74, 127
2, 15779, Note_on_c, 0, 74, 0
2, 15780, Note_on_c, 0, 83, 127
2, 15809, Note_on_c, 0, 83, 0
2, 15810, Note_on_c, 0, 74, 127
2, 15839, Note_on_c, 0, 74, 0
2, 15840, Note_on_c, 0, 83, 127
2, 15869, Note_on_c, 0, 83, 0
2, 15870, Note_on_c, 0, 72, 127
2, 15899, Note_on_c, 0, 72, 0
2, 15900, Note_on_c, 0, 64, 127
2, 15929, Note_on_c, 0, 64, 0
2, 15930, Note_on_c, 0, 72, 127
2, 15959, Note_on_c, 0, 72, 0
2, 15960, Note_on_c, 0, 83, 127
2, 15989, Note_on_c, 0, 83, 0
2, 15990, Note_on_c, 0, 72, 127
2, 16019, Note_on_c, 0, 72, 0
2, 16020, Note_on_c, 0, 83, 127
2, 16049, Note_on_c, 0, 83, 0
2, 16050, Note_on_c, 0, 72, 127
2, 16079, Note_on_c, 0, 72, 0
2, 16080, Note_on_c, 0, 81, 127
2, 16109, Note_on_c, 0, 81, 0
2, 16110, Note_on_c, 0, 72, 127
2, 16139, Note_on_c, 0, 72, 0
2, 16140, Note_on_c, 0, 64, 127
2, 16169, Note_on_c, 0, 64, 0
2, 16170, Note_on_c, 0, 72, 127
2, 16199, Note_on_c, 0, 72, 0
2, 16200, Note_on_c, 0, 81, 127
2, 16229, Note_on_c, 0, 81, 0
2, 16230, Note_on_c, 0, 72, 127
2, 16259, Note_on_c, 0, 72, 0
2, 16260, Note_on_c, 0, 81, 127
2, 16289, Note_on_c, 0, 81, 0
2, 16290, Note_on_c, 0, 72, 127
2, 16319, Note_on_c, 0, 72, 0
2, 16320, Note_on_c, 0, 81, 127
2, 16349, Note_on_c, 0, 81, 0
2, 16350, Note_on_c, 0, 72, 127
2, 16379, Note_on_c, 0, 72, 0
2, 16380, Note_on_c, 0, 62, 127
2, 16409, Note_on_c, 0, 62, 0
2, 16410, Note_on_c, 0, 72, 127
2, 16439, Note_on_c, 0, 72, 0
2, 16440, Note_on_c, 0, 79, 127
2, 16469, Note_on_c, 0, 79, 0
2, 16470, Note_on_c, 0, 71, 127
2, 16499, Note_on_c, 0, 71, 0
2, 16500, Note_on_c, 0, 79, 127
2, 16529, Note_on_c, 0, 79, 0
2, 16530, Note_on_c, 0, 71, 127
2, 16559, Note_on_c, 0, 71, 0
2, 16560, Note_on_c, 0, 79, 127
2, 16589, Note_on_c, 0, 79, 0
2, 16590, Note_on_c, 0, 72, 127
2, 16619, Note_on_c, 0, 72, 0
2, 16620, Note_on_c, 0, 64, 127
2, 16649, Note_on_c, 0, 64, 0
2, 16650, Note_on_c, 0, 72, 127
2, 16679, Note_on_c, 0, 72, 0
2, 16680, Note_on_c, 0, 79, 127
2, 16739, Note_on_c, 0, 79, 0
2, 17070, Note_on_c, 0, 79, 127
2, 17099, Note_on_c, 0, 79, 0
2, 17100, Note_on_c, 0, 81, 118
2, 17129, Note_on_c, 0, 81, 0
2, 17130, Note_on_c, 0, 79, 127
2, 17159, Note_on_c, 0, 79, 0
2, 17160, Note_on_c, 0, 77, 127
2, 17189, Note_on_c, 0, 77, 0
2, 17190, Note_on_c, 0, 76, 127
2, 17219, Note_on_c, 0, 76, 0
2, 17220, Note_on_c, 0, 74, 127
2, 17249, Note_on_c, 0, 74, 0
2, 17250, Note_on_c, 0, 72, 113
2, 17279, Note_on_c, 0, 72, 0
2, 17280, Note_on_c, 0, 71, 118
2, 17309, Note_on_c, 0, 71, 0
2, 17310, Note_on_c, 0, 65, 127
2, 17339, Note_on_c, 0, 65, 0
2, 17340, Note_on_c, 0, 55, 127
2, 17369, Note_on_c, 0, 55, 0
2, 17370, Note_on_c, 0, 65, 127
2, 17399, Note_on_c, 0, 65, 0
2, 17400, Note_on_c, 0, 71, 127
2, 17429, Note_on_c, 0, 71, 0
2, 17430, Note_on_c, 0, 65, 127
2, 17459, Note_on_c, 0, 65, 0
2, 17460, Note_on_c, 0, 72, 127
2, 17489, Note_on_c, 0, 72, 0
2, 17490, Note_on_c, 0, 65, 127
2, 17519, Note_on_c, 0, 65, 0
2, 17520, Note_on_c, 0, 74, 127
2, 17549, Note_on_c, 0, 74, 0
2, 17550, Note_on_c, 0, 65, 127
2, 17579, Note_on_c, 0, 65, 0
2, 17580, Note_on_c, 0, 76, 127
2, 17609, Note_on_c, 0, 76, 0
2, 17610, Note_on_c, 0, 65, 127
2, 17639, Note_on_c, 0, 65, 0
2, 17640, Note_on_c, 0, 74, 127
2, 17669, Note_on_c, 0, 74, 0
2, 17670, Note_on_c, 0, 65, 127
2, 17699, Note_on_c, 0, 65, 0
2, 17700, Note_on_c, 0, 72, 127
2, 17729, Note_on_c, 0, 72, 0
2, 17730, Note_on_c, 0, 65, 127
2, 17759, Note_on_c, 0, 65, 0
2, 17760, Note_on_c, 0, 71, 127
2, 17789, Note_on_c, 0, 71, 0
2, 17790, Note_on_c, 0, 65, 127
2, 17819, Note_on_c, 0, 65, 0
2, 17820, Note_on_c, 0, 55, 127
2, 17849, Note_on_c, 0, 55, 0
2, 17850, Note_on_c, 0, 65, 127
2, 17879, Note_on_c, 0, 65, 0
2, 17880, Note_on_c, 0, 71, 127
2, 17909, Note_on_c, 0, 71, 0
2, 17910, Note_on_c, 0, 65, 127
2, 17939, Note_on_c, 0, 65, 0
2, 17940, Note_on_c, 0, 72, 127
2, 17969, Note_on_c, 0, 72, 0
2, 17970, Note_on_c, 0, 65, 127
2, 17999, Note_on_c, 0, 65, 0
2, 18000, Note_on_c, 0, 74, 127
2, 18029, Note_on_c, 0, 74, 0
2, 18030, Note_on_c, 0, 65, 127
2, 18059, Note_on_c, 0, 65, 0
2, 18060, Note_on_c, 0, 76, 127
2, 18089, Note_on_c, 0, 76, 0
2, 18090, Note_on_c, 0, 65, 127
2, 18119, Note_on_c, 0, 65, 0
2, 18120, Note_on_c, 0, 74, 127
2, 18149, Note_on_c, 0, 74, 0
2, 18150, Note_on_c, 0, 65, 127
2, 18179, Note_on_c, 0, 65, 0
2, 18180, Note_on_c, 0, 72, 127
2, 18209, Note_on_c, 0, 72, 0
2, 18210, Note_on_c, 0, 65, 127
2, 18239, Note_on_c, 0, 65, 0
2, 18240, Note_on_c, 0, 71, 127
2, 18269, Note_on_c, 0, 71, 0
2, 18270, Note_on_c, 0, 65, 127
2, 18299, Note_on_c, 0, 65, 0
2, 18300, Note_on_c, 0, 55, 127
2, 18359, Note_on_c, 0, 55, 0
2, 18940, Control_c, 0, 7, 85
2, 18945, Control_c, 0, 7, 86
2, 18950, Control_c, 0, 7, 87
2, 18955, Control_c, 0, 7, 88
2, 18960, Control_c, 0, 7, 89
2, 18964, Control_c, 0, 7, 90
2, 18970, Control_c, 0, 7, 91
2, 18975, Control_c, 0, 7, 92
2, 18980, Control_c, 0, 7, 93
2, 18985, Control_c, 0, 7, 96
2, 18985, Control_c, 0, 7, 95
2, 18990, Control_c, 0, 7, 97
2, 18995, Control_c, 0, 7, 100
2, 18995, Control_c, 0, 7, 99
2, 19000, Control_c, 0, 7, 102
2, 19005, Control_c, 0, 7, 104
2, 19005, Control_c, 0, 7, 103
2, 19010, Control_c, 0, 7, 105
2, 19030, Control_c, 0, 7, 106
2, 19060, Control_c, 0, 7, 107
2, 19075, Control_c, 0, 7, 108
2, 19099, Control_c, 0, 7, 109
2, 19109, Control_c, 0, 7, 110
2, 19119, Control_c, 0, 7, 111
2, 19200, Note_on_c, 0, 67, 127
2, 19215, Control_c, 0, 7, 112
2, 19220, Control_c, 0, 7, 114
2, 19220, Control_c, 0, 7, 113
2, 19245, Control_c, 0, 7, 115
2, 19259, Note_on_c, 0, 67, 0
2, 19260, Note_on_c, 0, 62, 127
2, 19379, Note_on_c, 0, 62, 0
2, 19380, Note_on_c, 0, 60, 127
2, 19439, Note_on_c, 0, 60, 0
2, 19440, Note_on_c, 0, 59, 127
2, 19499, Note_on_c, 0, 59, 0
2, 19500, Note_on_c, 0, 60, 127
2, 19529, Note_on_c, 0, 60, 0
2, 19530, Note_on_c, 0, 62, 127
2, 19559, Note_on_c, 0, 62, 0
2, 19560, Note_on_c, 0, 64, 127
2, 19619, Note_on_c, 0, 64, 0
2, 19620, Note_on_c, 0, 69, 127
2, 19679, Note_on_c, 0, 69, 0
2, 19680, Note_on_c, 0, 66, 127
2, 19739, Note_on_c, 0, 66, 0
2, 19740, Note_on_c, 0, 67, 127
2, 19799, Note_on_c, 0, 67, 0
2, 19800, Note_on_c, 0, 72, 127
2, 19859, Note_on_c, 0, 72, 0
2, 19860, Note_on_c, 0, 71, 127
2, 19919, Note_on_c, 0, 71, 0
2, 19920, Note_on_c, 0, 71, 127
2, 19939, Note_on_c, 0, 71, 0
2, 19940, Note_on_c, 0, 72, 118
2, 19959, Note_on_c, 0, 72, 0
2, 19960, Note_on_c, 0, 71, 127
2, 19979, Note_on_c, 0, 71, 0
2, 19980, Note_on_c, 0, 69, 127
2, 20005, Control_c, 0, 7, 114
2, 20030, Control_c, 0, 7, 113
2, 20039, Note_on_c, 0, 69, 0
2, 20039, Control_c, 0, 7, 111
2, 20050, Control_c, 0, 7, 108
2, 20050, Control_c, 0, 7, 109
2, 20055, Control_c, 0, 7, 107
2, 20060, Control_c, 0, 7, 106
2, 20065, Control_c, 0, 7, 102
2, 20065, Control_c, 0, 7, 104
2, 20075, Control_c, 0, 7, 100
2, 20075, Control_c, 0, 7, 101
2, 20080, Control_c, 0, 7, 99
2, 20090, Control_c, 0, 7, 97
2, 20090, Control_c, 0, 7, 98
2, 20095, Control_c, 0, 7, 96
2, 20100, Control_c, 0, 7, 94
2, 20100, Control_c, 0, 7, 95
2, 20110, Control_c, 0, 7, 93
2, 20130, Control_c, 0, 7, 92
2, 20190, Note_on_c, 0, 72, 120
2, 20195, Control_c, 0, 7, 91
2, 20219, Note_on_c, 0, 72, 0
2, 20220, Note_on_c, 0, 62, 127
2, 20249, Note_on_c, 0, 62, 0
2, 20250, Note_on_c, 0, 72, 127
2, 20279, Note_on_c, 0, 72, 0
2, 20280, Note_on_c, 0, 81, 127
2, 20309, Note_on_c, 0, 81, 0
2, 20310, Note_on_c, 0, 72, 127
2, 20339, Note_on_c, 0, 72, 0
2, 20340, Note_on_c, 0, 81, 127
2, 20369, Note_on_c, 0, 81, 0
2, 20370, Note_on_c, 0, 72, 127
2, 20399, Note_on_c, 0, 72, 0
2, 20400, Note_on_c, 0, 81, 127
2, 20429, Note_on_c, 0, 81, 0
2, 20430, Note_on_c, 0, 71, 127
2, 20459, Note_on_c, 0, 71, 0
2, 20460, Note_on_c, 0, 62, 127
2, 20489, Note_on_c, 0, 62, 0
2, 20490, Note_on_c, 0, 71, 127
2, 20519, Note_on_c, 0, 71, 0
2, 20520, Note_on_c, 0, 81, 127
2, 20549, Note_on_c, 0, 81, 0
2, 20550, Note_on_c, 0, 71, 127
2, 20579, Note_on_c, 0, 71, 0
2, 20580, Note_on_c, 0, 81, 127
2, 20609, Note_on_c, 0, 81, 0
2, 20610, Note_on_c, 0, 71, 127
2, 20639, Note_on_c, 0, 71, 0
2, 20640, Note_on_c, 0, 79, 127
2, 20669, Note_on_c, 0, 79, 0
2, 20670, Note_on_c, 0, 71, 127
2, 20699, Note_on_c, 0, 71, 0
2, 20700, Note_on_c, 0, 64, 127
2, 20729, Note_on_c, 0, 64, 0
2, 20730, Note_on_c, 0, 71, 127
2, 20759, Note_on_c, 0, 71, 0
2, 20760, Note_on_c, 0, 79, 127
2, 20789, Note_on_c, 0, 79, 0
2, 20790, Note_on_c, 0, 71, 127
2, 20819, Note_on_c, 0, 71, 0
2, 20820, Note_on_c, 0, 79, 127
2, 20849, Note_on_c, 0, 79, 0
2, 20850, Note_on_c, 0, 71, 127
2, 20879, Note_on_c, 0, 71, 0
2, 20880, Note_on_c, 0, 79, 127
2, 20909, Note_on_c, 0, 79, 0
2, 20910, Note_on_c, 0, 72, 127
2, 20939, Note_on_c, 0, 72, 0
2, 20940, Note_on_c, 0, 69, 127
2, 20969, Note_on_c, 0, 69, 0
2, 20970, Note_on_c, 0, 72, 127
2, 20999, Note_on_c, 0, 72, 0
2, 21000, Note_on_c, 0, 77, 127
2, 21029, Note_on_c, 0, 77, 0
2, 21030, Note_on_c, 0, 72, 127
2, 21059, Note_on_c, 0, 72, 0
2, 21060, Note_on_c, 0, 77, 127
2, 21089, Note_on_c, 0, 77, 0
2, 21090, Note_on_c, 0, 72, 127
2, 21119, Note_on_c, 0, 72, 0
2, 21120, Note_on_c, 0, 77, 127
2, 21149, Note_on_c, 0, 77, 0
2, 21150, Note_on_c, 0, 74, 127
2, 21179, Note_on_c, 0, 74, 0
2, 21180, Note_on_c, 0, 67, 127
2, 21209, Note_on_c, 0, 67, 0
2, 21210, Note_on_c, 0, 74, 127
2, 21239, Note_on_c, 0, 74, 0
2, 21240, Note_on_c, 0, 77, 127
2, 21269, Note_on_c, 0, 77, 0
2, 21270, Note_on_c, 0, 74, 127
2, 21299, Note_on_c, 0, 74, 0
2, 21300, Note_on_c, 0, 77, 127
2, 21329, Note_on_c, 0, 77, 0
2, 21330, Note_on_c, 0, 74, 127
2, 21359, Note_on_c, 0, 74, 0
2, 21360, Note_on_c, 0, 76, 127
2, 21389, Note_on_c, 0, 76, 0
2, 21390, Note_on_c, 0, 74, 127
2, 21419, Note_on_c, 0, 74, 0
2, 21420, Note_on_c, 0, 67, 127
2, 21449, Note_on_c, 0, 67, 0
2, 21450, Note_on_c, 0, 74, 127
2, 21479, Note_on_c, 0, 74, 0
2, 21480, Note_on_c, 0, 76, 127
2, 21509, Note_on_c, 0, 76, 0
2, 21510, Note_on_c, 0, 74, 127
2, 21539, Note_on_c, 0, 74, 0
2, 21540, Note_on_c, 0, 76, 127
2, 21569, Note_on_c, 0, 76, 0
2, 21570, Note_on_c, 0, 74, 127
2, 21599, Note_on_c, 0, 74, 0
2, 21600, Note_on_c, 0, 81, 127
2, 21629, Note_on_c, 0, 81, 0
2, 21630, Note_on_c, 0, 72, 127
2, 21659, Note_on_c, 0, 72, 0
2, 21660, Note_on_c, 0, 64, 127
2, 21689, Note_on_c, 0, 64, 0
2, 21690, Note_on_c, 0, 72, 127
2, 21719, Note_on_c, 0, 72, 0
2, 21720, Note_on_c, 0, 81, 127
2, 21749, Note_on_c, 0, 81, 0
2, 21750, Note_on_c, 0, 72, 127
2, 21779, Note_on_c, 0, 72, 0
2, 21780, Note_on_c, 0, 81, 127
2, 21809, Note_on_c, 0, 81, 0
2, 21810, Note_on_c, 0, 72, 127
2, 21839, Note_on_c, 0, 72, 0
2, 21840, Note_on_c, 0, 81, 127
2, 21869, Note_on_c, 0, 81, 0
2, 21870, Note_on_c, 0, 72, 127
2, 21899, Note_on_c, 0, 72, 0
2, 21900, Note_on_c, 0, 62, 127
2, 21929, Note_on_c, 0, 62, 0
2, 21930, Note_on_c, 0, 72, 127
2, 21959, Note_on_c, 0, 72, 0
2, 21960, Note_on_c, 0, 81, 127
2, 22019, Note_on_c, 0, 81, 0
2, 22860, Note_on_c, 0, 72, 127
2, 22889, Note_on_c, 0, 72, 0
2, 22890, Note_on_c, 0, 74, 127
2, 22919, Note_on_c, 0, 74, 0
2, 22920, Note_on_c, 0, 76, 127
2, 22949, Note_on_c, 0, 76, 0
2, 22950, Note_on_c, 0, 78, 127
2, 22979, Note_on_c, 0, 78, 0
2, 22980, Note_on_c, 0, 79, 127
2, 23009, Note_on_c, 0, 79, 0
2, 23010, Note_on_c, 0, 76, 127
2, 23039, Note_on_c, 0, 76, 0
2, 23040, Note_on_c, 0, 78, 127
2, 23069, Note_on_c, 0, 78, 0
2, 23070, Note_on_c, 0, 72, 127
2, 23099, Note_on_c, 0, 72, 0
2, 23100, Note_on_c, 0, 64, 127
2, 23129, Note_on_c, 0, 64, 0
2, 23130, Note_on_c, 0, 72, 127
2, 23159, Note_on_c, 0, 72, 0
2, 23160, Note_on_c, 0, 78, 127
2, 23189, Note_on_c, 0, 78, 0
2, 23190, Note_on_c, 0, 72, 120
2, 23219, Note_on_c, 0, 72, 0
2, 23220, Note_on_c, 0, 79, 127
2, 23249, Note_on_c, 0, 79, 0
2, 23250, Note_on_c, 0, 72, 127
2, 23279, Note_on_c, 0, 72, 0
2, 23280, Note_on_c, 0, 81, 127
2, 23309, Note_on_c, 0, 81, 0
2, 23310, Note_on_c, 0, 72, 118
2, 23339, Note_on_c, 0, 72, 0
2, 23340, Note_on_c, 0, 83, 127
2, 23369, Note_on_c, 0, 83, 0
2, 23370, Note_on_c, 0, 72, 127
2, 23399, Note_on_c, 0, 72, 0
2, 23400, Note_on_c, 0, 81, 127
2, 23429, Note_on_c, 0, 81, 0
2, 23430, Note_on_c, 0, 72, 127
2, 23459, Note_on_c, 0, 72, 0
2, 23460, Note_on_c, 0, 79, 127
2, 23489, Note_on_c, 0, 79, 0
2, 23490, Note_on_c, 0, 72, 118
2, 23519, Note_on_c, 0, 72, 0
2, 23520, Note_on_c, 0, 78, 127
2, 23549, Note_on_c, 0, 78, 0
2, 23550, Note_on_c, 0, 72, 127
2, 23579, Note_on_c, 0, 72, 0
2, 23580, Note_on_c, 0, 62, 127
2, 23609, Note_on_c, 0, 62, 0
2, 23610, Note_on_c, 0, 72, 127
2, 23639, Note_on_c, 0, 72, 0
2, 23640, Note_on_c, 0, 78, 127
2, 23669, Note_on_c, 0, 78, 0
2, 23670, Note_on_c, 0, 72, 127
2, 23699, Note_on_c, 0, 72, 0
2, 23700, Note_on_c, 0, 79, 127
2, 23729, Note_on_c, 0, 79, 0
2, 23730, Note_on_c, 0, 72, 127
2, 23759, Note_on_c, 0, 72, 0
2, 23760, Note_on_c, 0, 81, 127
2, 23789, Note_on_c, 0, 81, 0
2, 23790, Note_on_c, 0, 72, 127
2, 23819, Note_on_c, 0, 72, 0
2, 23820, Note_on_c, 0, 83, 127
2, 23849, Note_on_c, 0, 83, 0
2, 23850, Note_on_c, 0, 72, 127
2, 23879, Note_on_c, 0, 72, 0
2, 23880, Note_on_c, 0, 81, 127
2, 23909, Note_on_c, 0, 81, 0
2, 23910, Note_on_c, 0, 72, 127
2, 23939, Note_on_c, 0, 72, 0
2, 23940, Note_on_c, 0, 79, 127
2, 23969, Note_on_c, 0, 79, 0
2, 23970, Note_on_c, 0, 72, 127
2, 23999, Note_on_c, 0, 72, 0
2, 24000, Note_on_c, 0, 78, 127
2, 24029, Note_on_c, 0, 78, 0
2, 24030, Note_on_c, 0, 72, 127
2, 24059, Note_on_c, 0, 72, 0
2, 24060, Note_on_c, 0, 62, 127
2, 24089, Note_on_c, 0, 62, 0
2, 24090, Note_on_c, 0, 72, 127
2, 24119, Note_on_c, 0, 72, 0
2, 24120, Note_on_c, 0, 78, 127
2, 24179, Note_on_c, 0, 78, 0
2, 24960, Note_on_c, 0, 67, 127
2, 24985, Control_c, 0, 7, 97
2, 24990, Control_c, 0, 7, 101
2, 25010, Control_c, 0, 7, 102
2, 25019, Note_on_c, 0, 67, 0
2, 25020, Control_c, 0, 7, 104
2, 25020, Control_c, 0, 7, 103
2, 25020, Note_on_c, 0, 62, 127
2, 25040, Control_c, 0, 7, 105
2, 25070, Control_c, 0, 7, 106
2, 25090, Control_c, 0, 7, 107
2, 25095, Control_c, 0, 7, 108
2, 25135, Control_c, 0, 7, 109
2, 25139, Note_on_c, 0, 62, 0
2, 25140, Note_on_c, 0, 60, 127
2, 25199, Note_on_c, 0, 60, 0
2, 25200, Note_on_c, 0, 59, 127
2, 25259, Note_on_c, 0, 59, 0
2, 25260, Note_on_c, 0, 60, 127
2, 25289, Note_on_c, 0, 60, 0
2, 25290, Note_on_c, 0, 62, 127
2, 25319, Note_on_c, 0, 62, 0
2, 25320, Note_on_c, 0, 64, 127
2, 25379, Note_on_c, 0, 64, 0
2, 25380, Note_on_c, 0, 69, 127
2, 25439, Note_on_c, 0, 69, 0
2, 25440, Note_on_c, 0, 66, 127
2, 25499, Note_on_c, 0, 66, 0
2, 25500, Note_on_c, 0, 67, 127
2, 25559, Note_on_c, 0, 67, 0
2, 25560, Note_on_c, 0, 72, 127
2, 25619, Note_on_c, 0, 72, 0
2, 25620, Note_on_c, 0, 71, 127
2, 25679, Note_on_c, 0, 71, 0
2, 25680, Note_on_c, 0, 71, 127
2, 25699, Note_on_c, 0, 71, 0
2, 25700, Note_on_c, 0, 72, 118
2, 25719, Note_on_c, 0, 72, 0
2, 25720, Note_on_c, 0, 71, 127
2, 25739, Note_on_c, 0, 71, 0
2, 25740, Note_on_c, 0, 69, 127
2, 25799, Note_on_c, 0, 69, 0
2, 25920, Note_on_c, 0, 69, 127
2, 25979, Note_on_c, 0, 69, 0
2, 25980, Note_on_c, 0, 64, 127
2, 26099, Note_on_c, 0, 64, 0
2, 26100, Note_on_c, 0, 62, 127
2, 26159, Note_on_c, 0, 62, 0
2, 26160, Note_on_c, 0, 60, 127
2, 26219, Note_on_c, 0, 60, 0
2, 26220, Note_on_c, 0, 62, 127
2, 26249, Note_on_c, 0, 62, 0
2, 26250, Note_on_c, 0, 64, 127
2, 26279, Note_on_c, 0, 64, 0
2, 26280, Note_on_c, 0, 65, 127
2, 26294, Note_on_c, 0, 65, 0
2, 26295, Note_on_c, 0, 64, 127
2, 26309, Note_on_c, 0, 64, 0
2, 26310, Note_on_c, 0, 62, 127
2, 26339, Note_on_c, 0, 62, 0
2, 26340, Note_on_c, 0, 71, 127
2, 26399, Note_on_c, 0, 71, 0
2, 26400, Note_on_c, 0, 68, 127
2, 26459, Note_on_c, 0, 68, 0
2, 26460, Note_on_c, 0, 69, 127
2, 26519, Note_on_c, 0, 69, 0
2, 26520, Note_on_c, 0, 74, 127
2, 26579, Note_on_c, 0, 74, 0
2, 26580, Note_on_c, 0, 72, 127
2, 26639, Note_on_c, 0, 72, 0
2, 26640, Note_on_c, 0, 72, 127
2, 26659, Note_on_c, 0, 72, 0
2, 26660, Note_on_c, 0, 74, 127
2, 26679, Note_on_c, 0, 74, 0
2, 26680, Note_on_c, 0, 72, 127
2, 26699, Note_on_c, 0, 72, 0
2, 26700, Note_on_c, 0, 71, 127
2, 26759, Note_on_c, 0, 71, 0
2, 26790, Note_on_c, 0, 71, 127
2, 26819, Note_on_c, 0, 71, 0
2, 26820, Note_on_c, 0, 69, 127
2, 26849, Note_on_c, 0, 69, 0
2, 26850, Note_on_c, 0, 71, 127
2, 26879, Note_on_c, 0, 71, 0
2, 26880, Note_on_c, 0, 72, 127
2, 26909, Note_on_c, 0, 72, 0
2, 26910, Note_on_c, 0, 64, 127
2, 26939, Note_on_c, 0, 64, 0
2, 26940, Note_on_c, 0, 57, 127
2, 26969, Note_on_c, 0, 57, 0
2, 26970, Note_on_c, 0, 64, 127
2, 26999, Note_on_c, 0, 64, 0
2, 27000, Note_on_c, 0, 72, 127
2, 27014, Note_on_c, 0, 72, 0
2, 27015, Note_on_c, 0, 69, 127
2, 27029, Note_on_c, 0, 69, 0
2, 27030, Note_on_c, 0, 71, 127
2, 27044, Note_on_c, 0, 71, 0
2, 27045, Note_on_c, 0, 72, 117
2, 27059, Note_on_c, 0, 72, 0
2, 27060, Note_on_c, 0, 74, 127
2, 27074, Note_on_c, 0, 74, 0
2, 27075, Note_on_c, 0, 76, 127
2, 27089, Note_on_c, 0, 76, 0
2, 27090, Note_on_c, 0, 78, 127
2, 27104, Note_on_c, 0, 78, 0
2, 27105, Note_on_c, 0, 79, 127
2, 27119, Note_on_c, 0, 79, 0
2, 27120, Note_on_c, 0, 81, 127
2, 27149, Note_on_c, 0, 81, 0
2, 27150, Note_on_c, 0, 72, 127
2, 27179, Note_on_c, 0, 72, 0
2, 27180, Note_on_c, 0, 64, 127
2, 27209, Note_on_c, 0, 64, 0
2, 27210, Note_on_c, 0, 72, 127
2, 27239, Note_on_c, 0, 72, 0
2, 27240, Note_on_c, 0, 81, 127
2, 27269, Note_on_c, 0, 81, 0
2, 27270, Note_on_c, 0, 72, 127
2, 27299, Note_on_c, 0, 72, 0
2, 27300, Note_on_c, 0, 79, 127
2, 27329, Note_on_c, 0, 79, 0
2, 27330, Note_on_c, 0, 72, 127
2, 27359, Note_on_c, 0, 72, 0
2, 27360, Note_on_c, 0, 78, 127
2, 27389, Note_on_c, 0, 78, 0
2, 27390, Note_on_c, 0, 72, 127
2, 27419, Note_on_c, 0, 72, 0
2, 27420, Note_on_c, 0, 62, 127
2, 27449, Note_on_c, 0, 62, 0
2, 27450, Note_on_c, 0, 72, 127
2, 27479, Note_on_c, 0, 72, 0
2, 27480, Note_on_c, 0, 78, 127
2, 27494, Note_on_c, 0, 78, 0
2, 27495, Note_on_c, 0, 74, 127
2, 27509, Note_on_c, 0, 74, 0
2, 27510, Note_on_c, 0, 76, 120
2, 27524, Note_on_c, 0, 76, 0
2, 27525, Note_on_c, 0, 78, 127
2, 27539, Note_on_c, 0, 78, 0
2, 27540, Note_on_c, 0, 79, 127
2, 27554, Note_on_c, 0, 79, 0
2, 27555, Note_on_c, 0, 81, 127
2, 27569, Note_on_c, 0, 81, 0
2, 27570, Note_on_c, 0, 83, 127
2, 27584, Note_on_c, 0, 83, 0
2, 27585, Note_on_c, 0, 84, 127
2, 27599, Note_on_c, 0, 84, 0
2, 27600, Note_on_c, 0, 86, 127
2, 27629, Note_on_c, 0, 86, 0
2, 27630, Note_on_c, 0, 74, 127
2, 27659, Note_on_c, 0, 74, 0
2, 27660, Note_on_c, 0, 62, 127
2, 27689, Note_on_c, 0, 62, 0
2, 27690, Note_on_c, 0, 74, 127
2, 27719, Note_on_c, 0, 74, 0
2, 27720, Note_on_c, 0, 86, 127
2, 27749, Note_on_c, 0, 86, 0
2, 27750, Note_on_c, 0, 74, 127
2, 27779, Note_on_c, 0, 74, 0
2, 27780, Note_on_c, 0, 84, 127
2, 27809, Note_on_c, 0, 84, 0
2, 27810, Note_on_c, 0, 74, 127
2, 27839, Note_on_c, 0, 74, 0
2, 27840, Note_on_c, 0, 83, 127
2, 27869, Note_on_c, 0, 83, 0
2, 27870, Note_on_c, 0, 74, 127
2, 27899, Note_on_c, 0, 74, 0
2, 27900, Note_on_c, 0, 67, 127
2, 27929, Note_on_c, 0, 67, 0
2, 27930, Note_on_c, 0, 74, 127
2, 27959, Note_on_c, 0, 74, 0
2, 27960, Note_on_c, 0, 83, 127
2, 27989, Note_on_c, 0, 83, 0
2, 27990, Note_on_c, 0, 74, 127
2, 28019, Note_on_c, 0, 74, 0
2, 28020, Note_on_c, 0, 83, 127
2, 28049, Note_on_c, 0, 83, 0
2, 28050, Note_on_c, 0, 74, 127
2, 28079, Note_on_c, 0, 74, 0
2, 28080, Note_on_c, 0, 83, 127
2, 28109, Note_on_c, 0, 83, 0
2, 28110, Note_on_c, 0, 76, 127
2, 28139, Note_on_c, 0, 76, 0
2, 28140, Note_on_c, 0, 67, 127
2, 28169, Note_on_c, 0, 67, 0
2, 28170, Note_on_c, 0, 76, 127
2, 28199, Note_on_c, 0, 76, 0
2, 28200, Note_on_c, 0, 81, 127
2, 28229, Note_on_c, 0, 81, 0
2, 28230, Note_on_c, 0, 76, 127
2, 28259, Note_on_c, 0, 76, 0
2, 28260, Note_on_c, 0, 83, 127
2, 28289, Note_on_c, 0, 83, 0
2, 28290, Note_on_c, 0, 76, 127
2, 28319, Note_on_c, 0, 76, 0
2, 28320, Note_on_c, 0, 81, 127
2, 28349, Note_on_c, 0, 81, 0
2, 28350, Note_on_c, 0, 76, 127
2, 28379, Note_on_c, 0, 76, 0
2, 28380, Note_on_c, 0, 66, 127
2, 28409, Note_on_c, 0, 66, 0
2, 28410, Note_on_c, 0, 76, 127
2, 28439, Note_on_c, 0, 76, 0
2, 28440, Note_on_c, 0, 81, 127
2, 28465, Control_c, 0, 7, 113
2, 28469, Note_on_c, 0, 81, 0
2, 28470, Note_on_c, 0, 76, 127
2, 28499, Note_on_c, 0, 76, 0
2, 28500, Note_on_c, 0, 81, 127
2, 28529, Note_on_c, 0, 81, 0
2, 28530, Note_on_c, 0, 76, 127
2, 28559, Note_on_c, 0, 76, 0
2, 28560, Note_on_c, 0, 81, 127
2, 28589, Note_on_c, 0, 81, 0
2, 28590, Note_on_c, 0, 74, 127
2, 28619, Note_on_c, 0, 74, 0
2, 28620, Note_on_c, 0, 66, 127
2, 28649, Note_on_c, 0, 66, 0
2, 28650, Note_on_c, 0, 74, 127
2, 28679, Note_on_c, 0, 74, 0
2, 28680, Note_on_c, 0, 83, 127
2, 28709, Note_on_c, 0, 83, 0
2, 28710, Note_on_c, 0, 74, 127
2, 28739, Note_on_c, 0, 74, 0
2, 28740, Note_on_c, 0, 81, 127
2, 28769, Note_on_c, 0, 81, 0
2, 28770, Note_on_c, 0, 74, 127
2, 28799, Note_on_c, 0, 74, 0
2, 28800, Note_on_c, 0, 79, 127
2, 28829, Note_on_c, 0, 79, 0
2, 28830, Note_on_c, 0, 74, 127
2, 28859, Note_on_c, 0, 74, 0
2, 28860, Note_on_c, 0, 64, 127
2, 28889, Note_on_c, 0, 64, 0
2, 28890, Note_on_c, 0, 74, 127
2, 28919, Note_on_c, 0, 74, 0
2, 28920, Note_on_c, 0, 79, 127
2, 28949, Note_on_c, 0, 79, 0
2, 28950, Note_on_c, 0, 74, 127
2, 28979, Note_on_c, 0, 74, 0
2, 28980, Note_on_c, 0, 79, 127
2, 29009, Note_on_c, 0, 79, 0
2, 29010, Note_on_c, 0, 74, 127
2, 29039, Note_on_c, 0, 74, 0
2, 29040, Note_on_c, 0, 79, 127
2, 29060, Control_c, 0, 7, 118
2, 29069, Note_on_c, 0, 79, 0
2, 29070, Note_on_c, 0, 72, 127
2, 29099, Note_on_c, 0, 72, 0
2, 29100, Note_on_c, 0, 64, 127
2, 29129, Note_on_c, 0, 64, 0
2, 29130, Note_on_c, 0, 72, 127
2, 29159, Note_on_c, 0, 72, 0
2, 29160, Note_on_c, 0, 81, 127
2, 29189, Note_on_c, 0, 81, 0
2, 29190, Control_c, 0, 7, 117
2, 29190, Note_on_c, 0, 72, 127
2, 29195, Control_c, 0, 7, 116
2, 29200, Control_c, 0, 7, 115
2, 29219, Note_on_c, 0, 72, 0
2, 29220, Note_on_c, 0, 79, 127
2, 29230, Control_c, 0, 7, 112
2, 29230, Control_c, 0, 7, 113
2, 29235, Control_c, 0, 7, 111
2, 29249, Note_on_c, 0, 79, 0
2, 29250, Note_on_c, 0, 72, 127
2, 29279, Note_on_c, 0, 72, 0
2, 29280, Note_on_c, 0, 78, 127
2, 29295, Control_c, 0, 7, 108
2, 29309, Note_on_c, 0, 78, 0
2, 29310, Note_on_c, 0, 72, 127
2, 29339, Note_on_c, 0, 72, 0
2, 29340, Note_on_c, 0, 62, 127
2, 29369, Note_on_c, 0, 62, 0
2, 29370, Note_on_c, 0, 72, 127
2, 29399, Note_on_c, 0, 72, 0
2, 29400, Note_on_c, 0, 78, 127
2, 29429, Note_on_c, 0, 78, 0
2, 29430, Note_on_c, 0, 72, 117
2, 29459, Note_on_c, 0, 72, 0
2, 29460, Note_on_c, 0, 79, 127
2, 29489, Note_on_c, 0, 79, 0
2, 29490, Note_on_c, 0, 72, 127
2, 29519, Note_on_c, 0, 72, 0
2, 29520, Note_on_c, 0, 81, 127
2, 29549, Note_on_c, 0, 81, 0
2, 29550, Note_on_c, 0, 72, 127
2, 29579, Note_on_c, 0, 72, 0
2, 29580, Note_on_c, 0, 83, 127
2, 29609, Note_on_c, 0, 83, 0
2, 29610, Note_on_c, 0, 72, 127
2, 29639, Note_on_c, 0, 72, 0
2, 29640, Note_on_c, 0, 81, 127
2, 29669, Note_on_c, 0, 81, 0
2, 29670, Note_on_c, 0, 72, 127
2, 29699, Note_on_c, 0, 72, 0
2, 29700, Note_on_c, 0, 79, 127
2, 29729, Note_on_c, 0, 79, 0
2, 29730, Note_on_c, 0, 72, 127
2, 29759, Note_on_c, 0, 72, 0
2, 29760, Note_on_c, 0, 78, 127
2, 29789, Note_on_c, 0, 78, 0
2, 29790, Note_on_c, 0, 72, 127
2, 29805, Control_c, 0, 7, 85
2, 29805, Control_c, 0, 7, 93
2, 29810, Control_c, 0, 7, 84
2, 29815, Control_c, 0, 7, 83
2, 29819, Note_on_c, 0, 72, 0
2, 29820, Control_c, 0, 7, 81
2, 29820, Control_c, 0, 7, 82
2, 29820, Note_on_c, 0, 62, 127
2, 29825, Control_c, 0, 7, 77
2, 29825, Control_c, 0, 7, 78
2, 29830, Control_c, 0, 7, 73
2, 29830, Control_c, 0, 7, 74
2, 29849, Note_on_c, 0, 62, 0
2, 29850, Note_on_c, 0, 72, 127
2, 29879, Note_on_c, 0, 72, 0
2, 29880, Note_on_c, 0, 78, 127
2, 29909, Note_on_c, 0, 78, 0
2, 29910, Note_on_c, 0, 72, 127
2, 29939, Note_on_c, 0, 72, 0
2, 29940, Note_on_c, 0, 79, 127
2, 29969, Note_on_c, 0, 79, 0
2, 29970, Note_on_c, 0, 72, 127
2, 29999, Note_on_c, 0, 72, 0
2, 30000, Note_on_c, 0, 81, 127
2, 30029, Note_on_c, 0, 81, 0
2, 30030, Note_on_c, 0, 72, 127
2, 30059, Note_on_c, 0, 72, 0
2, 30060, Note_on_c, 0, 83, 127
2, 30089, Note_on_c, 0, 83, 0
2, 30090, Note_on_c, 0, 72, 127
2, 30119, Note_on_c, 0, 72, 0
2, 30120, Note_on_c, 0, 81, 127
2, 30149, Note_on_c, 0, 81, 0
2, 30150, Note_on_c, 0, 72, 127
2, 30179, Note_on_c, 0, 72, 0
2, 30180, Note_on_c, 0, 79, 127
2, 30209, Note_on_c, 0, 79, 0
2, 30210, Note_on_c, 0, 72, 127
2, 30239, Note_on_c, 0, 72, 0
2, 30240, Note_on_c, 0, 78, 127
2, 30269, Note_on_c, 0, 78, 0
2, 30270, Note_on_c, 0, 72, 127
2, 30275, Control_c, 0, 7, 76
2, 30275, Control_c, 0, 7, 74
2, 30280, Control_c, 0, 7, 79
2, 30280, Control_c, 0, 7, 78
2, 30285, Control_c, 0, 7, 80
2, 30290, Control_c, 0, 7, 82
2, 30295, Control_c, 0, 7, 86
2, 30295, Control_c, 0, 7, 84
2, 30299, Note_on_c, 0, 72, 0
2, 30300, Control_c, 0, 7, 90
2, 30300, Note_on_c, 0, 71, 127
2, 30305, Control_c, 0, 7, 95
2, 30305, Control_c, 0, 7, 93
2, 30310, Control_c, 0, 7, 99
2, 30310, Control_c, 0, 7, 96
2, 30315, Control_c, 0, 7, 100
2, 30320, Control_c, 0, 7, 102
2, 30320, Control_c, 0, 7, 101
2, 30325, Control_c, 0, 7, 103
2, 30329, Note_on_c, 0, 71, 0
2, 30330, Control_c, 0, 7, 104
2, 30330, Note_on_c, 0, 69, 127
2, 30335, Control_c, 0, 7, 106
2, 30335, Control_c, 0, 7, 105
2, 30340, Control_c, 0, 7, 107
2, 30345, Control_c, 0, 7, 108
2, 30350, Control_c, 0, 7, 109
2, 30355, Control_c, 0, 7, 112
2, 30359, Note_on_c, 0, 69, 0
2, 30360, Note_on_c, 0, 71, 127
2, 30365, Control_c, 0, 7, 114
2, 30365, Control_c, 0, 7, 113
2, 30380, Control_c, 0, 7, 115
2, 30385, Control_c, 0, 7, 116
2, 30389, Note_on_c, 0, 71, 0
2, 30390, Note_on_c, 0, 79, 127
2, 30400, Control_c, 0, 7, 117
2, 30419, Note_on_c, 0, 79, 0
2, 30420, Note_on_c, 0, 69, 127
2, 30449, Note_on_c, 0, 69, 0
2, 30450, Note_on_c, 0, 67, 127
2, 30479, Note_on_c, 0, 67, 0
2, 30480, Note_on_c, 0, 62, 127
2, 30509, Note_on_c, 0, 62, 0
2, 30510, Note_on_c, 0, 69, 127
2, 30539, Note_on_c, 0, 69, 0
2, 30540, Note_on_c, 0, 79, 127
2, 30569, Note_on_c, 0, 79, 0
2, 30570, Note_on_c, 0, 76, 127
2, 30599, Note_on_c, 0, 76, 0
2, 30600, Note_on_c, 0, 78, 127
2, 30629, Note_on_c, 0, 78, 0
2, 30630, Note_on_c, 0, 81, 127
2, 30659, Note_on_c, 0, 81, 0
2, 30660, Note_on_c, 0, 74, 127
2, 30689, Note_on_c, 0, 74, 0
2, 30690, Note_on_c, 0, 78, 127
2, 30719, Note_on_c, 0, 78, 0
2, 30720, Note_on_c, 0, 79, 127
2, 30725, Control_c, 0, 7, 116
2, 30730, Control_c, 0, 7, 114
2, 30745, Control_c, 0, 7, 113
2, 30755, Control_c, 0, 7, 112
2, 30760, Control_c, 0, 7, 111
2, 30765, Control_c, 0, 7, 109
2, 30770, Control_c, 0, 7, 108
2, 30779, Note_on_c, 0, 79, 0
2, 30780, Note_on_c, 0, 67, 127
2, 30805, Control_c, 0, 7, 107
2, 30810, Control_c, 0, 7, 106
2, 30815, Control_c, 0, 7, 105
2, 30825, Control_c, 0, 7, 104
2, 30835, Control_c, 0, 7, 102
2, 30835, Control_c, 0, 7, 103
2, 30840, Control_c, 0, 7, 100
2, 30840, Control_c, 0, 7, 101
2, 30845, Control_c, 0, 7, 99
2, 30850, Control_c, 0, 7, 97
2, 30850, Control_c, 0, 7, 98
2, 30860, Control_c, 0, 7, 95
2, 30860, Control_c, 0, 7, 96
2, 30865, Control_c, 0, 7, 94
2, 30870, Control_c, 0, 7, 92
2, 30870, Control_c, 0, 7, 93
2, 30875, Control_c, 0, 7, 91
2, 30885, Control_c, 0, 7, 90
2, 30890, Control_c, 0, 7, 89
2, 30895, Control_c, 0, 7, 86
2, 30895, Control_c, 0, 7, 88
2, 30905, Control_c, 0, 7, 85
2, 30910, Control_c, 0, 7, 83
2, 30910, Control_c, 0, 7, 84
2, 30915, Control_c, 0, 7, 82
2, 30920, Control_c, 0, 7, 81
2, 30925, Control_c, 0, 7, 80
2, 30935, Control_c, 0, 7, 79
2, 30940, Control_c, 0, 7, 78
2, 30945, Control_c, 0, 7, 76
2, 30945, Control_c, 0, 7, 77
2, 30950, Control_c, 0, 7, 75
2, 30955, Control_c, 0, 7, 74
2, 30960, Control_c, 0, 7, 73
2, 30965, Control_c, 0, 7, 72
2, 30970, Control_c, 0, 7, 71
2, 30975, Control_c, 0, 7, 69
2, 30975, Control_c, 0, 7, 70
2, 30980, Control_c, 0, 7, 67
2, 30980, Control_c, 0, 7, 68
2, 30985, Control_c, 0, 7, 65
2, 30985, Control_c, 0, 7, 66
2, 30990, Control_c, 0, 7, 64
2, 30995, Control_c, 0, 7, 63
2, 31005, Control_c, 0, 7, 62
2, 31010, Control_c, 0, 7, 61
2, 31020, Control_c, 0, 7, 60
2, 31025, Control_c, 0, 7, 59
2, 31030, Control_c, 0, 7, 57
2, 31030, Control_c, 0, 7, 58
2, 31035, Control_c, 0, 7, 56
2, 31040, Control_c, 0, 7, 54
2, 31040, Control_c, 0, 7, 55
2, 31050, Control_c, 0, 7, 53
2, 31055, Control_c, 0, 7, 51
2, 31060, Control_c, 0, 7, 50
2, 31065, Control_c, 0, 7, 48
2, 31065, Control_c, 0, 7, 49
2, 31070, Control_c, 0, 7, 45
2, 31070, Control_c, 0, 7, 46
2, 31080, Control_c, 0, 7, 43
2, 31080, Control_c, 0, 7, 44
2, 31085, Control_c, 0, 7, 42
2, 31095, Control_c, 0, 7, 41
2, 31105, Control_c, 0, 7, 40
2, 31115, Control_c, 0, 7, 39
2, 31130, Control_c, 0, 7, 36
2, 31130, Control_c, 0, 7, 37
2, 31130, Control_c, 0, 7, 38
2, 31135, Control_c, 0, 7, 35
2, 31139, Note_on_c, 0, 67, 0
2, 31144, Control_c, 0, 7, 34
2, 31154, Control_c, 0, 7, 33
2, 31164, Control_c, 0, 7, 32
2, 31169, Control_c, 0, 7, 31
2, 31174, Control_c, 0, 7, 30
2, 31184, Control_c, 0, 7, 28
2, 31194, Control_c, 0, 7, 27
2, 31194, End_track
3, 0, Start_track
3, 0, MIDI_port, 0
3, 0, Title_t, "Violin I"
3, 0, Control_c, 1, 0, 0
3, 0, Program_c, 1, 50
3, 0, Control_c, 1, 7, 100
3, 0, Control_c, 1, 10, 0
3, 0, Control_c, 1, 93, 0
3, 0, Control_c, 1, 91, 72
3, 0, Note_on_c, 1, 67, 127
3, 59, Note_on_c, 1, 67, 0
3, 60, Note_on_c, 1, 62, 127
3, 179, Note_on_c, 1, 62, 0
3, 180, Note_on_c, 1, 60, 119
3, 239, Note_on_c, 1, 60, 0
3, 240, Note_on_c, 1, 59, 127
3, 299, Note_on_c, 1, 59, 0
3, 300, Note_on_c, 1, 60, 127
3, 329, Note_on_c, 1, 60, 0
3, 330, Note_on_c, 1, 62, 127
3, 359, Note_on_c, 1, 62, 0
3, 360, Note_on_c, 1, 64, 127
3, 419, Note_on_c, 1, 64, 0
3, 420, Note_on_c, 1, 69, 127
3, 479, Note_on_c, 1, 69, 0
3, 480, Note_on_c, 1, 66, 127
3, 539, Note_on_c, 1, 66, 0
3, 540, Note_on_c, 1, 67, 127
3, 599, Note_on_c, 1, 67, 0
3, 600, Note_on_c, 1, 72, 119
3, 659, Note_on_c, 1, 72, 0
3, 660, Note_on_c, 1, 71, 127
3, 719, Note_on_c, 1, 71, 0
3, 720, Note_on_c, 1, 71, 119
3, 739, Note_on_c, 1, 71, 0
3, 740, Note_on_c, 1, 72, 104
3, 759, Note_on_c, 1, 72, 0
3, 760, Note_on_c, 1, 71, 104
3, 779, Note_on_c, 1, 71, 0
3, 780, Note_on_c, 1, 69, 127
3, 839, Note_on_c, 1, 69, 0
3, 960, Note_on_c, 1, 69, 127
3, 1019, Note_on_c, 1, 69, 0
3, 1020, Note_on_c, 1, 64, 119
3, 1139, Note_on_c, 1, 64, 0
3, 1140, Note_on_c, 1, 62, 119
3, 1199, Note_on_c, 1, 62, 0
3, 1200, Note_on_c, 1, 60, 111
3, 1259, Note_on_c, 1, 60, 0
3, 1260, Note_on_c, 1, 62, 127
3, 1289, Note_on_c, 1, 62, 0
3, 1290, Note_on_c, 1, 64, 119
3, 1319, Note_on_c, 1, 64, 0
3, 1320, Note_on_c, 1, 65, 96
3, 1334, Note_on_c, 1, 65, 0
3, 1335, Note_on_c, 1, 64, 111
3, 1349, Note_on_c, 1, 64, 0
3, 1350, Note_on_c, 1, 62, 119
3, 1379, Note_on_c, 1, 62, 0
3, 1380, Note_on_c, 1, 71, 104
3, 1439, Note_on_c, 1, 71, 0
3, 1440, Note_on_c, 1, 68, 127
3, 1499, Note_on_c, 1, 68, 0
3, 1500, Note_on_c, 1, 69, 127
3, 1559, Note_on_c, 1, 69, 0
3, 1560, Note_on_c, 1, 74, 119
3, 1619, Note_on_c, 1, 74, 0
3, 1620, Note_on_c, 1, 72, 104
3, 1679, Note_on_c, 1, 72, 0
3, 1680, Note_on_c, 1, 72, 104
3, 1699, Note_on_c, 1, 72, 0
3, 1700, Note_on_c, 1, 74, 119
3, 1719, Note_on_c, 1, 74, 0
3, 1720, Note_on_c, 1, 72, 111
3, 1739, Note_on_c, 1, 72, 0
3, 1740, Note_on_c, 1, 71, 119
3, 1799, Note_on_c, 1, 71, 0
3, 2040, Note_on_c, 1, 72, 77
3, 2099, Note_on_c, 1, 72, 0
3, 2100, Note_on_c, 1, 64, 104
3, 2159, Note_on_c, 1, 64, 0
3, 2280, Note_on_c, 1, 76, 88
3, 2339, Note_on_c, 1, 76, 0
3, 2340, Note_on_c, 1, 72, 80
3, 2399, Note_on_c, 1, 72, 0
3, 2520, Note_on_c, 1, 69, 119
3, 2579, Note_on_c, 1, 69, 0
3, 2580, Note_on_c, 1, 66, 88
3, 2639, Note_on_c, 1, 66, 0
3, 2760, Note_on_c, 1, 74, 104
3, 2819, Note_on_c, 1, 74, 0
3, 2820, Note_on_c, 1, 69, 119
3, 2879, Note_on_c, 1, 69, 0
3, 2940, Note_on_c, 1, 74, 111
3, 2999, Note_on_c, 1, 74, 0
3, 3000, Note_on_c, 1, 79, 104
3, 3059, Note_on_c, 1, 79, 0
3, 3060, Note_on_c, 1, 83, 104
3, 3119, Note_on_c, 1, 83, 0
3, 3120, Note_on_c, 1, 76, 104
3, 3179, Note_on_c, 1, 76, 0
3, 3420, Note_on_c, 1, 76, 96
3, 3479, Note_on_c, 1, 76, 0
3, 3480, Note_on_c, 1, 78, 108
3, 3539, Note_on_c, 1, 78, 0
3, 3540, Note_on_c, 1, 81, 104
3, 3599, Note_on_c, 1, 81, 0
3, 3600, Note_on_c, 1, 74, 119
3, 3659, Note_on_c, 1, 74, 0
3, 3900, Note_on_c, 1, 74, 111
3, 3959, Note_on_c, 1, 74, 0
3, 3960, Note_on_c, 1, 76, 88
3, 4019, Note_on_c, 1, 76, 0
3, 4020, Note_on_c, 1, 79, 111
3, 4079, Note_on_c, 1, 79, 0
3, 4080, Note_on_c, 1, 72, 104
3, 4439, Note_on_c, 1, 72, 0
3, 4440, Note_on_c, 1, 62, 119
3, 4499, Note_on_c, 1, 62, 0
3, 4500, Note_on_c, 1, 64, 104
3, 4559, Note_on_c, 1, 64, 0
3, 4560, Note_on_c, 1, 66, 127
3, 4619, Note_on_c, 1, 66, 0
3, 4620, Note_on_c, 1, 67, 111
3, 4679, Note_on_c, 1, 67, 0
3, 4680, Note_on_c, 1, 66, 117
3, 4739, Note_on_c, 1, 66, 0
3, 4740, Note_on_c, 1, 64, 104
3, 4799, Note_on_c, 1, 64, 0
3, 4800, Note_on_c, 1, 62, 119
3, 4919, Note_on_c, 1, 62, 0
3, 4920, Note_on_c, 1, 72, 77
3, 4979, Note_on_c, 1, 72, 0
3, 4980, Note_on_c, 1, 71, 88
3, 5039, Note_on_c, 1, 71, 0
3, 5040, Note_on_c, 1, 69, 80
3, 5099, Note_on_c, 1, 69, 0
3, 5100, Note_on_c, 1, 67, 111
3, 5159, Note_on_c, 1, 67, 0
3, 5160, Note_on_c, 1, 69, 119
3, 5219, Note_on_c, 1, 69, 0
3, 5220, Note_on_c, 1, 71, 111
3, 5279, Note_on_c, 1, 71, 0
3, 5280, Note_on_c, 1, 72, 88
3, 5339, Note_on_c, 1, 72, 0
3, 5340, Note_on_c, 1, 71, 73
3, 5369, Note_on_c, 1, 71, 0
3, 5370, Note_on_c, 1, 69, 111
3, 5399, Note_on_c, 1, 69, 0
3, 5400, Note_on_c, 1, 71, 111
3, 5459, Note_on_c, 1, 71, 0
3, 5460, Note_on_c, 1, 79, 119
3, 5519, Note_on_c, 1, 79, 0
3, 5520, Note_on_c, 1, 71, 119
3, 5639, Note_on_c, 1, 71, 0
3, 5640, Note_on_c, 1, 69, 111
3, 5679, Note_on_c, 1, 69, 0
3, 5680, Note_on_c, 1, 71, 78
3, 5719, Note_on_c, 1, 71, 0
3, 5720, Note_on_c, 1, 69, 119
3, 5759, Note_on_c, 1, 69, 0
3, 5760, Note_on_c, 1, 67, 119
3, 5810, Control_c, 1, 7, 97
3, 5815, Control_c, 1, 7, 90
3, 5815, Control_c, 1, 7, 91
3, 5819, Note_on_c, 1, 67, 0
3, 5845, Control_c, 1, 7, 89
3, 5850, Control_c, 1, 7, 87
3, 5865, Control_c, 1, 7, 85
3, 5865, Control_c, 1, 7, 86
3, 5880, Control_c, 1, 7, 84
3, 5880, Note_on_c, 1, 69, 127
3, 5910, Control_c, 1, 7, 83
3, 5939, Note_on_c, 1, 69, 0
3, 6000, Note_on_c, 1, 71, 119
3, 6059, Note_on_c, 1, 71, 0
3, 6120, Note_on_c, 1, 69, 127
3, 6179, Note_on_c, 1, 69, 0
3, 6240, Note_on_c, 1, 74, 119
3, 6299, Note_on_c, 1, 74, 0
3, 6300, Note_on_c, 1, 67, 119
3, 6359, Note_on_c, 1, 67, 0
3, 6360, Note_on_c, 1, 72, 88
3, 6419, Note_on_c, 1, 72, 0
3, 6420, Note_on_c, 1, 71, 111
3, 6479, Note_on_c, 1, 71, 0
3, 6480, Note_on_c, 1, 71, 96
3, 6499, Note_on_c, 1, 71, 0
3, 6500, Note_on_c, 1, 72, 78
3, 6519, Note_on_c, 1, 72, 0
3, 6520, Note_on_c, 1, 71, 104
3, 6539, Note_on_c, 1, 71, 0
3, 6540, Note_on_c, 1, 69, 119
3, 6569, Note_on_c, 1, 69, 0
3, 6570, Note_on_c, 1, 67, 104
3, 6599, Note_on_c, 1, 67, 0
3, 6600, Note_on_c, 1, 69, 119
3, 6659, Note_on_c, 1, 69, 0
3, 6660, Note_on_c, 1, 71, 104
3, 6719, Note_on_c, 1, 71, 0
3, 6720, Note_on_c, 1, 72, 104
3, 6779, Note_on_c, 1, 72, 0
3, 6840, Note_on_c, 1, 76, 104
3, 6899, Note_on_c, 1, 76, 0
3, 6960, Note_on_c, 1, 81, 111
3, 7019, Note_on_c, 1, 81, 0
3, 7080, Note_on_c, 1, 69, 127
3, 7139, Note_on_c, 1, 69, 0
3, 7200, Note_on_c, 1, 76, 88
3, 7259, Note_on_c, 1, 76, 0
3, 7260, Note_on_c, 1, 69, 127
3, 7319, Note_on_c, 1, 69, 0
3, 7320, Note_on_c, 1, 74, 111
3, 7379, Note_on_c, 1, 74, 0
3, 7380, Note_on_c, 1, 72, 88
3, 7439, Note_on_c, 1, 72, 0
3, 7440, Note_on_c, 1, 72, 96
3, 7459, Note_on_c, 1, 72, 0
3, 7460, Note_on_c, 1, 74, 104
3, 7479, Note_on_c, 1, 74, 0
3, 7480, Note_on_c, 1, 72, 88
3, 7499, Note_on_c, 1, 72, 0
3, 7500, Note_on_c, 1, 71, 96
3, 7559, Note_on_c, 1, 71, 0
3, 7560, Note_on_c, 1, 76, 104
3, 7619, Note_on_c, 1, 76, 0
3, 7620, Note_on_c, 1, 74, 119
3, 7679, Note_on_c, 1, 74, 0
3, 7680, Note_on_c, 1, 72, 111
3, 7739, Note_on_c, 1, 72, 0
3, 7800, Note_on_c, 1, 76, 104
3, 7859, Note_on_c, 1, 76, 0
3, 7920, Note_on_c, 1, 78, 127
3, 7979, Note_on_c, 1, 78, 0
3, 8040, Note_on_c, 1, 78, 127
3, 8099, Note_on_c, 1, 78, 0
3, 8160, Note_on_c, 1, 79, 119
3, 8219, Note_on_c, 1, 79, 0
3, 8220, Note_on_c, 1, 71, 119
3, 8279, Note_on_c, 1, 71, 0
3, 8280, Note_on_c, 1, 73, 127
3, 8339, Note_on_c, 1, 73, 0
3, 8340, Note_on_c, 1, 75, 117
3, 8399, Note_on_c, 1, 75, 0
3, 8400, Note_on_c, 1, 76, 111
3, 8459, Note_on_c, 1, 76, 0
3, 8520, Note_on_c, 1, 72, 96
3, 8579, Note_on_c, 1, 72, 0
3, 8640, Note_on_c, 1, 71, 111
3, 8699, Note_on_c, 1, 71, 0
3, 8760, Note_on_c, 1, 75, 117
3, 8819, Note_on_c, 1, 75, 0
3, 8880, Note_on_c, 1, 76, 111
3, 8939, Note_on_c, 1, 76, 0
3, 9720, Note_on_c, 1, 57, 127
3, 9779, Note_on_c, 1, 57, 0
3, 9780, Note_on_c, 1, 59, 96
3, 9839, Note_on_c, 1, 59, 0
3, 9840, Note_on_c, 1, 61, 127
3, 9899, Note_on_c, 1, 61, 0
3, 9900, Note_on_c, 1, 62, 119
3, 9959, Note_on_c, 1, 62, 0
3, 9960, Note_on_c, 1, 61, 127
3, 10019, Note_on_c, 1, 61, 0
3, 10020, Note_on_c, 1, 59, 104
3, 10079, Note_on_c, 1, 59, 0
3, 10080, Note_on_c, 1, 57, 119
3, 10199, Note_on_c, 1, 57, 0
3, 10200, Note_on_c, 1, 67, 111
3, 10259, Note_on_c, 1, 67, 0
3, 10260, Note_on_c, 1, 66, 117
3, 10319, Note_on_c, 1, 66, 0
3, 10320, Note_on_c, 1, 64, 96
3, 10379, Note_on_c, 1, 64, 0
3, 10380, Note_on_c, 1, 62, 111
3, 10439, Note_on_c, 1, 62, 0
3, 10440, Note_on_c, 1, 64, 111
3, 10499, Note_on_c, 1, 64, 0
3, 10500, Note_on_c, 1, 66, 127
3, 10559, Note_on_c, 1, 66, 0
3, 10560, Note_on_c, 1, 67, 119
3, 10679, Note_on_c, 1, 67, 0
3, 11100, Note_on_c, 1, 74, 119
3, 11129, Note_on_c, 1, 74, 0
3, 11130, Note_on_c, 1, 73, 127
3, 11159, Note_on_c, 1, 73, 0
3, 11160, Note_on_c, 1, 74, 119
3, 11219, Note_on_c, 1, 74, 0
3, 11220, Note_on_c, 1, 66, 127
3, 11279, Note_on_c, 1, 66, 0
3, 11280, Note_on_c, 1, 64, 119
3, 11399, Note_on_c, 1, 64, 0
3, 11820, Note_on_c, 1, 71, 119
3, 11849, Note_on_c, 1, 71, 0
3, 11850, Note_on_c, 1, 69, 127
3, 11879, Note_on_c, 1, 69, 0
3, 11880, Note_on_c, 1, 67, 127
3, 11939, Note_on_c, 1, 67, 0
3, 11940, Note_on_c, 1, 66, 127
3, 11999, Note_on_c, 1, 66, 0
3, 12000, Note_on_c, 1, 64, 119
3, 12059, Note_on_c, 1, 64, 0
3, 12450, Control_c, 1, 7, 84
3, 12455, Control_c, 1, 7, 85
3, 12460, Control_c, 1, 7, 86
3, 12465, Control_c, 1, 7, 89
3, 12465, Control_c, 1, 7, 88
3, 12470, Control_c, 1, 7, 90
3, 12475, Control_c, 1, 7, 91
3, 12480, Control_c, 1, 7, 94
3, 12480, Control_c, 1, 7, 92
3, 12480, Note_on_c, 1, 74, 119
3, 12485, Control_c, 1, 7, 95
3, 12490, Control_c, 1, 7, 97
3, 12490, Control_c, 1, 7, 96
3, 12495, Control_c, 1, 7, 98
3, 12539, Note_on_c, 1, 74, 0
3, 12540, Note_on_c, 1, 69, 127
3, 12659, Note_on_c, 1, 69, 0
3, 12660, Note_on_c, 1, 67, 127
3, 12719, Note_on_c, 1, 67, 0
3, 12720, Note_on_c, 1, 66, 127
3, 12779, Note_on_c, 1, 66, 0
3, 12780, Note_on_c, 1, 67, 119
3, 12809, Note_on_c, 1, 67, 0
3, 12810, Note_on_c, 1, 69, 127
3, 12839, Note_on_c, 1, 69, 0
3, 12840, Note_on_c, 1, 71, 119
3, 12899, Note_on_c, 1, 71, 0
3, 12900, Note_on_c, 1, 76, 127
3, 12959, Note_on_c, 1, 76, 0
3, 12960, Note_on_c, 1, 73, 127
3, 13019, Note_on_c, 1, 73, 0
3, 13020, Note_on_c, 1, 74, 119
3, 13079, Note_on_c, 1, 74, 0
3, 13080, Note_on_c, 1, 79, 119
3, 13139, Note_on_c, 1, 79, 0
3, 13140, Note_on_c, 1, 78, 127
3, 13199, Note_on_c, 1, 78, 0
3, 13200, Note_on_c, 1, 78, 127
3, 13219, Note_on_c, 1, 78, 0
3, 13220, Note_on_c, 1, 79, 96
3, 13239, Note_on_c, 1, 79, 0
3, 13240, Note_on_c, 1, 78, 127
3, 13259, Note_on_c, 1, 78, 0
3, 13260, Note_on_c, 1, 76, 111
3, 13319, Note_on_c, 1, 76, 0
3, 13440, Note_on_c, 1, 76, 127
3, 13499, Note_on_c, 1, 76, 0
3, 13500, Note_on_c, 1, 71, 127
3, 13619, Note_on_c, 1, 71, 0
3, 13620, Note_on_c, 1, 69, 127
3, 13679, Note_on_c, 1, 69, 0
3, 13680, Note_on_c, 1, 67, 127
3, 13739, Note_on_c, 1, 67, 0
3, 13740, Note_on_c, 1, 69, 127
3, 13769, Note_on_c, 1, 69, 0
3, 13770, Note_on_c, 1, 71, 119
3, 13799, Note_on_c, 1, 71, 0
3, 13800, Note_on_c, 1, 72, 119
3, 13814, Note_on_c, 1, 72, 0
3, 13815, Note_on_c, 1, 71, 119
3, 13829, Note_on_c, 1, 71, 0
3, 13830, Note_on_c, 1, 69, 127
3, 13859, Note_on_c, 1, 69, 0
3, 13860, Note_on_c, 1, 78, 127
3, 13919, Note_on_c, 1, 78, 0
3, 13920, Note_on_c, 1, 75, 127
3, 13979, Note_on_c, 1, 75, 0
3, 13980, Note_on_c, 1, 76, 111
3, 14039, Note_on_c, 1, 76, 0
3, 14040, Note_on_c, 1, 81, 127
3, 14099, Note_on_c, 1, 81, 0
3, 14100, Note_on_c, 1, 79, 127
3, 14159, Note_on_c, 1, 79, 0
3, 14160, Note_on_c, 1, 79, 119
3, 14179, Note_on_c, 1, 79, 0
3, 14180, Note_on_c, 1, 81, 104
3, 14199, Note_on_c, 1, 81, 0
3, 14200, Note_on_c, 1, 79, 127
3, 14219, Note_on_c, 1, 79, 0
3, 14220, Note_on_c, 1, 78, 127
3, 14279, Note_on_c, 1, 78, 0
3, 14520, Note_on_c, 1, 76, 111
3, 14579, Note_on_c, 1, 76, 0
3, 14580, Note_on_c, 1, 71, 119
3, 14639, Note_on_c, 1, 71, 0
3, 14760, Note_on_c, 1, 72, 104
3, 14819, Note_on_c, 1, 72, 0
3, 14820, Note_on_c, 1, 69, 127
3, 14879, Note_on_c, 1, 69, 0
3, 15000, Note_on_c, 1, 74, 127
3, 15059, Note_on_c, 1, 74, 0
3, 15060, Note_on_c, 1, 69, 127
3, 15119, Note_on_c, 1, 69, 0
3, 15240, Note_on_c, 1, 71, 127
3, 15299, Note_on_c, 1, 71, 0
3, 15300, Note_on_c, 1, 67, 127
3, 15335, Control_c, 1, 7, 97
3, 15350, Control_c, 1, 7, 94
3, 15355, Control_c, 1, 7, 92
3, 15355, Control_c, 1, 7, 93
3, 15359, Note_on_c, 1, 67, 0
3, 15360, Note_on_c, 1, 71, 127
3, 15365, Control_c, 1, 7, 91
3, 15370, Control_c, 1, 7, 90
3, 15380, Control_c, 1, 7, 88
3, 15380, Control_c, 1, 7, 89
3, 15385, Control_c, 1, 7, 86
3, 15385, Control_c, 1, 7, 87
3, 15390, Control_c, 1, 7, 85
3, 15395, Control_c, 1, 7, 84
3, 15400, Control_c, 1, 7, 82
3, 15400, Control_c, 1, 7, 83
3, 15405, Control_c, 1, 7, 81
3, 15410, Control_c, 1, 7, 79
3, 15410, Control_c, 1, 7, 80
3, 15415, Control_c, 1, 7, 78
3, 15419, Note_on_c, 1, 71, 0
3, 15420, Control_c, 1, 7, 77
3, 15430, Control_c, 1, 7, 76
3, 15435, Control_c, 1, 7, 74
3, 15440, Control_c, 1, 7, 73
3, 15445, Control_c, 1, 7, 72
3, 15480, Note_on_c, 1, 74, 127
3, 15539, Note_on_c, 1, 74, 0
3, 15600, Note_on_c, 1, 76, 127
3, 15659, Note_on_c, 1, 76, 0
3, 15720, Note_on_c, 1, 76, 127
3, 15779, Note_on_c, 1, 76, 0
3, 15840, Note_on_c, 1, 76, 119
3, 15899, Note_on_c, 1, 76, 0
3, 15900, Note_on_c, 1, 81, 119
3, 15959, Note_on_c, 1, 81, 0
3, 15960, Note_on_c, 1, 76, 127
3, 16019, Note_on_c, 1, 76, 0
3, 16020, Note_on_c, 1, 74, 127
3, 16079, Note_on_c, 1, 74, 0
3, 16080, Note_on_c, 1, 72, 111
3, 16139, Note_on_c, 1, 72, 0
3, 16200, Note_on_c, 1, 72, 119
3, 16259, Note_on_c, 1, 72, 0
3, 16320, Note_on_c, 1, 72, 104
3, 16379, Note_on_c, 1, 72, 0
3, 16440, Note_on_c, 1, 71, 119
3, 16499, Note_on_c, 1, 71, 0
3, 16560, Note_on_c, 1, 72, 119
3, 16619, Note_on_c, 1, 72, 0
3, 17880, Note_on_c, 1, 55, 127
3, 17939, Note_on_c, 1, 55, 0
3, 17940, Note_on_c, 1, 57, 127
3, 17999, Note_on_c, 1, 57, 0
3, 18000, Note_on_c, 1, 59, 111
3, 18059, Note_on_c, 1, 59, 0
3, 18060, Note_on_c, 1, 60, 104
3, 18119, Note_on_c, 1, 60, 0
3, 18120, Note_on_c, 1, 59, 119
3, 18179, Note_on_c, 1, 59, 0
3, 18180, Note_on_c, 1, 57, 127
3, 18239, Note_on_c, 1, 57, 0
3, 18240, Note_on_c, 1, 55, 127
3, 18359, Note_on_c, 1, 55, 0
3, 18940, Control_c, 1, 7, 73
3, 18945, Control_c, 1, 7, 74
3, 18950, Control_c, 1, 7, 75
3, 18955, Control_c, 1, 7, 76
3, 18960, Control_c, 1, 7, 77
3, 18970, Control_c, 1, 7, 78
3, 18975, Control_c, 1, 7, 79
3, 18980, Control_c, 1, 7, 80
3, 18985, Control_c, 1, 7, 83
3, 18985, Control_c, 1, 7, 82
3, 18990, Control_c, 1, 7, 84
3, 18995, Control_c, 1, 7, 86
3, 18995, Control_c, 1, 7, 85
3, 19000, Control_c, 1, 7, 88
3, 19005, Control_c, 1, 7, 90
3, 19005, Control_c, 1, 7, 89
3, 19030, Control_c, 1, 7, 91
3, 19060, Control_c, 1, 7, 92
3, 19075, Control_c, 1, 7, 93
3, 19099, Control_c, 1, 7, 94
3, 19109, Control_c, 1, 7, 95
3, 19119, Control_c, 1, 7, 96
3, 19200, Note_on_c, 1, 67, 127
3, 19215, Control_c, 1, 7, 97
3, 19220, Control_c, 1, 7, 98
3, 19245, Control_c, 1, 7, 99
3, 19259, Note_on_c, 1, 67, 0
3, 19260, Note_on_c, 1, 62, 127
3, 19379, Note_on_c, 1, 62, 0
3, 19380, Note_on_c, 1, 60, 119
3, 19439, Note_on_c, 1, 60, 0
3, 19440, Note_on_c, 1, 59, 119
3, 19499, Note_on_c, 1, 59, 0
3, 19500, Note_on_c, 1, 60, 104
3, 19529, Note_on_c, 1, 60, 0
3, 19530, Note_on_c, 1, 62, 127
3, 19559, Note_on_c, 1, 62, 0
3, 19560, Note_on_c, 1, 64, 127
3, 19619, Note_on_c, 1, 64, 0
3, 19620, Note_on_c, 1, 69, 127
3, 19679, Note_on_c, 1, 69, 0
3, 19680, Note_on_c, 1, 66, 127
3, 19739, Note_on_c, 1, 66, 0
3, 19740, Note_on_c, 1, 67, 127
3, 19799, Note_on_c, 1, 67, 0
3, 19800, Note_on_c, 1, 72, 119
3, 19859, Note_on_c, 1, 72, 0
3, 19860, Note_on_c, 1, 71, 127
3, 19919, Note_on_c, 1, 71, 0
3, 19920, Note_on_c, 1, 71, 127
3, 19939, Note_on_c, 1, 71, 0
3, 19940, Note_on_c, 1, 72, 88
3, 19959, Note_on_c, 1, 72, 0
3, 19960, Note_on_c, 1, 71, 127
3, 19979, Note_on_c, 1, 71, 0
3, 19980, Note_on_c, 1, 69, 127
3, 20005, Control_c, 1, 7, 98
3, 20030, Control_c, 1, 7, 97
3, 20039, Note_on_c, 1, 69, 0
3, 20039, Control_c, 1, 7, 96
3, 20050, Control_c, 1, 7, 93
3, 20050, Control_c, 1, 7, 94
3, 20055, Control_c, 1, 7, 92
3, 20060, Control_c, 1, 7, 91
3, 20065, Control_c, 1, 7, 88
3, 20065, Control_c, 1, 7, 90
3, 20075, Control_c, 1, 7, 86
3, 20075, Control_c, 1, 7, 87
3, 20080, Control_c, 1, 7, 85
3, 20090, Control_c, 1, 7, 84
3, 20095, Control_c, 1, 7, 83
3, 20100, Control_c, 1, 7, 81
3, 20100, Control_c, 1, 7, 82
3, 20110, Control_c, 1, 7, 80
3, 20130, Control_c, 1, 7, 79
3, 20195, Control_c, 1, 7, 78
3, 23640, Note_on_c, 1, 62, 104
3, 23699, Note_on_c, 1, 62, 0
3, 23700, Note_on_c, 1, 64, 111
3, 23759, Note_on_c, 1, 64, 0
3, 23760, Note_on_c, 1, 66, 127
3, 23819, Note_on_c, 1, 66, 0
3, 23820, Note_on_c, 1, 67, 127
3, 23879, Note_on_c, 1, 67, 0
3, 23880, Note_on_c, 1, 66, 127
3, 23939, Note_on_c, 1, 66, 0
3, 23940, Note_on_c, 1, 64, 104
3, 23999, Note_on_c, 1, 64, 0
3, 24000, Note_on_c, 1, 62, 127
3, 24119, Note_on_c, 1, 62, 0
3, 24960, Note_on_c, 1, 67, 127
3, 24985, Control_c, 1, 7, 84
3, 24990, Control_c, 1, 7, 87
3, 25010, Control_c, 1, 7, 88
3, 25019, Note_on_c, 1, 67, 0
3, 25020, Control_c, 1, 7, 90
3, 25020, Control_c, 1, 7, 89
3, 25020, Note_on_c, 1, 62, 127
3, 25070, Control_c, 1, 7, 91
3, 25090, Control_c, 1, 7, 92
3, 25095, Control_c, 1, 7, 93
3, 25135, Control_c, 1, 7, 94
3, 25139, Note_on_c, 1, 62, 0
3, 25140, Note_on_c, 1, 60, 119
3, 25199, Note_on_c, 1, 60, 0
3, 25200, Note_on_c, 1, 59, 119
3, 25259, Note_on_c, 1, 59, 0
3, 25260, Note_on_c, 1, 60, 119
3, 25289, Note_on_c, 1, 60, 0
3, 25290, Note_on_c, 1, 62, 127
3, 25319, Note_on_c, 1, 62, 0
3, 25320, Note_on_c, 1, 64, 127
3, 25379, Note_on_c, 1, 64, 0
3, 25380, Note_on_c, 1, 69, 127
3, 25439, Note_on_c, 1, 69, 0
3, 25440, Note_on_c, 1, 66, 127
3, 25499, Note_on_c, 1, 66, 0
3, 25500, Note_on_c, 1, 67, 127
3, 25559, Note_on_c, 1, 67, 0
3, 25560, Note_on_c, 1, 72, 119
3, 25619, Note_on_c, 1, 72, 0
3, 25620, Note_on_c, 1, 71, 127
3, 25679, Note_on_c, 1, 71, 0
3, 25680, Note_on_c, 1, 71, 111
3, 25699, Note_on_c, 1, 71, 0
3, 25700, Note_on_c, 1, 72, 104
3, 25719, Note_on_c, 1, 72, 0
3, 25720, Note_on_c, 1, 71, 119
3, 25739, Note_on_c, 1, 71, 0
3, 25740, Note_on_c, 1, 69, 127
3, 25799, Note_on_c, 1, 69, 0
3, 25920, Note_on_c, 1, 69, 127
3, 25979, Note_on_c, 1, 69, 0
3, 25980, Note_on_c, 1, 64, 127
3, 26099, Note_on_c, 1, 64, 0
3, 26100, Note_on_c, 1, 62, 127
3, 26159, Note_on_c, 1, 62, 0
3, 26160, Note_on_c, 1, 60, 119
3, 26219, Note_on_c, 1, 60, 0
3, 26220, Note_on_c, 1, 62, 127
3, 26249, Note_on_c, 1, 62, 0
3, 26250, Note_on_c, 1, 64, 127
3, 26279, Note_on_c, 1, 64, 0
3, 26280, Note_on_c, 1, 65, 119
3, 26294, Note_on_c, 1, 65, 0
3, 26295, Note_on_c, 1, 64, 127
3, 26309, Note_on_c, 1, 64, 0
3, 26310, Note_on_c, 1, 62, 127
3, 26339, Note_on_c, 1, 62, 0
3, 26340, Note_on_c, 1, 71, 127
3, 26399, Note_on_c, 1, 71, 0
3, 26400, Note_on_c, 1, 68, 127
3, 26459, Note_on_c, 1, 68, 0
3, 26460, Note_on_c, 1, 69, 127
3, 26519, Note_on_c, 1, 69, 0
3, 26520, Note_on_c, 1, 74, 127
3, 26579, Note_on_c, 1, 74, 0
3, 26580, Note_on_c, 1, 72, 111
3, 26639, Note_on_c, 1, 72, 0
3, 26640, Note_on_c, 1, 72, 111
3, 26659, Note_on_c, 1, 72, 0
3, 26660, Note_on_c, 1, 74, 119
3, 26679, Note_on_c, 1, 74, 0
3, 26680, Note_on_c, 1, 72, 104
3, 26699, Note_on_c, 1, 72, 0
3, 26700, Note_on_c, 1, 71, 127
3, 26759, Note_on_c, 1, 71, 0
3, 27000, Note_on_c, 1, 76, 127
3, 27059, Note_on_c, 1, 76, 0
3, 27060, Note_on_c, 1, 72, 119
3, 27119, Note_on_c, 1, 72, 0
3, 27240, Note_on_c, 1, 81, 127
3, 27299, Note_on_c, 1, 81, 0
3, 27300, Note_on_c, 1, 76, 127
3, 27359, Note_on_c, 1, 76, 0
3, 27480, Note_on_c, 1, 78, 117
3, 27539, Note_on_c, 1, 78, 0
3, 27540, Note_on_c, 1, 74, 127
3, 27599, Note_on_c, 1, 74, 0
3, 27720, Note_on_c, 1, 81, 127
3, 27779, Note_on_c, 1, 81, 0
3, 27780, Note_on_c, 1, 78, 127
3, 27839, Note_on_c, 1, 78, 0
3, 27900, Note_on_c, 1, 74, 127
3, 27959, Note_on_c, 1, 74, 0
3, 27960, Note_on_c, 1, 79, 127
3, 28019, Note_on_c, 1, 79, 0
3, 28020, Note_on_c, 1, 83, 119
3, 28079, Note_on_c, 1, 83, 0
3, 28080, Note_on_c, 1, 76, 127
3, 28139, Note_on_c, 1, 76, 0
3, 28380, Note_on_c, 1, 76, 127
3, 28439, Note_on_c, 1, 76, 0
3, 28440, Note_on_c, 1, 78, 127
3, 28465, Control_c, 1, 7, 97
3, 28499, Note_on_c, 1, 78, 0
3, 28500, Note_on_c, 1, 81, 127
3, 28559, Note_on_c, 1, 81, 0
3, 28560, Note_on_c, 1, 74, 127
3, 28619, Note_on_c, 1, 74, 0
3, 28860, Note_on_c, 1, 74, 127
3, 28919, Note_on_c, 1, 74, 0
3, 28920, Note_on_c, 1, 76, 127
3, 28979, Note_on_c, 1, 76, 0
3, 28980, Note_on_c, 1, 79, 127
3, 29039, Note_on_c, 1, 79, 0
3, 29040, Note_on_c, 1, 72, 127
3, 29060, Control_c, 1, 7, 102
3, 29190, Control_c, 1, 7, 101
3, 29195, Control_c, 1, 7, 100
3, 29200, Control_c, 1, 7, 99
3, 29230, Control_c, 1, 7, 97
3, 29235, Control_c, 1, 7, 96
3, 29295, Control_c, 1, 7, 93
3, 29399, Note_on_c, 1, 72, 0
3, 29400, Note_on_c, 1, 62, 127
3, 29459, Note_on_c, 1, 62, 0
3, 29460, Note_on_c, 1, 64, 127
3, 29519, Note_on_c, 1, 64, 0
3, 29520, Note_on_c, 1, 66, 127
3, 29579, Note_on_c, 1, 66, 0
3, 29580, Note_on_c, 1, 67, 127
3, 29639, Note_on_c, 1, 67, 0
3, 29640, Note_on_c, 1, 66, 127
3, 29699, Note_on_c, 1, 66, 0
3, 29700, Note_on_c, 1, 64, 127
3, 29759, Note_on_c, 1, 64, 0
3, 29760, Note_on_c, 1, 62, 127
3, 29805, Control_c, 1, 7, 73
3, 29805, Control_c, 1, 7, 80
3, 29810, Control_c, 1, 7, 72
3, 29815, Control_c, 1, 7, 71
3, 29820, Control_c, 1, 7, 70
3, 29825, Control_c, 1, 7, 66
3, 29825, Control_c, 1, 7, 67
3, 29830, Control_c, 1, 7, 63
3, 29830, Control_c, 1, 7, 64
3, 29879, Note_on_c, 1, 62, 0
3, 29880, Note_on_c, 1, 72, 119
3, 29939, Note_on_c, 1, 72, 0
3, 29940, Note_on_c, 1, 71, 127
3, 29999, Note_on_c, 1, 71, 0
3, 30000, Note_on_c, 1, 69, 127
3, 30059, Note_on_c, 1, 69, 0
3, 30060, Note_on_c, 1, 67, 127
3, 30119, Note_on_c, 1, 67, 0
3, 30120, Note_on_c, 1, 69, 127
3, 30179, Note_on_c, 1, 69, 0
3, 30180, Note_on_c, 1, 71, 127
3, 30239, Note_on_c, 1, 71, 0
3, 30240, Note_on_c, 1, 72, 119
3, 30275, Control_c, 1, 7, 65
3, 30275, Control_c, 1, 7, 64
3, 30280, Control_c, 1, 7, 68
3, 30280, Control_c, 1, 7, 67
3, 30285, Control_c, 1, 7, 69
3, 30290, Control_c, 1, 7, 71
3, 30295, Control_c, 1, 7, 74
3, 30295, Control_c, 1, 7, 72
3, 30299, Note_on_c, 1, 72, 0
3, 30300, Control_c, 1, 7, 77
3, 30300, Note_on_c, 1, 71, 127
3, 30305, Control_c, 1, 7, 82
3, 30305, Control_c, 1, 7, 80
3, 30310, Control_c, 1, 7, 85
3, 30310, Control_c, 1, 7, 83
3, 30315, Control_c, 1, 7, 86
3, 30320, Control_c, 1, 7, 88
3, 30320, Control_c, 1, 7, 87
3, 30325, Control_c, 1, 7, 89
3, 30329, Note_on_c, 1, 71, 0
3, 30330, Control_c, 1, 7, 90
3, 30330, Note_on_c, 1, 69, 127
3, 30335, Control_c, 1, 7, 91
3, 30340, Control_c, 1, 7, 92
3, 30345, Control_c, 1, 7, 93
3, 30350, Control_c, 1, 7, 94
3, 30355, Control_c, 1, 7, 97
3, 30359, Note_on_c, 1, 69, 0
3, 30360, Note_on_c, 1, 71, 119
3, 30365, Control_c, 1, 7, 98
3, 30380, Control_c, 1, 7, 99
3, 30385, Control_c, 1, 7, 100
3, 30400, Control_c, 1, 7, 101
3, 30419, Note_on_c, 1, 71, 0
3, 30420, Note_on_c, 1, 79, 127
3, 30479, Note_on_c, 1, 79, 0
3, 30480, Note_on_c, 1, 71, 127
3, 30599, Note_on_c, 1, 71, 0
3, 30600, Note_on_c, 1, 69, 127
3, 30639, Note_on_c, 1, 69, 0
3, 30640, Note_on_c, 1, 71, 127
3, 30679, Note_on_c, 1, 71, 0
3, 30680, Note_on_c, 1, 69, 127
3, 30719, Note_on_c, 1, 69, 0
3, 30720, Note_on_c, 1, 67, 127
3, 30725, Control_c, 1, 7, 100
3, 30730, Control_c, 1, 7, 98
3, 30745, Control_c, 1, 7, 97
3, 30760, Control_c, 1, 7, 96
3, 30765, Control_c, 1, 7, 94
3, 30770, Control_c, 1, 7, 93
3, 30805, Control_c, 1, 7, 92
3, 30810, Control_c, 1, 7, 91
3, 30815, Control_c, 1, 7, 90
3, 30835, Control_c, 1, 7, 88
3, 30835, Control_c, 1, 7, 89
3, 30840, Control_c, 1, 7, 86
3, 30840, Control_c, 1, 7, 87
3, 30845, Control_c, 1, 7, 85
3, 30850, Control_c, 1, 7, 84
3, 30860, Control_c, 1, 7, 82
3, 30860, Control_c, 1, 7, 83
3, 30865, Control_c, 1, 7, 81
3, 30870, Control_c, 1, 7, 79
3, 30870, Control_c, 1, 7, 80
3, 30875, Control_c, 1, 7, 78
3, 30885, Control_c, 1, 7, 77
3, 30895, Control_c, 1, 7, 74
3, 30895, Control_c, 1, 7, 76
3, 30905, Control_c, 1, 7, 73
3, 30910, Control_c, 1, 7, 71
3, 30910, Control_c, 1, 7, 72
3, 30920, Control_c, 1, 7, 70
3, 30925, Control_c, 1, 7, 69
3, 30935, Control_c, 1, 7, 68
3, 30940, Control_c, 1, 7, 67
3, 30945, Control_c, 1, 7, 65
3, 30945, Control_c, 1, 7, 66
3, 30950, Control_c, 1, 7, 64
3, 30960, Control_c, 1, 7, 63
3, 30965, Control_c, 1, 7, 62
3, 30970, Control_c, 1, 7, 61
3, 30975, Control_c, 1, 7, 59
3, 30975, Control_c, 1, 7, 60
3, 30980, Control_c, 1, 7, 58
3, 30985, Control_c, 1, 7, 56
3, 30985, Control_c, 1, 7, 57
3, 30990, Control_c, 1, 7, 55
3, 30995, Control_c, 1, 7, 54
3, 31005, Control_c, 1, 7, 53
3, 31010, Control_c, 1, 7, 52
3, 31020, Control_c, 1, 7, 51
3, 31030, Control_c, 1, 7, 49
3, 31030, Control_c, 1, 7, 50
3, 31035, Control_c, 1, 7, 48
3, 31040, Control_c, 1, 7, 46
3, 31040, Control_c, 1, 7, 47
3, 31050, Control_c, 1, 7, 45
3, 31055, Control_c, 1, 7, 44
3, 31060, Control_c, 1, 7, 43
3, 31065, Control_c, 1, 7, 41
3, 31065, Control_c, 1, 7, 42
3, 31070, Control_c, 1, 7, 38
3, 31070, Control_c, 1, 7, 39
3, 31080, Control_c, 1, 7, 37
3, 31085, Control_c, 1, 7, 36
3, 31095, Control_c, 1, 7, 35
3, 31105, Control_c, 1, 7, 34
3, 31115, Control_c, 1, 7, 33
3, 31130, Control_c, 1, 7, 31
3, 31130, Control_c, 1, 7, 32
3, 31135, Control_c, 1, 7, 30
3, 31144, Control_c, 1, 7, 29
3, 31154, Control_c, 1, 7, 28
3, 31164, Control_c, 1, 7, 27
3, 31169, Control_c, 1, 7, 26
3, 31174, Control_c, 1, 7, 25
3, 31184, Control_c, 1, 7, 24
3, 31194, Control_c, 1, 7, 23
3, 31199, Note_on_c, 1, 67, 0
3, 31199, End_track
4, 0, Start_track
4, 0, MIDI_port, 0
4, 0, Title_t, "Violin II"
4, 0, Control_c, 2, 0, 0
4, 0, Program_c, 2, 49
4, 0, Control_c, 2, 7, 100
4, 0, Control_c, 2, 10, 127
4, 0, Control_c, 2, 93, 0
4, 0, Control_c, 2, 91, 68
4, 0, Note_on_c, 2, 62, 127
4, 119, Note_on_c, 2, 62, 0
4, 120, Note_on_c, 2, 62, 127
4, 239, Note_on_c, 2, 62, 0
4, 240, Note_on_c, 2, 62, 127
4, 359, Note_on_c, 2, 62, 0
4, 360, Note_on_c, 2, 60, 104
4, 419, Note_on_c, 2, 60, 0
4, 420, Note_on_c, 2, 64, 96
4, 479, Note_on_c, 2, 64, 0
4, 480, Note_on_c, 2, 62, 127
4, 599, Note_on_c, 2, 62, 0
4, 600, Note_on_c, 2, 69, 127
4, 659, Note_on_c, 2, 69, 0
4, 660, Note_on_c, 2, 67, 127
4, 719, Note_on_c, 2, 67, 0
4, 720, Note_on_c, 2, 67, 127
4, 739, Note_on_c, 2, 67, 0
4, 740, Note_on_c, 2, 69, 127
4, 759, Note_on_c, 2, 69, 0
4, 760, Note_on_c, 2, 67, 127
4, 779, Note_on_c, 2, 67, 0
4, 780, Note_on_c, 2, 66, 127
4, 839, Note_on_c, 2, 66, 0
4, 960, Note_on_c, 2, 64, 88
4, 1079, Note_on_c, 2, 64, 0
4, 1080, Note_on_c, 2, 64, 104
4, 1199, Note_on_c, 2, 64, 0
4, 1200, Note_on_c, 2, 64, 119
4, 1319, Note_on_c, 2, 64, 0
4, 1320, Note_on_c, 2, 62, 119
4, 1379, Note_on_c, 2, 62, 0
4, 1380, Note_on_c, 2, 65, 88
4, 1439, Note_on_c, 2, 65, 0
4, 1440, Note_on_c, 2, 64, 104
4, 1559, Note_on_c, 2, 64, 0
4, 1560, Note_on_c, 2, 71, 119
4, 1619, Note_on_c, 2, 71, 0
4, 1620, Note_on_c, 2, 69, 127
4, 1679, Note_on_c, 2, 69, 0
4, 1680, Note_on_c, 2, 69, 119
4, 1699, Note_on_c, 2, 69, 0
4, 1700, Note_on_c, 2, 71, 78
4, 1719, Note_on_c, 2, 71, 0
4, 1720, Note_on_c, 2, 69, 119
4, 1739, Note_on_c, 2, 69, 0
4, 1740, Note_on_c, 2, 68, 98
4, 1799, Note_on_c, 2, 68, 0
4, 2040, Note_on_c, 2, 72, 73
4, 2099, Note_on_c, 2, 72, 0
4, 2100, Note_on_c, 2, 64, 88
4, 2159, Note_on_c, 2, 64, 0
4, 2280, Note_on_c, 2, 76, 111
4, 2339, Note_on_c, 2, 76, 0
4, 2340, Note_on_c, 2, 72, 88
4, 2399, Note_on_c, 2, 72, 0
4, 2520, Note_on_c, 2, 69, 104
4, 2579, Note_on_c, 2, 69, 0
4, 2580, Note_on_c, 2, 66, 86
4, 2639, Note_on_c, 2, 66, 0
4, 2760, Note_on_c, 2, 74, 96
4, 2819, Note_on_c, 2, 74, 0
4, 2820, Note_on_c, 2, 69, 104
4, 2879, Note_on_c, 2, 69, 0
4, 2940, Note_on_c, 2, 71, 88
4, 2999, Note_on_c, 2, 71, 0
4, 3000, Note_on_c, 2, 74, 88
4, 3059, Note_on_c, 2, 74, 0
4, 3060, Note_on_c, 2, 71, 104
4, 3119, Note_on_c, 2, 71, 0
4, 3120, Note_on_c, 2, 67, 104
4, 3179, Note_on_c, 2, 67, 0
4, 3420, Note_on_c, 2, 69, 119
4, 3479, Note_on_c, 2, 69, 0
4, 3480, Note_on_c, 2, 72, 71
4, 3539, Note_on_c, 2, 72, 0
4, 3540, Note_on_c, 2, 69, 96
4, 3599, Note_on_c, 2, 69, 0
4, 3600, Note_on_c, 2, 66, 98
4, 3659, Note_on_c, 2, 66, 0
4, 3900, Note_on_c, 2, 67, 119
4, 3959, Note_on_c, 2, 67, 0
4, 3960, Note_on_c, 2, 71, 104
4, 4019, Note_on_c, 2, 71, 0
4, 4020, Note_on_c, 2, 67, 119
4, 4079, Note_on_c, 2, 67, 0
4, 4080, Note_on_c, 2, 64, 88
4, 4319, Note_on_c, 2, 64, 0
4, 4320, Note_on_c, 2, 69, 119
4, 4439, Note_on_c, 2, 69, 0
4, 4920, Note_on_c, 2, 69, 119
4, 4979, Note_on_c, 2, 69, 0
4, 4980, Note_on_c, 2, 67, 96
4, 5039, Note_on_c, 2, 67, 0
4, 5040, Note_on_c, 2, 66, 98
4, 5099, Note_on_c, 2, 66, 0
4, 5100, Note_on_c, 2, 64, 78
4, 5159, Note_on_c, 2, 64, 0
4, 5160, Note_on_c, 2, 66, 98
4, 5219, Note_on_c, 2, 66, 0
4, 5220, Note_on_c, 2, 67, 119
4, 5279, Note_on_c, 2, 67, 0
4, 5280, Note_on_c, 2, 69, 119
4, 5339, Note_on_c, 2, 69, 0
4, 5340, Note_on_c, 2, 67, 111
4, 5369, Note_on_c, 2, 67, 0
4, 5370, Note_on_c, 2, 66, 117
4, 5399, Note_on_c, 2, 66, 0
4, 5400, Note_on_c, 2, 67, 127
4, 5459, Note_on_c, 2, 67, 0
4, 5460, Note_on_c, 2, 67, 111
4, 5519, Note_on_c, 2, 67, 0
4, 5520, Note_on_c, 2, 67, 127
4, 5579, Note_on_c, 2, 67, 0
4, 5580, Note_on_c, 2, 62, 127
4, 5699, Note_on_c, 2, 62, 0
4, 5700, Note_on_c, 2, 60, 104
4, 5759, Note_on_c, 2, 60, 0
4, 5760, Note_on_c, 2, 59, 104
4, 5810, Control_c, 2, 7, 97
4, 5815, Control_c, 2, 7, 90
4, 5815, Control_c, 2, 7, 91
4, 5819, Note_on_c, 2, 59, 0
4, 5845, Control_c, 2, 7, 89
4, 5850, Control_c, 2, 7, 87
4, 5865, Control_c, 2, 7, 85
4, 5865, Control_c, 2, 7, 86
4, 5880, Control_c, 2, 7, 84
4, 5880, Note_on_c, 2, 62, 127
4, 5910, Control_c, 2, 7, 83
4, 5939, Note_on_c, 2, 62, 0
4, 6000, Note_on_c, 2, 67, 119
4, 6059, Note_on_c, 2, 67, 0
4, 6120, Note_on_c, 2, 64, 111
4, 6179, Note_on_c, 2, 64, 0
4, 6240, Note_on_c, 2, 62, 119
4, 6299, Note_on_c, 2, 62, 0
4, 6300, Note_on_c, 2, 74, 127
4, 6359, Note_on_c, 2, 74, 0
4, 6360, Note_on_c, 2, 69, 127
4, 6419, Note_on_c, 2, 69, 0
4, 6420, Note_on_c, 2, 67, 127
4, 6479, Note_on_c, 2, 67, 0
4, 6480, Note_on_c, 2, 67, 127
4, 6499, Note_on_c, 2, 67, 0
4, 6500, Note_on_c, 2, 69, 111
4, 6519, Note_on_c, 2, 69, 0
4, 6520, Note_on_c, 2, 67, 127
4, 6539, Note_on_c, 2, 67, 0
4, 6540, Note_on_c, 2, 66, 117
4, 6569, Note_on_c, 2, 66, 0
4, 6570, Note_on_c, 2, 64, 111
4, 6599, Note_on_c, 2, 64, 0
4, 6600, Note_on_c, 2, 66, 117
4, 6659, Note_on_c, 2, 66, 0
4, 6660, Note_on_c, 2, 68, 98
4, 6719, Note_on_c, 2, 68, 0
4, 6720, Note_on_c, 2, 64, 104
4, 6779, Note_on_c, 2, 64, 0
4, 6840, Note_on_c, 2, 71, 111
4, 6899, Note_on_c, 2, 71, 0
4, 6960, Note_on_c, 2, 72, 111
4, 7019, Note_on_c, 2, 72, 0
4, 7080, Note_on_c, 2, 71, 119
4, 7139, Note_on_c, 2, 71, 0
4, 7200, Note_on_c, 2, 71, 111
4, 7259, Note_on_c, 2, 71, 0
4, 7260, Note_on_c, 2, 76, 88
4, 7319, Note_on_c, 2, 76, 0
4, 7320, Note_on_c, 2, 71, 119
4, 7379, Note_on_c, 2, 71, 0
4, 7380, Note_on_c, 2, 69, 127
4, 7439, Note_on_c, 2, 69, 0
4, 7440, Note_on_c, 2, 69, 127
4, 7459, Note_on_c, 2, 69, 0
4, 7460, Note_on_c, 2, 71, 78
4, 7479, Note_on_c, 2, 71, 0
4, 7480, Note_on_c, 2, 69, 119
4, 7499, Note_on_c, 2, 69, 0
4, 7500, Note_on_c, 2, 68, 117
4, 7529, Note_on_c, 2, 68, 0
4, 7530, Note_on_c, 2, 66, 117
4, 7559, Note_on_c, 2, 66, 0
4, 7560, Note_on_c, 2, 67, 127
4, 7619, Note_on_c, 2, 67, 0
4, 7620, Note_on_c, 2, 71, 119
4, 7679, Note_on_c, 2, 71, 0
4, 7680, Note_on_c, 2, 64, 104
4, 7739, Note_on_c, 2, 64, 0
4, 7800, Note_on_c, 2, 69, 119
4, 7859, Note_on_c, 2, 69, 0
4, 7920, Note_on_c, 2, 69, 119
4, 7979, Note_on_c, 2, 69, 0
4, 8040, Note_on_c, 2, 69, 119
4, 8099, Note_on_c, 2, 69, 0
4, 8160, Note_on_c, 2, 67, 111
4, 8219, Note_on_c, 2, 67, 0
4, 8220, Note_on_c, 2, 67, 104
4, 8339, Note_on_c, 2, 67, 0
4, 8340, Note_on_c, 2, 66, 127
4, 8399, Note_on_c, 2, 66, 0
4, 8400, Note_on_c, 2, 64, 88
4, 8459, Note_on_c, 2, 64, 0
4, 8520, Note_on_c, 2, 69, 127
4, 8579, Note_on_c, 2, 69, 0
4, 8640, Note_on_c, 2, 66, 117
4, 8699, Note_on_c, 2, 66, 0
4, 8760, Note_on_c, 2, 71, 119
4, 8819, Note_on_c, 2, 71, 0
4, 8880, Note_on_c, 2, 71, 127
4, 8939, Note_on_c, 2, 71, 0
4, 10200, Note_on_c, 2, 64, 104
4, 10259, Note_on_c, 2, 64, 0
4, 10260, Note_on_c, 2, 62, 119
4, 10319, Note_on_c, 2, 62, 0
4, 10320, Note_on_c, 2, 61, 127
4, 10379, Note_on_c, 2, 61, 0
4, 10380, Note_on_c, 2, 59, 96
4, 10439, Note_on_c, 2, 59, 0
4, 10440, Note_on_c, 2, 61, 96
4, 10499, Note_on_c, 2, 61, 0
4, 10500, Note_on_c, 2, 62, 119
4, 10559, Note_on_c, 2, 62, 0
4, 10560, Note_on_c, 2, 64, 119
4, 10679, Note_on_c, 2, 64, 0
4, 11100, Note_on_c, 2, 69, 127
4, 11129, Note_on_c, 2, 69, 0
4, 11130, Note_on_c, 2, 67, 127
4, 11159, Note_on_c, 2, 67, 0
4, 11160, Note_on_c, 2, 66, 117
4, 11219, Note_on_c, 2, 66, 0
4, 11220, Note_on_c, 2, 62, 127
4, 11279, Note_on_c, 2, 62, 0
4, 11280, Note_on_c, 2, 69, 127
4, 11399, Note_on_c, 2, 69, 0
4, 12450, Control_c, 2, 7, 84
4, 12455, Control_c, 2, 7, 85
4, 12460, Control_c, 2, 7, 86
4, 12465, Control_c, 2, 7, 89
4, 12465, Control_c, 2, 7, 88
4, 12470, Control_c, 2, 7, 90
4, 12475, Control_c, 2, 7, 91
4, 12480, Control_c, 2, 7, 94
4, 12480, Control_c, 2, 7, 92
4, 12480, Note_on_c, 2, 66, 117
4, 12485, Control_c, 2, 7, 95
4, 12490, Control_c, 2, 7, 97
4, 12490, Control_c, 2, 7, 96
4, 12495, Control_c, 2, 7, 98
4, 12599, Note_on_c, 2, 66, 0
4, 12600, Note_on_c, 2, 64, 119
4, 12719, Note_on_c, 2, 64, 0
4, 12720, Note_on_c, 2, 62, 127
4, 12839, Note_on_c, 2, 62, 0
4, 12840, Note_on_c, 2, 62, 127
4, 12899, Note_on_c, 2, 62, 0
4, 12900, Note_on_c, 2, 67, 127
4, 12959, Note_on_c, 2, 67, 0
4, 12960, Note_on_c, 2, 64, 127
4, 13019, Note_on_c, 2, 64, 0
4, 13020, Note_on_c, 2, 69, 127
4, 13139, Note_on_c, 2, 69, 0
4, 13140, Note_on_c, 2, 74, 127
4, 13199, Note_on_c, 2, 74, 0
4, 13200, Note_on_c, 2, 74, 127
4, 13219, Note_on_c, 2, 74, 0
4, 13220, Note_on_c, 2, 76, 111
4, 13239, Note_on_c, 2, 76, 0
4, 13240, Note_on_c, 2, 74, 127
4, 13259, Note_on_c, 2, 74, 0
4, 13260, Note_on_c, 2, 73, 127
4, 13319, Note_on_c, 2, 73, 0
4, 13440, Note_on_c, 2, 71, 127
4, 13559, Note_on_c, 2, 71, 0
4, 13560, Note_on_c, 2, 71, 127
4, 13679, Note_on_c, 2, 71, 0
4, 13680, Note_on_c, 2, 71, 127
4, 13799, Note_on_c, 2, 71, 0
4, 13800, Note_on_c, 2, 69, 127
4, 13859, Note_on_c, 2, 69, 0
4, 13860, Note_on_c, 2, 72, 119
4, 13919, Note_on_c, 2, 72, 0
4, 13920, Note_on_c, 2, 71, 119
4, 14039, Note_on_c, 2, 71, 0
4, 14040, Note_on_c, 2, 78, 127
4, 14099, Note_on_c, 2, 78, 0
4, 14100, Note_on_c, 2, 76, 127
4, 14159, Note_on_c, 2, 76, 0
4, 14160, Note_on_c, 2, 76, 127
4, 14179, Note_on_c, 2, 76, 0
4, 14180, Note_on_c, 2, 78, 127
4, 14199, Note_on_c, 2, 78, 0
4, 14200, Note_on_c, 2, 76, 127
4, 14219, Note_on_c, 2, 76, 0
4, 14220, Note_on_c, 2, 75, 127
4, 14279, Note_on_c, 2, 75, 0
4, 14520, Note_on_c, 2, 71, 127
4, 14579, Note_on_c, 2, 71, 0
4, 14580, Note_on_c, 2, 67, 127
4, 14639, Note_on_c, 2, 67, 0
4, 14760, Note_on_c, 2, 64, 127
4, 14819, Note_on_c, 2, 64, 0
4, 14820, Note_on_c, 2, 60, 119
4, 14879, Note_on_c, 2, 60, 0
4, 15000, Note_on_c, 2, 69, 127
4, 15059, Note_on_c, 2, 69, 0
4, 15060, Note_on_c, 2, 66, 127
4, 15119, Note_on_c, 2, 66, 0
4, 15240, Note_on_c, 2, 62, 127
4, 15299, Note_on_c, 2, 62, 0
4, 15300, Note_on_c, 2, 59, 119
4, 15335, Control_c, 2, 7, 97
4, 15350, Control_c, 2, 7, 94
4, 15355, Control_c, 2, 7, 92
4, 15355, Control_c, 2, 7, 93
4, 15359, Note_on_c, 2, 59, 0
4, 15360, Note_on_c, 2, 64, 127
4, 15365, Control_c, 2, 7, 91
4, 15370, Control_c, 2, 7, 90
4, 15380, Control_c, 2, 7, 88
4, 15380, Control_c, 2, 7, 89
4, 15385, Control_c, 2, 7, 86
4, 15385, Control_c, 2, 7, 87
4, 15390, Control_c, 2, 7, 85
4, 15395, Control_c, 2, 7, 84
4, 15400, Control_c, 2, 7, 82
4, 15400, Control_c, 2, 7, 83
4, 15405, Control_c, 2, 7, 81
4, 15410, Control_c, 2, 7, 79
4, 15410, Control_c, 2, 7, 80
4, 15415, Control_c, 2, 7, 78
4, 15419, Note_on_c, 2, 64, 0
4, 15420, Control_c, 2, 7, 77
4, 15430, Control_c, 2, 7, 76
4, 15435, Control_c, 2, 7, 74
4, 15440, Control_c, 2, 7, 73
4, 15445, Control_c, 2, 7, 72
4, 15480, Note_on_c, 2, 68, 127
4, 15539, Note_on_c, 2, 68, 0
4, 15600, Note_on_c, 2, 68, 127
4, 15659, Note_on_c, 2, 68, 0
4, 15720, Note_on_c, 2, 68, 127
4, 15779, Note_on_c, 2, 68, 0
4, 15840, Note_on_c, 2, 69, 127
4, 15899, Note_on_c, 2, 69, 0
4, 15900, Note_on_c, 2, 76, 127
4, 15959, Note_on_c, 2, 76, 0
4, 15960, Note_on_c, 2, 72, 119
4, 16019, Note_on_c, 2, 72, 0
4, 16020, Note_on_c, 2, 71, 127
4, 16079, Note_on_c, 2, 71, 0
4, 16080, Note_on_c, 2, 64, 127
4, 16139, Note_on_c, 2, 64, 0
4, 16200, Note_on_c, 2, 64, 119
4, 16259, Note_on_c, 2, 64, 0
4, 16320, Note_on_c, 2, 65, 127
4, 16379, Note_on_c, 2, 65, 0
4, 16440, Note_on_c, 2, 67, 127
4, 16499, Note_on_c, 2, 67, 0
4, 16560, Note_on_c, 2, 67, 127
4, 16619, Note_on_c, 2, 67, 0
4, 17880, Note_on_c, 2, 55, 127
4, 17939, Note_on_c, 2, 55, 0
4, 17940, Note_on_c, 2, 57, 127
4, 17999, Note_on_c, 2, 57, 0
4, 18000, Note_on_c, 2, 59, 127
4, 18059, Note_on_c, 2, 59, 0
4, 18060, Note_on_c, 2, 60, 111
4, 18119, Note_on_c, 2, 60, 0
4, 18120, Note_on_c, 2, 59, 111
4, 18179, Note_on_c, 2, 59, 0
4, 18180, Note_on_c, 2, 57, 127
4, 18239, Note_on_c, 2, 57, 0
4, 18240, Note_on_c, 2, 55, 127
4, 18359, Note_on_c, 2, 55, 0
4, 18940, Control_c, 2, 7, 73
4, 18945, Control_c, 2, 7, 74
4, 18950, Control_c, 2, 7, 75
4, 18955, Control_c, 2, 7, 76
4, 18960, Control_c, 2, 7, 77
4, 18970, Control_c, 2, 7, 78
4, 18975, Control_c, 2, 7, 79
4, 18980, Control_c, 2, 7, 80
4, 18985, Control_c, 2, 7, 83
4, 18985, Control_c, 2, 7, 82
4, 18990, Control_c, 2, 7, 84
4, 18995, Control_c, 2, 7, 86
4, 18995, Control_c, 2, 7, 85
4, 19000, Control_c, 2, 7, 88
4, 19005, Control_c, 2, 7, 90
4, 19005, Control_c, 2, 7, 89
4, 19030, Control_c, 2, 7, 91
4, 19060, Control_c, 2, 7, 92
4, 19075, Control_c, 2, 7, 93
4, 19099, Control_c, 2, 7, 94
4, 19109, Control_c, 2, 7, 95
4, 19119, Control_c, 2, 7, 96
4, 19200, Note_on_c, 2, 62, 127
4, 19215, Control_c, 2, 7, 97
4, 19220, Control_c, 2, 7, 98
4, 19245, Control_c, 2, 7, 99
4, 19319, Note_on_c, 2, 62, 0
4, 19320, Note_on_c, 2, 62, 127
4, 19439, Note_on_c, 2, 62, 0
4, 19440, Note_on_c, 2, 62, 127
4, 19559, Note_on_c, 2, 62, 0
4, 19560, Note_on_c, 2, 60, 119
4, 19619, Note_on_c, 2, 60, 0
4, 19620, Note_on_c, 2, 64, 127
4, 19679, Note_on_c, 2, 64, 0
4, 19680, Note_on_c, 2, 62, 127
4, 19799, Note_on_c, 2, 62, 0
4, 19800, Note_on_c, 2, 69, 127
4, 19859, Note_on_c, 2, 69, 0
4, 19860, Note_on_c, 2, 67, 127
4, 19919, Note_on_c, 2, 67, 0
4, 19920, Note_on_c, 2, 67, 127
4, 19939, Note_on_c, 2, 67, 0
4, 19940, Note_on_c, 2, 69, 127
4, 19959, Note_on_c, 2, 69, 0
4, 19960, Note_on_c, 2, 67, 127
4, 19979, Note_on_c, 2, 67, 0
4, 19980, Note_on_c, 2, 66, 127
4, 20005, Control_c, 2, 7, 98
4, 20030, Control_c, 2, 7, 97
4, 20039, Note_on_c, 2, 66, 0
4, 20039, Control_c, 2, 7, 96
4, 20050, Control_c, 2, 7, 93
4, 20050, Control_c, 2, 7, 94
4, 20055, Control_c, 2, 7, 92
4, 20060, Control_c, 2, 7, 91
4, 20065, Control_c, 2, 7, 88
4, 20065, Control_c, 2, 7, 90
4, 20075, Control_c, 2, 7, 86
4, 20075, Control_c, 2, 7, 87
4, 20080, Control_c, 2, 7, 85
4, 20090, Control_c, 2, 7, 84
4, 20095, Control_c, 2, 7, 83
4, 20100, Control_c, 2, 7, 81
4, 20100, Control_c, 2, 7, 82
4, 20110, Control_c, 2, 7, 80
4, 20130, Control_c, 2, 7, 79
4, 20195, Control_c, 2, 7, 78
4, 23640, Note_on_c, 2, 62, 127
4, 23699, Note_on_c, 2, 62, 0
4, 23700, Note_on_c, 2, 64, 127
4, 23759, Note_on_c, 2, 64, 0
4, 23760, Note_on_c, 2, 66, 127
4, 23819, Note_on_c, 2, 66, 0
4, 23820, Note_on_c, 2, 67, 127
4, 23879, Note_on_c, 2, 67, 0
4, 23880, Note_on_c, 2, 66, 127
4, 23939, Note_on_c, 2, 66, 0
4, 23940, Note_on_c, 2, 64, 127
4, 23999, Note_on_c, 2, 64, 0
4, 24000, Note_on_c, 2, 62, 127
4, 24119, Note_on_c, 2, 62, 0
4, 24960, Note_on_c, 2, 62, 127
4, 24985, Control_c, 2, 7, 84
4, 24990, Control_c, 2, 7, 87
4, 25010, Control_c, 2, 7, 88
4, 25020, Control_c, 2, 7, 90
4, 25020, Control_c, 2, 7, 89
4, 25070, Control_c, 2, 7, 91
4, 25079, Note_on_c, 2, 62, 0
4, 25080, Note_on_c, 2, 62, 127
4, 25090, Control_c, 2, 7, 92
4, 25095, Control_c, 2, 7, 93
4, 25135, Control_c, 2, 7, 94
4, 25199, Note_on_c, 2, 62, 0
4, 25200, Note_on_c, 2, 62, 127
4, 25319, Note_on_c, 2, 62, 0
4, 25320, Note_on_c, 2, 60, 119
4, 25379, Note_on_c, 2, 60, 0
4, 25380, Note_on_c, 2, 64, 127
4, 25439, Note_on_c, 2, 64, 0
4, 25440, Note_on_c, 2, 62, 127
4, 25559, Note_on_c, 2, 62, 0
4, 25560, Note_on_c, 2, 69, 127
4, 25619, Note_on_c, 2, 69, 0
4, 25620, Note_on_c, 2, 67, 127
4, 25679, Note_on_c, 2, 67, 0
4, 25680, Note_on_c, 2, 67, 127
4, 25699, Note_on_c, 2, 67, 0
4, 25700, Note_on_c, 2, 69, 127
4, 25719, Note_on_c, 2, 69, 0
4, 25720, Note_on_c, 2, 67, 127
4, 25739, Note_on_c, 2, 67, 0
4, 25740, Note_on_c, 2, 66, 117
4, 25799, Note_on_c, 2, 66, 0
4, 25920, Note_on_c, 2, 64, 127
4, 26039, Note_on_c, 2, 64, 0
4, 26040, Note_on_c, 2, 64, 127
4, 26159, Note_on_c, 2, 64, 0
4, 26160, Note_on_c, 2, 64, 127
4, 26279, Note_on_c, 2, 64, 0
4, 26280, Note_on_c, 2, 62, 127
4, 26339, Note_on_c, 2, 62, 0
4, 26340, Note_on_c, 2, 65, 127
4, 26399, Note_on_c, 2, 65, 0
4, 26400, Note_on_c, 2, 64, 127
4, 26519, Note_on_c, 2, 64, 0
4, 26520, Note_on_c, 2, 71, 127
4, 26579, Note_on_c, 2, 71, 0
4, 26580, Note_on_c, 2, 69, 127
4, 26639, Note_on_c, 2, 69, 0
4, 26640, Note_on_c, 2, 69, 127
4, 26659, Note_on_c, 2, 69, 0
4, 26660, Note_on_c, 2, 71, 127
4, 26679, Note_on_c, 2, 71, 0
4, 26680, Note_on_c, 2, 69, 127
4, 26699, Note_on_c, 2, 69, 0
4, 26700, Note_on_c, 2, 68, 127
4, 26759, Note_on_c, 2, 68, 0
4, 27000, Note_on_c, 2, 72, 119
4, 27059, Note_on_c, 2, 72, 0
4, 27060, Note_on_c, 2, 64, 127
4, 27119, Note_on_c, 2, 64, 0
4, 27240, Note_on_c, 2, 76, 127
4, 27299, Note_on_c, 2, 76, 0
4, 27300, Note_on_c, 2, 72, 119
4, 27359, Note_on_c, 2, 72, 0
4, 27480, Note_on_c, 2, 69, 127
4, 27539, Note_on_c, 2, 69, 0
4, 27540, Note_on_c, 2, 66, 127
4, 27599, Note_on_c, 2, 66, 0
4, 27720, Note_on_c, 2, 74, 127
4, 27779, Note_on_c, 2, 74, 0
4, 27780, Note_on_c, 2, 69, 127
4, 27839, Note_on_c, 2, 69, 0
4, 27900, Note_on_c, 2, 71, 127
4, 27959, Note_on_c, 2, 71, 0
4, 27960, Note_on_c, 2, 74, 127
4, 28019, Note_on_c, 2, 74, 0
4, 28020, Note_on_c, 2, 71, 127
4, 28079, Note_on_c, 2, 71, 0
4, 28080, Note_on_c, 2, 67, 127
4, 28139, Note_on_c, 2, 67, 0
4, 28380, Note_on_c, 2, 69, 127
4, 28439, Note_on_c, 2, 69, 0
4, 28440, Note_on_c, 2, 72, 119
4, 28465, Control_c, 2, 7, 97
4, 28499, Note_on_c, 2, 72, 0
4, 28500, Note_on_c, 2, 69, 127
4, 28559, Note_on_c, 2, 69, 0
4, 28560, Note_on_c, 2, 66, 127
4, 28619, Note_on_c, 2, 66, 0
4, 28860, Note_on_c, 2, 67, 127
4, 28919, Note_on_c, 2, 67, 0
4, 28920, Note_on_c, 2, 71, 127
4, 28979, Note_on_c, 2, 71, 0
4, 28980, Note_on_c, 2, 67, 127
4, 29039, Note_on_c, 2, 67, 0
4, 29040, Note_on_c, 2, 64, 127
4, 29060, Control_c, 2, 7, 102
4, 29190, Control_c, 2, 7, 101
4, 29195, Control_c, 2, 7, 100
4, 29200, Control_c, 2, 7, 99
4, 29230, Control_c, 2, 7, 97
4, 29235, Control_c, 2, 7, 96
4, 29279, Note_on_c, 2, 64, 0
4, 29280, Note_on_c, 2, 69, 127
4, 29295, Control_c, 2, 7, 93
4, 29399, Note_on_c, 2, 69, 0
4, 29805, Control_c, 2, 7, 73
4, 29805, Control_c, 2, 7, 80
4, 29810, Control_c, 2, 7, 72
4, 29815, Control_c, 2, 7, 71
4, 29820, Control_c, 2, 7, 70
4, 29825, Control_c, 2, 7, 66
4, 29825, Control_c, 2, 7, 67
4, 29830, Control_c, 2, 7, 63
4, 29830, Control_c, 2, 7, 64
4, 29880, Note_on_c, 2, 69, 127
4, 29939, Note_on_c, 2, 69, 0
4, 29940, Note_on_c, 2, 67, 127
4, 29999, Note_on_c, 2, 67, 0
4, 30000, Note_on_c, 2, 66, 127
4, 30059, Note_on_c, 2, 66, 0
4, 30060, Note_on_c, 2, 64, 127
4, 30119, Note_on_c, 2, 64, 0
4, 30120, Note_on_c, 2, 66, 127
4, 30179, Note_on_c, 2, 66, 0
4, 30180, Note_on_c, 2, 67, 127
4, 30239, Note_on_c, 2, 67, 0
4, 30240, Note_on_c, 2, 69, 127
4, 30275, Control_c, 2, 7, 65
4, 30275, Control_c, 2, 7, 64
4, 30280, Control_c, 2, 7, 68
4, 30280, Control_c, 2, 7, 67
4, 30285, Control_c, 2, 7, 69
4, 30290, Control_c, 2, 7, 71
4, 30295, Control_c, 2, 7, 74
4, 30295, Control_c, 2, 7, 72
4, 30299, Note_on_c, 2, 69, 0
4, 30300, Control_c, 2, 7, 77
4, 30300, Note_on_c, 2, 67, 127
4, 30305, Control_c, 2, 7, 82
4, 30305, Control_c, 2, 7, 80
4, 30310, Control_c, 2, 7, 85
4, 30310, Control_c, 2, 7, 83
4, 30315, Control_c, 2, 7, 86
4, 30320, Control_c, 2, 7, 88
4, 30320, Control_c, 2, 7, 87
4, 30325, Control_c, 2, 7, 89
4, 30329, Note_on_c, 2, 67, 0
4, 30330, Control_c, 2, 7, 90
4, 30330, Note_on_c, 2, 66, 127
4, 30335, Control_c, 2, 7, 91
4, 30340, Control_c, 2, 7, 92
4, 30345, Control_c, 2, 7, 93
4, 30350, Control_c, 2, 7, 94
4, 30355, Control_c, 2, 7, 97
4, 30359, Note_on_c, 2, 66, 0
4, 30360, Note_on_c, 2, 67, 127
4, 30365, Control_c, 2, 7, 98
4, 30380, Control_c, 2, 7, 99
4, 30385, Control_c, 2, 7, 100
4, 30400, Control_c, 2, 7, 101
4, 30419, Note_on_c, 2, 67, 0
4, 30420, Note_on_c, 2, 67, 127
4, 30479, Note_on_c, 2, 67, 0
4, 30480, Note_on_c, 2, 67, 127
4, 30539, Note_on_c, 2, 67, 0
4, 30540, Note_on_c, 2, 62, 127
4, 30659, Note_on_c, 2, 62, 0
4, 30660, Note_on_c, 2, 60, 111
4, 30719, Note_on_c, 2, 60, 0
4, 30720, Note_on_c, 2, 59, 127
4, 30725, Control_c, 2, 7, 100
4, 30730, Control_c, 2, 7, 98
4, 30745, Control_c, 2, 7, 97
4, 30760, Control_c, 2, 7, 96
4, 30765, Control_c, 2, 7, 94
4, 30770, Control_c, 2, 7, 93
4, 30805, Control_c, 2, 7, 92
4, 30810, Control_c, 2, 7, 91
4, 30815, Control_c, 2, 7, 90
4, 30835, Control_c, 2, 7, 88
4, 30835, Control_c, 2, 7, 89
4, 30840, Control_c, 2, 7, 86
4, 30840, Control_c, 2, 7, 87
4, 30845, Control_c, 2, 7, 85
4, 30850, Control_c, 2, 7, 84
4, 30860, Control_c, 2, 7, 82
4, 30860, Control_c, 2, 7, 83
4, 30865, Control_c, 2, 7, 81
4, 30870, Control_c, 2, 7, 79
4, 30870, Control_c, 2, 7, 80
4, 30875, Control_c, 2, 7, 78
4, 30885, Control_c, 2, 7, 77
4, 30895, Control_c, 2, 7, 74
4, 30895, Control_c, 2, 7, 76
4, 30905, Control_c, 2, 7, 73
4, 30910, Control_c, 2, 7, 71
4, 30910, Control_c, 2, 7, 72
4, 30920, Control_c, 2, 7, 70
4, 30925, Control_c, 2, 7, 69
4, 30935, Control_c, 2, 7, 68
4, 30940, Control_c, 2, 7, 67
4, 30945, Control_c, 2, 7, 65
4, 30945, Control_c, 2, 7, 66
4, 30950, Control_c, 2, 7, 64
4, 30960, Control_c, 2, 7, 63
4, 30965, Control_c, 2, 7, 62
4, 30970, Control_c, 2, 7, 61
4, 30975, Control_c, 2, 7, 59
4, 30975, Control_c, 2, 7, 60
4, 30980, Control_c, 2, 7, 58
4, 30985, Control_c, 2, 7, 56
4, 30985, Control_c, 2, 7, 57
4, 30990, Control_c, 2, 7, 55
4, 30995, Control_c, 2, 7, 54
4, 31005, Control_c, 2, 7, 53
4, 31010, Control_c, 2, 7, 52
4, 31020, Control_c, 2, 7, 51
4, 31030, Control_c, 2, 7, 49
4, 31030, Control_c, 2, 7, 50
4, 31035, Control_c, 2, 7, 48
4, 31040, Control_c, 2, 7, 46
4, 31040, Control_c, 2, 7, 47
4, 31050, Control_c, 2, 7, 45
4, 31055, Control_c, 2, 7, 44
4, 31060, Control_c, 2, 7, 43
4, 31065, Control_c, 2, 7, 41
4, 31065, Control_c, 2, 7, 42
4, 31070, Control_c, 2, 7, 38
4, 31070, Control_c, 2, 7, 39
4, 31080, Control_c, 2, 7, 37
4, 31085, Control_c, 2, 7, 36
4, 31095, Control_c, 2, 7, 35
4, 31105, Control_c, 2, 7, 34
4, 31115, Control_c, 2, 7, 33
4, 31130, Control_c, 2, 7, 31
4, 31130, Control_c, 2, 7, 32
4, 31135, Control_c, 2, 7, 30
4, 31144, Control_c, 2, 7, 29
4, 31154, Control_c, 2, 7, 28
4, 31164, Control_c, 2, 7, 27
4, 31169, Control_c, 2, 7, 26
4, 31174, Control_c, 2, 7, 25
4, 31184, Control_c, 2, 7, 24
4, 31194, Control_c, 2, 7, 23
4, 31199, Note_on_c, 2, 59, 0
4, 31199, End_track
5, 0, Start_track
5, 0, MIDI_port, 0
5, 0, Title_t, "Viola"
5, 0, Control_c, 3, 0, 0
5, 0, Program_c, 3, 48
5, 0, Control_c, 3, 7, 100
5, 0, Control_c, 3, 10, 74
5, 0, Control_c, 3, 93, 0
5, 0, Control_c, 3, 91, 74
5, 0, Note_on_c, 3, 59, 78
5, 119, Note_on_c, 3, 59, 0
5, 120, Note_on_c, 3, 57, 119
5, 239, Note_on_c, 3, 57, 0
5, 240, Note_on_c, 3, 55, 127
5, 359, Note_on_c, 3, 55, 0
5, 360, Note_on_c, 3, 55, 119
5, 419, Note_on_c, 3, 55, 0
5, 420, Note_on_c, 3, 60, 104
5, 479, Note_on_c, 3, 60, 0
5, 480, Note_on_c, 3, 57, 127
5, 539, Note_on_c, 3, 57, 0
5, 540, Note_on_c, 3, 62, 119
5, 659, Note_on_c, 3, 62, 0
5, 660, Note_on_c, 3, 62, 119
5, 719, Note_on_c, 3, 62, 0
5, 720, Note_on_c, 3, 62, 127
5, 779, Note_on_c, 3, 62, 0
5, 780, Note_on_c, 3, 62, 127
5, 839, Note_on_c, 3, 62, 0
5, 960, Note_on_c, 3, 57, 119
5, 1079, Note_on_c, 3, 57, 0
5, 1080, Note_on_c, 3, 59, 104
5, 1199, Note_on_c, 3, 59, 0
5, 1200, Note_on_c, 3, 57, 127
5, 1319, Note_on_c, 3, 57, 0
5, 1320, Note_on_c, 3, 57, 104
5, 1379, Note_on_c, 3, 57, 0
5, 1380, Note_on_c, 3, 62, 111
5, 1439, Note_on_c, 3, 62, 0
5, 1440, Note_on_c, 3, 59, 111
5, 1499, Note_on_c, 3, 59, 0
5, 1500, Note_on_c, 3, 64, 96
5, 1619, Note_on_c, 3, 64, 0
5, 1620, Note_on_c, 3, 64, 104
5, 1679, Note_on_c, 3, 64, 0
5, 1680, Note_on_c, 3, 64, 104
5, 1739, Note_on_c, 3, 64, 0
5, 1740, Note_on_c, 3, 64, 104
5, 1799, Note_on_c, 3, 64, 0
5, 2040, Note_on_c, 3, 69, 104
5, 2099, Note_on_c, 3, 69, 0
5, 2100, Note_on_c, 3, 57, 127
5, 2159, Note_on_c, 3, 57, 0
5, 2280, Note_on_c, 3, 60, 78
5, 2339, Note_on_c, 3, 60, 0
5, 2340, Note_on_c, 3, 57, 111
5, 2399, Note_on_c, 3, 57, 0
5, 2520, Note_on_c, 3, 62, 119
5, 2579, Note_on_c, 3, 62, 0
5, 2580, Note_on_c, 3, 50, 127
5, 2639, Note_on_c, 3, 50, 0
5, 2760, Note_on_c, 3, 66, 117
5, 2819, Note_on_c, 3, 66, 0
5, 2820, Note_on_c, 3, 62, 111
5, 2879, Note_on_c, 3, 62, 0
5, 2940, Note_on_c, 3, 67, 119
5, 2999, Note_on_c, 3, 67, 0
5, 3000, Note_on_c, 3, 71, 88
5, 3059, Note_on_c, 3, 71, 0
5, 3060, Note_on_c, 3, 67, 119
5, 3119, Note_on_c, 3, 67, 0
5, 3120, Note_on_c, 3, 60, 96
5, 3179, Note_on_c, 3, 60, 0
5, 3420, Note_on_c, 3, 66, 117
5, 3479, Note_on_c, 3, 66, 0
5, 3480, Note_on_c, 3, 69, 104
5, 3539, Note_on_c, 3, 69, 0
5, 3540, Note_on_c, 3, 66, 117
5, 3599, Note_on_c, 3, 66, 0
5, 3600, Note_on_c, 3, 59, 88
5, 3659, Note_on_c, 3, 59, 0
5, 3900, Note_on_c, 3, 64, 88
5, 3959, Note_on_c, 3, 64, 0
5, 3960, Note_on_c, 3, 69, 104
5, 4019, Note_on_c, 3, 69, 0
5, 4020, Note_on_c, 3, 64, 104
5, 4079, Note_on_c, 3, 64, 0
5, 4080, Note_on_c, 3, 57, 127
5, 4439, Note_on_c, 3, 57, 0
5, 4920, Note_on_c, 3, 50, 119
5, 4979, Note_on_c, 3, 50, 0
5, 4980, Note_on_c, 3, 52, 104
5, 5039, Note_on_c, 3, 52, 0
5, 5040, Note_on_c, 3, 54, 127
5, 5099, Note_on_c, 3, 54, 0
5, 5100, Note_on_c, 3, 55, 119
5, 5159, Note_on_c, 3, 55, 0
5, 5160, Note_on_c, 3, 54, 98
5, 5219, Note_on_c, 3, 54, 0
5, 5220, Note_on_c, 3, 52, 80
5, 5279, Note_on_c, 3, 52, 0
5, 5280, Note_on_c, 3, 50, 119
5, 5339, Note_on_c, 3, 50, 0
5, 5340, Note_on_c, 3, 62, 119
5, 5399, Note_on_c, 3, 62, 0
5, 5400, Note_on_c, 3, 62, 127
5, 5459, Note_on_c, 3, 62, 0
5, 5460, Note_on_c, 3, 64, 104
5, 5519, Note_on_c, 3, 64, 0
5, 5520, Note_on_c, 3, 62, 127
5, 5759, Note_on_c, 3, 62, 0
5, 5760, Note_on_c, 3, 62, 119
5, 5810, Control_c, 3, 7, 97
5, 5815, Control_c, 3, 7, 90
5, 5815, Control_c, 3, 7, 91
5, 5819, Note_on_c, 3, 62, 0
5, 5845, Control_c, 3, 7, 89
5, 5850, Control_c, 3, 7, 87
5, 5865, Control_c, 3, 7, 85
5, 5865, Control_c, 3, 7, 86
5, 5880, Control_c, 3, 7, 84
5, 5880, Note_on_c, 3, 62, 119
5, 5910, Control_c, 3, 7, 83
5, 5939, Note_on_c, 3, 62, 0
5, 6000, Note_on_c, 3, 62, 127
5, 6059, Note_on_c, 3, 62, 0
5, 6120, Note_on_c, 3, 60, 96
5, 6179, Note_on_c, 3, 60, 0
5, 6240, Note_on_c, 3, 54, 127
5, 6299, Note_on_c, 3, 54, 0
5, 6300, Note_on_c, 3, 62, 111
5, 6419, Note_on_c, 3, 62, 0
5, 6420, Note_on_c, 3, 62, 119
5, 6479, Note_on_c, 3, 62, 0
5, 6480, Note_on_c, 3, 62, 111
5, 6539, Note_on_c, 3, 62, 0
5, 6540, Note_on_c, 3, 62, 111
5, 6659, Note_on_c, 3, 62, 0
5, 6660, Note_on_c, 3, 62, 127
5, 6719, Note_on_c, 3, 62, 0
5, 6720, Note_on_c, 3, 64, 104
5, 6779, Note_on_c, 3, 64, 0
5, 6840, Note_on_c, 3, 64, 104
5, 6899, Note_on_c, 3, 64, 0
5, 6960, Note_on_c, 3, 64, 119
5, 7019, Note_on_c, 3, 64, 0
5, 7080, Note_on_c, 3, 62, 127
5, 7139, Note_on_c, 3, 62, 0
5, 7200, Note_on_c, 3, 64, 119
5, 7259, Note_on_c, 3, 64, 0
5, 7260, Note_on_c, 3, 64, 111
5, 7379, Note_on_c, 3, 64, 0
5, 7380, Note_on_c, 3, 64, 104
5, 7439, Note_on_c, 3, 64, 0
5, 7440, Note_on_c, 3, 64, 119
5, 7499, Note_on_c, 3, 64, 0
5, 7500, Note_on_c, 3, 64, 119
5, 7619, Note_on_c, 3, 64, 0
5, 7620, Note_on_c, 3, 64, 119
5, 7679, Note_on_c, 3, 64, 0
5, 7680, Note_on_c, 3, 64, 111
5, 7739, Note_on_c, 3, 64, 0
5, 7800, Note_on_c, 3, 64, 119
5, 7859, Note_on_c, 3, 64, 0
5, 7920, Note_on_c, 3, 62, 127
5, 7979, Note_on_c, 3, 62, 0
5, 8040, Note_on_c, 3, 62, 127
5, 8099, Note_on_c, 3, 62, 0
5, 8160, Note_on_c, 3, 62, 127
5, 8219, Note_on_c, 3, 62, 0
5, 8220, Note_on_c, 3, 71, 119
5, 8339, Note_on_c, 3, 71, 0
5, 8340, Note_on_c, 3, 59, 104
5, 8399, Note_on_c, 3, 59, 0
5, 8400, Note_on_c, 3, 64, 104
5, 8459, Note_on_c, 3, 64, 0
5, 8520, Note_on_c, 3, 66, 127
5, 8579, Note_on_c, 3, 66, 0
5, 8640, Note_on_c, 3, 59, 104
5, 8699, Note_on_c, 3, 59, 0
5, 8760, Note_on_c, 3, 59, 104
5, 8819, Note_on_c, 3, 59, 0
5, 8880, Note_on_c, 3, 59, 104
5, 8939, Note_on_c, 3, 59, 0
5, 10200, Note_on_c, 3, 57, 127
5, 10259, Note_on_c, 3, 57, 0
5, 10260, Note_on_c, 3, 59, 96
5, 10319, Note_on_c, 3, 59, 0
5, 10320, Note_on_c, 3, 61, 127
5, 10379, Note_on_c, 3, 61, 0
5, 10380, Note_on_c, 3, 62, 127
5, 10439, Note_on_c, 3, 62, 0
5, 10440, Note_on_c, 3, 61, 127
5, 10499, Note_on_c, 3, 61, 0
5, 10500, Note_on_c, 3, 59, 111
5, 10559, Note_on_c, 3, 59, 0
5, 10560, Note_on_c, 3, 57, 100
5, 10680, Note_on_c, 3, 57, 0
5, 11100, Note_on_c, 3, 66, 127
5, 11129, Note_on_c, 3, 66, 0
5, 11130, Note_on_c, 3, 64, 88
5, 11159, Note_on_c, 3, 64, 0
5, 11160, Note_on_c, 3, 62, 119
5, 11219, Note_on_c, 3, 62, 0
5, 11220, Note_on_c, 3, 59, 119
5, 11279, Note_on_c, 3, 59, 0
5, 11280, Note_on_c, 3, 64, 111
5, 11399, Note_on_c, 3, 64, 0
5, 12450, Control_c, 3, 7, 84
5, 12455, Control_c, 3, 7, 85
5, 12460, Control_c, 3, 7, 86
5, 12465, Control_c, 3, 7, 89
5, 12465, Control_c, 3, 7, 88
5, 12470, Control_c, 3, 7, 90
5, 12475, Control_c, 3, 7, 91
5, 12480, Control_c, 3, 7, 94
5, 12480, Control_c, 3, 7, 92
5, 12480, Note_on_c, 3, 57, 117
5, 12485, Control_c, 3, 7, 95
5, 12490, Control_c, 3, 7, 97
5, 12490, Control_c, 3, 7, 96
5, 12495, Control_c, 3, 7, 98
5, 12599, Note_on_c, 3, 57, 0
5, 12600, Note_on_c, 3, 57, 117
5, 12719, Note_on_c, 3, 57, 0
5, 12720, Note_on_c, 3, 57, 117
5, 12839, Note_on_c, 3, 57, 0
5, 12840, Note_on_c, 3, 55, 96
5, 12899, Note_on_c, 3, 55, 0
5, 12900, Note_on_c, 3, 59, 119
5, 12959, Note_on_c, 3, 59, 0
5, 12960, Note_on_c, 3, 57, 98
5, 13079, Note_on_c, 3, 57, 0
5, 13080, Note_on_c, 3, 69, 98
5, 13139, Note_on_c, 3, 69, 0
5, 13140, Note_on_c, 3, 69, 98
5, 13199, Note_on_c, 3, 69, 0
5, 13200, Note_on_c, 3, 69, 108
5, 13259, Note_on_c, 3, 69, 0
5, 13260, Note_on_c, 3, 69, 108
5, 13319, Note_on_c, 3, 69, 0
5, 13440, Note_on_c, 3, 64, 96
5, 13559, Note_on_c, 3, 64, 0
5, 13560, Note_on_c, 3, 66, 127
5, 13679, Note_on_c, 3, 66, 0
5, 13680, Note_on_c, 3, 64, 104
5, 13799, Note_on_c, 3, 64, 0
5, 13800, Note_on_c, 3, 64, 104
5, 13859, Note_on_c, 3, 64, 0
5, 13860, Note_on_c, 3, 69, 108
5, 13919, Note_on_c, 3, 69, 0
5, 13920, Note_on_c, 3, 66, 127
5, 13979, Note_on_c, 3, 66, 0
5, 13980, Note_on_c, 3, 71, 111
5, 14099, Note_on_c, 3, 71, 0
5, 14100, Note_on_c, 3, 71, 104
5, 14159, Note_on_c, 3, 71, 0
5, 14160, Note_on_c, 3, 71, 104
5, 14219, Note_on_c, 3, 71, 0
5, 14220, Note_on_c, 3, 71, 111
5, 14279, Note_on_c, 3, 71, 0
5, 14520, Note_on_c, 3, 64, 104
5, 14579, Note_on_c, 3, 64, 0
5, 14580, Note_on_c, 3, 52, 111
5, 14639, Note_on_c, 3, 52, 0
5, 14760, Note_on_c, 3, 69, 98
5, 14819, Note_on_c, 3, 69, 0
5, 14820, Note_on_c, 3, 57, 108
5, 14879, Note_on_c, 3, 57, 0
5, 15000, Note_on_c, 3, 62, 96
5, 15059, Note_on_c, 3, 62, 0
5, 15060, Note_on_c, 3, 50, 119
5, 15119, Note_on_c, 3, 50, 0
5, 15240, Note_on_c, 3, 67, 104
5, 15299, Note_on_c, 3, 67, 0
5, 15300, Note_on_c, 3, 55, 104
5, 15335, Control_c, 3, 7, 97
5, 15350, Control_c, 3, 7, 94
5, 15355, Control_c, 3, 7, 92
5, 15355, Control_c, 3, 7, 93
5, 15359, Note_on_c, 3, 55, 0
5, 15360, Note_on_c, 3, 56, 96
5, 15365, Control_c, 3, 7, 91
5, 15370, Control_c, 3, 7, 90
5, 15380, Control_c, 3, 7, 88
5, 15380, Control_c, 3, 7, 89
5, 15385, Control_c, 3, 7, 86
5, 15385, Control_c, 3, 7, 87
5, 15390, Control_c, 3, 7, 85
5, 15395, Control_c, 3, 7, 84
5, 15400, Control_c, 3, 7, 82
5, 15400, Control_c, 3, 7, 83
5, 15405, Control_c, 3, 7, 81
5, 15410, Control_c, 3, 7, 79
5, 15410, Control_c, 3, 7, 80
5, 15415, Control_c, 3, 7, 78
5, 15420, Note_on_c, 3, 56, 0
5, 15420, Control_c, 3, 7, 77
5, 15430, Control_c, 3, 7, 76
5, 15435, Control_c, 3, 7, 74
5, 15440, Control_c, 3, 7, 73
5, 15445, Control_c, 3, 7, 72
5, 15480, Note_on_c, 3, 62, 96
5, 15540, Note_on_c, 3, 62, 0
5, 15600, Note_on_c, 3, 59, 96
5, 15660, Note_on_c, 3, 59, 0
5, 15720, Note_on_c, 3, 64, 96
5, 15780, Note_on_c, 3, 64, 0
5, 15840, Note_on_c, 3, 64, 96
5, 15900, Note_on_c, 3, 64, 0
5, 15900, Note_on_c, 3, 60, 96
5, 15960, Note_on_c, 3, 60, 0
5, 15960, Note_on_c, 3, 64, 96
5, 16020, Note_on_c, 3, 64, 0
5, 16020, Note_on_c, 3, 68, 96
5, 16080, Note_on_c, 3, 68, 0
5, 16080, Note_on_c, 3, 69, 96
5, 16140, Note_on_c, 3, 69, 0
5, 16200, Note_on_c, 3, 57, 96
5, 16260, Note_on_c, 3, 57, 0
5, 16320, Note_on_c, 3, 62, 96
5, 16380, Note_on_c, 3, 62, 0
5, 16440, Note_on_c, 3, 62, 96
5, 16500, Note_on_c, 3, 62, 0
5, 16560, Note_on_c, 3, 64, 96
5, 16620, Note_on_c, 3, 64, 0
5, 17880, Note_on_c, 3, 55, 119
5, 17939, Note_on_c, 3, 55, 0
5, 17940, Note_on_c, 3, 57, 119
5, 17999, Note_on_c, 3, 57, 0
5, 18000, Note_on_c, 3, 59, 96
5, 18059, Note_on_c, 3, 59, 0
5, 18060, Note_on_c, 3, 60, 88
5, 18119, Note_on_c, 3, 60, 0
5, 18120, Note_on_c, 3, 59, 88
5, 18179, Note_on_c, 3, 59, 0
5, 18180, Note_on_c, 3, 57, 127
5, 18239, Note_on_c, 3, 57, 0
5, 18240, Note_on_c, 3, 55, 111
5, 18359, Note_on_c, 3, 55, 0
5, 18940, Control_c, 3, 7, 73
5, 18945, Control_c, 3, 7, 74
5, 18950, Control_c, 3, 7, 75
5, 18955, Control_c, 3, 7, 76
5, 18960, Control_c, 3, 7, 77
5, 18970, Control_c, 3, 7, 78
5, 18975, Control_c, 3, 7, 79
5, 18980, Control_c, 3, 7, 80
5, 18985, Control_c, 3, 7, 83
5, 18985, Control_c, 3, 7, 82
5, 18990, Control_c, 3, 7, 84
5, 18995, Control_c, 3, 7, 86
5, 18995, Control_c, 3, 7, 85
5, 19000, Control_c, 3, 7, 88
5, 19005, Control_c, 3, 7, 90
5, 19005, Control_c, 3, 7, 89
5, 19030, Control_c, 3, 7, 91
5, 19060, Control_c, 3, 7, 92
5, 19075, Control_c, 3, 7, 93
5, 19099, Control_c, 3, 7, 94
5, 19109, Control_c, 3, 7, 95
5, 19119, Control_c, 3, 7, 96
5, 19200, Note_on_c, 3, 59, 88
5, 19215, Control_c, 3, 7, 97
5, 19220, Control_c, 3, 7, 98
5, 19245, Control_c, 3, 7, 99
5, 19319, Note_on_c, 3, 59, 0
5, 19320, Note_on_c, 3, 57, 127
5, 19439, Note_on_c, 3, 57, 0
5, 19440, Note_on_c, 3, 55, 119
5, 19559, Note_on_c, 3, 55, 0
5, 19560, Note_on_c, 3, 55, 104
5, 19619, Note_on_c, 3, 55, 0
5, 19620, Note_on_c, 3, 60, 88
5, 19679, Note_on_c, 3, 60, 0
5, 19680, Note_on_c, 3, 57, 119
5, 19739, Note_on_c, 3, 57, 0
5, 19740, Note_on_c, 3, 62, 119
5, 19859, Note_on_c, 3, 62, 0
5, 19860, Note_on_c, 3, 62, 119
5, 19919, Note_on_c, 3, 62, 0
5, 19920, Note_on_c, 3, 62, 119
5, 19979, Note_on_c, 3, 62, 0
5, 19980, Note_on_c, 3, 62, 119
5, 20005, Control_c, 3, 7, 98
5, 20030, Control_c, 3, 7, 97
5, 20039, Note_on_c, 3, 62, 0
5, 20039, Control_c, 3, 7, 96
5, 20050, Control_c, 3, 7, 93
5, 20050, Control_c, 3, 7, 94
5, 20055, Control_c, 3, 7, 92
5, 20060, Control_c, 3, 7, 91
5, 20065, Control_c, 3, 7, 88
5, 20065, Control_c, 3, 7, 90
5, 20075, Control_c, 3, 7, 86
5, 20075, Control_c, 3, 7, 87
5, 20080, Control_c, 3, 7, 85
5, 20090, Control_c, 3, 7, 84
5, 20095, Control_c, 3, 7, 83
5, 20100, Control_c, 3, 7, 81
5, 20100, Control_c, 3, 7, 82
5, 20110, Control_c, 3, 7, 80
5, 20130, Control_c, 3, 7, 79
5, 20195, Control_c, 3, 7, 78
5, 23640, Note_on_c, 3, 62, 119
5, 23699, Note_on_c, 3, 62, 0
5, 23700, Note_on_c, 3, 64, 111
5, 23759, Note_on_c, 3, 64, 0
5, 23760, Note_on_c, 3, 66, 117
5, 23819, Note_on_c, 3, 66, 0
5, 23820, Note_on_c, 3, 67, 127
5, 23879, Note_on_c, 3, 67, 0
5, 23880, Note_on_c, 3, 66, 127
5, 23939, Note_on_c, 3, 66, 0
5, 23940, Note_on_c, 3, 64, 104
5, 23999, Note_on_c, 3, 64, 0
5, 24000, Note_on_c, 3, 62, 127
5, 24119, Note_on_c, 3, 62, 0
5, 24960, Note_on_c, 3, 59, 88
5, 24985, Control_c, 3, 7, 84
5, 24990, Control_c, 3, 7, 87
5, 25010, Control_c, 3, 7, 88
5, 25020, Control_c, 3, 7, 90
5, 25020, Control_c, 3, 7, 89
5, 25070, Control_c, 3, 7, 91
5, 25079, Note_on_c, 3, 59, 0
5, 25080, Note_on_c, 3, 57, 119
5, 25090, Control_c, 3, 7, 92
5, 25095, Control_c, 3, 7, 93
5, 25135, Control_c, 3, 7, 94
5, 25199, Note_on_c, 3, 57, 0
5, 25200, Note_on_c, 3, 55, 119
5, 25319, Note_on_c, 3, 55, 0
5, 25320, Note_on_c, 3, 55, 119
5, 25379, Note_on_c, 3, 55, 0
5, 25380, Note_on_c, 3, 60, 104
5, 25439, Note_on_c, 3, 60, 0
5, 25440, Note_on_c, 3, 57, 127
5, 25499, Note_on_c, 3, 57, 0
5, 25500, Note_on_c, 3, 62, 127
5, 25619, Note_on_c, 3, 62, 0
5, 25620, Note_on_c, 3, 62, 119
5, 25679, Note_on_c, 3, 62, 0
5, 25680, Note_on_c, 3, 62, 119
5, 25739, Note_on_c, 3, 62, 0
5, 25740, Note_on_c, 3, 62, 127
5, 25799, Note_on_c, 3, 62, 0
5, 25920, Note_on_c, 3, 57, 119
5, 26039, Note_on_c, 3, 57, 0
5, 26040, Note_on_c, 3, 59, 96
5, 26159, Note_on_c, 3, 59, 0
5, 26160, Note_on_c, 3, 57, 127
5, 26279, Note_on_c, 3, 57, 0
5, 26280, Note_on_c, 3, 57, 119
5, 26339, Note_on_c, 3, 57, 0
5, 26340, Note_on_c, 3, 62, 127
5, 26399, Note_on_c, 3, 62, 0
5, 26400, Note_on_c, 3, 59, 96
5, 26459, Note_on_c, 3, 59, 0
5, 26460, Note_on_c, 3, 64, 104
5, 26579, Note_on_c, 3, 64, 0
5, 26580, Note_on_c, 3, 64, 104
5, 26639, Note_on_c, 3, 64, 0
5, 26640, Note_on_c, 3, 64, 104
5, 26699, Note_on_c, 3, 64, 0
5, 26700, Note_on_c, 3, 64, 111
5, 26759, Note_on_c, 3, 64, 0
5, 27000, Note_on_c, 3, 69, 127
5, 27059, Note_on_c, 3, 69, 0
5, 27060, Note_on_c, 3, 57, 127
5, 27119, Note_on_c, 3, 57, 0
5, 27240, Note_on_c, 3, 60, 119
5, 27299, Note_on_c, 3, 60, 0
5, 27300, Note_on_c, 3, 57, 127
5, 27359, Note_on_c, 3, 57, 0
5, 27480, Note_on_c, 3, 62, 127
5, 27539, Note_on_c, 3, 62, 0
5, 27540, Note_on_c, 3, 50, 119
5, 27599, Note_on_c, 3, 50, 0
5, 27720, Note_on_c, 3, 66, 127
5, 27779, Note_on_c, 3, 66, 0
5, 27780, Note_on_c, 3, 62, 127
5, 27839, Note_on_c, 3, 62, 0
5, 27900, Note_on_c, 3, 67, 119
5, 27959, Note_on_c, 3, 67, 0
5, 27960, Note_on_c, 3, 71, 111
5, 28019, Note_on_c, 3, 71, 0
5, 28020, Note_on_c, 3, 67, 127
5, 28079, Note_on_c, 3, 67, 0
5, 28080, Note_on_c, 3, 60, 119
5, 28139, Note_on_c, 3, 60, 0
5, 28380, Note_on_c, 3, 66, 127
5, 28439, Note_on_c, 3, 66, 0
5, 28440, Note_on_c, 3, 69, 127
5, 28465, Control_c, 3, 7, 97
5, 28499, Note_on_c, 3, 69, 0
5, 28500, Note_on_c, 3, 66, 127
5, 28559, Note_on_c, 3, 66, 0
5, 28560, Note_on_c, 3, 59, 104
5, 28619, Note_on_c, 3, 59, 0
5, 28860, Note_on_c, 3, 64, 104
5, 28919, Note_on_c, 3, 64, 0
5, 28920, Note_on_c, 3, 67, 127
5, 28979, Note_on_c, 3, 67, 0
5, 28980, Note_on_c, 3, 64, 111
5, 29039, Note_on_c, 3, 64, 0
5, 29040, Note_on_c, 3, 57, 119
5, 29060, Control_c, 3, 7, 102
5, 29190, Control_c, 3, 7, 101
5, 29195, Control_c, 3, 7, 100
5, 29200, Control_c, 3, 7, 99
5, 29230, Control_c, 3, 7, 97
5, 29235, Control_c, 3, 7, 96
5, 29295, Control_c, 3, 7, 93
5, 29399, Note_on_c, 3, 57, 0
5, 29805, Control_c, 3, 7, 73
5, 29805, Control_c, 3, 7, 80
5, 29810, Control_c, 3, 7, 72
5, 29815, Control_c, 3, 7, 71
5, 29820, Control_c, 3, 7, 70
5, 29825, Control_c, 3, 7, 66
5, 29825, Control_c, 3, 7, 67
5, 29830, Control_c, 3, 7, 63
5, 29830, Control_c, 3, 7, 64
5, 29880, Note_on_c, 3, 50, 119
5, 29939, Note_on_c, 3, 50, 0
5, 29940, Note_on_c, 3, 52, 80
5, 29999, Note_on_c, 3, 52, 0
5, 30000, Note_on_c, 3, 54, 127
5, 30059, Note_on_c, 3, 54, 0
5, 30060, Note_on_c, 3, 55, 127
5, 30119, Note_on_c, 3, 55, 0
5, 30120, Note_on_c, 3, 54, 127
5, 30179, Note_on_c, 3, 54, 0
5, 30180, Note_on_c, 3, 52, 88
5, 30239, Note_on_c, 3, 52, 0
5, 30240, Note_on_c, 3, 50, 127
5, 30275, Control_c, 3, 7, 65
5, 30275, Control_c, 3, 7, 64
5, 30280, Control_c, 3, 7, 68
5, 30280, Control_c, 3, 7, 67
5, 30285, Control_c, 3, 7, 69
5, 30290, Control_c, 3, 7, 71
5, 30295, Control_c, 3, 7, 74
5, 30295, Control_c, 3, 7, 72
5, 30299, Note_on_c, 3, 50, 0
5, 30300, Control_c, 3, 7, 77
5, 30300, Note_on_c, 3, 62, 127
5, 30305, Control_c, 3, 7, 82
5, 30305, Control_c, 3, 7, 80
5, 30310, Control_c, 3, 7, 85
5, 30310, Control_c, 3, 7, 83
5, 30315, Control_c, 3, 7, 86
5, 30320, Control_c, 3, 7, 88
5, 30320, Control_c, 3, 7, 87
5, 30325, Control_c, 3, 7, 89
5, 30330, Control_c, 3, 7, 90
5, 30335, Control_c, 3, 7, 91
5, 30340, Control_c, 3, 7, 92
5, 30345, Control_c, 3, 7, 93
5, 30350, Control_c, 3, 7, 94
5, 30355, Control_c, 3, 7, 97
5, 30359, Note_on_c, 3, 62, 0
5, 30360, Note_on_c, 3, 62, 127
5, 30365, Control_c, 3, 7, 98
5, 30380, Control_c, 3, 7, 99
5, 30385, Control_c, 3, 7, 100
5, 30400, Control_c, 3, 7, 101
5, 30419, Note_on_c, 3, 62, 0
5, 30420, Note_on_c, 3, 64, 119
5, 30479, Note_on_c, 3, 64, 0
5, 30480, Note_on_c, 3, 62, 119
5, 30719, Note_on_c, 3, 62, 0
5, 30720, Note_on_c, 3, 62, 127
5, 30725, Control_c, 3, 7, 100
5, 30730, Control_c, 3, 7, 98
5, 30745, Control_c, 3, 7, 97
5, 30760, Control_c, 3, 7, 96
5, 30765, Control_c, 3, 7, 94
5, 30770, Control_c, 3, 7, 93
5, 30805, Control_c, 3, 7, 92
5, 30810, Control_c, 3, 7, 91
5, 30815, Control_c, 3, 7, 90
5, 30835, Control_c, 3, 7, 88
5, 30835, Control_c, 3, 7, 89
5, 30840, Control_c, 3, 7, 86
5, 30840, Control_c, 3, 7, 87
5, 30845, Control_c, 3, 7, 85
5, 30850, Control_c, 3, 7, 84
5, 30860, Control_c, 3, 7, 82
5, 30860, Control_c, 3, 7, 83
5, 30865, Control_c, 3, 7, 81
5, 30870, Control_c, 3, 7, 79
5, 30870, Control_c, 3, 7, 80
5, 30875, Control_c, 3, 7, 78
5, 30885, Control_c, 3, 7, 77
5, 30895, Control_c, 3, 7, 74
5, 30895, Control_c, 3, 7, 76
5, 30905, Control_c, 3, 7, 73
5, 30910, Control_c, 3, 7, 71
5, 30910, Control_c, 3, 7, 72
5, 30920, Control_c, 3, 7, 70
5, 30925, Control_c, 3, 7, 69
5, 30935, Control_c, 3, 7, 68
5, 30940, Control_c, 3, 7, 67
5, 30945, Control_c, 3, 7, 65
5, 30945, Control_c, 3, 7, 66
5, 30950, Control_c, 3, 7, 64
5, 30960, Control_c, 3, 7, 63
5, 30965, Control_c, 3, 7, 62
5, 30970, Control_c, 3, 7, 61
5, 30975, Control_c, 3, 7, 59
5, 30975, Control_c, 3, 7, 60
5, 30980, Control_c, 3, 7, 58
5, 30985, Control_c, 3, 7, 56
5, 30985, Control_c, 3, 7, 57
5, 30990, Control_c, 3, 7, 55
5, 30995, Control_c, 3, 7, 54
5, 31005, Control_c, 3, 7, 53
5, 31010, Control_c, 3, 7, 52
5, 31020, Control_c, 3, 7, 51
5, 31030, Control_c, 3, 7, 49
5, 31030, Control_c, 3, 7, 50
5, 31035, Control_c, 3, 7, 48
5, 31040, Control_c, 3, 7, 46
5, 31040, Control_c, 3, 7, 47
5, 31050, Control_c, 3, 7, 45
5, 31055, Control_c, 3, 7, 44
5, 31060, Control_c, 3, 7, 43
5, 31065, Control_c, 3, 7, 41
5, 31065, Control_c, 3, 7, 42
5, 31070, Control_c, 3, 7, 38
5, 31070, Control_c, 3, 7, 39
5, 31080, Control_c, 3, 7, 37
5, 31085, Control_c, 3, 7, 36
5, 31095, Control_c, 3, 7, 35
5, 31105, Control_c, 3, 7, 34
5, 31115, Control_c, 3, 7, 33
5, 31130, Control_c, 3, 7, 31
5, 31130, Control_c, 3, 7, 32
5, 31135, Control_c, 3, 7, 30
5, 31144, Control_c, 3, 7, 29
5, 31154, Control_c, 3, 7, 28
5, 31164, Control_c, 3, 7, 27
5, 31169, Control_c, 3, 7, 26
5, 31174, Control_c, 3, 7, 25
5, 31184, Control_c, 3, 7, 24
5, 31194, Control_c, 3, 7, 23
5, 31199, Note_on_c, 3, 62, 0
5, 31199, End_track
6, 0, Start_track
6, 0, MIDI_port, 0
6, 0, Title_t, "Bass"
6, 0, Control_c, 4, 0, 0
6, 0, Program_c, 4, 57
6, 0, Control_c, 4, 7, 100
6, 0, Control_c, 4, 10, 64
6, 0, Control_c, 4, 93, 0
6, 0, Control_c, 4, 91, 78
6, 5760, Note_on_c, 4, 55, 127
6, 5819, Note_on_c, 4, 55, 0
6, 5820, Note_on_c, 4, 50, 127
6, 5939, Note_on_c, 4, 50, 0
6, 5940, Note_on_c, 4, 48, 127
6, 5999, Note_on_c, 4, 48, 0
6, 6000, Note_on_c, 4, 47, 127
6, 6059, Note_on_c, 4, 47, 0
6, 6060, Note_on_c, 4, 48, 127
6, 6089, Note_on_c, 4, 48, 0
6, 6090, Note_on_c, 4, 50, 127
6, 6119, Note_on_c, 4, 50, 0
6, 6120, Note_on_c, 4, 52, 127
6, 6179, Note_on_c, 4, 52, 0
6, 6180, Note_on_c, 4, 57, 127
6, 6239, Note_on_c, 4, 57, 0
6, 6240, Note_on_c, 4, 54, 127
6, 6299, Note_on_c, 4, 54, 0
6, 6300, Note_on_c, 4, 55, 127
6, 6359, Note_on_c, 4, 55, 0
6, 6360, Note_on_c, 4, 60, 127
6, 6419, Note_on_c, 4, 60, 0
6, 6420, Note_on_c, 4, 59, 127
6, 6479, Note_on_c, 4, 59, 0
6, 6480, Note_on_c, 4, 59, 127
6, 6539, Note_on_c, 4, 59, 0
6, 6540, Note_on_c, 4, 57, 127
6, 6599, Note_on_c, 4, 57, 0
6, 6720, Note_on_c, 4, 57, 127
6, 6779, Note_on_c, 4, 57, 0
6, 6780, Note_on_c, 4, 52, 127
6, 6899, Note_on_c, 4, 52, 0
6, 6900, Note_on_c, 4, 50, 127
6, 6959, Note_on_c, 4, 50, 0
6, 6960, Note_on_c, 4, 48, 127
6, 7019, Note_on_c, 4, 48, 0
6, 7020, Note_on_c, 4, 50, 127
6, 7049, Note_on_c, 4, 50, 0
6, 7050, Note_on_c, 4, 52, 127
6, 7079, Note_on_c, 4, 52, 0
6, 7080, Note_on_c, 4, 53, 127
6, 7094, Note_on_c, 4, 53, 0
6, 7095, Note_on_c, 4, 52, 127
6, 7109, Note_on_c, 4, 52, 0
6, 7110, Note_on_c, 4, 50, 127
6, 7139, Note_on_c, 4, 50, 0
6, 7140, Note_on_c, 4, 59, 127
6, 7199, Note_on_c, 4, 59, 0
6, 7200, Note_on_c, 4, 56, 127
6, 7259, Note_on_c, 4, 56, 0
6, 7260, Note_on_c, 4, 57, 127
6, 7319, Note_on_c, 4, 57, 0
6, 7320, Note_on_c, 4, 62, 127
6, 7379, Note_on_c, 4, 62, 0
6, 7380, Note_on_c, 4, 60, 127
6, 7439, Note_on_c, 4, 60, 0
6, 7440, Note_on_c, 4, 60, 127
6, 7499, Note_on_c, 4, 60, 0
6, 7500, Note_on_c, 4, 59, 127
6, 7559, Note_on_c, 4, 59, 0
6, 7680, Note_on_c, 4, 60, 127
6, 7709, Note_on_c, 4, 60, 0
6, 7710, Note_on_c, 4, 59, 127
6, 7739, Note_on_c, 4, 59, 0
6, 7740, Note_on_c, 4, 57, 127
6, 7859, Note_on_c, 4, 57, 0
6, 7860, Note_on_c, 4, 55, 127
6, 7919, Note_on_c, 4, 55, 0
6, 7920, Note_on_c, 4, 54, 127
6, 7979, Note_on_c, 4, 54, 0
6, 7980, Note_on_c, 4, 52, 127
6, 8009, Note_on_c, 4, 52, 0
6, 8010, Note_on_c, 4, 50, 127
6, 8039, Note_on_c, 4, 50, 0
6, 8040, Note_on_c, 4, 60, 127
6, 8099, Note_on_c, 4, 60, 0
6, 8100, Note_on_c, 4, 60, 127
6, 8159, Note_on_c, 4, 60, 0
6, 8160, Note_on_c, 4, 60, 127
6, 8219, Note_on_c, 4, 60, 0
6, 8220, Note_on_c, 4, 59, 127
6, 8279, Note_on_c, 4, 59, 0
6, 8400, Note_on_c, 4, 57, 127
6, 8429, Note_on_c, 4, 57, 0
6, 8430, Note_on_c, 4, 55, 127
6, 8459, Note_on_c, 4, 55, 0
6, 8460, Note_on_c, 4, 54, 127
6, 8579, Note_on_c, 4, 54, 0
6, 8580, Note_on_c, 4, 52, 127
6, 8639, Note_on_c, 4, 52, 0
6, 8640, Note_on_c, 4, 51, 127
6, 8699, Note_on_c, 4, 51, 0
6, 8700, Note_on_c, 4, 49, 127
6, 8729, Note_on_c, 4, 49, 0
6, 8730, Note_on_c, 4, 47, 127
6, 8759, Note_on_c, 4, 47, 0
6, 8760, Note_on_c, 4, 57, 127
6, 8819, Note_on_c, 4, 57, 0
6, 8820, Note_on_c, 4, 57, 127
6, 8879, Note_on_c, 4, 57, 0
6, 8880, Note_on_c, 4, 57, 127
6, 8939, Note_on_c, 4, 57, 0
6, 8940, Note_on_c, 4, 55, 127
6, 9059, Note_on_c, 4, 55, 0
6, 9060, Note_on_c, 4, 59, 127
6, 9089, Note_on_c, 4, 59, 0
6, 9090, Note_on_c, 4, 57, 127
6, 9119, Note_on_c, 4, 57, 0
6, 9120, Note_on_c, 4, 55, 127
6, 9179, Note_on_c, 4, 55, 0
6, 9180, Note_on_c, 4, 54, 127
6, 9239, Note_on_c, 4, 54, 0
6, 9240, Note_on_c, 4, 52, 127
6, 9269, Note_on_c, 4, 52, 0
6, 9270, Note_on_c, 4, 54, 127
6, 9299, Note_on_c, 4, 54, 0
6, 9300, Note_on_c, 4, 55, 127
6, 9359, Note_on_c, 4, 55, 0
6, 9360, Note_on_c, 4, 49, 127
6, 9419, Note_on_c, 4, 49, 0
6, 9420, Note_on_c, 4, 45, 127
6, 9479, Note_on_c, 4, 45, 0
6, 9480, Note_on_c, 4, 57, 127
6, 9539, Note_on_c, 4, 57, 0
6, 9540, Note_on_c, 4, 57, 127
6, 9599, Note_on_c, 4, 57, 0
6, 9600, Note_on_c, 4, 57, 127
6, 9719, Note_on_c, 4, 57, 0
6, 9900, Note_on_c, 4, 45, 127
6, 9959, Note_on_c, 4, 45, 0
6, 9960, Note_on_c, 4, 57, 127
6, 10019, Note_on_c, 4, 57, 0
6, 10020, Note_on_c, 4, 57, 127
6, 10079, Note_on_c, 4, 57, 0
6, 10080, Note_on_c, 4, 57, 127
6, 10199, Note_on_c, 4, 57, 0
6, 10560, Note_on_c, 4, 64, 127
6, 10589, Note_on_c, 4, 64, 0
6, 10590, Note_on_c, 4, 62, 127
6, 10619, Note_on_c, 4, 62, 0
6, 10620, Note_on_c, 4, 61, 127
6, 10739, Note_on_c, 4, 61, 0
6, 10740, Note_on_c, 4, 59, 127
6, 10799, Note_on_c, 4, 59, 0
6, 10800, Note_on_c, 4, 57, 127
6, 10859, Note_on_c, 4, 57, 0
6, 10860, Note_on_c, 4, 55, 127
6, 10889, Note_on_c, 4, 55, 0
6, 10890, Note_on_c, 4, 54, 127
6, 10919, Note_on_c, 4, 54, 0
6, 10920, Note_on_c, 4, 55, 127
6, 10979, Note_on_c, 4, 55, 0
6, 10980, Note_on_c, 4, 64, 127
6, 11039, Note_on_c, 4, 64, 0
6, 11040, Note_on_c, 4, 55, 127
6, 11069, Note_on_c, 4, 55, 0
6, 11070, Note_on_c, 4, 54, 127
6, 11159, Note_on_c, 4, 54, 0
6, 11280, Note_on_c, 4, 64, 127
6, 11309, Note_on_c, 4, 64, 0
6, 11310, Note_on_c, 4, 62, 127
6, 11339, Note_on_c, 4, 62, 0
6, 11340, Note_on_c, 4, 61, 127
6, 11459, Note_on_c, 4, 61, 0
6, 11460, Note_on_c, 4, 59, 127
6, 11519, Note_on_c, 4, 59, 0
6, 11520, Note_on_c, 4, 57, 127
6, 11579, Note_on_c, 4, 57, 0
6, 11580, Note_on_c, 4, 55, 127
6, 11609, Note_on_c, 4, 55, 0
6, 11610, Note_on_c, 4, 54, 127
6, 11639, Note_on_c, 4, 54, 0
6, 11640, Note_on_c, 4, 55, 127
6, 11699, Note_on_c, 4, 55, 0
6, 11700, Note_on_c, 4, 64, 127
6, 11759, Note_on_c, 4, 64, 0
6, 11760, Note_on_c, 4, 54, 127
6, 11819, Note_on_c, 4, 54, 0
6, 11820, Note_on_c, 4, 59, 127
6, 11939, Note_on_c, 4, 59, 0
6, 11940, Note_on_c, 4, 57, 127
6, 11999, Note_on_c, 4, 57, 0
6, 12000, Note_on_c, 4, 56, 127
6, 12059, Note_on_c, 4, 56, 0
6, 12060, Note_on_c, 4, 57, 127
6, 12179, Note_on_c, 4, 57, 0
6, 12180, Note_on_c, 4, 50, 127
6, 12239, Note_on_c, 4, 50, 0
6, 12240, Note_on_c, 4, 54, 127
6, 12359, Note_on_c, 4, 54, 0
6, 12360, Note_on_c, 4, 52, 127
6, 12479, Note_on_c, 4, 52, 0
6, 12480, Note_on_c, 4, 50, 127
6, 12599, Note_on_c, 4, 50, 0
6, 15360, Note_on_c, 4, 62, 127
6, 15389, Note_on_c, 4, 62, 0
6, 15390, Note_on_c, 4, 60, 127
6, 15419, Note_on_c, 4, 60, 0
6, 15420, Note_on_c, 4, 59, 127
6, 15539, Note_on_c, 4, 59, 0
6, 15540, Note_on_c, 4, 57, 127
6, 15599, Note_on_c, 4, 57, 0
6, 15600, Note_on_c, 4, 56, 127
6, 15659, Note_on_c, 4, 56, 0
6, 15660, Note_on_c, 4, 54, 127
6, 15689, Note_on_c, 4, 54, 0
6, 15690, Note_on_c, 4, 52, 127
6, 15719, Note_on_c, 4, 52, 0
6, 15720, Note_on_c, 4, 62, 127
6, 15779, Note_on_c, 4, 62, 0
6, 15780, Note_on_c, 4, 62, 127
6, 15839, Note_on_c, 4, 62, 0
6, 15840, Note_on_c, 4, 62, 127
6, 15899, Note_on_c, 4, 62, 0
6, 15900, Note_on_c, 4, 60, 127
6, 15959, Note_on_c, 4, 60, 0
6, 16080, Note_on_c, 4, 60, 127
6, 16109, Note_on_c, 4, 60, 0
6, 16110, Note_on_c, 4, 59, 127
6, 16139, Note_on_c, 4, 59, 0
6, 16140, Note_on_c, 4, 57, 127
6, 16259, Note_on_c, 4, 57, 0
6, 16260, Note_on_c, 4, 55, 127
6, 16319, Note_on_c, 4, 55, 0
6, 16320, Note_on_c, 4, 53, 127
6, 16380, Note_on_c, 4, 53, 0
6, 16380, Note_on_c, 4, 59, 127
6, 16410, Note_on_c, 4, 59, 0
6, 16410, Note_on_c, 4, 60, 127
6, 16440, Note_on_c, 4, 60, 0
6, 16440, Note_on_c, 4, 62, 127
6, 16500, Note_on_c, 4, 62, 0
6, 16500, Note_on_c, 4, 53, 127
6, 16560, Note_on_c, 4, 53, 0
6, 16560, Note_on_c, 4, 52, 127
6, 16620, Note_on_c, 4, 52, 0
6, 16620, Note_on_c, 4, 58, 127
6, 16710, Note_on_c, 4, 58, 0
6, 16710, Note_on_c, 4, 55, 127
6, 16740, Note_on_c, 4, 55, 0
6, 16740, Note_on_c, 4, 57, 127
6, 16800, Note_on_c, 4, 57, 0
6, 16800, Note_on_c, 4, 57, 127
6, 16829, Note_on_c, 4, 57, 0
6, 16830, Note_on_c, 4, 55, 127
6, 16859, Note_on_c, 4, 55, 0
6, 16860, Note_on_c, 4, 54, 127
6, 16979, Note_on_c, 4, 54, 0
6, 16980, Note_on_c, 4, 55, 127
6, 17039, Note_on_c, 4, 55, 0
6, 17040, Note_on_c, 4, 55, 127
6, 17159, Note_on_c, 4, 55, 0
6, 17160, Note_on_c, 4, 43, 127
6, 17279, Note_on_c, 4, 43, 0
6, 17405, Note_on_c, 4, 55, 127
6, 17464, Note_on_c, 4, 55, 0
6, 17465, Note_on_c, 4, 57, 127
6, 17524, Note_on_c, 4, 57, 0
6, 17525, Note_on_c, 4, 59, 127
6, 17584, Note_on_c, 4, 59, 0
6, 17585, Note_on_c, 4, 60, 127
6, 17644, Note_on_c, 4, 60, 0
6, 17645, Note_on_c, 4, 59, 127
6, 17704, Note_on_c, 4, 59, 0
6, 17705, Note_on_c, 4, 57, 127
6, 17764, Note_on_c, 4, 57, 0
6, 17765, Note_on_c, 4, 55, 127
6, 17824, Note_on_c, 4, 55, 0
6, 17825, Note_on_c, 4, 53, 127
6, 17854, Note_on_c, 4, 53, 0
6, 17855, Note_on_c, 4, 52, 127
6, 17884, Note_on_c, 4, 52, 0
6, 17885, Note_on_c, 4, 50, 127
6, 17944, Note_on_c, 4, 50, 0
6, 17945, Note_on_c, 4, 52, 127
6, 18004, Note_on_c, 4, 52, 0
6, 18005, Note_on_c, 4, 53, 127
6, 18064, Note_on_c, 4, 53, 0
6, 18065, Note_on_c, 4, 52, 127
6, 18124, Note_on_c, 4, 52, 0
6, 18125, Note_on_c, 4, 53, 127
6, 18184, Note_on_c, 4, 53, 0
6, 18185, Note_on_c, 4, 50, 127
6, 18244, Note_on_c, 4, 50, 0
6, 18245, Note_on_c, 4, 62, 127
6, 18304, Note_on_c, 4, 62, 0
6, 18305, Note_on_c, 4, 60, 127
6, 18334, Note_on_c, 4, 60, 0
6, 18335, Note_on_c, 4, 59, 127
6, 18364, Note_on_c, 4, 59, 0
6, 18365, Note_on_c, 4, 57, 127
6, 18424, Note_on_c, 4, 57, 0
6, 18425, Note_on_c, 4, 59, 127
6, 18484, Note_on_c, 4, 59, 0
6, 18485, Note_on_c, 4, 60, 127
6, 18544, Note_on_c, 4, 60, 0
6, 18545, Note_on_c, 4, 54, 127
6, 18604, Note_on_c, 4, 54, 0
6, 18605, Note_on_c, 4, 55, 127
6, 18664, Note_on_c, 4, 55, 0
6, 18665, Note_on_c, 4, 48, 127
6, 18724, Note_on_c, 4, 48, 0
6, 18725, Note_on_c, 4, 52, 127
6, 18844, Note_on_c, 4, 52, 0
6, 18845, Note_on_c, 4, 50, 127
6, 18964, Note_on_c, 4, 50, 0
6, 18965, Note_on_c, 4, 48, 127
6, 19084, Note_on_c, 4, 48, 0
6, 19955, Note_on_c, 4, 45, 127
6, 19984, Note_on_c, 4, 45, 0
6, 19985, Note_on_c, 4, 47, 127
6, 20014, Note_on_c, 4, 47, 0
6, 20015, Note_on_c, 4, 48, 127
6, 20044, Note_on_c, 4, 48, 0
6, 20045, Note_on_c, 4, 50, 127
6, 20074, Note_on_c, 4, 50, 0
6, 20075, Note_on_c, 4, 52, 127
6, 20104, Note_on_c, 4, 52, 0
6, 20105, Note_on_c, 4, 54, 127
6, 20134, Note_on_c, 4, 54, 0
6, 20135, Note_on_c, 4, 55, 127
6, 20164, Note_on_c, 4, 55, 0
6, 20165, Note_on_c, 4, 57, 127
6, 20224, Note_on_c, 4, 57, 0
6, 20225, Note_on_c, 4, 50, 127
6, 20284, Note_on_c, 4, 50, 0
6, 20285, Note_on_c, 4, 50, 127
6, 20344, Note_on_c, 4, 50, 0
6, 20345, Note_on_c, 4, 48, 127
6, 20404, Note_on_c, 4, 48, 0
6, 20405, Note_on_c, 4, 47, 127
6, 20464, Note_on_c, 4, 47, 0
6, 20465, Note_on_c, 4, 48, 127
6, 20494, Note_on_c, 4, 48, 0
6, 20495, Note_on_c, 4, 50, 127
6, 20524, Note_on_c, 4, 50, 0
6, 20525, Note_on_c, 4, 52, 127
6, 20554, Note_on_c, 4, 52, 0
6, 20555, Note_on_c, 4, 54, 127
6, 20584, Note_on_c, 4, 54, 0
6, 20585, Note_on_c, 4, 55, 127
6, 20614, Note_on_c, 4, 55, 0
6, 20615, Note_on_c, 4, 57, 127
6, 20644, Note_on_c, 4, 57, 0
6, 20645, Note_on_c, 4, 59, 127
6, 20704, Note_on_c, 4, 59, 0
6, 20705, Note_on_c, 4, 52, 127
6, 20764, Note_on_c, 4, 52, 0
6, 20765, Note_on_c, 4, 52, 127
6, 20824, Note_on_c, 4, 52, 0
6, 20825, Note_on_c, 4, 50, 127
6, 20884, Note_on_c, 4, 50, 0
6, 20885, Note_on_c, 4, 50, 127
6, 20944, Note_on_c, 4, 50, 0
6, 20945, Note_on_c, 4, 48, 127
6, 21004, Note_on_c, 4, 48, 0
6, 21120, Note_on_c, 4, 62, 127
6, 21179, Note_on_c, 4, 62, 0
6, 21180, Note_on_c, 4, 55, 127
6, 21299, Note_on_c, 4, 55, 0
6, 21300, Note_on_c, 4, 50, 127
6, 21314, Note_on_c, 4, 50, 0
6, 21315, Note_on_c, 4, 52, 127
6, 21329, Note_on_c, 4, 52, 0
6, 21330, Note_on_c, 4, 53, 127
6, 21359, Note_on_c, 4, 53, 0
6, 21360, Note_on_c, 4, 52, 127
6, 21419, Note_on_c, 4, 52, 0
6, 21420, Note_on_c, 4, 54, 127
6, 21449, Note_on_c, 4, 54, 0
6, 21450, Note_on_c, 4, 56, 127
6, 21479, Note_on_c, 4, 56, 0
6, 21480, Note_on_c, 4, 57, 127
6, 21509, Note_on_c, 4, 57, 0
6, 21510, Note_on_c, 4, 59, 127
6, 21539, Note_on_c, 4, 59, 0
6, 21540, Note_on_c, 4, 60, 127
6, 21569, Note_on_c, 4, 60, 0
6, 21570, Note_on_c, 4, 62, 127
6, 21599, Note_on_c, 4, 62, 0
6, 21600, Note_on_c, 4, 64, 127
6, 21659, Note_on_c, 4, 64, 0
6, 21660, Note_on_c, 4, 57, 127
6, 21719, Note_on_c, 4, 57, 0
6, 21720, Note_on_c, 4, 57, 127
6, 21779, Note_on_c, 4, 57, 0
6, 21780, Note_on_c, 4, 55, 127
6, 21839, Note_on_c, 4, 55, 0
6, 21840, Note_on_c, 4, 55, 127
6, 21899, Note_on_c, 4, 55, 0
6, 21900, Note_on_c, 4, 54, 127
6, 21959, Note_on_c, 4, 54, 0
6, 21960, Note_on_c, 4, 57, 127
6, 22019, Note_on_c, 4, 57, 0
6, 22020, Note_on_c, 4, 59, 127
6, 22049, Note_on_c, 4, 59, 0
6, 22050, Note_on_c, 4, 60, 127
6, 22079, Note_on_c, 4, 60, 0
6, 22080, Note_on_c, 4, 62, 127
6, 22109, Note_on_c, 4, 62, 0
6, 22110, Note_on_c, 4, 64, 127
6, 22139, Note_on_c, 4, 64, 0
6, 22140, Note_on_c, 4, 62, 127
6, 22169, Note_on_c, 4, 62, 0
6, 22170, Note_on_c, 4, 60, 127
6, 22199, Note_on_c, 4, 60, 0
6, 22200, Note_on_c, 4, 59, 127
6, 22229, Note_on_c, 4, 59, 0
6, 22230, Note_on_c, 4, 57, 127
6, 22259, Note_on_c, 4, 57, 0
6, 22260, Note_on_c, 4, 55, 127
6, 22289, Note_on_c, 4, 55, 0
6, 22290, Note_on_c, 4, 54, 127
6, 22319, Note_on_c, 4, 54, 0
6, 22320, Note_on_c, 4, 52, 127
6, 22379, Note_on_c, 4, 52, 0
6, 22380, Note_on_c, 4, 55, 127
6, 22439, Note_on_c, 4, 55, 0
6, 22440, Note_on_c, 4, 60, 127
6, 22619, Note_on_c, 4, 60, 0
6, 22620, Note_on_c, 4, 59, 127
6, 22649, Note_on_c, 4, 59, 0
6, 22650, Note_on_c, 4, 57, 127
6, 22679, Note_on_c, 4, 57, 0
6, 22680, Note_on_c, 4, 59, 127
6, 22739, Note_on_c, 4, 59, 0
6, 22740, Note_on_c, 4, 50, 127
6, 22799, Note_on_c, 4, 50, 0
6, 22800, Note_on_c, 4, 50, 127
6, 22859, Note_on_c, 4, 50, 0
6, 22860, Note_on_c, 4, 48, 127
6, 22919, Note_on_c, 4, 48, 0
6, 23160, Note_on_c, 4, 50, 127
6, 23219, Note_on_c, 4, 50, 0
6, 23220, Note_on_c, 4, 52, 127
6, 23279, Note_on_c, 4, 52, 0
6, 23280, Note_on_c, 4, 54, 127
6, 23339, Note_on_c, 4, 54, 0
6, 23340, Note_on_c, 4, 55, 127
6, 23399, Note_on_c, 4, 55, 0
6, 23400, Note_on_c, 4, 54, 127
6, 23459, Note_on_c, 4, 54, 0
6, 23460, Note_on_c, 4, 52, 127
6, 23519, Note_on_c, 4, 52, 0
6, 23520, Note_on_c, 4, 50, 127
6, 23549, Note_on_c, 4, 50, 0
6, 23550, Note_on_c, 4, 52, 127
6, 23579, Note_on_c, 4, 52, 0
6, 23580, Note_on_c, 4, 54, 127
6, 23609, Note_on_c, 4, 54, 0
6, 23610, Note_on_c, 4, 55, 127
6, 23639, Note_on_c, 4, 55, 0
6, 23640, Note_on_c, 4, 57, 127
6, 23699, Note_on_c, 4, 57, 0
6, 23700, Note_on_c, 4, 59, 127
6, 23759, Note_on_c, 4, 59, 0
6, 23760, Note_on_c, 4, 60, 127
6, 23819, Note_on_c, 4, 60, 0
6, 23820, Note_on_c, 4, 62, 127
6, 23849, Note_on_c, 4, 62, 0
6, 23850, Note_on_c, 4, 59, 127
6, 23879, Note_on_c, 4, 59, 0
6, 23880, Note_on_c, 4, 60, 127
6, 23939, Note_on_c, 4, 60, 0
6, 23940, Note_on_c, 4, 62, 127
6, 23969, Note_on_c, 4, 62, 0
6, 23970, Note_on_c, 4, 59, 127
6, 23999, Note_on_c, 4, 59, 0
6, 24002, Note_on_c, 4, 60, 127
6, 24178, Note_on_c, 4, 62, 127
6, 24181, Note_on_c, 4, 60, 0
6, 24207, Note_on_c, 4, 62, 0
6, 24212, Note_on_c, 4, 60, 127
6, 24238, Note_on_c, 4, 59, 127
6, 24241, Note_on_c, 4, 60, 0
6, 24267, Note_on_c, 4, 59, 0
6, 24270, Note_on_c, 4, 57, 127
6, 24299, Note_on_c, 4, 57, 0
6, 24304, Note_on_c, 4, 55, 127
6, 24333, Note_on_c, 4, 55, 0
6, 24335, Note_on_c, 4, 54, 127
6, 24364, Note_on_c, 4, 54, 0
6, 24364, Note_on_c, 4, 52, 127
6, 24416, Note_on_c, 4, 57, 127
6, 24423, Note_on_c, 4, 52, 0
6, 24475, Note_on_c, 4, 57, 0
6, 24480, Note_on_c, 4, 54, 127
6, 24539, Note_on_c, 4, 54, 0
6, 24540, Note_on_c, 4, 50, 127
6, 24599, Note_on_c, 4, 50, 0
6, 24600, Note_on_c, 4, 59, 127
6, 24629, Note_on_c, 4, 59, 0
6, 24630, Note_on_c, 4, 57, 127
6, 24659, Note_on_c, 4, 57, 0
6, 24660, Note_on_c, 4, 60, 127
6, 24689, Note_on_c, 4, 60, 0
6, 24690, Note_on_c, 4, 59, 127
6, 24719, Note_on_c, 4, 59, 0
6, 24720, Note_on_c, 4, 57, 127
6, 24749, Note_on_c, 4, 57, 0
6, 24750, Note_on_c, 4, 54, 127
6, 24779, Note_on_c, 4, 54, 0
6, 24780, Note_on_c, 4, 55, 127
6, 24809, Note_on_c, 4, 55, 0
6, 24810, Note_on_c, 4, 52, 127
6, 24839, Note_on_c, 4, 52, 0
6, 24840, Note_on_c, 4, 54, 127
6, 24929, Note_on_c, 4, 54, 0
6, 24930, Note_on_c, 4, 55, 127
6, 24959, Note_on_c, 4, 55, 0
6, 24960, Note_on_c, 4, 55, 127
6, 25079, Note_on_c, 4, 55, 0
6, 25079, End_track
7, 0, Start_track
7, 0, MIDI_port, 0
7, 0, Title_t, "Organ"
7, 0, Control_c, 5, 0, 0
7, 0, Program_c, 5, 16
7, 0, Control_c, 5, 7, 100
7, 0, Control_c, 5, 10, 60
7, 0, Control_c, 5, 93, 0
7, 0, Control_c, 5, 91, 63
7, 0, Note_on_c, 5, 43, 119
7, 119, Note_on_c, 5, 43, 0
7, 120, Note_on_c, 5, 42, 127
7, 239, Note_on_c, 5, 42, 0
7, 240, Note_on_c, 5, 43, 127
7, 299, Note_on_c, 5, 43, 0
7, 300, Note_on_c, 5, 45, 119
7, 329, Note_on_c, 5, 45, 0
7, 330, Note_on_c, 5, 47, 104
7, 359, Note_on_c, 5, 47, 0
7, 360, Note_on_c, 5, 48, 111
7, 419, Note_on_c, 5, 48, 0
7, 420, Note_on_c, 5, 60, 104
7, 539, Note_on_c, 5, 60, 0
7, 540, Note_on_c, 5, 59, 119
7, 599, Note_on_c, 5, 59, 0
7, 600, Note_on_c, 5, 54, 127
7, 659, Note_on_c, 5, 54, 0
7, 660, Note_on_c, 5, 55, 127
7, 719, Note_on_c, 5, 55, 0
7, 720, Note_on_c, 5, 62, 127
7, 779, Note_on_c, 5, 62, 0
7, 780, Note_on_c, 5, 50, 127
7, 839, Note_on_c, 5, 50, 0
7, 960, Note_on_c, 5, 48, 88
7, 1079, Note_on_c, 5, 48, 0
7, 1080, Note_on_c, 5, 44, 108
7, 1199, Note_on_c, 5, 44, 0
7, 1200, Note_on_c, 5, 45, 111
7, 1259, Note_on_c, 5, 45, 0
7, 1260, Note_on_c, 5, 47, 104
7, 1289, Note_on_c, 5, 47, 0
7, 1290, Note_on_c, 5, 48, 111
7, 1319, Note_on_c, 5, 48, 0
7, 1320, Note_on_c, 5, 50, 119
7, 1379, Note_on_c, 5, 50, 0
7, 1380, Note_on_c, 5, 62, 88
7, 1499, Note_on_c, 5, 62, 0
7, 1500, Note_on_c, 5, 60, 78
7, 1559, Note_on_c, 5, 60, 0
7, 1560, Note_on_c, 5, 56, 98
7, 1619, Note_on_c, 5, 56, 0
7, 1620, Note_on_c, 5, 57, 104
7, 1679, Note_on_c, 5, 57, 0
7, 1680, Note_on_c, 5, 64, 88
7, 1739, Note_on_c, 5, 64, 0
7, 1740, Note_on_c, 5, 52, 104
7, 1799, Note_on_c, 5, 52, 0
7, 1920, Note_on_c, 5, 57, 111
7, 1979, Note_on_c, 5, 57, 0
7, 1980, Note_on_c, 5, 45, 111
7, 2039, Note_on_c, 5, 45, 0
7, 2160, Note_on_c, 5, 48, 104
7, 2219, Note_on_c, 5, 48, 0
7, 2220, Note_on_c, 5, 45, 119
7, 2279, Note_on_c, 5, 45, 0
7, 2400, Note_on_c, 5, 50, 111
7, 2459, Note_on_c, 5, 50, 0
7, 2460, Note_on_c, 5, 38, 119
7, 2519, Note_on_c, 5, 38, 0
7, 2640, Note_on_c, 5, 54, 98
7, 2699, Note_on_c, 5, 54, 0
7, 2700, Note_on_c, 5, 50, 104
7, 2759, Note_on_c, 5, 50, 0
7, 2880, Note_on_c, 5, 55, 111
7, 2939, Note_on_c, 5, 55, 0
7, 2940, Note_on_c, 5, 43, 88
7, 2999, Note_on_c, 5, 43, 0
7, 3180, Note_on_c, 5, 60, 71
7, 3209, Note_on_c, 5, 60, 0
7, 3210, Note_on_c, 5, 59, 78
7, 3239, Note_on_c, 5, 59, 0
7, 3240, Note_on_c, 5, 57, 111
7, 3299, Note_on_c, 5, 57, 0
7, 3300, Note_on_c, 5, 55, 104
7, 3359, Note_on_c, 5, 55, 0
7, 3360, Note_on_c, 5, 54, 108
7, 3419, Note_on_c, 5, 54, 0
7, 3420, Note_on_c, 5, 42, 108
7, 3479, Note_on_c, 5, 42, 0
7, 3660, Note_on_c, 5, 59, 78
7, 3689, Note_on_c, 5, 59, 0
7, 3690, Note_on_c, 5, 57, 119
7, 3719, Note_on_c, 5, 57, 0
7, 3720, Note_on_c, 5, 55, 88
7, 3779, Note_on_c, 5, 55, 0
7, 3780, Note_on_c, 5, 54, 108
7, 3839, Note_on_c, 5, 54, 0
7, 3840, Note_on_c, 5, 52, 104
7, 3899, Note_on_c, 5, 52, 0
7, 3900, Note_on_c, 5, 40, 88
7, 3959, Note_on_c, 5, 40, 0
7, 4140, Note_on_c, 5, 57, 104
7, 4169, Note_on_c, 5, 57, 0
7, 4170, Note_on_c, 5, 55, 88
7, 4199, Note_on_c, 5, 55, 0
7, 4200, Note_on_c, 5, 54, 85
7, 4259, Note_on_c, 5, 54, 0
7, 4260, Note_on_c, 5, 52, 88
7, 4319, Note_on_c, 5, 52, 0
7, 4320, Note_on_c, 5, 50, 119
7, 4379, Note_on_c, 5, 50, 0
7, 4380, Note_on_c, 5, 38, 96
7, 4439, Note_on_c, 5, 38, 0
7, 4800, Note_on_c, 5, 50, 119
7, 4859, Note_on_c, 5, 50, 0
7, 4860, Note_on_c, 5, 38, 119
7, 4919, Note_on_c, 5, 38, 0
7, 5340, Note_on_c, 5, 50, 127
7, 5399, Note_on_c, 5, 50, 0
7, 5400, Note_on_c, 5, 55, 127
7, 5459, Note_on_c, 5, 55, 0
7, 5460, Note_on_c, 5, 48, 111
7, 5519, Note_on_c, 5, 48, 0
7, 5520, Note_on_c, 5, 50, 119
7, 5639, Note_on_c, 5, 50, 0
7, 5640, Note_on_c, 5, 38, 119
7, 5759, Note_on_c, 5, 38, 0
7, 5760, Note_on_c, 5, 43, 111
7, 5810, Control_c, 5, 7, 97
7, 5815, Control_c, 5, 7, 90
7, 5815, Control_c, 5, 7, 91
7, 5845, Control_c, 5, 7, 89
7, 5850, Control_c, 5, 7, 87
7, 5865, Control_c, 5, 7, 85
7, 5865, Control_c, 5, 7, 86
7, 5879, Note_on_c, 5, 43, 0
7, 5880, Control_c, 5, 7, 84
7, 5880, Note_on_c, 5, 42, 127
7, 5910, Control_c, 5, 7, 83
7, 5999, Note_on_c, 5, 42, 0
7, 6000, Note_on_c, 5, 43, 119
7, 6059, Note_on_c, 5, 43, 0
7, 6060, Note_on_c, 5, 45, 111
7, 6089, Note_on_c, 5, 45, 0
7, 6090, Note_on_c, 5, 47, 80
7, 6119, Note_on_c, 5, 47, 0
7, 6120, Note_on_c, 5, 48, 80
7, 6179, Note_on_c, 5, 48, 0
7, 6180, Note_on_c, 5, 60, 104
7, 6299, Note_on_c, 5, 60, 0
7, 6300, Note_on_c, 5, 59, 104
7, 6359, Note_on_c, 5, 59, 0
7, 6360, Note_on_c, 5, 54, 117
7, 6419, Note_on_c, 5, 54, 0
7, 6420, Note_on_c, 5, 55, 127
7, 6479, Note_on_c, 5, 55, 0
7, 6480, Note_on_c, 5, 62, 127
7, 6539, Note_on_c, 5, 62, 0
7, 6540, Note_on_c, 5, 54, 119
7, 6599, Note_on_c, 5, 54, 0
7, 6600, Note_on_c, 5, 48, 96
7, 6659, Note_on_c, 5, 48, 0
7, 6660, Note_on_c, 5, 47, 111
7, 6719, Note_on_c, 5, 47, 0
7, 6720, Note_on_c, 5, 45, 104
7, 6839, Note_on_c, 5, 45, 0
7, 6840, Note_on_c, 5, 44, 117
7, 6959, Note_on_c, 5, 44, 0
7, 6960, Note_on_c, 5, 45, 111
7, 7019, Note_on_c, 5, 45, 0
7, 7020, Note_on_c, 5, 47, 104
7, 7049, Note_on_c, 5, 47, 0
7, 7050, Note_on_c, 5, 48, 111
7, 7079, Note_on_c, 5, 48, 0
7, 7080, Note_on_c, 5, 50, 119
7, 7139, Note_on_c, 5, 50, 0
7, 7140, Note_on_c, 5, 62, 119
7, 7259, Note_on_c, 5, 62, 0
7, 7260, Note_on_c, 5, 60, 80
7, 7319, Note_on_c, 5, 60, 0
7, 7320, Note_on_c, 5, 56, 127
7, 7379, Note_on_c, 5, 56, 0
7, 7380, Note_on_c, 5, 57, 119
7, 7439, Note_on_c, 5, 57, 0
7, 7440, Note_on_c, 5, 52, 104
7, 7499, Note_on_c, 5, 52, 0
7, 7500, Note_on_c, 5, 50, 111
7, 7559, Note_on_c, 5, 50, 0
7, 7560, Note_on_c, 5, 48, 104
7, 7560, Note_on_c, 5, 50, 63
7, 7619, Note_on_c, 5, 50, 0
7, 7619, Note_on_c, 5, 48, 0
7, 7620, Note_on_c, 5, 47, 111
7, 7679, Note_on_c, 5, 47, 0
7, 7680, Note_on_c, 5, 45, 119
7, 7739, Note_on_c, 5, 45, 0
7, 7800, Note_on_c, 5, 48, 111
7, 7859, Note_on_c, 5, 48, 0
7, 7920, Note_on_c, 5, 50, 127
7, 7979, Note_on_c, 5, 50, 0
7, 8040, Note_on_c, 5, 38, 80
7, 8099, Note_on_c, 5, 38, 0
7, 8160, Note_on_c, 5, 43, 127
7, 8219, Note_on_c, 5, 43, 0
7, 8220, Note_on_c, 5, 55, 119
7, 8279, Note_on_c, 5, 55, 0
7, 8280, Note_on_c, 5, 57, 119
7, 8339, Note_on_c, 5, 57, 0
7, 8340, Note_on_c, 5, 59, 104
7, 8399, Note_on_c, 5, 59, 0
7, 8400, Note_on_c, 5, 60, 104
7, 8459, Note_on_c, 5, 60, 0
7, 8520, Note_on_c, 5, 57, 119
7, 8579, Note_on_c, 5, 57, 0
7, 8640, Note_on_c, 5, 59, 104
7, 8699, Note_on_c, 5, 59, 0
7, 8760, Note_on_c, 5, 47, 119
7, 8819, Note_on_c, 5, 47, 0
7, 8880, Note_on_c, 5, 40, 96
7, 8939, Note_on_c, 5, 40, 0
7, 8940, Note_on_c, 5, 59, 111
7, 8969, Note_on_c, 5, 59, 0
7, 8970, Note_on_c, 5, 57, 111
7, 8999, Note_on_c, 5, 57, 0
7, 9000, Note_on_c, 5, 55, 119
7, 9059, Note_on_c, 5, 55, 0
7, 9060, Note_on_c, 5, 54, 127
7, 9119, Note_on_c, 5, 54, 0
7, 9120, Note_on_c, 5, 52, 104
7, 9179, Note_on_c, 5, 52, 0
7, 9180, Note_on_c, 5, 50, 119
7, 9239, Note_on_c, 5, 50, 0
7, 9240, Note_on_c, 5, 49, 127
7, 9299, Note_on_c, 5, 49, 0
7, 9300, Note_on_c, 5, 47, 119
7, 9359, Note_on_c, 5, 47, 0
7, 9360, Note_on_c, 5, 45, 119
7, 9419, Note_on_c, 5, 45, 0
7, 9420, Note_on_c, 5, 48, 111
7, 9479, Note_on_c, 5, 48, 0
7, 9480, Note_on_c, 5, 50, 104
7, 9539, Note_on_c, 5, 50, 0
7, 9540, Note_on_c, 5, 54, 127
7, 9599, Note_on_c, 5, 54, 0
7, 9600, Note_on_c, 5, 57, 127
7, 9659, Note_on_c, 5, 57, 0
7, 9660, Note_on_c, 5, 45, 127
7, 9719, Note_on_c, 5, 45, 0
7, 10080, Note_on_c, 5, 57, 127
7, 10139, Note_on_c, 5, 57, 0
7, 10140, Note_on_c, 5, 45, 111
7, 10199, Note_on_c, 5, 45, 0
7, 10680, Note_on_c, 5, 45, 127
7, 10739, Note_on_c, 5, 45, 0
7, 10740, Note_on_c, 5, 47, 104
7, 10799, Note_on_c, 5, 47, 0
7, 10800, Note_on_c, 5, 49, 117
7, 10859, Note_on_c, 5, 49, 0
7, 10860, Note_on_c, 5, 52, 96
7, 10919, Note_on_c, 5, 52, 0
7, 10920, Note_on_c, 5, 49, 117
7, 10979, Note_on_c, 5, 49, 0
7, 10980, Note_on_c, 5, 45, 119
7, 11039, Note_on_c, 5, 45, 0
7, 11040, Note_on_c, 5, 50, 104
7, 11099, Note_on_c, 5, 50, 0
7, 11100, Note_on_c, 5, 52, 104
7, 11159, Note_on_c, 5, 52, 0
7, 11160, Note_on_c, 5, 54, 127
7, 11219, Note_on_c, 5, 54, 0
7, 11220, Note_on_c, 5, 55, 127
7, 11279, Note_on_c, 5, 55, 0
7, 11280, Note_on_c, 5, 57, 119
7, 11399, Note_on_c, 5, 57, 0
7, 11400, Note_on_c, 5, 45, 111
7, 11459, Note_on_c, 5, 45, 0
7, 11460, Note_on_c, 5, 47, 119
7, 11519, Note_on_c, 5, 47, 0
7, 11520, Note_on_c, 5, 49, 127
7, 11579, Note_on_c, 5, 49, 0
7, 11580, Note_on_c, 5, 52, 104
7, 11639, Note_on_c, 5, 52, 0
7, 11640, Note_on_c, 5, 49, 127
7, 11699, Note_on_c, 5, 49, 0
7, 11700, Note_on_c, 5, 45, 119
7, 11759, Note_on_c, 5, 45, 0
7, 11760, Note_on_c, 5, 50, 88
7, 11819, Note_on_c, 5, 50, 0
7, 11820, Note_on_c, 5, 38, 111
7, 11879, Note_on_c, 5, 38, 0
7, 11880, Note_on_c, 5, 50, 119
7, 12059, Note_on_c, 5, 50, 0
7, 12060, Note_on_c, 5, 49, 108
7, 12119, Note_on_c, 5, 49, 0
7, 12120, Note_on_c, 5, 54, 127
7, 12179, Note_on_c, 5, 54, 0
7, 12180, Note_on_c, 5, 55, 119
7, 12239, Note_on_c, 5, 55, 0
7, 12240, Note_on_c, 5, 57, 119
7, 12299, Note_on_c, 5, 57, 0
7, 12300, Note_on_c, 5, 55, 127
7, 12359, Note_on_c, 5, 55, 0
7, 12360, Note_on_c, 5, 57, 119
7, 12419, Note_on_c, 5, 57, 0
7, 12420, Note_on_c, 5, 45, 111
7, 12450, Control_c, 5, 7, 84
7, 12455, Control_c, 5, 7, 85
7, 12460, Control_c, 5, 7, 86
7, 12465, Control_c, 5, 7, 89
7, 12465, Control_c, 5, 7, 88
7, 12470, Control_c, 5, 7, 90
7, 12475, Control_c, 5, 7, 91
7, 12479, Note_on_c, 5, 45, 0
7, 12480, Control_c, 5, 7, 94
7, 12480, Control_c, 5, 7, 92
7, 12480, Note_on_c, 5, 50, 104
7, 12485, Control_c, 5, 7, 95
7, 12490, Control_c, 5, 7, 97
7, 12490, Control_c, 5, 7, 96
7, 12495, Control_c, 5, 7, 98
7, 12599, Note_on_c, 5, 50, 0
7, 12600, Note_on_c, 5, 49, 117
7, 12719, Note_on_c, 5, 49, 0
7, 12720, Note_on_c, 5, 50, 111
7, 12779, Note_on_c, 5, 50, 0
7, 12780, Note_on_c, 5, 52, 88
7, 12809, Note_on_c, 5, 52, 0
7, 12810, Note_on_c, 5, 54, 117
7, 12839, Note_on_c, 5, 54, 0
7, 12840, Note_on_c, 5, 55, 104
7, 12899, Note_on_c, 5, 55, 0
7, 12900, Note_on_c, 5, 43, 119
7, 13019, Note_on_c, 5, 43, 0
7, 13020, Note_on_c, 5, 42, 98
7, 13079, Note_on_c, 5, 42, 0
7, 13080, Note_on_c, 5, 49, 127
7, 13139, Note_on_c, 5, 49, 0
7, 13140, Note_on_c, 5, 50, 119
7, 13199, Note_on_c, 5, 50, 0
7, 13200, Note_on_c, 5, 57, 104
7, 13259, Note_on_c, 5, 57, 0
7, 13260, Note_on_c, 5, 45, 119
7, 13319, Note_on_c, 5, 45, 0
7, 13440, Note_on_c, 5, 55, 119
7, 13559, Note_on_c, 5, 55, 0
7, 13560, Note_on_c, 5, 51, 127
7, 13679, Note_on_c, 5, 51, 0
7, 13680, Note_on_c, 5, 52, 88
7, 13739, Note_on_c, 5, 52, 0
7, 13740, Note_on_c, 5, 54, 98
7, 13769, Note_on_c, 5, 54, 0
7, 13770, Note_on_c, 5, 55, 104
7, 13799, Note_on_c, 5, 55, 0
7, 13800, Note_on_c, 5, 57, 119
7, 13859, Note_on_c, 5, 57, 0
7, 13860, Note_on_c, 5, 45, 119
7, 13979, Note_on_c, 5, 45, 0
7, 13980, Note_on_c, 5, 43, 111
7, 14039, Note_on_c, 5, 43, 0
7, 14040, Note_on_c, 5, 51, 117
7, 14099, Note_on_c, 5, 51, 0
7, 14100, Note_on_c, 5, 52, 111
7, 14159, Note_on_c, 5, 52, 0
7, 14160, Note_on_c, 5, 59, 111
7, 14219, Note_on_c, 5, 59, 0
7, 14220, Note_on_c, 5, 47, 119
7, 14279, Note_on_c, 5, 47, 0
7, 14400, Note_on_c, 5, 52, 111
7, 14459, Note_on_c, 5, 52, 0
7, 14460, Note_on_c, 5, 40, 119
7, 14519, Note_on_c, 5, 40, 0
7, 14640, Note_on_c, 5, 57, 119
7, 14699, Note_on_c, 5, 57, 0
7, 14700, Note_on_c, 5, 45, 127
7, 14759, Note_on_c, 5, 45, 0
7, 14880, Note_on_c, 5, 50, 127
7, 14939, Note_on_c, 5, 50, 0
7, 14940, Note_on_c, 5, 38, 119
7, 14999, Note_on_c, 5, 38, 0
7, 15120, Note_on_c, 5, 55, 119
7, 15179, Note_on_c, 5, 55, 0
7, 15180, Note_on_c, 5, 43, 119
7, 15239, Note_on_c, 5, 43, 0
7, 15335, Control_c, 5, 7, 97
7, 15350, Control_c, 5, 7, 94
7, 15355, Control_c, 5, 7, 92
7, 15355, Control_c, 5, 7, 93
7, 15360, Note_on_c, 5, 44, 117
7, 15365, Control_c, 5, 7, 91
7, 15370, Control_c, 5, 7, 90
7, 15380, Control_c, 5, 7, 88
7, 15380, Control_c, 5, 7, 89
7, 15385, Control_c, 5, 7, 86
7, 15385, Control_c, 5, 7, 87
7, 15390, Control_c, 5, 7, 85
7, 15395, Control_c, 5, 7, 84
7, 15400, Control_c, 5, 7, 82
7, 15400, Control_c, 5, 7, 83
7, 15405, Control_c, 5, 7, 81
7, 15410, Control_c, 5, 7, 79
7, 15410, Control_c, 5, 7, 80
7, 15415, Control_c, 5, 7, 78
7, 15419, Note_on_c, 5, 44, 0
7, 15420, Control_c, 5, 7, 77
7, 15430, Control_c, 5, 7, 76
7, 15435, Control_c, 5, 7, 74
7, 15440, Control_c, 5, 7, 73
7, 15445, Control_c, 5, 7, 72
7, 15480, Note_on_c, 5, 47, 119
7, 15539, Note_on_c, 5, 47, 0
7, 15600, Note_on_c, 5, 40, 119
7, 15659, Note_on_c, 5, 40, 0
7, 15720, Note_on_c, 5, 52, 104
7, 15779, Note_on_c, 5, 52, 0
7, 15840, Note_on_c, 5, 57, 119
7, 15899, Note_on_c, 5, 57, 0
7, 15900, Note_on_c, 5, 45, 119
7, 15959, Note_on_c, 5, 45, 0
7, 15960, Note_on_c, 5, 48, 127
7, 16019, Note_on_c, 5, 48, 0
7, 16020, Note_on_c, 5, 52, 104
7, 16079, Note_on_c, 5, 52, 0
7, 16080, Note_on_c, 5, 57, 127
7, 16139, Note_on_c, 5, 57, 0
7, 16200, Note_on_c, 5, 48, 111
7, 16259, Note_on_c, 5, 48, 0
7, 16320, Note_on_c, 5, 50, 127
7, 16379, Note_on_c, 5, 50, 0
7, 16440, Note_on_c, 5, 43, 127
7, 16499, Note_on_c, 5, 43, 0
7, 16560, Note_on_c, 5, 48, 111
7, 16619, Note_on_c, 5, 48, 0
7, 16620, Note_on_c, 5, 55, 127
7, 16649, Note_on_c, 5, 55, 0
7, 16650, Note_on_c, 5, 53, 104
7, 16679, Note_on_c, 5, 53, 0
7, 16680, Note_on_c, 5, 52, 111
7, 16739, Note_on_c, 5, 52, 0
7, 16740, Note_on_c, 5, 48, 127
7, 16799, Note_on_c, 5, 48, 0
7, 16800, Note_on_c, 5, 53, 111
7, 16859, Note_on_c, 5, 53, 0
7, 16860, Note_on_c, 5, 51, 117
7, 16889, Note_on_c, 5, 51, 0
7, 16890, Note_on_c, 5, 50, 119
7, 16919, Note_on_c, 5, 50, 0
7, 16920, Note_on_c, 5, 48, 104
7, 16979, Note_on_c, 5, 48, 0
7, 16980, Note_on_c, 5, 45, 127
7, 17039, Note_on_c, 5, 45, 0
7, 17040, Note_on_c, 5, 47, 127
7, 17099, Note_on_c, 5, 47, 0
7, 17100, Note_on_c, 5, 43, 127
7, 17159, Note_on_c, 5, 43, 0
7, 17160, Note_on_c, 5, 47, 119
7, 17219, Note_on_c, 5, 47, 0
7, 17220, Note_on_c, 5, 50, 127
7, 17279, Note_on_c, 5, 50, 0
7, 17280, Note_on_c, 5, 55, 119
7, 17339, Note_on_c, 5, 55, 0
7, 17340, Note_on_c, 5, 43, 127
7, 17399, Note_on_c, 5, 43, 0
7, 17760, Note_on_c, 5, 55, 119
7, 17819, Note_on_c, 5, 55, 0
7, 17820, Note_on_c, 5, 43, 119
7, 17879, Note_on_c, 5, 43, 0
7, 18420, Note_on_c, 5, 55, 111
7, 18449, Note_on_c, 5, 55, 0
7, 18450, Note_on_c, 5, 53, 96
7, 18479, Note_on_c, 5, 53, 0
7, 18480, Note_on_c, 5, 52, 96
7, 18539, Note_on_c, 5, 52, 0
7, 18540, Note_on_c, 5, 50, 104
7, 18569, Note_on_c, 5, 50, 0
7, 18570, Note_on_c, 5, 48, 119
7, 18599, Note_on_c, 5, 48, 0
7, 18600, Note_on_c, 5, 47, 111
7, 18659, Note_on_c, 5, 47, 0
7, 18660, Note_on_c, 5, 52, 104
7, 18689, Note_on_c, 5, 52, 0
7, 18690, Note_on_c, 5, 48, 104
7, 18719, Note_on_c, 5, 48, 0
7, 18720, Note_on_c, 5, 55, 119
7, 18779, Note_on_c, 5, 55, 0
7, 18780, Note_on_c, 5, 53, 96
7, 18839, Note_on_c, 5, 53, 0
7, 18840, Note_on_c, 5, 55, 119
7, 18899, Note_on_c, 5, 55, 0
7, 18900, Note_on_c, 5, 43, 127
7, 18940, Control_c, 5, 7, 73
7, 18945, Control_c, 5, 7, 74
7, 18950, Control_c, 5, 7, 75
7, 18955, Control_c, 5, 7, 76
7, 18959, Note_on_c, 5, 43, 0
7, 18960, Control_c, 5, 7, 77
7, 18960, Note_on_c, 5, 48, 104
7, 18970, Control_c, 5, 7, 78
7, 18975, Control_c, 5, 7, 79
7, 18980, Control_c, 5, 7, 80
7, 18985, Control_c, 5, 7, 83
7, 18985, Control_c, 5, 7, 82
7, 18990, Control_c, 5, 7, 84
7, 18995, Control_c, 5, 7, 86
7, 18995, Control_c, 5, 7, 85
7, 19000, Control_c, 5, 7, 88
7, 19005, Control_c, 5, 7, 90
7, 19005, Control_c, 5, 7, 89
7, 19030, Control_c, 5, 7, 91
7, 19060, Control_c, 5, 7, 92
7, 19075, Control_c, 5, 7, 93
7, 19079, Note_on_c, 5, 48, 0
7, 19099, Control_c, 5, 7, 94
7, 19109, Control_c, 5, 7, 95
7, 19119, Control_c, 5, 7, 96
7, 19200, Note_on_c, 5, 43, 127
7, 19215, Control_c, 5, 7, 97
7, 19220, Control_c, 5, 7, 98
7, 19245, Control_c, 5, 7, 99
7, 19319, Note_on_c, 5, 43, 0
7, 19320, Note_on_c, 5, 42, 127
7, 19439, Note_on_c, 5, 42, 0
7, 19440, Note_on_c, 5, 43, 104
7, 19499, Note_on_c, 5, 43, 0
7, 19500, Note_on_c, 5, 45, 127
7, 19529, Note_on_c, 5, 45, 0
7, 19530, Note_on_c, 5, 47, 111
7, 19559, Note_on_c, 5, 47, 0
7, 19560, Note_on_c, 5, 48, 80
7, 19619, Note_on_c, 5, 48, 0
7, 19620, Note_on_c, 5, 60, 104
7, 19739, Note_on_c, 5, 60, 0
7, 19740, Note_on_c, 5, 59, 88
7, 19799, Note_on_c, 5, 59, 0
7, 19800, Note_on_c, 5, 54, 127
7, 19859, Note_on_c, 5, 54, 0
7, 19860, Note_on_c, 5, 55, 127
7, 19919, Note_on_c, 5, 55, 0
7, 19920, Note_on_c, 5, 50, 127
7, 19979, Note_on_c, 5, 50, 0
7, 19980, Note_on_c, 5, 38, 127
7, 20005, Control_c, 5, 7, 98
7, 20030, Control_c, 5, 7, 97
7, 20039, Note_on_c, 5, 38, 0
7, 20039, Control_c, 5, 7, 96
7, 20050, Control_c, 5, 7, 93
7, 20050, Control_c, 5, 7, 94
7, 20055, Control_c, 5, 7, 92
7, 20060, Control_c, 5, 7, 91
7, 20065, Control_c, 5, 7, 88
7, 20065, Control_c, 5, 7, 90
7, 20075, Control_c, 5, 7, 86
7, 20075, Control_c, 5, 7, 87
7, 20080, Control_c, 5, 7, 85
7, 20090, Control_c, 5, 7, 84
7, 20095, Control_c, 5, 7, 83
7, 20100, Control_c, 5, 7, 81
7, 20100, Control_c, 5, 7, 82
7, 20110, Control_c, 5, 7, 80
7, 20130, Control_c, 5, 7, 79
7, 20195, Control_c, 5, 7, 78
7, 20220, Note_on_c, 5, 38, 119
7, 20279, Note_on_c, 5, 38, 0
7, 20280, Note_on_c, 5, 40, 119
7, 20339, Note_on_c, 5, 40, 0
7, 20340, Note_on_c, 5, 42, 127
7, 20399, Note_on_c, 5, 42, 0
7, 20400, Note_on_c, 5, 43, 127
7, 20519, Note_on_c, 5, 43, 0
7, 20700, Note_on_c, 5, 40, 111
7, 20759, Note_on_c, 5, 40, 0
7, 20760, Note_on_c, 5, 42, 117
7, 20819, Note_on_c, 5, 42, 0
7, 20820, Note_on_c, 5, 43, 127
7, 20879, Note_on_c, 5, 43, 0
7, 20880, Note_on_c, 5, 45, 127
7, 20939, Note_on_c, 5, 45, 0
7, 20940, Note_on_c, 5, 43, 127
7, 20999, Note_on_c, 5, 43, 0
7, 21000, Note_on_c, 5, 45, 127
7, 21059, Note_on_c, 5, 45, 0
7, 21060, Note_on_c, 5, 50, 127
7, 21119, Note_on_c, 5, 50, 0
7, 21120, Note_on_c, 5, 47, 127
7, 21179, Note_on_c, 5, 47, 0
7, 21180, Note_on_c, 5, 43, 127
7, 21239, Note_on_c, 5, 43, 0
7, 21240, Note_on_c, 5, 45, 127
7, 21299, Note_on_c, 5, 45, 0
7, 21300, Note_on_c, 5, 47, 119
7, 21359, Note_on_c, 5, 47, 0
7, 21360, Note_on_c, 5, 48, 119
7, 21479, Note_on_c, 5, 48, 0
7, 21660, Note_on_c, 5, 45, 127
7, 21719, Note_on_c, 5, 45, 0
7, 21720, Note_on_c, 5, 47, 119
7, 21779, Note_on_c, 5, 47, 0
7, 21780, Note_on_c, 5, 48, 119
7, 21839, Note_on_c, 5, 48, 0
7, 21840, Note_on_c, 5, 50, 119
7, 21899, Note_on_c, 5, 50, 0
7, 21900, Note_on_c, 5, 52, 104
7, 21959, Note_on_c, 5, 52, 0
7, 21960, Note_on_c, 5, 50, 96
7, 22019, Note_on_c, 5, 50, 0
7, 22020, Note_on_c, 5, 48, 111
7, 22079, Note_on_c, 5, 48, 0
7, 22080, Note_on_c, 5, 47, 119
7, 22139, Note_on_c, 5, 47, 0
7, 22140, Note_on_c, 5, 45, 127
7, 22199, Note_on_c, 5, 45, 0
7, 22200, Note_on_c, 5, 43, 127
7, 22259, Note_on_c, 5, 43, 0
7, 22260, Note_on_c, 5, 45, 127
7, 22289, Note_on_c, 5, 45, 0
7, 22290, Note_on_c, 5, 47, 111
7, 22319, Note_on_c, 5, 47, 0
7, 22320, Note_on_c, 5, 48, 104
7, 22349, Note_on_c, 5, 48, 0
7, 22350, Note_on_c, 5, 50, 119
7, 22379, Note_on_c, 5, 50, 0
7, 22380, Note_on_c, 5, 48, 111
7, 22409, Note_on_c, 5, 48, 0
7, 22410, Note_on_c, 5, 47, 104
7, 22439, Note_on_c, 5, 47, 0
7, 22440, Note_on_c, 5, 45, 119
7, 22469, Note_on_c, 5, 45, 0
7, 22470, Note_on_c, 5, 43, 119
7, 22499, Note_on_c, 5, 43, 0
7, 22500, Note_on_c, 5, 42, 127
7, 22529, Note_on_c, 5, 42, 0
7, 22530, Note_on_c, 5, 40, 119
7, 22559, Note_on_c, 5, 40, 0
7, 22560, Note_on_c, 5, 38, 127
7, 22619, Note_on_c, 5, 38, 0
7, 22620, Note_on_c, 5, 40, 104
7, 22649, Note_on_c, 5, 40, 0
7, 22650, Note_on_c, 5, 42, 127
7, 22679, Note_on_c, 5, 42, 0
7, 22680, Note_on_c, 5, 43, 119
7, 22709, Note_on_c, 5, 43, 0
7, 22710, Note_on_c, 5, 45, 111
7, 22739, Note_on_c, 5, 45, 0
7, 22740, Note_on_c, 5, 47, 111
7, 22769, Note_on_c, 5, 47, 0
7, 22770, Note_on_c, 5, 43, 127
7, 22799, Note_on_c, 5, 43, 0
7, 22800, Note_on_c, 5, 45, 127
7, 22829, Note_on_c, 5, 45, 0
7, 22830, Note_on_c, 5, 43, 104
7, 22859, Note_on_c, 5, 43, 0
7, 22860, Note_on_c, 5, 45, 104
7, 22889, Note_on_c, 5, 45, 0
7, 22890, Note_on_c, 5, 47, 88
7, 22919, Note_on_c, 5, 47, 0
7, 22920, Note_on_c, 5, 48, 78
7, 22949, Note_on_c, 5, 48, 0
7, 22950, Note_on_c, 5, 50, 78
7, 22979, Note_on_c, 5, 50, 0
7, 22980, Note_on_c, 5, 52, 78
7, 23009, Note_on_c, 5, 52, 0
7, 23010, Note_on_c, 5, 48, 78
7, 23039, Note_on_c, 5, 48, 0
7, 23040, Note_on_c, 5, 50, 127
7, 23099, Note_on_c, 5, 50, 0
7, 23100, Note_on_c, 5, 38, 127
7, 23159, Note_on_c, 5, 38, 0
7, 23280, Note_on_c, 5, 50, 127
7, 23339, Note_on_c, 5, 50, 0
7, 23340, Note_on_c, 5, 38, 127
7, 23399, Note_on_c, 5, 38, 0
7, 23520, Note_on_c, 5, 50, 127
7, 23579, Note_on_c, 5, 50, 0
7, 23580, Note_on_c, 5, 38, 127
7, 23639, Note_on_c, 5, 38, 0
7, 23760, Note_on_c, 5, 50, 119
7, 23819, Note_on_c, 5, 50, 0
7, 23820, Note_on_c, 5, 38, 119
7, 23879, Note_on_c, 5, 38, 0
7, 24060, Note_on_c, 5, 50, 119
7, 24089, Note_on_c, 5, 50, 0
7, 24090, Note_on_c, 5, 52, 104
7, 24119, Note_on_c, 5, 52, 0
7, 24120, Note_on_c, 5, 50, 127
7, 24149, Note_on_c, 5, 50, 0
7, 24150, Note_on_c, 5, 48, 111
7, 24179, Note_on_c, 5, 48, 0
7, 24180, Note_on_c, 5, 47, 119
7, 24209, Note_on_c, 5, 47, 0
7, 24210, Note_on_c, 5, 45, 127
7, 24239, Note_on_c, 5, 45, 0
7, 24240, Note_on_c, 5, 43, 104
7, 24299, Note_on_c, 5, 43, 0
7, 24300, Note_on_c, 5, 45, 104
7, 24329, Note_on_c, 5, 45, 0
7, 24330, Note_on_c, 5, 47, 96
7, 24359, Note_on_c, 5, 47, 0
7, 24360, Note_on_c, 5, 48, 104
7, 24419, Note_on_c, 5, 48, 0
7, 24420, Note_on_c, 5, 45, 104
7, 24479, Note_on_c, 5, 45, 0
7, 24480, Note_on_c, 5, 50, 104
7, 24539, Note_on_c, 5, 50, 0
7, 24540, Note_on_c, 5, 52, 80
7, 24569, Note_on_c, 5, 52, 0
7, 24570, Note_on_c, 5, 54, 127
7, 24599, Note_on_c, 5, 54, 0
7, 24600, Note_on_c, 5, 55, 111
7, 24659, Note_on_c, 5, 55, 0
7, 24660, Note_on_c, 5, 52, 104
7, 24719, Note_on_c, 5, 52, 0
7, 24720, Note_on_c, 5, 48, 119
7, 24779, Note_on_c, 5, 48, 0
7, 24780, Note_on_c, 5, 45, 127
7, 24839, Note_on_c, 5, 45, 0
7, 24840, Note_on_c, 5, 50, 127
7, 24899, Note_on_c, 5, 50, 0
7, 24900, Note_on_c, 5, 38, 127
7, 24959, Note_on_c, 5, 38, 0
7, 24960, Note_on_c, 5, 43, 119
7, 24985, Control_c, 5, 7, 84
7, 24990, Control_c, 5, 7, 87
7, 25010, Control_c, 5, 7, 88
7, 25020, Control_c, 5, 7, 90
7, 25020, Control_c, 5, 7, 89
7, 25070, Control_c, 5, 7, 91
7, 25079, Note_on_c, 5, 43, 0
7, 25080, Note_on_c, 5, 42, 127
7, 25090, Control_c, 5, 7, 92
7, 25095, Control_c, 5, 7, 93
7, 25135, Control_c, 5, 7, 94
7, 25199, Note_on_c, 5, 42, 0
7, 25200, Note_on_c, 5, 43, 111
7, 25259, Note_on_c, 5, 43, 0
7, 25260, Note_on_c, 5, 45, 127
7, 25289, Note_on_c, 5, 45, 0
7, 25290, Note_on_c, 5, 47, 119
7, 25319, Note_on_c, 5, 47, 0
7, 25320, Note_on_c, 5, 48, 96
7, 25379, Note_on_c, 5, 48, 0
7, 25380, Note_on_c, 5, 60, 111
7, 25499, Note_on_c, 5, 60, 0
7, 25500, Note_on_c, 5, 59, 78
7, 25559, Note_on_c, 5, 59, 0
7, 25560, Note_on_c, 5, 54, 127
7, 25619, Note_on_c, 5, 54, 0
7, 25620, Note_on_c, 5, 55, 127
7, 25679, Note_on_c, 5, 55, 0
7, 25680, Note_on_c, 5, 62, 127
7, 25739, Note_on_c, 5, 62, 0
7, 25740, Note_on_c, 5, 50, 127
7, 25799, Note_on_c, 5, 50, 0
7, 25920, Note_on_c, 5, 48, 127
7, 26039, Note_on_c, 5, 48, 0
7, 26040, Note_on_c, 5, 44, 127
7, 26159, Note_on_c, 5, 44, 0
7, 26160, Note_on_c, 5, 45, 119
7, 26219, Note_on_c, 5, 45, 0
7, 26220, Note_on_c, 5, 47, 88
7, 26249, Note_on_c, 5, 47, 0
7, 26250, Note_on_c, 5, 48, 127
7, 26279, Note_on_c, 5, 48, 0
7, 26280, Note_on_c, 5, 50, 119
7, 26339, Note_on_c, 5, 50, 0
7, 26340, Note_on_c, 5, 62, 127
7, 26400, Note_on_c, 5, 62, 127
7, 26459, Note_on_c, 5, 62, 0
7, 26463, Note_on_c, 5, 60, 88
7, 26519, Note_on_c, 5, 62, 0
7, 26520, Note_on_c, 5, 56, 117
7, 26522, Note_on_c, 5, 60, 0
7, 26579, Note_on_c, 5, 56, 0
7, 26580, Note_on_c, 5, 57, 119
7, 26639, Note_on_c, 5, 57, 0
7, 26640, Note_on_c, 5, 64, 119
7, 26699, Note_on_c, 5, 64, 0
7, 26700, Note_on_c, 5, 52, 111
7, 26759, Note_on_c, 5, 52, 0
7, 26880, Note_on_c, 5, 57, 119
7, 26939, Note_on_c, 5, 57, 0
7, 26940, Note_on_c, 5, 45, 127
7, 26999, Note_on_c, 5, 45, 0
7, 27120, Note_on_c, 5, 48, 111
7, 27179, Note_on_c, 5, 48, 0
7, 27180, Note_on_c, 5, 45, 119
7, 27239, Note_on_c, 5, 45, 0
7, 27360, Note_on_c, 5, 50, 127
7, 27419, Note_on_c, 5, 50, 0
7, 27420, Note_on_c, 5, 38, 119
7, 27479, Note_on_c, 5, 38, 0
7, 27600, Note_on_c, 5, 54, 127
7, 27659, Note_on_c, 5, 54, 0
7, 27660, Note_on_c, 5, 50, 127
7, 27719, Note_on_c, 5, 50, 0
7, 27840, Note_on_c, 5, 55, 127
7, 27899, Note_on_c, 5, 55, 0
7, 27900, Note_on_c, 5, 43, 127
7, 27959, Note_on_c, 5, 43, 0
7, 28140, Note_on_c, 5, 60, 104
7, 28169, Note_on_c, 5, 60, 0
7, 28170, Note_on_c, 5, 59, 111
7, 28199, Note_on_c, 5, 59, 0
7, 28200, Note_on_c, 5, 57, 119
7, 28259, Note_on_c, 5, 57, 0
7, 28260, Note_on_c, 5, 55, 119
7, 28319, Note_on_c, 5, 55, 0
7, 28320, Note_on_c, 5, 54, 127
7, 28379, Note_on_c, 5, 54, 0
7, 28380, Note_on_c, 5, 42, 127
7, 28439, Note_on_c, 5, 42, 0
7, 28465, Control_c, 5, 7, 97
7, 28620, Note_on_c, 5, 59, 104
7, 28649, Note_on_c, 5, 59, 0
7, 28650, Note_on_c, 5, 57, 127
7, 28679, Note_on_c, 5, 57, 0
7, 28680, Note_on_c, 5, 55, 88
7, 28739, Note_on_c, 5, 55, 0
7, 28740, Note_on_c, 5, 54, 127
7, 28799, Note_on_c, 5, 54, 0
7, 28800, Note_on_c, 5, 52, 111
7, 28859, Note_on_c, 5, 52, 0
7, 28860, Note_on_c, 5, 40, 119
7, 28919, Note_on_c, 5, 40, 0
7, 29060, Control_c, 5, 7, 102
7, 29100, Note_on_c, 5, 57, 127
7, 29129, Note_on_c, 5, 57, 0
7, 29130, Note_on_c, 5, 55, 119
7, 29159, Note_on_c, 5, 55, 0
7, 29160, Note_on_c, 5, 54, 127
7, 29190, Control_c, 5, 7, 101
7, 29195, Control_c, 5, 7, 100
7, 29200, Control_c, 5, 7, 99
7, 29219, Note_on_c, 5, 54, 0
7, 29220, Note_on_c, 5, 52, 111
7, 29230, Control_c, 5, 7, 97
7, 29235, Control_c, 5, 7, 96
7, 29279, Note_on_c, 5, 52, 0
7, 29280, Note_on_c, 5, 50, 127
7, 29295, Control_c, 5, 7, 93
7, 29339, Note_on_c, 5, 50, 0
7, 29340, Note_on_c, 5, 38, 127
7, 29399, Note_on_c, 5, 38, 0
7, 29760, Note_on_c, 5, 50, 127
7, 29805, Control_c, 5, 7, 73
7, 29805, Control_c, 5, 7, 80
7, 29810, Control_c, 5, 7, 72
7, 29815, Control_c, 5, 7, 71
7, 29819, Note_on_c, 5, 50, 0
7, 29820, Control_c, 5, 7, 70
7, 29820, Note_on_c, 5, 38, 127
7, 29825, Control_c, 5, 7, 66
7, 29825, Control_c, 5, 7, 67
7, 29830, Control_c, 5, 7, 63
7, 29830, Control_c, 5, 7, 64
7, 29879, Note_on_c, 5, 38, 0
7, 30275, Control_c, 5, 7, 65
7, 30275, Control_c, 5, 7, 64
7, 30280, Control_c, 5, 7, 68
7, 30280, Control_c, 5, 7, 67
7, 30285, Control_c, 5, 7, 69
7, 30290, Control_c, 5, 7, 71
7, 30295, Control_c, 5, 7, 74
7, 30295, Control_c, 5, 7, 72
7, 30300, Control_c, 5, 7, 77
7, 30300, Note_on_c, 5, 50, 127
7, 30305, Control_c, 5, 7, 82
7, 30305, Control_c, 5, 7, 80
7, 30310, Control_c, 5, 7, 85
7, 30310, Control_c, 5, 7, 83
7, 30315, Control_c, 5, 7, 86
7, 30320, Control_c, 5, 7, 88
7, 30320, Control_c, 5, 7, 87
7, 30325, Control_c, 5, 7, 89
7, 30330, Control_c, 5, 7, 90
7, 30335, Control_c, 5, 7, 91
7, 30340, Control_c, 5, 7, 92
7, 30345, Control_c, 5, 7, 93
7, 30350, Control_c, 5, 7, 94
7, 30355, Control_c, 5, 7, 97
7, 30359, Note_on_c, 5, 50, 0
7, 30360, Note_on_c, 5, 55, 127
7, 30365, Control_c, 5, 7, 98
7, 30380, Control_c, 5, 7, 99
7, 30385, Control_c, 5, 7, 100
7, 30400, Control_c, 5, 7, 101
7, 30419, Note_on_c, 5, 55, 0
7, 30420, Note_on_c, 5, 48, 127
7, 30479, Note_on_c, 5, 48, 0
7, 30480, Note_on_c, 5, 50, 127
7, 30599, Note_on_c, 5, 50, 0
7, 30600, Note_on_c, 5, 38, 127
7, 30719, Note_on_c, 5, 38, 0
7, 30720, Note_on_c, 5, 43, 127
7, 30725, Control_c, 5, 7, 100
7, 30730, Control_c, 5, 7, 98
7, 30745, Control_c, 5, 7, 97
7, 30760, Control_c, 5, 7, 96
7, 30765, Control_c, 5, 7, 94
7, 30770, Control_c, 5, 7, 93
7, 30805, Control_c, 5, 7, 92
7, 30810, Control_c, 5, 7, 91
7, 30815, Control_c, 5, 7, 90
7, 30835, Control_c, 5, 7, 88
7, 30835, Control_c, 5, 7, 89
7, 30840, Control_c, 5, 7, 86
7, 30840, Control_c, 5, 7, 87
7, 30845, Control_c, 5, 7, 85
7, 30850, Control_c, 5, 7, 84
7, 30860, Control_c, 5, 7, 82
7, 30860, Control_c, 5, 7, 83
7, 30865, Control_c, 5, 7, 81
7, 30870, Control_c, 5, 7, 79
7, 30870, Control_c, 5, 7, 80
7, 30875, Control_c, 5, 7, 78
7, 30885, Control_c, 5, 7, 77
7, 30895, Control_c, 5, 7, 74
7, 30895, Control_c, 5, 7, 76
7, 30905, Control_c, 5, 7, 73
7, 30910, Control_c, 5, 7, 71
7, 30910, Control_c, 5, 7, 72
7, 30920, Control_c, 5, 7, 70
7, 30925, Control_c, 5, 7, 69
7, 30935, Control_c, 5, 7, 68
7, 30940, Control_c, 5, 7, 67
7, 30945, Control_c, 5, 7, 65
7, 30945, Control_c, 5, 7, 66
7, 30950, Control_c, 5, 7, 64
7, 30960, Control_c, 5, 7, 63
7, 30965, Control_c, 5, 7, 62
7, 30970, Control_c, 5, 7, 61
7, 30975, Control_c, 5, 7, 59
7, 30975, Control_c, 5, 7, 60
7, 30980, Control_c, 5, 7, 58
7, 30985, Control_c, 5, 7, 56
7, 30985, Control_c, 5, 7, 57
7, 30990, Control_c, 5, 7, 55
7, 30995, Control_c, 5, 7, 54
7, 31005, Control_c, 5, 7, 53
7, 31010, Control_c, 5, 7, 52
7, 31020, Control_c, 5, 7, 51
7, 31030, Control_c, 5, 7, 49
7, 31030, Control_c, 5, 7, 50
7, 31035, Control_c, 5, 7, 48
7, 31040, Control_c, 5, 7, 46
7, 31040, Control_c, 5, 7, 47
7, 31050, Control_c, 5, 7, 45
7, 31055, Control_c, 5, 7, 44
7, 31060, Control_c, 5, 7, 43
7, 31065, Control_c, 5, 7, 41
7, 31065, Control_c, 5, 7, 42
7, 31070, Control_c, 5, 7, 38
7, 31070, Control_c, 5, 7, 39
7, 31080, Control_c, 5, 7, 37
7, 31085, Control_c, 5, 7, 36
7, 31095, Control_c, 5, 7, 35
7, 31105, Control_c, 5, 7, 34
7, 31115, Control_c, 5, 7, 33
7, 31130, Control_c, 5, 7, 31
7, 31130, Control_c, 5, 7, 32
7, 31135, Control_c, 5, 7, 30
7, 31144, Control_c, 5, 7, 29
7, 31154, Control_c, 5, 7, 28
7, 31164, Control_c, 5, 7, 27
7, 31169, Control_c, 5, 7, 26
7, 31174, Control_c, 5, 7, 25
7, 31184, Control_c, 5, 7, 24
7, 31194, Control_c, 5, 7, 23
7, 31199, Note_on_c, 5, 43, 0
7, 31199, End_track
0, 0, End_of_file