0, 0, Header, 1, 4, 120
1, 0, Start_track
1, 0, Time_signature, 3, 3, 12, 8
1, 0, Key_signature, 2, "major"
1, 0, Tempo, 705882
1, 5, Tempo, 755668
1, 10425, Tempo, 750939
1, 10430, Tempo, 755668
1, 10435, Tempo, 765306
1, 10440, Tempo, 775194
1, 10445, Tempo, 785340
1, 10450, Tempo, 795756
1, 10455, Tempo, 806452
1, 10460, Tempo, 817439
1, 10465, Tempo, 823045
1, 10470, Tempo, 834492
1, 10475, Tempo, 846262
1, 10480, Tempo, 858369
1, 10485, Tempo, 870827
1, 10490, Tempo, 883652
1, 10495, Tempo, 896861
1, 10500, Tempo, 903614
1, 10505, Tempo, 917431
1, 10510, Tempo, 931677
1, 10515, Tempo, 946372
1, 10520, Tempo, 961538
1, 10525, Tempo, 977199
1, 10530, Tempo, 993377
1, 10535, Tempo, 1001669
1, 10540, Tempo, 1018676
1, 10545, Tempo, 1036269
1, 10550, Tempo, 1054482
1, 10555, Tempo, 1073345
1, 10560, Tempo, 1092896
1, 10565, Tempo, 1113173
1, 10570, Tempo, 1123596
1, 10575, Tempo, 1145038
1, 10580, Tempo, 1167315
1, 10585, Tempo, 1190476
1, 10590, Tempo, 1214575
1, 10595, Tempo, 1239669
1, 10600, Tempo, 1265823
1, 10605, Tempo, 1279318
1, 10610, Tempo, 1307190
1, 10615, Tempo, 1336303
1, 10620, Tempo, 1366743
1, 10625, Tempo, 1398601
1, 10630, Tempo, 1431981
1, 10635, Tempo, 1466993
1, 10635, End_track
2, 0, Start_track
2, 0, MIDI_port, 0
2, 0, Title_t, "Track 2"
2, 0, Program_c, 0, 0
2, 0, Control_c, 0, 7, 101
2, 0, Control_c, 0, 10, 64
2, 0, Control_c, 0, 7, 98
2, 0, Control_c, 0, 93, 98
2, 120, Note_on_c, 0, 62, 127
2, 144, Note_on_c, 0, 62, 0
2, 150, Note_on_c, 0, 64, 127
2, 174, Note_on_c, 0, 64, 0
2, 180, Note_on_c, 0, 66, 127
2, 204, Note_on_c, 0, 66, 0
2, 210, Note_on_c, 0, 64, 127
2, 234, Note_on_c, 0, 64, 0
2, 240, Note_on_c, 0, 67, 127
2, 264, Note_on_c, 0, 67, 0
2, 270, Note_on_c, 0, 66, 127
2, 294, Note_on_c, 0, 66, 0
2, 300, Note_on_c, 0, 64, 127
2, 324, Note_on_c, 0, 64, 0
2, 330, Note_on_c, 0, 62, 127
2, 354, Note_on_c, 0, 62, 0
2, 360, Note_on_c, 0, 69, 127
2, 360, Control_c, 0, 7, 97
2, 384, Note_on_c, 0, 69, 0
2, 390, Note_on_c, 0, 67, 127
2, 400, Control_c, 0, 7, 98
2, 414, Note_on_c, 0, 67, 0
2, 420, Note_on_c, 0, 66, 127
2, 440, Control_c, 0, 7, 99
2, 444, Note_on_c, 0, 66, 0
2, 450, Note_on_c, 0, 64, 127
2, 474, Note_on_c, 0, 64, 0
2, 480, Note_on_c, 0, 66, 127
2, 480, Control_c, 0, 7, 100
2, 504, Note_on_c, 0, 66, 0
2, 510, Note_on_c, 0, 62, 127
2, 520, Control_c, 0, 7, 101
2, 534, Note_on_c, 0, 62, 0
2, 540, Note_on_c, 0, 69, 127
2, 560, Control_c, 0, 7, 102
2, 598, Note_on_c, 0, 71, 127
2, 600, Note_on_c, 0, 69, 0
2, 600, Control_c, 0, 7, 103
2, 630, Control_c, 0, 7, 104
2, 658, Note_on_c, 0, 71, 0
2, 660, Note_on_c, 0, 73, 127
2, 667, Note_on_c, 0, 73, 0
2, 667, Note_on_c, 0, 71, 127
2, 670, Control_c, 0, 7, 105
2, 674, Note_on_c, 0, 71, 0
2, 674, Note_on_c, 0, 73, 127
2, 689, Note_on_c, 0, 73, 0
2, 690, Note_on_c, 0, 74, 127
2, 710, Control_c, 0, 7, 106
2, 720, Note_on_c, 0, 74, 0
2, 720, Note_on_c, 0, 73, 127
2, 750, Control_c, 0, 7, 107
2, 778, Note_on_c, 0, 71, 127
2, 780, Note_on_c, 0, 73, 0
2, 790, Control_c, 0, 7, 108
2, 793, Note_on_c, 0, 71, 0
2, 801, Note_on_c, 0, 69, 127
2, 830, Control_c, 0, 7, 109
2, 840, Note_on_c, 0, 73, 127
2, 846, Note_on_c, 0, 69, 0
2, 864, Note_on_c, 0, 73, 0
2, 870, Note_on_c, 0, 74, 127
2, 870, Control_c, 0, 7, 110
2, 894, Note_on_c, 0, 74, 0
2, 900, Note_on_c, 0, 76, 127
2, 900, Control_c, 0, 7, 111
2, 924, Note_on_c, 0, 76, 0
2, 930, Note_on_c, 0, 73, 127
2, 954, Note_on_c, 0, 73, 0
2, 960, Note_on_c, 0, 78, 127
2, 984, Note_on_c, 0, 78, 0
2, 990, Note_on_c, 0, 74, 127
2, 1014, Note_on_c, 0, 74, 0
2, 1020, Note_on_c, 0, 73, 127
2, 1044, Note_on_c, 0, 73, 0
2, 1050, Note_on_c, 0, 71, 127
2, 1074, Note_on_c, 0, 71, 0
2, 1080, Note_on_c, 0, 76, 127
2, 1104, Note_on_c, 0, 76, 0
2, 1110, Note_on_c, 0, 73, 127
2, 1134, Note_on_c, 0, 73, 0
2, 1140, Note_on_c, 0, 74, 127
2, 1164, Note_on_c, 0, 74, 0
2, 1170, Note_on_c, 0, 71, 127
2, 1194, Note_on_c, 0, 71, 0
2, 1200, Note_on_c, 0, 69, 127
2, 1224, Note_on_c, 0, 69, 0
2, 1230, Note_on_c, 0, 68, 127
2, 1254, Note_on_c, 0, 68, 0
2, 1260, Note_on_c, 0, 76, 127
2, 1284, Note_on_c, 0, 76, 0
2, 1290, Note_on_c, 0, 73, 127
2, 1300, Control_c, 0, 10, 49
2, 1314, Note_on_c, 0, 73, 0
2, 1320, Control_c, 0, 10, 46
2, 1320, Note_on_c, 0, 78, 127
2, 1330, Control_c, 0, 10, 44
2, 1335, Control_c, 0, 10, 42
2, 1340, Control_c, 0, 10, 40
2, 1344, Note_on_c, 0, 78, 0
2, 1344, Control_c, 0, 10, 37
2, 1350, Note_on_c, 0, 74, 127
2, 1355, Control_c, 0, 10, 33
2, 1355, Control_c, 0, 10, 35
2, 1360, Control_c, 0, 10, 30
2, 1365, Control_c, 0, 10, 27
2, 1374, Note_on_c, 0, 74, 0
2, 1380, Note_on_c, 0, 73, 127
2, 1385, Control_c, 0, 10, 24
2, 1395, Control_c, 0, 10, 21
2, 1404, Note_on_c, 0, 73, 0
2, 1410, Note_on_c, 0, 71, 127
2, 1434, Note_on_c, 0, 71, 0
2, 1440, Note_on_c, 0, 76, 127
2, 1464, Note_on_c, 0, 76, 0
2, 1470, Note_on_c, 0, 73, 127
2, 1494, Note_on_c, 0, 73, 0
2, 1500, Note_on_c, 0, 74, 127
2, 1524, Note_on_c, 0, 74, 0
2, 1530, Note_on_c, 0, 71, 127
2, 1554, Note_on_c, 0, 71, 0
2, 1560, Note_on_c, 0, 69, 127
2, 1584, Note_on_c, 0, 69, 0
2, 1590, Note_on_c, 0, 68, 127
2, 1614, Note_on_c, 0, 68, 0
2, 1620, Note_on_c, 0, 73, 127
2, 1644, Note_on_c, 0, 73, 0
2, 1650, Note_on_c, 0, 71, 127
2, 1674, Note_on_c, 0, 71, 0
2, 1680, Note_on_c, 0, 74, 127
2, 1704, Note_on_c, 0, 74, 0
2, 1710, Note_on_c, 0, 73, 127
2, 1734, Note_on_c, 0, 73, 0
2, 1740, Note_on_c, 0, 71, 127
2, 1764, Note_on_c, 0, 71, 0
2, 1770, Note_on_c, 0, 69, 127
2, 1794, Note_on_c, 0, 69, 0
2, 1800, Note_on_c, 0, 78, 127
2, 1859, Note_on_c, 0, 68, 127
2, 1860, Note_on_c, 0, 78, 0
2, 1919, Note_on_c, 0, 68, 0
2, 1920, Note_on_c, 0, 69, 127
2, 2010, Note_on_c, 0, 69, 0
2, 2010, Note_on_c, 0, 71, 127
2, 2034, Note_on_c, 0, 71, 0
2, 2040, Note_on_c, 0, 71, 127
2, 2050, Control_c, 0, 7, 110
2, 2052, Note_on_c, 0, 71, 0
2, 2055, Note_on_c, 0, 73, 127
2, 2060, Control_c, 0, 7, 108
2, 2067, Note_on_c, 0, 73, 0
2, 2070, Control_c, 0, 7, 105
2, 2074, Note_on_c, 0, 71, 127
2, 2080, Control_c, 0, 7, 103
2, 2090, Control_c, 0, 7, 100
2, 2100, Control_c, 0, 7, 97
2, 2110, Control_c, 0, 7, 95
2, 2120, Control_c, 0, 7, 92
2, 2130, Note_on_c, 0, 69, 127
2, 2130, Control_c, 0, 7, 90
2, 2134, Note_on_c, 0, 71, 0
2, 2140, Control_c, 0, 7, 87
2, 2150, Control_c, 0, 7, 84
2, 2154, Note_on_c, 0, 69, 0
2, 2160, Note_on_c, 0, 69, 127
2, 2160, Control_c, 0, 7, 82
2, 2170, Control_c, 0, 7, 79
2, 2180, Control_c, 0, 7, 76
2, 2200, Control_c, 0, 7, 73
2, 2240, Control_c, 0, 7, 74
2, 2270, Control_c, 0, 7, 75
2, 2280, Note_on_c, 0, 69, 0
2, 2310, Control_c, 0, 7, 76
2, 2340, Control_c, 0, 7, 77
2, 2380, Control_c, 0, 7, 78
2, 2402, Note_on_c, 0, 76, 127
2, 2410, Control_c, 0, 7, 79
2, 2440, Control_c, 0, 7, 80
2, 2460, Note_on_c, 0, 81, 120
2, 2462, Note_on_c, 0, 76, 0
2, 2480, Control_c, 0, 7, 81
2, 2510, Control_c, 0, 7, 82
2, 2544, Note_on_c, 0, 81, 0
2, 2550, Note_on_c, 0, 71, 120
2, 2550, Control_c, 0, 7, 83
2, 2574, Note_on_c, 0, 71, 0
2, 2580, Note_on_c, 0, 73, 120
2, 2580, Control_c, 0, 7, 84
2, 2604, Note_on_c, 0, 73, 0
2, 2610, Note_on_c, 0, 75, 120
2, 2610, Control_c, 0, 7, 85
2, 2634, Note_on_c, 0, 75, 0
2, 2640, Note_on_c, 0, 76, 120
2, 2650, Control_c, 0, 7, 86
2, 2664, Note_on_c, 0, 76, 0
2, 2670, Note_on_c, 0, 78, 120
2, 2680, Control_c, 0, 7, 87
2, 2694, Note_on_c, 0, 78, 0
2, 2700, Note_on_c, 0, 79, 120
2, 2720, Control_c, 0, 7, 88
2, 2724, Note_on_c, 0, 79, 0
2, 2730, Note_on_c, 0, 78, 120
2, 2750, Control_c, 0, 7, 89
2, 2754, Note_on_c, 0, 78, 0
2, 2760, Note_on_c, 0, 81, 120
2, 2780, Control_c, 0, 7, 90
2, 2784, Note_on_c, 0, 81, 0
2, 2790, Note_on_c, 0, 79, 120
2, 2814, Note_on_c, 0, 79, 0
2, 2820, Note_on_c, 0, 78, 120
2, 2820, Control_c, 0, 7, 91
2, 2844, Note_on_c, 0, 78, 0
2, 2850, Note_on_c, 0, 76, 120
2, 2850, Control_c, 0, 7, 92
2, 2874, Note_on_c, 0, 76, 0
2, 2880, Note_on_c, 0, 83, 127
2, 2890, Control_c, 0, 7, 93
2, 2920, Control_c, 0, 7, 94
2, 2936, Note_on_c, 0, 71, 127
2, 2940, Note_on_c, 0, 83, 0
2, 2950, Control_c, 0, 7, 95
2, 2966, Note_on_c, 0, 71, 0
2, 2990, Control_c, 0, 7, 96
2, 3020, Control_c, 0, 7, 97
2, 3060, Control_c, 0, 7, 98
2, 3090, Control_c, 0, 7, 99
2, 3119, Note_on_c, 0, 66, 127
2, 3120, Control_c, 0, 7, 100
2, 3160, Control_c, 0, 7, 101
2, 3179, Note_on_c, 0, 66, 0
2, 3180, Note_on_c, 0, 71, 120
2, 3190, Control_c, 0, 7, 102
2, 3230, Control_c, 0, 7, 103
2, 3260, Control_c, 0, 7, 104
2, 3264, Note_on_c, 0, 71, 0
2, 3270, Note_on_c, 0, 70, 120
2, 3290, Control_c, 0, 7, 105
2, 3294, Note_on_c, 0, 70, 0
2, 3300, Note_on_c, 0, 71, 120
2, 3324, Note_on_c, 0, 71, 0
2, 3330, Note_on_c, 0, 73, 120
2, 3330, Control_c, 0, 7, 106
2, 3354, Note_on_c, 0, 73, 0
2, 3360, Note_on_c, 0, 74, 120
2, 3360, Control_c, 0, 7, 107
2, 3384, Note_on_c, 0, 74, 0
2, 3390, Note_on_c, 0, 76, 120
2, 3400, Control_c, 0, 7, 108
2, 3414, Note_on_c, 0, 76, 0
2, 3420, Note_on_c, 0, 78, 120
2, 3430, Control_c, 0, 7, 109
2, 3444, Note_on_c, 0, 78, 0
2, 3450, Note_on_c, 0, 76, 120
2, 3460, Control_c, 0, 7, 110
2, 3474, Note_on_c, 0, 76, 0
2, 3480, Note_on_c, 0, 79, 120
2, 3504, Note_on_c, 0, 79, 0
2, 3510, Note_on_c, 0, 78, 120
2, 3534, Note_on_c, 0, 78, 0
2, 3540, Note_on_c, 0, 76, 120
2, 3564, Note_on_c, 0, 76, 0
2, 3570, Note_on_c, 0, 74, 120
2, 3594, Note_on_c, 0, 74, 0
2, 3600, Note_on_c, 0, 76, 120
2, 3624, Note_on_c, 0, 76, 0
2, 3630, Note_on_c, 0, 74, 120
2, 3654, Note_on_c, 0, 74, 0
2, 3660, Note_on_c, 0, 78, 120
2, 3684, Note_on_c, 0, 78, 0
2, 3690, Note_on_c, 0, 76, 120
2, 3714, Note_on_c, 0, 76, 0
2, 3720, Note_on_c, 0, 74, 120
2, 3744, Note_on_c, 0, 74, 0
2, 3750, Note_on_c, 0, 73, 120
2, 3774, Note_on_c, 0, 73, 0
2, 3780, Note_on_c, 0, 74, 120
2, 3804, Note_on_c, 0, 74, 0
2, 3810, Note_on_c, 0, 73, 120
2, 3834, Note_on_c, 0, 73, 0
2, 3840, Note_on_c, 0, 76, 120
2, 3864, Note_on_c, 0, 76, 0
2, 3870, Note_on_c, 0, 74, 120
2, 3894, Note_on_c, 0, 74, 0
2, 3900, Note_on_c, 0, 73, 120
2, 3924, Note_on_c, 0, 73, 0
2, 3930, Note_on_c, 0, 71, 120
2, 3954, Note_on_c, 0, 71, 0
2, 3960, Note_on_c, 0, 73, 127
2, 3990, Note_on_c, 0, 73, 0
2, 4020, Note_on_c, 0, 70, 120
2, 4032, Note_on_c, 0, 70, 0
2, 4035, Note_on_c, 0, 67, 120
2, 4040, Control_c, 0, 7, 112
2, 4047, Note_on_c, 0, 67, 0
2, 4050, Note_on_c, 0, 70, 120
2, 4060, Control_c, 0, 7, 111
2, 4070, Control_c, 0, 7, 110
2, 4074, Note_on_c, 0, 70, 0
2, 4080, Note_on_c, 0, 71, 120
2, 4080, Control_c, 0, 7, 109
2, 4090, Control_c, 0, 7, 108
2, 4100, Control_c, 0, 7, 107
2, 4110, Control_c, 0, 7, 106
2, 4120, Control_c, 0, 7, 105
2, 4130, Control_c, 0, 7, 104
2, 4140, Control_c, 0, 7, 103
2, 4150, Control_c, 0, 7, 102
2, 4160, Control_c, 0, 7, 101
2, 4170, Note_on_c, 0, 71, 0
2, 4170, Note_on_c, 0, 73, 127
2, 4170, Control_c, 0, 7, 100
2, 4180, Control_c, 0, 7, 99
2, 4194, Note_on_c, 0, 73, 0
2, 4200, Note_on_c, 0, 73, 127
2, 4200, Control_c, 0, 7, 98
2, 4210, Control_c, 0, 7, 97
2, 4212, Note_on_c, 0, 73, 0
2, 4215, Note_on_c, 0, 74, 127
2, 4220, Control_c, 0, 7, 96
2, 4227, Note_on_c, 0, 74, 0
2, 4229, Note_on_c, 0, 71, 127
2, 4230, Control_c, 0, 7, 95
2, 4240, Control_c, 0, 7, 94
2, 4250, Control_c, 0, 7, 93
2, 4260, Control_c, 0, 7, 92
2, 4270, Control_c, 0, 7, 91
2, 4280, Control_c, 0, 7, 90
2, 4289, Note_on_c, 0, 71, 0
2, 4290, Note_on_c, 0, 71, 127
2, 4290, Control_c, 0, 7, 89
2, 4300, Control_c, 0, 7, 88
2, 4310, Control_c, 0, 7, 87
2, 4314, Note_on_c, 0, 71, 0
2, 4320, Note_on_c, 0, 71, 127
2, 4320, Control_c, 0, 7, 86
2, 4330, Control_c, 0, 7, 85
2, 4344, Note_on_c, 0, 71, 0
2, 4350, Note_on_c, 0, 66, 127
2, 4374, Note_on_c, 0, 66, 0
2, 4380, Note_on_c, 0, 68, 127
2, 4404, Note_on_c, 0, 68, 0
2, 4410, Note_on_c, 0, 70, 127
2, 4434, Note_on_c, 0, 70, 0
2, 4440, Note_on_c, 0, 71, 127
2, 4464, Note_on_c, 0, 71, 0
2, 4470, Note_on_c, 0, 73, 127
2, 4494, Note_on_c, 0, 73, 0
2, 4500, Note_on_c, 0, 74, 127
2, 4524, Note_on_c, 0, 74, 0
2, 4530, Note_on_c, 0, 73, 127
2, 4554, Note_on_c, 0, 73, 0
2, 4560, Note_on_c, 0, 76, 127
2, 4584, Note_on_c, 0, 76, 0
2, 4590, Note_on_c, 0, 74, 127
2, 4614, Note_on_c, 0, 74, 0
2, 4620, Note_on_c, 0, 73, 127
2, 4644, Note_on_c, 0, 73, 0
2, 4650, Note_on_c, 0, 71, 127
2, 4674, Note_on_c, 0, 71, 0
2, 4680, Note_on_c, 0, 81, 127
2, 4680, Control_c, 0, 7, 85
2, 4692, Note_on_c, 0, 81, 0
2, 4695, Note_on_c, 0, 79, 127
2, 4707, Note_on_c, 0, 79, 0
2, 4710, Note_on_c, 0, 81, 127
2, 4722, Note_on_c, 0, 81, 0
2, 4725, Note_on_c, 0, 79, 127
2, 4737, Note_on_c, 0, 79, 0
2, 4740, Note_on_c, 0, 81, 127
2, 4740, Control_c, 0, 7, 86
2, 4752, Note_on_c, 0, 81, 0
2, 4755, Note_on_c, 0, 79, 127
2, 4767, Note_on_c, 0, 79, 0
2, 4770, Note_on_c, 0, 81, 127
2, 4782, Note_on_c, 0, 81, 0
2, 4785, Note_on_c, 0, 79, 127
2, 4790, Control_c, 0, 7, 87
2, 4797, Note_on_c, 0, 79, 0
2, 4800, Note_on_c, 0, 81, 127
2, 4812, Note_on_c, 0, 81, 0
2, 4815, Note_on_c, 0, 79, 127
2, 4827, Note_on_c, 0, 79, 0
2, 4830, Note_on_c, 0, 81, 127
2, 4840, Control_c, 0, 7, 88
2, 4842, Note_on_c, 0, 81, 0
2, 4845, Note_on_c, 0, 79, 127
2, 4857, Note_on_c, 0, 79, 0
2, 4860, Note_on_c, 0, 81, 127
2, 4872, Note_on_c, 0, 81, 0
2, 4875, Note_on_c, 0, 79, 127
2, 4887, Note_on_c, 0, 79, 0
2, 4890, Note_on_c, 0, 81, 127
2, 4900, Control_c, 0, 7, 89
2, 4902, Note_on_c, 0, 81, 0
2, 4905, Note_on_c, 0, 79, 127
2, 4917, Note_on_c, 0, 79, 0
2, 4920, Note_on_c, 0, 81, 127
2, 4932, Note_on_c, 0, 81, 0
2, 4935, Note_on_c, 0, 79, 127
2, 4947, Note_on_c, 0, 79, 0
2, 4950, Note_on_c, 0, 81, 127
2, 4950, Control_c, 0, 7, 90
2, 4962, Note_on_c, 0, 81, 0
2, 4965, Note_on_c, 0, 79, 127
2, 4977, Note_on_c, 0, 79, 0
2, 4980, Note_on_c, 0, 81, 127
2, 4992, Note_on_c, 0, 81, 0
2, 4995, Note_on_c, 0, 79, 127
2, 5000, Control_c, 0, 7, 91
2, 5007, Note_on_c, 0, 79, 0
2, 5010, Note_on_c, 0, 81, 127
2, 5019, Note_on_c, 0, 81, 0
2, 5019, Note_on_c, 0, 79, 127
2, 5028, Note_on_c, 0, 79, 0
2, 5028, Note_on_c, 0, 78, 127
2, 5037, Note_on_c, 0, 78, 0
2, 5047, Note_on_c, 0, 79, 127
2, 5060, Control_c, 0, 7, 92
2, 5065, Note_on_c, 0, 79, 0
2, 5070, Note_on_c, 0, 64, 127
2, 5094, Note_on_c, 0, 64, 0
2, 5100, Note_on_c, 0, 66, 127
2, 5110, Control_c, 0, 7, 93
2, 5124, Note_on_c, 0, 66, 0
2, 5130, Note_on_c, 0, 68, 127
2, 5154, Note_on_c, 0, 68, 0
2, 5160, Note_on_c, 0, 69, 127
2, 5160, Control_c, 0, 7, 94
2, 5184, Note_on_c, 0, 69, 0
2, 5190, Note_on_c, 0, 71, 127
2, 5210, Control_c, 0, 7, 95
2, 5214, Note_on_c, 0, 71, 0
2, 5220, Note_on_c, 0, 73, 127
2, 5244, Note_on_c, 0, 73, 0
2, 5250, Note_on_c, 0, 71, 127
2, 5270, Control_c, 0, 7, 96
2, 5274, Note_on_c, 0, 71, 0
2, 5280, Note_on_c, 0, 74, 127
2, 5304, Note_on_c, 0, 74, 0
2, 5310, Note_on_c, 0, 73, 127
2, 5320, Control_c, 0, 7, 97
2, 5334, Note_on_c, 0, 73, 0
2, 5340, Note_on_c, 0, 71, 127
2, 5364, Note_on_c, 0, 71, 0
2, 5370, Note_on_c, 0, 69, 127
2, 5370, Control_c, 0, 7, 98
2, 5394, Note_on_c, 0, 69, 0
2, 5400, Note_on_c, 0, 79, 127
2, 5412, Note_on_c, 0, 79, 0
2, 5415, Note_on_c, 0, 78, 127
2, 5427, Note_on_c, 0, 78, 0
2, 5430, Note_on_c, 0, 79, 127
2, 5430, Control_c, 0, 7, 99
2, 5442, Note_on_c, 0, 79, 0
2, 5445, Note_on_c, 0, 78, 127
2, 5457, Note_on_c, 0, 78, 0
2, 5460, Note_on_c, 0, 79, 127
2, 5472, Note_on_c, 0, 79, 0
2, 5475, Note_on_c, 0, 78, 127
2, 5480, Control_c, 0, 7, 100
2, 5487, Note_on_c, 0, 78, 0
2, 5490, Note_on_c, 0, 79, 127
2, 5502, Note_on_c, 0, 79, 0
2, 5505, Note_on_c, 0, 78, 127
2, 5517, Note_on_c, 0, 78, 0
2, 5520, Note_on_c, 0, 79, 127
2, 5530, Control_c, 0, 7, 101
2, 5532, Note_on_c, 0, 79, 0
2, 5535, Note_on_c, 0, 78, 127
2, 5547, Note_on_c, 0, 78, 0
2, 5550, Note_on_c, 0, 79, 127
2, 5562, Note_on_c, 0, 79, 0
2, 5565, Note_on_c, 0, 78, 127
2, 5577, Note_on_c, 0, 78, 0
2, 5580, Note_on_c, 0, 79, 127
2, 5590, Control_c, 0, 7, 102
2, 5592, Note_on_c, 0, 79, 0
2, 5595, Note_on_c, 0, 78, 127
2, 5607, Note_on_c, 0, 78, 0
2, 5610, Note_on_c, 0, 79, 127
2, 5622, Note_on_c, 0, 79, 0
2, 5625, Note_on_c, 0, 78, 127
2, 5637, Note_on_c, 0, 78, 0
2, 5640, Note_on_c, 0, 79, 127
2, 5640, Control_c, 0, 7, 103
2, 5652, Note_on_c, 0, 79, 0
2, 5655, Note_on_c, 0, 78, 127
2, 5667, Note_on_c, 0, 78, 0
2, 5670, Note_on_c, 0, 79, 127
2, 5682, Note_on_c, 0, 79, 0
2, 5685, Note_on_c, 0, 78, 127
2, 5690, Control_c, 0, 7, 104
2, 5697, Note_on_c, 0, 78, 0
2, 5700, Note_on_c, 0, 79, 127
2, 5712, Note_on_c, 0, 79, 0
2, 5715, Note_on_c, 0, 78, 127
2, 5727, Note_on_c, 0, 78, 0
2, 5729, Note_on_c, 0, 79, 127
2, 5738, Note_on_c, 0, 79, 0
2, 5739, Note_on_c, 0, 78, 127
2, 5740, Control_c, 0, 7, 105
2, 5748, Note_on_c, 0, 78, 0
2, 5748, Note_on_c, 0, 76, 127
2, 5757, Note_on_c, 0, 76, 0
2, 5760, Note_on_c, 0, 78, 127
2, 5785, Note_on_c, 0, 78, 0
2, 5790, Note_on_c, 0, 71, 127
2, 5800, Control_c, 0, 7, 106
2, 5814, Note_on_c, 0, 71, 0
2, 5820, Note_on_c, 0, 76, 127
2, 5844, Note_on_c, 0, 76, 0
2, 5850, Note_on_c, 0, 74, 127
2, 5850, Control_c, 0, 7, 107
2, 5874, Note_on_c, 0, 74, 0
2, 5880, Note_on_c, 0, 73, 127
2, 5900, Control_c, 0, 7, 108
2, 5904, Note_on_c, 0, 73, 0
2, 5910, Note_on_c, 0, 71, 127
2, 5934, Note_on_c, 0, 71, 0
2, 5940, Note_on_c, 0, 73, 127
2, 5960, Control_c, 0, 7, 109
2, 5964, Note_on_c, 0, 73, 0
2, 5970, Note_on_c, 0, 71, 127
2, 5994, Note_on_c, 0, 71, 0
2, 6000, Note_on_c, 0, 74, 127
2, 6010, Control_c, 0, 7, 110
2, 6024, Note_on_c, 0, 74, 0
2, 6030, Note_on_c, 0, 73, 127
2, 6054, Note_on_c, 0, 73, 0
2, 6060, Note_on_c, 0, 71, 127
2, 6060, Control_c, 0, 7, 111
2, 6084, Note_on_c, 0, 71, 0
2, 6090, Note_on_c, 0, 69, 127
2, 6110, Control_c, 0, 7, 112
2, 6114, Note_on_c, 0, 69, 0
2, 6120, Note_on_c, 0, 68, 127
2, 6132, Note_on_c, 0, 68, 0
2, 6135, Note_on_c, 0, 69, 127
2, 6147, Note_on_c, 0, 69, 0
2, 6150, Note_on_c, 0, 68, 127
2, 6174, Note_on_c, 0, 68, 0
2, 6180, Note_on_c, 0, 64, 127
2, 6240, Note_on_c, 0, 64, 0
2, 6240, Note_on_c, 0, 69, 127
2, 6264, Note_on_c, 0, 69, 0
2, 6270, Note_on_c, 0, 71, 127
2, 6294, Note_on_c, 0, 71, 0
2, 6300, Note_on_c, 0, 73, 127
2, 6300, Control_c, 0, 7, 109
2, 6320, Control_c, 0, 7, 108
2, 6324, Note_on_c, 0, 73, 0
2, 6330, Note_on_c, 0, 71, 127
2, 6340, Control_c, 0, 7, 107
2, 6354, Note_on_c, 0, 71, 0
2, 6360, Note_on_c, 0, 74, 127
2, 6360, Control_c, 0, 7, 106
2, 6380, Control_c, 0, 7, 105
2, 6384, Note_on_c, 0, 74, 0
2, 6390, Note_on_c, 0, 73, 127
2, 6400, Control_c, 0, 7, 104
2, 6414, Note_on_c, 0, 73, 0
2, 6420, Note_on_c, 0, 71, 127
2, 6420, Control_c, 0, 7, 103
2, 6440, Control_c, 0, 7, 102
2, 6444, Note_on_c, 0, 71, 0
2, 6450, Note_on_c, 0, 69, 127
2, 6460, Control_c, 0, 7, 101
2, 6474, Note_on_c, 0, 69, 0
2, 6480, Note_on_c, 0, 78, 127
2, 6480, Control_c, 0, 7, 100
2, 6490, Control_c, 0, 7, 99
2, 6510, Control_c, 0, 7, 98
2, 6530, Control_c, 0, 7, 97
2, 6550, Control_c, 0, 7, 96
2, 6570, Note_on_c, 0, 78, 0
2, 6570, Note_on_c, 0, 68, 127
2, 6570, Control_c, 0, 7, 95
2, 6590, Control_c, 0, 7, 94
2, 6594, Note_on_c, 0, 68, 0
2, 6600, Note_on_c, 0, 69, 127
2, 6610, Control_c, 0, 7, 93
2, 6624, Note_on_c, 0, 69, 0
2, 6630, Note_on_c, 0, 68, 127
2, 6630, Control_c, 0, 7, 92
2, 6650, Control_c, 0, 7, 91
2, 6654, Note_on_c, 0, 68, 0
2, 6660, Note_on_c, 0, 69, 127
2, 6670, Control_c, 0, 7, 90
2, 6680, Control_c, 0, 7, 89
2, 6684, Note_on_c, 0, 69, 0
2, 6690, Note_on_c, 0, 74, 127
2, 6700, Control_c, 0, 7, 88
2, 6714, Note_on_c, 0, 74, 0
2, 6720, Note_on_c, 0, 71, 127
2, 6720, Control_c, 0, 7, 87
2, 6732, Note_on_c, 0, 71, 0
2, 6735, Note_on_c, 0, 73, 127
2, 6740, Control_c, 0, 7, 86
2, 6747, Note_on_c, 0, 73, 0
2, 6749, Note_on_c, 0, 71, 127
2, 6760, Control_c, 0, 7, 85
2, 6780, Control_c, 0, 7, 84
2, 6800, Control_c, 0, 7, 83
2, 6809, Note_on_c, 0, 71, 0
2, 6810, Note_on_c, 0, 69, 127
2, 6820, Control_c, 0, 7, 82
2, 6834, Note_on_c, 0, 69, 0
2, 6840, Note_on_c, 0, 69, 127
2, 6840, Control_c, 0, 7, 81
2, 6860, Control_c, 0, 7, 80
2, 6870, Control_c, 0, 7, 79
2, 6910, Control_c, 0, 7, 79
2, 6930, Note_on_c, 0, 69, 0
2, 6930, Note_on_c, 0, 73, 120
2, 6930, Control_c, 0, 7, 80
2, 6940, Control_c, 0, 7, 81
2, 6950, Control_c, 0, 7, 81
2, 6954, Note_on_c, 0, 73, 0
2, 6960, Note_on_c, 0, 74, 120
2, 6980, Control_c, 0, 7, 82
2, 6984, Note_on_c, 0, 74, 0
2, 6990, Note_on_c, 0, 76, 120
2, 7010, Control_c, 0, 7, 83
2, 7014, Note_on_c, 0, 76, 0
2, 7020, Note_on_c, 0, 66, 127
2, 7040, Control_c, 0, 7, 84
2, 7070, Control_c, 0, 7, 85
2, 7079, Note_on_c, 0, 67, 127
2, 7080, Note_on_c, 0, 66, 0
2, 7090, Control_c, 0, 7, 86
2, 7120, Control_c, 0, 7, 87
2, 7139, Note_on_c, 0, 67, 0
2, 7140, Note_on_c, 0, 71, 120
2, 7150, Control_c, 0, 7, 88
2, 7152, Note_on_c, 0, 71, 0
2, 7155, Note_on_c, 0, 69, 120
2, 7167, Note_on_c, 0, 69, 0
2, 7170, Note_on_c, 0, 67, 120
2, 7180, Control_c, 0, 7, 89
2, 7182, Note_on_c, 0, 67, 0
2, 7185, Note_on_c, 0, 69, 120
2, 7197, Note_on_c, 0, 69, 0
2, 7200, Note_on_c, 0, 71, 127
2, 7200, Control_c, 0, 7, 90
2, 7230, Control_c, 0, 7, 91
2, 7260, Note_on_c, 0, 71, 0
2, 7260, Note_on_c, 0, 74, 120
2, 7260, Control_c, 0, 7, 92
2, 7272, Note_on_c, 0, 74, 0
2, 7275, Note_on_c, 0, 73, 120
2, 7287, Note_on_c, 0, 73, 0
2, 7290, Note_on_c, 0, 71, 120
2, 7290, Control_c, 0, 7, 93
2, 7302, Note_on_c, 0, 71, 0
2, 7305, Note_on_c, 0, 73, 120
2, 7310, Control_c, 0, 7, 94
2, 7317, Note_on_c, 0, 73, 0
2, 7320, Note_on_c, 0, 74, 120
2, 7404, Note_on_c, 0, 74, 0
2, 7410, Note_on_c, 0, 73, 120
2, 7434, Note_on_c, 0, 73, 0
2, 7440, Note_on_c, 0, 76, 120
2, 7464, Note_on_c, 0, 76, 0
2, 7470, Note_on_c, 0, 74, 120
2, 7494, Note_on_c, 0, 74, 0
2, 7500, Note_on_c, 0, 73, 120
2, 7524, Note_on_c, 0, 73, 0
2, 7530, Note_on_c, 0, 74, 120
2, 7554, Note_on_c, 0, 74, 0
2, 7560, Note_on_c, 0, 76, 120
2, 7570, Control_c, 0, 7, 92
2, 7584, Note_on_c, 0, 76, 0
2, 7590, Note_on_c, 0, 74, 127
2, 7590, Control_c, 0, 7, 91
2, 7600, Control_c, 0, 7, 90
2, 7610, Control_c, 0, 7, 89
2, 7614, Note_on_c, 0, 74, 0
2, 7620, Note_on_c, 0, 73, 127
2, 7630, Control_c, 0, 7, 88
2, 7640, Control_c, 0, 7, 87
2, 7644, Note_on_c, 0, 73, 0
2, 7650, Note_on_c, 0, 71, 127
2, 7650, Control_c, 0, 7, 86
2, 7660, Control_c, 0, 7, 85
2, 7674, Note_on_c, 0, 71, 0
2, 7680, Note_on_c, 0, 69, 127
2, 7680, Control_c, 0, 7, 84
2, 7690, Control_c, 0, 7, 83
2, 7700, Control_c, 0, 7, 82
2, 7704, Note_on_c, 0, 69, 0
2, 7710, Note_on_c, 0, 67, 127
2, 7710, Control_c, 0, 7, 81
2, 7730, Control_c, 0, 7, 80
2, 7734, Note_on_c, 0, 67, 0
2, 7740, Note_on_c, 0, 66, 127
2, 7740, Control_c, 0, 7, 79
2, 7750, Control_c, 0, 7, 78
2, 7760, Control_c, 0, 7, 77
2, 7764, Note_on_c, 0, 66, 0
2, 7770, Note_on_c, 0, 64, 120
2, 7794, Note_on_c, 0, 64, 0
2, 7800, Note_on_c, 0, 67, 120
2, 7824, Note_on_c, 0, 67, 0
2, 7830, Note_on_c, 0, 66, 120
2, 7854, Note_on_c, 0, 66, 0
2, 7860, Note_on_c, 0, 64, 120
2, 7884, Note_on_c, 0, 64, 0
2, 7890, Note_on_c, 0, 62, 120
2, 7914, Note_on_c, 0, 62, 0
2, 7920, Note_on_c, 0, 69, 120
2, 7944, Note_on_c, 0, 69, 0
2, 7950, Note_on_c, 0, 67, 120
2, 7960, Control_c, 0, 7, 77
2, 7974, Note_on_c, 0, 67, 0
2, 7980, Note_on_c, 0, 66, 120
2, 7980, Control_c, 0, 7, 78
2, 8000, Control_c, 0, 7, 79
2, 8004, Note_on_c, 0, 66, 0
2, 8010, Note_on_c, 0, 64, 120
2, 8020, Control_c, 0, 7, 80
2, 8034, Note_on_c, 0, 64, 0
2, 8040, Note_on_c, 0, 66, 120
2, 8040, Control_c, 0, 7, 81
2, 8060, Control_c, 0, 7, 82
2, 8064, Note_on_c, 0, 66, 0
2, 8070, Note_on_c, 0, 62, 120
2, 8080, Control_c, 0, 7, 83
2, 8090, Control_c, 0, 7, 84
2, 8094, Note_on_c, 0, 62, 0
2, 8100, Note_on_c, 0, 69, 127
2, 8110, Control_c, 0, 7, 85
2, 8130, Control_c, 0, 7, 86
2, 8150, Control_c, 0, 7, 87
2, 8160, Note_on_c, 0, 69, 0
2, 8160, Note_on_c, 0, 71, 127
2, 8170, Control_c, 0, 7, 88
2, 8190, Control_c, 0, 7, 89
2, 8210, Control_c, 0, 7, 90
2, 8220, Note_on_c, 0, 71, 0
2, 8220, Note_on_c, 0, 73, 120
2, 8220, Control_c, 0, 7, 91
2, 8227, Note_on_c, 0, 73, 0
2, 8227, Note_on_c, 0, 71, 120
2, 8234, Note_on_c, 0, 71, 0
2, 8235, Note_on_c, 0, 73, 120
2, 8240, Control_c, 0, 7, 92
2, 8247, Note_on_c, 0, 73, 0
2, 8250, Note_on_c, 0, 74, 120
2, 8260, Control_c, 0, 7, 93
2, 8274, Note_on_c, 0, 74, 0
2, 8280, Note_on_c, 0, 73, 127
2, 8280, Control_c, 0, 7, 94
2, 8300, Control_c, 0, 7, 95
2, 8320, Control_c, 0, 7, 96
2, 8340, Note_on_c, 0, 73, 0
2, 8340, Note_on_c, 0, 71, 120
2, 8340, Control_c, 0, 7, 97
2, 8350, Control_c, 0, 7, 98
2, 8352, Note_on_c, 0, 71, 0
2, 8355, Note_on_c, 0, 69, 120
2, 8370, Control_c, 0, 7, 99
2, 8390, Control_c, 0, 7, 100
2, 8400, Note_on_c, 0, 69, 0
2, 8400, Note_on_c, 0, 74, 120
2, 8410, Control_c, 0, 7, 101
2, 8424, Note_on_c, 0, 74, 0
2, 8430, Control_c, 0, 7, 102
2, 8450, Control_c, 0, 7, 103
2, 8460, Note_on_c, 0, 74, 127
2, 8470, Control_c, 0, 7, 104
2, 8480, Control_c, 0, 7, 105
2, 8516, Note_on_c, 0, 62, 127
2, 8520, Note_on_c, 0, 74, 0
2, 8576, Note_on_c, 0, 62, 0
2, 8580, Note_on_c, 0, 74, 127
2, 8610, Note_on_c, 0, 74, 0
2, 8640, Note_on_c, 0, 74, 127
2, 8696, Note_on_c, 0, 62, 127
2, 8700, Note_on_c, 0, 74, 0
2, 8756, Note_on_c, 0, 62, 0
2, 8760, Note_on_c, 0, 74, 120
2, 8784, Note_on_c, 0, 74, 0
2, 8820, Note_on_c, 0, 74, 127
2, 8875, Note_on_c, 0, 62, 127
2, 8880, Note_on_c, 0, 74, 0
2, 8935, Note_on_c, 0, 62, 0
2, 8940, Note_on_c, 0, 74, 120
2, 8964, Note_on_c, 0, 74, 0
2, 9000, Note_on_c, 0, 74, 127
2, 9058, Note_on_c, 0, 62, 127
2, 9060, Note_on_c, 0, 74, 0
2, 9118, Note_on_c, 0, 62, 0
2, 9120, Note_on_c, 0, 74, 120
2, 9144, Note_on_c, 0, 74, 0
2, 9150, Note_on_c, 0, 76, 120
2, 9174, Note_on_c, 0, 76, 0
2, 9180, Note_on_c, 0, 78, 120
2, 9204, Note_on_c, 0, 78, 0
2, 9210, Note_on_c, 0, 76, 120
2, 9234, Note_on_c, 0, 76, 0
2, 9240, Note_on_c, 0, 79, 120
2, 9264, Note_on_c, 0, 79, 0
2, 9270, Note_on_c, 0, 78, 120
2, 9294, Note_on_c, 0, 78, 0
2, 9300, Note_on_c, 0, 76, 120
2, 9324, Note_on_c, 0, 76, 0
2, 9330, Note_on_c, 0, 74, 120
2, 9354, Note_on_c, 0, 74, 0
2, 9360, Note_on_c, 0, 83, 127
2, 9417, Note_on_c, 0, 73, 127
2, 9420, Note_on_c, 0, 83, 0
2, 9477, Note_on_c, 0, 73, 0
2, 9480, Note_on_c, 0, 74, 120
2, 9530, Control_c, 0, 7, 109
2, 9540, Control_c, 0, 7, 108
2, 9550, Control_c, 0, 7, 106
2, 9560, Control_c, 0, 7, 105
2, 9570, Note_on_c, 0, 74, 0
2, 9570, Note_on_c, 0, 76, 127
2, 9570, Control_c, 0, 7, 103
2, 9580, Control_c, 0, 7, 101
2, 9590, Control_c, 0, 7, 100
2, 9599, Note_on_c, 0, 76, 0
2, 9600, Note_on_c, 0, 76, 127
2, 9600, Control_c, 0, 7, 98
2, 9610, Control_c, 0, 7, 96
2, 9612, Note_on_c, 0, 76, 0
2, 9615, Note_on_c, 0, 78, 127
2, 9620, Control_c, 0, 7, 95
2, 9627, Note_on_c, 0, 78, 0
2, 9630, Note_on_c, 0, 76, 127
2, 9630, Control_c, 0, 7, 93
2, 9640, Control_c, 0, 7, 91
2, 9650, Control_c, 0, 7, 90
2, 9660, Control_c, 0, 7, 88
2, 9670, Control_c, 0, 7, 86
2, 9680, Control_c, 0, 7, 85
2, 9689, Note_on_c, 0, 76, 0
2, 9690, Note_on_c, 0, 74, 127
2, 9690, Control_c, 0, 7, 83
2, 9700, Control_c, 0, 7, 81
2, 9710, Control_c, 0, 7, 80
2, 9719, Note_on_c, 0, 74, 0
2, 9720, Note_on_c, 0, 74, 127
2, 9720, Control_c, 0, 7, 78
2, 9730, Control_c, 0, 7, 76
2, 9776, Note_on_c, 0, 62, 127
2, 9780, Note_on_c, 0, 74, 0
2, 9836, Note_on_c, 0, 62, 0
2, 9840, Note_on_c, 0, 67, 127
2, 9924, Note_on_c, 0, 67, 0
2, 9930, Note_on_c, 0, 57, 127
2, 9954, Note_on_c, 0, 57, 0
2, 9960, Note_on_c, 0, 59, 127
2, 9984, Note_on_c, 0, 59, 0
2, 9990, Note_on_c, 0, 61, 127
2, 10014, Note_on_c, 0, 61, 0
2, 10020, Note_on_c, 0, 62, 127
2, 10040, Control_c, 0, 7, 76
2, 10044, Note_on_c, 0, 62, 0
2, 10050, Note_on_c, 0, 64, 127
2, 10060, Control_c, 0, 7, 77
2, 10070, Control_c, 0, 7, 78
2, 10074, Note_on_c, 0, 64, 0
2, 10080, Note_on_c, 0, 66, 127
2, 10090, Control_c, 0, 7, 79
2, 10100, Control_c, 0, 7, 80
2, 10104, Note_on_c, 0, 66, 0
2, 10110, Note_on_c, 0, 64, 127
2, 10120, Control_c, 0, 7, 81
2, 10130, Control_c, 0, 7, 82
2, 10134, Note_on_c, 0, 64, 0
2, 10140, Note_on_c, 0, 67, 127
2, 10150, Control_c, 0, 7, 83
2, 10160, Control_c, 0, 7, 84
2, 10164, Note_on_c, 0, 67, 0
2, 10170, Note_on_c, 0, 66, 127
2, 10170, Control_c, 0, 7, 85
2, 10190, Control_c, 0, 7, 86
2, 10194, Note_on_c, 0, 66, 0
2, 10200, Note_on_c, 0, 64, 127
2, 10200, Control_c, 0, 7, 87
2, 10220, Control_c, 0, 7, 88
2, 10224, Note_on_c, 0, 64, 0
2, 10230, Note_on_c, 0, 62, 127
2, 10230, Control_c, 0, 7, 89
2, 10250, Control_c, 0, 7, 90
2, 10254, Note_on_c, 0, 62, 0
2, 10260, Note_on_c, 0, 71, 127
2, 10260, Control_c, 0, 7, 91
2, 10280, Control_c, 0, 7, 92
2, 10290, Control_c, 0, 7, 93
2, 10300, Control_c, 0, 7, 94
2, 10350, Note_on_c, 0, 71, 0
2, 10350, Note_on_c, 0, 61, 127
2, 10374, Note_on_c, 0, 61, 0
2, 10380, Note_on_c, 0, 62, 127
2, 10404, Note_on_c, 0, 62, 0
2, 10410, Note_on_c, 0, 61, 127
2, 10434, Note_on_c, 0, 61, 0
2, 10440, Note_on_c, 0, 62, 127
2, 10460, Control_c, 0, 7, 96
2, 10464, Note_on_c, 0, 62, 0
2, 10470, Note_on_c, 0, 67, 127
2, 10470, Control_c, 0, 7, 91
2, 10480, Control_c, 0, 7, 90
2, 10490, Control_c, 0, 7, 89
2, 10494, Note_on_c, 0, 67, 0
2, 10500, Note_on_c, 0, 64, 127
2, 10500, Control_c, 0, 7, 88
2, 10510, Control_c, 0, 7, 86
2, 10512, Note_on_c, 0, 64, 0
2, 10515, Note_on_c, 0, 66, 127
2, 10520, Control_c, 0, 7, 85
2, 10527, Note_on_c, 0, 66, 0
2, 10530, Note_on_c, 0, 64, 127
2, 10530, Control_c, 0, 7, 84
2, 10540, Control_c, 0, 7, 83
2, 10542, Note_on_c, 0, 64, 0
2, 10545, Note_on_c, 0, 66, 127
2, 10550, Control_c, 0, 7, 81
2, 10557, Note_on_c, 0, 66, 0
2, 10560, Note_on_c, 0, 64, 127
2, 10560, Control_c, 0, 7, 80
2, 10570, Control_c, 0, 7, 79
2, 10572, Note_on_c, 0, 64, 0
2, 10575, Note_on_c, 0, 66, 127
2, 10580, Control_c, 0, 7, 77
2, 10587, Note_on_c, 0, 66, 0
2, 10590, Note_on_c, 0, 62, 127
2, 10590, Control_c, 0, 7, 76
2, 10600, Control_c, 0, 7, 75
2, 10610, Control_c, 0, 7, 74
2, 10614, Note_on_c, 0, 62, 0
2, 10620, Note_on_c, 0, 62, 127
2, 10620, Control_c, 0, 7, 72
2, 10630, Control_c, 0, 7, 71
2, 10640, Control_c, 0, 7, 70
2, 10650, Control_c, 0, 7, 68
2, 10660, Control_c, 0, 7, 67
2, 10670, Control_c, 0, 7, 66
2, 10680, Control_c, 0, 7, 65
2, 10690, Control_c, 0, 7, 63
2, 10700, Control_c, 0, 7, 62
2, 10710, Control_c, 0, 7, 61
2, 10720, Control_c, 0, 7, 60
2, 10730, Control_c, 0, 7, 58
2, 10740, Control_c, 0, 7, 57
2, 10750, Control_c, 0, 7, 56
2, 10760, Control_c, 0, 7, 54
2, 10770, Control_c, 0, 7, 53
2, 10780, Control_c, 0, 7, 52
2, 10790, Control_c, 0, 7, 51
2, 10800, Note_on_c, 0, 62, 0
2, 10800, Control_c, 0, 7, 49
2, 10810, Control_c, 0, 7, 48
2, 10820, Control_c, 0, 7, 47
2, 10830, Control_c, 0, 7, 45
2, 10830, End_track
3, 0, Start_track
3, 0, MIDI_port, 0
3, 0, Title_t, "Track 3"
3, 0, Program_c, 1, 0
3, 0, Control_c, 1, 7, 95
3, 0, Control_c, 1, 10, 64
3, 0, Control_c, 1, 7, 96
3, 0, Control_c, 1, 93, 100
3, 120, Note_on_c, 1, 50, 127
3, 144, Note_on_c, 1, 50, 0
3, 150, Note_on_c, 1, 49, 127
3, 174, Note_on_c, 1, 49, 0
3, 180, Note_on_c, 1, 50, 127
3, 204, Note_on_c, 1, 50, 0
3, 210, Note_on_c, 1, 55, 127
3, 234, Note_on_c, 1, 55, 0
3, 240, Note_on_c, 1, 59, 127
3, 264, Note_on_c, 1, 59, 0
3, 270, Note_on_c, 1, 57, 127
3, 294, Note_on_c, 1, 57, 0
3, 300, Note_on_c, 1, 55, 127
3, 324, Note_on_c, 1, 55, 0
3, 330, Note_on_c, 1, 54, 127
3, 354, Note_on_c, 1, 54, 0
3, 360, Note_on_c, 1, 54, 127
3, 384, Note_on_c, 1, 54, 0
3, 390, Note_on_c, 1, 59, 127
3, 414, Note_on_c, 1, 59, 0
3, 420, Note_on_c, 1, 57, 127
3, 444, Note_on_c, 1, 57, 0
3, 450, Note_on_c, 1, 55, 127
3, 474, Note_on_c, 1, 55, 0
3, 479, Note_on_c, 1, 57, 127
3, 539, Note_on_c, 1, 57, 0
3, 540, Note_on_c, 1, 62, 127
3, 630, Note_on_c, 1, 62, 0
3, 630, Note_on_c, 1, 69, 127
3, 654, Note_on_c, 1, 69, 0
3, 660, Note_on_c, 1, 67, 127
3, 684, Note_on_c, 1, 67, 0
3, 690, Note_on_c, 1, 66, 127
3, 714, Note_on_c, 1, 66, 0
3, 720, Note_on_c, 1, 64, 127
3, 810, Note_on_c, 1, 64, 0
3, 810, Note_on_c, 1, 61, 127
3, 834, Note_on_c, 1, 61, 0
3, 840, Note_on_c, 1, 57, 127
3, 864, Note_on_c, 1, 57, 0
3, 870, Note_on_c, 1, 66, 127
3, 894, Note_on_c, 1, 66, 0
3, 900, Note_on_c, 1, 61, 127
3, 924, Note_on_c, 1, 61, 0
3, 930, Note_on_c, 1, 64, 127
3, 954, Note_on_c, 1, 64, 0
3, 960, Note_on_c, 1, 62, 127
3, 984, Note_on_c, 1, 62, 0
3, 990, Note_on_c, 1, 66, 127
3, 1014, Note_on_c, 1, 66, 0
3, 1020, Note_on_c, 1, 64, 127
3, 1044, Note_on_c, 1, 64, 0
3, 1050, Note_on_c, 1, 62, 127
3, 1074, Note_on_c, 1, 62, 0
3, 1080, Note_on_c, 1, 61, 127
3, 1104, Note_on_c, 1, 61, 0
3, 1110, Note_on_c, 1, 64, 127
3, 1134, Note_on_c, 1, 64, 0
3, 1140, Note_on_c, 1, 66, 127
3, 1164, Note_on_c, 1, 66, 0
3, 1170, Note_on_c, 1, 62, 127
3, 1194, Note_on_c, 1, 62, 0
3, 1200, Note_on_c, 1, 61, 127
3, 1224, Note_on_c, 1, 61, 0
3, 1230, Note_on_c, 1, 59, 127
3, 1254, Note_on_c, 1, 59, 0
3, 1260, Note_on_c, 1, 61, 127
3, 1284, Note_on_c, 1, 61, 0
3, 1290, Note_on_c, 1, 64, 127
3, 1314, Note_on_c, 1, 64, 0
3, 1320, Note_on_c, 1, 62, 127
3, 1344, Note_on_c, 1, 62, 0
3, 1350, Note_on_c, 1, 66, 127
3, 1374, Note_on_c, 1, 66, 0
3, 1380, Note_on_c, 1, 64, 127
3, 1404, Note_on_c, 1, 64, 0
3, 1410, Note_on_c, 1, 62, 127
3, 1434, Note_on_c, 1, 62, 0
3, 1440, Note_on_c, 1, 61, 127
3, 1464, Note_on_c, 1, 61, 0
3, 1470, Note_on_c, 1, 64, 127
3, 1494, Note_on_c, 1, 64, 0
3, 1500, Note_on_c, 1, 66, 127
3, 1524, Note_on_c, 1, 66, 0
3, 1530, Note_on_c, 1, 62, 127
3, 1554, Note_on_c, 1, 62, 0
3, 1560, Note_on_c, 1, 61, 127
3, 1584, Note_on_c, 1, 61, 0
3, 1590, Note_on_c, 1, 59, 127
3, 1614, Note_on_c, 1, 59, 0
3, 1620, Note_on_c, 1, 57, 127
3, 1644, Note_on_c, 1, 57, 0
3, 1650, Note_on_c, 1, 68, 127
3, 1674, Note_on_c, 1, 68, 0
3, 1680, Note_on_c, 1, 66, 127
3, 1704, Note_on_c, 1, 66, 0
3, 1710, Note_on_c, 1, 64, 127
3, 1734, Note_on_c, 1, 64, 0
3, 1740, Note_on_c, 1, 62, 127
3, 1764, Note_on_c, 1, 62, 0
3, 1770, Note_on_c, 1, 61, 127
3, 1794, Note_on_c, 1, 61, 0
3, 1800, Note_on_c, 1, 59, 127
3, 1824, Note_on_c, 1, 59, 0
3, 1830, Note_on_c, 1, 57, 127
3, 1854, Note_on_c, 1, 57, 0
3, 1860, Note_on_c, 1, 61, 127
3, 1884, Note_on_c, 1, 61, 0
3, 1890, Note_on_c, 1, 59, 127
3, 1914, Note_on_c, 1, 59, 0
3, 1920, Note_on_c, 1, 57, 127
3, 1944, Note_on_c, 1, 57, 0
3, 1950, Note_on_c, 1, 62, 127
3, 1974, Note_on_c, 1, 62, 0
3, 1980, Note_on_c, 1, 64, 127
3, 2004, Note_on_c, 1, 64, 0
3, 2010, Note_on_c, 1, 66, 127
3, 2034, Note_on_c, 1, 66, 0
3, 2040, Note_on_c, 1, 68, 127
3, 2064, Note_on_c, 1, 68, 0
3, 2070, Note_on_c, 1, 66, 127
3, 2094, Note_on_c, 1, 66, 0
3, 2100, Note_on_c, 1, 68, 127
3, 2124, Note_on_c, 1, 68, 0
3, 2130, Note_on_c, 1, 62, 127
3, 2154, Note_on_c, 1, 62, 0
3, 2160, Note_on_c, 1, 61, 127
3, 2250, Note_on_c, 1, 61, 0
3, 2250, Note_on_c, 1, 59, 127
3, 2274, Note_on_c, 1, 59, 0
3, 2280, Note_on_c, 1, 61, 127
3, 2304, Note_on_c, 1, 61, 0
3, 2310, Note_on_c, 1, 62, 127
3, 2334, Note_on_c, 1, 62, 0
3, 2340, Note_on_c, 1, 64, 127
3, 2364, Note_on_c, 1, 64, 0
3, 2370, Note_on_c, 1, 68, 127
3, 2394, Note_on_c, 1, 68, 0
3, 2400, Note_on_c, 1, 71, 127
3, 2424, Note_on_c, 1, 71, 0
3, 2430, Note_on_c, 1, 76, 127
3, 2454, Note_on_c, 1, 76, 0
3, 2460, Note_on_c, 1, 74, 127
3, 2484, Note_on_c, 1, 74, 0
3, 2490, Note_on_c, 1, 73, 127
3, 2514, Note_on_c, 1, 73, 0
3, 2520, Note_on_c, 1, 71, 127
3, 2580, Note_on_c, 1, 71, 0
3, 2580, Note_on_c, 1, 69, 127
3, 2604, Note_on_c, 1, 69, 0
3, 2610, Note_on_c, 1, 66, 127
3, 2634, Note_on_c, 1, 66, 0
3, 2640, Note_on_c, 1, 67, 127
3, 2664, Note_on_c, 1, 67, 0
3, 2670, Note_on_c, 1, 69, 127
3, 2694, Note_on_c, 1, 69, 0
3, 2700, Note_on_c, 1, 71, 127
3, 2724, Note_on_c, 1, 71, 0
3, 2730, Note_on_c, 1, 69, 127
3, 2754, Note_on_c, 1, 69, 0
3, 2760, Note_on_c, 1, 72, 127
3, 2784, Note_on_c, 1, 72, 0
3, 2790, Note_on_c, 1, 71, 127
3, 2814, Note_on_c, 1, 71, 0
3, 2820, Note_on_c, 1, 69, 127
3, 2844, Note_on_c, 1, 69, 0
3, 2850, Note_on_c, 1, 67, 127
3, 2874, Note_on_c, 1, 67, 0
3, 2880, Note_on_c, 1, 66, 127
3, 2904, Note_on_c, 1, 66, 0
3, 2910, Note_on_c, 1, 62, 127
3, 2934, Note_on_c, 1, 62, 0
3, 2940, Note_on_c, 1, 64, 127
3, 2964, Note_on_c, 1, 64, 0
3, 2970, Note_on_c, 1, 66, 127
3, 2994, Note_on_c, 1, 66, 0
3, 3000, Note_on_c, 1, 68, 127
3, 3024, Note_on_c, 1, 68, 0
3, 3030, Note_on_c, 1, 70, 127
3, 3054, Note_on_c, 1, 70, 0
3, 3060, Note_on_c, 1, 71, 127
3, 3084, Note_on_c, 1, 71, 0
3, 3090, Note_on_c, 1, 70, 127
3, 3114, Note_on_c, 1, 70, 0
3, 3120, Note_on_c, 1, 73, 127
3, 3144, Note_on_c, 1, 73, 0
3, 3150, Note_on_c, 1, 71, 127
3, 3174, Note_on_c, 1, 71, 0
3, 3180, Note_on_c, 1, 69, 127
3, 3204, Note_on_c, 1, 69, 0
3, 3210, Note_on_c, 1, 67, 127
3, 3264, Note_on_c, 1, 67, 0
3, 3270, Note_on_c, 1, 66, 127
3, 3294, Note_on_c, 1, 66, 0
3, 3300, Note_on_c, 1, 67, 127
3, 3324, Note_on_c, 1, 67, 0
3, 3330, Note_on_c, 1, 64, 127
3, 3354, Note_on_c, 1, 64, 0
3, 3360, Note_on_c, 1, 62, 127
3, 3384, Note_on_c, 1, 62, 0
3, 3390, Note_on_c, 1, 61, 127
3, 3414, Note_on_c, 1, 61, 0
3, 3420, Note_on_c, 1, 59, 127
3, 3444, Note_on_c, 1, 59, 0
3, 3450, Note_on_c, 1, 61, 127
3, 3474, Note_on_c, 1, 61, 0
3, 3480, Note_on_c, 1, 62, 127
3, 3504, Note_on_c, 1, 62, 0
3, 3510, Note_on_c, 1, 61, 127
3, 3534, Note_on_c, 1, 61, 0
3, 3540, Note_on_c, 1, 67, 127
3, 3564, Note_on_c, 1, 67, 0
3, 3570, Note_on_c, 1, 66, 127
3, 3594, Note_on_c, 1, 66, 0
3, 3600, Note_on_c, 1, 58, 127
3, 3624, Note_on_c, 1, 58, 0
3, 3630, Note_on_c, 1, 59, 127
3, 3654, Note_on_c, 1, 59, 0
3, 3660, Note_on_c, 1, 61, 127
3, 3684, Note_on_c, 1, 61, 0
3, 3690, Note_on_c, 1, 59, 127
3, 3714, Note_on_c, 1, 59, 0
3, 3720, Note_on_c, 1, 66, 127
3, 3744, Note_on_c, 1, 66, 0
3, 3750, Note_on_c, 1, 64, 127
3, 3774, Note_on_c, 1, 64, 0
3, 3780, Note_on_c, 1, 62, 127
3, 3840, Note_on_c, 1, 62, 0
3, 3840, Note_on_c, 1, 59, 127
3, 3864, Note_on_c, 1, 59, 0
3, 3870, Note_on_c, 1, 57, 127
3, 3894, Note_on_c, 1, 57, 0
3, 3900, Note_on_c, 1, 67, 127
3, 3924, Note_on_c, 1, 67, 0
3, 3930, Note_on_c, 1, 66, 127
3, 3954, Note_on_c, 1, 66, 0
3, 3960, Note_on_c, 1, 67, 127
3, 3984, Note_on_c, 1, 67, 0
3, 3990, Note_on_c, 1, 66, 127
3, 4014, Note_on_c, 1, 66, 0
3, 4020, Note_on_c, 1, 62, 127
3, 4044, Note_on_c, 1, 62, 0
3, 4050, Note_on_c, 1, 61, 127
3, 4074, Note_on_c, 1, 61, 0
3, 4080, Note_on_c, 1, 59, 127
3, 4104, Note_on_c, 1, 59, 0
3, 4110, Note_on_c, 1, 64, 127
3, 4134, Note_on_c, 1, 64, 0
3, 4140, Note_on_c, 1, 66, 127
3, 4164, Note_on_c, 1, 66, 0
3, 4170, Note_on_c, 1, 67, 127
3, 4194, Note_on_c, 1, 67, 0
3, 4200, Note_on_c, 1, 64, 127
3, 4224, Note_on_c, 1, 64, 0
3, 4230, Note_on_c, 1, 66, 127
3, 4254, Note_on_c, 1, 66, 0
3, 4260, Note_on_c, 1, 62, 127
3, 4284, Note_on_c, 1, 62, 0
3, 4290, Note_on_c, 1, 64, 127
3, 4314, Note_on_c, 1, 64, 0
3, 4320, Note_on_c, 1, 62, 127
3, 4410, Note_on_c, 1, 62, 0
3, 4410, Note_on_c, 1, 67, 127
3, 4434, Note_on_c, 1, 67, 0
3, 4440, Note_on_c, 1, 66, 127
3, 4464, Note_on_c, 1, 66, 0
3, 4470, Note_on_c, 1, 64, 127
3, 4494, Note_on_c, 1, 64, 0
3, 4500, Note_on_c, 1, 66, 127
3, 4524, Note_on_c, 1, 66, 0
3, 4530, Note_on_c, 1, 64, 127
3, 4554, Note_on_c, 1, 64, 0
3, 4560, Note_on_c, 1, 67, 127
3, 4584, Note_on_c, 1, 67, 0
3, 4590, Note_on_c, 1, 66, 127
3, 4614, Note_on_c, 1, 66, 0
3, 4620, Note_on_c, 1, 64, 127
3, 4644, Note_on_c, 1, 64, 0
3, 4650, Note_on_c, 1, 62, 127
3, 4674, Note_on_c, 1, 62, 0
3, 4680, Note_on_c, 1, 64, 127
3, 4704, Note_on_c, 1, 64, 0
3, 4710, Note_on_c, 1, 63, 127
3, 4734, Note_on_c, 1, 63, 0
3, 4740, Note_on_c, 1, 64, 127
3, 4764, Note_on_c, 1, 64, 0
3, 4770, Note_on_c, 1, 66, 127
3, 4794, Note_on_c, 1, 66, 0
3, 4800, Note_on_c, 1, 67, 127
3, 4824, Note_on_c, 1, 67, 0
3, 4830, Note_on_c, 1, 69, 127
3, 4854, Note_on_c, 1, 69, 0
3, 4860, Note_on_c, 1, 71, 127
3, 4884, Note_on_c, 1, 71, 0
3, 4890, Note_on_c, 1, 69, 127
3, 4914, Note_on_c, 1, 69, 0
3, 4920, Note_on_c, 1, 73, 127
3, 4944, Note_on_c, 1, 73, 0
3, 4950, Note_on_c, 1, 71, 127
3, 4974, Note_on_c, 1, 71, 0
3, 4980, Note_on_c, 1, 69, 127
3, 5004, Note_on_c, 1, 69, 0
3, 5010, Note_on_c, 1, 67, 127
3, 5034, Note_on_c, 1, 67, 0
3, 5040, Note_on_c, 1, 73, 127
3, 5064, Note_on_c, 1, 73, 0
3, 5070, Note_on_c, 1, 61, 127
3, 5094, Note_on_c, 1, 61, 0
3, 5100, Note_on_c, 1, 62, 127
3, 5124, Note_on_c, 1, 62, 0
3, 5130, Note_on_c, 1, 64, 127
3, 5154, Note_on_c, 1, 64, 0
3, 5160, Note_on_c, 1, 66, 127
3, 5184, Note_on_c, 1, 66, 0
3, 5190, Note_on_c, 1, 68, 127
3, 5214, Note_on_c, 1, 68, 0
3, 5220, Note_on_c, 1, 69, 127
3, 5244, Note_on_c, 1, 69, 0
3, 5250, Note_on_c, 1, 68, 127
3, 5274, Note_on_c, 1, 68, 0
3, 5280, Note_on_c, 1, 66, 127
3, 5304, Note_on_c, 1, 66, 0
3, 5310, Note_on_c, 1, 64, 127
3, 5334, Note_on_c, 1, 64, 0
3, 5340, Note_on_c, 1, 62, 127
3, 5364, Note_on_c, 1, 62, 0
3, 5370, Note_on_c, 1, 61, 127
3, 5394, Note_on_c, 1, 61, 0
3, 5400, Note_on_c, 1, 62, 127
3, 5424, Note_on_c, 1, 62, 0
3, 5430, Note_on_c, 1, 61, 127
3, 5454, Note_on_c, 1, 61, 0
3, 5460, Note_on_c, 1, 62, 127
3, 5484, Note_on_c, 1, 62, 0
3, 5490, Note_on_c, 1, 64, 127
3, 5514, Note_on_c, 1, 64, 0
3, 5520, Note_on_c, 1, 66, 127
3, 5544, Note_on_c, 1, 66, 0
3, 5550, Note_on_c, 1, 67, 127
3, 5574, Note_on_c, 1, 67, 0
3, 5580, Note_on_c, 1, 69, 127
3, 5604, Note_on_c, 1, 69, 0
3, 5610, Note_on_c, 1, 67, 127
3, 5634, Note_on_c, 1, 67, 0
3, 5640, Note_on_c, 1, 71, 127
3, 5664, Note_on_c, 1, 71, 0
3, 5670, Note_on_c, 1, 69, 127
3, 5694, Note_on_c, 1, 69, 0
3, 5700, Note_on_c, 1, 67, 127
3, 5724, Note_on_c, 1, 67, 0
3, 5730, Note_on_c, 1, 66, 127
3, 5754, Note_on_c, 1, 66, 0
3, 5760, Note_on_c, 1, 71, 127
3, 5820, Note_on_c, 1, 71, 0
3, 5820, Note_on_c, 1, 73, 127
3, 5844, Note_on_c, 1, 73, 0
3, 5850, Note_on_c, 1, 71, 127
3, 5874, Note_on_c, 1, 71, 0
3, 5880, Note_on_c, 1, 69, 127
3, 5904, Note_on_c, 1, 69, 0
3, 5904, Note_on_c, 1, 64, 127
3, 5994, Note_on_c, 1, 64, 0
3, 5999, Note_on_c, 1, 62, 127
3, 6059, Note_on_c, 1, 62, 0
3, 6063, Note_on_c, 1, 66, 127
3, 6180, Note_on_c, 1, 56, 127
3, 6183, Note_on_c, 1, 66, 0
3, 6240, Note_on_c, 1, 56, 0
3, 6240, Note_on_c, 1, 64, 127
3, 6252, Note_on_c, 1, 64, 0
3, 6255, Note_on_c, 1, 66, 127
3, 6267, Note_on_c, 1, 66, 0
3, 6268, Note_on_c, 1, 64, 127
3, 6356, Note_on_c, 1, 57, 127
3, 6358, Note_on_c, 1, 64, 0
3, 6416, Note_on_c, 1, 57, 0
3, 6416, Note_on_c, 1, 64, 127
3, 6476, Note_on_c, 1, 64, 0
3, 6480, Note_on_c, 1, 66, 127
3, 6504, Note_on_c, 1, 66, 0
3, 6510, Note_on_c, 1, 69, 127
3, 6534, Note_on_c, 1, 69, 0
3, 6540, Note_on_c, 1, 68, 127
3, 6564, Note_on_c, 1, 68, 0
3, 6570, Note_on_c, 1, 66, 127
3, 6594, Note_on_c, 1, 66, 0
3, 6600, Note_on_c, 1, 64, 127
3, 6624, Note_on_c, 1, 64, 0
3, 6630, Note_on_c, 1, 62, 127
3, 6654, Note_on_c, 1, 62, 0
3, 6660, Note_on_c, 1, 66, 127
3, 6750, Note_on_c, 1, 66, 0
3, 6750, Note_on_c, 1, 69, 127
3, 6774, Note_on_c, 1, 69, 0
3, 6780, Note_on_c, 1, 68, 127
3, 6804, Note_on_c, 1, 68, 0
3, 6810, Note_on_c, 1, 62, 127
3, 6864, Note_on_c, 1, 62, 0
3, 6870, Note_on_c, 1, 57, 127
3, 6894, Note_on_c, 1, 57, 0
3, 6900, Note_on_c, 1, 59, 127
3, 6924, Note_on_c, 1, 59, 0
3, 6930, Note_on_c, 1, 67, 127
3, 6954, Note_on_c, 1, 67, 0
3, 6960, Note_on_c, 1, 66, 127
3, 6984, Note_on_c, 1, 66, 0
3, 6990, Note_on_c, 1, 59, 127
3, 7014, Note_on_c, 1, 59, 0
3, 7020, Note_on_c, 1, 61, 127
3, 7044, Note_on_c, 1, 61, 0
3, 7050, Note_on_c, 1, 59, 127
3, 7074, Note_on_c, 1, 59, 0
3, 7080, Note_on_c, 1, 62, 127
3, 7104, Note_on_c, 1, 62, 0
3, 7110, Note_on_c, 1, 61, 127
3, 7134, Note_on_c, 1, 61, 0
3, 7140, Note_on_c, 1, 64, 127
3, 7164, Note_on_c, 1, 64, 0
3, 7165, Note_on_c, 1, 62, 127
3, 7255, Note_on_c, 1, 62, 0
3, 7260, Note_on_c, 1, 61, 127
3, 7284, Note_on_c, 1, 61, 0
3, 7290, Note_on_c, 1, 64, 127
3, 7314, Note_on_c, 1, 64, 0
3, 7320, Note_on_c, 1, 66, 127
3, 7344, Note_on_c, 1, 66, 0
3, 7350, Note_on_c, 1, 67, 127
3, 7374, Note_on_c, 1, 67, 0
3, 7380, Note_on_c, 1, 69, 127
3, 7440, Note_on_c, 1, 69, 0
3, 7440, Note_on_c, 1, 71, 127
3, 7464, Note_on_c, 1, 71, 0
3, 7470, Note_on_c, 1, 69, 127
3, 7494, Note_on_c, 1, 69, 0
3, 7500, Note_on_c, 1, 67, 127
3, 7524, Note_on_c, 1, 67, 0
3, 7530, Note_on_c, 1, 66, 127
3, 7554, Note_on_c, 1, 66, 0
3, 7560, Note_on_c, 1, 61, 127
3, 7584, Note_on_c, 1, 61, 0
3, 7590, Note_on_c, 1, 71, 127
3, 7614, Note_on_c, 1, 71, 0
3, 7620, Note_on_c, 1, 69, 127
3, 7644, Note_on_c, 1, 69, 0
3, 7650, Note_on_c, 1, 67, 127
3, 7674, Note_on_c, 1, 67, 0
3, 7680, Note_on_c, 1, 66, 127
3, 7704, Note_on_c, 1, 66, 0
3, 7710, Note_on_c, 1, 64, 127
3, 7734, Note_on_c, 1, 64, 0
3, 7740, Note_on_c, 1, 62, 127
3, 7764, Note_on_c, 1, 62, 0
3, 7770, Note_on_c, 1, 61, 127
3, 7794, Note_on_c, 1, 61, 0
3, 7800, Note_on_c, 1, 59, 127
3, 7824, Note_on_c, 1, 59, 0
3, 7830, Note_on_c, 1, 57, 127
3, 7854, Note_on_c, 1, 57, 0
3, 7860, Note_on_c, 1, 55, 127
3, 7884, Note_on_c, 1, 55, 0
3, 7890, Note_on_c, 1, 54, 127
3, 7944, Note_on_c, 1, 54, 0
3, 7950, Note_on_c, 1, 52, 127
3, 7974, Note_on_c, 1, 52, 0
3, 7975, Note_on_c, 1, 50, 127
3, 8035, Note_on_c, 1, 50, 0
3, 8100, Note_on_c, 1, 62, 127
3, 8123, Note_on_c, 1, 61, 127
3, 8124, Note_on_c, 1, 62, 0
3, 8183, Note_on_c, 1, 61, 0
3, 8190, Note_on_c, 1, 62, 127
3, 8214, Note_on_c, 1, 62, 0
3, 8220, Note_on_c, 1, 64, 127
3, 8244, Note_on_c, 1, 64, 0
3, 8250, Note_on_c, 1, 66, 127
3, 8274, Note_on_c, 1, 66, 0
3, 8280, Note_on_c, 1, 64, 127
3, 8370, Note_on_c, 1, 64, 0
3, 8370, Note_on_c, 1, 61, 127
3, 8394, Note_on_c, 1, 61, 0
3, 8400, Note_on_c, 1, 62, 127
3, 8424, Note_on_c, 1, 62, 0
3, 8430, Note_on_c, 1, 59, 127
3, 8454, Note_on_c, 1, 59, 0
3, 8460, Note_on_c, 1, 66, 127
3, 8484, Note_on_c, 1, 66, 0
3, 8490, Note_on_c, 1, 62, 127
3, 8514, Note_on_c, 1, 62, 0
3, 8520, Note_on_c, 1, 67, 127
3, 8544, Note_on_c, 1, 67, 0
3, 8550, Note_on_c, 1, 64, 127
3, 8574, Note_on_c, 1, 64, 0
3, 8580, Note_on_c, 1, 69, 127
3, 8604, Note_on_c, 1, 69, 0
3, 8610, Note_on_c, 1, 67, 127
3, 8634, Note_on_c, 1, 67, 0
3, 8640, Note_on_c, 1, 66, 127
3, 8664, Note_on_c, 1, 66, 0
3, 8670, Note_on_c, 1, 62, 127
3, 8694, Note_on_c, 1, 62, 0
3, 8700, Note_on_c, 1, 71, 127
3, 8724, Note_on_c, 1, 71, 0
3, 8730, Note_on_c, 1, 67, 127
3, 8754, Note_on_c, 1, 67, 0
3, 8760, Note_on_c, 1, 66, 127
3, 8784, Note_on_c, 1, 66, 0
3, 8790, Note_on_c, 1, 64, 127
3, 8814, Note_on_c, 1, 64, 0
3, 8820, Note_on_c, 1, 66, 127
3, 8844, Note_on_c, 1, 66, 0
3, 8850, Note_on_c, 1, 62, 127
3, 8874, Note_on_c, 1, 62, 0
3, 8880, Note_on_c, 1, 67, 127
3, 8904, Note_on_c, 1, 67, 0
3, 8910, Note_on_c, 1, 64, 127
3, 8934, Note_on_c, 1, 64, 0
3, 8940, Note_on_c, 1, 69, 127
3, 8964, Note_on_c, 1, 69, 0
3, 8970, Note_on_c, 1, 67, 127
3, 8994, Note_on_c, 1, 67, 0
3, 9000, Note_on_c, 1, 66, 127
3, 9024, Note_on_c, 1, 66, 0
3, 9030, Note_on_c, 1, 62, 127
3, 9054, Note_on_c, 1, 62, 0
3, 9060, Note_on_c, 1, 64, 127
3, 9084, Note_on_c, 1, 64, 0
3, 9090, Note_on_c, 1, 67, 127
3, 9114, Note_on_c, 1, 67, 0
3, 9120, Note_on_c, 1, 66, 127
3, 9144, Note_on_c, 1, 66, 0
3, 9150, Note_on_c, 1, 64, 127
3, 9174, Note_on_c, 1, 64, 0
3, 9180, Note_on_c, 1, 69, 127
3, 9234, Note_on_c, 1, 67, 127
3, 9240, Note_on_c, 1, 69, 0
3, 9293, Note_on_c, 1, 69, 127
3, 9294, Note_on_c, 1, 67, 0
3, 9413, Note_on_c, 1, 69, 0
3, 9420, Note_on_c, 1, 67, 127
3, 9444, Note_on_c, 1, 67, 0
3, 9450, Note_on_c, 1, 64, 127
3, 9474, Note_on_c, 1, 64, 0
3, 9480, Note_on_c, 1, 62, 127
3, 9504, Note_on_c, 1, 62, 0
3, 9510, Note_on_c, 1, 61, 127
3, 9534, Note_on_c, 1, 61, 0
3, 9540, Note_on_c, 1, 60, 127
3, 9564, Note_on_c, 1, 60, 0
3, 9567, Note_on_c, 1, 59, 127
3, 9627, Note_on_c, 1, 59, 0
3, 9629, Note_on_c, 1, 62, 127
3, 9689, Note_on_c, 1, 62, 0
3, 9690, Note_on_c, 1, 61, 127
3, 9714, Note_on_c, 1, 61, 0
3, 9720, Note_on_c, 1, 62, 127
3, 9744, Note_on_c, 1, 62, 0
3, 9750, Note_on_c, 1, 54, 127
3, 9774, Note_on_c, 1, 54, 0
3, 9780, Note_on_c, 1, 57, 127
3, 9804, Note_on_c, 1, 57, 0
3, 9810, Note_on_c, 1, 55, 127
3, 9834, Note_on_c, 1, 55, 0
3, 9840, Note_on_c, 1, 60, 127
3, 9864, Note_on_c, 1, 60, 0
3, 9870, Note_on_c, 1, 59, 127
3, 9894, Note_on_c, 1, 59, 0
3, 9900, Note_on_c, 1, 57, 127
3, 9960, Note_on_c, 1, 57, 0
3, 9960, Note_on_c, 1, 56, 127
3, 9984, Note_on_c, 1, 56, 0
3, 9990, Note_on_c, 1, 55, 127
3, 10014, Note_on_c, 1, 55, 0
3, 10020, Note_on_c, 1, 54, 127
3, 10044, Note_on_c, 1, 54, 0
3, 10050, Note_on_c, 1, 55, 127
3, 10074, Note_on_c, 1, 55, 0
3, 10080, Note_on_c, 1, 57, 127
3, 10137, Note_on_c, 1, 62, 127
3, 10140, Note_on_c, 1, 57, 0
3, 10197, Note_on_c, 1, 62, 0
3, 10200, Note_on_c, 1, 59, 127
3, 10224, Note_on_c, 1, 59, 0
3, 10230, Note_on_c, 1, 57, 127
3, 10254, Note_on_c, 1, 57, 0
3, 10260, Note_on_c, 1, 62, 127
3, 10320, Note_on_c, 1, 62, 0
3, 10320, Note_on_c, 1, 61, 127
3, 10344, Note_on_c, 1, 61, 0
3, 10350, Note_on_c, 1, 59, 127
3, 10374, Note_on_c, 1, 59, 0
3, 10380, Note_on_c, 1, 57, 127
3, 10404, Note_on_c, 1, 57, 0
3, 10410, Note_on_c, 1, 55, 127
3, 10434, Note_on_c, 1, 55, 0
3, 10440, Note_on_c, 1, 57, 127
3, 10464, Note_on_c, 1, 57, 0
3, 10468, Note_on_c, 1, 59, 127
3, 10528, Note_on_c, 1, 59, 0
3, 10530, Note_on_c, 1, 62, 127
3, 10554, Note_on_c, 1, 62, 0
3, 10560, Note_on_c, 1, 61, 127
3, 10584, Note_on_c, 1, 61, 0
3, 10590, Note_on_c, 1, 55, 127
3, 10614, Note_on_c, 1, 55, 0
3, 10620, Note_on_c, 1, 54, 127
3, 10800, Note_on_c, 1, 54, 0
3, 10800, End_track
4, 0, Start_track
4, 0, MIDI_port, 0
4, 0, Title_t, "Track 4"
4, 0, Program_c, 2, 0
4, 0, Control_c, 2, 7, 66
4, 0, Control_c, 2, 10, 64
4, 0, Control_c, 2, 7, 91
4, 0, Control_c, 2, 93, 92
4, 10, Control_c, 2, 7, 95
4, 130, Control_c, 2, 7, 96
4, 480, Note_on_c, 2, 50, 127
4, 504, Note_on_c, 2, 50, 0
4, 510, Note_on_c, 2, 52, 127
4, 534, Note_on_c, 2, 52, 0
4, 540, Note_on_c, 2, 54, 127
4, 564, Note_on_c, 2, 54, 0
4, 570, Note_on_c, 2, 52, 127
4, 594, Note_on_c, 2, 52, 0
4, 600, Note_on_c, 2, 55, 127
4, 624, Note_on_c, 2, 55, 0
4, 630, Note_on_c, 2, 54, 127
4, 654, Note_on_c, 2, 54, 0
4, 660, Note_on_c, 2, 52, 127
4, 684, Note_on_c, 2, 52, 0
4, 690, Note_on_c, 2, 50, 127
4, 714, Note_on_c, 2, 50, 0
4, 720, Note_on_c, 2, 57, 127
4, 744, Note_on_c, 2, 57, 0
4, 750, Note_on_c, 2, 55, 127
4, 774, Note_on_c, 2, 55, 0
4, 780, Note_on_c, 2, 54, 127
4, 804, Note_on_c, 2, 54, 0
4, 810, Note_on_c, 2, 52, 127
4, 834, Note_on_c, 2, 52, 0
4, 840, Note_on_c, 2, 54, 127
4, 864, Note_on_c, 2, 54, 0
4, 870, Note_on_c, 2, 50, 127
4, 894, Note_on_c, 2, 50, 0
4, 900, Note_on_c, 2, 57, 127
4, 900, Control_c, 2, 7, 112
4, 950, Control_c, 2, 7, 111
4, 958, Note_on_c, 2, 45, 127
4, 960, Note_on_c, 2, 57, 0
4, 1000, Control_c, 2, 7, 110
4, 1018, Note_on_c, 2, 45, 0
4, 1020, Note_on_c, 2, 57, 127
4, 1044, Note_on_c, 2, 57, 0
4, 1080, Note_on_c, 2, 57, 127
4, 1137, Note_on_c, 2, 45, 127
4, 1140, Note_on_c, 2, 57, 0
4, 1197, Note_on_c, 2, 45, 0
4, 1200, Note_on_c, 2, 57, 127
4, 1224, Note_on_c, 2, 57, 0
4, 1260, Note_on_c, 2, 57, 127
4, 1316, Note_on_c, 2, 45, 127
4, 1320, Note_on_c, 2, 57, 0
4, 1376, Note_on_c, 2, 45, 0
4, 1380, Note_on_c, 2, 57, 127
4, 1404, Note_on_c, 2, 57, 0
4, 1440, Note_on_c, 2, 57, 127
4, 1496, Note_on_c, 2, 45, 127
4, 1500, Note_on_c, 2, 57, 0
4, 1556, Note_on_c, 2, 45, 0
4, 1560, Note_on_c, 2, 57, 127
4, 1584, Note_on_c, 2, 57, 0
4, 1620, Note_on_c, 2, 45, 127
4, 1679, Note_on_c, 2, 47, 127
4, 1680, Note_on_c, 2, 45, 0
4, 1738, Note_on_c, 2, 49, 127
4, 1739, Note_on_c, 2, 47, 0
4, 1745, Control_c, 2, 10, 67
4, 1745, Control_c, 2, 10, 63
4, 1755, Control_c, 2, 10, 68
4, 1760, Control_c, 2, 10, 70
4, 1764, Control_c, 2, 10, 84
4, 1775, Control_c, 2, 10, 89
4, 1780, Control_c, 2, 10, 93
4, 1794, Control_c, 2, 10, 99
4, 1798, Note_on_c, 2, 49, 0
4, 1800, Note_on_c, 2, 50, 127
4, 1824, Note_on_c, 2, 50, 0
4, 1824, Control_c, 2, 10, 105
4, 1830, Note_on_c, 2, 49, 127
4, 1845, Control_c, 2, 10, 112
4, 1854, Note_on_c, 2, 49, 0
4, 1860, Note_on_c, 2, 52, 127
4, 1884, Note_on_c, 2, 52, 0
4, 1890, Note_on_c, 2, 50, 127
4, 1914, Note_on_c, 2, 50, 0
4, 1920, Note_on_c, 2, 49, 127
4, 1944, Note_on_c, 2, 49, 0
4, 1950, Note_on_c, 2, 47, 127
4, 1974, Note_on_c, 2, 47, 0
4, 1980, Note_on_c, 2, 49, 127
4, 2004, Note_on_c, 2, 49, 0
4, 2010, Note_on_c, 2, 50, 127
4, 2034, Note_on_c, 2, 50, 0
4, 2038, Note_on_c, 2, 52, 127
4, 2097, Note_on_c, 2, 40, 127
4, 2098, Note_on_c, 2, 52, 0
4, 2127, Note_on_c, 2, 40, 0
4, 2150, Control_c, 2, 7, 72
4, 2160, Note_on_c, 2, 45, 127
4, 2184, Note_on_c, 2, 45, 0
4, 2190, Note_on_c, 2, 40, 127
4, 2214, Note_on_c, 2, 40, 0
4, 2220, Note_on_c, 2, 42, 127
4, 2244, Note_on_c, 2, 42, 0
4, 2250, Note_on_c, 2, 44, 127
4, 2274, Note_on_c, 2, 44, 0
4, 2280, Note_on_c, 2, 45, 127
4, 2304, Note_on_c, 2, 45, 0
4, 2310, Note_on_c, 2, 47, 127
4, 2330, Control_c, 2, 7, 66
4, 2334, Note_on_c, 2, 47, 0
4, 2340, Note_on_c, 2, 49, 127
4, 2360, Control_c, 2, 7, 67
4, 2364, Note_on_c, 2, 49, 0
4, 2370, Note_on_c, 2, 47, 127
4, 2380, Control_c, 2, 7, 68
4, 2394, Note_on_c, 2, 47, 0
4, 2400, Note_on_c, 2, 50, 127
4, 2410, Control_c, 2, 7, 69
4, 2424, Note_on_c, 2, 50, 0
4, 2430, Note_on_c, 2, 49, 127
4, 2430, Control_c, 2, 7, 70
4, 2454, Note_on_c, 2, 49, 0
4, 2460, Note_on_c, 2, 47, 127
4, 2460, Control_c, 2, 7, 71
4, 2480, Control_c, 2, 7, 72
4, 2484, Note_on_c, 2, 47, 0
4, 2490, Note_on_c, 2, 45, 127
4, 2510, Control_c, 2, 7, 73
4, 2514, Note_on_c, 2, 45, 0
4, 2520, Note_on_c, 2, 52, 127
4, 2530, Control_c, 2, 7, 74
4, 2550, Control_c, 2, 7, 75
4, 2578, Note_on_c, 2, 40, 127
4, 2580, Note_on_c, 2, 52, 0
4, 2580, Control_c, 2, 7, 76
4, 2600, Control_c, 2, 7, 77
4, 2608, Note_on_c, 2, 40, 0
4, 2630, Control_c, 2, 7, 78
4, 2650, Control_c, 2, 7, 79
4, 2680, Control_c, 2, 7, 80
4, 2700, Control_c, 2, 7, 81
4, 2730, Control_c, 2, 7, 82
4, 2750, Control_c, 2, 7, 83
4, 2762, Note_on_c, 2, 47, 127
4, 2770, Control_c, 2, 7, 84
4, 2800, Control_c, 2, 7, 85
4, 2817, Note_on_c, 2, 52, 127
4, 2820, Control_c, 2, 7, 86
4, 2822, Note_on_c, 2, 47, 0
4, 2850, Control_c, 2, 7, 87
4, 2870, Control_c, 2, 7, 88
4, 2900, Control_c, 2, 7, 89
4, 2907, Note_on_c, 2, 52, 0
4, 2910, Note_on_c, 2, 42, 127
4, 2920, Control_c, 2, 7, 90
4, 2934, Note_on_c, 2, 42, 0
4, 2940, Note_on_c, 2, 44, 127
4, 2950, Control_c, 2, 7, 91
4, 2964, Note_on_c, 2, 44, 0
4, 2970, Note_on_c, 2, 46, 127
4, 2970, Control_c, 2, 7, 92
4, 2990, Control_c, 2, 7, 93
4, 2994, Note_on_c, 2, 46, 0
4, 3000, Note_on_c, 2, 47, 127
4, 3020, Control_c, 2, 7, 94
4, 3024, Note_on_c, 2, 47, 0
4, 3030, Note_on_c, 2, 49, 127
4, 3040, Control_c, 2, 7, 95
4, 3054, Note_on_c, 2, 49, 0
4, 3060, Note_on_c, 2, 50, 127
4, 3070, Control_c, 2, 7, 96
4, 3084, Note_on_c, 2, 50, 0
4, 3090, Note_on_c, 2, 49, 127
4, 3090, Control_c, 2, 7, 97
4, 3114, Note_on_c, 2, 49, 0
4, 3120, Note_on_c, 2, 52, 127
4, 3120, Control_c, 2, 7, 98
4, 3140, Control_c, 2, 7, 99
4, 3144, Note_on_c, 2, 52, 0
4, 3150, Note_on_c, 2, 50, 127
4, 3170, Control_c, 2, 7, 100
4, 3174, Note_on_c, 2, 50, 0
4, 3180, Note_on_c, 2, 49, 127
4, 3190, Control_c, 2, 7, 101
4, 3204, Note_on_c, 2, 49, 0
4, 3210, Note_on_c, 2, 47, 127
4, 3210, Control_c, 2, 7, 102
4, 3234, Note_on_c, 2, 47, 0
4, 3240, Note_on_c, 2, 54, 127
4, 3240, Control_c, 2, 7, 103
4, 3260, Control_c, 2, 7, 104
4, 3290, Control_c, 2, 7, 105
4, 3297, Note_on_c, 2, 42, 127
4, 3300, Note_on_c, 2, 54, 0
4, 3310, Control_c, 2, 7, 106
4, 3327, Note_on_c, 2, 42, 0
4, 3340, Control_c, 2, 7, 107
4, 3358, Note_on_c, 2, 52, 127
4, 3360, Control_c, 2, 7, 108
4, 3390, Control_c, 2, 7, 109
4, 3410, Control_c, 2, 7, 110
4, 3418, Note_on_c, 2, 52, 0
4, 3420, Note_on_c, 2, 50, 127
4, 3430, Control_c, 2, 7, 111
4, 3444, Note_on_c, 2, 50, 0
4, 3480, Note_on_c, 2, 59, 127
4, 3504, Note_on_c, 2, 59, 0
4, 3510, Note_on_c, 2, 58, 127
4, 3534, Note_on_c, 2, 58, 0
4, 3540, Note_on_c, 2, 59, 127
4, 3564, Note_on_c, 2, 59, 0
4, 3600, Note_on_c, 2, 49, 127
4, 3624, Note_on_c, 2, 49, 0
4, 3660, Note_on_c, 2, 58, 127
4, 3684, Note_on_c, 2, 58, 0
4, 3690, Note_on_c, 2, 56, 127
4, 3714, Note_on_c, 2, 56, 0
4, 3720, Note_on_c, 2, 58, 127
4, 3744, Note_on_c, 2, 58, 0
4, 3780, Note_on_c, 2, 59, 127
4, 3804, Note_on_c, 2, 59, 0
4, 3810, Note_on_c, 2, 57, 127
4, 3834, Note_on_c, 2, 57, 0
4, 3840, Note_on_c, 2, 55, 127
4, 3864, Note_on_c, 2, 55, 0
4, 3870, Note_on_c, 2, 54, 127
4, 3894, Note_on_c, 2, 54, 0
4, 3900, Note_on_c, 2, 52, 127
4, 3924, Note_on_c, 2, 52, 0
4, 3930, Note_on_c, 2, 50, 127
4, 3954, Note_on_c, 2, 50, 0
4, 3960, Note_on_c, 2, 52, 127
4, 3984, Note_on_c, 2, 52, 0
4, 3990, Note_on_c, 2, 50, 127
4, 4014, Note_on_c, 2, 50, 0
4, 4020, Note_on_c, 2, 54, 127
4, 4044, Note_on_c, 2, 54, 0
4, 4050, Note_on_c, 2, 52, 127
4, 4074, Note_on_c, 2, 52, 0
4, 4080, Note_on_c, 2, 50, 127
4, 4104, Note_on_c, 2, 50, 0
4, 4110, Note_on_c, 2, 49, 127
4, 4134, Note_on_c, 2, 49, 0
4, 4140, Note_on_c, 2, 50, 127
4, 4164, Note_on_c, 2, 50, 0
4, 4170, Note_on_c, 2, 52, 127
4, 4194, Note_on_c, 2, 52, 0
4, 4194, Note_on_c, 2, 54, 127
4, 4254, Note_on_c, 2, 54, 0
4, 4260, Note_on_c, 2, 42, 127
4, 4284, Note_on_c, 2, 42, 0
4, 4320, Note_on_c, 2, 59, 127
4, 4320, Control_c, 2, 7, 108
4, 4330, Control_c, 2, 7, 107
4, 4340, Control_c, 2, 7, 105
4, 4350, Control_c, 2, 7, 103
4, 4360, Control_c, 2, 7, 102
4, 4370, Control_c, 2, 7, 100
4, 4375, Note_on_c, 2, 54, 127
4, 4380, Note_on_c, 2, 59, 0
4, 4380, Control_c, 2, 7, 98
4, 4390, Control_c, 2, 7, 96
4, 4400, Control_c, 2, 7, 95
4, 4410, Control_c, 2, 7, 93
4, 4420, Control_c, 2, 7, 91
4, 4430, Control_c, 2, 7, 89
4, 4435, Note_on_c, 2, 54, 0
4, 4438, Note_on_c, 2, 50, 127
4, 4440, Control_c, 2, 7, 88
4, 4450, Control_c, 2, 7, 86
4, 4460, Control_c, 2, 7, 84
4, 4470, Control_c, 2, 7, 82
4, 4480, Control_c, 2, 7, 81
4, 4490, Control_c, 2, 7, 79
4, 4498, Note_on_c, 2, 50, 0
4, 4500, Note_on_c, 2, 47, 127
4, 4500, Control_c, 2, 7, 77
4, 4510, Control_c, 2, 7, 75
4, 4560, Note_on_c, 2, 47, 0
4, 4690, Control_c, 2, 7, 74
4, 4710, Note_on_c, 2, 47, 127
4, 4734, Note_on_c, 2, 47, 0
4, 4740, Note_on_c, 2, 49, 127
4, 4740, Control_c, 2, 7, 75
4, 4764, Note_on_c, 2, 49, 0
4, 4770, Note_on_c, 2, 51, 127
4, 4780, Control_c, 2, 7, 76
4, 4794, Note_on_c, 2, 51, 0
4, 4800, Note_on_c, 2, 52, 127
4, 4820, Control_c, 2, 7, 77
4, 4824, Note_on_c, 2, 52, 0
4, 4830, Note_on_c, 2, 54, 127
4, 4854, Note_on_c, 2, 54, 0
4, 4860, Note_on_c, 2, 55, 127
4, 4860, Control_c, 2, 7, 78
4, 4884, Note_on_c, 2, 55, 0
4, 4890, Note_on_c, 2, 54, 127
4, 4900, Control_c, 2, 7, 79
4, 4914, Note_on_c, 2, 54, 0
4, 4920, Note_on_c, 2, 57, 127
4, 4940, Control_c, 2, 7, 80
4, 4944, Note_on_c, 2, 57, 0
4, 4950, Note_on_c, 2, 55, 127
4, 4974, Note_on_c, 2, 55, 0
4, 4980, Note_on_c, 2, 54, 127
4, 4990, Control_c, 2, 7, 81
4, 5004, Note_on_c, 2, 54, 0
4, 5010, Note_on_c, 2, 52, 127
4, 5030, Control_c, 2, 7, 82
4, 5034, Note_on_c, 2, 52, 0
4, 5040, Note_on_c, 2, 57, 127
4, 5052, Note_on_c, 2, 57, 0
4, 5055, Note_on_c, 2, 56, 127
4, 5067, Note_on_c, 2, 56, 0
4, 5070, Note_on_c, 2, 57, 127
4, 5070, Control_c, 2, 7, 83
4, 5082, Note_on_c, 2, 57, 0
4, 5085, Note_on_c, 2, 56, 127
4, 5097, Note_on_c, 2, 56, 0
4, 5100, Note_on_c, 2, 57, 127
4, 5110, Control_c, 2, 7, 84
4, 5112, Note_on_c, 2, 57, 0
4, 5115, Note_on_c, 2, 56, 127
4, 5127, Note_on_c, 2, 56, 0
4, 5130, Note_on_c, 2, 57, 127
4, 5142, Note_on_c, 2, 57, 0
4, 5145, Note_on_c, 2, 56, 127
4, 5150, Control_c, 2, 7, 85
4, 5157, Note_on_c, 2, 56, 0
4, 5160, Note_on_c, 2, 57, 127
4, 5172, Note_on_c, 2, 57, 0
4, 5175, Note_on_c, 2, 56, 127
4, 5187, Note_on_c, 2, 56, 0
4, 5190, Note_on_c, 2, 57, 127
4, 5190, Control_c, 2, 7, 86
4, 5202, Note_on_c, 2, 57, 0
4, 5205, Note_on_c, 2, 56, 127
4, 5217, Note_on_c, 2, 56, 0
4, 5220, Note_on_c, 2, 57, 127
4, 5230, Control_c, 2, 7, 87
4, 5232, Note_on_c, 2, 57, 0
4, 5235, Note_on_c, 2, 56, 127
4, 5247, Note_on_c, 2, 56, 0
4, 5250, Note_on_c, 2, 57, 127
4, 5262, Note_on_c, 2, 57, 0
4, 5265, Note_on_c, 2, 56, 127
4, 5277, Note_on_c, 2, 56, 0
4, 5280, Note_on_c, 2, 57, 127
4, 5280, Control_c, 2, 7, 88
4, 5292, Note_on_c, 2, 57, 0
4, 5295, Note_on_c, 2, 56, 127
4, 5307, Note_on_c, 2, 56, 0
4, 5310, Note_on_c, 2, 57, 127
4, 5320, Control_c, 2, 7, 89
4, 5322, Note_on_c, 2, 57, 0
4, 5325, Note_on_c, 2, 56, 127
4, 5337, Note_on_c, 2, 56, 0
4, 5340, Note_on_c, 2, 57, 127
4, 5352, Note_on_c, 2, 57, 0
4, 5355, Note_on_c, 2, 56, 127
4, 5360, Control_c, 2, 7, 90
4, 5367, Note_on_c, 2, 56, 0
4, 5370, Note_on_c, 2, 57, 127
4, 5382, Note_on_c, 2, 57, 0
4, 5385, Note_on_c, 2, 56, 127
4, 5397, Note_on_c, 2, 56, 0
4, 5400, Note_on_c, 2, 57, 127
4, 5400, Control_c, 2, 7, 91
4, 5424, Note_on_c, 2, 57, 0
4, 5430, Note_on_c, 2, 45, 127
4, 5440, Control_c, 2, 7, 92
4, 5454, Note_on_c, 2, 45, 0
4, 5460, Note_on_c, 2, 47, 127
4, 5480, Control_c, 2, 7, 93
4, 5484, Note_on_c, 2, 47, 0
4, 5490, Note_on_c, 2, 49, 127
4, 5514, Note_on_c, 2, 49, 0
4, 5520, Note_on_c, 2, 50, 127
4, 5530, Control_c, 2, 7, 94
4, 5544, Note_on_c, 2, 50, 0
4, 5550, Note_on_c, 2, 52, 127
4, 5570, Control_c, 2, 7, 95
4, 5574, Note_on_c, 2, 52, 0
4, 5580, Note_on_c, 2, 54, 127
4, 5604, Note_on_c, 2, 54, 0
4, 5610, Note_on_c, 2, 52, 127
4, 5610, Control_c, 2, 7, 96
4, 5634, Note_on_c, 2, 52, 0
4, 5640, Note_on_c, 2, 55, 127
4, 5650, Control_c, 2, 7, 97
4, 5664, Note_on_c, 2, 55, 0
4, 5670, Note_on_c, 2, 54, 127
4, 5690, Control_c, 2, 7, 98
4, 5694, Note_on_c, 2, 54, 0
4, 5700, Note_on_c, 2, 52, 127
4, 5724, Note_on_c, 2, 52, 0
4, 5730, Note_on_c, 2, 50, 127
4, 5730, Control_c, 2, 7, 99
4, 5754, Note_on_c, 2, 50, 0
4, 5760, Note_on_c, 2, 56, 127
4, 5770, Control_c, 2, 7, 100
4, 5820, Control_c, 2, 7, 101
4, 5850, Note_on_c, 2, 56, 0
4, 5850, Note_on_c, 2, 52, 127
4, 5860, Control_c, 2, 7, 102
4, 5874, Note_on_c, 2, 52, 0
4, 5880, Note_on_c, 2, 54, 127
4, 5900, Control_c, 2, 7, 103
4, 5904, Note_on_c, 2, 54, 0
4, 5910, Note_on_c, 2, 56, 127
4, 5934, Note_on_c, 2, 56, 0
4, 5940, Note_on_c, 2, 57, 127
4, 5940, Control_c, 2, 7, 104
4, 5964, Note_on_c, 2, 57, 0
4, 5970, Note_on_c, 2, 56, 127
4, 5980, Control_c, 2, 7, 105
4, 5994, Note_on_c, 2, 56, 0
4, 6000, Note_on_c, 2, 54, 127
4, 6020, Control_c, 2, 7, 106
4, 6024, Note_on_c, 2, 54, 0
4, 6030, Note_on_c, 2, 52, 127
4, 6054, Note_on_c, 2, 52, 0
4, 6060, Note_on_c, 2, 50, 127
4, 6060, Control_c, 2, 7, 107
4, 6084, Note_on_c, 2, 50, 0
4, 6090, Note_on_c, 2, 54, 127
4, 6114, Note_on_c, 2, 54, 0
4, 6120, Note_on_c, 2, 52, 127
4, 6144, Note_on_c, 2, 52, 0
4, 6150, Note_on_c, 2, 50, 127
4, 6174, Note_on_c, 2, 50, 0
4, 6180, Note_on_c, 2, 49, 127
4, 6204, Note_on_c, 2, 49, 0
4, 6210, Note_on_c, 2, 47, 127
4, 6234, Note_on_c, 2, 47, 0
4, 6240, Note_on_c, 2, 49, 127
4, 6264, Note_on_c, 2, 49, 0
4, 6270, Note_on_c, 2, 45, 127
4, 6294, Note_on_c, 2, 45, 0
4, 6302, Note_on_c, 2, 57, 127
4, 6359, Note_on_c, 2, 54, 127
4, 6362, Note_on_c, 2, 57, 0
4, 6416, Note_on_c, 2, 49, 127
4, 6419, Note_on_c, 2, 54, 0
4, 6476, Note_on_c, 2, 49, 0
4, 6480, Note_on_c, 2, 50, 127
4, 6500, Control_c, 2, 7, 106
4, 6504, Note_on_c, 2, 50, 0
4, 6510, Note_on_c, 2, 49, 127
4, 6520, Control_c, 2, 7, 105
4, 6530, Control_c, 2, 7, 104
4, 6534, Note_on_c, 2, 49, 0
4, 6540, Note_on_c, 2, 52, 127
4, 6550, Control_c, 2, 7, 103
4, 6560, Control_c, 2, 7, 102
4, 6564, Note_on_c, 2, 52, 0
4, 6570, Note_on_c, 2, 50, 127
4, 6580, Control_c, 2, 7, 101
4, 6590, Control_c, 2, 7, 100
4, 6594, Note_on_c, 2, 50, 0
4, 6600, Note_on_c, 2, 49, 127
4, 6610, Control_c, 2, 7, 99
4, 6620, Control_c, 2, 7, 98
4, 6624, Note_on_c, 2, 49, 0
4, 6630, Note_on_c, 2, 47, 127
4, 6640, Control_c, 2, 7, 97
4, 6650, Control_c, 2, 7, 96
4, 6654, Note_on_c, 2, 47, 0
4, 6660, Note_on_c, 2, 49, 127
4, 6670, Control_c, 2, 7, 95
4, 6680, Control_c, 2, 7, 94
4, 6684, Note_on_c, 2, 49, 0
4, 6690, Note_on_c, 2, 50, 127
4, 6690, Control_c, 2, 7, 93
4, 6710, Control_c, 2, 7, 92
4, 6714, Note_on_c, 2, 50, 0
4, 6716, Note_on_c, 2, 52, 127
4, 6720, Control_c, 2, 7, 91
4, 6740, Control_c, 2, 7, 90
4, 6750, Control_c, 2, 7, 89
4, 6770, Control_c, 2, 7, 88
4, 6776, Note_on_c, 2, 52, 0
4, 6779, Note_on_c, 2, 40, 127
4, 6780, Control_c, 2, 7, 87
4, 6800, Control_c, 2, 7, 86
4, 6810, Control_c, 2, 7, 85
4, 6830, Control_c, 2, 7, 84
4, 6839, Note_on_c, 2, 40, 0
4, 6840, Note_on_c, 2, 45, 127
4, 6840, Control_c, 2, 7, 83
4, 6860, Control_c, 2, 7, 82
4, 6864, Note_on_c, 2, 45, 0
4, 6870, Note_on_c, 2, 49, 125
4, 6870, Control_c, 2, 7, 81
4, 6880, Control_c, 2, 7, 80
4, 6894, Note_on_c, 2, 49, 0
4, 6900, Note_on_c, 2, 50, 125
4, 6924, Note_on_c, 2, 50, 0
4, 6930, Note_on_c, 2, 52, 125
4, 6954, Note_on_c, 2, 52, 0
4, 6960, Note_on_c, 2, 54, 125
4, 6984, Note_on_c, 2, 54, 0
4, 6990, Note_on_c, 2, 55, 125
4, 7014, Note_on_c, 2, 55, 0
4, 7020, Note_on_c, 2, 57, 125
4, 7044, Note_on_c, 2, 57, 0
4, 7050, Note_on_c, 2, 55, 125
4, 7074, Note_on_c, 2, 55, 0
4, 7080, Note_on_c, 2, 59, 125
4, 7104, Note_on_c, 2, 59, 0
4, 7110, Note_on_c, 2, 57, 125
4, 7134, Note_on_c, 2, 57, 0
4, 7140, Note_on_c, 2, 55, 125
4, 7164, Note_on_c, 2, 55, 0
4, 7170, Note_on_c, 2, 54, 125
4, 7194, Note_on_c, 2, 54, 0
4, 7200, Note_on_c, 2, 55, 125
4, 7224, Note_on_c, 2, 55, 0
4, 7230, Note_on_c, 2, 54, 125
4, 7254, Note_on_c, 2, 54, 0
4, 7260, Note_on_c, 2, 57, 125
4, 7284, Note_on_c, 2, 57, 0
4, 7290, Note_on_c, 2, 55, 125
4, 7314, Note_on_c, 2, 55, 0
4, 7320, Note_on_c, 2, 54, 125
4, 7344, Note_on_c, 2, 54, 0
4, 7350, Note_on_c, 2, 52, 125
4, 7374, Note_on_c, 2, 52, 0
4, 7380, Note_on_c, 2, 54, 125
4, 7404, Note_on_c, 2, 54, 0
4, 7410, Note_on_c, 2, 52, 125
4, 7434, Note_on_c, 2, 52, 0
4, 7440, Note_on_c, 2, 55, 125
4, 7464, Note_on_c, 2, 55, 0
4, 7470, Note_on_c, 2, 54, 127
4, 7494, Note_on_c, 2, 54, 0
4, 7500, Note_on_c, 2, 52, 127
4, 7524, Note_on_c, 2, 52, 0
4, 7530, Note_on_c, 2, 50, 127
4, 7554, Note_on_c, 2, 50, 0
4, 7562, Note_on_c, 2, 57, 127
4, 7614, Note_on_c, 2, 45, 127
4, 7622, Note_on_c, 2, 57, 0
4, 7644, Note_on_c, 2, 45, 0
4, 8040, Note_on_c, 2, 50, 125
4, 8064, Note_on_c, 2, 50, 0
4, 8070, Note_on_c, 2, 52, 125
4, 8094, Note_on_c, 2, 52, 0
4, 8100, Note_on_c, 2, 54, 125
4, 8110, Control_c, 2, 7, 81
4, 8124, Note_on_c, 2, 54, 0
4, 8130, Note_on_c, 2, 52, 125
4, 8130, Control_c, 2, 7, 82
4, 8140, Control_c, 2, 7, 83
4, 8154, Note_on_c, 2, 52, 0
4, 8160, Note_on_c, 2, 55, 125
4, 8160, Control_c, 2, 7, 84
4, 8170, Control_c, 2, 7, 85
4, 8180, Control_c, 2, 7, 86
4, 8184, Note_on_c, 2, 55, 0
4, 8190, Note_on_c, 2, 54, 125
4, 8200, Control_c, 2, 7, 87
4, 8210, Control_c, 2, 7, 88
4, 8214, Note_on_c, 2, 54, 0
4, 8220, Note_on_c, 2, 52, 125
4, 8230, Control_c, 2, 7, 89
4, 8240, Control_c, 2, 7, 90
4, 8244, Note_on_c, 2, 52, 0
4, 8250, Note_on_c, 2, 50, 125
4, 8250, Control_c, 2, 7, 91
4, 8270, Control_c, 2, 7, 92
4, 8274, Note_on_c, 2, 50, 0
4, 8280, Note_on_c, 2, 57, 125
4, 8280, Control_c, 2, 7, 93
4, 8300, Control_c, 2, 7, 94
4, 8304, Note_on_c, 2, 57, 0
4, 8310, Note_on_c, 2, 55, 125
4, 8310, Control_c, 2, 7, 95
4, 8320, Control_c, 2, 7, 96
4, 8334, Note_on_c, 2, 55, 0
4, 8340, Note_on_c, 2, 54, 125
4, 8340, Control_c, 2, 7, 97
4, 8350, Control_c, 2, 7, 98
4, 8364, Note_on_c, 2, 54, 0
4, 8370, Note_on_c, 2, 52, 125
4, 8370, Control_c, 2, 7, 99
4, 8380, Control_c, 2, 7, 100
4, 8390, Control_c, 2, 7, 101
4, 8394, Note_on_c, 2, 52, 0
4, 8400, Note_on_c, 2, 54, 125
4, 8410, Control_c, 2, 7, 102
4, 8420, Control_c, 2, 7, 103
4, 8424, Note_on_c, 2, 54, 0
4, 8430, Note_on_c, 2, 50, 125
4, 8440, Control_c, 2, 7, 104
4, 8450, Control_c, 2, 7, 105
4, 8454, Note_on_c, 2, 50, 0
4, 8460, Note_on_c, 2, 57, 125
4, 8460, Control_c, 2, 7, 106
4, 8484, Note_on_c, 2, 57, 0
4, 8490, Note_on_c, 2, 54, 127
4, 8514, Note_on_c, 2, 54, 0
4, 8520, Note_on_c, 2, 59, 127
4, 8544, Note_on_c, 2, 59, 0
4, 8550, Note_on_c, 2, 55, 127
4, 8574, Note_on_c, 2, 55, 0
4, 8580, Note_on_c, 2, 54, 127
4, 8604, Note_on_c, 2, 54, 0
4, 8610, Note_on_c, 2, 52, 127
4, 8634, Note_on_c, 2, 52, 0
4, 8640, Note_on_c, 2, 57, 127
4, 8664, Note_on_c, 2, 57, 0
4, 8670, Note_on_c, 2, 54, 127
4, 8694, Note_on_c, 2, 54, 0
4, 8700, Note_on_c, 2, 55, 127
4, 8724, Note_on_c, 2, 55, 0
4, 8730, Note_on_c, 2, 52, 127
4, 8754, Note_on_c, 2, 52, 0
4, 8760, Note_on_c, 2, 50, 127
4, 8784, Note_on_c, 2, 50, 0
4, 8790, Note_on_c, 2, 49, 127
4, 8814, Note_on_c, 2, 49, 0
4, 8820, Note_on_c, 2, 57, 127
4, 8844, Note_on_c, 2, 57, 0
4, 8850, Note_on_c, 2, 54, 127
4, 8874, Note_on_c, 2, 54, 0
4, 8880, Note_on_c, 2, 59, 127
4, 8904, Note_on_c, 2, 59, 0
4, 8910, Note_on_c, 2, 55, 127
4, 8934, Note_on_c, 2, 55, 0
4, 8940, Note_on_c, 2, 54, 127
4, 8964, Note_on_c, 2, 54, 0
4, 8970, Note_on_c, 2, 52, 127
4, 8994, Note_on_c, 2, 52, 0
4, 9000, Note_on_c, 2, 57, 127
4, 9024, Note_on_c, 2, 57, 0
4, 9030, Note_on_c, 2, 54, 127
4, 9054, Note_on_c, 2, 54, 0
4, 9060, Note_on_c, 2, 55, 127
4, 9084, Note_on_c, 2, 55, 0
4, 9090, Note_on_c, 2, 52, 127
4, 9114, Note_on_c, 2, 52, 0
4, 9120, Note_on_c, 2, 50, 127
4, 9144, Note_on_c, 2, 50, 0
4, 9150, Note_on_c, 2, 49, 127
4, 9174, Note_on_c, 2, 49, 0
4, 9180, Note_on_c, 2, 50, 127
4, 9240, Note_on_c, 2, 50, 0
4, 9240, Note_on_c, 2, 52, 127
4, 9296, Note_on_c, 2, 54, 127
4, 9300, Note_on_c, 2, 52, 0
4, 9356, Note_on_c, 2, 54, 0
4, 9360, Note_on_c, 2, 55, 127
4, 9384, Note_on_c, 2, 55, 0
4, 9390, Note_on_c, 2, 54, 127
4, 9414, Note_on_c, 2, 54, 0
4, 9420, Note_on_c, 2, 57, 127
4, 9444, Note_on_c, 2, 57, 0
4, 9450, Note_on_c, 2, 55, 127
4, 9474, Note_on_c, 2, 55, 0
4, 9480, Note_on_c, 2, 54, 127
4, 9504, Note_on_c, 2, 54, 0
4, 9510, Note_on_c, 2, 52, 127
4, 9534, Note_on_c, 2, 52, 0
4, 9540, Note_on_c, 2, 54, 127
4, 9560, Control_c, 2, 7, 105
4, 9564, Note_on_c, 2, 54, 0
4, 9570, Note_on_c, 2, 55, 127
4, 9570, Control_c, 2, 7, 104
4, 9580, Control_c, 2, 7, 102
4, 9590, Control_c, 2, 7, 100
4, 9594, Note_on_c, 2, 55, 0
4, 9600, Note_on_c, 2, 57, 127
4, 9600, Control_c, 2, 7, 98
4, 9610, Control_c, 2, 7, 96
4, 9620, Control_c, 2, 7, 95
4, 9630, Control_c, 2, 7, 93
4, 9640, Control_c, 2, 7, 91
4, 9650, Control_c, 2, 7, 89
4, 9659, Note_on_c, 2, 45, 127
4, 9660, Note_on_c, 2, 57, 0
4, 9660, Control_c, 2, 7, 87
4, 9670, Control_c, 2, 7, 85
4, 9680, Control_c, 2, 7, 84
4, 9689, Note_on_c, 2, 45, 0
4, 9690, Control_c, 2, 7, 82
4, 9700, Control_c, 2, 7, 80
4, 9710, Control_c, 2, 7, 78
4, 9720, Note_on_c, 2, 47, 127
4, 9720, Control_c, 2, 7, 76
4, 9730, Control_c, 2, 7, 74
4, 9744, Note_on_c, 2, 47, 0
4, 9750, Note_on_c, 2, 45, 127
4, 9774, Note_on_c, 2, 45, 0
4, 9780, Note_on_c, 2, 48, 127
4, 9804, Note_on_c, 2, 48, 0
4, 9810, Note_on_c, 2, 47, 127
4, 9834, Note_on_c, 2, 47, 0
4, 9840, Note_on_c, 2, 45, 127
4, 9864, Note_on_c, 2, 45, 0
4, 9870, Note_on_c, 2, 43, 127
4, 9894, Note_on_c, 2, 43, 0
4, 9900, Note_on_c, 2, 50, 127
4, 9950, Control_c, 2, 7, 76
4, 9970, Control_c, 2, 7, 77
4, 9990, Control_c, 2, 7, 78
4, 10010, Control_c, 2, 7, 79
4, 10020, Control_c, 2, 7, 80
4, 10040, Control_c, 2, 7, 81
4, 10060, Control_c, 2, 7, 82
4, 10080, Control_c, 2, 7, 83
4, 10090, Control_c, 2, 7, 84
4, 10104, Note_on_c, 2, 50, 0
4, 10110, Note_on_c, 2, 49, 127
4, 10110, Control_c, 2, 7, 85
4, 10130, Control_c, 2, 7, 86
4, 10134, Note_on_c, 2, 49, 0
4, 10140, Note_on_c, 2, 47, 127
4, 10150, Control_c, 2, 7, 87
4, 10160, Control_c, 2, 7, 88
4, 10164, Note_on_c, 2, 47, 0
4, 10170, Note_on_c, 2, 45, 127
4, 10180, Control_c, 2, 7, 89
4, 10194, Note_on_c, 2, 45, 0
4, 10200, Note_on_c, 2, 43, 127
4, 10200, Control_c, 2, 7, 90
4, 10220, Control_c, 2, 7, 91
4, 10224, Note_on_c, 2, 43, 0
4, 10230, Note_on_c, 2, 42, 127
4, 10230, Control_c, 2, 7, 92
4, 10254, Note_on_c, 2, 42, 0
4, 10260, Note_on_c, 2, 43, 127
4, 10284, Note_on_c, 2, 43, 0
4, 10290, Note_on_c, 2, 42, 127
4, 10314, Note_on_c, 2, 42, 0
4, 10320, Note_on_c, 2, 45, 127
4, 10344, Note_on_c, 2, 45, 0
4, 10350, Note_on_c, 2, 43, 127
4, 10374, Note_on_c, 2, 43, 0
4, 10380, Note_on_c, 2, 42, 127
4, 10404, Note_on_c, 2, 42, 0
4, 10410, Note_on_c, 2, 40, 127
4, 10434, Note_on_c, 2, 40, 0
4, 10440, Note_on_c, 2, 42, 127
4, 10440, Control_c, 2, 7, 89
4, 10460, Control_c, 2, 7, 88
4, 10464, Note_on_c, 2, 42, 0
4, 10470, Note_on_c, 2, 43, 127
4, 10480, Control_c, 2, 7, 87
4, 10490, Control_c, 2, 7, 86
4, 10494, Note_on_c, 2, 43, 0
4, 10500, Note_on_c, 2, 45, 127
4, 10510, Control_c, 2, 7, 85
4, 10520, Control_c, 2, 7, 84
4, 10524, Note_on_c, 2, 45, 0
4, 10540, Control_c, 2, 7, 83
4, 10550, Control_c, 2, 7, 82
4, 10560, Note_on_c, 2, 45, 127
4, 10570, Control_c, 2, 7, 81
4, 10580, Control_c, 2, 7, 80
4, 10584, Note_on_c, 2, 45, 0
4, 10600, Control_c, 2, 7, 79
4, 10610, Control_c, 2, 7, 78
4, 10620, Note_on_c, 2, 38, 127
4, 10630, Control_c, 2, 7, 77
4, 10640, Control_c, 2, 7, 76
4, 10660, Control_c, 2, 7, 75
4, 10670, Control_c, 2, 7, 74
4, 10690, Control_c, 2, 7, 73
4, 10700, Control_c, 2, 7, 72
4, 10720, Control_c, 2, 7, 71
4, 10730, Control_c, 2, 7, 70
4, 10750, Control_c, 2, 7, 69
4, 10760, Control_c, 2, 7, 68
4, 10800, Note_on_c, 2, 38, 0
4, 10800, End_track
0, 0, End_of_file