0, 0, Header, 0, 1, 240
1, 0, Start_track
1, 0, Time_signature, 1, 2, 24, 8
1, 0, Tempo, 500000
1, 372, Marker_t, "interpreted by (P) 1997 S.D. Rodrian  WTC Book1 Prelude & Fugue in D"
1, 1941, Program_c, 0, 0
1, 1941, Program_c, 1, 0
1, 1941, Program_c, 2, 0
1, 1942, Control_c, 0, 10, 74
1, 1942, Control_c, 1, 10, 66
1, 1943, Control_c, 2, 10, 59
1, 2005, Control_c, 2, 7, 127
1, 2039, Program_c, 1, 0
1, 2042, Control_c, 0, 7, 127
1, 2045, Control_c, 1, 7, 127
1, 2078, Control_c, 2, 10, 60
1, 2095, Control_c, 0, 10, 79
1, 2118, Program_c, 0, 0
1, 2119, Control_c, 2, 10, 58
1, 2119, Program_c, 2, 0
1, 2125, Control_c, 0, 10, 75
1, 2128, Control_c, 1, 10, 67
1, 2148, Control_c, 2, 10, 55
1, 2151, Control_c, 1, 10, 66
1, 2158, Control_c, 2, 10, 59
1, 2169, Control_c, 0, 10, 74
1, 2347, Note_on_c, 1, 50, 127
1, 2393, Note_on_c, 0, 74, 121
1, 2438, Note_on_c, 0, 76, 109
1, 2439, Note_off_c, 0, 74, 1
1, 2456, Note_off_c, 1, 50, 1
1, 2483, Note_on_c, 0, 78, 109
1, 2484, Note_off_c, 0, 76, 1
1, 2526, Note_on_c, 0, 69, 121
1, 2526, Note_on_c, 1, 62, 127
1, 2527, Note_off_c, 0, 78, 1
1, 2569, Note_on_c, 0, 78, 109
1, 2570, Note_off_c, 0, 69, 1
1, 2611, Note_off_c, 1, 62, 1
1, 2612, Note_off_c, 0, 78, 1
1, 2612, Note_on_c, 0, 76, 109
1, 2654, Note_on_c, 0, 74, 121
1, 2655, Note_off_c, 0, 76, 1
1, 2698, Note_on_c, 0, 81, 109
1, 2698, Note_on_c, 1, 54, 127
1, 2700, Note_off_c, 0, 74, 1
1, 2740, Note_on_c, 0, 74, 121
1, 2742, Note_off_c, 0, 81, 1
1, 2783, Note_on_c, 0, 76, 109
1, 2784, Note_off_c, 0, 74, 1
1, 2800, Note_off_c, 1, 54, 1
1, 2826, Note_on_c, 0, 78, 109
1, 2827, Note_off_c, 0, 76, 1
1, 2868, Note_on_c, 0, 69, 121
1, 2868, Note_on_c, 1, 62, 127
1, 2869, Note_off_c, 0, 78, 1
1, 2909, Note_on_c, 0, 78, 109
1, 2910, Note_off_c, 0, 69, 1
1, 2951, Note_off_c, 1, 62, 1
1, 2951, Note_on_c, 0, 76, 109
1, 2952, Note_off_c, 0, 78, 1
1, 2993, Note_on_c, 0, 74, 121
1, 2994, Note_off_c, 0, 76, 1
1, 3036, Note_on_c, 0, 79, 109
1, 3036, Note_on_c, 1, 52, 127
1, 3037, Note_off_c, 0, 74, 1
1, 3079, Note_on_c, 0, 76, 109
1, 3081, Note_off_c, 0, 79, 1
1, 3122, Note_on_c, 0, 78, 109
1, 3124, Note_off_c, 0, 76, 1
1, 3139, Note_off_c, 1, 52, 1
1, 3166, Note_off_c, 0, 78, 1
1, 3166, Note_on_c, 0, 79, 109
1, 3207, Note_on_c, 0, 71, 121
1, 3207, Note_on_c, 1, 62, 127
1, 3208, Note_off_c, 0, 79, 1
1, 3249, Note_on_c, 0, 74, 121
1, 3250, Note_off_c, 0, 71, 1
1, 3291, Note_off_c, 1, 62, 1
1, 3292, Note_on_c, 0, 73, 121
1, 3293, Note_off_c, 0, 74, 1
1, 3335, Note_off_c, 0, 73, 1
1, 3335, Note_on_c, 0, 71, 121
1, 3377, Note_on_c, 0, 73, 121
1, 3377, Note_on_c, 1, 57, 127
1, 3378, Note_off_c, 0, 71, 1
1, 3419, Note_on_c, 0, 76, 109
1, 3420, Note_off_c, 0, 73, 1
1, 3461, Note_off_c, 1, 57, 1
1, 3462, Note_off_c, 0, 76, 1
1, 3462, Note_on_c, 0, 78, 109
1, 3503, Note_off_c, 0, 78, 1
1, 3503, Note_on_c, 0, 79, 109
1, 3543, Note_on_c, 0, 69, 121
1, 3543, Note_on_c, 1, 61, 127
1, 3545, Note_off_c, 0, 79, 1
1, 3584, Note_on_c, 0, 79, 109
1, 3586, Note_off_c, 0, 69, 1
1, 3626, Note_off_c, 1, 61, 1
1, 3627, Note_on_c, 0, 78, 109
1, 3628, Note_off_c, 0, 79, 1
1, 3670, Note_on_c, 0, 76, 109
1, 3671, Note_off_c, 0, 78, 1
1, 3713, Note_on_c, 0, 78, 109
1, 3713, Note_on_c, 1, 50, 127
1, 3715, Note_off_c, 0, 76, 1
1, 3756, Note_on_c, 0, 74, 121
1, 3758, Note_off_c, 0, 78, 1
1, 3799, Note_on_c, 0, 76, 109
1, 3800, Note_off_c, 0, 74, 1
1, 3816, Note_off_c, 1, 50, 1
1, 3840, Note_on_c, 0, 78, 109
1, 3842, Note_off_c, 0, 76, 1
1, 3882, Note_on_c, 0, 69, 121
1, 3882, Note_on_c, 1, 62, 127
1, 3883, Note_off_c, 0, 78, 1
1, 3923, Note_on_c, 0, 73, 121
1, 3925, Note_off_c, 0, 69, 1
1, 3965, Note_off_c, 1, 62, 1
1, 3966, Note_off_c, 0, 73, 1
1, 3966, Note_on_c, 0, 71, 121
1, 4008, Note_off_c, 0, 71, 1
1, 4008, Note_on_c, 0, 69, 121
1, 4050, Note_on_c, 0, 71, 121
1, 4050, Note_on_c, 1, 50, 127
1, 4051, Note_off_c, 0, 69, 1
1, 4092, Note_on_c, 0, 74, 121
1, 4093, Note_off_c, 0, 71, 1
1, 4133, Note_on_c, 0, 76, 109
1, 4134, Note_off_c, 0, 74, 1
1, 4149, Note_off_c, 1, 50, 1
1, 4173, Note_on_c, 0, 78, 109
1, 4175, Note_off_c, 0, 76, 1
1, 4214, Note_on_c, 0, 71, 121
1, 4214, Note_on_c, 1, 62, 127
1, 4216, Note_off_c, 0, 78, 1
1, 4256, Note_on_c, 0, 81, 109
1, 4257, Note_off_c, 0, 71, 1
1, 4298, Note_off_c, 1, 62, 1
1, 4299, Note_on_c, 0, 80, 109
1, 4300, Note_off_c, 0, 81, 1
1, 4341, Note_on_c, 0, 78, 109
1, 4343, Note_off_c, 0, 80, 1
1, 4383, Note_on_c, 0, 80, 109
1, 4383, Note_on_c, 1, 50, 127
1, 4385, Note_off_c, 0, 78, 1
1, 4426, Note_on_c, 0, 76, 109
1, 4427, Note_off_c, 0, 80, 1
1, 4468, Note_on_c, 0, 78, 109
1, 4469, Note_off_c, 0, 76, 1
1, 4486, Note_off_c, 1, 50, 1
1, 4511, Note_on_c, 0, 80, 109
1, 4512, Note_off_c, 0, 78, 1
1, 4553, Note_on_c, 0, 71, 121
1, 4553, Note_on_c, 1, 56, 127
1, 4555, Note_off_c, 0, 80, 1
1, 4595, Note_on_c, 0, 74, 121
1, 4597, Note_off_c, 0, 71, 1
1, 4638, Note_off_c, 1, 56, 1
1, 4639, Note_on_c, 0, 73, 121
1, 4640, Note_off_c, 0, 74, 1
1, 4680, Note_on_c, 0, 71, 121
1, 4681, Note_off_c, 0, 73, 1
1, 4723, Note_on_c, 0, 69, 121
1, 4723, Note_on_c, 1, 49, 127
1, 4725, Note_off_c, 0, 71, 1
1, 4765, Note_on_c, 0, 73, 121
1, 4766, Note_off_c, 0, 69, 1
1, 4807, Note_on_c, 0, 74, 121
1, 4808, Note_off_c, 0, 73, 1
1, 4824, Note_off_c, 1, 49, 1
1, 4848, Note_on_c, 0, 76, 109
1, 4850, Note_off_c, 0, 74, 1
1, 4891, Note_on_c, 1, 66, 127
1, 4891, Note_on_c, 1, 57, 127
1, 4892, Note_off_c, 0, 76, 1
1, 4932, Note_off_c, 1, 66, 1
1, 4932, Note_on_c, 0, 76, 109
1, 4973, Note_off_c, 1, 57, 1
1, 4974, Note_off_c, 0, 76, 1
1, 4974, Note_on_c, 0, 74, 121
1, 5015, Note_on_c, 0, 73, 121
1, 5016, Note_off_c, 0, 74, 1
1, 5058, Note_on_c, 0, 74, 121
1, 5058, Note_on_c, 2, 47, 127
1, 5059, Note_off_c, 0, 73, 1
1, 5100, Note_on_c, 0, 71, 121
1, 5102, Note_off_c, 0, 74, 1
1, 5143, Note_on_c, 0, 73, 121
1, 5144, Note_off_c, 0, 71, 1
1, 5160, Note_off_c, 2, 47, 1
1, 5185, Note_on_c, 0, 74, 121
1, 5186, Note_off_c, 0, 73, 1
1, 5226, Note_on_c, 1, 66, 127
1, 5227, Note_on_c, 1, 57, 127
1, 5228, Note_off_c, 0, 74, 1
1, 5268, Note_off_c, 1, 66, 1
1, 5269, Note_on_c, 0, 69, 121
1, 5311, Note_off_c, 1, 57, 1
1, 5311, Note_off_c, 0, 69, 1
1, 5311, Note_on_c, 0, 68, 121
1, 5352, Note_on_c, 1, 66, 127
1, 5353, Note_off_c, 0, 68, 1
1, 5395, Note_off_c, 1, 66, 1
1, 5396, Note_on_c, 0, 68, 121
1, 5396, Note_on_c, 1, 52, 127
1, 5436, Note_on_c, 0, 71, 121
1, 5437, Note_off_c, 0, 68, 1
1, 5479, Note_off_c, 1, 52, 1
1, 5479, Note_on_c, 0, 73, 121
1, 5480, Note_off_c, 0, 71, 1
1, 5520, Note_off_c, 0, 73, 1
1, 5520, Note_on_c, 0, 74, 121
1, 5560, Note_on_c, 1, 64, 127
1, 5561, Note_on_c, 1, 56, 127
1, 5562, Note_off_c, 0, 74, 1
1, 5602, Note_off_c, 1, 64, 1
1, 5602, Note_on_c, 0, 74, 121
1, 5644, Note_off_c, 1, 56, 1
1, 5644, Note_on_c, 0, 73, 121
1, 5645, Note_off_c, 0, 74, 1
1, 5686, Note_on_c, 0, 71, 121
1, 5687, Note_off_c, 0, 73, 1
1, 5727, Note_on_c, 0, 73, 121
1, 5728, Note_on_c, 2, 45, 127
1, 5729, Note_off_c, 0, 71, 1
1, 5770, Note_on_c, 0, 69, 121
1, 5771, Note_off_c, 0, 73, 1
1, 5812, Note_on_c, 0, 71, 121
1, 5813, Note_off_c, 0, 69, 1
1, 5829, Note_off_c, 2, 45, 1
1, 5854, Note_on_c, 0, 73, 121
1, 5855, Note_off_c, 0, 71, 1
1, 5896, Note_on_c, 1, 64, 127
1, 5897, Note_off_c, 0, 73, 1
1, 5897, Note_on_c, 1, 57, 127
1, 5939, Note_off_c, 1, 64, 1
1, 5939, Note_on_c, 1, 67, 127
1, 5981, Note_off_c, 1, 67, 1
1, 5981, Note_off_c, 1, 57, 1
1, 5982, Note_on_c, 1, 66, 127
1, 6024, Note_off_c, 1, 66, 1
1, 6024, Note_on_c, 1, 64, 127
1, 6066, Note_off_c, 1, 64, 1
1, 6067, Note_on_c, 1, 66, 127
1, 6067, Note_on_c, 2, 45, 127
1, 6108, Note_off_c, 1, 66, 1
1, 6109, Note_on_c, 0, 69, 121
1, 6150, Note_on_c, 0, 71, 121
1, 6151, Note_off_c, 0, 69, 1
1, 6166, Note_off_c, 2, 45, 1
1, 6191, Note_on_c, 0, 73, 121
1, 6193, Note_off_c, 0, 71, 1
1, 6233, Note_on_c, 1, 66, 127
1, 6234, Note_off_c, 0, 73, 1
1, 6234, Note_on_c, 1, 57, 127
1, 6276, Note_off_c, 1, 66, 1
1, 6276, Note_on_c, 0, 76, 109
1, 6318, Note_off_c, 1, 57, 1
1, 6318, Note_on_c, 0, 75, 121
1, 6320, Note_off_c, 0, 76, 1
1, 6361, Note_on_c, 0, 73, 121
1, 6362, Note_off_c, 0, 75, 1
1, 6404, Note_on_c, 0, 75, 121
1, 6405, Note_off_c, 0, 73, 1
1, 6405, Note_on_c, 2, 45, 127
1, 6447, Note_on_c, 0, 71, 121
1, 6448, Note_off_c, 0, 75, 1
1, 6490, Note_on_c, 0, 73, 121
1, 6491, Note_off_c, 0, 71, 1
1, 6506, Note_off_c, 2, 45, 1
1, 6532, Note_on_c, 0, 75, 121
1, 6533, Note_off_c, 0, 73, 1
1, 6574, Note_on_c, 1, 66, 127
1, 6575, Note_on_c, 1, 51, 127
1, 6576, Note_off_c, 0, 75, 1
1, 6616, Note_off_c, 1, 66, 1
1, 6617, Note_on_c, 0, 69, 121
1, 6659, Note_off_c, 1, 51, 1
1, 6659, Note_on_c, 1, 67, 127
1, 6660, Note_off_c, 0, 69, 1
1, 6700, Note_off_c, 1, 67, 1
1, 6700, Note_on_c, 1, 66, 127
1, 6742, Note_off_c, 1, 66, 1
1, 6743, Note_on_c, 1, 64, 127
1, 6743, Note_on_c, 2, 43, 127
1, 6783, Note_off_c, 1, 64, 1
1, 6783, Note_on_c, 1, 67, 127
1, 6825, Note_off_c, 1, 67, 1
1, 6825, Note_on_c, 0, 69, 121
1, 6841, Note_off_c, 2, 43, 1
1, 6865, Note_on_c, 0, 71, 121
1, 6867, Note_off_c, 0, 69, 1
1, 6906, Note_on_c, 1, 61, 127
1, 6907, Note_off_c, 0, 71, 1
1, 6907, Note_on_c, 1, 52, 127
1, 6946, Note_off_c, 1, 61, 1
1, 6946, Note_on_c, 0, 74, 121
1, 6986, Note_off_c, 1, 52, 1
1, 6986, Note_on_c, 0, 73, 121
1, 6988, Note_off_c, 0, 74, 1
1, 7028, Note_on_c, 0, 71, 121
1, 7029, Note_off_c, 0, 73, 1
1, 7069, Note_on_c, 0, 70, 121
1, 7070, Note_on_c, 2, 42, 127
1, 7071, Note_off_c, 0, 71, 1
1, 7112, Note_on_c, 1, 64, 127
1, 7114, Note_off_c, 0, 70, 1
1, 7154, Note_off_c, 1, 64, 1
1, 7154, Note_on_c, 1, 66, 127
1, 7171, Note_off_c, 2, 42, 1
1, 7196, Note_off_c, 1, 66, 1
1, 7197, Note_on_c, 1, 67, 127
1, 7238, Note_off_c, 1, 67, 1
1, 7239, Note_on_c, 1, 61, 127
1, 7239, Note_on_c, 1, 54, 127
1, 7281, Note_off_c, 1, 61, 1
1, 7281, Note_on_c, 1, 67, 127
1, 7323, Note_off_c, 1, 67, 1
1, 7323, Note_off_c, 1, 54, 1
1, 7324, Note_on_c, 1, 66, 127
1, 7365, Note_off_c, 1, 66, 1
1, 7366, Note_on_c, 1, 64, 127
1, 7408, Note_off_c, 1, 64, 1
1, 7408, Note_on_c, 1, 62, 127
1, 7408, Note_on_c, 2, 42, 127
1, 7450, Note_off_c, 1, 62, 1
1, 7450, Note_on_c, 0, 71, 121
1, 7491, Note_on_c, 0, 73, 121
1, 7492, Note_off_c, 0, 71, 1
1, 7507, Note_off_c, 2, 42, 1
1, 7533, Note_off_c, 0, 73, 1
1, 7533, Note_on_c, 0, 74, 121
1, 7573, Note_on_c, 1, 66, 127
1, 7573, Note_on_c, 1, 54, 127
1, 7574, Note_off_c, 0, 74, 1
1, 7614, Note_off_c, 1, 66, 1
1, 7615, Note_on_c, 0, 69, 121
1, 7656, Note_off_c, 0, 69, 1
1, 7656, Note_off_c, 1, 54, 1
1, 7656, Note_on_c, 0, 68, 121
1, 7698, Note_off_c, 0, 68, 1
1, 7698, Note_on_c, 1, 66, 127
1, 7740, Note_off_c, 1, 66, 1
1, 7740, Note_on_c, 1, 65, 127
1, 7740, Note_on_c, 2, 42, 127
1, 7782, Note_off_c, 1, 65, 1
1, 7782, Note_on_c, 0, 68, 121
1, 7825, Note_on_c, 0, 69, 121
1, 7826, Note_off_c, 0, 68, 1
1, 7841, Note_off_c, 2, 42, 1
1, 7868, Note_on_c, 0, 71, 121
1, 7869, Note_off_c, 0, 69, 1
1, 7910, Note_on_c, 1, 54, 127
1, 7910, Note_on_c, 1, 65, 127
1, 7912, Note_off_c, 0, 71, 1
1, 7953, Note_off_c, 1, 65, 1
1, 7954, Note_on_c, 0, 74, 121
1, 7995, Note_off_c, 1, 54, 1
1, 7996, Note_on_c, 0, 73, 121
1, 7997, Note_off_c, 0, 74, 1
1, 8038, Note_on_c, 0, 71, 121
1, 8039, Note_off_c, 0, 73, 1
1, 8080, Note_on_c, 0, 80, 109
1, 8080, Note_on_c, 2, 42, 127
1, 8081, Note_off_c, 0, 71, 1
1, 8122, Note_on_c, 0, 77, 109
1, 8123, Note_off_c, 0, 80, 1
1, 8163, Note_on_c, 0, 78, 109
1, 8164, Note_off_c, 0, 77, 1
1, 8180, Note_off_c, 2, 42, 1
1, 8205, Note_on_c, 0, 80, 109
1, 8207, Note_off_c, 0, 78, 1
1, 8246, Note_on_c, 0, 73, 121
1, 8246, Note_on_c, 1, 54, 127
1, 8247, Note_off_c, 0, 80, 1
1, 8288, Note_on_c, 0, 83, 109
1, 8289, Note_off_c, 0, 73, 1
1, 8330, Note_off_c, 1, 54, 1
1, 8331, Note_off_c, 0, 83, 1
1, 8331, Note_on_c, 0, 81, 109
1, 8373, Note_on_c, 0, 80, 109
1, 8374, Note_off_c, 0, 81, 1
1, 8415, Note_on_c, 0, 81, 109
1, 8415, Note_on_c, 2, 42, 127
1, 8417, Note_off_c, 0, 80, 1
1, 8457, Note_on_c, 0, 78, 109
1, 8459, Note_off_c, 0, 81, 1
1, 8499, Note_on_c, 0, 80, 109
1, 8501, Note_off_c, 0, 78, 1
1, 8517, Note_off_c, 2, 42, 1
1, 8543, Note_on_c, 0, 81, 109
1, 8544, Note_off_c, 0, 80, 1
1, 8585, Note_on_c, 0, 73, 121
1, 8585, Note_on_c, 1, 54, 127
1, 8586, Note_off_c, 0, 81, 1
1, 8627, Note_on_c, 0, 76, 109
1, 8628, Note_off_c, 0, 73, 1
1, 8669, Note_off_c, 1, 54, 1
1, 8670, Note_on_c, 0, 75, 121
1, 8671, Note_off_c, 0, 76, 1
1, 8712, Note_on_c, 0, 73, 121
1, 8713, Note_off_c, 0, 75, 1
1, 8755, Note_on_c, 0, 75, 121
1, 8755, Note_on_c, 2, 47, 127
1, 8756, Note_off_c, 0, 73, 1
1, 8797, Note_on_c, 0, 78, 109
1, 8799, Note_off_c, 0, 75, 1
1, 8839, Note_off_c, 2, 47, 1
1, 8840, Note_on_c, 0, 79, 109
1, 8841, Note_off_c, 0, 78, 1
1, 8881, Note_on_c, 0, 81, 109
1, 8882, Note_off_c, 0, 79, 1
1, 8923, Note_on_c, 0, 71, 121
1, 8923, Note_on_c, 1, 51, 127
1, 8925, Note_off_c, 0, 81, 1
1, 8964, Note_on_c, 0, 81, 109
1, 8965, Note_off_c, 0, 71, 1
1, 9005, Note_off_c, 1, 51, 1
1, 9006, Note_off_c, 0, 81, 1
1, 9006, Note_on_c, 0, 79, 109
1, 9047, Note_on_c, 0, 78, 109
1, 9048, Note_off_c, 0, 79, 1
1, 9090, Note_on_c, 0, 79, 109
1, 9090, Note_on_c, 2, 40, 127
1, 9091, Note_off_c, 0, 78, 1
1, 9131, Note_on_c, 0, 76, 109
1, 9132, Note_off_c, 0, 79, 1
1, 9173, Note_on_c, 0, 78, 109
1, 9174, Note_off_c, 0, 76, 1
1, 9190, Note_off_c, 2, 40, 1
1, 9216, Note_off_c, 0, 78, 1
1, 9216, Note_on_c, 0, 79, 109
1, 9257, Note_on_c, 0, 71, 121
1, 9257, Note_on_c, 1, 52, 127
1, 9258, Note_off_c, 0, 79, 1
1, 9297, Note_on_c, 0, 74, 121
1, 9299, Note_off_c, 0, 71, 1
1, 9337, Note_off_c, 1, 52, 1
1, 9338, Note_on_c, 0, 72, 121
1, 9339, Note_off_c, 0, 74, 1
1, 9379, Note_on_c, 0, 71, 121
1, 9380, Note_off_c, 0, 72, 1
1, 9420, Note_on_c, 0, 72, 121
1, 9420, Note_on_c, 2, 40, 127
1, 9421, Note_off_c, 0, 71, 1
1, 9461, Note_on_c, 0, 75, 121
1, 9462, Note_off_c, 0, 72, 1
1, 9502, Note_on_c, 0, 76, 109
1, 9504, Note_off_c, 0, 75, 1
1, 9518, Note_off_c, 2, 40, 1
1, 9543, Note_on_c, 0, 78, 109
1, 9544, Note_off_c, 0, 76, 1
1, 9584, Note_on_c, 0, 69, 121
1, 9585, Note_off_c, 0, 78, 1
1, 9585, Note_on_c, 1, 51, 127
1, 9626, Note_on_c, 0, 72, 121
1, 9627, Note_off_c, 0, 69, 1
1, 9668, Note_off_c, 1, 51, 1
1, 9668, Note_on_c, 0, 71, 121
1, 9669, Note_off_c, 0, 72, 1
1, 9709, Note_on_c, 0, 69, 121
1, 9710, Note_off_c, 0, 71, 1
1, 9751, Note_on_c, 1, 67, 127
1, 9751, Note_on_c, 2, 40, 127
1, 9752, Note_off_c, 0, 69, 1
1, 9794, Note_off_c, 1, 67, 1
1, 9794, Note_on_c, 0, 76, 109
1, 9837, Note_on_c, 0, 78, 109
1, 9839, Note_off_c, 0, 76, 1
1, 9855, Note_off_c, 2, 40, 1
1, 9881, Note_on_c, 0, 79, 109
1, 9883, Note_off_c, 0, 78, 1
1, 9924, Note_on_c, 0, 71, 121
1, 9925, Note_on_c, 1, 52, 127
1, 9926, Note_off_c, 0, 79, 1
1, 9969, Note_off_c, 0, 71, 1
1, 9969, Note_on_c, 0, 74, 121
1, 10012, Note_off_c, 1, 52, 1
1, 10012, Note_on_c, 0, 73, 121
1, 10013, Note_off_c, 0, 74, 1
1, 10054, Note_on_c, 0, 71, 121
1, 10055, Note_off_c, 0, 73, 1
1, 10096, Note_on_c, 0, 73, 121
1, 10097, Note_off_c, 0, 71, 1
1, 10097, Note_on_c, 2, 45, 127
1, 10139, Note_off_c, 0, 73, 1
1, 10139, Note_on_c, 0, 76, 109
1, 10180, Note_off_c, 2, 45, 1
1, 10180, Note_on_c, 0, 78, 109
1, 10181, Note_off_c, 0, 76, 1
1, 10222, Note_on_c, 0, 79, 109
1, 10224, Note_off_c, 0, 78, 1
1, 10265, Note_on_c, 0, 69, 121
1, 10266, Note_off_c, 0, 79, 1
1, 10266, Note_on_c, 1, 49, 127
1, 10308, Note_on_c, 0, 79, 109
1, 10309, Note_off_c, 0, 69, 1
1, 10351, Note_off_c, 1, 49, 1
1, 10351, Note_on_c, 0, 78, 109
1, 10352, Note_off_c, 0, 79, 1
1, 10394, Note_off_c, 0, 78, 1
1, 10394, Note_on_c, 0, 76, 109
1, 10437, Note_on_c, 0, 78, 109
1, 10438, Note_off_c, 0, 76, 1
1, 10438, Note_on_c, 2, 38, 127
1, 10479, Note_on_c, 0, 74, 121
1, 10481, Note_off_c, 0, 78, 1
1, 10523, Note_on_c, 0, 76, 109
1, 10524, Note_off_c, 0, 74, 1
1, 10539, Note_off_c, 2, 38, 1
1, 10566, Note_on_c, 0, 78, 109
1, 10567, Note_off_c, 0, 76, 1
1, 10608, Note_on_c, 0, 69, 121
1, 10608, Note_on_c, 1, 50, 127
1, 10610, Note_off_c, 0, 78, 1
1, 10650, Note_on_c, 0, 72, 121
1, 10652, Note_off_c, 0, 69, 1
1, 10692, Note_off_c, 1, 50, 1
1, 10693, Note_on_c, 0, 71, 121
1, 10694, Note_off_c, 0, 72, 1
1, 10735, Note_off_c, 0, 71, 1
1, 10735, Note_on_c, 0, 69, 121
1, 10776, Note_on_c, 0, 71, 121
1, 10776, Note_on_c, 2, 38, 127
1, 10778, Note_off_c, 0, 69, 1
1, 10818, Note_on_c, 1, 67, 127
1, 10820, Note_off_c, 0, 71, 1
1, 10860, Note_off_c, 1, 67, 1
1, 10861, Note_on_c, 0, 69, 121
1, 10877, Note_off_c, 2, 38, 1
1, 10902, Note_on_c, 0, 71, 121
1, 10904, Note_off_c, 0, 69, 1
1, 10943, Note_on_c, 1, 61, 127
1, 10944, Note_on_c, 1, 50, 127
1, 10945, Note_off_c, 0, 71, 1
1, 10984, Note_off_c, 1, 61, 1
1, 10985, Note_on_c, 0, 71, 121
1, 11026, Note_off_c, 1, 50, 1
1, 11026, Note_on_c, 0, 69, 121
1, 11027, Note_off_c, 0, 71, 1
1, 11066, Note_on_c, 1, 67, 127
1, 11068, Note_off_c, 0, 69, 1
1, 11108, Note_off_c, 1, 67, 1
1, 11109, Note_on_c, 1, 66, 127
1, 11109, Note_on_c, 2, 38, 127
1, 11151, Note_off_c, 1, 66, 1
1, 11152, Note_on_c, 1, 62, 127
1, 11194, Note_off_c, 1, 62, 1
1, 11194, Note_on_c, 1, 64, 127
1, 11211, Note_off_c, 2, 38, 1
1, 11237, Note_off_c, 1, 64, 1
1, 11237, Note_on_c, 1, 66, 127
1, 11279, Note_off_c, 1, 66, 1
1, 11280, Note_on_c, 1, 57, 127
1, 11280, Note_on_c, 1, 50, 127
1, 11322, Note_off_c, 1, 57, 1
1, 11323, Note_on_c, 1, 60, 127
1, 11364, Note_off_c, 1, 60, 1
1, 11365, Note_off_c, 1, 50, 1
1, 11365, Note_on_c, 1, 59, 127
1, 11407, Note_off_c, 1, 59, 1
1, 11407, Note_on_c, 1, 57, 127
1, 11449, Note_off_c, 1, 57, 1
1, 11449, Note_on_c, 1, 59, 127
1, 11450, Note_on_c, 2, 38, 127
1, 11491, Note_off_c, 1, 59, 1
1, 11492, Note_on_c, 1, 62, 127
1, 11532, Note_off_c, 1, 62, 1
1, 11533, Note_on_c, 1, 64, 127
1, 11549, Note_off_c, 2, 38, 1
1, 11574, Note_off_c, 1, 64, 1
1, 11574, Note_on_c, 1, 66, 127
1, 11615, Note_off_c, 1, 66, 1
1, 11616, Note_on_c, 1, 59, 127
1, 11616, Note_on_c, 1, 50, 127
1, 11656, Note_off_c, 1, 59, 1
1, 11657, Note_on_c, 0, 69, 121
1, 11698, Note_off_c, 1, 50, 1
1, 11698, Note_on_c, 0, 68, 121
1, 11699, Note_off_c, 0, 69, 1
1, 11739, Note_on_c, 1, 66, 127
1, 11740, Note_off_c, 0, 68, 1
1, 11781, Note_off_c, 1, 66, 1
1, 11782, Note_on_c, 0, 68, 121
1, 11782, Note_on_c, 2, 38, 127
1, 11823, Note_on_c, 1, 64, 127
1, 11825, Note_off_c, 0, 68, 1
1, 11866, Note_off_c, 1, 64, 1
1, 11866, Note_on_c, 1, 66, 127
1, 11883, Note_off_c, 2, 38, 1
1, 11908, Note_off_c, 1, 66, 1
1, 11908, Note_on_c, 0, 68, 121
1, 11950, Note_on_c, 1, 59, 127
1, 11951, Note_off_c, 0, 68, 1
1, 11951, Note_on_c, 1, 56, 127
1, 11991, Note_off_c, 1, 59, 1
1, 11992, Note_on_c, 1, 62, 127
1, 12034, Note_off_c, 1, 62, 1
1, 12034, Note_off_c, 1, 56, 1
1, 12035, Note_on_c, 1, 60, 127
1, 12075, Note_off_c, 1, 60, 1
1, 12075, Note_on_c, 1, 59, 127
1, 12117, Note_off_c, 1, 59, 1
1, 12118, Note_on_c, 1, 57, 127
1, 12118, Note_on_c, 2, 48, 127
1, 12158, Note_off_c, 1, 57, 1
1, 12158, Note_on_c, 1, 60, 127
1, 12199, Note_off_c, 1, 60, 1
1, 12199, Note_on_c, 1, 62, 127
1, 12215, Note_off_c, 2, 48, 1
1, 12240, Note_off_c, 1, 62, 1
1, 12240, Note_on_c, 1, 64, 127
1, 12279, Note_off_c, 1, 64, 1
1, 12280, Note_on_c, 1, 57, 127
1, 12281, Note_on_c, 1, 54, 127
1, 12320, Note_off_c, 1, 57, 1
1, 12321, Note_on_c, 1, 67, 127
1, 12361, Note_off_c, 1, 67, 1
1, 12361, Note_off_c, 1, 54, 1
1, 12362, Note_on_c, 1, 66, 127
1, 12402, Note_off_c, 1, 66, 1
1, 12403, Note_on_c, 1, 64, 127
1, 12444, Note_off_c, 1, 64, 1
1, 12444, Note_on_c, 1, 63, 127
1, 12444, Note_on_c, 2, 47, 127
1, 12486, Note_off_c, 1, 63, 1
1, 12487, Note_on_c, 1, 57, 127
1, 12528, Note_off_c, 1, 57, 1
1, 12529, Note_on_c, 1, 59, 127
1, 12544, Note_off_c, 2, 47, 1
1, 12571, Note_off_c, 1, 59, 1
1, 12571, Note_on_c, 1, 60, 127
1, 12612, Note_off_c, 1, 60, 1
1, 12612, Note_on_c, 1, 54, 127
1, 12613, Note_on_c, 1, 51, 127
1, 12654, Note_off_c, 1, 54, 1
1, 12655, Note_on_c, 1, 60, 127
1, 12696, Note_off_c, 1, 60, 1
1, 12696, Note_off_c, 1, 51, 1
1, 12696, Note_on_c, 1, 59, 127
1, 12737, Note_off_c, 1, 59, 1
1, 12737, Note_on_c, 1, 57, 127
1, 12778, Note_off_c, 1, 57, 1
1, 12779, Note_on_c, 1, 55, 127
1, 12779, Note_on_c, 1, 52, 127
1, 12818, Note_off_c, 1, 55, 1
1, 12819, Note_on_c, 1, 64, 127
1, 12860, Note_off_c, 1, 64, 1
1, 12860, Note_off_c, 1, 52, 1
1, 12861, Note_on_c, 1, 66, 127
1, 12900, Note_off_c, 1, 66, 1
1, 12900, Note_on_c, 1, 67, 127
1, 12941, Note_off_c, 1, 67, 1
1, 12942, Note_on_c, 1, 55, 127
1, 12942, Note_on_c, 1, 59, 127
1, 12983, Note_off_c, 1, 59, 1
1, 12983, Note_on_c, 1, 62, 127
1, 13024, Note_off_c, 1, 62, 1
1, 13024, Note_off_c, 1, 55, 1
1, 13025, Note_on_c, 1, 61, 127
1, 13065, Note_off_c, 1, 61, 1
1, 13066, Note_on_c, 1, 59, 127
1, 13107, Note_off_c, 1, 59, 1
1, 13108, Note_on_c, 1, 58, 127
1, 13108, Note_on_c, 2, 47, 127
1, 13148, Note_off_c, 1, 58, 1
1, 13148, Note_on_c, 1, 61, 127
1, 13189, Note_off_c, 1, 61, 1
1, 13189, Note_on_c, 1, 62, 127
1, 13206, Note_off_c, 2, 47, 1
1, 13230, Note_off_c, 1, 62, 1
1, 13231, Note_on_c, 1, 64, 127
1, 13272, Note_off_c, 1, 64, 1
1, 13273, Note_on_c, 1, 58, 127
1, 13273, Note_on_c, 1, 52, 127
1, 13314, Note_off_c, 1, 58, 1
1, 13314, Note_on_c, 1, 67, 127
1, 13355, Note_off_c, 1, 67, 1
1, 13356, Note_off_c, 1, 52, 1
1, 13356, Note_on_c, 1, 66, 127
1, 13397, Note_off_c, 1, 66, 1
1, 13398, Note_on_c, 1, 64, 127
1, 13439, Note_off_c, 1, 64, 1
1, 13439, Note_on_c, 0, 73, 121
1, 13440, Note_on_c, 1, 55, 127
1, 13479, Note_on_c, 0, 70, 121
1, 13481, Note_off_c, 0, 73, 1
1, 13520, Note_off_c, 1, 55, 1
1, 13521, Note_on_c, 0, 71, 121
1, 13522, Note_off_c, 0, 70, 1
1, 13561, Note_on_c, 0, 73, 121
1, 13563, Note_off_c, 0, 71, 1
1, 13603, Note_on_c, 1, 58, 127
1, 13603, Note_on_c, 1, 66, 127
1, 13605, Note_off_c, 0, 73, 1
1, 13644, Note_off_c, 1, 66, 1
1, 13644, Note_on_c, 0, 76, 109
1, 13685, Note_off_c, 1, 58, 1
1, 13686, Note_off_c, 0, 76, 1
1, 13686, Note_on_c, 0, 74, 121
1, 13727, Note_on_c, 0, 73, 121
1, 13728, Note_off_c, 0, 74, 1
1, 13769, Note_on_c, 0, 74, 121
1, 13769, Note_on_c, 2, 47, 127
1, 13771, Note_off_c, 0, 73, 1
1, 13811, Note_on_c, 0, 71, 121
1, 13812, Note_off_c, 0, 74, 1
1, 13852, Note_on_c, 0, 73, 121
1, 13854, Note_off_c, 0, 71, 1
1, 13870, Note_off_c, 2, 47, 1
1, 13895, Note_on_c, 0, 74, 121
1, 13896, Note_off_c, 0, 73, 1
1, 13938, Note_on_c, 1, 66, 127
1, 13938, Note_on_c, 1, 59, 127
1, 13940, Note_off_c, 0, 74, 1
1, 13980, Note_off_c, 1, 66, 1
1, 13980, Note_on_c, 0, 69, 121
1, 14023, Note_off_c, 1, 59, 1
1, 14024, Note_off_c, 0, 69, 1
1, 14024, Note_on_c, 0, 68, 121
1, 14064, Note_on_c, 1, 66, 127
1, 14066, Note_off_c, 0, 68, 1
1, 14107, Note_off_c, 1, 66, 1
1, 14107, Note_on_c, 0, 68, 121
1, 14108, Note_on_c, 1, 52, 127
1, 14148, Note_on_c, 0, 71, 121
1, 14149, Note_off_c, 0, 68, 1
1, 14189, Note_off_c, 1, 52, 1
1, 14190, Note_on_c, 0, 72, 121
1, 14191, Note_off_c, 0, 71, 1
1, 14231, Note_on_c, 0, 74, 121
1, 14232, Note_off_c, 0, 72, 1
1, 14272, Note_on_c, 1, 64, 127
1, 14273, Note_on_c, 1, 56, 127
1, 14274, Note_off_c, 0, 74, 1
1, 14312, Note_off_c, 1, 64, 1
1, 14313, Note_on_c, 0, 74, 121
1, 14352, Note_off_c, 1, 56, 1
1, 14352, Note_on_c, 0, 72, 121
1, 14353, Note_off_c, 0, 74, 1
1, 14393, Note_on_c, 0, 71, 121
1, 14394, Note_off_c, 0, 72, 1
1, 14433, Note_on_c, 0, 72, 121
1, 14434, Note_on_c, 2, 45, 127
1, 14435, Note_off_c, 0, 71, 1
1, 14475, Note_on_c, 0, 69, 121
1, 14476, Note_off_c, 0, 72, 1
1, 14516, Note_on_c, 0, 71, 121
1, 14517, Note_off_c, 0, 69, 1
1, 14532, Note_off_c, 2, 45, 1
1, 14557, Note_on_c, 0, 72, 121
1, 14558, Note_off_c, 0, 71, 1
1, 14599, Note_off_c, 0, 72, 1
1, 14599, Note_on_c, 1, 57, 127
1, 14599, Note_on_c, 1, 64, 127
1, 14640, Note_off_c, 1, 64, 1
1, 14640, Note_on_c, 1, 67, 127
1, 14682, Note_off_c, 1, 67, 1
1, 14683, Note_off_c, 1, 57, 1
1, 14683, Note_on_c, 1, 66, 127
1, 14724, Note_off_c, 1, 66, 1
1, 14724, Note_on_c, 1, 64, 127
1, 14767, Note_off_c, 1, 64, 1
1, 14767, Note_on_c, 1, 66, 127
1, 14768, Note_on_c, 1, 50, 127
1, 14810, Note_off_c, 1, 66, 1
1, 14810, Note_on_c, 0, 69, 121
1, 14852, Note_off_c, 1, 50, 1
1, 14852, Note_on_c, 0, 71, 121
1, 14853, Note_off_c, 0, 69, 1
1, 14894, Note_on_c, 0, 72, 121
1, 14895, Note_off_c, 0, 71, 1
1, 14936, Note_on_c, 1, 62, 127
1, 14936, Note_on_c, 1, 54, 127
1, 14937, Note_off_c, 0, 72, 1
1, 14976, Note_off_c, 1, 62, 1
1, 14976, Note_on_c, 0, 72, 121
1, 15016, Note_off_c, 1, 54, 1
1, 15017, Note_on_c, 0, 71, 121
1, 15018, Note_off_c, 0, 72, 1
1, 15059, Note_off_c, 0, 71, 1
1, 15059, Note_on_c, 0, 69, 121
1, 15101, Note_on_c, 0, 71, 121
1, 15101, Note_on_c, 2, 43, 127
1, 15102, Note_off_c, 0, 69, 1
1, 15143, Note_on_c, 1, 67, 127
1, 15144, Note_off_c, 0, 71, 1
1, 15185, Note_off_c, 1, 67, 1
1, 15186, Note_on_c, 0, 69, 121
1, 15203, Note_off_c, 2, 43, 1
1, 15228, Note_on_c, 0, 71, 121
1, 15229, Note_off_c, 0, 69, 1
1, 15271, Note_on_c, 1, 62, 127
1, 15271, Note_on_c, 1, 55, 127
1, 15272, Note_off_c, 0, 71, 1
1, 15314, Note_off_c, 1, 62, 1
1, 15314, Note_on_c, 0, 71, 121
1, 15356, Note_off_c, 1, 55, 1
1, 15357, Note_off_c, 0, 71, 1
1, 15357, Note_on_c, 0, 69, 121
1, 15397, Note_on_c, 1, 67, 127
1, 15399, Note_off_c, 0, 69, 1
1, 15440, Note_off_c, 1, 67, 1
1, 15440, Note_on_c, 0, 74, 121
1, 15441, Note_on_c, 2, 47, 127
1, 15481, Note_on_c, 1, 67, 127
1, 15482, Note_off_c, 0, 74, 1
1, 15522, Note_off_c, 1, 67, 1
1, 15523, Note_on_c, 0, 69, 121
1, 15539, Note_off_c, 2, 47, 1
1, 15564, Note_off_c, 0, 69, 1
1, 15564, Note_on_c, 0, 71, 121
1, 15605, Note_on_c, 1, 62, 127
1, 15605, Note_on_c, 1, 55, 127
1, 15607, Note_off_c, 0, 71, 1
1, 15647, Note_off_c, 1, 62, 1
1, 15648, Note_on_c, 0, 71, 121
1, 15687, Note_off_c, 1, 55, 1
1, 15688, Note_on_c, 0, 69, 121
1, 15689, Note_off_c, 0, 71, 1
1, 15730, Note_on_c, 1, 67, 127
1, 15731, Note_off_c, 0, 69, 1
1, 15772, Note_off_c, 1, 67, 1
1, 15772, Note_on_c, 0, 72, 121
1, 15773, Note_on_c, 2, 45, 127
1, 15814, Note_on_c, 0, 69, 121
1, 15815, Note_off_c, 0, 72, 1
1, 15856, Note_on_c, 0, 71, 121
1, 15858, Note_off_c, 0, 69, 1
1, 15874, Note_off_c, 2, 45, 1
1, 15899, Note_on_c, 0, 72, 121
1, 15900, Note_off_c, 0, 71, 1
1, 15941, Note_on_c, 1, 64, 127
1, 15941, Note_on_c, 1, 55, 127
1, 15943, Note_off_c, 0, 72, 1
1, 15983, Note_off_c, 1, 64, 1
1, 15984, Note_on_c, 1, 67, 127
1, 16025, Note_off_c, 1, 67, 1
1, 16026, Note_off_c, 1, 55, 1
1, 16026, Note_on_c, 1, 66, 127
1, 16068, Note_off_c, 1, 66, 1
1, 16068, Note_on_c, 1, 64, 127
1, 16109, Note_off_c, 1, 64, 1
1, 16109, Note_on_c, 1, 66, 127
1, 16110, Note_on_c, 1, 50, 127
1, 16151, Note_off_c, 1, 66, 1
1, 16152, Note_on_c, 0, 69, 121
1, 16193, Note_off_c, 1, 50, 1
1, 16194, Note_off_c, 0, 69, 1
1, 16194, Note_on_c, 0, 71, 121
1, 16236, Note_off_c, 0, 71, 1
1, 16236, Note_on_c, 0, 72, 121
1, 16277, Note_on_c, 1, 62, 127
1, 16278, Note_on_c, 1, 54, 127
1, 16279, Note_off_c, 0, 72, 1
1, 16318, Note_off_c, 1, 62, 1
1, 16319, Note_on_c, 0, 72, 121
1, 16359, Note_off_c, 1, 54, 1
1, 16360, Note_on_c, 0, 71, 121
1, 16361, Note_off_c, 0, 72, 1
1, 16401, Note_on_c, 0, 69, 121
1, 16402, Note_off_c, 0, 71, 1
1, 16443, Note_on_c, 0, 71, 121
1, 16443, Note_on_c, 2, 43, 127
1, 16444, Note_off_c, 0, 69, 1
1, 16484, Note_on_c, 1, 67, 127
1, 16485, Note_off_c, 0, 71, 1
1, 16525, Note_off_c, 1, 67, 1
1, 16526, Note_on_c, 0, 69, 121
1, 16542, Note_off_c, 2, 43, 1
1, 16568, Note_on_c, 0, 71, 121
1, 16569, Note_off_c, 0, 69, 1
1, 16610, Note_on_c, 1, 62, 127
1, 16610, Note_on_c, 1, 55, 127
1, 16612, Note_off_c, 0, 71, 1
1, 16652, Note_off_c, 1, 62, 1
1, 16653, Note_on_c, 1, 66, 127
1, 16694, Note_off_c, 1, 66, 1
1, 16695, Note_off_c, 1, 55, 1
1, 16695, Note_on_c, 1, 64, 127
1, 16736, Note_off_c, 1, 64, 1
1, 16736, Note_on_c, 1, 62, 127
1, 16779, Note_off_c, 1, 62, 1
1, 16779, Note_on_c, 1, 64, 127
1, 16780, Note_on_c, 2, 43, 127
1, 16821, Note_off_c, 1, 64, 1
1, 16822, Note_on_c, 1, 67, 127
1, 16864, Note_off_c, 1, 67, 1
1, 16865, Note_on_c, 0, 69, 121
1, 16882, Note_off_c, 2, 43, 1
1, 16907, Note_on_c, 0, 71, 121
1, 16908, Note_off_c, 0, 69, 1
1, 16949, Note_on_c, 1, 64, 127
1, 16950, Note_off_c, 0, 71, 1
1, 16950, Note_on_c, 1, 55, 127
1, 16991, Note_off_c, 1, 64, 1
1, 16991, Note_on_c, 0, 74, 121
1, 17030, Note_off_c, 1, 55, 1
1, 17031, Note_on_c, 0, 73, 121
1, 17032, Note_off_c, 0, 74, 1
1, 17072, Note_on_c, 0, 71, 121
1, 17073, Note_off_c, 0, 73, 1
1, 17114, Note_on_c, 0, 73, 121
1, 17114, Note_on_c, 2, 43, 127
1, 17115, Note_off_c, 0, 71, 1
1, 17156, Note_on_c, 0, 69, 121
1, 17157, Note_off_c, 0, 73, 1
1, 17199, Note_on_c, 0, 71, 121
1, 17200, Note_off_c, 0, 69, 1
1, 17215, Note_off_c, 2, 43, 1
1, 17240, Note_on_c, 0, 73, 121
1, 17242, Note_off_c, 0, 71, 1
1, 17282, Note_on_c, 1, 64, 127
1, 17283, Note_on_c, 1, 49, 127
1, 17284, Note_off_c, 0, 73, 1
1, 17326, Note_off_c, 1, 64, 1
1, 17326, Note_on_c, 1, 67, 127
1, 17368, Note_off_c, 1, 67, 1
1, 17368, Note_off_c, 1, 49, 1
1, 17369, Note_on_c, 1, 66, 127
1, 17410, Note_off_c, 1, 66, 1
1, 17411, Note_on_c, 1, 64, 127
1, 17453, Note_off_c, 1, 64, 1
1, 17454, Note_on_c, 1, 62, 127
1, 17454, Note_on_c, 2, 42, 127
1, 17495, Note_off_c, 1, 62, 1
1, 17495, Note_on_c, 1, 66, 127
1, 17536, Note_off_c, 1, 66, 1
1, 17536, Note_on_c, 1, 67, 127
1, 17552, Note_off_c, 2, 42, 1
1, 17577, Note_off_c, 1, 67, 1
1, 17578, Note_on_c, 0, 69, 121
1, 17618, Note_on_c, 1, 59, 127
1, 17619, Note_off_c, 0, 69, 1
1, 17619, Note_on_c, 1, 50, 127
1, 17659, Note_off_c, 1, 59, 1
1, 17659, Note_on_c, 0, 69, 121
1, 17700, Note_off_c, 1, 50, 1
1, 17700, Note_on_c, 1, 67, 127
1, 17701, Note_off_c, 0, 69, 1
1, 17741, Note_off_c, 1, 67, 1
1, 17742, Note_on_c, 1, 66, 127
1, 17784, Note_off_c, 1, 66, 1
1, 17784, Note_on_c, 1, 67, 127
1, 17784, Note_on_c, 2, 40, 127
1, 17827, Note_off_c, 1, 67, 1
1, 17827, Note_on_c, 1, 64, 127
1, 17869, Note_off_c, 1, 64, 1
1, 17869, Note_on_c, 1, 66, 127
1, 17885, Note_off_c, 2, 40, 1
1, 17911, Note_off_c, 1, 66, 1
1, 17912, Note_on_c, 1, 67, 127
1, 17954, Note_off_c, 1, 67, 1
1, 17955, Note_on_c, 1, 50, 127
1, 17955, Note_on_c, 1, 59, 127
1, 17997, Note_off_c, 1, 59, 1
1, 17997, Note_on_c, 1, 62, 127
1, 18039, Note_off_c, 1, 62, 1
1, 18039, Note_off_c, 1, 50, 1
1, 18040, Note_on_c, 1, 61, 127
1, 18082, Note_off_c, 1, 61, 1
1, 18083, Note_on_c, 1, 59, 127
1, 18124, Note_off_c, 1, 59, 1
1, 18125, Note_on_c, 1, 61, 127
1, 18125, Note_on_c, 2, 45, 127
1, 18166, Note_off_c, 1, 61, 1
1, 18166, Note_on_c, 1, 64, 127
1, 18208, Note_off_c, 1, 64, 1
1, 18208, Note_on_c, 1, 66, 127
1, 18224, Note_off_c, 2, 45, 1
1, 18249, Note_off_c, 1, 66, 1
1, 18250, Note_on_c, 1, 67, 127
1, 18290, Note_off_c, 1, 67, 1
1, 18291, Note_on_c, 1, 57, 127
1, 18291, Note_on_c, 1, 49, 127
1, 18332, Note_off_c, 1, 57, 1
1, 18332, Note_on_c, 1, 67, 127
1, 18375, Note_off_c, 1, 67, 1
1, 18375, Note_off_c, 1, 49, 1
1, 18376, Note_on_c, 1, 66, 127
1, 18418, Note_off_c, 1, 66, 1
1, 18419, Note_on_c, 1, 64, 127
1, 18461, Note_off_c, 1, 64, 1
1, 18462, Note_on_c, 1, 66, 127
1, 18462, Note_on_c, 2, 38, 127
1, 18504, Note_off_c, 1, 66, 1
1, 18504, Note_on_c, 1, 62, 127
1, 18547, Note_off_c, 1, 62, 1
1, 18547, Note_on_c, 1, 64, 127
1, 18564, Note_off_c, 2, 38, 1
1, 18590, Note_off_c, 1, 64, 1
1, 18590, Note_on_c, 1, 66, 127
1, 18633, Note_off_c, 1, 66, 1
1, 18634, Note_on_c, 1, 57, 127
1, 18634, Note_on_c, 1, 50, 127
1, 18677, Note_off_c, 1, 57, 1
1, 18677, Note_on_c, 1, 66, 127
1, 18719, Note_off_c, 1, 66, 1
1, 18719, Note_off_c, 1, 50, 1
1, 18720, Note_on_c, 1, 64, 127
1, 18762, Note_off_c, 1, 64, 1
1, 18762, Note_on_c, 1, 62, 127
1, 18805, Note_off_c, 1, 62, 1
1, 18805, Note_on_c, 0, 69, 123
1, 18806, Note_on_c, 2, 42, 127
1, 18847, Note_on_c, 1, 66, 127
1, 18849, Note_off_c, 0, 69, 1
1, 18889, Note_off_c, 1, 66, 1
1, 18890, Note_on_c, 1, 67, 127
1, 18907, Note_off_c, 2, 42, 1
1, 18932, Note_off_c, 1, 67, 1
1, 18932, Note_on_c, 0, 69, 123
1, 18973, Note_on_c, 1, 62, 127
1, 18973, Note_on_c, 1, 57, 127
1, 18975, Note_off_c, 0, 69, 1
1, 19015, Note_off_c, 1, 62, 1
1, 19016, Note_on_c, 0, 72, 123
1, 19056, Note_off_c, 0, 72, 1
1, 19056, Note_off_c, 1, 57, 1
1, 19056, Note_on_c, 0, 71, 123
1, 19097, Note_on_c, 0, 69, 123
1, 19098, Note_off_c, 0, 71, 1
1, 19139, Note_on_c, 0, 71, 123
1, 19140, Note_on_c, 2, 43, 127
1, 19141, Note_off_c, 0, 69, 1
1, 19183, Note_off_c, 0, 71, 1
1, 19183, Note_on_c, 1, 67, 127
1, 19224, Note_off_c, 1, 67, 1
1, 19224, Note_on_c, 0, 69, 123
1, 19265, Note_on_c, 0, 71, 123
1, 19267, Note_off_c, 0, 69, 1
1, 19273, Note_off_c, 2, 43, 1
1, 19308, Note_on_c, 1, 62, 127
1, 19309, Note_on_c, 1, 55, 127
1, 19310, Note_off_c, 0, 71, 1
1, 19352, Note_off_c, 1, 62, 1
1, 19352, Note_on_c, 0, 71, 123
1, 19393, Note_off_c, 0, 71, 1
1, 19393, Note_on_c, 0, 69, 123
1, 19433, Note_on_c, 1, 67, 127
1, 19435, Note_off_c, 0, 69, 1
1, 19446, Note_off_c, 1, 55, 1
1, 19476, Note_off_c, 1, 67, 1
1, 19476, Note_on_c, 0, 74, 123
1, 19476, Note_on_c, 2, 47, 127
1, 19518, Note_on_c, 0, 71, 123
1, 19522, Note_off_c, 0, 74, 1
1, 19559, Note_on_c, 0, 72, 123
1, 19560, Note_off_c, 0, 71, 1
1, 19598, Note_off_c, 2, 47, 1
1, 19600, Note_on_c, 0, 74, 123
1, 19602, Note_off_c, 0, 72, 1
1, 19642, Note_on_c, 0, 68, 123
1, 19642, Note_on_c, 1, 62, 127
1, 19647, Note_off_c, 0, 74, 1
1, 19682, Note_on_c, 0, 77, 111
1, 19683, Note_off_c, 0, 68, 1
1, 19723, Note_on_c, 0, 76, 111
1, 19724, Note_off_c, 0, 77, 1
1, 19765, Note_on_c, 0, 74, 123
1, 19766, Note_off_c, 0, 76, 1
1, 19771, Note_off_c, 1, 62, 1
1, 19809, Note_on_c, 0, 73, 123
1, 19809, Note_on_c, 2, 45, 127
1, 19810, Note_off_c, 0, 74, 1
1, 19851, Note_on_c, 0, 69, 123
1, 19852, Note_off_c, 0, 73, 1
1, 19894, Note_on_c, 0, 71, 123
1, 19895, Note_off_c, 0, 69, 1
1, 19937, Note_on_c, 0, 73, 123
1, 19938, Note_off_c, 0, 71, 1
1, 19980, Note_on_c, 1, 64, 127
1, 19981, Note_off_c, 0, 73, 1
1, 19981, Note_on_c, 1, 55, 127
1, 20023, Note_off_c, 1, 64, 1
1, 20023, Note_on_c, 1, 67, 127
1, 20066, Note_off_c, 1, 67, 1
1, 20066, Note_off_c, 1, 55, 1
1, 20067, Note_on_c, 1, 66, 127
1, 20108, Note_off_c, 1, 66, 1
1, 20109, Note_on_c, 1, 64, 127
1, 20151, Note_off_c, 1, 64, 1
1, 20152, Note_on_c, 0, 69, 123
1, 20152, Note_on_c, 1, 54, 127
1, 20194, Note_on_c, 0, 74, 123
1, 20195, Note_off_c, 0, 69, 1
1, 20236, Note_off_c, 1, 54, 1
1, 20236, Note_on_c, 0, 76, 111
1, 20237, Note_off_c, 0, 74, 1
1, 20277, Note_on_c, 0, 78, 111
1, 20279, Note_off_c, 0, 76, 1
1, 20319, Note_on_c, 0, 71, 123
1, 20320, Note_off_c, 0, 78, 1
1, 20320, Note_on_c, 1, 50, 127
1, 20361, Note_on_c, 0, 81, 111
1, 20362, Note_off_c, 0, 71, 1
1, 20402, Note_off_c, 1, 50, 1
1, 20402, Note_on_c, 0, 79, 111
1, 20403, Note_off_c, 0, 81, 1
1, 20443, Note_on_c, 0, 78, 111
1, 20445, Note_off_c, 0, 79, 1
1, 20485, Note_on_c, 0, 79, 111
1, 20486, Note_on_c, 1, 52, 127
1, 20487, Note_off_c, 0, 78, 1
1, 20528, Note_on_c, 0, 73, 123
1, 20530, Note_off_c, 0, 79, 1
1, 20570, Note_off_c, 1, 52, 1
1, 20570, Note_on_c, 0, 74, 123
1, 20572, Note_off_c, 0, 73, 1
1, 20613, Note_on_c, 0, 76, 111
1, 20614, Note_off_c, 0, 74, 1
1, 20654, Note_on_c, 0, 69, 123
1, 20655, Note_on_c, 1, 49, 127
1, 20656, Note_off_c, 0, 76, 1
1, 20697, Note_on_c, 0, 79, 111
1, 20699, Note_off_c, 0, 69, 1
1, 20739, Note_off_c, 1, 49, 1
1, 20739, Note_on_c, 0, 78, 111
1, 20741, Note_off_c, 0, 79, 1
1, 20781, Note_on_c, 0, 76, 111
1, 20783, Note_off_c, 0, 78, 1
1, 20824, Note_on_c, 0, 78, 111
1, 20825, Note_off_c, 0, 76, 1
1, 20825, Note_on_c, 1, 50, 127
1, 20866, Note_on_c, 0, 71, 123
1, 20868, Note_off_c, 0, 78, 1
1, 20910, Note_off_c, 1, 50, 1
1, 20910, Note_on_c, 0, 73, 123
1, 20912, Note_off_c, 0, 71, 1
1, 20954, Note_on_c, 0, 74, 123
1, 20955, Note_off_c, 0, 73, 1
1, 20997, Note_on_c, 0, 68, 123
1, 20998, Note_on_c, 2, 47, 127
1, 20999, Note_off_c, 0, 74, 1
1, 21041, Note_on_c, 0, 78, 111
1, 21043, Note_off_c, 0, 68, 1
1, 21085, Note_off_c, 2, 47, 1
1, 21086, Note_off_c, 0, 78, 1
1, 21086, Note_on_c, 0, 76, 111
1, 21129, Note_on_c, 0, 74, 123
1, 21130, Note_off_c, 0, 76, 1
1, 21172, Note_on_c, 0, 73, 123
1, 21174, Note_off_c, 0, 74, 1
1, 21217, Note_on_c, 1, 67, 127
1, 21217, Note_on_c, 1, 52, 127
1, 21218, Note_off_c, 0, 73, 1
1, 21262, Note_off_c, 1, 52, 1
1, 21262, Note_off_c, 1, 67, 1
1, 21263, Note_on_c, 0, 69, 123
1, 21263, Note_on_c, 1, 54, 127
1, 21306, Note_off_c, 1, 54, 1
1, 21307, Note_on_c, 0, 70, 123
1, 21307, Note_on_c, 1, 55, 127
1, 21308, Note_off_c, 0, 69, 1
1, 21350, Note_off_c, 1, 55, 1
1, 21351, Note_on_c, 1, 49, 127
1, 21351, Note_on_c, 1, 64, 127
1, 21352, Note_off_c, 0, 70, 1
1, 21395, Note_off_c, 1, 64, 1
1, 21395, Note_off_c, 1, 49, 1
1, 21396, Note_on_c, 1, 67, 127
1, 21396, Note_on_c, 1, 52, 127
1, 21439, Note_off_c, 1, 52, 1
1, 21439, Note_off_c, 1, 67, 1
1, 21440, Note_on_c, 1, 65, 127
1, 21440, Note_on_c, 1, 50, 127
1, 21483, Note_off_c, 1, 50, 1
1, 21483, Note_off_c, 1, 65, 1
1, 21484, Note_on_c, 1, 64, 127
1, 21484, Note_on_c, 1, 49, 127
1, 21528, Note_off_c, 1, 49, 1
1, 21528, Note_off_c, 1, 64, 1
1, 21529, Note_on_c, 1, 65, 127
1, 21529, Note_on_c, 1, 50, 127
1, 21573, Note_off_c, 1, 50, 1
1, 21573, Note_off_c, 1, 65, 1
1, 21573, Note_on_c, 0, 74, 123
1, 21574, Note_on_c, 1, 53, 127
1, 21617, Note_off_c, 1, 53, 1
1, 21617, Note_on_c, 0, 76, 111
1, 21617, Note_on_c, 1, 55, 127
1, 21618, Note_off_c, 0, 74, 1
1, 21661, Note_off_c, 1, 55, 1
1, 21661, Note_on_c, 0, 77, 111
1, 21661, Note_on_c, 1, 57, 127
1, 21662, Note_off_c, 0, 76, 1
1, 21705, Note_off_c, 1, 57, 1
1, 21706, Note_on_c, 0, 73, 123
1, 21706, Note_on_c, 1, 52, 127
1, 21707, Note_off_c, 0, 77, 1
1, 21749, Note_off_c, 1, 52, 1
1, 21750, Note_on_c, 0, 76, 111
1, 21750, Note_on_c, 1, 55, 127
1, 21751, Note_off_c, 0, 73, 1
1, 21794, Note_off_c, 1, 55, 1
1, 21795, Note_on_c, 0, 74, 123
1, 21795, Note_on_c, 1, 53, 127
1, 21796, Note_off_c, 0, 76, 1
1, 21838, Note_off_c, 1, 53, 1
1, 21839, Note_on_c, 0, 73, 123
1, 21840, Note_off_c, 0, 74, 1
1, 21840, Note_on_c, 1, 52, 127
1, 21884, Note_off_c, 1, 52, 1
1, 21884, Note_on_c, 0, 74, 123
1, 21884, Note_on_c, 1, 53, 127
1, 21885, Note_off_c, 0, 73, 1
1, 21893, Note_off_c, 2, 45, 1
1, 21929, Note_off_c, 1, 53, 1
1, 21929, Note_on_c, 0, 82, 111
1, 21930, Note_off_c, 0, 74, 1
1, 21930, Note_on_c, 1, 50, 127
1, 21974, Note_off_c, 1, 50, 1
1, 21974, Note_on_c, 0, 81, 111
1, 21975, Note_off_c, 0, 82, 1
1, 21975, Note_on_c, 1, 52, 127
1, 22020, Note_off_c, 1, 52, 1
1, 22020, Note_on_c, 0, 79, 111
1, 22020, Note_on_c, 1, 53, 127
1, 22021, Note_off_c, 0, 81, 1
1, 22066, Note_off_c, 1, 53, 1
1, 22067, Note_on_c, 0, 77, 111
1, 22067, Note_on_c, 2, 45, 127
1, 22068, Note_off_c, 0, 79, 1
1, 22111, Note_off_c, 2, 45, 1
1, 22112, Note_on_c, 0, 76, 111
1, 22112, Note_on_c, 2, 48, 127
1, 22113, Note_off_c, 0, 77, 1
1, 22157, Note_off_c, 2, 48, 1
1, 22158, Note_on_c, 0, 74, 123
1, 22158, Note_on_c, 2, 46, 127
1, 22159, Note_off_c, 0, 76, 1
1, 22203, Note_off_c, 2, 46, 1
1, 22204, Note_on_c, 0, 73, 123
1, 22204, Note_on_c, 2, 45, 127
1, 22205, Note_off_c, 0, 74, 1
1, 22249, Note_off_c, 2, 45, 1
1, 22250, Note_on_c, 0, 74, 121
1, 22250, Note_on_c, 2, 44, 127
1, 22251, Note_off_c, 0, 73, 1
1, 22296, Note_off_c, 0, 74, 1
1, 22296, Note_on_c, 0, 77, 109
1, 22340, Note_on_c, 0, 76, 109
1, 22342, Note_off_c, 0, 77, 1
1, 22384, Note_on_c, 0, 74, 121
1, 22386, Note_off_c, 0, 76, 1
1, 22429, Note_on_c, 0, 83, 109
1, 22431, Note_off_c, 0, 74, 1
1, 22474, Note_on_c, 0, 80, 109
1, 22475, Note_off_c, 0, 83, 1
1, 22519, Note_on_c, 0, 81, 109
1, 22520, Note_off_c, 0, 80, 1
1, 22564, Note_on_c, 0, 83, 109
1, 22565, Note_off_c, 0, 81, 1
1, 22608, Note_on_c, 0, 77, 109
1, 22610, Note_off_c, 0, 83, 1
1, 22656, Note_off_c, 0, 77, 1
1, 22656, Note_on_c, 0, 74, 121
1, 22702, Note_on_c, 0, 76, 109
1, 22703, Note_off_c, 0, 74, 1
1, 22747, Note_on_c, 0, 77, 109
1, 22749, Note_off_c, 0, 76, 1
1, 22793, Note_on_c, 0, 71, 121
1, 22794, Note_off_c, 0, 77, 1
1, 22838, Note_on_c, 0, 68, 121
1, 22840, Note_off_c, 0, 71, 1
1, 22883, Note_on_c, 0, 69, 121
1, 22885, Note_off_c, 0, 68, 1
1, 22928, Note_on_c, 0, 71, 121
1, 22929, Note_off_c, 0, 69, 1
1, 22973, Note_on_c, 1, 64, 127
1, 22974, Note_off_c, 0, 71, 1
1, 23017, Note_off_c, 1, 64, 1
1, 23018, Note_on_c, 1, 66, 127
1, 23063, Note_off_c, 1, 66, 1
1, 23063, Note_on_c, 0, 68, 121
1, 23107, Note_on_c, 0, 69, 121
1, 23109, Note_off_c, 0, 68, 1
1, 23152, Note_on_c, 0, 71, 123
1, 23154, Note_off_c, 0, 69, 1
1, 23197, Note_on_c, 0, 73, 123
1, 23198, Note_off_c, 0, 71, 1
1, 23241, Note_on_c, 0, 74, 123
1, 23243, Note_off_c, 0, 73, 1
1, 23285, Note_on_c, 0, 76, 111
1, 23287, Note_off_c, 0, 74, 1
1, 23326, Note_off_c, 0, 76, 1
1, 23329, Note_off_c, 2, 44, 1
1, 23330, Note_on_c, 0, 77, 111
1, 23330, Note_on_c, 2, 45, 127
1, 23381, Note_on_c, 0, 72, 123
1, 23432, Note_on_c, 0, 74, 123
1, 23433, Note_on_c, 1, 57, 127
1, 23434, Note_off_c, 0, 72, 1
1, 23483, Note_on_c, 0, 69, 123
1, 23485, Note_off_c, 0, 74, 1
1, 23534, Note_off_c, 1, 57, 1
1, 23534, Note_on_c, 0, 70, 123
1, 23535, Note_on_c, 1, 55, 127
1, 23536, Note_off_c, 0, 69, 1
1, 23585, Note_on_c, 1, 67, 127
1, 23587, Note_off_c, 0, 70, 1
1, 23615, Note_off_c, 0, 77, 1
1, 23637, Note_off_c, 1, 67, 1
1, 23637, Note_off_c, 1, 55, 1
1, 23638, Note_on_c, 0, 76, 111
1, 23638, Note_on_c, 1, 49, 127
1, 23687, Note_on_c, 1, 67, 127
1, 23737, Note_off_c, 1, 67, 1
1, 23738, Note_off_c, 1, 49, 1
1, 23738, Note_on_c, 0, 69, 123
1, 23739, Note_on_c, 1, 53, 127
1, 23787, Note_on_c, 1, 65, 127
1, 23790, Note_off_c, 0, 69, 1
1, 23829, Note_off_c, 0, 76, 1
1, 23838, Note_off_c, 1, 65, 1
1, 23839, Note_off_c, 1, 53, 1
1, 23839, Note_on_c, 0, 74, 123
1, 23840, Note_on_c, 1, 50, 127
1, 23889, Note_on_c, 1, 65, 127
1, 23940, Note_off_c, 1, 65, 1
1, 23940, Note_off_c, 1, 50, 1
1, 23941, Note_on_c, 1, 52, 127
1, 23941, Note_on_c, 1, 67, 127
1, 23992, Note_off_c, 1, 67, 1
1, 23992, Note_on_c, 1, 64, 127
1, 24035, Note_off_c, 0, 74, 1
1, 24046, Note_off_c, 1, 64, 1
1, 24047, Note_off_c, 1, 52, 1
1, 24047, Note_on_c, 0, 73, 123
1, 24047, Note_on_c, 1, 55, 127
1, 24103, Note_on_c, 1, 64, 127
1, 24163, Note_off_c, 1, 64, 1
1, 24163, Note_off_c, 1, 55, 1
1, 24164, Note_off_c, 2, 45, 1
1, 24165, Note_on_c, 2, 45, 127
1, 24174, Note_off_c, 0, 73, 1
1, 24192, Note_on_c, 1, 50, 127
1, 24220, Note_on_c, 1, 53, 127
1, 24242, Note_on_c, 1, 56, 127
1, 24264, Note_on_c, 1, 59, 127
1, 24283, Note_on_c, 1, 62, 127
1, 24301, Note_on_c, 1, 65, 127
1, 24316, Note_on_c, 0, 68, 121
1, 24327, Note_on_c, 0, 71, 121
1, 24340, Note_on_c, 0, 74, 121
1, 24760, Note_off_c, 1, 65, 1
1, 24761, Note_off_c, 1, 59, 1
1, 24761, Note_off_c, 1, 62, 1
1, 24762, Note_off_c, 1, 56, 1
1, 24762, Note_off_c, 1, 53, 1
1, 24763, Note_off_c, 2, 45, 1
1, 24763, Note_off_c, 1, 50, 1
1, 24775, Note_off_c, 0, 68, 1
1, 24775, Note_off_c, 0, 71, 1
1, 24789, Note_off_c, 0, 74, 1
1, 24821, Note_on_c, 0, 73, 113
1, 24881, Note_on_c, 0, 71, 113
1, 24883, Note_off_c, 0, 73, 1
1, 24937, Note_on_c, 0, 69, 113
1, 24939, Note_off_c, 0, 71, 1
1, 24991, Note_on_c, 0, 68, 113
1, 24992, Note_off_c, 0, 69, 1
1, 25043, Note_on_c, 1, 66, 127
1, 25044, Note_off_c, 0, 68, 1
1, 25092, Note_off_c, 1, 66, 1
1, 25093, Note_on_c, 1, 64, 127
1, 25140, Note_off_c, 1, 64, 1
1, 25140, Note_on_c, 1, 66, 127
1, 25185, Note_off_c, 1, 66, 1
1, 25185, Note_on_c, 0, 68, 113
1, 25227, Note_on_c, 0, 69, 113
1, 25228, Note_off_c, 0, 68, 1
1, 25268, Note_on_c, 0, 71, 113
1, 25269, Note_off_c, 0, 69, 1
1, 25308, Note_on_c, 0, 73, 112
1, 25309, Note_off_c, 0, 71, 1
1, 25347, Note_on_c, 0, 74, 112
1, 25348, Note_off_c, 0, 73, 1
1, 25383, Note_on_c, 0, 76, 100
1, 25384, Note_off_c, 0, 74, 1
1, 25420, Note_on_c, 0, 77, 100
1, 25422, Note_off_c, 0, 76, 1
1, 25457, Note_on_c, 0, 76, 100
1, 25458, Note_off_c, 0, 77, 1
1, 25495, Note_on_c, 0, 74, 112
1, 25496, Note_off_c, 0, 76, 1
1, 25535, Note_off_c, 0, 74, 1
1, 25535, Note_on_c, 0, 73, 112
1, 25575, Note_on_c, 0, 71, 115
1, 25576, Note_off_c, 0, 73, 1
1, 25620, Note_on_c, 0, 69, 115
1, 25622, Note_off_c, 0, 71, 1
1, 25677, Note_on_c, 0, 68, 121
1, 25680, Note_off_c, 0, 69, 1
1, 25746, Note_on_c, 1, 66, 127
1, 25748, Note_off_c, 0, 68, 1
1, 25825, Note_off_c, 1, 66, 1
1, 25825, Note_on_c, 1, 64, 127
1, 25937, Note_off_c, 1, 64, 1
1, 25938, Note_on_c, 1, 62, 127
1, 26099, Note_off_c, 1, 62, 1
1, 26099, Note_on_c, 1, 61, 127
1, 26148, Note_on_c, 1, 64, 127
1, 26199, Note_on_c, 1, 67, 127
1, 26233, Note_on_c, 0, 70, 121
1, 26265, Note_on_c, 0, 73, 112
1, 26287, Note_on_c, 0, 76, 100
1, 26300, Note_on_c, 0, 79, 100
1, 26314, Note_on_c, 0, 82, 100
1, 26514, Note_off_c, 1, 67, 1
1, 26515, Note_off_c, 1, 64, 1
1, 26516, Note_off_c, 1, 61, 1
1, 26519, Note_off_c, 0, 82, 1
1, 26520, Note_off_c, 0, 79, 1
1, 26521, Note_off_c, 0, 73, 1
1, 26521, Note_off_c, 0, 76, 1
1, 26522, Note_off_c, 0, 70, 1
1, 26680, Note_on_c, 0, 77, 98
1, 26680, Note_on_c, 0, 83, 98
1, 26681, Note_on_c, 0, 68, 119
1, 26681, Note_on_c, 0, 74, 110
1, 26681, Note_on_c, 0, 71, 119
1, 26682, Note_on_c, 0, 80, 98
1, 26682, Note_on_c, 1, 62, 127
1, 26683, Note_on_c, 1, 65, 127
1, 27048, Note_off_c, 1, 65, 1
1, 27049, Note_off_c, 1, 62, 1
1, 27055, Note_off_c, 0, 80, 1
1, 27056, Note_off_c, 0, 71, 1
1, 27056, Note_off_c, 0, 74, 1
1, 27056, Note_off_c, 0, 68, 1
1, 27057, Note_off_c, 0, 83, 1
1, 27057, Note_off_c, 0, 77, 1
1, 27246, Note_on_c, 0, 69, 121
1, 27247, Note_on_c, 0, 74, 121
1, 27247, Note_on_c, 1, 57, 127
1, 27248, Note_on_c, 1, 64, 127
1, 27248, Note_on_c, 1, 52, 127
1, 27249, Note_on_c, 2, 45, 127
1, 27856, Note_off_c, 1, 52, 1
1, 27856, Note_on_c, 0, 73, 121
1, 27857, Note_on_c, 1, 55, 127
1, 27879, Note_off_c, 0, 74, 1
1, 28520, Note_off_c, 1, 57, 1
1, 28533, Note_off_c, 0, 69, 1
1, 28536, Note_off_c, 1, 55, 1
1, 28537, Note_off_c, 2, 45, 1
1, 28537, Note_off_c, 1, 64, 1
1, 28556, Note_off_c, 0, 73, 1
1, 28558, Note_on_c, 0, 74, 98
1, 28559, Note_on_c, 1, 57, 112
1, 28560, Note_on_c, 0, 69, 98
1, 28560, Note_on_c, 1, 66, 112
1, 28560, Note_on_c, 1, 50, 112
1, 28561, Note_on_c, 1, 54, 112
1, 30198, Note_off_c, 1, 50, 1
1, 30198, Note_off_c, 1, 57, 1
1, 30199, Note_off_c, 1, 66, 1
1, 30199, Note_off_c, 1, 54, 1
1, 30220, Note_off_c, 0, 74, 1
1, 30221, Note_off_c, 0, 69, 1
1, 30552, Marker_t, "Copyright 1997 (P) S.D.Rodrian -  NOT to be reproduced or sold sans permission !"
1, 30879, Note_on_c, 1, 50, 127
1, 30939, Note_off_c, 1, 50, 1
1, 30939, Note_on_c, 1, 52, 127
1, 30995, Note_off_c, 1, 52, 1
1, 30995, Note_on_c, 1, 54, 127
1, 31050, Note_off_c, 1, 54, 1
1, 31051, Note_on_c, 1, 55, 127
1, 31106, Note_off_c, 1, 55, 1
1, 31106, Note_on_c, 1, 54, 127
1, 31163, Note_off_c, 1, 54, 1
1, 31164, Note_on_c, 1, 52, 127
1, 31219, Note_off_c, 1, 52, 1
1, 31219, Note_on_c, 1, 54, 127
1, 31275, Note_off_c, 1, 54, 1
1, 31275, Note_on_c, 1, 50, 127
1, 31332, Note_off_c, 1, 50, 1
1, 31332, Note_on_c, 1, 59, 127
1, 31369, Note_on_c, 1, 57, 127
1, 31374, Note_off_c, 1, 59, 1
1, 31407, Note_on_c, 1, 59, 127
1, 31411, Note_off_c, 1, 57, 1
1, 31651, Note_off_c, 1, 59, 1
1, 31669, Note_on_c, 1, 59, 127
1, 31781, Note_off_c, 1, 59, 1
1, 31782, Note_on_c, 1, 57, 127
1, 31819, Note_on_c, 1, 59, 127
1, 31824, Note_off_c, 1, 57, 1
1, 31856, Note_on_c, 1, 57, 127
1, 31862, Note_off_c, 1, 59, 1
1, 32119, Note_off_c, 1, 57, 1
1, 32120, Note_on_c, 1, 55, 127
1, 32232, Note_off_c, 1, 55, 1
1, 32232, Note_on_c, 1, 54, 127
1, 32541, Note_off_c, 1, 54, 1
1, 32559, Note_on_c, 1, 55, 127
1, 32668, Note_off_c, 1, 55, 1
1, 32669, Note_on_c, 1, 54, 127
1, 32669, Note_on_c, 1, 57, 127
1, 32722, Note_off_c, 1, 57, 1
1, 32723, Note_on_c, 1, 59, 127
1, 32777, Note_off_c, 1, 59, 1
1, 32777, Note_on_c, 1, 61, 127
1, 32832, Note_off_c, 1, 61, 1
1, 32832, Note_on_c, 1, 62, 127
1, 32886, Note_off_c, 1, 62, 1
1, 32887, Note_on_c, 1, 61, 127
1, 32941, Note_off_c, 1, 61, 1
1, 32941, Note_on_c, 1, 59, 127
1, 32995, Note_off_c, 1, 59, 1
1, 32995, Note_off_c, 1, 54, 1
1, 32996, Note_on_c, 1, 52, 127
1, 32996, Note_on_c, 1, 61, 127
1, 33049, Note_off_c, 1, 61, 1
1, 33050, Note_on_c, 1, 57, 127
1, 33104, Note_off_c, 1, 57, 1
1, 33105, Note_off_c, 1, 52, 1
1, 33105, Note_on_c, 1, 50, 127
1, 33106, Note_on_c, 1, 66, 127
1, 33141, Note_on_c, 1, 64, 127
1, 33146, Note_off_c, 1, 66, 1
1, 33177, Note_on_c, 1, 66, 127
1, 33183, Note_off_c, 1, 64, 1
1, 33415, Note_off_c, 1, 66, 1
1, 33433, Note_on_c, 1, 66, 127
1, 33541, Note_off_c, 1, 66, 1
1, 33541, Note_off_c, 1, 50, 1
1, 33542, Note_on_c, 1, 52, 127
1, 33542, Note_on_c, 1, 64, 127
1, 33578, Note_on_c, 1, 66, 127
1, 33583, Note_off_c, 1, 64, 1
1, 33614, Note_on_c, 1, 64, 127
1, 33620, Note_off_c, 1, 66, 1
1, 33869, Note_off_c, 1, 64, 1
1, 33869, Note_on_c, 1, 62, 127
1, 33978, Note_off_c, 1, 62, 1
1, 33979, Note_off_c, 1, 52, 1
1, 33979, Note_on_c, 1, 61, 127
1, 33980, Note_on_c, 2, 45, 127
1, 34247, Note_off_c, 2, 45, 1
1, 34248, Note_on_c, 1, 52, 127
1, 34301, Note_off_c, 1, 52, 1
1, 34301, Note_on_c, 1, 54, 127
1, 34354, Note_off_c, 1, 54, 1
1, 34354, Note_on_c, 1, 55, 127
1, 34407, Note_off_c, 1, 55, 1
1, 34408, Note_off_c, 1, 61, 1
1, 34408, Note_on_c, 1, 57, 127
1, 34409, Note_on_c, 1, 66, 127
1, 34444, Note_on_c, 1, 64, 127
1, 34449, Note_off_c, 1, 66, 1
1, 34479, Note_on_c, 1, 66, 127
1, 34485, Note_off_c, 1, 64, 1
1, 34713, Note_off_c, 1, 66, 1
1, 34730, Note_on_c, 1, 66, 127
1, 34837, Note_off_c, 1, 66, 1
1, 34838, Note_on_c, 1, 59, 127
1, 35088, Note_off_c, 1, 59, 1
1, 35106, Note_on_c, 1, 59, 127
1, 35160, Note_off_c, 1, 59, 1
1, 35160, Note_on_c, 1, 61, 127
1, 35214, Note_off_c, 1, 61, 1
1, 35214, Note_on_c, 1, 62, 127
1, 35268, Note_off_c, 1, 62, 1
1, 35268, Note_off_c, 1, 57, 1
1, 35268, Note_on_c, 1, 55, 127
1, 35269, Note_on_c, 1, 64, 127
1, 35375, Note_off_c, 1, 64, 1
1, 35376, Note_on_c, 1, 62, 127
1, 35388, Marker_t, "This file may be freely distributed on the WWW, as long as it's not modified. SDR"
1, 35483, Note_off_c, 1, 62, 1
1, 35483, Note_on_c, 1, 64, 127
1, 35590, Note_off_c, 1, 64, 1
1, 35591, Note_on_c, 1, 61, 127
1, 35698, Note_off_c, 1, 61, 1
1, 35698, Note_on_c, 1, 57, 127
1, 36016, Note_off_c, 1, 55, 1
1, 36016, Note_on_c, 1, 54, 127
1, 36068, Note_off_c, 1, 54, 1
1, 36069, Note_on_c, 1, 52, 127
1, 36121, Note_off_c, 1, 52, 1
1, 36122, Note_off_c, 1, 57, 1
1, 36122, Note_on_c, 1, 62, 127
1, 36122, Note_on_c, 1, 54, 127
1, 36174, Note_on_c, 1, 64, 127
1, 36227, Note_off_c, 1, 64, 1
1, 36228, Note_on_c, 1, 66, 127
1, 36280, Note_off_c, 1, 66, 1
1, 36280, Note_on_c, 1, 67, 127
1, 36333, Note_off_c, 1, 67, 1
1, 36333, Note_on_c, 1, 66, 127
1, 36386, Note_off_c, 1, 66, 1
1, 36387, Note_on_c, 1, 64, 127
1, 36439, Note_off_c, 1, 64, 1
1, 36440, Note_off_c, 1, 54, 1
1, 36440, Note_on_c, 1, 66, 127
1, 36441, Note_on_c, 1, 50, 127
1, 36492, Note_off_c, 1, 66, 1
1, 36492, Note_on_c, 1, 62, 127
1, 36545, Note_off_c, 1, 62, 1
1, 36545, Note_off_c, 1, 50, 1
1, 36546, Note_on_c, 0, 71, 127
1, 36546, Note_on_c, 1, 55, 127
1, 36845, Note_off_c, 0, 71, 1
1, 36863, Note_off_c, 1, 55, 1
1, 36863, Note_on_c, 0, 71, 127
1, 36864, Note_on_c, 1, 52, 127
1, 36969, Note_off_c, 1, 52, 1
1, 36970, Note_off_c, 1, 62, 1
1, 36970, Note_off_c, 0, 71, 1
1, 36971, Note_on_c, 0, 69, 127
1, 36971, Note_on_c, 1, 61, 127
1, 36972, Note_on_c, 1, 57, 127
1, 37287, Note_off_c, 1, 57, 1
1, 37287, Note_off_c, 0, 69, 1
1, 37288, Note_on_c, 1, 67, 127
1, 37288, Note_on_c, 2, 45, 127
1, 37392, Note_off_c, 2, 45, 1
1, 37393, Note_off_c, 1, 67, 1
1, 37393, Note_off_c, 1, 61, 1
1, 37394, Note_on_c, 1, 62, 127
1, 37394, Note_on_c, 1, 66, 127
1, 37395, Note_on_c, 1, 50, 127
1, 37710, Note_off_c, 1, 50, 1
1, 37711, Note_off_c, 1, 66, 1
1, 37711, Note_on_c, 0, 68, 127
1, 37712, Note_on_c, 1, 52, 127
1, 37816, Note_off_c, 1, 52, 1
1, 37816, Note_off_c, 0, 68, 1
1, 37817, Note_off_c, 1, 62, 1
1, 37817, Note_on_c, 0, 69, 127
1, 37818, Note_on_c, 1, 61, 127
1, 37818, Note_on_c, 1, 54, 127
1, 37869, Note_on_c, 0, 71, 127
1, 37921, Note_off_c, 0, 71, 1
1, 37922, Note_on_c, 0, 73, 127
1, 37975, Note_off_c, 0, 73, 1
1, 37976, Note_on_c, 0, 74, 127
1, 38028, Note_off_c, 0, 74, 1
1, 38028, Note_on_c, 0, 73, 127
1, 38081, Note_off_c, 0, 73, 1
1, 38081, Note_on_c, 0, 71, 127
1, 38134, Note_off_c, 0, 71, 1
1, 38134, Note_off_c, 1, 54, 1
1, 38135, Note_on_c, 0, 73, 127
1, 38135, Note_on_c, 1, 52, 127
1, 38187, Note_off_c, 0, 73, 1
1, 38187, Note_on_c, 0, 69, 127
1, 38239, Note_off_c, 0, 69, 1
1, 38240, Note_off_c, 1, 52, 1
1, 38240, Note_off_c, 1, 61, 1
1, 38241, Note_on_c, 0, 78, 109
1, 38241, Note_on_c, 1, 59, 127
1, 38242, Note_on_c, 1, 50, 127
1, 38535, Note_off_c, 0, 78, 1
1, 38553, Note_off_c, 1, 50, 1
1, 38553, Note_on_c, 0, 78, 109
1, 38554, Note_on_c, 2, 47, 127
1, 38657, Note_off_c, 2, 47, 1
1, 38658, Note_off_c, 0, 78, 1
1, 38658, Note_off_c, 0, 69, 1
1, 38659, Note_on_c, 0, 68, 127
1, 38659, Note_on_c, 0, 76, 127
1, 38660, Note_on_c, 1, 52, 127
1, 38970, Note_off_c, 0, 76, 1
1, 38971, Note_on_c, 0, 74, 127
1, 39075, Note_off_c, 0, 74, 1
1, 39075, Note_off_c, 1, 52, 1
1, 39076, Note_off_c, 1, 59, 1
1, 39076, Note_off_c, 0, 68, 1
1, 39077, Note_on_c, 0, 69, 127
1, 39077, Note_on_c, 0, 73, 127
1, 39078, Note_on_c, 2, 45, 127
1, 39339, Note_off_c, 0, 73, 1
1, 39339, Note_on_c, 0, 76, 125
1, 39392, Note_off_c, 0, 76, 1
1, 39392, Note_on_c, 0, 78, 101
1, 39445, Note_off_c, 0, 78, 1
1, 39446, Note_on_c, 0, 79, 101
1, 39498, Note_off_c, 0, 79, 1
1, 39499, Note_off_c, 2, 45, 1
1, 39499, Note_off_c, 0, 69, 1
1, 39500, Note_on_c, 0, 73, 127
1, 39500, Note_on_c, 0, 81, 101
1, 39501, Note_on_c, 1, 66, 127
1, 39551, Note_off_c, 1, 66, 1
1, 39552, Note_on_c, 1, 67, 127
1, 39604, Note_off_c, 1, 67, 1
1, 39604, Note_on_c, 0, 69, 127
1, 39658, Note_off_c, 0, 69, 1
1, 39658, Note_on_c, 0, 71, 127
1, 39710, Note_off_c, 0, 71, 1
1, 39711, Note_on_c, 0, 69, 127
1, 39763, Note_off_c, 0, 69, 1
1, 39764, Note_on_c, 1, 67, 127
1, 39799, Note_off_c, 0, 81, 1
1, 39816, Note_off_c, 1, 67, 1
1, 39816, Note_on_c, 0, 81, 102
1, 39817, Note_on_c, 0, 69, 127
1, 39869, Note_off_c, 0, 69, 1
1, 39869, Note_on_c, 1, 66, 127
1, 39904, Note_off_c, 0, 81, 1
1, 39922, Note_off_c, 1, 66, 1
1, 39922, Note_off_c, 0, 73, 1
1, 39923, Note_on_c, 0, 71, 127
1, 39923, Note_on_c, 0, 81, 107
1, 39924, Note_on_c, 0, 74, 127
1, 40187, Note_off_c, 0, 81, 1
1, 40187, Note_on_c, 0, 74, 127
1, 40212, Marker_t, "SDRodrian@aol.com  626 Lalor Trenton NJ 08611 http://members.aol.com/sdrodrian"
1, 40239, Note_off_c, 0, 74, 1
1, 40240, Note_on_c, 0, 76, 125
1, 40292, Note_off_c, 0, 76, 1
1, 40293, Note_on_c, 0, 78, 107
1, 40328, Note_off_c, 0, 74, 1
1, 40340, Note_off_c, 0, 78, 1
1, 40346, Note_off_c, 0, 71, 1
1, 40347, Note_on_c, 0, 79, 107
1, 40347, Note_on_c, 0, 74, 127
1, 40348, Note_on_c, 1, 64, 127
1, 40399, Note_off_c, 1, 64, 1
1, 40399, Note_on_c, 1, 66, 127
1, 40452, Note_off_c, 1, 66, 1
1, 40452, Note_on_c, 1, 67, 127
1, 40505, Note_off_c, 1, 67, 1
1, 40505, Note_on_c, 0, 69, 127
1, 40557, Note_off_c, 0, 69, 1
1, 40558, Note_on_c, 1, 67, 127
1, 40610, Note_off_c, 1, 67, 1
1, 40611, Note_on_c, 1, 66, 127
1, 40646, Note_off_c, 0, 79, 1
1, 40663, Note_off_c, 1, 66, 1
1, 40664, Note_on_c, 0, 79, 101
1, 40664, Note_on_c, 1, 67, 127
1, 40716, Note_off_c, 1, 67, 1
1, 40717, Note_on_c, 1, 64, 127
1, 40752, Note_off_c, 0, 79, 1
1, 40770, Note_off_c, 1, 64, 1
1, 40770, Note_off_c, 0, 74, 1
1, 40770, Note_on_c, 0, 79, 99
1, 40771, Note_on_c, 0, 69, 118
1, 40772, Note_on_c, 0, 73, 118
1, 41039, Note_off_c, 0, 73, 1
1, 41039, Note_on_c, 0, 76, 125
1, 41092, Note_off_c, 0, 76, 1
1, 41093, Note_on_c, 0, 74, 127
1, 41146, Note_off_c, 0, 74, 1
1, 41147, Note_on_c, 0, 73, 127
1, 41185, Note_off_c, 0, 69, 1
1, 41200, Note_off_c, 0, 73, 1
1, 41201, Note_off_c, 0, 79, 1
1, 41201, Note_on_c, 0, 74, 127
1, 41201, Note_on_c, 0, 78, 109
1, 41202, Note_on_c, 0, 69, 127
1, 41202, Note_on_c, 2, 38, 127
1, 41253, Note_off_c, 2, 38, 1
1, 41253, Note_on_c, 2, 40, 127
1, 41306, Note_off_c, 2, 40, 1
1, 41307, Note_on_c, 2, 42, 127
1, 41360, Note_off_c, 2, 42, 1
1, 41361, Note_on_c, 2, 43, 127
1, 41414, Note_off_c, 2, 43, 1
1, 41414, Note_on_c, 2, 42, 127
1, 41468, Note_off_c, 2, 42, 1
1, 41468, Note_on_c, 2, 40, 127
1, 41521, Note_off_c, 2, 40, 1
1, 41522, Note_off_c, 0, 74, 1
1, 41522, Note_off_c, 0, 69, 1
1, 41523, Note_off_c, 0, 78, 1
1, 41523, Note_on_c, 0, 76, 127
1, 41524, Note_on_c, 0, 73, 127
1, 41524, Note_on_c, 1, 67, 127
1, 41525, Note_on_c, 2, 42, 127
1, 41575, Note_off_c, 2, 42, 1
1, 41576, Note_on_c, 2, 38, 127
1, 41629, Note_off_c, 2, 38, 1
1, 41629, Note_off_c, 1, 67, 1
1, 41630, Note_off_c, 0, 73, 1
1, 41630, Note_off_c, 0, 76, 1
1, 41631, Note_on_c, 0, 71, 127
1, 41631, Note_on_c, 0, 74, 127
1, 41632, Note_on_c, 1, 66, 127
1, 41632, Note_on_c, 2, 47, 127
1, 41665, Note_off_c, 2, 47, 1
1, 41666, Note_on_c, 2, 45, 127
1, 41700, Note_off_c, 2, 45, 1
1, 41700, Note_on_c, 2, 47, 127
1, 41923, Note_off_c, 2, 47, 1
1, 41940, Note_off_c, 1, 66, 1
1, 41940, Note_off_c, 0, 74, 1
1, 41941, Note_on_c, 0, 76, 127
1, 41941, Note_on_c, 1, 67, 127
1, 41942, Note_on_c, 2, 47, 127
1, 42043, Note_off_c, 2, 47, 1
1, 42043, Note_off_c, 1, 67, 1
1, 42044, Note_off_c, 0, 71, 1
1, 42044, Note_off_c, 0, 76, 1
1, 42045, Note_on_c, 0, 69, 127
1, 42045, Note_on_c, 0, 73, 127
1, 42046, Note_on_c, 1, 64, 127
1, 42046, Note_on_c, 2, 45, 127
1, 42076, Note_off_c, 2, 45, 1
1, 42077, Note_on_c, 2, 47, 127
1, 42111, Note_off_c, 2, 47, 1
1, 42111, Note_on_c, 2, 45, 127
1, 42336, Note_off_c, 0, 73, 1
1, 42355, Note_off_c, 2, 45, 1
1, 42355, Note_on_c, 0, 73, 127
1, 42356, Note_on_c, 2, 43, 127
1, 42444, Note_off_c, 0, 73, 1
1, 42462, Note_off_c, 2, 43, 1
1, 42463, Note_off_c, 1, 64, 1
1, 42463, Note_off_c, 0, 69, 1
1, 42464, Note_on_c, 0, 69, 127
1, 42464, Note_on_c, 0, 73, 127
1, 42465, Note_on_c, 1, 62, 127
1, 42465, Note_on_c, 2, 42, 127
1, 42723, Note_off_c, 2, 42, 1
1, 42724, Note_on_c, 1, 50, 127
1, 42775, Note_off_c, 1, 50, 1
1, 42776, Note_on_c, 1, 52, 127
1, 42828, Note_off_c, 1, 52, 1
1, 42828, Note_on_c, 1, 54, 127
1, 42863, Note_off_c, 0, 73, 1
1, 42880, Note_off_c, 1, 54, 1
1, 42881, Note_off_c, 1, 62, 1
1, 42881, Note_off_c, 0, 69, 1
1, 42881, Note_on_c, 0, 71, 127
1, 42882, Note_on_c, 1, 62, 127
1, 42882, Note_on_c, 1, 55, 127
1, 42932, Note_on_c, 0, 73, 127
1, 42983, Note_off_c, 0, 73, 1
1, 42984, Note_on_c, 0, 74, 127
1, 43034, Note_off_c, 0, 74, 1
1, 43035, Note_on_c, 0, 76, 121
1, 43088, Note_off_c, 0, 76, 1
1, 43088, Note_on_c, 0, 74, 121
1, 43140, Note_off_c, 0, 74, 1
1, 43140, Note_on_c, 0, 73, 121
1, 43193, Note_off_c, 0, 73, 1
1, 43194, Note_off_c, 1, 55, 1
1, 43194, Note_on_c, 0, 74, 121
1, 43195, Note_on_c, 1, 54, 127
1, 43246, Note_off_c, 0, 74, 1
1, 43247, Note_on_c, 0, 71, 127
1, 43299, Note_off_c, 1, 54, 1
1, 43299, Note_off_c, 0, 71, 1
1, 43300, Note_off_c, 1, 62, 1
1, 43300, Note_on_c, 0, 79, 103
1, 43301, Note_on_c, 1, 61, 127
1, 43301, Note_on_c, 1, 52, 127
1, 43599, Note_off_c, 0, 79, 1
1, 43617, Note_off_c, 1, 52, 1
1, 43617, Note_on_c, 0, 79, 103
1, 43618, Note_on_c, 1, 49, 127
1, 43723, Note_off_c, 1, 49, 1
1, 43724, Note_off_c, 0, 79, 1
1, 43724, Note_off_c, 0, 71, 1
1, 43725, Note_on_c, 0, 70, 127
1, 43725, Note_on_c, 0, 78, 103
1, 43726, Note_on_c, 1, 54, 127
1, 44041, Note_off_c, 0, 78, 1
1, 44041, Note_on_c, 0, 76, 121
1, 44147, Note_off_c, 0, 76, 1
1, 44147, Note_off_c, 1, 54, 1
1, 44148, Note_off_c, 1, 61, 1
1, 44148, Note_off_c, 0, 70, 1
1, 44148, Note_on_c, 0, 74, 121
1, 44149, Note_on_c, 0, 71, 127
1, 44149, Note_on_c, 1, 59, 127
1, 44150, Note_on_c, 2, 47, 127
1, 44199, Note_off_c, 2, 47, 1
1, 44200, Note_on_c, 1, 49, 127
1, 44252, Note_off_c, 1, 49, 1
1, 44253, Note_on_c, 1, 50, 127
1, 44305, Note_off_c, 1, 50, 1
1, 44305, Note_on_c, 1, 52, 127
1, 44358, Note_off_c, 1, 52, 1
1, 44358, Note_on_c, 1, 50, 127
1, 44412, Note_off_c, 1, 50, 1
1, 44412, Note_on_c, 1, 49, 127
1, 44464, Note_off_c, 1, 49, 1
1, 44465, Note_on_c, 1, 50, 127
1, 44517, Note_off_c, 1, 50, 1
1, 44518, Note_on_c, 2, 47, 127
1, 44570, Note_off_c, 2, 47, 1
1, 44570, Note_off_c, 1, 59, 1
1, 44571, Note_off_c, 0, 74, 1
1, 44571, Note_off_c, 0, 71, 1
1, 44572, Note_on_c, 0, 83, 109
1, 44572, Note_on_c, 1, 56, 127
1, 44676, Note_off_c, 0, 83, 1
1, 44676, Note_on_c, 0, 81, 109
1, 44782, Note_off_c, 0, 81, 1
1, 44783, Note_off_c, 1, 56, 1
1, 44783, Note_on_c, 0, 83, 109
1, 44888, Note_off_c, 0, 83, 1
1, 44888, Note_on_c, 0, 80, 109
1, 44976, Note_off_c, 0, 80, 1
1, 44993, Note_on_c, 0, 80, 109
1, 44994, Note_on_c, 0, 71, 127
1, 44994, Note_on_c, 0, 74, 127
1, 45099, Note_off_c, 0, 80, 1
1, 45099, Note_on_c, 0, 78, 109
1, 45206, Note_off_c, 0, 78, 1
1, 45206, Note_on_c, 0, 80, 109
1, 45228, Marker_t, "1121 Deutz Ave Trenton NJ 08611 http://www.geocities.com/Paris/LeftBank/3214"
1, 45311, Note_off_c, 0, 80, 1
1, 45312, Note_off_c, 0, 74, 1
1, 45312, Note_off_c, 0, 71, 1
1, 45312, Note_on_c, 0, 76, 127
1, 45313, Note_on_c, 0, 68, 127
1, 45313, Note_on_c, 0, 71, 127
1, 45400, Note_off_c, 0, 71, 1
1, 45400, Note_off_c, 0, 68, 1
1, 45401, Note_off_c, 0, 76, 1
1, 45417, Note_on_c, 0, 76, 127
1, 45418, Note_on_c, 0, 68, 127
1, 45418, Note_on_c, 0, 71, 127
1, 45524, Note_off_c, 0, 76, 1
1, 45524, Note_on_c, 0, 74, 127
1, 45629, Note_off_c, 0, 74, 1
1, 45630, Note_on_c, 0, 76, 127
1, 45735, Note_off_c, 0, 76, 1
1, 45735, Note_off_c, 0, 68, 1
1, 45736, Note_off_c, 0, 71, 1
1, 45736, Note_on_c, 0, 73, 127
1, 45737, Note_on_c, 0, 69, 127
1, 45737, Note_on_c, 1, 64, 127
1, 45823, Note_off_c, 1, 64, 1
1, 45824, Note_off_c, 0, 69, 1
1, 45824, Note_off_c, 0, 73, 1
1, 45841, Note_on_c, 0, 74, 127
1, 45842, Note_on_c, 0, 69, 127
1, 45842, Note_on_c, 1, 64, 127
1, 45843, Note_on_c, 2, 45, 127
1, 45876, Note_off_c, 0, 74, 1
1, 45876, Note_on_c, 0, 73, 127
1, 45894, Note_off_c, 2, 45, 1
1, 45895, Note_on_c, 2, 47, 127
1, 45947, Note_off_c, 2, 47, 1
1, 45948, Note_on_c, 1, 49, 127
1, 46000, Note_off_c, 1, 49, 1
1, 46000, Note_on_c, 1, 50, 127
1, 46053, Note_off_c, 1, 50, 1
1, 46053, Note_on_c, 1, 49, 127
1, 46105, Note_off_c, 1, 49, 1
1, 46106, Note_on_c, 2, 47, 127
1, 46158, Note_off_c, 2, 47, 1
1, 46159, Note_on_c, 1, 49, 127
1, 46212, Note_off_c, 1, 49, 1
1, 46212, Note_on_c, 2, 45, 127
1, 46265, Note_off_c, 2, 45, 1
1, 46265, Note_off_c, 0, 73, 1
1, 46266, Note_off_c, 1, 64, 1
1, 46266, Note_off_c, 0, 69, 1
1, 46267, Note_on_c, 0, 81, 109
1, 46267, Note_on_c, 1, 54, 127
1, 46370, Note_off_c, 0, 81, 1
1, 46371, Note_on_c, 0, 79, 109
1, 46477, Note_off_c, 0, 79, 1
1, 46477, Note_off_c, 1, 54, 1
1, 46478, Note_on_c, 0, 81, 109
1, 46583, Note_off_c, 0, 81, 1
1, 46583, Note_on_c, 0, 78, 109
1, 46671, Note_off_c, 0, 78, 1
1, 46688, Note_on_c, 0, 78, 109
1, 46689, Note_on_c, 0, 69, 127
1, 46689, Note_on_c, 0, 72, 127
1, 46795, Note_off_c, 0, 78, 1
1, 46795, Note_on_c, 0, 76, 127
1, 46900, Note_off_c, 0, 76, 1
1, 46901, Note_on_c, 0, 78, 109
1, 47006, Note_off_c, 0, 78, 1
1, 47006, Note_off_c, 0, 69, 1
1, 47007, Note_off_c, 0, 72, 1
1, 47007, Note_on_c, 0, 74, 127
1, 47008, Note_on_c, 0, 69, 127
1, 47008, Note_on_c, 1, 66, 127
1, 47094, Note_off_c, 1, 66, 1
1, 47095, Note_off_c, 0, 74, 1
1, 47095, Note_off_c, 0, 69, 1
1, 47112, Note_on_c, 0, 74, 127
1, 47113, Note_on_c, 0, 69, 127
1, 47113, Note_on_c, 1, 66, 127
1, 47218, Note_off_c, 0, 74, 1
1, 47219, Note_on_c, 0, 72, 127
1, 47324, Note_off_c, 0, 72, 1
1, 47324, Note_on_c, 0, 74, 127
1, 47429, Note_off_c, 0, 74, 1
1, 47430, Note_off_c, 1, 66, 1
1, 47430, Note_off_c, 0, 69, 1
1, 47431, Note_on_c, 0, 71, 127
1, 47431, Note_on_c, 1, 67, 127
1, 47432, Note_on_c, 1, 62, 127
1, 47518, Note_off_c, 1, 62, 1
1, 47518, Note_off_c, 1, 67, 1
1, 47519, Note_off_c, 0, 71, 1
1, 47536, Note_on_c, 0, 71, 127
1, 47537, Note_on_c, 1, 62, 127
1, 47537, Note_on_c, 1, 67, 127
1, 47537, Note_on_c, 2, 43, 127
1, 47588, Note_off_c, 2, 43, 1
1, 47589, Note_on_c, 2, 45, 127
1, 47640, Note_off_c, 2, 45, 1
1, 47640, Note_on_c, 2, 47, 127
1, 47692, Note_off_c, 2, 47, 1
1, 47693, Note_on_c, 2, 48, 127
1, 47744, Note_off_c, 2, 48, 1
1, 47745, Note_on_c, 2, 47, 127
1, 47796, Note_off_c, 2, 47, 1
1, 47796, Note_on_c, 2, 45, 127
1, 47849, Note_off_c, 2, 45, 1
1, 47850, Note_off_c, 1, 67, 1
1, 47850, Note_on_c, 2, 47, 127
1, 47901, Note_off_c, 2, 47, 1
1, 47902, Note_on_c, 2, 43, 127
1, 47921, Note_off_c, 0, 71, 1
1, 47954, Note_off_c, 2, 43, 1
1, 47954, Note_off_c, 1, 62, 1
1, 47955, Note_on_c, 0, 69, 127
1, 47955, Note_on_c, 1, 52, 127
1, 48007, Note_off_c, 0, 69, 1
1, 48007, Note_on_c, 0, 71, 127
1, 48059, Note_off_c, 0, 71, 1
1, 48059, Note_on_c, 0, 72, 127
1, 48110, Note_off_c, 0, 72, 1
1, 48111, Note_on_c, 0, 74, 127
1, 48163, Note_off_c, 0, 74, 1
1, 48164, Note_on_c, 0, 72, 127
1, 48215, Note_off_c, 0, 72, 1
1, 48216, Note_on_c, 0, 71, 127
1, 48267, Note_off_c, 1, 52, 1
1, 48267, Note_off_c, 0, 71, 1
1, 48268, Note_on_c, 0, 72, 127
1, 48268, Note_on_c, 1, 50, 127
1, 48319, Note_off_c, 0, 72, 1
1, 48319, Note_on_c, 0, 69, 127
1, 48371, Note_off_c, 0, 69, 1
1, 48371, Note_off_c, 1, 50, 1
1, 48372, Note_on_c, 0, 76, 127
1, 48372, Note_on_c, 2, 48, 127
1, 48661, Note_off_c, 0, 76, 1
1, 48679, Note_on_c, 0, 76, 127
1, 48783, Note_off_c, 0, 76, 1
1, 48784, Note_off_c, 2, 48, 1
1, 48784, Note_on_c, 0, 74, 127
1, 48785, Note_on_c, 1, 50, 127
1, 49096, Note_off_c, 0, 74, 1
1, 49097, Note_on_c, 0, 72, 127
1, 49201, Note_off_c, 1, 50, 1
1, 49201, Note_off_c, 0, 72, 1
1, 49202, Note_on_c, 0, 71, 127
1, 49202, Note_on_c, 1, 55, 127
1, 49514, Note_off_c, 1, 55, 1
1, 49514, Note_off_c, 0, 71, 1
1, 49515, Note_on_c, 0, 73, 127
1, 49515, Note_on_c, 1, 57, 127
1, 49619, Note_off_c, 1, 57, 1
1, 49619, Note_off_c, 0, 73, 1
1, 49620, Note_on_c, 0, 74, 127
1, 49620, Note_on_c, 1, 59, 127
1, 49620, Note_on_c, 1, 62, 127
1, 49670, Note_off_c, 1, 62, 1
1, 49671, Note_on_c, 1, 64, 127
1, 49724, Note_off_c, 1, 64, 1
1, 49724, Note_on_c, 1, 66, 127
1, 49775, Note_off_c, 1, 66, 1
1, 49776, Note_on_c, 1, 67, 127
1, 49827, Note_off_c, 1, 67, 1
1, 49827, Note_on_c, 1, 66, 127
1, 49880, Note_off_c, 1, 66, 1
1, 49880, Note_on_c, 1, 64, 127
1, 49932, Note_off_c, 1, 64, 1
1, 49932, Note_off_c, 1, 59, 1
1, 49932, Note_on_c, 1, 57, 127
1, 49933, Note_on_c, 1, 66, 127
1, 49984, Note_off_c, 1, 66, 1
1, 49984, Note_on_c, 1, 62, 127
1, 50036, Note_off_c, 1, 62, 1
1, 50037, Note_off_c, 1, 57, 1
1, 50038, Note_on_c, 0, 71, 127
1, 50038, Note_on_c, 1, 55, 127
1, 50332, Note_off_c, 0, 71, 1
1, 50350, Note_off_c, 1, 55, 1
1, 50350, Note_on_c, 0, 71, 127
1, 50351, Note_on_c, 1, 52, 127
1, 50454, Note_off_c, 1, 52, 1
1, 50455, Note_off_c, 0, 74, 1
1, 50455, Note_off_c, 0, 71, 1
1, 50456, Note_on_c, 0, 69, 127
1, 50456, Note_on_c, 0, 73, 127
1, 50457, Note_on_c, 1, 57, 127
1, 50767, Note_off_c, 1, 57, 1
1, 50768, Note_off_c, 0, 69, 1
1, 50768, Note_on_c, 1, 67, 127
1, 50769, Note_on_c, 2, 45, 127
1, 50864, Note_off_c, 2, 45, 1
1, 50871, Note_off_c, 1, 67, 1
1, 50871, Note_off_c, 0, 73, 1
1, 50872, Note_on_c, 0, 74, 127
1, 50872, Note_on_c, 1, 66, 127
1, 50873, Note_on_c, 2, 47, 127
1, 50924, Note_off_c, 2, 47, 1
1, 50924, Note_on_c, 1, 49, 127
1, 50976, Note_off_c, 1, 49, 1
1, 50976, Note_on_c, 1, 50, 127
1, 51027, Note_off_c, 1, 50, 1
1, 51028, Note_on_c, 1, 52, 127
1, 51080, Note_off_c, 1, 52, 1
1, 51081, Note_on_c, 1, 50, 127
1, 51132, Note_off_c, 1, 50, 1
1, 51132, Note_on_c, 1, 49, 127
1, 51184, Note_off_c, 1, 49, 1
1, 51184, Note_off_c, 1, 66, 1
1, 51185, Note_on_c, 0, 69, 127
1, 51185, Note_on_c, 1, 50, 127
1, 51236, Note_off_c, 1, 50, 1
1, 51236, Note_on_c, 2, 47, 127
1, 51270, Note_off_c, 0, 74, 1
1, 51288, Note_off_c, 2, 47, 1
1, 51288, Note_off_c, 0, 69, 1
1, 51288, Note_on_c, 0, 74, 127
1, 51289, Note_on_c, 1, 59, 127
1, 51338, Note_on_c, 0, 76, 127
1, 51389, Note_off_c, 0, 76, 1
1, 51390, Note_on_c, 0, 78, 109
1, 51440, Note_off_c, 0, 78, 1
1, 51441, Note_on_c, 0, 79, 109
1, 51491, Note_off_c, 0, 79, 1
1, 51492, Note_on_c, 0, 78, 109
1, 51543, Note_off_c, 0, 78, 1
1, 51543, Note_on_c, 0, 76, 127
1, 51595, Note_off_c, 0, 76, 1
1, 51595, Note_off_c, 1, 59, 1
1, 51596, Note_on_c, 0, 78, 109
1, 51596, Note_on_c, 1, 57, 127
1, 51647, Note_off_c, 0, 78, 1
1, 51647, Note_on_c, 0, 74, 127
1, 51699, Note_off_c, 0, 74, 1
1, 51700, Note_off_c, 1, 57, 1
1, 51700, Note_on_c, 0, 83, 121
1, 51701, Note_on_c, 1, 55, 127
1, 51995, Note_off_c, 0, 83, 1
1, 52013, Note_off_c, 1, 55, 1
1, 52013, Note_on_c, 0, 83, 109
1, 52014, Note_on_c, 1, 52, 127
1, 52116, Note_off_c, 1, 52, 1
1, 52116, Note_off_c, 0, 83, 1
1, 52117, Note_off_c, 0, 74, 1
1, 52117, Note_on_c, 0, 72, 127
1, 52118, Note_on_c, 0, 81, 109
1, 52118, Note_on_c, 1, 57, 127
1, 52430, Note_off_c, 1, 57, 1
1, 52431, Note_off_c, 0, 81, 1
1, 52431, Note_on_c, 0, 79, 109
1, 52431, Note_on_c, 2, 45, 127
1, 52534, Note_off_c, 2, 45, 1
1, 52535, Note_off_c, 0, 79, 1
1, 52535, Note_on_c, 0, 78, 109
1, 52536, Note_on_c, 1, 50, 127
1, 52803, Note_off_c, 0, 78, 1
1, 52803, Note_on_c, 0, 74, 127
1, 52857, Note_off_c, 0, 74, 1
1, 52857, Note_on_c, 0, 76, 127
1, 52910, Note_off_c, 0, 76, 1
1, 52911, Note_on_c, 0, 78, 109
1, 52964, Note_off_c, 0, 78, 1
1, 52965, Note_off_c, 1, 50, 1
1, 52965, Note_off_c, 0, 72, 1
1, 52966, Note_on_c, 0, 71, 127
1, 52966, Note_on_c, 0, 79, 109
1, 52967, Note_on_c, 1, 52, 127
1, 52967, Note_on_c, 1, 55, 127
1, 53017, Note_off_c, 1, 55, 1
1, 53017, Note_on_c, 1, 57, 127
1, 53070, Note_off_c, 1, 57, 1
1, 53070, Note_on_c, 1, 59, 127
1, 53124, Note_off_c, 1, 59, 1
1, 53124, Note_on_c, 1, 60, 127
1, 53176, Note_off_c, 1, 60, 1
1, 53177, Note_on_c, 1, 59, 127
1, 53229, Note_off_c, 1, 59, 1
1, 53230, Note_on_c, 1, 57, 127
1, 53265, Note_off_c, 0, 79, 1
1, 53282, Note_off_c, 1, 57, 1
1, 53282, Note_on_c, 0, 79, 109
1, 53283, Note_on_c, 1, 59, 127
1, 53335, Note_off_c, 1, 59, 1
1, 53335, Note_on_c, 1, 55, 127
1, 53370, Note_off_c, 0, 79, 1
1, 53388, Note_off_c, 1, 55, 1
1, 53388, Note_off_c, 0, 71, 1
1, 53388, Note_on_c, 0, 79, 109
1, 53389, Note_on_c, 0, 69, 127
1, 53389, Note_on_c, 1, 64, 127
1, 53390, Note_on_c, 1, 60, 127
1, 53410, Note_off_c, 1, 52, 1
1, 53679, Note_off_c, 1, 64, 1
1, 53697, Note_off_c, 1, 60, 1
1, 53697, Note_off_c, 0, 79, 1
1, 53698, Note_on_c, 0, 81, 109
1, 53698, Note_on_c, 1, 64, 127
1, 53699, Note_on_c, 1, 57, 127
1, 53799, Note_off_c, 1, 57, 1
1, 53800, Note_off_c, 1, 64, 1
1, 53800, Note_off_c, 0, 81, 1
1, 53801, Note_on_c, 0, 78, 109
1, 53801, Note_on_c, 1, 62, 127
1, 54090, Note_off_c, 0, 78, 1
1, 54108, Note_off_c, 1, 62, 1
1, 54108, Note_on_c, 0, 78, 109
1, 54108, Note_on_c, 1, 60, 127
1, 54109, Note_on_c, 1, 50, 127
1, 54194, Note_off_c, 0, 78, 1
1, 54210, Note_off_c, 1, 50, 1
1, 54211, Note_off_c, 1, 60, 1
1, 54211, Note_off_c, 0, 69, 1
1, 54212, Note_on_c, 0, 78, 109
1, 54212, Note_on_c, 1, 67, 127
1, 54213, Note_on_c, 1, 55, 127
1, 54213, Note_on_c, 1, 59, 127
1, 54246, Note_on_c, 0, 76, 127
1, 54252, Note_off_c, 0, 78, 1
1, 54282, Note_on_c, 0, 78, 109
1, 54286, Note_off_c, 0, 76, 1
1, 54526, Note_off_c, 0, 78, 1
1, 54527, Note_on_c, 0, 76, 127
1, 54578, Note_off_c, 0, 76, 1
1, 54578, Note_on_c, 0, 75, 127
1, 54621, Note_off_c, 1, 55, 1
1, 54630, Note_off_c, 0, 75, 1
1, 54630, Note_off_c, 1, 59, 1
1, 54631, Note_off_c, 1, 67, 1
1, 54631, Note_on_c, 0, 76, 127
1, 54632, Note_on_c, 0, 71, 127
1, 54632, Note_on_c, 1, 67, 127
1, 54633, Note_on_c, 2, 40, 127
1, 54681, Note_off_c, 2, 40, 1
1, 54681, Note_on_c, 2, 42, 127
1, 54732, Note_off_c, 2, 42, 1
1, 54733, Note_on_c, 2, 43, 127
1, 54784, Note_off_c, 2, 43, 1
1, 54784, Note_on_c, 2, 45, 127
1, 54836, Note_off_c, 2, 45, 1
1, 54836, Note_on_c, 2, 43, 127
1, 54887, Note_off_c, 2, 43, 1
1, 54887, Note_on_c, 2, 42, 127
1, 54938, Note_off_c, 2, 42, 1
1, 54939, Note_on_c, 2, 43, 127
1, 54990, Note_off_c, 2, 43, 1
1, 54991, Note_on_c, 2, 40, 127
1, 55041, Note_off_c, 2, 40, 1
1, 55042, Note_off_c, 1, 67, 1
1, 55042, Note_off_c, 0, 71, 1
1, 55042, Note_on_c, 0, 69, 127
1, 55043, Note_on_c, 1, 66, 127
1, 55044, Note_on_c, 2, 48, 127
1, 55330, Note_off_c, 2, 48, 1
1, 55346, Note_off_c, 0, 76, 1
1, 55347, Note_on_c, 0, 74, 127
1, 55347, Note_on_c, 2, 48, 127
1, 55446, Note_off_c, 2, 48, 1
1, 55447, Note_off_c, 0, 74, 1
1, 55447, Note_on_c, 0, 76, 127
1, 55448, Note_on_c, 2, 47, 127
1, 55747, Note_off_c, 2, 47, 1
1, 55747, Note_off_c, 0, 76, 1
1, 55748, Note_on_c, 0, 78, 109
1, 55748, Note_on_c, 2, 45, 127
1, 55847, Note_off_c, 2, 45, 1
1, 55847, Note_off_c, 0, 78, 1
1, 55848, Note_on_c, 0, 71, 127
1, 55848, Note_on_c, 2, 43, 127
1, 56161, Note_off_c, 2, 43, 1
1, 56162, Note_off_c, 0, 71, 1
1, 56162, Note_on_c, 0, 72, 127
1, 56163, Note_on_c, 2, 42, 127
1, 56214, Note_off_c, 0, 72, 1
1, 56215, Note_on_c, 0, 69, 127
1, 56266, Note_off_c, 0, 69, 1
1, 56267, Note_off_c, 2, 42, 1
1, 56267, Note_off_c, 1, 66, 1
1, 56268, Note_off_c, 0, 69, 1
1, 56268, Note_on_c, 0, 71, 127
1, 56268, Note_on_c, 1, 67, 127
1, 56269, Note_on_c, 1, 64, 127
1, 56269, Note_on_c, 2, 43, 127
1, 56579, Note_off_c, 2, 43, 1
1, 56580, Note_off_c, 1, 67, 1
1, 56580, Note_off_c, 1, 64, 1
1, 56580, Note_off_c, 0, 71, 1
1, 56581, Note_on_c, 0, 72, 127
1, 56581, Note_on_c, 1, 64, 127
1, 56582, Note_on_c, 1, 54, 127
1, 56582, Note_on_c, 2, 45, 127
1, 56666, Note_off_c, 1, 64, 1
1, 56684, Note_off_c, 2, 45, 1
1, 56684, Note_off_c, 1, 54, 1
1, 56685, Note_off_c, 0, 72, 1
1, 56685, Note_on_c, 1, 67, 127
1, 56686, Note_on_c, 1, 55, 127
1, 56686, Note_on_c, 1, 64, 127
1, 56687, Note_on_c, 2, 47, 127
1, 56997, Note_off_c, 1, 55, 1
1, 56997, Note_on_c, 1, 57, 127
1, 57084, Note_off_c, 1, 67, 1
1, 57103, Note_off_c, 1, 57, 1
1, 57103, Note_off_c, 1, 64, 1
1, 57104, Note_on_c, 1, 59, 127
1, 57104, Note_on_c, 1, 63, 127
1, 57104, Note_on_c, 1, 67, 127
1, 57146, Note_on_c, 1, 66, 127
1, 57153, Note_off_c, 1, 67, 1
1, 57191, Note_on_c, 1, 67, 127
1, 57197, Note_off_c, 1, 66, 1
1, 57235, Note_on_c, 1, 66, 127
1, 57241, Note_off_c, 1, 67, 1
1, 57280, Note_on_c, 1, 67, 127
1, 57287, Note_off_c, 1, 66, 1
1, 57324, Note_on_c, 1, 66, 127
1, 57331, Note_off_c, 1, 67, 1
1, 57366, Note_on_c, 1, 67, 127
1, 57371, Note_off_c, 1, 66, 1
1, 57405, Note_on_c, 1, 66, 127
1, 57410, Note_off_c, 1, 67, 1
1, 57444, Note_on_c, 1, 67, 127
1, 57450, Note_off_c, 1, 66, 1
1, 57484, Note_off_c, 1, 59, 1
1, 57484, Note_on_c, 1, 66, 127
1, 57485, Note_on_c, 1, 57, 127
1, 57489, Note_off_c, 1, 67, 1
1, 57520, Note_on_c, 1, 64, 127
1, 57526, Note_off_c, 1, 66, 1
1, 57557, Note_on_c, 1, 66, 127
1, 57562, Note_off_c, 1, 64, 1
1, 57593, Note_off_c, 1, 66, 1
1, 57594, Note_off_c, 1, 57, 1
1, 57594, Note_off_c, 1, 63, 1
1, 57595, Note_off_c, 2, 47, 1
1, 57595, Note_on_c, 1, 52, 127
1, 57596, Note_on_c, 1, 55, 127
1, 57596, Note_on_c, 1, 64, 127
1, 57649, Note_on_c, 1, 66, 127
1, 57704, Note_off_c, 1, 66, 1
1, 57704, Note_on_c, 1, 67, 127
1, 57759, Note_off_c, 1, 67, 1
1, 57760, Note_on_c, 0, 69, 127
1, 57816, Note_off_c, 0, 69, 1
1, 57816, Note_on_c, 1, 67, 127
1, 57871, Note_off_c, 1, 67, 1
1, 57871, Note_on_c, 1, 66, 127
1, 57927, Note_off_c, 1, 66, 1
1, 57928, Note_on_c, 1, 67, 127
1, 57983, Note_off_c, 1, 67, 1
1, 57984, Note_on_c, 1, 64, 127
1, 58040, Note_off_c, 1, 64, 1
1, 58040, Note_off_c, 1, 55, 1
1, 58041, Note_on_c, 0, 79, 109
1, 58041, Note_on_c, 1, 59, 127
1, 58044, Note_off_c, 1, 52, 1
1, 58073, Note_off_c, 1, 64, 1
1, 58152, Note_off_c, 1, 59, 1
1, 58152, Note_on_c, 1, 57, 127
1, 58262, Note_off_c, 0, 79, 1
1, 58263, Note_on_c, 1, 59, 127
1, 58266, Note_off_c, 1, 57, 1
1, 58364, Note_off_c, 1, 59, 1
1, 58366, Note_on_c, 1, 55, 127
1, 58437, Note_off_c, 1, 55, 1
1, 58471, Note_on_c, 1, 64, 127
1, 58471, Note_on_c, 1, 55, 127
1, 58472, Note_on_c, 1, 59, 127
1, 58574, Note_off_c, 1, 55, 1
1, 58575, Note_on_c, 1, 54, 127
1, 58679, Note_off_c, 1, 54, 1
1, 58680, Note_on_c, 1, 55, 127
1, 58773, Note_off_c, 1, 55, 1
1, 58784, Note_off_c, 1, 64, 1
1, 58784, Note_off_c, 1, 59, 1
1, 58785, Note_on_c, 1, 61, 127
1, 58785, Note_on_c, 1, 52, 127
1, 58786, Note_on_c, 1, 55, 127
1, 58871, Note_off_c, 1, 61, 1
1, 58871, Note_off_c, 1, 55, 1
1, 58872, Note_off_c, 1, 52, 1
1, 58887, Note_on_c, 1, 52, 127
1, 58888, Note_on_c, 1, 55, 127
1, 58888, Note_on_c, 1, 61, 127
1, 58993, Note_on_c, 1, 50, 127
1, 59002, Note_off_c, 1, 52, 1
1, 59097, Note_off_c, 1, 50, 1
1, 59097, Note_on_c, 1, 52, 127
1, 59202, Note_off_c, 1, 55, 1
1, 59203, Note_off_c, 1, 61, 1
1, 59203, Note_on_c, 1, 49, 127
1, 59204, Note_on_c, 1, 52, 127
1, 59204, Note_on_c, 1, 57, 127
1, 59213, Note_off_c, 1, 52, 1
1, 59291, Note_off_c, 1, 49, 1
1, 59291, Note_off_c, 1, 57, 1
1, 59308, Note_off_c, 1, 52, 1
1, 59309, Note_on_c, 0, 69, 127
1, 59309, Note_on_c, 1, 52, 127
1, 59309, Note_on_c, 1, 57, 127
1, 59310, Note_on_c, 1, 49, 127
1, 59364, Note_off_c, 0, 69, 1
1, 59364, Note_on_c, 0, 71, 127
1, 59420, Note_off_c, 0, 71, 1
1, 59420, Note_on_c, 0, 73, 121
1, 59475, Note_off_c, 0, 73, 1
1, 59476, Note_on_c, 0, 74, 121
1, 59530, Note_off_c, 0, 74, 1
1, 59530, Note_on_c, 0, 73, 121
1, 59584, Note_off_c, 0, 73, 1
1, 59585, Note_on_c, 0, 71, 127
1, 59639, Note_off_c, 0, 71, 1
1, 59639, Note_on_c, 0, 73, 121
1, 59692, Note_off_c, 0, 73, 1
1, 59693, Note_on_c, 0, 69, 127
1, 59708, Note_off_c, 1, 49, 1
1, 59746, Note_off_c, 0, 69, 1
1, 59747, Note_off_c, 1, 57, 1
1, 59747, Note_off_c, 1, 52, 1
1, 59747, Note_on_c, 0, 78, 103
1, 59748, Note_on_c, 1, 57, 127
1, 59853, Note_off_c, 1, 57, 1
1, 59853, Note_on_c, 1, 55, 127
1, 59958, Note_off_c, 1, 55, 1
1, 59959, Note_off_c, 0, 78, 1
1, 59959, Note_on_c, 1, 57, 127
1, 60064, Note_off_c, 1, 57, 1
1, 60064, Note_on_c, 1, 54, 127
1, 60152, Note_off_c, 1, 54, 1
1, 60170, Note_on_c, 1, 54, 127
1, 60171, Note_on_c, 1, 57, 127
1, 60171, Note_on_c, 1, 62, 127
1, 60276, Note_off_c, 1, 54, 1
1, 60276, Note_on_c, 1, 52, 127
1, 60382, Note_off_c, 1, 52, 1
1, 60382, Note_on_c, 1, 54, 127
1, 60486, Note_off_c, 1, 54, 1
1, 60487, Note_off_c, 1, 62, 1
1, 60487, Note_off_c, 1, 57, 1
1, 60488, Note_on_c, 1, 50, 127
1, 60488, Note_on_c, 1, 59, 127
1, 60489, Note_on_c, 1, 54, 127
1, 60574, Note_off_c, 1, 54, 1
1, 60574, Note_off_c, 1, 59, 1
1, 60575, Note_off_c, 1, 50, 1
1, 60591, Note_on_c, 1, 59, 127
1, 60591, Note_on_c, 1, 50, 127
1, 60592, Note_on_c, 1, 54, 127
1, 60696, Note_off_c, 1, 50, 1
1, 60696, Note_on_c, 1, 49, 127
1, 60799, Note_off_c, 1, 49, 1
1, 60800, Note_on_c, 1, 50, 127
1, 60904, Note_off_c, 1, 50, 1
1, 60904, Note_off_c, 1, 54, 1
1, 60905, Note_off_c, 1, 59, 1
1, 60905, Note_on_c, 1, 55, 127
1, 60906, Note_on_c, 1, 50, 127
1, 60906, Note_on_c, 2, 47, 127
1, 60991, Note_off_c, 2, 47, 1
1, 60992, Note_off_c, 1, 55, 1
1, 60992, Note_off_c, 1, 50, 1
1, 61008, Note_on_c, 1, 67, 127
1, 61009, Note_on_c, 1, 50, 127
1, 61009, Note_on_c, 1, 55, 127
1, 61010, Note_on_c, 2, 47, 127
1, 61064, Note_off_c, 1, 67, 1
1, 61065, Note_on_c, 0, 69, 127
1, 61120, Note_off_c, 0, 69, 1
1, 61120, Note_on_c, 0, 71, 127
1, 61173, Note_off_c, 0, 71, 1
1, 61173, Note_on_c, 0, 72, 121
1, 61223, Note_off_c, 0, 72, 1
1, 61223, Note_on_c, 0, 71, 127
1, 61272, Note_off_c, 0, 71, 1
1, 61273, Note_on_c, 0, 69, 127
1, 61321, Note_off_c, 0, 69, 1
1, 61322, Note_on_c, 0, 71, 127
1, 61372, Note_off_c, 0, 71, 1
1, 61373, Note_on_c, 1, 67, 127
1, 61423, Note_off_c, 1, 67, 1
1, 61424, Note_off_c, 2, 47, 1
1, 61424, Note_off_c, 1, 50, 1
1, 61425, Note_off_c, 1, 55, 1
1, 61425, Note_on_c, 0, 76, 127
1, 61426, Note_on_c, 1, 55, 127
1, 61527, Note_off_c, 1, 55, 1
1, 61527, Note_on_c, 1, 54, 127
1, 61634, Note_off_c, 1, 54, 1
1, 61634, Note_off_c, 0, 76, 1
1, 61634, Note_on_c, 1, 55, 127
1, 61741, Note_off_c, 1, 55, 1
1, 61742, Note_on_c, 1, 52, 127
1, 61832, Note_off_c, 1, 52, 1
1, 61848, Note_on_c, 1, 52, 127
1, 61849, Note_on_c, 1, 61, 127
1, 61850, Note_on_c, 1, 55, 127
1, 61955, Note_off_c, 1, 52, 1
1, 61955, Note_on_c, 1, 50, 127
1, 62061, Note_off_c, 1, 50, 1
1, 62062, Note_on_c, 1, 52, 127
1, 62167, Note_off_c, 1, 52, 1
1, 62167, Note_off_c, 1, 55, 1
1, 62168, Note_off_c, 1, 61, 1
1, 62168, Note_on_c, 1, 49, 127
1, 62169, Note_on_c, 1, 57, 127
1, 62169, Note_on_c, 1, 52, 127
1, 62255, Note_off_c, 1, 52, 1
1, 62256, Note_off_c, 1, 57, 1
1, 62256, Note_off_c, 1, 49, 1
1, 62272, Note_on_c, 1, 49, 127
1, 62273, Note_on_c, 1, 52, 127
1, 62273, Note_on_c, 1, 57, 127
1, 62376, Note_off_c, 1, 49, 1
1, 62376, Note_on_c, 2, 47, 127
1, 62479, Note_off_c, 2, 47, 1
1, 62479, Note_on_c, 1, 49, 127
1, 62581, Note_off_c, 1, 49, 1
1, 62582, Note_off_c, 1, 57, 1
1, 62582, Note_off_c, 1, 52, 1
1, 62583, Note_on_c, 1, 49, 127
1, 62583, Note_on_c, 1, 54, 127
1, 62584, Note_on_c, 2, 45, 127
1, 62667, Note_off_c, 1, 54, 1
1, 62667, Note_off_c, 1, 49, 1
1, 62684, Note_off_c, 2, 45, 1
1, 62685, Note_on_c, 1, 54, 127
1, 62685, Note_on_c, 1, 66, 127
1, 62686, Note_on_c, 1, 49, 127
1, 62686, Note_on_c, 2, 45, 127
1, 62736, Note_off_c, 1, 66, 1
1, 62736, Note_on_c, 1, 67, 127
1, 62787, Note_off_c, 1, 67, 1
1, 62787, Note_on_c, 0, 69, 127
1, 62839, Note_off_c, 0, 69, 1
1, 62839, Note_on_c, 0, 71, 127
1, 62890, Note_off_c, 0, 71, 1
1, 62890, Note_on_c, 0, 69, 127
1, 62941, Note_off_c, 0, 69, 1
1, 62942, Note_on_c, 1, 67, 127
1, 62993, Note_off_c, 1, 67, 1
1, 62994, Note_off_c, 1, 54, 1
1, 62994, Note_on_c, 0, 69, 127
1, 63044, Note_off_c, 0, 69, 1
1, 63045, Note_on_c, 1, 66, 127
1, 63096, Note_off_c, 1, 66, 1
1, 63096, Note_off_c, 2, 45, 1
1, 63097, Note_off_c, 1, 49, 1
1, 63097, Note_on_c, 0, 74, 127
1, 63098, Note_on_c, 1, 59, 127
1, 63147, Note_off_c, 1, 59, 1
1, 63147, Note_on_c, 1, 61, 127
1, 63199, Note_off_c, 1, 61, 1
1, 63199, Note_on_c, 1, 62, 127
1, 63252, Note_off_c, 1, 62, 1
1, 63252, Note_on_c, 1, 64, 127
1, 63303, Note_off_c, 1, 64, 1
1, 63304, Note_on_c, 1, 62, 127
1, 63355, Note_off_c, 1, 62, 1
1, 63356, Note_on_c, 1, 61, 127
1, 63391, Note_off_c, 0, 74, 1
1, 63408, Note_off_c, 1, 61, 1
1, 63408, Note_on_c, 0, 74, 127
1, 63409, Note_on_c, 1, 62, 127
1, 63460, Note_off_c, 1, 62, 1
1, 63460, Note_on_c, 1, 59, 127
1, 63494, Note_off_c, 0, 74, 1
1, 63512, Note_off_c, 1, 59, 1
1, 63513, Note_on_c, 0, 74, 127
1, 63513, Note_on_c, 1, 67, 127
1, 63514, Note_on_c, 1, 52, 127
1, 63565, Note_off_c, 1, 52, 1
1, 63565, Note_on_c, 1, 54, 127
1, 63616, Note_off_c, 1, 54, 1
1, 63617, Note_on_c, 1, 55, 127
1, 63669, Note_off_c, 1, 55, 1
1, 63670, Note_on_c, 1, 57, 127
1, 63721, Note_off_c, 1, 57, 1
1, 63721, Note_on_c, 1, 55, 127
1, 63773, Note_off_c, 1, 55, 1
1, 63773, Note_on_c, 1, 54, 127
1, 63826, Note_off_c, 1, 54, 1
1, 63826, Note_off_c, 0, 74, 1
1, 63827, Note_on_c, 0, 76, 127
1, 63827, Note_on_c, 1, 55, 127
1, 63877, Note_off_c, 1, 55, 1
1, 63878, Note_on_c, 1, 52, 127
1, 63932, Note_off_c, 1, 52, 1
1, 63932, Note_off_c, 0, 76, 1
1, 63932, Note_on_c, 0, 74, 127
1, 63933, Note_on_c, 1, 57, 127
1, 63980, Note_on_c, 0, 73, 127
1, 63986, Note_off_c, 0, 74, 1
1, 64003, Note_on_c, 1, 59, 127
1, 64028, Note_on_c, 0, 74, 127
1, 64034, Note_off_c, 0, 73, 1
1, 64076, Note_off_c, 1, 59, 1
1, 64076, Note_on_c, 0, 73, 127
1, 64076, Note_on_c, 1, 61, 127
1, 64082, Note_off_c, 0, 74, 1
1, 64124, Note_on_c, 0, 74, 127
1, 64130, Note_off_c, 0, 73, 1
1, 64147, Note_off_c, 1, 61, 1
1, 64148, Note_on_c, 1, 62, 127
1, 64169, Note_on_c, 0, 73, 127
1, 64174, Note_off_c, 0, 74, 1
1, 64204, Note_off_c, 1, 62, 1
1, 64205, Note_on_c, 1, 61, 127
1, 64257, Note_off_c, 1, 61, 1
1, 64258, Note_on_c, 1, 59, 127
1, 64310, Note_off_c, 1, 59, 1
1, 64310, Note_off_c, 0, 73, 1
1, 64311, Note_on_c, 0, 74, 127
1, 64311, Note_on_c, 1, 61, 127
1, 64363, Note_off_c, 1, 61, 1
1, 64363, Note_off_c, 0, 74, 1
1, 64363, Note_on_c, 0, 76, 127
1, 64364, Note_on_c, 1, 57, 127
1, 64416, Note_off_c, 1, 57, 1
1, 64416, Note_off_c, 0, 76, 1
1, 64416, Note_off_c, 1, 57, 1
1, 64417, Note_off_c, 1, 67, 1
1, 64417, Note_on_c, 0, 78, 109
1, 64418, Note_on_c, 1, 62, 127
1, 64418, Note_on_c, 1, 66, 127
1, 64418, Note_on_c, 1, 50, 127
1, 64468, Note_off_c, 1, 50, 1
1, 64469, Note_on_c, 1, 52, 127
1, 64520, Note_off_c, 1, 52, 1
1, 64521, Note_on_c, 1, 54, 127
1, 64572, Note_off_c, 1, 54, 1
1, 64572, Note_on_c, 1, 55, 127
1, 64625, Note_off_c, 1, 55, 1
1, 64625, Note_on_c, 1, 54, 127
1, 64677, Note_off_c, 1, 54, 1
1, 64677, Note_on_c, 1, 52, 127
1, 64728, Note_off_c, 1, 52, 1
1, 64729, Note_on_c, 1, 54, 127
1, 64781, Note_off_c, 1, 54, 1
1, 64782, Note_on_c, 1, 50, 127
1, 64833, Note_off_c, 1, 50, 1
1, 64834, Note_off_c, 1, 66, 1
1, 64834, Note_off_c, 1, 62, 1
1, 64835, Note_off_c, 0, 78, 1
1, 64835, Note_on_c, 0, 83, 109
1, 64836, Note_on_c, 1, 55, 127
1, 64938, Note_off_c, 0, 83, 1
1, 64938, Note_on_c, 0, 81, 109
1, 65042, Note_off_c, 0, 81, 1
1, 65043, Note_off_c, 1, 55, 1
1, 65043, Note_on_c, 0, 83, 109
1, 65147, Note_off_c, 0, 83, 1
1, 65148, Note_on_c, 0, 79, 109
1, 65236, Note_off_c, 0, 79, 1
1, 65253, Note_on_c, 0, 74, 127
1, 65253, Note_on_c, 0, 79, 109
1, 65254, Note_on_c, 0, 71, 127
1, 65359, Note_off_c, 0, 79, 1
1, 65360, Note_on_c, 0, 78, 109
1, 65466, Note_off_c, 0, 78, 1
1, 65466, Note_on_c, 0, 79, 109
1, 65571, Note_off_c, 0, 79, 1
1, 65572, Note_off_c, 0, 74, 1
1, 65572, Note_off_c, 0, 71, 1
1, 65573, Note_on_c, 0, 76, 127
1, 65573, Note_on_c, 0, 71, 127
1, 65574, Note_on_c, 1, 67, 127
1, 65660, Note_off_c, 1, 67, 1
1, 65660, Note_off_c, 0, 71, 1
1, 65661, Note_off_c, 0, 76, 1
1, 65677, Note_on_c, 0, 71, 127
1, 65677, Note_on_c, 0, 76, 127
1, 65678, Note_on_c, 1, 67, 127
1, 65784, Note_off_c, 0, 76, 1
1, 65785, Note_on_c, 0, 74, 127
1, 65892, Note_off_c, 0, 74, 1
1, 65892, Note_on_c, 0, 76, 127
1, 66000, Note_off_c, 0, 76, 1
1, 66000, Note_off_c, 1, 67, 1
1, 66000, Note_off_c, 0, 71, 1
1, 66001, Note_on_c, 0, 73, 127
1, 66001, Note_on_c, 0, 69, 127
1, 66002, Note_on_c, 1, 64, 127
1, 66089, Note_off_c, 1, 64, 1
1, 66089, Note_off_c, 0, 69, 1
1, 66090, Note_off_c, 0, 73, 1
1, 66107, Note_on_c, 0, 73, 127
1, 66108, Note_on_c, 0, 69, 127
1, 66108, Note_on_c, 1, 64, 127
1, 66108, Note_on_c, 2, 43, 127
1, 66507, Note_off_c, 0, 69, 1
1, 66525, Note_off_c, 2, 43, 1
1, 66526, Note_off_c, 1, 64, 1
1, 66526, Note_off_c, 0, 73, 1
1, 66526, Note_on_c, 0, 74, 127
1, 66527, Note_on_c, 0, 69, 127
1, 66527, Note_on_c, 1, 66, 127
1, 66528, Note_on_c, 1, 54, 127
1, 66577, Note_off_c, 1, 54, 1
1, 66577, Note_on_c, 1, 55, 127
1, 66629, Note_off_c, 1, 55, 1
1, 66629, Note_on_c, 1, 57, 127
1, 66682, Note_off_c, 1, 57, 1
1, 66682, Note_on_c, 1, 55, 127
1, 66733, Note_off_c, 1, 55, 1
1, 66734, Note_on_c, 1, 54, 127
1, 66785, Note_off_c, 1, 54, 1
1, 66786, Note_on_c, 1, 52, 127
1, 66821, Note_off_c, 1, 66, 1
1, 66821, Note_off_c, 0, 69, 1
1, 66822, Note_off_c, 0, 74, 1
1, 66838, Note_off_c, 1, 52, 1
1, 66839, Note_on_c, 0, 74, 127
1, 66839, Note_on_c, 0, 69, 127
1, 66840, Note_on_c, 1, 66, 127
1, 66840, Note_on_c, 1, 50, 127
1, 66890, Note_off_c, 1, 50, 1
1, 66890, Note_on_c, 1, 49, 127
1, 66924, Note_off_c, 1, 66, 1
1, 66925, Note_off_c, 0, 74, 1
1, 66943, Note_off_c, 1, 49, 1
1, 66943, Note_off_c, 0, 69, 1
1, 66944, Note_on_c, 0, 71, 127
1, 66944, Note_on_c, 0, 74, 127
1, 66945, Note_on_c, 1, 66, 127
1, 66945, Note_on_c, 2, 47, 127
1, 66996, Note_off_c, 2, 47, 1
1, 66996, Note_on_c, 1, 49, 127
1, 67048, Note_off_c, 1, 49, 1
1, 67049, Note_on_c, 1, 50, 127
1, 67101, Note_off_c, 1, 50, 1
1, 67102, Note_on_c, 1, 49, 127
1, 67154, Note_off_c, 1, 49, 1
1, 67154, Note_on_c, 2, 47, 127
1, 67208, Note_off_c, 2, 47, 1
1, 67208, Note_on_c, 2, 45, 127
1, 67242, Note_off_c, 0, 71, 1
1, 67260, Note_off_c, 2, 45, 1
1, 67261, Note_off_c, 1, 66, 1
1, 67261, Note_off_c, 0, 74, 1
1, 67262, Note_on_c, 0, 76, 127
1, 67262, Note_on_c, 0, 71, 127
1, 67263, Note_on_c, 1, 67, 127
1, 67263, Note_on_c, 2, 47, 127
1, 67313, Note_off_c, 2, 47, 1
1, 67314, Note_on_c, 2, 43, 127
1, 67366, Note_off_c, 2, 43, 1
1, 67367, Note_off_c, 1, 67, 1
1, 67367, Note_off_c, 0, 71, 1
1, 67368, Note_off_c, 0, 76, 1
1, 67368, Note_on_c, 0, 69, 127
1, 67368, Note_on_c, 0, 71, 127
1, 67369, Note_on_c, 1, 64, 127
1, 67369, Note_on_c, 2, 45, 127
1, 67412, Note_on_c, 0, 73, 127
1, 67420, Note_off_c, 0, 71, 1
1, 67463, Note_on_c, 0, 74, 127
1, 67471, Note_off_c, 0, 73, 1
1, 67515, Note_on_c, 0, 73, 127
1, 67523, Note_off_c, 0, 74, 1
1, 67560, Note_on_c, 0, 74, 127
1, 67567, Note_off_c, 0, 73, 1
1, 67602, Note_on_c, 0, 73, 127
1, 67609, Note_off_c, 0, 74, 1
1, 67641, Note_on_c, 0, 74, 127
1, 67646, Note_off_c, 0, 73, 1
1, 67677, Note_on_c, 0, 73, 127
1, 67683, Note_off_c, 0, 74, 1
1, 67743, Note_off_c, 0, 73, 1
1, 67749, Note_off_c, 2, 45, 1
1, 67750, Note_on_c, 2, 45, 127
1, 67757, Note_on_c, 0, 74, 127
1, 67846, Note_off_c, 0, 69, 1
1, 67854, Note_off_c, 0, 74, 1
1, 67865, Note_off_c, 2, 45, 1
1, 67866, Note_off_c, 1, 64, 1
1, 67866, Note_on_c, 0, 74, 127
1, 67867, Note_on_c, 0, 69, 127
1, 67867, Note_on_c, 1, 66, 127
1, 67868, Note_on_c, 2, 38, 127
1, 68123, Note_off_c, 2, 38, 1
1, 68123, Note_on_c, 1, 50, 127
1, 68174, Note_off_c, 1, 50, 1
1, 68175, Note_on_c, 1, 52, 127
1, 68225, Note_off_c, 1, 52, 1
1, 68226, Note_on_c, 1, 54, 127
1, 68260, Note_off_c, 0, 74, 1
1, 68277, Note_off_c, 1, 54, 1
1, 68278, Note_off_c, 1, 66, 1
1, 68278, Note_off_c, 0, 69, 1
1, 68279, Note_on_c, 0, 71, 127
1, 68279, Note_on_c, 1, 55, 127
1, 68327, Note_off_c, 0, 71, 1
1, 68328, Note_on_c, 0, 73, 127
1, 68377, Note_off_c, 0, 73, 1
1, 68377, Note_on_c, 0, 74, 127
1, 68428, Note_off_c, 0, 74, 1
1, 68428, Note_on_c, 0, 76, 127
1, 68479, Note_off_c, 0, 76, 1
1, 68479, Note_on_c, 0, 74, 127
1, 68530, Note_off_c, 0, 74, 1
1, 68530, Note_on_c, 0, 73, 127
1, 68581, Note_off_c, 0, 73, 1
1, 68582, Note_on_c, 0, 74, 127
1, 68633, Note_off_c, 0, 74, 1
1, 68633, Note_on_c, 0, 71, 127
1, 68681, Note_off_c, 0, 71, 1
1, 68684, Note_off_c, 1, 55, 1
1, 68684, Note_on_c, 0, 71, 118
1, 68684, Note_on_c, 0, 76, 118
1, 68685, Note_on_c, 1, 64, 127
1, 68685, Note_on_c, 1, 49, 127
1, 68734, Note_off_c, 1, 49, 1
1, 68734, Note_on_c, 1, 50, 127
1, 68785, Note_off_c, 1, 50, 1
1, 68786, Note_on_c, 1, 52, 127
1, 68836, Note_off_c, 1, 52, 1
1, 68837, Note_on_c, 1, 54, 127
1, 68886, Note_off_c, 1, 54, 1
1, 68887, Note_on_c, 1, 52, 127
1, 68937, Note_off_c, 1, 52, 1
1, 68937, Note_on_c, 1, 50, 127
1, 68987, Note_off_c, 1, 50, 1
1, 68988, Note_on_c, 1, 52, 127
1, 69038, Note_off_c, 1, 52, 1
1, 69038, Note_on_c, 1, 49, 127
1, 69089, Note_off_c, 1, 49, 1
1, 69089, Note_off_c, 1, 64, 1
1, 69089, Note_off_c, 0, 71, 1
1, 69090, Note_off_c, 0, 76, 1
1, 69091, Note_on_c, 0, 69, 127
1, 69091, Note_on_c, 1, 54, 127
1, 69140, Note_off_c, 0, 69, 1
1, 69140, Note_on_c, 0, 71, 127
1, 69190, Note_off_c, 0, 71, 1
1, 69190, Note_on_c, 0, 73, 127
1, 69240, Note_off_c, 0, 73, 1
1, 69240, Note_on_c, 0, 74, 127
1, 69290, Note_off_c, 0, 74, 1
1, 69291, Note_on_c, 0, 73, 127
1, 69341, Note_off_c, 0, 73, 1
1, 69342, Note_on_c, 0, 71, 127
1, 69392, Note_off_c, 0, 71, 1
1, 69393, Note_on_c, 0, 73, 127
1, 69443, Note_off_c, 0, 73, 1
1, 69444, Note_on_c, 0, 69, 127
1, 69494, Note_off_c, 0, 69, 1
1, 69494, Note_off_c, 1, 54, 1
1, 69495, Note_on_c, 0, 74, 118
1, 69495, Note_on_c, 2, 47, 127
1, 69497, Note_on_c, 0, 69, 118
1, 69499, Note_on_c, 1, 62, 127
1, 69545, Note_off_c, 2, 47, 1
1, 69545, Note_on_c, 1, 49, 127
1, 69597, Note_off_c, 1, 49, 1
1, 69597, Note_on_c, 1, 50, 127
1, 69648, Note_off_c, 1, 50, 1
1, 69648, Note_on_c, 1, 52, 127
1, 69699, Note_off_c, 1, 52, 1
1, 69700, Note_on_c, 1, 50, 127
1, 69751, Note_off_c, 1, 50, 1
1, 69752, Note_on_c, 1, 49, 127
1, 69802, Note_off_c, 1, 49, 1
1, 69803, Note_on_c, 1, 50, 127
1, 69854, Note_off_c, 1, 50, 1
1, 69854, Note_on_c, 2, 47, 127
1, 69905, Note_off_c, 2, 47, 1
1, 69905, Note_off_c, 0, 74, 1
1, 69906, Note_on_c, 1, 67, 127
1, 69906, Note_on_c, 1, 52, 127
1, 69909, Note_off_c, 0, 69, 1
1, 69911, Note_off_c, 1, 62, 1
1, 69956, Note_off_c, 1, 52, 1
1, 69956, Note_off_c, 1, 67, 1
1, 69957, Note_on_c, 0, 69, 127
1, 69957, Note_on_c, 1, 54, 127
1, 70007, Note_off_c, 1, 54, 1
1, 70007, Note_off_c, 0, 69, 1
1, 70008, Note_on_c, 0, 71, 127
1, 70008, Note_on_c, 1, 55, 127
1, 70057, Note_off_c, 1, 55, 1
1, 70058, Note_off_c, 0, 71, 1
1, 70058, Note_on_c, 0, 72, 127
1, 70059, Note_on_c, 1, 57, 127
1, 70108, Note_off_c, 1, 57, 1
1, 70109, Note_off_c, 0, 72, 1
1, 70109, Note_on_c, 0, 71, 127
1, 70110, Note_on_c, 1, 55, 127
1, 70159, Note_off_c, 1, 55, 1
1, 70159, Note_off_c, 0, 71, 1
1, 70160, Note_on_c, 0, 69, 127
1, 70160, Note_on_c, 1, 54, 127
1, 70210, Note_off_c, 1, 54, 1
1, 70211, Note_off_c, 0, 69, 1
1, 70211, Note_on_c, 0, 71, 127
1, 70212, Note_on_c, 1, 55, 127
1, 70260, Note_off_c, 1, 55, 1
1, 70260, Note_off_c, 0, 71, 1
1, 70261, Note_on_c, 1, 67, 127
1, 70261, Note_on_c, 1, 52, 127
1, 70311, Note_off_c, 1, 52, 1
1, 70311, Note_off_c, 1, 67, 1
1, 70312, Note_on_c, 0, 73, 127
1, 70312, Note_on_c, 1, 57, 127
1, 70362, Note_off_c, 1, 57, 1
1, 70362, Note_off_c, 0, 73, 1
1, 70363, Note_on_c, 0, 74, 127
1, 70363, Note_on_c, 1, 59, 127
1, 70413, Note_off_c, 1, 59, 1
1, 70413, Note_off_c, 0, 74, 1
1, 70414, Note_on_c, 0, 76, 127
1, 70414, Note_on_c, 1, 61, 127
1, 70464, Note_off_c, 1, 61, 1
1, 70464, Note_off_c, 0, 76, 1
1, 70464, Note_on_c, 0, 78, 109
1, 70465, Note_on_c, 1, 62, 127
1, 70513, Note_off_c, 1, 62, 1
1, 70514, Note_off_c, 0, 78, 1
1, 70514, Note_on_c, 0, 76, 127
1, 70515, Note_on_c, 1, 61, 127
1, 70565, Note_off_c, 1, 61, 1
1, 70566, Note_off_c, 0, 76, 1
1, 70566, Note_on_c, 0, 74, 127
1, 70567, Note_on_c, 1, 59, 127
1, 70616, Note_off_c, 1, 59, 1
1, 70617, Note_off_c, 0, 74, 1
1, 70617, Note_on_c, 0, 76, 127
1, 70618, Note_on_c, 1, 61, 127
1, 70668, Note_off_c, 1, 61, 1
1, 70668, Note_off_c, 0, 76, 1
1, 70669, Note_on_c, 0, 73, 127
1, 70669, Note_on_c, 1, 57, 127
1, 70719, Note_off_c, 1, 57, 1
1, 70719, Note_off_c, 0, 73, 1
1, 70720, Note_on_c, 0, 78, 109
1, 70720, Note_on_c, 1, 62, 127
1, 70771, Note_off_c, 1, 62, 1
1, 70771, Note_off_c, 0, 78, 1
1, 70772, Note_on_c, 0, 79, 109
1, 70772, Note_on_c, 1, 64, 127
1, 70824, Note_off_c, 1, 64, 1
1, 70824, Note_off_c, 0, 79, 1
1, 70824, Note_on_c, 0, 81, 109
1, 70825, Note_on_c, 1, 66, 127
1, 70875, Note_off_c, 1, 66, 1
1, 70876, Note_off_c, 0, 81, 1
1, 70876, Note_on_c, 0, 83, 109
1, 70877, Note_on_c, 1, 67, 127
1, 70927, Note_off_c, 1, 67, 1
1, 70928, Note_off_c, 0, 83, 1
1, 70928, Note_on_c, 0, 81, 109
1, 70929, Note_on_c, 1, 66, 127
1, 70980, Note_off_c, 1, 66, 1
1, 70980, Note_off_c, 0, 81, 1
1, 70981, Note_on_c, 0, 79, 109
1, 70981, Note_on_c, 1, 64, 127
1, 71032, Note_off_c, 1, 64, 1
1, 71032, Note_off_c, 0, 79, 1
1, 71033, Note_on_c, 0, 81, 109
1, 71033, Note_on_c, 1, 66, 127
1, 71084, Note_off_c, 1, 66, 1
1, 71084, Note_off_c, 0, 81, 1
1, 71085, Note_on_c, 0, 78, 109
1, 71085, Note_on_c, 1, 62, 127
1, 71136, Note_off_c, 1, 62, 1
1, 71137, Note_off_c, 0, 78, 1
1, 71137, Note_on_c, 0, 83, 109
1, 71138, Note_on_c, 1, 67, 127
1, 71441, Note_off_c, 1, 67, 1
1, 71442, Note_off_c, 0, 83, 1
1, 71442, Note_on_c, 0, 73, 127
1, 71443, Note_on_c, 0, 69, 127
1, 71443, Note_on_c, 1, 55, 127
1, 71443, Note_on_c, 1, 64, 127
1, 71526, Note_off_c, 0, 69, 1
1, 71543, Note_off_c, 1, 55, 1
1, 71544, Note_off_c, 1, 64, 1
1, 71544, Note_off_c, 0, 73, 1
1, 71544, Note_on_c, 0, 69, 127
1, 71544, Note_on_c, 0, 74, 127
1, 71545, Note_on_c, 1, 54, 127
1, 71545, Note_on_c, 1, 66, 127
1, 71849, Note_off_c, 1, 54, 1
1, 71850, Note_off_c, 1, 66, 1
1, 71850, Note_off_c, 0, 69, 1
1, 71851, Note_off_c, 0, 74, 1
1, 71851, Note_on_c, 0, 76, 127
1, 71852, Note_on_c, 0, 73, 127
1, 71852, Note_on_c, 1, 67, 127
1, 71853, Note_on_c, 1, 52, 127
1, 71962, Note_off_c, 1, 52, 1
1, 71962, Note_off_c, 1, 67, 1
1, 71963, Note_off_c, 0, 73, 1
1, 71963, Note_off_c, 0, 76, 1
1, 71964, Note_on_c, 0, 69, 127
1, 71964, Note_on_c, 0, 74, 127
1, 71964, Note_on_c, 0, 78, 109
1, 71965, Note_on_c, 1, 50, 127
1, 72300, Note_off_c, 1, 50, 1
1, 72300, Note_off_c, 0, 74, 1
1, 72300, Note_off_c, 0, 69, 1
1, 72301, Note_off_c, 0, 78, 1
1, 72301, Note_on_c, 1, 66, 127
1, 72302, Note_on_c, 1, 62, 127
1, 72302, Note_on_c, 1, 57, 127
1, 72303, Note_on_c, 2, 48, 127
1, 72394, Note_off_c, 1, 62, 1
1, 72412, Note_off_c, 2, 48, 1
1, 72412, Note_off_c, 1, 57, 1
1, 72413, Note_off_c, 1, 66, 1
1, 72413, Note_on_c, 1, 67, 127
1, 72414, Note_on_c, 1, 59, 127
1, 72414, Note_on_c, 1, 62, 127
1, 72415, Note_on_c, 2, 47, 127
1, 72764, Note_off_c, 2, 47, 1
1, 72765, Note_off_c, 1, 62, 1
1, 72765, Note_off_c, 1, 59, 1
1, 72766, Note_off_c, 1, 67, 1
1, 72766, Note_on_c, 0, 69, 127
1, 72767, Note_on_c, 1, 66, 127
1, 72767, Note_on_c, 1, 60, 127
1, 72768, Note_on_c, 2, 45, 127
1, 72882, Note_off_c, 2, 45, 1
1, 72883, Note_off_c, 1, 60, 1
1, 72883, Note_off_c, 1, 66, 1
1, 72884, Note_off_c, 0, 69, 1
1, 72884, Note_on_c, 0, 71, 127
1, 72885, Note_on_c, 1, 62, 127
1, 72885, Note_on_c, 1, 67, 127
1, 72886, Note_on_c, 2, 43, 127
1, 73203, Note_off_c, 0, 71, 1
1, 73222, Note_off_c, 2, 43, 1
1, 73223, Note_off_c, 1, 67, 1
1, 73223, Note_off_c, 1, 62, 1
1, 73224, Note_on_c, 0, 71, 127
1, 73224, Note_on_c, 1, 62, 127
1, 73224, Note_on_c, 1, 67, 127
1, 73225, Note_on_c, 2, 42, 127
1, 73340, Note_off_c, 2, 42, 1
1, 73341, Note_off_c, 1, 67, 1
1, 73341, Note_off_c, 1, 62, 1
1, 73342, Note_off_c, 0, 71, 1
1, 73342, Note_on_c, 0, 73, 127
1, 73343, Note_on_c, 1, 67, 127
1, 73343, Note_on_c, 1, 64, 127
1, 73344, Note_on_c, 2, 40, 127
1, 73720, Note_off_c, 2, 40, 1
1, 73720, Note_off_c, 1, 67, 1
1, 73721, Note_off_c, 1, 64, 1
1, 73721, Note_off_c, 0, 73, 1
1, 73721, Note_on_c, 0, 74, 127
1, 73722, Note_on_c, 0, 69, 127
1, 73722, Note_on_c, 1, 66, 127
1, 73723, Note_on_c, 2, 38, 127
1, 73817, Note_off_c, 1, 66, 1
1, 73850, Note_off_c, 2, 38, 1
1, 73851, Note_off_c, 0, 69, 1
1, 73851, Note_off_c, 0, 74, 1
1, 73852, Note_on_c, 1, 62, 127
1, 73852, Note_on_c, 1, 66, 127
1, 73853, Note_on_c, 1, 57, 127
1, 73853, Note_on_c, 2, 45, 127
1, 74362, Note_off_c, 1, 57, 1
1, 74363, Note_off_c, 1, 66, 1
1, 74363, Note_off_c, 1, 62, 1
1, 74384, Note_on_c, 1, 66, 127
1, 74385, Note_on_c, 1, 55, 127
1, 74385, Note_on_c, 1, 61, 127
1, 74444, Note_on_c, 1, 64, 127
1, 74453, Note_off_c, 1, 66, 1
1, 74509, Note_on_c, 1, 66, 127
1, 74519, Note_off_c, 1, 64, 1
1, 74573, Note_on_c, 1, 64, 127
1, 74583, Note_off_c, 1, 66, 1
1, 74632, Note_on_c, 1, 66, 127
1, 74640, Note_off_c, 1, 64, 1
1, 74689, Note_on_c, 1, 64, 127
1, 74698, Note_off_c, 1, 66, 1
1, 74746, Note_on_c, 1, 66, 127
1, 74755, Note_off_c, 1, 64, 1
1, 74795, Note_on_c, 1, 64, 127
1, 74802, Note_off_c, 1, 66, 1
1, 74841, Note_on_c, 1, 66, 127
1, 74848, Note_off_c, 1, 64, 1
1, 74887, Note_on_c, 1, 64, 127
1, 74895, Note_off_c, 1, 66, 1
1, 74934, Note_on_c, 1, 62, 127
1, 74942, Note_off_c, 1, 64, 1
1, 74986, Note_on_c, 1, 64, 127
1, 74994, Note_off_c, 1, 62, 1
1, 75011, Note_off_c, 1, 55, 1
1, 75012, Note_off_c, 1, 61, 1
1, 75024, Note_off_c, 2, 45, 1
1, 75037, Note_on_c, 1, 57, 127
1, 75037, Note_on_c, 1, 62, 127
1, 75038, Note_on_c, 1, 54, 127
1, 75038, Note_on_c, 2, 38, 127
1, 75048, Note_off_c, 1, 64, 1
1, 78529, Note_off_c, 2, 38, 1
1, 78530, Note_off_c, 1, 57, 1
1, 78530, Note_off_c, 1, 54, 1
1, 78531, Note_off_c, 1, 62, 1
1, 78531, End_track
0, 0, End_of_file