0, 0, Header, 1, 5, 240
1, 0, Start_track
1, 0, Time_signature, 4, 2, 24, 8
1, 0, Key_signature, -3, "major"
1, 0, Tempo, 638298
1, 0, Marker_t, "(c) Yo Tomita, 1997"
1, 10907, Tempo, 631579
1, 10935, Tempo, 638298
1, 10960, Tempo, 645161
1, 10985, Tempo, 652174
1, 11010, Tempo, 659341
1, 11037, Tempo, 666667
1, 11062, Tempo, 674157
1, 11087, Tempo, 681818
1, 11112, Tempo, 689655
1, 11137, Tempo, 697674
1, 11165, Tempo, 705882
1, 11190, Tempo, 714286
1, 11215, Tempo, 722892
1, 11240, Tempo, 731707
1, 11267, Tempo, 740741
1, 11292, Tempo, 750000
1, 11317, Tempo, 759494
1, 11342, Tempo, 769231
1, 11367, Tempo, 779221
1, 11380, Tempo, 659341
1, 11396, Tempo, 638298
1, 11520, Tempo, 769231
1, 11555, Tempo, 638298
1, 16785, Tempo, 674157
1, 16797, Tempo, 714286
1, 16852, Tempo, 645161
1, 17280, Tempo, 740741
1, 17337, Tempo, 645161
1, 18592, Tempo, 705882
1, 18727, Tempo, 638298
1, 22467, Tempo, 666667
1, 22520, Tempo, 681818
1, 22560, Tempo, 697674
1, 22610, Tempo, 714286
1, 22660, Tempo, 731707
1, 22712, Tempo, 750000
1, 22757, Tempo, 769231
1, 22805, Tempo, 810811
1, 22882, Tempo, 645161
1, 37725, Tempo, 645161
1, 37760, Tempo, 652174
1, 37792, Tempo, 659341
1, 37825, Tempo, 666667
1, 37860, Tempo, 674157
1, 37892, Tempo, 681818
1, 37925, Tempo, 689655
1, 37960, Tempo, 697674
1, 37992, Tempo, 705882
1, 38025, Tempo, 714286
1, 38060, Tempo, 722892
1, 38092, Tempo, 731707
1, 38125, Tempo, 740741
1, 38160, Tempo, 750000
1, 38192, Tempo, 759494
1, 38225, Tempo, 769231
1, 38257, Tempo, 645161
1, 42477, Tempo, 789474
1, 42545, Tempo, 789474
1, 42552, Tempo, 638298
1, 42975, Tempo, 779221
1, 43082, Tempo, 638298
1, 43682, Tempo, 705882
1, 43752, Tempo, 638298
1, 44160, Tempo, 697674
1, 44222, Tempo, 638298
1, 44400, Tempo, 750000
1, 44462, Tempo, 638298
1, 44640, Tempo, 909091
1, 44697, Tempo, 740741
1, 44732, Tempo, 638298
1, 45120, Tempo, 689655
1, 45180, Tempo, 638298
1, 45360, Tempo, 740741
1, 45415, Tempo, 638298
1, 45597, Tempo, 779221
1, 45662, Tempo, 638298
1, 46907, Tempo, 666667
1, 46970, Tempo, 705882
1, 47065, Tempo, 638298
1, 47372, Tempo, 666667
1, 47437, Tempo, 705882
1, 47487, Tempo, 740741
1, 47535, Tempo, 638298
1, 47857, Tempo, 674157
1, 47890, Tempo, 714286
1, 47892, Tempo, 722892
1, 47927, Tempo, 759494
1, 47960, Tempo, 800000
1, 48022, Tempo, 638298
1, 51105, Tempo, 674157
1, 51117, Tempo, 769231
1, 51160, Tempo, 638298
1, 51732, Tempo, 674157
1, 51787, Tempo, 705882
1, 51855, Tempo, 638298
1, 52180, Tempo, 674157
1, 52227, Tempo, 714286
1, 52275, Tempo, 750000
1, 52332, Tempo, 638298
1, 52562, Tempo, 821918
1, 52602, Tempo, 638298
1, 52675, Tempo, 731707
1, 52750, Tempo, 631579
1, 52783, Tempo, 645161
1, 52806, Tempo, 652174
1, 52826, Tempo, 659341
1, 52846, Tempo, 666667
1, 52866, Tempo, 674157
1, 52886, Tempo, 681818
1, 52910, Tempo, 689655
1, 52930, Tempo, 697674
1, 52950, Tempo, 705882
1, 52970, Tempo, 714286
1, 52990, Tempo, 722892
1, 53013, Tempo, 731707
1, 53033, Tempo, 740741
1, 53053, Tempo, 750000
1, 53073, Tempo, 759494
1, 53093, Tempo, 769231
1, 53116, Tempo, 779221
1, 53136, Tempo, 789474
1, 53156, Tempo, 800000
1, 53176, Tempo, 810811
1, 53196, Tempo, 821918
1, 53216, Tempo, 833333
1, 53223, Tempo, 821918
1, 53230, Tempo, 833333
1, 53236, Tempo, 845070
1, 53243, Tempo, 857143
1, 53246, Tempo, 869565
1, 53253, Tempo, 882353
1, 53256, Tempo, 882353
1, 53266, Tempo, 895522
1, 53273, Tempo, 909091
1, 53283, Tempo, 923077
1, 53290, Tempo, 937500
1, 53300, Tempo, 952381
1, 53306, Tempo, 967742
1, 53316, Tempo, 983607
1, 53323, Tempo, 1000000
1, 53333, Tempo, 1016949
1, 53340, Tempo, 1034483
1, 53350, Tempo, 1052632
1, 53356, Tempo, 1071429
1, 53366, Tempo, 1090909
1, 53373, Tempo, 1111111
1, 53383, Tempo, 1132075
1, 53390, Tempo, 1153846
1, 53400, Tempo, 1176471
1, 53406, Tempo, 1200000
1, 53416, Tempo, 1224490
1, 53423, Tempo, 1250000
1, 53433, Tempo, 1276596
1, 53440, Tempo, 1304348
1, 53450, Tempo, 1333333
1, 53456, Tempo, 1363636
1, 53466, Tempo, 1395349
1, 53473, Tempo, 1428571
1, 53483, Tempo, 1463415
1, 53483, End_track
2, 0, Start_track
2, 0, MIDI_port, 0
2, 0, Title_t, "BWV 871/1"
2, 0, Program_c, 0, 6
2, 0, Note_on_c, 0, 48, 120
2, 60, Note_on_c, 0, 67, 120
2, 79, Note_on_c, 0, 48, 0
2, 120, Note_on_c, 0, 67, 0
2, 120, Note_on_c, 0, 65, 120
2, 120, Note_on_c, 0, 60, 120
2, 180, Note_on_c, 0, 65, 0
2, 180, Note_on_c, 0, 67, 120
2, 207, Note_on_c, 0, 60, 0
2, 240, Note_on_c, 0, 67, 0
2, 240, Note_on_c, 0, 68, 120
2, 240, Note_on_c, 0, 53, 120
2, 300, Note_on_c, 0, 68, 0
2, 300, Note_on_c, 0, 65, 120
2, 319, Note_on_c, 0, 53, 0
2, 360, Note_on_c, 0, 65, 0
2, 360, Note_on_c, 0, 63, 120
2, 360, Note_on_c, 0, 60, 120
2, 420, Note_on_c, 0, 63, 0
2, 420, Note_on_c, 0, 65, 120
2, 447, Note_on_c, 0, 60, 0
2, 480, Note_on_c, 0, 65, 0
2, 480, Note_on_c, 0, 67, 120
2, 480, Note_on_c, 0, 51, 120
2, 540, Note_on_c, 0, 67, 0
2, 540, Note_on_c, 0, 63, 120
2, 567, Note_on_c, 0, 51, 0
2, 600, Note_on_c, 0, 63, 0
2, 600, Note_on_c, 0, 62, 120
2, 600, Note_on_c, 0, 60, 120
2, 660, Note_on_c, 0, 62, 0
2, 660, Note_on_c, 0, 63, 120
2, 687, Note_on_c, 0, 60, 0
2, 720, Note_on_c, 0, 63, 0
2, 720, Note_on_c, 0, 65, 120
2, 720, Note_on_c, 0, 50, 120
2, 780, Note_on_c, 0, 65, 0
2, 780, Note_on_c, 0, 62, 120
2, 807, Note_on_c, 0, 50, 0
2, 840, Note_on_c, 0, 62, 0
2, 840, Note_on_c, 0, 60, 120
2, 840, Note_on_c, 0, 59, 120
2, 900, Note_on_c, 0, 60, 0
2, 900, Note_on_c, 0, 62, 120
2, 911, Note_on_c, 0, 59, 0
2, 960, Note_on_c, 0, 62, 0
2, 960, Note_on_c, 0, 63, 120
2, 960, Note_on_c, 0, 48, 120
2, 1020, Note_on_c, 0, 48, 0
2, 1020, Note_on_c, 0, 55, 120
2, 1039, Note_on_c, 0, 63, 0
2, 1080, Note_on_c, 0, 55, 0
2, 1080, Note_on_c, 0, 72, 120
2, 1080, Note_on_c, 0, 53, 120
2, 1140, Note_on_c, 0, 53, 0
2, 1140, Note_on_c, 0, 55, 120
2, 1151, Note_on_c, 0, 72, 0
2, 1200, Note_on_c, 0, 55, 0
2, 1200, Note_on_c, 0, 65, 120
2, 1200, Note_on_c, 0, 56, 120
2, 1260, Note_on_c, 0, 56, 0
2, 1260, Note_on_c, 0, 53, 120
2, 1271, Note_on_c, 0, 65, 0
2, 1320, Note_on_c, 0, 53, 0
2, 1320, Note_on_c, 0, 72, 120
2, 1320, Note_on_c, 0, 51, 120
2, 1380, Note_on_c, 0, 51, 0
2, 1380, Note_on_c, 0, 53, 120
2, 1391, Note_on_c, 0, 72, 0
2, 1440, Note_on_c, 0, 53, 0
2, 1440, Note_on_c, 0, 63, 120
2, 1440, Note_on_c, 0, 55, 120
2, 1500, Note_on_c, 0, 55, 0
2, 1500, Note_on_c, 0, 51, 120
2, 1511, Note_on_c, 0, 63, 0
2, 1560, Note_on_c, 0, 51, 0
2, 1560, Note_on_c, 0, 72, 120
2, 1560, Note_on_c, 0, 50, 120
2, 1620, Note_on_c, 0, 50, 0
2, 1620, Note_on_c, 0, 51, 120
2, 1639, Note_on_c, 0, 72, 0
2, 1680, Note_on_c, 0, 51, 0
2, 1680, Note_on_c, 0, 62, 120
2, 1680, Note_on_c, 0, 53, 120
2, 1740, Note_on_c, 0, 53, 0
2, 1740, Note_on_c, 0, 50, 120
2, 1743, Note_on_c, 0, 62, 0
2, 1800, Note_on_c, 0, 50, 0
2, 1800, Note_on_c, 0, 71, 120
2, 1800, Note_on_c, 0, 48, 120
2, 1860, Note_on_c, 0, 48, 0
2, 1860, Note_on_c, 0, 50, 120
2, 1863, Note_on_c, 0, 71, 0
2, 1920, Note_on_c, 0, 50, 0
2, 1920, Note_on_c, 0, 60, 120
2, 1920, Note_on_c, 0, 51, 120
2, 1980, Note_on_c, 0, 60, 0
2, 1980, Note_on_c, 0, 63, 120
2, 1999, Note_on_c, 0, 51, 0
2, 2040, Note_on_c, 0, 63, 0
2, 2040, Note_on_c, 0, 67, 120
2, 2040, Note_on_c, 0, 48, 120
2, 2100, Note_on_c, 0, 67, 0
2, 2100, Note_on_c, 0, 72, 120
2, 2127, Note_on_c, 0, 48, 0
2, 2160, Note_on_c, 0, 72, 0
2, 2160, Note_on_c, 0, 62, 120
2, 2160, Note_on_c, 0, 53, 120
2, 2220, Note_on_c, 0, 62, 0
2, 2220, Note_on_c, 0, 72, 120
2, 2239, Note_on_c, 0, 53, 0
2, 2280, Note_on_c, 0, 72, 0
2, 2280, Note_on_c, 0, 71, 120
2, 2280, Note_on_c, 0, 50, 120
2, 2340, Note_on_c, 0, 71, 0
2, 2340, Note_on_c, 0, 69, 120
2, 2359, Note_on_c, 0, 50, 0
2, 2400, Note_on_c, 0, 69, 0
2, 2400, Note_on_c, 0, 62, 120
2, 2400, Note_on_c, 0, 55, 120
2, 2460, Note_on_c, 0, 62, 0
2, 2460, Note_on_c, 0, 67, 120
2, 2520, Note_on_c, 0, 67, 0
2, 2520, Note_on_c, 0, 55, 0
2, 2520, Note_on_c, 0, 71, 120
2, 2520, Note_on_c, 0, 53, 120
2, 2580, Note_on_c, 0, 71, 0
2, 2580, Note_on_c, 0, 74, 120
2, 2640, Note_on_c, 0, 74, 0
2, 2640, Note_on_c, 0, 53, 0
2, 2640, Note_on_c, 0, 63, 120
2, 2640, Note_on_c, 0, 55, 120
2, 2700, Note_on_c, 0, 63, 0
2, 2700, Note_on_c, 0, 74, 120
2, 2719, Note_on_c, 0, 55, 0
2, 2760, Note_on_c, 0, 74, 0
2, 2760, Note_on_c, 0, 51, 120
2, 2760, Note_on_c, 0, 72, 120
2, 2820, Note_on_c, 0, 72, 0
2, 2820, Note_on_c, 0, 71, 120
2, 2839, Note_on_c, 0, 51, 0
2, 2880, Note_on_c, 0, 71, 0
2, 2880, Note_on_c, 0, 63, 120
2, 2880, Note_on_c, 0, 56, 120
2, 2940, Note_on_c, 0, 63, 0
2, 2940, Note_on_c, 0, 68, 120
2, 3000, Note_on_c, 0, 68, 0
2, 3000, Note_on_c, 0, 56, 0
2, 3000, Note_on_c, 0, 72, 120
2, 3000, Note_on_c, 0, 55, 120
2, 3060, Note_on_c, 0, 72, 0
2, 3060, Note_on_c, 0, 75, 120
2, 3120, Note_on_c, 0, 75, 0
2, 3120, Note_on_c, 0, 55, 0
2, 3120, Note_on_c, 0, 65, 120
2, 3120, Note_on_c, 0, 57, 120
2, 3180, Note_on_c, 0, 65, 0
2, 3180, Note_on_c, 0, 75, 120
2, 3199, Note_on_c, 0, 57, 0
2, 3240, Note_on_c, 0, 75, 0
2, 3240, Note_on_c, 0, 74, 120
2, 3240, Note_on_c, 0, 53, 120
2, 3300, Note_on_c, 0, 74, 0
2, 3300, Note_on_c, 0, 72, 120
2, 3319, Note_on_c, 0, 53, 0
2, 3360, Note_on_c, 0, 72, 0
2, 3360, Note_on_c, 0, 65, 120
2, 3360, Note_on_c, 0, 58, 120
2, 3420, Note_on_c, 0, 65, 0
2, 3420, Note_on_c, 0, 70, 120
2, 3480, Note_on_c, 0, 70, 0
2, 3480, Note_on_c, 0, 58, 0
2, 3480, Note_on_c, 0, 74, 120
2, 3480, Note_on_c, 0, 57, 120
2, 3540, Note_on_c, 0, 74, 0
2, 3540, Note_on_c, 0, 77, 120
2, 3600, Note_on_c, 0, 77, 0
2, 3600, Note_on_c, 0, 57, 0
2, 3600, Note_on_c, 0, 67, 120
2, 3600, Note_on_c, 0, 59, 120
2, 3660, Note_on_c, 0, 67, 0
2, 3660, Note_on_c, 0, 77, 120
2, 3687, Note_on_c, 0, 59, 0
2, 3720, Note_on_c, 0, 77, 0
2, 3720, Note_on_c, 0, 55, 120
2, 3720, Note_on_c, 0, 75, 120
2, 3780, Note_on_c, 0, 75, 0
2, 3780, Note_on_c, 0, 74, 120
2, 3791, Note_on_c, 0, 55, 0
2, 3840, Note_on_c, 0, 74, 0
2, 3840, Note_on_c, 0, 75, 120
2, 3840, Note_on_c, 0, 60, 120
2, 3900, Note_on_c, 0, 60, 0
2, 3900, Note_on_c, 0, 75, 0
2, 3900, Note_on_c, 0, 72, 120
2, 3900, Note_on_c, 0, 68, 120
2, 3960, Note_on_c, 0, 68, 0
2, 3960, Note_on_c, 0, 72, 0
2, 3960, Note_on_c, 0, 70, 120
2, 3960, Note_on_c, 0, 67, 120
2, 4020, Note_on_c, 0, 67, 0
2, 4020, Note_on_c, 0, 70, 0
2, 4020, Note_on_c, 0, 72, 120
2, 4020, Note_on_c, 0, 68, 120
2, 4080, Note_on_c, 0, 68, 0
2, 4080, Note_on_c, 0, 72, 0
2, 4080, Note_on_c, 0, 74, 120
2, 4080, Note_on_c, 0, 58, 120
2, 4140, Note_on_c, 0, 58, 0
2, 4140, Note_on_c, 0, 74, 0
2, 4140, Note_on_c, 0, 70, 120
2, 4140, Note_on_c, 0, 67, 120
2, 4200, Note_on_c, 0, 67, 0
2, 4200, Note_on_c, 0, 70, 0
2, 4200, Note_on_c, 0, 68, 120
2, 4200, Note_on_c, 0, 65, 120
2, 4260, Note_on_c, 0, 65, 0
2, 4260, Note_on_c, 0, 68, 0
2, 4260, Note_on_c, 0, 70, 120
2, 4260, Note_on_c, 0, 67, 120
2, 4320, Note_on_c, 0, 67, 0
2, 4320, Note_on_c, 0, 70, 0
2, 4320, Note_on_c, 0, 72, 120
2, 4320, Note_on_c, 0, 56, 120
2, 4380, Note_on_c, 0, 72, 0
2, 4380, Note_on_c, 0, 70, 120
2, 4440, Note_on_c, 0, 70, 0
2, 4440, Note_on_c, 0, 56, 0
2, 4440, Note_on_c, 0, 68, 120
2, 4500, Note_on_c, 0, 68, 0
2, 4500, Note_on_c, 0, 67, 120
2, 4560, Note_on_c, 0, 67, 0
2, 4560, Note_on_c, 0, 65, 120
2, 4620, Note_on_c, 0, 65, 0
2, 4620, Note_on_c, 0, 63, 120
2, 4680, Note_on_c, 0, 63, 0
2, 4680, Note_on_c, 0, 62, 120
2, 4740, Note_on_c, 0, 62, 0
2, 4740, Note_on_c, 0, 60, 120
2, 4800, Note_on_c, 0, 60, 0
2, 4800, Note_on_c, 0, 74, 120
2, 4800, Note_on_c, 0, 58, 120
2, 4860, Note_on_c, 0, 58, 0
2, 4860, Note_on_c, 0, 74, 0
2, 4860, Note_on_c, 0, 70, 120
2, 4860, Note_on_c, 0, 67, 120
2, 4920, Note_on_c, 0, 67, 0
2, 4920, Note_on_c, 0, 70, 0
2, 4920, Note_on_c, 0, 68, 120
2, 4920, Note_on_c, 0, 65, 120
2, 4980, Note_on_c, 0, 65, 0
2, 4980, Note_on_c, 0, 68, 0
2, 4980, Note_on_c, 0, 70, 120
2, 4980, Note_on_c, 0, 67, 120
2, 5040, Note_on_c, 0, 67, 0
2, 5040, Note_on_c, 0, 70, 0
2, 5040, Note_on_c, 0, 72, 120
2, 5040, Note_on_c, 0, 56, 120
2, 5100, Note_on_c, 0, 56, 0
2, 5100, Note_on_c, 0, 72, 0
2, 5100, Note_on_c, 0, 68, 120
2, 5100, Note_on_c, 0, 65, 120
2, 5160, Note_on_c, 0, 65, 0
2, 5160, Note_on_c, 0, 68, 0
2, 5160, Note_on_c, 0, 67, 120
2, 5160, Note_on_c, 0, 63, 120
2, 5220, Note_on_c, 0, 63, 0
2, 5220, Note_on_c, 0, 67, 0
2, 5220, Note_on_c, 0, 68, 120
2, 5220, Note_on_c, 0, 65, 120
2, 5280, Note_on_c, 0, 65, 0
2, 5280, Note_on_c, 0, 68, 0
2, 5280, Note_on_c, 0, 70, 120
2, 5280, Note_on_c, 0, 55, 120
2, 5340, Note_on_c, 0, 70, 0
2, 5340, Note_on_c, 0, 68, 120
2, 5400, Note_on_c, 0, 68, 0
2, 5400, Note_on_c, 0, 55, 0
2, 5400, Note_on_c, 0, 67, 120
2, 5460, Note_on_c, 0, 67, 0
2, 5460, Note_on_c, 0, 65, 120
2, 5520, Note_on_c, 0, 65, 0
2, 5520, Note_on_c, 0, 63, 120
2, 5580, Note_on_c, 0, 63, 0
2, 5580, Note_on_c, 0, 61, 120
2, 5640, Note_on_c, 0, 61, 0
2, 5640, Note_on_c, 0, 60, 120
2, 5700, Note_on_c, 0, 60, 0
2, 5700, Note_on_c, 0, 58, 120
2, 5760, Note_on_c, 0, 58, 0
2, 5760, Note_on_c, 0, 72, 120
2, 5760, Note_on_c, 0, 56, 120
2, 5820, Note_on_c, 0, 56, 0
2, 5820, Note_on_c, 0, 72, 0
2, 5820, Note_on_c, 0, 68, 120
2, 5820, Note_on_c, 0, 65, 120
2, 5880, Note_on_c, 0, 65, 0
2, 5880, Note_on_c, 0, 68, 0
2, 5880, Note_on_c, 0, 67, 120
2, 5880, Note_on_c, 0, 63, 120
2, 5940, Note_on_c, 0, 63, 0
2, 5940, Note_on_c, 0, 67, 0
2, 5940, Note_on_c, 0, 68, 120
2, 5940, Note_on_c, 0, 65, 120
2, 6000, Note_on_c, 0, 65, 0
2, 6000, Note_on_c, 0, 68, 0
2, 6000, Note_on_c, 0, 70, 120
2, 6000, Note_on_c, 0, 55, 120
2, 6060, Note_on_c, 0, 55, 0
2, 6060, Note_on_c, 0, 70, 0
2, 6060, Note_on_c, 0, 67, 120
2, 6060, Note_on_c, 0, 63, 120
2, 6120, Note_on_c, 0, 63, 0
2, 6120, Note_on_c, 0, 67, 0
2, 6120, Note_on_c, 0, 65, 120
2, 6120, Note_on_c, 0, 62, 120
2, 6180, Note_on_c, 0, 62, 0
2, 6180, Note_on_c, 0, 65, 0
2, 6180, Note_on_c, 0, 67, 120
2, 6180, Note_on_c, 0, 63, 120
2, 6240, Note_on_c, 0, 63, 0
2, 6240, Note_on_c, 0, 67, 0
2, 6240, Note_on_c, 0, 68, 120
2, 6240, Note_on_c, 0, 53, 120
2, 6300, Note_on_c, 0, 53, 0
2, 6300, Note_on_c, 0, 68, 0
2, 6300, Note_on_c, 0, 65, 120
2, 6300, Note_on_c, 0, 62, 120
2, 6360, Note_on_c, 0, 62, 0
2, 6360, Note_on_c, 0, 65, 0
2, 6360, Note_on_c, 0, 63, 120
2, 6360, Note_on_c, 0, 60, 120
2, 6420, Note_on_c, 0, 60, 0
2, 6420, Note_on_c, 0, 63, 0
2, 6420, Note_on_c, 0, 65, 120
2, 6420, Note_on_c, 0, 62, 120
2, 6480, Note_on_c, 0, 62, 0
2, 6480, Note_on_c, 0, 65, 0
2, 6480, Note_on_c, 0, 68, 120
2, 6480, Note_on_c, 0, 51, 120
2, 6504, Note_on_c, 0, 67, 120
2, 6510, Note_on_c, 0, 68, 0
2, 6528, Note_on_c, 0, 68, 120
2, 6534, Note_on_c, 0, 67, 0
2, 6540, Note_on_c, 0, 51, 0
2, 6540, Note_on_c, 0, 60, 120
2, 6578, Note_on_c, 0, 68, 0
2, 6600, Note_on_c, 0, 60, 0
2, 6600, Note_on_c, 0, 68, 120
2, 6600, Note_on_c, 0, 58, 120
2, 6660, Note_on_c, 0, 58, 0
2, 6660, Note_on_c, 0, 60, 120
2, 6720, Note_on_c, 0, 60, 0
2, 6720, Note_on_c, 0, 68, 0
2, 6720, Note_on_c, 0, 68, 120
2, 6720, Note_on_c, 0, 50, 120
2, 6780, Note_on_c, 0, 50, 0
2, 6780, Note_on_c, 0, 68, 0
2, 6780, Note_on_c, 0, 67, 120
2, 6780, Note_on_c, 0, 58, 120
2, 6840, Note_on_c, 0, 58, 0
2, 6840, Note_on_c, 0, 67, 0
2, 6840, Note_on_c, 0, 65, 120
2, 6840, Note_on_c, 0, 56, 120
2, 6900, Note_on_c, 0, 56, 0
2, 6900, Note_on_c, 0, 65, 0
2, 6900, Note_on_c, 0, 67, 120
2, 6900, Note_on_c, 0, 58, 120
2, 6960, Note_on_c, 0, 58, 0
2, 6960, Note_on_c, 0, 67, 0
2, 6960, Note_on_c, 0, 68, 120
2, 6960, Note_on_c, 0, 48, 120
2, 6984, Note_on_c, 0, 67, 120
2, 6990, Note_on_c, 0, 68, 0
2, 7008, Note_on_c, 0, 68, 120
2, 7014, Note_on_c, 0, 67, 0
2, 7020, Note_on_c, 0, 48, 0
2, 7020, Note_on_c, 0, 56, 120
2, 7058, Note_on_c, 0, 68, 0
2, 7080, Note_on_c, 0, 56, 0
2, 7080, Note_on_c, 0, 68, 120
2, 7080, Note_on_c, 0, 55, 120
2, 7140, Note_on_c, 0, 55, 0
2, 7140, Note_on_c, 0, 56, 120
2, 7200, Note_on_c, 0, 56, 0
2, 7200, Note_on_c, 0, 68, 0
2, 7200, Note_on_c, 0, 68, 120
2, 7200, Note_on_c, 0, 46, 120
2, 7260, Note_on_c, 0, 68, 0
2, 7260, Note_on_c, 0, 74, 120
2, 7271, Note_on_c, 0, 46, 0
2, 7320, Note_on_c, 0, 74, 0
2, 7320, Note_on_c, 0, 77, 120
2, 7320, Note_on_c, 0, 58, 120
2, 7380, Note_on_c, 0, 77, 0
2, 7380, Note_on_c, 0, 75, 120
2, 7391, Note_on_c, 0, 58, 0
2, 7440, Note_on_c, 0, 75, 0
2, 7440, Note_on_c, 0, 74, 120
2, 7500, Note_on_c, 0, 74, 0
2, 7500, Note_on_c, 0, 72, 120
2, 7560, Note_on_c, 0, 72, 0
2, 7560, Note_on_c, 0, 50, 120
2, 7560, Note_on_c, 0, 70, 120
2, 7620, Note_on_c, 0, 70, 0
2, 7620, Note_on_c, 0, 68, 120
2, 7680, Note_on_c, 0, 68, 0
2, 7680, Note_on_c, 0, 50, 0
2, 7680, Note_on_c, 0, 67, 120
2, 7680, Note_on_c, 0, 51, 120
2, 7740, Note_on_c, 0, 67, 0
2, 7740, Note_on_c, 0, 70, 120
2, 7775, Note_on_c, 0, 51, 0
2, 7800, Note_on_c, 0, 70, 0
2, 7800, Note_on_c, 0, 75, 120
2, 7800, Note_on_c, 0, 48, 120
2, 7860, Note_on_c, 0, 75, 0
2, 7860, Note_on_c, 0, 67, 120
2, 7895, Note_on_c, 0, 48, 0
2, 7920, Note_on_c, 0, 67, 0
2, 7920, Note_on_c, 0, 65, 120
2, 7920, Note_on_c, 0, 44, 120
2, 7980, Note_on_c, 0, 65, 0
2, 7980, Note_on_c, 0, 75, 120
2, 8007, Note_on_c, 0, 44, 0
2, 8040, Note_on_c, 0, 75, 0
2, 8040, Note_on_c, 0, 65, 120
2, 8040, Note_on_c, 0, 46, 120
2, 8100, Note_on_c, 0, 65, 0
2, 8100, Note_on_c, 0, 74, 120
2, 8119, Note_on_c, 0, 46, 0
2, 8160, Note_on_c, 0, 74, 0
2, 8160, Note_on_c, 0, 75, 120
2, 8160, Note_on_c, 0, 39, 120
2, 8220, Note_on_c, 0, 75, 0
2, 8220, Note_on_c, 0, 70, 120
2, 8255, Note_on_c, 0, 39, 0
2, 8280, Note_on_c, 0, 70, 0
2, 8280, Note_on_c, 0, 68, 120
2, 8280, Note_on_c, 0, 51, 120
2, 8340, Note_on_c, 0, 68, 0
2, 8340, Note_on_c, 0, 70, 120
2, 8367, Note_on_c, 0, 51, 0
2, 8400, Note_on_c, 0, 70, 0
2, 8400, Note_on_c, 0, 72, 120
2, 8400, Note_on_c, 0, 44, 120
2, 8460, Note_on_c, 0, 72, 0
2, 8460, Note_on_c, 0, 68, 120
2, 8487, Note_on_c, 0, 44, 0
2, 8520, Note_on_c, 0, 68, 0
2, 8520, Note_on_c, 0, 51, 120
2, 8520, Note_on_c, 0, 67, 120
2, 8580, Note_on_c, 0, 67, 0
2, 8580, Note_on_c, 0, 68, 120
2, 8599, Note_on_c, 0, 51, 0
2, 8640, Note_on_c, 0, 68, 0
2, 8640, Note_on_c, 0, 70, 120
2, 8640, Note_on_c, 0, 43, 120
2, 8700, Note_on_c, 0, 70, 0
2, 8700, Note_on_c, 0, 67, 120
2, 8719, Note_on_c, 0, 43, 0
2, 8760, Note_on_c, 0, 67, 0
2, 8760, Note_on_c, 0, 65, 120
2, 8760, Note_on_c, 0, 51, 120
2, 8820, Note_on_c, 0, 65, 0
2, 8820, Note_on_c, 0, 67, 120
2, 8839, Note_on_c, 0, 51, 0
2, 8880, Note_on_c, 0, 67, 0
2, 8880, Note_on_c, 0, 68, 120
2, 8880, Note_on_c, 0, 41, 120
2, 8940, Note_on_c, 0, 68, 0
2, 8940, Note_on_c, 0, 65, 120
2, 8951, Note_on_c, 0, 41, 0
2, 9000, Note_on_c, 0, 65, 0
2, 9000, Note_on_c, 0, 63, 120
2, 9000, Note_on_c, 0, 50, 120
2, 9060, Note_on_c, 0, 63, 0
2, 9060, Note_on_c, 0, 65, 120
2, 9071, Note_on_c, 0, 50, 0
2, 9120, Note_on_c, 0, 65, 0
2, 9120, Note_on_c, 0, 67, 120
2, 9120, Note_on_c, 0, 51, 120
2, 9180, Note_on_c, 0, 51, 0
2, 9180, Note_on_c, 0, 67, 0
2, 9180, Note_on_c, 0, 63, 120
2, 9180, Note_on_c, 0, 55, 120
2, 9240, Note_on_c, 0, 55, 0
2, 9240, Note_on_c, 0, 63, 0
2, 9240, Note_on_c, 0, 62, 120
2, 9240, Note_on_c, 0, 53, 120
2, 9300, Note_on_c, 0, 53, 0
2, 9300, Note_on_c, 0, 62, 0
2, 9300, Note_on_c, 0, 63, 120
2, 9300, Note_on_c, 0, 55, 120
2, 9360, Note_on_c, 0, 55, 0
2, 9360, Note_on_c, 0, 63, 0
2, 9360, Note_on_c, 0, 60, 120
2, 9360, Note_on_c, 0, 56, 120
2, 9420, Note_on_c, 0, 56, 0
2, 9420, Note_on_c, 0, 53, 120
2, 9447, Note_on_c, 0, 60, 0
2, 9480, Note_on_c, 0, 53, 0
2, 9480, Note_on_c, 0, 68, 120
2, 9480, Note_on_c, 0, 51, 120
2, 9540, Note_on_c, 0, 51, 0
2, 9540, Note_on_c, 0, 53, 120
2, 9567, Note_on_c, 0, 68, 0
2, 9600, Note_on_c, 0, 53, 0
2, 9600, Note_on_c, 0, 58, 120
2, 9600, Note_on_c, 0, 55, 120
2, 9660, Note_on_c, 0, 55, 0
2, 9660, Note_on_c, 0, 51, 120
2, 9671, Note_on_c, 0, 58, 0
2, 9720, Note_on_c, 0, 51, 0
2, 9720, Note_on_c, 0, 67, 120
2, 9720, Note_on_c, 0, 50, 120
2, 9780, Note_on_c, 0, 50, 0
2, 9780, Note_on_c, 0, 51, 120
2, 9799, Note_on_c, 0, 67, 0
2, 9840, Note_on_c, 0, 51, 0
2, 9840, Note_on_c, 0, 56, 120
2, 9840, Note_on_c, 0, 53, 120
2, 9900, Note_on_c, 0, 53, 0
2, 9900, Note_on_c, 0, 50, 120
2, 9919, Note_on_c, 0, 56, 0
2, 9960, Note_on_c, 0, 50, 0
2, 9960, Note_on_c, 0, 65, 120
2, 9960, Note_on_c, 0, 48, 120
2, 10020, Note_on_c, 0, 48, 0
2, 10020, Note_on_c, 0, 50, 120
2, 10039, Note_on_c, 0, 65, 0
2, 10080, Note_on_c, 0, 50, 0
2, 10080, Note_on_c, 0, 55, 120
2, 10080, Note_on_c, 0, 51, 120
2, 10140, Note_on_c, 0, 55, 0
2, 10140, Note_on_c, 0, 58, 120
2, 10167, Note_on_c, 0, 51, 0
2, 10200, Note_on_c, 0, 58, 0
2, 10200, Note_on_c, 0, 63, 120
2, 10200, Note_on_c, 0, 55, 120
2, 10260, Note_on_c, 0, 63, 0
2, 10260, Note_on_c, 0, 67, 120
2, 10279, Note_on_c, 0, 55, 0
2, 10320, Note_on_c, 0, 56, 120
2, 10380, Note_on_c, 0, 67, 0
2, 10380, Note_on_c, 0, 65, 120
2, 10407, Note_on_c, 0, 56, 0
2, 10440, Note_on_c, 0, 65, 0
2, 10440, Note_on_c, 0, 58, 120
2, 10440, Note_on_c, 0, 63, 120
2, 10500, Note_on_c, 0, 63, 0
2, 10500, Note_on_c, 0, 62, 120
2, 10527, Note_on_c, 0, 58, 0
2, 10560, Note_on_c, 0, 62, 0
2, 10560, Note_on_c, 0, 63, 120
2, 10560, Note_on_c, 0, 60, 120
2, 10620, Note_on_c, 0, 67, 120
2, 10655, Note_on_c, 0, 60, 0
2, 10680, Note_on_c, 0, 67, 0
2, 10680, Note_on_c, 0, 72, 120
2, 10680, Note_on_c, 0, 56, 120
2, 10740, Note_on_c, 0, 65, 120
2, 10759, Note_on_c, 0, 56, 0
2, 10800, Note_on_c, 0, 65, 0
2, 10800, Note_on_c, 0, 72, 0
2, 10800, Note_on_c, 0, 67, 120
2, 10800, Note_on_c, 0, 70, 120
2, 10800, Note_on_c, 0, 58, 120
2, 10860, Note_on_c, 0, 63, 0
2, 10860, Note_on_c, 0, 63, 120
2, 10887, Note_on_c, 0, 58, 0
2, 10920, Note_on_c, 0, 67, 0
2, 10920, Note_on_c, 0, 70, 0
2, 10920, Note_on_c, 0, 65, 120
2, 10920, Note_on_c, 0, 68, 120
2, 10920, Note_on_c, 0, 46, 120
2, 10980, Note_on_c, 0, 63, 0
2, 10980, Note_on_c, 0, 62, 120
2, 10999, Note_on_c, 0, 46, 0
2, 11040, Note_on_c, 0, 65, 0
2, 11040, Note_on_c, 0, 68, 0
2, 11040, Note_on_c, 0, 62, 0
2, 11040, Note_on_c, 0, 58, 120
2, 11056, Note_on_c, 0, 63, 120
2, 11072, Note_on_c, 0, 67, 120
2, 11100, Note_on_c, 0, 51, 120
2, 11160, Note_on_c, 0, 51, 0
2, 11160, Note_on_c, 0, 46, 120
2, 11220, Note_on_c, 0, 46, 0
2, 11220, Note_on_c, 0, 43, 120
2, 11280, Note_on_c, 0, 43, 0
2, 11280, Note_on_c, 0, 39, 120
2, 11519, Note_on_c, 0, 63, 0
2, 11520, Note_on_c, 0, 58, 0
2, 11520, Note_on_c, 0, 39, 0
2, 11520, Note_on_c, 0, 48, 100
2, 11527, Note_on_c, 0, 67, 0
2, 11580, Note_on_c, 0, 67, 100
2, 11599, Note_on_c, 0, 48, 0
2, 11640, Note_on_c, 0, 67, 0
2, 11640, Note_on_c, 0, 65, 100
2, 11640, Note_on_c, 0, 60, 100
2, 11700, Note_on_c, 0, 65, 0
2, 11700, Note_on_c, 0, 67, 100
2, 11727, Note_on_c, 0, 60, 0
2, 11760, Note_on_c, 0, 67, 0
2, 11760, Note_on_c, 0, 68, 100
2, 11760, Note_on_c, 0, 53, 100
2, 11820, Note_on_c, 0, 68, 0
2, 11820, Note_on_c, 0, 65, 100
2, 11839, Note_on_c, 0, 53, 0
2, 11880, Note_on_c, 0, 65, 0
2, 11880, Note_on_c, 0, 63, 100
2, 11880, Note_on_c, 0, 60, 100
2, 11940, Note_on_c, 0, 63, 0
2, 11940, Note_on_c, 0, 65, 100
2, 11967, Note_on_c, 0, 60, 0
2, 12000, Note_on_c, 0, 65, 0
2, 12000, Note_on_c, 0, 67, 100
2, 12000, Note_on_c, 0, 51, 100
2, 12060, Note_on_c, 0, 67, 0
2, 12060, Note_on_c, 0, 63, 100
2, 12087, Note_on_c, 0, 51, 0
2, 12120, Note_on_c, 0, 63, 0
2, 12120, Note_on_c, 0, 62, 100
2, 12120, Note_on_c, 0, 60, 100
2, 12180, Note_on_c, 0, 62, 0
2, 12180, Note_on_c, 0, 63, 100
2, 12207, Note_on_c, 0, 60, 0
2, 12240, Note_on_c, 0, 63, 0
2, 12240, Note_on_c, 0, 65, 100
2, 12240, Note_on_c, 0, 50, 100
2, 12300, Note_on_c, 0, 65, 0
2, 12300, Note_on_c, 0, 62, 100
2, 12327, Note_on_c, 0, 50, 0
2, 12360, Note_on_c, 0, 62, 0
2, 12360, Note_on_c, 0, 59, 100
2, 12360, Note_on_c, 0, 60, 100
2, 12395, Note_on_c, 0, 59, 0
2, 12420, Note_on_c, 0, 60, 0
2, 12420, Note_on_c, 0, 62, 100
2, 12480, Note_on_c, 0, 62, 0
2, 12480, Note_on_c, 0, 63, 100
2, 12480, Note_on_c, 0, 48, 100
2, 12540, Note_on_c, 0, 48, 0
2, 12540, Note_on_c, 0, 55, 100
2, 12559, Note_on_c, 0, 63, 0
2, 12600, Note_on_c, 0, 55, 0
2, 12600, Note_on_c, 0, 72, 100
2, 12600, Note_on_c, 0, 53, 100
2, 12660, Note_on_c, 0, 53, 0
2, 12660, Note_on_c, 0, 55, 100
2, 12671, Note_on_c, 0, 72, 0
2, 12720, Note_on_c, 0, 55, 0
2, 12720, Note_on_c, 0, 65, 100
2, 12720, Note_on_c, 0, 56, 100
2, 12780, Note_on_c, 0, 56, 0
2, 12780, Note_on_c, 0, 53, 100
2, 12791, Note_on_c, 0, 65, 0
2, 12840, Note_on_c, 0, 53, 0
2, 12840, Note_on_c, 0, 72, 100
2, 12840, Note_on_c, 0, 51, 100
2, 12900, Note_on_c, 0, 51, 0
2, 12900, Note_on_c, 0, 53, 100
2, 12911, Note_on_c, 0, 72, 0
2, 12960, Note_on_c, 0, 53, 0
2, 12960, Note_on_c, 0, 63, 100
2, 12960, Note_on_c, 0, 55, 100
2, 13020, Note_on_c, 0, 55, 0
2, 13020, Note_on_c, 0, 51, 100
2, 13031, Note_on_c, 0, 63, 0
2, 13080, Note_on_c, 0, 51, 0
2, 13080, Note_on_c, 0, 72, 100
2, 13080, Note_on_c, 0, 50, 100
2, 13140, Note_on_c, 0, 50, 0
2, 13140, Note_on_c, 0, 51, 100
2, 13159, Note_on_c, 0, 72, 0
2, 13200, Note_on_c, 0, 51, 0
2, 13200, Note_on_c, 0, 62, 100
2, 13200, Note_on_c, 0, 53, 100
2, 13260, Note_on_c, 0, 53, 0
2, 13260, Note_on_c, 0, 50, 100
2, 13263, Note_on_c, 0, 62, 0
2, 13320, Note_on_c, 0, 50, 0
2, 13320, Note_on_c, 0, 72, 100
2, 13320, Note_on_c, 0, 48, 100
2, 13344, Note_on_c, 0, 71, 100
2, 13359, Note_on_c, 0, 72, 0
2, 13367, Note_on_c, 0, 71, 0
2, 13368, Note_on_c, 0, 72, 100
2, 13380, Note_on_c, 0, 48, 0
2, 13380, Note_on_c, 0, 50, 100
2, 13384, Note_on_c, 0, 71, 100
2, 13391, Note_on_c, 0, 72, 0
2, 13439, Note_on_c, 0, 71, 0
2, 13440, Note_on_c, 0, 50, 0
2, 13440, Note_on_c, 0, 60, 100
2, 13440, Note_on_c, 0, 51, 100
2, 13500, Note_on_c, 0, 60, 0
2, 13500, Note_on_c, 0, 63, 100
2, 13519, Note_on_c, 0, 51, 0
2, 13560, Note_on_c, 0, 63, 0
2, 13560, Note_on_c, 0, 67, 100
2, 13560, Note_on_c, 0, 48, 100
2, 13620, Note_on_c, 0, 67, 0
2, 13620, Note_on_c, 0, 72, 100
2, 13647, Note_on_c, 0, 48, 0
2, 13680, Note_on_c, 0, 72, 0
2, 13680, Note_on_c, 0, 62, 100
2, 13680, Note_on_c, 0, 53, 100
2, 13740, Note_on_c, 0, 62, 0
2, 13740, Note_on_c, 0, 72, 100
2, 13759, Note_on_c, 0, 53, 0
2, 13800, Note_on_c, 0, 72, 0
2, 13800, Note_on_c, 0, 71, 100
2, 13800, Note_on_c, 0, 50, 100
2, 13816, Note_on_c, 0, 72, 100
2, 13831, Note_on_c, 0, 71, 0
2, 13840, Note_on_c, 0, 71, 100
2, 13847, Note_on_c, 0, 72, 0
2, 13860, Note_on_c, 0, 69, 100
2, 13871, Note_on_c, 0, 71, 0
2, 13879, Note_on_c, 0, 50, 0
2, 13920, Note_on_c, 0, 69, 0
2, 13920, Note_on_c, 0, 62, 100
2, 13920, Note_on_c, 0, 55, 100
2, 13980, Note_on_c, 0, 62, 0
2, 13980, Note_on_c, 0, 67, 100
2, 14040, Note_on_c, 0, 67, 0
2, 14040, Note_on_c, 0, 55, 0
2, 14040, Note_on_c, 0, 71, 100
2, 14040, Note_on_c, 0, 53, 100
2, 14100, Note_on_c, 0, 71, 0
2, 14100, Note_on_c, 0, 74, 100
2, 14160, Note_on_c, 0, 74, 0
2, 14160, Note_on_c, 0, 53, 0
2, 14160, Note_on_c, 0, 63, 100
2, 14160, Note_on_c, 0, 55, 100
2, 14220, Note_on_c, 0, 63, 0
2, 14224, Note_on_c, 0, 74, 100
2, 14239, Note_on_c, 0, 74, 0
2, 14239, Note_on_c, 0, 55, 0
2, 14244, Note_on_c, 0, 72, 100
2, 14264, Note_on_c, 0, 74, 100
2, 14275, Note_on_c, 0, 72, 0
2, 14280, Note_on_c, 0, 51, 100
2, 14288, Note_on_c, 0, 72, 100
2, 14295, Note_on_c, 0, 74, 0
2, 14348, Note_on_c, 0, 71, 100
2, 14351, Note_on_c, 0, 72, 0
2, 14359, Note_on_c, 0, 51, 0
2, 14400, Note_on_c, 0, 63, 100
2, 14400, Note_on_c, 0, 56, 100
2, 14403, Note_on_c, 0, 71, 0
2, 14460, Note_on_c, 0, 63, 0
2, 14460, Note_on_c, 0, 68, 100
2, 14520, Note_on_c, 0, 68, 0
2, 14520, Note_on_c, 0, 56, 0
2, 14520, Note_on_c, 0, 72, 100
2, 14520, Note_on_c, 0, 55, 100
2, 14580, Note_on_c, 0, 72, 0
2, 14580, Note_on_c, 0, 75, 100
2, 14640, Note_on_c, 0, 75, 0
2, 14640, Note_on_c, 0, 55, 0
2, 14640, Note_on_c, 0, 65, 100
2, 14640, Note_on_c, 0, 57, 100
2, 14700, Note_on_c, 0, 65, 0
2, 14700, Note_on_c, 0, 75, 100
2, 14719, Note_on_c, 0, 57, 0
2, 14760, Note_on_c, 0, 75, 0
2, 14760, Note_on_c, 0, 74, 100
2, 14760, Note_on_c, 0, 53, 100
2, 14776, Note_on_c, 0, 75, 100
2, 14795, Note_on_c, 0, 74, 0
2, 14800, Note_on_c, 0, 74, 100
2, 14811, Note_on_c, 0, 75, 0
2, 14823, Note_on_c, 0, 74, 0
2, 14824, Note_on_c, 0, 72, 100
2, 14836, Note_on_c, 0, 74, 100
2, 14839, Note_on_c, 0, 53, 0
2, 14847, Note_on_c, 0, 72, 0
2, 14856, Note_on_c, 0, 72, 100
2, 14859, Note_on_c, 0, 74, 0
2, 14879, Note_on_c, 0, 72, 0
2, 14880, Note_on_c, 0, 65, 100
2, 14880, Note_on_c, 0, 58, 100
2, 14940, Note_on_c, 0, 65, 0
2, 14940, Note_on_c, 0, 70, 100
2, 15000, Note_on_c, 0, 70, 0
2, 15000, Note_on_c, 0, 58, 0
2, 15000, Note_on_c, 0, 74, 100
2, 15000, Note_on_c, 0, 57, 100
2, 15060, Note_on_c, 0, 74, 0
2, 15060, Note_on_c, 0, 77, 100
2, 15120, Note_on_c, 0, 77, 0
2, 15120, Note_on_c, 0, 57, 0
2, 15120, Note_on_c, 0, 67, 100
2, 15120, Note_on_c, 0, 59, 100
2, 15180, Note_on_c, 0, 67, 0
2, 15184, Note_on_c, 0, 77, 100
2, 15207, Note_on_c, 0, 59, 0
2, 15219, Note_on_c, 0, 77, 0
2, 15232, Note_on_c, 0, 77, 100
2, 15240, Note_on_c, 0, 55, 100
2, 15255, Note_on_c, 0, 77, 0
2, 15256, Note_on_c, 0, 75, 100
2, 15272, Note_on_c, 0, 77, 100
2, 15279, Note_on_c, 0, 75, 0
2, 15288, Note_on_c, 0, 75, 100
2, 15299, Note_on_c, 0, 77, 0
2, 15308, Note_on_c, 0, 74, 100
2, 15311, Note_on_c, 0, 75, 0
2, 15311, Note_on_c, 0, 55, 0
2, 15360, Note_on_c, 0, 75, 100
2, 15360, Note_on_c, 0, 60, 100
2, 15363, Note_on_c, 0, 74, 0
2, 15420, Note_on_c, 0, 60, 0
2, 15420, Note_on_c, 0, 75, 0
2, 15420, Note_on_c, 0, 72, 100
2, 15420, Note_on_c, 0, 68, 100
2, 15480, Note_on_c, 0, 68, 0
2, 15480, Note_on_c, 0, 72, 0
2, 15480, Note_on_c, 0, 70, 100
2, 15480, Note_on_c, 0, 67, 100
2, 15540, Note_on_c, 0, 67, 0
2, 15540, Note_on_c, 0, 70, 0
2, 15540, Note_on_c, 0, 72, 100
2, 15540, Note_on_c, 0, 68, 100
2, 15600, Note_on_c, 0, 68, 0
2, 15600, Note_on_c, 0, 72, 0
2, 15600, Note_on_c, 0, 74, 100
2, 15600, Note_on_c, 0, 58, 100
2, 15660, Note_on_c, 0, 58, 0
2, 15660, Note_on_c, 0, 74, 0
2, 15660, Note_on_c, 0, 70, 100
2, 15660, Note_on_c, 0, 67, 100
2, 15720, Note_on_c, 0, 67, 0
2, 15720, Note_on_c, 0, 70, 0
2, 15720, Note_on_c, 0, 68, 100
2, 15720, Note_on_c, 0, 65, 100
2, 15780, Note_on_c, 0, 65, 0
2, 15780, Note_on_c, 0, 68, 0
2, 15780, Note_on_c, 0, 70, 100
2, 15780, Note_on_c, 0, 67, 100
2, 15840, Note_on_c, 0, 67, 0
2, 15840, Note_on_c, 0, 70, 0
2, 15840, Note_on_c, 0, 72, 100
2, 15840, Note_on_c, 0, 56, 100
2, 15900, Note_on_c, 0, 72, 0
2, 15900, Note_on_c, 0, 70, 100
2, 15960, Note_on_c, 0, 70, 0
2, 15960, Note_on_c, 0, 56, 0
2, 15960, Note_on_c, 0, 68, 100
2, 16020, Note_on_c, 0, 68, 0
2, 16020, Note_on_c, 0, 67, 100
2, 16080, Note_on_c, 0, 67, 0
2, 16080, Note_on_c, 0, 65, 100
2, 16140, Note_on_c, 0, 65, 0
2, 16140, Note_on_c, 0, 63, 100
2, 16200, Note_on_c, 0, 63, 0
2, 16200, Note_on_c, 0, 62, 100
2, 16260, Note_on_c, 0, 62, 0
2, 16260, Note_on_c, 0, 60, 100
2, 16320, Note_on_c, 0, 60, 0
2, 16320, Note_on_c, 0, 74, 100
2, 16320, Note_on_c, 0, 58, 100
2, 16380, Note_on_c, 0, 58, 0
2, 16380, Note_on_c, 0, 74, 0
2, 16380, Note_on_c, 0, 70, 100
2, 16380, Note_on_c, 0, 67, 100
2, 16440, Note_on_c, 0, 67, 0
2, 16440, Note_on_c, 0, 70, 0
2, 16440, Note_on_c, 0, 68, 100
2, 16440, Note_on_c, 0, 65, 100
2, 16500, Note_on_c, 0, 65, 0
2, 16500, Note_on_c, 0, 68, 0
2, 16500, Note_on_c, 0, 70, 100
2, 16500, Note_on_c, 0, 67, 100
2, 16560, Note_on_c, 0, 67, 0
2, 16560, Note_on_c, 0, 70, 0
2, 16560, Note_on_c, 0, 72, 100
2, 16560, Note_on_c, 0, 56, 100
2, 16620, Note_on_c, 0, 56, 0
2, 16620, Note_on_c, 0, 72, 0
2, 16620, Note_on_c, 0, 68, 100
2, 16620, Note_on_c, 0, 65, 100
2, 16680, Note_on_c, 0, 65, 0
2, 16680, Note_on_c, 0, 68, 0
2, 16680, Note_on_c, 0, 67, 100
2, 16680, Note_on_c, 0, 63, 100
2, 16740, Note_on_c, 0, 63, 0
2, 16740, Note_on_c, 0, 67, 0
2, 16740, Note_on_c, 0, 68, 100
2, 16740, Note_on_c, 0, 65, 100
2, 16800, Note_on_c, 0, 65, 0
2, 16800, Note_on_c, 0, 68, 0
2, 16800, Note_on_c, 0, 70, 100
2, 16800, Note_on_c, 0, 55, 100
2, 16820, Note_on_c, 0, 68, 100
2, 16823, Note_on_c, 0, 70, 0
2, 16836, Note_on_c, 0, 70, 100
2, 16843, Note_on_c, 0, 68, 0
2, 16859, Note_on_c, 0, 70, 0
2, 16860, Note_on_c, 0, 68, 100
2, 16920, Note_on_c, 0, 68, 0
2, 16920, Note_on_c, 0, 55, 0
2, 16920, Note_on_c, 0, 67, 100
2, 16980, Note_on_c, 0, 67, 0
2, 16980, Note_on_c, 0, 65, 100
2, 17040, Note_on_c, 0, 65, 0
2, 17040, Note_on_c, 0, 63, 100
2, 17100, Note_on_c, 0, 63, 0
2, 17100, Note_on_c, 0, 61, 100
2, 17160, Note_on_c, 0, 61, 0
2, 17160, Note_on_c, 0, 60, 100
2, 17220, Note_on_c, 0, 60, 0
2, 17220, Note_on_c, 0, 58, 100
2, 17280, Note_on_c, 0, 58, 0
2, 17280, Note_on_c, 0, 72, 100
2, 17280, Note_on_c, 0, 56, 100
2, 17296, Note_on_c, 0, 70, 100
2, 17315, Note_on_c, 0, 72, 0
2, 17316, Note_on_c, 0, 72, 100
2, 17331, Note_on_c, 0, 70, 0
2, 17340, Note_on_c, 0, 56, 0
2, 17340, Note_on_c, 0, 68, 100
2, 17340, Note_on_c, 0, 65, 100
2, 17351, Note_on_c, 0, 72, 0
2, 17400, Note_on_c, 0, 65, 0
2, 17400, Note_on_c, 0, 68, 0
2, 17400, Note_on_c, 0, 67, 100
2, 17400, Note_on_c, 0, 63, 100
2, 17460, Note_on_c, 0, 63, 0
2, 17460, Note_on_c, 0, 67, 0
2, 17460, Note_on_c, 0, 68, 100
2, 17460, Note_on_c, 0, 65, 100
2, 17520, Note_on_c, 0, 65, 0
2, 17520, Note_on_c, 0, 68, 0
2, 17520, Note_on_c, 0, 70, 100
2, 17520, Note_on_c, 0, 55, 100
2, 17580, Note_on_c, 0, 55, 0
2, 17580, Note_on_c, 0, 70, 0
2, 17580, Note_on_c, 0, 67, 100
2, 17580, Note_on_c, 0, 63, 100
2, 17640, Note_on_c, 0, 63, 0
2, 17640, Note_on_c, 0, 67, 0
2, 17640, Note_on_c, 0, 65, 100
2, 17640, Note_on_c, 0, 62, 100
2, 17700, Note_on_c, 0, 62, 0
2, 17700, Note_on_c, 0, 65, 0
2, 17700, Note_on_c, 0, 67, 100
2, 17700, Note_on_c, 0, 63, 100
2, 17760, Note_on_c, 0, 63, 0
2, 17760, Note_on_c, 0, 67, 0
2, 17760, Note_on_c, 0, 68, 100
2, 17760, Note_on_c, 0, 53, 100
2, 17820, Note_on_c, 0, 53, 0
2, 17820, Note_on_c, 0, 68, 0
2, 17820, Note_on_c, 0, 65, 100
2, 17820, Note_on_c, 0, 62, 100
2, 17880, Note_on_c, 0, 62, 0
2, 17880, Note_on_c, 0, 65, 0
2, 17880, Note_on_c, 0, 63, 100
2, 17880, Note_on_c, 0, 60, 100
2, 17940, Note_on_c, 0, 60, 0
2, 17940, Note_on_c, 0, 63, 0
2, 17940, Note_on_c, 0, 65, 100
2, 17940, Note_on_c, 0, 62, 100
2, 18000, Note_on_c, 0, 62, 0
2, 18000, Note_on_c, 0, 65, 0
2, 18000, Note_on_c, 0, 68, 100
2, 18000, Note_on_c, 0, 51, 100
2, 18020, Note_on_c, 0, 67, 100
2, 18030, Note_on_c, 0, 68, 0
2, 18048, Note_on_c, 0, 68, 100
2, 18050, Note_on_c, 0, 67, 0
2, 18060, Note_on_c, 0, 51, 0
2, 18060, Note_on_c, 0, 60, 100
2, 18098, Note_on_c, 0, 68, 0
2, 18120, Note_on_c, 0, 60, 0
2, 18120, Note_on_c, 0, 68, 100
2, 18120, Note_on_c, 0, 58, 100
2, 18180, Note_on_c, 0, 58, 0
2, 18180, Note_on_c, 0, 60, 100
2, 18240, Note_on_c, 0, 60, 0
2, 18240, Note_on_c, 0, 68, 0
2, 18240, Note_on_c, 0, 68, 100
2, 18240, Note_on_c, 0, 50, 100
2, 18300, Note_on_c, 0, 50, 0
2, 18300, Note_on_c, 0, 68, 0
2, 18300, Note_on_c, 0, 67, 100
2, 18300, Note_on_c, 0, 58, 100
2, 18360, Note_on_c, 0, 58, 0
2, 18360, Note_on_c, 0, 67, 0
2, 18360, Note_on_c, 0, 65, 100
2, 18360, Note_on_c, 0, 56, 100
2, 18420, Note_on_c, 0, 56, 0
2, 18420, Note_on_c, 0, 65, 0
2, 18420, Note_on_c, 0, 67, 100
2, 18420, Note_on_c, 0, 58, 100
2, 18480, Note_on_c, 0, 58, 0
2, 18480, Note_on_c, 0, 67, 0
2, 18480, Note_on_c, 0, 68, 100
2, 18480, Note_on_c, 0, 48, 100
2, 18496, Note_on_c, 0, 67, 100
2, 18515, Note_on_c, 0, 68, 0
2, 18520, Note_on_c, 0, 68, 100
2, 18531, Note_on_c, 0, 67, 0
2, 18540, Note_on_c, 0, 48, 0
2, 18540, Note_on_c, 0, 56, 100
2, 18575, Note_on_c, 0, 68, 0
2, 18600, Note_on_c, 0, 56, 0
2, 18600, Note_on_c, 0, 70, 100
2, 18600, Note_on_c, 0, 55, 100
2, 18620, Note_on_c, 0, 68, 100
2, 18631, Note_on_c, 0, 70, 0
2, 18636, Note_on_c, 0, 70, 100
2, 18639, Note_on_c, 0, 68, 0
2, 18656, Note_on_c, 0, 68, 100
2, 18660, Note_on_c, 0, 55, 0
2, 18660, Note_on_c, 0, 56, 100
2, 18667, Note_on_c, 0, 70, 0
2, 18711, Note_on_c, 0, 68, 0
2, 18720, Note_on_c, 0, 56, 0
2, 18720, Note_on_c, 0, 46, 100
2, 18724, Note_on_c, 0, 68, 100
2, 18780, Note_on_c, 0, 74, 100
2, 18784, Note_on_c, 0, 68, 0
2, 18791, Note_on_c, 0, 46, 0
2, 18840, Note_on_c, 0, 74, 0
2, 18840, Note_on_c, 0, 77, 100
2, 18840, Note_on_c, 0, 58, 100
2, 18900, Note_on_c, 0, 77, 0
2, 18900, Note_on_c, 0, 75, 100
2, 18911, Note_on_c, 0, 58, 0
2, 18960, Note_on_c, 0, 75, 0
2, 18960, Note_on_c, 0, 74, 100
2, 19020, Note_on_c, 0, 74, 0
2, 19020, Note_on_c, 0, 72, 100
2, 19080, Note_on_c, 0, 72, 0
2, 19080, Note_on_c, 0, 50, 100
2, 19080, Note_on_c, 0, 70, 100
2, 19140, Note_on_c, 0, 70, 0
2, 19140, Note_on_c, 0, 68, 100
2, 19200, Note_on_c, 0, 68, 0
2, 19200, Note_on_c, 0, 50, 0
2, 19200, Note_on_c, 0, 67, 100
2, 19200, Note_on_c, 0, 51, 100
2, 19260, Note_on_c, 0, 67, 0
2, 19260, Note_on_c, 0, 70, 100
2, 19295, Note_on_c, 0, 51, 0
2, 19320, Note_on_c, 0, 70, 0
2, 19320, Note_on_c, 0, 75, 100
2, 19320, Note_on_c, 0, 48, 100
2, 19380, Note_on_c, 0, 75, 0
2, 19380, Note_on_c, 0, 67, 100
2, 19415, Note_on_c, 0, 48, 0
2, 19440, Note_on_c, 0, 67, 0
2, 19440, Note_on_c, 0, 65, 100
2, 19440, Note_on_c, 0, 44, 100
2, 19500, Note_on_c, 0, 65, 0
2, 19500, Note_on_c, 0, 75, 100
2, 19527, Note_on_c, 0, 44, 0
2, 19560, Note_on_c, 0, 75, 0
2, 19560, Note_on_c, 0, 65, 100
2, 19560, Note_on_c, 0, 46, 100
2, 19620, Note_on_c, 0, 65, 0
2, 19620, Note_on_c, 0, 74, 100
2, 19639, Note_on_c, 0, 46, 0
2, 19680, Note_on_c, 0, 74, 0
2, 19680, Note_on_c, 0, 75, 100
2, 19680, Note_on_c, 0, 39, 100
2, 19731, Note_on_c, 0, 75, 0
2, 19740, Note_on_c, 0, 70, 100
2, 19775, Note_on_c, 0, 39, 0
2, 19800, Note_on_c, 0, 70, 0
2, 19800, Note_on_c, 0, 68, 100
2, 19800, Note_on_c, 0, 51, 100
2, 19860, Note_on_c, 0, 68, 0
2, 19860, Note_on_c, 0, 70, 100
2, 19887, Note_on_c, 0, 51, 0
2, 19920, Note_on_c, 0, 70, 0
2, 19920, Note_on_c, 0, 72, 100
2, 19920, Note_on_c, 0, 44, 100
2, 19980, Note_on_c, 0, 72, 0
2, 19980, Note_on_c, 0, 68, 100
2, 20007, Note_on_c, 0, 44, 0
2, 20040, Note_on_c, 0, 68, 0
2, 20040, Note_on_c, 0, 51, 100
2, 20040, Note_on_c, 0, 67, 100
2, 20100, Note_on_c, 0, 67, 0
2, 20100, Note_on_c, 0, 68, 100
2, 20119, Note_on_c, 0, 51, 0
2, 20160, Note_on_c, 0, 68, 0
2, 20160, Note_on_c, 0, 70, 100
2, 20160, Note_on_c, 0, 43, 100
2, 20220, Note_on_c, 0, 70, 0
2, 20220, Note_on_c, 0, 67, 100
2, 20239, Note_on_c, 0, 43, 0
2, 20280, Note_on_c, 0, 67, 0
2, 20280, Note_on_c, 0, 65, 100
2, 20280, Note_on_c, 0, 51, 100
2, 20340, Note_on_c, 0, 65, 0
2, 20340, Note_on_c, 0, 67, 100
2, 20359, Note_on_c, 0, 51, 0
2, 20400, Note_on_c, 0, 67, 0
2, 20400, Note_on_c, 0, 68, 100
2, 20400, Note_on_c, 0, 41, 100
2, 20460, Note_on_c, 0, 68, 0
2, 20460, Note_on_c, 0, 65, 100
2, 20471, Note_on_c, 0, 41, 0
2, 20520, Note_on_c, 0, 65, 0
2, 20520, Note_on_c, 0, 63, 100
2, 20520, Note_on_c, 0, 50, 100
2, 20580, Note_on_c, 0, 63, 0
2, 20580, Note_on_c, 0, 65, 100
2, 20591, Note_on_c, 0, 50, 0
2, 20640, Note_on_c, 0, 65, 0
2, 20640, Note_on_c, 0, 67, 100
2, 20640, Note_on_c, 0, 51, 100
2, 20700, Note_on_c, 0, 51, 0
2, 20700, Note_on_c, 0, 67, 0
2, 20700, Note_on_c, 0, 63, 100
2, 20700, Note_on_c, 0, 55, 100
2, 20760, Note_on_c, 0, 55, 0
2, 20760, Note_on_c, 0, 63, 0
2, 20760, Note_on_c, 0, 62, 100
2, 20760, Note_on_c, 0, 53, 100
2, 20820, Note_on_c, 0, 53, 0
2, 20820, Note_on_c, 0, 62, 0
2, 20820, Note_on_c, 0, 63, 100
2, 20820, Note_on_c, 0, 55, 100
2, 20880, Note_on_c, 0, 55, 0
2, 20880, Note_on_c, 0, 63, 0
2, 20880, Note_on_c, 0, 60, 100
2, 20880, Note_on_c, 0, 56, 100
2, 20940, Note_on_c, 0, 56, 0
2, 20940, Note_on_c, 0, 53, 100
2, 20967, Note_on_c, 0, 60, 0
2, 21000, Note_on_c, 0, 53, 0
2, 21000, Note_on_c, 0, 68, 100
2, 21000, Note_on_c, 0, 51, 100
2, 21016, Note_on_c, 0, 67, 100
2, 21031, Note_on_c, 0, 68, 0
2, 21036, Note_on_c, 0, 68, 100
2, 21047, Note_on_c, 0, 67, 0
2, 21060, Note_on_c, 0, 51, 0
2, 21060, Note_on_c, 0, 53, 100
2, 21067, Note_on_c, 0, 68, 0
2, 21120, Note_on_c, 0, 53, 0
2, 21120, Note_on_c, 0, 58, 100
2, 21120, Note_on_c, 0, 55, 100
2, 21180, Note_on_c, 0, 55, 0
2, 21180, Note_on_c, 0, 51, 100
2, 21191, Note_on_c, 0, 58, 0
2, 21240, Note_on_c, 0, 51, 0
2, 21240, Note_on_c, 0, 67, 100
2, 21240, Note_on_c, 0, 50, 100
2, 21256, Note_on_c, 0, 65, 100
2, 21271, Note_on_c, 0, 67, 0
2, 21275, Note_on_c, 0, 65, 0
2, 21276, Note_on_c, 0, 67, 100
2, 21295, Note_on_c, 0, 67, 0
2, 21300, Note_on_c, 0, 50, 0
2, 21300, Note_on_c, 0, 51, 100
2, 21360, Note_on_c, 0, 51, 0
2, 21360, Note_on_c, 0, 56, 100
2, 21360, Note_on_c, 0, 53, 100
2, 21420, Note_on_c, 0, 53, 0
2, 21420, Note_on_c, 0, 50, 100
2, 21439, Note_on_c, 0, 56, 0
2, 21480, Note_on_c, 0, 50, 0
2, 21480, Note_on_c, 0, 67, 100
2, 21480, Note_on_c, 0, 48, 100
2, 21496, Note_on_c, 0, 65, 100
2, 21507, Note_on_c, 0, 67, 0
2, 21516, Note_on_c, 0, 67, 100
2, 21519, Note_on_c, 0, 65, 0
2, 21531, Note_on_c, 0, 67, 0
2, 21532, Note_on_c, 0, 65, 100
2, 21540, Note_on_c, 0, 48, 0
2, 21540, Note_on_c, 0, 50, 100
2, 21567, Note_on_c, 0, 65, 0
2, 21600, Note_on_c, 0, 50, 0
2, 21600, Note_on_c, 0, 55, 100
2, 21600, Note_on_c, 0, 51, 100
2, 21660, Note_on_c, 0, 55, 0
2, 21660, Note_on_c, 0, 58, 100
2, 21687, Note_on_c, 0, 51, 0
2, 21720, Note_on_c, 0, 58, 0
2, 21720, Note_on_c, 0, 63, 100
2, 21720, Note_on_c, 0, 55, 100
2, 21780, Note_on_c, 0, 63, 0
2, 21780, Note_on_c, 0, 67, 100
2, 21799, Note_on_c, 0, 55, 0
2, 21840, Note_on_c, 0, 56, 100
2, 21899, Note_on_c, 0, 67, 0
2, 21900, Note_on_c, 0, 65, 100
2, 21916, Note_on_c, 0, 67, 100
2, 21927, Note_on_c, 0, 65, 0
2, 21927, Note_on_c, 0, 56, 0
2, 21936, Note_on_c, 0, 65, 100
2, 21943, Note_on_c, 0, 67, 0
2, 21960, Note_on_c, 0, 58, 100
2, 21960, Note_on_c, 0, 63, 100
2, 21963, Note_on_c, 0, 65, 0
2, 22020, Note_on_c, 0, 63, 0
2, 22020, Note_on_c, 0, 62, 100
2, 22047, Note_on_c, 0, 58, 0
2, 22080, Note_on_c, 0, 62, 0
2, 22080, Note_on_c, 0, 63, 100
2, 22080, Note_on_c, 0, 60, 100
2, 22140, Note_on_c, 0, 67, 100
2, 22175, Note_on_c, 0, 60, 0
2, 22200, Note_on_c, 0, 67, 0
2, 22200, Note_on_c, 0, 72, 100
2, 22200, Note_on_c, 0, 56, 100
2, 22260, Note_on_c, 0, 65, 100
2, 22279, Note_on_c, 0, 56, 0
2, 22320, Note_on_c, 0, 65, 0
2, 22320, Note_on_c, 0, 72, 0
2, 22320, Note_on_c, 0, 67, 100
2, 22320, Note_on_c, 0, 70, 100
2, 22320, Note_on_c, 0, 58, 100
2, 22380, Note_on_c, 0, 63, 0
2, 22380, Note_on_c, 0, 63, 100
2, 22407, Note_on_c, 0, 58, 0
2, 22440, Note_on_c, 0, 67, 0
2, 22440, Note_on_c, 0, 70, 0
2, 22440, Note_on_c, 0, 70, 100
2, 22440, Note_on_c, 0, 65, 100
2, 22440, Note_on_c, 0, 46, 100
2, 22464, Note_on_c, 0, 68, 100
2, 22467, Note_on_c, 0, 70, 0
2, 22480, Note_on_c, 0, 70, 100
2, 22491, Note_on_c, 0, 68, 0
2, 22500, Note_on_c, 0, 63, 0
2, 22504, Note_on_c, 0, 68, 100
2, 22507, Note_on_c, 0, 70, 0
2, 22512, Note_on_c, 0, 62, 100
2, 22519, Note_on_c, 0, 46, 0
2, 22560, Note_on_c, 0, 65, 0
2, 22560, Note_on_c, 0, 58, 100
2, 22563, Note_on_c, 0, 62, 0
2, 22567, Note_on_c, 0, 68, 0
2, 22576, Note_on_c, 0, 63, 100
2, 22592, Note_on_c, 0, 67, 100
2, 22620, Note_on_c, 0, 51, 100
2, 22680, Note_on_c, 0, 51, 0
2, 22680, Note_on_c, 0, 46, 100
2, 22740, Note_on_c, 0, 46, 0
2, 22740, Note_on_c, 0, 43, 100
2, 22800, Note_on_c, 0, 43, 0
2, 22800, Note_on_c, 0, 39, 100
2, 23039, Note_on_c, 0, 63, 0
2, 23040, Note_on_c, 0, 58, 0
2, 23040, Note_on_c, 0, 39, 0
2, 23040, Note_on_c, 0, 51, 120
2, 23047, Note_on_c, 0, 67, 0
2, 23100, Note_on_c, 0, 70, 120
2, 23127, Note_on_c, 0, 51, 0
2, 23160, Note_on_c, 0, 70, 0
2, 23160, Note_on_c, 0, 53, 120
2, 23160, Note_on_c, 0, 69, 120
2, 23220, Note_on_c, 0, 69, 0
2, 23220, Note_on_c, 0, 70, 120
2, 23255, Note_on_c, 0, 53, 0
2, 23280, Note_on_c, 0, 70, 0
2, 23280, Note_on_c, 0, 75, 120
2, 23280, Note_on_c, 0, 55, 120
2, 23340, Note_on_c, 0, 75, 0
2, 23340, Note_on_c, 0, 70, 120
2, 23375, Note_on_c, 0, 55, 0
2, 23400, Note_on_c, 0, 70, 0
2, 23400, Note_on_c, 0, 69, 120
2, 23400, Note_on_c, 0, 51, 120
2, 23460, Note_on_c, 0, 69, 0
2, 23460, Note_on_c, 0, 70, 120
2, 23487, Note_on_c, 0, 51, 0
2, 23520, Note_on_c, 0, 70, 0
2, 23520, Note_on_c, 0, 77, 120
2, 23520, Note_on_c, 0, 50, 120
2, 23580, Note_on_c, 0, 77, 0
2, 23580, Note_on_c, 0, 70, 120
2, 23640, Note_on_c, 0, 70, 0
2, 23640, Note_on_c, 0, 50, 0
2, 23640, Note_on_c, 0, 69, 120
2, 23640, Note_on_c, 0, 48, 120
2, 23700, Note_on_c, 0, 69, 0
2, 23700, Note_on_c, 0, 70, 120
2, 23760, Note_on_c, 0, 70, 0
2, 23760, Note_on_c, 0, 48, 0
2, 23760, Note_on_c, 0, 80, 120
2, 23760, Note_on_c, 0, 50, 120
2, 23820, Note_on_c, 0, 80, 0
2, 23820, Note_on_c, 0, 70, 120
2, 23831, Note_on_c, 0, 50, 0
2, 23880, Note_on_c, 0, 70, 0
2, 23880, Note_on_c, 0, 46, 120
2, 23880, Note_on_c, 0, 69, 120
2, 23935, Note_on_c, 0, 46, 0
2, 23940, Note_on_c, 0, 69, 0
2, 23940, Note_on_c, 0, 70, 120
2, 24000, Note_on_c, 0, 70, 0
2, 24000, Note_on_c, 0, 79, 120
2, 24000, Note_on_c, 0, 51, 120
2, 24060, Note_on_c, 0, 51, 0
2, 24060, Note_on_c, 0, 55, 120
2, 24071, Note_on_c, 0, 79, 0
2, 24120, Note_on_c, 0, 55, 0
2, 24120, Note_on_c, 0, 75, 120
2, 24120, Note_on_c, 0, 56, 120
2, 24180, Note_on_c, 0, 56, 0
2, 24180, Note_on_c, 0, 55, 120
2, 24183, Note_on_c, 0, 75, 0
2, 24240, Note_on_c, 0, 55, 0
2, 24240, Note_on_c, 0, 74, 120
2, 24240, Note_on_c, 0, 44, 120
2, 24260, Note_on_c, 0, 74, 0
2, 24260, Note_on_c, 0, 72, 120
2, 24280, Note_on_c, 0, 72, 0
2, 24280, Note_on_c, 0, 74, 120
2, 24296, Note_on_c, 0, 72, 120
2, 24300, Note_on_c, 0, 74, 0
2, 24300, Note_on_c, 0, 44, 0
2, 24300, Note_on_c, 0, 55, 120
2, 24312, Note_on_c, 0, 71, 120
2, 24319, Note_on_c, 0, 72, 0
2, 24359, Note_on_c, 0, 71, 0
2, 24360, Note_on_c, 0, 55, 0
2, 24360, Note_on_c, 0, 72, 120
2, 24360, Note_on_c, 0, 56, 120
2, 24420, Note_on_c, 0, 56, 0
2, 24420, Note_on_c, 0, 55, 120
2, 24463, Note_on_c, 0, 72, 0
2, 24480, Note_on_c, 0, 55, 0
2, 24480, Note_on_c, 0, 77, 120
2, 24480, Note_on_c, 0, 50, 120
2, 24540, Note_on_c, 0, 50, 0
2, 24540, Note_on_c, 0, 53, 120
2, 24543, Note_on_c, 0, 77, 0
2, 24600, Note_on_c, 0, 53, 0
2, 24600, Note_on_c, 0, 74, 120
2, 24600, Note_on_c, 0, 55, 120
2, 24655, Note_on_c, 0, 74, 0
2, 24660, Note_on_c, 0, 55, 0
2, 24660, Note_on_c, 0, 53, 120
2, 24720, Note_on_c, 0, 53, 0
2, 24720, Note_on_c, 0, 72, 120
2, 24720, Note_on_c, 0, 43, 120
2, 24740, Note_on_c, 0, 72, 0
2, 24740, Note_on_c, 0, 71, 120
2, 24752, Note_on_c, 0, 72, 120
2, 24760, Note_on_c, 0, 71, 0
2, 24772, Note_on_c, 0, 72, 0
2, 24776, Note_on_c, 0, 71, 120
2, 24780, Note_on_c, 0, 43, 0
2, 24780, Note_on_c, 0, 53, 120
2, 24792, Note_on_c, 0, 69, 120
2, 24796, Note_on_c, 0, 71, 0
2, 24840, Note_on_c, 0, 53, 0
2, 24840, Note_on_c, 0, 71, 120
2, 24840, Note_on_c, 0, 55, 120
2, 24852, Note_on_c, 0, 69, 0
2, 24900, Note_on_c, 0, 55, 0
2, 24900, Note_on_c, 0, 53, 120
2, 24960, Note_on_c, 0, 53, 0
2, 24960, Note_on_c, 0, 71, 0
2, 24960, Note_on_c, 0, 75, 120
2, 24960, Note_on_c, 0, 48, 120
2, 25020, Note_on_c, 0, 75, 0
2, 25020, Note_on_c, 0, 63, 120
2, 25023, Note_on_c, 0, 48, 0
2, 25080, Note_on_c, 0, 63, 0
2, 25080, Note_on_c, 0, 62, 120
2, 25080, Note_on_c, 0, 60, 120
2, 25140, Note_on_c, 0, 62, 0
2, 25140, Note_on_c, 0, 63, 120
2, 25175, Note_on_c, 0, 60, 0
2, 25200, Note_on_c, 0, 63, 0
2, 25200, Note_on_c, 0, 67, 120
2, 25200, Note_on_c, 0, 58, 120
2, 25260, Note_on_c, 0, 67, 0
2, 25260, Note_on_c, 0, 63, 120
2, 25303, Note_on_c, 0, 58, 0
2, 25320, Note_on_c, 0, 63, 0
2, 25320, Note_on_c, 0, 62, 120
2, 25320, Note_on_c, 0, 56, 120
2, 25380, Note_on_c, 0, 62, 0
2, 25380, Note_on_c, 0, 63, 120
2, 25423, Note_on_c, 0, 56, 0
2, 25440, Note_on_c, 0, 63, 0
2, 25440, Note_on_c, 0, 70, 120
2, 25440, Note_on_c, 0, 55, 120
2, 25500, Note_on_c, 0, 70, 0
2, 25500, Note_on_c, 0, 63, 120
2, 25560, Note_on_c, 0, 63, 0
2, 25560, Note_on_c, 0, 55, 0
2, 25560, Note_on_c, 0, 62, 120
2, 25560, Note_on_c, 0, 53, 120
2, 25620, Note_on_c, 0, 62, 0
2, 25620, Note_on_c, 0, 63, 120
2, 25680, Note_on_c, 0, 63, 0
2, 25680, Note_on_c, 0, 53, 0
2, 25680, Note_on_c, 0, 73, 120
2, 25680, Note_on_c, 0, 55, 120
2, 25740, Note_on_c, 0, 73, 0
2, 25740, Note_on_c, 0, 63, 120
2, 25767, Note_on_c, 0, 55, 0
2, 25800, Note_on_c, 0, 63, 0
2, 25800, Note_on_c, 0, 51, 120
2, 25800, Note_on_c, 0, 62, 120
2, 25860, Note_on_c, 0, 62, 0
2, 25860, Note_on_c, 0, 63, 120
2, 25871, Note_on_c, 0, 51, 0
2, 25920, Note_on_c, 0, 63, 0
2, 25920, Note_on_c, 0, 72, 120
2, 25920, Note_on_c, 0, 56, 120
2, 25980, Note_on_c, 0, 56, 0
2, 25980, Note_on_c, 0, 60, 120
2, 25991, Note_on_c, 0, 72, 0
2, 26040, Note_on_c, 0, 60, 0
2, 26040, Note_on_c, 0, 68, 120
2, 26040, Note_on_c, 0, 61, 120
2, 26100, Note_on_c, 0, 61, 0
2, 26100, Note_on_c, 0, 60, 120
2, 26103, Note_on_c, 0, 68, 0
2, 26160, Note_on_c, 0, 60, 0
2, 26160, Note_on_c, 0, 67, 120
2, 26160, Note_on_c, 0, 49, 120
2, 26180, Note_on_c, 0, 67, 0
2, 26180, Note_on_c, 0, 65, 120
2, 26192, Note_on_c, 0, 67, 120
2, 26200, Note_on_c, 0, 65, 0
2, 26208, Note_on_c, 0, 65, 120
2, 26212, Note_on_c, 0, 67, 0
2, 26220, Note_on_c, 0, 49, 0
2, 26220, Note_on_c, 0, 60, 120
2, 26228, Note_on_c, 0, 65, 0
2, 26232, Note_on_c, 0, 64, 120
2, 26280, Note_on_c, 0, 60, 0
2, 26280, Note_on_c, 0, 65, 120
2, 26280, Note_on_c, 0, 61, 120
2, 26292, Note_on_c, 0, 64, 0
2, 26340, Note_on_c, 0, 61, 0
2, 26340, Note_on_c, 0, 60, 120
2, 26367, Note_on_c, 0, 65, 0
2, 26400, Note_on_c, 0, 60, 0
2, 26400, Note_on_c, 0, 70, 120
2, 26400, Note_on_c, 0, 55, 120
2, 26460, Note_on_c, 0, 55, 0
2, 26460, Note_on_c, 0, 58, 120
2, 26471, Note_on_c, 0, 70, 0
2, 26520, Note_on_c, 0, 58, 0
2, 26520, Note_on_c, 0, 67, 120
2, 26520, Note_on_c, 0, 60, 120
2, 26580, Note_on_c, 0, 60, 0
2, 26580, Note_on_c, 0, 58, 120
2, 26583, Note_on_c, 0, 67, 0
2, 26640, Note_on_c, 0, 58, 0
2, 26640, Note_on_c, 0, 65, 120
2, 26640, Note_on_c, 0, 48, 120
2, 26660, Note_on_c, 0, 65, 0
2, 26660, Note_on_c, 0, 64, 120
2, 26672, Note_on_c, 0, 65, 120
2, 26680, Note_on_c, 0, 64, 0
2, 26692, Note_on_c, 0, 65, 0
2, 26696, Note_on_c, 0, 64, 120
2, 26700, Note_on_c, 0, 48, 0
2, 26700, Note_on_c, 0, 58, 120
2, 26712, Note_on_c, 0, 62, 120
2, 26716, Note_on_c, 0, 64, 0
2, 26760, Note_on_c, 0, 58, 0
2, 26760, Note_on_c, 0, 64, 120
2, 26760, Note_on_c, 0, 60, 120
2, 26772, Note_on_c, 0, 62, 0
2, 26820, Note_on_c, 0, 60, 0
2, 26820, Note_on_c, 0, 58, 120
2, 26855, Note_on_c, 0, 64, 0
2, 26880, Note_on_c, 0, 58, 0
2, 26880, Note_on_c, 0, 68, 120
2, 26880, Note_on_c, 0, 53, 120
2, 26940, Note_on_c, 0, 68, 0
2, 26940, Note_on_c, 0, 72, 120
2, 26967, Note_on_c, 0, 53, 0
2, 27000, Note_on_c, 0, 72, 0
2, 27000, Note_on_c, 0, 71, 120
2, 27000, Note_on_c, 0, 56, 120
2, 27060, Note_on_c, 0, 71, 0
2, 27060, Note_on_c, 0, 72, 120
2, 27071, Note_on_c, 0, 56, 0
2, 27120, Note_on_c, 0, 72, 0
2, 27120, Note_on_c, 0, 73, 120
2, 27120, Note_on_c, 0, 53, 120
2, 27180, Note_on_c, 0, 73, 0
2, 27180, Note_on_c, 0, 72, 120
2, 27191, Note_on_c, 0, 53, 0
2, 27240, Note_on_c, 0, 72, 0
2, 27240, Note_on_c, 0, 71, 120
2, 27240, Note_on_c, 0, 61, 120
2, 27300, Note_on_c, 0, 71, 0
2, 27300, Note_on_c, 0, 72, 120
2, 27311, Note_on_c, 0, 61, 0
2, 27360, Note_on_c, 0, 72, 0
2, 27360, Note_on_c, 0, 67, 120
2, 27360, Note_on_c, 0, 52, 120
2, 27420, Note_on_c, 0, 67, 0
2, 27420, Note_on_c, 0, 72, 120
2, 27455, Note_on_c, 0, 52, 0
2, 27480, Note_on_c, 0, 72, 0
2, 27480, Note_on_c, 0, 71, 120
2, 27480, Note_on_c, 0, 55, 120
2, 27540, Note_on_c, 0, 71, 0
2, 27540, Note_on_c, 0, 72, 120
2, 27567, Note_on_c, 0, 55, 0
2, 27600, Note_on_c, 0, 72, 0
2, 27600, Note_on_c, 0, 73, 120
2, 27600, Note_on_c, 0, 51, 120
2, 27660, Note_on_c, 0, 73, 0
2, 27660, Note_on_c, 0, 72, 120
2, 27687, Note_on_c, 0, 51, 0
2, 27720, Note_on_c, 0, 72, 0
2, 27720, Note_on_c, 0, 60, 120
2, 27720, Note_on_c, 0, 71, 120
2, 27780, Note_on_c, 0, 71, 0
2, 27780, Note_on_c, 0, 72, 120
2, 27791, Note_on_c, 0, 60, 0
2, 27840, Note_on_c, 0, 72, 0
2, 27840, Note_on_c, 0, 65, 120
2, 27840, Note_on_c, 0, 50, 120
2, 27900, Note_on_c, 0, 65, 0
2, 27900, Note_on_c, 0, 72, 120
2, 27960, Note_on_c, 0, 72, 0
2, 27960, Note_on_c, 0, 50, 0
2, 27960, Note_on_c, 0, 74, 120
2, 27960, Note_on_c, 0, 53, 120
2, 28020, Note_on_c, 0, 74, 0
2, 28020, Note_on_c, 0, 76, 120
2, 28047, Note_on_c, 0, 53, 0
2, 28080, Note_on_c, 0, 76, 0
2, 28080, Note_on_c, 0, 77, 120
2, 28080, Note_on_c, 0, 49, 120
2, 28140, Note_on_c, 0, 77, 0
2, 28140, Note_on_c, 0, 70, 120
2, 28167, Note_on_c, 0, 49, 0
2, 28200, Note_on_c, 0, 70, 0
2, 28200, Note_on_c, 0, 69, 120
2, 28200, Note_on_c, 0, 58, 120
2, 28260, Note_on_c, 0, 69, 0
2, 28260, Note_on_c, 0, 70, 120
2, 28287, Note_on_c, 0, 58, 0
2, 28320, Note_on_c, 0, 70, 0
2, 28320, Note_on_c, 0, 79, 120
2, 28320, Note_on_c, 0, 48, 120
2, 28380, Note_on_c, 0, 79, 0
2, 28380, Note_on_c, 0, 77, 120
2, 28440, Note_on_c, 0, 77, 0
2, 28440, Note_on_c, 0, 48, 0
2, 28440, Note_on_c, 0, 76, 120
2, 28440, Note_on_c, 0, 50, 120
2, 28500, Note_on_c, 0, 76, 0
2, 28500, Note_on_c, 0, 74, 120
2, 28560, Note_on_c, 0, 74, 0
2, 28560, Note_on_c, 0, 50, 0
2, 28560, Note_on_c, 0, 72, 120
2, 28560, Note_on_c, 0, 52, 120
2, 28620, Note_on_c, 0, 72, 0
2, 28620, Note_on_c, 0, 70, 120
2, 28647, Note_on_c, 0, 52, 0
2, 28680, Note_on_c, 0, 70, 0
2, 28680, Note_on_c, 0, 68, 120
2, 28680, Note_on_c, 0, 48, 120
2, 28740, Note_on_c, 0, 68, 0
2, 28740, Note_on_c, 0, 67, 120
2, 28767, Note_on_c, 0, 48, 0
2, 28800, Note_on_c, 0, 67, 0
2, 28800, Note_on_c, 0, 68, 120
2, 28800, Note_on_c, 0, 53, 120
2, 28860, Note_on_c, 0, 53, 0
2, 28860, Note_on_c, 0, 68, 0
2, 28860, Note_on_c, 0, 65, 120
2, 28860, Note_on_c, 0, 56, 120
2, 28920, Note_on_c, 0, 56, 0
2, 28920, Note_on_c, 0, 65, 0
2, 28920, Note_on_c, 0, 64, 120
2, 28920, Note_on_c, 0, 55, 120
2, 28980, Note_on_c, 0, 55, 0
2, 28980, Note_on_c, 0, 64, 0
2, 28980, Note_on_c, 0, 65, 120
2, 28980, Note_on_c, 0, 56, 120
2, 29040, Note_on_c, 0, 56, 0
2, 29040, Note_on_c, 0, 65, 0
2, 29040, Note_on_c, 0, 72, 120
2, 29040, Note_on_c, 0, 51, 120
2, 29100, Note_on_c, 0, 51, 0
2, 29100, Note_on_c, 0, 72, 0
2, 29100, Note_on_c, 0, 68, 120
2, 29100, Note_on_c, 0, 60, 120
2, 29160, Note_on_c, 0, 60, 0
2, 29160, Note_on_c, 0, 68, 0
2, 29160, Note_on_c, 0, 67, 120
2, 29160, Note_on_c, 0, 58, 120
2, 29220, Note_on_c, 0, 58, 0
2, 29220, Note_on_c, 0, 67, 0
2, 29220, Note_on_c, 0, 68, 120
2, 29220, Note_on_c, 0, 60, 120
2, 29280, Note_on_c, 0, 60, 0
2, 29280, Note_on_c, 0, 68, 0
2, 29280, Note_on_c, 0, 77, 120
2, 29280, Note_on_c, 0, 49, 120
2, 29340, Note_on_c, 0, 77, 0
2, 29340, Note_on_c, 0, 75, 120
2, 29367, Note_on_c, 0, 49, 0
2, 29400, Note_on_c, 0, 75, 0
2, 29400, Note_on_c, 0, 73, 120
2, 29400, Note_on_c, 0, 53, 120
2, 29460, Note_on_c, 0, 73, 0
2, 29460, Note_on_c, 0, 72, 120
2, 29479, Note_on_c, 0, 53, 0
2, 29520, Note_on_c, 0, 72, 0
2, 29520, Note_on_c, 0, 70, 120
2, 29520, Note_on_c, 0, 58, 120
2, 29580, Note_on_c, 0, 70, 0
2, 29580, Note_on_c, 0, 68, 120
2, 29599, Note_on_c, 0, 58, 0
2, 29640, Note_on_c, 0, 68, 0
2, 29640, Note_on_c, 0, 61, 120
2, 29640, Note_on_c, 0, 67, 120
2, 29700, Note_on_c, 0, 67, 0
2, 29700, Note_on_c, 0, 65, 120
2, 29711, Note_on_c, 0, 61, 0
2, 29760, Note_on_c, 0, 65, 0
2, 29760, Note_on_c, 0, 67, 120
2, 29760, Note_on_c, 0, 51, 120
2, 29820, Note_on_c, 0, 51, 0
2, 29820, Note_on_c, 0, 67, 0
2, 29820, Note_on_c, 0, 63, 120
2, 29820, Note_on_c, 0, 55, 120
2, 29880, Note_on_c, 0, 55, 0
2, 29880, Note_on_c, 0, 63, 0
2, 29880, Note_on_c, 0, 62, 120
2, 29880, Note_on_c, 0, 53, 120
2, 29940, Note_on_c, 0, 53, 0
2, 29940, Note_on_c, 0, 62, 0
2, 29940, Note_on_c, 0, 63, 120
2, 29940, Note_on_c, 0, 55, 120
2, 30000, Note_on_c, 0, 55, 0
2, 30000, Note_on_c, 0, 63, 0
2, 30000, Note_on_c, 0, 70, 120
2, 30000, Note_on_c, 0, 49, 120
2, 30060, Note_on_c, 0, 49, 0
2, 30060, Note_on_c, 0, 70, 0
2, 30060, Note_on_c, 0, 67, 120
2, 30060, Note_on_c, 0, 58, 120
2, 30120, Note_on_c, 0, 58, 0
2, 30120, Note_on_c, 0, 67, 0
2, 30120, Note_on_c, 0, 65, 120
2, 30120, Note_on_c, 0, 56, 120
2, 30180, Note_on_c, 0, 56, 0
2, 30180, Note_on_c, 0, 65, 0
2, 30180, Note_on_c, 0, 67, 120
2, 30180, Note_on_c, 0, 58, 120
2, 30240, Note_on_c, 0, 58, 0
2, 30240, Note_on_c, 0, 67, 0
2, 30240, Note_on_c, 0, 75, 120
2, 30240, Note_on_c, 0, 48, 120
2, 30300, Note_on_c, 0, 75, 0
2, 30300, Note_on_c, 0, 73, 120
2, 30319, Note_on_c, 0, 48, 0
2, 30360, Note_on_c, 0, 73, 0
2, 30360, Note_on_c, 0, 72, 120
2, 30360, Note_on_c, 0, 51, 120
2, 30420, Note_on_c, 0, 72, 0
2, 30420, Note_on_c, 0, 70, 120
2, 30447, Note_on_c, 0, 51, 0
2, 30480, Note_on_c, 0, 70, 0
2, 30480, Note_on_c, 0, 68, 120
2, 30480, Note_on_c, 0, 56, 120
2, 30540, Note_on_c, 0, 68, 0
2, 30540, Note_on_c, 0, 67, 120
2, 30567, Note_on_c, 0, 56, 0
2, 30600, Note_on_c, 0, 67, 0
2, 30600, Note_on_c, 0, 60, 120
2, 30600, Note_on_c, 0, 65, 120
2, 30660, Note_on_c, 0, 65, 0
2, 30660, Note_on_c, 0, 64, 120
2, 30687, Note_on_c, 0, 60, 0
2, 30720, Note_on_c, 0, 64, 0
2, 30720, Note_on_c, 0, 65, 120
2, 30720, Note_on_c, 0, 49, 120
2, 30780, Note_on_c, 0, 49, 0
2, 30780, Note_on_c, 0, 53, 120
2, 30807, Note_on_c, 0, 65, 0
2, 30840, Note_on_c, 0, 53, 0
2, 30840, Note_on_c, 0, 69, 120
2, 30840, Note_on_c, 0, 51, 120
2, 30900, Note_on_c, 0, 51, 0
2, 30900, Note_on_c, 0, 53, 120
2, 30960, Note_on_c, 0, 53, 0
2, 30960, Note_on_c, 0, 69, 0
2, 30960, Note_on_c, 0, 70, 120
2, 30960, Note_on_c, 0, 54, 120
2, 31020, Note_on_c, 0, 54, 0
2, 31020, Note_on_c, 0, 53, 120
2, 31080, Note_on_c, 0, 53, 0
2, 31080, Note_on_c, 0, 70, 0
2, 31080, Note_on_c, 0, 72, 120
2, 31080, Note_on_c, 0, 51, 120
2, 31140, Note_on_c, 0, 51, 0
2, 31140, Note_on_c, 0, 53, 120
2, 31200, Note_on_c, 0, 53, 0
2, 31200, Note_on_c, 0, 72, 0
2, 31200, Note_on_c, 0, 73, 120
2, 31200, Note_on_c, 0, 46, 120
2, 31260, Note_on_c, 0, 46, 0
2, 31260, Note_on_c, 0, 53, 120
2, 31320, Note_on_c, 0, 53, 0
2, 31320, Note_on_c, 0, 73, 0
2, 31320, Note_on_c, 0, 76, 120
2, 31320, Note_on_c, 0, 55, 120
2, 31380, Note_on_c, 0, 55, 0
2, 31380, Note_on_c, 0, 56, 120
2, 31440, Note_on_c, 0, 56, 0
2, 31440, Note_on_c, 0, 76, 0
2, 31440, Note_on_c, 0, 77, 120
2, 31440, Note_on_c, 0, 55, 120
2, 31500, Note_on_c, 0, 55, 0
2, 31500, Note_on_c, 0, 53, 120
2, 31560, Note_on_c, 0, 53, 0
2, 31560, Note_on_c, 0, 77, 0
2, 31560, Note_on_c, 0, 79, 120
2, 31560, Note_on_c, 0, 52, 120
2, 31620, Note_on_c, 0, 52, 0
2, 31620, Note_on_c, 0, 53, 120
2, 31680, Note_on_c, 0, 53, 0
2, 31680, Note_on_c, 0, 79, 0
2, 31680, Note_on_c, 0, 72, 120
2, 31680, Note_on_c, 0, 44, 120
2, 31740, Note_on_c, 0, 72, 0
2, 31740, Note_on_c, 0, 76, 120
2, 31759, Note_on_c, 0, 44, 0
2, 31800, Note_on_c, 0, 76, 0
2, 31800, Note_on_c, 0, 77, 120
2, 31800, Note_on_c, 0, 41, 120
2, 31860, Note_on_c, 0, 77, 0
2, 31860, Note_on_c, 0, 80, 120
2, 31871, Note_on_c, 0, 41, 0
2, 31920, Note_on_c, 0, 80, 0
2, 31920, Note_on_c, 0, 70, 120
2, 31920, Note_on_c, 0, 48, 120
2, 31980, Note_on_c, 0, 70, 0
2, 31980, Note_on_c, 0, 79, 120
2, 31991, Note_on_c, 0, 48, 0
2, 32040, Note_on_c, 0, 79, 0
2, 32040, Note_on_c, 0, 77, 120
2, 32040, Note_on_c, 0, 36, 120
2, 32100, Note_on_c, 0, 77, 0
2, 32100, Note_on_c, 0, 76, 120
2, 32111, Note_on_c, 0, 36, 0
2, 32160, Note_on_c, 0, 76, 0
2, 32160, Note_on_c, 0, 68, 120
2, 32160, Note_on_c, 0, 41, 120
2, 32220, Note_on_c, 0, 68, 0
2, 32220, Note_on_c, 0, 72, 120
2, 32239, Note_on_c, 0, 41, 0
2, 32280, Note_on_c, 0, 72, 0
2, 32280, Note_on_c, 0, 76, 120
2, 32280, Note_on_c, 0, 44, 120
2, 32340, Note_on_c, 0, 76, 0
2, 32340, Note_on_c, 0, 77, 120
2, 32400, Note_on_c, 0, 77, 0
2, 32400, Note_on_c, 0, 44, 0
2, 32400, Note_on_c, 0, 67, 120
2, 32400, Note_on_c, 0, 46, 120
2, 32460, Note_on_c, 0, 67, 0
2, 32460, Note_on_c, 0, 73, 120
2, 32520, Note_on_c, 0, 73, 0
2, 32520, Note_on_c, 0, 46, 0
2, 32520, Note_on_c, 0, 48, 120
2, 32520, Note_on_c, 0, 72, 120
2, 32580, Note_on_c, 0, 72, 0
2, 32580, Note_on_c, 0, 70, 120
2, 32607, Note_on_c, 0, 48, 0
2, 32640, Note_on_c, 0, 70, 0
2, 32640, Note_on_c, 0, 68, 120
2, 32640, Note_on_c, 0, 53, 120
2, 32700, Note_on_c, 0, 68, 0
2, 32700, Note_on_c, 0, 67, 120
2, 32760, Note_on_c, 0, 67, 0
2, 32760, Note_on_c, 0, 53, 0
2, 32760, Note_on_c, 0, 65, 120
2, 32760, Note_on_c, 0, 55, 120
2, 32820, Note_on_c, 0, 65, 0
2, 32820, Note_on_c, 0, 64, 120
2, 32880, Note_on_c, 0, 64, 0
2, 32880, Note_on_c, 0, 55, 0
2, 32880, Note_on_c, 0, 65, 120
2, 32880, Note_on_c, 0, 56, 120
2, 32940, Note_on_c, 0, 65, 0
2, 32940, Note_on_c, 0, 68, 120
2, 32967, Note_on_c, 0, 56, 0
2, 33000, Note_on_c, 0, 68, 0
2, 33000, Note_on_c, 0, 60, 120
2, 33000, Note_on_c, 0, 53, 120
2, 33060, Note_on_c, 0, 60, 0
2, 33060, Note_on_c, 0, 63, 120
2, 33071, Note_on_c, 0, 53, 0
2, 33120, Note_on_c, 0, 63, 0
2, 33120, Note_on_c, 0, 62, 120
2, 33120, Note_on_c, 0, 58, 120
2, 33180, Note_on_c, 0, 62, 0
2, 33180, Note_on_c, 0, 68, 120
2, 33199, Note_on_c, 0, 58, 0
2, 33240, Note_on_c, 0, 68, 0
2, 33240, Note_on_c, 0, 65, 120
2, 33240, Note_on_c, 0, 46, 120
2, 33300, Note_on_c, 0, 65, 0
2, 33300, Note_on_c, 0, 62, 120
2, 33327, Note_on_c, 0, 46, 0
2, 33360, Note_on_c, 0, 62, 0
2, 33360, Note_on_c, 0, 58, 120
2, 33420, Note_on_c, 0, 58, 0
2, 33420, Note_on_c, 0, 56, 120
2, 33480, Note_on_c, 0, 56, 0
2, 33480, Note_on_c, 0, 55, 120
2, 33540, Note_on_c, 0, 55, 0
2, 33540, Note_on_c, 0, 53, 120
2, 33600, Note_on_c, 0, 53, 0
2, 33600, Note_on_c, 0, 67, 120
2, 33600, Note_on_c, 0, 51, 120
2, 33660, Note_on_c, 0, 67, 0
2, 33660, Note_on_c, 0, 65, 120
2, 33720, Note_on_c, 0, 65, 0
2, 33720, Note_on_c, 0, 51, 0
2, 33720, Note_on_c, 0, 63, 120
2, 33720, Note_on_c, 0, 53, 120
2, 33780, Note_on_c, 0, 63, 0
2, 33780, Note_on_c, 0, 62, 120
2, 33840, Note_on_c, 0, 62, 0
2, 33840, Note_on_c, 0, 53, 0
2, 33840, Note_on_c, 0, 63, 120
2, 33840, Note_on_c, 0, 55, 120
2, 33900, Note_on_c, 0, 63, 0
2, 33900, Note_on_c, 0, 67, 120
2, 33919, Note_on_c, 0, 55, 0
2, 33960, Note_on_c, 0, 67, 0
2, 33960, Note_on_c, 0, 59, 120
2, 33960, Note_on_c, 0, 51, 120
2, 34020, Note_on_c, 0, 59, 0
2, 34020, Note_on_c, 0, 62, 120
2, 34039, Note_on_c, 0, 51, 0
2, 34080, Note_on_c, 0, 62, 0
2, 34080, Note_on_c, 0, 60, 120
2, 34080, Note_on_c, 0, 56, 120
2, 34140, Note_on_c, 0, 60, 0
2, 34140, Note_on_c, 0, 67, 120
2, 34151, Note_on_c, 0, 56, 0
2, 34200, Note_on_c, 0, 67, 0
2, 34200, Note_on_c, 0, 63, 120
2, 34200, Note_on_c, 0, 44, 120
2, 34260, Note_on_c, 0, 63, 0
2, 34260, Note_on_c, 0, 60, 120
2, 34271, Note_on_c, 0, 44, 0
2, 34320, Note_on_c, 0, 60, 0
2, 34320, Note_on_c, 0, 56, 120
2, 34380, Note_on_c, 0, 56, 0
2, 34380, Note_on_c, 0, 55, 120
2, 34440, Note_on_c, 0, 55, 0
2, 34440, Note_on_c, 0, 53, 120
2, 34500, Note_on_c, 0, 53, 0
2, 34500, Note_on_c, 0, 51, 120
2, 34560, Note_on_c, 0, 51, 0
2, 34560, Note_on_c, 0, 65, 120
2, 34560, Note_on_c, 0, 50, 120
2, 34620, Note_on_c, 0, 65, 0
2, 34620, Note_on_c, 0, 63, 120
2, 34680, Note_on_c, 0, 63, 0
2, 34680, Note_on_c, 0, 50, 0
2, 34680, Note_on_c, 0, 62, 120
2, 34680, Note_on_c, 0, 51, 120
2, 34740, Note_on_c, 0, 62, 0
2, 34740, Note_on_c, 0, 60, 120
2, 34800, Note_on_c, 0, 60, 0
2, 34800, Note_on_c, 0, 51, 0
2, 34800, Note_on_c, 0, 62, 120
2, 34800, Note_on_c, 0, 53, 120
2, 34860, Note_on_c, 0, 62, 0
2, 34860, Note_on_c, 0, 65, 120
2, 34887, Note_on_c, 0, 53, 0
2, 34920, Note_on_c, 0, 65, 0
2, 34920, Note_on_c, 0, 68, 120
2, 34920, Note_on_c, 0, 50, 120
2, 34980, Note_on_c, 0, 68, 0
2, 34980, Note_on_c, 0, 60, 120
2, 34999, Note_on_c, 0, 50, 0
2, 35040, Note_on_c, 0, 60, 0
2, 35040, Note_on_c, 0, 59, 120
2, 35040, Note_on_c, 0, 55, 120
2, 35100, Note_on_c, 0, 59, 0
2, 35100, Note_on_c, 0, 65, 120
2, 35111, Note_on_c, 0, 55, 0
2, 35160, Note_on_c, 0, 65, 0
2, 35160, Note_on_c, 0, 62, 120
2, 35160, Note_on_c, 0, 43, 120
2, 35220, Note_on_c, 0, 62, 0
2, 35220, Note_on_c, 0, 59, 120
2, 35231, Note_on_c, 0, 43, 0
2, 35280, Note_on_c, 0, 59, 0
2, 35280, Note_on_c, 0, 55, 120
2, 35340, Note_on_c, 0, 55, 0
2, 35340, Note_on_c, 0, 59, 120
2, 35340, Note_on_c, 0, 53, 120
2, 35400, Note_on_c, 0, 53, 0
2, 35400, Note_on_c, 0, 59, 0
2, 35400, Note_on_c, 0, 60, 120
2, 35400, Note_on_c, 0, 51, 120
2, 35460, Note_on_c, 0, 51, 0
2, 35460, Note_on_c, 0, 60, 0
2, 35460, Note_on_c, 0, 50, 120
2, 35460, Note_on_c, 0, 62, 120
2, 35520, Note_on_c, 0, 62, 0
2, 35520, Note_on_c, 0, 50, 0
2, 35520, Note_on_c, 0, 63, 120
2, 35520, Note_on_c, 0, 48, 120
2, 35580, Note_on_c, 0, 48, 0
2, 35580, Note_on_c, 0, 50, 120
2, 35640, Note_on_c, 0, 50, 0
2, 35640, Note_on_c, 0, 67, 120
2, 35640, Note_on_c, 0, 51, 120
2, 35700, Note_on_c, 0, 51, 0
2, 35700, Note_on_c, 0, 48, 120
2, 35760, Note_on_c, 0, 48, 0
2, 35760, Note_on_c, 0, 67, 0
2, 35760, Note_on_c, 0, 72, 120
2, 35760, Note_on_c, 0, 44, 120
2, 35820, Note_on_c, 0, 44, 0
2, 35820, Note_on_c, 0, 63, 0
2, 35820, Note_on_c, 0, 70, 120
2, 35820, Note_on_c, 0, 55, 120
2, 35880, Note_on_c, 0, 55, 0
2, 35880, Note_on_c, 0, 70, 0
2, 35880, Note_on_c, 0, 68, 120
2, 35880, Note_on_c, 0, 53, 120
2, 35940, Note_on_c, 0, 53, 0
2, 35940, Note_on_c, 0, 68, 0
2, 35940, Note_on_c, 0, 67, 120
2, 35940, Note_on_c, 0, 51, 120
2, 36000, Note_on_c, 0, 51, 0
2, 36000, Note_on_c, 0, 67, 0
2, 36000, Note_on_c, 0, 65, 120
2, 36000, Note_on_c, 0, 50, 120
2, 36060, Note_on_c, 0, 50, 0
2, 36060, Note_on_c, 0, 65, 0
2, 36060, Note_on_c, 0, 67, 120
2, 36060, Note_on_c, 0, 51, 120
2, 36120, Note_on_c, 0, 51, 0
2, 36120, Note_on_c, 0, 67, 0
2, 36120, Note_on_c, 0, 68, 120
2, 36120, Note_on_c, 0, 53, 120
2, 36180, Note_on_c, 0, 53, 0
2, 36180, Note_on_c, 0, 68, 0
2, 36180, Note_on_c, 0, 65, 120
2, 36180, Note_on_c, 0, 50, 120
2, 36240, Note_on_c, 0, 50, 0
2, 36240, Note_on_c, 0, 65, 0
2, 36240, Note_on_c, 0, 62, 120
2, 36240, Note_on_c, 0, 46, 120
2, 36300, Note_on_c, 0, 46, 0
2, 36300, Note_on_c, 0, 72, 0
2, 36300, Note_on_c, 0, 72, 120
2, 36300, Note_on_c, 0, 56, 120
2, 36360, Note_on_c, 0, 56, 0
2, 36360, Note_on_c, 0, 72, 0
2, 36360, Note_on_c, 0, 70, 120
2, 36360, Note_on_c, 0, 55, 120
2, 36420, Note_on_c, 0, 55, 0
2, 36420, Note_on_c, 0, 70, 0
2, 36420, Note_on_c, 0, 68, 120
2, 36420, Note_on_c, 0, 53, 120
2, 36480, Note_on_c, 0, 53, 0
2, 36480, Note_on_c, 0, 68, 0
2, 36480, Note_on_c, 0, 62, 0
2, 36480, Note_on_c, 0, 67, 120
2, 36480, Note_on_c, 0, 51, 120
2, 36540, Note_on_c, 0, 67, 0
2, 36540, Note_on_c, 0, 68, 120
2, 36600, Note_on_c, 0, 68, 0
2, 36600, Note_on_c, 0, 51, 0
2, 36600, Note_on_c, 0, 70, 120
2, 36600, Note_on_c, 0, 50, 120
2, 36660, Note_on_c, 0, 70, 0
2, 36660, Note_on_c, 0, 67, 120
2, 36720, Note_on_c, 0, 67, 0
2, 36720, Note_on_c, 0, 50, 0
2, 36720, Note_on_c, 0, 60, 120
2, 36720, Note_on_c, 0, 51, 120
2, 36780, Note_on_c, 0, 60, 0
2, 36780, Note_on_c, 0, 73, 120
2, 36840, Note_on_c, 0, 73, 0
2, 36840, Note_on_c, 0, 51, 0
2, 36840, Note_on_c, 0, 72, 120
2, 36840, Note_on_c, 0, 52, 120
2, 36900, Note_on_c, 0, 72, 0
2, 36900, Note_on_c, 0, 70, 120
2, 36960, Note_on_c, 0, 70, 0
2, 36960, Note_on_c, 0, 52, 0
2, 36960, Note_on_c, 0, 68, 120
2, 36960, Note_on_c, 0, 53, 120
2, 37020, Note_on_c, 0, 68, 0
2, 37020, Note_on_c, 0, 70, 120
2, 37080, Note_on_c, 0, 70, 0
2, 37080, Note_on_c, 0, 53, 0
2, 37080, Note_on_c, 0, 72, 120
2, 37080, Note_on_c, 0, 52, 120
2, 37140, Note_on_c, 0, 72, 0
2, 37140, Note_on_c, 0, 68, 120
2, 37200, Note_on_c, 0, 68, 0
2, 37200, Note_on_c, 0, 52, 0
2, 37200, Note_on_c, 0, 62, 120
2, 37200, Note_on_c, 0, 53, 120
2, 37260, Note_on_c, 0, 62, 0
2, 37260, Note_on_c, 0, 75, 120
2, 37320, Note_on_c, 0, 75, 0
2, 37320, Note_on_c, 0, 53, 0
2, 37320, Note_on_c, 0, 54, 120
2, 37320, Note_on_c, 0, 74, 120
2, 37380, Note_on_c, 0, 74, 0
2, 37380, Note_on_c, 0, 72, 120
2, 37440, Note_on_c, 0, 72, 0
2, 37440, Note_on_c, 0, 54, 0
2, 37440, Note_on_c, 0, 71, 120
2, 37440, Note_on_c, 0, 55, 120
2, 37500, Note_on_c, 0, 55, 0
2, 37500, Note_on_c, 0, 71, 0
2, 37500, Note_on_c, 0, 67, 120
2, 37500, Note_on_c, 0, 53, 120
2, 37560, Note_on_c, 0, 53, 0
2, 37560, Note_on_c, 0, 67, 0
2, 37560, Note_on_c, 0, 72, 120
2, 37560, Note_on_c, 0, 51, 120
2, 37620, Note_on_c, 0, 51, 0
2, 37620, Note_on_c, 0, 74, 120
2, 37620, Note_on_c, 0, 53, 120
2, 37680, Note_on_c, 0, 53, 0
2, 37680, Note_on_c, 0, 74, 0
2, 37680, Note_on_c, 0, 72, 0
2, 37680, Note_on_c, 0, 72, 120
2, 37680, Note_on_c, 0, 75, 120
2, 37680, Note_on_c, 0, 55, 120
2, 37740, Note_on_c, 0, 67, 120
2, 37751, Note_on_c, 0, 55, 0
2, 37800, Note_on_c, 0, 72, 0
2, 37800, Note_on_c, 0, 75, 0
2, 37800, Note_on_c, 0, 71, 120
2, 37800, Note_on_c, 0, 74, 120
2, 37800, Note_on_c, 0, 43, 120
2, 37860, Note_on_c, 0, 67, 0
2, 37860, Note_on_c, 0, 65, 120
2, 37879, Note_on_c, 0, 43, 0
2, 37920, Note_on_c, 0, 71, 0
2, 37920, Note_on_c, 0, 74, 0
2, 37920, Note_on_c, 0, 65, 0
2, 37920, Note_on_c, 0, 72, 120
2, 37920, Note_on_c, 0, 36, 120
2, 37936, Note_on_c, 0, 67, 120
2, 37952, Note_on_c, 0, 63, 120
2, 37980, Note_on_c, 0, 36, 0
2, 37980, Note_on_c, 0, 48, 120
2, 38040, Note_on_c, 0, 48, 0
2, 38040, Note_on_c, 0, 51, 120
2, 38100, Note_on_c, 0, 51, 0
2, 38100, Note_on_c, 0, 55, 120
2, 38160, Note_on_c, 0, 55, 0
2, 38160, Note_on_c, 0, 60, 120
2, 38399, Note_on_c, 0, 67, 0
2, 38400, Note_on_c, 0, 72, 0
2, 38400, Note_on_c, 0, 60, 0
2, 38400, Note_on_c, 0, 51, 100
2, 38407, Note_on_c, 0, 63, 0
2, 38460, Note_on_c, 0, 70, 100
2, 38487, Note_on_c, 0, 51, 0
2, 38520, Note_on_c, 0, 70, 0
2, 38520, Note_on_c, 0, 53, 100
2, 38520, Note_on_c, 0, 69, 100
2, 38580, Note_on_c, 0, 69, 0
2, 38580, Note_on_c, 0, 70, 100
2, 38615, Note_on_c, 0, 53, 0
2, 38640, Note_on_c, 0, 70, 0
2, 38640, Note_on_c, 0, 75, 100
2, 38640, Note_on_c, 0, 55, 100
2, 38700, Note_on_c, 0, 75, 0
2, 38700, Note_on_c, 0, 70, 100
2, 38735, Note_on_c, 0, 55, 0
2, 38760, Note_on_c, 0, 70, 0
2, 38760, Note_on_c, 0, 69, 100
2, 38760, Note_on_c, 0, 51, 100
2, 38820, Note_on_c, 0, 69, 0
2, 38820, Note_on_c, 0, 70, 100
2, 38847, Note_on_c, 0, 51, 0
2, 38880, Note_on_c, 0, 70, 0
2, 38880, Note_on_c, 0, 77, 100
2, 38880, Note_on_c, 0, 50, 100
2, 38940, Note_on_c, 0, 77, 0
2, 38940, Note_on_c, 0, 70, 100
2, 39000, Note_on_c, 0, 70, 0
2, 39000, Note_on_c, 0, 50, 0
2, 39000, Note_on_c, 0, 69, 100
2, 39000, Note_on_c, 0, 48, 100
2, 39060, Note_on_c, 0, 69, 0
2, 39060, Note_on_c, 0, 70, 100
2, 39120, Note_on_c, 0, 70, 0
2, 39120, Note_on_c, 0, 48, 0
2, 39120, Note_on_c, 0, 80, 100
2, 39120, Note_on_c, 0, 50, 100
2, 39180, Note_on_c, 0, 80, 0
2, 39180, Note_on_c, 0, 70, 100
2, 39191, Note_on_c, 0, 50, 0
2, 39240, Note_on_c, 0, 70, 0
2, 39240, Note_on_c, 0, 46, 100
2, 39240, Note_on_c, 0, 69, 100
2, 39295, Note_on_c, 0, 46, 0
2, 39300, Note_on_c, 0, 69, 0
2, 39300, Note_on_c, 0, 70, 100
2, 39360, Note_on_c, 0, 70, 0
2, 39360, Note_on_c, 0, 79, 100
2, 39360, Note_on_c, 0, 51, 100
2, 39420, Note_on_c, 0, 51, 0
2, 39420, Note_on_c, 0, 55, 100
2, 39431, Note_on_c, 0, 79, 0
2, 39480, Note_on_c, 0, 55, 0
2, 39480, Note_on_c, 0, 75, 100
2, 39480, Note_on_c, 0, 56, 100
2, 39540, Note_on_c, 0, 56, 0
2, 39540, Note_on_c, 0, 55, 100
2, 39543, Note_on_c, 0, 75, 0
2, 39600, Note_on_c, 0, 55, 0
2, 39600, Note_on_c, 0, 74, 100
2, 39600, Note_on_c, 0, 44, 100
2, 39620, Note_on_c, 0, 74, 0
2, 39620, Note_on_c, 0, 72, 100
2, 39640, Note_on_c, 0, 72, 0
2, 39640, Note_on_c, 0, 74, 100
2, 39656, Note_on_c, 0, 72, 100
2, 39660, Note_on_c, 0, 74, 0
2, 39660, Note_on_c, 0, 44, 0
2, 39660, Note_on_c, 0, 55, 100
2, 39672, Note_on_c, 0, 71, 100
2, 39679, Note_on_c, 0, 72, 0
2, 39719, Note_on_c, 0, 71, 0
2, 39720, Note_on_c, 0, 55, 0
2, 39720, Note_on_c, 0, 72, 100
2, 39720, Note_on_c, 0, 56, 100
2, 39780, Note_on_c, 0, 56, 0
2, 39780, Note_on_c, 0, 55, 100
2, 39823, Note_on_c, 0, 72, 0
2, 39840, Note_on_c, 0, 55, 0
2, 39840, Note_on_c, 0, 77, 100
2, 39840, Note_on_c, 0, 50, 100
2, 39900, Note_on_c, 0, 50, 0
2, 39900, Note_on_c, 0, 53, 100
2, 39903, Note_on_c, 0, 77, 0
2, 39960, Note_on_c, 0, 53, 0
2, 39960, Note_on_c, 0, 74, 100
2, 39960, Note_on_c, 0, 55, 100
2, 40015, Note_on_c, 0, 74, 0
2, 40020, Note_on_c, 0, 55, 0
2, 40020, Note_on_c, 0, 53, 100
2, 40080, Note_on_c, 0, 53, 0
2, 40080, Note_on_c, 0, 72, 100
2, 40080, Note_on_c, 0, 43, 100
2, 40100, Note_on_c, 0, 72, 0
2, 40100, Note_on_c, 0, 71, 100
2, 40112, Note_on_c, 0, 72, 100
2, 40120, Note_on_c, 0, 71, 0
2, 40132, Note_on_c, 0, 72, 0
2, 40136, Note_on_c, 0, 71, 100
2, 40140, Note_on_c, 0, 43, 0
2, 40140, Note_on_c, 0, 53, 100
2, 40152, Note_on_c, 0, 69, 100
2, 40156, Note_on_c, 0, 71, 0
2, 40200, Note_on_c, 0, 53, 0
2, 40200, Note_on_c, 0, 71, 100
2, 40200, Note_on_c, 0, 55, 100
2, 40212, Note_on_c, 0, 69, 0
2, 40260, Note_on_c, 0, 55, 0
2, 40260, Note_on_c, 0, 53, 100
2, 40320, Note_on_c, 0, 53, 0
2, 40320, Note_on_c, 0, 71, 0
2, 40320, Note_on_c, 0, 75, 100
2, 40320, Note_on_c, 0, 48, 100
2, 40380, Note_on_c, 0, 75, 0
2, 40380, Note_on_c, 0, 63, 100
2, 40383, Note_on_c, 0, 48, 0
2, 40440, Note_on_c, 0, 63, 0
2, 40440, Note_on_c, 0, 62, 100
2, 40440, Note_on_c, 0, 60, 100
2, 40500, Note_on_c, 0, 62, 0
2, 40500, Note_on_c, 0, 63, 100
2, 40535, Note_on_c, 0, 60, 0
2, 40560, Note_on_c, 0, 63, 0
2, 40560, Note_on_c, 0, 67, 100
2, 40560, Note_on_c, 0, 58, 100
2, 40620, Note_on_c, 0, 67, 0
2, 40620, Note_on_c, 0, 63, 100
2, 40663, Note_on_c, 0, 58, 0
2, 40680, Note_on_c, 0, 63, 0
2, 40680, Note_on_c, 0, 62, 100
2, 40680, Note_on_c, 0, 56, 100
2, 40740, Note_on_c, 0, 62, 0
2, 40740, Note_on_c, 0, 63, 100
2, 40783, Note_on_c, 0, 56, 0
2, 40800, Note_on_c, 0, 63, 0
2, 40800, Note_on_c, 0, 70, 100
2, 40800, Note_on_c, 0, 55, 100
2, 40860, Note_on_c, 0, 70, 0
2, 40860, Note_on_c, 0, 63, 100
2, 40920, Note_on_c, 0, 63, 0
2, 40920, Note_on_c, 0, 55, 0
2, 40920, Note_on_c, 0, 62, 100
2, 40920, Note_on_c, 0, 53, 100
2, 40980, Note_on_c, 0, 62, 0
2, 40980, Note_on_c, 0, 63, 100
2, 41040, Note_on_c, 0, 63, 0
2, 41040, Note_on_c, 0, 53, 0
2, 41040, Note_on_c, 0, 73, 100
2, 41040, Note_on_c, 0, 55, 100
2, 41100, Note_on_c, 0, 73, 0
2, 41100, Note_on_c, 0, 65, 100
2, 41112, Note_on_c, 0, 63, 100
2, 41115, Note_on_c, 0, 65, 0
2, 41127, Note_on_c, 0, 55, 0
2, 41132, Note_on_c, 0, 65, 100
2, 41139, Note_on_c, 0, 63, 0
2, 41144, Note_on_c, 0, 63, 100
2, 41159, Note_on_c, 0, 65, 0
2, 41160, Note_on_c, 0, 51, 100
2, 41160, Note_on_c, 0, 62, 100
2, 41171, Note_on_c, 0, 63, 0
2, 41220, Note_on_c, 0, 62, 0
2, 41220, Note_on_c, 0, 63, 100
2, 41231, Note_on_c, 0, 51, 0
2, 41280, Note_on_c, 0, 63, 0
2, 41280, Note_on_c, 0, 72, 100
2, 41280, Note_on_c, 0, 56, 100
2, 41340, Note_on_c, 0, 56, 0
2, 41340, Note_on_c, 0, 60, 100
2, 41351, Note_on_c, 0, 72, 0
2, 41400, Note_on_c, 0, 60, 0
2, 41400, Note_on_c, 0, 68, 100
2, 41400, Note_on_c, 0, 61, 100
2, 41460, Note_on_c, 0, 61, 0
2, 41460, Note_on_c, 0, 60, 100
2, 41463, Note_on_c, 0, 68, 0
2, 41520, Note_on_c, 0, 60, 0
2, 41520, Note_on_c, 0, 67, 100
2, 41520, Note_on_c, 0, 49, 100
2, 41540, Note_on_c, 0, 67, 0
2, 41540, Note_on_c, 0, 65, 100
2, 41552, Note_on_c, 0, 67, 100
2, 41560, Note_on_c, 0, 65, 0
2, 41568, Note_on_c, 0, 65, 100
2, 41572, Note_on_c, 0, 67, 0
2, 41580, Note_on_c, 0, 49, 0
2, 41580, Note_on_c, 0, 60, 100
2, 41588, Note_on_c, 0, 65, 0
2, 41592, Note_on_c, 0, 64, 100
2, 41640, Note_on_c, 0, 60, 0
2, 41640, Note_on_c, 0, 65, 100
2, 41640, Note_on_c, 0, 61, 100
2, 41652, Note_on_c, 0, 64, 0
2, 41700, Note_on_c, 0, 61, 0
2, 41700, Note_on_c, 0, 60, 100
2, 41727, Note_on_c, 0, 65, 0
2, 41760, Note_on_c, 0, 60, 0
2, 41760, Note_on_c, 0, 70, 100
2, 41760, Note_on_c, 0, 55, 100
2, 41820, Note_on_c, 0, 55, 0
2, 41820, Note_on_c, 0, 58, 100
2, 41831, Note_on_c, 0, 70, 0
2, 41880, Note_on_c, 0, 58, 0
2, 41880, Note_on_c, 0, 67, 100
2, 41880, Note_on_c, 0, 60, 100
2, 41940, Note_on_c, 0, 60, 0
2, 41940, Note_on_c, 0, 58, 100
2, 41943, Note_on_c, 0, 67, 0
2, 42000, Note_on_c, 0, 58, 0
2, 42000, Note_on_c, 0, 65, 100
2, 42000, Note_on_c, 0, 48, 100
2, 42020, Note_on_c, 0, 65, 0
2, 42020, Note_on_c, 0, 64, 100
2, 42032, Note_on_c, 0, 65, 100
2, 42040, Note_on_c, 0, 64, 0
2, 42052, Note_on_c, 0, 65, 0
2, 42056, Note_on_c, 0, 64, 100
2, 42060, Note_on_c, 0, 48, 0
2, 42060, Note_on_c, 0, 58, 100
2, 42072, Note_on_c, 0, 62, 100
2, 42076, Note_on_c, 0, 64, 0
2, 42120, Note_on_c, 0, 58, 0
2, 42120, Note_on_c, 0, 64, 100
2, 42120, Note_on_c, 0, 60, 100
2, 42132, Note_on_c, 0, 62, 0
2, 42180, Note_on_c, 0, 60, 0
2, 42180, Note_on_c, 0, 58, 100
2, 42215, Note_on_c, 0, 64, 0
2, 42240, Note_on_c, 0, 58, 0
2, 42240, Note_on_c, 0, 68, 100
2, 42240, Note_on_c, 0, 53, 100
2, 42300, Note_on_c, 0, 68, 0
2, 42300, Note_on_c, 0, 72, 100
2, 42327, Note_on_c, 0, 53, 0
2, 42360, Note_on_c, 0, 72, 0
2, 42360, Note_on_c, 0, 71, 100
2, 42360, Note_on_c, 0, 56, 100
2, 42420, Note_on_c, 0, 71, 0
2, 42420, Note_on_c, 0, 72, 100
2, 42431, Note_on_c, 0, 56, 0
2, 42480, Note_on_c, 0, 72, 0
2, 42480, Note_on_c, 0, 75, 100
2, 42480, Note_on_c, 0, 53, 100
2, 42496, Note_on_c, 0, 73, 100
2, 42511, Note_on_c, 0, 75, 0
2, 42512, Note_on_c, 0, 75, 100
2, 42524, Note_on_c, 0, 73, 100
2, 42527, Note_on_c, 0, 73, 0
2, 42540, Note_on_c, 0, 72, 100
2, 42543, Note_on_c, 0, 75, 0
2, 42551, Note_on_c, 0, 53, 0
2, 42555, Note_on_c, 0, 73, 0
2, 42600, Note_on_c, 0, 72, 0
2, 42600, Note_on_c, 0, 71, 100
2, 42600, Note_on_c, 0, 61, 100
2, 42660, Note_on_c, 0, 71, 0
2, 42660, Note_on_c, 0, 72, 100
2, 42671, Note_on_c, 0, 61, 0
2, 42720, Note_on_c, 0, 72, 0
2, 42720, Note_on_c, 0, 67, 100
2, 42720, Note_on_c, 0, 52, 100
2, 42780, Note_on_c, 0, 67, 0
2, 42780, Note_on_c, 0, 72, 100
2, 42815, Note_on_c, 0, 52, 0
2, 42840, Note_on_c, 0, 72, 0
2, 42840, Note_on_c, 0, 71, 100
2, 42840, Note_on_c, 0, 55, 100
2, 42900, Note_on_c, 0, 71, 0
2, 42900, Note_on_c, 0, 72, 100
2, 42927, Note_on_c, 0, 55, 0
2, 42960, Note_on_c, 0, 72, 0
2, 42960, Note_on_c, 0, 73, 100
2, 42960, Note_on_c, 0, 51, 100
2, 43020, Note_on_c, 0, 73, 0
2, 43020, Note_on_c, 0, 73, 100
2, 43032, Note_on_c, 0, 72, 100
2, 43047, Note_on_c, 0, 51, 0
2, 43051, Note_on_c, 0, 73, 0
2, 43052, Note_on_c, 0, 73, 100
2, 43060, Note_on_c, 0, 72, 100
2, 43063, Note_on_c, 0, 72, 0
2, 43080, Note_on_c, 0, 60, 100
2, 43080, Note_on_c, 0, 71, 100
2, 43083, Note_on_c, 0, 73, 0
2, 43091, Note_on_c, 0, 72, 0
2, 43140, Note_on_c, 0, 71, 0
2, 43140, Note_on_c, 0, 72, 100
2, 43151, Note_on_c, 0, 60, 0
2, 43200, Note_on_c, 0, 72, 0
2, 43200, Note_on_c, 0, 65, 100
2, 43200, Note_on_c, 0, 50, 100
2, 43260, Note_on_c, 0, 65, 0
2, 43260, Note_on_c, 0, 72, 100
2, 43320, Note_on_c, 0, 72, 0
2, 43320, Note_on_c, 0, 50, 0
2, 43320, Note_on_c, 0, 74, 100
2, 43320, Note_on_c, 0, 53, 100
2, 43380, Note_on_c, 0, 74, 0
2, 43380, Note_on_c, 0, 76, 100
2, 43407, Note_on_c, 0, 53, 0
2, 43440, Note_on_c, 0, 76, 0
2, 43440, Note_on_c, 0, 77, 100
2, 43440, Note_on_c, 0, 49, 100
2, 43500, Note_on_c, 0, 77, 0
2, 43500, Note_on_c, 0, 70, 100
2, 43516, Note_on_c, 0, 72, 100
2, 43527, Note_on_c, 0, 49, 0
2, 43539, Note_on_c, 0, 70, 0
2, 43540, Note_on_c, 0, 70, 100
2, 43559, Note_on_c, 0, 72, 0
2, 43560, Note_on_c, 0, 58, 100
2, 43564, Note_on_c, 0, 72, 100
2, 43583, Note_on_c, 0, 70, 0
2, 43588, Note_on_c, 0, 70, 100
2, 43603, Note_on_c, 0, 72, 0
2, 43612, Note_on_c, 0, 69, 100
2, 43623, Note_on_c, 0, 70, 0
2, 43636, Note_on_c, 0, 70, 100
2, 43647, Note_on_c, 0, 58, 0
2, 43651, Note_on_c, 0, 69, 0
2, 43675, Note_on_c, 0, 70, 0
2, 43680, Note_on_c, 0, 79, 100
2, 43680, Note_on_c, 0, 48, 100
2, 43740, Note_on_c, 0, 79, 0
2, 43740, Note_on_c, 0, 77, 100
2, 43800, Note_on_c, 0, 77, 0
2, 43800, Note_on_c, 0, 48, 0
2, 43800, Note_on_c, 0, 76, 100
2, 43800, Note_on_c, 0, 50, 100
2, 43860, Note_on_c, 0, 76, 0
2, 43860, Note_on_c, 0, 74, 100
2, 43920, Note_on_c, 0, 74, 0
2, 43920, Note_on_c, 0, 50, 0
2, 43920, Note_on_c, 0, 72, 100
2, 43920, Note_on_c, 0, 52, 100
2, 43980, Note_on_c, 0, 72, 0
2, 43980, Note_on_c, 0, 70, 100
2, 44007, Note_on_c, 0, 52, 0
2, 44040, Note_on_c, 0, 70, 0
2, 44040, Note_on_c, 0, 68, 100
2, 44040, Note_on_c, 0, 48, 100
2, 44100, Note_on_c, 0, 68, 0
2, 44100, Note_on_c, 0, 67, 100
2, 44127, Note_on_c, 0, 48, 0
2, 44160, Note_on_c, 0, 67, 0
2, 44160, Note_on_c, 0, 68, 100
2, 44160, Note_on_c, 0, 53, 100
2, 44220, Note_on_c, 0, 53, 0
2, 44220, Note_on_c, 0, 68, 0
2, 44220, Note_on_c, 0, 65, 100
2, 44220, Note_on_c, 0, 56, 100
2, 44280, Note_on_c, 0, 56, 0
2, 44280, Note_on_c, 0, 65, 0
2, 44280, Note_on_c, 0, 64, 100
2, 44280, Note_on_c, 0, 55, 100
2, 44340, Note_on_c, 0, 55, 0
2, 44340, Note_on_c, 0, 64, 0
2, 44340, Note_on_c, 0, 65, 100
2, 44340, Note_on_c, 0, 56, 100
2, 44400, Note_on_c, 0, 56, 0
2, 44400, Note_on_c, 0, 65, 0
2, 44400, Note_on_c, 0, 72, 100
2, 44400, Note_on_c, 0, 51, 100
2, 44460, Note_on_c, 0, 51, 0
2, 44460, Note_on_c, 0, 72, 0
2, 44460, Note_on_c, 0, 68, 100
2, 44460, Note_on_c, 0, 60, 100
2, 44520, Note_on_c, 0, 60, 0
2, 44520, Note_on_c, 0, 68, 0
2, 44520, Note_on_c, 0, 67, 100
2, 44520, Note_on_c, 0, 58, 100
2, 44580, Note_on_c, 0, 58, 0
2, 44580, Note_on_c, 0, 67, 0
2, 44580, Note_on_c, 0, 68, 100
2, 44580, Note_on_c, 0, 60, 100
2, 44640, Note_on_c, 0, 60, 0
2, 44640, Note_on_c, 0, 68, 0
2, 44640, Note_on_c, 0, 79, 100
2, 44640, Note_on_c, 0, 49, 100
2, 44656, Note_on_c, 0, 77, 100
2, 44671, Note_on_c, 0, 77, 0
2, 44675, Note_on_c, 0, 79, 0
2, 44676, Note_on_c, 0, 79, 100
2, 44688, Note_on_c, 0, 77, 100
2, 44700, Note_on_c, 0, 75, 100
2, 44711, Note_on_c, 0, 79, 0
2, 44723, Note_on_c, 0, 77, 0
2, 44727, Note_on_c, 0, 49, 0
2, 44760, Note_on_c, 0, 75, 0
2, 44760, Note_on_c, 0, 73, 100
2, 44760, Note_on_c, 0, 53, 100
2, 44820, Note_on_c, 0, 73, 0
2, 44820, Note_on_c, 0, 72, 100
2, 44839, Note_on_c, 0, 53, 0
2, 44880, Note_on_c, 0, 72, 0
2, 44880, Note_on_c, 0, 70, 100
2, 44880, Note_on_c, 0, 58, 100
2, 44940, Note_on_c, 0, 70, 0
2, 44940, Note_on_c, 0, 68, 100
2, 44959, Note_on_c, 0, 58, 0
2, 45000, Note_on_c, 0, 68, 0
2, 45000, Note_on_c, 0, 61, 100
2, 45000, Note_on_c, 0, 67, 100
2, 45060, Note_on_c, 0, 67, 0
2, 45060, Note_on_c, 0, 65, 100
2, 45071, Note_on_c, 0, 61, 0
2, 45120, Note_on_c, 0, 65, 0
2, 45120, Note_on_c, 0, 67, 100
2, 45120, Note_on_c, 0, 51, 100
2, 45180, Note_on_c, 0, 51, 0
2, 45180, Note_on_c, 0, 67, 0
2, 45180, Note_on_c, 0, 63, 100
2, 45180, Note_on_c, 0, 55, 100
2, 45240, Note_on_c, 0, 55, 0
2, 45240, Note_on_c, 0, 63, 0
2, 45240, Note_on_c, 0, 62, 100
2, 45240, Note_on_c, 0, 53, 100
2, 45300, Note_on_c, 0, 53, 0
2, 45300, Note_on_c, 0, 62, 0
2, 45300, Note_on_c, 0, 63, 100
2, 45300, Note_on_c, 0, 55, 100
2, 45360, Note_on_c, 0, 55, 0
2, 45360, Note_on_c, 0, 63, 0
2, 45360, Note_on_c, 0, 70, 100
2, 45360, Note_on_c, 0, 49, 100
2, 45420, Note_on_c, 0, 49, 0
2, 45420, Note_on_c, 0, 70, 0
2, 45420, Note_on_c, 0, 67, 100
2, 45420, Note_on_c, 0, 58, 100
2, 45480, Note_on_c, 0, 58, 0
2, 45480, Note_on_c, 0, 67, 0
2, 45480, Note_on_c, 0, 65, 100
2, 45480, Note_on_c, 0, 56, 100
2, 45540, Note_on_c, 0, 56, 0
2, 45540, Note_on_c, 0, 65, 0
2, 45540, Note_on_c, 0, 67, 100
2, 45540, Note_on_c, 0, 58, 100
2, 45600, Note_on_c, 0, 58, 0
2, 45600, Note_on_c, 0, 67, 0
2, 45600, Note_on_c, 0, 75, 100
2, 45600, Note_on_c, 0, 48, 100
2, 45620, Note_on_c, 0, 73, 100
2, 45635, Note_on_c, 0, 75, 0
2, 45636, Note_on_c, 0, 75, 100
2, 45655, Note_on_c, 0, 73, 0
2, 45660, Note_on_c, 0, 73, 100
2, 45671, Note_on_c, 0, 75, 0
2, 45679, Note_on_c, 0, 48, 0
2, 45720, Note_on_c, 0, 73, 0
2, 45720, Note_on_c, 0, 72, 100
2, 45720, Note_on_c, 0, 51, 100
2, 45780, Note_on_c, 0, 72, 0
2, 45780, Note_on_c, 0, 70, 100
2, 45807, Note_on_c, 0, 51, 0
2, 45840, Note_on_c, 0, 70, 0
2, 45840, Note_on_c, 0, 68, 100
2, 45840, Note_on_c, 0, 56, 100
2, 45900, Note_on_c, 0, 68, 0
2, 45900, Note_on_c, 0, 67, 100
2, 45927, Note_on_c, 0, 56, 0
2, 45960, Note_on_c, 0, 67, 0
2, 45960, Note_on_c, 0, 60, 100
2, 45960, Note_on_c, 0, 65, 100
2, 46020, Note_on_c, 0, 65, 0
2, 46020, Note_on_c, 0, 64, 100
2, 46047, Note_on_c, 0, 60, 0
2, 46080, Note_on_c, 0, 64, 0
2, 46080, Note_on_c, 0, 65, 100
2, 46080, Note_on_c, 0, 49, 100
2, 46140, Note_on_c, 0, 49, 0
2, 46140, Note_on_c, 0, 53, 100
2, 46167, Note_on_c, 0, 65, 0
2, 46200, Note_on_c, 0, 53, 0
2, 46200, Note_on_c, 0, 69, 100
2, 46200, Note_on_c, 0, 51, 100
2, 46260, Note_on_c, 0, 51, 0
2, 46260, Note_on_c, 0, 53, 100
2, 46320, Note_on_c, 0, 53, 0
2, 46320, Note_on_c, 0, 69, 0
2, 46320, Note_on_c, 0, 70, 100
2, 46320, Note_on_c, 0, 54, 100
2, 46336, Note_on_c, 0, 69, 100
2, 46343, Note_on_c, 0, 70, 0
2, 46356, Note_on_c, 0, 70, 100
2, 46359, Note_on_c, 0, 69, 0
2, 46380, Note_on_c, 0, 54, 0
2, 46380, Note_on_c, 0, 53, 100
2, 46440, Note_on_c, 0, 53, 0
2, 46440, Note_on_c, 0, 72, 100
2, 46440, Note_on_c, 0, 51, 100
2, 46443, Note_on_c, 0, 70, 0
2, 46500, Note_on_c, 0, 51, 0
2, 46500, Note_on_c, 0, 53, 100
2, 46560, Note_on_c, 0, 53, 0
2, 46560, Note_on_c, 0, 72, 0
2, 46560, Note_on_c, 0, 73, 100
2, 46560, Note_on_c, 0, 46, 100
2, 46620, Note_on_c, 0, 46, 0
2, 46620, Note_on_c, 0, 53, 100
2, 46680, Note_on_c, 0, 53, 0
2, 46680, Note_on_c, 0, 73, 0
2, 46680, Note_on_c, 0, 76, 100
2, 46680, Note_on_c, 0, 55, 100
2, 46740, Note_on_c, 0, 55, 0
2, 46740, Note_on_c, 0, 56, 100
2, 46800, Note_on_c, 0, 56, 0
2, 46800, Note_on_c, 0, 76, 0
2, 46800, Note_on_c, 0, 77, 100
2, 46800, Note_on_c, 0, 55, 100
2, 46860, Note_on_c, 0, 55, 0
2, 46860, Note_on_c, 0, 53, 100
2, 46920, Note_on_c, 0, 53, 0
2, 46920, Note_on_c, 0, 77, 0
2, 46920, Note_on_c, 0, 79, 100
2, 46920, Note_on_c, 0, 52, 100
2, 46936, Note_on_c, 0, 77, 100
2, 46939, Note_on_c, 0, 79, 0
2, 46955, Note_on_c, 0, 77, 0
2, 46956, Note_on_c, 0, 79, 100
2, 46972, Note_on_c, 0, 77, 100
2, 46975, Note_on_c, 0, 79, 0
2, 46980, Note_on_c, 0, 52, 0
2, 46980, Note_on_c, 0, 53, 100
2, 46991, Note_on_c, 0, 77, 0
2, 46992, Note_on_c, 0, 79, 100
2, 47040, Note_on_c, 0, 53, 0
2, 47040, Note_on_c, 0, 72, 100
2, 47040, Note_on_c, 0, 44, 100
2, 47047, Note_on_c, 0, 79, 0
2, 47100, Note_on_c, 0, 72, 0
2, 47100, Note_on_c, 0, 76, 100
2, 47119, Note_on_c, 0, 44, 0
2, 47160, Note_on_c, 0, 76, 0
2, 47160, Note_on_c, 0, 77, 100
2, 47160, Note_on_c, 0, 41, 100
2, 47184, Note_on_c, 0, 79, 100
2, 47203, Note_on_c, 0, 77, 0
2, 47220, Note_on_c, 0, 80, 100
2, 47227, Note_on_c, 0, 79, 0
2, 47231, Note_on_c, 0, 41, 0
2, 47280, Note_on_c, 0, 80, 0
2, 47280, Note_on_c, 0, 70, 100
2, 47280, Note_on_c, 0, 48, 100
2, 47340, Note_on_c, 0, 70, 0
2, 47340, Note_on_c, 0, 79, 100
2, 47351, Note_on_c, 0, 48, 0
2, 47400, Note_on_c, 0, 79, 0
2, 47400, Note_on_c, 0, 79, 100
2, 47400, Note_on_c, 0, 36, 100
2, 47415, Note_on_c, 0, 79, 0
2, 47416, Note_on_c, 0, 77, 100
2, 47431, Note_on_c, 0, 77, 0
2, 47432, Note_on_c, 0, 79, 100
2, 47444, Note_on_c, 0, 77, 100
2, 47447, Note_on_c, 0, 79, 0
2, 47459, Note_on_c, 0, 77, 0
2, 47460, Note_on_c, 0, 76, 100
2, 47471, Note_on_c, 0, 36, 0
2, 47520, Note_on_c, 0, 76, 0
2, 47520, Note_on_c, 0, 68, 100
2, 47520, Note_on_c, 0, 41, 100
2, 47552, Note_on_c, 0, 70, 100
2, 47580, Note_on_c, 0, 68, 0
2, 47580, Note_on_c, 0, 72, 100
2, 47595, Note_on_c, 0, 70, 0
2, 47599, Note_on_c, 0, 41, 0
2, 47612, Note_on_c, 0, 74, 100
2, 47623, Note_on_c, 0, 72, 0
2, 47640, Note_on_c, 0, 76, 100
2, 47640, Note_on_c, 0, 44, 100
2, 47655, Note_on_c, 0, 74, 0
2, 47700, Note_on_c, 0, 76, 0
2, 47700, Note_on_c, 0, 77, 100
2, 47760, Note_on_c, 0, 77, 0
2, 47760, Note_on_c, 0, 44, 0
2, 47760, Note_on_c, 0, 67, 100
2, 47760, Note_on_c, 0, 46, 100
2, 47820, Note_on_c, 0, 67, 0
2, 47820, Note_on_c, 0, 73, 100
2, 47880, Note_on_c, 0, 73, 0
2, 47880, Note_on_c, 0, 46, 0
2, 47880, Note_on_c, 0, 72, 100
2, 47880, Note_on_c, 0, 48, 100
2, 47896, Note_on_c, 0, 73, 100
2, 47911, Note_on_c, 0, 72, 0
2, 47916, Note_on_c, 0, 72, 100
2, 47927, Note_on_c, 0, 73, 0
2, 47940, Note_on_c, 0, 70, 100
2, 47947, Note_on_c, 0, 72, 0
2, 47956, Note_on_c, 0, 72, 100
2, 47963, Note_on_c, 0, 70, 0
2, 47967, Note_on_c, 0, 48, 0
2, 47972, Note_on_c, 0, 70, 100
2, 47979, Note_on_c, 0, 72, 0
2, 47995, Note_on_c, 0, 70, 0
2, 48000, Note_on_c, 0, 68, 100
2, 48000, Note_on_c, 0, 53, 100
2, 48060, Note_on_c, 0, 68, 0
2, 48060, Note_on_c, 0, 68, 100
2, 48071, Note_on_c, 0, 68, 0
2, 48076, Note_on_c, 0, 67, 100
2, 48087, Note_on_c, 0, 67, 0
2, 48092, Note_on_c, 0, 68, 100
2, 48103, Note_on_c, 0, 68, 0
2, 48104, Note_on_c, 0, 67, 100
2, 48115, Note_on_c, 0, 67, 0
2, 48120, Note_on_c, 0, 53, 0
2, 48120, Note_on_c, 0, 65, 100
2, 48120, Note_on_c, 0, 55, 100
2, 48180, Note_on_c, 0, 65, 0
2, 48180, Note_on_c, 0, 64, 100
2, 48240, Note_on_c, 0, 64, 0
2, 48240, Note_on_c, 0, 55, 0
2, 48240, Note_on_c, 0, 65, 100
2, 48240, Note_on_c, 0, 56, 100
2, 48300, Note_on_c, 0, 65, 0
2, 48300, Note_on_c, 0, 68, 100
2, 48327, Note_on_c, 0, 56, 0
2, 48360, Note_on_c, 0, 68, 0
2, 48360, Note_on_c, 0, 60, 100
2, 48360, Note_on_c, 0, 53, 100
2, 48420, Note_on_c, 0, 60, 0
2, 48420, Note_on_c, 0, 63, 100
2, 48431, Note_on_c, 0, 53, 0
2, 48480, Note_on_c, 0, 63, 0
2, 48480, Note_on_c, 0, 62, 100
2, 48480, Note_on_c, 0, 58, 100
2, 48540, Note_on_c, 0, 62, 0
2, 48540, Note_on_c, 0, 68, 100
2, 48559, Note_on_c, 0, 58, 0
2, 48600, Note_on_c, 0, 68, 0
2, 48600, Note_on_c, 0, 65, 100
2, 48600, Note_on_c, 0, 46, 100
2, 48660, Note_on_c, 0, 65, 0
2, 48660, Note_on_c, 0, 62, 100
2, 48687, Note_on_c, 0, 46, 0
2, 48720, Note_on_c, 0, 62, 0
2, 48720, Note_on_c, 0, 58, 100
2, 48780, Note_on_c, 0, 58, 0
2, 48780, Note_on_c, 0, 56, 100
2, 48840, Note_on_c, 0, 56, 0
2, 48840, Note_on_c, 0, 55, 100
2, 48900, Note_on_c, 0, 55, 0
2, 48900, Note_on_c, 0, 53, 100
2, 48960, Note_on_c, 0, 53, 0
2, 48960, Note_on_c, 0, 67, 100
2, 48960, Note_on_c, 0, 51, 100
2, 48975, Note_on_c, 0, 67, 0
2, 48976, Note_on_c, 0, 65, 100
2, 48991, Note_on_c, 0, 65, 0
2, 48992, Note_on_c, 0, 67, 100
2, 49007, Note_on_c, 0, 67, 0
2, 49020, Note_on_c, 0, 65, 100
2, 49080, Note_on_c, 0, 65, 0
2, 49080, Note_on_c, 0, 51, 0
2, 49080, Note_on_c, 0, 63, 100
2, 49080, Note_on_c, 0, 53, 100
2, 49140, Note_on_c, 0, 63, 0
2, 49140, Note_on_c, 0, 62, 100
2, 49200, Note_on_c, 0, 62, 0
2, 49200, Note_on_c, 0, 53, 0
2, 49200, Note_on_c, 0, 63, 100
2, 49200, Note_on_c, 0, 55, 100
2, 49260, Note_on_c, 0, 63, 0
2, 49260, Note_on_c, 0, 67, 100
2, 49279, Note_on_c, 0, 55, 0
2, 49320, Note_on_c, 0, 67, 0
2, 49320, Note_on_c, 0, 59, 100
2, 49320, Note_on_c, 0, 51, 100
2, 49380, Note_on_c, 0, 59, 0
2, 49380, Note_on_c, 0, 62, 100
2, 49399, Note_on_c, 0, 51, 0
2, 49440, Note_on_c, 0, 62, 0
2, 49440, Note_on_c, 0, 60, 100
2, 49440, Note_on_c, 0, 56, 100
2, 49500, Note_on_c, 0, 60, 0
2, 49500, Note_on_c, 0, 67, 100
2, 49511, Note_on_c, 0, 56, 0
2, 49560, Note_on_c, 0, 67, 0
2, 49560, Note_on_c, 0, 63, 100
2, 49560, Note_on_c, 0, 44, 100
2, 49620, Note_on_c, 0, 63, 0
2, 49620, Note_on_c, 0, 60, 100
2, 49631, Note_on_c, 0, 44, 0
2, 49680, Note_on_c, 0, 60, 0
2, 49680, Note_on_c, 0, 56, 100
2, 49740, Note_on_c, 0, 56, 0
2, 49740, Note_on_c, 0, 55, 100
2, 49800, Note_on_c, 0, 55, 0
2, 49800, Note_on_c, 0, 53, 100
2, 49860, Note_on_c, 0, 53, 0
2, 49860, Note_on_c, 0, 51, 100
2, 49920, Note_on_c, 0, 51, 0
2, 49920, Note_on_c, 0, 65, 100
2, 49920, Note_on_c, 0, 50, 100
2, 49980, Note_on_c, 0, 65, 0
2, 49980, Note_on_c, 0, 63, 100
2, 50040, Note_on_c, 0, 63, 0
2, 50040, Note_on_c, 0, 50, 0
2, 50040, Note_on_c, 0, 62, 100
2, 50040, Note_on_c, 0, 51, 100
2, 50100, Note_on_c, 0, 62, 0
2, 50100, Note_on_c, 0, 60, 100
2, 50160, Note_on_c, 0, 60, 0
2, 50160, Note_on_c, 0, 51, 0
2, 50160, Note_on_c, 0, 62, 100
2, 50160, Note_on_c, 0, 53, 100
2, 50192, Note_on_c, 0, 63, 100
2, 50203, Note_on_c, 0, 62, 0
2, 50220, Note_on_c, 0, 65, 100
2, 50231, Note_on_c, 0, 63, 0
2, 50247, Note_on_c, 0, 53, 0
2, 50252, Note_on_c, 0, 67, 100
2, 50259, Note_on_c, 0, 65, 0
2, 50280, Note_on_c, 0, 68, 100
2, 50280, Note_on_c, 0, 50, 100
2, 50291, Note_on_c, 0, 67, 0
2, 50296, Note_on_c, 0, 67, 100
2, 50315, Note_on_c, 0, 68, 0
2, 50316, Note_on_c, 0, 68, 100
2, 50335, Note_on_c, 0, 67, 0
2, 50340, Note_on_c, 0, 60, 100
2, 50355, Note_on_c, 0, 68, 0
2, 50359, Note_on_c, 0, 50, 0
2, 50400, Note_on_c, 0, 60, 0
2, 50400, Note_on_c, 0, 59, 100
2, 50400, Note_on_c, 0, 55, 100
2, 50460, Note_on_c, 0, 59, 0
2, 50460, Note_on_c, 0, 65, 100
2, 50471, Note_on_c, 0, 55, 0
2, 50520, Note_on_c, 0, 65, 0
2, 50520, Note_on_c, 0, 62, 100
2, 50520, Note_on_c, 0, 43, 100
2, 50580, Note_on_c, 0, 62, 0
2, 50580, Note_on_c, 0, 59, 100
2, 50591, Note_on_c, 0, 43, 0
2, 50640, Note_on_c, 0, 59, 0
2, 50640, Note_on_c, 0, 55, 100
2, 50700, Note_on_c, 0, 55, 0
2, 50700, Note_on_c, 0, 59, 100
2, 50700, Note_on_c, 0, 53, 100
2, 50760, Note_on_c, 0, 53, 0
2, 50760, Note_on_c, 0, 59, 0
2, 50760, Note_on_c, 0, 60, 100
2, 50760, Note_on_c, 0, 51, 100
2, 50820, Note_on_c, 0, 51, 0
2, 50820, Note_on_c, 0, 60, 0
2, 50820, Note_on_c, 0, 50, 100
2, 50820, Note_on_c, 0, 62, 100
2, 50880, Note_on_c, 0, 62, 0
2, 50880, Note_on_c, 0, 50, 0
2, 50880, Note_on_c, 0, 63, 100
2, 50880, Note_on_c, 0, 48, 100
2, 50940, Note_on_c, 0, 48, 0
2, 50940, Note_on_c, 0, 50, 100
2, 51000, Note_on_c, 0, 50, 0
2, 51000, Note_on_c, 0, 67, 100
2, 51000, Note_on_c, 0, 51, 100
2, 51060, Note_on_c, 0, 51, 0
2, 51060, Note_on_c, 0, 48, 100
2, 51063, Note_on_c, 0, 67, 0
2, 51120, Note_on_c, 0, 48, 0
2, 51120, Note_on_c, 0, 72, 100
2, 51120, Note_on_c, 0, 44, 100
2, 51140, Note_on_c, 0, 71, 100
2, 51163, Note_on_c, 0, 72, 0
2, 51164, Note_on_c, 0, 72, 100
2, 51180, Note_on_c, 0, 63, 0
2, 51180, Note_on_c, 0, 44, 0
2, 51180, Note_on_c, 0, 70, 100
2, 51180, Note_on_c, 0, 55, 100
2, 51183, Note_on_c, 0, 71, 0
2, 51240, Note_on_c, 0, 55, 0
2, 51240, Note_on_c, 0, 70, 0
2, 51240, Note_on_c, 0, 68, 100
2, 51240, Note_on_c, 0, 53, 100
2, 51300, Note_on_c, 0, 53, 0
2, 51300, Note_on_c, 0, 68, 0
2, 51300, Note_on_c, 0, 67, 100
2, 51300, Note_on_c, 0, 51, 100
2, 51360, Note_on_c, 0, 51, 0
2, 51360, Note_on_c, 0, 67, 0
2, 51360, Note_on_c, 0, 65, 100
2, 51360, Note_on_c, 0, 50, 100
2, 51420, Note_on_c, 0, 50, 0
2, 51420, Note_on_c, 0, 65, 0
2, 51420, Note_on_c, 0, 67, 100
2, 51420, Note_on_c, 0, 51, 100
2, 51480, Note_on_c, 0, 51, 0
2, 51480, Note_on_c, 0, 67, 0
2, 51480, Note_on_c, 0, 68, 100
2, 51480, Note_on_c, 0, 53, 100
2, 51540, Note_on_c, 0, 53, 0
2, 51540, Note_on_c, 0, 68, 0
2, 51540, Note_on_c, 0, 65, 100
2, 51540, Note_on_c, 0, 50, 100
2, 51600, Note_on_c, 0, 50, 0
2, 51600, Note_on_c, 0, 65, 0
2, 51600, Note_on_c, 0, 62, 100
2, 51600, Note_on_c, 0, 46, 100
2, 51655, Note_on_c, 0, 72, 0
2, 51660, Note_on_c, 0, 46, 0
2, 51660, Note_on_c, 0, 72, 100
2, 51660, Note_on_c, 0, 56, 100
2, 51720, Note_on_c, 0, 56, 0
2, 51720, Note_on_c, 0, 72, 0
2, 51720, Note_on_c, 0, 72, 100
2, 51720, Note_on_c, 0, 55, 100
2, 51736, Note_on_c, 0, 70, 100
2, 51743, Note_on_c, 0, 72, 0
2, 51752, Note_on_c, 0, 72, 100
2, 51759, Note_on_c, 0, 70, 0
2, 51764, Note_on_c, 0, 70, 100
2, 51775, Note_on_c, 0, 72, 0
2, 51780, Note_on_c, 0, 55, 0
2, 51780, Note_on_c, 0, 68, 100
2, 51780, Note_on_c, 0, 53, 100
2, 51787, Note_on_c, 0, 70, 0
2, 51840, Note_on_c, 0, 62, 0
2, 51840, Note_on_c, 0, 68, 0
2, 51840, Note_on_c, 0, 53, 0
2, 51840, Note_on_c, 0, 67, 100
2, 51840, Note_on_c, 0, 51, 100
2, 51900, Note_on_c, 0, 67, 0
2, 51900, Note_on_c, 0, 68, 100
2, 51960, Note_on_c, 0, 68, 0
2, 51960, Note_on_c, 0, 51, 0
2, 51960, Note_on_c, 0, 70, 100
2, 51960, Note_on_c, 0, 50, 100
2, 52020, Note_on_c, 0, 70, 0
2, 52020, Note_on_c, 0, 67, 100
2, 52080, Note_on_c, 0, 67, 0
2, 52080, Note_on_c, 0, 50, 0
2, 52080, Note_on_c, 0, 60, 100
2, 52080, Note_on_c, 0, 51, 100
2, 52140, Note_on_c, 0, 60, 0
2, 52140, Note_on_c, 0, 73, 100
2, 52200, Note_on_c, 0, 73, 0
2, 52200, Note_on_c, 0, 51, 0
2, 52200, Note_on_c, 0, 72, 100
2, 52200, Note_on_c, 0, 52, 100
2, 52216, Note_on_c, 0, 73, 100
2, 52235, Note_on_c, 0, 72, 0
2, 52236, Note_on_c, 0, 72, 100
2, 52251, Note_on_c, 0, 73, 0
2, 52260, Note_on_c, 0, 70, 100
2, 52271, Note_on_c, 0, 72, 0
2, 52272, Note_on_c, 0, 72, 100
2, 52295, Note_on_c, 0, 70, 0
2, 52296, Note_on_c, 0, 70, 100
2, 52307, Note_on_c, 0, 72, 0
2, 52320, Note_on_c, 0, 52, 0
2, 52320, Note_on_c, 0, 68, 100
2, 52320, Note_on_c, 0, 53, 100
2, 52331, Note_on_c, 0, 70, 0
2, 52380, Note_on_c, 0, 68, 0
2, 52380, Note_on_c, 0, 70, 100
2, 52440, Note_on_c, 0, 70, 0
2, 52440, Note_on_c, 0, 53, 0
2, 52440, Note_on_c, 0, 72, 100
2, 52440, Note_on_c, 0, 52, 100
2, 52500, Note_on_c, 0, 72, 0
2, 52500, Note_on_c, 0, 68, 100
2, 52560, Note_on_c, 0, 68, 0
2, 52560, Note_on_c, 0, 52, 0
2, 52560, Note_on_c, 0, 62, 100
2, 52560, Note_on_c, 0, 53, 100
2, 52620, Note_on_c, 0, 62, 0
2, 52620, Note_on_c, 0, 75, 100
2, 52680, Note_on_c, 0, 75, 0
2, 52680, Note_on_c, 0, 53, 0
2, 52680, Note_on_c, 0, 75, 100
2, 52680, Note_on_c, 0, 54, 100
2, 52696, Note_on_c, 0, 74, 100
2, 52715, Note_on_c, 0, 75, 0
2, 52716, Note_on_c, 0, 75, 100
2, 52728, Note_on_c, 0, 74, 100
2, 52731, Note_on_c, 0, 74, 0
2, 52740, Note_on_c, 0, 72, 100
2, 52751, Note_on_c, 0, 75, 0
2, 52763, Note_on_c, 0, 74, 0
2, 52800, Note_on_c, 0, 54, 0
2, 52800, Note_on_c, 0, 72, 0
2, 52800, Note_on_c, 0, 71, 100
2, 52800, Note_on_c, 0, 55, 100
2, 52860, Note_on_c, 0, 55, 0
2, 52860, Note_on_c, 0, 71, 0
2, 52860, Note_on_c, 0, 67, 100
2, 52860, Note_on_c, 0, 53, 100
2, 52920, Note_on_c, 0, 53, 0
2, 52920, Note_on_c, 0, 67, 0
2, 52920, Note_on_c, 0, 72, 100
2, 52920, Note_on_c, 0, 51, 100
2, 52980, Note_on_c, 0, 51, 0
2, 52980, Note_on_c, 0, 74, 100
2, 52980, Note_on_c, 0, 53, 100
2, 53040, Note_on_c, 0, 53, 0
2, 53040, Note_on_c, 0, 74, 0
2, 53040, Note_on_c, 0, 72, 0
2, 53040, Note_on_c, 0, 75, 100
2, 53040, Note_on_c, 0, 55, 100
2, 53052, Note_on_c, 0, 72, 100
2, 53100, Note_on_c, 0, 67, 100
2, 53111, Note_on_c, 0, 55, 0
2, 53160, Note_on_c, 0, 75, 0
2, 53160, Note_on_c, 0, 74, 100
2, 53160, Note_on_c, 0, 43, 100
2, 53163, Note_on_c, 0, 72, 0
2, 53176, Note_on_c, 0, 71, 100
2, 53220, Note_on_c, 0, 67, 0
2, 53220, Note_on_c, 0, 65, 100
2, 53239, Note_on_c, 0, 43, 0
2, 53280, Note_on_c, 0, 65, 0
2, 53280, Note_on_c, 0, 74, 0
2, 53280, Note_on_c, 0, 72, 100
2, 53280, Note_on_c, 0, 36, 100
2, 53283, Note_on_c, 0, 71, 0
2, 53296, Note_on_c, 0, 67, 100
2, 53312, Note_on_c, 0, 63, 100
2, 53340, Note_on_c, 0, 36, 0
2, 53340, Note_on_c, 0, 48, 100
2, 53400, Note_on_c, 0, 48, 0
2, 53400, Note_on_c, 0, 51, 100
2, 53460, Note_on_c, 0, 51, 0
2, 53460, Note_on_c, 0, 55, 100
2, 53520, Note_on_c, 0, 55, 0
2, 53520, Note_on_c, 0, 60, 100
2, 53759, Note_on_c, 0, 67, 0
2, 53760, Note_on_c, 0, 72, 0
2, 53760, Note_on_c, 0, 60, 0
2, 53767, Note_on_c, 0, 63, 0
2, 53767, End_track
3, 0, Start_track
3, 0, MIDI_port, 0
3, 0, Title_t, "Sequenced and"
3, 0, Program_c, 1, 6
3, 0, Note_on_c, 1, 60, 30
3, 60, Note_on_c, 1, 79, 30
3, 79, Note_on_c, 1, 60, 0
3, 120, Note_on_c, 1, 79, 0
3, 120, Note_on_c, 1, 77, 30
3, 120, Note_on_c, 1, 72, 30
3, 180, Note_on_c, 1, 77, 0
3, 180, Note_on_c, 1, 79, 30
3, 207, Note_on_c, 1, 72, 0
3, 240, Note_on_c, 1, 79, 0
3, 240, Note_on_c, 1, 80, 30
3, 240, Note_on_c, 1, 65, 30
3, 300, Note_on_c, 1, 80, 0
3, 300, Note_on_c, 1, 77, 30
3, 319, Note_on_c, 1, 65, 0
3, 360, Note_on_c, 1, 77, 0
3, 360, Note_on_c, 1, 75, 30
3, 360, Note_on_c, 1, 72, 30
3, 420, Note_on_c, 1, 75, 0
3, 420, Note_on_c, 1, 77, 30
3, 447, Note_on_c, 1, 72, 0
3, 480, Note_on_c, 1, 77, 0
3, 480, Note_on_c, 1, 79, 30
3, 480, Note_on_c, 1, 63, 30
3, 540, Note_on_c, 1, 79, 0
3, 540, Note_on_c, 1, 75, 30
3, 567, Note_on_c, 1, 63, 0
3, 600, Note_on_c, 1, 75, 0
3, 600, Note_on_c, 1, 74, 30
3, 600, Note_on_c, 1, 72, 30
3, 660, Note_on_c, 1, 74, 0
3, 660, Note_on_c, 1, 75, 30
3, 687, Note_on_c, 1, 72, 0
3, 720, Note_on_c, 1, 75, 0
3, 720, Note_on_c, 1, 77, 30
3, 720, Note_on_c, 1, 62, 30
3, 780, Note_on_c, 1, 77, 0
3, 780, Note_on_c, 1, 74, 30
3, 807, Note_on_c, 1, 62, 0
3, 840, Note_on_c, 1, 74, 0
3, 840, Note_on_c, 1, 72, 30
3, 840, Note_on_c, 1, 71, 30
3, 900, Note_on_c, 1, 72, 0
3, 900, Note_on_c, 1, 74, 30
3, 911, Note_on_c, 1, 71, 0
3, 960, Note_on_c, 1, 74, 0
3, 960, Note_on_c, 1, 75, 30
3, 960, Note_on_c, 1, 60, 30
3, 1020, Note_on_c, 1, 60, 0
3, 1020, Note_on_c, 1, 67, 30
3, 1039, Note_on_c, 1, 75, 0
3, 1080, Note_on_c, 1, 67, 0
3, 1080, Note_on_c, 1, 84, 30
3, 1080, Note_on_c, 1, 65, 30
3, 1140, Note_on_c, 1, 65, 0
3, 1140, Note_on_c, 1, 67, 30
3, 1151, Note_on_c, 1, 84, 0
3, 1200, Note_on_c, 1, 67, 0
3, 1200, Note_on_c, 1, 77, 30
3, 1200, Note_on_c, 1, 68, 30
3, 1260, Note_on_c, 1, 68, 0
3, 1260, Note_on_c, 1, 65, 30
3, 1271, Note_on_c, 1, 77, 0
3, 1320, Note_on_c, 1, 65, 0
3, 1320, Note_on_c, 1, 84, 30
3, 1320, Note_on_c, 1, 63, 30
3, 1380, Note_on_c, 1, 63, 0
3, 1380, Note_on_c, 1, 65, 30
3, 1391, Note_on_c, 1, 84, 0
3, 1440, Note_on_c, 1, 65, 0
3, 1440, Note_on_c, 1, 75, 30
3, 1440, Note_on_c, 1, 67, 30
3, 1500, Note_on_c, 1, 67, 0
3, 1500, Note_on_c, 1, 63, 30
3, 1511, Note_on_c, 1, 75, 0
3, 1560, Note_on_c, 1, 63, 0
3, 1560, Note_on_c, 1, 84, 30
3, 1560, Note_on_c, 1, 62, 30
3, 1620, Note_on_c, 1, 62, 0
3, 1620, Note_on_c, 1, 63, 30
3, 1639, Note_on_c, 1, 84, 0
3, 1680, Note_on_c, 1, 63, 0
3, 1680, Note_on_c, 1, 74, 30
3, 1680, Note_on_c, 1, 65, 30
3, 1740, Note_on_c, 1, 65, 0
3, 1740, Note_on_c, 1, 62, 30
3, 1743, Note_on_c, 1, 74, 0
3, 1800, Note_on_c, 1, 62, 0
3, 1800, Note_on_c, 1, 83, 30
3, 1800, Note_on_c, 1, 60, 30
3, 1860, Note_on_c, 1, 60, 0
3, 1860, Note_on_c, 1, 62, 30
3, 1863, Note_on_c, 1, 83, 0
3, 1920, Note_on_c, 1, 62, 0
3, 1920, Note_on_c, 1, 72, 30
3, 1920, Note_on_c, 1, 63, 30
3, 1980, Note_on_c, 1, 72, 0
3, 1980, Note_on_c, 1, 75, 30
3, 1999, Note_on_c, 1, 63, 0
3, 2040, Note_on_c, 1, 75, 0
3, 2040, Note_on_c, 1, 79, 30
3, 2040, Note_on_c, 1, 60, 30
3, 2100, Note_on_c, 1, 79, 0
3, 2100, Note_on_c, 1, 84, 30
3, 2127, Note_on_c, 1, 60, 0
3, 2160, Note_on_c, 1, 84, 0
3, 2160, Note_on_c, 1, 74, 30
3, 2160, Note_on_c, 1, 65, 30
3, 2220, Note_on_c, 1, 74, 0
3, 2220, Note_on_c, 1, 84, 30
3, 2239, Note_on_c, 1, 65, 0
3, 2280, Note_on_c, 1, 84, 0
3, 2280, Note_on_c, 1, 83, 30
3, 2280, Note_on_c, 1, 62, 30
3, 2340, Note_on_c, 1, 83, 0
3, 2340, Note_on_c, 1, 81, 30
3, 2359, Note_on_c, 1, 62, 0
3, 2400, Note_on_c, 1, 81, 0
3, 2400, Note_on_c, 1, 74, 30
3, 2400, Note_on_c, 1, 67, 30
3, 2460, Note_on_c, 1, 74, 0
3, 2460, Note_on_c, 1, 79, 30
3, 2520, Note_on_c, 1, 79, 0
3, 2520, Note_on_c, 1, 67, 0
3, 2520, Note_on_c, 1, 83, 30
3, 2520, Note_on_c, 1, 65, 30
3, 2580, Note_on_c, 1, 83, 0
3, 2580, Note_on_c, 1, 86, 30
3, 2640, Note_on_c, 1, 86, 0
3, 2640, Note_on_c, 1, 65, 0
3, 2640, Note_on_c, 1, 75, 30
3, 2640, Note_on_c, 1, 67, 30
3, 2700, Note_on_c, 1, 75, 0
3, 2700, Note_on_c, 1, 86, 30
3, 2719, Note_on_c, 1, 67, 0
3, 2760, Note_on_c, 1, 86, 0
3, 2760, Note_on_c, 1, 63, 30
3, 2760, Note_on_c, 1, 84, 30
3, 2820, Note_on_c, 1, 84, 0
3, 2820, Note_on_c, 1, 83, 30
3, 2839, Note_on_c, 1, 63, 0
3, 2880, Note_on_c, 1, 83, 0
3, 2880, Note_on_c, 1, 75, 30
3, 2880, Note_on_c, 1, 68, 30
3, 2940, Note_on_c, 1, 75, 0
3, 2940, Note_on_c, 1, 80, 30
3, 3000, Note_on_c, 1, 80, 0
3, 3000, Note_on_c, 1, 68, 0
3, 3000, Note_on_c, 1, 84, 30
3, 3000, Note_on_c, 1, 67, 30
3, 3060, Note_on_c, 1, 84, 0
3, 3060, Note_on_c, 1, 87, 30
3, 3120, Note_on_c, 1, 87, 0
3, 3120, Note_on_c, 1, 67, 0
3, 3120, Note_on_c, 1, 77, 30
3, 3120, Note_on_c, 1, 69, 30
3, 3180, Note_on_c, 1, 77, 0
3, 3180, Note_on_c, 1, 87, 30
3, 3199, Note_on_c, 1, 69, 0
3, 3240, Note_on_c, 1, 87, 0
3, 3240, Note_on_c, 1, 86, 30
3, 3240, Note_on_c, 1, 65, 30
3, 3300, Note_on_c, 1, 86, 0
3, 3300, Note_on_c, 1, 84, 30
3, 3319, Note_on_c, 1, 65, 0
3, 3360, Note_on_c, 1, 84, 0
3, 3360, Note_on_c, 1, 77, 30
3, 3360, Note_on_c, 1, 70, 30
3, 3420, Note_on_c, 1, 77, 0
3, 3420, Note_on_c, 1, 82, 30
3, 3480, Note_on_c, 1, 82, 0
3, 3480, Note_on_c, 1, 70, 0
3, 3480, Note_on_c, 1, 86, 30
3, 3480, Note_on_c, 1, 69, 30
3, 3540, Note_on_c, 1, 86, 0
3, 3540, Note_on_c, 1, 89, 30
3, 3600, Note_on_c, 1, 89, 0
3, 3600, Note_on_c, 1, 69, 0
3, 3600, Note_on_c, 1, 79, 30
3, 3600, Note_on_c, 1, 71, 30
3, 3660, Note_on_c, 1, 79, 0
3, 3660, Note_on_c, 1, 89, 30
3, 3687, Note_on_c, 1, 71, 0
3, 3720, Note_on_c, 1, 89, 0
3, 3720, Note_on_c, 1, 67, 30
3, 3720, Note_on_c, 1, 87, 30
3, 3780, Note_on_c, 1, 87, 0
3, 3780, Note_on_c, 1, 86, 30
3, 3791, Note_on_c, 1, 67, 0
3, 3840, Note_on_c, 1, 86, 0
3, 3840, Note_on_c, 1, 87, 30
3, 3840, Note_on_c, 1, 72, 30
3, 3900, Note_on_c, 1, 72, 0
3, 3900, Note_on_c, 1, 87, 0
3, 3900, Note_on_c, 1, 84, 30
3, 3900, Note_on_c, 1, 80, 30
3, 3960, Note_on_c, 1, 80, 0
3, 3960, Note_on_c, 1, 84, 0
3, 3960, Note_on_c, 1, 82, 30
3, 3960, Note_on_c, 1, 79, 30
3, 4020, Note_on_c, 1, 79, 0
3, 4020, Note_on_c, 1, 82, 0
3, 4020, Note_on_c, 1, 84, 30
3, 4020, Note_on_c, 1, 80, 30
3, 4080, Note_on_c, 1, 80, 0
3, 4080, Note_on_c, 1, 84, 0
3, 4080, Note_on_c, 1, 86, 30
3, 4080, Note_on_c, 1, 70, 30
3, 4140, Note_on_c, 1, 70, 0
3, 4140, Note_on_c, 1, 86, 0
3, 4140, Note_on_c, 1, 82, 30
3, 4140, Note_on_c, 1, 79, 30
3, 4200, Note_on_c, 1, 79, 0
3, 4200, Note_on_c, 1, 82, 0
3, 4200, Note_on_c, 1, 80, 30
3, 4200, Note_on_c, 1, 77, 30
3, 4260, Note_on_c, 1, 77, 0
3, 4260, Note_on_c, 1, 80, 0
3, 4260, Note_on_c, 1, 82, 30
3, 4260, Note_on_c, 1, 79, 30
3, 4320, Note_on_c, 1, 79, 0
3, 4320, Note_on_c, 1, 82, 0
3, 4320, Note_on_c, 1, 84, 30
3, 4320, Note_on_c, 1, 68, 30
3, 4380, Note_on_c, 1, 84, 0
3, 4380, Note_on_c, 1, 82, 30
3, 4440, Note_on_c, 1, 82, 0
3, 4440, Note_on_c, 1, 68, 0
3, 4440, Note_on_c, 1, 80, 30
3, 4500, Note_on_c, 1, 80, 0
3, 4500, Note_on_c, 1, 79, 30
3, 4560, Note_on_c, 1, 79, 0
3, 4560, Note_on_c, 1, 77, 30
3, 4620, Note_on_c, 1, 77, 0
3, 4620, Note_on_c, 1, 75, 30
3, 4680, Note_on_c, 1, 75, 0
3, 4680, Note_on_c, 1, 74, 30
3, 4740, Note_on_c, 1, 74, 0
3, 4740, Note_on_c, 1, 72, 30
3, 4800, Note_on_c, 1, 72, 0
3, 4800, Note_on_c, 1, 86, 30
3, 4800, Note_on_c, 1, 70, 30
3, 4860, Note_on_c, 1, 70, 0
3, 4860, Note_on_c, 1, 86, 0
3, 4860, Note_on_c, 1, 82, 30
3, 4860, Note_on_c, 1, 79, 30
3, 4920, Note_on_c, 1, 79, 0
3, 4920, Note_on_c, 1, 82, 0
3, 4920, Note_on_c, 1, 80, 30
3, 4920, Note_on_c, 1, 77, 30
3, 4980, Note_on_c, 1, 77, 0
3, 4980, Note_on_c, 1, 80, 0
3, 4980, Note_on_c, 1, 82, 30
3, 4980, Note_on_c, 1, 79, 30
3, 5040, Note_on_c, 1, 79, 0
3, 5040, Note_on_c, 1, 82, 0
3, 5040, Note_on_c, 1, 84, 30
3, 5040, Note_on_c, 1, 68, 30
3, 5100, Note_on_c, 1, 68, 0
3, 5100, Note_on_c, 1, 84, 0
3, 5100, Note_on_c, 1, 80, 30
3, 5100, Note_on_c, 1, 77, 30
3, 5160, Note_on_c, 1, 77, 0
3, 5160, Note_on_c, 1, 80, 0
3, 5160, Note_on_c, 1, 79, 30
3, 5160, Note_on_c, 1, 75, 30
3, 5220, Note_on_c, 1, 75, 0
3, 5220, Note_on_c, 1, 79, 0
3, 5220, Note_on_c, 1, 80, 30
3, 5220, Note_on_c, 1, 77, 30
3, 5280, Note_on_c, 1, 77, 0
3, 5280, Note_on_c, 1, 80, 0
3, 5280, Note_on_c, 1, 82, 30
3, 5280, Note_on_c, 1, 67, 30
3, 5340, Note_on_c, 1, 82, 0
3, 5340, Note_on_c, 1, 80, 30
3, 5400, Note_on_c, 1, 80, 0
3, 5400, Note_on_c, 1, 67, 0
3, 5400, Note_on_c, 1, 79, 30
3, 5460, Note_on_c, 1, 79, 0
3, 5460, Note_on_c, 1, 77, 30
3, 5520, Note_on_c, 1, 77, 0
3, 5520, Note_on_c, 1, 75, 30
3, 5580, Note_on_c, 1, 75, 0
3, 5580, Note_on_c, 1, 73, 30
3, 5640, Note_on_c, 1, 73, 0
3, 5640, Note_on_c, 1, 72, 30
3, 5700, Note_on_c, 1, 72, 0
3, 5700, Note_on_c, 1, 70, 30
3, 5760, Note_on_c, 1, 70, 0
3, 5760, Note_on_c, 1, 84, 30
3, 5760, Note_on_c, 1, 68, 30
3, 5820, Note_on_c, 1, 68, 0
3, 5820, Note_on_c, 1, 84, 0
3, 5820, Note_on_c, 1, 80, 30
3, 5820, Note_on_c, 1, 77, 30
3, 5880, Note_on_c, 1, 77, 0
3, 5880, Note_on_c, 1, 80, 0
3, 5880, Note_on_c, 1, 79, 30
3, 5880, Note_on_c, 1, 75, 30
3, 5940, Note_on_c, 1, 75, 0
3, 5940, Note_on_c, 1, 79, 0
3, 5940, Note_on_c, 1, 80, 30
3, 5940, Note_on_c, 1, 77, 30
3, 6000, Note_on_c, 1, 77, 0
3, 6000, Note_on_c, 1, 80, 0
3, 6000, Note_on_c, 1, 82, 30
3, 6000, Note_on_c, 1, 67, 30
3, 6060, Note_on_c, 1, 67, 0
3, 6060, Note_on_c, 1, 82, 0
3, 6060, Note_on_c, 1, 79, 30
3, 6060, Note_on_c, 1, 75, 30
3, 6120, Note_on_c, 1, 75, 0
3, 6120, Note_on_c, 1, 79, 0
3, 6120, Note_on_c, 1, 77, 30
3, 6120, Note_on_c, 1, 74, 30
3, 6180, Note_on_c, 1, 74, 0
3, 6180, Note_on_c, 1, 77, 0
3, 6180, Note_on_c, 1, 79, 30
3, 6180, Note_on_c, 1, 75, 30
3, 6240, Note_on_c, 1, 75, 0
3, 6240, Note_on_c, 1, 79, 0
3, 6240, Note_on_c, 1, 80, 30
3, 6240, Note_on_c, 1, 65, 30
3, 6300, Note_on_c, 1, 65, 0
3, 6300, Note_on_c, 1, 80, 0
3, 6300, Note_on_c, 1, 77, 30
3, 6300, Note_on_c, 1, 74, 30
3, 6360, Note_on_c, 1, 74, 0
3, 6360, Note_on_c, 1, 77, 0
3, 6360, Note_on_c, 1, 75, 30
3, 6360, Note_on_c, 1, 72, 30
3, 6420, Note_on_c, 1, 72, 0
3, 6420, Note_on_c, 1, 75, 0
3, 6420, Note_on_c, 1, 77, 30
3, 6420, Note_on_c, 1, 74, 30
3, 6480, Note_on_c, 1, 74, 0
3, 6480, Note_on_c, 1, 77, 0
3, 6480, Note_on_c, 1, 80, 30
3, 6480, Note_on_c, 1, 63, 30
3, 6504, Note_on_c, 1, 79, 30
3, 6510, Note_on_c, 1, 80, 0
3, 6528, Note_on_c, 1, 80, 30
3, 6534, Note_on_c, 1, 79, 0
3, 6540, Note_on_c, 1, 63, 0
3, 6540, Note_on_c, 1, 72, 30
3, 6578, Note_on_c, 1, 80, 0
3, 6600, Note_on_c, 1, 72, 0
3, 6600, Note_on_c, 1, 80, 30
3, 6600, Note_on_c, 1, 70, 30
3, 6660, Note_on_c, 1, 70, 0
3, 6660, Note_on_c, 1, 72, 30
3, 6720, Note_on_c, 1, 72, 0
3, 6720, Note_on_c, 1, 80, 0
3, 6720, Note_on_c, 1, 80, 30
3, 6720, Note_on_c, 1, 62, 30
3, 6780, Note_on_c, 1, 62, 0
3, 6780, Note_on_c, 1, 80, 0
3, 6780, Note_on_c, 1, 79, 30
3, 6780, Note_on_c, 1, 70, 30
3, 6840, Note_on_c, 1, 70, 0
3, 6840, Note_on_c, 1, 79, 0
3, 6840, Note_on_c, 1, 77, 30
3, 6840, Note_on_c, 1, 68, 30
3, 6900, Note_on_c, 1, 68, 0
3, 6900, Note_on_c, 1, 77, 0
3, 6900, Note_on_c, 1, 79, 30
3, 6900, Note_on_c, 1, 70, 30
3, 6960, Note_on_c, 1, 70, 0
3, 6960, Note_on_c, 1, 79, 0
3, 6960, Note_on_c, 1, 80, 30
3, 6960, Note_on_c, 1, 60, 30
3, 6984, Note_on_c, 1, 79, 30
3, 6990, Note_on_c, 1, 80, 0
3, 7008, Note_on_c, 1, 80, 30
3, 7014, Note_on_c, 1, 79, 0
3, 7020, Note_on_c, 1, 60, 0
3, 7020, Note_on_c, 1, 68, 30
3, 7058, Note_on_c, 1, 80, 0
3, 7080, Note_on_c, 1, 68, 0
3, 7080, Note_on_c, 1, 80, 30
3, 7080, Note_on_c, 1, 67, 30
3, 7140, Note_on_c, 1, 67, 0
3, 7140, Note_on_c, 1, 68, 30
3, 7200, Note_on_c, 1, 68, 0
3, 7200, Note_on_c, 1, 80, 0
3, 7200, Note_on_c, 1, 80, 30
3, 7200, Note_on_c, 1, 58, 30
3, 7260, Note_on_c, 1, 80, 0
3, 7260, Note_on_c, 1, 86, 30
3, 7271, Note_on_c, 1, 58, 0
3, 7320, Note_on_c, 1, 86, 0
3, 7320, Note_on_c, 1, 89, 30
3, 7320, Note_on_c, 1, 70, 30
3, 7380, Note_on_c, 1, 89, 0
3, 7380, Note_on_c, 1, 87, 30
3, 7391, Note_on_c, 1, 70, 0
3, 7440, Note_on_c, 1, 87, 0
3, 7440, Note_on_c, 1, 86, 30
3, 7500, Note_on_c, 1, 86, 0
3, 7500, Note_on_c, 1, 84, 30
3, 7560, Note_on_c, 1, 84, 0
3, 7560, Note_on_c, 1, 62, 30
3, 7560, Note_on_c, 1, 82, 30
3, 7620, Note_on_c, 1, 82, 0
3, 7620, Note_on_c, 1, 80, 30
3, 7680, Note_on_c, 1, 80, 0
3, 7680, Note_on_c, 1, 62, 0
3, 7680, Note_on_c, 1, 79, 30
3, 7680, Note_on_c, 1, 63, 30
3, 7740, Note_on_c, 1, 79, 0
3, 7740, Note_on_c, 1, 82, 30
3, 7775, Note_on_c, 1, 63, 0
3, 7800, Note_on_c, 1, 82, 0
3, 7800, Note_on_c, 1, 87, 30
3, 7800, Note_on_c, 1, 60, 30
3, 7860, Note_on_c, 1, 87, 0
3, 7860, Note_on_c, 1, 79, 30
3, 7895, Note_on_c, 1, 60, 0
3, 7920, Note_on_c, 1, 79, 0
3, 7920, Note_on_c, 1, 77, 30
3, 7920, Note_on_c, 1, 56, 30
3, 7980, Note_on_c, 1, 77, 0
3, 7980, Note_on_c, 1, 87, 30
3, 8007, Note_on_c, 1, 56, 0
3, 8040, Note_on_c, 1, 87, 0
3, 8040, Note_on_c, 1, 77, 30
3, 8040, Note_on_c, 1, 58, 30
3, 8100, Note_on_c, 1, 77, 0
3, 8100, Note_on_c, 1, 86, 30
3, 8119, Note_on_c, 1, 58, 0
3, 8160, Note_on_c, 1, 86, 0
3, 8160, Note_on_c, 1, 87, 30
3, 8160, Note_on_c, 1, 51, 30
3, 8220, Note_on_c, 1, 87, 0
3, 8220, Note_on_c, 1, 82, 30
3, 8255, Note_on_c, 1, 51, 0
3, 8280, Note_on_c, 1, 82, 0
3, 8280, Note_on_c, 1, 80, 30
3, 8280, Note_on_c, 1, 63, 30
3, 8340, Note_on_c, 1, 80, 0
3, 8340, Note_on_c, 1, 82, 30
3, 8367, Note_on_c, 1, 63, 0
3, 8400, Note_on_c, 1, 82, 0
3, 8400, Note_on_c, 1, 84, 30
3, 8400, Note_on_c, 1, 56, 30
3, 8460, Note_on_c, 1, 84, 0
3, 8460, Note_on_c, 1, 80, 30
3, 8487, Note_on_c, 1, 56, 0
3, 8520, Note_on_c, 1, 80, 0
3, 8520, Note_on_c, 1, 63, 30
3, 8520, Note_on_c, 1, 79, 30
3, 8580, Note_on_c, 1, 79, 0
3, 8580, Note_on_c, 1, 80, 30
3, 8599, Note_on_c, 1, 63, 0
3, 8640, Note_on_c, 1, 80, 0
3, 8640, Note_on_c, 1, 82, 30
3, 8640, Note_on_c, 1, 55, 30
3, 8700, Note_on_c, 1, 82, 0
3, 8700, Note_on_c, 1, 79, 30
3, 8719, Note_on_c, 1, 55, 0
3, 8760, Note_on_c, 1, 79, 0
3, 8760, Note_on_c, 1, 77, 30
3, 8760, Note_on_c, 1, 63, 30
3, 8820, Note_on_c, 1, 77, 0
3, 8820, Note_on_c, 1, 79, 30
3, 8839, Note_on_c, 1, 63, 0
3, 8880, Note_on_c, 1, 79, 0
3, 8880, Note_on_c, 1, 80, 30
3, 8880, Note_on_c, 1, 53, 30
3, 8940, Note_on_c, 1, 80, 0
3, 8940, Note_on_c, 1, 77, 30
3, 8951, Note_on_c, 1, 53, 0
3, 9000, Note_on_c, 1, 77, 0
3, 9000, Note_on_c, 1, 75, 30
3, 9000, Note_on_c, 1, 62, 30
3, 9060, Note_on_c, 1, 75, 0
3, 9060, Note_on_c, 1, 77, 30
3, 9071, Note_on_c, 1, 62, 0
3, 9120, Note_on_c, 1, 77, 0
3, 9120, Note_on_c, 1, 79, 30
3, 9120, Note_on_c, 1, 63, 30
3, 9180, Note_on_c, 1, 63, 0
3, 9180, Note_on_c, 1, 79, 0
3, 9180, Note_on_c, 1, 75, 30
3, 9180, Note_on_c, 1, 67, 30
3, 9240, Note_on_c, 1, 67, 0
3, 9240, Note_on_c, 1, 75, 0
3, 9240, Note_on_c, 1, 74, 30
3, 9240, Note_on_c, 1, 65, 30
3, 9300, Note_on_c, 1, 65, 0
3, 9300, Note_on_c, 1, 74, 0
3, 9300, Note_on_c, 1, 75, 30
3, 9300, Note_on_c, 1, 67, 30
3, 9360, Note_on_c, 1, 67, 0
3, 9360, Note_on_c, 1, 75, 0
3, 9360, Note_on_c, 1, 72, 30
3, 9360, Note_on_c, 1, 68, 30
3, 9420, Note_on_c, 1, 68, 0
3, 9420, Note_on_c, 1, 65, 30
3, 9447, Note_on_c, 1, 72, 0
3, 9480, Note_on_c, 1, 65, 0
3, 9480, Note_on_c, 1, 80, 30
3, 9480, Note_on_c, 1, 63, 30
3, 9540, Note_on_c, 1, 63, 0
3, 9540, Note_on_c, 1, 65, 30
3, 9567, Note_on_c, 1, 80, 0
3, 9600, Note_on_c, 1, 65, 0
3, 9600, Note_on_c, 1, 70, 30
3, 9600, Note_on_c, 1, 67, 30
3, 9660, Note_on_c, 1, 67, 0
3, 9660, Note_on_c, 1, 63, 30
3, 9671, Note_on_c, 1, 70, 0
3, 9720, Note_on_c, 1, 63, 0
3, 9720, Note_on_c, 1, 79, 30
3, 9720, Note_on_c, 1, 62, 30
3, 9780, Note_on_c, 1, 62, 0
3, 9780, Note_on_c, 1, 63, 30
3, 9799, Note_on_c, 1, 79, 0
3, 9840, Note_on_c, 1, 63, 0
3, 9840, Note_on_c, 1, 68, 30
3, 9840, Note_on_c, 1, 65, 30
3, 9900, Note_on_c, 1, 65, 0
3, 9900, Note_on_c, 1, 62, 30
3, 9919, Note_on_c, 1, 68, 0
3, 9960, Note_on_c, 1, 62, 0
3, 9960, Note_on_c, 1, 77, 30
3, 9960, Note_on_c, 1, 60, 30
3, 10020, Note_on_c, 1, 60, 0
3, 10020, Note_on_c, 1, 62, 30
3, 10039, Note_on_c, 1, 77, 0
3, 10080, Note_on_c, 1, 62, 0
3, 10080, Note_on_c, 1, 67, 30
3, 10080, Note_on_c, 1, 63, 30
3, 10140, Note_on_c, 1, 67, 0
3, 10140, Note_on_c, 1, 70, 30
3, 10167, Note_on_c, 1, 63, 0
3, 10200, Note_on_c, 1, 70, 0
3, 10200, Note_on_c, 1, 75, 30
3, 10200, Note_on_c, 1, 67, 30
3, 10260, Note_on_c, 1, 75, 0
3, 10260, Note_on_c, 1, 79, 30
3, 10279, Note_on_c, 1, 67, 0
3, 10320, Note_on_c, 1, 68, 30
3, 10380, Note_on_c, 1, 79, 0
3, 10380, Note_on_c, 1, 77, 30
3, 10407, Note_on_c, 1, 68, 0
3, 10440, Note_on_c, 1, 77, 0
3, 10440, Note_on_c, 1, 70, 30
3, 10440, Note_on_c, 1, 75, 30
3, 10500, Note_on_c, 1, 75, 0
3, 10500, Note_on_c, 1, 74, 30
3, 10527, Note_on_c, 1, 70, 0
3, 10560, Note_on_c, 1, 74, 0
3, 10560, Note_on_c, 1, 75, 30
3, 10560, Note_on_c, 1, 72, 30
3, 10620, Note_on_c, 1, 79, 30
3, 10655, Note_on_c, 1, 72, 0
3, 10680, Note_on_c, 1, 79, 0
3, 10680, Note_on_c, 1, 84, 30
3, 10680, Note_on_c, 1, 68, 30
3, 10740, Note_on_c, 1, 77, 30
3, 10759, Note_on_c, 1, 68, 0
3, 10800, Note_on_c, 1, 77, 0
3, 10800, Note_on_c, 1, 84, 0
3, 10800, Note_on_c, 1, 79, 30
3, 10800, Note_on_c, 1, 82, 30
3, 10800, Note_on_c, 1, 70, 30
3, 10860, Note_on_c, 1, 75, 0
3, 10860, Note_on_c, 1, 75, 30
3, 10887, Note_on_c, 1, 70, 0
3, 10920, Note_on_c, 1, 79, 0
3, 10920, Note_on_c, 1, 82, 0
3, 10920, Note_on_c, 1, 77, 30
3, 10920, Note_on_c, 1, 80, 30
3, 10920, Note_on_c, 1, 58, 30
3, 10980, Note_on_c, 1, 75, 0
3, 10980, Note_on_c, 1, 74, 30
3, 10999, Note_on_c, 1, 58, 0
3, 11040, Note_on_c, 1, 77, 0
3, 11040, Note_on_c, 1, 80, 0
3, 11040, Note_on_c, 1, 74, 0
3, 11040, Note_on_c, 1, 70, 30
3, 11056, Note_on_c, 1, 75, 30
3, 11072, Note_on_c, 1, 79, 30
3, 11100, Note_on_c, 1, 63, 30
3, 11160, Note_on_c, 1, 63, 0
3, 11160, Note_on_c, 1, 58, 30
3, 11220, Note_on_c, 1, 58, 0
3, 11220, Note_on_c, 1, 55, 30
3, 11280, Note_on_c, 1, 55, 0
3, 11280, Note_on_c, 1, 51, 30
3, 11519, Note_on_c, 1, 75, 0
3, 11520, Note_on_c, 1, 70, 0
3, 11520, Note_on_c, 1, 51, 0
3, 11527, Note_on_c, 1, 79, 0
3, 23040, Note_on_c, 1, 63, 30
3, 23100, Note_on_c, 1, 82, 30
3, 23127, Note_on_c, 1, 63, 0
3, 23160, Note_on_c, 1, 82, 0
3, 23160, Note_on_c, 1, 65, 30
3, 23160, Note_on_c, 1, 81, 30
3, 23220, Note_on_c, 1, 81, 0
3, 23220, Note_on_c, 1, 82, 30
3, 23255, Note_on_c, 1, 65, 0
3, 23280, Note_on_c, 1, 82, 0
3, 23280, Note_on_c, 1, 87, 30
3, 23280, Note_on_c, 1, 67, 30
3, 23340, Note_on_c, 1, 87, 0
3, 23340, Note_on_c, 1, 82, 30
3, 23375, Note_on_c, 1, 67, 0
3, 23400, Note_on_c, 1, 82, 0
3, 23400, Note_on_c, 1, 81, 30
3, 23400, Note_on_c, 1, 63, 30
3, 23460, Note_on_c, 1, 81, 0
3, 23460, Note_on_c, 1, 82, 30
3, 23487, Note_on_c, 1, 63, 0
3, 23520, Note_on_c, 1, 82, 0
3, 23520, Note_on_c, 1, 89, 30
3, 23520, Note_on_c, 1, 62, 30
3, 23580, Note_on_c, 1, 89, 0
3, 23580, Note_on_c, 1, 82, 30
3, 23640, Note_on_c, 1, 82, 0
3, 23640, Note_on_c, 1, 62, 0
3, 23640, Note_on_c, 1, 81, 30
3, 23640, Note_on_c, 1, 60, 30
3, 23700, Note_on_c, 1, 81, 0
3, 23700, Note_on_c, 1, 82, 30
3, 23760, Note_on_c, 1, 82, 0
3, 23760, Note_on_c, 1, 60, 0
3, 23760, Note_on_c, 1, 92, 30
3, 23760, Note_on_c, 1, 62, 30
3, 23820, Note_on_c, 1, 92, 0
3, 23820, Note_on_c, 1, 82, 30
3, 23831, Note_on_c, 1, 62, 0
3, 23880, Note_on_c, 1, 82, 0
3, 23880, Note_on_c, 1, 58, 30
3, 23880, Note_on_c, 1, 81, 30
3, 23935, Note_on_c, 1, 58, 0
3, 23940, Note_on_c, 1, 81, 0
3, 23940, Note_on_c, 1, 82, 30
3, 24000, Note_on_c, 1, 82, 0
3, 24000, Note_on_c, 1, 91, 30
3, 24000, Note_on_c, 1, 63, 30
3, 24060, Note_on_c, 1, 63, 0
3, 24060, Note_on_c, 1, 67, 30
3, 24071, Note_on_c, 1, 91, 0
3, 24120, Note_on_c, 1, 67, 0
3, 24120, Note_on_c, 1, 87, 30
3, 24120, Note_on_c, 1, 68, 30
3, 24180, Note_on_c, 1, 68, 0
3, 24180, Note_on_c, 1, 67, 30
3, 24183, Note_on_c, 1, 87, 0
3, 24240, Note_on_c, 1, 67, 0
3, 24240, Note_on_c, 1, 86, 30
3, 24240, Note_on_c, 1, 56, 30
3, 24260, Note_on_c, 1, 86, 0
3, 24260, Note_on_c, 1, 84, 30
3, 24280, Note_on_c, 1, 84, 0
3, 24280, Note_on_c, 1, 86, 30
3, 24296, Note_on_c, 1, 84, 30
3, 24300, Note_on_c, 1, 86, 0
3, 24300, Note_on_c, 1, 56, 0
3, 24300, Note_on_c, 1, 67, 30
3, 24312, Note_on_c, 1, 83, 30
3, 24319, Note_on_c, 1, 84, 0
3, 24359, Note_on_c, 1, 83, 0
3, 24360, Note_on_c, 1, 67, 0
3, 24360, Note_on_c, 1, 84, 30
3, 24360, Note_on_c, 1, 68, 30
3, 24420, Note_on_c, 1, 68, 0
3, 24420, Note_on_c, 1, 67, 30
3, 24463, Note_on_c, 1, 84, 0
3, 24480, Note_on_c, 1, 67, 0
3, 24480, Note_on_c, 1, 89, 30
3, 24480, Note_on_c, 1, 62, 30
3, 24540, Note_on_c, 1, 62, 0
3, 24540, Note_on_c, 1, 65, 30
3, 24543, Note_on_c, 1, 89, 0
3, 24600, Note_on_c, 1, 65, 0
3, 24600, Note_on_c, 1, 86, 30
3, 24600, Note_on_c, 1, 67, 30
3, 24655, Note_on_c, 1, 86, 0
3, 24660, Note_on_c, 1, 67, 0
3, 24660, Note_on_c, 1, 65, 30
3, 24720, Note_on_c, 1, 65, 0
3, 24720, Note_on_c, 1, 84, 30
3, 24720, Note_on_c, 1, 55, 30
3, 24740, Note_on_c, 1, 84, 0
3, 24740, Note_on_c, 1, 83, 30
3, 24752, Note_on_c, 1, 84, 30
3, 24760, Note_on_c, 1, 83, 0
3, 24772, Note_on_c, 1, 84, 0
3, 24776, Note_on_c, 1, 83, 30
3, 24780, Note_on_c, 1, 55, 0
3, 24780, Note_on_c, 1, 65, 30
3, 24792, Note_on_c, 1, 81, 30
3, 24796, Note_on_c, 1, 83, 0
3, 24840, Note_on_c, 1, 65, 0
3, 24840, Note_on_c, 1, 83, 30
3, 24840, Note_on_c, 1, 67, 30
3, 24852, Note_on_c, 1, 81, 0
3, 24900, Note_on_c, 1, 67, 0
3, 24900, Note_on_c, 1, 65, 30
3, 24960, Note_on_c, 1, 65, 0
3, 24960, Note_on_c, 1, 83, 0
3, 24960, Note_on_c, 1, 87, 30
3, 24960, Note_on_c, 1, 60, 30
3, 25020, Note_on_c, 1, 87, 0
3, 25020, Note_on_c, 1, 75, 30
3, 25023, Note_on_c, 1, 60, 0
3, 25080, Note_on_c, 1, 75, 0
3, 25080, Note_on_c, 1, 74, 30
3, 25080, Note_on_c, 1, 72, 30
3, 25140, Note_on_c, 1, 74, 0
3, 25140, Note_on_c, 1, 75, 30
3, 25175, Note_on_c, 1, 72, 0
3, 25200, Note_on_c, 1, 75, 0
3, 25200, Note_on_c, 1, 79, 30
3, 25200, Note_on_c, 1, 70, 30
3, 25260, Note_on_c, 1, 79, 0
3, 25260, Note_on_c, 1, 75, 30
3, 25303, Note_on_c, 1, 70, 0
3, 25320, Note_on_c, 1, 75, 0
3, 25320, Note_on_c, 1, 74, 30
3, 25320, Note_on_c, 1, 68, 30
3, 25380, Note_on_c, 1, 74, 0
3, 25380, Note_on_c, 1, 75, 30
3, 25423, Note_on_c, 1, 68, 0
3, 25440, Note_on_c, 1, 75, 0
3, 25440, Note_on_c, 1, 82, 30
3, 25440, Note_on_c, 1, 67, 30
3, 25500, Note_on_c, 1, 82, 0
3, 25500, Note_on_c, 1, 75, 30
3, 25560, Note_on_c, 1, 75, 0
3, 25560, Note_on_c, 1, 67, 0
3, 25560, Note_on_c, 1, 74, 30
3, 25560, Note_on_c, 1, 65, 30
3, 25620, Note_on_c, 1, 74, 0
3, 25620, Note_on_c, 1, 75, 30
3, 25680, Note_on_c, 1, 75, 0
3, 25680, Note_on_c, 1, 65, 0
3, 25680, Note_on_c, 1, 85, 30
3, 25680, Note_on_c, 1, 67, 30
3, 25740, Note_on_c, 1, 85, 0
3, 25740, Note_on_c, 1, 75, 30
3, 25767, Note_on_c, 1, 67, 0
3, 25800, Note_on_c, 1, 75, 0
3, 25800, Note_on_c, 1, 63, 30
3, 25800, Note_on_c, 1, 74, 30
3, 25860, Note_on_c, 1, 74, 0
3, 25860, Note_on_c, 1, 75, 30
3, 25871, Note_on_c, 1, 63, 0
3, 25920, Note_on_c, 1, 75, 0
3, 25920, Note_on_c, 1, 84, 30
3, 25920, Note_on_c, 1, 68, 30
3, 25980, Note_on_c, 1, 68, 0
3, 25980, Note_on_c, 1, 72, 30
3, 25991, Note_on_c, 1, 84, 0
3, 26040, Note_on_c, 1, 72, 0
3, 26040, Note_on_c, 1, 80, 30
3, 26040, Note_on_c, 1, 73, 30
3, 26100, Note_on_c, 1, 73, 0
3, 26100, Note_on_c, 1, 72, 30
3, 26103, Note_on_c, 1, 80, 0
3, 26160, Note_on_c, 1, 72, 0
3, 26160, Note_on_c, 1, 79, 30
3, 26160, Note_on_c, 1, 61, 30
3, 26180, Note_on_c, 1, 79, 0
3, 26180, Note_on_c, 1, 77, 30
3, 26192, Note_on_c, 1, 79, 30
3, 26200, Note_on_c, 1, 77, 0
3, 26208, Note_on_c, 1, 77, 30
3, 26212, Note_on_c, 1, 79, 0
3, 26220, Note_on_c, 1, 61, 0
3, 26220, Note_on_c, 1, 72, 30
3, 26228, Note_on_c, 1, 77, 0
3, 26232, Note_on_c, 1, 76, 30
3, 26280, Note_on_c, 1, 72, 0
3, 26280, Note_on_c, 1, 77, 30
3, 26280, Note_on_c, 1, 73, 30
3, 26292, Note_on_c, 1, 76, 0
3, 26340, Note_on_c, 1, 73, 0
3, 26340, Note_on_c, 1, 72, 30
3, 26367, Note_on_c, 1, 77, 0
3, 26400, Note_on_c, 1, 72, 0
3, 26400, Note_on_c, 1, 82, 30
3, 26400, Note_on_c, 1, 67, 30
3, 26460, Note_on_c, 1, 67, 0
3, 26460, Note_on_c, 1, 70, 30
3, 26471, Note_on_c, 1, 82, 0
3, 26520, Note_on_c, 1, 70, 0
3, 26520, Note_on_c, 1, 79, 30
3, 26520, Note_on_c, 1, 72, 30
3, 26580, Note_on_c, 1, 72, 0
3, 26580, Note_on_c, 1, 70, 30
3, 26583, Note_on_c, 1, 79, 0
3, 26640, Note_on_c, 1, 70, 0
3, 26640, Note_on_c, 1, 77, 30
3, 26640, Note_on_c, 1, 60, 30
3, 26660, Note_on_c, 1, 77, 0
3, 26660, Note_on_c, 1, 76, 30
3, 26672, Note_on_c, 1, 77, 30
3, 26680, Note_on_c, 1, 76, 0
3, 26692, Note_on_c, 1, 77, 0
3, 26696, Note_on_c, 1, 76, 30
3, 26700, Note_on_c, 1, 60, 0
3, 26700, Note_on_c, 1, 70, 30
3, 26712, Note_on_c, 1, 74, 30
3, 26716, Note_on_c, 1, 76, 0
3, 26760, Note_on_c, 1, 70, 0
3, 26760, Note_on_c, 1, 76, 30
3, 26760, Note_on_c, 1, 72, 30
3, 26772, Note_on_c, 1, 74, 0
3, 26820, Note_on_c, 1, 72, 0
3, 26820, Note_on_c, 1, 70, 30
3, 26855, Note_on_c, 1, 76, 0
3, 26880, Note_on_c, 1, 70, 0
3, 26880, Note_on_c, 1, 80, 30
3, 26880, Note_on_c, 1, 65, 30
3, 26940, Note_on_c, 1, 80, 0
3, 26940, Note_on_c, 1, 84, 30
3, 26967, Note_on_c, 1, 65, 0
3, 27000, Note_on_c, 1, 84, 0
3, 27000, Note_on_c, 1, 83, 30
3, 27000, Note_on_c, 1, 68, 30
3, 27060, Note_on_c, 1, 83, 0
3, 27060, Note_on_c, 1, 84, 30
3, 27071, Note_on_c, 1, 68, 0
3, 27120, Note_on_c, 1, 84, 0
3, 27120, Note_on_c, 1, 85, 30
3, 27120, Note_on_c, 1, 65, 30
3, 27180, Note_on_c, 1, 85, 0
3, 27180, Note_on_c, 1, 84, 30
3, 27191, Note_on_c, 1, 65, 0
3, 27240, Note_on_c, 1, 84, 0
3, 27240, Note_on_c, 1, 83, 30
3, 27240, Note_on_c, 1, 73, 30
3, 27300, Note_on_c, 1, 83, 0
3, 27300, Note_on_c, 1, 84, 30
3, 27311, Note_on_c, 1, 73, 0
3, 27360, Note_on_c, 1, 84, 0
3, 27360, Note_on_c, 1, 79, 30
3, 27360, Note_on_c, 1, 64, 30
3, 27420, Note_on_c, 1, 79, 0
3, 27420, Note_on_c, 1, 84, 30
3, 27455, Note_on_c, 1, 64, 0
3, 27480, Note_on_c, 1, 84, 0
3, 27480, Note_on_c, 1, 83, 30
3, 27480, Note_on_c, 1, 67, 30
3, 27540, Note_on_c, 1, 83, 0
3, 27540, Note_on_c, 1, 84, 30
3, 27567, Note_on_c, 1, 67, 0
3, 27600, Note_on_c, 1, 84, 0
3, 27600, Note_on_c, 1, 85, 30
3, 27600, Note_on_c, 1, 63, 30
3, 27660, Note_on_c, 1, 85, 0
3, 27660, Note_on_c, 1, 84, 30
3, 27687, Note_on_c, 1, 63, 0
3, 27720, Note_on_c, 1, 84, 0
3, 27720, Note_on_c, 1, 72, 30
3, 27720, Note_on_c, 1, 83, 30
3, 27780, Note_on_c, 1, 83, 0
3, 27780, Note_on_c, 1, 84, 30
3, 27791, Note_on_c, 1, 72, 0
3, 27840, Note_on_c, 1, 84, 0
3, 27840, Note_on_c, 1, 77, 30
3, 27840, Note_on_c, 1, 62, 30
3, 27900, Note_on_c, 1, 77, 0
3, 27900, Note_on_c, 1, 84, 30
3, 27960, Note_on_c, 1, 84, 0
3, 27960, Note_on_c, 1, 62, 0
3, 27960, Note_on_c, 1, 86, 30
3, 27960, Note_on_c, 1, 65, 30
3, 28020, Note_on_c, 1, 86, 0
3, 28020, Note_on_c, 1, 88, 30
3, 28047, Note_on_c, 1, 65, 0
3, 28080, Note_on_c, 1, 88, 0
3, 28080, Note_on_c, 1, 89, 30
3, 28080, Note_on_c, 1, 61, 30
3, 28140, Note_on_c, 1, 89, 0
3, 28140, Note_on_c, 1, 82, 30
3, 28167, Note_on_c, 1, 61, 0
3, 28200, Note_on_c, 1, 82, 0
3, 28200, Note_on_c, 1, 81, 30
3, 28200, Note_on_c, 1, 70, 30
3, 28260, Note_on_c, 1, 81, 0
3, 28260, Note_on_c, 1, 82, 30
3, 28287, Note_on_c, 1, 70, 0
3, 28320, Note_on_c, 1, 82, 0
3, 28320, Note_on_c, 1, 91, 30
3, 28320, Note_on_c, 1, 60, 30
3, 28380, Note_on_c, 1, 91, 0
3, 28380, Note_on_c, 1, 89, 30
3, 28440, Note_on_c, 1, 89, 0
3, 28440, Note_on_c, 1, 60, 0
3, 28440, Note_on_c, 1, 88, 30
3, 28440, Note_on_c, 1, 62, 30
3, 28500, Note_on_c, 1, 88, 0
3, 28500, Note_on_c, 1, 86, 30
3, 28560, Note_on_c, 1, 86, 0
3, 28560, Note_on_c, 1, 62, 0
3, 28560, Note_on_c, 1, 84, 30
3, 28560, Note_on_c, 1, 64, 30
3, 28620, Note_on_c, 1, 84, 0
3, 28620, Note_on_c, 1, 82, 30
3, 28647, Note_on_c, 1, 64, 0
3, 28680, Note_on_c, 1, 82, 0
3, 28680, Note_on_c, 1, 80, 30
3, 28680, Note_on_c, 1, 60, 30
3, 28740, Note_on_c, 1, 80, 0
3, 28740, Note_on_c, 1, 79, 30
3, 28767, Note_on_c, 1, 60, 0
3, 28800, Note_on_c, 1, 79, 0
3, 28800, Note_on_c, 1, 80, 30
3, 28800, Note_on_c, 1, 65, 30
3, 28860, Note_on_c, 1, 65, 0
3, 28860, Note_on_c, 1, 80, 0
3, 28860, Note_on_c, 1, 77, 30
3, 28860, Note_on_c, 1, 68, 30
3, 28920, Note_on_c, 1, 68, 0
3, 28920, Note_on_c, 1, 77, 0
3, 28920, Note_on_c, 1, 76, 30
3, 28920, Note_on_c, 1, 67, 30
3, 28980, Note_on_c, 1, 67, 0
3, 28980, Note_on_c, 1, 76, 0
3, 28980, Note_on_c, 1, 77, 30
3, 28980, Note_on_c, 1, 68, 30
3, 29040, Note_on_c, 1, 68, 0
3, 29040, Note_on_c, 1, 77, 0
3, 29040, Note_on_c, 1, 84, 30
3, 29040, Note_on_c, 1, 63, 30
3, 29100, Note_on_c, 1, 63, 0
3, 29100, Note_on_c, 1, 84, 0
3, 29100, Note_on_c, 1, 80, 30
3, 29100, Note_on_c, 1, 72, 30
3, 29160, Note_on_c, 1, 72, 0
3, 29160, Note_on_c, 1, 80, 0
3, 29160, Note_on_c, 1, 79, 30
3, 29160, Note_on_c, 1, 70, 30
3, 29220, Note_on_c, 1, 70, 0
3, 29220, Note_on_c, 1, 79, 0
3, 29220, Note_on_c, 1, 80, 30
3, 29220, Note_on_c, 1, 72, 30
3, 29280, Note_on_c, 1, 72, 0
3, 29280, Note_on_c, 1, 80, 0
3, 29280, Note_on_c, 1, 89, 30
3, 29280, Note_on_c, 1, 61, 30
3, 29340, Note_on_c, 1, 89, 0
3, 29340, Note_on_c, 1, 87, 30
3, 29367, Note_on_c, 1, 61, 0
3, 29400, Note_on_c, 1, 87, 0
3, 29400, Note_on_c, 1, 85, 30
3, 29400, Note_on_c, 1, 65, 30
3, 29460, Note_on_c, 1, 85, 0
3, 29460, Note_on_c, 1, 84, 30
3, 29479, Note_on_c, 1, 65, 0
3, 29520, Note_on_c, 1, 84, 0
3, 29520, Note_on_c, 1, 82, 30
3, 29520, Note_on_c, 1, 70, 30
3, 29580, Note_on_c, 1, 82, 0
3, 29580, Note_on_c, 1, 80, 30
3, 29599, Note_on_c, 1, 70, 0
3, 29640, Note_on_c, 1, 80, 0
3, 29640, Note_on_c, 1, 73, 30
3, 29640, Note_on_c, 1, 79, 30
3, 29700, Note_on_c, 1, 79, 0
3, 29700, Note_on_c, 1, 77, 30
3, 29711, Note_on_c, 1, 73, 0
3, 29760, Note_on_c, 1, 77, 0
3, 29760, Note_on_c, 1, 79, 30
3, 29760, Note_on_c, 1, 63, 30
3, 29820, Note_on_c, 1, 63, 0
3, 29820, Note_on_c, 1, 79, 0
3, 29820, Note_on_c, 1, 75, 30
3, 29820, Note_on_c, 1, 67, 30
3, 29880, Note_on_c, 1, 67, 0
3, 29880, Note_on_c, 1, 75, 0
3, 29880, Note_on_c, 1, 74, 30
3, 29880, Note_on_c, 1, 65, 30
3, 29940, Note_on_c, 1, 65, 0
3, 29940, Note_on_c, 1, 74, 0
3, 29940, Note_on_c, 1, 75, 30
3, 29940, Note_on_c, 1, 67, 30
3, 30000, Note_on_c, 1, 67, 0
3, 30000, Note_on_c, 1, 75, 0
3, 30000, Note_on_c, 1, 82, 30
3, 30000, Note_on_c, 1, 61, 30
3, 30060, Note_on_c, 1, 61, 0
3, 30060, Note_on_c, 1, 82, 0
3, 30060, Note_on_c, 1, 79, 30
3, 30060, Note_on_c, 1, 70, 30
3, 30120, Note_on_c, 1, 70, 0
3, 30120, Note_on_c, 1, 79, 0
3, 30120, Note_on_c, 1, 77, 30
3, 30120, Note_on_c, 1, 68, 30
3, 30180, Note_on_c, 1, 68, 0
3, 30180, Note_on_c, 1, 77, 0
3, 30180, Note_on_c, 1, 79, 30
3, 30180, Note_on_c, 1, 70, 30
3, 30240, Note_on_c, 1, 70, 0
3, 30240, Note_on_c, 1, 79, 0
3, 30240, Note_on_c, 1, 87, 30
3, 30240, Note_on_c, 1, 60, 30
3, 30300, Note_on_c, 1, 87, 0
3, 30300, Note_on_c, 1, 85, 30
3, 30319, Note_on_c, 1, 60, 0
3, 30360, Note_on_c, 1, 85, 0
3, 30360, Note_on_c, 1, 84, 30
3, 30360, Note_on_c, 1, 63, 30
3, 30420, Note_on_c, 1, 84, 0
3, 30420, Note_on_c, 1, 82, 30
3, 30447, Note_on_c, 1, 63, 0
3, 30480, Note_on_c, 1, 82, 0
3, 30480, Note_on_c, 1, 80, 30
3, 30480, Note_on_c, 1, 68, 30
3, 30540, Note_on_c, 1, 80, 0
3, 30540, Note_on_c, 1, 79, 30
3, 30567, Note_on_c, 1, 68, 0
3, 30600, Note_on_c, 1, 79, 0
3, 30600, Note_on_c, 1, 72, 30
3, 30600, Note_on_c, 1, 77, 30
3, 30660, Note_on_c, 1, 77, 0
3, 30660, Note_on_c, 1, 76, 30
3, 30687, Note_on_c, 1, 72, 0
3, 30720, Note_on_c, 1, 76, 0
3, 30720, Note_on_c, 1, 77, 30
3, 30720, Note_on_c, 1, 61, 30
3, 30780, Note_on_c, 1, 61, 0
3, 30780, Note_on_c, 1, 65, 30
3, 30807, Note_on_c, 1, 77, 0
3, 30840, Note_on_c, 1, 65, 0
3, 30840, Note_on_c, 1, 81, 30
3, 30840, Note_on_c, 1, 63, 30
3, 30900, Note_on_c, 1, 63, 0
3, 30900, Note_on_c, 1, 65, 30
3, 30960, Note_on_c, 1, 65, 0
3, 30960, Note_on_c, 1, 81, 0
3, 30960, Note_on_c, 1, 82, 30
3, 30960, Note_on_c, 1, 66, 30
3, 31020, Note_on_c, 1, 66, 0
3, 31020, Note_on_c, 1, 65, 30
3, 31080, Note_on_c, 1, 65, 0
3, 31080, Note_on_c, 1, 82, 0
3, 31080, Note_on_c, 1, 84, 30
3, 31080, Note_on_c, 1, 63, 30
3, 31140, Note_on_c, 1, 63, 0
3, 31140, Note_on_c, 1, 65, 30
3, 31200, Note_on_c, 1, 65, 0
3, 31200, Note_on_c, 1, 84, 0
3, 31200, Note_on_c, 1, 85, 30
3, 31200, Note_on_c, 1, 58, 30
3, 31260, Note_on_c, 1, 58, 0
3, 31260, Note_on_c, 1, 65, 30
3, 31320, Note_on_c, 1, 65, 0
3, 31320, Note_on_c, 1, 85, 0
3, 31320, Note_on_c, 1, 88, 30
3, 31320, Note_on_c, 1, 67, 30
3, 31380, Note_on_c, 1, 67, 0
3, 31380, Note_on_c, 1, 68, 30
3, 31440, Note_on_c, 1, 68, 0
3, 31440, Note_on_c, 1, 88, 0
3, 31440, Note_on_c, 1, 89, 30
3, 31440, Note_on_c, 1, 67, 30
3, 31500, Note_on_c, 1, 67, 0
3, 31500, Note_on_c, 1, 65, 30
3, 31560, Note_on_c, 1, 65, 0
3, 31560, Note_on_c, 1, 89, 0
3, 31560, Note_on_c, 1, 91, 30
3, 31560, Note_on_c, 1, 64, 30
3, 31620, Note_on_c, 1, 64, 0
3, 31620, Note_on_c, 1, 65, 30
3, 31680, Note_on_c, 1, 65, 0
3, 31680, Note_on_c, 1, 91, 0
3, 31680, Note_on_c, 1, 84, 30
3, 31680, Note_on_c, 1, 56, 30
3, 31740, Note_on_c, 1, 84, 0
3, 31740, Note_on_c, 1, 88, 30
3, 31759, Note_on_c, 1, 56, 0
3, 31800, Note_on_c, 1, 88, 0
3, 31800, Note_on_c, 1, 89, 30
3, 31800, Note_on_c, 1, 53, 30
3, 31860, Note_on_c, 1, 89, 0
3, 31860, Note_on_c, 1, 92, 30
3, 31871, Note_on_c, 1, 53, 0
3, 31920, Note_on_c, 1, 92, 0
3, 31920, Note_on_c, 1, 82, 30
3, 31920, Note_on_c, 1, 60, 30
3, 31980, Note_on_c, 1, 82, 0
3, 31980, Note_on_c, 1, 91, 30
3, 31991, Note_on_c, 1, 60, 0
3, 32040, Note_on_c, 1, 91, 0
3, 32040, Note_on_c, 1, 89, 30
3, 32040, Note_on_c, 1, 48, 30
3, 32100, Note_on_c, 1, 89, 0
3, 32100, Note_on_c, 1, 88, 30
3, 32111, Note_on_c, 1, 48, 0
3, 32160, Note_on_c, 1, 88, 0
3, 32160, Note_on_c, 1, 80, 30
3, 32160, Note_on_c, 1, 53, 30
3, 32220, Note_on_c, 1, 80, 0
3, 32220, Note_on_c, 1, 84, 30
3, 32239, Note_on_c, 1, 53, 0
3, 32280, Note_on_c, 1, 84, 0
3, 32280, Note_on_c, 1, 88, 30
3, 32280, Note_on_c, 1, 56, 30
3, 32340, Note_on_c, 1, 88, 0
3, 32340, Note_on_c, 1, 89, 30
3, 32400, Note_on_c, 1, 89, 0
3, 32400, Note_on_c, 1, 56, 0
3, 32400, Note_on_c, 1, 79, 30
3, 32400, Note_on_c, 1, 58, 30
3, 32460, Note_on_c, 1, 79, 0
3, 32460, Note_on_c, 1, 85, 30
3, 32520, Note_on_c, 1, 85, 0
3, 32520, Note_on_c, 1, 58, 0
3, 32520, Note_on_c, 1, 60, 30
3, 32520, Note_on_c, 1, 84, 30
3, 32580, Note_on_c, 1, 84, 0
3, 32580, Note_on_c, 1, 82, 30
3, 32607, Note_on_c, 1, 60, 0
3, 32640, Note_on_c, 1, 82, 0
3, 32640, Note_on_c, 1, 80, 30
3, 32640, Note_on_c, 1, 65, 30
3, 32700, Note_on_c, 1, 80, 0
3, 32700, Note_on_c, 1, 79, 30
3, 32760, Note_on_c, 1, 79, 0
3, 32760, Note_on_c, 1, 65, 0
3, 32760, Note_on_c, 1, 77, 30
3, 32760, Note_on_c, 1, 67, 30
3, 32820, Note_on_c, 1, 77, 0
3, 32820, Note_on_c, 1, 76, 30
3, 32880, Note_on_c, 1, 76, 0
3, 32880, Note_on_c, 1, 67, 0
3, 32880, Note_on_c, 1, 77, 30
3, 32880, Note_on_c, 1, 68, 30
3, 32940, Note_on_c, 1, 77, 0
3, 32940, Note_on_c, 1, 80, 30
3, 32967, Note_on_c, 1, 68, 0
3, 33000, Note_on_c, 1, 80, 0
3, 33000, Note_on_c, 1, 72, 30
3, 33000, Note_on_c, 1, 65, 30
3, 33060, Note_on_c, 1, 72, 0
3, 33060, Note_on_c, 1, 75, 30
3, 33071, Note_on_c, 1, 65, 0
3, 33120, Note_on_c, 1, 75, 0
3, 33120, Note_on_c, 1, 74, 30
3, 33120, Note_on_c, 1, 70, 30
3, 33180, Note_on_c, 1, 74, 0
3, 33180, Note_on_c, 1, 80, 30
3, 33199, Note_on_c, 1, 70, 0
3, 33240, Note_on_c, 1, 80, 0
3, 33240, Note_on_c, 1, 77, 30
3, 33240, Note_on_c, 1, 58, 30
3, 33300, Note_on_c, 1, 77, 0
3, 33300, Note_on_c, 1, 74, 30
3, 33327, Note_on_c, 1, 58, 0
3, 33360, Note_on_c, 1, 74, 0
3, 33360, Note_on_c, 1, 70, 30
3, 33420, Note_on_c, 1, 70, 0
3, 33420, Note_on_c, 1, 68, 30
3, 33480, Note_on_c, 1, 68, 0
3, 33480, Note_on_c, 1, 67, 30
3, 33540, Note_on_c, 1, 67, 0
3, 33540, Note_on_c, 1, 65, 30
3, 33600, Note_on_c, 1, 65, 0
3, 33600, Note_on_c, 1, 79, 30
3, 33600, Note_on_c, 1, 63, 30
3, 33660, Note_on_c, 1, 79, 0
3, 33660, Note_on_c, 1, 77, 30
3, 33720, Note_on_c, 1, 77, 0
3, 33720, Note_on_c, 1, 63, 0
3, 33720, Note_on_c, 1, 75, 30
3, 33720, Note_on_c, 1, 65, 30
3, 33780, Note_on_c, 1, 75, 0
3, 33780, Note_on_c, 1, 74, 30
3, 33840, Note_on_c, 1, 74, 0
3, 33840, Note_on_c, 1, 65, 0
3, 33840, Note_on_c, 1, 75, 30
3, 33840, Note_on_c, 1, 67, 30
3, 33900, Note_on_c, 1, 75, 0
3, 33900, Note_on_c, 1, 79, 30
3, 33919, Note_on_c, 1, 67, 0
3, 33960, Note_on_c, 1, 79, 0
3, 33960, Note_on_c, 1, 71, 30
3, 33960, Note_on_c, 1, 63, 30
3, 34020, Note_on_c, 1, 71, 0
3, 34020, Note_on_c, 1, 74, 30
3, 34039, Note_on_c, 1, 63, 0
3, 34080, Note_on_c, 1, 74, 0
3, 34080, Note_on_c, 1, 72, 30
3, 34080, Note_on_c, 1, 68, 30
3, 34140, Note_on_c, 1, 72, 0
3, 34140, Note_on_c, 1, 79, 30
3, 34151, Note_on_c, 1, 68, 0
3, 34200, Note_on_c, 1, 79, 0
3, 34200, Note_on_c, 1, 75, 30
3, 34200, Note_on_c, 1, 56, 30
3, 34260, Note_on_c, 1, 75, 0
3, 34260, Note_on_c, 1, 72, 30
3, 34271, Note_on_c, 1, 56, 0
3, 34320, Note_on_c, 1, 72, 0
3, 34320, Note_on_c, 1, 68, 30
3, 34380, Note_on_c, 1, 68, 0
3, 34380, Note_on_c, 1, 67, 30
3, 34440, Note_on_c, 1, 67, 0
3, 34440, Note_on_c, 1, 65, 30
3, 34500, Note_on_c, 1, 65, 0
3, 34500, Note_on_c, 1, 63, 30
3, 34560, Note_on_c, 1, 63, 0
3, 34560, Note_on_c, 1, 77, 30
3, 34560, Note_on_c, 1, 62, 30
3, 34620, Note_on_c, 1, 77, 0
3, 34620, Note_on_c, 1, 75, 30
3, 34680, Note_on_c, 1, 75, 0
3, 34680, Note_on_c, 1, 62, 0
3, 34680, Note_on_c, 1, 74, 30
3, 34680, Note_on_c, 1, 63, 30
3, 34740, Note_on_c, 1, 74, 0
3, 34740, Note_on_c, 1, 72, 30
3, 34800, Note_on_c, 1, 72, 0
3, 34800, Note_on_c, 1, 63, 0
3, 34800, Note_on_c, 1, 74, 30
3, 34800, Note_on_c, 1, 65, 30
3, 34860, Note_on_c, 1, 74, 0
3, 34860, Note_on_c, 1, 77, 30
3, 34887, Note_on_c, 1, 65, 0
3, 34920, Note_on_c, 1, 77, 0
3, 34920, Note_on_c, 1, 80, 30
3, 34920, Note_on_c, 1, 62, 30
3, 34980, Note_on_c, 1, 80, 0
3, 34980, Note_on_c, 1, 72, 30
3, 34999, Note_on_c, 1, 62, 0
3, 35040, Note_on_c, 1, 72, 0
3, 35040, Note_on_c, 1, 71, 30
3, 35040, Note_on_c, 1, 67, 30
3, 35100, Note_on_c, 1, 71, 0
3, 35100, Note_on_c, 1, 77, 30
3, 35111, Note_on_c, 1, 67, 0
3, 35160, Note_on_c, 1, 77, 0
3, 35160, Note_on_c, 1, 74, 30
3, 35160, Note_on_c, 1, 55, 30
3, 35220, Note_on_c, 1, 74, 0
3, 35220, Note_on_c, 1, 71, 30
3, 35231, Note_on_c, 1, 55, 0
3, 35280, Note_on_c, 1, 71, 0
3, 35280, Note_on_c, 1, 67, 30
3, 35340, Note_on_c, 1, 67, 0
3, 35340, Note_on_c, 1, 71, 30
3, 35340, Note_on_c, 1, 65, 30
3, 35400, Note_on_c, 1, 65, 0
3, 35400, Note_on_c, 1, 71, 0
3, 35400, Note_on_c, 1, 72, 30
3, 35400, Note_on_c, 1, 63, 30
3, 35460, Note_on_c, 1, 63, 0
3, 35460, Note_on_c, 1, 72, 0
3, 35460, Note_on_c, 1, 62, 30
3, 35460, Note_on_c, 1, 74, 30
3, 35520, Note_on_c, 1, 74, 0
3, 35520, Note_on_c, 1, 62, 0
3, 35520, Note_on_c, 1, 75, 30
3, 35520, Note_on_c, 1, 60, 30
3, 35580, Note_on_c, 1, 60, 0
3, 35580, Note_on_c, 1, 62, 30
3, 35640, Note_on_c, 1, 62, 0
3, 35640, Note_on_c, 1, 79, 30
3, 35640, Note_on_c, 1, 63, 30
3, 35700, Note_on_c, 1, 63, 0
3, 35700, Note_on_c, 1, 60, 30
3, 35760, Note_on_c, 1, 60, 0
3, 35760, Note_on_c, 1, 79, 0
3, 35760, Note_on_c, 1, 84, 30
3, 35760, Note_on_c, 1, 56, 30
3, 35820, Note_on_c, 1, 56, 0
3, 35820, Note_on_c, 1, 75, 0
3, 35820, Note_on_c, 1, 82, 30
3, 35820, Note_on_c, 1, 67, 30
3, 35880, Note_on_c, 1, 67, 0
3, 35880, Note_on_c, 1, 82, 0
3, 35880, Note_on_c, 1, 80, 30
3, 35880, Note_on_c, 1, 65, 30
3, 35940, Note_on_c, 1, 65, 0
3, 35940, Note_on_c, 1, 80, 0
3, 35940, Note_on_c, 1, 79, 30
3, 35940, Note_on_c, 1, 63, 30
3, 36000, Note_on_c, 1, 63, 0
3, 36000, Note_on_c, 1, 79, 0
3, 36000, Note_on_c, 1, 77, 30
3, 36000, Note_on_c, 1, 62, 30
3, 36060, Note_on_c, 1, 62, 0
3, 36060, Note_on_c, 1, 77, 0
3, 36060, Note_on_c, 1, 79, 30
3, 36060, Note_on_c, 1, 63, 30
3, 36120, Note_on_c, 1, 63, 0
3, 36120, Note_on_c, 1, 79, 0
3, 36120, Note_on_c, 1, 80, 30
3, 36120, Note_on_c, 1, 65, 30
3, 36180, Note_on_c, 1, 65, 0
3, 36180, Note_on_c, 1, 80, 0
3, 36180, Note_on_c, 1, 77, 30
3, 36180, Note_on_c, 1, 62, 30
3, 36240, Note_on_c, 1, 62, 0
3, 36240, Note_on_c, 1, 77, 0
3, 36240, Note_on_c, 1, 74, 30
3, 36240, Note_on_c, 1, 58, 30
3, 36300, Note_on_c, 1, 58, 0
3, 36300, Note_on_c, 1, 84, 0
3, 36300, Note_on_c, 1, 84, 30
3, 36300, Note_on_c, 1, 68, 30
3, 36360, Note_on_c, 1, 68, 0
3, 36360, Note_on_c, 1, 84, 0
3, 36360, Note_on_c, 1, 82, 30
3, 36360, Note_on_c, 1, 67, 30
3, 36420, Note_on_c, 1, 67, 0
3, 36420, Note_on_c, 1, 82, 0
3, 36420, Note_on_c, 1, 80, 30
3, 36420, Note_on_c, 1, 65, 30
3, 36480, Note_on_c, 1, 65, 0
3, 36480, Note_on_c, 1, 80, 0
3, 36480, Note_on_c, 1, 74, 0
3, 36480, Note_on_c, 1, 79, 30
3, 36480, Note_on_c, 1, 63, 30
3, 36540, Note_on_c, 1, 79, 0
3, 36540, Note_on_c, 1, 80, 30
3, 36600, Note_on_c, 1, 80, 0
3, 36600, Note_on_c, 1, 63, 0
3, 36600, Note_on_c, 1, 82, 30
3, 36600, Note_on_c, 1, 62, 30
3, 36660, Note_on_c, 1, 82, 0
3, 36660, Note_on_c, 1, 79, 30
3, 36720, Note_on_c, 1, 79, 0
3, 36720, Note_on_c, 1, 62, 0
3, 36720, Note_on_c, 1, 72, 30
3, 36720, Note_on_c, 1, 63, 30
3, 36780, Note_on_c, 1, 72, 0
3, 36780, Note_on_c, 1, 85, 30
3, 36840, Note_on_c, 1, 85, 0
3, 36840, Note_on_c, 1, 63, 0
3, 36840, Note_on_c, 1, 84, 30
3, 36840, Note_on_c, 1, 64, 30
3, 36900, Note_on_c, 1, 84, 0
3, 36900, Note_on_c, 1, 82, 30
3, 36960, Note_on_c, 1, 82, 0
3, 36960, Note_on_c, 1, 64, 0
3, 36960, Note_on_c, 1, 80, 30
3, 36960, Note_on_c, 1, 65, 30
3, 37020, Note_on_c, 1, 80, 0
3, 37020, Note_on_c, 1, 82, 30
3, 37080, Note_on_c, 1, 82, 0
3, 37080, Note_on_c, 1, 65, 0
3, 37080, Note_on_c, 1, 84, 30
3, 37080, Note_on_c, 1, 64, 30
3, 37140, Note_on_c, 1, 84, 0
3, 37140, Note_on_c, 1, 80, 30
3, 37200, Note_on_c, 1, 80, 0
3, 37200, Note_on_c, 1, 64, 0
3, 37200, Note_on_c, 1, 74, 30
3, 37200, Note_on_c, 1, 65, 30
3, 37260, Note_on_c, 1, 74, 0
3, 37260, Note_on_c, 1, 87, 30
3, 37320, Note_on_c, 1, 87, 0
3, 37320, Note_on_c, 1, 65, 0
3, 37320, Note_on_c, 1, 66, 30
3, 37320, Note_on_c, 1, 86, 30
3, 37380, Note_on_c, 1, 86, 0
3, 37380, Note_on_c, 1, 84, 30
3, 37440, Note_on_c, 1, 84, 0
3, 37440, Note_on_c, 1, 66, 0
3, 37440, Note_on_c, 1, 83, 30
3, 37440, Note_on_c, 1, 67, 30
3, 37500, Note_on_c, 1, 67, 0
3, 37500, Note_on_c, 1, 83, 0
3, 37500, Note_on_c, 1, 79, 30
3, 37500, Note_on_c, 1, 65, 30
3, 37560, Note_on_c, 1, 65, 0
3, 37560, Note_on_c, 1, 79, 0
3, 37560, Note_on_c, 1, 84, 30
3, 37560, Note_on_c, 1, 63, 30
3, 37620, Note_on_c, 1, 63, 0
3, 37620, Note_on_c, 1, 86, 30
3, 37620, Note_on_c, 1, 65, 30
3, 37680, Note_on_c, 1, 65, 0
3, 37680, Note_on_c, 1, 86, 0
3, 37680, Note_on_c, 1, 84, 0
3, 37680, Note_on_c, 1, 84, 30
3, 37680, Note_on_c, 1, 87, 30
3, 37680, Note_on_c, 1, 67, 30
3, 37740, Note_on_c, 1, 79, 30
3, 37751, Note_on_c, 1, 67, 0
3, 37800, Note_on_c, 1, 84, 0
3, 37800, Note_on_c, 1, 87, 0
3, 37800, Note_on_c, 1, 83, 30
3, 37800, Note_on_c, 1, 86, 30
3, 37800, Note_on_c, 1, 55, 30
3, 37860, Note_on_c, 1, 79, 0
3, 37860, Note_on_c, 1, 77, 30
3, 37879, Note_on_c, 1, 55, 0
3, 37920, Note_on_c, 1, 83, 0
3, 37920, Note_on_c, 1, 86, 0
3, 37920, Note_on_c, 1, 77, 0
3, 37920, Note_on_c, 1, 84, 30
3, 37920, Note_on_c, 1, 48, 30
3, 37936, Note_on_c, 1, 79, 30
3, 37952, Note_on_c, 1, 75, 30
3, 37980, Note_on_c, 1, 48, 0
3, 37980, Note_on_c, 1, 60, 30
3, 38040, Note_on_c, 1, 60, 0
3, 38040, Note_on_c, 1, 63, 30
3, 38100, Note_on_c, 1, 63, 0
3, 38100, Note_on_c, 1, 67, 30
3, 38160, Note_on_c, 1, 67, 0
3, 38160, Note_on_c, 1, 72, 30
3, 38399, Note_on_c, 1, 79, 0
3, 38400, Note_on_c, 1, 84, 0
3, 38400, Note_on_c, 1, 72, 0
3, 38407, Note_on_c, 1, 75, 0
3, 38407, End_track
4, 0, Start_track
4, 0, MIDI_port, 0
4, 0, Title_t, "articulated ambitiously by"
4, 0, End_track
5, 0, Start_track
5, 0, MIDI_port, 0
5, 0, Title_t, "Yo Tomita"
5, 0, End_track
0, 0, End_of_file