0, 0, Header, 1, 4, 120
1, 0, Start_track
1, 0, Time_signature, 3, 3, 12, 8
1, 0, Key_signature, -1, "major"
1, 0, Tempo, 789474
1, 0, Marker_t, "tpinven4.pc"
1, 9060, Tempo, 1200000
1, 9124, Tempo, 1431298
1, 9124, End_track
2, 0, Start_track
2, 0, MIDI_port, 0
2, 0, Title_t, "Track 1"
2, 0, Program_c, 0, 0
2, 0, Control_c, 0, 7, 91
2, 0, Control_c, 0, 10, 108
2, 0, Control_c, 0, 7, 121
2, 0, Control_c, 0, 93, 84
2, 0, Note_on_c, 0, 62, 65
2, 20, Control_c, 0, 7, 80
2, 30, Note_on_c, 0, 62, 0
2, 30, Note_on_c, 0, 64, 65
2, 30, Control_c, 0, 7, 76
2, 50, Control_c, 0, 7, 77
2, 60, Note_on_c, 0, 64, 0
2, 60, Note_on_c, 0, 65, 65
2, 70, Control_c, 0, 7, 78
2, 90, Note_on_c, 0, 65, 0
2, 90, Note_on_c, 0, 67, 65
2, 90, Control_c, 0, 7, 79
2, 110, Control_c, 0, 7, 80
2, 120, Note_on_c, 0, 67, 0
2, 120, Note_on_c, 0, 69, 65
2, 130, Control_c, 0, 7, 81
2, 150, Note_on_c, 0, 69, 0
2, 150, Note_on_c, 0, 70, 65
2, 150, Control_c, 0, 7, 82
2, 170, Control_c, 0, 7, 83
2, 180, Note_on_c, 0, 70, 0
2, 180, Note_on_c, 0, 61, 65
2, 180, Control_c, 0, 7, 84
2, 200, Control_c, 0, 7, 85
2, 210, Note_on_c, 0, 61, 0
2, 210, Note_on_c, 0, 70, 65
2, 220, Control_c, 0, 7, 86
2, 240, Note_on_c, 0, 70, 0
2, 240, Note_on_c, 0, 69, 65
2, 240, Control_c, 0, 7, 87
2, 260, Control_c, 0, 7, 88
2, 270, Note_on_c, 0, 69, 0
2, 270, Note_on_c, 0, 67, 65
2, 280, Control_c, 0, 7, 89
2, 300, Note_on_c, 0, 67, 0
2, 300, Note_on_c, 0, 65, 65
2, 300, Control_c, 0, 7, 90
2, 320, Control_c, 0, 7, 91
2, 330, Note_on_c, 0, 65, 0
2, 330, Note_on_c, 0, 64, 65
2, 330, Control_c, 0, 7, 92
2, 350, Control_c, 0, 7, 93
2, 360, Note_on_c, 0, 64, 0
2, 360, Note_on_c, 0, 65, 65
2, 370, Control_c, 0, 7, 94
2, 390, Control_c, 0, 7, 95
2, 410, Control_c, 0, 7, 96
2, 419, Note_on_c, 0, 69, 100
2, 420, Note_on_c, 0, 65, 0
2, 430, Control_c, 0, 7, 97
2, 450, Control_c, 0, 7, 98
2, 460, Control_c, 0, 7, 99
2, 477, Note_on_c, 0, 74, 100
2, 479, Note_on_c, 0, 69, 0
2, 480, Control_c, 0, 7, 100
2, 500, Control_c, 0, 7, 101
2, 520, Control_c, 0, 7, 102
2, 537, Note_on_c, 0, 74, 0
2, 540, Note_on_c, 0, 67, 100
2, 540, Control_c, 0, 7, 103
2, 560, Control_c, 0, 7, 104
2, 580, Control_c, 0, 7, 105
2, 593, Note_on_c, 0, 73, 100
2, 600, Note_on_c, 0, 67, 0
2, 600, Control_c, 0, 7, 106
2, 610, Control_c, 0, 7, 107
2, 630, Control_c, 0, 7, 108
2, 650, Control_c, 0, 7, 109
2, 653, Note_on_c, 0, 73, 0
2, 657, Note_on_c, 0, 76, 100
2, 670, Control_c, 0, 7, 110
2, 690, Control_c, 0, 7, 111
2, 710, Control_c, 0, 7, 112
2, 717, Note_on_c, 0, 76, 0
2, 720, Note_on_c, 0, 74, 65
2, 730, Control_c, 0, 7, 113
2, 740, Control_c, 0, 7, 114
2, 750, Note_on_c, 0, 74, 0
2, 750, Note_on_c, 0, 76, 65
2, 780, Note_on_c, 0, 76, 0
2, 780, Note_on_c, 0, 77, 65
2, 810, Note_on_c, 0, 77, 0
2, 810, Note_on_c, 0, 79, 65
2, 840, Note_on_c, 0, 79, 0
2, 840, Note_on_c, 0, 81, 65
2, 870, Note_on_c, 0, 81, 0
2, 870, Note_on_c, 0, 82, 65
2, 900, Note_on_c, 0, 82, 0
2, 900, Note_on_c, 0, 73, 65
2, 930, Note_on_c, 0, 73, 0
2, 930, Note_on_c, 0, 82, 65
2, 960, Note_on_c, 0, 82, 0
2, 960, Note_on_c, 0, 81, 65
2, 990, Note_on_c, 0, 81, 0
2, 990, Note_on_c, 0, 79, 65
2, 1020, Note_on_c, 0, 79, 0
2, 1020, Note_on_c, 0, 77, 65
2, 1050, Note_on_c, 0, 77, 0
2, 1050, Note_on_c, 0, 76, 65
2, 1080, Note_on_c, 0, 76, 0
2, 1080, Note_on_c, 0, 77, 65
2, 1110, Note_on_c, 0, 77, 0
2, 1110, Note_on_c, 0, 74, 65
2, 1140, Note_on_c, 0, 74, 0
2, 1140, Note_on_c, 0, 76, 65
2, 1170, Note_on_c, 0, 76, 0
2, 1170, Note_on_c, 0, 77, 65
2, 1200, Note_on_c, 0, 77, 0
2, 1200, Note_on_c, 0, 79, 65
2, 1230, Note_on_c, 0, 79, 0
2, 1230, Note_on_c, 0, 81, 65
2, 1260, Note_on_c, 0, 81, 0
2, 1260, Note_on_c, 0, 70, 65
2, 1290, Note_on_c, 0, 70, 0
2, 1290, Note_on_c, 0, 81, 65
2, 1320, Note_on_c, 0, 81, 0
2, 1320, Note_on_c, 0, 79, 65
2, 1350, Note_on_c, 0, 79, 0
2, 1350, Note_on_c, 0, 77, 65
2, 1380, Note_on_c, 0, 77, 0
2, 1380, Note_on_c, 0, 76, 65
2, 1410, Note_on_c, 0, 76, 0
2, 1410, Note_on_c, 0, 74, 65
2, 1440, Note_on_c, 0, 74, 0
2, 1440, Note_on_c, 0, 76, 65
2, 1470, Note_on_c, 0, 76, 0
2, 1470, Note_on_c, 0, 72, 65
2, 1500, Note_on_c, 0, 72, 0
2, 1500, Note_on_c, 0, 74, 65
2, 1530, Note_on_c, 0, 74, 0
2, 1530, Note_on_c, 0, 76, 65
2, 1560, Note_on_c, 0, 76, 0
2, 1560, Note_on_c, 0, 77, 65
2, 1590, Note_on_c, 0, 77, 0
2, 1590, Note_on_c, 0, 79, 65
2, 1620, Note_on_c, 0, 79, 0
2, 1620, Note_on_c, 0, 69, 65
2, 1650, Note_on_c, 0, 69, 0
2, 1650, Note_on_c, 0, 79, 65
2, 1680, Note_on_c, 0, 79, 0
2, 1680, Note_on_c, 0, 77, 65
2, 1710, Note_on_c, 0, 77, 0
2, 1710, Note_on_c, 0, 76, 65
2, 1740, Note_on_c, 0, 76, 0
2, 1740, Note_on_c, 0, 74, 65
2, 1770, Note_on_c, 0, 74, 0
2, 1770, Note_on_c, 0, 72, 65
2, 1800, Note_on_c, 0, 72, 0
2, 1800, Note_on_c, 0, 74, 65
2, 1830, Note_on_c, 0, 74, 0
2, 1830, Note_on_c, 0, 76, 65
2, 1860, Note_on_c, 0, 76, 0
2, 1860, Note_on_c, 0, 77, 65
2, 1890, Note_on_c, 0, 77, 0
2, 1890, Note_on_c, 0, 74, 65
2, 1920, Note_on_c, 0, 74, 0
2, 1920, Note_on_c, 0, 76, 65
2, 1950, Note_on_c, 0, 76, 0
2, 1950, Note_on_c, 0, 77, 65
2, 1980, Note_on_c, 0, 77, 0
2, 1980, Note_on_c, 0, 67, 100
2, 2040, Note_on_c, 0, 67, 0
2, 2160, Note_on_c, 0, 72, 65
2, 2190, Note_on_c, 0, 72, 0
2, 2190, Note_on_c, 0, 74, 65
2, 2220, Note_on_c, 0, 74, 0
2, 2220, Note_on_c, 0, 76, 65
2, 2250, Note_on_c, 0, 76, 0
2, 2250, Note_on_c, 0, 72, 65
2, 2280, Note_on_c, 0, 72, 0
2, 2280, Note_on_c, 0, 74, 65
2, 2310, Note_on_c, 0, 74, 0
2, 2310, Note_on_c, 0, 76, 65
2, 2340, Note_on_c, 0, 76, 0
2, 2340, Note_on_c, 0, 65, 100
2, 2400, Note_on_c, 0, 65, 0
2, 2460, Note_on_c, 0, 70, 65
2, 2579, Note_on_c, 0, 69, 100
2, 2580, Note_on_c, 0, 70, 0
2, 2637, Note_on_c, 0, 67, 100
2, 2639, Note_on_c, 0, 69, 0
2, 2697, Note_on_c, 0, 67, 0
2, 2700, Note_on_c, 0, 72, 65
2, 2700, Control_c, 0, 7, 111
2, 2720, Control_c, 0, 7, 110
2, 2730, Note_on_c, 0, 72, 0
2, 2730, Note_on_c, 0, 70, 65
2, 2730, Control_c, 0, 7, 109
2, 2740, Control_c, 0, 7, 108
2, 2750, Control_c, 0, 7, 107
2, 2760, Note_on_c, 0, 70, 0
2, 2760, Note_on_c, 0, 69, 65
2, 2760, Control_c, 0, 7, 106
2, 2770, Control_c, 0, 7, 105
2, 2780, Control_c, 0, 7, 104
2, 2790, Note_on_c, 0, 69, 0
2, 2790, Note_on_c, 0, 67, 65
2, 2790, Control_c, 0, 7, 103
2, 2800, Control_c, 0, 7, 102
2, 2810, Control_c, 0, 7, 101
2, 2820, Note_on_c, 0, 67, 0
2, 2820, Note_on_c, 0, 65, 65
2, 2820, Control_c, 0, 7, 100
2, 2830, Control_c, 0, 7, 99
2, 2840, Control_c, 0, 7, 98
2, 2850, Note_on_c, 0, 65, 0
2, 2850, Note_on_c, 0, 64, 65
2, 2850, Control_c, 0, 7, 97
2, 2860, Control_c, 0, 7, 96
2, 2870, Control_c, 0, 7, 95
2, 2880, Note_on_c, 0, 64, 0
2, 2880, Note_on_c, 0, 65, 65
2, 2880, Control_c, 0, 7, 94
2, 2890, Control_c, 0, 7, 93
2, 2900, Control_c, 0, 7, 92
2, 2910, Note_on_c, 0, 65, 0
2, 2910, Note_on_c, 0, 67, 65
2, 2910, Control_c, 0, 7, 91
2, 2920, Control_c, 0, 7, 90
2, 2930, Control_c, 0, 7, 89
2, 2940, Note_on_c, 0, 67, 0
2, 2940, Note_on_c, 0, 69, 65
2, 2940, Control_c, 0, 7, 88
2, 2950, Control_c, 0, 7, 87
2, 2955, Note_on_c, 0, 69, 0
2, 2955, Note_on_c, 0, 67, 65
2, 2960, Control_c, 0, 7, 86
2, 2970, Note_on_c, 0, 67, 0
2, 2970, Note_on_c, 0, 69, 65
2, 2970, Control_c, 0, 7, 85
2, 2980, Control_c, 0, 7, 84
2, 2985, Note_on_c, 0, 69, 0
2, 2985, Note_on_c, 0, 67, 65
2, 2990, Control_c, 0, 7, 83
2, 2999, Note_on_c, 0, 69, 65
2, 3000, Note_on_c, 0, 67, 0
2, 3000, Control_c, 0, 7, 82
2, 3010, Control_c, 0, 7, 81
2, 3014, Note_on_c, 0, 69, 0
2, 3015, Note_on_c, 0, 67, 65
2, 3020, Control_c, 0, 7, 80
2, 3030, Note_on_c, 0, 67, 0
2, 3030, Note_on_c, 0, 65, 65
2, 3030, Control_c, 0, 7, 79
2, 3040, Control_c, 0, 7, 78
2, 3050, Control_c, 0, 7, 77
2, 3060, Note_on_c, 0, 65, 0
2, 3060, Note_on_c, 0, 65, 110
2, 3060, Control_c, 0, 7, 78
2, 3110, Control_c, 0, 7, 79
2, 3120, Note_on_c, 0, 65, 0
2, 3120, Note_on_c, 0, 72, 110
2, 3150, Control_c, 0, 7, 80
2, 3180, Note_on_c, 0, 72, 0
2, 3180, Note_on_c, 0, 72, 110
2, 3200, Control_c, 0, 7, 81
2, 3240, Note_on_c, 0, 72, 0
2, 3240, Control_c, 0, 7, 82
2, 3247, Note_on_c, 0, 72, 65
2, 3255, Note_on_c, 0, 70, 65
2, 3259, Note_on_c, 0, 72, 0
2, 3267, Note_on_c, 0, 70, 0
2, 3270, Note_on_c, 0, 72, 65
2, 3282, Note_on_c, 0, 72, 0
2, 3285, Note_on_c, 0, 70, 65
2, 3290, Control_c, 0, 7, 83
2, 3297, Note_on_c, 0, 70, 0
2, 3300, Note_on_c, 0, 72, 65
2, 3312, Note_on_c, 0, 72, 0
2, 3315, Note_on_c, 0, 70, 65
2, 3327, Note_on_c, 0, 70, 0
2, 3330, Note_on_c, 0, 72, 65
2, 3330, Control_c, 0, 7, 84
2, 3342, Note_on_c, 0, 72, 0
2, 3345, Note_on_c, 0, 70, 65
2, 3357, Note_on_c, 0, 70, 0
2, 3360, Note_on_c, 0, 72, 65
2, 3372, Note_on_c, 0, 72, 0
2, 3375, Note_on_c, 0, 70, 65
2, 3380, Control_c, 0, 7, 85
2, 3387, Note_on_c, 0, 70, 0
2, 3390, Note_on_c, 0, 72, 65
2, 3402, Note_on_c, 0, 72, 0
2, 3405, Note_on_c, 0, 70, 65
2, 3417, Note_on_c, 0, 70, 0
2, 3420, Note_on_c, 0, 72, 65
2, 3420, Control_c, 0, 7, 86
2, 3432, Note_on_c, 0, 72, 0
2, 3435, Note_on_c, 0, 70, 65
2, 3447, Note_on_c, 0, 70, 0
2, 3450, Note_on_c, 0, 72, 65
2, 3460, Control_c, 0, 7, 87
2, 3462, Note_on_c, 0, 72, 0
2, 3465, Note_on_c, 0, 70, 65
2, 3477, Note_on_c, 0, 70, 0
2, 3480, Note_on_c, 0, 72, 65
2, 3492, Note_on_c, 0, 72, 0
2, 3495, Note_on_c, 0, 70, 65
2, 3507, Note_on_c, 0, 70, 0
2, 3510, Note_on_c, 0, 72, 65
2, 3510, Control_c, 0, 7, 88
2, 3522, Note_on_c, 0, 72, 0
2, 3525, Note_on_c, 0, 70, 65
2, 3537, Note_on_c, 0, 70, 0
2, 3540, Note_on_c, 0, 72, 65
2, 3550, Control_c, 0, 7, 89
2, 3552, Note_on_c, 0, 72, 0
2, 3555, Note_on_c, 0, 70, 65
2, 3567, Note_on_c, 0, 70, 0
2, 3570, Note_on_c, 0, 72, 65
2, 3582, Note_on_c, 0, 72, 0
2, 3585, Note_on_c, 0, 70, 65
2, 3597, Note_on_c, 0, 70, 0
2, 3600, Note_on_c, 0, 72, 65
2, 3600, Control_c, 0, 7, 90
2, 3612, Note_on_c, 0, 72, 0
2, 3615, Note_on_c, 0, 70, 65
2, 3627, Note_on_c, 0, 70, 0
2, 3630, Note_on_c, 0, 72, 65
2, 3640, Control_c, 0, 7, 91
2, 3642, Note_on_c, 0, 72, 0
2, 3645, Note_on_c, 0, 70, 65
2, 3657, Note_on_c, 0, 70, 0
2, 3660, Note_on_c, 0, 72, 65
2, 3672, Note_on_c, 0, 72, 0
2, 3675, Note_on_c, 0, 70, 65
2, 3687, Note_on_c, 0, 70, 0
2, 3690, Note_on_c, 0, 72, 65
2, 3690, Control_c, 0, 7, 92
2, 3702, Note_on_c, 0, 72, 0
2, 3705, Note_on_c, 0, 70, 65
2, 3717, Note_on_c, 0, 70, 0
2, 3720, Note_on_c, 0, 72, 65
2, 3730, Control_c, 0, 7, 93
2, 3732, Note_on_c, 0, 72, 0
2, 3734, Note_on_c, 0, 70, 65
2, 3746, Note_on_c, 0, 70, 0
2, 3749, Note_on_c, 0, 72, 65
2, 3761, Note_on_c, 0, 72, 0
2, 3765, Note_on_c, 0, 71, 65
2, 3770, Control_c, 0, 7, 94
2, 3777, Note_on_c, 0, 71, 0
2, 3780, Note_on_c, 0, 72, 65
2, 3810, Note_on_c, 0, 72, 0
2, 3810, Note_on_c, 0, 70, 65
2, 3820, Control_c, 0, 7, 95
2, 3840, Note_on_c, 0, 70, 0
2, 3840, Note_on_c, 0, 69, 65
2, 3860, Control_c, 0, 7, 96
2, 3870, Note_on_c, 0, 69, 0
2, 3870, Note_on_c, 0, 67, 65
2, 3900, Note_on_c, 0, 67, 0
2, 3900, Note_on_c, 0, 65, 65
2, 3910, Control_c, 0, 7, 97
2, 3930, Note_on_c, 0, 65, 0
2, 3930, Note_on_c, 0, 64, 65
2, 3950, Control_c, 0, 7, 98
2, 3960, Note_on_c, 0, 64, 0
2, 3960, Note_on_c, 0, 72, 65
2, 3990, Note_on_c, 0, 72, 0
2, 3990, Note_on_c, 0, 62, 65
2, 4000, Control_c, 0, 7, 99
2, 4020, Note_on_c, 0, 62, 0
2, 4020, Note_on_c, 0, 64, 65
2, 4040, Control_c, 0, 7, 100
2, 4050, Note_on_c, 0, 64, 0
2, 4050, Note_on_c, 0, 66, 65
2, 4080, Note_on_c, 0, 66, 0
2, 4080, Note_on_c, 0, 67, 65
2, 4080, Control_c, 0, 7, 101
2, 4110, Note_on_c, 0, 67, 0
2, 4110, Note_on_c, 0, 69, 65
2, 4130, Control_c, 0, 7, 102
2, 4140, Note_on_c, 0, 69, 0
2, 4140, Note_on_c, 0, 70, 65
2, 4170, Note_on_c, 0, 70, 0
2, 4170, Note_on_c, 0, 69, 65
2, 4170, Control_c, 0, 7, 103
2, 4200, Note_on_c, 0, 69, 0
2, 4200, Note_on_c, 0, 67, 65
2, 4220, Control_c, 0, 7, 104
2, 4230, Note_on_c, 0, 67, 0
2, 4230, Note_on_c, 0, 65, 65
2, 4260, Note_on_c, 0, 65, 0
2, 4260, Note_on_c, 0, 64, 65
2, 4260, Control_c, 0, 7, 105
2, 4290, Note_on_c, 0, 64, 0
2, 4290, Note_on_c, 0, 62, 65
2, 4310, Control_c, 0, 7, 106
2, 4320, Note_on_c, 0, 62, 0
2, 4320, Note_on_c, 0, 70, 65
2, 4350, Note_on_c, 0, 70, 0
2, 4350, Note_on_c, 0, 60, 65
2, 4350, Control_c, 0, 7, 107
2, 4380, Note_on_c, 0, 60, 0
2, 4380, Note_on_c, 0, 62, 65
2, 4390, Control_c, 0, 7, 108
2, 4410, Note_on_c, 0, 62, 0
2, 4410, Note_on_c, 0, 64, 65
2, 4440, Note_on_c, 0, 64, 0
2, 4440, Note_on_c, 0, 65, 65
2, 4440, Control_c, 0, 7, 109
2, 4470, Note_on_c, 0, 65, 0
2, 4470, Note_on_c, 0, 67, 65
2, 4480, Control_c, 0, 7, 110
2, 4500, Note_on_c, 0, 67, 0
2, 4500, Note_on_c, 0, 69, 65
2, 4530, Note_on_c, 0, 69, 0
2, 4530, Note_on_c, 0, 71, 65
2, 4530, Control_c, 0, 7, 111
2, 4560, Note_on_c, 0, 71, 0
2, 4560, Note_on_c, 0, 72, 65
2, 4570, Control_c, 0, 7, 112
2, 4590, Note_on_c, 0, 72, 0
2, 4590, Note_on_c, 0, 74, 65
2, 4620, Note_on_c, 0, 74, 0
2, 4620, Note_on_c, 0, 76, 65
2, 4620, Control_c, 0, 7, 113
2, 4650, Note_on_c, 0, 76, 0
2, 4650, Note_on_c, 0, 77, 65
2, 4660, Control_c, 0, 7, 114
2, 4670, Control_c, 0, 7, 115
2, 4680, Note_on_c, 0, 77, 0
2, 4680, Note_on_c, 0, 68, 65
2, 4690, Control_c, 0, 7, 114
2, 4700, Control_c, 0, 7, 113
2, 4710, Note_on_c, 0, 68, 0
2, 4710, Note_on_c, 0, 77, 65
2, 4710, Control_c, 0, 7, 112
2, 4720, Control_c, 0, 7, 111
2, 4730, Control_c, 0, 7, 110
2, 4740, Note_on_c, 0, 77, 0
2, 4740, Note_on_c, 0, 76, 65
2, 4740, Control_c, 0, 7, 109
2, 4750, Control_c, 0, 7, 108
2, 4760, Control_c, 0, 7, 107
2, 4770, Note_on_c, 0, 76, 0
2, 4770, Note_on_c, 0, 74, 65
2, 4770, Control_c, 0, 7, 106
2, 4780, Control_c, 0, 7, 105
2, 4790, Control_c, 0, 7, 104
2, 4800, Note_on_c, 0, 74, 0
2, 4800, Note_on_c, 0, 72, 65
2, 4800, Control_c, 0, 7, 103
2, 4810, Control_c, 0, 7, 102
2, 4820, Control_c, 0, 7, 101
2, 4830, Note_on_c, 0, 72, 0
2, 4830, Note_on_c, 0, 71, 65
2, 4830, Control_c, 0, 7, 100
2, 4840, Control_c, 0, 7, 99
2, 4850, Control_c, 0, 7, 98
2, 4860, Note_on_c, 0, 71, 0
2, 4860, Note_on_c, 0, 72, 65
2, 4860, Control_c, 0, 7, 97
2, 4880, Control_c, 0, 7, 96
2, 4890, Note_on_c, 0, 72, 0
2, 4890, Note_on_c, 0, 71, 65
2, 4890, Control_c, 0, 7, 95
2, 4900, Control_c, 0, 7, 94
2, 4910, Control_c, 0, 7, 93
2, 4920, Note_on_c, 0, 71, 0
2, 4920, Note_on_c, 0, 74, 65
2, 4920, Control_c, 0, 7, 92
2, 4930, Control_c, 0, 7, 91
2, 4940, Control_c, 0, 7, 90
2, 4950, Note_on_c, 0, 74, 0
2, 4950, Note_on_c, 0, 72, 65
2, 4950, Control_c, 0, 7, 89
2, 4960, Control_c, 0, 7, 88
2, 4970, Control_c, 0, 7, 87
2, 4980, Note_on_c, 0, 72, 0
2, 4980, Note_on_c, 0, 71, 65
2, 4980, Control_c, 0, 7, 86
2, 4990, Control_c, 0, 7, 85
2, 5000, Control_c, 0, 7, 84
2, 5010, Note_on_c, 0, 71, 0
2, 5010, Note_on_c, 0, 69, 65
2, 5010, Control_c, 0, 7, 83
2, 5020, Control_c, 0, 7, 82
2, 5030, Control_c, 0, 7, 81
2, 5040, Note_on_c, 0, 69, 0
2, 5040, Note_on_c, 0, 68, 65
2, 5040, Control_c, 0, 7, 80
2, 5050, Control_c, 0, 7, 82
2, 5070, Note_on_c, 0, 68, 0
2, 5070, Note_on_c, 0, 69, 65
2, 5090, Control_c, 0, 7, 83
2, 5100, Note_on_c, 0, 69, 0
2, 5100, Note_on_c, 0, 68, 65
2, 5130, Note_on_c, 0, 68, 0
2, 5130, Note_on_c, 0, 66, 65
2, 5130, Control_c, 0, 7, 84
2, 5160, Note_on_c, 0, 66, 0
2, 5160, Note_on_c, 0, 64, 65
2, 5170, Control_c, 0, 7, 85
2, 5190, Note_on_c, 0, 64, 0
2, 5190, Note_on_c, 0, 62, 65
2, 5210, Control_c, 0, 7, 86
2, 5220, Note_on_c, 0, 62, 0
2, 5220, Note_on_c, 0, 60, 65
2, 5250, Note_on_c, 0, 60, 0
2, 5250, Note_on_c, 0, 62, 65
2, 5250, Control_c, 0, 7, 87
2, 5280, Note_on_c, 0, 62, 0
2, 5280, Note_on_c, 0, 64, 65
2, 5290, Control_c, 0, 7, 88
2, 5310, Note_on_c, 0, 64, 0
2, 5310, Note_on_c, 0, 66, 65
2, 5330, Control_c, 0, 7, 89
2, 5340, Note_on_c, 0, 66, 0
2, 5340, Note_on_c, 0, 68, 65
2, 5370, Note_on_c, 0, 68, 0
2, 5370, Note_on_c, 0, 69, 65
2, 5370, Control_c, 0, 7, 90
2, 5400, Note_on_c, 0, 69, 0
2, 5400, Note_on_c, 0, 62, 65
2, 5410, Control_c, 0, 7, 91
2, 5430, Note_on_c, 0, 62, 0
2, 5430, Note_on_c, 0, 72, 65
2, 5450, Control_c, 0, 7, 92
2, 5460, Note_on_c, 0, 72, 0
2, 5460, Note_on_c, 0, 71, 65
2, 5490, Note_on_c, 0, 71, 0
2, 5490, Note_on_c, 0, 69, 65
2, 5490, Control_c, 0, 7, 93
2, 5520, Note_on_c, 0, 69, 0
2, 5520, Note_on_c, 0, 68, 65
2, 5530, Control_c, 0, 7, 94
2, 5550, Note_on_c, 0, 68, 0
2, 5550, Note_on_c, 0, 66, 65
2, 5570, Control_c, 0, 7, 95
2, 5580, Note_on_c, 0, 66, 0
2, 5580, Note_on_c, 0, 64, 65
2, 5610, Note_on_c, 0, 64, 0
2, 5610, Note_on_c, 0, 66, 65
2, 5610, Control_c, 0, 7, 96
2, 5640, Note_on_c, 0, 66, 0
2, 5640, Note_on_c, 0, 68, 65
2, 5650, Control_c, 0, 7, 97
2, 5670, Note_on_c, 0, 68, 0
2, 5670, Note_on_c, 0, 69, 65
2, 5680, Control_c, 0, 7, 98
2, 5700, Note_on_c, 0, 69, 0
2, 5700, Note_on_c, 0, 71, 65
2, 5720, Control_c, 0, 7, 99
2, 5730, Note_on_c, 0, 71, 0
2, 5730, Note_on_c, 0, 72, 65
2, 5760, Note_on_c, 0, 72, 0
2, 5760, Note_on_c, 0, 66, 65
2, 5760, Control_c, 0, 7, 100
2, 5790, Note_on_c, 0, 66, 0
2, 5790, Note_on_c, 0, 76, 65
2, 5800, Control_c, 0, 7, 101
2, 5820, Note_on_c, 0, 76, 0
2, 5820, Note_on_c, 0, 74, 65
2, 5840, Control_c, 0, 7, 102
2, 5850, Note_on_c, 0, 74, 0
2, 5850, Note_on_c, 0, 72, 65
2, 5880, Note_on_c, 0, 72, 0
2, 5880, Note_on_c, 0, 71, 65
2, 5880, Control_c, 0, 7, 103
2, 5910, Note_on_c, 0, 71, 0
2, 5910, Note_on_c, 0, 69, 65
2, 5920, Control_c, 0, 7, 104
2, 5940, Note_on_c, 0, 69, 0
2, 5940, Note_on_c, 0, 68, 65
2, 5960, Control_c, 0, 7, 105
2, 5970, Note_on_c, 0, 68, 0
2, 5970, Note_on_c, 0, 69, 65
2, 6000, Note_on_c, 0, 69, 0
2, 6000, Note_on_c, 0, 71, 65
2, 6000, Control_c, 0, 7, 106
2, 6030, Note_on_c, 0, 71, 0
2, 6030, Note_on_c, 0, 72, 65
2, 6040, Control_c, 0, 7, 107
2, 6060, Note_on_c, 0, 72, 0
2, 6060, Note_on_c, 0, 74, 65
2, 6080, Control_c, 0, 7, 108
2, 6090, Note_on_c, 0, 74, 0
2, 6090, Note_on_c, 0, 76, 65
2, 6120, Note_on_c, 0, 76, 0
2, 6120, Note_on_c, 0, 69, 65
2, 6120, Control_c, 0, 7, 109
2, 6150, Note_on_c, 0, 69, 0
2, 6150, Note_on_c, 0, 77, 65
2, 6160, Control_c, 0, 7, 110
2, 6180, Note_on_c, 0, 77, 0
2, 6180, Note_on_c, 0, 76, 65
2, 6200, Control_c, 0, 7, 111
2, 6210, Note_on_c, 0, 76, 0
2, 6210, Note_on_c, 0, 74, 65
2, 6240, Note_on_c, 0, 74, 0
2, 6240, Note_on_c, 0, 72, 65
2, 6240, Control_c, 0, 7, 112
2, 6270, Note_on_c, 0, 72, 0
2, 6270, Note_on_c, 0, 71, 65
2, 6280, Control_c, 0, 7, 112
2, 6290, Control_c, 0, 7, 111
2, 6300, Note_on_c, 0, 71, 0
2, 6300, Note_on_c, 0, 81, 65
2, 6300, Control_c, 0, 7, 109
2, 6310, Control_c, 0, 7, 107
2, 6320, Control_c, 0, 7, 105
2, 6330, Note_on_c, 0, 81, 0
2, 6330, Note_on_c, 0, 80, 65
2, 6330, Control_c, 0, 7, 104
2, 6340, Control_c, 0, 7, 102
2, 6350, Control_c, 0, 7, 100
2, 6360, Note_on_c, 0, 80, 0
2, 6360, Note_on_c, 0, 78, 65
2, 6360, Control_c, 0, 7, 98
2, 6370, Control_c, 0, 7, 97
2, 6380, Control_c, 0, 7, 95
2, 6390, Note_on_c, 0, 78, 0
2, 6390, Note_on_c, 0, 76, 65
2, 6390, Control_c, 0, 7, 93
2, 6400, Control_c, 0, 7, 91
2, 6410, Control_c, 0, 7, 90
2, 6420, Note_on_c, 0, 76, 0
2, 6420, Note_on_c, 0, 81, 65
2, 6420, Control_c, 0, 7, 88
2, 6430, Control_c, 0, 7, 86
2, 6440, Control_c, 0, 7, 84
2, 6450, Control_c, 0, 7, 83
2, 6460, Control_c, 0, 7, 81
2, 6470, Control_c, 0, 7, 77
2, 6510, Note_on_c, 0, 81, 0
2, 6510, Note_on_c, 0, 74, 65
2, 6530, Control_c, 0, 7, 78
2, 6540, Note_on_c, 0, 74, 0
2, 6540, Note_on_c, 0, 71, 65
2, 6555, Note_on_c, 0, 71, 0
2, 6555, Note_on_c, 0, 69, 65
2, 6570, Note_on_c, 0, 69, 0
2, 6570, Note_on_c, 0, 71, 65
2, 6585, Note_on_c, 0, 71, 0
2, 6585, Note_on_c, 0, 69, 65
2, 6590, Control_c, 0, 7, 79
2, 6600, Note_on_c, 0, 69, 0
2, 6600, Note_on_c, 0, 71, 65
2, 6615, Note_on_c, 0, 71, 0
2, 6615, Note_on_c, 0, 69, 65
2, 6630, Note_on_c, 0, 69, 0
2, 6630, Note_on_c, 0, 69, 65
2, 6650, Control_c, 0, 7, 80
2, 6660, Note_on_c, 0, 69, 0
2, 6663, Note_on_c, 0, 69, 110
2, 6710, Control_c, 0, 7, 81
2, 6750, Note_on_c, 0, 69, 65
2, 6753, Note_on_c, 0, 69, 0
2, 6770, Control_c, 0, 7, 82
2, 6780, Note_on_c, 0, 69, 0
2, 6780, Note_on_c, 0, 70, 65
2, 6810, Note_on_c, 0, 70, 0
2, 6810, Note_on_c, 0, 72, 65
2, 6820, Control_c, 0, 7, 83
2, 6840, Note_on_c, 0, 72, 0
2, 6840, Note_on_c, 0, 62, 65
2, 6880, Control_c, 0, 7, 84
2, 6900, Note_on_c, 0, 62, 0
2, 6900, Note_on_c, 0, 66, 65
2, 6940, Control_c, 0, 7, 85
2, 6960, Note_on_c, 0, 66, 0
2, 6960, Note_on_c, 0, 69, 65
2, 7000, Control_c, 0, 7, 86
2, 7020, Note_on_c, 0, 69, 0
2, 7020, Note_on_c, 0, 70, 65
2, 7050, Note_on_c, 0, 70, 0
2, 7050, Note_on_c, 0, 67, 65
2, 7060, Control_c, 0, 7, 87
2, 7080, Note_on_c, 0, 67, 0
2, 7080, Note_on_c, 0, 69, 65
2, 7110, Note_on_c, 0, 69, 0
2, 7110, Note_on_c, 0, 70, 65
2, 7110, Control_c, 0, 7, 88
2, 7140, Note_on_c, 0, 70, 0
2, 7140, Note_on_c, 0, 72, 65
2, 7170, Note_on_c, 0, 72, 0
2, 7170, Note_on_c, 0, 74, 65
2, 7170, Control_c, 0, 7, 89
2, 7200, Note_on_c, 0, 74, 0
2, 7200, Note_on_c, 0, 64, 65
2, 7230, Note_on_c, 0, 64, 0
2, 7230, Note_on_c, 0, 74, 65
2, 7230, Control_c, 0, 7, 90
2, 7260, Note_on_c, 0, 74, 0
2, 7260, Note_on_c, 0, 72, 65
2, 7290, Note_on_c, 0, 72, 0
2, 7290, Note_on_c, 0, 70, 65
2, 7290, Control_c, 0, 7, 91
2, 7320, Note_on_c, 0, 70, 0
2, 7320, Note_on_c, 0, 69, 65
2, 7350, Note_on_c, 0, 69, 0
2, 7350, Note_on_c, 0, 67, 65
2, 7350, Control_c, 0, 7, 92
2, 7380, Note_on_c, 0, 67, 0
2, 7380, Note_on_c, 0, 69, 65
2, 7410, Control_c, 0, 7, 93
2, 7440, Note_on_c, 0, 69, 0
2, 7440, Note_on_c, 0, 77, 65
2, 7460, Control_c, 0, 7, 94
2, 7470, Note_on_c, 0, 77, 0
2, 7470, Note_on_c, 0, 76, 65
2, 7500, Note_on_c, 0, 76, 0
2, 7500, Note_on_c, 0, 77, 65
2, 7520, Control_c, 0, 7, 95
2, 7560, Note_on_c, 0, 77, 0
2, 7560, Note_on_c, 0, 67, 65
2, 7580, Control_c, 0, 7, 96
2, 7617, Note_on_c, 0, 76, 65
2, 7620, Note_on_c, 0, 67, 0
2, 7640, Control_c, 0, 7, 97
2, 7677, Note_on_c, 0, 76, 0
2, 7700, Control_c, 0, 7, 98
2, 7740, Note_on_c, 0, 74, 65
2, 7750, Control_c, 0, 7, 99
2, 7770, Note_on_c, 0, 74, 0
2, 7770, Note_on_c, 0, 76, 65
2, 7800, Note_on_c, 0, 76, 0
2, 7800, Note_on_c, 0, 77, 65
2, 7810, Control_c, 0, 7, 100
2, 7830, Note_on_c, 0, 77, 0
2, 7830, Note_on_c, 0, 79, 65
2, 7860, Note_on_c, 0, 79, 0
2, 7860, Note_on_c, 0, 81, 65
2, 7870, Control_c, 0, 7, 101
2, 7890, Note_on_c, 0, 81, 0
2, 7890, Note_on_c, 0, 82, 65
2, 7920, Note_on_c, 0, 82, 0
2, 7920, Note_on_c, 0, 73, 65
2, 7930, Control_c, 0, 7, 102
2, 7950, Note_on_c, 0, 73, 0
2, 7950, Note_on_c, 0, 82, 65
2, 7980, Note_on_c, 0, 82, 0
2, 7980, Note_on_c, 0, 81, 65
2, 7990, Control_c, 0, 7, 103
2, 8010, Note_on_c, 0, 81, 0
2, 8010, Note_on_c, 0, 79, 65
2, 8040, Note_on_c, 0, 79, 0
2, 8040, Note_on_c, 0, 77, 65
2, 8050, Control_c, 0, 7, 104
2, 8070, Note_on_c, 0, 77, 0
2, 8070, Note_on_c, 0, 76, 65
2, 8100, Note_on_c, 0, 76, 0
2, 8100, Note_on_c, 0, 77, 65
2, 8100, Control_c, 0, 7, 105
2, 8160, Note_on_c, 0, 77, 0
2, 8160, Control_c, 0, 7, 106
2, 8161, Note_on_c, 0, 74, 65
2, 8220, Note_on_c, 0, 67, 65
2, 8220, Control_c, 0, 7, 107
2, 8221, Note_on_c, 0, 74, 0
2, 8280, Control_c, 0, 7, 108
2, 8310, Note_on_c, 0, 67, 0
2, 8310, Note_on_c, 0, 74, 65
2, 8340, Note_on_c, 0, 74, 0
2, 8340, Note_on_c, 0, 73, 65
2, 8340, Control_c, 0, 7, 109
2, 8370, Note_on_c, 0, 73, 0
2, 8370, Note_on_c, 0, 76, 65
2, 8390, Control_c, 0, 7, 110
2, 8400, Note_on_c, 0, 76, 0
2, 8400, Note_on_c, 0, 69, 65
2, 8430, Note_on_c, 0, 69, 0
2, 8430, Note_on_c, 0, 73, 65
2, 8450, Control_c, 0, 7, 111
2, 8460, Note_on_c, 0, 73, 0
2, 8460, Note_on_c, 0, 74, 65
2, 8490, Note_on_c, 0, 74, 0
2, 8490, Note_on_c, 0, 71, 65
2, 8510, Control_c, 0, 7, 112
2, 8520, Note_on_c, 0, 71, 0
2, 8520, Note_on_c, 0, 73, 65
2, 8535, Note_on_c, 0, 73, 0
2, 8535, Note_on_c, 0, 71, 65
2, 8550, Note_on_c, 0, 71, 0
2, 8550, Note_on_c, 0, 73, 65
2, 8565, Note_on_c, 0, 73, 0
2, 8565, Note_on_c, 0, 71, 65
2, 8570, Control_c, 0, 7, 113
2, 8580, Note_on_c, 0, 71, 0
2, 8580, Note_on_c, 0, 73, 65
2, 8595, Note_on_c, 0, 73, 0
2, 8595, Note_on_c, 0, 71, 65
2, 8610, Note_on_c, 0, 71, 0
2, 8610, Note_on_c, 0, 74, 65
2, 8630, Control_c, 0, 7, 114
2, 8640, Note_on_c, 0, 74, 0
2, 8640, Note_on_c, 0, 74, 65
2, 8670, Note_on_c, 0, 74, 0
2, 8670, Note_on_c, 0, 72, 65
2, 8680, Control_c, 0, 7, 115
2, 8700, Note_on_c, 0, 72, 0
2, 8700, Note_on_c, 0, 70, 65
2, 8730, Note_on_c, 0, 70, 0
2, 8730, Note_on_c, 0, 69, 65
2, 8740, Control_c, 0, 7, 113
2, 8760, Note_on_c, 0, 69, 0
2, 8760, Note_on_c, 0, 67, 65
2, 8760, Control_c, 0, 7, 112
2, 8770, Control_c, 0, 7, 111
2, 8780, Control_c, 0, 7, 110
2, 8790, Note_on_c, 0, 67, 0
2, 8790, Note_on_c, 0, 65, 65
2, 8800, Control_c, 0, 7, 109
2, 8810, Control_c, 0, 7, 108
2, 8820, Note_on_c, 0, 65, 0
2, 8820, Note_on_c, 0, 70, 66
2, 8820, Control_c, 0, 7, 107
2, 8830, Control_c, 0, 7, 106
2, 8850, Note_on_c, 0, 70, 0
2, 8850, Note_on_c, 0, 61, 65
2, 8850, Control_c, 0, 7, 105
2, 8860, Control_c, 0, 7, 104
2, 8870, Control_c, 0, 7, 103
2, 8880, Note_on_c, 0, 61, 0
2, 8880, Note_on_c, 0, 62, 65
2, 8880, Control_c, 0, 7, 102
2, 8900, Control_c, 0, 7, 101
2, 8910, Note_on_c, 0, 62, 0
2, 8910, Note_on_c, 0, 64, 65
2, 8910, Control_c, 0, 7, 100
2, 8920, Control_c, 0, 7, 99
2, 8940, Note_on_c, 0, 64, 0
2, 8940, Note_on_c, 0, 65, 65
2, 8940, Control_c, 0, 7, 98
2, 8950, Control_c, 0, 7, 97
2, 8960, Control_c, 0, 7, 96
2, 8970, Note_on_c, 0, 65, 0
2, 8970, Note_on_c, 0, 67, 65
2, 8970, Control_c, 0, 7, 95
2, 8990, Control_c, 0, 7, 94
2, 9000, Note_on_c, 0, 67, 0
2, 9000, Note_on_c, 0, 69, 65
2, 9000, Control_c, 0, 7, 93
2, 9010, Control_c, 0, 7, 92
2, 9020, Control_c, 0, 7, 91
2, 9030, Note_on_c, 0, 69, 0
2, 9030, Note_on_c, 0, 74, 65
2, 9040, Control_c, 0, 7, 90
2, 9050, Control_c, 0, 7, 89
2, 9058, Note_on_c, 0, 65, 65
2, 9060, Note_on_c, 0, 74, 0
2, 9060, Control_c, 0, 7, 88
2, 9080, Control_c, 0, 7, 87
2, 9090, Control_c, 0, 7, 86
2, 9100, Control_c, 0, 7, 85
2, 9110, Control_c, 0, 7, 84
2, 9118, Note_on_c, 0, 65, 0
2, 9120, Note_on_c, 0, 64, 65
2, 9125, Note_on_c, 0, 64, 0
2, 9127, Note_on_c, 0, 65, 65
2, 9130, Control_c, 0, 7, 83
2, 9132, Note_on_c, 0, 65, 0
2, 9135, Note_on_c, 0, 64, 65
2, 9140, Control_c, 0, 7, 82
2, 9147, Note_on_c, 0, 64, 0
2, 9150, Note_on_c, 0, 62, 65
2, 9150, Control_c, 0, 7, 81
2, 9160, Control_c, 0, 7, 80
2, 9180, Note_on_c, 0, 62, 0
2, 9180, Note_on_c, 0, 62, 110
2, 9180, Control_c, 0, 7, 79
2, 9190, Control_c, 0, 7, 78
2, 9200, Control_c, 0, 7, 77
2, 9220, Control_c, 0, 7, 76
2, 9230, Control_c, 0, 7, 75
2, 9240, Control_c, 0, 7, 74
2, 9250, Control_c, 0, 7, 73
2, 9270, Control_c, 0, 7, 72
2, 9280, Control_c, 0, 7, 71
2, 9290, Control_c, 0, 7, 70
2, 9300, Control_c, 0, 7, 69
2, 9320, Control_c, 0, 7, 68
2, 9330, Control_c, 0, 7, 67
2, 9340, Control_c, 0, 7, 66
2, 9350, Control_c, 0, 7, 65
2, 9360, Note_on_c, 0, 62, 0
2, 9360, End_track
3, 0, Start_track
3, 0, MIDI_port, 0
3, 0, Title_t, "Track 2"
3, 0, Program_c, 1, 0
3, 0, Control_c, 1, 7, 90
3, 0, Control_c, 1, 10, 64
3, 0, Control_c, 1, 7, 87
3, 0, Control_c, 1, 93, 77
3, 60, Note_on_c, 1, 50, 64
3, 90, Note_on_c, 1, 50, 0
3, 90, Note_on_c, 1, 52, 64
3, 120, Note_on_c, 1, 52, 0
3, 120, Note_on_c, 1, 53, 64
3, 150, Note_on_c, 1, 53, 0
3, 150, Note_on_c, 1, 55, 64
3, 180, Note_on_c, 1, 55, 0
3, 180, Note_on_c, 1, 57, 64
3, 240, Note_on_c, 1, 57, 0
3, 240, Note_on_c, 1, 49, 64
3, 270, Note_on_c, 1, 49, 0
3, 270, Note_on_c, 1, 58, 64
3, 300, Note_on_c, 1, 58, 0
3, 300, Note_on_c, 1, 57, 64
3, 330, Note_on_c, 1, 57, 0
3, 330, Note_on_c, 1, 55, 64
3, 360, Note_on_c, 1, 55, 0
3, 364, Note_on_c, 1, 57, 64
3, 420, Note_on_c, 1, 62, 64
3, 424, Note_on_c, 1, 57, 0
3, 450, Note_on_c, 1, 62, 0
3, 450, Note_on_c, 1, 64, 64
3, 480, Note_on_c, 1, 64, 0
3, 480, Note_on_c, 1, 65, 64
3, 510, Note_on_c, 1, 65, 0
3, 510, Note_on_c, 1, 67, 64
3, 540, Note_on_c, 1, 67, 0
3, 540, Note_on_c, 1, 64, 64
3, 630, Note_on_c, 1, 64, 0
3, 630, Note_on_c, 1, 70, 64
3, 660, Note_on_c, 1, 70, 0
3, 660, Note_on_c, 1, 69, 64
3, 690, Note_on_c, 1, 69, 0
3, 690, Note_on_c, 1, 67, 64
3, 720, Note_on_c, 1, 67, 0
3, 720, Note_on_c, 1, 69, 64
3, 780, Note_on_c, 1, 69, 0
3, 780, Note_on_c, 1, 62, 64
3, 810, Note_on_c, 1, 62, 0
3, 810, Note_on_c, 1, 64, 64
3, 840, Note_on_c, 1, 64, 0
3, 840, Note_on_c, 1, 65, 64
3, 870, Note_on_c, 1, 65, 0
3, 870, Note_on_c, 1, 67, 64
3, 900, Note_on_c, 1, 67, 0
3, 900, Note_on_c, 1, 69, 64
3, 960, Note_on_c, 1, 69, 0
3, 960, Note_on_c, 1, 61, 64
3, 990, Note_on_c, 1, 61, 0
3, 990, Note_on_c, 1, 70, 64
3, 1020, Note_on_c, 1, 70, 0
3, 1020, Note_on_c, 1, 69, 64
3, 1050, Note_on_c, 1, 69, 0
3, 1050, Note_on_c, 1, 67, 64
3, 1080, Note_on_c, 1, 67, 0
3, 1080, Note_on_c, 1, 65, 64
3, 1110, Note_on_c, 1, 65, 0
3, 1110, Note_on_c, 1, 79, 64
3, 1140, Note_on_c, 1, 79, 0
3, 1140, Note_on_c, 1, 77, 64
3, 1170, Note_on_c, 1, 77, 0
3, 1170, Note_on_c, 1, 76, 64
3, 1200, Note_on_c, 1, 76, 0
3, 1200, Note_on_c, 1, 74, 64
3, 1230, Note_on_c, 1, 74, 0
3, 1230, Note_on_c, 1, 72, 64
3, 1260, Note_on_c, 1, 72, 0
3, 1260, Note_on_c, 1, 74, 64
3, 1290, Note_on_c, 1, 74, 0
3, 1290, Note_on_c, 1, 70, 64
3, 1320, Note_on_c, 1, 70, 0
3, 1320, Note_on_c, 1, 72, 64
3, 1350, Note_on_c, 1, 72, 0
3, 1350, Note_on_c, 1, 74, 64
3, 1380, Note_on_c, 1, 74, 0
3, 1380, Note_on_c, 1, 76, 64
3, 1410, Note_on_c, 1, 76, 0
3, 1410, Note_on_c, 1, 77, 64
3, 1440, Note_on_c, 1, 77, 0
3, 1440, Note_on_c, 1, 67, 64
3, 1470, Note_on_c, 1, 67, 0
3, 1470, Note_on_c, 1, 77, 64
3, 1500, Note_on_c, 1, 77, 0
3, 1500, Note_on_c, 1, 76, 64
3, 1530, Note_on_c, 1, 76, 0
3, 1530, Note_on_c, 1, 74, 64
3, 1560, Note_on_c, 1, 74, 0
3, 1560, Note_on_c, 1, 72, 64
3, 1590, Note_on_c, 1, 72, 0
3, 1590, Note_on_c, 1, 70, 64
3, 1620, Note_on_c, 1, 70, 0
3, 1620, Note_on_c, 1, 72, 64
3, 1650, Note_on_c, 1, 72, 0
3, 1650, Note_on_c, 1, 69, 64
3, 1680, Note_on_c, 1, 69, 0
3, 1680, Note_on_c, 1, 70, 64
3, 1710, Note_on_c, 1, 70, 0
3, 1710, Note_on_c, 1, 72, 64
3, 1740, Note_on_c, 1, 72, 0
3, 1740, Note_on_c, 1, 74, 64
3, 1770, Note_on_c, 1, 74, 0
3, 1770, Note_on_c, 1, 76, 64
3, 1800, Note_on_c, 1, 76, 0
3, 1800, Note_on_c, 1, 74, 64
3, 1860, Note_on_c, 1, 74, 0
3, 1860, Note_on_c, 1, 72, 64
3, 1887, Note_on_c, 1, 70, 64
3, 1890, Note_on_c, 1, 72, 0
3, 1977, Note_on_c, 1, 70, 0
3, 1980, Note_on_c, 1, 72, 64
3, 2010, Note_on_c, 1, 72, 0
3, 2010, Note_on_c, 1, 70, 64
3, 2040, Note_on_c, 1, 70, 0
3, 2040, Note_on_c, 1, 69, 64
3, 2070, Note_on_c, 1, 69, 0
3, 2070, Note_on_c, 1, 67, 64
3, 2100, Note_on_c, 1, 67, 0
3, 2100, Note_on_c, 1, 65, 64
3, 2130, Note_on_c, 1, 65, 0
3, 2130, Note_on_c, 1, 64, 64
3, 2160, Note_on_c, 1, 64, 0
3, 2160, Note_on_c, 1, 65, 64
3, 2175, Note_on_c, 1, 65, 0
3, 2175, Note_on_c, 1, 64, 64
3, 2190, Note_on_c, 1, 64, 0
3, 2190, Note_on_c, 1, 65, 64
3, 2205, Note_on_c, 1, 65, 0
3, 2205, Note_on_c, 1, 64, 64
3, 2220, Note_on_c, 1, 64, 0
3, 2220, Note_on_c, 1, 65, 64
3, 2235, Note_on_c, 1, 65, 0
3, 2235, Note_on_c, 1, 64, 64
3, 2250, Note_on_c, 1, 64, 0
3, 2250, Note_on_c, 1, 65, 64
3, 2265, Note_on_c, 1, 65, 0
3, 2265, Note_on_c, 1, 64, 64
3, 2280, Note_on_c, 1, 64, 0
3, 2280, Note_on_c, 1, 65, 64
3, 2295, Note_on_c, 1, 65, 0
3, 2295, Note_on_c, 1, 64, 64
3, 2310, Note_on_c, 1, 64, 0
3, 2310, Note_on_c, 1, 65, 64
3, 2325, Note_on_c, 1, 65, 0
3, 2325, Note_on_c, 1, 64, 64
3, 2340, Note_on_c, 1, 64, 0
3, 2340, Note_on_c, 1, 65, 64
3, 2370, Note_on_c, 1, 65, 0
3, 2370, Note_on_c, 1, 69, 64
3, 2400, Note_on_c, 1, 69, 0
3, 2400, Note_on_c, 1, 67, 64
3, 2430, Note_on_c, 1, 67, 0
3, 2430, Note_on_c, 1, 65, 64
3, 2460, Note_on_c, 1, 65, 0
3, 2460, Note_on_c, 1, 64, 64
3, 2490, Note_on_c, 1, 64, 0
3, 2490, Note_on_c, 1, 62, 64
3, 2520, Note_on_c, 1, 62, 0
3, 2520, Note_on_c, 1, 60, 64
3, 2550, Note_on_c, 1, 60, 0
3, 2550, Note_on_c, 1, 64, 64
3, 2580, Note_on_c, 1, 64, 0
3, 2580, Note_on_c, 1, 65, 64
3, 2610, Note_on_c, 1, 65, 0
3, 2610, Note_on_c, 1, 67, 64
3, 2640, Note_on_c, 1, 67, 0
3, 2640, Note_on_c, 1, 69, 64
3, 2670, Note_on_c, 1, 69, 0
3, 2670, Note_on_c, 1, 70, 64
3, 2694, Note_on_c, 1, 70, 0
3, 2700, Note_on_c, 1, 60, 64
3, 2756, Note_on_c, 1, 65, 64
3, 2760, Note_on_c, 1, 60, 0
3, 2816, Note_on_c, 1, 65, 0
3, 2820, Note_on_c, 1, 69, 64
3, 2910, Note_on_c, 1, 69, 0
3, 2910, Note_on_c, 1, 70, 64
3, 2940, Note_on_c, 1, 70, 0
3, 2940, Note_on_c, 1, 65, 64
3, 2995, Note_on_c, 1, 64, 64
3, 3000, Note_on_c, 1, 65, 0
3, 3055, Note_on_c, 1, 64, 0
3, 3061, Note_on_c, 1, 65, 64
3, 3121, Note_on_c, 1, 65, 0
3, 3240, Note_on_c, 1, 60, 64
3, 3270, Note_on_c, 1, 60, 0
3, 3270, Note_on_c, 1, 64, 64
3, 3300, Note_on_c, 1, 64, 0
3, 3300, Note_on_c, 1, 65, 64
3, 3330, Note_on_c, 1, 65, 0
3, 3330, Note_on_c, 1, 67, 64
3, 3360, Note_on_c, 1, 67, 0
3, 3360, Note_on_c, 1, 69, 64
3, 3390, Note_on_c, 1, 69, 0
3, 3390, Note_on_c, 1, 70, 64
3, 3420, Note_on_c, 1, 70, 0
3, 3420, Note_on_c, 1, 60, 64
3, 3450, Note_on_c, 1, 60, 0
3, 3450, Note_on_c, 1, 70, 64
3, 3480, Note_on_c, 1, 70, 0
3, 3480, Note_on_c, 1, 69, 64
3, 3510, Note_on_c, 1, 69, 0
3, 3510, Note_on_c, 1, 67, 64
3, 3540, Note_on_c, 1, 67, 0
3, 3540, Note_on_c, 1, 65, 64
3, 3570, Note_on_c, 1, 65, 0
3, 3570, Note_on_c, 1, 62, 64
3, 3600, Note_on_c, 1, 62, 0
3, 3600, Note_on_c, 1, 64, 64
3, 3630, Note_on_c, 1, 64, 0
3, 3630, Note_on_c, 1, 65, 64
3, 3660, Note_on_c, 1, 65, 0
3, 3660, Note_on_c, 1, 67, 64
3, 3690, Note_on_c, 1, 67, 0
3, 3690, Note_on_c, 1, 69, 64
3, 3720, Note_on_c, 1, 69, 0
3, 3720, Note_on_c, 1, 70, 64
3, 3750, Note_on_c, 1, 70, 0
3, 3750, Note_on_c, 1, 72, 64
3, 3780, Note_on_c, 1, 72, 0
3, 3780, Note_on_c, 1, 62, 64
3, 3810, Note_on_c, 1, 62, 0
3, 3810, Note_on_c, 1, 74, 64
3, 3840, Note_on_c, 1, 74, 0
3, 3840, Note_on_c, 1, 72, 64
3, 3870, Note_on_c, 1, 72, 0
3, 3870, Note_on_c, 1, 70, 64
3, 3900, Note_on_c, 1, 70, 0
3, 3900, Note_on_c, 1, 69, 64
3, 3930, Note_on_c, 1, 69, 0
3, 3930, Note_on_c, 1, 67, 64
3, 3960, Note_on_c, 1, 67, 0
3, 3960, Note_on_c, 1, 69, 64
3, 3990, Note_on_c, 1, 69, 0
3, 3990, Note_on_c, 1, 70, 64
3, 4020, Note_on_c, 1, 70, 0
3, 4020, Note_on_c, 1, 72, 64
3, 4050, Note_on_c, 1, 72, 0
3, 4050, Note_on_c, 1, 69, 64
3, 4080, Note_on_c, 1, 69, 0
3, 4080, Note_on_c, 1, 70, 64
3, 4110, Note_on_c, 1, 70, 0
3, 4110, Note_on_c, 1, 72, 64
3, 4140, Note_on_c, 1, 72, 0
3, 4140, Note_on_c, 1, 70, 64
3, 4170, Note_on_c, 1, 70, 0
3, 4170, Note_on_c, 1, 72, 64
3, 4200, Note_on_c, 1, 72, 0
3, 4200, Note_on_c, 1, 74, 64
3, 4230, Note_on_c, 1, 74, 0
3, 4230, Note_on_c, 1, 70, 64
3, 4260, Note_on_c, 1, 70, 0
3, 4260, Note_on_c, 1, 72, 64
3, 4290, Note_on_c, 1, 72, 0
3, 4290, Note_on_c, 1, 74, 64
3, 4320, Note_on_c, 1, 74, 0
3, 4320, Note_on_c, 1, 67, 64
3, 4350, Note_on_c, 1, 67, 0
3, 4350, Note_on_c, 1, 69, 64
3, 4380, Note_on_c, 1, 69, 0
3, 4380, Note_on_c, 1, 70, 64
3, 4410, Note_on_c, 1, 70, 0
3, 4410, Note_on_c, 1, 67, 64
3, 4440, Note_on_c, 1, 67, 0
3, 4440, Note_on_c, 1, 69, 64
3, 4470, Note_on_c, 1, 69, 0
3, 4470, Note_on_c, 1, 70, 64
3, 4500, Note_on_c, 1, 70, 0
3, 4500, Note_on_c, 1, 60, 64
3, 4560, Note_on_c, 1, 60, 0
3, 4560, Note_on_c, 1, 57, 64
3, 4590, Note_on_c, 1, 57, 0
3, 4590, Note_on_c, 1, 59, 64
3, 4620, Note_on_c, 1, 59, 0
3, 4620, Note_on_c, 1, 60, 64
3, 4650, Note_on_c, 1, 60, 0
3, 4650, Note_on_c, 1, 62, 64
3, 4680, Note_on_c, 1, 62, 0
3, 4684, Note_on_c, 1, 62, 64
3, 4740, Note_on_c, 1, 59, 64
3, 4744, Note_on_c, 1, 62, 0
3, 4770, Note_on_c, 1, 59, 0
3, 4770, Note_on_c, 1, 69, 64
3, 4800, Note_on_c, 1, 69, 0
3, 4801, Note_on_c, 1, 68, 64
3, 4860, Note_on_c, 1, 64, 64
3, 4861, Note_on_c, 1, 68, 0
3, 4920, Note_on_c, 1, 64, 0
3, 4920, Note_on_c, 1, 65, 64
3, 5040, Note_on_c, 1, 65, 0
3, 5040, Note_on_c, 1, 64, 64
3, 5100, Note_on_c, 1, 64, 0
3, 5100, Note_on_c, 1, 71, 64
3, 5130, Note_on_c, 1, 71, 0
3, 5130, Note_on_c, 1, 69, 64
3, 5160, Note_on_c, 1, 69, 0
3, 5160, Note_on_c, 1, 68, 64
3, 5190, Note_on_c, 1, 68, 0
3, 5190, Note_on_c, 1, 66, 64
3, 5220, Note_on_c, 1, 66, 0
3, 5220, Note_on_c, 1, 64, 64
3, 5250, Note_on_c, 1, 64, 0
3, 5250, Note_on_c, 1, 62, 64
3, 5280, Note_on_c, 1, 62, 0
3, 5280, Note_on_c, 1, 60, 64
3, 5310, Note_on_c, 1, 60, 0
3, 5310, Note_on_c, 1, 62, 64
3, 5340, Note_on_c, 1, 62, 0
3, 5340, Note_on_c, 1, 64, 64
3, 5370, Note_on_c, 1, 64, 0
3, 5370, Note_on_c, 1, 66, 64
3, 5400, Note_on_c, 1, 66, 0
3, 5400, Note_on_c, 1, 68, 64
3, 5430, Note_on_c, 1, 68, 0
3, 5430, Note_on_c, 1, 69, 64
3, 5460, Note_on_c, 1, 69, 0
3, 5460, Note_on_c, 1, 62, 64
3, 5490, Note_on_c, 1, 62, 0
3, 5490, Note_on_c, 1, 72, 64
3, 5520, Note_on_c, 1, 72, 0
3, 5520, Note_on_c, 1, 71, 64
3, 5550, Note_on_c, 1, 71, 0
3, 5550, Note_on_c, 1, 69, 64
3, 5580, Note_on_c, 1, 69, 0
3, 5580, Note_on_c, 1, 68, 64
3, 5610, Note_on_c, 1, 68, 0
3, 5610, Note_on_c, 1, 66, 64
3, 5640, Note_on_c, 1, 66, 0
3, 5640, Note_on_c, 1, 64, 64
3, 5670, Note_on_c, 1, 64, 0
3, 5670, Note_on_c, 1, 66, 64
3, 5700, Note_on_c, 1, 66, 0
3, 5700, Note_on_c, 1, 68, 64
3, 5730, Note_on_c, 1, 68, 0
3, 5730, Note_on_c, 1, 69, 64
3, 5760, Note_on_c, 1, 69, 0
3, 5760, Note_on_c, 1, 71, 64
3, 5790, Note_on_c, 1, 71, 0
3, 5790, Note_on_c, 1, 72, 64
3, 5820, Note_on_c, 1, 72, 0
3, 5820, Note_on_c, 1, 66, 64
3, 5850, Note_on_c, 1, 66, 0
3, 5850, Note_on_c, 1, 76, 64
3, 5880, Note_on_c, 1, 76, 0
3, 5880, Note_on_c, 1, 74, 64
3, 5910, Note_on_c, 1, 74, 0
3, 5910, Note_on_c, 1, 72, 64
3, 5940, Note_on_c, 1, 72, 0
3, 5940, Note_on_c, 1, 71, 64
3, 5970, Note_on_c, 1, 71, 0
3, 5970, Note_on_c, 1, 69, 64
3, 6000, Note_on_c, 1, 69, 0
3, 6000, Note_on_c, 1, 68, 64
3, 6030, Note_on_c, 1, 68, 0
3, 6030, Note_on_c, 1, 69, 64
3, 6060, Note_on_c, 1, 69, 0
3, 6060, Note_on_c, 1, 71, 64
3, 6090, Note_on_c, 1, 71, 0
3, 6090, Note_on_c, 1, 72, 64
3, 6120, Note_on_c, 1, 72, 0
3, 6120, Note_on_c, 1, 76, 64
3, 6150, Note_on_c, 1, 76, 0
3, 6150, Note_on_c, 1, 69, 64
3, 6180, Note_on_c, 1, 69, 0
3, 6180, Note_on_c, 1, 68, 64
3, 6239, Note_on_c, 1, 69, 64
3, 6240, Note_on_c, 1, 68, 0
3, 6299, Note_on_c, 1, 69, 0
3, 6300, Note_on_c, 1, 71, 64
3, 6360, Note_on_c, 1, 71, 0
3, 6360, Note_on_c, 1, 69, 64
3, 6390, Note_on_c, 1, 69, 0
3, 6390, Note_on_c, 1, 68, 64
3, 6420, Note_on_c, 1, 68, 0
3, 6420, Note_on_c, 1, 69, 64
3, 6450, Note_on_c, 1, 69, 0
3, 6450, Note_on_c, 1, 72, 64
3, 6480, Note_on_c, 1, 72, 0
3, 6480, Note_on_c, 1, 71, 64
3, 6510, Note_on_c, 1, 71, 0
3, 6510, Note_on_c, 1, 65, 64
3, 6540, Note_on_c, 1, 65, 0
3, 6540, Note_on_c, 1, 69, 64
3, 6570, Note_on_c, 1, 69, 0
3, 6570, Note_on_c, 1, 66, 64
3, 6599, Note_on_c, 1, 68, 64
3, 6600, Note_on_c, 1, 66, 0
3, 6659, Note_on_c, 1, 68, 0
3, 6660, Note_on_c, 1, 69, 64
3, 6720, Note_on_c, 1, 69, 0
3, 6900, Note_on_c, 1, 57, 64
3, 6930, Note_on_c, 1, 57, 0
3, 6930, Note_on_c, 1, 63, 64
3, 6960, Note_on_c, 1, 63, 0
3, 6960, Note_on_c, 1, 62, 64
3, 6990, Note_on_c, 1, 62, 0
3, 6990, Note_on_c, 1, 60, 64
3, 7020, Note_on_c, 1, 60, 0
3, 7020, Note_on_c, 1, 58, 64
3, 7080, Note_on_c, 1, 58, 0
3, 7230, Note_on_c, 1, 58, 64
3, 7260, Note_on_c, 1, 58, 0
3, 7260, Note_on_c, 1, 57, 64
3, 7290, Note_on_c, 1, 57, 0
3, 7290, Note_on_c, 1, 55, 64
3, 7320, Note_on_c, 1, 55, 0
3, 7320, Note_on_c, 1, 53, 64
3, 7350, Note_on_c, 1, 53, 0
3, 7350, Note_on_c, 1, 52, 64
3, 7380, Note_on_c, 1, 52, 0
3, 7380, Note_on_c, 1, 53, 64
3, 7440, Note_on_c, 1, 53, 0
3, 7590, Note_on_c, 1, 70, 64
3, 7620, Note_on_c, 1, 70, 0
3, 7620, Note_on_c, 1, 69, 64
3, 7650, Note_on_c, 1, 69, 0
3, 7650, Note_on_c, 1, 67, 64
3, 7680, Note_on_c, 1, 67, 0
3, 7680, Note_on_c, 1, 65, 64
3, 7710, Note_on_c, 1, 65, 0
3, 7710, Note_on_c, 1, 64, 64
3, 7740, Note_on_c, 1, 64, 0
3, 7740, Note_on_c, 1, 62, 64
3, 7800, Note_on_c, 1, 62, 0
3, 7800, Note_on_c, 1, 62, 64
3, 7830, Note_on_c, 1, 62, 0
3, 7830, Note_on_c, 1, 64, 64
3, 7860, Note_on_c, 1, 64, 0
3, 7860, Note_on_c, 1, 65, 64
3, 7890, Note_on_c, 1, 65, 0
3, 7891, Note_on_c, 1, 67, 64
3, 7980, Note_on_c, 1, 61, 64
3, 7981, Note_on_c, 1, 67, 0
3, 8010, Note_on_c, 1, 61, 0
3, 8010, Note_on_c, 1, 70, 64
3, 8040, Note_on_c, 1, 70, 0
3, 8040, Note_on_c, 1, 69, 64
3, 8070, Note_on_c, 1, 69, 0
3, 8070, Note_on_c, 1, 67, 64
3, 8100, Note_on_c, 1, 67, 0
3, 8100, Note_on_c, 1, 65, 64
3, 8130, Note_on_c, 1, 65, 0
3, 8130, Note_on_c, 1, 67, 64
3, 8160, Note_on_c, 1, 67, 0
3, 8160, Note_on_c, 1, 69, 64
3, 8190, Note_on_c, 1, 69, 0
3, 8190, Note_on_c, 1, 71, 64
3, 8220, Note_on_c, 1, 71, 0
3, 8220, Note_on_c, 1, 73, 64
3, 8250, Note_on_c, 1, 73, 0
3, 8250, Note_on_c, 1, 74, 64
3, 8280, Note_on_c, 1, 74, 0
3, 8280, Note_on_c, 1, 76, 64
3, 8310, Note_on_c, 1, 76, 0
3, 8310, Note_on_c, 1, 62, 64
3, 8340, Note_on_c, 1, 62, 0
3, 8340, Note_on_c, 1, 64, 64
3, 8370, Note_on_c, 1, 64, 0
3, 8370, Note_on_c, 1, 65, 64
3, 8400, Note_on_c, 1, 65, 0
3, 8400, Note_on_c, 1, 67, 64
3, 8430, Note_on_c, 1, 67, 0
3, 8430, Note_on_c, 1, 69, 64
3, 8460, Note_on_c, 1, 69, 0
3, 8460, Note_on_c, 1, 69, 64
3, 8550, Note_on_c, 1, 69, 0
3, 8550, Note_on_c, 1, 67, 64
3, 8580, Note_on_c, 1, 67, 0
3, 8580, Note_on_c, 1, 65, 64
3, 8610, Note_on_c, 1, 65, 0
3, 8610, Note_on_c, 1, 64, 64
3, 8640, Note_on_c, 1, 64, 0
3, 8640, Note_on_c, 1, 62, 64
3, 8655, Note_on_c, 1, 62, 0
3, 8655, Note_on_c, 1, 64, 64
3, 8670, Note_on_c, 1, 64, 0
3, 8670, Note_on_c, 1, 62, 64
3, 8685, Note_on_c, 1, 62, 0
3, 8685, Note_on_c, 1, 64, 64
3, 8700, Note_on_c, 1, 64, 0
3, 8700, Note_on_c, 1, 62, 64
3, 8715, Note_on_c, 1, 62, 0
3, 8715, Note_on_c, 1, 64, 64
3, 8730, Note_on_c, 1, 64, 0
3, 8730, Note_on_c, 1, 62, 64
3, 8742, Note_on_c, 1, 64, 64
3, 8745, Note_on_c, 1, 62, 0
3, 8757, Note_on_c, 1, 64, 0
3, 8760, Note_on_c, 1, 62, 64
3, 8775, Note_on_c, 1, 62, 0
3, 8775, Note_on_c, 1, 64, 64
3, 8790, Note_on_c, 1, 64, 0
3, 8790, Note_on_c, 1, 62, 64
3, 8805, Note_on_c, 1, 62, 0
3, 8805, Note_on_c, 1, 61, 64
3, 8820, Note_on_c, 1, 61, 0
3, 8820, Note_on_c, 1, 62, 64
3, 8850, Note_on_c, 1, 62, 0
3, 8850, Note_on_c, 1, 67, 64
3, 8880, Note_on_c, 1, 67, 0
3, 8880, Note_on_c, 1, 65, 64
3, 8910, Note_on_c, 1, 65, 0
3, 8910, Note_on_c, 1, 64, 64
3, 8940, Note_on_c, 1, 64, 0
3, 8940, Note_on_c, 1, 62, 64
3, 9030, Note_on_c, 1, 62, 0
3, 9030, Note_on_c, 1, 64, 64
3, 9060, Note_on_c, 1, 64, 0
3, 9060, Note_on_c, 1, 62, 64
3, 9090, Note_on_c, 1, 62, 0
3, 9090, Note_on_c, 1, 59, 64
3, 9120, Note_on_c, 1, 59, 0
3, 9120, Note_on_c, 1, 61, 64
3, 9180, Note_on_c, 1, 61, 0
3, 9180, Note_on_c, 1, 62, 64
3, 9360, Note_on_c, 1, 62, 0
3, 9360, End_track
4, 0, Start_track
4, 0, MIDI_port, 0
4, 0, Title_t, "Track 3"
4, 0, Program_c, 2, 2
4, 0, Control_c, 2, 7, 103
4, 0, Control_c, 2, 10, 21
4, 0, Control_c, 2, 7, 90
4, 0, Control_c, 2, 93, 86
4, 360, Note_on_c, 2, 50, 64
4, 380, Control_c, 2, 7, 74
4, 384, Note_on_c, 2, 50, 0
4, 390, Note_on_c, 2, 52, 64
4, 390, Control_c, 2, 7, 75
4, 400, Control_c, 2, 7, 76
4, 410, Control_c, 2, 7, 77
4, 414, Note_on_c, 2, 52, 0
4, 420, Note_on_c, 2, 53, 64
4, 420, Control_c, 2, 7, 78
4, 430, Control_c, 2, 7, 79
4, 440, Control_c, 2, 7, 80
4, 444, Note_on_c, 2, 53, 0
4, 450, Note_on_c, 2, 55, 64
4, 450, Control_c, 2, 7, 82
4, 460, Control_c, 2, 7, 83
4, 470, Control_c, 2, 7, 84
4, 474, Note_on_c, 2, 55, 0
4, 480, Note_on_c, 2, 57, 64
4, 480, Control_c, 2, 7, 85
4, 490, Control_c, 2, 7, 86
4, 500, Control_c, 2, 7, 87
4, 504, Note_on_c, 2, 57, 0
4, 510, Note_on_c, 2, 58, 64
4, 510, Control_c, 2, 7, 88
4, 520, Control_c, 2, 7, 90
4, 530, Control_c, 2, 7, 91
4, 534, Note_on_c, 2, 58, 0
4, 540, Note_on_c, 2, 49, 64
4, 540, Control_c, 2, 7, 92
4, 550, Control_c, 2, 7, 93
4, 560, Control_c, 2, 7, 94
4, 564, Note_on_c, 2, 49, 0
4, 570, Note_on_c, 2, 58, 64
4, 570, Control_c, 2, 7, 95
4, 580, Control_c, 2, 7, 97
4, 590, Control_c, 2, 7, 98
4, 594, Note_on_c, 2, 58, 0
4, 600, Note_on_c, 2, 57, 64
4, 600, Control_c, 2, 7, 99
4, 610, Control_c, 2, 7, 100
4, 620, Control_c, 2, 7, 101
4, 624, Note_on_c, 2, 57, 0
4, 630, Note_on_c, 2, 55, 64
4, 630, Control_c, 2, 7, 102
4, 640, Control_c, 2, 7, 103
4, 650, Control_c, 2, 7, 105
4, 654, Note_on_c, 2, 55, 0
4, 660, Note_on_c, 2, 53, 64
4, 660, Control_c, 2, 7, 106
4, 670, Control_c, 2, 7, 107
4, 680, Control_c, 2, 7, 108
4, 684, Note_on_c, 2, 53, 0
4, 690, Note_on_c, 2, 52, 64
4, 690, Control_c, 2, 7, 109
4, 700, Control_c, 2, 7, 110
4, 710, Control_c, 2, 7, 112
4, 714, Note_on_c, 2, 52, 0
4, 720, Note_on_c, 2, 53, 64
4, 777, Note_on_c, 2, 57, 100
4, 780, Note_on_c, 2, 53, 0
4, 836, Note_on_c, 2, 62, 100
4, 837, Note_on_c, 2, 57, 0
4, 896, Note_on_c, 2, 62, 0
4, 900, Note_on_c, 2, 52, 100
4, 960, Note_on_c, 2, 52, 0
4, 960, Note_on_c, 2, 55, 100
4, 1020, Note_on_c, 2, 55, 0
4, 1020, Note_on_c, 2, 61, 100
4, 1080, Note_on_c, 2, 61, 0
4, 1080, Note_on_c, 2, 50, 100
4, 1140, Note_on_c, 2, 50, 0
4, 1140, Note_on_c, 2, 62, 64
4, 1200, Note_on_c, 2, 62, 0
4, 1200, Note_on_c, 2, 53, 64
4, 1260, Note_on_c, 2, 53, 0
4, 1260, Note_on_c, 2, 55, 64
4, 1320, Note_on_c, 2, 55, 0
4, 1320, Note_on_c, 2, 57, 64
4, 1380, Note_on_c, 2, 57, 0
4, 1380, Note_on_c, 2, 58, 64
4, 1440, Note_on_c, 2, 58, 0
4, 1440, Note_on_c, 2, 48, 64
4, 1500, Note_on_c, 2, 48, 0
4, 1500, Note_on_c, 2, 60, 64
4, 1560, Note_on_c, 2, 60, 0
4, 1560, Note_on_c, 2, 52, 64
4, 1620, Note_on_c, 2, 52, 0
4, 1620, Note_on_c, 2, 53, 64
4, 1680, Note_on_c, 2, 53, 0
4, 1680, Note_on_c, 2, 55, 64
4, 1740, Note_on_c, 2, 55, 0
4, 1740, Note_on_c, 2, 57, 64
4, 1800, Note_on_c, 2, 57, 0
4, 1800, Note_on_c, 2, 58, 64
4, 1830, Note_on_c, 2, 58, 0
4, 1830, Note_on_c, 2, 55, 64
4, 1860, Note_on_c, 2, 55, 0
4, 1860, Note_on_c, 2, 57, 64
4, 1890, Note_on_c, 2, 57, 0
4, 1890, Note_on_c, 2, 58, 64
4, 1920, Note_on_c, 2, 58, 0
4, 1920, Note_on_c, 2, 60, 64
4, 1950, Note_on_c, 2, 60, 0
4, 1950, Note_on_c, 2, 62, 64
4, 1980, Note_on_c, 2, 62, 0
4, 1980, Note_on_c, 2, 52, 64
4, 2010, Note_on_c, 2, 52, 0
4, 2010, Note_on_c, 2, 62, 64
4, 2040, Note_on_c, 2, 62, 0
4, 2040, Note_on_c, 2, 60, 64
4, 2070, Note_on_c, 2, 60, 0
4, 2070, Note_on_c, 2, 58, 64
4, 2100, Note_on_c, 2, 58, 0
4, 2100, Note_on_c, 2, 57, 64
4, 2130, Note_on_c, 2, 57, 0
4, 2130, Note_on_c, 2, 55, 64
4, 2160, Note_on_c, 2, 55, 0
4, 2160, Note_on_c, 2, 57, 64
4, 2190, Note_on_c, 2, 57, 0
4, 2190, Note_on_c, 2, 53, 64
4, 2220, Note_on_c, 2, 53, 0
4, 2220, Note_on_c, 2, 55, 64
4, 2250, Note_on_c, 2, 55, 0
4, 2250, Note_on_c, 2, 57, 64
4, 2280, Note_on_c, 2, 57, 0
4, 2280, Note_on_c, 2, 58, 64
4, 2310, Note_on_c, 2, 58, 0
4, 2310, Note_on_c, 2, 60, 64
4, 2340, Note_on_c, 2, 60, 0
4, 2340, Note_on_c, 2, 50, 64
4, 2370, Note_on_c, 2, 50, 0
4, 2370, Note_on_c, 2, 60, 64
4, 2400, Note_on_c, 2, 60, 0
4, 2400, Note_on_c, 2, 58, 64
4, 2430, Note_on_c, 2, 58, 0
4, 2430, Note_on_c, 2, 57, 64
4, 2460, Note_on_c, 2, 57, 0
4, 2460, Note_on_c, 2, 55, 64
4, 2490, Note_on_c, 2, 55, 0
4, 2490, Note_on_c, 2, 53, 64
4, 2520, Note_on_c, 2, 53, 0
4, 2520, Note_on_c, 2, 52, 64
4, 2550, Note_on_c, 2, 52, 0
4, 2550, Note_on_c, 2, 48, 64
4, 2580, Note_on_c, 2, 48, 0
4, 2580, Note_on_c, 2, 50, 64
4, 2610, Note_on_c, 2, 50, 0
4, 2610, Note_on_c, 2, 52, 64
4, 2640, Note_on_c, 2, 52, 0
4, 2640, Note_on_c, 2, 53, 64
4, 2670, Note_on_c, 2, 53, 0
4, 2670, Note_on_c, 2, 55, 64
4, 2696, Control_c, 2, 7, 110
4, 2700, Note_on_c, 2, 55, 0
4, 2700, Note_on_c, 2, 45, 64
4, 2706, Control_c, 2, 7, 109
4, 2716, Control_c, 2, 7, 108
4, 2723, Control_c, 2, 7, 107
4, 2730, Note_on_c, 2, 45, 0
4, 2730, Note_on_c, 2, 55, 64
4, 2733, Control_c, 2, 7, 106
4, 2740, Control_c, 2, 7, 105
4, 2750, Control_c, 2, 7, 104
4, 2756, Control_c, 2, 7, 103
4, 2760, Note_on_c, 2, 55, 0
4, 2760, Note_on_c, 2, 53, 64
4, 2766, Control_c, 2, 7, 102
4, 2773, Control_c, 2, 7, 101
4, 2783, Control_c, 2, 7, 100
4, 2790, Note_on_c, 2, 53, 0
4, 2790, Note_on_c, 2, 52, 64
4, 2790, Control_c, 2, 7, 99
4, 2800, Control_c, 2, 7, 98
4, 2806, Control_c, 2, 7, 97
4, 2816, Control_c, 2, 7, 96
4, 2820, Note_on_c, 2, 52, 0
4, 2820, Note_on_c, 2, 50, 64
4, 2826, Control_c, 2, 7, 95
4, 2833, Control_c, 2, 7, 94
4, 2843, Control_c, 2, 7, 93
4, 2850, Note_on_c, 2, 50, 0
4, 2850, Note_on_c, 2, 48, 64
4, 2850, Control_c, 2, 7, 92
4, 2860, Control_c, 2, 7, 91
4, 2866, Control_c, 2, 7, 90
4, 2876, Control_c, 2, 7, 89
4, 2880, Note_on_c, 2, 48, 0
4, 2880, Note_on_c, 2, 50, 64
4, 2883, Control_c, 2, 7, 88
4, 2893, Control_c, 2, 7, 87
4, 2900, Control_c, 2, 7, 86
4, 2910, Note_on_c, 2, 50, 0
4, 2910, Note_on_c, 2, 46, 64
4, 2910, Control_c, 2, 7, 85
4, 2916, Control_c, 2, 7, 84
4, 2926, Control_c, 2, 7, 83
4, 2933, Control_c, 2, 7, 82
4, 2940, Note_on_c, 2, 46, 0
4, 2940, Note_on_c, 2, 48, 64
4, 2943, Control_c, 2, 7, 81
4, 2953, Control_c, 2, 7, 80
4, 2960, Control_c, 2, 7, 79
4, 2970, Control_c, 2, 7, 78
4, 2976, Control_c, 2, 7, 77
4, 2986, Control_c, 2, 7, 76
4, 2993, Control_c, 2, 7, 75
4, 3000, Note_on_c, 2, 48, 0
4, 3000, Note_on_c, 2, 36, 64
4, 3003, Control_c, 2, 7, 74
4, 3010, Control_c, 2, 7, 73
4, 3020, Control_c, 2, 7, 72
4, 3026, Control_c, 2, 7, 71
4, 3036, Control_c, 2, 7, 70
4, 3043, Control_c, 2, 7, 69
4, 3053, Control_c, 2, 7, 68
4, 3060, Note_on_c, 2, 36, 0
4, 3060, Note_on_c, 2, 41, 64
4, 3060, Control_c, 2, 7, 67
4, 3090, Note_on_c, 2, 41, 0
4, 3090, Note_on_c, 2, 43, 64
4, 3120, Note_on_c, 2, 43, 0
4, 3120, Note_on_c, 2, 45, 64
4, 3150, Note_on_c, 2, 45, 0
4, 3150, Note_on_c, 2, 46, 64
4, 3180, Note_on_c, 2, 46, 0
4, 3180, Note_on_c, 2, 48, 64
4, 3210, Note_on_c, 2, 48, 0
4, 3210, Note_on_c, 2, 50, 64
4, 3240, Note_on_c, 2, 50, 0
4, 3240, Note_on_c, 2, 40, 64
4, 3240, Control_c, 2, 7, 66
4, 3270, Note_on_c, 2, 40, 0
4, 3270, Note_on_c, 2, 50, 64
4, 3273, Control_c, 2, 7, 67
4, 3300, Note_on_c, 2, 50, 0
4, 3300, Note_on_c, 2, 48, 64
4, 3306, Control_c, 2, 7, 68
4, 3330, Note_on_c, 2, 48, 0
4, 3330, Note_on_c, 2, 46, 64
4, 3340, Control_c, 2, 7, 69
4, 3360, Note_on_c, 2, 46, 0
4, 3360, Note_on_c, 2, 45, 64
4, 3370, Control_c, 2, 7, 70
4, 3390, Note_on_c, 2, 45, 0
4, 3390, Note_on_c, 2, 43, 64
4, 3403, Control_c, 2, 7, 71
4, 3420, Note_on_c, 2, 43, 0
4, 3420, Note_on_c, 2, 45, 64
4, 3436, Control_c, 2, 7, 72
4, 3450, Note_on_c, 2, 45, 0
4, 3450, Note_on_c, 2, 46, 64
4, 3466, Control_c, 2, 7, 73
4, 3480, Note_on_c, 2, 46, 0
4, 3480, Note_on_c, 2, 48, 64
4, 3500, Control_c, 2, 7, 74
4, 3510, Note_on_c, 2, 48, 0
4, 3510, Note_on_c, 2, 50, 64
4, 3533, Control_c, 2, 7, 75
4, 3540, Note_on_c, 2, 50, 0
4, 3540, Note_on_c, 2, 52, 64
4, 3563, Control_c, 2, 7, 76
4, 3570, Note_on_c, 2, 52, 0
4, 3570, Note_on_c, 2, 53, 64
4, 3596, Control_c, 2, 7, 77
4, 3600, Note_on_c, 2, 53, 0
4, 3600, Note_on_c, 2, 43, 64
4, 3630, Note_on_c, 2, 43, 0
4, 3630, Note_on_c, 2, 53, 64
4, 3630, Control_c, 2, 7, 78
4, 3660, Note_on_c, 2, 53, 0
4, 3660, Note_on_c, 2, 52, 64
4, 3660, Control_c, 2, 7, 79
4, 3690, Note_on_c, 2, 52, 0
4, 3690, Note_on_c, 2, 50, 64
4, 3693, Control_c, 2, 7, 80
4, 3720, Note_on_c, 2, 50, 0
4, 3720, Note_on_c, 2, 48, 64
4, 3726, Control_c, 2, 7, 81
4, 3750, Note_on_c, 2, 48, 0
4, 3750, Note_on_c, 2, 46, 64
4, 3760, Control_c, 2, 7, 82
4, 3780, Note_on_c, 2, 46, 0
4, 3780, Note_on_c, 2, 45, 64
4, 3790, Control_c, 2, 7, 83
4, 3810, Note_on_c, 2, 45, 0
4, 3810, Note_on_c, 2, 46, 64
4, 3823, Control_c, 2, 7, 84
4, 3840, Note_on_c, 2, 46, 0
4, 3840, Note_on_c, 2, 48, 64
4, 3856, Control_c, 2, 7, 85
4, 3870, Note_on_c, 2, 48, 0
4, 3870, Note_on_c, 2, 45, 64
4, 3886, Control_c, 2, 7, 86
4, 3900, Note_on_c, 2, 45, 0
4, 3900, Note_on_c, 2, 46, 64
4, 3920, Control_c, 2, 7, 87
4, 3930, Note_on_c, 2, 46, 0
4, 3930, Note_on_c, 2, 48, 64
4, 3953, Control_c, 2, 7, 88
4, 3960, Note_on_c, 2, 48, 0
4, 3960, Note_on_c, 2, 42, 64
4, 3983, Control_c, 2, 7, 89
4, 4016, Control_c, 2, 7, 90
4, 4020, Note_on_c, 2, 42, 0
4, 4050, Control_c, 2, 7, 91
4, 4080, Control_c, 2, 7, 92
4, 4113, Control_c, 2, 7, 93
4, 4140, Note_on_c, 2, 43, 64
4, 4146, Control_c, 2, 7, 94
4, 4170, Note_on_c, 2, 43, 0
4, 4170, Note_on_c, 2, 45, 64
4, 4176, Control_c, 2, 7, 95
4, 4200, Note_on_c, 2, 45, 0
4, 4200, Note_on_c, 2, 46, 64
4, 4210, Control_c, 2, 7, 96
4, 4230, Note_on_c, 2, 46, 0
4, 4230, Note_on_c, 2, 43, 64
4, 4243, Control_c, 2, 7, 97
4, 4260, Note_on_c, 2, 43, 0
4, 4260, Note_on_c, 2, 45, 64
4, 4276, Control_c, 2, 7, 98
4, 4290, Note_on_c, 2, 45, 0
4, 4290, Note_on_c, 2, 46, 64
4, 4306, Control_c, 2, 7, 99
4, 4320, Note_on_c, 2, 46, 0
4, 4320, Note_on_c, 2, 40, 64
4, 4340, Control_c, 2, 7, 100
4, 4373, Control_c, 2, 7, 101
4, 4380, Note_on_c, 2, 40, 0
4, 4403, Control_c, 2, 7, 102
4, 4436, Control_c, 2, 7, 103
4, 4470, Control_c, 2, 7, 104
4, 4500, Note_on_c, 2, 41, 64
4, 4500, Control_c, 2, 7, 105
4, 4533, Control_c, 2, 7, 106
4, 4560, Note_on_c, 2, 41, 0
4, 4560, Note_on_c, 2, 53, 64
4, 4566, Control_c, 2, 7, 107
4, 4596, Control_c, 2, 7, 108
4, 4620, Note_on_c, 2, 53, 0
4, 4620, Note_on_c, 2, 50, 64
4, 4630, Control_c, 2, 7, 109
4, 4663, Control_c, 2, 7, 110
4, 4680, Note_on_c, 2, 50, 0
4, 4680, Note_on_c, 2, 47, 64
4, 4693, Control_c, 2, 7, 111
4, 4740, Note_on_c, 2, 47, 0
4, 4740, Note_on_c, 2, 44, 64
4, 4800, Note_on_c, 2, 44, 0
4, 4800, Note_on_c, 2, 40, 64
4, 4860, Note_on_c, 2, 40, 0
4, 4860, Note_on_c, 2, 45, 64
4, 4860, Control_c, 2, 7, 107
4, 4866, Control_c, 2, 7, 106
4, 4873, Control_c, 2, 7, 105
4, 4880, Control_c, 2, 7, 104
4, 4886, Control_c, 2, 7, 103
4, 4890, Note_on_c, 2, 45, 0
4, 4890, Note_on_c, 2, 44, 64
4, 4890, Control_c, 2, 7, 102
4, 4896, Control_c, 2, 7, 101
4, 4903, Control_c, 2, 7, 100
4, 4910, Control_c, 2, 7, 99
4, 4913, Control_c, 2, 7, 98
4, 4920, Note_on_c, 2, 44, 0
4, 4920, Note_on_c, 2, 45, 64
4, 4920, Control_c, 2, 7, 97
4, 4926, Control_c, 2, 7, 96
4, 4933, Control_c, 2, 7, 95
4, 4940, Control_c, 2, 7, 94
4, 4943, Control_c, 2, 7, 93
4, 4950, Note_on_c, 2, 45, 0
4, 4950, Note_on_c, 2, 47, 64
4, 4950, Control_c, 2, 7, 92
4, 4956, Control_c, 2, 7, 91
4, 4963, Control_c, 2, 7, 90
4, 4966, Control_c, 2, 7, 89
4, 4973, Control_c, 2, 7, 88
4, 4980, Note_on_c, 2, 47, 0
4, 4980, Note_on_c, 2, 48, 64
4, 4980, Control_c, 2, 7, 87
4, 4986, Control_c, 2, 7, 86
4, 4993, Control_c, 2, 7, 85
4, 4996, Control_c, 2, 7, 84
4, 5003, Control_c, 2, 7, 83
4, 5010, Note_on_c, 2, 48, 0
4, 5010, Note_on_c, 2, 50, 64
4, 5010, Control_c, 2, 7, 82
4, 5016, Control_c, 2, 7, 81
4, 5020, Control_c, 2, 7, 80
4, 5026, Control_c, 2, 7, 79
4, 5033, Control_c, 2, 7, 78
4, 5040, Note_on_c, 2, 50, 0
4, 5040, Note_on_c, 2, 52, 64
4, 5040, Control_c, 2, 7, 77
4, 5043, Control_c, 2, 7, 76
4, 5055, Note_on_c, 2, 52, 0
4, 5055, Note_on_c, 2, 53, 64
4, 5070, Note_on_c, 2, 53, 0
4, 5070, Note_on_c, 2, 52, 64
4, 5085, Note_on_c, 2, 52, 0
4, 5085, Note_on_c, 2, 53, 64
4, 5100, Note_on_c, 2, 53, 0
4, 5100, Note_on_c, 2, 52, 64
4, 5106, Control_c, 2, 7, 76
4, 5115, Note_on_c, 2, 52, 0
4, 5115, Note_on_c, 2, 53, 64
4, 5130, Note_on_c, 2, 53, 0
4, 5130, Note_on_c, 2, 52, 64
4, 5140, Control_c, 2, 7, 77
4, 5145, Note_on_c, 2, 52, 0
4, 5145, Note_on_c, 2, 53, 64
4, 5160, Note_on_c, 2, 53, 0
4, 5160, Note_on_c, 2, 52, 64
4, 5173, Control_c, 2, 7, 78
4, 5175, Note_on_c, 2, 52, 0
4, 5175, Note_on_c, 2, 53, 64
4, 5190, Note_on_c, 2, 53, 0
4, 5190, Note_on_c, 2, 52, 64
4, 5205, Note_on_c, 2, 52, 0
4, 5205, Note_on_c, 2, 53, 64
4, 5206, Control_c, 2, 7, 79
4, 5220, Note_on_c, 2, 53, 0
4, 5220, Note_on_c, 2, 52, 64
4, 5235, Note_on_c, 2, 52, 0
4, 5235, Note_on_c, 2, 53, 64
4, 5240, Control_c, 2, 7, 80
4, 5250, Note_on_c, 2, 53, 0
4, 5250, Note_on_c, 2, 52, 64
4, 5265, Note_on_c, 2, 52, 0
4, 5265, Note_on_c, 2, 53, 64
4, 5273, Control_c, 2, 7, 81
4, 5280, Note_on_c, 2, 53, 0
4, 5280, Note_on_c, 2, 52, 64
4, 5295, Note_on_c, 2, 52, 0
4, 5295, Note_on_c, 2, 53, 64
4, 5306, Control_c, 2, 7, 82
4, 5310, Note_on_c, 2, 53, 0
4, 5310, Note_on_c, 2, 52, 64
4, 5325, Note_on_c, 2, 52, 0
4, 5325, Note_on_c, 2, 53, 64
4, 5340, Note_on_c, 2, 53, 0
4, 5340, Note_on_c, 2, 52, 64
4, 5340, Control_c, 2, 7, 83
4, 5355, Note_on_c, 2, 52, 0
4, 5355, Note_on_c, 2, 53, 64
4, 5370, Note_on_c, 2, 53, 0
4, 5370, Note_on_c, 2, 52, 64
4, 5373, Control_c, 2, 7, 84
4, 5385, Note_on_c, 2, 52, 0
4, 5385, Note_on_c, 2, 53, 64
4, 5400, Note_on_c, 2, 53, 0
4, 5400, Note_on_c, 2, 52, 64
4, 5406, Control_c, 2, 7, 85
4, 5415, Note_on_c, 2, 52, 0
4, 5415, Note_on_c, 2, 53, 64
4, 5430, Note_on_c, 2, 53, 0
4, 5430, Note_on_c, 2, 52, 64
4, 5440, Control_c, 2, 7, 86
4, 5445, Note_on_c, 2, 52, 0
4, 5445, Note_on_c, 2, 53, 64
4, 5460, Note_on_c, 2, 53, 0
4, 5460, Note_on_c, 2, 52, 64
4, 5473, Control_c, 2, 7, 87
4, 5475, Note_on_c, 2, 52, 0
4, 5475, Note_on_c, 2, 53, 64
4, 5490, Note_on_c, 2, 53, 0
4, 5490, Note_on_c, 2, 52, 64
4, 5505, Note_on_c, 2, 52, 0
4, 5505, Note_on_c, 2, 53, 64
4, 5506, Control_c, 2, 7, 88
4, 5520, Note_on_c, 2, 53, 0
4, 5520, Note_on_c, 2, 52, 64
4, 5535, Note_on_c, 2, 52, 0
4, 5535, Note_on_c, 2, 53, 64
4, 5540, Control_c, 2, 7, 89
4, 5550, Note_on_c, 2, 53, 0
4, 5550, Note_on_c, 2, 52, 64
4, 5565, Note_on_c, 2, 52, 0
4, 5565, Note_on_c, 2, 53, 64
4, 5573, Control_c, 2, 7, 90
4, 5580, Note_on_c, 2, 53, 0
4, 5580, Note_on_c, 2, 52, 64
4, 5595, Note_on_c, 2, 52, 0
4, 5595, Note_on_c, 2, 53, 64
4, 5606, Control_c, 2, 7, 91
4, 5610, Note_on_c, 2, 53, 0
4, 5610, Note_on_c, 2, 52, 64
4, 5625, Note_on_c, 2, 52, 0
4, 5625, Note_on_c, 2, 53, 64
4, 5640, Note_on_c, 2, 53, 0
4, 5640, Note_on_c, 2, 52, 64
4, 5640, Control_c, 2, 7, 92
4, 5655, Note_on_c, 2, 52, 0
4, 5655, Note_on_c, 2, 53, 64
4, 5670, Note_on_c, 2, 53, 0
4, 5670, Note_on_c, 2, 52, 64
4, 5673, Control_c, 2, 7, 93
4, 5685, Note_on_c, 2, 52, 0
4, 5685, Note_on_c, 2, 53, 64
4, 5700, Note_on_c, 2, 53, 0
4, 5700, Note_on_c, 2, 52, 64
4, 5706, Control_c, 2, 7, 94
4, 5715, Note_on_c, 2, 52, 0
4, 5715, Note_on_c, 2, 53, 64
4, 5730, Note_on_c, 2, 53, 0
4, 5730, Note_on_c, 2, 52, 64
4, 5740, Control_c, 2, 7, 95
4, 5745, Note_on_c, 2, 52, 0
4, 5745, Note_on_c, 2, 53, 64
4, 5760, Note_on_c, 2, 53, 0
4, 5760, Note_on_c, 2, 52, 64
4, 5773, Control_c, 2, 7, 96
4, 5775, Note_on_c, 2, 52, 0
4, 5775, Note_on_c, 2, 53, 64
4, 5790, Note_on_c, 2, 53, 0
4, 5790, Note_on_c, 2, 52, 64
4, 5805, Note_on_c, 2, 52, 0
4, 5805, Note_on_c, 2, 53, 64
4, 5806, Control_c, 2, 7, 97
4, 5820, Note_on_c, 2, 53, 0
4, 5820, Note_on_c, 2, 52, 64
4, 5835, Note_on_c, 2, 52, 0
4, 5835, Note_on_c, 2, 53, 64
4, 5840, Control_c, 2, 7, 98
4, 5850, Note_on_c, 2, 53, 0
4, 5850, Note_on_c, 2, 52, 64
4, 5865, Note_on_c, 2, 52, 0
4, 5865, Note_on_c, 2, 53, 64
4, 5873, Control_c, 2, 7, 99
4, 5880, Note_on_c, 2, 53, 0
4, 5880, Note_on_c, 2, 52, 64
4, 5895, Note_on_c, 2, 52, 0
4, 5895, Note_on_c, 2, 53, 64
4, 5906, Control_c, 2, 7, 100
4, 5910, Note_on_c, 2, 53, 0
4, 5910, Note_on_c, 2, 52, 64
4, 5925, Note_on_c, 2, 52, 0
4, 5925, Note_on_c, 2, 51, 64
4, 5940, Note_on_c, 2, 51, 0
4, 5940, Note_on_c, 2, 52, 64
4, 5940, Control_c, 2, 7, 101
4, 5973, Control_c, 2, 7, 102
4, 6000, Note_on_c, 2, 52, 0
4, 6000, Note_on_c, 2, 52, 64
4, 6006, Control_c, 2, 7, 103
4, 6040, Control_c, 2, 7, 104
4, 6060, Note_on_c, 2, 52, 0
4, 6060, Note_on_c, 2, 50, 64
4, 6073, Control_c, 2, 7, 105
4, 6106, Control_c, 2, 7, 106
4, 6120, Note_on_c, 2, 50, 0
4, 6120, Note_on_c, 2, 48, 64
4, 6140, Control_c, 2, 7, 107
4, 6173, Control_c, 2, 7, 108
4, 6180, Note_on_c, 2, 48, 0
4, 6180, Note_on_c, 2, 47, 64
4, 6206, Control_c, 2, 7, 109
4, 6240, Note_on_c, 2, 47, 0
4, 6240, Note_on_c, 2, 45, 64
4, 6240, Control_c, 2, 7, 110
4, 6273, Control_c, 2, 7, 111
4, 6300, Note_on_c, 2, 45, 0
4, 6300, Note_on_c, 2, 50, 64
4, 6303, Control_c, 2, 7, 112
4, 6313, Control_c, 2, 7, 110
4, 6360, Note_on_c, 2, 50, 0
4, 6360, Note_on_c, 2, 52, 64
4, 6373, Control_c, 2, 7, 109
4, 6420, Note_on_c, 2, 52, 0
4, 6420, Note_on_c, 2, 53, 64
4, 6430, Control_c, 2, 7, 108
4, 6480, Note_on_c, 2, 53, 0
4, 6480, Note_on_c, 2, 50, 64
4, 6483, Control_c, 2, 7, 108
4, 6490, Control_c, 2, 7, 107
4, 6493, Control_c, 2, 7, 106
4, 6496, Control_c, 2, 7, 105
4, 6500, Control_c, 2, 7, 104
4, 6506, Control_c, 2, 7, 103
4, 6510, Control_c, 2, 7, 102
4, 6513, Control_c, 2, 7, 101
4, 6516, Control_c, 2, 7, 100
4, 6523, Control_c, 2, 7, 99
4, 6526, Control_c, 2, 7, 98
4, 6530, Control_c, 2, 7, 97
4, 6533, Control_c, 2, 7, 96
4, 6540, Note_on_c, 2, 50, 0
4, 6540, Note_on_c, 2, 52, 64
4, 6540, Control_c, 2, 7, 95
4, 6543, Control_c, 2, 7, 94
4, 6546, Control_c, 2, 7, 93
4, 6550, Control_c, 2, 7, 92
4, 6556, Control_c, 2, 7, 91
4, 6560, Control_c, 2, 7, 90
4, 6563, Control_c, 2, 7, 89
4, 6566, Control_c, 2, 7, 88
4, 6573, Control_c, 2, 7, 87
4, 6576, Control_c, 2, 7, 86
4, 6580, Control_c, 2, 7, 85
4, 6583, Control_c, 2, 7, 84
4, 6590, Control_c, 2, 7, 83
4, 6593, Control_c, 2, 7, 82
4, 6596, Control_c, 2, 7, 81
4, 6600, Note_on_c, 2, 52, 0
4, 6600, Note_on_c, 2, 40, 64
4, 6600, Control_c, 2, 7, 80
4, 6606, Control_c, 2, 7, 79
4, 6610, Control_c, 2, 7, 78
4, 6613, Control_c, 2, 7, 77
4, 6616, Control_c, 2, 7, 76
4, 6623, Control_c, 2, 7, 75
4, 6626, Control_c, 2, 7, 74
4, 6630, Control_c, 2, 7, 73
4, 6633, Control_c, 2, 7, 72
4, 6640, Control_c, 2, 7, 71
4, 6643, Control_c, 2, 7, 70
4, 6646, Control_c, 2, 7, 69
4, 6650, Control_c, 2, 7, 68
4, 6660, Note_on_c, 2, 40, 0
4, 6660, Note_on_c, 2, 57, 64
4, 6690, Note_on_c, 2, 57, 0
4, 6690, Note_on_c, 2, 45, 64
4, 6720, Note_on_c, 2, 45, 0
4, 6720, Note_on_c, 2, 46, 64
4, 6723, Control_c, 2, 7, 70
4, 6750, Note_on_c, 2, 46, 0
4, 6750, Note_on_c, 2, 48, 64
4, 6776, Control_c, 2, 7, 71
4, 6780, Note_on_c, 2, 48, 0
4, 6780, Note_on_c, 2, 50, 64
4, 6810, Note_on_c, 2, 50, 0
4, 6810, Note_on_c, 2, 51, 64
4, 6830, Control_c, 2, 7, 72
4, 6840, Note_on_c, 2, 51, 0
4, 6840, Note_on_c, 2, 42, 64
4, 6870, Note_on_c, 2, 42, 0
4, 6870, Note_on_c, 2, 51, 64
4, 6883, Control_c, 2, 7, 73
4, 6900, Note_on_c, 2, 51, 0
4, 6900, Note_on_c, 2, 50, 64
4, 6930, Note_on_c, 2, 50, 0
4, 6930, Note_on_c, 2, 48, 64
4, 6936, Control_c, 2, 7, 74
4, 6960, Note_on_c, 2, 48, 0
4, 6960, Note_on_c, 2, 46, 64
4, 6986, Control_c, 2, 7, 75
4, 6990, Note_on_c, 2, 46, 0
4, 6990, Note_on_c, 2, 45, 64
4, 7020, Note_on_c, 2, 45, 0
4, 7020, Note_on_c, 2, 43, 64
4, 7040, Control_c, 2, 7, 76
4, 7093, Control_c, 2, 7, 77
4, 7110, Note_on_c, 2, 43, 0
4, 7110, Note_on_c, 2, 43, 64
4, 7140, Note_on_c, 2, 43, 0
4, 7140, Note_on_c, 2, 45, 64
4, 7146, Control_c, 2, 7, 78
4, 7170, Note_on_c, 2, 45, 0
4, 7170, Note_on_c, 2, 46, 64
4, 7200, Note_on_c, 2, 46, 0
4, 7200, Note_on_c, 2, 36, 64
4, 7200, Control_c, 2, 7, 79
4, 7250, Control_c, 2, 7, 80
4, 7260, Note_on_c, 2, 36, 0
4, 7260, Note_on_c, 2, 43, 64
4, 7303, Control_c, 2, 7, 81
4, 7320, Note_on_c, 2, 43, 0
4, 7320, Note_on_c, 2, 48, 64
4, 7356, Control_c, 2, 7, 82
4, 7380, Note_on_c, 2, 48, 0
4, 7380, Note_on_c, 2, 53, 64
4, 7410, Note_on_c, 2, 53, 0
4, 7410, Note_on_c, 2, 55, 64
4, 7410, Control_c, 2, 7, 83
4, 7440, Note_on_c, 2, 55, 0
4, 7440, Note_on_c, 2, 57, 64
4, 7463, Control_c, 2, 7, 84
4, 7470, Note_on_c, 2, 57, 0
4, 7470, Note_on_c, 2, 59, 64
4, 7500, Note_on_c, 2, 59, 0
4, 7500, Note_on_c, 2, 61, 64
4, 7513, Control_c, 2, 7, 85
4, 7530, Note_on_c, 2, 61, 0
4, 7530, Note_on_c, 2, 62, 64
4, 7560, Note_on_c, 2, 62, 0
4, 7560, Note_on_c, 2, 52, 64
4, 7566, Control_c, 2, 7, 86
4, 7590, Note_on_c, 2, 52, 0
4, 7590, Note_on_c, 2, 62, 64
4, 7620, Note_on_c, 2, 62, 0
4, 7620, Note_on_c, 2, 61, 64
4, 7620, Control_c, 2, 7, 87
4, 7650, Note_on_c, 2, 61, 0
4, 7650, Note_on_c, 2, 59, 64
4, 7673, Control_c, 2, 7, 88
4, 7680, Note_on_c, 2, 59, 0
4, 7680, Note_on_c, 2, 57, 64
4, 7710, Note_on_c, 2, 57, 0
4, 7710, Note_on_c, 2, 55, 64
4, 7726, Control_c, 2, 7, 89
4, 7740, Note_on_c, 2, 55, 0
4, 7740, Note_on_c, 2, 53, 64
4, 7776, Control_c, 2, 7, 90
4, 7800, Note_on_c, 2, 53, 0
4, 7800, Note_on_c, 2, 57, 90
4, 7830, Control_c, 2, 7, 91
4, 7860, Note_on_c, 2, 57, 0
4, 7860, Note_on_c, 2, 62, 90
4, 7883, Control_c, 2, 7, 92
4, 7920, Note_on_c, 2, 62, 0
4, 7920, Note_on_c, 2, 52, 90
4, 7936, Control_c, 2, 7, 93
4, 7980, Note_on_c, 2, 52, 0
4, 7980, Note_on_c, 2, 55, 90
4, 7990, Control_c, 2, 7, 94
4, 8040, Note_on_c, 2, 55, 0
4, 8040, Note_on_c, 2, 61, 90
4, 8040, Control_c, 2, 7, 95
4, 8093, Control_c, 2, 7, 96
4, 8100, Note_on_c, 2, 61, 0
4, 8100, Note_on_c, 2, 50, 64
4, 8130, Note_on_c, 2, 50, 0
4, 8130, Note_on_c, 2, 52, 64
4, 8146, Control_c, 2, 7, 97
4, 8160, Note_on_c, 2, 52, 0
4, 8160, Note_on_c, 2, 53, 64
4, 8190, Note_on_c, 2, 53, 0
4, 8190, Note_on_c, 2, 55, 64
4, 8200, Control_c, 2, 7, 98
4, 8220, Note_on_c, 2, 55, 0
4, 8220, Note_on_c, 2, 57, 64
4, 8250, Note_on_c, 2, 57, 0
4, 8250, Note_on_c, 2, 58, 64
4, 8253, Control_c, 2, 7, 99
4, 8280, Note_on_c, 2, 58, 0
4, 8280, Note_on_c, 2, 49, 64
4, 8303, Control_c, 2, 7, 100
4, 8310, Note_on_c, 2, 49, 0
4, 8310, Note_on_c, 2, 58, 64
4, 8340, Note_on_c, 2, 58, 0
4, 8340, Note_on_c, 2, 57, 64
4, 8356, Control_c, 2, 7, 101
4, 8370, Note_on_c, 2, 57, 0
4, 8370, Note_on_c, 2, 55, 64
4, 8400, Note_on_c, 2, 55, 0
4, 8400, Note_on_c, 2, 53, 64
4, 8410, Control_c, 2, 7, 102
4, 8430, Note_on_c, 2, 53, 0
4, 8430, Note_on_c, 2, 52, 64
4, 8460, Note_on_c, 2, 52, 0
4, 8460, Note_on_c, 2, 53, 64
4, 8463, Control_c, 2, 7, 103
4, 8490, Note_on_c, 2, 53, 0
4, 8490, Note_on_c, 2, 55, 64
4, 8516, Control_c, 2, 7, 104
4, 8518, Note_on_c, 2, 57, 64
4, 8520, Note_on_c, 2, 55, 0
4, 8566, Control_c, 2, 7, 105
4, 8577, Note_on_c, 2, 45, 64
4, 8578, Note_on_c, 2, 57, 0
4, 8620, Control_c, 2, 7, 106
4, 8637, Note_on_c, 2, 45, 0
4, 8640, Note_on_c, 2, 46, 64
4, 8673, Control_c, 2, 7, 107
4, 8726, Control_c, 2, 7, 108
4, 8730, Note_on_c, 2, 46, 0
4, 8730, Note_on_c, 2, 48, 64
4, 8760, Note_on_c, 2, 48, 0
4, 8760, Note_on_c, 2, 46, 64
4, 8780, Control_c, 2, 7, 109
4, 8790, Note_on_c, 2, 46, 0
4, 8790, Note_on_c, 2, 45, 64
4, 8820, Note_on_c, 2, 45, 0
4, 8820, Note_on_c, 2, 43, 64
4, 8830, Control_c, 2, 7, 110
4, 8850, Note_on_c, 2, 43, 0
4, 8850, Note_on_c, 2, 58, 64
4, 8880, Note_on_c, 2, 58, 0
4, 8880, Note_on_c, 2, 57, 64
4, 8910, Note_on_c, 2, 57, 0
4, 8910, Note_on_c, 2, 55, 64
4, 8940, Note_on_c, 2, 55, 0
4, 8940, Note_on_c, 2, 53, 64
4, 8970, Note_on_c, 2, 53, 0
4, 8970, Note_on_c, 2, 52, 64
4, 9000, Note_on_c, 2, 52, 0
4, 9000, Note_on_c, 2, 53, 64
4, 9000, Control_c, 2, 7, 107
4, 9010, Control_c, 2, 7, 106
4, 9020, Control_c, 2, 7, 105
4, 9026, Control_c, 2, 7, 104
4, 9030, Note_on_c, 2, 53, 0
4, 9030, Note_on_c, 2, 55, 64
4, 9036, Control_c, 2, 7, 103
4, 9043, Control_c, 2, 7, 102
4, 9053, Control_c, 2, 7, 101
4, 9060, Note_on_c, 2, 55, 0
4, 9060, Note_on_c, 2, 57, 64
4, 9060, Control_c, 2, 7, 100
4, 9070, Control_c, 2, 7, 99
4, 9076, Control_c, 2, 7, 98
4, 9086, Control_c, 2, 7, 97
4, 9093, Control_c, 2, 7, 96
4, 9103, Control_c, 2, 7, 95
4, 9110, Control_c, 2, 7, 94
4, 9120, Note_on_c, 2, 57, 0
4, 9120, Note_on_c, 2, 45, 64
4, 9120, Control_c, 2, 7, 93
4, 9126, Control_c, 2, 7, 92
4, 9136, Control_c, 2, 7, 91
4, 9143, Control_c, 2, 7, 90
4, 9153, Control_c, 2, 7, 89
4, 9160, Control_c, 2, 7, 88
4, 9170, Control_c, 2, 7, 87
4, 9176, Control_c, 2, 7, 86
4, 9180, Note_on_c, 2, 45, 0
4, 9180, Note_on_c, 2, 38, 64
4, 9186, Control_c, 2, 7, 85
4, 9193, Control_c, 2, 7, 84
4, 9203, Control_c, 2, 7, 83
4, 9210, Control_c, 2, 7, 82
4, 9220, Control_c, 2, 7, 81
4, 9226, Control_c, 2, 7, 80
4, 9236, Control_c, 2, 7, 79
4, 9243, Control_c, 2, 7, 78
4, 9253, Control_c, 2, 7, 77
4, 9260, Control_c, 2, 7, 76
4, 9270, Control_c, 2, 7, 75
4, 9276, Control_c, 2, 7, 74
4, 9286, Control_c, 2, 7, 73
4, 9293, Control_c, 2, 7, 72
4, 9303, Control_c, 2, 7, 71
4, 9310, Control_c, 2, 7, 70
4, 9320, Control_c, 2, 7, 69
4, 9326, Control_c, 2, 7, 68
4, 9336, Control_c, 2, 7, 67
4, 9343, Control_c, 2, 7, 66
4, 9353, Control_c, 2, 7, 65
4, 9360, Note_on_c, 2, 38, 0
4, 9360, Control_c, 2, 7, 64
4, 9360, End_track
0, 0, End_of_file