0, 0, Header, 0, 1, 240
1, 0, Start_track
1, 0, Time_signature, 1, 2, 24, 8
1, 0, Tempo, 500000
1, 396, Marker_t, "interpreted by (P) 1997 S.D. Rodrian  WTC Book2 Prelude & Fugue in A"
1, 1782, Program_c, 0, 0
1, 1782, Program_c, 1, 0
1, 1783, Control_c, 0, 10, 74
1, 1783, Program_c, 2, 0
1, 1784, Control_c, 1, 10, 66
1, 1784, Control_c, 2, 10, 59
1, 2442, Control_c, 0, 7, 127
1, 2458, Program_c, 2, 0
1, 2477, Program_c, 1, 0
1, 2493, Program_c, 0, 0
1, 2496, Control_c, 2, 10, 60
1, 2506, Control_c, 2, 7, 127
1, 2509, Control_c, 1, 7, 127
1, 2515, Program_c, 2, 0
1, 2529, Control_c, 2, 10, 58
1, 2532, Control_c, 0, 10, 79
1, 2538, Control_c, 2, 10, 55
1, 2562, Control_c, 1, 10, 67
1, 2563, Control_c, 2, 10, 59
1, 2582, Control_c, 0, 10, 75
1, 2582, Control_c, 1, 10, 66
1, 2606, Control_c, 0, 10, 74
1, 3103, Note_on_c, 1, 64, 119
1, 3104, Note_on_c, 1, 57, 119
1, 3173, Note_off_c, 1, 64, 1
1, 3184, Note_on_c, 0, 69, 120
1, 3242, Note_off_c, 1, 57, 1
1, 3251, Note_off_c, 0, 69, 1
1, 3262, Note_on_c, 0, 68, 120
1, 3262, Note_on_c, 1, 52, 119
1, 3329, Note_off_c, 1, 52, 1
1, 3329, Note_off_c, 0, 68, 1
1, 3339, Note_on_c, 0, 69, 120
1, 3340, Note_on_c, 1, 49, 119
1, 3407, Note_off_c, 0, 69, 1
1, 3417, Note_on_c, 0, 73, 120
1, 3475, Note_off_c, 1, 49, 1
1, 3483, Note_off_c, 0, 73, 1
1, 3494, Note_on_c, 0, 71, 120
1, 3494, Note_on_c, 1, 52, 127
1, 3560, Note_off_c, 1, 52, 1
1, 3561, Note_off_c, 0, 71, 1
1, 3571, Note_on_c, 0, 73, 120
1, 3571, Note_on_c, 1, 57, 127
1, 3572, Note_on_c, 2, 45, 127
1, 3637, Note_off_c, 1, 57, 1
1, 3647, Note_on_c, 1, 64, 127
1, 3704, Note_off_c, 2, 45, 1
1, 3714, Note_off_c, 1, 64, 1
1, 3723, Note_on_c, 1, 62, 127
1, 3724, Note_on_c, 2, 47, 127
1, 3790, Note_off_c, 2, 47, 1
1, 3790, Note_off_c, 1, 62, 1
1, 3800, Note_on_c, 1, 49, 127
1, 3801, Note_on_c, 1, 64, 127
1, 3866, Note_off_c, 1, 64, 1
1, 3877, Note_on_c, 0, 68, 120
1, 3933, Note_off_c, 1, 49, 1
1, 3942, Note_off_c, 0, 68, 1
1, 3952, Note_on_c, 1, 66, 127
1, 3952, Note_on_c, 2, 45, 127
1, 4017, Note_off_c, 2, 45, 1
1, 4018, Note_off_c, 1, 66, 1
1, 4027, Note_on_c, 0, 68, 120
1, 4027, Note_on_c, 1, 52, 127
1, 4092, Note_off_c, 0, 73, 1
1, 4102, Note_on_c, 0, 71, 120
1, 4158, Note_off_c, 1, 52, 1
1, 4167, Note_off_c, 0, 71, 1
1, 4176, Note_on_c, 0, 69, 120
1, 4177, Note_on_c, 2, 40, 127
1, 4242, Note_off_c, 2, 40, 1
1, 4242, Note_off_c, 0, 69, 1
1, 4251, Note_on_c, 0, 71, 120
1, 4252, Note_on_c, 2, 40, 127
1, 4317, Note_off_c, 0, 71, 1
1, 4326, Note_on_c, 0, 74, 120
1, 4383, Note_off_c, 2, 40, 1
1, 4392, Note_off_c, 0, 74, 1
1, 4401, Note_on_c, 0, 73, 120
1, 4402, Note_on_c, 1, 52, 127
1, 4466, Note_off_c, 1, 52, 1
1, 4467, Note_off_c, 0, 73, 1
1, 4476, Note_on_c, 0, 74, 120
1, 4476, Note_on_c, 1, 52, 127
1, 4541, Note_off_c, 0, 68, 1
1, 4551, Note_on_c, 1, 66, 127
1, 4608, Note_off_c, 1, 52, 1
1, 4616, Note_off_c, 1, 66, 1
1, 4626, Note_on_c, 1, 50, 127
1, 4626, Note_on_c, 1, 64, 127
1, 4691, Note_off_c, 1, 64, 1
1, 4692, Note_off_c, 1, 50, 1
1, 4702, Note_on_c, 1, 49, 127
1, 4703, Note_on_c, 1, 66, 127
1, 4766, Note_off_c, 1, 66, 1
1, 4777, Note_on_c, 0, 69, 120
1, 4834, Note_off_c, 1, 49, 1
1, 4842, Note_off_c, 0, 69, 1
1, 4852, Note_on_c, 0, 68, 120
1, 4852, Note_on_c, 2, 47, 127
1, 4917, Note_off_c, 2, 47, 1
1, 4917, Note_off_c, 0, 68, 1
1, 4927, Note_on_c, 0, 69, 120
1, 4927, Note_on_c, 2, 45, 127
1, 4992, Note_off_c, 2, 45, 1
1, 4992, Note_off_c, 0, 74, 1
1, 5003, Note_on_c, 0, 73, 120
1, 5003, Note_on_c, 1, 57, 127
1, 5066, Note_off_c, 1, 57, 1
1, 5067, Note_off_c, 0, 73, 1
1, 5077, Note_on_c, 0, 71, 120
1, 5078, Note_on_c, 1, 56, 127
1, 5141, Note_off_c, 1, 56, 1
1, 5142, Note_off_c, 0, 71, 1
1, 5152, Note_on_c, 0, 73, 120
1, 5153, Note_on_c, 1, 57, 127
1, 5217, Note_off_c, 1, 57, 1
1, 5218, Note_off_c, 0, 73, 1
1, 5227, Note_on_c, 0, 76, 120
1, 5228, Note_on_c, 1, 61, 127
1, 5292, Note_off_c, 1, 61, 1
1, 5292, Note_off_c, 0, 76, 1
1, 5302, Note_on_c, 0, 74, 120
1, 5303, Note_on_c, 1, 59, 127
1, 5366, Note_off_c, 1, 59, 1
1, 5366, Note_off_c, 0, 74, 1
1, 5376, Note_on_c, 0, 76, 118
1, 5376, Note_on_c, 1, 61, 127
1, 5440, Note_off_c, 1, 61, 1
1, 5440, Note_off_c, 0, 76, 1
1, 5450, Note_on_c, 0, 74, 118
1, 5450, Note_on_c, 1, 59, 127
1, 5514, Note_off_c, 1, 59, 1
1, 5514, Note_off_c, 0, 74, 1
1, 5524, Note_on_c, 0, 73, 120
1, 5524, Note_on_c, 1, 57, 127
1, 5587, Note_off_c, 1, 57, 1
1, 5588, Note_off_c, 0, 73, 1
1, 5598, Note_on_c, 0, 74, 116
1, 5598, Note_on_c, 1, 59, 127
1, 5661, Note_off_c, 1, 59, 1
1, 5662, Note_off_c, 0, 74, 1
1, 5671, Note_on_c, 0, 78, 114
1, 5671, Note_on_c, 1, 62, 127
1, 5734, Note_off_c, 1, 62, 1
1, 5735, Note_off_c, 0, 78, 1
1, 5745, Note_on_c, 0, 76, 114
1, 5745, Note_on_c, 1, 61, 127
1, 5808, Note_off_c, 1, 61, 1
1, 5808, Note_off_c, 0, 76, 1
1, 5819, Note_on_c, 0, 78, 114
1, 5819, Note_on_c, 1, 62, 127
1, 5882, Note_off_c, 0, 69, 1
1, 5892, Note_on_c, 0, 71, 120
1, 5947, Note_off_c, 1, 62, 1
1, 5956, Note_off_c, 0, 71, 1
1, 5965, Note_on_c, 0, 73, 120
1, 5966, Note_on_c, 1, 61, 127
1, 6030, Note_off_c, 1, 61, 1
1, 6030, Note_off_c, 0, 73, 1
1, 6039, Note_on_c, 0, 74, 116
1, 6040, Note_on_c, 1, 59, 127
1, 6104, Note_off_c, 0, 78, 1
1, 6113, Note_on_c, 0, 80, 114
1, 6169, Note_off_c, 1, 59, 1
1, 6178, Note_off_c, 0, 80, 1
1, 6187, Note_on_c, 0, 81, 114
1, 6188, Note_on_c, 1, 57, 127
1, 6251, Note_off_c, 1, 57, 1
1, 6251, Note_off_c, 0, 81, 1
1, 6260, Note_on_c, 0, 83, 116
1, 6261, Note_on_c, 1, 56, 127
1, 6324, Note_off_c, 0, 83, 1
1, 6325, Note_off_c, 0, 74, 1
1, 6334, Note_on_c, 0, 76, 116
1, 6335, Note_on_c, 0, 73, 120
1, 6389, Note_off_c, 1, 56, 1
1, 6397, Note_off_c, 0, 73, 1
1, 6407, Note_on_c, 0, 71, 120
1, 6471, Note_off_c, 0, 71, 1
1, 6481, Note_on_c, 0, 73, 120
1, 6481, Note_on_c, 1, 57, 127
1, 6544, Note_off_c, 0, 76, 1
1, 6554, Note_on_c, 0, 78, 116
1, 6610, Note_off_c, 1, 57, 1
1, 6618, Note_off_c, 0, 78, 1
1, 6628, Note_on_c, 0, 80, 116
1, 6691, Note_off_c, 0, 80, 1
1, 6701, Note_on_c, 0, 81, 116
1, 6701, Note_on_c, 1, 54, 127
1, 6765, Note_off_c, 0, 81, 1
1, 6766, Note_off_c, 0, 73, 1
1, 6775, Note_on_c, 0, 74, 116
1, 6775, Note_on_c, 0, 71, 120
1, 6830, Note_off_c, 1, 54, 1
1, 6838, Note_off_c, 0, 71, 1
1, 6849, Note_on_c, 0, 69, 120
1, 6912, Note_off_c, 0, 69, 1
1, 6922, Note_on_c, 0, 71, 120
1, 6922, Note_on_c, 1, 56, 127
1, 6985, Note_off_c, 0, 74, 1
1, 6996, Note_on_c, 0, 76, 118
1, 7050, Note_off_c, 1, 56, 1
1, 7059, Note_off_c, 0, 76, 1
1, 7069, Note_on_c, 0, 74, 118
1, 7132, Note_off_c, 0, 74, 1
1, 7143, Note_on_c, 0, 73, 120
1, 7143, Note_on_c, 1, 57, 127
1, 7205, Note_off_c, 0, 73, 1
1, 7216, Note_on_c, 0, 74, 118
1, 7270, Note_off_c, 1, 57, 1
1, 7270, Note_off_c, 0, 71, 1
1, 7278, Note_off_c, 0, 74, 1
1, 7287, Note_on_c, 0, 76, 118
1, 7288, Note_on_c, 0, 69, 120
1, 7289, Note_on_c, 1, 49, 127
1, 7351, Note_off_c, 1, 49, 1
1, 7351, Note_off_c, 0, 69, 1
1, 7352, Note_off_c, 0, 76, 1
1, 7361, Note_on_c, 0, 68, 120
1, 7361, Note_on_c, 0, 74, 118
1, 7361, Note_on_c, 2, 47, 127
1, 7424, Note_off_c, 0, 74, 1
1, 7434, Note_on_c, 0, 76, 118
1, 7488, Note_off_c, 2, 47, 1
1, 7489, Note_off_c, 0, 68, 1
1, 7497, Note_off_c, 0, 76, 1
1, 7507, Note_on_c, 0, 73, 120
1, 7507, Note_on_c, 0, 69, 120
1, 7508, Note_on_c, 2, 45, 127
1, 7571, Note_off_c, 2, 45, 1
1, 7571, Note_off_c, 0, 73, 1
1, 7581, Note_on_c, 0, 71, 120
1, 7581, Note_on_c, 2, 40, 127
1, 7644, Note_off_c, 2, 40, 1
1, 7644, Note_off_c, 0, 69, 1
1, 7654, Note_on_c, 0, 68, 120
1, 7654, Note_on_c, 1, 52, 127
1, 7717, Note_off_c, 1, 52, 1
1, 7717, Note_off_c, 0, 68, 1
1, 7727, Note_on_c, 1, 51, 127
1, 7727, Note_on_c, 1, 66, 127
1, 7781, Note_off_c, 0, 71, 1
1, 7790, Note_off_c, 1, 66, 1
1, 7790, Note_off_c, 1, 51, 1
1, 7800, Note_on_c, 0, 76, 120
1, 7800, Note_on_c, 0, 68, 120
1, 7800, Note_on_c, 1, 52, 127
1, 7862, Note_off_c, 1, 52, 1
1, 7863, Note_off_c, 0, 68, 1
1, 7873, Note_on_c, 0, 71, 120
1, 7874, Note_on_c, 1, 56, 127
1, 7936, Note_off_c, 1, 56, 1
1, 7937, Note_off_c, 0, 71, 1
1, 7946, Note_on_c, 0, 69, 120
1, 7947, Note_on_c, 1, 54, 127
1, 8010, Note_off_c, 1, 54, 1
1, 8010, Note_off_c, 0, 69, 1
1, 8019, Note_on_c, 0, 71, 120
1, 8020, Note_on_c, 1, 56, 127
1, 8083, Note_off_c, 0, 76, 1
1, 8093, Note_on_c, 0, 78, 118
1, 8157, Note_off_c, 0, 78, 1
1, 8166, Note_on_c, 0, 76, 118
1, 8230, Note_off_c, 0, 76, 1
1, 8239, Note_on_c, 0, 74, 118
1, 8303, Note_off_c, 1, 56, 1
1, 8312, Note_on_c, 1, 59, 127
1, 8367, Note_off_c, 0, 74, 1
1, 8367, Note_off_c, 0, 71, 1
1, 8376, Note_off_c, 1, 59, 1
1, 8385, Note_on_c, 0, 73, 118
1, 8386, Note_on_c, 1, 58, 127
1, 8386, Note_on_c, 1, 66, 127
1, 8448, Note_off_c, 1, 58, 1
1, 8448, Note_off_c, 0, 73, 1
1, 8457, Note_on_c, 0, 74, 118
1, 8458, Note_on_c, 1, 59, 127
1, 8519, Note_off_c, 1, 59, 1
1, 8519, Note_off_c, 1, 66, 1
1, 8528, Note_on_c, 0, 71, 118
1, 8529, Note_on_c, 1, 62, 127
1, 8591, Note_off_c, 1, 62, 1
1, 8591, Note_off_c, 0, 71, 1
1, 8600, Note_on_c, 0, 70, 120
1, 8601, Note_on_c, 1, 61, 127
1, 8664, Note_off_c, 1, 61, 1
1, 8664, Note_off_c, 0, 70, 1
1, 8673, Note_on_c, 0, 71, 118
1, 8674, Note_on_c, 1, 62, 127
1, 8736, Note_off_c, 1, 62, 1
1, 8736, Note_off_c, 0, 74, 1
1, 8746, Note_on_c, 0, 74, 118
1, 8746, Note_on_c, 1, 66, 127
1, 8808, Note_off_c, 1, 66, 1
1, 8809, Note_off_c, 0, 74, 1
1, 8818, Note_on_c, 0, 73, 118
1, 8819, Note_on_c, 1, 64, 127
1, 8881, Note_off_c, 1, 64, 1
1, 8882, Note_off_c, 0, 73, 1
1, 8891, Note_on_c, 0, 74, 118
1, 8892, Note_on_c, 1, 66, 127
1, 8953, Note_off_c, 0, 71, 1
1, 8963, Note_on_c, 0, 69, 120
1, 9025, Note_off_c, 0, 69, 1
1, 9036, Note_on_c, 0, 68, 120
1, 9098, Note_off_c, 0, 68, 1
1, 9108, Note_on_c, 0, 69, 120
1, 9170, Note_off_c, 0, 69, 1
1, 9171, Note_off_c, 1, 66, 1
1, 9180, Note_on_c, 0, 73, 118
1, 9180, Note_on_c, 0, 69, 120
1, 9235, Note_off_c, 0, 74, 1
1, 9243, Note_off_c, 0, 69, 1
1, 9244, Note_off_c, 0, 73, 1
1, 9254, Note_on_c, 0, 83, 116
1, 9254, Note_on_c, 0, 71, 118
1, 9255, Note_on_c, 0, 68, 120
1, 9317, Note_off_c, 0, 68, 1
1, 9318, Note_off_c, 0, 71, 1
1, 9318, Note_off_c, 0, 83, 1
1, 9327, Note_on_c, 0, 76, 116
1, 9328, Note_on_c, 0, 69, 120
1, 9328, Note_on_c, 0, 73, 118
1, 9390, Note_off_c, 0, 76, 1
1, 9400, Note_on_c, 0, 78, 116
1, 9455, Note_off_c, 0, 73, 1
1, 9455, Note_off_c, 0, 69, 1
1, 9463, Note_off_c, 0, 78, 1
1, 9473, Note_on_c, 0, 76, 116
1, 9473, Note_on_c, 0, 71, 118
1, 9474, Note_on_c, 0, 68, 120
1, 9537, Note_off_c, 0, 68, 1
1, 9537, Note_off_c, 0, 71, 1
1, 9537, Note_off_c, 0, 76, 1
1, 9546, Note_on_c, 0, 75, 118
1, 9547, Note_on_c, 0, 69, 120
1, 9547, Note_on_c, 1, 66, 127
1, 9609, Note_off_c, 0, 75, 1
1, 9619, Note_on_c, 0, 76, 116
1, 9674, Note_off_c, 1, 66, 1
1, 9682, Note_off_c, 0, 76, 1
1, 9692, Note_on_c, 0, 78, 116
1, 9692, Note_on_c, 1, 64, 127
1, 9755, Note_off_c, 1, 64, 1
1, 9756, Note_off_c, 0, 78, 1
1, 9766, Note_on_c, 0, 71, 118
1, 9767, Note_on_c, 1, 63, 127
1, 9829, Note_off_c, 1, 63, 1
1, 9839, Note_on_c, 1, 59, 127
1, 9894, Note_off_c, 0, 71, 1
1, 9894, Note_off_c, 0, 69, 1
1, 9902, Note_off_c, 1, 59, 1
1, 9912, Note_on_c, 0, 73, 118
1, 9912, Note_on_c, 0, 68, 120
1, 9913, Note_on_c, 1, 64, 127
1, 9975, Note_off_c, 1, 64, 1
1, 9975, Note_off_c, 0, 68, 1
1, 9976, Note_off_c, 0, 73, 1
1, 9985, Note_on_c, 0, 69, 120
1, 9985, Note_on_c, 1, 64, 127
1, 9986, Note_on_c, 1, 66, 127
1, 10048, Note_off_c, 0, 69, 1
1, 10058, Note_on_c, 0, 68, 120
1, 10113, Note_off_c, 1, 64, 1
1, 10121, Note_off_c, 0, 68, 1
1, 10132, Note_on_c, 0, 69, 120
1, 10132, Note_on_c, 1, 63, 127
1, 10195, Note_off_c, 1, 63, 1
1, 10196, Note_off_c, 0, 69, 1
1, 10205, Note_on_c, 0, 68, 120
1, 10205, Note_on_c, 1, 64, 127
1, 10268, Note_off_c, 1, 64, 1
1, 10269, Note_off_c, 1, 66, 1
1, 10279, Note_on_c, 1, 63, 127
1, 10279, Note_on_c, 1, 59, 127
1, 10333, Note_off_c, 0, 68, 1
1, 10342, Note_off_c, 1, 63, 1
1, 10343, Note_off_c, 1, 59, 1
1, 10352, Note_on_c, 0, 69, 120
1, 10352, Note_on_c, 1, 64, 127
1, 10353, Note_on_c, 1, 61, 127
1, 10416, Note_off_c, 1, 61, 1
1, 10416, Note_off_c, 1, 64, 1
1, 10417, Note_off_c, 0, 69, 1
1, 10426, Note_on_c, 0, 68, 120
1, 10426, Note_on_c, 1, 64, 127
1, 10427, Note_on_c, 1, 59, 127
1, 10489, Note_off_c, 1, 59, 1
1, 10489, Note_off_c, 0, 68, 1
1, 10499, Note_on_c, 1, 56, 127
1, 10499, Note_on_c, 1, 66, 127
1, 10530, Note_off_c, 1, 66, 1
1, 10536, Note_on_c, 1, 64, 127
1, 10554, Note_off_c, 1, 64, 1
1, 10563, Note_off_c, 1, 56, 1
1, 10568, Note_off_c, 1, 64, 1
1, 10572, Note_on_c, 1, 66, 127
1, 10573, Note_on_c, 1, 63, 127
1, 10573, Note_on_c, 1, 57, 127
1, 10636, Note_off_c, 1, 57, 1
1, 10636, Note_off_c, 1, 63, 1
1, 10637, Note_off_c, 1, 66, 1
1, 10645, Note_on_c, 0, 83, 116
1, 10646, Note_on_c, 1, 56, 127
1, 10646, Note_on_c, 1, 64, 127
1, 10709, Note_off_c, 0, 83, 1
1, 10718, Note_on_c, 0, 76, 116
1, 10773, Note_off_c, 1, 64, 1
1, 10782, Note_off_c, 0, 76, 1
1, 10791, Note_on_c, 0, 78, 116
1, 10855, Note_off_c, 0, 78, 1
1, 10864, Note_on_c, 0, 76, 116
1, 10928, Note_off_c, 0, 76, 1
1, 10937, Note_on_c, 0, 73, 118
1, 10992, Note_off_c, 1, 56, 1
1, 11001, Note_off_c, 0, 73, 1
1, 11010, Note_on_c, 0, 74, 118
1, 11011, Note_on_c, 1, 52, 127
1, 11073, Note_off_c, 1, 52, 1
1, 11073, Note_off_c, 0, 74, 1
1, 11083, Note_on_c, 0, 73, 118
1, 11084, Note_on_c, 0, 69, 120
1, 11084, Note_on_c, 1, 57, 127
1, 11146, Note_off_c, 0, 69, 1
1, 11155, Note_on_c, 1, 64, 127
1, 11211, Note_off_c, 0, 73, 1
1, 11219, Note_off_c, 1, 64, 1
1, 11228, Note_on_c, 0, 69, 120
1, 11229, Note_on_c, 1, 66, 127
1, 11292, Note_off_c, 1, 66, 1
1, 11292, Note_off_c, 0, 69, 1
1, 11301, Note_on_c, 0, 79, 118
1, 11302, Note_on_c, 1, 64, 127
1, 11364, Note_off_c, 1, 64, 1
1, 11373, Note_on_c, 1, 61, 127
1, 11428, Note_off_c, 1, 57, 1
1, 11436, Note_off_c, 1, 61, 1
1, 11446, Note_on_c, 1, 59, 127
1, 11447, Note_on_c, 1, 62, 127
1, 11508, Note_off_c, 1, 62, 1
1, 11509, Note_off_c, 1, 59, 1
1, 11518, Note_on_c, 1, 57, 127
1, 11519, Note_on_c, 1, 61, 127
1, 11580, Note_off_c, 1, 57, 1
1, 11580, Note_off_c, 1, 61, 1
1, 11580, Note_off_c, 0, 79, 1
1, 11589, Note_on_c, 0, 73, 118
1, 11590, Note_on_c, 1, 52, 127
1, 11652, Note_off_c, 1, 52, 1
1, 11652, Note_off_c, 0, 73, 1
1, 11662, Note_on_c, 0, 74, 118
1, 11662, Note_on_c, 1, 54, 127
1, 11724, Note_off_c, 1, 54, 1
1, 11724, Note_off_c, 0, 74, 1
1, 11733, Note_on_c, 0, 73, 118
1, 11734, Note_on_c, 1, 52, 127
1, 11796, Note_off_c, 1, 52, 1
1, 11797, Note_off_c, 0, 73, 1
1, 11807, Note_on_c, 0, 70, 120
1, 11807, Note_on_c, 1, 49, 127
1, 11869, Note_off_c, 1, 49, 1
1, 11870, Note_off_c, 0, 70, 1
1, 11880, Note_on_c, 0, 71, 120
1, 11881, Note_on_c, 1, 50, 127
1, 11943, Note_off_c, 1, 50, 1
1, 11944, Note_off_c, 0, 71, 1
1, 11953, Note_on_c, 0, 76, 118
1, 11953, Note_on_c, 1, 61, 127
1, 11954, Note_on_c, 1, 49, 127
1, 12016, Note_off_c, 1, 61, 1
1, 12026, Note_on_c, 0, 68, 120
1, 12089, Note_off_c, 0, 68, 1
1, 12099, Note_on_c, 1, 66, 127
1, 12163, Note_off_c, 1, 66, 1
1, 12173, Note_on_c, 0, 68, 120
1, 12236, Note_off_c, 0, 68, 1
1, 12246, Note_on_c, 0, 71, 120
1, 12302, Note_off_c, 1, 49, 1
1, 12310, Note_off_c, 0, 71, 1
1, 12320, Note_on_c, 0, 70, 120
1, 12321, Note_on_c, 2, 42, 127
1, 12383, Note_off_c, 2, 42, 1
1, 12384, Note_off_c, 0, 70, 1
1, 12393, Note_on_c, 0, 71, 120
1, 12394, Note_on_c, 2, 47, 127
1, 12456, Note_off_c, 2, 47, 1
1, 12456, Note_off_c, 0, 76, 1
1, 12466, Note_on_c, 0, 74, 118
1, 12467, Note_on_c, 1, 54, 127
1, 12528, Note_off_c, 1, 54, 1
1, 12528, Note_off_c, 0, 74, 1
1, 12538, Note_on_c, 0, 73, 118
1, 12539, Note_on_c, 1, 52, 127
1, 12600, Note_off_c, 1, 52, 1
1, 12601, Note_off_c, 0, 73, 1
1, 12610, Note_on_c, 0, 74, 118
1, 12611, Note_on_c, 1, 54, 127
1, 12673, Note_off_c, 1, 54, 1
1, 12683, Note_on_c, 1, 57, 127
1, 12737, Note_off_c, 0, 74, 1
1, 12745, Note_off_c, 1, 57, 1
1, 12755, Note_on_c, 0, 76, 118
1, 12756, Note_on_c, 1, 56, 127
1, 12818, Note_off_c, 1, 56, 1
1, 12819, Note_off_c, 0, 76, 1
1, 12828, Note_on_c, 0, 73, 118
1, 12828, Note_on_c, 1, 57, 127
1, 12891, Note_off_c, 0, 71, 1
1, 12901, Note_on_c, 1, 64, 127
1, 12964, Note_off_c, 1, 64, 1
1, 12974, Note_on_c, 1, 62, 127
1, 13028, Note_off_c, 1, 57, 1
1, 13036, Note_off_c, 1, 62, 1
1, 13046, Note_on_c, 1, 64, 127
1, 13109, Note_off_c, 1, 64, 1
1, 13119, Note_on_c, 0, 68, 120
1, 13182, Note_off_c, 0, 68, 1
1, 13192, Note_on_c, 1, 66, 127
1, 13192, Note_on_c, 2, 45, 127
1, 13255, Note_off_c, 2, 45, 1
1, 13256, Note_off_c, 1, 66, 1
1, 13265, Note_on_c, 0, 68, 120
1, 13265, Note_on_c, 2, 41, 127
1, 13327, Note_off_c, 2, 41, 1
1, 13328, Note_off_c, 0, 73, 1
1, 13337, Note_on_c, 0, 71, 120
1, 13337, Note_on_c, 1, 50, 127
1, 13400, Note_off_c, 1, 50, 1
1, 13401, Note_off_c, 0, 71, 1
1, 13410, Note_on_c, 0, 69, 120
1, 13410, Note_on_c, 1, 49, 127
1, 13473, Note_off_c, 1, 49, 1
1, 13474, Note_off_c, 0, 69, 1
1, 13483, Note_on_c, 0, 71, 120
1, 13483, Note_on_c, 1, 51, 127
1, 13546, Note_off_c, 1, 51, 1
1, 13556, Note_on_c, 1, 54, 127
1, 13610, Note_off_c, 0, 71, 1
1, 13618, Note_off_c, 1, 54, 1
1, 13628, Note_on_c, 0, 73, 120
1, 13628, Note_on_c, 1, 53, 127
1, 13691, Note_off_c, 1, 53, 1
1, 13692, Note_off_c, 0, 73, 1
1, 13701, Note_on_c, 0, 69, 120
1, 13701, Note_on_c, 1, 54, 127
1, 13764, Note_off_c, 1, 54, 1
1, 13764, Note_off_c, 0, 68, 1
1, 13774, Note_on_c, 1, 57, 127
1, 13774, Note_on_c, 1, 66, 127
1, 13836, Note_off_c, 1, 66, 1
1, 13836, Note_off_c, 1, 57, 1
1, 13846, Note_on_c, 1, 56, 127
1, 13846, Note_on_c, 1, 65, 127
1, 13908, Note_off_c, 1, 65, 1
1, 13908, Note_off_c, 1, 56, 1
1, 13919, Note_on_c, 1, 66, 127
1, 13919, Note_on_c, 1, 57, 127
1, 13981, Note_off_c, 1, 57, 1
1, 13991, Note_on_c, 1, 61, 127
1, 14045, Note_off_c, 0, 69, 1
1, 14053, Note_off_c, 1, 61, 1
1, 14063, Note_on_c, 0, 74, 120
1, 14064, Note_on_c, 1, 59, 127
1, 14126, Note_off_c, 1, 59, 1
1, 14126, Note_off_c, 0, 74, 1
1, 14136, Note_on_c, 0, 68, 120
1, 14136, Note_on_c, 1, 61, 127
1, 14198, Note_off_c, 1, 66, 1
1, 14208, Note_on_c, 1, 65, 127
1, 14263, Note_off_c, 0, 68, 1
1, 14280, Note_on_c, 0, 73, 120
1, 14343, Note_off_c, 0, 73, 1
1, 14352, Note_on_c, 0, 74, 120
1, 14415, Note_off_c, 1, 65, 1
1, 14426, Note_on_c, 1, 66, 127
1, 14487, Note_off_c, 1, 66, 1
1, 14497, Note_on_c, 0, 68, 120
1, 14560, Note_off_c, 0, 68, 1
1, 14570, Note_on_c, 0, 69, 120
1, 14632, Note_off_c, 0, 74, 1
1, 14642, Note_on_c, 0, 72, 120
1, 14704, Note_off_c, 0, 72, 1
1, 14714, Note_on_c, 0, 73, 120
1, 14776, Note_off_c, 0, 73, 1
1, 14785, Note_on_c, 0, 78, 118
1, 14848, Note_off_c, 0, 69, 1
1, 14858, Note_on_c, 0, 68, 120
1, 14920, Note_off_c, 0, 68, 1
1, 14930, Note_on_c, 1, 66, 127
1, 14992, Note_off_c, 1, 66, 1
1, 15002, Note_on_c, 0, 68, 120
1, 15064, Note_off_c, 0, 78, 1
1, 15074, Note_on_c, 0, 75, 120
1, 15136, Note_off_c, 0, 75, 1
1, 15146, Note_on_c, 0, 77, 118
1, 15208, Note_off_c, 0, 77, 1
1, 15218, Note_on_c, 0, 81, 116
1, 15280, Note_off_c, 0, 68, 1
1, 15290, Note_on_c, 1, 65, 127
1, 15352, Note_off_c, 1, 65, 1
1, 15362, Note_on_c, 1, 66, 127
1, 15416, Note_off_c, 1, 61, 1
1, 15424, Note_off_c, 1, 66, 1
1, 15434, Note_on_c, 0, 71, 120
1, 15434, Note_on_c, 1, 62, 127
1, 15496, Note_off_c, 0, 81, 1
1, 15506, Note_on_c, 0, 80, 116
1, 15568, Note_off_c, 0, 80, 1
1, 15578, Note_on_c, 0, 78, 116
1, 15640, Note_off_c, 0, 78, 1
1, 15650, Note_on_c, 0, 80, 116
1, 15712, Note_off_c, 0, 80, 1
1, 15713, Note_off_c, 1, 62, 1
1, 15722, Note_on_c, 0, 81, 116
1, 15722, Note_on_c, 1, 61, 127
1, 15784, Note_off_c, 1, 61, 1
1, 15785, Note_off_c, 0, 81, 1
1, 15794, Note_on_c, 0, 83, 116
1, 15794, Note_on_c, 1, 59, 127
1, 15856, Note_off_c, 1, 59, 1
1, 15857, Note_off_c, 0, 83, 1
1, 15866, Note_on_c, 0, 77, 116
1, 15866, Note_on_c, 1, 61, 127
1, 15929, Note_off_c, 0, 77, 1
1, 15939, Note_on_c, 0, 73, 116
1, 15993, Note_off_c, 0, 71, 1
1, 16001, Note_off_c, 0, 73, 1
1, 16011, Note_on_c, 0, 78, 114
1, 16011, Note_on_c, 0, 69, 118
1, 16072, Note_off_c, 0, 69, 1
1, 16082, Note_on_c, 0, 68, 118
1, 16144, Note_off_c, 0, 78, 1
1, 16154, Note_on_c, 0, 80, 114
1, 16209, Note_off_c, 1, 61, 1
1, 16216, Note_off_c, 0, 80, 1
1, 16226, Note_on_c, 0, 77, 114
1, 16226, Note_on_c, 1, 49, 127
1, 16281, Note_off_c, 0, 68, 1
1, 16289, Note_off_c, 1, 49, 1
1, 16290, Note_off_c, 0, 77, 1
1, 16299, Note_on_c, 0, 69, 118
1, 16299, Note_on_c, 0, 78, 114
1, 16300, Note_on_c, 1, 54, 127
1, 16361, Note_off_c, 1, 54, 1
1, 16371, Note_on_c, 1, 57, 127
1, 16426, Note_off_c, 0, 78, 1
1, 16433, Note_off_c, 1, 57, 1
1, 16444, Note_on_c, 0, 73, 116
1, 16445, Note_on_c, 1, 56, 127
1, 16506, Note_off_c, 1, 56, 1
1, 16507, Note_off_c, 0, 73, 1
1, 16516, Note_on_c, 0, 78, 116
1, 16517, Note_on_c, 1, 57, 127
1, 16578, Note_off_c, 1, 57, 1
1, 16588, Note_on_c, 1, 61, 127
1, 16643, Note_off_c, 0, 69, 1
1, 16651, Note_off_c, 1, 61, 1
1, 16661, Note_on_c, 0, 69, 120
1, 16662, Note_on_c, 1, 59, 127
1, 16723, Note_off_c, 1, 59, 1
1, 16724, Note_off_c, 0, 69, 1
1, 16733, Note_on_c, 0, 68, 120
1, 16734, Note_on_c, 1, 61, 127
1, 16796, Note_off_c, 0, 78, 1
1, 16806, Note_on_c, 0, 76, 116
1, 16868, Note_off_c, 0, 76, 1
1, 16879, Note_on_c, 0, 74, 118
1, 16941, Note_off_c, 0, 74, 1
1, 16951, Note_on_c, 0, 76, 116
1, 17014, Note_off_c, 1, 61, 1
1, 17015, Note_off_c, 0, 68, 1
1, 17024, Note_on_c, 0, 69, 120
1, 17025, Note_on_c, 1, 59, 127
1, 17087, Note_off_c, 1, 59, 1
1, 17087, Note_off_c, 0, 69, 1
1, 17096, Note_on_c, 0, 68, 120
1, 17097, Note_on_c, 1, 61, 127
1, 17159, Note_off_c, 1, 61, 1
1, 17159, Note_off_c, 0, 68, 1
1, 17168, Note_on_c, 1, 62, 127
1, 17169, Note_on_c, 1, 66, 127
1, 17231, Note_off_c, 1, 62, 1
1, 17231, Note_off_c, 0, 76, 1
1, 17240, Note_on_c, 0, 68, 120
1, 17241, Note_on_c, 1, 59, 127
1, 17303, Note_off_c, 1, 59, 1
1, 17303, Note_off_c, 0, 68, 1
1, 17312, Note_on_c, 0, 69, 120
1, 17313, Note_on_c, 1, 61, 127
1, 17374, Note_off_c, 1, 61, 1
1, 17375, Note_off_c, 0, 69, 1
1, 17384, Note_on_c, 0, 74, 118
1, 17385, Note_on_c, 1, 59, 127
1, 17447, Note_off_c, 1, 59, 1
1, 17456, Note_on_c, 1, 56, 127
1, 17510, Note_off_c, 1, 66, 1
1, 17519, Note_off_c, 1, 56, 1
1, 17528, Note_on_c, 1, 57, 127
1, 17529, Note_on_c, 1, 66, 127
1, 17592, Note_off_c, 1, 66, 1
1, 17592, Note_off_c, 1, 57, 1
1, 17601, Note_on_c, 1, 64, 127
1, 17602, Note_on_c, 1, 56, 127
1, 17664, Note_off_c, 1, 56, 1
1, 17664, Note_off_c, 0, 74, 1
1, 17673, Note_on_c, 0, 73, 120
1, 17674, Note_on_c, 1, 52, 127
1, 17736, Note_off_c, 1, 52, 1
1, 17736, Note_off_c, 0, 73, 1
1, 17745, Note_on_c, 0, 71, 120
1, 17746, Note_on_c, 1, 54, 127
1, 17808, Note_off_c, 1, 54, 1
1, 17808, Note_off_c, 0, 71, 1
1, 17817, Note_on_c, 0, 73, 120
1, 17818, Note_on_c, 1, 55, 127
1, 17880, Note_off_c, 1, 55, 1
1, 17889, Note_on_c, 1, 57, 127
1, 17943, Note_off_c, 1, 64, 1
1, 17952, Note_off_c, 1, 57, 1
1, 17961, Note_on_c, 1, 55, 127
1, 17962, Note_on_c, 1, 64, 127
1, 18024, Note_off_c, 1, 55, 1
1, 18024, Note_off_c, 1, 64, 1
1, 18033, Note_on_c, 1, 54, 127
1, 18034, Note_on_c, 1, 62, 127
1, 18096, Note_off_c, 1, 54, 1
1, 18097, Note_off_c, 0, 73, 1
1, 18106, Note_on_c, 0, 71, 120
1, 18107, Note_on_c, 1, 50, 127
1, 18168, Note_off_c, 1, 50, 1
1, 18169, Note_off_c, 0, 71, 1
1, 18178, Note_on_c, 0, 69, 120
1, 18179, Note_on_c, 1, 52, 127
1, 18240, Note_off_c, 1, 52, 1
1, 18241, Note_off_c, 0, 69, 1
1, 18250, Note_on_c, 0, 71, 120
1, 18251, Note_on_c, 1, 53, 127
1, 18313, Note_off_c, 1, 53, 1
1, 18323, Note_on_c, 1, 55, 127
1, 18377, Note_off_c, 1, 62, 1
1, 18385, Note_off_c, 1, 55, 1
1, 18395, Note_on_c, 1, 53, 127
1, 18396, Note_on_c, 1, 62, 127
1, 18458, Note_off_c, 1, 62, 1
1, 18459, Note_off_c, 1, 53, 1
1, 18468, Note_on_c, 1, 61, 127
1, 18468, Note_on_c, 1, 52, 127
1, 18531, Note_off_c, 1, 52, 1
1, 18532, Note_off_c, 0, 71, 1
1, 18541, Note_on_c, 0, 68, 120
1, 18541, Note_on_c, 1, 53, 127
1, 18604, Note_off_c, 1, 53, 1
1, 18605, Note_off_c, 0, 68, 1
1, 18614, Note_on_c, 0, 69, 120
1, 18614, Note_on_c, 1, 52, 127
1, 18669, Note_off_c, 1, 61, 1
1, 18677, Note_off_c, 1, 52, 1
1, 18687, Note_on_c, 1, 60, 127
1, 18687, Note_on_c, 1, 51, 127
1, 18750, Note_off_c, 1, 60, 1
1, 18751, Note_off_c, 1, 51, 1
1, 18761, Note_on_c, 1, 59, 127
1, 18762, Note_on_c, 1, 52, 127
1, 18816, Note_off_c, 0, 69, 1
1, 18823, Note_off_c, 1, 52, 1
1, 18824, Note_off_c, 1, 59, 1
1, 18834, Note_on_c, 0, 69, 120
1, 18835, Note_on_c, 1, 60, 127
1, 18835, Note_on_c, 1, 51, 127
1, 18896, Note_off_c, 1, 51, 1
1, 18897, Note_off_c, 1, 60, 1
1, 18897, Note_off_c, 0, 69, 1
1, 18906, Note_on_c, 0, 68, 120
1, 18907, Note_on_c, 1, 59, 127
1, 18907, Note_on_c, 1, 52, 127
1, 18968, Note_off_c, 1, 52, 1
1, 18978, Note_on_c, 2, 47, 127
1, 19041, Note_off_c, 2, 47, 1
1, 19051, Note_on_c, 1, 49, 127
1, 19114, Note_off_c, 1, 49, 1
1, 19124, Note_on_c, 2, 47, 127
1, 19187, Note_off_c, 2, 47, 1
1, 19197, Note_on_c, 2, 44, 127
1, 19252, Note_off_c, 1, 59, 1
1, 19252, Note_off_c, 0, 68, 1
1, 19260, Note_off_c, 2, 44, 1
1, 19270, Note_on_c, 1, 64, 127
1, 19271, Note_on_c, 2, 45, 127
1, 19333, Note_off_c, 2, 45, 1
1, 19333, Note_off_c, 1, 64, 1
1, 19343, Note_on_c, 0, 71, 120
1, 19344, Note_on_c, 2, 44, 127
1, 19405, Note_off_c, 0, 71, 1
1, 19416, Note_on_c, 1, 64, 127
1, 19478, Note_off_c, 1, 64, 1
1, 19488, Note_on_c, 1, 66, 127
1, 19551, Note_off_c, 1, 66, 1
1, 19561, Note_on_c, 1, 64, 127
1, 19624, Note_off_c, 1, 64, 1
1, 19634, Note_on_c, 1, 61, 127
1, 19689, Note_off_c, 2, 44, 1
1, 19697, Note_off_c, 1, 61, 1
1, 19707, Note_on_c, 1, 62, 127
1, 19707, Note_on_c, 2, 40, 127
1, 19770, Note_off_c, 2, 40, 1
1, 19771, Note_off_c, 1, 62, 1
1, 19780, Note_on_c, 1, 64, 127
1, 19780, Note_on_c, 1, 61, 127
1, 19781, Note_on_c, 2, 45, 127
1, 19843, Note_off_c, 1, 64, 1
1, 19853, Note_on_c, 0, 69, 120
1, 19908, Note_off_c, 1, 61, 1
1, 19915, Note_off_c, 0, 69, 1
1, 19925, Note_on_c, 0, 68, 120
1, 19925, Note_on_c, 1, 59, 127
1, 19980, Note_off_c, 2, 45, 1
1, 19988, Note_off_c, 1, 59, 1
1, 19989, Note_off_c, 0, 68, 1
1, 19998, Note_on_c, 0, 69, 120
1, 19998, Note_on_c, 1, 61, 127
1, 20061, Note_off_c, 0, 69, 1
1, 20071, Note_on_c, 0, 73, 120
1, 20125, Note_off_c, 1, 61, 1
1, 20134, Note_off_c, 0, 73, 1
1, 20144, Note_on_c, 0, 71, 120
1, 20144, Note_on_c, 1, 62, 127
1, 20206, Note_off_c, 1, 62, 1
1, 20207, Note_off_c, 0, 71, 1
1, 20217, Note_on_c, 0, 73, 120
1, 20217, Note_on_c, 1, 64, 127
1, 20218, Note_on_c, 2, 45, 127
1, 20280, Note_off_c, 1, 64, 1
1, 20290, Note_on_c, 0, 69, 120
1, 20344, Note_off_c, 0, 73, 1
1, 20353, Note_off_c, 0, 69, 1
1, 20363, Note_on_c, 0, 68, 120
1, 20363, Note_on_c, 0, 71, 120
1, 20417, Note_off_c, 2, 45, 1
1, 20426, Note_off_c, 0, 71, 1
1, 20426, Note_off_c, 0, 68, 1
1, 20436, Note_on_c, 0, 73, 118
1, 20436, Note_on_c, 0, 69, 118
1, 20498, Note_off_c, 0, 69, 1
1, 20498, Note_off_c, 0, 73, 1
1, 20508, Note_on_c, 0, 76, 114
1, 20508, Note_on_c, 0, 73, 118
1, 20571, Note_off_c, 0, 73, 1
1, 20571, Note_off_c, 0, 76, 1
1, 20580, Note_on_c, 0, 74, 114
1, 20581, Note_on_c, 0, 71, 118
1, 20644, Note_off_c, 0, 74, 1
1, 20644, Note_off_c, 0, 71, 1
1, 20653, Note_on_c, 0, 76, 114
1, 20654, Note_on_c, 0, 73, 118
1, 20654, Note_on_c, 1, 57, 127
1, 20685, Note_off_c, 0, 76, 1
1, 20690, Note_on_c, 0, 78, 114
1, 20717, Note_off_c, 1, 57, 1
1, 20722, Note_off_c, 0, 78, 1
1, 20726, Note_on_c, 0, 79, 114
1, 20727, Note_on_c, 1, 52, 127
1, 20789, Note_off_c, 1, 52, 1
1, 20798, Note_on_c, 1, 54, 127
1, 20862, Note_off_c, 1, 54, 1
1, 20871, Note_on_c, 1, 52, 127
1, 20934, Note_off_c, 1, 52, 1
1, 20943, Note_on_c, 1, 49, 127
1, 20998, Note_off_c, 0, 79, 1
1, 20999, Note_off_c, 0, 73, 1
1, 21007, Note_off_c, 1, 49, 1
1, 21017, Note_on_c, 0, 69, 120
1, 21017, Note_on_c, 1, 50, 127
1, 21079, Note_off_c, 1, 50, 1
1, 21079, Note_off_c, 0, 69, 1
1, 21089, Note_on_c, 0, 76, 116
1, 21089, Note_on_c, 1, 49, 127
1, 21152, Note_off_c, 0, 76, 1
1, 21162, Note_on_c, 0, 69, 120
1, 21225, Note_off_c, 0, 69, 1
1, 21235, Note_on_c, 0, 71, 120
1, 21298, Note_off_c, 0, 71, 1
1, 21308, Note_on_c, 0, 69, 120
1, 21372, Note_off_c, 0, 69, 1
1, 21382, Note_on_c, 1, 66, 127
1, 21436, Note_off_c, 1, 49, 1
1, 21444, Note_off_c, 1, 66, 1
1, 21456, Note_on_c, 1, 67, 127
1, 21456, Note_on_c, 2, 45, 127
1, 21518, Note_off_c, 2, 45, 1
1, 21519, Note_off_c, 1, 67, 1
1, 21528, Note_on_c, 1, 66, 127
1, 21529, Note_on_c, 1, 50, 127
1, 21529, Note_on_c, 1, 57, 127
1, 21591, Note_off_c, 1, 57, 1
1, 21602, Note_on_c, 1, 62, 127
1, 21657, Note_off_c, 1, 50, 1
1, 21658, Note_off_c, 1, 66, 1
1, 21665, Note_off_c, 1, 62, 1
1, 21675, Note_on_c, 1, 61, 127
1, 21676, Note_on_c, 2, 45, 127
1, 21738, Note_off_c, 2, 45, 1
1, 21739, Note_off_c, 1, 61, 1
1, 21749, Note_on_c, 1, 62, 127
1, 21750, Note_on_c, 2, 42, 127
1, 21812, Note_off_c, 1, 62, 1
1, 21822, Note_on_c, 1, 66, 127
1, 21876, Note_off_c, 2, 42, 1
1, 21885, Note_off_c, 1, 66, 1
1, 21894, Note_on_c, 1, 64, 127
1, 21895, Note_on_c, 2, 45, 127
1, 21958, Note_off_c, 2, 45, 1
1, 21958, Note_off_c, 1, 64, 1
1, 21967, Note_on_c, 1, 66, 127
1, 21968, Note_on_c, 1, 62, 127
1, 21968, Note_on_c, 2, 38, 127
1, 22031, Note_off_c, 1, 62, 1
1, 22040, Note_on_c, 0, 69, 120
1, 22094, Note_off_c, 2, 38, 1
1, 22103, Note_off_c, 0, 69, 1
1, 22112, Note_on_c, 1, 67, 127
1, 22113, Note_on_c, 2, 40, 127
1, 22175, Note_off_c, 2, 40, 1
1, 22175, Note_off_c, 1, 67, 1
1, 22184, Note_on_c, 0, 69, 120
1, 22185, Note_on_c, 2, 42, 127
1, 22248, Note_off_c, 0, 69, 1
1, 22257, Note_on_c, 0, 73, 120
1, 22312, Note_off_c, 2, 42, 1
1, 22320, Note_off_c, 0, 73, 1
1, 22330, Note_on_c, 0, 71, 120
1, 22331, Note_on_c, 2, 38, 127
1, 22392, Note_off_c, 2, 38, 1
1, 22393, Note_off_c, 0, 71, 1
1, 22402, Note_on_c, 0, 73, 120
1, 22403, Note_on_c, 2, 45, 127
1, 22465, Note_off_c, 1, 66, 1
1, 22475, Note_on_c, 1, 64, 127
1, 22530, Note_off_c, 2, 45, 1
1, 22538, Note_off_c, 1, 64, 1
1, 22548, Note_on_c, 1, 62, 127
1, 22548, Note_on_c, 1, 57, 127
1, 22610, Note_off_c, 1, 62, 1
1, 22611, Note_off_c, 1, 57, 1
1, 22621, Note_on_c, 1, 57, 127
1, 22621, Note_on_c, 1, 64, 127
1, 22683, Note_off_c, 1, 64, 1
1, 22693, Note_on_c, 1, 67, 127
1, 22748, Note_off_c, 1, 57, 1
1, 22756, Note_off_c, 1, 67, 1
1, 22766, Note_on_c, 1, 66, 127
1, 22766, Note_on_c, 2, 45, 127
1, 22828, Note_off_c, 2, 45, 1
1, 22829, Note_off_c, 1, 66, 1
1, 22838, Note_on_c, 1, 67, 127
1, 22838, Note_on_c, 1, 52, 127
1, 22900, Note_off_c, 0, 73, 1
1, 22910, Note_on_c, 0, 71, 120
1, 22964, Note_off_c, 1, 52, 1
1, 22972, Note_off_c, 0, 71, 1
1, 22982, Note_on_c, 0, 70, 120
1, 22982, Note_on_c, 1, 64, 127
1, 23045, Note_off_c, 1, 64, 1
1, 23046, Note_off_c, 0, 70, 1
1, 23055, Note_on_c, 0, 71, 120
1, 23055, Note_on_c, 1, 64, 127
1, 23118, Note_off_c, 0, 71, 1
1, 23128, Note_on_c, 0, 74, 120
1, 23182, Note_off_c, 1, 64, 1
1, 23190, Note_off_c, 0, 74, 1
1, 23200, Note_on_c, 0, 73, 120
1, 23200, Note_on_c, 1, 58, 127
1, 23263, Note_off_c, 1, 58, 1
1, 23264, Note_off_c, 0, 73, 1
1, 23273, Note_on_c, 0, 74, 120
1, 23273, Note_on_c, 1, 59, 127
1, 23335, Note_off_c, 1, 59, 1
1, 23336, Note_off_c, 1, 67, 1
1, 23345, Note_on_c, 1, 66, 127
1, 23345, Note_on_c, 2, 47, 127
1, 23409, Note_off_c, 2, 47, 1
1, 23409, Note_off_c, 1, 66, 1
1, 23418, Note_on_c, 1, 49, 127
1, 23418, Note_on_c, 1, 64, 127
1, 23480, Note_off_c, 1, 64, 1
1, 23481, Note_off_c, 1, 49, 1
1, 23490, Note_on_c, 1, 50, 127
1, 23491, Note_on_c, 1, 66, 127
1, 23552, Note_off_c, 1, 66, 1
1, 23553, Note_off_c, 1, 50, 1
1, 23562, Note_on_c, 0, 70, 120
1, 23562, Note_on_c, 1, 49, 127
1, 23624, Note_off_c, 1, 49, 1
1, 23625, Note_off_c, 0, 70, 1
1, 23634, Note_on_c, 0, 68, 120
1, 23634, Note_on_c, 2, 47, 127
1, 23695, Note_off_c, 2, 47, 1
1, 23696, Note_off_c, 0, 68, 1
1, 23705, Note_on_c, 0, 70, 120
1, 23705, Note_on_c, 1, 54, 127
1, 23767, Note_off_c, 1, 54, 1
1, 23768, Note_off_c, 0, 70, 1
1, 23777, Note_on_c, 0, 68, 120
1, 23778, Note_on_c, 1, 52, 127
1, 23838, Note_off_c, 1, 52, 1
1, 23839, Note_off_c, 0, 68, 1
1, 23848, Note_on_c, 1, 50, 127
1, 23849, Note_on_c, 1, 66, 127
1, 23910, Note_off_c, 1, 66, 1
1, 23910, Note_off_c, 1, 50, 1
1, 23919, Note_on_c, 0, 68, 120
1, 23920, Note_on_c, 1, 52, 127
1, 23980, Note_off_c, 1, 52, 1
1, 23981, Note_off_c, 0, 68, 1
1, 23990, Note_on_c, 0, 71, 120
1, 23991, Note_on_c, 1, 55, 127
1, 24052, Note_off_c, 1, 55, 1
1, 24053, Note_off_c, 0, 71, 1
1, 24062, Note_on_c, 0, 70, 120
1, 24063, Note_on_c, 1, 54, 127
1, 24124, Note_off_c, 1, 54, 1
1, 24124, Note_off_c, 0, 70, 1
1, 24133, Note_on_c, 0, 71, 120
1, 24134, Note_on_c, 1, 55, 127
1, 24194, Note_off_c, 0, 74, 1
1, 24204, Note_on_c, 0, 76, 116
1, 24258, Note_off_c, 1, 55, 1
1, 24267, Note_off_c, 0, 76, 1
1, 24276, Note_on_c, 0, 78, 116
1, 24277, Note_on_c, 1, 54, 127
1, 24338, Note_off_c, 1, 54, 1
1, 24339, Note_off_c, 0, 78, 1
1, 24348, Note_on_c, 0, 79, 116
1, 24349, Note_on_c, 1, 52, 127
1, 24409, Note_off_c, 0, 71, 1
1, 24420, Note_on_c, 0, 73, 118
1, 24473, Note_off_c, 1, 52, 1
1, 24481, Note_off_c, 0, 73, 1
1, 24491, Note_on_c, 0, 74, 116
1, 24491, Note_on_c, 1, 50, 127
1, 24552, Note_off_c, 1, 50, 1
1, 24552, Note_off_c, 0, 74, 1
1, 24562, Note_on_c, 0, 76, 116
1, 24562, Note_on_c, 1, 49, 127
1, 24623, Note_off_c, 0, 76, 1
1, 24624, Note_off_c, 0, 79, 1
1, 24633, Note_on_c, 0, 69, 120
1, 24633, Note_on_c, 0, 78, 116
1, 24686, Note_off_c, 1, 49, 1
1, 24694, Note_off_c, 0, 78, 1
1, 24704, Note_on_c, 0, 76, 116
1, 24765, Note_off_c, 0, 76, 1
1, 24775, Note_on_c, 0, 78, 116
1, 24775, Note_on_c, 1, 50, 127
1, 24836, Note_off_c, 0, 69, 1
1, 24846, Note_on_c, 0, 71, 120
1, 24899, Note_off_c, 1, 50, 1
1, 24907, Note_off_c, 0, 71, 1
1, 24917, Note_on_c, 0, 73, 118
1, 24979, Note_off_c, 0, 73, 1
1, 24989, Note_on_c, 0, 74, 118
1, 24989, Note_on_c, 2, 47, 127
1, 25050, Note_off_c, 0, 74, 1
1, 25051, Note_off_c, 0, 78, 1
1, 25060, Note_on_c, 0, 76, 118
1, 25060, Note_on_c, 1, 67, 127
1, 25114, Note_off_c, 2, 47, 1
1, 25122, Note_off_c, 0, 76, 1
1, 25132, Note_on_c, 0, 74, 120
1, 25193, Note_off_c, 0, 74, 1
1, 25203, Note_on_c, 0, 76, 120
1, 25203, Note_on_c, 1, 49, 127
1, 25264, Note_off_c, 1, 67, 1
1, 25274, Note_on_c, 0, 69, 120
1, 25328, Note_off_c, 1, 49, 1
1, 25336, Note_off_c, 0, 69, 1
1, 25346, Note_on_c, 1, 67, 127
1, 25407, Note_off_c, 1, 67, 1
1, 25417, Note_on_c, 1, 66, 127
1, 25417, Note_on_c, 1, 50, 127
1, 25479, Note_off_c, 1, 66, 1
1, 25489, Note_on_c, 1, 67, 127
1, 25543, Note_off_c, 1, 50, 1
1, 25543, Note_off_c, 0, 76, 1
1, 25550, Note_off_c, 1, 67, 1
1, 25560, Note_on_c, 0, 74, 118
1, 25560, Note_on_c, 0, 69, 120
1, 25561, Note_on_c, 2, 42, 127
1, 25621, Note_off_c, 2, 42, 1
1, 25622, Note_off_c, 0, 69, 1
1, 25622, Note_off_c, 0, 74, 1
1, 25632, Note_on_c, 0, 73, 118
1, 25632, Note_on_c, 1, 67, 127
1, 25632, Note_on_c, 2, 40, 127
1, 25692, Note_off_c, 1, 67, 1
1, 25703, Note_on_c, 0, 69, 120
1, 25756, Note_off_c, 2, 40, 1
1, 25757, Note_off_c, 0, 73, 1
1, 25764, Note_off_c, 0, 69, 1
1, 25774, Note_on_c, 0, 74, 118
1, 25774, Note_on_c, 1, 66, 127
1, 25774, Note_on_c, 2, 38, 127
1, 25836, Note_off_c, 2, 38, 1
1, 25836, Note_off_c, 1, 66, 1
1, 25845, Note_on_c, 1, 64, 127
1, 25846, Note_on_c, 2, 45, 127
1, 25908, Note_off_c, 2, 45, 1
1, 25908, Note_off_c, 0, 74, 1
1, 25917, Note_on_c, 0, 73, 118
1, 25918, Note_on_c, 1, 57, 127
1, 25979, Note_off_c, 1, 57, 1
1, 25979, Note_off_c, 0, 73, 1
1, 25989, Note_on_c, 0, 71, 120
1, 25989, Note_on_c, 1, 56, 127
1, 26041, Note_off_c, 1, 64, 1
1, 26050, Note_off_c, 1, 56, 1
1, 26050, Note_off_c, 0, 71, 1
1, 26060, Note_on_c, 0, 69, 120
1, 26060, Note_on_c, 0, 73, 118
1, 26060, Note_on_c, 1, 57, 127
1, 26121, Note_off_c, 1, 57, 1
1, 26121, Note_off_c, 0, 73, 1
1, 26131, Note_on_c, 0, 76, 118
1, 26131, Note_on_c, 1, 61, 127
1, 26193, Note_off_c, 1, 61, 1
1, 26193, Note_off_c, 0, 76, 1
1, 26203, Note_on_c, 0, 74, 118
1, 26203, Note_on_c, 1, 59, 127
1, 26264, Note_off_c, 1, 59, 1
1, 26264, Note_off_c, 0, 74, 1
1, 26274, Note_on_c, 0, 76, 118
1, 26274, Note_on_c, 1, 61, 127
1, 26335, Note_off_c, 0, 69, 1
1, 26345, Note_on_c, 0, 71, 120
1, 26407, Note_off_c, 0, 71, 1
1, 26417, Note_on_c, 0, 69, 120
1, 26479, Note_off_c, 0, 69, 1
1, 26489, Note_on_c, 1, 67, 127
1, 26551, Note_off_c, 1, 67, 1
1, 26561, Note_on_c, 0, 69, 114
1, 26616, Note_off_c, 1, 61, 1
1, 26616, Note_off_c, 0, 76, 1
1, 26623, Note_off_c, 0, 69, 1
1, 26633, Note_on_c, 0, 78, 118
1, 26633, Note_on_c, 1, 66, 127
1, 26634, Note_on_c, 1, 63, 127
1, 26695, Note_off_c, 1, 63, 1
1, 26696, Note_off_c, 1, 66, 1
1, 26696, Note_off_c, 0, 78, 1
1, 26705, Note_on_c, 0, 71, 120
1, 26705, Note_on_c, 1, 67, 127
1, 26706, Note_on_c, 1, 52, 127
1, 26767, Note_off_c, 1, 52, 1
1, 26767, Note_off_c, 0, 71, 1
1, 26777, Note_on_c, 0, 76, 118
1, 26777, Note_on_c, 1, 55, 127
1, 26838, Note_off_c, 1, 55, 1
1, 26838, Note_off_c, 0, 76, 1
1, 26848, Note_on_c, 0, 75, 118
1, 26848, Note_on_c, 1, 54, 127
1, 26909, Note_off_c, 1, 54, 1
1, 26910, Note_off_c, 0, 75, 1
1, 26919, Note_on_c, 0, 76, 118
1, 26919, Note_on_c, 1, 55, 127
1, 26981, Note_off_c, 1, 55, 1
1, 26982, Note_off_c, 1, 67, 1
1, 26990, Note_on_c, 1, 59, 127
1, 26990, Note_on_c, 1, 66, 127
1, 27052, Note_off_c, 1, 66, 1
1, 27053, Note_off_c, 1, 59, 1
1, 27062, Note_on_c, 1, 67, 127
1, 27062, Note_on_c, 1, 58, 127
1, 27125, Note_off_c, 1, 67, 1
1, 27126, Note_off_c, 1, 58, 1
1, 27135, Note_on_c, 1, 59, 127
1, 27135, Note_on_c, 1, 66, 127
1, 27197, Note_off_c, 0, 76, 1
1, 27207, Note_on_c, 0, 74, 116
1, 27269, Note_off_c, 0, 74, 1
1, 27279, Note_on_c, 0, 73, 118
1, 27341, Note_off_c, 0, 73, 1
1, 27351, Note_on_c, 0, 74, 116
1, 27413, Note_off_c, 0, 74, 1
1, 27414, Note_off_c, 1, 59, 1
1, 27423, Note_on_c, 0, 78, 116
1, 27423, Note_on_c, 1, 62, 127
1, 27477, Note_off_c, 1, 66, 1
1, 27485, Note_off_c, 1, 62, 1
1, 27486, Note_off_c, 0, 78, 1
1, 27495, Note_on_c, 0, 76, 116
1, 27495, Note_on_c, 0, 69, 120
1, 27496, Note_on_c, 1, 61, 127
1, 27556, Note_off_c, 1, 61, 1
1, 27557, Note_off_c, 0, 69, 1
1, 27557, Note_off_c, 0, 76, 1
1, 27566, Note_on_c, 0, 78, 116
1, 27566, Note_on_c, 1, 66, 127
1, 27567, Note_on_c, 1, 62, 127
1, 27626, Note_off_c, 1, 66, 1
1, 27636, Note_on_c, 0, 68, 120
1, 27689, Note_off_c, 1, 62, 1
1, 27689, Note_off_c, 0, 78, 1
1, 27696, Note_off_c, 0, 68, 1
1, 27706, Note_on_c, 0, 76, 116
1, 27707, Note_on_c, 0, 69, 120
1, 27707, Note_on_c, 1, 61, 127
1, 27767, Note_off_c, 1, 61, 1
1, 27767, Note_off_c, 0, 76, 1
1, 27776, Note_on_c, 0, 74, 116
1, 27777, Note_on_c, 1, 59, 127
1, 27838, Note_off_c, 0, 69, 1
1, 27847, Note_on_c, 0, 68, 120
1, 27900, Note_off_c, 1, 59, 1
1, 27909, Note_off_c, 0, 68, 1
1, 27917, Note_on_c, 0, 71, 120
1, 27918, Note_on_c, 1, 57, 127
1, 27979, Note_off_c, 1, 57, 1
1, 27979, Note_off_c, 0, 71, 1
1, 27988, Note_on_c, 1, 56, 127
1, 27989, Note_on_c, 1, 64, 127
1, 28050, Note_off_c, 1, 56, 1
1, 28059, Note_on_c, 1, 52, 127
1, 28113, Note_off_c, 0, 74, 1
1, 28121, Note_off_c, 1, 52, 1
1, 28131, Note_on_c, 0, 73, 118
1, 28131, Note_on_c, 1, 57, 127
1, 28185, Note_off_c, 1, 64, 1
1, 28192, Note_off_c, 0, 73, 1
1, 28201, Note_on_c, 1, 66, 127
1, 28202, Note_on_c, 1, 62, 127
1, 28263, Note_off_c, 1, 57, 1
1, 28273, Note_on_c, 1, 54, 127
1, 28327, Note_off_c, 1, 66, 1
1, 28335, Note_off_c, 1, 54, 1
1, 28345, Note_on_c, 0, 71, 120
1, 28345, Note_on_c, 1, 56, 127
1, 28398, Note_off_c, 1, 62, 1
1, 28406, Note_off_c, 1, 56, 1
1, 28416, Note_on_c, 1, 61, 127
1, 28416, Note_on_c, 1, 57, 127
1, 28478, Note_off_c, 0, 71, 1
1, 28488, Note_on_c, 1, 64, 127
1, 28541, Note_off_c, 1, 57, 1
1, 28549, Note_off_c, 1, 64, 1
1, 28559, Note_on_c, 0, 69, 120
1, 28560, Note_on_c, 1, 54, 127
1, 28612, Note_off_c, 1, 61, 1
1, 28620, Note_off_c, 1, 54, 1
1, 28630, Note_on_c, 1, 50, 127
1, 28631, Note_on_c, 1, 59, 127
1, 28691, Note_off_c, 0, 69, 1
1, 28701, Note_on_c, 0, 71, 120
1, 28754, Note_off_c, 1, 50, 1
1, 28763, Note_off_c, 0, 71, 1
1, 28771, Note_on_c, 0, 68, 120
1, 28772, Note_on_c, 1, 52, 127
1, 28825, Note_off_c, 1, 59, 1
1, 28833, Note_off_c, 1, 52, 1
1, 28833, Note_off_c, 0, 68, 1
1, 28842, Note_on_c, 0, 69, 120
1, 28843, Note_on_c, 1, 57, 127
1, 28843, Note_on_c, 2, 45, 127
1, 28904, Note_off_c, 1, 57, 1
1, 28913, Note_on_c, 1, 52, 127
1, 28974, Note_off_c, 1, 52, 1
1, 28984, Note_on_c, 1, 54, 127
1, 29038, Note_off_c, 0, 69, 1
1, 29045, Note_off_c, 1, 54, 1
1, 29055, Note_on_c, 1, 52, 127
1, 29117, Note_off_c, 1, 52, 1
1, 29127, Note_on_c, 1, 49, 127
1, 29189, Note_off_c, 1, 49, 1
1, 29198, Note_on_c, 1, 50, 127
1, 29260, Note_off_c, 1, 50, 1
1, 29269, Note_on_c, 1, 57, 127
1, 29270, Note_on_c, 1, 49, 127
1, 29331, Note_off_c, 1, 57, 1
1, 29340, Note_on_c, 1, 64, 127
1, 29394, Note_off_c, 1, 49, 1
1, 29403, Note_off_c, 1, 64, 1
1, 29412, Note_on_c, 1, 62, 127
1, 29474, Note_off_c, 1, 62, 1
1, 29484, Note_on_c, 1, 64, 127
1, 29545, Note_off_c, 1, 64, 1
1, 29555, Note_on_c, 1, 67, 127
1, 29616, Note_off_c, 1, 67, 1
1, 29626, Note_on_c, 1, 66, 127
1, 29687, Note_off_c, 1, 66, 1
1, 29697, Note_on_c, 1, 67, 127
1, 29697, Note_on_c, 1, 64, 127
1, 29757, Note_off_c, 1, 64, 1
1, 29767, Note_on_c, 1, 57, 127
1, 29827, Note_off_c, 1, 57, 1
1, 29837, Note_on_c, 1, 59, 127
1, 29898, Note_off_c, 1, 59, 1
1, 29907, Note_on_c, 1, 57, 127
1, 29968, Note_off_c, 1, 57, 1
1, 29969, Note_off_c, 1, 67, 1
1, 29977, Note_on_c, 0, 69, 120
1, 29977, Note_on_c, 1, 54, 127
1, 30038, Note_off_c, 1, 54, 1
1, 30039, Note_off_c, 0, 69, 1
1, 30048, Note_on_c, 1, 61, 127
1, 30048, Note_on_c, 1, 55, 127
1, 30108, Note_off_c, 1, 55, 1
1, 30109, Note_off_c, 1, 61, 1
1, 30118, Note_on_c, 1, 62, 127
1, 30119, Note_on_c, 1, 54, 127
1, 30179, Note_off_c, 1, 54, 1
1, 30184, Note_off_c, 1, 62, 1
1, 30187, Note_on_c, 1, 66, 127
1, 30188, Note_on_c, 1, 50, 127
1, 30249, Note_off_c, 1, 50, 1
1, 30254, Note_off_c, 1, 66, 1
1, 30257, Note_on_c, 1, 64, 127
1, 30258, Note_on_c, 1, 49, 127
1, 30319, Note_off_c, 1, 49, 1
1, 30324, Note_off_c, 1, 64, 1
1, 30328, Note_on_c, 1, 50, 127
1, 30329, Note_on_c, 1, 66, 127
1, 30395, Note_off_c, 1, 66, 1
1, 30395, Note_off_c, 1, 50, 1
1, 30398, Note_on_c, 0, 69, 120
1, 30398, Note_on_c, 1, 54, 127
1, 30458, Note_off_c, 0, 69, 1
1, 30465, Note_off_c, 1, 54, 1
1, 30468, Note_on_c, 1, 67, 127
1, 30468, Note_on_c, 1, 52, 127
1, 30535, Note_off_c, 1, 52, 1
1, 30535, Note_off_c, 1, 67, 1
1, 30538, Note_on_c, 0, 69, 120
1, 30539, Note_on_c, 1, 54, 127
1, 30599, Note_off_c, 0, 69, 1
1, 30605, Note_off_c, 1, 54, 1
1, 30608, Note_on_c, 0, 74, 120
1, 30609, Note_on_c, 1, 66, 127
1, 30661, Note_off_c, 2, 45, 1
1, 30669, Note_off_c, 0, 74, 1
1, 30675, Note_off_c, 1, 66, 1
1, 30679, Note_on_c, 0, 73, 120
1, 30679, Note_on_c, 1, 64, 127
1, 30680, Note_on_c, 1, 57, 127
1, 30739, Note_off_c, 1, 57, 1
1, 30740, Note_off_c, 0, 73, 1
1, 30745, Note_off_c, 1, 64, 1
1, 30749, Note_on_c, 0, 74, 120
1, 30750, Note_on_c, 1, 66, 127
1, 30750, Note_on_c, 1, 57, 127
1, 30809, Note_off_c, 0, 74, 1
1, 30815, Note_off_c, 1, 66, 1
1, 30819, Note_on_c, 0, 78, 114
1, 30820, Note_on_c, 0, 74, 116
1, 30871, Note_off_c, 1, 57, 1
1, 30885, Note_off_c, 0, 74, 1
1, 30886, Note_off_c, 0, 78, 1
1, 30888, Note_on_c, 0, 73, 116
1, 30889, Note_on_c, 0, 76, 114
1, 30889, Note_on_c, 2, 45, 127
1, 30948, Note_off_c, 2, 45, 1
1, 30954, Note_off_c, 0, 76, 1
1, 30955, Note_off_c, 0, 73, 1
1, 30959, Note_on_c, 0, 74, 116
1, 30959, Note_on_c, 0, 78, 114
1, 30960, Note_on_c, 0, 78, 114
1, 30960, Note_on_c, 2, 45, 127
1, 31017, Note_off_c, 0, 78, 1
1, 31027, Note_on_c, 0, 81, 118
1, 31092, Note_off_c, 0, 81, 1
1, 31095, Note_on_c, 0, 80, 118
1, 31160, Note_off_c, 0, 80, 1
1, 31164, Note_on_c, 0, 81, 118
1, 31224, Note_off_c, 0, 78, 1
1, 31224, Note_off_c, 0, 74, 1
1, 31232, Note_on_c, 0, 76, 118
1, 31233, Note_on_c, 0, 73, 120
1, 31296, Note_off_c, 0, 73, 1
1, 31297, Note_off_c, 0, 76, 1
1, 31301, Note_on_c, 0, 74, 120
1, 31302, Note_on_c, 0, 71, 120
1, 31365, Note_off_c, 0, 71, 1
1, 31366, Note_off_c, 0, 74, 1
1, 31370, Note_on_c, 0, 73, 120
1, 31371, Note_on_c, 0, 76, 118
1, 31429, Note_off_c, 2, 45, 1
1, 31440, Note_on_c, 1, 49, 127
1, 31505, Note_off_c, 1, 49, 1
1, 31511, Note_on_c, 1, 52, 127
1, 31567, Note_off_c, 1, 52, 1
1, 31579, Note_on_c, 1, 57, 127
1, 31920, Note_off_c, 0, 81, 1
1, 31921, Note_off_c, 0, 73, 1
1, 31921, Note_off_c, 0, 76, 1
1, 31982, Note_off_c, 1, 57, 1
1, 32484, Marker_t, "Copyright 1997 (P) S.D.Rodrian -  NOT to be reproduced or sold sans permission !"
1, 33089, Note_on_c, 1, 57, 111
1, 33141, Note_off_c, 1, 57, 1
1, 33149, Note_on_c, 1, 59, 127
1, 33200, Note_off_c, 1, 59, 1
1, 33208, Note_on_c, 1, 61, 127
1, 33260, Note_off_c, 1, 61, 1
1, 33268, Note_on_c, 1, 59, 127
1, 33319, Note_off_c, 1, 59, 1
1, 33327, Note_on_c, 1, 57, 127
1, 33379, Note_off_c, 1, 57, 1
1, 33387, Note_on_c, 1, 61, 127
1, 33438, Note_off_c, 1, 61, 1
1, 33446, Note_on_c, 1, 59, 127
1, 33498, Note_off_c, 1, 59, 1
1, 33506, Note_on_c, 1, 62, 127
1, 33557, Note_off_c, 1, 62, 1
1, 33565, Note_on_c, 1, 61, 127
1, 33736, Note_off_c, 1, 61, 1
1, 33744, Note_on_c, 1, 64, 127
1, 33795, Note_off_c, 1, 64, 1
1, 33804, Note_on_c, 1, 62, 127
1, 33974, Note_off_c, 1, 62, 1
1, 33982, Note_on_c, 1, 66, 127
1, 34034, Note_off_c, 1, 66, 1
1, 34042, Note_on_c, 1, 64, 127
1, 34093, Note_off_c, 1, 64, 1
1, 34101, Note_on_c, 1, 62, 127
1, 34153, Note_off_c, 1, 62, 1
1, 34161, Note_on_c, 1, 64, 127
1, 34212, Note_off_c, 1, 64, 1
1, 34220, Note_on_c, 1, 59, 127
1, 34272, Note_off_c, 1, 59, 1
1, 34280, Note_on_c, 1, 61, 127
1, 34332, Note_off_c, 1, 61, 1
1, 34339, Note_on_c, 1, 62, 127
1, 34391, Note_off_c, 1, 62, 1
1, 34399, Note_on_c, 1, 61, 127
1, 34502, Note_off_c, 1, 61, 1
1, 34518, Note_on_c, 1, 64, 127
1, 34518, Note_on_c, 1, 57, 127
1, 34570, Note_off_c, 1, 64, 1
1, 34577, Note_on_c, 1, 66, 127
1, 34621, Note_off_c, 1, 57, 1
1, 34630, Note_off_c, 1, 66, 1
1, 34638, Note_on_c, 0, 68, 122
1, 34638, Note_on_c, 1, 59, 127
1, 34692, Note_off_c, 0, 68, 1
1, 34699, Note_on_c, 1, 66, 127
1, 34744, Note_off_c, 1, 59, 1
1, 34753, Note_off_c, 1, 66, 1
1, 34761, Note_on_c, 1, 64, 127
1, 34761, Note_on_c, 1, 61, 127
1, 34814, Note_off_c, 1, 64, 1
1, 34822, Note_on_c, 0, 68, 122
1, 34867, Note_off_c, 1, 61, 1
1, 34876, Note_off_c, 0, 68, 1
1, 34884, Note_on_c, 1, 66, 127
1, 34884, Note_on_c, 1, 62, 127
1, 34942, Note_off_c, 1, 66, 1
1, 34946, Note_on_c, 0, 69, 122
1, 34991, Note_off_c, 1, 62, 1
1, 34999, Note_off_c, 0, 69, 1
1, 35007, Note_on_c, 0, 68, 122
1, 35008, Note_on_c, 1, 59, 127
1, 35060, Note_off_c, 1, 59, 1
1, 35069, Note_on_c, 1, 64, 127
1, 35122, Note_off_c, 1, 64, 1
1, 35131, Note_on_c, 1, 61, 127
1, 35183, Note_off_c, 0, 68, 1
1, 35192, Note_on_c, 0, 71, 122
1, 35237, Note_off_c, 1, 61, 1
1, 35245, Note_off_c, 0, 71, 1
1, 35254, Note_on_c, 0, 69, 122
1, 35254, Note_on_c, 1, 66, 127
1, 35312, Note_off_c, 1, 66, 1
1, 35315, Note_on_c, 1, 61, 127
1, 35368, Note_off_c, 1, 61, 1
1, 35376, Note_on_c, 1, 63, 127
1, 35430, Note_off_c, 0, 69, 1
1, 35438, Note_on_c, 0, 73, 122
1, 35483, Note_off_c, 1, 63, 1
1, 35491, Note_off_c, 0, 73, 1
1, 35499, Note_on_c, 0, 71, 122
1, 35499, Note_on_c, 1, 64, 127
1, 35553, Note_off_c, 0, 71, 1
1, 35562, Note_on_c, 0, 69, 122
1, 35619, Note_off_c, 0, 69, 1
1, 35623, Note_on_c, 0, 71, 122
1, 35681, Note_off_c, 0, 71, 1
1, 35685, Note_on_c, 1, 66, 127
1, 35729, Note_off_c, 1, 64, 1
1, 35742, Note_off_c, 1, 66, 1
1, 35746, Note_on_c, 0, 68, 122
1, 35747, Note_on_c, 1, 63, 127
1, 35798, Note_off_c, 0, 68, 1
1, 35808, Note_on_c, 0, 69, 122
1, 35852, Note_off_c, 1, 63, 1
1, 35861, Note_off_c, 0, 69, 1
1, 35869, Note_on_c, 0, 68, 122
1, 35869, Note_on_c, 1, 64, 127
1, 35928, Note_off_c, 0, 68, 1
1, 35930, Note_on_c, 0, 71, 122
1, 35989, Note_off_c, 0, 71, 1
1, 35992, Note_on_c, 0, 69, 122
1, 36029, Note_off_c, 1, 64, 1
1, 36046, Note_off_c, 0, 69, 1
1, 36053, Note_on_c, 0, 68, 122
1, 36054, Note_on_c, 1, 59, 127
1, 36107, Note_off_c, 1, 59, 1
1, 36108, Note_off_c, 0, 68, 1
1, 36116, Note_on_c, 0, 69, 122
1, 36116, Note_on_c, 1, 61, 127
1, 36173, Note_off_c, 0, 69, 1
1, 36177, Note_on_c, 1, 64, 127
1, 36222, Note_off_c, 1, 61, 1
1, 36230, Note_off_c, 1, 64, 1
1, 36239, Note_on_c, 1, 66, 127
1, 36239, Note_on_c, 1, 57, 127
1, 36291, Note_off_c, 1, 66, 1
1, 36300, Note_on_c, 1, 67, 127
1, 36345, Note_off_c, 1, 57, 1
1, 36353, Note_off_c, 1, 67, 1
1, 36361, Note_on_c, 1, 62, 127
1, 36362, Note_on_c, 1, 66, 127
1, 36419, Note_off_c, 1, 66, 1
1, 36423, Note_on_c, 0, 69, 126
1, 36482, Note_off_c, 0, 69, 1
1, 36484, Note_on_c, 0, 68, 126
1, 36522, Note_off_c, 1, 62, 1
1, 36543, Note_off_c, 0, 68, 1
1, 36546, Note_on_c, 1, 66, 127
1, 36546, Note_on_c, 1, 57, 127
1, 36601, Note_off_c, 1, 57, 1
1, 36605, Note_off_c, 1, 66, 1
1, 36609, Note_on_c, 0, 68, 126
1, 36610, Note_on_c, 1, 59, 127
1, 36670, Note_off_c, 0, 68, 1
1, 36672, Note_on_c, 1, 63, 127
1, 36719, Note_off_c, 1, 59, 1
1, 36727, Note_off_c, 1, 63, 1
1, 36736, Note_on_c, 1, 56, 127
1, 36736, Note_on_c, 1, 64, 127
1, 36792, Note_off_c, 1, 64, 1
1, 36800, Note_on_c, 1, 66, 127
1, 36846, Note_off_c, 1, 56, 1
1, 36855, Note_off_c, 1, 66, 1
1, 36864, Note_on_c, 1, 64, 127
1, 36864, Note_on_c, 1, 61, 127
1, 36919, Note_off_c, 1, 61, 1
1, 36928, Note_on_c, 1, 62, 127
1, 36983, Note_off_c, 1, 62, 1
1, 36991, Note_on_c, 0, 69, 126
1, 36992, Note_on_c, 1, 61, 127
1, 37046, Note_off_c, 1, 61, 1
1, 37046, Note_off_c, 0, 69, 1
1, 37055, Note_on_c, 0, 71, 124
1, 37055, Note_on_c, 1, 59, 127
1, 37108, Note_off_c, 1, 59, 1
1, 37109, Note_off_c, 0, 71, 1
1, 37117, Note_on_c, 0, 73, 124
1, 37117, Note_on_c, 1, 57, 127
1, 37171, Note_off_c, 0, 73, 1
1, 37178, Note_on_c, 0, 71, 124
1, 37209, Note_off_c, 1, 64, 1
1, 37232, Note_off_c, 0, 71, 1
1, 37241, Note_on_c, 0, 69, 126
1, 37241, Note_on_c, 1, 66, 127
1, 37278, Note_off_c, 1, 57, 1
1, 37295, Note_off_c, 0, 69, 1
1, 37302, Note_on_c, 0, 73, 124
1, 37303, Note_on_c, 1, 57, 127
1, 37348, Note_off_c, 1, 66, 1
1, 37357, Note_off_c, 1, 57, 1
1, 37357, Note_off_c, 0, 73, 1
1, 37365, Note_on_c, 0, 68, 126
1, 37365, Note_on_c, 0, 71, 124
1, 37366, Note_on_c, 1, 64, 127
1, 37392, Marker_t, "This file may be freely distributed on the WWW, as long as it's not modified. SDR"
1, 37418, Note_off_c, 0, 71, 1
1, 37427, Note_on_c, 0, 74, 124
1, 37483, Note_off_c, 0, 74, 1
1, 37492, Note_on_c, 0, 73, 124
1, 37530, Note_off_c, 1, 64, 1
1, 37530, Note_off_c, 0, 68, 1
1, 37556, Note_on_c, 0, 68, 126
1, 37556, Note_on_c, 1, 52, 127
1, 37611, Note_off_c, 1, 52, 1
1, 37612, Note_off_c, 0, 68, 1
1, 37620, Note_on_c, 0, 69, 126
1, 37621, Note_on_c, 1, 54, 127
1, 37674, Note_off_c, 0, 73, 1
1, 37681, Note_on_c, 0, 76, 122
1, 37735, Note_off_c, 0, 76, 1
1, 37743, Note_on_c, 0, 74, 124
1, 37779, Note_off_c, 1, 54, 1
1, 37780, Note_off_c, 0, 69, 1
1, 37805, Note_on_c, 0, 69, 126
1, 37805, Note_on_c, 1, 66, 127
1, 37858, Note_off_c, 1, 66, 1
1, 37859, Note_off_c, 0, 69, 1
1, 37866, Note_on_c, 0, 68, 126
1, 37867, Note_on_c, 0, 71, 122
1, 37920, Note_off_c, 0, 74, 1
1, 37928, Note_on_c, 0, 78, 117
1, 37986, Note_off_c, 0, 78, 1
1, 37989, Note_on_c, 0, 76, 117
1, 38047, Note_off_c, 0, 76, 1
1, 38051, Note_on_c, 0, 74, 119
1, 38081, Note_off_c, 0, 71, 1
1, 38082, Note_off_c, 0, 68, 1
1, 38108, Note_off_c, 0, 74, 1
1, 38112, Note_on_c, 0, 76, 117
1, 38164, Note_off_c, 0, 76, 1
1, 38172, Note_on_c, 0, 71, 122
1, 38225, Note_off_c, 0, 71, 1
1, 38234, Note_on_c, 0, 73, 122
1, 38234, Note_on_c, 0, 68, 126
1, 38235, Note_on_c, 1, 64, 127
1, 38287, Note_off_c, 0, 73, 1
1, 38294, Note_on_c, 0, 74, 119
1, 38339, Note_off_c, 1, 64, 1
1, 38340, Note_off_c, 0, 68, 1
1, 38348, Note_off_c, 0, 74, 1
1, 38356, Note_on_c, 0, 69, 126
1, 38356, Note_on_c, 0, 73, 122
1, 38357, Note_on_c, 1, 57, 127
1, 38409, Note_off_c, 0, 73, 1
1, 38417, Note_on_c, 0, 74, 119
1, 38462, Note_off_c, 1, 57, 1
1, 38462, Note_off_c, 0, 69, 1
1, 38476, Note_off_c, 0, 74, 1
1, 38480, Note_on_c, 0, 76, 117
1, 38480, Note_on_c, 0, 68, 126
1, 38481, Note_on_c, 1, 59, 127
1, 38537, Note_off_c, 0, 76, 1
1, 38541, Note_on_c, 0, 78, 115
1, 38586, Note_off_c, 1, 59, 1
1, 38587, Note_off_c, 0, 68, 1
1, 38594, Note_off_c, 0, 78, 1
1, 38603, Note_on_c, 0, 69, 126
1, 38603, Note_on_c, 0, 76, 117
1, 38604, Note_on_c, 1, 61, 127
1, 38654, Note_off_c, 0, 76, 1
1, 38663, Note_on_c, 0, 81, 115
1, 38707, Note_off_c, 1, 61, 1
1, 38708, Note_off_c, 0, 69, 1
1, 38720, Note_off_c, 0, 81, 1
1, 38724, Note_on_c, 0, 80, 115
1, 38724, Note_on_c, 0, 71, 122
1, 38724, Note_on_c, 1, 63, 127
1, 38780, Note_off_c, 0, 80, 1
1, 38784, Note_on_c, 0, 78, 115
1, 38828, Note_off_c, 1, 63, 1
1, 38829, Note_off_c, 0, 71, 1
1, 38836, Note_off_c, 0, 78, 1
1, 38844, Note_on_c, 0, 80, 113
1, 38845, Note_on_c, 0, 71, 122
1, 38845, Note_on_c, 1, 64, 127
1, 38896, Note_off_c, 0, 80, 1
1, 38905, Note_on_c, 0, 78, 113
1, 38949, Note_off_c, 1, 64, 1
1, 38957, Note_off_c, 0, 78, 1
1, 38965, Note_on_c, 0, 76, 115
1, 38966, Note_on_c, 1, 52, 127
1, 39017, Note_off_c, 1, 52, 1
1, 39018, Note_off_c, 0, 76, 1
1, 39026, Note_on_c, 0, 75, 115
1, 39026, Note_on_c, 1, 54, 127
1, 39079, Note_off_c, 1, 54, 1
1, 39079, Note_off_c, 0, 75, 1
1, 39086, Note_on_c, 0, 76, 117
1, 39087, Note_on_c, 1, 56, 127
1, 39138, Note_off_c, 1, 56, 1
1, 39139, Note_off_c, 0, 71, 1
1, 39147, Note_on_c, 0, 69, 126
1, 39147, Note_on_c, 1, 54, 127
1, 39199, Note_off_c, 1, 54, 1
1, 39199, Note_off_c, 0, 69, 1
1, 39207, Note_on_c, 0, 68, 126
1, 39207, Note_on_c, 1, 52, 127
1, 39258, Note_off_c, 1, 52, 1
1, 39259, Note_off_c, 0, 68, 1
1, 39267, Note_on_c, 0, 71, 124
1, 39267, Note_on_c, 1, 56, 127
1, 39319, Note_off_c, 1, 56, 1
1, 39319, Note_off_c, 0, 71, 1
1, 39326, Note_on_c, 0, 69, 126
1, 39327, Note_on_c, 1, 54, 127
1, 39378, Note_off_c, 1, 54, 1
1, 39379, Note_off_c, 0, 69, 1
1, 39387, Note_on_c, 1, 57, 127
1, 39387, Note_on_c, 1, 66, 127
1, 39439, Note_off_c, 1, 66, 1
1, 39439, Note_off_c, 1, 57, 1
1, 39446, Note_on_c, 0, 71, 124
1, 39447, Note_on_c, 1, 56, 127
1, 39483, Note_off_c, 0, 76, 1
1, 39507, Note_on_c, 0, 75, 119
1, 39559, Note_off_c, 0, 75, 1
1, 39566, Note_on_c, 0, 76, 119
1, 39618, Note_off_c, 1, 56, 1
1, 39619, Note_off_c, 0, 71, 1
1, 39627, Note_on_c, 0, 68, 126
1, 39627, Note_on_c, 1, 59, 127
1, 39679, Note_off_c, 1, 59, 1
1, 39679, Note_off_c, 0, 68, 1
1, 39686, Note_on_c, 0, 73, 124
1, 39687, Note_on_c, 1, 57, 127
1, 39723, Note_off_c, 0, 76, 1
1, 39747, Note_on_c, 0, 75, 122
1, 39799, Note_off_c, 0, 75, 1
1, 39807, Note_on_c, 0, 76, 122
1, 39859, Note_off_c, 1, 57, 1
1, 39867, Note_on_c, 1, 61, 127
1, 39911, Note_off_c, 0, 73, 1
1, 39919, Note_off_c, 1, 61, 1
1, 39928, Note_on_c, 1, 66, 127
1, 39928, Note_on_c, 1, 59, 127
1, 39963, Note_off_c, 0, 76, 1
1, 39978, Note_off_c, 1, 59, 1
1, 39987, Note_on_c, 0, 73, 124
1, 39988, Note_on_c, 1, 57, 127
1, 40038, Note_off_c, 1, 57, 1
1, 40038, Note_off_c, 0, 73, 1
1, 40047, Note_on_c, 0, 74, 124
1, 40047, Note_on_c, 1, 59, 127
1, 40098, Note_off_c, 1, 59, 1
1, 40106, Note_on_c, 1, 54, 127
1, 40158, Note_off_c, 1, 54, 1
1, 40166, Note_on_c, 1, 56, 127
1, 40201, Note_off_c, 1, 66, 1
1, 40217, Note_off_c, 1, 56, 1
1, 40225, Note_on_c, 1, 57, 127
1, 40226, Note_on_c, 1, 66, 127
1, 40277, Note_off_c, 1, 66, 1
1, 40277, Note_off_c, 1, 57, 1
1, 40285, Note_on_c, 1, 64, 127
1, 40285, Note_on_c, 1, 56, 127
1, 40336, Note_off_c, 1, 56, 1
1, 40344, Note_on_c, 1, 59, 127
1, 40396, Note_off_c, 1, 59, 1
1, 40404, Note_on_c, 1, 57, 127
1, 40439, Note_off_c, 0, 74, 1
1, 40455, Note_off_c, 1, 57, 1
1, 40464, Note_on_c, 0, 72, 124
1, 40464, Note_on_c, 1, 56, 127
1, 40515, Note_off_c, 1, 56, 1
1, 40515, Note_off_c, 0, 72, 1
1, 40523, Note_on_c, 0, 73, 124
1, 40524, Note_on_c, 1, 57, 127
1, 40574, Note_off_c, 1, 57, 1
1, 40583, Note_on_c, 1, 52, 127
1, 40633, Note_off_c, 1, 52, 1
1, 40642, Note_on_c, 1, 54, 127
1, 40677, Note_off_c, 1, 64, 1
1, 40693, Note_off_c, 1, 54, 1
1, 40701, Note_on_c, 1, 56, 127
1, 40701, Note_on_c, 1, 64, 127
1, 40752, Note_off_c, 1, 64, 1
1, 40753, Note_off_c, 1, 56, 1
1, 40760, Note_on_c, 1, 54, 127
1, 40761, Note_on_c, 1, 63, 127
1, 40811, Note_off_c, 1, 54, 1
1, 40819, Note_on_c, 1, 57, 127
1, 40871, Note_off_c, 1, 57, 1
1, 40878, Note_on_c, 1, 56, 127
1, 40914, Note_off_c, 0, 73, 1
1, 40929, Note_off_c, 1, 56, 1
1, 40937, Note_on_c, 0, 70, 126
1, 40937, Note_on_c, 1, 54, 127
1, 40989, Note_off_c, 1, 54, 1
1, 40989, Note_off_c, 0, 70, 1
1, 40996, Note_on_c, 0, 71, 126
1, 40997, Note_on_c, 1, 56, 127
1, 41047, Note_off_c, 1, 56, 1
1, 41055, Note_on_c, 1, 51, 127
1, 41106, Note_off_c, 1, 51, 1
1, 41113, Note_on_c, 1, 53, 127
1, 41148, Note_off_c, 1, 63, 1
1, 41164, Note_off_c, 1, 53, 1
1, 41172, Note_on_c, 1, 54, 127
1, 41172, Note_on_c, 1, 62, 127
1, 41223, Note_off_c, 1, 62, 1
1, 41223, Note_off_c, 1, 54, 1
1, 41231, Note_on_c, 1, 61, 127
1, 41231, Note_on_c, 1, 53, 127
1, 41282, Note_off_c, 1, 53, 1
1, 41283, Note_off_c, 0, 71, 1
1, 41290, Note_on_c, 1, 65, 127
1, 41291, Note_on_c, 1, 49, 127
1, 41342, Note_off_c, 1, 49, 1
1, 41342, Note_off_c, 1, 65, 1
1, 41350, Note_on_c, 1, 66, 127
1, 41350, Note_on_c, 1, 51, 127
1, 41402, Note_off_c, 1, 51, 1
1, 41403, Note_off_c, 1, 66, 1
1, 41410, Note_on_c, 0, 68, 126
1, 41411, Note_on_c, 1, 53, 127
1, 41462, Note_off_c, 1, 53, 1
1, 41462, Note_off_c, 0, 68, 1
1, 41470, Note_on_c, 0, 69, 126
1, 41470, Note_on_c, 1, 54, 127
1, 41522, Note_off_c, 0, 69, 1
1, 41530, Note_on_c, 0, 68, 126
1, 41560, Note_off_c, 1, 61, 1
1, 41582, Note_off_c, 0, 68, 1
1, 41590, Note_on_c, 1, 66, 127
1, 41590, Note_on_c, 1, 63, 127
1, 41626, Note_off_c, 1, 54, 1
1, 41642, Note_off_c, 1, 66, 1
1, 41650, Note_on_c, 0, 69, 126
1, 41651, Note_on_c, 1, 54, 127
1, 41693, Note_off_c, 1, 63, 1
1, 41702, Note_off_c, 1, 54, 1
1, 41702, Note_off_c, 0, 69, 1
1, 41710, Note_on_c, 0, 68, 126
1, 41710, Note_on_c, 1, 65, 127
1, 41711, Note_on_c, 1, 61, 127
1, 41760, Note_off_c, 0, 68, 1
1, 41769, Note_on_c, 0, 71, 124
1, 41820, Note_off_c, 0, 71, 1
1, 41829, Note_on_c, 0, 69, 126
1, 41864, Note_off_c, 1, 61, 1
1, 41865, Note_off_c, 1, 65, 1
1, 41888, Note_on_c, 1, 49, 127
1, 41889, Note_on_c, 1, 65, 127
1, 41939, Note_off_c, 1, 65, 1
1, 41940, Note_off_c, 1, 49, 1
1, 41948, Note_on_c, 1, 66, 127
1, 41948, Note_on_c, 1, 50, 127
1, 42000, Note_off_c, 0, 69, 1
1, 42007, Note_on_c, 0, 73, 124
1, 42059, Note_off_c, 0, 73, 1
1, 42067, Note_on_c, 0, 71, 124
1, 42103, Note_off_c, 1, 66, 1
1, 42104, Note_off_c, 1, 50, 1
1, 42127, Note_on_c, 1, 51, 127
1, 42128, Note_on_c, 1, 66, 127
1, 42179, Note_off_c, 1, 66, 1
1, 42180, Marker_t, "SDRodrian@aol.com  626 Lalor Trenton NJ 08611 http://members.aol.com/sdrodrian"
1, 42180, Note_off_c, 1, 51, 1
1, 42187, Note_on_c, 0, 68, 126
1, 42188, Note_on_c, 1, 52, 127
1, 42240, Note_off_c, 0, 71, 1
1, 42248, Note_on_c, 0, 74, 124
1, 42299, Note_off_c, 0, 74, 1
1, 42307, Note_on_c, 0, 73, 124
1, 42343, Note_off_c, 1, 52, 1
1, 42360, Note_off_c, 0, 73, 1
1, 42367, Note_on_c, 0, 71, 124
1, 42368, Note_on_c, 1, 56, 127
1, 42397, Note_off_c, 0, 68, 1
1, 42419, Note_off_c, 1, 56, 1
1, 42420, Note_off_c, 0, 71, 1
1, 42427, Note_on_c, 0, 73, 124
1, 42428, Note_on_c, 1, 53, 127
1, 42479, Note_off_c, 0, 73, 1
1, 42487, Note_on_c, 0, 68, 126
1, 42530, Note_off_c, 1, 53, 1
1, 42538, Note_off_c, 0, 68, 1
1, 42546, Note_on_c, 0, 69, 126
1, 42546, Note_on_c, 1, 49, 127
1, 42599, Note_off_c, 0, 69, 1
1, 42607, Note_on_c, 0, 71, 124
1, 42650, Note_off_c, 1, 49, 1
1, 42658, Note_off_c, 0, 71, 1
1, 42666, Note_on_c, 0, 69, 126
1, 42667, Note_on_c, 1, 54, 127
1, 42727, Note_on_c, 0, 68, 126
1, 42778, Note_off_c, 0, 68, 1
1, 42786, Note_on_c, 1, 66, 127
1, 42822, Note_off_c, 1, 54, 1
1, 42839, Note_off_c, 1, 66, 1
1, 42847, Note_on_c, 1, 56, 127
1, 42847, Note_on_c, 1, 65, 127
1, 42899, Note_off_c, 1, 65, 1
1, 42899, Note_off_c, 1, 56, 1
1, 42906, Note_on_c, 1, 57, 127
1, 42907, Note_on_c, 1, 66, 127
1, 42959, Note_off_c, 1, 66, 1
1, 42967, Note_on_c, 1, 61, 127
1, 43011, Note_off_c, 1, 57, 1
1, 43019, Note_off_c, 1, 61, 1
1, 43026, Note_on_c, 1, 54, 127
1, 43027, Note_on_c, 1, 63, 127
1, 43079, Note_off_c, 1, 63, 1
1, 43087, Note_on_c, 1, 64, 127
1, 43131, Note_off_c, 1, 54, 1
1, 43140, Note_off_c, 1, 64, 1
1, 43147, Note_on_c, 1, 63, 127
1, 43148, Note_on_c, 2, 47, 127
1, 43199, Note_off_c, 0, 69, 1
1, 43207, Note_on_c, 0, 73, 124
1, 43259, Note_off_c, 0, 73, 1
1, 43266, Note_on_c, 0, 71, 124
1, 43303, Note_off_c, 2, 47, 1
1, 43318, Note_off_c, 0, 71, 1
1, 43326, Note_on_c, 0, 69, 126
1, 43326, Note_on_c, 1, 49, 127
1, 43378, Note_off_c, 1, 49, 1
1, 43378, Note_off_c, 0, 69, 1
1, 43385, Note_on_c, 0, 71, 124
1, 43386, Note_on_c, 1, 51, 127
1, 43437, Note_off_c, 0, 71, 1
1, 43445, Note_on_c, 1, 66, 127
1, 43488, Note_off_c, 1, 51, 1
1, 43497, Note_off_c, 1, 66, 1
1, 43504, Note_on_c, 0, 68, 126
1, 43505, Note_on_c, 2, 47, 127
1, 43555, Note_off_c, 0, 68, 1
1, 43563, Note_on_c, 0, 69, 126
1, 43606, Note_off_c, 2, 47, 1
1, 43614, Note_off_c, 0, 69, 1
1, 43621, Note_on_c, 0, 68, 126
1, 43622, Note_on_c, 1, 52, 127
1, 43672, Note_off_c, 1, 63, 1
1, 43681, Note_on_c, 1, 56, 127
1, 43732, Note_off_c, 1, 56, 1
1, 43740, Note_on_c, 1, 61, 127
1, 43776, Note_off_c, 1, 52, 1
1, 43791, Note_off_c, 1, 61, 1
1, 43799, Note_on_c, 1, 51, 127
1, 43800, Note_on_c, 1, 63, 127
1, 43851, Note_off_c, 1, 63, 1
1, 43851, Note_off_c, 1, 51, 1
1, 43860, Note_on_c, 1, 49, 127
1, 43860, Note_on_c, 1, 64, 127
1, 43911, Note_off_c, 1, 64, 1
1, 43919, Note_on_c, 1, 63, 127
1, 43971, Note_off_c, 1, 63, 1
1, 43979, Note_on_c, 1, 61, 127
1, 44014, Note_off_c, 1, 49, 1
1, 44030, Note_off_c, 1, 61, 1
1, 44038, Note_on_c, 1, 61, 127
1, 44039, Note_on_c, 1, 64, 127
1, 44091, Note_off_c, 1, 64, 1
1, 44091, Note_off_c, 1, 61, 1
1, 44099, Note_on_c, 1, 60, 127
1, 44099, Note_on_c, 1, 63, 127
1, 44150, Note_off_c, 1, 63, 1
1, 44151, Note_off_c, 1, 60, 1
1, 44159, Note_on_c, 1, 56, 127
1, 44160, Note_on_c, 1, 66, 127
1, 44211, Note_off_c, 1, 66, 1
1, 44211, Note_off_c, 1, 56, 1
1, 44220, Note_on_c, 1, 64, 127
1, 44220, Note_on_c, 1, 61, 127
1, 44255, Note_off_c, 0, 68, 1
1, 44271, Note_off_c, 1, 61, 1
1, 44280, Note_on_c, 0, 68, 126
1, 44280, Note_on_c, 1, 59, 127
1, 44332, Note_off_c, 1, 59, 1
1, 44332, Note_off_c, 0, 68, 1
1, 44340, Note_on_c, 0, 73, 121
1, 44341, Note_on_c, 1, 57, 127
1, 44392, Note_off_c, 1, 57, 1
1, 44393, Note_off_c, 1, 64, 1
1, 44401, Note_on_c, 0, 68, 126
1, 44401, Note_on_c, 1, 56, 127
1, 44453, Note_off_c, 1, 56, 1
1, 44453, Note_off_c, 0, 68, 1
1, 44461, Note_on_c, 1, 57, 127
1, 44461, Note_on_c, 1, 66, 127
1, 44497, Note_off_c, 0, 73, 1
1, 44512, Note_off_c, 1, 57, 1
1, 44521, Note_on_c, 0, 75, 121
1, 44522, Note_on_c, 1, 54, 127
1, 44572, Note_off_c, 1, 54, 1
1, 44572, Note_off_c, 0, 75, 1
1, 44580, Note_on_c, 0, 72, 121
1, 44581, Note_on_c, 1, 56, 127
1, 44631, Note_off_c, 1, 66, 1
1, 44640, Note_on_c, 0, 69, 126
1, 44682, Note_off_c, 0, 72, 1
1, 44690, Note_off_c, 0, 69, 1
1, 44699, Note_on_c, 0, 68, 126
1, 44734, Note_off_c, 1, 56, 1
1, 44749, Note_off_c, 0, 68, 1
1, 44757, Note_on_c, 1, 51, 127
1, 44758, Note_on_c, 1, 66, 127
1, 44808, Note_off_c, 1, 66, 1
1, 44808, Note_off_c, 1, 51, 1
1, 44817, Note_on_c, 0, 75, 121
1, 44818, Note_on_c, 0, 68, 126
1, 44818, Note_on_c, 2, 48, 127
1, 44868, Note_off_c, 0, 68, 1
1, 44876, Note_on_c, 1, 63, 127
1, 44918, Note_off_c, 2, 48, 1
1, 44926, Note_off_c, 1, 63, 1
1, 44935, Note_on_c, 1, 64, 127
1, 44936, Note_on_c, 2, 44, 127
1, 44986, Note_off_c, 1, 64, 1
1, 44994, Note_on_c, 1, 66, 127
1, 45036, Note_off_c, 2, 44, 1
1, 45044, Note_off_c, 1, 66, 1
1, 45053, Note_on_c, 1, 49, 127
1, 45054, Note_on_c, 1, 64, 127
1, 45104, Note_off_c, 0, 75, 1
1, 45112, Note_on_c, 0, 72, 121
1, 45161, Note_off_c, 0, 72, 1
1, 45169, Note_on_c, 0, 73, 121
1, 45204, Note_off_c, 1, 64, 1
1, 45220, Note_off_c, 0, 73, 1
1, 45228, Note_on_c, 0, 75, 121
1, 45228, Note_on_c, 1, 56, 127
1, 45279, Note_off_c, 1, 56, 1
1, 45279, Note_off_c, 0, 75, 1
1, 45287, Note_on_c, 0, 73, 121
1, 45287, Note_on_c, 1, 58, 127
1, 45339, Note_off_c, 0, 73, 1
1, 45347, Note_on_c, 0, 78, 121
1, 45391, Note_off_c, 1, 58, 1
1, 45398, Note_off_c, 0, 78, 1
1, 45407, Note_on_c, 0, 76, 121
1, 45407, Note_on_c, 1, 60, 127
1, 45458, Note_off_c, 0, 76, 1
1, 45466, Note_on_c, 0, 75, 121
1, 45510, Note_off_c, 1, 60, 1
1, 45518, Note_off_c, 0, 75, 1
1, 45526, Note_on_c, 0, 76, 121
1, 45526, Note_on_c, 1, 61, 127
1, 45577, Note_off_c, 1, 61, 1
1, 45585, Note_on_c, 1, 63, 127
1, 45628, Note_off_c, 1, 49, 1
1, 45637, Note_off_c, 1, 63, 1
1, 45645, Note_on_c, 1, 61, 127
1, 45696, Note_off_c, 1, 61, 1
1, 45704, Note_on_c, 1, 60, 127
1, 45755, Note_off_c, 1, 60, 1
1, 45763, Note_on_c, 1, 61, 127
1, 45815, Note_off_c, 1, 61, 1
1, 45822, Note_on_c, 1, 56, 127
1, 45874, Note_off_c, 1, 56, 1
1, 45882, Note_on_c, 1, 58, 127
1, 45934, Note_off_c, 1, 58, 1
1, 45941, Note_on_c, 1, 59, 127
1, 45993, Note_off_c, 1, 59, 1
1, 46002, Note_on_c, 1, 58, 127
1, 46054, Note_off_c, 0, 76, 1
1, 46061, Note_on_c, 0, 79, 119
1, 46105, Note_off_c, 1, 58, 1
1, 46113, Note_off_c, 0, 79, 1
1, 46122, Note_on_c, 0, 78, 119
1, 46174, Note_off_c, 0, 78, 1
1, 46181, Note_on_c, 0, 76, 119
1, 46182, Note_on_c, 1, 61, 127
1, 46233, Note_off_c, 1, 61, 1
1, 46234, Note_off_c, 0, 76, 1
1, 46241, Note_on_c, 0, 78, 119
1, 46241, Note_on_c, 1, 58, 127
1, 46293, Note_off_c, 0, 78, 1
1, 46299, Note_on_c, 0, 73, 119
1, 46344, Note_off_c, 1, 58, 1
1, 46351, Note_off_c, 0, 73, 1
1, 46359, Note_on_c, 0, 74, 119
1, 46359, Note_on_c, 1, 54, 127
1, 46411, Note_off_c, 0, 74, 1
1, 46418, Note_on_c, 0, 76, 119
1, 46462, Note_off_c, 1, 54, 1
1, 46469, Note_off_c, 0, 76, 1
1, 46477, Note_on_c, 0, 74, 119
1, 46477, Note_on_c, 1, 59, 127
1, 46536, Note_on_c, 0, 73, 119
1, 46586, Note_off_c, 0, 73, 1
1, 46595, Note_on_c, 0, 71, 121
1, 46630, Note_off_c, 1, 59, 1
1, 46645, Note_off_c, 0, 71, 1
1, 46654, Note_on_c, 0, 70, 124
1, 46654, Note_on_c, 1, 54, 127
1, 46704, Note_off_c, 1, 54, 1
1, 46704, Note_off_c, 0, 70, 1
1, 46711, Note_on_c, 0, 71, 121
1, 46712, Note_on_c, 1, 50, 127
1, 46762, Note_off_c, 0, 71, 1
1, 46770, Note_on_c, 1, 66, 127
1, 46813, Note_off_c, 1, 50, 1
1, 46821, Note_off_c, 1, 66, 1
1, 46829, Note_on_c, 0, 68, 126
1, 46829, Note_on_c, 2, 47, 127
1, 46879, Note_off_c, 0, 68, 1
1, 46887, Note_on_c, 0, 69, 126
1, 46930, Note_off_c, 2, 47, 1
1, 46938, Note_off_c, 0, 69, 1
1, 46945, Note_on_c, 0, 68, 126
1, 46946, Note_on_c, 1, 52, 127
1, 46996, Note_off_c, 0, 74, 1
1, 47004, Note_on_c, 0, 78, 119
1, 47055, Note_off_c, 0, 78, 1
1, 47063, Note_on_c, 0, 76, 119
1, 47098, Note_off_c, 1, 52, 1
1, 47113, Note_off_c, 0, 76, 1
1, 47121, Note_on_c, 0, 74, 119
1, 47122, Note_on_c, 2, 47, 127
1, 47172, Note_off_c, 2, 47, 1
1, 47172, Note_off_c, 0, 74, 1
1, 47180, Note_on_c, 0, 76, 119
1, 47181, Note_on_c, 2, 44, 127
1, 47196, Marker_t, "1121 Deutz Ave Trenton NJ 08611 http://www.geocities.com/Paris/LeftBank/3214"
1, 47231, Note_off_c, 0, 76, 1
1, 47239, Note_on_c, 0, 71, 121
1, 47281, Note_off_c, 2, 44, 1
1, 47289, Note_off_c, 0, 71, 1
1, 47297, Note_on_c, 0, 73, 119
1, 47298, Note_on_c, 2, 40, 127
1, 47348, Note_off_c, 0, 73, 1
1, 47356, Note_on_c, 0, 74, 119
1, 47385, Note_off_c, 0, 68, 1
1, 47398, Note_off_c, 2, 40, 1
1, 47406, Note_off_c, 0, 74, 1
1, 47414, Note_on_c, 0, 73, 119
1, 47415, Note_on_c, 0, 69, 126
1, 47415, Note_on_c, 2, 33, 127
1, 47464, Note_off_c, 2, 33, 1
1, 47464, Note_off_c, 0, 73, 1
1, 47472, Note_on_c, 0, 74, 119
1, 47472, Note_on_c, 2, 40, 127
1, 47514, Note_off_c, 0, 69, 1
1, 47521, Note_off_c, 2, 40, 1
1, 47522, Note_off_c, 0, 74, 1
1, 47530, Note_on_c, 0, 73, 119
1, 47530, Note_on_c, 2, 45, 127
1, 47580, Note_off_c, 2, 45, 1
1, 47580, Note_off_c, 0, 73, 1
1, 47587, Note_on_c, 0, 71, 121
1, 47588, Note_on_c, 2, 47, 127
1, 47637, Note_off_c, 2, 47, 1
1, 47637, Note_off_c, 0, 71, 1
1, 47645, Note_on_c, 0, 69, 126
1, 47645, Note_on_c, 1, 49, 127
1, 47695, Note_off_c, 1, 49, 1
1, 47695, Note_off_c, 0, 69, 1
1, 47702, Note_on_c, 0, 68, 126
1, 47703, Note_on_c, 2, 47, 127
1, 47752, Note_off_c, 2, 47, 1
1, 47753, Note_off_c, 0, 68, 1
1, 47760, Note_on_c, 1, 66, 127
1, 47760, Note_on_c, 2, 45, 127
1, 47809, Note_off_c, 2, 45, 1
1, 47810, Note_off_c, 1, 66, 1
1, 47818, Note_on_c, 1, 64, 127
1, 47818, Note_on_c, 1, 49, 127
1, 47868, Note_off_c, 1, 49, 1
1, 47868, Note_off_c, 1, 64, 1
1, 47875, Note_on_c, 1, 62, 127
1, 47876, Note_on_c, 2, 47, 127
1, 47926, Note_off_c, 2, 47, 1
1, 47926, Note_off_c, 1, 62, 1
1, 47934, Note_on_c, 1, 66, 127
1, 47934, Note_on_c, 1, 50, 127
1, 47985, Note_off_c, 1, 50, 1
1, 47985, Note_off_c, 1, 66, 1
1, 47992, Note_on_c, 0, 68, 126
1, 47993, Note_on_c, 1, 49, 127
1, 48043, Note_off_c, 0, 68, 1
1, 48051, Note_on_c, 0, 71, 121
1, 48102, Note_off_c, 0, 71, 1
1, 48109, Note_on_c, 1, 64, 127
1, 48160, Note_off_c, 1, 64, 1
1, 48161, Note_off_c, 1, 49, 1
1, 48169, Note_on_c, 0, 68, 126
1, 48169, Note_on_c, 1, 52, 127
1, 48219, Note_off_c, 1, 52, 1
1, 48219, Note_off_c, 0, 68, 1
1, 48228, Note_on_c, 0, 70, 124
1, 48228, Note_on_c, 1, 50, 127
1, 48277, Note_off_c, 0, 70, 1
1, 48286, Note_on_c, 0, 73, 121
1, 48336, Note_off_c, 0, 73, 1
1, 48344, Note_on_c, 0, 71, 121
1, 48395, Note_off_c, 1, 50, 1
1, 48402, Note_on_c, 1, 54, 127
1, 48453, Note_off_c, 1, 54, 1
1, 48461, Note_on_c, 1, 52, 127
1, 48512, Note_off_c, 1, 52, 1
1, 48519, Note_on_c, 1, 51, 127
1, 48520, Note_on_c, 1, 66, 127
1, 48570, Note_off_c, 1, 66, 1
1, 48571, Note_off_c, 1, 51, 1
1, 48578, Note_on_c, 1, 67, 127
1, 48578, Note_on_c, 1, 52, 127
1, 48629, Note_off_c, 1, 52, 1
1, 48636, Note_on_c, 2, 47, 127
1, 48687, Note_off_c, 2, 47, 1
1, 48695, Note_on_c, 1, 49, 127
1, 48731, Note_off_c, 0, 71, 1
1, 48746, Note_off_c, 1, 49, 1
1, 48754, Note_on_c, 0, 71, 123
1, 48754, Note_on_c, 1, 50, 127
1, 48804, Note_off_c, 1, 50, 1
1, 48805, Note_off_c, 0, 71, 1
1, 48812, Note_on_c, 0, 69, 126
1, 48813, Note_on_c, 1, 49, 127
1, 48863, Note_off_c, 1, 49, 1
1, 48871, Note_on_c, 1, 52, 127
1, 48922, Note_off_c, 1, 52, 1
1, 48929, Note_on_c, 1, 50, 127
1, 48965, Note_off_c, 1, 67, 1
1, 48980, Note_off_c, 1, 50, 1
1, 48988, Note_on_c, 1, 49, 127
1, 48988, Note_on_c, 1, 65, 127
1, 49039, Note_off_c, 1, 65, 1
1, 49039, Note_off_c, 1, 49, 1
1, 49046, Note_on_c, 1, 66, 127
1, 49047, Note_on_c, 1, 50, 127
1, 49097, Note_off_c, 1, 50, 1
1, 49105, Note_on_c, 2, 45, 127
1, 49155, Note_off_c, 2, 45, 1
1, 49163, Note_on_c, 2, 47, 127
1, 49198, Note_off_c, 0, 69, 1
1, 49213, Note_off_c, 2, 47, 1
1, 49221, Note_on_c, 0, 69, 126
1, 49222, Note_on_c, 1, 49, 127
1, 49271, Note_off_c, 1, 49, 1
1, 49272, Note_off_c, 0, 69, 1
1, 49279, Note_on_c, 0, 68, 126
1, 49280, Note_on_c, 2, 47, 127
1, 49330, Note_off_c, 2, 47, 1
1, 49337, Note_on_c, 1, 50, 127
1, 49387, Note_off_c, 1, 50, 1
1, 49395, Note_on_c, 1, 49, 127
1, 49429, Note_off_c, 1, 66, 1
1, 49445, Note_off_c, 1, 49, 1
1, 49452, Note_on_c, 1, 63, 127
1, 49453, Note_on_c, 2, 47, 127
1, 49502, Note_off_c, 2, 47, 1
1, 49503, Note_off_c, 1, 63, 1
1, 49511, Note_on_c, 1, 64, 127
1, 49511, Note_on_c, 1, 49, 127
1, 49560, Note_off_c, 1, 49, 1
1, 49568, Note_on_c, 2, 44, 127
1, 49618, Note_off_c, 2, 44, 1
1, 49626, Note_on_c, 2, 46, 127
1, 49660, Note_off_c, 0, 68, 1
1, 49675, Note_off_c, 2, 46, 1
1, 49683, Note_on_c, 1, 67, 127
1, 49684, Note_on_c, 2, 47, 127
1, 49733, Note_off_c, 2, 47, 1
1, 49733, Note_off_c, 1, 67, 1
1, 49741, Note_on_c, 1, 66, 127
1, 49741, Note_on_c, 2, 46, 127
1, 49791, Note_off_c, 2, 46, 1
1, 49800, Note_on_c, 2, 42, 127
1, 49841, Note_off_c, 1, 64, 1
1, 49849, Note_off_c, 2, 42, 1
1, 49858, Note_on_c, 1, 62, 127
1, 49859, Note_on_c, 2, 44, 127
1, 49908, Note_off_c, 2, 44, 1
1, 49909, Note_off_c, 1, 62, 1
1, 49917, Note_on_c, 1, 61, 127
1, 49917, Note_on_c, 2, 46, 127
1, 49945, Note_off_c, 1, 66, 1
1, 49967, Note_off_c, 2, 46, 1
1, 49967, Note_off_c, 1, 61, 1
1, 49975, Note_on_c, 1, 59, 127
1, 49976, Note_on_c, 2, 44, 127
1, 50026, Note_off_c, 2, 44, 1
1, 50026, Note_off_c, 1, 59, 1
1, 50034, Note_on_c, 1, 49, 127
1, 50034, Note_on_c, 1, 58, 127
1, 50085, Note_off_c, 1, 58, 1
1, 50085, Note_off_c, 1, 49, 1
1, 50092, Note_on_c, 1, 56, 127
1, 50093, Note_on_c, 2, 47, 127
1, 50143, Note_off_c, 2, 47, 1
1, 50144, Note_off_c, 1, 56, 1
1, 50151, Note_on_c, 1, 54, 127
1, 50151, Note_on_c, 2, 46, 127
1, 50201, Note_off_c, 2, 46, 1
1, 50202, Note_off_c, 1, 54, 1
1, 50209, Note_on_c, 1, 66, 127
1, 50210, Note_on_c, 1, 62, 127
1, 50210, Note_on_c, 2, 47, 127
1, 50260, Note_off_c, 2, 47, 1
1, 50261, Note_off_c, 1, 62, 1
1, 50268, Note_on_c, 1, 49, 127
1, 50268, Note_on_c, 1, 61, 127
1, 50319, Note_off_c, 1, 61, 1
1, 50319, Note_off_c, 1, 49, 1
1, 50327, Note_on_c, 1, 50, 127
1, 50327, Note_on_c, 1, 59, 127
1, 50377, Note_off_c, 1, 59, 1
1, 50378, Note_off_c, 1, 50, 1
1, 50385, Note_on_c, 1, 52, 127
1, 50386, Note_on_c, 1, 58, 127
1, 50415, Note_off_c, 1, 66, 1
1, 50436, Note_off_c, 1, 52, 1
1, 50436, Note_off_c, 1, 58, 1
1, 50444, Note_on_c, 1, 50, 127
1, 50444, Note_on_c, 1, 59, 127
1, 50495, Note_off_c, 1, 59, 1
1, 50495, Note_off_c, 1, 50, 1
1, 50502, Note_on_c, 1, 55, 127
1, 50503, Note_on_c, 1, 64, 127
1, 50553, Note_off_c, 1, 64, 1
1, 50554, Note_off_c, 1, 55, 1
1, 50561, Note_on_c, 1, 54, 127
1, 50561, Note_on_c, 1, 62, 127
1, 50612, Note_off_c, 1, 62, 1
1, 50612, Note_off_c, 1, 54, 1
1, 50619, Note_on_c, 1, 52, 127
1, 50620, Note_on_c, 1, 61, 127
1, 50670, Note_off_c, 1, 61, 1
1, 50671, Note_off_c, 1, 52, 1
1, 50678, Note_on_c, 1, 54, 127
1, 50678, Note_on_c, 1, 62, 127
1, 50729, Note_off_c, 1, 62, 1
1, 50729, Note_off_c, 1, 54, 1
1, 50737, Note_on_c, 0, 74, 122
1, 50738, Note_on_c, 1, 56, 127
1, 50789, Note_off_c, 1, 56, 1
1, 50790, Note_off_c, 0, 74, 1
1, 50797, Note_on_c, 0, 73, 124
1, 50797, Note_on_c, 1, 57, 127
1, 50849, Note_off_c, 1, 57, 1
1, 50849, Note_off_c, 0, 73, 1
1, 50856, Note_on_c, 0, 71, 124
1, 50857, Note_on_c, 1, 59, 127
1, 50908, Note_off_c, 1, 59, 1
1, 50909, Note_off_c, 0, 71, 1
1, 50916, Note_on_c, 0, 73, 124
1, 50917, Note_on_c, 1, 57, 127
1, 50967, Note_off_c, 1, 57, 1
1, 50967, Note_off_c, 0, 73, 1
1, 50975, Note_on_c, 0, 68, 126
1, 50975, Note_on_c, 1, 62, 127
1, 51026, Note_off_c, 1, 62, 1
1, 51027, Note_off_c, 0, 68, 1
1, 51034, Note_on_c, 0, 69, 126
1, 51035, Note_on_c, 1, 61, 127
1, 51085, Note_off_c, 1, 61, 1
1, 51085, Note_off_c, 0, 69, 1
1, 51094, Note_on_c, 0, 71, 124
1, 51094, Note_on_c, 1, 59, 127
1, 51144, Note_off_c, 1, 59, 1
1, 51145, Note_off_c, 0, 71, 1
1, 51152, Note_on_c, 0, 69, 126
1, 51153, Note_on_c, 1, 61, 127
1, 51204, Note_off_c, 1, 61, 1
1, 51212, Note_on_c, 0, 73, 124
1, 51212, Note_on_c, 1, 57, 127
1, 51264, Note_off_c, 1, 57, 1
1, 51264, Note_off_c, 0, 73, 1
1, 51271, Note_on_c, 0, 74, 120
1, 51272, Note_on_c, 1, 59, 127
1, 51323, Note_off_c, 1, 59, 1
1, 51324, Note_off_c, 0, 74, 1
1, 51331, Note_on_c, 0, 76, 120
1, 51331, Note_on_c, 1, 61, 127
1, 51382, Note_off_c, 1, 61, 1
1, 51382, Note_off_c, 0, 76, 1
1, 51390, Note_on_c, 0, 78, 118
1, 51391, Note_on_c, 1, 62, 127
1, 51441, Note_off_c, 0, 78, 1
1, 51449, Note_on_c, 0, 76, 120
1, 51478, Note_off_c, 0, 69, 1
1, 51500, Note_off_c, 0, 76, 1
1, 51507, Note_on_c, 0, 74, 118
1, 51508, Note_on_c, 0, 71, 124
1, 51542, Note_off_c, 1, 62, 1
1, 51558, Note_off_c, 0, 74, 1
1, 51566, Note_on_c, 0, 78, 116
1, 51566, Note_on_c, 1, 50, 127
1, 51608, Note_off_c, 0, 71, 1
1, 51617, Note_off_c, 1, 50, 1
1, 51617, Note_off_c, 0, 78, 1
1, 51624, Note_on_c, 0, 76, 118
1, 51625, Note_on_c, 0, 73, 122
1, 51626, Note_on_c, 1, 57, 127
1, 51675, Note_off_c, 0, 76, 1
1, 51684, Note_on_c, 0, 79, 116
1, 51734, Note_off_c, 0, 79, 1
1, 51742, Note_on_c, 0, 78, 118
1, 51776, Note_off_c, 1, 57, 1
1, 51777, Note_off_c, 0, 73, 1
1, 51801, Note_on_c, 0, 73, 122
1, 51801, Note_on_c, 1, 58, 127
1, 51850, Note_off_c, 1, 58, 1
1, 51851, Note_off_c, 0, 73, 1
1, 51859, Note_on_c, 0, 74, 120
1, 51860, Note_on_c, 1, 59, 127
1, 51909, Note_off_c, 0, 78, 1
1, 51918, Note_on_c, 0, 81, 118
1, 51967, Note_off_c, 0, 81, 1
1, 51976, Note_on_c, 0, 79, 118
1, 52010, Note_off_c, 1, 59, 1
1, 52011, Note_off_c, 0, 74, 1
1, 52035, Note_on_c, 0, 75, 120
1, 52035, Note_on_c, 2, 47, 127
1, 52084, Note_off_c, 2, 47, 1
1, 52085, Note_off_c, 0, 75, 1
1, 52093, Note_on_c, 0, 76, 120
1, 52094, Note_on_c, 2, 48, 127
1, 52144, Note_off_c, 0, 79, 1
1, 52152, Note_on_c, 0, 83, 116
1, 52202, Note_off_c, 0, 83, 1
1, 52211, Note_on_c, 0, 81, 116
1, 52246, Note_off_c, 2, 48, 1
1, 52262, Note_off_c, 0, 81, 1
1, 52270, Note_on_c, 0, 80, 116
1, 52271, Note_on_c, 1, 60, 127
1, 52321, Note_off_c, 1, 60, 1
1, 52321, Note_off_c, 0, 80, 1
1, 52330, Note_on_c, 0, 81, 116
1, 52330, Note_on_c, 1, 61, 127
1, 52380, Note_off_c, 0, 81, 1
1, 52389, Note_on_c, 0, 76, 120
1, 52440, Note_off_c, 0, 76, 1
1, 52449, Note_on_c, 0, 78, 116
1, 52484, Note_off_c, 1, 61, 1
1, 52500, Note_off_c, 0, 78, 1
1, 52508, Note_on_c, 0, 79, 116
1, 52509, Note_on_c, 1, 57, 127
1, 52561, Note_off_c, 1, 57, 1
1, 52561, Note_off_c, 0, 79, 1
1, 52569, Note_on_c, 0, 78, 116
1, 52569, Note_on_c, 1, 62, 127
1, 52620, Note_off_c, 1, 62, 1
1, 52620, Note_off_c, 0, 76, 1
1, 52628, Note_on_c, 0, 76, 120
1, 52629, Note_on_c, 1, 61, 127
1, 52679, Note_off_c, 1, 61, 1
1, 52680, Note_off_c, 0, 76, 1
1, 52686, Note_on_c, 0, 74, 120
1, 52686, Note_on_c, 1, 59, 127
1, 52737, Note_off_c, 1, 59, 1
1, 52737, Note_off_c, 0, 74, 1
1, 52744, Note_on_c, 0, 73, 122
1, 52745, Note_on_c, 1, 57, 127
1, 52795, Note_off_c, 1, 57, 1
1, 52796, Note_off_c, 0, 73, 1
1, 52803, Note_on_c, 0, 74, 120
1, 52803, Note_on_c, 1, 59, 127
1, 52853, Note_off_c, 1, 59, 1
1, 52853, Note_off_c, 0, 74, 1
1, 52860, Note_on_c, 0, 69, 126
1, 52861, Note_on_c, 1, 54, 127
1, 52911, Note_off_c, 1, 54, 1
1, 52912, Note_off_c, 0, 69, 1
1, 52920, Note_on_c, 0, 71, 124
1, 52920, Note_on_c, 1, 56, 127
1, 52971, Note_off_c, 1, 56, 1
1, 52971, Note_off_c, 0, 71, 1
1, 52979, Note_on_c, 0, 73, 124
1, 52979, Note_on_c, 1, 57, 127
1, 53029, Note_off_c, 1, 57, 1
1, 53030, Note_off_c, 0, 73, 1
1, 53037, Note_on_c, 0, 71, 124
1, 53038, Note_on_c, 1, 56, 127
1, 53088, Note_off_c, 1, 56, 1
1, 53088, Note_off_c, 0, 78, 1
1, 53096, Note_on_c, 0, 78, 120
1, 53096, Note_on_c, 1, 57, 127
1, 53146, Note_off_c, 1, 57, 1
1, 53146, Note_off_c, 0, 78, 1
1, 53153, Note_on_c, 0, 76, 122
1, 53154, Note_on_c, 1, 56, 127
1, 53204, Note_off_c, 1, 56, 1
1, 53205, Note_off_c, 0, 76, 1
1, 53213, Note_on_c, 0, 75, 122
1, 53213, Note_on_c, 1, 54, 127
1, 53264, Note_off_c, 1, 54, 1
1, 53264, Note_off_c, 0, 75, 1
1, 53271, Note_on_c, 0, 76, 124
1, 53272, Note_on_c, 1, 56, 127
1, 53323, Note_off_c, 1, 56, 1
1, 53324, Note_off_c, 0, 76, 1
1, 53331, Note_on_c, 0, 71, 124
1, 53331, Note_on_c, 1, 59, 127
1, 53382, Note_off_c, 1, 59, 1
1, 53382, Note_off_c, 0, 71, 1
1, 53389, Note_on_c, 0, 73, 124
1, 53390, Note_on_c, 1, 57, 127
1, 53441, Note_off_c, 1, 57, 1
1, 53442, Note_off_c, 0, 73, 1
1, 53448, Note_on_c, 0, 74, 124
1, 53449, Note_on_c, 1, 56, 127
1, 53500, Note_off_c, 1, 56, 1
1, 53500, Note_off_c, 0, 74, 1
1, 53508, Note_on_c, 0, 73, 124
1, 53508, Note_on_c, 1, 57, 127
1, 53558, Note_off_c, 1, 57, 1
1, 53559, Note_off_c, 0, 71, 1
1, 53566, Note_on_c, 0, 71, 124
1, 53567, Note_on_c, 1, 56, 127
1, 53617, Note_off_c, 1, 56, 1
1, 53617, Note_off_c, 0, 71, 1
1, 53625, Note_on_c, 0, 69, 126
1, 53625, Note_on_c, 1, 54, 127
1, 53676, Note_off_c, 1, 54, 1
1, 53676, Note_off_c, 0, 69, 1
1, 53683, Note_on_c, 0, 68, 126
1, 53684, Note_on_c, 1, 52, 127
1, 53734, Note_off_c, 1, 52, 1
1, 53735, Note_off_c, 0, 68, 1
1, 53742, Note_on_c, 0, 69, 126
1, 53742, Note_on_c, 1, 54, 127
1, 53793, Note_off_c, 1, 54, 1
1, 53793, Note_off_c, 0, 69, 1
1, 53800, Note_on_c, 1, 49, 127
1, 53801, Note_on_c, 1, 64, 127
1, 53851, Note_off_c, 1, 64, 1
1, 53852, Note_off_c, 1, 49, 1
1, 53859, Note_on_c, 1, 51, 127
1, 53859, Note_on_c, 1, 66, 127
1, 53910, Note_off_c, 1, 66, 1
1, 53910, Note_off_c, 1, 51, 1
1, 53919, Note_on_c, 1, 52, 127
1, 53919, Note_on_c, 1, 67, 127
1, 53969, Note_off_c, 1, 67, 1
1, 53970, Note_off_c, 1, 52, 1
1, 53977, Note_on_c, 1, 51, 127
1, 53978, Note_on_c, 1, 66, 127
1, 54028, Note_off_c, 1, 51, 1
1, 54029, Note_off_c, 0, 73, 1
1, 54036, Note_on_c, 0, 72, 124
1, 54036, Note_on_c, 1, 52, 127
1, 54086, Note_off_c, 1, 52, 1
1, 54087, Note_off_c, 0, 72, 1
1, 54094, Note_on_c, 0, 71, 124
1, 54095, Note_on_c, 1, 51, 127
1, 54145, Note_off_c, 1, 51, 1
1, 54145, Note_off_c, 0, 71, 1
1, 54153, Note_on_c, 0, 70, 126
1, 54154, Note_on_c, 1, 49, 127
1, 54204, Note_off_c, 1, 49, 1
1, 54204, Note_off_c, 0, 70, 1
1, 54212, Note_on_c, 0, 71, 124
1, 54212, Note_on_c, 1, 51, 127
1, 54262, Note_off_c, 1, 51, 1
1, 54263, Note_off_c, 0, 71, 1
1, 54270, Note_on_c, 1, 66, 127
1, 54271, Note_on_c, 1, 54, 127
1, 54320, Note_off_c, 1, 54, 1
1, 54320, Note_off_c, 1, 66, 1
1, 54328, Note_on_c, 0, 68, 126
1, 54328, Note_on_c, 1, 52, 127
1, 54378, Note_off_c, 1, 52, 1
1, 54379, Note_off_c, 0, 68, 1
1, 54386, Note_on_c, 0, 69, 126
1, 54387, Note_on_c, 1, 51, 127
1, 54436, Note_off_c, 1, 51, 1
1, 54436, Note_off_c, 0, 69, 1
1, 54444, Note_on_c, 0, 68, 126
1, 54444, Note_on_c, 1, 52, 127
1, 54493, Note_off_c, 1, 66, 1
1, 54502, Note_on_c, 1, 59, 127
1, 54551, Note_off_c, 1, 59, 1
1, 54559, Note_on_c, 1, 64, 127
1, 54594, Note_off_c, 1, 52, 1
1, 54595, Note_off_c, 0, 68, 1
1, 54610, Note_off_c, 1, 64, 1
1, 54618, Note_on_c, 0, 69, 126
1, 54618, Note_on_c, 1, 66, 127
1, 54619, Note_on_c, 2, 40, 127
1, 54669, Note_off_c, 2, 40, 1
1, 54669, Note_off_c, 1, 66, 1
1, 54669, Note_off_c, 0, 69, 1
1, 54676, Note_on_c, 0, 71, 124
1, 54677, Note_on_c, 0, 68, 126
1, 54677, Note_on_c, 1, 52, 127
1, 54727, Note_off_c, 0, 68, 1
1, 54735, Note_on_c, 1, 66, 127
1, 54786, Note_off_c, 1, 66, 1
1, 54793, Note_on_c, 1, 64, 127
1, 54828, Note_off_c, 1, 52, 1
1, 54829, Note_off_c, 0, 71, 1
1, 54844, Note_off_c, 1, 64, 1
1, 54852, Note_on_c, 0, 73, 124
1, 54852, Note_on_c, 1, 67, 127
1, 54853, Note_on_c, 2, 46, 127
1, 54903, Note_off_c, 2, 46, 1
1, 54903, Note_off_c, 1, 67, 1
1, 54904, Note_off_c, 0, 73, 1
1, 54911, Note_on_c, 0, 74, 124
1, 54911, Note_on_c, 1, 66, 127
1, 54912, Note_on_c, 2, 47, 127
1, 54961, Note_off_c, 1, 66, 1
1, 54969, Note_on_c, 0, 69, 126
1, 55020, Note_off_c, 0, 69, 1
1, 55028, Note_on_c, 0, 68, 126
1, 55063, Note_off_c, 2, 47, 1
1, 55064, Note_off_c, 0, 74, 1
1, 55086, Note_on_c, 0, 75, 124
1, 55087, Note_on_c, 1, 59, 127
1, 55137, Note_off_c, 1, 59, 1
1, 55138, Note_off_c, 0, 75, 1
1, 55145, Note_on_c, 0, 76, 120
1, 55145, Note_on_c, 1, 61, 127
1, 55196, Note_off_c, 0, 68, 1
1, 55203, Note_on_c, 0, 71, 124
1, 55254, Note_off_c, 0, 71, 1
1, 55262, Note_on_c, 0, 69, 126
1, 55296, Note_off_c, 1, 61, 1
1, 55297, Note_off_c, 0, 76, 1
1, 55320, Note_on_c, 0, 77, 120
1, 55321, Note_on_c, 1, 49, 127
1, 55371, Note_off_c, 1, 49, 1
1, 55372, Note_off_c, 0, 77, 1
1, 55379, Note_on_c, 0, 78, 120
1, 55380, Note_on_c, 1, 50, 127
1, 55430, Note_off_c, 0, 69, 1
1, 55438, Note_on_c, 0, 73, 124
1, 55488, Note_off_c, 0, 73, 1
1, 55496, Note_on_c, 0, 71, 124
1, 55531, Note_off_c, 1, 50, 1
1, 55547, Note_off_c, 0, 71, 1
1, 55555, Note_on_c, 0, 69, 126
1, 55555, Note_on_c, 1, 62, 127
1, 55606, Note_off_c, 1, 62, 1
1, 55606, Note_off_c, 0, 69, 1
1, 55613, Note_on_c, 0, 71, 121
1, 55614, Note_on_c, 1, 63, 127
1, 55664, Note_off_c, 0, 71, 1
1, 55672, Note_on_c, 1, 66, 127
1, 55723, Note_off_c, 1, 66, 1
1, 55730, Note_on_c, 0, 68, 126
1, 55766, Note_off_c, 1, 63, 1
1, 55781, Note_off_c, 0, 68, 1
1, 55789, Note_on_c, 0, 69, 126
1, 55789, Note_on_c, 1, 51, 127
1, 55840, Note_off_c, 1, 51, 1
1, 55840, Note_off_c, 0, 69, 1
1, 55848, Note_on_c, 0, 68, 126
1, 55848, Note_on_c, 1, 52, 127
1, 55899, Note_off_c, 0, 68, 1
1, 55900, Note_off_c, 0, 78, 1
1, 55907, Note_on_c, 0, 75, 119
1, 55908, Note_on_c, 0, 69, 126
1, 55950, Note_off_c, 1, 52, 1
1, 55958, Note_off_c, 0, 75, 1
1, 55958, Note_off_c, 0, 69, 1
1, 55966, Note_on_c, 0, 76, 113
1, 55966, Note_on_c, 0, 68, 126
1, 56017, Note_off_c, 0, 68, 1
1, 56018, Note_off_c, 0, 76, 1
1, 56025, Note_on_c, 0, 78, 113
1, 56026, Note_on_c, 1, 66, 127
1, 56075, Note_off_c, 1, 66, 1
1, 56076, Note_off_c, 0, 78, 1
1, 56084, Note_on_c, 0, 76, 113
1, 56084, Note_on_c, 0, 68, 126
1, 56134, Note_off_c, 0, 68, 1
1, 56134, Note_off_c, 0, 76, 1
1, 56141, Note_on_c, 0, 81, 113
1, 56142, Note_on_c, 1, 63, 127
1, 56192, Note_off_c, 1, 63, 1
1, 56193, Note_off_c, 0, 81, 1
1, 56200, Note_on_c, 0, 80, 113
1, 56200, Note_on_c, 1, 64, 127
1, 56251, Note_off_c, 1, 64, 1
1, 56251, Note_off_c, 0, 80, 1
1, 56259, Note_on_c, 0, 78, 113
1, 56259, Note_on_c, 1, 66, 127
1, 56309, Note_off_c, 1, 66, 1
1, 56310, Note_off_c, 0, 78, 1
1, 56317, Note_on_c, 0, 80, 113
1, 56318, Note_on_c, 1, 64, 127
1, 56369, Note_off_c, 0, 80, 1
1, 56376, Note_on_c, 0, 78, 113
1, 56376, Note_on_c, 1, 54, 127
1, 56420, Note_off_c, 1, 64, 1
1, 56427, Note_off_c, 1, 54, 1
1, 56428, Note_off_c, 0, 78, 1
1, 56435, Note_on_c, 0, 76, 113
1, 56436, Note_on_c, 1, 56, 127
1, 56486, Note_off_c, 1, 56, 1
1, 56486, Note_off_c, 0, 76, 1
1, 56494, Note_on_c, 0, 75, 119
1, 56495, Note_on_c, 1, 57, 127
1, 56544, Note_off_c, 1, 57, 1
1, 56545, Note_off_c, 0, 75, 1
1, 56553, Note_on_c, 0, 76, 113
1, 56553, Note_on_c, 1, 56, 127
1, 56603, Note_off_c, 1, 56, 1
1, 56604, Note_off_c, 0, 76, 1
1, 56611, Note_on_c, 0, 71, 121
1, 56611, Note_on_c, 1, 59, 127
1, 56661, Note_off_c, 1, 59, 1
1, 56661, Note_off_c, 0, 71, 1
1, 56669, Note_on_c, 0, 73, 122
1, 56669, Note_on_c, 1, 57, 127
1, 56719, Note_off_c, 1, 57, 1
1, 56720, Note_off_c, 0, 73, 1
1, 56727, Note_on_c, 0, 74, 122
1, 56728, Note_on_c, 1, 56, 127
1, 56777, Note_off_c, 1, 56, 1
1, 56777, Note_off_c, 0, 74, 1
1, 56785, Note_on_c, 0, 73, 122
1, 56785, Note_on_c, 1, 57, 127
1, 56834, Note_off_c, 0, 73, 1
1, 56843, Note_on_c, 0, 68, 126
1, 56843, Note_on_c, 1, 62, 127
1, 56892, Note_off_c, 1, 62, 1
1, 56892, Note_off_c, 0, 68, 1
1, 56900, Note_on_c, 0, 69, 126
1, 56901, Note_on_c, 1, 61, 127
1, 56950, Note_off_c, 1, 61, 1
1, 56950, Note_off_c, 0, 69, 1
1, 56958, Note_on_c, 0, 71, 124
1, 56958, Note_on_c, 1, 59, 127
1, 56988, Note_off_c, 1, 57, 1
1, 57009, Note_off_c, 1, 59, 1
1, 57009, Note_off_c, 0, 71, 1
1, 57016, Note_on_c, 0, 69, 126
1, 57017, Note_on_c, 1, 61, 127
1, 57066, Note_off_c, 1, 61, 1
1, 57067, Note_off_c, 0, 69, 1
1, 57074, Note_on_c, 0, 74, 124
1, 57074, Note_on_c, 1, 56, 127
1, 57124, Note_off_c, 1, 56, 1
1, 57125, Note_off_c, 0, 74, 1
1, 57132, Note_on_c, 0, 73, 124
1, 57133, Note_on_c, 1, 57, 127
1, 57182, Note_off_c, 1, 57, 1
1, 57183, Note_off_c, 0, 73, 1
1, 57190, Note_on_c, 0, 71, 124
1, 57191, Note_on_c, 1, 59, 127
1, 57240, Note_off_c, 1, 59, 1
1, 57240, Note_off_c, 0, 71, 1
1, 57248, Note_on_c, 0, 73, 124
1, 57248, Note_on_c, 1, 57, 127
1, 57298, Note_off_c, 0, 73, 1
1, 57305, Note_on_c, 0, 71, 124
1, 57306, Note_on_c, 2, 47, 127
1, 57348, Note_off_c, 1, 57, 1
1, 57355, Note_off_c, 2, 47, 1
1, 57356, Note_off_c, 0, 71, 1
1, 57363, Note_on_c, 0, 69, 126
1, 57363, Note_on_c, 1, 49, 127
1, 57414, Note_off_c, 1, 49, 1
1, 57414, Note_off_c, 0, 69, 1
1, 57421, Note_on_c, 0, 68, 126
1, 57422, Note_on_c, 1, 50, 127
1, 57471, Note_off_c, 1, 50, 1
1, 57472, Note_off_c, 0, 68, 1
1, 57479, Note_on_c, 0, 69, 126
1, 57480, Note_on_c, 1, 49, 127
1, 57530, Note_off_c, 1, 49, 1
1, 57530, Note_off_c, 0, 69, 1
1, 57538, Note_on_c, 1, 64, 127
1, 57538, Note_on_c, 1, 52, 127
1, 57588, Note_off_c, 1, 52, 1
1, 57588, Note_off_c, 1, 64, 1
1, 57595, Note_on_c, 1, 66, 127
1, 57596, Note_on_c, 1, 50, 127
1, 57645, Note_off_c, 1, 50, 1
1, 57646, Note_off_c, 1, 66, 1
1, 57653, Note_on_c, 1, 67, 127
1, 57653, Note_on_c, 1, 49, 127
1, 57703, Note_off_c, 1, 49, 1
1, 57703, Note_off_c, 1, 67, 1
1, 57710, Note_on_c, 1, 66, 127
1, 57711, Note_on_c, 1, 50, 127
1, 57760, Note_off_c, 1, 50, 1
1, 57761, Note_off_c, 1, 66, 1
1, 57768, Note_on_c, 0, 69, 126
1, 57768, Note_on_c, 1, 49, 127
1, 57818, Note_off_c, 1, 49, 1
1, 57818, Note_off_c, 0, 69, 1
1, 57826, Note_on_c, 0, 71, 124
1, 57826, Note_on_c, 2, 47, 127
1, 57876, Note_off_c, 2, 47, 1
1, 57876, Note_off_c, 0, 71, 1
1, 57883, Note_on_c, 0, 73, 124
1, 57884, Note_on_c, 2, 45, 127
1, 57933, Note_off_c, 2, 45, 1
1, 57934, Note_off_c, 0, 73, 1
1, 57941, Note_on_c, 0, 74, 124
1, 57941, Note_on_c, 2, 47, 127
1, 57991, Note_off_c, 2, 47, 1
1, 57998, Note_on_c, 0, 69, 126
1, 57999, Note_on_c, 2, 42, 127
1, 58048, Note_off_c, 2, 42, 1
1, 58049, Note_off_c, 0, 69, 1
1, 58056, Note_on_c, 0, 68, 126
1, 58056, Note_on_c, 2, 44, 127
1, 58106, Note_off_c, 2, 44, 1
1, 58106, Note_off_c, 0, 68, 1
1, 58114, Note_on_c, 1, 66, 127
1, 58114, Note_on_c, 2, 45, 127
1, 58163, Note_off_c, 2, 45, 1
1, 58163, Note_off_c, 1, 66, 1
1, 58170, Note_on_c, 1, 64, 127
1, 58171, Note_on_c, 2, 44, 127
1, 58220, Note_off_c, 2, 44, 1
1, 58221, Note_off_c, 0, 74, 1
1, 58228, Note_on_c, 0, 68, 126
1, 58228, Note_on_c, 2, 40, 127
1, 58277, Note_off_c, 2, 40, 1
1, 58277, Note_off_c, 0, 68, 1
1, 58284, Note_on_c, 0, 69, 126
1, 58285, Note_on_c, 2, 42, 127
1, 58333, Note_off_c, 2, 42, 1
1, 58334, Note_off_c, 0, 69, 1
1, 58341, Note_on_c, 0, 71, 124
1, 58342, Note_on_c, 2, 44, 127
1, 58390, Note_off_c, 2, 44, 1
1, 58391, Note_off_c, 0, 71, 1
1, 58398, Note_on_c, 0, 73, 124
1, 58398, Note_on_c, 2, 45, 127
1, 58447, Note_off_c, 2, 45, 1
1, 58447, Note_off_c, 0, 73, 1
1, 58454, Note_on_c, 0, 71, 124
1, 58455, Note_on_c, 2, 47, 127
1, 58503, Note_off_c, 2, 47, 1
1, 58504, Note_off_c, 0, 71, 1
1, 58512, Note_on_c, 0, 69, 126
1, 58512, Note_on_c, 1, 49, 127
1, 58546, Note_off_c, 1, 64, 1
1, 58561, Note_off_c, 1, 49, 1
1, 58561, Note_off_c, 0, 69, 1
1, 58569, Note_on_c, 0, 73, 124
1, 58569, Note_on_c, 1, 66, 127
1, 58570, Note_on_c, 2, 45, 127
1, 58618, Note_off_c, 2, 45, 1
1, 58618, Note_off_c, 1, 66, 1
1, 58619, Note_off_c, 0, 73, 1
1, 58625, Note_on_c, 0, 71, 124
1, 58626, Note_on_c, 0, 68, 126
1, 58627, Note_on_c, 1, 52, 127
1, 58675, Note_off_c, 0, 71, 1
1, 58683, Note_on_c, 0, 74, 124
1, 58733, Note_off_c, 0, 74, 1
1, 58740, Note_on_c, 0, 73, 124
1, 58776, Note_off_c, 1, 52, 1
1, 58776, Note_off_c, 0, 68, 1
1, 58798, Note_on_c, 0, 68, 126
1, 58799, Note_on_c, 2, 40, 127
1, 58849, Note_off_c, 2, 40, 1
1, 58849, Note_off_c, 0, 68, 1
1, 58857, Note_on_c, 0, 69, 126
1, 58858, Note_on_c, 2, 42, 127
1, 58907, Note_off_c, 0, 73, 1
1, 58915, Note_on_c, 0, 76, 124
1, 58964, Note_off_c, 0, 76, 1
1, 58972, Note_on_c, 0, 74, 124
1, 59006, Note_off_c, 2, 42, 1
1, 59007, Note_off_c, 0, 69, 1
1, 59030, Note_on_c, 0, 69, 126
1, 59030, Note_on_c, 1, 54, 127
1, 59079, Note_off_c, 1, 54, 1
1, 59080, Note_off_c, 0, 69, 1
1, 59088, Note_on_c, 0, 71, 124
1, 59088, Note_on_c, 1, 56, 127
1, 59138, Note_off_c, 1, 56, 1
1, 59138, Note_off_c, 0, 74, 1
1, 59145, Note_on_c, 0, 78, 124
1, 59146, Note_on_c, 1, 57, 127
1, 59196, Note_off_c, 1, 57, 1
1, 59196, Note_off_c, 0, 78, 1
1, 59204, Note_on_c, 0, 76, 124
1, 59204, Note_on_c, 1, 56, 127
1, 59254, Note_off_c, 1, 56, 1
1, 59255, Note_off_c, 0, 76, 1
1, 59263, Note_on_c, 0, 75, 124
1, 59264, Note_on_c, 1, 54, 127
1, 59292, Note_off_c, 0, 71, 1
1, 59314, Note_off_c, 1, 54, 1
1, 59314, Note_off_c, 0, 75, 1
1, 59322, Note_on_c, 0, 76, 124
1, 59322, Note_on_c, 1, 52, 127
1, 59373, Note_off_c, 1, 52, 1
1, 59373, Note_off_c, 0, 76, 1
1, 59380, Note_on_c, 0, 71, 124
1, 59381, Note_on_c, 1, 50, 127
1, 59431, Note_off_c, 1, 50, 1
1, 59432, Note_off_c, 0, 71, 1
1, 59439, Note_on_c, 0, 73, 124
1, 59439, Note_on_c, 1, 49, 127
1, 59489, Note_off_c, 1, 49, 1
1, 59490, Note_off_c, 0, 73, 1
1, 59498, Note_on_c, 0, 74, 124
1, 59499, Note_on_c, 2, 47, 127
1, 59550, Note_off_c, 2, 47, 1
1, 59550, Note_off_c, 0, 74, 1
1, 59558, Note_on_c, 0, 73, 124
1, 59558, Note_on_c, 2, 45, 127
1, 59618, Note_on_c, 0, 69, 126
1, 59664, Note_off_c, 2, 45, 1
1, 59671, Note_off_c, 0, 69, 1
1, 59680, Note_on_c, 0, 68, 126
1, 59680, Note_on_c, 1, 50, 127
1, 59717, Note_off_c, 0, 73, 1
1, 59734, Note_off_c, 0, 68, 1
1, 59742, Note_on_c, 0, 71, 124
1, 59743, Note_on_c, 1, 66, 127
1, 59787, Note_off_c, 1, 50, 1
1, 59796, Note_off_c, 1, 66, 1
1, 59796, Note_off_c, 0, 71, 1
1, 59804, Note_on_c, 0, 68, 126
1, 59804, Note_on_c, 1, 64, 127
1, 59805, Note_on_c, 1, 52, 127
1, 59859, Note_off_c, 1, 64, 1
1, 59868, Note_on_c, 1, 62, 127
1, 59924, Note_off_c, 1, 62, 1
1, 59932, Note_on_c, 1, 61, 127
1, 59972, Note_off_c, 0, 68, 1
1, 59990, Note_off_c, 1, 61, 1
1, 59999, Note_on_c, 0, 69, 126
1, 59999, Note_on_c, 1, 59, 127
1, 60032, Note_off_c, 1, 52, 1
1, 60057, Note_off_c, 1, 59, 1
1, 60058, Note_off_c, 0, 69, 1
1, 60066, Note_on_c, 0, 69, 126
1, 60066, Note_on_c, 1, 61, 115
1, 60067, Note_on_c, 2, 45, 119
1, 60823, Note_off_c, 2, 45, 1
1, 60824, Note_off_c, 0, 69, 1
1, 60828, Note_off_c, 1, 61, 1
1, 60828, End_track
0, 0, End_of_file