0, 0, Header, 1, 6, 480
1, 0, Start_track
1, 0, Title_t, "Untitled"
1, 0, Time_signature, 2, 2, 24, 8
1, 0, Key_signature, 0, "major"
1, 0, Tempo, 600000
1, 0, Marker_t, "Beethoven"
1, 960, Tempo, 487804
1, 960, Marker_t, "Sonatine F dur "
1, 1800, Tempo, 500000
1, 1920, Tempo, 487804
1, 1920, Marker_t, "Bunji Hisamori"
1, 2760, Tempo, 495867
1, 2880, Tempo, 487804
1, 2880, Marker_t, "Nov.1998"
1, 3730, Tempo, 588235
1, 3840, Tempo, 535714
1, 3840, Marker_t, "June  1999,   Rev.1"
1, 4560, Tempo, 550458
1, 4800, Tempo, 487804
1, 5640, Tempo, 500000
1, 5760, Tempo, 487804
1, 6610, Tempo, 495867
1, 6720, Tempo, 487804
1, 7560, Tempo, 540540
1, 7680, Tempo, 540540
1, 8160, Tempo, 495867
1, 8580, Tempo, 508474
1, 8640, Tempo, 487804
1, 9080, Tempo, 495867
1, 9120, Tempo, 487804
1, 9560, Tempo, 495867
1, 9600, Tempo, 487804
1, 9960, Tempo, 508474
1, 10080, Tempo, 487804
1, 10500, Tempo, 495867
1, 10560, Tempo, 487804
1, 11000, Tempo, 495867
1, 11040, Tempo, 487804
1, 11480, Tempo, 495867
1, 11520, Tempo, 487804
1, 11880, Tempo, 508474
1, 12000, Tempo, 487804
1, 12420, Tempo, 495867
1, 12480, Tempo, 487804
1, 12920, Tempo, 495867
1, 12960, Tempo, 487804
1, 13380, Tempo, 495867
1, 13440, Tempo, 487804
1, 13880, Tempo, 495867
1, 13920, Tempo, 487804
1, 14280, Tempo, 500000
1, 14400, Tempo, 487804
1, 15300, Tempo, 495867
1, 15360, Tempo, 487804
1, 16200, Tempo, 500000
1, 16320, Tempo, 487804
1, 16740, Tempo, 495867
1, 16980, Tempo, 500000
1, 17160, Tempo, 517241
1, 17280, Tempo, 508474
1, 17400, Tempo, 500000
1, 18060, Tempo, 495867
1, 18120, Tempo, 500000
1, 18240, Tempo, 487804
1, 19080, Tempo, 500000
1, 19200, Tempo, 487804
1, 20040, Tempo, 495867
1, 20160, Tempo, 487804
1, 21010, Tempo, 588235
1, 21120, Tempo, 535714
1, 21840, Tempo, 550458
1, 22080, Tempo, 487804
1, 22920, Tempo, 500000
1, 23040, Tempo, 487804
1, 23890, Tempo, 495867
1, 24000, Tempo, 487804
1, 24840, Tempo, 540540
1, 24960, Tempo, 540540
1, 25440, Tempo, 495867
1, 25860, Tempo, 508474
1, 25920, Tempo, 487804
1, 26360, Tempo, 495867
1, 26400, Tempo, 487804
1, 26840, Tempo, 495867
1, 26880, Tempo, 487804
1, 27240, Tempo, 508474
1, 27360, Tempo, 487804
1, 27780, Tempo, 495867
1, 27840, Tempo, 487804
1, 28280, Tempo, 495867
1, 28320, Tempo, 487804
1, 28760, Tempo, 495867
1, 28800, Tempo, 487804
1, 29160, Tempo, 508474
1, 29280, Tempo, 487804
1, 29700, Tempo, 495867
1, 29760, Tempo, 487804
1, 30200, Tempo, 495867
1, 30240, Tempo, 487804
1, 30660, Tempo, 495867
1, 30720, Tempo, 487804
1, 31160, Tempo, 495867
1, 31200, Tempo, 487804
1, 31560, Tempo, 500000
1, 31680, Tempo, 487804
1, 32580, Tempo, 495867
1, 32640, Tempo, 487804
1, 33480, Tempo, 500000
1, 33600, Tempo, 487804
1, 34020, Tempo, 495867
1, 34260, Tempo, 500000
1, 34440, Tempo, 517241
1, 34560, Tempo, 508474
1, 34680, Tempo, 500000
1, 35340, Tempo, 495867
1, 35400, Tempo, 500000
1, 35520, Tempo, 487804
1, 36360, Tempo, 500000
1, 36480, Tempo, 487804
1, 37320, Tempo, 495867
1, 37440, Tempo, 487804
1, 38290, Tempo, 560747
1, 38400, Tempo, 535714
1, 39120, Tempo, 550458
1, 39360, Tempo, 487804
1, 40200, Tempo, 500000
1, 40320, Tempo, 487804
1, 41160, Tempo, 495867
1, 41280, Tempo, 487804
1, 42130, Tempo, 560747
1, 42240, Tempo, 535714
1, 42960, Tempo, 550458
1, 43200, Tempo, 500000
1, 44100, Tempo, 508474
1, 44280, Tempo, 500000
1, 45060, Tempo, 508474
1, 45120, Tempo, 500000
1, 46020, Tempo, 508474
1, 46200, Tempo, 508474
1, 46920, Tempo, 517241
1, 47040, Tempo, 500000
1, 47940, Tempo, 508474
1, 48120, Tempo, 500000
1, 48900, Tempo, 508474
1, 48960, Tempo, 500000
1, 49860, Tempo, 508474
1, 50020, Tempo, 508474
1, 50760, Tempo, 517241
1, 50990, Tempo, 500000
1, 51730, Tempo, 508474
1, 51960, Tempo, 500000
1, 52674, Tempo, 508474
1, 52910, Tempo, 500000
1, 53650, Tempo, 508474
1, 53870, Tempo, 500000
1, 54600, Tempo, 508474
1, 54720, Tempo, 526315
1, 54840, Tempo, 508474
1, 57000, Tempo, 517241
1, 57127, Tempo, 508474
1, 57435, Tempo, 517241
1, 58200, Tempo, 526315
1, 58320, Tempo, 550458
1, 58560, Tempo, 500000
1, 62100, Tempo, 508474
1, 62280, Tempo, 526315
1, 62880, Tempo, 508474
1, 63240, Tempo, 517241
1, 64200, Tempo, 526315
1, 64320, Tempo, 535714
1, 65030, Tempo, 540540
1, 65152, Tempo, 659340
1, 65280, Tempo, 1818181
1, 65640, Tempo, 2068965
1, 65760, Tempo, 495867
1, 66120, Tempo, 508474
1, 66240, Tempo, 487804
1, 66660, Tempo, 495867
1, 66714, Tempo, 487804
1, 67140, Tempo, 495867
1, 67200, Tempo, 487804
1, 67560, Tempo, 508474
1, 67680, Tempo, 487804
1, 68100, Tempo, 495867
1, 68160, Tempo, 487804
1, 68600, Tempo, 495867
1, 68640, Tempo, 487804
1, 69080, Tempo, 495867
1, 69120, Tempo, 487804
1, 69480, Tempo, 508474
1, 69600, Tempo, 487804
1, 70020, Tempo, 495867
1, 70080, Tempo, 487804
1, 70520, Tempo, 495867
1, 70560, Tempo, 487804
1, 70980, Tempo, 495867
1, 71040, Tempo, 487804
1, 71480, Tempo, 495867
1, 71520, Tempo, 487804
1, 71880, Tempo, 500000
1, 72000, Tempo, 487804
1, 72900, Tempo, 495867
1, 72960, Tempo, 487804
1, 73800, Tempo, 500000
1, 73920, Tempo, 487804
1, 74340, Tempo, 495867
1, 74580, Tempo, 500000
1, 74760, Tempo, 517241
1, 74930, Tempo, 500000
1, 75730, Tempo, 508474
1, 75890, Tempo, 500000
1, 76740, Tempo, 508474
1, 76870, Tempo, 500000
1, 77640, Tempo, 508474
1, 77820, Tempo, 500000
1, 78670, Tempo, 508474
1, 78780, Tempo, 500000
1, 79620, Tempo, 508474
1, 79680, Tempo, 500000
1, 81500, Tempo, 508474
1, 81600, Tempo, 500000
1, 82500, Tempo, 508474
1, 82560, Tempo, 500000
1, 83034, Tempo, 508474
1, 83340, Tempo, 517241
1, 83460, Tempo, 535714
1, 84000, Tempo, 540540
1, 84960, Tempo, 625000
1, 85440, Tempo, 659340
1, 86400, Tempo, 1818181
1, 87360, Tempo, 508474
1, 87360, Marker_t, "Rondo "
1, 88260, Tempo, 517241
1, 88320, Tempo, 508474
1, 90180, Tempo, 517241
1, 90240, Tempo, 508474
1, 92040, Tempo, 517241
1, 92160, Tempo, 508474
1, 93000, Tempo, 517241
1, 93960, Tempo, 517241
1, 94080, Tempo, 408163
1, 94260, Tempo, 2068965
1, 94320, Tempo, 517241
1, 94910, Tempo, 540540
1, 95040, Tempo, 508474
1, 95940, Tempo, 517241
1, 96000, Tempo, 508474
1, 97860, Tempo, 517241
1, 97920, Tempo, 508474
1, 99727, Tempo, 517241
1, 100710, Tempo, 526315
1, 101760, Tempo, 535714
1, 102240, Tempo, 550458
1, 102720, Tempo, 517241
1, 104580, Tempo, 526315
1, 104640, Tempo, 517241
1, 106500, Tempo, 526315
1, 106560, Tempo, 517241
1, 108420, Tempo, 526315
1, 108480, Tempo, 517241
1, 110340, Tempo, 526315
1, 110400, Tempo, 517241
1, 112260, Tempo, 526315
1, 112320, Tempo, 535714
1, 112560, Tempo, 526315
1, 114000, Tempo, 550458
1, 114110, Tempo, 612244
1, 114240, Tempo, 508474
1, 115140, Tempo, 517241
1, 115200, Tempo, 508474
1, 117060, Tempo, 517241
1, 117120, Tempo, 508474
1, 118927, Tempo, 517241
1, 119040, Tempo, 508474
1, 119887, Tempo, 517241
1, 120960, Tempo, 535714
1, 121440, Tempo, 550458
1, 121920, Tempo, 517241
1, 123780, Tempo, 526315
1, 123840, Tempo, 517241
1, 125700, Tempo, 526315
1, 125760, Tempo, 517241
1, 127620, Tempo, 526315
1, 127680, Tempo, 517241
1, 129540, Tempo, 526315
1, 129600, Tempo, 517241
1, 131400, Tempo, 526315
1, 131520, Tempo, 535714
1, 131760, Tempo, 526315
1, 133200, Tempo, 550458
1, 133310, Tempo, 612244
1, 133440, Tempo, 508474
1, 134340, Tempo, 517241
1, 134400, Tempo, 508474
1, 136260, Tempo, 517241
1, 136320, Tempo, 508474
1, 138127, Tempo, 517241
1, 138240, Tempo, 508474
1, 139087, Tempo, 517241
1, 139200, Tempo, 517241
1, 140160, Tempo, 535714
1, 140640, Tempo, 550458
1, 141120, Tempo, 508474
1, 141120, Marker_t, "Minore "
1, 142030, Tempo, 517241
1, 142080, Tempo, 508474
1, 143940, Tempo, 517241
1, 144000, Tempo, 508474
1, 144840, Tempo, 517241
1, 144960, Tempo, 508474
1, 145860, Tempo, 517241
1, 145920, Tempo, 508474
1, 147780, Tempo, 517241
1, 147840, Tempo, 508474
1, 149700, Tempo, 517241
1, 149760, Tempo, 508474
1, 151560, Tempo, 517241
1, 152160, Tempo, 550458
1, 152640, Tempo, 508474
1, 153550, Tempo, 517241
1, 153600, Tempo, 508474
1, 155460, Tempo, 517241
1, 155520, Tempo, 508474
1, 156375, Tempo, 517241
1, 156480, Tempo, 508474
1, 157380, Tempo, 517241
1, 157440, Tempo, 508474
1, 159300, Tempo, 517241
1, 159360, Tempo, 508474
1, 161220, Tempo, 517241
1, 161280, Tempo, 508474
1, 163140, Tempo, 517241
1, 163680, Tempo, 550458
1, 164160, Tempo, 508474
1, 165060, Tempo, 517241
1, 165120, Tempo, 508474
1, 166980, Tempo, 517241
1, 167040, Tempo, 508474
1, 168900, Tempo, 517241
1, 168960, Tempo, 508474
1, 170820, Tempo, 517241
1, 170880, Tempo, 508474
1, 172740, Tempo, 517241
1, 172800, Tempo, 508474
1, 173475, Tempo, 517241
1, 173760, Tempo, 508474
1, 174660, Tempo, 517241
1, 174720, Tempo, 508474
1, 176580, Tempo, 517241
1, 176640, Tempo, 508474
1, 178500, Tempo, 517241
1, 178560, Tempo, 508474
1, 179460, Tempo, 517241
1, 180250, Tempo, 526315
1, 180960, Tempo, 571428
1, 181440, Tempo, 508474
1, 182340, Tempo, 517241
1, 182400, Tempo, 508474
1, 184260, Tempo, 517241
1, 184320, Tempo, 508474
1, 186180, Tempo, 517241
1, 186240, Tempo, 508474
1, 188100, Tempo, 517241
1, 188160, Tempo, 508474
1, 190020, Tempo, 517241
1, 190080, Tempo, 508474
1, 190747, Tempo, 517241
1, 191040, Tempo, 508474
1, 191940, Tempo, 517241
1, 192000, Tempo, 508474
1, 193860, Tempo, 517241
1, 193920, Tempo, 508474
1, 195780, Tempo, 517241
1, 195840, Tempo, 508474
1, 196740, Tempo, 517241
1, 197530, Tempo, 526315
1, 198240, Tempo, 571428
1, 198720, Tempo, 517241
1, 199560, Tempo, 526315
1, 199680, Tempo, 517241
1, 200520, Tempo, 526315
1, 200640, Tempo, 517241
1, 201480, Tempo, 526315
1, 201600, Tempo, 526315
1, 202330, Tempo, 550458
1, 202560, Tempo, 500000
1, 202740, Tempo, 517241
1, 202800, Tempo, 2068965
1, 204000, Tempo, 517241
1, 204240, Tempo, 526315
1, 204480, Tempo, 1071428
1, 204960, Tempo, 517241
1, 205800, Tempo, 526315
1, 205920, Tempo, 535714
1, 206160, Tempo, 952380
1, 206280, Tempo, 508474
1, 206820, Tempo, 517241
1, 207060, Tempo, 526315
1, 207120, Tempo, 550458
1, 207360, Tempo, 508474
1, 208260, Tempo, 517241
1, 208320, Tempo, 508474
1, 210180, Tempo, 517241
1, 210240, Tempo, 508474
1, 212040, Tempo, 517241
1, 212160, Tempo, 508474
1, 213060, Tempo, 517241
1, 213960, Tempo, 517241
1, 214080, Tempo, 408163
1, 214260, Tempo, 2068965
1, 214320, Tempo, 517241
1, 214910, Tempo, 540540
1, 215040, Tempo, 508474
1, 215940, Tempo, 517241
1, 216000, Tempo, 508474
1, 217860, Tempo, 517241
1, 217920, Tempo, 508474
1, 219727, Tempo, 517241
1, 220740, Tempo, 526315
1, 221760, Tempo, 535714
1, 222180, Tempo, 540540
1, 222240, Tempo, 612244
1, 222720, Tempo, 550458
1, 223680, Tempo, 560747
1, 224640, Tempo, 571428
1, 225130, Tempo, 674157
1, 225600, Tempo, 789473
1, 225600, End_track
2, 0, Start_track
2, 0, Title_t, "Unnamed Track"
2, 0, Control_c, 1, 0, 0
2, 0, Control_c, 1, 32, 0
2, 0, Program_c, 1, 0
2, 0, Control_c, 1, 7, 127
2, 0, Pitch_bend_c, 1, 8192
2, 0, Control_c, 1, 1, 0
2, 0, Control_c, 1, 64, 0
2, 0, Control_c, 1, 93, 28
2, 0, Control_c, 1, 91, 100
2, 0, Control_c, 1, 10, 73
2, 480, Control_c, 1, 64, 0
2, 960, Control_c, 1, 64, 0
2, 960, Note_on_c, 1, 77, 83
2, 1440, Note_off_c, 1, 77, 0
2, 1440, Note_on_c, 1, 77, 80
2, 1560, Note_off_c, 1, 77, 0
2, 1680, Note_on_c, 1, 77, 81
2, 1800, Note_off_c, 1, 77, 0
2, 1920, Note_on_c, 1, 77, 84
2, 2040, Note_off_c, 1, 77, 0
2, 2040, Note_on_c, 1, 76, 84
2, 2160, Note_off_c, 1, 76, 0
2, 2160, Note_on_c, 1, 74, 82
2, 2280, Note_off_c, 1, 74, 0
2, 2280, Note_on_c, 1, 72, 81
2, 2400, Note_off_c, 1, 72, 0
2, 2400, Note_on_c, 1, 70, 79
2, 2520, Note_off_c, 1, 70, 0
2, 2520, Note_on_c, 1, 69, 77
2, 2640, Note_off_c, 1, 69, 0
2, 2640, Note_on_c, 1, 67, 75
2, 2760, Note_off_c, 1, 67, 0
2, 2760, Note_on_c, 1, 65, 73
2, 2880, Note_off_c, 1, 65, 0
2, 2880, Note_on_c, 1, 64, 71
2, 3000, Note_off_c, 1, 64, 0
2, 3120, Note_on_c, 1, 65, 67
2, 3240, Note_off_c, 1, 65, 0
2, 3360, Note_on_c, 1, 67, 63
2, 3480, Note_off_c, 1, 67, 0
2, 3600, Note_on_c, 1, 69, 60
2, 3720, Note_off_c, 1, 69, 0
2, 3840, Note_on_c, 1, 72, 56
2, 4320, Note_off_c, 1, 72, 0
2, 4320, Note_on_c, 1, 70, 48
2, 4505, Note_off_c, 1, 70, 0
2, 4800, Note_on_c, 1, 79, 79
2, 5280, Note_off_c, 1, 79, 0
2, 5280, Note_on_c, 1, 79, 78
2, 5400, Note_off_c, 1, 79, 0
2, 5520, Note_on_c, 1, 79, 79
2, 5640, Note_off_c, 1, 79, 0
2, 5760, Note_on_c, 1, 79, 82
2, 5880, Note_off_c, 1, 79, 0
2, 5880, Note_on_c, 1, 77, 79
2, 6000, Note_off_c, 1, 77, 0
2, 6000, Note_on_c, 1, 76, 76
2, 6120, Note_off_c, 1, 76, 0
2, 6120, Note_on_c, 1, 74, 73
2, 6240, Note_off_c, 1, 74, 0
2, 6240, Note_on_c, 1, 72, 70
2, 6360, Note_off_c, 1, 72, 0
2, 6360, Note_on_c, 1, 70, 66
2, 6480, Note_off_c, 1, 70, 0
2, 6480, Note_on_c, 1, 69, 63
2, 6600, Note_off_c, 1, 69, 0
2, 6600, Note_on_c, 1, 67, 60
2, 6720, Note_off_c, 1, 67, 0
2, 6720, Note_on_c, 1, 65, 57
2, 6840, Note_off_c, 1, 65, 0
2, 6960, Note_on_c, 1, 64, 54
2, 7080, Note_off_c, 1, 64, 0
2, 7200, Note_on_c, 1, 65, 52
2, 7325, Note_off_c, 1, 65, 0
2, 7440, Note_on_c, 1, 67, 49
2, 7560, Note_off_c, 1, 67, 0
2, 7680, Note_on_c, 1, 69, 46
2, 8105, Note_off_c, 1, 69, 0
2, 8160, Note_on_c, 1, 72, 57
2, 8280, Note_off_c, 1, 72, 0
2, 8280, Note_on_c, 1, 69, 57
2, 8400, Note_off_c, 1, 69, 0
2, 8400, Note_on_c, 1, 72, 56
2, 8520, Note_off_c, 1, 72, 0
2, 8520, Note_on_c, 1, 69, 56
2, 8640, Note_off_c, 1, 69, 0
2, 8640, Note_on_c, 1, 65, 55
2, 8880, Note_off_c, 1, 65, 0
2, 9080, Note_on_c, 1, 69, 54
2, 9120, Note_on_c, 1, 67, 54
2, 9140, Note_off_c, 1, 69, 0
2, 9245, Note_off_c, 1, 67, 0
2, 9360, Note_on_c, 1, 65, 53
2, 9480, Note_off_c, 1, 65, 0
2, 9560, Note_on_c, 1, 69, 52
2, 9600, Note_on_c, 1, 67, 52
2, 9620, Note_off_c, 1, 69, 0
2, 9720, Note_off_c, 1, 67, 0
2, 9840, Note_on_c, 1, 65, 51
2, 9960, Note_off_c, 1, 65, 0
2, 10080, Note_on_c, 1, 77, 53
2, 10200, Note_off_c, 1, 77, 0
2, 10200, Note_on_c, 1, 72, 53
2, 10320, Note_off_c, 1, 72, 0
2, 10320, Note_on_c, 1, 77, 52
2, 10440, Note_off_c, 1, 77, 0
2, 10440, Note_on_c, 1, 72, 51
2, 10560, Note_off_c, 1, 72, 0
2, 10560, Note_on_c, 1, 69, 51
2, 10795, Note_off_c, 1, 69, 0
2, 11000, Note_on_c, 1, 72, 49
2, 11040, Note_on_c, 1, 70, 48
2, 11060, Note_off_c, 1, 72, 0
2, 11160, Note_off_c, 1, 70, 0
2, 11280, Note_on_c, 1, 69, 47
2, 11400, Note_off_c, 1, 69, 0
2, 11480, Note_on_c, 1, 72, 46
2, 11520, Note_on_c, 1, 70, 46
2, 11540, Note_off_c, 1, 72, 0
2, 11640, Note_off_c, 1, 70, 0
2, 11760, Note_on_c, 1, 69, 45
2, 11875, Note_off_c, 1, 69, 0
2, 12000, Note_on_c, 1, 81, 79
2, 12120, Note_off_c, 1, 81, 0
2, 12120, Note_on_c, 1, 77, 79
2, 12240, Note_off_c, 1, 77, 0
2, 12240, Note_on_c, 1, 81, 78
2, 12360, Note_off_c, 1, 81, 0
2, 12360, Note_on_c, 1, 77, 78
2, 12480, Note_off_c, 1, 77, 0
2, 12480, Note_on_c, 1, 74, 77
2, 12605, Note_off_c, 1, 74, 0
2, 12720, Note_on_c, 1, 74, 76
2, 12840, Note_off_c, 1, 74, 0
2, 12960, Note_on_c, 1, 73, 75
2, 13080, Note_off_c, 1, 73, 0
2, 13080, Note_on_c, 1, 74, 75
2, 13200, Note_off_c, 1, 74, 0
2, 13200, Note_on_c, 1, 76, 74
2, 13320, Note_off_c, 1, 76, 0
2, 13320, Note_on_c, 1, 77, 74
2, 13440, Note_off_c, 1, 77, 0
2, 13440, Note_on_c, 1, 79, 73
2, 13560, Note_off_c, 1, 79, 0
2, 13680, Note_on_c, 1, 79, 72
2, 13805, Note_off_c, 1, 79, 0
2, 13920, Note_on_c, 1, 81, 71
2, 14040, Note_off_c, 1, 81, 0
2, 14040, Note_on_c, 1, 79, 71
2, 14160, Note_off_c, 1, 79, 0
2, 14160, Note_on_c, 1, 77, 70
2, 14280, Note_off_c, 1, 77, 0
2, 14280, Note_on_c, 1, 76, 70
2, 14400, Note_off_c, 1, 76, 0
2, 14400, Note_on_c, 1, 73, 53
2, 14520, Note_off_c, 1, 73, 0
2, 14520, Note_on_c, 1, 74, 53
2, 14640, Note_off_c, 1, 74, 0
2, 14640, Note_on_c, 1, 73, 53
2, 14760, Note_off_c, 1, 73, 0
2, 14760, Note_on_c, 1, 74, 52
2, 14880, Note_off_c, 1, 74, 0
2, 14880, Note_on_c, 1, 73, 52
2, 15000, Note_off_c, 1, 73, 0
2, 15000, Note_on_c, 1, 74, 51
2, 15120, Note_off_c, 1, 74, 0
2, 15120, Note_on_c, 1, 76, 51
2, 15240, Note_off_c, 1, 76, 0
2, 15240, Note_on_c, 1, 77, 51
2, 15360, Note_off_c, 1, 77, 0
2, 15360, Note_on_c, 1, 81, 50
2, 15480, Note_off_c, 1, 81, 0
2, 15480, Note_on_c, 1, 79, 50
2, 15600, Note_off_c, 1, 79, 0
2, 15600, Note_on_c, 1, 81, 49
2, 15720, Note_off_c, 1, 81, 0
2, 15720, Note_on_c, 1, 79, 49
2, 15840, Note_off_c, 1, 79, 0
2, 15840, Note_on_c, 1, 81, 49
2, 15960, Note_off_c, 1, 81, 0
2, 15960, Note_on_c, 1, 79, 48
2, 16080, Note_off_c, 1, 79, 0
2, 16080, Note_on_c, 1, 77, 48
2, 16200, Note_off_c, 1, 77, 0
2, 16200, Note_on_c, 1, 76, 47
2, 16320, Note_off_c, 1, 76, 0
2, 16320, Note_on_c, 1, 74, 47
2, 16560, Note_off_c, 1, 74, 0
2, 16560, Note_on_c, 1, 76, 46
2, 16680, Note_off_c, 1, 76, 0
2, 16680, Note_on_c, 1, 77, 46
2, 16800, Note_off_c, 1, 77, 0
2, 16800, Note_on_c, 1, 72, 45
2, 16925, Note_off_c, 1, 72, 0
2, 17040, Note_on_c, 1, 71, 45
2, 17160, Note_off_c, 1, 71, 0
2, 17280, Note_on_c, 1, 48, 44
2, 17280, Note_on_c, 1, 72, 44
2, 17520, Note_off_c, 1, 72, 0
2, 17520, Note_on_c, 1, 71, 52
2, 17640, Note_off_c, 1, 71, 0
2, 17640, Note_on_c, 1, 72, 56
2, 17760, Note_off_c, 1, 72, 0
2, 17760, Note_off_c, 1, 48, 0
2, 17760, Note_on_c, 1, 73, 60
2, 17880, Note_off_c, 1, 73, 0
2, 17880, Note_on_c, 1, 74, 65
2, 18000, Note_off_c, 1, 74, 0
2, 18000, Note_on_c, 1, 75, 69
2, 18120, Note_off_c, 1, 75, 0
2, 18120, Note_on_c, 1, 76, 73
2, 18240, Control_c, 1, 64, 0
2, 18240, Note_off_c, 1, 76, 0
2, 18240, Note_on_c, 1, 77, 83
2, 18720, Note_off_c, 1, 77, 0
2, 18720, Note_on_c, 1, 77, 80
2, 18840, Note_off_c, 1, 77, 0
2, 18960, Note_on_c, 1, 77, 81
2, 19080, Note_off_c, 1, 77, 0
2, 19200, Note_on_c, 1, 77, 84
2, 19320, Note_off_c, 1, 77, 0
2, 19320, Note_on_c, 1, 76, 84
2, 19440, Note_off_c, 1, 76, 0
2, 19440, Note_on_c, 1, 74, 82
2, 19560, Note_off_c, 1, 74, 0
2, 19560, Note_on_c, 1, 72, 81
2, 19680, Note_off_c, 1, 72, 0
2, 19680, Note_on_c, 1, 70, 79
2, 19800, Note_off_c, 1, 70, 0
2, 19800, Note_on_c, 1, 69, 77
2, 19920, Note_off_c, 1, 69, 0
2, 19920, Note_on_c, 1, 67, 75
2, 20040, Note_off_c, 1, 67, 0
2, 20040, Note_on_c, 1, 65, 73
2, 20160, Note_off_c, 1, 65, 0
2, 20160, Note_on_c, 1, 64, 71
2, 20280, Note_off_c, 1, 64, 0
2, 20400, Note_on_c, 1, 65, 67
2, 20520, Note_off_c, 1, 65, 0
2, 20640, Note_on_c, 1, 67, 63
2, 20760, Note_off_c, 1, 67, 0
2, 20880, Note_on_c, 1, 69, 60
2, 21000, Note_off_c, 1, 69, 0
2, 21120, Note_on_c, 1, 72, 56
2, 21600, Note_off_c, 1, 72, 0
2, 21600, Note_on_c, 1, 70, 48
2, 21785, Note_off_c, 1, 70, 0
2, 22080, Note_on_c, 1, 79, 79
2, 22560, Note_off_c, 1, 79, 0
2, 22560, Note_on_c, 1, 79, 78
2, 22680, Note_off_c, 1, 79, 0
2, 22800, Note_on_c, 1, 79, 79
2, 22920, Note_off_c, 1, 79, 0
2, 23040, Note_on_c, 1, 79, 82
2, 23160, Note_off_c, 1, 79, 0
2, 23160, Note_on_c, 1, 77, 79
2, 23280, Note_off_c, 1, 77, 0
2, 23280, Note_on_c, 1, 76, 76
2, 23400, Note_off_c, 1, 76, 0
2, 23400, Note_on_c, 1, 74, 73
2, 23520, Note_off_c, 1, 74, 0
2, 23520, Note_on_c, 1, 72, 70
2, 23640, Note_off_c, 1, 72, 0
2, 23640, Note_on_c, 1, 70, 66
2, 23760, Note_off_c, 1, 70, 0
2, 23760, Note_on_c, 1, 69, 63
2, 23880, Note_off_c, 1, 69, 0
2, 23880, Note_on_c, 1, 67, 60
2, 24000, Note_off_c, 1, 67, 0
2, 24000, Note_on_c, 1, 65, 57
2, 24120, Note_off_c, 1, 65, 0
2, 24240, Note_on_c, 1, 64, 54
2, 24360, Note_off_c, 1, 64, 0
2, 24480, Note_on_c, 1, 65, 52
2, 24605, Note_off_c, 1, 65, 0
2, 24720, Note_on_c, 1, 67, 49
2, 24840, Note_off_c, 1, 67, 0
2, 24960, Note_on_c, 1, 69, 46
2, 25385, Note_off_c, 1, 69, 0
2, 25440, Note_on_c, 1, 72, 57
2, 25560, Note_off_c, 1, 72, 0
2, 25560, Note_on_c, 1, 69, 57
2, 25680, Note_off_c, 1, 69, 0
2, 25680, Note_on_c, 1, 72, 56
2, 25800, Note_off_c, 1, 72, 0
2, 25800, Note_on_c, 1, 69, 56
2, 25920, Note_off_c, 1, 69, 0
2, 25920, Note_on_c, 1, 65, 55
2, 26160, Note_off_c, 1, 65, 0
2, 26360, Note_on_c, 1, 69, 54
2, 26400, Note_on_c, 1, 67, 54
2, 26420, Note_off_c, 1, 69, 0
2, 26525, Note_off_c, 1, 67, 0
2, 26640, Note_on_c, 1, 65, 53
2, 26760, Note_off_c, 1, 65, 0
2, 26840, Note_on_c, 1, 69, 52
2, 26880, Note_on_c, 1, 67, 52
2, 26900, Note_off_c, 1, 69, 0
2, 27000, Note_off_c, 1, 67, 0
2, 27120, Note_on_c, 1, 65, 51
2, 27240, Note_off_c, 1, 65, 0
2, 27360, Note_on_c, 1, 77, 53
2, 27480, Note_off_c, 1, 77, 0
2, 27480, Note_on_c, 1, 72, 53
2, 27600, Note_off_c, 1, 72, 0
2, 27600, Note_on_c, 1, 77, 52
2, 27720, Note_off_c, 1, 77, 0
2, 27720, Note_on_c, 1, 72, 51
2, 27840, Note_off_c, 1, 72, 0
2, 27840, Note_on_c, 1, 69, 51
2, 28075, Note_off_c, 1, 69, 0
2, 28280, Note_on_c, 1, 72, 49
2, 28320, Note_on_c, 1, 70, 48
2, 28340, Note_off_c, 1, 72, 0
2, 28440, Note_off_c, 1, 70, 0
2, 28560, Note_on_c, 1, 69, 47
2, 28680, Note_off_c, 1, 69, 0
2, 28760, Note_on_c, 1, 72, 46
2, 28800, Note_on_c, 1, 70, 46
2, 28820, Note_off_c, 1, 72, 0
2, 28920, Note_off_c, 1, 70, 0
2, 29040, Note_on_c, 1, 69, 45
2, 29155, Note_off_c, 1, 69, 0
2, 29280, Note_on_c, 1, 81, 79
2, 29400, Note_off_c, 1, 81, 0
2, 29400, Note_on_c, 1, 77, 79
2, 29520, Note_off_c, 1, 77, 0
2, 29520, Note_on_c, 1, 81, 78
2, 29640, Note_off_c, 1, 81, 0
2, 29640, Note_on_c, 1, 77, 78
2, 29760, Note_off_c, 1, 77, 0
2, 29760, Note_on_c, 1, 74, 77
2, 29885, Note_off_c, 1, 74, 0
2, 30000, Note_on_c, 1, 74, 76
2, 30120, Note_off_c, 1, 74, 0
2, 30240, Note_on_c, 1, 73, 75
2, 30360, Note_off_c, 1, 73, 0
2, 30360, Note_on_c, 1, 74, 75
2, 30480, Note_off_c, 1, 74, 0
2, 30480, Note_on_c, 1, 76, 74
2, 30600, Note_off_c, 1, 76, 0
2, 30600, Note_on_c, 1, 77, 74
2, 30720, Note_off_c, 1, 77, 0
2, 30720, Note_on_c, 1, 79, 73
2, 30840, Note_off_c, 1, 79, 0
2, 30960, Note_on_c, 1, 79, 72
2, 31085, Note_off_c, 1, 79, 0
2, 31200, Note_on_c, 1, 81, 71
2, 31320, Note_off_c, 1, 81, 0
2, 31320, Note_on_c, 1, 79, 71
2, 31440, Note_off_c, 1, 79, 0
2, 31440, Note_on_c, 1, 77, 70
2, 31560, Note_off_c, 1, 77, 0
2, 31560, Note_on_c, 1, 76, 70
2, 31680, Note_off_c, 1, 76, 0
2, 31680, Note_on_c, 1, 73, 53
2, 31800, Note_off_c, 1, 73, 0
2, 31800, Note_on_c, 1, 74, 53
2, 31920, Note_off_c, 1, 74, 0
2, 31920, Note_on_c, 1, 73, 53
2, 32040, Note_off_c, 1, 73, 0
2, 32040, Note_on_c, 1, 74, 52
2, 32160, Note_off_c, 1, 74, 0
2, 32160, Note_on_c, 1, 73, 52
2, 32280, Note_off_c, 1, 73, 0
2, 32280, Note_on_c, 1, 74, 51
2, 32400, Note_off_c, 1, 74, 0
2, 32400, Note_on_c, 1, 76, 51
2, 32520, Note_off_c, 1, 76, 0
2, 32520, Note_on_c, 1, 77, 51
2, 32640, Note_off_c, 1, 77, 0
2, 32640, Note_on_c, 1, 81, 50
2, 32760, Note_off_c, 1, 81, 0
2, 32760, Note_on_c, 1, 79, 50
2, 32880, Note_off_c, 1, 79, 0
2, 32880, Note_on_c, 1, 81, 49
2, 33000, Note_off_c, 1, 81, 0
2, 33000, Note_on_c, 1, 79, 49
2, 33120, Note_off_c, 1, 79, 0
2, 33120, Note_on_c, 1, 81, 49
2, 33240, Note_off_c, 1, 81, 0
2, 33240, Note_on_c, 1, 79, 48
2, 33360, Note_off_c, 1, 79, 0
2, 33360, Note_on_c, 1, 77, 48
2, 33480, Note_off_c, 1, 77, 0
2, 33480, Note_on_c, 1, 76, 47
2, 33600, Note_off_c, 1, 76, 0
2, 33600, Note_on_c, 1, 74, 47
2, 33840, Note_off_c, 1, 74, 0
2, 33840, Note_on_c, 1, 76, 46
2, 33960, Note_off_c, 1, 76, 0
2, 33960, Note_on_c, 1, 77, 46
2, 34080, Note_off_c, 1, 77, 0
2, 34080, Note_on_c, 1, 72, 45
2, 34205, Note_off_c, 1, 72, 0
2, 34320, Note_on_c, 1, 71, 45
2, 34440, Note_off_c, 1, 71, 0
2, 34560, Note_on_c, 1, 72, 44
2, 34560, Note_on_c, 1, 48, 44
2, 34800, Note_off_c, 1, 72, 0
2, 34800, Note_on_c, 1, 71, 52
2, 34920, Note_off_c, 1, 71, 0
2, 34920, Note_on_c, 1, 72, 56
2, 35040, Note_off_c, 1, 72, 0
2, 35040, Note_off_c, 1, 48, 0
2, 35040, Note_on_c, 1, 73, 60
2, 35160, Note_off_c, 1, 73, 0
2, 35160, Note_on_c, 1, 74, 65
2, 35280, Note_off_c, 1, 74, 0
2, 35280, Note_on_c, 1, 75, 69
2, 35400, Note_off_c, 1, 75, 0
2, 35400, Note_on_c, 1, 76, 73
2, 35520, Control_c, 1, 64, 0
2, 35520, Note_off_c, 1, 76, 0
2, 35520, Note_on_c, 1, 77, 79
2, 36000, Note_off_c, 1, 77, 0
2, 36000, Note_on_c, 1, 77, 76
2, 36125, Note_off_c, 1, 77, 0
2, 36240, Note_on_c, 1, 77, 78
2, 36360, Note_off_c, 1, 77, 0
2, 36480, Note_on_c, 1, 77, 80
2, 36600, Note_off_c, 1, 77, 0
2, 36600, Note_on_c, 1, 76, 77
2, 36720, Note_off_c, 1, 76, 0
2, 36720, Note_on_c, 1, 74, 74
2, 36840, Note_off_c, 1, 74, 0
2, 36840, Note_on_c, 1, 72, 71
2, 36960, Note_off_c, 1, 72, 0
2, 36960, Note_on_c, 1, 70, 69
2, 37080, Note_off_c, 1, 70, 0
2, 37080, Note_on_c, 1, 69, 66
2, 37200, Note_off_c, 1, 69, 0
2, 37200, Note_on_c, 1, 67, 63
2, 37320, Note_off_c, 1, 67, 0
2, 37320, Note_on_c, 1, 65, 60
2, 37440, Note_off_c, 1, 65, 0
2, 37440, Note_on_c, 1, 63, 59
2, 37615, Note_off_c, 1, 63, 0
2, 37680, Note_on_c, 1, 62, 56
2, 37800, Note_off_c, 1, 62, 0
2, 37800, Note_on_c, 1, 65, 54
2, 37920, Note_off_c, 1, 65, 0
2, 37920, Note_on_c, 1, 63, 53
2, 38100, Note_off_c, 1, 63, 0
2, 38160, Note_on_c, 1, 62, 48
2, 38280, Note_off_c, 1, 62, 0
2, 38280, Note_on_c, 1, 65, 46
2, 38400, Note_off_c, 1, 65, 0
2, 38400, Note_on_c, 1, 63, 43
2, 38825, Note_off_c, 1, 63, 0
2, 39360, Note_on_c, 1, 75, 75
2, 39840, Note_off_c, 1, 75, 0
2, 39840, Note_on_c, 1, 75, 72
2, 39960, Note_off_c, 1, 75, 0
2, 40080, Note_on_c, 1, 75, 73
2, 40205, Note_off_c, 1, 75, 0
2, 40320, Note_on_c, 1, 75, 76
2, 40440, Note_off_c, 1, 75, 0
2, 40440, Note_on_c, 1, 74, 74
2, 40560, Note_off_c, 1, 74, 0
2, 40560, Note_on_c, 1, 72, 72
2, 40680, Note_off_c, 1, 72, 0
2, 40680, Note_on_c, 1, 70, 70
2, 40800, Note_off_c, 1, 70, 0
2, 40800, Note_on_c, 1, 69, 68
2, 40920, Note_off_c, 1, 69, 0
2, 40920, Note_on_c, 1, 67, 66
2, 41040, Note_off_c, 1, 67, 0
2, 41040, Note_on_c, 1, 65, 63
2, 41160, Note_off_c, 1, 65, 0
2, 41160, Note_on_c, 1, 63, 61
2, 41280, Note_off_c, 1, 63, 0
2, 41280, Note_on_c, 1, 62, 59
2, 41460, Note_off_c, 1, 62, 0
2, 41520, Note_on_c, 1, 60, 55
2, 41640, Note_off_c, 1, 60, 0
2, 41640, Note_on_c, 1, 63, 53
2, 41760, Note_off_c, 1, 63, 0
2, 41760, Note_on_c, 1, 62, 50
2, 41945, Note_off_c, 1, 62, 0
2, 42000, Note_on_c, 1, 60, 44
2, 42120, Note_off_c, 1, 60, 0
2, 42120, Note_on_c, 1, 63, 42
2, 42240, Note_off_c, 1, 63, 0
2, 42240, Note_on_c, 1, 62, 40
2, 42660, Note_off_c, 1, 62, 0
2, 43200, Note_on_c, 1, 74, 55
2, 43385, Note_off_c, 1, 74, 0
2, 43440, Note_on_c, 1, 75, 55
2, 43560, Note_off_c, 1, 75, 0
2, 43560, Note_on_c, 1, 73, 55
2, 43680, Note_off_c, 1, 73, 0
2, 43680, Note_on_c, 1, 74, 55
2, 43865, Note_off_c, 1, 74, 0
2, 43920, Note_on_c, 1, 75, 55
2, 44040, Note_off_c, 1, 75, 0
2, 44040, Note_on_c, 1, 73, 55
2, 44160, Note_off_c, 1, 73, 0
2, 44160, Note_on_c, 1, 74, 55
2, 44345, Note_off_c, 1, 74, 0
2, 44400, Note_on_c, 1, 81, 57
2, 44640, Note_off_c, 1, 81, 0
2, 44640, Note_on_c, 1, 78, 56
2, 44880, Note_off_c, 1, 78, 0
2, 44880, Note_on_c, 1, 72, 55
2, 45120, Note_off_c, 1, 72, 0
2, 45120, Note_on_c, 1, 70, 54
2, 45295, Note_off_c, 1, 70, 0
2, 45360, Note_on_c, 1, 69, 53
2, 45480, Note_off_c, 1, 69, 0
2, 45480, Note_on_c, 1, 72, 53
2, 45600, Note_off_c, 1, 72, 0
2, 45600, Note_on_c, 1, 70, 52
2, 45785, Note_off_c, 1, 70, 0
2, 45840, Note_on_c, 1, 69, 51
2, 45960, Note_off_c, 1, 69, 0
2, 45960, Note_on_c, 1, 72, 51
2, 46080, Note_off_c, 1, 72, 0
2, 46080, Note_on_c, 1, 70, 50
2, 46505, Note_off_c, 1, 70, 0
2, 47040, Note_on_c, 1, 72, 52
2, 47215, Note_off_c, 1, 72, 0
2, 47280, Note_on_c, 1, 71, 52
2, 47400, Note_off_c, 1, 71, 0
2, 47400, Note_on_c, 1, 74, 52
2, 47520, Note_off_c, 1, 74, 0
2, 47520, Note_on_c, 1, 72, 52
2, 47700, Note_off_c, 1, 72, 0
2, 47760, Note_on_c, 1, 71, 52
2, 47880, Note_off_c, 1, 71, 0
2, 47880, Note_on_c, 1, 74, 51
2, 48000, Note_off_c, 1, 74, 0
2, 48000, Note_on_c, 1, 72, 51
2, 48185, Note_off_c, 1, 72, 0
2, 48240, Note_on_c, 1, 79, 53
2, 48480, Note_off_c, 1, 79, 0
2, 48480, Note_on_c, 1, 76, 52
2, 48720, Note_off_c, 1, 76, 0
2, 48720, Note_on_c, 1, 70, 52
2, 48960, Note_off_c, 1, 70, 0
2, 48960, Note_on_c, 1, 69, 51
2, 49135, Note_off_c, 1, 69, 0
2, 49200, Note_on_c, 1, 67, 50
2, 49320, Note_off_c, 1, 67, 0
2, 49320, Note_on_c, 1, 70, 50
2, 49440, Note_off_c, 1, 70, 0
2, 49440, Note_on_c, 1, 69, 49
2, 49620, Note_off_c, 1, 69, 0
2, 49680, Note_on_c, 1, 67, 49
2, 49800, Note_off_c, 1, 67, 0
2, 49800, Note_on_c, 1, 70, 48
2, 49920, Note_off_c, 1, 70, 0
2, 49920, Note_on_c, 1, 69, 48
2, 50880, Note_off_c, 1, 69, 0
2, 50880, Note_on_c, 1, 70, 44
2, 51060, Note_off_c, 1, 70, 0
2, 51120, Note_on_c, 1, 77, 49
2, 51360, Note_off_c, 1, 77, 0
2, 51360, Note_on_c, 1, 74, 48
2, 51600, Note_off_c, 1, 74, 0
2, 51600, Note_on_c, 1, 69, 47
2, 51840, Note_off_c, 1, 69, 0
2, 51840, Note_on_c, 1, 67, 46
2, 52800, Note_off_c, 1, 67, 0
2, 52800, Note_on_c, 1, 69, 42
2, 52980, Note_off_c, 1, 69, 0
2, 53040, Note_on_c, 1, 76, 49
2, 53280, Note_off_c, 1, 76, 0
2, 53280, Note_on_c, 1, 73, 47
2, 53520, Note_off_c, 1, 73, 0
2, 53520, Note_on_c, 1, 67, 46
2, 53760, Note_off_c, 1, 67, 0
2, 53760, Note_on_c, 1, 65, 44
2, 54720, Note_off_c, 1, 65, 0
2, 54960, Note_on_c, 1, 65, 49
2, 55200, Note_off_c, 1, 65, 0
2, 55200, Note_on_c, 1, 74, 50
2, 55440, Note_off_c, 1, 74, 0
2, 55440, Note_on_c, 1, 71, 51
2, 55680, Note_off_c, 1, 71, 0
2, 55680, Note_on_c, 1, 77, 52
2, 55920, Note_off_c, 1, 77, 0
2, 55920, Note_on_c, 1, 74, 53
2, 56160, Note_off_c, 1, 74, 0
2, 56160, Note_on_c, 1, 83, 54
2, 56400, Note_off_c, 1, 83, 0
2, 56400, Note_on_c, 1, 77, 55
2, 56640, Note_off_c, 1, 77, 0
2, 56640, Note_on_c, 1, 86, 56
2, 56880, Note_off_c, 1, 86, 0
2, 56880, Note_on_c, 1, 83, 57
2, 57120, Note_off_c, 1, 83, 0
2, 57120, Note_on_c, 1, 89, 58
2, 57360, Note_off_c, 1, 89, 0
2, 57360, Note_on_c, 1, 86, 59
2, 57600, Note_off_c, 1, 86, 0
2, 57600, Note_on_c, 1, 84, 61
2, 57840, Note_off_c, 1, 84, 0
2, 57840, Note_on_c, 1, 83, 62
2, 58080, Note_off_c, 1, 83, 0
2, 58080, Note_on_c, 1, 81, 63
2, 58320, Note_off_c, 1, 81, 0
2, 58320, Note_on_c, 1, 83, 64
2, 58560, Note_off_c, 1, 83, 0
2, 58560, Note_on_c, 1, 84, 65
2, 58800, Note_off_c, 1, 84, 0
2, 59040, Note_on_c, 1, 79, 67
2, 59160, Note_off_c, 1, 79, 0
2, 59160, Note_on_c, 1, 76, 67
2, 59280, Note_off_c, 1, 76, 0
2, 59280, Note_on_c, 1, 79, 68
2, 59400, Note_off_c, 1, 79, 0
2, 59400, Note_on_c, 1, 76, 68
2, 59520, Note_off_c, 1, 76, 0
2, 59520, Note_on_c, 1, 72, 69
2, 59760, Note_off_c, 1, 72, 0
2, 60000, Note_on_c, 1, 84, 71
2, 60120, Note_off_c, 1, 84, 0
2, 60120, Note_on_c, 1, 79, 71
2, 60240, Note_off_c, 1, 79, 0
2, 60240, Note_on_c, 1, 84, 72
2, 60360, Note_off_c, 1, 84, 0
2, 60360, Note_on_c, 1, 79, 72
2, 60480, Note_off_c, 1, 79, 0
2, 60480, Note_on_c, 1, 76, 73
2, 60720, Note_off_c, 1, 76, 0
2, 60960, Note_on_c, 1, 88, 75
2, 61080, Note_off_c, 1, 88, 0
2, 61080, Note_on_c, 1, 84, 75
2, 61200, Note_off_c, 1, 84, 0
2, 61200, Note_on_c, 1, 88, 76
2, 61320, Note_off_c, 1, 88, 0
2, 61320, Note_on_c, 1, 84, 76
2, 61440, Note_off_c, 1, 84, 0
2, 61440, Note_on_c, 1, 83, 77
2, 61680, Note_off_c, 1, 83, 0
2, 61680, Note_on_c, 1, 86, 78
2, 61920, Note_off_c, 1, 86, 0
2, 61920, Note_on_c, 1, 89, 79
2, 62160, Note_off_c, 1, 89, 0
2, 62160, Note_on_c, 1, 83, 80
2, 62400, Note_off_c, 1, 83, 0
2, 62400, Note_on_c, 1, 84, 81
2, 62760, Note_off_c, 1, 84, 0
2, 62880, Note_on_c, 1, 86, 78
2, 63000, Note_off_c, 1, 86, 0
2, 63000, Note_on_c, 1, 82, 77
2, 63120, Note_off_c, 1, 82, 0
2, 63120, Note_on_c, 1, 86, 77
2, 63240, Note_off_c, 1, 86, 0
2, 63240, Note_on_c, 1, 82, 76
2, 63360, Note_off_c, 1, 82, 0
2, 63360, Note_on_c, 1, 79, 76
2, 63720, Note_off_c, 1, 79, 0
2, 63840, Note_on_c, 1, 82, 73
2, 63960, Note_off_c, 1, 82, 0
2, 63960, Note_on_c, 1, 79, 73
2, 64080, Note_off_c, 1, 79, 0
2, 64080, Note_on_c, 1, 82, 72
2, 64200, Note_off_c, 1, 82, 0
2, 64200, Note_on_c, 1, 79, 72
2, 64320, Note_off_c, 1, 79, 0
2, 64320, Note_on_c, 1, 76, 71
2, 64680, Note_off_c, 1, 76, 0
2, 64800, Note_on_c, 1, 79, 69
2, 64920, Note_off_c, 1, 79, 0
2, 64920, Note_on_c, 1, 76, 68
2, 65040, Note_off_c, 1, 76, 0
2, 65040, Note_on_c, 1, 79, 68
2, 65160, Note_off_c, 1, 79, 0
2, 65160, Note_on_c, 1, 76, 67
2, 65280, Note_off_c, 1, 76, 0
2, 65280, Note_on_c, 1, 72, 67
2, 65640, Note_off_c, 1, 72, 0
2, 65760, Note_on_c, 1, 72, 65
2, 65880, Note_off_c, 1, 72, 0
2, 65880, Note_on_c, 1, 69, 65
2, 66000, Note_off_c, 1, 69, 0
2, 66000, Note_on_c, 1, 72, 64
2, 66120, Note_off_c, 1, 72, 0
2, 66120, Note_on_c, 1, 69, 64
2, 66240, Note_off_c, 1, 69, 0
2, 66240, Note_on_c, 1, 65, 63
2, 66480, Note_off_c, 1, 65, 0
2, 66680, Note_on_c, 1, 69, 62
2, 66720, Note_on_c, 1, 67, 62
2, 66740, Note_off_c, 1, 69, 0
2, 66845, Note_off_c, 1, 67, 0
2, 66960, Note_on_c, 1, 65, 61
2, 67075, Note_off_c, 1, 65, 0
2, 67160, Note_on_c, 1, 69, 61
2, 67200, Note_on_c, 1, 67, 61
2, 67220, Note_off_c, 1, 69, 0
2, 67320, Note_off_c, 1, 67, 0
2, 67440, Note_on_c, 1, 65, 60
2, 67560, Note_off_c, 1, 65, 0
2, 67680, Note_on_c, 1, 77, 59
2, 67800, Note_off_c, 1, 77, 0
2, 67800, Note_on_c, 1, 72, 59
2, 67920, Note_off_c, 1, 72, 0
2, 67920, Note_on_c, 1, 77, 58
2, 68040, Note_off_c, 1, 77, 0
2, 68040, Note_on_c, 1, 72, 58
2, 68160, Note_off_c, 1, 72, 0
2, 68160, Note_on_c, 1, 69, 58
2, 68400, Note_off_c, 1, 69, 0
2, 68600, Note_on_c, 1, 72, 56
2, 68640, Note_on_c, 1, 70, 56
2, 68660, Note_off_c, 1, 72, 0
2, 68760, Note_off_c, 1, 70, 0
2, 68880, Note_on_c, 1, 69, 55
2, 68995, Note_off_c, 1, 69, 0
2, 69080, Note_on_c, 1, 72, 55
2, 69120, Note_on_c, 1, 70, 55
2, 69140, Note_off_c, 1, 72, 0
2, 69240, Note_off_c, 1, 70, 0
2, 69360, Note_on_c, 1, 69, 54
2, 69480, Note_off_c, 1, 69, 0
2, 69600, Note_on_c, 1, 81, 79
2, 69720, Note_off_c, 1, 81, 0
2, 69720, Note_on_c, 1, 77, 79
2, 69840, Note_off_c, 1, 77, 0
2, 69840, Note_on_c, 1, 81, 79
2, 69960, Note_off_c, 1, 81, 0
2, 69960, Note_on_c, 1, 77, 79
2, 70080, Note_off_c, 1, 77, 0
2, 70080, Note_on_c, 1, 74, 79
2, 70260, Note_off_c, 1, 74, 0
2, 70320, Note_on_c, 1, 74, 78
2, 70500, Note_off_c, 1, 74, 0
2, 70560, Note_on_c, 1, 73, 78
2, 70680, Note_off_c, 1, 73, 0
2, 70680, Note_on_c, 1, 74, 77
2, 70800, Note_off_c, 1, 74, 0
2, 70800, Note_on_c, 1, 76, 77
2, 70920, Note_off_c, 1, 76, 0
2, 70920, Note_on_c, 1, 77, 77
2, 71040, Note_off_c, 1, 77, 0
2, 71040, Note_on_c, 1, 79, 77
2, 71225, Note_off_c, 1, 79, 0
2, 71280, Note_on_c, 1, 79, 76
2, 71465, Note_off_c, 1, 79, 0
2, 71520, Note_on_c, 1, 86, 76
2, 71640, Note_off_c, 1, 86, 0
2, 71640, Note_on_c, 1, 82, 76
2, 71760, Note_off_c, 1, 82, 0
2, 71760, Note_on_c, 1, 86, 75
2, 71880, Note_off_c, 1, 86, 0
2, 71880, Note_on_c, 1, 82, 75
2, 72000, Note_off_c, 1, 82, 0
2, 72000, Note_on_c, 1, 81, 75
2, 72120, Note_off_c, 1, 81, 0
2, 72120, Note_on_c, 1, 79, 75
2, 72240, Note_off_c, 1, 79, 0
2, 72240, Note_on_c, 1, 81, 75
2, 72360, Note_off_c, 1, 81, 0
2, 72360, Note_on_c, 1, 79, 74
2, 72480, Note_off_c, 1, 79, 0
2, 72480, Note_on_c, 1, 78, 74
2, 72600, Note_off_c, 1, 78, 0
2, 72600, Note_on_c, 1, 79, 74
2, 72720, Note_off_c, 1, 79, 0
2, 72720, Note_on_c, 1, 81, 74
2, 72840, Note_off_c, 1, 81, 0
2, 72840, Note_on_c, 1, 82, 73
2, 72960, Note_off_c, 1, 82, 0
2, 72960, Note_on_c, 1, 86, 73
2, 73080, Note_off_c, 1, 86, 0
2, 73080, Note_on_c, 1, 84, 73
2, 73200, Note_off_c, 1, 84, 0
2, 73200, Note_on_c, 1, 86, 73
2, 73320, Note_off_c, 1, 86, 0
2, 73320, Note_on_c, 1, 84, 73
2, 73440, Note_off_c, 1, 84, 0
2, 73440, Note_on_c, 1, 82, 72
2, 73560, Note_off_c, 1, 82, 0
2, 73560, Note_on_c, 1, 81, 72
2, 73680, Note_off_c, 1, 81, 0
2, 73680, Note_on_c, 1, 79, 72
2, 73800, Note_off_c, 1, 79, 0
2, 73800, Note_on_c, 1, 77, 72
2, 73920, Note_off_c, 1, 77, 0
2, 73920, Note_on_c, 1, 79, 71
2, 74100, Note_off_c, 1, 79, 0
2, 74160, Note_on_c, 1, 81, 71
2, 74280, Note_off_c, 1, 81, 0
2, 74280, Note_on_c, 1, 82, 71
2, 74400, Note_off_c, 1, 82, 0
2, 74400, Note_on_c, 1, 77, 71
2, 74515, Note_off_c, 1, 77, 0
2, 74640, Note_on_c, 1, 76, 69
2, 74760, Note_off_c, 1, 76, 0
2, 74880, Note_on_c, 1, 77, 67
2, 75065, Note_off_c, 1, 77, 0
2, 75120, Note_on_c, 1, 81, 66
2, 75360, Note_off_c, 1, 81, 0
2, 75360, Note_on_c, 1, 77, 60
2, 75600, Note_off_c, 1, 77, 0
2, 75600, Note_on_c, 1, 74, 54
2, 75840, Note_off_c, 1, 74, 0
2, 75840, Note_on_c, 1, 72, 55
2, 76985, Note_off_c, 1, 72, 0
2, 77040, Note_on_c, 1, 81, 52
2, 77280, Note_off_c, 1, 81, 0
2, 77280, Note_on_c, 1, 77, 52
2, 77520, Note_off_c, 1, 77, 0
2, 77520, Note_on_c, 1, 74, 51
2, 77760, Note_off_c, 1, 74, 0
2, 77760, Note_on_c, 1, 72, 51
2, 78905, Note_off_c, 1, 72, 0
2, 78960, Note_on_c, 1, 81, 48
2, 79200, Note_off_c, 1, 81, 0
2, 79200, Note_on_c, 1, 79, 47
2, 79320, Note_off_c, 1, 79, 0
2, 79320, Note_on_c, 1, 77, 47
2, 79440, Note_off_c, 1, 77, 0
2, 79440, Note_on_c, 1, 76, 47
2, 79560, Note_off_c, 1, 76, 0
2, 79560, Note_on_c, 1, 74, 47
2, 79680, Note_off_c, 1, 74, 0
2, 79680, Note_on_c, 1, 72, 46
2, 79800, Note_on_c, 1, 74, 47
2, 79824, Note_off_c, 1, 72, 0
2, 79920, Note_on_c, 1, 72, 48
2, 79944, Note_off_c, 1, 74, 0
2, 80040, Note_on_c, 1, 74, 50
2, 80064, Note_off_c, 1, 72, 0
2, 80160, Note_on_c, 1, 72, 51
2, 80184, Note_off_c, 1, 74, 0
2, 80280, Note_on_c, 1, 74, 52
2, 80304, Note_off_c, 1, 72, 0
2, 80400, Note_on_c, 1, 72, 53
2, 80424, Note_off_c, 1, 74, 0
2, 80520, Note_on_c, 1, 74, 54
2, 80544, Note_off_c, 1, 72, 0
2, 80640, Note_on_c, 1, 72, 56
2, 80664, Note_off_c, 1, 74, 0
2, 80760, Note_on_c, 1, 74, 57
2, 80784, Note_off_c, 1, 72, 0
2, 80880, Note_on_c, 1, 72, 58
2, 80904, Note_off_c, 1, 74, 0
2, 81000, Note_on_c, 1, 74, 59
2, 81024, Note_off_c, 1, 72, 0
2, 81120, Note_on_c, 1, 72, 61
2, 81144, Note_off_c, 1, 74, 0
2, 81240, Note_on_c, 1, 74, 62
2, 81264, Note_off_c, 1, 72, 0
2, 81360, Note_on_c, 1, 72, 63
2, 81384, Note_off_c, 1, 74, 0
2, 81480, Note_on_c, 1, 74, 64
2, 81504, Note_off_c, 1, 72, 0
2, 81600, Note_on_c, 1, 72, 64
2, 81624, Note_off_c, 1, 74, 0
2, 81720, Note_on_c, 1, 74, 66
2, 81744, Note_off_c, 1, 72, 0
2, 81840, Note_on_c, 1, 72, 68
2, 81864, Note_off_c, 1, 74, 0
2, 81960, Note_on_c, 1, 74, 70
2, 81984, Note_off_c, 1, 72, 0
2, 82080, Note_on_c, 1, 72, 72
2, 82104, Note_off_c, 1, 74, 0
2, 82200, Note_on_c, 1, 81, 74
2, 82224, Note_off_c, 1, 72, 0
2, 82320, Note_off_c, 1, 81, 0
2, 82320, Note_on_c, 1, 79, 76
2, 82440, Note_off_c, 1, 79, 0
2, 82440, Note_on_c, 1, 77, 77
2, 82560, Note_off_c, 1, 77, 0
2, 82560, Note_on_c, 1, 76, 79
2, 82680, Note_on_c, 1, 77, 81
2, 82704, Note_off_c, 1, 76, 0
2, 82800, Note_on_c, 1, 76, 83
2, 82824, Note_off_c, 1, 77, 0
2, 82920, Note_on_c, 1, 77, 85
2, 82944, Note_off_c, 1, 76, 0
2, 83040, Note_on_c, 1, 76, 87
2, 83064, Note_off_c, 1, 77, 0
2, 83160, Note_off_c, 1, 76, 0
2, 83160, Note_on_c, 1, 82, 89
2, 83280, Note_off_c, 1, 82, 0
2, 83280, Note_on_c, 1, 81, 91
2, 83400, Note_off_c, 1, 81, 0
2, 83400, Note_on_c, 1, 79, 93
2, 83520, Note_off_c, 1, 79, 0
2, 83520, Note_on_c, 1, 77, 96
2, 84000, Note_off_c, 1, 77, 0
2, 84480, Note_on_c, 1, 88, 94
2, 84960, Note_off_c, 1, 88, 0
2, 85440, Note_on_c, 1, 89, 91
2, 85920, Note_off_c, 1, 89, 0
2, 87360, Control_c, 1, 64, 0
2, 87360, Control_c, 1, 64, 0
2, 87360, Note_on_c, 1, 72, 42
2, 87480, Note_off_c, 1, 72, 0
2, 87600, Note_on_c, 1, 77, 43
2, 87720, Note_off_c, 1, 77, 0
2, 87840, Note_on_c, 1, 71, 43
2, 87960, Note_off_c, 1, 71, 0
2, 88080, Note_on_c, 1, 77, 44
2, 88200, Note_off_c, 1, 77, 0
2, 88320, Note_on_c, 1, 72, 45
2, 89040, Note_off_c, 1, 72, 0
2, 89040, Note_on_c, 1, 73, 54
2, 89280, Note_off_c, 1, 73, 0
2, 89280, Note_on_c, 1, 74, 53
2, 89400, Note_off_c, 1, 74, 0
2, 89520, Note_on_c, 1, 77, 53
2, 89640, Note_off_c, 1, 77, 0
2, 89760, Note_on_c, 1, 73, 55
2, 89880, Note_off_c, 1, 73, 0
2, 90000, Note_on_c, 1, 77, 58
2, 90120, Note_off_c, 1, 77, 0
2, 90240, Note_on_c, 1, 74, 61
2, 90960, Note_off_c, 1, 74, 0
2, 90960, Note_on_c, 1, 79, 67
2, 91020, Note_off_c, 1, 79, 0
2, 91020, Note_on_c, 1, 77, 69
2, 91080, Note_off_c, 1, 77, 0
2, 91080, Note_on_c, 1, 76, 71
2, 91140, Note_off_c, 1, 76, 0
2, 91140, Note_on_c, 1, 77, 73
2, 91200, Note_off_c, 1, 77, 0
2, 91200, Note_on_c, 1, 76, 74
2, 91440, Note_off_c, 1, 76, 0
2, 91440, Note_on_c, 1, 84, 76
2, 91560, Note_off_c, 1, 84, 0
2, 91680, Note_on_c, 1, 84, 79
2, 91800, Note_off_c, 1, 84, 0
2, 91920, Note_on_c, 1, 84, 82
2, 92040, Note_off_c, 1, 84, 0
2, 92160, Note_on_c, 1, 84, 86
2, 92640, Note_off_c, 1, 84, 0
2, 92640, Note_on_c, 1, 81, 82
2, 92760, Note_off_c, 1, 81, 0
2, 92760, Note_on_c, 1, 77, 81
2, 92880, Note_off_c, 1, 77, 0
2, 92880, Note_on_c, 1, 81, 80
2, 93000, Note_off_c, 1, 81, 0
2, 93000, Note_on_c, 1, 84, 79
2, 93120, Note_off_c, 1, 84, 0
2, 93120, Note_on_c, 1, 82, 78
2, 93276, Note_off_c, 1, 82, 0
2, 93360, Note_on_c, 1, 79, 76
2, 93480, Note_off_c, 1, 79, 0
2, 93480, Note_on_c, 1, 82, 75
2, 93600, Note_off_c, 1, 82, 0
2, 93600, Note_on_c, 1, 81, 74
2, 93756, Note_off_c, 1, 81, 0
2, 93840, Note_on_c, 1, 77, 72
2, 93960, Note_off_c, 1, 77, 0
2, 93960, Note_on_c, 1, 81, 71
2, 94080, Note_off_c, 1, 81, 0
2, 94240, Note_on_c, 1, 79, 67
2, 94320, Note_on_c, 1, 81, 65
2, 94335, Note_off_c, 1, 79, 0
2, 94440, Note_off_c, 1, 81, 0
2, 94440, Note_on_c, 1, 79, 62
2, 94560, Note_off_c, 1, 79, 0
2, 94560, Note_on_c, 1, 77, 59
2, 94680, Note_off_c, 1, 77, 0
2, 94680, Note_on_c, 1, 76, 56
2, 94800, Note_off_c, 1, 76, 0
2, 94800, Note_on_c, 1, 74, 54
2, 94920, Note_off_c, 1, 74, 0
2, 94920, Note_on_c, 1, 72, 51
2, 95040, Note_off_c, 1, 72, 0
2, 95040, Note_on_c, 1, 72, 46
2, 95160, Note_off_c, 1, 72, 0
2, 95280, Note_on_c, 1, 77, 48
2, 95400, Note_off_c, 1, 77, 0
2, 95520, Note_on_c, 1, 71, 49
2, 95640, Note_off_c, 1, 71, 0
2, 95760, Note_on_c, 1, 77, 51
2, 95880, Note_off_c, 1, 77, 0
2, 96000, Note_on_c, 1, 72, 52
2, 96720, Note_off_c, 1, 72, 0
2, 96720, Note_on_c, 1, 73, 62
2, 96960, Note_off_c, 1, 73, 0
2, 96960, Note_on_c, 1, 74, 59
2, 97080, Note_off_c, 1, 74, 0
2, 97200, Note_on_c, 1, 77, 61
2, 97320, Note_off_c, 1, 77, 0
2, 97440, Note_on_c, 1, 73, 62
2, 97560, Note_off_c, 1, 73, 0
2, 97680, Note_on_c, 1, 77, 64
2, 97800, Note_off_c, 1, 77, 0
2, 97920, Note_on_c, 1, 74, 66
2, 98640, Note_off_c, 1, 74, 0
2, 98640, Note_on_c, 1, 79, 68
2, 98700, Note_off_c, 1, 79, 0
2, 98700, Note_on_c, 1, 77, 70
2, 98760, Note_off_c, 1, 77, 0
2, 98760, Note_on_c, 1, 76, 71
2, 98820, Note_off_c, 1, 76, 0
2, 98820, Note_on_c, 1, 77, 73
2, 98880, Note_off_c, 1, 77, 0
2, 98880, Note_on_c, 1, 76, 74
2, 99120, Note_off_c, 1, 76, 0
2, 99120, Note_on_c, 1, 84, 75
2, 99240, Note_off_c, 1, 84, 0
2, 99360, Note_on_c, 1, 84, 77
2, 99480, Note_off_c, 1, 84, 0
2, 99600, Note_on_c, 1, 84, 79
2, 99720, Note_off_c, 1, 84, 0
2, 99840, Note_on_c, 1, 84, 83
2, 100320, Note_off_c, 1, 84, 0
2, 100320, Note_on_c, 1, 82, 79
2, 100440, Note_off_c, 1, 82, 0
2, 100440, Note_on_c, 1, 81, 77
2, 100560, Note_off_c, 1, 81, 0
2, 100560, Note_on_c, 1, 79, 76
2, 100680, Note_off_c, 1, 79, 0
2, 100680, Note_on_c, 1, 77, 74
2, 100800, Note_off_c, 1, 77, 0
2, 100800, Note_on_c, 1, 79, 75
2, 100956, Note_off_c, 1, 79, 0
2, 101040, Note_on_c, 1, 79, 71
2, 101160, Note_off_c, 1, 79, 0
2, 101160, Note_on_c, 1, 82, 69
2, 101280, Note_off_c, 1, 82, 0
2, 101280, Note_on_c, 1, 76, 68
2, 101436, Note_off_c, 1, 76, 0
2, 101520, Note_on_c, 1, 76, 64
2, 101640, Note_off_c, 1, 76, 0
2, 101640, Note_on_c, 1, 79, 62
2, 101760, Note_off_c, 1, 79, 0
2, 101760, Note_on_c, 1, 77, 60
2, 102240, Note_off_c, 1, 77, 0
2, 102720, Control_c, 1, 64, 0
2, 102720, Note_on_c, 1, 79, 43
2, 102840, Note_off_c, 1, 79, 0
2, 102960, Note_on_c, 1, 79, 45
2, 103080, Note_off_c, 1, 79, 0
2, 103200, Note_on_c, 1, 78, 47
2, 103320, Note_off_c, 1, 78, 0
2, 103440, Note_on_c, 1, 78, 49
2, 103560, Note_off_c, 1, 78, 0
2, 103680, Note_on_c, 1, 79, 51
2, 103920, Note_off_c, 1, 79, 0
2, 103920, Note_on_c, 1, 81, 49
2, 104040, Note_off_c, 1, 81, 0
2, 104040, Note_on_c, 1, 83, 48
2, 104160, Note_off_c, 1, 83, 0
2, 104160, Note_on_c, 1, 84, 46
2, 104280, Note_off_c, 1, 84, 0
2, 104280, Note_on_c, 1, 83, 45
2, 104400, Note_off_c, 1, 83, 0
2, 104400, Note_on_c, 1, 81, 44
2, 104520, Note_off_c, 1, 81, 0
2, 104520, Note_on_c, 1, 79, 42
2, 104640, Note_off_c, 1, 79, 0
2, 104640, Note_on_c, 1, 77, 42
2, 104760, Note_off_c, 1, 77, 0
2, 104880, Note_on_c, 1, 77, 43
2, 105000, Note_off_c, 1, 77, 0
2, 105120, Note_on_c, 1, 76, 44
2, 105240, Note_off_c, 1, 76, 0
2, 105360, Note_on_c, 1, 76, 46
2, 105480, Note_off_c, 1, 76, 0
2, 105600, Note_on_c, 1, 77, 48
2, 105840, Note_off_c, 1, 77, 0
2, 105840, Note_on_c, 1, 83, 48
2, 105960, Note_off_c, 1, 83, 0
2, 105960, Note_on_c, 1, 84, 47
2, 106080, Note_off_c, 1, 84, 0
2, 106080, Note_on_c, 1, 86, 47
2, 106200, Note_off_c, 1, 86, 0
2, 106200, Note_on_c, 1, 83, 46
2, 106320, Note_off_c, 1, 83, 0
2, 106320, Note_on_c, 1, 79, 45
2, 106440, Note_off_c, 1, 79, 0
2, 106440, Note_on_c, 1, 77, 45
2, 106560, Note_off_c, 1, 77, 0
2, 106560, Note_on_c, 1, 76, 44
2, 106680, Note_off_c, 1, 76, 0
2, 106680, Note_on_c, 1, 79, 45
2, 106800, Note_off_c, 1, 79, 0
2, 106800, Note_on_c, 1, 81, 47
2, 106920, Note_off_c, 1, 81, 0
2, 106920, Note_on_c, 1, 79, 48
2, 107040, Note_off_c, 1, 79, 0
2, 107040, Note_on_c, 1, 84, 49
2, 107160, Note_off_c, 1, 84, 0
2, 107160, Note_on_c, 1, 83, 50
2, 107280, Note_off_c, 1, 83, 0
2, 107280, Note_on_c, 1, 81, 51
2, 107400, Note_off_c, 1, 81, 0
2, 107400, Note_on_c, 1, 79, 52
2, 107520, Note_off_c, 1, 79, 0
2, 107520, Note_on_c, 1, 77, 53
2, 107640, Note_off_c, 1, 77, 0
2, 107640, Note_on_c, 1, 83, 55
2, 107760, Note_off_c, 1, 83, 0
2, 107760, Note_on_c, 1, 86, 56
2, 107880, Note_off_c, 1, 86, 0
2, 107880, Note_on_c, 1, 84, 57
2, 108000, Note_off_c, 1, 84, 0
2, 108000, Note_on_c, 1, 83, 58
2, 108120, Note_off_c, 1, 83, 0
2, 108120, Note_on_c, 1, 81, 59
2, 108240, Note_off_c, 1, 81, 0
2, 108240, Note_on_c, 1, 79, 60
2, 108360, Note_off_c, 1, 79, 0
2, 108360, Note_on_c, 1, 77, 62
2, 108480, Note_off_c, 1, 77, 0
2, 108480, Note_on_c, 1, 76, 63
2, 108600, Note_off_c, 1, 76, 0
2, 108600, Note_on_c, 1, 79, 64
2, 108720, Note_off_c, 1, 79, 0
2, 108720, Note_on_c, 1, 81, 65
2, 108840, Note_off_c, 1, 81, 0
2, 108840, Note_on_c, 1, 79, 66
2, 108960, Note_off_c, 1, 79, 0
2, 108960, Note_on_c, 1, 84, 67
2, 109080, Note_off_c, 1, 84, 0
2, 109080, Note_on_c, 1, 83, 69
2, 109200, Note_off_c, 1, 83, 0
2, 109200, Note_on_c, 1, 81, 70
2, 109320, Note_off_c, 1, 81, 0
2, 109320, Note_on_c, 1, 79, 71
2, 109440, Note_off_c, 1, 79, 0
2, 109440, Note_on_c, 1, 77, 72
2, 109560, Note_off_c, 1, 77, 0
2, 109560, Note_on_c, 1, 83, 73
2, 109680, Note_off_c, 1, 83, 0
2, 109680, Note_on_c, 1, 86, 74
2, 109800, Note_off_c, 1, 86, 0
2, 109800, Note_on_c, 1, 84, 76
2, 109920, Note_off_c, 1, 84, 0
2, 109920, Note_on_c, 1, 83, 77
2, 110040, Note_off_c, 1, 83, 0
2, 110040, Note_on_c, 1, 81, 78
2, 110160, Note_off_c, 1, 81, 0
2, 110160, Note_on_c, 1, 79, 79
2, 110280, Note_off_c, 1, 79, 0
2, 110280, Note_on_c, 1, 77, 80
2, 110400, Note_off_c, 1, 77, 0
2, 110400, Note_on_c, 1, 76, 80
2, 110520, Note_off_c, 1, 76, 0
2, 110520, Note_on_c, 1, 84, 81
2, 110640, Note_off_c, 1, 84, 0
2, 110640, Note_on_c, 1, 79, 81
2, 110760, Note_off_c, 1, 79, 0
2, 110760, Note_on_c, 1, 76, 82
2, 110880, Note_off_c, 1, 76, 0
2, 110880, Note_on_c, 1, 74, 82
2, 111000, Note_off_c, 1, 74, 0
2, 111000, Note_on_c, 1, 81, 83
2, 111120, Note_off_c, 1, 81, 0
2, 111120, Note_on_c, 1, 77, 84
2, 111240, Note_off_c, 1, 77, 0
2, 111240, Note_on_c, 1, 74, 84
2, 111360, Note_off_c, 1, 74, 0
2, 111360, Note_on_c, 1, 72, 87
2, 111480, Note_off_c, 1, 72, 0
2, 111480, Note_on_c, 1, 79, 85
2, 111600, Note_off_c, 1, 79, 0
2, 111600, Note_on_c, 1, 76, 83
2, 111720, Note_off_c, 1, 76, 0
2, 111720, Note_on_c, 1, 72, 81
2, 111840, Note_off_c, 1, 72, 0
2, 111840, Note_on_c, 1, 71, 80
2, 111960, Note_off_c, 1, 71, 0
2, 111960, Note_on_c, 1, 77, 78
2, 112080, Note_off_c, 1, 77, 0
2, 112080, Note_on_c, 1, 74, 76
2, 112200, Note_off_c, 1, 74, 0
2, 112200, Note_on_c, 1, 71, 74
2, 112320, Note_off_c, 1, 71, 0
2, 112320, Note_on_c, 1, 72, 72
2, 112495, Note_off_c, 1, 72, 0
2, 112560, Note_on_c, 1, 60, 67
2, 112680, Note_off_c, 1, 60, 0
2, 112680, Note_on_c, 1, 61, 65
2, 112800, Note_off_c, 1, 61, 0
2, 112800, Note_on_c, 1, 62, 63
2, 112920, Note_off_c, 1, 62, 0
2, 112920, Note_on_c, 1, 63, 61
2, 113040, Note_off_c, 1, 63, 0
2, 113040, Note_on_c, 1, 64, 59
2, 113160, Note_off_c, 1, 64, 0
2, 113160, Note_on_c, 1, 65, 57
2, 113280, Note_off_c, 1, 65, 0
2, 113280, Note_on_c, 1, 66, 55
2, 113400, Note_off_c, 1, 66, 0
2, 113400, Note_on_c, 1, 67, 53
2, 113520, Note_off_c, 1, 67, 0
2, 113520, Note_on_c, 1, 68, 51
2, 113640, Note_off_c, 1, 68, 0
2, 113640, Note_on_c, 1, 69, 49
2, 113760, Note_off_c, 1, 69, 0
2, 113760, Note_on_c, 1, 70, 48
2, 113880, Note_off_c, 1, 70, 0
2, 113880, Note_on_c, 1, 71, 46
2, 114000, Note_off_c, 1, 71, 0
2, 114000, Note_on_c, 1, 72, 44
2, 114120, Note_off_c, 1, 72, 0
2, 114120, Note_on_c, 1, 71, 42
2, 114240, Note_off_c, 1, 71, 0
2, 114240, Note_on_c, 1, 72, 44
2, 114360, Note_off_c, 1, 72, 0
2, 114480, Note_on_c, 1, 77, 46
2, 114600, Note_off_c, 1, 77, 0
2, 114720, Note_on_c, 1, 71, 47
2, 114840, Note_off_c, 1, 71, 0
2, 114960, Note_on_c, 1, 77, 49
2, 115080, Note_off_c, 1, 77, 0
2, 115200, Note_on_c, 1, 72, 51
2, 115920, Note_off_c, 1, 72, 0
2, 115920, Note_on_c, 1, 73, 63
2, 116160, Note_off_c, 1, 73, 0
2, 116160, Note_on_c, 1, 74, 58
2, 116280, Note_off_c, 1, 74, 0
2, 116400, Note_on_c, 1, 77, 59
2, 116520, Note_off_c, 1, 77, 0
2, 116640, Note_on_c, 1, 73, 61
2, 116760, Note_off_c, 1, 73, 0
2, 116880, Note_on_c, 1, 77, 63
2, 117000, Note_off_c, 1, 77, 0
2, 117120, Note_on_c, 1, 74, 65
2, 117840, Note_off_c, 1, 74, 0
2, 117840, Note_on_c, 1, 79, 67
2, 117900, Note_off_c, 1, 79, 0
2, 117900, Note_on_c, 1, 77, 68
2, 117960, Note_off_c, 1, 77, 0
2, 117960, Note_on_c, 1, 76, 70
2, 118020, Note_off_c, 1, 76, 0
2, 118020, Note_on_c, 1, 77, 71
2, 118080, Note_off_c, 1, 77, 0
2, 118080, Note_on_c, 1, 76, 72
2, 118320, Note_off_c, 1, 76, 0
2, 118320, Note_on_c, 1, 84, 74
2, 118440, Note_off_c, 1, 84, 0
2, 118560, Note_on_c, 1, 84, 77
2, 118680, Note_off_c, 1, 84, 0
2, 118800, Note_on_c, 1, 84, 80
2, 118920, Note_off_c, 1, 84, 0
2, 119040, Note_on_c, 1, 84, 83
2, 119520, Note_off_c, 1, 84, 0
2, 119520, Note_on_c, 1, 82, 78
2, 119640, Note_off_c, 1, 82, 0
2, 119640, Note_on_c, 1, 81, 76
2, 119760, Note_off_c, 1, 81, 0
2, 119760, Note_on_c, 1, 79, 75
2, 119880, Note_off_c, 1, 79, 0
2, 119880, Note_on_c, 1, 77, 73
2, 120000, Note_off_c, 1, 77, 0
2, 120000, Note_on_c, 1, 79, 73
2, 120185, Note_off_c, 1, 79, 0
2, 120240, Note_on_c, 1, 79, 69
2, 120360, Note_off_c, 1, 79, 0
2, 120360, Note_on_c, 1, 82, 66
2, 120480, Note_off_c, 1, 82, 0
2, 120480, Note_on_c, 1, 76, 64
2, 120665, Note_off_c, 1, 76, 0
2, 120720, Note_on_c, 1, 76, 60
2, 120840, Note_off_c, 1, 76, 0
2, 120840, Note_on_c, 1, 79, 58
2, 120960, Note_off_c, 1, 79, 0
2, 120960, Note_on_c, 1, 77, 55
2, 121440, Note_off_c, 1, 77, 0
2, 121920, Control_c, 1, 64, 0
2, 121920, Note_on_c, 1, 79, 43
2, 122040, Note_off_c, 1, 79, 0
2, 122160, Note_on_c, 1, 79, 45
2, 122280, Note_off_c, 1, 79, 0
2, 122400, Note_on_c, 1, 78, 47
2, 122520, Note_off_c, 1, 78, 0
2, 122640, Note_on_c, 1, 78, 49
2, 122760, Note_off_c, 1, 78, 0
2, 122880, Note_on_c, 1, 79, 51
2, 123120, Note_off_c, 1, 79, 0
2, 123120, Note_on_c, 1, 81, 49
2, 123240, Note_off_c, 1, 81, 0
2, 123240, Note_on_c, 1, 83, 48
2, 123360, Note_off_c, 1, 83, 0
2, 123360, Note_on_c, 1, 84, 46
2, 123480, Note_off_c, 1, 84, 0
2, 123480, Note_on_c, 1, 83, 45
2, 123600, Note_off_c, 1, 83, 0
2, 123600, Note_on_c, 1, 81, 44
2, 123720, Note_off_c, 1, 81, 0
2, 123720, Note_on_c, 1, 79, 42
2, 123840, Note_off_c, 1, 79, 0
2, 123840, Note_on_c, 1, 77, 42
2, 123960, Note_off_c, 1, 77, 0
2, 124080, Note_on_c, 1, 77, 43
2, 124200, Note_off_c, 1, 77, 0
2, 124320, Note_on_c, 1, 76, 44
2, 124440, Note_off_c, 1, 76, 0
2, 124560, Note_on_c, 1, 76, 46
2, 124680, Note_off_c, 1, 76, 0
2, 124800, Note_on_c, 1, 77, 48
2, 125040, Note_off_c, 1, 77, 0
2, 125040, Note_on_c, 1, 83, 48
2, 125160, Note_off_c, 1, 83, 0
2, 125160, Note_on_c, 1, 84, 47
2, 125280, Note_off_c, 1, 84, 0
2, 125280, Note_on_c, 1, 86, 47
2, 125400, Note_off_c, 1, 86, 0
2, 125400, Note_on_c, 1, 83, 46
2, 125520, Note_off_c, 1, 83, 0
2, 125520, Note_on_c, 1, 79, 45
2, 125640, Note_off_c, 1, 79, 0
2, 125640, Note_on_c, 1, 77, 45
2, 125760, Note_off_c, 1, 77, 0
2, 125760, Note_on_c, 1, 76, 44
2, 125880, Note_off_c, 1, 76, 0
2, 125880, Note_on_c, 1, 79, 45
2, 126000, Note_off_c, 1, 79, 0
2, 126000, Note_on_c, 1, 81, 47
2, 126120, Note_off_c, 1, 81, 0
2, 126120, Note_on_c, 1, 79, 48
2, 126240, Note_off_c, 1, 79, 0
2, 126240, Note_on_c, 1, 84, 49
2, 126360, Note_off_c, 1, 84, 0
2, 126360, Note_on_c, 1, 83, 50
2, 126480, Note_off_c, 1, 83, 0
2, 126480, Note_on_c, 1, 81, 51
2, 126600, Note_off_c, 1, 81, 0
2, 126600, Note_on_c, 1, 79, 52
2, 126720, Note_off_c, 1, 79, 0
2, 126720, Note_on_c, 1, 77, 53
2, 126840, Note_off_c, 1, 77, 0
2, 126840, Note_on_c, 1, 83, 55
2, 126960, Note_off_c, 1, 83, 0
2, 126960, Note_on_c, 1, 86, 56
2, 127080, Note_off_c, 1, 86, 0
2, 127080, Note_on_c, 1, 84, 57
2, 127200, Note_off_c, 1, 84, 0
2, 127200, Note_on_c, 1, 83, 58
2, 127320, Note_off_c, 1, 83, 0
2, 127320, Note_on_c, 1, 81, 59
2, 127440, Note_off_c, 1, 81, 0
2, 127440, Note_on_c, 1, 79, 60
2, 127560, Note_off_c, 1, 79, 0
2, 127560, Note_on_c, 1, 77, 62
2, 127680, Note_off_c, 1, 77, 0
2, 127680, Note_on_c, 1, 76, 63
2, 127800, Note_off_c, 1, 76, 0
2, 127800, Note_on_c, 1, 79, 64
2, 127920, Note_off_c, 1, 79, 0
2, 127920, Note_on_c, 1, 81, 65
2, 128040, Note_off_c, 1, 81, 0
2, 128040, Note_on_c, 1, 79, 66
2, 128160, Note_off_c, 1, 79, 0
2, 128160, Note_on_c, 1, 84, 67
2, 128280, Note_off_c, 1, 84, 0
2, 128280, Note_on_c, 1, 83, 69
2, 128400, Note_off_c, 1, 83, 0
2, 128400, Note_on_c, 1, 81, 70
2, 128520, Note_off_c, 1, 81, 0
2, 128520, Note_on_c, 1, 79, 71
2, 128640, Note_off_c, 1, 79, 0
2, 128640, Note_on_c, 1, 77, 72
2, 128760, Note_off_c, 1, 77, 0
2, 128760, Note_on_c, 1, 83, 73
2, 128880, Note_off_c, 1, 83, 0
2, 128880, Note_on_c, 1, 86, 74
2, 129000, Note_off_c, 1, 86, 0
2, 129000, Note_on_c, 1, 84, 76
2, 129120, Note_off_c, 1, 84, 0
2, 129120, Note_on_c, 1, 83, 77
2, 129240, Note_off_c, 1, 83, 0
2, 129240, Note_on_c, 1, 81, 78
2, 129360, Note_off_c, 1, 81, 0
2, 129360, Note_on_c, 1, 79, 79
2, 129480, Note_off_c, 1, 79, 0
2, 129480, Note_on_c, 1, 77, 80
2, 129600, Note_off_c, 1, 77, 0
2, 129600, Note_on_c, 1, 76, 80
2, 129720, Note_off_c, 1, 76, 0
2, 129720, Note_on_c, 1, 84, 81
2, 129840, Note_off_c, 1, 84, 0
2, 129840, Note_on_c, 1, 79, 81
2, 129960, Note_off_c, 1, 79, 0
2, 129960, Note_on_c, 1, 76, 82
2, 130080, Note_off_c, 1, 76, 0
2, 130080, Note_on_c, 1, 74, 82
2, 130200, Note_off_c, 1, 74, 0
2, 130200, Note_on_c, 1, 81, 83
2, 130320, Note_off_c, 1, 81, 0
2, 130320, Note_on_c, 1, 77, 84
2, 130440, Note_off_c, 1, 77, 0
2, 130440, Note_on_c, 1, 74, 84
2, 130560, Note_off_c, 1, 74, 0
2, 130560, Note_on_c, 1, 72, 87
2, 130680, Note_off_c, 1, 72, 0
2, 130680, Note_on_c, 1, 79, 85
2, 130800, Note_off_c, 1, 79, 0
2, 130800, Note_on_c, 1, 76, 83
2, 130920, Note_off_c, 1, 76, 0
2, 130920, Note_on_c, 1, 72, 81
2, 131040, Note_off_c, 1, 72, 0
2, 131040, Note_on_c, 1, 71, 80
2, 131160, Note_off_c, 1, 71, 0
2, 131160, Note_on_c, 1, 77, 78
2, 131280, Note_off_c, 1, 77, 0
2, 131280, Note_on_c, 1, 74, 76
2, 131400, Note_off_c, 1, 74, 0
2, 131400, Note_on_c, 1, 71, 74
2, 131520, Note_off_c, 1, 71, 0
2, 131520, Note_on_c, 1, 72, 72
2, 131695, Note_off_c, 1, 72, 0
2, 131760, Note_on_c, 1, 60, 67
2, 131880, Note_off_c, 1, 60, 0
2, 131880, Note_on_c, 1, 61, 65
2, 132000, Note_off_c, 1, 61, 0
2, 132000, Note_on_c, 1, 62, 63
2, 132120, Note_off_c, 1, 62, 0
2, 132120, Note_on_c, 1, 63, 61
2, 132240, Note_off_c, 1, 63, 0
2, 132240, Note_on_c, 1, 64, 59
2, 132360, Note_off_c, 1, 64, 0
2, 132360, Note_on_c, 1, 65, 57
2, 132480, Note_off_c, 1, 65, 0
2, 132480, Note_on_c, 1, 66, 55
2, 132600, Note_off_c, 1, 66, 0
2, 132600, Note_on_c, 1, 67, 53
2, 132720, Note_off_c, 1, 67, 0
2, 132720, Note_on_c, 1, 68, 51
2, 132840, Note_off_c, 1, 68, 0
2, 132840, Note_on_c, 1, 69, 49
2, 132960, Note_off_c, 1, 69, 0
2, 132960, Note_on_c, 1, 70, 48
2, 133080, Note_off_c, 1, 70, 0
2, 133080, Note_on_c, 1, 71, 46
2, 133200, Note_off_c, 1, 71, 0
2, 133200, Note_on_c, 1, 72, 44
2, 133320, Note_off_c, 1, 72, 0
2, 133320, Note_on_c, 1, 71, 42
2, 133440, Note_off_c, 1, 71, 0
2, 133440, Note_on_c, 1, 72, 44
2, 133560, Note_off_c, 1, 72, 0
2, 133680, Note_on_c, 1, 77, 46
2, 133800, Note_off_c, 1, 77, 0
2, 133920, Note_on_c, 1, 71, 47
2, 134040, Note_off_c, 1, 71, 0
2, 134160, Note_on_c, 1, 77, 49
2, 134280, Note_off_c, 1, 77, 0
2, 134400, Note_on_c, 1, 72, 51
2, 135120, Note_off_c, 1, 72, 0
2, 135120, Note_on_c, 1, 73, 63
2, 135360, Note_off_c, 1, 73, 0
2, 135360, Note_on_c, 1, 74, 58
2, 135480, Note_off_c, 1, 74, 0
2, 135600, Note_on_c, 1, 77, 59
2, 135720, Note_off_c, 1, 77, 0
2, 135840, Note_on_c, 1, 73, 61
2, 135960, Note_off_c, 1, 73, 0
2, 136080, Note_on_c, 1, 77, 63
2, 136200, Note_off_c, 1, 77, 0
2, 136320, Note_on_c, 1, 74, 65
2, 137040, Note_off_c, 1, 74, 0
2, 137040, Note_on_c, 1, 79, 67
2, 137100, Note_off_c, 1, 79, 0
2, 137100, Note_on_c, 1, 77, 68
2, 137160, Note_off_c, 1, 77, 0
2, 137160, Note_on_c, 1, 76, 70
2, 137220, Note_off_c, 1, 76, 0
2, 137220, Note_on_c, 1, 77, 71
2, 137280, Note_off_c, 1, 77, 0
2, 137280, Note_on_c, 1, 76, 72
2, 137520, Note_off_c, 1, 76, 0
2, 137520, Note_on_c, 1, 84, 74
2, 137640, Note_off_c, 1, 84, 0
2, 137760, Note_on_c, 1, 84, 77
2, 137880, Note_off_c, 1, 84, 0
2, 138000, Note_on_c, 1, 84, 80
2, 138120, Note_off_c, 1, 84, 0
2, 138240, Note_on_c, 1, 84, 83
2, 138720, Note_off_c, 1, 84, 0
2, 138720, Note_on_c, 1, 82, 78
2, 138840, Note_off_c, 1, 82, 0
2, 138840, Note_on_c, 1, 81, 76
2, 138960, Note_off_c, 1, 81, 0
2, 138960, Note_on_c, 1, 79, 75
2, 139080, Note_off_c, 1, 79, 0
2, 139080, Note_on_c, 1, 77, 73
2, 139200, Note_off_c, 1, 77, 0
2, 139200, Note_on_c, 1, 79, 73
2, 139385, Note_off_c, 1, 79, 0
2, 139440, Note_on_c, 1, 79, 69
2, 139560, Note_off_c, 1, 79, 0
2, 139560, Note_on_c, 1, 82, 66
2, 139680, Note_off_c, 1, 82, 0
2, 139680, Note_on_c, 1, 76, 64
2, 139865, Note_off_c, 1, 76, 0
2, 139920, Note_on_c, 1, 76, 60
2, 140040, Note_off_c, 1, 76, 0
2, 140040, Note_on_c, 1, 79, 58
2, 140160, Note_off_c, 1, 79, 0
2, 140160, Note_on_c, 1, 77, 55
2, 140640, Note_off_c, 1, 77, 0
2, 141120, Control_c, 1, 64, 0
2, 141120, Note_on_c, 1, 81, 46
2, 141600, Note_off_c, 1, 81, 0
2, 141600, Note_on_c, 1, 82, 49
2, 141840, Note_off_c, 1, 82, 0
2, 141840, Note_on_c, 1, 81, 50
2, 142080, Note_off_c, 1, 81, 0
2, 142080, Note_on_c, 1, 81, 52
2, 142560, Note_off_c, 1, 81, 0
2, 142560, Note_on_c, 1, 73, 48
2, 142716, Note_off_c, 1, 73, 0
2, 142800, Note_on_c, 1, 74, 49
2, 142956, Note_off_c, 1, 74, 0
2, 143040, Note_on_c, 1, 76, 51
2, 143280, Note_off_c, 1, 76, 0
2, 143280, Note_on_c, 1, 73, 52
2, 143520, Note_off_c, 1, 73, 0
2, 143520, Note_on_c, 1, 69, 54
2, 143760, Note_off_c, 1, 69, 0
2, 143760, Note_on_c, 1, 81, 56
2, 144000, Note_off_c, 1, 81, 0
2, 144000, Note_on_c, 1, 79, 58
2, 144480, Note_off_c, 1, 79, 0
2, 144480, Note_on_c, 1, 77, 51
2, 144905, Note_off_c, 1, 77, 0
2, 144960, Note_on_c, 1, 81, 47
2, 145200, Note_off_c, 1, 81, 0
2, 145200, Note_on_c, 1, 77, 49
2, 145440, Note_off_c, 1, 77, 0
2, 145440, Note_on_c, 1, 74, 51
2, 145680, Note_off_c, 1, 74, 0
2, 145680, Note_on_c, 1, 86, 54
2, 145920, Note_off_c, 1, 86, 0
2, 145920, Note_on_c, 1, 82, 59
2, 146820, Note_off_c, 1, 82, 0
2, 146880, Note_on_c, 1, 81, 56
2, 147120, Note_off_c, 1, 81, 0
2, 147120, Note_on_c, 1, 77, 59
2, 147360, Note_off_c, 1, 77, 0
2, 147360, Note_on_c, 1, 74, 63
2, 147600, Note_off_c, 1, 74, 0
2, 147600, Note_on_c, 1, 86, 66
2, 147840, Note_off_c, 1, 86, 0
2, 147840, Note_on_c, 1, 82, 70
2, 148745, Note_off_c, 1, 82, 0
2, 148800, Note_on_c, 1, 81, 74
2, 149040, Note_off_c, 1, 81, 0
2, 149040, Note_on_c, 1, 77, 76
2, 149280, Note_off_c, 1, 77, 0
2, 149280, Note_on_c, 1, 74, 78
2, 149520, Note_off_c, 1, 74, 0
2, 149520, Note_on_c, 1, 86, 81
2, 149760, Note_off_c, 1, 86, 0
2, 149760, Note_on_c, 1, 84, 86
2, 150000, Note_off_c, 1, 84, 0
2, 150000, Note_on_c, 1, 82, 83
2, 150156, Note_off_c, 1, 82, 0
2, 150240, Note_on_c, 1, 82, 79
2, 150480, Note_off_c, 1, 82, 0
2, 150480, Note_on_c, 1, 81, 76
2, 150636, Note_off_c, 1, 81, 0
2, 150720, Note_on_c, 1, 81, 72
2, 150960, Note_off_c, 1, 81, 0
2, 150960, Note_on_c, 1, 79, 69
2, 151116, Note_off_c, 1, 79, 0
2, 151200, Note_on_c, 1, 79, 65
2, 151440, Note_off_c, 1, 79, 0
2, 151440, Note_on_c, 1, 77, 62
2, 151596, Note_off_c, 1, 77, 0
2, 151680, Note_on_c, 1, 77, 58
2, 152160, Note_off_c, 1, 77, 0
2, 152160, Note_on_c, 1, 76, 48
2, 152400, Note_off_c, 1, 76, 0
2, 152640, Control_c, 1, 64, 0
2, 152640, Note_on_c, 1, 81, 46
2, 153120, Note_off_c, 1, 81, 0
2, 153120, Note_on_c, 1, 82, 49
2, 153360, Note_off_c, 1, 82, 0
2, 153360, Note_on_c, 1, 81, 50
2, 153600, Note_off_c, 1, 81, 0
2, 153600, Note_on_c, 1, 81, 52
2, 154080, Note_off_c, 1, 81, 0
2, 154080, Note_on_c, 1, 73, 48
2, 154236, Note_off_c, 1, 73, 0
2, 154320, Note_on_c, 1, 74, 49
2, 154476, Note_off_c, 1, 74, 0
2, 154560, Note_on_c, 1, 76, 51
2, 154800, Note_off_c, 1, 76, 0
2, 154800, Note_on_c, 1, 73, 52
2, 155040, Note_off_c, 1, 73, 0
2, 155040, Note_on_c, 1, 69, 54
2, 155280, Note_off_c, 1, 69, 0
2, 155280, Note_on_c, 1, 81, 56
2, 155520, Note_off_c, 1, 81, 0
2, 155520, Note_on_c, 1, 79, 58
2, 156000, Note_off_c, 1, 79, 0
2, 156000, Note_on_c, 1, 77, 51
2, 156425, Note_off_c, 1, 77, 0
2, 156480, Note_on_c, 1, 81, 47
2, 156720, Note_off_c, 1, 81, 0
2, 156720, Note_on_c, 1, 77, 49
2, 156960, Note_off_c, 1, 77, 0
2, 156960, Note_on_c, 1, 74, 51
2, 157200, Note_off_c, 1, 74, 0
2, 157200, Note_on_c, 1, 86, 54
2, 157440, Note_off_c, 1, 86, 0
2, 157440, Note_on_c, 1, 82, 59
2, 158340, Note_off_c, 1, 82, 0
2, 158400, Note_on_c, 1, 81, 56
2, 158640, Note_off_c, 1, 81, 0
2, 158640, Note_on_c, 1, 77, 59
2, 158880, Note_off_c, 1, 77, 0
2, 158880, Note_on_c, 1, 74, 63
2, 159120, Note_off_c, 1, 74, 0
2, 159120, Note_on_c, 1, 86, 66
2, 159360, Note_off_c, 1, 86, 0
2, 159360, Note_on_c, 1, 82, 70
2, 160265, Note_off_c, 1, 82, 0
2, 160320, Note_on_c, 1, 81, 74
2, 160560, Note_off_c, 1, 81, 0
2, 160560, Note_on_c, 1, 77, 76
2, 160800, Note_off_c, 1, 77, 0
2, 160800, Note_on_c, 1, 74, 78
2, 161040, Note_off_c, 1, 74, 0
2, 161040, Note_on_c, 1, 86, 81
2, 161280, Note_off_c, 1, 86, 0
2, 161280, Note_on_c, 1, 84, 86
2, 161520, Note_off_c, 1, 84, 0
2, 161520, Note_on_c, 1, 82, 83
2, 161676, Note_off_c, 1, 82, 0
2, 161760, Note_on_c, 1, 82, 79
2, 162000, Note_off_c, 1, 82, 0
2, 162000, Note_on_c, 1, 81, 76
2, 162156, Note_off_c, 1, 81, 0
2, 162240, Note_on_c, 1, 81, 72
2, 162480, Note_off_c, 1, 81, 0
2, 162480, Note_on_c, 1, 79, 69
2, 162636, Note_off_c, 1, 79, 0
2, 162720, Note_on_c, 1, 79, 65
2, 162960, Note_off_c, 1, 79, 0
2, 162960, Note_on_c, 1, 77, 62
2, 163116, Note_off_c, 1, 77, 0
2, 163200, Note_on_c, 1, 77, 58
2, 163680, Note_off_c, 1, 77, 0
2, 163680, Note_on_c, 1, 76, 48
2, 163920, Note_off_c, 1, 76, 0
2, 164160, Control_c, 1, 64, 0
2, 164160, Note_on_c, 1, 81, 47
2, 164640, Note_off_c, 1, 81, 0
2, 164640, Note_on_c, 1, 82, 50
2, 164880, Note_off_c, 1, 82, 0
2, 164880, Note_on_c, 1, 81, 52
2, 165120, Note_off_c, 1, 81, 0
2, 165120, Note_on_c, 1, 84, 57
2, 166020, Note_off_c, 1, 84, 0
2, 166080, Note_on_c, 1, 77, 45
2, 166560, Note_off_c, 1, 77, 0
2, 166560, Note_on_c, 1, 79, 48
2, 166800, Note_off_c, 1, 79, 0
2, 166800, Note_on_c, 1, 77, 50
2, 167040, Note_off_c, 1, 77, 0
2, 167040, Note_on_c, 1, 81, 53
2, 167940, Note_off_c, 1, 81, 0
2, 168000, Note_on_c, 1, 86, 64
2, 168480, Note_off_c, 1, 86, 0
2, 168480, Note_on_c, 1, 86, 68
2, 168960, Note_off_c, 1, 86, 0
2, 168960, Note_on_c, 1, 84, 73
2, 169440, Note_off_c, 1, 84, 0
2, 169440, Note_on_c, 1, 84, 64
2, 169875, Note_off_c, 1, 84, 0
2, 169920, Note_on_c, 1, 82, 59
2, 170400, Note_off_c, 1, 82, 0
2, 170400, Note_on_c, 1, 82, 63
2, 170880, Note_off_c, 1, 82, 0
2, 170880, Note_on_c, 1, 81, 67
2, 171360, Note_off_c, 1, 81, 0
2, 171360, Note_on_c, 1, 81, 63
2, 171787, Note_off_c, 1, 81, 0
2, 171840, Note_on_c, 1, 79, 78
2, 172200, Note_off_c, 1, 79, 0
2, 172320, Note_on_c, 1, 77, 82
2, 172800, Note_off_c, 1, 77, 0
2, 172800, Note_on_c, 1, 76, 87
2, 173040, Note_on_c, 1, 73, 78
2, 173160, Note_off_c, 1, 76, 0
2, 173280, Note_off_c, 1, 73, 0
2, 173280, Note_on_c, 1, 69, 70
2, 173520, Note_off_c, 1, 69, 0
2, 173520, Note_on_c, 1, 81, 40
2, 173710, Note_off_c, 1, 81, 0
2, 173760, Note_on_c, 1, 81, 42
2, 174240, Note_off_c, 1, 81, 0
2, 174240, Note_on_c, 1, 82, 46
2, 174480, Note_off_c, 1, 82, 0
2, 174480, Note_on_c, 1, 81, 47
2, 174720, Note_off_c, 1, 81, 0
2, 174720, Note_on_c, 1, 81, 52
2, 175200, Note_off_c, 1, 81, 0
2, 175200, Note_on_c, 1, 73, 47
2, 175385, Note_off_c, 1, 73, 0
2, 175440, Note_on_c, 1, 74, 45
2, 175625, Note_off_c, 1, 74, 0
2, 175680, Note_on_c, 1, 76, 45
2, 175920, Note_off_c, 1, 76, 0
2, 175920, Note_on_c, 1, 73, 48
2, 176160, Note_off_c, 1, 73, 0
2, 176160, Note_on_c, 1, 69, 50
2, 176400, Note_off_c, 1, 69, 0
2, 176400, Note_on_c, 1, 81, 53
2, 176640, Note_off_c, 1, 81, 0
2, 176640, Note_on_c, 1, 79, 55
2, 177120, Note_off_c, 1, 79, 0
2, 177120, Note_on_c, 1, 77, 48
2, 177540, Note_off_c, 1, 77, 0
2, 177600, Note_on_c, 1, 74, 60
2, 178080, Note_off_c, 1, 74, 0
2, 178080, Note_on_c, 1, 86, 65
2, 178320, Note_off_c, 1, 86, 0
2, 178320, Note_on_c, 1, 81, 67
2, 178560, Note_off_c, 1, 81, 0
2, 178560, Note_on_c, 1, 82, 73
2, 179040, Note_off_c, 1, 82, 0
2, 179040, Note_on_c, 1, 79, 69
2, 179280, Note_off_c, 1, 79, 0
2, 179280, Note_on_c, 1, 76, 68
2, 179520, Note_off_c, 1, 76, 0
2, 179520, Note_on_c, 1, 77, 81
2, 179760, Note_off_c, 1, 77, 0
2, 179760, Note_on_c, 1, 81, 78
2, 180000, Note_off_c, 1, 81, 0
2, 180000, Note_on_c, 1, 79, 76
2, 180240, Note_off_c, 1, 79, 0
2, 180240, Note_on_c, 1, 76, 73
2, 180480, Note_off_c, 1, 76, 0
2, 180480, Note_on_c, 1, 74, 70
2, 180960, Note_off_c, 1, 74, 0
2, 181440, Control_c, 1, 64, 0
2, 181440, Note_on_c, 1, 81, 47
2, 181920, Note_off_c, 1, 81, 0
2, 181920, Note_on_c, 1, 82, 50
2, 182160, Note_off_c, 1, 82, 0
2, 182160, Note_on_c, 1, 81, 52
2, 182400, Note_off_c, 1, 81, 0
2, 182400, Note_on_c, 1, 84, 57
2, 183300, Note_off_c, 1, 84, 0
2, 183360, Note_on_c, 1, 77, 45
2, 183840, Note_off_c, 1, 77, 0
2, 183840, Note_on_c, 1, 79, 48
2, 184080, Note_off_c, 1, 79, 0
2, 184080, Note_on_c, 1, 77, 50
2, 184320, Note_off_c, 1, 77, 0
2, 184320, Note_on_c, 1, 81, 53
2, 185220, Note_off_c, 1, 81, 0
2, 185280, Note_on_c, 1, 86, 64
2, 185760, Note_off_c, 1, 86, 0
2, 185760, Note_on_c, 1, 86, 68
2, 186240, Note_off_c, 1, 86, 0
2, 186240, Note_on_c, 1, 84, 73
2, 186720, Note_off_c, 1, 84, 0
2, 186720, Note_on_c, 1, 84, 64
2, 187155, Note_off_c, 1, 84, 0
2, 187200, Note_on_c, 1, 82, 59
2, 187680, Note_off_c, 1, 82, 0
2, 187680, Note_on_c, 1, 82, 63
2, 188160, Note_off_c, 1, 82, 0
2, 188160, Note_on_c, 1, 81, 67
2, 188640, Note_off_c, 1, 81, 0
2, 188640, Note_on_c, 1, 81, 63
2, 189067, Note_off_c, 1, 81, 0
2, 189120, Note_on_c, 1, 79, 78
2, 189480, Note_off_c, 1, 79, 0
2, 189600, Note_on_c, 1, 77, 82
2, 189840, Note_off_c, 1, 77, 0
2, 189840, Note_on_c, 1, 74, 85
2, 190080, Note_off_c, 1, 74, 0
2, 190080, Note_on_c, 1, 76, 87
2, 190320, Note_on_c, 1, 73, 78
2, 190440, Note_off_c, 1, 76, 0
2, 190560, Note_off_c, 1, 73, 0
2, 190560, Note_on_c, 1, 69, 70
2, 190800, Note_off_c, 1, 69, 0
2, 190800, Note_on_c, 1, 81, 40
2, 190990, Note_off_c, 1, 81, 0
2, 191040, Note_on_c, 1, 81, 42
2, 191520, Note_off_c, 1, 81, 0
2, 191520, Note_on_c, 1, 82, 46
2, 191760, Note_off_c, 1, 82, 0
2, 191760, Note_on_c, 1, 81, 47
2, 192000, Note_off_c, 1, 81, 0
2, 192000, Note_on_c, 1, 81, 52
2, 192480, Note_off_c, 1, 81, 0
2, 192480, Note_on_c, 1, 73, 47
2, 192665, Note_off_c, 1, 73, 0
2, 192720, Note_on_c, 1, 74, 45
2, 192905, Note_off_c, 1, 74, 0
2, 192960, Note_on_c, 1, 76, 45
2, 193200, Note_off_c, 1, 76, 0
2, 193200, Note_on_c, 1, 73, 48
2, 193440, Note_off_c, 1, 73, 0
2, 193440, Note_on_c, 1, 69, 50
2, 193680, Note_off_c, 1, 69, 0
2, 193680, Note_on_c, 1, 81, 53
2, 193920, Note_off_c, 1, 81, 0
2, 193920, Note_on_c, 1, 79, 55
2, 194400, Note_off_c, 1, 79, 0
2, 194400, Note_on_c, 1, 77, 48
2, 194820, Note_off_c, 1, 77, 0
2, 194880, Note_on_c, 1, 74, 60
2, 195360, Note_off_c, 1, 74, 0
2, 195360, Note_on_c, 1, 86, 65
2, 195600, Note_off_c, 1, 86, 0
2, 195600, Note_on_c, 1, 81, 67
2, 195840, Note_off_c, 1, 81, 0
2, 195840, Note_on_c, 1, 82, 73
2, 196320, Note_off_c, 1, 82, 0
2, 196320, Note_on_c, 1, 79, 69
2, 196560, Note_off_c, 1, 79, 0
2, 196560, Note_on_c, 1, 76, 68
2, 196800, Note_off_c, 1, 76, 0
2, 196800, Note_on_c, 1, 77, 81
2, 197040, Note_off_c, 1, 77, 0
2, 197040, Note_on_c, 1, 81, 78
2, 197280, Note_off_c, 1, 81, 0
2, 197280, Note_on_c, 1, 79, 76
2, 197520, Note_off_c, 1, 79, 0
2, 197520, Note_on_c, 1, 76, 73
2, 197760, Note_off_c, 1, 76, 0
2, 197760, Note_on_c, 1, 74, 70
2, 198240, Note_off_c, 1, 74, 0
2, 198720, Control_c, 1, 64, 0
2, 198720, Note_on_c, 1, 76, 63
2, 199200, Note_off_c, 1, 76, 0
2, 199680, Note_on_c, 1, 77, 72
2, 200160, Note_off_c, 1, 77, 0
2, 200640, Note_on_c, 1, 79, 81
2, 201120, Note_off_c, 1, 79, 0
2, 201600, Note_on_c, 1, 81, 89
2, 202080, Note_off_c, 1, 81, 0
2, 202800, Note_on_c, 1, 82, 89
2, 203760, Note_off_c, 1, 82, 0
2, 204000, Note_on_c, 1, 81, 61
2, 204240, Note_off_c, 1, 81, 0
2, 204240, Note_on_c, 1, 79, 64
2, 204480, Note_off_c, 1, 79, 0
2, 204480, Note_on_c, 1, 86, 72
2, 204960, Note_off_c, 1, 86, 0
2, 204960, Note_on_c, 1, 84, 62
2, 205200, Note_off_c, 1, 84, 0
2, 205200, Note_on_c, 1, 82, 60
2, 205440, Note_off_c, 1, 82, 0
2, 205440, Note_on_c, 1, 81, 58
2, 205680, Note_off_c, 1, 81, 0
2, 205680, Note_on_c, 1, 79, 56
2, 205920, Note_off_c, 1, 79, 0
2, 205920, Note_on_c, 1, 82, 54
2, 206160, Note_off_c, 1, 82, 0
2, 206160, Note_on_c, 1, 81, 52
2, 206351, Note_off_c, 1, 81, 0
2, 206360, Note_on_c, 1, 81, 51
2, 206400, Note_on_c, 1, 79, 50
2, 206437, Note_off_c, 1, 81, 0
2, 206561, Note_off_c, 1, 79, 0
2, 206600, Note_on_c, 1, 79, 49
2, 206640, Note_on_c, 1, 77, 48
2, 206681, Note_off_c, 1, 79, 0
2, 206801, Note_off_c, 1, 77, 0
2, 206840, Note_on_c, 1, 77, 47
2, 206880, Note_on_c, 1, 76, 46
2, 206917, Note_off_c, 1, 77, 0
2, 207041, Note_off_c, 1, 76, 0
2, 207080, Note_on_c, 1, 76, 45
2, 207120, Note_on_c, 1, 74, 44
2, 207161, Note_off_c, 1, 76, 0
2, 207277, Note_off_c, 1, 74, 0
2, 207360, Note_on_c, 1, 72, 46
2, 207480, Note_off_c, 1, 72, 0
2, 207600, Note_on_c, 1, 77, 48
2, 207720, Note_off_c, 1, 77, 0
2, 207840, Note_on_c, 1, 71, 49
2, 207960, Note_off_c, 1, 71, 0
2, 208080, Note_on_c, 1, 77, 51
2, 208200, Note_off_c, 1, 77, 0
2, 208320, Note_on_c, 1, 72, 52
2, 209040, Note_off_c, 1, 72, 0
2, 209040, Note_on_c, 1, 73, 62
2, 209280, Note_off_c, 1, 73, 0
2, 209280, Note_on_c, 1, 74, 58
2, 209400, Note_off_c, 1, 74, 0
2, 209520, Note_on_c, 1, 77, 59
2, 209640, Note_off_c, 1, 77, 0
2, 209760, Note_on_c, 1, 73, 61
2, 209880, Note_off_c, 1, 73, 0
2, 210000, Note_on_c, 1, 77, 62
2, 210120, Note_off_c, 1, 77, 0
2, 210240, Note_on_c, 1, 74, 64
2, 210960, Note_off_c, 1, 74, 0
2, 210960, Note_on_c, 1, 79, 62
2, 211020, Note_off_c, 1, 79, 0
2, 211020, Note_on_c, 1, 77, 64
2, 211080, Note_off_c, 1, 77, 0
2, 211080, Note_on_c, 1, 76, 65
2, 211140, Note_off_c, 1, 76, 0
2, 211140, Note_on_c, 1, 77, 67
2, 211200, Note_off_c, 1, 77, 0
2, 211200, Note_on_c, 1, 76, 68
2, 211440, Note_off_c, 1, 76, 0
2, 211440, Note_on_c, 1, 84, 72
2, 211560, Note_off_c, 1, 84, 0
2, 211680, Note_on_c, 1, 84, 75
2, 211800, Note_off_c, 1, 84, 0
2, 211920, Note_on_c, 1, 84, 77
2, 212040, Note_off_c, 1, 84, 0
2, 212160, Note_on_c, 1, 84, 80
2, 212640, Note_off_c, 1, 84, 0
2, 212640, Note_on_c, 1, 81, 76
2, 212760, Note_off_c, 1, 81, 0
2, 212760, Note_on_c, 1, 77, 74
2, 212880, Note_off_c, 1, 77, 0
2, 212880, Note_on_c, 1, 81, 73
2, 213000, Note_off_c, 1, 81, 0
2, 213000, Note_on_c, 1, 84, 72
2, 213120, Note_off_c, 1, 84, 0
2, 213120, Note_on_c, 1, 82, 71
2, 213305, Note_off_c, 1, 82, 0
2, 213360, Note_on_c, 1, 79, 68
2, 213480, Note_off_c, 1, 79, 0
2, 213480, Note_on_c, 1, 82, 67
2, 213600, Note_off_c, 1, 82, 0
2, 213600, Note_on_c, 1, 81, 66
2, 213780, Note_off_c, 1, 81, 0
2, 213840, Note_on_c, 1, 77, 63
2, 213960, Note_off_c, 1, 77, 0
2, 213960, Note_on_c, 1, 81, 61
2, 214080, Note_off_c, 1, 81, 0
2, 214240, Note_on_c, 1, 79, 58
2, 214320, Note_on_c, 1, 81, 56
2, 214335, Note_off_c, 1, 79, 0
2, 214440, Note_off_c, 1, 81, 0
2, 214440, Note_on_c, 1, 79, 53
2, 214560, Note_off_c, 1, 79, 0
2, 214560, Note_on_c, 1, 77, 51
2, 214680, Note_off_c, 1, 77, 0
2, 214680, Note_on_c, 1, 76, 48
2, 214800, Note_off_c, 1, 76, 0
2, 214800, Note_on_c, 1, 74, 45
2, 214920, Note_off_c, 1, 74, 0
2, 214920, Note_on_c, 1, 72, 42
2, 215040, Note_off_c, 1, 72, 0
2, 215040, Note_on_c, 1, 72, 44
2, 215160, Note_off_c, 1, 72, 0
2, 215280, Note_on_c, 1, 77, 45
2, 215400, Note_off_c, 1, 77, 0
2, 215520, Note_on_c, 1, 71, 46
2, 215640, Note_off_c, 1, 71, 0
2, 215760, Note_on_c, 1, 77, 47
2, 215880, Note_off_c, 1, 77, 0
2, 216000, Note_on_c, 1, 72, 48
2, 216720, Note_off_c, 1, 72, 0
2, 216720, Note_on_c, 1, 73, 56
2, 216960, Note_off_c, 1, 73, 0
2, 216960, Note_on_c, 1, 74, 52
2, 217080, Note_off_c, 1, 74, 0
2, 217200, Note_on_c, 1, 77, 52
2, 217320, Note_off_c, 1, 77, 0
2, 217440, Note_on_c, 1, 73, 53
2, 217560, Note_off_c, 1, 73, 0
2, 217680, Note_on_c, 1, 77, 54
2, 217800, Note_off_c, 1, 77, 0
2, 217920, Note_on_c, 1, 74, 55
2, 218640, Note_off_c, 1, 74, 0
2, 218640, Note_on_c, 1, 79, 55
2, 218700, Note_off_c, 1, 79, 0
2, 218700, Note_on_c, 1, 77, 57
2, 218760, Note_off_c, 1, 77, 0
2, 218760, Note_on_c, 1, 76, 58
2, 218820, Note_off_c, 1, 76, 0
2, 218820, Note_on_c, 1, 77, 59
2, 218880, Note_off_c, 1, 77, 0
2, 218880, Note_on_c, 1, 76, 58
2, 219120, Note_off_c, 1, 76, 0
2, 219120, Note_on_c, 1, 84, 61
2, 219240, Note_off_c, 1, 84, 0
2, 219360, Note_on_c, 1, 84, 64
2, 219480, Note_off_c, 1, 84, 0
2, 219600, Note_on_c, 1, 84, 67
2, 219720, Note_off_c, 1, 84, 0
2, 219840, Note_on_c, 1, 84, 70
2, 220320, Note_off_c, 1, 84, 0
2, 220320, Note_on_c, 1, 82, 66
2, 220440, Note_off_c, 1, 82, 0
2, 220440, Note_on_c, 1, 81, 65
2, 220560, Note_off_c, 1, 81, 0
2, 220560, Note_on_c, 1, 79, 64
2, 220680, Note_off_c, 1, 79, 0
2, 220680, Note_on_c, 1, 77, 63
2, 220800, Note_off_c, 1, 77, 0
2, 220800, Note_on_c, 1, 79, 63
2, 220975, Note_off_c, 1, 79, 0
2, 221040, Note_on_c, 1, 79, 60
2, 221160, Note_off_c, 1, 79, 0
2, 221160, Note_on_c, 1, 82, 59
2, 221280, Note_off_c, 1, 82, 0
2, 221280, Note_on_c, 1, 76, 58
2, 221465, Note_off_c, 1, 76, 0
2, 221520, Note_on_c, 1, 76, 55
2, 221640, Note_off_c, 1, 76, 0
2, 221640, Note_on_c, 1, 79, 53
2, 221760, Note_off_c, 1, 79, 0
2, 221760, Note_on_c, 1, 77, 52
2, 222240, Note_off_c, 1, 77, 0
2, 222720, Note_on_c, 1, 84, 49
2, 223200, Note_off_c, 1, 84, 0
2, 223680, Note_on_c, 1, 81, 42
2, 224160, Note_off_c, 1, 81, 0
2, 224640, Note_on_c, 1, 76, 82
2, 225054, Note_off_c, 1, 76, 0
2, 225120, Note_on_c, 1, 76, 85
2, 225534, Note_off_c, 1, 76, 0
2, 225600, Note_on_c, 1, 77, 89
2, 226080, Note_off_c, 1, 77, 0
2, 226080, End_track
3, 0, Start_track
3, 0, Title_t, "Unnamed Track"
3, 0, Control_c, 2, 0, 0
3, 0, Control_c, 2, 32, 0
3, 0, Program_c, 2, 0
3, 0, Control_c, 2, 7, 122
3, 0, Pitch_bend_c, 2, 8192
3, 0, Control_c, 2, 1, 0
3, 0, Control_c, 2, 64, 0
3, 0, Control_c, 2, 93, 28
3, 0, Control_c, 2, 91, 100
3, 0, Control_c, 2, 10, 73
3, 480, Control_c, 2, 64, 0
3, 960, Control_c, 2, 64, 0
3, 18240, Control_c, 2, 64, 0
3, 35520, Control_c, 2, 64, 0
3, 84480, Note_on_c, 2, 79, 94
3, 84480, Note_on_c, 2, 82, 94
3, 84960, Note_off_c, 2, 82, 0
3, 84960, Note_off_c, 2, 79, 0
3, 85440, Note_on_c, 2, 81, 91
3, 85920, Note_off_c, 2, 81, 0
3, 87360, Control_c, 2, 64, 0
3, 87360, Control_c, 2, 64, 0
3, 102720, Control_c, 2, 64, 0
3, 121920, Control_c, 2, 64, 0
3, 141120, Control_c, 2, 64, 0
3, 152640, Control_c, 2, 64, 0
3, 164160, Control_c, 2, 64, 0
3, 168240, Note_on_c, 2, 77, 66
3, 168480, Note_off_c, 2, 77, 0
3, 168720, Note_on_c, 2, 77, 69
3, 168960, Note_off_c, 2, 77, 0
3, 169200, Note_on_c, 2, 77, 68
3, 169440, Note_off_c, 2, 77, 0
3, 169680, Note_on_c, 2, 77, 60
3, 169860, Note_off_c, 2, 77, 0
3, 170160, Note_on_c, 2, 74, 61
3, 170400, Note_off_c, 2, 74, 0
3, 170640, Note_on_c, 2, 74, 65
3, 170880, Note_off_c, 2, 74, 0
3, 171120, Note_on_c, 2, 74, 64
3, 171360, Note_off_c, 2, 74, 0
3, 171600, Note_on_c, 2, 74, 61
3, 171785, Note_off_c, 2, 74, 0
3, 172080, Note_on_c, 2, 76, 80
3, 172320, Note_off_c, 2, 76, 0
3, 172560, Note_on_c, 2, 74, 85
3, 172800, Note_off_c, 2, 74, 0
3, 181440, Control_c, 2, 64, 0
3, 185520, Note_on_c, 2, 77, 66
3, 185760, Note_off_c, 2, 77, 0
3, 186000, Note_on_c, 2, 77, 69
3, 186240, Note_off_c, 2, 77, 0
3, 186480, Note_on_c, 2, 77, 68
3, 186720, Note_off_c, 2, 77, 0
3, 186960, Note_on_c, 2, 77, 60
3, 187140, Note_off_c, 2, 77, 0
3, 187440, Note_on_c, 2, 74, 61
3, 187680, Note_off_c, 2, 74, 0
3, 187920, Note_on_c, 2, 74, 65
3, 188160, Note_off_c, 2, 74, 0
3, 188400, Note_on_c, 2, 74, 64
3, 188640, Note_off_c, 2, 74, 0
3, 188880, Note_on_c, 2, 74, 61
3, 189065, Note_off_c, 2, 74, 0
3, 189360, Note_on_c, 2, 76, 80
3, 189600, Note_off_c, 2, 76, 0
3, 198720, Control_c, 2, 64, 0
3, 222720, Note_on_c, 2, 76, 49
3, 223200, Note_off_c, 2, 76, 0
3, 223680, Note_on_c, 2, 77, 42
3, 224160, Note_off_c, 2, 77, 0
3, 224640, Note_on_c, 2, 70, 82
3, 224640, Note_on_c, 2, 67, 82
3, 225054, Note_off_c, 2, 67, 0
3, 225054, Note_off_c, 2, 70, 0
3, 225120, Note_on_c, 2, 70, 85
3, 225120, Note_on_c, 2, 67, 85
3, 225534, Note_off_c, 2, 67, 0
3, 225534, Note_off_c, 2, 70, 0
3, 225600, Note_on_c, 2, 69, 89
3, 225600, Note_on_c, 2, 65, 89
3, 226080, Note_off_c, 2, 65, 0
3, 226080, Note_off_c, 2, 69, 0
3, 226080, End_track
4, 0, Start_track
4, 0, Title_t, "Unnamed Track"
4, 0, Control_c, 3, 0, 0
4, 0, Control_c, 3, 32, 0
4, 0, Program_c, 3, 0
4, 0, Control_c, 3, 10, 64
4, 0, Control_c, 3, 91, 100
4, 0, Control_c, 3, 93, 28
4, 0, Control_c, 3, 64, 0
4, 0, Control_c, 3, 1, 0
4, 0, Pitch_bend_c, 3, 8192
4, 0, Control_c, 3, 7, 112
4, 1080, Note_on_c, 3, 57, 78
4, 1200, Note_off_c, 3, 57, 0
4, 1200, Note_on_c, 3, 60, 79
4, 1320, Note_off_c, 3, 60, 0
4, 1320, Note_on_c, 3, 57, 80
4, 1440, Note_off_c, 3, 57, 0
4, 1560, Note_on_c, 3, 57, 81
4, 1680, Note_off_c, 3, 57, 0
4, 1680, Note_on_c, 3, 60, 81
4, 1800, Note_off_c, 3, 60, 0
4, 1800, Note_on_c, 3, 57, 82
4, 1920, Note_off_c, 3, 57, 0
4, 3000, Note_on_c, 3, 60, 69
4, 3120, Note_off_c, 3, 60, 0
4, 3240, Note_on_c, 3, 60, 65
4, 3360, Note_off_c, 3, 60, 0
4, 3480, Note_on_c, 3, 60, 62
4, 3600, Note_off_c, 3, 60, 0
4, 3720, Note_on_c, 3, 60, 58
4, 3840, Note_off_c, 3, 60, 0
4, 4920, Note_on_c, 3, 58, 75
4, 5040, Note_off_c, 3, 58, 0
4, 5040, Note_on_c, 3, 60, 76
4, 5160, Note_off_c, 3, 60, 0
4, 5160, Note_on_c, 3, 58, 77
4, 5280, Note_off_c, 3, 58, 0
4, 5400, Note_on_c, 3, 58, 79
4, 5520, Note_off_c, 3, 58, 0
4, 5520, Note_on_c, 3, 60, 79
4, 5640, Note_off_c, 3, 60, 0
4, 5640, Note_on_c, 3, 58, 80
4, 5760, Note_off_c, 3, 58, 0
4, 6840, Note_on_c, 3, 60, 56
4, 6960, Note_off_c, 3, 60, 0
4, 7080, Note_on_c, 3, 60, 53
4, 7200, Note_off_c, 3, 60, 0
4, 7320, Note_on_c, 3, 60, 51
4, 7440, Note_off_c, 3, 60, 0
4, 7560, Note_on_c, 3, 60, 48
4, 7680, Note_off_c, 3, 60, 0
4, 8760, Note_on_c, 3, 60, 55
4, 8880, Note_off_c, 3, 60, 0
4, 9000, Note_on_c, 3, 60, 54
4, 9120, Note_off_c, 3, 60, 0
4, 9240, Note_on_c, 3, 60, 53
4, 9360, Note_off_c, 3, 60, 0
4, 9480, Note_on_c, 3, 60, 52
4, 9600, Note_off_c, 3, 60, 0
4, 9720, Note_on_c, 3, 60, 51
4, 9840, Note_off_c, 3, 60, 0
4, 9960, Note_on_c, 3, 60, 51
4, 10080, Note_off_c, 3, 60, 0
4, 10680, Note_on_c, 3, 60, 50
4, 10800, Note_off_c, 3, 60, 0
4, 10920, Note_on_c, 3, 60, 49
4, 11040, Note_off_c, 3, 60, 0
4, 11160, Note_on_c, 3, 60, 48
4, 11280, Note_off_c, 3, 60, 0
4, 11400, Note_on_c, 3, 60, 46
4, 11520, Note_off_c, 3, 60, 0
4, 11640, Note_on_c, 3, 60, 45
4, 11760, Note_off_c, 3, 60, 0
4, 11880, Note_on_c, 3, 60, 44
4, 12000, Note_off_c, 3, 60, 0
4, 18360, Note_on_c, 3, 57, 78
4, 18480, Note_off_c, 3, 57, 0
4, 18480, Note_on_c, 3, 60, 79
4, 18600, Note_off_c, 3, 60, 0
4, 18600, Note_on_c, 3, 57, 80
4, 18720, Note_off_c, 3, 57, 0
4, 18840, Note_on_c, 3, 57, 81
4, 18960, Note_off_c, 3, 57, 0
4, 18960, Note_on_c, 3, 60, 81
4, 19080, Note_off_c, 3, 60, 0
4, 19080, Note_on_c, 3, 57, 82
4, 19200, Note_off_c, 3, 57, 0
4, 20280, Note_on_c, 3, 60, 69
4, 20400, Note_off_c, 3, 60, 0
4, 20520, Note_on_c, 3, 60, 65
4, 20640, Note_off_c, 3, 60, 0
4, 20760, Note_on_c, 3, 60, 62
4, 20880, Note_off_c, 3, 60, 0
4, 21000, Note_on_c, 3, 60, 58
4, 21120, Note_off_c, 3, 60, 0
4, 22200, Note_on_c, 3, 58, 75
4, 22320, Note_off_c, 3, 58, 0
4, 22320, Note_on_c, 3, 60, 76
4, 22440, Note_off_c, 3, 60, 0
4, 22440, Note_on_c, 3, 58, 77
4, 22560, Note_off_c, 3, 58, 0
4, 22680, Note_on_c, 3, 58, 79
4, 22800, Note_off_c, 3, 58, 0
4, 22800, Note_on_c, 3, 60, 79
4, 22920, Note_off_c, 3, 60, 0
4, 22920, Note_on_c, 3, 58, 80
4, 23040, Note_off_c, 3, 58, 0
4, 24120, Note_on_c, 3, 60, 56
4, 24240, Note_off_c, 3, 60, 0
4, 24360, Note_on_c, 3, 60, 53
4, 24480, Note_off_c, 3, 60, 0
4, 24600, Note_on_c, 3, 60, 51
4, 24720, Note_off_c, 3, 60, 0
4, 24840, Note_on_c, 3, 60, 48
4, 24960, Note_off_c, 3, 60, 0
4, 26040, Note_on_c, 3, 60, 55
4, 26160, Note_off_c, 3, 60, 0
4, 26280, Note_on_c, 3, 60, 54
4, 26400, Note_off_c, 3, 60, 0
4, 26520, Note_on_c, 3, 60, 53
4, 26640, Note_off_c, 3, 60, 0
4, 26760, Note_on_c, 3, 60, 52
4, 26880, Note_off_c, 3, 60, 0
4, 27000, Note_on_c, 3, 60, 51
4, 27120, Note_off_c, 3, 60, 0
4, 27240, Note_on_c, 3, 60, 51
4, 27360, Note_off_c, 3, 60, 0
4, 27960, Note_on_c, 3, 60, 50
4, 28080, Note_off_c, 3, 60, 0
4, 28200, Note_on_c, 3, 60, 49
4, 28320, Note_off_c, 3, 60, 0
4, 28440, Note_on_c, 3, 60, 48
4, 28560, Note_off_c, 3, 60, 0
4, 28680, Note_on_c, 3, 60, 46
4, 28800, Note_off_c, 3, 60, 0
4, 28920, Note_on_c, 3, 60, 45
4, 29040, Note_off_c, 3, 60, 0
4, 29160, Note_on_c, 3, 60, 44
4, 29280, Note_off_c, 3, 60, 0
4, 35640, Note_on_c, 3, 57, 72
4, 35760, Note_off_c, 3, 57, 0
4, 35760, Note_on_c, 3, 60, 73
4, 35880, Note_off_c, 3, 60, 0
4, 35880, Note_on_c, 3, 57, 74
4, 36000, Note_off_c, 3, 57, 0
4, 36120, Note_on_c, 3, 57, 77
4, 36240, Note_off_c, 3, 57, 0
4, 36240, Note_on_c, 3, 60, 78
4, 36360, Note_off_c, 3, 60, 0
4, 36360, Note_on_c, 3, 57, 79
4, 36480, Note_off_c, 3, 57, 0
4, 37560, Note_on_c, 3, 53, 57
4, 37680, Note_off_c, 3, 53, 0
4, 37800, Note_on_c, 3, 53, 54
4, 37920, Note_off_c, 3, 53, 0
4, 38040, Note_on_c, 3, 53, 50
4, 38160, Note_off_c, 3, 53, 0
4, 38280, Note_on_c, 3, 53, 46
4, 38400, Note_off_c, 3, 53, 0
4, 39480, Note_on_c, 3, 57, 70
4, 39600, Note_off_c, 3, 57, 0
4, 39600, Note_on_c, 3, 60, 71
4, 39720, Note_off_c, 3, 60, 0
4, 39720, Note_on_c, 3, 57, 71
4, 39840, Note_off_c, 3, 57, 0
4, 39960, Note_on_c, 3, 57, 73
4, 40080, Note_off_c, 3, 57, 0
4, 40080, Note_on_c, 3, 60, 73
4, 40200, Note_off_c, 3, 60, 0
4, 40200, Note_on_c, 3, 57, 74
4, 40320, Note_off_c, 3, 57, 0
4, 41400, Note_on_c, 3, 53, 57
4, 41520, Note_off_c, 3, 53, 0
4, 41640, Note_on_c, 3, 53, 53
4, 41760, Note_off_c, 3, 53, 0
4, 41880, Note_on_c, 3, 53, 48
4, 42000, Note_off_c, 3, 53, 0
4, 42120, Note_on_c, 3, 53, 42
4, 42240, Note_off_c, 3, 53, 0
4, 58800, Note_on_c, 3, 67, 66
4, 59040, Note_off_c, 3, 67, 0
4, 59280, Note_on_c, 3, 67, 68
4, 59520, Note_off_c, 3, 67, 0
4, 59760, Note_on_c, 3, 67, 70
4, 60000, Note_off_c, 3, 67, 0
4, 60240, Note_on_c, 3, 67, 72
4, 60480, Note_off_c, 3, 67, 0
4, 60720, Note_on_c, 3, 67, 74
4, 60960, Note_off_c, 3, 67, 0
4, 61200, Note_on_c, 3, 67, 76
4, 61440, Note_off_c, 3, 67, 0
4, 61680, Note_on_c, 3, 67, 78
4, 61920, Note_off_c, 3, 67, 0
4, 62160, Note_on_c, 3, 67, 80
4, 62400, Note_off_c, 3, 67, 0
4, 66360, Note_on_c, 3, 60, 63
4, 66480, Note_off_c, 3, 60, 0
4, 66600, Note_on_c, 3, 60, 62
4, 66720, Note_off_c, 3, 60, 0
4, 66840, Note_on_c, 3, 60, 62
4, 66960, Note_off_c, 3, 60, 0
4, 67080, Note_on_c, 3, 60, 61
4, 67200, Note_off_c, 3, 60, 0
4, 67320, Note_on_c, 3, 60, 60
4, 67440, Note_off_c, 3, 60, 0
4, 67560, Note_on_c, 3, 60, 59
4, 67680, Note_off_c, 3, 60, 0
4, 68280, Note_on_c, 3, 60, 57
4, 68400, Note_off_c, 3, 60, 0
4, 68520, Note_on_c, 3, 60, 57
4, 68640, Note_off_c, 3, 60, 0
4, 68760, Note_on_c, 3, 60, 56
4, 68880, Note_off_c, 3, 60, 0
4, 69000, Note_on_c, 3, 60, 55
4, 69120, Note_off_c, 3, 60, 0
4, 69240, Note_on_c, 3, 60, 54
4, 69360, Note_off_c, 3, 60, 0
4, 69480, Note_on_c, 3, 60, 54
4, 69600, Note_off_c, 3, 60, 0
4, 141360, Note_on_c, 3, 65, 48
4, 141607, Note_off_c, 3, 65, 0
4, 141840, Note_on_c, 3, 65, 50
4, 142080, Note_off_c, 3, 65, 0
4, 142320, Note_on_c, 3, 67, 50
4, 142560, Note_off_c, 3, 67, 0
4, 142800, Note_on_c, 3, 67, 49
4, 143040, Note_off_c, 3, 67, 0
4, 143280, Note_on_c, 3, 64, 52
4, 143520, Note_off_c, 3, 64, 0
4, 143760, Note_on_c, 3, 64, 56
4, 144000, Note_off_c, 3, 64, 0
4, 144240, Note_on_c, 3, 65, 54
4, 144480, Note_off_c, 3, 65, 0
4, 144720, Note_on_c, 3, 65, 47
4, 144905, Note_off_c, 3, 65, 0
4, 145200, Note_on_c, 3, 62, 49
4, 145440, Note_off_c, 3, 62, 0
4, 145680, Note_on_c, 3, 62, 54
4, 145920, Note_off_c, 3, 62, 0
4, 146160, Note_on_c, 3, 62, 57
4, 146400, Note_off_c, 3, 62, 0
4, 146640, Note_on_c, 3, 62, 53
4, 146830, Note_off_c, 3, 62, 0
4, 147120, Note_on_c, 3, 62, 59
4, 147360, Note_off_c, 3, 62, 0
4, 147600, Note_on_c, 3, 62, 66
4, 147840, Note_off_c, 3, 62, 0
4, 148080, Note_on_c, 3, 62, 66
4, 148320, Note_off_c, 3, 62, 0
4, 148560, Note_on_c, 3, 62, 63
4, 148745, Note_off_c, 3, 62, 0
4, 149040, Note_on_c, 3, 62, 74
4, 149280, Note_off_c, 3, 62, 0
4, 149520, Note_on_c, 3, 62, 80
4, 149760, Note_off_c, 3, 62, 0
4, 150000, Note_on_c, 3, 62, 83
4, 150240, Note_off_c, 3, 62, 0
4, 150480, Note_on_c, 3, 62, 76
4, 150720, Note_off_c, 3, 62, 0
4, 150960, Note_on_c, 3, 61, 69
4, 151200, Note_off_c, 3, 61, 0
4, 151440, Note_on_c, 3, 62, 62
4, 151680, Note_off_c, 3, 62, 0
4, 151680, Note_on_c, 3, 62, 58
4, 152160, Note_off_c, 3, 62, 0
4, 152160, Note_on_c, 3, 61, 47
4, 152400, Note_off_c, 3, 61, 0
4, 152880, Note_on_c, 3, 65, 48
4, 153127, Note_off_c, 3, 65, 0
4, 153360, Note_on_c, 3, 65, 50
4, 153600, Note_off_c, 3, 65, 0
4, 153840, Note_on_c, 3, 67, 50
4, 154080, Note_off_c, 3, 67, 0
4, 154320, Note_on_c, 3, 67, 49
4, 154560, Note_off_c, 3, 67, 0
4, 154800, Note_on_c, 3, 64, 52
4, 155040, Note_off_c, 3, 64, 0
4, 155280, Note_on_c, 3, 64, 56
4, 155520, Note_off_c, 3, 64, 0
4, 155760, Note_on_c, 3, 65, 54
4, 156000, Note_off_c, 3, 65, 0
4, 156240, Note_on_c, 3, 65, 47
4, 156425, Note_off_c, 3, 65, 0
4, 156720, Note_on_c, 3, 62, 49
4, 156960, Note_off_c, 3, 62, 0
4, 157200, Note_on_c, 3, 62, 54
4, 157440, Note_off_c, 3, 62, 0
4, 157680, Note_on_c, 3, 62, 57
4, 157920, Note_off_c, 3, 62, 0
4, 158160, Note_on_c, 3, 62, 53
4, 158350, Note_off_c, 3, 62, 0
4, 158640, Note_on_c, 3, 62, 59
4, 158880, Note_off_c, 3, 62, 0
4, 159120, Note_on_c, 3, 62, 66
4, 159360, Note_off_c, 3, 62, 0
4, 159600, Note_on_c, 3, 62, 66
4, 159840, Note_off_c, 3, 62, 0
4, 160080, Note_on_c, 3, 62, 63
4, 160265, Note_off_c, 3, 62, 0
4, 160560, Note_on_c, 3, 62, 74
4, 160800, Note_off_c, 3, 62, 0
4, 161040, Note_on_c, 3, 62, 80
4, 161280, Note_off_c, 3, 62, 0
4, 161520, Note_on_c, 3, 62, 83
4, 161760, Note_off_c, 3, 62, 0
4, 162000, Note_on_c, 3, 62, 76
4, 162240, Note_off_c, 3, 62, 0
4, 162480, Note_on_c, 3, 61, 69
4, 162720, Note_off_c, 3, 61, 0
4, 162960, Note_on_c, 3, 62, 62
4, 163200, Note_off_c, 3, 62, 0
4, 163200, Note_on_c, 3, 62, 58
4, 163680, Note_off_c, 3, 62, 0
4, 163680, Note_on_c, 3, 61, 47
4, 163920, Note_off_c, 3, 61, 0
4, 164400, Note_on_c, 3, 65, 49
4, 164640, Note_off_c, 3, 65, 0
4, 164880, Note_on_c, 3, 65, 52
4, 165120, Note_off_c, 3, 65, 0
4, 165360, Note_on_c, 3, 64, 52
4, 165600, Note_off_c, 3, 64, 0
4, 165840, Note_on_c, 3, 64, 45
4, 166020, Note_off_c, 3, 64, 0
4, 166320, Note_on_c, 3, 62, 47
4, 166560, Note_off_c, 3, 62, 0
4, 166800, Note_on_c, 3, 62, 50
4, 167040, Note_off_c, 3, 62, 0
4, 167280, Note_on_c, 3, 60, 49
4, 167520, Note_off_c, 3, 60, 0
4, 167760, Note_on_c, 3, 60, 44
4, 167940, Note_off_c, 3, 60, 0
4, 168720, Note_on_c, 3, 65, 69
4, 168960, Note_off_c, 3, 65, 0
4, 170640, Note_on_c, 3, 62, 65
4, 170880, Note_off_c, 3, 62, 0
4, 174000, Note_on_c, 3, 65, 44
4, 174240, Note_off_c, 3, 65, 0
4, 174480, Note_on_c, 3, 65, 47
4, 174720, Note_off_c, 3, 65, 0
4, 174960, Note_on_c, 3, 67, 50
4, 175195, Note_off_c, 3, 67, 0
4, 175440, Note_on_c, 3, 67, 45
4, 175680, Note_off_c, 3, 67, 0
4, 175920, Note_on_c, 3, 64, 48
4, 176160, Note_off_c, 3, 64, 0
4, 176400, Note_on_c, 3, 64, 53
4, 176640, Note_off_c, 3, 64, 0
4, 176880, Note_on_c, 3, 65, 51
4, 177120, Note_off_c, 3, 65, 0
4, 177360, Note_on_c, 3, 65, 45
4, 177545, Note_off_c, 3, 65, 0
4, 177840, Note_on_c, 3, 62, 62
4, 178080, Note_off_c, 3, 62, 0
4, 178320, Note_on_c, 3, 62, 67
4, 178560, Note_off_c, 3, 62, 0
4, 178800, Note_on_c, 3, 62, 71
4, 179040, Note_off_c, 3, 62, 0
4, 179280, Note_on_c, 3, 64, 68
4, 179520, Note_off_c, 3, 64, 0
4, 179760, Note_on_c, 3, 57, 78
4, 180000, Note_off_c, 3, 57, 0
4, 180240, Note_on_c, 3, 57, 73
4, 180480, Note_off_c, 3, 57, 0
4, 181680, Note_on_c, 3, 65, 49
4, 181920, Note_off_c, 3, 65, 0
4, 182160, Note_on_c, 3, 65, 52
4, 182400, Note_off_c, 3, 65, 0
4, 182640, Note_on_c, 3, 64, 52
4, 182880, Note_off_c, 3, 64, 0
4, 183120, Note_on_c, 3, 64, 45
4, 183300, Note_off_c, 3, 64, 0
4, 183600, Note_on_c, 3, 62, 47
4, 183840, Note_off_c, 3, 62, 0
4, 184080, Note_on_c, 3, 62, 50
4, 184320, Note_off_c, 3, 62, 0
4, 184560, Note_on_c, 3, 60, 49
4, 184800, Note_off_c, 3, 60, 0
4, 185040, Note_on_c, 3, 60, 44
4, 185220, Note_off_c, 3, 60, 0
4, 186000, Note_on_c, 3, 65, 69
4, 186240, Note_off_c, 3, 65, 0
4, 187920, Note_on_c, 3, 62, 65
4, 188160, Note_off_c, 3, 62, 0
4, 191280, Note_on_c, 3, 65, 44
4, 191520, Note_off_c, 3, 65, 0
4, 191760, Note_on_c, 3, 65, 47
4, 192000, Note_off_c, 3, 65, 0
4, 192240, Note_on_c, 3, 67, 50
4, 192475, Note_off_c, 3, 67, 0
4, 192720, Note_on_c, 3, 67, 45
4, 192960, Note_off_c, 3, 67, 0
4, 193200, Note_on_c, 3, 64, 48
4, 193440, Note_off_c, 3, 64, 0
4, 193680, Note_on_c, 3, 64, 53
4, 193920, Note_off_c, 3, 64, 0
4, 194160, Note_on_c, 3, 65, 51
4, 194400, Note_off_c, 3, 65, 0
4, 194640, Note_on_c, 3, 65, 45
4, 194825, Note_off_c, 3, 65, 0
4, 195120, Note_on_c, 3, 62, 62
4, 195360, Note_off_c, 3, 62, 0
4, 195600, Note_on_c, 3, 62, 67
4, 195840, Note_off_c, 3, 62, 0
4, 196080, Note_on_c, 3, 62, 71
4, 196320, Note_off_c, 3, 62, 0
4, 196560, Note_on_c, 3, 64, 68
4, 196800, Note_off_c, 3, 64, 0
4, 197040, Note_on_c, 3, 57, 78
4, 197280, Note_off_c, 3, 57, 0
4, 197520, Note_on_c, 3, 57, 73
4, 197760, Note_off_c, 3, 57, 0
4, 197760, End_track
5, 0, Start_track
5, 0, Title_t, "Unnamed Track"
5, 0, Control_c, 4, 0, 0
5, 0, Control_c, 4, 32, 0
5, 0, Program_c, 4, 0
5, 0, Control_c, 4, 7, 120
5, 0, Pitch_bend_c, 4, 8192
5, 0, Control_c, 4, 1, 0
5, 0, Control_c, 4, 64, 0
5, 0, Control_c, 4, 93, 28
5, 0, Control_c, 4, 91, 100
5, 0, Control_c, 4, 10, 55
5, 480, Control_c, 4, 64, 0
5, 960, Control_c, 4, 64, 0
5, 12480, Note_on_c, 4, 59, 77
5, 13440, Note_off_c, 4, 59, 0
5, 13440, Note_on_c, 4, 60, 68
5, 14400, Note_off_c, 4, 60, 0
5, 14400, Note_on_c, 4, 59, 53
5, 15360, Note_off_c, 4, 59, 0
5, 15360, Note_on_c, 4, 60, 45
5, 16320, Note_off_c, 4, 60, 0
5, 18240, Control_c, 4, 64, 0
5, 29760, Note_on_c, 4, 59, 77
5, 30720, Note_off_c, 4, 59, 0
5, 30720, Note_on_c, 4, 60, 68
5, 31680, Note_off_c, 4, 60, 0
5, 31680, Note_on_c, 4, 59, 53
5, 32640, Note_off_c, 4, 59, 0
5, 32640, Note_on_c, 4, 60, 45
5, 33600, Note_off_c, 4, 60, 0
5, 35520, Control_c, 4, 64, 0
5, 57600, Note_on_c, 4, 65, 61
5, 58080, Note_off_c, 4, 65, 0
5, 58560, Note_on_c, 4, 64, 65
5, 59040, Note_off_c, 4, 64, 0
5, 59040, Note_on_c, 4, 64, 67
5, 59520, Note_off_c, 4, 64, 0
5, 59520, Note_on_c, 4, 64, 69
5, 60000, Note_off_c, 4, 64, 0
5, 60000, Note_on_c, 4, 64, 71
5, 60480, Note_off_c, 4, 64, 0
5, 60480, Note_on_c, 4, 64, 73
5, 60960, Note_off_c, 4, 64, 0
5, 60960, Note_on_c, 4, 64, 75
5, 61440, Note_off_c, 4, 64, 0
5, 61440, Note_on_c, 4, 65, 77
5, 61920, Note_off_c, 4, 65, 0
5, 61920, Note_on_c, 4, 65, 79
5, 62400, Note_off_c, 4, 65, 0
5, 62400, Note_on_c, 4, 64, 81
5, 62760, Note_off_c, 4, 64, 0
5, 63360, Note_on_c, 4, 64, 76
5, 63720, Note_off_c, 4, 64, 0
5, 64320, Note_on_c, 4, 67, 71
5, 64680, Note_off_c, 4, 67, 0
5, 65280, Note_on_c, 4, 67, 67
5, 65280, Note_on_c, 4, 70, 67
5, 65640, Note_off_c, 4, 70, 0
5, 65640, Note_off_c, 4, 67, 0
5, 70080, Note_on_c, 4, 59, 79
5, 71040, Note_off_c, 4, 59, 0
5, 71040, Note_on_c, 4, 64, 67
5, 71460, Note_off_c, 4, 64, 0
5, 72000, Note_on_c, 4, 64, 75
5, 72960, Note_off_c, 4, 64, 0
5, 72960, Note_on_c, 4, 65, 63
5, 73440, Note_off_c, 4, 65, 0
5, 85440, Note_on_c, 4, 65, 91
5, 85920, Note_off_c, 4, 65, 0
5, 87360, Control_c, 4, 64, 0
5, 87360, Control_c, 4, 64, 0
5, 91200, Note_on_c, 4, 58, 74
5, 91320, Note_off_c, 4, 58, 0
5, 91680, Note_on_c, 4, 58, 79
5, 91800, Note_off_c, 4, 58, 0
5, 92160, Note_on_c, 4, 57, 86
5, 92280, Note_off_c, 4, 57, 0
5, 92640, Note_on_c, 4, 57, 82
5, 92760, Note_off_c, 4, 57, 0
5, 93120, Note_on_c, 4, 55, 79
5, 93240, Note_off_c, 4, 55, 0
5, 93600, Note_on_c, 4, 57, 71
5, 93720, Note_off_c, 4, 57, 0
5, 98880, Note_on_c, 4, 58, 74
5, 99000, Note_off_c, 4, 58, 0
5, 99360, Note_on_c, 4, 58, 77
5, 99480, Note_off_c, 4, 58, 0
5, 99840, Note_on_c, 4, 57, 83
5, 100320, Note_off_c, 4, 57, 0
5, 101040, Note_on_c, 4, 62, 69
5, 101160, Note_off_c, 4, 62, 0
5, 101280, Note_on_c, 4, 55, 65
5, 101400, Note_off_c, 4, 55, 0
5, 101520, Note_on_c, 4, 58, 60
5, 101640, Note_off_c, 4, 58, 0
5, 101760, Note_on_c, 4, 57, 58
5, 101880, Note_off_c, 4, 57, 0
5, 102000, Note_on_c, 4, 60, 51
5, 102096, Note_off_c, 4, 60, 0
5, 102240, Note_on_c, 4, 57, 41
5, 102336, Note_off_c, 4, 57, 0
5, 102720, Control_c, 4, 64, 0
5, 102720, Note_on_c, 4, 64, 43
5, 102840, Note_off_c, 4, 64, 0
5, 102960, Note_on_c, 4, 64, 45
5, 103080, Note_off_c, 4, 64, 0
5, 103200, Note_on_c, 4, 63, 47
5, 103320, Note_off_c, 4, 63, 0
5, 103440, Note_on_c, 4, 63, 49
5, 103560, Note_off_c, 4, 63, 0
5, 103680, Note_on_c, 4, 64, 51
5, 104160, Note_off_c, 4, 64, 0
5, 104640, Note_on_c, 4, 62, 42
5, 104760, Note_off_c, 4, 62, 0
5, 104880, Note_on_c, 4, 62, 43
5, 105000, Note_off_c, 4, 62, 0
5, 105120, Note_on_c, 4, 61, 44
5, 105240, Note_off_c, 4, 61, 0
5, 105360, Note_on_c, 4, 61, 46
5, 105480, Note_off_c, 4, 61, 0
5, 105600, Note_on_c, 4, 62, 48
5, 106080, Note_off_c, 4, 62, 0
5, 106560, Note_on_c, 4, 64, 44
5, 107520, Note_off_c, 4, 64, 0
5, 107520, Note_on_c, 4, 62, 53
5, 108480, Note_off_c, 4, 62, 0
5, 108480, Note_on_c, 4, 64, 63
5, 109440, Note_off_c, 4, 64, 0
5, 109440, Note_on_c, 4, 62, 72
5, 110400, Note_off_c, 4, 62, 0
5, 118080, Note_on_c, 4, 58, 72
5, 118200, Note_off_c, 4, 58, 0
5, 118560, Note_on_c, 4, 58, 77
5, 118680, Note_off_c, 4, 58, 0
5, 119040, Note_on_c, 4, 57, 83
5, 119520, Note_off_c, 4, 57, 0
5, 120240, Note_on_c, 4, 62, 70
5, 120360, Note_off_c, 4, 62, 0
5, 120480, Note_on_c, 4, 55, 66
5, 120600, Note_off_c, 4, 55, 0
5, 120720, Note_on_c, 4, 58, 62
5, 120840, Note_off_c, 4, 58, 0
5, 120960, Note_on_c, 4, 57, 57
5, 121080, Note_off_c, 4, 57, 0
5, 121200, Note_on_c, 4, 60, 49
5, 121296, Note_off_c, 4, 60, 0
5, 121440, Note_on_c, 4, 57, 42
5, 121536, Note_off_c, 4, 57, 0
5, 121920, Control_c, 4, 64, 0
5, 121920, Note_on_c, 4, 64, 43
5, 122040, Note_off_c, 4, 64, 0
5, 122160, Note_on_c, 4, 64, 45
5, 122280, Note_off_c, 4, 64, 0
5, 122400, Note_on_c, 4, 63, 47
5, 122520, Note_off_c, 4, 63, 0
5, 122640, Note_on_c, 4, 63, 49
5, 122760, Note_off_c, 4, 63, 0
5, 122880, Note_on_c, 4, 64, 51
5, 123360, Note_off_c, 4, 64, 0
5, 123840, Note_on_c, 4, 62, 42
5, 123960, Note_off_c, 4, 62, 0
5, 124080, Note_on_c, 4, 62, 43
5, 124200, Note_off_c, 4, 62, 0
5, 124320, Note_on_c, 4, 61, 44
5, 124440, Note_off_c, 4, 61, 0
5, 124560, Note_on_c, 4, 61, 46
5, 124680, Note_off_c, 4, 61, 0
5, 124800, Note_on_c, 4, 62, 48
5, 125280, Note_off_c, 4, 62, 0
5, 125760, Note_on_c, 4, 64, 44
5, 126720, Note_off_c, 4, 64, 0
5, 126720, Note_on_c, 4, 62, 53
5, 127680, Note_off_c, 4, 62, 0
5, 127680, Note_on_c, 4, 64, 63
5, 128640, Note_off_c, 4, 64, 0
5, 128640, Note_on_c, 4, 62, 72
5, 129600, Note_off_c, 4, 62, 0
5, 137280, Note_on_c, 4, 58, 72
5, 137400, Note_off_c, 4, 58, 0
5, 137760, Note_on_c, 4, 58, 77
5, 137880, Note_off_c, 4, 58, 0
5, 138240, Note_on_c, 4, 57, 83
5, 138720, Note_off_c, 4, 57, 0
5, 139440, Note_on_c, 4, 62, 70
5, 139560, Note_off_c, 4, 62, 0
5, 139680, Note_on_c, 4, 55, 66
5, 139800, Note_off_c, 4, 55, 0
5, 139920, Note_on_c, 4, 58, 62
5, 140040, Note_off_c, 4, 58, 0
5, 140160, Note_on_c, 4, 57, 57
5, 140280, Note_off_c, 4, 57, 0
5, 140400, Note_on_c, 4, 60, 49
5, 140496, Note_off_c, 4, 60, 0
5, 140640, Note_on_c, 4, 57, 42
5, 140736, Note_off_c, 4, 57, 0
5, 141120, Control_c, 4, 64, 0
5, 152640, Control_c, 4, 64, 0
5, 164160, Control_c, 4, 64, 0
5, 181440, Control_c, 4, 64, 0
5, 198720, Control_c, 4, 64, 0
5, 202560, Control_c, 4, 64, 127
5, 202560, Note_on_c, 4, 36, 95
5, 202600, Note_on_c, 4, 40, 94
5, 202640, Note_on_c, 4, 43, 93
5, 202680, Note_on_c, 4, 48, 92
5, 203320, Note_off_c, 4, 40, 0
5, 203360, Note_off_c, 4, 43, 0
5, 203400, Note_off_c, 4, 48, 0
5, 203520, Note_off_c, 4, 36, 0
5, 204000, Control_c, 4, 64, 0
5, 211200, Note_on_c, 4, 58, 69
5, 211320, Note_off_c, 4, 58, 0
5, 211680, Note_on_c, 4, 58, 75
5, 211800, Note_off_c, 4, 58, 0
5, 212160, Note_on_c, 4, 57, 80
5, 212280, Note_off_c, 4, 57, 0
5, 212640, Note_on_c, 4, 57, 76
5, 212760, Note_off_c, 4, 57, 0
5, 213120, Note_on_c, 4, 55, 73
5, 213240, Note_off_c, 4, 55, 0
5, 213600, Note_on_c, 4, 57, 66
5, 213720, Note_off_c, 4, 57, 0
5, 218880, Note_on_c, 4, 58, 58
5, 219000, Note_off_c, 4, 58, 0
5, 219360, Note_on_c, 4, 58, 64
5, 219480, Note_off_c, 4, 58, 0
5, 219840, Note_on_c, 4, 57, 70
5, 220320, Note_off_c, 4, 57, 0
5, 221040, Note_on_c, 4, 62, 60
5, 221160, Note_off_c, 4, 62, 0
5, 221280, Note_on_c, 4, 55, 58
5, 221400, Note_off_c, 4, 55, 0
5, 221520, Note_on_c, 4, 58, 56
5, 221640, Note_off_c, 4, 58, 0
5, 221760, Note_on_c, 4, 57, 55
5, 221880, Note_off_c, 4, 57, 0
5, 222000, Note_on_c, 4, 60, 50
5, 222096, Note_off_c, 4, 60, 0
5, 222240, Note_on_c, 4, 57, 44
5, 222336, Note_off_c, 4, 57, 0
5, 222720, Note_on_c, 4, 67, 45
5, 223200, Note_off_c, 4, 67, 0
5, 223680, Note_on_c, 4, 69, 40
5, 224160, Note_off_c, 4, 69, 0
5, 224160, End_track
6, 0, Start_track
6, 0, Title_t, "Unnamed Track"
6, 0, Control_c, 5, 0, 0
6, 0, Control_c, 5, 32, 0
6, 0, Program_c, 5, 0
6, 0, Control_c, 5, 10, 55
6, 0, Control_c, 5, 91, 100
6, 0, Control_c, 5, 93, 28
6, 0, Control_c, 5, 64, 0
6, 0, Control_c, 5, 1, 0
6, 0, Pitch_bend_c, 5, 8192
6, 0, Control_c, 5, 7, 125
6, 480, Control_c, 5, 64, 0
6, 960, Control_c, 5, 64, 0
6, 960, Note_on_c, 5, 53, 83
6, 1200, Note_off_c, 5, 53, 0
6, 1440, Note_on_c, 5, 53, 80
6, 1680, Note_off_c, 5, 53, 0
6, 1920, Note_on_c, 5, 53, 84
6, 2400, Note_off_c, 5, 53, 0
6, 2880, Note_on_c, 5, 58, 71
6, 3000, Note_off_c, 5, 58, 0
6, 3120, Note_on_c, 5, 57, 67
6, 3240, Note_off_c, 5, 57, 0
6, 3360, Note_on_c, 5, 55, 63
6, 3480, Note_off_c, 5, 55, 0
6, 3600, Note_on_c, 5, 53, 60
6, 3720, Note_off_c, 5, 53, 0
6, 3840, Note_on_c, 5, 52, 56
6, 4320, Note_off_c, 5, 52, 0
6, 4800, Note_on_c, 5, 52, 79
6, 5040, Note_off_c, 5, 52, 0
6, 5280, Note_on_c, 5, 52, 78
6, 5520, Note_off_c, 5, 52, 0
6, 5760, Note_on_c, 5, 52, 82
6, 6240, Note_off_c, 5, 52, 0
6, 6720, Note_on_c, 5, 57, 57
6, 6840, Note_off_c, 5, 57, 0
6, 6960, Note_on_c, 5, 55, 54
6, 7080, Note_off_c, 5, 55, 0
6, 7200, Note_on_c, 5, 57, 52
6, 7320, Note_off_c, 5, 57, 0
6, 7440, Note_on_c, 5, 52, 49
6, 7560, Note_off_c, 5, 52, 0
6, 7680, Note_on_c, 5, 53, 47
6, 8095, Note_off_c, 5, 53, 0
6, 8640, Note_on_c, 5, 57, 55
6, 8760, Note_off_c, 5, 57, 0
6, 8880, Note_on_c, 5, 57, 54
6, 9000, Note_off_c, 5, 57, 0
6, 9120, Note_on_c, 5, 58, 54
6, 9240, Note_off_c, 5, 58, 0
6, 9360, Note_on_c, 5, 57, 53
6, 9480, Note_off_c, 5, 57, 0
6, 9600, Note_on_c, 5, 58, 52
6, 9720, Note_off_c, 5, 58, 0
6, 9840, Note_on_c, 5, 57, 51
6, 9960, Note_off_c, 5, 57, 0
6, 10560, Note_on_c, 5, 53, 51
6, 10680, Note_off_c, 5, 53, 0
6, 10800, Note_on_c, 5, 53, 50
6, 10920, Note_off_c, 5, 53, 0
6, 11040, Note_on_c, 5, 55, 48
6, 11160, Note_off_c, 5, 55, 0
6, 11280, Note_on_c, 5, 53, 47
6, 11400, Note_off_c, 5, 53, 0
6, 11520, Note_on_c, 5, 55, 46
6, 11640, Note_off_c, 5, 55, 0
6, 11760, Note_on_c, 5, 53, 45
6, 11880, Note_off_c, 5, 53, 0
6, 12480, Note_on_c, 5, 53, 77
6, 13440, Note_off_c, 5, 53, 0
6, 13440, Note_on_c, 5, 52, 68
6, 14400, Note_off_c, 5, 52, 0
6, 14400, Note_on_c, 5, 53, 53
6, 15360, Note_off_c, 5, 53, 0
6, 15360, Note_on_c, 5, 52, 45
6, 16320, Note_off_c, 5, 52, 0
6, 16560, Note_on_c, 5, 53, 61
6, 16800, Note_off_c, 5, 53, 0
6, 16800, Note_on_c, 5, 55, 45
6, 16920, Note_off_c, 5, 55, 0
6, 17040, Note_on_c, 5, 43, 45
6, 17155, Note_off_c, 5, 43, 0
6, 18240, Control_c, 5, 64, 0
6, 18240, Note_on_c, 5, 53, 83
6, 18480, Note_off_c, 5, 53, 0
6, 18720, Note_on_c, 5, 53, 80
6, 18960, Note_off_c, 5, 53, 0
6, 19200, Note_on_c, 5, 53, 84
6, 19680, Note_off_c, 5, 53, 0
6, 20160, Note_on_c, 5, 58, 71
6, 20280, Note_off_c, 5, 58, 0
6, 20400, Note_on_c, 5, 57, 67
6, 20520, Note_off_c, 5, 57, 0
6, 20640, Note_on_c, 5, 55, 63
6, 20760, Note_off_c, 5, 55, 0
6, 20880, Note_on_c, 5, 53, 60
6, 21000, Note_off_c, 5, 53, 0
6, 21120, Note_on_c, 5, 52, 56
6, 21600, Note_off_c, 5, 52, 0
6, 22080, Note_on_c, 5, 52, 79
6, 22320, Note_off_c, 5, 52, 0
6, 22560, Note_on_c, 5, 52, 78
6, 22800, Note_off_c, 5, 52, 0
6, 23040, Note_on_c, 5, 52, 82
6, 23520, Note_off_c, 5, 52, 0
6, 24000, Note_on_c, 5, 57, 57
6, 24120, Note_off_c, 5, 57, 0
6, 24240, Note_on_c, 5, 55, 54
6, 24360, Note_off_c, 5, 55, 0
6, 24480, Note_on_c, 5, 57, 52
6, 24600, Note_off_c, 5, 57, 0
6, 24720, Note_on_c, 5, 52, 49
6, 24840, Note_off_c, 5, 52, 0
6, 24960, Note_on_c, 5, 53, 47
6, 25375, Note_off_c, 5, 53, 0
6, 25920, Note_on_c, 5, 57, 55
6, 26040, Note_off_c, 5, 57, 0
6, 26160, Note_on_c, 5, 57, 54
6, 26280, Note_off_c, 5, 57, 0
6, 26400, Note_on_c, 5, 58, 54
6, 26520, Note_off_c, 5, 58, 0
6, 26640, Note_on_c, 5, 57, 53
6, 26760, Note_off_c, 5, 57, 0
6, 26880, Note_on_c, 5, 58, 52
6, 27000, Note_off_c, 5, 58, 0
6, 27120, Note_on_c, 5, 57, 51
6, 27240, Note_off_c, 5, 57, 0
6, 27840, Note_on_c, 5, 53, 51
6, 27960, Note_off_c, 5, 53, 0
6, 28080, Note_on_c, 5, 53, 50
6, 28200, Note_off_c, 5, 53, 0
6, 28320, Note_on_c, 5, 55, 48
6, 28440, Note_off_c, 5, 55, 0
6, 28560, Note_on_c, 5, 53, 47
6, 28680, Note_off_c, 5, 53, 0
6, 28800, Note_on_c, 5, 55, 46
6, 28920, Note_off_c, 5, 55, 0
6, 29040, Note_on_c, 5, 53, 45
6, 29160, Note_off_c, 5, 53, 0
6, 29760, Note_on_c, 5, 53, 77
6, 30720, Note_off_c, 5, 53, 0
6, 30720, Note_on_c, 5, 52, 68
6, 31680, Note_off_c, 5, 52, 0
6, 31680, Note_on_c, 5, 53, 53
6, 32640, Note_off_c, 5, 53, 0
6, 32640, Note_on_c, 5, 52, 45
6, 33600, Note_off_c, 5, 52, 0
6, 33840, Note_on_c, 5, 53, 61
6, 34080, Note_off_c, 5, 53, 0
6, 34080, Note_on_c, 5, 55, 45
6, 34200, Note_off_c, 5, 55, 0
6, 34320, Note_on_c, 5, 43, 45
6, 34435, Note_off_c, 5, 43, 0
6, 35520, Control_c, 5, 64, 0
6, 35520, Note_on_c, 5, 53, 79
6, 35760, Note_off_c, 5, 53, 0
6, 36000, Note_on_c, 5, 53, 76
6, 36240, Note_off_c, 5, 53, 0
6, 36480, Note_on_c, 5, 53, 80
6, 36960, Note_off_c, 5, 53, 0
6, 37440, Note_on_c, 5, 48, 59
6, 37560, Note_off_c, 5, 48, 0
6, 37680, Note_on_c, 5, 47, 56
6, 37800, Note_off_c, 5, 47, 0
6, 37920, Note_on_c, 5, 48, 53
6, 38040, Note_off_c, 5, 48, 0
6, 38160, Note_on_c, 5, 47, 48
6, 38280, Note_off_c, 5, 47, 0
6, 38400, Note_on_c, 5, 48, 43
6, 38820, Note_off_c, 5, 48, 0
6, 39360, Note_on_c, 5, 53, 75
6, 39600, Note_off_c, 5, 53, 0
6, 39840, Note_on_c, 5, 53, 72
6, 40080, Note_off_c, 5, 53, 0
6, 40320, Note_on_c, 5, 53, 76
6, 40800, Note_off_c, 5, 53, 0
6, 41280, Note_on_c, 5, 46, 59
6, 41400, Note_off_c, 5, 46, 0
6, 41520, Note_on_c, 5, 45, 55
6, 41640, Note_off_c, 5, 45, 0
6, 41760, Note_on_c, 5, 46, 50
6, 41880, Note_off_c, 5, 46, 0
6, 42000, Note_on_c, 5, 45, 44
6, 42120, Note_off_c, 5, 45, 0
6, 42240, Note_on_c, 5, 46, 40
6, 42660, Note_off_c, 5, 46, 0
6, 43200, Note_on_c, 5, 54, 55
6, 45115, Note_off_c, 5, 54, 0
6, 45120, Note_on_c, 5, 55, 44
6, 45295, Note_off_c, 5, 55, 0
6, 45360, Note_on_c, 5, 54, 54
6, 45600, Note_off_c, 5, 54, 0
6, 45600, Note_on_c, 5, 55, 43
6, 45780, Note_off_c, 5, 55, 0
6, 45840, Note_on_c, 5, 54, 53
6, 46080, Note_off_c, 5, 54, 0
6, 46080, Note_on_c, 5, 55, 43
6, 46260, Note_off_c, 5, 55, 0
6, 46320, Note_on_c, 5, 62, 55
6, 46560, Note_off_c, 5, 62, 0
6, 46560, Note_on_c, 5, 58, 54
6, 46800, Note_off_c, 5, 58, 0
6, 46800, Note_on_c, 5, 53, 52
6, 47040, Note_on_c, 5, 52, 51
6, 47045, Note_off_c, 5, 53, 0
6, 48960, Note_on_c, 5, 53, 41
6, 48965, Note_off_c, 5, 52, 0
6, 49135, Note_off_c, 5, 53, 0
6, 49200, Note_on_c, 5, 52, 50
6, 49440, Note_off_c, 5, 52, 0
6, 49440, Note_on_c, 5, 53, 40
6, 49620, Note_off_c, 5, 53, 0
6, 49680, Note_on_c, 5, 52, 50
6, 49920, Note_off_c, 5, 52, 0
6, 49920, Note_on_c, 5, 53, 40
6, 50100, Note_off_c, 5, 53, 0
6, 50160, Note_on_c, 5, 60, 53
6, 50400, Note_off_c, 5, 60, 0
6, 50400, Note_on_c, 5, 57, 51
6, 50640, Note_off_c, 5, 57, 0
6, 50640, Note_on_c, 5, 52, 50
6, 50880, Note_off_c, 5, 52, 0
6, 50880, Note_on_c, 5, 50, 48
6, 51840, Note_off_c, 5, 50, 0
6, 51840, Note_on_c, 5, 52, 43
6, 52020, Note_off_c, 5, 52, 0
6, 52080, Note_on_c, 5, 58, 51
6, 52320, Note_off_c, 5, 58, 0
6, 52320, Note_on_c, 5, 55, 49
6, 52560, Note_off_c, 5, 55, 0
6, 52560, Note_on_c, 5, 50, 47
6, 52800, Note_off_c, 5, 50, 0
6, 52800, Note_on_c, 5, 49, 45
6, 53760, Note_off_c, 5, 49, 0
6, 53760, Note_on_c, 5, 50, 42
6, 53945, Note_off_c, 5, 50, 0
6, 54000, Note_on_c, 5, 57, 49
6, 54240, Note_off_c, 5, 57, 0
6, 54240, Note_on_c, 5, 53, 48
6, 54480, Note_off_c, 5, 53, 0
6, 54480, Note_on_c, 5, 48, 47
6, 54720, Note_off_c, 5, 48, 0
6, 54720, Note_on_c, 5, 47, 46
6, 55200, Note_off_c, 5, 47, 0
6, 57600, Note_on_c, 5, 55, 61
6, 58080, Note_off_c, 5, 55, 0
6, 58560, Note_on_c, 5, 60, 65
6, 59040, Note_off_c, 5, 60, 0
6, 59040, Note_on_c, 5, 60, 67
6, 59520, Note_off_c, 5, 60, 0
6, 59520, Note_on_c, 5, 60, 69
6, 60000, Note_off_c, 5, 60, 0
6, 60000, Note_on_c, 5, 60, 71
6, 60480, Note_off_c, 5, 60, 0
6, 60480, Note_on_c, 5, 60, 73
6, 60960, Note_off_c, 5, 60, 0
6, 60960, Note_on_c, 5, 60, 75
6, 61440, Note_off_c, 5, 60, 0
6, 61440, Note_on_c, 5, 62, 77
6, 61920, Note_off_c, 5, 62, 0
6, 61920, Note_on_c, 5, 62, 79
6, 62400, Note_off_c, 5, 62, 0
6, 62400, Note_on_c, 5, 60, 81
6, 62760, Note_off_c, 5, 60, 0
6, 63360, Note_on_c, 5, 60, 76
6, 63720, Note_off_c, 5, 60, 0
6, 64320, Note_on_c, 5, 60, 71
6, 64680, Note_off_c, 5, 60, 0
6, 65280, Note_on_c, 5, 64, 67
6, 65640, Note_off_c, 5, 64, 0
6, 66240, Note_on_c, 5, 57, 63
6, 66360, Note_off_c, 5, 57, 0
6, 66480, Note_on_c, 5, 57, 63
6, 66600, Note_off_c, 5, 57, 0
6, 66720, Note_on_c, 5, 58, 62
6, 66840, Note_off_c, 5, 58, 0
6, 66960, Note_on_c, 5, 57, 61
6, 67080, Note_off_c, 5, 57, 0
6, 67200, Note_on_c, 5, 58, 61
6, 67320, Note_off_c, 5, 58, 0
6, 67440, Note_on_c, 5, 57, 60
6, 67560, Note_off_c, 5, 57, 0
6, 68160, Note_on_c, 5, 53, 58
6, 68280, Note_off_c, 5, 53, 0
6, 68400, Note_on_c, 5, 53, 57
6, 68520, Note_off_c, 5, 53, 0
6, 68640, Note_on_c, 5, 55, 56
6, 68760, Note_off_c, 5, 55, 0
6, 68880, Note_on_c, 5, 53, 55
6, 69000, Note_off_c, 5, 53, 0
6, 69120, Note_on_c, 5, 55, 55
6, 69240, Note_off_c, 5, 55, 0
6, 69360, Note_on_c, 5, 53, 54
6, 69480, Note_off_c, 5, 53, 0
6, 70080, Note_on_c, 5, 53, 79
6, 71040, Note_off_c, 5, 53, 0
6, 71040, Note_on_c, 5, 52, 67
6, 71460, Note_off_c, 5, 52, 0
6, 72000, Note_on_c, 5, 58, 75
6, 72960, Note_off_c, 5, 58, 0
6, 72960, Note_on_c, 5, 57, 63
6, 73440, Note_off_c, 5, 57, 0
6, 74160, Note_on_c, 5, 58, 85
6, 74400, Note_off_c, 5, 58, 0
6, 74400, Note_on_c, 5, 60, 71
6, 74520, Note_off_c, 5, 60, 0
6, 74640, Note_on_c, 5, 48, 69
6, 74760, Note_off_c, 5, 48, 0
6, 76080, Note_on_c, 5, 64, 55
6, 76320, Note_off_c, 5, 64, 0
6, 76320, Note_on_c, 5, 67, 55
6, 76560, Note_off_c, 5, 67, 0
6, 76560, Note_on_c, 5, 70, 52
6, 76800, Note_off_c, 5, 70, 0
6, 76800, Note_on_c, 5, 69, 50
6, 76800, Note_on_c, 5, 65, 50
6, 77280, Note_off_c, 5, 65, 0
6, 77280, Note_off_c, 5, 69, 0
6, 78000, Note_on_c, 5, 64, 50
6, 78240, Note_off_c, 5, 64, 0
6, 78240, Note_on_c, 5, 67, 50
6, 78480, Note_off_c, 5, 67, 0
6, 78480, Note_on_c, 5, 70, 48
6, 78720, Note_off_c, 5, 70, 0
6, 78720, Note_on_c, 5, 69, 46
6, 78720, Note_on_c, 5, 65, 46
6, 79200, Note_off_c, 5, 65, 0
6, 79200, Note_off_c, 5, 69, 0
6, 79920, Note_on_c, 5, 64, 48
6, 80160, Note_off_c, 5, 64, 0
6, 80160, Note_on_c, 5, 67, 51
6, 80400, Note_off_c, 5, 67, 0
6, 80400, Note_on_c, 5, 70, 53
6, 80640, Note_off_c, 5, 70, 0
6, 80640, Note_on_c, 5, 67, 56
6, 80880, Note_off_c, 5, 67, 0
6, 80880, Note_on_c, 5, 64, 58
6, 81120, Note_off_c, 5, 64, 0
6, 81120, Note_on_c, 5, 67, 61
6, 81360, Note_off_c, 5, 67, 0
6, 81360, Note_on_c, 5, 70, 63
6, 81600, Note_off_c, 5, 70, 0
6, 81600, Note_on_c, 5, 69, 64
6, 81600, Note_on_c, 5, 65, 64
6, 82080, Note_off_c, 5, 65, 0
6, 82080, Note_off_c, 5, 69, 0
6, 82560, Note_on_c, 5, 67, 79
6, 82560, Note_on_c, 5, 60, 79
6, 83040, Note_off_c, 5, 60, 0
6, 83040, Note_off_c, 5, 67, 0
6, 83520, Note_on_c, 5, 65, 96
6, 83520, Note_on_c, 5, 57, 96
6, 84000, Note_off_c, 5, 57, 0
6, 84000, Note_off_c, 5, 65, 0
6, 84480, Note_on_c, 5, 60, 94
6, 84480, Note_on_c, 5, 48, 94
6, 84960, Note_off_c, 5, 48, 0
6, 84960, Note_off_c, 5, 60, 0
6, 85440, Note_on_c, 5, 53, 91
6, 85440, Note_on_c, 5, 41, 91
6, 85920, Note_off_c, 5, 41, 0
6, 85920, Note_off_c, 5, 53, 0
6, 87360, Control_c, 5, 64, 0
6, 87360, Control_c, 5, 64, 0
6, 87360, Note_on_c, 5, 57, 42
6, 87480, Note_off_c, 5, 57, 0
6, 87600, Note_on_c, 5, 53, 43
6, 87720, Note_off_c, 5, 53, 0
6, 87840, Note_on_c, 5, 56, 43
6, 87960, Note_off_c, 5, 56, 0
6, 88080, Note_on_c, 5, 53, 44
6, 88200, Note_off_c, 5, 53, 0
6, 88320, Note_on_c, 5, 57, 45
6, 88440, Note_off_c, 5, 57, 0
6, 88560, Note_on_c, 5, 53, 47
6, 88680, Note_off_c, 5, 53, 0
6, 88800, Note_on_c, 5, 57, 49
6, 88920, Note_off_c, 5, 57, 0
6, 89040, Note_on_c, 5, 53, 56
6, 89280, Note_off_c, 5, 53, 0
6, 89280, Note_on_c, 5, 58, 53
6, 89400, Note_off_c, 5, 58, 0
6, 89520, Note_on_c, 5, 53, 53
6, 89640, Note_off_c, 5, 53, 0
6, 89760, Note_on_c, 5, 57, 55
6, 89880, Note_off_c, 5, 57, 0
6, 90000, Note_on_c, 5, 53, 58
6, 90120, Note_off_c, 5, 53, 0
6, 90240, Note_on_c, 5, 58, 61
6, 90360, Note_off_c, 5, 58, 0
6, 90480, Note_on_c, 5, 53, 65
6, 90600, Note_off_c, 5, 53, 0
6, 90720, Note_on_c, 5, 58, 68
6, 90840, Note_off_c, 5, 58, 0
6, 90960, Note_on_c, 5, 53, 76
6, 91200, Note_off_c, 5, 53, 0
6, 91200, Note_on_c, 5, 55, 74
6, 91320, Note_off_c, 5, 55, 0
6, 91440, Note_on_c, 5, 48, 76
6, 91560, Note_off_c, 5, 48, 0
6, 91680, Note_on_c, 5, 55, 79
6, 91800, Note_off_c, 5, 55, 0
6, 91920, Note_on_c, 5, 48, 82
6, 92040, Note_off_c, 5, 48, 0
6, 92160, Note_on_c, 5, 53, 86
6, 92280, Note_off_c, 5, 53, 0
6, 92400, Note_on_c, 5, 48, 85
6, 92520, Note_off_c, 5, 48, 0
6, 92640, Note_on_c, 5, 53, 82
6, 92760, Note_off_c, 5, 53, 0
6, 92880, Note_on_c, 5, 48, 80
6, 93000, Note_off_c, 5, 48, 0
6, 93120, Note_on_c, 5, 52, 79
6, 93240, Note_off_c, 5, 52, 0
6, 93360, Note_on_c, 5, 48, 75
6, 93480, Note_off_c, 5, 48, 0
6, 93600, Note_on_c, 5, 53, 71
6, 93720, Note_off_c, 5, 53, 0
6, 93840, Note_on_c, 5, 48, 67
6, 93960, Note_off_c, 5, 48, 0
6, 94080, Control_c, 5, 64, 127
6, 94080, Note_on_c, 5, 48, 63
6, 94120, Note_on_c, 5, 52, 62
6, 94160, Note_on_c, 5, 55, 61
6, 94200, Note_on_c, 5, 60, 60
6, 94555, Note_off_c, 5, 52, 0
6, 94560, Control_c, 5, 64, 0
6, 94560, Note_off_c, 5, 60, 0
6, 94560, Note_off_c, 5, 48, 0
6, 94565, Note_off_c, 5, 55, 0
6, 95040, Note_on_c, 5, 57, 46
6, 95160, Note_off_c, 5, 57, 0
6, 95280, Note_on_c, 5, 53, 48
6, 95400, Note_off_c, 5, 53, 0
6, 95520, Note_on_c, 5, 56, 49
6, 95640, Note_off_c, 5, 56, 0
6, 95760, Note_on_c, 5, 53, 51
6, 95880, Note_off_c, 5, 53, 0
6, 96000, Note_on_c, 5, 57, 52
6, 96120, Note_off_c, 5, 57, 0
6, 96240, Note_on_c, 5, 53, 54
6, 96360, Note_off_c, 5, 53, 0
6, 96480, Note_on_c, 5, 57, 56
6, 96600, Note_off_c, 5, 57, 0
6, 96720, Note_on_c, 5, 53, 62
6, 96960, Note_off_c, 5, 53, 0
6, 96960, Note_on_c, 5, 58, 59
6, 97080, Note_off_c, 5, 58, 0
6, 97200, Note_on_c, 5, 53, 61
6, 97320, Note_off_c, 5, 53, 0
6, 97440, Note_on_c, 5, 57, 62
6, 97560, Note_off_c, 5, 57, 0
6, 97680, Note_on_c, 5, 53, 64
6, 97800, Note_off_c, 5, 53, 0
6, 97920, Note_on_c, 5, 58, 66
6, 98040, Note_off_c, 5, 58, 0
6, 98160, Note_on_c, 5, 53, 67
6, 98280, Note_off_c, 5, 53, 0
6, 98400, Note_on_c, 5, 58, 69
6, 98520, Note_off_c, 5, 58, 0
6, 98640, Note_on_c, 5, 53, 79
6, 98880, Note_off_c, 5, 53, 0
6, 98880, Note_on_c, 5, 55, 74
6, 99000, Note_off_c, 5, 55, 0
6, 99120, Note_on_c, 5, 48, 75
6, 99240, Note_off_c, 5, 48, 0
6, 99360, Note_on_c, 5, 55, 77
6, 99480, Note_off_c, 5, 55, 0
6, 99600, Note_on_c, 5, 48, 79
6, 99720, Note_off_c, 5, 48, 0
6, 99840, Note_on_c, 5, 53, 83
6, 100320, Note_off_c, 5, 53, 0
6, 100800, Note_on_c, 5, 58, 73
6, 100920, Note_off_c, 5, 58, 0
6, 101280, Note_on_c, 5, 48, 65
6, 101400, Note_off_c, 5, 48, 0
6, 101760, Note_on_c, 5, 53, 58
6, 101880, Note_off_c, 5, 53, 0
6, 102240, Note_on_c, 5, 53, 41
6, 102336, Note_off_c, 5, 53, 0
6, 102720, Control_c, 5, 64, 0
6, 102720, Note_on_c, 5, 60, 43
6, 102840, Note_off_c, 5, 60, 0
6, 102960, Note_on_c, 5, 60, 45
6, 103080, Note_off_c, 5, 60, 0
6, 103200, Note_on_c, 5, 60, 47
6, 103320, Note_off_c, 5, 60, 0
6, 103440, Note_on_c, 5, 60, 49
6, 103560, Note_off_c, 5, 60, 0
6, 103680, Note_on_c, 5, 60, 51
6, 104160, Note_off_c, 5, 60, 0
6, 104640, Note_on_c, 5, 55, 42
6, 104760, Note_off_c, 5, 55, 0
6, 104880, Note_on_c, 5, 55, 43
6, 105000, Note_off_c, 5, 55, 0
6, 105120, Note_on_c, 5, 55, 44
6, 105240, Note_off_c, 5, 55, 0
6, 105360, Note_on_c, 5, 55, 46
6, 105480, Note_off_c, 5, 55, 0
6, 105600, Note_on_c, 5, 55, 48
6, 106080, Note_off_c, 5, 55, 0
6, 106560, Note_on_c, 5, 60, 44
6, 107520, Note_off_c, 5, 60, 0
6, 107520, Note_on_c, 5, 55, 53
6, 108480, Note_off_c, 5, 55, 0
6, 108480, Note_on_c, 5, 60, 63
6, 109440, Note_off_c, 5, 60, 0
6, 109440, Note_on_c, 5, 55, 72
6, 110400, Note_off_c, 5, 55, 0
6, 110400, Note_on_c, 5, 60, 80
6, 110880, Note_off_c, 5, 60, 0
6, 110880, Note_on_c, 5, 65, 82
6, 111360, Note_off_c, 5, 65, 0
6, 111360, Note_on_c, 5, 67, 87
6, 111840, Note_off_c, 5, 67, 0
6, 111840, Note_on_c, 5, 55, 80
6, 112320, Note_off_c, 5, 55, 0
6, 112320, Note_on_c, 5, 60, 72
6, 112500, Note_off_c, 5, 60, 0
6, 114240, Note_on_c, 5, 57, 44
6, 114360, Note_off_c, 5, 57, 0
6, 114480, Note_on_c, 5, 53, 46
6, 114576, Note_off_c, 5, 53, 0
6, 114720, Note_on_c, 5, 56, 47
6, 114840, Note_off_c, 5, 56, 0
6, 114960, Note_on_c, 5, 53, 49
6, 115056, Note_off_c, 5, 53, 0
6, 115200, Note_on_c, 5, 57, 51
6, 115320, Note_off_c, 5, 57, 0
6, 115440, Note_on_c, 5, 53, 53
6, 115536, Note_off_c, 5, 53, 0
6, 115680, Note_on_c, 5, 57, 54
6, 115800, Note_off_c, 5, 57, 0
6, 115920, Note_on_c, 5, 53, 63
6, 116160, Note_on_c, 5, 58, 58
6, 116165, Note_off_c, 5, 53, 0
6, 116280, Note_off_c, 5, 58, 0
6, 116400, Note_on_c, 5, 53, 59
6, 116496, Note_off_c, 5, 53, 0
6, 116640, Note_on_c, 5, 57, 61
6, 116760, Note_off_c, 5, 57, 0
6, 116880, Note_on_c, 5, 53, 63
6, 116976, Note_off_c, 5, 53, 0
6, 117120, Note_on_c, 5, 58, 65
6, 117240, Note_off_c, 5, 58, 0
6, 117360, Note_on_c, 5, 53, 66
6, 117456, Note_off_c, 5, 53, 0
6, 117600, Note_on_c, 5, 58, 68
6, 117720, Note_off_c, 5, 58, 0
6, 117840, Note_on_c, 5, 53, 76
6, 118080, Note_off_c, 5, 53, 0
6, 118080, Note_on_c, 5, 55, 72
6, 118200, Note_off_c, 5, 55, 0
6, 118320, Note_on_c, 5, 48, 74
6, 118440, Note_off_c, 5, 48, 0
6, 118560, Note_on_c, 5, 55, 77
6, 118680, Note_off_c, 5, 55, 0
6, 118800, Note_on_c, 5, 48, 80
6, 118920, Note_off_c, 5, 48, 0
6, 119040, Note_on_c, 5, 53, 83
6, 119520, Note_off_c, 5, 53, 0
6, 120000, Note_on_c, 5, 58, 74
6, 120120, Note_off_c, 5, 58, 0
6, 120480, Note_on_c, 5, 48, 66
6, 120600, Note_off_c, 5, 48, 0
6, 120960, Note_on_c, 5, 53, 57
6, 121080, Note_off_c, 5, 53, 0
6, 121440, Note_on_c, 5, 53, 42
6, 121536, Note_off_c, 5, 53, 0
6, 121920, Control_c, 5, 64, 0
6, 121920, Note_on_c, 5, 60, 43
6, 122040, Note_off_c, 5, 60, 0
6, 122160, Note_on_c, 5, 60, 45
6, 122280, Note_off_c, 5, 60, 0
6, 122400, Note_on_c, 5, 60, 47
6, 122520, Note_off_c, 5, 60, 0
6, 122640, Note_on_c, 5, 60, 49
6, 122760, Note_off_c, 5, 60, 0
6, 122880, Note_on_c, 5, 60, 51
6, 123360, Note_off_c, 5, 60, 0
6, 123840, Note_on_c, 5, 55, 42
6, 123960, Note_off_c, 5, 55, 0
6, 124080, Note_on_c, 5, 55, 43
6, 124200, Note_off_c, 5, 55, 0
6, 124320, Note_on_c, 5, 55, 44
6, 124440, Note_off_c, 5, 55, 0
6, 124560, Note_on_c, 5, 55, 46
6, 124680, Note_off_c, 5, 55, 0
6, 124800, Note_on_c, 5, 55, 48
6, 125280, Note_off_c, 5, 55, 0
6, 125760, Note_on_c, 5, 60, 44
6, 126720, Note_off_c, 5, 60, 0
6, 126720, Note_on_c, 5, 55, 53
6, 127680, Note_off_c, 5, 55, 0
6, 127680, Note_on_c, 5, 60, 63
6, 128640, Note_off_c, 5, 60, 0
6, 128640, Note_on_c, 5, 55, 72
6, 129600, Note_off_c, 5, 55, 0
6, 129600, Note_on_c, 5, 60, 80
6, 130080, Note_off_c, 5, 60, 0
6, 130080, Note_on_c, 5, 65, 82
6, 130560, Note_off_c, 5, 65, 0
6, 130560, Note_on_c, 5, 67, 87
6, 131040, Note_off_c, 5, 67, 0
6, 131040, Note_on_c, 5, 55, 80
6, 131520, Note_off_c, 5, 55, 0
6, 131520, Note_on_c, 5, 60, 72
6, 131700, Note_off_c, 5, 60, 0
6, 133440, Note_on_c, 5, 57, 44
6, 133560, Note_off_c, 5, 57, 0
6, 133680, Note_on_c, 5, 53, 46
6, 133776, Note_off_c, 5, 53, 0
6, 133920, Note_on_c, 5, 56, 47
6, 134040, Note_off_c, 5, 56, 0
6, 134160, Note_on_c, 5, 53, 49
6, 134256, Note_off_c, 5, 53, 0
6, 134400, Note_on_c, 5, 57, 51
6, 134520, Note_off_c, 5, 57, 0
6, 134640, Note_on_c, 5, 53, 53
6, 134736, Note_off_c, 5, 53, 0
6, 134880, Note_on_c, 5, 57, 54
6, 135000, Note_off_c, 5, 57, 0
6, 135120, Note_on_c, 5, 53, 63
6, 135360, Note_on_c, 5, 58, 58
6, 135365, Note_off_c, 5, 53, 0
6, 135480, Note_off_c, 5, 58, 0
6, 135600, Note_on_c, 5, 53, 59
6, 135696, Note_off_c, 5, 53, 0
6, 135840, Note_on_c, 5, 57, 61
6, 135960, Note_off_c, 5, 57, 0
6, 136080, Note_on_c, 5, 53, 63
6, 136176, Note_off_c, 5, 53, 0
6, 136320, Note_on_c, 5, 58, 65
6, 136440, Note_off_c, 5, 58, 0
6, 136560, Note_on_c, 5, 53, 66
6, 136656, Note_off_c, 5, 53, 0
6, 136800, Note_on_c, 5, 58, 68
6, 136920, Note_off_c, 5, 58, 0
6, 137040, Note_on_c, 5, 53, 76
6, 137280, Note_off_c, 5, 53, 0
6, 137280, Note_on_c, 5, 55, 72
6, 137400, Note_off_c, 5, 55, 0
6, 137520, Note_on_c, 5, 48, 74
6, 137640, Note_off_c, 5, 48, 0
6, 137760, Note_on_c, 5, 55, 77
6, 137880, Note_off_c, 5, 55, 0
6, 138000, Note_on_c, 5, 48, 80
6, 138120, Note_off_c, 5, 48, 0
6, 138240, Note_on_c, 5, 53, 83
6, 138720, Note_off_c, 5, 53, 0
6, 139200, Note_on_c, 5, 58, 74
6, 139320, Note_off_c, 5, 58, 0
6, 139680, Note_on_c, 5, 48, 66
6, 139800, Note_off_c, 5, 48, 0
6, 140160, Note_on_c, 5, 53, 57
6, 140280, Note_off_c, 5, 53, 0
6, 140640, Note_on_c, 5, 53, 42
6, 140736, Note_off_c, 5, 53, 0
6, 141120, Control_c, 5, 64, 0
6, 141120, Note_on_c, 5, 62, 46
6, 141600, Note_off_c, 5, 62, 0
6, 141600, Note_on_c, 5, 62, 49
6, 142080, Note_off_c, 5, 62, 0
6, 142080, Note_on_c, 5, 64, 52
6, 142560, Note_off_c, 5, 64, 0
6, 142560, Note_on_c, 5, 64, 48
6, 143040, Note_off_c, 5, 64, 0
6, 143040, Note_on_c, 5, 61, 51
6, 143520, Note_off_c, 5, 61, 0
6, 143520, Note_on_c, 5, 61, 54
6, 144000, Note_off_c, 5, 61, 0
6, 144000, Note_on_c, 5, 62, 58
6, 144480, Note_off_c, 5, 62, 0
6, 144480, Note_on_c, 5, 62, 51
6, 144900, Note_off_c, 5, 62, 0
6, 144960, Note_on_c, 5, 53, 47
6, 145440, Note_off_c, 5, 53, 0
6, 145440, Note_on_c, 5, 57, 51
6, 145920, Note_off_c, 5, 57, 0
6, 145920, Note_on_c, 5, 55, 59
6, 146400, Note_off_c, 5, 55, 0
6, 146400, Note_on_c, 5, 58, 55
6, 146840, Note_off_c, 5, 58, 0
6, 146880, Note_on_c, 5, 53, 56
6, 147360, Note_off_c, 5, 53, 0
6, 147360, Note_on_c, 5, 57, 63
6, 147840, Note_off_c, 5, 57, 0
6, 147840, Note_on_c, 5, 55, 70
6, 148320, Note_off_c, 5, 55, 0
6, 148320, Note_on_c, 5, 58, 65
6, 148745, Note_off_c, 5, 58, 0
6, 148800, Note_on_c, 5, 53, 71
6, 149280, Note_off_c, 5, 53, 0
6, 149280, Note_on_c, 5, 57, 77
6, 149760, Note_off_c, 5, 57, 0
6, 149760, Note_on_c, 5, 55, 86
6, 150240, Note_off_c, 5, 55, 0
6, 150240, Note_on_c, 5, 53, 79
6, 150720, Note_off_c, 5, 53, 0
6, 150720, Note_on_c, 5, 52, 72
6, 151200, Note_off_c, 5, 52, 0
6, 151200, Note_on_c, 5, 50, 65
6, 151680, Note_off_c, 5, 50, 0
6, 151680, Note_on_c, 5, 57, 58
6, 152395, Note_off_c, 5, 57, 0
6, 152640, Control_c, 5, 64, 0
6, 152640, Note_on_c, 5, 62, 46
6, 153120, Note_off_c, 5, 62, 0
6, 153120, Note_on_c, 5, 62, 49
6, 153600, Note_off_c, 5, 62, 0
6, 153600, Note_on_c, 5, 64, 52
6, 154080, Note_off_c, 5, 64, 0
6, 154080, Note_on_c, 5, 64, 48
6, 154560, Note_off_c, 5, 64, 0
6, 154560, Note_on_c, 5, 61, 51
6, 155040, Note_off_c, 5, 61, 0
6, 155040, Note_on_c, 5, 61, 54
6, 155520, Note_off_c, 5, 61, 0
6, 155520, Note_on_c, 5, 62, 58
6, 156000, Note_off_c, 5, 62, 0
6, 156000, Note_on_c, 5, 62, 51
6, 156420, Note_off_c, 5, 62, 0
6, 156480, Note_on_c, 5, 53, 47
6, 156960, Note_off_c, 5, 53, 0
6, 156960, Note_on_c, 5, 57, 51
6, 157440, Note_off_c, 5, 57, 0
6, 157440, Note_on_c, 5, 55, 59
6, 157920, Note_off_c, 5, 55, 0
6, 157920, Note_on_c, 5, 58, 55
6, 158360, Note_off_c, 5, 58, 0
6, 158400, Note_on_c, 5, 53, 56
6, 158880, Note_off_c, 5, 53, 0
6, 158880, Note_on_c, 5, 57, 63
6, 159360, Note_off_c, 5, 57, 0
6, 159360, Note_on_c, 5, 55, 70
6, 159840, Note_off_c, 5, 55, 0
6, 159840, Note_on_c, 5, 58, 65
6, 160265, Note_off_c, 5, 58, 0
6, 160320, Note_on_c, 5, 53, 71
6, 160800, Note_off_c, 5, 53, 0
6, 160800, Note_on_c, 5, 57, 77
6, 161280, Note_off_c, 5, 57, 0
6, 161280, Note_on_c, 5, 55, 86
6, 161760, Note_off_c, 5, 55, 0
6, 161760, Note_on_c, 5, 53, 79
6, 162240, Note_off_c, 5, 53, 0
6, 162240, Note_on_c, 5, 52, 72
6, 162720, Note_off_c, 5, 52, 0
6, 162720, Note_on_c, 5, 50, 65
6, 163200, Note_off_c, 5, 50, 0
6, 163200, Note_on_c, 5, 57, 58
6, 163915, Note_off_c, 5, 57, 0
6, 164160, Control_c, 5, 64, 0
6, 164160, Note_on_c, 5, 62, 47
6, 164640, Note_off_c, 5, 62, 0
6, 164640, Note_on_c, 5, 62, 50
6, 165120, Note_off_c, 5, 62, 0
6, 165120, Note_on_c, 5, 57, 57
6, 165600, Note_off_c, 5, 57, 0
6, 165600, Note_on_c, 5, 57, 48
6, 166020, Note_off_c, 5, 57, 0
6, 166080, Note_on_c, 5, 58, 45
6, 166560, Note_off_c, 5, 58, 0
6, 166560, Note_on_c, 5, 58, 48
6, 167040, Note_off_c, 5, 58, 0
6, 167040, Note_on_c, 5, 53, 53
6, 167520, Note_off_c, 5, 53, 0
6, 167520, Note_on_c, 5, 53, 46
6, 167940, Note_off_c, 5, 53, 0
6, 168000, Note_on_c, 5, 58, 64
6, 168480, Note_off_c, 5, 58, 0
6, 168480, Note_on_c, 5, 62, 68
6, 168960, Note_off_c, 5, 62, 0
6, 168960, Note_on_c, 5, 57, 73
6, 169860, Note_off_c, 5, 57, 0
6, 169920, Note_on_c, 5, 55, 59
6, 170400, Note_off_c, 5, 55, 0
6, 170400, Note_on_c, 5, 58, 63
6, 170880, Note_off_c, 5, 58, 0
6, 170880, Note_on_c, 5, 53, 67
6, 171780, Note_off_c, 5, 53, 0
6, 171840, Note_on_c, 5, 49, 78
6, 172252, Note_off_c, 5, 49, 0
6, 172320, Note_on_c, 5, 50, 82
6, 172687, Note_off_c, 5, 50, 0
6, 172800, Note_on_c, 5, 45, 87
6, 173280, Note_off_c, 5, 45, 0
6, 173760, Note_on_c, 5, 62, 42
6, 174240, Note_off_c, 5, 62, 0
6, 174240, Note_on_c, 5, 62, 46
6, 174720, Note_off_c, 5, 62, 0
6, 174720, Note_on_c, 5, 64, 52
6, 175200, Note_off_c, 5, 64, 0
6, 175200, Note_on_c, 5, 64, 47
6, 175680, Note_off_c, 5, 64, 0
6, 175680, Note_on_c, 5, 61, 45
6, 176160, Note_off_c, 5, 61, 0
6, 176160, Note_on_c, 5, 61, 50
6, 176640, Note_off_c, 5, 61, 0
6, 176640, Note_on_c, 5, 62, 55
6, 177120, Note_off_c, 5, 62, 0
6, 177120, Note_on_c, 5, 62, 48
6, 177535, Note_off_c, 5, 62, 0
6, 177600, Note_on_c, 5, 53, 60
6, 178080, Note_off_c, 5, 53, 0
6, 178080, Note_on_c, 5, 57, 65
6, 178560, Note_off_c, 5, 57, 0
6, 178560, Note_on_c, 5, 55, 73
6, 179040, Note_off_c, 5, 55, 0
6, 179040, Note_on_c, 5, 58, 69
6, 179520, Note_off_c, 5, 58, 0
6, 179520, Note_on_c, 5, 62, 81
6, 180000, Note_off_c, 5, 62, 0
6, 180000, Note_on_c, 5, 61, 76
6, 180480, Note_off_c, 5, 61, 0
6, 180480, Note_on_c, 5, 62, 70
6, 180720, Note_off_c, 5, 62, 0
6, 180720, Note_on_c, 5, 57, 62
6, 180960, Note_off_c, 5, 57, 0
6, 180960, Note_on_c, 5, 50, 56
6, 181200, Note_off_c, 5, 50, 0
6, 181440, Control_c, 5, 64, 0
6, 181440, Note_on_c, 5, 62, 47
6, 181920, Note_off_c, 5, 62, 0
6, 181920, Note_on_c, 5, 62, 50
6, 182400, Note_off_c, 5, 62, 0
6, 182400, Note_on_c, 5, 57, 57
6, 182880, Note_off_c, 5, 57, 0
6, 182880, Note_on_c, 5, 57, 48
6, 183300, Note_off_c, 5, 57, 0
6, 183360, Note_on_c, 5, 58, 45
6, 183840, Note_off_c, 5, 58, 0
6, 183840, Note_on_c, 5, 58, 48
6, 184320, Note_off_c, 5, 58, 0
6, 184320, Note_on_c, 5, 53, 53
6, 184800, Note_off_c, 5, 53, 0
6, 184800, Note_on_c, 5, 53, 46
6, 185220, Note_off_c, 5, 53, 0
6, 185280, Note_on_c, 5, 58, 64
6, 185760, Note_off_c, 5, 58, 0
6, 185760, Note_on_c, 5, 62, 68
6, 186240, Note_off_c, 5, 62, 0
6, 186240, Note_on_c, 5, 57, 73
6, 187140, Note_off_c, 5, 57, 0
6, 187200, Note_on_c, 5, 55, 59
6, 187680, Note_off_c, 5, 55, 0
6, 187680, Note_on_c, 5, 58, 63
6, 188160, Note_off_c, 5, 58, 0
6, 188160, Note_on_c, 5, 53, 67
6, 189060, Note_off_c, 5, 53, 0
6, 189120, Note_on_c, 5, 49, 78
6, 189532, Note_off_c, 5, 49, 0
6, 189600, Note_on_c, 5, 50, 82
6, 189967, Note_off_c, 5, 50, 0
6, 190080, Note_on_c, 5, 45, 87
6, 190560, Note_off_c, 5, 45, 0
6, 191040, Note_on_c, 5, 62, 42
6, 191520, Note_off_c, 5, 62, 0
6, 191520, Note_on_c, 5, 62, 46
6, 192000, Note_off_c, 5, 62, 0
6, 192000, Note_on_c, 5, 64, 52
6, 192480, Note_off_c, 5, 64, 0
6, 192480, Note_on_c, 5, 64, 47
6, 192960, Note_off_c, 5, 64, 0
6, 192960, Note_on_c, 5, 61, 45
6, 193440, Note_off_c, 5, 61, 0
6, 193440, Note_on_c, 5, 61, 50
6, 193920, Note_off_c, 5, 61, 0
6, 193920, Note_on_c, 5, 62, 55
6, 194400, Note_off_c, 5, 62, 0
6, 194400, Note_on_c, 5, 62, 48
6, 194815, Note_off_c, 5, 62, 0
6, 194880, Note_on_c, 5, 53, 60
6, 195360, Note_off_c, 5, 53, 0
6, 195360, Note_on_c, 5, 57, 65
6, 195840, Note_off_c, 5, 57, 0
6, 195840, Note_on_c, 5, 55, 73
6, 196320, Note_off_c, 5, 55, 0
6, 196320, Note_on_c, 5, 58, 69
6, 196800, Note_off_c, 5, 58, 0
6, 196800, Note_on_c, 5, 62, 81
6, 197280, Note_off_c, 5, 62, 0
6, 197280, Note_on_c, 5, 61, 76
6, 197760, Note_off_c, 5, 61, 0
6, 197760, Note_on_c, 5, 62, 70
6, 198000, Note_off_c, 5, 62, 0
6, 198000, Note_on_c, 5, 57, 62
6, 198240, Note_off_c, 5, 57, 0
6, 198240, Note_on_c, 5, 50, 56
6, 198480, Note_off_c, 5, 50, 0
6, 198720, Control_c, 5, 64, 0
6, 198720, Note_on_c, 5, 58, 63
6, 198960, Note_off_c, 5, 58, 0
6, 198960, Note_on_c, 5, 55, 62
6, 199200, Note_off_c, 5, 55, 0
6, 199200, Note_on_c, 5, 48, 59
6, 199440, Note_off_c, 5, 48, 0
6, 199680, Note_on_c, 5, 57, 72
6, 199920, Note_off_c, 5, 57, 0
6, 199920, Note_on_c, 5, 53, 69
6, 200160, Note_off_c, 5, 53, 0
6, 200160, Note_on_c, 5, 48, 66
6, 200400, Note_off_c, 5, 48, 0
6, 200640, Note_on_c, 5, 55, 81
6, 200880, Note_off_c, 5, 55, 0
6, 200880, Note_on_c, 5, 52, 78
6, 201120, Note_off_c, 5, 52, 0
6, 201120, Note_on_c, 5, 48, 72
6, 201360, Note_off_c, 5, 48, 0
6, 201600, Note_on_c, 5, 53, 89
6, 201840, Note_off_c, 5, 53, 0
6, 201840, Note_on_c, 5, 48, 86
6, 202080, Note_off_c, 5, 48, 0
6, 202080, Note_on_c, 5, 41, 80
6, 202320, Note_off_c, 5, 41, 0
6, 207360, Note_on_c, 5, 57, 46
6, 207480, Note_off_c, 5, 57, 0
6, 207600, Note_on_c, 5, 53, 48
6, 207720, Note_off_c, 5, 53, 0
6, 207840, Note_on_c, 5, 56, 49
6, 207960, Note_off_c, 5, 56, 0
6, 208080, Note_on_c, 5, 53, 51
6, 208200, Note_off_c, 5, 53, 0
6, 208320, Note_on_c, 5, 57, 52
6, 208440, Note_off_c, 5, 57, 0
6, 208560, Note_on_c, 5, 53, 54
6, 208680, Note_off_c, 5, 53, 0
6, 208800, Note_on_c, 5, 57, 55
6, 208920, Note_off_c, 5, 57, 0
6, 209040, Note_on_c, 5, 53, 62
6, 209280, Note_off_c, 5, 53, 0
6, 209280, Note_on_c, 5, 58, 58
6, 209400, Note_off_c, 5, 58, 0
6, 209520, Note_on_c, 5, 53, 59
6, 209640, Note_off_c, 5, 53, 0
6, 209760, Note_on_c, 5, 57, 61
6, 209880, Note_off_c, 5, 57, 0
6, 210000, Note_on_c, 5, 53, 62
6, 210120, Note_off_c, 5, 53, 0
6, 210240, Note_on_c, 5, 58, 64
6, 210360, Note_off_c, 5, 58, 0
6, 210480, Note_on_c, 5, 53, 65
6, 210600, Note_off_c, 5, 53, 0
6, 210720, Note_on_c, 5, 58, 67
6, 210840, Note_off_c, 5, 58, 0
6, 210960, Note_on_c, 5, 53, 75
6, 211200, Note_off_c, 5, 53, 0
6, 211200, Note_on_c, 5, 55, 69
6, 211320, Note_off_c, 5, 55, 0
6, 211440, Note_on_c, 5, 48, 72
6, 211560, Note_off_c, 5, 48, 0
6, 211680, Note_on_c, 5, 55, 75
6, 211800, Note_off_c, 5, 55, 0
6, 211920, Note_on_c, 5, 48, 77
6, 212040, Note_off_c, 5, 48, 0
6, 212160, Note_on_c, 5, 53, 80
6, 212280, Note_off_c, 5, 53, 0
6, 212400, Note_on_c, 5, 48, 78
6, 212520, Note_off_c, 5, 48, 0
6, 212640, Note_on_c, 5, 53, 76
6, 212760, Note_off_c, 5, 53, 0
6, 212880, Note_on_c, 5, 48, 73
6, 213000, Note_off_c, 5, 48, 0
6, 213120, Note_on_c, 5, 52, 73
6, 213240, Note_off_c, 5, 52, 0
6, 213360, Note_on_c, 5, 48, 69
6, 213480, Note_off_c, 5, 48, 0
6, 213600, Note_on_c, 5, 53, 66
6, 213720, Note_off_c, 5, 53, 0
6, 213840, Note_on_c, 5, 48, 62
6, 213960, Note_off_c, 5, 48, 0
6, 214080, Control_c, 5, 64, 127
6, 214080, Note_on_c, 5, 48, 58
6, 214120, Note_on_c, 5, 52, 57
6, 214160, Note_on_c, 5, 55, 57
6, 214200, Note_on_c, 5, 60, 56
6, 214555, Note_off_c, 5, 55, 0
6, 214560, Control_c, 5, 64, 0
6, 214560, Note_off_c, 5, 60, 0
6, 214560, Note_off_c, 5, 52, 0
6, 214560, Note_off_c, 5, 48, 0
6, 215040, Note_on_c, 5, 57, 44
6, 215160, Note_off_c, 5, 57, 0
6, 215280, Note_on_c, 5, 53, 45
6, 215400, Note_off_c, 5, 53, 0
6, 215520, Note_on_c, 5, 56, 46
6, 215640, Note_off_c, 5, 56, 0
6, 215760, Note_on_c, 5, 53, 47
6, 215880, Note_off_c, 5, 53, 0
6, 216000, Note_on_c, 5, 57, 48
6, 216120, Note_off_c, 5, 57, 0
6, 216240, Note_on_c, 5, 53, 49
6, 216360, Note_off_c, 5, 53, 0
6, 216480, Note_on_c, 5, 57, 50
6, 216600, Note_off_c, 5, 57, 0
6, 216720, Note_on_c, 5, 53, 56
6, 216960, Note_off_c, 5, 53, 0
6, 216960, Note_on_c, 5, 58, 52
6, 217080, Note_off_c, 5, 58, 0
6, 217200, Note_on_c, 5, 53, 52
6, 217320, Note_off_c, 5, 53, 0
6, 217440, Note_on_c, 5, 57, 53
6, 217560, Note_off_c, 5, 57, 0
6, 217680, Note_on_c, 5, 53, 54
6, 217800, Note_off_c, 5, 53, 0
6, 217920, Note_on_c, 5, 58, 55
6, 218040, Note_off_c, 5, 58, 0
6, 218160, Note_on_c, 5, 53, 56
6, 218280, Note_off_c, 5, 53, 0
6, 218400, Note_on_c, 5, 58, 57
6, 218520, Note_off_c, 5, 58, 0
6, 218640, Note_on_c, 5, 53, 66
6, 218880, Note_off_c, 5, 53, 0
6, 218880, Note_on_c, 5, 55, 58
6, 219000, Note_off_c, 5, 55, 0
6, 219120, Note_on_c, 5, 48, 61
6, 219240, Note_off_c, 5, 48, 0
6, 219360, Note_on_c, 5, 55, 64
6, 219480, Note_off_c, 5, 55, 0
6, 219600, Note_on_c, 5, 48, 67
6, 219720, Note_off_c, 5, 48, 0
6, 219840, Note_on_c, 5, 53, 70
6, 220320, Note_off_c, 5, 53, 0
6, 220800, Note_on_c, 5, 58, 62
6, 220920, Note_off_c, 5, 58, 0
6, 221280, Note_on_c, 5, 48, 58
6, 221400, Note_off_c, 5, 48, 0
6, 221760, Note_on_c, 5, 53, 55
6, 221880, Note_off_c, 5, 53, 0
6, 222240, Note_on_c, 5, 53, 44
6, 222336, Note_off_c, 5, 53, 0
6, 222720, Note_on_c, 5, 60, 45
6, 223200, Note_off_c, 5, 60, 0
6, 223680, Note_on_c, 5, 65, 40
6, 224160, Note_off_c, 5, 65, 0
6, 224640, Note_on_c, 5, 48, 78
6, 224640, Note_on_c, 5, 60, 78
6, 225120, Note_off_c, 5, 60, 0
6, 225120, Note_off_c, 5, 48, 0
6, 225120, Note_on_c, 5, 48, 81
6, 225120, Note_on_c, 5, 60, 81
6, 225600, Note_off_c, 5, 60, 0
6, 225600, Note_off_c, 5, 48, 0
6, 225600, Note_on_c, 5, 53, 84
6, 225600, Note_on_c, 5, 41, 84
6, 226080, Note_off_c, 5, 41, 0
6, 226080, Note_off_c, 5, 53, 0
6, 226080, End_track
0, 0, End_of_file