0, 0, Header, 1, 2, 480
1, 0, Start_track
1, 0, Tempo, 428571
1, 0, Time_signature, 2, 2, 24, 8
1, 0, Key_signature, 0, "major"
1, 121920, Time_signature, 3, 3, 36, 8
1, 122640, Time_signature, 2, 2, 24, 8
1, 129360, Time_signature, 3, 3, 36, 8
1, 130080, Time_signature, 1, 3, 12, 8
1, 130320, Time_signature, 2, 2, 24, 8
1, 137040, Time_signature, 3, 3, 36, 8
1, 137760, Time_signature, 1, 3, 12, 8
1, 138000, Time_signature, 2, 2, 24, 8
1, 144720, Time_signature, 3, 3, 36, 8
1, 145440, Time_signature, 1, 3, 12, 8
1, 145680, Time_signature, 2, 2, 24, 8
1, 145680, End_track
2, 0, Start_track
2, 0, Title_t, "Piano"
2, 0, MIDI_port, 0
2, 0, Channel_prefix, 0
2, 0, Program_c, 0, 0
2, 0, Note_on_c, 0, 62, 127
2, 0, Note_on_c, 0, 55, 127
2, 0, Note_on_c, 0, 59, 127
2, 0, Note_on_c, 0, 71, 127
2, 192, Note_off_c, 0, 59, 64
2, 192, Note_off_c, 0, 55, 64
2, 192, Note_off_c, 0, 62, 64
2, 240, Note_on_c, 0, 55, 127
2, 240, Note_on_c, 0, 62, 127
2, 240, Note_on_c, 0, 59, 127
2, 384, Note_off_c, 0, 71, 64
2, 432, Note_off_c, 0, 55, 64
2, 432, Note_off_c, 0, 62, 64
2, 432, Note_off_c, 0, 59, 64
2, 480, Note_on_c, 0, 62, 127
2, 480, Note_on_c, 0, 55, 127
2, 480, Note_on_c, 0, 59, 127
2, 480, Note_on_c, 0, 74, 127
2, 672, Note_off_c, 0, 74, 64
2, 672, Note_off_c, 0, 59, 64
2, 672, Note_off_c, 0, 55, 64
2, 672, Note_off_c, 0, 62, 64
2, 720, Note_on_c, 0, 62, 127
2, 720, Note_on_c, 0, 55, 127
2, 720, Note_on_c, 0, 59, 127
2, 720, Note_on_c, 0, 74, 127
2, 912, Note_off_c, 0, 74, 64
2, 912, Note_off_c, 0, 59, 64
2, 912, Note_off_c, 0, 55, 64
2, 912, Note_off_c, 0, 62, 64
2, 960, Note_on_c, 0, 62, 127
2, 960, Note_on_c, 0, 55, 127
2, 960, Note_on_c, 0, 59, 127
2, 960, Note_on_c, 0, 79, 127
2, 1152, Note_off_c, 0, 79, 64
2, 1152, Note_off_c, 0, 59, 64
2, 1152, Note_off_c, 0, 55, 64
2, 1152, Note_off_c, 0, 62, 64
2, 1200, Note_on_c, 0, 62, 127
2, 1200, Note_on_c, 0, 55, 127
2, 1200, Note_on_c, 0, 59, 127
2, 1200, Note_on_c, 0, 79, 127
2, 1392, Note_off_c, 0, 79, 64
2, 1392, Note_off_c, 0, 59, 64
2, 1392, Note_off_c, 0, 55, 64
2, 1392, Note_off_c, 0, 62, 64
2, 1440, Note_on_c, 0, 55, 127
2, 1440, Note_on_c, 0, 62, 127
2, 1440, Note_on_c, 0, 59, 127
2, 1440, Note_on_c, 0, 83, 127
2, 1632, Note_off_c, 0, 59, 64
2, 1632, Note_off_c, 0, 62, 64
2, 1632, Note_off_c, 0, 55, 64
2, 1680, Note_on_c, 0, 55, 127
2, 1680, Note_on_c, 0, 62, 127
2, 1680, Note_on_c, 0, 59, 127
2, 1824, Note_off_c, 0, 83, 64
2, 1872, Note_off_c, 0, 55, 64
2, 1872, Note_off_c, 0, 62, 64
2, 1872, Note_off_c, 0, 59, 64
2, 1920, Note_on_c, 0, 66, 127
2, 1920, Note_on_c, 0, 55, 127
2, 1920, Note_on_c, 0, 60, 127
2, 1920, Note_on_c, 0, 62, 127
2, 1920, Note_on_c, 0, 86, 127
2, 2016, Note_off_c, 0, 86, 64
2, 2040, Note_on_c, 0, 84, 127
2, 2112, Note_off_c, 0, 62, 64
2, 2112, Note_off_c, 0, 60, 64
2, 2112, Note_off_c, 0, 55, 64
2, 2112, Note_off_c, 0, 66, 64
2, 2136, Note_off_c, 0, 84, 64
2, 2160, Note_on_c, 0, 55, 127
2, 2160, Note_on_c, 0, 66, 127
2, 2160, Note_on_c, 0, 60, 127
2, 2160, Note_on_c, 0, 62, 127
2, 2160, Note_on_c, 0, 86, 127
2, 2256, Note_off_c, 0, 86, 64
2, 2280, Note_on_c, 0, 84, 127
2, 2352, Note_off_c, 0, 62, 64
2, 2352, Note_off_c, 0, 60, 64
2, 2352, Note_off_c, 0, 66, 64
2, 2352, Note_off_c, 0, 55, 64
2, 2376, Note_off_c, 0, 84, 64
2, 2400, Note_on_c, 0, 66, 127
2, 2400, Note_on_c, 0, 60, 127
2, 2400, Note_on_c, 0, 55, 127
2, 2400, Note_on_c, 0, 62, 127
2, 2400, Note_on_c, 0, 81, 127
2, 2592, Note_off_c, 0, 81, 64
2, 2592, Note_off_c, 0, 62, 64
2, 2592, Note_off_c, 0, 55, 64
2, 2592, Note_off_c, 0, 60, 64
2, 2592, Note_off_c, 0, 66, 64
2, 2640, Note_on_c, 0, 55, 127
2, 2640, Note_on_c, 0, 66, 127
2, 2640, Note_on_c, 0, 62, 127
2, 2640, Note_on_c, 0, 60, 127
2, 2832, Note_off_c, 0, 60, 64
2, 2832, Note_off_c, 0, 62, 64
2, 2832, Note_off_c, 0, 66, 64
2, 2832, Note_off_c, 0, 55, 64
2, 2880, Note_on_c, 0, 55, 127
2, 2880, Note_on_c, 0, 66, 127
2, 2880, Note_on_c, 0, 60, 127
2, 2880, Note_on_c, 0, 62, 127
2, 2880, Note_on_c, 0, 86, 127
2, 2976, Note_off_c, 0, 86, 64
2, 3000, Note_on_c, 0, 84, 127
2, 3072, Note_off_c, 0, 62, 64
2, 3072, Note_off_c, 0, 60, 64
2, 3072, Note_off_c, 0, 66, 64
2, 3072, Note_off_c, 0, 55, 64
2, 3096, Note_off_c, 0, 84, 64
2, 3120, Note_on_c, 0, 66, 127
2, 3120, Note_on_c, 0, 60, 127
2, 3120, Note_on_c, 0, 55, 127
2, 3120, Note_on_c, 0, 62, 127
2, 3120, Note_on_c, 0, 86, 127
2, 3216, Note_off_c, 0, 86, 64
2, 3240, Note_on_c, 0, 84, 127
2, 3312, Note_off_c, 0, 62, 64
2, 3312, Note_off_c, 0, 55, 64
2, 3312, Note_off_c, 0, 60, 64
2, 3312, Note_off_c, 0, 66, 64
2, 3336, Note_off_c, 0, 84, 64
2, 3360, Note_on_c, 0, 55, 127
2, 3360, Note_on_c, 0, 66, 127
2, 3360, Note_on_c, 0, 62, 127
2, 3360, Note_on_c, 0, 60, 127
2, 3360, Note_on_c, 0, 81, 127
2, 3552, Note_off_c, 0, 81, 64
2, 3552, Note_off_c, 0, 60, 64
2, 3552, Note_off_c, 0, 62, 64
2, 3552, Note_off_c, 0, 66, 64
2, 3552, Note_off_c, 0, 55, 64
2, 3600, Note_on_c, 0, 66, 127
2, 3600, Note_on_c, 0, 55, 127
2, 3600, Note_on_c, 0, 60, 127
2, 3600, Note_on_c, 0, 62, 127
2, 3792, Note_off_c, 0, 62, 64
2, 3792, Note_off_c, 0, 60, 64
2, 3792, Note_off_c, 0, 55, 64
2, 3792, Note_off_c, 0, 66, 64
2, 3840, Note_on_c, 0, 59, 127
2, 3840, Note_on_c, 0, 62, 127
2, 3840, Note_on_c, 0, 55, 127
2, 3840, Note_on_c, 0, 71, 127
2, 4032, Note_off_c, 0, 55, 64
2, 4032, Note_off_c, 0, 62, 64
2, 4032, Note_off_c, 0, 59, 64
2, 4080, Note_on_c, 0, 55, 127
2, 4080, Note_on_c, 0, 59, 127
2, 4080, Note_on_c, 0, 62, 127
2, 4224, Note_off_c, 0, 71, 64
2, 4272, Note_off_c, 0, 55, 64
2, 4272, Note_off_c, 0, 59, 64
2, 4272, Note_off_c, 0, 62, 64
2, 4320, Note_on_c, 0, 55, 127
2, 4320, Note_on_c, 0, 62, 127
2, 4320, Note_on_c, 0, 59, 127
2, 4320, Note_on_c, 0, 74, 127
2, 4512, Note_off_c, 0, 74, 64
2, 4512, Note_off_c, 0, 59, 64
2, 4512, Note_off_c, 0, 62, 64
2, 4512, Note_off_c, 0, 55, 64
2, 4560, Note_on_c, 0, 55, 127
2, 4560, Note_on_c, 0, 62, 127
2, 4560, Note_on_c, 0, 59, 127
2, 4560, Note_on_c, 0, 74, 127
2, 4752, Note_off_c, 0, 74, 64
2, 4752, Note_off_c, 0, 59, 64
2, 4752, Note_off_c, 0, 62, 64
2, 4752, Note_off_c, 0, 55, 64
2, 4800, Note_on_c, 0, 62, 127
2, 4800, Note_on_c, 0, 55, 127
2, 4800, Note_on_c, 0, 59, 127
2, 4800, Note_on_c, 0, 79, 127
2, 4992, Note_off_c, 0, 79, 64
2, 4992, Note_off_c, 0, 59, 64
2, 4992, Note_off_c, 0, 55, 64
2, 4992, Note_off_c, 0, 62, 64
2, 5040, Note_on_c, 0, 62, 127
2, 5040, Note_on_c, 0, 59, 127
2, 5040, Note_on_c, 0, 55, 127
2, 5040, Note_on_c, 0, 79, 127
2, 5232, Note_off_c, 0, 79, 64
2, 5232, Note_off_c, 0, 55, 64
2, 5232, Note_off_c, 0, 59, 64
2, 5232, Note_off_c, 0, 62, 64
2, 5280, Note_on_c, 0, 62, 127
2, 5280, Note_on_c, 0, 55, 127
2, 5280, Note_on_c, 0, 59, 127
2, 5280, Note_on_c, 0, 83, 127
2, 5472, Note_off_c, 0, 59, 64
2, 5472, Note_off_c, 0, 55, 64
2, 5472, Note_off_c, 0, 62, 64
2, 5520, Note_on_c, 0, 62, 127
2, 5520, Note_on_c, 0, 55, 127
2, 5520, Note_on_c, 0, 59, 127
2, 5664, Note_off_c, 0, 83, 64
2, 5712, Note_off_c, 0, 62, 64
2, 5712, Note_off_c, 0, 55, 64
2, 5712, Note_off_c, 0, 59, 64
2, 5760, Note_on_c, 0, 66, 127
2, 5760, Note_on_c, 0, 60, 127
2, 5760, Note_on_c, 0, 62, 127
2, 5760, Note_on_c, 0, 86, 127
2, 5760, Note_on_c, 0, 55, 127
2, 5856, Note_off_c, 0, 86, 64
2, 5880, Note_on_c, 0, 84, 127
2, 5952, Note_off_c, 0, 62, 64
2, 5952, Note_off_c, 0, 60, 64
2, 5952, Note_off_c, 0, 66, 64
2, 5952, Note_off_c, 0, 55, 64
2, 5976, Note_off_c, 0, 84, 64
2, 6000, Note_on_c, 0, 60, 127
2, 6000, Note_on_c, 0, 62, 127
2, 6000, Note_on_c, 0, 86, 127
2, 6000, Note_on_c, 0, 66, 127
2, 6000, Note_on_c, 0, 55, 127
2, 6096, Note_off_c, 0, 86, 64
2, 6120, Note_on_c, 0, 84, 127
2, 6192, Note_off_c, 0, 62, 64
2, 6192, Note_off_c, 0, 60, 64
2, 6192, Note_off_c, 0, 66, 64
2, 6192, Note_off_c, 0, 55, 64
2, 6216, Note_off_c, 0, 84, 64
2, 6240, Note_on_c, 0, 66, 127
2, 6240, Note_on_c, 0, 60, 127
2, 6240, Note_on_c, 0, 62, 127
2, 6240, Note_on_c, 0, 55, 127
2, 6240, Note_on_c, 0, 81, 127
2, 6432, Note_off_c, 0, 81, 64
2, 6432, Note_off_c, 0, 55, 64
2, 6432, Note_off_c, 0, 62, 64
2, 6432, Note_off_c, 0, 60, 64
2, 6432, Note_off_c, 0, 66, 64
2, 6480, Note_on_c, 0, 66, 127
2, 6480, Note_on_c, 0, 55, 127
2, 6480, Note_on_c, 0, 60, 127
2, 6480, Note_on_c, 0, 62, 127
2, 6480, Note_on_c, 0, 81, 127
2, 6576, Note_off_c, 0, 81, 64
2, 6600, Note_on_c, 0, 83, 127
2, 6672, Note_off_c, 0, 62, 64
2, 6672, Note_off_c, 0, 60, 64
2, 6672, Note_off_c, 0, 55, 64
2, 6672, Note_off_c, 0, 66, 64
2, 6696, Note_off_c, 0, 83, 64
2, 6720, Note_on_c, 0, 55, 127
2, 6720, Note_on_c, 0, 67, 127
2, 6720, Note_on_c, 0, 62, 127
2, 6720, Note_on_c, 0, 59, 127
2, 6720, Note_on_c, 0, 79, 127
2, 6912, Note_off_c, 0, 59, 64
2, 6912, Note_off_c, 0, 62, 64
2, 6912, Note_off_c, 0, 67, 64
2, 6912, Note_off_c, 0, 55, 64
2, 6960, Note_on_c, 0, 55, 127
2, 6960, Note_on_c, 0, 59, 127
2, 7104, Note_off_c, 0, 79, 64
2, 7152, Note_off_c, 0, 55, 64
2, 7152, Note_off_c, 0, 59, 64
2, 7200, Note_on_c, 0, 59, 127
2, 7200, Note_on_c, 0, 55, 127
2, 7392, Note_off_c, 0, 55, 64
2, 7392, Note_off_c, 0, 59, 64
2, 7440, Note_on_c, 0, 59, 127
2, 7440, Note_on_c, 0, 55, 127
2, 7632, Note_off_c, 0, 55, 64
2, 7632, Note_off_c, 0, 59, 64
2, 7680, Note_on_c, 0, 55, 127
2, 7680, Note_on_c, 0, 52, 127
2, 7680, Note_on_c, 0, 59, 127
2, 7680, Note_on_c, 0, 83, 127
2, 7776, Note_off_c, 0, 83, 64
2, 7800, Note_on_c, 0, 81, 127
2, 7872, Note_off_c, 0, 59, 64
2, 7872, Note_off_c, 0, 52, 64
2, 7872, Note_off_c, 0, 55, 64
2, 7896, Note_off_c, 0, 81, 64
2, 7920, Note_on_c, 0, 59, 127
2, 7920, Note_on_c, 0, 55, 127
2, 7920, Note_on_c, 0, 79, 127
2, 7920, Note_on_c, 0, 52, 127
2, 8016, Note_off_c, 0, 79, 64
2, 8040, Note_on_c, 0, 78, 127
2, 8112, Note_off_c, 0, 55, 64
2, 8112, Note_off_c, 0, 59, 64
2, 8112, Note_off_c, 0, 52, 64
2, 8136, Note_off_c, 0, 78, 64
2, 8160, Note_on_c, 0, 52, 127
2, 8160, Note_on_c, 0, 55, 127
2, 8160, Note_on_c, 0, 59, 127
2, 8160, Note_on_c, 0, 76, 127
2, 8256, Note_off_c, 0, 76, 64
2, 8280, Note_on_c, 0, 78, 127
2, 8352, Note_off_c, 0, 59, 64
2, 8352, Note_off_c, 0, 55, 64
2, 8352, Note_off_c, 0, 52, 64
2, 8376, Note_off_c, 0, 78, 64
2, 8400, Note_on_c, 0, 59, 127
2, 8400, Note_on_c, 0, 52, 127
2, 8400, Note_on_c, 0, 55, 127
2, 8400, Note_on_c, 0, 79, 127
2, 8496, Note_off_c, 0, 79, 64
2, 8520, Note_on_c, 0, 81, 127
2, 8592, Note_off_c, 0, 55, 64
2, 8592, Note_off_c, 0, 52, 64
2, 8592, Note_off_c, 0, 59, 64
2, 8616, Note_off_c, 0, 81, 64
2, 8640, Note_on_c, 0, 59, 127
2, 8640, Note_on_c, 0, 55, 127
2, 8640, Note_on_c, 0, 52, 127
2, 8640, Note_on_c, 0, 83, 127
2, 8832, Note_off_c, 0, 83, 64
2, 8832, Note_off_c, 0, 52, 64
2, 8832, Note_off_c, 0, 55, 64
2, 8832, Note_off_c, 0, 59, 64
2, 8880, Note_on_c, 0, 59, 127
2, 8880, Note_on_c, 0, 55, 127
2, 8880, Note_on_c, 0, 52, 127
2, 8880, Note_on_c, 0, 83, 127
2, 9072, Note_off_c, 0, 83, 64
2, 9072, Note_off_c, 0, 52, 64
2, 9072, Note_off_c, 0, 55, 64
2, 9072, Note_off_c, 0, 59, 64
2, 9120, Note_on_c, 0, 59, 127
2, 9120, Note_on_c, 0, 52, 127
2, 9120, Note_on_c, 0, 55, 127
2, 9120, Note_on_c, 0, 88, 127
2, 9312, Note_off_c, 0, 55, 64
2, 9312, Note_off_c, 0, 52, 64
2, 9312, Note_off_c, 0, 59, 64
2, 9360, Note_on_c, 0, 59, 127
2, 9360, Note_on_c, 0, 52, 127
2, 9360, Note_on_c, 0, 55, 127
2, 9504, Note_off_c, 0, 88, 64
2, 9552, Note_off_c, 0, 59, 64
2, 9552, Note_off_c, 0, 52, 64
2, 9552, Note_off_c, 0, 55, 64
2, 9600, Note_on_c, 0, 47, 127
2, 9600, Note_on_c, 0, 54, 127
2, 9600, Note_on_c, 0, 59, 127
2, 9600, Note_on_c, 0, 57, 127
2, 9600, Note_on_c, 0, 88, 127
2, 9696, Note_off_c, 0, 88, 64
2, 9720, Note_on_c, 0, 87, 127
2, 9792, Note_off_c, 0, 57, 64
2, 9792, Note_off_c, 0, 59, 64
2, 9792, Note_off_c, 0, 54, 64
2, 9792, Note_off_c, 0, 47, 64
2, 9816, Note_off_c, 0, 87, 64
2, 9840, Note_on_c, 0, 54, 127
2, 9840, Note_on_c, 0, 47, 127
2, 9840, Note_on_c, 0, 59, 127
2, 9840, Note_on_c, 0, 57, 127
2, 9840, Note_on_c, 0, 88, 127
2, 9936, Note_off_c, 0, 88, 64
2, 9960, Note_on_c, 0, 87, 127
2, 10032, Note_off_c, 0, 57, 64
2, 10032, Note_off_c, 0, 59, 64
2, 10032, Note_off_c, 0, 47, 64
2, 10032, Note_off_c, 0, 54, 64
2, 10056, Note_off_c, 0, 87, 64
2, 10080, Note_on_c, 0, 54, 127
2, 10080, Note_on_c, 0, 59, 127
2, 10080, Note_on_c, 0, 57, 127
2, 10080, Note_on_c, 0, 47, 127
2, 10080, Note_on_c, 0, 83, 127
2, 10272, Note_off_c, 0, 83, 64
2, 10272, Note_off_c, 0, 47, 64
2, 10272, Note_off_c, 0, 57, 64
2, 10272, Note_off_c, 0, 59, 64
2, 10272, Note_off_c, 0, 54, 64
2, 10320, Note_on_c, 0, 54, 127
2, 10320, Note_on_c, 0, 59, 127
2, 10320, Note_on_c, 0, 57, 127
2, 10320, Note_on_c, 0, 47, 127
2, 10512, Note_off_c, 0, 47, 64
2, 10512, Note_off_c, 0, 57, 64
2, 10512, Note_off_c, 0, 59, 64
2, 10512, Note_off_c, 0, 54, 64
2, 10560, Note_on_c, 0, 54, 127
2, 10560, Note_on_c, 0, 59, 127
2, 10560, Note_on_c, 0, 57, 127
2, 10560, Note_on_c, 0, 47, 127
2, 10560, Note_on_c, 0, 88, 127
2, 10656, Note_off_c, 0, 88, 64
2, 10680, Note_on_c, 0, 87, 127
2, 10752, Note_off_c, 0, 47, 64
2, 10752, Note_off_c, 0, 57, 64
2, 10752, Note_off_c, 0, 59, 64
2, 10752, Note_off_c, 0, 54, 64
2, 10776, Note_off_c, 0, 87, 64
2, 10800, Note_on_c, 0, 54, 127
2, 10800, Note_on_c, 0, 59, 127
2, 10800, Note_on_c, 0, 57, 127
2, 10800, Note_on_c, 0, 47, 127
2, 10800, Note_on_c, 0, 88, 127
2, 10896, Note_off_c, 0, 88, 64
2, 10920, Note_on_c, 0, 87, 127
2, 10992, Note_off_c, 0, 47, 64
2, 10992, Note_off_c, 0, 57, 64
2, 10992, Note_off_c, 0, 59, 64
2, 10992, Note_off_c, 0, 54, 64
2, 11016, Note_off_c, 0, 87, 64
2, 11040, Note_on_c, 0, 54, 127
2, 11040, Note_on_c, 0, 59, 127
2, 11040, Note_on_c, 0, 47, 127
2, 11040, Note_on_c, 0, 57, 127
2, 11040, Note_on_c, 0, 83, 127
2, 11232, Note_off_c, 0, 83, 64
2, 11232, Note_off_c, 0, 57, 64
2, 11232, Note_off_c, 0, 47, 64
2, 11232, Note_off_c, 0, 59, 64
2, 11232, Note_off_c, 0, 54, 64
2, 11280, Note_on_c, 0, 54, 127
2, 11280, Note_on_c, 0, 59, 127
2, 11280, Note_on_c, 0, 57, 127
2, 11280, Note_on_c, 0, 47, 127
2, 11472, Note_off_c, 0, 47, 64
2, 11472, Note_off_c, 0, 57, 64
2, 11472, Note_off_c, 0, 59, 64
2, 11472, Note_off_c, 0, 54, 64
2, 11520, Note_on_c, 0, 59, 127
2, 11520, Note_on_c, 0, 55, 127
2, 11520, Note_on_c, 0, 52, 127
2, 11520, Note_on_c, 0, 83, 127
2, 11616, Note_off_c, 0, 83, 64
2, 11640, Note_on_c, 0, 81, 127
2, 11712, Note_off_c, 0, 52, 64
2, 11712, Note_off_c, 0, 55, 64
2, 11712, Note_off_c, 0, 59, 64
2, 11736, Note_off_c, 0, 81, 64
2, 11760, Note_on_c, 0, 52, 127
2, 11760, Note_on_c, 0, 55, 127
2, 11760, Note_on_c, 0, 79, 127
2, 11760, Note_on_c, 0, 59, 127
2, 11856, Note_off_c, 0, 79, 64
2, 11880, Note_on_c, 0, 78, 127
2, 11952, Note_off_c, 0, 55, 64
2, 11952, Note_off_c, 0, 52, 64
2, 11952, Note_off_c, 0, 59, 64
2, 11976, Note_off_c, 0, 78, 64
2, 12000, Note_on_c, 0, 52, 127
2, 12000, Note_on_c, 0, 55, 127
2, 12000, Note_on_c, 0, 59, 127
2, 12000, Note_on_c, 0, 76, 127
2, 12096, Note_off_c, 0, 76, 64
2, 12120, Note_on_c, 0, 78, 127
2, 12192, Note_off_c, 0, 59, 64
2, 12192, Note_off_c, 0, 55, 64
2, 12192, Note_off_c, 0, 52, 64
2, 12216, Note_off_c, 0, 78, 64
2, 12240, Note_on_c, 0, 55, 127
2, 12240, Note_on_c, 0, 52, 127
2, 12240, Note_on_c, 0, 59, 127
2, 12240, Note_on_c, 0, 79, 127
2, 12336, Note_off_c, 0, 79, 64
2, 12360, Note_on_c, 0, 81, 127
2, 12432, Note_off_c, 0, 59, 64
2, 12432, Note_off_c, 0, 52, 64
2, 12432, Note_off_c, 0, 55, 64
2, 12456, Note_off_c, 0, 81, 64
2, 12480, Note_on_c, 0, 59, 127
2, 12480, Note_on_c, 0, 52, 127
2, 12480, Note_on_c, 0, 55, 127
2, 12480, Note_on_c, 0, 83, 127
2, 12672, Note_off_c, 0, 83, 64
2, 12672, Note_off_c, 0, 55, 64
2, 12672, Note_off_c, 0, 52, 64
2, 12672, Note_off_c, 0, 59, 64
2, 12720, Note_on_c, 0, 59, 127
2, 12720, Note_on_c, 0, 52, 127
2, 12720, Note_on_c, 0, 55, 127
2, 12720, Note_on_c, 0, 83, 127
2, 12912, Note_off_c, 0, 83, 64
2, 12912, Note_off_c, 0, 55, 64
2, 12912, Note_off_c, 0, 52, 64
2, 12912, Note_off_c, 0, 59, 64
2, 12960, Note_on_c, 0, 59, 127
2, 12960, Note_on_c, 0, 55, 127
2, 12960, Note_on_c, 0, 52, 127
2, 12960, Note_on_c, 0, 88, 127
2, 13152, Note_off_c, 0, 52, 64
2, 13152, Note_off_c, 0, 55, 64
2, 13152, Note_off_c, 0, 59, 64
2, 13200, Note_on_c, 0, 59, 127
2, 13200, Note_on_c, 0, 52, 127
2, 13200, Note_on_c, 0, 55, 127
2, 13344, Note_off_c, 0, 88, 64
2, 13392, Note_off_c, 0, 59, 64
2, 13392, Note_off_c, 0, 52, 64
2, 13392, Note_off_c, 0, 55, 64
2, 13440, Note_on_c, 0, 85, 127
2, 13440, Note_on_c, 0, 59, 127
2, 13440, Note_on_c, 0, 57, 127
2, 13440, Note_on_c, 0, 52, 127
2, 13440, Note_on_c, 0, 45, 127
2, 13488, Note_off_c, 0, 85, 64
2, 13500, Note_on_c, 0, 86, 127
2, 13548, Note_off_c, 0, 86, 64
2, 13560, Note_on_c, 0, 85, 127
2, 13608, Note_off_c, 0, 85, 64
2, 13620, Note_on_c, 0, 86, 127
2, 13632, Note_off_c, 0, 59, 64
2, 13632, Note_off_c, 0, 57, 64
2, 13632, Note_off_c, 0, 52, 64
2, 13632, Note_off_c, 0, 45, 64
2, 13668, Note_off_c, 0, 86, 64
2, 13680, Note_on_c, 0, 85, 127
2, 13680, Note_on_c, 0, 52, 127
2, 13680, Note_on_c, 0, 45, 127
2, 13680, Note_on_c, 0, 59, 127
2, 13680, Note_on_c, 0, 57, 127
2, 13728, Note_off_c, 0, 85, 64
2, 13740, Note_on_c, 0, 86, 127
2, 13788, Note_off_c, 0, 86, 64
2, 13800, Note_on_c, 0, 85, 127
2, 13848, Note_off_c, 0, 85, 64
2, 13860, Note_on_c, 0, 86, 127
2, 13872, Note_off_c, 0, 52, 64
2, 13872, Note_off_c, 0, 45, 64
2, 13872, Note_off_c, 0, 59, 64
2, 13872, Note_off_c, 0, 57, 64
2, 13908, Note_off_c, 0, 86, 64
2, 13920, Note_on_c, 0, 85, 127
2, 13920, Note_on_c, 0, 45, 127
2, 13920, Note_on_c, 0, 59, 127
2, 13920, Note_on_c, 0, 57, 127
2, 13920, Note_on_c, 0, 52, 127
2, 13968, Note_off_c, 0, 85, 64
2, 13980, Note_on_c, 0, 86, 127
2, 14028, Note_off_c, 0, 86, 64
2, 14040, Note_on_c, 0, 85, 127
2, 14088, Note_off_c, 0, 85, 64
2, 14100, Note_on_c, 0, 86, 127
2, 14112, Note_off_c, 0, 45, 64
2, 14112, Note_off_c, 0, 59, 64
2, 14112, Note_off_c, 0, 57, 64
2, 14112, Note_off_c, 0, 52, 64
2, 14148, Note_off_c, 0, 86, 64
2, 14160, Note_on_c, 0, 83, 127
2, 14160, Note_on_c, 0, 59, 127
2, 14160, Note_on_c, 0, 45, 127
2, 14160, Note_on_c, 0, 57, 127
2, 14160, Note_on_c, 0, 52, 127
2, 14256, Note_off_c, 0, 83, 64
2, 14280, Note_on_c, 0, 85, 127
2, 14352, Note_off_c, 0, 59, 64
2, 14352, Note_off_c, 0, 45, 64
2, 14352, Note_off_c, 0, 57, 64
2, 14352, Note_off_c, 0, 52, 64
2, 14376, Note_off_c, 0, 85, 64
2, 14400, Note_on_c, 0, 54, 127
2, 14400, Note_on_c, 0, 50, 127
2, 14400, Note_on_c, 0, 57, 127
2, 14400, Note_on_c, 0, 86, 127
2, 14592, Note_off_c, 0, 57, 64
2, 14592, Note_off_c, 0, 50, 64
2, 14592, Note_off_c, 0, 54, 64
2, 14640, Note_on_c, 0, 57, 127
2, 14640, Note_on_c, 0, 54, 127
2, 14640, Note_on_c, 0, 50, 127
2, 14784, Note_off_c, 0, 86, 64
2, 14832, Note_off_c, 0, 57, 64
2, 14832, Note_off_c, 0, 54, 64
2, 14832, Note_off_c, 0, 50, 64
2, 14880, Note_on_c, 0, 57, 127
2, 14880, Note_on_c, 0, 50, 127
2, 14880, Note_on_c, 0, 54, 127
2, 14880, Note_on_c, 0, 74, 127
2, 15072, Note_off_c, 0, 54, 64
2, 15072, Note_off_c, 0, 50, 64
2, 15072, Note_off_c, 0, 57, 64
2, 15120, Note_on_c, 0, 57, 127
2, 15120, Note_on_c, 0, 54, 127
2, 15120, Note_on_c, 0, 50, 127
2, 15264, Note_off_c, 0, 74, 64
2, 15312, Note_off_c, 0, 57, 64
2, 15312, Note_off_c, 0, 54, 64
2, 15312, Note_off_c, 0, 50, 64
2, 15360, Note_on_c, 0, 47, 127
2, 15360, Note_on_c, 0, 43, 127
2, 15360, Note_on_c, 0, 50, 127
2, 15360, Note_on_c, 0, 71, 127
2, 15360, Note_on_c, 0, 55, 127
2, 15552, Note_off_c, 0, 55, 64
2, 15552, Note_off_c, 0, 50, 64
2, 15552, Note_off_c, 0, 43, 64
2, 15552, Note_off_c, 0, 47, 64
2, 15600, Note_on_c, 0, 55, 127
2, 15600, Note_on_c, 0, 47, 127
2, 15600, Note_on_c, 0, 50, 127
2, 15600, Note_on_c, 0, 43, 127
2, 15744, Note_off_c, 0, 71, 64
2, 15792, Note_off_c, 0, 55, 64
2, 15792, Note_off_c, 0, 47, 64
2, 15792, Note_off_c, 0, 50, 64
2, 15792, Note_off_c, 0, 43, 64
2, 15840, Note_on_c, 0, 55, 127
2, 15840, Note_on_c, 0, 43, 127
2, 15840, Note_on_c, 0, 50, 127
2, 15840, Note_on_c, 0, 47, 127
2, 15840, Note_on_c, 0, 74, 127
2, 16032, Note_off_c, 0, 74, 64
2, 16032, Note_off_c, 0, 47, 64
2, 16032, Note_off_c, 0, 50, 64
2, 16032, Note_off_c, 0, 43, 64
2, 16032, Note_off_c, 0, 55, 64
2, 16080, Note_on_c, 0, 55, 127
2, 16080, Note_on_c, 0, 43, 127
2, 16080, Note_on_c, 0, 47, 127
2, 16080, Note_on_c, 0, 50, 127
2, 16080, Note_on_c, 0, 74, 127
2, 16272, Note_off_c, 0, 74, 64
2, 16272, Note_off_c, 0, 50, 64
2, 16272, Note_off_c, 0, 47, 64
2, 16272, Note_off_c, 0, 43, 64
2, 16272, Note_off_c, 0, 55, 64
2, 16320, Note_on_c, 0, 55, 127
2, 16320, Note_on_c, 0, 43, 127
2, 16320, Note_on_c, 0, 47, 127
2, 16320, Note_on_c, 0, 50, 127
2, 16320, Note_on_c, 0, 79, 127
2, 16512, Note_off_c, 0, 79, 64
2, 16512, Note_off_c, 0, 50, 64
2, 16512, Note_off_c, 0, 47, 64
2, 16512, Note_off_c, 0, 43, 64
2, 16512, Note_off_c, 0, 55, 64
2, 16560, Note_on_c, 0, 43, 127
2, 16560, Note_on_c, 0, 55, 127
2, 16560, Note_on_c, 0, 50, 127
2, 16560, Note_on_c, 0, 47, 127
2, 16560, Note_on_c, 0, 79, 127
2, 16752, Note_off_c, 0, 79, 64
2, 16752, Note_off_c, 0, 47, 64
2, 16752, Note_off_c, 0, 50, 64
2, 16752, Note_off_c, 0, 55, 64
2, 16752, Note_off_c, 0, 43, 64
2, 16800, Note_on_c, 0, 43, 127
2, 16800, Note_on_c, 0, 55, 127
2, 16800, Note_on_c, 0, 50, 127
2, 16800, Note_on_c, 0, 47, 127
2, 16800, Note_on_c, 0, 83, 127
2, 16992, Note_off_c, 0, 47, 64
2, 16992, Note_off_c, 0, 50, 64
2, 16992, Note_off_c, 0, 55, 64
2, 16992, Note_off_c, 0, 43, 64
2, 17040, Note_on_c, 0, 43, 127
2, 17040, Note_on_c, 0, 55, 127
2, 17040, Note_on_c, 0, 47, 127
2, 17040, Note_on_c, 0, 50, 127
2, 17184, Note_off_c, 0, 83, 64
2, 17232, Note_off_c, 0, 43, 64
2, 17232, Note_off_c, 0, 55, 64
2, 17232, Note_off_c, 0, 47, 64
2, 17232, Note_off_c, 0, 50, 64
2, 17280, Note_on_c, 0, 54, 127
2, 17280, Note_on_c, 0, 43, 127
2, 17280, Note_on_c, 0, 48, 127
2, 17280, Note_on_c, 0, 50, 127
2, 17280, Note_on_c, 0, 86, 127
2, 17376, Note_off_c, 0, 86, 64
2, 17400, Note_on_c, 0, 84, 127
2, 17472, Note_off_c, 0, 50, 64
2, 17472, Note_off_c, 0, 48, 64
2, 17472, Note_off_c, 0, 43, 64
2, 17472, Note_off_c, 0, 54, 64
2, 17496, Note_off_c, 0, 84, 64
2, 17520, Note_on_c, 0, 43, 127
2, 17520, Note_on_c, 0, 54, 127
2, 17520, Note_on_c, 0, 48, 127
2, 17520, Note_on_c, 0, 50, 127
2, 17520, Note_on_c, 0, 86, 127
2, 17616, Note_off_c, 0, 86, 64
2, 17640, Note_on_c, 0, 84, 127
2, 17712, Note_off_c, 0, 50, 64
2, 17712, Note_off_c, 0, 48, 64
2, 17712, Note_off_c, 0, 54, 64
2, 17712, Note_off_c, 0, 43, 64
2, 17736, Note_off_c, 0, 84, 64
2, 17760, Note_on_c, 0, 43, 127
2, 17760, Note_on_c, 0, 54, 127
2, 17760, Note_on_c, 0, 48, 127
2, 17760, Note_on_c, 0, 50, 127
2, 17760, Note_on_c, 0, 81, 127
2, 17952, Note_off_c, 0, 50, 64
2, 17952, Note_off_c, 0, 48, 64
2, 17952, Note_off_c, 0, 54, 64
2, 17952, Note_off_c, 0, 43, 64
2, 18000, Note_on_c, 0, 43, 127
2, 18000, Note_on_c, 0, 54, 127
2, 18000, Note_on_c, 0, 48, 127
2, 18000, Note_on_c, 0, 50, 127
2, 18144, Note_off_c, 0, 81, 64
2, 18192, Note_off_c, 0, 43, 64
2, 18192, Note_off_c, 0, 54, 64
2, 18192, Note_off_c, 0, 48, 64
2, 18192, Note_off_c, 0, 50, 64
2, 18240, Note_on_c, 0, 43, 127
2, 18240, Note_on_c, 0, 54, 127
2, 18240, Note_on_c, 0, 48, 127
2, 18240, Note_on_c, 0, 50, 127
2, 18240, Note_on_c, 0, 86, 127
2, 18336, Note_off_c, 0, 86, 64
2, 18360, Note_on_c, 0, 84, 127
2, 18432, Note_off_c, 0, 50, 64
2, 18432, Note_off_c, 0, 48, 64
2, 18432, Note_off_c, 0, 54, 64
2, 18432, Note_off_c, 0, 43, 64
2, 18456, Note_off_c, 0, 84, 64
2, 18480, Note_on_c, 0, 54, 127
2, 18480, Note_on_c, 0, 43, 127
2, 18480, Note_on_c, 0, 48, 127
2, 18480, Note_on_c, 0, 50, 127
2, 18480, Note_on_c, 0, 86, 127
2, 18576, Note_off_c, 0, 86, 64
2, 18600, Note_on_c, 0, 84, 127
2, 18672, Note_off_c, 0, 50, 64
2, 18672, Note_off_c, 0, 48, 64
2, 18672, Note_off_c, 0, 43, 64
2, 18672, Note_off_c, 0, 54, 64
2, 18696, Note_off_c, 0, 84, 64
2, 18720, Note_on_c, 0, 54, 127
2, 18720, Note_on_c, 0, 43, 127
2, 18720, Note_on_c, 0, 50, 127
2, 18720, Note_on_c, 0, 48, 127
2, 18720, Note_on_c, 0, 81, 127
2, 18912, Note_off_c, 0, 48, 64
2, 18912, Note_off_c, 0, 50, 64
2, 18912, Note_off_c, 0, 43, 64
2, 18912, Note_off_c, 0, 54, 64
2, 18960, Note_on_c, 0, 48, 127
2, 18960, Note_on_c, 0, 54, 127
2, 18960, Note_on_c, 0, 43, 127
2, 18960, Note_on_c, 0, 50, 127
2, 19104, Note_off_c, 0, 81, 64
2, 19152, Note_off_c, 0, 48, 64
2, 19152, Note_off_c, 0, 54, 64
2, 19152, Note_off_c, 0, 43, 64
2, 19152, Note_off_c, 0, 50, 64
2, 19200, Note_on_c, 0, 50, 127
2, 19200, Note_on_c, 0, 47, 127
2, 19200, Note_on_c, 0, 43, 127
2, 19200, Note_on_c, 0, 71, 127
2, 19200, Note_on_c, 0, 55, 127
2, 19392, Note_off_c, 0, 55, 64
2, 19392, Note_off_c, 0, 43, 64
2, 19392, Note_off_c, 0, 47, 64
2, 19392, Note_off_c, 0, 50, 64
2, 19440, Note_on_c, 0, 43, 127
2, 19440, Note_on_c, 0, 47, 127
2, 19440, Note_on_c, 0, 50, 127
2, 19440, Note_on_c, 0, 55, 127
2, 19584, Note_off_c, 0, 71, 64
2, 19632, Note_off_c, 0, 43, 64
2, 19632, Note_off_c, 0, 47, 64
2, 19632, Note_off_c, 0, 50, 64
2, 19632, Note_off_c, 0, 55, 64
2, 19680, Note_on_c, 0, 55, 127
2, 19680, Note_on_c, 0, 43, 127
2, 19680, Note_on_c, 0, 47, 127
2, 19680, Note_on_c, 0, 50, 127
2, 19680, Note_on_c, 0, 74, 127
2, 19872, Note_off_c, 0, 74, 64
2, 19872, Note_off_c, 0, 50, 64
2, 19872, Note_off_c, 0, 47, 64
2, 19872, Note_off_c, 0, 43, 64
2, 19872, Note_off_c, 0, 55, 64
2, 19920, Note_on_c, 0, 55, 127
2, 19920, Note_on_c, 0, 43, 127
2, 19920, Note_on_c, 0, 47, 127
2, 19920, Note_on_c, 0, 50, 127
2, 19920, Note_on_c, 0, 74, 127
2, 20112, Note_off_c, 0, 74, 64
2, 20112, Note_off_c, 0, 50, 64
2, 20112, Note_off_c, 0, 47, 64
2, 20112, Note_off_c, 0, 43, 64
2, 20112, Note_off_c, 0, 55, 64
2, 20160, Note_on_c, 0, 55, 127
2, 20160, Note_on_c, 0, 43, 127
2, 20160, Note_on_c, 0, 47, 127
2, 20160, Note_on_c, 0, 50, 127
2, 20160, Note_on_c, 0, 79, 127
2, 20352, Note_off_c, 0, 79, 64
2, 20352, Note_off_c, 0, 50, 64
2, 20352, Note_off_c, 0, 47, 64
2, 20352, Note_off_c, 0, 43, 64
2, 20352, Note_off_c, 0, 55, 64
2, 20400, Note_on_c, 0, 55, 127
2, 20400, Note_on_c, 0, 47, 127
2, 20400, Note_on_c, 0, 43, 127
2, 20400, Note_on_c, 0, 50, 127
2, 20400, Note_on_c, 0, 79, 127
2, 20592, Note_off_c, 0, 79, 64
2, 20592, Note_off_c, 0, 50, 64
2, 20592, Note_off_c, 0, 43, 64
2, 20592, Note_off_c, 0, 47, 64
2, 20592, Note_off_c, 0, 55, 64
2, 20640, Note_on_c, 0, 55, 127
2, 20640, Note_on_c, 0, 43, 127
2, 20640, Note_on_c, 0, 47, 127
2, 20640, Note_on_c, 0, 50, 127
2, 20640, Note_on_c, 0, 83, 127
2, 20832, Note_off_c, 0, 50, 64
2, 20832, Note_off_c, 0, 47, 64
2, 20832, Note_off_c, 0, 43, 64
2, 20832, Note_off_c, 0, 55, 64
2, 20880, Note_on_c, 0, 43, 127
2, 20880, Note_on_c, 0, 55, 127
2, 20880, Note_on_c, 0, 47, 127
2, 20880, Note_on_c, 0, 50, 127
2, 21024, Note_off_c, 0, 83, 64
2, 21072, Note_off_c, 0, 43, 64
2, 21072, Note_off_c, 0, 55, 64
2, 21072, Note_off_c, 0, 47, 64
2, 21072, Note_off_c, 0, 50, 64
2, 21120, Note_on_c, 0, 43, 127
2, 21120, Note_on_c, 0, 50, 127
2, 21120, Note_on_c, 0, 48, 127
2, 21120, Note_on_c, 0, 86, 127
2, 21120, Note_on_c, 0, 54, 127
2, 21216, Note_off_c, 0, 86, 64
2, 21240, Note_on_c, 0, 84, 127
2, 21312, Note_off_c, 0, 48, 64
2, 21312, Note_off_c, 0, 50, 64
2, 21312, Note_off_c, 0, 43, 64
2, 21312, Note_off_c, 0, 54, 64
2, 21336, Note_off_c, 0, 84, 64
2, 21360, Note_on_c, 0, 48, 127
2, 21360, Note_on_c, 0, 50, 127
2, 21360, Note_on_c, 0, 86, 127
2, 21360, Note_on_c, 0, 43, 127
2, 21360, Note_on_c, 0, 54, 127
2, 21456, Note_off_c, 0, 86, 64
2, 21480, Note_on_c, 0, 84, 127
2, 21552, Note_off_c, 0, 50, 64
2, 21552, Note_off_c, 0, 48, 64
2, 21552, Note_off_c, 0, 43, 64
2, 21552, Note_off_c, 0, 54, 64
2, 21576, Note_off_c, 0, 84, 64
2, 21600, Note_on_c, 0, 43, 127
2, 21600, Note_on_c, 0, 54, 127
2, 21600, Note_on_c, 0, 50, 127
2, 21600, Note_on_c, 0, 48, 127
2, 21600, Note_on_c, 0, 81, 127
2, 21792, Note_off_c, 0, 81, 64
2, 21792, Note_off_c, 0, 48, 64
2, 21792, Note_off_c, 0, 50, 64
2, 21792, Note_off_c, 0, 54, 64
2, 21792, Note_off_c, 0, 43, 64
2, 21840, Note_on_c, 0, 43, 127
2, 21840, Note_on_c, 0, 54, 127
2, 21840, Note_on_c, 0, 50, 127
2, 21840, Note_on_c, 0, 48, 127
2, 21840, Note_on_c, 0, 81, 127
2, 21936, Note_off_c, 0, 81, 64
2, 21960, Note_on_c, 0, 83, 127
2, 22032, Note_off_c, 0, 48, 64
2, 22032, Note_off_c, 0, 50, 64
2, 22032, Note_off_c, 0, 54, 64
2, 22032, Note_off_c, 0, 43, 64
2, 22056, Note_off_c, 0, 83, 64
2, 22080, Note_on_c, 0, 43, 127
2, 22080, Note_on_c, 0, 47, 127
2, 22080, Note_on_c, 0, 50, 127
2, 22080, Note_on_c, 0, 55, 127
2, 22080, Note_on_c, 0, 79, 127
2, 22464, Note_off_c, 0, 79, 64
2, 22464, Note_off_c, 0, 55, 64
2, 22464, Note_off_c, 0, 50, 64
2, 22464, Note_off_c, 0, 47, 64
2, 22464, Note_off_c, 0, 43, 64
2, 22560, Note_on_c, 0, 43, 127
2, 22944, Note_off_c, 0, 43, 64
2, 23040, Note_on_c, 0, 43, 127
2, 23040, Note_on_c, 0, 52, 127
2, 23040, Note_on_c, 0, 47, 127
2, 23040, Note_on_c, 0, 83, 127
2, 23040, Note_on_c, 0, 40, 127
2, 23136, Note_off_c, 0, 83, 64
2, 23160, Note_on_c, 0, 81, 127
2, 23232, Note_off_c, 0, 47, 64
2, 23232, Note_off_c, 0, 52, 64
2, 23232, Note_off_c, 0, 43, 64
2, 23232, Note_off_c, 0, 40, 64
2, 23256, Note_off_c, 0, 81, 64
2, 23280, Note_on_c, 0, 43, 127
2, 23280, Note_on_c, 0, 47, 127
2, 23280, Note_on_c, 0, 79, 127
2, 23280, Note_on_c, 0, 40, 127
2, 23280, Note_on_c, 0, 52, 127
2, 23376, Note_off_c, 0, 79, 64
2, 23400, Note_on_c, 0, 78, 127
2, 23472, Note_off_c, 0, 47, 64
2, 23472, Note_off_c, 0, 43, 64
2, 23472, Note_off_c, 0, 40, 64
2, 23472, Note_off_c, 0, 52, 64
2, 23496, Note_off_c, 0, 78, 64
2, 23520, Note_on_c, 0, 76, 127
2, 23616, Note_off_c, 0, 76, 64
2, 23640, Note_on_c, 0, 78, 127
2, 23736, Note_off_c, 0, 78, 64
2, 23760, Note_on_c, 0, 40, 127
2, 23760, Note_on_c, 0, 52, 127
2, 23760, Note_on_c, 0, 79, 127
2, 23856, Note_off_c, 0, 79, 64
2, 23880, Note_on_c, 0, 76, 127
2, 23952, Note_off_c, 0, 52, 64
2, 23952, Note_off_c, 0, 40, 64
2, 23976, Note_off_c, 0, 76, 64
2, 24000, Note_on_c, 0, 54, 127
2, 24000, Note_on_c, 0, 47, 127
2, 24000, Note_on_c, 0, 57, 127
2, 24000, Note_on_c, 0, 75, 127
2, 24096, Note_off_c, 0, 75, 64
2, 24120, Note_on_c, 0, 76, 127
2, 24192, Note_off_c, 0, 57, 64
2, 24192, Note_off_c, 0, 47, 64
2, 24192, Note_off_c, 0, 54, 64
2, 24216, Note_off_c, 0, 76, 64
2, 24240, Note_on_c, 0, 47, 127
2, 24240, Note_on_c, 0, 54, 127
2, 24240, Note_on_c, 0, 78, 127
2, 24240, Note_on_c, 0, 57, 127
2, 24336, Note_off_c, 0, 78, 64
2, 24360, Note_on_c, 0, 75, 127
2, 24432, Note_off_c, 0, 54, 64
2, 24432, Note_off_c, 0, 47, 64
2, 24432, Note_off_c, 0, 57, 64
2, 24456, Note_off_c, 0, 75, 64
2, 24480, Note_on_c, 0, 71, 127
2, 24576, Note_off_c, 0, 71, 64
2, 24600, Note_on_c, 0, 73, 127
2, 24696, Note_off_c, 0, 73, 64
2, 24720, Note_on_c, 0, 47, 127
2, 24720, Note_on_c, 0, 57, 127
2, 24720, Note_on_c, 0, 54, 127
2, 24720, Note_on_c, 0, 75, 127
2, 24816, Note_off_c, 0, 75, 64
2, 24840, Note_on_c, 0, 71, 127
2, 24912, Note_off_c, 0, 54, 64
2, 24912, Note_off_c, 0, 57, 64
2, 24912, Note_off_c, 0, 47, 64
2, 24936, Note_off_c, 0, 71, 64
2, 24960, Note_on_c, 0, 67, 127
2, 24960, Note_on_c, 0, 52, 127
2, 24960, Note_on_c, 0, 55, 127
2, 25056, Note_off_c, 0, 67, 64
2, 25080, Note_on_c, 0, 69, 127
2, 25152, Note_off_c, 0, 52, 64
2, 25152, Note_off_c, 0, 55, 64
2, 25176, Note_off_c, 0, 69, 64
2, 25200, Note_on_c, 0, 52, 127
2, 25200, Note_on_c, 0, 55, 127
2, 25200, Note_on_c, 0, 71, 127
2, 25296, Note_off_c, 0, 71, 64
2, 25320, Note_on_c, 0, 67, 127
2, 25392, Note_off_c, 0, 55, 64
2, 25392, Note_off_c, 0, 52, 64
2, 25416, Note_off_c, 0, 67, 64
2, 25440, Note_on_c, 0, 64, 127
2, 25536, Note_off_c, 0, 64, 64
2, 25560, Note_on_c, 0, 66, 127
2, 25656, Note_off_c, 0, 66, 64
2, 25680, Note_on_c, 0, 55, 127
2, 25680, Note_on_c, 0, 52, 127
2, 25680, Note_on_c, 0, 67, 127
2, 25776, Note_off_c, 0, 67, 64
2, 25800, Note_on_c, 0, 64, 127
2, 25872, Note_off_c, 0, 52, 64
2, 25872, Note_off_c, 0, 55, 64
2, 25896, Note_off_c, 0, 64, 64
2, 25920, Note_on_c, 0, 47, 127
2, 25920, Note_on_c, 0, 63, 127
2, 26016, Note_off_c, 0, 63, 64
2, 26040, Note_on_c, 0, 64, 127
2, 26112, Note_off_c, 0, 47, 64
2, 26136, Note_off_c, 0, 64, 64
2, 26160, Note_on_c, 0, 66, 127
2, 26160, Note_on_c, 0, 47, 127
2, 26256, Note_off_c, 0, 66, 64
2, 26280, Note_on_c, 0, 63, 127
2, 26352, Note_off_c, 0, 47, 64
2, 26376, Note_off_c, 0, 63, 64
2, 26400, Note_on_c, 0, 59, 127
2, 26496, Note_off_c, 0, 59, 64
2, 26520, Note_on_c, 0, 61, 127
2, 26616, Note_off_c, 0, 61, 64
2, 26640, Note_on_c, 0, 47, 127
2, 26640, Note_on_c, 0, 63, 127
2, 26736, Note_off_c, 0, 63, 64
2, 26760, Note_on_c, 0, 59, 127
2, 26832, Note_off_c, 0, 47, 64
2, 26856, Note_off_c, 0, 59, 64
2, 26880, Note_on_c, 0, 40, 127
2, 26880, Note_on_c, 0, 55, 127
2, 26976, Note_off_c, 0, 55, 64
2, 27000, Note_on_c, 0, 57, 127
2, 27072, Note_off_c, 0, 40, 64
2, 27096, Note_off_c, 0, 57, 64
2, 27120, Note_on_c, 0, 59, 127
2, 27120, Note_on_c, 0, 40, 127
2, 27216, Note_off_c, 0, 59, 64
2, 27240, Note_on_c, 0, 55, 127
2, 27312, Note_off_c, 0, 40, 64
2, 27336, Note_off_c, 0, 55, 64
2, 27360, Note_on_c, 0, 52, 127
2, 27456, Note_off_c, 0, 52, 64
2, 27480, Note_on_c, 0, 54, 127
2, 27576, Note_off_c, 0, 54, 64
2, 27600, Note_on_c, 0, 40, 127
2, 27600, Note_on_c, 0, 55, 127
2, 27696, Note_off_c, 0, 55, 64
2, 27720, Note_on_c, 0, 52, 127
2, 27792, Note_off_c, 0, 40, 64
2, 27816, Note_off_c, 0, 52, 64
2, 27840, Note_on_c, 0, 49, 127
2, 27840, Note_on_c, 0, 33, 127
2, 27840, Note_on_c, 0, 45, 127
2, 27936, Note_off_c, 0, 49, 64
2, 27960, Note_on_c, 0, 50, 127
2, 28032, Note_off_c, 0, 33, 64
2, 28032, Note_off_c, 0, 45, 64
2, 28056, Note_off_c, 0, 50, 64
2, 28080, Note_on_c, 0, 33, 127
2, 28080, Note_on_c, 0, 45, 127
2, 28080, Note_on_c, 0, 52, 127
2, 28176, Note_off_c, 0, 52, 64
2, 28200, Note_on_c, 0, 54, 127
2, 28272, Note_off_c, 0, 45, 64
2, 28272, Note_off_c, 0, 33, 64
2, 28296, Note_off_c, 0, 54, 64
2, 28320, Note_on_c, 0, 55, 127
2, 28416, Note_off_c, 0, 55, 64
2, 28440, Note_on_c, 0, 57, 127
2, 28536, Note_off_c, 0, 57, 64
2, 28560, Note_on_c, 0, 45, 127
2, 28560, Note_on_c, 0, 59, 127
2, 28656, Note_off_c, 0, 59, 64
2, 28680, Note_on_c, 0, 61, 127
2, 28752, Note_off_c, 0, 45, 64
2, 28776, Note_off_c, 0, 61, 64
2, 28800, Note_on_c, 0, 50, 127
2, 28800, Note_on_c, 0, 62, 127
2, 28896, Note_off_c, 0, 62, 64
2, 28920, Note_on_c, 0, 64, 127
2, 29016, Note_off_c, 0, 64, 64
2, 29040, Note_on_c, 0, 66, 127
2, 29136, Note_off_c, 0, 66, 64
2, 29160, Note_on_c, 0, 67, 127
2, 29184, Note_off_c, 0, 50, 64
2, 29256, Note_off_c, 0, 67, 64
2, 29280, Note_on_c, 0, 45, 127
2, 29280, Note_on_c, 0, 55, 127
2, 29280, Note_on_c, 0, 52, 127
2, 29280, Note_on_c, 0, 69, 127
2, 29376, Note_off_c, 0, 69, 64
2, 29400, Note_on_c, 0, 71, 127
2, 29496, Note_off_c, 0, 71, 64
2, 29520, Note_on_c, 0, 72, 127
2, 29616, Note_off_c, 0, 72, 64
2, 29640, Note_on_c, 0, 73, 127
2, 29664, Note_off_c, 0, 52, 64
2, 29664, Note_off_c, 0, 55, 64
2, 29664, Note_off_c, 0, 45, 64
2, 29736, Note_off_c, 0, 73, 64
2, 29760, Note_on_c, 0, 54, 127
2, 29760, Note_on_c, 0, 74, 127
2, 29760, Note_on_c, 0, 50, 127
2, 29856, Note_off_c, 0, 74, 64
2, 29880, Note_on_c, 0, 76, 127
2, 29976, Note_off_c, 0, 76, 64
2, 30000, Note_on_c, 0, 78, 127
2, 30096, Note_off_c, 0, 78, 64
2, 30120, Note_on_c, 0, 79, 127
2, 30144, Note_off_c, 0, 54, 64
2, 30144, Note_off_c, 0, 50, 64
2, 30216, Note_off_c, 0, 79, 64
2, 30240, Note_on_c, 0, 81, 127
2, 30336, Note_off_c, 0, 81, 64
2, 30360, Note_on_c, 0, 83, 127
2, 30456, Note_off_c, 0, 83, 64
2, 30480, Note_on_c, 0, 84, 127
2, 30576, Note_off_c, 0, 84, 64
2, 30600, Note_on_c, 0, 81, 127
2, 30696, Note_off_c, 0, 81, 64
2, 30720, Note_on_c, 0, 59, 127
2, 30720, Note_on_c, 0, 55, 127
2, 30720, Note_on_c, 0, 83, 127
2, 30720, Note_on_c, 0, 71, 127
2, 30720, Note_on_c, 0, 62, 127
2, 30912, Note_off_c, 0, 62, 64
2, 30912, Note_off_c, 0, 55, 64
2, 30912, Note_off_c, 0, 59, 64
2, 30960, Note_on_c, 0, 55, 127
2, 30960, Note_on_c, 0, 62, 127
2, 30960, Note_on_c, 0, 59, 127
2, 31104, Note_off_c, 0, 83, 64
2, 31104, Note_off_c, 0, 71, 64
2, 31152, Note_off_c, 0, 55, 64
2, 31152, Note_off_c, 0, 62, 64
2, 31152, Note_off_c, 0, 59, 64
2, 31200, Note_on_c, 0, 55, 127
2, 31200, Note_on_c, 0, 62, 127
2, 31200, Note_on_c, 0, 59, 127
2, 31200, Note_on_c, 0, 74, 127
2, 31392, Note_off_c, 0, 74, 64
2, 31392, Note_off_c, 0, 59, 64
2, 31392, Note_off_c, 0, 62, 64
2, 31392, Note_off_c, 0, 55, 64
2, 31440, Note_on_c, 0, 55, 127
2, 31440, Note_on_c, 0, 62, 127
2, 31440, Note_on_c, 0, 59, 127
2, 31440, Note_on_c, 0, 74, 127
2, 31632, Note_off_c, 0, 74, 64
2, 31632, Note_off_c, 0, 59, 64
2, 31632, Note_off_c, 0, 62, 64
2, 31632, Note_off_c, 0, 55, 64
2, 31680, Note_on_c, 0, 62, 127
2, 31680, Note_on_c, 0, 55, 127
2, 31680, Note_on_c, 0, 59, 127
2, 31680, Note_on_c, 0, 79, 127
2, 31872, Note_off_c, 0, 79, 64
2, 31872, Note_off_c, 0, 59, 64
2, 31872, Note_off_c, 0, 55, 64
2, 31872, Note_off_c, 0, 62, 64
2, 31920, Note_on_c, 0, 59, 127
2, 31920, Note_on_c, 0, 55, 127
2, 31920, Note_on_c, 0, 62, 127
2, 31920, Note_on_c, 0, 79, 127
2, 32112, Note_off_c, 0, 79, 64
2, 32112, Note_off_c, 0, 62, 64
2, 32112, Note_off_c, 0, 55, 64
2, 32112, Note_off_c, 0, 59, 64
2, 32160, Note_on_c, 0, 55, 127
2, 32160, Note_on_c, 0, 59, 127
2, 32160, Note_on_c, 0, 62, 127
2, 32160, Note_on_c, 0, 83, 127
2, 32352, Note_off_c, 0, 62, 64
2, 32352, Note_off_c, 0, 59, 64
2, 32352, Note_off_c, 0, 55, 64
2, 32400, Note_on_c, 0, 59, 127
2, 32400, Note_on_c, 0, 62, 127
2, 32400, Note_on_c, 0, 55, 127
2, 32544, Note_off_c, 0, 83, 64
2, 32592, Note_off_c, 0, 59, 64
2, 32592, Note_off_c, 0, 62, 64
2, 32592, Note_off_c, 0, 55, 64
2, 32640, Note_on_c, 0, 55, 127
2, 32640, Note_on_c, 0, 66, 127
2, 32640, Note_on_c, 0, 60, 127
2, 32640, Note_on_c, 0, 62, 127
2, 32640, Note_on_c, 0, 86, 127
2, 32736, Note_off_c, 0, 86, 64
2, 32760, Note_on_c, 0, 84, 127
2, 32832, Note_off_c, 0, 62, 64
2, 32832, Note_off_c, 0, 60, 64
2, 32832, Note_off_c, 0, 66, 64
2, 32832, Note_off_c, 0, 55, 64
2, 32856, Note_off_c, 0, 84, 64
2, 32880, Note_on_c, 0, 66, 127
2, 32880, Note_on_c, 0, 62, 127
2, 32880, Note_on_c, 0, 60, 127
2, 32880, Note_on_c, 0, 55, 127
2, 32880, Note_on_c, 0, 86, 127
2, 32976, Note_off_c, 0, 86, 64
2, 33000, Note_on_c, 0, 84, 127
2, 33072, Note_off_c, 0, 55, 64
2, 33072, Note_off_c, 0, 60, 64
2, 33072, Note_off_c, 0, 62, 64
2, 33072, Note_off_c, 0, 66, 64
2, 33096, Note_off_c, 0, 84, 64
2, 33120, Note_on_c, 0, 66, 127
2, 33120, Note_on_c, 0, 60, 127
2, 33120, Note_on_c, 0, 55, 127
2, 33120, Note_on_c, 0, 62, 127
2, 33120, Note_on_c, 0, 81, 127
2, 33312, Note_off_c, 0, 81, 64
2, 33312, Note_off_c, 0, 62, 64
2, 33312, Note_off_c, 0, 55, 64
2, 33312, Note_off_c, 0, 60, 64
2, 33312, Note_off_c, 0, 66, 64
2, 33360, Note_on_c, 0, 55, 127
2, 33360, Note_on_c, 0, 66, 127
2, 33360, Note_on_c, 0, 60, 127
2, 33360, Note_on_c, 0, 62, 127
2, 33552, Note_off_c, 0, 62, 64
2, 33552, Note_off_c, 0, 60, 64
2, 33552, Note_off_c, 0, 66, 64
2, 33552, Note_off_c, 0, 55, 64
2, 33600, Note_on_c, 0, 66, 127
2, 33600, Note_on_c, 0, 55, 127
2, 33600, Note_on_c, 0, 60, 127
2, 33600, Note_on_c, 0, 62, 127
2, 33600, Note_on_c, 0, 86, 127
2, 33696, Note_off_c, 0, 86, 64
2, 33720, Note_on_c, 0, 84, 127
2, 33792, Note_off_c, 0, 62, 64
2, 33792, Note_off_c, 0, 60, 64
2, 33792, Note_off_c, 0, 55, 64
2, 33792, Note_off_c, 0, 66, 64
2, 33816, Note_off_c, 0, 84, 64
2, 33840, Note_on_c, 0, 55, 127
2, 33840, Note_on_c, 0, 66, 127
2, 33840, Note_on_c, 0, 60, 127
2, 33840, Note_on_c, 0, 62, 127
2, 33840, Note_on_c, 0, 86, 127
2, 33936, Note_off_c, 0, 86, 64
2, 33960, Note_on_c, 0, 84, 127
2, 34032, Note_off_c, 0, 62, 64
2, 34032, Note_off_c, 0, 60, 64
2, 34032, Note_off_c, 0, 66, 64
2, 34032, Note_off_c, 0, 55, 64
2, 34056, Note_off_c, 0, 84, 64
2, 34080, Note_on_c, 0, 66, 127
2, 34080, Note_on_c, 0, 60, 127
2, 34080, Note_on_c, 0, 62, 127
2, 34080, Note_on_c, 0, 55, 127
2, 34080, Note_on_c, 0, 81, 127
2, 34272, Note_off_c, 0, 81, 64
2, 34272, Note_off_c, 0, 55, 64
2, 34272, Note_off_c, 0, 62, 64
2, 34272, Note_off_c, 0, 60, 64
2, 34272, Note_off_c, 0, 66, 64
2, 34320, Note_on_c, 0, 55, 127
2, 34320, Note_on_c, 0, 66, 127
2, 34320, Note_on_c, 0, 62, 127
2, 34320, Note_on_c, 0, 60, 127
2, 34512, Note_off_c, 0, 60, 64
2, 34512, Note_off_c, 0, 62, 64
2, 34512, Note_off_c, 0, 66, 64
2, 34512, Note_off_c, 0, 55, 64
2, 34560, Note_on_c, 0, 55, 127
2, 34560, Note_on_c, 0, 59, 127
2, 34560, Note_on_c, 0, 62, 127
2, 34560, Note_on_c, 0, 71, 127
2, 34752, Note_off_c, 0, 62, 64
2, 34752, Note_off_c, 0, 59, 64
2, 34752, Note_off_c, 0, 55, 64
2, 34800, Note_on_c, 0, 59, 127
2, 34800, Note_on_c, 0, 55, 127
2, 34800, Note_on_c, 0, 62, 127
2, 34944, Note_off_c, 0, 71, 64
2, 34992, Note_off_c, 0, 59, 64
2, 34992, Note_off_c, 0, 55, 64
2, 34992, Note_off_c, 0, 62, 64
2, 35040, Note_on_c, 0, 55, 127
2, 35040, Note_on_c, 0, 62, 127
2, 35040, Note_on_c, 0, 59, 127
2, 35040, Note_on_c, 0, 74, 127
2, 35232, Note_off_c, 0, 74, 64
2, 35232, Note_off_c, 0, 59, 64
2, 35232, Note_off_c, 0, 62, 64
2, 35232, Note_off_c, 0, 55, 64
2, 35280, Note_on_c, 0, 55, 127
2, 35280, Note_on_c, 0, 59, 127
2, 35280, Note_on_c, 0, 62, 127
2, 35280, Note_on_c, 0, 74, 127
2, 35472, Note_off_c, 0, 74, 64
2, 35472, Note_off_c, 0, 62, 64
2, 35472, Note_off_c, 0, 59, 64
2, 35472, Note_off_c, 0, 55, 64
2, 35520, Note_on_c, 0, 55, 127
2, 35520, Note_on_c, 0, 62, 127
2, 35520, Note_on_c, 0, 59, 127
2, 35520, Note_on_c, 0, 79, 127
2, 35712, Note_off_c, 0, 79, 64
2, 35712, Note_off_c, 0, 59, 64
2, 35712, Note_off_c, 0, 62, 64
2, 35712, Note_off_c, 0, 55, 64
2, 35760, Note_on_c, 0, 55, 127
2, 35760, Note_on_c, 0, 62, 127
2, 35760, Note_on_c, 0, 59, 127
2, 35760, Note_on_c, 0, 79, 127
2, 35952, Note_off_c, 0, 79, 64
2, 35952, Note_off_c, 0, 59, 64
2, 35952, Note_off_c, 0, 62, 64
2, 35952, Note_off_c, 0, 55, 64
2, 36000, Note_on_c, 0, 55, 127
2, 36000, Note_on_c, 0, 59, 127
2, 36000, Note_on_c, 0, 62, 127
2, 36000, Note_on_c, 0, 83, 127
2, 36192, Note_off_c, 0, 62, 64
2, 36192, Note_off_c, 0, 59, 64
2, 36192, Note_off_c, 0, 55, 64
2, 36240, Note_on_c, 0, 59, 127
2, 36240, Note_on_c, 0, 55, 127
2, 36240, Note_on_c, 0, 62, 127
2, 36384, Note_off_c, 0, 83, 64
2, 36432, Note_off_c, 0, 59, 64
2, 36432, Note_off_c, 0, 55, 64
2, 36432, Note_off_c, 0, 62, 64
2, 36480, Note_on_c, 0, 66, 127
2, 36480, Note_on_c, 0, 60, 127
2, 36480, Note_on_c, 0, 62, 127
2, 36480, Note_on_c, 0, 86, 127
2, 36480, Note_on_c, 0, 55, 127
2, 36576, Note_off_c, 0, 86, 64
2, 36600, Note_on_c, 0, 84, 127
2, 36672, Note_off_c, 0, 62, 64
2, 36672, Note_off_c, 0, 60, 64
2, 36672, Note_off_c, 0, 66, 64
2, 36672, Note_off_c, 0, 55, 64
2, 36696, Note_off_c, 0, 84, 64
2, 36720, Note_on_c, 0, 62, 127
2, 36720, Note_on_c, 0, 60, 127
2, 36720, Note_on_c, 0, 86, 127
2, 36720, Note_on_c, 0, 55, 127
2, 36720, Note_on_c, 0, 66, 127
2, 36816, Note_off_c, 0, 86, 64
2, 36840, Note_on_c, 0, 84, 127
2, 36912, Note_off_c, 0, 60, 64
2, 36912, Note_off_c, 0, 62, 64
2, 36912, Note_off_c, 0, 55, 64
2, 36912, Note_off_c, 0, 66, 64
2, 36936, Note_off_c, 0, 84, 64
2, 36960, Note_on_c, 0, 55, 127
2, 36960, Note_on_c, 0, 66, 127
2, 36960, Note_on_c, 0, 60, 127
2, 36960, Note_on_c, 0, 62, 127
2, 36960, Note_on_c, 0, 81, 127
2, 37152, Note_off_c, 0, 81, 64
2, 37152, Note_off_c, 0, 62, 64
2, 37152, Note_off_c, 0, 60, 64
2, 37152, Note_off_c, 0, 66, 64
2, 37152, Note_off_c, 0, 55, 64
2, 37200, Note_on_c, 0, 66, 127
2, 37200, Note_on_c, 0, 60, 127
2, 37200, Note_on_c, 0, 62, 127
2, 37200, Note_on_c, 0, 55, 127
2, 37200, Note_on_c, 0, 81, 127
2, 37296, Note_off_c, 0, 81, 64
2, 37320, Note_on_c, 0, 83, 127
2, 37392, Note_off_c, 0, 55, 64
2, 37392, Note_off_c, 0, 62, 64
2, 37392, Note_off_c, 0, 60, 64
2, 37392, Note_off_c, 0, 66, 64
2, 37416, Note_off_c, 0, 83, 64
2, 37440, Note_on_c, 0, 55, 127
2, 37440, Note_on_c, 0, 59, 127
2, 37440, Note_on_c, 0, 67, 127
2, 37440, Note_on_c, 0, 62, 127
2, 37440, Note_on_c, 0, 79, 127
2, 37632, Note_off_c, 0, 62, 64
2, 37632, Note_off_c, 0, 67, 64
2, 37632, Note_off_c, 0, 59, 64
2, 37632, Note_off_c, 0, 55, 64
2, 37680, Note_on_c, 0, 55, 127
2, 37680, Note_on_c, 0, 59, 127
2, 37824, Note_off_c, 0, 79, 64
2, 37872, Note_off_c, 0, 55, 64
2, 37872, Note_off_c, 0, 59, 64
2, 37920, Note_on_c, 0, 59, 127
2, 37920, Note_on_c, 0, 55, 127
2, 38112, Note_off_c, 0, 55, 64
2, 38112, Note_off_c, 0, 59, 64
2, 38160, Note_on_c, 0, 55, 127
2, 38160, Note_on_c, 0, 59, 127
2, 38352, Note_off_c, 0, 59, 64
2, 38352, Note_off_c, 0, 55, 64
2, 38400, Note_on_c, 0, 55, 127
2, 38400, Note_on_c, 0, 59, 127
2, 38400, Note_on_c, 0, 52, 127
2, 38400, Note_on_c, 0, 83, 127
2, 38496, Note_off_c, 0, 83, 64
2, 38520, Note_on_c, 0, 81, 127
2, 38592, Note_off_c, 0, 52, 64
2, 38592, Note_off_c, 0, 59, 64
2, 38592, Note_off_c, 0, 55, 64
2, 38616, Note_off_c, 0, 81, 64
2, 38640, Note_on_c, 0, 55, 127
2, 38640, Note_on_c, 0, 52, 127
2, 38640, Note_on_c, 0, 79, 127
2, 38640, Note_on_c, 0, 59, 127
2, 38736, Note_off_c, 0, 79, 64
2, 38760, Note_on_c, 0, 78, 127
2, 38832, Note_off_c, 0, 52, 64
2, 38832, Note_off_c, 0, 55, 64
2, 38832, Note_off_c, 0, 59, 64
2, 38856, Note_off_c, 0, 78, 64
2, 38880, Note_on_c, 0, 52, 127
2, 38880, Note_on_c, 0, 59, 127
2, 38880, Note_on_c, 0, 55, 127
2, 38880, Note_on_c, 0, 76, 127
2, 38976, Note_off_c, 0, 76, 64
2, 39000, Note_on_c, 0, 78, 127
2, 39072, Note_off_c, 0, 55, 64
2, 39072, Note_off_c, 0, 59, 64
2, 39072, Note_off_c, 0, 52, 64
2, 39096, Note_off_c, 0, 78, 64
2, 39120, Note_on_c, 0, 52, 127
2, 39120, Note_on_c, 0, 59, 127
2, 39120, Note_on_c, 0, 55, 127
2, 39120, Note_on_c, 0, 79, 127
2, 39216, Note_off_c, 0, 79, 64
2, 39240, Note_on_c, 0, 81, 127
2, 39312, Note_off_c, 0, 55, 64
2, 39312, Note_off_c, 0, 59, 64
2, 39312, Note_off_c, 0, 52, 64
2, 39336, Note_off_c, 0, 81, 64
2, 39360, Note_on_c, 0, 52, 127
2, 39360, Note_on_c, 0, 59, 127
2, 39360, Note_on_c, 0, 55, 127
2, 39360, Note_on_c, 0, 83, 127
2, 39552, Note_off_c, 0, 83, 64
2, 39552, Note_off_c, 0, 55, 64
2, 39552, Note_off_c, 0, 59, 64
2, 39552, Note_off_c, 0, 52, 64
2, 39600, Note_on_c, 0, 52, 127
2, 39600, Note_on_c, 0, 59, 127
2, 39600, Note_on_c, 0, 55, 127
2, 39600, Note_on_c, 0, 83, 127
2, 39792, Note_off_c, 0, 83, 64
2, 39792, Note_off_c, 0, 55, 64
2, 39792, Note_off_c, 0, 59, 64
2, 39792, Note_off_c, 0, 52, 64
2, 39840, Note_on_c, 0, 52, 127
2, 39840, Note_on_c, 0, 55, 127
2, 39840, Note_on_c, 0, 59, 127
2, 39840, Note_on_c, 0, 88, 127
2, 40032, Note_off_c, 0, 59, 64
2, 40032, Note_off_c, 0, 55, 64
2, 40032, Note_off_c, 0, 52, 64
2, 40080, Note_on_c, 0, 59, 127
2, 40080, Note_on_c, 0, 52, 127
2, 40080, Note_on_c, 0, 55, 127
2, 40224, Note_off_c, 0, 88, 64
2, 40272, Note_off_c, 0, 59, 64
2, 40272, Note_off_c, 0, 52, 64
2, 40272, Note_off_c, 0, 55, 64
2, 40320, Note_on_c, 0, 47, 127
2, 40320, Note_on_c, 0, 59, 127
2, 40320, Note_on_c, 0, 54, 127
2, 40320, Note_on_c, 0, 57, 127
2, 40320, Note_on_c, 0, 88, 127
2, 40416, Note_off_c, 0, 88, 64
2, 40440, Note_on_c, 0, 87, 127
2, 40512, Note_off_c, 0, 57, 64
2, 40512, Note_off_c, 0, 54, 64
2, 40512, Note_off_c, 0, 59, 64
2, 40512, Note_off_c, 0, 47, 64
2, 40536, Note_off_c, 0, 87, 64
2, 40560, Note_on_c, 0, 54, 127
2, 40560, Note_on_c, 0, 47, 127
2, 40560, Note_on_c, 0, 59, 127
2, 40560, Note_on_c, 0, 57, 127
2, 40560, Note_on_c, 0, 88, 127
2, 40656, Note_off_c, 0, 88, 64
2, 40680, Note_on_c, 0, 87, 127
2, 40752, Note_off_c, 0, 57, 64
2, 40752, Note_off_c, 0, 59, 64
2, 40752, Note_off_c, 0, 47, 64
2, 40752, Note_off_c, 0, 54, 64
2, 40776, Note_off_c, 0, 87, 64
2, 40800, Note_on_c, 0, 47, 127
2, 40800, Note_on_c, 0, 54, 127
2, 40800, Note_on_c, 0, 59, 127
2, 40800, Note_on_c, 0, 57, 127
2, 40800, Note_on_c, 0, 83, 127
2, 40992, Note_off_c, 0, 83, 64
2, 40992, Note_off_c, 0, 57, 64
2, 40992, Note_off_c, 0, 59, 64
2, 40992, Note_off_c, 0, 54, 64
2, 40992, Note_off_c, 0, 47, 64
2, 41040, Note_on_c, 0, 47, 127
2, 41040, Note_on_c, 0, 54, 127
2, 41040, Note_on_c, 0, 59, 127
2, 41040, Note_on_c, 0, 57, 127
2, 41232, Note_off_c, 0, 57, 64
2, 41232, Note_off_c, 0, 59, 64
2, 41232, Note_off_c, 0, 54, 64
2, 41232, Note_off_c, 0, 47, 64
2, 41280, Note_on_c, 0, 47, 127
2, 41280, Note_on_c, 0, 59, 127
2, 41280, Note_on_c, 0, 54, 127
2, 41280, Note_on_c, 0, 57, 127
2, 41280, Note_on_c, 0, 88, 127
2, 41376, Note_off_c, 0, 88, 64
2, 41400, Note_on_c, 0, 87, 127
2, 41472, Note_off_c, 0, 57, 64
2, 41472, Note_off_c, 0, 54, 64
2, 41472, Note_off_c, 0, 59, 64
2, 41472, Note_off_c, 0, 47, 64
2, 41496, Note_off_c, 0, 87, 64
2, 41520, Note_on_c, 0, 47, 127
2, 41520, Note_on_c, 0, 54, 127
2, 41520, Note_on_c, 0, 59, 127
2, 41520, Note_on_c, 0, 57, 127
2, 41520, Note_on_c, 0, 88, 127
2, 41616, Note_off_c, 0, 88, 64
2, 41640, Note_on_c, 0, 87, 127
2, 41712, Note_off_c, 0, 57, 64
2, 41712, Note_off_c, 0, 59, 64
2, 41712, Note_off_c, 0, 54, 64
2, 41712, Note_off_c, 0, 47, 64
2, 41736, Note_off_c, 0, 87, 64
2, 41760, Note_on_c, 0, 54, 127
2, 41760, Note_on_c, 0, 47, 127
2, 41760, Note_on_c, 0, 59, 127
2, 41760, Note_on_c, 0, 57, 127
2, 41760, Note_on_c, 0, 83, 127
2, 41952, Note_off_c, 0, 83, 64
2, 41952, Note_off_c, 0, 57, 64
2, 41952, Note_off_c, 0, 59, 64
2, 41952, Note_off_c, 0, 47, 64
2, 41952, Note_off_c, 0, 54, 64
2, 42000, Note_on_c, 0, 54, 127
2, 42000, Note_on_c, 0, 47, 127
2, 42000, Note_on_c, 0, 59, 127
2, 42000, Note_on_c, 0, 57, 127
2, 42192, Note_off_c, 0, 57, 64
2, 42192, Note_off_c, 0, 59, 64
2, 42192, Note_off_c, 0, 47, 64
2, 42192, Note_off_c, 0, 54, 64
2, 42240, Note_on_c, 0, 55, 127
2, 42240, Note_on_c, 0, 52, 127
2, 42240, Note_on_c, 0, 59, 127
2, 42240, Note_on_c, 0, 83, 127
2, 42336, Note_off_c, 0, 83, 64
2, 42360, Note_on_c, 0, 81, 127
2, 42432, Note_off_c, 0, 59, 64
2, 42432, Note_off_c, 0, 52, 64
2, 42432, Note_off_c, 0, 55, 64
2, 42456, Note_off_c, 0, 81, 64
2, 42480, Note_on_c, 0, 59, 127
2, 42480, Note_on_c, 0, 52, 127
2, 42480, Note_on_c, 0, 79, 127
2, 42480, Note_on_c, 0, 55, 127
2, 42576, Note_off_c, 0, 79, 64
2, 42600, Note_on_c, 0, 78, 127
2, 42672, Note_off_c, 0, 52, 64
2, 42672, Note_off_c, 0, 59, 64
2, 42672, Note_off_c, 0, 55, 64
2, 42696, Note_off_c, 0, 78, 64
2, 42720, Note_on_c, 0, 55, 127
2, 42720, Note_on_c, 0, 59, 127
2, 42720, Note_on_c, 0, 52, 127
2, 42720, Note_on_c, 0, 76, 127
2, 42816, Note_off_c, 0, 76, 64
2, 42840, Note_on_c, 0, 78, 127
2, 42912, Note_off_c, 0, 52, 64
2, 42912, Note_off_c, 0, 59, 64
2, 42912, Note_off_c, 0, 55, 64
2, 42936, Note_off_c, 0, 78, 64
2, 42960, Note_on_c, 0, 59, 127
2, 42960, Note_on_c, 0, 55, 127
2, 42960, Note_on_c, 0, 52, 127
2, 42960, Note_on_c, 0, 79, 127
2, 43056, Note_off_c, 0, 79, 64
2, 43080, Note_on_c, 0, 81, 127
2, 43152, Note_off_c, 0, 52, 64
2, 43152, Note_off_c, 0, 55, 64
2, 43152, Note_off_c, 0, 59, 64
2, 43176, Note_off_c, 0, 81, 64
2, 43200, Note_on_c, 0, 52, 127
2, 43200, Note_on_c, 0, 59, 127
2, 43200, Note_on_c, 0, 55, 127
2, 43200, Note_on_c, 0, 83, 127
2, 43392, Note_off_c, 0, 83, 64
2, 43392, Note_off_c, 0, 55, 64
2, 43392, Note_off_c, 0, 59, 64
2, 43392, Note_off_c, 0, 52, 64
2, 43440, Note_on_c, 0, 59, 127
2, 43440, Note_on_c, 0, 55, 127
2, 43440, Note_on_c, 0, 52, 127
2, 43440, Note_on_c, 0, 83, 127
2, 43632, Note_off_c, 0, 83, 64
2, 43632, Note_off_c, 0, 52, 64
2, 43632, Note_off_c, 0, 55, 64
2, 43632, Note_off_c, 0, 59, 64
2, 43680, Note_on_c, 0, 59, 127
2, 43680, Note_on_c, 0, 52, 127
2, 43680, Note_on_c, 0, 55, 127
2, 43680, Note_on_c, 0, 88, 127
2, 43872, Note_off_c, 0, 55, 64
2, 43872, Note_off_c, 0, 52, 64
2, 43872, Note_off_c, 0, 59, 64
2, 43920, Note_on_c, 0, 59, 127
2, 43920, Note_on_c, 0, 52, 127
2, 43920, Note_on_c, 0, 55, 127
2, 44064, Note_off_c, 0, 88, 64
2, 44112, Note_off_c, 0, 59, 64
2, 44112, Note_off_c, 0, 52, 64
2, 44112, Note_off_c, 0, 55, 64
2, 44160, Note_on_c, 0, 52, 127
2, 44160, Note_on_c, 0, 59, 127
2, 44160, Note_on_c, 0, 57, 127
2, 44160, Note_on_c, 0, 85, 127
2, 44160, Note_on_c, 0, 45, 127
2, 44208, Note_off_c, 0, 85, 64
2, 44220, Note_on_c, 0, 86, 127
2, 44268, Note_off_c, 0, 86, 64
2, 44280, Note_on_c, 0, 85, 127
2, 44328, Note_off_c, 0, 85, 64
2, 44340, Note_on_c, 0, 86, 127
2, 44352, Note_off_c, 0, 57, 64
2, 44352, Note_off_c, 0, 59, 64
2, 44352, Note_off_c, 0, 52, 64
2, 44352, Note_off_c, 0, 45, 64
2, 44388, Note_off_c, 0, 86, 64
2, 44400, Note_on_c, 0, 57, 127
2, 44400, Note_on_c, 0, 45, 127
2, 44400, Note_on_c, 0, 85, 127
2, 44400, Note_on_c, 0, 59, 127
2, 44400, Note_on_c, 0, 52, 127
2, 44448, Note_off_c, 0, 85, 64
2, 44460, Note_on_c, 0, 86, 127
2, 44508, Note_off_c, 0, 86, 64
2, 44520, Note_on_c, 0, 85, 127
2, 44568, Note_off_c, 0, 85, 64
2, 44580, Note_on_c, 0, 86, 127
2, 44592, Note_off_c, 0, 45, 64
2, 44592, Note_off_c, 0, 57, 64
2, 44592, Note_off_c, 0, 59, 64
2, 44592, Note_off_c, 0, 52, 64
2, 44628, Note_off_c, 0, 86, 64
2, 44640, Note_on_c, 0, 45, 127
2, 44640, Note_on_c, 0, 59, 127
2, 44640, Note_on_c, 0, 52, 127
2, 44640, Note_on_c, 0, 57, 127
2, 44640, Note_on_c, 0, 85, 127
2, 44688, Note_off_c, 0, 85, 64
2, 44700, Note_on_c, 0, 86, 127
2, 44748, Note_off_c, 0, 86, 64
2, 44760, Note_on_c, 0, 85, 127
2, 44808, Note_off_c, 0, 85, 64
2, 44820, Note_on_c, 0, 86, 127
2, 44832, Note_off_c, 0, 57, 64
2, 44832, Note_off_c, 0, 52, 64
2, 44832, Note_off_c, 0, 59, 64
2, 44832, Note_off_c, 0, 45, 64
2, 44868, Note_off_c, 0, 86, 64
2, 44880, Note_on_c, 0, 45, 127
2, 44880, Note_on_c, 0, 52, 127
2, 44880, Note_on_c, 0, 59, 127
2, 44880, Note_on_c, 0, 57, 127
2, 44880, Note_on_c, 0, 83, 127
2, 44976, Note_off_c, 0, 83, 64
2, 45000, Note_on_c, 0, 85, 127
2, 45072, Note_off_c, 0, 57, 64
2, 45072, Note_off_c, 0, 59, 64
2, 45072, Note_off_c, 0, 52, 64
2, 45072, Note_off_c, 0, 45, 64
2, 45096, Note_off_c, 0, 85, 64
2, 45120, Note_on_c, 0, 54, 127
2, 45120, Note_on_c, 0, 57, 127
2, 45120, Note_on_c, 0, 50, 127
2, 45120, Note_on_c, 0, 86, 127
2, 45312, Note_off_c, 0, 50, 64
2, 45312, Note_off_c, 0, 57, 64
2, 45312, Note_off_c, 0, 54, 64
2, 45360, Note_on_c, 0, 57, 127
2, 45360, Note_on_c, 0, 54, 127
2, 45360, Note_on_c, 0, 50, 127
2, 45504, Note_off_c, 0, 86, 64
2, 45552, Note_off_c, 0, 57, 64
2, 45552, Note_off_c, 0, 54, 64
2, 45552, Note_off_c, 0, 50, 64
2, 45600, Note_on_c, 0, 54, 127
2, 45600, Note_on_c, 0, 57, 127
2, 45600, Note_on_c, 0, 50, 127
2, 45600, Note_on_c, 0, 74, 127
2, 45792, Note_off_c, 0, 50, 64
2, 45792, Note_off_c, 0, 57, 64
2, 45792, Note_off_c, 0, 54, 64
2, 45840, Note_on_c, 0, 57, 127
2, 45840, Note_on_c, 0, 50, 127
2, 45840, Note_on_c, 0, 54, 127
2, 45984, Note_off_c, 0, 74, 64
2, 46032, Note_off_c, 0, 57, 64
2, 46032, Note_off_c, 0, 50, 64
2, 46032, Note_off_c, 0, 54, 64
2, 46080, Note_on_c, 0, 50, 127
2, 46080, Note_on_c, 0, 55, 127
2, 46080, Note_on_c, 0, 47, 127
2, 46080, Note_on_c, 0, 71, 127
2, 46080, Note_on_c, 0, 43, 127
2, 46272, Note_off_c, 0, 43, 64
2, 46272, Note_off_c, 0, 47, 64
2, 46272, Note_off_c, 0, 55, 64
2, 46272, Note_off_c, 0, 50, 64
2, 46320, Note_on_c, 0, 55, 127
2, 46320, Note_on_c, 0, 47, 127
2, 46320, Note_on_c, 0, 50, 127
2, 46320, Note_on_c, 0, 43, 127
2, 46464, Note_off_c, 0, 71, 64
2, 46512, Note_off_c, 0, 55, 64
2, 46512, Note_off_c, 0, 47, 64
2, 46512, Note_off_c, 0, 50, 64
2, 46512, Note_off_c, 0, 43, 64
2, 46560, Note_on_c, 0, 55, 127
2, 46560, Note_on_c, 0, 47, 127
2, 46560, Note_on_c, 0, 50, 127
2, 46560, Note_on_c, 0, 43, 127
2, 46560, Note_on_c, 0, 74, 127
2, 46752, Note_off_c, 0, 74, 64
2, 46752, Note_off_c, 0, 43, 64
2, 46752, Note_off_c, 0, 50, 64
2, 46752, Note_off_c, 0, 47, 64
2, 46752, Note_off_c, 0, 55, 64
2, 46800, Note_on_c, 0, 55, 127
2, 46800, Note_on_c, 0, 50, 127
2, 46800, Note_on_c, 0, 43, 127
2, 46800, Note_on_c, 0, 47, 127
2, 46800, Note_on_c, 0, 74, 127
2, 46992, Note_off_c, 0, 74, 64
2, 46992, Note_off_c, 0, 47, 64
2, 46992, Note_off_c, 0, 43, 64
2, 46992, Note_off_c, 0, 50, 64
2, 46992, Note_off_c, 0, 55, 64
2, 47040, Note_on_c, 0, 55, 127
2, 47040, Note_on_c, 0, 43, 127
2, 47040, Note_on_c, 0, 47, 127
2, 47040, Note_on_c, 0, 50, 127
2, 47040, Note_on_c, 0, 79, 127
2, 47232, Note_off_c, 0, 79, 64
2, 47232, Note_off_c, 0, 50, 64
2, 47232, Note_off_c, 0, 47, 64
2, 47232, Note_off_c, 0, 43, 64
2, 47232, Note_off_c, 0, 55, 64
2, 47280, Note_on_c, 0, 43, 127
2, 47280, Note_on_c, 0, 55, 127
2, 47280, Note_on_c, 0, 50, 127
2, 47280, Note_on_c, 0, 47, 127
2, 47280, Note_on_c, 0, 79, 127
2, 47472, Note_off_c, 0, 79, 64
2, 47472, Note_off_c, 0, 47, 64
2, 47472, Note_off_c, 0, 50, 64
2, 47472, Note_off_c, 0, 55, 64
2, 47472, Note_off_c, 0, 43, 64
2, 47520, Note_on_c, 0, 55, 127
2, 47520, Note_on_c, 0, 43, 127
2, 47520, Note_on_c, 0, 47, 127
2, 47520, Note_on_c, 0, 50, 127
2, 47520, Note_on_c, 0, 83, 127
2, 47712, Note_off_c, 0, 50, 64
2, 47712, Note_off_c, 0, 47, 64
2, 47712, Note_off_c, 0, 43, 64
2, 47712, Note_off_c, 0, 55, 64
2, 47760, Note_on_c, 0, 43, 127
2, 47760, Note_on_c, 0, 55, 127
2, 47760, Note_on_c, 0, 47, 127
2, 47760, Note_on_c, 0, 50, 127
2, 47904, Note_off_c, 0, 83, 64
2, 47952, Note_off_c, 0, 43, 64
2, 47952, Note_off_c, 0, 55, 64
2, 47952, Note_off_c, 0, 47, 64
2, 47952, Note_off_c, 0, 50, 64
2, 48000, Note_on_c, 0, 54, 127
2, 48000, Note_on_c, 0, 43, 127
2, 48000, Note_on_c, 0, 50, 127
2, 48000, Note_on_c, 0, 48, 127
2, 48000, Note_on_c, 0, 86, 127
2, 48096, Note_off_c, 0, 86, 64
2, 48120, Note_on_c, 0, 84, 127
2, 48192, Note_off_c, 0, 48, 64
2, 48192, Note_off_c, 0, 50, 64
2, 48192, Note_off_c, 0, 43, 64
2, 48192, Note_off_c, 0, 54, 64
2, 48216, Note_off_c, 0, 84, 64
2, 48240, Note_on_c, 0, 43, 127
2, 48240, Note_on_c, 0, 54, 127
2, 48240, Note_on_c, 0, 48, 127
2, 48240, Note_on_c, 0, 50, 127
2, 48240, Note_on_c, 0, 86, 127
2, 48336, Note_off_c, 0, 86, 64
2, 48360, Note_on_c, 0, 84, 127
2, 48432, Note_off_c, 0, 50, 64
2, 48432, Note_off_c, 0, 48, 64
2, 48432, Note_off_c, 0, 54, 64
2, 48432, Note_off_c, 0, 43, 64
2, 48456, Note_off_c, 0, 84, 64
2, 48480, Note_on_c, 0, 43, 127
2, 48480, Note_on_c, 0, 54, 127
2, 48480, Note_on_c, 0, 48, 127
2, 48480, Note_on_c, 0, 50, 127
2, 48480, Note_on_c, 0, 81, 127
2, 48672, Note_off_c, 0, 81, 64
2, 48672, Note_off_c, 0, 50, 64
2, 48672, Note_off_c, 0, 48, 64
2, 48672, Note_off_c, 0, 54, 64
2, 48672, Note_off_c, 0, 43, 64
2, 48720, Note_on_c, 0, 43, 127
2, 48720, Note_on_c, 0, 54, 127
2, 48720, Note_on_c, 0, 48, 127
2, 48720, Note_on_c, 0, 50, 127
2, 48912, Note_off_c, 0, 50, 64
2, 48912, Note_off_c, 0, 48, 64
2, 48912, Note_off_c, 0, 54, 64
2, 48912, Note_off_c, 0, 43, 64
2, 48960, Note_on_c, 0, 43, 127
2, 48960, Note_on_c, 0, 54, 127
2, 48960, Note_on_c, 0, 48, 127
2, 48960, Note_on_c, 0, 50, 127
2, 48960, Note_on_c, 0, 86, 127
2, 49056, Note_off_c, 0, 86, 64
2, 49080, Note_on_c, 0, 84, 127
2, 49152, Note_off_c, 0, 50, 64
2, 49152, Note_off_c, 0, 48, 64
2, 49152, Note_off_c, 0, 54, 64
2, 49152, Note_off_c, 0, 43, 64
2, 49176, Note_off_c, 0, 84, 64
2, 49200, Note_on_c, 0, 54, 127
2, 49200, Note_on_c, 0, 43, 127
2, 49200, Note_on_c, 0, 48, 127
2, 49200, Note_on_c, 0, 50, 127
2, 49200, Note_on_c, 0, 86, 127
2, 49296, Note_off_c, 0, 86, 64
2, 49320, Note_on_c, 0, 84, 127
2, 49392, Note_off_c, 0, 50, 64
2, 49392, Note_off_c, 0, 48, 64
2, 49392, Note_off_c, 0, 43, 64
2, 49392, Note_off_c, 0, 54, 64
2, 49416, Note_off_c, 0, 84, 64
2, 49440, Note_on_c, 0, 54, 127
2, 49440, Note_on_c, 0, 43, 127
2, 49440, Note_on_c, 0, 48, 127
2, 49440, Note_on_c, 0, 50, 127
2, 49440, Note_on_c, 0, 81, 127
2, 49632, Note_off_c, 0, 81, 64
2, 49632, Note_off_c, 0, 50, 64
2, 49632, Note_off_c, 0, 48, 64
2, 49632, Note_off_c, 0, 43, 64
2, 49632, Note_off_c, 0, 54, 64
2, 49680, Note_on_c, 0, 54, 127
2, 49680, Note_on_c, 0, 48, 127
2, 49680, Note_on_c, 0, 50, 127
2, 49680, Note_on_c, 0, 43, 127
2, 49872, Note_off_c, 0, 43, 64
2, 49872, Note_off_c, 0, 50, 64
2, 49872, Note_off_c, 0, 48, 64
2, 49872, Note_off_c, 0, 54, 64
2, 49920, Note_on_c, 0, 43, 127
2, 49920, Note_on_c, 0, 50, 127
2, 49920, Note_on_c, 0, 47, 127
2, 49920, Note_on_c, 0, 71, 127
2, 49920, Note_on_c, 0, 55, 127
2, 50112, Note_off_c, 0, 55, 64
2, 50112, Note_off_c, 0, 47, 64
2, 50112, Note_off_c, 0, 50, 64
2, 50112, Note_off_c, 0, 43, 64
2, 50160, Note_on_c, 0, 43, 127
2, 50160, Note_on_c, 0, 55, 127
2, 50160, Note_on_c, 0, 50, 127
2, 50160, Note_on_c, 0, 47, 127
2, 50304, Note_off_c, 0, 71, 64
2, 50352, Note_off_c, 0, 43, 64
2, 50352, Note_off_c, 0, 55, 64
2, 50352, Note_off_c, 0, 50, 64
2, 50352, Note_off_c, 0, 47, 64
2, 50400, Note_on_c, 0, 43, 127
2, 50400, Note_on_c, 0, 55, 127
2, 50400, Note_on_c, 0, 47, 127
2, 50400, Note_on_c, 0, 50, 127
2, 50400, Note_on_c, 0, 74, 127
2, 50592, Note_off_c, 0, 74, 64
2, 50592, Note_off_c, 0, 50, 64
2, 50592, Note_off_c, 0, 47, 64
2, 50592, Note_off_c, 0, 55, 64
2, 50592, Note_off_c, 0, 43, 64
2, 50640, Note_on_c, 0, 55, 127
2, 50640, Note_on_c, 0, 50, 127
2, 50640, Note_on_c, 0, 43, 127
2, 50640, Note_on_c, 0, 47, 127
2, 50640, Note_on_c, 0, 74, 127
2, 50832, Note_off_c, 0, 74, 64
2, 50832, Note_off_c, 0, 47, 64
2, 50832, Note_off_c, 0, 43, 64
2, 50832, Note_off_c, 0, 50, 64
2, 50832, Note_off_c, 0, 55, 64
2, 50880, Note_on_c, 0, 55, 127
2, 50880, Note_on_c, 0, 43, 127
2, 50880, Note_on_c, 0, 47, 127
2, 50880, Note_on_c, 0, 50, 127
2, 50880, Note_on_c, 0, 79, 127
2, 51072, Note_off_c, 0, 79, 64
2, 51072, Note_off_c, 0, 50, 64
2, 51072, Note_off_c, 0, 47, 64
2, 51072, Note_off_c, 0, 43, 64
2, 51072, Note_off_c, 0, 55, 64
2, 51120, Note_on_c, 0, 47, 127
2, 51120, Note_on_c, 0, 55, 127
2, 51120, Note_on_c, 0, 43, 127
2, 51120, Note_on_c, 0, 50, 127
2, 51120, Note_on_c, 0, 79, 127
2, 51312, Note_off_c, 0, 79, 64
2, 51312, Note_off_c, 0, 50, 64
2, 51312, Note_off_c, 0, 43, 64
2, 51312, Note_off_c, 0, 55, 64
2, 51312, Note_off_c, 0, 47, 64
2, 51360, Note_on_c, 0, 55, 127
2, 51360, Note_on_c, 0, 43, 127
2, 51360, Note_on_c, 0, 47, 127
2, 51360, Note_on_c, 0, 50, 127
2, 51360, Note_on_c, 0, 83, 127
2, 51552, Note_off_c, 0, 50, 64
2, 51552, Note_off_c, 0, 47, 64
2, 51552, Note_off_c, 0, 43, 64
2, 51552, Note_off_c, 0, 55, 64
2, 51600, Note_on_c, 0, 43, 127
2, 51600, Note_on_c, 0, 55, 127
2, 51600, Note_on_c, 0, 47, 127
2, 51600, Note_on_c, 0, 50, 127
2, 51744, Note_off_c, 0, 83, 64
2, 51792, Note_off_c, 0, 43, 64
2, 51792, Note_off_c, 0, 55, 64
2, 51792, Note_off_c, 0, 47, 64
2, 51792, Note_off_c, 0, 50, 64
2, 51840, Note_on_c, 0, 48, 127
2, 51840, Note_on_c, 0, 50, 127
2, 51840, Note_on_c, 0, 43, 127
2, 51840, Note_on_c, 0, 86, 127
2, 51840, Note_on_c, 0, 54, 127
2, 51936, Note_off_c, 0, 86, 64
2, 51960, Note_on_c, 0, 84, 127
2, 52032, Note_off_c, 0, 43, 64
2, 52032, Note_off_c, 0, 50, 64
2, 52032, Note_off_c, 0, 48, 64
2, 52032, Note_off_c, 0, 54, 64
2, 52056, Note_off_c, 0, 84, 64
2, 52080, Note_on_c, 0, 48, 127
2, 52080, Note_on_c, 0, 50, 127
2, 52080, Note_on_c, 0, 86, 127
2, 52080, Note_on_c, 0, 43, 127
2, 52080, Note_on_c, 0, 54, 127
2, 52176, Note_off_c, 0, 86, 64
2, 52200, Note_on_c, 0, 84, 127
2, 52272, Note_off_c, 0, 50, 64
2, 52272, Note_off_c, 0, 48, 64
2, 52272, Note_off_c, 0, 43, 64
2, 52272, Note_off_c, 0, 54, 64
2, 52296, Note_off_c, 0, 84, 64
2, 52320, Note_on_c, 0, 43, 127
2, 52320, Note_on_c, 0, 54, 127
2, 52320, Note_on_c, 0, 48, 127
2, 52320, Note_on_c, 0, 50, 127
2, 52320, Note_on_c, 0, 81, 127
2, 52512, Note_off_c, 0, 81, 64
2, 52512, Note_off_c, 0, 50, 64
2, 52512, Note_off_c, 0, 48, 64
2, 52512, Note_off_c, 0, 54, 64
2, 52512, Note_off_c, 0, 43, 64
2, 52560, Note_on_c, 0, 43, 127
2, 52560, Note_on_c, 0, 54, 127
2, 52560, Note_on_c, 0, 48, 127
2, 52560, Note_on_c, 0, 50, 127
2, 52560, Note_on_c, 0, 81, 127
2, 52656, Note_off_c, 0, 81, 64
2, 52680, Note_on_c, 0, 83, 127
2, 52752, Note_off_c, 0, 50, 64
2, 52752, Note_off_c, 0, 48, 64
2, 52752, Note_off_c, 0, 54, 64
2, 52752, Note_off_c, 0, 43, 64
2, 52776, Note_off_c, 0, 83, 64
2, 52800, Note_on_c, 0, 43, 127
2, 52800, Note_on_c, 0, 47, 127
2, 52800, Note_on_c, 0, 55, 127
2, 52800, Note_on_c, 0, 50, 127
2, 52800, Note_on_c, 0, 79, 127
2, 53184, Note_off_c, 0, 79, 64
2, 53184, Note_off_c, 0, 50, 64
2, 53184, Note_off_c, 0, 55, 64
2, 53184, Note_off_c, 0, 47, 64
2, 53184, Note_off_c, 0, 43, 64
2, 53280, Note_on_c, 0, 43, 127
2, 53520, Note_on_c, 0, 74, 127
2, 53664, Note_off_c, 0, 43, 64
2, 53712, Note_off_c, 0, 74, 64
2, 53760, Note_on_c, 0, 55, 127
2, 53760, Note_on_c, 0, 50, 127
2, 53760, Note_on_c, 0, 43, 127
2, 53760, Note_on_c, 0, 82, 127
2, 53760, Note_on_c, 0, 46, 127
2, 53856, Note_off_c, 0, 82, 64
2, 53880, Note_on_c, 0, 86, 127
2, 53952, Note_off_c, 0, 43, 64
2, 53952, Note_off_c, 0, 50, 64
2, 53952, Note_off_c, 0, 55, 64
2, 53952, Note_off_c, 0, 46, 64
2, 53976, Note_off_c, 0, 86, 64
2, 54000, Note_on_c, 0, 55, 127
2, 54000, Note_on_c, 0, 50, 127
2, 54000, Note_on_c, 0, 79, 127
2, 54000, Note_on_c, 0, 43, 127
2, 54000, Note_on_c, 0, 46, 127
2, 54096, Note_off_c, 0, 79, 64
2, 54120, Note_on_c, 0, 82, 127
2, 54192, Note_off_c, 0, 50, 64
2, 54192, Note_off_c, 0, 55, 64
2, 54192, Note_off_c, 0, 43, 64
2, 54192, Note_off_c, 0, 46, 64
2, 54216, Note_off_c, 0, 82, 64
2, 54240, Note_on_c, 0, 74, 127
2, 54336, Note_off_c, 0, 74, 64
2, 54360, Note_on_c, 0, 79, 127
2, 54456, Note_off_c, 0, 79, 64
2, 54480, Note_on_c, 0, 43, 127
2, 54480, Note_on_c, 0, 46, 127
2, 54480, Note_on_c, 0, 55, 127
2, 54480, Note_on_c, 0, 50, 127
2, 54480, Note_on_c, 0, 70, 127
2, 54576, Note_off_c, 0, 70, 64
2, 54600, Note_on_c, 0, 74, 127
2, 54672, Note_off_c, 0, 50, 64
2, 54672, Note_off_c, 0, 55, 64
2, 54672, Note_off_c, 0, 46, 64
2, 54672, Note_off_c, 0, 43, 64
2, 54696, Note_off_c, 0, 74, 64
2, 54720, Note_on_c, 0, 55, 127
2, 54720, Note_on_c, 0, 51, 127
2, 54720, Note_on_c, 0, 48, 127
2, 54720, Note_on_c, 0, 75, 127
2, 54816, Note_off_c, 0, 75, 64
2, 54840, Note_on_c, 0, 79, 127
2, 54912, Note_off_c, 0, 48, 64
2, 54912, Note_off_c, 0, 51, 64
2, 54912, Note_off_c, 0, 55, 64
2, 54936, Note_off_c, 0, 79, 64
2, 54960, Note_on_c, 0, 51, 127
2, 54960, Note_on_c, 0, 48, 127
2, 54960, Note_on_c, 0, 72, 127
2, 54960, Note_on_c, 0, 55, 127
2, 55056, Note_off_c, 0, 72, 64
2, 55080, Note_on_c, 0, 75, 127
2, 55152, Note_off_c, 0, 48, 64
2, 55152, Note_off_c, 0, 51, 64
2, 55152, Note_off_c, 0, 55, 64
2, 55176, Note_off_c, 0, 75, 64
2, 55200, Note_on_c, 0, 67, 127
2, 55296, Note_off_c, 0, 67, 64
2, 55320, Note_on_c, 0, 72, 127
2, 55416, Note_off_c, 0, 72, 64
2, 55440, Note_on_c, 0, 55, 127
2, 55440, Note_on_c, 0, 51, 127
2, 55440, Note_on_c, 0, 48, 127
2, 55440, Note_on_c, 0, 63, 127
2, 55536, Note_off_c, 0, 63, 64
2, 55560, Note_on_c, 0, 67, 127
2, 55632, Note_off_c, 0, 48, 64
2, 55632, Note_off_c, 0, 51, 64
2, 55632, Note_off_c, 0, 55, 64
2, 55656, Note_off_c, 0, 67, 64
2, 55680, Note_on_c, 0, 81, 127
2, 55680, Note_on_c, 0, 53, 127
2, 55680, Note_on_c, 0, 45, 127
2, 55680, Note_on_c, 0, 48, 127
2, 55680, Note_on_c, 0, 41, 127
2, 55776, Note_off_c, 0, 81, 64
2, 55800, Note_on_c, 0, 84, 127
2, 55872, Note_off_c, 0, 53, 64
2, 55872, Note_off_c, 0, 45, 64
2, 55872, Note_off_c, 0, 48, 64
2, 55872, Note_off_c, 0, 41, 64
2, 55896, Note_off_c, 0, 84, 64
2, 55920, Note_on_c, 0, 53, 127
2, 55920, Note_on_c, 0, 45, 127
2, 55920, Note_on_c, 0, 48, 127
2, 55920, Note_on_c, 0, 41, 127
2, 55920, Note_on_c, 0, 77, 127
2, 56016, Note_off_c, 0, 77, 64
2, 56040, Note_on_c, 0, 81, 127
2, 56112, Note_off_c, 0, 41, 64
2, 56112, Note_off_c, 0, 48, 64
2, 56112, Note_off_c, 0, 45, 64
2, 56112, Note_off_c, 0, 53, 64
2, 56136, Note_off_c, 0, 81, 64
2, 56160, Note_on_c, 0, 72, 127
2, 56256, Note_off_c, 0, 72, 64
2, 56280, Note_on_c, 0, 77, 127
2, 56376, Note_off_c, 0, 77, 64
2, 56400, Note_on_c, 0, 41, 127
2, 56400, Note_on_c, 0, 53, 127
2, 56400, Note_on_c, 0, 45, 127
2, 56400, Note_on_c, 0, 48, 127
2, 56400, Note_on_c, 0, 69, 127
2, 56496, Note_off_c, 0, 69, 64
2, 56520, Note_on_c, 0, 72, 127
2, 56592, Note_off_c, 0, 48, 64
2, 56592, Note_off_c, 0, 45, 64
2, 56592, Note_off_c, 0, 53, 64
2, 56592, Note_off_c, 0, 41, 64
2, 56616, Note_off_c, 0, 72, 64
2, 56640, Note_on_c, 0, 46, 127
2, 56640, Note_on_c, 0, 53, 127
2, 56640, Note_on_c, 0, 50, 127
2, 56640, Note_on_c, 0, 74, 127
2, 56736, Note_off_c, 0, 74, 64
2, 56760, Note_on_c, 0, 77, 127
2, 56832, Note_off_c, 0, 50, 64
2, 56832, Note_off_c, 0, 53, 64
2, 56832, Note_off_c, 0, 46, 64
2, 56856, Note_off_c, 0, 77, 64
2, 56880, Note_on_c, 0, 46, 127
2, 56880, Note_on_c, 0, 50, 127
2, 56880, Note_on_c, 0, 70, 127
2, 56880, Note_on_c, 0, 53, 127
2, 56976, Note_off_c, 0, 70, 64
2, 57000, Note_on_c, 0, 74, 127
2, 57072, Note_off_c, 0, 50, 64
2, 57072, Note_off_c, 0, 46, 64
2, 57072, Note_off_c, 0, 53, 64
2, 57096, Note_off_c, 0, 74, 64
2, 57120, Note_on_c, 0, 65, 127
2, 57216, Note_off_c, 0, 65, 64
2, 57240, Note_on_c, 0, 70, 127
2, 57336, Note_off_c, 0, 70, 64
2, 57360, Note_on_c, 0, 50, 127
2, 57360, Note_on_c, 0, 53, 127
2, 57360, Note_on_c, 0, 46, 127
2, 57360, Note_on_c, 0, 62, 127
2, 57456, Note_off_c, 0, 62, 64
2, 57480, Note_on_c, 0, 65, 127
2, 57552, Note_off_c, 0, 46, 64
2, 57552, Note_off_c, 0, 53, 64
2, 57552, Note_off_c, 0, 50, 64
2, 57576, Note_off_c, 0, 65, 64
2, 57600, Note_on_c, 0, 89, 127
2, 57600, Note_on_c, 0, 38, 127
2, 57600, Note_on_c, 0, 50, 127
2, 57696, Note_off_c, 0, 89, 64
2, 57720, Note_on_c, 0, 86, 127
2, 57792, Note_off_c, 0, 38, 64
2, 57792, Note_off_c, 0, 50, 64
2, 57816, Note_off_c, 0, 86, 64
2, 57840, Note_on_c, 0, 38, 127
2, 57840, Note_on_c, 0, 50, 127
2, 57840, Note_on_c, 0, 82, 127
2, 57936, Note_off_c, 0, 82, 64
2, 57960, Note_on_c, 0, 86, 127
2, 58032, Note_off_c, 0, 50, 64
2, 58032, Note_off_c, 0, 38, 64
2, 58056, Note_off_c, 0, 86, 64
2, 58080, Note_on_c, 0, 77, 127
2, 58176, Note_off_c, 0, 77, 64
2, 58200, Note_on_c, 0, 82, 127
2, 58296, Note_off_c, 0, 82, 64
2, 58320, Note_on_c, 0, 50, 127
2, 58320, Note_on_c, 0, 38, 127
2, 58320, Note_on_c, 0, 74, 127
2, 58416, Note_off_c, 0, 74, 64
2, 58440, Note_on_c, 0, 77, 127
2, 58512, Note_off_c, 0, 38, 64
2, 58512, Note_off_c, 0, 50, 64
2, 58536, Note_off_c, 0, 77, 64
2, 58560, Note_on_c, 0, 72, 127
2, 58560, Note_on_c, 0, 39, 127
2, 58560, Note_on_c, 0, 51, 127
2, 58656, Note_off_c, 0, 72, 64
2, 58680, Note_on_c, 0, 75, 127
2, 58752, Note_off_c, 0, 39, 64
2, 58752, Note_off_c, 0, 51, 64
2, 58776, Note_off_c, 0, 75, 64
2, 58800, Note_on_c, 0, 51, 127
2, 58800, Note_on_c, 0, 39, 127
2, 58800, Note_on_c, 0, 67, 127
2, 58896, Note_off_c, 0, 67, 64
2, 58920, Note_on_c, 0, 72, 127
2, 58992, Note_off_c, 0, 39, 64
2, 58992, Note_off_c, 0, 51, 64
2, 59016, Note_off_c, 0, 72, 64
2, 59040, Note_on_c, 0, 63, 127
2, 59136, Note_off_c, 0, 63, 64
2, 59160, Note_on_c, 0, 67, 127
2, 59256, Note_off_c, 0, 67, 64
2, 59280, Note_on_c, 0, 39, 127
2, 59280, Note_on_c, 0, 51, 127
2, 59280, Note_on_c, 0, 60, 127
2, 59376, Note_off_c, 0, 60, 64
2, 59400, Note_on_c, 0, 63, 127
2, 59472, Note_off_c, 0, 51, 64
2, 59472, Note_off_c, 0, 39, 64
2, 59496, Note_off_c, 0, 63, 64
2, 59520, Note_on_c, 0, 62, 127
2, 59520, Note_on_c, 0, 53, 127
2, 59520, Note_on_c, 0, 41, 127
2, 59616, Note_off_c, 0, 62, 64
2, 59640, Note_on_c, 0, 65, 127
2, 59712, Note_off_c, 0, 53, 64
2, 59712, Note_off_c, 0, 41, 64
2, 59736, Note_off_c, 0, 65, 64
2, 59760, Note_on_c, 0, 58, 127
2, 59856, Note_off_c, 0, 58, 64
2, 59880, Note_on_c, 0, 62, 127
2, 59976, Note_off_c, 0, 62, 64
2, 60000, Note_on_c, 0, 41, 127
2, 60000, Note_on_c, 0, 60, 127
2, 60096, Note_off_c, 0, 60, 64
2, 60120, Note_on_c, 0, 63, 127
2, 60192, Note_off_c, 0, 41, 64
2, 60216, Note_off_c, 0, 63, 64
2, 60240, Note_on_c, 0, 57, 127
2, 60336, Note_off_c, 0, 57, 64
2, 60360, Note_on_c, 0, 60, 127
2, 60456, Note_off_c, 0, 60, 64
2, 60480, Note_on_c, 0, 58, 127
2, 60600, Note_on_c, 0, 46, 127
2, 60696, Note_off_c, 0, 46, 64
2, 60720, Note_on_c, 0, 50, 127
2, 60816, Note_off_c, 0, 50, 64
2, 60840, Note_on_c, 0, 48, 127
2, 60864, Note_off_c, 0, 58, 64
2, 60936, Note_off_c, 0, 48, 64
2, 60960, Note_on_c, 0, 46, 127
2, 61056, Note_off_c, 0, 46, 64
2, 61080, Note_on_c, 0, 48, 127
2, 61176, Note_off_c, 0, 48, 64
2, 61200, Note_on_c, 0, 46, 127
2, 61200, Note_on_c, 0, 74, 127
2, 61296, Note_off_c, 0, 46, 64
2, 61320, Note_on_c, 0, 45, 127
2, 61392, Note_off_c, 0, 74, 64
2, 61416, Note_off_c, 0, 45, 64
2, 61440, Note_on_c, 0, 55, 127
2, 61440, Note_on_c, 0, 50, 127
2, 61440, Note_on_c, 0, 43, 127
2, 61440, Note_on_c, 0, 82, 127
2, 61440, Note_on_c, 0, 46, 127
2, 61536, Note_off_c, 0, 82, 64
2, 61560, Note_on_c, 0, 86, 127
2, 61632, Note_off_c, 0, 43, 64
2, 61632, Note_off_c, 0, 50, 64
2, 61632, Note_off_c, 0, 55, 64
2, 61632, Note_off_c, 0, 46, 64
2, 61656, Note_off_c, 0, 86, 64
2, 61680, Note_on_c, 0, 55, 127
2, 61680, Note_on_c, 0, 50, 127
2, 61680, Note_on_c, 0, 79, 127
2, 61680, Note_on_c, 0, 43, 127
2, 61680, Note_on_c, 0, 46, 127
2, 61776, Note_off_c, 0, 79, 64
2, 61800, Note_on_c, 0, 82, 127
2, 61872, Note_off_c, 0, 50, 64
2, 61872, Note_off_c, 0, 55, 64
2, 61872, Note_off_c, 0, 43, 64
2, 61872, Note_off_c, 0, 46, 64
2, 61896, Note_off_c, 0, 82, 64
2, 61920, Note_on_c, 0, 74, 127
2, 62016, Note_off_c, 0, 74, 64
2, 62040, Note_on_c, 0, 79, 127
2, 62136, Note_off_c, 0, 79, 64
2, 62160, Note_on_c, 0, 43, 127
2, 62160, Note_on_c, 0, 46, 127
2, 62160, Note_on_c, 0, 55, 127
2, 62160, Note_on_c, 0, 50, 127
2, 62160, Note_on_c, 0, 70, 127
2, 62256, Note_off_c, 0, 70, 64
2, 62280, Note_on_c, 0, 74, 127
2, 62352, Note_off_c, 0, 50, 64
2, 62352, Note_off_c, 0, 55, 64
2, 62352, Note_off_c, 0, 46, 64
2, 62352, Note_off_c, 0, 43, 64
2, 62376, Note_off_c, 0, 74, 64
2, 62400, Note_on_c, 0, 55, 127
2, 62400, Note_on_c, 0, 51, 127
2, 62400, Note_on_c, 0, 48, 127
2, 62400, Note_on_c, 0, 75, 127
2, 62496, Note_off_c, 0, 75, 64
2, 62520, Note_on_c, 0, 79, 127
2, 62592, Note_off_c, 0, 48, 64
2, 62592, Note_off_c, 0, 51, 64
2, 62592, Note_off_c, 0, 55, 64
2, 62616, Note_off_c, 0, 79, 64
2, 62640, Note_on_c, 0, 51, 127
2, 62640, Note_on_c, 0, 48, 127
2, 62640, Note_on_c, 0, 72, 127
2, 62640, Note_on_c, 0, 55, 127
2, 62736, Note_off_c, 0, 72, 64
2, 62760, Note_on_c, 0, 75, 127
2, 62832, Note_off_c, 0, 48, 64
2, 62832, Note_off_c, 0, 51, 64
2, 62832, Note_off_c, 0, 55, 64
2, 62856, Note_off_c, 0, 75, 64
2, 62880, Note_on_c, 0, 67, 127
2, 62976, Note_off_c, 0, 67, 64
2, 63000, Note_on_c, 0, 72, 127
2, 63096, Note_off_c, 0, 72, 64
2, 63120, Note_on_c, 0, 55, 127
2, 63120, Note_on_c, 0, 51, 127
2, 63120, Note_on_c, 0, 48, 127
2, 63120, Note_on_c, 0, 63, 127
2, 63216, Note_off_c, 0, 63, 64
2, 63240, Note_on_c, 0, 67, 127
2, 63312, Note_off_c, 0, 48, 64
2, 63312, Note_off_c, 0, 51, 64
2, 63312, Note_off_c, 0, 55, 64
2, 63336, Note_off_c, 0, 67, 64
2, 63360, Note_on_c, 0, 81, 127
2, 63360, Note_on_c, 0, 53, 127
2, 63360, Note_on_c, 0, 45, 127
2, 63360, Note_on_c, 0, 48, 127
2, 63360, Note_on_c, 0, 41, 127
2, 63456, Note_off_c, 0, 81, 64
2, 63480, Note_on_c, 0, 84, 127
2, 63552, Note_off_c, 0, 53, 64
2, 63552, Note_off_c, 0, 45, 64
2, 63552, Note_off_c, 0, 48, 64
2, 63552, Note_off_c, 0, 41, 64
2, 63576, Note_off_c, 0, 84, 64
2, 63600, Note_on_c, 0, 53, 127
2, 63600, Note_on_c, 0, 45, 127
2, 63600, Note_on_c, 0, 48, 127
2, 63600, Note_on_c, 0, 41, 127
2, 63600, Note_on_c, 0, 77, 127
2, 63696, Note_off_c, 0, 77, 64
2, 63720, Note_on_c, 0, 81, 127
2, 63792, Note_off_c, 0, 41, 64
2, 63792, Note_off_c, 0, 48, 64
2, 63792, Note_off_c, 0, 45, 64
2, 63792, Note_off_c, 0, 53, 64
2, 63816, Note_off_c, 0, 81, 64
2, 63840, Note_on_c, 0, 72, 127
2, 63936, Note_off_c, 0, 72, 64
2, 63960, Note_on_c, 0, 77, 127
2, 64056, Note_off_c, 0, 77, 64
2, 64080, Note_on_c, 0, 41, 127
2, 64080, Note_on_c, 0, 53, 127
2, 64080, Note_on_c, 0, 45, 127
2, 64080, Note_on_c, 0, 48, 127
2, 64080, Note_on_c, 0, 69, 127
2, 64176, Note_off_c, 0, 69, 64
2, 64200, Note_on_c, 0, 72, 127
2, 64272, Note_off_c, 0, 48, 64
2, 64272, Note_off_c, 0, 45, 64
2, 64272, Note_off_c, 0, 53, 64
2, 64272, Note_off_c, 0, 41, 64
2, 64296, Note_off_c, 0, 72, 64
2, 64320, Note_on_c, 0, 46, 127
2, 64320, Note_on_c, 0, 53, 127
2, 64320, Note_on_c, 0, 50, 127
2, 64320, Note_on_c, 0, 74, 127
2, 64416, Note_off_c, 0, 74, 64
2, 64440, Note_on_c, 0, 77, 127
2, 64512, Note_off_c, 0, 50, 64
2, 64512, Note_off_c, 0, 53, 64
2, 64512, Note_off_c, 0, 46, 64
2, 64536, Note_off_c, 0, 77, 64
2, 64560, Note_on_c, 0, 46, 127
2, 64560, Note_on_c, 0, 50, 127
2, 64560, Note_on_c, 0, 70, 127
2, 64560, Note_on_c, 0, 53, 127
2, 64656, Note_off_c, 0, 70, 64
2, 64680, Note_on_c, 0, 74, 127
2, 64752, Note_off_c, 0, 50, 64
2, 64752, Note_off_c, 0, 46, 64
2, 64752, Note_off_c, 0, 53, 64
2, 64776, Note_off_c, 0, 74, 64
2, 64800, Note_on_c, 0, 65, 127
2, 64896, Note_off_c, 0, 65, 64
2, 64920, Note_on_c, 0, 70, 127
2, 65016, Note_off_c, 0, 70, 64
2, 65040, Note_on_c, 0, 50, 127
2, 65040, Note_on_c, 0, 53, 127
2, 65040, Note_on_c, 0, 46, 127
2, 65040, Note_on_c, 0, 62, 127
2, 65136, Note_off_c, 0, 62, 64
2, 65160, Note_on_c, 0, 65, 127
2, 65232, Note_off_c, 0, 46, 64
2, 65232, Note_off_c, 0, 53, 64
2, 65232, Note_off_c, 0, 50, 64
2, 65256, Note_off_c, 0, 65, 64
2, 65280, Note_on_c, 0, 89, 127
2, 65280, Note_on_c, 0, 38, 127
2, 65280, Note_on_c, 0, 50, 127
2, 65376, Note_off_c, 0, 89, 64
2, 65400, Note_on_c, 0, 86, 127
2, 65472, Note_off_c, 0, 38, 64
2, 65472, Note_off_c, 0, 50, 64
2, 65496, Note_off_c, 0, 86, 64
2, 65520, Note_on_c, 0, 38, 127
2, 65520, Note_on_c, 0, 50, 127
2, 65520, Note_on_c, 0, 82, 127
2, 65616, Note_off_c, 0, 82, 64
2, 65640, Note_on_c, 0, 86, 127
2, 65712, Note_off_c, 0, 50, 64
2, 65712, Note_off_c, 0, 38, 64
2, 65736, Note_off_c, 0, 86, 64
2, 65760, Note_on_c, 0, 77, 127
2, 65856, Note_off_c, 0, 77, 64
2, 65880, Note_on_c, 0, 82, 127
2, 65976, Note_off_c, 0, 82, 64
2, 66000, Note_on_c, 0, 50, 127
2, 66000, Note_on_c, 0, 38, 127
2, 66000, Note_on_c, 0, 74, 127
2, 66096, Note_off_c, 0, 74, 64
2, 66120, Note_on_c, 0, 77, 127
2, 66192, Note_off_c, 0, 38, 64
2, 66192, Note_off_c, 0, 50, 64
2, 66216, Note_off_c, 0, 77, 64
2, 66240, Note_on_c, 0, 72, 127
2, 66240, Note_on_c, 0, 39, 127
2, 66240, Note_on_c, 0, 51, 127
2, 66336, Note_off_c, 0, 72, 64
2, 66360, Note_on_c, 0, 75, 127
2, 66432, Note_off_c, 0, 39, 64
2, 66432, Note_off_c, 0, 51, 64
2, 66456, Note_off_c, 0, 75, 64
2, 66480, Note_on_c, 0, 51, 127
2, 66480, Note_on_c, 0, 39, 127
2, 66480, Note_on_c, 0, 67, 127
2, 66576, Note_off_c, 0, 67, 64
2, 66600, Note_on_c, 0, 72, 127
2, 66672, Note_off_c, 0, 39, 64
2, 66672, Note_off_c, 0, 51, 64
2, 66696, Note_off_c, 0, 72, 64
2, 66720, Note_on_c, 0, 63, 127
2, 66816, Note_off_c, 0, 63, 64
2, 66840, Note_on_c, 0, 67, 127
2, 66936, Note_off_c, 0, 67, 64
2, 66960, Note_on_c, 0, 39, 127
2, 66960, Note_on_c, 0, 51, 127
2, 66960, Note_on_c, 0, 60, 127
2, 67056, Note_off_c, 0, 60, 64
2, 67080, Note_on_c, 0, 63, 127
2, 67152, Note_off_c, 0, 51, 64
2, 67152, Note_off_c, 0, 39, 64
2, 67176, Note_off_c, 0, 63, 64
2, 67200, Note_on_c, 0, 62, 127
2, 67200, Note_on_c, 0, 53, 127
2, 67200, Note_on_c, 0, 41, 127
2, 67296, Note_off_c, 0, 62, 64
2, 67320, Note_on_c, 0, 65, 127
2, 67392, Note_off_c, 0, 53, 64
2, 67392, Note_off_c, 0, 41, 64
2, 67416, Note_off_c, 0, 65, 64
2, 67440, Note_on_c, 0, 58, 127
2, 67536, Note_off_c, 0, 58, 64
2, 67560, Note_on_c, 0, 62, 127
2, 67656, Note_off_c, 0, 62, 64
2, 67680, Note_on_c, 0, 41, 127
2, 67680, Note_on_c, 0, 60, 127
2, 67776, Note_off_c, 0, 60, 64
2, 67800, Note_on_c, 0, 63, 127
2, 67872, Note_off_c, 0, 41, 64
2, 67896, Note_off_c, 0, 63, 64
2, 67920, Note_on_c, 0, 57, 127
2, 68016, Note_off_c, 0, 57, 64
2, 68040, Note_on_c, 0, 60, 127
2, 68136, Note_off_c, 0, 60, 64
2, 68160, Note_on_c, 0, 58, 127
2, 68280, Note_on_c, 0, 46, 127
2, 68376, Note_off_c, 0, 46, 64
2, 68400, Note_on_c, 0, 50, 127
2, 68496, Note_off_c, 0, 50, 64
2, 68520, Note_on_c, 0, 53, 127
2, 68544, Note_off_c, 0, 58, 64
2, 68616, Note_off_c, 0, 53, 64
2, 68640, Note_on_c, 0, 58, 127
2, 68832, Note_off_c, 0, 58, 64
2, 68880, Note_on_c, 0, 77, 127
2, 69072, Note_off_c, 0, 77, 64
2, 69120, Note_on_c, 0, 58, 127
2, 69120, Note_on_c, 0, 89, 127
2, 69120, Note_on_c, 0, 46, 127
2, 69216, Note_off_c, 0, 89, 64
2, 69240, Note_on_c, 0, 86, 127
2, 69336, Note_off_c, 0, 86, 64
2, 69360, Note_on_c, 0, 82, 127
2, 69456, Note_off_c, 0, 82, 64
2, 69480, Note_on_c, 0, 86, 127
2, 69576, Note_off_c, 0, 86, 64
2, 69600, Note_on_c, 0, 77, 127
2, 69696, Note_off_c, 0, 58, 64
2, 69696, Note_off_c, 0, 46, 64
2, 69696, Note_off_c, 0, 77, 64
2, 69720, Note_on_c, 0, 82, 127
2, 69816, Note_off_c, 0, 82, 64
2, 69840, Note_on_c, 0, 44, 127
2, 69840, Note_on_c, 0, 56, 127
2, 69840, Note_on_c, 0, 74, 127
2, 69936, Note_off_c, 0, 74, 64
2, 69960, Note_on_c, 0, 77, 127
2, 70032, Note_off_c, 0, 56, 64
2, 70032, Note_off_c, 0, 44, 64
2, 70056, Note_off_c, 0, 77, 64
2, 70080, Note_on_c, 0, 55, 127
2, 70080, Note_on_c, 0, 43, 127
2, 70080, Note_on_c, 0, 71, 127
2, 70176, Note_off_c, 0, 71, 64
2, 70200, Note_on_c, 0, 74, 127
2, 70296, Note_off_c, 0, 74, 64
2, 70320, Note_on_c, 0, 65, 127
2, 70416, Note_off_c, 0, 65, 64
2, 70440, Note_on_c, 0, 71, 127
2, 70464, Note_off_c, 0, 43, 64
2, 70464, Note_off_c, 0, 55, 64
2, 70536, Note_off_c, 0, 71, 64
2, 70560, Note_on_c, 0, 62, 127
2, 70656, Note_off_c, 0, 62, 64
2, 70680, Note_on_c, 0, 65, 127
2, 70776, Note_off_c, 0, 65, 64
2, 70800, Note_on_c, 0, 43, 127
2, 70800, Note_on_c, 0, 55, 127
2, 70800, Note_on_c, 0, 59, 127
2, 70896, Note_off_c, 0, 59, 64
2, 70920, Note_on_c, 0, 62, 127
2, 70992, Note_off_c, 0, 55, 64
2, 70992, Note_off_c, 0, 43, 64
2, 71016, Note_off_c, 0, 62, 64
2, 71040, Note_on_c, 0, 48, 127
2, 71040, Note_on_c, 0, 60, 127
2, 71040, Note_on_c, 0, 87, 127
2, 71136, Note_off_c, 0, 87, 64
2, 71160, Note_on_c, 0, 84, 127
2, 71256, Note_off_c, 0, 84, 64
2, 71280, Note_on_c, 0, 79, 127
2, 71376, Note_off_c, 0, 79, 64
2, 71400, Note_on_c, 0, 84, 127
2, 71424, Note_off_c, 0, 60, 64
2, 71424, Note_off_c, 0, 48, 64
2, 71496, Note_off_c, 0, 84, 64
2, 71520, Note_on_c, 0, 75, 127
2, 71616, Note_off_c, 0, 75, 64
2, 71640, Note_on_c, 0, 79, 127
2, 71736, Note_off_c, 0, 79, 64
2, 71760, Note_on_c, 0, 46, 127
2, 71760, Note_on_c, 0, 58, 127
2, 71760, Note_on_c, 0, 74, 127
2, 71856, Note_off_c, 0, 74, 64
2, 71880, Note_on_c, 0, 79, 127
2, 71952, Note_off_c, 0, 58, 64
2, 71952, Note_off_c, 0, 46, 64
2, 71976, Note_off_c, 0, 79, 64
2, 72000, Note_on_c, 0, 45, 127
2, 72000, Note_on_c, 0, 57, 127
2, 72000, Note_on_c, 0, 73, 127
2, 72096, Note_off_c, 0, 73, 64
2, 72120, Note_on_c, 0, 76, 127
2, 72216, Note_off_c, 0, 76, 64
2, 72240, Note_on_c, 0, 67, 127
2, 72336, Note_off_c, 0, 67, 64
2, 72360, Note_on_c, 0, 73, 127
2, 72384, Note_off_c, 0, 57, 64
2, 72384, Note_off_c, 0, 45, 64
2, 72456, Note_off_c, 0, 73, 64
2, 72480, Note_on_c, 0, 64, 127
2, 72576, Note_off_c, 0, 64, 64
2, 72600, Note_on_c, 0, 67, 127
2, 72696, Note_off_c, 0, 67, 64
2, 72720, Note_on_c, 0, 33, 127
2, 72720, Note_on_c, 0, 45, 127
2, 72720, Note_on_c, 0, 61, 127
2, 72816, Note_off_c, 0, 61, 64
2, 72840, Note_on_c, 0, 64, 127
2, 72912, Note_off_c, 0, 45, 64
2, 72912, Note_off_c, 0, 33, 64
2, 72936, Note_off_c, 0, 64, 64
2, 72960, Note_on_c, 0, 50, 127
2, 72960, Note_on_c, 0, 62, 127
2, 72960, Note_on_c, 0, 38, 127
2, 73056, Note_off_c, 0, 62, 64
2, 73080, Note_on_c, 0, 66, 127
2, 73176, Note_off_c, 0, 66, 64
2, 73200, Note_on_c, 0, 69, 127
2, 73296, Note_off_c, 0, 69, 64
2, 73320, Note_on_c, 0, 66, 127
2, 73416, Note_off_c, 0, 66, 64
2, 73440, Note_on_c, 0, 74, 127
2, 73536, Note_off_c, 0, 50, 64
2, 73536, Note_off_c, 0, 38, 64
2, 73536, Note_off_c, 0, 74, 64
2, 73560, Note_on_c, 0, 69, 127
2, 73656, Note_off_c, 0, 69, 64
2, 73680, Note_on_c, 0, 36, 127
2, 73680, Note_on_c, 0, 48, 127
2, 73680, Note_on_c, 0, 78, 127
2, 73776, Note_off_c, 0, 78, 64
2, 73800, Note_on_c, 0, 74, 127
2, 73872, Note_off_c, 0, 48, 64
2, 73872, Note_off_c, 0, 36, 64
2, 73896, Note_off_c, 0, 74, 64
2, 73920, Note_on_c, 0, 79, 127
2, 73920, Note_on_c, 0, 34, 127
2, 73920, Note_on_c, 0, 46, 127
2, 74016, Note_off_c, 0, 79, 64
2, 74040, Note_on_c, 0, 74, 127
2, 74112, Note_off_c, 0, 34, 64
2, 74112, Note_off_c, 0, 46, 64
2, 74136, Note_off_c, 0, 74, 64
2, 74160, Note_on_c, 0, 34, 127
2, 74160, Note_on_c, 0, 46, 127
2, 74160, Note_on_c, 0, 70, 127
2, 74256, Note_off_c, 0, 70, 64
2, 74280, Note_on_c, 0, 74, 127
2, 74352, Note_off_c, 0, 46, 64
2, 74352, Note_off_c, 0, 34, 64
2, 74376, Note_off_c, 0, 74, 64
2, 74400, Note_on_c, 0, 67, 127
2, 74496, Note_off_c, 0, 67, 64
2, 74520, Note_on_c, 0, 70, 127
2, 74616, Note_off_c, 0, 70, 64
2, 74640, Note_on_c, 0, 34, 127
2, 74640, Note_on_c, 0, 46, 127
2, 74640, Note_on_c, 0, 62, 127
2, 74736, Note_off_c, 0, 62, 64
2, 74760, Note_on_c, 0, 67, 127
2, 74832, Note_off_c, 0, 46, 64
2, 74832, Note_off_c, 0, 34, 64
2, 74856, Note_off_c, 0, 67, 64
2, 74880, Note_on_c, 0, 36, 127
2, 74880, Note_on_c, 0, 63, 127
2, 74880, Note_on_c, 0, 48, 127
2, 74976, Note_off_c, 0, 63, 64
2, 75000, Note_on_c, 0, 67, 127
2, 75096, Note_off_c, 0, 67, 64
2, 75120, Note_on_c, 0, 60, 127
2, 75216, Note_off_c, 0, 60, 64
2, 75240, Note_on_c, 0, 63, 127
2, 75264, Note_off_c, 0, 36, 64
2, 75264, Note_off_c, 0, 48, 64
2, 75336, Note_off_c, 0, 63, 64
2, 75360, Note_on_c, 0, 38, 127
2, 75360, Note_on_c, 0, 50, 127
2, 75360, Note_on_c, 0, 57, 127
2, 75456, Note_off_c, 0, 57, 64
2, 75480, Note_on_c, 0, 60, 127
2, 75576, Note_off_c, 0, 60, 64
2, 75600, Note_on_c, 0, 54, 127
2, 75696, Note_off_c, 0, 54, 64
2, 75720, Note_on_c, 0, 57, 127
2, 75744, Note_off_c, 0, 50, 64
2, 75744, Note_off_c, 0, 38, 64
2, 75816, Note_off_c, 0, 57, 64
2, 75840, Note_on_c, 0, 55, 127
2, 75960, Note_on_c, 0, 31, 127
2, 76056, Note_off_c, 0, 31, 64
2, 76080, Note_on_c, 0, 34, 127
2, 76176, Note_off_c, 0, 34, 64
2, 76200, Note_on_c, 0, 38, 127
2, 76224, Note_off_c, 0, 55, 64
2, 76296, Note_off_c, 0, 38, 64
2, 76320, Note_on_c, 0, 43, 127
2, 76512, Note_off_c, 0, 43, 64
2, 76560, Note_on_c, 0, 77, 127
2, 76752, Note_off_c, 0, 77, 64
2, 76800, Note_on_c, 0, 58, 127
2, 76800, Note_on_c, 0, 89, 127
2, 76800, Note_on_c, 0, 46, 127
2, 76896, Note_off_c, 0, 89, 64
2, 76920, Note_on_c, 0, 86, 127
2, 77016, Note_off_c, 0, 86, 64
2, 77040, Note_on_c, 0, 82, 127
2, 77136, Note_off_c, 0, 82, 64
2, 77160, Note_on_c, 0, 86, 127
2, 77256, Note_off_c, 0, 86, 64
2, 77280, Note_on_c, 0, 77, 127
2, 77376, Note_off_c, 0, 58, 64
2, 77376, Note_off_c, 0, 46, 64
2, 77376, Note_off_c, 0, 77, 64
2, 77400, Note_on_c, 0, 82, 127
2, 77496, Note_off_c, 0, 82, 64
2, 77520, Note_on_c, 0, 44, 127
2, 77520, Note_on_c, 0, 56, 127
2, 77520, Note_on_c, 0, 74, 127
2, 77616, Note_off_c, 0, 74, 64
2, 77640, Note_on_c, 0, 77, 127
2, 77712, Note_off_c, 0, 56, 64
2, 77712, Note_off_c, 0, 44, 64
2, 77736, Note_off_c, 0, 77, 64
2, 77760, Note_on_c, 0, 55, 127
2, 77760, Note_on_c, 0, 43, 127
2, 77760, Note_on_c, 0, 71, 127
2, 77856, Note_off_c, 0, 71, 64
2, 77880, Note_on_c, 0, 74, 127
2, 77976, Note_off_c, 0, 74, 64
2, 78000, Note_on_c, 0, 65, 127
2, 78096, Note_off_c, 0, 65, 64
2, 78120, Note_on_c, 0, 71, 127
2, 78144, Note_off_c, 0, 43, 64
2, 78144, Note_off_c, 0, 55, 64
2, 78216, Note_off_c, 0, 71, 64
2, 78240, Note_on_c, 0, 62, 127
2, 78336, Note_off_c, 0, 62, 64
2, 78360, Note_on_c, 0, 65, 127
2, 78456, Note_off_c, 0, 65, 64
2, 78480, Note_on_c, 0, 43, 127
2, 78480, Note_on_c, 0, 55, 127
2, 78480, Note_on_c, 0, 59, 127
2, 78576, Note_off_c, 0, 59, 64
2, 78600, Note_on_c, 0, 62, 127
2, 78672, Note_off_c, 0, 55, 64
2, 78672, Note_off_c, 0, 43, 64
2, 78696, Note_off_c, 0, 62, 64
2, 78720, Note_on_c, 0, 48, 127
2, 78720, Note_on_c, 0, 60, 127
2, 78720, Note_on_c, 0, 87, 127
2, 78816, Note_off_c, 0, 87, 64
2, 78840, Note_on_c, 0, 84, 127
2, 78936, Note_off_c, 0, 84, 64
2, 78960, Note_on_c, 0, 79, 127
2, 79056, Note_off_c, 0, 79, 64
2, 79080, Note_on_c, 0, 84, 127
2, 79104, Note_off_c, 0, 60, 64
2, 79104, Note_off_c, 0, 48, 64
2, 79176, Note_off_c, 0, 84, 64
2, 79200, Note_on_c, 0, 75, 127
2, 79296, Note_off_c, 0, 75, 64
2, 79320, Note_on_c, 0, 79, 127
2, 79416, Note_off_c, 0, 79, 64
2, 79440, Note_on_c, 0, 46, 127
2, 79440, Note_on_c, 0, 58, 127
2, 79440, Note_on_c, 0, 74, 127
2, 79536, Note_off_c, 0, 74, 64
2, 79560, Note_on_c, 0, 79, 127
2, 79632, Note_off_c, 0, 58, 64
2, 79632, Note_off_c, 0, 46, 64
2, 79656, Note_off_c, 0, 79, 64
2, 79680, Note_on_c, 0, 45, 127
2, 79680, Note_on_c, 0, 57, 127
2, 79680, Note_on_c, 0, 73, 127
2, 79776, Note_off_c, 0, 73, 64
2, 79800, Note_on_c, 0, 76, 127
2, 79896, Note_off_c, 0, 76, 64
2, 79920, Note_on_c, 0, 67, 127
2, 80016, Note_off_c, 0, 67, 64
2, 80040, Note_on_c, 0, 73, 127
2, 80064, Note_off_c, 0, 57, 64
2, 80064, Note_off_c, 0, 45, 64
2, 80136, Note_off_c, 0, 73, 64
2, 80160, Note_on_c, 0, 64, 127
2, 80256, Note_off_c, 0, 64, 64
2, 80280, Note_on_c, 0, 67, 127
2, 80376, Note_off_c, 0, 67, 64
2, 80400, Note_on_c, 0, 33, 127
2, 80400, Note_on_c, 0, 45, 127
2, 80400, Note_on_c, 0, 61, 127
2, 80496, Note_off_c, 0, 61, 64
2, 80520, Note_on_c, 0, 64, 127
2, 80592, Note_off_c, 0, 45, 64
2, 80592, Note_off_c, 0, 33, 64
2, 80616, Note_off_c, 0, 64, 64
2, 80640, Note_on_c, 0, 50, 127
2, 80640, Note_on_c, 0, 62, 127
2, 80640, Note_on_c, 0, 38, 127
2, 80736, Note_off_c, 0, 62, 64
2, 80760, Note_on_c, 0, 66, 127
2, 80856, Note_off_c, 0, 66, 64
2, 80880, Note_on_c, 0, 69, 127
2, 80976, Note_off_c, 0, 69, 64
2, 81000, Note_on_c, 0, 66, 127
2, 81096, Note_off_c, 0, 66, 64
2, 81120, Note_on_c, 0, 74, 127
2, 81216, Note_off_c, 0, 50, 64
2, 81216, Note_off_c, 0, 38, 64
2, 81216, Note_off_c, 0, 74, 64
2, 81240, Note_on_c, 0, 69, 127
2, 81336, Note_off_c, 0, 69, 64
2, 81360, Note_on_c, 0, 36, 127
2, 81360, Note_on_c, 0, 48, 127
2, 81360, Note_on_c, 0, 78, 127
2, 81456, Note_off_c, 0, 78, 64
2, 81480, Note_on_c, 0, 74, 127
2, 81552, Note_off_c, 0, 48, 64
2, 81552, Note_off_c, 0, 36, 64
2, 81576, Note_off_c, 0, 74, 64
2, 81600, Note_on_c, 0, 79, 127
2, 81600, Note_on_c, 0, 34, 127
2, 81600, Note_on_c, 0, 46, 127
2, 81696, Note_off_c, 0, 79, 64
2, 81720, Note_on_c, 0, 74, 127
2, 81792, Note_off_c, 0, 34, 64
2, 81792, Note_off_c, 0, 46, 64
2, 81816, Note_off_c, 0, 74, 64
2, 81840, Note_on_c, 0, 34, 127
2, 81840, Note_on_c, 0, 46, 127
2, 81840, Note_on_c, 0, 70, 127
2, 81936, Note_off_c, 0, 70, 64
2, 81960, Note_on_c, 0, 74, 127
2, 82032, Note_off_c, 0, 46, 64
2, 82032, Note_off_c, 0, 34, 64
2, 82056, Note_off_c, 0, 74, 64
2, 82080, Note_on_c, 0, 67, 127
2, 82176, Note_off_c, 0, 67, 64
2, 82200, Note_on_c, 0, 70, 127
2, 82296, Note_off_c, 0, 70, 64
2, 82320, Note_on_c, 0, 34, 127
2, 82320, Note_on_c, 0, 46, 127
2, 82320, Note_on_c, 0, 62, 127
2, 82416, Note_off_c, 0, 62, 64
2, 82440, Note_on_c, 0, 67, 127
2, 82512, Note_off_c, 0, 46, 64
2, 82512, Note_off_c, 0, 34, 64
2, 82536, Note_off_c, 0, 67, 64
2, 82560, Note_on_c, 0, 36, 127
2, 82560, Note_on_c, 0, 63, 127
2, 82560, Note_on_c, 0, 48, 127
2, 82656, Note_off_c, 0, 63, 64
2, 82680, Note_on_c, 0, 67, 127
2, 82776, Note_off_c, 0, 67, 64
2, 82800, Note_on_c, 0, 60, 127
2, 82896, Note_off_c, 0, 60, 64
2, 82920, Note_on_c, 0, 63, 127
2, 82944, Note_off_c, 0, 36, 64
2, 82944, Note_off_c, 0, 48, 64
2, 83016, Note_off_c, 0, 63, 64
2, 83040, Note_on_c, 0, 38, 127
2, 83040, Note_on_c, 0, 50, 127
2, 83040, Note_on_c, 0, 57, 127
2, 83136, Note_off_c, 0, 57, 64
2, 83160, Note_on_c, 0, 60, 127
2, 83256, Note_off_c, 0, 60, 64
2, 83280, Note_on_c, 0, 54, 127
2, 83376, Note_off_c, 0, 54, 64
2, 83400, Note_on_c, 0, 57, 127
2, 83424, Note_off_c, 0, 50, 64
2, 83424, Note_off_c, 0, 38, 64
2, 83496, Note_off_c, 0, 57, 64
2, 83520, Note_on_c, 0, 31, 127
2, 83520, Note_on_c, 0, 55, 127
2, 83520, Note_on_c, 0, 43, 127
2, 83616, Note_off_c, 0, 55, 64
2, 83640, Note_on_c, 0, 62, 127
2, 83736, Note_off_c, 0, 62, 64
2, 83760, Note_on_c, 0, 58, 127
2, 83856, Note_off_c, 0, 58, 64
2, 83880, Note_on_c, 0, 62, 127
2, 83904, Note_off_c, 0, 31, 64
2, 83904, Note_off_c, 0, 43, 64
2, 83976, Note_off_c, 0, 62, 64
2, 84000, Note_on_c, 0, 55, 127
2, 84120, Note_on_c, 0, 34, 127
2, 84192, Note_off_c, 0, 55, 64
2, 84216, Note_off_c, 0, 34, 64
2, 84240, Note_on_c, 0, 36, 127
2, 84336, Note_off_c, 0, 36, 64
2, 84360, Note_on_c, 0, 38, 127
2, 84456, Note_off_c, 0, 38, 64
2, 84480, Note_on_c, 0, 58, 127
2, 84480, Note_on_c, 0, 39, 127
2, 84480, Note_on_c, 0, 55, 127
2, 84672, Note_off_c, 0, 55, 64
2, 84672, Note_off_c, 0, 58, 64
2, 84720, Note_on_c, 0, 55, 127
2, 84720, Note_on_c, 0, 58, 127
2, 84864, Note_off_c, 0, 39, 64
2, 84912, Note_off_c, 0, 55, 64
2, 84912, Note_off_c, 0, 58, 64
2, 84960, Note_on_c, 0, 43, 127
2, 84960, Note_on_c, 0, 58, 127
2, 84960, Note_on_c, 0, 55, 127
2, 85152, Note_off_c, 0, 55, 64
2, 85152, Note_off_c, 0, 58, 64
2, 85152, Note_off_c, 0, 43, 64
2, 85200, Note_on_c, 0, 43, 127
2, 85200, Note_on_c, 0, 58, 127
2, 85200, Note_on_c, 0, 55, 127
2, 85392, Note_off_c, 0, 55, 64
2, 85392, Note_off_c, 0, 58, 64
2, 85392, Note_off_c, 0, 43, 64
2, 85440, Note_on_c, 0, 46, 127
2, 85440, Note_on_c, 0, 58, 127
2, 85440, Note_on_c, 0, 55, 127
2, 85632, Note_off_c, 0, 55, 64
2, 85632, Note_off_c, 0, 58, 64
2, 85632, Note_off_c, 0, 46, 64
2, 85680, Note_on_c, 0, 46, 127
2, 85680, Note_on_c, 0, 58, 127
2, 85680, Note_on_c, 0, 55, 127
2, 85872, Note_off_c, 0, 55, 64
2, 85872, Note_off_c, 0, 58, 64
2, 85872, Note_off_c, 0, 46, 64
2, 85920, Note_on_c, 0, 51, 127
2, 85920, Note_on_c, 0, 58, 127
2, 85920, Note_on_c, 0, 55, 127
2, 86112, Note_off_c, 0, 55, 64
2, 86112, Note_off_c, 0, 58, 64
2, 86160, Note_on_c, 0, 58, 127
2, 86160, Note_on_c, 0, 55, 127
2, 86304, Note_off_c, 0, 51, 64
2, 86352, Note_off_c, 0, 58, 64
2, 86352, Note_off_c, 0, 55, 64
2, 86400, Note_on_c, 0, 51, 127
2, 86400, Note_on_c, 0, 56, 127
2, 86400, Note_on_c, 0, 58, 127
2, 86496, Note_off_c, 0, 51, 64
2, 86520, Note_on_c, 0, 50, 127
2, 86592, Note_off_c, 0, 56, 64
2, 86592, Note_off_c, 0, 58, 64
2, 86616, Note_off_c, 0, 50, 64
2, 86640, Note_on_c, 0, 51, 127
2, 86640, Note_on_c, 0, 56, 127
2, 86640, Note_on_c, 0, 58, 127
2, 86736, Note_off_c, 0, 51, 64
2, 86760, Note_on_c, 0, 50, 127
2, 86832, Note_off_c, 0, 56, 64
2, 86832, Note_off_c, 0, 58, 64
2, 86856, Note_off_c, 0, 50, 64
2, 86880, Note_on_c, 0, 46, 127
2, 86880, Note_on_c, 0, 58, 127
2, 86880, Note_on_c, 0, 56, 127
2, 87072, Note_off_c, 0, 56, 64
2, 87072, Note_off_c, 0, 58, 64
2, 87120, Note_on_c, 0, 58, 127
2, 87120, Note_on_c, 0, 56, 127
2, 87264, Note_off_c, 0, 46, 64
2, 87312, Note_off_c, 0, 58, 64
2, 87312, Note_off_c, 0, 56, 64
2, 87360, Note_on_c, 0, 51, 127
2, 87360, Note_on_c, 0, 56, 127
2, 87360, Note_on_c, 0, 58, 127
2, 87456, Note_off_c, 0, 51, 64
2, 87480, Note_on_c, 0, 50, 127
2, 87552, Note_off_c, 0, 56, 64
2, 87552, Note_off_c, 0, 58, 64
2, 87576, Note_off_c, 0, 50, 64
2, 87600, Note_on_c, 0, 51, 127
2, 87600, Note_on_c, 0, 58, 127
2, 87600, Note_on_c, 0, 56, 127
2, 87696, Note_off_c, 0, 51, 64
2, 87720, Note_on_c, 0, 50, 127
2, 87792, Note_off_c, 0, 58, 64
2, 87792, Note_off_c, 0, 56, 64
2, 87816, Note_off_c, 0, 50, 64
2, 87840, Note_on_c, 0, 46, 127
2, 87840, Note_on_c, 0, 58, 127
2, 87840, Note_on_c, 0, 56, 127
2, 88032, Note_off_c, 0, 56, 64
2, 88032, Note_off_c, 0, 58, 64
2, 88080, Note_on_c, 0, 58, 127
2, 88080, Note_on_c, 0, 56, 127
2, 88224, Note_off_c, 0, 46, 64
2, 88272, Note_off_c, 0, 58, 64
2, 88272, Note_off_c, 0, 56, 64
2, 88320, Note_on_c, 0, 51, 127
2, 88320, Note_on_c, 0, 58, 127
2, 88320, Note_on_c, 0, 55, 127
2, 88320, Note_on_c, 0, 63, 127
2, 88512, Note_off_c, 0, 55, 64
2, 88512, Note_off_c, 0, 58, 64
2, 88512, Note_off_c, 0, 51, 64
2, 88560, Note_on_c, 0, 51, 127
2, 88560, Note_on_c, 0, 58, 127
2, 88560, Note_on_c, 0, 55, 127
2, 88704, Note_off_c, 0, 63, 64
2, 88752, Note_off_c, 0, 51, 64
2, 88752, Note_off_c, 0, 58, 64
2, 88752, Note_off_c, 0, 55, 64
2, 88800, Note_on_c, 0, 51, 127
2, 88800, Note_on_c, 0, 58, 127
2, 88800, Note_on_c, 0, 55, 127
2, 88800, Note_on_c, 0, 67, 127
2, 88992, Note_off_c, 0, 67, 64
2, 88992, Note_off_c, 0, 55, 64
2, 88992, Note_off_c, 0, 58, 64
2, 88992, Note_off_c, 0, 51, 64
2, 89040, Note_on_c, 0, 51, 127
2, 89040, Note_on_c, 0, 55, 127
2, 89040, Note_on_c, 0, 58, 127
2, 89040, Note_on_c, 0, 67, 127
2, 89232, Note_off_c, 0, 67, 64
2, 89232, Note_off_c, 0, 58, 64
2, 89232, Note_off_c, 0, 55, 64
2, 89232, Note_off_c, 0, 51, 64
2, 89280, Note_on_c, 0, 55, 127
2, 89280, Note_on_c, 0, 58, 127
2, 89280, Note_on_c, 0, 51, 127
2, 89280, Note_on_c, 0, 70, 127
2, 89472, Note_off_c, 0, 70, 64
2, 89472, Note_off_c, 0, 51, 64
2, 89472, Note_off_c, 0, 58, 64
2, 89472, Note_off_c, 0, 55, 64
2, 89520, Note_on_c, 0, 51, 127
2, 89520, Note_on_c, 0, 55, 127
2, 89520, Note_on_c, 0, 58, 127
2, 89520, Note_on_c, 0, 70, 127
2, 89712, Note_off_c, 0, 70, 64
2, 89712, Note_off_c, 0, 58, 64
2, 89712, Note_off_c, 0, 55, 64
2, 89712, Note_off_c, 0, 51, 64
2, 89760, Note_on_c, 0, 51, 127
2, 89760, Note_on_c, 0, 55, 127
2, 89760, Note_on_c, 0, 58, 127
2, 89760, Note_on_c, 0, 75, 127
2, 89952, Note_off_c, 0, 58, 64
2, 89952, Note_off_c, 0, 55, 64
2, 89952, Note_off_c, 0, 51, 64
2, 90000, Note_on_c, 0, 51, 127
2, 90000, Note_on_c, 0, 58, 127
2, 90000, Note_on_c, 0, 55, 127
2, 90144, Note_off_c, 0, 75, 64
2, 90192, Note_off_c, 0, 51, 64
2, 90192, Note_off_c, 0, 58, 64
2, 90192, Note_off_c, 0, 55, 64
2, 90240, Note_on_c, 0, 52, 127
2, 90240, Note_on_c, 0, 58, 127
2, 90240, Note_on_c, 0, 55, 127
2, 90240, Note_on_c, 0, 74, 127
2, 90336, Note_off_c, 0, 74, 64
2, 90360, Note_on_c, 0, 73, 127
2, 90432, Note_off_c, 0, 55, 64
2, 90432, Note_off_c, 0, 58, 64
2, 90432, Note_off_c, 0, 52, 64
2, 90456, Note_off_c, 0, 73, 64
2, 90480, Note_on_c, 0, 58, 127
2, 90480, Note_on_c, 0, 52, 127
2, 90480, Note_on_c, 0, 55, 127
2, 90480, Note_on_c, 0, 74, 127
2, 90576, Note_off_c, 0, 74, 64
2, 90600, Note_on_c, 0, 73, 127
2, 90672, Note_off_c, 0, 55, 64
2, 90672, Note_off_c, 0, 52, 64
2, 90672, Note_off_c, 0, 58, 64
2, 90696, Note_off_c, 0, 73, 64
2, 90720, Note_on_c, 0, 52, 127
2, 90720, Note_on_c, 0, 58, 127
2, 90720, Note_on_c, 0, 55, 127
2, 90720, Note_on_c, 0, 79, 127
2, 90912, Note_off_c, 0, 55, 64
2, 90912, Note_off_c, 0, 58, 64
2, 90912, Note_off_c, 0, 52, 64
2, 90960, Note_on_c, 0, 52, 127
2, 90960, Note_on_c, 0, 58, 127
2, 90960, Note_on_c, 0, 55, 127
2, 91104, Note_off_c, 0, 79, 64
2, 91152, Note_off_c, 0, 52, 64
2, 91152, Note_off_c, 0, 58, 64
2, 91152, Note_off_c, 0, 55, 64
2, 91200, Note_on_c, 0, 54, 127
2, 91200, Note_on_c, 0, 62, 127
2, 91200, Note_on_c, 0, 57, 127
2, 91200, Note_on_c, 0, 74, 127
2, 91296, Note_off_c, 0, 74, 64
2, 91320, Note_on_c, 0, 72, 127
2, 91392, Note_off_c, 0, 57, 64
2, 91392, Note_off_c, 0, 62, 64
2, 91392, Note_off_c, 0, 54, 64
2, 91416, Note_off_c, 0, 72, 64
2, 91440, Note_on_c, 0, 62, 127
2, 91440, Note_on_c, 0, 54, 127
2, 91440, Note_on_c, 0, 57, 127
2, 91440, Note_on_c, 0, 74, 127
2, 91536, Note_off_c, 0, 74, 64
2, 91560, Note_on_c, 0, 72, 127
2, 91632, Note_off_c, 0, 57, 64
2, 91632, Note_off_c, 0, 54, 64
2, 91632, Note_off_c, 0, 62, 64
2, 91656, Note_off_c, 0, 72, 64
2, 91680, Note_on_c, 0, 62, 127
2, 91680, Note_on_c, 0, 54, 127
2, 91680, Note_on_c, 0, 57, 127
2, 91680, Note_on_c, 0, 81, 127
2, 91872, Note_off_c, 0, 57, 64
2, 91872, Note_off_c, 0, 54, 64
2, 91872, Note_off_c, 0, 62, 64
2, 91920, Note_on_c, 0, 62, 127
2, 91920, Note_on_c, 0, 54, 127
2, 91920, Note_on_c, 0, 57, 127
2, 92064, Note_off_c, 0, 81, 64
2, 92112, Note_off_c, 0, 62, 64
2, 92112, Note_off_c, 0, 54, 64
2, 92112, Note_off_c, 0, 57, 64
2, 92160, Note_on_c, 0, 59, 127
2, 92160, Note_on_c, 0, 62, 127
2, 92160, Note_on_c, 0, 55, 127
2, 92160, Note_on_c, 0, 71, 127
2, 92352, Note_off_c, 0, 55, 64
2, 92352, Note_off_c, 0, 62, 64
2, 92352, Note_off_c, 0, 59, 64
2, 92400, Note_on_c, 0, 55, 127
2, 92400, Note_on_c, 0, 62, 127
2, 92400, Note_on_c, 0, 59, 127
2, 92544, Note_off_c, 0, 71, 64
2, 92592, Note_off_c, 0, 55, 64
2, 92592, Note_off_c, 0, 62, 64
2, 92592, Note_off_c, 0, 59, 64
2, 92640, Note_on_c, 0, 59, 127
2, 92640, Note_on_c, 0, 55, 127
2, 92640, Note_on_c, 0, 62, 127
2, 92640, Note_on_c, 0, 74, 127
2, 92832, Note_off_c, 0, 74, 64
2, 92832, Note_off_c, 0, 62, 64
2, 92832, Note_off_c, 0, 55, 64
2, 92832, Note_off_c, 0, 59, 64
2, 92880, Note_on_c, 0, 55, 127
2, 92880, Note_on_c, 0, 62, 127
2, 92880, Note_on_c, 0, 59, 127
2, 92880, Note_on_c, 0, 74, 127
2, 93072, Note_off_c, 0, 74, 64
2, 93072, Note_off_c, 0, 59, 64
2, 93072, Note_off_c, 0, 62, 64
2, 93072, Note_off_c, 0, 55, 64
2, 93120, Note_on_c, 0, 62, 127
2, 93120, Note_on_c, 0, 55, 127
2, 93120, Note_on_c, 0, 59, 127
2, 93120, Note_on_c, 0, 79, 127
2, 93312, Note_off_c, 0, 79, 64
2, 93312, Note_off_c, 0, 59, 64
2, 93312, Note_off_c, 0, 55, 64
2, 93312, Note_off_c, 0, 62, 64
2, 93360, Note_on_c, 0, 59, 127
2, 93360, Note_on_c, 0, 62, 127
2, 93360, Note_on_c, 0, 55, 127
2, 93360, Note_on_c, 0, 79, 127
2, 93552, Note_off_c, 0, 79, 64
2, 93552, Note_off_c, 0, 55, 64
2, 93552, Note_off_c, 0, 62, 64
2, 93552, Note_off_c, 0, 59, 64
2, 93600, Note_on_c, 0, 55, 127
2, 93600, Note_on_c, 0, 62, 127
2, 93600, Note_on_c, 0, 59, 127
2, 93600, Note_on_c, 0, 83, 127
2, 93792, Note_off_c, 0, 59, 64
2, 93792, Note_off_c, 0, 62, 64
2, 93792, Note_off_c, 0, 55, 64
2, 93840, Note_on_c, 0, 59, 127
2, 93840, Note_on_c, 0, 62, 127
2, 93840, Note_on_c, 0, 55, 127
2, 93984, Note_off_c, 0, 83, 64
2, 94032, Note_off_c, 0, 59, 64
2, 94032, Note_off_c, 0, 62, 64
2, 94032, Note_off_c, 0, 55, 64
2, 94080, Note_on_c, 0, 66, 127
2, 94080, Note_on_c, 0, 55, 127
2, 94080, Note_on_c, 0, 60, 127
2, 94080, Note_on_c, 0, 62, 127
2, 94080, Note_on_c, 0, 86, 127
2, 94176, Note_off_c, 0, 86, 64
2, 94200, Note_on_c, 0, 84, 127
2, 94272, Note_off_c, 0, 62, 64
2, 94272, Note_off_c, 0, 60, 64
2, 94272, Note_off_c, 0, 55, 64
2, 94272, Note_off_c, 0, 66, 64
2, 94296, Note_off_c, 0, 84, 64
2, 94320, Note_on_c, 0, 66, 127
2, 94320, Note_on_c, 0, 60, 127
2, 94320, Note_on_c, 0, 62, 127
2, 94320, Note_on_c, 0, 55, 127
2, 94320, Note_on_c, 0, 86, 127
2, 94416, Note_off_c, 0, 86, 64
2, 94440, Note_on_c, 0, 84, 127
2, 94512, Note_off_c, 0, 55, 64
2, 94512, Note_off_c, 0, 62, 64
2, 94512, Note_off_c, 0, 60, 64
2, 94512, Note_off_c, 0, 66, 64
2, 94536, Note_off_c, 0, 84, 64
2, 94560, Note_on_c, 0, 66, 127
2, 94560, Note_on_c, 0, 60, 127
2, 94560, Note_on_c, 0, 55, 127
2, 94560, Note_on_c, 0, 62, 127
2, 94560, Note_on_c, 0, 81, 127
2, 94752, Note_off_c, 0, 81, 64
2, 94752, Note_off_c, 0, 62, 64
2, 94752, Note_off_c, 0, 55, 64
2, 94752, Note_off_c, 0, 60, 64
2, 94752, Note_off_c, 0, 66, 64
2, 94800, Note_on_c, 0, 55, 127
2, 94800, Note_on_c, 0, 66, 127
2, 94800, Note_on_c, 0, 60, 127
2, 94800, Note_on_c, 0, 62, 127
2, 94992, Note_off_c, 0, 62, 64
2, 94992, Note_off_c, 0, 60, 64
2, 94992, Note_off_c, 0, 66, 64
2, 94992, Note_off_c, 0, 55, 64
2, 95040, Note_on_c, 0, 55, 127
2, 95040, Note_on_c, 0, 66, 127
2, 95040, Note_on_c, 0, 60, 127
2, 95040, Note_on_c, 0, 62, 127
2, 95040, Note_on_c, 0, 86, 127
2, 95136, Note_off_c, 0, 86, 64
2, 95160, Note_on_c, 0, 84, 127
2, 95232, Note_off_c, 0, 62, 64
2, 95232, Note_off_c, 0, 60, 64
2, 95232, Note_off_c, 0, 66, 64
2, 95232, Note_off_c, 0, 55, 64
2, 95256, Note_off_c, 0, 84, 64
2, 95280, Note_on_c, 0, 55, 127
2, 95280, Note_on_c, 0, 66, 127
2, 95280, Note_on_c, 0, 60, 127
2, 95280, Note_on_c, 0, 62, 127
2, 95280, Note_on_c, 0, 86, 127
2, 95376, Note_off_c, 0, 86, 64
2, 95400, Note_on_c, 0, 84, 127
2, 95472, Note_off_c, 0, 62, 64
2, 95472, Note_off_c, 0, 60, 64
2, 95472, Note_off_c, 0, 66, 64
2, 95472, Note_off_c, 0, 55, 64
2, 95496, Note_off_c, 0, 84, 64
2, 95520, Note_on_c, 0, 55, 127
2, 95520, Note_on_c, 0, 66, 127
2, 95520, Note_on_c, 0, 60, 127
2, 95520, Note_on_c, 0, 62, 127
2, 95520, Note_on_c, 0, 81, 127
2, 95712, Note_off_c, 0, 81, 64
2, 95712, Note_off_c, 0, 62, 64
2, 95712, Note_off_c, 0, 60, 64
2, 95712, Note_off_c, 0, 66, 64
2, 95712, Note_off_c, 0, 55, 64
2, 95760, Note_on_c, 0, 55, 127
2, 95760, Note_on_c, 0, 66, 127
2, 95760, Note_on_c, 0, 60, 127
2, 95760, Note_on_c, 0, 62, 127
2, 95940, Note_on_c, 0, 70, 127
2, 95952, Note_off_c, 0, 62, 64
2, 95952, Note_off_c, 0, 60, 64
2, 95952, Note_off_c, 0, 66, 64
2, 95952, Note_off_c, 0, 55, 64
2, 95988, Note_off_c, 0, 70, 64
2, 96000, Note_on_c, 0, 59, 127
2, 96000, Note_on_c, 0, 62, 127
2, 96000, Note_on_c, 0, 71, 127
2, 96000, Note_on_c, 0, 55, 127
2, 96192, Note_off_c, 0, 55, 64
2, 96192, Note_off_c, 0, 62, 64
2, 96192, Note_off_c, 0, 59, 64
2, 96240, Note_on_c, 0, 59, 127
2, 96240, Note_on_c, 0, 62, 127
2, 96240, Note_on_c, 0, 55, 127
2, 96336, Note_off_c, 0, 71, 64
2, 96420, Note_on_c, 0, 73, 127
2, 96432, Note_off_c, 0, 59, 64
2, 96432, Note_off_c, 0, 62, 64
2, 96432, Note_off_c, 0, 55, 64
2, 96468, Note_off_c, 0, 73, 64
2, 96480, Note_on_c, 0, 59, 127
2, 96480, Note_on_c, 0, 74, 127
2, 96480, Note_on_c, 0, 55, 127
2, 96480, Note_on_c, 0, 62, 127
2, 96672, Note_off_c, 0, 62, 64
2, 96672, Note_off_c, 0, 55, 64
2, 96672, Note_off_c, 0, 74, 64
2, 96672, Note_off_c, 0, 59, 64
2, 96720, Note_on_c, 0, 62, 127
2, 96720, Note_on_c, 0, 55, 127
2, 96720, Note_on_c, 0, 59, 127
2, 96720, Note_on_c, 0, 74, 127
2, 96888, Note_off_c, 0, 74, 64
2, 96900, Note_on_c, 0, 78, 127
2, 96912, Note_off_c, 0, 59, 64
2, 96912, Note_off_c, 0, 55, 64
2, 96912, Note_off_c, 0, 62, 64
2, 96948, Note_off_c, 0, 78, 64
2, 96960, Note_on_c, 0, 62, 127
2, 96960, Note_on_c, 0, 55, 127
2, 96960, Note_on_c, 0, 59, 127
2, 96960, Note_on_c, 0, 79, 127
2, 97152, Note_off_c, 0, 79, 64
2, 97152, Note_off_c, 0, 59, 64
2, 97152, Note_off_c, 0, 55, 64
2, 97152, Note_off_c, 0, 62, 64
2, 97200, Note_on_c, 0, 55, 127
2, 97200, Note_on_c, 0, 62, 127
2, 97200, Note_on_c, 0, 59, 127
2, 97200, Note_on_c, 0, 79, 127
2, 97368, Note_off_c, 0, 79, 64
2, 97380, Note_on_c, 0, 82, 127
2, 97392, Note_off_c, 0, 59, 64
2, 97392, Note_off_c, 0, 62, 64
2, 97392, Note_off_c, 0, 55, 64
2, 97428, Note_off_c, 0, 82, 64
2, 97440, Note_on_c, 0, 62, 127
2, 97440, Note_on_c, 0, 55, 127
2, 97440, Note_on_c, 0, 59, 127
2, 97440, Note_on_c, 0, 83, 127
2, 97632, Note_off_c, 0, 59, 64
2, 97632, Note_off_c, 0, 55, 64
2, 97632, Note_off_c, 0, 62, 64
2, 97680, Note_on_c, 0, 55, 127
2, 97680, Note_on_c, 0, 62, 127
2, 97680, Note_on_c, 0, 59, 127
2, 97824, Note_off_c, 0, 83, 64
2, 97872, Note_off_c, 0, 55, 64
2, 97872, Note_off_c, 0, 62, 64
2, 97872, Note_off_c, 0, 59, 64
2, 97920, Note_on_c, 0, 60, 127
2, 97920, Note_on_c, 0, 62, 127
2, 97920, Note_on_c, 0, 55, 127
2, 97920, Note_on_c, 0, 86, 127
2, 97920, Note_on_c, 0, 66, 127
2, 98016, Note_off_c, 0, 86, 64
2, 98040, Note_on_c, 0, 84, 127
2, 98112, Note_off_c, 0, 55, 64
2, 98112, Note_off_c, 0, 62, 64
2, 98112, Note_off_c, 0, 60, 64
2, 98112, Note_off_c, 0, 66, 64
2, 98136, Note_off_c, 0, 84, 64
2, 98160, Note_on_c, 0, 60, 127
2, 98160, Note_on_c, 0, 62, 127
2, 98160, Note_on_c, 0, 86, 127
2, 98160, Note_on_c, 0, 66, 127
2, 98160, Note_on_c, 0, 55, 127
2, 98256, Note_off_c, 0, 86, 64
2, 98280, Note_on_c, 0, 84, 127
2, 98352, Note_off_c, 0, 62, 64
2, 98352, Note_off_c, 0, 60, 64
2, 98352, Note_off_c, 0, 66, 64
2, 98352, Note_off_c, 0, 55, 64
2, 98376, Note_off_c, 0, 84, 64
2, 98400, Note_on_c, 0, 55, 127
2, 98400, Note_on_c, 0, 66, 127
2, 98400, Note_on_c, 0, 62, 127
2, 98400, Note_on_c, 0, 60, 127
2, 98400, Note_on_c, 0, 81, 127
2, 98592, Note_off_c, 0, 81, 64
2, 98592, Note_off_c, 0, 60, 64
2, 98592, Note_off_c, 0, 62, 64
2, 98592, Note_off_c, 0, 66, 64
2, 98592, Note_off_c, 0, 55, 64
2, 98640, Note_on_c, 0, 66, 127
2, 98640, Note_on_c, 0, 60, 127
2, 98640, Note_on_c, 0, 55, 127
2, 98640, Note_on_c, 0, 62, 127
2, 98640, Note_on_c, 0, 81, 127
2, 98736, Note_off_c, 0, 81, 64
2, 98760, Note_on_c, 0, 83, 127
2, 98832, Note_off_c, 0, 62, 64
2, 98832, Note_off_c, 0, 55, 64
2, 98832, Note_off_c, 0, 60, 64
2, 98832, Note_off_c, 0, 66, 64
2, 98856, Note_off_c, 0, 83, 64
2, 98880, Note_on_c, 0, 55, 127
2, 98880, Note_on_c, 0, 67, 127
2, 98880, Note_on_c, 0, 59, 127
2, 98880, Note_on_c, 0, 62, 127
2, 98880, Note_on_c, 0, 79, 127
2, 99072, Note_off_c, 0, 62, 64
2, 99072, Note_off_c, 0, 59, 64
2, 99072, Note_off_c, 0, 67, 64
2, 99072, Note_off_c, 0, 55, 64
2, 99120, Note_on_c, 0, 55, 127
2, 99120, Note_on_c, 0, 59, 127
2, 99264, Note_off_c, 0, 79, 64
2, 99312, Note_off_c, 0, 55, 64
2, 99312, Note_off_c, 0, 59, 64
2, 99360, Note_on_c, 0, 55, 127
2, 99360, Note_on_c, 0, 59, 127
2, 99552, Note_off_c, 0, 59, 64
2, 99552, Note_off_c, 0, 55, 64
2, 99600, Note_on_c, 0, 59, 127
2, 99600, Note_on_c, 0, 55, 127
2, 99792, Note_off_c, 0, 55, 64
2, 99792, Note_off_c, 0, 59, 64
2, 99840, Note_on_c, 0, 55, 127
2, 99840, Note_on_c, 0, 59, 127
2, 99840, Note_on_c, 0, 52, 127
2, 99840, Note_on_c, 0, 83, 127
2, 99936, Note_off_c, 0, 83, 64
2, 99960, Note_on_c, 0, 81, 127
2, 100032, Note_off_c, 0, 52, 64
2, 100032, Note_off_c, 0, 59, 64
2, 100032, Note_off_c, 0, 55, 64
2, 100056, Note_off_c, 0, 81, 64
2, 100080, Note_on_c, 0, 52, 127
2, 100080, Note_on_c, 0, 55, 127
2, 100080, Note_on_c, 0, 79, 127
2, 100080, Note_on_c, 0, 59, 127
2, 100176, Note_off_c, 0, 79, 64
2, 100200, Note_on_c, 0, 78, 127
2, 100272, Note_off_c, 0, 55, 64
2, 100272, Note_off_c, 0, 52, 64
2, 100272, Note_off_c, 0, 59, 64
2, 100296, Note_off_c, 0, 78, 64
2, 100320, Note_on_c, 0, 59, 127
2, 100320, Note_on_c, 0, 52, 127
2, 100320, Note_on_c, 0, 55, 127
2, 100320, Note_on_c, 0, 76, 127
2, 100416, Note_off_c, 0, 76, 64
2, 100440, Note_on_c, 0, 78, 127
2, 100512, Note_off_c, 0, 55, 64
2, 100512, Note_off_c, 0, 52, 64
2, 100512, Note_off_c, 0, 59, 64
2, 100536, Note_off_c, 0, 78, 64
2, 100560, Note_on_c, 0, 59, 127
2, 100560, Note_on_c, 0, 55, 127
2, 100560, Note_on_c, 0, 52, 127
2, 100560, Note_on_c, 0, 79, 127
2, 100656, Note_off_c, 0, 79, 64
2, 100680, Note_on_c, 0, 81, 127
2, 100752, Note_off_c, 0, 52, 64
2, 100752, Note_off_c, 0, 55, 64
2, 100752, Note_off_c, 0, 59, 64
2, 100776, Note_off_c, 0, 81, 64
2, 100800, Note_on_c, 0, 52, 127
2, 100800, Note_on_c, 0, 59, 127
2, 100800, Note_on_c, 0, 55, 127
2, 100800, Note_on_c, 0, 83, 127
2, 100992, Note_off_c, 0, 83, 64
2, 100992, Note_off_c, 0, 55, 64
2, 100992, Note_off_c, 0, 59, 64
2, 100992, Note_off_c, 0, 52, 64
2, 101040, Note_on_c, 0, 59, 127
2, 101040, Note_on_c, 0, 52, 127
2, 101040, Note_on_c, 0, 55, 127
2, 101040, Note_on_c, 0, 83, 127
2, 101232, Note_off_c, 0, 83, 64
2, 101232, Note_off_c, 0, 55, 64
2, 101232, Note_off_c, 0, 52, 64
2, 101232, Note_off_c, 0, 59, 64
2, 101280, Note_on_c, 0, 59, 127
2, 101280, Note_on_c, 0, 52, 127
2, 101280, Note_on_c, 0, 55, 127
2, 101280, Note_on_c, 0, 88, 127
2, 101472, Note_off_c, 0, 55, 64
2, 101472, Note_off_c, 0, 52, 64
2, 101472, Note_off_c, 0, 59, 64
2, 101520, Note_on_c, 0, 59, 127
2, 101520, Note_on_c, 0, 52, 127
2, 101520, Note_on_c, 0, 55, 127
2, 101664, Note_off_c, 0, 88, 64
2, 101712, Note_off_c, 0, 59, 64
2, 101712, Note_off_c, 0, 52, 64
2, 101712, Note_off_c, 0, 55, 64
2, 101760, Note_on_c, 0, 54, 127
2, 101760, Note_on_c, 0, 47, 127
2, 101760, Note_on_c, 0, 59, 127
2, 101760, Note_on_c, 0, 57, 127
2, 101760, Note_on_c, 0, 88, 127
2, 101856, Note_off_c, 0, 88, 64
2, 101880, Note_on_c, 0, 87, 127
2, 101952, Note_off_c, 0, 57, 64
2, 101952, Note_off_c, 0, 59, 64
2, 101952, Note_off_c, 0, 47, 64
2, 101952, Note_off_c, 0, 54, 64
2, 101976, Note_off_c, 0, 87, 64
2, 102000, Note_on_c, 0, 47, 127
2, 102000, Note_on_c, 0, 54, 127
2, 102000, Note_on_c, 0, 59, 127
2, 102000, Note_on_c, 0, 57, 127
2, 102000, Note_on_c, 0, 88, 127
2, 102096, Note_off_c, 0, 88, 64
2, 102120, Note_on_c, 0, 87, 127
2, 102192, Note_off_c, 0, 57, 64
2, 102192, Note_off_c, 0, 59, 64
2, 102192, Note_off_c, 0, 54, 64
2, 102192, Note_off_c, 0, 47, 64
2, 102216, Note_off_c, 0, 87, 64
2, 102240, Note_on_c, 0, 47, 127
2, 102240, Note_on_c, 0, 59, 127
2, 102240, Note_on_c, 0, 57, 127
2, 102240, Note_on_c, 0, 54, 127
2, 102240, Note_on_c, 0, 83, 127
2, 102432, Note_off_c, 0, 83, 64
2, 102432, Note_off_c, 0, 54, 64
2, 102432, Note_off_c, 0, 57, 64
2, 102432, Note_off_c, 0, 59, 64
2, 102432, Note_off_c, 0, 47, 64
2, 102480, Note_on_c, 0, 59, 127
2, 102480, Note_on_c, 0, 57, 127
2, 102480, Note_on_c, 0, 54, 127
2, 102480, Note_on_c, 0, 47, 127
2, 102672, Note_off_c, 0, 47, 64
2, 102672, Note_off_c, 0, 54, 64
2, 102672, Note_off_c, 0, 57, 64
2, 102672, Note_off_c, 0, 59, 64
2, 102720, Note_on_c, 0, 59, 127
2, 102720, Note_on_c, 0, 47, 127
2, 102720, Note_on_c, 0, 57, 127
2, 102720, Note_on_c, 0, 54, 127
2, 102720, Note_on_c, 0, 88, 127
2, 102816, Note_off_c, 0, 88, 64
2, 102840, Note_on_c, 0, 87, 127
2, 102912, Note_off_c, 0, 54, 64
2, 102912, Note_off_c, 0, 57, 64
2, 102912, Note_off_c, 0, 47, 64
2, 102912, Note_off_c, 0, 59, 64
2, 102936, Note_off_c, 0, 87, 64
2, 102960, Note_on_c, 0, 59, 127
2, 102960, Note_on_c, 0, 57, 127
2, 102960, Note_on_c, 0, 54, 127
2, 102960, Note_on_c, 0, 47, 127
2, 102960, Note_on_c, 0, 88, 127
2, 103056, Note_off_c, 0, 88, 64
2, 103080, Note_on_c, 0, 87, 127
2, 103152, Note_off_c, 0, 47, 64
2, 103152, Note_off_c, 0, 54, 64
2, 103152, Note_off_c, 0, 57, 64
2, 103152, Note_off_c, 0, 59, 64
2, 103176, Note_off_c, 0, 87, 64
2, 103200, Note_on_c, 0, 47, 127
2, 103200, Note_on_c, 0, 59, 127
2, 103200, Note_on_c, 0, 57, 127
2, 103200, Note_on_c, 0, 54, 127
2, 103200, Note_on_c, 0, 83, 127
2, 103392, Note_off_c, 0, 83, 64
2, 103392, Note_off_c, 0, 54, 64
2, 103392, Note_off_c, 0, 57, 64
2, 103392, Note_off_c, 0, 59, 64
2, 103392, Note_off_c, 0, 47, 64
2, 103440, Note_on_c, 0, 47, 127
2, 103440, Note_on_c, 0, 59, 127
2, 103440, Note_on_c, 0, 57, 127
2, 103440, Note_on_c, 0, 54, 127
2, 103632, Note_off_c, 0, 54, 64
2, 103632, Note_off_c, 0, 57, 64
2, 103632, Note_off_c, 0, 59, 64
2, 103632, Note_off_c, 0, 47, 64
2, 103680, Note_on_c, 0, 59, 127
2, 103680, Note_on_c, 0, 55, 127
2, 103680, Note_on_c, 0, 52, 127
2, 103680, Note_on_c, 0, 83, 127
2, 103776, Note_off_c, 0, 83, 64
2, 103800, Note_on_c, 0, 81, 127
2, 103872, Note_off_c, 0, 52, 64
2, 103872, Note_off_c, 0, 55, 64
2, 103872, Note_off_c, 0, 59, 64
2, 103896, Note_off_c, 0, 81, 64
2, 103920, Note_on_c, 0, 59, 127
2, 103920, Note_on_c, 0, 52, 127
2, 103920, Note_on_c, 0, 79, 127
2, 103920, Note_on_c, 0, 55, 127
2, 104016, Note_off_c, 0, 79, 64
2, 104040, Note_on_c, 0, 78, 127
2, 104112, Note_off_c, 0, 52, 64
2, 104112, Note_off_c, 0, 59, 64
2, 104112, Note_off_c, 0, 55, 64
2, 104136, Note_off_c, 0, 78, 64
2, 104160, Note_on_c, 0, 59, 127
2, 104160, Note_on_c, 0, 55, 127
2, 104160, Note_on_c, 0, 52, 127
2, 104160, Note_on_c, 0, 76, 127
2, 104256, Note_off_c, 0, 76, 64
2, 104280, Note_on_c, 0, 78, 127
2, 104352, Note_off_c, 0, 52, 64
2, 104352, Note_off_c, 0, 55, 64
2, 104352, Note_off_c, 0, 59, 64
2, 104376, Note_off_c, 0, 78, 64
2, 104400, Note_on_c, 0, 59, 127
2, 104400, Note_on_c, 0, 52, 127
2, 104400, Note_on_c, 0, 55, 127
2, 104400, Note_on_c, 0, 79, 127
2, 104496, Note_off_c, 0, 79, 64
2, 104520, Note_on_c, 0, 81, 127
2, 104592, Note_off_c, 0, 55, 64
2, 104592, Note_off_c, 0, 52, 64
2, 104592, Note_off_c, 0, 59, 64
2, 104616, Note_off_c, 0, 81, 64
2, 104640, Note_on_c, 0, 52, 127
2, 104640, Note_on_c, 0, 59, 127
2, 104640, Note_on_c, 0, 55, 127
2, 104640, Note_on_c, 0, 83, 127
2, 104832, Note_off_c, 0, 83, 64
2, 104832, Note_off_c, 0, 55, 64
2, 104832, Note_off_c, 0, 59, 64
2, 104832, Note_off_c, 0, 52, 64
2, 104880, Note_on_c, 0, 52, 127
2, 104880, Note_on_c, 0, 59, 127
2, 104880, Note_on_c, 0, 55, 127
2, 104880, Note_on_c, 0, 83, 127
2, 105072, Note_off_c, 0, 83, 64
2, 105072, Note_off_c, 0, 55, 64
2, 105072, Note_off_c, 0, 59, 64
2, 105072, Note_off_c, 0, 52, 64
2, 105120, Note_on_c, 0, 59, 127
2, 105120, Note_on_c, 0, 55, 127
2, 105120, Note_on_c, 0, 52, 127
2, 105120, Note_on_c, 0, 88, 127
2, 105312, Note_off_c, 0, 52, 64
2, 105312, Note_off_c, 0, 55, 64
2, 105312, Note_off_c, 0, 59, 64
2, 105360, Note_on_c, 0, 52, 127
2, 105360, Note_on_c, 0, 59, 127
2, 105360, Note_on_c, 0, 55, 127
2, 105552, Note_off_c, 0, 55, 64
2, 105552, Note_off_c, 0, 59, 64
2, 105552, Note_off_c, 0, 52, 64
2, 105570, Note_off_c, 0, 88, 64
2, 105600, Note_on_c, 0, 52, 127
2, 105600, Note_on_c, 0, 59, 127
2, 105600, Note_on_c, 0, 57, 127
2, 105600, Note_on_c, 0, 85, 127
2, 105600, Note_on_c, 0, 45, 127
2, 105648, Note_off_c, 0, 85, 64
2, 105660, Note_on_c, 0, 86, 127
2, 105708, Note_off_c, 0, 86, 64
2, 105720, Note_on_c, 0, 85, 127
2, 105768, Note_off_c, 0, 85, 64
2, 105780, Note_on_c, 0, 86, 127
2, 105792, Note_off_c, 0, 57, 64
2, 105792, Note_off_c, 0, 59, 64
2, 105792, Note_off_c, 0, 52, 64
2, 105792, Note_off_c, 0, 45, 64
2, 105828, Note_off_c, 0, 86, 64
2, 105840, Note_on_c, 0, 59, 127
2, 105840, Note_on_c, 0, 57, 127
2, 105840, Note_on_c, 0, 85, 127
2, 105840, Note_on_c, 0, 45, 127
2, 105840, Note_on_c, 0, 52, 127
2, 105888, Note_off_c, 0, 85, 64
2, 105900, Note_on_c, 0, 86, 127
2, 105948, Note_off_c, 0, 86, 64
2, 105960, Note_on_c, 0, 85, 127
2, 106008, Note_off_c, 0, 85, 64
2, 106020, Note_on_c, 0, 86, 127
2, 106032, Note_off_c, 0, 57, 64
2, 106032, Note_off_c, 0, 59, 64
2, 106032, Note_off_c, 0, 45, 64
2, 106032, Note_off_c, 0, 52, 64
2, 106068, Note_off_c, 0, 86, 64
2, 106080, Note_on_c, 0, 45, 127
2, 106080, Note_on_c, 0, 52, 127
2, 106080, Note_on_c, 0, 59, 127
2, 106080, Note_on_c, 0, 57, 127
2, 106080, Note_on_c, 0, 85, 127
2, 106128, Note_off_c, 0, 85, 64
2, 106140, Note_on_c, 0, 86, 127
2, 106188, Note_off_c, 0, 86, 64
2, 106200, Note_on_c, 0, 85, 127
2, 106248, Note_off_c, 0, 85, 64
2, 106260, Note_on_c, 0, 86, 127
2, 106272, Note_off_c, 0, 57, 64
2, 106272, Note_off_c, 0, 59, 64
2, 106272, Note_off_c, 0, 52, 64
2, 106272, Note_off_c, 0, 45, 64
2, 106308, Note_off_c, 0, 86, 64
2, 106320, Note_on_c, 0, 45, 127
2, 106320, Note_on_c, 0, 52, 127
2, 106320, Note_on_c, 0, 59, 127
2, 106320, Note_on_c, 0, 57, 127
2, 106320, Note_on_c, 0, 83, 127
2, 106416, Note_off_c, 0, 83, 64
2, 106440, Note_on_c, 0, 85, 127
2, 106512, Note_off_c, 0, 57, 64
2, 106512, Note_off_c, 0, 59, 64
2, 106512, Note_off_c, 0, 52, 64
2, 106512, Note_off_c, 0, 45, 64
2, 106536, Note_off_c, 0, 85, 64
2, 106560, Note_on_c, 0, 54, 127
2, 106560, Note_on_c, 0, 57, 127
2, 106560, Note_on_c, 0, 50, 127
2, 106560, Note_on_c, 0, 86, 127
2, 106752, Note_off_c, 0, 50, 64
2, 106752, Note_off_c, 0, 57, 64
2, 106752, Note_off_c, 0, 54, 64
2, 106800, Note_on_c, 0, 57, 127
2, 106800, Note_on_c, 0, 54, 127
2, 106800, Note_on_c, 0, 50, 127
2, 106944, Note_off_c, 0, 86, 64
2, 106992, Note_off_c, 0, 57, 64
2, 106992, Note_off_c, 0, 54, 64
2, 106992, Note_off_c, 0, 50, 64
2, 107040, Note_on_c, 0, 54, 127
2, 107040, Note_on_c, 0, 57, 127
2, 107040, Note_on_c, 0, 50, 127
2, 107040, Note_on_c, 0, 74, 127
2, 107232, Note_off_c, 0, 50, 64
2, 107232, Note_off_c, 0, 57, 64
2, 107232, Note_off_c, 0, 54, 64
2, 107280, Note_on_c, 0, 54, 127
2, 107280, Note_on_c, 0, 57, 127
2, 107280, Note_on_c, 0, 50, 127
2, 107424, Note_off_c, 0, 74, 64
2, 107472, Note_off_c, 0, 54, 64
2, 107472, Note_off_c, 0, 57, 64
2, 107472, Note_off_c, 0, 50, 64
2, 107520, Note_on_c, 0, 55, 127
2, 107520, Note_on_c, 0, 50, 127
2, 107520, Note_on_c, 0, 47, 127
2, 107520, Note_on_c, 0, 70, 127
2, 107520, Note_on_c, 0, 43, 127
2, 107616, Note_off_c, 0, 70, 64
2, 107640, Note_on_c, 0, 71, 127
2, 107712, Note_off_c, 0, 47, 64
2, 107712, Note_off_c, 0, 50, 64
2, 107712, Note_off_c, 0, 55, 64
2, 107712, Note_off_c, 0, 43, 64
2, 107736, Note_off_c, 0, 71, 64
2, 107760, Note_on_c, 0, 55, 127
2, 107760, Note_on_c, 0, 50, 127
2, 107760, Note_on_c, 0, 70, 127
2, 107760, Note_on_c, 0, 43, 127
2, 107760, Note_on_c, 0, 47, 127
2, 107856, Note_off_c, 0, 70, 64
2, 107880, Note_on_c, 0, 71, 127
2, 107952, Note_off_c, 0, 50, 64
2, 107952, Note_off_c, 0, 55, 64
2, 107952, Note_off_c, 0, 43, 64
2, 107952, Note_off_c, 0, 47, 64
2, 107976, Note_off_c, 0, 71, 64
2, 108000, Note_on_c, 0, 43, 127
2, 108000, Note_on_c, 0, 55, 127
2, 108000, Note_on_c, 0, 47, 127
2, 108000, Note_on_c, 0, 50, 127
2, 108000, Note_on_c, 0, 73, 127
2, 108096, Note_off_c, 0, 73, 64
2, 108120, Note_on_c, 0, 74, 127
2, 108192, Note_off_c, 0, 50, 64
2, 108192, Note_off_c, 0, 47, 64
2, 108192, Note_off_c, 0, 55, 64
2, 108192, Note_off_c, 0, 43, 64
2, 108216, Note_off_c, 0, 74, 64
2, 108240, Note_on_c, 0, 43, 127
2, 108240, Note_on_c, 0, 55, 127
2, 108240, Note_on_c, 0, 47, 127
2, 108240, Note_on_c, 0, 50, 127
2, 108240, Note_on_c, 0, 73, 127
2, 108336, Note_off_c, 0, 73, 64
2, 108360, Note_on_c, 0, 74, 127
2, 108432, Note_off_c, 0, 50, 64
2, 108432, Note_off_c, 0, 47, 64
2, 108432, Note_off_c, 0, 55, 64
2, 108432, Note_off_c, 0, 43, 64
2, 108456, Note_off_c, 0, 74, 64
2, 108480, Note_on_c, 0, 55, 127
2, 108480, Note_on_c, 0, 50, 127
2, 108480, Note_on_c, 0, 47, 127
2, 108480, Note_on_c, 0, 78, 127
2, 108480, Note_on_c, 0, 43, 127
2, 108576, Note_off_c, 0, 78, 64
2, 108600, Note_on_c, 0, 79, 127
2, 108672, Note_off_c, 0, 47, 64
2, 108672, Note_off_c, 0, 50, 64
2, 108672, Note_off_c, 0, 55, 64
2, 108672, Note_off_c, 0, 43, 64
2, 108696, Note_off_c, 0, 79, 64
2, 108720, Note_on_c, 0, 47, 127
2, 108720, Note_on_c, 0, 50, 127
2, 108720, Note_on_c, 0, 78, 127
2, 108720, Note_on_c, 0, 43, 127
2, 108720, Note_on_c, 0, 55, 127
2, 108816, Note_off_c, 0, 78, 64
2, 108840, Note_on_c, 0, 79, 127
2, 108912, Note_off_c, 0, 50, 64
2, 108912, Note_off_c, 0, 47, 64
2, 108912, Note_off_c, 0, 43, 64
2, 108912, Note_off_c, 0, 55, 64
2, 108936, Note_off_c, 0, 79, 64
2, 108960, Note_on_c, 0, 43, 127
2, 108960, Note_on_c, 0, 55, 127
2, 108960, Note_on_c, 0, 47, 127
2, 108960, Note_on_c, 0, 50, 127
2, 108960, Note_on_c, 0, 82, 127
2, 109056, Note_off_c, 0, 82, 64
2, 109080, Note_on_c, 0, 83, 127
2, 109152, Note_off_c, 0, 50, 64
2, 109152, Note_off_c, 0, 47, 64
2, 109152, Note_off_c, 0, 55, 64
2, 109152, Note_off_c, 0, 43, 64
2, 109176, Note_off_c, 0, 83, 64
2, 109200, Note_on_c, 0, 55, 127
2, 109200, Note_on_c, 0, 43, 127
2, 109200, Note_on_c, 0, 47, 127
2, 109200, Note_on_c, 0, 50, 127
2, 109200, Note_on_c, 0, 82, 127
2, 109296, Note_off_c, 0, 82, 64
2, 109320, Note_on_c, 0, 83, 127
2, 109392, Note_off_c, 0, 50, 64
2, 109392, Note_off_c, 0, 47, 64
2, 109392, Note_off_c, 0, 43, 64
2, 109392, Note_off_c, 0, 55, 64
2, 109416, Note_off_c, 0, 83, 64
2, 109440, Note_on_c, 0, 54, 127
2, 109440, Note_on_c, 0, 43, 127
2, 109440, Note_on_c, 0, 50, 127
2, 109440, Note_on_c, 0, 48, 127
2, 109440, Note_on_c, 0, 86, 127
2, 109536, Note_off_c, 0, 86, 64
2, 109560, Note_on_c, 0, 85, 127
2, 109632, Note_off_c, 0, 48, 64
2, 109632, Note_off_c, 0, 50, 64
2, 109632, Note_off_c, 0, 43, 64
2, 109632, Note_off_c, 0, 54, 64
2, 109656, Note_off_c, 0, 85, 64
2, 109680, Note_on_c, 0, 43, 127
2, 109680, Note_on_c, 0, 54, 127
2, 109680, Note_on_c, 0, 50, 127
2, 109680, Note_on_c, 0, 48, 127
2, 109680, Note_on_c, 0, 84, 127
2, 109776, Note_off_c, 0, 84, 64
2, 109800, Note_on_c, 0, 83, 127
2, 109872, Note_off_c, 0, 48, 64
2, 109872, Note_off_c, 0, 50, 64
2, 109872, Note_off_c, 0, 54, 64
2, 109872, Note_off_c, 0, 43, 64
2, 109896, Note_off_c, 0, 83, 64
2, 109920, Note_on_c, 0, 43, 127
2, 109920, Note_on_c, 0, 54, 127
2, 109920, Note_on_c, 0, 50, 127
2, 109920, Note_on_c, 0, 48, 127
2, 109920, Note_on_c, 0, 81, 127
2, 110112, Note_off_c, 0, 81, 64
2, 110112, Note_off_c, 0, 48, 64
2, 110112, Note_off_c, 0, 50, 64
2, 110112, Note_off_c, 0, 54, 64
2, 110112, Note_off_c, 0, 43, 64
2, 110160, Note_on_c, 0, 43, 127
2, 110160, Note_on_c, 0, 54, 127
2, 110160, Note_on_c, 0, 50, 127
2, 110160, Note_on_c, 0, 48, 127
2, 110352, Note_off_c, 0, 48, 64
2, 110352, Note_off_c, 0, 50, 64
2, 110352, Note_off_c, 0, 54, 64
2, 110352, Note_off_c, 0, 43, 64
2, 110400, Note_on_c, 0, 54, 127
2, 110400, Note_on_c, 0, 43, 127
2, 110400, Note_on_c, 0, 48, 127
2, 110400, Note_on_c, 0, 50, 127
2, 110400, Note_on_c, 0, 86, 127
2, 110496, Note_off_c, 0, 86, 64
2, 110520, Note_on_c, 0, 85, 127
2, 110592, Note_off_c, 0, 50, 64
2, 110592, Note_off_c, 0, 48, 64
2, 110592, Note_off_c, 0, 43, 64
2, 110592, Note_off_c, 0, 54, 64
2, 110616, Note_off_c, 0, 85, 64
2, 110640, Note_on_c, 0, 43, 127
2, 110640, Note_on_c, 0, 54, 127
2, 110640, Note_on_c, 0, 48, 127
2, 110640, Note_on_c, 0, 50, 127
2, 110640, Note_on_c, 0, 84, 127
2, 110736, Note_off_c, 0, 84, 64
2, 110760, Note_on_c, 0, 83, 127
2, 110832, Note_off_c, 0, 50, 64
2, 110832, Note_off_c, 0, 48, 64
2, 110832, Note_off_c, 0, 54, 64
2, 110832, Note_off_c, 0, 43, 64
2, 110856, Note_off_c, 0, 83, 64
2, 110880, Note_on_c, 0, 54, 127
2, 110880, Note_on_c, 0, 48, 127
2, 110880, Note_on_c, 0, 50, 127
2, 110880, Note_on_c, 0, 43, 127
2, 110880, Note_on_c, 0, 81, 127
2, 111072, Note_off_c, 0, 81, 64
2, 111072, Note_off_c, 0, 43, 64
2, 111072, Note_off_c, 0, 50, 64
2, 111072, Note_off_c, 0, 48, 64
2, 111072, Note_off_c, 0, 54, 64
2, 111120, Note_on_c, 0, 43, 127
2, 111120, Note_on_c, 0, 54, 127
2, 111120, Note_on_c, 0, 48, 127
2, 111120, Note_on_c, 0, 50, 127
2, 111312, Note_off_c, 0, 50, 64
2, 111312, Note_off_c, 0, 48, 64
2, 111312, Note_off_c, 0, 54, 64
2, 111312, Note_off_c, 0, 43, 64
2, 111360, Note_on_c, 0, 55, 127
2, 111360, Note_on_c, 0, 50, 127
2, 111360, Note_on_c, 0, 47, 127
2, 111360, Note_on_c, 0, 70, 127
2, 111360, Note_on_c, 0, 43, 127
2, 111456, Note_off_c, 0, 70, 64
2, 111480, Note_on_c, 0, 71, 127
2, 111552, Note_off_c, 0, 47, 64
2, 111552, Note_off_c, 0, 50, 64
2, 111552, Note_off_c, 0, 55, 64
2, 111552, Note_off_c, 0, 43, 64
2, 111576, Note_off_c, 0, 71, 64
2, 111600, Note_on_c, 0, 55, 127
2, 111600, Note_on_c, 0, 50, 127
2, 111600, Note_on_c, 0, 59, 127
2, 111600, Note_on_c, 0, 43, 127
2, 111600, Note_on_c, 0, 47, 127
2, 111792, Note_off_c, 0, 47, 64
2, 111792, Note_off_c, 0, 43, 64
2, 111792, Note_off_c, 0, 59, 64
2, 111792, Note_off_c, 0, 50, 64
2, 111792, Note_off_c, 0, 55, 64
2, 111840, Note_on_c, 0, 43, 127
2, 111840, Note_on_c, 0, 55, 127
2, 111840, Note_on_c, 0, 47, 127
2, 111840, Note_on_c, 0, 50, 127
2, 111840, Note_on_c, 0, 73, 127
2, 111936, Note_off_c, 0, 73, 64
2, 111960, Note_on_c, 0, 74, 127
2, 112032, Note_off_c, 0, 50, 64
2, 112032, Note_off_c, 0, 47, 64
2, 112032, Note_off_c, 0, 55, 64
2, 112032, Note_off_c, 0, 43, 64
2, 112056, Note_off_c, 0, 74, 64
2, 112080, Note_on_c, 0, 43, 127
2, 112080, Note_on_c, 0, 55, 127
2, 112080, Note_on_c, 0, 50, 127
2, 112080, Note_on_c, 0, 47, 127
2, 112080, Note_on_c, 0, 62, 127
2, 112272, Note_off_c, 0, 62, 64
2, 112272, Note_off_c, 0, 47, 64
2, 112272, Note_off_c, 0, 50, 64
2, 112272, Note_off_c, 0, 55, 64
2, 112272, Note_off_c, 0, 43, 64
2, 112320, Note_on_c, 0, 55, 127
2, 112320, Note_on_c, 0, 50, 127
2, 112320, Note_on_c, 0, 47, 127
2, 112320, Note_on_c, 0, 78, 127
2, 112320, Note_on_c, 0, 43, 127
2, 112416, Note_off_c, 0, 78, 64
2, 112440, Note_on_c, 0, 79, 127
2, 112512, Note_off_c, 0, 47, 64
2, 112512, Note_off_c, 0, 50, 64
2, 112512, Note_off_c, 0, 55, 64
2, 112512, Note_off_c, 0, 43, 64
2, 112536, Note_off_c, 0, 79, 64
2, 112560, Note_on_c, 0, 50, 127
2, 112560, Note_on_c, 0, 47, 127
2, 112560, Note_on_c, 0, 67, 127
2, 112560, Note_on_c, 0, 43, 127
2, 112560, Note_on_c, 0, 55, 127
2, 112752, Note_off_c, 0, 55, 64
2, 112752, Note_off_c, 0, 43, 64
2, 112752, Note_off_c, 0, 67, 64
2, 112752, Note_off_c, 0, 47, 64
2, 112752, Note_off_c, 0, 50, 64
2, 112800, Note_on_c, 0, 43, 127
2, 112800, Note_on_c, 0, 55, 127
2, 112800, Note_on_c, 0, 47, 127
2, 112800, Note_on_c, 0, 50, 127
2, 112800, Note_on_c, 0, 82, 127
2, 112896, Note_off_c, 0, 82, 64
2, 112920, Note_on_c, 0, 83, 127
2, 112992, Note_off_c, 0, 50, 64
2, 112992, Note_off_c, 0, 47, 64
2, 112992, Note_off_c, 0, 55, 64
2, 112992, Note_off_c, 0, 43, 64
2, 113016, Note_off_c, 0, 83, 64
2, 113040, Note_on_c, 0, 43, 127
2, 113040, Note_on_c, 0, 47, 127
2, 113040, Note_on_c, 0, 55, 127
2, 113040, Note_on_c, 0, 50, 127
2, 113040, Note_on_c, 0, 71, 127
2, 113232, Note_off_c, 0, 71, 64
2, 113232, Note_off_c, 0, 50, 64
2, 113232, Note_off_c, 0, 55, 64
2, 113232, Note_off_c, 0, 47, 64
2, 113232, Note_off_c, 0, 43, 64
2, 113280, Note_on_c, 0, 54, 127
2, 113280, Note_on_c, 0, 48, 127
2, 113280, Note_on_c, 0, 50, 127
2, 113280, Note_on_c, 0, 86, 127
2, 113280, Note_on_c, 0, 43, 127
2, 113376, Note_off_c, 0, 86, 64
2, 113400, Note_on_c, 0, 85, 127
2, 113472, Note_off_c, 0, 50, 64
2, 113472, Note_off_c, 0, 48, 64
2, 113472, Note_off_c, 0, 54, 64
2, 113472, Note_off_c, 0, 43, 64
2, 113496, Note_off_c, 0, 85, 64
2, 113520, Note_on_c, 0, 48, 127
2, 113520, Note_on_c, 0, 50, 127
2, 113520, Note_on_c, 0, 84, 127
2, 113520, Note_on_c, 0, 43, 127
2, 113520, Note_on_c, 0, 54, 127
2, 113616, Note_off_c, 0, 84, 64
2, 113640, Note_on_c, 0, 83, 127
2, 113712, Note_off_c, 0, 50, 64
2, 113712, Note_off_c, 0, 48, 64
2, 113712, Note_off_c, 0, 43, 64
2, 113712, Note_off_c, 0, 54, 64
2, 113736, Note_off_c, 0, 83, 64
2, 113760, Note_on_c, 0, 54, 127
2, 113760, Note_on_c, 0, 48, 127
2, 113760, Note_on_c, 0, 50, 127
2, 113760, Note_on_c, 0, 43, 127
2, 113760, Note_on_c, 0, 81, 127
2, 113856, Note_off_c, 0, 81, 64
2, 113880, Note_on_c, 0, 83, 127
2, 113952, Note_off_c, 0, 43, 64
2, 113952, Note_off_c, 0, 50, 64
2, 113952, Note_off_c, 0, 48, 64
2, 113952, Note_off_c, 0, 54, 64
2, 113976, Note_off_c, 0, 83, 64
2, 114000, Note_on_c, 0, 43, 127
2, 114000, Note_on_c, 0, 54, 127
2, 114000, Note_on_c, 0, 48, 127
2, 114000, Note_on_c, 0, 50, 127
2, 114000, Note_on_c, 0, 84, 127
2, 114096, Note_off_c, 0, 84, 64
2, 114120, Note_on_c, 0, 81, 127
2, 114192, Note_off_c, 0, 50, 64
2, 114192, Note_off_c, 0, 48, 64
2, 114192, Note_off_c, 0, 54, 64
2, 114192, Note_off_c, 0, 43, 64
2, 114216, Note_off_c, 0, 81, 64
2, 114240, Note_on_c, 0, 43, 127
2, 114240, Note_on_c, 0, 55, 127
2, 114240, Note_on_c, 0, 47, 127
2, 114240, Note_on_c, 0, 50, 127
2, 114240, Note_on_c, 0, 79, 127
2, 114624, Note_off_c, 0, 79, 64
2, 114624, Note_off_c, 0, 50, 64
2, 114624, Note_off_c, 0, 47, 64
2, 114624, Note_off_c, 0, 55, 64
2, 114624, Note_off_c, 0, 43, 64
2, 114720, Note_on_c, 0, 43, 127
2, 115104, Note_off_c, 0, 43, 64
2, 115200, Note_on_c, 0, 88, 127
2, 115200, Note_on_c, 0, 76, 127
2, 115200, Note_on_c, 0, 83, 127
2, 115200, Note_on_c, 0, 80, 127
2, 115440, Note_on_c, 0, 40, 127
2, 115584, Note_off_c, 0, 80, 64
2, 115584, Note_off_c, 0, 83, 64
2, 115584, Note_off_c, 0, 76, 64
2, 115584, Note_off_c, 0, 88, 64
2, 115632, Note_off_c, 0, 40, 64
2, 115680, Note_on_c, 0, 44, 127
2, 115680, Note_on_c, 0, 80, 127
2, 115680, Note_on_c, 0, 76, 127
2, 115680, Note_on_c, 0, 83, 127
2, 115680, Note_on_c, 0, 71, 127
2, 115872, Note_off_c, 0, 44, 64
2, 115920, Note_on_c, 0, 47, 127
2, 116064, Note_off_c, 0, 80, 64
2, 116064, Note_off_c, 0, 76, 64
2, 116064, Note_off_c, 0, 83, 64
2, 116064, Note_off_c, 0, 71, 64
2, 116112, Note_off_c, 0, 47, 64
2, 116160, Note_on_c, 0, 52, 127
2, 116160, Note_on_c, 0, 68, 127
2, 116160, Note_on_c, 0, 80, 127
2, 116160, Note_on_c, 0, 76, 127
2, 116160, Note_on_c, 0, 71, 127
2, 116352, Note_off_c, 0, 52, 64
2, 116400, Note_on_c, 0, 56, 127
2, 116544, Note_off_c, 0, 68, 64
2, 116544, Note_off_c, 0, 80, 64
2, 116544, Note_off_c, 0, 76, 64
2, 116544, Note_off_c, 0, 71, 64
2, 116592, Note_off_c, 0, 56, 64
2, 116640, Note_on_c, 0, 59, 127
2, 116832, Note_off_c, 0, 59, 64
2, 116880, Note_on_c, 0, 64, 127
2, 116880, Note_on_c, 0, 68, 127
2, 116880, Note_on_c, 0, 71, 127
2, 116880, Note_on_c, 0, 76, 127
2, 117072, Note_off_c, 0, 76, 64
2, 117072, Note_off_c, 0, 71, 64
2, 117072, Note_off_c, 0, 68, 64
2, 117072, Note_off_c, 0, 64, 64
2, 117120, Note_on_c, 0, 75, 127
2, 117120, Note_on_c, 0, 69, 127
2, 117120, Note_on_c, 0, 66, 127
2, 117120, Note_on_c, 0, 71, 127
2, 117312, Note_off_c, 0, 71, 64
2, 117312, Note_off_c, 0, 66, 64
2, 117312, Note_off_c, 0, 69, 64
2, 117312, Note_off_c, 0, 75, 64
2, 117360, Note_on_c, 0, 68, 127
2, 117360, Note_on_c, 0, 64, 127
2, 117360, Note_on_c, 0, 76, 127
2, 117360, Note_on_c, 0, 71, 127
2, 117552, Note_off_c, 0, 71, 64
2, 117552, Note_off_c, 0, 76, 64
2, 117552, Note_off_c, 0, 64, 64
2, 117552, Note_off_c, 0, 68, 64
2, 117600, Note_on_c, 0, 66, 127
2, 117600, Note_on_c, 0, 71, 127
2, 117600, Note_on_c, 0, 63, 127
2, 117600, Note_on_c, 0, 78, 127
2, 117792, Note_off_c, 0, 78, 64
2, 117792, Note_off_c, 0, 63, 64
2, 117792, Note_off_c, 0, 71, 64
2, 117792, Note_off_c, 0, 66, 64
2, 117840, Note_on_c, 0, 61, 127
2, 117840, Note_on_c, 0, 80, 127
2, 117840, Note_on_c, 0, 64, 127
2, 117840, Note_on_c, 0, 71, 127
2, 118032, Note_off_c, 0, 71, 64
2, 118032, Note_off_c, 0, 64, 64
2, 118032, Note_off_c, 0, 80, 64
2, 118032, Note_off_c, 0, 61, 64
2, 118080, Note_on_c, 0, 63, 127
2, 118080, Note_on_c, 0, 59, 127
2, 118080, Note_on_c, 0, 71, 127
2, 118080, Note_on_c, 0, 81, 127
2, 118272, Note_off_c, 0, 81, 64
2, 118272, Note_off_c, 0, 71, 64
2, 118272, Note_off_c, 0, 59, 64
2, 118272, Note_off_c, 0, 63, 64
2, 118320, Note_on_c, 0, 61, 127
2, 118320, Note_on_c, 0, 57, 127
2, 118320, Note_on_c, 0, 71, 127
2, 118320, Note_on_c, 0, 83, 127
2, 118512, Note_off_c, 0, 83, 64
2, 118512, Note_off_c, 0, 71, 64
2, 118512, Note_off_c, 0, 57, 64
2, 118512, Note_off_c, 0, 61, 64
2, 118560, Note_on_c, 0, 56, 127
2, 118560, Note_on_c, 0, 59, 127
2, 118560, Note_on_c, 0, 73, 127
2, 118560, Note_on_c, 0, 85, 127
2, 118752, Note_off_c, 0, 85, 64
2, 118752, Note_off_c, 0, 73, 64
2, 118752, Note_off_c, 0, 59, 64
2, 118752, Note_off_c, 0, 56, 64
2, 118800, Note_on_c, 0, 57, 127
2, 118800, Note_on_c, 0, 54, 127
2, 118800, Note_on_c, 0, 75, 127
2, 118800, Note_on_c, 0, 87, 127
2, 118992, Note_off_c, 0, 87, 64
2, 118992, Note_off_c, 0, 75, 64
2, 118992, Note_off_c, 0, 54, 64
2, 118992, Note_off_c, 0, 57, 64
2, 119040, Note_on_c, 0, 83, 127
2, 119040, Note_on_c, 0, 80, 127
2, 119040, Note_on_c, 0, 76, 127
2, 119040, Note_on_c, 0, 88, 127
2, 119280, Note_on_c, 0, 40, 127
2, 119424, Note_off_c, 0, 88, 64
2, 119424, Note_off_c, 0, 76, 64
2, 119424, Note_off_c, 0, 80, 64
2, 119424, Note_off_c, 0, 83, 64
2, 119472, Note_off_c, 0, 40, 64
2, 119520, Note_on_c, 0, 44, 127
2, 119520, Note_on_c, 0, 83, 127
2, 119520, Note_on_c, 0, 80, 127
2, 119520, Note_on_c, 0, 71, 127
2, 119520, Note_on_c, 0, 76, 127
2, 119712, Note_off_c, 0, 44, 64
2, 119760, Note_on_c, 0, 47, 127
2, 119904, Note_off_c, 0, 83, 64
2, 119904, Note_off_c, 0, 80, 64
2, 119904, Note_off_c, 0, 71, 64
2, 119904, Note_off_c, 0, 76, 64
2, 119952, Note_off_c, 0, 47, 64
2, 120000, Note_on_c, 0, 52, 127
2, 120000, Note_on_c, 0, 80, 127
2, 120000, Note_on_c, 0, 71, 127
2, 120000, Note_on_c, 0, 68, 127
2, 120000, Note_on_c, 0, 76, 127
2, 120192, Note_off_c, 0, 52, 64
2, 120240, Note_on_c, 0, 56, 127
2, 120384, Note_off_c, 0, 80, 64
2, 120384, Note_off_c, 0, 71, 64
2, 120384, Note_off_c, 0, 68, 64
2, 120384, Note_off_c, 0, 76, 64
2, 120432, Note_off_c, 0, 56, 64
2, 120480, Note_on_c, 0, 59, 127
2, 120672, Note_off_c, 0, 59, 64
2, 120720, Note_on_c, 0, 64, 127
2, 120720, Note_on_c, 0, 68, 127
2, 120720, Note_on_c, 0, 71, 127
2, 120912, Note_off_c, 0, 71, 64
2, 120912, Note_off_c, 0, 68, 64
2, 120912, Note_off_c, 0, 64, 64
2, 120960, Note_on_c, 0, 63, 127
2, 120960, Note_on_c, 0, 66, 127
2, 120960, Note_on_c, 0, 71, 127
2, 121152, Note_off_c, 0, 71, 64
2, 121152, Note_off_c, 0, 66, 64
2, 121152, Note_off_c, 0, 63, 64
2, 121200, Note_on_c, 0, 64, 127
2, 121200, Note_on_c, 0, 68, 127
2, 121200, Note_on_c, 0, 71, 127
2, 121392, Note_off_c, 0, 71, 64
2, 121392, Note_off_c, 0, 68, 64
2, 121392, Note_off_c, 0, 64, 64
2, 121440, Note_on_c, 0, 63, 127
2, 121440, Note_on_c, 0, 71, 127
2, 121440, Note_on_c, 0, 66, 127
2, 121632, Note_off_c, 0, 66, 64
2, 121632, Note_off_c, 0, 71, 64
2, 121632, Note_off_c, 0, 63, 64
2, 121680, Note_on_c, 0, 54, 127
2, 121680, Note_on_c, 0, 61, 127
2, 121680, Note_on_c, 0, 70, 127
2, 121680, Note_on_c, 0, 64, 127
2, 121872, Note_off_c, 0, 64, 64
2, 121872, Note_off_c, 0, 70, 64
2, 121872, Note_off_c, 0, 61, 64
2, 121872, Note_off_c, 0, 54, 64
2, 121920, Note_on_c, 0, 47, 127
2, 121920, Note_on_c, 0, 59, 127
2, 121920, Note_on_c, 0, 63, 127
2, 121920, Note_on_c, 0, 71, 127
2, 122112, Note_off_c, 0, 59, 64
2, 122112, Note_off_c, 0, 47, 64
2, 122160, Note_on_c, 0, 54, 127
2, 122304, Note_off_c, 0, 63, 64
2, 122304, Note_off_c, 0, 71, 64
2, 122352, Note_off_c, 0, 54, 64
2, 122400, Note_on_c, 0, 47, 127
2, 122592, Note_off_c, 0, 47, 64
2, 122640, Note_on_c, 0, 88, 127
2, 122640, Note_on_c, 0, 76, 127
2, 122640, Note_on_c, 0, 83, 127
2, 122640, Note_on_c, 0, 80, 127
2, 122880, Note_on_c, 0, 40, 127
2, 123024, Note_off_c, 0, 80, 64
2, 123024, Note_off_c, 0, 83, 64
2, 123024, Note_off_c, 0, 76, 64
2, 123024, Note_off_c, 0, 88, 64
2, 123072, Note_off_c, 0, 40, 64
2, 123120, Note_on_c, 0, 44, 127
2, 123120, Note_on_c, 0, 80, 127
2, 123120, Note_on_c, 0, 76, 127
2, 123120, Note_on_c, 0, 83, 127
2, 123120, Note_on_c, 0, 71, 127
2, 123312, Note_off_c, 0, 44, 64
2, 123360, Note_on_c, 0, 47, 127
2, 123504, Note_off_c, 0, 80, 64
2, 123504, Note_off_c, 0, 76, 64
2, 123504, Note_off_c, 0, 83, 64
2, 123504, Note_off_c, 0, 71, 64
2, 123552, Note_off_c, 0, 47, 64
2, 123600, Note_on_c, 0, 52, 127
2, 123600, Note_on_c, 0, 68, 127
2, 123600, Note_on_c, 0, 80, 127
2, 123600, Note_on_c, 0, 76, 127
2, 123600, Note_on_c, 0, 71, 127
2, 123792, Note_off_c, 0, 52, 64
2, 123840, Note_on_c, 0, 56, 127
2, 123984, Note_off_c, 0, 68, 64
2, 123984, Note_off_c, 0, 80, 64
2, 123984, Note_off_c, 0, 76, 64
2, 123984, Note_off_c, 0, 71, 64
2, 124032, Note_off_c, 0, 56, 64
2, 124080, Note_on_c, 0, 59, 127
2, 124272, Note_off_c, 0, 59, 64
2, 124320, Note_on_c, 0, 64, 127
2, 124320, Note_on_c, 0, 68, 127
2, 124320, Note_on_c, 0, 71, 127
2, 124320, Note_on_c, 0, 76, 127
2, 124512, Note_off_c, 0, 76, 64
2, 124512, Note_off_c, 0, 71, 64
2, 124512, Note_off_c, 0, 68, 64
2, 124512, Note_off_c, 0, 64, 64
2, 124560, Note_on_c, 0, 75, 127
2, 124560, Note_on_c, 0, 69, 127
2, 124560, Note_on_c, 0, 66, 127
2, 124560, Note_on_c, 0, 71, 127
2, 124752, Note_off_c, 0, 71, 64
2, 124752, Note_off_c, 0, 66, 64
2, 124752, Note_off_c, 0, 69, 64
2, 124752, Note_off_c, 0, 75, 64
2, 124800, Note_on_c, 0, 68, 127
2, 124800, Note_on_c, 0, 64, 127
2, 124800, Note_on_c, 0, 76, 127
2, 124800, Note_on_c, 0, 71, 127
2, 124992, Note_off_c, 0, 71, 64
2, 124992, Note_off_c, 0, 76, 64
2, 124992, Note_off_c, 0, 64, 64
2, 124992, Note_off_c, 0, 68, 64
2, 125040, Note_on_c, 0, 66, 127
2, 125040, Note_on_c, 0, 71, 127
2, 125040, Note_on_c, 0, 63, 127
2, 125040, Note_on_c, 0, 78, 127
2, 125232, Note_off_c, 0, 78, 64
2, 125232, Note_off_c, 0, 63, 64
2, 125232, Note_off_c, 0, 71, 64
2, 125232, Note_off_c, 0, 66, 64
2, 125280, Note_on_c, 0, 61, 127
2, 125280, Note_on_c, 0, 80, 127
2, 125280, Note_on_c, 0, 64, 127
2, 125280, Note_on_c, 0, 71, 127
2, 125472, Note_off_c, 0, 71, 64
2, 125472, Note_off_c, 0, 64, 64
2, 125472, Note_off_c, 0, 80, 64
2, 125472, Note_off_c, 0, 61, 64
2, 125520, Note_on_c, 0, 63, 127
2, 125520, Note_on_c, 0, 59, 127
2, 125520, Note_on_c, 0, 71, 127
2, 125520, Note_on_c, 0, 81, 127
2, 125712, Note_off_c, 0, 81, 64
2, 125712, Note_off_c, 0, 71, 64
2, 125712, Note_off_c, 0, 59, 64
2, 125712, Note_off_c, 0, 63, 64
2, 125760, Note_on_c, 0, 61, 127
2, 125760, Note_on_c, 0, 57, 127
2, 125760, Note_on_c, 0, 71, 127
2, 125760, Note_on_c, 0, 83, 127
2, 125952, Note_off_c, 0, 83, 64
2, 125952, Note_off_c, 0, 71, 64
2, 125952, Note_off_c, 0, 57, 64
2, 125952, Note_off_c, 0, 61, 64
2, 126000, Note_on_c, 0, 56, 127
2, 126000, Note_on_c, 0, 59, 127
2, 126000, Note_on_c, 0, 73, 127
2, 126000, Note_on_c, 0, 85, 127
2, 126192, Note_off_c, 0, 85, 64
2, 126192, Note_off_c, 0, 73, 64
2, 126192, Note_off_c, 0, 59, 64
2, 126192, Note_off_c, 0, 56, 64
2, 126240, Note_on_c, 0, 57, 127
2, 126240, Note_on_c, 0, 54, 127
2, 126240, Note_on_c, 0, 75, 127
2, 126240, Note_on_c, 0, 87, 127
2, 126432, Note_off_c, 0, 87, 64
2, 126432, Note_off_c, 0, 75, 64
2, 126432, Note_off_c, 0, 54, 64
2, 126432, Note_off_c, 0, 57, 64
2, 126480, Note_on_c, 0, 83, 127
2, 126480, Note_on_c, 0, 80, 127
2, 126480, Note_on_c, 0, 76, 127
2, 126480, Note_on_c, 0, 88, 127
2, 126720, Note_on_c, 0, 40, 127
2, 126864, Note_off_c, 0, 88, 64
2, 126864, Note_off_c, 0, 76, 64
2, 126864, Note_off_c, 0, 80, 64
2, 126864, Note_off_c, 0, 83, 64
2, 126912, Note_off_c, 0, 40, 64
2, 126960, Note_on_c, 0, 44, 127
2, 126960, Note_on_c, 0, 83, 127
2, 126960, Note_on_c, 0, 80, 127
2, 126960, Note_on_c, 0, 71, 127
2, 126960, Note_on_c, 0, 76, 127
2, 127152, Note_off_c, 0, 44, 64
2, 127200, Note_on_c, 0, 47, 127
2, 127344, Note_off_c, 0, 83, 64
2, 127344, Note_off_c, 0, 80, 64
2, 127344, Note_off_c, 0, 71, 64
2, 127344, Note_off_c, 0, 76, 64
2, 127392, Note_off_c, 0, 47, 64
2, 127440, Note_on_c, 0, 52, 127
2, 127440, Note_on_c, 0, 80, 127
2, 127440, Note_on_c, 0, 71, 127
2, 127440, Note_on_c, 0, 68, 127
2, 127440, Note_on_c, 0, 76, 127
2, 127632, Note_off_c, 0, 52, 64
2, 127680, Note_on_c, 0, 56, 127
2, 127824, Note_off_c, 0, 80, 64
2, 127824, Note_off_c, 0, 71, 64
2, 127824, Note_off_c, 0, 68, 64
2, 127824, Note_off_c, 0, 76, 64
2, 127872, Note_off_c, 0, 56, 64
2, 127920, Note_on_c, 0, 59, 127
2, 128112, Note_off_c, 0, 59, 64
2, 128160, Note_on_c, 0, 64, 127
2, 128160, Note_on_c, 0, 68, 127
2, 128160, Note_on_c, 0, 71, 127
2, 128352, Note_off_c, 0, 71, 64
2, 128352, Note_off_c, 0, 68, 64
2, 128352, Note_off_c, 0, 64, 64
2, 128400, Note_on_c, 0, 63, 127
2, 128400, Note_on_c, 0, 66, 127
2, 128400, Note_on_c, 0, 71, 127
2, 128592, Note_off_c, 0, 71, 64
2, 128592, Note_off_c, 0, 66, 64
2, 128592, Note_off_c, 0, 63, 64
2, 128640, Note_on_c, 0, 64, 127
2, 128640, Note_on_c, 0, 68, 127
2, 128640, Note_on_c, 0, 71, 127
2, 128832, Note_off_c, 0, 71, 64
2, 128832, Note_off_c, 0, 68, 64
2, 128832, Note_off_c, 0, 64, 64
2, 128880, Note_on_c, 0, 63, 127
2, 128880, Note_on_c, 0, 71, 127
2, 128880, Note_on_c, 0, 66, 127
2, 129072, Note_off_c, 0, 66, 64
2, 129072, Note_off_c, 0, 71, 64
2, 129072, Note_off_c, 0, 63, 64
2, 129120, Note_on_c, 0, 54, 127
2, 129120, Note_on_c, 0, 61, 127
2, 129120, Note_on_c, 0, 70, 127
2, 129120, Note_on_c, 0, 64, 127
2, 129312, Note_off_c, 0, 64, 64
2, 129312, Note_off_c, 0, 70, 64
2, 129312, Note_off_c, 0, 61, 64
2, 129312, Note_off_c, 0, 54, 64
2, 129360, Note_on_c, 0, 47, 127
2, 129360, Note_on_c, 0, 59, 127
2, 129360, Note_on_c, 0, 63, 127
2, 129360, Note_on_c, 0, 71, 127
2, 129552, Note_off_c, 0, 59, 64
2, 129552, Note_off_c, 0, 47, 64
2, 129600, Note_on_c, 0, 54, 127
2, 129744, Note_off_c, 0, 63, 64
2, 129744, Note_off_c, 0, 71, 64
2, 129792, Note_off_c, 0, 54, 64
2, 129840, Note_on_c, 0, 47, 127
2, 130032, Note_off_c, 0, 47, 64
2, 130080, Note_on_c, 0, 71, 127
2, 130272, Note_off_c, 0, 71, 64
2, 130320, Note_on_c, 0, 81, 127
2, 130320, Note_on_c, 0, 71, 127
2, 130512, Note_off_c, 0, 71, 64
2, 130512, Note_off_c, 0, 81, 64
2, 130560, Note_on_c, 0, 71, 127
2, 130560, Note_on_c, 0, 71, 127
2, 130560, Note_on_c, 0, 80, 127
2, 130752, Note_off_c, 0, 80, 64
2, 130752, Note_off_c, 0, 71, 64
2, 130752, Note_off_c, 0, 71, 64
2, 130800, Note_on_c, 0, 69, 127
2, 130800, Note_on_c, 0, 78, 127
2, 130800, Note_on_c, 0, 71, 127
2, 130992, Note_off_c, 0, 71, 64
2, 130992, Note_off_c, 0, 78, 64
2, 130992, Note_off_c, 0, 69, 64
2, 131040, Note_on_c, 0, 68, 127
2, 131040, Note_on_c, 0, 76, 127
2, 131040, Note_on_c, 0, 71, 127
2, 131232, Note_off_c, 0, 71, 64
2, 131232, Note_off_c, 0, 76, 64
2, 131232, Note_off_c, 0, 68, 64
2, 131280, Note_on_c, 0, 66, 127
2, 131280, Note_on_c, 0, 71, 127
2, 131280, Note_on_c, 0, 75, 127
2, 131472, Note_off_c, 0, 75, 64
2, 131472, Note_off_c, 0, 71, 64
2, 131472, Note_off_c, 0, 66, 64
2, 131520, Note_on_c, 0, 64, 127
2, 131520, Note_on_c, 0, 73, 127
2, 131520, Note_on_c, 0, 71, 127
2, 131712, Note_off_c, 0, 71, 64
2, 131712, Note_off_c, 0, 73, 64
2, 131712, Note_off_c, 0, 64, 64
2, 131760, Note_on_c, 0, 63, 127
2, 131760, Note_on_c, 0, 71, 127
2, 131952, Note_off_c, 0, 71, 64
2, 131952, Note_off_c, 0, 63, 64
2, 132000, Note_on_c, 0, 59, 127
2, 132000, Note_on_c, 0, 69, 127
2, 132000, Note_on_c, 0, 71, 127
2, 132192, Note_off_c, 0, 71, 64
2, 132192, Note_off_c, 0, 69, 64
2, 132192, Note_off_c, 0, 59, 64
2, 132240, Note_on_c, 0, 64, 127
2, 132240, Note_on_c, 0, 68, 127
2, 132240, Note_on_c, 0, 71, 127
2, 132432, Note_off_c, 0, 71, 64
2, 132432, Note_off_c, 0, 68, 64
2, 132432, Note_off_c, 0, 64, 64
2, 132480, Note_on_c, 0, 57, 127
2, 132480, Note_on_c, 0, 71, 127
2, 132480, Note_on_c, 0, 66, 127
2, 132672, Note_off_c, 0, 66, 64
2, 132672, Note_off_c, 0, 71, 64
2, 132672, Note_off_c, 0, 57, 64
2, 132720, Note_on_c, 0, 56, 127
2, 132720, Note_on_c, 0, 71, 127
2, 132720, Note_on_c, 0, 64, 127
2, 132912, Note_off_c, 0, 64, 64
2, 132912, Note_off_c, 0, 71, 64
2, 132912, Note_off_c, 0, 56, 64
2, 132960, Note_on_c, 0, 54, 127
2, 132960, Note_on_c, 0, 63, 127
2, 132960, Note_on_c, 0, 71, 127
2, 133152, Note_off_c, 0, 71, 64
2, 133152, Note_off_c, 0, 63, 64
2, 133152, Note_off_c, 0, 54, 64
2, 133200, Note_on_c, 0, 56, 127
2, 133200, Note_on_c, 0, 71, 127
2, 133200, Note_on_c, 0, 64, 127
2, 133392, Note_off_c, 0, 64, 64
2, 133392, Note_off_c, 0, 71, 64
2, 133392, Note_off_c, 0, 56, 64
2, 133440, Note_on_c, 0, 57, 127
2, 133440, Note_on_c, 0, 63, 127
2, 133440, Note_on_c, 0, 71, 127
2, 133632, Note_off_c, 0, 71, 64
2, 133632, Note_off_c, 0, 63, 64
2, 133632, Note_off_c, 0, 57, 64
2, 133680, Note_on_c, 0, 56, 127
2, 133680, Note_on_c, 0, 64, 127
2, 133680, Note_on_c, 0, 71, 127
2, 133872, Note_off_c, 0, 71, 64
2, 133872, Note_off_c, 0, 64, 64
2, 133872, Note_off_c, 0, 56, 64
2, 133920, Note_on_c, 0, 52, 127
2, 133920, Note_on_c, 0, 71, 127
2, 133920, Note_on_c, 0, 68, 127
2, 134112, Note_off_c, 0, 68, 64
2, 134112, Note_off_c, 0, 71, 64
2, 134112, Note_off_c, 0, 52, 64
2, 134160, Note_on_c, 0, 81, 127
2, 134160, Note_on_c, 0, 47, 127
2, 134160, Note_on_c, 0, 71, 127
2, 134352, Note_off_c, 0, 71, 64
2, 134352, Note_off_c, 0, 47, 64
2, 134352, Note_off_c, 0, 81, 64
2, 134400, Note_on_c, 0, 80, 127
2, 134400, Note_on_c, 0, 71, 127
2, 134592, Note_off_c, 0, 71, 64
2, 134592, Note_off_c, 0, 80, 64
2, 134640, Note_on_c, 0, 69, 127
2, 134640, Note_on_c, 0, 78, 127
2, 134640, Note_on_c, 0, 71, 127
2, 134832, Note_off_c, 0, 71, 64
2, 134832, Note_off_c, 0, 78, 64
2, 134832, Note_off_c, 0, 69, 64
2, 134880, Note_on_c, 0, 68, 127
2, 134880, Note_on_c, 0, 71, 127
2, 134880, Note_on_c, 0, 76, 127
2, 135072, Note_off_c, 0, 76, 64
2, 135072, Note_off_c, 0, 71, 64
2, 135072, Note_off_c, 0, 68, 64
2, 135120, Note_on_c, 0, 66, 127
2, 135120, Note_on_c, 0, 75, 127
2, 135120, Note_on_c, 0, 71, 127
2, 135312, Note_off_c, 0, 71, 64
2, 135312, Note_off_c, 0, 75, 64
2, 135312, Note_off_c, 0, 66, 64
2, 135360, Note_on_c, 0, 64, 127
2, 135360, Note_on_c, 0, 71, 127
2, 135360, Note_on_c, 0, 73, 127
2, 135552, Note_off_c, 0, 73, 64
2, 135552, Note_off_c, 0, 71, 64
2, 135552, Note_off_c, 0, 64, 64
2, 135600, Note_on_c, 0, 63, 127
2, 135600, Note_on_c, 0, 71, 127
2, 135792, Note_off_c, 0, 71, 64
2, 135792, Note_off_c, 0, 63, 64
2, 135840, Note_on_c, 0, 59, 127
2, 135840, Note_on_c, 0, 69, 127
2, 135840, Note_on_c, 0, 71, 127
2, 136032, Note_off_c, 0, 71, 64
2, 136032, Note_off_c, 0, 69, 64
2, 136032, Note_off_c, 0, 59, 64
2, 136080, Note_on_c, 0, 64, 127
2, 136080, Note_on_c, 0, 68, 127
2, 136080, Note_on_c, 0, 71, 127
2, 136272, Note_off_c, 0, 71, 64
2, 136272, Note_off_c, 0, 68, 64
2, 136272, Note_off_c, 0, 64, 64
2, 136320, Note_on_c, 0, 57, 127
2, 136320, Note_on_c, 0, 66, 127
2, 136320, Note_on_c, 0, 69, 127
2, 136512, Note_off_c, 0, 69, 64
2, 136512, Note_off_c, 0, 66, 64
2, 136512, Note_off_c, 0, 57, 64
2, 136560, Note_on_c, 0, 59, 127
2, 136560, Note_on_c, 0, 68, 127
2, 136560, Note_on_c, 0, 64, 127
2, 136752, Note_off_c, 0, 64, 64
2, 136752, Note_off_c, 0, 68, 64
2, 136752, Note_off_c, 0, 59, 64
2, 136800, Note_on_c, 0, 47, 127
2, 136800, Note_on_c, 0, 63, 127
2, 136800, Note_on_c, 0, 66, 127
2, 136992, Note_off_c, 0, 66, 64
2, 136992, Note_off_c, 0, 63, 64
2, 136992, Note_off_c, 0, 47, 64
2, 137040, Note_on_c, 0, 52, 127
2, 137040, Note_on_c, 0, 64, 127
2, 137232, Note_off_c, 0, 52, 64
2, 137280, Note_on_c, 0, 47, 127
2, 137424, Note_off_c, 0, 64, 64
2, 137472, Note_off_c, 0, 47, 64
2, 137520, Note_on_c, 0, 40, 127
2, 137712, Note_off_c, 0, 40, 64
2, 137760, Note_on_c, 0, 71, 127
2, 137952, Note_off_c, 0, 71, 64
2, 138000, Note_on_c, 0, 81, 127
2, 138000, Note_on_c, 0, 71, 127
2, 138192, Note_off_c, 0, 71, 64
2, 138192, Note_off_c, 0, 81, 64
2, 138240, Note_on_c, 0, 71, 127
2, 138240, Note_on_c, 0, 71, 127
2, 138240, Note_on_c, 0, 80, 127
2, 138432, Note_off_c, 0, 80, 64
2, 138432, Note_off_c, 0, 71, 64
2, 138432, Note_off_c, 0, 71, 64
2, 138480, Note_on_c, 0, 69, 127
2, 138480, Note_on_c, 0, 78, 127
2, 138480, Note_on_c, 0, 71, 127
2, 138672, Note_off_c, 0, 71, 64
2, 138672, Note_off_c, 0, 78, 64
2, 138672, Note_off_c, 0, 69, 64
2, 138720, Note_on_c, 0, 68, 127
2, 138720, Note_on_c, 0, 76, 127
2, 138720, Note_on_c, 0, 71, 127
2, 138912, Note_off_c, 0, 71, 64
2, 138912, Note_off_c, 0, 76, 64
2, 138912, Note_off_c, 0, 68, 64
2, 138960, Note_on_c, 0, 66, 127
2, 138960, Note_on_c, 0, 71, 127
2, 138960, Note_on_c, 0, 75, 127
2, 139152, Note_off_c, 0, 75, 64
2, 139152, Note_off_c, 0, 71, 64
2, 139152, Note_off_c, 0, 66, 64
2, 139200, Note_on_c, 0, 64, 127
2, 139200, Note_on_c, 0, 73, 127
2, 139200, Note_on_c, 0, 71, 127
2, 139392, Note_off_c, 0, 71, 64
2, 139392, Note_off_c, 0, 73, 64
2, 139392, Note_off_c, 0, 64, 64
2, 139440, Note_on_c, 0, 63, 127
2, 139440, Note_on_c, 0, 71, 127
2, 139632, Note_off_c, 0, 71, 64
2, 139632, Note_off_c, 0, 63, 64
2, 139680, Note_on_c, 0, 59, 127
2, 139680, Note_on_c, 0, 69, 127
2, 139680, Note_on_c, 0, 71, 127
2, 139872, Note_off_c, 0, 71, 64
2, 139872, Note_off_c, 0, 69, 64
2, 139872, Note_off_c, 0, 59, 64
2, 139920, Note_on_c, 0, 64, 127
2, 139920, Note_on_c, 0, 68, 127
2, 139920, Note_on_c, 0, 71, 127
2, 140112, Note_off_c, 0, 71, 64
2, 140112, Note_off_c, 0, 68, 64
2, 140112, Note_off_c, 0, 64, 64
2, 140160, Note_on_c, 0, 57, 127
2, 140160, Note_on_c, 0, 71, 127
2, 140160, Note_on_c, 0, 66, 127
2, 140352, Note_off_c, 0, 66, 64
2, 140352, Note_off_c, 0, 71, 64
2, 140352, Note_off_c, 0, 57, 64
2, 140400, Note_on_c, 0, 56, 127
2, 140400, Note_on_c, 0, 71, 127
2, 140400, Note_on_c, 0, 64, 127
2, 140592, Note_off_c, 0, 64, 64
2, 140592, Note_off_c, 0, 71, 64
2, 140592, Note_off_c, 0, 56, 64
2, 140640, Note_on_c, 0, 54, 127
2, 140640, Note_on_c, 0, 63, 127
2, 140640, Note_on_c, 0, 71, 127
2, 140832, Note_off_c, 0, 71, 64
2, 140832, Note_off_c, 0, 63, 64
2, 140832, Note_off_c, 0, 54, 64
2, 140880, Note_on_c, 0, 56, 127
2, 140880, Note_on_c, 0, 71, 127
2, 140880, Note_on_c, 0, 64, 127
2, 141072, Note_off_c, 0, 64, 64
2, 141072, Note_off_c, 0, 71, 64
2, 141072, Note_off_c, 0, 56, 64
2, 141120, Note_on_c, 0, 57, 127
2, 141120, Note_on_c, 0, 63, 127
2, 141120, Note_on_c, 0, 71, 127
2, 141312, Note_off_c, 0, 71, 64
2, 141312, Note_off_c, 0, 63, 64
2, 141312, Note_off_c, 0, 57, 64
2, 141360, Note_on_c, 0, 56, 127
2, 141360, Note_on_c, 0, 64, 127
2, 141360, Note_on_c, 0, 71, 127
2, 141552, Note_off_c, 0, 71, 64
2, 141552, Note_off_c, 0, 64, 64
2, 141552, Note_off_c, 0, 56, 64
2, 141600, Note_on_c, 0, 52, 127
2, 141600, Note_on_c, 0, 71, 127
2, 141600, Note_on_c, 0, 68, 127
2, 141792, Note_off_c, 0, 68, 64
2, 141792, Note_off_c, 0, 71, 64
2, 141792, Note_off_c, 0, 52, 64
2, 141840, Note_on_c, 0, 81, 127
2, 141840, Note_on_c, 0, 47, 127
2, 141840, Note_on_c, 0, 71, 127
2, 142032, Note_off_c, 0, 71, 64
2, 142032, Note_off_c, 0, 47, 64
2, 142032, Note_off_c, 0, 81, 64
2, 142080, Note_on_c, 0, 80, 127
2, 142080, Note_on_c, 0, 71, 127
2, 142272, Note_off_c, 0, 71, 64
2, 142272, Note_off_c, 0, 80, 64
2, 142320, Note_on_c, 0, 69, 127
2, 142320, Note_on_c, 0, 78, 127
2, 142320, Note_on_c, 0, 71, 127
2, 142512, Note_off_c, 0, 71, 64
2, 142512, Note_off_c, 0, 78, 64
2, 142512, Note_off_c, 0, 69, 64
2, 142560, Note_on_c, 0, 68, 127
2, 142560, Note_on_c, 0, 71, 127
2, 142560, Note_on_c, 0, 76, 127
2, 142752, Note_off_c, 0, 76, 64
2, 142752, Note_off_c, 0, 71, 64
2, 142752, Note_off_c, 0, 68, 64
2, 142800, Note_on_c, 0, 66, 127
2, 142800, Note_on_c, 0, 75, 127
2, 142800, Note_on_c, 0, 71, 127
2, 142992, Note_off_c, 0, 71, 64
2, 142992, Note_off_c, 0, 75, 64
2, 142992, Note_off_c, 0, 66, 64
2, 143040, Note_on_c, 0, 64, 127
2, 143040, Note_on_c, 0, 71, 127
2, 143040, Note_on_c, 0, 73, 127
2, 143232, Note_off_c, 0, 73, 64
2, 143232, Note_off_c, 0, 71, 64
2, 143232, Note_off_c, 0, 64, 64
2, 143280, Note_on_c, 0, 63, 127
2, 143280, Note_on_c, 0, 71, 127
2, 143472, Note_off_c, 0, 71, 64
2, 143472, Note_off_c, 0, 63, 64
2, 143520, Note_on_c, 0, 59, 127
2, 143520, Note_on_c, 0, 69, 127
2, 143520, Note_on_c, 0, 71, 127
2, 143712, Note_off_c, 0, 71, 64
2, 143712, Note_off_c, 0, 69, 64
2, 143712, Note_off_c, 0, 59, 64
2, 143760, Note_on_c, 0, 64, 127
2, 143760, Note_on_c, 0, 68, 127
2, 143760, Note_on_c, 0, 71, 127
2, 143952, Note_off_c, 0, 71, 64
2, 143952, Note_off_c, 0, 68, 64
2, 143952, Note_off_c, 0, 64, 64
2, 144000, Note_on_c, 0, 57, 127
2, 144000, Note_on_c, 0, 66, 127
2, 144000, Note_on_c, 0, 69, 127
2, 144192, Note_off_c, 0, 69, 64
2, 144192, Note_off_c, 0, 66, 64
2, 144192, Note_off_c, 0, 57, 64
2, 144240, Note_on_c, 0, 59, 127
2, 144240, Note_on_c, 0, 68, 127
2, 144240, Note_on_c, 0, 64, 127
2, 144432, Note_off_c, 0, 64, 64
2, 144432, Note_off_c, 0, 68, 64
2, 144432, Note_off_c, 0, 59, 64
2, 144480, Note_on_c, 0, 47, 127
2, 144480, Note_on_c, 0, 63, 127
2, 144480, Note_on_c, 0, 66, 127
2, 144672, Note_off_c, 0, 66, 64
2, 144672, Note_off_c, 0, 63, 64
2, 144672, Note_off_c, 0, 47, 64
2, 144720, Note_on_c, 0, 52, 127
2, 144720, Note_on_c, 0, 64, 127
2, 144912, Note_off_c, 0, 52, 64
2, 144960, Note_on_c, 0, 47, 127
2, 145104, Note_off_c, 0, 64, 64
2, 145152, Note_off_c, 0, 47, 64
2, 145200, Note_on_c, 0, 40, 127
2, 145392, Note_off_c, 0, 40, 64
2, 145440, Note_on_c, 0, 71, 127
2, 145632, Note_off_c, 0, 71, 64
2, 145680, Note_on_c, 0, 71, 127
2, 145680, Note_on_c, 0, 80, 127
2, 145680, Note_on_c, 0, 76, 127
2, 145680, Note_on_c, 0, 83, 127
2, 145920, Note_on_c, 0, 40, 127
2, 146064, Note_off_c, 0, 83, 64
2, 146064, Note_off_c, 0, 76, 64
2, 146064, Note_off_c, 0, 80, 64
2, 146064, Note_off_c, 0, 71, 64
2, 146112, Note_off_c, 0, 40, 64
2, 146160, Note_on_c, 0, 44, 127
2, 146160, Note_on_c, 0, 80, 127
2, 146160, Note_on_c, 0, 68, 127
2, 146160, Note_on_c, 0, 71, 127
2, 146160, Note_on_c, 0, 76, 127
2, 146352, Note_off_c, 0, 44, 64
2, 146400, Note_on_c, 0, 47, 127
2, 146544, Note_off_c, 0, 80, 64
2, 146544, Note_off_c, 0, 68, 64
2, 146544, Note_off_c, 0, 71, 64
2, 146544, Note_off_c, 0, 76, 64
2, 146592, Note_off_c, 0, 47, 64
2, 146640, Note_on_c, 0, 52, 127
2, 146640, Note_on_c, 0, 64, 127
2, 146640, Note_on_c, 0, 68, 127
2, 146640, Note_on_c, 0, 71, 127
2, 146640, Note_on_c, 0, 76, 127
2, 146832, Note_off_c, 0, 52, 64
2, 146880, Note_on_c, 0, 56, 127
2, 147024, Note_off_c, 0, 64, 64
2, 147024, Note_off_c, 0, 68, 64
2, 147024, Note_off_c, 0, 71, 64
2, 147024, Note_off_c, 0, 76, 64
2, 147072, Note_off_c, 0, 56, 64
2, 147120, Note_on_c, 0, 59, 127
2, 147312, Note_off_c, 0, 59, 64
2, 147360, Note_on_c, 0, 62, 127
2, 147360, Note_on_c, 0, 64, 127
2, 147360, Note_on_c, 0, 68, 127
2, 147552, Note_off_c, 0, 68, 64
2, 147552, Note_off_c, 0, 64, 64
2, 147552, Note_off_c, 0, 62, 64
2, 147600, Note_on_c, 0, 60, 127
2, 147600, Note_on_c, 0, 64, 127
2, 147600, Note_on_c, 0, 69, 127
2, 147792, Note_off_c, 0, 69, 64
2, 147792, Note_off_c, 0, 64, 64
2, 147792, Note_off_c, 0, 60, 64
2, 147840, Note_on_c, 0, 62, 127
2, 147840, Note_on_c, 0, 68, 127
2, 147840, Note_on_c, 0, 64, 127
2, 148032, Note_off_c, 0, 64, 64
2, 148032, Note_off_c, 0, 68, 64
2, 148032, Note_off_c, 0, 62, 64
2, 148080, Note_on_c, 0, 60, 127
2, 148080, Note_on_c, 0, 64, 127
2, 148080, Note_on_c, 0, 69, 127
2, 148272, Note_off_c, 0, 69, 64
2, 148272, Note_off_c, 0, 64, 64
2, 148272, Note_off_c, 0, 60, 64
2, 148320, Note_on_c, 0, 56, 127
2, 148320, Note_on_c, 0, 64, 127
2, 148320, Note_on_c, 0, 71, 127
2, 148512, Note_off_c, 0, 71, 64
2, 148512, Note_off_c, 0, 64, 64
2, 148512, Note_off_c, 0, 56, 64
2, 148560, Note_on_c, 0, 57, 127
2, 148560, Note_on_c, 0, 64, 127
2, 148560, Note_on_c, 0, 72, 127
2, 148752, Note_off_c, 0, 72, 64
2, 148752, Note_off_c, 0, 64, 64
2, 148752, Note_off_c, 0, 57, 64
2, 148800, Note_on_c, 0, 56, 127
2, 148800, Note_on_c, 0, 64, 127
2, 148800, Note_on_c, 0, 71, 127
2, 148992, Note_off_c, 0, 71, 64
2, 148992, Note_off_c, 0, 64, 64
2, 148992, Note_off_c, 0, 56, 64
2, 149040, Note_on_c, 0, 57, 127
2, 149040, Note_on_c, 0, 64, 127
2, 149040, Note_on_c, 0, 72, 127
2, 149232, Note_off_c, 0, 72, 64
2, 149232, Note_off_c, 0, 64, 64
2, 149232, Note_off_c, 0, 57, 64
2, 149280, Note_on_c, 0, 60, 127
2, 149280, Note_on_c, 0, 66, 127
2, 149280, Note_on_c, 0, 62, 127
2, 149472, Note_off_c, 0, 62, 64
2, 149472, Note_off_c, 0, 66, 64
2, 149472, Note_off_c, 0, 60, 64
2, 149520, Note_on_c, 0, 59, 127
2, 149520, Note_on_c, 0, 67, 127
2, 149520, Note_on_c, 0, 62, 127
2, 149712, Note_off_c, 0, 62, 64
2, 149712, Note_off_c, 0, 67, 64
2, 149712, Note_off_c, 0, 59, 64
2, 149760, Note_on_c, 0, 60, 127
2, 149760, Note_on_c, 0, 66, 127
2, 149760, Note_on_c, 0, 62, 127
2, 149952, Note_off_c, 0, 62, 64
2, 149952, Note_off_c, 0, 66, 64
2, 149952, Note_off_c, 0, 60, 64
2, 150000, Note_on_c, 0, 59, 127
2, 150000, Note_on_c, 0, 62, 127
2, 150000, Note_on_c, 0, 67, 127
2, 150192, Note_off_c, 0, 67, 64
2, 150192, Note_off_c, 0, 62, 64
2, 150192, Note_off_c, 0, 59, 64
2, 150240, Note_on_c, 0, 54, 127
2, 150240, Note_on_c, 0, 69, 127
2, 150240, Note_on_c, 0, 62, 127
2, 150432, Note_off_c, 0, 62, 64
2, 150432, Note_off_c, 0, 69, 64
2, 150432, Note_off_c, 0, 54, 64
2, 150480, Note_on_c, 0, 71, 127
2, 150480, Note_on_c, 0, 43, 127
2, 150576, Note_off_c, 0, 43, 64
2, 150600, Note_on_c, 0, 59, 127
2, 150696, Note_off_c, 0, 59, 64
2, 150720, Note_on_c, 0, 50, 127
2, 150816, Note_off_c, 0, 50, 64
2, 150840, Note_on_c, 0, 59, 127
2, 150864, Note_off_c, 0, 71, 64
2, 150936, Note_off_c, 0, 59, 64
2, 150960, Note_on_c, 0, 55, 127
2, 150960, Note_on_c, 0, 74, 127
2, 151056, Note_off_c, 0, 55, 64
2, 151080, Note_on_c, 0, 59, 127
2, 151152, Note_off_c, 0, 74, 64
2, 151176, Note_off_c, 0, 59, 64
2, 151200, Note_on_c, 0, 50, 127
2, 151200, Note_on_c, 0, 74, 127
2, 151296, Note_off_c, 0, 50, 64
2, 151320, Note_on_c, 0, 59, 127
2, 151392, Note_off_c, 0, 74, 64
2, 151416, Note_off_c, 0, 59, 64
2, 151440, Note_on_c, 0, 79, 127
2, 151440, Note_on_c, 0, 43, 127
2, 151536, Note_off_c, 0, 43, 64
2, 151560, Note_on_c, 0, 59, 127
2, 151632, Note_off_c, 0, 79, 64
2, 151656, Note_off_c, 0, 59, 64
2, 151680, Note_on_c, 0, 79, 127
2, 151680, Note_on_c, 0, 50, 127
2, 151776, Note_off_c, 0, 50, 64
2, 151800, Note_on_c, 0, 59, 127
2, 151872, Note_off_c, 0, 79, 64
2, 151896, Note_off_c, 0, 59, 64
2, 151920, Note_on_c, 0, 55, 127
2, 151920, Note_on_c, 0, 83, 127
2, 152016, Note_off_c, 0, 55, 64
2, 152040, Note_on_c, 0, 59, 127
2, 152136, Note_off_c, 0, 59, 64
2, 152160, Note_on_c, 0, 50, 127
2, 152256, Note_off_c, 0, 50, 64
2, 152280, Note_on_c, 0, 59, 127
2, 152304, Note_off_c, 0, 83, 64
2, 152376, Note_off_c, 0, 59, 64
2, 152400, Note_on_c, 0, 86, 127
2, 152400, Note_on_c, 0, 43, 127
2, 152496, Note_off_c, 0, 43, 64
2, 152496, Note_off_c, 0, 86, 64
2, 152520, Note_on_c, 0, 84, 127
2, 152520, Note_on_c, 0, 60, 127
2, 152616, Note_off_c, 0, 60, 64
2, 152616, Note_off_c, 0, 84, 64
2, 152640, Note_on_c, 0, 86, 127
2, 152640, Note_on_c, 0, 50, 127
2, 152736, Note_off_c, 0, 50, 64
2, 152736, Note_off_c, 0, 86, 64
2, 152760, Note_on_c, 0, 84, 127
2, 152760, Note_on_c, 0, 60, 127
2, 152856, Note_off_c, 0, 60, 64
2, 152856, Note_off_c, 0, 84, 64
2, 152880, Note_on_c, 0, 54, 127
2, 152880, Note_on_c, 0, 81, 127
2, 152976, Note_off_c, 0, 54, 64
2, 153000, Note_on_c, 0, 60, 127
2, 153072, Note_off_c, 0, 81, 64
2, 153096, Note_off_c, 0, 60, 64
2, 153120, Note_on_c, 0, 50, 127
2, 153216, Note_off_c, 0, 50, 64
2, 153240, Note_on_c, 0, 60, 127
2, 153336, Note_off_c, 0, 60, 64
2, 153360, Note_on_c, 0, 86, 127
2, 153360, Note_on_c, 0, 43, 127
2, 153456, Note_off_c, 0, 43, 64
2, 153456, Note_off_c, 0, 86, 64
2, 153480, Note_on_c, 0, 84, 127
2, 153480, Note_on_c, 0, 60, 127
2, 153576, Note_off_c, 0, 60, 64
2, 153576, Note_off_c, 0, 84, 64
2, 153600, Note_on_c, 0, 86, 127
2, 153600, Note_on_c, 0, 50, 127
2, 153696, Note_off_c, 0, 50, 64
2, 153696, Note_off_c, 0, 86, 64
2, 153720, Note_on_c, 0, 84, 127
2, 153720, Note_on_c, 0, 60, 127
2, 153816, Note_off_c, 0, 60, 64
2, 153816, Note_off_c, 0, 84, 64
2, 153840, Note_on_c, 0, 54, 127
2, 153840, Note_on_c, 0, 81, 127
2, 153936, Note_off_c, 0, 54, 64
2, 153960, Note_on_c, 0, 60, 127
2, 154032, Note_off_c, 0, 81, 64
2, 154056, Note_off_c, 0, 60, 64
2, 154080, Note_on_c, 0, 50, 127
2, 154176, Note_off_c, 0, 50, 64
2, 154200, Note_on_c, 0, 60, 127
2, 154296, Note_off_c, 0, 60, 64
2, 154320, Note_on_c, 0, 71, 127
2, 154320, Note_on_c, 0, 43, 127
2, 154416, Note_off_c, 0, 43, 64
2, 154440, Note_on_c, 0, 59, 127
2, 154536, Note_off_c, 0, 59, 64
2, 154560, Note_on_c, 0, 50, 127
2, 154656, Note_off_c, 0, 50, 64
2, 154680, Note_on_c, 0, 59, 127
2, 154704, Note_off_c, 0, 71, 64
2, 154776, Note_off_c, 0, 59, 64
2, 154800, Note_on_c, 0, 55, 127
2, 154800, Note_on_c, 0, 74, 127
2, 154896, Note_off_c, 0, 55, 64
2, 154920, Note_on_c, 0, 59, 127
2, 154992, Note_off_c, 0, 74, 64
2, 155016, Note_off_c, 0, 59, 64
2, 155040, Note_on_c, 0, 50, 127
2, 155040, Note_on_c, 0, 74, 127
2, 155136, Note_off_c, 0, 50, 64
2, 155160, Note_on_c, 0, 59, 127
2, 155232, Note_off_c, 0, 74, 64
2, 155256, Note_off_c, 0, 59, 64
2, 155280, Note_on_c, 0, 79, 127
2, 155280, Note_on_c, 0, 43, 127
2, 155376, Note_off_c, 0, 43, 64
2, 155400, Note_on_c, 0, 59, 127
2, 155472, Note_off_c, 0, 79, 64
2, 155496, Note_off_c, 0, 59, 64
2, 155520, Note_on_c, 0, 79, 127
2, 155520, Note_on_c, 0, 50, 127
2, 155616, Note_off_c, 0, 50, 64
2, 155640, Note_on_c, 0, 59, 127
2, 155712, Note_off_c, 0, 79, 64
2, 155736, Note_off_c, 0, 59, 64
2, 155760, Note_on_c, 0, 55, 127
2, 155760, Note_on_c, 0, 83, 127
2, 155856, Note_off_c, 0, 55, 64
2, 155880, Note_on_c, 0, 59, 127
2, 155976, Note_off_c, 0, 59, 64
2, 156000, Note_on_c, 0, 50, 127
2, 156096, Note_off_c, 0, 50, 64
2, 156120, Note_on_c, 0, 59, 127
2, 156144, Note_off_c, 0, 83, 64
2, 156216, Note_off_c, 0, 59, 64
2, 156240, Note_on_c, 0, 86, 127
2, 156240, Note_on_c, 0, 43, 127
2, 156336, Note_off_c, 0, 43, 64
2, 156336, Note_off_c, 0, 86, 64
2, 156360, Note_on_c, 0, 84, 127
2, 156360, Note_on_c, 0, 60, 127
2, 156456, Note_off_c, 0, 60, 64
2, 156456, Note_off_c, 0, 84, 64
2, 156480, Note_on_c, 0, 50, 127
2, 156480, Note_on_c, 0, 86, 127
2, 156576, Note_off_c, 0, 86, 64
2, 156576, Note_off_c, 0, 50, 64
2, 156600, Note_on_c, 0, 84, 127
2, 156600, Note_on_c, 0, 60, 127
2, 156696, Note_off_c, 0, 60, 64
2, 156696, Note_off_c, 0, 84, 64
2, 156720, Note_on_c, 0, 54, 127
2, 156720, Note_on_c, 0, 81, 127
2, 156816, Note_off_c, 0, 54, 64
2, 156840, Note_on_c, 0, 60, 127
2, 156912, Note_off_c, 0, 81, 64
2, 156936, Note_off_c, 0, 60, 64
2, 156960, Note_on_c, 0, 50, 127
2, 156960, Note_on_c, 0, 81, 127
2, 157056, Note_off_c, 0, 81, 64
2, 157056, Note_off_c, 0, 50, 64
2, 157080, Note_on_c, 0, 60, 127
2, 157080, Note_on_c, 0, 83, 127
2, 157176, Note_off_c, 0, 83, 64
2, 157176, Note_off_c, 0, 60, 64
2, 157200, Note_on_c, 0, 43, 127
2, 157200, Note_on_c, 0, 79, 127
2, 157296, Note_off_c, 0, 43, 64
2, 157320, Note_on_c, 0, 59, 127
2, 157416, Note_off_c, 0, 59, 64
2, 157440, Note_on_c, 0, 50, 127
2, 157536, Note_off_c, 0, 50, 64
2, 157560, Note_on_c, 0, 59, 127
2, 157584, Note_off_c, 0, 79, 64
2, 157656, Note_off_c, 0, 59, 64
2, 157680, Note_on_c, 0, 43, 127
2, 157872, Note_off_c, 0, 43, 64
2, 158160, Note_on_c, 0, 83, 127
2, 158160, Note_on_c, 0, 52, 127
2, 158256, Note_off_c, 0, 52, 64
2, 158256, Note_off_c, 0, 83, 64
2, 158280, Note_on_c, 0, 81, 127
2, 158280, Note_on_c, 0, 64, 127
2, 158376, Note_off_c, 0, 64, 64
2, 158376, Note_off_c, 0, 81, 64
2, 158400, Note_on_c, 0, 59, 127
2, 158400, Note_on_c, 0, 79, 127
2, 158496, Note_off_c, 0, 79, 64
2, 158496, Note_off_c, 0, 59, 64
2, 158520, Note_on_c, 0, 78, 127
2, 158520, Note_on_c, 0, 64, 127
2, 158616, Note_off_c, 0, 64, 64
2, 158616, Note_off_c, 0, 78, 64
2, 158640, Note_on_c, 0, 54, 127
2, 158640, Note_on_c, 0, 76, 127
2, 158736, Note_off_c, 0, 76, 64
2, 158736, Note_off_c, 0, 54, 64
2, 158760, Note_on_c, 0, 64, 127
2, 158760, Note_on_c, 0, 78, 127
2, 158856, Note_off_c, 0, 78, 64
2, 158856, Note_off_c, 0, 64, 64
2, 158880, Note_on_c, 0, 59, 127
2, 158880, Note_on_c, 0, 79, 127
2, 158976, Note_off_c, 0, 79, 64
2, 158976, Note_off_c, 0, 59, 64
2, 159000, Note_on_c, 0, 64, 127
2, 159000, Note_on_c, 0, 81, 127
2, 159096, Note_off_c, 0, 81, 64
2, 159096, Note_off_c, 0, 64, 64
2, 159120, Note_on_c, 0, 83, 127
2, 159120, Note_on_c, 0, 52, 127
2, 159216, Note_off_c, 0, 52, 64
2, 159240, Note_on_c, 0, 64, 127
2, 159312, Note_off_c, 0, 83, 64
2, 159336, Note_off_c, 0, 64, 64
2, 159360, Note_on_c, 0, 83, 127
2, 159360, Note_on_c, 0, 59, 127
2, 159456, Note_off_c, 0, 59, 64
2, 159480, Note_on_c, 0, 64, 127
2, 159552, Note_off_c, 0, 83, 64
2, 159576, Note_off_c, 0, 64, 64
2, 159600, Note_on_c, 0, 47, 127
2, 159600, Note_on_c, 0, 88, 127
2, 159696, Note_off_c, 0, 47, 64
2, 159720, Note_on_c, 0, 59, 127
2, 159816, Note_off_c, 0, 59, 64
2, 159840, Note_on_c, 0, 57, 127
2, 159936, Note_off_c, 0, 57, 64
2, 159960, Note_on_c, 0, 59, 127
2, 159984, Note_off_c, 0, 88, 64
2, 160056, Note_off_c, 0, 59, 64
2, 160080, Note_on_c, 0, 88, 127
2, 160080, Note_on_c, 0, 51, 127
2, 160176, Note_off_c, 0, 51, 64
2, 160176, Note_off_c, 0, 88, 64
2, 160200, Note_on_c, 0, 87, 127
2, 160200, Note_on_c, 0, 59, 127
2, 160296, Note_off_c, 0, 59, 64
2, 160296, Note_off_c, 0, 87, 64
2, 160320, Note_on_c, 0, 88, 127
2, 160320, Note_on_c, 0, 57, 127
2, 160416, Note_off_c, 0, 57, 64
2, 160416, Note_off_c, 0, 88, 64
2, 160440, Note_on_c, 0, 87, 127
2, 160440, Note_on_c, 0, 59, 127
2, 160536, Note_off_c, 0, 59, 64
2, 160536, Note_off_c, 0, 87, 64
2, 160560, Note_on_c, 0, 54, 127
2, 160560, Note_on_c, 0, 83, 127
2, 160656, Note_off_c, 0, 54, 64
2, 160680, Note_on_c, 0, 59, 127
2, 160752, Note_off_c, 0, 83, 64
2, 160776, Note_off_c, 0, 59, 64
2, 160800, Note_on_c, 0, 57, 127
2, 160896, Note_off_c, 0, 57, 64
2, 160920, Note_on_c, 0, 59, 127
2, 161016, Note_off_c, 0, 59, 64
2, 161040, Note_on_c, 0, 88, 127
2, 161040, Note_on_c, 0, 51, 127
2, 161136, Note_off_c, 0, 51, 64
2, 161136, Note_off_c, 0, 88, 64
2, 161160, Note_on_c, 0, 87, 127
2, 161160, Note_on_c, 0, 59, 127
2, 161256, Note_off_c, 0, 59, 64
2, 161256, Note_off_c, 0, 87, 64
2, 161280, Note_on_c, 0, 88, 127
2, 161280, Note_on_c, 0, 57, 127
2, 161376, Note_off_c, 0, 57, 64
2, 161376, Note_off_c, 0, 88, 64
2, 161400, Note_on_c, 0, 87, 127
2, 161400, Note_on_c, 0, 59, 127
2, 161496, Note_off_c, 0, 59, 64
2, 161496, Note_off_c, 0, 87, 64
2, 161520, Note_on_c, 0, 52, 127
2, 161520, Note_on_c, 0, 83, 127
2, 161616, Note_off_c, 0, 52, 64
2, 161640, Note_on_c, 0, 64, 127
2, 161712, Note_off_c, 0, 83, 64
2, 161736, Note_off_c, 0, 64, 64
2, 161760, Note_on_c, 0, 59, 127
2, 161856, Note_off_c, 0, 59, 64
2, 161880, Note_on_c, 0, 64, 127
2, 161976, Note_off_c, 0, 64, 64
2, 162000, Note_on_c, 0, 83, 127
2, 162000, Note_on_c, 0, 52, 127
2, 162096, Note_off_c, 0, 52, 64
2, 162096, Note_off_c, 0, 83, 64
2, 162120, Note_on_c, 0, 81, 127
2, 162120, Note_on_c, 0, 64, 127
2, 162216, Note_off_c, 0, 64, 64
2, 162216, Note_off_c, 0, 81, 64
2, 162240, Note_on_c, 0, 59, 127
2, 162240, Note_on_c, 0, 79, 127
2, 162336, Note_off_c, 0, 79, 64
2, 162336, Note_off_c, 0, 59, 64
2, 162360, Note_on_c, 0, 78, 127
2, 162360, Note_on_c, 0, 64, 127
2, 162456, Note_off_c, 0, 64, 64
2, 162456, Note_off_c, 0, 78, 64
2, 162480, Note_on_c, 0, 54, 127
2, 162480, Note_on_c, 0, 76, 127
2, 162576, Note_off_c, 0, 76, 64
2, 162576, Note_off_c, 0, 54, 64
2, 162600, Note_on_c, 0, 64, 127
2, 162600, Note_on_c, 0, 78, 127
2, 162696, Note_off_c, 0, 78, 64
2, 162696, Note_off_c, 0, 64, 64
2, 162720, Note_on_c, 0, 59, 127
2, 162720, Note_on_c, 0, 79, 127
2, 162816, Note_off_c, 0, 79, 64
2, 162816, Note_off_c, 0, 59, 64
2, 162840, Note_on_c, 0, 64, 127
2, 162840, Note_on_c, 0, 81, 127
2, 162936, Note_off_c, 0, 81, 64
2, 162936, Note_off_c, 0, 64, 64
2, 162960, Note_on_c, 0, 83, 127
2, 162960, Note_on_c, 0, 55, 127
2, 163056, Note_off_c, 0, 55, 64
2, 163080, Note_on_c, 0, 64, 127
2, 163152, Note_off_c, 0, 83, 64
2, 163176, Note_off_c, 0, 64, 64
2, 163200, Note_on_c, 0, 83, 127
2, 163200, Note_on_c, 0, 59, 127
2, 163296, Note_off_c, 0, 59, 64
2, 163320, Note_on_c, 0, 64, 127
2, 163392, Note_off_c, 0, 83, 64
2, 163416, Note_off_c, 0, 64, 64
2, 163440, Note_on_c, 0, 52, 127
2, 163440, Note_on_c, 0, 88, 127
2, 163536, Note_off_c, 0, 52, 64
2, 163560, Note_on_c, 0, 64, 127
2, 163656, Note_off_c, 0, 64, 64
2, 163680, Note_on_c, 0, 59, 127
2, 163776, Note_off_c, 0, 59, 64
2, 163800, Note_on_c, 0, 64, 127
2, 163824, Note_off_c, 0, 88, 64
2, 163896, Note_off_c, 0, 64, 64
2, 163920, Note_on_c, 0, 85, 127
2, 163920, Note_on_c, 0, 45, 127
2, 163968, Note_off_c, 0, 85, 64
2, 163980, Note_on_c, 0, 86, 127
2, 164016, Note_off_c, 0, 45, 64
2, 164028, Note_off_c, 0, 86, 64
2, 164040, Note_on_c, 0, 85, 127
2, 164040, Note_on_c, 0, 57, 127
2, 164088, Note_off_c, 0, 85, 64
2, 164100, Note_on_c, 0, 86, 127
2, 164136, Note_off_c, 0, 57, 64
2, 164148, Note_off_c, 0, 86, 64
2, 164160, Note_on_c, 0, 52, 127
2, 164160, Note_on_c, 0, 85, 127
2, 164208, Note_off_c, 0, 85, 64
2, 164220, Note_on_c, 0, 86, 127
2, 164256, Note_off_c, 0, 52, 64
2, 164268, Note_off_c, 0, 86, 64
2, 164280, Note_on_c, 0, 85, 127
2, 164280, Note_on_c, 0, 57, 127
2, 164328, Note_off_c, 0, 85, 64
2, 164340, Note_on_c, 0, 86, 127
2, 164376, Note_off_c, 0, 57, 64
2, 164388, Note_off_c, 0, 86, 64
2, 164400, Note_on_c, 0, 55, 127
2, 164400, Note_on_c, 0, 85, 127
2, 164448, Note_off_c, 0, 85, 64
2, 164460, Note_on_c, 0, 86, 127
2, 164496, Note_off_c, 0, 55, 64
2, 164508, Note_off_c, 0, 86, 64
2, 164520, Note_on_c, 0, 57, 127
2, 164520, Note_on_c, 0, 85, 127
2, 164568, Note_off_c, 0, 85, 64
2, 164580, Note_on_c, 0, 86, 127
2, 164616, Note_off_c, 0, 57, 64
2, 164628, Note_off_c, 0, 86, 64
2, 164640, Note_on_c, 0, 52, 127
2, 164640, Note_on_c, 0, 83, 127
2, 164736, Note_off_c, 0, 83, 64
2, 164736, Note_off_c, 0, 52, 64
2, 164760, Note_on_c, 0, 57, 127
2, 164760, Note_on_c, 0, 85, 127
2, 164856, Note_off_c, 0, 85, 64
2, 164856, Note_off_c, 0, 57, 64
2, 164880, Note_on_c, 0, 86, 127
2, 164880, Note_on_c, 0, 50, 127
2, 164976, Note_off_c, 0, 50, 64
2, 165000, Note_on_c, 0, 52, 127
2, 165096, Note_off_c, 0, 52, 64
2, 165120, Note_on_c, 0, 54, 127
2, 165216, Note_off_c, 0, 54, 64
2, 165240, Note_on_c, 0, 55, 127
2, 165264, Note_off_c, 0, 86, 64
2, 165336, Note_off_c, 0, 55, 64
2, 165360, Note_on_c, 0, 57, 127
2, 165360, Note_on_c, 0, 74, 127
2, 165456, Note_off_c, 0, 57, 64
2, 165480, Note_on_c, 0, 59, 127
2, 165576, Note_off_c, 0, 59, 64
2, 165600, Note_on_c, 0, 60, 127
2, 165696, Note_off_c, 0, 60, 64
2, 165720, Note_on_c, 0, 57, 127
2, 165744, Note_off_c, 0, 74, 64
2, 165816, Note_off_c, 0, 57, 64
2, 165840, Note_on_c, 0, 71, 127
2, 165840, Note_on_c, 0, 43, 127
2, 165936, Note_off_c, 0, 43, 64
2, 165960, Note_on_c, 0, 59, 127
2, 166056, Note_off_c, 0, 59, 64
2, 166080, Note_on_c, 0, 50, 127
2, 166176, Note_off_c, 0, 50, 64
2, 166200, Note_on_c, 0, 59, 127
2, 166224, Note_off_c, 0, 71, 64
2, 166296, Note_off_c, 0, 59, 64
2, 166320, Note_on_c, 0, 55, 127
2, 166320, Note_on_c, 0, 74, 127
2, 166416, Note_off_c, 0, 55, 64
2, 166440, Note_on_c, 0, 59, 127
2, 166512, Note_off_c, 0, 74, 64
2, 166536, Note_off_c, 0, 59, 64
2, 166560, Note_on_c, 0, 50, 127
2, 166560, Note_on_c, 0, 74, 127
2, 166656, Note_off_c, 0, 50, 64
2, 166680, Note_on_c, 0, 59, 127
2, 166752, Note_off_c, 0, 74, 64
2, 166776, Note_off_c, 0, 59, 64
2, 166800, Note_on_c, 0, 79, 127
2, 166800, Note_on_c, 0, 43, 127
2, 166896, Note_off_c, 0, 43, 64
2, 166920, Note_on_c, 0, 59, 127
2, 166992, Note_off_c, 0, 79, 64
2, 167016, Note_off_c, 0, 59, 64
2, 167040, Note_on_c, 0, 79, 127
2, 167040, Note_on_c, 0, 50, 127
2, 167136, Note_off_c, 0, 50, 64
2, 167160, Note_on_c, 0, 59, 127
2, 167232, Note_off_c, 0, 79, 64
2, 167256, Note_off_c, 0, 59, 64
2, 167280, Note_on_c, 0, 55, 127
2, 167280, Note_on_c, 0, 83, 127
2, 167376, Note_off_c, 0, 55, 64
2, 167400, Note_on_c, 0, 59, 127
2, 167496, Note_off_c, 0, 59, 64
2, 167520, Note_on_c, 0, 50, 127
2, 167616, Note_off_c, 0, 50, 64
2, 167640, Note_on_c, 0, 59, 127
2, 167664, Note_off_c, 0, 83, 64
2, 167736, Note_off_c, 0, 59, 64
2, 167760, Note_on_c, 0, 86, 127
2, 167760, Note_on_c, 0, 43, 127
2, 167856, Note_off_c, 0, 43, 64
2, 167856, Note_off_c, 0, 86, 64
2, 167880, Note_on_c, 0, 84, 127
2, 167880, Note_on_c, 0, 60, 127
2, 167976, Note_off_c, 0, 60, 64
2, 167976, Note_off_c, 0, 84, 64
2, 168000, Note_on_c, 0, 86, 127
2, 168000, Note_on_c, 0, 50, 127
2, 168096, Note_off_c, 0, 50, 64
2, 168096, Note_off_c, 0, 86, 64
2, 168120, Note_on_c, 0, 84, 127
2, 168120, Note_on_c, 0, 60, 127
2, 168216, Note_off_c, 0, 60, 64
2, 168216, Note_off_c, 0, 84, 64
2, 168240, Note_on_c, 0, 54, 127
2, 168240, Note_on_c, 0, 81, 127
2, 168336, Note_off_c, 0, 54, 64
2, 168360, Note_on_c, 0, 60, 127
2, 168432, Note_off_c, 0, 81, 64
2, 168456, Note_off_c, 0, 60, 64
2, 168480, Note_on_c, 0, 50, 127
2, 168576, Note_off_c, 0, 50, 64
2, 168600, Note_on_c, 0, 60, 127
2, 168696, Note_off_c, 0, 60, 64
2, 168720, Note_on_c, 0, 86, 127
2, 168720, Note_on_c, 0, 43, 127
2, 168816, Note_off_c, 0, 43, 64
2, 168816, Note_off_c, 0, 86, 64
2, 168840, Note_on_c, 0, 84, 127
2, 168840, Note_on_c, 0, 60, 127
2, 168936, Note_off_c, 0, 60, 64
2, 168936, Note_off_c, 0, 84, 64
2, 168960, Note_on_c, 0, 86, 127
2, 168960, Note_on_c, 0, 50, 127
2, 169056, Note_off_c, 0, 50, 64
2, 169056, Note_off_c, 0, 86, 64
2, 169080, Note_on_c, 0, 84, 127
2, 169080, Note_on_c, 0, 60, 127
2, 169176, Note_off_c, 0, 60, 64
2, 169176, Note_off_c, 0, 84, 64
2, 169200, Note_on_c, 0, 54, 127
2, 169200, Note_on_c, 0, 81, 127
2, 169296, Note_off_c, 0, 54, 64
2, 169320, Note_on_c, 0, 60, 127
2, 169392, Note_off_c, 0, 81, 64
2, 169416, Note_off_c, 0, 60, 64
2, 169440, Note_on_c, 0, 50, 127
2, 169536, Note_off_c, 0, 50, 64
2, 169560, Note_on_c, 0, 60, 127
2, 169656, Note_off_c, 0, 60, 64
2, 169680, Note_on_c, 0, 71, 127
2, 169680, Note_on_c, 0, 43, 127
2, 169776, Note_off_c, 0, 43, 64
2, 169800, Note_on_c, 0, 59, 127
2, 169896, Note_off_c, 0, 59, 64
2, 169920, Note_on_c, 0, 50, 127
2, 170016, Note_off_c, 0, 50, 64
2, 170040, Note_on_c, 0, 59, 127
2, 170064, Note_off_c, 0, 71, 64
2, 170136, Note_off_c, 0, 59, 64
2, 170160, Note_on_c, 0, 55, 127
2, 170160, Note_on_c, 0, 74, 127
2, 170256, Note_off_c, 0, 55, 64
2, 170280, Note_on_c, 0, 59, 127
2, 170352, Note_off_c, 0, 74, 64
2, 170376, Note_off_c, 0, 59, 64
2, 170400, Note_on_c, 0, 50, 127
2, 170400, Note_on_c, 0, 74, 127
2, 170496, Note_off_c, 0, 50, 64
2, 170520, Note_on_c, 0, 59, 127
2, 170592, Note_off_c, 0, 74, 64
2, 170616, Note_off_c, 0, 59, 64
2, 170640, Note_on_c, 0, 79, 127
2, 170640, Note_on_c, 0, 43, 127
2, 170736, Note_off_c, 0, 43, 64
2, 170760, Note_on_c, 0, 59, 127
2, 170832, Note_off_c, 0, 79, 64
2, 170856, Note_off_c, 0, 59, 64
2, 170880, Note_on_c, 0, 79, 127
2, 170880, Note_on_c, 0, 50, 127
2, 170976, Note_off_c, 0, 50, 64
2, 171000, Note_on_c, 0, 59, 127
2, 171072, Note_off_c, 0, 79, 64
2, 171096, Note_off_c, 0, 59, 64
2, 171120, Note_on_c, 0, 55, 127
2, 171120, Note_on_c, 0, 83, 127
2, 171216, Note_off_c, 0, 55, 64
2, 171240, Note_on_c, 0, 59, 127
2, 171336, Note_off_c, 0, 59, 64
2, 171360, Note_on_c, 0, 50, 127
2, 171456, Note_off_c, 0, 50, 64
2, 171480, Note_on_c, 0, 59, 127
2, 171504, Note_off_c, 0, 83, 64
2, 171576, Note_off_c, 0, 59, 64
2, 171600, Note_on_c, 0, 86, 127
2, 171600, Note_on_c, 0, 43, 127
2, 171696, Note_off_c, 0, 43, 64
2, 171696, Note_off_c, 0, 86, 64
2, 171720, Note_on_c, 0, 84, 127
2, 171720, Note_on_c, 0, 60, 127
2, 171816, Note_off_c, 0, 60, 64
2, 171816, Note_off_c, 0, 84, 64
2, 171840, Note_on_c, 0, 50, 127
2, 171840, Note_on_c, 0, 86, 127
2, 171936, Note_off_c, 0, 86, 64
2, 171936, Note_off_c, 0, 50, 64
2, 171960, Note_on_c, 0, 84, 127
2, 171960, Note_on_c, 0, 60, 127
2, 172056, Note_off_c, 0, 60, 64
2, 172056, Note_off_c, 0, 84, 64
2, 172080, Note_on_c, 0, 54, 127
2, 172080, Note_on_c, 0, 81, 127
2, 172176, Note_off_c, 0, 54, 64
2, 172200, Note_on_c, 0, 60, 127
2, 172272, Note_off_c, 0, 81, 64
2, 172296, Note_off_c, 0, 60, 64
2, 172320, Note_on_c, 0, 50, 127
2, 172320, Note_on_c, 0, 81, 127
2, 172416, Note_off_c, 0, 81, 64
2, 172416, Note_off_c, 0, 50, 64
2, 172440, Note_on_c, 0, 60, 127
2, 172440, Note_on_c, 0, 83, 127
2, 172536, Note_off_c, 0, 83, 64
2, 172536, Note_off_c, 0, 60, 64
2, 172560, Note_on_c, 0, 43, 127
2, 172560, Note_on_c, 0, 79, 127
2, 172656, Note_off_c, 0, 43, 64
2, 172680, Note_on_c, 0, 59, 127
2, 172776, Note_off_c, 0, 59, 64
2, 172800, Note_on_c, 0, 50, 127
2, 172896, Note_off_c, 0, 50, 64
2, 172920, Note_on_c, 0, 59, 127
2, 172944, Note_off_c, 0, 79, 64
2, 173016, Note_off_c, 0, 59, 64
2, 173040, Note_on_c, 0, 43, 127
2, 173232, Note_off_c, 0, 43, 64
2, 173280, Note_on_c, 0, 67, 127
2, 173472, Note_off_c, 0, 67, 64
2, 173520, Note_on_c, 0, 74, 127
2, 173520, Note_on_c, 0, 54, 127
2, 173616, Note_off_c, 0, 74, 64
2, 173640, Note_on_c, 0, 72, 127
2, 173736, Note_off_c, 0, 72, 64
2, 173760, Note_on_c, 0, 74, 127
2, 173856, Note_off_c, 0, 74, 64
2, 173880, Note_on_c, 0, 72, 127
2, 173904, Note_off_c, 0, 54, 64
2, 173976, Note_off_c, 0, 72, 64
2, 174000, Note_on_c, 0, 61, 127
2, 174000, Note_on_c, 0, 69, 127
2, 174096, Note_off_c, 0, 61, 64
2, 174120, Note_on_c, 0, 62, 127
2, 174216, Note_off_c, 0, 62, 64
2, 174240, Note_on_c, 0, 61, 127
2, 174336, Note_off_c, 0, 61, 64
2, 174360, Note_on_c, 0, 62, 127
2, 174384, Note_off_c, 0, 69, 64
2, 174456, Note_off_c, 0, 62, 64
2, 174480, Note_on_c, 0, 72, 127
2, 174480, Note_on_c, 0, 55, 127
2, 174576, Note_off_c, 0, 72, 64
2, 174600, Note_on_c, 0, 71, 127
2, 174696, Note_off_c, 0, 71, 64
2, 174720, Note_on_c, 0, 72, 127
2, 174816, Note_off_c, 0, 72, 64
2, 174840, Note_on_c, 0, 71, 127
2, 174864, Note_off_c, 0, 55, 64
2, 174936, Note_off_c, 0, 71, 64
2, 174960, Note_on_c, 0, 61, 127
2, 174960, Note_on_c, 0, 67, 127
2, 175056, Note_off_c, 0, 61, 64
2, 175080, Note_on_c, 0, 62, 127
2, 175176, Note_off_c, 0, 62, 64
2, 175200, Note_on_c, 0, 61, 127
2, 175296, Note_off_c, 0, 61, 64
2, 175320, Note_on_c, 0, 62, 127
2, 175344, Note_off_c, 0, 67, 64
2, 175416, Note_off_c, 0, 62, 64
2, 175440, Note_on_c, 0, 71, 127
2, 175440, Note_on_c, 0, 57, 127
2, 175536, Note_off_c, 0, 71, 64
2, 175560, Note_on_c, 0, 69, 127
2, 175656, Note_off_c, 0, 69, 64
2, 175680, Note_on_c, 0, 71, 127
2, 175776, Note_off_c, 0, 71, 64
2, 175800, Note_on_c, 0, 69, 127
2, 175824, Note_off_c, 0, 57, 64
2, 175896, Note_off_c, 0, 69, 64
2, 175920, Note_on_c, 0, 61, 127
2, 175920, Note_on_c, 0, 66, 127
2, 176016, Note_off_c, 0, 61, 64
2, 176040, Note_on_c, 0, 62, 127
2, 176136, Note_off_c, 0, 62, 64
2, 176160, Note_on_c, 0, 61, 127
2, 176256, Note_off_c, 0, 61, 64
2, 176280, Note_on_c, 0, 62, 127
2, 176304, Note_off_c, 0, 66, 64
2, 176376, Note_off_c, 0, 62, 64
2, 176400, Note_on_c, 0, 69, 127
2, 176400, Note_on_c, 0, 59, 127
2, 176496, Note_off_c, 0, 69, 64
2, 176520, Note_on_c, 0, 67, 127
2, 176616, Note_off_c, 0, 67, 64
2, 176640, Note_on_c, 0, 69, 127
2, 176736, Note_off_c, 0, 69, 64
2, 176760, Note_on_c, 0, 67, 127
2, 176784, Note_off_c, 0, 59, 64
2, 176856, Note_off_c, 0, 67, 64
2, 176880, Note_on_c, 0, 61, 127
2, 176880, Note_on_c, 0, 74, 127
2, 176976, Note_off_c, 0, 61, 64
2, 177000, Note_on_c, 0, 62, 127
2, 177096, Note_off_c, 0, 62, 64
2, 177120, Note_on_c, 0, 61, 127
2, 177216, Note_off_c, 0, 61, 64
2, 177240, Note_on_c, 0, 62, 127
2, 177264, Note_off_c, 0, 74, 64
2, 177336, Note_off_c, 0, 62, 64
2, 177360, Note_on_c, 0, 74, 127
2, 177360, Note_on_c, 0, 54, 127
2, 177456, Note_off_c, 0, 74, 64
2, 177480, Note_on_c, 0, 72, 127
2, 177576, Note_off_c, 0, 72, 64
2, 177600, Note_on_c, 0, 74, 127
2, 177696, Note_off_c, 0, 74, 64
2, 177720, Note_on_c, 0, 72, 127
2, 177744, Note_off_c, 0, 54, 64
2, 177816, Note_off_c, 0, 72, 64
2, 177840, Note_on_c, 0, 63, 127
2, 177840, Note_on_c, 0, 69, 127
2, 177936, Note_off_c, 0, 63, 64
2, 177960, Note_on_c, 0, 62, 127
2, 178056, Note_off_c, 0, 62, 64
2, 178080, Note_on_c, 0, 63, 127
2, 178176, Note_off_c, 0, 63, 64
2, 178200, Note_on_c, 0, 62, 127
2, 178224, Note_off_c, 0, 69, 64
2, 178296, Note_off_c, 0, 62, 64
2, 178320, Note_on_c, 0, 72, 127
2, 178320, Note_on_c, 0, 55, 127
2, 178416, Note_off_c, 0, 72, 64
2, 178440, Note_on_c, 0, 70, 127
2, 178536, Note_off_c, 0, 70, 64
2, 178560, Note_on_c, 0, 72, 127
2, 178656, Note_off_c, 0, 72, 64
2, 178680, Note_on_c, 0, 70, 127
2, 178704, Note_off_c, 0, 55, 64
2, 178776, Note_off_c, 0, 70, 64
2, 178800, Note_on_c, 0, 63, 127
2, 178800, Note_on_c, 0, 67, 127
2, 178896, Note_off_c, 0, 63, 64
2, 178920, Note_on_c, 0, 62, 127
2, 179016, Note_off_c, 0, 62, 64
2, 179040, Note_on_c, 0, 63, 127
2, 179136, Note_off_c, 0, 63, 64
2, 179160, Note_on_c, 0, 62, 127
2, 179184, Note_off_c, 0, 67, 64
2, 179256, Note_off_c, 0, 62, 64
2, 179280, Note_on_c, 0, 79, 127
2, 179280, Note_on_c, 0, 52, 127
2, 179376, Note_off_c, 0, 79, 64
2, 179400, Note_on_c, 0, 73, 127
2, 179496, Note_off_c, 0, 73, 64
2, 179520, Note_on_c, 0, 79, 127
2, 179616, Note_off_c, 0, 79, 64
2, 179640, Note_on_c, 0, 73, 127
2, 179664, Note_off_c, 0, 52, 64
2, 179736, Note_off_c, 0, 73, 64
2, 179760, Note_on_c, 0, 55, 127
2, 179760, Note_on_c, 0, 67, 127
2, 179856, Note_off_c, 0, 55, 64
2, 179880, Note_on_c, 0, 58, 127
2, 179976, Note_off_c, 0, 58, 64
2, 180000, Note_on_c, 0, 55, 127
2, 180096, Note_off_c, 0, 55, 64
2, 180120, Note_on_c, 0, 58, 127
2, 180144, Note_off_c, 0, 67, 64
2, 180216, Note_off_c, 0, 58, 64
2, 180240, Note_on_c, 0, 79, 127
2, 180240, Note_on_c, 0, 51, 127
2, 180336, Note_off_c, 0, 79, 64
2, 180360, Note_on_c, 0, 73, 127
2, 180456, Note_off_c, 0, 73, 64
2, 180480, Note_on_c, 0, 79, 127
2, 180576, Note_off_c, 0, 79, 64
2, 180600, Note_on_c, 0, 73, 127
2, 180624, Note_off_c, 0, 51, 64
2, 180696, Note_off_c, 0, 73, 64
2, 180720, Note_on_c, 0, 55, 127
2, 180720, Note_on_c, 0, 67, 127
2, 180816, Note_off_c, 0, 55, 64
2, 180840, Note_on_c, 0, 58, 127
2, 180936, Note_off_c, 0, 58, 64
2, 180960, Note_on_c, 0, 55, 127
2, 181056, Note_off_c, 0, 55, 64
2, 181080, Note_on_c, 0, 58, 127
2, 181104, Note_off_c, 0, 67, 64
2, 181176, Note_off_c, 0, 58, 64
2, 181200, Note_on_c, 0, 78, 127
2, 181200, Note_on_c, 0, 50, 127
2, 181296, Note_off_c, 0, 78, 64
2, 181320, Note_on_c, 0, 74, 127
2, 181416, Note_off_c, 0, 74, 64
2, 181440, Note_on_c, 0, 78, 127
2, 181536, Note_off_c, 0, 78, 64
2, 181560, Note_on_c, 0, 74, 127
2, 181584, Note_off_c, 0, 50, 64
2, 181656, Note_off_c, 0, 74, 64
2, 181680, Note_on_c, 0, 57, 127
2, 181680, Note_on_c, 0, 69, 127
2, 181776, Note_off_c, 0, 57, 64
2, 181800, Note_on_c, 0, 62, 127
2, 181896, Note_off_c, 0, 62, 64
2, 181920, Note_on_c, 0, 57, 127
2, 182016, Note_off_c, 0, 57, 64
2, 182040, Note_on_c, 0, 62, 127
2, 182064, Note_off_c, 0, 69, 64
2, 182136, Note_off_c, 0, 62, 64
2, 182160, Note_on_c, 0, 78, 127
2, 182160, Note_on_c, 0, 50, 127
2, 182256, Note_off_c, 0, 78, 64
2, 182280, Note_on_c, 0, 74, 127
2, 182376, Note_off_c, 0, 74, 64
2, 182400, Note_on_c, 0, 78, 127
2, 182496, Note_off_c, 0, 78, 64
2, 182520, Note_on_c, 0, 74, 127
2, 182544, Note_off_c, 0, 50, 64
2, 182616, Note_off_c, 0, 74, 64
2, 182640, Note_on_c, 0, 57, 127
2, 182640, Note_on_c, 0, 69, 127
2, 182736, Note_off_c, 0, 57, 64
2, 182760, Note_on_c, 0, 62, 127
2, 182856, Note_off_c, 0, 62, 64
2, 182880, Note_on_c, 0, 57, 127
2, 182976, Note_off_c, 0, 57, 64
2, 183000, Note_on_c, 0, 62, 127
2, 183024, Note_off_c, 0, 69, 64
2, 183096, Note_off_c, 0, 62, 64
2, 183120, Note_on_c, 0, 79, 127
2, 183120, Note_on_c, 0, 51, 127
2, 183216, Note_off_c, 0, 79, 64
2, 183240, Note_on_c, 0, 73, 127
2, 183336, Note_off_c, 0, 73, 64
2, 183360, Note_on_c, 0, 79, 127
2, 183456, Note_off_c, 0, 79, 64
2, 183480, Note_on_c, 0, 73, 127
2, 183504, Note_off_c, 0, 51, 64
2, 183576, Note_off_c, 0, 73, 64
2, 183600, Note_on_c, 0, 55, 127
2, 183600, Note_on_c, 0, 67, 127
2, 183696, Note_off_c, 0, 55, 64
2, 183720, Note_on_c, 0, 58, 127
2, 183816, Note_off_c, 0, 58, 64
2, 183840, Note_on_c, 0, 55, 127
2, 183936, Note_off_c, 0, 55, 64
2, 183960, Note_on_c, 0, 58, 127
2, 183984, Note_off_c, 0, 67, 64
2, 184056, Note_off_c, 0, 58, 64
2, 184080, Note_on_c, 0, 79, 127
2, 184080, Note_on_c, 0, 51, 127
2, 184176, Note_off_c, 0, 79, 64
2, 184200, Note_on_c, 0, 73, 127
2, 184296, Note_off_c, 0, 73, 64
2, 184320, Note_on_c, 0, 79, 127
2, 184416, Note_off_c, 0, 79, 64
2, 184440, Note_on_c, 0, 73, 127
2, 184464, Note_off_c, 0, 51, 64
2, 184536, Note_off_c, 0, 73, 64
2, 184560, Note_on_c, 0, 55, 127
2, 184560, Note_on_c, 0, 67, 127
2, 184656, Note_off_c, 0, 55, 64
2, 184680, Note_on_c, 0, 58, 127
2, 184776, Note_off_c, 0, 58, 64
2, 184800, Note_on_c, 0, 55, 127
2, 184896, Note_off_c, 0, 55, 64
2, 184920, Note_on_c, 0, 58, 127
2, 184944, Note_off_c, 0, 67, 64
2, 185016, Note_off_c, 0, 58, 64
2, 185040, Note_on_c, 0, 72, 127
2, 185040, Note_on_c, 0, 56, 127
2, 185040, Note_on_c, 0, 60, 127
2, 185232, Note_off_c, 0, 60, 64
2, 185232, Note_off_c, 0, 56, 64
2, 185280, Note_on_c, 0, 63, 127
2, 185280, Note_on_c, 0, 56, 127
2, 185280, Note_on_c, 0, 60, 127
2, 185424, Note_off_c, 0, 72, 64
2, 185472, Note_off_c, 0, 63, 64
2, 185472, Note_off_c, 0, 56, 64
2, 185472, Note_off_c, 0, 60, 64
2, 185520, Note_on_c, 0, 63, 127
2, 185520, Note_on_c, 0, 56, 127
2, 185520, Note_on_c, 0, 60, 127
2, 185520, Note_on_c, 0, 75, 127
2, 185712, Note_off_c, 0, 75, 64
2, 185712, Note_off_c, 0, 60, 64
2, 185712, Note_off_c, 0, 56, 64
2, 185712, Note_off_c, 0, 63, 64
2, 185760, Note_on_c, 0, 63, 127
2, 185760, Note_on_c, 0, 56, 127
2, 185760, Note_on_c, 0, 60, 127
2, 185760, Note_on_c, 0, 75, 127
2, 185952, Note_off_c, 0, 75, 64
2, 185952, Note_off_c, 0, 60, 64
2, 185952, Note_off_c, 0, 56, 64
2, 185952, Note_off_c, 0, 63, 64
2, 186000, Note_on_c, 0, 63, 127
2, 186000, Note_on_c, 0, 56, 127
2, 186000, Note_on_c, 0, 60, 127
2, 186000, Note_on_c, 0, 80, 127
2, 186192, Note_off_c, 0, 80, 64
2, 186192, Note_off_c, 0, 60, 64
2, 186192, Note_off_c, 0, 56, 64
2, 186192, Note_off_c, 0, 63, 64
2, 186240, Note_on_c, 0, 56, 127
2, 186240, Note_on_c, 0, 63, 127
2, 186240, Note_on_c, 0, 60, 127
2, 186240, Note_on_c, 0, 80, 127
2, 186432, Note_off_c, 0, 80, 64
2, 186432, Note_off_c, 0, 60, 64
2, 186432, Note_off_c, 0, 63, 64
2, 186432, Note_off_c, 0, 56, 64
2, 186480, Note_on_c, 0, 56, 127
2, 186480, Note_on_c, 0, 60, 127
2, 186480, Note_on_c, 0, 63, 127
2, 186480, Note_on_c, 0, 84, 127
2, 186672, Note_off_c, 0, 63, 64
2, 186672, Note_off_c, 0, 60, 64
2, 186672, Note_off_c, 0, 56, 64
2, 186720, Note_on_c, 0, 60, 127
2, 186720, Note_on_c, 0, 63, 127
2, 186720, Note_on_c, 0, 56, 127
2, 186864, Note_off_c, 0, 84, 64
2, 186912, Note_off_c, 0, 60, 64
2, 186912, Note_off_c, 0, 63, 64
2, 186912, Note_off_c, 0, 56, 64
2, 186960, Note_on_c, 0, 56, 127
2, 186960, Note_on_c, 0, 63, 127
2, 186960, Note_on_c, 0, 61, 127
2, 186960, Note_on_c, 0, 67, 127
2, 186960, Note_on_c, 0, 87, 127
2, 187056, Note_off_c, 0, 87, 64
2, 187080, Note_on_c, 0, 85, 127
2, 187152, Note_off_c, 0, 67, 64
2, 187152, Note_off_c, 0, 61, 64
2, 187152, Note_off_c, 0, 63, 64
2, 187152, Note_off_c, 0, 56, 64
2, 187176, Note_off_c, 0, 85, 64
2, 187200, Note_on_c, 0, 56, 127
2, 187200, Note_on_c, 0, 63, 127
2, 187200, Note_on_c, 0, 61, 127
2, 187200, Note_on_c, 0, 67, 127
2, 187200, Note_on_c, 0, 87, 127
2, 187296, Note_off_c, 0, 87, 64
2, 187320, Note_on_c, 0, 85, 127
2, 187392, Note_off_c, 0, 67, 64
2, 187392, Note_off_c, 0, 61, 64
2, 187392, Note_off_c, 0, 63, 64
2, 187392, Note_off_c, 0, 56, 64
2, 187416, Note_off_c, 0, 85, 64
2, 187440, Note_on_c, 0, 61, 127
2, 187440, Note_on_c, 0, 63, 127
2, 187440, Note_on_c, 0, 67, 127
2, 187440, Note_on_c, 0, 56, 127
2, 187440, Note_on_c, 0, 82, 127
2, 187632, Note_off_c, 0, 56, 64
2, 187632, Note_off_c, 0, 67, 64
2, 187632, Note_off_c, 0, 63, 64
2, 187632, Note_off_c, 0, 61, 64
2, 187680, Note_on_c, 0, 67, 127
2, 187680, Note_on_c, 0, 56, 127
2, 187680, Note_on_c, 0, 63, 127
2, 187680, Note_on_c, 0, 61, 127
2, 187824, Note_off_c, 0, 82, 64
2, 187872, Note_off_c, 0, 67, 64
2, 187872, Note_off_c, 0, 56, 64
2, 187872, Note_off_c, 0, 63, 64
2, 187872, Note_off_c, 0, 61, 64
2, 187920, Note_on_c, 0, 67, 127
2, 187920, Note_on_c, 0, 56, 127
2, 187920, Note_on_c, 0, 61, 127
2, 187920, Note_on_c, 0, 63, 127
2, 187920, Note_on_c, 0, 87, 127
2, 188016, Note_off_c, 0, 87, 64
2, 188040, Note_on_c, 0, 85, 127
2, 188112, Note_off_c, 0, 63, 64
2, 188112, Note_off_c, 0, 61, 64
2, 188112, Note_off_c, 0, 56, 64
2, 188112, Note_off_c, 0, 67, 64
2, 188136, Note_off_c, 0, 85, 64
2, 188160, Note_on_c, 0, 67, 127
2, 188160, Note_on_c, 0, 56, 127
2, 188160, Note_on_c, 0, 63, 127
2, 188160, Note_on_c, 0, 61, 127
2, 188160, Note_on_c, 0, 87, 127
2, 188256, Note_off_c, 0, 87, 64
2, 188280, Note_on_c, 0, 85, 127
2, 188352, Note_off_c, 0, 61, 64
2, 188352, Note_off_c, 0, 63, 64
2, 188352, Note_off_c, 0, 56, 64
2, 188352, Note_off_c, 0, 67, 64
2, 188376, Note_off_c, 0, 85, 64
2, 188400, Note_on_c, 0, 61, 127
2, 188400, Note_on_c, 0, 56, 127
2, 188400, Note_on_c, 0, 67, 127
2, 188400, Note_on_c, 0, 63, 127
2, 188400, Note_on_c, 0, 82, 127
2, 188592, Note_off_c, 0, 63, 64
2, 188592, Note_off_c, 0, 67, 64
2, 188592, Note_off_c, 0, 56, 64
2, 188592, Note_off_c, 0, 61, 64
2, 188640, Note_on_c, 0, 56, 127
2, 188640, Note_on_c, 0, 67, 127
2, 188640, Note_on_c, 0, 63, 127
2, 188640, Note_on_c, 0, 61, 127
2, 188784, Note_off_c, 0, 82, 64
2, 188832, Note_off_c, 0, 56, 64
2, 188832, Note_off_c, 0, 67, 64
2, 188832, Note_off_c, 0, 63, 64
2, 188832, Note_off_c, 0, 61, 64
2, 188880, Note_on_c, 0, 56, 127
2, 188880, Note_on_c, 0, 63, 127
2, 188880, Note_on_c, 0, 60, 127
2, 188880, Note_on_c, 0, 72, 127
2, 189072, Note_off_c, 0, 60, 64
2, 189072, Note_off_c, 0, 63, 64
2, 189072, Note_off_c, 0, 56, 64
2, 189120, Note_on_c, 0, 56, 127
2, 189120, Note_on_c, 0, 63, 127
2, 189120, Note_on_c, 0, 60, 127
2, 189264, Note_off_c, 0, 72, 64
2, 189312, Note_off_c, 0, 56, 64
2, 189312, Note_off_c, 0, 63, 64
2, 189312, Note_off_c, 0, 60, 64
2, 189360, Note_on_c, 0, 56, 127
2, 189360, Note_on_c, 0, 63, 127
2, 189360, Note_on_c, 0, 60, 127
2, 189360, Note_on_c, 0, 75, 127
2, 189552, Note_off_c, 0, 75, 64
2, 189552, Note_off_c, 0, 60, 64
2, 189552, Note_off_c, 0, 63, 64
2, 189552, Note_off_c, 0, 56, 64
2, 189600, Note_on_c, 0, 56, 127
2, 189600, Note_on_c, 0, 63, 127
2, 189600, Note_on_c, 0, 60, 127
2, 189600, Note_on_c, 0, 75, 127
2, 189792, Note_off_c, 0, 75, 64
2, 189792, Note_off_c, 0, 60, 64
2, 189792, Note_off_c, 0, 63, 64
2, 189792, Note_off_c, 0, 56, 64
2, 189840, Note_on_c, 0, 56, 127
2, 189840, Note_on_c, 0, 63, 127
2, 189840, Note_on_c, 0, 60, 127
2, 189840, Note_on_c, 0, 80, 127
2, 190032, Note_off_c, 0, 80, 64
2, 190032, Note_off_c, 0, 60, 64
2, 190032, Note_off_c, 0, 63, 64
2, 190032, Note_off_c, 0, 56, 64
2, 190080, Note_on_c, 0, 56, 127
2, 190080, Note_on_c, 0, 63, 127
2, 190080, Note_on_c, 0, 60, 127
2, 190080, Note_on_c, 0, 80, 127
2, 190272, Note_off_c, 0, 80, 64
2, 190272, Note_off_c, 0, 60, 64
2, 190272, Note_off_c, 0, 63, 64
2, 190272, Note_off_c, 0, 56, 64
2, 190320, Note_on_c, 0, 56, 127
2, 190320, Note_on_c, 0, 63, 127
2, 190320, Note_on_c, 0, 60, 127
2, 190320, Note_on_c, 0, 84, 127
2, 190512, Note_off_c, 0, 60, 64
2, 190512, Note_off_c, 0, 63, 64
2, 190512, Note_off_c, 0, 56, 64
2, 190560, Note_on_c, 0, 56, 127
2, 190560, Note_on_c, 0, 63, 127
2, 190560, Note_on_c, 0, 60, 127
2, 190704, Note_off_c, 0, 84, 64
2, 190752, Note_off_c, 0, 56, 64
2, 190752, Note_off_c, 0, 63, 64
2, 190752, Note_off_c, 0, 60, 64
2, 190800, Note_on_c, 0, 67, 127
2, 190800, Note_on_c, 0, 63, 127
2, 190800, Note_on_c, 0, 61, 127
2, 190800, Note_on_c, 0, 87, 127
2, 190800, Note_on_c, 0, 56, 127
2, 190896, Note_off_c, 0, 87, 64
2, 190920, Note_on_c, 0, 85, 127
2, 190992, Note_off_c, 0, 61, 64
2, 190992, Note_off_c, 0, 63, 64
2, 190992, Note_off_c, 0, 67, 64
2, 190992, Note_off_c, 0, 56, 64
2, 191016, Note_off_c, 0, 85, 64
2, 191040, Note_on_c, 0, 67, 127
2, 191040, Note_on_c, 0, 61, 127
2, 191040, Note_on_c, 0, 87, 127
2, 191040, Note_on_c, 0, 63, 127
2, 191040, Note_on_c, 0, 56, 127
2, 191136, Note_off_c, 0, 87, 64
2, 191160, Note_on_c, 0, 85, 127
2, 191232, Note_off_c, 0, 61, 64
2, 191232, Note_off_c, 0, 67, 64
2, 191232, Note_off_c, 0, 63, 64
2, 191232, Note_off_c, 0, 56, 64
2, 191256, Note_off_c, 0, 85, 64
2, 191280, Note_on_c, 0, 56, 127
2, 191280, Note_on_c, 0, 63, 127
2, 191280, Note_on_c, 0, 67, 127
2, 191280, Note_on_c, 0, 61, 127
2, 191280, Note_on_c, 0, 82, 127
2, 191472, Note_off_c, 0, 82, 64
2, 191472, Note_off_c, 0, 61, 64
2, 191472, Note_off_c, 0, 67, 64
2, 191472, Note_off_c, 0, 63, 64
2, 191472, Note_off_c, 0, 56, 64
2, 191520, Note_on_c, 0, 56, 127
2, 191520, Note_on_c, 0, 63, 127
2, 191520, Note_on_c, 0, 67, 127
2, 191520, Note_on_c, 0, 61, 127
2, 191520, Note_on_c, 0, 82, 127
2, 191616, Note_off_c, 0, 82, 64
2, 191640, Note_on_c, 0, 84, 127
2, 191712, Note_off_c, 0, 61, 64
2, 191712, Note_off_c, 0, 67, 64
2, 191712, Note_off_c, 0, 63, 64
2, 191712, Note_off_c, 0, 56, 64
2, 191736, Note_off_c, 0, 84, 64
2, 191760, Note_on_c, 0, 68, 127
2, 191760, Note_on_c, 0, 63, 127
2, 191760, Note_on_c, 0, 60, 127
2, 191760, Note_on_c, 0, 56, 127
2, 191760, Note_on_c, 0, 80, 127
2, 191952, Note_off_c, 0, 80, 64
2, 191952, Note_off_c, 0, 56, 64
2, 191952, Note_off_c, 0, 60, 64
2, 191952, Note_off_c, 0, 63, 64
2, 191952, Note_off_c, 0, 68, 64
2, 192000, Note_on_c, 0, 55, 127
2, 192192, Note_off_c, 0, 55, 64
2, 192240, Note_on_c, 0, 56, 127
2, 192432, Note_off_c, 0, 56, 64
2, 192480, Note_on_c, 0, 58, 127
2, 192672, Note_off_c, 0, 58, 64
2, 192720, Note_on_c, 0, 60, 127
2, 192720, Note_on_c, 0, 68, 127
2, 192720, Note_on_c, 0, 72, 127
2, 192816, Note_off_c, 0, 60, 64
2, 192840, Note_on_c, 0, 58, 127
2, 192912, Note_off_c, 0, 68, 64
2, 192912, Note_off_c, 0, 72, 64
2, 192936, Note_off_c, 0, 58, 64
2, 192960, Note_on_c, 0, 56, 127
2, 192960, Note_on_c, 0, 68, 127
2, 192960, Note_on_c, 0, 72, 127
2, 193056, Note_off_c, 0, 56, 64
2, 193080, Note_on_c, 0, 55, 127
2, 193152, Note_off_c, 0, 68, 64
2, 193152, Note_off_c, 0, 72, 64
2, 193176, Note_off_c, 0, 55, 64
2, 193200, Note_on_c, 0, 53, 127
2, 193200, Note_on_c, 0, 68, 127
2, 193200, Note_on_c, 0, 72, 127
2, 193296, Note_off_c, 0, 53, 64
2, 193320, Note_on_c, 0, 55, 127
2, 193392, Note_off_c, 0, 68, 64
2, 193392, Note_off_c, 0, 72, 64
2, 193416, Note_off_c, 0, 55, 64
2, 193440, Note_on_c, 0, 56, 127
2, 193440, Note_on_c, 0, 72, 127
2, 193440, Note_on_c, 0, 68, 127
2, 193536, Note_off_c, 0, 56, 64
2, 193560, Note_on_c, 0, 58, 127
2, 193632, Note_off_c, 0, 72, 64
2, 193632, Note_off_c, 0, 68, 64
2, 193656, Note_off_c, 0, 58, 64
2, 193680, Note_on_c, 0, 60, 127
2, 193680, Note_on_c, 0, 68, 127
2, 193680, Note_on_c, 0, 72, 127
2, 193872, Note_off_c, 0, 72, 64
2, 193872, Note_off_c, 0, 68, 64
2, 193872, Note_off_c, 0, 60, 64
2, 193920, Note_on_c, 0, 60, 127
2, 193920, Note_on_c, 0, 68, 127
2, 193920, Note_on_c, 0, 72, 127
2, 194112, Note_off_c, 0, 72, 64
2, 194112, Note_off_c, 0, 68, 64
2, 194112, Note_off_c, 0, 60, 64
2, 194160, Note_on_c, 0, 65, 127
2, 194160, Note_on_c, 0, 68, 127
2, 194160, Note_on_c, 0, 72, 127
2, 194352, Note_off_c, 0, 72, 64
2, 194352, Note_off_c, 0, 68, 64
2, 194400, Note_on_c, 0, 68, 127
2, 194400, Note_on_c, 0, 72, 127
2, 194544, Note_off_c, 0, 65, 64
2, 194592, Note_off_c, 0, 68, 64
2, 194592, Note_off_c, 0, 72, 64
2, 194640, Note_on_c, 0, 65, 127
2, 194640, Note_on_c, 0, 70, 127
2, 194640, Note_on_c, 0, 72, 127
2, 194736, Note_off_c, 0, 65, 64
2, 194760, Note_on_c, 0, 64, 127
2, 194832, Note_off_c, 0, 70, 64
2, 194832, Note_off_c, 0, 72, 64
2, 194856, Note_off_c, 0, 64, 64
2, 194880, Note_on_c, 0, 65, 127
2, 194880, Note_on_c, 0, 70, 127
2, 194880, Note_on_c, 0, 72, 127
2, 194976, Note_off_c, 0, 65, 64
2, 195000, Note_on_c, 0, 64, 127
2, 195072, Note_off_c, 0, 70, 64
2, 195072, Note_off_c, 0, 72, 64
2, 195096, Note_off_c, 0, 64, 64
2, 195120, Note_on_c, 0, 60, 127
2, 195120, Note_on_c, 0, 70, 127
2, 195120, Note_on_c, 0, 72, 127
2, 195312, Note_off_c, 0, 72, 64
2, 195312, Note_off_c, 0, 70, 64
2, 195360, Note_on_c, 0, 70, 127
2, 195360, Note_on_c, 0, 72, 127
2, 195504, Note_off_c, 0, 60, 64
2, 195552, Note_off_c, 0, 70, 64
2, 195552, Note_off_c, 0, 72, 64
2, 195600, Note_on_c, 0, 65, 127
2, 195600, Note_on_c, 0, 70, 127
2, 195600, Note_on_c, 0, 72, 127
2, 195696, Note_off_c, 0, 65, 64
2, 195720, Note_on_c, 0, 64, 127
2, 195792, Note_off_c, 0, 70, 64
2, 195792, Note_off_c, 0, 72, 64
2, 195816, Note_off_c, 0, 64, 64
2, 195840, Note_on_c, 0, 65, 127
2, 195840, Note_on_c, 0, 70, 127
2, 195840, Note_on_c, 0, 72, 127
2, 195936, Note_off_c, 0, 65, 64
2, 195960, Note_on_c, 0, 64, 127
2, 196032, Note_off_c, 0, 70, 64
2, 196032, Note_off_c, 0, 72, 64
2, 196056, Note_off_c, 0, 64, 64
2, 196080, Note_on_c, 0, 60, 127
2, 196080, Note_on_c, 0, 70, 127
2, 196080, Note_on_c, 0, 72, 127
2, 196272, Note_off_c, 0, 72, 64
2, 196272, Note_off_c, 0, 70, 64
2, 196320, Note_on_c, 0, 70, 127
2, 196320, Note_on_c, 0, 72, 127
2, 196464, Note_off_c, 0, 60, 64
2, 196512, Note_off_c, 0, 70, 64
2, 196512, Note_off_c, 0, 72, 64
2, 196560, Note_on_c, 0, 60, 127
2, 196560, Note_on_c, 0, 68, 127
2, 196560, Note_on_c, 0, 72, 127
2, 196656, Note_off_c, 0, 60, 64
2, 196680, Note_on_c, 0, 58, 127
2, 196752, Note_off_c, 0, 68, 64
2, 196752, Note_off_c, 0, 72, 64
2, 196776, Note_off_c, 0, 58, 64
2, 196800, Note_on_c, 0, 56, 127
2, 196800, Note_on_c, 0, 68, 127
2, 196800, Note_on_c, 0, 72, 127
2, 196896, Note_off_c, 0, 56, 64
2, 196920, Note_on_c, 0, 55, 127
2, 196992, Note_off_c, 0, 68, 64
2, 196992, Note_off_c, 0, 72, 64
2, 197016, Note_off_c, 0, 55, 64
2, 197040, Note_on_c, 0, 53, 127
2, 197040, Note_on_c, 0, 68, 127
2, 197040, Note_on_c, 0, 72, 127
2, 197136, Note_off_c, 0, 53, 64
2, 197160, Note_on_c, 0, 55, 127
2, 197232, Note_off_c, 0, 68, 64
2, 197232, Note_off_c, 0, 72, 64
2, 197256, Note_off_c, 0, 55, 64
2, 197280, Note_on_c, 0, 56, 127
2, 197280, Note_on_c, 0, 68, 127
2, 197280, Note_on_c, 0, 72, 127
2, 197376, Note_off_c, 0, 56, 64
2, 197400, Note_on_c, 0, 58, 127
2, 197472, Note_off_c, 0, 68, 64
2, 197472, Note_off_c, 0, 72, 64
2, 197496, Note_off_c, 0, 58, 64
2, 197520, Note_on_c, 0, 60, 127
2, 197520, Note_on_c, 0, 68, 127
2, 197520, Note_on_c, 0, 72, 127
2, 197712, Note_off_c, 0, 72, 64
2, 197712, Note_off_c, 0, 68, 64
2, 197712, Note_off_c, 0, 60, 64
2, 197760, Note_on_c, 0, 60, 127
2, 197760, Note_on_c, 0, 68, 127
2, 197760, Note_on_c, 0, 72, 127
2, 197952, Note_off_c, 0, 72, 64
2, 197952, Note_off_c, 0, 68, 64
2, 197952, Note_off_c, 0, 60, 64
2, 198000, Note_on_c, 0, 65, 127
2, 198000, Note_on_c, 0, 68, 127
2, 198000, Note_on_c, 0, 72, 127
2, 198192, Note_off_c, 0, 72, 64
2, 198192, Note_off_c, 0, 68, 64
2, 198240, Note_on_c, 0, 68, 127
2, 198240, Note_on_c, 0, 72, 127
2, 198384, Note_off_c, 0, 65, 64
2, 198432, Note_off_c, 0, 68, 64
2, 198432, Note_off_c, 0, 72, 64
2, 198480, Note_on_c, 0, 70, 127
2, 198480, Note_on_c, 0, 68, 127
2, 198480, Note_on_c, 0, 62, 127
2, 198528, Note_off_c, 0, 62, 64
2, 198540, Note_on_c, 0, 63, 127
2, 198588, Note_off_c, 0, 63, 64
2, 198600, Note_on_c, 0, 62, 127
2, 198648, Note_off_c, 0, 62, 64
2, 198660, Note_on_c, 0, 63, 127
2, 198672, Note_off_c, 0, 68, 64
2, 198672, Note_off_c, 0, 70, 64
2, 198708, Note_off_c, 0, 63, 64
2, 198720, Note_on_c, 0, 70, 127
2, 198720, Note_on_c, 0, 68, 127
2, 198720, Note_on_c, 0, 62, 127
2, 198768, Note_off_c, 0, 62, 64
2, 198780, Note_on_c, 0, 63, 127
2, 198828, Note_off_c, 0, 63, 64
2, 198840, Note_on_c, 0, 62, 127
2, 198888, Note_off_c, 0, 62, 64
2, 198900, Note_on_c, 0, 63, 127
2, 198912, Note_off_c, 0, 68, 64
2, 198912, Note_off_c, 0, 70, 64
2, 198948, Note_off_c, 0, 63, 64
2, 198960, Note_on_c, 0, 62, 127
2, 198960, Note_on_c, 0, 68, 127
2, 198960, Note_on_c, 0, 70, 127
2, 199008, Note_off_c, 0, 62, 64
2, 199020, Note_on_c, 0, 63, 127
2, 199068, Note_off_c, 0, 63, 64
2, 199080, Note_on_c, 0, 62, 127
2, 199128, Note_off_c, 0, 62, 64
2, 199140, Note_on_c, 0, 63, 127
2, 199152, Note_off_c, 0, 68, 64
2, 199152, Note_off_c, 0, 70, 64
2, 199188, Note_off_c, 0, 63, 64
2, 199200, Note_on_c, 0, 60, 127
2, 199200, Note_on_c, 0, 70, 127
2, 199200, Note_on_c, 0, 68, 127
2, 199296, Note_off_c, 0, 60, 64
2, 199320, Note_on_c, 0, 62, 127
2, 199392, Note_off_c, 0, 70, 64
2, 199392, Note_off_c, 0, 68, 64
2, 199416, Note_off_c, 0, 62, 64
2, 199440, Note_on_c, 0, 63, 127
2, 199440, Note_on_c, 0, 70, 127
2, 199440, Note_on_c, 0, 67, 127
2, 199632, Note_off_c, 0, 67, 64
2, 199632, Note_off_c, 0, 70, 64
2, 199680, Note_on_c, 0, 70, 127
2, 199680, Note_on_c, 0, 67, 127
2, 199824, Note_off_c, 0, 63, 64
2, 199872, Note_off_c, 0, 70, 64
2, 199872, Note_off_c, 0, 67, 64
2, 199920, Note_on_c, 0, 70, 127
2, 199920, Note_on_c, 0, 67, 127
2, 200112, Note_off_c, 0, 67, 64
2, 200112, Note_off_c, 0, 70, 64
2, 200160, Note_on_c, 0, 70, 127
2, 200160, Note_on_c, 0, 67, 127
2, 200352, Note_off_c, 0, 67, 64
2, 200352, Note_off_c, 0, 70, 64
2, 200400, Note_on_c, 0, 56, 127
2, 200400, Note_on_c, 0, 63, 127
2, 200400, Note_on_c, 0, 60, 127
2, 200400, Note_on_c, 0, 72, 127
2, 200592, Note_off_c, 0, 60, 64
2, 200592, Note_off_c, 0, 63, 64
2, 200592, Note_off_c, 0, 56, 64
2, 200640, Note_on_c, 0, 60, 127
2, 200640, Note_on_c, 0, 56, 127
2, 200640, Note_on_c, 0, 63, 127
2, 200784, Note_off_c, 0, 72, 64
2, 200832, Note_off_c, 0, 60, 64
2, 200832, Note_off_c, 0, 56, 64
2, 200832, Note_off_c, 0, 63, 64
2, 200880, Note_on_c, 0, 63, 127
2, 200880, Note_on_c, 0, 60, 127
2, 200880, Note_on_c, 0, 56, 127
2, 200880, Note_on_c, 0, 75, 127
2, 201072, Note_off_c, 0, 75, 64
2, 201072, Note_off_c, 0, 56, 64
2, 201072, Note_off_c, 0, 60, 64
2, 201072, Note_off_c, 0, 63, 64
2, 201120, Note_on_c, 0, 56, 127
2, 201120, Note_on_c, 0, 63, 127
2, 201120, Note_on_c, 0, 60, 127
2, 201120, Note_on_c, 0, 75, 127
2, 201312, Note_off_c, 0, 75, 64
2, 201312, Note_off_c, 0, 60, 64
2, 201312, Note_off_c, 0, 63, 64
2, 201312, Note_off_c, 0, 56, 64
2, 201360, Note_on_c, 0, 56, 127
2, 201360, Note_on_c, 0, 63, 127
2, 201360, Note_on_c, 0, 60, 127
2, 201360, Note_on_c, 0, 80, 127
2, 201552, Note_off_c, 0, 80, 64
2, 201552, Note_off_c, 0, 60, 64
2, 201552, Note_off_c, 0, 63, 64
2, 201552, Note_off_c, 0, 56, 64
2, 201600, Note_on_c, 0, 56, 127
2, 201600, Note_on_c, 0, 63, 127
2, 201600, Note_on_c, 0, 60, 127
2, 201600, Note_on_c, 0, 80, 127
2, 201792, Note_off_c, 0, 80, 64
2, 201792, Note_off_c, 0, 60, 64
2, 201792, Note_off_c, 0, 63, 64
2, 201792, Note_off_c, 0, 56, 64
2, 201840, Note_on_c, 0, 63, 127
2, 201840, Note_on_c, 0, 56, 127
2, 201840, Note_on_c, 0, 60, 127
2, 201840, Note_on_c, 0, 84, 127
2, 202032, Note_off_c, 0, 60, 64
2, 202032, Note_off_c, 0, 56, 64
2, 202032, Note_off_c, 0, 63, 64
2, 202080, Note_on_c, 0, 56, 127
2, 202080, Note_on_c, 0, 60, 127
2, 202080, Note_on_c, 0, 63, 127
2, 202224, Note_off_c, 0, 84, 64
2, 202272, Note_off_c, 0, 56, 64
2, 202272, Note_off_c, 0, 60, 64
2, 202272, Note_off_c, 0, 63, 64
2, 202320, Note_on_c, 0, 55, 127
2, 202320, Note_on_c, 0, 63, 127
2, 202320, Note_on_c, 0, 61, 127
2, 202320, Note_on_c, 0, 58, 127
2, 202320, Note_on_c, 0, 87, 127
2, 202416, Note_off_c, 0, 87, 64
2, 202440, Note_on_c, 0, 85, 127
2, 202512, Note_off_c, 0, 58, 64
2, 202512, Note_off_c, 0, 61, 64
2, 202512, Note_off_c, 0, 63, 64
2, 202512, Note_off_c, 0, 55, 64
2, 202536, Note_off_c, 0, 85, 64
2, 202560, Note_on_c, 0, 55, 127
2, 202560, Note_on_c, 0, 63, 127
2, 202560, Note_on_c, 0, 58, 127
2, 202560, Note_on_c, 0, 61, 127
2, 202560, Note_on_c, 0, 87, 127
2, 202656, Note_off_c, 0, 87, 64
2, 202680, Note_on_c, 0, 85, 127
2, 202752, Note_off_c, 0, 61, 64
2, 202752, Note_off_c, 0, 58, 64
2, 202752, Note_off_c, 0, 63, 64
2, 202752, Note_off_c, 0, 55, 64
2, 202776, Note_off_c, 0, 85, 64
2, 202800, Note_on_c, 0, 63, 127
2, 202800, Note_on_c, 0, 61, 127
2, 202800, Note_on_c, 0, 58, 127
2, 202800, Note_on_c, 0, 55, 127
2, 202800, Note_on_c, 0, 82, 127
2, 202992, Note_off_c, 0, 55, 64
2, 202992, Note_off_c, 0, 58, 64
2, 202992, Note_off_c, 0, 61, 64
2, 202992, Note_off_c, 0, 63, 64
2, 203040, Note_on_c, 0, 58, 127
2, 203040, Note_on_c, 0, 63, 127
2, 203040, Note_on_c, 0, 55, 127
2, 203040, Note_on_c, 0, 61, 127
2, 203184, Note_off_c, 0, 82, 64
2, 203232, Note_off_c, 0, 58, 64
2, 203232, Note_off_c, 0, 63, 64
2, 203232, Note_off_c, 0, 55, 64
2, 203232, Note_off_c, 0, 61, 64
2, 203280, Note_on_c, 0, 55, 127
2, 203280, Note_on_c, 0, 63, 127
2, 203280, Note_on_c, 0, 61, 127
2, 203280, Note_on_c, 0, 58, 127
2, 203280, Note_on_c, 0, 87, 127
2, 203376, Note_off_c, 0, 87, 64
2, 203400, Note_on_c, 0, 85, 127
2, 203472, Note_off_c, 0, 58, 64
2, 203472, Note_off_c, 0, 61, 64
2, 203472, Note_off_c, 0, 63, 64
2, 203472, Note_off_c, 0, 55, 64
2, 203496, Note_off_c, 0, 85, 64
2, 203520, Note_on_c, 0, 55, 127
2, 203520, Note_on_c, 0, 58, 127
2, 203520, Note_on_c, 0, 61, 127
2, 203520, Note_on_c, 0, 63, 127
2, 203520, Note_on_c, 0, 87, 127
2, 203616, Note_off_c, 0, 87, 64
2, 203640, Note_on_c, 0, 85, 127
2, 203712, Note_off_c, 0, 63, 64
2, 203712, Note_off_c, 0, 61, 64
2, 203712, Note_off_c, 0, 58, 64
2, 203712, Note_off_c, 0, 55, 64
2, 203736, Note_off_c, 0, 85, 64
2, 203760, Note_on_c, 0, 61, 127
2, 203760, Note_on_c, 0, 55, 127
2, 203760, Note_on_c, 0, 58, 127
2, 203760, Note_on_c, 0, 63, 127
2, 203760, Note_on_c, 0, 82, 127
2, 203952, Note_off_c, 0, 63, 64
2, 203952, Note_off_c, 0, 58, 64
2, 203952, Note_off_c, 0, 55, 64
2, 203952, Note_off_c, 0, 61, 64
2, 204000, Note_on_c, 0, 63, 127
2, 204000, Note_on_c, 0, 55, 127
2, 204000, Note_on_c, 0, 61, 127
2, 204000, Note_on_c, 0, 58, 127
2, 204144, Note_off_c, 0, 82, 64
2, 204192, Note_off_c, 0, 63, 64
2, 204192, Note_off_c, 0, 55, 64
2, 204192, Note_off_c, 0, 61, 64
2, 204192, Note_off_c, 0, 58, 64
2, 204240, Note_on_c, 0, 44, 127
2, 204360, Note_on_c, 0, 84, 127
2, 204456, Note_off_c, 0, 84, 64
2, 204480, Note_on_c, 0, 80, 127
2, 204576, Note_off_c, 0, 80, 64
2, 204600, Note_on_c, 0, 75, 127
2, 204624, Note_off_c, 0, 44, 64
2, 204696, Note_off_c, 0, 75, 64
2, 204720, Note_on_c, 0, 48, 127
2, 204720, Note_on_c, 0, 72, 127
2, 204816, Note_off_c, 0, 72, 64
2, 204840, Note_on_c, 0, 80, 127
2, 204912, Note_off_c, 0, 48, 64
2, 204936, Note_off_c, 0, 80, 64
2, 204960, Note_on_c, 0, 48, 127
2, 204960, Note_on_c, 0, 75, 127
2, 205056, Note_off_c, 0, 75, 64
2, 205080, Note_on_c, 0, 72, 127
2, 205152, Note_off_c, 0, 48, 64
2, 205176, Note_off_c, 0, 72, 64
2, 205200, Note_on_c, 0, 68, 127
2, 205200, Note_on_c, 0, 51, 127
2, 205296, Note_off_c, 0, 68, 64
2, 205320, Note_on_c, 0, 72, 127
2, 205392, Note_off_c, 0, 51, 64
2, 205416, Note_off_c, 0, 72, 64
2, 205440, Note_on_c, 0, 51, 127
2, 205440, Note_on_c, 0, 68, 127
2, 205536, Note_off_c, 0, 68, 64
2, 205560, Note_on_c, 0, 63, 127
2, 205632, Note_off_c, 0, 51, 64
2, 205656, Note_off_c, 0, 63, 64
2, 205680, Note_on_c, 0, 56, 127
2, 205680, Note_on_c, 0, 60, 127
2, 205776, Note_off_c, 0, 60, 64
2, 205800, Note_on_c, 0, 68, 127
2, 205896, Note_off_c, 0, 68, 64
2, 205920, Note_on_c, 0, 63, 127
2, 206016, Note_off_c, 0, 63, 64
2, 206040, Note_on_c, 0, 60, 127
2, 206064, Note_off_c, 0, 56, 64
2, 206136, Note_off_c, 0, 60, 64
2, 206160, Note_on_c, 0, 58, 127
2, 206280, Note_on_c, 0, 67, 127
2, 206376, Note_off_c, 0, 67, 64
2, 206400, Note_on_c, 0, 72, 127
2, 206496, Note_off_c, 0, 72, 64
2, 206520, Note_on_c, 0, 76, 127
2, 206544, Note_off_c, 0, 58, 64
2, 206616, Note_off_c, 0, 76, 64
2, 206640, Note_on_c, 0, 55, 127
2, 206640, Note_on_c, 0, 79, 127
2, 206736, Note_off_c, 0, 79, 64
2, 206760, Note_on_c, 0, 72, 127
2, 206832, Note_off_c, 0, 55, 64
2, 206856, Note_off_c, 0, 72, 64
2, 206880, Note_on_c, 0, 55, 127
2, 206880, Note_on_c, 0, 76, 127
2, 206976, Note_off_c, 0, 76, 64
2, 207000, Note_on_c, 0, 79, 127
2, 207072, Note_off_c, 0, 55, 64
2, 207096, Note_off_c, 0, 79, 64
2, 207120, Note_on_c, 0, 84, 127
2, 207120, Note_on_c, 0, 52, 127
2, 207216, Note_off_c, 0, 84, 64
2, 207240, Note_on_c, 0, 76, 127
2, 207312, Note_off_c, 0, 52, 64
2, 207336, Note_off_c, 0, 76, 64
2, 207360, Note_on_c, 0, 52, 127
2, 207360, Note_on_c, 0, 79, 127
2, 207456, Note_off_c, 0, 79, 64
2, 207480, Note_on_c, 0, 84, 127
2, 207552, Note_off_c, 0, 52, 64
2, 207576, Note_off_c, 0, 84, 64
2, 207600, Note_on_c, 0, 46, 127
2, 207600, Note_on_c, 0, 88, 127
2, 207696, Note_off_c, 0, 88, 64
2, 207720, Note_on_c, 0, 79, 127
2, 207816, Note_off_c, 0, 79, 64
2, 207840, Note_on_c, 0, 84, 127
2, 207936, Note_off_c, 0, 84, 64
2, 207960, Note_on_c, 0, 88, 127
2, 207984, Note_off_c, 0, 46, 64
2, 208056, Note_off_c, 0, 88, 64
2, 208080, Note_on_c, 0, 44, 127
2, 208200, Note_on_c, 0, 89, 127
2, 208296, Note_off_c, 0, 89, 64
2, 208320, Note_on_c, 0, 84, 127
2, 208416, Note_off_c, 0, 84, 64
2, 208440, Note_on_c, 0, 80, 127
2, 208464, Note_off_c, 0, 44, 64
2, 208536, Note_off_c, 0, 80, 64
2, 208560, Note_on_c, 0, 48, 127
2, 208560, Note_on_c, 0, 77, 127
2, 208656, Note_off_c, 0, 77, 64
2, 208680, Note_on_c, 0, 84, 127
2, 208752, Note_off_c, 0, 48, 64
2, 208776, Note_off_c, 0, 84, 64
2, 208800, Note_on_c, 0, 48, 127
2, 208800, Note_on_c, 0, 80, 127
2, 208896, Note_off_c, 0, 80, 64
2, 208920, Note_on_c, 0, 77, 127
2, 208992, Note_off_c, 0, 48, 64
2, 209016, Note_off_c, 0, 77, 64
2, 209040, Note_on_c, 0, 72, 127
2, 209040, Note_on_c, 0, 53, 127
2, 209136, Note_off_c, 0, 72, 64
2, 209160, Note_on_c, 0, 77, 127
2, 209232, Note_off_c, 0, 53, 64
2, 209256, Note_off_c, 0, 77, 64
2, 209280, Note_on_c, 0, 53, 127
2, 209280, Note_on_c, 0, 72, 127
2, 209376, Note_off_c, 0, 72, 64
2, 209400, Note_on_c, 0, 68, 127
2, 209472, Note_off_c, 0, 53, 64
2, 209496, Note_off_c, 0, 68, 64
2, 209520, Note_on_c, 0, 56, 127
2, 209520, Note_on_c, 0, 65, 127
2, 209616, Note_off_c, 0, 65, 64
2, 209640, Note_on_c, 0, 72, 127
2, 209736, Note_off_c, 0, 72, 64
2, 209760, Note_on_c, 0, 68, 127
2, 209856, Note_off_c, 0, 68, 64
2, 209880, Note_on_c, 0, 65, 127
2, 209904, Note_off_c, 0, 56, 64
2, 209976, Note_off_c, 0, 65, 64
2, 210000, Note_on_c, 0, 54, 127
2, 210120, Note_on_c, 0, 60, 127
2, 210216, Note_off_c, 0, 60, 64
2, 210240, Note_on_c, 0, 63, 127
2, 210336, Note_off_c, 0, 63, 64
2, 210360, Note_on_c, 0, 68, 127
2, 210384, Note_off_c, 0, 54, 64
2, 210456, Note_off_c, 0, 68, 64
2, 210480, Note_on_c, 0, 51, 127
2, 210480, Note_on_c, 0, 72, 127
2, 210576, Note_off_c, 0, 72, 64
2, 210600, Note_on_c, 0, 63, 127
2, 210672, Note_off_c, 0, 51, 64
2, 210696, Note_off_c, 0, 63, 64
2, 210720, Note_on_c, 0, 51, 127
2, 210720, Note_on_c, 0, 68, 127
2, 210816, Note_off_c, 0, 68, 64
2, 210840, Note_on_c, 0, 72, 127
2, 210912, Note_off_c, 0, 51, 64
2, 210936, Note_off_c, 0, 72, 64
2, 210960, Note_on_c, 0, 75, 127
2, 210960, Note_on_c, 0, 48, 127
2, 211056, Note_off_c, 0, 75, 64
2, 211080, Note_on_c, 0, 68, 127
2, 211152, Note_off_c, 0, 48, 64
2, 211176, Note_off_c, 0, 68, 64
2, 211200, Note_on_c, 0, 48, 127
2, 211200, Note_on_c, 0, 72, 127
2, 211296, Note_off_c, 0, 72, 64
2, 211320, Note_on_c, 0, 75, 127
2, 211392, Note_off_c, 0, 48, 64
2, 211416, Note_off_c, 0, 75, 64
2, 211440, Note_on_c, 0, 42, 127
2, 211440, Note_on_c, 0, 80, 127
2, 211536, Note_off_c, 0, 80, 64
2, 211560, Note_on_c, 0, 72, 127
2, 211656, Note_off_c, 0, 72, 64
2, 211680, Note_on_c, 0, 75, 127
2, 211776, Note_off_c, 0, 75, 64
2, 211800, Note_on_c, 0, 80, 127
2, 211824, Note_off_c, 0, 42, 64
2, 211896, Note_off_c, 0, 80, 64
2, 211920, Note_on_c, 0, 73, 127
2, 211920, Note_on_c, 0, 61, 127
2, 212040, Note_on_c, 0, 53, 127
2, 212136, Note_off_c, 0, 53, 64
2, 212160, Note_on_c, 0, 49, 127
2, 212256, Note_off_c, 0, 49, 64
2, 212280, Note_on_c, 0, 44, 127
2, 212304, Note_off_c, 0, 61, 64
2, 212304, Note_off_c, 0, 73, 64
2, 212376, Note_off_c, 0, 44, 64
2, 212400, Note_on_c, 0, 41, 127
2, 212400, Note_on_c, 0, 65, 127
2, 212400, Note_on_c, 0, 77, 127
2, 212496, Note_off_c, 0, 41, 64
2, 212520, Note_on_c, 0, 49, 127
2, 212592, Note_off_c, 0, 65, 64
2, 212592, Note_off_c, 0, 77, 64
2, 212616, Note_off_c, 0, 49, 64
2, 212640, Note_on_c, 0, 44, 127
2, 212640, Note_on_c, 0, 65, 127
2, 212640, Note_on_c, 0, 77, 127
2, 212736, Note_off_c, 0, 44, 64
2, 212760, Note_on_c, 0, 41, 127
2, 212832, Note_off_c, 0, 65, 64
2, 212832, Note_off_c, 0, 77, 64
2, 212856, Note_off_c, 0, 41, 64
2, 212880, Note_on_c, 0, 37, 127
2, 212880, Note_on_c, 0, 68, 127
2, 212880, Note_on_c, 0, 80, 127
2, 212976, Note_off_c, 0, 37, 64
2, 213000, Note_on_c, 0, 41, 127
2, 213072, Note_off_c, 0, 68, 64
2, 213072, Note_off_c, 0, 80, 64
2, 213096, Note_off_c, 0, 41, 64
2, 213120, Note_on_c, 0, 37, 127
2, 213120, Note_on_c, 0, 68, 127
2, 213120, Note_on_c, 0, 80, 127
2, 213216, Note_off_c, 0, 37, 64
2, 213240, Note_on_c, 0, 32, 127
2, 213312, Note_off_c, 0, 68, 64
2, 213312, Note_off_c, 0, 80, 64
2, 213336, Note_off_c, 0, 32, 64
2, 213360, Note_on_c, 0, 29, 127
2, 213360, Note_on_c, 0, 73, 127
2, 213360, Note_on_c, 0, 85, 127
2, 213456, Note_off_c, 0, 29, 64
2, 213480, Note_on_c, 0, 32, 127
2, 213576, Note_off_c, 0, 32, 64
2, 213600, Note_on_c, 0, 37, 127
2, 213696, Note_off_c, 0, 37, 64
2, 213720, Note_on_c, 0, 41, 127
2, 213744, Note_off_c, 0, 73, 64
2, 213744, Note_off_c, 0, 85, 64
2, 213816, Note_off_c, 0, 41, 64
2, 213840, Note_on_c, 0, 87, 127
2, 213840, Note_on_c, 0, 75, 127
2, 213840, Note_on_c, 0, 29, 127
2, 213936, Note_off_c, 0, 29, 64
2, 213960, Note_on_c, 0, 33, 127
2, 214056, Note_off_c, 0, 33, 64
2, 214080, Note_on_c, 0, 36, 127
2, 214176, Note_off_c, 0, 36, 64
2, 214200, Note_on_c, 0, 41, 127
2, 214224, Note_off_c, 0, 75, 64
2, 214224, Note_off_c, 0, 87, 64
2, 214296, Note_off_c, 0, 41, 64
2, 214320, Note_on_c, 0, 33, 127
2, 214320, Note_on_c, 0, 75, 127
2, 214320, Note_on_c, 0, 72, 127
2, 214320, Note_on_c, 0, 81, 127
2, 214320, Note_on_c, 0, 84, 127
2, 214416, Note_off_c, 0, 33, 64
2, 214440, Note_on_c, 0, 36, 127
2, 214512, Note_off_c, 0, 75, 64
2, 214512, Note_off_c, 0, 72, 64
2, 214512, Note_off_c, 0, 81, 64
2, 214512, Note_off_c, 0, 84, 64
2, 214536, Note_off_c, 0, 36, 64
2, 214560, Note_on_c, 0, 41, 127
2, 214560, Note_on_c, 0, 72, 127
2, 214560, Note_on_c, 0, 75, 127
2, 214560, Note_on_c, 0, 81, 127
2, 214560, Note_on_c, 0, 84, 127
2, 214656, Note_off_c, 0, 41, 64
2, 214680, Note_on_c, 0, 45, 127
2, 214752, Note_off_c, 0, 72, 64
2, 214752, Note_off_c, 0, 75, 64
2, 214752, Note_off_c, 0, 81, 64
2, 214752, Note_off_c, 0, 84, 64
2, 214776, Note_off_c, 0, 45, 64
2, 214800, Note_on_c, 0, 75, 127
2, 214800, Note_on_c, 0, 72, 127
2, 214800, Note_on_c, 0, 81, 127
2, 214800, Note_on_c, 0, 36, 127
2, 214800, Note_on_c, 0, 69, 127
2, 214896, Note_off_c, 0, 36, 64
2, 214920, Note_on_c, 0, 41, 127
2, 214992, Note_off_c, 0, 81, 64
2, 214992, Note_off_c, 0, 72, 64
2, 214992, Note_off_c, 0, 75, 64
2, 214992, Note_off_c, 0, 69, 64
2, 215016, Note_off_c, 0, 41, 64
2, 215040, Note_on_c, 0, 72, 127
2, 215040, Note_on_c, 0, 81, 127
2, 215040, Note_on_c, 0, 69, 127
2, 215040, Note_on_c, 0, 45, 127
2, 215040, Note_on_c, 0, 75, 127
2, 215136, Note_off_c, 0, 45, 64
2, 215160, Note_on_c, 0, 48, 127
2, 215232, Note_off_c, 0, 69, 64
2, 215232, Note_off_c, 0, 81, 64
2, 215232, Note_off_c, 0, 72, 64
2, 215232, Note_off_c, 0, 75, 64
2, 215256, Note_off_c, 0, 48, 64
2, 215280, Note_on_c, 0, 41, 127
2, 215280, Note_on_c, 0, 63, 127
2, 215280, Note_on_c, 0, 75, 127
2, 215376, Note_off_c, 0, 41, 64
2, 215400, Note_on_c, 0, 45, 127
2, 215496, Note_off_c, 0, 45, 64
2, 215520, Note_on_c, 0, 48, 127
2, 215616, Note_off_c, 0, 48, 64
2, 215640, Note_on_c, 0, 53, 127
2, 215664, Note_off_c, 0, 63, 64
2, 215664, Note_off_c, 0, 75, 64
2, 215736, Note_off_c, 0, 53, 64
2, 215760, Note_on_c, 0, 73, 127
2, 215760, Note_on_c, 0, 46, 127
2, 215856, Note_off_c, 0, 46, 64
2, 215880, Note_on_c, 0, 53, 127
2, 215976, Note_off_c, 0, 53, 64
2, 216000, Note_on_c, 0, 49, 127
2, 216096, Note_off_c, 0, 49, 64
2, 216120, Note_on_c, 0, 46, 127
2, 216144, Note_off_c, 0, 73, 64
2, 216216, Note_off_c, 0, 46, 64
2, 216240, Note_on_c, 0, 41, 127
2, 216240, Note_on_c, 0, 77, 127
2, 216336, Note_off_c, 0, 41, 64
2, 216360, Note_on_c, 0, 49, 127
2, 216432, Note_off_c, 0, 77, 64
2, 216456, Note_off_c, 0, 49, 64
2, 216480, Note_on_c, 0, 46, 127
2, 216480, Note_on_c, 0, 77, 127
2, 216576, Note_off_c, 0, 46, 64
2, 216600, Note_on_c, 0, 41, 127
2, 216672, Note_off_c, 0, 77, 64
2, 216696, Note_off_c, 0, 41, 64
2, 216720, Note_on_c, 0, 82, 127
2, 216720, Note_on_c, 0, 37, 127
2, 216816, Note_off_c, 0, 37, 64
2, 216840, Note_on_c, 0, 46, 127
2, 216912, Note_off_c, 0, 82, 64
2, 216936, Note_off_c, 0, 46, 64
2, 216960, Note_on_c, 0, 82, 127
2, 216960, Note_on_c, 0, 41, 127
2, 217056, Note_off_c, 0, 41, 64
2, 217080, Note_on_c, 0, 37, 127
2, 217152, Note_off_c, 0, 82, 64
2, 217176, Note_off_c, 0, 37, 64
2, 217200, Note_on_c, 0, 34, 127
2, 217200, Note_on_c, 0, 85, 127
2, 217296, Note_off_c, 0, 34, 64
2, 217320, Note_on_c, 0, 37, 127
2, 217416, Note_off_c, 0, 37, 64
2, 217440, Note_on_c, 0, 41, 127
2, 217536, Note_off_c, 0, 41, 64
2, 217560, Note_on_c, 0, 46, 127
2, 217584, Note_off_c, 0, 85, 64
2, 217656, Note_off_c, 0, 46, 64
2, 217680, Note_on_c, 0, 83, 127
2, 217680, Note_on_c, 0, 37, 127
2, 217776, Note_off_c, 0, 37, 64
2, 217800, Note_on_c, 0, 41, 127
2, 217896, Note_off_c, 0, 41, 64
2, 217920, Note_on_c, 0, 44, 127
2, 218016, Note_off_c, 0, 44, 64
2, 218040, Note_on_c, 0, 49, 127
2, 218064, Note_off_c, 0, 83, 64
2, 218136, Note_off_c, 0, 49, 64
2, 218160, Note_on_c, 0, 41, 127
2, 218160, Note_on_c, 0, 80, 127
2, 218256, Note_off_c, 0, 41, 64
2, 218280, Note_on_c, 0, 44, 127
2, 218352, Note_off_c, 0, 80, 64
2, 218376, Note_off_c, 0, 44, 64
2, 218400, Note_on_c, 0, 49, 127
2, 218400, Note_on_c, 0, 80, 127
2, 218496, Note_off_c, 0, 49, 64
2, 218520, Note_on_c, 0, 53, 127
2, 218592, Note_off_c, 0, 80, 64
2, 218616, Note_off_c, 0, 53, 64
2, 218640, Note_on_c, 0, 77, 127
2, 218640, Note_on_c, 0, 44, 127
2, 218736, Note_off_c, 0, 44, 64
2, 218760, Note_on_c, 0, 49, 127
2, 218832, Note_off_c, 0, 77, 64
2, 218856, Note_off_c, 0, 49, 64
2, 218880, Note_on_c, 0, 77, 127
2, 218880, Note_on_c, 0, 53, 127
2, 218976, Note_off_c, 0, 53, 64
2, 219000, Note_on_c, 0, 56, 127
2, 219072, Note_off_c, 0, 77, 64
2, 219096, Note_off_c, 0, 56, 64
2, 219120, Note_on_c, 0, 49, 127
2, 219120, Note_on_c, 0, 71, 127
2, 219216, Note_off_c, 0, 49, 64
2, 219240, Note_on_c, 0, 53, 127
2, 219336, Note_off_c, 0, 53, 64
2, 219360, Note_on_c, 0, 56, 127
2, 219456, Note_off_c, 0, 56, 64
2, 219480, Note_on_c, 0, 61, 127
2, 219504, Note_off_c, 0, 71, 64
2, 219576, Note_off_c, 0, 61, 64
2, 219600, Note_on_c, 0, 70, 127
2, 219600, Note_on_c, 0, 54, 127
2, 219696, Note_off_c, 0, 54, 64
2, 219720, Note_on_c, 0, 61, 127
2, 219816, Note_off_c, 0, 61, 64
2, 219840, Note_on_c, 0, 58, 127
2, 219936, Note_off_c, 0, 58, 64
2, 219960, Note_on_c, 0, 54, 127
2, 219984, Note_off_c, 0, 70, 64
2, 220056, Note_off_c, 0, 54, 64
2, 220080, Note_on_c, 0, 49, 127
2, 220080, Note_on_c, 0, 73, 127
2, 220176, Note_off_c, 0, 49, 64
2, 220200, Note_on_c, 0, 58, 127
2, 220272, Note_off_c, 0, 73, 64
2, 220296, Note_off_c, 0, 58, 64
2, 220320, Note_on_c, 0, 54, 127
2, 220320, Note_on_c, 0, 73, 127
2, 220416, Note_off_c, 0, 54, 64
2, 220440, Note_on_c, 0, 49, 127
2, 220512, Note_off_c, 0, 73, 64
2, 220536, Note_off_c, 0, 49, 64
2, 220560, Note_on_c, 0, 78, 127
2, 220560, Note_on_c, 0, 46, 127
2, 220656, Note_off_c, 0, 46, 64
2, 220680, Note_on_c, 0, 54, 127
2, 220752, Note_off_c, 0, 78, 64
2, 220776, Note_off_c, 0, 54, 64
2, 220800, Note_on_c, 0, 78, 127
2, 220800, Note_on_c, 0, 49, 127
2, 220896, Note_off_c, 0, 49, 64
2, 220920, Note_on_c, 0, 46, 127
2, 220992, Note_off_c, 0, 78, 64
2, 221016, Note_off_c, 0, 46, 64
2, 221040, Note_on_c, 0, 42, 127
2, 221040, Note_on_c, 0, 82, 127
2, 221136, Note_off_c, 0, 42, 64
2, 221160, Note_on_c, 0, 46, 127
2, 221256, Note_off_c, 0, 46, 64
2, 221280, Note_on_c, 0, 49, 127
2, 221376, Note_off_c, 0, 49, 64
2, 221400, Note_on_c, 0, 54, 127
2, 221424, Note_off_c, 0, 82, 64
2, 221496, Note_off_c, 0, 54, 64
2, 221520, Note_on_c, 0, 85, 127
2, 221520, Note_on_c, 0, 40, 127
2, 221616, Note_off_c, 0, 40, 64
2, 221640, Note_on_c, 0, 43, 127
2, 221736, Note_off_c, 0, 43, 64
2, 221760, Note_on_c, 0, 46, 127
2, 221856, Note_off_c, 0, 46, 64
2, 221880, Note_on_c, 0, 49, 127
2, 221904, Note_off_c, 0, 85, 64
2, 221976, Note_off_c, 0, 49, 64
2, 222000, Note_on_c, 0, 43, 127
2, 222000, Note_on_c, 0, 82, 127
2, 222096, Note_off_c, 0, 43, 64
2, 222120, Note_on_c, 0, 46, 127
2, 222192, Note_off_c, 0, 82, 64
2, 222216, Note_off_c, 0, 46, 64
2, 222240, Note_on_c, 0, 49, 127
2, 222240, Note_on_c, 0, 82, 127
2, 222336, Note_off_c, 0, 49, 64
2, 222360, Note_on_c, 0, 52, 127
2, 222432, Note_off_c, 0, 82, 64
2, 222456, Note_off_c, 0, 52, 64
2, 222480, Note_on_c, 0, 79, 127
2, 222480, Note_on_c, 0, 43, 127
2, 222576, Note_off_c, 0, 43, 64
2, 222600, Note_on_c, 0, 46, 127
2, 222672, Note_off_c, 0, 79, 64
2, 222696, Note_off_c, 0, 46, 64
2, 222720, Note_on_c, 0, 79, 127
2, 222720, Note_on_c, 0, 49, 127
2, 222816, Note_off_c, 0, 49, 64
2, 222840, Note_on_c, 0, 52, 127
2, 222912, Note_off_c, 0, 79, 64
2, 222936, Note_off_c, 0, 52, 64
2, 222960, Note_on_c, 0, 43, 127
2, 222960, Note_on_c, 0, 76, 127
2, 223056, Note_off_c, 0, 43, 64
2, 223080, Note_on_c, 0, 46, 127
2, 223176, Note_off_c, 0, 46, 64
2, 223200, Note_on_c, 0, 49, 127
2, 223296, Note_off_c, 0, 49, 64
2, 223320, Note_on_c, 0, 52, 127
2, 223344, Note_off_c, 0, 76, 64
2, 223416, Note_off_c, 0, 52, 64
2, 223440, Note_on_c, 0, 87, 127
2, 223560, Note_on_c, 0, 41, 127
2, 223656, Note_off_c, 0, 41, 64
2, 223680, Note_on_c, 0, 45, 127
2, 223776, Note_off_c, 0, 45, 64
2, 223800, Note_on_c, 0, 48, 127
2, 223824, Note_off_c, 0, 87, 64
2, 223896, Note_off_c, 0, 48, 64
2, 223920, Note_on_c, 0, 41, 127
2, 223920, Note_on_c, 0, 84, 127
2, 224016, Note_off_c, 0, 41, 64
2, 224040, Note_on_c, 0, 45, 127
2, 224112, Note_off_c, 0, 84, 64
2, 224136, Note_off_c, 0, 45, 64
2, 224160, Note_on_c, 0, 48, 127
2, 224160, Note_on_c, 0, 84, 127
2, 224256, Note_off_c, 0, 48, 64
2, 224280, Note_on_c, 0, 53, 127
2, 224352, Note_off_c, 0, 84, 64
2, 224376, Note_off_c, 0, 53, 64
2, 224400, Note_on_c, 0, 81, 127
2, 224400, Note_on_c, 0, 41, 127
2, 224496, Note_off_c, 0, 41, 64
2, 224520, Note_on_c, 0, 45, 127
2, 224592, Note_off_c, 0, 81, 64
2, 224616, Note_off_c, 0, 45, 64
2, 224640, Note_on_c, 0, 81, 127
2, 224640, Note_on_c, 0, 48, 127
2, 224736, Note_off_c, 0, 48, 64
2, 224760, Note_on_c, 0, 51, 127
2, 224832, Note_off_c, 0, 81, 64
2, 224856, Note_off_c, 0, 51, 64
2, 224880, Note_on_c, 0, 41, 127
2, 224880, Note_on_c, 0, 77, 127
2, 224976, Note_off_c, 0, 41, 64
2, 225000, Note_on_c, 0, 45, 127
2, 225072, Note_off_c, 0, 77, 64
2, 225096, Note_off_c, 0, 45, 64
2, 225120, Note_on_c, 0, 48, 127
2, 225120, Note_on_c, 0, 77, 127
2, 225216, Note_off_c, 0, 48, 64
2, 225240, Note_on_c, 0, 51, 127
2, 225312, Note_off_c, 0, 77, 64
2, 225336, Note_off_c, 0, 51, 64
2, 225360, Note_on_c, 0, 41, 127
2, 225360, Note_on_c, 0, 75, 127
2, 225456, Note_off_c, 0, 75, 64
2, 225480, Note_on_c, 0, 57, 127
2, 225576, Note_off_c, 0, 57, 64
2, 225600, Note_on_c, 0, 58, 127
2, 225696, Note_off_c, 0, 58, 64
2, 225720, Note_on_c, 0, 60, 127
2, 225744, Note_off_c, 0, 41, 64
2, 225816, Note_off_c, 0, 60, 64
2, 225840, Note_on_c, 0, 62, 127
2, 225936, Note_off_c, 0, 62, 64
2, 225960, Note_on_c, 0, 63, 127
2, 226056, Note_off_c, 0, 63, 64
2, 226080, Note_on_c, 0, 65, 127
2, 226176, Note_off_c, 0, 65, 64
2, 226200, Note_on_c, 0, 67, 127
2, 226296, Note_off_c, 0, 67, 64
2, 226320, Note_on_c, 0, 69, 127
2, 226416, Note_off_c, 0, 69, 64
2, 226440, Note_on_c, 0, 70, 127
2, 226536, Note_off_c, 0, 70, 64
2, 226560, Note_on_c, 0, 72, 127
2, 226656, Note_off_c, 0, 72, 64
2, 226680, Note_on_c, 0, 74, 127
2, 226776, Note_off_c, 0, 74, 64
2, 226800, Note_on_c, 0, 75, 127
2, 226896, Note_off_c, 0, 75, 64
2, 226920, Note_on_c, 0, 77, 127
2, 227016, Note_off_c, 0, 77, 64
2, 227040, Note_on_c, 0, 79, 127
2, 227136, Note_off_c, 0, 79, 64
2, 227160, Note_on_c, 0, 81, 127
2, 227256, Note_off_c, 0, 81, 64
2, 227280, Note_on_c, 0, 82, 127
2, 227376, Note_off_c, 0, 82, 64
2, 227400, Note_on_c, 0, 84, 127
2, 227496, Note_off_c, 0, 84, 64
2, 227520, Note_on_c, 0, 86, 127
2, 227616, Note_off_c, 0, 86, 64
2, 227640, Note_on_c, 0, 87, 127
2, 227736, Note_off_c, 0, 87, 64
2, 227760, Note_on_c, 0, 89, 127
2, 227856, Note_off_c, 0, 89, 64
2, 227880, Note_on_c, 0, 87, 127
2, 227976, Note_off_c, 0, 87, 64
2, 228000, Note_on_c, 0, 86, 127
2, 228096, Note_off_c, 0, 86, 64
2, 228120, Note_on_c, 0, 84, 127
2, 228216, Note_off_c, 0, 84, 64
2, 228240, Note_on_c, 0, 82, 127
2, 228336, Note_off_c, 0, 82, 64
2, 228360, Note_on_c, 0, 81, 127
2, 228456, Note_off_c, 0, 81, 64
2, 228480, Note_on_c, 0, 79, 127
2, 228576, Note_off_c, 0, 79, 64
2, 228600, Note_on_c, 0, 77, 127
2, 228696, Note_off_c, 0, 77, 64
2, 228720, Note_on_c, 0, 75, 127
2, 228816, Note_off_c, 0, 75, 64
2, 228840, Note_on_c, 0, 74, 127
2, 228936, Note_off_c, 0, 74, 64
2, 228960, Note_on_c, 0, 72, 127
2, 229056, Note_off_c, 0, 72, 64
2, 229080, Note_on_c, 0, 70, 127
2, 229176, Note_off_c, 0, 70, 64
2, 229200, Note_on_c, 0, 69, 127
2, 229296, Note_off_c, 0, 69, 64
2, 229320, Note_on_c, 0, 67, 127
2, 229416, Note_off_c, 0, 67, 64
2, 229440, Note_on_c, 0, 65, 127
2, 229536, Note_off_c, 0, 65, 64
2, 229560, Note_on_c, 0, 63, 127
2, 229656, Note_off_c, 0, 63, 64
2, 229680, Note_on_c, 0, 62, 127
2, 229776, Note_off_c, 0, 62, 64
2, 229800, Note_on_c, 0, 60, 127
2, 229896, Note_off_c, 0, 60, 64
2, 229920, Note_on_c, 0, 58, 127
2, 230016, Note_off_c, 0, 58, 64
2, 230040, Note_on_c, 0, 57, 127
2, 230136, Note_off_c, 0, 57, 64
2, 230160, Note_on_c, 0, 55, 127
2, 230256, Note_off_c, 0, 55, 64
2, 230280, Note_on_c, 0, 53, 127
2, 230376, Note_off_c, 0, 53, 64
2, 230400, Note_on_c, 0, 51, 127
2, 230496, Note_off_c, 0, 51, 64
2, 230520, Note_on_c, 0, 50, 127
2, 230616, Note_off_c, 0, 50, 64
2, 230640, Note_on_c, 0, 48, 127
2, 230736, Note_off_c, 0, 48, 64
2, 230760, Note_on_c, 0, 46, 127
2, 230856, Note_off_c, 0, 46, 64
2, 230880, Note_on_c, 0, 45, 127
2, 230976, Note_off_c, 0, 45, 64
2, 231000, Note_on_c, 0, 43, 127
2, 231096, Note_off_c, 0, 43, 64
2, 231120, Note_on_c, 0, 41, 127
2, 231216, Note_off_c, 0, 41, 64
2, 231240, Note_on_c, 0, 43, 127
2, 231336, Note_off_c, 0, 43, 64
2, 231360, Note_on_c, 0, 45, 127
2, 231456, Note_off_c, 0, 45, 64
2, 231480, Note_on_c, 0, 46, 127
2, 231576, Note_off_c, 0, 46, 64
2, 231600, Note_on_c, 0, 48, 127
2, 231696, Note_off_c, 0, 48, 64
2, 231720, Note_on_c, 0, 50, 127
2, 231816, Note_off_c, 0, 50, 64
2, 231840, Note_on_c, 0, 51, 127
2, 231936, Note_off_c, 0, 51, 64
2, 231960, Note_on_c, 0, 53, 127
2, 232056, Note_off_c, 0, 53, 64
2, 232080, Note_on_c, 0, 55, 127
2, 232176, Note_off_c, 0, 55, 64
2, 232200, Note_on_c, 0, 57, 127
2, 232296, Note_off_c, 0, 57, 64
2, 232320, Note_on_c, 0, 58, 127
2, 232416, Note_off_c, 0, 58, 64
2, 232440, Note_on_c, 0, 60, 127
2, 232536, Note_off_c, 0, 60, 64
2, 232560, Note_on_c, 0, 62, 127
2, 232656, Note_off_c, 0, 62, 64
2, 232680, Note_on_c, 0, 63, 127
2, 232776, Note_off_c, 0, 63, 64
2, 232800, Note_on_c, 0, 65, 127
2, 232896, Note_off_c, 0, 65, 64
2, 232920, Note_on_c, 0, 67, 127
2, 233016, Note_off_c, 0, 67, 64
2, 233040, Note_on_c, 0, 69, 127
2, 233136, Note_off_c, 0, 69, 64
2, 233160, Note_on_c, 0, 70, 127
2, 233256, Note_off_c, 0, 70, 64
2, 233280, Note_on_c, 0, 72, 127
2, 233376, Note_off_c, 0, 72, 64
2, 233400, Note_on_c, 0, 74, 127
2, 233496, Note_off_c, 0, 74, 64
2, 233520, Note_on_c, 0, 75, 127
2, 233616, Note_off_c, 0, 75, 64
2, 233640, Note_on_c, 0, 77, 127
2, 233736, Note_off_c, 0, 77, 64
2, 233760, Note_on_c, 0, 79, 127
2, 233856, Note_off_c, 0, 79, 64
2, 233880, Note_on_c, 0, 77, 127
2, 233976, Note_off_c, 0, 77, 64
2, 234000, Note_on_c, 0, 75, 127
2, 234096, Note_off_c, 0, 75, 64
2, 234120, Note_on_c, 0, 74, 127
2, 234216, Note_off_c, 0, 74, 64
2, 234240, Note_on_c, 0, 72, 127
2, 234336, Note_off_c, 0, 72, 64
2, 234360, Note_on_c, 0, 70, 127
2, 234456, Note_off_c, 0, 70, 64
2, 234480, Note_on_c, 0, 69, 127
2, 234576, Note_off_c, 0, 69, 64
2, 234600, Note_on_c, 0, 68, 127
2, 234696, Note_off_c, 0, 68, 64
2, 234720, Note_on_c, 0, 67, 127
2, 234816, Note_off_c, 0, 67, 64
2, 234840, Note_on_c, 0, 66, 127
2, 234936, Note_off_c, 0, 66, 64
2, 234960, Note_on_c, 0, 64, 127
2, 234960, Note_on_c, 0, 46, 127
2, 235152, Note_off_c, 0, 64, 64
2, 235200, Note_on_c, 0, 65, 127
2, 235392, Note_off_c, 0, 65, 64
2, 235440, Note_on_c, 0, 52, 127
2, 235440, Note_on_c, 0, 70, 127
2, 235632, Note_off_c, 0, 52, 64
2, 235680, Note_on_c, 0, 53, 127
2, 235728, Note_off_c, 0, 46, 64
2, 235824, Note_off_c, 0, 70, 64
2, 235872, Note_off_c, 0, 53, 64
2, 235920, Note_on_c, 0, 73, 127
2, 235920, Note_on_c, 0, 58, 127
2, 235920, Note_on_c, 0, 46, 127
2, 236112, Note_off_c, 0, 73, 64
2, 236160, Note_on_c, 0, 74, 127
2, 236304, Note_off_c, 0, 58, 64
2, 236352, Note_off_c, 0, 74, 64
2, 236400, Note_on_c, 0, 52, 127
2, 236400, Note_on_c, 0, 77, 127
2, 236592, Note_off_c, 0, 52, 64
2, 236640, Note_on_c, 0, 53, 127
2, 236688, Note_off_c, 0, 46, 64
2, 236784, Note_off_c, 0, 77, 64
2, 236832, Note_off_c, 0, 53, 64
2, 236880, Note_on_c, 0, 77, 127
2, 236880, Note_on_c, 0, 57, 127
2, 236880, Note_on_c, 0, 46, 127
2, 237072, Note_off_c, 0, 77, 64
2, 237120, Note_on_c, 0, 75, 127
2, 237264, Note_off_c, 0, 57, 64
2, 237312, Note_off_c, 0, 75, 64
2, 237360, Note_on_c, 0, 52, 127
2, 237360, Note_on_c, 0, 72, 127
2, 237552, Note_off_c, 0, 52, 64
2, 237600, Note_on_c, 0, 53, 127
2, 237648, Note_off_c, 0, 46, 64
2, 237744, Note_off_c, 0, 72, 64
2, 237792, Note_off_c, 0, 53, 64
2, 237840, Note_on_c, 0, 77, 127
2, 237840, Note_on_c, 0, 57, 127
2, 237840, Note_on_c, 0, 46, 127
2, 238032, Note_off_c, 0, 77, 64
2, 238080, Note_on_c, 0, 75, 127
2, 238224, Note_off_c, 0, 57, 64
2, 238272, Note_off_c, 0, 75, 64
2, 238320, Note_on_c, 0, 52, 127
2, 238320, Note_on_c, 0, 72, 127
2, 238512, Note_off_c, 0, 52, 64
2, 238560, Note_on_c, 0, 53, 127
2, 238608, Note_off_c, 0, 46, 64
2, 238704, Note_off_c, 0, 72, 64
2, 238752, Note_off_c, 0, 53, 64
2, 238800, Note_on_c, 0, 61, 127
2, 238800, Note_on_c, 0, 46, 127
2, 238992, Note_off_c, 0, 61, 64
2, 239040, Note_on_c, 0, 62, 127
2, 239232, Note_off_c, 0, 62, 64
2, 239280, Note_on_c, 0, 49, 127
2, 239280, Note_on_c, 0, 65, 127
2, 239472, Note_off_c, 0, 49, 64
2, 239520, Note_on_c, 0, 50, 127
2, 239568, Note_off_c, 0, 46, 64
2, 239664, Note_off_c, 0, 65, 64
2, 239712, Note_off_c, 0, 50, 64
2, 239760, Note_on_c, 0, 69, 127
2, 239760, Note_on_c, 0, 53, 127
2, 239760, Note_on_c, 0, 46, 127
2, 239952, Note_off_c, 0, 69, 64
2, 240000, Note_on_c, 0, 70, 127
2, 240144, Note_off_c, 0, 53, 64
2, 240192, Note_off_c, 0, 70, 64
2, 240240, Note_on_c, 0, 52, 127
2, 240240, Note_on_c, 0, 74, 127
2, 240432, Note_off_c, 0, 52, 64
2, 240480, Note_on_c, 0, 53, 127
2, 240528, Note_off_c, 0, 46, 64
2, 240624, Note_off_c, 0, 74, 64
2, 240672, Note_off_c, 0, 53, 64
2, 240720, Note_on_c, 0, 77, 127
2, 240720, Note_on_c, 0, 46, 127
2, 240912, Note_off_c, 0, 77, 64
2, 240960, Note_on_c, 0, 75, 127
2, 241152, Note_off_c, 0, 75, 64
2, 241200, Note_on_c, 0, 56, 127
2, 241200, Note_on_c, 0, 63, 127
2, 241200, Note_on_c, 0, 72, 127
2, 241392, Note_off_c, 0, 56, 64
2, 241440, Note_on_c, 0, 57, 127
2, 241488, Note_off_c, 0, 46, 64
2, 241584, Note_off_c, 0, 63, 64
2, 241584, Note_off_c, 0, 72, 64
2, 241632, Note_off_c, 0, 57, 64
2, 241680, Note_on_c, 0, 70, 127
2, 241680, Note_on_c, 0, 62, 127
2, 241680, Note_on_c, 0, 46, 127
2, 242064, Note_off_c, 0, 62, 64
2, 242064, Note_off_c, 0, 70, 64
2, 242160, Note_on_c, 0, 57, 127
2, 242352, Note_off_c, 0, 57, 64
2, 242400, Note_on_c, 0, 58, 127
2, 242448, Note_off_c, 0, 46, 64
2, 242592, Note_off_c, 0, 58, 64
2, 242640, Note_on_c, 0, 73, 127
2, 242640, Note_on_c, 0, 61, 127
2, 242832, Note_off_c, 0, 61, 64
2, 242832, Note_off_c, 0, 73, 64
2, 242880, Note_on_c, 0, 74, 127
2, 242880, Note_on_c, 0, 62, 127
2, 243072, Note_off_c, 0, 62, 64
2, 243072, Note_off_c, 0, 74, 64
2, 243120, Note_on_c, 0, 54, 127
2, 243120, Note_on_c, 0, 57, 127
2, 243120, Note_on_c, 0, 79, 127
2, 243120, Note_on_c, 0, 67, 127
2, 243312, Note_off_c, 0, 57, 64
2, 243312, Note_off_c, 0, 54, 64
2, 243360, Note_on_c, 0, 58, 127
2, 243360, Note_on_c, 0, 55, 127
2, 243504, Note_off_c, 0, 79, 64
2, 243504, Note_off_c, 0, 67, 64
2, 243552, Note_off_c, 0, 58, 64
2, 243552, Note_off_c, 0, 55, 64
2, 243600, Note_on_c, 0, 73, 127
2, 243600, Note_on_c, 0, 61, 127
2, 243792, Note_off_c, 0, 61, 64
2, 243792, Note_off_c, 0, 73, 64
2, 243840, Note_on_c, 0, 74, 127
2, 243840, Note_on_c, 0, 62, 127
2, 244032, Note_off_c, 0, 62, 64
2, 244032, Note_off_c, 0, 74, 64
2, 244080, Note_on_c, 0, 54, 127
2, 244080, Note_on_c, 0, 57, 127
2, 244080, Note_on_c, 0, 79, 127
2, 244080, Note_on_c, 0, 67, 127
2, 244272, Note_off_c, 0, 57, 64
2, 244272, Note_off_c, 0, 54, 64
2, 244320, Note_on_c, 0, 58, 127
2, 244320, Note_on_c, 0, 55, 127
2, 244464, Note_off_c, 0, 79, 64
2, 244464, Note_off_c, 0, 67, 64
2, 244512, Note_off_c, 0, 58, 64
2, 244512, Note_off_c, 0, 55, 64
2, 244560, Note_on_c, 0, 67, 127
2, 244560, Note_on_c, 0, 79, 127
2, 244752, Note_off_c, 0, 79, 64
2, 244752, Note_off_c, 0, 67, 64
2, 244800, Note_on_c, 0, 66, 127
2, 244800, Note_on_c, 0, 78, 127
2, 244992, Note_off_c, 0, 78, 64
2, 244992, Note_off_c, 0, 66, 64
2, 245040, Note_on_c, 0, 56, 127
2, 245040, Note_on_c, 0, 59, 127
2, 245040, Note_on_c, 0, 62, 127
2, 245040, Note_on_c, 0, 74, 127
2, 245232, Note_off_c, 0, 59, 64
2, 245232, Note_off_c, 0, 56, 64
2, 245280, Note_on_c, 0, 57, 127
2, 245280, Note_on_c, 0, 60, 127
2, 245424, Note_off_c, 0, 62, 64
2, 245424, Note_off_c, 0, 74, 64
2, 245472, Note_off_c, 0, 57, 64
2, 245472, Note_off_c, 0, 60, 64
2, 245520, Note_on_c, 0, 79, 127
2, 245520, Note_on_c, 0, 67, 127
2, 245712, Note_off_c, 0, 67, 64
2, 245712, Note_off_c, 0, 79, 64
2, 245760, Note_on_c, 0, 66, 127
2, 245760, Note_on_c, 0, 78, 127
2, 245952, Note_off_c, 0, 78, 64
2, 245952, Note_off_c, 0, 66, 64
2, 246000, Note_on_c, 0, 56, 127
2, 246000, Note_on_c, 0, 59, 127
2, 246000, Note_on_c, 0, 62, 127
2, 246000, Note_on_c, 0, 74, 127
2, 246192, Note_off_c, 0, 59, 64
2, 246192, Note_off_c, 0, 56, 64
2, 246240, Note_on_c, 0, 60, 127
2, 246240, Note_on_c, 0, 57, 127
2, 246384, Note_off_c, 0, 62, 64
2, 246384, Note_off_c, 0, 74, 64
2, 246432, Note_off_c, 0, 60, 64
2, 246432, Note_off_c, 0, 57, 64
2, 246480, Note_on_c, 0, 73, 127
2, 246480, Note_on_c, 0, 61, 127
2, 246672, Note_off_c, 0, 61, 64
2, 246672, Note_off_c, 0, 73, 64
2, 246720, Note_on_c, 0, 74, 127
2, 246720, Note_on_c, 0, 62, 127
2, 246912, Note_off_c, 0, 62, 64
2, 246912, Note_off_c, 0, 74, 64
2, 246960, Note_on_c, 0, 54, 127
2, 246960, Note_on_c, 0, 57, 127
2, 246960, Note_on_c, 0, 79, 127
2, 246960, Note_on_c, 0, 67, 127
2, 247152, Note_off_c, 0, 57, 64
2, 247152, Note_off_c, 0, 54, 64
2, 247200, Note_on_c, 0, 58, 127
2, 247200, Note_on_c, 0, 55, 127
2, 247344, Note_off_c, 0, 79, 64
2, 247344, Note_off_c, 0, 67, 64
2, 247392, Note_off_c, 0, 58, 64
2, 247392, Note_off_c, 0, 55, 64
2, 247440, Note_on_c, 0, 73, 127
2, 247440, Note_on_c, 0, 61, 127
2, 247632, Note_off_c, 0, 61, 64
2, 247632, Note_off_c, 0, 73, 64
2, 247680, Note_on_c, 0, 74, 127
2, 247680, Note_on_c, 0, 62, 127
2, 247872, Note_off_c, 0, 62, 64
2, 247872, Note_off_c, 0, 74, 64
2, 247920, Note_on_c, 0, 54, 127
2, 247920, Note_on_c, 0, 57, 127
2, 247920, Note_on_c, 0, 79, 127
2, 247920, Note_on_c, 0, 67, 127
2, 248112, Note_off_c, 0, 57, 64
2, 248112, Note_off_c, 0, 54, 64
2, 248160, Note_on_c, 0, 58, 127
2, 248160, Note_on_c, 0, 55, 127
2, 248304, Note_off_c, 0, 79, 64
2, 248304, Note_off_c, 0, 67, 64
2, 248352, Note_off_c, 0, 58, 64
2, 248352, Note_off_c, 0, 55, 64
2, 248400, Note_on_c, 0, 77, 127
2, 248400, Note_on_c, 0, 65, 127
2, 248592, Note_off_c, 0, 65, 64
2, 248592, Note_off_c, 0, 77, 64
2, 248640, Note_on_c, 0, 75, 127
2, 248640, Note_on_c, 0, 63, 127
2, 248832, Note_off_c, 0, 63, 64
2, 248832, Note_off_c, 0, 75, 64
2, 248880, Note_on_c, 0, 54, 127
2, 248880, Note_on_c, 0, 57, 127
2, 249072, Note_off_c, 0, 57, 64
2, 249072, Note_off_c, 0, 54, 64
2, 249120, Note_on_c, 0, 58, 127
2, 249120, Note_on_c, 0, 55, 127
2, 249312, Note_off_c, 0, 55, 64
2, 249312, Note_off_c, 0, 58, 64
2, 249360, Note_on_c, 0, 67, 127
2, 249360, Note_on_c, 0, 79, 127
2, 249552, Note_off_c, 0, 79, 64
2, 249552, Note_off_c, 0, 67, 64
2, 249600, Note_on_c, 0, 77, 127
2, 249600, Note_on_c, 0, 65, 127
2, 249792, Note_off_c, 0, 65, 64
2, 249792, Note_off_c, 0, 77, 64
2, 249840, Note_on_c, 0, 56, 127
2, 249840, Note_on_c, 0, 59, 127
2, 250032, Note_off_c, 0, 59, 64
2, 250032, Note_off_c, 0, 56, 64
2, 250080, Note_on_c, 0, 57, 127
2, 250080, Note_on_c, 0, 60, 127
2, 250272, Note_off_c, 0, 60, 64
2, 250272, Note_off_c, 0, 57, 64
2, 250320, Note_on_c, 0, 73, 127
2, 250320, Note_on_c, 0, 61, 127
2, 250320, Note_on_c, 0, 46, 127
2, 250512, Note_off_c, 0, 61, 64
2, 250512, Note_off_c, 0, 73, 64
2, 250560, Note_on_c, 0, 62, 127
2, 250560, Note_on_c, 0, 74, 127
2, 250752, Note_off_c, 0, 74, 64
2, 250752, Note_off_c, 0, 62, 64
2, 250800, Note_on_c, 0, 49, 127
2, 250800, Note_on_c, 0, 77, 127
2, 250800, Note_on_c, 0, 65, 127
2, 250992, Note_off_c, 0, 49, 64
2, 251040, Note_on_c, 0, 50, 127
2, 251088, Note_off_c, 0, 46, 64
2, 251184, Note_off_c, 0, 77, 64
2, 251184, Note_off_c, 0, 65, 64
2, 251232, Note_off_c, 0, 50, 64
2, 251280, Note_on_c, 0, 81, 127
2, 251280, Note_on_c, 0, 53, 127
2, 251280, Note_on_c, 0, 69, 127
2, 251280, Note_on_c, 0, 46, 127
2, 251472, Note_off_c, 0, 69, 64
2, 251472, Note_off_c, 0, 81, 64
2, 251520, Note_on_c, 0, 70, 127
2, 251520, Note_on_c, 0, 82, 127
2, 251664, Note_off_c, 0, 53, 64
2, 251712, Note_off_c, 0, 70, 64
2, 251712, Note_off_c, 0, 82, 64
2, 251760, Note_on_c, 0, 57, 127
2, 251760, Note_on_c, 0, 86, 127
2, 251760, Note_on_c, 0, 74, 127
2, 251952, Note_off_c, 0, 57, 64
2, 252000, Note_on_c, 0, 58, 127
2, 252048, Note_off_c, 0, 46, 64
2, 252144, Note_off_c, 0, 86, 64
2, 252144, Note_off_c, 0, 74, 64
2, 252192, Note_off_c, 0, 58, 64
2, 252240, Note_on_c, 0, 89, 127
2, 252240, Note_on_c, 0, 77, 127
2, 252240, Note_on_c, 0, 46, 127
2, 252432, Note_off_c, 0, 77, 64
2, 252432, Note_off_c, 0, 89, 64
2, 252480, Note_on_c, 0, 75, 127
2, 252480, Note_on_c, 0, 87, 127
2, 252672, Note_off_c, 0, 87, 64
2, 252672, Note_off_c, 0, 75, 64
2, 252720, Note_on_c, 0, 56, 127
2, 252720, Note_on_c, 0, 72, 127
2, 252720, Note_on_c, 0, 84, 127
2, 252912, Note_off_c, 0, 56, 64
2, 252960, Note_on_c, 0, 57, 127
2, 253008, Note_off_c, 0, 46, 64
2, 253104, Note_off_c, 0, 72, 64
2, 253104, Note_off_c, 0, 84, 64
2, 253152, Note_off_c, 0, 57, 64
2, 253200, Note_on_c, 0, 89, 127
2, 253200, Note_on_c, 0, 77, 127
2, 253200, Note_on_c, 0, 46, 127
2, 253392, Note_off_c, 0, 77, 64
2, 253392, Note_off_c, 0, 89, 64
2, 253440, Note_on_c, 0, 75, 127
2, 253440, Note_on_c, 0, 87, 127
2, 253632, Note_off_c, 0, 87, 64
2, 253632, Note_off_c, 0, 75, 64
2, 253680, Note_on_c, 0, 56, 127
2, 253680, Note_on_c, 0, 84, 127
2, 253680, Note_on_c, 0, 72, 127
2, 253872, Note_off_c, 0, 56, 64
2, 253920, Note_on_c, 0, 57, 127
2, 253968, Note_off_c, 0, 46, 64
2, 254064, Note_off_c, 0, 84, 64
2, 254064, Note_off_c, 0, 72, 64
2, 254112, Note_off_c, 0, 57, 64
2, 254160, Note_on_c, 0, 73, 127
2, 254160, Note_on_c, 0, 61, 127
2, 254160, Note_on_c, 0, 46, 127
2, 254352, Note_off_c, 0, 61, 64
2, 254352, Note_off_c, 0, 73, 64
2, 254400, Note_on_c, 0, 62, 127
2, 254400, Note_on_c, 0, 74, 127
2, 254592, Note_off_c, 0, 74, 64
2, 254592, Note_off_c, 0, 62, 64
2, 254640, Note_on_c, 0, 49, 127
2, 254640, Note_on_c, 0, 77, 127
2, 254640, Note_on_c, 0, 65, 127
2, 254832, Note_off_c, 0, 49, 64
2, 254880, Note_on_c, 0, 50, 127
2, 254928, Note_off_c, 0, 46, 64
2, 255024, Note_off_c, 0, 77, 64
2, 255024, Note_off_c, 0, 65, 64
2, 255072, Note_off_c, 0, 50, 64
2, 255120, Note_on_c, 0, 81, 127
2, 255120, Note_on_c, 0, 53, 127
2, 255120, Note_on_c, 0, 69, 127
2, 255120, Note_on_c, 0, 46, 127
2, 255312, Note_off_c, 0, 69, 64
2, 255312, Note_off_c, 0, 81, 64
2, 255360, Note_on_c, 0, 70, 127
2, 255360, Note_on_c, 0, 82, 127
2, 255504, Note_off_c, 0, 53, 64
2, 255552, Note_off_c, 0, 70, 64
2, 255552, Note_off_c, 0, 82, 64
2, 255600, Note_on_c, 0, 57, 127
2, 255600, Note_on_c, 0, 86, 127
2, 255600, Note_on_c, 0, 74, 127
2, 255792, Note_off_c, 0, 57, 64
2, 255840, Note_on_c, 0, 58, 127
2, 255888, Note_off_c, 0, 46, 64
2, 255984, Note_off_c, 0, 86, 64
2, 255984, Note_off_c, 0, 74, 64
2, 256032, Note_off_c, 0, 58, 64
2, 256080, Note_on_c, 0, 65, 127
2, 256080, Note_on_c, 0, 77, 127
2, 256080, Note_on_c, 0, 57, 127
2, 256272, Note_off_c, 0, 77, 64
2, 256320, Note_on_c, 0, 75, 127
2, 256512, Note_off_c, 0, 75, 64
2, 256560, Note_on_c, 0, 62, 127
2, 256560, Note_on_c, 0, 72, 127
2, 256752, Note_off_c, 0, 62, 64
2, 256800, Note_on_c, 0, 63, 127
2, 256848, Note_off_c, 0, 65, 64
2, 256848, Note_off_c, 0, 57, 64
2, 256944, Note_off_c, 0, 72, 64
2, 256992, Note_off_c, 0, 63, 64
2, 257040, Note_on_c, 0, 65, 127
2, 257040, Note_on_c, 0, 77, 127
2, 257040, Note_on_c, 0, 58, 127
2, 257232, Note_off_c, 0, 77, 64
2, 257280, Note_on_c, 0, 74, 127
2, 257472, Note_off_c, 0, 74, 64
2, 257520, Note_on_c, 0, 61, 127
2, 257520, Note_on_c, 0, 70, 127
2, 257712, Note_off_c, 0, 61, 64
2, 257760, Note_on_c, 0, 62, 127
2, 257808, Note_off_c, 0, 65, 64
2, 257808, Note_off_c, 0, 58, 64
2, 257904, Note_off_c, 0, 70, 64
2, 257952, Note_off_c, 0, 62, 64
2, 258000, Note_on_c, 0, 67, 127
2, 258000, Note_on_c, 0, 79, 127
2, 258000, Note_on_c, 0, 59, 127
2, 258192, Note_off_c, 0, 79, 64
2, 258240, Note_on_c, 0, 77, 127
2, 258432, Note_off_c, 0, 77, 64
2, 258480, Note_on_c, 0, 64, 127
2, 258480, Note_on_c, 0, 74, 127
2, 258672, Note_off_c, 0, 64, 64
2, 258720, Note_on_c, 0, 65, 127
2, 258768, Note_off_c, 0, 67, 64
2, 258768, Note_off_c, 0, 59, 64
2, 258864, Note_off_c, 0, 74, 64
2, 258912, Note_off_c, 0, 65, 64
2, 258960, Note_on_c, 0, 67, 127
2, 258960, Note_on_c, 0, 79, 127
2, 258960, Note_on_c, 0, 60, 127
2, 259152, Note_off_c, 0, 79, 64
2, 259200, Note_on_c, 0, 75, 127
2, 259392, Note_off_c, 0, 75, 64
2, 259440, Note_on_c, 0, 62, 127
2, 259440, Note_on_c, 0, 72, 127
2, 259632, Note_off_c, 0, 62, 64
2, 259680, Note_on_c, 0, 63, 127
2, 259728, Note_off_c, 0, 67, 64
2, 259728, Note_off_c, 0, 60, 64
2, 259824, Note_off_c, 0, 72, 64
2, 259872, Note_off_c, 0, 63, 64
2, 259920, Note_on_c, 0, 84, 127
2, 259920, Note_on_c, 0, 57, 127
2, 260112, Note_off_c, 0, 84, 64
2, 260160, Note_on_c, 0, 78, 127
2, 260352, Note_off_c, 0, 78, 64
2, 260400, Note_on_c, 0, 59, 127
2, 260400, Note_on_c, 0, 72, 127
2, 260592, Note_off_c, 0, 59, 64
2, 260640, Note_on_c, 0, 60, 127
2, 260688, Note_off_c, 0, 57, 64
2, 260784, Note_off_c, 0, 72, 64
2, 260832, Note_off_c, 0, 60, 64
2, 260880, Note_on_c, 0, 84, 127
2, 260880, Note_on_c, 0, 55, 127
2, 261072, Note_off_c, 0, 84, 64
2, 261120, Note_on_c, 0, 79, 127
2, 261312, Note_off_c, 0, 79, 64
2, 261360, Note_on_c, 0, 59, 127
2, 261360, Note_on_c, 0, 72, 127
2, 261552, Note_off_c, 0, 59, 64
2, 261600, Note_on_c, 0, 60, 127
2, 261648, Note_off_c, 0, 55, 64
2, 261744, Note_off_c, 0, 72, 64
2, 261792, Note_off_c, 0, 60, 64
2, 261840, Note_on_c, 0, 84, 127
2, 261840, Note_on_c, 0, 54, 127
2, 262032, Note_off_c, 0, 84, 64
2, 262080, Note_on_c, 0, 81, 127
2, 262272, Note_off_c, 0, 81, 64
2, 262320, Note_on_c, 0, 59, 127
2, 262320, Note_on_c, 0, 72, 127
2, 262512, Note_off_c, 0, 59, 64
2, 262560, Note_on_c, 0, 60, 127
2, 262608, Note_off_c, 0, 54, 64
2, 262704, Note_off_c, 0, 72, 64
2, 262752, Note_off_c, 0, 60, 64
2, 262800, Note_on_c, 0, 84, 127
2, 262800, Note_on_c, 0, 52, 127
2, 262992, Note_off_c, 0, 84, 64
2, 263040, Note_on_c, 0, 81, 127
2, 263232, Note_off_c, 0, 81, 64
2, 263280, Note_on_c, 0, 59, 127
2, 263280, Note_on_c, 0, 72, 127
2, 263472, Note_off_c, 0, 59, 64
2, 263520, Note_on_c, 0, 60, 127
2, 263568, Note_off_c, 0, 52, 64
2, 263664, Note_off_c, 0, 72, 64
2, 263712, Note_off_c, 0, 60, 64
2, 263760, Note_on_c, 0, 57, 127
2, 263760, Note_on_c, 0, 62, 127
2, 263760, Note_on_c, 0, 54, 127
2, 263760, Note_on_c, 0, 50, 127
2, 263880, Note_on_c, 0, 84, 127
2, 263976, Note_off_c, 0, 84, 64
2, 264000, Note_on_c, 0, 88, 127
2, 264096, Note_off_c, 0, 88, 64
2, 264120, Note_on_c, 0, 86, 127
2, 264144, Note_off_c, 0, 50, 64
2, 264144, Note_off_c, 0, 54, 64
2, 264144, Note_off_c, 0, 62, 64
2, 264144, Note_off_c, 0, 57, 64
2, 264216, Note_off_c, 0, 86, 64
2, 264240, Note_on_c, 0, 84, 127
2, 264336, Note_off_c, 0, 84, 64
2, 264360, Note_on_c, 0, 83, 127
2, 264456, Note_off_c, 0, 83, 64
2, 264480, Note_on_c, 0, 81, 127
2, 264576, Note_off_c, 0, 81, 64
2, 264600, Note_on_c, 0, 79, 127
2, 264696, Note_off_c, 0, 79, 64
2, 264720, Note_on_c, 0, 78, 127
2, 264816, Note_off_c, 0, 78, 64
2, 264840, Note_on_c, 0, 76, 127
2, 264936, Note_off_c, 0, 76, 64
2, 264960, Note_on_c, 0, 74, 127
2, 265056, Note_off_c, 0, 74, 64
2, 265080, Note_on_c, 0, 72, 127
2, 265176, Note_off_c, 0, 72, 64
2, 265200, Note_on_c, 0, 71, 127
2, 265296, Note_off_c, 0, 71, 64
2, 265320, Note_on_c, 0, 69, 127
2, 265416, Note_off_c, 0, 69, 64
2, 265440, Note_on_c, 0, 67, 127
2, 265536, Note_off_c, 0, 67, 64
2, 265560, Note_on_c, 0, 66, 127
2, 265656, Note_off_c, 0, 66, 64
2, 265680, Note_on_c, 0, 64, 127
2, 265776, Note_off_c, 0, 64, 64
2, 265800, Note_on_c, 0, 62, 127
2, 265896, Note_off_c, 0, 62, 64
2, 265920, Note_on_c, 0, 60, 127
2, 266016, Note_off_c, 0, 60, 64
2, 266040, Note_on_c, 0, 59, 127
2, 266136, Note_off_c, 0, 59, 64
2, 266160, Note_on_c, 0, 57, 127
2, 266256, Note_off_c, 0, 57, 64
2, 266280, Note_on_c, 0, 55, 127
2, 266376, Note_off_c, 0, 55, 64
2, 266400, Note_on_c, 0, 54, 127
2, 266496, Note_off_c, 0, 54, 64
2, 266520, Note_on_c, 0, 52, 127
2, 266616, Note_off_c, 0, 52, 64
2, 266640, Note_on_c, 0, 50, 127
2, 266736, Note_off_c, 0, 50, 64
2, 266760, Note_on_c, 0, 48, 127
2, 266856, Note_off_c, 0, 48, 64
2, 266880, Note_on_c, 0, 47, 127
2, 266976, Note_off_c, 0, 47, 64
2, 267000, Note_on_c, 0, 45, 127
2, 267096, Note_off_c, 0, 45, 64
2, 267120, Note_on_c, 0, 43, 127
2, 267216, Note_off_c, 0, 43, 64
2, 267240, Note_on_c, 0, 42, 127
2, 267336, Note_off_c, 0, 42, 64
2, 267360, Note_on_c, 0, 40, 127
2, 267456, Note_off_c, 0, 40, 64
2, 267480, Note_on_c, 0, 38, 127
2, 267576, Note_off_c, 0, 38, 64
2, 267600, Note_on_c, 0, 37, 127
2, 267696, Note_off_c, 0, 37, 64
2, 267720, Note_on_c, 0, 38, 127
2, 267816, Note_off_c, 0, 38, 64
2, 267840, Note_on_c, 0, 40, 127
2, 267936, Note_off_c, 0, 40, 64
2, 267960, Note_on_c, 0, 42, 127
2, 268056, Note_off_c, 0, 42, 64
2, 268080, Note_on_c, 0, 43, 127
2, 268176, Note_off_c, 0, 43, 64
2, 268200, Note_on_c, 0, 45, 127
2, 268296, Note_off_c, 0, 45, 64
2, 268320, Note_on_c, 0, 47, 127
2, 268416, Note_off_c, 0, 47, 64
2, 268440, Note_on_c, 0, 48, 127
2, 268536, Note_off_c, 0, 48, 64
2, 268560, Note_on_c, 0, 50, 127
2, 268688, Note_off_c, 0, 50, 64
2, 268720, Note_on_c, 0, 51, 127
2, 268848, Note_off_c, 0, 51, 64
2, 268880, Note_on_c, 0, 52, 127
2, 269008, Note_off_c, 0, 52, 64
2, 269040, Note_on_c, 0, 53, 127
2, 269168, Note_off_c, 0, 53, 64
2, 269200, Note_on_c, 0, 54, 127
2, 269328, Note_off_c, 0, 54, 64
2, 269360, Note_on_c, 0, 55, 127
2, 269488, Note_off_c, 0, 55, 64
2, 269520, Note_on_c, 0, 56, 127
2, 269648, Note_off_c, 0, 56, 64
2, 269680, Note_on_c, 0, 57, 127
2, 269808, Note_off_c, 0, 57, 64
2, 269840, Note_on_c, 0, 58, 127
2, 269968, Note_off_c, 0, 58, 64
2, 270000, Note_on_c, 0, 59, 127
2, 270128, Note_off_c, 0, 59, 64
2, 270160, Note_on_c, 0, 60, 127
2, 270288, Note_off_c, 0, 60, 64
2, 270320, Note_on_c, 0, 61, 127
2, 270448, Note_off_c, 0, 61, 64
2, 270480, Note_on_c, 0, 62, 127
2, 270608, Note_off_c, 0, 62, 64
2, 270640, Note_on_c, 0, 64, 127
2, 270768, Note_off_c, 0, 64, 64
2, 270800, Note_on_c, 0, 66, 127
2, 270928, Note_off_c, 0, 66, 64
2, 270960, Note_on_c, 0, 67, 127
2, 271088, Note_off_c, 0, 67, 64
2, 271120, Note_on_c, 0, 69, 127
2, 271248, Note_off_c, 0, 69, 64
2, 271280, Note_on_c, 0, 70, 127
2, 271408, Note_off_c, 0, 70, 64
2, 271440, Note_on_c, 0, 70, 127
2, 271632, Note_off_c, 0, 70, 64
2, 271680, Note_on_c, 0, 71, 127
2, 271872, Note_off_c, 0, 71, 64
2, 271920, Note_on_c, 0, 54, 127
2, 271920, Note_on_c, 0, 74, 127
2, 271920, Note_on_c, 0, 62, 127
2, 271920, Note_on_c, 0, 71, 127
2, 272112, Note_off_c, 0, 54, 64
2, 272160, Note_on_c, 0, 55, 127
2, 272304, Note_off_c, 0, 74, 64
2, 272304, Note_off_c, 0, 62, 64
2, 272304, Note_off_c, 0, 71, 64
2, 272352, Note_off_c, 0, 55, 64
2, 272400, Note_on_c, 0, 78, 127
2, 272400, Note_on_c, 0, 50, 127
2, 272592, Note_off_c, 0, 78, 64
2, 272640, Note_on_c, 0, 79, 127
2, 272784, Note_off_c, 0, 50, 64
2, 272832, Note_off_c, 0, 79, 64
2, 272880, Note_on_c, 0, 54, 127
2, 272880, Note_on_c, 0, 74, 127
2, 272880, Note_on_c, 0, 83, 127
2, 272880, Note_on_c, 0, 71, 127
2, 273072, Note_off_c, 0, 54, 64
2, 273120, Note_on_c, 0, 55, 127
2, 273264, Note_off_c, 0, 74, 64
2, 273264, Note_off_c, 0, 83, 64
2, 273264, Note_off_c, 0, 71, 64
2, 273312, Note_off_c, 0, 55, 64
2, 273360, Note_on_c, 0, 86, 127
2, 273360, Note_on_c, 0, 50, 127
2, 273552, Note_off_c, 0, 86, 64
2, 273600, Note_on_c, 0, 84, 127
2, 273744, Note_off_c, 0, 50, 64
2, 273792, Note_off_c, 0, 84, 64
2, 273840, Note_on_c, 0, 60, 127
2, 273840, Note_on_c, 0, 81, 127
2, 273840, Note_on_c, 0, 54, 127
2, 273840, Note_on_c, 0, 74, 127
2, 274032, Note_off_c, 0, 60, 64
2, 274080, Note_on_c, 0, 62, 127
2, 274224, Note_off_c, 0, 81, 64
2, 274224, Note_off_c, 0, 54, 64
2, 274224, Note_off_c, 0, 74, 64
2, 274272, Note_off_c, 0, 62, 64
2, 274320, Note_on_c, 0, 86, 127
2, 274320, Note_on_c, 0, 50, 127
2, 274512, Note_off_c, 0, 86, 64
2, 274560, Note_on_c, 0, 84, 127
2, 274704, Note_off_c, 0, 50, 64
2, 274752, Note_off_c, 0, 84, 64
2, 274800, Note_on_c, 0, 74, 127
2, 274800, Note_on_c, 0, 60, 127
2, 274800, Note_on_c, 0, 54, 127
2, 274800, Note_on_c, 0, 81, 127
2, 274992, Note_off_c, 0, 60, 64
2, 275040, Note_on_c, 0, 62, 127
2, 275184, Note_off_c, 0, 74, 64
2, 275184, Note_off_c, 0, 54, 64
2, 275184, Note_off_c, 0, 81, 64
2, 275232, Note_off_c, 0, 62, 64
2, 275280, Note_on_c, 0, 70, 127
2, 275280, Note_on_c, 0, 59, 127
2, 275280, Note_on_c, 0, 55, 127
2, 275472, Note_off_c, 0, 70, 64
2, 275520, Note_on_c, 0, 71, 127
2, 275664, Note_off_c, 0, 59, 64
2, 275664, Note_off_c, 0, 55, 64
2, 275712, Note_off_c, 0, 71, 64
2, 275760, Note_on_c, 0, 54, 127
2, 275760, Note_on_c, 0, 62, 127
2, 275760, Note_on_c, 0, 71, 127
2, 275760, Note_on_c, 0, 74, 127
2, 275952, Note_off_c, 0, 54, 64
2, 276000, Note_on_c, 0, 55, 127
2, 276144, Note_off_c, 0, 62, 64
2, 276144, Note_off_c, 0, 71, 64
2, 276144, Note_off_c, 0, 74, 64
2, 276192, Note_off_c, 0, 55, 64
2, 276240, Note_on_c, 0, 78, 127
2, 276240, Note_on_c, 0, 50, 127
2, 276432, Note_off_c, 0, 78, 64
2, 276480, Note_on_c, 0, 79, 127
2, 276624, Note_off_c, 0, 50, 64
2, 276672, Note_off_c, 0, 79, 64
2, 276720, Note_on_c, 0, 54, 127
2, 276720, Note_on_c, 0, 83, 127
2, 276720, Note_on_c, 0, 74, 127
2, 276720, Note_on_c, 0, 71, 127
2, 276912, Note_off_c, 0, 54, 64
2, 276960, Note_on_c, 0, 55, 127
2, 277104, Note_off_c, 0, 83, 64
2, 277104, Note_off_c, 0, 74, 64
2, 277104, Note_off_c, 0, 71, 64
2, 277152, Note_off_c, 0, 55, 64
2, 277200, Note_on_c, 0, 86, 127
2, 277200, Note_on_c, 0, 50, 127
2, 277392, Note_off_c, 0, 86, 64
2, 277440, Note_on_c, 0, 84, 127
2, 277584, Note_off_c, 0, 50, 64
2, 277632, Note_off_c, 0, 84, 64
2, 277680, Note_on_c, 0, 81, 127
2, 277680, Note_on_c, 0, 74, 127
2, 277680, Note_on_c, 0, 54, 127
2, 277680, Note_on_c, 0, 60, 127
2, 277872, Note_off_c, 0, 60, 64
2, 277920, Note_on_c, 0, 62, 127
2, 278064, Note_off_c, 0, 54, 64
2, 278064, Note_off_c, 0, 74, 64
2, 278064, Note_off_c, 0, 81, 64
2, 278112, Note_off_c, 0, 62, 64
2, 278160, Note_on_c, 0, 59, 127
2, 278160, Note_on_c, 0, 55, 127
2, 278160, Note_on_c, 0, 79, 127
2, 278160, Note_on_c, 0, 74, 127
2, 278352, Note_off_c, 0, 55, 64
2, 278352, Note_off_c, 0, 59, 64
2, 278400, Note_on_c, 0, 50, 127
2, 278544, Note_off_c, 0, 79, 64
2, 278544, Note_off_c, 0, 74, 64
2, 278592, Note_off_c, 0, 50, 64
2, 278640, Note_on_c, 0, 47, 127
2, 278832, Note_off_c, 0, 47, 64
2, 278880, Note_on_c, 0, 43, 127
2, 279072, Note_off_c, 0, 43, 64
2, 279120, Note_on_c, 0, 82, 127
2, 279120, Note_on_c, 0, 70, 127
2, 279312, Note_off_c, 0, 70, 64
2, 279312, Note_off_c, 0, 82, 64
2, 279360, Note_on_c, 0, 71, 127
2, 279360, Note_on_c, 0, 83, 127
2, 279552, Note_off_c, 0, 83, 64
2, 279552, Note_off_c, 0, 71, 64
2, 279600, Note_on_c, 0, 63, 127
2, 279600, Note_on_c, 0, 66, 127
2, 279600, Note_on_c, 0, 88, 127
2, 279600, Note_on_c, 0, 76, 127
2, 279792, Note_off_c, 0, 66, 64
2, 279792, Note_off_c, 0, 63, 64
2, 279840, Note_on_c, 0, 64, 127
2, 279840, Note_on_c, 0, 67, 127
2, 279984, Note_off_c, 0, 88, 64
2, 279984, Note_off_c, 0, 76, 64
2, 280032, Note_off_c, 0, 64, 64
2, 280032, Note_off_c, 0, 67, 64
2, 280080, Note_on_c, 0, 82, 127
2, 280080, Note_on_c, 0, 70, 127
2, 280272, Note_off_c, 0, 70, 64
2, 280272, Note_off_c, 0, 82, 64
2, 280320, Note_on_c, 0, 83, 127
2, 280320, Note_on_c, 0, 71, 127
2, 280512, Note_off_c, 0, 71, 64
2, 280512, Note_off_c, 0, 83, 64
2, 280560, Note_on_c, 0, 63, 127
2, 280560, Note_on_c, 0, 66, 127
2, 280560, Note_on_c, 0, 76, 127
2, 280560, Note_on_c, 0, 88, 127
2, 280752, Note_off_c, 0, 66, 64
2, 280752, Note_off_c, 0, 63, 64
2, 280800, Note_on_c, 0, 67, 127
2, 280800, Note_on_c, 0, 64, 127
2, 280944, Note_off_c, 0, 76, 64
2, 280944, Note_off_c, 0, 88, 64
2, 280992, Note_off_c, 0, 67, 64
2, 280992, Note_off_c, 0, 64, 64
2, 281040, Note_on_c, 0, 88, 127
2, 281040, Note_on_c, 0, 76, 127
2, 281232, Note_off_c, 0, 76, 64
2, 281232, Note_off_c, 0, 88, 64
2, 281280, Note_on_c, 0, 87, 127
2, 281280, Note_on_c, 0, 75, 127
2, 281472, Note_off_c, 0, 75, 64
2, 281472, Note_off_c, 0, 87, 64
2, 281520, Note_on_c, 0, 68, 127
2, 281520, Note_on_c, 0, 65, 127
2, 281520, Note_on_c, 0, 71, 127
2, 281520, Note_on_c, 0, 83, 127
2, 281712, Note_off_c, 0, 65, 64
2, 281712, Note_off_c, 0, 68, 64
2, 281760, Note_on_c, 0, 66, 127
2, 281760, Note_on_c, 0, 69, 127
2, 281904, Note_off_c, 0, 71, 64
2, 281904, Note_off_c, 0, 83, 64
2, 281952, Note_off_c, 0, 66, 64
2, 281952, Note_off_c, 0, 69, 64
2, 282000, Note_on_c, 0, 76, 127
2, 282000, Note_on_c, 0, 88, 127
2, 282192, Note_off_c, 0, 88, 64
2, 282192, Note_off_c, 0, 76, 64
2, 282240, Note_on_c, 0, 87, 127
2, 282240, Note_on_c, 0, 75, 127
2, 282432, Note_off_c, 0, 75, 64
2, 282432, Note_off_c, 0, 87, 64
2, 282480, Note_on_c, 0, 68, 127
2, 282480, Note_on_c, 0, 65, 127
2, 282480, Note_on_c, 0, 71, 127
2, 282480, Note_on_c, 0, 83, 127
2, 282672, Note_off_c, 0, 65, 64
2, 282672, Note_off_c, 0, 68, 64
2, 282720, Note_on_c, 0, 66, 127
2, 282720, Note_on_c, 0, 69, 127
2, 282864, Note_off_c, 0, 71, 64
2, 282864, Note_off_c, 0, 83, 64
2, 282912, Note_off_c, 0, 66, 64
2, 282912, Note_off_c, 0, 69, 64
2, 282960, Note_on_c, 0, 82, 127
2, 282960, Note_on_c, 0, 70, 127
2, 283152, Note_off_c, 0, 70, 64
2, 283152, Note_off_c, 0, 82, 64
2, 283200, Note_on_c, 0, 83, 127
2, 283200, Note_on_c, 0, 71, 127
2, 283392, Note_off_c, 0, 71, 64
2, 283392, Note_off_c, 0, 83, 64
2, 283440, Note_on_c, 0, 63, 127
2, 283440, Note_on_c, 0, 66, 127
2, 283440, Note_on_c, 0, 76, 127
2, 283440, Note_on_c, 0, 88, 127
2, 283632, Note_off_c, 0, 66, 64
2, 283632, Note_off_c, 0, 63, 64
2, 283680, Note_on_c, 0, 67, 127
2, 283680, Note_on_c, 0, 64, 127
2, 283824, Note_off_c, 0, 76, 64
2, 283824, Note_off_c, 0, 88, 64
2, 283872, Note_off_c, 0, 67, 64
2, 283872, Note_off_c, 0, 64, 64
2, 283920, Note_on_c, 0, 82, 127
2, 283920, Note_on_c, 0, 70, 127
2, 284112, Note_off_c, 0, 70, 64
2, 284112, Note_off_c, 0, 82, 64
2, 284160, Note_on_c, 0, 83, 127
2, 284160, Note_on_c, 0, 71, 127
2, 284352, Note_off_c, 0, 71, 64
2, 284352, Note_off_c, 0, 83, 64
2, 284400, Note_on_c, 0, 66, 127
2, 284400, Note_on_c, 0, 63, 127
2, 284400, Note_on_c, 0, 76, 127
2, 284400, Note_on_c, 0, 88, 127
2, 284592, Note_off_c, 0, 63, 64
2, 284592, Note_off_c, 0, 66, 64
2, 284640, Note_on_c, 0, 67, 127
2, 284640, Note_on_c, 0, 64, 127
2, 284784, Note_off_c, 0, 76, 64
2, 284784, Note_off_c, 0, 88, 64
2, 284832, Note_off_c, 0, 67, 64
2, 284832, Note_off_c, 0, 64, 64
2, 284880, Note_on_c, 0, 86, 127
2, 284880, Note_on_c, 0, 74, 127
2, 285072, Note_off_c, 0, 74, 64
2, 285072, Note_off_c, 0, 86, 64
2, 285120, Note_on_c, 0, 85, 127
2, 285120, Note_on_c, 0, 73, 127
2, 285312, Note_off_c, 0, 73, 64
2, 285312, Note_off_c, 0, 85, 64
2, 285360, Note_on_c, 0, 66, 127
2, 285360, Note_on_c, 0, 63, 127
2, 285552, Note_off_c, 0, 63, 64
2, 285552, Note_off_c, 0, 66, 64
2, 285600, Note_on_c, 0, 64, 127
2, 285600, Note_on_c, 0, 67, 127
2, 285792, Note_off_c, 0, 67, 64
2, 285792, Note_off_c, 0, 64, 64
2, 285840, Note_on_c, 0, 76, 127
2, 285840, Note_on_c, 0, 88, 127
2, 286032, Note_off_c, 0, 88, 64
2, 286032, Note_off_c, 0, 76, 64
2, 286080, Note_on_c, 0, 86, 127
2, 286080, Note_on_c, 0, 74, 127
2, 286272, Note_off_c, 0, 74, 64
2, 286272, Note_off_c, 0, 86, 64
2, 286320, Note_on_c, 0, 68, 127
2, 286320, Note_on_c, 0, 65, 127
2, 286512, Note_off_c, 0, 65, 64
2, 286512, Note_off_c, 0, 68, 64
2, 286560, Note_on_c, 0, 69, 127
2, 286560, Note_on_c, 0, 66, 127
2, 286752, Note_off_c, 0, 66, 64
2, 286752, Note_off_c, 0, 69, 64
2, 286800, Note_on_c, 0, 70, 127
2, 286800, Note_on_c, 0, 55, 127
2, 286896, Note_off_c, 0, 55, 64
2, 286920, Note_on_c, 0, 62, 127
2, 286992, Note_off_c, 0, 70, 64
2, 287016, Note_off_c, 0, 62, 64
2, 287040, Note_on_c, 0, 71, 127
2, 287040, Note_on_c, 0, 59, 127
2, 287136, Note_off_c, 0, 59, 64
2, 287160, Note_on_c, 0, 55, 127
2, 287232, Note_off_c, 0, 71, 64
2, 287256, Note_off_c, 0, 55, 64
2, 287280, Note_on_c, 0, 50, 127
2, 287280, Note_on_c, 0, 73, 127
2, 287376, Note_off_c, 0, 50, 64
2, 287400, Note_on_c, 0, 59, 127
2, 287472, Note_off_c, 0, 73, 64
2, 287496, Note_off_c, 0, 59, 64
2, 287520, Note_on_c, 0, 55, 127
2, 287520, Note_on_c, 0, 74, 127
2, 287616, Note_off_c, 0, 55, 64
2, 287640, Note_on_c, 0, 50, 127
2, 287712, Note_off_c, 0, 74, 64
2, 287736, Note_off_c, 0, 50, 64
2, 287760, Note_on_c, 0, 78, 127
2, 287760, Note_on_c, 0, 47, 127
2, 287856, Note_off_c, 0, 47, 64
2, 287880, Note_on_c, 0, 55, 127
2, 287952, Note_off_c, 0, 78, 64
2, 287976, Note_off_c, 0, 55, 64
2, 288000, Note_on_c, 0, 79, 127
2, 288000, Note_on_c, 0, 50, 127
2, 288096, Note_off_c, 0, 50, 64
2, 288120, Note_on_c, 0, 47, 127
2, 288192, Note_off_c, 0, 79, 64
2, 288216, Note_off_c, 0, 47, 64
2, 288240, Note_on_c, 0, 43, 127
2, 288240, Note_on_c, 0, 82, 127
2, 288336, Note_off_c, 0, 43, 64
2, 288360, Note_on_c, 0, 50, 127
2, 288432, Note_off_c, 0, 82, 64
2, 288456, Note_off_c, 0, 50, 64
2, 288480, Note_on_c, 0, 47, 127
2, 288480, Note_on_c, 0, 83, 127
2, 288576, Note_off_c, 0, 47, 64
2, 288600, Note_on_c, 0, 43, 127
2, 288672, Note_off_c, 0, 83, 64
2, 288696, Note_off_c, 0, 43, 64
2, 288720, Note_on_c, 0, 86, 127
2, 288720, Note_on_c, 0, 42, 127
2, 288816, Note_off_c, 0, 42, 64
2, 288816, Note_off_c, 0, 86, 64
2, 288840, Note_on_c, 0, 84, 127
2, 288840, Note_on_c, 0, 45, 127
2, 288936, Note_off_c, 0, 45, 64
2, 288936, Note_off_c, 0, 84, 64
2, 288960, Note_on_c, 0, 86, 127
2, 288960, Note_on_c, 0, 38, 127
2, 289056, Note_off_c, 0, 38, 64
2, 289056, Note_off_c, 0, 86, 64
2, 289080, Note_on_c, 0, 84, 127
2, 289080, Note_on_c, 0, 42, 127
2, 289176, Note_off_c, 0, 42, 64
2, 289176, Note_off_c, 0, 84, 64
2, 289200, Note_on_c, 0, 45, 127
2, 289200, Note_on_c, 0, 81, 127
2, 289296, Note_off_c, 0, 45, 64
2, 289320, Note_on_c, 0, 50, 127
2, 289416, Note_off_c, 0, 50, 64
2, 289440, Note_on_c, 0, 54, 127
2, 289536, Note_off_c, 0, 54, 64
2, 289560, Note_on_c, 0, 57, 127
2, 289584, Note_off_c, 0, 81, 64
2, 289656, Note_off_c, 0, 57, 64
2, 289680, Note_on_c, 0, 86, 127
2, 289680, Note_on_c, 0, 54, 127
2, 289776, Note_off_c, 0, 54, 64
2, 289776, Note_off_c, 0, 86, 64
2, 289800, Note_on_c, 0, 84, 127
2, 289800, Note_on_c, 0, 57, 127
2, 289896, Note_off_c, 0, 57, 64
2, 289896, Note_off_c, 0, 84, 64
2, 289920, Note_on_c, 0, 86, 127
2, 289920, Note_on_c, 0, 50, 127
2, 290016, Note_off_c, 0, 50, 64
2, 290016, Note_off_c, 0, 86, 64
2, 290040, Note_on_c, 0, 84, 127
2, 290040, Note_on_c, 0, 54, 127
2, 290136, Note_off_c, 0, 54, 64
2, 290136, Note_off_c, 0, 84, 64
2, 290160, Note_on_c, 0, 57, 127
2, 290160, Note_on_c, 0, 81, 127
2, 290256, Note_off_c, 0, 57, 64
2, 290280, Note_on_c, 0, 62, 127
2, 290376, Note_off_c, 0, 62, 64
2, 290400, Note_on_c, 0, 60, 127
2, 290496, Note_off_c, 0, 60, 64
2, 290520, Note_on_c, 0, 57, 127
2, 290544, Note_off_c, 0, 81, 64
2, 290616, Note_off_c, 0, 57, 64
2, 290640, Note_on_c, 0, 70, 127
2, 290640, Note_on_c, 0, 55, 127
2, 290736, Note_off_c, 0, 55, 64
2, 290760, Note_on_c, 0, 62, 127
2, 290832, Note_off_c, 0, 70, 64
2, 290856, Note_off_c, 0, 62, 64
2, 290880, Note_on_c, 0, 71, 127
2, 290880, Note_on_c, 0, 59, 127
2, 290976, Note_off_c, 0, 59, 64
2, 291000, Note_on_c, 0, 55, 127
2, 291072, Note_off_c, 0, 71, 64
2, 291096, Note_off_c, 0, 55, 64
2, 291120, Note_on_c, 0, 50, 127
2, 291120, Note_on_c, 0, 73, 127
2, 291216, Note_off_c, 0, 50, 64
2, 291240, Note_on_c, 0, 59, 127
2, 291312, Note_off_c, 0, 73, 64
2, 291336, Note_off_c, 0, 59, 64
2, 291360, Note_on_c, 0, 55, 127
2, 291360, Note_on_c, 0, 74, 127
2, 291456, Note_off_c, 0, 55, 64
2, 291480, Note_on_c, 0, 50, 127
2, 291552, Note_off_c, 0, 74, 64
2, 291576, Note_off_c, 0, 50, 64
2, 291600, Note_on_c, 0, 78, 127
2, 291600, Note_on_c, 0, 47, 127
2, 291696, Note_off_c, 0, 47, 64
2, 291720, Note_on_c, 0, 55, 127
2, 291792, Note_off_c, 0, 78, 64
2, 291816, Note_off_c, 0, 55, 64
2, 291840, Note_on_c, 0, 79, 127
2, 291840, Note_on_c, 0, 50, 127
2, 291936, Note_off_c, 0, 50, 64
2, 291960, Note_on_c, 0, 47, 127
2, 292032, Note_off_c, 0, 79, 64
2, 292056, Note_off_c, 0, 47, 64
2, 292080, Note_on_c, 0, 43, 127
2, 292080, Note_on_c, 0, 82, 127
2, 292176, Note_off_c, 0, 43, 64
2, 292200, Note_on_c, 0, 50, 127
2, 292272, Note_off_c, 0, 82, 64
2, 292296, Note_off_c, 0, 50, 64
2, 292320, Note_on_c, 0, 47, 127
2, 292320, Note_on_c, 0, 83, 127
2, 292416, Note_off_c, 0, 47, 64
2, 292440, Note_on_c, 0, 43, 127
2, 292512, Note_off_c, 0, 83, 64
2, 292536, Note_off_c, 0, 43, 64
2, 292560, Note_on_c, 0, 86, 127
2, 292560, Note_on_c, 0, 38, 127
2, 292656, Note_off_c, 0, 38, 64
2, 292656, Note_off_c, 0, 86, 64
2, 292680, Note_on_c, 0, 84, 127
2, 292680, Note_on_c, 0, 50, 127
2, 292776, Note_off_c, 0, 50, 64
2, 292776, Note_off_c, 0, 84, 64
2, 292800, Note_on_c, 0, 54, 127
2, 292800, Note_on_c, 0, 86, 127
2, 292896, Note_off_c, 0, 86, 64
2, 292896, Note_off_c, 0, 54, 64
2, 292920, Note_on_c, 0, 84, 127
2, 292920, Note_on_c, 0, 57, 127
2, 293016, Note_off_c, 0, 57, 64
2, 293016, Note_off_c, 0, 84, 64
2, 293040, Note_on_c, 0, 50, 127
2, 293040, Note_on_c, 0, 81, 127
2, 293136, Note_off_c, 0, 50, 64
2, 293160, Note_on_c, 0, 60, 127
2, 293232, Note_off_c, 0, 81, 64
2, 293256, Note_off_c, 0, 60, 64
2, 293280, Note_on_c, 0, 54, 127
2, 293280, Note_on_c, 0, 81, 127
2, 293376, Note_off_c, 0, 81, 64
2, 293376, Note_off_c, 0, 54, 64
2, 293400, Note_on_c, 0, 60, 127
2, 293400, Note_on_c, 0, 83, 127
2, 293496, Note_off_c, 0, 83, 64
2, 293496, Note_off_c, 0, 60, 64
2, 293520, Note_on_c, 0, 55, 127
2, 293520, Note_on_c, 0, 79, 127
2, 293616, Note_off_c, 0, 55, 64
2, 293640, Note_on_c, 0, 59, 127
2, 293736, Note_off_c, 0, 59, 64
2, 293760, Note_on_c, 0, 62, 127
2, 293856, Note_off_c, 0, 62, 64
2, 293880, Note_on_c, 0, 59, 127
2, 293904, Note_off_c, 0, 79, 64
2, 293976, Note_off_c, 0, 59, 64
2, 294000, Note_on_c, 0, 55, 127
2, 294192, Note_off_c, 0, 55, 64
2, 294240, Note_on_c, 0, 74, 127
2, 294432, Note_off_c, 0, 74, 64
2, 294480, Note_on_c, 0, 86, 127
2, 294576, Note_off_c, 0, 86, 64
2, 294600, Note_on_c, 0, 84, 127
2, 294696, Note_off_c, 0, 84, 64
2, 294720, Note_on_c, 0, 86, 127
2, 294816, Note_off_c, 0, 86, 64
2, 294840, Note_on_c, 0, 84, 127
2, 294936, Note_off_c, 0, 84, 64
2, 294960, Note_on_c, 0, 79, 127
2, 294960, Note_on_c, 0, 81, 127
2, 295056, Note_off_c, 0, 79, 64
2, 295080, Note_on_c, 0, 78, 127
2, 295176, Note_off_c, 0, 78, 64
2, 295200, Note_on_c, 0, 79, 127
2, 295296, Note_off_c, 0, 79, 64
2, 295320, Note_on_c, 0, 78, 127
2, 295344, Note_off_c, 0, 81, 64
2, 295416, Note_off_c, 0, 78, 64
2, 295440, Note_on_c, 0, 84, 127
2, 295536, Note_off_c, 0, 84, 64
2, 295560, Note_on_c, 0, 83, 127
2, 295656, Note_off_c, 0, 83, 64
2, 295680, Note_on_c, 0, 84, 127
2, 295776, Note_off_c, 0, 84, 64
2, 295800, Note_on_c, 0, 83, 127
2, 295896, Note_off_c, 0, 83, 64
2, 295920, Note_on_c, 0, 75, 127
2, 295920, Note_on_c, 0, 79, 127
2, 296016, Note_off_c, 0, 75, 64
2, 296040, Note_on_c, 0, 76, 127
2, 296136, Note_off_c, 0, 76, 64
2, 296160, Note_on_c, 0, 75, 127
2, 296256, Note_off_c, 0, 75, 64
2, 296280, Note_on_c, 0, 76, 127
2, 296304, Note_off_c, 0, 79, 64
2, 296376, Note_off_c, 0, 76, 64
2, 296400, Note_on_c, 0, 83, 127
2, 296496, Note_off_c, 0, 83, 64
2, 296520, Note_on_c, 0, 81, 127
2, 296616, Note_off_c, 0, 81, 64
2, 296640, Note_on_c, 0, 83, 127
2, 296736, Note_off_c, 0, 83, 64
2, 296760, Note_on_c, 0, 81, 127
2, 296856, Note_off_c, 0, 81, 64
2, 296880, Note_on_c, 0, 76, 127
2, 296880, Note_on_c, 0, 78, 127
2, 296976, Note_off_c, 0, 76, 64
2, 297000, Note_on_c, 0, 75, 127
2, 297096, Note_off_c, 0, 75, 64
2, 297120, Note_on_c, 0, 76, 127
2, 297216, Note_off_c, 0, 76, 64
2, 297240, Note_on_c, 0, 75, 127
2, 297264, Note_off_c, 0, 78, 64
2, 297336, Note_off_c, 0, 75, 64
2, 297360, Note_on_c, 0, 81, 127
2, 297456, Note_off_c, 0, 81, 64
2, 297480, Note_on_c, 0, 79, 127
2, 297576, Note_off_c, 0, 79, 64
2, 297600, Note_on_c, 0, 81, 127
2, 297696, Note_off_c, 0, 81, 64
2, 297720, Note_on_c, 0, 79, 127
2, 297816, Note_off_c, 0, 79, 64
2, 297840, Note_on_c, 0, 71, 127
2, 297840, Note_on_c, 0, 76, 127
2, 297936, Note_off_c, 0, 71, 64
2, 297960, Note_on_c, 0, 72, 127
2, 298056, Note_off_c, 0, 72, 64
2, 298080, Note_on_c, 0, 71, 127
2, 298176, Note_off_c, 0, 71, 64
2, 298200, Note_on_c, 0, 72, 127
2, 298224, Note_off_c, 0, 76, 64
2, 298296, Note_off_c, 0, 72, 64
2, 298320, Note_on_c, 0, 79, 127
2, 298416, Note_off_c, 0, 79, 64
2, 298440, Note_on_c, 0, 77, 127
2, 298536, Note_off_c, 0, 77, 64
2, 298560, Note_on_c, 0, 79, 127
2, 298656, Note_off_c, 0, 79, 64
2, 298680, Note_on_c, 0, 77, 127
2, 298776, Note_off_c, 0, 77, 64
2, 298800, Note_on_c, 0, 72, 127
2, 298800, Note_on_c, 0, 74, 127
2, 298896, Note_off_c, 0, 72, 64
2, 298920, Note_on_c, 0, 71, 127
2, 299016, Note_off_c, 0, 71, 64
2, 299040, Note_on_c, 0, 72, 127
2, 299136, Note_off_c, 0, 72, 64
2, 299160, Note_on_c, 0, 71, 127
2, 299184, Note_off_c, 0, 74, 64
2, 299256, Note_off_c, 0, 71, 64
2, 299280, Note_on_c, 0, 77, 127
2, 299280, Note_on_c, 0, 68, 127
2, 299376, Note_off_c, 0, 77, 64
2, 299400, Note_on_c, 0, 76, 127
2, 299496, Note_off_c, 0, 76, 64
2, 299520, Note_on_c, 0, 77, 127
2, 299616, Note_off_c, 0, 77, 64
2, 299640, Note_on_c, 0, 76, 127
2, 299664, Note_off_c, 0, 68, 64
2, 299736, Note_off_c, 0, 76, 64
2, 299760, Note_on_c, 0, 71, 127
2, 299760, Note_on_c, 0, 72, 127
2, 299856, Note_off_c, 0, 71, 64
2, 299880, Note_on_c, 0, 69, 127
2, 299976, Note_off_c, 0, 69, 64
2, 300000, Note_on_c, 0, 71, 127
2, 300096, Note_off_c, 0, 71, 64
2, 300120, Note_on_c, 0, 69, 127
2, 300144, Note_off_c, 0, 72, 64
2, 300216, Note_off_c, 0, 69, 64
2, 300240, Note_on_c, 0, 76, 127
2, 300240, Note_on_c, 0, 66, 127
2, 300336, Note_off_c, 0, 76, 64
2, 300360, Note_on_c, 0, 74, 127
2, 300456, Note_off_c, 0, 74, 64
2, 300480, Note_on_c, 0, 76, 127
2, 300576, Note_off_c, 0, 76, 64
2, 300600, Note_on_c, 0, 74, 127
2, 300624, Note_off_c, 0, 66, 64
2, 300696, Note_off_c, 0, 74, 64
2, 300720, Note_on_c, 0, 69, 127
2, 300720, Note_on_c, 0, 71, 127
2, 300816, Note_off_c, 0, 69, 64
2, 300840, Note_on_c, 0, 67, 127
2, 300936, Note_off_c, 0, 67, 64
2, 300960, Note_on_c, 0, 69, 127
2, 301056, Note_off_c, 0, 69, 64
2, 301080, Note_on_c, 0, 67, 127
2, 301104, Note_off_c, 0, 71, 64
2, 301176, Note_off_c, 0, 67, 64
2, 301200, Note_on_c, 0, 74, 127
2, 301200, Note_on_c, 0, 64, 127
2, 301296, Note_off_c, 0, 74, 64
2, 301320, Note_on_c, 0, 72, 127
2, 301416, Note_off_c, 0, 72, 64
2, 301440, Note_on_c, 0, 74, 127
2, 301536, Note_off_c, 0, 74, 64
2, 301560, Note_on_c, 0, 72, 127
2, 301584, Note_off_c, 0, 64, 64
2, 301656, Note_off_c, 0, 72, 64
2, 301680, Note_on_c, 0, 67, 127
2, 301680, Note_on_c, 0, 69, 127
2, 301776, Note_off_c, 0, 67, 64
2, 301800, Note_on_c, 0, 66, 127
2, 301896, Note_off_c, 0, 66, 64
2, 301920, Note_on_c, 0, 67, 127
2, 302016, Note_off_c, 0, 67, 64
2, 302040, Note_on_c, 0, 66, 127
2, 302064, Note_off_c, 0, 69, 64
2, 302136, Note_off_c, 0, 66, 64
2, 302160, Note_on_c, 0, 63, 127
2, 302160, Note_on_c, 0, 72, 127
2, 302256, Note_off_c, 0, 72, 64
2, 302280, Note_on_c, 0, 71, 127
2, 302352, Note_off_c, 0, 63, 64
2, 302376, Note_off_c, 0, 71, 64
2, 302400, Note_on_c, 0, 69, 127
2, 302400, Note_on_c, 0, 64, 127
2, 302496, Note_off_c, 0, 69, 64
2, 302520, Note_on_c, 0, 67, 127
2, 302592, Note_off_c, 0, 64, 64
2, 302616, Note_off_c, 0, 67, 64
2, 302640, Note_on_c, 0, 61, 127
2, 302640, Note_on_c, 0, 71, 127
2, 302736, Note_off_c, 0, 71, 64
2, 302760, Note_on_c, 0, 69, 127
2, 302832, Note_off_c, 0, 61, 64
2, 302856, Note_off_c, 0, 69, 64
2, 302880, Note_on_c, 0, 62, 127
2, 302880, Note_on_c, 0, 67, 127
2, 302976, Note_off_c, 0, 67, 64
2, 303000, Note_on_c, 0, 66, 127
2, 303072, Note_off_c, 0, 62, 64
2, 303096, Note_off_c, 0, 66, 64
2, 303120, Note_on_c, 0, 59, 127
2, 303120, Note_on_c, 0, 69, 127
2, 303216, Note_off_c, 0, 69, 64
2, 303240, Note_on_c, 0, 67, 127
2, 303312, Note_off_c, 0, 59, 64
2, 303336, Note_off_c, 0, 67, 64
2, 303360, Note_on_c, 0, 66, 127
2, 303360, Note_on_c, 0, 60, 127
2, 303456, Note_off_c, 0, 66, 64
2, 303480, Note_on_c, 0, 64, 127
2, 303552, Note_off_c, 0, 60, 64
2, 303576, Note_off_c, 0, 64, 64
2, 303600, Note_on_c, 0, 57, 127
2, 303600, Note_on_c, 0, 67, 127
2, 303696, Note_off_c, 0, 67, 64
2, 303720, Note_on_c, 0, 66, 127
2, 303792, Note_off_c, 0, 57, 64
2, 303816, Note_off_c, 0, 66, 64
2, 303840, Note_on_c, 0, 59, 127
2, 303840, Note_on_c, 0, 64, 127
2, 303936, Note_off_c, 0, 64, 64
2, 303960, Note_on_c, 0, 62, 127
2, 304032, Note_off_c, 0, 59, 64
2, 304056, Note_off_c, 0, 62, 64
2, 304080, Note_on_c, 0, 55, 127
2, 304080, Note_on_c, 0, 66, 127
2, 304176, Note_off_c, 0, 66, 64
2, 304200, Note_on_c, 0, 64, 127
2, 304272, Note_off_c, 0, 55, 64
2, 304296, Note_off_c, 0, 64, 64
2, 304320, Note_on_c, 0, 62, 127
2, 304320, Note_on_c, 0, 57, 127
2, 304416, Note_off_c, 0, 62, 64
2, 304440, Note_on_c, 0, 60, 127
2, 304512, Note_off_c, 0, 57, 64
2, 304536, Note_off_c, 0, 60, 64
2, 304560, Note_on_c, 0, 54, 127
2, 304560, Note_on_c, 0, 64, 127
2, 304656, Note_off_c, 0, 64, 64
2, 304680, Note_on_c, 0, 62, 127
2, 304752, Note_off_c, 0, 54, 64
2, 304776, Note_off_c, 0, 62, 64
2, 304800, Note_on_c, 0, 55, 127
2, 304800, Note_on_c, 0, 60, 127
2, 304896, Note_off_c, 0, 60, 64
2, 304920, Note_on_c, 0, 59, 127
2, 304992, Note_off_c, 0, 55, 64
2, 305016, Note_off_c, 0, 59, 64
2, 305040, Note_on_c, 0, 52, 127
2, 305040, Note_on_c, 0, 62, 127
2, 305136, Note_off_c, 0, 62, 64
2, 305160, Note_on_c, 0, 60, 127
2, 305232, Note_off_c, 0, 52, 64
2, 305256, Note_off_c, 0, 60, 64
2, 305280, Note_on_c, 0, 59, 127
2, 305280, Note_on_c, 0, 54, 127
2, 305376, Note_off_c, 0, 59, 64
2, 305400, Note_on_c, 0, 57, 127
2, 305472, Note_off_c, 0, 54, 64
2, 305496, Note_off_c, 0, 57, 64
2, 305520, Note_on_c, 0, 51, 127
2, 305520, Note_on_c, 0, 60, 127
2, 305616, Note_off_c, 0, 60, 64
2, 305640, Note_on_c, 0, 59, 127
2, 305712, Note_off_c, 0, 51, 64
2, 305736, Note_off_c, 0, 59, 64
2, 305760, Note_on_c, 0, 52, 127
2, 305760, Note_on_c, 0, 57, 127
2, 305856, Note_off_c, 0, 57, 64
2, 305880, Note_on_c, 0, 55, 127
2, 305952, Note_off_c, 0, 52, 64
2, 305976, Note_off_c, 0, 55, 64
2, 306000, Note_on_c, 0, 51, 127
2, 306000, Note_on_c, 0, 45, 127
2, 306000, Note_on_c, 0, 48, 127
2, 306096, Note_off_c, 0, 51, 64
2, 306120, Note_on_c, 0, 63, 127
2, 306216, Note_off_c, 0, 63, 64
2, 306240, Note_on_c, 0, 54, 127
2, 306336, Note_off_c, 0, 54, 64
2, 306360, Note_on_c, 0, 63, 127
2, 306456, Note_off_c, 0, 63, 64
2, 306480, Note_on_c, 0, 60, 127
2, 306576, Note_off_c, 0, 60, 64
2, 306600, Note_on_c, 0, 63, 127
2, 306696, Note_off_c, 0, 63, 64
2, 306720, Note_on_c, 0, 51, 127
2, 306768, Note_off_c, 0, 45, 64
2, 306768, Note_off_c, 0, 48, 64
2, 306816, Note_off_c, 0, 51, 64
2, 306840, Note_on_c, 0, 63, 127
2, 306936, Note_off_c, 0, 63, 64
2, 306960, Note_on_c, 0, 52, 127
2, 306960, Note_on_c, 0, 49, 127
2, 306960, Note_on_c, 0, 46, 127
2, 307056, Note_off_c, 0, 52, 64
2, 307080, Note_on_c, 0, 64, 127
2, 307176, Note_off_c, 0, 64, 64
2, 307200, Note_on_c, 0, 55, 127
2, 307296, Note_off_c, 0, 55, 64
2, 307320, Note_on_c, 0, 64, 127
2, 307416, Note_off_c, 0, 64, 64
2, 307440, Note_on_c, 0, 61, 127
2, 307536, Note_off_c, 0, 61, 64
2, 307560, Note_on_c, 0, 64, 127
2, 307656, Note_off_c, 0, 64, 64
2, 307680, Note_on_c, 0, 52, 127
2, 307728, Note_off_c, 0, 49, 64
2, 307728, Note_off_c, 0, 46, 64
2, 307776, Note_off_c, 0, 52, 64
2, 307800, Note_on_c, 0, 64, 127
2, 307896, Note_off_c, 0, 64, 64
2, 307920, Note_on_c, 0, 47, 127
2, 308040, Note_on_c, 0, 59, 127
2, 308136, Note_off_c, 0, 59, 64
2, 308160, Note_on_c, 0, 61, 127
2, 308256, Note_off_c, 0, 61, 64
2, 308280, Note_on_c, 0, 63, 127
2, 308304, Note_off_c, 0, 47, 64
2, 308376, Note_off_c, 0, 63, 64
2, 308400, Note_on_c, 0, 64, 127
2, 308496, Note_off_c, 0, 64, 64
2, 308520, Note_on_c, 0, 66, 127
2, 308616, Note_off_c, 0, 66, 64
2, 308640, Note_on_c, 0, 68, 127
2, 308736, Note_off_c, 0, 68, 64
2, 308760, Note_on_c, 0, 70, 127
2, 308856, Note_off_c, 0, 70, 64
2, 308880, Note_on_c, 0, 71, 127
2, 308976, Note_off_c, 0, 71, 64
2, 309000, Note_on_c, 0, 73, 127
2, 309096, Note_off_c, 0, 73, 64
2, 309120, Note_on_c, 0, 75, 127
2, 309216, Note_off_c, 0, 75, 64
2, 309240, Note_on_c, 0, 76, 127
2, 309336, Note_off_c, 0, 76, 64
2, 309360, Note_on_c, 0, 78, 127
2, 309456, Note_off_c, 0, 78, 64
2, 309480, Note_on_c, 0, 80, 127
2, 309576, Note_off_c, 0, 80, 64
2, 309600, Note_on_c, 0, 82, 127
2, 309696, Note_off_c, 0, 82, 64
2, 309720, Note_on_c, 0, 83, 127
2, 309816, Note_off_c, 0, 83, 64
2, 309840, Note_on_c, 0, 56, 127
2, 309840, Note_on_c, 0, 50, 127
2, 309840, Note_on_c, 0, 53, 127
2, 309936, Note_off_c, 0, 56, 64
2, 309960, Note_on_c, 0, 68, 127
2, 310056, Note_off_c, 0, 68, 64
2, 310080, Note_on_c, 0, 59, 127
2, 310176, Note_off_c, 0, 59, 64
2, 310200, Note_on_c, 0, 68, 127
2, 310296, Note_off_c, 0, 68, 64
2, 310320, Note_on_c, 0, 65, 127
2, 310416, Note_off_c, 0, 65, 64
2, 310440, Note_on_c, 0, 68, 127
2, 310536, Note_off_c, 0, 68, 64
2, 310560, Note_on_c, 0, 56, 127
2, 310608, Note_off_c, 0, 50, 64
2, 310608, Note_off_c, 0, 53, 64
2, 310656, Note_off_c, 0, 56, 64
2, 310680, Note_on_c, 0, 68, 127
2, 310776, Note_off_c, 0, 68, 64
2, 310800, Note_on_c, 0, 57, 127
2, 310800, Note_on_c, 0, 54, 127
2, 310800, Note_on_c, 0, 51, 127
2, 310896, Note_off_c, 0, 57, 64
2, 310920, Note_on_c, 0, 69, 127
2, 311016, Note_off_c, 0, 69, 64
2, 311040, Note_on_c, 0, 60, 127
2, 311136, Note_off_c, 0, 60, 64
2, 311160, Note_on_c, 0, 69, 127
2, 311256, Note_off_c, 0, 69, 64
2, 311280, Note_on_c, 0, 66, 127
2, 311376, Note_off_c, 0, 66, 64
2, 311400, Note_on_c, 0, 69, 127
2, 311496, Note_off_c, 0, 69, 64
2, 311520, Note_on_c, 0, 57, 127
2, 311568, Note_off_c, 0, 54, 64
2, 311568, Note_off_c, 0, 51, 64
2, 311616, Note_off_c, 0, 57, 64
2, 311640, Note_on_c, 0, 69, 127
2, 311736, Note_off_c, 0, 69, 64
2, 311760, Note_on_c, 0, 56, 127
2, 311760, Note_on_c, 0, 52, 127
2, 311880, Note_on_c, 0, 64, 127
2, 311976, Note_off_c, 0, 64, 64
2, 312000, Note_on_c, 0, 66, 127
2, 312096, Note_off_c, 0, 66, 64
2, 312120, Note_on_c, 0, 68, 127
2, 312144, Note_off_c, 0, 52, 64
2, 312144, Note_off_c, 0, 56, 64
2, 312216, Note_off_c, 0, 68, 64
2, 312240, Note_on_c, 0, 69, 127
2, 312336, Note_off_c, 0, 69, 64
2, 312360, Note_on_c, 0, 71, 127
2, 312456, Note_off_c, 0, 71, 64
2, 312480, Note_on_c, 0, 73, 127
2, 312576, Note_off_c, 0, 73, 64
2, 312600, Note_on_c, 0, 75, 127
2, 312696, Note_off_c, 0, 75, 64
2, 312720, Note_on_c, 0, 76, 127
2, 312816, Note_off_c, 0, 76, 64
2, 312840, Note_on_c, 0, 78, 127
2, 312936, Note_off_c, 0, 78, 64
2, 312960, Note_on_c, 0, 80, 127
2, 313056, Note_off_c, 0, 80, 64
2, 313080, Note_on_c, 0, 81, 127
2, 313176, Note_off_c, 0, 81, 64
2, 313200, Note_on_c, 0, 83, 127
2, 313296, Note_off_c, 0, 83, 64
2, 313320, Note_on_c, 0, 85, 127
2, 313416, Note_off_c, 0, 85, 64
2, 313440, Note_on_c, 0, 87, 127
2, 313536, Note_off_c, 0, 87, 64
2, 313560, Note_on_c, 0, 88, 127
2, 313656, Note_off_c, 0, 88, 64
2, 313680, Note_on_c, 0, 61, 127
2, 313680, Note_on_c, 0, 55, 127
2, 313680, Note_on_c, 0, 58, 127
2, 313776, Note_off_c, 0, 61, 64
2, 313800, Note_on_c, 0, 73, 127
2, 313896, Note_off_c, 0, 73, 64
2, 313920, Note_on_c, 0, 64, 127
2, 314016, Note_off_c, 0, 64, 64
2, 314040, Note_on_c, 0, 73, 127
2, 314136, Note_off_c, 0, 73, 64
2, 314160, Note_on_c, 0, 70, 127
2, 314256, Note_off_c, 0, 70, 64
2, 314280, Note_on_c, 0, 73, 127
2, 314376, Note_off_c, 0, 73, 64
2, 314400, Note_on_c, 0, 61, 127
2, 314448, Note_off_c, 0, 55, 64
2, 314448, Note_off_c, 0, 58, 64
2, 314496, Note_off_c, 0, 61, 64
2, 314520, Note_on_c, 0, 73, 127
2, 314616, Note_off_c, 0, 73, 64
2, 314640, Note_on_c, 0, 62, 127
2, 314640, Note_on_c, 0, 59, 127
2, 314640, Note_on_c, 0, 56, 127
2, 314736, Note_off_c, 0, 62, 64
2, 314760, Note_on_c, 0, 74, 127
2, 314856, Note_off_c, 0, 74, 64
2, 314880, Note_on_c, 0, 65, 127
2, 314976, Note_off_c, 0, 65, 64
2, 315000, Note_on_c, 0, 74, 127
2, 315096, Note_off_c, 0, 74, 64
2, 315120, Note_on_c, 0, 71, 127
2, 315216, Note_off_c, 0, 71, 64
2, 315240, Note_on_c, 0, 74, 127
2, 315336, Note_off_c, 0, 74, 64
2, 315360, Note_on_c, 0, 62, 127
2, 315408, Note_off_c, 0, 59, 64
2, 315408, Note_off_c, 0, 56, 64
2, 315456, Note_off_c, 0, 62, 64
2, 315480, Note_on_c, 0, 74, 127
2, 315576, Note_off_c, 0, 74, 64
2, 315600, Note_on_c, 0, 62, 127
2, 315600, Note_on_c, 0, 59, 127
2, 315600, Note_on_c, 0, 55, 127
2, 315696, Note_off_c, 0, 62, 64
2, 315720, Note_on_c, 0, 74, 127
2, 315816, Note_off_c, 0, 74, 64
2, 315840, Note_on_c, 0, 65, 127
2, 315936, Note_off_c, 0, 65, 64
2, 315960, Note_on_c, 0, 74, 127
2, 316056, Note_off_c, 0, 74, 64
2, 316080, Note_on_c, 0, 71, 127
2, 316176, Note_off_c, 0, 71, 64
2, 316200, Note_on_c, 0, 74, 127
2, 316296, Note_off_c, 0, 74, 64
2, 316320, Note_on_c, 0, 62, 127
2, 316368, Note_off_c, 0, 59, 64
2, 316368, Note_off_c, 0, 55, 64
2, 316416, Note_off_c, 0, 62, 64
2, 316440, Note_on_c, 0, 74, 127
2, 316536, Note_off_c, 0, 74, 64
2, 316560, Note_on_c, 0, 63, 127
2, 316560, Note_on_c, 0, 48, 127
2, 316560, Note_on_c, 0, 60, 127
2, 316656, Note_off_c, 0, 63, 64
2, 316680, Note_on_c, 0, 75, 127
2, 316776, Note_off_c, 0, 75, 64
2, 316800, Note_on_c, 0, 67, 127
2, 316896, Note_off_c, 0, 67, 64
2, 316920, Note_on_c, 0, 75, 127
2, 317016, Note_off_c, 0, 75, 64
2, 317040, Note_on_c, 0, 72, 127
2, 317136, Note_off_c, 0, 72, 64
2, 317160, Note_on_c, 0, 75, 127
2, 317256, Note_off_c, 0, 75, 64
2, 317280, Note_on_c, 0, 63, 127
2, 317328, Note_off_c, 0, 48, 64
2, 317328, Note_off_c, 0, 60, 64
2, 317376, Note_off_c, 0, 63, 64
2, 317400, Note_on_c, 0, 75, 127
2, 317496, Note_off_c, 0, 75, 64
2, 317520, Note_on_c, 0, 60, 127
2, 317520, Note_on_c, 0, 57, 127
2, 317520, Note_on_c, 0, 53, 127
2, 317616, Note_off_c, 0, 60, 64
2, 317640, Note_on_c, 0, 72, 127
2, 317736, Note_off_c, 0, 72, 64
2, 317760, Note_on_c, 0, 63, 127
2, 317856, Note_off_c, 0, 63, 64
2, 317880, Note_on_c, 0, 72, 127
2, 317976, Note_off_c, 0, 72, 64
2, 318000, Note_on_c, 0, 69, 127
2, 318096, Note_off_c, 0, 69, 64
2, 318120, Note_on_c, 0, 72, 127
2, 318216, Note_off_c, 0, 72, 64
2, 318240, Note_on_c, 0, 60, 127
2, 318288, Note_off_c, 0, 57, 64
2, 318288, Note_off_c, 0, 53, 64
2, 318336, Note_off_c, 0, 60, 64
2, 318360, Note_on_c, 0, 72, 127
2, 318456, Note_off_c, 0, 72, 64
2, 318480, Note_on_c, 0, 60, 127
2, 318480, Note_on_c, 0, 57, 127
2, 318480, Note_on_c, 0, 54, 127
2, 318576, Note_off_c, 0, 60, 64
2, 318600, Note_on_c, 0, 72, 127
2, 318696, Note_off_c, 0, 72, 64
2, 318720, Note_on_c, 0, 63, 127
2, 318816, Note_off_c, 0, 63, 64
2, 318840, Note_on_c, 0, 72, 127
2, 318936, Note_off_c, 0, 72, 64
2, 318960, Note_on_c, 0, 69, 127
2, 319056, Note_off_c, 0, 69, 64
2, 319080, Note_on_c, 0, 72, 127
2, 319176, Note_off_c, 0, 72, 64
2, 319200, Note_on_c, 0, 60, 127
2, 319248, Note_off_c, 0, 57, 64
2, 319248, Note_off_c, 0, 54, 64
2, 319296, Note_off_c, 0, 60, 64
2, 319320, Note_on_c, 0, 72, 127
2, 319416, Note_off_c, 0, 72, 64
2, 319440, Note_on_c, 0, 60, 127
2, 319440, Note_on_c, 0, 53, 127
2, 319440, Note_on_c, 0, 57, 127
2, 319536, Note_off_c, 0, 60, 64
2, 319560, Note_on_c, 0, 72, 127
2, 319656, Note_off_c, 0, 72, 64
2, 319680, Note_on_c, 0, 63, 127
2, 319776, Note_off_c, 0, 63, 64
2, 319800, Note_on_c, 0, 72, 127
2, 319896, Note_off_c, 0, 72, 64
2, 319920, Note_on_c, 0, 69, 127
2, 320016, Note_off_c, 0, 69, 64
2, 320040, Note_on_c, 0, 72, 127
2, 320136, Note_off_c, 0, 72, 64
2, 320160, Note_on_c, 0, 60, 127
2, 320208, Note_off_c, 0, 53, 64
2, 320208, Note_off_c, 0, 57, 64
2, 320256, Note_off_c, 0, 60, 64
2, 320280, Note_on_c, 0, 72, 127
2, 320376, Note_off_c, 0, 72, 64
2, 320400, Note_on_c, 0, 61, 127
2, 320400, Note_on_c, 0, 46, 127
2, 320400, Note_on_c, 0, 58, 127
2, 320496, Note_off_c, 0, 61, 64
2, 320520, Note_on_c, 0, 73, 127
2, 320616, Note_off_c, 0, 73, 64
2, 320640, Note_on_c, 0, 65, 127
2, 320736, Note_off_c, 0, 65, 64
2, 320760, Note_on_c, 0, 73, 127
2, 320856, Note_off_c, 0, 73, 64
2, 320880, Note_on_c, 0, 70, 127
2, 320976, Note_off_c, 0, 70, 64
2, 321000, Note_on_c, 0, 73, 127
2, 321096, Note_off_c, 0, 73, 64
2, 321120, Note_on_c, 0, 61, 127
2, 321168, Note_off_c, 0, 46, 64
2, 321168, Note_off_c, 0, 58, 64
2, 321216, Note_off_c, 0, 61, 64
2, 321240, Note_on_c, 0, 73, 127
2, 321336, Note_off_c, 0, 73, 64
2, 321360, Note_on_c, 0, 58, 127
2, 321360, Note_on_c, 0, 51, 127
2, 321360, Note_on_c, 0, 55, 127
2, 321456, Note_off_c, 0, 58, 64
2, 321480, Note_on_c, 0, 70, 127
2, 321576, Note_off_c, 0, 70, 64
2, 321600, Note_on_c, 0, 61, 127
2, 321696, Note_off_c, 0, 61, 64
2, 321720, Note_on_c, 0, 70, 127
2, 321816, Note_off_c, 0, 70, 64
2, 321840, Note_on_c, 0, 67, 127
2, 321936, Note_off_c, 0, 67, 64
2, 321960, Note_on_c, 0, 70, 127
2, 322056, Note_off_c, 0, 70, 64
2, 322080, Note_on_c, 0, 58, 127
2, 322128, Note_off_c, 0, 51, 64
2, 322128, Note_off_c, 0, 55, 64
2, 322176, Note_off_c, 0, 58, 64
2, 322200, Note_on_c, 0, 70, 127
2, 322296, Note_off_c, 0, 70, 64
2, 322320, Note_on_c, 0, 58, 127
2, 322320, Note_on_c, 0, 52, 127
2, 322320, Note_on_c, 0, 55, 127
2, 322416, Note_off_c, 0, 58, 64
2, 322440, Note_on_c, 0, 70, 127
2, 322536, Note_off_c, 0, 70, 64
2, 322560, Note_on_c, 0, 61, 127
2, 322656, Note_off_c, 0, 61, 64
2, 322680, Note_on_c, 0, 70, 127
2, 322776, Note_off_c, 0, 70, 64
2, 322800, Note_on_c, 0, 67, 127
2, 322896, Note_off_c, 0, 67, 64
2, 322920, Note_on_c, 0, 70, 127
2, 323016, Note_off_c, 0, 70, 64
2, 323040, Note_on_c, 0, 58, 127
2, 323088, Note_off_c, 0, 52, 64
2, 323088, Note_off_c, 0, 55, 64
2, 323136, Note_off_c, 0, 58, 64
2, 323160, Note_on_c, 0, 70, 127
2, 323256, Note_off_c, 0, 70, 64
2, 323280, Note_on_c, 0, 51, 127
2, 323280, Note_on_c, 0, 55, 127
2, 323400, Note_on_c, 0, 58, 127
2, 323496, Note_off_c, 0, 58, 64
2, 323520, Note_on_c, 0, 60, 127
2, 323616, Note_off_c, 0, 60, 64
2, 323640, Note_on_c, 0, 61, 127
2, 323664, Note_off_c, 0, 55, 64
2, 323664, Note_off_c, 0, 51, 64
2, 323736, Note_off_c, 0, 61, 64
2, 323760, Note_on_c, 0, 39, 127
2, 323760, Note_on_c, 0, 63, 127
2, 323856, Note_off_c, 0, 63, 64
2, 323880, Note_on_c, 0, 65, 127
2, 323976, Note_off_c, 0, 65, 64
2, 324000, Note_on_c, 0, 67, 127
2, 324096, Note_off_c, 0, 67, 64
2, 324120, Note_on_c, 0, 68, 127
2, 324144, Note_off_c, 0, 39, 64
2, 324216, Note_off_c, 0, 68, 64
2, 324240, Note_on_c, 0, 70, 127
2, 324336, Note_off_c, 0, 70, 64
2, 324360, Note_on_c, 0, 72, 127
2, 324456, Note_off_c, 0, 72, 64
2, 324480, Note_on_c, 0, 73, 127
2, 324576, Note_off_c, 0, 73, 64
2, 324600, Note_on_c, 0, 75, 127
2, 324696, Note_off_c, 0, 75, 64
2, 324720, Note_on_c, 0, 77, 127
2, 324816, Note_off_c, 0, 77, 64
2, 324840, Note_on_c, 0, 79, 127
2, 324936, Note_off_c, 0, 79, 64
2, 324960, Note_on_c, 0, 80, 127
2, 325056, Note_off_c, 0, 80, 64
2, 325080, Note_on_c, 0, 82, 127
2, 325176, Note_off_c, 0, 82, 64
2, 325200, Note_on_c, 0, 84, 127
2, 325200, Note_on_c, 0, 32, 127
2, 325296, Note_off_c, 0, 32, 64
2, 325320, Note_on_c, 0, 36, 127
2, 325416, Note_off_c, 0, 36, 64
2, 325440, Note_on_c, 0, 39, 127
2, 325536, Note_off_c, 0, 39, 64
2, 325560, Note_on_c, 0, 44, 127
2, 325584, Note_off_c, 0, 84, 64
2, 325656, Note_off_c, 0, 44, 64
2, 325680, Note_on_c, 0, 36, 127
2, 325680, Note_on_c, 0, 80, 127
2, 325776, Note_off_c, 0, 36, 64
2, 325800, Note_on_c, 0, 39, 127
2, 325872, Note_off_c, 0, 80, 64
2, 325896, Note_off_c, 0, 39, 64
2, 325920, Note_on_c, 0, 44, 127
2, 325920, Note_on_c, 0, 80, 127
2, 326016, Note_off_c, 0, 44, 64
2, 326040, Note_on_c, 0, 48, 127
2, 326112, Note_off_c, 0, 80, 64
2, 326136, Note_off_c, 0, 48, 64
2, 326160, Note_on_c, 0, 75, 127
2, 326160, Note_on_c, 0, 39, 127
2, 326256, Note_off_c, 0, 39, 64
2, 326280, Note_on_c, 0, 44, 127
2, 326352, Note_off_c, 0, 75, 64
2, 326376, Note_off_c, 0, 44, 64
2, 326400, Note_on_c, 0, 75, 127
2, 326400, Note_on_c, 0, 48, 127
2, 326496, Note_off_c, 0, 48, 64
2, 326520, Note_on_c, 0, 51, 127
2, 326592, Note_off_c, 0, 75, 64
2, 326616, Note_off_c, 0, 51, 64
2, 326640, Note_on_c, 0, 44, 127
2, 326640, Note_on_c, 0, 72, 127
2, 326736, Note_off_c, 0, 44, 64
2, 326760, Note_on_c, 0, 48, 127
2, 326856, Note_off_c, 0, 48, 64
2, 326880, Note_on_c, 0, 51, 127
2, 326976, Note_off_c, 0, 51, 64
2, 327000, Note_on_c, 0, 56, 127
2, 327024, Note_off_c, 0, 72, 64
2, 327096, Note_off_c, 0, 56, 64
2, 327120, Note_on_c, 0, 55, 127
2, 327120, Note_on_c, 0, 58, 127
2, 327216, Note_off_c, 0, 58, 64
2, 327240, Note_on_c, 0, 60, 127
2, 327336, Note_off_c, 0, 60, 64
2, 327360, Note_on_c, 0, 64, 127
2, 327456, Note_off_c, 0, 64, 64
2, 327480, Note_on_c, 0, 70, 127
2, 327504, Note_off_c, 0, 55, 64
2, 327576, Note_off_c, 0, 70, 64
2, 327600, Note_on_c, 0, 52, 127
2, 327600, Note_on_c, 0, 60, 127
2, 327696, Note_off_c, 0, 60, 64
2, 327720, Note_on_c, 0, 64, 127
2, 327792, Note_off_c, 0, 52, 64
2, 327816, Note_off_c, 0, 64, 64
2, 327840, Note_on_c, 0, 52, 127
2, 327840, Note_on_c, 0, 70, 127
2, 327936, Note_off_c, 0, 70, 64
2, 327960, Note_on_c, 0, 72, 127
2, 328032, Note_off_c, 0, 52, 64
2, 328056, Note_off_c, 0, 72, 64
2, 328080, Note_on_c, 0, 64, 127
2, 328080, Note_on_c, 0, 48, 127
2, 328176, Note_off_c, 0, 64, 64
2, 328200, Note_on_c, 0, 70, 127
2, 328272, Note_off_c, 0, 48, 64
2, 328296, Note_off_c, 0, 70, 64
2, 328320, Note_on_c, 0, 48, 127
2, 328320, Note_on_c, 0, 72, 127
2, 328416, Note_off_c, 0, 72, 64
2, 328440, Note_on_c, 0, 76, 127
2, 328512, Note_off_c, 0, 48, 64
2, 328536, Note_off_c, 0, 76, 64
2, 328560, Note_on_c, 0, 43, 127
2, 328560, Note_on_c, 0, 70, 127
2, 328656, Note_off_c, 0, 70, 64
2, 328680, Note_on_c, 0, 72, 127
2, 328776, Note_off_c, 0, 72, 64
2, 328800, Note_on_c, 0, 76, 127
2, 328896, Note_off_c, 0, 76, 64
2, 328920, Note_on_c, 0, 82, 127
2, 328944, Note_off_c, 0, 43, 64
2, 329016, Note_off_c, 0, 82, 64
2, 329040, Note_on_c, 0, 80, 127
2, 329040, Note_on_c, 0, 29, 127
2, 329136, Note_off_c, 0, 29, 64
2, 329160, Note_on_c, 0, 32, 127
2, 329256, Note_off_c, 0, 32, 64
2, 329280, Note_on_c, 0, 36, 127
2, 329376, Note_off_c, 0, 36, 64
2, 329400, Note_on_c, 0, 41, 127
2, 329424, Note_off_c, 0, 80, 64
2, 329496, Note_off_c, 0, 41, 64
2, 329520, Note_on_c, 0, 32, 127
2, 329520, Note_on_c, 0, 77, 127
2, 329616, Note_off_c, 0, 32, 64
2, 329640, Note_on_c, 0, 36, 127
2, 329712, Note_off_c, 0, 77, 64
2, 329736, Note_off_c, 0, 36, 64
2, 329760, Note_on_c, 0, 41, 127
2, 329760, Note_on_c, 0, 77, 127
2, 329856, Note_off_c, 0, 41, 64
2, 329880, Note_on_c, 0, 44, 127
2, 329952, Note_off_c, 0, 77, 64
2, 329976, Note_off_c, 0, 44, 64
2, 330000, Note_on_c, 0, 72, 127
2, 330000, Note_on_c, 0, 36, 127
2, 330096, Note_off_c, 0, 36, 64
2, 330120, Note_on_c, 0, 41, 127
2, 330192, Note_off_c, 0, 72, 64
2, 330216, Note_off_c, 0, 41, 64
2, 330240, Note_on_c, 0, 72, 127
2, 330240, Note_on_c, 0, 44, 127
2, 330336, Note_off_c, 0, 44, 64
2, 330360, Note_on_c, 0, 48, 127
2, 330432, Note_off_c, 0, 72, 64
2, 330456, Note_off_c, 0, 48, 64
2, 330480, Note_on_c, 0, 41, 127
2, 330480, Note_on_c, 0, 68, 127
2, 330576, Note_off_c, 0, 41, 64
2, 330600, Note_on_c, 0, 44, 127
2, 330696, Note_off_c, 0, 44, 64
2, 330720, Note_on_c, 0, 48, 127
2, 330816, Note_off_c, 0, 48, 64
2, 330840, Note_on_c, 0, 53, 127
2, 330864, Note_off_c, 0, 68, 64
2, 330936, Note_off_c, 0, 53, 64
2, 330960, Note_on_c, 0, 51, 127
2, 330960, Note_on_c, 0, 55, 127
2, 331056, Note_off_c, 0, 55, 64
2, 331080, Note_on_c, 0, 60, 127
2, 331176, Note_off_c, 0, 60, 64
2, 331200, Note_on_c, 0, 63, 127
2, 331296, Note_off_c, 0, 63, 64
2, 331320, Note_on_c, 0, 67, 127
2, 331344, Note_off_c, 0, 51, 64
2, 331416, Note_off_c, 0, 67, 64
2, 331440, Note_on_c, 0, 48, 127
2, 331440, Note_on_c, 0, 60, 127
2, 331536, Note_off_c, 0, 60, 64
2, 331560, Note_on_c, 0, 63, 127
2, 331632, Note_off_c, 0, 48, 64
2, 331656, Note_off_c, 0, 63, 64
2, 331680, Note_on_c, 0, 48, 127
2, 331680, Note_on_c, 0, 67, 127
2, 331776, Note_off_c, 0, 67, 64
2, 331800, Note_on_c, 0, 72, 127
2, 331872, Note_off_c, 0, 48, 64
2, 331896, Note_off_c, 0, 72, 64
2, 331920, Note_on_c, 0, 63, 127
2, 331920, Note_on_c, 0, 43, 127
2, 332016, Note_off_c, 0, 63, 64
2, 332040, Note_on_c, 0, 67, 127
2, 332112, Note_off_c, 0, 43, 64
2, 332136, Note_off_c, 0, 67, 64
2, 332160, Note_on_c, 0, 43, 127
2, 332160, Note_on_c, 0, 72, 127
2, 332256, Note_off_c, 0, 72, 64
2, 332280, Note_on_c, 0, 75, 127
2, 332352, Note_off_c, 0, 43, 64
2, 332376, Note_off_c, 0, 75, 64
2, 332400, Note_on_c, 0, 39, 127
2, 332400, Note_on_c, 0, 67, 127
2, 332496, Note_off_c, 0, 67, 64
2, 332520, Note_on_c, 0, 72, 127
2, 332616, Note_off_c, 0, 72, 64
2, 332640, Note_on_c, 0, 75, 127
2, 332736, Note_off_c, 0, 75, 64
2, 332760, Note_on_c, 0, 79, 127
2, 332784, Note_off_c, 0, 39, 64
2, 332856, Note_off_c, 0, 79, 64
2, 332880, Note_on_c, 0, 38, 127
2, 333000, Note_on_c, 0, 84, 127
2, 333096, Note_off_c, 0, 84, 64
2, 333120, Note_on_c, 0, 81, 127
2, 333216, Note_off_c, 0, 81, 64
2, 333240, Note_on_c, 0, 78, 127
2, 333264, Note_off_c, 0, 38, 64
2, 333336, Note_off_c, 0, 78, 64
2, 333360, Note_on_c, 0, 42, 127
2, 333360, Note_on_c, 0, 72, 127
2, 333456, Note_off_c, 0, 72, 64
2, 333480, Note_on_c, 0, 78, 127
2, 333552, Note_off_c, 0, 42, 64
2, 333576, Note_off_c, 0, 78, 64
2, 333600, Note_on_c, 0, 42, 127
2, 333600, Note_on_c, 0, 72, 127
2, 333696, Note_off_c, 0, 72, 64
2, 333720, Note_on_c, 0, 69, 127
2, 333792, Note_off_c, 0, 42, 64
2, 333816, Note_off_c, 0, 69, 64
2, 333840, Note_on_c, 0, 66, 127
2, 333840, Note_on_c, 0, 45, 127
2, 333936, Note_off_c, 0, 66, 64
2, 333960, Note_on_c, 0, 72, 127
2, 334032, Note_off_c, 0, 45, 64
2, 334056, Note_off_c, 0, 72, 64
2, 334080, Note_on_c, 0, 45, 127
2, 334080, Note_on_c, 0, 69, 127
2, 334176, Note_off_c, 0, 69, 64
2, 334200, Note_on_c, 0, 66, 127
2, 334272, Note_off_c, 0, 45, 64
2, 334296, Note_off_c, 0, 66, 64
2, 334320, Note_on_c, 0, 50, 127
2, 334320, Note_on_c, 0, 60, 127
2, 334416, Note_off_c, 0, 60, 64
2, 334440, Note_on_c, 0, 69, 127
2, 334536, Note_off_c, 0, 69, 64
2, 334560, Note_on_c, 0, 66, 127
2, 334656, Note_off_c, 0, 66, 64
2, 334680, Note_on_c, 0, 60, 127
2, 334704, Note_off_c, 0, 50, 64
2, 334776, Note_off_c, 0, 60, 64
2, 334800, Note_on_c, 0, 38, 127
2, 334920, Note_on_c, 0, 82, 127
2, 335016, Note_off_c, 0, 82, 64
2, 335040, Note_on_c, 0, 79, 127
2, 335136, Note_off_c, 0, 79, 64
2, 335160, Note_on_c, 0, 74, 127
2, 335184, Note_off_c, 0, 38, 64
2, 335256, Note_off_c, 0, 74, 64
2, 335280, Note_on_c, 0, 43, 127
2, 335280, Note_on_c, 0, 70, 127
2, 335376, Note_off_c, 0, 70, 64
2, 335400, Note_on_c, 0, 79, 127
2, 335472, Note_off_c, 0, 43, 64
2, 335496, Note_off_c, 0, 79, 64
2, 335520, Note_on_c, 0, 43, 127
2, 335520, Note_on_c, 0, 74, 127
2, 335616, Note_off_c, 0, 74, 64
2, 335640, Note_on_c, 0, 70, 127
2, 335712, Note_off_c, 0, 43, 64
2, 335736, Note_off_c, 0, 70, 64
2, 335760, Note_on_c, 0, 67, 127
2, 335760, Note_on_c, 0, 46, 127
2, 335856, Note_off_c, 0, 67, 64
2, 335880, Note_on_c, 0, 70, 127
2, 335952, Note_off_c, 0, 46, 64
2, 335976, Note_off_c, 0, 70, 64
2, 336000, Note_on_c, 0, 46, 127
2, 336000, Note_on_c, 0, 67, 127
2, 336096, Note_off_c, 0, 67, 64
2, 336120, Note_on_c, 0, 62, 127
2, 336192, Note_off_c, 0, 46, 64
2, 336216, Note_off_c, 0, 62, 64
2, 336240, Note_on_c, 0, 50, 127
2, 336240, Note_on_c, 0, 58, 127
2, 336336, Note_off_c, 0, 58, 64
2, 336360, Note_on_c, 0, 67, 127
2, 336456, Note_off_c, 0, 67, 64
2, 336480, Note_on_c, 0, 62, 127
2, 336576, Note_off_c, 0, 62, 64
2, 336600, Note_on_c, 0, 58, 127
2, 336624, Note_off_c, 0, 50, 64
2, 336696, Note_off_c, 0, 58, 64
2, 336720, Note_on_c, 0, 38, 127
2, 336840, Note_on_c, 0, 79, 127
2, 336936, Note_off_c, 0, 79, 64
2, 336960, Note_on_c, 0, 76, 127
2, 337056, Note_off_c, 0, 76, 64
2, 337080, Note_on_c, 0, 73, 127
2, 337104, Note_off_c, 0, 38, 64
2, 337176, Note_off_c, 0, 73, 64
2, 337200, Note_on_c, 0, 43, 127
2, 337200, Note_on_c, 0, 67, 127
2, 337296, Note_off_c, 0, 67, 64
2, 337320, Note_on_c, 0, 76, 127
2, 337392, Note_off_c, 0, 43, 64
2, 337416, Note_off_c, 0, 76, 64
2, 337440, Note_on_c, 0, 43, 127
2, 337440, Note_on_c, 0, 73, 127
2, 337536, Note_off_c, 0, 73, 64
2, 337560, Note_on_c, 0, 67, 127
2, 337632, Note_off_c, 0, 43, 64
2, 337656, Note_off_c, 0, 67, 64
2, 337680, Note_on_c, 0, 64, 127
2, 337680, Note_on_c, 0, 46, 127
2, 337776, Note_off_c, 0, 64, 64
2, 337800, Note_on_c, 0, 67, 127
2, 337872, Note_off_c, 0, 46, 64
2, 337896, Note_off_c, 0, 67, 64
2, 337920, Note_on_c, 0, 46, 127
2, 337920, Note_on_c, 0, 64, 127
2, 338016, Note_off_c, 0, 64, 64
2, 338040, Note_on_c, 0, 61, 127
2, 338112, Note_off_c, 0, 46, 64
2, 338136, Note_off_c, 0, 61, 64
2, 338160, Note_on_c, 0, 50, 127
2, 338160, Note_on_c, 0, 55, 127
2, 338256, Note_off_c, 0, 55, 64
2, 338280, Note_on_c, 0, 64, 127
2, 338376, Note_off_c, 0, 64, 64
2, 338400, Note_on_c, 0, 61, 127
2, 338496, Note_off_c, 0, 61, 64
2, 338520, Note_on_c, 0, 55, 127
2, 338544, Note_off_c, 0, 50, 64
2, 338616, Note_off_c, 0, 55, 64
2, 338640, Note_on_c, 0, 38, 127
2, 338760, Note_on_c, 0, 81, 127
2, 338856, Note_off_c, 0, 81, 64
2, 338880, Note_on_c, 0, 78, 127
2, 338976, Note_off_c, 0, 78, 64
2, 339000, Note_on_c, 0, 74, 127
2, 339024, Note_off_c, 0, 38, 64
2, 339096, Note_off_c, 0, 74, 64
2, 339120, Note_on_c, 0, 69, 127
2, 339216, Note_off_c, 0, 69, 64
2, 339240, Note_on_c, 0, 78, 127
2, 339336, Note_off_c, 0, 78, 64
2, 339360, Note_on_c, 0, 74, 127
2, 339456, Note_off_c, 0, 74, 64
2, 339480, Note_on_c, 0, 69, 127
2, 339576, Note_off_c, 0, 69, 64
2, 339600, Note_on_c, 0, 66, 127
2, 339696, Note_off_c, 0, 66, 64
2, 339720, Note_on_c, 0, 74, 127
2, 339816, Note_off_c, 0, 74, 64
2, 339840, Note_on_c, 0, 69, 127
2, 339936, Note_off_c, 0, 69, 64
2, 339960, Note_on_c, 0, 66, 127
2, 340056, Note_off_c, 0, 66, 64
2, 340080, Note_on_c, 0, 62, 127
2, 340176, Note_off_c, 0, 62, 64
2, 340200, Note_on_c, 0, 69, 127
2, 340296, Note_off_c, 0, 69, 64
2, 340320, Note_on_c, 0, 66, 127
2, 340416, Note_off_c, 0, 66, 64
2, 340440, Note_on_c, 0, 62, 127
2, 340536, Note_off_c, 0, 62, 64
2, 340560, Note_on_c, 0, 38, 127
2, 340680, Note_on_c, 0, 84, 127
2, 340776, Note_off_c, 0, 84, 64
2, 340800, Note_on_c, 0, 81, 127
2, 340896, Note_off_c, 0, 81, 64
2, 340920, Note_on_c, 0, 78, 127
2, 340944, Note_off_c, 0, 38, 64
2, 341016, Note_off_c, 0, 78, 64
2, 341040, Note_on_c, 0, 42, 127
2, 341040, Note_on_c, 0, 72, 127
2, 341136, Note_off_c, 0, 72, 64
2, 341160, Note_on_c, 0, 78, 127
2, 341232, Note_off_c, 0, 42, 64
2, 341256, Note_off_c, 0, 78, 64
2, 341280, Note_on_c, 0, 42, 127
2, 341280, Note_on_c, 0, 72, 127
2, 341376, Note_off_c, 0, 72, 64
2, 341400, Note_on_c, 0, 69, 127
2, 341472, Note_off_c, 0, 42, 64
2, 341496, Note_off_c, 0, 69, 64
2, 341520, Note_on_c, 0, 66, 127
2, 341520, Note_on_c, 0, 45, 127
2, 341616, Note_off_c, 0, 66, 64
2, 341640, Note_on_c, 0, 72, 127
2, 341712, Note_off_c, 0, 45, 64
2, 341736, Note_off_c, 0, 72, 64
2, 341760, Note_on_c, 0, 45, 127
2, 341760, Note_on_c, 0, 69, 127
2, 341856, Note_off_c, 0, 69, 64
2, 341880, Note_on_c, 0, 66, 127
2, 341952, Note_off_c, 0, 45, 64
2, 341976, Note_off_c, 0, 66, 64
2, 342000, Note_on_c, 0, 50, 127
2, 342000, Note_on_c, 0, 60, 127
2, 342096, Note_off_c, 0, 60, 64
2, 342120, Note_on_c, 0, 69, 127
2, 342216, Note_off_c, 0, 69, 64
2, 342240, Note_on_c, 0, 66, 127
2, 342336, Note_off_c, 0, 66, 64
2, 342360, Note_on_c, 0, 60, 127
2, 342384, Note_off_c, 0, 50, 64
2, 342456, Note_off_c, 0, 60, 64
2, 342480, Note_on_c, 0, 39, 127
2, 342600, Note_on_c, 0, 84, 127
2, 342696, Note_off_c, 0, 84, 64
2, 342720, Note_on_c, 0, 79, 127
2, 342816, Note_off_c, 0, 79, 64
2, 342840, Note_on_c, 0, 75, 127
2, 342864, Note_off_c, 0, 39, 64
2, 342936, Note_off_c, 0, 75, 64
2, 342960, Note_on_c, 0, 43, 127
2, 342960, Note_on_c, 0, 72, 127
2, 343056, Note_off_c, 0, 72, 64
2, 343080, Note_on_c, 0, 75, 127
2, 343152, Note_off_c, 0, 43, 64
2, 343176, Note_off_c, 0, 75, 64
2, 343200, Note_on_c, 0, 43, 127
2, 343200, Note_on_c, 0, 72, 127
2, 343296, Note_off_c, 0, 72, 64
2, 343320, Note_on_c, 0, 67, 127
2, 343392, Note_off_c, 0, 43, 64
2, 343416, Note_off_c, 0, 67, 64
2, 343440, Note_on_c, 0, 63, 127
2, 343440, Note_on_c, 0, 48, 127
2, 343536, Note_off_c, 0, 63, 64
2, 343560, Note_on_c, 0, 72, 127
2, 343632, Note_off_c, 0, 48, 64
2, 343656, Note_off_c, 0, 72, 64
2, 343680, Note_on_c, 0, 48, 127
2, 343680, Note_on_c, 0, 67, 127
2, 343776, Note_off_c, 0, 67, 64
2, 343800, Note_on_c, 0, 63, 127
2, 343872, Note_off_c, 0, 48, 64
2, 343896, Note_off_c, 0, 63, 64
2, 343920, Note_on_c, 0, 51, 127
2, 343920, Note_on_c, 0, 60, 127
2, 344016, Note_off_c, 0, 60, 64
2, 344040, Note_on_c, 0, 67, 127
2, 344136, Note_off_c, 0, 67, 64
2, 344160, Note_on_c, 0, 63, 127
2, 344256, Note_off_c, 0, 63, 64
2, 344280, Note_on_c, 0, 60, 127
2, 344304, Note_off_c, 0, 51, 64
2, 344376, Note_off_c, 0, 60, 64
2, 344400, Note_on_c, 0, 40, 127
2, 344520, Note_on_c, 0, 84, 127
2, 344616, Note_off_c, 0, 84, 64
2, 344640, Note_on_c, 0, 79, 127
2, 344736, Note_off_c, 0, 79, 64
2, 344760, Note_on_c, 0, 76, 127
2, 344784, Note_off_c, 0, 40, 64
2, 344856, Note_off_c, 0, 76, 64
2, 344880, Note_on_c, 0, 43, 127
2, 344880, Note_on_c, 0, 72, 127
2, 344976, Note_off_c, 0, 72, 64
2, 345000, Note_on_c, 0, 76, 127
2, 345072, Note_off_c, 0, 43, 64
2, 345096, Note_off_c, 0, 76, 64
2, 345120, Note_on_c, 0, 43, 127
2, 345120, Note_on_c, 0, 72, 127
2, 345216, Note_off_c, 0, 72, 64
2, 345240, Note_on_c, 0, 67, 127
2, 345312, Note_off_c, 0, 43, 64
2, 345336, Note_off_c, 0, 67, 64
2, 345360, Note_on_c, 0, 64, 127
2, 345360, Note_on_c, 0, 48, 127
2, 345456, Note_off_c, 0, 64, 64
2, 345480, Note_on_c, 0, 67, 127
2, 345552, Note_off_c, 0, 48, 64
2, 345576, Note_off_c, 0, 67, 64
2, 345600, Note_on_c, 0, 48, 127
2, 345600, Note_on_c, 0, 64, 127
2, 345696, Note_off_c, 0, 64, 64
2, 345720, Note_on_c, 0, 60, 127
2, 345792, Note_off_c, 0, 48, 64
2, 345816, Note_off_c, 0, 60, 64
2, 345840, Note_on_c, 0, 52, 127
2, 345840, Note_on_c, 0, 55, 127
2, 345936, Note_off_c, 0, 55, 64
2, 345960, Note_on_c, 0, 64, 127
2, 346056, Note_off_c, 0, 64, 64
2, 346080, Note_on_c, 0, 60, 127
2, 346176, Note_off_c, 0, 60, 64
2, 346200, Note_on_c, 0, 55, 127
2, 346224, Note_off_c, 0, 52, 64
2, 346296, Note_off_c, 0, 55, 64
2, 346320, Note_on_c, 0, 41, 127
2, 346440, Note_on_c, 0, 84, 127
2, 346536, Note_off_c, 0, 84, 64
2, 346560, Note_on_c, 0, 81, 127
2, 346656, Note_off_c, 0, 81, 64
2, 346680, Note_on_c, 0, 77, 127
2, 346704, Note_off_c, 0, 41, 64
2, 346776, Note_off_c, 0, 77, 64
2, 346800, Note_on_c, 0, 45, 127
2, 346800, Note_on_c, 0, 72, 127
2, 346896, Note_off_c, 0, 72, 64
2, 346920, Note_on_c, 0, 77, 127
2, 346992, Note_off_c, 0, 45, 64
2, 347016, Note_off_c, 0, 77, 64
2, 347040, Note_on_c, 0, 45, 127
2, 347040, Note_on_c, 0, 72, 127
2, 347136, Note_off_c, 0, 72, 64
2, 347160, Note_on_c, 0, 69, 127
2, 347232, Note_off_c, 0, 45, 64
2, 347256, Note_off_c, 0, 69, 64
2, 347280, Note_on_c, 0, 65, 127
2, 347280, Note_on_c, 0, 48, 127
2, 347376, Note_off_c, 0, 65, 64
2, 347400, Note_on_c, 0, 72, 127
2, 347472, Note_off_c, 0, 48, 64
2, 347496, Note_off_c, 0, 72, 64
2, 347520, Note_on_c, 0, 48, 127
2, 347520, Note_on_c, 0, 69, 127
2, 347616, Note_off_c, 0, 69, 64
2, 347640, Note_on_c, 0, 65, 127
2, 347712, Note_off_c, 0, 48, 64
2, 347736, Note_off_c, 0, 65, 64
2, 347760, Note_on_c, 0, 53, 127
2, 347760, Note_on_c, 0, 60, 127
2, 347856, Note_off_c, 0, 60, 64
2, 347880, Note_on_c, 0, 69, 127
2, 347976, Note_off_c, 0, 69, 64
2, 348000, Note_on_c, 0, 65, 127
2, 348096, Note_off_c, 0, 65, 64
2, 348120, Note_on_c, 0, 60, 127
2, 348144, Note_off_c, 0, 53, 64
2, 348216, Note_off_c, 0, 60, 64
2, 348240, Note_on_c, 0, 50, 127
2, 348240, Note_on_c, 0, 48, 127
2, 348240, Note_on_c, 0, 45, 127
2, 348240, Note_on_c, 0, 42, 127
2, 348360, Note_on_c, 0, 84, 127
2, 348456, Note_off_c, 0, 84, 64
2, 348480, Note_on_c, 0, 83, 127
2, 348576, Note_off_c, 0, 83, 64
2, 348600, Note_on_c, 0, 81, 127
2, 348624, Note_off_c, 0, 42, 64
2, 348624, Note_off_c, 0, 45, 64
2, 348624, Note_off_c, 0, 48, 64
2, 348624, Note_off_c, 0, 50, 64
2, 348696, Note_off_c, 0, 81, 64
2, 348720, Note_on_c, 0, 79, 127
2, 348816, Note_off_c, 0, 79, 64
2, 348840, Note_on_c, 0, 78, 127
2, 348936, Note_off_c, 0, 78, 64
2, 348960, Note_on_c, 0, 76, 127
2, 349056, Note_off_c, 0, 76, 64
2, 349080, Note_on_c, 0, 74, 127
2, 349176, Note_off_c, 0, 74, 64
2, 349200, Note_on_c, 0, 72, 127
2, 349296, Note_off_c, 0, 72, 64
2, 349320, Note_on_c, 0, 71, 127
2, 349416, Note_off_c, 0, 71, 64
2, 349440, Note_on_c, 0, 69, 127
2, 349536, Note_off_c, 0, 69, 64
2, 349560, Note_on_c, 0, 67, 127
2, 349656, Note_off_c, 0, 67, 64
2, 349680, Note_on_c, 0, 66, 127
2, 349776, Note_off_c, 0, 66, 64
2, 349800, Note_on_c, 0, 64, 127
2, 349896, Note_off_c, 0, 64, 64
2, 349920, Note_on_c, 0, 62, 127
2, 350016, Note_off_c, 0, 62, 64
2, 350040, Note_on_c, 0, 60, 127
2, 350136, Note_off_c, 0, 60, 64
2, 350160, Note_on_c, 0, 59, 127
2, 350256, Note_off_c, 0, 59, 64
2, 350280, Note_on_c, 0, 57, 127
2, 350376, Note_off_c, 0, 57, 64
2, 350400, Note_on_c, 0, 55, 127
2, 350496, Note_off_c, 0, 55, 64
2, 350520, Note_on_c, 0, 54, 127
2, 350616, Note_off_c, 0, 54, 64
2, 350640, Note_on_c, 0, 52, 127
2, 350736, Note_off_c, 0, 52, 64
2, 350760, Note_on_c, 0, 50, 127
2, 350856, Note_off_c, 0, 50, 64
2, 350880, Note_on_c, 0, 48, 127
2, 350976, Note_off_c, 0, 48, 64
2, 351000, Note_on_c, 0, 47, 127
2, 351096, Note_off_c, 0, 47, 64
2, 351120, Note_on_c, 0, 45, 127
2, 351216, Note_off_c, 0, 45, 64
2, 351240, Note_on_c, 0, 43, 127
2, 351336, Note_off_c, 0, 43, 64
2, 351360, Note_on_c, 0, 42, 127
2, 351456, Note_off_c, 0, 42, 64
2, 351480, Note_on_c, 0, 40, 127
2, 351576, Note_off_c, 0, 40, 64
2, 351600, Note_on_c, 0, 38, 127
2, 351696, Note_off_c, 0, 38, 64
2, 351720, Note_on_c, 0, 37, 127
2, 351816, Note_off_c, 0, 37, 64
2, 351840, Note_on_c, 0, 38, 127
2, 351936, Note_off_c, 0, 38, 64
2, 351960, Note_on_c, 0, 37, 127
2, 352056, Note_off_c, 0, 37, 64
2, 352080, Note_on_c, 0, 38, 127
2, 352464, Note_off_c, 0, 38, 64
2, 352560, Note_on_c, 0, 42, 127
2, 352752, Note_off_c, 0, 42, 64
2, 352800, Note_on_c, 0, 42, 127
2, 352992, Note_off_c, 0, 42, 64
2, 353040, Note_on_c, 0, 45, 127
2, 353040, Note_on_c, 0, 50, 127
2, 353424, Note_off_c, 0, 50, 64
2, 353424, Note_off_c, 0, 45, 64
2, 353520, Note_on_c, 0, 54, 127
2, 353712, Note_off_c, 0, 54, 64
2, 353760, Note_on_c, 0, 54, 127
2, 353952, Note_off_c, 0, 54, 64
2, 354000, Note_on_c, 0, 57, 127
2, 354000, Note_on_c, 0, 42, 127
2, 354384, Note_off_c, 0, 42, 64
2, 354384, Note_off_c, 0, 57, 64
2, 354480, Note_on_c, 0, 45, 127
2, 354672, Note_off_c, 0, 45, 64
2, 354720, Note_on_c, 0, 45, 127
2, 354912, Note_off_c, 0, 45, 64
2, 354960, Note_on_c, 0, 48, 127
2, 354960, Note_on_c, 0, 54, 127
2, 355344, Note_off_c, 0, 54, 64
2, 355344, Note_off_c, 0, 48, 64
2, 355440, Note_on_c, 0, 57, 127
2, 355632, Note_off_c, 0, 57, 64
2, 355680, Note_on_c, 0, 57, 127
2, 355872, Note_off_c, 0, 57, 64
2, 355920, Note_on_c, 0, 60, 127
2, 355920, Note_on_c, 0, 45, 127
2, 356304, Note_off_c, 0, 45, 64
2, 356304, Note_off_c, 0, 60, 64
2, 356400, Note_on_c, 0, 48, 127
2, 356592, Note_off_c, 0, 48, 64
2, 356640, Note_on_c, 0, 48, 127
2, 356832, Note_off_c, 0, 48, 64
2, 356880, Note_on_c, 0, 51, 127
2, 356880, Note_on_c, 0, 57, 127
2, 357264, Note_off_c, 0, 57, 64
2, 357264, Note_off_c, 0, 51, 64
2, 357360, Note_on_c, 0, 60, 127
2, 357552, Note_off_c, 0, 60, 64
2, 357600, Note_on_c, 0, 60, 127
2, 357792, Note_off_c, 0, 60, 64
2, 357840, Note_on_c, 0, 60, 127
2, 357840, Note_on_c, 0, 42, 127
2, 357840, Note_on_c, 0, 63, 127
2, 358224, Note_off_c, 0, 63, 64
2, 358224, Note_off_c, 0, 42, 64
2, 358224, Note_off_c, 0, 60, 64
2, 358320, Note_on_c, 0, 51, 127
2, 358320, Note_on_c, 0, 48, 127
2, 358320, Note_on_c, 0, 54, 127
2, 358320, Note_on_c, 0, 57, 127
2, 358512, Note_off_c, 0, 48, 64
2, 358512, Note_off_c, 0, 51, 64
2, 358560, Note_on_c, 0, 51, 127
2, 358560, Note_on_c, 0, 48, 127
2, 358704, Note_off_c, 0, 54, 64
2, 358704, Note_off_c, 0, 57, 64
2, 358752, Note_off_c, 0, 51, 64
2, 358752, Note_off_c, 0, 48, 64
2, 358800, Note_on_c, 0, 60, 127
2, 358800, Note_on_c, 0, 42, 127
2, 358800, Note_on_c, 0, 63, 127
2, 359184, Note_off_c, 0, 63, 64
2, 359184, Note_off_c, 0, 42, 64
2, 359184, Note_off_c, 0, 60, 64
2, 359280, Note_on_c, 0, 51, 127
2, 359280, Note_on_c, 0, 48, 127
2, 359280, Note_on_c, 0, 54, 127
2, 359280, Note_on_c, 0, 57, 127
2, 359472, Note_off_c, 0, 48, 64
2, 359472, Note_off_c, 0, 51, 64
2, 359520, Note_on_c, 0, 51, 127
2, 359520, Note_on_c, 0, 48, 127
2, 359664, Note_off_c, 0, 54, 64
2, 359664, Note_off_c, 0, 57, 64
2, 359712, Note_off_c, 0, 51, 64
2, 359712, Note_off_c, 0, 48, 64
2, 359760, Note_on_c, 0, 64, 127
2, 359760, Note_on_c, 0, 43, 127
2, 359760, Note_on_c, 0, 60, 127
2, 360144, Note_off_c, 0, 60, 64
2, 360144, Note_off_c, 0, 43, 64
2, 360144, Note_off_c, 0, 64, 64
2, 360240, Note_on_c, 0, 48, 127
2, 360240, Note_on_c, 0, 52, 127
2, 360240, Note_on_c, 0, 55, 127
2, 360432, Note_off_c, 0, 52, 64
2, 360432, Note_off_c, 0, 48, 64
2, 360480, Note_on_c, 0, 52, 127
2, 360480, Note_on_c, 0, 48, 127
2, 360624, Note_off_c, 0, 55, 64
2, 360672, Note_off_c, 0, 52, 64
2, 360672, Note_off_c, 0, 48, 64
2, 360720, Note_on_c, 0, 65, 127
2, 360720, Note_on_c, 0, 43, 127
2, 360720, Note_on_c, 0, 59, 127
2, 361104, Note_off_c, 0, 59, 64
2, 361104, Note_off_c, 0, 43, 64
2, 361104, Note_off_c, 0, 65, 64
2, 361200, Note_on_c, 0, 50, 127
2, 361200, Note_on_c, 0, 53, 127
2, 361200, Note_on_c, 0, 55, 127
2, 361392, Note_off_c, 0, 53, 64
2, 361392, Note_off_c, 0, 50, 64
2, 361440, Note_on_c, 0, 53, 127
2, 361440, Note_on_c, 0, 50, 127
2, 361584, Note_off_c, 0, 55, 64
2, 361632, Note_off_c, 0, 53, 64
2, 361632, Note_off_c, 0, 50, 64
2, 361680, Note_on_c, 0, 62, 127
2, 361680, Note_on_c, 0, 44, 127
2, 361680, Note_on_c, 0, 65, 127
2, 362064, Note_off_c, 0, 65, 64
2, 362064, Note_off_c, 0, 44, 64
2, 362064, Note_off_c, 0, 62, 64
2, 362160, Note_on_c, 0, 53, 127
2, 362160, Note_on_c, 0, 50, 127
2, 362160, Note_on_c, 0, 59, 127
2, 362160, Note_on_c, 0, 56, 127
2, 362352, Note_off_c, 0, 50, 64
2, 362352, Note_off_c, 0, 53, 64
2, 362400, Note_on_c, 0, 53, 127
2, 362400, Note_on_c, 0, 50, 127
2, 362544, Note_off_c, 0, 59, 64
2, 362544, Note_off_c, 0, 56, 64
2, 362592, Note_off_c, 0, 53, 64
2, 362592, Note_off_c, 0, 50, 64
2, 362640, Note_on_c, 0, 62, 127
2, 362640, Note_on_c, 0, 44, 127
2, 362640, Note_on_c, 0, 65, 127
2, 363024, Note_off_c, 0, 65, 64
2, 363024, Note_off_c, 0, 44, 64
2, 363024, Note_off_c, 0, 62, 64
2, 363120, Note_on_c, 0, 53, 127
2, 363120, Note_on_c, 0, 50, 127
2, 363120, Note_on_c, 0, 56, 127
2, 363120, Note_on_c, 0, 59, 127
2, 363312, Note_off_c, 0, 50, 64
2, 363312, Note_off_c, 0, 53, 64
2, 363360, Note_on_c, 0, 53, 127
2, 363360, Note_on_c, 0, 50, 127
2, 363504, Note_off_c, 0, 56, 64
2, 363504, Note_off_c, 0, 59, 64
2, 363552, Note_off_c, 0, 53, 64
2, 363552, Note_off_c, 0, 50, 64
2, 363600, Note_on_c, 0, 62, 127
2, 363600, Note_on_c, 0, 45, 127
2, 363600, Note_on_c, 0, 66, 127
2, 363984, Note_off_c, 0, 66, 64
2, 363984, Note_off_c, 0, 45, 64
2, 363984, Note_off_c, 0, 62, 64
2, 364080, Note_on_c, 0, 54, 127
2, 364080, Note_on_c, 0, 50, 127
2, 364080, Note_on_c, 0, 57, 127
2, 364272, Note_off_c, 0, 50, 64
2, 364272, Note_off_c, 0, 54, 64
2, 364320, Note_on_c, 0, 54, 127
2, 364320, Note_on_c, 0, 50, 127
2, 364464, Note_off_c, 0, 57, 64
2, 364512, Note_off_c, 0, 54, 64
2, 364512, Note_off_c, 0, 50, 64
2, 364560, Note_on_c, 0, 67, 127
2, 364560, Note_on_c, 0, 45, 127
2, 364560, Note_on_c, 0, 61, 127
2, 364944, Note_off_c, 0, 61, 64
2, 364944, Note_off_c, 0, 45, 64
2, 364944, Note_off_c, 0, 67, 64
2, 365040, Note_on_c, 0, 55, 127
2, 365040, Note_on_c, 0, 52, 127
2, 365040, Note_on_c, 0, 57, 127
2, 365232, Note_off_c, 0, 52, 64
2, 365232, Note_off_c, 0, 55, 64
2, 365280, Note_on_c, 0, 52, 127
2, 365280, Note_on_c, 0, 55, 127
2, 365424, Note_off_c, 0, 57, 64
2, 365472, Note_off_c, 0, 52, 64
2, 365472, Note_off_c, 0, 55, 64
2, 365520, Note_on_c, 0, 64, 127
2, 365520, Note_on_c, 0, 46, 127
2, 365520, Note_on_c, 0, 67, 127
2, 365904, Note_off_c, 0, 67, 64
2, 365904, Note_off_c, 0, 46, 64
2, 365904, Note_off_c, 0, 64, 64
2, 366000, Note_on_c, 0, 55, 127
2, 366000, Note_on_c, 0, 52, 127
2, 366000, Note_on_c, 0, 58, 127
2, 366000, Note_on_c, 0, 61, 127
2, 366192, Note_off_c, 0, 52, 64
2, 366192, Note_off_c, 0, 55, 64
2, 366240, Note_on_c, 0, 52, 127
2, 366240, Note_on_c, 0, 55, 127
2, 366384, Note_off_c, 0, 58, 64
2, 366384, Note_off_c, 0, 61, 64
2, 366432, Note_off_c, 0, 52, 64
2, 366432, Note_off_c, 0, 55, 64
2, 366480, Note_on_c, 0, 67, 127
2, 366480, Note_on_c, 0, 46, 127
2, 366480, Note_on_c, 0, 64, 127
2, 366864, Note_off_c, 0, 64, 64
2, 366864, Note_off_c, 0, 46, 64
2, 366864, Note_off_c, 0, 67, 64
2, 366960, Note_on_c, 0, 55, 127
2, 366960, Note_on_c, 0, 52, 127
2, 366960, Note_on_c, 0, 58, 127
2, 366960, Note_on_c, 0, 61, 127
2, 367152, Note_off_c, 0, 52, 64
2, 367152, Note_off_c, 0, 55, 64
2, 367200, Note_on_c, 0, 55, 127
2, 367200, Note_on_c, 0, 52, 127
2, 367344, Note_off_c, 0, 58, 64
2, 367344, Note_off_c, 0, 61, 64
2, 367392, Note_off_c, 0, 55, 64
2, 367392, Note_off_c, 0, 52, 64
2, 367440, Note_on_c, 0, 64, 127
2, 367440, Note_on_c, 0, 47, 127
2, 367440, Note_on_c, 0, 68, 127
2, 367824, Note_off_c, 0, 68, 64
2, 367824, Note_off_c, 0, 47, 64
2, 367824, Note_off_c, 0, 64, 64
2, 367920, Note_on_c, 0, 56, 127
2, 367920, Note_on_c, 0, 52, 127
2, 367920, Note_on_c, 0, 59, 127
2, 368112, Note_off_c, 0, 52, 64
2, 368112, Note_off_c, 0, 56, 64
2, 368160, Note_on_c, 0, 56, 127
2, 368160, Note_on_c, 0, 52, 127
2, 368304, Note_off_c, 0, 59, 64
2, 368352, Note_off_c, 0, 56, 64
2, 368352, Note_off_c, 0, 52, 64
2, 368400, Note_on_c, 0, 69, 127
2, 368400, Note_on_c, 0, 47, 127
2, 368400, Note_on_c, 0, 63, 127
2, 368784, Note_off_c, 0, 63, 64
2, 368784, Note_off_c, 0, 47, 64
2, 368784, Note_off_c, 0, 69, 64
2, 368880, Note_on_c, 0, 54, 127
2, 368880, Note_on_c, 0, 57, 127
2, 368880, Note_on_c, 0, 59, 127
2, 369072, Note_off_c, 0, 57, 64
2, 369072, Note_off_c, 0, 54, 64
2, 369120, Note_on_c, 0, 54, 127
2, 369120, Note_on_c, 0, 57, 127
2, 369264, Note_off_c, 0, 59, 64
2, 369312, Note_off_c, 0, 54, 64
2, 369312, Note_off_c, 0, 57, 64
2, 369360, Note_on_c, 0, 71, 127
2, 369360, Note_on_c, 0, 47, 127
2, 369360, Note_on_c, 0, 64, 127
2, 369744, Note_off_c, 0, 64, 64
2, 369744, Note_off_c, 0, 47, 64
2, 369744, Note_off_c, 0, 71, 64
2, 369840, Note_on_c, 0, 56, 127
2, 369840, Note_on_c, 0, 59, 127
2, 370032, Note_off_c, 0, 56, 64
2, 370080, Note_on_c, 0, 56, 127
2, 370224, Note_off_c, 0, 59, 64
2, 370272, Note_off_c, 0, 56, 64
2, 370320, Note_on_c, 0, 69, 127
2, 370320, Note_on_c, 0, 47, 127
2, 370320, Note_on_c, 0, 63, 127
2, 370704, Note_off_c, 0, 63, 64
2, 370704, Note_off_c, 0, 47, 64
2, 370704, Note_off_c, 0, 69, 64
2, 370800, Note_on_c, 0, 54, 127
2, 370800, Note_on_c, 0, 57, 127
2, 370800, Note_on_c, 0, 59, 127
2, 370992, Note_off_c, 0, 57, 64
2, 370992, Note_off_c, 0, 54, 64
2, 371040, Note_on_c, 0, 54, 127
2, 371040, Note_on_c, 0, 57, 127
2, 371184, Note_off_c, 0, 59, 64
2, 371232, Note_off_c, 0, 54, 64
2, 371232, Note_off_c, 0, 57, 64
2, 371280, Note_on_c, 0, 64, 127
2, 371280, Note_on_c, 0, 47, 127
2, 371280, Note_on_c, 0, 68, 127
2, 371664, Note_off_c, 0, 68, 64
2, 371664, Note_off_c, 0, 47, 64
2, 371664, Note_off_c, 0, 64, 64
2, 371760, Note_on_c, 0, 56, 127
2, 371760, Note_on_c, 0, 52, 127
2, 371760, Note_on_c, 0, 59, 127
2, 371952, Note_off_c, 0, 52, 64
2, 371952, Note_off_c, 0, 56, 64
2, 372000, Note_on_c, 0, 56, 127
2, 372000, Note_on_c, 0, 52, 127
2, 372144, Note_off_c, 0, 59, 64
2, 372192, Note_off_c, 0, 56, 64
2, 372192, Note_off_c, 0, 52, 64
2, 372240, Note_on_c, 0, 69, 127
2, 372240, Note_on_c, 0, 47, 127
2, 372240, Note_on_c, 0, 63, 127
2, 372624, Note_off_c, 0, 63, 64
2, 372624, Note_off_c, 0, 47, 64
2, 372624, Note_off_c, 0, 69, 64
2, 372720, Note_on_c, 0, 54, 127
2, 372720, Note_on_c, 0, 57, 127
2, 372720, Note_on_c, 0, 59, 127
2, 372912, Note_off_c, 0, 57, 64
2, 372912, Note_off_c, 0, 54, 64
2, 372960, Note_on_c, 0, 57, 127
2, 372960, Note_on_c, 0, 54, 127
2, 373104, Note_off_c, 0, 59, 64
2, 373152, Note_off_c, 0, 57, 64
2, 373152, Note_off_c, 0, 54, 64
2, 373200, Note_on_c, 0, 70, 127
2, 373200, Note_on_c, 0, 46, 127
2, 373200, Note_on_c, 0, 63, 127
2, 373584, Note_off_c, 0, 63, 64
2, 373584, Note_off_c, 0, 46, 64
2, 373584, Note_off_c, 0, 70, 64
2, 373680, Note_on_c, 0, 51, 127
2, 373680, Note_on_c, 0, 55, 127
2, 373680, Note_on_c, 0, 58, 127
2, 373872, Note_off_c, 0, 55, 64
2, 373872, Note_off_c, 0, 51, 64
2, 373920, Note_on_c, 0, 55, 127
2, 373920, Note_on_c, 0, 51, 127
2, 374064, Note_off_c, 0, 58, 64
2, 374112, Note_off_c, 0, 55, 64
2, 374112, Note_off_c, 0, 51, 64
2, 374160, Note_on_c, 0, 62, 127
2, 374160, Note_on_c, 0, 46, 127
2, 374160, Note_on_c, 0, 68, 127
2, 374544, Note_off_c, 0, 68, 64
2, 374544, Note_off_c, 0, 46, 64
2, 374544, Note_off_c, 0, 62, 64
2, 374640, Note_on_c, 0, 56, 127
2, 374640, Note_on_c, 0, 53, 127
2, 374640, Note_on_c, 0, 58, 127
2, 374832, Note_off_c, 0, 53, 64
2, 374832, Note_off_c, 0, 56, 64
2, 374880, Note_on_c, 0, 56, 127
2, 374880, Note_on_c, 0, 53, 127
2, 375024, Note_off_c, 0, 58, 64
2, 375072, Note_off_c, 0, 56, 64
2, 375072, Note_off_c, 0, 53, 64
2, 375120, Note_on_c, 0, 63, 127
2, 375120, Note_on_c, 0, 51, 127
2, 375120, Note_on_c, 0, 67, 127
2, 375504, Note_off_c, 0, 67, 64
2, 375504, Note_off_c, 0, 51, 64
2, 375504, Note_off_c, 0, 63, 64
2, 375600, Note_on_c, 0, 55, 127
2, 375600, Note_on_c, 0, 58, 127
2, 375792, Note_off_c, 0, 55, 64
2, 375840, Note_on_c, 0, 55, 127
2, 375984, Note_off_c, 0, 58, 64
2, 376032, Note_off_c, 0, 55, 64
2, 376080, Note_on_c, 0, 67, 127
2, 376080, Note_on_c, 0, 51, 127
2, 376080, Note_on_c, 0, 72, 127
2, 376464, Note_off_c, 0, 72, 64
2, 376464, Note_off_c, 0, 51, 64
2, 376464, Note_off_c, 0, 67, 64
2, 376560, Note_on_c, 0, 55, 127
2, 376560, Note_on_c, 0, 60, 127
2, 376752, Note_off_c, 0, 55, 64
2, 376800, Note_on_c, 0, 55, 127
2, 376944, Note_off_c, 0, 60, 64
2, 376992, Note_off_c, 0, 55, 64
2, 377040, Note_on_c, 0, 67, 127
2, 377040, Note_on_c, 0, 50, 127
2, 377040, Note_on_c, 0, 74, 127
2, 377424, Note_off_c, 0, 74, 64
2, 377424, Note_off_c, 0, 50, 64
2, 377424, Note_off_c, 0, 67, 64
2, 377520, Note_on_c, 0, 57, 127
2, 377520, Note_on_c, 0, 55, 127
2, 377520, Note_on_c, 0, 62, 127
2, 377712, Note_off_c, 0, 55, 64
2, 377712, Note_off_c, 0, 57, 64
2, 377760, Note_on_c, 0, 57, 127
2, 377760, Note_on_c, 0, 55, 127
2, 377904, Note_off_c, 0, 62, 64
2, 377952, Note_off_c, 0, 57, 64
2, 377952, Note_off_c, 0, 55, 64
2, 378000, Note_on_c, 0, 72, 127
2, 378000, Note_on_c, 0, 50, 127
2, 378000, Note_on_c, 0, 66, 127
2, 378384, Note_off_c, 0, 66, 64
2, 378384, Note_off_c, 0, 50, 64
2, 378384, Note_off_c, 0, 72, 64
2, 378480, Note_on_c, 0, 57, 127
2, 378480, Note_on_c, 0, 54, 127
2, 378480, Note_on_c, 0, 60, 127
2, 378672, Note_off_c, 0, 54, 64
2, 378672, Note_off_c, 0, 57, 64
2, 378720, Note_on_c, 0, 54, 127
2, 378720, Note_on_c, 0, 57, 127
2, 378864, Note_off_c, 0, 60, 64
2, 378912, Note_off_c, 0, 54, 64
2, 378912, Note_off_c, 0, 57, 64
2, 378960, Note_on_c, 0, 67, 127
2, 378960, Note_on_c, 0, 55, 127
2, 378960, Note_on_c, 0, 70, 127
2, 379344, Note_off_c, 0, 70, 64
2, 379344, Note_off_c, 0, 55, 64
2, 379344, Note_off_c, 0, 67, 64
2, 379440, Note_on_c, 0, 58, 127
2, 379440, Note_on_c, 0, 62, 127
2, 379632, Note_off_c, 0, 58, 64
2, 379680, Note_on_c, 0, 58, 127
2, 379824, Note_off_c, 0, 62, 64
2, 379872, Note_off_c, 0, 58, 64
2, 379920, Note_on_c, 0, 67, 127
2, 379920, Note_on_c, 0, 51, 127
2, 379920, Note_on_c, 0, 72, 127
2, 380304, Note_off_c, 0, 72, 64
2, 380304, Note_off_c, 0, 51, 64
2, 380304, Note_off_c, 0, 67, 64
2, 380400, Note_on_c, 0, 57, 127
2, 380400, Note_on_c, 0, 55, 127
2, 380400, Note_on_c, 0, 60, 127
2, 380592, Note_off_c, 0, 55, 64
2, 380592, Note_off_c, 0, 57, 64
2, 380640, Note_on_c, 0, 55, 127
2, 380640, Note_on_c, 0, 57, 127
2, 380784, Note_off_c, 0, 60, 64
2, 380832, Note_off_c, 0, 55, 64
2, 380832, Note_off_c, 0, 57, 64
2, 380880, Note_on_c, 0, 67, 127
2, 380880, Note_on_c, 0, 50, 127
2, 380880, Note_on_c, 0, 74, 127
2, 381264, Note_off_c, 0, 74, 64
2, 381264, Note_off_c, 0, 50, 64
2, 381264, Note_off_c, 0, 67, 64
2, 381360, Note_on_c, 0, 57, 127
2, 381360, Note_on_c, 0, 55, 127
2, 381360, Note_on_c, 0, 60, 127
2, 381552, Note_off_c, 0, 55, 64
2, 381552, Note_off_c, 0, 57, 64
2, 381600, Note_on_c, 0, 55, 127
2, 381600, Note_on_c, 0, 57, 127
2, 381744, Note_off_c, 0, 60, 64
2, 381792, Note_off_c, 0, 55, 64
2, 381792, Note_off_c, 0, 57, 64
2, 381840, Note_on_c, 0, 66, 127
2, 381840, Note_on_c, 0, 50, 127
2, 381840, Note_on_c, 0, 74, 127
2, 382224, Note_off_c, 0, 74, 64
2, 382224, Note_off_c, 0, 50, 64
2, 382224, Note_off_c, 0, 66, 64
2, 382320, Note_on_c, 0, 54, 127
2, 382320, Note_on_c, 0, 57, 127
2, 382320, Note_on_c, 0, 60, 127
2, 382512, Note_off_c, 0, 57, 64
2, 382512, Note_off_c, 0, 54, 64
2, 382560, Note_on_c, 0, 54, 127
2, 382560, Note_on_c, 0, 57, 127
2, 382704, Note_off_c, 0, 60, 64
2, 382752, Note_off_c, 0, 54, 64
2, 382752, Note_off_c, 0, 57, 64
2, 382800, Note_on_c, 0, 59, 127
2, 382800, Note_on_c, 0, 71, 127
2, 382800, Note_on_c, 0, 62, 127
2, 382800, Note_on_c, 0, 67, 127
2, 382992, Note_off_c, 0, 67, 64
2, 382992, Note_off_c, 0, 62, 64
2, 382992, Note_off_c, 0, 71, 64
2, 382992, Note_off_c, 0, 59, 64
2, 383040, Note_on_c, 0, 55, 127
2, 383040, Note_on_c, 0, 47, 127
2, 383040, Note_on_c, 0, 50, 127
2, 383040, Note_on_c, 0, 43, 127
2, 383232, Note_off_c, 0, 43, 64
2, 383232, Note_off_c, 0, 50, 64
2, 383232, Note_off_c, 0, 47, 64
2, 383232, Note_off_c, 0, 55, 64
2, 383280, Note_on_c, 0, 74, 127
2, 383472, Note_off_c, 0, 74, 64
2, 383520, Note_on_c, 0, 55, 127
2, 383520, Note_on_c, 0, 43, 127
2, 383520, Note_on_c, 0, 47, 127
2, 383520, Note_on_c, 0, 50, 127
2, 383712, Note_off_c, 0, 50, 64
2, 383712, Note_off_c, 0, 47, 64
2, 383712, Note_off_c, 0, 43, 64
2, 383712, Note_off_c, 0, 55, 64
2, 383760, Note_on_c, 0, 79, 127
2, 383952, Note_off_c, 0, 79, 64
2, 384000, Note_on_c, 0, 43, 127
2, 384000, Note_on_c, 0, 55, 127
2, 384000, Note_on_c, 0, 50, 127
2, 384000, Note_on_c, 0, 47, 127
2, 384192, Note_off_c, 0, 47, 64
2, 384192, Note_off_c, 0, 50, 64
2, 384192, Note_off_c, 0, 55, 64
2, 384192, Note_off_c, 0, 43, 64
2, 384240, Note_on_c, 0, 83, 127
2, 384432, Note_off_c, 0, 83, 64
2, 384480, Note_on_c, 0, 55, 127
2, 384480, Note_on_c, 0, 43, 127
2, 384480, Note_on_c, 0, 50, 127
2, 384480, Note_on_c, 0, 47, 127
2, 384672, Note_off_c, 0, 47, 64
2, 384672, Note_off_c, 0, 50, 64
2, 384672, Note_off_c, 0, 43, 64
2, 384672, Note_off_c, 0, 55, 64
2, 384720, Note_on_c, 0, 84, 127
2, 384720, Note_on_c, 0, 78, 127
2, 384720, Note_on_c, 0, 74, 127
2, 384816, Note_off_c, 0, 84, 64
2, 384840, Note_on_c, 0, 86, 127
2, 384912, Note_off_c, 0, 78, 64
2, 384912, Note_off_c, 0, 74, 64
2, 384936, Note_off_c, 0, 86, 64
2, 384960, Note_on_c, 0, 50, 127
2, 384960, Note_on_c, 0, 84, 127
2, 384960, Note_on_c, 0, 43, 127
2, 384960, Note_on_c, 0, 48, 127
2, 384960, Note_on_c, 0, 54, 127
2, 385056, Note_off_c, 0, 84, 64
2, 385080, Note_on_c, 0, 83, 127
2, 385152, Note_off_c, 0, 50, 64
2, 385152, Note_off_c, 0, 43, 64
2, 385152, Note_off_c, 0, 48, 64
2, 385152, Note_off_c, 0, 54, 64
2, 385176, Note_off_c, 0, 83, 64
2, 385200, Note_on_c, 0, 81, 127
2, 385200, Note_on_c, 0, 78, 127
2, 385200, Note_on_c, 0, 74, 127
2, 385296, Note_off_c, 0, 81, 64
2, 385320, Note_on_c, 0, 83, 127
2, 385392, Note_off_c, 0, 78, 64
2, 385392, Note_off_c, 0, 74, 64
2, 385416, Note_off_c, 0, 83, 64
2, 385440, Note_on_c, 0, 43, 127
2, 385440, Note_on_c, 0, 54, 127
2, 385440, Note_on_c, 0, 48, 127
2, 385440, Note_on_c, 0, 50, 127
2, 385440, Note_on_c, 0, 81, 127
2, 385536, Note_off_c, 0, 81, 64
2, 385560, Note_on_c, 0, 79, 127
2, 385632, Note_off_c, 0, 50, 64
2, 385632, Note_off_c, 0, 48, 64
2, 385632, Note_off_c, 0, 54, 64
2, 385632, Note_off_c, 0, 43, 64
2, 385656, Note_off_c, 0, 79, 64
2, 385680, Note_on_c, 0, 78, 127
2, 385680, Note_on_c, 0, 72, 127
2, 385680, Note_on_c, 0, 74, 127
2, 385776, Note_off_c, 0, 78, 64
2, 385800, Note_on_c, 0, 79, 127
2, 385872, Note_off_c, 0, 72, 64
2, 385872, Note_off_c, 0, 74, 64
2, 385896, Note_off_c, 0, 79, 64
2, 385920, Note_on_c, 0, 50, 127
2, 385920, Note_on_c, 0, 78, 127
2, 385920, Note_on_c, 0, 54, 127
2, 385920, Note_on_c, 0, 48, 127
2, 385920, Note_on_c, 0, 43, 127
2, 386016, Note_off_c, 0, 78, 64
2, 386040, Note_on_c, 0, 76, 127
2, 386112, Note_off_c, 0, 50, 64
2, 386112, Note_off_c, 0, 54, 64
2, 386112, Note_off_c, 0, 48, 64
2, 386112, Note_off_c, 0, 43, 64
2, 386136, Note_off_c, 0, 76, 64
2, 386160, Note_on_c, 0, 74, 127
2, 386160, Note_on_c, 0, 69, 127
2, 386256, Note_off_c, 0, 74, 64
2, 386280, Note_on_c, 0, 76, 127
2, 386352, Note_off_c, 0, 69, 64
2, 386376, Note_off_c, 0, 76, 64
2, 386400, Note_on_c, 0, 54, 127
2, 386400, Note_on_c, 0, 43, 127
2, 386400, Note_on_c, 0, 50, 127
2, 386400, Note_on_c, 0, 48, 127
2, 386400, Note_on_c, 0, 74, 127
2, 386496, Note_off_c, 0, 74, 64
2, 386520, Note_on_c, 0, 72, 127
2, 386592, Note_off_c, 0, 48, 64
2, 386592, Note_off_c, 0, 50, 64
2, 386592, Note_off_c, 0, 43, 64
2, 386592, Note_off_c, 0, 54, 64
2, 386616, Note_off_c, 0, 72, 64
2, 386640, Note_on_c, 0, 71, 127
2, 386640, Note_on_c, 0, 67, 127
2, 386640, Note_on_c, 0, 59, 127
2, 386640, Note_on_c, 0, 62, 127
2, 386832, Note_off_c, 0, 62, 64
2, 386832, Note_off_c, 0, 59, 64
2, 386832, Note_off_c, 0, 67, 64
2, 386832, Note_off_c, 0, 71, 64
2, 386880, Note_on_c, 0, 43, 127
2, 386880, Note_on_c, 0, 55, 127
2, 386880, Note_on_c, 0, 47, 127
2, 386880, Note_on_c, 0, 50, 127
2, 387072, Note_off_c, 0, 50, 64
2, 387072, Note_off_c, 0, 47, 64
2, 387072, Note_off_c, 0, 55, 64
2, 387072, Note_off_c, 0, 43, 64
2, 387120, Note_on_c, 0, 67, 127
2, 387120, Note_on_c, 0, 74, 127
2, 387120, Note_on_c, 0, 71, 127
2, 387120, Note_on_c, 0, 62, 127
2, 387312, Note_off_c, 0, 62, 64
2, 387312, Note_off_c, 0, 71, 64
2, 387312, Note_off_c, 0, 74, 64
2, 387312, Note_off_c, 0, 67, 64
2, 387360, Note_on_c, 0, 43, 127
2, 387360, Note_on_c, 0, 55, 127
2, 387360, Note_on_c, 0, 47, 127
2, 387360, Note_on_c, 0, 50, 127
2, 387552, Note_off_c, 0, 50, 64
2, 387552, Note_off_c, 0, 47, 64
2, 387552, Note_off_c, 0, 55, 64
2, 387552, Note_off_c, 0, 43, 64
2, 387600, Note_on_c, 0, 67, 127
2, 387600, Note_on_c, 0, 71, 127
2, 387600, Note_on_c, 0, 74, 127
2, 387600, Note_on_c, 0, 79, 127
2, 387792, Note_off_c, 0, 79, 64
2, 387792, Note_off_c, 0, 74, 64
2, 387792, Note_off_c, 0, 71, 64
2, 387792, Note_off_c, 0, 67, 64
2, 387840, Note_on_c, 0, 55, 127
2, 387840, Note_on_c, 0, 47, 127
2, 387840, Note_on_c, 0, 43, 127
2, 387840, Note_on_c, 0, 50, 127
2, 388032, Note_off_c, 0, 50, 64
2, 388032, Note_off_c, 0, 43, 64
2, 388032, Note_off_c, 0, 47, 64
2, 388032, Note_off_c, 0, 55, 64
2, 388080, Note_on_c, 0, 71, 127
2, 388080, Note_on_c, 0, 79, 127
2, 388080, Note_on_c, 0, 83, 127
2, 388080, Note_on_c, 0, 74, 127
2, 388272, Note_off_c, 0, 74, 64
2, 388272, Note_off_c, 0, 83, 64
2, 388272, Note_off_c, 0, 79, 64
2, 388272, Note_off_c, 0, 71, 64
2, 388320, Note_on_c, 0, 55, 127
2, 388320, Note_on_c, 0, 43, 127
2, 388320, Note_on_c, 0, 47, 127
2, 388320, Note_on_c, 0, 50, 127
2, 388512, Note_off_c, 0, 50, 64
2, 388512, Note_off_c, 0, 47, 64
2, 388512, Note_off_c, 0, 43, 64
2, 388512, Note_off_c, 0, 55, 64
2, 388560, Note_on_c, 0, 84, 127
2, 388560, Note_on_c, 0, 78, 127
2, 388560, Note_on_c, 0, 74, 127
2, 388656, Note_off_c, 0, 84, 64
2, 388680, Note_on_c, 0, 86, 127
2, 388752, Note_off_c, 0, 78, 64
2, 388752, Note_off_c, 0, 74, 64
2, 388776, Note_off_c, 0, 86, 64
2, 388800, Note_on_c, 0, 43, 127
2, 388800, Note_on_c, 0, 84, 127
2, 388800, Note_on_c, 0, 54, 127
2, 388800, Note_on_c, 0, 48, 127
2, 388800, Note_on_c, 0, 50, 127
2, 388896, Note_off_c, 0, 84, 64
2, 388920, Note_on_c, 0, 83, 127
2, 388992, Note_off_c, 0, 43, 64
2, 388992, Note_off_c, 0, 54, 64
2, 388992, Note_off_c, 0, 48, 64
2, 388992, Note_off_c, 0, 50, 64
2, 389016, Note_off_c, 0, 83, 64
2, 389040, Note_on_c, 0, 81, 127
2, 389040, Note_on_c, 0, 78, 127
2, 389040, Note_on_c, 0, 74, 127
2, 389136, Note_off_c, 0, 81, 64
2, 389160, Note_on_c, 0, 83, 127
2, 389232, Note_off_c, 0, 78, 64
2, 389232, Note_off_c, 0, 74, 64
2, 389256, Note_off_c, 0, 83, 64
2, 389280, Note_on_c, 0, 48, 127
2, 389280, Note_on_c, 0, 54, 127
2, 389280, Note_on_c, 0, 50, 127
2, 389280, Note_on_c, 0, 43, 127
2, 389280, Note_on_c, 0, 84, 127
2, 389376, Note_off_c, 0, 84, 64
2, 389400, Note_on_c, 0, 81, 127
2, 389472, Note_off_c, 0, 43, 64
2, 389472, Note_off_c, 0, 50, 64
2, 389472, Note_off_c, 0, 54, 64
2, 389472, Note_off_c, 0, 48, 64
2, 389496, Note_off_c, 0, 81, 64
2, 389520, Note_on_c, 0, 67, 127
2, 389520, Note_on_c, 0, 71, 127
2, 389520, Note_on_c, 0, 74, 127
2, 389520, Note_on_c, 0, 79, 127
2, 389712, Note_off_c, 0, 79, 64
2, 389712, Note_off_c, 0, 74, 64
2, 389712, Note_off_c, 0, 71, 64
2, 389712, Note_off_c, 0, 67, 64
2, 389760, Note_on_c, 0, 55, 127
2, 389760, Note_on_c, 0, 43, 127
2, 389760, Note_on_c, 0, 47, 127
2, 389760, Note_on_c, 0, 50, 127
2, 389952, Note_off_c, 0, 50, 64
2, 389952, Note_off_c, 0, 47, 64
2, 389952, Note_off_c, 0, 43, 64
2, 389952, Note_off_c, 0, 55, 64
2, 390000, Note_on_c, 0, 67, 127
2, 390000, Note_on_c, 0, 62, 127
2, 390000, Note_on_c, 0, 59, 127
2, 390192, Note_off_c, 0, 59, 64
2, 390192, Note_off_c, 0, 62, 64
2, 390192, Note_off_c, 0, 67, 64
2, 390240, Note_on_c, 0, 43, 127
2, 390240, Note_on_c, 0, 55, 127
2, 390240, Note_on_c, 0, 50, 127
2, 390240, Note_on_c, 0, 47, 127
2, 390432, Note_off_c, 0, 47, 64
2, 390432, Note_off_c, 0, 50, 64
2, 390432, Note_off_c, 0, 55, 64
2, 390432, Note_off_c, 0, 43, 64
2, 390480, Note_on_c, 0, 71, 127
2, 390480, Note_on_c, 0, 76, 127
2, 390480, Note_on_c, 0, 79, 127
2, 390480, Note_on_c, 0, 83, 127
2, 390672, Note_off_c, 0, 83, 64
2, 390672, Note_off_c, 0, 79, 64
2, 390672, Note_off_c, 0, 76, 64
2, 390672, Note_off_c, 0, 71, 64
2, 390720, Note_on_c, 0, 52, 127
2, 390720, Note_on_c, 0, 59, 127
2, 390720, Note_on_c, 0, 55, 127
2, 390720, Note_on_c, 0, 64, 127
2, 390912, Note_off_c, 0, 64, 64
2, 390912, Note_off_c, 0, 55, 64
2, 390912, Note_off_c, 0, 59, 64
2, 390912, Note_off_c, 0, 52, 64
2, 390960, Note_on_c, 0, 71, 127
2, 390960, Note_on_c, 0, 76, 127
2, 390960, Note_on_c, 0, 67, 127
2, 390960, Note_on_c, 0, 64, 127
2, 391152, Note_off_c, 0, 64, 64
2, 391152, Note_off_c, 0, 67, 64
2, 391152, Note_off_c, 0, 76, 64
2, 391152, Note_off_c, 0, 71, 64
2, 391200, Note_on_c, 0, 52, 127
2, 391200, Note_on_c, 0, 64, 127
2, 391200, Note_on_c, 0, 59, 127
2, 391200, Note_on_c, 0, 55, 127
2, 391392, Note_off_c, 0, 55, 64
2, 391392, Note_off_c, 0, 59, 64
2, 391392, Note_off_c, 0, 64, 64
2, 391392, Note_off_c, 0, 52, 64
2, 391440, Note_on_c, 0, 83, 127
2, 391440, Note_on_c, 0, 76, 127
2, 391440, Note_on_c, 0, 79, 127
2, 391440, Note_on_c, 0, 71, 127
2, 391632, Note_off_c, 0, 71, 64
2, 391632, Note_off_c, 0, 79, 64
2, 391632, Note_off_c, 0, 76, 64
2, 391632, Note_off_c, 0, 83, 64
2, 391680, Note_on_c, 0, 64, 127
2, 391680, Note_on_c, 0, 55, 127
2, 391680, Note_on_c, 0, 52, 127
2, 391680, Note_on_c, 0, 59, 127
2, 391872, Note_off_c, 0, 59, 64
2, 391872, Note_off_c, 0, 52, 64
2, 391872, Note_off_c, 0, 55, 64
2, 391872, Note_off_c, 0, 64, 64
2, 391920, Note_on_c, 0, 79, 127
2, 391920, Note_on_c, 0, 88, 127
2, 391920, Note_on_c, 0, 83, 127
2, 391920, Note_on_c, 0, 76, 127
2, 392112, Note_off_c, 0, 76, 64
2, 392112, Note_off_c, 0, 83, 64
2, 392112, Note_off_c, 0, 88, 64
2, 392112, Note_off_c, 0, 79, 64
2, 392160, Note_on_c, 0, 52, 127
2, 392160, Note_on_c, 0, 64, 127
2, 392160, Note_on_c, 0, 59, 127
2, 392160, Note_on_c, 0, 55, 127
2, 392352, Note_off_c, 0, 55, 64
2, 392352, Note_off_c, 0, 59, 64
2, 392352, Note_off_c, 0, 64, 64
2, 392352, Note_off_c, 0, 52, 64
2, 392400, Note_on_c, 0, 87, 127
2, 392400, Note_on_c, 0, 81, 127
2, 392400, Note_on_c, 0, 78, 127
2, 392496, Note_off_c, 0, 87, 64
2, 392520, Note_on_c, 0, 88, 127
2, 392592, Note_off_c, 0, 81, 64
2, 392592, Note_off_c, 0, 78, 64
2, 392616, Note_off_c, 0, 88, 64
2, 392640, Note_on_c, 0, 47, 127
2, 392640, Note_on_c, 0, 54, 127
2, 392640, Note_on_c, 0, 59, 127
2, 392640, Note_on_c, 0, 57, 127
2, 392640, Note_on_c, 0, 87, 127
2, 392736, Note_off_c, 0, 87, 64
2, 392760, Note_on_c, 0, 84, 127
2, 392832, Note_off_c, 0, 57, 64
2, 392832, Note_off_c, 0, 59, 64
2, 392832, Note_off_c, 0, 54, 64
2, 392832, Note_off_c, 0, 47, 64
2, 392856, Note_off_c, 0, 84, 64
2, 392880, Note_on_c, 0, 83, 127
2, 392880, Note_on_c, 0, 81, 127
2, 392880, Note_on_c, 0, 78, 127
2, 393072, Note_off_c, 0, 78, 64
2, 393072, Note_off_c, 0, 81, 64
2, 393072, Note_off_c, 0, 83, 64
2, 393120, Note_on_c, 0, 47, 127
2, 393120, Note_on_c, 0, 54, 127
2, 393120, Note_on_c, 0, 59, 127
2, 393120, Note_on_c, 0, 57, 127
2, 393312, Note_off_c, 0, 57, 64
2, 393312, Note_off_c, 0, 59, 64
2, 393312, Note_off_c, 0, 54, 64
2, 393312, Note_off_c, 0, 47, 64
2, 393360, Note_on_c, 0, 87, 127
2, 393360, Note_on_c, 0, 74, 127
2, 393360, Note_on_c, 0, 78, 127
2, 393456, Note_off_c, 0, 87, 64
2, 393480, Note_on_c, 0, 88, 127
2, 393552, Note_off_c, 0, 74, 64
2, 393552, Note_off_c, 0, 78, 64
2, 393576, Note_off_c, 0, 88, 64
2, 393600, Note_on_c, 0, 47, 127
2, 393600, Note_on_c, 0, 54, 127
2, 393600, Note_on_c, 0, 59, 127
2, 393600, Note_on_c, 0, 57, 127
2, 393600, Note_on_c, 0, 87, 127
2, 393696, Note_off_c, 0, 87, 64
2, 393720, Note_on_c, 0, 84, 127
2, 393792, Note_off_c, 0, 57, 64
2, 393792, Note_off_c, 0, 59, 64
2, 393792, Note_off_c, 0, 54, 64
2, 393792, Note_off_c, 0, 47, 64
2, 393816, Note_off_c, 0, 84, 64
2, 393840, Note_on_c, 0, 83, 127
2, 393840, Note_on_c, 0, 74, 127
2, 393840, Note_on_c, 0, 78, 127
2, 394032, Note_off_c, 0, 78, 64
2, 394032, Note_off_c, 0, 74, 64
2, 394032, Note_off_c, 0, 83, 64
2, 394080, Note_on_c, 0, 47, 127
2, 394080, Note_on_c, 0, 54, 127
2, 394080, Note_on_c, 0, 59, 127
2, 394080, Note_on_c, 0, 57, 127
2, 394272, Note_off_c, 0, 57, 64
2, 394272, Note_off_c, 0, 59, 64
2, 394272, Note_off_c, 0, 54, 64
2, 394272, Note_off_c, 0, 47, 64
2, 394320, Note_on_c, 0, 71, 127
2, 394320, Note_on_c, 0, 83, 127
2, 394320, Note_on_c, 0, 79, 127
2, 394320, Note_on_c, 0, 76, 127
2, 394512, Note_off_c, 0, 76, 64
2, 394512, Note_off_c, 0, 79, 64
2, 394512, Note_off_c, 0, 83, 64
2, 394512, Note_off_c, 0, 71, 64
2, 394560, Note_on_c, 0, 40, 127
2, 394560, Note_on_c, 0, 52, 127
2, 394560, Note_on_c, 0, 43, 127
2, 394560, Note_on_c, 0, 47, 127
2, 394752, Note_off_c, 0, 47, 64
2, 394752, Note_off_c, 0, 43, 64
2, 394752, Note_off_c, 0, 52, 64
2, 394752, Note_off_c, 0, 40, 64
2, 394800, Note_on_c, 0, 67, 127
2, 394800, Note_on_c, 0, 64, 127
2, 394800, Note_on_c, 0, 71, 127
2, 394800, Note_on_c, 0, 76, 127
2, 394992, Note_off_c, 0, 76, 64
2, 394992, Note_off_c, 0, 71, 64
2, 394992, Note_off_c, 0, 64, 64
2, 394992, Note_off_c, 0, 67, 64
2, 395040, Note_on_c, 0, 40, 127
2, 395040, Note_on_c, 0, 52, 127
2, 395040, Note_on_c, 0, 47, 127
2, 395040, Note_on_c, 0, 43, 127
2, 395232, Note_off_c, 0, 43, 64
2, 395232, Note_off_c, 0, 47, 64
2, 395232, Note_off_c, 0, 52, 64
2, 395232, Note_off_c, 0, 40, 64
2, 395280, Note_on_c, 0, 71, 127
2, 395280, Note_on_c, 0, 83, 127
2, 395280, Note_on_c, 0, 76, 127
2, 395280, Note_on_c, 0, 79, 127
2, 395472, Note_off_c, 0, 79, 64
2, 395472, Note_off_c, 0, 76, 64
2, 395472, Note_off_c, 0, 83, 64
2, 395472, Note_off_c, 0, 71, 64
2, 395520, Note_on_c, 0, 52, 127
2, 395520, Note_on_c, 0, 43, 127
2, 395520, Note_on_c, 0, 47, 127
2, 395520, Note_on_c, 0, 40, 127
2, 395712, Note_off_c, 0, 40, 64
2, 395712, Note_off_c, 0, 47, 64
2, 395712, Note_off_c, 0, 43, 64
2, 395712, Note_off_c, 0, 52, 64
2, 395760, Note_on_c, 0, 76, 127
2, 395760, Note_on_c, 0, 83, 127
2, 395760, Note_on_c, 0, 88, 127
2, 395760, Note_on_c, 0, 79, 127
2, 395952, Note_off_c, 0, 79, 64
2, 395952, Note_off_c, 0, 88, 64
2, 395952, Note_off_c, 0, 83, 64
2, 395952, Note_off_c, 0, 76, 64
2, 396000, Note_on_c, 0, 40, 127
2, 396000, Note_on_c, 0, 52, 127
2, 396000, Note_on_c, 0, 47, 127
2, 396000, Note_on_c, 0, 43, 127
2, 396192, Note_off_c, 0, 43, 64
2, 396192, Note_off_c, 0, 47, 64
2, 396192, Note_off_c, 0, 52, 64
2, 396192, Note_off_c, 0, 40, 64
2, 396240, Note_on_c, 0, 85, 127
2, 396336, Note_off_c, 0, 85, 64
2, 396360, Note_on_c, 0, 86, 127
2, 396456, Note_off_c, 0, 86, 64
2, 396480, Note_on_c, 0, 52, 127
2, 396480, Note_on_c, 0, 72, 127
2, 396480, Note_on_c, 0, 85, 127
2, 396480, Note_on_c, 0, 55, 127
2, 396480, Note_on_c, 0, 45, 127
2, 396480, Note_on_c, 0, 49, 127
2, 396576, Note_off_c, 0, 85, 64
2, 396600, Note_on_c, 0, 83, 127
2, 396672, Note_off_c, 0, 72, 64
2, 396672, Note_off_c, 0, 52, 64
2, 396672, Note_off_c, 0, 55, 64
2, 396672, Note_off_c, 0, 45, 64
2, 396672, Note_off_c, 0, 49, 64
2, 396696, Note_off_c, 0, 83, 64
2, 396720, Note_on_c, 0, 81, 127
2, 396720, Note_on_c, 0, 72, 127
2, 396816, Note_off_c, 0, 81, 64
2, 396840, Note_on_c, 0, 79, 127
2, 396936, Note_off_c, 0, 79, 64
2, 396960, Note_on_c, 0, 55, 127
2, 396960, Note_on_c, 0, 45, 127
2, 396960, Note_on_c, 0, 52, 127
2, 396960, Note_on_c, 0, 49, 127
2, 396960, Note_on_c, 0, 78, 127
2, 397056, Note_off_c, 0, 78, 64
2, 397080, Note_on_c, 0, 76, 127
2, 397104, Note_off_c, 0, 72, 64
2, 397152, Note_off_c, 0, 55, 64
2, 397152, Note_off_c, 0, 45, 64
2, 397152, Note_off_c, 0, 52, 64
2, 397152, Note_off_c, 0, 49, 64
2, 397176, Note_off_c, 0, 76, 64
2, 397200, Note_on_c, 0, 74, 127
2, 397296, Note_off_c, 0, 74, 64
2, 397320, Note_on_c, 0, 76, 127
2, 397416, Note_off_c, 0, 76, 64
2, 397440, Note_on_c, 0, 54, 127
2, 397440, Note_on_c, 0, 50, 127
2, 397440, Note_on_c, 0, 74, 127
2, 397536, Note_off_c, 0, 74, 64
2, 397560, Note_on_c, 0, 73, 127
2, 397632, Note_off_c, 0, 50, 64
2, 397632, Note_off_c, 0, 54, 64
2, 397656, Note_off_c, 0, 73, 64
2, 397680, Note_on_c, 0, 74, 127
2, 397872, Note_off_c, 0, 74, 64
2, 397920, Note_on_c, 0, 62, 127
2, 397920, Note_on_c, 0, 54, 127
2, 397920, Note_on_c, 0, 57, 127
2, 397920, Note_on_c, 0, 50, 127
2, 398112, Note_off_c, 0, 50, 64
2, 398112, Note_off_c, 0, 57, 64
2, 398112, Note_off_c, 0, 54, 64
2, 398112, Note_off_c, 0, 62, 64
2, 398160, Note_on_c, 0, 59, 127
2, 398160, Note_on_c, 0, 71, 127
2, 398280, Note_on_c, 0, 62, 127
2, 398376, Note_off_c, 0, 62, 64
2, 398400, Note_on_c, 0, 59, 127
2, 398496, Note_off_c, 0, 59, 64
2, 398520, Note_on_c, 0, 55, 127
2, 398544, Note_off_c, 0, 71, 64
2, 398544, Note_off_c, 0, 59, 64
2, 398616, Note_off_c, 0, 55, 64
2, 398640, Note_on_c, 0, 50, 127
2, 398640, Note_on_c, 0, 74, 127
2, 398640, Note_on_c, 0, 62, 127
2, 398736, Note_off_c, 0, 50, 64
2, 398760, Note_on_c, 0, 59, 127
2, 398832, Note_off_c, 0, 74, 64
2, 398832, Note_off_c, 0, 62, 64
2, 398856, Note_off_c, 0, 59, 64
2, 398880, Note_on_c, 0, 55, 127
2, 398880, Note_on_c, 0, 62, 127
2, 398880, Note_on_c, 0, 74, 127
2, 398976, Note_off_c, 0, 55, 64
2, 399000, Note_on_c, 0, 50, 127
2, 399072, Note_off_c, 0, 62, 64
2, 399072, Note_off_c, 0, 74, 64
2, 399096, Note_off_c, 0, 50, 64
2, 399120, Note_on_c, 0, 47, 127
2, 399120, Note_on_c, 0, 67, 127
2, 399120, Note_on_c, 0, 79, 127
2, 399216, Note_off_c, 0, 47, 64
2, 399240, Note_on_c, 0, 55, 127
2, 399312, Note_off_c, 0, 67, 64
2, 399312, Note_off_c, 0, 79, 64
2, 399336, Note_off_c, 0, 55, 64
2, 399360, Note_on_c, 0, 50, 127
2, 399360, Note_on_c, 0, 67, 127
2, 399360, Note_on_c, 0, 79, 127
2, 399456, Note_off_c, 0, 50, 64
2, 399480, Note_on_c, 0, 47, 127
2, 399552, Note_off_c, 0, 67, 64
2, 399552, Note_off_c, 0, 79, 64
2, 399576, Note_off_c, 0, 47, 64
2, 399600, Note_on_c, 0, 43, 127
2, 399600, Note_on_c, 0, 71, 127
2, 399600, Note_on_c, 0, 83, 127
2, 399696, Note_off_c, 0, 43, 64
2, 399720, Note_on_c, 0, 50, 127
2, 399816, Note_off_c, 0, 50, 64
2, 399840, Note_on_c, 0, 47, 127
2, 399936, Note_off_c, 0, 47, 64
2, 399960, Note_on_c, 0, 43, 127
2, 399984, Note_off_c, 0, 71, 64
2, 399984, Note_off_c, 0, 83, 64
2, 400056, Note_off_c, 0, 43, 64
2, 400080, Note_on_c, 0, 86, 127
2, 400080, Note_on_c, 0, 38, 127
2, 400176, Note_off_c, 0, 38, 64
2, 400176, Note_off_c, 0, 86, 64
2, 400200, Note_on_c, 0, 84, 127
2, 400200, Note_on_c, 0, 42, 127
2, 400296, Note_off_c, 0, 42, 64
2, 400296, Note_off_c, 0, 84, 64
2, 400320, Note_on_c, 0, 86, 127
2, 400320, Note_on_c, 0, 45, 127
2, 400416, Note_off_c, 0, 45, 64
2, 400416, Note_off_c, 0, 86, 64
2, 400440, Note_on_c, 0, 84, 127
2, 400440, Note_on_c, 0, 50, 127
2, 400536, Note_off_c, 0, 50, 64
2, 400536, Note_off_c, 0, 84, 64
2, 400560, Note_on_c, 0, 42, 127
2, 400560, Note_on_c, 0, 81, 127
2, 400656, Note_off_c, 0, 42, 64
2, 400680, Note_on_c, 0, 45, 127
2, 400752, Note_off_c, 0, 81, 64
2, 400776, Note_off_c, 0, 45, 64
2, 400800, Note_on_c, 0, 50, 127
2, 400896, Note_off_c, 0, 50, 64
2, 400920, Note_on_c, 0, 54, 127
2, 401016, Note_off_c, 0, 54, 64
2, 401040, Note_on_c, 0, 86, 127
2, 401040, Note_on_c, 0, 45, 127
2, 401136, Note_off_c, 0, 45, 64
2, 401136, Note_off_c, 0, 86, 64
2, 401160, Note_on_c, 0, 84, 127
2, 401160, Note_on_c, 0, 50, 127
2, 401256, Note_off_c, 0, 50, 64
2, 401256, Note_off_c, 0, 84, 64
2, 401280, Note_on_c, 0, 86, 127
2, 401280, Note_on_c, 0, 54, 127
2, 401376, Note_off_c, 0, 54, 64
2, 401376, Note_off_c, 0, 86, 64
2, 401400, Note_on_c, 0, 84, 127
2, 401400, Note_on_c, 0, 57, 127
2, 401496, Note_off_c, 0, 57, 64
2, 401496, Note_off_c, 0, 84, 64
2, 401520, Note_on_c, 0, 50, 127
2, 401520, Note_on_c, 0, 81, 127
2, 401616, Note_off_c, 0, 50, 64
2, 401640, Note_on_c, 0, 54, 127
2, 401712, Note_off_c, 0, 81, 64
2, 401736, Note_off_c, 0, 54, 64
2, 401760, Note_on_c, 0, 57, 127
2, 401856, Note_off_c, 0, 57, 64
2, 401880, Note_on_c, 0, 60, 127
2, 401976, Note_off_c, 0, 60, 64
2, 402000, Note_on_c, 0, 71, 127
2, 402000, Note_on_c, 0, 59, 127
2, 402120, Note_on_c, 0, 62, 127
2, 402216, Note_off_c, 0, 62, 64
2, 402240, Note_on_c, 0, 59, 127
2, 402336, Note_off_c, 0, 59, 64
2, 402360, Note_on_c, 0, 55, 127
2, 402384, Note_off_c, 0, 71, 64
2, 402384, Note_off_c, 0, 59, 64
2, 402456, Note_off_c, 0, 55, 64
2, 402480, Note_on_c, 0, 50, 127
2, 402480, Note_on_c, 0, 74, 127
2, 402480, Note_on_c, 0, 62, 127
2, 402576, Note_off_c, 0, 50, 64
2, 402600, Note_on_c, 0, 59, 127
2, 402672, Note_off_c, 0, 74, 64
2, 402672, Note_off_c, 0, 62, 64
2, 402696, Note_off_c, 0, 59, 64
2, 402720, Note_on_c, 0, 55, 127
2, 402720, Note_on_c, 0, 62, 127
2, 402720, Note_on_c, 0, 74, 127
2, 402816, Note_off_c, 0, 55, 64
2, 402840, Note_on_c, 0, 50, 127
2, 402912, Note_off_c, 0, 62, 64
2, 402912, Note_off_c, 0, 74, 64
2, 402936, Note_off_c, 0, 50, 64
2, 402960, Note_on_c, 0, 47, 127
2, 402960, Note_on_c, 0, 67, 127
2, 402960, Note_on_c, 0, 79, 127
2, 403056, Note_off_c, 0, 47, 64
2, 403080, Note_on_c, 0, 55, 127
2, 403152, Note_off_c, 0, 67, 64
2, 403152, Note_off_c, 0, 79, 64
2, 403176, Note_off_c, 0, 55, 64
2, 403200, Note_on_c, 0, 50, 127
2, 403200, Note_on_c, 0, 67, 127
2, 403200, Note_on_c, 0, 79, 127
2, 403296, Note_off_c, 0, 50, 64
2, 403320, Note_on_c, 0, 47, 127
2, 403392, Note_off_c, 0, 67, 64
2, 403392, Note_off_c, 0, 79, 64
2, 403416, Note_off_c, 0, 47, 64
2, 403440, Note_on_c, 0, 43, 127
2, 403440, Note_on_c, 0, 71, 127
2, 403440, Note_on_c, 0, 83, 127
2, 403536, Note_off_c, 0, 43, 64
2, 403560, Note_on_c, 0, 50, 127
2, 403656, Note_off_c, 0, 50, 64
2, 403680, Note_on_c, 0, 47, 127
2, 403776, Note_off_c, 0, 47, 64
2, 403800, Note_on_c, 0, 43, 127
2, 403824, Note_off_c, 0, 71, 64
2, 403824, Note_off_c, 0, 83, 64
2, 403896, Note_off_c, 0, 43, 64
2, 403920, Note_on_c, 0, 86, 127
2, 403920, Note_on_c, 0, 38, 127
2, 404016, Note_off_c, 0, 38, 64
2, 404016, Note_off_c, 0, 86, 64
2, 404040, Note_on_c, 0, 84, 127
2, 404040, Note_on_c, 0, 42, 127
2, 404136, Note_off_c, 0, 42, 64
2, 404136, Note_off_c, 0, 84, 64
2, 404160, Note_on_c, 0, 45, 127
2, 404160, Note_on_c, 0, 86, 127
2, 404256, Note_off_c, 0, 86, 64
2, 404256, Note_off_c, 0, 45, 64
2, 404280, Note_on_c, 0, 84, 127
2, 404280, Note_on_c, 0, 50, 127
2, 404376, Note_off_c, 0, 50, 64
2, 404376, Note_off_c, 0, 84, 64
2, 404400, Note_on_c, 0, 38, 127
2, 404400, Note_on_c, 0, 81, 127
2, 404496, Note_off_c, 0, 38, 64
2, 404520, Note_on_c, 0, 42, 127
2, 404592, Note_off_c, 0, 81, 64
2, 404616, Note_off_c, 0, 42, 64
2, 404640, Note_on_c, 0, 45, 127
2, 404640, Note_on_c, 0, 81, 127
2, 404736, Note_off_c, 0, 81, 64
2, 404736, Note_off_c, 0, 45, 64
2, 404760, Note_on_c, 0, 50, 127
2, 404760, Note_on_c, 0, 83, 127
2, 404856, Note_off_c, 0, 83, 64
2, 404856, Note_off_c, 0, 50, 64
2, 404880, Note_on_c, 0, 43, 127
2, 404880, Note_on_c, 0, 79, 127
2, 405264, Note_off_c, 0, 79, 64
2, 405264, Note_off_c, 0, 43, 64
2, 405360, Note_on_c, 0, 67, 127
2, 405456, Note_off_c, 0, 67, 64
2, 405480, Note_on_c, 0, 69, 127
2, 405576, Note_off_c, 0, 69, 64
2, 405600, Note_on_c, 0, 71, 127
2, 405696, Note_off_c, 0, 71, 64
2, 405720, Note_on_c, 0, 72, 127
2, 405816, Note_off_c, 0, 72, 64
2, 405840, Note_on_c, 0, 74, 127
2, 405936, Note_off_c, 0, 74, 64
2, 405960, Note_on_c, 0, 72, 127
2, 406056, Note_off_c, 0, 72, 64
2, 406080, Note_on_c, 0, 71, 127
2, 406176, Note_off_c, 0, 71, 64
2, 406200, Note_on_c, 0, 69, 127
2, 406296, Note_off_c, 0, 69, 64
2, 406320, Note_on_c, 0, 67, 127
2, 406416, Note_off_c, 0, 67, 64
2, 406440, Note_on_c, 0, 69, 127
2, 406536, Note_off_c, 0, 69, 64
2, 406560, Note_on_c, 0, 71, 127
2, 406656, Note_off_c, 0, 71, 64
2, 406680, Note_on_c, 0, 72, 127
2, 406776, Note_off_c, 0, 72, 64
2, 406800, Note_on_c, 0, 74, 127
2, 406992, Note_off_c, 0, 74, 64
2, 407040, Note_on_c, 0, 74, 127
2, 407232, Note_off_c, 0, 74, 64
2, 407280, Note_on_c, 0, 79, 127
2, 407664, Note_off_c, 0, 79, 64
2, 407760, Note_on_c, 0, 79, 127
2, 407760, Note_on_c, 0, 57, 127
2, 407856, Note_off_c, 0, 57, 64
2, 407880, Note_on_c, 0, 55, 127
2, 407976, Note_off_c, 0, 55, 64
2, 408000, Note_on_c, 0, 54, 127
2, 408096, Note_off_c, 0, 54, 64
2, 408120, Note_on_c, 0, 52, 127
2, 408144, Note_off_c, 0, 79, 64
2, 408216, Note_off_c, 0, 52, 64
2, 408240, Note_on_c, 0, 50, 127
2, 408240, Note_on_c, 0, 78, 127
2, 408336, Note_off_c, 0, 50, 64
2, 408360, Note_on_c, 0, 52, 127
2, 408432, Note_off_c, 0, 78, 64
2, 408456, Note_off_c, 0, 52, 64
2, 408480, Note_on_c, 0, 54, 127
2, 408576, Note_off_c, 0, 54, 64
2, 408600, Note_on_c, 0, 55, 127
2, 408696, Note_off_c, 0, 55, 64
2, 408720, Note_on_c, 0, 57, 127
2, 408912, Note_off_c, 0, 57, 64
2, 408960, Note_on_c, 0, 57, 127
2, 408960, Note_on_c, 0, 77, 127
2, 409152, Note_off_c, 0, 77, 64
2, 409152, Note_off_c, 0, 57, 64
2, 409200, Note_on_c, 0, 62, 127
2, 409200, Note_on_c, 0, 77, 127
2, 409392, Note_off_c, 0, 77, 64
2, 409440, Note_on_c, 0, 77, 127
2, 409584, Note_off_c, 0, 62, 64
2, 409632, Note_off_c, 0, 77, 64
2, 409680, Note_on_c, 0, 76, 127
2, 409680, Note_on_c, 0, 62, 127
2, 409776, Note_off_c, 0, 76, 64
2, 409800, Note_on_c, 0, 74, 127
2, 409896, Note_off_c, 0, 74, 64
2, 409920, Note_on_c, 0, 72, 127
2, 410016, Note_off_c, 0, 72, 64
2, 410040, Note_on_c, 0, 71, 127
2, 410064, Note_off_c, 0, 62, 64
2, 410136, Note_off_c, 0, 71, 64
2, 410160, Note_on_c, 0, 60, 127
2, 410160, Note_on_c, 0, 69, 127
2, 410256, Note_off_c, 0, 69, 64
2, 410280, Note_on_c, 0, 71, 127
2, 410352, Note_off_c, 0, 60, 64
2, 410376, Note_off_c, 0, 71, 64
2, 410400, Note_on_c, 0, 72, 127
2, 410496, Note_off_c, 0, 72, 64
2, 410520, Note_on_c, 0, 74, 127
2, 410616, Note_off_c, 0, 74, 64
2, 410640, Note_on_c, 0, 76, 127
2, 410832, Note_off_c, 0, 76, 64
2, 410880, Note_on_c, 0, 76, 127
2, 410880, Note_on_c, 0, 60, 127
2, 411072, Note_off_c, 0, 60, 64
2, 411072, Note_off_c, 0, 76, 64
2, 411120, Note_on_c, 0, 60, 127
2, 411120, Note_on_c, 0, 81, 127
2, 411312, Note_off_c, 0, 60, 64
2, 411360, Note_on_c, 0, 60, 127
2, 411504, Note_off_c, 0, 81, 64
2, 411552, Note_off_c, 0, 60, 64
2, 411600, Note_on_c, 0, 81, 127
2, 411600, Note_on_c, 0, 59, 127
2, 411696, Note_off_c, 0, 59, 64
2, 411720, Note_on_c, 0, 57, 127
2, 411816, Note_off_c, 0, 57, 64
2, 411840, Note_on_c, 0, 55, 127
2, 411936, Note_off_c, 0, 55, 64
2, 411960, Note_on_c, 0, 54, 127
2, 411984, Note_off_c, 0, 81, 64
2, 412056, Note_off_c, 0, 54, 64
2, 412080, Note_on_c, 0, 52, 127
2, 412080, Note_on_c, 0, 79, 127
2, 412176, Note_off_c, 0, 52, 64
2, 412200, Note_on_c, 0, 54, 127
2, 412272, Note_off_c, 0, 79, 64
2, 412296, Note_off_c, 0, 54, 64
2, 412320, Note_on_c, 0, 55, 127
2, 412416, Note_off_c, 0, 55, 64
2, 412440, Note_on_c, 0, 57, 127
2, 412536, Note_off_c, 0, 57, 64
2, 412560, Note_on_c, 0, 59, 127
2, 412752, Note_off_c, 0, 59, 64
2, 412800, Note_on_c, 0, 59, 127
2, 412800, Note_on_c, 0, 79, 127
2, 412992, Note_off_c, 0, 79, 64
2, 412992, Note_off_c, 0, 59, 64
2, 413040, Note_on_c, 0, 64, 127
2, 413040, Note_on_c, 0, 79, 127
2, 413232, Note_off_c, 0, 79, 64
2, 413280, Note_on_c, 0, 79, 127
2, 413424, Note_off_c, 0, 64, 64
2, 413472, Note_off_c, 0, 79, 64
2, 413520, Note_on_c, 0, 78, 127
2, 413520, Note_on_c, 0, 64, 127
2, 413616, Note_off_c, 0, 78, 64
2, 413640, Note_on_c, 0, 76, 127
2, 413736, Note_off_c, 0, 76, 64
2, 413760, Note_on_c, 0, 75, 127
2, 413856, Note_off_c, 0, 75, 64
2, 413880, Note_on_c, 0, 73, 127
2, 413970, Note_off_c, 0, 64, 64
2, 413976, Note_off_c, 0, 73, 64
2, 414000, Note_on_c, 0, 63, 127
2, 414000, Note_on_c, 0, 71, 127
2, 414096, Note_off_c, 0, 71, 64
2, 414120, Note_on_c, 0, 73, 127
2, 414192, Note_off_c, 0, 63, 64
2, 414216, Note_off_c, 0, 73, 64
2, 414240, Note_on_c, 0, 75, 127
2, 414336, Note_off_c, 0, 75, 64
2, 414360, Note_on_c, 0, 76, 127
2, 414456, Note_off_c, 0, 76, 64
2, 414480, Note_on_c, 0, 71, 127
2, 414480, Note_on_c, 0, 63, 127
2, 414480, Note_on_c, 0, 66, 127
2, 414480, Note_on_c, 0, 78, 127
2, 414672, Note_off_c, 0, 78, 64
2, 414720, Note_on_c, 0, 78, 127
2, 414912, Note_off_c, 0, 78, 64
2, 414960, Note_on_c, 0, 83, 127
2, 415248, Note_off_c, 0, 66, 64
2, 415248, Note_off_c, 0, 63, 64
2, 415248, Note_off_c, 0, 71, 64
2, 415344, Note_off_c, 0, 83, 64
2, 415440, Note_on_c, 0, 71, 127
2, 415440, Note_on_c, 0, 62, 127
2, 415440, Note_on_c, 0, 64, 127
2, 415440, Note_on_c, 0, 80, 127
2, 415440, Note_on_c, 0, 76, 127
2, 415632, Note_off_c, 0, 80, 64
2, 415680, Note_on_c, 0, 80, 127
2, 415872, Note_off_c, 0, 80, 64
2, 415920, Note_on_c, 0, 88, 127
2, 416208, Note_off_c, 0, 64, 64
2, 416208, Note_off_c, 0, 62, 64
2, 416208, Note_off_c, 0, 71, 64
2, 416208, Note_off_c, 0, 76, 64
2, 416304, Note_off_c, 0, 88, 64
2, 416400, Note_on_c, 0, 69, 127
2, 416400, Note_on_c, 0, 67, 127
2, 416400, Note_on_c, 0, 61, 127
2, 416400, Note_on_c, 0, 76, 127
2, 416592, Note_off_c, 0, 76, 64
2, 416640, Note_on_c, 0, 76, 127
2, 416832, Note_off_c, 0, 76, 64
2, 416880, Note_on_c, 0, 81, 127
2, 417168, Note_off_c, 0, 61, 64
2, 417168, Note_off_c, 0, 67, 64
2, 417168, Note_off_c, 0, 69, 64
2, 417264, Note_off_c, 0, 81, 64
2, 417360, Note_on_c, 0, 69, 127
2, 417360, Note_on_c, 0, 62, 127
2, 417360, Note_on_c, 0, 60, 127
2, 417360, Note_on_c, 0, 78, 127
2, 417360, Note_on_c, 0, 74, 127
2, 417552, Note_off_c, 0, 78, 64
2, 417600, Note_on_c, 0, 78, 127
2, 417792, Note_off_c, 0, 78, 64
2, 417840, Note_on_c, 0, 86, 127
2, 418128, Note_off_c, 0, 60, 64
2, 418128, Note_off_c, 0, 62, 64
2, 418128, Note_off_c, 0, 69, 64
2, 418128, Note_off_c, 0, 74, 64
2, 418224, Note_off_c, 0, 86, 64
2, 418320, Note_on_c, 0, 67, 127
2, 418320, Note_on_c, 0, 59, 127
2, 418320, Note_on_c, 0, 62, 127
2, 418320, Note_on_c, 0, 74, 127
2, 418512, Note_off_c, 0, 74, 64
2, 418560, Note_on_c, 0, 74, 127
2, 418752, Note_off_c, 0, 74, 64
2, 418800, Note_on_c, 0, 79, 127
2, 419088, Note_off_c, 0, 62, 64
2, 419088, Note_off_c, 0, 59, 64
2, 419088, Note_off_c, 0, 67, 64
2, 419184, Note_off_c, 0, 79, 64
2, 419280, Note_on_c, 0, 60, 127
2, 419280, Note_on_c, 0, 48, 127
2, 419280, Note_on_c, 0, 55, 127
2, 419280, Note_on_c, 0, 76, 127
2, 419280, Note_on_c, 0, 72, 127
2, 419472, Note_off_c, 0, 76, 64
2, 419520, Note_on_c, 0, 76, 127
2, 419712, Note_off_c, 0, 76, 64
2, 419760, Note_on_c, 0, 84, 127
2, 420048, Note_off_c, 0, 55, 64
2, 420048, Note_off_c, 0, 48, 64
2, 420048, Note_off_c, 0, 60, 64
2, 420048, Note_off_c, 0, 72, 64
2, 420144, Note_off_c, 0, 84, 64
2, 420240, Note_on_c, 0, 59, 127
2, 420240, Note_on_c, 0, 50, 127
2, 420240, Note_on_c, 0, 55, 127
2, 420240, Note_on_c, 0, 74, 127
2, 420240, Note_on_c, 0, 71, 127
2, 420432, Note_off_c, 0, 74, 64
2, 420480, Note_on_c, 0, 74, 127
2, 420672, Note_off_c, 0, 74, 64
2, 420720, Note_on_c, 0, 83, 127
2, 421008, Note_off_c, 0, 55, 64
2, 421008, Note_off_c, 0, 50, 64
2, 421008, Note_off_c, 0, 59, 64
2, 421008, Note_off_c, 0, 71, 64
2, 421104, Note_off_c, 0, 83, 64
2, 421200, Note_on_c, 0, 60, 127
2, 421200, Note_on_c, 0, 52, 127
2, 421200, Note_on_c, 0, 55, 127
2, 421200, Note_on_c, 0, 72, 127
2, 421200, Note_on_c, 0, 69, 127
2, 421392, Note_off_c, 0, 72, 64
2, 421440, Note_on_c, 0, 72, 127
2, 421632, Note_off_c, 0, 72, 64
2, 421680, Note_on_c, 0, 81, 127
2, 421968, Note_off_c, 0, 55, 64
2, 421968, Note_off_c, 0, 52, 64
2, 421968, Note_off_c, 0, 60, 64
2, 421968, Note_off_c, 0, 69, 64
2, 422064, Note_off_c, 0, 81, 64
2, 422160, Note_on_c, 0, 51, 127
2, 422160, Note_on_c, 0, 61, 127
2, 422160, Note_on_c, 0, 55, 127
2, 422160, Note_on_c, 0, 73, 127
2, 422160, Note_on_c, 0, 69, 127
2, 422352, Note_off_c, 0, 73, 64
2, 422400, Note_on_c, 0, 73, 127
2, 422592, Note_off_c, 0, 73, 64
2, 422640, Note_on_c, 0, 81, 127
2, 422928, Note_off_c, 0, 55, 64
2, 422928, Note_off_c, 0, 61, 64
2, 422928, Note_off_c, 0, 51, 64
2, 422928, Note_off_c, 0, 69, 64
2, 423024, Note_off_c, 0, 81, 64
2, 423120, Note_on_c, 0, 62, 127
2, 423120, Note_on_c, 0, 55, 127
2, 423120, Note_on_c, 0, 59, 127
2, 423120, Note_on_c, 0, 50, 127
2, 423120, Note_on_c, 0, 74, 127
2, 423120, Note_on_c, 0, 83, 127
2, 423120, Note_on_c, 0, 71, 127
2, 423312, Note_off_c, 0, 71, 64
2, 423312, Note_off_c, 0, 83, 64
2, 423312, Note_off_c, 0, 74, 64
2, 423312, Note_off_c, 0, 50, 64
2, 423312, Note_off_c, 0, 59, 64
2, 423312, Note_off_c, 0, 55, 64
2, 423312, Note_off_c, 0, 62, 64
2, 423360, Note_on_c, 0, 62, 127
2, 423552, Note_off_c, 0, 62, 64
2, 423600, Note_on_c, 0, 67, 127
2, 423792, Note_off_c, 0, 67, 64
2, 423840, Note_on_c, 0, 67, 127
2, 424032, Note_off_c, 0, 67, 64
2, 424080, Note_on_c, 0, 71, 127
2, 424272, Note_off_c, 0, 71, 64
2, 424320, Note_on_c, 0, 71, 127
2, 424512, Note_off_c, 0, 71, 64
2, 424560, Note_on_c, 0, 74, 127
2, 424944, Note_off_c, 0, 74, 64
2, 425040, Note_on_c, 0, 74, 127
2, 425040, Note_on_c, 0, 50, 127
2, 425136, Note_off_c, 0, 74, 64
2, 425160, Note_on_c, 0, 72, 127
2, 425256, Note_off_c, 0, 72, 64
2, 425280, Note_on_c, 0, 74, 127
2, 425376, Note_off_c, 0, 74, 64
2, 425400, Note_on_c, 0, 72, 127
2, 425424, Note_off_c, 0, 50, 64
2, 425496, Note_off_c, 0, 72, 64
2, 425520, Note_on_c, 0, 54, 127
2, 425520, Note_on_c, 0, 69, 127
2, 425712, Note_off_c, 0, 69, 64
2, 425712, Note_off_c, 0, 54, 64
2, 425760, Note_on_c, 0, 54, 127
2, 425952, Note_off_c, 0, 54, 64
2, 426000, Note_on_c, 0, 57, 127
2, 426000, Note_on_c, 0, 74, 127
2, 426096, Note_off_c, 0, 74, 64
2, 426120, Note_on_c, 0, 72, 127
2, 426192, Note_off_c, 0, 57, 64
2, 426216, Note_off_c, 0, 72, 64
2, 426240, Note_on_c, 0, 57, 127
2, 426240, Note_on_c, 0, 74, 127
2, 426336, Note_off_c, 0, 74, 64
2, 426360, Note_on_c, 0, 72, 127
2, 426432, Note_off_c, 0, 57, 64
2, 426456, Note_off_c, 0, 72, 64
2, 426480, Note_on_c, 0, 60, 127
2, 426480, Note_on_c, 0, 69, 127
2, 426672, Note_off_c, 0, 69, 64
2, 426672, Note_off_c, 0, 60, 64
2, 426720, Note_on_c, 0, 60, 127
2, 426912, Note_off_c, 0, 60, 64
2, 426960, Note_on_c, 0, 67, 127
2, 426960, Note_on_c, 0, 60, 127
2, 427056, Note_off_c, 0, 60, 64
2, 427080, Note_on_c, 0, 59, 127
2, 427176, Note_off_c, 0, 59, 64
2, 427200, Note_on_c, 0, 60, 127
2, 427296, Note_off_c, 0, 60, 64
2, 427320, Note_on_c, 0, 59, 127
2, 427344, Note_off_c, 0, 67, 64
2, 427416, Note_off_c, 0, 59, 64
2, 427440, Note_on_c, 0, 55, 127
2, 427440, Note_on_c, 0, 71, 127
2, 427632, Note_off_c, 0, 71, 64
2, 427680, Note_on_c, 0, 71, 127
2, 427824, Note_off_c, 0, 55, 64
2, 427872, Note_off_c, 0, 71, 64
2, 427920, Note_on_c, 0, 60, 127
2, 427920, Note_on_c, 0, 74, 127
2, 428016, Note_off_c, 0, 60, 64
2, 428040, Note_on_c, 0, 59, 127
2, 428112, Note_off_c, 0, 74, 64
2, 428136, Note_off_c, 0, 59, 64
2, 428160, Note_on_c, 0, 60, 127
2, 428160, Note_on_c, 0, 74, 127
2, 428256, Note_off_c, 0, 60, 64
2, 428280, Note_on_c, 0, 59, 127
2, 428352, Note_off_c, 0, 74, 64
2, 428376, Note_off_c, 0, 59, 64
2, 428400, Note_on_c, 0, 55, 127
2, 428400, Note_on_c, 0, 79, 127
2, 428592, Note_off_c, 0, 79, 64
2, 428640, Note_on_c, 0, 79, 127
2, 428784, Note_off_c, 0, 55, 64
2, 428832, Note_off_c, 0, 79, 64
2, 428880, Note_on_c, 0, 79, 127
2, 428880, Note_on_c, 0, 62, 127
2, 428976, Note_off_c, 0, 79, 64
2, 429000, Note_on_c, 0, 78, 127
2, 429096, Note_off_c, 0, 78, 64
2, 429120, Note_on_c, 0, 79, 127
2, 429216, Note_off_c, 0, 79, 64
2, 429240, Note_on_c, 0, 78, 127
2, 429264, Note_off_c, 0, 62, 64
2, 429336, Note_off_c, 0, 78, 64
2, 429360, Note_on_c, 0, 66, 127
2, 429360, Note_on_c, 0, 74, 127
2, 429552, Note_off_c, 0, 66, 64
2, 429600, Note_on_c, 0, 66, 127
2, 429744, Note_off_c, 0, 74, 64
2, 429792, Note_off_c, 0, 66, 64
2, 429840, Note_on_c, 0, 69, 127
2, 429840, Note_on_c, 0, 79, 127
2, 429936, Note_off_c, 0, 79, 64
2, 429960, Note_on_c, 0, 78, 127
2, 430032, Note_off_c, 0, 69, 64
2, 430056, Note_off_c, 0, 78, 64
2, 430080, Note_on_c, 0, 69, 127
2, 430080, Note_on_c, 0, 79, 127
2, 430176, Note_off_c, 0, 79, 64
2, 430200, Note_on_c, 0, 78, 127
2, 430272, Note_off_c, 0, 69, 64
2, 430296, Note_off_c, 0, 78, 64
2, 430320, Note_on_c, 0, 72, 127
2, 430320, Note_on_c, 0, 74, 127
2, 430512, Note_off_c, 0, 72, 64
2, 430560, Note_on_c, 0, 72, 127
2, 430704, Note_off_c, 0, 74, 64
2, 430752, Note_off_c, 0, 72, 64
2, 430800, Note_on_c, 0, 74, 127
2, 430800, Note_on_c, 0, 72, 127
2, 430896, Note_off_c, 0, 72, 64
2, 430920, Note_on_c, 0, 71, 127
2, 431016, Note_off_c, 0, 71, 64
2, 431040, Note_on_c, 0, 72, 127
2, 431136, Note_off_c, 0, 72, 64
2, 431160, Note_on_c, 0, 71, 127
2, 431184, Note_off_c, 0, 74, 64
2, 431256, Note_off_c, 0, 71, 64
2, 431280, Note_on_c, 0, 67, 127
2, 431280, Note_on_c, 0, 79, 127
2, 431280, Note_on_c, 0, 74, 127
2, 431472, Note_off_c, 0, 74, 64
2, 431472, Note_off_c, 0, 79, 64
2, 431520, Note_on_c, 0, 79, 127
2, 431520, Note_on_c, 0, 74, 127
2, 431664, Note_off_c, 0, 67, 64
2, 431712, Note_off_c, 0, 79, 64
2, 431712, Note_off_c, 0, 74, 64
2, 431760, Note_on_c, 0, 72, 127
2, 431760, Note_on_c, 0, 83, 127
2, 431760, Note_on_c, 0, 79, 127
2, 431856, Note_off_c, 0, 72, 64
2, 431880, Note_on_c, 0, 71, 127
2, 431952, Note_off_c, 0, 83, 64
2, 431952, Note_off_c, 0, 79, 64
2, 431976, Note_off_c, 0, 71, 64
2, 432000, Note_on_c, 0, 72, 127
2, 432000, Note_on_c, 0, 79, 127
2, 432000, Note_on_c, 0, 83, 127
2, 432096, Note_off_c, 0, 72, 64
2, 432120, Note_on_c, 0, 71, 127
2, 432192, Note_off_c, 0, 79, 64
2, 432192, Note_off_c, 0, 83, 64
2, 432216, Note_off_c, 0, 71, 64
2, 432240, Note_on_c, 0, 67, 127
2, 432240, Note_on_c, 0, 83, 127
2, 432240, Note_on_c, 0, 86, 127
2, 432624, Note_off_c, 0, 86, 64
2, 432624, Note_off_c, 0, 83, 64
2, 432624, Note_off_c, 0, 67, 64
2, 432720, Note_on_c, 0, 62, 127
2, 432720, Note_on_c, 0, 86, 127
2, 432816, Note_off_c, 0, 86, 64
2, 432840, Note_on_c, 0, 84, 127
2, 432936, Note_off_c, 0, 84, 64
2, 432960, Note_on_c, 0, 86, 127
2, 433056, Note_off_c, 0, 86, 64
2, 433080, Note_on_c, 0, 84, 127
2, 433104, Note_off_c, 0, 62, 64
2, 433176, Note_off_c, 0, 84, 64
2, 433200, Note_on_c, 0, 66, 127
2, 433200, Note_on_c, 0, 78, 127
2, 433200, Note_on_c, 0, 81, 127
2, 433200, Note_on_c, 0, 75, 127
2, 433296, Note_off_c, 0, 75, 64
2, 433320, Note_on_c, 0, 74, 127
2, 433392, Note_off_c, 0, 66, 64
2, 433416, Note_off_c, 0, 74, 64
2, 433440, Note_on_c, 0, 66, 127
2, 433440, Note_on_c, 0, 75, 127
2, 433536, Note_off_c, 0, 75, 64
2, 433560, Note_on_c, 0, 74, 127
2, 433584, Note_off_c, 0, 78, 64
2, 433584, Note_off_c, 0, 81, 64
2, 433632, Note_off_c, 0, 66, 64
2, 433656, Note_off_c, 0, 74, 64
2, 433680, Note_on_c, 0, 69, 127
2, 433680, Note_on_c, 0, 86, 127
2, 433776, Note_off_c, 0, 86, 64
2, 433800, Note_on_c, 0, 84, 127
2, 433872, Note_off_c, 0, 69, 64
2, 433896, Note_off_c, 0, 84, 64
2, 433920, Note_on_c, 0, 69, 127
2, 433920, Note_on_c, 0, 86, 127
2, 434016, Note_off_c, 0, 86, 64
2, 434040, Note_on_c, 0, 84, 127
2, 434112, Note_off_c, 0, 69, 64
2, 434136, Note_off_c, 0, 84, 64
2, 434160, Note_on_c, 0, 72, 127
2, 434160, Note_on_c, 0, 78, 127
2, 434160, Note_on_c, 0, 81, 127
2, 434160, Note_on_c, 0, 75, 127
2, 434256, Note_off_c, 0, 75, 64
2, 434280, Note_on_c, 0, 74, 127
2, 434376, Note_off_c, 0, 74, 64
2, 434400, Note_on_c, 0, 75, 127
2, 434496, Note_off_c, 0, 75, 64
2, 434520, Note_on_c, 0, 74, 127
2, 434544, Note_off_c, 0, 81, 64
2, 434544, Note_off_c, 0, 78, 64
2, 434544, Note_off_c, 0, 72, 64
2, 434616, Note_off_c, 0, 74, 64
2, 434640, Note_on_c, 0, 79, 127
2, 434640, Note_on_c, 0, 83, 127
2, 434640, Note_on_c, 0, 76, 127
2, 434640, Note_on_c, 0, 55, 127
2, 434736, Note_off_c, 0, 76, 64
2, 434760, Note_on_c, 0, 74, 127
2, 434856, Note_off_c, 0, 74, 64
2, 434880, Note_on_c, 0, 76, 127
2, 434976, Note_off_c, 0, 76, 64
2, 435000, Note_on_c, 0, 74, 127
2, 435024, Note_off_c, 0, 83, 64
2, 435024, Note_off_c, 0, 79, 64
2, 435096, Note_off_c, 0, 74, 64
2, 435120, Note_on_c, 0, 66, 127
2, 435216, Note_off_c, 0, 66, 64
2, 435240, Note_on_c, 0, 67, 127
2, 435336, Note_off_c, 0, 67, 64
2, 435360, Note_on_c, 0, 66, 127
2, 435408, Note_off_c, 0, 55, 64
2, 435456, Note_off_c, 0, 66, 64
2, 435480, Note_on_c, 0, 67, 127
2, 435576, Note_off_c, 0, 67, 64
2, 435600, Note_on_c, 0, 84, 127
2, 435600, Note_on_c, 0, 81, 127
2, 435600, Note_on_c, 0, 75, 127
2, 435600, Note_on_c, 0, 55, 127
2, 435696, Note_off_c, 0, 75, 64
2, 435720, Note_on_c, 0, 74, 127
2, 435816, Note_off_c, 0, 74, 64
2, 435840, Note_on_c, 0, 75, 127
2, 435936, Note_off_c, 0, 75, 64
2, 435960, Note_on_c, 0, 74, 127
2, 435984, Note_off_c, 0, 81, 64
2, 435984, Note_off_c, 0, 84, 64
2, 436056, Note_off_c, 0, 74, 64
2, 436080, Note_on_c, 0, 67, 127
2, 436176, Note_off_c, 0, 67, 64
2, 436200, Note_on_c, 0, 66, 127
2, 436296, Note_off_c, 0, 66, 64
2, 436320, Note_on_c, 0, 67, 127
2, 436368, Note_off_c, 0, 55, 64
2, 436416, Note_off_c, 0, 67, 64
2, 436440, Note_on_c, 0, 66, 127
2, 436536, Note_off_c, 0, 66, 64
2, 436560, Note_on_c, 0, 71, 127
2, 436560, Note_on_c, 0, 67, 127
2, 436560, Note_on_c, 0, 64, 127
2, 436560, Note_on_c, 0, 43, 127
2, 436656, Note_off_c, 0, 64, 64
2, 436680, Note_on_c, 0, 62, 127
2, 436776, Note_off_c, 0, 62, 64
2, 436800, Note_on_c, 0, 64, 127
2, 436896, Note_off_c, 0, 64, 64
2, 436920, Note_on_c, 0, 62, 127
2, 436944, Note_off_c, 0, 67, 64
2, 436944, Note_off_c, 0, 71, 64
2, 437016, Note_off_c, 0, 62, 64
2, 437040, Note_on_c, 0, 54, 127
2, 437136, Note_off_c, 0, 54, 64
2, 437160, Note_on_c, 0, 55, 127
2, 437256, Note_off_c, 0, 55, 64
2, 437280, Note_on_c, 0, 54, 127
2, 437328, Note_off_c, 0, 43, 64
2, 437376, Note_off_c, 0, 54, 64
2, 437400, Note_on_c, 0, 55, 127
2, 437496, Note_off_c, 0, 55, 64
2, 437520, Note_on_c, 0, 72, 127
2, 437520, Note_on_c, 0, 69, 127
2, 437520, Note_on_c, 0, 63, 127
2, 437520, Note_on_c, 0, 43, 127
2, 437616, Note_off_c, 0, 63, 64
2, 437640, Note_on_c, 0, 62, 127
2, 437736, Note_off_c, 0, 62, 64
2, 437760, Note_on_c, 0, 63, 127
2, 437856, Note_off_c, 0, 63, 64
2, 437880, Note_on_c, 0, 62, 127
2, 437904, Note_off_c, 0, 69, 64
2, 437904, Note_off_c, 0, 72, 64
2, 437976, Note_off_c, 0, 62, 64
2, 438000, Note_on_c, 0, 55, 127
2, 438096, Note_off_c, 0, 55, 64
2, 438120, Note_on_c, 0, 54, 127
2, 438216, Note_off_c, 0, 54, 64
2, 438240, Note_on_c, 0, 55, 127
2, 438288, Note_off_c, 0, 43, 64
2, 438336, Note_off_c, 0, 55, 64
2, 438360, Note_on_c, 0, 54, 127
2, 438456, Note_off_c, 0, 54, 64
2, 438480, Note_on_c, 0, 59, 127
2, 438480, Note_on_c, 0, 55, 127
2, 438480, Note_on_c, 0, 52, 127
2, 438480, Note_on_c, 0, 31, 127
2, 438576, Note_off_c, 0, 52, 64
2, 438600, Note_on_c, 0, 50, 127
2, 438696, Note_off_c, 0, 50, 64
2, 438720, Note_on_c, 0, 52, 127
2, 438816, Note_off_c, 0, 52, 64
2, 438840, Note_on_c, 0, 50, 127
2, 438864, Note_off_c, 0, 55, 64
2, 438864, Note_off_c, 0, 59, 64
2, 438936, Note_off_c, 0, 50, 64
2, 438960, Note_on_c, 0, 42, 127
2, 439056, Note_off_c, 0, 42, 64
2, 439080, Note_on_c, 0, 43, 127
2, 439176, Note_off_c, 0, 43, 64
2, 439200, Note_on_c, 0, 42, 127
2, 439248, Note_off_c, 0, 31, 64
2, 439296, Note_off_c, 0, 42, 64
2, 439320, Note_on_c, 0, 43, 127
2, 439416, Note_off_c, 0, 43, 64
2, 439440, Note_on_c, 0, 57, 127
2, 439440, Note_on_c, 0, 60, 127
2, 439440, Note_on_c, 0, 51, 127
2, 439440, Note_on_c, 0, 31, 127
2, 439536, Note_off_c, 0, 51, 64
2, 439560, Note_on_c, 0, 50, 127
2, 439656, Note_off_c, 0, 50, 64
2, 439680, Note_on_c, 0, 51, 127
2, 439776, Note_off_c, 0, 51, 64
2, 439800, Note_on_c, 0, 50, 127
2, 439824, Note_off_c, 0, 60, 64
2, 439824, Note_off_c, 0, 57, 64
2, 439896, Note_off_c, 0, 50, 64
2, 439920, Note_on_c, 0, 43, 127
2, 440016, Note_off_c, 0, 43, 64
2, 440040, Note_on_c, 0, 42, 127
2, 440136, Note_off_c, 0, 42, 64
2, 440160, Note_on_c, 0, 43, 127
2, 440208, Note_off_c, 0, 31, 64
2, 440256, Note_off_c, 0, 43, 64
2, 440280, Note_on_c, 0, 42, 127
2, 440376, Note_off_c, 0, 42, 64
2, 440400, Note_on_c, 0, 55, 127
2, 440400, Note_on_c, 0, 59, 127
2, 440400, Note_on_c, 0, 52, 127
2, 440400, Note_on_c, 0, 31, 127
2, 440496, Note_off_c, 0, 52, 64
2, 440520, Note_on_c, 0, 50, 127
2, 440616, Note_off_c, 0, 50, 64
2, 440640, Note_on_c, 0, 52, 127
2, 440736, Note_off_c, 0, 52, 64
2, 440760, Note_on_c, 0, 50, 127
2, 440784, Note_off_c, 0, 59, 64
2, 440784, Note_off_c, 0, 55, 64
2, 440856, Note_off_c, 0, 50, 64
2, 440880, Note_on_c, 0, 42, 127
2, 440976, Note_off_c, 0, 42, 64
2, 441000, Note_on_c, 0, 43, 127
2, 441096, Note_off_c, 0, 43, 64
2, 441120, Note_on_c, 0, 42, 127
2, 441168, Note_off_c, 0, 31, 64
2, 441216, Note_off_c, 0, 42, 64
2, 441240, Note_on_c, 0, 43, 127
2, 441336, Note_off_c, 0, 43, 64
2, 441360, Note_on_c, 0, 57, 127
2, 441360, Note_on_c, 0, 60, 127
2, 441360, Note_on_c, 0, 51, 127
2, 441360, Note_on_c, 0, 31, 127
2, 441456, Note_off_c, 0, 51, 64
2, 441480, Note_on_c, 0, 50, 127
2, 441576, Note_off_c, 0, 50, 64
2, 441600, Note_on_c, 0, 51, 127
2, 441696, Note_off_c, 0, 51, 64
2, 441720, Note_on_c, 0, 50, 127
2, 441744, Note_off_c, 0, 60, 64
2, 441744, Note_off_c, 0, 57, 64
2, 441816, Note_off_c, 0, 50, 64
2, 441840, Note_on_c, 0, 42, 127
2, 441936, Note_off_c, 0, 42, 64
2, 441960, Note_on_c, 0, 43, 127
2, 442056, Note_off_c, 0, 43, 64
2, 442080, Note_on_c, 0, 42, 127
2, 442128, Note_off_c, 0, 31, 64
2, 442176, Note_off_c, 0, 42, 64
2, 442200, Note_on_c, 0, 43, 127
2, 442296, Note_off_c, 0, 43, 64
2, 442320, Note_on_c, 0, 59, 127
2, 442320, Note_on_c, 0, 55, 127
2, 442320, Note_on_c, 0, 52, 127
2, 442320, Note_on_c, 0, 31, 127
2, 442416, Note_off_c, 0, 52, 64
2, 442440, Note_on_c, 0, 50, 127
2, 442536, Note_off_c, 0, 50, 64
2, 442560, Note_on_c, 0, 52, 127
2, 442656, Note_off_c, 0, 52, 64
2, 442680, Note_on_c, 0, 50, 127
2, 442704, Note_off_c, 0, 55, 64
2, 442704, Note_off_c, 0, 59, 64
2, 442776, Note_off_c, 0, 50, 64
2, 442800, Note_on_c, 0, 42, 127
2, 442896, Note_off_c, 0, 42, 64
2, 442920, Note_on_c, 0, 43, 127
2, 443016, Note_off_c, 0, 43, 64
2, 443040, Note_on_c, 0, 42, 127
2, 443088, Note_off_c, 0, 31, 64
2, 443136, Note_off_c, 0, 42, 64
2, 443160, Note_on_c, 0, 43, 127
2, 443256, Note_off_c, 0, 43, 64
2, 443280, Note_on_c, 0, 66, 127
2, 443280, Note_on_c, 0, 31, 127
2, 443376, Note_off_c, 0, 66, 64
2, 443400, Note_on_c, 0, 67, 127
2, 443496, Note_off_c, 0, 67, 64
2, 443520, Note_on_c, 0, 66, 127
2, 443616, Note_off_c, 0, 66, 64
2, 443640, Note_on_c, 0, 67, 127
2, 443736, Note_off_c, 0, 67, 64
2, 443760, Note_on_c, 0, 42, 127
2, 443856, Note_off_c, 0, 42, 64
2, 443880, Note_on_c, 0, 43, 127
2, 443976, Note_off_c, 0, 43, 64
2, 444000, Note_on_c, 0, 42, 127
2, 444048, Note_off_c, 0, 31, 64
2, 444096, Note_off_c, 0, 42, 64
2, 444120, Note_on_c, 0, 43, 127
2, 444216, Note_off_c, 0, 43, 64
2, 444240, Note_on_c, 0, 55, 127
2, 444240, Note_on_c, 0, 59, 127
2, 444240, Note_on_c, 0, 52, 127
2, 444240, Note_on_c, 0, 31, 127
2, 444336, Note_off_c, 0, 52, 64
2, 444360, Note_on_c, 0, 50, 127
2, 444456, Note_off_c, 0, 50, 64
2, 444480, Note_on_c, 0, 52, 127
2, 444576, Note_off_c, 0, 52, 64
2, 444600, Note_on_c, 0, 50, 127
2, 444624, Note_off_c, 0, 59, 64
2, 444624, Note_off_c, 0, 55, 64
2, 444696, Note_off_c, 0, 50, 64
2, 444720, Note_on_c, 0, 42, 127
2, 444816, Note_off_c, 0, 42, 64
2, 444840, Note_on_c, 0, 43, 127
2, 444936, Note_off_c, 0, 43, 64
2, 444960, Note_on_c, 0, 42, 127
2, 445008, Note_off_c, 0, 31, 64
2, 445056, Note_off_c, 0, 42, 64
2, 445080, Note_on_c, 0, 43, 127
2, 445176, Note_off_c, 0, 43, 64
2, 445200, Note_on_c, 0, 73, 127
2, 445200, Note_on_c, 0, 31, 127
2, 445296, Note_off_c, 0, 73, 64
2, 445320, Note_on_c, 0, 74, 127
2, 445416, Note_off_c, 0, 74, 64
2, 445440, Note_on_c, 0, 73, 127
2, 445536, Note_off_c, 0, 73, 64
2, 445560, Note_on_c, 0, 74, 127
2, 445656, Note_off_c, 0, 74, 64
2, 445680, Note_on_c, 0, 42, 127
2, 445776, Note_off_c, 0, 42, 64
2, 445800, Note_on_c, 0, 43, 127
2, 445896, Note_off_c, 0, 43, 64
2, 445920, Note_on_c, 0, 42, 127
2, 445968, Note_off_c, 0, 31, 64
2, 446016, Note_off_c, 0, 42, 64
2, 446040, Note_on_c, 0, 43, 127
2, 446136, Note_off_c, 0, 43, 64
2, 446160, Note_on_c, 0, 59, 127
2, 446160, Note_on_c, 0, 55, 127
2, 446160, Note_on_c, 0, 52, 127
2, 446160, Note_on_c, 0, 31, 127
2, 446256, Note_off_c, 0, 52, 64
2, 446280, Note_on_c, 0, 50, 127
2, 446376, Note_off_c, 0, 50, 64
2, 446400, Note_on_c, 0, 52, 127
2, 446496, Note_off_c, 0, 52, 64
2, 446520, Note_on_c, 0, 50, 127
2, 446544, Note_off_c, 0, 55, 64
2, 446544, Note_off_c, 0, 59, 64
2, 446616, Note_off_c, 0, 50, 64
2, 446640, Note_on_c, 0, 42, 127
2, 446736, Note_off_c, 0, 42, 64
2, 446760, Note_on_c, 0, 43, 127
2, 446856, Note_off_c, 0, 43, 64
2, 446880, Note_on_c, 0, 42, 127
2, 446928, Note_off_c, 0, 31, 64
2, 446976, Note_off_c, 0, 42, 64
2, 447000, Note_on_c, 0, 43, 127
2, 447096, Note_off_c, 0, 43, 64
2, 447120, Note_on_c, 0, 78, 127
2, 447120, Note_on_c, 0, 72, 127
2, 447120, Note_on_c, 0, 31, 127
2, 447216, Note_off_c, 0, 78, 64
2, 447240, Note_on_c, 0, 79, 127
2, 447336, Note_off_c, 0, 79, 64
2, 447360, Note_on_c, 0, 78, 127
2, 447456, Note_off_c, 0, 78, 64
2, 447480, Note_on_c, 0, 79, 127
2, 447504, Note_off_c, 0, 72, 64
2, 447576, Note_off_c, 0, 79, 64
2, 447600, Note_on_c, 0, 42, 127
2, 447696, Note_off_c, 0, 42, 64
2, 447720, Note_on_c, 0, 43, 127
2, 447816, Note_off_c, 0, 43, 64
2, 447840, Note_on_c, 0, 42, 127
2, 447888, Note_off_c, 0, 31, 64
2, 447936, Note_off_c, 0, 42, 64
2, 447960, Note_on_c, 0, 43, 127
2, 448056, Note_off_c, 0, 43, 64
2, 448080, Note_on_c, 0, 31, 127
2, 448464, Note_off_c, 0, 31, 64
2, 449040, Note_on_c, 0, 55, 127
2, 449040, Note_on_c, 0, 43, 127
2, 449040, Note_on_c, 0, 47, 127
2, 449040, Note_on_c, 0, 50, 127
2, 449040, Note_on_c, 0, 67, 127
2, 449040, Note_on_c, 0, 79, 127
2, 449040, Note_on_c, 0, 74, 127
2, 449040, Note_on_c, 0, 71, 127
2, 449424, Note_off_c, 0, 71, 64
2, 449424, Note_off_c, 0, 74, 64
2, 449424, Note_off_c, 0, 79, 64
2, 449424, Note_off_c, 0, 67, 64
2, 449424, Note_off_c, 0, 50, 64
2, 449424, Note_off_c, 0, 47, 64
2, 449424, Note_off_c, 0, 43, 64
2, 449424, Note_off_c, 0, 55, 64
2, 450000, Note_on_c, 0, 43, 127
2, 450000, Note_on_c, 0, 31, 127
2, 450000, Note_on_c, 0, 38, 127
2, 450000, Note_on_c, 0, 35, 127
2, 450000, Note_on_c, 0, 67, 127
2, 450000, Note_on_c, 0, 55, 127
2, 450000, Note_on_c, 0, 62, 127
2, 450000, Note_on_c, 0, 59, 127
2, 450384, Note_off_c, 0, 59, 64
2, 450384, Note_off_c, 0, 62, 64
2, 450384, Note_off_c, 0, 55, 64
2, 450384, Note_off_c, 0, 67, 64
2, 450384, Note_off_c, 0, 35, 64
2, 450384, Note_off_c, 0, 38, 64
2, 450384, Note_off_c, 0, 31, 64
2, 450384, Note_off_c, 0, 43, 64
2, 450384, End_track
0, 0, End_of_file