0, 0, Header, 1, 6, 120
1, 0, Start_track
1, 0, MIDI_port, 0
1, 0, System_exclusive, 0A, 41, 10, 42, 12, 40, 01, 30, 03, 0C, F7
1, 0, MIDI_port, 0
1, 0, Time_signature, 4, 2, 24, 8
1, 0, Key_signature, 0, "major"
1, 0, Tempo, 576923
1, 0, Marker_t, "Beethoven Piano Sonata No. 10, 2nd movement; Andante"
1, 0, End_track
2, 0, Start_track
2, 0, MIDI_port, 0
2, 0, Title_t, "Ludwig van Beethoven"
2, 0, Control_c, 0, 0, 0
2, 120, Control_c, 0, 121, 0
2, 120, Control_c, 0, 91, 120
2, 120, Control_c, 0, 93, 0
2, 120, Control_c, 0, 1, 0
2, 120, Control_c, 0, 64, 0
2, 120, Control_c, 0, 0, 0
2, 120, Program_c, 0, 0
2, 120, Control_c, 0, 10, 64
2, 120, Control_c, 0, 7, 120
2, 345, Note_on_c, 0, 55, 47
2, 371, Note_on_c, 0, 55, 0
2, 383, Note_on_c, 0, 60, 56
2, 383, Note_on_c, 0, 48, 41
2, 384, Note_on_c, 0, 52, 44
2, 384, Note_on_c, 0, 55, 41
2, 399, Note_on_c, 0, 55, 0
2, 415, Note_on_c, 0, 52, 0
2, 422, Note_on_c, 0, 60, 0
2, 425, Note_on_c, 0, 48, 0
2, 508, Note_on_c, 0, 53, 42
2, 508, Note_on_c, 0, 50, 42
2, 508, Note_on_c, 0, 59, 56
2, 509, Note_on_c, 0, 55, 47
2, 534, Note_on_c, 0, 50, 0
2, 538, Note_on_c, 0, 55, 0
2, 542, Note_on_c, 0, 59, 0
2, 544, Note_on_c, 0, 53, 0
2, 642, Note_on_c, 0, 60, 58
2, 644, Note_on_c, 0, 52, 42
2, 645, Note_on_c, 0, 55, 40
2, 666, Note_on_c, 0, 55, 0
2, 671, Note_on_c, 0, 52, 0
2, 675, Note_on_c, 0, 60, 0
2, 768, Note_on_c, 0, 47, 44
2, 768, Note_on_c, 0, 55, 42
2, 769, Note_on_c, 0, 62, 56
2, 796, Note_on_c, 0, 47, 0
2, 798, Note_on_c, 0, 62, 0
2, 799, Note_on_c, 0, 55, 0
2, 894, Note_on_c, 0, 55, 34
2, 894, Note_on_c, 0, 64, 56
2, 894, Note_on_c, 0, 60, 43
2, 894, Note_on_c, 0, 48, 46
2, 919, Note_on_c, 0, 60, 0
2, 920, Note_on_c, 0, 48, 0
2, 924, Note_on_c, 0, 64, 0
2, 924, Note_on_c, 0, 55, 0
2, 1021, Note_on_c, 0, 41, 44
2, 1021, Note_on_c, 0, 57, 42
2, 1022, Note_on_c, 0, 65, 63
2, 1023, Note_on_c, 0, 62, 51
2, 1045, Note_on_c, 0, 62, 0
2, 1049, Note_on_c, 0, 65, 0
2, 1050, Note_on_c, 0, 57, 0
2, 1055, Note_on_c, 0, 41, 0
2, 1156, Note_on_c, 0, 43, 50
2, 1157, Note_on_c, 0, 59, 56
2, 1158, Note_on_c, 0, 62, 64
2, 1298, Note_on_c, 0, 43, 0
2, 1298, Note_on_c, 0, 55, 51
2, 1389, Note_on_c, 0, 53, 54
2, 1395, Note_on_c, 0, 62, 0
2, 1395, Note_on_c, 0, 59, 0
2, 1396, Note_on_c, 0, 55, 0
2, 1428, Note_on_c, 0, 53, 0
2, 1428, Note_on_c, 0, 52, 53
2, 1428, Note_on_c, 0, 60, 54
2, 1428, Note_on_c, 0, 67, 62
2, 1447, Note_on_c, 0, 60, 0
2, 1453, Note_on_c, 0, 67, 0
2, 1456, Note_on_c, 0, 52, 0
2, 1548, Note_on_c, 0, 67, 63
2, 1549, Note_on_c, 0, 59, 48
2, 1549, Note_on_c, 0, 50, 56
2, 1550, Note_on_c, 0, 65, 56
2, 1569, Note_on_c, 0, 67, 0
2, 1572, Note_on_c, 0, 59, 0
2, 1572, Note_on_c, 0, 65, 0
2, 1576, Note_on_c, 0, 50, 0
2, 1674, Note_on_c, 0, 48, 57
2, 1675, Note_on_c, 0, 67, 66
2, 1677, Note_on_c, 0, 60, 51
2, 1677, Note_on_c, 0, 64, 54
2, 1698, Note_on_c, 0, 60, 0
2, 1699, Note_on_c, 0, 64, 0
2, 1703, Note_on_c, 0, 48, 0
2, 1706, Note_on_c, 0, 67, 0
2, 1803, Note_on_c, 0, 47, 60
2, 1806, Note_on_c, 0, 62, 53
2, 1806, Note_on_c, 0, 64, 54
2, 1806, Note_on_c, 0, 68, 67
2, 1826, Note_on_c, 0, 64, 0
2, 1828, Note_on_c, 0, 68, 0
2, 1830, Note_on_c, 0, 62, 0
2, 1833, Note_on_c, 0, 47, 0
2, 1928, Note_on_c, 0, 60, 54
2, 1929, Note_on_c, 0, 45, 63
2, 1929, Note_on_c, 0, 69, 69
2, 1930, Note_on_c, 0, 64, 58
2, 1951, Note_on_c, 0, 64, 0
2, 1955, Note_on_c, 0, 60, 0
2, 1956, Note_on_c, 0, 69, 0
2, 1957, Note_on_c, 0, 45, 0
2, 2051, Note_on_c, 0, 69, 72
2, 2054, Note_on_c, 0, 41, 62
2, 2056, Note_on_c, 0, 60, 54
2, 2056, Note_on_c, 0, 65, 60
2, 2079, Note_on_c, 0, 69, 0
2, 2080, Note_on_c, 0, 65, 0
2, 2081, Note_on_c, 0, 60, 0
2, 2085, Note_on_c, 0, 41, 0
2, 2185, Note_on_c, 0, 43, 60
2, 2185, Note_on_c, 0, 62, 67
2, 2185, Note_on_c, 0, 59, 61
2, 2394, Note_on_c, 0, 59, 0
2, 2412, Note_on_c, 0, 55, 52
2, 2419, Note_on_c, 0, 62, 0
2, 2432, Note_on_c, 0, 55, 0
2, 2444, Note_on_c, 0, 43, 0
2, 2452, Note_on_c, 0, 48, 48
2, 2453, Note_on_c, 0, 60, 54
2, 2454, Note_on_c, 0, 55, 49
2, 2454, Note_on_c, 0, 52, 47
2, 2476, Note_on_c, 0, 55, 0
2, 2479, Note_on_c, 0, 52, 0
2, 2485, Note_on_c, 0, 60, 0
2, 2487, Note_on_c, 0, 48, 0
2, 2577, Note_on_c, 0, 53, 48
2, 2578, Note_on_c, 0, 50, 52
2, 2579, Note_on_c, 0, 55, 49
2, 2579, Note_on_c, 0, 59, 52
2, 2607, Note_on_c, 0, 55, 0
2, 2607, Note_on_c, 0, 53, 0
2, 2609, Note_on_c, 0, 50, 0
2, 2609, Note_on_c, 0, 59, 0
2, 2708, Note_on_c, 0, 52, 56
2, 2708, Note_on_c, 0, 60, 57
2, 2709, Note_on_c, 0, 55, 46
2, 2734, Note_on_c, 0, 55, 0
2, 2735, Note_on_c, 0, 52, 0
2, 2741, Note_on_c, 0, 60, 0
2, 2840, Note_on_c, 0, 55, 48
2, 2840, Note_on_c, 0, 62, 63
2, 2841, Note_on_c, 0, 47, 55
2, 2868, Note_on_c, 0, 47, 0
2, 2868, Note_on_c, 0, 62, 0
2, 2869, Note_on_c, 0, 55, 0
2, 2966, Note_on_c, 0, 48, 66
2, 2966, Note_on_c, 0, 55, 47
2, 2966, Note_on_c, 0, 64, 67
2, 2986, Note_on_c, 0, 55, 0
2, 2993, Note_on_c, 0, 48, 0
2, 2994, Note_on_c, 0, 64, 0
2, 3091, Note_on_c, 0, 45, 76
2, 3091, Note_on_c, 0, 66, 88
2, 3092, Note_on_c, 0, 60, 74
2, 3092, Note_on_c, 0, 50, 63
2, 3109, Note_on_c, 0, 60, 0
2, 3111, Note_on_c, 0, 66, 0
2, 3114, Note_on_c, 0, 45, 0
2, 3115, Note_on_c, 0, 50, 0
2, 3224, Note_on_c, 0, 50, 79
2, 3224, Note_on_c, 0, 67, 86
2, 3225, Note_on_c, 0, 47, 80
2, 3226, Note_on_c, 0, 62, 85
2, 3412, Note_on_c, 0, 62, 0
2, 3413, Note_on_c, 0, 47, 0
2, 3417, Note_on_c, 0, 50, 0
2, 3420, Note_on_c, 0, 67, 0
2, 3460, Note_on_c, 0, 64, 85
2, 3460, Note_on_c, 0, 55, 78
2, 3461, Note_on_c, 0, 48, 91
2, 3461, Note_on_c, 0, 69, 74
2, 3481, Note_on_c, 0, 64, 0
2, 3486, Note_on_c, 0, 69, 0
2, 3489, Note_on_c, 0, 55, 0
2, 3490, Note_on_c, 0, 48, 0
2, 3587, Note_on_c, 0, 64, 95
2, 3588, Note_on_c, 0, 70, 107
2, 3588, Note_on_c, 0, 55, 77
2, 3588, Note_on_c, 0, 49, 101
2, 3609, Note_on_c, 0, 64, 0
2, 3610, Note_on_c, 0, 70, 0
2, 3612, Note_on_c, 0, 49, 0
2, 3616, Note_on_c, 0, 55, 0
2, 3716, Note_on_c, 0, 50, 89
2, 3716, Note_on_c, 0, 71, 89
2, 3716, Note_on_c, 0, 55, 91
2, 3717, Note_on_c, 0, 62, 97
2, 3924, Note_on_c, 0, 50, 0
2, 3938, Note_on_c, 0, 71, 0
2, 3939, Note_on_c, 0, 55, 0
2, 3946, Note_on_c, 0, 62, 0
2, 3970, Note_on_c, 0, 57, 64
2, 3970, Note_on_c, 0, 72, 73
2, 3971, Note_on_c, 0, 50, 71
2, 3972, Note_on_c, 0, 66, 67
2, 3991, Note_on_c, 0, 50, 0
2, 3992, Note_on_c, 0, 66, 0
2, 3995, Note_on_c, 0, 72, 0
2, 3997, Note_on_c, 0, 57, 0
2, 4104, Note_on_c, 0, 50, 56
2, 4104, Note_on_c, 0, 69, 68
2, 4104, Note_on_c, 0, 60, 43
2, 4105, Note_on_c, 0, 66, 63
2, 4134, Note_on_c, 0, 66, 0
2, 4138, Note_on_c, 0, 69, 0
2, 4142, Note_on_c, 0, 60, 0
2, 4146, Note_on_c, 0, 50, 0
2, 4234, Note_on_c, 0, 55, 55
2, 4236, Note_on_c, 0, 59, 48
2, 4237, Note_on_c, 0, 67, 57
2, 4334, Note_on_c, 0, 67, 0
2, 4343, Note_on_c, 0, 59, 0
2, 4343, Note_on_c, 0, 55, 0
2, 4454, Note_on_c, 0, 67, 47
2, 4490, Note_on_c, 0, 64, 67
2, 4492, Note_on_c, 0, 79, 60
2, 4495, Note_on_c, 0, 72, 67
2, 4605, Note_on_c, 0, 64, 0
2, 4606, Note_on_c, 0, 67, 0
2, 4606, Note_on_c, 0, 79, 0
2, 4610, Note_on_c, 0, 72, 0
2, 4623, Note_on_c, 0, 71, 61
2, 4624, Note_on_c, 0, 77, 71
2, 4625, Note_on_c, 0, 67, 17
2, 4629, Note_on_c, 0, 62, 67
2, 4721, Note_on_c, 0, 71, 0
2, 4730, Note_on_c, 0, 77, 0
2, 4730, Note_on_c, 0, 62, 0
2, 4737, Note_on_c, 0, 67, 0
2, 4752, Note_on_c, 0, 67, 22
2, 4754, Note_on_c, 0, 72, 51
2, 4755, Note_on_c, 0, 60, 75
2, 4757, Note_on_c, 0, 76, 67
2, 4850, Note_on_c, 0, 60, 0
2, 4855, Note_on_c, 0, 72, 0
2, 4858, Note_on_c, 0, 67, 0
2, 4860, Note_on_c, 0, 76, 0
2, 4886, Note_on_c, 0, 58, 92
2, 4886, Note_on_c, 0, 67, 58
2, 4891, Note_on_c, 0, 72, 70
2, 4894, Note_on_c, 0, 76, 76
2, 4910, Note_on_c, 0, 76, 0
2, 4911, Note_on_c, 0, 77, 72
2, 4925, Note_on_c, 0, 76, 81
2, 4926, Note_on_c, 0, 77, 0
2, 4940, Note_on_c, 0, 76, 0
2, 4941, Note_on_c, 0, 77, 75
2, 4954, Note_on_c, 0, 77, 0
2, 4954, Note_on_c, 0, 76, 73
2, 4973, Note_on_c, 0, 74, 77
2, 4975, Note_on_c, 0, 76, 0
2, 4981, Note_on_c, 0, 67, 0
2, 4986, Note_on_c, 0, 58, 0
2, 4989, Note_on_c, 0, 76, 74
2, 4991, Note_on_c, 0, 74, 0
2, 5014, Note_on_c, 0, 76, 0
2, 5015, Note_on_c, 0, 65, 69
2, 5016, Note_on_c, 0, 57, 86
2, 5020, Note_on_c, 0, 84, 98
2, 5128, Note_on_c, 0, 65, 0
2, 5130, Note_on_c, 0, 57, 0
2, 5131, Note_on_c, 0, 84, 0
2, 5134, Note_on_c, 0, 72, 0
2, 5150, Note_on_c, 0, 55, 85
2, 5150, Note_on_c, 0, 64, 87
2, 5152, Note_on_c, 0, 72, 75
2, 5153, Note_on_c, 0, 82, 100
2, 5260, Note_on_c, 0, 55, 0
2, 5262, Note_on_c, 0, 82, 0
2, 5263, Note_on_c, 0, 64, 0
2, 5264, Note_on_c, 0, 72, 0
2, 5292, Note_on_c, 0, 53, 75
2, 5292, Note_on_c, 0, 65, 77
2, 5292, Note_on_c, 0, 81, 73
2, 5293, Note_on_c, 0, 72, 84
2, 5502, Note_on_c, 0, 81, 0
2, 5521, Note_on_c, 0, 72, 0
2, 5524, Note_on_c, 0, 65, 0
2, 5533, Note_on_c, 0, 69, 86
2, 5540, Note_on_c, 0, 53, 0
2, 5553, Note_on_c, 0, 69, 0
2, 5562, Note_on_c, 0, 60, 83
2, 5563, Note_on_c, 0, 53, 80
2, 5563, Note_on_c, 0, 69, 72
2, 5567, Note_on_c, 0, 81, 94
2, 5663, Note_on_c, 0, 60, 0
2, 5675, Note_on_c, 0, 53, 0
2, 5677, Note_on_c, 0, 69, 0
2, 5679, Note_on_c, 0, 81, 0
2, 5694, Note_on_c, 0, 69, 70
2, 5696, Note_on_c, 0, 79, 84
2, 5697, Note_on_c, 0, 61, 105
2, 5698, Note_on_c, 0, 52, 85
2, 5801, Note_on_c, 0, 61, 0
2, 5802, Note_on_c, 0, 79, 0
2, 5809, Note_on_c, 0, 69, 0
2, 5811, Note_on_c, 0, 52, 0
2, 5825, Note_on_c, 0, 50, 90
2, 5826, Note_on_c, 0, 69, 70
2, 5826, Note_on_c, 0, 77, 77
2, 5827, Note_on_c, 0, 74, 69
2, 5924, Note_on_c, 0, 77, 0
2, 5925, Note_on_c, 0, 69, 0
2, 5928, Note_on_c, 0, 74, 0
2, 5954, Note_on_c, 0, 73, 91
2, 5956, Note_on_c, 0, 76, 70
2, 5956, Note_on_c, 0, 52, 84
2, 5957, Note_on_c, 0, 67, 92
2, 5960, Note_on_c, 0, 50, 0
2, 5960, Note_on_c, 0, 69, 84
2, 5965, Note_on_c, 0, 69, 0
2, 6050, Note_on_c, 0, 73, 0
2, 6053, Note_on_c, 0, 76, 0
2, 6057, Note_on_c, 0, 67, 0
2, 6084, Note_on_c, 0, 52, 0
2, 6084, Note_on_c, 0, 74, 79
2, 6085, Note_on_c, 0, 65, 81
2, 6085, Note_on_c, 0, 69, 87
2, 6085, Note_on_c, 0, 53, 78
2, 6176, Note_on_c, 0, 69, 0
2, 6187, Note_on_c, 0, 65, 0
2, 6190, Note_on_c, 0, 74, 0
2, 6218, Note_on_c, 0, 69, 71
2, 6220, Note_on_c, 0, 53, 0
2, 6220, Note_on_c, 0, 72, 77
2, 6220, Note_on_c, 0, 54, 94
2, 6220, Note_on_c, 0, 63, 101
2, 6328, Note_on_c, 0, 63, 0
2, 6336, Note_on_c, 0, 69, 0
2, 6345, Note_on_c, 0, 54, 0
2, 6349, Note_on_c, 0, 55, 74
2, 6350, Note_on_c, 0, 67, 67
2, 6353, Note_on_c, 0, 62, 85
2, 6469, Note_on_c, 0, 55, 0
2, 6483, Note_on_c, 0, 67, 0
2, 6485, Note_on_c, 0, 62, 0
2, 6489, Note_on_c, 0, 72, 0
2, 6500, Note_on_c, 0, 71, 83
2, 6500, Note_on_c, 0, 67, 64
2, 6597, Note_on_c, 0, 65, 58
2, 6611, Note_on_c, 0, 71, 0
2, 6614, Note_on_c, 0, 67, 0
2, 6631, Note_on_c, 0, 72, 57
2, 6636, Note_on_c, 0, 67, 55
2, 6637, Note_on_c, 0, 64, 79
2, 6648, Note_on_c, 0, 65, 0
2, 6668, Note_on_c, 0, 72, 0
2, 6668, Note_on_c, 0, 67, 0
2, 6668, Note_on_c, 0, 64, 0
2, 6758, Note_on_c, 0, 62, 69
2, 6760, Note_on_c, 0, 71, 55
2, 6760, Note_on_c, 0, 67, 53
2, 6761, Note_on_c, 0, 65, 30
2, 6786, Note_on_c, 0, 65, 0
2, 6786, Note_on_c, 0, 62, 0
2, 6787, Note_on_c, 0, 67, 0
2, 6788, Note_on_c, 0, 71, 0
2, 6880, Note_on_c, 0, 72, 70
2, 6883, Note_on_c, 0, 60, 86
2, 6884, Note_on_c, 0, 64, 53
2, 6884, Note_on_c, 0, 67, 54
2, 6906, Note_on_c, 0, 60, 0
2, 6912, Note_on_c, 0, 64, 0
2, 6913, Note_on_c, 0, 72, 0
2, 6913, Note_on_c, 0, 67, 0
2, 7010, Note_on_c, 0, 74, 68
2, 7010, Note_on_c, 0, 50, 53
2, 7013, Note_on_c, 0, 59, 61
2, 7014, Note_on_c, 0, 47, 10
2, 7014, Note_on_c, 0, 55, 60
2, 7015, Note_on_c, 0, 67, 62
2, 7015, Note_on_c, 0, 62, 53
2, 7032, Note_on_c, 0, 47, 0
2, 7037, Note_on_c, 0, 50, 0
2, 7038, Note_on_c, 0, 67, 0
2, 7038, Note_on_c, 0, 62, 0
2, 7040, Note_on_c, 0, 55, 0
2, 7045, Note_on_c, 0, 59, 0
2, 7047, Note_on_c, 0, 74, 0
2, 7138, Note_on_c, 0, 76, 70
2, 7139, Note_on_c, 0, 60, 76
2, 7140, Note_on_c, 0, 64, 68
2, 7140, Note_on_c, 0, 52, 68
2, 7141, Note_on_c, 0, 67, 61
2, 7141, Note_on_c, 0, 55, 70
2, 7141, Note_on_c, 0, 48, 69
2, 7141, Note_on_c, 0, 72, 70
2, 7164, Note_on_c, 0, 67, 0
2, 7165, Note_on_c, 0, 64, 0
2, 7165, Note_on_c, 0, 60, 0
2, 7166, Note_on_c, 0, 52, 0
2, 7166, Note_on_c, 0, 48, 0
2, 7167, Note_on_c, 0, 72, 0
2, 7167, Note_on_c, 0, 55, 0
2, 7175, Note_on_c, 0, 76, 0
2, 7263, Note_on_c, 0, 77, 70
2, 7265, Note_on_c, 0, 69, 73
2, 7265, Note_on_c, 0, 72, 71
2, 7266, Note_on_c, 0, 41, 63
2, 7266, Note_on_c, 0, 45, 73
2, 7266, Note_on_c, 0, 53, 77
2, 7266, Note_on_c, 0, 50, 83
2, 7267, Note_on_c, 0, 65, 66
2, 7283, Note_on_c, 0, 41, 0
2, 7286, Note_on_c, 0, 45, 0
2, 7286, Note_on_c, 0, 50, 0
2, 7288, Note_on_c, 0, 77, 0
2, 7290, Note_on_c, 0, 69, 0
2, 7290, Note_on_c, 0, 72, 0
2, 7292, Note_on_c, 0, 53, 0
2, 7295, Note_on_c, 0, 65, 0
2, 7398, Note_on_c, 0, 74, 73
2, 7398, Note_on_c, 0, 43, 66
2, 7399, Note_on_c, 0, 55, 78
2, 7399, Note_on_c, 0, 50, 77
2, 7400, Note_on_c, 0, 47, 79
2, 7400, Note_on_c, 0, 71, 76
2, 7401, Note_on_c, 0, 62, 74
2, 7402, Note_on_c, 0, 67, 71
2, 7501, Note_on_c, 0, 62, 0
2, 7506, Note_on_c, 0, 67, 0
2, 7506, Note_on_c, 0, 71, 0
2, 7508, Note_on_c, 0, 74, 0
2, 7535, Note_on_c, 0, 79, 96
2, 7536, Note_on_c, 0, 67, 97
2, 7538, Note_on_c, 0, 47, 0
2, 7540, Note_on_c, 0, 43, 0
2, 7541, Note_on_c, 0, 50, 0
2, 7554, Note_on_c, 0, 55, 0
2, 7602, Note_on_c, 0, 53, 88
2, 7604, Note_on_c, 0, 59, 94
2, 7673, Note_on_c, 0, 53, 0
2, 7674, Note_on_c, 0, 52, 79
2, 7679, Note_on_c, 0, 59, 0
2, 7679, Note_on_c, 0, 60, 101
2, 7804, Note_on_c, 0, 60, 0
2, 7805, Note_on_c, 0, 61, 101
2, 7807, Control_c, 0, 64, 127
2, 7808, Note_on_c, 0, 79, 106
2, 7808, Note_on_c, 0, 70, 106
2, 7817, Note_on_c, 0, 67, 0
2, 7900, Note_on_c, 0, 79, 0
2, 7906, Note_on_c, 0, 52, 0
2, 7934, Note_on_c, 0, 70, 0
2, 7934, Note_on_c, 0, 79, 0
2, 7936, Note_on_c, 0, 53, 85
2, 7936, Control_c, 0, 64, 0
2, 7938, Note_on_c, 0, 69, 85
2, 8071, Note_on_c, 0, 61, 0
2, 8071, Note_on_c, 0, 77, 94
2, 8072, Note_on_c, 0, 62, 85
2, 8078, Control_c, 0, 64, 127
2, 8148, Note_on_c, 0, 77, 0
2, 8154, Note_on_c, 0, 69, 0
2, 8161, Note_on_c, 0, 53, 0
2, 8161, Note_on_c, 0, 62, 0
2, 8212, Control_c, 0, 64, 0
2, 8212, Note_on_c, 0, 55, 77
2, 8213, Note_on_c, 0, 67, 55
2, 8213, Note_on_c, 0, 72, 68
2, 8214, Note_on_c, 0, 76, 64
2, 8241, Note_on_c, 0, 72, 0
2, 8242, Note_on_c, 0, 76, 0
2, 8245, Note_on_c, 0, 67, 0
2, 8252, Note_on_c, 0, 55, 0
2, 8341, Note_on_c, 0, 65, 47
2, 8342, Note_on_c, 0, 43, 63
2, 8342, Note_on_c, 0, 74, 59
2, 8344, Note_on_c, 0, 71, 71
2, 8369, Note_on_c, 0, 71, 0
2, 8369, Note_on_c, 0, 43, 0
2, 8370, Note_on_c, 0, 74, 0
2, 8373, Note_on_c, 0, 65, 0
2, 8482, Note_on_c, 0, 72, 49
2, 8483, Note_on_c, 0, 48, 31
2, 8483, Note_on_c, 0, 64, 48
2, 8484, Note_on_c, 0, 67, 24
2, 8510, Note_on_c, 0, 64, 0
2, 8516, Note_on_c, 0, 67, 0
2, 8517, Note_on_c, 0, 48, 0
2, 8523, Note_on_c, 0, 72, 0
2, 8720, Note_on_c, 0, 43, 64
2, 8722, Note_on_c, 0, 50, 55
2, 8722, Note_on_c, 0, 59, 58
2, 8724, Note_on_c, 0, 53, 74
2, 8744, Note_on_c, 0, 43, 0
2, 8746, Note_on_c, 0, 59, 0
2, 8748, Note_on_c, 0, 50, 0
2, 8748, Note_on_c, 0, 53, 0
2, 8845, Note_on_c, 0, 36, 94
2, 8846, Note_on_c, 0, 60, 96
2, 8848, Note_on_c, 0, 55, 99
2, 8848, Note_on_c, 0, 52, 99
2, 8873, Note_on_c, 0, 52, 0
2, 8873, Note_on_c, 0, 36, 0
2, 8875, Note_on_c, 0, 55, 0
2, 8876, Note_on_c, 0, 60, 0
2, 8978, Note_on_c, 0, 52, 24
2, 8981, Note_on_c, 0, 45, 60
2, 8982, Note_on_c, 0, 55, 68
2, 8982, Note_on_c, 0, 61, 79
2, 9009, Note_on_c, 0, 61, 0
2, 9011, Note_on_c, 0, 52, 0
2, 9012, Note_on_c, 0, 55, 0
2, 9013, Note_on_c, 0, 45, 0
2, 9106, Note_on_c, 0, 38, 92
2, 9106, Note_on_c, 0, 62, 95
2, 9108, Note_on_c, 0, 57, 101
2, 9108, Note_on_c, 0, 53, 100
2, 9135, Note_on_c, 0, 53, 0
2, 9135, Note_on_c, 0, 38, 0
2, 9137, Note_on_c, 0, 57, 0
2, 9139, Note_on_c, 0, 62, 0
2, 9234, Note_on_c, 0, 54, 64
2, 9235, Note_on_c, 0, 63, 57
2, 9238, Note_on_c, 0, 57, 78
2, 9238, Note_on_c, 0, 47, 86
2, 9257, Note_on_c, 0, 63, 0
2, 9259, Note_on_c, 0, 54, 0
2, 9260, Note_on_c, 0, 57, 0
2, 9264, Note_on_c, 0, 47, 0
2, 9361, Note_on_c, 0, 40, 92
2, 9363, Note_on_c, 0, 64, 94
2, 9363, Note_on_c, 0, 59, 100
2, 9364, Note_on_c, 0, 55, 100
2, 9394, Note_on_c, 0, 55, 0
2, 9396, Note_on_c, 0, 40, 0
2, 9397, Note_on_c, 0, 64, 0
2, 9398, Note_on_c, 0, 59, 0
2, 9500, Note_on_c, 0, 38, 102
2, 9501, Note_on_c, 0, 50, 101
2, 9501, Note_on_c, 0, 55, 100
2, 9501, Note_on_c, 0, 65, 96
2, 9502, Note_on_c, 0, 59, 103
2, 9513, Control_c, 0, 64, 127
2, 9626, Note_on_c, 0, 38, 0
2, 9651, Note_on_c, 0, 50, 0
2, 9724, Control_c, 0, 64, 0
2, 9769, Note_on_c, 0, 36, 70
2, 9843, Note_on_c, 0, 65, 0
2, 9846, Note_on_c, 0, 55, 0
2, 9853, Note_on_c, 0, 59, 0
2, 9886, Note_on_c, 0, 48, 71
2, 9886, Note_on_c, 0, 60, 81
2, 9888, Note_on_c, 0, 55, 63
2, 9888, Note_on_c, 0, 64, 69
2, 9892, Note_on_c, 0, 36, 0
2, 9986, Note_on_c, 0, 64, 0
2, 9987, Note_on_c, 0, 60, 0
2, 9994, Note_on_c, 0, 55, 0
2, 10018, Note_on_c, 0, 45, 73
2, 10019, Note_on_c, 0, 62, 62
2, 10022, Note_on_c, 0, 53, 87
2, 10023, Note_on_c, 0, 60, 66
2, 10032, Note_on_c, 0, 48, 0
2, 10104, Note_on_c, 0, 53, 0
2, 10113, Note_on_c, 0, 60, 0
2, 10118, Note_on_c, 0, 62, 0
2, 10146, Note_on_c, 0, 45, 0
2, 10147, Note_on_c, 0, 57, 76
2, 10148, Note_on_c, 0, 62, 80
2, 10148, Note_on_c, 0, 65, 77
2, 10150, Note_on_c, 0, 41, 61
2, 10232, Note_on_c, 0, 65, 0
2, 10233, Note_on_c, 0, 62, 0
2, 10236, Note_on_c, 0, 57, 0
2, 10268, Note_on_c, 0, 41, 0
2, 10272, Note_on_c, 0, 60, 71
2, 10272, Note_on_c, 0, 55, 75
2, 10272, Note_on_c, 0, 64, 60
2, 10274, Note_on_c, 0, 43, 57
2, 10306, Note_on_c, 0, 60, 0
2, 10308, Note_on_c, 0, 55, 0
2, 10308, Note_on_c, 0, 64, 0
2, 10312, Note_on_c, 0, 43, 0
2, 10404, Note_on_c, 0, 53, 53
2, 10404, Note_on_c, 0, 31, 67
2, 10404, Note_on_c, 0, 59, 71
2, 10405, Note_on_c, 0, 62, 69
2, 10428, Note_on_c, 0, 31, 0
2, 10432, Note_on_c, 0, 59, 0
2, 10436, Note_on_c, 0, 62, 0
2, 10438, Note_on_c, 0, 53, 0
2, 10537, Note_on_c, 0, 52, 31
2, 10537, Note_on_c, 0, 36, 53
2, 10539, Note_on_c, 0, 55, 56
2, 10542, Note_on_c, 0, 60, 60
2, 10616, Note_on_c, 0, 52, 0
2, 10617, Note_on_c, 0, 55, 0
2, 10643, Note_on_c, 0, 36, 0
2, 10644, Note_on_c, 0, 60, 0
2, 10755, Note_on_c, 0, 67, 46
2, 10792, Note_on_c, 0, 72, 69
2, 10795, Note_on_c, 0, 79, 66
2, 10796, Note_on_c, 0, 64, 76
2, 10904, Note_on_c, 0, 79, 0
2, 10911, Note_on_c, 0, 67, 0
2, 10913, Note_on_c, 0, 72, 0
2, 10913, Note_on_c, 0, 64, 0
2, 10924, Note_on_c, 0, 67, 12
2, 10925, Note_on_c, 0, 71, 71
2, 10925, Note_on_c, 0, 77, 69
2, 10926, Note_on_c, 0, 62, 72
2, 11035, Note_on_c, 0, 71, 0
2, 11044, Note_on_c, 0, 62, 0
2, 11049, Note_on_c, 0, 77, 0
2, 11050, Note_on_c, 0, 67, 0
2, 11059, Note_on_c, 0, 67, 15
2, 11061, Note_on_c, 0, 76, 66
2, 11061, Note_on_c, 0, 60, 83
2, 11062, Note_on_c, 0, 72, 58
2, 11162, Note_on_c, 0, 60, 0
2, 11165, Note_on_c, 0, 72, 0
2, 11167, Note_on_c, 0, 76, 0
2, 11171, Note_on_c, 0, 67, 0
2, 11185, Note_on_c, 0, 67, 63
2, 11188, Note_on_c, 0, 58, 96
2, 11190, Note_on_c, 0, 72, 53
2, 11192, Note_on_c, 0, 76, 83
2, 11208, Note_on_c, 0, 77, 80
2, 11209, Note_on_c, 0, 76, 0
2, 11223, Note_on_c, 0, 76, 81
2, 11224, Note_on_c, 0, 77, 0
2, 11238, Note_on_c, 0, 77, 78
2, 11239, Note_on_c, 0, 76, 0
2, 11251, Note_on_c, 0, 76, 83
2, 11252, Note_on_c, 0, 77, 0
2, 11264, Note_on_c, 0, 74, 79
2, 11276, Note_on_c, 0, 67, 0
2, 11276, Note_on_c, 0, 76, 0
2, 11284, Note_on_c, 0, 58, 0
2, 11289, Note_on_c, 0, 76, 86
2, 11291, Note_on_c, 0, 74, 0
2, 11308, Note_on_c, 0, 65, 53
2, 11309, Note_on_c, 0, 84, 88
2, 11309, Note_on_c, 0, 57, 83
2, 11313, Note_on_c, 0, 76, 0
2, 11418, Note_on_c, 0, 65, 0
2, 11420, Note_on_c, 0, 57, 0
2, 11422, Note_on_c, 0, 84, 0
2, 11427, Note_on_c, 0, 72, 0
2, 11442, Note_on_c, 0, 64, 72
2, 11443, Note_on_c, 0, 55, 83
2, 11444, Note_on_c, 0, 72, 74
2, 11444, Note_on_c, 0, 82, 95
2, 11561, Note_on_c, 0, 82, 0
2, 11564, Note_on_c, 0, 55, 0
2, 11566, Note_on_c, 0, 72, 0
2, 11566, Note_on_c, 0, 64, 0
2, 11587, Note_on_c, 0, 81, 77
2, 11587, Note_on_c, 0, 72, 76
2, 11588, Note_on_c, 0, 53, 83
2, 11588, Note_on_c, 0, 65, 77
2, 11796, Note_on_c, 0, 81, 0
2, 11823, Note_on_c, 0, 69, 100
2, 11826, Note_on_c, 0, 65, 0
2, 11830, Note_on_c, 0, 72, 0
2, 11842, Note_on_c, 0, 69, 0
2, 11847, Note_on_c, 0, 53, 0
2, 11855, Note_on_c, 0, 69, 86
2, 11856, Note_on_c, 0, 53, 73
2, 11858, Note_on_c, 0, 60, 90
2, 11859, Note_on_c, 0, 81, 96
2, 11952, Note_on_c, 0, 60, 0
2, 11966, Note_on_c, 0, 53, 0
2, 11972, Note_on_c, 0, 69, 0
2, 11973, Note_on_c, 0, 81, 0
2, 11986, Note_on_c, 0, 69, 74
2, 11986, Note_on_c, 0, 61, 98
2, 11987, Note_on_c, 0, 79, 83
2, 11988, Note_on_c, 0, 52, 86
2, 12078, Note_on_c, 0, 61, 0
2, 12092, Note_on_c, 0, 79, 0
2, 12099, Note_on_c, 0, 69, 0
2, 12110, Note_on_c, 0, 52, 0
2, 12113, Note_on_c, 0, 50, 86
2, 12113, Note_on_c, 0, 77, 73
2, 12114, Note_on_c, 0, 74, 71
2, 12115, Note_on_c, 0, 69, 57
2, 12209, Note_on_c, 0, 74, 0
2, 12209, Note_on_c, 0, 77, 0
2, 12214, Note_on_c, 0, 69, 0
2, 12238, Note_on_c, 0, 73, 92
2, 12239, Note_on_c, 0, 50, 0
2, 12239, Note_on_c, 0, 52, 80
2, 12240, Note_on_c, 0, 76, 73
2, 12241, Note_on_c, 0, 67, 88
2, 12334, Note_on_c, 0, 73, 0
2, 12336, Note_on_c, 0, 76, 0
2, 12338, Note_on_c, 0, 67, 0
2, 12360, Note_on_c, 0, 52, 0
2, 12363, Note_on_c, 0, 53, 77
2, 12364, Note_on_c, 0, 69, 87
2, 12364, Note_on_c, 0, 74, 76
2, 12365, Note_on_c, 0, 65, 84
2, 12453, Note_on_c, 0, 69, 0
2, 12465, Note_on_c, 0, 74, 0
2, 12467, Note_on_c, 0, 65, 0
2, 12495, Note_on_c, 0, 69, 76
2, 12498, Note_on_c, 0, 54, 94
2, 12498, Note_on_c, 0, 63, 94
2, 12500, Note_on_c, 0, 53, 0
2, 12500, Note_on_c, 0, 72, 70
2, 12616, Note_on_c, 0, 63, 0
2, 12620, Note_on_c, 0, 69, 0
2, 12641, Note_on_c, 0, 67, 55
2, 12642, Note_on_c, 0, 55, 62
2, 12642, Note_on_c, 0, 62, 75
2, 12643, Note_on_c, 0, 54, 0
2, 12756, Note_on_c, 0, 55, 0
2, 12766, Note_on_c, 0, 67, 0
2, 12768, Note_on_c, 0, 62, 0
2, 12775, Note_on_c, 0, 72, 0
2, 12786, Note_on_c, 0, 67, 80
2, 12787, Note_on_c, 0, 71, 79
2, 12892, Note_on_c, 0, 65, 61
2, 12908, Note_on_c, 0, 67, 0
2, 12920, Note_on_c, 0, 71, 0
2, 12933, Note_on_c, 0, 72, 57
2, 12936, Note_on_c, 0, 64, 69
2, 12937, Note_on_c, 0, 67, 66
2, 12938, Note_on_c, 0, 65, 0
2, 12963, Note_on_c, 0, 67, 0
2, 12968, Note_on_c, 0, 64, 0
2, 12968, Note_on_c, 0, 72, 0
2, 13060, Note_on_c, 0, 62, 66
2, 13062, Note_on_c, 0, 67, 44
2, 13062, Note_on_c, 0, 71, 49
2, 13063, Note_on_c, 0, 65, 31
2, 13090, Note_on_c, 0, 62, 0
2, 13091, Note_on_c, 0, 65, 0
2, 13092, Note_on_c, 0, 67, 0
2, 13096, Note_on_c, 0, 71, 0
2, 13180, Note_on_c, 0, 60, 81
2, 13182, Note_on_c, 0, 72, 67
2, 13183, Note_on_c, 0, 64, 56
2, 13185, Note_on_c, 0, 67, 62
2, 13209, Note_on_c, 0, 60, 0
2, 13213, Note_on_c, 0, 67, 0
2, 13214, Note_on_c, 0, 64, 0
2, 13214, Note_on_c, 0, 72, 0
2, 13308, Note_on_c, 0, 47, 70
2, 13309, Note_on_c, 0, 55, 66
2, 13311, Note_on_c, 0, 50, 69
2, 13311, Note_on_c, 0, 74, 55
2, 13312, Note_on_c, 0, 62, 62
2, 13314, Note_on_c, 0, 67, 66
2, 13316, Note_on_c, 0, 59, 58
2, 13338, Note_on_c, 0, 47, 0
2, 13339, Note_on_c, 0, 62, 0
2, 13339, Note_on_c, 0, 50, 0
2, 13340, Note_on_c, 0, 55, 0
2, 13340, Note_on_c, 0, 67, 0
2, 13345, Note_on_c, 0, 59, 0
2, 13348, Note_on_c, 0, 74, 0
2, 13428, Note_on_c, 0, 76, 59
2, 13432, Note_on_c, 0, 64, 57
2, 13432, Note_on_c, 0, 67, 63
2, 13433, Note_on_c, 0, 72, 68
2, 13434, Note_on_c, 0, 60, 80
2, 13434, Note_on_c, 0, 55, 69
2, 13435, Note_on_c, 0, 52, 74
2, 13435, Note_on_c, 0, 48, 73
2, 13456, Note_on_c, 0, 67, 0
2, 13457, Note_on_c, 0, 72, 0
2, 13457, Note_on_c, 0, 64, 0
2, 13458, Note_on_c, 0, 60, 0
2, 13458, Note_on_c, 0, 52, 0
2, 13459, Note_on_c, 0, 55, 0
2, 13461, Note_on_c, 0, 48, 0
2, 13467, Note_on_c, 0, 76, 0
2, 13556, Note_on_c, 0, 41, 57
2, 13557, Note_on_c, 0, 77, 64
2, 13558, Note_on_c, 0, 69, 63
2, 13558, Note_on_c, 0, 53, 69
2, 13559, Note_on_c, 0, 50, 78
2, 13559, Note_on_c, 0, 45, 68
2, 13559, Note_on_c, 0, 72, 59
2, 13560, Note_on_c, 0, 65, 57
2, 13579, Note_on_c, 0, 50, 0
2, 13579, Note_on_c, 0, 41, 0
2, 13581, Note_on_c, 0, 45, 0
2, 13582, Note_on_c, 0, 77, 0
2, 13583, Note_on_c, 0, 72, 0
2, 13584, Note_on_c, 0, 69, 0
2, 13590, Note_on_c, 0, 53, 0
2, 13590, Note_on_c, 0, 65, 0
2, 13682, Note_on_c, 0, 74, 58
2, 13682, Note_on_c, 0, 71, 62
2, 13682, Note_on_c, 0, 55, 69
2, 13683, Note_on_c, 0, 62, 78
2, 13683, Note_on_c, 0, 67, 67
2, 13683, Note_on_c, 0, 50, 79
2, 13684, Note_on_c, 0, 47, 62
2, 13685, Note_on_c, 0, 43, 51
2, 13766, Note_on_c, 0, 62, 0
2, 13775, Note_on_c, 0, 71, 0
2, 13776, Note_on_c, 0, 67, 0
2, 13781, Note_on_c, 0, 74, 0
2, 13803, Note_on_c, 0, 47, 0
2, 13804, Note_on_c, 0, 43, 0
2, 13808, Note_on_c, 0, 50, 0
2, 13812, Note_on_c, 0, 79, 97
2, 13812, Note_on_c, 0, 67, 99
2, 13820, Note_on_c, 0, 55, 0
2, 13879, Note_on_c, 0, 53, 85
2, 13879, Note_on_c, 0, 59, 92
2, 13936, Note_on_c, 0, 53, 0
2, 13944, Note_on_c, 0, 59, 0
2, 13947, Note_on_c, 0, 52, 85
2, 13951, Note_on_c, 0, 60, 101
2, 14068, Note_on_c, 0, 52, 0
2, 14070, Note_on_c, 0, 60, 0
2, 14071, Note_on_c, 0, 67, 0
2, 14075, Note_on_c, 0, 79, 0
2, 14079, Note_on_c, 0, 79, 86
2, 14080, Note_on_c, 0, 61, 105
2, 14081, Note_on_c, 0, 52, 88
2, 14081, Note_on_c, 0, 70, 107
2, 14145, Control_c, 0, 64, 127
2, 14156, Control_c, 0, 64, 0
2, 14178, Note_on_c, 0, 52, 0
2, 14215, Note_on_c, 0, 70, 0
2, 14218, Note_on_c, 0, 53, 80
2, 14220, Note_on_c, 0, 69, 87
2, 14348, Note_on_c, 0, 61, 0
2, 14353, Note_on_c, 0, 77, 90
2, 14355, Note_on_c, 0, 62, 84
2, 14361, Note_on_c, 0, 79, 0
2, 14363, Control_c, 0, 64, 127
2, 14414, Note_on_c, 0, 77, 0
2, 14420, Note_on_c, 0, 53, 0
2, 14421, Note_on_c, 0, 69, 0
2, 14425, Note_on_c, 0, 62, 0
2, 14482, Control_c, 0, 64, 0
2, 14490, Note_on_c, 0, 55, 67
2, 14494, Note_on_c, 0, 76, 74
2, 14494, Note_on_c, 0, 67, 59
2, 14494, Note_on_c, 0, 72, 72
2, 14526, Note_on_c, 0, 72, 0
2, 14526, Note_on_c, 0, 76, 0
2, 14529, Note_on_c, 0, 67, 0
2, 14531, Note_on_c, 0, 55, 0
2, 14615, Note_on_c, 0, 43, 57
2, 14618, Note_on_c, 0, 65, 47
2, 14619, Note_on_c, 0, 74, 63
2, 14620, Note_on_c, 0, 71, 67
2, 14648, Note_on_c, 0, 43, 0
2, 14649, Note_on_c, 0, 71, 0
2, 14650, Note_on_c, 0, 74, 0
2, 14651, Note_on_c, 0, 65, 0
2, 14742, Note_on_c, 0, 72, 55
2, 14745, Note_on_c, 0, 48, 68
2, 14747, Note_on_c, 0, 64, 38
2, 14748, Note_on_c, 0, 67, 45
2, 14792, Note_on_c, 0, 64, 0
2, 14792, Note_on_c, 0, 48, 0
2, 14793, Note_on_c, 0, 72, 0
2, 14795, Note_on_c, 0, 67, 0
2, 14970, Note_on_c, 0, 43, 47
2, 14972, Note_on_c, 0, 50, 10
2, 14973, Note_on_c, 0, 53, 35
2, 14975, Note_on_c, 0, 59, 41
2, 15001, Note_on_c, 0, 43, 0
2, 15004, Note_on_c, 0, 53, 0
2, 15006, Note_on_c, 0, 50, 0
2, 15011, Note_on_c, 0, 59, 0
2, 15091, Note_on_c, 0, 36, 89
2, 15092, Note_on_c, 0, 60, 99
2, 15093, Note_on_c, 0, 55, 102
2, 15093, Note_on_c, 0, 52, 101
2, 15122, Note_on_c, 0, 52, 0
2, 15124, Note_on_c, 0, 55, 0
2, 15124, Note_on_c, 0, 60, 0
2, 15125, Note_on_c, 0, 36, 0
2, 15214, Note_on_c, 0, 52, 31
2, 15215, Note_on_c, 0, 61, 86
2, 15215, Note_on_c, 0, 55, 72
2, 15216, Note_on_c, 0, 45, 61
2, 15244, Note_on_c, 0, 45, 0
2, 15249, Note_on_c, 0, 55, 0
2, 15250, Note_on_c, 0, 61, 0
2, 15250, Note_on_c, 0, 52, 0
2, 15340, Note_on_c, 0, 62, 94
2, 15340, Note_on_c, 0, 38, 94
2, 15340, Note_on_c, 0, 57, 100
2, 15341, Note_on_c, 0, 53, 98
2, 15369, Note_on_c, 0, 53, 0
2, 15372, Note_on_c, 0, 38, 0
2, 15374, Note_on_c, 0, 57, 0
2, 15374, Note_on_c, 0, 62, 0
2, 15466, Note_on_c, 0, 63, 60
2, 15466, Note_on_c, 0, 54, 58
2, 15470, Note_on_c, 0, 47, 69
2, 15474, Note_on_c, 0, 57, 60
2, 15494, Note_on_c, 0, 57, 0
2, 15496, Note_on_c, 0, 63, 0
2, 15496, Note_on_c, 0, 54, 0
2, 15500, Note_on_c, 0, 47, 0
2, 15587, Note_on_c, 0, 40, 99
2, 15588, Note_on_c, 0, 64, 97
2, 15588, Note_on_c, 0, 55, 102
2, 15589, Note_on_c, 0, 59, 102
2, 15624, Note_on_c, 0, 55, 0
2, 15625, Note_on_c, 0, 59, 0
2, 15625, Note_on_c, 0, 40, 0
2, 15627, Note_on_c, 0, 64, 0
2, 15718, Note_on_c, 0, 50, 80
2, 15718, Note_on_c, 0, 38, 79
2, 15720, Note_on_c, 0, 59, 97
2, 15720, Note_on_c, 0, 65, 87
2, 15720, Note_on_c, 0, 55, 94
2, 15804, Control_c, 0, 64, 127
2, 15878, Note_on_c, 0, 38, 0
2, 15911, Note_on_c, 0, 50, 0
2, 15966, Control_c, 0, 64, 0
2, 15978, Note_on_c, 0, 36, 60
2, 16080, Note_on_c, 0, 55, 0
2, 16082, Note_on_c, 0, 65, 0
2, 16090, Note_on_c, 0, 59, 0
2, 16109, Note_on_c, 0, 48, 74
2, 16111, Note_on_c, 0, 36, 0
2, 16112, Note_on_c, 0, 55, 70
2, 16112, Note_on_c, 0, 60, 87
2, 16113, Note_on_c, 0, 64, 77
2, 16204, Note_on_c, 0, 64, 0
2, 16208, Note_on_c, 0, 60, 0
2, 16214, Note_on_c, 0, 55, 0
2, 16231, Note_on_c, 0, 45, 39
2, 16236, Note_on_c, 0, 48, 0
2, 16244, Note_on_c, 0, 53, 61
2, 16244, Note_on_c, 0, 62, 46
2, 16246, Note_on_c, 0, 60, 75
2, 16333, Note_on_c, 0, 53, 0
2, 16337, Note_on_c, 0, 60, 0
2, 16341, Note_on_c, 0, 62, 0
2, 16360, Note_on_c, 0, 45, 0
2, 16362, Note_on_c, 0, 41, 24
2, 16367, Note_on_c, 0, 65, 78
2, 16368, Note_on_c, 0, 57, 79
2, 16368, Note_on_c, 0, 62, 81
2, 16456, Note_on_c, 0, 62, 0
2, 16457, Note_on_c, 0, 65, 0
2, 16460, Note_on_c, 0, 57, 0
2, 16484, Note_on_c, 0, 41, 0
2, 16491, Note_on_c, 0, 64, 53
2, 16492, Note_on_c, 0, 43, 58
2, 16492, Note_on_c, 0, 60, 66
2, 16494, Note_on_c, 0, 55, 69
2, 16522, Note_on_c, 0, 64, 0
2, 16523, Note_on_c, 0, 60, 0
2, 16527, Note_on_c, 0, 55, 0
2, 16530, Note_on_c, 0, 43, 0
2, 16617, Note_on_c, 0, 53, 49
2, 16618, Note_on_c, 0, 31, 64
2, 16620, Note_on_c, 0, 62, 64
2, 16620, Note_on_c, 0, 59, 66
2, 16648, Note_on_c, 0, 31, 0
2, 16654, Note_on_c, 0, 59, 0
2, 16656, Note_on_c, 0, 62, 0
2, 16657, Note_on_c, 0, 53, 0
2, 16747, Note_on_c, 0, 36, 50
2, 16750, Note_on_c, 0, 55, 42
2, 16751, Note_on_c, 0, 52, 25
2, 16753, Note_on_c, 0, 60, 55
2, 16829, Note_on_c, 0, 52, 0
2, 16833, Note_on_c, 0, 55, 0
2, 16839, Note_on_c, 0, 36, 0
2, 16852, Note_on_c, 0, 60, 0
2, 16939, Note_on_c, 0, 55, 61
2, 16990, Note_on_c, 0, 55, 0
2, 16994, Note_on_c, 0, 52, 75
2, 16996, Note_on_c, 0, 60, 78
2, 17076, Note_on_c, 0, 79, 91
2, 17113, Note_on_c, 0, 52, 0
2, 17127, Note_on_c, 0, 60, 0
2, 17130, Note_on_c, 0, 59, 77
2, 17133, Note_on_c, 0, 53, 75
2, 17163, Note_on_c, 0, 79, 0
2, 17204, Note_on_c, 0, 79, 90
2, 17254, Note_on_c, 0, 53, 0
2, 17265, Note_on_c, 0, 52, 77
2, 17266, Note_on_c, 0, 59, 0
2, 17268, Note_on_c, 0, 60, 86
2, 17286, Note_on_c, 0, 79, 0
2, 17333, Note_on_c, 0, 79, 88
2, 17356, Note_on_c, 0, 52, 0
2, 17384, Note_on_c, 0, 60, 0
2, 17393, Note_on_c, 0, 59, 66
2, 17396, Note_on_c, 0, 62, 78
2, 17424, Note_on_c, 0, 79, 0
2, 17461, Note_on_c, 0, 79, 86
2, 17507, Note_on_c, 0, 59, 0
2, 17510, Note_on_c, 0, 62, 0
2, 17520, Note_on_c, 0, 60, 77
2, 17522, Note_on_c, 0, 64, 72
2, 17540, Note_on_c, 0, 79, 0
2, 17584, Note_on_c, 0, 79, 86
2, 17622, Note_on_c, 0, 64, 0
2, 17629, Note_on_c, 0, 60, 0
2, 17646, Note_on_c, 0, 62, 81
2, 17646, Note_on_c, 0, 65, 70
2, 17669, Note_on_c, 0, 79, 0
2, 17712, Note_on_c, 0, 79, 62
2, 17746, Note_on_c, 0, 62, 0
2, 17757, Note_on_c, 0, 65, 0
2, 17776, Note_on_c, 0, 59, 76
2, 17779, Note_on_c, 0, 62, 75
2, 17789, Note_on_c, 0, 79, 0
2, 17842, Note_on_c, 0, 79, 75
2, 17885, Note_on_c, 0, 79, 0
2, 17911, Note_on_c, 0, 79, 76
2, 17944, Note_on_c, 0, 79, 0
2, 17979, Note_on_c, 0, 79, 76
2, 18002, Note_on_c, 0, 59, 0
2, 18018, Note_on_c, 0, 62, 0
2, 18034, Note_on_c, 0, 64, 67
2, 18038, Note_on_c, 0, 67, 61
2, 18039, Note_on_c, 0, 79, 0
2, 18107, Note_on_c, 0, 79, 80
2, 18146, Note_on_c, 0, 67, 0
2, 18146, Note_on_c, 0, 64, 0
2, 18168, Note_on_c, 0, 62, 77
2, 18169, Note_on_c, 0, 67, 64
2, 18226, Note_on_c, 0, 79, 0
2, 18235, Note_on_c, 0, 77, 91
2, 18270, Note_on_c, 0, 62, 0
2, 18272, Note_on_c, 0, 67, 0
2, 18296, Note_on_c, 0, 67, 65
2, 18297, Note_on_c, 0, 60, 79
2, 18365, Note_on_c, 0, 76, 91
2, 18375, Note_on_c, 0, 77, 0
2, 18400, Note_on_c, 0, 60, 0
2, 18405, Note_on_c, 0, 67, 0
2, 18428, Note_on_c, 0, 68, 94
2, 18432, Note_on_c, 0, 59, 76
2, 18494, Note_on_c, 0, 74, 57
2, 18498, Note_on_c, 0, 76, 0
2, 18532, Note_on_c, 0, 68, 0
2, 18536, Note_on_c, 0, 59, 0
2, 18560, Note_on_c, 0, 69, 70
2, 18562, Note_on_c, 0, 57, 71
2, 18632, Note_on_c, 0, 72, 95
2, 18640, Note_on_c, 0, 74, 0
2, 18660, Note_on_c, 0, 69, 0
2, 18671, Note_on_c, 0, 57, 0
2, 18690, Note_on_c, 0, 69, 68
2, 18694, Note_on_c, 0, 53, 69
2, 18763, Note_on_c, 0, 72, 0
2, 18763, Note_on_c, 0, 74, 79
2, 18824, Note_on_c, 0, 74, 0
2, 18825, Note_on_c, 0, 55, 78
2, 18826, Note_on_c, 0, 53, 0
2, 18826, Note_on_c, 0, 72, 72
2, 18827, Note_on_c, 0, 62, 84
2, 18832, Note_on_c, 0, 69, 0
2, 18892, Note_on_c, 0, 71, 80
2, 18905, Note_on_c, 0, 72, 0
2, 18955, Note_on_c, 0, 69, 69
2, 18966, Note_on_c, 0, 71, 0
2, 19012, Note_on_c, 0, 69, 0
2, 19020, Note_on_c, 0, 67, 62
2, 19054, Note_on_c, 0, 62, 0
2, 19058, Note_on_c, 0, 55, 0
2, 19078, Note_on_c, 0, 52, 72
2, 19081, Note_on_c, 0, 67, 0
2, 19082, Note_on_c, 0, 79, 79
2, 19083, Note_on_c, 0, 60, 80
2, 19114, Note_on_c, 0, 79, 0
2, 19154, Note_on_c, 0, 79, 88
2, 19190, Note_on_c, 0, 52, 0
2, 19205, Note_on_c, 0, 60, 0
2, 19210, Note_on_c, 0, 53, 69
2, 19211, Note_on_c, 0, 59, 71
2, 19238, Note_on_c, 0, 79, 0
2, 19278, Note_on_c, 0, 79, 98
2, 19326, Note_on_c, 0, 53, 0
2, 19327, Note_on_c, 0, 59, 0
2, 19333, Note_on_c, 0, 52, 69
2, 19338, Note_on_c, 0, 60, 77
2, 19370, Note_on_c, 0, 79, 0
2, 19408, Note_on_c, 0, 79, 92
2, 19438, Note_on_c, 0, 52, 0
2, 19463, Note_on_c, 0, 60, 0
2, 19474, Note_on_c, 0, 62, 71
2, 19476, Note_on_c, 0, 59, 73
2, 19509, Note_on_c, 0, 79, 0
2, 19543, Note_on_c, 0, 79, 91
2, 19584, Note_on_c, 0, 59, 0
2, 19588, Note_on_c, 0, 62, 0
2, 19598, Note_on_c, 0, 60, 77
2, 19604, Note_on_c, 0, 64, 56
2, 19638, Note_on_c, 0, 79, 0
2, 19668, Note_on_c, 0, 84, 97
2, 19694, Note_on_c, 0, 84, 0
2, 19703, Note_on_c, 0, 60, 0
2, 19705, Note_on_c, 0, 64, 0
2, 19724, Note_on_c, 0, 66, 92
2, 19727, Note_on_c, 0, 57, 72
2, 19727, Note_on_c, 0, 84, 99
2, 19752, Note_on_c, 0, 84, 0
2, 19789, Note_on_c, 0, 84, 98
2, 19812, Note_on_c, 0, 84, 0
2, 19818, Note_on_c, 0, 57, 0
2, 19832, Note_on_c, 0, 66, 0
2, 19848, Note_on_c, 0, 59, 81
2, 19849, Note_on_c, 0, 67, 73
2, 19852, Note_on_c, 0, 84, 96
2, 19914, Note_on_c, 0, 84, 0
2, 19917, Note_on_c, 0, 83, 79
2, 19984, Note_on_c, 0, 81, 76
2, 19986, Note_on_c, 0, 83, 0
2, 20041, Note_on_c, 0, 81, 0
2, 20050, Note_on_c, 0, 79, 62
2, 20085, Note_on_c, 0, 59, 0
2, 20093, Note_on_c, 0, 67, 0
2, 20113, Note_on_c, 0, 60, 89
2, 20116, Note_on_c, 0, 69, 74
2, 20148, Note_on_c, 0, 79, 0
2, 20180, Note_on_c, 0, 88, 98
2, 20208, Note_on_c, 0, 88, 0
2, 20212, Note_on_c, 0, 60, 0
2, 20220, Note_on_c, 0, 69, 0
2, 20238, Note_on_c, 0, 70, 83
2, 20238, Note_on_c, 0, 61, 92
2, 20240, Note_on_c, 0, 88, 98
2, 20266, Note_on_c, 0, 88, 0
2, 20306, Note_on_c, 0, 88, 91
2, 20326, Note_on_c, 0, 88, 0
2, 20330, Note_on_c, 0, 61, 0
2, 20351, Note_on_c, 0, 70, 0
2, 20362, Note_on_c, 0, 62, 83
2, 20364, Note_on_c, 0, 71, 76
2, 20368, Note_on_c, 0, 88, 99
2, 20433, Note_on_c, 0, 86, 88
2, 20444, Note_on_c, 0, 88, 0
2, 20496, Note_on_c, 0, 85, 89
2, 20510, Note_on_c, 0, 86, 0
2, 20559, Note_on_c, 0, 85, 0
2, 20560, Note_on_c, 0, 86, 72
2, 20596, Note_on_c, 0, 62, 0
2, 20598, Note_on_c, 0, 71, 0
2, 20619, Note_on_c, 0, 62, 75
2, 20623, Note_on_c, 0, 72, 63
2, 20681, Note_on_c, 0, 86, 0
2, 20685, Note_on_c, 0, 74, 69
2, 20735, Note_on_c, 0, 62, 0
2, 20741, Note_on_c, 0, 72, 0
2, 20748, Note_on_c, 0, 76, 87
2, 20750, Note_on_c, 0, 62, 73
2, 20751, Note_on_c, 0, 74, 0
2, 20752, Note_on_c, 0, 69, 67
2, 20822, Note_on_c, 0, 78, 94
2, 20829, Note_on_c, 0, 76, 0
2, 20860, Note_on_c, 0, 62, 0
2, 20860, Note_on_c, 0, 69, 0
2, 20889, Note_on_c, 0, 55, 69
2, 20890, Note_on_c, 0, 67, 76
2, 20946, Note_on_c, 0, 78, 0
2, 20959, Note_on_c, 0, 79, 72
2, 21024, Note_on_c, 0, 74, 52
2, 21035, Note_on_c, 0, 79, 0
2, 21093, Note_on_c, 0, 74, 0
2, 21095, Note_on_c, 0, 71, 49
2, 21137, Note_on_c, 0, 55, 0
2, 21138, Note_on_c, 0, 67, 0
2, 21158, Note_on_c, 0, 64, 57
2, 21159, Note_on_c, 0, 67, 72
2, 21186, Note_on_c, 0, 71, 0
2, 21228, Note_on_c, 0, 79, 69
2, 21259, Note_on_c, 0, 67, 0
2, 21270, Note_on_c, 0, 64, 0
2, 21292, Note_on_c, 0, 65, 70
2, 21292, Note_on_c, 0, 62, 70
2, 21334, Note_on_c, 0, 79, 0
2, 21370, Note_on_c, 0, 79, 79
2, 21408, Note_on_c, 0, 62, 0
2, 21412, Note_on_c, 0, 65, 0
2, 21433, Note_on_c, 0, 64, 73
2, 21433, Note_on_c, 0, 60, 76
2, 21473, Note_on_c, 0, 79, 0
2, 21504, Note_on_c, 0, 79, 67
2, 21527, Note_on_c, 0, 60, 0
2, 21549, Note_on_c, 0, 64, 0
2, 21567, Note_on_c, 0, 58, 77
2, 21567, Note_on_c, 0, 64, 85
2, 21597, Note_on_c, 0, 79, 0
2, 21638, Note_on_c, 0, 79, 80
2, 21670, Note_on_c, 0, 64, 0
2, 21680, Note_on_c, 0, 58, 0
2, 21700, Note_on_c, 0, 72, 76
2, 21700, Note_on_c, 0, 60, 91
2, 21706, Note_on_c, 0, 57, 73
2, 21764, Note_on_c, 0, 79, 0
2, 21773, Note_on_c, 0, 77, 80
2, 21816, Note_on_c, 0, 60, 0
2, 21823, Note_on_c, 0, 57, 0
2, 21832, Note_on_c, 0, 70, 77
2, 21835, Note_on_c, 0, 55, 77
2, 21836, Note_on_c, 0, 60, 83
2, 21843, Note_on_c, 0, 72, 0
2, 21893, Note_on_c, 0, 77, 0
2, 21902, Note_on_c, 0, 76, 89
2, 21951, Note_on_c, 0, 55, 0
2, 21955, Note_on_c, 0, 60, 0
2, 21962, Note_on_c, 0, 70, 0
2, 21965, Note_on_c, 0, 69, 81
2, 21966, Note_on_c, 0, 53, 86
2, 21967, Note_on_c, 0, 60, 89
2, 22035, Note_on_c, 0, 77, 95
2, 22040, Note_on_c, 0, 76, 0
2, 22088, Note_on_c, 0, 77, 0
2, 22096, Note_on_c, 0, 79, 77
2, 22158, Note_on_c, 0, 80, 101
2, 22159, Note_on_c, 0, 79, 0
2, 22180, Note_on_c, 0, 69, 0
2, 22186, Note_on_c, 0, 53, 0
2, 22188, Note_on_c, 0, 60, 0
2, 22213, Note_on_c, 0, 80, 0
2, 22222, Note_on_c, 0, 65, 69
2, 22223, Note_on_c, 0, 69, 72
2, 22223, Note_on_c, 0, 81, 86
2, 22251, Note_on_c, 0, 81, 0
2, 22305, Note_on_c, 0, 81, 94
2, 22335, Note_on_c, 0, 69, 0
2, 22343, Note_on_c, 0, 65, 0
2, 22364, Note_on_c, 0, 61, 65
2, 22364, Note_on_c, 0, 67, 70
2, 22391, Note_on_c, 0, 81, 0
2, 22432, Note_on_c, 0, 81, 95
2, 22460, Note_on_c, 0, 67, 0
2, 22482, Note_on_c, 0, 61, 0
2, 22494, Note_on_c, 0, 62, 88
2, 22494, Note_on_c, 0, 65, 72
2, 22525, Note_on_c, 0, 81, 0
2, 22560, Note_on_c, 0, 81, 96
2, 22594, Note_on_c, 0, 65, 0
2, 22613, Note_on_c, 0, 62, 0
2, 22622, Note_on_c, 0, 64, 76
2, 22623, Note_on_c, 0, 55, 83
2, 22646, Note_on_c, 0, 81, 0
2, 22689, Note_on_c, 0, 81, 91
2, 22723, Note_on_c, 0, 64, 0
2, 22729, Note_on_c, 0, 55, 0
2, 22752, Note_on_c, 0, 62, 74
2, 22753, Note_on_c, 0, 53, 81
2, 22784, Note_on_c, 0, 81, 0
2, 22829, Note_on_c, 0, 86, 97
2, 22879, Note_on_c, 0, 53, 0
2, 22883, Note_on_c, 0, 62, 0
2, 22894, Note_on_c, 0, 60, 83
2, 22896, Note_on_c, 0, 54, 87
2, 22962, Note_on_c, 0, 86, 0
2, 22968, Note_on_c, 0, 74, 101
2, 22990, Note_on_c, 0, 54, 0
2, 23017, Note_on_c, 0, 60, 0
2, 23037, Note_on_c, 0, 55, 62
2, 23038, Note_on_c, 0, 60, 88
2, 23083, Note_on_c, 0, 74, 0
2, 23111, Note_on_c, 0, 79, 101
2, 23188, Note_on_c, 0, 60, 0
2, 23193, Note_on_c, 0, 59, 71
2, 23256, Note_on_c, 0, 79, 0
2, 23257, Note_on_c, 0, 77, 47
2, 23299, Note_on_c, 0, 74, 55
2, 23310, Note_on_c, 0, 77, 0
2, 23314, Note_on_c, 0, 55, 0
2, 23322, Note_on_c, 0, 59, 0
2, 23332, Note_on_c, 0, 60, 70
2, 23337, Note_on_c, 0, 72, 58
2, 23338, Note_on_c, 0, 52, 46
2, 23343, Note_on_c, 0, 74, 0
2, 23416, Note_on_c, 0, 72, 0
2, 23417, Note_on_c, 0, 79, 72
2, 23464, Note_on_c, 0, 52, 0
2, 23476, Note_on_c, 0, 60, 0
2, 23480, Note_on_c, 0, 59, 69
2, 23490, Note_on_c, 0, 53, 31
2, 23510, Note_on_c, 0, 79, 0
2, 23556, Note_on_c, 0, 79, 61
2, 23612, Note_on_c, 0, 53, 0
2, 23622, Note_on_c, 0, 59, 0
2, 23622, Note_on_c, 0, 60, 61
2, 23622, Note_on_c, 0, 52, 63
2, 23658, Note_on_c, 0, 79, 0
2, 23700, Note_on_c, 0, 79, 73
2, 23719, Note_on_c, 0, 52, 0
2, 23751, Note_on_c, 0, 60, 0
2, 23761, Note_on_c, 0, 59, 64
2, 23763, Note_on_c, 0, 62, 74
2, 23788, Note_on_c, 0, 79, 0
2, 23838, Note_on_c, 0, 79, 57
2, 23883, Note_on_c, 0, 62, 0
2, 23892, Note_on_c, 0, 59, 0
2, 23895, Note_on_c, 0, 60, 70
2, 23897, Note_on_c, 0, 64, 58
2, 23919, Note_on_c, 0, 79, 0
2, 23963, Note_on_c, 0, 79, 77
2, 24006, Note_on_c, 0, 64, 0
2, 24015, Note_on_c, 0, 60, 0
2, 24028, Note_on_c, 0, 62, 72
2, 24028, Note_on_c, 0, 65, 53
2, 24048, Note_on_c, 0, 79, 0
2, 24099, Note_on_c, 0, 79, 69
2, 24126, Note_on_c, 0, 62, 0
2, 24142, Note_on_c, 0, 65, 0
2, 24162, Note_on_c, 0, 59, 71
2, 24166, Note_on_c, 0, 62, 70
2, 24175, Note_on_c, 0, 79, 0
2, 24246, Note_on_c, 0, 79, 78
2, 24295, Note_on_c, 0, 62, 0
2, 24309, Note_on_c, 0, 59, 0
2, 24312, Note_on_c, 0, 67, 66
2, 24312, Note_on_c, 0, 65, 58
2, 24391, Note_on_c, 0, 71, 69
2, 24392, Note_on_c, 0, 79, 0
2, 24428, Note_on_c, 0, 67, 0
2, 24436, Note_on_c, 0, 65, 0
2, 24454, Note_on_c, 0, 64, 40
2, 24455, Note_on_c, 0, 67, 71
2, 24520, Note_on_c, 0, 71, 0
2, 24529, Note_on_c, 0, 72, 84
2, 24554, Note_on_c, 0, 67, 0
2, 24573, Note_on_c, 0, 64, 0
2, 24590, Note_on_c, 0, 58, 80
2, 24592, Note_on_c, 0, 67, 75
2, 24656, Note_on_c, 0, 72, 0
2, 24666, Note_on_c, 0, 73, 99
2, 24706, Note_on_c, 0, 67, 0
2, 24708, Note_on_c, 0, 58, 0
2, 24726, Note_on_c, 0, 57, 64
2, 24728, Note_on_c, 0, 67, 65
2, 24785, Note_on_c, 0, 73, 0
2, 24798, Note_on_c, 0, 74, 87
2, 24839, Note_on_c, 0, 67, 0
2, 24851, Note_on_c, 0, 57, 0
2, 24864, Note_on_c, 0, 57, 77
2, 24866, Note_on_c, 0, 65, 67
2, 24894, Note_on_c, 0, 74, 0
2, 24936, Note_on_c, 0, 81, 76
2, 24967, Note_on_c, 0, 65, 0
2, 24973, Note_on_c, 0, 57, 0
2, 25001, Note_on_c, 0, 55, 76
2, 25003, Note_on_c, 0, 64, 64
2, 25066, Note_on_c, 0, 81, 0
2, 25072, Note_on_c, 0, 72, 66
2, 25108, Note_on_c, 0, 55, 0
2, 25112, Note_on_c, 0, 64, 0
2, 25133, Note_on_c, 0, 55, 59
2, 25134, Note_on_c, 0, 62, 70
2, 25200, Note_on_c, 0, 71, 72
2, 25206, Note_on_c, 0, 72, 0
2, 25220, Note_on_c, 0, 62, 0
2, 25228, Note_on_c, 0, 55, 0
2, 25265, Note_on_c, 0, 71, 0
2, 25269, Note_on_c, 0, 72, 62
2, 25270, Note_on_c, 0, 60, 64
2, 25270, Note_on_c, 0, 48, 56
2, 25336, Note_on_c, 0, 67, 40
2, 25341, Note_on_c, 0, 72, 0
2, 25387, Note_on_c, 0, 60, 0
2, 25401, Note_on_c, 0, 64, 56
2, 25409, Note_on_c, 0, 67, 0
2, 25411, Note_on_c, 0, 48, 0
2, 25464, Note_on_c, 0, 60, 64
2, 25466, Note_on_c, 0, 64, 0
2, 25516, Note_on_c, 0, 60, 0
2, 25532, Note_on_c, 0, 43, 92
2, 25554, Control_c, 0, 64, 127
2, 25614, Note_on_c, 0, 53, 106
2, 25614, Note_on_c, 0, 50, 106
2, 25614, Note_on_c, 0, 59, 98
2, 25675, Note_on_c, 0, 43, 0
2, 25678, Note_on_c, 0, 36, 80
2, 25683, Control_c, 0, 64, 0
2, 25704, Note_on_c, 0, 50, 0
2, 25709, Note_on_c, 0, 59, 0
2, 25709, Note_on_c, 0, 53, 0
2, 25717, Note_on_c, 0, 36, 0
2, 25744, Note_on_c, 0, 60, 95
2, 25744, Note_on_c, 0, 52, 96
2, 25745, Note_on_c, 0, 55, 97
2, 25772, Note_on_c, 0, 60, 0
2, 25775, Note_on_c, 0, 55, 0
2, 25776, Note_on_c, 0, 52, 0
2, 25805, Control_c, 0, 64, 127
2, 25809, Note_on_c, 0, 45, 90
2, 25882, Note_on_c, 0, 55, 99
2, 25883, Note_on_c, 0, 52, 100
2, 25884, Note_on_c, 0, 61, 107
2, 25943, Note_on_c, 0, 45, 0
2, 25943, Control_c, 0, 64, 0
2, 25947, Note_on_c, 0, 38, 89
2, 25960, Note_on_c, 0, 55, 0
2, 25964, Note_on_c, 0, 52, 0
2, 25965, Note_on_c, 0, 61, 0
2, 25970, Note_on_c, 0, 38, 0
2, 26010, Note_on_c, 0, 53, 92
2, 26010, Note_on_c, 0, 57, 97
2, 26010, Note_on_c, 0, 62, 88
2, 26038, Note_on_c, 0, 62, 0
2, 26038, Note_on_c, 0, 53, 0
2, 26039, Note_on_c, 0, 57, 0
2, 26081, Note_on_c, 0, 47, 100
2, 26081, Control_c, 0, 64, 127
2, 26155, Note_on_c, 0, 63, 106
2, 26155, Note_on_c, 0, 54, 106
2, 26156, Note_on_c, 0, 57, 100
2, 26221, Note_on_c, 0, 40, 96
2, 26224, Note_on_c, 0, 47, 0
2, 26225, Control_c, 0, 64, 0
2, 26234, Note_on_c, 0, 57, 0
2, 26235, Note_on_c, 0, 63, 0
2, 26236, Note_on_c, 0, 54, 0
2, 26251, Note_on_c, 0, 40, 0
2, 26286, Note_on_c, 0, 59, 99
2, 26286, Note_on_c, 0, 64, 92
2, 26287, Note_on_c, 0, 55, 95
2, 26307, Note_on_c, 0, 64, 0
2, 26308, Note_on_c, 0, 55, 0
2, 26309, Note_on_c, 0, 59, 0
2, 26351, Note_on_c, 0, 50, 92
2, 26352, Note_on_c, 0, 38, 89
2, 26354, Control_c, 0, 64, 127
2, 26432, Note_on_c, 0, 55, 99
2, 26432, Note_on_c, 0, 59, 99
2, 26434, Note_on_c, 0, 65, 95
2, 26515, Note_on_c, 0, 65, 0
2, 26517, Note_on_c, 0, 55, 0
2, 26521, Note_on_c, 0, 59, 0
2, 26543, Note_on_c, 0, 38, 0
2, 26562, Note_on_c, 0, 55, 90
2, 26563, Note_on_c, 0, 59, 92
2, 26563, Note_on_c, 0, 65, 85
2, 26585, Note_on_c, 0, 50, 0
2, 26594, Control_c, 0, 64, 0
2, 26633, Note_on_c, 0, 36, 63
2, 26656, Note_on_c, 0, 55, 0
2, 26656, Note_on_c, 0, 65, 0
2, 26662, Note_on_c, 0, 59, 0
2, 26704, Note_on_c, 0, 59, 70
2, 26704, Note_on_c, 0, 55, 62
2, 26706, Note_on_c, 0, 65, 63
2, 26768, Note_on_c, 0, 48, 74
2, 26770, Note_on_c, 0, 36, 0
2, 26794, Note_on_c, 0, 65, 0
2, 26801, Note_on_c, 0, 55, 0
2, 26802, Note_on_c, 0, 59, 0
2, 26837, Note_on_c, 0, 60, 74
2, 26839, Note_on_c, 0, 64, 60
2, 26840, Note_on_c, 0, 55, 54
2, 26904, Note_on_c, 0, 45, 70
2, 26908, Note_on_c, 0, 48, 0
2, 26922, Note_on_c, 0, 60, 0
2, 26923, Note_on_c, 0, 64, 0
2, 26934, Note_on_c, 0, 55, 0
2, 26969, Note_on_c, 0, 62, 61
2, 26970, Note_on_c, 0, 53, 78
2, 26972, Note_on_c, 0, 60, 72
2, 27032, Note_on_c, 0, 45, 0
2, 27038, Note_on_c, 0, 41, 66
2, 27050, Note_on_c, 0, 53, 0
2, 27057, Note_on_c, 0, 60, 0
2, 27062, Note_on_c, 0, 62, 0
2, 27105, Note_on_c, 0, 57, 40
2, 27105, Note_on_c, 0, 62, 46
2, 27106, Note_on_c, 0, 65, 64
2, 27164, Note_on_c, 0, 41, 0
2, 27170, Note_on_c, 0, 43, 52
2, 27194, Note_on_c, 0, 65, 0
2, 27194, Note_on_c, 0, 62, 0
2, 27198, Note_on_c, 0, 57, 0
2, 27235, Note_on_c, 0, 55, 73
2, 27236, Note_on_c, 0, 60, 72
2, 27236, Note_on_c, 0, 64, 58
2, 27302, Note_on_c, 0, 31, 60
2, 27306, Note_on_c, 0, 60, 0
2, 27306, Note_on_c, 0, 43, 0
2, 27310, Note_on_c, 0, 64, 0
2, 27317, Note_on_c, 0, 55, 0
2, 27367, Note_on_c, 0, 62, 64
2, 27367, Note_on_c, 0, 59, 70
2, 27368, Note_on_c, 0, 53, 75
2, 27394, Note_on_c, 0, 62, 0
2, 27395, Note_on_c, 0, 59, 0
2, 27401, Note_on_c, 0, 53, 0
2, 27422, Note_on_c, 0, 31, 0
2, 27436, Note_on_c, 0, 52, 67
2, 27439, Note_on_c, 0, 55, 21
2, 27440, Note_on_c, 0, 60, 60
2, 27440, Note_on_c, 0, 36, 46
2, 27535, Note_on_c, 0, 52, 0
2, 27544, Note_on_c, 0, 55, 0
2, 27560, Note_on_c, 0, 36, 0
2, 27562, Note_on_c, 0, 60, 0
2, 27644, Note_on_c, 0, 67, 58
2, 27696, Note_on_c, 0, 67, 0
2, 27709, Note_on_c, 0, 79, 81
2, 27711, Note_on_c, 0, 64, 60
2, 27713, Note_on_c, 0, 67, 39
2, 27728, Note_on_c, 0, 79, 0
2, 27793, Note_on_c, 0, 79, 87
2, 27813, Note_on_c, 0, 67, 0
2, 27823, Note_on_c, 0, 64, 0
2, 27860, Note_on_c, 0, 65, 56
2, 27860, Note_on_c, 0, 62, 54
2, 27894, Note_on_c, 0, 79, 0
2, 27931, Note_on_c, 0, 79, 80
2, 27957, Note_on_c, 0, 62, 0
2, 27963, Note_on_c, 0, 65, 0
2, 28000, Note_on_c, 0, 64, 78
2, 28005, Note_on_c, 0, 60, 65
2, 28048, Note_on_c, 0, 79, 0
2, 28079, Note_on_c, 0, 79, 67
2, 28104, Note_on_c, 0, 60, 0
2, 28118, Note_on_c, 0, 64, 0
2, 28144, Note_on_c, 0, 58, 65
2, 28145, Note_on_c, 0, 64, 76
2, 28169, Note_on_c, 0, 79, 0
2, 28214, Note_on_c, 0, 79, 83
2, 28241, Note_on_c, 0, 64, 0
2, 28251, Note_on_c, 0, 58, 0
2, 28285, Note_on_c, 0, 57, 76
2, 28286, Note_on_c, 0, 72, 76
2, 28286, Note_on_c, 0, 60, 89
2, 28346, Note_on_c, 0, 79, 0
2, 28354, Note_on_c, 0, 77, 77
2, 28392, Note_on_c, 0, 60, 0
2, 28400, Note_on_c, 0, 57, 0
2, 28419, Note_on_c, 0, 70, 102
2, 28422, Note_on_c, 0, 55, 69
2, 28422, Note_on_c, 0, 60, 70
2, 28430, Note_on_c, 0, 72, 0
2, 28478, Note_on_c, 0, 77, 0
2, 28488, Note_on_c, 0, 76, 85
2, 28526, Note_on_c, 0, 55, 0
2, 28534, Note_on_c, 0, 60, 0
2, 28551, Note_on_c, 0, 60, 60
2, 28552, Note_on_c, 0, 70, 0
2, 28552, Note_on_c, 0, 53, 84
2, 28553, Note_on_c, 0, 69, 78
2, 28622, Note_on_c, 0, 77, 89
2, 28623, Note_on_c, 0, 76, 0
2, 28676, Note_on_c, 0, 77, 0
2, 28689, Note_on_c, 0, 79, 83
2, 28750, Note_on_c, 0, 80, 92
2, 28754, Note_on_c, 0, 79, 0
2, 28759, Note_on_c, 0, 53, 0
2, 28764, Note_on_c, 0, 60, 0
2, 28782, Note_on_c, 0, 69, 0
2, 28817, Note_on_c, 0, 69, 71
2, 28818, Note_on_c, 0, 65, 61
2, 28821, Note_on_c, 0, 80, 0
2, 28822, Note_on_c, 0, 81, 78
2, 28853, Note_on_c, 0, 81, 0
2, 28895, Note_on_c, 0, 81, 89
2, 28921, Note_on_c, 0, 65, 0
2, 28926, Note_on_c, 0, 69, 0
2, 28958, Note_on_c, 0, 61, 54
2, 28958, Note_on_c, 0, 67, 71
2, 28987, Note_on_c, 0, 81, 0
2, 29028, Note_on_c, 0, 81, 94
2, 29063, Note_on_c, 0, 67, 0
2, 29074, Note_on_c, 0, 61, 0
2, 29091, Note_on_c, 0, 62, 61
2, 29091, Note_on_c, 0, 65, 68
2, 29114, Note_on_c, 0, 81, 0
2, 29161, Note_on_c, 0, 81, 97
2, 29196, Note_on_c, 0, 65, 0
2, 29207, Note_on_c, 0, 62, 0
2, 29226, Note_on_c, 0, 55, 56
2, 29226, Note_on_c, 0, 64, 73
2, 29255, Note_on_c, 0, 81, 0
2, 29303, Note_on_c, 0, 81, 89
2, 29338, Note_on_c, 0, 55, 0
2, 29341, Note_on_c, 0, 64, 0
2, 29369, Note_on_c, 0, 62, 77
2, 29371, Note_on_c, 0, 53, 81
2, 29399, Note_on_c, 0, 81, 0
2, 29443, Note_on_c, 0, 86, 95
2, 29487, Note_on_c, 0, 53, 0
2, 29494, Note_on_c, 0, 62, 0
2, 29509, Note_on_c, 0, 54, 80
2, 29510, Note_on_c, 0, 60, 80
2, 29581, Note_on_c, 0, 86, 0
2, 29593, Note_on_c, 0, 74, 85
2, 29619, Note_on_c, 0, 54, 0
2, 29638, Note_on_c, 0, 60, 0
2, 29656, Note_on_c, 0, 60, 80
2, 29659, Note_on_c, 0, 55, 63
2, 29726, Note_on_c, 0, 74, 0
2, 29734, Note_on_c, 0, 79, 88
2, 29798, Note_on_c, 0, 60, 0
2, 29810, Note_on_c, 0, 59, 69
2, 29874, Note_on_c, 0, 79, 0
2, 29881, Note_on_c, 0, 77, 57
2, 29915, Note_on_c, 0, 74, 49
2, 29927, Note_on_c, 0, 59, 0
2, 29929, Note_on_c, 0, 55, 0
2, 29929, Note_on_c, 0, 77, 0
2, 29943, Note_on_c, 0, 60, 71
2, 29949, Note_on_c, 0, 52, 28
2, 29954, Note_on_c, 0, 72, 47
2, 29956, Note_on_c, 0, 74, 0
2, 30018, Note_on_c, 0, 72, 0
2, 30027, Note_on_c, 0, 79, 78
2, 30059, Note_on_c, 0, 52, 0
2, 30087, Note_on_c, 0, 60, 0
2, 30091, Note_on_c, 0, 59, 64
2, 30094, Note_on_c, 0, 53, 61
2, 30107, Note_on_c, 0, 79, 0
2, 30163, Note_on_c, 0, 79, 68
2, 30218, Note_on_c, 0, 53, 0
2, 30226, Note_on_c, 0, 59, 0
2, 30228, Note_on_c, 0, 52, 75
2, 30231, Note_on_c, 0, 60, 71
2, 30262, Note_on_c, 0, 79, 0
2, 30301, Note_on_c, 0, 79, 71
2, 30325, Note_on_c, 0, 52, 0
2, 30351, Note_on_c, 0, 60, 0
2, 30366, Note_on_c, 0, 62, 63
2, 30367, Note_on_c, 0, 59, 81
2, 30401, Note_on_c, 0, 79, 0
2, 30438, Note_on_c, 0, 79, 89
2, 30482, Note_on_c, 0, 59, 0
2, 30487, Note_on_c, 0, 62, 0
2, 30498, Note_on_c, 0, 64, 63
2, 30499, Note_on_c, 0, 60, 75
2, 30522, Note_on_c, 0, 79, 0
2, 30565, Note_on_c, 0, 79, 90
2, 30603, Note_on_c, 0, 64, 0
2, 30613, Note_on_c, 0, 60, 0
2, 30630, Note_on_c, 0, 62, 78
2, 30631, Note_on_c, 0, 65, 70
2, 30655, Note_on_c, 0, 79, 0
2, 30702, Note_on_c, 0, 79, 90
2, 30731, Note_on_c, 0, 62, 0
2, 30736, Note_on_c, 0, 65, 0
2, 30765, Note_on_c, 0, 59, 76
2, 30768, Note_on_c, 0, 62, 77
2, 30777, Note_on_c, 0, 79, 0
2, 30842, Note_on_c, 0, 79, 89
2, 30884, Note_on_c, 0, 62, 0
2, 30884, Note_on_c, 0, 59, 0
2, 30905, Note_on_c, 0, 67, 65
2, 30905, Note_on_c, 0, 65, 59
2, 30986, Note_on_c, 0, 79, 0
2, 30986, Note_on_c, 0, 71, 74
2, 31025, Note_on_c, 0, 67, 0
2, 31029, Note_on_c, 0, 65, 0
2, 31043, Note_on_c, 0, 67, 73
2, 31044, Note_on_c, 0, 64, 73
2, 31104, Note_on_c, 0, 71, 0
2, 31120, Note_on_c, 0, 72, 89
2, 31151, Note_on_c, 0, 67, 0
2, 31158, Note_on_c, 0, 64, 0
2, 31179, Note_on_c, 0, 58, 62
2, 31180, Note_on_c, 0, 67, 73
2, 31236, Note_on_c, 0, 72, 0
2, 31256, Note_on_c, 0, 73, 106
2, 31291, Note_on_c, 0, 58, 0
2, 31296, Note_on_c, 0, 67, 0
2, 31316, Note_on_c, 0, 67, 75
2, 31319, Note_on_c, 0, 57, 83
2, 31376, Note_on_c, 0, 73, 0
2, 31392, Note_on_c, 0, 74, 94
2, 31430, Note_on_c, 0, 67, 0
2, 31442, Note_on_c, 0, 57, 0
2, 31459, Note_on_c, 0, 57, 88
2, 31460, Note_on_c, 0, 65, 81
2, 31514, Note_on_c, 0, 74, 0
2, 31529, Note_on_c, 0, 81, 91
2, 31562, Note_on_c, 0, 65, 0
2, 31566, Note_on_c, 0, 57, 0
2, 31595, Note_on_c, 0, 64, 84
2, 31596, Note_on_c, 0, 55, 80
2, 31660, Note_on_c, 0, 81, 0
2, 31664, Note_on_c, 0, 72, 84
2, 31710, Note_on_c, 0, 64, 0
2, 31714, Note_on_c, 0, 55, 0
2, 31730, Note_on_c, 0, 55, 72
2, 31732, Note_on_c, 0, 62, 79
2, 31794, Note_on_c, 0, 72, 0
2, 31800, Note_on_c, 0, 71, 83
2, 31815, Note_on_c, 0, 62, 0
2, 31825, Note_on_c, 0, 55, 0
2, 31866, Note_on_c, 0, 48, 58
2, 31867, Note_on_c, 0, 72, 61
2, 31869, Note_on_c, 0, 71, 0
2, 31869, Note_on_c, 0, 60, 79
2, 31937, Note_on_c, 0, 67, 73
2, 31942, Note_on_c, 0, 72, 0
2, 31968, Note_on_c, 0, 60, 0
2, 31997, Note_on_c, 0, 48, 0
2, 32003, Note_on_c, 0, 64, 76
2, 32008, Note_on_c, 0, 67, 0
2, 32063, Note_on_c, 0, 64, 0
2, 32067, Note_on_c, 0, 60, 78
2, 32113, Note_on_c, 0, 60, 0
2, 32135, Note_on_c, 0, 43, 98
2, 32148, Control_c, 0, 64, 127
2, 32215, Note_on_c, 0, 59, 99
2, 32215, Note_on_c, 0, 53, 105
2, 32216, Note_on_c, 0, 50, 105
2, 32261, Control_c, 0, 64, 0
2, 32272, Note_on_c, 0, 43, 0
2, 32281, Note_on_c, 0, 36, 80
2, 32296, Note_on_c, 0, 50, 0
2, 32299, Note_on_c, 0, 53, 0
2, 32300, Note_on_c, 0, 59, 0
2, 32318, Note_on_c, 0, 36, 0
2, 32343, Note_on_c, 0, 52, 78
2, 32343, Note_on_c, 0, 60, 92
2, 32344, Note_on_c, 0, 55, 92
2, 32368, Note_on_c, 0, 55, 0
2, 32368, Note_on_c, 0, 52, 0
2, 32369, Note_on_c, 0, 60, 0
2, 32414, Note_on_c, 0, 45, 88
2, 32428, Control_c, 0, 64, 127
2, 32490, Note_on_c, 0, 55, 99
2, 32490, Note_on_c, 0, 52, 98
2, 32492, Note_on_c, 0, 61, 107
2, 32544, Control_c, 0, 64, 0
2, 32545, Note_on_c, 0, 45, 0
2, 32549, Note_on_c, 0, 38, 84
2, 32571, Note_on_c, 0, 55, 0
2, 32571, Note_on_c, 0, 52, 0
2, 32574, Note_on_c, 0, 61, 0
2, 32582, Note_on_c, 0, 38, 0
2, 32618, Note_on_c, 0, 53, 91
2, 32619, Note_on_c, 0, 57, 97
2, 32619, Note_on_c, 0, 62, 90
2, 32646, Note_on_c, 0, 62, 0
2, 32647, Note_on_c, 0, 53, 0
2, 32648, Note_on_c, 0, 57, 0
2, 32686, Note_on_c, 0, 47, 98
2, 32694, Control_c, 0, 64, 127
2, 32758, Note_on_c, 0, 54, 105
2, 32759, Note_on_c, 0, 63, 102
2, 32760, Note_on_c, 0, 57, 97
2, 32818, Note_on_c, 0, 47, 0
2, 32823, Note_on_c, 0, 40, 92
2, 32827, Control_c, 0, 64, 0
2, 32833, Note_on_c, 0, 57, 0
2, 32839, Note_on_c, 0, 54, 0
2, 32839, Note_on_c, 0, 63, 0
2, 32852, Note_on_c, 0, 40, 0
2, 32892, Note_on_c, 0, 59, 97
2, 32892, Note_on_c, 0, 64, 89
2, 32892, Note_on_c, 0, 55, 94
2, 32913, Note_on_c, 0, 55, 0
2, 32916, Note_on_c, 0, 64, 0
2, 32916, Note_on_c, 0, 59, 0
2, 32956, Control_c, 0, 64, 127
2, 32962, Note_on_c, 0, 50, 89
2, 32963, Note_on_c, 0, 38, 90
2, 33035, Note_on_c, 0, 59, 101
2, 33035, Note_on_c, 0, 55, 102
2, 33036, Note_on_c, 0, 65, 98
2, 33136, Note_on_c, 0, 65, 0
2, 33136, Note_on_c, 0, 55, 0
2, 33140, Note_on_c, 0, 59, 0
2, 33161, Note_on_c, 0, 38, 0
2, 33174, Note_on_c, 0, 59, 81
2, 33175, Note_on_c, 0, 55, 79
2, 33178, Note_on_c, 0, 65, 72
2, 33190, Note_on_c, 0, 50, 0
2, 33218, Control_c, 0, 64, 0
2, 33251, Note_on_c, 0, 36, 58
2, 33269, Note_on_c, 0, 55, 0
2, 33270, Note_on_c, 0, 65, 0
2, 33272, Note_on_c, 0, 59, 0
2, 33317, Note_on_c, 0, 55, 63
2, 33317, Note_on_c, 0, 59, 74
2, 33320, Note_on_c, 0, 65, 68
2, 33387, Note_on_c, 0, 48, 75
2, 33388, Note_on_c, 0, 36, 0
2, 33398, Note_on_c, 0, 65, 0
2, 33402, Note_on_c, 0, 59, 0
2, 33403, Note_on_c, 0, 55, 0
2, 33456, Note_on_c, 0, 60, 77
2, 33457, Note_on_c, 0, 55, 56
2, 33458, Note_on_c, 0, 64, 63
2, 33522, Note_on_c, 0, 45, 64
2, 33524, Note_on_c, 0, 48, 0
2, 33537, Note_on_c, 0, 60, 0
2, 33538, Note_on_c, 0, 64, 0
2, 33547, Note_on_c, 0, 55, 0
2, 33593, Note_on_c, 0, 53, 56
2, 33596, Note_on_c, 0, 62, 79
2, 33597, Note_on_c, 0, 60, 54
2, 33657, Note_on_c, 0, 45, 0
2, 33665, Note_on_c, 0, 41, 70
2, 33675, Note_on_c, 0, 53, 0
2, 33681, Note_on_c, 0, 60, 0
2, 33686, Note_on_c, 0, 62, 0
2, 33736, Note_on_c, 0, 62, 48
2, 33736, Note_on_c, 0, 57, 39
2, 33738, Note_on_c, 0, 65, 74
2, 33796, Note_on_c, 0, 41, 0
2, 33802, Note_on_c, 0, 43, 54
2, 33822, Note_on_c, 0, 62, 0
2, 33825, Note_on_c, 0, 65, 0
2, 33829, Note_on_c, 0, 57, 0
2, 33874, Note_on_c, 0, 55, 79
2, 33874, Note_on_c, 0, 64, 67
2, 33875, Note_on_c, 0, 60, 72
2, 33939, Note_on_c, 0, 31, 61
2, 33945, Note_on_c, 0, 43, 0
2, 33951, Note_on_c, 0, 60, 0
2, 33954, Note_on_c, 0, 64, 0
2, 33958, Note_on_c, 0, 55, 0
2, 34006, Note_on_c, 0, 62, 62
2, 34007, Note_on_c, 0, 53, 67
2, 34007, Note_on_c, 0, 59, 62
2, 34034, Note_on_c, 0, 59, 0
2, 34034, Note_on_c, 0, 62, 0
2, 34040, Note_on_c, 0, 53, 0
2, 34063, Note_on_c, 0, 31, 0
2, 34076, Note_on_c, 0, 52, 61
2, 34078, Note_on_c, 0, 55, 19
2, 34079, Note_on_c, 0, 36, 46
2, 34080, Note_on_c, 0, 60, 58
2, 34147, Note_on_c, 0, 52, 0
2, 34148, Note_on_c, 0, 60, 0
2, 34149, Note_on_c, 0, 55, 0
2, 34165, Note_on_c, 0, 36, 0
2, 34282, Note_on_c, 0, 67, 62
2, 34308, Note_on_c, 0, 67, 0
2, 34347, Note_on_c, 0, 48, 75
2, 34351, Note_on_c, 0, 72, 61
2, 34380, Note_on_c, 0, 48, 0
2, 34381, Note_on_c, 0, 72, 0
2, 34431, Note_on_c, 0, 72, 63
2, 34432, Note_on_c, 0, 64, 61
2, 34434, Note_on_c, 0, 67, 56
2, 34454, Note_on_c, 0, 64, 0
2, 34455, Note_on_c, 0, 67, 0
2, 34458, Note_on_c, 0, 72, 0
2, 34498, Note_on_c, 0, 48, 72
2, 34523, Note_on_c, 0, 48, 0
2, 34564, Note_on_c, 0, 65, 54
2, 34564, Note_on_c, 0, 67, 54
2, 34565, Note_on_c, 0, 62, 59
2, 34568, Note_on_c, 0, 71, 57
2, 34585, Note_on_c, 0, 62, 0
2, 34587, Note_on_c, 0, 67, 0
2, 34589, Note_on_c, 0, 65, 0
2, 34590, Note_on_c, 0, 71, 0
2, 34629, Note_on_c, 0, 48, 86
2, 34655, Note_on_c, 0, 48, 0
2, 34697, Note_on_c, 0, 60, 42
2, 34697, Note_on_c, 0, 72, 55
2, 34699, Note_on_c, 0, 64, 39
2, 34699, Note_on_c, 0, 67, 52
2, 34719, Note_on_c, 0, 67, 0
2, 34719, Note_on_c, 0, 64, 0
2, 34719, Note_on_c, 0, 60, 0
2, 34720, Note_on_c, 0, 72, 0
2, 34759, Note_on_c, 0, 48, 62
2, 34784, Note_on_c, 0, 48, 0
2, 34819, Note_on_c, 0, 74, 58
2, 34822, Note_on_c, 0, 65, 36
2, 34822, Note_on_c, 0, 67, 57
2, 34822, Note_on_c, 0, 59, 62
2, 34840, Note_on_c, 0, 67, 0
2, 34841, Note_on_c, 0, 65, 0
2, 34842, Note_on_c, 0, 74, 0
2, 34842, Note_on_c, 0, 59, 0
2, 34879, Note_on_c, 0, 48, 86
2, 34904, Note_on_c, 0, 48, 0
2, 34945, Note_on_c, 0, 58, 89
2, 34946, Note_on_c, 0, 72, 56
2, 34947, Note_on_c, 0, 76, 62
2, 34948, Note_on_c, 0, 67, 28
2, 34962, Note_on_c, 0, 58, 0
2, 34968, Note_on_c, 0, 72, 0
2, 34972, Note_on_c, 0, 76, 0
2, 34972, Note_on_c, 0, 67, 0
2, 35004, Note_on_c, 0, 48, 74
2, 35030, Note_on_c, 0, 48, 0
2, 35063, Note_on_c, 0, 77, 74
2, 35066, Note_on_c, 0, 72, 62
2, 35066, Note_on_c, 0, 57, 74
2, 35067, Note_on_c, 0, 65, 53
2, 35086, Note_on_c, 0, 57, 0
2, 35089, Note_on_c, 0, 77, 0
2, 35090, Note_on_c, 0, 72, 0
2, 35092, Note_on_c, 0, 65, 0
2, 35124, Note_on_c, 0, 48, 81
2, 35148, Note_on_c, 0, 48, 0
2, 35188, Note_on_c, 0, 65, 56
2, 35188, Note_on_c, 0, 56, 90
2, 35189, Note_on_c, 0, 72, 66
2, 35190, Note_on_c, 0, 74, 66
2, 35207, Note_on_c, 0, 56, 0
2, 35210, Note_on_c, 0, 72, 0
2, 35212, Note_on_c, 0, 65, 0
2, 35215, Note_on_c, 0, 74, 0
2, 35247, Note_on_c, 0, 48, 64
2, 35274, Note_on_c, 0, 48, 0
2, 35310, Note_on_c, 0, 55, 76
2, 35312, Note_on_c, 0, 65, 55
2, 35312, Note_on_c, 0, 71, 74
2, 35312, Note_on_c, 0, 74, 61
2, 35326, Note_on_c, 0, 55, 0
2, 35334, Note_on_c, 0, 65, 0
2, 35336, Note_on_c, 0, 71, 0
2, 35342, Note_on_c, 0, 74, 0
2, 35374, Note_on_c, 0, 36, 56
2, 35390, Note_on_c, 0, 36, 0
2, 35435, Note_on_c, 0, 71, 64
2, 35435, Note_on_c, 0, 79, 78
2, 35435, Note_on_c, 0, 74, 25
2, 35435, Note_on_c, 0, 53, 56
2, 35436, Note_on_c, 0, 67, 37
2, 35452, Note_on_c, 0, 79, 0
2, 35455, Note_on_c, 0, 74, 0
2, 35456, Note_on_c, 0, 53, 0
2, 35461, Note_on_c, 0, 67, 0
2, 35467, Note_on_c, 0, 71, 0
2, 35491, Note_on_c, 0, 36, 80
2, 35515, Note_on_c, 0, 36, 0
2, 35550, Note_on_c, 0, 52, 75
2, 35552, Note_on_c, 0, 72, 70
2, 35552, Note_on_c, 0, 79, 69
2, 35554, Note_on_c, 0, 67, 55
2, 35573, Note_on_c, 0, 67, 0
2, 35576, Note_on_c, 0, 52, 0
2, 35579, Note_on_c, 0, 79, 0
2, 35579, Note_on_c, 0, 72, 0
2, 35607, Note_on_c, 0, 36, 68
2, 35635, Note_on_c, 0, 36, 0
2, 35668, Note_on_c, 0, 79, 58
2, 35668, Note_on_c, 0, 71, 68
2, 35668, Note_on_c, 0, 77, 81
2, 35669, Note_on_c, 0, 50, 66
2, 35692, Note_on_c, 0, 79, 0
2, 35695, Note_on_c, 0, 77, 0
2, 35698, Note_on_c, 0, 71, 0
2, 35701, Note_on_c, 0, 50, 0
2, 35724, Note_on_c, 0, 36, 63
2, 35762, Note_on_c, 0, 36, 0
2, 35783, Note_on_c, 0, 80, 90
2, 35784, Note_on_c, 0, 48, 83
2, 35784, Note_on_c, 0, 70, 91
2, 35786, Note_on_c, 0, 76, 81
2, 35802, Note_on_c, 0, 48, 0
2, 35804, Note_on_c, 0, 80, 0
2, 35804, Note_on_c, 0, 70, 0
2, 35807, Note_on_c, 0, 76, 0
2, 35842, Note_on_c, 0, 41, 77
2, 35871, Note_on_c, 0, 41, 0
2, 35903, Note_on_c, 0, 53, 75
2, 35904, Note_on_c, 0, 69, 68
2, 35904, Note_on_c, 0, 81, 63
2, 35906, Note_on_c, 0, 77, 81
2, 35924, Note_on_c, 0, 53, 0
2, 35927, Note_on_c, 0, 69, 0
2, 35927, Note_on_c, 0, 81, 0
2, 35928, Note_on_c, 0, 77, 0
2, 35960, Note_on_c, 0, 38, 76
2, 35988, Note_on_c, 0, 38, 0
2, 36020, Note_on_c, 0, 50, 73
2, 36021, Note_on_c, 0, 81, 74
2, 36021, Note_on_c, 0, 77, 86
2, 36021, Note_on_c, 0, 69, 83
2, 36039, Note_on_c, 0, 81, 0
2, 36042, Note_on_c, 0, 50, 0
2, 36046, Note_on_c, 0, 77, 0
2, 36046, Note_on_c, 0, 69, 0
2, 36079, Note_on_c, 0, 43, 90
2, 36150, Note_on_c, 0, 43, 0
2, 36151, Note_on_c, 0, 74, 90
2, 36151, Note_on_c, 0, 68, 97
2, 36152, Note_on_c, 0, 55, 80
2, 36152, Note_on_c, 0, 71, 86
2, 36273, Note_on_c, 0, 67, 66
2, 36282, Note_on_c, 0, 74, 0
2, 36283, Note_on_c, 0, 71, 0
2, 36292, Note_on_c, 0, 65, 79
2, 36301, Note_on_c, 0, 68, 0
2, 36315, Note_on_c, 0, 67, 0
2, 36320, Note_on_c, 0, 55, 0
2, 36326, Note_on_c, 0, 65, 0
2, 36334, Note_on_c, 0, 48, 83
2, 36368, Note_on_c, 0, 48, 0
2, 36404, Note_on_c, 0, 72, 58
2, 36406, Note_on_c, 0, 64, 73
2, 36407, Note_on_c, 0, 67, 61
2, 36428, Note_on_c, 0, 67, 0
2, 36428, Note_on_c, 0, 64, 0
2, 36435, Note_on_c, 0, 72, 0
2, 36466, Note_on_c, 0, 48, 79
2, 36492, Note_on_c, 0, 48, 0
2, 36527, Note_on_c, 0, 62, 58
2, 36529, Note_on_c, 0, 67, 55
2, 36529, Note_on_c, 0, 65, 48
2, 36531, Note_on_c, 0, 71, 54
2, 36551, Note_on_c, 0, 62, 0
2, 36553, Note_on_c, 0, 67, 0
2, 36553, Note_on_c, 0, 65, 0
2, 36554, Note_on_c, 0, 71, 0
2, 36588, Note_on_c, 0, 48, 77
2, 36615, Note_on_c, 0, 48, 0
2, 36652, Note_on_c, 0, 72, 70
2, 36652, Note_on_c, 0, 60, 73
2, 36654, Note_on_c, 0, 64, 59
2, 36655, Note_on_c, 0, 67, 59
2, 36674, Note_on_c, 0, 60, 0
2, 36676, Note_on_c, 0, 67, 0
2, 36677, Note_on_c, 0, 64, 0
2, 36679, Note_on_c, 0, 72, 0
2, 36710, Note_on_c, 0, 47, 75
2, 36744, Note_on_c, 0, 47, 0
2, 36770, Note_on_c, 0, 59, 36
2, 36771, Note_on_c, 0, 74, 63
2, 36773, Note_on_c, 0, 62, 68
2, 36775, Note_on_c, 0, 67, 67
2, 36793, Note_on_c, 0, 59, 0
2, 36796, Note_on_c, 0, 62, 0
2, 36798, Note_on_c, 0, 67, 0
2, 36801, Note_on_c, 0, 74, 0
2, 36832, Note_on_c, 0, 48, 83
2, 36862, Note_on_c, 0, 48, 0
2, 36895, Note_on_c, 0, 76, 74
2, 36897, Note_on_c, 0, 67, 75
2, 36898, Note_on_c, 0, 64, 69
2, 36898, Note_on_c, 0, 60, 81
2, 36900, Note_on_c, 0, 72, 78
2, 36917, Note_on_c, 0, 64, 0
2, 36920, Note_on_c, 0, 60, 0
2, 36920, Note_on_c, 0, 67, 0
2, 36923, Note_on_c, 0, 76, 0
2, 36923, Note_on_c, 0, 72, 0
2, 36955, Note_on_c, 0, 45, 91
2, 36983, Note_on_c, 0, 45, 0
2, 37017, Note_on_c, 0, 57, 76
2, 37018, Note_on_c, 0, 66, 95
2, 37018, Note_on_c, 0, 75, 98
2, 37019, Note_on_c, 0, 78, 88
2, 37022, Note_on_c, 0, 72, 72
2, 37032, Note_on_c, 0, 72, 0
2, 37034, Note_on_c, 0, 66, 0
2, 37035, Note_on_c, 0, 78, 0
2, 37037, Note_on_c, 0, 75, 0
2, 37042, Note_on_c, 0, 57, 0
2, 37077, Note_on_c, 0, 47, 98
2, 37102, Note_on_c, 0, 47, 0
2, 37142, Note_on_c, 0, 59, 72
2, 37143, Note_on_c, 0, 71, 85
2, 37145, Note_on_c, 0, 74, 77
2, 37145, Note_on_c, 0, 79, 75
2, 37146, Note_on_c, 0, 62, 72
2, 37146, Note_on_c, 0, 67, 80
2, 37240, Note_on_c, 0, 79, 0
2, 37243, Note_on_c, 0, 67, 0
2, 37248, Note_on_c, 0, 74, 0
2, 37249, Note_on_c, 0, 71, 0
2, 37252, Note_on_c, 0, 59, 0
2, 37256, Note_on_c, 0, 62, 0
2, 37264, Note_on_c, 0, 71, 88
2, 37264, Note_on_c, 0, 74, 84
2, 37264, Note_on_c, 0, 79, 78
2, 37264, Note_on_c, 0, 59, 92
2, 37265, Note_on_c, 0, 62, 92
2, 37265, Note_on_c, 0, 67, 92
2, 37288, Note_on_c, 0, 62, 0
2, 37289, Note_on_c, 0, 67, 0
2, 37291, Note_on_c, 0, 59, 0
2, 37293, Note_on_c, 0, 71, 0
2, 37293, Note_on_c, 0, 74, 0
2, 37294, Note_on_c, 0, 79, 0
2, 37324, Note_on_c, 0, 48, 97
2, 37352, Note_on_c, 0, 48, 0
2, 37383, Note_on_c, 0, 60, 83
2, 37385, Note_on_c, 0, 81, 81
2, 37386, Note_on_c, 0, 69, 85
2, 37386, Note_on_c, 0, 76, 87
2, 37386, Note_on_c, 0, 79, 87
2, 37406, Note_on_c, 0, 69, 0
2, 37408, Note_on_c, 0, 60, 0
2, 37409, Note_on_c, 0, 76, 0
2, 37411, Note_on_c, 0, 81, 0
2, 37414, Note_on_c, 0, 79, 0
2, 37446, Note_on_c, 0, 49, 100
2, 37467, Note_on_c, 0, 49, 0
2, 37506, Note_on_c, 0, 82, 78
2, 37506, Note_on_c, 0, 70, 92
2, 37508, Note_on_c, 0, 61, 105
2, 37508, Note_on_c, 0, 79, 83
2, 37509, Note_on_c, 0, 76, 84
2, 37525, Note_on_c, 0, 76, 0
2, 37525, Note_on_c, 0, 82, 0
2, 37525, Note_on_c, 0, 70, 0
2, 37527, Note_on_c, 0, 61, 0
2, 37531, Note_on_c, 0, 79, 0
2, 37565, Note_on_c, 0, 50, 94
2, 37596, Note_on_c, 0, 50, 0
2, 37632, Note_on_c, 0, 74, 74
2, 37632, Note_on_c, 0, 62, 79
2, 37632, Note_on_c, 0, 79, 76
2, 37633, Note_on_c, 0, 71, 91
2, 37634, Note_on_c, 0, 83, 79
2, 37637, Note_on_c, 0, 67, 74
2, 37638, Note_on_c, 0, 78, 80
2, 37644, Note_on_c, 0, 78, 0
2, 37731, Note_on_c, 0, 83, 0
2, 37736, Note_on_c, 0, 71, 0
2, 37736, Note_on_c, 0, 67, 0
2, 37738, Note_on_c, 0, 79, 0
2, 37740, Note_on_c, 0, 62, 0
2, 37740, Note_on_c, 0, 74, 0
2, 37752, Note_on_c, 0, 62, 87
2, 37754, Note_on_c, 0, 83, 86
2, 37755, Note_on_c, 0, 74, 95
2, 37755, Note_on_c, 0, 71, 95
2, 37756, Note_on_c, 0, 67, 79
2, 37756, Note_on_c, 0, 79, 81
2, 37774, Note_on_c, 0, 67, 0
2, 37777, Note_on_c, 0, 71, 0
2, 37777, Note_on_c, 0, 74, 0
2, 37781, Note_on_c, 0, 62, 0
2, 37783, Note_on_c, 0, 79, 0
2, 37784, Note_on_c, 0, 83, 0
2, 37817, Note_on_c, 0, 50, 95
2, 37842, Note_on_c, 0, 50, 0
2, 37876, Note_on_c, 0, 84, 86
2, 37877, Note_on_c, 0, 62, 75
2, 37877, Note_on_c, 0, 72, 81
2, 37878, Note_on_c, 0, 78, 97
2, 37900, Note_on_c, 0, 62, 0
2, 37901, Note_on_c, 0, 84, 0
2, 37902, Note_on_c, 0, 72, 0
2, 37902, Note_on_c, 0, 78, 0
2, 37935, Note_on_c, 0, 50, 78
2, 37962, Note_on_c, 0, 50, 0
2, 37994, Note_on_c, 0, 62, 68
2, 37995, Note_on_c, 0, 72, 44
2, 37997, Note_on_c, 0, 81, 77
2, 37997, Note_on_c, 0, 78, 83
2, 38014, Note_on_c, 0, 62, 0
2, 38018, Note_on_c, 0, 78, 0
2, 38020, Note_on_c, 0, 72, 0
2, 38023, Note_on_c, 0, 81, 0
2, 38056, Note_on_c, 0, 55, 80
2, 38057, Note_on_c, 0, 43, 85
2, 38127, Note_on_c, 0, 79, 92
2, 38188, Note_on_c, 0, 43, 0
2, 38188, Note_on_c, 0, 55, 0
2, 38234, Note_on_c, 0, 74, 69
2, 38239, Note_on_c, 0, 79, 0
2, 38250, Note_on_c, 0, 71, 76
2, 38264, Note_on_c, 0, 74, 0
2, 38269, Note_on_c, 0, 67, 69
2, 38282, Note_on_c, 0, 71, 0
2, 38305, Note_on_c, 0, 67, 0
2, 38320, Note_on_c, 0, 55, 76
2, 38354, Note_on_c, 0, 55, 0
2, 38392, Note_on_c, 0, 79, 76
2, 38392, Note_on_c, 0, 64, 72
2, 38392, Note_on_c, 0, 70, 73
2, 38392, Note_on_c, 0, 61, 77
2, 38392, Note_on_c, 0, 73, 71
2, 38394, Note_on_c, 0, 58, 69
2, 38396, Note_on_c, 0, 67, 45
2, 38400, Note_on_c, 0, 58, 0
2, 38402, Note_on_c, 0, 61, 0
2, 38413, Note_on_c, 0, 64, 0
2, 38416, Note_on_c, 0, 73, 0
2, 38418, Note_on_c, 0, 67, 0
2, 38419, Note_on_c, 0, 79, 0
2, 38419, Note_on_c, 0, 70, 0
2, 38464, Note_on_c, 0, 55, 58
2, 38502, Note_on_c, 0, 55, 0
2, 38524, Note_on_c, 0, 77, 77
2, 38527, Note_on_c, 0, 70, 67
2, 38528, Note_on_c, 0, 73, 78
2, 38528, Note_on_c, 0, 67, 11
2, 38529, Note_on_c, 0, 64, 44
2, 38529, Note_on_c, 0, 61, 89
2, 38543, Note_on_c, 0, 61, 0
2, 38544, Note_on_c, 0, 64, 0
2, 38545, Note_on_c, 0, 73, 0
2, 38545, Note_on_c, 0, 77, 0
2, 38546, Note_on_c, 0, 70, 0
2, 38548, Note_on_c, 0, 67, 0
2, 38588, Note_on_c, 0, 55, 63
2, 38621, Note_on_c, 0, 55, 0
2, 38647, Note_on_c, 0, 76, 79
2, 38650, Note_on_c, 0, 64, 75
2, 38651, Note_on_c, 0, 61, 91
2, 38652, Note_on_c, 0, 73, 80
2, 38652, Note_on_c, 0, 67, 33
2, 38652, Note_on_c, 0, 70, 71
2, 38663, Note_on_c, 0, 70, 0
2, 38667, Note_on_c, 0, 61, 0
2, 38668, Note_on_c, 0, 73, 0
2, 38668, Note_on_c, 0, 67, 0
2, 38668, Note_on_c, 0, 64, 0
2, 38684, Note_on_c, 0, 76, 0
2, 38714, Note_on_c, 0, 55, 51
2, 38743, Note_on_c, 0, 55, 0
2, 38772, Note_on_c, 0, 76, 71
2, 38775, Note_on_c, 0, 67, 49
2, 38776, Note_on_c, 0, 64, 77
2, 38776, Note_on_c, 0, 60, 84
2, 38777, Note_on_c, 0, 72, 64
2, 38777, Note_on_c, 0, 70, 77
2, 38791, Note_on_c, 0, 70, 0
2, 38793, Note_on_c, 0, 67, 0
2, 38796, Note_on_c, 0, 72, 0
2, 38798, Note_on_c, 0, 60, 0
2, 38798, Note_on_c, 0, 64, 0
2, 38799, Note_on_c, 0, 76, 0
2, 38835, Note_on_c, 0, 53, 73
2, 38867, Note_on_c, 0, 53, 0
2, 38895, Note_on_c, 0, 84, 78
2, 38896, Note_on_c, 0, 65, 60
2, 38897, Note_on_c, 0, 60, 86
2, 38898, Note_on_c, 0, 77, 75
2, 38899, Note_on_c, 0, 72, 52
2, 38919, Note_on_c, 0, 65, 0
2, 38920, Note_on_c, 0, 60, 0
2, 38924, Note_on_c, 0, 77, 0
2, 38925, Note_on_c, 0, 84, 0
2, 38926, Note_on_c, 0, 72, 0
2, 38956, Note_on_c, 0, 52, 79
2, 38988, Note_on_c, 0, 52, 0
2, 39018, Note_on_c, 0, 82, 91
2, 39018, Note_on_c, 0, 64, 64
2, 39019, Note_on_c, 0, 60, 86
2, 39019, Note_on_c, 0, 70, 76
2, 39020, Note_on_c, 0, 72, 69
2, 39022, Note_on_c, 0, 76, 71
2, 39042, Note_on_c, 0, 76, 0
2, 39042, Note_on_c, 0, 60, 0
2, 39042, Note_on_c, 0, 70, 0
2, 39043, Note_on_c, 0, 82, 0
2, 39045, Note_on_c, 0, 72, 0
2, 39047, Note_on_c, 0, 64, 0
2, 39082, Note_on_c, 0, 53, 83
2, 39111, Note_on_c, 0, 53, 0
2, 39144, Note_on_c, 0, 81, 66
2, 39144, Note_on_c, 0, 72, 61
2, 39145, Note_on_c, 0, 65, 53
2, 39146, Note_on_c, 0, 60, 89
2, 39146, Note_on_c, 0, 69, 70
2, 39148, Note_on_c, 0, 77, 78
2, 39165, Note_on_c, 0, 69, 0
2, 39167, Note_on_c, 0, 72, 0
2, 39169, Note_on_c, 0, 81, 0
2, 39169, Note_on_c, 0, 65, 0
2, 39169, Note_on_c, 0, 77, 0
2, 39170, Note_on_c, 0, 60, 0
2, 39203, Note_on_c, 0, 53, 80
2, 39232, Note_on_c, 0, 53, 0
2, 39264, Note_on_c, 0, 61, 96
2, 39264, Note_on_c, 0, 69, 76
2, 39265, Note_on_c, 0, 81, 74
2, 39265, Note_on_c, 0, 73, 88
2, 39266, Note_on_c, 0, 65, 61
2, 39267, Note_on_c, 0, 77, 85
2, 39286, Note_on_c, 0, 69, 0
2, 39288, Note_on_c, 0, 65, 0
2, 39288, Note_on_c, 0, 73, 0
2, 39289, Note_on_c, 0, 61, 0
2, 39292, Note_on_c, 0, 81, 0
2, 39294, Note_on_c, 0, 77, 0
2, 39322, Note_on_c, 0, 53, 84
2, 39353, Note_on_c, 0, 53, 0
2, 39385, Note_on_c, 0, 62, 84
2, 39385, Note_on_c, 0, 69, 69
2, 39386, Note_on_c, 0, 77, 85
2, 39386, Note_on_c, 0, 74, 76
2, 39386, Note_on_c, 0, 65, 69
2, 39387, Note_on_c, 0, 81, 72
2, 39404, Note_on_c, 0, 81, 0
2, 39409, Note_on_c, 0, 74, 0
2, 39409, Note_on_c, 0, 62, 0
2, 39409, Note_on_c, 0, 65, 0
2, 39410, Note_on_c, 0, 69, 0
2, 39412, Note_on_c, 0, 77, 0
2, 39441, Note_on_c, 0, 53, 89
2, 39471, Note_on_c, 0, 53, 0
2, 39504, Note_on_c, 0, 79, 76
2, 39504, Note_on_c, 0, 67, 71
2, 39504, Note_on_c, 0, 70, 94
2, 39505, Note_on_c, 0, 73, 92
2, 39506, Note_on_c, 0, 61, 100
2, 39506, Note_on_c, 0, 64, 75
2, 39507, Note_on_c, 0, 76, 84
2, 39508, Note_on_c, 0, 58, 89
2, 39525, Note_on_c, 0, 79, 0
2, 39526, Note_on_c, 0, 58, 0
2, 39527, Note_on_c, 0, 73, 0
2, 39528, Note_on_c, 0, 70, 0
2, 39528, Note_on_c, 0, 67, 0
2, 39528, Note_on_c, 0, 64, 0
2, 39531, Note_on_c, 0, 61, 0
2, 39535, Note_on_c, 0, 76, 0
2, 39564, Note_on_c, 0, 53, 85
2, 39597, Note_on_c, 0, 53, 0
2, 39620, Note_on_c, 0, 62, 84
2, 39621, Note_on_c, 0, 77, 75
2, 39622, Note_on_c, 0, 57, 94
2, 39623, Note_on_c, 0, 69, 80
2, 39623, Note_on_c, 0, 74, 84
2, 39624, Note_on_c, 0, 65, 84
2, 39639, Note_on_c, 0, 62, 0
2, 39644, Note_on_c, 0, 57, 0
2, 39645, Note_on_c, 0, 77, 0
2, 39646, Note_on_c, 0, 65, 0
2, 39649, Note_on_c, 0, 69, 0
2, 39653, Note_on_c, 0, 74, 0
2, 39685, Note_on_c, 0, 41, 71
2, 39716, Note_on_c, 0, 41, 0
2, 39738, Note_on_c, 0, 76, 89
2, 39739, Note_on_c, 0, 70, 97
2, 39740, Note_on_c, 0, 67, 85
2, 39740, Note_on_c, 0, 64, 80
2, 39740, Note_on_c, 0, 55, 76
2, 39741, Note_on_c, 0, 58, 102
2, 39743, Note_on_c, 0, 73, 89
2, 39755, Note_on_c, 0, 58, 0
2, 39756, Note_on_c, 0, 55, 0
2, 39760, Note_on_c, 0, 73, 0
2, 39766, Note_on_c, 0, 76, 0
2, 39771, Note_on_c, 0, 70, 0
2, 39772, Note_on_c, 0, 67, 0
2, 39775, Note_on_c, 0, 64, 0
2, 39797, Note_on_c, 0, 41, 94
2, 39819, Note_on_c, 0, 41, 0
2, 39856, Note_on_c, 0, 74, 85
2, 39856, Note_on_c, 0, 53, 91
2, 39856, Note_on_c, 0, 65, 84
2, 39856, Note_on_c, 0, 62, 85
2, 39857, Note_on_c, 0, 57, 96
2, 39857, Note_on_c, 0, 69, 77
2, 39877, Note_on_c, 0, 57, 0
2, 39880, Note_on_c, 0, 53, 0
2, 39881, Note_on_c, 0, 74, 0
2, 39886, Note_on_c, 0, 62, 0
2, 39886, Note_on_c, 0, 65, 0
2, 39888, Note_on_c, 0, 69, 0
2, 39914, Note_on_c, 0, 42, 106
2, 39938, Note_on_c, 0, 42, 0
2, 39976, Note_on_c, 0, 54, 95
2, 39977, Note_on_c, 0, 63, 97
2, 39978, Note_on_c, 0, 69, 97
2, 39978, Note_on_c, 0, 72, 85
2, 39978, Note_on_c, 0, 60, 86
2, 39978, Note_on_c, 0, 57, 95
2, 39979, Note_on_c, 0, 66, 98
2, 39998, Note_on_c, 0, 57, 0
2, 40000, Note_on_c, 0, 54, 0
2, 40006, Note_on_c, 0, 72, 0
2, 40010, Note_on_c, 0, 66, 0
2, 40011, Note_on_c, 0, 60, 0
2, 40012, Note_on_c, 0, 63, 0
2, 40013, Note_on_c, 0, 69, 0
2, 40040, Note_on_c, 0, 43, 96
2, 40065, Note_on_c, 0, 43, 0
2, 40106, Note_on_c, 0, 55, 99
2, 40106, Note_on_c, 0, 62, 98
2, 40107, Note_on_c, 0, 67, 91
2, 40107, Note_on_c, 0, 71, 94
2, 40107, Note_on_c, 0, 59, 105
2, 40156, Control_c, 0, 64, 127
2, 40233, Note_on_c, 0, 53, 79
2, 40245, Note_on_c, 0, 55, 0
2, 40248, Note_on_c, 0, 52, 78
2, 40258, Control_c, 0, 64, 0
2, 40264, Note_on_c, 0, 67, 0
2, 40269, Note_on_c, 0, 50, 72
2, 40270, Note_on_c, 0, 59, 0
2, 40273, Note_on_c, 0, 62, 0
2, 40278, Note_on_c, 0, 71, 0
2, 40284, Note_on_c, 0, 53, 0
2, 40291, Note_on_c, 0, 48, 72
2, 40298, Note_on_c, 0, 52, 0
2, 40322, Note_on_c, 0, 48, 0
2, 40333, Note_on_c, 0, 50, 0
2, 40366, Note_on_c, 0, 72, 76
2, 40366, Note_on_c, 0, 60, 81
2, 40370, Note_on_c, 0, 67, 56
2, 40372, Note_on_c, 0, 64, 54
2, 40394, Note_on_c, 0, 72, 0
2, 40395, Note_on_c, 0, 67, 0
2, 40396, Note_on_c, 0, 64, 0
2, 40397, Note_on_c, 0, 60, 0
2, 40428, Note_on_c, 0, 48, 74
2, 40456, Note_on_c, 0, 48, 0
2, 40490, Note_on_c, 0, 67, 53
2, 40490, Note_on_c, 0, 62, 76
2, 40490, Note_on_c, 0, 65, 58
2, 40492, Note_on_c, 0, 71, 73
2, 40513, Note_on_c, 0, 65, 0
2, 40513, Note_on_c, 0, 67, 0
2, 40514, Note_on_c, 0, 71, 0
2, 40516, Note_on_c, 0, 62, 0
2, 40548, Note_on_c, 0, 48, 80
2, 40580, Note_on_c, 0, 48, 0
2, 40613, Note_on_c, 0, 72, 78
2, 40613, Note_on_c, 0, 60, 70
2, 40615, Note_on_c, 0, 67, 58
2, 40616, Note_on_c, 0, 64, 42
2, 40634, Note_on_c, 0, 64, 0
2, 40636, Note_on_c, 0, 67, 0
2, 40638, Note_on_c, 0, 60, 0
2, 40640, Note_on_c, 0, 72, 0
2, 40671, Note_on_c, 0, 48, 88
2, 40702, Note_on_c, 0, 48, 0
2, 40734, Note_on_c, 0, 74, 75
2, 40734, Note_on_c, 0, 59, 55
2, 40736, Note_on_c, 0, 65, 38
2, 40736, Note_on_c, 0, 67, 61
2, 40756, Note_on_c, 0, 65, 0
2, 40758, Note_on_c, 0, 67, 0
2, 40758, Note_on_c, 0, 74, 0
2, 40763, Note_on_c, 0, 59, 0
2, 40792, Note_on_c, 0, 48, 90
2, 40820, Note_on_c, 0, 48, 0
2, 40854, Note_on_c, 0, 58, 86
2, 40856, Note_on_c, 0, 72, 57
2, 40857, Note_on_c, 0, 67, 26
2, 40858, Note_on_c, 0, 76, 78
2, 40873, Note_on_c, 0, 58, 0
2, 40879, Note_on_c, 0, 72, 0
2, 40881, Note_on_c, 0, 76, 0
2, 40882, Note_on_c, 0, 67, 0
2, 40912, Note_on_c, 0, 48, 89
2, 40940, Note_on_c, 0, 48, 0
2, 40972, Note_on_c, 0, 77, 76
2, 40973, Note_on_c, 0, 57, 85
2, 40973, Note_on_c, 0, 65, 69
2, 40974, Note_on_c, 0, 72, 75
2, 40993, Note_on_c, 0, 57, 0
2, 40994, Note_on_c, 0, 77, 0
2, 40997, Note_on_c, 0, 65, 0
2, 40998, Note_on_c, 0, 72, 0
2, 41030, Note_on_c, 0, 48, 76
2, 41058, Note_on_c, 0, 48, 0
2, 41092, Note_on_c, 0, 56, 91
2, 41093, Note_on_c, 0, 65, 41
2, 41094, Note_on_c, 0, 72, 66
2, 41096, Note_on_c, 0, 74, 75
2, 41111, Note_on_c, 0, 56, 0
2, 41116, Note_on_c, 0, 72, 0
2, 41118, Note_on_c, 0, 65, 0
2, 41118, Note_on_c, 0, 74, 0
2, 41150, Note_on_c, 0, 48, 71
2, 41182, Note_on_c, 0, 48, 0
2, 41215, Note_on_c, 0, 55, 72
2, 41216, Note_on_c, 0, 65, 31
2, 41217, Note_on_c, 0, 74, 72
2, 41217, Note_on_c, 0, 71, 62
2, 41237, Note_on_c, 0, 55, 0
2, 41238, Note_on_c, 0, 71, 0
2, 41239, Note_on_c, 0, 65, 0
2, 41251, Note_on_c, 0, 74, 0
2, 41274, Note_on_c, 0, 53, 74
2, 41306, Note_on_c, 0, 53, 0
2, 41334, Note_on_c, 0, 62, 74
2, 41336, Note_on_c, 0, 59, 61
2, 41337, Note_on_c, 0, 74, 61
2, 41338, Note_on_c, 0, 71, 70
2, 41339, Note_on_c, 0, 79, 76
2, 41339, Note_on_c, 0, 67, 37
2, 41360, Note_on_c, 0, 59, 0
2, 41361, Note_on_c, 0, 62, 0
2, 41367, Note_on_c, 0, 79, 0
2, 41367, Note_on_c, 0, 74, 0
2, 41368, Note_on_c, 0, 71, 0
2, 41368, Note_on_c, 0, 67, 0
2, 41397, Note_on_c, 0, 52, 84
2, 41424, Note_on_c, 0, 52, 0
2, 41460, Note_on_c, 0, 79, 73
2, 41462, Note_on_c, 0, 70, 67
2, 41462, Note_on_c, 0, 61, 92
2, 41462, Note_on_c, 0, 73, 61
2, 41463, Note_on_c, 0, 67, 44
2, 41464, Note_on_c, 0, 58, 80
2, 41464, Note_on_c, 0, 64, 72
2, 41477, Note_on_c, 0, 58, 0
2, 41478, Note_on_c, 0, 61, 0
2, 41481, Note_on_c, 0, 64, 0
2, 41483, Note_on_c, 0, 73, 0
2, 41484, Note_on_c, 0, 70, 0
2, 41487, Note_on_c, 0, 67, 0
2, 41492, Note_on_c, 0, 79, 0
2, 41518, Note_on_c, 0, 53, 76
2, 41548, Note_on_c, 0, 53, 0
2, 41582, Note_on_c, 0, 79, 80
2, 41583, Note_on_c, 0, 64, 64
2, 41584, Note_on_c, 0, 70, 78
2, 41584, Note_on_c, 0, 67, 69
2, 41584, Note_on_c, 0, 61, 98
2, 41585, Note_on_c, 0, 58, 94
2, 41586, Note_on_c, 0, 73, 57
2, 41598, Note_on_c, 0, 61, 0
2, 41601, Note_on_c, 0, 73, 0
2, 41603, Note_on_c, 0, 58, 0
2, 41605, Note_on_c, 0, 64, 0
2, 41607, Note_on_c, 0, 79, 0
2, 41608, Note_on_c, 0, 70, 0
2, 41610, Note_on_c, 0, 67, 0
2, 41642, Note_on_c, 0, 53, 76
2, 41665, Note_on_c, 0, 53, 0
2, 41698, Note_on_c, 0, 62, 67
2, 41700, Note_on_c, 0, 69, 68
2, 41701, Note_on_c, 0, 77, 84
2, 41702, Note_on_c, 0, 74, 78
2, 41702, Note_on_c, 0, 65, 58
2, 41702, Note_on_c, 0, 57, 86
2, 41720, Note_on_c, 0, 77, 0
2, 41720, Note_on_c, 0, 62, 0
2, 41723, Note_on_c, 0, 57, 0
2, 41727, Note_on_c, 0, 65, 0
2, 41728, Note_on_c, 0, 69, 0
2, 41731, Note_on_c, 0, 74, 0
2, 41758, Note_on_c, 0, 43, 96
2, 41778, Note_on_c, 0, 43, 0
2, 41819, Note_on_c, 0, 55, 75
2, 41820, Note_on_c, 0, 76, 83
2, 41820, Note_on_c, 0, 60, 89
2, 41822, Note_on_c, 0, 64, 75
2, 41822, Note_on_c, 0, 67, 78
2, 41838, Note_on_c, 0, 60, 0
2, 41844, Note_on_c, 0, 55, 0
2, 41852, Note_on_c, 0, 76, 0
2, 41856, Note_on_c, 0, 64, 0
2, 41858, Note_on_c, 0, 67, 0
2, 41878, Note_on_c, 0, 43, 90
2, 41899, Note_on_c, 0, 43, 0
2, 41937, Note_on_c, 0, 55, 84
2, 41938, Note_on_c, 0, 59, 86
2, 41939, Note_on_c, 0, 74, 71
2, 41942, Note_on_c, 0, 67, 76
2, 41942, Note_on_c, 0, 65, 64
2, 41961, Note_on_c, 0, 59, 0
2, 41962, Note_on_c, 0, 55, 0
2, 41966, Note_on_c, 0, 65, 0
2, 41969, Note_on_c, 0, 67, 0
2, 41971, Note_on_c, 0, 74, 0
2, 41996, Note_on_c, 0, 48, 101
2, 42066, Note_on_c, 0, 72, 95
2, 42109, Note_on_c, 0, 48, 0
2, 42171, Note_on_c, 0, 67, 52
2, 42178, Note_on_c, 0, 72, 0
2, 42188, Note_on_c, 0, 64, 60
2, 42200, Note_on_c, 0, 67, 0
2, 42207, Note_on_c, 0, 60, 73
2, 42228, Note_on_c, 0, 64, 0
2, 42238, Note_on_c, 0, 60, 0
2, 42255, Note_on_c, 0, 43, 88
2, 42280, Note_on_c, 0, 43, 0
2, 42319, Note_on_c, 0, 59, 70
2, 42320, Note_on_c, 0, 53, 53
2, 42321, Note_on_c, 0, 50, 35
2, 42344, Note_on_c, 0, 50, 0
2, 42348, Note_on_c, 0, 53, 0
2, 42348, Note_on_c, 0, 59, 0
2, 42381, Note_on_c, 0, 36, 84
2, 42403, Note_on_c, 0, 36, 0
2, 42443, Note_on_c, 0, 60, 84
2, 42446, Note_on_c, 0, 55, 74
2, 42448, Note_on_c, 0, 52, 54
2, 42467, Note_on_c, 0, 52, 0
2, 42468, Note_on_c, 0, 55, 0
2, 42470, Note_on_c, 0, 60, 0
2, 42505, Note_on_c, 0, 45, 86
2, 42529, Note_on_c, 0, 45, 0
2, 42562, Note_on_c, 0, 52, 64
2, 42564, Note_on_c, 0, 61, 96
2, 42565, Note_on_c, 0, 55, 84
2, 42585, Note_on_c, 0, 52, 0
2, 42586, Note_on_c, 0, 55, 0
2, 42588, Note_on_c, 0, 61, 0
2, 42622, Note_on_c, 0, 38, 79
2, 42640, Note_on_c, 0, 38, 0
2, 42681, Note_on_c, 0, 62, 81
2, 42683, Note_on_c, 0, 57, 85
2, 42684, Note_on_c, 0, 53, 81
2, 42706, Note_on_c, 0, 62, 0
2, 42707, Note_on_c, 0, 53, 0
2, 42708, Note_on_c, 0, 57, 0
2, 42744, Note_on_c, 0, 47, 98
2, 42770, Note_on_c, 0, 47, 0
2, 42806, Note_on_c, 0, 63, 98
2, 42807, Note_on_c, 0, 54, 102
2, 42808, Note_on_c, 0, 57, 90
2, 42829, Note_on_c, 0, 57, 0
2, 42829, Note_on_c, 0, 54, 0
2, 42832, Note_on_c, 0, 63, 0
2, 42865, Note_on_c, 0, 40, 92
2, 42896, Note_on_c, 0, 40, 0
2, 42930, Note_on_c, 0, 64, 78
2, 42931, Note_on_c, 0, 55, 70
2, 42932, Note_on_c, 0, 59, 77
2, 42958, Note_on_c, 0, 55, 0
2, 42958, Note_on_c, 0, 64, 0
2, 42960, Note_on_c, 0, 59, 0
2, 42990, Note_on_c, 0, 38, 68
2, 42992, Note_on_c, 0, 50, 71
2, 43004, Control_c, 0, 64, 127
2, 43058, Note_on_c, 0, 59, 81
2, 43058, Note_on_c, 0, 55, 85
2, 43058, Note_on_c, 0, 65, 71
2, 43091, Note_on_c, 0, 55, 0
2, 43093, Note_on_c, 0, 65, 0
2, 43094, Note_on_c, 0, 59, 0
2, 43129, Note_on_c, 0, 59, 79
2, 43130, Note_on_c, 0, 55, 80
2, 43132, Note_on_c, 0, 65, 71
2, 43156, Note_on_c, 0, 38, 0
2, 43159, Note_on_c, 0, 55, 0
2, 43162, Note_on_c, 0, 65, 0
2, 43162, Note_on_c, 0, 59, 0
2, 43170, Note_on_c, 0, 50, 0
2, 43198, Note_on_c, 0, 59, 77
2, 43200, Note_on_c, 0, 65, 70
2, 43200, Note_on_c, 0, 55, 78
2, 43211, Control_c, 0, 64, 0
2, 43226, Note_on_c, 0, 55, 0
2, 43227, Note_on_c, 0, 65, 0
2, 43228, Note_on_c, 0, 59, 0
2, 43265, Note_on_c, 0, 36, 44
2, 43301, Note_on_c, 0, 36, 0
2, 43330, Note_on_c, 0, 59, 75
2, 43330, Note_on_c, 0, 55, 57
2, 43331, Note_on_c, 0, 65, 69
2, 43355, Note_on_c, 0, 65, 0
2, 43358, Note_on_c, 0, 55, 0
2, 43358, Note_on_c, 0, 59, 0
2, 43394, Note_on_c, 0, 48, 89
2, 43422, Note_on_c, 0, 48, 0
2, 43455, Note_on_c, 0, 55, 61
2, 43455, Note_on_c, 0, 60, 84
2, 43459, Note_on_c, 0, 64, 72
2, 43479, Note_on_c, 0, 64, 0
2, 43480, Note_on_c, 0, 60, 0
2, 43481, Note_on_c, 0, 55, 0
2, 43514, Note_on_c, 0, 45, 84
2, 43541, Note_on_c, 0, 45, 0
2, 43574, Note_on_c, 0, 53, 58
2, 43577, Note_on_c, 0, 62, 73
2, 43578, Note_on_c, 0, 60, 86
2, 43598, Note_on_c, 0, 53, 0
2, 43602, Note_on_c, 0, 60, 0
2, 43603, Note_on_c, 0, 62, 0
2, 43637, Note_on_c, 0, 41, 86
2, 43662, Note_on_c, 0, 41, 0
2, 43697, Note_on_c, 0, 57, 66
2, 43698, Note_on_c, 0, 62, 75
2, 43700, Note_on_c, 0, 65, 66
2, 43718, Note_on_c, 0, 65, 0
2, 43719, Note_on_c, 0, 62, 0
2, 43721, Note_on_c, 0, 57, 0
2, 43759, Note_on_c, 0, 43, 63
2, 43784, Note_on_c, 0, 43, 0
2, 43823, Note_on_c, 0, 55, 53
2, 43825, Note_on_c, 0, 64, 71
2, 43826, Note_on_c, 0, 60, 85
2, 43844, Note_on_c, 0, 60, 0
2, 43846, Note_on_c, 0, 64, 0
2, 43849, Note_on_c, 0, 55, 0
2, 43882, Note_on_c, 0, 31, 75
2, 43907, Note_on_c, 0, 31, 0
2, 43946, Note_on_c, 0, 53, 11
2, 43948, Note_on_c, 0, 59, 60
2, 43950, Note_on_c, 0, 62, 71
2, 43968, Note_on_c, 0, 53, 0
2, 43969, Note_on_c, 0, 59, 0
2, 43980, Note_on_c, 0, 62, 0
2, 44009, Note_on_c, 0, 36, 56
2, 44079, Note_on_c, 0, 60, 70
2, 44136, Note_on_c, 0, 36, 0
2, 44141, Note_on_c, 0, 67, 60
2, 44154, Note_on_c, 0, 60, 0
2, 44170, Note_on_c, 0, 67, 0
2, 44216, Note_on_c, 0, 67, 58
2, 44243, Note_on_c, 0, 67, 0
2, 44286, Note_on_c, 0, 55, 37
2, 44322, Note_on_c, 0, 55, 0
2, 44354, Note_on_c, 0, 79, 64
2, 44355, Note_on_c, 0, 67, 24
2, 44355, Note_on_c, 0, 64, 17
2, 44356, Note_on_c, 0, 70, 59
2, 44356, Note_on_c, 0, 73, 72
2, 44370, Note_on_c, 0, 70, 0
2, 44370, Note_on_c, 0, 64, 0
2, 44371, Note_on_c, 0, 73, 0
2, 44376, Note_on_c, 0, 67, 0
2, 44381, Note_on_c, 0, 79, 0
2, 44422, Note_on_c, 0, 55, 68
2, 44453, Note_on_c, 0, 55, 0
2, 44484, Note_on_c, 0, 61, 22
2, 44484, Note_on_c, 0, 77, 74
2, 44485, Note_on_c, 0, 67, 36
2, 44485, Note_on_c, 0, 73, 76
2, 44485, Note_on_c, 0, 64, 41
2, 44495, Note_on_c, 0, 61, 0
2, 44503, Note_on_c, 0, 73, 0
2, 44503, Note_on_c, 0, 67, 0
2, 44505, Note_on_c, 0, 64, 0
2, 44509, Note_on_c, 0, 77, 0
2, 44548, Note_on_c, 0, 55, 60
2, 44585, Note_on_c, 0, 55, 0
2, 44609, Note_on_c, 0, 64, 60
2, 44610, Note_on_c, 0, 76, 70
2, 44611, Note_on_c, 0, 61, 89
2, 44613, Note_on_c, 0, 67, 32
2, 44613, Note_on_c, 0, 73, 81
2, 44614, Note_on_c, 0, 70, 66
2, 44625, Note_on_c, 0, 70, 0
2, 44631, Note_on_c, 0, 67, 0
2, 44632, Note_on_c, 0, 73, 0
2, 44633, Note_on_c, 0, 64, 0
2, 44634, Note_on_c, 0, 61, 0
2, 44636, Note_on_c, 0, 76, 0
2, 44670, Note_on_c, 0, 55, 41
2, 44704, Note_on_c, 0, 55, 0
2, 44736, Note_on_c, 0, 76, 81
2, 44736, Note_on_c, 0, 67, 31
2, 44736, Note_on_c, 0, 64, 68
2, 44737, Note_on_c, 0, 60, 81
2, 44737, Note_on_c, 0, 72, 59
2, 44740, Note_on_c, 0, 70, 77
2, 44752, Note_on_c, 0, 70, 0
2, 44756, Note_on_c, 0, 60, 0
2, 44757, Note_on_c, 0, 67, 0
2, 44758, Note_on_c, 0, 64, 0
2, 44760, Note_on_c, 0, 72, 0
2, 44764, Note_on_c, 0, 76, 0
2, 44798, Note_on_c, 0, 53, 77
2, 44830, Note_on_c, 0, 53, 0
2, 44857, Note_on_c, 0, 84, 74
2, 44860, Note_on_c, 0, 65, 53
2, 44860, Note_on_c, 0, 60, 86
2, 44860, Note_on_c, 0, 77, 62
2, 44863, Note_on_c, 0, 72, 47
2, 44881, Note_on_c, 0, 65, 0
2, 44883, Note_on_c, 0, 60, 0
2, 44886, Note_on_c, 0, 84, 0
2, 44886, Note_on_c, 0, 77, 0
2, 44888, Note_on_c, 0, 72, 0
2, 44919, Note_on_c, 0, 52, 81
2, 44951, Note_on_c, 0, 52, 0
2, 44982, Note_on_c, 0, 60, 86
2, 44982, Note_on_c, 0, 82, 77
2, 44984, Note_on_c, 0, 70, 73
2, 44984, Note_on_c, 0, 64, 72
2, 44985, Note_on_c, 0, 72, 50
2, 44987, Note_on_c, 0, 76, 56
2, 45002, Note_on_c, 0, 82, 0
2, 45004, Note_on_c, 0, 70, 0
2, 45007, Note_on_c, 0, 64, 0
2, 45007, Note_on_c, 0, 60, 0
2, 45007, Note_on_c, 0, 76, 0
2, 45012, Note_on_c, 0, 72, 0
2, 45041, Note_on_c, 0, 53, 78
2, 45067, Note_on_c, 0, 53, 0
2, 45104, Note_on_c, 0, 81, 58
2, 45105, Note_on_c, 0, 72, 62
2, 45106, Note_on_c, 0, 60, 86
2, 45106, Note_on_c, 0, 65, 63
2, 45106, Note_on_c, 0, 69, 57
2, 45109, Note_on_c, 0, 77, 78
2, 45128, Note_on_c, 0, 72, 0
2, 45129, Note_on_c, 0, 69, 0
2, 45129, Note_on_c, 0, 60, 0
2, 45130, Note_on_c, 0, 81, 0
2, 45130, Note_on_c, 0, 65, 0
2, 45132, Note_on_c, 0, 77, 0
2, 45165, Note_on_c, 0, 53, 84
2, 45193, Note_on_c, 0, 53, 0
2, 45226, Note_on_c, 0, 61, 98
2, 45226, Note_on_c, 0, 69, 72
2, 45227, Note_on_c, 0, 73, 86
2, 45228, Note_on_c, 0, 81, 63
2, 45230, Note_on_c, 0, 65, 56
2, 45231, Note_on_c, 0, 77, 78
2, 45251, Note_on_c, 0, 73, 0
2, 45252, Note_on_c, 0, 69, 0
2, 45253, Note_on_c, 0, 61, 0
2, 45254, Note_on_c, 0, 65, 0
2, 45254, Note_on_c, 0, 77, 0
2, 45256, Note_on_c, 0, 81, 0
2, 45288, Note_on_c, 0, 53, 75
2, 45323, Note_on_c, 0, 53, 0
2, 45354, Note_on_c, 0, 62, 81
2, 45354, Note_on_c, 0, 81, 64
2, 45355, Note_on_c, 0, 69, 52
2, 45355, Note_on_c, 0, 74, 71
2, 45356, Note_on_c, 0, 77, 77
2, 45356, Note_on_c, 0, 65, 71
2, 45375, Note_on_c, 0, 81, 0
2, 45376, Note_on_c, 0, 74, 0
2, 45377, Note_on_c, 0, 62, 0
2, 45377, Note_on_c, 0, 69, 0
2, 45378, Note_on_c, 0, 65, 0
2, 45381, Note_on_c, 0, 77, 0
2, 45415, Note_on_c, 0, 53, 76
2, 45446, Note_on_c, 0, 53, 0
2, 45477, Note_on_c, 0, 64, 58
2, 45477, Note_on_c, 0, 79, 72
2, 45478, Note_on_c, 0, 58, 89
2, 45479, Note_on_c, 0, 61, 95
2, 45479, Note_on_c, 0, 67, 54
2, 45480, Note_on_c, 0, 70, 90
2, 45481, Note_on_c, 0, 73, 90
2, 45482, Note_on_c, 0, 76, 81
2, 45496, Note_on_c, 0, 61, 0
2, 45496, Note_on_c, 0, 79, 0
2, 45497, Note_on_c, 0, 58, 0
2, 45499, Note_on_c, 0, 73, 0
2, 45500, Note_on_c, 0, 67, 0
2, 45501, Note_on_c, 0, 64, 0
2, 45504, Note_on_c, 0, 70, 0
2, 45511, Note_on_c, 0, 76, 0
2, 45538, Note_on_c, 0, 53, 80
2, 45574, Note_on_c, 0, 53, 0
2, 45596, Note_on_c, 0, 62, 69
2, 45596, Note_on_c, 0, 77, 72
2, 45598, Note_on_c, 0, 74, 78
2, 45598, Note_on_c, 0, 57, 88
2, 45598, Note_on_c, 0, 69, 74
2, 45600, Note_on_c, 0, 65, 57
2, 45617, Note_on_c, 0, 62, 0
2, 45618, Note_on_c, 0, 77, 0
2, 45621, Note_on_c, 0, 57, 0
2, 45624, Note_on_c, 0, 69, 0
2, 45625, Note_on_c, 0, 65, 0
2, 45627, Note_on_c, 0, 74, 0
2, 45656, Note_on_c, 0, 41, 97
2, 45673, Note_on_c, 0, 41, 0
2, 45716, Note_on_c, 0, 76, 80
2, 45717, Note_on_c, 0, 58, 102
2, 45717, Note_on_c, 0, 55, 79
2, 45718, Note_on_c, 0, 70, 92
2, 45719, Note_on_c, 0, 67, 75
2, 45719, Note_on_c, 0, 64, 78
2, 45722, Note_on_c, 0, 73, 89
2, 45733, Note_on_c, 0, 55, 0
2, 45733, Note_on_c, 0, 58, 0
2, 45737, Note_on_c, 0, 73, 0
2, 45746, Note_on_c, 0, 76, 0
2, 45749, Note_on_c, 0, 70, 0
2, 45750, Note_on_c, 0, 67, 0
2, 45753, Note_on_c, 0, 64, 0
2, 45777, Note_on_c, 0, 41, 96
2, 45794, Note_on_c, 0, 41, 0
2, 45832, Note_on_c, 0, 53, 81
2, 45834, Note_on_c, 0, 57, 85
2, 45836, Note_on_c, 0, 65, 71
2, 45838, Note_on_c, 0, 69, 72
2, 45838, Note_on_c, 0, 62, 85
2, 45840, Note_on_c, 0, 74, 71
2, 45857, Note_on_c, 0, 57, 0
2, 45860, Note_on_c, 0, 53, 0
2, 45862, Note_on_c, 0, 74, 0
2, 45868, Note_on_c, 0, 62, 0
2, 45870, Note_on_c, 0, 65, 0
2, 45873, Note_on_c, 0, 69, 0
2, 45892, Note_on_c, 0, 42, 99
2, 45922, Note_on_c, 0, 42, 0
2, 45952, Note_on_c, 0, 54, 97
2, 45953, Note_on_c, 0, 57, 87
2, 45954, Note_on_c, 0, 72, 81
2, 45955, Note_on_c, 0, 63, 101
2, 45955, Note_on_c, 0, 60, 95
2, 45956, Note_on_c, 0, 69, 86
2, 45956, Note_on_c, 0, 66, 100
2, 45959, Note_on_c, 0, 62, 88
2, 45963, Note_on_c, 0, 62, 0
2, 45975, Note_on_c, 0, 54, 0
2, 45978, Note_on_c, 0, 57, 0
2, 45981, Note_on_c, 0, 72, 0
2, 45984, Note_on_c, 0, 66, 0
2, 45986, Note_on_c, 0, 63, 0
2, 45987, Note_on_c, 0, 60, 0
2, 45988, Note_on_c, 0, 69, 0
2, 46016, Note_on_c, 0, 43, 97
2, 46066, Note_on_c, 0, 43, 0
2, 46082, Note_on_c, 0, 55, 85
2, 46084, Note_on_c, 0, 62, 89
2, 46084, Note_on_c, 0, 71, 79
2, 46085, Note_on_c, 0, 59, 95
2, 46086, Note_on_c, 0, 67, 88
2, 46088, Control_c, 0, 64, 127
2, 46208, Note_on_c, 0, 53, 72
2, 46222, Note_on_c, 0, 55, 0
2, 46225, Note_on_c, 0, 52, 86
2, 46230, Note_on_c, 0, 67, 0
2, 46230, Note_on_c, 0, 59, 0
2, 46232, Note_on_c, 0, 62, 0
2, 46239, Note_on_c, 0, 71, 0
2, 46239, Control_c, 0, 64, 0
2, 46247, Note_on_c, 0, 50, 81
2, 46260, Note_on_c, 0, 53, 0
2, 46267, Note_on_c, 0, 48, 90
2, 46280, Note_on_c, 0, 52, 0
2, 46305, Note_on_c, 0, 48, 0
2, 46306, Note_on_c, 0, 50, 0
2, 46335, Note_on_c, 0, 60, 62
2, 46337, Note_on_c, 0, 72, 75
2, 46340, Note_on_c, 0, 64, 74
2, 46340, Note_on_c, 0, 67, 73
2, 46360, Note_on_c, 0, 64, 0
2, 46364, Note_on_c, 0, 67, 0
2, 46366, Note_on_c, 0, 72, 0
2, 46368, Note_on_c, 0, 60, 0
2, 46398, Note_on_c, 0, 48, 92
2, 46427, Note_on_c, 0, 48, 0
2, 46460, Note_on_c, 0, 62, 79
2, 46461, Note_on_c, 0, 67, 61
2, 46462, Note_on_c, 0, 65, 64
2, 46464, Note_on_c, 0, 71, 70
2, 46483, Note_on_c, 0, 65, 0
2, 46484, Note_on_c, 0, 67, 0
2, 46486, Note_on_c, 0, 71, 0
2, 46496, Note_on_c, 0, 62, 0
2, 46518, Note_on_c, 0, 48, 87
2, 46548, Note_on_c, 0, 48, 0
2, 46580, Note_on_c, 0, 72, 68
2, 46580, Note_on_c, 0, 60, 58
2, 46584, Note_on_c, 0, 64, 54
2, 46584, Note_on_c, 0, 67, 58
2, 46602, Note_on_c, 0, 64, 0
2, 46604, Note_on_c, 0, 67, 0
2, 46605, Note_on_c, 0, 72, 0
2, 46609, Note_on_c, 0, 60, 0
2, 46641, Note_on_c, 0, 48, 85
2, 46668, Note_on_c, 0, 48, 0
2, 46702, Note_on_c, 0, 74, 60
2, 46703, Note_on_c, 0, 59, 64
2, 46704, Note_on_c, 0, 65, 46
2, 46706, Note_on_c, 0, 67, 68
2, 46724, Note_on_c, 0, 67, 0
2, 46724, Note_on_c, 0, 65, 0
2, 46728, Note_on_c, 0, 74, 0
2, 46731, Note_on_c, 0, 59, 0
2, 46761, Note_on_c, 0, 48, 88
2, 46786, Note_on_c, 0, 48, 0
2, 46823, Note_on_c, 0, 58, 87
2, 46826, Note_on_c, 0, 72, 67
2, 46826, Note_on_c, 0, 67, 46
2, 46827, Note_on_c, 0, 76, 68
2, 46842, Note_on_c, 0, 58, 0
2, 46848, Note_on_c, 0, 72, 0
2, 46849, Note_on_c, 0, 76, 0
2, 46851, Note_on_c, 0, 67, 0
2, 46882, Note_on_c, 0, 48, 87
2, 46910, Note_on_c, 0, 48, 0
2, 46945, Note_on_c, 0, 77, 74
2, 46945, Note_on_c, 0, 57, 85
2, 46947, Note_on_c, 0, 65, 58
2, 46947, Note_on_c, 0, 72, 68
2, 46965, Note_on_c, 0, 57, 0
2, 46970, Note_on_c, 0, 77, 0
2, 46971, Note_on_c, 0, 72, 0
2, 46972, Note_on_c, 0, 65, 0
2, 47002, Note_on_c, 0, 48, 80
2, 47032, Note_on_c, 0, 48, 0
2, 47066, Note_on_c, 0, 65, 42
2, 47066, Note_on_c, 0, 56, 95
2, 47067, Note_on_c, 0, 72, 63
2, 47068, Note_on_c, 0, 74, 56
2, 47086, Note_on_c, 0, 56, 0
2, 47091, Note_on_c, 0, 74, 0
2, 47091, Note_on_c, 0, 72, 0
2, 47093, Note_on_c, 0, 65, 0
2, 47124, Note_on_c, 0, 48, 78
2, 47154, Note_on_c, 0, 48, 0
2, 47186, Note_on_c, 0, 55, 85
2, 47189, Note_on_c, 0, 65, 35
2, 47190, Note_on_c, 0, 71, 67
2, 47191, Note_on_c, 0, 74, 57
2, 47208, Note_on_c, 0, 55, 0
2, 47211, Note_on_c, 0, 65, 0
2, 47212, Note_on_c, 0, 71, 0
2, 47220, Note_on_c, 0, 74, 0
2, 47248, Note_on_c, 0, 53, 76
2, 47276, Note_on_c, 0, 53, 0
2, 47310, Note_on_c, 0, 59, 73
2, 47311, Note_on_c, 0, 62, 72
2, 47314, Note_on_c, 0, 71, 64
2, 47314, Note_on_c, 0, 74, 55
2, 47316, Note_on_c, 0, 79, 77
2, 47317, Note_on_c, 0, 67, 33
2, 47334, Note_on_c, 0, 62, 0
2, 47336, Note_on_c, 0, 59, 0
2, 47340, Note_on_c, 0, 79, 0
2, 47340, Note_on_c, 0, 67, 0
2, 47342, Note_on_c, 0, 74, 0
2, 47342, Note_on_c, 0, 71, 0
2, 47371, Note_on_c, 0, 52, 79
2, 47400, Note_on_c, 0, 52, 0
2, 47438, Note_on_c, 0, 64, 77
2, 47438, Note_on_c, 0, 61, 96
2, 47438, Note_on_c, 0, 67, 63
2, 47438, Note_on_c, 0, 79, 76
2, 47439, Note_on_c, 0, 70, 87
2, 47440, Note_on_c, 0, 73, 73
2, 47441, Note_on_c, 0, 58, 84
2, 47454, Note_on_c, 0, 58, 0
2, 47454, Note_on_c, 0, 61, 0
2, 47457, Note_on_c, 0, 73, 0
2, 47458, Note_on_c, 0, 64, 0
2, 47458, Note_on_c, 0, 70, 0
2, 47459, Note_on_c, 0, 67, 0
2, 47466, Note_on_c, 0, 79, 0
2, 47495, Note_on_c, 0, 53, 77
2, 47524, Note_on_c, 0, 53, 0
2, 47556, Note_on_c, 0, 61, 97
2, 47557, Note_on_c, 0, 73, 86
2, 47557, Note_on_c, 0, 70, 86
2, 47557, Note_on_c, 0, 64, 77
2, 47558, Note_on_c, 0, 79, 80
2, 47558, Note_on_c, 0, 58, 94
2, 47558, Note_on_c, 0, 67, 68
2, 47576, Note_on_c, 0, 79, 0
2, 47576, Note_on_c, 0, 73, 0
2, 47576, Note_on_c, 0, 61, 0
2, 47577, Note_on_c, 0, 70, 0
2, 47577, Note_on_c, 0, 58, 0
2, 47578, Note_on_c, 0, 64, 0
2, 47584, Note_on_c, 0, 67, 0
2, 47616, Note_on_c, 0, 53, 79
2, 47648, Note_on_c, 0, 53, 0
2, 47672, Note_on_c, 0, 62, 79
2, 47674, Note_on_c, 0, 57, 88
2, 47675, Note_on_c, 0, 69, 67
2, 47675, Note_on_c, 0, 74, 77
2, 47676, Note_on_c, 0, 65, 71
2, 47678, Note_on_c, 0, 77, 69
2, 47694, Note_on_c, 0, 77, 0
2, 47694, Note_on_c, 0, 62, 0
2, 47696, Note_on_c, 0, 57, 0
2, 47700, Note_on_c, 0, 65, 0
2, 47702, Note_on_c, 0, 69, 0
2, 47705, Note_on_c, 0, 74, 0
2, 47734, Note_on_c, 0, 43, 95
2, 47758, Note_on_c, 0, 43, 0
2, 47795, Note_on_c, 0, 55, 79
2, 47796, Note_on_c, 0, 76, 77
2, 47796, Note_on_c, 0, 60, 85
2, 47799, Note_on_c, 0, 67, 73
2, 47799, Note_on_c, 0, 64, 70
2, 47814, Note_on_c, 0, 60, 0
2, 47820, Note_on_c, 0, 55, 0
2, 47827, Note_on_c, 0, 64, 0
2, 47832, Note_on_c, 0, 76, 0
2, 47834, Note_on_c, 0, 67, 0
2, 47853, Note_on_c, 0, 43, 88
2, 47880, Note_on_c, 0, 43, 0
2, 47914, Note_on_c, 0, 55, 85
2, 47914, Note_on_c, 0, 59, 94
2, 47916, Note_on_c, 0, 74, 77
2, 47919, Note_on_c, 0, 67, 76
2, 47919, Note_on_c, 0, 65, 61
2, 47937, Note_on_c, 0, 59, 0
2, 47938, Note_on_c, 0, 55, 0
2, 47940, Note_on_c, 0, 65, 0
2, 47943, Note_on_c, 0, 67, 0
2, 47948, Note_on_c, 0, 74, 0
2, 47977, Note_on_c, 0, 48, 100
2, 48049, Note_on_c, 0, 72, 95
2, 48096, Note_on_c, 0, 48, 0
2, 48148, Note_on_c, 0, 67, 78
2, 48155, Note_on_c, 0, 72, 0
2, 48166, Note_on_c, 0, 64, 81
2, 48175, Note_on_c, 0, 67, 0
2, 48186, Note_on_c, 0, 60, 98
2, 48197, Note_on_c, 0, 64, 0
2, 48210, Note_on_c, 0, 60, 0
2, 48238, Note_on_c, 0, 43, 84
2, 48260, Note_on_c, 0, 43, 0
2, 48300, Note_on_c, 0, 59, 78
2, 48302, Note_on_c, 0, 50, 70
2, 48302, Note_on_c, 0, 53, 78
2, 48322, Note_on_c, 0, 50, 0
2, 48323, Note_on_c, 0, 59, 0
2, 48326, Note_on_c, 0, 53, 0
2, 48362, Note_on_c, 0, 36, 83
2, 48387, Note_on_c, 0, 36, 0
2, 48424, Note_on_c, 0, 60, 87
2, 48424, Note_on_c, 0, 55, 79
2, 48425, Note_on_c, 0, 52, 72
2, 48444, Note_on_c, 0, 52, 0
2, 48445, Note_on_c, 0, 60, 0
2, 48447, Note_on_c, 0, 55, 0
2, 48487, Note_on_c, 0, 45, 87
2, 48514, Note_on_c, 0, 45, 0
2, 48549, Note_on_c, 0, 52, 72
2, 48550, Note_on_c, 0, 61, 95
2, 48551, Note_on_c, 0, 55, 86
2, 48571, Note_on_c, 0, 52, 0
2, 48572, Note_on_c, 0, 55, 0
2, 48572, Note_on_c, 0, 61, 0
2, 48610, Note_on_c, 0, 38, 86
2, 48633, Note_on_c, 0, 38, 0
2, 48671, Note_on_c, 0, 62, 75
2, 48672, Note_on_c, 0, 57, 77
2, 48674, Note_on_c, 0, 53, 67
2, 48694, Note_on_c, 0, 53, 0
2, 48697, Note_on_c, 0, 57, 0
2, 48697, Note_on_c, 0, 62, 0
2, 48734, Note_on_c, 0, 47, 95
2, 48760, Note_on_c, 0, 47, 0
2, 48796, Note_on_c, 0, 54, 84
2, 48797, Note_on_c, 0, 63, 87
2, 48800, Note_on_c, 0, 57, 87
2, 48815, Note_on_c, 0, 54, 0
2, 48816, Note_on_c, 0, 57, 0
2, 48819, Note_on_c, 0, 63, 0
2, 48858, Note_on_c, 0, 40, 92
2, 48893, Note_on_c, 0, 40, 0
2, 48921, Note_on_c, 0, 64, 85
2, 48922, Note_on_c, 0, 55, 83
2, 48922, Note_on_c, 0, 59, 86
2, 48941, Note_on_c, 0, 55, 0
2, 48943, Note_on_c, 0, 64, 0
2, 48944, Note_on_c, 0, 59, 0
2, 48982, Note_on_c, 0, 38, 77
2, 48984, Note_on_c, 0, 50, 77
2, 49003, Control_c, 0, 64, 127
2, 49050, Note_on_c, 0, 65, 68
2, 49050, Note_on_c, 0, 59, 77
2, 49052, Note_on_c, 0, 55, 86
2, 49080, Note_on_c, 0, 55, 0
2, 49084, Note_on_c, 0, 65, 0
2, 49085, Note_on_c, 0, 59, 0
2, 49116, Note_on_c, 0, 59, 87
2, 49117, Note_on_c, 0, 65, 80
2, 49118, Note_on_c, 0, 55, 90
2, 49134, Note_on_c, 0, 38, 0
2, 49150, Note_on_c, 0, 50, 0
2, 49152, Note_on_c, 0, 55, 0
2, 49153, Note_on_c, 0, 65, 0
2, 49154, Note_on_c, 0, 59, 0
2, 49187, Note_on_c, 0, 59, 79
2, 49188, Note_on_c, 0, 55, 84
2, 49190, Note_on_c, 0, 65, 77
2, 49208, Control_c, 0, 64, 0
2, 49233, Note_on_c, 0, 65, 0
2, 49234, Note_on_c, 0, 55, 0
2, 49237, Note_on_c, 0, 59, 0
2, 49252, Note_on_c, 0, 36, 36
2, 49295, Note_on_c, 0, 36, 0
2, 49318, Note_on_c, 0, 55, 59
2, 49319, Note_on_c, 0, 59, 72
2, 49321, Note_on_c, 0, 65, 66
2, 49348, Note_on_c, 0, 59, 0
2, 49348, Note_on_c, 0, 55, 0
2, 49351, Note_on_c, 0, 65, 0
2, 49385, Note_on_c, 0, 48, 86
2, 49413, Note_on_c, 0, 48, 0
2, 49452, Note_on_c, 0, 55, 30
2, 49452, Note_on_c, 0, 60, 75
2, 49454, Note_on_c, 0, 64, 68
2, 49476, Note_on_c, 0, 64, 0
2, 49478, Note_on_c, 0, 60, 0
2, 49480, Note_on_c, 0, 55, 0
2, 49512, Note_on_c, 0, 45, 76
2, 49537, Note_on_c, 0, 45, 0
2, 49575, Note_on_c, 0, 53, 31
2, 49577, Note_on_c, 0, 60, 76
2, 49578, Note_on_c, 0, 62, 57
2, 49600, Note_on_c, 0, 60, 0
2, 49600, Note_on_c, 0, 53, 0
2, 49602, Note_on_c, 0, 62, 0
2, 49640, Note_on_c, 0, 41, 84
2, 49664, Note_on_c, 0, 41, 0
2, 49701, Note_on_c, 0, 57, 51
2, 49703, Note_on_c, 0, 62, 75
2, 49705, Note_on_c, 0, 65, 66
2, 49726, Note_on_c, 0, 65, 0
2, 49728, Note_on_c, 0, 62, 0
2, 49729, Note_on_c, 0, 57, 0
2, 49769, Note_on_c, 0, 43, 67
2, 49792, Note_on_c, 0, 43, 0
2, 49832, Note_on_c, 0, 55, 31
2, 49835, Note_on_c, 0, 60, 81
2, 49835, Note_on_c, 0, 64, 67
2, 49854, Note_on_c, 0, 60, 0
2, 49855, Note_on_c, 0, 64, 0
2, 49856, Note_on_c, 0, 55, 0
2, 49894, Note_on_c, 0, 31, 75
2, 49916, Note_on_c, 0, 31, 0
2, 49958, Note_on_c, 0, 53, 47
2, 49962, Note_on_c, 0, 59, 70
2, 49963, Note_on_c, 0, 62, 75
2, 49979, Note_on_c, 0, 59, 0
2, 49979, Note_on_c, 0, 53, 0
2, 49985, Note_on_c, 0, 62, 0
2, 50026, Note_on_c, 0, 36, 44
2, 50098, Note_on_c, 0, 60, 67
2, 50167, Note_on_c, 0, 72, 56
2, 50185, Note_on_c, 0, 60, 0
2, 50186, Note_on_c, 0, 36, 0
2, 50200, Note_on_c, 0, 72, 0
2, 50248, Note_on_c, 0, 72, 66
2, 50274, Note_on_c, 0, 72, 0
2, 50324, Note_on_c, 0, 43, 23
2, 50358, Note_on_c, 0, 43, 0
2, 50402, Note_on_c, 0, 72, 58
2, 50404, Note_on_c, 0, 65, 39
2, 50408, Note_on_c, 0, 62, 20
2, 50429, Note_on_c, 0, 62, 0
2, 50431, Note_on_c, 0, 65, 0
2, 50434, Note_on_c, 0, 72, 0
2, 50476, Note_on_c, 0, 55, 60
2, 50508, Note_on_c, 0, 55, 0
2, 50546, Note_on_c, 0, 71, 51
2, 50550, Note_on_c, 0, 62, 13
2, 50551, Note_on_c, 0, 65, 44
2, 50570, Note_on_c, 0, 65, 0
2, 50570, Note_on_c, 0, 71, 0
2, 50571, Note_on_c, 0, 62, 0
2, 50616, Note_on_c, 0, 55, 62
2, 50647, Note_on_c, 0, 55, 0
2, 50682, Note_on_c, 0, 62, 42
2, 50683, Note_on_c, 0, 68, 59
2, 50685, Note_on_c, 0, 65, 51
2, 50699, Note_on_c, 0, 65, 0
2, 50701, Note_on_c, 0, 62, 0
2, 50702, Note_on_c, 0, 68, 0
2, 50749, Note_on_c, 0, 55, 64
2, 50781, Note_on_c, 0, 55, 0
2, 50810, Note_on_c, 0, 62, 42
2, 50811, Note_on_c, 0, 67, 66
2, 50812, Note_on_c, 0, 65, 61
2, 50827, Note_on_c, 0, 62, 0
2, 50831, Note_on_c, 0, 65, 0
2, 50833, Note_on_c, 0, 67, 0
2, 50873, Note_on_c, 0, 43, 72
2, 50904, Note_on_c, 0, 43, 0
2, 50943, Note_on_c, 0, 77, 54
2, 50943, Note_on_c, 0, 74, 58
2, 50943, Note_on_c, 0, 72, 44
2, 50965, Note_on_c, 0, 72, 0
2, 50965, Note_on_c, 0, 74, 0
2, 50966, Note_on_c, 0, 77, 0
2, 51008, Note_on_c, 0, 55, 60
2, 51042, Note_on_c, 0, 55, 0
2, 51074, Note_on_c, 0, 71, 37
2, 51075, Note_on_c, 0, 74, 51
2, 51077, Note_on_c, 0, 77, 44
2, 51102, Note_on_c, 0, 77, 0
2, 51102, Note_on_c, 0, 74, 0
2, 51104, Note_on_c, 0, 71, 0
2, 51138, Note_on_c, 0, 55, 61
2, 51169, Note_on_c, 0, 55, 0
2, 51202, Note_on_c, 0, 68, 54
2, 51205, Note_on_c, 0, 77, 50
2, 51206, Note_on_c, 0, 74, 61
2, 51222, Note_on_c, 0, 68, 0
2, 51225, Note_on_c, 0, 74, 0
2, 51225, Note_on_c, 0, 77, 0
2, 51270, Note_on_c, 0, 55, 72
2, 51304, Note_on_c, 0, 55, 0
2, 51330, Note_on_c, 0, 67, 35
2, 51330, Note_on_c, 0, 77, 59
2, 51334, Note_on_c, 0, 74, 66
2, 51352, Note_on_c, 0, 74, 0
2, 51353, Note_on_c, 0, 77, 0
2, 51354, Note_on_c, 0, 67, 0
2, 51391, Note_on_c, 0, 43, 63
2, 51422, Note_on_c, 0, 43, 0
2, 51452, Note_on_c, 0, 80, 88
2, 51456, Note_on_c, 0, 71, 60
2, 51460, Note_on_c, 0, 74, 58
2, 51473, Note_on_c, 0, 74, 0
2, 51475, Note_on_c, 0, 80, 0
2, 51482, Note_on_c, 0, 71, 0
2, 51521, Note_on_c, 0, 55, 70
2, 51558, Note_on_c, 0, 55, 0
2, 51581, Note_on_c, 0, 79, 67
2, 51584, Note_on_c, 0, 71, 38
2, 51586, Note_on_c, 0, 74, 62
2, 51607, Note_on_c, 0, 74, 0
2, 51609, Note_on_c, 0, 71, 0
2, 51609, Note_on_c, 0, 79, 0
2, 51648, Note_on_c, 0, 55, 52
2, 51686, Note_on_c, 0, 55, 0
2, 51711, Note_on_c, 0, 78, 66
2, 51711, Note_on_c, 0, 71, 10
2, 51716, Note_on_c, 0, 74, 49
2, 51740, Note_on_c, 0, 74, 0
2, 51741, Note_on_c, 0, 78, 0
2, 51748, Note_on_c, 0, 71, 0
2, 51773, Note_on_c, 0, 55, 64
2, 51808, Note_on_c, 0, 55, 0
2, 51843, Note_on_c, 0, 71, 55
2, 51844, Note_on_c, 0, 77, 58
2, 51846, Note_on_c, 0, 74, 59
2, 51870, Note_on_c, 0, 74, 0
2, 51874, Note_on_c, 0, 71, 0
2, 51876, Note_on_c, 0, 77, 0
2, 51910, Note_on_c, 0, 55, 58
2, 51937, Note_on_c, 0, 55, 0
2, 51975, Note_on_c, 0, 70, 64
2, 51978, Note_on_c, 0, 77, 51
2, 51981, Note_on_c, 0, 74, 60
2, 52000, Note_on_c, 0, 70, 0
2, 52006, Note_on_c, 0, 74, 0
2, 52009, Note_on_c, 0, 77, 0
2, 52047, Note_on_c, 0, 55, 48
2, 52080, Note_on_c, 0, 55, 0
2, 52114, Note_on_c, 0, 69, 34
2, 52115, Note_on_c, 0, 77, 51
2, 52117, Note_on_c, 0, 74, 53
2, 52146, Note_on_c, 0, 74, 0
2, 52148, Note_on_c, 0, 77, 0
2, 52149, Note_on_c, 0, 69, 0
2, 52188, Note_on_c, 0, 55, 37
2, 52219, Note_on_c, 0, 55, 0
2, 52261, Note_on_c, 0, 68, 34
2, 52267, Note_on_c, 0, 74, 37
2, 52268, Note_on_c, 0, 77, 25
2, 52288, Note_on_c, 0, 68, 0
2, 52292, Note_on_c, 0, 74, 0
2, 52297, Note_on_c, 0, 77, 0
2, 52343, Note_on_c, 0, 55, 34
2, 52376, Note_on_c, 0, 55, 0
2, 52418, Note_on_c, 0, 77, 19
2, 52421, Note_on_c, 0, 67, 38
2, 52423, Note_on_c, 0, 74, 31
2, 52465, Note_on_c, 0, 77, 0
2, 52478, Note_on_c, 0, 74, 0
2, 52490, Note_on_c, 0, 67, 0
2, 52506, Note_on_c, 0, 60, 45
2, 52548, Note_on_c, 0, 64, 55
2, 52582, Note_on_c, 0, 72, 64
2, 52616, Note_on_c, 0, 67, 56
2, 52629, Note_on_c, 0, 64, 0
2, 52631, Note_on_c, 0, 72, 0
2, 52638, Note_on_c, 0, 67, 0
2, 52645, Note_on_c, 0, 62, 72
2, 52653, Note_on_c, 0, 60, 0
2, 52676, Note_on_c, 0, 65, 42
2, 52712, Note_on_c, 0, 71, 59
2, 52743, Note_on_c, 0, 65, 0
2, 52744, Note_on_c, 0, 67, 49
2, 52761, Note_on_c, 0, 71, 0
2, 52775, Note_on_c, 0, 67, 0
2, 52778, Note_on_c, 0, 62, 0
2, 52779, Note_on_c, 0, 64, 72
2, 52814, Note_on_c, 0, 66, 62
2, 52842, Note_on_c, 0, 66, 0
2, 52842, Note_on_c, 0, 72, 72
2, 52872, Note_on_c, 0, 72, 0
2, 52873, Note_on_c, 0, 67, 68
2, 52901, Note_on_c, 0, 67, 0
2, 52905, Note_on_c, 0, 64, 0
2, 52906, Note_on_c, 0, 59, 83
2, 52936, Note_on_c, 0, 67, 64
2, 52969, Note_on_c, 0, 74, 86
2, 52972, Note_on_c, 0, 67, 0
2, 52998, Note_on_c, 0, 67, 88
2, 53003, Note_on_c, 0, 74, 0
2, 53020, Note_on_c, 0, 59, 0
2, 53022, Note_on_c, 0, 67, 0
2, 53028, Note_on_c, 0, 60, 77
2, 53060, Note_on_c, 0, 67, 85
2, 53092, Note_on_c, 0, 76, 79
2, 53124, Note_on_c, 0, 72, 90
2, 53137, Note_on_c, 0, 67, 0
2, 53147, Note_on_c, 0, 76, 0
2, 53150, Note_on_c, 0, 60, 0
2, 53152, Note_on_c, 0, 72, 0
2, 53153, Note_on_c, 0, 53, 76
2, 53185, Note_on_c, 0, 69, 68
2, 53217, Note_on_c, 0, 77, 75
2, 53245, Note_on_c, 0, 74, 73
2, 53260, Note_on_c, 0, 69, 0
2, 53267, Note_on_c, 0, 77, 0
2, 53270, Note_on_c, 0, 53, 0
2, 53274, Note_on_c, 0, 74, 0
2, 53279, Note_on_c, 0, 55, 80
2, 53310, Note_on_c, 0, 67, 66
2, 53341, Note_on_c, 0, 74, 78
2, 53350, Note_on_c, 0, 67, 0
2, 53372, Note_on_c, 0, 74, 0
2, 53372, Note_on_c, 0, 71, 90
2, 53394, Note_on_c, 0, 71, 0
2, 53398, Note_on_c, 0, 74, 92
2, 53426, Note_on_c, 0, 74, 0
2, 53427, Note_on_c, 0, 71, 97
2, 53453, Note_on_c, 0, 71, 0
2, 53455, Note_on_c, 0, 55, 0
2, 53457, Note_on_c, 0, 74, 95
2, 53459, Note_on_c, 0, 53, 72
2, 53489, Note_on_c, 0, 71, 95
2, 53502, Note_on_c, 0, 74, 0
2, 53507, Note_on_c, 0, 53, 0
2, 53514, Note_on_c, 0, 52, 74
2, 53521, Note_on_c, 0, 71, 0
2, 53552, Note_on_c, 0, 67, 84
2, 53589, Note_on_c, 0, 79, 87
2, 53615, Note_on_c, 0, 67, 0
2, 53621, Note_on_c, 0, 72, 87
2, 53632, Note_on_c, 0, 79, 0
2, 53646, Note_on_c, 0, 52, 0
2, 53649, Note_on_c, 0, 72, 0
2, 53652, Note_on_c, 0, 50, 74
2, 53683, Note_on_c, 0, 67, 89
2, 53716, Note_on_c, 0, 79, 78
2, 53732, Note_on_c, 0, 67, 0
2, 53748, Note_on_c, 0, 77, 89
2, 53762, Note_on_c, 0, 79, 0
2, 53762, Note_on_c, 0, 50, 0
2, 53778, Note_on_c, 0, 77, 0
2, 53780, Note_on_c, 0, 48, 87
2, 53812, Note_on_c, 0, 67, 81
2, 53842, Note_on_c, 0, 79, 66
2, 53873, Note_on_c, 0, 76, 72
2, 53885, Note_on_c, 0, 79, 0
2, 53890, Note_on_c, 0, 67, 0
2, 53898, Note_on_c, 0, 48, 0
2, 53908, Note_on_c, 0, 47, 87
2, 53914, Note_on_c, 0, 76, 0
2, 53945, Note_on_c, 0, 68, 102
2, 53975, Note_on_c, 0, 80, 90
2, 54009, Note_on_c, 0, 74, 66
2, 54014, Note_on_c, 0, 68, 0
2, 54016, Note_on_c, 0, 80, 0
2, 54032, Note_on_c, 0, 47, 0
2, 54036, Note_on_c, 0, 74, 0
2, 54038, Note_on_c, 0, 45, 76
2, 54073, Note_on_c, 0, 69, 90
2, 54105, Note_on_c, 0, 81, 88
2, 54125, Note_on_c, 0, 69, 0
2, 54136, Note_on_c, 0, 72, 78
2, 54144, Note_on_c, 0, 81, 0
2, 54158, Note_on_c, 0, 45, 0
2, 54163, Note_on_c, 0, 72, 0
2, 54166, Note_on_c, 0, 41, 85
2, 54201, Note_on_c, 0, 69, 87
2, 54229, Note_on_c, 0, 81, 78
2, 54250, Note_on_c, 0, 69, 0
2, 54264, Note_on_c, 0, 77, 73
2, 54268, Note_on_c, 0, 81, 0
2, 54292, Note_on_c, 0, 74, 84
2, 54292, Note_on_c, 0, 43, 81
2, 54297, Note_on_c, 0, 41, 0
2, 54306, Note_on_c, 0, 77, 0
2, 54325, Note_on_c, 0, 71, 92
2, 54327, Note_on_c, 0, 74, 0
2, 54354, Note_on_c, 0, 77, 80
2, 54360, Note_on_c, 0, 71, 0
2, 54383, Note_on_c, 0, 74, 69
2, 54390, Note_on_c, 0, 77, 0
2, 54413, Note_on_c, 0, 71, 85
2, 54430, Note_on_c, 0, 74, 0
2, 54441, Note_on_c, 0, 71, 0
2, 54444, Note_on_c, 0, 67, 96
2, 54472, Note_on_c, 0, 43, 0
2, 54476, Note_on_c, 0, 65, 84
2, 54507, Note_on_c, 0, 67, 0
2, 54507, Note_on_c, 0, 62, 85
2, 54512, Note_on_c, 0, 65, 0
2, 54535, Note_on_c, 0, 62, 0
2, 54540, Note_on_c, 0, 48, 83
2, 54582, Note_on_c, 0, 64, 51
2, 54614, Note_on_c, 0, 72, 73
2, 54644, Note_on_c, 0, 67, 69
2, 54655, Note_on_c, 0, 72, 0
2, 54656, Note_on_c, 0, 64, 0
2, 54670, Note_on_c, 0, 67, 0
2, 54670, Note_on_c, 0, 50, 78
2, 54672, Note_on_c, 0, 48, 0
2, 54705, Note_on_c, 0, 65, 73
2, 54735, Note_on_c, 0, 71, 81
2, 54768, Note_on_c, 0, 65, 0
2, 54768, Note_on_c, 0, 67, 84
2, 54779, Note_on_c, 0, 71, 0
2, 54792, Note_on_c, 0, 50, 0
2, 54798, Note_on_c, 0, 67, 0
2, 54798, Note_on_c, 0, 52, 73
2, 54828, Note_on_c, 0, 66, 102
2, 54858, Note_on_c, 0, 66, 0
2, 54860, Note_on_c, 0, 72, 81
2, 54891, Note_on_c, 0, 67, 79
2, 54892, Note_on_c, 0, 72, 0
2, 54916, Note_on_c, 0, 67, 0
2, 54916, Note_on_c, 0, 52, 0
2, 54920, Note_on_c, 0, 47, 79
2, 54952, Note_on_c, 0, 62, 77
2, 54984, Note_on_c, 0, 74, 75
2, 55014, Note_on_c, 0, 67, 68
2, 55026, Note_on_c, 0, 62, 0
2, 55027, Note_on_c, 0, 74, 0
2, 55035, Note_on_c, 0, 47, 0
2, 55042, Note_on_c, 0, 67, 0
2, 55042, Note_on_c, 0, 48, 91
2, 55078, Note_on_c, 0, 64, 91
2, 55107, Note_on_c, 0, 76, 86
2, 55139, Note_on_c, 0, 67, 87
2, 55148, Note_on_c, 0, 76, 0
2, 55148, Note_on_c, 0, 64, 0
2, 55160, Note_on_c, 0, 48, 0
2, 55165, Note_on_c, 0, 67, 0
2, 55168, Note_on_c, 0, 45, 84
2, 55200, Note_on_c, 0, 66, 106
2, 55234, Note_on_c, 0, 78, 99
2, 55265, Note_on_c, 0, 72, 68
2, 55273, Note_on_c, 0, 78, 0
2, 55274, Note_on_c, 0, 66, 0
2, 55287, Note_on_c, 0, 72, 0
2, 55289, Note_on_c, 0, 45, 0
2, 55295, Note_on_c, 0, 47, 98
2, 55328, Note_on_c, 0, 74, 98
2, 55355, Note_on_c, 0, 74, 0
2, 55356, Note_on_c, 0, 79, 86
2, 55380, Note_on_c, 0, 78, 86
2, 55386, Note_on_c, 0, 79, 0
2, 55405, Note_on_c, 0, 78, 0
2, 55417, Note_on_c, 0, 79, 77
2, 55451, Note_on_c, 0, 74, 91
2, 55455, Note_on_c, 0, 79, 0
2, 55483, Note_on_c, 0, 71, 87
2, 55487, Note_on_c, 0, 74, 0
2, 55512, Note_on_c, 0, 67, 86
2, 55517, Note_on_c, 0, 71, 0
2, 55533, Note_on_c, 0, 67, 0
2, 55534, Note_on_c, 0, 47, 0
2, 55540, Note_on_c, 0, 48, 86
2, 55573, Note_on_c, 0, 76, 97
2, 55605, Note_on_c, 0, 81, 91
2, 55612, Note_on_c, 0, 76, 0
2, 55636, Note_on_c, 0, 79, 91
2, 55642, Note_on_c, 0, 81, 0
2, 55660, Note_on_c, 0, 79, 0
2, 55665, Note_on_c, 0, 49, 97
2, 55666, Note_on_c, 0, 48, 0
2, 55698, Note_on_c, 0, 76, 97
2, 55731, Note_on_c, 0, 82, 107
2, 55741, Note_on_c, 0, 76, 0
2, 55764, Note_on_c, 0, 79, 99
2, 55768, Note_on_c, 0, 82, 0
2, 55784, Note_on_c, 0, 79, 0
2, 55789, Note_on_c, 0, 49, 0
2, 55794, Note_on_c, 0, 50, 85
2, 55826, Note_on_c, 0, 79, 96
2, 55854, Note_on_c, 0, 79, 0
2, 55857, Note_on_c, 0, 83, 84
2, 55886, Note_on_c, 0, 82, 102
2, 55897, Note_on_c, 0, 83, 0
2, 55907, Note_on_c, 0, 82, 0
2, 55921, Note_on_c, 0, 83, 81
2, 55952, Note_on_c, 0, 79, 60
2, 55959, Note_on_c, 0, 83, 0
2, 55987, Note_on_c, 0, 74, 80
2, 56000, Note_on_c, 0, 79, 0
2, 56016, Note_on_c, 0, 71, 83
2, 56023, Note_on_c, 0, 74, 0
2, 56040, Note_on_c, 0, 50, 0
2, 56050, Note_on_c, 0, 38, 73
2, 56052, Note_on_c, 0, 74, 85
2, 56056, Note_on_c, 0, 71, 0
2, 56078, Note_on_c, 0, 72, 89
2, 56085, Note_on_c, 0, 74, 0
2, 56106, Note_on_c, 0, 72, 0
2, 56109, Note_on_c, 0, 76, 73
2, 56140, Note_on_c, 0, 72, 87
2, 56152, Note_on_c, 0, 76, 0
2, 56170, Note_on_c, 0, 71, 85
2, 56172, Note_on_c, 0, 50, 72
2, 56176, Note_on_c, 0, 38, 0
2, 56183, Note_on_c, 0, 72, 0
2, 56201, Note_on_c, 0, 69, 78
2, 56203, Note_on_c, 0, 71, 0
2, 56235, Note_on_c, 0, 69, 0
2, 56238, Note_on_c, 0, 67, 73
2, 56260, Note_on_c, 0, 66, 90
2, 56274, Note_on_c, 0, 67, 0
2, 56291, Note_on_c, 0, 66, 0
2, 56294, Note_on_c, 0, 50, 0
2, 56295, Note_on_c, 0, 43, 71
2, 56296, Note_on_c, 0, 67, 75
2, 56329, Note_on_c, 0, 69, 71
2, 56345, Note_on_c, 0, 67, 0
2, 56358, Note_on_c, 0, 71, 70
2, 56384, Note_on_c, 0, 69, 0
2, 56386, Note_on_c, 0, 72, 74
2, 56394, Note_on_c, 0, 71, 0
2, 56410, Note_on_c, 0, 72, 0
2, 56421, Note_on_c, 0, 74, 85
2, 56452, Note_on_c, 0, 76, 92
2, 56465, Note_on_c, 0, 74, 0
2, 56467, Note_on_c, 0, 43, 0
2, 56488, Note_on_c, 0, 77, 78
2, 56525, Note_on_c, 0, 76, 0
2, 56525, Note_on_c, 0, 78, 98
2, 56528, Note_on_c, 0, 77, 0
2, 56556, Note_on_c, 0, 78, 0
2, 56562, Note_on_c, 0, 64, 74
2, 56599, Note_on_c, 0, 67, 84
2, 56632, Note_on_c, 0, 79, 80
2, 56664, Note_on_c, 0, 72, 83
2, 56675, Note_on_c, 0, 79, 0
2, 56678, Note_on_c, 0, 67, 0
2, 56690, Note_on_c, 0, 64, 0
2, 56691, Note_on_c, 0, 72, 0
2, 56696, Note_on_c, 0, 62, 77
2, 56724, Note_on_c, 0, 67, 75
2, 56758, Note_on_c, 0, 77, 75
2, 56789, Note_on_c, 0, 71, 89
2, 56800, Note_on_c, 0, 77, 0
2, 56804, Note_on_c, 0, 67, 0
2, 56813, Note_on_c, 0, 62, 0
2, 56820, Note_on_c, 0, 71, 0
2, 56822, Note_on_c, 0, 60, 80
2, 56853, Note_on_c, 0, 67, 73
2, 56887, Note_on_c, 0, 76, 78
2, 56913, Note_on_c, 0, 72, 67
2, 56925, Note_on_c, 0, 67, 0
2, 56929, Note_on_c, 0, 76, 0
2, 56938, Note_on_c, 0, 60, 0
2, 56941, Note_on_c, 0, 72, 0
2, 56946, Note_on_c, 0, 58, 87
2, 56979, Note_on_c, 0, 67, 83
2, 57012, Note_on_c, 0, 76, 85
2, 57041, Note_on_c, 0, 72, 76
2, 57052, Note_on_c, 0, 67, 0
2, 57060, Note_on_c, 0, 58, 0
2, 57060, Note_on_c, 0, 76, 0
2, 57068, Note_on_c, 0, 72, 0
2, 57069, Note_on_c, 0, 57, 86
2, 57103, Note_on_c, 0, 72, 90
2, 57135, Note_on_c, 0, 84, 88
2, 57167, Note_on_c, 0, 77, 89
2, 57181, Note_on_c, 0, 84, 0
2, 57182, Note_on_c, 0, 72, 0
2, 57191, Note_on_c, 0, 57, 0
2, 57194, Note_on_c, 0, 77, 0
2, 57198, Note_on_c, 0, 55, 86
2, 57227, Note_on_c, 0, 72, 79
2, 57256, Note_on_c, 0, 82, 85
2, 57285, Note_on_c, 0, 76, 73
2, 57300, Note_on_c, 0, 82, 0
2, 57305, Note_on_c, 0, 72, 0
2, 57309, Note_on_c, 0, 55, 0
2, 57316, Note_on_c, 0, 76, 0
2, 57318, Note_on_c, 0, 53, 86
2, 57346, Note_on_c, 0, 72, 89
2, 57382, Note_on_c, 0, 81, 95
2, 57391, Note_on_c, 0, 72, 0
2, 57411, Note_on_c, 0, 77, 94
2, 57414, Note_on_c, 0, 81, 0
2, 57444, Note_on_c, 0, 81, 96
2, 57448, Note_on_c, 0, 77, 0
2, 57474, Note_on_c, 0, 77, 96
2, 57477, Note_on_c, 0, 81, 0
2, 57504, Note_on_c, 0, 77, 0
2, 57505, Note_on_c, 0, 81, 94
2, 57537, Note_on_c, 0, 77, 97
2, 57540, Note_on_c, 0, 53, 0
2, 57551, Note_on_c, 0, 81, 0
2, 57565, Note_on_c, 0, 77, 0
2, 57567, Note_on_c, 0, 53, 99
2, 57592, Note_on_c, 0, 69, 91
2, 57629, Note_on_c, 0, 81, 89
2, 57659, Note_on_c, 0, 72, 89
2, 57674, Note_on_c, 0, 81, 0
2, 57677, Note_on_c, 0, 53, 0
2, 57677, Note_on_c, 0, 69, 0
2, 57687, Note_on_c, 0, 52, 76
2, 57695, Note_on_c, 0, 72, 0
2, 57722, Note_on_c, 0, 69, 92
2, 57753, Note_on_c, 0, 79, 81
2, 57782, Note_on_c, 0, 73, 105
2, 57797, Note_on_c, 0, 79, 0
2, 57805, Note_on_c, 0, 69, 0
2, 57811, Note_on_c, 0, 52, 0
2, 57817, Note_on_c, 0, 50, 80
2, 57822, Note_on_c, 0, 73, 0
2, 57848, Note_on_c, 0, 69, 89
2, 57879, Note_on_c, 0, 77, 88
2, 57908, Note_on_c, 0, 74, 84
2, 57918, Note_on_c, 0, 69, 0
2, 57927, Note_on_c, 0, 77, 0
2, 57932, Note_on_c, 0, 50, 0
2, 57937, Note_on_c, 0, 52, 75
2, 57938, Note_on_c, 0, 74, 0
2, 57970, Note_on_c, 0, 67, 86
2, 58002, Note_on_c, 0, 76, 92
2, 58028, Note_on_c, 0, 72, 86
2, 58038, Note_on_c, 0, 67, 0
2, 58050, Note_on_c, 0, 76, 0
2, 58060, Note_on_c, 0, 72, 0
2, 58061, Note_on_c, 0, 52, 0
2, 58061, Note_on_c, 0, 53, 84
2, 58094, Note_on_c, 0, 65, 80
2, 58126, Note_on_c, 0, 74, 78
2, 58155, Note_on_c, 0, 69, 84
2, 58166, Note_on_c, 0, 74, 0
2, 58171, Note_on_c, 0, 65, 0
2, 58188, Note_on_c, 0, 54, 97
2, 58191, Note_on_c, 0, 53, 0
2, 58194, Note_on_c, 0, 69, 0
2, 58224, Note_on_c, 0, 63, 101
2, 58258, Note_on_c, 0, 72, 53
2, 58291, Note_on_c, 0, 69, 67
2, 58292, Note_on_c, 0, 72, 0
2, 58303, Note_on_c, 0, 63, 0
2, 58313, Note_on_c, 0, 54, 0
2, 58318, Note_on_c, 0, 69, 0
2, 58318, Note_on_c, 0, 55, 79
2, 58352, Note_on_c, 0, 62, 88
2, 58382, Note_on_c, 0, 72, 74
2, 58408, Note_on_c, 0, 67, 79
2, 58412, Note_on_c, 0, 72, 0
2, 58414, Note_on_c, 0, 62, 0
2, 58439, Note_on_c, 0, 67, 0
2, 58440, Note_on_c, 0, 71, 89
2, 58472, Note_on_c, 0, 67, 86
2, 58482, Note_on_c, 0, 71, 0
2, 58496, Note_on_c, 0, 55, 0
2, 58497, Note_on_c, 0, 53, 77
2, 58502, Note_on_c, 0, 67, 0
2, 58505, Note_on_c, 0, 62, 92
2, 58535, Note_on_c, 0, 67, 88
2, 58541, Note_on_c, 0, 62, 0
2, 58557, Note_on_c, 0, 53, 0
2, 58559, Note_on_c, 0, 52, 72
2, 58564, Note_on_c, 0, 67, 0
2, 58598, Note_on_c, 0, 60, 95
2, 58631, Note_on_c, 0, 72, 71
2, 58663, Note_on_c, 0, 67, 69
2, 58671, Note_on_c, 0, 60, 0
2, 58685, Note_on_c, 0, 72, 0
2, 58694, Note_on_c, 0, 50, 72
2, 58695, Note_on_c, 0, 52, 0
2, 58696, Note_on_c, 0, 67, 0
2, 58727, Note_on_c, 0, 65, 70
2, 58759, Note_on_c, 0, 71, 75
2, 58785, Note_on_c, 0, 67, 76
2, 58796, Note_on_c, 0, 65, 0
2, 58799, Note_on_c, 0, 71, 0
2, 58816, Note_on_c, 0, 50, 0
2, 58818, Note_on_c, 0, 48, 87
2, 58820, Note_on_c, 0, 67, 0
2, 58853, Note_on_c, 0, 64, 73
2, 58885, Note_on_c, 0, 72, 64
2, 58915, Note_on_c, 0, 67, 83
2, 58926, Note_on_c, 0, 72, 0
2, 58931, Note_on_c, 0, 64, 0
2, 58939, Note_on_c, 0, 48, 0
2, 58945, Note_on_c, 0, 67, 0
2, 58948, Note_on_c, 0, 47, 88
2, 58980, Note_on_c, 0, 62, 88
2, 59013, Note_on_c, 0, 74, 79
2, 59042, Note_on_c, 0, 67, 91
2, 59053, Note_on_c, 0, 74, 0
2, 59054, Note_on_c, 0, 62, 0
2, 59067, Note_on_c, 0, 67, 0
2, 59068, Note_on_c, 0, 47, 0
2, 59076, Note_on_c, 0, 48, 85
2, 59109, Note_on_c, 0, 67, 89
2, 59143, Note_on_c, 0, 76, 84
2, 59173, Note_on_c, 0, 72, 92
2, 59183, Note_on_c, 0, 67, 0
2, 59190, Note_on_c, 0, 76, 0
2, 59196, Note_on_c, 0, 48, 0
2, 59202, Note_on_c, 0, 72, 0
2, 59202, Note_on_c, 0, 41, 81
2, 59234, Note_on_c, 0, 69, 94
2, 59266, Note_on_c, 0, 77, 87
2, 59294, Note_on_c, 0, 74, 83
2, 59307, Note_on_c, 0, 69, 0
2, 59314, Note_on_c, 0, 77, 0
2, 59320, Note_on_c, 0, 41, 0
2, 59322, Note_on_c, 0, 74, 0
2, 59324, Note_on_c, 0, 43, 88
2, 59356, Note_on_c, 0, 67, 73
2, 59385, Note_on_c, 0, 67, 0
2, 59388, Note_on_c, 0, 74, 95
2, 59418, Note_on_c, 0, 71, 98
2, 59424, Note_on_c, 0, 74, 0
2, 59447, Note_on_c, 0, 74, 91
2, 59449, Note_on_c, 0, 71, 0
2, 59477, Note_on_c, 0, 71, 96
2, 59479, Note_on_c, 0, 74, 0
2, 59503, Note_on_c, 0, 43, 0
2, 59504, Note_on_c, 0, 41, 86
2, 59506, Note_on_c, 0, 71, 0
2, 59508, Note_on_c, 0, 74, 100
2, 59542, Note_on_c, 0, 71, 100
2, 59558, Note_on_c, 0, 74, 0
2, 59566, Note_on_c, 0, 41, 0
2, 59566, Note_on_c, 0, 40, 87
2, 59589, Note_on_c, 0, 71, 0
2, 59598, Note_on_c, 0, 67, 95
2, 59630, Note_on_c, 0, 79, 86
2, 59662, Note_on_c, 0, 72, 89
2, 59675, Note_on_c, 0, 67, 0
2, 59686, Control_c, 0, 64, 127
2, 59687, Note_on_c, 0, 79, 0
2, 59687, Note_on_c, 0, 52, 84
2, 59700, Note_on_c, 0, 72, 0
2, 59722, Note_on_c, 0, 70, 107
2, 59753, Note_on_c, 0, 79, 79
2, 59779, Note_on_c, 0, 40, 0
2, 59787, Note_on_c, 0, 73, 102
2, 59797, Note_on_c, 0, 70, 0
2, 59800, Note_on_c, 0, 79, 0
2, 59806, Note_on_c, 0, 52, 0
2, 59808, Control_c, 0, 64, 0
2, 59814, Note_on_c, 0, 41, 99
2, 59821, Note_on_c, 0, 73, 0
2, 59849, Note_on_c, 0, 69, 97
2, 59878, Note_on_c, 0, 79, 80
2, 59914, Note_on_c, 0, 73, 107
2, 59927, Note_on_c, 0, 79, 0
2, 59934, Note_on_c, 0, 69, 0
2, 59936, Note_on_c, 0, 53, 91
2, 59943, Control_c, 0, 64, 127
2, 59950, Note_on_c, 0, 73, 0
2, 59969, Note_on_c, 0, 69, 94
2, 60003, Note_on_c, 0, 77, 86
2, 60014, Note_on_c, 0, 41, 0
2, 60036, Note_on_c, 0, 74, 78
2, 60050, Note_on_c, 0, 69, 0
2, 60052, Note_on_c, 0, 53, 0
2, 60059, Note_on_c, 0, 77, 0
2, 60064, Note_on_c, 0, 43, 89
2, 60071, Note_on_c, 0, 74, 0
2, 60081, Control_c, 0, 64, 0
2, 60098, Note_on_c, 0, 67, 96
2, 60132, Note_on_c, 0, 76, 92
2, 60160, Note_on_c, 0, 72, 96
2, 60175, Note_on_c, 0, 67, 0
2, 60185, Note_on_c, 0, 76, 0
2, 60192, Note_on_c, 0, 55, 98
2, 60194, Note_on_c, 0, 72, 0
2, 60199, Control_c, 0, 64, 127
2, 60224, Note_on_c, 0, 65, 92
2, 60257, Note_on_c, 0, 74, 94
2, 60278, Note_on_c, 0, 43, 0
2, 60284, Note_on_c, 0, 71, 92
2, 60296, Note_on_c, 0, 55, 0
2, 60298, Note_on_c, 0, 65, 0
2, 60308, Note_on_c, 0, 74, 0
2, 60315, Note_on_c, 0, 71, 0
2, 60317, Note_on_c, 0, 48, 99
2, 60326, Control_c, 0, 64, 0
2, 60352, Note_on_c, 0, 64, 95
2, 60376, Note_on_c, 0, 72, 72
2, 60396, Note_on_c, 0, 64, 0
2, 60414, Note_on_c, 0, 67, 86
2, 60428, Note_on_c, 0, 72, 0
2, 60441, Note_on_c, 0, 65, 78
2, 60451, Note_on_c, 0, 67, 0
2, 60473, Note_on_c, 0, 64, 92
2, 60474, Note_on_c, 0, 48, 0
2, 60475, Note_on_c, 0, 65, 0
2, 60506, Note_on_c, 0, 62, 95
2, 60516, Note_on_c, 0, 64, 0
2, 60540, Note_on_c, 0, 60, 97
2, 60549, Note_on_c, 0, 62, 0
2, 60563, Note_on_c, 0, 60, 0
2, 60564, Control_c, 0, 64, 127
2, 60575, Note_on_c, 0, 43, 100
2, 60604, Note_on_c, 0, 50, 105
2, 60638, Note_on_c, 0, 59, 94
2, 60672, Note_on_c, 0, 53, 96
2, 60691, Note_on_c, 0, 43, 0
2, 60694, Note_on_c, 0, 50, 0
2, 60696, Note_on_c, 0, 59, 0
2, 60703, Note_on_c, 0, 36, 98
2, 60714, Control_c, 0, 64, 0
2, 60716, Note_on_c, 0, 53, 0
2, 60730, Note_on_c, 0, 36, 0
2, 60740, Note_on_c, 0, 52, 101
2, 60769, Note_on_c, 0, 60, 92
2, 60801, Note_on_c, 0, 55, 96
2, 60815, Note_on_c, 0, 60, 0
2, 60820, Note_on_c, 0, 52, 0
2, 60830, Note_on_c, 0, 55, 0
2, 60830, Note_on_c, 0, 45, 96
2, 60834, Control_c, 0, 64, 127
2, 60863, Note_on_c, 0, 52, 102
2, 60894, Note_on_c, 0, 61, 106
2, 60927, Note_on_c, 0, 55, 87
2, 60940, Note_on_c, 0, 61, 0
2, 60950, Note_on_c, 0, 45, 0
2, 60956, Note_on_c, 0, 52, 0
2, 60957, Note_on_c, 0, 38, 99
2, 60969, Note_on_c, 0, 55, 0
2, 60973, Control_c, 0, 64, 0
2, 60984, Note_on_c, 0, 38, 0
2, 60994, Note_on_c, 0, 53, 99
2, 61023, Note_on_c, 0, 62, 90
2, 61053, Note_on_c, 0, 57, 97
2, 61068, Note_on_c, 0, 62, 0
2, 61074, Note_on_c, 0, 53, 0
2, 61083, Control_c, 0, 64, 127
2, 61085, Note_on_c, 0, 47, 106
2, 61086, Note_on_c, 0, 57, 0
2, 61118, Note_on_c, 0, 54, 107
2, 61151, Note_on_c, 0, 63, 96
2, 61184, Note_on_c, 0, 57, 87
2, 61196, Note_on_c, 0, 63, 0
2, 61199, Note_on_c, 0, 54, 0
2, 61215, Note_on_c, 0, 47, 0
2, 61216, Note_on_c, 0, 40, 100
2, 61218, Note_on_c, 0, 57, 0
2, 61228, Control_c, 0, 64, 0
2, 61252, Note_on_c, 0, 55, 96
2, 61258, Note_on_c, 0, 40, 0
2, 61277, Note_on_c, 0, 55, 0
2, 61286, Note_on_c, 0, 64, 92
2, 61321, Note_on_c, 0, 59, 97
2, 61328, Note_on_c, 0, 64, 0
2, 61343, Note_on_c, 0, 59, 0
2, 61351, Note_on_c, 0, 38, 80
2, 61352, Note_on_c, 0, 50, 92
2, 61384, Control_c, 0, 64, 127
2, 61394, Note_on_c, 0, 55, 99
2, 61427, Note_on_c, 0, 65, 88
2, 61443, Note_on_c, 0, 55, 0
2, 61460, Note_on_c, 0, 59, 96
2, 61468, Note_on_c, 0, 65, 0
2, 61492, Note_on_c, 0, 65, 83
2, 61494, Note_on_c, 0, 59, 0
2, 61524, Note_on_c, 0, 59, 88
2, 61528, Note_on_c, 0, 65, 0
2, 61559, Note_on_c, 0, 59, 0
2, 61559, Note_on_c, 0, 65, 79
2, 61576, Note_on_c, 0, 38, 0
2, 61596, Note_on_c, 0, 59, 86
2, 61608, Note_on_c, 0, 65, 0
2, 61628, Note_on_c, 0, 50, 0
2, 61629, Note_on_c, 0, 36, 54
2, 61633, Note_on_c, 0, 59, 0
2, 61643, Control_c, 0, 64, 0
2, 61668, Note_on_c, 0, 55, 80
2, 61698, Note_on_c, 0, 65, 72
2, 61733, Note_on_c, 0, 59, 90
2, 61748, Note_on_c, 0, 65, 0
2, 61752, Note_on_c, 0, 55, 0
2, 61767, Note_on_c, 0, 48, 75
2, 61772, Note_on_c, 0, 36, 0
2, 61773, Note_on_c, 0, 59, 0
2, 61799, Note_on_c, 0, 55, 66
2, 61837, Note_on_c, 0, 64, 79
2, 61868, Note_on_c, 0, 60, 85
2, 61884, Note_on_c, 0, 55, 0
2, 61890, Note_on_c, 0, 64, 0
2, 61898, Note_on_c, 0, 60, 0
2, 61902, Note_on_c, 0, 45, 72
2, 61916, Note_on_c, 0, 48, 0
2, 61930, Note_on_c, 0, 53, 71
2, 61965, Note_on_c, 0, 62, 69
2, 62001, Note_on_c, 0, 60, 80
2, 62013, Note_on_c, 0, 53, 0
2, 62024, Note_on_c, 0, 62, 0
2, 62029, Note_on_c, 0, 45, 0
2, 62037, Note_on_c, 0, 41, 75
2, 62039, Note_on_c, 0, 60, 0
2, 62072, Note_on_c, 0, 57, 63
2, 62102, Note_on_c, 0, 65, 76
2, 62134, Note_on_c, 0, 62, 86
2, 62152, Note_on_c, 0, 57, 0
2, 62156, Note_on_c, 0, 65, 0
2, 62161, Note_on_c, 0, 62, 0
2, 62165, Note_on_c, 0, 41, 0
2, 62170, Note_on_c, 0, 43, 55
2, 62200, Note_on_c, 0, 55, 68
2, 62233, Note_on_c, 0, 64, 66
2, 62265, Note_on_c, 0, 60, 67
2, 62281, Note_on_c, 0, 55, 0
2, 62290, Note_on_c, 0, 64, 0
2, 62294, Note_on_c, 0, 60, 0
2, 62298, Note_on_c, 0, 31, 70
2, 62308, Note_on_c, 0, 43, 0
2, 62333, Note_on_c, 0, 53, 52
2, 62370, Note_on_c, 0, 62, 78
2, 62402, Note_on_c, 0, 59, 67
2, 62417, Note_on_c, 0, 53, 0
2, 62435, Note_on_c, 0, 31, 0
2, 62436, Note_on_c, 0, 59, 0
2, 62438, Note_on_c, 0, 36, 68
2, 62458, Note_on_c, 0, 62, 0
2, 62481, Note_on_c, 0, 60, 69
2, 62514, Note_on_c, 0, 62, 70
2, 62527, Note_on_c, 0, 60, 0
2, 62545, Note_on_c, 0, 64, 73
2, 62550, Note_on_c, 0, 62, 0
2, 62572, Note_on_c, 0, 64, 0
2, 62574, Note_on_c, 0, 65, 47
2, 62611, Note_on_c, 0, 67, 55
2, 62620, Note_on_c, 0, 65, 0
2, 62621, Note_on_c, 0, 36, 0
2, 62644, Note_on_c, 0, 69, 52
2, 62671, Note_on_c, 0, 67, 0
2, 62679, Note_on_c, 0, 71, 68
2, 62682, Note_on_c, 0, 69, 0
2, 62704, Note_on_c, 0, 71, 0
2, 62717, Note_on_c, 0, 72, 47
2, 62718, Note_on_c, 0, 60, 33
2, 62719, Note_on_c, 0, 67, 33
2, 62721, Note_on_c, 0, 64, 39
2, 62746, Note_on_c, 0, 60, 0
2, 62748, Note_on_c, 0, 64, 0
2, 62751, Note_on_c, 0, 67, 0
2, 62755, Note_on_c, 0, 72, 0
2, 62861, Note_on_c, 0, 71, 48
2, 62861, Note_on_c, 0, 65, 30
2, 62862, Note_on_c, 0, 67, 33
2, 62864, Note_on_c, 0, 62, 30
2, 62890, Note_on_c, 0, 65, 0
2, 62892, Note_on_c, 0, 62, 0
2, 62900, Note_on_c, 0, 71, 0
2, 62904, Note_on_c, 0, 67, 0
2, 62993, Note_on_c, 0, 72, 50
2, 62994, Note_on_c, 0, 64, 34
2, 63000, Note_on_c, 0, 67, 34
2, 63023, Note_on_c, 0, 67, 0
2, 63029, Note_on_c, 0, 64, 0
2, 63035, Note_on_c, 0, 72, 0
2, 63128, Note_on_c, 0, 59, 34
2, 63129, Note_on_c, 0, 67, 34
2, 63129, Note_on_c, 0, 65, 33
2, 63129, Note_on_c, 0, 74, 50
2, 63164, Note_on_c, 0, 59, 0
2, 63165, Note_on_c, 0, 74, 0
2, 63166, Note_on_c, 0, 65, 0
2, 63167, Note_on_c, 0, 67, 0
2, 63253, Note_on_c, 0, 76, 51
2, 63254, Note_on_c, 0, 64, 33
2, 63255, Note_on_c, 0, 67, 34
2, 63256, Note_on_c, 0, 72, 37
2, 63258, Note_on_c, 0, 60, 37
2, 63289, Note_on_c, 0, 76, 0
2, 63290, Note_on_c, 0, 64, 0
2, 63292, Note_on_c, 0, 67, 0
2, 63293, Note_on_c, 0, 72, 0
2, 63295, Note_on_c, 0, 60, 0
2, 63388, Note_on_c, 0, 53, 36
2, 63388, Note_on_c, 0, 69, 33
2, 63389, Note_on_c, 0, 62, 30
2, 63390, Note_on_c, 0, 74, 34
2, 63390, Note_on_c, 0, 77, 53
2, 63424, Note_on_c, 0, 69, 0
2, 63425, Note_on_c, 0, 53, 0
2, 63425, Note_on_c, 0, 62, 0
2, 63426, Note_on_c, 0, 74, 0
2, 63426, Note_on_c, 0, 77, 0
2, 63524, Note_on_c, 0, 55, 35
2, 63528, Note_on_c, 0, 59, 35
2, 63529, Note_on_c, 0, 71, 36
2, 63530, Note_on_c, 0, 67, 34
2, 63531, Note_on_c, 0, 74, 55
2, 63704, Note_on_c, 0, 55, 0
2, 63708, Note_on_c, 0, 67, 0
2, 63708, Note_on_c, 0, 71, 0
2, 63713, Note_on_c, 0, 59, 0
2, 63738, Note_on_c, 0, 74, 0
2, 63800, Note_on_c, 0, 64, 38
2, 63801, Note_on_c, 0, 67, 37
2, 63802, Note_on_c, 0, 79, 52
2, 63822, Note_on_c, 0, 64, 0
2, 63829, Note_on_c, 0, 67, 0
2, 63833, Note_on_c, 0, 79, 0
2, 63942, Note_on_c, 0, 62, 42
2, 63946, Note_on_c, 0, 67, 35
2, 63946, Note_on_c, 0, 79, 55
2, 63948, Note_on_c, 0, 77, 41
2, 63967, Note_on_c, 0, 77, 0
2, 63969, Note_on_c, 0, 62, 0
2, 63969, Note_on_c, 0, 67, 0
2, 63972, Note_on_c, 0, 79, 0
2, 64075, Note_on_c, 0, 60, 38
2, 64077, Note_on_c, 0, 67, 41
2, 64078, Note_on_c, 0, 79, 64
2, 64079, Note_on_c, 0, 76, 34
2, 64104, Note_on_c, 0, 79, 0
2, 64105, Note_on_c, 0, 76, 0
2, 64107, Note_on_c, 0, 67, 0
2, 64108, Note_on_c, 0, 60, 0
2, 64213, Note_on_c, 0, 59, 52
2, 64216, Note_on_c, 0, 74, 49
2, 64216, Note_on_c, 0, 80, 83
2, 64218, Note_on_c, 0, 64, 53
2, 64242, Note_on_c, 0, 64, 0
2, 64244, Note_on_c, 0, 80, 0
2, 64245, Note_on_c, 0, 74, 0
2, 64246, Note_on_c, 0, 59, 0
2, 64360, Note_on_c, 0, 57, 61
2, 64361, Note_on_c, 0, 81, 87
2, 64364, Note_on_c, 0, 64, 54
2, 64364, Note_on_c, 0, 72, 58
2, 64395, Note_on_c, 0, 64, 0
2, 64396, Note_on_c, 0, 57, 0
2, 64402, Note_on_c, 0, 72, 0
2, 64403, Note_on_c, 0, 81, 0
2, 64656, Note_on_c, 0, 45, 45
2, 64657, Note_on_c, 0, 65, 52
2, 64657, Note_on_c, 0, 62, 42
2, 64657, Note_on_c, 0, 57, 46
2, 64657, Note_on_c, 0, 53, 42
2, 64657, Note_on_c, 0, 41, 44
2, 64660, Note_on_c, 0, 50, 46
2, 64732, Note_on_c, 0, 62, 0
2, 64735, Note_on_c, 0, 41, 0
2, 64736, Note_on_c, 0, 45, 0
2, 64737, Note_on_c, 0, 57, 0
2, 64738, Note_on_c, 0, 65, 0
2, 64739, Note_on_c, 0, 53, 0
2, 64742, Note_on_c, 0, 50, 0
2, 64973, Note_on_c, 0, 55, 51
2, 64975, Note_on_c, 0, 76, 61
2, 64976, Note_on_c, 0, 72, 31
2, 64976, Note_on_c, 0, 64, 44
2, 64976, Note_on_c, 0, 67, 39
2, 64978, Note_on_c, 0, 60, 43
2, 65007, Note_on_c, 0, 72, 0
2, 65009, Note_on_c, 0, 64, 0
2, 65010, Note_on_c, 0, 67, 0
2, 65010, Note_on_c, 0, 55, 0
2, 65010, Note_on_c, 0, 60, 0
2, 65010, Note_on_c, 0, 76, 0
2, 65295, Note_on_c, 0, 50, 25
2, 65296, Note_on_c, 0, 43, 28
2, 65298, Note_on_c, 0, 47, 27
2, 65298, Note_on_c, 0, 53, 29
2, 65298, Note_on_c, 0, 59, 24
2, 65299, Note_on_c, 0, 62, 42
2, 65386, Note_on_c, 0, 47, 0
2, 65387, Note_on_c, 0, 43, 0
2, 65388, Note_on_c, 0, 50, 0
2, 65388, Note_on_c, 0, 62, 0
2, 65389, Note_on_c, 0, 59, 0
2, 65391, Note_on_c, 0, 53, 0
2, 65639, Note_on_c, 0, 36, 81
2, 65639, Note_on_c, 0, 76, 94
2, 65639, Note_on_c, 0, 84, 92
2, 65639, Note_on_c, 0, 43, 91
2, 65640, Note_on_c, 0, 48, 99
2, 65640, Note_on_c, 0, 79, 89
2, 65640, Note_on_c, 0, 72, 90
2, 65640, Note_on_c, 0, 40, 97
2, 65975, Note_on_c, 0, 43, 0
2, 65977, Note_on_c, 0, 76, 0
2, 65979, Note_on_c, 0, 36, 0
2, 65979, Note_on_c, 0, 72, 0
2, 65980, Note_on_c, 0, 79, 0
2, 65980, Note_on_c, 0, 84, 0
2, 65982, Note_on_c, 0, 40, 0
2, 65987, Note_on_c, 0, 48, 0
2, 65987, End_track
3, 0, Start_track
3, 0, MIDI_port, 0
3, 0, Title_t, "Piano Sonata No. 10, 2nd mvment(op. 14-2)."
3, 0, End_track
4, 0, Start_track
4, 0, MIDI_port, 0
4, 0, Title_t, "<=-- Andante <=--"
4, 0, End_track
5, 0, Start_track
5, 0, MIDI_port, 0
5, 0, Title_t, "performed by : Ryu, Jaeyaung"
5, 0, End_track
6, 0, Start_track
6, 0, MIDI_port, 0
6, 0, Title_t, "E-mail : egmont@taegu.net"
6, 0, End_track
0, 0, End_of_file