0, 0, Header, 1, 20, 120
1, 0, Start_track
1, 0, Title_t, "untitled"
1, 0, Time_signature, 4, 2, 24, 8
1, 0, Key_signature, -3, "major"
1, 0, Tempo, 422535
1, 0, Marker_t, "Allegro con brio"
1, 52800, Tempo, 1463415
1, 53040, Tempo, 422535
1, 75962, Tempo, 444444
1, 76080, Tempo, 454545
1, 76200, Tempo, 472441
1, 76920, Tempo, 461538
1, 77042, Tempo, 444444
1, 77760, Tempo, 472441
1, 77880, Tempo, 517241
1, 78240, Tempo, 422535
1, 199200, Tempo, 1578947
1, 199440, Tempo, 1538462
1, 199447, Tempo, 1500000
1, 199455, Tempo, 1463415
1, 199460, Tempo, 1428571
1, 199467, Tempo, 1395349
1, 199475, Tempo, 1363636
1, 199480, Tempo, 1333333
1, 199487, Tempo, 1304348
1, 199492, Tempo, 1276596
1, 199500, Tempo, 1250000
1, 199507, Tempo, 1224490
1, 199512, Tempo, 1200000
1, 199520, Tempo, 1176471
1, 199527, Tempo, 1153846
1, 199532, Tempo, 1132075
1, 199540, Tempo, 1111111
1, 199545, Tempo, 1090909
1, 199552, Tempo, 1071429
1, 199560, Tempo, 1052632
1, 199565, Tempo, 1034483
1, 199572, Tempo, 1016949
1, 199577, Tempo, 1000000
1, 199585, Tempo, 983607
1, 199592, Tempo, 967742
1, 199597, Tempo, 952381
1, 199605, Tempo, 937500
1, 199612, Tempo, 923077
1, 199617, Tempo, 909091
1, 199625, Tempo, 895522
1, 199630, Tempo, 882353
1, 199637, Tempo, 869565
1, 199645, Tempo, 857143
1, 199650, Tempo, 845070
1, 199657, Tempo, 833333
1, 199665, Tempo, 821918
1, 199670, Tempo, 810811
1, 199677, Tempo, 800000
1, 199682, Tempo, 789474
1, 199690, Tempo, 779221
1, 199697, Tempo, 769231
1, 199702, Tempo, 759494
1, 199710, Tempo, 750000
1, 199715, Tempo, 740741
1, 199722, Tempo, 731707
1, 199730, Tempo, 722892
1, 199735, Tempo, 714286
1, 199742, Tempo, 705882
1, 199750, Tempo, 697674
1, 199755, Tempo, 689655
1, 199762, Tempo, 681818
1, 199767, Tempo, 674157
1, 199775, Tempo, 666667
1, 199782, Tempo, 659341
1, 199787, Tempo, 652174
1, 199795, Tempo, 645161
1, 199800, Tempo, 638298
1, 199807, Tempo, 631579
1, 199815, Tempo, 625000
1, 199820, Tempo, 618557
1, 199827, Tempo, 612245
1, 199835, Tempo, 606061
1, 199840, Tempo, 600000
1, 199847, Tempo, 594059
1, 199852, Tempo, 588235
1, 199860, Tempo, 582524
1, 199867, Tempo, 576923
1, 199872, Tempo, 571429
1, 199880, Tempo, 566038
1, 199887, Tempo, 560748
1, 199892, Tempo, 555556
1, 199900, Tempo, 550459
1, 199905, Tempo, 545455
1, 199912, Tempo, 540541
1, 199920, Tempo, 535714
1, 199925, Tempo, 530973
1, 199932, Tempo, 526316
1, 199937, Tempo, 521739
1, 199945, Tempo, 517241
1, 199952, Tempo, 512821
1, 199957, Tempo, 508475
1, 199965, Tempo, 504202
1, 199972, Tempo, 500000
1, 199977, Tempo, 495868
1, 199985, Tempo, 491803
1, 199990, Tempo, 487805
1, 199997, Tempo, 483871
1, 200005, Tempo, 480000
1, 200010, Tempo, 476190
1, 200017, Tempo, 472441
1, 200025, Tempo, 468750
1, 200030, Tempo, 465116
1, 200037, Tempo, 461538
1, 200042, Tempo, 458015
1, 200050, Tempo, 454545
1, 200057, Tempo, 451128
1, 200062, Tempo, 447761
1, 200070, Tempo, 444444
1, 200075, Tempo, 441176
1, 200082, Tempo, 437956
1, 200090, Tempo, 434783
1, 200095, Tempo, 431655
1, 200102, Tempo, 428571
1, 200110, Tempo, 425532
1, 200115, Tempo, 422535
1, 200122, Tempo, 419580
1, 200127, Tempo, 416667
1, 200135, Tempo, 413793
1, 200142, Tempo, 410959
1, 200147, Tempo, 408163
1, 200155, Tempo, 405405
1, 200160, Tempo, 402685
1, 200162, Tempo, 392157
1, 206880, Tempo, 428571
1, 219360, Tempo, 428571
1, 219380, Tempo, 431655
1, 219400, Tempo, 434783
1, 219420, Tempo, 437956
1, 219440, Tempo, 441176
1, 219460, Tempo, 444444
1, 219480, Tempo, 447761
1, 219500, Tempo, 451128
1, 219520, Tempo, 454545
1, 219540, Tempo, 458015
1, 219560, Tempo, 461538
1, 219580, Tempo, 465116
1, 219600, Tempo, 468750
1, 219620, Tempo, 472441
1, 219640, Tempo, 476190
1, 219660, Tempo, 480000
1, 219680, Tempo, 483871
1, 219700, Tempo, 487805
1, 219720, Tempo, 491803
1, 219740, Tempo, 495868
1, 219760, Tempo, 500000
1, 219780, Tempo, 504202
1, 219800, Tempo, 508475
1, 219820, Tempo, 512821
1, 219840, Tempo, 517241
1, 219860, Tempo, 521739
1, 219880, Tempo, 526316
1, 219900, Tempo, 530973
1, 219920, Tempo, 535714
1, 219940, Tempo, 540541
1, 219960, Tempo, 545455
1, 219980, Tempo, 550459
1, 220000, Tempo, 555556
1, 220020, Tempo, 560748
1, 220040, Tempo, 566038
1, 220060, Tempo, 571429
1, 220080, Tempo, 576923
1, 220100, Tempo, 582524
1, 220120, Tempo, 588235
1, 220140, Tempo, 594059
1, 220160, Tempo, 600000
1, 220180, Tempo, 606061
1, 220200, Tempo, 612245
1, 220220, Tempo, 618557
1, 220240, Tempo, 625000
1, 220260, Tempo, 631579
1, 220280, Tempo, 638298
1, 220300, Tempo, 645161
1, 220320, Tempo, 652174
1, 220340, Tempo, 659341
1, 220360, Tempo, 666667
1, 220380, Tempo, 674157
1, 220400, Tempo, 681818
1, 220420, Tempo, 689655
1, 220440, Tempo, 697674
1, 220460, Tempo, 705882
1, 220480, Tempo, 714286
1, 220500, Tempo, 722892
1, 220520, Tempo, 731707
1, 220540, Tempo, 740741
1, 220560, Tempo, 750000
1, 220576, Tempo, 740741
1, 220593, Tempo, 731707
1, 220606, Tempo, 722892
1, 220623, Tempo, 714286
1, 220640, Tempo, 705882
1, 220653, Tempo, 697674
1, 220670, Tempo, 689655
1, 220686, Tempo, 681818
1, 220700, Tempo, 674157
1, 220716, Tempo, 666667
1, 220733, Tempo, 659341
1, 220746, Tempo, 652174
1, 220763, Tempo, 645161
1, 220780, Tempo, 638298
1, 220793, Tempo, 631579
1, 220810, Tempo, 625000
1, 220826, Tempo, 618557
1, 220840, Tempo, 612245
1, 220856, Tempo, 606061
1, 220873, Tempo, 600000
1, 220886, Tempo, 594059
1, 220903, Tempo, 588235
1, 220920, Tempo, 582524
1, 220933, Tempo, 576923
1, 220950, Tempo, 571429
1, 220966, Tempo, 566038
1, 220980, Tempo, 560748
1, 220996, Tempo, 555556
1, 221013, Tempo, 550459
1, 221026, Tempo, 545455
1, 221043, Tempo, 540541
1, 221060, Tempo, 535714
1, 221073, Tempo, 530973
1, 221090, Tempo, 526316
1, 221106, Tempo, 521739
1, 221120, Tempo, 517241
1, 221136, Tempo, 512821
1, 221153, Tempo, 508475
1, 221166, Tempo, 504202
1, 221183, Tempo, 500000
1, 221200, Tempo, 495868
1, 221213, Tempo, 491803
1, 221230, Tempo, 487805
1, 221246, Tempo, 483871
1, 221260, Tempo, 480000
1, 221276, Tempo, 476190
1, 221293, Tempo, 472441
1, 221306, Tempo, 468750
1, 221323, Tempo, 465116
1, 221340, Tempo, 461538
1, 221353, Tempo, 458015
1, 221370, Tempo, 454545
1, 221386, Tempo, 451128
1, 221400, Tempo, 447761
1, 221416, Tempo, 444444
1, 221433, Tempo, 441176
1, 221446, Tempo, 437956
1, 221463, Tempo, 434783
1, 221480, Tempo, 431655
1, 221493, Tempo, 428571
1, 221510, Tempo, 425532
1, 221523, Tempo, 422535
1, 228480, Tempo, 317460
1, 239640, Tempo, 319149
1, 239665, Tempo, 320856
1, 239690, Tempo, 322581
1, 239715, Tempo, 324324
1, 239735, Tempo, 326087
1, 239760, Tempo, 327869
1, 239785, Tempo, 329670
1, 239805, Tempo, 331492
1, 239830, Tempo, 333333
1, 239855, Tempo, 335196
1, 239875, Tempo, 337079
1, 239900, Tempo, 338983
1, 239925, Tempo, 340909
1, 239950, Tempo, 342857
1, 239970, Tempo, 344828
1, 239995, Tempo, 346821
1, 240020, Tempo, 348837
1, 240040, Tempo, 350877
1, 240065, Tempo, 352941
1, 240090, Tempo, 355030
1, 240110, Tempo, 357143
1, 240135, Tempo, 359281
1, 240160, Tempo, 361446
1, 240180, Tempo, 363636
1, 240205, Tempo, 365854
1, 240230, Tempo, 368098
1, 240255, Tempo, 370370
1, 240275, Tempo, 372671
1, 240300, Tempo, 375000
1, 240325, Tempo, 377358
1, 240345, Tempo, 379747
1, 240370, Tempo, 382166
1, 240395, Tempo, 384615
1, 240415, Tempo, 387097
1, 240440, Tempo, 389610
1, 240465, Tempo, 392157
1, 240490, Tempo, 394737
1, 240510, Tempo, 397351
1, 240535, Tempo, 400000
1, 240560, Tempo, 402685
1, 240580, Tempo, 405405
1, 240605, Tempo, 408163
1, 240630, Tempo, 410959
1, 240650, Tempo, 413793
1, 240675, Tempo, 416667
1, 240700, Tempo, 419580
1, 240720, Tempo, 422535
1, 245760, Tempo, 638298
1, 245770, Tempo, 631579
1, 245780, Tempo, 625000
1, 245790, Tempo, 618557
1, 245800, Tempo, 612245
1, 245810, Tempo, 606061
1, 245820, Tempo, 600000
1, 245830, Tempo, 594059
1, 245840, Tempo, 588235
1, 245850, Tempo, 582524
1, 245860, Tempo, 576923
1, 245870, Tempo, 571429
1, 245880, Tempo, 566038
1, 245890, Tempo, 560748
1, 245900, Tempo, 555556
1, 245910, Tempo, 550459
1, 245920, Tempo, 545455
1, 245930, Tempo, 540541
1, 245940, Tempo, 535714
1, 245950, Tempo, 530973
1, 245960, Tempo, 526316
1, 245970, Tempo, 521739
1, 245980, Tempo, 517241
1, 245990, Tempo, 512821
1, 246000, Tempo, 508475
1, 246010, Tempo, 504202
1, 246020, Tempo, 500000
1, 246030, Tempo, 495868
1, 246040, Tempo, 491803
1, 246050, Tempo, 487805
1, 246060, Tempo, 483871
1, 246070, Tempo, 480000
1, 246080, Tempo, 476190
1, 246090, Tempo, 472441
1, 246100, Tempo, 468750
1, 246110, Tempo, 465116
1, 246120, Tempo, 461538
1, 246130, Tempo, 458015
1, 246140, Tempo, 454545
1, 246150, Tempo, 451128
1, 246160, Tempo, 447761
1, 246170, Tempo, 444444
1, 246180, Tempo, 441176
1, 246190, Tempo, 437956
1, 246200, Tempo, 434783
1, 246210, Tempo, 431655
1, 246220, Tempo, 428571
1, 246230, Tempo, 425532
1, 246235, Tempo, 422535
1, 246240, Tempo, 638298
1, 246250, Tempo, 631579
1, 246260, Tempo, 625000
1, 246270, Tempo, 618557
1, 246280, Tempo, 612245
1, 246290, Tempo, 606061
1, 246300, Tempo, 600000
1, 246310, Tempo, 594059
1, 246320, Tempo, 588235
1, 246330, Tempo, 582524
1, 246340, Tempo, 576923
1, 246350, Tempo, 571429
1, 246360, Tempo, 566038
1, 246370, Tempo, 560748
1, 246380, Tempo, 555556
1, 246390, Tempo, 550459
1, 246400, Tempo, 545455
1, 246410, Tempo, 540541
1, 246420, Tempo, 535714
1, 246430, Tempo, 530973
1, 246440, Tempo, 526316
1, 246450, Tempo, 521739
1, 246460, Tempo, 517241
1, 246470, Tempo, 512821
1, 246475, Tempo, 508475
1, 246485, Tempo, 504202
1, 246495, Tempo, 500000
1, 246505, Tempo, 495868
1, 246515, Tempo, 491803
1, 246525, Tempo, 487805
1, 246535, Tempo, 483871
1, 246545, Tempo, 480000
1, 246555, Tempo, 476190
1, 246565, Tempo, 472441
1, 246575, Tempo, 468750
1, 246585, Tempo, 465116
1, 246595, Tempo, 461538
1, 246605, Tempo, 458015
1, 246615, Tempo, 454545
1, 246625, Tempo, 451128
1, 246635, Tempo, 447761
1, 246645, Tempo, 444444
1, 246655, Tempo, 441176
1, 246665, Tempo, 437956
1, 246675, Tempo, 434783
1, 246685, Tempo, 431655
1, 246695, Tempo, 428571
1, 246705, Tempo, 425532
1, 246710, Tempo, 422535
1, 246720, Tempo, 652174
1, 246730, Tempo, 645161
1, 246740, Tempo, 638298
1, 246750, Tempo, 631579
1, 246760, Tempo, 625000
1, 246770, Tempo, 618557
1, 246780, Tempo, 612245
1, 246785, Tempo, 606061
1, 246795, Tempo, 600000
1, 246805, Tempo, 594059
1, 246815, Tempo, 588235
1, 246825, Tempo, 582524
1, 246835, Tempo, 576923
1, 246840, Tempo, 571429
1, 246850, Tempo, 566038
1, 246860, Tempo, 560748
1, 246870, Tempo, 555556
1, 246880, Tempo, 550459
1, 246890, Tempo, 545455
1, 246895, Tempo, 540541
1, 246905, Tempo, 535714
1, 246915, Tempo, 530973
1, 246925, Tempo, 526316
1, 246935, Tempo, 521739
1, 246945, Tempo, 517241
1, 246950, Tempo, 512821
1, 246960, Tempo, 508475
1, 246970, Tempo, 504202
1, 246980, Tempo, 500000
1, 246990, Tempo, 495868
1, 247000, Tempo, 491803
1, 247010, Tempo, 487805
1, 247015, Tempo, 483871
1, 247025, Tempo, 480000
1, 247035, Tempo, 476190
1, 247045, Tempo, 472441
1, 247055, Tempo, 468750
1, 247065, Tempo, 465116
1, 247070, Tempo, 461538
1, 247080, Tempo, 458015
1, 247090, Tempo, 454545
1, 247100, Tempo, 451128
1, 247110, Tempo, 447761
1, 247120, Tempo, 444444
1, 247125, Tempo, 441176
1, 247135, Tempo, 437956
1, 247145, Tempo, 434783
1, 247155, Tempo, 431655
1, 247165, Tempo, 428571
1, 247175, Tempo, 425532
1, 247180, Tempo, 422535
1, 247200, Tempo, 810811
1, 247210, Tempo, 800000
1, 247215, Tempo, 789474
1, 247225, Tempo, 779221
1, 247230, Tempo, 769231
1, 247240, Tempo, 759494
1, 247245, Tempo, 750000
1, 247250, Tempo, 740741
1, 247260, Tempo, 731707
1, 247265, Tempo, 722892
1, 247275, Tempo, 714286
1, 247280, Tempo, 705882
1, 247285, Tempo, 697674
1, 247295, Tempo, 689655
1, 247300, Tempo, 681818
1, 247310, Tempo, 674157
1, 247315, Tempo, 666667
1, 247320, Tempo, 659341
1, 247330, Tempo, 652174
1, 247335, Tempo, 645161
1, 247345, Tempo, 638298
1, 247350, Tempo, 631579
1, 247360, Tempo, 625000
1, 247365, Tempo, 618557
1, 247370, Tempo, 612245
1, 247380, Tempo, 606061
1, 247385, Tempo, 600000
1, 247395, Tempo, 594059
1, 247400, Tempo, 588235
1, 247405, Tempo, 582524
1, 247415, Tempo, 576923
1, 247420, Tempo, 571429
1, 247430, Tempo, 566038
1, 247435, Tempo, 560748
1, 247440, Tempo, 555556
1, 247450, Tempo, 550459
1, 247455, Tempo, 545455
1, 247465, Tempo, 540541
1, 247470, Tempo, 535714
1, 247480, Tempo, 530973
1, 247485, Tempo, 526316
1, 247490, Tempo, 521739
1, 247500, Tempo, 517241
1, 247505, Tempo, 512821
1, 247515, Tempo, 508475
1, 247520, Tempo, 504202
1, 247525, Tempo, 500000
1, 247535, Tempo, 495868
1, 247540, Tempo, 491803
1, 247550, Tempo, 487805
1, 247555, Tempo, 483871
1, 247560, Tempo, 480000
1, 247570, Tempo, 476190
1, 247575, Tempo, 472441
1, 247585, Tempo, 468750
1, 247590, Tempo, 465116
1, 247600, Tempo, 461538
1, 247605, Tempo, 458015
1, 247610, Tempo, 454545
1, 247620, Tempo, 451128
1, 247625, Tempo, 447761
1, 247635, Tempo, 444444
1, 247640, Tempo, 441176
1, 247645, Tempo, 437956
1, 247655, Tempo, 434783
1, 247660, Tempo, 431655
1, 247670, Tempo, 428571
1, 247675, Tempo, 425532
1, 247680, Tempo, 422535
1, 260160, Tempo, 612245
1, 260160, End_track
2, 0, Start_track
2, 0, MIDI_port, 0
2, 0, Title_t, "Flutes"
2, 0, Program_c, 0, 73
2, 0, Control_c, 0, 7, 100
2, 0, Control_c, 0, 10, 38
2, 0, Control_c, 0, 93, 0
2, 0, Control_c, 0, 91, 66
2, 4440, Note_on_c, 0, 84, 61
2, 4440, Note_on_c, 0, 75, 69
2, 4680, Note_on_c, 0, 75, 0
2, 4680, Note_on_c, 0, 84, 0
2, 4680, Note_on_c, 0, 84, 42
2, 4680, Note_on_c, 0, 75, 40
2, 4800, Note_on_c, 0, 75, 0
2, 4800, Note_on_c, 0, 84, 0
2, 4800, Note_on_c, 0, 84, 53
2, 4800, Note_on_c, 0, 80, 44
2, 5040, Note_on_c, 0, 80, 0
2, 5040, Note_on_c, 0, 84, 0
2, 5400, Note_on_c, 0, 89, 65
2, 5400, Note_on_c, 0, 80, 76
2, 5640, Note_on_c, 0, 80, 0
2, 5640, Note_on_c, 0, 89, 0
2, 5640, Note_on_c, 0, 89, 45
2, 5640, Note_on_c, 0, 80, 48
2, 5760, Note_on_c, 0, 80, 0
2, 5760, Note_on_c, 0, 89, 0
2, 5760, Note_on_c, 0, 89, 65
2, 5760, Note_on_c, 0, 79, 45
2, 6000, Note_on_c, 0, 79, 0
2, 6120, Note_on_c, 0, 89, 0
2, 6120, Note_on_c, 0, 87, 77
2, 6180, Note_on_c, 0, 87, 0
2, 6180, Note_on_c, 0, 86, 61
2, 6240, Note_on_c, 0, 86, 0
2, 6240, Note_on_c, 0, 84, 69
2, 6300, Note_on_c, 0, 84, 0
2, 6300, Note_on_c, 0, 83, 67
2, 6360, Note_on_c, 0, 83, 0
2, 6360, Note_on_c, 0, 86, 63
2, 6360, Note_on_c, 0, 83, 72
2, 6600, Note_on_c, 0, 83, 0
2, 6600, Note_on_c, 0, 86, 0
2, 6600, Note_on_c, 0, 86, 38
2, 6600, Note_on_c, 0, 83, 42
2, 6720, Note_on_c, 0, 83, 0
2, 6720, Note_on_c, 0, 86, 0
2, 6720, Note_on_c, 0, 87, 38
2, 6720, Note_on_c, 0, 84, 40
2, 6780, Note_on_c, 0, 84, 0
2, 6780, Note_on_c, 0, 87, 0
2, 6840, Note_on_c, 0, 89, 74
2, 6840, Note_on_c, 0, 86, 85
2, 6900, Note_on_c, 0, 86, 0
2, 6900, Note_on_c, 0, 89, 0
2, 6960, Note_on_c, 0, 87, 78
2, 6960, Note_on_c, 0, 84, 65
2, 7020, Note_on_c, 0, 84, 0
2, 7020, Note_on_c, 0, 87, 0
2, 7080, Note_on_c, 0, 86, 85
2, 7080, Note_on_c, 0, 83, 76
2, 7140, Note_on_c, 0, 83, 0
2, 7140, Note_on_c, 0, 86, 0
2, 7200, Note_on_c, 0, 84, 80
2, 7320, Note_on_c, 0, 84, 0
2, 8640, Note_on_c, 0, 79, 45
2, 8760, Note_on_c, 0, 79, 0
2, 8880, Note_on_c, 0, 79, 45
2, 9000, Note_on_c, 0, 79, 0
2, 9120, Note_on_c, 0, 79, 44
2, 9240, Note_on_c, 0, 79, 0
2, 10560, Note_on_c, 0, 82, 56
2, 10680, Note_on_c, 0, 82, 0
2, 10800, Note_on_c, 0, 82, 43
2, 10920, Note_on_c, 0, 82, 0
2, 11040, Note_on_c, 0, 82, 81
2, 11160, Note_on_c, 0, 82, 0
2, 12000, Note_on_c, 0, 87, 76
2, 12000, Note_on_c, 0, 75, 90
2, 12240, Note_on_c, 0, 75, 0
2, 12240, Note_on_c, 0, 87, 0
2, 12240, Note_on_c, 0, 87, 61
2, 12240, Note_on_c, 0, 75, 76
2, 12300, Note_on_c, 0, 75, 0
2, 12300, Note_on_c, 0, 87, 0
2, 12300, Note_on_c, 0, 86, 46
2, 12300, Note_on_c, 0, 74, 71
2, 12360, Note_on_c, 0, 74, 0
2, 12360, Note_on_c, 0, 86, 0
2, 12360, Note_on_c, 0, 86, 74
2, 12360, Note_on_c, 0, 74, 73
2, 12420, Note_on_c, 0, 74, 0
2, 12420, Note_on_c, 0, 86, 0
2, 12420, Note_on_c, 0, 84, 72
2, 12420, Note_on_c, 0, 72, 29
2, 12480, Note_on_c, 0, 72, 0
2, 12480, Note_on_c, 0, 84, 0
2, 12480, Note_on_c, 0, 84, 69
2, 12480, Note_on_c, 0, 72, 35
2, 12540, Note_on_c, 0, 72, 0
2, 12540, Note_on_c, 0, 84, 0
2, 12540, Note_on_c, 0, 82, 65
2, 12540, Note_on_c, 0, 70, 72
2, 12600, Note_on_c, 0, 70, 0
2, 12600, Note_on_c, 0, 82, 0
2, 12600, Note_on_c, 0, 82, 65
2, 12600, Note_on_c, 0, 70, 76
2, 12660, Note_on_c, 0, 70, 0
2, 12660, Note_on_c, 0, 82, 0
2, 12660, Note_on_c, 0, 80, 68
2, 12660, Note_on_c, 0, 68, 72
2, 12720, Note_on_c, 0, 68, 0
2, 12720, Note_on_c, 0, 80, 0
2, 12720, Note_on_c, 0, 80, 65
2, 12720, Note_on_c, 0, 68, 67
2, 12780, Note_on_c, 0, 68, 0
2, 12780, Note_on_c, 0, 80, 0
2, 12780, Note_on_c, 0, 79, 46
2, 12780, Note_on_c, 0, 67, 49
2, 12840, Note_on_c, 0, 67, 0
2, 12840, Note_on_c, 0, 79, 0
2, 12840, Note_on_c, 0, 79, 54
2, 12840, Note_on_c, 0, 67, 46
2, 12900, Note_on_c, 0, 67, 0
2, 12900, Note_on_c, 0, 79, 0
2, 12900, Note_on_c, 0, 77, 51
2, 12900, Note_on_c, 0, 65, 53
2, 12960, Note_on_c, 0, 65, 0
2, 12960, Note_on_c, 0, 77, 0
2, 12960, Note_on_c, 0, 77, 61
2, 12960, Note_on_c, 0, 65, 59
2, 13080, Note_on_c, 0, 65, 0
2, 13080, Note_on_c, 0, 77, 0
2, 13920, Note_on_c, 0, 89, 86
2, 13920, Note_on_c, 0, 77, 89
2, 14160, Note_on_c, 0, 77, 0
2, 14160, Note_on_c, 0, 89, 0
2, 14160, Note_on_c, 0, 89, 76
2, 14160, Note_on_c, 0, 77, 62
2, 14220, Note_on_c, 0, 77, 0
2, 14220, Note_on_c, 0, 89, 0
2, 14220, Note_on_c, 0, 87, 70
2, 14220, Note_on_c, 0, 75, 84
2, 14280, Note_on_c, 0, 75, 0
2, 14280, Note_on_c, 0, 87, 0
2, 14280, Note_on_c, 0, 87, 64
2, 14280, Note_on_c, 0, 75, 82
2, 14340, Note_on_c, 0, 75, 0
2, 14340, Note_on_c, 0, 87, 0
2, 14340, Note_on_c, 0, 86, 73
2, 14340, Note_on_c, 0, 74, 73
2, 14400, Note_on_c, 0, 74, 0
2, 14400, Note_on_c, 0, 86, 0
2, 14400, Note_on_c, 0, 86, 71
2, 14400, Note_on_c, 0, 74, 84
2, 14460, Note_on_c, 0, 74, 0
2, 14460, Note_on_c, 0, 86, 0
2, 14460, Note_on_c, 0, 84, 67
2, 14460, Note_on_c, 0, 72, 53
2, 14520, Note_on_c, 0, 72, 0
2, 14520, Note_on_c, 0, 84, 0
2, 14520, Note_on_c, 0, 84, 69
2, 14520, Note_on_c, 0, 72, 48
2, 14580, Note_on_c, 0, 72, 0
2, 14580, Note_on_c, 0, 84, 0
2, 14580, Note_on_c, 0, 82, 66
2, 14580, Note_on_c, 0, 70, 85
2, 14640, Note_on_c, 0, 70, 0
2, 14640, Note_on_c, 0, 82, 0
2, 14640, Note_on_c, 0, 82, 71
2, 14640, Note_on_c, 0, 70, 89
2, 14700, Note_on_c, 0, 70, 0
2, 14700, Note_on_c, 0, 82, 0
2, 14700, Note_on_c, 0, 83, 73
2, 14700, Note_on_c, 0, 71, 70
2, 14760, Note_on_c, 0, 71, 0
2, 14760, Note_on_c, 0, 83, 0
2, 14760, Note_on_c, 0, 84, 74
2, 14760, Note_on_c, 0, 72, 35
2, 14820, Note_on_c, 0, 72, 0
2, 14820, Note_on_c, 0, 84, 0
2, 14820, Note_on_c, 0, 80, 73
2, 14820, Note_on_c, 0, 68, 84
2, 14880, Note_on_c, 0, 68, 0
2, 14880, Note_on_c, 0, 80, 0
2, 14880, Note_on_c, 0, 79, 70
2, 14880, Note_on_c, 0, 67, 77
2, 15120, Note_on_c, 0, 67, 0
2, 15120, Note_on_c, 0, 79, 0
2, 15120, Note_on_c, 0, 82, 68
2, 15120, Note_on_c, 0, 70, 84
2, 15360, Note_on_c, 0, 70, 0
2, 15360, Note_on_c, 0, 82, 0
2, 15360, Note_on_c, 0, 85, 69
2, 15360, Note_on_c, 0, 73, 74
2, 15720, Note_on_c, 0, 73, 0
2, 15720, Note_on_c, 0, 85, 0
2, 15720, Note_on_c, 0, 79, 65
2, 15720, Note_on_c, 0, 67, 72
2, 15780, Note_on_c, 0, 67, 0
2, 15780, Note_on_c, 0, 79, 0
2, 15840, Note_on_c, 0, 80, 80
2, 15840, Note_on_c, 0, 68, 89
2, 16080, Note_on_c, 0, 68, 0
2, 16080, Note_on_c, 0, 80, 0
2, 16080, Note_on_c, 0, 84, 62
2, 16080, Note_on_c, 0, 72, 57
2, 16320, Note_on_c, 0, 72, 0
2, 16320, Note_on_c, 0, 84, 0
2, 16320, Note_on_c, 0, 87, 77
2, 16320, Note_on_c, 0, 75, 85
2, 16680, Note_on_c, 0, 75, 0
2, 16680, Note_on_c, 0, 87, 0
2, 16680, Note_on_c, 0, 81, 73
2, 16680, Note_on_c, 0, 69, 45
2, 16740, Note_on_c, 0, 69, 0
2, 16740, Note_on_c, 0, 81, 0
2, 16800, Note_on_c, 0, 82, 65
2, 16800, Note_on_c, 0, 70, 82
2, 16920, Note_on_c, 0, 70, 0
2, 16920, Note_on_c, 0, 82, 0
2, 21240, Note_on_c, 0, 86, 53
2, 21240, Note_on_c, 0, 77, 66
2, 21300, Note_on_c, 0, 77, 0
2, 21300, Note_on_c, 0, 86, 0
2, 21360, Note_on_c, 0, 87, 66
2, 21360, Note_on_c, 0, 81, 77
2, 21420, Note_on_c, 0, 81, 0
2, 21420, Note_on_c, 0, 87, 0
2, 21480, Note_on_c, 0, 87, 66
2, 21480, Note_on_c, 0, 81, 82
2, 21540, Note_on_c, 0, 81, 0
2, 21540, Note_on_c, 0, 87, 0
2, 21600, Note_on_c, 0, 86, 58
2, 21600, Note_on_c, 0, 82, 65
2, 21660, Note_on_c, 0, 82, 0
2, 21660, Note_on_c, 0, 86, 0
2, 21960, Note_on_c, 0, 87, 76
2, 21960, Note_on_c, 0, 81, 78
2, 22020, Note_on_c, 0, 81, 0
2, 22020, Note_on_c, 0, 87, 0
2, 22080, Note_on_c, 0, 86, 58
2, 22080, Note_on_c, 0, 82, 72
2, 22140, Note_on_c, 0, 82, 0
2, 22140, Note_on_c, 0, 86, 0
2, 22440, Note_on_c, 0, 87, 74
2, 22440, Note_on_c, 0, 81, 80
2, 22500, Note_on_c, 0, 81, 0
2, 22500, Note_on_c, 0, 87, 0
2, 22560, Note_on_c, 0, 86, 59
2, 22560, Note_on_c, 0, 82, 71
2, 22620, Note_on_c, 0, 82, 0
2, 22620, Note_on_c, 0, 86, 0
2, 28800, Control_c, 0, 7, 99
2, 28800, Note_on_c, 0, 91, 67
2, 28820, Control_c, 0, 7, 100
2, 28840, Control_c, 0, 7, 101
2, 28860, Control_c, 0, 7, 102
2, 28880, Control_c, 0, 7, 103
2, 28900, Control_c, 0, 7, 104
2, 28915, Control_c, 0, 7, 105
2, 28935, Control_c, 0, 7, 106
2, 28955, Control_c, 0, 7, 107
2, 28975, Control_c, 0, 7, 108
2, 28995, Control_c, 0, 7, 109
2, 29015, Control_c, 0, 7, 110
2, 29030, Control_c, 0, 7, 111
2, 29050, Control_c, 0, 7, 112
2, 29070, Control_c, 0, 7, 113
2, 29090, Control_c, 0, 7, 114
2, 29110, Control_c, 0, 7, 115
2, 29130, Control_c, 0, 7, 116
2, 29145, Control_c, 0, 7, 117
2, 29160, Note_on_c, 0, 91, 0
2, 29160, Note_on_c, 0, 89, 67
2, 29165, Control_c, 0, 7, 118
2, 29185, Control_c, 0, 7, 119
2, 29205, Control_c, 0, 7, 120
2, 29225, Control_c, 0, 7, 121
2, 29245, Control_c, 0, 7, 122
2, 29260, Control_c, 0, 7, 123
2, 29280, Note_on_c, 0, 89, 0
2, 29280, Control_c, 0, 7, 99
2, 29280, Note_on_c, 0, 88, 56
2, 29520, Note_on_c, 0, 88, 0
2, 29520, Note_on_c, 0, 86, 68
2, 29580, Note_on_c, 0, 86, 0
2, 29580, Note_on_c, 0, 88, 68
2, 29640, Note_on_c, 0, 88, 0
2, 29640, Note_on_c, 0, 89, 73
2, 29700, Note_on_c, 0, 89, 0
2, 29700, Note_on_c, 0, 86, 77
2, 29760, Note_on_c, 0, 86, 0
2, 29760, Note_on_c, 0, 84, 45
2, 30000, Note_on_c, 0, 84, 0
2, 30000, Note_on_c, 0, 79, 55
2, 30180, Note_on_c, 0, 79, 0
2, 30180, Note_on_c, 0, 84, 67
2, 30240, Note_on_c, 0, 84, 0
2, 30240, Note_on_c, 0, 86, 62
2, 30330, Note_on_c, 0, 86, 0
2, 30360, Note_on_c, 0, 86, 71
2, 30450, Note_on_c, 0, 86, 0
2, 30480, Note_on_c, 0, 86, 71
2, 30570, Note_on_c, 0, 86, 0
2, 30600, Note_on_c, 0, 87, 73
2, 30690, Note_on_c, 0, 87, 0
2, 30720, Note_on_c, 0, 87, 76
2, 30960, Note_on_c, 0, 87, 0
2, 30960, Note_on_c, 0, 88, 76
2, 31080, Note_on_c, 0, 88, 0
2, 31140, Note_on_c, 0, 84, 86
2, 31200, Note_on_c, 0, 84, 0
2, 31200, Note_on_c, 0, 89, 80
2, 31200, Note_on_c, 0, 84, 63
2, 31440, Note_on_c, 0, 84, 0
2, 31440, Note_on_c, 0, 89, 0
2, 31440, Note_on_c, 0, 88, 43
2, 31440, Note_on_c, 0, 84, 51
2, 31560, Note_on_c, 0, 84, 0
2, 31560, Note_on_c, 0, 88, 0
2, 31620, Note_on_c, 0, 84, 67
2, 31680, Note_on_c, 0, 84, 0
2, 31680, Note_on_c, 0, 84, 82
2, 32040, Note_on_c, 0, 84, 0
2, 32100, Note_on_c, 0, 89, 73
2, 32100, Note_on_c, 0, 86, 73
2, 32160, Note_on_c, 0, 86, 0
2, 32160, Note_on_c, 0, 89, 0
2, 32160, Note_on_c, 0, 88, 62
2, 32160, Note_on_c, 0, 84, 70
2, 32220, Note_on_c, 0, 84, 0
2, 32220, Note_on_c, 0, 88, 0
2, 32280, Note_on_c, 0, 88, 64
2, 32280, Note_on_c, 0, 84, 72
2, 32340, Note_on_c, 0, 84, 0
2, 32340, Note_on_c, 0, 88, 0
2, 32400, Note_on_c, 0, 88, 67
2, 32400, Note_on_c, 0, 84, 68
2, 32460, Note_on_c, 0, 84, 0
2, 32460, Note_on_c, 0, 88, 0
2, 32460, Note_on_c, 0, 86, 73
2, 32460, Note_on_c, 0, 83, 65
2, 32520, Note_on_c, 0, 83, 0
2, 32520, Note_on_c, 0, 86, 0
2, 32520, Note_on_c, 0, 84, 60
2, 32520, Note_on_c, 0, 81, 80
2, 32580, Note_on_c, 0, 81, 0
2, 32580, Note_on_c, 0, 84, 0
2, 32580, Note_on_c, 0, 86, 62
2, 32580, Note_on_c, 0, 83, 73
2, 32640, Note_on_c, 0, 83, 0
2, 32640, Note_on_c, 0, 86, 0
2, 32640, Note_on_c, 0, 86, 77
2, 32640, Note_on_c, 0, 83, 76
2, 32820, Note_on_c, 0, 86, 0
2, 32820, Note_on_c, 0, 87, 76
2, 32880, Note_on_c, 0, 87, 0
2, 32880, Note_on_c, 0, 83, 0
2, 32880, Note_on_c, 0, 88, 72
2, 33000, Note_on_c, 0, 88, 0
2, 33120, Note_on_c, 0, 72, 73
2, 33120, Note_on_c, 0, 84, 66
2, 34320, Note_on_c, 0, 84, 0
2, 34320, Note_on_c, 0, 72, 0
2, 34320, Note_on_c, 0, 83, 66
2, 34320, Note_on_c, 0, 77, 77
2, 34560, Note_on_c, 0, 77, 0
2, 34560, Note_on_c, 0, 83, 0
2, 34560, Note_on_c, 0, 84, 65
2, 34560, Note_on_c, 0, 75, 81
2, 34620, Note_on_c, 0, 75, 0
2, 34620, Note_on_c, 0, 84, 0
2, 34680, Note_on_c, 0, 84, 58
2, 34680, Note_on_c, 0, 79, 72
2, 34740, Note_on_c, 0, 79, 0
2, 34740, Note_on_c, 0, 84, 0
2, 34800, Note_on_c, 0, 84, 67
2, 34800, Note_on_c, 0, 75, 89
2, 34860, Note_on_c, 0, 75, 0
2, 34860, Note_on_c, 0, 84, 0
2, 34920, Note_on_c, 0, 83, 74
2, 34920, Note_on_c, 0, 74, 90
2, 34980, Note_on_c, 0, 74, 0
2, 34980, Note_on_c, 0, 83, 0
2, 35040, Note_on_c, 0, 84, 69
2, 35040, Note_on_c, 0, 72, 58
2, 35160, Note_on_c, 0, 72, 0
2, 35160, Note_on_c, 0, 84, 0
2, 37920, Note_on_c, 0, 83, 68
2, 37920, Note_on_c, 0, 74, 85
2, 38160, Note_on_c, 0, 74, 0
2, 38160, Note_on_c, 0, 83, 0
2, 38160, Note_on_c, 0, 86, 77
2, 38160, Note_on_c, 0, 83, 94
2, 38400, Note_on_c, 0, 83, 0
2, 38400, Note_on_c, 0, 86, 0
2, 38400, Note_on_c, 0, 89, 76
2, 38400, Note_on_c, 0, 86, 93
2, 38580, Note_on_c, 0, 86, 0
2, 38580, Note_on_c, 0, 89, 0
2, 38580, Note_on_c, 0, 87, 90
2, 38580, Note_on_c, 0, 84, 84
2, 38610, Note_on_c, 0, 84, 0
2, 38610, Note_on_c, 0, 87, 0
2, 38640, Note_on_c, 0, 86, 81
2, 38640, Note_on_c, 0, 83, 93
2, 38700, Note_on_c, 0, 83, 0
2, 38700, Note_on_c, 0, 86, 0
2, 38760, Note_on_c, 0, 84, 67
2, 38760, Note_on_c, 0, 80, 93
2, 38820, Note_on_c, 0, 80, 0
2, 38820, Note_on_c, 0, 84, 0
2, 38880, Note_on_c, 0, 83, 82
2, 38880, Note_on_c, 0, 79, 89
2, 38940, Note_on_c, 0, 79, 0
2, 38940, Note_on_c, 0, 83, 0
2, 39000, Note_on_c, 0, 83, 76
2, 39000, Note_on_c, 0, 77, 84
2, 39060, Note_on_c, 0, 77, 0
2, 39060, Note_on_c, 0, 83, 0
2, 39120, Note_on_c, 0, 83, 80
2, 39120, Note_on_c, 0, 75, 84
2, 39180, Note_on_c, 0, 75, 0
2, 39180, Note_on_c, 0, 83, 0
2, 39240, Note_on_c, 0, 83, 85
2, 39240, Note_on_c, 0, 74, 99
2, 39300, Note_on_c, 0, 74, 0
2, 39300, Note_on_c, 0, 83, 0
2, 39360, Note_on_c, 0, 84, 80
2, 39360, Note_on_c, 0, 72, 62
2, 39480, Note_on_c, 0, 72, 0
2, 39480, Note_on_c, 0, 84, 0
2, 39480, Note_on_c, 0, 84, 80
2, 39480, Note_on_c, 0, 75, 90
2, 39600, Note_on_c, 0, 75, 0
2, 39600, Note_on_c, 0, 84, 0
2, 39720, Note_on_c, 0, 89, 85
2, 39720, Note_on_c, 0, 80, 89
2, 39840, Note_on_c, 0, 80, 0
2, 39840, Note_on_c, 0, 89, 0
2, 39960, Note_on_c, 0, 87, 82
2, 39960, Note_on_c, 0, 79, 98
2, 40080, Note_on_c, 0, 79, 0
2, 40080, Note_on_c, 0, 87, 0
2, 40200, Note_on_c, 0, 83, 89
2, 40200, Note_on_c, 0, 77, 93
2, 40320, Note_on_c, 0, 77, 0
2, 40320, Note_on_c, 0, 83, 0
2, 40320, Note_on_c, 0, 84, 89
2, 40320, Note_on_c, 0, 75, 99
2, 40440, Note_on_c, 0, 75, 0
2, 40440, Note_on_c, 0, 84, 0
2, 47040, Note_on_c, 0, 83, 89
2, 47520, Note_on_c, 0, 83, 0
2, 47520, Note_on_c, 0, 84, 76
2, 47640, Note_on_c, 0, 84, 0
2, 47640, Note_on_c, 0, 87, 58
2, 47760, Note_on_c, 0, 87, 0
2, 47880, Note_on_c, 0, 84, 56
2, 48000, Note_on_c, 0, 84, 0
2, 48120, Note_on_c, 0, 86, 44
2, 48240, Note_on_c, 0, 86, 0
2, 48360, Note_on_c, 0, 79, 43
2, 48480, Note_on_c, 0, 79, 0
2, 48600, Note_on_c, 0, 87, 43
2, 48600, Note_on_c, 0, 84, 43
2, 48720, Note_on_c, 0, 84, 0
2, 48720, Note_on_c, 0, 87, 0
2, 48720, Note_on_c, 0, 87, 53
2, 48720, Note_on_c, 0, 84, 46
2, 48840, Note_on_c, 0, 84, 0
2, 48840, Note_on_c, 0, 87, 0
2, 48840, Note_on_c, 0, 87, 73
2, 48840, Note_on_c, 0, 84, 64
2, 48960, Note_on_c, 0, 84, 0
2, 48960, Note_on_c, 0, 87, 0
2, 48960, Note_on_c, 0, 91, 71
2, 48960, Note_on_c, 0, 87, 73
2, 49200, Note_on_c, 0, 87, 0
2, 49200, Note_on_c, 0, 91, 0
2, 49200, Note_on_c, 0, 83, 73
2, 49200, Note_on_c, 0, 77, 65
2, 49440, Note_on_c, 0, 77, 0
2, 49440, Note_on_c, 0, 83, 0
2, 49440, Note_on_c, 0, 84, 73
2, 49440, Note_on_c, 0, 75, 85
2, 49680, Note_on_c, 0, 75, 0
2, 49680, Note_on_c, 0, 84, 0
2, 49680, Note_on_c, 0, 87, 89
2, 49920, Note_on_c, 0, 87, 0
2, 49920, Note_on_c, 0, 91, 86
2, 50100, Note_on_c, 0, 91, 0
2, 50100, Note_on_c, 0, 89, 93
2, 50130, Note_on_c, 0, 89, 0
2, 50160, Note_on_c, 0, 87, 90
2, 50220, Note_on_c, 0, 87, 0
2, 50280, Note_on_c, 0, 86, 94
2, 50340, Note_on_c, 0, 86, 0
2, 50400, Note_on_c, 0, 84, 90
2, 50520, Note_on_c, 0, 84, 0
2, 50580, Note_on_c, 0, 79, 90
2, 50640, Note_on_c, 0, 79, 0
2, 50640, Note_on_c, 0, 84, 89
2, 50760, Note_on_c, 0, 84, 0
2, 50820, Note_on_c, 0, 79, 86
2, 50880, Note_on_c, 0, 79, 0
2, 50880, Note_on_c, 0, 84, 89
2, 51000, Note_on_c, 0, 84, 0
2, 51060, Note_on_c, 0, 86, 95
2, 51090, Note_on_c, 0, 86, 0
2, 51120, Note_on_c, 0, 87, 95
2, 51180, Note_on_c, 0, 87, 0
2, 51300, Note_on_c, 0, 83, 94
2, 51330, Note_on_c, 0, 83, 0
2, 51360, Note_on_c, 0, 84, 89
2, 51420, Note_on_c, 0, 84, 0
2, 51540, Note_on_c, 0, 86, 99
2, 51570, Note_on_c, 0, 86, 0
2, 51600, Note_on_c, 0, 87, 94
2, 51660, Note_on_c, 0, 87, 0
2, 51780, Note_on_c, 0, 83, 80
2, 51780, Note_on_c, 0, 74, 98
2, 51810, Note_on_c, 0, 74, 0
2, 51810, Note_on_c, 0, 83, 0
2, 51840, Note_on_c, 0, 84, 71
2, 51840, Note_on_c, 0, 75, 95
2, 51900, Note_on_c, 0, 75, 0
2, 51900, Note_on_c, 0, 84, 0
2, 52320, Note_on_c, 0, 72, 84
2, 52440, Note_on_c, 0, 72, 0
2, 52560, Note_on_c, 0, 72, 89
2, 52680, Note_on_c, 0, 72, 0
2, 52800, Note_on_c, 0, 72, 89
2, 53040, Note_on_c, 0, 72, 0
2, 65760, Note_on_c, 0, 79, 74
2, 65760, Note_on_c, 0, 87, 66
2, 66360, Note_on_c, 0, 87, 0
2, 66360, Note_on_c, 0, 79, 0
2, 66360, Note_on_c, 0, 87, 53
2, 66360, Note_on_c, 0, 79, 85
2, 66480, Note_on_c, 0, 79, 0
2, 66480, Note_on_c, 0, 87, 0
2, 66480, Note_on_c, 0, 87, 59
2, 66480, Note_on_c, 0, 79, 85
2, 66600, Note_on_c, 0, 79, 0
2, 66600, Note_on_c, 0, 87, 0
2, 66600, Note_on_c, 0, 87, 58
2, 66600, Note_on_c, 0, 79, 84
2, 66720, Note_on_c, 0, 79, 0
2, 66720, Note_on_c, 0, 87, 0
2, 66720, Note_on_c, 0, 87, 59
2, 66720, Note_on_c, 0, 79, 84
2, 66840, Note_on_c, 0, 79, 0
2, 66840, Note_on_c, 0, 87, 0
2, 67680, Note_on_c, 0, 80, 71
2, 67680, Note_on_c, 0, 68, 86
2, 67860, Note_on_c, 0, 68, 0
2, 67860, Note_on_c, 0, 80, 0
2, 67920, Note_on_c, 0, 84, 73
2, 67920, Note_on_c, 0, 72, 44
2, 68100, Note_on_c, 0, 72, 0
2, 68100, Note_on_c, 0, 84, 0
2, 68160, Note_on_c, 0, 87, 73
2, 68160, Note_on_c, 0, 75, 98
2, 68340, Note_on_c, 0, 75, 0
2, 68340, Note_on_c, 0, 87, 0
2, 68340, Note_on_c, 0, 85, 68
2, 68340, Note_on_c, 0, 73, 81
2, 68370, Note_on_c, 0, 73, 0
2, 68370, Note_on_c, 0, 85, 0
2, 68400, Note_on_c, 0, 84, 72
2, 68400, Note_on_c, 0, 72, 55
2, 68460, Note_on_c, 0, 72, 0
2, 68460, Note_on_c, 0, 84, 0
2, 68520, Note_on_c, 0, 82, 73
2, 68520, Note_on_c, 0, 70, 86
2, 68580, Note_on_c, 0, 70, 0
2, 68580, Note_on_c, 0, 82, 0
2, 68640, Note_on_c, 0, 81, 80
2, 68640, Note_on_c, 0, 69, 84
2, 68760, Note_on_c, 0, 69, 0
2, 68760, Note_on_c, 0, 81, 0
2, 83940, Note_on_c, 0, 87, 62
2, 83940, Note_on_c, 0, 75, 72
2, 84000, Note_on_c, 0, 75, 0
2, 84000, Note_on_c, 0, 87, 0
2, 84000, Note_on_c, 0, 87, 86
2, 84000, Note_on_c, 0, 80, 80
2, 84240, Note_on_c, 0, 80, 0
2, 84240, Note_on_c, 0, 79, 81
2, 84360, Note_on_c, 0, 79, 0
2, 84360, Note_on_c, 0, 87, 0
2, 84420, Note_on_c, 0, 87, 69
2, 84420, Note_on_c, 0, 75, 71
2, 84480, Note_on_c, 0, 75, 0
2, 84480, Note_on_c, 0, 87, 0
2, 84480, Note_on_c, 0, 87, 84
2, 84480, Note_on_c, 0, 84, 86
2, 84720, Note_on_c, 0, 84, 0
2, 84720, Note_on_c, 0, 82, 73
2, 84840, Note_on_c, 0, 82, 0
2, 84840, Note_on_c, 0, 87, 0
2, 101040, Note_on_c, 0, 82, 42
2, 101280, Note_on_c, 0, 87, 54
2, 101760, Note_on_c, 0, 82, 0
2, 101760, Note_on_c, 0, 84, 42
2, 101880, Note_on_c, 0, 84, 0
2, 101880, Note_on_c, 0, 87, 0
2, 102000, Note_on_c, 0, 84, 57
2, 102240, Note_on_c, 0, 87, 52
2, 102840, Note_on_c, 0, 87, 0
2, 102840, Note_on_c, 0, 84, 0
2, 102960, Note_on_c, 0, 84, 58
2, 103200, Note_on_c, 0, 87, 43
2, 103680, Note_on_c, 0, 84, 0
2, 103680, Note_on_c, 0, 82, 52
2, 103800, Note_on_c, 0, 82, 0
2, 103800, Note_on_c, 0, 87, 0
2, 108480, Note_on_c, 0, 75, 94
2, 108600, Note_on_c, 0, 75, 0
2, 108840, Note_on_c, 0, 84, 81
2, 109080, Note_on_c, 0, 84, 0
2, 109140, Note_on_c, 0, 82, 84
2, 109170, Note_on_c, 0, 82, 0
2, 109200, Note_on_c, 0, 80, 85
2, 109230, Note_on_c, 0, 80, 0
2, 109260, Note_on_c, 0, 79, 89
2, 109290, Note_on_c, 0, 79, 0
2, 109320, Note_on_c, 0, 77, 80
2, 109350, Note_on_c, 0, 77, 0
2, 109380, Note_on_c, 0, 82, 86
2, 109410, Note_on_c, 0, 82, 0
2, 109440, Note_on_c, 0, 79, 85
2, 109560, Note_on_c, 0, 79, 0
2, 109560, Note_on_c, 0, 91, 78
2, 109560, Note_on_c, 0, 79, 73
2, 109680, Note_on_c, 0, 79, 0
2, 109680, Note_on_c, 0, 91, 0
2, 109800, Note_on_c, 0, 87, 82
2, 109800, Note_on_c, 0, 75, 90
2, 109920, Note_on_c, 0, 75, 0
2, 109920, Note_on_c, 0, 87, 0
2, 110040, Note_on_c, 0, 89, 73
2, 110040, Note_on_c, 0, 77, 68
2, 110160, Note_on_c, 0, 77, 0
2, 110160, Note_on_c, 0, 89, 0
2, 110280, Note_on_c, 0, 82, 72
2, 110280, Note_on_c, 0, 70, 85
2, 110400, Note_on_c, 0, 70, 0
2, 110400, Note_on_c, 0, 82, 0
2, 110520, Note_on_c, 0, 91, 68
2, 110520, Note_on_c, 0, 87, 67
2, 110640, Note_on_c, 0, 87, 0
2, 110640, Note_on_c, 0, 91, 0
2, 110760, Note_on_c, 0, 91, 70
2, 110760, Note_on_c, 0, 87, 77
2, 110880, Note_on_c, 0, 87, 0
2, 110880, Note_on_c, 0, 91, 0
2, 111000, Note_on_c, 0, 89, 68
2, 111000, Note_on_c, 0, 87, 77
2, 111120, Note_on_c, 0, 87, 0
2, 111120, Note_on_c, 0, 89, 0
2, 111240, Note_on_c, 0, 89, 64
2, 111240, Note_on_c, 0, 86, 89
2, 111360, Note_on_c, 0, 86, 0
2, 111360, Note_on_c, 0, 89, 0
2, 111480, Note_on_c, 0, 87, 76
2, 111480, Note_on_c, 0, 86, 84
2, 111600, Note_on_c, 0, 86, 0
2, 111600, Note_on_c, 0, 87, 0
2, 111720, Note_on_c, 0, 87, 81
2, 111720, Note_on_c, 0, 84, 80
2, 111840, Note_on_c, 0, 84, 0
2, 111840, Note_on_c, 0, 87, 0
2, 111960, Note_on_c, 0, 86, 74
2, 111960, Note_on_c, 0, 84, 80
2, 112080, Note_on_c, 0, 84, 0
2, 112080, Note_on_c, 0, 86, 0
2, 112200, Note_on_c, 0, 86, 80
2, 112200, Note_on_c, 0, 82, 76
2, 112320, Note_on_c, 0, 82, 0
2, 112320, Note_on_c, 0, 86, 0
2, 112440, Note_on_c, 0, 84, 60
2, 112440, Note_on_c, 0, 81, 84
2, 112560, Note_on_c, 0, 81, 0
2, 112560, Note_on_c, 0, 84, 0
2, 112680, Note_on_c, 0, 82, 64
2, 112680, Note_on_c, 0, 79, 89
2, 112800, Note_on_c, 0, 79, 0
2, 112800, Note_on_c, 0, 82, 0
2, 112920, Note_on_c, 0, 81, 78
2, 112920, Note_on_c, 0, 78, 78
2, 113040, Note_on_c, 0, 78, 0
2, 113040, Note_on_c, 0, 81, 0
2, 113160, Note_on_c, 0, 85, 71
2, 113160, Note_on_c, 0, 79, 81
2, 113280, Note_on_c, 0, 79, 0
2, 113280, Note_on_c, 0, 85, 0
2, 113280, Note_on_c, 0, 86, 76
2, 113280, Note_on_c, 0, 78, 80
2, 113340, Note_on_c, 0, 78, 0
2, 113340, Note_on_c, 0, 86, 0
2, 113400, Note_on_c, 0, 86, 84
2, 113400, Note_on_c, 0, 74, 85
2, 113640, Note_on_c, 0, 74, 0
2, 113640, Note_on_c, 0, 86, 0
2, 113640, Note_on_c, 0, 84, 53
2, 113640, Note_on_c, 0, 72, 31
2, 113760, Note_on_c, 0, 72, 0
2, 113760, Note_on_c, 0, 84, 0
2, 113760, Note_on_c, 0, 84, 58
2, 113760, Note_on_c, 0, 72, 64
2, 113820, Note_on_c, 0, 72, 0
2, 113820, Note_on_c, 0, 84, 0
2, 113880, Note_on_c, 0, 82, 85
2, 113880, Note_on_c, 0, 70, 99
2, 114120, Note_on_c, 0, 70, 0
2, 114120, Note_on_c, 0, 82, 0
2, 114120, Note_on_c, 0, 81, 80
2, 114120, Note_on_c, 0, 69, 85
2, 114180, Note_on_c, 0, 69, 0
2, 114180, Note_on_c, 0, 81, 0
2, 114180, Note_on_c, 0, 79, 66
2, 114180, Note_on_c, 0, 67, 63
2, 114240, Note_on_c, 0, 67, 0
2, 114240, Note_on_c, 0, 79, 0
2, 114240, Note_on_c, 0, 79, 68
2, 114240, Note_on_c, 0, 67, 69
2, 114300, Note_on_c, 0, 67, 0
2, 114300, Note_on_c, 0, 79, 0
2, 114360, Note_on_c, 0, 78, 80
2, 114360, Note_on_c, 0, 66, 93
2, 114600, Note_on_c, 0, 66, 0
2, 114600, Note_on_c, 0, 78, 0
2, 114600, Note_on_c, 0, 79, 53
2, 114600, Note_on_c, 0, 67, 70
2, 114660, Note_on_c, 0, 67, 0
2, 114660, Note_on_c, 0, 79, 0
2, 114660, Note_on_c, 0, 81, 70
2, 114660, Note_on_c, 0, 69, 73
2, 114720, Note_on_c, 0, 69, 0
2, 114720, Note_on_c, 0, 81, 0
2, 114720, Note_on_c, 0, 81, 65
2, 114720, Note_on_c, 0, 69, 68
2, 114780, Note_on_c, 0, 69, 0
2, 114780, Note_on_c, 0, 81, 0
2, 114840, Note_on_c, 0, 79, 72
2, 114840, Note_on_c, 0, 67, 89
2, 115080, Note_on_c, 0, 67, 0
2, 115080, Note_on_c, 0, 79, 0
2, 115080, Note_on_c, 0, 81, 68
2, 115080, Note_on_c, 0, 69, 84
2, 115140, Note_on_c, 0, 69, 0
2, 115140, Note_on_c, 0, 81, 0
2, 115140, Note_on_c, 0, 82, 70
2, 115140, Note_on_c, 0, 70, 80
2, 115200, Note_on_c, 0, 70, 0
2, 115200, Note_on_c, 0, 82, 0
2, 115200, Note_on_c, 0, 81, 74
2, 115200, Note_on_c, 0, 69, 80
2, 115260, Note_on_c, 0, 69, 0
2, 115260, Note_on_c, 0, 81, 0
2, 115320, Note_on_c, 0, 86, 72
2, 115320, Note_on_c, 0, 74, 78
2, 115800, Note_on_c, 0, 74, 0
2, 115800, Note_on_c, 0, 86, 0
2, 115800, Note_on_c, 0, 86, 76
2, 115800, Note_on_c, 0, 74, 80
2, 116280, Note_on_c, 0, 74, 0
2, 116280, Note_on_c, 0, 86, 0
2, 116280, Note_on_c, 0, 86, 72
2, 116280, Note_on_c, 0, 74, 80
2, 116760, Note_on_c, 0, 74, 0
2, 116760, Note_on_c, 0, 86, 0
2, 116760, Note_on_c, 0, 86, 80
2, 116760, Note_on_c, 0, 74, 86
2, 116880, Note_on_c, 0, 74, 0
2, 116880, Note_on_c, 0, 86, 0
2, 116880, Note_on_c, 0, 86, 62
2, 116880, Note_on_c, 0, 74, 80
2, 117000, Note_on_c, 0, 74, 0
2, 117000, Note_on_c, 0, 86, 0
2, 117000, Note_on_c, 0, 86, 70
2, 117000, Note_on_c, 0, 74, 72
2, 117120, Note_on_c, 0, 74, 0
2, 117120, Note_on_c, 0, 86, 0
2, 117120, Note_on_c, 0, 86, 72
2, 117120, Note_on_c, 0, 74, 80
2, 117240, Note_on_c, 0, 74, 0
2, 117240, Note_on_c, 0, 86, 0
2, 117720, Note_on_c, 0, 81, 77
2, 117720, Note_on_c, 0, 78, 80
2, 117780, Note_on_c, 0, 78, 0
2, 117780, Note_on_c, 0, 81, 0
2, 117840, Note_on_c, 0, 85, 73
2, 117840, Note_on_c, 0, 79, 77
2, 117900, Note_on_c, 0, 79, 0
2, 117900, Note_on_c, 0, 85, 0
2, 117960, Note_on_c, 0, 85, 72
2, 117960, Note_on_c, 0, 79, 80
2, 118020, Note_on_c, 0, 79, 0
2, 118020, Note_on_c, 0, 85, 0
2, 118080, Note_on_c, 0, 86, 70
2, 118080, Note_on_c, 0, 78, 81
2, 118140, Note_on_c, 0, 78, 0
2, 118140, Note_on_c, 0, 86, 0
2, 118440, Note_on_c, 0, 85, 73
2, 118440, Note_on_c, 0, 79, 77
2, 118500, Note_on_c, 0, 79, 0
2, 118500, Note_on_c, 0, 85, 0
2, 118560, Note_on_c, 0, 86, 69
2, 118560, Note_on_c, 0, 78, 76
2, 118620, Note_on_c, 0, 78, 0
2, 118620, Note_on_c, 0, 86, 0
2, 118680, Note_on_c, 0, 82, 78
2, 118680, Note_on_c, 0, 79, 71
2, 118800, Note_on_c, 0, 79, 0
2, 118800, Note_on_c, 0, 82, 0
2, 118800, Note_on_c, 0, 81, 73
2, 118800, Note_on_c, 0, 78, 81
2, 118920, Note_on_c, 0, 78, 0
2, 118920, Note_on_c, 0, 81, 0
2, 118920, Note_on_c, 0, 85, 77
2, 118920, Note_on_c, 0, 79, 77
2, 118980, Note_on_c, 0, 79, 0
2, 118980, Note_on_c, 0, 85, 0
2, 119040, Note_on_c, 0, 86, 78
2, 119040, Note_on_c, 0, 78, 78
2, 119160, Note_on_c, 0, 78, 0
2, 119160, Note_on_c, 0, 86, 0
2, 119520, Note_on_c, 0, 86, 89
2, 119520, Note_on_c, 0, 74, 94
2, 119640, Note_on_c, 0, 74, 0
2, 119640, Note_on_c, 0, 86, 0
2, 120000, Note_on_c, 0, 86, 89
2, 120000, Note_on_c, 0, 74, 94
2, 120120, Note_on_c, 0, 74, 0
2, 120120, Note_on_c, 0, 86, 0
2, 120960, Note_on_c, 0, 86, 68
2, 121020, Note_on_c, 0, 86, 0
2, 121140, Note_on_c, 0, 81, 74
2, 121170, Note_on_c, 0, 81, 0
2, 121200, Note_on_c, 0, 86, 76
2, 121260, Note_on_c, 0, 86, 0
2, 121380, Note_on_c, 0, 81, 84
2, 121410, Note_on_c, 0, 81, 0
2, 121440, Note_on_c, 0, 84, 67
2, 121500, Note_on_c, 0, 84, 0
2, 122395, Control_c, 0, 7, 99
2, 122400, Note_on_c, 0, 90, 57
2, 122405, Control_c, 0, 7, 100
2, 122415, Control_c, 0, 7, 101
2, 122425, Control_c, 0, 7, 102
2, 122435, Control_c, 0, 7, 103
2, 122445, Control_c, 0, 7, 104
2, 122455, Control_c, 0, 7, 105
2, 122465, Control_c, 0, 7, 106
2, 122475, Control_c, 0, 7, 107
2, 122485, Control_c, 0, 7, 108
2, 122495, Control_c, 0, 7, 109
2, 122505, Control_c, 0, 7, 110
2, 122515, Control_c, 0, 7, 111
2, 122525, Control_c, 0, 7, 112
2, 122535, Control_c, 0, 7, 113
2, 122545, Control_c, 0, 7, 114
2, 122555, Control_c, 0, 7, 115
2, 122565, Control_c, 0, 7, 116
2, 122575, Control_c, 0, 7, 117
2, 122585, Control_c, 0, 7, 118
2, 122595, Control_c, 0, 7, 119
2, 122605, Control_c, 0, 7, 120
2, 122615, Control_c, 0, 7, 121
2, 122625, Control_c, 0, 7, 122
2, 122635, Control_c, 0, 7, 123
2, 122640, Control_c, 0, 7, 124
2, 122650, Control_c, 0, 7, 123
2, 122660, Control_c, 0, 7, 122
2, 122670, Control_c, 0, 7, 121
2, 122680, Control_c, 0, 7, 120
2, 122690, Control_c, 0, 7, 119
2, 122700, Control_c, 0, 7, 118
2, 122710, Control_c, 0, 7, 117
2, 122720, Control_c, 0, 7, 116
2, 122730, Control_c, 0, 7, 115
2, 122740, Control_c, 0, 7, 114
2, 122750, Control_c, 0, 7, 113
2, 122760, Control_c, 0, 7, 112
2, 122765, Control_c, 0, 7, 111
2, 122775, Control_c, 0, 7, 110
2, 122785, Control_c, 0, 7, 109
2, 122795, Control_c, 0, 7, 108
2, 122805, Control_c, 0, 7, 107
2, 122815, Control_c, 0, 7, 106
2, 122825, Control_c, 0, 7, 105
2, 122835, Control_c, 0, 7, 104
2, 122845, Control_c, 0, 7, 103
2, 122855, Control_c, 0, 7, 102
2, 122865, Control_c, 0, 7, 101
2, 122875, Control_c, 0, 7, 100
2, 122880, Note_on_c, 0, 90, 0
2, 122880, Control_c, 0, 7, 99
2, 122880, Note_on_c, 0, 91, 54
2, 123000, Note_on_c, 0, 91, 0
2, 134400, Note_on_c, 0, 80, 65
2, 134640, Note_on_c, 0, 80, 0
2, 134640, Note_on_c, 0, 87, 62
2, 134880, Note_on_c, 0, 87, 0
2, 134880, Note_on_c, 0, 90, 51
2, 135000, Note_on_c, 0, 90, 0
2, 135360, Note_on_c, 0, 80, 43
2, 135600, Note_on_c, 0, 80, 0
2, 135600, Note_on_c, 0, 85, 58
2, 135840, Note_on_c, 0, 85, 0
2, 135840, Note_on_c, 0, 89, 56
2, 135960, Note_on_c, 0, 89, 0
2, 136320, Note_on_c, 0, 80, 50
2, 136560, Note_on_c, 0, 80, 0
2, 136560, Note_on_c, 0, 87, 67
2, 136800, Note_on_c, 0, 87, 0
2, 136800, Note_on_c, 0, 90, 45
2, 136920, Note_on_c, 0, 90, 0
2, 147840, Note_on_c, 0, 84, 80
2, 147840, Note_on_c, 0, 72, 66
2, 148080, Note_on_c, 0, 72, 0
2, 148080, Note_on_c, 0, 84, 0
2, 148080, Note_on_c, 0, 75, 95
2, 148080, Note_on_c, 0, 87, 85
2, 148320, Note_on_c, 0, 87, 0
2, 148320, Note_on_c, 0, 75, 0
2, 148320, Note_on_c, 0, 79, 94
2, 148320, Note_on_c, 0, 91, 89
2, 148500, Note_on_c, 0, 91, 0
2, 148500, Note_on_c, 0, 79, 0
2, 148500, Note_on_c, 0, 89, 84
2, 148500, Note_on_c, 0, 77, 89
2, 148530, Note_on_c, 0, 77, 0
2, 148530, Note_on_c, 0, 89, 0
2, 148560, Note_on_c, 0, 75, 95
2, 148560, Note_on_c, 0, 87, 90
2, 148620, Note_on_c, 0, 87, 0
2, 148620, Note_on_c, 0, 75, 0
2, 148680, Note_on_c, 0, 86, 89
2, 148680, Note_on_c, 0, 74, 99
2, 148740, Note_on_c, 0, 74, 0
2, 148740, Note_on_c, 0, 86, 0
2, 148800, Note_on_c, 0, 84, 85
2, 148800, Note_on_c, 0, 72, 61
2, 148860, Note_on_c, 0, 72, 0
2, 148860, Note_on_c, 0, 84, 0
2, 148980, Note_on_c, 0, 79, 84
2, 148980, Note_on_c, 0, 67, 89
2, 149010, Note_on_c, 0, 67, 0
2, 149010, Note_on_c, 0, 79, 0
2, 149040, Note_on_c, 0, 84, 82
2, 149040, Note_on_c, 0, 72, 70
2, 149100, Note_on_c, 0, 72, 0
2, 149100, Note_on_c, 0, 84, 0
2, 149220, Note_on_c, 0, 79, 89
2, 149220, Note_on_c, 0, 67, 94
2, 149250, Note_on_c, 0, 67, 0
2, 149250, Note_on_c, 0, 79, 0
2, 149280, Note_on_c, 0, 84, 85
2, 149280, Note_on_c, 0, 72, 69
2, 149340, Note_on_c, 0, 72, 0
2, 149340, Note_on_c, 0, 84, 0
2, 157980, Note_on_c, 0, 91, 60
2, 158010, Note_on_c, 0, 91, 0
2, 158040, Note_on_c, 0, 91, 44
2, 158070, Note_on_c, 0, 91, 0
2, 158100, Note_on_c, 0, 91, 56
2, 158130, Note_on_c, 0, 91, 0
2, 158160, Note_on_c, 0, 91, 60
2, 158220, Note_on_c, 0, 91, 0
2, 158220, Note_on_c, 0, 91, 69
2, 158280, Note_on_c, 0, 91, 0
2, 158280, Note_on_c, 0, 91, 65
2, 158340, Note_on_c, 0, 91, 0
2, 158340, Note_on_c, 0, 89, 69
2, 158400, Note_on_c, 0, 89, 0
2, 158400, Note_on_c, 0, 89, 71
2, 158460, Note_on_c, 0, 89, 0
2, 158460, Note_on_c, 0, 87, 53
2, 158520, Note_on_c, 0, 87, 0
2, 158520, Note_on_c, 0, 87, 53
2, 158550, Note_on_c, 0, 87, 0
2, 158580, Note_on_c, 0, 87, 59
2, 158610, Note_on_c, 0, 87, 0
2, 158640, Note_on_c, 0, 87, 53
2, 158670, Note_on_c, 0, 87, 0
2, 158700, Note_on_c, 0, 87, 76
2, 158730, Note_on_c, 0, 87, 0
2, 158760, Note_on_c, 0, 86, 80
2, 158790, Note_on_c, 0, 86, 0
2, 158820, Note_on_c, 0, 84, 66
2, 158850, Note_on_c, 0, 84, 0
2, 158880, Note_on_c, 0, 84, 66
2, 158940, Note_on_c, 0, 84, 0
2, 158940, Note_on_c, 0, 83, 68
2, 159000, Note_on_c, 0, 83, 0
2, 159000, Note_on_c, 0, 83, 61
2, 159030, Note_on_c, 0, 83, 0
2, 159060, Note_on_c, 0, 83, 70
2, 159090, Note_on_c, 0, 83, 0
2, 159120, Note_on_c, 0, 83, 70
2, 159150, Note_on_c, 0, 83, 0
2, 159180, Note_on_c, 0, 83, 71
2, 159210, Note_on_c, 0, 83, 0
2, 159240, Note_on_c, 0, 84, 74
2, 159270, Note_on_c, 0, 84, 0
2, 159300, Note_on_c, 0, 86, 74
2, 159330, Note_on_c, 0, 86, 0
2, 159360, Note_on_c, 0, 86, 72
2, 159420, Note_on_c, 0, 86, 0
2, 159420, Note_on_c, 0, 84, 69
2, 159480, Note_on_c, 0, 84, 0
2, 159480, Note_on_c, 0, 84, 58
2, 159510, Note_on_c, 0, 84, 0
2, 159540, Note_on_c, 0, 84, 72
2, 159570, Note_on_c, 0, 84, 0
2, 159600, Note_on_c, 0, 84, 65
2, 159630, Note_on_c, 0, 84, 0
2, 159660, Note_on_c, 0, 84, 68
2, 159690, Note_on_c, 0, 84, 0
2, 159720, Note_on_c, 0, 86, 58
2, 159750, Note_on_c, 0, 86, 0
2, 159780, Note_on_c, 0, 87, 73
2, 159810, Note_on_c, 0, 87, 0
2, 159840, Note_on_c, 0, 86, 61
2, 159960, Note_on_c, 0, 86, 0
2, 160020, Note_on_c, 0, 86, 36
2, 160080, Note_on_c, 0, 86, 0
2, 160080, Note_on_c, 0, 87, 34
2, 160200, Note_on_c, 0, 87, 0
2, 160260, Note_on_c, 0, 87, 35
2, 160320, Note_on_c, 0, 87, 0
2, 160320, Note_on_c, 0, 86, 38
2, 160440, Note_on_c, 0, 86, 0
2, 160500, Note_on_c, 0, 86, 43
2, 160560, Note_on_c, 0, 86, 0
2, 160560, Note_on_c, 0, 87, 29
2, 160680, Note_on_c, 0, 87, 0
2, 160740, Note_on_c, 0, 87, 34
2, 160800, Note_on_c, 0, 87, 0
2, 160800, Note_on_c, 0, 86, 36
2, 160920, Note_on_c, 0, 86, 0
2, 166440, Note_on_c, 0, 79, 59
2, 166560, Note_on_c, 0, 79, 0
2, 166560, Note_on_c, 0, 88, 73
2, 166800, Note_on_c, 0, 88, 0
2, 166800, Note_on_c, 0, 86, 76
2, 166860, Note_on_c, 0, 86, 0
2, 166860, Note_on_c, 0, 88, 73
2, 166920, Note_on_c, 0, 88, 0
2, 166920, Note_on_c, 0, 89, 69
2, 166980, Note_on_c, 0, 89, 0
2, 166980, Note_on_c, 0, 86, 76
2, 167040, Note_on_c, 0, 86, 0
2, 167040, Note_on_c, 0, 84, 70
2, 167280, Note_on_c, 0, 84, 0
2, 167280, Note_on_c, 0, 79, 69
2, 167460, Note_on_c, 0, 79, 0
2, 167460, Note_on_c, 0, 84, 71
2, 167520, Note_on_c, 0, 84, 0
2, 167520, Note_on_c, 0, 86, 67
2, 167610, Note_on_c, 0, 86, 0
2, 167640, Note_on_c, 0, 86, 68
2, 167730, Note_on_c, 0, 86, 0
2, 167760, Note_on_c, 0, 86, 63
2, 167850, Note_on_c, 0, 86, 0
2, 167880, Note_on_c, 0, 87, 58
2, 167970, Note_on_c, 0, 87, 0
2, 168000, Note_on_c, 0, 87, 46
2, 168240, Note_on_c, 0, 87, 0
2, 168240, Note_on_c, 0, 88, 57
2, 168360, Note_on_c, 0, 88, 0
2, 168420, Note_on_c, 0, 84, 50
2, 168480, Note_on_c, 0, 84, 0
2, 168480, Note_on_c, 0, 89, 73
2, 168480, Note_on_c, 0, 84, 65
2, 168720, Note_on_c, 0, 84, 0
2, 168720, Note_on_c, 0, 89, 0
2, 168720, Note_on_c, 0, 88, 62
2, 168720, Note_on_c, 0, 84, 52
2, 168840, Note_on_c, 0, 84, 0
2, 168840, Note_on_c, 0, 88, 0
2, 168900, Note_on_c, 0, 84, 61
2, 168960, Note_on_c, 0, 84, 0
2, 168960, Note_on_c, 0, 84, 80
2, 169320, Note_on_c, 0, 84, 0
2, 169380, Note_on_c, 0, 89, 66
2, 169380, Note_on_c, 0, 86, 71
2, 169440, Note_on_c, 0, 86, 0
2, 169440, Note_on_c, 0, 89, 0
2, 169440, Note_on_c, 0, 84, 74
2, 169440, Note_on_c, 0, 88, 73
2, 169500, Note_on_c, 0, 88, 0
2, 169500, Note_on_c, 0, 84, 0
2, 169560, Note_on_c, 0, 84, 67
2, 169560, Note_on_c, 0, 88, 72
2, 169620, Note_on_c, 0, 88, 0
2, 169620, Note_on_c, 0, 84, 0
2, 169680, Note_on_c, 0, 88, 70
2, 169680, Note_on_c, 0, 84, 74
2, 169740, Note_on_c, 0, 84, 0
2, 169740, Note_on_c, 0, 88, 0
2, 169740, Note_on_c, 0, 86, 76
2, 169740, Note_on_c, 0, 83, 77
2, 169800, Note_on_c, 0, 83, 0
2, 169800, Note_on_c, 0, 86, 0
2, 169800, Note_on_c, 0, 84, 72
2, 169800, Note_on_c, 0, 81, 76
2, 169860, Note_on_c, 0, 81, 0
2, 169860, Note_on_c, 0, 84, 0
2, 169860, Note_on_c, 0, 83, 74
2, 169860, Note_on_c, 0, 86, 78
2, 169920, Note_on_c, 0, 86, 0
2, 169920, Note_on_c, 0, 83, 0
2, 169920, Note_on_c, 0, 83, 84
2, 169920, Note_on_c, 0, 86, 80
2, 170100, Note_on_c, 0, 86, 0
2, 170100, Note_on_c, 0, 87, 80
2, 170160, Note_on_c, 0, 87, 0
2, 170160, Note_on_c, 0, 83, 0
2, 170160, Note_on_c, 0, 84, 76
2, 170160, Note_on_c, 0, 88, 80
2, 170280, Note_on_c, 0, 88, 0
2, 170280, Note_on_c, 0, 84, 0
2, 182820, Note_on_c, 0, 83, 53
2, 182820, Note_on_c, 0, 86, 53
2, 182850, Note_on_c, 0, 86, 0
2, 182850, Note_on_c, 0, 83, 0
2, 182880, Note_on_c, 0, 84, 54
2, 182880, Note_on_c, 0, 88, 61
2, 182940, Note_on_c, 0, 88, 0
2, 182940, Note_on_c, 0, 84, 0
2, 183300, Note_on_c, 0, 83, 64
2, 183300, Note_on_c, 0, 86, 62
2, 183330, Note_on_c, 0, 86, 0
2, 183330, Note_on_c, 0, 83, 0
2, 183360, Note_on_c, 0, 84, 54
2, 183360, Note_on_c, 0, 88, 53
2, 183420, Note_on_c, 0, 88, 0
2, 183420, Note_on_c, 0, 84, 0
2, 183540, Note_on_c, 0, 86, 49
2, 183540, Note_on_c, 0, 83, 56
2, 183570, Note_on_c, 0, 83, 0
2, 183570, Note_on_c, 0, 86, 0
2, 183600, Note_on_c, 0, 84, 64
2, 183600, Note_on_c, 0, 81, 57
2, 183660, Note_on_c, 0, 81, 0
2, 183660, Note_on_c, 0, 84, 0
2, 183780, Note_on_c, 0, 82, 58
2, 183780, Note_on_c, 0, 79, 50
2, 183810, Note_on_c, 0, 79, 0
2, 183810, Note_on_c, 0, 82, 0
2, 183840, Note_on_c, 0, 77, 44
2, 183840, Note_on_c, 0, 81, 58
2, 183900, Note_on_c, 0, 81, 0
2, 183900, Note_on_c, 0, 77, 0
2, 184020, Note_on_c, 0, 76, 54
2, 184020, Note_on_c, 0, 79, 41
2, 184050, Note_on_c, 0, 79, 0
2, 184050, Note_on_c, 0, 76, 0
2, 184080, Note_on_c, 0, 74, 55
2, 184080, Note_on_c, 0, 77, 53
2, 184140, Note_on_c, 0, 77, 0
2, 184140, Note_on_c, 0, 74, 0
2, 184260, Note_on_c, 0, 76, 64
2, 184260, Note_on_c, 0, 79, 46
2, 184290, Note_on_c, 0, 79, 0
2, 184290, Note_on_c, 0, 76, 0
2, 184320, Note_on_c, 0, 74, 61
2, 184320, Note_on_c, 0, 77, 54
2, 184380, Note_on_c, 0, 77, 0
2, 184380, Note_on_c, 0, 74, 0
2, 185760, Note_on_c, 0, 84, 57
2, 186360, Note_on_c, 0, 84, 0
2, 186720, Note_on_c, 0, 84, 56
2, 187200, Note_on_c, 0, 84, 0
2, 187200, Note_on_c, 0, 87, 71
2, 187200, Note_on_c, 0, 81, 59
2, 187800, Note_on_c, 0, 81, 0
2, 187800, Note_on_c, 0, 87, 0
2, 187800, Note_on_c, 0, 87, 64
2, 187800, Note_on_c, 0, 81, 58
2, 187890, Note_on_c, 0, 81, 0
2, 187890, Note_on_c, 0, 87, 0
2, 187920, Note_on_c, 0, 87, 65
2, 187920, Note_on_c, 0, 81, 62
2, 188010, Note_on_c, 0, 81, 0
2, 188010, Note_on_c, 0, 87, 0
2, 188040, Note_on_c, 0, 87, 53
2, 188040, Note_on_c, 0, 81, 60
2, 188130, Note_on_c, 0, 81, 0
2, 188130, Note_on_c, 0, 87, 0
2, 188160, Note_on_c, 0, 88, 68
2, 188160, Note_on_c, 0, 79, 50
2, 188280, Note_on_c, 0, 79, 0
2, 188280, Note_on_c, 0, 88, 0
2, 195840, Note_on_c, 0, 74, 84
2, 195840, Note_on_c, 0, 83, 72
2, 196080, Note_on_c, 0, 83, 0
2, 196080, Note_on_c, 0, 74, 0
2, 196080, Note_on_c, 0, 86, 84
2, 196080, Note_on_c, 0, 83, 70
2, 196320, Note_on_c, 0, 83, 0
2, 196320, Note_on_c, 0, 86, 0
2, 196320, Note_on_c, 0, 89, 74
2, 196320, Note_on_c, 0, 86, 94
2, 196500, Note_on_c, 0, 86, 0
2, 196500, Note_on_c, 0, 89, 0
2, 196500, Note_on_c, 0, 84, 77
2, 196500, Note_on_c, 0, 87, 82
2, 196530, Note_on_c, 0, 87, 0
2, 196530, Note_on_c, 0, 84, 0
2, 196560, Note_on_c, 0, 83, 82
2, 196560, Note_on_c, 0, 86, 84
2, 196620, Note_on_c, 0, 86, 0
2, 196620, Note_on_c, 0, 83, 0
2, 196680, Note_on_c, 0, 84, 78
2, 196680, Note_on_c, 0, 80, 84
2, 196740, Note_on_c, 0, 80, 0
2, 196740, Note_on_c, 0, 84, 0
2, 196800, Note_on_c, 0, 79, 81
2, 196800, Note_on_c, 0, 83, 73
2, 196860, Note_on_c, 0, 83, 0
2, 196860, Note_on_c, 0, 79, 0
2, 196920, Note_on_c, 0, 83, 78
2, 196920, Note_on_c, 0, 77, 84
2, 196980, Note_on_c, 0, 77, 0
2, 196980, Note_on_c, 0, 83, 0
2, 197040, Note_on_c, 0, 83, 81
2, 197040, Note_on_c, 0, 75, 89
2, 197100, Note_on_c, 0, 75, 0
2, 197100, Note_on_c, 0, 83, 0
2, 197160, Note_on_c, 0, 83, 59
2, 197160, Note_on_c, 0, 74, 94
2, 197220, Note_on_c, 0, 74, 0
2, 197220, Note_on_c, 0, 83, 0
2, 197280, Note_on_c, 0, 84, 63
2, 197280, Note_on_c, 0, 72, 43
2, 197400, Note_on_c, 0, 72, 0
2, 197400, Note_on_c, 0, 84, 0
2, 197400, Note_on_c, 0, 84, 93
2, 197640, Note_on_c, 0, 84, 0
2, 197640, Note_on_c, 0, 84, 89
2, 197880, Note_on_c, 0, 84, 0
2, 197880, Note_on_c, 0, 84, 90
2, 198120, Note_on_c, 0, 84, 0
2, 198120, Note_on_c, 0, 84, 89
2, 198360, Note_on_c, 0, 84, 0
2, 198360, Note_on_c, 0, 84, 77
2, 198360, Note_on_c, 0, 87, 84
2, 198600, Note_on_c, 0, 87, 0
2, 198600, Note_on_c, 0, 84, 0
2, 198600, Note_on_c, 0, 87, 84
2, 198600, Note_on_c, 0, 84, 76
2, 198840, Note_on_c, 0, 84, 0
2, 198840, Note_on_c, 0, 87, 0
2, 198840, Note_on_c, 0, 84, 76
2, 198840, Note_on_c, 0, 87, 81
2, 199080, Note_on_c, 0, 87, 0
2, 199080, Note_on_c, 0, 84, 0
2, 199080, Note_on_c, 0, 87, 89
2, 199080, Note_on_c, 0, 84, 80
2, 199440, Note_on_c, 0, 84, 0
2, 199440, Note_on_c, 0, 87, 0
2, 256320, Note_on_c, 0, 84, 73
2, 256320, Note_on_c, 0, 87, 80
2, 256800, Note_on_c, 0, 87, 0
2, 256800, Note_on_c, 0, 84, 0
2, 256800, Note_on_c, 0, 86, 89
2, 256800, Note_on_c, 0, 89, 85
2, 257040, Note_on_c, 0, 89, 0
2, 257040, Note_on_c, 0, 86, 0
2, 257040, Note_on_c, 0, 86, 84
2, 257040, Note_on_c, 0, 83, 90
2, 257280, Note_on_c, 0, 83, 0
2, 257280, Note_on_c, 0, 86, 0
2, 257280, Note_on_c, 0, 84, 93
2, 257400, Note_on_c, 0, 84, 0
2, 257520, Note_on_c, 0, 84, 86
2, 257580, Note_on_c, 0, 84, 0
2, 258000, Note_on_c, 0, 84, 81
2, 258000, Note_on_c, 0, 87, 94
2, 258060, Note_on_c, 0, 87, 0
2, 258060, Note_on_c, 0, 84, 0
2, 258480, Note_on_c, 0, 84, 80
2, 258480, Note_on_c, 0, 72, 58
2, 258600, Note_on_c, 0, 72, 0
2, 258600, Note_on_c, 0, 84, 0
2, 258720, Note_on_c, 0, 79, 74
2, 258720, Note_on_c, 0, 91, 71
2, 258840, Note_on_c, 0, 91, 0
2, 258840, Note_on_c, 0, 79, 0
2, 258960, Note_on_c, 0, 87, 67
2, 258960, Note_on_c, 0, 75, 90
2, 259080, Note_on_c, 0, 75, 0
2, 259080, Note_on_c, 0, 87, 0
2, 259200, Note_on_c, 0, 84, 80
2, 259200, Note_on_c, 0, 72, 62
2, 259320, Note_on_c, 0, 72, 0
2, 259320, Note_on_c, 0, 84, 0
2, 259650, Note_on_c, 0, 72, 69
2, 259680, Note_on_c, 0, 72, 0
2, 259680, Note_on_c, 0, 72, 72
2, 259800, Note_on_c, 0, 72, 0
2, 260130, Note_on_c, 0, 72, 76
2, 260160, Note_on_c, 0, 72, 0
2, 260160, Note_on_c, 0, 72, 74
2, 260640, Note_on_c, 0, 72, 0
2, 260640, End_track
3, 0, Start_track
3, 0, MIDI_port, 0
3, 0, Title_t, "Oboes"
3, 0, Program_c, 1, 68
3, 0, Control_c, 1, 7, 100
3, 0, Control_c, 1, 10, 58
3, 0, Control_c, 1, 93, 0
3, 0, Control_c, 1, 91, 66
3, 1920, Note_on_c, 1, 74, 64
3, 2160, Note_on_c, 1, 74, 0
3, 2160, Note_on_c, 1, 71, 65
3, 2160, Note_on_c, 1, 77, 52
3, 2400, Note_on_c, 1, 77, 0
3, 2400, Note_on_c, 1, 71, 0
3, 2400, Note_on_c, 1, 80, 45
3, 2400, Note_on_c, 1, 71, 64
3, 2580, Note_on_c, 1, 71, 0
3, 2580, Note_on_c, 1, 80, 0
3, 2580, Note_on_c, 1, 79, 43
3, 2610, Note_on_c, 1, 79, 0
3, 2640, Note_on_c, 1, 77, 43
3, 2640, Note_on_c, 1, 71, 40
3, 2700, Note_on_c, 1, 71, 0
3, 2700, Note_on_c, 1, 77, 0
3, 2760, Note_on_c, 1, 75, 43
3, 2790, Note_on_c, 1, 75, 0
3, 2880, Note_on_c, 1, 74, 44
3, 2880, Note_on_c, 1, 71, 52
3, 2940, Note_on_c, 1, 71, 0
3, 2940, Note_on_c, 1, 74, 0
3, 3060, Note_on_c, 1, 75, 45
3, 3090, Note_on_c, 1, 75, 0
3, 3120, Note_on_c, 1, 74, 48
3, 3120, Note_on_c, 1, 71, 43
3, 3180, Note_on_c, 1, 71, 0
3, 3180, Note_on_c, 1, 74, 0
3, 3300, Note_on_c, 1, 75, 45
3, 3330, Note_on_c, 1, 75, 0
3, 3360, Note_on_c, 1, 74, 43
3, 3360, Note_on_c, 1, 71, 42
3, 3420, Note_on_c, 1, 71, 0
3, 3420, Note_on_c, 1, 74, 0
3, 4440, Note_on_c, 1, 75, 74
3, 4440, Note_on_c, 1, 72, 41
3, 4680, Note_on_c, 1, 72, 0
3, 4680, Note_on_c, 1, 75, 0
3, 4680, Note_on_c, 1, 72, 38
3, 4680, Note_on_c, 1, 75, 41
3, 4800, Note_on_c, 1, 75, 0
3, 4800, Note_on_c, 1, 72, 0
3, 4800, Note_on_c, 1, 80, 37
3, 4800, Note_on_c, 1, 72, 67
3, 5040, Note_on_c, 1, 72, 0
3, 5040, Note_on_c, 1, 80, 0
3, 5400, Note_on_c, 1, 80, 73
3, 5400, Note_on_c, 1, 77, 70
3, 5640, Note_on_c, 1, 77, 0
3, 5640, Note_on_c, 1, 80, 0
3, 5640, Note_on_c, 1, 77, 43
3, 5640, Note_on_c, 1, 80, 43
3, 5760, Note_on_c, 1, 80, 0
3, 5760, Note_on_c, 1, 77, 0
3, 5760, Note_on_c, 1, 79, 39
3, 5760, Note_on_c, 1, 77, 41
3, 6000, Note_on_c, 1, 77, 0
3, 6000, Note_on_c, 1, 79, 0
3, 6360, Note_on_c, 1, 83, 69
3, 6360, Note_on_c, 1, 74, 89
3, 6600, Note_on_c, 1, 74, 0
3, 6600, Note_on_c, 1, 83, 0
3, 6600, Note_on_c, 1, 74, 47
3, 6600, Note_on_c, 1, 83, 42
3, 6720, Note_on_c, 1, 83, 0
3, 6720, Note_on_c, 1, 74, 0
3, 6720, Note_on_c, 1, 84, 58
3, 6720, Note_on_c, 1, 75, 76
3, 6780, Note_on_c, 1, 75, 0
3, 6780, Note_on_c, 1, 84, 0
3, 6840, Note_on_c, 1, 77, 74
3, 6840, Note_on_c, 1, 74, 86
3, 6900, Note_on_c, 1, 74, 0
3, 6900, Note_on_c, 1, 77, 0
3, 6960, Note_on_c, 1, 75, 78
3, 7020, Note_on_c, 1, 75, 0
3, 7080, Note_on_c, 1, 74, 80
3, 7080, Note_on_c, 1, 71, 69
3, 7140, Note_on_c, 1, 71, 0
3, 7140, Note_on_c, 1, 74, 0
3, 7200, Note_on_c, 1, 72, 54
3, 7320, Note_on_c, 1, 72, 0
3, 8640, Note_on_c, 1, 74, 40
3, 8640, Note_on_c, 1, 71, 44
3, 8760, Note_on_c, 1, 71, 0
3, 8760, Note_on_c, 1, 74, 0
3, 8880, Note_on_c, 1, 74, 43
3, 8880, Note_on_c, 1, 71, 53
3, 9000, Note_on_c, 1, 71, 0
3, 9000, Note_on_c, 1, 74, 0
3, 9120, Note_on_c, 1, 75, 44
3, 9120, Note_on_c, 1, 72, 29
3, 9240, Note_on_c, 1, 72, 0
3, 9240, Note_on_c, 1, 75, 0
3, 10560, Note_on_c, 1, 77, 43
3, 10560, Note_on_c, 1, 74, 53
3, 10680, Note_on_c, 1, 74, 0
3, 10680, Note_on_c, 1, 77, 0
3, 10800, Note_on_c, 1, 77, 42
3, 10800, Note_on_c, 1, 74, 54
3, 10920, Note_on_c, 1, 74, 0
3, 10920, Note_on_c, 1, 77, 0
3, 11040, Note_on_c, 1, 79, 78
3, 11040, Note_on_c, 1, 75, 84
3, 11160, Note_on_c, 1, 75, 0
3, 11160, Note_on_c, 1, 79, 0
3, 12960, Note_on_c, 1, 77, 80
3, 12960, Note_on_c, 1, 68, 55
3, 13140, Note_on_c, 1, 68, 0
3, 13140, Note_on_c, 1, 77, 0
3, 13200, Note_on_c, 1, 80, 72
3, 13380, Note_on_c, 1, 80, 0
3, 13440, Note_on_c, 1, 84, 72
3, 13620, Note_on_c, 1, 84, 0
3, 13620, Note_on_c, 1, 82, 78
3, 13650, Note_on_c, 1, 82, 0
3, 13680, Note_on_c, 1, 80, 84
3, 13740, Note_on_c, 1, 80, 0
3, 13800, Note_on_c, 1, 79, 78
3, 13860, Note_on_c, 1, 79, 0
3, 13920, Note_on_c, 1, 77, 67
3, 13920, Note_on_c, 1, 70, 78
3, 14520, Note_on_c, 1, 70, 0
3, 14520, Note_on_c, 1, 77, 0
3, 14520, Note_on_c, 1, 77, 67
3, 14520, Note_on_c, 1, 70, 80
3, 14640, Note_on_c, 1, 70, 0
3, 14640, Note_on_c, 1, 77, 0
3, 14640, Note_on_c, 1, 77, 65
3, 14640, Note_on_c, 1, 70, 78
3, 14760, Note_on_c, 1, 70, 0
3, 14760, Note_on_c, 1, 77, 0
3, 14760, Note_on_c, 1, 70, 84
3, 14760, Note_on_c, 1, 77, 68
3, 14880, Note_on_c, 1, 77, 0
3, 14880, Note_on_c, 1, 70, 0
3, 14880, Note_on_c, 1, 79, 72
3, 14880, Note_on_c, 1, 70, 86
3, 15480, Note_on_c, 1, 70, 0
3, 15480, Note_on_c, 1, 79, 0
3, 15480, Note_on_c, 1, 79, 65
3, 15480, Note_on_c, 1, 70, 76
3, 15600, Note_on_c, 1, 70, 0
3, 15600, Note_on_c, 1, 79, 0
3, 15600, Note_on_c, 1, 79, 65
3, 15600, Note_on_c, 1, 70, 73
3, 15720, Note_on_c, 1, 70, 0
3, 15720, Note_on_c, 1, 79, 0
3, 15720, Note_on_c, 1, 70, 86
3, 15720, Note_on_c, 1, 79, 71
3, 15840, Note_on_c, 1, 79, 0
3, 15840, Note_on_c, 1, 70, 0
3, 15840, Note_on_c, 1, 75, 93
3, 15840, Note_on_c, 1, 80, 77
3, 16320, Note_on_c, 1, 80, 0
3, 16320, Note_on_c, 1, 81, 84
3, 16440, Note_on_c, 1, 75, 0
3, 16440, Note_on_c, 1, 78, 81
3, 16560, Note_on_c, 1, 78, 0
3, 16560, Note_on_c, 1, 77, 62
3, 16680, Note_on_c, 1, 77, 0
3, 16680, Note_on_c, 1, 81, 0
3, 16680, Note_on_c, 1, 75, 93
3, 16680, Note_on_c, 1, 81, 85
3, 16800, Note_on_c, 1, 81, 0
3, 16800, Note_on_c, 1, 75, 0
3, 16800, Note_on_c, 1, 82, 66
3, 16800, Note_on_c, 1, 74, 89
3, 16920, Note_on_c, 1, 74, 0
3, 16920, Note_on_c, 1, 82, 0
3, 21240, Note_on_c, 1, 77, 71
3, 21240, Note_on_c, 1, 74, 84
3, 21300, Note_on_c, 1, 74, 0
3, 21300, Note_on_c, 1, 77, 0
3, 21360, Note_on_c, 1, 81, 72
3, 21360, Note_on_c, 1, 75, 80
3, 21420, Note_on_c, 1, 75, 0
3, 21420, Note_on_c, 1, 81, 0
3, 21480, Note_on_c, 1, 81, 68
3, 21480, Note_on_c, 1, 75, 78
3, 21540, Note_on_c, 1, 75, 0
3, 21540, Note_on_c, 1, 81, 0
3, 21600, Note_on_c, 1, 82, 65
3, 21600, Note_on_c, 1, 74, 89
3, 21660, Note_on_c, 1, 74, 0
3, 21660, Note_on_c, 1, 82, 0
3, 21960, Note_on_c, 1, 81, 73
3, 21960, Note_on_c, 1, 75, 73
3, 22020, Note_on_c, 1, 75, 0
3, 22020, Note_on_c, 1, 81, 0
3, 22080, Note_on_c, 1, 82, 61
3, 22080, Note_on_c, 1, 74, 82
3, 22140, Note_on_c, 1, 74, 0
3, 22140, Note_on_c, 1, 82, 0
3, 22440, Note_on_c, 1, 81, 67
3, 22440, Note_on_c, 1, 75, 76
3, 22500, Note_on_c, 1, 75, 0
3, 22500, Note_on_c, 1, 81, 0
3, 22560, Note_on_c, 1, 82, 61
3, 22560, Note_on_c, 1, 74, 94
3, 22620, Note_on_c, 1, 74, 0
3, 22620, Note_on_c, 1, 82, 0
3, 29280, Note_on_c, 1, 76, 63
3, 29280, Note_on_c, 1, 72, 62
3, 29520, Note_on_c, 1, 72, 0
3, 29520, Note_on_c, 1, 76, 0
3, 29520, Note_on_c, 1, 71, 67
3, 29520, Note_on_c, 1, 74, 73
3, 29580, Note_on_c, 1, 74, 0
3, 29580, Note_on_c, 1, 75, 59
3, 29640, Note_on_c, 1, 75, 0
3, 29640, Note_on_c, 1, 77, 64
3, 29700, Note_on_c, 1, 77, 0
3, 29700, Note_on_c, 1, 74, 77
3, 29760, Note_on_c, 1, 74, 0
3, 29760, Note_on_c, 1, 71, 0
3, 29760, Note_on_c, 1, 72, 44
3, 29760, Note_on_c, 1, 67, 62
3, 30000, Note_on_c, 1, 67, 0
3, 30000, Note_on_c, 1, 72, 0
3, 30000, Note_on_c, 1, 67, 76
3, 30180, Note_on_c, 1, 67, 0
3, 30180, Note_on_c, 1, 67, 56
3, 30180, Note_on_c, 1, 72, 67
3, 30240, Note_on_c, 1, 72, 0
3, 30240, Note_on_c, 1, 67, 0
3, 30240, Note_on_c, 1, 74, 50
3, 30240, Note_on_c, 1, 71, 65
3, 30330, Note_on_c, 1, 71, 0
3, 30330, Note_on_c, 1, 74, 0
3, 30360, Note_on_c, 1, 74, 60
3, 30360, Note_on_c, 1, 71, 68
3, 30450, Note_on_c, 1, 71, 0
3, 30450, Note_on_c, 1, 74, 0
3, 30480, Note_on_c, 1, 74, 57
3, 30480, Note_on_c, 1, 71, 68
3, 30570, Note_on_c, 1, 71, 0
3, 30570, Note_on_c, 1, 74, 0
3, 30600, Note_on_c, 1, 75, 62
3, 30600, Note_on_c, 1, 71, 86
3, 30690, Note_on_c, 1, 71, 0
3, 30690, Note_on_c, 1, 75, 0
3, 30720, Note_on_c, 1, 75, 67
3, 30720, Note_on_c, 1, 71, 70
3, 30960, Note_on_c, 1, 71, 0
3, 30960, Note_on_c, 1, 75, 0
3, 30960, Note_on_c, 1, 76, 70
3, 30960, Note_on_c, 1, 72, 43
3, 31080, Note_on_c, 1, 72, 0
3, 31080, Note_on_c, 1, 76, 0
3, 31140, Note_on_c, 1, 72, 59
3, 31200, Note_on_c, 1, 72, 0
3, 31200, Note_on_c, 1, 77, 73
3, 31200, Note_on_c, 1, 72, 52
3, 31440, Note_on_c, 1, 72, 0
3, 31440, Note_on_c, 1, 77, 0
3, 31440, Note_on_c, 1, 76, 59
3, 31440, Note_on_c, 1, 72, 68
3, 31560, Note_on_c, 1, 72, 0
3, 31560, Note_on_c, 1, 76, 0
3, 31620, Note_on_c, 1, 72, 76
3, 31680, Note_on_c, 1, 72, 0
3, 31680, Note_on_c, 1, 81, 89
3, 31680, Note_on_c, 1, 69, 89
3, 31920, Note_on_c, 1, 69, 0
3, 31920, Note_on_c, 1, 81, 0
3, 31920, Note_on_c, 1, 79, 63
3, 31920, Note_on_c, 1, 67, 60
3, 32040, Note_on_c, 1, 67, 0
3, 32040, Note_on_c, 1, 79, 0
3, 32100, Note_on_c, 1, 74, 72
3, 32100, Note_on_c, 1, 77, 68
3, 32160, Note_on_c, 1, 77, 0
3, 32160, Note_on_c, 1, 74, 0
3, 32160, Note_on_c, 1, 76, 77
3, 32160, Note_on_c, 1, 72, 47
3, 32220, Note_on_c, 1, 72, 0
3, 32220, Note_on_c, 1, 76, 0
3, 32280, Note_on_c, 1, 76, 65
3, 32280, Note_on_c, 1, 72, 43
3, 32340, Note_on_c, 1, 72, 0
3, 32340, Note_on_c, 1, 76, 0
3, 32400, Note_on_c, 1, 76, 68
3, 32400, Note_on_c, 1, 72, 45
3, 32460, Note_on_c, 1, 72, 0
3, 32460, Note_on_c, 1, 76, 0
3, 32460, Note_on_c, 1, 74, 70
3, 32460, Note_on_c, 1, 71, 76
3, 32520, Note_on_c, 1, 71, 0
3, 32520, Note_on_c, 1, 74, 0
3, 32520, Note_on_c, 1, 72, 43
3, 32520, Note_on_c, 1, 69, 69
3, 32580, Note_on_c, 1, 69, 0
3, 32580, Note_on_c, 1, 72, 0
3, 32580, Note_on_c, 1, 71, 62
3, 32580, Note_on_c, 1, 74, 60
3, 32640, Note_on_c, 1, 74, 0
3, 32640, Note_on_c, 1, 71, 0
3, 32640, Note_on_c, 1, 74, 85
3, 32640, Note_on_c, 1, 71, 76
3, 32820, Note_on_c, 1, 74, 0
3, 32820, Note_on_c, 1, 75, 81
3, 32880, Note_on_c, 1, 75, 0
3, 32880, Note_on_c, 1, 71, 0
3, 32880, Note_on_c, 1, 76, 82
3, 33000, Note_on_c, 1, 76, 0
3, 33120, Note_on_c, 1, 72, 65
3, 33120, Note_on_c, 1, 77, 63
3, 33360, Note_on_c, 1, 77, 0
3, 33360, Note_on_c, 1, 75, 67
3, 33600, Note_on_c, 1, 75, 0
3, 33600, Note_on_c, 1, 80, 65
3, 33840, Note_on_c, 1, 80, 0
3, 33840, Note_on_c, 1, 79, 66
3, 34080, Note_on_c, 1, 79, 0
3, 34080, Note_on_c, 1, 78, 65
3, 34320, Note_on_c, 1, 78, 0
3, 34320, Note_on_c, 1, 72, 0
3, 34320, Note_on_c, 1, 71, 74
3, 34320, Note_on_c, 1, 77, 64
3, 34560, Note_on_c, 1, 77, 0
3, 34560, Note_on_c, 1, 71, 0
3, 34560, Note_on_c, 1, 75, 82
3, 34620, Note_on_c, 1, 75, 0
3, 34680, Note_on_c, 1, 77, 52
3, 34680, Note_on_c, 1, 74, 72
3, 34740, Note_on_c, 1, 74, 0
3, 34740, Note_on_c, 1, 77, 0
3, 34800, Note_on_c, 1, 75, 72
3, 34860, Note_on_c, 1, 75, 0
3, 34920, Note_on_c, 1, 74, 82
3, 34920, Note_on_c, 1, 71, 70
3, 34980, Note_on_c, 1, 71, 0
3, 34980, Note_on_c, 1, 74, 0
3, 35040, Note_on_c, 1, 72, 84
3, 35160, Note_on_c, 1, 72, 0
3, 39000, Note_on_c, 1, 80, 82
3, 39000, Note_on_c, 1, 77, 77
3, 39060, Note_on_c, 1, 77, 0
3, 39060, Note_on_c, 1, 80, 0
3, 39120, Note_on_c, 1, 79, 73
3, 39120, Note_on_c, 1, 75, 81
3, 39180, Note_on_c, 1, 75, 0
3, 39180, Note_on_c, 1, 79, 0
3, 39240, Note_on_c, 1, 77, 78
3, 39240, Note_on_c, 1, 74, 74
3, 39300, Note_on_c, 1, 74, 0
3, 39300, Note_on_c, 1, 77, 0
3, 39360, Note_on_c, 1, 75, 90
3, 39360, Note_on_c, 1, 72, 48
3, 39480, Note_on_c, 1, 72, 0
3, 39480, Note_on_c, 1, 75, 0
3, 39480, Note_on_c, 1, 84, 80
3, 39480, Note_on_c, 1, 72, 43
3, 39600, Note_on_c, 1, 72, 0
3, 39600, Note_on_c, 1, 84, 0
3, 39720, Note_on_c, 1, 72, 77
3, 39720, Note_on_c, 1, 80, 84
3, 39840, Note_on_c, 1, 80, 0
3, 39840, Note_on_c, 1, 72, 0
3, 39960, Note_on_c, 1, 79, 82
3, 39960, Note_on_c, 1, 72, 65
3, 40080, Note_on_c, 1, 72, 0
3, 40080, Note_on_c, 1, 79, 0
3, 40200, Note_on_c, 1, 71, 93
3, 40200, Note_on_c, 1, 79, 78
3, 40320, Note_on_c, 1, 79, 0
3, 40320, Note_on_c, 1, 71, 0
3, 40320, Note_on_c, 1, 79, 90
3, 40320, Note_on_c, 1, 72, 73
3, 40440, Note_on_c, 1, 72, 0
3, 40440, Note_on_c, 1, 79, 0
3, 40440, Note_on_c, 1, 79, 45
3, 40530, Note_on_c, 1, 79, 0
3, 40560, Note_on_c, 1, 79, 61
3, 40650, Note_on_c, 1, 79, 0
3, 40680, Note_on_c, 1, 79, 48
3, 40770, Note_on_c, 1, 79, 0
3, 40800, Note_on_c, 1, 79, 64
3, 41040, Note_on_c, 1, 79, 0
3, 41040, Note_on_c, 1, 77, 72
3, 41220, Note_on_c, 1, 77, 0
3, 41220, Note_on_c, 1, 75, 68
3, 41280, Note_on_c, 1, 75, 0
3, 41280, Note_on_c, 1, 74, 72
3, 41400, Note_on_c, 1, 74, 0
3, 42360, Note_on_c, 1, 79, 57
3, 42450, Note_on_c, 1, 79, 0
3, 42480, Note_on_c, 1, 79, 68
3, 42570, Note_on_c, 1, 79, 0
3, 42600, Note_on_c, 1, 79, 61
3, 42690, Note_on_c, 1, 79, 0
3, 42720, Note_on_c, 1, 79, 68
3, 42960, Note_on_c, 1, 79, 0
3, 42960, Note_on_c, 1, 77, 71
3, 43140, Note_on_c, 1, 77, 0
3, 43140, Note_on_c, 1, 75, 86
3, 43200, Note_on_c, 1, 75, 0
3, 43200, Note_on_c, 1, 84, 56
3, 43440, Note_on_c, 1, 84, 0
3, 43440, Note_on_c, 1, 82, 80
3, 43620, Note_on_c, 1, 82, 0
3, 43620, Note_on_c, 1, 81, 90
3, 43680, Note_on_c, 1, 81, 0
3, 43680, Note_on_c, 1, 80, 65
3, 45120, Note_on_c, 1, 80, 0
3, 45120, Note_on_c, 1, 79, 68
3, 45600, Note_on_c, 1, 79, 0
3, 45600, Note_on_c, 1, 78, 78
3, 45840, Note_on_c, 1, 78, 0
3, 45840, Note_on_c, 1, 77, 89
3, 46080, Note_on_c, 1, 77, 0
3, 46080, Note_on_c, 1, 76, 66
3, 46200, Note_on_c, 1, 76, 0
3, 46200, Note_on_c, 1, 75, 69
3, 46320, Note_on_c, 1, 75, 0
3, 46320, Note_on_c, 1, 74, 53
3, 46440, Note_on_c, 1, 74, 0
3, 46440, Note_on_c, 1, 79, 50
3, 46560, Note_on_c, 1, 79, 0
3, 46560, Note_on_c, 1, 72, 42
3, 46680, Note_on_c, 1, 72, 0
3, 47040, Note_on_c, 1, 71, 64
3, 47040, Note_on_c, 1, 80, 89
3, 47220, Note_on_c, 1, 80, 0
3, 47220, Note_on_c, 1, 79, 72
3, 47250, Note_on_c, 1, 79, 0
3, 47280, Note_on_c, 1, 77, 72
3, 47310, Note_on_c, 1, 77, 0
3, 47340, Note_on_c, 1, 75, 76
3, 47370, Note_on_c, 1, 75, 0
3, 47400, Note_on_c, 1, 74, 81
3, 47430, Note_on_c, 1, 74, 0
3, 47460, Note_on_c, 1, 79, 67
3, 47490, Note_on_c, 1, 79, 0
3, 47520, Note_on_c, 1, 71, 0
3, 47520, Note_on_c, 1, 75, 60
3, 47520, Note_on_c, 1, 72, 43
3, 47640, Note_on_c, 1, 72, 0
3, 47640, Note_on_c, 1, 75, 0
3, 47640, Note_on_c, 1, 75, 39
3, 47760, Note_on_c, 1, 75, 0
3, 47880, Note_on_c, 1, 72, 43
3, 48000, Note_on_c, 1, 72, 0
3, 48120, Note_on_c, 1, 74, 40
3, 48240, Note_on_c, 1, 74, 0
3, 48360, Note_on_c, 1, 67, 37
3, 48480, Note_on_c, 1, 67, 0
3, 48600, Note_on_c, 1, 84, 45
3, 48600, Note_on_c, 1, 75, 65
3, 48720, Note_on_c, 1, 75, 0
3, 48720, Note_on_c, 1, 84, 0
3, 48720, Note_on_c, 1, 84, 74
3, 48720, Note_on_c, 1, 75, 81
3, 48840, Note_on_c, 1, 75, 0
3, 48840, Note_on_c, 1, 84, 0
3, 48840, Note_on_c, 1, 75, 90
3, 48840, Note_on_c, 1, 84, 77
3, 48960, Note_on_c, 1, 84, 0
3, 48960, Note_on_c, 1, 75, 0
3, 48960, Note_on_c, 1, 84, 61
3, 48960, Note_on_c, 1, 75, 76
3, 49200, Note_on_c, 1, 75, 0
3, 49200, Note_on_c, 1, 84, 0
3, 49200, Note_on_c, 1, 74, 82
3, 49200, Note_on_c, 1, 83, 67
3, 49440, Note_on_c, 1, 83, 0
3, 49440, Note_on_c, 1, 74, 0
3, 49440, Note_on_c, 1, 72, 81
3, 49680, Note_on_c, 1, 72, 0
3, 49680, Note_on_c, 1, 75, 90
3, 49920, Note_on_c, 1, 75, 0
3, 49920, Note_on_c, 1, 79, 89
3, 50100, Note_on_c, 1, 79, 0
3, 50100, Note_on_c, 1, 77, 94
3, 50130, Note_on_c, 1, 77, 0
3, 50160, Note_on_c, 1, 75, 95
3, 50220, Note_on_c, 1, 75, 0
3, 50280, Note_on_c, 1, 74, 94
3, 50340, Note_on_c, 1, 74, 0
3, 50400, Note_on_c, 1, 72, 81
3, 50520, Note_on_c, 1, 72, 0
3, 50580, Note_on_c, 1, 67, 82
3, 50640, Note_on_c, 1, 67, 0
3, 50640, Note_on_c, 1, 72, 86
3, 50760, Note_on_c, 1, 72, 0
3, 50820, Note_on_c, 1, 67, 82
3, 50880, Note_on_c, 1, 67, 0
3, 50880, Note_on_c, 1, 72, 89
3, 51000, Note_on_c, 1, 72, 0
3, 51060, Note_on_c, 1, 83, 86
3, 51060, Note_on_c, 1, 74, 104
3, 51090, Note_on_c, 1, 74, 0
3, 51090, Note_on_c, 1, 83, 0
3, 51120, Note_on_c, 1, 84, 81
3, 51120, Note_on_c, 1, 75, 94
3, 51180, Note_on_c, 1, 75, 0
3, 51180, Note_on_c, 1, 84, 0
3, 51300, Note_on_c, 1, 79, 73
3, 51300, Note_on_c, 1, 71, 86
3, 51330, Note_on_c, 1, 71, 0
3, 51330, Note_on_c, 1, 79, 0
3, 51360, Note_on_c, 1, 79, 78
3, 51360, Note_on_c, 1, 72, 58
3, 51420, Note_on_c, 1, 72, 0
3, 51420, Note_on_c, 1, 79, 0
3, 51540, Note_on_c, 1, 83, 80
3, 51540, Note_on_c, 1, 74, 99
3, 51570, Note_on_c, 1, 74, 0
3, 51570, Note_on_c, 1, 83, 0
3, 51600, Note_on_c, 1, 84, 77
3, 51600, Note_on_c, 1, 75, 98
3, 51660, Note_on_c, 1, 75, 0
3, 51660, Note_on_c, 1, 84, 0
3, 51780, Note_on_c, 1, 79, 77
3, 51780, Note_on_c, 1, 71, 86
3, 51810, Note_on_c, 1, 71, 0
3, 51810, Note_on_c, 1, 79, 0
3, 51840, Note_on_c, 1, 79, 80
3, 51840, Note_on_c, 1, 72, 56
3, 51900, Note_on_c, 1, 72, 0
3, 51900, Note_on_c, 1, 79, 0
3, 52320, Note_on_c, 1, 72, 84
3, 52440, Note_on_c, 1, 72, 0
3, 52560, Note_on_c, 1, 72, 94
3, 52680, Note_on_c, 1, 72, 0
3, 52800, Note_on_c, 1, 72, 99
3, 53040, Note_on_c, 1, 72, 0
3, 65760, Note_on_c, 1, 67, 81
3, 65760, Note_on_c, 1, 75, 64
3, 66360, Note_on_c, 1, 75, 0
3, 66360, Note_on_c, 1, 67, 0
3, 66360, Note_on_c, 1, 75, 58
3, 66360, Note_on_c, 1, 67, 76
3, 66480, Note_on_c, 1, 67, 0
3, 66480, Note_on_c, 1, 75, 0
3, 66480, Note_on_c, 1, 75, 57
3, 66480, Note_on_c, 1, 67, 77
3, 66600, Note_on_c, 1, 67, 0
3, 66600, Note_on_c, 1, 75, 0
3, 66600, Note_on_c, 1, 67, 76
3, 66600, Note_on_c, 1, 75, 61
3, 66720, Note_on_c, 1, 75, 0
3, 66720, Note_on_c, 1, 67, 0
3, 66720, Note_on_c, 1, 75, 60
3, 66720, Note_on_c, 1, 67, 80
3, 66840, Note_on_c, 1, 67, 0
3, 66840, Note_on_c, 1, 75, 0
3, 67680, Note_on_c, 1, 80, 76
3, 67680, Note_on_c, 1, 75, 85
3, 68280, Note_on_c, 1, 75, 0
3, 68280, Note_on_c, 1, 80, 0
3, 68280, Note_on_c, 1, 80, 69
3, 68280, Note_on_c, 1, 75, 62
3, 68400, Note_on_c, 1, 75, 0
3, 68400, Note_on_c, 1, 80, 0
3, 68400, Note_on_c, 1, 80, 69
3, 68400, Note_on_c, 1, 75, 68
3, 68520, Note_on_c, 1, 75, 0
3, 68520, Note_on_c, 1, 80, 0
3, 68520, Note_on_c, 1, 75, 72
3, 68640, Note_on_c, 1, 75, 0
3, 68640, Note_on_c, 1, 78, 58
3, 68640, Note_on_c, 1, 75, 73
3, 68760, Note_on_c, 1, 75, 0
3, 68760, Note_on_c, 1, 78, 0
3, 88920, Note_on_c, 1, 82, 62
3, 89010, Note_on_c, 1, 82, 0
3, 89040, Note_on_c, 1, 82, 64
3, 89130, Note_on_c, 1, 82, 0
3, 89160, Note_on_c, 1, 82, 69
3, 89250, Note_on_c, 1, 82, 0
3, 89280, Note_on_c, 1, 82, 56
3, 89520, Note_on_c, 1, 82, 0
3, 89520, Note_on_c, 1, 80, 59
3, 89700, Note_on_c, 1, 80, 0
3, 89700, Note_on_c, 1, 79, 55
3, 89760, Note_on_c, 1, 79, 0
3, 89760, Note_on_c, 1, 77, 60
3, 89880, Note_on_c, 1, 77, 0
3, 100440, Note_on_c, 1, 77, 44
3, 100440, Note_on_c, 1, 70, 43
3, 100530, Note_on_c, 1, 70, 0
3, 100530, Note_on_c, 1, 77, 0
3, 100560, Note_on_c, 1, 77, 40
3, 100560, Note_on_c, 1, 70, 40
3, 100650, Note_on_c, 1, 70, 0
3, 100650, Note_on_c, 1, 77, 0
3, 100680, Note_on_c, 1, 77, 43
3, 100680, Note_on_c, 1, 70, 43
3, 100770, Note_on_c, 1, 70, 0
3, 100770, Note_on_c, 1, 77, 0
3, 100800, Note_on_c, 1, 75, 46
3, 100800, Note_on_c, 1, 70, 45
3, 101760, Note_on_c, 1, 70, 0
3, 101760, Note_on_c, 1, 75, 0
3, 101760, Note_on_c, 1, 72, 29
3, 101760, Note_on_c, 1, 75, 45
3, 102720, Note_on_c, 1, 75, 0
3, 102720, Note_on_c, 1, 72, 0
3, 102720, Note_on_c, 1, 72, 29
3, 102720, Note_on_c, 1, 78, 49
3, 103680, Note_on_c, 1, 78, 0
3, 103680, Note_on_c, 1, 72, 0
3, 103680, Note_on_c, 1, 79, 38
3, 103680, Note_on_c, 1, 70, 45
3, 103800, Note_on_c, 1, 70, 0
3, 103800, Note_on_c, 1, 79, 0
3, 108480, Note_on_c, 1, 75, 74
3, 108480, Note_on_c, 1, 67, 84
3, 108600, Note_on_c, 1, 67, 0
3, 108600, Note_on_c, 1, 75, 0
3, 108840, Note_on_c, 1, 84, 84
3, 108960, Note_on_c, 1, 74, 85
3, 109080, Note_on_c, 1, 84, 0
3, 109140, Note_on_c, 1, 82, 71
3, 109170, Note_on_c, 1, 82, 0
3, 109200, Note_on_c, 1, 80, 84
3, 109230, Note_on_c, 1, 80, 0
3, 109260, Note_on_c, 1, 79, 89
3, 109290, Note_on_c, 1, 79, 0
3, 109320, Note_on_c, 1, 77, 84
3, 109350, Note_on_c, 1, 77, 0
3, 109380, Note_on_c, 1, 82, 74
3, 109410, Note_on_c, 1, 82, 0
3, 109440, Note_on_c, 1, 74, 0
3, 109440, Note_on_c, 1, 79, 67
3, 109440, Note_on_c, 1, 75, 73
3, 109560, Note_on_c, 1, 75, 0
3, 109560, Note_on_c, 1, 79, 0
3, 110520, Note_on_c, 1, 79, 59
3, 110520, Note_on_c, 1, 75, 73
3, 110640, Note_on_c, 1, 75, 0
3, 110640, Note_on_c, 1, 79, 0
3, 110760, Note_on_c, 1, 75, 68
3, 110760, Note_on_c, 1, 79, 61
3, 110880, Note_on_c, 1, 79, 0
3, 110880, Note_on_c, 1, 75, 0
3, 111000, Note_on_c, 1, 77, 71
3, 111000, Note_on_c, 1, 75, 76
3, 111120, Note_on_c, 1, 75, 0
3, 111120, Note_on_c, 1, 77, 0
3, 111240, Note_on_c, 1, 74, 80
3, 111240, Note_on_c, 1, 77, 54
3, 111360, Note_on_c, 1, 77, 0
3, 111360, Note_on_c, 1, 74, 0
3, 111480, Note_on_c, 1, 75, 77
3, 111480, Note_on_c, 1, 74, 86
3, 111600, Note_on_c, 1, 74, 0
3, 111600, Note_on_c, 1, 75, 0
3, 111720, Note_on_c, 1, 72, 46
3, 111720, Note_on_c, 1, 75, 82
3, 111840, Note_on_c, 1, 75, 0
3, 111840, Note_on_c, 1, 72, 0
3, 111960, Note_on_c, 1, 81, 63
3, 111960, Note_on_c, 1, 72, 42
3, 112080, Note_on_c, 1, 72, 0
3, 112080, Note_on_c, 1, 81, 0
3, 112200, Note_on_c, 1, 70, 89
3, 112200, Note_on_c, 1, 79, 74
3, 112320, Note_on_c, 1, 79, 0
3, 112320, Note_on_c, 1, 70, 0
3, 112440, Note_on_c, 1, 81, 73
3, 112440, Note_on_c, 1, 72, 58
3, 112560, Note_on_c, 1, 72, 0
3, 112560, Note_on_c, 1, 81, 0
3, 112680, Note_on_c, 1, 70, 84
3, 112680, Note_on_c, 1, 79, 58
3, 112800, Note_on_c, 1, 79, 0
3, 112800, Note_on_c, 1, 70, 0
3, 112920, Note_on_c, 1, 78, 61
3, 112920, Note_on_c, 1, 69, 86
3, 113040, Note_on_c, 1, 69, 0
3, 113040, Note_on_c, 1, 78, 0
3, 113160, Note_on_c, 1, 73, 73
3, 113160, Note_on_c, 1, 79, 64
3, 113280, Note_on_c, 1, 79, 0
3, 113280, Note_on_c, 1, 73, 0
3, 113280, Note_on_c, 1, 78, 68
3, 113280, Note_on_c, 1, 74, 73
3, 113340, Note_on_c, 1, 74, 0
3, 113340, Note_on_c, 1, 78, 0
3, 115320, Note_on_c, 1, 62, 64
3, 115320, Note_on_c, 1, 74, 80
3, 115800, Note_on_c, 1, 74, 0
3, 115800, Note_on_c, 1, 62, 0
3, 115800, Note_on_c, 1, 62, 72
3, 115800, Note_on_c, 1, 74, 84
3, 116280, Note_on_c, 1, 74, 0
3, 116280, Note_on_c, 1, 62, 0
3, 116280, Note_on_c, 1, 62, 73
3, 116280, Note_on_c, 1, 74, 80
3, 116760, Note_on_c, 1, 74, 0
3, 116760, Note_on_c, 1, 62, 0
3, 116760, Note_on_c, 1, 74, 93
3, 116760, Note_on_c, 1, 62, 89
3, 116880, Note_on_c, 1, 62, 0
3, 116880, Note_on_c, 1, 74, 0
3, 116880, Note_on_c, 1, 74, 72
3, 116880, Note_on_c, 1, 62, 70
3, 117000, Note_on_c, 1, 62, 0
3, 117000, Note_on_c, 1, 74, 0
3, 117000, Note_on_c, 1, 62, 67
3, 117000, Note_on_c, 1, 74, 62
3, 117120, Note_on_c, 1, 74, 0
3, 117120, Note_on_c, 1, 62, 0
3, 117120, Note_on_c, 1, 74, 77
3, 117120, Note_on_c, 1, 62, 70
3, 117240, Note_on_c, 1, 62, 0
3, 117240, Note_on_c, 1, 74, 0
3, 117240, Note_on_c, 1, 81, 74
3, 117240, Note_on_c, 1, 78, 76
3, 117360, Note_on_c, 1, 78, 0
3, 117360, Note_on_c, 1, 81, 0
3, 117360, Note_on_c, 1, 79, 76
3, 117360, Note_on_c, 1, 82, 84
3, 117600, Note_on_c, 1, 82, 0
3, 117600, Note_on_c, 1, 79, 0
3, 117600, Note_on_c, 1, 81, 62
3, 117600, Note_on_c, 1, 78, 72
3, 117720, Note_on_c, 1, 78, 0
3, 117720, Note_on_c, 1, 81, 0
3, 118200, Note_on_c, 1, 82, 82
3, 118200, Note_on_c, 1, 79, 84
3, 118320, Note_on_c, 1, 79, 0
3, 118320, Note_on_c, 1, 82, 0
3, 118320, Note_on_c, 1, 81, 74
3, 118320, Note_on_c, 1, 78, 73
3, 118440, Note_on_c, 1, 78, 0
3, 118440, Note_on_c, 1, 81, 0
3, 118440, Note_on_c, 1, 79, 67
3, 118440, Note_on_c, 1, 73, 74
3, 118500, Note_on_c, 1, 73, 0
3, 118500, Note_on_c, 1, 79, 0
3, 118560, Note_on_c, 1, 78, 76
3, 118560, Note_on_c, 1, 74, 73
3, 118620, Note_on_c, 1, 74, 0
3, 118620, Note_on_c, 1, 78, 0
3, 118680, Note_on_c, 1, 82, 84
3, 118680, Note_on_c, 1, 79, 76
3, 118800, Note_on_c, 1, 79, 0
3, 118800, Note_on_c, 1, 82, 0
3, 118800, Note_on_c, 1, 81, 69
3, 118800, Note_on_c, 1, 78, 76
3, 118920, Note_on_c, 1, 78, 0
3, 118920, Note_on_c, 1, 81, 0
3, 118920, Note_on_c, 1, 79, 68
3, 118920, Note_on_c, 1, 73, 66
3, 118980, Note_on_c, 1, 73, 0
3, 118980, Note_on_c, 1, 79, 0
3, 119040, Note_on_c, 1, 78, 73
3, 119040, Note_on_c, 1, 74, 84
3, 119160, Note_on_c, 1, 74, 0
3, 119160, Note_on_c, 1, 78, 0
3, 119520, Note_on_c, 1, 74, 101
3, 119640, Note_on_c, 1, 74, 0
3, 120000, Note_on_c, 1, 74, 101
3, 120120, Note_on_c, 1, 74, 0
3, 120960, Note_on_c, 1, 74, 58
3, 121020, Note_on_c, 1, 74, 0
3, 121140, Note_on_c, 1, 69, 73
3, 121170, Note_on_c, 1, 69, 0
3, 121200, Note_on_c, 1, 74, 64
3, 121260, Note_on_c, 1, 74, 0
3, 121380, Note_on_c, 1, 69, 76
3, 121410, Note_on_c, 1, 69, 0
3, 121440, Note_on_c, 1, 72, 60
3, 121500, Note_on_c, 1, 72, 0
3, 121920, Note_on_c, 1, 78, 44
3, 121920, Control_c, 1, 7, 99
3, 121940, Control_c, 1, 7, 100
3, 121960, Control_c, 1, 7, 101
3, 121980, Control_c, 1, 7, 102
3, 122000, Control_c, 1, 7, 103
3, 122020, Control_c, 1, 7, 104
3, 122040, Control_c, 1, 7, 105
3, 122055, Control_c, 1, 7, 106
3, 122075, Control_c, 1, 7, 107
3, 122095, Control_c, 1, 7, 108
3, 122115, Control_c, 1, 7, 109
3, 122135, Control_c, 1, 7, 110
3, 122155, Control_c, 1, 7, 111
3, 122170, Control_c, 1, 7, 112
3, 122190, Control_c, 1, 7, 113
3, 122210, Control_c, 1, 7, 114
3, 122230, Control_c, 1, 7, 115
3, 122250, Control_c, 1, 7, 116
3, 122270, Control_c, 1, 7, 117
3, 122285, Control_c, 1, 7, 118
3, 122305, Control_c, 1, 7, 119
3, 122325, Control_c, 1, 7, 120
3, 122345, Control_c, 1, 7, 121
3, 122365, Control_c, 1, 7, 122
3, 122385, Control_c, 1, 7, 123
3, 122400, Control_c, 1, 7, 124
3, 122420, Control_c, 1, 7, 123
3, 122440, Control_c, 1, 7, 122
3, 122460, Control_c, 1, 7, 121
3, 122480, Control_c, 1, 7, 120
3, 122500, Control_c, 1, 7, 119
3, 122520, Control_c, 1, 7, 118
3, 122535, Control_c, 1, 7, 117
3, 122555, Control_c, 1, 7, 116
3, 122575, Control_c, 1, 7, 115
3, 122595, Control_c, 1, 7, 114
3, 122615, Control_c, 1, 7, 113
3, 122635, Control_c, 1, 7, 112
3, 122650, Control_c, 1, 7, 111
3, 122670, Control_c, 1, 7, 110
3, 122690, Control_c, 1, 7, 109
3, 122710, Control_c, 1, 7, 108
3, 122730, Control_c, 1, 7, 107
3, 122750, Control_c, 1, 7, 106
3, 122765, Control_c, 1, 7, 105
3, 122785, Control_c, 1, 7, 104
3, 122805, Control_c, 1, 7, 103
3, 122825, Control_c, 1, 7, 102
3, 122845, Control_c, 1, 7, 101
3, 122865, Control_c, 1, 7, 100
3, 122880, Note_on_c, 1, 78, 0
3, 122880, Control_c, 1, 7, 99
3, 122880, Note_on_c, 1, 79, 43
3, 123000, Note_on_c, 1, 79, 0
3, 128160, Note_on_c, 1, 76, 44
3, 128400, Note_on_c, 1, 76, 0
3, 128400, Note_on_c, 1, 79, 51
3, 128640, Note_on_c, 1, 79, 0
3, 128640, Note_on_c, 1, 82, 56
3, 128820, Note_on_c, 1, 82, 0
3, 128820, Note_on_c, 1, 80, 59
3, 128850, Note_on_c, 1, 80, 0
3, 128880, Note_on_c, 1, 79, 59
3, 128940, Note_on_c, 1, 79, 0
3, 129000, Note_on_c, 1, 77, 58
3, 129060, Note_on_c, 1, 77, 0
3, 129120, Note_on_c, 1, 76, 68
3, 129210, Note_on_c, 1, 76, 0
3, 129240, Note_on_c, 1, 76, 69
3, 129330, Note_on_c, 1, 76, 0
3, 129360, Note_on_c, 1, 76, 57
3, 129450, Note_on_c, 1, 76, 0
3, 129480, Note_on_c, 1, 76, 69
3, 129570, Note_on_c, 1, 76, 0
3, 129600, Note_on_c, 1, 77, 61
3, 129720, Note_on_c, 1, 77, 0
3, 137280, Note_on_c, 1, 80, 65
3, 137760, Note_on_c, 1, 80, 0
3, 137760, Note_on_c, 1, 79, 49
3, 138720, Note_on_c, 1, 79, 0
3, 138720, Note_on_c, 1, 77, 51
3, 138960, Note_on_c, 1, 77, 0
3, 138960, Note_on_c, 1, 75, 55
3, 139200, Note_on_c, 1, 75, 0
3, 139200, Note_on_c, 1, 74, 58
3, 139320, Note_on_c, 1, 74, 0
3, 139320, Note_on_c, 1, 79, 41
3, 139320, Note_on_c, 1, 71, 37
3, 139440, Note_on_c, 1, 71, 0
3, 139440, Note_on_c, 1, 79, 0
3, 139440, Note_on_c, 1, 78, 43
3, 139440, Note_on_c, 1, 72, 38
3, 139560, Note_on_c, 1, 72, 0
3, 139560, Note_on_c, 1, 78, 0
3, 139560, Note_on_c, 1, 74, 40
3, 139560, Note_on_c, 1, 77, 40
3, 139680, Note_on_c, 1, 77, 0
3, 139680, Note_on_c, 1, 74, 0
3, 139680, Note_on_c, 1, 72, 55
3, 139680, Control_c, 1, 7, 100
3, 139680, Note_on_c, 1, 76, 49
3, 139705, Control_c, 1, 7, 101
3, 139725, Control_c, 1, 7, 102
3, 139750, Control_c, 1, 7, 103
3, 139770, Control_c, 1, 7, 104
3, 139795, Control_c, 1, 7, 105
3, 139815, Control_c, 1, 7, 106
3, 139835, Control_c, 1, 7, 107
3, 139860, Control_c, 1, 7, 108
3, 139880, Control_c, 1, 7, 109
3, 139905, Control_c, 1, 7, 110
3, 139920, Note_on_c, 1, 76, 0
3, 139920, Note_on_c, 1, 75, 44
3, 139925, Control_c, 1, 7, 111
3, 139945, Control_c, 1, 7, 112
3, 139970, Control_c, 1, 7, 113
3, 139990, Control_c, 1, 7, 114
3, 140015, Control_c, 1, 7, 115
3, 140035, Control_c, 1, 7, 116
3, 140055, Control_c, 1, 7, 117
3, 140080, Control_c, 1, 7, 118
3, 140100, Control_c, 1, 7, 119
3, 140125, Control_c, 1, 7, 120
3, 140145, Control_c, 1, 7, 121
3, 140160, Note_on_c, 1, 75, 0
3, 140160, Note_on_c, 1, 72, 0
3, 140160, Note_on_c, 1, 74, 48
3, 140160, Note_on_c, 1, 71, 41
3, 140165, Control_c, 1, 7, 122
3, 140280, Note_on_c, 1, 71, 0
3, 140280, Note_on_c, 1, 74, 0
3, 140280, Control_c, 1, 7, 99
3, 140280, Note_on_c, 1, 79, 40
3, 140280, Note_on_c, 1, 71, 47
3, 140400, Note_on_c, 1, 71, 0
3, 140400, Note_on_c, 1, 79, 0
3, 140400, Note_on_c, 1, 78, 45
3, 140400, Note_on_c, 1, 72, 33
3, 140520, Note_on_c, 1, 72, 0
3, 140520, Note_on_c, 1, 78, 0
3, 140520, Note_on_c, 1, 74, 60
3, 140520, Note_on_c, 1, 77, 38
3, 140640, Note_on_c, 1, 77, 0
3, 140640, Note_on_c, 1, 74, 0
3, 140640, Note_on_c, 1, 72, 40
3, 140640, Control_c, 1, 7, 99
3, 140640, Note_on_c, 1, 76, 41
3, 140665, Control_c, 1, 7, 100
3, 140685, Control_c, 1, 7, 101
3, 140705, Control_c, 1, 7, 102
3, 140730, Control_c, 1, 7, 103
3, 140750, Control_c, 1, 7, 104
3, 140770, Control_c, 1, 7, 105
3, 140795, Control_c, 1, 7, 106
3, 140815, Control_c, 1, 7, 107
3, 140835, Control_c, 1, 7, 108
3, 140860, Control_c, 1, 7, 109
3, 140880, Note_on_c, 1, 76, 0
3, 140880, Note_on_c, 1, 75, 45
3, 140880, Control_c, 1, 7, 110
3, 140900, Control_c, 1, 7, 111
3, 140925, Control_c, 1, 7, 112
3, 140945, Control_c, 1, 7, 113
3, 140965, Control_c, 1, 7, 114
3, 140990, Control_c, 1, 7, 115
3, 141010, Control_c, 1, 7, 116
3, 141030, Control_c, 1, 7, 117
3, 141055, Control_c, 1, 7, 118
3, 141075, Control_c, 1, 7, 119
3, 141095, Control_c, 1, 7, 120
3, 141120, Note_on_c, 1, 75, 0
3, 141120, Note_on_c, 1, 72, 0
3, 141120, Control_c, 1, 7, 99
3, 141120, Note_on_c, 1, 74, 43
3, 141120, Note_on_c, 1, 71, 43
3, 141240, Note_on_c, 1, 71, 0
3, 141240, Note_on_c, 1, 74, 0
3, 141840, Note_on_c, 1, 79, 44
3, 141840, Note_on_c, 1, 71, 58
3, 142080, Note_on_c, 1, 71, 0
3, 142080, Control_c, 1, 7, 99
3, 142080, Note_on_c, 1, 72, 65
3, 142095, Control_c, 1, 7, 100
3, 142105, Control_c, 1, 7, 101
3, 142115, Control_c, 1, 7, 102
3, 142125, Control_c, 1, 7, 103
3, 142135, Control_c, 1, 7, 104
3, 142145, Control_c, 1, 7, 105
3, 142155, Control_c, 1, 7, 106
3, 142170, Control_c, 1, 7, 107
3, 142180, Control_c, 1, 7, 108
3, 142190, Control_c, 1, 7, 109
3, 142200, Control_c, 1, 7, 110
3, 142210, Control_c, 1, 7, 111
3, 142220, Control_c, 1, 7, 112
3, 142230, Control_c, 1, 7, 113
3, 142245, Control_c, 1, 7, 114
3, 142255, Control_c, 1, 7, 115
3, 142265, Control_c, 1, 7, 116
3, 142275, Control_c, 1, 7, 117
3, 142285, Control_c, 1, 7, 118
3, 142295, Control_c, 1, 7, 119
3, 142305, Control_c, 1, 7, 120
3, 142315, Control_c, 1, 7, 119
3, 142320, Note_on_c, 1, 79, 0
3, 142320, Control_c, 1, 7, 118
3, 142320, Note_on_c, 1, 77, 54
3, 142325, Control_c, 1, 7, 117
3, 142335, Control_c, 1, 7, 116
3, 142340, Control_c, 1, 7, 115
3, 142345, Control_c, 1, 7, 114
3, 142350, Control_c, 1, 7, 113
3, 142360, Control_c, 1, 7, 112
3, 142365, Control_c, 1, 7, 111
3, 142370, Control_c, 1, 7, 110
3, 142380, Control_c, 1, 7, 109
3, 142385, Control_c, 1, 7, 108
3, 142390, Control_c, 1, 7, 107
3, 142395, Control_c, 1, 7, 106
3, 142405, Control_c, 1, 7, 105
3, 142410, Control_c, 1, 7, 104
3, 142415, Control_c, 1, 7, 103
3, 142425, Control_c, 1, 7, 102
3, 142430, Control_c, 1, 7, 101
3, 142435, Control_c, 1, 7, 100
3, 142440, Note_on_c, 1, 77, 0
3, 142440, Note_on_c, 1, 72, 0
3, 142440, Control_c, 1, 7, 99
3, 143760, Note_on_c, 1, 77, 53
3, 143760, Control_c, 1, 7, 99
3, 143775, Control_c, 1, 7, 100
3, 143785, Control_c, 1, 7, 101
3, 143795, Control_c, 1, 7, 102
3, 143810, Control_c, 1, 7, 103
3, 143820, Control_c, 1, 7, 104
3, 143830, Control_c, 1, 7, 105
3, 143845, Control_c, 1, 7, 106
3, 143855, Control_c, 1, 7, 107
3, 143865, Control_c, 1, 7, 108
3, 143880, Control_c, 1, 7, 109
3, 143890, Control_c, 1, 7, 110
3, 143900, Control_c, 1, 7, 111
3, 143915, Control_c, 1, 7, 112
3, 143925, Control_c, 1, 7, 113
3, 143935, Control_c, 1, 7, 114
3, 143950, Control_c, 1, 7, 115
3, 143960, Control_c, 1, 7, 116
3, 143970, Control_c, 1, 7, 117
3, 143985, Control_c, 1, 7, 118
3, 143995, Control_c, 1, 7, 119
3, 144000, Note_on_c, 1, 77, 0
3, 144000, Note_on_c, 1, 78, 57
3, 144005, Control_c, 1, 7, 120
3, 144020, Control_c, 1, 7, 121
3, 144030, Control_c, 1, 7, 122
3, 144040, Control_c, 1, 7, 123
3, 144055, Control_c, 1, 7, 122
3, 144070, Control_c, 1, 7, 121
3, 144080, Control_c, 1, 7, 120
3, 144095, Control_c, 1, 7, 119
3, 144110, Control_c, 1, 7, 118
3, 144120, Control_c, 1, 7, 117
3, 144135, Control_c, 1, 7, 116
3, 144150, Control_c, 1, 7, 115
3, 144160, Control_c, 1, 7, 114
3, 144175, Control_c, 1, 7, 113
3, 144190, Control_c, 1, 7, 112
3, 144200, Control_c, 1, 7, 111
3, 144215, Control_c, 1, 7, 110
3, 144230, Control_c, 1, 7, 109
3, 144240, Note_on_c, 1, 78, 0
3, 144240, Control_c, 1, 7, 108
3, 144240, Note_on_c, 1, 77, 56
3, 144255, Control_c, 1, 7, 107
3, 144270, Control_c, 1, 7, 106
3, 144280, Control_c, 1, 7, 105
3, 144295, Control_c, 1, 7, 104
3, 144310, Control_c, 1, 7, 103
3, 144320, Control_c, 1, 7, 102
3, 144335, Control_c, 1, 7, 101
3, 144350, Control_c, 1, 7, 100
3, 144360, Note_on_c, 1, 77, 0
3, 144360, Control_c, 1, 7, 99
3, 144720, Note_on_c, 1, 77, 64
3, 144720, Control_c, 1, 7, 99
3, 144735, Control_c, 1, 7, 100
3, 144745, Control_c, 1, 7, 101
3, 144760, Control_c, 1, 7, 102
3, 144770, Control_c, 1, 7, 103
3, 144780, Control_c, 1, 7, 104
3, 144795, Control_c, 1, 7, 105
3, 144805, Control_c, 1, 7, 106
3, 144820, Control_c, 1, 7, 107
3, 144830, Control_c, 1, 7, 108
3, 144840, Control_c, 1, 7, 109
3, 144855, Control_c, 1, 7, 110
3, 144865, Control_c, 1, 7, 111
3, 144880, Control_c, 1, 7, 112
3, 144890, Control_c, 1, 7, 113
3, 144900, Control_c, 1, 7, 114
3, 144915, Control_c, 1, 7, 115
3, 144925, Control_c, 1, 7, 116
3, 144940, Control_c, 1, 7, 117
3, 144950, Control_c, 1, 7, 118
3, 144960, Note_on_c, 1, 77, 0
3, 144960, Control_c, 1, 7, 119
3, 144960, Note_on_c, 1, 80, 49
3, 144975, Control_c, 1, 7, 120
3, 144985, Control_c, 1, 7, 121
3, 145000, Control_c, 1, 7, 122
3, 145010, Control_c, 1, 7, 123
3, 145020, Control_c, 1, 7, 124
3, 145030, Control_c, 1, 7, 123
3, 145040, Control_c, 1, 7, 122
3, 145045, Control_c, 1, 7, 121
3, 145055, Control_c, 1, 7, 120
3, 145065, Control_c, 1, 7, 119
3, 145070, Control_c, 1, 7, 118
3, 145080, Control_c, 1, 7, 117
3, 145090, Control_c, 1, 7, 116
3, 145095, Control_c, 1, 7, 115
3, 145105, Control_c, 1, 7, 114
3, 145115, Control_c, 1, 7, 113
3, 145120, Control_c, 1, 7, 112
3, 145130, Control_c, 1, 7, 111
3, 145135, Control_c, 1, 7, 110
3, 145145, Control_c, 1, 7, 109
3, 145155, Control_c, 1, 7, 108
3, 145160, Control_c, 1, 7, 107
3, 145170, Control_c, 1, 7, 106
3, 145180, Control_c, 1, 7, 105
3, 145185, Control_c, 1, 7, 104
3, 145195, Control_c, 1, 7, 103
3, 145200, Note_on_c, 1, 80, 0
3, 145200, Note_on_c, 1, 79, 66
3, 145205, Control_c, 1, 7, 102
3, 145210, Control_c, 1, 7, 101
3, 145220, Control_c, 1, 7, 100
3, 145225, Control_c, 1, 7, 99
3, 146400, Note_on_c, 1, 79, 0
3, 146400, Note_on_c, 1, 77, 57
3, 146880, Note_on_c, 1, 77, 0
3, 146880, Note_on_c, 1, 75, 63
3, 147360, Note_on_c, 1, 75, 0
3, 147360, Note_on_c, 1, 74, 46
3, 147840, Note_on_c, 1, 74, 0
3, 147840, Note_on_c, 1, 72, 84
3, 148080, Note_on_c, 1, 72, 0
3, 148080, Note_on_c, 1, 75, 94
3, 148320, Note_on_c, 1, 75, 0
3, 148320, Note_on_c, 1, 79, 93
3, 148500, Note_on_c, 1, 79, 0
3, 148500, Note_on_c, 1, 77, 89
3, 148530, Note_on_c, 1, 77, 0
3, 148560, Note_on_c, 1, 75, 105
3, 148620, Note_on_c, 1, 75, 0
3, 148680, Note_on_c, 1, 74, 98
3, 148740, Note_on_c, 1, 74, 0
3, 148800, Note_on_c, 1, 72, 89
3, 148860, Note_on_c, 1, 72, 0
3, 148980, Note_on_c, 1, 67, 99
3, 149010, Note_on_c, 1, 67, 0
3, 149040, Note_on_c, 1, 72, 77
3, 149100, Note_on_c, 1, 72, 0
3, 149220, Note_on_c, 1, 67, 99
3, 149250, Note_on_c, 1, 67, 0
3, 149280, Note_on_c, 1, 72, 85
3, 149340, Note_on_c, 1, 72, 0
3, 149760, Note_on_c, 1, 71, 78
3, 149760, Note_on_c, 1, 74, 90
3, 150000, Note_on_c, 1, 74, 0
3, 150000, Note_on_c, 1, 71, 0
3, 150000, Note_on_c, 1, 74, 89
3, 150000, Note_on_c, 1, 77, 84
3, 150240, Note_on_c, 1, 77, 0
3, 150240, Note_on_c, 1, 74, 0
3, 150240, Note_on_c, 1, 77, 77
3, 150240, Note_on_c, 1, 80, 78
3, 150420, Note_on_c, 1, 80, 0
3, 150420, Note_on_c, 1, 77, 0
3, 150420, Note_on_c, 1, 75, 89
3, 150420, Note_on_c, 1, 79, 86
3, 150450, Note_on_c, 1, 79, 0
3, 150450, Note_on_c, 1, 75, 0
3, 150480, Note_on_c, 1, 74, 84
3, 150480, Note_on_c, 1, 77, 72
3, 150540, Note_on_c, 1, 77, 0
3, 150540, Note_on_c, 1, 74, 0
3, 150600, Note_on_c, 1, 75, 94
3, 150600, Note_on_c, 1, 72, 67
3, 150660, Note_on_c, 1, 72, 0
3, 150660, Note_on_c, 1, 75, 0
3, 150720, Note_on_c, 1, 71, 85
3, 150720, Note_on_c, 1, 74, 84
3, 150780, Note_on_c, 1, 74, 0
3, 150780, Note_on_c, 1, 71, 0
3, 150900, Note_on_c, 1, 72, 43
3, 150900, Note_on_c, 1, 75, 74
3, 150930, Note_on_c, 1, 75, 0
3, 150930, Note_on_c, 1, 72, 0
3, 150960, Note_on_c, 1, 74, 56
3, 150960, Note_on_c, 1, 71, 58
3, 151020, Note_on_c, 1, 71, 0
3, 151020, Note_on_c, 1, 74, 0
3, 151140, Note_on_c, 1, 75, 55
3, 151140, Note_on_c, 1, 72, 29
3, 151170, Note_on_c, 1, 72, 0
3, 151170, Note_on_c, 1, 75, 0
3, 151200, Note_on_c, 1, 71, 57
3, 151200, Note_on_c, 1, 74, 61
3, 151260, Note_on_c, 1, 74, 0
3, 151260, Note_on_c, 1, 71, 0
3, 152640, Note_on_c, 1, 81, 46
3, 152700, Note_on_c, 1, 81, 0
3, 152820, Note_on_c, 1, 82, 56
3, 152850, Note_on_c, 1, 82, 0
3, 152880, Note_on_c, 1, 81, 65
3, 152940, Note_on_c, 1, 81, 0
3, 153060, Note_on_c, 1, 82, 53
3, 153090, Note_on_c, 1, 82, 0
3, 153120, Note_on_c, 1, 81, 64
3, 153180, Note_on_c, 1, 81, 0
3, 157980, Note_on_c, 1, 79, 40
3, 158010, Note_on_c, 1, 79, 0
3, 158040, Note_on_c, 1, 79, 46
3, 158070, Note_on_c, 1, 79, 0
3, 158100, Note_on_c, 1, 79, 56
3, 158130, Note_on_c, 1, 79, 0
3, 158160, Note_on_c, 1, 79, 44
3, 158220, Note_on_c, 1, 79, 0
3, 158220, Note_on_c, 1, 79, 46
3, 158280, Note_on_c, 1, 79, 0
3, 158280, Note_on_c, 1, 79, 49
3, 158340, Note_on_c, 1, 79, 0
3, 158340, Note_on_c, 1, 77, 56
3, 158400, Note_on_c, 1, 77, 0
3, 158400, Note_on_c, 1, 77, 56
3, 158460, Note_on_c, 1, 77, 0
3, 158460, Note_on_c, 1, 75, 55
3, 158520, Note_on_c, 1, 75, 0
3, 158520, Note_on_c, 1, 75, 64
3, 158550, Note_on_c, 1, 75, 0
3, 158580, Note_on_c, 1, 75, 53
3, 158610, Note_on_c, 1, 75, 0
3, 158640, Note_on_c, 1, 75, 67
3, 158670, Note_on_c, 1, 75, 0
3, 158700, Note_on_c, 1, 75, 67
3, 158730, Note_on_c, 1, 75, 0
3, 158760, Note_on_c, 1, 74, 72
3, 158790, Note_on_c, 1, 74, 0
3, 158820, Note_on_c, 1, 72, 59
3, 158850, Note_on_c, 1, 72, 0
3, 158880, Note_on_c, 1, 72, 61
3, 158940, Note_on_c, 1, 72, 0
3, 158940, Note_on_c, 1, 71, 64
3, 159000, Note_on_c, 1, 71, 0
3, 159000, Note_on_c, 1, 71, 45
3, 159030, Note_on_c, 1, 71, 0
3, 159060, Note_on_c, 1, 71, 68
3, 159090, Note_on_c, 1, 71, 0
3, 159120, Note_on_c, 1, 71, 68
3, 159150, Note_on_c, 1, 71, 0
3, 159180, Note_on_c, 1, 71, 67
3, 159210, Note_on_c, 1, 71, 0
3, 159240, Note_on_c, 1, 72, 62
3, 159270, Note_on_c, 1, 72, 0
3, 159300, Note_on_c, 1, 74, 64
3, 159330, Note_on_c, 1, 74, 0
3, 159360, Note_on_c, 1, 74, 68
3, 159420, Note_on_c, 1, 74, 0
3, 159420, Note_on_c, 1, 72, 65
3, 159480, Note_on_c, 1, 72, 0
3, 159480, Note_on_c, 1, 72, 49
3, 159510, Note_on_c, 1, 72, 0
3, 159540, Note_on_c, 1, 72, 59
3, 159570, Note_on_c, 1, 72, 0
3, 159600, Note_on_c, 1, 72, 53
3, 159630, Note_on_c, 1, 72, 0
3, 159660, Note_on_c, 1, 72, 64
3, 159690, Note_on_c, 1, 72, 0
3, 159720, Note_on_c, 1, 74, 89
3, 159750, Note_on_c, 1, 74, 0
3, 159780, Note_on_c, 1, 75, 67
3, 159810, Note_on_c, 1, 75, 0
3, 159840, Note_on_c, 1, 71, 46
3, 159840, Note_on_c, 1, 74, 54
3, 159960, Note_on_c, 1, 74, 0
3, 159960, Note_on_c, 1, 71, 0
3, 160020, Note_on_c, 1, 71, 42
3, 160020, Note_on_c, 1, 74, 40
3, 160080, Note_on_c, 1, 74, 0
3, 160080, Note_on_c, 1, 71, 0
3, 160080, Note_on_c, 1, 75, 40
3, 160080, Note_on_c, 1, 72, 29
3, 160200, Note_on_c, 1, 72, 0
3, 160200, Note_on_c, 1, 75, 0
3, 160260, Note_on_c, 1, 75, 52
3, 160260, Note_on_c, 1, 72, 29
3, 160320, Note_on_c, 1, 72, 0
3, 160320, Note_on_c, 1, 75, 0
3, 160320, Note_on_c, 1, 71, 41
3, 160320, Note_on_c, 1, 74, 41
3, 160440, Note_on_c, 1, 74, 0
3, 160440, Note_on_c, 1, 71, 0
3, 160500, Note_on_c, 1, 71, 37
3, 160500, Note_on_c, 1, 74, 34
3, 160560, Note_on_c, 1, 74, 0
3, 160560, Note_on_c, 1, 71, 0
3, 160560, Note_on_c, 1, 75, 64
3, 160560, Note_on_c, 1, 72, 29
3, 160680, Note_on_c, 1, 72, 0
3, 160680, Note_on_c, 1, 75, 0
3, 160740, Note_on_c, 1, 75, 43
3, 160740, Note_on_c, 1, 72, 29
3, 160800, Note_on_c, 1, 72, 0
3, 160800, Note_on_c, 1, 75, 0
3, 160800, Note_on_c, 1, 71, 40
3, 160800, Note_on_c, 1, 74, 43
3, 160920, Note_on_c, 1, 74, 0
3, 160920, Note_on_c, 1, 71, 0
3, 166560, Note_on_c, 1, 76, 66
3, 166560, Note_on_c, 1, 72, 29
3, 166800, Note_on_c, 1, 72, 0
3, 166800, Note_on_c, 1, 76, 0
3, 166800, Note_on_c, 1, 71, 67
3, 166800, Note_on_c, 1, 74, 81
3, 166860, Note_on_c, 1, 74, 0
3, 166860, Note_on_c, 1, 76, 80
3, 166920, Note_on_c, 1, 76, 0
3, 166920, Note_on_c, 1, 77, 72
3, 166980, Note_on_c, 1, 77, 0
3, 166980, Note_on_c, 1, 74, 73
3, 167040, Note_on_c, 1, 74, 0
3, 167040, Note_on_c, 1, 71, 0
3, 167040, Note_on_c, 1, 67, 52
3, 167040, Note_on_c, 1, 72, 62
3, 167280, Note_on_c, 1, 72, 0
3, 167280, Note_on_c, 1, 67, 0
3, 167280, Note_on_c, 1, 67, 61
3, 167460, Note_on_c, 1, 67, 0
3, 167460, Note_on_c, 1, 67, 45
3, 167460, Note_on_c, 1, 72, 58
3, 167520, Note_on_c, 1, 72, 0
3, 167520, Note_on_c, 1, 67, 0
3, 167520, Note_on_c, 1, 71, 60
3, 167520, Note_on_c, 1, 74, 55
3, 167610, Note_on_c, 1, 74, 0
3, 167610, Note_on_c, 1, 71, 0
3, 167640, Note_on_c, 1, 71, 58
3, 167640, Note_on_c, 1, 74, 46
3, 167730, Note_on_c, 1, 74, 0
3, 167730, Note_on_c, 1, 71, 0
3, 167760, Note_on_c, 1, 71, 59
3, 167760, Note_on_c, 1, 74, 51
3, 167850, Note_on_c, 1, 74, 0
3, 167850, Note_on_c, 1, 71, 0
3, 167880, Note_on_c, 1, 75, 46
3, 167880, Note_on_c, 1, 71, 65
3, 167970, Note_on_c, 1, 71, 0
3, 167970, Note_on_c, 1, 75, 0
3, 168000, Note_on_c, 1, 75, 44
3, 168000, Note_on_c, 1, 71, 58
3, 168240, Note_on_c, 1, 71, 0
3, 168240, Note_on_c, 1, 75, 0
3, 168240, Note_on_c, 1, 76, 52
3, 168240, Note_on_c, 1, 72, 61
3, 168360, Note_on_c, 1, 72, 0
3, 168360, Note_on_c, 1, 76, 0
3, 168420, Note_on_c, 1, 72, 43
3, 168480, Note_on_c, 1, 72, 0
3, 168480, Note_on_c, 1, 77, 85
3, 168480, Note_on_c, 1, 72, 60
3, 168720, Note_on_c, 1, 72, 0
3, 168720, Note_on_c, 1, 77, 0
3, 168720, Note_on_c, 1, 76, 73
3, 168720, Note_on_c, 1, 72, 45
3, 168840, Note_on_c, 1, 72, 0
3, 168840, Note_on_c, 1, 76, 0
3, 168900, Note_on_c, 1, 72, 64
3, 168960, Note_on_c, 1, 72, 0
3, 168960, Note_on_c, 1, 69, 76
3, 168960, Note_on_c, 1, 81, 72
3, 169200, Note_on_c, 1, 81, 0
3, 169200, Note_on_c, 1, 69, 0
3, 169200, Note_on_c, 1, 67, 48
3, 169200, Note_on_c, 1, 79, 57
3, 169320, Note_on_c, 1, 79, 0
3, 169320, Note_on_c, 1, 67, 0
3, 169380, Note_on_c, 1, 77, 49
3, 169380, Note_on_c, 1, 74, 63
3, 169440, Note_on_c, 1, 74, 0
3, 169440, Note_on_c, 1, 77, 0
3, 169440, Note_on_c, 1, 76, 76
3, 169440, Note_on_c, 1, 72, 43
3, 169500, Note_on_c, 1, 72, 0
3, 169500, Note_on_c, 1, 76, 0
3, 169560, Note_on_c, 1, 76, 73
3, 169560, Note_on_c, 1, 72, 53
3, 169620, Note_on_c, 1, 72, 0
3, 169620, Note_on_c, 1, 76, 0
3, 169680, Note_on_c, 1, 76, 73
3, 169680, Note_on_c, 1, 72, 46
3, 169740, Note_on_c, 1, 72, 0
3, 169740, Note_on_c, 1, 76, 0
3, 169740, Note_on_c, 1, 74, 68
3, 169740, Note_on_c, 1, 71, 74
3, 169800, Note_on_c, 1, 71, 0
3, 169800, Note_on_c, 1, 74, 0
3, 169800, Note_on_c, 1, 69, 73
3, 169800, Note_on_c, 1, 72, 43
3, 169860, Note_on_c, 1, 72, 0
3, 169860, Note_on_c, 1, 69, 0
3, 169860, Note_on_c, 1, 74, 67
3, 169860, Note_on_c, 1, 71, 76
3, 169920, Note_on_c, 1, 71, 0
3, 169920, Note_on_c, 1, 74, 0
3, 169920, Note_on_c, 1, 71, 74
3, 169920, Note_on_c, 1, 74, 84
3, 170100, Note_on_c, 1, 74, 0
3, 170100, Note_on_c, 1, 75, 74
3, 170160, Note_on_c, 1, 75, 0
3, 170160, Note_on_c, 1, 71, 0
3, 170160, Note_on_c, 1, 72, 70
3, 170160, Note_on_c, 1, 76, 80
3, 170280, Note_on_c, 1, 76, 0
3, 170280, Note_on_c, 1, 72, 0
3, 173400, Note_on_c, 1, 72, 50
3, 173400, Note_on_c, 1, 79, 43
3, 173490, Note_on_c, 1, 79, 0
3, 173490, Note_on_c, 1, 72, 0
3, 173520, Note_on_c, 1, 72, 45
3, 173520, Note_on_c, 1, 79, 43
3, 173610, Note_on_c, 1, 79, 0
3, 173610, Note_on_c, 1, 72, 0
3, 173640, Note_on_c, 1, 72, 53
3, 173640, Note_on_c, 1, 79, 41
3, 173730, Note_on_c, 1, 79, 0
3, 173730, Note_on_c, 1, 72, 0
3, 173760, Note_on_c, 1, 72, 62
3, 173760, Control_c, 1, 7, 99
3, 173760, Note_on_c, 1, 79, 47
3, 173775, Control_c, 1, 7, 100
3, 173785, Control_c, 1, 7, 101
3, 173800, Control_c, 1, 7, 102
3, 173810, Control_c, 1, 7, 103
3, 173820, Control_c, 1, 7, 104
3, 173835, Control_c, 1, 7, 105
3, 173845, Control_c, 1, 7, 106
3, 173860, Control_c, 1, 7, 107
3, 173870, Control_c, 1, 7, 108
3, 173880, Control_c, 1, 7, 109
3, 173895, Control_c, 1, 7, 110
3, 173905, Control_c, 1, 7, 111
3, 173920, Control_c, 1, 7, 112
3, 173930, Control_c, 1, 7, 113
3, 173940, Control_c, 1, 7, 114
3, 173955, Control_c, 1, 7, 115
3, 173965, Control_c, 1, 7, 116
3, 173980, Control_c, 1, 7, 117
3, 173990, Control_c, 1, 7, 118
3, 174000, Note_on_c, 1, 79, 0
3, 174000, Note_on_c, 1, 72, 0
3, 174000, Control_c, 1, 7, 119
3, 174000, Note_on_c, 1, 77, 62
3, 174000, Note_on_c, 1, 71, 53
3, 174015, Control_c, 1, 7, 118
3, 174025, Control_c, 1, 7, 117
3, 174040, Control_c, 1, 7, 116
3, 174050, Control_c, 1, 7, 115
3, 174060, Control_c, 1, 7, 114
3, 174075, Control_c, 1, 7, 113
3, 174085, Control_c, 1, 7, 112
3, 174100, Control_c, 1, 7, 111
3, 174110, Control_c, 1, 7, 110
3, 174120, Control_c, 1, 7, 109
3, 174135, Control_c, 1, 7, 108
3, 174145, Control_c, 1, 7, 107
3, 174160, Control_c, 1, 7, 106
3, 174170, Control_c, 1, 7, 105
3, 174180, Note_on_c, 1, 71, 0
3, 174180, Note_on_c, 1, 77, 0
3, 174180, Note_on_c, 1, 76, 76
3, 174180, Note_on_c, 1, 72, 46
3, 174180, Control_c, 1, 7, 104
3, 174195, Control_c, 1, 7, 103
3, 174205, Control_c, 1, 7, 102
3, 174220, Control_c, 1, 7, 101
3, 174230, Control_c, 1, 7, 100
3, 174240, Note_on_c, 1, 72, 0
3, 174240, Note_on_c, 1, 76, 0
3, 174240, Control_c, 1, 7, 99
3, 174240, Note_on_c, 1, 74, 68
3, 174240, Note_on_c, 1, 69, 62
3, 174360, Note_on_c, 1, 69, 0
3, 174360, Note_on_c, 1, 74, 0
3, 182820, Note_on_c, 1, 74, 41
3, 182820, Note_on_c, 1, 71, 50
3, 182850, Note_on_c, 1, 71, 0
3, 182850, Note_on_c, 1, 74, 0
3, 182880, Note_on_c, 1, 76, 59
3, 182880, Note_on_c, 1, 72, 40
3, 182940, Note_on_c, 1, 72, 0
3, 182940, Note_on_c, 1, 76, 0
3, 183300, Note_on_c, 1, 74, 45
3, 183300, Note_on_c, 1, 71, 60
3, 183330, Note_on_c, 1, 71, 0
3, 183330, Note_on_c, 1, 74, 0
3, 183360, Note_on_c, 1, 72, 43
3, 183360, Note_on_c, 1, 76, 61
3, 183420, Note_on_c, 1, 76, 0
3, 183420, Note_on_c, 1, 72, 0
3, 184920, Note_on_c, 1, 79, 38
3, 184920, Note_on_c, 1, 71, 44
3, 185010, Note_on_c, 1, 71, 0
3, 185010, Note_on_c, 1, 79, 0
3, 185040, Note_on_c, 1, 79, 40
3, 185040, Note_on_c, 1, 71, 53
3, 185130, Note_on_c, 1, 71, 0
3, 185130, Note_on_c, 1, 79, 0
3, 185160, Note_on_c, 1, 79, 40
3, 185160, Note_on_c, 1, 71, 45
3, 185250, Note_on_c, 1, 71, 0
3, 185250, Note_on_c, 1, 79, 0
3, 185280, Note_on_c, 1, 79, 42
3, 185280, Note_on_c, 1, 72, 50
3, 185880, Note_on_c, 1, 72, 0
3, 185880, Note_on_c, 1, 79, 0
3, 185880, Note_on_c, 1, 79, 40
3, 185880, Note_on_c, 1, 72, 55
3, 185970, Note_on_c, 1, 72, 0
3, 185970, Note_on_c, 1, 79, 0
3, 186000, Note_on_c, 1, 79, 43
3, 186000, Note_on_c, 1, 72, 45
3, 186090, Note_on_c, 1, 72, 0
3, 186090, Note_on_c, 1, 79, 0
3, 186120, Note_on_c, 1, 79, 40
3, 186120, Note_on_c, 1, 72, 61
3, 186210, Note_on_c, 1, 72, 0
3, 186210, Note_on_c, 1, 79, 0
3, 186240, Note_on_c, 1, 81, 67
3, 186240, Note_on_c, 1, 72, 39
3, 186840, Note_on_c, 1, 72, 0
3, 186840, Note_on_c, 1, 81, 0
3, 186840, Note_on_c, 1, 81, 53
3, 186840, Note_on_c, 1, 72, 36
3, 186930, Note_on_c, 1, 72, 0
3, 186930, Note_on_c, 1, 81, 0
3, 186960, Note_on_c, 1, 81, 48
3, 186960, Note_on_c, 1, 72, 33
3, 187050, Note_on_c, 1, 72, 0
3, 187050, Note_on_c, 1, 81, 0
3, 187080, Note_on_c, 1, 81, 45
3, 187080, Note_on_c, 1, 72, 35
3, 187170, Note_on_c, 1, 72, 0
3, 187170, Note_on_c, 1, 81, 0
3, 187200, Note_on_c, 1, 75, 49
3, 187200, Note_on_c, 1, 72, 59
3, 187800, Note_on_c, 1, 72, 0
3, 187800, Note_on_c, 1, 75, 0
3, 187800, Note_on_c, 1, 72, 68
3, 187800, Note_on_c, 1, 75, 61
3, 187860, Note_on_c, 1, 75, 0
3, 187860, Note_on_c, 1, 72, 0
3, 187920, Note_on_c, 1, 75, 71
3, 187920, Note_on_c, 1, 72, 29
3, 188010, Note_on_c, 1, 72, 0
3, 188010, Note_on_c, 1, 75, 0
3, 188040, Note_on_c, 1, 75, 80
3, 188040, Note_on_c, 1, 72, 29
3, 188130, Note_on_c, 1, 72, 0
3, 188130, Note_on_c, 1, 75, 0
3, 188160, Note_on_c, 1, 72, 44
3, 188160, Note_on_c, 1, 76, 81
3, 188280, Note_on_c, 1, 76, 0
3, 188280, Note_on_c, 1, 72, 0
3, 192000, Note_on_c, 1, 77, 51
3, 192000, Note_on_c, 1, 71, 57
3, 192000, Control_c, 1, 7, 99
3, 192025, Control_c, 1, 7, 100
3, 192045, Control_c, 1, 7, 101
3, 192070, Control_c, 1, 7, 102
3, 192090, Control_c, 1, 7, 103
3, 192110, Control_c, 1, 7, 104
3, 192135, Control_c, 1, 7, 105
3, 192155, Control_c, 1, 7, 106
3, 192175, Control_c, 1, 7, 107
3, 192200, Control_c, 1, 7, 108
3, 192220, Control_c, 1, 7, 109
3, 192240, Control_c, 1, 7, 110
3, 192265, Control_c, 1, 7, 111
3, 192285, Control_c, 1, 7, 112
3, 192310, Control_c, 1, 7, 113
3, 192330, Control_c, 1, 7, 114
3, 192350, Control_c, 1, 7, 115
3, 192375, Control_c, 1, 7, 116
3, 192395, Control_c, 1, 7, 117
3, 192415, Control_c, 1, 7, 118
3, 192440, Control_c, 1, 7, 119
3, 192460, Control_c, 1, 7, 120
3, 192480, Control_c, 1, 7, 121
3, 192505, Control_c, 1, 7, 120
3, 192525, Control_c, 1, 7, 119
3, 192550, Control_c, 1, 7, 118
3, 192570, Control_c, 1, 7, 117
3, 192590, Control_c, 1, 7, 116
3, 192615, Control_c, 1, 7, 115
3, 192635, Control_c, 1, 7, 114
3, 192655, Control_c, 1, 7, 113
3, 192680, Control_c, 1, 7, 112
3, 192700, Control_c, 1, 7, 111
3, 192720, Control_c, 1, 7, 110
3, 192745, Control_c, 1, 7, 109
3, 192765, Control_c, 1, 7, 108
3, 192790, Control_c, 1, 7, 107
3, 192810, Control_c, 1, 7, 106
3, 192830, Control_c, 1, 7, 105
3, 192855, Control_c, 1, 7, 104
3, 192875, Control_c, 1, 7, 103
3, 192895, Control_c, 1, 7, 102
3, 192920, Control_c, 1, 7, 101
3, 192940, Control_c, 1, 7, 100
3, 192960, Note_on_c, 1, 71, 0
3, 192960, Note_on_c, 1, 77, 0
3, 192960, Control_c, 1, 7, 99
3, 196920, Note_on_c, 1, 77, 71
3, 196920, Note_on_c, 1, 80, 66
3, 196980, Note_on_c, 1, 80, 0
3, 196980, Note_on_c, 1, 77, 0
3, 197040, Note_on_c, 1, 75, 84
3, 197040, Note_on_c, 1, 79, 45
3, 197100, Note_on_c, 1, 79, 0
3, 197100, Note_on_c, 1, 75, 0
3, 197160, Note_on_c, 1, 74, 72
3, 197160, Note_on_c, 1, 77, 77
3, 197220, Note_on_c, 1, 77, 0
3, 197220, Note_on_c, 1, 74, 0
3, 197280, Note_on_c, 1, 72, 72
3, 197280, Note_on_c, 1, 75, 84
3, 197520, Note_on_c, 1, 75, 0
3, 197520, Note_on_c, 1, 72, 0
3, 197520, Note_on_c, 1, 78, 74
3, 197520, Note_on_c, 1, 66, 73
3, 197760, Note_on_c, 1, 66, 0
3, 197760, Note_on_c, 1, 78, 0
3, 197760, Note_on_c, 1, 79, 86
3, 197760, Note_on_c, 1, 67, 50
3, 198000, Note_on_c, 1, 67, 0
3, 198000, Note_on_c, 1, 79, 0
3, 198000, Note_on_c, 1, 69, 82
3, 198000, Note_on_c, 1, 81, 76
3, 198240, Note_on_c, 1, 81, 0
3, 198240, Note_on_c, 1, 69, 0
3, 198240, Note_on_c, 1, 79, 80
3, 198240, Note_on_c, 1, 67, 74
3, 198480, Note_on_c, 1, 67, 0
3, 198480, Note_on_c, 1, 79, 0
3, 198480, Note_on_c, 1, 78, 74
3, 198480, Note_on_c, 1, 66, 74
3, 198720, Note_on_c, 1, 66, 0
3, 198720, Note_on_c, 1, 78, 0
3, 198720, Note_on_c, 1, 67, 77
3, 198720, Note_on_c, 1, 79, 77
3, 198960, Note_on_c, 1, 79, 0
3, 198960, Note_on_c, 1, 67, 0
3, 198960, Note_on_c, 1, 81, 84
3, 198960, Note_on_c, 1, 69, 80
3, 199200, Note_on_c, 1, 69, 0
3, 199200, Note_on_c, 1, 81, 0
3, 199200, Note_on_c, 1, 67, 80
3, 199200, Note_on_c, 1, 79, 80
3, 199440, Note_on_c, 1, 79, 0
3, 199440, Note_on_c, 1, 67, 0
3, 256320, Note_on_c, 1, 84, 69
3, 256320, Note_on_c, 1, 75, 80
3, 256800, Note_on_c, 1, 75, 0
3, 256800, Note_on_c, 1, 84, 0
3, 256800, Note_on_c, 1, 77, 86
3, 256800, Note_on_c, 1, 86, 73
3, 257040, Note_on_c, 1, 86, 0
3, 257040, Note_on_c, 1, 77, 0
3, 257040, Note_on_c, 1, 83, 76
3, 257040, Note_on_c, 1, 74, 85
3, 257280, Note_on_c, 1, 74, 0
3, 257280, Note_on_c, 1, 83, 0
3, 257280, Note_on_c, 1, 84, 68
3, 257280, Note_on_c, 1, 75, 80
3, 257400, Note_on_c, 1, 75, 0
3, 257400, Note_on_c, 1, 84, 0
3, 257520, Note_on_c, 1, 75, 82
3, 257520, Note_on_c, 1, 72, 60
3, 257580, Note_on_c, 1, 72, 0
3, 257580, Note_on_c, 1, 75, 0
3, 258000, Note_on_c, 1, 75, 76
3, 258000, Note_on_c, 1, 84, 65
3, 258060, Note_on_c, 1, 84, 0
3, 258060, Note_on_c, 1, 75, 0
3, 258480, Note_on_c, 1, 72, 86
3, 258600, Note_on_c, 1, 72, 0
3, 258720, Note_on_c, 1, 79, 95
3, 258840, Note_on_c, 1, 79, 0
3, 258960, Note_on_c, 1, 75, 94
3, 259080, Note_on_c, 1, 75, 0
3, 259200, Note_on_c, 1, 72, 89
3, 259320, Note_on_c, 1, 72, 0
3, 259650, Note_on_c, 1, 72, 84
3, 259680, Note_on_c, 1, 72, 0
3, 259680, Note_on_c, 1, 72, 81
3, 259800, Note_on_c, 1, 72, 0
3, 260130, Note_on_c, 1, 72, 89
3, 260160, Note_on_c, 1, 72, 0
3, 260160, Note_on_c, 1, 72, 93
3, 260640, Note_on_c, 1, 72, 0
3, 260640, End_track
4, 0, Start_track
4, 0, MIDI_port, 0
4, 0, Title_t, "Clarinets"
4, 0, Program_c, 2, 71
4, 0, Control_c, 2, 7, 100
4, 0, Control_c, 2, 10, 49
4, 0, Control_c, 2, 93, 0
4, 0, Control_c, 2, 91, 66
4, 4440, Note_on_c, 2, 72, 35
4, 4440, Note_on_c, 2, 63, 65
4, 4680, Note_on_c, 2, 63, 0
4, 4680, Note_on_c, 2, 72, 0
4, 4680, Note_on_c, 2, 72, 42
4, 4680, Note_on_c, 2, 63, 39
4, 4800, Note_on_c, 2, 63, 0
4, 4800, Note_on_c, 2, 72, 0
4, 4800, Note_on_c, 2, 72, 29
4, 4800, Note_on_c, 2, 68, 57
4, 5040, Note_on_c, 2, 68, 0
4, 5040, Note_on_c, 2, 72, 0
4, 5400, Note_on_c, 2, 77, 63
4, 5400, Note_on_c, 2, 68, 73
4, 5640, Note_on_c, 2, 68, 0
4, 5640, Note_on_c, 2, 77, 0
4, 5640, Note_on_c, 2, 77, 50
4, 5640, Note_on_c, 2, 68, 45
4, 5760, Note_on_c, 2, 68, 0
4, 5760, Note_on_c, 2, 77, 0
4, 5760, Note_on_c, 2, 77, 47
4, 5760, Note_on_c, 2, 67, 55
4, 6000, Note_on_c, 2, 67, 0
4, 6000, Note_on_c, 2, 77, 0
4, 6360, Note_on_c, 2, 74, 94
4, 6360, Note_on_c, 2, 71, 73
4, 6600, Note_on_c, 2, 71, 0
4, 6600, Note_on_c, 2, 74, 0
4, 6600, Note_on_c, 2, 74, 57
4, 6600, Note_on_c, 2, 71, 43
4, 6720, Note_on_c, 2, 71, 0
4, 6720, Note_on_c, 2, 74, 0
4, 6720, Note_on_c, 2, 75, 73
4, 6780, Note_on_c, 2, 75, 0
4, 6840, Note_on_c, 2, 77, 71
4, 6840, Note_on_c, 2, 68, 76
4, 6900, Note_on_c, 2, 68, 0
4, 6900, Note_on_c, 2, 77, 0
4, 6960, Note_on_c, 2, 75, 77
4, 6960, Note_on_c, 2, 67, 95
4, 7020, Note_on_c, 2, 67, 0
4, 7020, Note_on_c, 2, 75, 0
4, 7080, Note_on_c, 2, 74, 76
4, 7080, Note_on_c, 2, 71, 89
4, 7140, Note_on_c, 2, 71, 0
4, 7140, Note_on_c, 2, 74, 0
4, 7200, Note_on_c, 2, 72, 69
4, 7200, Note_on_c, 2, 63, 84
4, 7320, Note_on_c, 2, 63, 0
4, 7320, Note_on_c, 2, 72, 0
4, 10560, Note_on_c, 2, 65, 53
4, 10560, Note_on_c, 2, 62, 51
4, 10680, Note_on_c, 2, 62, 0
4, 10680, Note_on_c, 2, 65, 0
4, 10800, Note_on_c, 2, 65, 42
4, 10800, Note_on_c, 2, 62, 43
4, 10920, Note_on_c, 2, 62, 0
4, 10920, Note_on_c, 2, 65, 0
4, 11040, Note_on_c, 2, 67, 76
4, 11040, Note_on_c, 2, 63, 84
4, 11160, Note_on_c, 2, 63, 0
4, 11160, Note_on_c, 2, 67, 0
4, 12000, Note_on_c, 2, 67, 84
4, 12000, Note_on_c, 2, 75, 61
4, 12600, Note_on_c, 2, 75, 0
4, 12600, Note_on_c, 2, 67, 0
4, 12600, Note_on_c, 2, 75, 62
4, 12600, Note_on_c, 2, 67, 60
4, 12720, Note_on_c, 2, 67, 0
4, 12720, Note_on_c, 2, 75, 0
4, 12720, Note_on_c, 2, 75, 46
4, 12720, Note_on_c, 2, 67, 64
4, 12840, Note_on_c, 2, 67, 0
4, 12840, Note_on_c, 2, 75, 0
4, 12840, Note_on_c, 2, 75, 54
4, 12840, Note_on_c, 2, 67, 56
4, 12960, Note_on_c, 2, 67, 0
4, 12960, Note_on_c, 2, 75, 0
4, 12960, Note_on_c, 2, 77, 40
4, 12960, Note_on_c, 2, 68, 82
4, 13140, Note_on_c, 2, 68, 0
4, 13140, Note_on_c, 2, 77, 0
4, 13200, Note_on_c, 2, 68, 84
4, 13380, Note_on_c, 2, 68, 0
4, 13440, Note_on_c, 2, 72, 69
4, 13620, Note_on_c, 2, 72, 0
4, 13620, Note_on_c, 2, 70, 90
4, 13650, Note_on_c, 2, 70, 0
4, 13680, Note_on_c, 2, 68, 90
4, 13740, Note_on_c, 2, 68, 0
4, 13800, Note_on_c, 2, 67, 86
4, 13860, Note_on_c, 2, 67, 0
4, 13920, Note_on_c, 2, 68, 84
4, 13920, Note_on_c, 2, 65, 71
4, 14520, Note_on_c, 2, 65, 0
4, 14520, Note_on_c, 2, 68, 0
4, 14520, Note_on_c, 2, 68, 84
4, 14520, Note_on_c, 2, 65, 78
4, 14640, Note_on_c, 2, 65, 0
4, 14640, Note_on_c, 2, 68, 0
4, 14640, Note_on_c, 2, 68, 86
4, 14640, Note_on_c, 2, 65, 76
4, 14760, Note_on_c, 2, 65, 0
4, 14760, Note_on_c, 2, 68, 0
4, 14760, Note_on_c, 2, 68, 84
4, 14760, Note_on_c, 2, 65, 77
4, 14880, Note_on_c, 2, 65, 0
4, 14880, Note_on_c, 2, 68, 0
4, 14880, Note_on_c, 2, 67, 95
4, 15120, Note_on_c, 2, 67, 0
4, 15120, Note_on_c, 2, 70, 94
4, 15360, Note_on_c, 2, 70, 0
4, 15360, Note_on_c, 2, 73, 84
4, 15720, Note_on_c, 2, 73, 0
4, 15720, Note_on_c, 2, 67, 90
4, 15840, Note_on_c, 2, 67, 0
4, 15840, Note_on_c, 2, 68, 86
4, 16080, Note_on_c, 2, 68, 0
4, 16080, Note_on_c, 2, 72, 81
4, 16320, Note_on_c, 2, 72, 0
4, 16320, Note_on_c, 2, 75, 94
4, 16680, Note_on_c, 2, 75, 0
4, 16680, Note_on_c, 2, 69, 94
4, 16800, Note_on_c, 2, 69, 0
4, 16800, Note_on_c, 2, 70, 86
4, 16920, Note_on_c, 2, 70, 0
4, 18840, Note_on_c, 2, 82, 74
4, 18840, Note_on_c, 2, 70, 85
4, 19320, Note_on_c, 2, 70, 0
4, 19320, Note_on_c, 2, 82, 0
4, 19320, Note_on_c, 2, 82, 77
4, 19320, Note_on_c, 2, 70, 89
4, 19800, Note_on_c, 2, 70, 0
4, 19800, Note_on_c, 2, 82, 0
4, 19800, Note_on_c, 2, 82, 78
4, 19800, Note_on_c, 2, 70, 94
4, 20280, Note_on_c, 2, 70, 0
4, 20280, Note_on_c, 2, 82, 0
4, 20280, Note_on_c, 2, 82, 73
4, 20280, Note_on_c, 2, 70, 89
4, 20400, Note_on_c, 2, 70, 0
4, 20400, Note_on_c, 2, 82, 0
4, 20400, Note_on_c, 2, 82, 50
4, 20400, Note_on_c, 2, 70, 65
4, 20520, Note_on_c, 2, 70, 0
4, 20520, Note_on_c, 2, 82, 0
4, 20520, Note_on_c, 2, 82, 43
4, 20520, Note_on_c, 2, 70, 50
4, 20640, Note_on_c, 2, 70, 0
4, 20640, Note_on_c, 2, 82, 0
4, 20640, Note_on_c, 2, 82, 47
4, 20640, Note_on_c, 2, 70, 55
4, 20760, Note_on_c, 2, 70, 0
4, 20760, Note_on_c, 2, 82, 0
4, 21720, Note_on_c, 2, 78, 74
4, 21720, Note_on_c, 2, 75, 73
4, 21840, Note_on_c, 2, 75, 0
4, 21840, Note_on_c, 2, 78, 0
4, 21840, Note_on_c, 2, 77, 58
4, 21840, Note_on_c, 2, 74, 82
4, 21960, Note_on_c, 2, 74, 0
4, 21960, Note_on_c, 2, 77, 0
4, 21960, Note_on_c, 2, 75, 43
4, 21960, Note_on_c, 2, 69, 70
4, 22020, Note_on_c, 2, 69, 0
4, 22020, Note_on_c, 2, 75, 0
4, 22080, Note_on_c, 2, 74, 52
4, 22080, Note_on_c, 2, 70, 59
4, 22140, Note_on_c, 2, 70, 0
4, 22140, Note_on_c, 2, 74, 0
4, 22200, Note_on_c, 2, 78, 67
4, 22200, Note_on_c, 2, 75, 98
4, 22320, Note_on_c, 2, 75, 0
4, 22320, Note_on_c, 2, 78, 0
4, 22320, Note_on_c, 2, 77, 52
4, 22320, Note_on_c, 2, 74, 77
4, 22440, Note_on_c, 2, 74, 0
4, 22440, Note_on_c, 2, 77, 0
4, 22440, Note_on_c, 2, 81, 61
4, 22440, Note_on_c, 2, 75, 64
4, 22500, Note_on_c, 2, 75, 0
4, 22500, Note_on_c, 2, 81, 0
4, 22560, Note_on_c, 2, 82, 68
4, 22560, Note_on_c, 2, 74, 94
4, 22680, Control_c, 2, 7, 99
4, 22685, Control_c, 2, 7, 97
4, 22690, Control_c, 2, 7, 94
4, 22695, Control_c, 2, 7, 91
4, 22700, Control_c, 2, 7, 88
4, 22705, Control_c, 2, 7, 85
4, 22710, Control_c, 2, 7, 82
4, 22715, Control_c, 2, 7, 79
4, 22720, Control_c, 2, 7, 76
4, 22725, Control_c, 2, 7, 73
4, 22730, Control_c, 2, 7, 70
4, 22735, Control_c, 2, 7, 67
4, 22740, Control_c, 2, 7, 64
4, 23040, Note_on_c, 2, 74, 0
4, 23040, Note_on_c, 2, 82, 0
4, 23040, Control_c, 2, 7, 65
4, 23040, Note_on_c, 2, 81, 80
4, 23040, Note_on_c, 2, 75, 76
4, 23050, Control_c, 2, 7, 66
4, 23060, Control_c, 2, 7, 67
4, 23070, Control_c, 2, 7, 68
4, 23080, Control_c, 2, 7, 69
4, 23090, Control_c, 2, 7, 70
4, 23100, Control_c, 2, 7, 71
4, 23105, Control_c, 2, 7, 72
4, 23115, Control_c, 2, 7, 73
4, 23125, Control_c, 2, 7, 74
4, 23135, Control_c, 2, 7, 75
4, 23145, Control_c, 2, 7, 76
4, 23155, Control_c, 2, 7, 77
4, 23160, Control_c, 2, 7, 78
4, 23170, Control_c, 2, 7, 79
4, 23180, Control_c, 2, 7, 80
4, 23190, Control_c, 2, 7, 81
4, 23200, Control_c, 2, 7, 82
4, 23210, Control_c, 2, 7, 83
4, 23220, Control_c, 2, 7, 84
4, 23225, Control_c, 2, 7, 85
4, 23235, Control_c, 2, 7, 86
4, 23245, Control_c, 2, 7, 87
4, 23255, Control_c, 2, 7, 88
4, 23265, Control_c, 2, 7, 89
4, 23275, Control_c, 2, 7, 90
4, 23280, Note_on_c, 2, 75, 0
4, 23280, Note_on_c, 2, 81, 0
4, 23280, Note_on_c, 2, 80, 72
4, 23280, Note_on_c, 2, 77, 77
4, 23280, Control_c, 2, 7, 91
4, 23290, Control_c, 2, 7, 90
4, 23300, Control_c, 2, 7, 89
4, 23310, Control_c, 2, 7, 88
4, 23320, Control_c, 2, 7, 87
4, 23330, Control_c, 2, 7, 86
4, 23340, Control_c, 2, 7, 85
4, 23350, Control_c, 2, 7, 84
4, 23360, Control_c, 2, 7, 83
4, 23370, Control_c, 2, 7, 82
4, 23380, Control_c, 2, 7, 81
4, 23390, Control_c, 2, 7, 80
4, 23400, Control_c, 2, 7, 79
4, 23410, Control_c, 2, 7, 78
4, 23420, Control_c, 2, 7, 77
4, 23430, Control_c, 2, 7, 76
4, 23440, Control_c, 2, 7, 75
4, 23450, Control_c, 2, 7, 74
4, 23460, Control_c, 2, 7, 73
4, 23470, Control_c, 2, 7, 72
4, 23480, Control_c, 2, 7, 71
4, 23490, Control_c, 2, 7, 70
4, 23500, Control_c, 2, 7, 69
4, 23520, Note_on_c, 2, 77, 0
4, 23520, Note_on_c, 2, 80, 0
4, 23520, Control_c, 2, 7, 84
4, 23520, Note_on_c, 2, 79, 45
4, 23520, Note_on_c, 2, 70, 80
4, 23760, Note_on_c, 2, 70, 0
4, 23760, Note_on_c, 2, 79, 0
4, 23760, Note_on_c, 2, 68, 74
4, 23760, Note_on_c, 2, 77, 76
4, 23820, Note_on_c, 2, 77, 0
4, 23820, Note_on_c, 2, 79, 80
4, 23880, Note_on_c, 2, 79, 0
4, 23880, Note_on_c, 2, 80, 80
4, 23940, Note_on_c, 2, 80, 0
4, 23940, Note_on_c, 2, 77, 80
4, 24000, Note_on_c, 2, 77, 0
4, 24000, Note_on_c, 2, 68, 0
4, 24000, Note_on_c, 2, 75, 73
4, 24000, Note_on_c, 2, 67, 90
4, 24240, Note_on_c, 2, 67, 0
4, 24240, Note_on_c, 2, 75, 0
4, 24240, Note_on_c, 2, 70, 57
4, 24240, Note_on_c, 2, 67, 61
4, 24420, Note_on_c, 2, 67, 0
4, 24420, Note_on_c, 2, 70, 0
4, 24420, Note_on_c, 2, 75, 74
4, 24420, Note_on_c, 2, 67, 89
4, 24480, Note_on_c, 2, 67, 0
4, 24480, Note_on_c, 2, 75, 0
4, 24480, Note_on_c, 2, 77, 63
4, 24480, Note_on_c, 2, 74, 81
4, 24570, Note_on_c, 2, 74, 0
4, 24570, Note_on_c, 2, 77, 0
4, 24600, Note_on_c, 2, 77, 61
4, 24600, Note_on_c, 2, 74, 84
4, 24690, Note_on_c, 2, 74, 0
4, 24690, Note_on_c, 2, 77, 0
4, 24720, Note_on_c, 2, 77, 61
4, 24720, Note_on_c, 2, 74, 81
4, 24810, Note_on_c, 2, 74, 0
4, 24810, Note_on_c, 2, 77, 0
4, 24840, Note_on_c, 2, 78, 57
4, 24840, Note_on_c, 2, 74, 94
4, 24930, Note_on_c, 2, 74, 0
4, 24930, Note_on_c, 2, 78, 0
4, 24960, Note_on_c, 2, 78, 64
4, 24960, Note_on_c, 2, 74, 98
4, 25200, Note_on_c, 2, 74, 0
4, 25200, Note_on_c, 2, 78, 0
4, 25200, Note_on_c, 2, 79, 63
4, 25200, Note_on_c, 2, 75, 77
4, 25320, Note_on_c, 2, 75, 0
4, 25320, Note_on_c, 2, 79, 0
4, 25380, Note_on_c, 2, 75, 80
4, 25440, Note_on_c, 2, 75, 0
4, 25440, Note_on_c, 2, 80, 82
4, 25440, Note_on_c, 2, 75, 80
4, 25680, Note_on_c, 2, 80, 0
4, 25680, Note_on_c, 2, 79, 76
4, 25800, Note_on_c, 2, 79, 0
4, 25800, Note_on_c, 2, 75, 0
4, 25860, Note_on_c, 2, 75, 86
4, 25920, Note_on_c, 2, 75, 0
4, 25920, Note_on_c, 2, 84, 71
4, 25920, Note_on_c, 2, 75, 85
4, 26160, Note_on_c, 2, 75, 0
4, 26160, Note_on_c, 2, 84, 0
4, 26160, Note_on_c, 2, 82, 68
4, 26160, Note_on_c, 2, 75, 85
4, 26220, Note_on_c, 2, 75, 0
4, 26220, Note_on_c, 2, 82, 0
4, 26280, Note_on_c, 2, 76, 86
4, 26280, Note_on_c, 2, 82, 76
4, 26400, Note_on_c, 2, 82, 0
4, 26400, Note_on_c, 2, 76, 0
4, 26400, Note_on_c, 2, 81, 77
4, 26400, Note_on_c, 2, 77, 80
4, 26520, Note_on_c, 2, 77, 0
4, 26520, Note_on_c, 2, 81, 0
4, 26520, Note_on_c, 2, 80, 78
4, 26520, Note_on_c, 2, 74, 89
4, 26640, Note_on_c, 2, 74, 0
4, 26640, Note_on_c, 2, 80, 0
4, 26640, Note_on_c, 2, 79, 73
4, 26640, Note_on_c, 2, 75, 84
4, 26760, Note_on_c, 2, 75, 0
4, 26760, Note_on_c, 2, 79, 0
4, 26760, Note_on_c, 2, 72, 48
4, 26760, Note_on_c, 2, 84, 67
4, 26880, Note_on_c, 2, 84, 0
4, 26880, Note_on_c, 2, 72, 0
4, 26880, Note_on_c, 2, 75, 76
4, 26880, Note_on_c, 2, 67, 89
4, 27120, Note_on_c, 2, 67, 0
4, 27120, Note_on_c, 2, 75, 0
4, 27120, Note_on_c, 2, 74, 78
4, 27120, Note_on_c, 2, 65, 80
4, 27180, Note_on_c, 2, 65, 0
4, 27180, Note_on_c, 2, 74, 0
4, 27180, Note_on_c, 2, 72, 45
4, 27180, Note_on_c, 2, 68, 77
4, 27240, Note_on_c, 2, 68, 0
4, 27240, Note_on_c, 2, 72, 0
4, 27240, Note_on_c, 2, 70, 80
4, 27240, Note_on_c, 2, 67, 68
4, 27300, Note_on_c, 2, 67, 0
4, 27300, Note_on_c, 2, 70, 0
4, 27300, Note_on_c, 2, 65, 78
4, 27300, Note_on_c, 2, 68, 80
4, 27360, Note_on_c, 2, 68, 0
4, 27360, Note_on_c, 2, 65, 0
4, 27360, Note_on_c, 2, 67, 62
4, 27360, Note_on_c, 2, 63, 53
4, 27480, Note_on_c, 2, 63, 0
4, 27480, Note_on_c, 2, 67, 0
4, 27600, Control_c, 2, 7, 99
4, 33120, Note_on_c, 2, 72, 61
4, 33120, Note_on_c, 2, 65, 61
4, 33360, Note_on_c, 2, 65, 0
4, 33360, Note_on_c, 2, 63, 63
4, 33600, Note_on_c, 2, 63, 0
4, 33600, Note_on_c, 2, 68, 71
4, 33840, Note_on_c, 2, 68, 0
4, 33840, Note_on_c, 2, 67, 73
4, 34080, Note_on_c, 2, 67, 0
4, 34080, Note_on_c, 2, 66, 76
4, 34320, Note_on_c, 2, 66, 0
4, 34320, Note_on_c, 2, 72, 0
4, 34320, Note_on_c, 2, 71, 61
4, 34320, Note_on_c, 2, 65, 89
4, 34560, Note_on_c, 2, 65, 0
4, 34560, Note_on_c, 2, 71, 0
4, 34560, Note_on_c, 2, 72, 61
4, 34560, Note_on_c, 2, 63, 85
4, 34620, Note_on_c, 2, 63, 0
4, 34620, Note_on_c, 2, 72, 0
4, 34680, Note_on_c, 2, 74, 84
4, 34680, Note_on_c, 2, 65, 90
4, 34740, Note_on_c, 2, 65, 0
4, 34740, Note_on_c, 2, 74, 0
4, 34800, Note_on_c, 2, 72, 47
4, 34800, Note_on_c, 2, 63, 81
4, 34860, Note_on_c, 2, 63, 0
4, 34860, Note_on_c, 2, 72, 0
4, 34920, Note_on_c, 2, 71, 73
4, 34920, Note_on_c, 2, 62, 84
4, 34980, Note_on_c, 2, 62, 0
4, 34980, Note_on_c, 2, 71, 0
4, 35040, Note_on_c, 2, 72, 61
4, 35040, Note_on_c, 2, 60, 81
4, 35160, Note_on_c, 2, 60, 0
4, 35160, Note_on_c, 2, 72, 0
4, 37920, Note_on_c, 2, 71, 73
4, 37920, Note_on_c, 2, 62, 80
4, 38160, Note_on_c, 2, 62, 0
4, 38160, Note_on_c, 2, 71, 0
4, 38160, Note_on_c, 2, 74, 85
4, 38160, Note_on_c, 2, 71, 95
4, 38400, Note_on_c, 2, 71, 0
4, 38400, Note_on_c, 2, 74, 0
4, 38400, Note_on_c, 2, 77, 84
4, 38400, Note_on_c, 2, 74, 94
4, 38580, Note_on_c, 2, 74, 0
4, 38580, Note_on_c, 2, 77, 0
4, 38580, Note_on_c, 2, 75, 89
4, 38580, Note_on_c, 2, 72, 48
4, 38610, Note_on_c, 2, 72, 0
4, 38610, Note_on_c, 2, 75, 0
4, 38640, Note_on_c, 2, 74, 78
4, 38640, Note_on_c, 2, 71, 78
4, 38700, Note_on_c, 2, 71, 0
4, 38700, Note_on_c, 2, 74, 0
4, 38760, Note_on_c, 2, 72, 55
4, 38760, Note_on_c, 2, 68, 84
4, 38820, Note_on_c, 2, 68, 0
4, 38820, Note_on_c, 2, 72, 0
4, 38880, Note_on_c, 2, 71, 86
4, 38880, Note_on_c, 2, 67, 84
4, 38940, Note_on_c, 2, 67, 0
4, 38940, Note_on_c, 2, 71, 0
4, 39000, Note_on_c, 2, 68, 90
4, 39000, Note_on_c, 2, 65, 72
4, 39060, Note_on_c, 2, 65, 0
4, 39060, Note_on_c, 2, 68, 0
4, 39120, Note_on_c, 2, 67, 81
4, 39120, Note_on_c, 2, 63, 77
4, 39180, Note_on_c, 2, 63, 0
4, 39180, Note_on_c, 2, 67, 0
4, 39240, Note_on_c, 2, 65, 84
4, 39240, Note_on_c, 2, 62, 77
4, 39300, Note_on_c, 2, 62, 0
4, 39300, Note_on_c, 2, 65, 0
4, 39360, Note_on_c, 2, 63, 84
4, 39360, Note_on_c, 2, 60, 94
4, 39480, Note_on_c, 2, 60, 0
4, 39480, Note_on_c, 2, 63, 0
4, 39480, Note_on_c, 2, 72, 62
4, 39480, Note_on_c, 2, 63, 77
4, 39600, Note_on_c, 2, 63, 0
4, 39600, Note_on_c, 2, 72, 0
4, 39720, Note_on_c, 2, 68, 94
4, 39720, Note_on_c, 2, 65, 81
4, 39840, Note_on_c, 2, 65, 0
4, 39840, Note_on_c, 2, 68, 0
4, 39960, Note_on_c, 2, 67, 84
4, 39960, Note_on_c, 2, 63, 84
4, 40080, Note_on_c, 2, 63, 0
4, 40080, Note_on_c, 2, 67, 0
4, 40200, Note_on_c, 2, 71, 89
4, 40200, Note_on_c, 2, 62, 94
4, 40320, Note_on_c, 2, 62, 0
4, 40320, Note_on_c, 2, 71, 0
4, 40320, Note_on_c, 2, 72, 68
4, 40320, Note_on_c, 2, 63, 89
4, 40440, Note_on_c, 2, 63, 0
4, 40440, Note_on_c, 2, 72, 0
4, 40440, Note_on_c, 2, 67, 44
4, 40530, Note_on_c, 2, 67, 0
4, 40560, Note_on_c, 2, 67, 55
4, 40650, Note_on_c, 2, 67, 0
4, 40680, Note_on_c, 2, 67, 55
4, 40770, Note_on_c, 2, 67, 0
4, 40800, Note_on_c, 2, 67, 60
4, 41040, Note_on_c, 2, 67, 0
4, 41040, Note_on_c, 2, 71, 54
4, 41040, Note_on_c, 2, 67, 68
4, 41220, Note_on_c, 2, 67, 0
4, 41220, Note_on_c, 2, 71, 0
4, 41220, Note_on_c, 2, 72, 65
4, 41220, Note_on_c, 2, 67, 61
4, 41280, Note_on_c, 2, 67, 0
4, 41280, Note_on_c, 2, 72, 0
4, 41280, Note_on_c, 2, 68, 57
4, 41280, Note_on_c, 2, 65, 53
4, 41400, Note_on_c, 2, 65, 0
4, 41400, Note_on_c, 2, 68, 0
4, 42360, Note_on_c, 2, 72, 65
4, 42360, Note_on_c, 2, 67, 61
4, 42450, Note_on_c, 2, 67, 0
4, 42450, Note_on_c, 2, 72, 0
4, 42480, Note_on_c, 2, 72, 67
4, 42480, Note_on_c, 2, 67, 68
4, 42570, Note_on_c, 2, 67, 0
4, 42570, Note_on_c, 2, 72, 0
4, 42600, Note_on_c, 2, 72, 65
4, 42600, Note_on_c, 2, 67, 64
4, 42690, Note_on_c, 2, 67, 0
4, 42690, Note_on_c, 2, 72, 0
4, 42720, Note_on_c, 2, 72, 72
4, 42720, Note_on_c, 2, 67, 59
4, 42960, Note_on_c, 2, 67, 0
4, 42960, Note_on_c, 2, 72, 0
4, 42960, Note_on_c, 2, 71, 61
4, 42960, Note_on_c, 2, 67, 66
4, 43140, Note_on_c, 2, 67, 0
4, 43140, Note_on_c, 2, 71, 0
4, 43140, Note_on_c, 2, 72, 70
4, 43140, Note_on_c, 2, 67, 63
4, 43200, Note_on_c, 2, 67, 0
4, 43200, Note_on_c, 2, 72, 0
4, 43200, Note_on_c, 2, 77, 72
4, 43200, Note_on_c, 2, 72, 65
4, 43440, Note_on_c, 2, 72, 0
4, 43440, Note_on_c, 2, 77, 0
4, 43440, Note_on_c, 2, 76, 73
4, 43440, Note_on_c, 2, 72, 82
4, 43620, Note_on_c, 2, 72, 0
4, 43620, Note_on_c, 2, 76, 0
4, 43620, Note_on_c, 2, 77, 76
4, 43620, Note_on_c, 2, 72, 74
4, 43680, Note_on_c, 2, 72, 0
4, 43680, Note_on_c, 2, 77, 0
4, 43680, Note_on_c, 2, 74, 50
4, 43680, Note_on_c, 2, 71, 57
4, 43800, Note_on_c, 2, 71, 0
4, 43800, Note_on_c, 2, 74, 0
4, 44160, Note_on_c, 2, 74, 74
4, 44160, Note_on_c, 2, 71, 49
4, 44400, Note_on_c, 2, 71, 0
4, 44400, Note_on_c, 2, 74, 0
4, 44400, Note_on_c, 2, 75, 54
4, 44400, Note_on_c, 2, 72, 59
4, 44580, Note_on_c, 2, 72, 0
4, 44580, Note_on_c, 2, 75, 0
4, 44580, Note_on_c, 2, 77, 51
4, 44580, Note_on_c, 2, 74, 72
4, 44640, Note_on_c, 2, 74, 0
4, 44640, Note_on_c, 2, 77, 0
4, 44640, Note_on_c, 2, 77, 50
4, 44640, Note_on_c, 2, 74, 70
4, 45120, Note_on_c, 2, 74, 0
4, 45120, Note_on_c, 2, 77, 0
4, 45120, Note_on_c, 2, 76, 82
4, 45120, Note_on_c, 2, 74, 80
4, 45600, Note_on_c, 2, 74, 0
4, 45600, Note_on_c, 2, 76, 0
4, 45600, Note_on_c, 2, 72, 76
4, 46080, Note_on_c, 2, 72, 0
4, 46080, Note_on_c, 2, 72, 65
4, 46320, Note_on_c, 2, 72, 0
4, 46320, Note_on_c, 2, 71, 69
4, 46560, Note_on_c, 2, 71, 0
4, 46560, Note_on_c, 2, 72, 65
4, 46680, Note_on_c, 2, 72, 0
4, 47040, Note_on_c, 2, 68, 90
4, 47220, Note_on_c, 2, 68, 0
4, 47220, Note_on_c, 2, 67, 62
4, 47250, Note_on_c, 2, 67, 0
4, 47280, Note_on_c, 2, 65, 72
4, 47310, Note_on_c, 2, 65, 0
4, 47340, Note_on_c, 2, 63, 76
4, 47370, Note_on_c, 2, 63, 0
4, 47400, Note_on_c, 2, 62, 70
4, 47430, Note_on_c, 2, 62, 0
4, 47460, Note_on_c, 2, 67, 64
4, 47490, Note_on_c, 2, 67, 0
4, 47520, Note_on_c, 2, 63, 52
4, 47640, Note_on_c, 2, 63, 0
4, 47760, Note_on_c, 2, 72, 29
4, 47880, Note_on_c, 2, 72, 0
4, 48000, Note_on_c, 2, 74, 38
4, 48120, Note_on_c, 2, 74, 0
4, 48240, Note_on_c, 2, 67, 43
4, 48360, Note_on_c, 2, 67, 0
4, 48600, Note_on_c, 2, 72, 29
4, 48600, Note_on_c, 2, 63, 43
4, 48720, Note_on_c, 2, 63, 0
4, 48720, Note_on_c, 2, 72, 0
4, 48720, Note_on_c, 2, 72, 52
4, 48720, Note_on_c, 2, 63, 78
4, 48840, Note_on_c, 2, 63, 0
4, 48840, Note_on_c, 2, 72, 0
4, 48840, Note_on_c, 2, 72, 54
4, 48840, Note_on_c, 2, 63, 84
4, 48960, Note_on_c, 2, 63, 0
4, 48960, Note_on_c, 2, 72, 0
4, 48960, Note_on_c, 2, 72, 49
4, 48960, Note_on_c, 2, 63, 80
4, 49200, Note_on_c, 2, 63, 0
4, 49200, Note_on_c, 2, 72, 0
4, 49200, Note_on_c, 2, 71, 60
4, 49200, Note_on_c, 2, 62, 89
4, 49440, Note_on_c, 2, 62, 0
4, 49440, Note_on_c, 2, 71, 0
4, 49440, Note_on_c, 2, 72, 68
4, 49440, Note_on_c, 2, 60, 86
4, 49680, Note_on_c, 2, 60, 0
4, 49680, Note_on_c, 2, 72, 0
4, 49680, Note_on_c, 2, 75, 94
4, 49680, Note_on_c, 2, 63, 89
4, 49920, Note_on_c, 2, 63, 0
4, 49920, Note_on_c, 2, 75, 0
4, 49920, Note_on_c, 2, 79, 72
4, 49920, Note_on_c, 2, 67, 73
4, 50100, Note_on_c, 2, 67, 0
4, 50100, Note_on_c, 2, 79, 0
4, 50100, Note_on_c, 2, 77, 77
4, 50100, Note_on_c, 2, 65, 81
4, 50130, Note_on_c, 2, 65, 0
4, 50130, Note_on_c, 2, 77, 0
4, 50160, Note_on_c, 2, 75, 84
4, 50160, Note_on_c, 2, 63, 94
4, 50220, Note_on_c, 2, 63, 0
4, 50220, Note_on_c, 2, 75, 0
4, 50280, Note_on_c, 2, 74, 82
4, 50280, Note_on_c, 2, 62, 81
4, 50340, Note_on_c, 2, 62, 0
4, 50340, Note_on_c, 2, 74, 0
4, 50400, Note_on_c, 2, 72, 95
4, 50400, Note_on_c, 2, 60, 80
4, 50520, Note_on_c, 2, 60, 0
4, 50520, Note_on_c, 2, 72, 0
4, 50580, Note_on_c, 2, 67, 94
4, 50640, Note_on_c, 2, 67, 0
4, 50640, Note_on_c, 2, 72, 90
4, 50760, Note_on_c, 2, 72, 0
4, 50820, Note_on_c, 2, 67, 89
4, 50880, Note_on_c, 2, 67, 0
4, 50880, Note_on_c, 2, 72, 99
4, 51000, Note_on_c, 2, 72, 0
4, 51060, Note_on_c, 2, 74, 94
4, 51060, Note_on_c, 2, 71, 93
4, 51090, Note_on_c, 2, 71, 0
4, 51090, Note_on_c, 2, 74, 0
4, 51120, Note_on_c, 2, 75, 94
4, 51120, Note_on_c, 2, 72, 63
4, 51180, Note_on_c, 2, 72, 0
4, 51180, Note_on_c, 2, 75, 0
4, 51300, Note_on_c, 2, 71, 94
4, 51330, Note_on_c, 2, 71, 0
4, 51360, Note_on_c, 2, 72, 86
4, 51420, Note_on_c, 2, 72, 0
4, 51540, Note_on_c, 2, 74, 90
4, 51540, Note_on_c, 2, 71, 81
4, 51570, Note_on_c, 2, 71, 0
4, 51570, Note_on_c, 2, 74, 0
4, 51600, Note_on_c, 2, 75, 99
4, 51600, Note_on_c, 2, 72, 73
4, 51660, Note_on_c, 2, 72, 0
4, 51660, Note_on_c, 2, 75, 0
4, 51780, Note_on_c, 2, 71, 80
4, 51780, Note_on_c, 2, 62, 85
4, 51810, Note_on_c, 2, 62, 0
4, 51810, Note_on_c, 2, 71, 0
4, 51840, Note_on_c, 2, 72, 81
4, 51840, Note_on_c, 2, 63, 72
4, 51900, Note_on_c, 2, 63, 0
4, 51900, Note_on_c, 2, 72, 0
4, 52320, Note_on_c, 2, 72, 84
4, 52320, Note_on_c, 2, 60, 85
4, 52440, Note_on_c, 2, 60, 0
4, 52440, Note_on_c, 2, 72, 0
4, 52560, Note_on_c, 2, 72, 89
4, 52560, Note_on_c, 2, 60, 90
4, 52680, Note_on_c, 2, 60, 0
4, 52680, Note_on_c, 2, 72, 0
4, 52800, Note_on_c, 2, 72, 90
4, 52800, Note_on_c, 2, 60, 89
4, 53040, Note_on_c, 2, 60, 0
4, 53040, Note_on_c, 2, 72, 0
4, 65760, Note_on_c, 2, 75, 85
4, 65760, Note_on_c, 2, 63, 84
4, 65940, Note_on_c, 2, 63, 0
4, 65940, Note_on_c, 2, 75, 0
4, 66000, Note_on_c, 2, 79, 78
4, 66000, Note_on_c, 2, 67, 78
4, 66180, Note_on_c, 2, 67, 0
4, 66180, Note_on_c, 2, 79, 0
4, 66240, Note_on_c, 2, 82, 77
4, 66240, Note_on_c, 2, 70, 89
4, 66420, Note_on_c, 2, 70, 0
4, 66420, Note_on_c, 2, 82, 0
4, 66420, Note_on_c, 2, 80, 80
4, 66420, Note_on_c, 2, 68, 94
4, 66450, Note_on_c, 2, 68, 0
4, 66450, Note_on_c, 2, 80, 0
4, 66480, Note_on_c, 2, 79, 70
4, 66480, Note_on_c, 2, 67, 76
4, 66540, Note_on_c, 2, 67, 0
4, 66540, Note_on_c, 2, 79, 0
4, 66600, Note_on_c, 2, 77, 68
4, 66600, Note_on_c, 2, 65, 73
4, 66660, Note_on_c, 2, 65, 0
4, 66660, Note_on_c, 2, 77, 0
4, 66720, Note_on_c, 2, 75, 80
4, 66720, Note_on_c, 2, 63, 73
4, 66840, Note_on_c, 2, 63, 0
4, 66840, Note_on_c, 2, 75, 0
4, 67680, Note_on_c, 2, 68, 89
4, 67860, Note_on_c, 2, 68, 0
4, 67920, Note_on_c, 2, 72, 84
4, 68100, Note_on_c, 2, 72, 0
4, 68160, Note_on_c, 2, 75, 99
4, 68340, Note_on_c, 2, 75, 0
4, 68340, Note_on_c, 2, 73, 76
4, 68370, Note_on_c, 2, 73, 0
4, 68400, Note_on_c, 2, 72, 84
4, 68460, Note_on_c, 2, 72, 0
4, 68520, Note_on_c, 2, 70, 89
4, 68580, Note_on_c, 2, 70, 0
4, 68640, Note_on_c, 2, 69, 94
4, 68760, Note_on_c, 2, 69, 0
4, 82080, Note_on_c, 2, 79, 76
4, 82080, Note_on_c, 2, 70, 74
4, 82320, Note_on_c, 2, 70, 0
4, 82320, Note_on_c, 2, 79, 0
4, 82320, Note_on_c, 2, 68, 73
4, 82320, Note_on_c, 2, 77, 82
4, 82380, Note_on_c, 2, 77, 0
4, 82380, Note_on_c, 2, 79, 42
4, 82440, Note_on_c, 2, 79, 0
4, 82440, Note_on_c, 2, 80, 71
4, 82500, Note_on_c, 2, 80, 0
4, 82500, Note_on_c, 2, 77, 78
4, 82560, Note_on_c, 2, 77, 0
4, 82560, Note_on_c, 2, 68, 0
4, 82560, Note_on_c, 2, 75, 84
4, 82560, Note_on_c, 2, 67, 77
4, 82800, Note_on_c, 2, 67, 0
4, 82800, Note_on_c, 2, 75, 0
4, 82800, Note_on_c, 2, 70, 64
4, 82800, Note_on_c, 2, 67, 65
4, 82980, Note_on_c, 2, 67, 0
4, 82980, Note_on_c, 2, 70, 0
4, 82980, Note_on_c, 2, 67, 85
4, 82980, Note_on_c, 2, 75, 69
4, 83040, Note_on_c, 2, 75, 0
4, 83040, Note_on_c, 2, 67, 0
4, 83040, Note_on_c, 2, 77, 69
4, 83040, Note_on_c, 2, 74, 54
4, 83100, Note_on_c, 2, 74, 0
4, 83100, Note_on_c, 2, 77, 0
4, 83160, Note_on_c, 2, 77, 61
4, 83160, Note_on_c, 2, 74, 61
4, 83220, Note_on_c, 2, 74, 0
4, 83220, Note_on_c, 2, 77, 0
4, 83280, Note_on_c, 2, 77, 66
4, 83280, Note_on_c, 2, 74, 64
4, 83340, Note_on_c, 2, 74, 0
4, 83340, Note_on_c, 2, 77, 0
4, 83400, Note_on_c, 2, 78, 66
4, 83400, Note_on_c, 2, 74, 80
4, 83460, Note_on_c, 2, 74, 0
4, 83460, Note_on_c, 2, 78, 0
4, 83520, Note_on_c, 2, 78, 71
4, 83520, Note_on_c, 2, 74, 73
4, 83760, Note_on_c, 2, 74, 0
4, 83760, Note_on_c, 2, 78, 0
4, 83760, Note_on_c, 2, 79, 59
4, 83760, Note_on_c, 2, 75, 76
4, 83880, Note_on_c, 2, 75, 0
4, 83880, Note_on_c, 2, 79, 0
4, 84900, Note_on_c, 2, 77, 52
4, 84900, Note_on_c, 2, 80, 69
4, 84960, Note_on_c, 2, 80, 0
4, 84960, Note_on_c, 2, 77, 0
4, 84960, Note_on_c, 2, 79, 61
4, 84960, Note_on_c, 2, 75, 60
4, 85020, Note_on_c, 2, 75, 0
4, 85020, Note_on_c, 2, 79, 0
4, 85080, Note_on_c, 2, 79, 59
4, 85080, Note_on_c, 2, 75, 69
4, 85140, Note_on_c, 2, 75, 0
4, 85140, Note_on_c, 2, 79, 0
4, 85200, Note_on_c, 2, 79, 78
4, 85200, Note_on_c, 2, 75, 80
4, 85260, Note_on_c, 2, 75, 0
4, 85260, Note_on_c, 2, 79, 0
4, 85260, Note_on_c, 2, 77, 76
4, 85260, Note_on_c, 2, 74, 85
4, 85320, Note_on_c, 2, 74, 0
4, 85320, Note_on_c, 2, 77, 0
4, 85320, Note_on_c, 2, 75, 84
4, 85320, Note_on_c, 2, 72, 50
4, 85380, Note_on_c, 2, 72, 0
4, 85380, Note_on_c, 2, 75, 0
4, 85380, Note_on_c, 2, 74, 84
4, 85380, Note_on_c, 2, 77, 80
4, 85440, Note_on_c, 2, 77, 0
4, 85440, Note_on_c, 2, 74, 0
4, 85440, Note_on_c, 2, 77, 81
4, 85440, Note_on_c, 2, 74, 84
4, 85620, Note_on_c, 2, 77, 0
4, 85620, Note_on_c, 2, 78, 76
4, 85680, Note_on_c, 2, 78, 0
4, 85680, Note_on_c, 2, 74, 0
4, 85680, Note_on_c, 2, 79, 84
4, 85680, Note_on_c, 2, 75, 81
4, 85800, Note_on_c, 2, 75, 0
4, 85800, Note_on_c, 2, 79, 0
4, 88920, Note_on_c, 2, 75, 55
4, 88920, Note_on_c, 2, 70, 45
4, 89010, Note_on_c, 2, 70, 0
4, 89010, Note_on_c, 2, 75, 0
4, 89040, Note_on_c, 2, 75, 64
4, 89040, Note_on_c, 2, 70, 63
4, 89130, Note_on_c, 2, 70, 0
4, 89130, Note_on_c, 2, 75, 0
4, 89160, Note_on_c, 2, 75, 53
4, 89160, Note_on_c, 2, 70, 62
4, 89250, Note_on_c, 2, 70, 0
4, 89250, Note_on_c, 2, 75, 0
4, 89280, Note_on_c, 2, 75, 58
4, 89280, Note_on_c, 2, 70, 65
4, 89520, Note_on_c, 2, 70, 0
4, 89520, Note_on_c, 2, 75, 0
4, 89520, Note_on_c, 2, 74, 68
4, 89520, Note_on_c, 2, 70, 58
4, 89700, Note_on_c, 2, 70, 0
4, 89700, Note_on_c, 2, 74, 0
4, 89700, Note_on_c, 2, 75, 67
4, 89700, Note_on_c, 2, 70, 70
4, 89760, Note_on_c, 2, 70, 0
4, 89760, Note_on_c, 2, 75, 0
4, 89760, Note_on_c, 2, 72, 67
4, 89760, Note_on_c, 2, 68, 58
4, 89880, Note_on_c, 2, 68, 0
4, 89880, Note_on_c, 2, 72, 0
4, 98340, Note_on_c, 2, 80, 81
4, 98370, Note_on_c, 2, 80, 0
4, 98400, Note_on_c, 2, 79, 84
4, 98460, Note_on_c, 2, 79, 0
4, 98820, Note_on_c, 2, 80, 81
4, 98850, Note_on_c, 2, 80, 0
4, 98880, Note_on_c, 2, 79, 78
4, 98940, Note_on_c, 2, 79, 0
4, 99060, Note_on_c, 2, 77, 86
4, 99090, Note_on_c, 2, 77, 0
4, 99120, Note_on_c, 2, 75, 89
4, 99180, Note_on_c, 2, 75, 0
4, 99300, Note_on_c, 2, 73, 80
4, 99330, Note_on_c, 2, 73, 0
4, 99360, Note_on_c, 2, 72, 76
4, 99420, Note_on_c, 2, 72, 0
4, 99540, Note_on_c, 2, 70, 89
4, 99570, Note_on_c, 2, 70, 0
4, 99600, Note_on_c, 2, 68, 84
4, 99660, Note_on_c, 2, 68, 0
4, 99780, Note_on_c, 2, 70, 85
4, 99810, Note_on_c, 2, 70, 0
4, 99840, Note_on_c, 2, 68, 84
4, 99900, Note_on_c, 2, 68, 0
4, 104640, Note_on_c, 2, 75, 65
4, 104640, Note_on_c, 2, 67, 70
4, 104880, Note_on_c, 2, 67, 0
4, 104880, Note_on_c, 2, 75, 0
4, 104880, Note_on_c, 2, 75, 73
4, 104880, Note_on_c, 2, 79, 60
4, 105120, Note_on_c, 2, 79, 0
4, 105120, Note_on_c, 2, 75, 0
4, 105120, Note_on_c, 2, 82, 84
4, 105120, Note_on_c, 2, 79, 82
4, 105300, Note_on_c, 2, 79, 0
4, 105300, Note_on_c, 2, 82, 0
4, 105300, Note_on_c, 2, 80, 64
4, 105300, Note_on_c, 2, 77, 73
4, 105330, Note_on_c, 2, 77, 0
4, 105330, Note_on_c, 2, 80, 0
4, 105360, Note_on_c, 2, 79, 72
4, 105360, Note_on_c, 2, 75, 77
4, 105420, Note_on_c, 2, 75, 0
4, 105420, Note_on_c, 2, 79, 0
4, 105480, Note_on_c, 2, 77, 73
4, 105480, Note_on_c, 2, 70, 72
4, 105540, Note_on_c, 2, 70, 0
4, 105540, Note_on_c, 2, 77, 0
4, 105600, Note_on_c, 2, 75, 62
4, 105600, Note_on_c, 2, 67, 69
4, 105660, Note_on_c, 2, 67, 0
4, 105660, Note_on_c, 2, 75, 0
4, 105780, Note_on_c, 2, 77, 67
4, 105780, Note_on_c, 2, 70, 74
4, 105810, Note_on_c, 2, 70, 0
4, 105810, Note_on_c, 2, 77, 0
4, 105840, Note_on_c, 2, 75, 67
4, 105840, Note_on_c, 2, 67, 81
4, 105900, Note_on_c, 2, 67, 0
4, 105900, Note_on_c, 2, 75, 0
4, 106020, Note_on_c, 2, 77, 52
4, 106020, Note_on_c, 2, 70, 68
4, 106050, Note_on_c, 2, 70, 0
4, 106050, Note_on_c, 2, 77, 0
4, 106080, Note_on_c, 2, 75, 64
4, 106080, Note_on_c, 2, 67, 81
4, 106140, Note_on_c, 2, 67, 0
4, 106140, Note_on_c, 2, 75, 0
4, 107520, Note_on_c, 2, 74, 54
4, 107520, Note_on_c, 2, 68, 43
4, 107520, Control_c, 2, 7, 99
4, 107540, Control_c, 2, 7, 100
4, 107560, Control_c, 2, 7, 101
4, 107580, Control_c, 2, 7, 102
4, 107600, Control_c, 2, 7, 103
4, 107620, Control_c, 2, 7, 104
4, 107640, Control_c, 2, 7, 105
4, 107660, Control_c, 2, 7, 106
4, 107680, Control_c, 2, 7, 107
4, 107695, Control_c, 2, 7, 108
4, 107715, Control_c, 2, 7, 109
4, 107735, Control_c, 2, 7, 110
4, 107755, Control_c, 2, 7, 111
4, 107775, Control_c, 2, 7, 112
4, 107795, Control_c, 2, 7, 113
4, 107815, Control_c, 2, 7, 114
4, 107835, Control_c, 2, 7, 115
4, 107850, Control_c, 2, 7, 116
4, 107870, Control_c, 2, 7, 117
4, 107890, Control_c, 2, 7, 118
4, 107910, Control_c, 2, 7, 119
4, 107930, Control_c, 2, 7, 120
4, 107950, Control_c, 2, 7, 121
4, 107970, Control_c, 2, 7, 122
4, 107990, Control_c, 2, 7, 123
4, 108005, Control_c, 2, 7, 124
4, 108025, Control_c, 2, 7, 123
4, 108045, Control_c, 2, 7, 122
4, 108065, Control_c, 2, 7, 121
4, 108085, Control_c, 2, 7, 120
4, 108100, Control_c, 2, 7, 119
4, 108120, Control_c, 2, 7, 118
4, 108140, Control_c, 2, 7, 117
4, 108160, Control_c, 2, 7, 116
4, 108180, Control_c, 2, 7, 115
4, 108195, Control_c, 2, 7, 114
4, 108215, Control_c, 2, 7, 113
4, 108235, Control_c, 2, 7, 112
4, 108255, Control_c, 2, 7, 111
4, 108275, Control_c, 2, 7, 110
4, 108290, Control_c, 2, 7, 109
4, 108310, Control_c, 2, 7, 108
4, 108330, Control_c, 2, 7, 107
4, 108350, Control_c, 2, 7, 106
4, 108370, Control_c, 2, 7, 105
4, 108385, Control_c, 2, 7, 104
4, 108405, Control_c, 2, 7, 103
4, 108425, Control_c, 2, 7, 102
4, 108445, Control_c, 2, 7, 101
4, 108465, Control_c, 2, 7, 100
4, 108480, Note_on_c, 2, 68, 0
4, 108480, Note_on_c, 2, 74, 0
4, 108480, Control_c, 2, 7, 99
4, 108480, Note_on_c, 2, 75, 80
4, 108480, Note_on_c, 2, 67, 94
4, 108600, Note_on_c, 2, 67, 0
4, 108600, Note_on_c, 2, 75, 0
4, 108840, Note_on_c, 2, 72, 76
4, 109080, Note_on_c, 2, 72, 0
4, 109140, Note_on_c, 2, 70, 93
4, 109170, Note_on_c, 2, 70, 0
4, 109200, Note_on_c, 2, 68, 89
4, 109230, Note_on_c, 2, 68, 0
4, 109260, Note_on_c, 2, 67, 90
4, 109290, Note_on_c, 2, 67, 0
4, 109320, Note_on_c, 2, 65, 89
4, 109350, Note_on_c, 2, 65, 0
4, 109380, Note_on_c, 2, 70, 90
4, 109410, Note_on_c, 2, 70, 0
4, 109440, Note_on_c, 2, 67, 85
4, 109560, Note_on_c, 2, 67, 0
4, 109560, Note_on_c, 2, 79, 89
4, 109680, Note_on_c, 2, 79, 0
4, 109800, Note_on_c, 2, 75, 93
4, 109920, Note_on_c, 2, 75, 0
4, 110040, Note_on_c, 2, 77, 84
4, 110160, Note_on_c, 2, 77, 0
4, 110280, Note_on_c, 2, 70, 93
4, 110400, Note_on_c, 2, 70, 0
4, 110640, Note_on_c, 2, 75, 90
4, 110880, Note_on_c, 2, 72, 61
4, 111120, Note_on_c, 2, 72, 0
4, 111120, Note_on_c, 2, 75, 0
4, 111120, Note_on_c, 2, 74, 80
4, 111360, Note_on_c, 2, 74, 0
4, 111360, Note_on_c, 2, 67, 82
4, 111480, Note_on_c, 2, 67, 0
4, 111840, Note_on_c, 2, 72, 55
4, 111840, Note_on_c, 2, 69, 84
4, 112080, Note_on_c, 2, 69, 0
4, 112080, Note_on_c, 2, 72, 0
4, 112080, Note_on_c, 2, 70, 85
4, 112080, Note_on_c, 2, 67, 74
4, 112320, Note_on_c, 2, 67, 0
4, 112320, Note_on_c, 2, 70, 0
4, 113400, Note_on_c, 2, 74, 85
4, 113400, Note_on_c, 2, 62, 81
4, 113880, Note_on_c, 2, 62, 0
4, 113880, Note_on_c, 2, 74, 0
4, 113880, Note_on_c, 2, 74, 90
4, 113880, Note_on_c, 2, 62, 86
4, 114360, Note_on_c, 2, 62, 0
4, 114360, Note_on_c, 2, 74, 0
4, 114360, Note_on_c, 2, 74, 86
4, 114360, Note_on_c, 2, 62, 85
4, 114840, Note_on_c, 2, 62, 0
4, 114840, Note_on_c, 2, 74, 0
4, 114840, Note_on_c, 2, 74, 74
4, 114840, Note_on_c, 2, 62, 82
4, 115320, Note_on_c, 2, 62, 0
4, 115320, Note_on_c, 2, 74, 0
4, 119040, Note_on_c, 2, 74, 90
4, 119040, Note_on_c, 2, 62, 86
4, 119160, Note_on_c, 2, 62, 0
4, 119160, Note_on_c, 2, 74, 0
4, 119520, Note_on_c, 2, 74, 99
4, 119520, Note_on_c, 2, 62, 95
4, 119640, Note_on_c, 2, 62, 0
4, 119640, Note_on_c, 2, 74, 0
4, 120000, Note_on_c, 2, 74, 99
4, 120000, Note_on_c, 2, 62, 95
4, 120120, Note_on_c, 2, 62, 0
4, 120120, Note_on_c, 2, 74, 0
4, 121920, Note_on_c, 2, 75, 64
4, 121920, Control_c, 2, 7, 99
4, 121945, Control_c, 2, 7, 100
4, 121965, Control_c, 2, 7, 101
4, 121985, Control_c, 2, 7, 102
4, 122005, Control_c, 2, 7, 103
4, 122025, Control_c, 2, 7, 104
4, 122045, Control_c, 2, 7, 105
4, 122065, Control_c, 2, 7, 106
4, 122085, Control_c, 2, 7, 107
4, 122105, Control_c, 2, 7, 108
4, 122125, Control_c, 2, 7, 109
4, 122145, Control_c, 2, 7, 110
4, 122165, Control_c, 2, 7, 111
4, 122185, Control_c, 2, 7, 112
4, 122205, Control_c, 2, 7, 113
4, 122225, Control_c, 2, 7, 114
4, 122245, Control_c, 2, 7, 115
4, 122265, Control_c, 2, 7, 116
4, 122285, Control_c, 2, 7, 117
4, 122305, Control_c, 2, 7, 118
4, 122325, Control_c, 2, 7, 119
4, 122345, Control_c, 2, 7, 120
4, 122365, Control_c, 2, 7, 121
4, 122385, Control_c, 2, 7, 122
4, 122400, Note_on_c, 2, 75, 0
4, 122400, Note_on_c, 2, 74, 52
4, 122405, Control_c, 2, 7, 123
4, 122425, Control_c, 2, 7, 122
4, 122445, Control_c, 2, 7, 121
4, 122465, Control_c, 2, 7, 120
4, 122485, Control_c, 2, 7, 119
4, 122505, Control_c, 2, 7, 118
4, 122525, Control_c, 2, 7, 117
4, 122545, Control_c, 2, 7, 116
4, 122565, Control_c, 2, 7, 115
4, 122585, Control_c, 2, 7, 114
4, 122605, Control_c, 2, 7, 113
4, 122625, Control_c, 2, 7, 112
4, 122645, Control_c, 2, 7, 111
4, 122665, Control_c, 2, 7, 110
4, 122685, Control_c, 2, 7, 109
4, 122705, Control_c, 2, 7, 108
4, 122725, Control_c, 2, 7, 107
4, 122745, Control_c, 2, 7, 106
4, 122765, Control_c, 2, 7, 105
4, 122785, Control_c, 2, 7, 104
4, 122805, Control_c, 2, 7, 103
4, 122825, Control_c, 2, 7, 102
4, 122845, Control_c, 2, 7, 101
4, 122865, Control_c, 2, 7, 100
4, 122880, Note_on_c, 2, 74, 0
4, 122880, Control_c, 2, 7, 99
4, 122880, Note_on_c, 2, 74, 43
4, 123000, Note_on_c, 2, 74, 0
4, 128640, Note_on_c, 2, 67, 64
4, 128880, Note_on_c, 2, 67, 0
4, 128880, Note_on_c, 2, 70, 58
4, 129240, Note_on_c, 2, 70, 0
4, 129240, Note_on_c, 2, 73, 56
4, 129360, Note_on_c, 2, 73, 0
4, 129360, Note_on_c, 2, 72, 43
4, 129480, Note_on_c, 2, 72, 0
4, 129480, Note_on_c, 2, 70, 55
4, 129600, Note_on_c, 2, 70, 0
4, 129600, Note_on_c, 2, 68, 45
4, 129720, Note_on_c, 2, 68, 0
4, 133440, Note_on_c, 2, 65, 64
4, 133680, Note_on_c, 2, 65, 0
4, 133680, Note_on_c, 2, 68, 66
4, 133920, Note_on_c, 2, 68, 0
4, 133920, Note_on_c, 2, 72, 64
4, 134160, Note_on_c, 2, 72, 0
4, 134160, Note_on_c, 2, 77, 64
4, 134400, Note_on_c, 2, 77, 0
4, 134400, Note_on_c, 2, 80, 67
4, 134520, Note_on_c, 2, 80, 0
4, 135000, Note_on_c, 2, 78, 68
4, 135000, Note_on_c, 2, 68, 72
4, 135240, Note_on_c, 2, 68, 0
4, 135240, Note_on_c, 2, 78, 0
4, 135240, Note_on_c, 2, 78, 73
4, 135240, Note_on_c, 2, 68, 68
4, 135360, Note_on_c, 2, 68, 0
4, 135360, Note_on_c, 2, 78, 0
4, 135360, Note_on_c, 2, 77, 72
4, 135360, Note_on_c, 2, 68, 41
4, 135480, Note_on_c, 2, 68, 0
4, 135480, Note_on_c, 2, 77, 0
4, 135960, Note_on_c, 2, 77, 74
4, 135960, Note_on_c, 2, 68, 70
4, 136200, Note_on_c, 2, 68, 0
4, 136200, Note_on_c, 2, 77, 0
4, 136200, Note_on_c, 2, 77, 68
4, 136200, Note_on_c, 2, 68, 64
4, 136320, Note_on_c, 2, 68, 0
4, 136320, Note_on_c, 2, 77, 0
4, 136320, Note_on_c, 2, 78, 63
4, 136320, Note_on_c, 2, 68, 68
4, 136440, Note_on_c, 2, 68, 0
4, 136440, Note_on_c, 2, 78, 0
4, 136920, Note_on_c, 2, 78, 67
4, 136920, Note_on_c, 2, 68, 57
4, 137160, Note_on_c, 2, 68, 0
4, 137160, Note_on_c, 2, 78, 0
4, 137160, Note_on_c, 2, 78, 63
4, 137160, Note_on_c, 2, 68, 68
4, 137280, Note_on_c, 2, 68, 0
4, 137280, Note_on_c, 2, 78, 0
4, 137400, Note_on_c, 2, 77, 71
4, 137400, Note_on_c, 2, 68, 55
4, 137640, Note_on_c, 2, 68, 0
4, 137640, Note_on_c, 2, 77, 0
4, 137640, Note_on_c, 2, 77, 62
4, 137640, Note_on_c, 2, 68, 52
4, 137760, Note_on_c, 2, 68, 0
4, 137760, Note_on_c, 2, 77, 0
4, 137880, Note_on_c, 2, 77, 69
4, 137880, Note_on_c, 2, 67, 67
4, 138120, Note_on_c, 2, 67, 0
4, 138120, Note_on_c, 2, 77, 0
4, 138120, Note_on_c, 2, 77, 64
4, 138120, Note_on_c, 2, 67, 53
4, 138240, Note_on_c, 2, 67, 0
4, 138240, Note_on_c, 2, 77, 0
4, 138360, Note_on_c, 2, 75, 59
4, 138360, Note_on_c, 2, 67, 69
4, 138600, Note_on_c, 2, 67, 0
4, 138600, Note_on_c, 2, 75, 0
4, 138600, Note_on_c, 2, 67, 61
4, 138600, Note_on_c, 2, 75, 47
4, 138720, Note_on_c, 2, 75, 0
4, 138720, Note_on_c, 2, 67, 0
4, 138840, Note_on_c, 2, 73, 62
4, 138840, Note_on_c, 2, 68, 61
4, 138960, Note_on_c, 2, 68, 0
4, 138960, Note_on_c, 2, 73, 0
4, 139080, Note_on_c, 2, 69, 66
4, 139080, Note_on_c, 2, 72, 43
4, 139200, Note_on_c, 2, 72, 0
4, 139200, Note_on_c, 2, 69, 0
4, 139200, Note_on_c, 2, 71, 52
4, 139320, Note_on_c, 2, 71, 0
4, 142800, Note_on_c, 2, 77, 62
4, 142800, Control_c, 2, 7, 99
4, 142810, Control_c, 2, 7, 100
4, 142820, Control_c, 2, 7, 101
4, 142830, Control_c, 2, 7, 102
4, 142840, Control_c, 2, 7, 103
4, 142850, Control_c, 2, 7, 104
4, 142860, Control_c, 2, 7, 105
4, 142870, Control_c, 2, 7, 106
4, 142880, Control_c, 2, 7, 107
4, 142890, Control_c, 2, 7, 108
4, 142895, Control_c, 2, 7, 109
4, 142905, Control_c, 2, 7, 110
4, 142915, Control_c, 2, 7, 111
4, 142925, Control_c, 2, 7, 112
4, 142935, Control_c, 2, 7, 113
4, 142945, Control_c, 2, 7, 114
4, 142955, Control_c, 2, 7, 115
4, 142965, Control_c, 2, 7, 116
4, 142975, Control_c, 2, 7, 117
4, 142980, Control_c, 2, 7, 118
4, 142990, Control_c, 2, 7, 119
4, 143000, Control_c, 2, 7, 120
4, 143010, Control_c, 2, 7, 121
4, 143020, Control_c, 2, 7, 122
4, 143030, Control_c, 2, 7, 123
4, 143040, Note_on_c, 2, 77, 0
4, 143040, Control_c, 2, 7, 124
4, 143040, Note_on_c, 2, 78, 62
4, 143050, Control_c, 2, 7, 125
4, 143060, Control_c, 2, 7, 126
4, 143065, Control_c, 2, 7, 127
4, 143080, Control_c, 2, 7, 126
4, 143090, Control_c, 2, 7, 125
4, 143105, Control_c, 2, 7, 124
4, 143115, Control_c, 2, 7, 123
4, 143125, Control_c, 2, 7, 122
4, 143140, Control_c, 2, 7, 121
4, 143150, Control_c, 2, 7, 120
4, 143165, Control_c, 2, 7, 119
4, 143175, Control_c, 2, 7, 118
4, 143185, Control_c, 2, 7, 117
4, 143200, Control_c, 2, 7, 116
4, 143210, Control_c, 2, 7, 115
4, 143225, Control_c, 2, 7, 114
4, 143235, Control_c, 2, 7, 113
4, 143245, Control_c, 2, 7, 112
4, 143260, Control_c, 2, 7, 111
4, 143270, Control_c, 2, 7, 110
4, 143280, Note_on_c, 2, 78, 0
4, 143280, Note_on_c, 2, 77, 61
4, 143285, Control_c, 2, 7, 109
4, 143295, Control_c, 2, 7, 108
4, 143305, Control_c, 2, 7, 107
4, 143320, Control_c, 2, 7, 106
4, 143330, Control_c, 2, 7, 105
4, 143345, Control_c, 2, 7, 104
4, 143355, Control_c, 2, 7, 103
4, 143365, Control_c, 2, 7, 102
4, 143380, Control_c, 2, 7, 101
4, 143390, Control_c, 2, 7, 100
4, 143400, Note_on_c, 2, 77, 0
4, 143400, Control_c, 2, 7, 99
4, 145200, Note_on_c, 2, 77, 68
4, 145440, Note_on_c, 2, 77, 0
4, 145440, Note_on_c, 2, 76, 63
4, 145680, Note_on_c, 2, 76, 0
4, 145680, Note_on_c, 2, 77, 68
4, 146160, Note_on_c, 2, 77, 0
4, 146160, Note_on_c, 2, 75, 61
4, 146640, Note_on_c, 2, 75, 0
4, 146640, Note_on_c, 2, 74, 53
4, 147120, Note_on_c, 2, 74, 0
4, 147120, Note_on_c, 2, 72, 78
4, 147600, Note_on_c, 2, 72, 0
4, 147600, Note_on_c, 2, 71, 58
4, 147840, Note_on_c, 2, 71, 0
4, 147840, Note_on_c, 2, 60, 95
4, 147840, Note_on_c, 2, 72, 89
4, 148080, Note_on_c, 2, 72, 0
4, 148080, Note_on_c, 2, 60, 0
4, 148080, Note_on_c, 2, 63, 89
4, 148080, Note_on_c, 2, 75, 89
4, 148320, Note_on_c, 2, 75, 0
4, 148320, Note_on_c, 2, 63, 0
4, 148320, Note_on_c, 2, 79, 86
4, 148320, Note_on_c, 2, 67, 84
4, 148500, Note_on_c, 2, 67, 0
4, 148500, Note_on_c, 2, 79, 0
4, 148500, Note_on_c, 2, 77, 73
4, 148500, Note_on_c, 2, 65, 84
4, 148530, Note_on_c, 2, 65, 0
4, 148530, Note_on_c, 2, 77, 0
4, 148560, Note_on_c, 2, 63, 86
4, 148560, Note_on_c, 2, 75, 89
4, 148620, Note_on_c, 2, 75, 0
4, 148620, Note_on_c, 2, 63, 0
4, 148680, Note_on_c, 2, 74, 78
4, 148680, Note_on_c, 2, 62, 74
4, 148740, Note_on_c, 2, 62, 0
4, 148740, Note_on_c, 2, 74, 0
4, 148800, Note_on_c, 2, 60, 95
4, 148800, Note_on_c, 2, 72, 72
4, 148860, Note_on_c, 2, 72, 0
4, 148860, Note_on_c, 2, 60, 0
4, 148980, Note_on_c, 2, 67, 76
4, 149010, Note_on_c, 2, 67, 0
4, 149040, Note_on_c, 2, 60, 89
4, 149040, Note_on_c, 2, 72, 59
4, 149100, Note_on_c, 2, 72, 0
4, 149100, Note_on_c, 2, 60, 0
4, 149220, Note_on_c, 2, 67, 89
4, 149250, Note_on_c, 2, 67, 0
4, 149280, Note_on_c, 2, 60, 90
4, 149280, Note_on_c, 2, 72, 74
4, 149340, Note_on_c, 2, 72, 0
4, 149340, Note_on_c, 2, 60, 0
4, 149760, Note_on_c, 2, 62, 93
4, 150000, Note_on_c, 2, 62, 0
4, 150000, Note_on_c, 2, 65, 104
4, 150240, Note_on_c, 2, 65, 0
4, 150240, Note_on_c, 2, 68, 99
4, 150420, Note_on_c, 2, 68, 0
4, 150420, Note_on_c, 2, 67, 95
4, 150450, Note_on_c, 2, 67, 0
4, 150480, Note_on_c, 2, 65, 95
4, 150540, Note_on_c, 2, 65, 0
4, 150600, Note_on_c, 2, 63, 95
4, 150660, Note_on_c, 2, 63, 0
4, 150720, Note_on_c, 2, 62, 101
4, 150780, Note_on_c, 2, 62, 0
4, 152640, Note_on_c, 2, 75, 53
4, 152640, Note_on_c, 2, 72, 50
4, 152700, Note_on_c, 2, 72, 0
4, 152700, Note_on_c, 2, 75, 0
4, 152820, Note_on_c, 2, 75, 44
4, 152820, Note_on_c, 2, 72, 54
4, 152850, Note_on_c, 2, 72, 0
4, 152850, Note_on_c, 2, 75, 0
4, 152880, Note_on_c, 2, 75, 46
4, 152880, Note_on_c, 2, 72, 62
4, 152940, Note_on_c, 2, 72, 0
4, 152940, Note_on_c, 2, 75, 0
4, 153060, Note_on_c, 2, 75, 45
4, 153060, Note_on_c, 2, 72, 52
4, 153090, Note_on_c, 2, 72, 0
4, 153090, Note_on_c, 2, 75, 0
4, 153120, Note_on_c, 2, 75, 57
4, 153120, Note_on_c, 2, 72, 57
4, 153180, Note_on_c, 2, 72, 0
4, 153180, Note_on_c, 2, 75, 0
4, 195840, Note_on_c, 2, 71, 76
4, 195840, Note_on_c, 2, 62, 76
4, 196080, Note_on_c, 2, 62, 0
4, 196080, Note_on_c, 2, 71, 0
4, 196080, Note_on_c, 2, 74, 66
4, 196080, Note_on_c, 2, 71, 72
4, 196320, Note_on_c, 2, 71, 0
4, 196320, Note_on_c, 2, 74, 0
4, 196320, Note_on_c, 2, 77, 62
4, 196320, Note_on_c, 2, 74, 80
4, 196500, Note_on_c, 2, 74, 0
4, 196500, Note_on_c, 2, 77, 0
4, 196500, Note_on_c, 2, 75, 78
4, 196500, Note_on_c, 2, 72, 29
4, 196530, Note_on_c, 2, 72, 0
4, 196530, Note_on_c, 2, 75, 0
4, 196560, Note_on_c, 2, 71, 73
4, 196560, Note_on_c, 2, 74, 80
4, 196620, Note_on_c, 2, 74, 0
4, 196620, Note_on_c, 2, 71, 0
4, 196680, Note_on_c, 2, 72, 65
4, 196680, Note_on_c, 2, 68, 68
4, 196740, Note_on_c, 2, 68, 0
4, 196740, Note_on_c, 2, 72, 0
4, 196800, Note_on_c, 2, 71, 73
4, 196800, Note_on_c, 2, 67, 74
4, 196860, Note_on_c, 2, 67, 0
4, 196860, Note_on_c, 2, 71, 0
4, 196920, Note_on_c, 2, 65, 73
4, 196920, Note_on_c, 2, 68, 78
4, 196980, Note_on_c, 2, 68, 0
4, 196980, Note_on_c, 2, 65, 0
4, 197040, Note_on_c, 2, 67, 68
4, 197040, Note_on_c, 2, 63, 77
4, 197100, Note_on_c, 2, 63, 0
4, 197100, Note_on_c, 2, 67, 0
4, 197160, Note_on_c, 2, 62, 72
4, 197160, Note_on_c, 2, 65, 78
4, 197220, Note_on_c, 2, 65, 0
4, 197220, Note_on_c, 2, 62, 0
4, 197280, Note_on_c, 2, 63, 81
4, 197280, Note_on_c, 2, 60, 89
4, 197400, Note_on_c, 2, 60, 0
4, 197400, Note_on_c, 2, 63, 0
4, 197400, Note_on_c, 2, 75, 82
4, 197400, Note_on_c, 2, 72, 58
4, 197640, Note_on_c, 2, 72, 0
4, 197640, Note_on_c, 2, 75, 0
4, 197640, Note_on_c, 2, 72, 61
4, 197640, Note_on_c, 2, 75, 82
4, 197880, Note_on_c, 2, 75, 0
4, 197880, Note_on_c, 2, 72, 0
4, 197880, Note_on_c, 2, 75, 84
4, 197880, Note_on_c, 2, 72, 55
4, 198120, Note_on_c, 2, 72, 0
4, 198120, Note_on_c, 2, 75, 0
4, 198120, Note_on_c, 2, 72, 29
4, 198120, Note_on_c, 2, 75, 84
4, 198360, Note_on_c, 2, 75, 0
4, 198360, Note_on_c, 2, 72, 0
4, 198360, Note_on_c, 2, 72, 63
4, 198360, Note_on_c, 2, 75, 93
4, 198600, Note_on_c, 2, 75, 0
4, 198600, Note_on_c, 2, 72, 0
4, 198600, Note_on_c, 2, 75, 90
4, 198600, Note_on_c, 2, 72, 56
4, 198840, Note_on_c, 2, 72, 0
4, 198840, Note_on_c, 2, 75, 0
4, 198840, Note_on_c, 2, 72, 56
4, 198840, Note_on_c, 2, 75, 89
4, 199080, Note_on_c, 2, 75, 0
4, 199080, Note_on_c, 2, 72, 0
4, 199080, Note_on_c, 2, 72, 68
4, 199080, Note_on_c, 2, 75, 90
4, 199440, Note_on_c, 2, 75, 0
4, 199440, Note_on_c, 2, 72, 0
4, 256320, Note_on_c, 2, 75, 90
4, 256320, Note_on_c, 2, 72, 62
4, 256800, Note_on_c, 2, 72, 0
4, 256800, Note_on_c, 2, 75, 0
4, 256800, Note_on_c, 2, 74, 82
4, 256800, Note_on_c, 2, 77, 77
4, 257040, Note_on_c, 2, 77, 0
4, 257040, Note_on_c, 2, 74, 0
4, 257040, Note_on_c, 2, 71, 85
4, 257040, Note_on_c, 2, 74, 81
4, 257280, Note_on_c, 2, 74, 0
4, 257280, Note_on_c, 2, 71, 0
4, 257280, Note_on_c, 2, 63, 84
4, 257280, Note_on_c, 2, 72, 52
4, 257400, Note_on_c, 2, 72, 0
4, 257400, Note_on_c, 2, 63, 0
4, 257520, Note_on_c, 2, 63, 84
4, 257520, Note_on_c, 2, 72, 58
4, 257580, Note_on_c, 2, 72, 0
4, 257580, Note_on_c, 2, 63, 0
4, 258000, Note_on_c, 2, 75, 85
4, 258000, Note_on_c, 2, 72, 62
4, 258060, Note_on_c, 2, 72, 0
4, 258060, Note_on_c, 2, 75, 0
4, 258480, Note_on_c, 2, 60, 84
4, 258480, Note_on_c, 2, 72, 58
4, 258600, Note_on_c, 2, 72, 0
4, 258600, Note_on_c, 2, 60, 0
4, 258720, Note_on_c, 2, 67, 84
4, 258720, Note_on_c, 2, 79, 81
4, 258840, Note_on_c, 2, 79, 0
4, 258840, Note_on_c, 2, 67, 0
4, 258960, Note_on_c, 2, 63, 93
4, 258960, Note_on_c, 2, 75, 84
4, 259080, Note_on_c, 2, 75, 0
4, 259080, Note_on_c, 2, 63, 0
4, 259200, Note_on_c, 2, 63, 80
4, 259200, Note_on_c, 2, 72, 53
4, 259320, Note_on_c, 2, 72, 0
4, 259320, Note_on_c, 2, 63, 0
4, 259650, Note_on_c, 2, 72, 84
4, 259680, Note_on_c, 2, 72, 0
4, 259680, Note_on_c, 2, 72, 80
4, 259800, Note_on_c, 2, 72, 0
4, 260130, Note_on_c, 2, 72, 86
4, 260160, Note_on_c, 2, 72, 0
4, 260160, Note_on_c, 2, 72, 84
4, 260640, Note_on_c, 2, 72, 0
4, 260640, End_track
5, 0, Start_track
5, 0, MIDI_port, 0
5, 0, Title_t, "Bassoons"
5, 0, Program_c, 3, 70
5, 0, Control_c, 3, 7, 100
5, 0, Control_c, 3, 10, 89
5, 0, Control_c, 3, 93, 0
5, 0, Control_c, 3, 91, 66
5, 1920, Note_on_c, 3, 59, 61
5, 1920, Note_on_c, 3, 55, 51
5, 2160, Note_on_c, 3, 55, 0
5, 2160, Note_on_c, 3, 59, 0
5, 2160, Note_on_c, 3, 62, 52
5, 2160, Note_on_c, 3, 55, 61
5, 2400, Note_on_c, 3, 55, 0
5, 2400, Note_on_c, 3, 62, 0
5, 2400, Note_on_c, 3, 65, 67
5, 2400, Note_on_c, 3, 55, 76
5, 2580, Note_on_c, 3, 55, 0
5, 2580, Note_on_c, 3, 65, 0
5, 2580, Note_on_c, 3, 63, 64
5, 2580, Note_on_c, 3, 55, 57
5, 2610, Note_on_c, 3, 55, 0
5, 2610, Note_on_c, 3, 63, 0
5, 2640, Note_on_c, 3, 62, 50
5, 2640, Note_on_c, 3, 55, 61
5, 2700, Note_on_c, 3, 55, 0
5, 2700, Note_on_c, 3, 62, 0
5, 2760, Note_on_c, 3, 60, 46
5, 2760, Note_on_c, 3, 55, 45
5, 2820, Note_on_c, 3, 55, 0
5, 2820, Note_on_c, 3, 60, 0
5, 2880, Note_on_c, 3, 67, 40
5, 2880, Note_on_c, 3, 55, 45
5, 2940, Note_on_c, 3, 67, 0
5, 3000, Note_on_c, 3, 55, 0
5, 3060, Note_on_c, 3, 66, 58
5, 3090, Note_on_c, 3, 66, 0
5, 3120, Note_on_c, 3, 67, 53
5, 3120, Note_on_c, 3, 55, 48
5, 3180, Note_on_c, 3, 67, 0
5, 3240, Note_on_c, 3, 55, 0
5, 3300, Note_on_c, 3, 66, 64
5, 3330, Note_on_c, 3, 66, 0
5, 3360, Note_on_c, 3, 67, 46
5, 3360, Note_on_c, 3, 55, 43
5, 3420, Note_on_c, 3, 67, 0
5, 3480, Note_on_c, 3, 55, 0
5, 3840, Note_on_c, 3, 60, 40
5, 3840, Note_on_c, 3, 48, 56
5, 4320, Note_on_c, 3, 48, 0
5, 4320, Note_on_c, 3, 60, 0
5, 4320, Note_on_c, 3, 60, 53
5, 4320, Note_on_c, 3, 48, 59
5, 4440, Note_on_c, 3, 48, 0
5, 4440, Note_on_c, 3, 60, 0
5, 4440, Note_on_c, 3, 60, 72
5, 4440, Note_on_c, 3, 56, 58
5, 4680, Note_on_c, 3, 56, 0
5, 4680, Note_on_c, 3, 60, 0
5, 4680, Note_on_c, 3, 60, 43
5, 4680, Note_on_c, 3, 56, 56
5, 4800, Note_on_c, 3, 56, 0
5, 4800, Note_on_c, 3, 60, 0
5, 4800, Note_on_c, 3, 65, 62
5, 4800, Note_on_c, 3, 53, 66
5, 5280, Note_on_c, 3, 53, 0
5, 5280, Note_on_c, 3, 65, 0
5, 5280, Note_on_c, 3, 65, 61
5, 5280, Note_on_c, 3, 53, 46
5, 5400, Note_on_c, 3, 53, 0
5, 5400, Note_on_c, 3, 65, 0
5, 5400, Note_on_c, 3, 65, 66
5, 5400, Note_on_c, 3, 61, 73
5, 5640, Note_on_c, 3, 61, 0
5, 5640, Note_on_c, 3, 65, 0
5, 5640, Note_on_c, 3, 65, 43
5, 5640, Note_on_c, 3, 61, 55
5, 5760, Note_on_c, 3, 61, 0
5, 5760, Note_on_c, 3, 65, 0
5, 5760, Note_on_c, 3, 65, 45
5, 5760, Note_on_c, 3, 62, 45
5, 6000, Note_on_c, 3, 62, 0
5, 6000, Note_on_c, 3, 65, 0
5, 6360, Note_on_c, 3, 67, 74
5, 6360, Note_on_c, 3, 55, 76
5, 6600, Note_on_c, 3, 55, 0
5, 6600, Note_on_c, 3, 67, 0
5, 6600, Note_on_c, 3, 65, 57
5, 6600, Note_on_c, 3, 53, 68
5, 6720, Note_on_c, 3, 53, 0
5, 6720, Note_on_c, 3, 65, 0
5, 6720, Note_on_c, 3, 63, 45
5, 6720, Note_on_c, 3, 51, 57
5, 6780, Note_on_c, 3, 51, 0
5, 6780, Note_on_c, 3, 63, 0
5, 6840, Note_on_c, 3, 65, 78
5, 6840, Note_on_c, 3, 53, 84
5, 6900, Note_on_c, 3, 53, 0
5, 6900, Note_on_c, 3, 65, 0
5, 6960, Note_on_c, 3, 67, 73
5, 6960, Note_on_c, 3, 55, 84
5, 7020, Note_on_c, 3, 55, 0
5, 7020, Note_on_c, 3, 67, 0
5, 7080, Note_on_c, 3, 55, 78
5, 7080, Note_on_c, 3, 43, 81
5, 7140, Note_on_c, 3, 43, 0
5, 7140, Note_on_c, 3, 55, 0
5, 7200, Note_on_c, 3, 60, 74
5, 7200, Note_on_c, 3, 48, 82
5, 7320, Note_on_c, 3, 48, 0
5, 7320, Note_on_c, 3, 60, 0
5, 8640, Note_on_c, 3, 62, 43
5, 8640, Note_on_c, 3, 59, 53
5, 8760, Note_on_c, 3, 59, 0
5, 8760, Note_on_c, 3, 62, 0
5, 8880, Note_on_c, 3, 62, 44
5, 8880, Note_on_c, 3, 59, 54
5, 9000, Note_on_c, 3, 59, 0
5, 9000, Note_on_c, 3, 62, 0
5, 9120, Note_on_c, 3, 63, 61
5, 9120, Note_on_c, 3, 60, 46
5, 9240, Note_on_c, 3, 60, 0
5, 9240, Note_on_c, 3, 63, 0
5, 10560, Note_on_c, 3, 58, 54
5, 10560, Note_on_c, 3, 46, 61
5, 10680, Note_on_c, 3, 46, 0
5, 10680, Note_on_c, 3, 58, 0
5, 10800, Note_on_c, 3, 58, 45
5, 10800, Note_on_c, 3, 46, 45
5, 10920, Note_on_c, 3, 46, 0
5, 10920, Note_on_c, 3, 58, 0
5, 11040, Note_on_c, 3, 63, 73
5, 11040, Note_on_c, 3, 51, 89
5, 11160, Note_on_c, 3, 51, 0
5, 11160, Note_on_c, 3, 63, 0
5, 12000, Note_on_c, 3, 58, 76
5, 12000, Note_on_c, 3, 55, 74
5, 12600, Note_on_c, 3, 55, 0
5, 12600, Note_on_c, 3, 58, 0
5, 12600, Note_on_c, 3, 58, 81
5, 12600, Note_on_c, 3, 55, 76
5, 12720, Note_on_c, 3, 55, 0
5, 12720, Note_on_c, 3, 58, 0
5, 12720, Note_on_c, 3, 58, 76
5, 12720, Note_on_c, 3, 55, 63
5, 12840, Note_on_c, 3, 55, 0
5, 12840, Note_on_c, 3, 58, 0
5, 12840, Note_on_c, 3, 58, 76
5, 12840, Note_on_c, 3, 55, 76
5, 12960, Note_on_c, 3, 55, 0
5, 12960, Note_on_c, 3, 58, 0
5, 12960, Note_on_c, 3, 60, 74
5, 12960, Note_on_c, 3, 56, 76
5, 13080, Note_on_c, 3, 56, 0
5, 13080, Note_on_c, 3, 60, 0
5, 13440, Note_on_c, 3, 51, 81
5, 13500, Note_on_c, 3, 51, 0
5, 13500, Note_on_c, 3, 51, 86
5, 13560, Note_on_c, 3, 51, 0
5, 13560, Note_on_c, 3, 51, 84
5, 13620, Note_on_c, 3, 51, 0
5, 13620, Note_on_c, 3, 51, 84
5, 13680, Note_on_c, 3, 51, 0
5, 13680, Note_on_c, 3, 51, 85
5, 13740, Note_on_c, 3, 51, 0
5, 13740, Note_on_c, 3, 51, 84
5, 13800, Note_on_c, 3, 51, 0
5, 13800, Note_on_c, 3, 51, 89
5, 13860, Note_on_c, 3, 51, 0
5, 13860, Note_on_c, 3, 51, 78
5, 13920, Note_on_c, 3, 51, 0
5, 13920, Note_on_c, 3, 65, 99
5, 13920, Note_on_c, 3, 50, 86
5, 13980, Note_on_c, 3, 50, 0
5, 13980, Note_on_c, 3, 50, 93
5, 14040, Note_on_c, 3, 50, 0
5, 14040, Note_on_c, 3, 50, 90
5, 14100, Note_on_c, 3, 50, 0
5, 14100, Note_on_c, 3, 50, 89
5, 14160, Note_on_c, 3, 50, 0
5, 14160, Note_on_c, 3, 65, 0
5, 14160, Note_on_c, 3, 65, 94
5, 14160, Note_on_c, 3, 50, 81
5, 14220, Note_on_c, 3, 50, 0
5, 14220, Note_on_c, 3, 65, 0
5, 14220, Note_on_c, 3, 63, 89
5, 14220, Note_on_c, 3, 50, 86
5, 14280, Note_on_c, 3, 50, 0
5, 14280, Note_on_c, 3, 63, 0
5, 14280, Note_on_c, 3, 63, 84
5, 14280, Note_on_c, 3, 50, 89
5, 14340, Note_on_c, 3, 50, 0
5, 14340, Note_on_c, 3, 63, 0
5, 14340, Note_on_c, 3, 62, 99
5, 14340, Note_on_c, 3, 50, 89
5, 14400, Note_on_c, 3, 50, 0
5, 14400, Note_on_c, 3, 62, 0
5, 14400, Note_on_c, 3, 62, 82
5, 14400, Note_on_c, 3, 50, 89
5, 14460, Note_on_c, 3, 50, 0
5, 14460, Note_on_c, 3, 62, 0
5, 14460, Note_on_c, 3, 60, 84
5, 14460, Note_on_c, 3, 50, 89
5, 14520, Note_on_c, 3, 50, 0
5, 14520, Note_on_c, 3, 60, 0
5, 14520, Note_on_c, 3, 60, 89
5, 14520, Note_on_c, 3, 50, 90
5, 14580, Note_on_c, 3, 50, 0
5, 14580, Note_on_c, 3, 60, 0
5, 14580, Note_on_c, 3, 58, 86
5, 14580, Note_on_c, 3, 50, 89
5, 14640, Note_on_c, 3, 50, 0
5, 14640, Note_on_c, 3, 58, 0
5, 14640, Note_on_c, 3, 58, 89
5, 14640, Note_on_c, 3, 50, 84
5, 14700, Note_on_c, 3, 50, 0
5, 14700, Note_on_c, 3, 58, 0
5, 14700, Note_on_c, 3, 59, 89
5, 14700, Note_on_c, 3, 50, 86
5, 14760, Note_on_c, 3, 50, 0
5, 14760, Note_on_c, 3, 59, 0
5, 14760, Note_on_c, 3, 60, 89
5, 14760, Note_on_c, 3, 50, 86
5, 14820, Note_on_c, 3, 50, 0
5, 14820, Note_on_c, 3, 60, 0
5, 14820, Note_on_c, 3, 56, 86
5, 14820, Note_on_c, 3, 50, 89
5, 14880, Note_on_c, 3, 50, 0
5, 14880, Note_on_c, 3, 56, 0
5, 14880, Note_on_c, 3, 61, 89
5, 14880, Note_on_c, 3, 55, 95
5, 15000, Note_on_c, 3, 55, 0
5, 15480, Note_on_c, 3, 61, 0
5, 15480, Note_on_c, 3, 63, 89
5, 15480, Note_on_c, 3, 61, 84
5, 15600, Note_on_c, 3, 61, 0
5, 15600, Note_on_c, 3, 63, 0
5, 15600, Note_on_c, 3, 63, 89
5, 15600, Note_on_c, 3, 61, 84
5, 15720, Note_on_c, 3, 61, 0
5, 15720, Note_on_c, 3, 63, 0
5, 15720, Note_on_c, 3, 63, 89
5, 15720, Note_on_c, 3, 61, 82
5, 15840, Note_on_c, 3, 61, 0
5, 15840, Note_on_c, 3, 63, 0
5, 15840, Note_on_c, 3, 63, 95
5, 15840, Note_on_c, 3, 60, 89
5, 16320, Note_on_c, 3, 60, 0
5, 16320, Note_on_c, 3, 59, 89
5, 16440, Note_on_c, 3, 63, 0
5, 16440, Note_on_c, 3, 66, 95
5, 16560, Note_on_c, 3, 66, 0
5, 16560, Note_on_c, 3, 65, 90
5, 16680, Note_on_c, 3, 65, 0
5, 16680, Note_on_c, 3, 63, 90
5, 16800, Note_on_c, 3, 63, 0
5, 16800, Note_on_c, 3, 59, 0
5, 16800, Note_on_c, 3, 62, 78
5, 16800, Note_on_c, 3, 58, 72
5, 16920, Note_on_c, 3, 58, 0
5, 16920, Note_on_c, 3, 62, 0
5, 16920, Note_on_c, 3, 46, 115
5, 17040, Note_on_c, 3, 46, 0
5, 17040, Note_on_c, 3, 48, 94
5, 17160, Note_on_c, 3, 48, 0
5, 17160, Note_on_c, 3, 50, 94
5, 17280, Note_on_c, 3, 50, 0
5, 17280, Note_on_c, 3, 51, 86
5, 17340, Note_on_c, 3, 51, 0
5, 17400, Note_on_c, 3, 51, 117
5, 17520, Note_on_c, 3, 51, 0
5, 17520, Note_on_c, 3, 53, 84
5, 17640, Note_on_c, 3, 53, 0
5, 17640, Note_on_c, 3, 54, 81
5, 17760, Note_on_c, 3, 54, 0
5, 17760, Note_on_c, 3, 53, 93
5, 17820, Note_on_c, 3, 53, 0
5, 17880, Note_on_c, 3, 53, 119
5, 18000, Note_on_c, 3, 53, 0
5, 18000, Note_on_c, 3, 58, 84
5, 18120, Note_on_c, 3, 58, 0
5, 18120, Note_on_c, 3, 56, 80
5, 18240, Note_on_c, 3, 56, 0
5, 18240, Note_on_c, 3, 56, 80
5, 18300, Note_on_c, 3, 56, 0
5, 18360, Note_on_c, 3, 54, 112
5, 18480, Note_on_c, 3, 54, 0
5, 18480, Note_on_c, 3, 53, 77
5, 18600, Note_on_c, 3, 53, 0
5, 18600, Note_on_c, 3, 51, 80
5, 18720, Note_on_c, 3, 51, 0
5, 18720, Note_on_c, 3, 50, 94
5, 18780, Note_on_c, 3, 50, 0
5, 18840, Note_on_c, 3, 46, 95
5, 18960, Note_on_c, 3, 46, 0
5, 18960, Note_on_c, 3, 48, 86
5, 19080, Note_on_c, 3, 48, 0
5, 19080, Note_on_c, 3, 50, 94
5, 19200, Note_on_c, 3, 50, 0
5, 19200, Note_on_c, 3, 51, 80
5, 19260, Note_on_c, 3, 51, 0
5, 19320, Note_on_c, 3, 51, 99
5, 19440, Note_on_c, 3, 51, 0
5, 19440, Note_on_c, 3, 53, 80
5, 19560, Note_on_c, 3, 53, 0
5, 19560, Note_on_c, 3, 54, 76
5, 19680, Note_on_c, 3, 54, 0
5, 19680, Note_on_c, 3, 53, 86
5, 19740, Note_on_c, 3, 53, 0
5, 19800, Note_on_c, 3, 53, 94
5, 19920, Note_on_c, 3, 53, 0
5, 19920, Note_on_c, 3, 58, 77
5, 20040, Note_on_c, 3, 58, 0
5, 20040, Note_on_c, 3, 56, 84
5, 20160, Note_on_c, 3, 56, 0
5, 20160, Note_on_c, 3, 56, 71
5, 20220, Note_on_c, 3, 56, 0
5, 20280, Note_on_c, 3, 54, 94
5, 20400, Note_on_c, 3, 54, 0
5, 20400, Note_on_c, 3, 53, 78
5, 20520, Note_on_c, 3, 53, 0
5, 20520, Note_on_c, 3, 51, 60
5, 20640, Note_on_c, 3, 51, 0
5, 20760, Note_on_c, 3, 65, 78
5, 20760, Note_on_c, 3, 62, 80
5, 20880, Note_on_c, 3, 62, 0
5, 20880, Note_on_c, 3, 65, 0
5, 20880, Note_on_c, 3, 66, 90
5, 20880, Note_on_c, 3, 63, 86
5, 21120, Note_on_c, 3, 63, 0
5, 21120, Note_on_c, 3, 66, 0
5, 21120, Note_on_c, 3, 65, 73
5, 21120, Note_on_c, 3, 62, 72
5, 21240, Note_on_c, 3, 62, 0
5, 21240, Note_on_c, 3, 65, 0
5, 21240, Note_on_c, 3, 46, 84
5, 21300, Note_on_c, 3, 46, 0
5, 21360, Note_on_c, 3, 47, 90
5, 21420, Note_on_c, 3, 47, 0
5, 21480, Note_on_c, 3, 47, 90
5, 21540, Note_on_c, 3, 47, 0
5, 21600, Note_on_c, 3, 46, 86
5, 21660, Note_on_c, 3, 46, 0
5, 21720, Note_on_c, 3, 66, 93
5, 21720, Note_on_c, 3, 63, 85
5, 21840, Note_on_c, 3, 63, 0
5, 21840, Note_on_c, 3, 66, 0
5, 21840, Note_on_c, 3, 65, 78
5, 21840, Note_on_c, 3, 62, 74
5, 21960, Note_on_c, 3, 62, 0
5, 21960, Note_on_c, 3, 65, 0
5, 21960, Note_on_c, 3, 63, 74
5, 21960, Note_on_c, 3, 59, 77
5, 22020, Note_on_c, 3, 59, 0
5, 22020, Note_on_c, 3, 63, 0
5, 22080, Note_on_c, 3, 62, 64
5, 22080, Note_on_c, 3, 58, 72
5, 22140, Note_on_c, 3, 58, 0
5, 22140, Note_on_c, 3, 62, 0
5, 22200, Note_on_c, 3, 66, 89
5, 22200, Note_on_c, 3, 63, 74
5, 22320, Note_on_c, 3, 63, 0
5, 22320, Note_on_c, 3, 66, 0
5, 22320, Note_on_c, 3, 65, 74
5, 22320, Note_on_c, 3, 62, 85
5, 22440, Note_on_c, 3, 62, 0
5, 22440, Note_on_c, 3, 65, 0
5, 22440, Note_on_c, 3, 63, 68
5, 22440, Note_on_c, 3, 59, 80
5, 22500, Note_on_c, 3, 59, 0
5, 22500, Note_on_c, 3, 63, 0
5, 22560, Note_on_c, 3, 62, 73
5, 22560, Note_on_c, 3, 58, 76
5, 22620, Note_on_c, 3, 58, 0
5, 22620, Note_on_c, 3, 62, 0
5, 22800, Note_on_c, 3, 62, 45
5, 22800, Note_on_c, 3, 58, 56
5, 23040, Note_on_c, 3, 58, 0
5, 23040, Note_on_c, 3, 62, 0
5, 23040, Control_c, 3, 7, 99
5, 23040, Note_on_c, 3, 63, 46
5, 23040, Note_on_c, 3, 60, 42
5, 23050, Control_c, 3, 7, 100
5, 23060, Control_c, 3, 7, 101
5, 23070, Control_c, 3, 7, 102
5, 23080, Control_c, 3, 7, 103
5, 23090, Control_c, 3, 7, 104
5, 23095, Control_c, 3, 7, 105
5, 23105, Control_c, 3, 7, 106
5, 23115, Control_c, 3, 7, 107
5, 23125, Control_c, 3, 7, 108
5, 23135, Control_c, 3, 7, 109
5, 23140, Control_c, 3, 7, 110
5, 23150, Control_c, 3, 7, 111
5, 23160, Control_c, 3, 7, 112
5, 23170, Control_c, 3, 7, 113
5, 23180, Control_c, 3, 7, 114
5, 23190, Control_c, 3, 7, 115
5, 23195, Control_c, 3, 7, 116
5, 23205, Control_c, 3, 7, 117
5, 23215, Control_c, 3, 7, 118
5, 23225, Control_c, 3, 7, 119
5, 23235, Control_c, 3, 7, 120
5, 23240, Control_c, 3, 7, 121
5, 23250, Control_c, 3, 7, 122
5, 23260, Control_c, 3, 7, 123
5, 23270, Control_c, 3, 7, 124
5, 23280, Note_on_c, 3, 60, 0
5, 23280, Note_on_c, 3, 63, 0
5, 23280, Note_on_c, 3, 65, 43
5, 23280, Note_on_c, 3, 62, 45
5, 23280, Control_c, 3, 7, 126
5, 23290, Control_c, 3, 7, 125
5, 23300, Control_c, 3, 7, 124
5, 23310, Control_c, 3, 7, 123
5, 23320, Control_c, 3, 7, 122
5, 23325, Control_c, 3, 7, 121
5, 23335, Control_c, 3, 7, 120
5, 23345, Control_c, 3, 7, 119
5, 23355, Control_c, 3, 7, 118
5, 23360, Control_c, 3, 7, 117
5, 23370, Control_c, 3, 7, 116
5, 23380, Control_c, 3, 7, 115
5, 23390, Control_c, 3, 7, 114
5, 23400, Control_c, 3, 7, 113
5, 23405, Control_c, 3, 7, 112
5, 23415, Control_c, 3, 7, 111
5, 23425, Control_c, 3, 7, 110
5, 23435, Control_c, 3, 7, 109
5, 23440, Control_c, 3, 7, 108
5, 23450, Control_c, 3, 7, 107
5, 23460, Control_c, 3, 7, 106
5, 23470, Control_c, 3, 7, 105
5, 23480, Control_c, 3, 7, 104
5, 23485, Control_c, 3, 7, 103
5, 23495, Control_c, 3, 7, 102
5, 23505, Control_c, 3, 7, 101
5, 23515, Control_c, 3, 7, 100
5, 23520, Note_on_c, 3, 62, 0
5, 23520, Note_on_c, 3, 65, 0
5, 23520, Note_on_c, 3, 67, 44
5, 23520, Note_on_c, 3, 63, 67
5, 23520, Control_c, 3, 7, 99
5, 23640, Note_on_c, 3, 63, 0
5, 23640, Note_on_c, 3, 67, 0
5, 24600, Note_on_c, 3, 65, 60
5, 24600, Note_on_c, 3, 62, 49
5, 24690, Note_on_c, 3, 62, 0
5, 24690, Note_on_c, 3, 65, 0
5, 24720, Note_on_c, 3, 65, 58
5, 24720, Note_on_c, 3, 62, 50
5, 24810, Note_on_c, 3, 62, 0
5, 24810, Note_on_c, 3, 65, 0
5, 24840, Note_on_c, 3, 66, 62
5, 24840, Note_on_c, 3, 62, 65
5, 24930, Note_on_c, 3, 62, 0
5, 24930, Note_on_c, 3, 66, 0
5, 24960, Note_on_c, 3, 66, 68
5, 24960, Note_on_c, 3, 62, 68
5, 25200, Note_on_c, 3, 62, 0
5, 25200, Note_on_c, 3, 66, 0
5, 25200, Note_on_c, 3, 67, 45
5, 25200, Note_on_c, 3, 63, 56
5, 25320, Note_on_c, 3, 63, 0
5, 25320, Note_on_c, 3, 67, 0
5, 26280, Note_on_c, 3, 67, 52
5, 26280, Note_on_c, 3, 60, 71
5, 26400, Note_on_c, 3, 67, 0
5, 26400, Note_on_c, 3, 65, 53
5, 26520, Note_on_c, 3, 65, 0
5, 26520, Note_on_c, 3, 60, 0
5, 26520, Note_on_c, 3, 65, 45
5, 26520, Note_on_c, 3, 58, 55
5, 26640, Note_on_c, 3, 65, 0
5, 26640, Note_on_c, 3, 63, 45
5, 26760, Note_on_c, 3, 63, 0
5, 26760, Note_on_c, 3, 58, 0
5, 26760, Note_on_c, 3, 65, 44
5, 26760, Note_on_c, 3, 60, 42
5, 26880, Note_on_c, 3, 60, 0
5, 26880, Note_on_c, 3, 65, 0
5, 26880, Note_on_c, 3, 63, 46
5, 26880, Note_on_c, 3, 58, 54
5, 27120, Note_on_c, 3, 63, 0
5, 27120, Note_on_c, 3, 62, 40
5, 27240, Note_on_c, 3, 62, 0
5, 27240, Note_on_c, 3, 58, 0
5, 27840, Note_on_c, 3, 63, 52
5, 28080, Note_on_c, 3, 63, 0
5, 28080, Note_on_c, 3, 62, 60
5, 28140, Note_on_c, 3, 62, 0
5, 28140, Note_on_c, 3, 63, 58
5, 28200, Note_on_c, 3, 63, 0
5, 28200, Note_on_c, 3, 65, 49
5, 28260, Note_on_c, 3, 65, 0
5, 28260, Note_on_c, 3, 62, 63
5, 28320, Note_on_c, 3, 62, 0
5, 28320, Note_on_c, 3, 60, 54
5, 28380, Note_on_c, 3, 60, 0
5, 28440, Note_on_c, 3, 62, 49
5, 28500, Note_on_c, 3, 62, 0
5, 28560, Note_on_c, 3, 63, 58
5, 28620, Note_on_c, 3, 63, 0
5, 28680, Note_on_c, 3, 66, 46
5, 28740, Note_on_c, 3, 66, 0
5, 28800, Note_on_c, 3, 67, 57
5, 28920, Note_on_c, 3, 65, 53
5, 29040, Note_on_c, 3, 65, 0
5, 29040, Note_on_c, 3, 64, 76
5, 29160, Note_on_c, 3, 64, 0
5, 29160, Note_on_c, 3, 67, 0
5, 29160, Note_on_c, 3, 65, 69
5, 29160, Note_on_c, 3, 62, 72
5, 29280, Note_on_c, 3, 62, 0
5, 29280, Note_on_c, 3, 65, 0
5, 29280, Note_on_c, 3, 64, 51
5, 29280, Note_on_c, 3, 60, 43
5, 29520, Note_on_c, 3, 60, 0
5, 29520, Note_on_c, 3, 64, 0
5, 29520, Note_on_c, 3, 65, 64
5, 29520, Note_on_c, 3, 59, 65
5, 29760, Note_on_c, 3, 59, 0
5, 29760, Note_on_c, 3, 65, 0
5, 29760, Note_on_c, 3, 64, 53
5, 29760, Note_on_c, 3, 60, 58
5, 30120, Note_on_c, 3, 60, 0
5, 30120, Note_on_c, 3, 64, 0
5, 30120, Note_on_c, 3, 60, 63
5, 30120, Note_on_c, 3, 55, 68
5, 30240, Note_on_c, 3, 55, 0
5, 30240, Note_on_c, 3, 60, 0
5, 30240, Note_on_c, 3, 62, 50
5, 30240, Note_on_c, 3, 59, 61
5, 30330, Note_on_c, 3, 59, 0
5, 30330, Note_on_c, 3, 62, 0
5, 30360, Note_on_c, 3, 62, 57
5, 30360, Note_on_c, 3, 59, 62
5, 30450, Note_on_c, 3, 59, 0
5, 30450, Note_on_c, 3, 62, 0
5, 30480, Note_on_c, 3, 62, 58
5, 30480, Note_on_c, 3, 59, 65
5, 30570, Note_on_c, 3, 59, 0
5, 30570, Note_on_c, 3, 62, 0
5, 30600, Note_on_c, 3, 63, 43
5, 30600, Note_on_c, 3, 59, 73
5, 30690, Note_on_c, 3, 59, 0
5, 30690, Note_on_c, 3, 63, 0
5, 30720, Note_on_c, 3, 63, 43
5, 30720, Note_on_c, 3, 59, 72
5, 30960, Note_on_c, 3, 59, 0
5, 30960, Note_on_c, 3, 63, 0
5, 30960, Note_on_c, 3, 64, 58
5, 30960, Note_on_c, 3, 60, 64
5, 31080, Note_on_c, 3, 60, 0
5, 31080, Note_on_c, 3, 64, 0
5, 31080, Note_on_c, 3, 58, 68
5, 31140, Note_on_c, 3, 60, 72
5, 31200, Note_on_c, 3, 60, 0
5, 31200, Note_on_c, 3, 58, 0
5, 31200, Note_on_c, 3, 65, 80
5, 31200, Note_on_c, 3, 57, 94
5, 31440, Note_on_c, 3, 57, 0
5, 31440, Note_on_c, 3, 65, 0
5, 31440, Note_on_c, 3, 64, 73
5, 31440, Note_on_c, 3, 55, 73
5, 31560, Note_on_c, 3, 55, 0
5, 31560, Note_on_c, 3, 64, 0
5, 31620, Note_on_c, 3, 60, 81
5, 31680, Note_on_c, 3, 60, 0
5, 31680, Note_on_c, 3, 60, 76
5, 31680, Note_on_c, 3, 53, 84
5, 31920, Note_on_c, 3, 53, 0
5, 31920, Note_on_c, 3, 60, 0
5, 31920, Note_on_c, 3, 60, 67
5, 31920, Note_on_c, 3, 52, 82
5, 32040, Note_on_c, 3, 52, 0
5, 32040, Note_on_c, 3, 60, 0
5, 32100, Note_on_c, 3, 65, 73
5, 32100, Note_on_c, 3, 62, 72
5, 32160, Note_on_c, 3, 62, 0
5, 32160, Note_on_c, 3, 65, 0
5, 32160, Note_on_c, 3, 64, 71
5, 32160, Note_on_c, 3, 60, 66
5, 32220, Note_on_c, 3, 60, 0
5, 32220, Note_on_c, 3, 64, 0
5, 32280, Note_on_c, 3, 64, 76
5, 32280, Note_on_c, 3, 60, 72
5, 32340, Note_on_c, 3, 60, 0
5, 32340, Note_on_c, 3, 64, 0
5, 32400, Note_on_c, 3, 64, 73
5, 32400, Note_on_c, 3, 60, 72
5, 32460, Note_on_c, 3, 60, 0
5, 32460, Note_on_c, 3, 64, 0
5, 32460, Note_on_c, 3, 62, 65
5, 32460, Note_on_c, 3, 59, 74
5, 32520, Note_on_c, 3, 59, 0
5, 32520, Note_on_c, 3, 62, 0
5, 32520, Note_on_c, 3, 60, 73
5, 32520, Note_on_c, 3, 57, 80
5, 32580, Note_on_c, 3, 57, 0
5, 32580, Note_on_c, 3, 60, 0
5, 32580, Note_on_c, 3, 62, 52
5, 32580, Note_on_c, 3, 59, 72
5, 32640, Note_on_c, 3, 59, 0
5, 32640, Note_on_c, 3, 62, 0
5, 32640, Note_on_c, 3, 62, 78
5, 32640, Note_on_c, 3, 59, 80
5, 32820, Note_on_c, 3, 62, 0
5, 32820, Note_on_c, 3, 63, 76
5, 32880, Note_on_c, 3, 63, 0
5, 32880, Note_on_c, 3, 59, 0
5, 32880, Note_on_c, 3, 64, 73
5, 32880, Note_on_c, 3, 60, 64
5, 33000, Note_on_c, 3, 60, 0
5, 33000, Note_on_c, 3, 64, 0
5, 33120, Note_on_c, 3, 56, 71
5, 33180, Note_on_c, 3, 56, 0
5, 33240, Note_on_c, 3, 44, 78
5, 33300, Note_on_c, 3, 44, 0
5, 33360, Note_on_c, 3, 43, 61
5, 33420, Note_on_c, 3, 43, 0
5, 33480, Note_on_c, 3, 55, 71
5, 33540, Note_on_c, 3, 55, 0
5, 33600, Note_on_c, 3, 53, 72
5, 33660, Note_on_c, 3, 53, 0
5, 33720, Note_on_c, 3, 65, 73
5, 33780, Note_on_c, 3, 65, 0
5, 33840, Note_on_c, 3, 51, 76
5, 33900, Note_on_c, 3, 51, 0
5, 33960, Note_on_c, 3, 63, 69
5, 34020, Note_on_c, 3, 63, 0
5, 34080, Note_on_c, 3, 60, 62
5, 34080, Note_on_c, 3, 57, 58
5, 34320, Note_on_c, 3, 57, 0
5, 34320, Note_on_c, 3, 60, 0
5, 34320, Note_on_c, 3, 62, 67
5, 34320, Note_on_c, 3, 59, 73
5, 34560, Note_on_c, 3, 59, 0
5, 34560, Note_on_c, 3, 62, 0
5, 34560, Note_on_c, 3, 60, 86
5, 34620, Note_on_c, 3, 60, 0
5, 34680, Note_on_c, 3, 53, 84
5, 34740, Note_on_c, 3, 53, 0
5, 34800, Note_on_c, 3, 55, 90
5, 34860, Note_on_c, 3, 55, 0
5, 34920, Note_on_c, 3, 43, 94
5, 34980, Note_on_c, 3, 43, 0
5, 35040, Note_on_c, 3, 60, 80
5, 35040, Note_on_c, 3, 48, 89
5, 35160, Control_c, 3, 7, 99
5, 35165, Control_c, 3, 7, 96
5, 35170, Control_c, 3, 7, 93
5, 35175, Control_c, 3, 7, 90
5, 35180, Control_c, 3, 7, 87
5, 35185, Control_c, 3, 7, 84
5, 35190, Control_c, 3, 7, 81
5, 35195, Control_c, 3, 7, 78
5, 35200, Control_c, 3, 7, 75
5, 35205, Control_c, 3, 7, 72
5, 35210, Control_c, 3, 7, 69
5, 35215, Control_c, 3, 7, 66
5, 35280, Note_on_c, 3, 48, 0
5, 35280, Note_on_c, 3, 60, 0
5, 35280, Note_on_c, 3, 64, 93
5, 35280, Note_on_c, 3, 52, 95
5, 35520, Note_on_c, 3, 52, 0
5, 35520, Note_on_c, 3, 64, 0
5, 35520, Note_on_c, 3, 67, 80
5, 35520, Note_on_c, 3, 55, 84
5, 35700, Note_on_c, 3, 55, 0
5, 35700, Note_on_c, 3, 67, 0
5, 35700, Note_on_c, 3, 65, 84
5, 35700, Note_on_c, 3, 53, 81
5, 35730, Note_on_c, 3, 53, 0
5, 35730, Note_on_c, 3, 65, 0
5, 35760, Note_on_c, 3, 64, 90
5, 35760, Note_on_c, 3, 52, 94
5, 35820, Note_on_c, 3, 52, 0
5, 35820, Note_on_c, 3, 64, 0
5, 35880, Note_on_c, 3, 61, 74
5, 35880, Note_on_c, 3, 49, 89
5, 35940, Note_on_c, 3, 49, 0
5, 35940, Note_on_c, 3, 61, 0
5, 36000, Note_on_c, 3, 60, 80
5, 36000, Note_on_c, 3, 48, 89
5, 36060, Note_on_c, 3, 48, 0
5, 36060, Note_on_c, 3, 60, 0
5, 36120, Note_on_c, 3, 58, 84
5, 36120, Note_on_c, 3, 46, 94
5, 36180, Note_on_c, 3, 46, 0
5, 36180, Note_on_c, 3, 58, 0
5, 36240, Note_on_c, 3, 56, 78
5, 36240, Note_on_c, 3, 44, 84
5, 36300, Note_on_c, 3, 44, 0
5, 36300, Note_on_c, 3, 56, 0
5, 36360, Note_on_c, 3, 55, 80
5, 36360, Note_on_c, 3, 43, 89
5, 36420, Note_on_c, 3, 43, 0
5, 36420, Note_on_c, 3, 55, 0
5, 36480, Note_on_c, 3, 53, 76
5, 36480, Note_on_c, 3, 41, 85
5, 36600, Note_on_c, 3, 41, 0
5, 36600, Note_on_c, 3, 53, 0
5, 36720, Control_c, 3, 7, 99
5, 37920, Note_on_c, 3, 59, 89
5, 37920, Note_on_c, 3, 55, 82
5, 38160, Note_on_c, 3, 55, 0
5, 38160, Note_on_c, 3, 59, 0
5, 38160, Note_on_c, 3, 62, 81
5, 38160, Note_on_c, 3, 59, 86
5, 38400, Note_on_c, 3, 59, 0
5, 38400, Note_on_c, 3, 62, 0
5, 38400, Note_on_c, 3, 65, 99
5, 38400, Note_on_c, 3, 62, 99
5, 38580, Note_on_c, 3, 62, 0
5, 38580, Note_on_c, 3, 65, 0
5, 38580, Note_on_c, 3, 63, 89
5, 38580, Note_on_c, 3, 60, 84
5, 38610, Note_on_c, 3, 60, 0
5, 38610, Note_on_c, 3, 63, 0
5, 38640, Note_on_c, 3, 62, 80
5, 38640, Note_on_c, 3, 59, 80
5, 38700, Note_on_c, 3, 59, 0
5, 38700, Note_on_c, 3, 62, 0
5, 38760, Note_on_c, 3, 60, 90
5, 38760, Note_on_c, 3, 56, 85
5, 38820, Note_on_c, 3, 56, 0
5, 38820, Note_on_c, 3, 60, 0
5, 38880, Note_on_c, 3, 59, 93
5, 38880, Note_on_c, 3, 55, 89
5, 38940, Note_on_c, 3, 55, 0
5, 38940, Note_on_c, 3, 59, 0
5, 39000, Note_on_c, 3, 56, 90
5, 39000, Note_on_c, 3, 53, 84
5, 39060, Note_on_c, 3, 53, 0
5, 39060, Note_on_c, 3, 56, 0
5, 39120, Note_on_c, 3, 55, 76
5, 39120, Note_on_c, 3, 51, 84
5, 39180, Note_on_c, 3, 51, 0
5, 39180, Note_on_c, 3, 55, 0
5, 39240, Note_on_c, 3, 53, 94
5, 39240, Note_on_c, 3, 50, 85
5, 39300, Note_on_c, 3, 50, 0
5, 39300, Note_on_c, 3, 53, 0
5, 39360, Note_on_c, 3, 51, 94
5, 39360, Note_on_c, 3, 48, 89
5, 39480, Note_on_c, 3, 48, 0
5, 39480, Note_on_c, 3, 51, 0
5, 39480, Note_on_c, 3, 60, 94
5, 39480, Note_on_c, 3, 56, 94
5, 39600, Note_on_c, 3, 56, 0
5, 39600, Note_on_c, 3, 60, 0
5, 39720, Note_on_c, 3, 65, 94
5, 39720, Note_on_c, 3, 53, 93
5, 39840, Note_on_c, 3, 53, 0
5, 39840, Note_on_c, 3, 65, 0
5, 39960, Note_on_c, 3, 67, 85
5, 39960, Note_on_c, 3, 55, 93
5, 40080, Note_on_c, 3, 55, 0
5, 40080, Note_on_c, 3, 67, 0
5, 40200, Note_on_c, 3, 55, 99
5, 40200, Note_on_c, 3, 43, 99
5, 40320, Note_on_c, 3, 43, 0
5, 40320, Note_on_c, 3, 55, 0
5, 40320, Note_on_c, 3, 60, 94
5, 40320, Note_on_c, 3, 48, 99
5, 40440, Note_on_c, 3, 48, 0
5, 40440, Note_on_c, 3, 60, 0
5, 40440, Note_on_c, 3, 63, 59
5, 40530, Note_on_c, 3, 63, 0
5, 40560, Note_on_c, 3, 63, 67
5, 40650, Note_on_c, 3, 63, 0
5, 40680, Note_on_c, 3, 63, 64
5, 40770, Note_on_c, 3, 63, 0
5, 40800, Note_on_c, 3, 63, 62
5, 41040, Note_on_c, 3, 63, 0
5, 41040, Note_on_c, 3, 62, 76
5, 41220, Note_on_c, 3, 62, 0
5, 41220, Note_on_c, 3, 60, 77
5, 41280, Note_on_c, 3, 60, 0
5, 41280, Note_on_c, 3, 65, 61
5, 41400, Note_on_c, 3, 65, 0
5, 41520, Note_on_c, 3, 53, 73
5, 41640, Note_on_c, 3, 53, 0
5, 41760, Note_on_c, 3, 55, 68
5, 41880, Note_on_c, 3, 55, 0
5, 42000, Note_on_c, 3, 43, 68
5, 42120, Note_on_c, 3, 43, 0
5, 42240, Note_on_c, 3, 48, 81
5, 42360, Note_on_c, 3, 48, 0
5, 42360, Note_on_c, 3, 63, 60
5, 42450, Note_on_c, 3, 63, 0
5, 42480, Note_on_c, 3, 63, 64
5, 42570, Note_on_c, 3, 63, 0
5, 42600, Note_on_c, 3, 63, 62
5, 42690, Note_on_c, 3, 63, 0
5, 42720, Note_on_c, 3, 63, 72
5, 42960, Note_on_c, 3, 63, 0
5, 42960, Note_on_c, 3, 62, 71
5, 43140, Note_on_c, 3, 62, 0
5, 43140, Note_on_c, 3, 60, 76
5, 43200, Note_on_c, 3, 60, 0
5, 43200, Note_on_c, 3, 68, 66
5, 43200, Note_on_c, 3, 56, 68
5, 43440, Note_on_c, 3, 56, 0
5, 43440, Note_on_c, 3, 68, 0
5, 43440, Note_on_c, 3, 67, 66
5, 43440, Note_on_c, 3, 55, 74
5, 43620, Note_on_c, 3, 55, 0
5, 43620, Note_on_c, 3, 67, 0
5, 43620, Note_on_c, 3, 65, 73
5, 43620, Note_on_c, 3, 53, 80
5, 43680, Note_on_c, 3, 53, 0
5, 43680, Note_on_c, 3, 65, 0
5, 43680, Note_on_c, 3, 65, 57
5, 43680, Note_on_c, 3, 53, 45
5, 43800, Note_on_c, 3, 53, 0
5, 43800, Note_on_c, 3, 65, 0
5, 44160, Note_on_c, 3, 62, 45
5, 44160, Note_on_c, 3, 59, 65
5, 44400, Note_on_c, 3, 59, 0
5, 44400, Note_on_c, 3, 62, 0
5, 44400, Note_on_c, 3, 63, 52
5, 44400, Note_on_c, 3, 60, 59
5, 44580, Note_on_c, 3, 60, 0
5, 44580, Note_on_c, 3, 63, 0
5, 44580, Note_on_c, 3, 65, 62
5, 44580, Note_on_c, 3, 62, 64
5, 44640, Note_on_c, 3, 62, 0
5, 44640, Note_on_c, 3, 65, 0
5, 44640, Note_on_c, 3, 65, 58
5, 44640, Note_on_c, 3, 62, 74
5, 45120, Note_on_c, 3, 62, 0
5, 45120, Note_on_c, 3, 65, 0
5, 45120, Note_on_c, 3, 64, 72
5, 45120, Note_on_c, 3, 61, 68
5, 45600, Note_on_c, 3, 61, 0
5, 45600, Note_on_c, 3, 64, 0
5, 45600, Note_on_c, 3, 60, 80
5, 45600, Note_on_c, 3, 60, 94
5, 45660, Note_on_c, 3, 60, 0
5, 45660, Note_on_c, 3, 57, 95
5, 45720, Note_on_c, 3, 57, 0
5, 45720, Note_on_c, 3, 60, 73
5, 45840, Note_on_c, 3, 60, 0
5, 45900, Note_on_c, 3, 56, 82
5, 45960, Note_on_c, 3, 56, 0
5, 45960, Note_on_c, 3, 60, 69
5, 46080, Note_on_c, 3, 60, 0
5, 46080, Note_on_c, 3, 60, 0
5, 46080, Note_on_c, 3, 60, 68
5, 46140, Note_on_c, 3, 55, 45
5, 46200, Note_on_c, 3, 55, 0
5, 46200, Note_on_c, 3, 60, 53
5, 46320, Note_on_c, 3, 60, 0
5, 46320, Note_on_c, 3, 60, 0
5, 46320, Note_on_c, 3, 59, 73
5, 46380, Note_on_c, 3, 43, 81
5, 46440, Note_on_c, 3, 43, 0
5, 46440, Note_on_c, 3, 55, 58
5, 46560, Note_on_c, 3, 55, 0
5, 46560, Note_on_c, 3, 59, 0
5, 46560, Note_on_c, 3, 60, 62
5, 46560, Note_on_c, 3, 48, 65
5, 46680, Note_on_c, 3, 48, 0
5, 46680, Note_on_c, 3, 60, 0
5, 47040, Note_on_c, 3, 65, 74
5, 47040, Note_on_c, 3, 62, 68
5, 47520, Note_on_c, 3, 62, 0
5, 47520, Note_on_c, 3, 65, 0
5, 47520, Note_on_c, 3, 63, 58
5, 47520, Note_on_c, 3, 60, 58
5, 47640, Note_on_c, 3, 60, 0
5, 47640, Note_on_c, 3, 63, 0
5, 47760, Note_on_c, 3, 60, 40
5, 47760, Note_on_c, 3, 57, 46
5, 47880, Note_on_c, 3, 57, 0
5, 47880, Note_on_c, 3, 60, 0
5, 48000, Note_on_c, 3, 62, 43
5, 48000, Note_on_c, 3, 53, 42
5, 48120, Note_on_c, 3, 53, 0
5, 48120, Note_on_c, 3, 62, 0
5, 48240, Note_on_c, 3, 55, 53
5, 48360, Note_on_c, 3, 55, 0
5, 48600, Note_on_c, 3, 63, 61
5, 48600, Note_on_c, 3, 60, 44
5, 48720, Note_on_c, 3, 60, 0
5, 48720, Note_on_c, 3, 63, 0
5, 48720, Note_on_c, 3, 63, 72
5, 48720, Note_on_c, 3, 60, 61
5, 48840, Note_on_c, 3, 60, 0
5, 48840, Note_on_c, 3, 63, 0
5, 48840, Note_on_c, 3, 63, 81
5, 48840, Note_on_c, 3, 60, 71
5, 48960, Note_on_c, 3, 60, 0
5, 48960, Note_on_c, 3, 63, 0
5, 48960, Note_on_c, 3, 67, 46
5, 48960, Note_on_c, 3, 63, 62
5, 49200, Note_on_c, 3, 63, 0
5, 49200, Note_on_c, 3, 67, 0
5, 49200, Note_on_c, 3, 62, 76
5, 49200, Note_on_c, 3, 59, 62
5, 49440, Note_on_c, 3, 59, 0
5, 49440, Note_on_c, 3, 62, 0
5, 49440, Note_on_c, 3, 60, 81
5, 49440, Note_on_c, 3, 48, 95
5, 49680, Note_on_c, 3, 48, 0
5, 49680, Note_on_c, 3, 60, 0
5, 49680, Note_on_c, 3, 63, 85
5, 49680, Note_on_c, 3, 51, 94
5, 49920, Note_on_c, 3, 51, 0
5, 49920, Note_on_c, 3, 63, 0
5, 49920, Note_on_c, 3, 67, 84
5, 49920, Note_on_c, 3, 55, 89
5, 50100, Note_on_c, 3, 55, 0
5, 50100, Note_on_c, 3, 67, 0
5, 50100, Note_on_c, 3, 65, 84
5, 50100, Note_on_c, 3, 53, 84
5, 50130, Note_on_c, 3, 53, 0
5, 50130, Note_on_c, 3, 65, 0
5, 50160, Note_on_c, 3, 63, 78
5, 50160, Note_on_c, 3, 51, 89
5, 50220, Note_on_c, 3, 51, 0
5, 50220, Note_on_c, 3, 63, 0
5, 50280, Note_on_c, 3, 62, 82
5, 50280, Note_on_c, 3, 50, 93
5, 50340, Note_on_c, 3, 50, 0
5, 50340, Note_on_c, 3, 62, 0
5, 50400, Note_on_c, 3, 60, 78
5, 50400, Note_on_c, 3, 48, 89
5, 50520, Note_on_c, 3, 48, 0
5, 50520, Note_on_c, 3, 60, 0
5, 50580, Note_on_c, 3, 55, 81
5, 50580, Note_on_c, 3, 43, 86
5, 50640, Note_on_c, 3, 43, 0
5, 50640, Note_on_c, 3, 55, 0
5, 50640, Note_on_c, 3, 60, 89
5, 50640, Note_on_c, 3, 48, 89
5, 50760, Note_on_c, 3, 48, 0
5, 50760, Note_on_c, 3, 60, 0
5, 50820, Note_on_c, 3, 55, 84
5, 50820, Note_on_c, 3, 43, 85
5, 50880, Note_on_c, 3, 43, 0
5, 50880, Note_on_c, 3, 55, 0
5, 50880, Note_on_c, 3, 60, 85
5, 50880, Note_on_c, 3, 48, 90
5, 51000, Note_on_c, 3, 48, 0
5, 51000, Note_on_c, 3, 60, 0
5, 51060, Note_on_c, 3, 62, 89
5, 51060, Note_on_c, 3, 59, 84
5, 51090, Note_on_c, 3, 59, 0
5, 51090, Note_on_c, 3, 62, 0
5, 51120, Note_on_c, 3, 63, 81
5, 51120, Note_on_c, 3, 60, 80
5, 51180, Note_on_c, 3, 60, 0
5, 51180, Note_on_c, 3, 63, 0
5, 51300, Note_on_c, 3, 59, 77
5, 51300, Note_on_c, 3, 50, 89
5, 51330, Note_on_c, 3, 50, 0
5, 51330, Note_on_c, 3, 59, 0
5, 51360, Note_on_c, 3, 60, 85
5, 51360, Note_on_c, 3, 51, 81
5, 51420, Note_on_c, 3, 51, 0
5, 51420, Note_on_c, 3, 60, 0
5, 51540, Note_on_c, 3, 55, 85
5, 51540, Note_on_c, 3, 43, 89
5, 51570, Note_on_c, 3, 43, 0
5, 51570, Note_on_c, 3, 55, 0
5, 51600, Note_on_c, 3, 60, 89
5, 51600, Note_on_c, 3, 48, 89
5, 51660, Note_on_c, 3, 48, 0
5, 51660, Note_on_c, 3, 60, 0
5, 51780, Note_on_c, 3, 55, 86
5, 51780, Note_on_c, 3, 43, 85
5, 51810, Note_on_c, 3, 43, 0
5, 51810, Note_on_c, 3, 55, 0
5, 51840, Note_on_c, 3, 60, 85
5, 51840, Note_on_c, 3, 48, 94
5, 51900, Note_on_c, 3, 48, 0
5, 51900, Note_on_c, 3, 60, 0
5, 52320, Note_on_c, 3, 48, 94
5, 52320, Note_on_c, 3, 36, 101
5, 52440, Note_on_c, 3, 36, 0
5, 52440, Note_on_c, 3, 48, 0
5, 52560, Note_on_c, 3, 48, 93
5, 52560, Note_on_c, 3, 36, 98
5, 52680, Note_on_c, 3, 36, 0
5, 52680, Note_on_c, 3, 48, 0
5, 52800, Note_on_c, 3, 48, 99
5, 52800, Note_on_c, 3, 36, 105
5, 53040, Note_on_c, 3, 36, 0
5, 53040, Note_on_c, 3, 48, 0
5, 65760, Note_on_c, 3, 55, 72
5, 65760, Note_on_c, 3, 58, 76
5, 66360, Note_on_c, 3, 58, 0
5, 66360, Note_on_c, 3, 55, 0
5, 66360, Note_on_c, 3, 55, 80
5, 66360, Note_on_c, 3, 51, 77
5, 66480, Note_on_c, 3, 51, 0
5, 66480, Note_on_c, 3, 55, 0
5, 66480, Note_on_c, 3, 55, 80
5, 66480, Note_on_c, 3, 51, 73
5, 66600, Note_on_c, 3, 51, 0
5, 66600, Note_on_c, 3, 55, 0
5, 66600, Note_on_c, 3, 55, 77
5, 66600, Note_on_c, 3, 51, 81
5, 66720, Note_on_c, 3, 51, 0
5, 66720, Note_on_c, 3, 55, 0
5, 66720, Note_on_c, 3, 55, 78
5, 66720, Note_on_c, 3, 51, 84
5, 66840, Note_on_c, 3, 51, 0
5, 66840, Note_on_c, 3, 55, 0
5, 67680, Note_on_c, 3, 63, 81
5, 67680, Note_on_c, 3, 60, 77
5, 68280, Note_on_c, 3, 60, 0
5, 68280, Note_on_c, 3, 63, 0
5, 68280, Note_on_c, 3, 63, 84
5, 68280, Note_on_c, 3, 60, 85
5, 68400, Note_on_c, 3, 60, 0
5, 68400, Note_on_c, 3, 63, 0
5, 68400, Note_on_c, 3, 63, 85
5, 68400, Note_on_c, 3, 60, 80
5, 68520, Note_on_c, 3, 60, 0
5, 68520, Note_on_c, 3, 63, 0
5, 68520, Note_on_c, 3, 60, 84
5, 68520, Note_on_c, 3, 63, 89
5, 68640, Note_on_c, 3, 63, 0
5, 68640, Note_on_c, 3, 60, 0
5, 68640, Note_on_c, 3, 63, 76
5, 68640, Note_on_c, 3, 59, 84
5, 68760, Note_on_c, 3, 59, 0
5, 68760, Note_on_c, 3, 63, 0
5, 83160, Note_on_c, 3, 65, 46
5, 83160, Note_on_c, 3, 62, 60
5, 83250, Note_on_c, 3, 62, 0
5, 83250, Note_on_c, 3, 65, 0
5, 83280, Note_on_c, 3, 65, 57
5, 83280, Note_on_c, 3, 62, 66
5, 83370, Note_on_c, 3, 62, 0
5, 83370, Note_on_c, 3, 65, 0
5, 83400, Note_on_c, 3, 66, 56
5, 83400, Note_on_c, 3, 62, 72
5, 83490, Note_on_c, 3, 62, 0
5, 83490, Note_on_c, 3, 66, 0
5, 83520, Note_on_c, 3, 66, 65
5, 83520, Note_on_c, 3, 62, 84
5, 83760, Note_on_c, 3, 62, 0
5, 83760, Note_on_c, 3, 66, 0
5, 83760, Note_on_c, 3, 67, 62
5, 83760, Note_on_c, 3, 63, 67
5, 83880, Note_on_c, 3, 63, 0
5, 83880, Note_on_c, 3, 67, 0
5, 84900, Note_on_c, 3, 56, 71
5, 84900, Note_on_c, 3, 60, 66
5, 84960, Note_on_c, 3, 60, 0
5, 84960, Note_on_c, 3, 56, 0
5, 84960, Note_on_c, 3, 58, 76
5, 85080, Note_on_c, 3, 58, 0
5, 85080, Note_on_c, 3, 46, 90
5, 85200, Note_on_c, 3, 46, 0
5, 85200, Note_on_c, 3, 46, 95
5, 85320, Note_on_c, 3, 46, 0
5, 85320, Note_on_c, 3, 46, 94
5, 85440, Note_on_c, 3, 46, 0
5, 85440, Note_on_c, 3, 51, 95
5, 85560, Note_on_c, 3, 51, 0
5, 85560, Note_on_c, 3, 46, 95
5, 85680, Note_on_c, 3, 46, 0
5, 85680, Note_on_c, 3, 51, 95
5, 85800, Note_on_c, 3, 51, 0
5, 88920, Note_on_c, 3, 67, 68
5, 89010, Note_on_c, 3, 67, 0
5, 89040, Note_on_c, 3, 67, 62
5, 89130, Note_on_c, 3, 67, 0
5, 89160, Note_on_c, 3, 67, 73
5, 89250, Note_on_c, 3, 67, 0
5, 89280, Note_on_c, 3, 67, 71
5, 89520, Note_on_c, 3, 67, 0
5, 89520, Note_on_c, 3, 65, 71
5, 89700, Note_on_c, 3, 65, 0
5, 89700, Note_on_c, 3, 63, 71
5, 89760, Note_on_c, 3, 63, 0
5, 89760, Note_on_c, 3, 56, 67
5, 89880, Note_on_c, 3, 56, 0
5, 98340, Note_on_c, 3, 65, 78
5, 98370, Note_on_c, 3, 65, 0
5, 98400, Note_on_c, 3, 63, 69
5, 98460, Note_on_c, 3, 63, 0
5, 98820, Note_on_c, 3, 65, 78
5, 98850, Note_on_c, 3, 65, 0
5, 98880, Note_on_c, 3, 63, 71
5, 98940, Note_on_c, 3, 63, 0
5, 99060, Note_on_c, 3, 62, 70
5, 99090, Note_on_c, 3, 62, 0
5, 99120, Note_on_c, 3, 60, 74
5, 99180, Note_on_c, 3, 60, 0
5, 99300, Note_on_c, 3, 58, 73
5, 99330, Note_on_c, 3, 58, 0
5, 99360, Note_on_c, 3, 56, 73
5, 99420, Note_on_c, 3, 56, 0
5, 99540, Note_on_c, 3, 55, 77
5, 99570, Note_on_c, 3, 55, 0
5, 99600, Note_on_c, 3, 53, 72
5, 99660, Note_on_c, 3, 53, 0
5, 99780, Note_on_c, 3, 55, 72
5, 99810, Note_on_c, 3, 55, 0
5, 99840, Note_on_c, 3, 53, 78
5, 99900, Note_on_c, 3, 53, 0
5, 100440, Note_on_c, 3, 62, 45
5, 100440, Note_on_c, 3, 56, 46
5, 100530, Note_on_c, 3, 56, 0
5, 100530, Note_on_c, 3, 62, 0
5, 100560, Note_on_c, 3, 62, 50
5, 100560, Note_on_c, 3, 56, 45
5, 100650, Note_on_c, 3, 56, 0
5, 100650, Note_on_c, 3, 62, 0
5, 100680, Note_on_c, 3, 62, 47
5, 100680, Note_on_c, 3, 56, 45
5, 100770, Note_on_c, 3, 56, 0
5, 100770, Note_on_c, 3, 62, 0
5, 100800, Note_on_c, 3, 55, 63
5, 100800, Note_on_c, 3, 63, 32
5, 101280, Note_on_c, 3, 63, 0
5, 101280, Note_on_c, 3, 67, 43
5, 101520, Note_on_c, 3, 67, 0
5, 101520, Note_on_c, 3, 63, 52
5, 101760, Note_on_c, 3, 63, 0
5, 101760, Note_on_c, 3, 55, 0
5, 101760, Note_on_c, 3, 56, 43
5, 101760, Note_on_c, 3, 60, 43
5, 102720, Note_on_c, 3, 60, 0
5, 102720, Note_on_c, 3, 56, 0
5, 102720, Note_on_c, 3, 63, 44
5, 102720, Note_on_c, 3, 57, 48
5, 103680, Note_on_c, 3, 57, 0
5, 103680, Note_on_c, 3, 58, 43
5, 103800, Note_on_c, 3, 58, 0
5, 103800, Note_on_c, 3, 63, 0
5, 108480, Note_on_c, 3, 51, 90
5, 108540, Note_on_c, 3, 51, 0
5, 108540, Note_on_c, 3, 51, 89
5, 108600, Note_on_c, 3, 51, 0
5, 108600, Note_on_c, 3, 51, 94
5, 108660, Note_on_c, 3, 51, 0
5, 108660, Note_on_c, 3, 51, 84
5, 108720, Note_on_c, 3, 51, 0
5, 108720, Note_on_c, 3, 51, 89
5, 108780, Note_on_c, 3, 51, 0
5, 108780, Note_on_c, 3, 51, 93
5, 108840, Note_on_c, 3, 51, 0
5, 108840, Note_on_c, 3, 51, 86
5, 108900, Note_on_c, 3, 51, 0
5, 108900, Note_on_c, 3, 51, 90
5, 108960, Note_on_c, 3, 51, 0
5, 108960, Note_on_c, 3, 51, 95
5, 109020, Note_on_c, 3, 51, 0
5, 109020, Note_on_c, 3, 51, 90
5, 109080, Note_on_c, 3, 51, 0
5, 109080, Note_on_c, 3, 51, 94
5, 109140, Note_on_c, 3, 51, 0
5, 109140, Note_on_c, 3, 51, 94
5, 109200, Note_on_c, 3, 51, 0
5, 109200, Note_on_c, 3, 51, 90
5, 109260, Note_on_c, 3, 51, 0
5, 109260, Note_on_c, 3, 51, 94
5, 109320, Note_on_c, 3, 51, 0
5, 109320, Note_on_c, 3, 51, 86
5, 109380, Note_on_c, 3, 51, 0
5, 109380, Note_on_c, 3, 51, 94
5, 109440, Note_on_c, 3, 51, 0
5, 109440, Note_on_c, 3, 51, 84
5, 109560, Note_on_c, 3, 51, 0
5, 109560, Note_on_c, 3, 67, 80
5, 109680, Note_on_c, 3, 67, 0
5, 109800, Note_on_c, 3, 63, 85
5, 109920, Note_on_c, 3, 63, 0
5, 110040, Note_on_c, 3, 65, 82
5, 110160, Note_on_c, 3, 65, 0
5, 110280, Note_on_c, 3, 58, 89
5, 110400, Note_on_c, 3, 58, 0
5, 110400, Note_on_c, 3, 67, 81
5, 110640, Note_on_c, 3, 63, 86
5, 110880, Note_on_c, 3, 67, 0
5, 110880, Note_on_c, 3, 65, 84
5, 111120, Note_on_c, 3, 63, 0
5, 111120, Note_on_c, 3, 62, 94
5, 111360, Note_on_c, 3, 65, 0
5, 111360, Note_on_c, 3, 63, 89
5, 111600, Note_on_c, 3, 62, 0
5, 111600, Note_on_c, 3, 60, 93
5, 111840, Note_on_c, 3, 63, 0
5, 111840, Note_on_c, 3, 62, 94
5, 112080, Note_on_c, 3, 60, 0
5, 112080, Note_on_c, 3, 58, 82
5, 112320, Note_on_c, 3, 58, 0
5, 112320, Note_on_c, 3, 62, 0
5, 112320, Note_on_c, 3, 63, 82
5, 112320, Note_on_c, 3, 60, 80
5, 112560, Note_on_c, 3, 60, 0
5, 112560, Note_on_c, 3, 63, 0
5, 112560, Note_on_c, 3, 64, 76
5, 112560, Note_on_c, 3, 61, 82
5, 112800, Note_on_c, 3, 61, 0
5, 112800, Note_on_c, 3, 64, 0
5, 112800, Note_on_c, 3, 62, 73
5, 112800, Note_on_c, 3, 50, 80
5, 113040, Note_on_c, 3, 50, 0
5, 113040, Note_on_c, 3, 62, 0
5, 113040, Note_on_c, 3, 63, 73
5, 113040, Note_on_c, 3, 51, 80
5, 113280, Note_on_c, 3, 51, 0
5, 113280, Note_on_c, 3, 63, 0
5, 113280, Note_on_c, 3, 62, 86
5, 113280, Note_on_c, 3, 50, 94
5, 113340, Note_on_c, 3, 50, 0
5, 113340, Note_on_c, 3, 62, 0
5, 113400, Note_on_c, 3, 50, 101
5, 113520, Note_on_c, 3, 50, 0
5, 113520, Note_on_c, 3, 52, 99
5, 113640, Note_on_c, 3, 52, 0
5, 113640, Note_on_c, 3, 54, 85
5, 113760, Note_on_c, 3, 54, 0
5, 113760, Note_on_c, 3, 55, 94
5, 113820, Note_on_c, 3, 55, 0
5, 113880, Note_on_c, 3, 55, 99
5, 114000, Note_on_c, 3, 55, 0
5, 114000, Note_on_c, 3, 57, 94
5, 114120, Note_on_c, 3, 57, 0
5, 114120, Note_on_c, 3, 58, 84
5, 114240, Note_on_c, 3, 58, 0
5, 114240, Note_on_c, 3, 57, 101
5, 114300, Note_on_c, 3, 57, 0
5, 114360, Note_on_c, 3, 57, 110
5, 114480, Note_on_c, 3, 57, 0
5, 114480, Note_on_c, 3, 62, 86
5, 114600, Note_on_c, 3, 62, 0
5, 114600, Note_on_c, 3, 60, 89
5, 114720, Note_on_c, 3, 60, 0
5, 114720, Note_on_c, 3, 60, 81
5, 114840, Note_on_c, 3, 60, 0
5, 114840, Note_on_c, 3, 58, 98
5, 114960, Note_on_c, 3, 58, 0
5, 114960, Note_on_c, 3, 57, 104
5, 115080, Note_on_c, 3, 57, 0
5, 115080, Note_on_c, 3, 55, 84
5, 115200, Note_on_c, 3, 55, 0
5, 115200, Note_on_c, 3, 54, 77
5, 115260, Note_on_c, 3, 54, 0
5, 115320, Note_on_c, 3, 50, 99
5, 115320, Note_on_c, 3, 50, 105
5, 115440, Note_on_c, 3, 50, 0
5, 115440, Note_on_c, 3, 52, 95
5, 115560, Note_on_c, 3, 52, 0
5, 115560, Note_on_c, 3, 54, 86
5, 115680, Note_on_c, 3, 54, 0
5, 115680, Note_on_c, 3, 55, 86
5, 115740, Note_on_c, 3, 55, 0
5, 115800, Note_on_c, 3, 50, 0
5, 115800, Note_on_c, 3, 50, 98
5, 115800, Note_on_c, 3, 55, 99
5, 115920, Note_on_c, 3, 55, 0
5, 115920, Note_on_c, 3, 57, 94
5, 116040, Note_on_c, 3, 57, 0
5, 116040, Note_on_c, 3, 58, 86
5, 116160, Note_on_c, 3, 58, 0
5, 116160, Note_on_c, 3, 57, 99
5, 116220, Note_on_c, 3, 57, 0
5, 116280, Note_on_c, 3, 50, 0
5, 116280, Note_on_c, 3, 50, 101
5, 116280, Note_on_c, 3, 57, 112
5, 116400, Note_on_c, 3, 57, 0
5, 116400, Note_on_c, 3, 62, 77
5, 116520, Note_on_c, 3, 62, 0
5, 116520, Note_on_c, 3, 60, 89
5, 116640, Note_on_c, 3, 60, 0
5, 116640, Note_on_c, 3, 60, 89
5, 116760, Note_on_c, 3, 60, 0
5, 116760, Note_on_c, 3, 50, 0
5, 116760, Note_on_c, 3, 58, 82
5, 116760, Note_on_c, 3, 50, 99
5, 116880, Note_on_c, 3, 50, 0
5, 116880, Note_on_c, 3, 58, 0
5, 116880, Note_on_c, 3, 57, 72
5, 116880, Note_on_c, 3, 50, 82
5, 117000, Note_on_c, 3, 50, 0
5, 117000, Note_on_c, 3, 57, 0
5, 117000, Note_on_c, 3, 55, 76
5, 117000, Note_on_c, 3, 50, 81
5, 117120, Note_on_c, 3, 50, 0
5, 117120, Note_on_c, 3, 55, 0
5, 117120, Note_on_c, 3, 62, 81
5, 117120, Note_on_c, 3, 50, 89
5, 117240, Note_on_c, 3, 50, 0
5, 117240, Note_on_c, 3, 62, 0
5, 117240, Note_on_c, 3, 62, 99
5, 117480, Note_on_c, 3, 62, 0
5, 117480, Note_on_c, 3, 61, 78
5, 117600, Note_on_c, 3, 61, 0
5, 117600, Note_on_c, 3, 62, 94
5, 117720, Note_on_c, 3, 62, 0
5, 117720, Note_on_c, 3, 50, 94
5, 117780, Note_on_c, 3, 50, 0
5, 117840, Note_on_c, 3, 51, 93
5, 117900, Note_on_c, 3, 51, 0
5, 117960, Note_on_c, 3, 51, 85
5, 118020, Note_on_c, 3, 51, 0
5, 118080, Note_on_c, 3, 50, 99
5, 118140, Note_on_c, 3, 50, 0
5, 118200, Note_on_c, 3, 61, 94
5, 118320, Note_on_c, 3, 61, 0
5, 118320, Note_on_c, 3, 62, 93
5, 118440, Note_on_c, 3, 62, 0
5, 118440, Note_on_c, 3, 51, 81
5, 118500, Note_on_c, 3, 51, 0
5, 118560, Note_on_c, 3, 50, 93
5, 118620, Note_on_c, 3, 50, 0
5, 118680, Note_on_c, 3, 61, 93
5, 118800, Note_on_c, 3, 61, 0
5, 118800, Note_on_c, 3, 62, 86
5, 118920, Note_on_c, 3, 62, 0
5, 118920, Note_on_c, 3, 51, 86
5, 118980, Note_on_c, 3, 51, 0
5, 119040, Note_on_c, 3, 50, 99
5, 119160, Note_on_c, 3, 50, 0
5, 119520, Note_on_c, 3, 50, 105
5, 119640, Note_on_c, 3, 50, 0
5, 120000, Note_on_c, 3, 50, 105
5, 120120, Note_on_c, 3, 50, 0
5, 121440, Note_on_c, 3, 63, 73
5, 121500, Note_on_c, 3, 63, 0
5, 121620, Note_on_c, 3, 60, 72
5, 121650, Note_on_c, 3, 60, 0
5, 121680, Note_on_c, 3, 63, 80
5, 121740, Note_on_c, 3, 63, 0
5, 121860, Note_on_c, 3, 60, 72
5, 121890, Note_on_c, 3, 60, 0
5, 121920, Note_on_c, 3, 60, 68
5, 121920, Note_on_c, 3, 63, 60
5, 121920, Control_c, 3, 7, 99
5, 121940, Control_c, 3, 7, 100
5, 121955, Control_c, 3, 7, 101
5, 121975, Control_c, 3, 7, 102
5, 121990, Control_c, 3, 7, 103
5, 122010, Control_c, 3, 7, 104
5, 122025, Control_c, 3, 7, 105
5, 122045, Control_c, 3, 7, 106
5, 122060, Control_c, 3, 7, 107
5, 122080, Control_c, 3, 7, 108
5, 122095, Control_c, 3, 7, 109
5, 122115, Control_c, 3, 7, 110
5, 122130, Control_c, 3, 7, 111
5, 122150, Control_c, 3, 7, 112
5, 122165, Control_c, 3, 7, 113
5, 122180, Control_c, 3, 7, 114
5, 122200, Control_c, 3, 7, 115
5, 122215, Control_c, 3, 7, 116
5, 122235, Control_c, 3, 7, 117
5, 122250, Control_c, 3, 7, 118
5, 122270, Control_c, 3, 7, 119
5, 122285, Control_c, 3, 7, 120
5, 122305, Control_c, 3, 7, 121
5, 122320, Control_c, 3, 7, 122
5, 122340, Control_c, 3, 7, 123
5, 122355, Control_c, 3, 7, 124
5, 122375, Control_c, 3, 7, 125
5, 122390, Control_c, 3, 7, 126
5, 122400, Note_on_c, 3, 63, 0
5, 122400, Note_on_c, 3, 62, 71
5, 122405, Control_c, 3, 7, 127
5, 122425, Control_c, 3, 7, 126
5, 122440, Control_c, 3, 7, 125
5, 122460, Control_c, 3, 7, 124
5, 122475, Control_c, 3, 7, 123
5, 122490, Control_c, 3, 7, 122
5, 122510, Control_c, 3, 7, 121
5, 122525, Control_c, 3, 7, 120
5, 122545, Control_c, 3, 7, 119
5, 122560, Control_c, 3, 7, 118
5, 122575, Control_c, 3, 7, 117
5, 122595, Control_c, 3, 7, 116
5, 122610, Control_c, 3, 7, 115
5, 122630, Control_c, 3, 7, 114
5, 122645, Control_c, 3, 7, 113
5, 122660, Control_c, 3, 7, 112
5, 122680, Control_c, 3, 7, 111
5, 122695, Control_c, 3, 7, 110
5, 122715, Control_c, 3, 7, 109
5, 122730, Control_c, 3, 7, 108
5, 122745, Control_c, 3, 7, 107
5, 122765, Control_c, 3, 7, 106
5, 122780, Control_c, 3, 7, 105
5, 122800, Control_c, 3, 7, 104
5, 122815, Control_c, 3, 7, 103
5, 122830, Control_c, 3, 7, 102
5, 122850, Control_c, 3, 7, 101
5, 122865, Control_c, 3, 7, 100
5, 122880, Note_on_c, 3, 60, 0
5, 122880, Control_c, 3, 7, 99
5, 122880, Note_on_c, 3, 58, 53
5, 123000, Note_on_c, 3, 58, 0
5, 123000, Note_on_c, 3, 62, 0
5, 127680, Note_on_c, 3, 55, 71
5, 127920, Note_on_c, 3, 55, 0
5, 127920, Note_on_c, 3, 58, 65
5, 128160, Note_on_c, 3, 58, 0
5, 128160, Note_on_c, 3, 61, 64
5, 128340, Note_on_c, 3, 61, 0
5, 128340, Note_on_c, 3, 60, 64
5, 128370, Note_on_c, 3, 60, 0
5, 128400, Note_on_c, 3, 58, 65
5, 128460, Note_on_c, 3, 58, 0
5, 128520, Note_on_c, 3, 56, 68
5, 128580, Note_on_c, 3, 56, 0
5, 128640, Note_on_c, 3, 55, 69
5, 128760, Note_on_c, 3, 55, 0
5, 128760, Note_on_c, 3, 65, 62
5, 128880, Note_on_c, 3, 65, 0
5, 128880, Note_on_c, 3, 64, 65
5, 129000, Note_on_c, 3, 64, 0
5, 129000, Note_on_c, 3, 61, 69
5, 129120, Note_on_c, 3, 61, 0
5, 129120, Note_on_c, 3, 60, 72
5, 129240, Note_on_c, 3, 60, 0
5, 129240, Note_on_c, 3, 58, 71
5, 129360, Note_on_c, 3, 58, 0
5, 129360, Note_on_c, 3, 56, 72
5, 129480, Note_on_c, 3, 56, 0
5, 129480, Note_on_c, 3, 55, 69
5, 129600, Note_on_c, 3, 55, 0
5, 129600, Note_on_c, 3, 53, 64
5, 129720, Note_on_c, 3, 53, 0
5, 130080, Note_on_c, 3, 53, 62
5, 130200, Note_on_c, 3, 53, 0
5, 130260, Note_on_c, 3, 48, 81
5, 130320, Note_on_c, 3, 48, 0
5, 130320, Note_on_c, 3, 53, 73
5, 130440, Note_on_c, 3, 53, 0
5, 130500, Note_on_c, 3, 48, 74
5, 130560, Note_on_c, 3, 48, 0
5, 130560, Note_on_c, 3, 55, 70
5, 130680, Note_on_c, 3, 55, 0
5, 131040, Note_on_c, 3, 55, 64
5, 131160, Note_on_c, 3, 55, 0
5, 131220, Note_on_c, 3, 48, 68
5, 131280, Note_on_c, 3, 48, 0
5, 131280, Note_on_c, 3, 55, 53
5, 131400, Note_on_c, 3, 55, 0
5, 131460, Note_on_c, 3, 48, 65
5, 131520, Note_on_c, 3, 48, 0
5, 131520, Note_on_c, 3, 56, 74
5, 131640, Note_on_c, 3, 56, 0
5, 132000, Note_on_c, 3, 57, 74
5, 132120, Note_on_c, 3, 57, 0
5, 132180, Note_on_c, 3, 53, 62
5, 132240, Note_on_c, 3, 53, 0
5, 132240, Note_on_c, 3, 57, 81
5, 132360, Note_on_c, 3, 57, 0
5, 132420, Note_on_c, 3, 53, 57
5, 132480, Note_on_c, 3, 53, 0
5, 132480, Note_on_c, 3, 58, 65
5, 132600, Note_on_c, 3, 58, 0
5, 132600, Note_on_c, 3, 58, 71
5, 132720, Note_on_c, 3, 58, 0
5, 132840, Note_on_c, 3, 58, 65
5, 132960, Note_on_c, 3, 58, 0
5, 133080, Note_on_c, 3, 60, 71
5, 133200, Note_on_c, 3, 60, 0
5, 133320, Note_on_c, 3, 48, 71
5, 133440, Note_on_c, 3, 48, 0
5, 133440, Note_on_c, 3, 53, 62
5, 133680, Note_on_c, 3, 53, 0
5, 133680, Note_on_c, 3, 56, 68
5, 133920, Note_on_c, 3, 56, 0
5, 133920, Note_on_c, 3, 60, 68
5, 134160, Note_on_c, 3, 60, 0
5, 134160, Note_on_c, 3, 65, 74
5, 134400, Note_on_c, 3, 65, 0
5, 134400, Note_on_c, 3, 68, 71
5, 134520, Note_on_c, 3, 68, 0
5, 135000, Note_on_c, 3, 63, 61
5, 135240, Note_on_c, 3, 63, 0
5, 135240, Note_on_c, 3, 63, 63
5, 135360, Note_on_c, 3, 63, 0
5, 135360, Note_on_c, 3, 61, 68
5, 135480, Note_on_c, 3, 61, 0
5, 135960, Note_on_c, 3, 61, 64
5, 136200, Note_on_c, 3, 61, 0
5, 136200, Note_on_c, 3, 61, 65
5, 136320, Note_on_c, 3, 61, 0
5, 136320, Note_on_c, 3, 63, 67
5, 136440, Note_on_c, 3, 63, 0
5, 136920, Note_on_c, 3, 63, 53
5, 137160, Note_on_c, 3, 63, 0
5, 137160, Note_on_c, 3, 63, 72
5, 137280, Note_on_c, 3, 63, 0
5, 137400, Note_on_c, 3, 61, 53
5, 137640, Note_on_c, 3, 61, 0
5, 137640, Note_on_c, 3, 61, 58
5, 137760, Note_on_c, 3, 61, 0
5, 137880, Note_on_c, 3, 62, 63
5, 138120, Note_on_c, 3, 62, 0
5, 138120, Note_on_c, 3, 62, 66
5, 138240, Note_on_c, 3, 62, 0
5, 138360, Note_on_c, 3, 60, 60
5, 138600, Note_on_c, 3, 60, 0
5, 138600, Note_on_c, 3, 60, 68
5, 138720, Note_on_c, 3, 60, 0
5, 138840, Note_on_c, 3, 65, 52
5, 138960, Note_on_c, 3, 65, 0
5, 139080, Note_on_c, 3, 66, 62
5, 139200, Note_on_c, 3, 66, 0
5, 139200, Note_on_c, 3, 67, 49
5, 139320, Note_on_c, 3, 67, 0
5, 139320, Note_on_c, 3, 59, 52
5, 139320, Note_on_c, 3, 55, 50
5, 139440, Note_on_c, 3, 55, 0
5, 139440, Note_on_c, 3, 59, 0
5, 139440, Note_on_c, 3, 60, 57
5, 139440, Note_on_c, 3, 57, 64
5, 139560, Note_on_c, 3, 57, 0
5, 139560, Note_on_c, 3, 60, 0
5, 139560, Note_on_c, 3, 59, 66
5, 139560, Note_on_c, 3, 62, 48
5, 139680, Note_on_c, 3, 62, 0
5, 139680, Note_on_c, 3, 59, 0
5, 139680, Note_on_c, 3, 60, 66
5, 139680, Control_c, 3, 7, 99
5, 139680, Note_on_c, 3, 64, 64
5, 139700, Control_c, 3, 7, 100
5, 139720, Control_c, 3, 7, 101
5, 139740, Control_c, 3, 7, 102
5, 139755, Control_c, 3, 7, 103
5, 139775, Control_c, 3, 7, 104
5, 139795, Control_c, 3, 7, 105
5, 139810, Control_c, 3, 7, 106
5, 139830, Control_c, 3, 7, 107
5, 139850, Control_c, 3, 7, 108
5, 139865, Control_c, 3, 7, 109
5, 139885, Control_c, 3, 7, 110
5, 139905, Control_c, 3, 7, 111
5, 139920, Note_on_c, 3, 64, 0
5, 139920, Note_on_c, 3, 63, 56
5, 139920, Control_c, 3, 7, 112
5, 139940, Control_c, 3, 7, 113
5, 139960, Control_c, 3, 7, 114
5, 139980, Control_c, 3, 7, 115
5, 139995, Control_c, 3, 7, 116
5, 140015, Control_c, 3, 7, 117
5, 140035, Control_c, 3, 7, 118
5, 140050, Control_c, 3, 7, 119
5, 140070, Control_c, 3, 7, 120
5, 140090, Control_c, 3, 7, 121
5, 140105, Control_c, 3, 7, 122
5, 140125, Control_c, 3, 7, 123
5, 140145, Control_c, 3, 7, 124
5, 140160, Note_on_c, 3, 63, 0
5, 140160, Note_on_c, 3, 60, 0
5, 140160, Control_c, 3, 7, 125
5, 140160, Note_on_c, 3, 62, 53
5, 140160, Note_on_c, 3, 59, 64
5, 140280, Note_on_c, 3, 59, 0
5, 140280, Note_on_c, 3, 62, 0
5, 140280, Control_c, 3, 7, 99
5, 140280, Note_on_c, 3, 59, 53
5, 140280, Note_on_c, 3, 55, 62
5, 140400, Note_on_c, 3, 55, 0
5, 140400, Note_on_c, 3, 59, 0
5, 140400, Note_on_c, 3, 60, 61
5, 140400, Note_on_c, 3, 57, 64
5, 140520, Note_on_c, 3, 57, 0
5, 140520, Note_on_c, 3, 60, 0
5, 140520, Note_on_c, 3, 59, 66
5, 140520, Note_on_c, 3, 62, 50
5, 140640, Note_on_c, 3, 62, 0
5, 140640, Note_on_c, 3, 59, 0
5, 140640, Note_on_c, 3, 60, 65
5, 140640, Control_c, 3, 7, 99
5, 140640, Note_on_c, 3, 64, 62
5, 140660, Control_c, 3, 7, 100
5, 140675, Control_c, 3, 7, 101
5, 140695, Control_c, 3, 7, 102
5, 140710, Control_c, 3, 7, 103
5, 140725, Control_c, 3, 7, 104
5, 140745, Control_c, 3, 7, 105
5, 140760, Control_c, 3, 7, 106
5, 140775, Control_c, 3, 7, 107
5, 140795, Control_c, 3, 7, 108
5, 140810, Control_c, 3, 7, 109
5, 140825, Control_c, 3, 7, 110
5, 140845, Control_c, 3, 7, 111
5, 140860, Control_c, 3, 7, 112
5, 140875, Control_c, 3, 7, 113
5, 140880, Note_on_c, 3, 64, 0
5, 140880, Note_on_c, 3, 63, 64
5, 140895, Control_c, 3, 7, 114
5, 140910, Control_c, 3, 7, 115
5, 140925, Control_c, 3, 7, 116
5, 140945, Control_c, 3, 7, 117
5, 140960, Control_c, 3, 7, 118
5, 140975, Control_c, 3, 7, 119
5, 140995, Control_c, 3, 7, 120
5, 141010, Control_c, 3, 7, 121
5, 141025, Control_c, 3, 7, 122
5, 141045, Control_c, 3, 7, 123
5, 141060, Control_c, 3, 7, 124
5, 141075, Control_c, 3, 7, 125
5, 141120, Note_on_c, 3, 63, 0
5, 141120, Note_on_c, 3, 60, 0
5, 141120, Control_c, 3, 7, 99
5, 141120, Note_on_c, 3, 62, 47
5, 141120, Note_on_c, 3, 59, 43
5, 141240, Note_on_c, 3, 59, 0
5, 141240, Note_on_c, 3, 62, 0
5, 142320, Note_on_c, 3, 65, 56
5, 142320, Control_c, 3, 7, 99
5, 142335, Control_c, 3, 7, 100
5, 142345, Control_c, 3, 7, 101
5, 142355, Control_c, 3, 7, 102
5, 142365, Control_c, 3, 7, 103
5, 142375, Control_c, 3, 7, 104
5, 142385, Control_c, 3, 7, 105
5, 142395, Control_c, 3, 7, 106
5, 142405, Control_c, 3, 7, 107
5, 142420, Control_c, 3, 7, 108
5, 142430, Control_c, 3, 7, 109
5, 142440, Control_c, 3, 7, 110
5, 142450, Control_c, 3, 7, 111
5, 142460, Control_c, 3, 7, 112
5, 142470, Control_c, 3, 7, 113
5, 142480, Control_c, 3, 7, 114
5, 142490, Control_c, 3, 7, 115
5, 142505, Control_c, 3, 7, 116
5, 142515, Control_c, 3, 7, 117
5, 142525, Control_c, 3, 7, 118
5, 142535, Control_c, 3, 7, 119
5, 142545, Control_c, 3, 7, 120
5, 142555, Control_c, 3, 7, 121
5, 142560, Note_on_c, 3, 65, 0
5, 142560, Note_on_c, 3, 64, 73
5, 142565, Control_c, 3, 7, 122
5, 142575, Control_c, 3, 7, 123
5, 142585, Control_c, 3, 7, 124
5, 142600, Control_c, 3, 7, 123
5, 142615, Control_c, 3, 7, 122
5, 142630, Control_c, 3, 7, 121
5, 142640, Control_c, 3, 7, 120
5, 142655, Control_c, 3, 7, 119
5, 142670, Control_c, 3, 7, 118
5, 142680, Control_c, 3, 7, 117
5, 142695, Control_c, 3, 7, 116
5, 142710, Control_c, 3, 7, 115
5, 142720, Control_c, 3, 7, 114
5, 142735, Control_c, 3, 7, 113
5, 142750, Control_c, 3, 7, 112
5, 142760, Control_c, 3, 7, 111
5, 142775, Control_c, 3, 7, 110
5, 142790, Control_c, 3, 7, 109
5, 142800, Note_on_c, 3, 64, 0
5, 142800, Control_c, 3, 7, 108
5, 142800, Note_on_c, 3, 65, 64
5, 142815, Control_c, 3, 7, 107
5, 142830, Control_c, 3, 7, 106
5, 142840, Control_c, 3, 7, 105
5, 142855, Control_c, 3, 7, 104
5, 142870, Control_c, 3, 7, 103
5, 142880, Control_c, 3, 7, 102
5, 142895, Control_c, 3, 7, 101
5, 142910, Control_c, 3, 7, 100
5, 142920, Note_on_c, 3, 65, 0
5, 142920, Control_c, 3, 7, 99
5, 143280, Note_on_c, 3, 65, 49
5, 143280, Control_c, 3, 7, 99
5, 143295, Control_c, 3, 7, 100
5, 143305, Control_c, 3, 7, 101
5, 143315, Control_c, 3, 7, 102
5, 143330, Control_c, 3, 7, 103
5, 143340, Control_c, 3, 7, 104
5, 143350, Control_c, 3, 7, 105
5, 143360, Control_c, 3, 7, 106
5, 143375, Control_c, 3, 7, 107
5, 143385, Control_c, 3, 7, 108
5, 143395, Control_c, 3, 7, 109
5, 143410, Control_c, 3, 7, 110
5, 143420, Control_c, 3, 7, 111
5, 143430, Control_c, 3, 7, 112
5, 143440, Control_c, 3, 7, 113
5, 143455, Control_c, 3, 7, 114
5, 143465, Control_c, 3, 7, 115
5, 143475, Control_c, 3, 7, 116
5, 143490, Control_c, 3, 7, 117
5, 143500, Control_c, 3, 7, 118
5, 143510, Control_c, 3, 7, 119
5, 143520, Note_on_c, 3, 65, 0
5, 143520, Control_c, 3, 7, 120
5, 143520, Note_on_c, 3, 64, 69
5, 143535, Control_c, 3, 7, 121
5, 143545, Control_c, 3, 7, 122
5, 143555, Control_c, 3, 7, 123
5, 143565, Control_c, 3, 7, 124
5, 143580, Control_c, 3, 7, 123
5, 143595, Control_c, 3, 7, 122
5, 143605, Control_c, 3, 7, 121
5, 143620, Control_c, 3, 7, 120
5, 143630, Control_c, 3, 7, 119
5, 143645, Control_c, 3, 7, 118
5, 143655, Control_c, 3, 7, 117
5, 143670, Control_c, 3, 7, 116
5, 143680, Control_c, 3, 7, 115
5, 143695, Control_c, 3, 7, 114
5, 143705, Control_c, 3, 7, 113
5, 143720, Control_c, 3, 7, 112
5, 143730, Control_c, 3, 7, 111
5, 143745, Control_c, 3, 7, 110
5, 143755, Control_c, 3, 7, 109
5, 143760, Note_on_c, 3, 64, 0
5, 143760, Note_on_c, 3, 65, 52
5, 143770, Control_c, 3, 7, 108
5, 143780, Control_c, 3, 7, 107
5, 143795, Control_c, 3, 7, 106
5, 143805, Control_c, 3, 7, 105
5, 143820, Control_c, 3, 7, 104
5, 143830, Control_c, 3, 7, 103
5, 143845, Control_c, 3, 7, 102
5, 143855, Control_c, 3, 7, 101
5, 143870, Control_c, 3, 7, 100
5, 143880, Note_on_c, 3, 65, 0
5, 143880, Control_c, 3, 7, 99
5, 144240, Note_on_c, 3, 65, 57
5, 144240, Control_c, 3, 7, 99
5, 144255, Control_c, 3, 7, 100
5, 144265, Control_c, 3, 7, 101
5, 144275, Control_c, 3, 7, 102
5, 144290, Control_c, 3, 7, 103
5, 144300, Control_c, 3, 7, 104
5, 144310, Control_c, 3, 7, 105
5, 144325, Control_c, 3, 7, 106
5, 144335, Control_c, 3, 7, 107
5, 144345, Control_c, 3, 7, 108
5, 144360, Control_c, 3, 7, 109
5, 144370, Control_c, 3, 7, 110
5, 144380, Control_c, 3, 7, 111
5, 144395, Control_c, 3, 7, 112
5, 144405, Control_c, 3, 7, 113
5, 144415, Control_c, 3, 7, 114
5, 144430, Control_c, 3, 7, 115
5, 144440, Control_c, 3, 7, 116
5, 144450, Control_c, 3, 7, 117
5, 144465, Control_c, 3, 7, 118
5, 144475, Control_c, 3, 7, 119
5, 144480, Note_on_c, 3, 65, 0
5, 144480, Note_on_c, 3, 64, 72
5, 144485, Control_c, 3, 7, 120
5, 144500, Control_c, 3, 7, 121
5, 144510, Control_c, 3, 7, 122
5, 144520, Control_c, 3, 7, 123
5, 144530, Control_c, 3, 7, 124
5, 144545, Control_c, 3, 7, 123
5, 144555, Control_c, 3, 7, 122
5, 144570, Control_c, 3, 7, 121
5, 144580, Control_c, 3, 7, 120
5, 144595, Control_c, 3, 7, 119
5, 144605, Control_c, 3, 7, 118
5, 144620, Control_c, 3, 7, 117
5, 144630, Control_c, 3, 7, 116
5, 144645, Control_c, 3, 7, 115
5, 144655, Control_c, 3, 7, 114
5, 144670, Control_c, 3, 7, 113
5, 144680, Control_c, 3, 7, 112
5, 144695, Control_c, 3, 7, 111
5, 144705, Control_c, 3, 7, 110
5, 144720, Note_on_c, 3, 64, 0
5, 144720, Control_c, 3, 7, 109
5, 144720, Note_on_c, 3, 65, 62
5, 144730, Control_c, 3, 7, 108
5, 144745, Control_c, 3, 7, 107
5, 144755, Control_c, 3, 7, 106
5, 144770, Control_c, 3, 7, 105
5, 144780, Control_c, 3, 7, 104
5, 144795, Control_c, 3, 7, 103
5, 144805, Control_c, 3, 7, 102
5, 144820, Control_c, 3, 7, 101
5, 144830, Control_c, 3, 7, 100
5, 144840, Note_on_c, 3, 65, 0
5, 144840, Control_c, 3, 7, 99
5, 145200, Note_on_c, 3, 65, 72
5, 145440, Note_on_c, 3, 65, 0
5, 145440, Note_on_c, 3, 64, 69
5, 145680, Note_on_c, 3, 64, 0
5, 145680, Note_on_c, 3, 65, 73
5, 146160, Note_on_c, 3, 65, 0
5, 146160, Note_on_c, 3, 63, 65
5, 146640, Note_on_c, 3, 63, 0
5, 146640, Note_on_c, 3, 62, 62
5, 147120, Note_on_c, 3, 62, 0
5, 147120, Note_on_c, 3, 60, 73
5, 147600, Note_on_c, 3, 60, 0
5, 147600, Note_on_c, 3, 59, 59
5, 147840, Note_on_c, 3, 59, 0
5, 147840, Note_on_c, 3, 48, 101
5, 147840, Note_on_c, 3, 60, 99
5, 148080, Note_on_c, 3, 60, 0
5, 148080, Note_on_c, 3, 48, 0
5, 148080, Note_on_c, 3, 51, 98
5, 148080, Note_on_c, 3, 63, 104
5, 148320, Note_on_c, 3, 63, 0
5, 148320, Note_on_c, 3, 51, 0
5, 148320, Note_on_c, 3, 55, 101
5, 148320, Note_on_c, 3, 67, 105
5, 148500, Note_on_c, 3, 67, 0
5, 148500, Note_on_c, 3, 55, 0
5, 148500, Note_on_c, 3, 65, 94
5, 148500, Note_on_c, 3, 53, 90
5, 148530, Note_on_c, 3, 53, 0
5, 148530, Note_on_c, 3, 65, 0
5, 148560, Note_on_c, 3, 51, 98
5, 148560, Note_on_c, 3, 63, 89
5, 148620, Note_on_c, 3, 63, 0
5, 148620, Note_on_c, 3, 51, 0
5, 148680, Note_on_c, 3, 62, 95
5, 148680, Note_on_c, 3, 50, 99
5, 148740, Note_on_c, 3, 50, 0
5, 148740, Note_on_c, 3, 62, 0
5, 148800, Note_on_c, 3, 60, 94
5, 148800, Note_on_c, 3, 48, 101
5, 148860, Note_on_c, 3, 48, 0
5, 148860, Note_on_c, 3, 60, 0
5, 148980, Note_on_c, 3, 43, 99
5, 148980, Note_on_c, 3, 55, 98
5, 149010, Note_on_c, 3, 55, 0
5, 149010, Note_on_c, 3, 43, 0
5, 149040, Note_on_c, 3, 48, 105
5, 149040, Note_on_c, 3, 60, 99
5, 149100, Note_on_c, 3, 60, 0
5, 149100, Note_on_c, 3, 48, 0
5, 149220, Note_on_c, 3, 43, 99
5, 149220, Note_on_c, 3, 55, 98
5, 149250, Note_on_c, 3, 55, 0
5, 149250, Note_on_c, 3, 43, 0
5, 149280, Note_on_c, 3, 48, 105
5, 149280, Note_on_c, 3, 60, 98
5, 149340, Note_on_c, 3, 60, 0
5, 149340, Note_on_c, 3, 48, 0
5, 149760, Note_on_c, 3, 59, 80
5, 149760, Note_on_c, 3, 55, 98
5, 150000, Note_on_c, 3, 55, 0
5, 150000, Note_on_c, 3, 59, 0
5, 150000, Note_on_c, 3, 62, 93
5, 150000, Note_on_c, 3, 55, 104
5, 150240, Note_on_c, 3, 55, 0
5, 150240, Note_on_c, 3, 62, 0
5, 150240, Note_on_c, 3, 65, 115
5, 150240, Note_on_c, 3, 55, 112
5, 150420, Note_on_c, 3, 55, 0
5, 150420, Note_on_c, 3, 65, 0
5, 150420, Note_on_c, 3, 63, 80
5, 150420, Note_on_c, 3, 55, 99
5, 150450, Note_on_c, 3, 55, 0
5, 150450, Note_on_c, 3, 63, 0
5, 150480, Note_on_c, 3, 62, 90
5, 150480, Note_on_c, 3, 55, 94
5, 150540, Note_on_c, 3, 55, 0
5, 150540, Note_on_c, 3, 62, 0
5, 150600, Note_on_c, 3, 60, 101
5, 150600, Note_on_c, 3, 55, 94
5, 150660, Note_on_c, 3, 55, 0
5, 150660, Note_on_c, 3, 60, 0
5, 150720, Note_on_c, 3, 59, 98
5, 150720, Note_on_c, 3, 55, 98
5, 150780, Note_on_c, 3, 55, 0
5, 150780, Note_on_c, 3, 59, 0
5, 150900, Note_on_c, 3, 60, 65
5, 150900, Note_on_c, 3, 54, 66
5, 150930, Note_on_c, 3, 54, 0
5, 150930, Note_on_c, 3, 60, 0
5, 150960, Note_on_c, 3, 59, 74
5, 150960, Note_on_c, 3, 55, 73
5, 151020, Note_on_c, 3, 55, 0
5, 151020, Note_on_c, 3, 59, 0
5, 151140, Note_on_c, 3, 54, 64
5, 151140, Note_on_c, 3, 60, 71
5, 151170, Note_on_c, 3, 60, 0
5, 151170, Note_on_c, 3, 54, 0
5, 151200, Note_on_c, 3, 55, 63
5, 151200, Note_on_c, 3, 59, 61
5, 151260, Note_on_c, 3, 59, 0
5, 151260, Note_on_c, 3, 55, 0
5, 152640, Note_on_c, 3, 65, 65
5, 152700, Note_on_c, 3, 65, 0
5, 152820, Note_on_c, 3, 66, 61
5, 152850, Note_on_c, 3, 66, 0
5, 152880, Note_on_c, 3, 65, 63
5, 152940, Note_on_c, 3, 65, 0
5, 153060, Note_on_c, 3, 66, 44
5, 153090, Note_on_c, 3, 66, 0
5, 153120, Note_on_c, 3, 65, 65
5, 153180, Note_on_c, 3, 65, 0
5, 158040, Note_on_c, 3, 55, 55
5, 158040, Note_on_c, 3, 59, 53
5, 158160, Note_on_c, 3, 59, 0
5, 158160, Note_on_c, 3, 55, 0
5, 158160, Note_on_c, 3, 60, 45
5, 158160, Note_on_c, 3, 57, 57
5, 158280, Note_on_c, 3, 57, 0
5, 158280, Note_on_c, 3, 60, 0
5, 158280, Note_on_c, 3, 62, 58
5, 158280, Note_on_c, 3, 59, 62
5, 158400, Note_on_c, 3, 59, 0
5, 158400, Note_on_c, 3, 62, 0
5, 158400, Note_on_c, 3, 63, 50
5, 158400, Note_on_c, 3, 60, 52
5, 158460, Note_on_c, 3, 60, 0
5, 158460, Note_on_c, 3, 63, 0
5, 158520, Note_on_c, 3, 63, 58
5, 158520, Note_on_c, 3, 60, 68
5, 158640, Note_on_c, 3, 60, 0
5, 158640, Note_on_c, 3, 63, 0
5, 158640, Note_on_c, 3, 65, 62
5, 158640, Note_on_c, 3, 62, 63
5, 158760, Note_on_c, 3, 62, 0
5, 158760, Note_on_c, 3, 65, 0
5, 158760, Note_on_c, 3, 67, 57
5, 158760, Note_on_c, 3, 63, 53
5, 158880, Note_on_c, 3, 63, 0
5, 158880, Note_on_c, 3, 67, 0
5, 158880, Note_on_c, 3, 68, 58
5, 158880, Note_on_c, 3, 65, 62
5, 158940, Note_on_c, 3, 65, 0
5, 158940, Note_on_c, 3, 68, 0
5, 159000, Note_on_c, 3, 68, 53
5, 159000, Note_on_c, 3, 65, 62
5, 159120, Note_on_c, 3, 65, 0
5, 159120, Note_on_c, 3, 68, 0
5, 159120, Note_on_c, 3, 67, 55
5, 159120, Note_on_c, 3, 63, 56
5, 159240, Note_on_c, 3, 63, 0
5, 159240, Note_on_c, 3, 67, 0
5, 159240, Note_on_c, 3, 65, 57
5, 159240, Note_on_c, 3, 62, 62
5, 159360, Note_on_c, 3, 62, 0
5, 159360, Note_on_c, 3, 65, 0
5, 159360, Note_on_c, 3, 63, 45
5, 159360, Note_on_c, 3, 67, 43
5, 159420, Note_on_c, 3, 67, 0
5, 159420, Note_on_c, 3, 63, 0
5, 159480, Note_on_c, 3, 67, 48
5, 159480, Note_on_c, 3, 63, 52
5, 159600, Note_on_c, 3, 63, 0
5, 159600, Note_on_c, 3, 67, 0
5, 159600, Note_on_c, 3, 65, 48
5, 159600, Note_on_c, 3, 62, 62
5, 159720, Note_on_c, 3, 62, 0
5, 159720, Note_on_c, 3, 65, 0
5, 159720, Note_on_c, 3, 63, 57
5, 159720, Note_on_c, 3, 60, 64
5, 159840, Note_on_c, 3, 60, 0
5, 159840, Note_on_c, 3, 63, 0
5, 159840, Note_on_c, 3, 59, 63
5, 159840, Note_on_c, 3, 62, 52
5, 159960, Note_on_c, 3, 62, 0
5, 159960, Note_on_c, 3, 59, 0
5, 160020, Note_on_c, 3, 59, 37
5, 160020, Note_on_c, 3, 62, 38
5, 160080, Note_on_c, 3, 62, 0
5, 160080, Note_on_c, 3, 59, 0
5, 160080, Note_on_c, 3, 63, 38
5, 160080, Note_on_c, 3, 60, 43
5, 160200, Note_on_c, 3, 60, 0
5, 160200, Note_on_c, 3, 63, 0
5, 160260, Note_on_c, 3, 60, 29
5, 160260, Note_on_c, 3, 63, 29
5, 160320, Note_on_c, 3, 63, 0
5, 160320, Note_on_c, 3, 60, 0
5, 160320, Note_on_c, 3, 59, 42
5, 160320, Note_on_c, 3, 62, 43
5, 160440, Note_on_c, 3, 62, 0
5, 160440, Note_on_c, 3, 59, 0
5, 160500, Note_on_c, 3, 59, 43
5, 160500, Note_on_c, 3, 62, 41
5, 160560, Note_on_c, 3, 62, 0
5, 160560, Note_on_c, 3, 59, 0
5, 160560, Note_on_c, 3, 60, 42
5, 160560, Note_on_c, 3, 63, 40
5, 160680, Note_on_c, 3, 63, 0
5, 160680, Note_on_c, 3, 60, 0
5, 160740, Note_on_c, 3, 63, 40
5, 160740, Note_on_c, 3, 60, 43
5, 160800, Note_on_c, 3, 60, 0
5, 160800, Note_on_c, 3, 63, 0
5, 160800, Note_on_c, 3, 59, 45
5, 160800, Note_on_c, 3, 62, 43
5, 160920, Note_on_c, 3, 62, 0
5, 160920, Note_on_c, 3, 59, 0
5, 166560, Note_on_c, 3, 60, 73
5, 166560, Note_on_c, 3, 64, 60
5, 166800, Note_on_c, 3, 64, 0
5, 166800, Note_on_c, 3, 60, 0
5, 166800, Note_on_c, 3, 65, 61
5, 166800, Note_on_c, 3, 59, 68
5, 167040, Note_on_c, 3, 59, 0
5, 167040, Note_on_c, 3, 65, 0
5, 167040, Note_on_c, 3, 64, 58
5, 167040, Note_on_c, 3, 60, 61
5, 167400, Note_on_c, 3, 60, 0
5, 167400, Note_on_c, 3, 64, 0
5, 167400, Note_on_c, 3, 55, 54
5, 167400, Note_on_c, 3, 60, 65
5, 167520, Note_on_c, 3, 60, 0
5, 167520, Note_on_c, 3, 55, 0
5, 167520, Note_on_c, 3, 62, 54
5, 167520, Note_on_c, 3, 59, 70
5, 167610, Note_on_c, 3, 59, 0
5, 167610, Note_on_c, 3, 62, 0
5, 167640, Note_on_c, 3, 62, 53
5, 167640, Note_on_c, 3, 59, 73
5, 167730, Note_on_c, 3, 59, 0
5, 167730, Note_on_c, 3, 62, 0
5, 167760, Note_on_c, 3, 62, 51
5, 167760, Note_on_c, 3, 59, 64
5, 167850, Note_on_c, 3, 59, 0
5, 167850, Note_on_c, 3, 62, 0
5, 167880, Note_on_c, 3, 63, 61
5, 167880, Note_on_c, 3, 59, 78
5, 167970, Note_on_c, 3, 59, 0
5, 167970, Note_on_c, 3, 63, 0
5, 168000, Note_on_c, 3, 63, 59
5, 168000, Note_on_c, 3, 59, 70
5, 168240, Note_on_c, 3, 59, 0
5, 168240, Note_on_c, 3, 63, 0
5, 168240, Note_on_c, 3, 60, 69
5, 168240, Note_on_c, 3, 64, 70
5, 168360, Note_on_c, 3, 64, 0
5, 168360, Note_on_c, 3, 60, 0
5, 168360, Note_on_c, 3, 58, 69
5, 168420, Note_on_c, 3, 60, 84
5, 168480, Note_on_c, 3, 60, 0
5, 168480, Note_on_c, 3, 58, 0
5, 168480, Note_on_c, 3, 65, 81
5, 168480, Note_on_c, 3, 57, 93
5, 168720, Note_on_c, 3, 57, 0
5, 168720, Note_on_c, 3, 65, 0
5, 168720, Note_on_c, 3, 64, 64
5, 168720, Note_on_c, 3, 55, 58
5, 168840, Note_on_c, 3, 55, 0
5, 168840, Note_on_c, 3, 64, 0
5, 168900, Note_on_c, 3, 60, 69
5, 168960, Note_on_c, 3, 60, 0
5, 168960, Note_on_c, 3, 60, 76
5, 168960, Note_on_c, 3, 53, 84
5, 169200, Note_on_c, 3, 53, 0
5, 169200, Note_on_c, 3, 60, 0
5, 169200, Note_on_c, 3, 60, 56
5, 169200, Note_on_c, 3, 52, 72
5, 169320, Note_on_c, 3, 52, 0
5, 169320, Note_on_c, 3, 60, 0
5, 169380, Note_on_c, 3, 65, 58
5, 169380, Note_on_c, 3, 62, 55
5, 169440, Note_on_c, 3, 62, 0
5, 169440, Note_on_c, 3, 65, 0
5, 169440, Note_on_c, 3, 60, 78
5, 169440, Note_on_c, 3, 64, 76
5, 169500, Note_on_c, 3, 64, 0
5, 169500, Note_on_c, 3, 60, 0
5, 169560, Note_on_c, 3, 60, 80
5, 169560, Note_on_c, 3, 64, 84
5, 169620, Note_on_c, 3, 64, 0
5, 169620, Note_on_c, 3, 60, 0
5, 169680, Note_on_c, 3, 60, 84
5, 169680, Note_on_c, 3, 64, 81
5, 169740, Note_on_c, 3, 64, 0
5, 169740, Note_on_c, 3, 60, 0
5, 169740, Note_on_c, 3, 62, 69
5, 169740, Note_on_c, 3, 59, 89
5, 169800, Note_on_c, 3, 59, 0
5, 169800, Note_on_c, 3, 62, 0
5, 169800, Note_on_c, 3, 57, 90
5, 169800, Note_on_c, 3, 60, 84
5, 169860, Note_on_c, 3, 60, 0
5, 169860, Note_on_c, 3, 57, 0
5, 169860, Note_on_c, 3, 62, 76
5, 169860, Note_on_c, 3, 59, 85
5, 169920, Note_on_c, 3, 59, 0
5, 169920, Note_on_c, 3, 62, 0
5, 169920, Note_on_c, 3, 59, 85
5, 169920, Note_on_c, 3, 62, 93
5, 170100, Note_on_c, 3, 62, 0
5, 170100, Note_on_c, 3, 63, 86
5, 170160, Note_on_c, 3, 63, 0
5, 170160, Note_on_c, 3, 59, 0
5, 170160, Note_on_c, 3, 60, 85
5, 170160, Note_on_c, 3, 64, 93
5, 170280, Note_on_c, 3, 64, 0
5, 170280, Note_on_c, 3, 60, 0
5, 173400, Note_on_c, 3, 67, 50
5, 173400, Note_on_c, 3, 64, 52
5, 173490, Note_on_c, 3, 64, 0
5, 173490, Note_on_c, 3, 67, 0
5, 173520, Note_on_c, 3, 67, 59
5, 173520, Note_on_c, 3, 64, 49
5, 173610, Note_on_c, 3, 64, 0
5, 173610, Note_on_c, 3, 67, 0
5, 173640, Note_on_c, 3, 67, 52
5, 173640, Note_on_c, 3, 64, 46
5, 173730, Note_on_c, 3, 64, 0
5, 173730, Note_on_c, 3, 67, 0
5, 173760, Control_c, 3, 7, 99
5, 173760, Note_on_c, 3, 67, 63
5, 173760, Note_on_c, 3, 64, 62
5, 173775, Control_c, 3, 7, 100
5, 173790, Control_c, 3, 7, 101
5, 173805, Control_c, 3, 7, 102
5, 173820, Control_c, 3, 7, 103
5, 173835, Control_c, 3, 7, 104
5, 173850, Control_c, 3, 7, 105
5, 173865, Control_c, 3, 7, 106
5, 173880, Control_c, 3, 7, 107
5, 173895, Control_c, 3, 7, 108
5, 173910, Control_c, 3, 7, 109
5, 173925, Control_c, 3, 7, 110
5, 173940, Control_c, 3, 7, 111
5, 173955, Control_c, 3, 7, 112
5, 173980, Control_c, 3, 7, 111
5, 174000, Note_on_c, 3, 64, 0
5, 174000, Note_on_c, 3, 67, 0
5, 174000, Control_c, 3, 7, 110
5, 174000, Note_on_c, 3, 62, 55
5, 174000, Note_on_c, 3, 67, 62
5, 174025, Control_c, 3, 7, 109
5, 174045, Control_c, 3, 7, 108
5, 174065, Control_c, 3, 7, 107
5, 174090, Control_c, 3, 7, 106
5, 174110, Control_c, 3, 7, 105
5, 174135, Control_c, 3, 7, 104
5, 174155, Control_c, 3, 7, 103
5, 174175, Control_c, 3, 7, 102
5, 174180, Note_on_c, 3, 67, 0
5, 174180, Note_on_c, 3, 62, 0
5, 174180, Note_on_c, 3, 67, 73
5, 174180, Note_on_c, 3, 60, 72
5, 174200, Control_c, 3, 7, 101
5, 174220, Control_c, 3, 7, 100
5, 174240, Note_on_c, 3, 60, 0
5, 174240, Note_on_c, 3, 67, 0
5, 174240, Control_c, 3, 7, 99
5, 174240, Note_on_c, 3, 65, 64
5, 174240, Note_on_c, 3, 53, 65
5, 174360, Note_on_c, 3, 53, 0
5, 174360, Note_on_c, 3, 65, 0
5, 184920, Note_on_c, 3, 62, 53
5, 185010, Note_on_c, 3, 62, 0
5, 185040, Note_on_c, 3, 62, 59
5, 185130, Note_on_c, 3, 62, 0
5, 185160, Note_on_c, 3, 62, 65
5, 185250, Note_on_c, 3, 62, 0
5, 185280, Note_on_c, 3, 64, 55
5, 185880, Note_on_c, 3, 64, 0
5, 185880, Note_on_c, 3, 64, 49
5, 185970, Note_on_c, 3, 64, 0
5, 186000, Note_on_c, 3, 64, 62
5, 186090, Note_on_c, 3, 64, 0
5, 186120, Note_on_c, 3, 64, 63
5, 186210, Note_on_c, 3, 64, 0
5, 186240, Note_on_c, 3, 65, 57
5, 186840, Note_on_c, 3, 65, 0
5, 186840, Note_on_c, 3, 65, 59
5, 186930, Note_on_c, 3, 65, 0
5, 186960, Note_on_c, 3, 65, 46
5, 187050, Note_on_c, 3, 65, 0
5, 187080, Note_on_c, 3, 65, 61
5, 187170, Note_on_c, 3, 65, 0
5, 187200, Note_on_c, 3, 66, 68
5, 187800, Note_on_c, 3, 66, 0
5, 187800, Note_on_c, 3, 66, 57
5, 187890, Note_on_c, 3, 66, 0
5, 187920, Note_on_c, 3, 66, 46
5, 188010, Note_on_c, 3, 66, 0
5, 188040, Note_on_c, 3, 66, 58
5, 188130, Note_on_c, 3, 66, 0
5, 188160, Note_on_c, 3, 67, 73
5, 188280, Note_on_c, 3, 67, 0
5, 192960, Note_on_c, 3, 60, 85
5, 192960, Note_on_c, 3, 48, 93
5, 193200, Note_on_c, 3, 48, 0
5, 193200, Note_on_c, 3, 60, 0
5, 193200, Note_on_c, 3, 64, 60
5, 193200, Note_on_c, 3, 52, 72
5, 193440, Note_on_c, 3, 52, 0
5, 193440, Note_on_c, 3, 64, 0
5, 193440, Note_on_c, 3, 55, 53
5, 193440, Note_on_c, 3, 67, 45
5, 193620, Note_on_c, 3, 67, 0
5, 193620, Note_on_c, 3, 55, 0
5, 193620, Note_on_c, 3, 53, 72
5, 193620, Note_on_c, 3, 65, 68
5, 193650, Note_on_c, 3, 65, 0
5, 193650, Note_on_c, 3, 53, 0
5, 193680, Note_on_c, 3, 64, 72
5, 193680, Note_on_c, 3, 52, 84
5, 193740, Note_on_c, 3, 52, 0
5, 193740, Note_on_c, 3, 64, 0
5, 193800, Note_on_c, 3, 49, 78
5, 193800, Note_on_c, 3, 61, 68
5, 193860, Note_on_c, 3, 61, 0
5, 193860, Note_on_c, 3, 49, 0
5, 193920, Note_on_c, 3, 60, 65
5, 193920, Note_on_c, 3, 48, 66
5, 193980, Note_on_c, 3, 48, 0
5, 193980, Note_on_c, 3, 60, 0
5, 194040, Note_on_c, 3, 46, 84
5, 194040, Note_on_c, 3, 58, 78
5, 194100, Note_on_c, 3, 58, 0
5, 194100, Note_on_c, 3, 46, 0
5, 194160, Note_on_c, 3, 44, 90
5, 194160, Note_on_c, 3, 56, 80
5, 194220, Note_on_c, 3, 56, 0
5, 194220, Note_on_c, 3, 44, 0
5, 194280, Note_on_c, 3, 43, 76
5, 194280, Note_on_c, 3, 55, 76
5, 194340, Note_on_c, 3, 55, 0
5, 194340, Note_on_c, 3, 43, 0
5, 194400, Note_on_c, 3, 41, 74
5, 194400, Note_on_c, 3, 53, 70
5, 194520, Note_on_c, 3, 53, 0
5, 194520, Note_on_c, 3, 41, 0
5, 195840, Note_on_c, 3, 59, 84
5, 195840, Note_on_c, 3, 55, 86
5, 196080, Note_on_c, 3, 55, 0
5, 196080, Note_on_c, 3, 59, 0
5, 196080, Note_on_c, 3, 59, 90
5, 196080, Note_on_c, 3, 62, 76
5, 196320, Note_on_c, 3, 62, 0
5, 196320, Note_on_c, 3, 59, 0
5, 196320, Note_on_c, 3, 62, 90
5, 196320, Note_on_c, 3, 65, 89
5, 196500, Note_on_c, 3, 65, 0
5, 196500, Note_on_c, 3, 62, 0
5, 196500, Note_on_c, 3, 60, 76
5, 196500, Note_on_c, 3, 63, 80
5, 196530, Note_on_c, 3, 63, 0
5, 196530, Note_on_c, 3, 60, 0
5, 196560, Note_on_c, 3, 59, 84
5, 196560, Note_on_c, 3, 62, 90
5, 196620, Note_on_c, 3, 62, 0
5, 196620, Note_on_c, 3, 59, 0
5, 196680, Note_on_c, 3, 60, 81
5, 196680, Note_on_c, 3, 56, 85
5, 196740, Note_on_c, 3, 56, 0
5, 196740, Note_on_c, 3, 60, 0
5, 196800, Note_on_c, 3, 55, 82
5, 196800, Note_on_c, 3, 59, 94
5, 196860, Note_on_c, 3, 59, 0
5, 196860, Note_on_c, 3, 55, 0
5, 196920, Note_on_c, 3, 56, 86
5, 196920, Note_on_c, 3, 53, 90
5, 196980, Note_on_c, 3, 53, 0
5, 196980, Note_on_c, 3, 56, 0
5, 197040, Note_on_c, 3, 55, 81
5, 197040, Note_on_c, 3, 51, 86
5, 197100, Note_on_c, 3, 51, 0
5, 197100, Note_on_c, 3, 55, 0
5, 197160, Note_on_c, 3, 50, 86
5, 197160, Note_on_c, 3, 53, 90
5, 197220, Note_on_c, 3, 53, 0
5, 197220, Note_on_c, 3, 50, 0
5, 197280, Note_on_c, 3, 51, 94
5, 197280, Note_on_c, 3, 48, 99
5, 197400, Note_on_c, 3, 48, 0
5, 197400, Note_on_c, 3, 51, 0
5, 197400, Note_on_c, 3, 63, 90
5, 197400, Note_on_c, 3, 60, 89
5, 197640, Note_on_c, 3, 60, 0
5, 197640, Note_on_c, 3, 63, 0
5, 197640, Note_on_c, 3, 63, 93
5, 197640, Note_on_c, 3, 60, 89
5, 197880, Note_on_c, 3, 60, 0
5, 197880, Note_on_c, 3, 63, 0
5, 197880, Note_on_c, 3, 60, 84
5, 197880, Note_on_c, 3, 63, 95
5, 198120, Note_on_c, 3, 63, 0
5, 198120, Note_on_c, 3, 60, 0
5, 198120, Note_on_c, 3, 63, 94
5, 198120, Note_on_c, 3, 60, 89
5, 198360, Note_on_c, 3, 60, 0
5, 198360, Note_on_c, 3, 63, 0
5, 198360, Note_on_c, 3, 60, 93
5, 198360, Note_on_c, 3, 63, 94
5, 198600, Note_on_c, 3, 63, 0
5, 198600, Note_on_c, 3, 60, 0
5, 198600, Note_on_c, 3, 63, 90
5, 198600, Note_on_c, 3, 60, 86
5, 198840, Note_on_c, 3, 60, 0
5, 198840, Note_on_c, 3, 63, 0
5, 198840, Note_on_c, 3, 60, 84
5, 198840, Note_on_c, 3, 63, 94
5, 199080, Note_on_c, 3, 63, 0
5, 199080, Note_on_c, 3, 60, 0
5, 199080, Note_on_c, 3, 60, 95
5, 199080, Note_on_c, 3, 63, 90
5, 199440, Note_on_c, 3, 63, 0
5, 199440, Note_on_c, 3, 60, 0
5, 256320, Note_on_c, 3, 48, 95
5, 256320, Note_on_c, 3, 60, 99
5, 256560, Note_on_c, 3, 60, 0
5, 256560, Note_on_c, 3, 48, 0
5, 256560, Note_on_c, 3, 44, 93
5, 256560, Note_on_c, 3, 56, 89
5, 256800, Note_on_c, 3, 56, 0
5, 256800, Note_on_c, 3, 44, 0
5, 256800, Note_on_c, 3, 41, 98
5, 256800, Note_on_c, 3, 53, 90
5, 257040, Note_on_c, 3, 53, 0
5, 257040, Note_on_c, 3, 41, 0
5, 257040, Note_on_c, 3, 43, 94
5, 257040, Note_on_c, 3, 55, 94
5, 257280, Note_on_c, 3, 55, 0
5, 257280, Note_on_c, 3, 43, 0
5, 257280, Note_on_c, 3, 48, 107
5, 257400, Note_on_c, 3, 48, 0
5, 257520, Note_on_c, 3, 48, 99
5, 257520, Note_on_c, 3, 60, 98
5, 257580, Note_on_c, 3, 60, 0
5, 257580, Note_on_c, 3, 48, 0
5, 258000, Note_on_c, 3, 63, 93
5, 258000, Note_on_c, 3, 60, 95
5, 258060, Note_on_c, 3, 60, 0
5, 258060, Note_on_c, 3, 63, 0
5, 258480, Note_on_c, 3, 60, 89
5, 258480, Note_on_c, 3, 48, 93
5, 258600, Note_on_c, 3, 48, 0
5, 258600, Note_on_c, 3, 60, 0
5, 258720, Note_on_c, 3, 55, 95
5, 258720, Note_on_c, 3, 67, 94
5, 258840, Note_on_c, 3, 67, 0
5, 258840, Note_on_c, 3, 55, 0
5, 258960, Note_on_c, 3, 51, 98
5, 258960, Note_on_c, 3, 63, 89
5, 259080, Note_on_c, 3, 63, 0
5, 259080, Note_on_c, 3, 51, 0
5, 259200, Note_on_c, 3, 48, 99
5, 259200, Note_on_c, 3, 60, 94
5, 259320, Note_on_c, 3, 60, 0
5, 259320, Note_on_c, 3, 48, 0
5, 259650, Note_on_c, 3, 36, 104
5, 259650, Note_on_c, 3, 48, 98
5, 259680, Note_on_c, 3, 48, 0
5, 259680, Note_on_c, 3, 36, 0
5, 259680, Note_on_c, 3, 48, 98
5, 259680, Note_on_c, 3, 36, 98
5, 259800, Note_on_c, 3, 36, 0
5, 259800, Note_on_c, 3, 48, 0
5, 260130, Note_on_c, 3, 36, 99
5, 260130, Note_on_c, 3, 48, 99
5, 260160, Note_on_c, 3, 48, 0
5, 260160, Note_on_c, 3, 36, 0
5, 260160, Note_on_c, 3, 36, 105
5, 260160, Note_on_c, 3, 48, 98
5, 260640, Note_on_c, 3, 48, 0
5, 260640, Note_on_c, 3, 36, 0
5, 260640, End_track
6, 0, Start_track
6, 0, MIDI_port, 0
6, 0, Title_t, "French Horns"
6, 0, Program_c, 4, 60
6, 0, Control_c, 4, 7, 100
6, 0, Control_c, 4, 10, 54
6, 0, Control_c, 4, 93, 0
6, 0, Control_c, 4, 91, 66
6, 1920, Note_on_c, 4, 67, 55
6, 1920, Note_on_c, 4, 55, 48
6, 2160, Note_on_c, 4, 55, 0
6, 2160, Note_on_c, 4, 67, 0
6, 2160, Note_on_c, 4, 55, 50
6, 2160, Note_on_c, 4, 67, 53
6, 2400, Note_on_c, 4, 67, 0
6, 2400, Note_on_c, 4, 55, 0
6, 2400, Note_on_c, 4, 67, 80
6, 2400, Note_on_c, 4, 55, 86
6, 2580, Note_on_c, 4, 55, 0
6, 2580, Note_on_c, 4, 67, 0
6, 2580, Note_on_c, 4, 67, 64
6, 2580, Note_on_c, 4, 55, 65
6, 2610, Note_on_c, 4, 55, 0
6, 2610, Note_on_c, 4, 67, 0
6, 2640, Note_on_c, 4, 67, 60
6, 2640, Note_on_c, 4, 55, 55
6, 2700, Note_on_c, 4, 55, 0
6, 2700, Note_on_c, 4, 67, 0
6, 2760, Note_on_c, 4, 67, 60
6, 2760, Note_on_c, 4, 55, 43
6, 2820, Note_on_c, 4, 55, 0
6, 2820, Note_on_c, 4, 67, 0
6, 2880, Note_on_c, 4, 67, 44
6, 2880, Note_on_c, 4, 55, 44
6, 2940, Note_on_c, 4, 55, 0
6, 2940, Note_on_c, 4, 67, 0
6, 3120, Note_on_c, 4, 67, 44
6, 3120, Note_on_c, 4, 55, 43
6, 3180, Note_on_c, 4, 55, 0
6, 3180, Note_on_c, 4, 67, 0
6, 3360, Note_on_c, 4, 67, 46
6, 3360, Note_on_c, 4, 55, 43
6, 3420, Note_on_c, 4, 55, 0
6, 3420, Note_on_c, 4, 67, 0
6, 5400, Note_on_c, 4, 65, 90
6, 5640, Note_on_c, 4, 65, 0
6, 5640, Note_on_c, 4, 65, 80
6, 5760, Note_on_c, 4, 65, 0
6, 5760, Note_on_c, 4, 67, 65
6, 5760, Note_on_c, 4, 55, 66
6, 6000, Note_on_c, 4, 55, 0
6, 6000, Note_on_c, 4, 67, 0
6, 6360, Note_on_c, 4, 67, 74
6, 6360, Note_on_c, 4, 55, 80
6, 6600, Note_on_c, 4, 55, 0
6, 6600, Note_on_c, 4, 67, 0
6, 6600, Note_on_c, 4, 55, 59
6, 6600, Note_on_c, 4, 67, 55
6, 6720, Note_on_c, 4, 67, 0
6, 6720, Note_on_c, 4, 55, 0
6, 6720, Note_on_c, 4, 67, 70
6, 6720, Note_on_c, 4, 55, 67
6, 6840, Note_on_c, 4, 55, 0
6, 6840, Note_on_c, 4, 67, 0
6, 6840, Note_on_c, 4, 68, 90
6, 6840, Note_on_c, 4, 65, 84
6, 6900, Note_on_c, 4, 65, 0
6, 6900, Note_on_c, 4, 68, 0
6, 6960, Note_on_c, 4, 67, 86
6, 7020, Note_on_c, 4, 67, 0
6, 7080, Note_on_c, 4, 67, 85
6, 7080, Note_on_c, 4, 55, 93
6, 7140, Note_on_c, 4, 55, 0
6, 7140, Note_on_c, 4, 67, 0
6, 7200, Note_on_c, 4, 67, 77
6, 7200, Note_on_c, 4, 55, 84
6, 7320, Note_on_c, 4, 55, 0
6, 7320, Note_on_c, 4, 67, 0
6, 8640, Note_on_c, 4, 67, 43
6, 8640, Note_on_c, 4, 55, 45
6, 8760, Note_on_c, 4, 55, 0
6, 8760, Note_on_c, 4, 67, 0
6, 8880, Note_on_c, 4, 67, 49
6, 8880, Note_on_c, 4, 55, 43
6, 9000, Note_on_c, 4, 55, 0
6, 9000, Note_on_c, 4, 67, 0
6, 9120, Note_on_c, 4, 67, 46
6, 9120, Note_on_c, 4, 55, 43
6, 9240, Note_on_c, 4, 55, 0
6, 9240, Note_on_c, 4, 67, 0
6, 10560, Note_on_c, 4, 65, 43
6, 10560, Note_on_c, 4, 58, 53
6, 10680, Note_on_c, 4, 58, 0
6, 10680, Note_on_c, 4, 65, 0
6, 10800, Note_on_c, 4, 65, 46
6, 10800, Note_on_c, 4, 58, 44
6, 10920, Note_on_c, 4, 58, 0
6, 10920, Note_on_c, 4, 65, 0
6, 11040, Note_on_c, 4, 63, 76
6, 11040, Note_on_c, 4, 51, 94
6, 11220, Note_on_c, 4, 51, 0
6, 11220, Note_on_c, 4, 63, 0
6, 11280, Note_on_c, 4, 67, 81
6, 11280, Note_on_c, 4, 55, 90
6, 11460, Note_on_c, 4, 55, 0
6, 11460, Note_on_c, 4, 67, 0
6, 11520, Note_on_c, 4, 70, 78
6, 11520, Note_on_c, 4, 58, 89
6, 11700, Note_on_c, 4, 58, 0
6, 11700, Note_on_c, 4, 70, 0
6, 11700, Note_on_c, 4, 68, 80
6, 11700, Note_on_c, 4, 58, 94
6, 11760, Note_on_c, 4, 58, 0
6, 11760, Note_on_c, 4, 68, 0
6, 11760, Note_on_c, 4, 67, 84
6, 11760, Note_on_c, 4, 58, 90
6, 11880, Note_on_c, 4, 58, 0
6, 11880, Note_on_c, 4, 67, 0
6, 11880, Note_on_c, 4, 58, 94
6, 11880, Note_on_c, 4, 65, 81
6, 12000, Note_on_c, 4, 65, 0
6, 12000, Note_on_c, 4, 58, 0
6, 12000, Note_on_c, 4, 55, 93
6, 12000, Note_on_c, 4, 63, 72
6, 12600, Note_on_c, 4, 63, 0
6, 12600, Note_on_c, 4, 55, 0
6, 13920, Note_on_c, 4, 65, 77
6, 13920, Note_on_c, 4, 58, 84
6, 14520, Note_on_c, 4, 58, 0
6, 14520, Note_on_c, 4, 65, 0
6, 14520, Note_on_c, 4, 65, 89
6, 14520, Note_on_c, 4, 58, 76
6, 14640, Note_on_c, 4, 58, 0
6, 14640, Note_on_c, 4, 65, 0
6, 14640, Note_on_c, 4, 65, 77
6, 14640, Note_on_c, 4, 58, 82
6, 14760, Note_on_c, 4, 58, 0
6, 14760, Note_on_c, 4, 65, 0
6, 14760, Note_on_c, 4, 58, 78
6, 14760, Note_on_c, 4, 65, 80
6, 14880, Note_on_c, 4, 65, 0
6, 14880, Note_on_c, 4, 58, 0
6, 14880, Note_on_c, 4, 63, 84
6, 14880, Note_on_c, 4, 51, 95
6, 15480, Note_on_c, 4, 51, 0
6, 15480, Note_on_c, 4, 63, 0
6, 15480, Note_on_c, 4, 63, 76
6, 15480, Note_on_c, 4, 51, 93
6, 15600, Note_on_c, 4, 51, 0
6, 15600, Note_on_c, 4, 63, 0
6, 15600, Note_on_c, 4, 63, 85
6, 15600, Note_on_c, 4, 51, 99
6, 15720, Note_on_c, 4, 51, 0
6, 15720, Note_on_c, 4, 63, 0
6, 15720, Note_on_c, 4, 51, 99
6, 15720, Note_on_c, 4, 63, 89
6, 15840, Note_on_c, 4, 63, 0
6, 15840, Note_on_c, 4, 51, 0
6, 15840, Note_on_c, 4, 63, 84
6, 15840, Note_on_c, 4, 51, 98
6, 16440, Note_on_c, 4, 51, 0
6, 16440, Note_on_c, 4, 63, 0
6, 16440, Note_on_c, 4, 63, 85
6, 16440, Note_on_c, 4, 51, 99
6, 16560, Note_on_c, 4, 51, 0
6, 16560, Note_on_c, 4, 63, 0
6, 16560, Note_on_c, 4, 63, 90
6, 16560, Note_on_c, 4, 51, 95
6, 16680, Note_on_c, 4, 51, 0
6, 16680, Note_on_c, 4, 63, 0
6, 16680, Note_on_c, 4, 63, 77
6, 16680, Note_on_c, 4, 51, 90
6, 16800, Note_on_c, 4, 51, 0
6, 16800, Note_on_c, 4, 63, 0
6, 16800, Note_on_c, 4, 58, 72
6, 16800, Note_on_c, 4, 46, 76
6, 16920, Note_on_c, 4, 46, 0
6, 16920, Note_on_c, 4, 58, 0
6, 16920, Note_on_c, 4, 58, 81
6, 16920, Note_on_c, 4, 46, 99
6, 17400, Note_on_c, 4, 46, 0
6, 17400, Note_on_c, 4, 58, 0
6, 17400, Note_on_c, 4, 58, 95
6, 17400, Note_on_c, 4, 46, 94
6, 17880, Note_on_c, 4, 46, 0
6, 17880, Note_on_c, 4, 58, 0
6, 17880, Note_on_c, 4, 46, 99
6, 17880, Note_on_c, 4, 58, 89
6, 18360, Note_on_c, 4, 58, 0
6, 18360, Note_on_c, 4, 46, 0
6, 18360, Note_on_c, 4, 58, 93
6, 18360, Note_on_c, 4, 46, 101
6, 18480, Note_on_c, 4, 46, 0
6, 18480, Note_on_c, 4, 58, 0
6, 18480, Note_on_c, 4, 58, 70
6, 18480, Note_on_c, 4, 46, 81
6, 18600, Note_on_c, 4, 46, 0
6, 18600, Note_on_c, 4, 58, 0
6, 18600, Note_on_c, 4, 46, 74
6, 18600, Note_on_c, 4, 58, 69
6, 18840, Note_on_c, 4, 58, 0
6, 18840, Note_on_c, 4, 46, 0
6, 18840, Note_on_c, 4, 46, 89
6, 18840, Note_on_c, 4, 58, 72
6, 19320, Note_on_c, 4, 58, 0
6, 19320, Note_on_c, 4, 46, 0
6, 19320, Note_on_c, 4, 46, 84
6, 19320, Note_on_c, 4, 58, 70
6, 19800, Note_on_c, 4, 58, 0
6, 19800, Note_on_c, 4, 46, 0
6, 19800, Note_on_c, 4, 46, 85
6, 19800, Note_on_c, 4, 58, 73
6, 20280, Note_on_c, 4, 58, 0
6, 20280, Note_on_c, 4, 46, 0
6, 20280, Note_on_c, 4, 58, 76
6, 20280, Note_on_c, 4, 46, 89
6, 20400, Note_on_c, 4, 46, 0
6, 20400, Note_on_c, 4, 58, 0
6, 20400, Note_on_c, 4, 58, 45
6, 20400, Note_on_c, 4, 46, 53
6, 20520, Note_on_c, 4, 46, 0
6, 20520, Note_on_c, 4, 58, 0
6, 20520, Note_on_c, 4, 46, 57
6, 20520, Note_on_c, 4, 58, 47
6, 20640, Note_on_c, 4, 58, 0
6, 20640, Note_on_c, 4, 46, 0
6, 20640, Note_on_c, 4, 58, 46
6, 20640, Note_on_c, 4, 46, 58
6, 20760, Note_on_c, 4, 46, 0
6, 20760, Note_on_c, 4, 58, 0
6, 21240, Note_on_c, 4, 58, 85
6, 21360, Note_on_c, 4, 58, 0
6, 21360, Note_on_c, 4, 63, 76
6, 21360, Note_on_c, 4, 51, 86
6, 21420, Note_on_c, 4, 51, 0
6, 21420, Note_on_c, 4, 63, 0
6, 21480, Note_on_c, 4, 63, 72
6, 21480, Note_on_c, 4, 51, 84
6, 21540, Note_on_c, 4, 51, 0
6, 21540, Note_on_c, 4, 63, 0
6, 21600, Note_on_c, 4, 58, 72
6, 21600, Note_on_c, 4, 46, 82
6, 21660, Note_on_c, 4, 46, 0
6, 21660, Note_on_c, 4, 58, 0
6, 21960, Note_on_c, 4, 63, 62
6, 21960, Note_on_c, 4, 51, 84
6, 22020, Note_on_c, 4, 51, 0
6, 22020, Note_on_c, 4, 63, 0
6, 22080, Note_on_c, 4, 58, 68
6, 22080, Note_on_c, 4, 46, 80
6, 22140, Note_on_c, 4, 46, 0
6, 22140, Note_on_c, 4, 58, 0
6, 22440, Note_on_c, 4, 63, 72
6, 22440, Note_on_c, 4, 51, 90
6, 22500, Note_on_c, 4, 51, 0
6, 22500, Note_on_c, 4, 63, 0
6, 22560, Note_on_c, 4, 58, 84
6, 22560, Note_on_c, 4, 46, 89
6, 22680, Control_c, 4, 7, 99
6, 22685, Control_c, 4, 7, 97
6, 22690, Control_c, 4, 7, 94
6, 22695, Control_c, 4, 7, 92
6, 22700, Control_c, 4, 7, 89
6, 22705, Control_c, 4, 7, 86
6, 22710, Control_c, 4, 7, 84
6, 22715, Control_c, 4, 7, 81
6, 22720, Control_c, 4, 7, 79
6, 22725, Control_c, 4, 7, 76
6, 22730, Control_c, 4, 7, 73
6, 22735, Control_c, 4, 7, 71
6, 22740, Control_c, 4, 7, 68
6, 22745, Control_c, 4, 7, 65
6, 23040, Control_c, 4, 7, 65
6, 23050, Control_c, 4, 7, 66
6, 23060, Control_c, 4, 7, 67
6, 23065, Control_c, 4, 7, 68
6, 23075, Control_c, 4, 7, 69
6, 23080, Control_c, 4, 7, 70
6, 23090, Control_c, 4, 7, 71
6, 23095, Control_c, 4, 7, 72
6, 23105, Control_c, 4, 7, 73
6, 23110, Control_c, 4, 7, 74
6, 23120, Control_c, 4, 7, 75
6, 23130, Control_c, 4, 7, 76
6, 23135, Control_c, 4, 7, 77
6, 23145, Control_c, 4, 7, 78
6, 23150, Control_c, 4, 7, 79
6, 23160, Control_c, 4, 7, 80
6, 23165, Control_c, 4, 7, 81
6, 23175, Control_c, 4, 7, 82
6, 23180, Control_c, 4, 7, 83
6, 23190, Control_c, 4, 7, 84
6, 23195, Control_c, 4, 7, 85
6, 23205, Control_c, 4, 7, 86
6, 23215, Control_c, 4, 7, 87
6, 23220, Control_c, 4, 7, 88
6, 23230, Control_c, 4, 7, 89
6, 23235, Control_c, 4, 7, 90
6, 23245, Control_c, 4, 7, 91
6, 23250, Control_c, 4, 7, 92
6, 23260, Control_c, 4, 7, 93
6, 23265, Control_c, 4, 7, 94
6, 23275, Control_c, 4, 7, 95
6, 23280, Control_c, 4, 7, 96
6, 23290, Control_c, 4, 7, 95
6, 23295, Control_c, 4, 7, 94
6, 23305, Control_c, 4, 7, 93
6, 23310, Control_c, 4, 7, 92
6, 23320, Control_c, 4, 7, 91
6, 23325, Control_c, 4, 7, 90
6, 23335, Control_c, 4, 7, 89
6, 23340, Control_c, 4, 7, 88
6, 23350, Control_c, 4, 7, 87
6, 23355, Control_c, 4, 7, 86
6, 23365, Control_c, 4, 7, 85
6, 23370, Control_c, 4, 7, 84
6, 23380, Control_c, 4, 7, 83
6, 23385, Control_c, 4, 7, 82
6, 23395, Control_c, 4, 7, 81
6, 23400, Control_c, 4, 7, 80
6, 23405, Control_c, 4, 7, 79
6, 23415, Control_c, 4, 7, 78
6, 23420, Control_c, 4, 7, 77
6, 23430, Control_c, 4, 7, 76
6, 23435, Control_c, 4, 7, 75
6, 23445, Control_c, 4, 7, 74
6, 23450, Control_c, 4, 7, 73
6, 23460, Control_c, 4, 7, 72
6, 23465, Control_c, 4, 7, 71
6, 23475, Control_c, 4, 7, 70
6, 23480, Control_c, 4, 7, 69
6, 23490, Control_c, 4, 7, 68
6, 23495, Control_c, 4, 7, 67
6, 23505, Control_c, 4, 7, 66
6, 23510, Control_c, 4, 7, 65
6, 23515, Control_c, 4, 7, 64
6, 23520, Note_on_c, 4, 46, 0
6, 23520, Note_on_c, 4, 58, 0
6, 23520, Note_on_c, 4, 67, 48
6, 23520, Note_on_c, 4, 63, 58
6, 23520, Control_c, 4, 7, 99
6, 23760, Note_on_c, 4, 63, 0
6, 23760, Note_on_c, 4, 67, 0
6, 23760, Note_on_c, 4, 65, 62
6, 23760, Note_on_c, 4, 58, 64
6, 24000, Note_on_c, 4, 58, 0
6, 24000, Note_on_c, 4, 65, 0
6, 24000, Note_on_c, 4, 63, 45
6, 24000, Note_on_c, 4, 55, 76
6, 24360, Note_on_c, 4, 55, 0
6, 24360, Note_on_c, 4, 63, 0
6, 24360, Note_on_c, 4, 63, 44
6, 24360, Note_on_c, 4, 55, 76
6, 24480, Note_on_c, 4, 55, 0
6, 24480, Note_on_c, 4, 63, 0
6, 24480, Note_on_c, 4, 65, 57
6, 24480, Note_on_c, 4, 58, 64
6, 24600, Note_on_c, 4, 58, 0
6, 24600, Note_on_c, 4, 65, 0
6, 24600, Note_on_c, 4, 58, 57
6, 24600, Note_on_c, 4, 46, 65
6, 24690, Note_on_c, 4, 46, 0
6, 24690, Note_on_c, 4, 58, 0
6, 24720, Note_on_c, 4, 58, 52
6, 24720, Note_on_c, 4, 46, 60
6, 24810, Note_on_c, 4, 46, 0
6, 24810, Note_on_c, 4, 58, 0
6, 24840, Note_on_c, 4, 58, 52
6, 24840, Note_on_c, 4, 46, 60
6, 24930, Note_on_c, 4, 46, 0
6, 24930, Note_on_c, 4, 58, 0
6, 24960, Note_on_c, 4, 58, 67
6, 24960, Note_on_c, 4, 46, 72
6, 25200, Note_on_c, 4, 46, 0
6, 25200, Note_on_c, 4, 51, 78
6, 25320, Note_on_c, 4, 51, 0
6, 25320, Note_on_c, 4, 58, 0
6, 25380, Note_on_c, 4, 63, 43
6, 25380, Note_on_c, 4, 51, 64
6, 25440, Note_on_c, 4, 51, 0
6, 25440, Note_on_c, 4, 63, 0
6, 25440, Note_on_c, 4, 63, 62
6, 25440, Note_on_c, 4, 51, 57
6, 25680, Note_on_c, 4, 51, 0
6, 25680, Note_on_c, 4, 63, 0
6, 25680, Note_on_c, 4, 63, 61
6, 25680, Note_on_c, 4, 51, 64
6, 25800, Note_on_c, 4, 51, 0
6, 25800, Note_on_c, 4, 63, 0
6, 25920, Note_on_c, 4, 63, 50
6, 25920, Note_on_c, 4, 51, 57
6, 26160, Note_on_c, 4, 51, 0
6, 26160, Note_on_c, 4, 63, 0
6, 26160, Note_on_c, 4, 63, 62
6, 26160, Note_on_c, 4, 51, 58
6, 26280, Note_on_c, 4, 51, 0
6, 26280, Note_on_c, 4, 63, 0
6, 26520, Note_on_c, 4, 65, 73
6, 26520, Note_on_c, 4, 58, 57
6, 26640, Note_on_c, 4, 58, 0
6, 26640, Note_on_c, 4, 65, 0
6, 26640, Note_on_c, 4, 67, 43
6, 26640, Note_on_c, 4, 63, 73
6, 26760, Note_on_c, 4, 63, 0
6, 26760, Note_on_c, 4, 67, 0
6, 26760, Note_on_c, 4, 68, 74
6, 26760, Note_on_c, 4, 65, 50
6, 26880, Note_on_c, 4, 65, 0
6, 26880, Note_on_c, 4, 68, 0
6, 26880, Note_on_c, 4, 67, 45
6, 26880, Note_on_c, 4, 63, 65
6, 27120, Note_on_c, 4, 63, 0
6, 27120, Note_on_c, 4, 67, 0
6, 27120, Note_on_c, 4, 65, 47
6, 27120, Note_on_c, 4, 58, 52
6, 27240, Note_on_c, 4, 58, 0
6, 27240, Note_on_c, 4, 65, 0
6, 27360, Note_on_c, 4, 67, 58
6, 27360, Note_on_c, 4, 55, 45
6, 28320, Note_on_c, 4, 55, 0
6, 28320, Note_on_c, 4, 67, 0
6, 28320, Note_on_c, 4, 63, 52
6, 28440, Note_on_c, 4, 63, 0
6, 28800, Note_on_c, 4, 55, 61
6, 28800, Note_on_c, 4, 67, 62
6, 28800, Control_c, 4, 7, 99
6, 28820, Control_c, 4, 7, 100
6, 28840, Control_c, 4, 7, 101
6, 28860, Control_c, 4, 7, 102
6, 28880, Control_c, 4, 7, 103
6, 28895, Control_c, 4, 7, 104
6, 28915, Control_c, 4, 7, 105
6, 28935, Control_c, 4, 7, 106
6, 28955, Control_c, 4, 7, 107
6, 28975, Control_c, 4, 7, 108
6, 28990, Control_c, 4, 7, 109
6, 29010, Control_c, 4, 7, 110
6, 29030, Control_c, 4, 7, 111
6, 29050, Control_c, 4, 7, 112
6, 29070, Control_c, 4, 7, 113
6, 29085, Control_c, 4, 7, 114
6, 29105, Control_c, 4, 7, 115
6, 29125, Control_c, 4, 7, 116
6, 29145, Control_c, 4, 7, 117
6, 29165, Control_c, 4, 7, 118
6, 29180, Control_c, 4, 7, 119
6, 29200, Control_c, 4, 7, 120
6, 29220, Control_c, 4, 7, 121
6, 29240, Control_c, 4, 7, 122
6, 29255, Control_c, 4, 7, 123
6, 29280, Note_on_c, 4, 67, 0
6, 29280, Note_on_c, 4, 55, 0
6, 29280, Note_on_c, 4, 67, 68
6, 29280, Note_on_c, 4, 55, 62
6, 29280, Control_c, 4, 7, 99
6, 30240, Note_on_c, 4, 55, 0
6, 30240, Note_on_c, 4, 67, 0
6, 30240, Note_on_c, 4, 67, 52
6, 30240, Note_on_c, 4, 55, 44
6, 30330, Note_on_c, 4, 55, 0
6, 30330, Note_on_c, 4, 67, 0
6, 30360, Note_on_c, 4, 67, 60
6, 30360, Note_on_c, 4, 55, 53
6, 30450, Note_on_c, 4, 55, 0
6, 30450, Note_on_c, 4, 67, 0
6, 30480, Note_on_c, 4, 67, 62
6, 30480, Note_on_c, 4, 55, 60
6, 30570, Note_on_c, 4, 55, 0
6, 30570, Note_on_c, 4, 67, 0
6, 30600, Note_on_c, 4, 67, 50
6, 30600, Note_on_c, 4, 55, 47
6, 30690, Note_on_c, 4, 55, 0
6, 30690, Note_on_c, 4, 67, 0
6, 30720, Note_on_c, 4, 67, 61
6, 30720, Note_on_c, 4, 55, 59
6, 31080, Note_on_c, 4, 55, 0
6, 31080, Note_on_c, 4, 67, 0
6, 37920, Note_on_c, 4, 67, 76
6, 37920, Note_on_c, 4, 55, 73
6, 39000, Note_on_c, 4, 55, 0
6, 39000, Note_on_c, 4, 67, 0
6, 39000, Note_on_c, 4, 67, 80
6, 39000, Note_on_c, 4, 55, 78
6, 39120, Note_on_c, 4, 55, 0
6, 39120, Note_on_c, 4, 67, 0
6, 39120, Note_on_c, 4, 67, 89
6, 39120, Note_on_c, 4, 55, 94
6, 39240, Note_on_c, 4, 55, 0
6, 39240, Note_on_c, 4, 67, 0
6, 39240, Note_on_c, 4, 67, 85
6, 39240, Note_on_c, 4, 55, 90
6, 39360, Note_on_c, 4, 55, 0
6, 39360, Note_on_c, 4, 67, 0
6, 39360, Note_on_c, 4, 72, 80
6, 39360, Note_on_c, 4, 60, 98
6, 39480, Note_on_c, 4, 60, 0
6, 39480, Note_on_c, 4, 72, 0
6, 39480, Note_on_c, 4, 72, 76
6, 39480, Note_on_c, 4, 60, 99
6, 39600, Note_on_c, 4, 60, 0
6, 39600, Note_on_c, 4, 72, 0
6, 39720, Note_on_c, 4, 72, 73
6, 39720, Note_on_c, 4, 60, 94
6, 39840, Note_on_c, 4, 60, 0
6, 39840, Note_on_c, 4, 72, 0
6, 39960, Note_on_c, 4, 72, 76
6, 39960, Note_on_c, 4, 60, 98
6, 40080, Note_on_c, 4, 60, 0
6, 40080, Note_on_c, 4, 72, 0
6, 40200, Note_on_c, 4, 67, 98
6, 40200, Note_on_c, 4, 55, 99
6, 40320, Note_on_c, 4, 55, 0
6, 40320, Note_on_c, 4, 67, 0
6, 40320, Note_on_c, 4, 72, 70
6, 40320, Note_on_c, 4, 60, 94
6, 40440, Note_on_c, 4, 60, 0
6, 40440, Note_on_c, 4, 72, 0
6, 42000, Note_on_c, 4, 67, 58
6, 42000, Note_on_c, 4, 55, 57
6, 42360, Note_on_c, 4, 55, 0
6, 42360, Note_on_c, 4, 67, 0
6, 48600, Note_on_c, 4, 63, 64
6, 48600, Note_on_c, 4, 51, 67
6, 48720, Note_on_c, 4, 51, 0
6, 48720, Note_on_c, 4, 63, 0
6, 48720, Note_on_c, 4, 63, 81
6, 48720, Note_on_c, 4, 51, 94
6, 48840, Note_on_c, 4, 51, 0
6, 48840, Note_on_c, 4, 63, 0
6, 48840, Note_on_c, 4, 63, 89
6, 48840, Note_on_c, 4, 51, 95
6, 48960, Note_on_c, 4, 51, 0
6, 48960, Note_on_c, 4, 63, 0
6, 48960, Note_on_c, 4, 67, 84
6, 48960, Note_on_c, 4, 55, 86
6, 49200, Note_on_c, 4, 55, 0
6, 49200, Note_on_c, 4, 67, 0
6, 49200, Note_on_c, 4, 67, 86
6, 49200, Note_on_c, 4, 55, 89
6, 49440, Note_on_c, 4, 55, 0
6, 49440, Note_on_c, 4, 67, 0
6, 49440, Note_on_c, 4, 67, 93
6, 49440, Note_on_c, 4, 55, 95
6, 49560, Note_on_c, 4, 55, 0
6, 49560, Note_on_c, 4, 67, 0
6, 51060, Note_on_c, 4, 67, 89
6, 51060, Note_on_c, 4, 55, 90
6, 51090, Note_on_c, 4, 55, 0
6, 51090, Note_on_c, 4, 67, 0
6, 51120, Note_on_c, 4, 67, 85
6, 51120, Note_on_c, 4, 55, 93
6, 51180, Note_on_c, 4, 55, 0
6, 51180, Note_on_c, 4, 67, 0
6, 51300, Note_on_c, 4, 67, 89
6, 51300, Note_on_c, 4, 55, 94
6, 51330, Note_on_c, 4, 55, 0
6, 51330, Note_on_c, 4, 67, 0
6, 51360, Note_on_c, 4, 67, 86
6, 51360, Note_on_c, 4, 55, 93
6, 51420, Note_on_c, 4, 55, 0
6, 51420, Note_on_c, 4, 67, 0
6, 51540, Note_on_c, 4, 67, 84
6, 51540, Note_on_c, 4, 55, 89
6, 51570, Note_on_c, 4, 55, 0
6, 51570, Note_on_c, 4, 67, 0
6, 51600, Note_on_c, 4, 67, 84
6, 51600, Note_on_c, 4, 55, 84
6, 51660, Note_on_c, 4, 55, 0
6, 51660, Note_on_c, 4, 67, 0
6, 51780, Note_on_c, 4, 67, 81
6, 51780, Note_on_c, 4, 55, 89
6, 51810, Note_on_c, 4, 55, 0
6, 51810, Note_on_c, 4, 67, 0
6, 51840, Note_on_c, 4, 67, 85
6, 51840, Note_on_c, 4, 55, 94
6, 51900, Note_on_c, 4, 55, 0
6, 51900, Note_on_c, 4, 67, 0
6, 62400, Note_on_c, 4, 67, 67
6, 62400, Note_on_c, 4, 55, 76
6, 63000, Note_on_c, 4, 55, 0
6, 63000, Note_on_c, 4, 67, 0
6, 64320, Note_on_c, 4, 58, 57
6, 64320, Note_on_c, 4, 46, 57
6, 64800, Note_on_c, 4, 46, 0
6, 64800, Note_on_c, 4, 58, 0
6, 64800, Note_on_c, 4, 63, 45
6, 64800, Note_on_c, 4, 51, 64
6, 64920, Note_on_c, 4, 51, 0
6, 64920, Note_on_c, 4, 63, 0
6, 65760, Note_on_c, 4, 63, 85
6, 65760, Note_on_c, 4, 51, 94
6, 65940, Note_on_c, 4, 51, 0
6, 65940, Note_on_c, 4, 63, 0
6, 66000, Note_on_c, 4, 67, 86
6, 66000, Note_on_c, 4, 55, 86
6, 66180, Note_on_c, 4, 55, 0
6, 66180, Note_on_c, 4, 67, 0
6, 66240, Note_on_c, 4, 70, 101
6, 66240, Note_on_c, 4, 58, 90
6, 66360, Note_on_c, 4, 58, 0
6, 66360, Note_on_c, 4, 58, 90
6, 66420, Note_on_c, 4, 70, 0
6, 66420, Note_on_c, 4, 68, 90
6, 66450, Note_on_c, 4, 68, 0
6, 66480, Note_on_c, 4, 58, 0
6, 66480, Note_on_c, 4, 67, 90
6, 66480, Note_on_c, 4, 58, 90
6, 66540, Note_on_c, 4, 67, 0
6, 66600, Note_on_c, 4, 58, 0
6, 66600, Note_on_c, 4, 58, 89
6, 66600, Note_on_c, 4, 65, 95
6, 66660, Note_on_c, 4, 65, 0
6, 66720, Note_on_c, 4, 58, 0
6, 66720, Note_on_c, 4, 63, 81
6, 66720, Note_on_c, 4, 55, 98
6, 66840, Note_on_c, 4, 55, 0
6, 66840, Note_on_c, 4, 63, 0
6, 67680, Note_on_c, 4, 63, 80
6, 67680, Note_on_c, 4, 51, 85
6, 68280, Note_on_c, 4, 51, 0
6, 68280, Note_on_c, 4, 63, 0
6, 68280, Note_on_c, 4, 63, 80
6, 68280, Note_on_c, 4, 51, 89
6, 68400, Note_on_c, 4, 51, 0
6, 68400, Note_on_c, 4, 63, 0
6, 68400, Note_on_c, 4, 63, 80
6, 68400, Note_on_c, 4, 51, 94
6, 68520, Note_on_c, 4, 51, 0
6, 68520, Note_on_c, 4, 63, 0
6, 68520, Note_on_c, 4, 51, 94
6, 68520, Note_on_c, 4, 63, 80
6, 68640, Note_on_c, 4, 63, 0
6, 68640, Note_on_c, 4, 51, 0
6, 68640, Note_on_c, 4, 63, 89
6, 68640, Note_on_c, 4, 51, 98
6, 68760, Note_on_c, 4, 51, 0
6, 68760, Note_on_c, 4, 63, 0
6, 71520, Note_on_c, 4, 46, 59
6, 71520, Note_on_c, 4, 58, 50
6, 73560, Note_on_c, 4, 58, 0
6, 73560, Note_on_c, 4, 46, 0
6, 82080, Note_on_c, 4, 67, 58
6, 82080, Note_on_c, 4, 63, 69
6, 82320, Note_on_c, 4, 63, 0
6, 82320, Note_on_c, 4, 67, 0
6, 82320, Note_on_c, 4, 58, 68
6, 82320, Note_on_c, 4, 65, 55
6, 82560, Note_on_c, 4, 65, 0
6, 82560, Note_on_c, 4, 58, 0
6, 82560, Note_on_c, 4, 63, 67
6, 82560, Note_on_c, 4, 55, 81
6, 82920, Note_on_c, 4, 55, 0
6, 82920, Note_on_c, 4, 63, 0
6, 82920, Note_on_c, 4, 55, 85
6, 82920, Note_on_c, 4, 63, 52
6, 83040, Note_on_c, 4, 63, 0
6, 83040, Note_on_c, 4, 55, 0
6, 83040, Note_on_c, 4, 65, 71
6, 83040, Note_on_c, 4, 58, 59
6, 83160, Note_on_c, 4, 58, 0
6, 83160, Note_on_c, 4, 65, 0
6, 83160, Note_on_c, 4, 58, 65
6, 83160, Note_on_c, 4, 46, 73
6, 83250, Note_on_c, 4, 46, 0
6, 83250, Note_on_c, 4, 58, 0
6, 83280, Note_on_c, 4, 58, 48
6, 83280, Note_on_c, 4, 46, 61
6, 83370, Note_on_c, 4, 46, 0
6, 83370, Note_on_c, 4, 58, 0
6, 83400, Note_on_c, 4, 58, 61
6, 83400, Note_on_c, 4, 46, 65
6, 83490, Note_on_c, 4, 46, 0
6, 83490, Note_on_c, 4, 58, 0
6, 83520, Note_on_c, 4, 58, 73
6, 83520, Note_on_c, 4, 46, 73
6, 83760, Note_on_c, 4, 46, 0
6, 83760, Note_on_c, 4, 51, 80
6, 83880, Note_on_c, 4, 51, 0
6, 83880, Note_on_c, 4, 58, 0
6, 84900, Note_on_c, 4, 65, 84
6, 84900, Note_on_c, 4, 68, 89
6, 84960, Note_on_c, 4, 68, 0
6, 84960, Note_on_c, 4, 65, 0
6, 84960, Note_on_c, 4, 67, 72
6, 84960, Note_on_c, 4, 63, 76
6, 85020, Note_on_c, 4, 63, 0
6, 85020, Note_on_c, 4, 67, 0
6, 85080, Note_on_c, 4, 67, 73
6, 85080, Note_on_c, 4, 63, 76
6, 85140, Note_on_c, 4, 63, 0
6, 85140, Note_on_c, 4, 67, 0
6, 85200, Note_on_c, 4, 65, 84
6, 85200, Note_on_c, 4, 58, 84
6, 85320, Note_on_c, 4, 58, 0
6, 85320, Note_on_c, 4, 65, 0
6, 85320, Note_on_c, 4, 46, 94
6, 85320, Note_on_c, 4, 58, 81
6, 85440, Note_on_c, 4, 58, 0
6, 85440, Note_on_c, 4, 46, 0
6, 85440, Note_on_c, 4, 58, 68
6, 85440, Note_on_c, 4, 46, 94
6, 85800, Note_on_c, 4, 46, 0
6, 85800, Note_on_c, 4, 58, 0
6, 95460, Note_on_c, 4, 65, 72
6, 95460, Note_on_c, 4, 58, 74
6, 95490, Note_on_c, 4, 58, 0
6, 95490, Note_on_c, 4, 65, 0
6, 95520, Note_on_c, 4, 67, 55
6, 95520, Note_on_c, 4, 63, 65
6, 95580, Note_on_c, 4, 63, 0
6, 95580, Note_on_c, 4, 67, 0
6, 95940, Note_on_c, 4, 65, 70
6, 95940, Note_on_c, 4, 58, 69
6, 95970, Note_on_c, 4, 58, 0
6, 95970, Note_on_c, 4, 65, 0
6, 96000, Note_on_c, 4, 67, 63
6, 96000, Note_on_c, 4, 63, 68
6, 96060, Note_on_c, 4, 63, 0
6, 96060, Note_on_c, 4, 67, 0
6, 104640, Note_on_c, 4, 55, 70
6, 104640, Note_on_c, 4, 63, 65
6, 104880, Note_on_c, 4, 63, 0
6, 104880, Note_on_c, 4, 55, 0
6, 104880, Note_on_c, 4, 67, 60
6, 104880, Note_on_c, 4, 63, 73
6, 105120, Note_on_c, 4, 63, 0
6, 105120, Note_on_c, 4, 67, 0
6, 105120, Note_on_c, 4, 67, 82
6, 105120, Note_on_c, 4, 70, 84
6, 105300, Note_on_c, 4, 70, 0
6, 105300, Note_on_c, 4, 67, 0
6, 105300, Note_on_c, 4, 65, 73
6, 105300, Note_on_c, 4, 68, 64
6, 105330, Note_on_c, 4, 68, 0
6, 105330, Note_on_c, 4, 65, 0
6, 105360, Note_on_c, 4, 63, 77
6, 105360, Note_on_c, 4, 67, 72
6, 105420, Note_on_c, 4, 67, 0
6, 105420, Note_on_c, 4, 63, 0
6, 105480, Note_on_c, 4, 58, 72
6, 105480, Note_on_c, 4, 65, 73
6, 105540, Note_on_c, 4, 65, 0
6, 105540, Note_on_c, 4, 58, 0
6, 105600, Note_on_c, 4, 55, 69
6, 105600, Note_on_c, 4, 63, 62
6, 105660, Note_on_c, 4, 63, 0
6, 105660, Note_on_c, 4, 55, 0
6, 105780, Note_on_c, 4, 58, 74
6, 105780, Note_on_c, 4, 65, 67
6, 105810, Note_on_c, 4, 65, 0
6, 105810, Note_on_c, 4, 58, 0
6, 105840, Note_on_c, 4, 55, 81
6, 105840, Note_on_c, 4, 63, 67
6, 105900, Note_on_c, 4, 63, 0
6, 105900, Note_on_c, 4, 55, 0
6, 106020, Note_on_c, 4, 58, 68
6, 106020, Note_on_c, 4, 65, 52
6, 106050, Note_on_c, 4, 65, 0
6, 106050, Note_on_c, 4, 58, 0
6, 106080, Note_on_c, 4, 55, 81
6, 106080, Note_on_c, 4, 63, 64
6, 106140, Note_on_c, 4, 63, 0
6, 106140, Note_on_c, 4, 55, 0
6, 107520, Note_on_c, 4, 58, 51
6, 107520, Note_on_c, 4, 65, 38
6, 107520, Control_c, 4, 7, 100
6, 107540, Control_c, 4, 7, 101
6, 107560, Control_c, 4, 7, 102
6, 107575, Control_c, 4, 7, 103
6, 107595, Control_c, 4, 7, 104
6, 107610, Control_c, 4, 7, 105
6, 107630, Control_c, 4, 7, 106
6, 107645, Control_c, 4, 7, 107
6, 107665, Control_c, 4, 7, 108
6, 107680, Control_c, 4, 7, 109
6, 107700, Control_c, 4, 7, 110
6, 107720, Control_c, 4, 7, 111
6, 107735, Control_c, 4, 7, 112
6, 107755, Control_c, 4, 7, 113
6, 107770, Control_c, 4, 7, 114
6, 107790, Control_c, 4, 7, 115
6, 107805, Control_c, 4, 7, 116
6, 107825, Control_c, 4, 7, 117
6, 107840, Control_c, 4, 7, 118
6, 107860, Control_c, 4, 7, 119
6, 107880, Control_c, 4, 7, 120
6, 107895, Control_c, 4, 7, 121
6, 107915, Control_c, 4, 7, 122
6, 107930, Control_c, 4, 7, 123
6, 107950, Control_c, 4, 7, 124
6, 107965, Control_c, 4, 7, 125
6, 107985, Control_c, 4, 7, 126
6, 108000, Control_c, 4, 7, 127
6, 108020, Control_c, 4, 7, 126
6, 108035, Control_c, 4, 7, 125
6, 108055, Control_c, 4, 7, 124
6, 108070, Control_c, 4, 7, 123
6, 108085, Control_c, 4, 7, 122
6, 108105, Control_c, 4, 7, 121
6, 108120, Control_c, 4, 7, 120
6, 108135, Control_c, 4, 7, 119
6, 108155, Control_c, 4, 7, 118
6, 108170, Control_c, 4, 7, 117
6, 108185, Control_c, 4, 7, 116
6, 108205, Control_c, 4, 7, 115
6, 108220, Control_c, 4, 7, 114
6, 108235, Control_c, 4, 7, 113
6, 108255, Control_c, 4, 7, 112
6, 108270, Control_c, 4, 7, 111
6, 108285, Control_c, 4, 7, 110
6, 108305, Control_c, 4, 7, 109
6, 108320, Control_c, 4, 7, 108
6, 108335, Control_c, 4, 7, 107
6, 108355, Control_c, 4, 7, 106
6, 108370, Control_c, 4, 7, 105
6, 108385, Control_c, 4, 7, 104
6, 108405, Control_c, 4, 7, 103
6, 108420, Control_c, 4, 7, 102
6, 108435, Control_c, 4, 7, 101
6, 108455, Control_c, 4, 7, 100
6, 108470, Control_c, 4, 7, 99
6, 108480, Note_on_c, 4, 65, 0
6, 108480, Note_on_c, 4, 58, 0
6, 108480, Note_on_c, 4, 63, 69
6, 108480, Note_on_c, 4, 55, 94
6, 108485, Control_c, 4, 7, 98
6, 108600, Note_on_c, 4, 55, 0
6, 108600, Note_on_c, 4, 63, 0
6, 109560, Note_on_c, 4, 63, 71
6, 109560, Note_on_c, 4, 55, 90
6, 109680, Note_on_c, 4, 55, 0
6, 109680, Note_on_c, 4, 63, 0
6, 109800, Note_on_c, 4, 63, 78
6, 109920, Note_on_c, 4, 63, 0
6, 110040, Note_on_c, 4, 65, 85
6, 110040, Note_on_c, 4, 63, 86
6, 110160, Note_on_c, 4, 63, 0
6, 110160, Note_on_c, 4, 65, 0
6, 110280, Note_on_c, 4, 65, 84
6, 110280, Note_on_c, 4, 58, 89
6, 110400, Note_on_c, 4, 58, 0
6, 110400, Note_on_c, 4, 65, 0
6, 110400, Note_on_c, 4, 67, 81
6, 110400, Note_on_c, 4, 63, 89
6, 110880, Note_on_c, 4, 67, 0
6, 110880, Note_on_c, 4, 65, 90
6, 111120, Note_on_c, 4, 65, 0
6, 111120, Note_on_c, 4, 63, 0
6, 111120, Note_on_c, 4, 67, 80
6, 111120, Note_on_c, 4, 55, 90
6, 111480, Note_on_c, 4, 55, 0
6, 111480, Note_on_c, 4, 67, 0
6, 139200, Note_on_c, 4, 67, 68
6, 139200, Note_on_c, 4, 55, 68
6, 141240, Note_on_c, 4, 55, 0
6, 141240, Note_on_c, 4, 67, 0
6, 147840, Note_on_c, 4, 60, 98
6, 147840, Note_on_c, 4, 72, 84
6, 148080, Note_on_c, 4, 72, 0
6, 148080, Note_on_c, 4, 60, 0
6, 148080, Note_on_c, 4, 72, 78
6, 148080, Note_on_c, 4, 60, 105
6, 148320, Note_on_c, 4, 60, 0
6, 148320, Note_on_c, 4, 72, 0
6, 148320, Note_on_c, 4, 72, 105
6, 148320, Note_on_c, 4, 60, 112
6, 148500, Note_on_c, 4, 60, 0
6, 148500, Note_on_c, 4, 72, 0
6, 148500, Note_on_c, 4, 60, 93
6, 148500, Note_on_c, 4, 72, 67
6, 148530, Note_on_c, 4, 72, 0
6, 148530, Note_on_c, 4, 60, 0
6, 148560, Note_on_c, 4, 60, 90
6, 148560, Note_on_c, 4, 72, 62
6, 148620, Note_on_c, 4, 72, 0
6, 148620, Note_on_c, 4, 60, 0
6, 148680, Note_on_c, 4, 60, 94
6, 148680, Note_on_c, 4, 72, 68
6, 148740, Note_on_c, 4, 72, 0
6, 148740, Note_on_c, 4, 60, 0
6, 148800, Note_on_c, 4, 60, 95
6, 148800, Note_on_c, 4, 72, 66
6, 148860, Note_on_c, 4, 72, 0
6, 148860, Note_on_c, 4, 60, 0
6, 148980, Note_on_c, 4, 55, 95
6, 148980, Note_on_c, 4, 67, 90
6, 149010, Note_on_c, 4, 67, 0
6, 149010, Note_on_c, 4, 55, 0
6, 149040, Note_on_c, 4, 60, 95
6, 149040, Note_on_c, 4, 72, 67
6, 149100, Note_on_c, 4, 72, 0
6, 149100, Note_on_c, 4, 60, 0
6, 149220, Note_on_c, 4, 55, 94
6, 149220, Note_on_c, 4, 67, 90
6, 149250, Note_on_c, 4, 67, 0
6, 149250, Note_on_c, 4, 55, 0
6, 149280, Note_on_c, 4, 60, 94
6, 149280, Note_on_c, 4, 72, 68
6, 149340, Note_on_c, 4, 72, 0
6, 149340, Note_on_c, 4, 60, 0
6, 149760, Note_on_c, 4, 67, 94
6, 149760, Note_on_c, 4, 79, 93
6, 150000, Note_on_c, 4, 79, 0
6, 150000, Note_on_c, 4, 67, 0
6, 150000, Note_on_c, 4, 79, 99
6, 150000, Note_on_c, 4, 67, 98
6, 150240, Note_on_c, 4, 67, 0
6, 150240, Note_on_c, 4, 79, 0
6, 150240, Note_on_c, 4, 79, 112
6, 150240, Note_on_c, 4, 67, 112
6, 150420, Note_on_c, 4, 67, 0
6, 150420, Note_on_c, 4, 79, 0
6, 150420, Note_on_c, 4, 67, 94
6, 150420, Note_on_c, 4, 79, 95
6, 150450, Note_on_c, 4, 79, 0
6, 150450, Note_on_c, 4, 67, 0
6, 150480, Note_on_c, 4, 67, 93
6, 150480, Note_on_c, 4, 79, 94
6, 150540, Note_on_c, 4, 79, 0
6, 150540, Note_on_c, 4, 67, 0
6, 150600, Note_on_c, 4, 67, 98
6, 150600, Note_on_c, 4, 79, 93
6, 150660, Note_on_c, 4, 79, 0
6, 150660, Note_on_c, 4, 67, 0
6, 150720, Note_on_c, 4, 79, 98
6, 150720, Note_on_c, 4, 67, 99
6, 150780, Note_on_c, 4, 67, 0
6, 150780, Note_on_c, 4, 79, 0
6, 150960, Note_on_c, 4, 79, 60
6, 150960, Note_on_c, 4, 67, 68
6, 151020, Note_on_c, 4, 67, 0
6, 151020, Note_on_c, 4, 79, 0
6, 151200, Note_on_c, 4, 67, 65
6, 151200, Note_on_c, 4, 79, 62
6, 151260, Note_on_c, 4, 79, 0
6, 151260, Note_on_c, 4, 67, 0
6, 157920, Note_on_c, 4, 55, 60
6, 157920, Note_on_c, 4, 67, 58
6, 159960, Note_on_c, 4, 67, 0
6, 159960, Note_on_c, 4, 55, 0
6, 160020, Note_on_c, 4, 67, 42
6, 160020, Note_on_c, 4, 79, 46
6, 160080, Note_on_c, 4, 79, 0
6, 160080, Note_on_c, 4, 67, 0
6, 160080, Note_on_c, 4, 67, 40
6, 160080, Note_on_c, 4, 79, 44
6, 160200, Note_on_c, 4, 79, 0
6, 160200, Note_on_c, 4, 67, 0
6, 160260, Note_on_c, 4, 79, 41
6, 160260, Note_on_c, 4, 67, 39
6, 160320, Note_on_c, 4, 67, 0
6, 160320, Note_on_c, 4, 79, 0
6, 160320, Note_on_c, 4, 79, 43
6, 160320, Note_on_c, 4, 67, 40
6, 160440, Note_on_c, 4, 67, 0
6, 160440, Note_on_c, 4, 79, 0
6, 160500, Note_on_c, 4, 79, 42
6, 160500, Note_on_c, 4, 67, 40
6, 160560, Note_on_c, 4, 67, 0
6, 160560, Note_on_c, 4, 79, 0
6, 160560, Note_on_c, 4, 67, 44
6, 160560, Note_on_c, 4, 79, 43
6, 160680, Note_on_c, 4, 79, 0
6, 160680, Note_on_c, 4, 67, 0
6, 160740, Note_on_c, 4, 67, 43
6, 160740, Note_on_c, 4, 79, 45
6, 160800, Note_on_c, 4, 79, 0
6, 160800, Note_on_c, 4, 67, 0
6, 160800, Note_on_c, 4, 67, 40
6, 160800, Note_on_c, 4, 79, 45
6, 160920, Note_on_c, 4, 79, 0
6, 160920, Note_on_c, 4, 67, 0
6, 166560, Note_on_c, 4, 76, 66
6, 166560, Note_on_c, 4, 72, 47
6, 166800, Note_on_c, 4, 72, 0
6, 166800, Note_on_c, 4, 76, 0
6, 166800, Note_on_c, 4, 67, 80
6, 166800, Note_on_c, 4, 74, 66
6, 167040, Note_on_c, 4, 74, 0
6, 167040, Note_on_c, 4, 67, 0
6, 167040, Note_on_c, 4, 64, 69
6, 167040, Note_on_c, 4, 72, 35
6, 167400, Note_on_c, 4, 72, 0
6, 167400, Note_on_c, 4, 64, 0
6, 167400, Note_on_c, 4, 64, 84
6, 167400, Note_on_c, 4, 72, 39
6, 167520, Note_on_c, 4, 72, 0
6, 167520, Note_on_c, 4, 64, 0
6, 167520, Note_on_c, 4, 74, 78
6, 167520, Note_on_c, 4, 67, 89
6, 167640, Note_on_c, 4, 67, 0
6, 167640, Note_on_c, 4, 74, 0
6, 167640, Note_on_c, 4, 55, 63
6, 167640, Note_on_c, 4, 67, 57
6, 167730, Note_on_c, 4, 67, 0
6, 167730, Note_on_c, 4, 55, 0
6, 167760, Note_on_c, 4, 55, 60
6, 167760, Note_on_c, 4, 67, 59
6, 167850, Note_on_c, 4, 67, 0
6, 167850, Note_on_c, 4, 55, 0
6, 167880, Note_on_c, 4, 55, 62
6, 167880, Note_on_c, 4, 67, 49
6, 167970, Note_on_c, 4, 67, 0
6, 167970, Note_on_c, 4, 55, 0
6, 168000, Note_on_c, 4, 55, 63
6, 168000, Note_on_c, 4, 67, 46
6, 168360, Note_on_c, 4, 67, 0
6, 168360, Note_on_c, 4, 55, 0
6, 168420, Note_on_c, 4, 60, 73
6, 168420, Note_on_c, 4, 72, 45
6, 168480, Note_on_c, 4, 72, 0
6, 168480, Note_on_c, 4, 60, 0
6, 168480, Note_on_c, 4, 60, 99
6, 168480, Note_on_c, 4, 72, 72
6, 168840, Note_on_c, 4, 72, 0
6, 168840, Note_on_c, 4, 60, 0
6, 168900, Note_on_c, 4, 60, 65
6, 168900, Note_on_c, 4, 72, 41
6, 168960, Note_on_c, 4, 72, 0
6, 168960, Note_on_c, 4, 60, 0
6, 168960, Note_on_c, 4, 60, 99
6, 168960, Note_on_c, 4, 72, 73
6, 169320, Note_on_c, 4, 72, 0
6, 169320, Note_on_c, 4, 60, 0
6, 169380, Note_on_c, 4, 77, 62
6, 169380, Note_on_c, 4, 74, 80
6, 169440, Note_on_c, 4, 74, 0
6, 169440, Note_on_c, 4, 77, 0
6, 169440, Note_on_c, 4, 76, 80
6, 169440, Note_on_c, 4, 72, 64
6, 169500, Note_on_c, 4, 72, 0
6, 169500, Note_on_c, 4, 76, 0
6, 169560, Note_on_c, 4, 76, 81
6, 169560, Note_on_c, 4, 72, 62
6, 169620, Note_on_c, 4, 72, 0
6, 169620, Note_on_c, 4, 76, 0
6, 169680, Note_on_c, 4, 74, 84
6, 169680, Note_on_c, 4, 67, 77
6, 169800, Note_on_c, 4, 67, 0
6, 169800, Note_on_c, 4, 74, 0
6, 169800, Note_on_c, 4, 79, 73
6, 169800, Note_on_c, 4, 67, 77
6, 169920, Note_on_c, 4, 67, 0
6, 169920, Note_on_c, 4, 79, 0
6, 169920, Note_on_c, 4, 79, 73
6, 169920, Note_on_c, 4, 67, 80
6, 170280, Note_on_c, 4, 67, 0
6, 170280, Note_on_c, 4, 79, 0
6, 179940, Note_on_c, 4, 67, 72
6, 179940, Note_on_c, 4, 74, 58
6, 179970, Note_on_c, 4, 74, 0
6, 179970, Note_on_c, 4, 67, 0
6, 180000, Note_on_c, 4, 76, 77
6, 180000, Note_on_c, 4, 72, 46
6, 180060, Note_on_c, 4, 72, 0
6, 180060, Note_on_c, 4, 76, 0
6, 180420, Note_on_c, 4, 67, 67
6, 180420, Note_on_c, 4, 74, 61
6, 180450, Note_on_c, 4, 74, 0
6, 180450, Note_on_c, 4, 67, 0
6, 180480, Note_on_c, 4, 76, 77
6, 180480, Note_on_c, 4, 72, 70
6, 180540, Note_on_c, 4, 72, 0
6, 180540, Note_on_c, 4, 76, 0
6, 182820, Note_on_c, 4, 67, 76
6, 182820, Note_on_c, 4, 79, 72
6, 182850, Note_on_c, 4, 79, 0
6, 182850, Note_on_c, 4, 67, 0
6, 182880, Note_on_c, 4, 67, 68
6, 182880, Note_on_c, 4, 79, 53
6, 182940, Note_on_c, 4, 79, 0
6, 182940, Note_on_c, 4, 67, 0
6, 183300, Note_on_c, 4, 79, 60
6, 183300, Note_on_c, 4, 67, 67
6, 183330, Note_on_c, 4, 67, 0
6, 183330, Note_on_c, 4, 79, 0
6, 183360, Note_on_c, 4, 67, 76
6, 183360, Note_on_c, 4, 79, 62
6, 183420, Note_on_c, 4, 79, 0
6, 183420, Note_on_c, 4, 67, 0
6, 189120, Note_on_c, 4, 72, 58
6, 189120, Note_on_c, 4, 64, 62
6, 189360, Note_on_c, 4, 64, 0
6, 189360, Note_on_c, 4, 72, 0
6, 189360, Note_on_c, 4, 76, 69
6, 189360, Note_on_c, 4, 72, 59
6, 189600, Note_on_c, 4, 72, 0
6, 189600, Note_on_c, 4, 76, 0
6, 189600, Note_on_c, 4, 79, 80
6, 189600, Note_on_c, 4, 76, 93
6, 189780, Note_on_c, 4, 76, 0
6, 189780, Note_on_c, 4, 79, 0
6, 189780, Note_on_c, 4, 77, 64
6, 189780, Note_on_c, 4, 74, 74
6, 189810, Note_on_c, 4, 74, 0
6, 189810, Note_on_c, 4, 77, 0
6, 189840, Note_on_c, 4, 72, 61
6, 189840, Note_on_c, 4, 76, 74
6, 189900, Note_on_c, 4, 76, 0
6, 189900, Note_on_c, 4, 72, 0
6, 189960, Note_on_c, 4, 74, 67
6, 189960, Note_on_c, 4, 67, 73
6, 190020, Note_on_c, 4, 67, 0
6, 190020, Note_on_c, 4, 74, 0
6, 190080, Note_on_c, 4, 72, 64
6, 190080, Note_on_c, 4, 64, 56
6, 190140, Note_on_c, 4, 64, 0
6, 190140, Note_on_c, 4, 72, 0
6, 190260, Note_on_c, 4, 74, 76
6, 190260, Note_on_c, 4, 67, 68
6, 190290, Note_on_c, 4, 67, 0
6, 190290, Note_on_c, 4, 74, 0
6, 190320, Note_on_c, 4, 72, 62
6, 190320, Note_on_c, 4, 64, 56
6, 190380, Note_on_c, 4, 64, 0
6, 190380, Note_on_c, 4, 72, 0
6, 190500, Note_on_c, 4, 74, 72
6, 190500, Note_on_c, 4, 67, 67
6, 190530, Note_on_c, 4, 67, 0
6, 190530, Note_on_c, 4, 74, 0
6, 190560, Note_on_c, 4, 72, 65
6, 190560, Note_on_c, 4, 64, 65
6, 190620, Note_on_c, 4, 64, 0
6, 190620, Note_on_c, 4, 72, 0
6, 192000, Note_on_c, 4, 74, 65
6, 192000, Note_on_c, 4, 67, 68
6, 192000, Control_c, 4, 7, 99
6, 192025, Control_c, 4, 7, 100
6, 192045, Control_c, 4, 7, 101
6, 192065, Control_c, 4, 7, 102
6, 192085, Control_c, 4, 7, 103
6, 192105, Control_c, 4, 7, 104
6, 192130, Control_c, 4, 7, 105
6, 192150, Control_c, 4, 7, 106
6, 192170, Control_c, 4, 7, 107
6, 192190, Control_c, 4, 7, 108
6, 192210, Control_c, 4, 7, 109
6, 192230, Control_c, 4, 7, 110
6, 192255, Control_c, 4, 7, 111
6, 192275, Control_c, 4, 7, 112
6, 192295, Control_c, 4, 7, 113
6, 192315, Control_c, 4, 7, 114
6, 192335, Control_c, 4, 7, 115
6, 192355, Control_c, 4, 7, 116
6, 192380, Control_c, 4, 7, 117
6, 192400, Control_c, 4, 7, 118
6, 192420, Control_c, 4, 7, 119
6, 192440, Control_c, 4, 7, 120
6, 192460, Control_c, 4, 7, 121
6, 192480, Control_c, 4, 7, 122
6, 192505, Control_c, 4, 7, 121
6, 192525, Control_c, 4, 7, 120
6, 192545, Control_c, 4, 7, 119
6, 192565, Control_c, 4, 7, 118
6, 192585, Control_c, 4, 7, 117
6, 192610, Control_c, 4, 7, 116
6, 192630, Control_c, 4, 7, 115
6, 192650, Control_c, 4, 7, 114
6, 192670, Control_c, 4, 7, 113
6, 192690, Control_c, 4, 7, 112
6, 192710, Control_c, 4, 7, 111
6, 192735, Control_c, 4, 7, 110
6, 192755, Control_c, 4, 7, 109
6, 192775, Control_c, 4, 7, 108
6, 192795, Control_c, 4, 7, 107
6, 192815, Control_c, 4, 7, 106
6, 192835, Control_c, 4, 7, 105
6, 192860, Control_c, 4, 7, 104
6, 192880, Control_c, 4, 7, 103
6, 192900, Control_c, 4, 7, 102
6, 192920, Control_c, 4, 7, 101
6, 192940, Control_c, 4, 7, 100
6, 192960, Note_on_c, 4, 67, 0
6, 192960, Note_on_c, 4, 74, 0
6, 192960, Control_c, 4, 7, 99
6, 192960, Note_on_c, 4, 76, 90
6, 192960, Note_on_c, 4, 72, 66
6, 193080, Note_on_c, 4, 72, 0
6, 193080, Note_on_c, 4, 76, 0
6, 193440, Note_on_c, 4, 72, 44
6, 193440, Note_on_c, 4, 60, 65
6, 194040, Note_on_c, 4, 60, 0
6, 194040, Note_on_c, 4, 72, 0
6, 194040, Note_on_c, 4, 60, 74
6, 194040, Note_on_c, 4, 72, 43
6, 194160, Note_on_c, 4, 72, 0
6, 194160, Note_on_c, 4, 60, 0
6, 194160, Note_on_c, 4, 60, 65
6, 194160, Note_on_c, 4, 72, 40
6, 194280, Note_on_c, 4, 72, 0
6, 194280, Note_on_c, 4, 60, 0
6, 194280, Note_on_c, 4, 72, 45
6, 194280, Note_on_c, 4, 60, 71
6, 194400, Note_on_c, 4, 60, 0
6, 194400, Note_on_c, 4, 72, 0
6, 194400, Note_on_c, 4, 60, 63
6, 194400, Note_on_c, 4, 72, 33
6, 194520, Note_on_c, 4, 72, 0
6, 194520, Note_on_c, 4, 60, 0
6, 195840, Note_on_c, 4, 79, 74
6, 195840, Note_on_c, 4, 67, 76
6, 196920, Note_on_c, 4, 67, 0
6, 196920, Note_on_c, 4, 79, 0
6, 196920, Note_on_c, 4, 67, 74
6, 196920, Note_on_c, 4, 79, 73
6, 197040, Note_on_c, 4, 79, 0
6, 197040, Note_on_c, 4, 67, 0
6, 197040, Note_on_c, 4, 67, 78
6, 197040, Note_on_c, 4, 79, 80
6, 197160, Note_on_c, 4, 79, 0
6, 197160, Note_on_c, 4, 67, 0
6, 197160, Note_on_c, 4, 79, 80
6, 197160, Note_on_c, 4, 67, 82
6, 197280, Note_on_c, 4, 67, 0
6, 197280, Note_on_c, 4, 79, 0
6, 197280, Note_on_c, 4, 60, 94
6, 197280, Note_on_c, 4, 72, 71
6, 197400, Note_on_c, 4, 72, 0
6, 197400, Note_on_c, 4, 60, 0
6, 197400, Note_on_c, 4, 60, 98
6, 197400, Note_on_c, 4, 72, 64
6, 197640, Note_on_c, 4, 72, 0
6, 197640, Note_on_c, 4, 60, 0
6, 197640, Note_on_c, 4, 60, 101
6, 197640, Note_on_c, 4, 72, 73
6, 197880, Note_on_c, 4, 72, 0
6, 197880, Note_on_c, 4, 60, 0
6, 197880, Note_on_c, 4, 60, 101
6, 197880, Note_on_c, 4, 72, 80
6, 198120, Note_on_c, 4, 72, 0
6, 198120, Note_on_c, 4, 60, 0
6, 198120, Note_on_c, 4, 60, 101
6, 198120, Note_on_c, 4, 72, 84
6, 198360, Note_on_c, 4, 72, 0
6, 198360, Note_on_c, 4, 60, 0
6, 198360, Note_on_c, 4, 60, 105
6, 198360, Note_on_c, 4, 72, 82
6, 198600, Note_on_c, 4, 72, 0
6, 198600, Note_on_c, 4, 60, 0
6, 198600, Note_on_c, 4, 72, 84
6, 198600, Note_on_c, 4, 60, 105
6, 198840, Note_on_c, 4, 60, 0
6, 198840, Note_on_c, 4, 72, 0
6, 198840, Note_on_c, 4, 72, 89
6, 198840, Note_on_c, 4, 60, 107
6, 199080, Note_on_c, 4, 60, 0
6, 199080, Note_on_c, 4, 72, 0
6, 199080, Note_on_c, 4, 72, 105
6, 199080, Note_on_c, 4, 60, 112
6, 199440, Note_on_c, 4, 60, 0
6, 199440, Note_on_c, 4, 72, 0
6, 256320, Note_on_c, 4, 60, 72
6, 256320, Note_on_c, 4, 72, 105
6, 256800, Note_on_c, 4, 72, 0
6, 256800, Note_on_c, 4, 60, 0
6, 256800, Note_on_c, 4, 74, 99
6, 256800, Note_on_c, 4, 77, 86
6, 257040, Note_on_c, 4, 77, 0
6, 257040, Note_on_c, 4, 74, 0
6, 257040, Note_on_c, 4, 67, 94
6, 257040, Note_on_c, 4, 74, 104
6, 257280, Note_on_c, 4, 74, 0
6, 257280, Note_on_c, 4, 67, 0
6, 257280, Note_on_c, 4, 60, 95
6, 257280, Note_on_c, 4, 72, 94
6, 257400, Note_on_c, 4, 72, 0
6, 257400, Note_on_c, 4, 60, 0
6, 257520, Note_on_c, 4, 60, 99
6, 257520, Note_on_c, 4, 72, 90
6, 257580, Note_on_c, 4, 72, 0
6, 257580, Note_on_c, 4, 60, 0
6, 258000, Note_on_c, 4, 60, 94
6, 258000, Note_on_c, 4, 72, 86
6, 258060, Note_on_c, 4, 72, 0
6, 258060, Note_on_c, 4, 60, 0
6, 258480, Note_on_c, 4, 60, 93
6, 258480, Note_on_c, 4, 72, 105
6, 258600, Note_on_c, 4, 72, 0
6, 258600, Note_on_c, 4, 60, 0
6, 258720, Note_on_c, 4, 60, 89
6, 258720, Note_on_c, 4, 72, 104
6, 258840, Note_on_c, 4, 72, 0
6, 258840, Note_on_c, 4, 60, 0
6, 258960, Note_on_c, 4, 60, 81
6, 258960, Note_on_c, 4, 72, 110
6, 259080, Note_on_c, 4, 72, 0
6, 259080, Note_on_c, 4, 60, 0
6, 259200, Note_on_c, 4, 60, 99
6, 259200, Note_on_c, 4, 72, 95
6, 259320, Note_on_c, 4, 72, 0
6, 259320, Note_on_c, 4, 60, 0
6, 259650, Note_on_c, 4, 60, 105
6, 259650, Note_on_c, 4, 72, 110
6, 259680, Note_on_c, 4, 72, 0
6, 259680, Note_on_c, 4, 60, 0
6, 259680, Note_on_c, 4, 72, 99
6, 259680, Note_on_c, 4, 60, 105
6, 259800, Note_on_c, 4, 60, 0
6, 259800, Note_on_c, 4, 72, 0
6, 260130, Note_on_c, 4, 72, 112
6, 260130, Note_on_c, 4, 60, 105
6, 260160, Note_on_c, 4, 60, 0
6, 260160, Note_on_c, 4, 72, 0
6, 260160, Note_on_c, 4, 60, 119
6, 260160, Note_on_c, 4, 72, 104
6, 260640, Note_on_c, 4, 72, 0
6, 260640, Note_on_c, 4, 60, 0
6, 260640, End_track
7, 0, Start_track
7, 0, MIDI_port, 0
7, 0, Title_t, "Trumpets"
7, 0, Program_c, 5, 56
7, 0, Control_c, 5, 7, 100
7, 0, Control_c, 5, 10, 77
7, 0, Control_c, 5, 93, 0
7, 0, Control_c, 5, 91, 66
7, 4440, Note_on_c, 5, 72, 53
7, 4440, Note_on_c, 5, 60, 78
7, 4680, Note_on_c, 5, 60, 0
7, 4680, Note_on_c, 5, 72, 0
7, 4680, Note_on_c, 5, 60, 43
7, 4680, Note_on_c, 5, 72, 33
7, 4800, Note_on_c, 5, 72, 0
7, 4800, Note_on_c, 5, 60, 0
7, 4800, Note_on_c, 5, 60, 53
7, 5040, Note_on_c, 5, 60, 0
7, 5400, Note_on_c, 5, 77, 85
7, 5640, Note_on_c, 5, 77, 0
7, 5640, Note_on_c, 5, 77, 70
7, 5760, Note_on_c, 5, 77, 0
7, 5760, Note_on_c, 5, 77, 64
7, 6000, Note_on_c, 5, 77, 0
7, 6360, Note_on_c, 5, 74, 74
7, 6360, Note_on_c, 5, 67, 73
7, 6600, Note_on_c, 5, 67, 0
7, 6600, Note_on_c, 5, 74, 0
7, 6600, Note_on_c, 5, 67, 46
7, 6600, Note_on_c, 5, 74, 57
7, 6720, Note_on_c, 5, 74, 0
7, 6720, Note_on_c, 5, 67, 0
7, 6720, Note_on_c, 5, 72, 40
7, 6720, Note_on_c, 5, 60, 45
7, 6840, Note_on_c, 5, 60, 0
7, 6840, Note_on_c, 5, 72, 0
7, 6840, Note_on_c, 5, 72, 62
7, 6840, Note_on_c, 5, 60, 84
7, 6900, Note_on_c, 5, 60, 0
7, 6900, Note_on_c, 5, 72, 0
7, 6960, Note_on_c, 5, 72, 62
7, 6960, Note_on_c, 5, 60, 86
7, 7020, Note_on_c, 5, 60, 0
7, 7020, Note_on_c, 5, 72, 0
7, 7080, Note_on_c, 5, 67, 81
7, 7080, Note_on_c, 5, 55, 84
7, 7140, Note_on_c, 5, 55, 0
7, 7140, Note_on_c, 5, 67, 0
7, 7200, Note_on_c, 5, 72, 64
7, 7200, Note_on_c, 5, 60, 89
7, 7320, Note_on_c, 5, 60, 0
7, 7320, Note_on_c, 5, 72, 0
7, 29280, Note_on_c, 5, 72, 73
7, 29280, Note_on_c, 5, 64, 54
7, 29520, Note_on_c, 5, 64, 0
7, 29520, Note_on_c, 5, 72, 0
7, 29520, Note_on_c, 5, 67, 44
7, 29520, Note_on_c, 5, 74, 53
7, 29760, Note_on_c, 5, 74, 0
7, 29760, Note_on_c, 5, 67, 0
7, 29760, Note_on_c, 5, 72, 57
7, 29760, Note_on_c, 5, 64, 58
7, 30120, Note_on_c, 5, 64, 0
7, 30120, Note_on_c, 5, 72, 0
7, 30120, Note_on_c, 5, 64, 65
7, 30240, Note_on_c, 5, 64, 0
7, 30240, Note_on_c, 5, 74, 70
7, 30240, Note_on_c, 5, 67, 65
7, 30360, Note_on_c, 5, 67, 0
7, 30360, Note_on_c, 5, 74, 0
7, 30360, Note_on_c, 5, 67, 45
7, 30360, Note_on_c, 5, 55, 43
7, 30480, Note_on_c, 5, 55, 0
7, 30480, Note_on_c, 5, 67, 0
7, 30480, Note_on_c, 5, 67, 57
7, 30480, Note_on_c, 5, 55, 46
7, 30600, Note_on_c, 5, 55, 0
7, 30600, Note_on_c, 5, 67, 0
7, 30600, Note_on_c, 5, 55, 40
7, 30600, Note_on_c, 5, 67, 43
7, 30720, Note_on_c, 5, 67, 0
7, 30720, Note_on_c, 5, 55, 0
7, 30720, Note_on_c, 5, 67, 52
7, 30720, Note_on_c, 5, 55, 47
7, 31080, Note_on_c, 5, 55, 0
7, 31080, Note_on_c, 5, 67, 0
7, 31140, Note_on_c, 5, 60, 43
7, 31140, Note_on_c, 5, 72, 53
7, 31200, Note_on_c, 5, 72, 0
7, 31200, Note_on_c, 5, 60, 0
7, 31200, Note_on_c, 5, 72, 63
7, 31200, Note_on_c, 5, 60, 80
7, 31560, Note_on_c, 5, 60, 0
7, 31560, Note_on_c, 5, 72, 0
7, 31620, Note_on_c, 5, 60, 64
7, 31620, Note_on_c, 5, 72, 43
7, 31680, Note_on_c, 5, 72, 0
7, 31680, Note_on_c, 5, 60, 0
7, 31680, Note_on_c, 5, 72, 61
7, 31680, Note_on_c, 5, 60, 86
7, 32040, Note_on_c, 5, 60, 0
7, 32040, Note_on_c, 5, 72, 0
7, 32100, Note_on_c, 5, 74, 72
7, 32100, Note_on_c, 5, 77, 62
7, 32160, Note_on_c, 5, 77, 0
7, 32160, Note_on_c, 5, 74, 0
7, 32160, Note_on_c, 5, 76, 84
7, 32160, Note_on_c, 5, 72, 49
7, 32280, Note_on_c, 5, 72, 0
7, 32280, Note_on_c, 5, 76, 0
7, 32280, Note_on_c, 5, 67, 65
7, 32280, Note_on_c, 5, 55, 53
7, 32400, Note_on_c, 5, 55, 0
7, 32400, Note_on_c, 5, 67, 0
7, 32400, Note_on_c, 5, 67, 62
7, 32400, Note_on_c, 5, 55, 57
7, 32520, Note_on_c, 5, 55, 0
7, 32520, Note_on_c, 5, 67, 0
7, 32520, Note_on_c, 5, 55, 49
7, 32520, Note_on_c, 5, 67, 59
7, 32640, Note_on_c, 5, 67, 0
7, 32640, Note_on_c, 5, 55, 0
7, 32640, Note_on_c, 5, 67, 64
7, 32640, Note_on_c, 5, 55, 57
7, 33000, Note_on_c, 5, 55, 0
7, 33000, Note_on_c, 5, 67, 0
7, 34320, Note_on_c, 5, 67, 77
7, 34320, Note_on_c, 5, 74, 73
7, 34560, Note_on_c, 5, 74, 0
7, 34560, Note_on_c, 5, 67, 0
7, 34560, Note_on_c, 5, 72, 53
7, 34560, Note_on_c, 5, 60, 78
7, 34620, Note_on_c, 5, 60, 0
7, 34620, Note_on_c, 5, 72, 0
7, 34680, Note_on_c, 5, 72, 67
7, 34680, Note_on_c, 5, 60, 95
7, 34740, Note_on_c, 5, 60, 0
7, 34740, Note_on_c, 5, 72, 0
7, 34800, Note_on_c, 5, 72, 65
7, 34800, Note_on_c, 5, 60, 86
7, 34860, Note_on_c, 5, 60, 0
7, 34860, Note_on_c, 5, 72, 0
7, 34920, Note_on_c, 5, 67, 84
7, 34920, Note_on_c, 5, 55, 93
7, 34980, Note_on_c, 5, 55, 0
7, 34980, Note_on_c, 5, 67, 0
7, 35040, Note_on_c, 5, 60, 99
7, 35040, Note_on_c, 5, 72, 99
7, 35160, Control_c, 5, 7, 99
7, 35165, Control_c, 5, 7, 97
7, 35170, Control_c, 5, 7, 94
7, 35175, Control_c, 5, 7, 92
7, 35180, Control_c, 5, 7, 89
7, 35185, Control_c, 5, 7, 86
7, 35190, Control_c, 5, 7, 84
7, 35195, Control_c, 5, 7, 81
7, 35200, Control_c, 5, 7, 79
7, 35205, Control_c, 5, 7, 76
7, 35210, Control_c, 5, 7, 73
7, 35215, Control_c, 5, 7, 71
7, 35220, Control_c, 5, 7, 68
7, 35225, Control_c, 5, 7, 65
7, 36120, Note_on_c, 5, 72, 0
7, 36120, Note_on_c, 5, 60, 0
7, 36120, Note_on_c, 5, 72, 101
7, 36120, Note_on_c, 5, 60, 68
7, 36240, Note_on_c, 5, 60, 0
7, 36240, Note_on_c, 5, 72, 0
7, 36240, Note_on_c, 5, 72, 104
7, 36240, Note_on_c, 5, 60, 72
7, 36360, Note_on_c, 5, 60, 0
7, 36360, Note_on_c, 5, 72, 0
7, 36360, Note_on_c, 5, 60, 80
7, 36360, Note_on_c, 5, 72, 90
7, 36480, Note_on_c, 5, 72, 0
7, 36480, Note_on_c, 5, 60, 0
7, 36480, Note_on_c, 5, 60, 94
7, 36480, Note_on_c, 5, 72, 105
7, 36480, Control_c, 5, 7, 99
7, 36600, Control_c, 5, 7, 98
7, 36605, Control_c, 5, 7, 96
7, 36610, Control_c, 5, 7, 93
7, 36615, Control_c, 5, 7, 90
7, 36620, Control_c, 5, 7, 87
7, 36625, Control_c, 5, 7, 84
7, 36630, Control_c, 5, 7, 81
7, 36635, Control_c, 5, 7, 78
7, 36640, Control_c, 5, 7, 75
7, 36645, Control_c, 5, 7, 72
7, 36650, Control_c, 5, 7, 69
7, 36655, Control_c, 5, 7, 66
7, 36960, Note_on_c, 5, 72, 0
7, 36960, Note_on_c, 5, 60, 0
7, 37075, Control_c, 5, 7, 99
7, 37920, Note_on_c, 5, 55, 101
7, 37920, Note_on_c, 5, 67, 98
7, 39000, Note_on_c, 5, 67, 0
7, 39000, Note_on_c, 5, 55, 0
7, 39000, Note_on_c, 5, 67, 80
7, 39000, Note_on_c, 5, 55, 82
7, 39120, Note_on_c, 5, 55, 0
7, 39120, Note_on_c, 5, 67, 0
7, 39120, Note_on_c, 5, 67, 73
7, 39120, Note_on_c, 5, 55, 78
7, 39240, Note_on_c, 5, 55, 0
7, 39240, Note_on_c, 5, 67, 0
7, 39240, Note_on_c, 5, 67, 85
7, 39240, Note_on_c, 5, 55, 89
7, 39360, Note_on_c, 5, 55, 0
7, 39360, Note_on_c, 5, 67, 0
7, 39360, Note_on_c, 5, 72, 76
7, 39360, Note_on_c, 5, 60, 110
7, 39480, Note_on_c, 5, 60, 0
7, 39480, Note_on_c, 5, 72, 0
7, 39480, Note_on_c, 5, 72, 85
7, 39480, Note_on_c, 5, 60, 110
7, 39600, Note_on_c, 5, 60, 0
7, 39600, Note_on_c, 5, 72, 0
7, 39720, Note_on_c, 5, 72, 85
7, 39720, Note_on_c, 5, 60, 112
7, 39840, Note_on_c, 5, 60, 0
7, 39840, Note_on_c, 5, 72, 0
7, 39960, Note_on_c, 5, 72, 80
7, 39960, Note_on_c, 5, 60, 105
7, 40080, Note_on_c, 5, 60, 0
7, 40080, Note_on_c, 5, 72, 0
7, 40200, Note_on_c, 5, 67, 105
7, 40200, Note_on_c, 5, 55, 110
7, 40320, Note_on_c, 5, 55, 0
7, 40320, Note_on_c, 5, 67, 0
7, 40320, Note_on_c, 5, 72, 90
7, 40320, Note_on_c, 5, 60, 110
7, 40440, Note_on_c, 5, 60, 0
7, 40440, Note_on_c, 5, 72, 0
7, 48600, Note_on_c, 5, 72, 43
7, 48600, Note_on_c, 5, 60, 46
7, 48720, Note_on_c, 5, 60, 0
7, 48720, Note_on_c, 5, 72, 0
7, 48720, Note_on_c, 5, 72, 65
7, 48720, Note_on_c, 5, 60, 73
7, 48840, Note_on_c, 5, 60, 0
7, 48840, Note_on_c, 5, 72, 0
7, 48840, Note_on_c, 5, 72, 89
7, 48840, Note_on_c, 5, 60, 89
7, 48960, Note_on_c, 5, 60, 0
7, 48960, Note_on_c, 5, 72, 0
7, 48960, Note_on_c, 5, 72, 89
7, 48960, Note_on_c, 5, 60, 99
7, 49200, Note_on_c, 5, 60, 0
7, 49200, Note_on_c, 5, 72, 0
7, 49200, Note_on_c, 5, 67, 84
7, 49200, Note_on_c, 5, 55, 89
7, 49440, Note_on_c, 5, 55, 0
7, 49440, Note_on_c, 5, 67, 0
7, 49440, Note_on_c, 5, 72, 112
7, 49440, Note_on_c, 5, 60, 99
7, 49560, Note_on_c, 5, 60, 0
7, 49560, Note_on_c, 5, 72, 0
7, 50400, Note_on_c, 5, 72, 95
7, 50400, Note_on_c, 5, 60, 84
7, 50520, Note_on_c, 5, 60, 0
7, 50520, Note_on_c, 5, 72, 0
7, 50580, Note_on_c, 5, 67, 89
7, 50580, Note_on_c, 5, 55, 94
7, 50640, Note_on_c, 5, 55, 0
7, 50640, Note_on_c, 5, 67, 0
7, 50640, Note_on_c, 5, 72, 99
7, 50640, Note_on_c, 5, 60, 93
7, 50760, Note_on_c, 5, 60, 0
7, 50760, Note_on_c, 5, 72, 0
7, 50820, Note_on_c, 5, 67, 84
7, 50820, Note_on_c, 5, 55, 94
7, 50880, Note_on_c, 5, 55, 0
7, 50880, Note_on_c, 5, 67, 0
7, 50880, Note_on_c, 5, 72, 84
7, 50880, Note_on_c, 5, 60, 93
7, 51000, Note_on_c, 5, 60, 0
7, 51000, Note_on_c, 5, 72, 0
7, 51300, Note_on_c, 5, 67, 89
7, 51300, Note_on_c, 5, 55, 99
7, 51330, Note_on_c, 5, 55, 0
7, 51330, Note_on_c, 5, 67, 0
7, 51360, Note_on_c, 5, 72, 85
7, 51360, Note_on_c, 5, 60, 93
7, 51420, Note_on_c, 5, 60, 0
7, 51420, Note_on_c, 5, 72, 0
7, 51780, Note_on_c, 5, 67, 81
7, 51780, Note_on_c, 5, 55, 90
7, 51810, Note_on_c, 5, 55, 0
7, 51810, Note_on_c, 5, 67, 0
7, 51840, Note_on_c, 5, 72, 84
7, 51840, Note_on_c, 5, 60, 84
7, 51900, Note_on_c, 5, 60, 0
7, 51900, Note_on_c, 5, 72, 0
7, 52320, Note_on_c, 5, 72, 105
7, 52320, Note_on_c, 5, 60, 99
7, 52440, Note_on_c, 5, 60, 0
7, 52440, Note_on_c, 5, 72, 0
7, 52560, Note_on_c, 5, 72, 95
7, 52560, Note_on_c, 5, 60, 98
7, 52680, Note_on_c, 5, 60, 0
7, 52680, Note_on_c, 5, 72, 0
7, 52800, Note_on_c, 5, 72, 112
7, 52800, Note_on_c, 5, 60, 101
7, 53040, Note_on_c, 5, 60, 0
7, 53040, Note_on_c, 5, 72, 0
7, 115320, Note_on_c, 5, 74, 104
7, 115800, Note_on_c, 5, 74, 0
7, 115800, Note_on_c, 5, 74, 101
7, 116280, Note_on_c, 5, 74, 0
7, 116280, Note_on_c, 5, 74, 99
7, 116760, Note_on_c, 5, 74, 0
7, 116760, Note_on_c, 5, 74, 105
7, 116880, Note_on_c, 5, 74, 0
7, 116880, Note_on_c, 5, 74, 99
7, 117000, Note_on_c, 5, 74, 0
7, 117000, Note_on_c, 5, 74, 93
7, 117120, Note_on_c, 5, 74, 0
7, 117120, Note_on_c, 5, 74, 93
7, 117240, Note_on_c, 5, 74, 0
7, 117720, Note_on_c, 5, 74, 95
7, 117840, Note_on_c, 5, 74, 0
7, 117840, Note_on_c, 5, 67, 90
7, 117960, Note_on_c, 5, 67, 0
7, 117960, Note_on_c, 5, 67, 89
7, 118080, Note_on_c, 5, 67, 0
7, 118080, Note_on_c, 5, 74, 98
7, 118200, Note_on_c, 5, 74, 0
7, 118440, Note_on_c, 5, 67, 93
7, 118560, Note_on_c, 5, 67, 0
7, 118560, Note_on_c, 5, 74, 93
7, 118680, Note_on_c, 5, 74, 0
7, 118920, Note_on_c, 5, 67, 94
7, 119040, Note_on_c, 5, 67, 0
7, 119040, Note_on_c, 5, 74, 104
7, 119160, Note_on_c, 5, 74, 0
7, 147840, Note_on_c, 5, 60, 94
7, 147840, Note_on_c, 5, 72, 81
7, 148080, Note_on_c, 5, 72, 0
7, 148080, Note_on_c, 5, 60, 0
7, 148080, Note_on_c, 5, 60, 105
7, 148080, Note_on_c, 5, 72, 78
7, 148320, Note_on_c, 5, 72, 0
7, 148320, Note_on_c, 5, 60, 0
7, 148320, Note_on_c, 5, 60, 98
7, 148320, Note_on_c, 5, 72, 77
7, 148500, Note_on_c, 5, 72, 0
7, 148500, Note_on_c, 5, 60, 0
7, 148500, Note_on_c, 5, 60, 85
7, 148500, Note_on_c, 5, 72, 60
7, 148530, Note_on_c, 5, 72, 0
7, 148530, Note_on_c, 5, 60, 0
7, 148560, Note_on_c, 5, 60, 94
7, 148560, Note_on_c, 5, 72, 70
7, 148620, Note_on_c, 5, 72, 0
7, 148620, Note_on_c, 5, 60, 0
7, 148680, Note_on_c, 5, 60, 95
7, 148680, Note_on_c, 5, 72, 70
7, 148740, Note_on_c, 5, 72, 0
7, 148740, Note_on_c, 5, 60, 0
7, 148800, Note_on_c, 5, 60, 95
7, 148800, Note_on_c, 5, 72, 73
7, 148860, Note_on_c, 5, 72, 0
7, 148860, Note_on_c, 5, 60, 0
7, 148980, Note_on_c, 5, 55, 98
7, 148980, Note_on_c, 5, 67, 94
7, 149010, Note_on_c, 5, 67, 0
7, 149010, Note_on_c, 5, 55, 0
7, 149040, Note_on_c, 5, 60, 98
7, 149040, Note_on_c, 5, 72, 72
7, 149100, Note_on_c, 5, 72, 0
7, 149100, Note_on_c, 5, 60, 0
7, 149220, Note_on_c, 5, 55, 99
7, 149220, Note_on_c, 5, 67, 99
7, 149250, Note_on_c, 5, 67, 0
7, 149250, Note_on_c, 5, 55, 0
7, 149280, Note_on_c, 5, 60, 99
7, 149280, Note_on_c, 5, 72, 80
7, 149340, Note_on_c, 5, 72, 0
7, 149340, Note_on_c, 5, 60, 0
7, 166560, Note_on_c, 5, 55, 53
7, 166560, Note_on_c, 5, 67, 65
7, 167400, Note_on_c, 5, 67, 0
7, 167400, Note_on_c, 5, 55, 0
7, 167400, Note_on_c, 5, 55, 46
7, 167400, Note_on_c, 5, 67, 49
7, 167520, Note_on_c, 5, 67, 0
7, 167520, Note_on_c, 5, 55, 0
7, 167520, Note_on_c, 5, 67, 65
7, 167520, Note_on_c, 5, 55, 54
7, 167640, Note_on_c, 5, 55, 0
7, 167640, Note_on_c, 5, 67, 0
7, 167640, Note_on_c, 5, 67, 52
7, 167640, Note_on_c, 5, 55, 45
7, 167760, Note_on_c, 5, 55, 0
7, 167760, Note_on_c, 5, 67, 0
7, 167760, Note_on_c, 5, 55, 54
7, 167760, Note_on_c, 5, 67, 57
7, 167880, Note_on_c, 5, 67, 0
7, 167880, Note_on_c, 5, 55, 0
7, 167880, Note_on_c, 5, 67, 57
7, 167880, Note_on_c, 5, 55, 53
7, 168000, Note_on_c, 5, 55, 0
7, 168000, Note_on_c, 5, 67, 0
7, 168000, Note_on_c, 5, 55, 43
7, 168000, Note_on_c, 5, 67, 44
7, 168360, Note_on_c, 5, 67, 0
7, 168360, Note_on_c, 5, 55, 0
7, 168420, Note_on_c, 5, 60, 67
7, 168420, Note_on_c, 5, 72, 61
7, 168480, Note_on_c, 5, 72, 0
7, 168480, Note_on_c, 5, 60, 0
7, 168480, Note_on_c, 5, 60, 89
7, 168480, Note_on_c, 5, 72, 99
7, 168840, Note_on_c, 5, 72, 0
7, 168840, Note_on_c, 5, 60, 0
7, 168900, Note_on_c, 5, 60, 81
7, 168900, Note_on_c, 5, 72, 58
7, 168960, Note_on_c, 5, 72, 0
7, 168960, Note_on_c, 5, 60, 0
7, 168960, Note_on_c, 5, 60, 95
7, 168960, Note_on_c, 5, 72, 99
7, 169320, Note_on_c, 5, 72, 0
7, 169320, Note_on_c, 5, 60, 0
7, 169380, Note_on_c, 5, 60, 74
7, 169380, Note_on_c, 5, 72, 53
7, 169440, Note_on_c, 5, 72, 0
7, 169440, Note_on_c, 5, 60, 0
7, 169440, Note_on_c, 5, 60, 82
7, 169440, Note_on_c, 5, 72, 61
7, 169560, Note_on_c, 5, 72, 0
7, 169560, Note_on_c, 5, 60, 0
7, 169560, Note_on_c, 5, 60, 95
7, 169560, Note_on_c, 5, 72, 70
7, 169680, Note_on_c, 5, 72, 0
7, 169680, Note_on_c, 5, 60, 0
7, 169680, Note_on_c, 5, 55, 80
7, 169680, Note_on_c, 5, 67, 81
7, 169800, Note_on_c, 5, 67, 0
7, 169800, Note_on_c, 5, 55, 0
7, 169800, Note_on_c, 5, 67, 89
7, 169800, Note_on_c, 5, 55, 90
7, 169920, Note_on_c, 5, 55, 0
7, 169920, Note_on_c, 5, 67, 0
7, 169920, Note_on_c, 5, 67, 77
7, 169920, Note_on_c, 5, 55, 76
7, 170280, Note_on_c, 5, 55, 0
7, 170280, Note_on_c, 5, 67, 0
7, 189120, Note_on_c, 5, 72, 58
7, 189120, Note_on_c, 5, 64, 62
7, 189360, Note_on_c, 5, 64, 0
7, 189360, Note_on_c, 5, 72, 0
7, 189360, Note_on_c, 5, 76, 69
7, 189360, Note_on_c, 5, 72, 59
7, 189600, Note_on_c, 5, 72, 0
7, 189600, Note_on_c, 5, 76, 0
7, 189600, Note_on_c, 5, 79, 80
7, 189600, Note_on_c, 5, 76, 93
7, 189780, Note_on_c, 5, 76, 0
7, 189780, Note_on_c, 5, 79, 0
7, 189780, Note_on_c, 5, 77, 64
7, 189780, Note_on_c, 5, 74, 74
7, 189810, Note_on_c, 5, 74, 0
7, 189810, Note_on_c, 5, 77, 0
7, 189840, Note_on_c, 5, 72, 61
7, 189840, Note_on_c, 5, 76, 74
7, 189900, Note_on_c, 5, 76, 0
7, 189900, Note_on_c, 5, 72, 0
7, 189960, Note_on_c, 5, 74, 67
7, 189960, Note_on_c, 5, 67, 73
7, 190020, Note_on_c, 5, 67, 0
7, 190020, Note_on_c, 5, 74, 0
7, 190080, Note_on_c, 5, 72, 64
7, 190080, Note_on_c, 5, 64, 56
7, 190140, Note_on_c, 5, 64, 0
7, 190140, Note_on_c, 5, 72, 0
7, 190260, Note_on_c, 5, 74, 76
7, 190260, Note_on_c, 5, 67, 68
7, 190290, Note_on_c, 5, 67, 0
7, 190290, Note_on_c, 5, 74, 0
7, 190320, Note_on_c, 5, 72, 62
7, 190320, Note_on_c, 5, 64, 56
7, 190380, Note_on_c, 5, 64, 0
7, 190380, Note_on_c, 5, 72, 0
7, 190500, Note_on_c, 5, 74, 72
7, 190500, Note_on_c, 5, 67, 67
7, 190530, Note_on_c, 5, 67, 0
7, 190530, Note_on_c, 5, 74, 0
7, 190560, Note_on_c, 5, 72, 65
7, 190560, Note_on_c, 5, 64, 65
7, 190620, Note_on_c, 5, 64, 0
7, 190620, Note_on_c, 5, 72, 0
7, 192960, Note_on_c, 5, 60, 98
7, 192960, Note_on_c, 5, 72, 99
7, 193080, Control_c, 5, 7, 99
7, 193085, Control_c, 5, 7, 96
7, 193090, Control_c, 5, 7, 93
7, 193095, Control_c, 5, 7, 90
7, 193100, Control_c, 5, 7, 87
7, 193105, Control_c, 5, 7, 84
7, 193110, Control_c, 5, 7, 81
7, 193115, Control_c, 5, 7, 78
7, 193120, Control_c, 5, 7, 75
7, 193125, Control_c, 5, 7, 72
7, 193130, Control_c, 5, 7, 69
7, 193135, Control_c, 5, 7, 66
7, 194040, Note_on_c, 5, 72, 0
7, 194040, Note_on_c, 5, 60, 0
7, 194040, Note_on_c, 5, 72, 82
7, 194040, Note_on_c, 5, 60, 105
7, 194160, Note_on_c, 5, 60, 0
7, 194160, Note_on_c, 5, 72, 0
7, 194160, Note_on_c, 5, 72, 90
7, 194160, Note_on_c, 5, 60, 84
7, 194280, Note_on_c, 5, 60, 0
7, 194280, Note_on_c, 5, 72, 0
7, 194280, Note_on_c, 5, 60, 89
7, 194280, Note_on_c, 5, 72, 104
7, 194400, Note_on_c, 5, 72, 0
7, 194400, Note_on_c, 5, 60, 0
7, 194400, Note_on_c, 5, 72, 81
7, 194400, Note_on_c, 5, 60, 110
7, 194520, Note_on_c, 5, 60, 0
7, 194520, Note_on_c, 5, 72, 0
7, 195825, Control_c, 5, 7, 99
7, 195840, Note_on_c, 5, 67, 80
7, 195840, Note_on_c, 5, 55, 84
7, 196920, Note_on_c, 5, 55, 0
7, 196920, Note_on_c, 5, 67, 0
7, 196920, Note_on_c, 5, 55, 85
7, 196920, Note_on_c, 5, 67, 77
7, 197040, Note_on_c, 5, 67, 0
7, 197040, Note_on_c, 5, 55, 0
7, 197040, Note_on_c, 5, 55, 85
7, 197040, Note_on_c, 5, 67, 80
7, 197160, Note_on_c, 5, 67, 0
7, 197160, Note_on_c, 5, 55, 0
7, 197160, Note_on_c, 5, 55, 94
7, 197160, Note_on_c, 5, 67, 93
7, 197280, Note_on_c, 5, 67, 0
7, 197280, Note_on_c, 5, 55, 0
7, 197280, Note_on_c, 5, 60, 89
7, 197280, Note_on_c, 5, 72, 89
7, 197400, Note_on_c, 5, 72, 0
7, 197400, Note_on_c, 5, 60, 0
7, 197400, Note_on_c, 5, 72, 99
7, 197400, Note_on_c, 5, 60, 107
7, 197640, Note_on_c, 5, 60, 0
7, 197640, Note_on_c, 5, 72, 0
7, 197640, Note_on_c, 5, 72, 101
7, 197640, Note_on_c, 5, 60, 107
7, 197880, Note_on_c, 5, 60, 0
7, 197880, Note_on_c, 5, 72, 0
7, 197880, Note_on_c, 5, 60, 112
7, 197880, Note_on_c, 5, 72, 99
7, 198120, Note_on_c, 5, 72, 0
7, 198120, Note_on_c, 5, 60, 0
7, 198120, Note_on_c, 5, 72, 105
7, 198120, Note_on_c, 5, 60, 112
7, 198360, Note_on_c, 5, 60, 0
7, 198360, Note_on_c, 5, 72, 0
7, 198360, Note_on_c, 5, 60, 110
7, 198360, Note_on_c, 5, 72, 105
7, 198600, Note_on_c, 5, 72, 0
7, 198600, Note_on_c, 5, 60, 0
7, 198600, Note_on_c, 5, 72, 99
7, 198600, Note_on_c, 5, 60, 107
7, 198840, Note_on_c, 5, 60, 0
7, 198840, Note_on_c, 5, 72, 0
7, 198840, Note_on_c, 5, 60, 105
7, 198840, Note_on_c, 5, 72, 112
7, 199080, Note_on_c, 5, 72, 0
7, 199080, Note_on_c, 5, 60, 0
7, 199080, Note_on_c, 5, 72, 110
7, 199080, Note_on_c, 5, 60, 119
7, 199440, Note_on_c, 5, 60, 0
7, 199440, Note_on_c, 5, 72, 0
7, 256320, Note_on_c, 5, 60, 72
7, 256320, Note_on_c, 5, 72, 105
7, 256800, Note_on_c, 5, 72, 0
7, 256800, Note_on_c, 5, 60, 0
7, 256800, Note_on_c, 5, 74, 99
7, 256800, Note_on_c, 5, 77, 86
7, 257040, Note_on_c, 5, 77, 0
7, 257040, Note_on_c, 5, 74, 0
7, 257040, Note_on_c, 5, 67, 94
7, 257040, Note_on_c, 5, 74, 104
7, 257280, Note_on_c, 5, 74, 0
7, 257280, Note_on_c, 5, 67, 0
7, 257280, Note_on_c, 5, 60, 95
7, 257280, Note_on_c, 5, 72, 94
7, 257400, Note_on_c, 5, 72, 0
7, 257400, Note_on_c, 5, 60, 0
7, 257520, Note_on_c, 5, 60, 99
7, 257520, Note_on_c, 5, 72, 90
7, 257580, Note_on_c, 5, 72, 0
7, 257580, Note_on_c, 5, 60, 0
7, 258000, Note_on_c, 5, 60, 94
7, 258000, Note_on_c, 5, 72, 86
7, 258060, Note_on_c, 5, 72, 0
7, 258060, Note_on_c, 5, 60, 0
7, 258480, Note_on_c, 5, 60, 93
7, 258480, Note_on_c, 5, 72, 105
7, 258600, Note_on_c, 5, 72, 0
7, 258600, Note_on_c, 5, 60, 0
7, 258720, Note_on_c, 5, 60, 89
7, 258720, Note_on_c, 5, 72, 104
7, 258840, Note_on_c, 5, 72, 0
7, 258840, Note_on_c, 5, 60, 0
7, 258960, Note_on_c, 5, 60, 81
7, 258960, Note_on_c, 5, 72, 110
7, 259080, Note_on_c, 5, 72, 0
7, 259080, Note_on_c, 5, 60, 0
7, 259200, Note_on_c, 5, 60, 99
7, 259200, Note_on_c, 5, 72, 95
7, 259320, Note_on_c, 5, 72, 0
7, 259320, Note_on_c, 5, 60, 0
7, 259650, Note_on_c, 5, 60, 105
7, 259650, Note_on_c, 5, 72, 110
7, 259680, Note_on_c, 5, 72, 0
7, 259680, Note_on_c, 5, 60, 0
7, 259680, Note_on_c, 5, 72, 99
7, 259680, Note_on_c, 5, 60, 105
7, 259800, Note_on_c, 5, 60, 0
7, 259800, Note_on_c, 5, 72, 0
7, 260130, Note_on_c, 5, 72, 112
7, 260130, Note_on_c, 5, 60, 105
7, 260160, Note_on_c, 5, 60, 0
7, 260160, Note_on_c, 5, 72, 0
7, 260160, Note_on_c, 5, 60, 119
7, 260160, Note_on_c, 5, 72, 104
7, 260640, Note_on_c, 5, 72, 0
7, 260640, Note_on_c, 5, 60, 0
7, 260640, End_track
8, 0, Start_track
8, 0, MIDI_port, 0
8, 0, Title_t, "Timpani"
8, 0, Program_c, 6, 47
8, 0, Control_c, 6, 7, 100
8, 0, Control_c, 6, 10, 42
8, 0, Control_c, 6, 93, 0
8, 0, Control_c, 6, 91, 66
8, 4440, Note_on_c, 6, 48, 94
8, 4530, Note_on_c, 6, 48, 0
8, 4530, Note_on_c, 6, 48, 80
8, 4560, Note_on_c, 6, 48, 0
8, 4560, Note_on_c, 6, 48, 73
8, 4680, Note_on_c, 6, 48, 0
8, 4680, Note_on_c, 6, 48, 69
8, 4800, Note_on_c, 6, 48, 0
8, 4800, Note_on_c, 6, 48, 80
8, 4920, Note_on_c, 6, 48, 0
8, 6360, Note_on_c, 6, 43, 99
8, 6450, Note_on_c, 6, 43, 0
8, 6450, Note_on_c, 6, 43, 93
8, 6480, Note_on_c, 6, 43, 0
8, 6480, Note_on_c, 6, 43, 90
8, 6600, Note_on_c, 6, 43, 0
8, 6600, Note_on_c, 6, 43, 90
8, 6720, Note_on_c, 6, 43, 0
8, 6720, Note_on_c, 6, 48, 81
8, 6840, Note_on_c, 6, 48, 0
8, 6840, Note_on_c, 6, 48, 98
8, 6900, Note_on_c, 6, 48, 0
8, 6960, Note_on_c, 6, 48, 95
8, 7020, Note_on_c, 6, 48, 0
8, 7080, Note_on_c, 6, 43, 93
8, 7140, Note_on_c, 6, 43, 0
8, 7200, Note_on_c, 6, 48, 99
8, 7320, Note_on_c, 6, 48, 0
8, 8640, Note_on_c, 6, 43, 65
8, 8760, Note_on_c, 6, 43, 0
8, 8880, Note_on_c, 6, 43, 68
8, 9000, Note_on_c, 6, 43, 0
8, 9120, Note_on_c, 6, 48, 65
8, 9240, Note_on_c, 6, 48, 0
8, 28920, Note_on_c, 6, 43, 65
8, 29040, Note_on_c, 6, 43, 0
8, 29040, Note_on_c, 6, 43, 68
8, 29160, Note_on_c, 6, 43, 0
8, 29160, Note_on_c, 6, 43, 73
8, 29280, Note_on_c, 6, 43, 0
8, 29280, Note_on_c, 6, 48, 67
8, 29400, Note_on_c, 6, 48, 0
8, 29520, Note_on_c, 6, 43, 72
8, 29640, Note_on_c, 6, 43, 0
8, 29760, Note_on_c, 6, 48, 70
8, 29880, Note_on_c, 6, 48, 0
8, 30120, Note_on_c, 6, 48, 70
8, 30240, Note_on_c, 6, 48, 0
8, 30240, Note_on_c, 6, 43, 74
8, 30360, Note_on_c, 6, 43, 0
8, 30360, Note_on_c, 6, 43, 64
8, 30480, Note_on_c, 6, 43, 0
8, 30480, Note_on_c, 6, 43, 73
8, 30600, Note_on_c, 6, 43, 0
8, 30600, Note_on_c, 6, 43, 71
8, 30720, Note_on_c, 6, 43, 0
8, 30720, Note_on_c, 6, 48, 61
8, 30840, Note_on_c, 6, 48, 0
8, 31140, Note_on_c, 6, 48, 68
8, 31200, Note_on_c, 6, 48, 0
8, 31200, Note_on_c, 6, 48, 119
8, 31230, Note_on_c, 6, 48, 0
8, 31230, Note_on_c, 6, 48, 101
8, 31260, Note_on_c, 6, 48, 0
8, 31260, Note_on_c, 6, 48, 89
8, 31290, Note_on_c, 6, 48, 0
8, 31290, Note_on_c, 6, 48, 84
8, 31320, Note_on_c, 6, 48, 0
8, 31320, Note_on_c, 6, 48, 86
8, 31350, Note_on_c, 6, 48, 0
8, 31350, Note_on_c, 6, 48, 84
8, 31380, Note_on_c, 6, 48, 0
8, 31380, Note_on_c, 6, 48, 84
8, 31410, Note_on_c, 6, 48, 0
8, 31410, Note_on_c, 6, 48, 81
8, 31440, Note_on_c, 6, 48, 0
8, 31440, Note_on_c, 6, 48, 93
8, 31560, Note_on_c, 6, 48, 0
8, 31620, Note_on_c, 6, 48, 84
8, 31680, Note_on_c, 6, 48, 0
8, 31680, Note_on_c, 6, 48, 125
8, 31710, Note_on_c, 6, 48, 0
8, 31710, Note_on_c, 6, 48, 95
8, 31740, Note_on_c, 6, 48, 0
8, 31740, Note_on_c, 6, 48, 76
8, 31770, Note_on_c, 6, 48, 0
8, 31770, Note_on_c, 6, 48, 68
8, 31800, Note_on_c, 6, 48, 0
8, 31800, Note_on_c, 6, 48, 82
8, 31830, Note_on_c, 6, 48, 0
8, 31830, Note_on_c, 6, 48, 80
8, 31860, Note_on_c, 6, 48, 0
8, 31860, Note_on_c, 6, 48, 72
8, 31890, Note_on_c, 6, 48, 0
8, 31890, Note_on_c, 6, 48, 84
8, 31920, Note_on_c, 6, 48, 0
8, 31920, Note_on_c, 6, 48, 89
8, 32040, Note_on_c, 6, 48, 0
8, 32100, Note_on_c, 6, 48, 84
8, 32160, Note_on_c, 6, 48, 0
8, 32160, Note_on_c, 6, 43, 81
8, 32280, Note_on_c, 6, 43, 0
8, 32280, Note_on_c, 6, 43, 76
8, 32400, Note_on_c, 6, 43, 0
8, 32400, Note_on_c, 6, 43, 84
8, 32520, Note_on_c, 6, 43, 0
8, 32520, Note_on_c, 6, 43, 81
8, 32640, Note_on_c, 6, 43, 0
8, 32640, Note_on_c, 6, 48, 71
8, 32760, Note_on_c, 6, 48, 0
8, 34320, Note_on_c, 6, 43, 77
8, 34380, Note_on_c, 6, 43, 0
8, 34380, Note_on_c, 6, 43, 84
8, 34440, Note_on_c, 6, 43, 0
8, 34440, Note_on_c, 6, 43, 93
8, 34500, Note_on_c, 6, 43, 0
8, 34500, Note_on_c, 6, 43, 89
8, 34560, Note_on_c, 6, 43, 0
8, 34560, Note_on_c, 6, 48, 94
8, 34620, Note_on_c, 6, 48, 0
8, 34680, Note_on_c, 6, 48, 94
8, 34740, Note_on_c, 6, 48, 0
8, 34800, Note_on_c, 6, 48, 95
8, 34860, Note_on_c, 6, 48, 0
8, 34920, Note_on_c, 6, 43, 95
8, 34980, Note_on_c, 6, 43, 0
8, 35040, Note_on_c, 6, 48, 93
8, 35160, Note_on_c, 6, 48, 0
8, 36120, Note_on_c, 6, 48, 76
8, 36240, Note_on_c, 6, 48, 0
8, 36240, Note_on_c, 6, 48, 73
8, 36360, Note_on_c, 6, 48, 0
8, 36360, Note_on_c, 6, 48, 65
8, 36480, Note_on_c, 6, 48, 0
8, 36480, Note_on_c, 6, 48, 95
8, 36600, Note_on_c, 6, 48, 0
8, 37920, Note_on_c, 6, 43, 99
8, 38040, Note_on_c, 6, 43, 0
8, 39000, Note_on_c, 6, 43, 95
8, 39120, Note_on_c, 6, 43, 0
8, 39120, Note_on_c, 6, 43, 94
8, 39240, Note_on_c, 6, 43, 0
8, 39240, Note_on_c, 6, 43, 98
8, 39360, Note_on_c, 6, 43, 0
8, 39360, Note_on_c, 6, 48, 119
8, 39480, Note_on_c, 6, 48, 0
8, 39480, Note_on_c, 6, 48, 119
8, 39600, Note_on_c, 6, 48, 0
8, 39720, Note_on_c, 6, 48, 119
8, 39840, Note_on_c, 6, 48, 0
8, 39960, Note_on_c, 6, 48, 119
8, 40080, Note_on_c, 6, 48, 0
8, 40200, Note_on_c, 6, 43, 119
8, 40320, Note_on_c, 6, 43, 0
8, 40320, Note_on_c, 6, 48, 119
8, 40440, Note_on_c, 6, 48, 0
8, 48600, Note_on_c, 6, 48, 67
8, 48720, Note_on_c, 6, 48, 0
8, 48720, Note_on_c, 6, 48, 84
8, 48840, Note_on_c, 6, 48, 0
8, 48840, Note_on_c, 6, 48, 94
8, 48960, Note_on_c, 6, 48, 0
8, 48960, Note_on_c, 6, 43, 94
8, 48990, Note_on_c, 6, 43, 0
8, 48990, Note_on_c, 6, 43, 89
8, 49020, Note_on_c, 6, 43, 0
8, 49020, Note_on_c, 6, 43, 93
8, 49050, Note_on_c, 6, 43, 0
8, 49050, Note_on_c, 6, 43, 89
8, 49080, Note_on_c, 6, 43, 0
8, 49080, Note_on_c, 6, 43, 89
8, 49110, Note_on_c, 6, 43, 0
8, 49110, Note_on_c, 6, 43, 93
8, 49140, Note_on_c, 6, 43, 0
8, 49140, Note_on_c, 6, 43, 89
8, 49170, Note_on_c, 6, 43, 0
8, 49170, Note_on_c, 6, 43, 90
8, 49200, Note_on_c, 6, 43, 0
8, 49200, Note_on_c, 6, 43, 89
8, 49230, Note_on_c, 6, 43, 0
8, 49230, Note_on_c, 6, 43, 86
8, 49260, Note_on_c, 6, 43, 0
8, 49260, Note_on_c, 6, 43, 93
8, 49290, Note_on_c, 6, 43, 0
8, 49290, Note_on_c, 6, 43, 94
8, 49320, Note_on_c, 6, 43, 0
8, 49320, Note_on_c, 6, 43, 89
8, 49350, Note_on_c, 6, 43, 0
8, 49350, Note_on_c, 6, 43, 93
8, 49380, Note_on_c, 6, 43, 0
8, 49380, Note_on_c, 6, 43, 89
8, 49410, Note_on_c, 6, 43, 0
8, 49410, Note_on_c, 6, 43, 94
8, 49440, Note_on_c, 6, 43, 0
8, 49440, Note_on_c, 6, 48, 105
8, 49560, Note_on_c, 6, 48, 0
8, 50400, Note_on_c, 6, 48, 104
8, 50520, Note_on_c, 6, 48, 0
8, 50580, Note_on_c, 6, 43, 99
8, 50640, Note_on_c, 6, 43, 0
8, 50640, Note_on_c, 6, 48, 104
8, 50760, Note_on_c, 6, 48, 0
8, 50820, Note_on_c, 6, 43, 101
8, 50880, Note_on_c, 6, 43, 0
8, 50880, Note_on_c, 6, 48, 99
8, 51000, Note_on_c, 6, 48, 0
8, 51300, Note_on_c, 6, 43, 98
8, 51360, Note_on_c, 6, 43, 0
8, 51360, Note_on_c, 6, 48, 99
8, 51480, Note_on_c, 6, 48, 0
8, 51780, Note_on_c, 6, 43, 89
8, 51840, Note_on_c, 6, 43, 0
8, 51840, Note_on_c, 6, 48, 95
8, 51960, Note_on_c, 6, 48, 0
8, 52320, Note_on_c, 6, 48, 105
8, 52440, Note_on_c, 6, 48, 0
8, 52560, Note_on_c, 6, 48, 104
8, 52680, Note_on_c, 6, 48, 0
8, 52800, Note_on_c, 6, 48, 104
8, 53040, Note_on_c, 6, 48, 0
8, 139680, Note_on_c, 6, 48, 72
8, 139800, Note_on_c, 6, 48, 0
8, 139860, Note_on_c, 6, 43, 51
8, 139920, Note_on_c, 6, 43, 0
8, 139920, Note_on_c, 6, 48, 69
8, 140040, Note_on_c, 6, 48, 0
8, 140100, Note_on_c, 6, 48, 71
8, 140160, Note_on_c, 6, 48, 0
8, 140160, Note_on_c, 6, 43, 44
8, 140280, Note_on_c, 6, 43, 0
8, 140640, Note_on_c, 6, 48, 68
8, 140760, Note_on_c, 6, 48, 0
8, 140820, Note_on_c, 6, 43, 44
8, 140880, Note_on_c, 6, 43, 0
8, 140880, Note_on_c, 6, 48, 72
8, 141000, Note_on_c, 6, 48, 0
8, 141060, Note_on_c, 6, 48, 66
8, 141120, Note_on_c, 6, 48, 0
8, 141120, Note_on_c, 6, 43, 50
8, 141240, Note_on_c, 6, 43, 0
8, 147840, Note_on_c, 6, 48, 125
8, 147960, Note_on_c, 6, 48, 0
8, 148080, Note_on_c, 6, 48, 125
8, 148200, Note_on_c, 6, 48, 0
8, 148320, Note_on_c, 6, 48, 125
8, 148335, Note_on_c, 6, 48, 0
8, 148335, Note_on_c, 6, 48, 125
8, 148350, Note_on_c, 6, 48, 0
8, 148350, Note_on_c, 6, 48, 119
8, 148365, Note_on_c, 6, 48, 0
8, 148365, Note_on_c, 6, 48, 107
8, 148380, Note_on_c, 6, 48, 0
8, 148380, Note_on_c, 6, 48, 105
8, 148395, Note_on_c, 6, 48, 0
8, 148395, Note_on_c, 6, 48, 105
8, 148410, Note_on_c, 6, 48, 0
8, 148410, Note_on_c, 6, 48, 105
8, 148425, Note_on_c, 6, 48, 0
8, 148425, Note_on_c, 6, 48, 105
8, 148440, Note_on_c, 6, 48, 0
8, 148440, Note_on_c, 6, 48, 107
8, 148455, Note_on_c, 6, 48, 0
8, 148455, Note_on_c, 6, 48, 107
8, 148470, Note_on_c, 6, 48, 0
8, 148470, Note_on_c, 6, 48, 105
8, 148485, Note_on_c, 6, 48, 0
8, 148485, Note_on_c, 6, 48, 105
8, 148500, Note_on_c, 6, 48, 0
8, 148500, Note_on_c, 6, 48, 105
8, 148515, Note_on_c, 6, 48, 0
8, 148515, Note_on_c, 6, 48, 112
8, 148530, Note_on_c, 6, 48, 0
8, 148530, Note_on_c, 6, 48, 110
8, 148545, Note_on_c, 6, 48, 0
8, 148545, Note_on_c, 6, 48, 112
8, 148560, Note_on_c, 6, 48, 0
8, 148560, Note_on_c, 6, 48, 115
8, 148620, Note_on_c, 6, 48, 0
8, 148680, Note_on_c, 6, 48, 112
8, 148740, Note_on_c, 6, 48, 0
8, 148800, Note_on_c, 6, 48, 115
8, 148860, Note_on_c, 6, 48, 0
8, 148980, Note_on_c, 6, 43, 112
8, 149010, Note_on_c, 6, 43, 0
8, 149040, Note_on_c, 6, 48, 125
8, 149100, Note_on_c, 6, 48, 0
8, 149220, Note_on_c, 6, 43, 112
8, 149250, Note_on_c, 6, 43, 0
8, 149280, Note_on_c, 6, 48, 125
8, 149340, Note_on_c, 6, 48, 0
8, 166560, Note_on_c, 6, 48, 80
8, 166680, Note_on_c, 6, 48, 0
8, 166800, Note_on_c, 6, 43, 73
8, 166920, Note_on_c, 6, 43, 0
8, 167040, Note_on_c, 6, 48, 78
8, 167160, Note_on_c, 6, 48, 0
8, 167640, Note_on_c, 6, 43, 73
8, 167760, Note_on_c, 6, 43, 0
8, 167760, Note_on_c, 6, 43, 72
8, 167880, Note_on_c, 6, 43, 0
8, 167880, Note_on_c, 6, 43, 80
8, 168000, Note_on_c, 6, 43, 0
8, 168000, Note_on_c, 6, 48, 84
8, 168120, Note_on_c, 6, 48, 0
8, 168120, Note_on_c, 6, 48, 73
8, 168240, Note_on_c, 6, 48, 0
8, 168240, Note_on_c, 6, 48, 76
8, 168360, Note_on_c, 6, 48, 0
8, 168360, Note_on_c, 6, 48, 81
8, 168480, Note_on_c, 6, 48, 0
8, 168480, Note_on_c, 6, 48, 127
8, 168495, Note_on_c, 6, 48, 0
8, 168495, Note_on_c, 6, 48, 105
8, 168510, Note_on_c, 6, 48, 0
8, 168510, Note_on_c, 6, 48, 105
8, 168525, Note_on_c, 6, 48, 0
8, 168525, Note_on_c, 6, 48, 94
8, 168540, Note_on_c, 6, 48, 0
8, 168540, Note_on_c, 6, 48, 84
8, 168555, Note_on_c, 6, 48, 0
8, 168555, Note_on_c, 6, 48, 78
8, 168570, Note_on_c, 6, 48, 0
8, 168570, Note_on_c, 6, 48, 81
8, 168585, Note_on_c, 6, 48, 0
8, 168585, Note_on_c, 6, 48, 89
8, 168600, Note_on_c, 6, 48, 0
8, 168600, Note_on_c, 6, 48, 80
8, 168615, Note_on_c, 6, 48, 0
8, 168615, Note_on_c, 6, 48, 84
8, 168630, Note_on_c, 6, 48, 0
8, 168630, Note_on_c, 6, 48, 76
8, 168645, Note_on_c, 6, 48, 0
8, 168645, Note_on_c, 6, 48, 84
8, 168660, Note_on_c, 6, 48, 0
8, 168660, Note_on_c, 6, 48, 80
8, 168675, Note_on_c, 6, 48, 0
8, 168675, Note_on_c, 6, 48, 78
8, 168690, Note_on_c, 6, 48, 0
8, 168690, Note_on_c, 6, 48, 85
8, 168705, Note_on_c, 6, 48, 0
8, 168705, Note_on_c, 6, 48, 89
8, 168720, Note_on_c, 6, 48, 0
8, 168720, Note_on_c, 6, 48, 80
8, 168840, Note_on_c, 6, 48, 0
8, 168900, Note_on_c, 6, 48, 89
8, 168960, Note_on_c, 6, 48, 0
8, 168960, Note_on_c, 6, 48, 119
8, 168975, Note_on_c, 6, 48, 0
8, 168975, Note_on_c, 6, 48, 84
8, 168990, Note_on_c, 6, 48, 0
8, 168990, Note_on_c, 6, 48, 99
8, 169005, Note_on_c, 6, 48, 0
8, 169005, Note_on_c, 6, 48, 89
8, 169020, Note_on_c, 6, 48, 0
8, 169020, Note_on_c, 6, 48, 73
8, 169035, Note_on_c, 6, 48, 0
8, 169035, Note_on_c, 6, 48, 78
8, 169050, Note_on_c, 6, 48, 0
8, 169050, Note_on_c, 6, 48, 80
8, 169065, Note_on_c, 6, 48, 0
8, 169065, Note_on_c, 6, 48, 84
8, 169080, Note_on_c, 6, 48, 0
8, 169080, Note_on_c, 6, 48, 78
8, 169095, Note_on_c, 6, 48, 0
8, 169095, Note_on_c, 6, 48, 76
8, 169110, Note_on_c, 6, 48, 0
8, 169110, Note_on_c, 6, 48, 80
8, 169125, Note_on_c, 6, 48, 0
8, 169125, Note_on_c, 6, 48, 84
8, 169140, Note_on_c, 6, 48, 0
8, 169140, Note_on_c, 6, 48, 80
8, 169155, Note_on_c, 6, 48, 0
8, 169155, Note_on_c, 6, 48, 80
8, 169170, Note_on_c, 6, 48, 0
8, 169170, Note_on_c, 6, 48, 74
8, 169185, Note_on_c, 6, 48, 0
8, 169185, Note_on_c, 6, 48, 72
8, 169200, Note_on_c, 6, 48, 0
8, 169200, Note_on_c, 6, 48, 81
8, 169320, Note_on_c, 6, 48, 0
8, 169380, Note_on_c, 6, 48, 72
8, 169440, Note_on_c, 6, 48, 0
8, 169440, Note_on_c, 6, 43, 93
8, 169560, Note_on_c, 6, 43, 0
8, 169560, Note_on_c, 6, 43, 93
8, 169680, Note_on_c, 6, 43, 0
8, 169680, Note_on_c, 6, 43, 93
8, 169800, Note_on_c, 6, 43, 0
8, 169800, Note_on_c, 6, 43, 90
8, 169920, Note_on_c, 6, 43, 0
8, 169920, Note_on_c, 6, 48, 93
8, 170040, Note_on_c, 6, 48, 0
8, 170040, Note_on_c, 6, 43, 94
8, 170160, Note_on_c, 6, 43, 0
8, 170160, Note_on_c, 6, 48, 90
8, 170280, Note_on_c, 6, 48, 0
8, 182820, Note_on_c, 6, 43, 74
8, 182850, Note_on_c, 6, 43, 0
8, 182880, Note_on_c, 6, 48, 84
8, 182940, Note_on_c, 6, 48, 0
8, 183300, Note_on_c, 6, 43, 89
8, 183330, Note_on_c, 6, 43, 0
8, 183360, Note_on_c, 6, 48, 84
8, 183420, Note_on_c, 6, 48, 0
8, 192960, Note_on_c, 6, 48, 95
8, 193080, Note_on_c, 6, 48, 0
8, 194040, Note_on_c, 6, 48, 76
8, 194160, Note_on_c, 6, 48, 0
8, 194160, Note_on_c, 6, 48, 72
8, 194280, Note_on_c, 6, 48, 0
8, 194280, Note_on_c, 6, 48, 72
8, 194400, Note_on_c, 6, 48, 0
8, 194400, Note_on_c, 6, 48, 76
8, 194520, Note_on_c, 6, 48, 0
8, 195840, Note_on_c, 6, 43, 89
8, 195960, Note_on_c, 6, 43, 0
8, 196920, Note_on_c, 6, 43, 86
8, 197040, Note_on_c, 6, 43, 0
8, 197040, Note_on_c, 6, 43, 94
8, 197160, Note_on_c, 6, 43, 0
8, 197160, Note_on_c, 6, 43, 95
8, 197280, Note_on_c, 6, 43, 0
8, 197280, Note_on_c, 6, 48, 119
8, 197400, Note_on_c, 6, 48, 0
8, 197730, Note_on_c, 6, 48, 119
8, 197760, Note_on_c, 6, 48, 0
8, 197760, Note_on_c, 6, 48, 119
8, 197970, Note_on_c, 6, 48, 0
8, 197970, Note_on_c, 6, 48, 123
8, 198000, Note_on_c, 6, 48, 0
8, 198000, Note_on_c, 6, 48, 119
8, 198210, Note_on_c, 6, 48, 0
8, 198210, Note_on_c, 6, 48, 117
8, 198240, Note_on_c, 6, 48, 0
8, 198240, Note_on_c, 6, 48, 119
8, 198450, Note_on_c, 6, 48, 0
8, 198450, Note_on_c, 6, 48, 123
8, 198480, Note_on_c, 6, 48, 0
8, 198480, Note_on_c, 6, 48, 127
8, 198690, Note_on_c, 6, 48, 0
8, 198690, Note_on_c, 6, 48, 123
8, 198720, Note_on_c, 6, 48, 0
8, 198720, Note_on_c, 6, 48, 123
8, 198735, Note_on_c, 6, 48, 0
8, 198735, Note_on_c, 6, 48, 119
8, 198750, Note_on_c, 6, 48, 0
8, 198750, Note_on_c, 6, 48, 115
8, 198765, Note_on_c, 6, 48, 0
8, 198765, Note_on_c, 6, 48, 119
8, 198780, Note_on_c, 6, 48, 0
8, 198780, Note_on_c, 6, 48, 115
8, 198795, Note_on_c, 6, 48, 0
8, 198795, Note_on_c, 6, 48, 119
8, 198810, Note_on_c, 6, 48, 0
8, 198810, Note_on_c, 6, 48, 119
8, 198825, Note_on_c, 6, 48, 0
8, 198825, Note_on_c, 6, 48, 115
8, 198840, Note_on_c, 6, 48, 0
8, 198840, Note_on_c, 6, 48, 115
8, 198855, Note_on_c, 6, 48, 0
8, 198855, Note_on_c, 6, 48, 117
8, 198870, Note_on_c, 6, 48, 0
8, 198870, Note_on_c, 6, 48, 112
8, 198885, Note_on_c, 6, 48, 0
8, 198885, Note_on_c, 6, 48, 112
8, 198900, Note_on_c, 6, 48, 0
8, 198900, Note_on_c, 6, 48, 112
8, 198915, Note_on_c, 6, 48, 0
8, 198915, Note_on_c, 6, 48, 112
8, 198930, Note_on_c, 6, 48, 0
8, 198930, Note_on_c, 6, 48, 115
8, 198945, Note_on_c, 6, 48, 0
8, 198945, Note_on_c, 6, 48, 115
8, 198960, Note_on_c, 6, 48, 0
8, 198960, Note_on_c, 6, 48, 115
8, 198975, Note_on_c, 6, 48, 0
8, 198975, Note_on_c, 6, 48, 112
8, 198990, Note_on_c, 6, 48, 0
8, 198990, Note_on_c, 6, 48, 115
8, 199005, Note_on_c, 6, 48, 0
8, 199005, Note_on_c, 6, 48, 112
8, 199020, Note_on_c, 6, 48, 0
8, 199020, Note_on_c, 6, 48, 115
8, 199035, Note_on_c, 6, 48, 0
8, 199035, Note_on_c, 6, 48, 115
8, 199050, Note_on_c, 6, 48, 0
8, 199050, Note_on_c, 6, 48, 112
8, 199065, Note_on_c, 6, 48, 0
8, 199065, Note_on_c, 6, 48, 112
8, 199080, Note_on_c, 6, 48, 0
8, 199080, Note_on_c, 6, 48, 115
8, 199095, Note_on_c, 6, 48, 0
8, 199095, Note_on_c, 6, 48, 112
8, 199110, Note_on_c, 6, 48, 0
8, 199110, Note_on_c, 6, 48, 115
8, 199125, Note_on_c, 6, 48, 0
8, 199125, Note_on_c, 6, 48, 112
8, 199140, Note_on_c, 6, 48, 0
8, 199140, Note_on_c, 6, 48, 115
8, 199155, Note_on_c, 6, 48, 0
8, 199155, Note_on_c, 6, 48, 115
8, 199170, Note_on_c, 6, 48, 0
8, 199170, Note_on_c, 6, 48, 115
8, 199185, Note_on_c, 6, 48, 0
8, 199185, Note_on_c, 6, 48, 115
8, 199200, Note_on_c, 6, 48, 0
8, 199200, Note_on_c, 6, 43, 125
8, 199440, Note_on_c, 6, 43, 0
8, 247680, Note_on_c, 6, 48, 63
8, 247800, Note_on_c, 6, 48, 0
8, 247860, Note_on_c, 6, 43, 53
8, 247920, Note_on_c, 6, 43, 0
8, 247920, Note_on_c, 6, 48, 62
8, 248040, Note_on_c, 6, 48, 0
8, 248100, Note_on_c, 6, 43, 68
8, 248160, Note_on_c, 6, 43, 0
8, 248160, Note_on_c, 6, 48, 73
8, 248280, Note_on_c, 6, 48, 0
8, 248640, Note_on_c, 6, 48, 64
8, 248760, Note_on_c, 6, 48, 0
8, 248820, Note_on_c, 6, 43, 57
8, 248880, Note_on_c, 6, 43, 0
8, 248880, Note_on_c, 6, 48, 59
8, 249000, Note_on_c, 6, 48, 0
8, 249060, Note_on_c, 6, 43, 62
8, 249120, Note_on_c, 6, 43, 0
8, 249120, Note_on_c, 6, 48, 55
8, 249240, Note_on_c, 6, 48, 0
8, 249600, Note_on_c, 6, 48, 57
8, 249720, Note_on_c, 6, 48, 0
8, 249780, Note_on_c, 6, 43, 53
8, 249840, Note_on_c, 6, 43, 0
8, 249840, Note_on_c, 6, 48, 50
8, 249960, Note_on_c, 6, 48, 0
8, 250020, Note_on_c, 6, 43, 52
8, 250080, Note_on_c, 6, 43, 0
8, 250080, Note_on_c, 6, 48, 62
8, 250200, Note_on_c, 6, 48, 0
8, 250560, Note_on_c, 6, 48, 59
8, 250680, Note_on_c, 6, 48, 0
8, 250740, Note_on_c, 6, 43, 54
8, 250800, Note_on_c, 6, 43, 0
8, 250800, Note_on_c, 6, 48, 59
8, 250920, Note_on_c, 6, 48, 0
8, 250980, Note_on_c, 6, 43, 65
8, 251040, Note_on_c, 6, 43, 0
8, 251040, Note_on_c, 6, 48, 53
8, 251160, Note_on_c, 6, 48, 0
8, 256320, Note_on_c, 6, 48, 107
8, 256350, Note_on_c, 6, 48, 0
8, 256350, Note_on_c, 6, 48, 104
8, 256380, Note_on_c, 6, 48, 0
8, 256380, Note_on_c, 6, 48, 101
8, 256410, Note_on_c, 6, 48, 0
8, 256410, Note_on_c, 6, 48, 104
8, 256440, Note_on_c, 6, 48, 0
8, 256440, Note_on_c, 6, 48, 98
8, 256470, Note_on_c, 6, 48, 0
8, 256470, Note_on_c, 6, 48, 104
8, 256500, Note_on_c, 6, 48, 0
8, 256500, Note_on_c, 6, 48, 105
8, 256530, Note_on_c, 6, 48, 0
8, 256530, Note_on_c, 6, 48, 104
8, 256560, Note_on_c, 6, 48, 0
8, 256560, Note_on_c, 6, 48, 99
8, 256590, Note_on_c, 6, 48, 0
8, 256590, Note_on_c, 6, 48, 101
8, 256620, Note_on_c, 6, 48, 0
8, 256620, Note_on_c, 6, 48, 99
8, 256650, Note_on_c, 6, 48, 0
8, 256650, Note_on_c, 6, 48, 101
8, 256680, Note_on_c, 6, 48, 0
8, 256680, Note_on_c, 6, 48, 99
8, 256710, Note_on_c, 6, 48, 0
8, 256710, Note_on_c, 6, 48, 99
8, 256740, Note_on_c, 6, 48, 0
8, 256740, Note_on_c, 6, 48, 98
8, 256770, Note_on_c, 6, 48, 0
8, 256770, Note_on_c, 6, 48, 104
8, 256800, Note_on_c, 6, 48, 0
8, 256800, Note_on_c, 6, 48, 104
8, 256830, Note_on_c, 6, 48, 0
8, 256830, Note_on_c, 6, 48, 101
8, 256860, Note_on_c, 6, 48, 0
8, 256860, Note_on_c, 6, 48, 104
8, 256890, Note_on_c, 6, 48, 0
8, 256890, Note_on_c, 6, 48, 99
8, 256920, Note_on_c, 6, 48, 0
8, 256920, Note_on_c, 6, 48, 99
8, 256950, Note_on_c, 6, 48, 0
8, 256950, Note_on_c, 6, 48, 104
8, 256980, Note_on_c, 6, 48, 0
8, 256980, Note_on_c, 6, 48, 99
8, 257010, Note_on_c, 6, 48, 0
8, 257010, Note_on_c, 6, 48, 104
8, 257040, Note_on_c, 6, 48, 0
8, 257040, Note_on_c, 6, 43, 104
8, 257070, Note_on_c, 6, 43, 0
8, 257070, Note_on_c, 6, 43, 99
8, 257100, Note_on_c, 6, 43, 0
8, 257100, Note_on_c, 6, 43, 99
8, 257130, Note_on_c, 6, 43, 0
8, 257130, Note_on_c, 6, 43, 99
8, 257160, Note_on_c, 6, 43, 0
8, 257160, Note_on_c, 6, 43, 104
8, 257190, Note_on_c, 6, 43, 0
8, 257190, Note_on_c, 6, 43, 104
8, 257220, Note_on_c, 6, 43, 0
8, 257220, Note_on_c, 6, 43, 99
8, 257250, Note_on_c, 6, 43, 0
8, 257250, Note_on_c, 6, 43, 104
8, 257280, Note_on_c, 6, 43, 0
8, 257280, Note_on_c, 6, 48, 105
8, 257400, Note_on_c, 6, 48, 0
8, 257520, Note_on_c, 6, 48, 110
8, 257580, Note_on_c, 6, 48, 0
8, 258000, Note_on_c, 6, 48, 112
8, 258060, Note_on_c, 6, 48, 0
8, 258480, Note_on_c, 6, 48, 110
8, 258600, Note_on_c, 6, 48, 0
8, 258720, Note_on_c, 6, 48, 110
8, 258840, Note_on_c, 6, 48, 0
8, 258960, Note_on_c, 6, 48, 110
8, 259080, Note_on_c, 6, 48, 0
8, 259200, Note_on_c, 6, 48, 110
8, 259320, Note_on_c, 6, 48, 0
8, 259650, Note_on_c, 6, 48, 110
8, 259680, Note_on_c, 6, 48, 0
8, 259680, Note_on_c, 6, 48, 110
8, 259800, Note_on_c, 6, 48, 0
8, 260130, Note_on_c, 6, 48, 105
8, 260160, Note_on_c, 6, 48, 0
8, 260160, Note_on_c, 6, 48, 127
8, 260640, Note_on_c, 6, 48, 0
8, 260640, End_track
9, 0, Start_track
9, 0, MIDI_port, 0
9, 0, Title_t, "Piano"
9, 0, Program_c, 7, 0
9, 0, Control_c, 7, 7, 100
9, 0, Control_c, 7, 10, 64
9, 0, Control_c, 7, 93, 0
9, 0, Control_c, 7, 91, 66
9, 53070, Note_on_c, 7, 48, 86
9, 53070, Note_on_c, 7, 36, 98
9, 53100, Note_on_c, 7, 36, 0
9, 53100, Note_on_c, 7, 48, 0
9, 53100, Note_on_c, 7, 50, 99
9, 53100, Note_on_c, 7, 38, 84
9, 53130, Note_on_c, 7, 38, 0
9, 53130, Note_on_c, 7, 50, 0
9, 53130, Note_on_c, 7, 51, 94
9, 53130, Note_on_c, 7, 39, 93
9, 53160, Note_on_c, 7, 39, 0
9, 53160, Note_on_c, 7, 51, 0
9, 53160, Note_on_c, 7, 53, 85
9, 53160, Note_on_c, 7, 41, 94
9, 53190, Note_on_c, 7, 41, 0
9, 53190, Note_on_c, 7, 53, 0
9, 53190, Note_on_c, 7, 55, 94
9, 53190, Note_on_c, 7, 43, 84
9, 53220, Note_on_c, 7, 43, 0
9, 53220, Note_on_c, 7, 55, 0
9, 53220, Note_on_c, 7, 57, 99
9, 53220, Note_on_c, 7, 45, 89
9, 53250, Note_on_c, 7, 45, 0
9, 53250, Note_on_c, 7, 57, 0
9, 53250, Note_on_c, 7, 47, 98
9, 53250, Note_on_c, 7, 59, 95
9, 53280, Note_on_c, 7, 59, 0
9, 53280, Note_on_c, 7, 47, 0
9, 53280, Note_on_c, 7, 60, 119
9, 53280, Note_on_c, 7, 48, 94
9, 53340, Note_on_c, 7, 48, 0
9, 53340, Note_on_c, 7, 60, 0
9, 53550, Note_on_c, 7, 60, 90
9, 53550, Note_on_c, 7, 48, 99
9, 53580, Note_on_c, 7, 48, 0
9, 53580, Note_on_c, 7, 60, 0
9, 53580, Note_on_c, 7, 62, 93
9, 53580, Note_on_c, 7, 50, 95
9, 53610, Note_on_c, 7, 50, 0
9, 53610, Note_on_c, 7, 62, 0
9, 53610, Note_on_c, 7, 63, 93
9, 53610, Note_on_c, 7, 51, 93
9, 53640, Note_on_c, 7, 51, 0
9, 53640, Note_on_c, 7, 63, 0
9, 53640, Note_on_c, 7, 65, 90
9, 53640, Note_on_c, 7, 53, 89
9, 53670, Note_on_c, 7, 53, 0
9, 53670, Note_on_c, 7, 65, 0
9, 53670, Note_on_c, 7, 67, 93
9, 53670, Note_on_c, 7, 55, 89
9, 53700, Note_on_c, 7, 55, 0
9, 53700, Note_on_c, 7, 67, 0
9, 53700, Note_on_c, 7, 69, 98
9, 53700, Note_on_c, 7, 57, 99
9, 53730, Note_on_c, 7, 57, 0
9, 53730, Note_on_c, 7, 69, 0
9, 53730, Note_on_c, 7, 59, 99
9, 53730, Note_on_c, 7, 71, 98
9, 53760, Note_on_c, 7, 71, 0
9, 53760, Note_on_c, 7, 59, 0
9, 53760, Note_on_c, 7, 72, 117
9, 53760, Note_on_c, 7, 60, 94
9, 53820, Note_on_c, 7, 60, 0
9, 53820, Note_on_c, 7, 72, 0
9, 54030, Note_on_c, 7, 72, 89
9, 54030, Note_on_c, 7, 60, 95
9, 54060, Note_on_c, 7, 60, 0
9, 54060, Note_on_c, 7, 72, 0
9, 54060, Note_on_c, 7, 74, 90
9, 54060, Note_on_c, 7, 62, 90
9, 54090, Note_on_c, 7, 62, 0
9, 54090, Note_on_c, 7, 74, 0
9, 54090, Note_on_c, 7, 75, 95
9, 54090, Note_on_c, 7, 63, 82
9, 54120, Note_on_c, 7, 63, 0
9, 54120, Note_on_c, 7, 75, 0
9, 54120, Note_on_c, 7, 77, 85
9, 54120, Note_on_c, 7, 65, 95
9, 54150, Note_on_c, 7, 65, 0
9, 54150, Note_on_c, 7, 77, 0
9, 54150, Note_on_c, 7, 79, 81
9, 54150, Note_on_c, 7, 67, 84
9, 54180, Note_on_c, 7, 67, 0
9, 54180, Note_on_c, 7, 79, 0
9, 54180, Note_on_c, 7, 81, 89
9, 54180, Note_on_c, 7, 69, 89
9, 54210, Note_on_c, 7, 69, 0
9, 54210, Note_on_c, 7, 81, 0
9, 54210, Note_on_c, 7, 71, 94
9, 54210, Note_on_c, 7, 83, 95
9, 54240, Note_on_c, 7, 83, 0
9, 54240, Note_on_c, 7, 71, 0
9, 54240, Note_on_c, 7, 84, 81
9, 54240, Note_on_c, 7, 72, 99
9, 54240, Note_on_c, 7, 60, 81
9, 54240, Note_on_c, 7, 48, 90
9, 54480, Note_on_c, 7, 48, 0
9, 54480, Note_on_c, 7, 84, 0
9, 54480, Note_on_c, 7, 72, 0
9, 54480, Note_on_c, 7, 60, 0
9, 54480, Note_on_c, 7, 51, 95
9, 54480, Note_on_c, 7, 63, 84
9, 54480, Note_on_c, 7, 75, 93
9, 54480, Note_on_c, 7, 87, 95
9, 54720, Note_on_c, 7, 87, 0
9, 54720, Note_on_c, 7, 51, 0
9, 54720, Note_on_c, 7, 63, 0
9, 54720, Note_on_c, 7, 75, 0
9, 54720, Note_on_c, 7, 91, 105
9, 54720, Note_on_c, 7, 79, 105
9, 54720, Note_on_c, 7, 67, 99
9, 54720, Note_on_c, 7, 55, 104
9, 54900, Note_on_c, 7, 55, 0
9, 54900, Note_on_c, 7, 91, 0
9, 54900, Note_on_c, 7, 79, 0
9, 54900, Note_on_c, 7, 67, 0
9, 54900, Note_on_c, 7, 89, 81
9, 54900, Note_on_c, 7, 77, 77
9, 54900, Note_on_c, 7, 65, 80
9, 54900, Note_on_c, 7, 53, 84
9, 54930, Note_on_c, 7, 53, 0
9, 54930, Note_on_c, 7, 89, 0
9, 54930, Note_on_c, 7, 77, 0
9, 54930, Note_on_c, 7, 65, 0
9, 54960, Note_on_c, 7, 87, 95
9, 54960, Note_on_c, 7, 75, 84
9, 54960, Note_on_c, 7, 63, 76
9, 54960, Note_on_c, 7, 51, 94
9, 55020, Note_on_c, 7, 51, 0
9, 55020, Note_on_c, 7, 87, 0
9, 55020, Note_on_c, 7, 75, 0
9, 55020, Note_on_c, 7, 63, 0
9, 55080, Note_on_c, 7, 86, 89
9, 55080, Note_on_c, 7, 74, 86
9, 55080, Note_on_c, 7, 62, 81
9, 55080, Note_on_c, 7, 50, 94
9, 55140, Note_on_c, 7, 50, 0
9, 55140, Note_on_c, 7, 86, 0
9, 55140, Note_on_c, 7, 74, 0
9, 55140, Note_on_c, 7, 62, 0
9, 55200, Note_on_c, 7, 84, 85
9, 55200, Note_on_c, 7, 72, 65
9, 55200, Note_on_c, 7, 60, 84
9, 55200, Note_on_c, 7, 48, 99
9, 55260, Note_on_c, 7, 48, 0
9, 55260, Note_on_c, 7, 84, 0
9, 55260, Note_on_c, 7, 72, 0
9, 55260, Note_on_c, 7, 60, 0
9, 55380, Note_on_c, 7, 79, 81
9, 55380, Note_on_c, 7, 67, 81
9, 55380, Note_on_c, 7, 55, 84
9, 55380, Note_on_c, 7, 43, 93
9, 55410, Note_on_c, 7, 43, 0
9, 55410, Note_on_c, 7, 79, 0
9, 55410, Note_on_c, 7, 67, 0
9, 55410, Note_on_c, 7, 55, 0
9, 55440, Note_on_c, 7, 84, 84
9, 55440, Note_on_c, 7, 72, 61
9, 55440, Note_on_c, 7, 60, 82
9, 55440, Note_on_c, 7, 48, 98
9, 55500, Note_on_c, 7, 48, 0
9, 55500, Note_on_c, 7, 84, 0
9, 55500, Note_on_c, 7, 72, 0
9, 55500, Note_on_c, 7, 60, 0
9, 55620, Note_on_c, 7, 79, 86
9, 55620, Note_on_c, 7, 67, 81
9, 55620, Note_on_c, 7, 55, 82
9, 55620, Note_on_c, 7, 43, 93
9, 55650, Note_on_c, 7, 43, 0
9, 55650, Note_on_c, 7, 79, 0
9, 55650, Note_on_c, 7, 67, 0
9, 55650, Note_on_c, 7, 55, 0
9, 55680, Note_on_c, 7, 84, 89
9, 55680, Note_on_c, 7, 72, 66
9, 55680, Note_on_c, 7, 60, 94
9, 55680, Note_on_c, 7, 48, 94
9, 55800, Note_on_c, 7, 48, 0
9, 55800, Note_on_c, 7, 84, 0
9, 55800, Note_on_c, 7, 72, 0
9, 55800, Note_on_c, 7, 60, 0
9, 56160, Note_on_c, 7, 74, 61
9, 56160, Note_on_c, 7, 71, 64
9, 56160, Note_on_c, 7, 67, 44
9, 56160, Note_on_c, 7, 62, 51
9, 56160, Note_on_c, 7, 59, 61
9, 56160, Note_on_c, 7, 55, 52
9, 56400, Note_on_c, 7, 55, 0
9, 56400, Note_on_c, 7, 71, 0
9, 56400, Note_on_c, 7, 67, 0
9, 56400, Note_on_c, 7, 74, 0
9, 56400, Note_on_c, 7, 59, 0
9, 56400, Note_on_c, 7, 62, 0
9, 56400, Note_on_c, 7, 55, 59
9, 56400, Note_on_c, 7, 62, 68
9, 56400, Note_on_c, 7, 65, 62
9, 56400, Note_on_c, 7, 67, 58
9, 56400, Note_on_c, 7, 74, 80
9, 56400, Note_on_c, 7, 77, 62
9, 56640, Note_on_c, 7, 77, 0
9, 56640, Note_on_c, 7, 62, 0
9, 56640, Note_on_c, 7, 65, 0
9, 56640, Note_on_c, 7, 55, 0
9, 56640, Note_on_c, 7, 74, 0
9, 56640, Note_on_c, 7, 67, 0
9, 56640, Note_on_c, 7, 80, 45
9, 56640, Note_on_c, 7, 77, 74
9, 56640, Note_on_c, 7, 68, 59
9, 56640, Note_on_c, 7, 67, 55
9, 56640, Note_on_c, 7, 65, 57
9, 56640, Note_on_c, 7, 55, 65
9, 56880, Note_on_c, 7, 55, 0
9, 56880, Note_on_c, 7, 77, 0
9, 56880, Note_on_c, 7, 68, 0
9, 56880, Note_on_c, 7, 80, 0
9, 56880, Note_on_c, 7, 65, 0
9, 56880, Note_on_c, 7, 67, 0
9, 56940, Note_on_c, 7, 79, 73
9, 56940, Note_on_c, 7, 75, 72
9, 56940, Note_on_c, 7, 67, 66
9, 56940, Note_on_c, 7, 63, 66
9, 57000, Note_on_c, 7, 63, 0
9, 57000, Note_on_c, 7, 79, 0
9, 57000, Note_on_c, 7, 75, 0
9, 57000, Note_on_c, 7, 67, 0
9, 57000, Note_on_c, 7, 77, 52
9, 57000, Note_on_c, 7, 74, 54
9, 57000, Note_on_c, 7, 65, 50
9, 57000, Note_on_c, 7, 62, 61
9, 57030, Note_on_c, 7, 62, 0
9, 57030, Note_on_c, 7, 77, 0
9, 57030, Note_on_c, 7, 74, 0
9, 57030, Note_on_c, 7, 65, 0
9, 57060, Note_on_c, 7, 75, 69
9, 57060, Note_on_c, 7, 72, 29
9, 57060, Note_on_c, 7, 63, 48
9, 57060, Note_on_c, 7, 60, 76
9, 57060, Note_on_c, 7, 54, 68
9, 57090, Note_on_c, 7, 54, 0
9, 57090, Note_on_c, 7, 63, 0
9, 57090, Note_on_c, 7, 75, 0
9, 57090, Note_on_c, 7, 72, 0
9, 57090, Note_on_c, 7, 60, 0
9, 57120, Note_on_c, 7, 74, 74
9, 57120, Note_on_c, 7, 71, 49
9, 57120, Note_on_c, 7, 62, 46
9, 57120, Note_on_c, 7, 59, 64
9, 57120, Note_on_c, 7, 55, 73
9, 57140, Note_on_c, 7, 74, 0
9, 57140, Note_on_c, 7, 75, 57
9, 57160, Note_on_c, 7, 75, 0
9, 57160, Note_on_c, 7, 74, 68
9, 57180, Note_on_c, 7, 74, 0
9, 57180, Note_on_c, 7, 59, 0
9, 57180, Note_on_c, 7, 55, 0
9, 57180, Note_on_c, 7, 62, 0
9, 57180, Note_on_c, 7, 75, 73
9, 57200, Note_on_c, 7, 75, 0
9, 57200, Note_on_c, 7, 74, 76
9, 57220, Note_on_c, 7, 74, 0
9, 57220, Note_on_c, 7, 75, 71
9, 57240, Note_on_c, 7, 75, 0
9, 57240, Note_on_c, 7, 71, 0
9, 57240, Note_on_c, 7, 77, 52
9, 57240, Note_on_c, 7, 72, 76
9, 57300, Note_on_c, 7, 77, 0
9, 57300, Note_on_c, 7, 75, 84
9, 57300, Note_on_c, 7, 63, 43
9, 57300, Note_on_c, 7, 60, 62
9, 57300, Note_on_c, 7, 54, 45
9, 57330, Note_on_c, 7, 54, 0
9, 57330, Note_on_c, 7, 63, 0
9, 57330, Note_on_c, 7, 60, 0
9, 57360, Note_on_c, 7, 75, 0
9, 57360, Note_on_c, 7, 72, 0
9, 57360, Note_on_c, 7, 74, 73
9, 57360, Note_on_c, 7, 71, 60
9, 57360, Note_on_c, 7, 62, 51
9, 57360, Note_on_c, 7, 59, 70
9, 57360, Note_on_c, 7, 55, 61
9, 57380, Note_on_c, 7, 74, 0
9, 57380, Note_on_c, 7, 75, 64
9, 57400, Note_on_c, 7, 75, 0
9, 57400, Note_on_c, 7, 74, 78
9, 57420, Note_on_c, 7, 74, 0
9, 57420, Note_on_c, 7, 59, 0
9, 57420, Note_on_c, 7, 55, 0
9, 57420, Note_on_c, 7, 62, 0
9, 57420, Note_on_c, 7, 75, 86
9, 57440, Note_on_c, 7, 75, 0
9, 57440, Note_on_c, 7, 74, 80
9, 57460, Note_on_c, 7, 74, 0
9, 57460, Note_on_c, 7, 75, 71
9, 57480, Note_on_c, 7, 75, 0
9, 57480, Note_on_c, 7, 71, 0
9, 57480, Note_on_c, 7, 72, 62
9, 57480, Note_on_c, 7, 77, 63
9, 57540, Note_on_c, 7, 77, 0
9, 57540, Note_on_c, 7, 75, 76
9, 57540, Note_on_c, 7, 63, 43
9, 57540, Note_on_c, 7, 60, 67
9, 57540, Note_on_c, 7, 54, 52
9, 57570, Note_on_c, 7, 54, 0
9, 57570, Note_on_c, 7, 63, 0
9, 57570, Note_on_c, 7, 60, 0
9, 57600, Note_on_c, 7, 72, 0
9, 57600, Note_on_c, 7, 71, 54
9, 57600, Note_on_c, 7, 62, 42
9, 57600, Note_on_c, 7, 59, 57
9, 57600, Note_on_c, 7, 55, 47
9, 57660, Note_on_c, 7, 55, 0
9, 57660, Note_on_c, 7, 62, 0
9, 57660, Note_on_c, 7, 59, 0
9, 57660, Note_on_c, 7, 75, 0
9, 57660, Note_on_c, 7, 74, 68
9, 57720, Note_on_c, 7, 74, 0
9, 57720, Note_on_c, 7, 71, 0
9, 57720, Note_on_c, 7, 73, 62
9, 57780, Note_on_c, 7, 73, 0
9, 57780, Note_on_c, 7, 74, 72
9, 57840, Note_on_c, 7, 74, 0
9, 57840, Note_on_c, 7, 75, 64
9, 57900, Note_on_c, 7, 75, 0
9, 57900, Note_on_c, 7, 76, 78
9, 57960, Note_on_c, 7, 76, 0
9, 57960, Note_on_c, 7, 77, 58
9, 58020, Note_on_c, 7, 77, 0
9, 58020, Note_on_c, 7, 78, 62
9, 58080, Note_on_c, 7, 78, 0
9, 58080, Note_on_c, 7, 48, 74
9, 58080, Note_on_c, 7, 79, 76
9, 58120, Note_on_c, 7, 48, 0
9, 58120, Note_on_c, 7, 51, 84
9, 58160, Note_on_c, 7, 51, 0
9, 58160, Note_on_c, 7, 55, 69
9, 58200, Note_on_c, 7, 55, 0
9, 58200, Note_on_c, 7, 60, 59
9, 58240, Note_on_c, 7, 60, 0
9, 58240, Note_on_c, 7, 48, 73
9, 58280, Note_on_c, 7, 48, 0
9, 58280, Note_on_c, 7, 60, 68
9, 58320, Note_on_c, 7, 60, 0
9, 58320, Note_on_c, 7, 51, 69
9, 58360, Note_on_c, 7, 51, 0
9, 58360, Note_on_c, 7, 55, 68
9, 58380, Note_on_c, 7, 79, 0
9, 58380, Note_on_c, 7, 78, 73
9, 58400, Note_on_c, 7, 55, 0
9, 58400, Note_on_c, 7, 60, 64
9, 58410, Note_on_c, 7, 78, 0
9, 58410, Note_on_c, 7, 79, 81
9, 58440, Note_on_c, 7, 79, 0
9, 58440, Note_on_c, 7, 60, 0
9, 58440, Note_on_c, 7, 81, 84
9, 58440, Note_on_c, 7, 63, 73
9, 58470, Note_on_c, 7, 81, 0
9, 58470, Note_on_c, 7, 79, 80
9, 58480, Note_on_c, 7, 63, 0
9, 58480, Note_on_c, 7, 51, 65
9, 58500, Note_on_c, 7, 79, 0
9, 58500, Note_on_c, 7, 77, 74
9, 58520, Note_on_c, 7, 51, 0
9, 58520, Note_on_c, 7, 63, 70
9, 58530, Note_on_c, 7, 77, 0
9, 58530, Note_on_c, 7, 75, 80
9, 58560, Note_on_c, 7, 75, 0
9, 58560, Note_on_c, 7, 63, 0
9, 58560, Note_on_c, 7, 74, 86
9, 58560, Note_on_c, 7, 56, 62
9, 58600, Note_on_c, 7, 56, 0
9, 58600, Note_on_c, 7, 60, 74
9, 58620, Note_on_c, 7, 74, 0
9, 58620, Note_on_c, 7, 72, 80
9, 58640, Note_on_c, 7, 60, 0
9, 58640, Note_on_c, 7, 63, 67
9, 58680, Note_on_c, 7, 63, 0
9, 58680, Note_on_c, 7, 72, 0
9, 58680, Note_on_c, 7, 72, 81
9, 58680, Note_on_c, 7, 68, 50
9, 58720, Note_on_c, 7, 68, 0
9, 58720, Note_on_c, 7, 63, 74
9, 58760, Note_on_c, 7, 63, 0
9, 58760, Note_on_c, 7, 60, 81
9, 58770, Note_on_c, 7, 72, 0
9, 58800, Note_on_c, 7, 60, 0
9, 58800, Note_on_c, 7, 72, 76
9, 58800, Note_on_c, 7, 56, 68
9, 58840, Note_on_c, 7, 56, 0
9, 58840, Note_on_c, 7, 60, 80
9, 58880, Note_on_c, 7, 60, 0
9, 58880, Note_on_c, 7, 63, 65
9, 58890, Note_on_c, 7, 72, 0
9, 58920, Note_on_c, 7, 63, 0
9, 58920, Note_on_c, 7, 72, 80
9, 58920, Note_on_c, 7, 68, 58
9, 58960, Note_on_c, 7, 68, 0
9, 58960, Note_on_c, 7, 56, 64
9, 59000, Note_on_c, 7, 56, 0
9, 59000, Note_on_c, 7, 68, 62
9, 59010, Note_on_c, 7, 72, 0
9, 59025, Note_on_c, 7, 72, 80
9, 59040, Note_on_c, 7, 72, 0
9, 59040, Note_on_c, 7, 68, 0
9, 59040, Note_on_c, 7, 53, 67
9, 59040, Note_on_c, 7, 84, 86
9, 59080, Note_on_c, 7, 53, 0
9, 59080, Note_on_c, 7, 56, 80
9, 59120, Note_on_c, 7, 56, 0
9, 59120, Note_on_c, 7, 60, 67
9, 59160, Note_on_c, 7, 60, 0
9, 59160, Note_on_c, 7, 65, 68
9, 59200, Note_on_c, 7, 65, 0
9, 59200, Note_on_c, 7, 53, 69
9, 59240, Note_on_c, 7, 53, 0
9, 59240, Note_on_c, 7, 65, 73
9, 59280, Note_on_c, 7, 65, 0
9, 59280, Note_on_c, 7, 56, 74
9, 59320, Note_on_c, 7, 56, 0
9, 59320, Note_on_c, 7, 60, 84
9, 59340, Note_on_c, 7, 84, 0
9, 59340, Note_on_c, 7, 83, 89
9, 59360, Note_on_c, 7, 60, 0
9, 59360, Note_on_c, 7, 65, 74
9, 59370, Note_on_c, 7, 83, 0
9, 59370, Note_on_c, 7, 84, 82
9, 59400, Note_on_c, 7, 84, 0
9, 59400, Note_on_c, 7, 65, 0
9, 59400, Note_on_c, 7, 85, 80
9, 59400, Note_on_c, 7, 68, 73
9, 59430, Note_on_c, 7, 85, 0
9, 59430, Note_on_c, 7, 84, 74
9, 59440, Note_on_c, 7, 68, 0
9, 59440, Note_on_c, 7, 56, 81
9, 59460, Note_on_c, 7, 84, 0
9, 59460, Note_on_c, 7, 82, 84
9, 59480, Note_on_c, 7, 56, 0
9, 59480, Note_on_c, 7, 68, 76
9, 59490, Note_on_c, 7, 82, 0
9, 59490, Note_on_c, 7, 80, 85
9, 59520, Note_on_c, 7, 80, 0
9, 59520, Note_on_c, 7, 68, 0
9, 59520, Note_on_c, 7, 79, 89
9, 59520, Note_on_c, 7, 61, 84
9, 59560, Note_on_c, 7, 61, 0
9, 59560, Note_on_c, 7, 65, 89
9, 59580, Note_on_c, 7, 79, 0
9, 59580, Note_on_c, 7, 77, 80
9, 59600, Note_on_c, 7, 65, 0
9, 59600, Note_on_c, 7, 68, 77
9, 59640, Note_on_c, 7, 68, 0
9, 59640, Note_on_c, 7, 77, 0
9, 59640, Note_on_c, 7, 77, 78
9, 59640, Note_on_c, 7, 73, 57
9, 59680, Note_on_c, 7, 73, 0
9, 59680, Note_on_c, 7, 68, 85
9, 59720, Note_on_c, 7, 68, 0
9, 59720, Note_on_c, 7, 65, 84
9, 59730, Note_on_c, 7, 77, 0
9, 59760, Note_on_c, 7, 65, 0
9, 59760, Note_on_c, 7, 77, 84
9, 59760, Note_on_c, 7, 61, 67
9, 59800, Note_on_c, 7, 61, 0
9, 59800, Note_on_c, 7, 65, 86
9, 59840, Note_on_c, 7, 65, 0
9, 59840, Note_on_c, 7, 68, 82
9, 59850, Note_on_c, 7, 77, 0
9, 59880, Note_on_c, 7, 68, 0
9, 59880, Note_on_c, 7, 77, 80
9, 59880, Note_on_c, 7, 73, 67
9, 59920, Note_on_c, 7, 73, 0
9, 59920, Note_on_c, 7, 61, 76
9, 59960, Note_on_c, 7, 61, 0
9, 59960, Note_on_c, 7, 73, 72
9, 59970, Note_on_c, 7, 77, 0
9, 59985, Note_on_c, 7, 77, 86
9, 60000, Note_on_c, 7, 77, 0
9, 60000, Note_on_c, 7, 73, 0
9, 60000, Note_on_c, 7, 59, 76
9, 60000, Note_on_c, 7, 89, 89
9, 60040, Note_on_c, 7, 59, 0
9, 60040, Note_on_c, 7, 62, 81
9, 60080, Note_on_c, 7, 62, 0
9, 60080, Note_on_c, 7, 65, 68
9, 60120, Note_on_c, 7, 65, 0
9, 60120, Note_on_c, 7, 71, 69
9, 60160, Note_on_c, 7, 71, 0
9, 60160, Note_on_c, 7, 59, 89
9, 60200, Note_on_c, 7, 59, 0
9, 60200, Note_on_c, 7, 71, 77
9, 60240, Note_on_c, 7, 71, 0
9, 60240, Note_on_c, 7, 62, 80
9, 60280, Note_on_c, 7, 62, 0
9, 60280, Note_on_c, 7, 65, 81
9, 60300, Note_on_c, 7, 89, 0
9, 60300, Note_on_c, 7, 88, 89
9, 60320, Note_on_c, 7, 65, 0
9, 60320, Note_on_c, 7, 71, 76
9, 60330, Note_on_c, 7, 88, 0
9, 60330, Note_on_c, 7, 89, 95
9, 60360, Note_on_c, 7, 89, 0
9, 60360, Note_on_c, 7, 71, 0
9, 60360, Note_on_c, 7, 91, 82
9, 60360, Note_on_c, 7, 74, 78
9, 60390, Note_on_c, 7, 91, 0
9, 60390, Note_on_c, 7, 89, 99
9, 60400, Note_on_c, 7, 74, 0
9, 60400, Note_on_c, 7, 62, 76
9, 60420, Note_on_c, 7, 89, 0
9, 60420, Note_on_c, 7, 87, 81
9, 60440, Note_on_c, 7, 62, 0
9, 60440, Note_on_c, 7, 74, 80
9, 60450, Note_on_c, 7, 87, 0
9, 60450, Note_on_c, 7, 86, 95
9, 60480, Note_on_c, 7, 86, 0
9, 60480, Note_on_c, 7, 74, 0
9, 60480, Note_on_c, 7, 84, 84
9, 60480, Note_on_c, 7, 65, 90
9, 60520, Note_on_c, 7, 65, 0
9, 60520, Note_on_c, 7, 84, 0
9, 60520, Note_on_c, 7, 83, 86
9, 60520, Note_on_c, 7, 68, 80
9, 60560, Note_on_c, 7, 68, 0
9, 60560, Note_on_c, 7, 83, 0
9, 60560, Note_on_c, 7, 80, 84
9, 60560, Note_on_c, 7, 71, 76
9, 60600, Note_on_c, 7, 71, 0
9, 60600, Note_on_c, 7, 80, 0
9, 60600, Note_on_c, 7, 83, 84
9, 60600, Note_on_c, 7, 65, 89
9, 60620, Note_on_c, 7, 83, 0
9, 60640, Note_on_c, 7, 65, 0
9, 60640, Note_on_c, 7, 84, 86
9, 60640, Note_on_c, 7, 68, 84
9, 60660, Note_on_c, 7, 84, 0
9, 60680, Note_on_c, 7, 68, 0
9, 60680, Note_on_c, 7, 85, 86
9, 60680, Note_on_c, 7, 71, 77
9, 60700, Note_on_c, 7, 85, 0
9, 60720, Note_on_c, 7, 71, 0
9, 60720, Note_on_c, 7, 86, 95
9, 60720, Note_on_c, 7, 63, 81
9, 60740, Note_on_c, 7, 86, 0
9, 60760, Note_on_c, 7, 63, 0
9, 60760, Note_on_c, 7, 87, 89
9, 60760, Note_on_c, 7, 67, 80
9, 60780, Note_on_c, 7, 87, 0
9, 60800, Note_on_c, 7, 67, 0
9, 60800, Note_on_c, 7, 88, 94
9, 60800, Note_on_c, 7, 71, 78
9, 60820, Note_on_c, 7, 88, 0
9, 60840, Note_on_c, 7, 71, 0
9, 60840, Note_on_c, 7, 89, 82
9, 60840, Note_on_c, 7, 62, 89
9, 60880, Note_on_c, 7, 62, 0
9, 60880, Note_on_c, 7, 89, 0
9, 60880, Note_on_c, 7, 86, 90
9, 60880, Note_on_c, 7, 65, 86
9, 60920, Note_on_c, 7, 65, 0
9, 60920, Note_on_c, 7, 86, 0
9, 60920, Note_on_c, 7, 71, 72
9, 60920, Note_on_c, 7, 83, 82
9, 60960, Note_on_c, 7, 83, 0
9, 60960, Note_on_c, 7, 71, 0
9, 60960, Note_on_c, 7, 84, 84
9, 60960, Note_on_c, 7, 72, 35
9, 60960, Note_on_c, 7, 63, 81
9, 60960, Note_on_c, 7, 60, 61
9, 61020, Note_on_c, 7, 84, 0
9, 61020, Note_on_c, 7, 87, 85
9, 61080, Note_on_c, 7, 87, 0
9, 61080, Note_on_c, 7, 60, 0
9, 61080, Note_on_c, 7, 63, 0
9, 61080, Note_on_c, 7, 72, 0
9, 61080, Note_on_c, 7, 86, 84
9, 61110, Note_on_c, 7, 86, 0
9, 61140, Note_on_c, 7, 84, 80
9, 61170, Note_on_c, 7, 84, 0
9, 61200, Note_on_c, 7, 82, 81
9, 61200, Note_on_c, 7, 65, 60
9, 61200, Note_on_c, 7, 60, 89
9, 61200, Note_on_c, 7, 56, 68
9, 61230, Note_on_c, 7, 82, 0
9, 61260, Note_on_c, 7, 80, 86
9, 61290, Note_on_c, 7, 80, 0
9, 61320, Note_on_c, 7, 56, 0
9, 61320, Note_on_c, 7, 60, 0
9, 61320, Note_on_c, 7, 65, 0
9, 61320, Note_on_c, 7, 79, 86
9, 61350, Note_on_c, 7, 79, 0
9, 61380, Note_on_c, 7, 77, 86
9, 61410, Note_on_c, 7, 77, 0
9, 61440, Note_on_c, 7, 75, 81
9, 61440, Note_on_c, 7, 63, 53
9, 61440, Note_on_c, 7, 60, 74
9, 61440, Note_on_c, 7, 55, 68
9, 61460, Note_on_c, 7, 75, 0
9, 61460, Note_on_c, 7, 77, 71
9, 61480, Note_on_c, 7, 77, 0
9, 61480, Note_on_c, 7, 75, 84
9, 61500, Note_on_c, 7, 75, 0
9, 61500, Note_on_c, 7, 77, 69
9, 61520, Note_on_c, 7, 77, 0
9, 61520, Note_on_c, 7, 75, 84
9, 61540, Note_on_c, 7, 75, 0
9, 61540, Note_on_c, 7, 77, 84
9, 61560, Note_on_c, 7, 77, 0
9, 61560, Note_on_c, 7, 55, 0
9, 61560, Note_on_c, 7, 60, 0
9, 61560, Note_on_c, 7, 63, 0
9, 61560, Note_on_c, 7, 79, 107
9, 61680, Note_on_c, 7, 65, 50
9, 61680, Note_on_c, 7, 62, 73
9, 61680, Note_on_c, 7, 55, 65
9, 61800, Note_on_c, 7, 55, 0
9, 61800, Note_on_c, 7, 79, 0
9, 61800, Note_on_c, 7, 65, 0
9, 61800, Note_on_c, 7, 62, 0
9, 61800, Note_on_c, 7, 71, 84
9, 61920, Note_on_c, 7, 71, 0
9, 61920, Note_on_c, 7, 72, 80
9, 61920, Note_on_c, 7, 60, 64
9, 61920, Note_on_c, 7, 55, 76
9, 61920, Note_on_c, 7, 51, 77
9, 61920, Note_on_c, 7, 48, 71
9, 62040, Note_on_c, 7, 48, 0
9, 62040, Note_on_c, 7, 55, 0
9, 62040, Note_on_c, 7, 72, 0
9, 62040, Note_on_c, 7, 60, 0
9, 62040, Note_on_c, 7, 51, 0
9, 63240, Note_on_c, 7, 31, 72
9, 63280, Note_on_c, 7, 31, 0
9, 63280, Note_on_c, 7, 35, 80
9, 63320, Note_on_c, 7, 35, 0
9, 63320, Note_on_c, 7, 38, 72
9, 63360, Note_on_c, 7, 38, 0
9, 63360, Note_on_c, 7, 43, 76
9, 63400, Note_on_c, 7, 43, 0
9, 63400, Note_on_c, 7, 47, 81
9, 63440, Note_on_c, 7, 47, 0
9, 63440, Note_on_c, 7, 50, 65
9, 63480, Note_on_c, 7, 50, 0
9, 63480, Note_on_c, 7, 55, 72
9, 63520, Note_on_c, 7, 55, 0
9, 63520, Note_on_c, 7, 59, 94
9, 63560, Note_on_c, 7, 59, 0
9, 63560, Note_on_c, 7, 62, 76
9, 63600, Note_on_c, 7, 62, 0
9, 63600, Note_on_c, 7, 67, 76
9, 63640, Note_on_c, 7, 67, 0
9, 63640, Note_on_c, 7, 71, 89
9, 63680, Note_on_c, 7, 71, 0
9, 63680, Note_on_c, 7, 74, 77
9, 63720, Note_on_c, 7, 74, 0
9, 63720, Note_on_c, 7, 79, 73
9, 63760, Note_on_c, 7, 79, 0
9, 63760, Note_on_c, 7, 78, 74
9, 63800, Note_on_c, 7, 78, 0
9, 63800, Note_on_c, 7, 77, 78
9, 63840, Note_on_c, 7, 77, 0
9, 63840, Note_on_c, 7, 74, 72
9, 63840, Note_on_c, 7, 67, 46
9, 63840, Note_on_c, 7, 63, 63
9, 63840, Note_on_c, 7, 60, 45
9, 64080, Note_on_c, 7, 74, 0
9, 64080, Note_on_c, 7, 75, 68
9, 64200, Note_on_c, 7, 75, 0
9, 64200, Note_on_c, 7, 60, 0
9, 64200, Note_on_c, 7, 63, 0
9, 64200, Note_on_c, 7, 67, 0
9, 65160, Note_on_c, 7, 34, 64
9, 65200, Note_on_c, 7, 34, 0
9, 65200, Note_on_c, 7, 38, 67
9, 65240, Note_on_c, 7, 38, 0
9, 65240, Note_on_c, 7, 41, 62
9, 65280, Note_on_c, 7, 41, 0
9, 65280, Note_on_c, 7, 46, 70
9, 65320, Note_on_c, 7, 46, 0
9, 65320, Note_on_c, 7, 50, 89
9, 65360, Note_on_c, 7, 50, 0
9, 65360, Note_on_c, 7, 53, 60
9, 65400, Note_on_c, 7, 53, 0
9, 65400, Note_on_c, 7, 58, 68
9, 65440, Note_on_c, 7, 58, 0
9, 65440, Note_on_c, 7, 62, 74
9, 65480, Note_on_c, 7, 62, 0
9, 65480, Note_on_c, 7, 65, 65
9, 65520, Note_on_c, 7, 65, 0
9, 65520, Note_on_c, 7, 70, 76
9, 65560, Note_on_c, 7, 70, 0
9, 65560, Note_on_c, 7, 74, 72
9, 65600, Note_on_c, 7, 74, 0
9, 65600, Note_on_c, 7, 77, 58
9, 65640, Note_on_c, 7, 77, 0
9, 65640, Note_on_c, 7, 82, 64
9, 65680, Note_on_c, 7, 82, 0
9, 65680, Note_on_c, 7, 81, 65
9, 65720, Note_on_c, 7, 81, 0
9, 65720, Note_on_c, 7, 80, 71
9, 65760, Note_on_c, 7, 80, 0
9, 65760, Note_on_c, 7, 79, 80
9, 65880, Note_on_c, 7, 79, 0
9, 66720, Control_c, 7, 64, 81
9, 66720, Note_on_c, 7, 87, 94
9, 66750, Note_on_c, 7, 87, 0
9, 66750, Note_on_c, 7, 87, 94
9, 66780, Note_on_c, 7, 87, 0
9, 66780, Note_on_c, 7, 91, 94
9, 66810, Note_on_c, 7, 91, 0
9, 66810, Note_on_c, 7, 87, 98
9, 66840, Note_on_c, 7, 87, 0
9, 66840, Note_on_c, 7, 82, 94
9, 66870, Note_on_c, 7, 82, 0
9, 66870, Note_on_c, 7, 82, 89
9, 66900, Note_on_c, 7, 82, 0
9, 66900, Note_on_c, 7, 87, 93
9, 66930, Note_on_c, 7, 87, 0
9, 66930, Note_on_c, 7, 82, 93
9, 66960, Note_on_c, 7, 82, 0
9, 66960, Note_on_c, 7, 79, 84
9, 66990, Note_on_c, 7, 79, 0
9, 66990, Note_on_c, 7, 79, 94
9, 67020, Note_on_c, 7, 79, 0
9, 67020, Note_on_c, 7, 82, 94
9, 67050, Note_on_c, 7, 82, 0
9, 67050, Note_on_c, 7, 79, 89
9, 67080, Note_on_c, 7, 79, 0
9, 67080, Note_on_c, 7, 75, 99
9, 67110, Note_on_c, 7, 75, 0
9, 67110, Note_on_c, 7, 75, 99
9, 67140, Note_on_c, 7, 75, 0
9, 67140, Note_on_c, 7, 79, 94
9, 67170, Note_on_c, 7, 79, 0
9, 67170, Note_on_c, 7, 75, 99
9, 67200, Note_on_c, 7, 75, 0
9, 67200, Note_on_c, 7, 70, 99
9, 67230, Note_on_c, 7, 70, 0
9, 67230, Note_on_c, 7, 70, 94
9, 67260, Note_on_c, 7, 70, 0
9, 67260, Note_on_c, 7, 75, 95
9, 67290, Note_on_c, 7, 75, 0
9, 67290, Note_on_c, 7, 70, 99
9, 67320, Note_on_c, 7, 70, 0
9, 67320, Note_on_c, 7, 67, 86
9, 67350, Note_on_c, 7, 67, 0
9, 67350, Note_on_c, 7, 67, 89
9, 67380, Note_on_c, 7, 67, 0
9, 67380, Note_on_c, 7, 70, 99
9, 67410, Note_on_c, 7, 70, 0
9, 67410, Note_on_c, 7, 67, 86
9, 67440, Note_on_c, 7, 67, 0
9, 67440, Note_on_c, 7, 63, 94
9, 67470, Note_on_c, 7, 63, 0
9, 67470, Note_on_c, 7, 63, 84
9, 67500, Note_on_c, 7, 63, 0
9, 67500, Note_on_c, 7, 67, 94
9, 67530, Note_on_c, 7, 67, 0
9, 67530, Note_on_c, 7, 63, 94
9, 67560, Note_on_c, 7, 63, 0
9, 67560, Note_on_c, 7, 58, 93
9, 67590, Note_on_c, 7, 58, 0
9, 67590, Note_on_c, 7, 58, 93
9, 67620, Note_on_c, 7, 58, 0
9, 67620, Control_c, 7, 64, 78
9, 67620, Note_on_c, 7, 63, 95
9, 67625, Control_c, 7, 64, 65
9, 67630, Control_c, 7, 64, 52
9, 67635, Control_c, 7, 64, 39
9, 67640, Control_c, 7, 64, 26
9, 67645, Control_c, 7, 64, 13
9, 67650, Note_on_c, 7, 63, 0
9, 67650, Note_on_c, 7, 55, 89
9, 67650, Control_c, 7, 64, 0
9, 67680, Note_on_c, 7, 55, 0
9, 67680, Note_on_c, 7, 56, 89
9, 67800, Note_on_c, 7, 56, 0
9, 68640, Note_on_c, 7, 57, 95
9, 68640, Note_on_c, 7, 47, 99
9, 68670, Note_on_c, 7, 57, 0
9, 68670, Note_on_c, 7, 58, 86
9, 68700, Note_on_c, 7, 58, 0
9, 68700, Note_on_c, 7, 59, 86
9, 68730, Note_on_c, 7, 59, 0
9, 68730, Note_on_c, 7, 60, 89
9, 68760, Note_on_c, 7, 60, 0
9, 68760, Note_on_c, 7, 47, 0
9, 68760, Note_on_c, 7, 61, 80
9, 68790, Note_on_c, 7, 61, 0
9, 68790, Note_on_c, 7, 62, 86
9, 68820, Note_on_c, 7, 62, 0
9, 68820, Note_on_c, 7, 63, 94
9, 68850, Note_on_c, 7, 63, 0
9, 68850, Note_on_c, 7, 64, 93
9, 68880, Note_on_c, 7, 64, 0
9, 68880, Note_on_c, 7, 65, 94
9, 68910, Note_on_c, 7, 65, 0
9, 68910, Note_on_c, 7, 66, 94
9, 68940, Note_on_c, 7, 66, 0
9, 68940, Note_on_c, 7, 67, 85
9, 68970, Note_on_c, 7, 67, 0
9, 68970, Note_on_c, 7, 68, 95
9, 69000, Note_on_c, 7, 68, 0
9, 69000, Note_on_c, 7, 69, 84
9, 69030, Note_on_c, 7, 69, 0
9, 69030, Note_on_c, 7, 70, 93
9, 69060, Note_on_c, 7, 70, 0
9, 69060, Note_on_c, 7, 71, 95
9, 69090, Note_on_c, 7, 71, 0
9, 69090, Note_on_c, 7, 72, 107
9, 69120, Note_on_c, 7, 72, 0
9, 69120, Note_on_c, 7, 73, 84
9, 69150, Note_on_c, 7, 73, 0
9, 69150, Note_on_c, 7, 74, 82
9, 69180, Note_on_c, 7, 74, 0
9, 69180, Note_on_c, 7, 75, 94
9, 69210, Note_on_c, 7, 75, 0
9, 69210, Note_on_c, 7, 76, 82
9, 69240, Note_on_c, 7, 76, 0
9, 69240, Note_on_c, 7, 77, 95
9, 69270, Note_on_c, 7, 77, 0
9, 69270, Note_on_c, 7, 78, 94
9, 69300, Note_on_c, 7, 78, 0
9, 69300, Note_on_c, 7, 77, 86
9, 69330, Note_on_c, 7, 77, 0
9, 69330, Note_on_c, 7, 78, 85
9, 69360, Note_on_c, 7, 78, 0
9, 69360, Note_on_c, 7, 77, 93
9, 69390, Note_on_c, 7, 77, 0
9, 69390, Note_on_c, 7, 78, 89
9, 69420, Note_on_c, 7, 78, 0
9, 69420, Note_on_c, 7, 77, 90
9, 69450, Note_on_c, 7, 77, 0
9, 69450, Note_on_c, 7, 78, 93
9, 69480, Note_on_c, 7, 78, 0
9, 69480, Note_on_c, 7, 80, 95
9, 69510, Note_on_c, 7, 80, 0
9, 69510, Note_on_c, 7, 78, 89
9, 69540, Note_on_c, 7, 78, 0
9, 69540, Note_on_c, 7, 77, 93
9, 69570, Note_on_c, 7, 77, 0
9, 69570, Note_on_c, 7, 75, 99
9, 69600, Note_on_c, 7, 75, 0
9, 69600, Note_on_c, 7, 74, 99
9, 69600, Note_on_c, 7, 46, 94
9, 69640, Note_on_c, 7, 46, 0
9, 69640, Note_on_c, 7, 62, 84
9, 69660, Note_on_c, 7, 74, 0
9, 69680, Note_on_c, 7, 62, 0
9, 69680, Note_on_c, 7, 58, 86
9, 69720, Note_on_c, 7, 58, 0
9, 69720, Note_on_c, 7, 82, 84
9, 69720, Note_on_c, 7, 50, 98
9, 69760, Note_on_c, 7, 50, 0
9, 69760, Note_on_c, 7, 65, 84
9, 69800, Note_on_c, 7, 65, 0
9, 69800, Note_on_c, 7, 58, 78
9, 69840, Note_on_c, 7, 58, 0
9, 69840, Note_on_c, 7, 53, 93
9, 69880, Note_on_c, 7, 53, 0
9, 69880, Note_on_c, 7, 68, 86
9, 69900, Note_on_c, 7, 82, 0
9, 69900, Note_on_c, 7, 82, 86
9, 69920, Note_on_c, 7, 68, 0
9, 69920, Note_on_c, 7, 58, 71
9, 69945, Note_on_c, 7, 82, 0
9, 69960, Note_on_c, 7, 58, 0
9, 69960, Note_on_c, 7, 82, 84
9, 69960, Note_on_c, 7, 50, 99
9, 70000, Note_on_c, 7, 50, 0
9, 70000, Note_on_c, 7, 65, 77
9, 70005, Note_on_c, 7, 82, 0
9, 70020, Note_on_c, 7, 82, 90
9, 70040, Note_on_c, 7, 65, 0
9, 70040, Note_on_c, 7, 58, 77
9, 70065, Note_on_c, 7, 82, 0
9, 70080, Note_on_c, 7, 58, 0
9, 70080, Note_on_c, 7, 82, 89
9, 70080, Note_on_c, 7, 51, 90
9, 70100, Note_on_c, 7, 82, 0
9, 70100, Note_on_c, 7, 83, 82
9, 70120, Note_on_c, 7, 83, 0
9, 70120, Note_on_c, 7, 51, 0
9, 70120, Note_on_c, 7, 82, 85
9, 70120, Note_on_c, 7, 66, 94
9, 70140, Note_on_c, 7, 82, 0
9, 70140, Note_on_c, 7, 81, 95
9, 70160, Note_on_c, 7, 66, 0
9, 70160, Note_on_c, 7, 58, 72
9, 70170, Note_on_c, 7, 81, 0
9, 70170, Note_on_c, 7, 82, 81
9, 70200, Note_on_c, 7, 82, 0
9, 70200, Note_on_c, 7, 58, 0
9, 70200, Note_on_c, 7, 83, 86
9, 70200, Note_on_c, 7, 54, 90
9, 70240, Note_on_c, 7, 54, 0
9, 70240, Note_on_c, 7, 70, 89
9, 70260, Note_on_c, 7, 83, 0
9, 70260, Note_on_c, 7, 82, 89
9, 70280, Note_on_c, 7, 70, 0
9, 70280, Note_on_c, 7, 58, 72
9, 70320, Note_on_c, 7, 58, 0
9, 70320, Note_on_c, 7, 82, 0
9, 70320, Note_on_c, 7, 80, 93
9, 70320, Note_on_c, 7, 51, 84
9, 70360, Note_on_c, 7, 51, 0
9, 70360, Note_on_c, 7, 66, 85
9, 70380, Note_on_c, 7, 80, 0
9, 70380, Note_on_c, 7, 78, 89
9, 70400, Note_on_c, 7, 66, 0
9, 70400, Note_on_c, 7, 58, 72
9, 70440, Note_on_c, 7, 58, 0
9, 70440, Note_on_c, 7, 78, 0
9, 70440, Note_on_c, 7, 77, 94
9, 70440, Note_on_c, 7, 54, 89
9, 70480, Note_on_c, 7, 54, 0
9, 70480, Note_on_c, 7, 70, 85
9, 70500, Note_on_c, 7, 77, 0
9, 70500, Note_on_c, 7, 75, 98
9, 70520, Note_on_c, 7, 70, 0
9, 70520, Note_on_c, 7, 58, 71
9, 70560, Note_on_c, 7, 58, 0
9, 70560, Note_on_c, 7, 75, 0
9, 70560, Note_on_c, 7, 75, 99
9, 70560, Note_on_c, 7, 53, 76
9, 70600, Note_on_c, 7, 53, 0
9, 70600, Note_on_c, 7, 65, 89
9, 70620, Note_on_c, 7, 75, 0
9, 70620, Note_on_c, 7, 74, 99
9, 70640, Note_on_c, 7, 65, 0
9, 70640, Note_on_c, 7, 58, 84
9, 70680, Note_on_c, 7, 58, 0
9, 70680, Note_on_c, 7, 74, 0
9, 70680, Note_on_c, 7, 74, 99
9, 70680, Note_on_c, 7, 56, 81
9, 70720, Note_on_c, 7, 56, 0
9, 70720, Note_on_c, 7, 68, 82
9, 70760, Note_on_c, 7, 68, 0
9, 70760, Note_on_c, 7, 58, 89
9, 70800, Note_on_c, 7, 58, 0
9, 70800, Note_on_c, 7, 74, 0
9, 70800, Note_on_c, 7, 75, 95
9, 70800, Note_on_c, 7, 53, 89
9, 70830, Note_on_c, 7, 75, 0
9, 70830, Note_on_c, 7, 74, 95
9, 70840, Note_on_c, 7, 53, 0
9, 70840, Note_on_c, 7, 65, 84
9, 70860, Note_on_c, 7, 74, 0
9, 70860, Note_on_c, 7, 72, 67
9, 70880, Note_on_c, 7, 65, 0
9, 70880, Note_on_c, 7, 58, 85
9, 70890, Note_on_c, 7, 72, 0
9, 70890, Note_on_c, 7, 74, 98
9, 70920, Note_on_c, 7, 74, 0
9, 70920, Note_on_c, 7, 58, 0
9, 70920, Note_on_c, 7, 75, 95
9, 70920, Note_on_c, 7, 56, 86
9, 70960, Note_on_c, 7, 56, 0
9, 70960, Note_on_c, 7, 68, 86
9, 70980, Note_on_c, 7, 75, 0
9, 70980, Note_on_c, 7, 77, 94
9, 71000, Note_on_c, 7, 68, 0
9, 71000, Note_on_c, 7, 58, 84
9, 71040, Note_on_c, 7, 58, 0
9, 71040, Note_on_c, 7, 77, 0
9, 71040, Note_on_c, 7, 77, 93
9, 71040, Note_on_c, 7, 54, 76
9, 71080, Note_on_c, 7, 54, 0
9, 71080, Note_on_c, 7, 66, 86
9, 71100, Note_on_c, 7, 77, 0
9, 71100, Note_on_c, 7, 75, 95
9, 71120, Note_on_c, 7, 66, 0
9, 71120, Note_on_c, 7, 58, 86
9, 71160, Note_on_c, 7, 58, 0
9, 71160, Note_on_c, 7, 75, 0
9, 71160, Note_on_c, 7, 75, 101
9, 71160, Note_on_c, 7, 51, 89
9, 71200, Note_on_c, 7, 51, 0
9, 71200, Note_on_c, 7, 63, 84
9, 71240, Note_on_c, 7, 63, 0
9, 71240, Note_on_c, 7, 58, 84
9, 71280, Note_on_c, 7, 58, 0
9, 71280, Note_on_c, 7, 75, 0
9, 71280, Note_on_c, 7, 77, 84
9, 71280, Note_on_c, 7, 54, 89
9, 71310, Note_on_c, 7, 77, 0
9, 71310, Note_on_c, 7, 75, 95
9, 71320, Note_on_c, 7, 54, 0
9, 71320, Note_on_c, 7, 66, 89
9, 71340, Note_on_c, 7, 75, 0
9, 71340, Note_on_c, 7, 74, 99
9, 71360, Note_on_c, 7, 66, 0
9, 71360, Note_on_c, 7, 58, 89
9, 71370, Note_on_c, 7, 74, 0
9, 71370, Note_on_c, 7, 75, 94
9, 71400, Note_on_c, 7, 75, 0
9, 71400, Note_on_c, 7, 58, 0
9, 71400, Note_on_c, 7, 77, 94
9, 71400, Note_on_c, 7, 51, 90
9, 71440, Note_on_c, 7, 51, 0
9, 71440, Note_on_c, 7, 63, 81
9, 71460, Note_on_c, 7, 77, 0
9, 71460, Note_on_c, 7, 78, 90
9, 71480, Note_on_c, 7, 63, 0
9, 71480, Note_on_c, 7, 58, 84
9, 71520, Note_on_c, 7, 58, 0
9, 71520, Note_on_c, 7, 78, 0
9, 71520, Note_on_c, 7, 77, 94
9, 71520, Note_on_c, 7, 46, 86
9, 71550, Note_on_c, 7, 77, 0
9, 71560, Note_on_c, 7, 46, 0
9, 71560, Note_on_c, 7, 62, 86
9, 71580, Note_on_c, 7, 82, 86
9, 71600, Note_on_c, 7, 62, 0
9, 71600, Note_on_c, 7, 58, 68
9, 71640, Note_on_c, 7, 58, 0
9, 71640, Note_on_c, 7, 82, 0
9, 71640, Note_on_c, 7, 81, 94
9, 71640, Note_on_c, 7, 50, 95
9, 71680, Note_on_c, 7, 50, 0
9, 71680, Note_on_c, 7, 65, 84
9, 71700, Note_on_c, 7, 81, 0
9, 71700, Note_on_c, 7, 82, 86
9, 71720, Note_on_c, 7, 65, 0
9, 71720, Note_on_c, 7, 58, 67
9, 71760, Note_on_c, 7, 58, 0
9, 71760, Note_on_c, 7, 82, 0
9, 71760, Note_on_c, 7, 81, 94
9, 71760, Note_on_c, 7, 53, 94
9, 71800, Note_on_c, 7, 53, 0
9, 71800, Note_on_c, 7, 68, 95
9, 71820, Note_on_c, 7, 81, 0
9, 71820, Note_on_c, 7, 82, 93
9, 71840, Note_on_c, 7, 68, 0
9, 71840, Note_on_c, 7, 58, 89
9, 71880, Note_on_c, 7, 58, 0
9, 71880, Note_on_c, 7, 82, 0
9, 71880, Note_on_c, 7, 81, 99
9, 71880, Note_on_c, 7, 50, 99
9, 71920, Note_on_c, 7, 50, 0
9, 71920, Note_on_c, 7, 65, 86
9, 71940, Note_on_c, 7, 81, 0
9, 71940, Note_on_c, 7, 82, 94
9, 71960, Note_on_c, 7, 65, 0
9, 71960, Note_on_c, 7, 58, 84
9, 72000, Note_on_c, 7, 58, 0
9, 72000, Note_on_c, 7, 82, 0
9, 72000, Note_on_c, 7, 81, 104
9, 72000, Note_on_c, 7, 51, 99
9, 72040, Note_on_c, 7, 51, 0
9, 72040, Note_on_c, 7, 66, 94
9, 72060, Note_on_c, 7, 81, 0
9, 72060, Note_on_c, 7, 82, 95
9, 72080, Note_on_c, 7, 66, 0
9, 72080, Note_on_c, 7, 58, 82
9, 72120, Note_on_c, 7, 58, 0
9, 72120, Note_on_c, 7, 82, 0
9, 72120, Note_on_c, 7, 83, 94
9, 72120, Note_on_c, 7, 54, 99
9, 72160, Note_on_c, 7, 54, 0
9, 72160, Note_on_c, 7, 70, 93
9, 72180, Note_on_c, 7, 83, 0
9, 72180, Note_on_c, 7, 82, 95
9, 72200, Note_on_c, 7, 70, 0
9, 72200, Note_on_c, 7, 58, 84
9, 72240, Note_on_c, 7, 58, 0
9, 72240, Note_on_c, 7, 82, 0
9, 72240, Note_on_c, 7, 80, 98
9, 72240, Note_on_c, 7, 51, 99
9, 72280, Note_on_c, 7, 51, 0
9, 72280, Note_on_c, 7, 66, 94
9, 72300, Note_on_c, 7, 80, 0
9, 72300, Note_on_c, 7, 78, 95
9, 72320, Note_on_c, 7, 66, 0
9, 72320, Note_on_c, 7, 58, 82
9, 72360, Note_on_c, 7, 58, 0
9, 72360, Note_on_c, 7, 78, 0
9, 72360, Note_on_c, 7, 77, 99
9, 72360, Note_on_c, 7, 54, 104
9, 72400, Note_on_c, 7, 54, 0
9, 72400, Note_on_c, 7, 70, 95
9, 72420, Note_on_c, 7, 77, 0
9, 72420, Note_on_c, 7, 75, 105
9, 72440, Note_on_c, 7, 70, 0
9, 72440, Note_on_c, 7, 58, 84
9, 72480, Note_on_c, 7, 58, 0
9, 72480, Note_on_c, 7, 75, 0
9, 72480, Note_on_c, 7, 75, 104
9, 72480, Note_on_c, 7, 53, 99
9, 72520, Note_on_c, 7, 53, 0
9, 72520, Note_on_c, 7, 65, 95
9, 72540, Note_on_c, 7, 75, 0
9, 72540, Note_on_c, 7, 74, 107
9, 72560, Note_on_c, 7, 65, 0
9, 72560, Note_on_c, 7, 58, 94
9, 72600, Note_on_c, 7, 58, 0
9, 72600, Note_on_c, 7, 74, 0
9, 72600, Note_on_c, 7, 74, 105
9, 72600, Note_on_c, 7, 56, 99
9, 72630, Note_on_c, 7, 74, 0
9, 72640, Note_on_c, 7, 56, 0
9, 72640, Note_on_c, 7, 68, 95
9, 72660, Note_on_c, 7, 74, 105
9, 72680, Note_on_c, 7, 68, 0
9, 72680, Note_on_c, 7, 58, 94
9, 72690, Note_on_c, 7, 74, 0
9, 72720, Note_on_c, 7, 58, 0
9, 72720, Note_on_c, 7, 74, 99
9, 72720, Note_on_c, 7, 53, 99
9, 72740, Note_on_c, 7, 74, 0
9, 72740, Note_on_c, 7, 75, 95
9, 72760, Note_on_c, 7, 75, 0
9, 72760, Note_on_c, 7, 53, 0
9, 72760, Note_on_c, 7, 74, 101
9, 72760, Note_on_c, 7, 65, 99
9, 72780, Note_on_c, 7, 74, 0
9, 72780, Note_on_c, 7, 75, 95
9, 72800, Note_on_c, 7, 75, 0
9, 72800, Note_on_c, 7, 65, 0
9, 72800, Note_on_c, 7, 74, 105
9, 72800, Note_on_c, 7, 58, 94
9, 72820, Note_on_c, 7, 74, 0
9, 72840, Note_on_c, 7, 58, 0
9, 72840, Note_on_c, 7, 75, 99
9, 72840, Note_on_c, 7, 56, 99
9, 72880, Note_on_c, 7, 56, 0
9, 72880, Note_on_c, 7, 68, 99
9, 72900, Note_on_c, 7, 75, 0
9, 72900, Note_on_c, 7, 77, 94
9, 72920, Note_on_c, 7, 68, 0
9, 72920, Note_on_c, 7, 58, 95
9, 72960, Note_on_c, 7, 58, 0
9, 72960, Note_on_c, 7, 77, 0
9, 72960, Note_on_c, 7, 77, 104
9, 72960, Note_on_c, 7, 54, 95
9, 73000, Note_on_c, 7, 54, 0
9, 73000, Note_on_c, 7, 66, 99
9, 73020, Note_on_c, 7, 77, 0
9, 73020, Note_on_c, 7, 75, 104
9, 73040, Note_on_c, 7, 66, 0
9, 73040, Note_on_c, 7, 58, 99
9, 73080, Note_on_c, 7, 58, 0
9, 73080, Note_on_c, 7, 75, 0
9, 73080, Note_on_c, 7, 75, 104
9, 73080, Note_on_c, 7, 51, 104
9, 73110, Note_on_c, 7, 75, 0
9, 73120, Note_on_c, 7, 51, 0
9, 73120, Note_on_c, 7, 63, 93
9, 73140, Note_on_c, 7, 75, 99
9, 73160, Note_on_c, 7, 63, 0
9, 73160, Note_on_c, 7, 58, 95
9, 73170, Note_on_c, 7, 75, 0
9, 73200, Note_on_c, 7, 58, 0
9, 73200, Note_on_c, 7, 75, 99
9, 73200, Note_on_c, 7, 54, 99
9, 73220, Note_on_c, 7, 75, 0
9, 73220, Note_on_c, 7, 77, 101
9, 73240, Note_on_c, 7, 77, 0
9, 73240, Note_on_c, 7, 54, 0
9, 73240, Note_on_c, 7, 75, 99
9, 73240, Note_on_c, 7, 66, 99
9, 73260, Note_on_c, 7, 75, 0
9, 73260, Note_on_c, 7, 77, 101
9, 73280, Note_on_c, 7, 77, 0
9, 73280, Note_on_c, 7, 66, 0
9, 73280, Note_on_c, 7, 75, 101
9, 73280, Note_on_c, 7, 58, 95
9, 73300, Note_on_c, 7, 75, 0
9, 73320, Note_on_c, 7, 58, 0
9, 73320, Note_on_c, 7, 77, 99
9, 73320, Note_on_c, 7, 51, 99
9, 73360, Note_on_c, 7, 51, 0
9, 73360, Note_on_c, 7, 63, 94
9, 73380, Note_on_c, 7, 77, 0
9, 73380, Note_on_c, 7, 78, 95
9, 73400, Note_on_c, 7, 63, 0
9, 73400, Note_on_c, 7, 58, 99
9, 73440, Note_on_c, 7, 58, 0
9, 73440, Note_on_c, 7, 78, 0
9, 73440, Note_on_c, 7, 77, 78
9, 73440, Note_on_c, 7, 58, 78
9, 73440, Note_on_c, 7, 46, 90
9, 73470, Note_on_c, 7, 77, 0
9, 73470, Note_on_c, 7, 82, 84
9, 73500, Note_on_c, 7, 82, 0
9, 73500, Note_on_c, 7, 81, 94
9, 73530, Note_on_c, 7, 81, 0
9, 73530, Note_on_c, 7, 82, 89
9, 73560, Note_on_c, 7, 82, 0
9, 73560, Note_on_c, 7, 46, 0
9, 73560, Note_on_c, 7, 58, 0
9, 73560, Note_on_c, 7, 81, 90
9, 73590, Note_on_c, 7, 81, 0
9, 73590, Note_on_c, 7, 82, 90
9, 73620, Note_on_c, 7, 82, 0
9, 73620, Note_on_c, 7, 84, 90
9, 73650, Note_on_c, 7, 84, 0
9, 73650, Note_on_c, 7, 82, 89
9, 73680, Note_on_c, 7, 82, 0
9, 73680, Note_on_c, 7, 58, 86
9, 73680, Note_on_c, 7, 80, 90
9, 73710, Note_on_c, 7, 75, 94
9, 73710, Note_on_c, 7, 66, 81
9, 73740, Note_on_c, 7, 66, 0
9, 73740, Note_on_c, 7, 75, 0
9, 73740, Note_on_c, 7, 74, 94
9, 73740, Note_on_c, 7, 65, 84
9, 73770, Note_on_c, 7, 65, 0
9, 73770, Note_on_c, 7, 74, 0
9, 73770, Note_on_c, 7, 75, 89
9, 73770, Note_on_c, 7, 66, 80
9, 73800, Note_on_c, 7, 66, 0
9, 73800, Note_on_c, 7, 75, 0
9, 73800, Note_on_c, 7, 74, 90
9, 73800, Note_on_c, 7, 65, 89
9, 73830, Note_on_c, 7, 65, 0
9, 73830, Note_on_c, 7, 74, 0
9, 73830, Note_on_c, 7, 75, 94
9, 73830, Note_on_c, 7, 66, 89
9, 73860, Note_on_c, 7, 66, 0
9, 73860, Note_on_c, 7, 75, 0
9, 73860, Note_on_c, 7, 77, 85
9, 73860, Note_on_c, 7, 68, 85
9, 73890, Note_on_c, 7, 68, 0
9, 73890, Note_on_c, 7, 77, 0
9, 73890, Note_on_c, 7, 66, 85
9, 73890, Note_on_c, 7, 75, 86
9, 73920, Note_on_c, 7, 75, 0
9, 73920, Note_on_c, 7, 58, 0
9, 73920, Note_on_c, 7, 80, 0
9, 73920, Note_on_c, 7, 66, 0
9, 73920, Note_on_c, 7, 82, 89
9, 73920, Note_on_c, 7, 74, 95
9, 73920, Note_on_c, 7, 65, 89
9, 73920, Note_on_c, 7, 58, 85
9, 73950, Note_on_c, 7, 74, 0
9, 73950, Note_on_c, 7, 70, 89
9, 73980, Note_on_c, 7, 70, 0
9, 73980, Note_on_c, 7, 69, 80
9, 74010, Note_on_c, 7, 69, 0
9, 74010, Note_on_c, 7, 70, 84
9, 74040, Note_on_c, 7, 70, 0
9, 74040, Note_on_c, 7, 58, 0
9, 74040, Note_on_c, 7, 65, 0
9, 74040, Note_on_c, 7, 82, 0
9, 74040, Note_on_c, 7, 69, 82
9, 74070, Note_on_c, 7, 69, 0
9, 74070, Note_on_c, 7, 70, 84
9, 74100, Note_on_c, 7, 70, 0
9, 74100, Note_on_c, 7, 72, 67
9, 74130, Note_on_c, 7, 72, 0
9, 74130, Note_on_c, 7, 70, 86
9, 74160, Note_on_c, 7, 70, 0
9, 74160, Note_on_c, 7, 58, 89
9, 74160, Note_on_c, 7, 68, 98
9, 74190, Note_on_c, 7, 78, 81
9, 74190, Note_on_c, 7, 63, 82
9, 74220, Note_on_c, 7, 63, 0
9, 74220, Note_on_c, 7, 78, 0
9, 74220, Note_on_c, 7, 77, 80
9, 74220, Note_on_c, 7, 62, 94
9, 74250, Note_on_c, 7, 62, 0
9, 74250, Note_on_c, 7, 77, 0
9, 74250, Note_on_c, 7, 78, 77
9, 74250, Note_on_c, 7, 63, 82
9, 74280, Note_on_c, 7, 63, 0
9, 74280, Note_on_c, 7, 78, 0
9, 74280, Note_on_c, 7, 77, 76
9, 74280, Note_on_c, 7, 62, 81
9, 74310, Note_on_c, 7, 62, 0
9, 74310, Note_on_c, 7, 77, 0
9, 74310, Note_on_c, 7, 78, 84
9, 74310, Note_on_c, 7, 63, 70
9, 74340, Note_on_c, 7, 63, 0
9, 74340, Note_on_c, 7, 78, 0
9, 74340, Note_on_c, 7, 80, 80
9, 74340, Note_on_c, 7, 65, 69
9, 74370, Note_on_c, 7, 65, 0
9, 74370, Note_on_c, 7, 80, 0
9, 74370, Note_on_c, 7, 63, 78
9, 74370, Note_on_c, 7, 78, 80
9, 74400, Note_on_c, 7, 78, 0
9, 74400, Note_on_c, 7, 58, 0
9, 74400, Note_on_c, 7, 68, 0
9, 74400, Note_on_c, 7, 63, 0
9, 74400, Note_on_c, 7, 77, 76
9, 74400, Note_on_c, 7, 70, 94
9, 74400, Note_on_c, 7, 62, 76
9, 74400, Note_on_c, 7, 58, 77
9, 74415, Note_on_c, 7, 58, 0
9, 74415, Note_on_c, 7, 62, 0
9, 74430, Note_on_c, 7, 77, 0
9, 74430, Note_on_c, 7, 82, 76
9, 74430, Note_on_c, 7, 74, 80
9, 74460, Note_on_c, 7, 74, 0
9, 74460, Note_on_c, 7, 82, 0
9, 74460, Note_on_c, 7, 81, 85
9, 74460, Note_on_c, 7, 73, 76
9, 74490, Note_on_c, 7, 73, 0
9, 74490, Note_on_c, 7, 81, 0
9, 74490, Note_on_c, 7, 82, 80
9, 74490, Note_on_c, 7, 74, 68
9, 74520, Note_on_c, 7, 74, 0
9, 74520, Note_on_c, 7, 82, 0
9, 74520, Note_on_c, 7, 70, 0
9, 74520, Note_on_c, 7, 81, 84
9, 74520, Note_on_c, 7, 73, 81
9, 74550, Note_on_c, 7, 73, 0
9, 74550, Note_on_c, 7, 81, 0
9, 74550, Note_on_c, 7, 82, 85
9, 74550, Note_on_c, 7, 74, 85
9, 74580, Note_on_c, 7, 74, 0
9, 74580, Note_on_c, 7, 82, 0
9, 74580, Note_on_c, 7, 84, 85
9, 74580, Note_on_c, 7, 75, 89
9, 74610, Note_on_c, 7, 75, 0
9, 74610, Note_on_c, 7, 84, 0
9, 74610, Note_on_c, 7, 82, 84
9, 74610, Note_on_c, 7, 74, 98
9, 74640, Note_on_c, 7, 74, 0
9, 74640, Note_on_c, 7, 82, 0
9, 74640, Note_on_c, 7, 58, 90
9, 74655, Note_on_c, 7, 58, 0
9, 74670, Note_on_c, 7, 80, 84
9, 74670, Note_on_c, 7, 75, 89
9, 74670, Note_on_c, 7, 72, 67
9, 74700, Note_on_c, 7, 72, 0
9, 74700, Note_on_c, 7, 75, 0
9, 74700, Note_on_c, 7, 80, 0
9, 74700, Note_on_c, 7, 79, 78
9, 74700, Note_on_c, 7, 74, 80
9, 74700, Note_on_c, 7, 71, 89
9, 74730, Note_on_c, 7, 71, 0
9, 74730, Note_on_c, 7, 74, 0
9, 74730, Note_on_c, 7, 79, 0
9, 74730, Note_on_c, 7, 80, 86
9, 74730, Note_on_c, 7, 75, 94
9, 74730, Note_on_c, 7, 72, 68
9, 74760, Note_on_c, 7, 72, 0
9, 74760, Note_on_c, 7, 75, 0
9, 74760, Note_on_c, 7, 80, 0
9, 74760, Note_on_c, 7, 79, 84
9, 74760, Note_on_c, 7, 74, 89
9, 74760, Note_on_c, 7, 71, 89
9, 74790, Note_on_c, 7, 71, 0
9, 74790, Note_on_c, 7, 74, 0
9, 74790, Note_on_c, 7, 79, 0
9, 74790, Note_on_c, 7, 80, 82
9, 74790, Note_on_c, 7, 75, 95
9, 74790, Note_on_c, 7, 72, 71
9, 74820, Note_on_c, 7, 72, 0
9, 74820, Note_on_c, 7, 75, 0
9, 74820, Note_on_c, 7, 80, 0
9, 74820, Note_on_c, 7, 82, 80
9, 74820, Note_on_c, 7, 77, 93
9, 74820, Note_on_c, 7, 74, 89
9, 74850, Note_on_c, 7, 74, 0
9, 74850, Note_on_c, 7, 77, 0
9, 74850, Note_on_c, 7, 82, 0
9, 74850, Note_on_c, 7, 72, 70
9, 74850, Note_on_c, 7, 75, 95
9, 74850, Note_on_c, 7, 80, 84
9, 74880, Note_on_c, 7, 80, 0
9, 74880, Note_on_c, 7, 75, 0
9, 74880, Note_on_c, 7, 72, 0
9, 74880, Note_on_c, 7, 58, 89
9, 74895, Note_on_c, 7, 58, 0
9, 74910, Note_on_c, 7, 79, 86
9, 74910, Note_on_c, 7, 74, 93
9, 74910, Note_on_c, 7, 70, 89
9, 74940, Note_on_c, 7, 70, 0
9, 74940, Note_on_c, 7, 74, 0
9, 74940, Note_on_c, 7, 79, 0
9, 74940, Note_on_c, 7, 78, 76
9, 74940, Note_on_c, 7, 72, 55
9, 74940, Note_on_c, 7, 69, 93
9, 74970, Note_on_c, 7, 69, 0
9, 74970, Note_on_c, 7, 72, 0
9, 74970, Note_on_c, 7, 78, 0
9, 74970, Note_on_c, 7, 79, 89
9, 74970, Note_on_c, 7, 74, 95
9, 74970, Note_on_c, 7, 70, 86
9, 75000, Note_on_c, 7, 70, 0
9, 75000, Note_on_c, 7, 74, 0
9, 75000, Note_on_c, 7, 79, 0
9, 75000, Note_on_c, 7, 78, 76
9, 75000, Note_on_c, 7, 72, 48
9, 75000, Note_on_c, 7, 69, 94
9, 75030, Note_on_c, 7, 69, 0
9, 75030, Note_on_c, 7, 72, 0
9, 75030, Note_on_c, 7, 78, 0
9, 75030, Note_on_c, 7, 79, 89
9, 75030, Note_on_c, 7, 74, 93
9, 75030, Note_on_c, 7, 70, 89
9, 75060, Note_on_c, 7, 70, 0
9, 75060, Note_on_c, 7, 74, 0
9, 75060, Note_on_c, 7, 79, 0
9, 75060, Note_on_c, 7, 80, 94
9, 75060, Note_on_c, 7, 75, 86
9, 75060, Note_on_c, 7, 72, 58
9, 75090, Note_on_c, 7, 72, 0
9, 75090, Note_on_c, 7, 75, 0
9, 75090, Note_on_c, 7, 80, 0
9, 75090, Note_on_c, 7, 79, 84
9, 75090, Note_on_c, 7, 74, 90
9, 75090, Note_on_c, 7, 70, 93
9, 75120, Note_on_c, 7, 70, 0
9, 75120, Note_on_c, 7, 74, 0
9, 75120, Note_on_c, 7, 79, 0
9, 75120, Note_on_c, 7, 58, 89
9, 75135, Note_on_c, 7, 58, 0
9, 75150, Note_on_c, 7, 77, 76
9, 75150, Note_on_c, 7, 72, 57
9, 75150, Note_on_c, 7, 68, 90
9, 75180, Note_on_c, 7, 68, 0
9, 75180, Note_on_c, 7, 72, 0
9, 75180, Note_on_c, 7, 77, 0
9, 75180, Note_on_c, 7, 76, 94
9, 75180, Note_on_c, 7, 71, 73
9, 75180, Note_on_c, 7, 67, 84
9, 75210, Note_on_c, 7, 67, 0
9, 75210, Note_on_c, 7, 71, 0
9, 75210, Note_on_c, 7, 76, 0
9, 75210, Note_on_c, 7, 77, 89
9, 75210, Note_on_c, 7, 72, 57
9, 75210, Note_on_c, 7, 68, 84
9, 75240, Note_on_c, 7, 68, 0
9, 75240, Note_on_c, 7, 72, 0
9, 75240, Note_on_c, 7, 77, 0
9, 75240, Note_on_c, 7, 76, 94
9, 75240, Note_on_c, 7, 71, 80
9, 75240, Note_on_c, 7, 67, 89
9, 75270, Note_on_c, 7, 67, 0
9, 75270, Note_on_c, 7, 71, 0
9, 75270, Note_on_c, 7, 76, 0
9, 75270, Note_on_c, 7, 77, 89
9, 75270, Note_on_c, 7, 72, 54
9, 75270, Note_on_c, 7, 68, 85
9, 75300, Note_on_c, 7, 68, 0
9, 75300, Note_on_c, 7, 72, 0
9, 75300, Note_on_c, 7, 77, 0
9, 75300, Note_on_c, 7, 79, 85
9, 75300, Note_on_c, 7, 74, 93
9, 75300, Note_on_c, 7, 70, 89
9, 75330, Note_on_c, 7, 70, 0
9, 75330, Note_on_c, 7, 74, 0
9, 75330, Note_on_c, 7, 79, 0
9, 75330, Note_on_c, 7, 68, 89
9, 75330, Note_on_c, 7, 72, 64
9, 75330, Note_on_c, 7, 77, 81
9, 75360, Note_on_c, 7, 77, 0
9, 75360, Note_on_c, 7, 72, 0
9, 75360, Note_on_c, 7, 68, 0
9, 75360, Note_on_c, 7, 58, 94
9, 75390, Note_on_c, 7, 58, 0
9, 75390, Note_on_c, 7, 75, 84
9, 75390, Note_on_c, 7, 70, 81
9, 75390, Note_on_c, 7, 67, 89
9, 75420, Note_on_c, 7, 67, 0
9, 75420, Note_on_c, 7, 70, 0
9, 75420, Note_on_c, 7, 75, 0
9, 75420, Note_on_c, 7, 77, 89
9, 75420, Note_on_c, 7, 72, 65
9, 75420, Note_on_c, 7, 68, 94
9, 75450, Note_on_c, 7, 68, 0
9, 75450, Note_on_c, 7, 72, 0
9, 75450, Note_on_c, 7, 77, 0
9, 75450, Note_on_c, 7, 75, 93
9, 75450, Note_on_c, 7, 70, 89
9, 75450, Note_on_c, 7, 67, 89
9, 75480, Note_on_c, 7, 67, 0
9, 75480, Note_on_c, 7, 70, 0
9, 75480, Note_on_c, 7, 75, 0
9, 75480, Note_on_c, 7, 46, 94
9, 75510, Note_on_c, 7, 46, 0
9, 75510, Note_on_c, 7, 74, 94
9, 75510, Note_on_c, 7, 68, 84
9, 75510, Note_on_c, 7, 65, 90
9, 75540, Note_on_c, 7, 65, 0
9, 75540, Note_on_c, 7, 68, 0
9, 75540, Note_on_c, 7, 74, 0
9, 75540, Note_on_c, 7, 75, 94
9, 75540, Note_on_c, 7, 70, 99
9, 75540, Note_on_c, 7, 67, 80
9, 75570, Note_on_c, 7, 67, 0
9, 75570, Note_on_c, 7, 70, 0
9, 75570, Note_on_c, 7, 75, 0
9, 75570, Note_on_c, 7, 74, 101
9, 75570, Note_on_c, 7, 68, 77
9, 75570, Note_on_c, 7, 65, 90
9, 75600, Note_on_c, 7, 65, 0
9, 75600, Note_on_c, 7, 68, 0
9, 75600, Note_on_c, 7, 74, 0
9, 75600, Note_on_c, 7, 58, 94
9, 75630, Note_on_c, 7, 58, 0
9, 75630, Note_on_c, 7, 72, 61
9, 75630, Note_on_c, 7, 67, 84
9, 75630, Note_on_c, 7, 63, 86
9, 75660, Note_on_c, 7, 63, 0
9, 75660, Note_on_c, 7, 67, 0
9, 75660, Note_on_c, 7, 72, 0
9, 75660, Note_on_c, 7, 74, 93
9, 75660, Note_on_c, 7, 68, 80
9, 75660, Note_on_c, 7, 65, 89
9, 75690, Note_on_c, 7, 65, 0
9, 75690, Note_on_c, 7, 68, 0
9, 75690, Note_on_c, 7, 74, 0
9, 75690, Note_on_c, 7, 72, 58
9, 75690, Note_on_c, 7, 67, 89
9, 75690, Note_on_c, 7, 63, 89
9, 75720, Note_on_c, 7, 63, 0
9, 75720, Note_on_c, 7, 67, 0
9, 75720, Note_on_c, 7, 72, 0
9, 75720, Note_on_c, 7, 46, 89
9, 75750, Note_on_c, 7, 46, 0
9, 75750, Note_on_c, 7, 70, 94
9, 75750, Note_on_c, 7, 65, 86
9, 75750, Note_on_c, 7, 62, 95
9, 75780, Note_on_c, 7, 62, 0
9, 75780, Note_on_c, 7, 65, 0
9, 75780, Note_on_c, 7, 70, 0
9, 75780, Note_on_c, 7, 72, 53
9, 75780, Note_on_c, 7, 67, 85
9, 75780, Note_on_c, 7, 63, 89
9, 75810, Note_on_c, 7, 63, 0
9, 75810, Note_on_c, 7, 67, 0
9, 75810, Note_on_c, 7, 72, 0
9, 75810, Note_on_c, 7, 62, 94
9, 75810, Note_on_c, 7, 65, 84
9, 75810, Note_on_c, 7, 70, 89
9, 75840, Note_on_c, 7, 70, 0
9, 75840, Note_on_c, 7, 65, 0
9, 75840, Note_on_c, 7, 62, 0
9, 75840, Note_on_c, 7, 46, 86
9, 75870, Note_on_c, 7, 46, 0
9, 75870, Note_on_c, 7, 68, 84
9, 75870, Note_on_c, 7, 63, 85
9, 75870, Note_on_c, 7, 60, 86
9, 75900, Note_on_c, 7, 60, 0
9, 75900, Note_on_c, 7, 63, 0
9, 75900, Note_on_c, 7, 68, 0
9, 75900, Note_on_c, 7, 70, 86
9, 75900, Note_on_c, 7, 65, 94
9, 75900, Note_on_c, 7, 62, 81
9, 75930, Note_on_c, 7, 62, 0
9, 75930, Note_on_c, 7, 65, 0
9, 75930, Note_on_c, 7, 70, 0
9, 75930, Note_on_c, 7, 68, 93
9, 75930, Note_on_c, 7, 63, 80
9, 75930, Note_on_c, 7, 60, 93
9, 75960, Note_on_c, 7, 60, 0
9, 75960, Note_on_c, 7, 63, 0
9, 75960, Note_on_c, 7, 68, 0
9, 75960, Note_on_c, 7, 46, 81
9, 75990, Note_on_c, 7, 46, 0
9, 75990, Note_on_c, 7, 67, 90
9, 75990, Note_on_c, 7, 62, 85
9, 75990, Note_on_c, 7, 58, 85
9, 76020, Note_on_c, 7, 58, 0
9, 76020, Note_on_c, 7, 62, 0
9, 76020, Note_on_c, 7, 67, 0
9, 76020, Note_on_c, 7, 68, 93
9, 76020, Note_on_c, 7, 63, 90
9, 76020, Note_on_c, 7, 60, 85
9, 76050, Note_on_c, 7, 60, 0
9, 76050, Note_on_c, 7, 63, 0
9, 76050, Note_on_c, 7, 68, 0
9, 76050, Note_on_c, 7, 67, 94
9, 76050, Note_on_c, 7, 62, 80
9, 76050, Note_on_c, 7, 58, 86
9, 76080, Note_on_c, 7, 58, 0
9, 76080, Note_on_c, 7, 62, 0
9, 76080, Note_on_c, 7, 67, 0
9, 76080, Note_on_c, 7, 46, 80
9, 76110, Note_on_c, 7, 46, 0
9, 76110, Note_on_c, 7, 65, 84
9, 76110, Note_on_c, 7, 60, 80
9, 76110, Note_on_c, 7, 56, 86
9, 76140, Note_on_c, 7, 56, 0
9, 76140, Note_on_c, 7, 60, 0
9, 76140, Note_on_c, 7, 65, 0
9, 76140, Note_on_c, 7, 67, 84
9, 76140, Note_on_c, 7, 62, 80
9, 76140, Note_on_c, 7, 58, 85
9, 76170, Note_on_c, 7, 58, 0
9, 76170, Note_on_c, 7, 62, 0
9, 76170, Note_on_c, 7, 67, 0
9, 76170, Note_on_c, 7, 65, 80
9, 76170, Note_on_c, 7, 60, 84
9, 76170, Note_on_c, 7, 56, 94
9, 76200, Note_on_c, 7, 56, 0
9, 76200, Note_on_c, 7, 60, 0
9, 76200, Note_on_c, 7, 65, 0
9, 76200, Note_on_c, 7, 46, 89
9, 76230, Note_on_c, 7, 46, 0
9, 76230, Note_on_c, 7, 63, 86
9, 76230, Note_on_c, 7, 58, 80
9, 76230, Note_on_c, 7, 55, 84
9, 76260, Note_on_c, 7, 55, 0
9, 76260, Note_on_c, 7, 58, 0
9, 76260, Note_on_c, 7, 63, 0
9, 76260, Note_on_c, 7, 65, 77
9, 76260, Note_on_c, 7, 60, 84
9, 76260, Note_on_c, 7, 56, 89
9, 76290, Note_on_c, 7, 56, 0
9, 76290, Note_on_c, 7, 60, 0
9, 76290, Note_on_c, 7, 65, 0
9, 76290, Note_on_c, 7, 55, 80
9, 76290, Note_on_c, 7, 58, 85
9, 76290, Note_on_c, 7, 63, 84
9, 76320, Note_on_c, 7, 63, 0
9, 76320, Note_on_c, 7, 58, 0
9, 76320, Note_on_c, 7, 55, 0
9, 76320, Note_on_c, 7, 62, 81
9, 76320, Note_on_c, 7, 56, 82
9, 76320, Note_on_c, 7, 53, 84
9, 76320, Note_on_c, 7, 46, 89
9, 76360, Note_on_c, 7, 56, 0
9, 76360, Note_on_c, 7, 62, 0
9, 76360, Note_on_c, 7, 65, 90
9, 76400, Note_on_c, 7, 65, 0
9, 76400, Note_on_c, 7, 63, 84
9, 76440, Note_on_c, 7, 63, 0
9, 76440, Note_on_c, 7, 53, 0
9, 76440, Note_on_c, 7, 46, 0
9, 76440, Note_on_c, 7, 62, 80
9, 76480, Note_on_c, 7, 62, 0
9, 76480, Note_on_c, 7, 63, 85
9, 76520, Note_on_c, 7, 63, 0
9, 76520, Note_on_c, 7, 64, 85
9, 76560, Note_on_c, 7, 64, 0
9, 76560, Note_on_c, 7, 65, 90
9, 76600, Note_on_c, 7, 65, 0
9, 76600, Note_on_c, 7, 66, 89
9, 76640, Note_on_c, 7, 66, 0
9, 76640, Note_on_c, 7, 67, 76
9, 76680, Note_on_c, 7, 67, 0
9, 76680, Note_on_c, 7, 68, 84
9, 76720, Note_on_c, 7, 68, 0
9, 76720, Note_on_c, 7, 69, 76
9, 76760, Note_on_c, 7, 69, 0
9, 76760, Note_on_c, 7, 70, 95
9, 76800, Note_on_c, 7, 70, 0
9, 76800, Note_on_c, 7, 71, 81
9, 76840, Note_on_c, 7, 71, 0
9, 76840, Note_on_c, 7, 72, 72
9, 76880, Note_on_c, 7, 72, 0
9, 76880, Note_on_c, 7, 73, 85
9, 76920, Note_on_c, 7, 73, 0
9, 76920, Note_on_c, 7, 74, 77
9, 76960, Note_on_c, 7, 74, 0
9, 76960, Note_on_c, 7, 75, 95
9, 77000, Note_on_c, 7, 75, 0
9, 77000, Note_on_c, 7, 76, 80
9, 77040, Note_on_c, 7, 76, 0
9, 77040, Note_on_c, 7, 77, 90
9, 77080, Note_on_c, 7, 77, 0
9, 77080, Note_on_c, 7, 78, 81
9, 77120, Note_on_c, 7, 78, 0
9, 77120, Note_on_c, 7, 79, 80
9, 77160, Note_on_c, 7, 79, 0
9, 77160, Note_on_c, 7, 80, 93
9, 77190, Note_on_c, 7, 80, 0
9, 77190, Note_on_c, 7, 81, 99
9, 77220, Note_on_c, 7, 81, 0
9, 77220, Note_on_c, 7, 82, 89
9, 77250, Note_on_c, 7, 82, 0
9, 77250, Note_on_c, 7, 83, 99
9, 77280, Note_on_c, 7, 83, 0
9, 77280, Note_on_c, 7, 86, 89
9, 77340, Note_on_c, 7, 86, 0
9, 77340, Note_on_c, 7, 84, 95
9, 77400, Note_on_c, 7, 84, 0
9, 77400, Note_on_c, 7, 82, 89
9, 77430, Note_on_c, 7, 82, 0
9, 77460, Note_on_c, 7, 80, 95
9, 77490, Note_on_c, 7, 80, 0
9, 77520, Note_on_c, 7, 79, 89
9, 77550, Note_on_c, 7, 79, 0
9, 77580, Note_on_c, 7, 77, 99
9, 77610, Note_on_c, 7, 77, 0
9, 77640, Note_on_c, 7, 75, 99
9, 77670, Note_on_c, 7, 75, 0
9, 77700, Note_on_c, 7, 74, 107
9, 77730, Note_on_c, 7, 74, 0
9, 77760, Note_on_c, 7, 72, 76
9, 77790, Note_on_c, 7, 72, 0
9, 77820, Note_on_c, 7, 70, 94
9, 77850, Note_on_c, 7, 70, 0
9, 77880, Note_on_c, 7, 69, 101
9, 77910, Note_on_c, 7, 69, 0
9, 77940, Note_on_c, 7, 70, 95
9, 77970, Note_on_c, 7, 70, 0
9, 78000, Note_on_c, 7, 72, 77
9, 78030, Note_on_c, 7, 72, 0
9, 78060, Note_on_c, 7, 74, 104
9, 78090, Note_on_c, 7, 74, 0
9, 78120, Note_on_c, 7, 75, 99
9, 78150, Note_on_c, 7, 75, 0
9, 78180, Note_on_c, 7, 77, 95
9, 78210, Note_on_c, 7, 77, 0
9, 78240, Note_on_c, 7, 79, 94
9, 78240, Note_on_c, 7, 51, 82
9, 78300, Note_on_c, 7, 51, 0
9, 78300, Note_on_c, 7, 58, 72
9, 78360, Note_on_c, 7, 58, 0
9, 78360, Note_on_c, 7, 63, 66
9, 78420, Note_on_c, 7, 63, 0
9, 78420, Note_on_c, 7, 58, 74
9, 78480, Note_on_c, 7, 58, 0
9, 78480, Note_on_c, 7, 79, 0
9, 78480, Note_on_c, 7, 77, 81
9, 78480, Note_on_c, 7, 62, 73
9, 78540, Note_on_c, 7, 62, 0
9, 78540, Note_on_c, 7, 77, 0
9, 78540, Note_on_c, 7, 79, 93
9, 78540, Note_on_c, 7, 58, 68
9, 78600, Note_on_c, 7, 58, 0
9, 78600, Note_on_c, 7, 79, 0
9, 78600, Note_on_c, 7, 80, 90
9, 78600, Note_on_c, 7, 56, 74
9, 78660, Note_on_c, 7, 56, 0
9, 78660, Note_on_c, 7, 80, 0
9, 78660, Note_on_c, 7, 58, 74
9, 78660, Note_on_c, 7, 77, 93
9, 78720, Note_on_c, 7, 77, 0
9, 78720, Note_on_c, 7, 58, 0
9, 78720, Note_on_c, 7, 75, 94
9, 78720, Note_on_c, 7, 55, 74
9, 78780, Note_on_c, 7, 55, 0
9, 78780, Note_on_c, 7, 58, 74
9, 78840, Note_on_c, 7, 58, 0
9, 78840, Note_on_c, 7, 54, 68
9, 78900, Note_on_c, 7, 54, 0
9, 78900, Note_on_c, 7, 58, 72
9, 78960, Note_on_c, 7, 58, 0
9, 78960, Note_on_c, 7, 75, 0
9, 78960, Note_on_c, 7, 70, 90
9, 78960, Note_on_c, 7, 55, 68
9, 79020, Note_on_c, 7, 55, 0
9, 79020, Note_on_c, 7, 58, 72
9, 79080, Note_on_c, 7, 58, 0
9, 79080, Note_on_c, 7, 51, 85
9, 79140, Note_on_c, 7, 51, 0
9, 79140, Note_on_c, 7, 70, 0
9, 79140, Note_on_c, 7, 58, 71
9, 79140, Note_on_c, 7, 75, 94
9, 79200, Note_on_c, 7, 75, 0
9, 79200, Note_on_c, 7, 58, 0
9, 79200, Note_on_c, 7, 77, 93
9, 79200, Note_on_c, 7, 50, 93
9, 79260, Note_on_c, 7, 50, 0
9, 79260, Note_on_c, 7, 58, 65
9, 79320, Note_on_c, 7, 58, 0
9, 79320, Note_on_c, 7, 77, 0
9, 79320, Note_on_c, 7, 77, 67
9, 79320, Note_on_c, 7, 65, 74
9, 79320, Note_on_c, 7, 49, 81
9, 79380, Note_on_c, 7, 49, 0
9, 79380, Note_on_c, 7, 58, 54
9, 79410, Note_on_c, 7, 65, 0
9, 79410, Note_on_c, 7, 77, 0
9, 79440, Note_on_c, 7, 58, 0
9, 79440, Note_on_c, 7, 77, 70
9, 79440, Note_on_c, 7, 65, 68
9, 79440, Note_on_c, 7, 50, 86
9, 79500, Note_on_c, 7, 50, 0
9, 79500, Note_on_c, 7, 58, 73
9, 79530, Note_on_c, 7, 65, 0
9, 79530, Note_on_c, 7, 77, 0
9, 79560, Note_on_c, 7, 58, 0
9, 79560, Note_on_c, 7, 78, 73
9, 79560, Note_on_c, 7, 66, 85
9, 79560, Note_on_c, 7, 46, 77
9, 79620, Note_on_c, 7, 46, 0
9, 79620, Note_on_c, 7, 58, 73
9, 79650, Note_on_c, 7, 66, 0
9, 79650, Note_on_c, 7, 78, 0
9, 79680, Note_on_c, 7, 58, 0
9, 79680, Note_on_c, 7, 78, 69
9, 79680, Note_on_c, 7, 66, 77
9, 79680, Note_on_c, 7, 51, 84
9, 79740, Note_on_c, 7, 51, 0
9, 79740, Note_on_c, 7, 58, 89
9, 79800, Note_on_c, 7, 58, 0
9, 79800, Note_on_c, 7, 62, 76
9, 79860, Note_on_c, 7, 62, 0
9, 79860, Note_on_c, 7, 58, 89
9, 79920, Note_on_c, 7, 58, 0
9, 79920, Note_on_c, 7, 66, 0
9, 79920, Note_on_c, 7, 78, 0
9, 79920, Note_on_c, 7, 79, 63
9, 79920, Note_on_c, 7, 67, 67
9, 79920, Note_on_c, 7, 63, 80
9, 79950, Note_on_c, 7, 63, 0
9, 79980, Note_on_c, 7, 58, 76
9, 80010, Note_on_c, 7, 58, 0
9, 80040, Note_on_c, 7, 67, 0
9, 80040, Note_on_c, 7, 79, 0
9, 80040, Note_on_c, 7, 75, 94
9, 80040, Note_on_c, 7, 55, 86
9, 80070, Note_on_c, 7, 55, 0
9, 80100, Note_on_c, 7, 75, 0
9, 80100, Note_on_c, 7, 51, 84
9, 80130, Note_on_c, 7, 51, 0
9, 80160, Note_on_c, 7, 80, 112
9, 80160, Note_on_c, 7, 75, 98
9, 80160, Note_on_c, 7, 68, 89
9, 80160, Note_on_c, 7, 48, 80
9, 80190, Note_on_c, 7, 48, 0
9, 80220, Note_on_c, 7, 51, 89
9, 80250, Note_on_c, 7, 51, 0
9, 80280, Note_on_c, 7, 56, 84
9, 80310, Note_on_c, 7, 56, 0
9, 80340, Note_on_c, 7, 60, 76
9, 80370, Note_on_c, 7, 60, 0
9, 80400, Note_on_c, 7, 68, 0
9, 80400, Note_on_c, 7, 75, 0
9, 80400, Note_on_c, 7, 80, 0
9, 80400, Note_on_c, 7, 79, 76
9, 80400, Note_on_c, 7, 75, 80
9, 80400, Note_on_c, 7, 67, 85
9, 80400, Note_on_c, 7, 58, 84
9, 80430, Note_on_c, 7, 58, 0
9, 80460, Note_on_c, 7, 63, 68
9, 80490, Note_on_c, 7, 63, 0
9, 80520, Note_on_c, 7, 67, 0
9, 80520, Note_on_c, 7, 75, 0
9, 80520, Note_on_c, 7, 79, 0
9, 80520, Note_on_c, 7, 75, 94
9, 80520, Note_on_c, 7, 67, 55
9, 80550, Note_on_c, 7, 67, 0
9, 80580, Note_on_c, 7, 75, 0
9, 80580, Note_on_c, 7, 70, 77
9, 80610, Note_on_c, 7, 70, 0
9, 80640, Note_on_c, 7, 84, 104
9, 80640, Note_on_c, 7, 75, 94
9, 80640, Note_on_c, 7, 72, 63
9, 80640, Note_on_c, 7, 68, 99
9, 80670, Note_on_c, 7, 68, 0
9, 80700, Note_on_c, 7, 63, 76
9, 80730, Note_on_c, 7, 63, 0
9, 80760, Note_on_c, 7, 60, 80
9, 80790, Note_on_c, 7, 60, 0
9, 80820, Note_on_c, 7, 56, 74
9, 80850, Note_on_c, 7, 56, 0
9, 80880, Note_on_c, 7, 72, 0
9, 80880, Note_on_c, 7, 75, 0
9, 80880, Note_on_c, 7, 84, 0
9, 80880, Note_on_c, 7, 82, 60
9, 80880, Note_on_c, 7, 75, 77
9, 80880, Note_on_c, 7, 70, 68
9, 80880, Note_on_c, 7, 55, 86
9, 80910, Note_on_c, 7, 55, 0
9, 80940, Note_on_c, 7, 82, 0
9, 80940, Note_on_c, 7, 75, 0
9, 80940, Note_on_c, 7, 70, 0
9, 80940, Note_on_c, 7, 67, 70
9, 80970, Note_on_c, 7, 67, 0
9, 81000, Note_on_c, 7, 76, 90
9, 81000, Note_on_c, 7, 82, 65
9, 81000, Note_on_c, 7, 48, 112
9, 81030, Note_on_c, 7, 48, 0
9, 81060, Note_on_c, 7, 60, 89
9, 81090, Note_on_c, 7, 60, 0
9, 81120, Note_on_c, 7, 82, 0
9, 81120, Note_on_c, 7, 76, 0
9, 81120, Note_on_c, 7, 81, 74
9, 81120, Note_on_c, 7, 77, 80
9, 81120, Note_on_c, 7, 41, 110
9, 81150, Note_on_c, 7, 41, 0
9, 81180, Note_on_c, 7, 53, 73
9, 81210, Note_on_c, 7, 53, 0
9, 81240, Note_on_c, 7, 77, 0
9, 81240, Note_on_c, 7, 81, 0
9, 81240, Note_on_c, 7, 80, 77
9, 81240, Note_on_c, 7, 74, 93
9, 81240, Note_on_c, 7, 46, 115
9, 81270, Note_on_c, 7, 46, 0
9, 81300, Note_on_c, 7, 58, 71
9, 81330, Note_on_c, 7, 58, 0
9, 81360, Note_on_c, 7, 74, 0
9, 81360, Note_on_c, 7, 80, 0
9, 81360, Note_on_c, 7, 79, 68
9, 81360, Note_on_c, 7, 75, 84
9, 81360, Note_on_c, 7, 51, 119
9, 81390, Note_on_c, 7, 51, 0
9, 81420, Note_on_c, 7, 63, 72
9, 81450, Note_on_c, 7, 63, 0
9, 81480, Note_on_c, 7, 75, 0
9, 81480, Note_on_c, 7, 79, 0
9, 81480, Note_on_c, 7, 72, 50
9, 81480, Note_on_c, 7, 84, 68
9, 81480, Note_on_c, 7, 56, 112
9, 81510, Note_on_c, 7, 56, 0
9, 81540, Note_on_c, 7, 68, 68
9, 81570, Note_on_c, 7, 68, 0
9, 81600, Note_on_c, 7, 84, 0
9, 81600, Note_on_c, 7, 72, 0
9, 81600, Note_on_c, 7, 75, 80
9, 81600, Note_on_c, 7, 67, 74
9, 81600, Note_on_c, 7, 58, 65
9, 81660, Note_on_c, 7, 67, 0
9, 81660, Note_on_c, 7, 66, 81
9, 81720, Note_on_c, 7, 66, 0
9, 81720, Note_on_c, 7, 67, 74
9, 81780, Note_on_c, 7, 67, 0
9, 81780, Note_on_c, 7, 69, 73
9, 81840, Note_on_c, 7, 69, 0
9, 81840, Note_on_c, 7, 58, 0
9, 81840, Note_on_c, 7, 75, 0
9, 81840, Note_on_c, 7, 74, 77
9, 81840, Note_on_c, 7, 70, 81
9, 81840, Note_on_c, 7, 58, 67
9, 81900, Note_on_c, 7, 58, 0
9, 81900, Note_on_c, 7, 70, 0
9, 81900, Note_on_c, 7, 74, 0
9, 81900, Note_on_c, 7, 84, 66
9, 81900, Note_on_c, 7, 80, 70
9, 81900, Note_on_c, 7, 72, 71
9, 81900, Note_on_c, 7, 68, 76
9, 81960, Note_on_c, 7, 68, 0
9, 81960, Note_on_c, 7, 84, 0
9, 81960, Note_on_c, 7, 80, 0
9, 81960, Note_on_c, 7, 72, 0
9, 81960, Note_on_c, 7, 82, 80
9, 81960, Note_on_c, 7, 79, 72
9, 81960, Note_on_c, 7, 70, 77
9, 81960, Note_on_c, 7, 67, 74
9, 82020, Note_on_c, 7, 67, 0
9, 82020, Note_on_c, 7, 82, 0
9, 82020, Note_on_c, 7, 79, 0
9, 82020, Note_on_c, 7, 70, 0
9, 82020, Note_on_c, 7, 65, 74
9, 82020, Note_on_c, 7, 68, 76
9, 82020, Note_on_c, 7, 77, 58
9, 82020, Note_on_c, 7, 80, 77
9, 82080, Note_on_c, 7, 80, 0
9, 82080, Note_on_c, 7, 65, 0
9, 82080, Note_on_c, 7, 68, 0
9, 82080, Note_on_c, 7, 77, 0
9, 82080, Note_on_c, 7, 79, 80
9, 82080, Note_on_c, 7, 75, 86
9, 82080, Note_on_c, 7, 67, 76
9, 82080, Note_on_c, 7, 63, 76
9, 82200, Note_on_c, 7, 63, 0
9, 82200, Note_on_c, 7, 79, 0
9, 82200, Note_on_c, 7, 75, 0
9, 82200, Note_on_c, 7, 67, 0
9, 85860, Note_on_c, 7, 75, 93
9, 85920, Note_on_c, 7, 75, 0
9, 85920, Note_on_c, 7, 80, 80
9, 85920, Note_on_c, 7, 75, 85
9, 85920, Note_on_c, 7, 72, 53
9, 86160, Note_on_c, 7, 72, 0
9, 86160, Note_on_c, 7, 75, 0
9, 86160, Note_on_c, 7, 80, 0
9, 86160, Note_on_c, 7, 70, 89
9, 86160, Note_on_c, 7, 75, 86
9, 86160, Note_on_c, 7, 79, 89
9, 86400, Note_on_c, 7, 79, 0
9, 86400, Note_on_c, 7, 75, 0
9, 86400, Note_on_c, 7, 70, 0
9, 86400, Note_on_c, 7, 84, 82
9, 86400, Note_on_c, 7, 75, 84
9, 86400, Note_on_c, 7, 72, 72
9, 86400, Note_on_c, 7, 68, 82
9, 86640, Note_on_c, 7, 68, 0
9, 86640, Note_on_c, 7, 84, 0
9, 86640, Note_on_c, 7, 75, 0
9, 86640, Note_on_c, 7, 72, 0
9, 86640, Note_on_c, 7, 66, 84
9, 86640, Note_on_c, 7, 70, 90
9, 86640, Note_on_c, 7, 76, 81
9, 86640, Note_on_c, 7, 82, 84
9, 86880, Note_on_c, 7, 82, 0
9, 86880, Note_on_c, 7, 66, 0
9, 86880, Note_on_c, 7, 70, 0
9, 86880, Note_on_c, 7, 76, 0
9, 86880, Note_on_c, 7, 81, 84
9, 86880, Note_on_c, 7, 75, 84
9, 86880, Note_on_c, 7, 72, 77
9, 86880, Note_on_c, 7, 65, 98
9, 86910, Note_on_c, 7, 81, 0
9, 86910, Note_on_c, 7, 82, 81
9, 86940, Note_on_c, 7, 82, 0
9, 86940, Note_on_c, 7, 84, 86
9, 86970, Note_on_c, 7, 84, 0
9, 86970, Note_on_c, 7, 82, 85
9, 87000, Note_on_c, 7, 82, 0
9, 87000, Note_on_c, 7, 65, 0
9, 87000, Note_on_c, 7, 72, 0
9, 87000, Note_on_c, 7, 75, 0
9, 87000, Note_on_c, 7, 81, 82
9, 87030, Note_on_c, 7, 81, 0
9, 87030, Note_on_c, 7, 82, 84
9, 87060, Note_on_c, 7, 82, 0
9, 87060, Note_on_c, 7, 84, 90
9, 87090, Note_on_c, 7, 84, 0
9, 87090, Note_on_c, 7, 86, 89
9, 87120, Note_on_c, 7, 86, 0
9, 87120, Note_on_c, 7, 87, 89
9, 87150, Note_on_c, 7, 87, 0
9, 87150, Note_on_c, 7, 86, 94
9, 87180, Note_on_c, 7, 86, 0
9, 87180, Note_on_c, 7, 84, 89
9, 87210, Note_on_c, 7, 84, 0
9, 87210, Note_on_c, 7, 82, 86
9, 87240, Note_on_c, 7, 82, 0
9, 87240, Note_on_c, 7, 81, 89
9, 87270, Note_on_c, 7, 81, 0
9, 87270, Note_on_c, 7, 79, 86
9, 87300, Note_on_c, 7, 79, 0
9, 87300, Note_on_c, 7, 77, 89
9, 87330, Note_on_c, 7, 77, 0
9, 87330, Note_on_c, 7, 75, 95
9, 87360, Note_on_c, 7, 75, 0
9, 87360, Note_on_c, 7, 74, 89
9, 87390, Note_on_c, 7, 74, 0
9, 87390, Note_on_c, 7, 75, 95
9, 87420, Note_on_c, 7, 75, 0
9, 87420, Note_on_c, 7, 77, 81
9, 87420, Note_on_c, 7, 62, 85
9, 87450, Note_on_c, 7, 62, 0
9, 87450, Note_on_c, 7, 77, 0
9, 87450, Note_on_c, 7, 79, 93
9, 87450, Note_on_c, 7, 63, 85
9, 87480, Note_on_c, 7, 63, 0
9, 87480, Note_on_c, 7, 79, 0
9, 87480, Note_on_c, 7, 80, 90
9, 87480, Note_on_c, 7, 65, 94
9, 87510, Note_on_c, 7, 65, 0
9, 87510, Note_on_c, 7, 80, 0
9, 87510, Note_on_c, 7, 82, 89
9, 87510, Note_on_c, 7, 67, 78
9, 87540, Note_on_c, 7, 67, 0
9, 87540, Note_on_c, 7, 82, 0
9, 87540, Note_on_c, 7, 84, 85
9, 87540, Note_on_c, 7, 68, 90
9, 87570, Note_on_c, 7, 68, 0
9, 87570, Note_on_c, 7, 84, 0
9, 87570, Note_on_c, 7, 82, 93
9, 87570, Note_on_c, 7, 67, 94
9, 87600, Note_on_c, 7, 67, 0
9, 87600, Note_on_c, 7, 82, 0
9, 87600, Note_on_c, 7, 80, 93
9, 87600, Note_on_c, 7, 65, 86
9, 87630, Note_on_c, 7, 65, 0
9, 87630, Note_on_c, 7, 80, 0
9, 87630, Note_on_c, 7, 79, 94
9, 87630, Note_on_c, 7, 63, 89
9, 87660, Note_on_c, 7, 63, 0
9, 87660, Note_on_c, 7, 79, 0
9, 87660, Note_on_c, 7, 77, 80
9, 87660, Note_on_c, 7, 62, 94
9, 87690, Note_on_c, 7, 62, 0
9, 87690, Note_on_c, 7, 77, 0
9, 87690, Note_on_c, 7, 75, 95
9, 87690, Note_on_c, 7, 60, 94
9, 87720, Note_on_c, 7, 60, 0
9, 87720, Note_on_c, 7, 75, 0
9, 87720, Note_on_c, 7, 74, 99
9, 87720, Note_on_c, 7, 58, 89
9, 87750, Note_on_c, 7, 58, 0
9, 87750, Note_on_c, 7, 74, 0
9, 87750, Note_on_c, 7, 72, 58
9, 87750, Note_on_c, 7, 56, 93
9, 87780, Note_on_c, 7, 56, 0
9, 87780, Note_on_c, 7, 72, 0
9, 87780, Note_on_c, 7, 70, 94
9, 87780, Note_on_c, 7, 55, 94
9, 87810, Note_on_c, 7, 55, 0
9, 87810, Note_on_c, 7, 70, 0
9, 87810, Note_on_c, 7, 53, 89
9, 87810, Note_on_c, 7, 68, 86
9, 87840, Note_on_c, 7, 68, 0
9, 87840, Note_on_c, 7, 53, 0
9, 87840, Note_on_c, 7, 68, 99
9, 87840, Note_on_c, 7, 51, 105
9, 87860, Note_on_c, 7, 68, 0
9, 87860, Note_on_c, 7, 70, 90
9, 87880, Note_on_c, 7, 70, 0
9, 87880, Note_on_c, 7, 68, 90
9, 87900, Note_on_c, 7, 68, 0
9, 87900, Note_on_c, 7, 67, 93
9, 87960, Note_on_c, 7, 67, 0
9, 87960, Note_on_c, 7, 51, 0
9, 87960, Note_on_c, 7, 77, 84
9, 87960, Note_on_c, 7, 63, 68
9, 87960, Note_on_c, 7, 60, 66
9, 87980, Note_on_c, 7, 77, 0
9, 87980, Note_on_c, 7, 79, 77
9, 88000, Note_on_c, 7, 79, 0
9, 88000, Note_on_c, 7, 77, 82
9, 88020, Note_on_c, 7, 77, 0
9, 88020, Note_on_c, 7, 75, 93
9, 88080, Note_on_c, 7, 75, 0
9, 88080, Note_on_c, 7, 60, 0
9, 88080, Note_on_c, 7, 63, 0
9, 88080, Note_on_c, 7, 74, 94
9, 88100, Note_on_c, 7, 74, 0
9, 88100, Note_on_c, 7, 75, 89
9, 88120, Note_on_c, 7, 75, 0
9, 88120, Note_on_c, 7, 74, 99
9, 88140, Note_on_c, 7, 74, 0
9, 88140, Note_on_c, 7, 72, 68
9, 88200, Note_on_c, 7, 72, 0
9, 88200, Note_on_c, 7, 56, 45
9, 88200, Note_on_c, 7, 60, 80
9, 88200, Note_on_c, 7, 65, 62
9, 88200, Note_on_c, 7, 70, 84
9, 88220, Note_on_c, 7, 70, 0
9, 88220, Note_on_c, 7, 72, 71
9, 88240, Note_on_c, 7, 72, 0
9, 88240, Note_on_c, 7, 70, 89
9, 88260, Note_on_c, 7, 70, 0
9, 88260, Note_on_c, 7, 68, 89
9, 88320, Note_on_c, 7, 68, 0
9, 88320, Note_on_c, 7, 65, 0
9, 88320, Note_on_c, 7, 60, 0
9, 88320, Note_on_c, 7, 56, 0
9, 88320, Note_on_c, 7, 68, 90
9, 88340, Note_on_c, 7, 68, 0
9, 88340, Note_on_c, 7, 70, 89
9, 88360, Note_on_c, 7, 70, 0
9, 88360, Note_on_c, 7, 68, 93
9, 88380, Note_on_c, 7, 68, 0
9, 88380, Note_on_c, 7, 67, 82
9, 88440, Note_on_c, 7, 67, 0
9, 88440, Note_on_c, 7, 72, 82
9, 88440, Note_on_c, 7, 63, 67
9, 88440, Note_on_c, 7, 58, 73
9, 88460, Note_on_c, 7, 72, 0
9, 88460, Note_on_c, 7, 74, 82
9, 88480, Note_on_c, 7, 74, 0
9, 88480, Note_on_c, 7, 72, 73
9, 88500, Note_on_c, 7, 72, 0
9, 88500, Note_on_c, 7, 70, 82
9, 88560, Note_on_c, 7, 70, 0
9, 88560, Note_on_c, 7, 58, 0
9, 88560, Note_on_c, 7, 63, 0
9, 88560, Note_on_c, 7, 70, 89
9, 88580, Note_on_c, 7, 70, 0
9, 88580, Note_on_c, 7, 72, 77
9, 88600, Note_on_c, 7, 72, 0
9, 88600, Note_on_c, 7, 70, 86
9, 88620, Note_on_c, 7, 70, 0
9, 88620, Note_on_c, 7, 68, 89
9, 88680, Note_on_c, 7, 68, 0
9, 88680, Note_on_c, 7, 46, 73
9, 88680, Note_on_c, 7, 50, 89
9, 88680, Note_on_c, 7, 56, 65
9, 88680, Note_on_c, 7, 67, 94
9, 88700, Note_on_c, 7, 67, 0
9, 88700, Note_on_c, 7, 68, 89
9, 88720, Note_on_c, 7, 68, 0
9, 88720, Note_on_c, 7, 67, 95
9, 88740, Note_on_c, 7, 67, 0
9, 88740, Note_on_c, 7, 65, 99
9, 88800, Note_on_c, 7, 65, 0
9, 88800, Note_on_c, 7, 56, 0
9, 88800, Note_on_c, 7, 50, 0
9, 88800, Note_on_c, 7, 46, 0
9, 88800, Note_on_c, 7, 63, 94
9, 88800, Note_on_c, 7, 55, 68
9, 88800, Note_on_c, 7, 51, 73
9, 88920, Note_on_c, 7, 51, 0
9, 88920, Note_on_c, 7, 55, 0
9, 88920, Note_on_c, 7, 63, 0
9, 89760, Note_on_c, 7, 32, 90
9, 89800, Note_on_c, 7, 32, 0
9, 89800, Note_on_c, 7, 36, 86
9, 89840, Note_on_c, 7, 36, 0
9, 89840, Note_on_c, 7, 41, 76
9, 89880, Note_on_c, 7, 41, 0
9, 89880, Note_on_c, 7, 44, 85
9, 89920, Note_on_c, 7, 44, 0
9, 89920, Note_on_c, 7, 48, 86
9, 89960, Note_on_c, 7, 48, 0
9, 89960, Note_on_c, 7, 53, 80
9, 90000, Note_on_c, 7, 53, 0
9, 90000, Note_on_c, 7, 56, 86
9, 90020, Note_on_c, 7, 56, 0
9, 90020, Note_on_c, 7, 60, 93
9, 90040, Note_on_c, 7, 60, 0
9, 90040, Note_on_c, 7, 65, 76
9, 90060, Note_on_c, 7, 65, 0
9, 90060, Note_on_c, 7, 68, 89
9, 90075, Note_on_c, 7, 68, 0
9, 90075, Note_on_c, 7, 72, 82
9, 90090, Note_on_c, 7, 72, 0
9, 90090, Note_on_c, 7, 77, 84
9, 90105, Note_on_c, 7, 77, 0
9, 90105, Note_on_c, 7, 80, 81
9, 90120, Note_on_c, 7, 80, 0
9, 90120, Note_on_c, 7, 56, 73
9, 90120, Note_on_c, 7, 60, 89
9, 90120, Note_on_c, 7, 65, 78
9, 90120, Note_on_c, 7, 84, 76
9, 90140, Note_on_c, 7, 84, 0
9, 90160, Note_on_c, 7, 80, 82
9, 90180, Note_on_c, 7, 80, 0
9, 90200, Note_on_c, 7, 77, 78
9, 90220, Note_on_c, 7, 77, 0
9, 90240, Note_on_c, 7, 56, 0
9, 90240, Note_on_c, 7, 60, 0
9, 90240, Note_on_c, 7, 65, 0
9, 90240, Note_on_c, 7, 77, 89
9, 90240, Note_on_c, 7, 67, 72
9, 90240, Note_on_c, 7, 63, 72
9, 90240, Note_on_c, 7, 58, 73
9, 90260, Note_on_c, 7, 77, 0
9, 90260, Note_on_c, 7, 79, 84
9, 90280, Note_on_c, 7, 79, 0
9, 90280, Note_on_c, 7, 77, 84
9, 90300, Note_on_c, 7, 77, 0
9, 90300, Note_on_c, 7, 75, 93
9, 90360, Note_on_c, 7, 75, 0
9, 90360, Note_on_c, 7, 58, 0
9, 90360, Note_on_c, 7, 63, 0
9, 90360, Note_on_c, 7, 67, 0
9, 90360, Note_on_c, 7, 75, 84
9, 90360, Note_on_c, 7, 67, 62
9, 90360, Note_on_c, 7, 63, 76
9, 90360, Note_on_c, 7, 58, 69
9, 90390, Note_on_c, 7, 75, 0
9, 90420, Note_on_c, 7, 75, 90
9, 90450, Note_on_c, 7, 75, 0
9, 90480, Note_on_c, 7, 58, 0
9, 90480, Note_on_c, 7, 63, 0
9, 90480, Note_on_c, 7, 67, 0
9, 90480, Note_on_c, 7, 75, 89
9, 90500, Note_on_c, 7, 75, 0
9, 90500, Note_on_c, 7, 77, 84
9, 90520, Note_on_c, 7, 77, 0
9, 90520, Note_on_c, 7, 75, 95
9, 90540, Note_on_c, 7, 75, 0
9, 90540, Note_on_c, 7, 74, 95
9, 90600, Note_on_c, 7, 74, 0
9, 90600, Note_on_c, 7, 58, 82
9, 90600, Note_on_c, 7, 65, 90
9, 90600, Note_on_c, 7, 68, 73
9, 90600, Note_on_c, 7, 74, 95
9, 90630, Note_on_c, 7, 74, 0
9, 90660, Note_on_c, 7, 74, 99
9, 90690, Note_on_c, 7, 74, 0
9, 90720, Note_on_c, 7, 68, 0
9, 90720, Note_on_c, 7, 65, 0
9, 90720, Note_on_c, 7, 58, 0
9, 90720, Note_on_c, 7, 75, 90
9, 90720, Note_on_c, 7, 67, 66
9, 90720, Note_on_c, 7, 63, 66
9, 90780, Note_on_c, 7, 63, 0
9, 90780, Note_on_c, 7, 67, 0
9, 90780, Note_on_c, 7, 75, 0
9, 90840, Note_on_c, 7, 82, 73
9, 90840, Note_on_c, 7, 75, 86
9, 90840, Note_on_c, 7, 70, 85
9, 90840, Note_on_c, 7, 66, 85
9, 90930, Note_on_c, 7, 66, 0
9, 90930, Note_on_c, 7, 82, 0
9, 90930, Note_on_c, 7, 75, 0
9, 90930, Note_on_c, 7, 70, 0
9, 90960, Note_on_c, 7, 82, 76
9, 90960, Note_on_c, 7, 75, 94
9, 90960, Note_on_c, 7, 70, 84
9, 90960, Note_on_c, 7, 66, 78
9, 91050, Note_on_c, 7, 66, 0
9, 91050, Note_on_c, 7, 82, 0
9, 91050, Note_on_c, 7, 75, 0
9, 91050, Note_on_c, 7, 70, 0
9, 91080, Note_on_c, 7, 82, 76
9, 91080, Note_on_c, 7, 75, 90
9, 91080, Note_on_c, 7, 70, 80
9, 91080, Note_on_c, 7, 66, 72
9, 91170, Note_on_c, 7, 66, 0
9, 91170, Note_on_c, 7, 82, 0
9, 91170, Note_on_c, 7, 75, 0
9, 91170, Note_on_c, 7, 70, 0
9, 91200, Note_on_c, 7, 82, 70
9, 91200, Note_on_c, 7, 75, 94
9, 91200, Note_on_c, 7, 70, 78
9, 91200, Note_on_c, 7, 66, 73
9, 91440, Note_on_c, 7, 66, 0
9, 91440, Note_on_c, 7, 82, 0
9, 91440, Note_on_c, 7, 75, 0
9, 91440, Note_on_c, 7, 70, 0
9, 91440, Note_on_c, 7, 80, 76
9, 91440, Note_on_c, 7, 74, 105
9, 91440, Note_on_c, 7, 70, 81
9, 91440, Note_on_c, 7, 65, 84
9, 91620, Note_on_c, 7, 65, 0
9, 91620, Note_on_c, 7, 80, 0
9, 91620, Note_on_c, 7, 74, 0
9, 91620, Note_on_c, 7, 70, 0
9, 91620, Note_on_c, 7, 63, 80
9, 91620, Note_on_c, 7, 70, 68
9, 91620, Note_on_c, 7, 75, 72
9, 91620, Note_on_c, 7, 78, 71
9, 91680, Note_on_c, 7, 78, 0
9, 91680, Note_on_c, 7, 63, 0
9, 91680, Note_on_c, 7, 70, 0
9, 91680, Note_on_c, 7, 75, 0
9, 91680, Note_on_c, 7, 87, 89
9, 91680, Note_on_c, 7, 78, 72
9, 91680, Note_on_c, 7, 75, 72
9, 91680, Note_on_c, 7, 71, 99
9, 91920, Note_on_c, 7, 71, 0
9, 91920, Note_on_c, 7, 87, 0
9, 91920, Note_on_c, 7, 78, 0
9, 91920, Note_on_c, 7, 75, 0
9, 91920, Note_on_c, 7, 85, 72
9, 91920, Note_on_c, 7, 79, 80
9, 91920, Note_on_c, 7, 73, 64
9, 91920, Note_on_c, 7, 70, 89
9, 92100, Note_on_c, 7, 70, 0
9, 92100, Note_on_c, 7, 85, 0
9, 92100, Note_on_c, 7, 79, 0
9, 92100, Note_on_c, 7, 73, 0
9, 92100, Note_on_c, 7, 68, 84
9, 92100, Note_on_c, 7, 71, 78
9, 92100, Note_on_c, 7, 80, 77
9, 92100, Note_on_c, 7, 83, 86
9, 92160, Note_on_c, 7, 83, 0
9, 92160, Note_on_c, 7, 68, 0
9, 92160, Note_on_c, 7, 71, 0
9, 92160, Note_on_c, 7, 80, 0
9, 92160, Note_on_c, 7, 83, 93
9, 92160, Note_on_c, 7, 71, 80
9, 92160, Note_on_c, 7, 68, 81
9, 92180, Note_on_c, 7, 83, 0
9, 92180, Note_on_c, 7, 85, 84
9, 92200, Note_on_c, 7, 85, 0
9, 92200, Note_on_c, 7, 83, 94
9, 92220, Note_on_c, 7, 83, 0
9, 92220, Note_on_c, 7, 85, 84
9, 92235, Note_on_c, 7, 85, 0
9, 92235, Note_on_c, 7, 83, 95
9, 92250, Note_on_c, 7, 83, 0
9, 92250, Note_on_c, 7, 85, 81
9, 92265, Note_on_c, 7, 85, 0
9, 92265, Note_on_c, 7, 83, 94
9, 92280, Note_on_c, 7, 83, 0
9, 92280, Note_on_c, 7, 85, 82
9, 92300, Note_on_c, 7, 85, 0
9, 92300, Note_on_c, 7, 83, 95
9, 92320, Note_on_c, 7, 83, 0
9, 92320, Note_on_c, 7, 85, 84
9, 92340, Note_on_c, 7, 85, 0
9, 92340, Note_on_c, 7, 83, 94
9, 92355, Note_on_c, 7, 83, 0
9, 92355, Note_on_c, 7, 85, 84
9, 92370, Note_on_c, 7, 85, 0
9, 92370, Note_on_c, 7, 83, 94
9, 92385, Note_on_c, 7, 83, 0
9, 92385, Note_on_c, 7, 85, 84
9, 92400, Note_on_c, 7, 85, 0
9, 92400, Note_on_c, 7, 68, 0
9, 92400, Note_on_c, 7, 71, 0
9, 92400, Note_on_c, 7, 83, 99
9, 92400, Note_on_c, 7, 70, 89
9, 92400, Note_on_c, 7, 66, 73
9, 92420, Note_on_c, 7, 83, 0
9, 92420, Note_on_c, 7, 85, 84
9, 92440, Note_on_c, 7, 85, 0
9, 92440, Note_on_c, 7, 83, 94
9, 92460, Note_on_c, 7, 83, 0
9, 92460, Note_on_c, 7, 85, 81
9, 92475, Note_on_c, 7, 85, 0
9, 92475, Note_on_c, 7, 83, 95
9, 92490, Note_on_c, 7, 83, 0
9, 92490, Note_on_c, 7, 85, 85
9, 92505, Note_on_c, 7, 85, 0
9, 92505, Note_on_c, 7, 83, 99
9, 92520, Note_on_c, 7, 83, 0
9, 92520, Note_on_c, 7, 85, 85
9, 92540, Note_on_c, 7, 85, 0
9, 92540, Note_on_c, 7, 83, 94
9, 92560, Note_on_c, 7, 83, 0
9, 92560, Note_on_c, 7, 85, 86
9, 92580, Note_on_c, 7, 85, 0
9, 92580, Note_on_c, 7, 66, 0
9, 92580, Note_on_c, 7, 70, 0
9, 92580, Note_on_c, 7, 65, 84
9, 92580, Note_on_c, 7, 68, 82
9, 92580, Note_on_c, 7, 83, 95
9, 92595, Note_on_c, 7, 83, 0
9, 92595, Note_on_c, 7, 85, 84
9, 92610, Note_on_c, 7, 85, 0
9, 92610, Note_on_c, 7, 83, 93
9, 92625, Note_on_c, 7, 83, 0
9, 92625, Note_on_c, 7, 85, 86
9, 92640, Note_on_c, 7, 85, 0
9, 92640, Note_on_c, 7, 68, 0
9, 92640, Note_on_c, 7, 65, 0
9, 92640, Note_on_c, 7, 83, 99
9, 92640, Note_on_c, 7, 68, 80
9, 92640, Note_on_c, 7, 65, 72
9, 92660, Note_on_c, 7, 83, 0
9, 92660, Note_on_c, 7, 85, 86
9, 92680, Note_on_c, 7, 85, 0
9, 92680, Note_on_c, 7, 83, 94
9, 92700, Note_on_c, 7, 83, 0
9, 92700, Note_on_c, 7, 85, 84
9, 92715, Note_on_c, 7, 85, 0
9, 92715, Note_on_c, 7, 83, 95
9, 92730, Note_on_c, 7, 83, 0
9, 92730, Note_on_c, 7, 85, 84
9, 92745, Note_on_c, 7, 85, 0
9, 92745, Note_on_c, 7, 83, 95
9, 92760, Note_on_c, 7, 83, 0
9, 92760, Note_on_c, 7, 85, 84
9, 92780, Note_on_c, 7, 85, 0
9, 92780, Note_on_c, 7, 83, 94
9, 92800, Note_on_c, 7, 83, 0
9, 92800, Note_on_c, 7, 85, 84
9, 92820, Note_on_c, 7, 85, 0
9, 92820, Note_on_c, 7, 83, 94
9, 92835, Note_on_c, 7, 83, 0
9, 92835, Note_on_c, 7, 85, 84
9, 92850, Note_on_c, 7, 85, 0
9, 92850, Note_on_c, 7, 83, 94
9, 92865, Note_on_c, 7, 83, 0
9, 92865, Note_on_c, 7, 85, 86
9, 92880, Note_on_c, 7, 85, 0
9, 92880, Note_on_c, 7, 65, 0
9, 92880, Note_on_c, 7, 68, 0
9, 92880, Note_on_c, 7, 83, 95
9, 92880, Note_on_c, 7, 66, 82
9, 92880, Note_on_c, 7, 63, 67
9, 92900, Note_on_c, 7, 83, 0
9, 92900, Note_on_c, 7, 85, 82
9, 92920, Note_on_c, 7, 85, 0
9, 92920, Note_on_c, 7, 83, 94
9, 92940, Note_on_c, 7, 83, 0
9, 92940, Note_on_c, 7, 85, 85
9, 92955, Note_on_c, 7, 85, 0
9, 92955, Note_on_c, 7, 83, 95
9, 92970, Note_on_c, 7, 83, 0
9, 92970, Note_on_c, 7, 85, 84
9, 92985, Note_on_c, 7, 85, 0
9, 92985, Note_on_c, 7, 83, 95
9, 93000, Note_on_c, 7, 83, 0
9, 93000, Note_on_c, 7, 85, 86
9, 93020, Note_on_c, 7, 85, 0
9, 93020, Note_on_c, 7, 83, 99
9, 93040, Note_on_c, 7, 83, 0
9, 93040, Note_on_c, 7, 85, 84
9, 93060, Note_on_c, 7, 85, 0
9, 93060, Note_on_c, 7, 63, 0
9, 93060, Note_on_c, 7, 66, 0
9, 93060, Note_on_c, 7, 61, 76
9, 93060, Note_on_c, 7, 65, 67
9, 93060, Note_on_c, 7, 83, 99
9, 93075, Note_on_c, 7, 83, 0
9, 93075, Note_on_c, 7, 85, 84
9, 93090, Note_on_c, 7, 85, 0
9, 93090, Note_on_c, 7, 83, 98
9, 93105, Note_on_c, 7, 83, 0
9, 93105, Note_on_c, 7, 85, 84
9, 93120, Note_on_c, 7, 85, 0
9, 93120, Note_on_c, 7, 65, 0
9, 93120, Note_on_c, 7, 61, 0
9, 93120, Note_on_c, 7, 82, 86
9, 93120, Note_on_c, 7, 54, 89
9, 93140, Note_on_c, 7, 82, 0
9, 93140, Note_on_c, 7, 84, 78
9, 93160, Note_on_c, 7, 84, 0
9, 93160, Note_on_c, 7, 54, 0
9, 93160, Note_on_c, 7, 82, 89
9, 93160, Note_on_c, 7, 58, 93
9, 93180, Note_on_c, 7, 82, 0
9, 93180, Note_on_c, 7, 81, 99
9, 93200, Note_on_c, 7, 58, 0
9, 93200, Note_on_c, 7, 61, 77
9, 93210, Note_on_c, 7, 81, 0
9, 93210, Note_on_c, 7, 82, 89
9, 93240, Note_on_c, 7, 82, 0
9, 93240, Note_on_c, 7, 61, 0
9, 93240, Note_on_c, 7, 85, 82
9, 93240, Note_on_c, 7, 66, 73
9, 93280, Note_on_c, 7, 66, 0
9, 93280, Note_on_c, 7, 61, 86
9, 93300, Note_on_c, 7, 85, 0
9, 93300, Note_on_c, 7, 82, 95
9, 93320, Note_on_c, 7, 61, 0
9, 93320, Note_on_c, 7, 58, 93
9, 93360, Note_on_c, 7, 58, 0
9, 93360, Note_on_c, 7, 82, 0
9, 93360, Note_on_c, 7, 80, 89
9, 93360, Note_on_c, 7, 47, 98
9, 93380, Note_on_c, 7, 80, 0
9, 93380, Note_on_c, 7, 82, 89
9, 93400, Note_on_c, 7, 82, 0
9, 93400, Note_on_c, 7, 47, 0
9, 93400, Note_on_c, 7, 80, 93
9, 93400, Note_on_c, 7, 51, 94
9, 93420, Note_on_c, 7, 80, 0
9, 93420, Note_on_c, 7, 79, 89
9, 93440, Note_on_c, 7, 51, 0
9, 93440, Note_on_c, 7, 56, 86
9, 93450, Note_on_c, 7, 79, 0
9, 93450, Note_on_c, 7, 80, 94
9, 93480, Note_on_c, 7, 80, 0
9, 93480, Note_on_c, 7, 56, 0
9, 93480, Note_on_c, 7, 83, 85
9, 93480, Note_on_c, 7, 59, 89
9, 93520, Note_on_c, 7, 59, 0
9, 93520, Note_on_c, 7, 56, 89
9, 93540, Note_on_c, 7, 83, 0
9, 93540, Note_on_c, 7, 80, 86
9, 93560, Note_on_c, 7, 56, 0
9, 93560, Note_on_c, 7, 51, 89
9, 93600, Note_on_c, 7, 51, 0
9, 93600, Note_on_c, 7, 80, 0
9, 93600, Note_on_c, 7, 78, 72
9, 93600, Note_on_c, 7, 49, 86
9, 93620, Note_on_c, 7, 78, 0
9, 93620, Note_on_c, 7, 80, 86
9, 93640, Note_on_c, 7, 80, 0
9, 93640, Note_on_c, 7, 49, 0
9, 93640, Note_on_c, 7, 78, 89
9, 93640, Note_on_c, 7, 54, 89
9, 93660, Note_on_c, 7, 78, 0
9, 93660, Note_on_c, 7, 77, 90
9, 93680, Note_on_c, 7, 54, 0
9, 93680, Note_on_c, 7, 58, 80
9, 93690, Note_on_c, 7, 77, 0
9, 93690, Note_on_c, 7, 78, 89
9, 93720, Note_on_c, 7, 78, 0
9, 93720, Note_on_c, 7, 58, 0
9, 93720, Note_on_c, 7, 82, 84
9, 93720, Note_on_c, 7, 61, 74
9, 93760, Note_on_c, 7, 61, 0
9, 93760, Note_on_c, 7, 58, 94
9, 93780, Note_on_c, 7, 82, 0
9, 93780, Note_on_c, 7, 78, 90
9, 93800, Note_on_c, 7, 58, 0
9, 93800, Note_on_c, 7, 54, 90
9, 93840, Note_on_c, 7, 54, 0
9, 93840, Note_on_c, 7, 78, 0
9, 93840, Note_on_c, 7, 77, 94
9, 93840, Note_on_c, 7, 50, 101
9, 93860, Note_on_c, 7, 77, 0
9, 93860, Note_on_c, 7, 78, 90
9, 93880, Note_on_c, 7, 78, 0
9, 93880, Note_on_c, 7, 50, 0
9, 93880, Note_on_c, 7, 77, 94
9, 93880, Note_on_c, 7, 53, 95
9, 93900, Note_on_c, 7, 77, 0
9, 93900, Note_on_c, 7, 76, 93
9, 93920, Note_on_c, 7, 53, 0
9, 93920, Note_on_c, 7, 56, 94
9, 93930, Note_on_c, 7, 76, 0
9, 93930, Note_on_c, 7, 77, 90
9, 93960, Note_on_c, 7, 77, 0
9, 93960, Note_on_c, 7, 56, 0
9, 93960, Note_on_c, 7, 82, 89
9, 93960, Note_on_c, 7, 58, 76
9, 94000, Note_on_c, 7, 58, 0
9, 94000, Note_on_c, 7, 56, 94
9, 94020, Note_on_c, 7, 82, 0
9, 94020, Note_on_c, 7, 80, 99
9, 94040, Note_on_c, 7, 56, 0
9, 94040, Note_on_c, 7, 53, 95
9, 94080, Note_on_c, 7, 53, 0
9, 94080, Note_on_c, 7, 80, 0
9, 94080, Note_on_c, 7, 78, 84
9, 94080, Note_on_c, 7, 51, 93
9, 94120, Note_on_c, 7, 51, 0
9, 94120, Note_on_c, 7, 78, 0
9, 94120, Note_on_c, 7, 77, 84
9, 94120, Note_on_c, 7, 54, 95
9, 94160, Note_on_c, 7, 54, 0
9, 94160, Note_on_c, 7, 77, 0
9, 94160, Note_on_c, 7, 78, 89
9, 94160, Note_on_c, 7, 58, 84
9, 94200, Note_on_c, 7, 58, 0
9, 94200, Note_on_c, 7, 78, 0
9, 94200, Note_on_c, 7, 82, 85
9, 94200, Note_on_c, 7, 63, 81
9, 94240, Note_on_c, 7, 63, 0
9, 94240, Note_on_c, 7, 82, 0
9, 94240, Note_on_c, 7, 80, 98
9, 94240, Note_on_c, 7, 58, 89
9, 94280, Note_on_c, 7, 58, 0
9, 94280, Note_on_c, 7, 80, 0
9, 94280, Note_on_c, 7, 78, 98
9, 94280, Note_on_c, 7, 54, 89
9, 94320, Note_on_c, 7, 54, 0
9, 94320, Note_on_c, 7, 78, 0
9, 94320, Note_on_c, 7, 77, 89
9, 94320, Note_on_c, 7, 44, 86
9, 94360, Note_on_c, 7, 44, 0
9, 94360, Note_on_c, 7, 77, 0
9, 94360, Note_on_c, 7, 76, 93
9, 94360, Note_on_c, 7, 47, 105
9, 94400, Note_on_c, 7, 47, 0
9, 94400, Note_on_c, 7, 76, 0
9, 94400, Note_on_c, 7, 77, 94
9, 94400, Note_on_c, 7, 53, 84
9, 94440, Note_on_c, 7, 53, 0
9, 94440, Note_on_c, 7, 77, 0
9, 94440, Note_on_c, 7, 80, 98
9, 94440, Note_on_c, 7, 56, 78
9, 94480, Note_on_c, 7, 56, 0
9, 94480, Note_on_c, 7, 80, 0
9, 94480, Note_on_c, 7, 78, 95
9, 94480, Note_on_c, 7, 53, 94
9, 94520, Note_on_c, 7, 53, 0
9, 94520, Note_on_c, 7, 78, 0
9, 94520, Note_on_c, 7, 47, 99
9, 94520, Note_on_c, 7, 77, 90
9, 94560, Note_on_c, 7, 77, 0
9, 94560, Note_on_c, 7, 47, 0
9, 94560, Note_on_c, 7, 75, 98
9, 94560, Note_on_c, 7, 46, 86
9, 94600, Note_on_c, 7, 46, 0
9, 94600, Note_on_c, 7, 75, 0
9, 94600, Note_on_c, 7, 74, 99
9, 94600, Note_on_c, 7, 51, 94
9, 94640, Note_on_c, 7, 51, 0
9, 94640, Note_on_c, 7, 74, 0
9, 94640, Note_on_c, 7, 75, 98
9, 94640, Note_on_c, 7, 54, 81
9, 94680, Note_on_c, 7, 54, 0
9, 94680, Note_on_c, 7, 75, 0
9, 94680, Note_on_c, 7, 78, 93
9, 94680, Note_on_c, 7, 58, 76
9, 94720, Note_on_c, 7, 58, 0
9, 94720, Note_on_c, 7, 78, 0
9, 94720, Note_on_c, 7, 77, 86
9, 94720, Note_on_c, 7, 54, 89
9, 94760, Note_on_c, 7, 54, 0
9, 94760, Note_on_c, 7, 77, 0
9, 94760, Note_on_c, 7, 75, 99
9, 94760, Note_on_c, 7, 51, 99
9, 94800, Note_on_c, 7, 51, 0
9, 94800, Note_on_c, 7, 75, 0
9, 94800, Note_on_c, 7, 74, 94
9, 94800, Note_on_c, 7, 46, 94
9, 94840, Note_on_c, 7, 46, 0
9, 94840, Note_on_c, 7, 74, 0
9, 94840, Note_on_c, 7, 75, 99
9, 94840, Note_on_c, 7, 53, 94
9, 94880, Note_on_c, 7, 53, 0
9, 94880, Note_on_c, 7, 75, 0
9, 94880, Note_on_c, 7, 77, 89
9, 94880, Note_on_c, 7, 56, 80
9, 94920, Note_on_c, 7, 56, 0
9, 94920, Note_on_c, 7, 77, 0
9, 94920, Note_on_c, 7, 70, 84
9, 94920, Note_on_c, 7, 46, 90
9, 94960, Note_on_c, 7, 46, 0
9, 94960, Note_on_c, 7, 70, 0
9, 94960, Note_on_c, 7, 72, 74
9, 94960, Note_on_c, 7, 53, 90
9, 95000, Note_on_c, 7, 53, 0
9, 95000, Note_on_c, 7, 72, 0
9, 95000, Note_on_c, 7, 56, 82
9, 95000, Note_on_c, 7, 74, 105
9, 95040, Note_on_c, 7, 74, 0
9, 95040, Note_on_c, 7, 56, 0
9, 95040, Note_on_c, 7, 75, 85
9, 95040, Note_on_c, 7, 51, 89
9, 95070, Note_on_c, 7, 75, 0
9, 95070, Note_on_c, 7, 77, 95
9, 95100, Note_on_c, 7, 77, 0
9, 95100, Note_on_c, 7, 79, 93
9, 95130, Note_on_c, 7, 79, 0
9, 95130, Note_on_c, 7, 80, 84
9, 95160, Note_on_c, 7, 80, 0
9, 95160, Note_on_c, 7, 51, 0
9, 95160, Note_on_c, 7, 82, 82
9, 95190, Note_on_c, 7, 82, 0
9, 95190, Note_on_c, 7, 80, 89
9, 95220, Note_on_c, 7, 80, 0
9, 95220, Note_on_c, 7, 79, 94
9, 95250, Note_on_c, 7, 79, 0
9, 95250, Note_on_c, 7, 77, 90
9, 95280, Note_on_c, 7, 77, 0
9, 95280, Note_on_c, 7, 75, 99
9, 95310, Note_on_c, 7, 75, 0
9, 95310, Note_on_c, 7, 74, 99
9, 95340, Note_on_c, 7, 74, 0
9, 95340, Note_on_c, 7, 72, 73
9, 95370, Note_on_c, 7, 72, 0
9, 95370, Note_on_c, 7, 70, 81
9, 95400, Note_on_c, 7, 70, 0
9, 95400, Note_on_c, 7, 69, 81
9, 95430, Note_on_c, 7, 69, 0
9, 95430, Note_on_c, 7, 70, 86
9, 95460, Note_on_c, 7, 70, 0
9, 95460, Note_on_c, 7, 72, 80
9, 95490, Note_on_c, 7, 72, 0
9, 95490, Note_on_c, 7, 74, 84
9, 95520, Note_on_c, 7, 74, 0
9, 95520, Note_on_c, 7, 75, 82
9, 95550, Note_on_c, 7, 75, 0
9, 95550, Note_on_c, 7, 77, 89
9, 95580, Note_on_c, 7, 77, 0
9, 95580, Note_on_c, 7, 79, 95
9, 95610, Note_on_c, 7, 79, 0
9, 95610, Note_on_c, 7, 80, 85
9, 95640, Note_on_c, 7, 80, 0
9, 95640, Note_on_c, 7, 82, 89
9, 95670, Note_on_c, 7, 82, 0
9, 95670, Note_on_c, 7, 80, 95
9, 95700, Note_on_c, 7, 80, 0
9, 95700, Note_on_c, 7, 79, 95
9, 95730, Note_on_c, 7, 79, 0
9, 95730, Note_on_c, 7, 77, 93
9, 95760, Note_on_c, 7, 77, 0
9, 95760, Note_on_c, 7, 75, 94
9, 95790, Note_on_c, 7, 75, 0
9, 95790, Note_on_c, 7, 74, 94
9, 95820, Note_on_c, 7, 74, 0
9, 95820, Note_on_c, 7, 72, 78
9, 95850, Note_on_c, 7, 72, 0
9, 95850, Note_on_c, 7, 70, 84
9, 95880, Note_on_c, 7, 70, 0
9, 95880, Note_on_c, 7, 69, 77
9, 95910, Note_on_c, 7, 69, 0
9, 95910, Note_on_c, 7, 70, 89
9, 95940, Note_on_c, 7, 70, 0
9, 95940, Note_on_c, 7, 72, 84
9, 95970, Note_on_c, 7, 72, 0
9, 95970, Note_on_c, 7, 74, 93
9, 96000, Note_on_c, 7, 74, 0
9, 96000, Note_on_c, 7, 75, 99
9, 96030, Note_on_c, 7, 75, 0
9, 96030, Note_on_c, 7, 74, 95
9, 96060, Note_on_c, 7, 74, 0
9, 96060, Note_on_c, 7, 75, 98
9, 96090, Note_on_c, 7, 75, 0
9, 96090, Note_on_c, 7, 77, 90
9, 96120, Note_on_c, 7, 77, 0
9, 96120, Note_on_c, 7, 79, 95
9, 96150, Note_on_c, 7, 79, 0
9, 96150, Note_on_c, 7, 67, 86
9, 96180, Note_on_c, 7, 67, 0
9, 96180, Note_on_c, 7, 69, 94
9, 96180, Note_on_c, 7, 65, 62
9, 96180, Note_on_c, 7, 62, 85
9, 96210, Note_on_c, 7, 62, 0
9, 96210, Note_on_c, 7, 65, 0
9, 96210, Note_on_c, 7, 69, 0
9, 96210, Note_on_c, 7, 71, 94
9, 96240, Note_on_c, 7, 71, 0
9, 96240, Note_on_c, 7, 72, 81
9, 96240, Note_on_c, 7, 63, 80
9, 96240, Note_on_c, 7, 60, 84
9, 96270, Note_on_c, 7, 72, 0
9, 96270, Note_on_c, 7, 71, 71
9, 96300, Note_on_c, 7, 71, 0
9, 96300, Note_on_c, 7, 60, 0
9, 96300, Note_on_c, 7, 63, 0
9, 96300, Note_on_c, 7, 72, 81
9, 96330, Note_on_c, 7, 72, 0
9, 96330, Note_on_c, 7, 74, 94
9, 96360, Note_on_c, 7, 74, 0
9, 96360, Note_on_c, 7, 75, 95
9, 96390, Note_on_c, 7, 75, 0
9, 96390, Note_on_c, 7, 63, 80
9, 96420, Note_on_c, 7, 63, 0
9, 96420, Note_on_c, 7, 65, 101
9, 96420, Note_on_c, 7, 61, 85
9, 96420, Note_on_c, 7, 58, 78
9, 96450, Note_on_c, 7, 58, 0
9, 96450, Note_on_c, 7, 61, 0
9, 96450, Note_on_c, 7, 65, 0
9, 96450, Note_on_c, 7, 67, 98
9, 96480, Note_on_c, 7, 67, 0
9, 96480, Note_on_c, 7, 68, 98
9, 96480, Note_on_c, 7, 60, 76
9, 96480, Note_on_c, 7, 56, 78
9, 96510, Note_on_c, 7, 68, 0
9, 96510, Note_on_c, 7, 67, 84
9, 96540, Note_on_c, 7, 67, 0
9, 96540, Note_on_c, 7, 56, 0
9, 96540, Note_on_c, 7, 60, 0
9, 96540, Note_on_c, 7, 68, 90
9, 96570, Note_on_c, 7, 68, 0
9, 96570, Note_on_c, 7, 70, 99
9, 96600, Note_on_c, 7, 70, 0
9, 96600, Note_on_c, 7, 72, 81
9, 96630, Note_on_c, 7, 72, 0
9, 96630, Note_on_c, 7, 60, 86
9, 96660, Note_on_c, 7, 60, 0
9, 96660, Note_on_c, 7, 62, 89
9, 96660, Note_on_c, 7, 58, 80
9, 96660, Note_on_c, 7, 55, 80
9, 96690, Note_on_c, 7, 62, 0
9, 96690, Note_on_c, 7, 64, 94
9, 96720, Note_on_c, 7, 64, 0
9, 96720, Note_on_c, 7, 55, 0
9, 96720, Note_on_c, 7, 58, 0
9, 96720, Note_on_c, 7, 65, 84
9, 96720, Note_on_c, 7, 56, 84
9, 96720, Note_on_c, 7, 53, 80
9, 96750, Note_on_c, 7, 65, 0
9, 96750, Note_on_c, 7, 64, 94
9, 96780, Note_on_c, 7, 64, 0
9, 96780, Note_on_c, 7, 53, 0
9, 96780, Note_on_c, 7, 56, 0
9, 96780, Note_on_c, 7, 65, 93
9, 96780, Note_on_c, 7, 56, 89
9, 96780, Note_on_c, 7, 53, 84
9, 96810, Note_on_c, 7, 65, 0
9, 96810, Note_on_c, 7, 67, 90
9, 96840, Note_on_c, 7, 67, 0
9, 96840, Note_on_c, 7, 53, 0
9, 96840, Note_on_c, 7, 56, 0
9, 96840, Note_on_c, 7, 68, 80
9, 96840, Note_on_c, 7, 55, 80
9, 96840, Note_on_c, 7, 51, 85
9, 96870, Note_on_c, 7, 68, 0
9, 96870, Note_on_c, 7, 67, 84
9, 96900, Note_on_c, 7, 67, 0
9, 96900, Note_on_c, 7, 51, 0
9, 96900, Note_on_c, 7, 55, 0
9, 96900, Note_on_c, 7, 51, 86
9, 96900, Note_on_c, 7, 55, 85
9, 96900, Note_on_c, 7, 68, 85
9, 96930, Note_on_c, 7, 68, 0
9, 96930, Note_on_c, 7, 67, 84
9, 96960, Note_on_c, 7, 67, 0
9, 96960, Note_on_c, 7, 55, 0
9, 96960, Note_on_c, 7, 51, 0
9, 96960, Note_on_c, 7, 68, 89
9, 96960, Note_on_c, 7, 53, 84
9, 96960, Note_on_c, 7, 50, 84
9, 96990, Note_on_c, 7, 68, 0
9, 96990, Note_on_c, 7, 67, 84
9, 97020, Note_on_c, 7, 67, 0
9, 97020, Note_on_c, 7, 50, 0
9, 97020, Note_on_c, 7, 53, 0
9, 97020, Note_on_c, 7, 68, 89
9, 97020, Note_on_c, 7, 53, 89
9, 97020, Note_on_c, 7, 50, 89
9, 97050, Note_on_c, 7, 68, 0
9, 97050, Note_on_c, 7, 67, 84
9, 97080, Note_on_c, 7, 67, 0
9, 97080, Note_on_c, 7, 50, 0
9, 97080, Note_on_c, 7, 53, 0
9, 97080, Note_on_c, 7, 68, 89
9, 97080, Note_on_c, 7, 51, 86
9, 97080, Note_on_c, 7, 48, 89
9, 97110, Note_on_c, 7, 68, 0
9, 97110, Note_on_c, 7, 67, 89
9, 97140, Note_on_c, 7, 67, 0
9, 97140, Note_on_c, 7, 48, 0
9, 97140, Note_on_c, 7, 51, 0
9, 97140, Note_on_c, 7, 68, 86
9, 97140, Note_on_c, 7, 51, 89
9, 97140, Note_on_c, 7, 48, 90
9, 97170, Note_on_c, 7, 68, 0
9, 97170, Note_on_c, 7, 67, 84
9, 97200, Note_on_c, 7, 67, 0
9, 97200, Note_on_c, 7, 48, 0
9, 97200, Note_on_c, 7, 51, 0
9, 97200, Note_on_c, 7, 68, 86
9, 97200, Note_on_c, 7, 50, 98
9, 97200, Note_on_c, 7, 46, 71
9, 97230, Note_on_c, 7, 68, 0
9, 97230, Note_on_c, 7, 67, 81
9, 97260, Note_on_c, 7, 67, 0
9, 97260, Note_on_c, 7, 46, 0
9, 97260, Note_on_c, 7, 50, 0
9, 97260, Note_on_c, 7, 65, 95
9, 97260, Note_on_c, 7, 50, 95
9, 97260, Note_on_c, 7, 46, 80
9, 97290, Note_on_c, 7, 65, 0
9, 97290, Note_on_c, 7, 63, 95
9, 97320, Note_on_c, 7, 63, 0
9, 97320, Note_on_c, 7, 46, 0
9, 97320, Note_on_c, 7, 50, 0
9, 97320, Note_on_c, 7, 62, 94
9, 97320, Note_on_c, 7, 51, 89
9, 97320, Note_on_c, 7, 48, 90
9, 97350, Note_on_c, 7, 62, 0
9, 97350, Note_on_c, 7, 60, 86
9, 97380, Note_on_c, 7, 60, 0
9, 97380, Note_on_c, 7, 48, 0
9, 97380, Note_on_c, 7, 51, 0
9, 97380, Note_on_c, 7, 50, 89
9, 97380, Note_on_c, 7, 53, 86
9, 97380, Note_on_c, 7, 58, 94
9, 97410, Note_on_c, 7, 58, 0
9, 97410, Note_on_c, 7, 56, 89
9, 97440, Note_on_c, 7, 56, 0
9, 97440, Note_on_c, 7, 53, 0
9, 97440, Note_on_c, 7, 50, 0
9, 97440, Note_on_c, 7, 55, 89
9, 97440, Note_on_c, 7, 51, 86
9, 97470, Note_on_c, 7, 55, 0
9, 97470, Note_on_c, 7, 63, 94
9, 97500, Note_on_c, 7, 63, 0
9, 97500, Note_on_c, 7, 51, 0
9, 97500, Note_on_c, 7, 58, 90
9, 97500, Note_on_c, 7, 43, 99
9, 97530, Note_on_c, 7, 58, 0
9, 97530, Note_on_c, 7, 55, 89
9, 97560, Note_on_c, 7, 55, 0
9, 97560, Note_on_c, 7, 43, 0
9, 97560, Note_on_c, 7, 56, 89
9, 97560, Note_on_c, 7, 48, 98
9, 97590, Note_on_c, 7, 56, 0
9, 97590, Note_on_c, 7, 65, 101
9, 97620, Note_on_c, 7, 65, 0
9, 97620, Note_on_c, 7, 48, 0
9, 97620, Note_on_c, 7, 60, 95
9, 97620, Note_on_c, 7, 44, 84
9, 97650, Note_on_c, 7, 60, 0
9, 97650, Note_on_c, 7, 56, 84
9, 97680, Note_on_c, 7, 56, 0
9, 97680, Note_on_c, 7, 44, 0
9, 97680, Note_on_c, 7, 55, 93
9, 97680, Note_on_c, 7, 46, 93
9, 97710, Note_on_c, 7, 55, 0
9, 97710, Note_on_c, 7, 63, 89
9, 97740, Note_on_c, 7, 63, 0
9, 97740, Note_on_c, 7, 46, 0
9, 97740, Note_on_c, 7, 58, 93
9, 97740, Note_on_c, 7, 45, 95
9, 97770, Note_on_c, 7, 58, 0
9, 97770, Note_on_c, 7, 55, 77
9, 97800, Note_on_c, 7, 55, 0
9, 97800, Note_on_c, 7, 45, 0
9, 97800, Note_on_c, 7, 53, 86
9, 97800, Note_on_c, 7, 46, 95
9, 97830, Note_on_c, 7, 53, 0
9, 97830, Note_on_c, 7, 62, 95
9, 97860, Note_on_c, 7, 62, 0
9, 97860, Note_on_c, 7, 46, 0
9, 97860, Note_on_c, 7, 34, 80
9, 97860, Note_on_c, 7, 56, 95
9, 97890, Note_on_c, 7, 56, 0
9, 97890, Note_on_c, 7, 53, 84
9, 97920, Note_on_c, 7, 53, 0
9, 97920, Note_on_c, 7, 34, 0
9, 97920, Note_on_c, 7, 63, 80
9, 97920, Note_on_c, 7, 55, 78
9, 97920, Note_on_c, 7, 51, 89
9, 97950, Note_on_c, 7, 51, 0
9, 97950, Note_on_c, 7, 53, 85
9, 97980, Note_on_c, 7, 53, 0
9, 97980, Note_on_c, 7, 55, 90
9, 98010, Note_on_c, 7, 55, 0
9, 98010, Note_on_c, 7, 56, 89
9, 98040, Note_on_c, 7, 56, 0
9, 98040, Note_on_c, 7, 55, 0
9, 98040, Note_on_c, 7, 63, 0
9, 98040, Note_on_c, 7, 58, 74
9, 98070, Note_on_c, 7, 58, 0
9, 98070, Note_on_c, 7, 56, 90
9, 98100, Note_on_c, 7, 56, 0
9, 98100, Note_on_c, 7, 55, 86
9, 98130, Note_on_c, 7, 55, 0
9, 98130, Note_on_c, 7, 53, 89
9, 98160, Note_on_c, 7, 53, 0
9, 98160, Note_on_c, 7, 51, 80
9, 98190, Note_on_c, 7, 51, 0
9, 98190, Note_on_c, 7, 70, 84
9, 98190, Note_on_c, 7, 50, 104
9, 98220, Note_on_c, 7, 50, 0
9, 98220, Note_on_c, 7, 70, 0
9, 98220, Note_on_c, 7, 82, 82
9, 98220, Note_on_c, 7, 48, 99
9, 98250, Note_on_c, 7, 48, 0
9, 98250, Note_on_c, 7, 82, 0
9, 98250, Note_on_c, 7, 70, 80
9, 98250, Note_on_c, 7, 46, 94
9, 98280, Note_on_c, 7, 46, 0
9, 98280, Note_on_c, 7, 70, 0
9, 98280, Note_on_c, 7, 82, 89
9, 98280, Note_on_c, 7, 45, 104
9, 98310, Note_on_c, 7, 45, 0
9, 98310, Note_on_c, 7, 82, 0
9, 98310, Note_on_c, 7, 70, 84
9, 98310, Note_on_c, 7, 46, 84
9, 98340, Note_on_c, 7, 46, 0
9, 98340, Note_on_c, 7, 70, 0
9, 98340, Note_on_c, 7, 82, 89
9, 98340, Note_on_c, 7, 48, 99
9, 98370, Note_on_c, 7, 48, 0
9, 98370, Note_on_c, 7, 82, 0
9, 98370, Note_on_c, 7, 50, 98
9, 98370, Note_on_c, 7, 70, 93
9, 98400, Note_on_c, 7, 70, 0
9, 98400, Note_on_c, 7, 50, 0
9, 98400, Note_on_c, 7, 82, 85
9, 98400, Note_on_c, 7, 51, 89
9, 98430, Note_on_c, 7, 51, 0
9, 98430, Note_on_c, 7, 53, 94
9, 98460, Note_on_c, 7, 53, 0
9, 98460, Note_on_c, 7, 55, 85
9, 98490, Note_on_c, 7, 55, 0
9, 98490, Note_on_c, 7, 56, 93
9, 98520, Note_on_c, 7, 56, 0
9, 98520, Note_on_c, 7, 82, 0
9, 98520, Note_on_c, 7, 58, 89
9, 98550, Note_on_c, 7, 58, 0
9, 98550, Note_on_c, 7, 56, 93
9, 98580, Note_on_c, 7, 56, 0
9, 98580, Note_on_c, 7, 55, 84
9, 98610, Note_on_c, 7, 55, 0
9, 98610, Note_on_c, 7, 53, 85
9, 98640, Note_on_c, 7, 53, 0
9, 98640, Note_on_c, 7, 51, 86
9, 98670, Note_on_c, 7, 51, 0
9, 98670, Note_on_c, 7, 70, 89
9, 98670, Note_on_c, 7, 50, 95
9, 98700, Note_on_c, 7, 50, 0
9, 98700, Note_on_c, 7, 70, 0
9, 98700, Note_on_c, 7, 82, 84
9, 98700, Note_on_c, 7, 48, 99
9, 98730, Note_on_c, 7, 48, 0
9, 98730, Note_on_c, 7, 82, 0
9, 98730, Note_on_c, 7, 70, 81
9, 98730, Note_on_c, 7, 46, 93
9, 98760, Note_on_c, 7, 46, 0
9, 98760, Note_on_c, 7, 70, 0
9, 98760, Note_on_c, 7, 82, 86
9, 98760, Note_on_c, 7, 45, 93
9, 98790, Note_on_c, 7, 45, 0
9, 98790, Note_on_c, 7, 82, 0
9, 98790, Note_on_c, 7, 70, 86
9, 98790, Note_on_c, 7, 46, 93
9, 98820, Note_on_c, 7, 46, 0
9, 98820, Note_on_c, 7, 70, 0
9, 98820, Note_on_c, 7, 82, 89
9, 98820, Note_on_c, 7, 48, 94
9, 98850, Note_on_c, 7, 48, 0
9, 98850, Note_on_c, 7, 82, 0
9, 98850, Note_on_c, 7, 50, 85
9, 98850, Note_on_c, 7, 70, 86
9, 98880, Note_on_c, 7, 70, 0
9, 98880, Note_on_c, 7, 50, 0
9, 98880, Note_on_c, 7, 82, 86
9, 98880, Note_on_c, 7, 51, 94
9, 98910, Note_on_c, 7, 51, 0
9, 98910, Note_on_c, 7, 82, 0
9, 98910, Note_on_c, 7, 79, 78
9, 98910, Note_on_c, 7, 50, 101
9, 98940, Note_on_c, 7, 50, 0
9, 98940, Note_on_c, 7, 79, 0
9, 98940, Note_on_c, 7, 91, 93
9, 98940, Note_on_c, 7, 51, 85
9, 98970, Note_on_c, 7, 51, 0
9, 98970, Note_on_c, 7, 91, 0
9, 98970, Note_on_c, 7, 79, 78
9, 98970, Note_on_c, 7, 53, 81
9, 99000, Note_on_c, 7, 53, 0
9, 99000, Note_on_c, 7, 79, 0
9, 99000, Note_on_c, 7, 91, 95
9, 99000, Note_on_c, 7, 55, 89
9, 99030, Note_on_c, 7, 55, 0
9, 99030, Note_on_c, 7, 91, 0
9, 99030, Note_on_c, 7, 79, 73
9, 99030, Note_on_c, 7, 43, 95
9, 99060, Note_on_c, 7, 43, 0
9, 99060, Note_on_c, 7, 79, 0
9, 99060, Note_on_c, 7, 91, 86
9, 99060, Note_on_c, 7, 45, 95
9, 99090, Note_on_c, 7, 45, 0
9, 99090, Note_on_c, 7, 91, 0
9, 99090, Note_on_c, 7, 79, 80
9, 99090, Note_on_c, 7, 47, 95
9, 99120, Note_on_c, 7, 47, 0
9, 99120, Note_on_c, 7, 79, 0
9, 99120, Note_on_c, 7, 91, 94
9, 99120, Note_on_c, 7, 48, 99
9, 99150, Note_on_c, 7, 48, 0
9, 99150, Note_on_c, 7, 91, 0
9, 99150, Note_on_c, 7, 75, 84
9, 99150, Note_on_c, 7, 47, 89
9, 99180, Note_on_c, 7, 47, 0
9, 99180, Note_on_c, 7, 75, 0
9, 99180, Note_on_c, 7, 87, 99
9, 99180, Note_on_c, 7, 48, 99
9, 99210, Note_on_c, 7, 48, 0
9, 99210, Note_on_c, 7, 87, 0
9, 99210, Note_on_c, 7, 75, 84
9, 99210, Note_on_c, 7, 50, 94
9, 99240, Note_on_c, 7, 50, 0
9, 99240, Note_on_c, 7, 75, 0
9, 99240, Note_on_c, 7, 87, 99
9, 99240, Note_on_c, 7, 51, 95
9, 99270, Note_on_c, 7, 51, 0
9, 99270, Note_on_c, 7, 87, 0
9, 99270, Note_on_c, 7, 75, 81
9, 99270, Note_on_c, 7, 39, 89
9, 99300, Note_on_c, 7, 39, 0
9, 99300, Note_on_c, 7, 75, 0
9, 99300, Note_on_c, 7, 87, 99
9, 99300, Note_on_c, 7, 41, 89
9, 99330, Note_on_c, 7, 41, 0
9, 99330, Note_on_c, 7, 87, 0
9, 99330, Note_on_c, 7, 43, 84
9, 99330, Note_on_c, 7, 75, 89
9, 99360, Note_on_c, 7, 75, 0
9, 99360, Note_on_c, 7, 43, 0
9, 99360, Note_on_c, 7, 87, 99
9, 99360, Note_on_c, 7, 44, 89
9, 99390, Note_on_c, 7, 44, 0
9, 99390, Note_on_c, 7, 87, 0
9, 99390, Note_on_c, 7, 72, 94
9, 99390, Note_on_c, 7, 43, 94
9, 99420, Note_on_c, 7, 43, 0
9, 99420, Note_on_c, 7, 72, 0
9, 99420, Note_on_c, 7, 84, 89
9, 99420, Note_on_c, 7, 44, 94
9, 99450, Note_on_c, 7, 44, 0
9, 99450, Note_on_c, 7, 84, 0
9, 99450, Note_on_c, 7, 72, 73
9, 99450, Note_on_c, 7, 46, 90
9, 99480, Note_on_c, 7, 46, 0
9, 99480, Note_on_c, 7, 72, 0
9, 99480, Note_on_c, 7, 84, 94
9, 99480, Note_on_c, 7, 48, 93
9, 99510, Note_on_c, 7, 48, 0
9, 99510, Note_on_c, 7, 84, 0
9, 99510, Note_on_c, 7, 72, 84
9, 99510, Note_on_c, 7, 36, 104
9, 99540, Note_on_c, 7, 36, 0
9, 99540, Note_on_c, 7, 72, 0
9, 99540, Note_on_c, 7, 84, 89
9, 99540, Note_on_c, 7, 38, 95
9, 99570, Note_on_c, 7, 38, 0
9, 99570, Note_on_c, 7, 84, 0
9, 99570, Note_on_c, 7, 72, 73
9, 99570, Note_on_c, 7, 40, 99
9, 99600, Note_on_c, 7, 40, 0
9, 99600, Note_on_c, 7, 72, 0
9, 99600, Note_on_c, 7, 84, 99
9, 99600, Note_on_c, 7, 41, 81
9, 99630, Note_on_c, 7, 41, 0
9, 99630, Note_on_c, 7, 84, 0
9, 99630, Note_on_c, 7, 72, 93
9, 99630, Note_on_c, 7, 40, 99
9, 99660, Note_on_c, 7, 40, 0
9, 99660, Note_on_c, 7, 72, 0
9, 99660, Note_on_c, 7, 84, 94
9, 99660, Note_on_c, 7, 41, 94
9, 99690, Note_on_c, 7, 41, 0
9, 99690, Note_on_c, 7, 84, 0
9, 99690, Note_on_c, 7, 72, 84
9, 99690, Note_on_c, 7, 43, 86
9, 99720, Note_on_c, 7, 43, 0
9, 99720, Note_on_c, 7, 72, 0
9, 99720, Note_on_c, 7, 84, 94
9, 99720, Note_on_c, 7, 44, 99
9, 99750, Note_on_c, 7, 44, 0
9, 99750, Note_on_c, 7, 84, 0
9, 99750, Note_on_c, 7, 72, 80
9, 99750, Note_on_c, 7, 36, 94
9, 99780, Note_on_c, 7, 36, 0
9, 99780, Note_on_c, 7, 72, 0
9, 99780, Note_on_c, 7, 84, 99
9, 99780, Note_on_c, 7, 38, 99
9, 99810, Note_on_c, 7, 38, 0
9, 99810, Note_on_c, 7, 84, 0
9, 99810, Note_on_c, 7, 40, 99
9, 99810, Note_on_c, 7, 72, 84
9, 99840, Note_on_c, 7, 72, 0
9, 99840, Note_on_c, 7, 40, 0
9, 99840, Note_on_c, 7, 84, 95
9, 99840, Note_on_c, 7, 41, 89
9, 99870, Note_on_c, 7, 41, 0
9, 99870, Note_on_c, 7, 40, 95
9, 99900, Note_on_c, 7, 40, 0
9, 99900, Note_on_c, 7, 84, 0
9, 99900, Note_on_c, 7, 56, 95
9, 99900, Note_on_c, 7, 41, 89
9, 99930, Note_on_c, 7, 41, 0
9, 99930, Note_on_c, 7, 56, 0
9, 99930, Note_on_c, 7, 55, 85
9, 99930, Note_on_c, 7, 43, 82
9, 99960, Note_on_c, 7, 43, 0
9, 99960, Note_on_c, 7, 55, 0
9, 99960, Note_on_c, 7, 56, 94
9, 99960, Note_on_c, 7, 44, 84
9, 99990, Note_on_c, 7, 44, 0
9, 99990, Note_on_c, 7, 56, 0
9, 99990, Note_on_c, 7, 55, 89
9, 99990, Note_on_c, 7, 43, 90
9, 100020, Note_on_c, 7, 43, 0
9, 100020, Note_on_c, 7, 55, 0
9, 100020, Note_on_c, 7, 56, 93
9, 100020, Note_on_c, 7, 44, 85
9, 100050, Note_on_c, 7, 44, 0
9, 100050, Note_on_c, 7, 56, 0
9, 100050, Note_on_c, 7, 55, 89
9, 100050, Note_on_c, 7, 43, 93
9, 100080, Note_on_c, 7, 43, 0
9, 100080, Note_on_c, 7, 55, 0
9, 100080, Note_on_c, 7, 53, 80
9, 100080, Note_on_c, 7, 41, 86
9, 100110, Note_on_c, 7, 41, 0
9, 100110, Note_on_c, 7, 53, 0
9, 100110, Note_on_c, 7, 52, 93
9, 100110, Note_on_c, 7, 40, 90
9, 100140, Note_on_c, 7, 40, 0
9, 100140, Note_on_c, 7, 52, 0
9, 100140, Note_on_c, 7, 53, 76
9, 100140, Note_on_c, 7, 41, 89
9, 100170, Note_on_c, 7, 41, 0
9, 100170, Note_on_c, 7, 53, 0
9, 100170, Note_on_c, 7, 55, 94
9, 100170, Note_on_c, 7, 43, 80
9, 100200, Note_on_c, 7, 43, 0
9, 100200, Note_on_c, 7, 55, 0
9, 100200, Note_on_c, 7, 56, 90
9, 100200, Note_on_c, 7, 44, 89
9, 100230, Note_on_c, 7, 44, 0
9, 100230, Note_on_c, 7, 56, 0
9, 100230, Note_on_c, 7, 58, 89
9, 100230, Note_on_c, 7, 46, 85
9, 100260, Note_on_c, 7, 46, 0
9, 100260, Note_on_c, 7, 58, 0
9, 100260, Note_on_c, 7, 60, 89
9, 100260, Note_on_c, 7, 48, 82
9, 100290, Note_on_c, 7, 48, 0
9, 100290, Note_on_c, 7, 60, 0
9, 100290, Note_on_c, 7, 46, 94
9, 100290, Note_on_c, 7, 58, 93
9, 100320, Note_on_c, 7, 58, 0
9, 100320, Note_on_c, 7, 46, 0
9, 100320, Note_on_c, 7, 56, 85
9, 100320, Note_on_c, 7, 44, 85
9, 100350, Note_on_c, 7, 44, 0
9, 100350, Note_on_c, 7, 56, 0
9, 100350, Note_on_c, 7, 58, 90
9, 100350, Note_on_c, 7, 46, 89
9, 100380, Note_on_c, 7, 46, 0
9, 100380, Note_on_c, 7, 58, 0
9, 100380, Note_on_c, 7, 55, 73
9, 100380, Note_on_c, 7, 43, 89
9, 100410, Note_on_c, 7, 43, 0
9, 100410, Note_on_c, 7, 55, 0
9, 100410, Note_on_c, 7, 56, 89
9, 100410, Note_on_c, 7, 44, 85
9, 100440, Note_on_c, 7, 44, 0
9, 100440, Note_on_c, 7, 56, 0
9, 100440, Note_on_c, 7, 53, 89
9, 100440, Note_on_c, 7, 41, 84
9, 100470, Note_on_c, 7, 41, 0
9, 100470, Note_on_c, 7, 53, 0
9, 100470, Note_on_c, 7, 55, 84
9, 100470, Note_on_c, 7, 43, 80
9, 100500, Note_on_c, 7, 43, 0
9, 100500, Note_on_c, 7, 55, 0
9, 100500, Note_on_c, 7, 51, 93
9, 100500, Note_on_c, 7, 39, 85
9, 100530, Note_on_c, 7, 39, 0
9, 100530, Note_on_c, 7, 51, 0
9, 100530, Note_on_c, 7, 53, 84
9, 100530, Note_on_c, 7, 41, 76
9, 100560, Note_on_c, 7, 41, 0
9, 100560, Note_on_c, 7, 53, 0
9, 100560, Note_on_c, 7, 50, 98
9, 100560, Note_on_c, 7, 38, 81
9, 100590, Note_on_c, 7, 38, 0
9, 100590, Note_on_c, 7, 50, 0
9, 100590, Note_on_c, 7, 51, 95
9, 100590, Note_on_c, 7, 39, 84
9, 100620, Note_on_c, 7, 39, 0
9, 100620, Note_on_c, 7, 51, 0
9, 100620, Note_on_c, 7, 48, 85
9, 100620, Note_on_c, 7, 36, 94
9, 100650, Note_on_c, 7, 36, 0
9, 100650, Note_on_c, 7, 48, 0
9, 100650, Note_on_c, 7, 50, 89
9, 100650, Note_on_c, 7, 38, 80
9, 100680, Note_on_c, 7, 38, 0
9, 100680, Note_on_c, 7, 50, 0
9, 100680, Note_on_c, 7, 46, 104
9, 100680, Note_on_c, 7, 34, 86
9, 100710, Note_on_c, 7, 34, 0
9, 100710, Note_on_c, 7, 46, 0
9, 100710, Note_on_c, 7, 48, 95
9, 100710, Note_on_c, 7, 36, 95
9, 100740, Note_on_c, 7, 36, 0
9, 100740, Note_on_c, 7, 48, 0
9, 100740, Note_on_c, 7, 44, 77
9, 100740, Note_on_c, 7, 32, 84
9, 100770, Note_on_c, 7, 32, 0
9, 100770, Note_on_c, 7, 44, 0
9, 100770, Note_on_c, 7, 34, 93
9, 100770, Note_on_c, 7, 46, 99
9, 100800, Note_on_c, 7, 46, 0
9, 100800, Note_on_c, 7, 34, 0
9, 100800, Note_on_c, 7, 43, 99
9, 100800, Note_on_c, 7, 31, 99
9, 100815, Note_on_c, 7, 43, 0
9, 100830, Note_on_c, 7, 51, 95
9, 100860, Note_on_c, 7, 51, 0
9, 100860, Note_on_c, 7, 46, 99
9, 100890, Note_on_c, 7, 46, 0
9, 100890, Note_on_c, 7, 55, 104
9, 100920, Note_on_c, 7, 55, 0
9, 100920, Note_on_c, 7, 31, 0
9, 100920, Note_on_c, 7, 46, 98
9, 100935, Note_on_c, 7, 46, 0
9, 100950, Note_on_c, 7, 55, 104
9, 100980, Note_on_c, 7, 55, 0
9, 100980, Note_on_c, 7, 51, 104
9, 101010, Note_on_c, 7, 51, 0
9, 101010, Note_on_c, 7, 58, 98
9, 101040, Note_on_c, 7, 58, 0
9, 101040, Note_on_c, 7, 51, 99
9, 101055, Note_on_c, 7, 51, 0
9, 101070, Note_on_c, 7, 58, 94
9, 101100, Note_on_c, 7, 58, 0
9, 101100, Note_on_c, 7, 55, 101
9, 101130, Note_on_c, 7, 55, 0
9, 101130, Note_on_c, 7, 63, 101
9, 101160, Note_on_c, 7, 63, 0
9, 101160, Note_on_c, 7, 55, 99
9, 101175, Note_on_c, 7, 55, 0
9, 101190, Note_on_c, 7, 63, 94
9, 101220, Note_on_c, 7, 63, 0
9, 101220, Note_on_c, 7, 58, 99
9, 101250, Note_on_c, 7, 58, 0
9, 101250, Note_on_c, 7, 67, 99
9, 101280, Note_on_c, 7, 67, 0
9, 101280, Note_on_c, 7, 58, 99
9, 101295, Note_on_c, 7, 58, 0
9, 101310, Note_on_c, 7, 67, 104
9, 101340, Note_on_c, 7, 67, 0
9, 101340, Note_on_c, 7, 63, 101
9, 101370, Note_on_c, 7, 63, 0
9, 101370, Note_on_c, 7, 70, 104
9, 101400, Note_on_c, 7, 70, 0
9, 101400, Note_on_c, 7, 63, 99
9, 101415, Note_on_c, 7, 63, 0
9, 101430, Note_on_c, 7, 70, 98
9, 101460, Note_on_c, 7, 70, 0
9, 101460, Note_on_c, 7, 67, 104
9, 101490, Note_on_c, 7, 67, 0
9, 101490, Note_on_c, 7, 75, 105
9, 101520, Note_on_c, 7, 75, 0
9, 101520, Note_on_c, 7, 67, 99
9, 101535, Note_on_c, 7, 67, 0
9, 101550, Note_on_c, 7, 75, 104
9, 101580, Note_on_c, 7, 75, 0
9, 101580, Note_on_c, 7, 70, 105
9, 101610, Note_on_c, 7, 70, 0
9, 101610, Note_on_c, 7, 79, 105
9, 101640, Note_on_c, 7, 79, 0
9, 101640, Note_on_c, 7, 70, 104
9, 101655, Note_on_c, 7, 70, 0
9, 101670, Note_on_c, 7, 79, 105
9, 101700, Note_on_c, 7, 79, 0
9, 101700, Note_on_c, 7, 31, 99
9, 101700, Note_on_c, 7, 75, 112
9, 101730, Note_on_c, 7, 75, 0
9, 101730, Note_on_c, 7, 82, 104
9, 101760, Note_on_c, 7, 82, 0
9, 101760, Note_on_c, 7, 31, 0
9, 101760, Note_on_c, 7, 48, 105
9, 101760, Note_on_c, 7, 32, 95
9, 101775, Note_on_c, 7, 48, 0
9, 101790, Note_on_c, 7, 56, 99
9, 101820, Note_on_c, 7, 56, 0
9, 101820, Note_on_c, 7, 51, 104
9, 101850, Note_on_c, 7, 51, 0
9, 101850, Note_on_c, 7, 60, 105
9, 101880, Note_on_c, 7, 60, 0
9, 101880, Note_on_c, 7, 32, 0
9, 101880, Note_on_c, 7, 51, 99
9, 101895, Note_on_c, 7, 51, 0
9, 101910, Note_on_c, 7, 60, 104
9, 101940, Note_on_c, 7, 60, 0
9, 101940, Note_on_c, 7, 56, 104
9, 101970, Note_on_c, 7, 56, 0
9, 101970, Note_on_c, 7, 63, 104
9, 102000, Note_on_c, 7, 63, 0
9, 102000, Note_on_c, 7, 56, 99
9, 102015, Note_on_c, 7, 56, 0
9, 102030, Note_on_c, 7, 63, 99
9, 102060, Note_on_c, 7, 63, 0
9, 102060, Note_on_c, 7, 60, 101
9, 102090, Note_on_c, 7, 60, 0
9, 102090, Note_on_c, 7, 68, 104
9, 102120, Note_on_c, 7, 68, 0
9, 102120, Note_on_c, 7, 60, 105
9, 102135, Note_on_c, 7, 60, 0
9, 102150, Note_on_c, 7, 68, 99
9, 102180, Note_on_c, 7, 68, 0
9, 102180, Note_on_c, 7, 63, 101
9, 102210, Note_on_c, 7, 63, 0
9, 102210, Note_on_c, 7, 72, 119
9, 102240, Note_on_c, 7, 72, 0
9, 102240, Note_on_c, 7, 63, 101
9, 102255, Note_on_c, 7, 63, 0
9, 102270, Note_on_c, 7, 72, 101
9, 102300, Note_on_c, 7, 72, 0
9, 102300, Note_on_c, 7, 68, 105
9, 102330, Note_on_c, 7, 68, 0
9, 102330, Note_on_c, 7, 75, 105
9, 102360, Note_on_c, 7, 75, 0
9, 102360, Note_on_c, 7, 68, 104
9, 102375, Note_on_c, 7, 68, 0
9, 102390, Note_on_c, 7, 75, 104
9, 102420, Note_on_c, 7, 75, 0
9, 102420, Note_on_c, 7, 72, 110
9, 102450, Note_on_c, 7, 72, 0
9, 102450, Note_on_c, 7, 80, 105
9, 102480, Note_on_c, 7, 80, 0
9, 102480, Note_on_c, 7, 72, 94
9, 102495, Note_on_c, 7, 72, 0
9, 102510, Note_on_c, 7, 80, 101
9, 102540, Note_on_c, 7, 80, 0
9, 102540, Note_on_c, 7, 75, 105
9, 102570, Note_on_c, 7, 75, 0
9, 102570, Note_on_c, 7, 84, 105
9, 102600, Note_on_c, 7, 84, 0
9, 102600, Note_on_c, 7, 75, 107
9, 102615, Note_on_c, 7, 75, 0
9, 102630, Note_on_c, 7, 84, 104
9, 102660, Note_on_c, 7, 84, 0
9, 102660, Note_on_c, 7, 32, 95
9, 102660, Note_on_c, 7, 80, 105
9, 102690, Note_on_c, 7, 80, 0
9, 102690, Note_on_c, 7, 87, 105
9, 102720, Note_on_c, 7, 87, 0
9, 102720, Note_on_c, 7, 32, 0
9, 102720, Control_c, 7, 64, 87
9, 102720, Note_on_c, 7, 33, 107
9, 102750, Note_on_c, 7, 45, 105
9, 102780, Note_on_c, 7, 45, 0
9, 102780, Note_on_c, 7, 48, 99
9, 102810, Note_on_c, 7, 48, 0
9, 102810, Note_on_c, 7, 51, 98
9, 102840, Note_on_c, 7, 51, 0
9, 102840, Note_on_c, 7, 33, 0
9, 102840, Note_on_c, 7, 54, 99
9, 102870, Note_on_c, 7, 33, 105
9, 102900, Note_on_c, 7, 33, 0
9, 102900, Note_on_c, 7, 36, 110
9, 102930, Note_on_c, 7, 36, 0
9, 102930, Note_on_c, 7, 39, 99
9, 102960, Note_on_c, 7, 39, 0
9, 102960, Note_on_c, 7, 54, 0
9, 102960, Note_on_c, 7, 42, 101
9, 102990, Note_on_c, 7, 57, 104
9, 103020, Note_on_c, 7, 57, 0
9, 103020, Note_on_c, 7, 60, 101
9, 103050, Note_on_c, 7, 60, 0
9, 103050, Note_on_c, 7, 63, 119
9, 103080, Note_on_c, 7, 63, 0
9, 103080, Note_on_c, 7, 42, 0
9, 103080, Note_on_c, 7, 66, 104
9, 103110, Note_on_c, 7, 66, 0
9, 103110, Note_on_c, 7, 57, 99
9, 103110, Note_on_c, 7, 45, 105
9, 103140, Note_on_c, 7, 45, 0
9, 103140, Note_on_c, 7, 57, 0
9, 103140, Note_on_c, 7, 60, 99
9, 103140, Note_on_c, 7, 48, 101
9, 103170, Note_on_c, 7, 48, 0
9, 103170, Note_on_c, 7, 60, 0
9, 103170, Note_on_c, 7, 51, 99
9, 103170, Note_on_c, 7, 63, 98
9, 103200, Note_on_c, 7, 63, 0
9, 103200, Note_on_c, 7, 51, 0
9, 103200, Note_on_c, 7, 66, 101
9, 103200, Note_on_c, 7, 54, 94
9, 103230, Note_on_c, 7, 54, 0
9, 103230, Note_on_c, 7, 66, 0
9, 103230, Note_on_c, 7, 69, 99
9, 103230, Note_on_c, 7, 57, 110
9, 103260, Note_on_c, 7, 57, 0
9, 103260, Note_on_c, 7, 69, 0
9, 103260, Note_on_c, 7, 72, 105
9, 103260, Note_on_c, 7, 60, 105
9, 103290, Note_on_c, 7, 60, 0
9, 103290, Note_on_c, 7, 72, 0
9, 103290, Note_on_c, 7, 75, 104
9, 103290, Note_on_c, 7, 63, 98
9, 103320, Note_on_c, 7, 63, 0
9, 103320, Note_on_c, 7, 75, 0
9, 103320, Note_on_c, 7, 78, 95
9, 103320, Note_on_c, 7, 66, 104
9, 103350, Note_on_c, 7, 66, 0
9, 103350, Note_on_c, 7, 78, 0
9, 103350, Note_on_c, 7, 69, 90
9, 103350, Note_on_c, 7, 57, 110
9, 103380, Note_on_c, 7, 57, 0
9, 103380, Note_on_c, 7, 69, 0
9, 103380, Note_on_c, 7, 72, 104
9, 103380, Note_on_c, 7, 60, 104
9, 103410, Note_on_c, 7, 60, 0
9, 103410, Note_on_c, 7, 72, 0
9, 103410, Note_on_c, 7, 75, 99
9, 103410, Note_on_c, 7, 63, 95
9, 103440, Note_on_c, 7, 63, 0
9, 103440, Note_on_c, 7, 75, 0
9, 103440, Note_on_c, 7, 78, 89
9, 103440, Note_on_c, 7, 66, 95
9, 103470, Note_on_c, 7, 66, 0
9, 103470, Note_on_c, 7, 78, 0
9, 103470, Note_on_c, 7, 81, 104
9, 103470, Note_on_c, 7, 69, 95
9, 103500, Note_on_c, 7, 69, 0
9, 103500, Note_on_c, 7, 81, 0
9, 103500, Note_on_c, 7, 84, 104
9, 103500, Note_on_c, 7, 72, 105
9, 103530, Note_on_c, 7, 72, 0
9, 103530, Note_on_c, 7, 84, 0
9, 103530, Note_on_c, 7, 87, 105
9, 103530, Note_on_c, 7, 75, 105
9, 103560, Note_on_c, 7, 75, 0
9, 103560, Note_on_c, 7, 87, 0
9, 103560, Note_on_c, 7, 90, 98
9, 103560, Note_on_c, 7, 78, 84
9, 103590, Note_on_c, 7, 78, 0
9, 103590, Note_on_c, 7, 90, 0
9, 103590, Note_on_c, 7, 87, 110
9, 103590, Note_on_c, 7, 75, 105
9, 103620, Note_on_c, 7, 75, 0
9, 103620, Note_on_c, 7, 87, 0
9, 103620, Note_on_c, 7, 84, 107
9, 103620, Note_on_c, 7, 72, 85
9, 103650, Note_on_c, 7, 72, 0
9, 103650, Note_on_c, 7, 84, 0
9, 103650, Note_on_c, 7, 69, 105
9, 103650, Note_on_c, 7, 81, 105
9, 103670, Control_c, 7, 64, 82
9, 103675, Control_c, 7, 64, 41
9, 103680, Note_on_c, 7, 81, 0
9, 103680, Note_on_c, 7, 69, 0
9, 103680, Control_c, 7, 64, 0
9, 103680, Note_on_c, 7, 82, 84
9, 103680, Note_on_c, 7, 70, 105
9, 103710, Note_on_c, 7, 82, 0
9, 103710, Note_on_c, 7, 86, 107
9, 103740, Note_on_c, 7, 86, 0
9, 103740, Note_on_c, 7, 87, 110
9, 103770, Note_on_c, 7, 87, 0
9, 103770, Note_on_c, 7, 86, 112
9, 103800, Note_on_c, 7, 86, 0
9, 103800, Note_on_c, 7, 70, 0
9, 103800, Note_on_c, 7, 87, 104
9, 103860, Note_on_c, 7, 79, 89
9, 103860, Note_on_c, 7, 75, 99
9, 103860, Note_on_c, 7, 70, 99
9, 103890, Note_on_c, 7, 70, 0
9, 103890, Note_on_c, 7, 75, 0
9, 103890, Note_on_c, 7, 79, 0
9, 103920, Note_on_c, 7, 87, 0
9, 103920, Note_on_c, 7, 80, 89
9, 103920, Note_on_c, 7, 75, 105
9, 103920, Note_on_c, 7, 72, 82
9, 103950, Note_on_c, 7, 86, 110
9, 103980, Note_on_c, 7, 86, 0
9, 103980, Note_on_c, 7, 80, 0
9, 103980, Note_on_c, 7, 75, 0
9, 103980, Note_on_c, 7, 72, 0
9, 103980, Note_on_c, 7, 87, 104
9, 104010, Note_on_c, 7, 87, 0
9, 104010, Note_on_c, 7, 86, 107
9, 104040, Note_on_c, 7, 86, 0
9, 104040, Note_on_c, 7, 87, 105
9, 104100, Note_on_c, 7, 80, 94
9, 104100, Note_on_c, 7, 75, 107
9, 104100, Note_on_c, 7, 72, 85
9, 104130, Note_on_c, 7, 72, 0
9, 104130, Note_on_c, 7, 75, 0
9, 104130, Note_on_c, 7, 80, 0
9, 104160, Note_on_c, 7, 87, 0
9, 104160, Note_on_c, 7, 79, 93
9, 104160, Note_on_c, 7, 75, 105
9, 104160, Note_on_c, 7, 70, 98
9, 104190, Note_on_c, 7, 86, 112
9, 104220, Note_on_c, 7, 86, 0
9, 104220, Note_on_c, 7, 79, 0
9, 104220, Note_on_c, 7, 75, 0
9, 104220, Note_on_c, 7, 70, 0
9, 104220, Note_on_c, 7, 87, 105
9, 104250, Note_on_c, 7, 87, 0
9, 104250, Note_on_c, 7, 86, 112
9, 104280, Note_on_c, 7, 86, 0
9, 104280, Note_on_c, 7, 87, 105
9, 104340, Note_on_c, 7, 79, 93
9, 104340, Note_on_c, 7, 75, 105
9, 104340, Note_on_c, 7, 70, 99
9, 104370, Note_on_c, 7, 70, 0
9, 104370, Note_on_c, 7, 75, 0
9, 104370, Note_on_c, 7, 79, 0
9, 104400, Note_on_c, 7, 87, 0
9, 104400, Note_on_c, 7, 78, 89
9, 104400, Note_on_c, 7, 75, 105
9, 104400, Note_on_c, 7, 69, 101
9, 104430, Note_on_c, 7, 86, 112
9, 104460, Note_on_c, 7, 86, 0
9, 104460, Note_on_c, 7, 78, 0
9, 104460, Note_on_c, 7, 75, 0
9, 104460, Note_on_c, 7, 69, 0
9, 104460, Note_on_c, 7, 87, 104
9, 104490, Note_on_c, 7, 87, 0
9, 104490, Note_on_c, 7, 86, 112
9, 104520, Note_on_c, 7, 86, 0
9, 104520, Note_on_c, 7, 87, 105
9, 104550, Note_on_c, 7, 87, 0
9, 104550, Note_on_c, 7, 86, 112
9, 104580, Note_on_c, 7, 86, 0
9, 104580, Note_on_c, 7, 87, 110
9, 104580, Note_on_c, 7, 78, 86
9, 104580, Note_on_c, 7, 75, 105
9, 104580, Note_on_c, 7, 69, 104
9, 104610, Note_on_c, 7, 69, 0
9, 104610, Note_on_c, 7, 87, 0
9, 104610, Note_on_c, 7, 78, 0
9, 104610, Note_on_c, 7, 75, 0
9, 104610, Note_on_c, 7, 86, 112
9, 104640, Note_on_c, 7, 86, 0
9, 104640, Note_on_c, 7, 87, 81
9, 104640, Note_on_c, 7, 79, 40
9, 104640, Note_on_c, 7, 75, 61
9, 104640, Note_on_c, 7, 70, 46
9, 104700, Note_on_c, 7, 87, 0
9, 104700, Note_on_c, 7, 89, 86
9, 104730, Note_on_c, 7, 89, 0
9, 104730, Note_on_c, 7, 87, 89
9, 104760, Note_on_c, 7, 87, 0
9, 104760, Note_on_c, 7, 79, 0
9, 104760, Note_on_c, 7, 75, 0
9, 104760, Note_on_c, 7, 70, 0
9, 104760, Note_on_c, 7, 89, 84
9, 104780, Note_on_c, 7, 89, 0
9, 104780, Note_on_c, 7, 87, 86
9, 104800, Note_on_c, 7, 87, 0
9, 104800, Note_on_c, 7, 89, 86
9, 104820, Note_on_c, 7, 89, 0
9, 104820, Note_on_c, 7, 87, 78
9, 104840, Note_on_c, 7, 87, 0
9, 104840, Note_on_c, 7, 89, 68
9, 104860, Note_on_c, 7, 89, 0
9, 104860, Note_on_c, 7, 87, 77
9, 104880, Note_on_c, 7, 87, 0
9, 104880, Note_on_c, 7, 89, 69
9, 104900, Note_on_c, 7, 89, 0
9, 104900, Note_on_c, 7, 87, 78
9, 104920, Note_on_c, 7, 87, 0
9, 104920, Note_on_c, 7, 89, 78
9, 104940, Note_on_c, 7, 89, 0
9, 104940, Note_on_c, 7, 87, 74
9, 104960, Note_on_c, 7, 87, 0
9, 104960, Note_on_c, 7, 89, 67
9, 104980, Note_on_c, 7, 89, 0
9, 104980, Note_on_c, 7, 87, 76
9, 105000, Note_on_c, 7, 87, 0
9, 105000, Note_on_c, 7, 89, 86
9, 105020, Note_on_c, 7, 89, 0
9, 105020, Note_on_c, 7, 87, 68
9, 105040, Note_on_c, 7, 87, 0
9, 105040, Note_on_c, 7, 89, 74
9, 105060, Note_on_c, 7, 89, 0
9, 105060, Note_on_c, 7, 87, 81
9, 105080, Note_on_c, 7, 87, 0
9, 105080, Note_on_c, 7, 89, 82
9, 105100, Note_on_c, 7, 89, 0
9, 105100, Note_on_c, 7, 87, 78
9, 105120, Note_on_c, 7, 87, 0
9, 105120, Note_on_c, 7, 89, 84
9, 105140, Note_on_c, 7, 89, 0
9, 105140, Note_on_c, 7, 87, 84
9, 105160, Note_on_c, 7, 87, 0
9, 105160, Note_on_c, 7, 89, 86
9, 105180, Note_on_c, 7, 89, 0
9, 105180, Note_on_c, 7, 87, 84
9, 105200, Note_on_c, 7, 87, 0
9, 105200, Note_on_c, 7, 89, 81
9, 105220, Note_on_c, 7, 89, 0
9, 105220, Note_on_c, 7, 87, 86
9, 105240, Note_on_c, 7, 87, 0
9, 105240, Note_on_c, 7, 89, 84
9, 105260, Note_on_c, 7, 89, 0
9, 105260, Note_on_c, 7, 87, 76
9, 105280, Note_on_c, 7, 87, 0
9, 105280, Note_on_c, 7, 89, 68
9, 105300, Note_on_c, 7, 89, 0
9, 105300, Note_on_c, 7, 87, 72
9, 105320, Note_on_c, 7, 87, 0
9, 105320, Note_on_c, 7, 89, 65
9, 105340, Note_on_c, 7, 89, 0
9, 105340, Note_on_c, 7, 87, 80
9, 105360, Note_on_c, 7, 87, 0
9, 105360, Note_on_c, 7, 89, 74
9, 105380, Note_on_c, 7, 89, 0
9, 105380, Note_on_c, 7, 87, 80
9, 105400, Note_on_c, 7, 87, 0
9, 105400, Note_on_c, 7, 89, 73
9, 105420, Note_on_c, 7, 89, 0
9, 105420, Note_on_c, 7, 87, 77
9, 105440, Note_on_c, 7, 87, 0
9, 105440, Note_on_c, 7, 89, 76
9, 105460, Note_on_c, 7, 89, 0
9, 105460, Note_on_c, 7, 87, 78
9, 105480, Note_on_c, 7, 87, 0
9, 105480, Note_on_c, 7, 89, 80
9, 105510, Note_on_c, 7, 89, 0
9, 105510, Note_on_c, 7, 87, 74
9, 105540, Note_on_c, 7, 87, 0
9, 105540, Note_on_c, 7, 89, 84
9, 105560, Note_on_c, 7, 89, 0
9, 105560, Note_on_c, 7, 87, 71
9, 105580, Note_on_c, 7, 87, 0
9, 105580, Note_on_c, 7, 89, 84
9, 105600, Note_on_c, 7, 89, 0
9, 105600, Note_on_c, 7, 87, 80
9, 105620, Note_on_c, 7, 87, 0
9, 105620, Note_on_c, 7, 89, 84
9, 105640, Note_on_c, 7, 89, 0
9, 105640, Note_on_c, 7, 87, 80
9, 105660, Note_on_c, 7, 87, 0
9, 105660, Note_on_c, 7, 89, 84
9, 105680, Note_on_c, 7, 89, 0
9, 105680, Note_on_c, 7, 87, 81
9, 105700, Note_on_c, 7, 87, 0
9, 105700, Note_on_c, 7, 89, 77
9, 105720, Note_on_c, 7, 89, 0
9, 105720, Note_on_c, 7, 87, 72
9, 105750, Note_on_c, 7, 87, 0
9, 105750, Note_on_c, 7, 89, 82
9, 105780, Note_on_c, 7, 89, 0
9, 105780, Note_on_c, 7, 87, 85
9, 105800, Note_on_c, 7, 87, 0
9, 105800, Note_on_c, 7, 89, 76
9, 105820, Note_on_c, 7, 89, 0
9, 105820, Note_on_c, 7, 87, 80
9, 105840, Note_on_c, 7, 87, 0
9, 105840, Note_on_c, 7, 89, 73
9, 105860, Note_on_c, 7, 89, 0
9, 105860, Note_on_c, 7, 87, 80
9, 105880, Note_on_c, 7, 87, 0
9, 105880, Note_on_c, 7, 89, 84
9, 105900, Note_on_c, 7, 89, 0
9, 105900, Note_on_c, 7, 87, 76
9, 105920, Note_on_c, 7, 87, 0
9, 105920, Note_on_c, 7, 89, 84
9, 105940, Note_on_c, 7, 89, 0
9, 105940, Note_on_c, 7, 87, 76
9, 105960, Note_on_c, 7, 87, 0
9, 105960, Note_on_c, 7, 89, 84
9, 105980, Note_on_c, 7, 89, 0
9, 105980, Note_on_c, 7, 87, 84
9, 106000, Note_on_c, 7, 87, 0
9, 106000, Note_on_c, 7, 89, 81
9, 106020, Note_on_c, 7, 89, 0
9, 106020, Note_on_c, 7, 87, 85
9, 106040, Note_on_c, 7, 87, 0
9, 106040, Note_on_c, 7, 89, 84
9, 106060, Note_on_c, 7, 89, 0
9, 106060, Note_on_c, 7, 87, 89
9, 106080, Note_on_c, 7, 87, 0
9, 106080, Note_on_c, 7, 87, 81
9, 106100, Note_on_c, 7, 87, 0
9, 106100, Note_on_c, 7, 89, 94
9, 106120, Note_on_c, 7, 89, 0
9, 106120, Note_on_c, 7, 87, 86
9, 106140, Note_on_c, 7, 87, 0
9, 106140, Note_on_c, 7, 89, 85
9, 106160, Note_on_c, 7, 89, 0
9, 106160, Note_on_c, 7, 87, 86
9, 106180, Note_on_c, 7, 87, 0
9, 106180, Note_on_c, 7, 89, 86
9, 106200, Note_on_c, 7, 89, 0
9, 106200, Note_on_c, 7, 87, 86
9, 106220, Note_on_c, 7, 87, 0
9, 106220, Note_on_c, 7, 89, 80
9, 106240, Note_on_c, 7, 89, 0
9, 106240, Note_on_c, 7, 87, 89
9, 106260, Note_on_c, 7, 87, 0
9, 106260, Note_on_c, 7, 89, 81
9, 106280, Note_on_c, 7, 89, 0
9, 106280, Note_on_c, 7, 87, 84
9, 106300, Note_on_c, 7, 87, 0
9, 106300, Note_on_c, 7, 89, 93
9, 106320, Note_on_c, 7, 89, 0
9, 106320, Note_on_c, 7, 88, 89
9, 106340, Note_on_c, 7, 88, 0
9, 106340, Note_on_c, 7, 89, 81
9, 106360, Note_on_c, 7, 89, 0
9, 106360, Note_on_c, 7, 88, 85
9, 106380, Note_on_c, 7, 88, 0
9, 106380, Note_on_c, 7, 89, 89
9, 106400, Note_on_c, 7, 89, 0
9, 106400, Note_on_c, 7, 88, 86
9, 106420, Note_on_c, 7, 88, 0
9, 106420, Note_on_c, 7, 89, 82
9, 106440, Note_on_c, 7, 89, 0
9, 106440, Note_on_c, 7, 88, 89
9, 106460, Note_on_c, 7, 88, 0
9, 106460, Note_on_c, 7, 89, 80
9, 106480, Note_on_c, 7, 89, 0
9, 106480, Note_on_c, 7, 88, 85
9, 106500, Note_on_c, 7, 88, 0
9, 106500, Note_on_c, 7, 89, 86
9, 106520, Note_on_c, 7, 89, 0
9, 106520, Note_on_c, 7, 88, 93
9, 106540, Note_on_c, 7, 88, 0
9, 106540, Note_on_c, 7, 89, 86
9, 106560, Note_on_c, 7, 89, 0
9, 106560, Note_on_c, 7, 89, 94
9, 106590, Note_on_c, 7, 89, 0
9, 106590, Note_on_c, 7, 91, 84
9, 106600, Note_on_c, 7, 34, 80
9, 106620, Note_on_c, 7, 34, 0
9, 106620, Note_on_c, 7, 91, 0
9, 106620, Note_on_c, 7, 89, 94
9, 106640, Note_on_c, 7, 89, 0
9, 106640, Note_on_c, 7, 91, 80
9, 106640, Note_on_c, 7, 38, 60
9, 106660, Note_on_c, 7, 38, 0
9, 106660, Note_on_c, 7, 91, 0
9, 106660, Note_on_c, 7, 89, 93
9, 106680, Note_on_c, 7, 89, 0
9, 106680, Note_on_c, 7, 91, 82
9, 106680, Note_on_c, 7, 41, 72
9, 106700, Note_on_c, 7, 41, 0
9, 106700, Note_on_c, 7, 91, 0
9, 106700, Note_on_c, 7, 89, 89
9, 106720, Note_on_c, 7, 89, 0
9, 106720, Note_on_c, 7, 91, 84
9, 106720, Note_on_c, 7, 46, 78
9, 106740, Note_on_c, 7, 46, 0
9, 106740, Note_on_c, 7, 91, 0
9, 106740, Note_on_c, 7, 89, 86
9, 106760, Note_on_c, 7, 89, 0
9, 106760, Note_on_c, 7, 91, 80
9, 106760, Note_on_c, 7, 50, 85
9, 106780, Note_on_c, 7, 50, 0
9, 106780, Note_on_c, 7, 91, 0
9, 106780, Note_on_c, 7, 89, 89
9, 106800, Note_on_c, 7, 89, 0
9, 106800, Note_on_c, 7, 91, 82
9, 106800, Note_on_c, 7, 53, 62
9, 106820, Note_on_c, 7, 53, 0
9, 106820, Note_on_c, 7, 91, 0
9, 106820, Note_on_c, 7, 89, 94
9, 106840, Note_on_c, 7, 89, 0
9, 106840, Note_on_c, 7, 91, 81
9, 106840, Note_on_c, 7, 46, 67
9, 106860, Note_on_c, 7, 46, 0
9, 106860, Note_on_c, 7, 91, 0
9, 106860, Note_on_c, 7, 89, 89
9, 106880, Note_on_c, 7, 89, 0
9, 106880, Note_on_c, 7, 91, 84
9, 106880, Note_on_c, 7, 50, 93
9, 106900, Note_on_c, 7, 50, 0
9, 106900, Note_on_c, 7, 91, 0
9, 106900, Note_on_c, 7, 89, 94
9, 106920, Note_on_c, 7, 89, 0
9, 106920, Note_on_c, 7, 91, 81
9, 106920, Note_on_c, 7, 53, 53
9, 106940, Note_on_c, 7, 53, 0
9, 106940, Note_on_c, 7, 91, 0
9, 106940, Note_on_c, 7, 89, 94
9, 106960, Note_on_c, 7, 89, 0
9, 106960, Note_on_c, 7, 91, 86
9, 106960, Note_on_c, 7, 58, 71
9, 106980, Note_on_c, 7, 58, 0
9, 106980, Note_on_c, 7, 91, 0
9, 106980, Note_on_c, 7, 89, 95
9, 107000, Note_on_c, 7, 89, 0
9, 107000, Note_on_c, 7, 91, 86
9, 107000, Note_on_c, 7, 62, 68
9, 107020, Note_on_c, 7, 62, 0
9, 107020, Note_on_c, 7, 91, 0
9, 107020, Note_on_c, 7, 89, 95
9, 107040, Note_on_c, 7, 89, 0
9, 107040, Note_on_c, 7, 91, 81
9, 107040, Note_on_c, 7, 65, 73
9, 107060, Note_on_c, 7, 65, 0
9, 107060, Note_on_c, 7, 91, 0
9, 107060, Note_on_c, 7, 89, 86
9, 107080, Note_on_c, 7, 89, 0
9, 107080, Note_on_c, 7, 91, 81
9, 107080, Note_on_c, 7, 58, 81
9, 107100, Note_on_c, 7, 58, 0
9, 107100, Note_on_c, 7, 91, 0
9, 107100, Note_on_c, 7, 89, 86
9, 107120, Note_on_c, 7, 89, 0
9, 107120, Note_on_c, 7, 91, 80
9, 107120, Note_on_c, 7, 62, 89
9, 107140, Note_on_c, 7, 62, 0
9, 107140, Note_on_c, 7, 91, 0
9, 107140, Note_on_c, 7, 89, 86
9, 107160, Note_on_c, 7, 89, 0
9, 107160, Note_on_c, 7, 91, 81
9, 107160, Note_on_c, 7, 65, 99
9, 107180, Note_on_c, 7, 65, 0
9, 107180, Note_on_c, 7, 91, 0
9, 107180, Note_on_c, 7, 89, 94
9, 107200, Note_on_c, 7, 89, 0
9, 107200, Note_on_c, 7, 91, 80
9, 107200, Note_on_c, 7, 70, 86
9, 107220, Note_on_c, 7, 70, 0
9, 107220, Note_on_c, 7, 91, 0
9, 107220, Note_on_c, 7, 89, 90
9, 107240, Note_on_c, 7, 89, 0
9, 107240, Note_on_c, 7, 91, 89
9, 107240, Note_on_c, 7, 74, 94
9, 107260, Note_on_c, 7, 74, 0
9, 107260, Note_on_c, 7, 91, 0
9, 107260, Note_on_c, 7, 89, 95
9, 107280, Note_on_c, 7, 89, 0
9, 107280, Note_on_c, 7, 91, 86
9, 107280, Note_on_c, 7, 77, 69
9, 107300, Note_on_c, 7, 77, 0
9, 107300, Note_on_c, 7, 91, 0
9, 107300, Note_on_c, 7, 89, 95
9, 107320, Note_on_c, 7, 89, 0
9, 107320, Note_on_c, 7, 91, 82
9, 107320, Note_on_c, 7, 74, 104
9, 107340, Note_on_c, 7, 74, 0
9, 107340, Note_on_c, 7, 91, 0
9, 107340, Note_on_c, 7, 89, 93
9, 107360, Note_on_c, 7, 89, 0
9, 107360, Note_on_c, 7, 91, 86
9, 107360, Note_on_c, 7, 70, 89
9, 107380, Note_on_c, 7, 70, 0
9, 107380, Note_on_c, 7, 91, 0
9, 107380, Note_on_c, 7, 89, 93
9, 107400, Note_on_c, 7, 89, 0
9, 107400, Note_on_c, 7, 91, 84
9, 107400, Note_on_c, 7, 80, 61
9, 107420, Note_on_c, 7, 80, 0
9, 107420, Note_on_c, 7, 91, 0
9, 107420, Note_on_c, 7, 89, 89
9, 107440, Note_on_c, 7, 89, 0
9, 107440, Note_on_c, 7, 91, 89
9, 107440, Note_on_c, 7, 77, 94
9, 107460, Note_on_c, 7, 77, 0
9, 107460, Note_on_c, 7, 91, 0
9, 107460, Note_on_c, 7, 89, 94
9, 107480, Note_on_c, 7, 89, 0
9, 107480, Note_on_c, 7, 91, 89
9, 107480, Note_on_c, 7, 74, 95
9, 107500, Note_on_c, 7, 74, 0
9, 107500, Note_on_c, 7, 91, 0
9, 107500, Note_on_c, 7, 89, 90
9, 107520, Note_on_c, 7, 89, 0
9, 107520, Note_on_c, 7, 94, 94
9, 107520, Note_on_c, 7, 80, 99
9, 107520, Note_on_c, 7, 74, 99
9, 107520, Note_on_c, 7, 70, 101
9, 107540, Note_on_c, 7, 94, 0
9, 107540, Note_on_c, 7, 96, 105
9, 107560, Note_on_c, 7, 96, 0
9, 107560, Note_on_c, 7, 94, 93
9, 107580, Note_on_c, 7, 94, 0
9, 107580, Note_on_c, 7, 96, 98
9, 107595, Note_on_c, 7, 96, 0
9, 107595, Note_on_c, 7, 94, 95
9, 107610, Note_on_c, 7, 94, 0
9, 107610, Note_on_c, 7, 96, 99
9, 107625, Note_on_c, 7, 96, 0
9, 107625, Note_on_c, 7, 94, 95
9, 107640, Note_on_c, 7, 94, 0
9, 107640, Note_on_c, 7, 80, 0
9, 107640, Note_on_c, 7, 74, 0
9, 107640, Note_on_c, 7, 70, 0
9, 107640, Note_on_c, 7, 94, 80
9, 107660, Note_on_c, 7, 94, 0
9, 107660, Note_on_c, 7, 96, 84
9, 107680, Note_on_c, 7, 96, 0
9, 107680, Note_on_c, 7, 94, 85
9, 107700, Note_on_c, 7, 94, 0
9, 107700, Note_on_c, 7, 96, 84
9, 107720, Note_on_c, 7, 96, 0
9, 107720, Note_on_c, 7, 94, 82
9, 107740, Note_on_c, 7, 94, 0
9, 107740, Note_on_c, 7, 96, 86
9, 107760, Note_on_c, 7, 96, 0
9, 107760, Note_on_c, 7, 94, 98
9, 107790, Note_on_c, 7, 94, 0
9, 107790, Note_on_c, 7, 92, 99
9, 107820, Note_on_c, 7, 92, 0
9, 107820, Note_on_c, 7, 91, 105
9, 107850, Note_on_c, 7, 91, 0
9, 107850, Note_on_c, 7, 89, 110
9, 107880, Note_on_c, 7, 89, 0
9, 107880, Note_on_c, 7, 87, 104
9, 107910, Note_on_c, 7, 87, 0
9, 107910, Note_on_c, 7, 86, 110
9, 107940, Note_on_c, 7, 86, 0
9, 107940, Note_on_c, 7, 84, 99
9, 107970, Note_on_c, 7, 84, 0
9, 107970, Note_on_c, 7, 82, 99
9, 108000, Note_on_c, 7, 82, 0
9, 108000, Note_on_c, 7, 80, 104
9, 108030, Note_on_c, 7, 80, 0
9, 108030, Note_on_c, 7, 79, 99
9, 108060, Note_on_c, 7, 79, 0
9, 108060, Note_on_c, 7, 77, 93
9, 108090, Note_on_c, 7, 77, 0
9, 108090, Note_on_c, 7, 75, 104
9, 108120, Note_on_c, 7, 75, 0
9, 108120, Note_on_c, 7, 74, 112
9, 108150, Note_on_c, 7, 74, 0
9, 108150, Note_on_c, 7, 72, 119
9, 108180, Note_on_c, 7, 72, 0
9, 108180, Note_on_c, 7, 70, 99
9, 108210, Note_on_c, 7, 70, 0
9, 108210, Note_on_c, 7, 68, 95
9, 108240, Note_on_c, 7, 68, 0
9, 108240, Note_on_c, 7, 67, 101
9, 108255, Note_on_c, 7, 67, 0
9, 108255, Note_on_c, 7, 65, 101
9, 108270, Note_on_c, 7, 65, 0
9, 108270, Note_on_c, 7, 63, 98
9, 108285, Note_on_c, 7, 63, 0
9, 108285, Note_on_c, 7, 62, 99
9, 108300, Note_on_c, 7, 62, 0
9, 108300, Note_on_c, 7, 60, 101
9, 108315, Note_on_c, 7, 60, 0
9, 108315, Note_on_c, 7, 58, 99
9, 108330, Note_on_c, 7, 58, 0
9, 108330, Note_on_c, 7, 56, 99
9, 108345, Note_on_c, 7, 56, 0
9, 108345, Note_on_c, 7, 55, 105
9, 108360, Note_on_c, 7, 55, 0
9, 108360, Note_on_c, 7, 53, 99
9, 108375, Note_on_c, 7, 53, 0
9, 108375, Note_on_c, 7, 51, 95
9, 108390, Note_on_c, 7, 51, 0
9, 108390, Note_on_c, 7, 50, 107
9, 108405, Note_on_c, 7, 50, 0
9, 108405, Note_on_c, 7, 48, 99
9, 108420, Note_on_c, 7, 48, 0
9, 108420, Note_on_c, 7, 46, 98
9, 108435, Note_on_c, 7, 46, 0
9, 108435, Note_on_c, 7, 44, 94
9, 108450, Note_on_c, 7, 44, 0
9, 108450, Note_on_c, 7, 43, 98
9, 108465, Note_on_c, 7, 43, 0
9, 108465, Note_on_c, 7, 41, 99
9, 108480, Note_on_c, 7, 41, 0
9, 108480, Note_on_c, 7, 39, 125
9, 108510, Note_on_c, 7, 39, 0
9, 119310, Note_on_c, 7, 50, 93
9, 119310, Note_on_c, 7, 38, 86
9, 119340, Note_on_c, 7, 38, 0
9, 119340, Note_on_c, 7, 50, 0
9, 119340, Note_on_c, 7, 52, 98
9, 119340, Note_on_c, 7, 40, 94
9, 119370, Note_on_c, 7, 40, 0
9, 119370, Note_on_c, 7, 52, 0
9, 119370, Note_on_c, 7, 54, 90
9, 119370, Note_on_c, 7, 42, 86
9, 119400, Note_on_c, 7, 42, 0
9, 119400, Note_on_c, 7, 54, 0
9, 119400, Note_on_c, 7, 55, 86
9, 119400, Note_on_c, 7, 43, 94
9, 119430, Note_on_c, 7, 43, 0
9, 119430, Note_on_c, 7, 55, 0
9, 119430, Note_on_c, 7, 57, 105
9, 119430, Note_on_c, 7, 45, 89
9, 119460, Note_on_c, 7, 45, 0
9, 119460, Note_on_c, 7, 57, 0
9, 119460, Note_on_c, 7, 59, 94
9, 119460, Note_on_c, 7, 47, 90
9, 119490, Note_on_c, 7, 47, 0
9, 119490, Note_on_c, 7, 59, 0
9, 119490, Note_on_c, 7, 61, 90
9, 119490, Note_on_c, 7, 49, 89
9, 119520, Note_on_c, 7, 49, 0
9, 119520, Note_on_c, 7, 61, 0
9, 119520, Note_on_c, 7, 62, 115
9, 119520, Note_on_c, 7, 50, 117
9, 119580, Note_on_c, 7, 50, 0
9, 119580, Note_on_c, 7, 62, 0
9, 119790, Note_on_c, 7, 62, 89
9, 119790, Note_on_c, 7, 50, 90
9, 119820, Note_on_c, 7, 50, 0
9, 119820, Note_on_c, 7, 62, 0
9, 119820, Note_on_c, 7, 64, 99
9, 119820, Note_on_c, 7, 52, 94
9, 119850, Note_on_c, 7, 52, 0
9, 119850, Note_on_c, 7, 64, 0
9, 119850, Note_on_c, 7, 66, 94
9, 119850, Note_on_c, 7, 54, 89
9, 119880, Note_on_c, 7, 54, 0
9, 119880, Note_on_c, 7, 66, 0
9, 119880, Note_on_c, 7, 67, 89
9, 119880, Note_on_c, 7, 55, 93
9, 119910, Note_on_c, 7, 55, 0
9, 119910, Note_on_c, 7, 67, 0
9, 119910, Note_on_c, 7, 69, 99
9, 119910, Note_on_c, 7, 57, 98
9, 119940, Note_on_c, 7, 57, 0
9, 119940, Note_on_c, 7, 69, 0
9, 119940, Note_on_c, 7, 71, 99
9, 119940, Note_on_c, 7, 59, 101
9, 119970, Note_on_c, 7, 59, 0
9, 119970, Note_on_c, 7, 71, 0
9, 119970, Note_on_c, 7, 73, 85
9, 119970, Note_on_c, 7, 61, 89
9, 120000, Note_on_c, 7, 61, 0
9, 120000, Note_on_c, 7, 73, 0
9, 120000, Note_on_c, 7, 74, 119
9, 120000, Note_on_c, 7, 62, 115
9, 120060, Note_on_c, 7, 62, 0
9, 120060, Note_on_c, 7, 74, 0
9, 120270, Note_on_c, 7, 74, 94
9, 120270, Note_on_c, 7, 62, 89
9, 120300, Note_on_c, 7, 62, 0
9, 120300, Note_on_c, 7, 74, 0
9, 120300, Note_on_c, 7, 76, 104
9, 120300, Note_on_c, 7, 64, 94
9, 120330, Note_on_c, 7, 64, 0
9, 120330, Note_on_c, 7, 76, 0
9, 120330, Note_on_c, 7, 78, 93
9, 120330, Note_on_c, 7, 66, 86
9, 120360, Note_on_c, 7, 66, 0
9, 120360, Note_on_c, 7, 78, 0
9, 120360, Note_on_c, 7, 79, 89
9, 120360, Note_on_c, 7, 67, 94
9, 120390, Note_on_c, 7, 67, 0
9, 120390, Note_on_c, 7, 79, 0
9, 120390, Note_on_c, 7, 81, 98
9, 120390, Note_on_c, 7, 69, 93
9, 120420, Note_on_c, 7, 69, 0
9, 120420, Note_on_c, 7, 81, 0
9, 120420, Note_on_c, 7, 83, 99
9, 120420, Note_on_c, 7, 71, 95
9, 120450, Note_on_c, 7, 71, 0
9, 120450, Note_on_c, 7, 83, 0
9, 120450, Note_on_c, 7, 85, 93
9, 120450, Note_on_c, 7, 73, 98
9, 120480, Note_on_c, 7, 73, 0
9, 120480, Note_on_c, 7, 85, 0
9, 120480, Note_on_c, 7, 86, 112
9, 120480, Note_on_c, 7, 74, 107
9, 120540, Note_on_c, 7, 74, 0
9, 120540, Note_on_c, 7, 86, 0
9, 120660, Note_on_c, 7, 81, 110
9, 120660, Note_on_c, 7, 69, 105
9, 120690, Note_on_c, 7, 69, 0
9, 120690, Note_on_c, 7, 81, 0
9, 120720, Note_on_c, 7, 86, 112
9, 120720, Note_on_c, 7, 74, 107
9, 120780, Note_on_c, 7, 74, 0
9, 120780, Note_on_c, 7, 86, 0
9, 120900, Note_on_c, 7, 81, 110
9, 120900, Note_on_c, 7, 69, 107
9, 120930, Note_on_c, 7, 69, 0
9, 120930, Note_on_c, 7, 81, 0
9, 120960, Note_on_c, 7, 86, 112
9, 120960, Note_on_c, 7, 74, 115
9, 121020, Note_on_c, 7, 74, 0
9, 121020, Note_on_c, 7, 86, 0
9, 122880, Note_on_c, 7, 79, 54
9, 122880, Note_on_c, 7, 67, 62
9, 122880, Note_on_c, 7, 55, 89
9, 123120, Note_on_c, 7, 55, 0
9, 123120, Note_on_c, 7, 67, 0
9, 123120, Note_on_c, 7, 79, 0
9, 123120, Note_on_c, 7, 82, 84
9, 123120, Note_on_c, 7, 70, 73
9, 123120, Note_on_c, 7, 58, 78
9, 123360, Note_on_c, 7, 58, 0
9, 123360, Note_on_c, 7, 70, 0
9, 123360, Note_on_c, 7, 82, 0
9, 123360, Note_on_c, 7, 86, 86
9, 123360, Note_on_c, 7, 74, 65
9, 123360, Note_on_c, 7, 62, 80
9, 123540, Note_on_c, 7, 62, 0
9, 123540, Note_on_c, 7, 74, 0
9, 123540, Note_on_c, 7, 86, 0
9, 123540, Note_on_c, 7, 84, 73
9, 123540, Note_on_c, 7, 72, 43
9, 123540, Note_on_c, 7, 60, 94
9, 123570, Note_on_c, 7, 60, 0
9, 123570, Note_on_c, 7, 72, 0
9, 123570, Note_on_c, 7, 84, 0
9, 123600, Note_on_c, 7, 82, 77
9, 123600, Note_on_c, 7, 70, 73
9, 123600, Note_on_c, 7, 58, 76
9, 123660, Note_on_c, 7, 58, 0
9, 123660, Note_on_c, 7, 70, 0
9, 123660, Note_on_c, 7, 82, 0
9, 123720, Note_on_c, 7, 81, 72
9, 123720, Note_on_c, 7, 69, 73
9, 123720, Note_on_c, 7, 57, 95
9, 123780, Note_on_c, 7, 57, 0
9, 123780, Note_on_c, 7, 69, 0
9, 123780, Note_on_c, 7, 81, 0
9, 123840, Note_on_c, 7, 79, 73
9, 123840, Note_on_c, 7, 67, 73
9, 123840, Note_on_c, 7, 55, 89
9, 123900, Note_on_c, 7, 55, 0
9, 123900, Note_on_c, 7, 67, 0
9, 123900, Note_on_c, 7, 79, 0
9, 124380, Note_on_c, 7, 86, 73
9, 124380, Note_on_c, 7, 74, 76
9, 124440, Note_on_c, 7, 74, 0
9, 124440, Note_on_c, 7, 86, 0
9, 124440, Note_on_c, 7, 85, 66
9, 124440, Note_on_c, 7, 73, 68
9, 124500, Note_on_c, 7, 73, 0
9, 124500, Note_on_c, 7, 85, 0
9, 124500, Note_on_c, 7, 86, 89
9, 124500, Note_on_c, 7, 74, 74
9, 124560, Note_on_c, 7, 74, 0
9, 124560, Note_on_c, 7, 86, 0
9, 124560, Note_on_c, 7, 84, 74
9, 124560, Note_on_c, 7, 72, 65
9, 124620, Note_on_c, 7, 72, 0
9, 124620, Note_on_c, 7, 84, 0
9, 124620, Note_on_c, 7, 82, 74
9, 124620, Note_on_c, 7, 70, 76
9, 124680, Note_on_c, 7, 70, 0
9, 124680, Note_on_c, 7, 82, 0
9, 124680, Note_on_c, 7, 81, 71
9, 124680, Note_on_c, 7, 69, 84
9, 124740, Note_on_c, 7, 69, 0
9, 124740, Note_on_c, 7, 81, 0
9, 124740, Note_on_c, 7, 79, 84
9, 124740, Note_on_c, 7, 67, 76
9, 124770, Note_on_c, 7, 67, 0
9, 124770, Note_on_c, 7, 79, 0
9, 124770, Note_on_c, 7, 78, 67
9, 124770, Note_on_c, 7, 66, 69
9, 124780, Note_on_c, 7, 66, 0
9, 124780, Note_on_c, 7, 78, 0
9, 124780, Note_on_c, 7, 79, 78
9, 124780, Note_on_c, 7, 67, 77
9, 124790, Note_on_c, 7, 67, 0
9, 124790, Note_on_c, 7, 79, 0
9, 124790, Note_on_c, 7, 81, 74
9, 124790, Note_on_c, 7, 69, 74
9, 124800, Note_on_c, 7, 69, 0
9, 124800, Note_on_c, 7, 81, 0
9, 124800, Note_on_c, 7, 79, 72
9, 124800, Note_on_c, 7, 67, 73
9, 125040, Note_on_c, 7, 67, 0
9, 125040, Note_on_c, 7, 79, 0
9, 125040, Note_on_c, 7, 78, 80
9, 125040, Note_on_c, 7, 66, 80
9, 125160, Note_on_c, 7, 66, 0
9, 125160, Note_on_c, 7, 78, 0
9, 125340, Note_on_c, 7, 88, 72
9, 125340, Note_on_c, 7, 76, 73
9, 125400, Note_on_c, 7, 76, 0
9, 125400, Note_on_c, 7, 88, 0
9, 125400, Note_on_c, 7, 86, 73
9, 125400, Note_on_c, 7, 74, 74
9, 125460, Note_on_c, 7, 74, 0
9, 125460, Note_on_c, 7, 86, 0
9, 125460, Note_on_c, 7, 84, 72
9, 125460, Note_on_c, 7, 72, 73
9, 125520, Note_on_c, 7, 72, 0
9, 125520, Note_on_c, 7, 84, 0
9, 125520, Note_on_c, 7, 82, 70
9, 125520, Note_on_c, 7, 70, 73
9, 125580, Note_on_c, 7, 70, 0
9, 125580, Note_on_c, 7, 82, 0
9, 125580, Note_on_c, 7, 81, 84
9, 125580, Note_on_c, 7, 69, 74
9, 125640, Note_on_c, 7, 69, 0
9, 125640, Note_on_c, 7, 81, 0
9, 125640, Note_on_c, 7, 79, 73
9, 125640, Note_on_c, 7, 67, 80
9, 125700, Note_on_c, 7, 67, 0
9, 125700, Note_on_c, 7, 79, 0
9, 125700, Note_on_c, 7, 78, 72
9, 125700, Note_on_c, 7, 66, 80
9, 125760, Note_on_c, 7, 66, 0
9, 125760, Note_on_c, 7, 78, 0
9, 125760, Note_on_c, 7, 81, 73
9, 125760, Note_on_c, 7, 69, 77
9, 126000, Note_on_c, 7, 69, 0
9, 126000, Note_on_c, 7, 81, 0
9, 126000, Note_on_c, 7, 79, 64
9, 126000, Note_on_c, 7, 67, 73
9, 126120, Note_on_c, 7, 67, 0
9, 126120, Note_on_c, 7, 79, 0
9, 126300, Note_on_c, 7, 90, 71
9, 126300, Note_on_c, 7, 78, 62
9, 126360, Note_on_c, 7, 78, 0
9, 126360, Note_on_c, 7, 90, 0
9, 126360, Note_on_c, 7, 91, 84
9, 126360, Note_on_c, 7, 79, 57
9, 126420, Note_on_c, 7, 79, 0
9, 126420, Note_on_c, 7, 91, 0
9, 126420, Note_on_c, 7, 90, 67
9, 126420, Note_on_c, 7, 78, 64
9, 126480, Note_on_c, 7, 78, 0
9, 126480, Note_on_c, 7, 90, 0
9, 126480, Note_on_c, 7, 91, 73
9, 126480, Note_on_c, 7, 79, 43
9, 126540, Note_on_c, 7, 79, 0
9, 126540, Note_on_c, 7, 91, 0
9, 126540, Note_on_c, 7, 89, 81
9, 126540, Note_on_c, 7, 77, 67
9, 126600, Note_on_c, 7, 77, 0
9, 126600, Note_on_c, 7, 89, 0
9, 126600, Note_on_c, 7, 87, 76
9, 126600, Note_on_c, 7, 75, 84
9, 126660, Note_on_c, 7, 75, 0
9, 126660, Note_on_c, 7, 87, 0
9, 126660, Note_on_c, 7, 86, 74
9, 126660, Note_on_c, 7, 74, 84
9, 126720, Note_on_c, 7, 74, 0
9, 126720, Note_on_c, 7, 86, 0
9, 126720, Note_on_c, 7, 89, 85
9, 126720, Note_on_c, 7, 77, 70
9, 126780, Note_on_c, 7, 77, 0
9, 126780, Note_on_c, 7, 89, 0
9, 126780, Note_on_c, 7, 87, 78
9, 126780, Note_on_c, 7, 75, 80
9, 126840, Note_on_c, 7, 75, 0
9, 126840, Note_on_c, 7, 87, 0
9, 126840, Note_on_c, 7, 86, 76
9, 126840, Note_on_c, 7, 74, 84
9, 126900, Note_on_c, 7, 74, 0
9, 126900, Note_on_c, 7, 86, 0
9, 126900, Note_on_c, 7, 84, 58
9, 126900, Note_on_c, 7, 72, 63
9, 126960, Note_on_c, 7, 72, 0
9, 126960, Note_on_c, 7, 84, 0
9, 126960, Note_on_c, 7, 82, 74
9, 126960, Note_on_c, 7, 70, 70
9, 127020, Note_on_c, 7, 70, 0
9, 127020, Note_on_c, 7, 82, 0
9, 127020, Note_on_c, 7, 81, 77
9, 127020, Note_on_c, 7, 69, 80
9, 127080, Note_on_c, 7, 69, 0
9, 127080, Note_on_c, 7, 81, 0
9, 127080, Note_on_c, 7, 84, 73
9, 127080, Note_on_c, 7, 72, 57
9, 127140, Note_on_c, 7, 72, 0
9, 127140, Note_on_c, 7, 84, 0
9, 127140, Note_on_c, 7, 87, 74
9, 127140, Note_on_c, 7, 75, 74
9, 127200, Note_on_c, 7, 75, 0
9, 127200, Note_on_c, 7, 87, 0
9, 127200, Note_on_c, 7, 87, 80
9, 127200, Note_on_c, 7, 75, 64
9, 127260, Note_on_c, 7, 75, 0
9, 127260, Note_on_c, 7, 87, 0
9, 127260, Note_on_c, 7, 79, 77
9, 127260, Note_on_c, 7, 67, 70
9, 127320, Note_on_c, 7, 67, 0
9, 127320, Note_on_c, 7, 79, 0
9, 127320, Note_on_c, 7, 79, 59
9, 127320, Note_on_c, 7, 67, 53
9, 127350, Note_on_c, 7, 67, 0
9, 127350, Note_on_c, 7, 79, 0
9, 127380, Note_on_c, 7, 79, 67
9, 127380, Note_on_c, 7, 67, 61
9, 127410, Note_on_c, 7, 67, 0
9, 127410, Note_on_c, 7, 79, 0
9, 127440, Note_on_c, 7, 79, 76
9, 127440, Note_on_c, 7, 67, 67
9, 127500, Note_on_c, 7, 67, 0
9, 127500, Note_on_c, 7, 79, 0
9, 127500, Note_on_c, 7, 78, 64
9, 127500, Note_on_c, 7, 66, 73
9, 127560, Note_on_c, 7, 66, 0
9, 127560, Note_on_c, 7, 78, 0
9, 127560, Note_on_c, 7, 78, 44
9, 127560, Note_on_c, 7, 66, 53
9, 127590, Note_on_c, 7, 66, 0
9, 127590, Note_on_c, 7, 78, 0
9, 127620, Note_on_c, 7, 78, 63
9, 127620, Note_on_c, 7, 66, 72
9, 127650, Note_on_c, 7, 66, 0
9, 127650, Note_on_c, 7, 78, 0
9, 127680, Note_on_c, 7, 79, 68
9, 127680, Note_on_c, 7, 67, 68
9, 127800, Note_on_c, 7, 67, 0
9, 127800, Note_on_c, 7, 79, 0
9, 128640, Note_on_c, 7, 64, 86
9, 128670, Note_on_c, 7, 64, 0
9, 128670, Note_on_c, 7, 76, 94
9, 128700, Note_on_c, 7, 76, 0
9, 128700, Note_on_c, 7, 75, 80
9, 128730, Note_on_c, 7, 75, 0
9, 128730, Note_on_c, 7, 76, 78
9, 128760, Note_on_c, 7, 76, 0
9, 128760, Note_on_c, 7, 65, 81
9, 128790, Note_on_c, 7, 65, 0
9, 128790, Note_on_c, 7, 77, 84
9, 128820, Note_on_c, 7, 77, 0
9, 128820, Note_on_c, 7, 76, 89
9, 128850, Note_on_c, 7, 76, 0
9, 128850, Note_on_c, 7, 77, 85
9, 128880, Note_on_c, 7, 77, 0
9, 128880, Note_on_c, 7, 67, 76
9, 128910, Note_on_c, 7, 67, 0
9, 128910, Note_on_c, 7, 79, 84
9, 128940, Note_on_c, 7, 79, 0
9, 128940, Note_on_c, 7, 78, 80
9, 128970, Note_on_c, 7, 78, 0
9, 128970, Note_on_c, 7, 79, 89
9, 129000, Note_on_c, 7, 79, 0
9, 129000, Note_on_c, 7, 68, 86
9, 129030, Note_on_c, 7, 68, 0
9, 129030, Note_on_c, 7, 80, 86
9, 129060, Note_on_c, 7, 80, 0
9, 129060, Note_on_c, 7, 79, 84
9, 129090, Note_on_c, 7, 79, 0
9, 129090, Note_on_c, 7, 80, 89
9, 129120, Note_on_c, 7, 80, 0
9, 129120, Note_on_c, 7, 70, 76
9, 129150, Note_on_c, 7, 70, 0
9, 129150, Note_on_c, 7, 82, 77
9, 129180, Note_on_c, 7, 82, 0
9, 129180, Note_on_c, 7, 81, 85
9, 129210, Note_on_c, 7, 81, 0
9, 129210, Note_on_c, 7, 82, 77
9, 129240, Note_on_c, 7, 82, 0
9, 129240, Note_on_c, 7, 72, 55
9, 129240, Note_on_c, 7, 58, 73
9, 129270, Note_on_c, 7, 58, 0
9, 129270, Note_on_c, 7, 72, 0
9, 129270, Note_on_c, 7, 84, 76
9, 129270, Note_on_c, 7, 70, 68
9, 129300, Note_on_c, 7, 70, 0
9, 129300, Note_on_c, 7, 84, 0
9, 129300, Note_on_c, 7, 83, 82
9, 129300, Note_on_c, 7, 58, 80
9, 129330, Note_on_c, 7, 58, 0
9, 129330, Note_on_c, 7, 83, 0
9, 129330, Note_on_c, 7, 84, 89
9, 129330, Note_on_c, 7, 70, 63
9, 129360, Note_on_c, 7, 70, 0
9, 129360, Note_on_c, 7, 84, 0
9, 129360, Note_on_c, 7, 74, 78
9, 129360, Note_on_c, 7, 56, 65
9, 129390, Note_on_c, 7, 56, 0
9, 129390, Note_on_c, 7, 74, 0
9, 129390, Note_on_c, 7, 86, 84
9, 129390, Note_on_c, 7, 68, 67
9, 129420, Note_on_c, 7, 68, 0
9, 129420, Note_on_c, 7, 86, 0
9, 129420, Note_on_c, 7, 85, 80
9, 129420, Note_on_c, 7, 56, 73
9, 129450, Note_on_c, 7, 56, 0
9, 129450, Note_on_c, 7, 85, 0
9, 129450, Note_on_c, 7, 86, 95
9, 129450, Note_on_c, 7, 68, 67
9, 129480, Note_on_c, 7, 68, 0
9, 129480, Note_on_c, 7, 86, 0
9, 129480, Note_on_c, 7, 76, 85
9, 129480, Note_on_c, 7, 55, 71
9, 129510, Note_on_c, 7, 55, 0
9, 129510, Note_on_c, 7, 76, 0
9, 129510, Note_on_c, 7, 88, 85
9, 129510, Note_on_c, 7, 67, 66
9, 129540, Note_on_c, 7, 67, 0
9, 129540, Note_on_c, 7, 88, 0
9, 129540, Note_on_c, 7, 87, 76
9, 129540, Note_on_c, 7, 55, 69
9, 129570, Note_on_c, 7, 55, 0
9, 129570, Note_on_c, 7, 87, 0
9, 129570, Note_on_c, 7, 88, 86
9, 129570, Note_on_c, 7, 67, 49
9, 129600, Note_on_c, 7, 67, 0
9, 129600, Note_on_c, 7, 88, 0
9, 129600, Note_on_c, 7, 89, 62
9, 129600, Note_on_c, 7, 77, 50
9, 129600, Note_on_c, 7, 65, 68
9, 129600, Note_on_c, 7, 53, 62
9, 129720, Note_on_c, 7, 53, 0
9, 129720, Note_on_c, 7, 89, 0
9, 129720, Note_on_c, 7, 77, 0
9, 129720, Note_on_c, 7, 65, 0
9, 130140, Note_on_c, 7, 84, 73
9, 130140, Note_on_c, 7, 72, 58
9, 130200, Note_on_c, 7, 72, 0
9, 130200, Note_on_c, 7, 84, 0
9, 130200, Note_on_c, 7, 83, 72
9, 130200, Note_on_c, 7, 71, 81
9, 130260, Note_on_c, 7, 71, 0
9, 130260, Note_on_c, 7, 83, 0
9, 130260, Note_on_c, 7, 84, 72
9, 130260, Note_on_c, 7, 72, 57
9, 130320, Note_on_c, 7, 72, 0
9, 130320, Note_on_c, 7, 84, 0
9, 130320, Note_on_c, 7, 82, 76
9, 130320, Note_on_c, 7, 70, 70
9, 130380, Note_on_c, 7, 70, 0
9, 130380, Note_on_c, 7, 82, 0
9, 130380, Note_on_c, 7, 80, 63
9, 130380, Note_on_c, 7, 68, 80
9, 130440, Note_on_c, 7, 68, 0
9, 130440, Note_on_c, 7, 80, 0
9, 130440, Note_on_c, 7, 79, 54
9, 130440, Note_on_c, 7, 67, 76
9, 130500, Note_on_c, 7, 67, 0
9, 130500, Note_on_c, 7, 79, 0
9, 130500, Note_on_c, 7, 77, 81
9, 130500, Note_on_c, 7, 65, 80
9, 130530, Note_on_c, 7, 65, 0
9, 130530, Note_on_c, 7, 77, 0
9, 130530, Note_on_c, 7, 76, 71
9, 130530, Note_on_c, 7, 64, 57
9, 130540, Note_on_c, 7, 64, 0
9, 130540, Note_on_c, 7, 76, 0
9, 130540, Note_on_c, 7, 77, 65
9, 130540, Note_on_c, 7, 65, 53
9, 130550, Note_on_c, 7, 65, 0
9, 130550, Note_on_c, 7, 77, 0
9, 130550, Note_on_c, 7, 79, 64
9, 130550, Note_on_c, 7, 67, 56
9, 130560, Note_on_c, 7, 67, 0
9, 130560, Note_on_c, 7, 79, 0
9, 130560, Note_on_c, 7, 77, 84
9, 130560, Note_on_c, 7, 65, 84
9, 130800, Note_on_c, 7, 65, 0
9, 130800, Note_on_c, 7, 77, 0
9, 130800, Note_on_c, 7, 76, 86
9, 130800, Note_on_c, 7, 64, 89
9, 130920, Note_on_c, 7, 64, 0
9, 130920, Note_on_c, 7, 76, 0
9, 131100, Note_on_c, 7, 84, 74
9, 131100, Note_on_c, 7, 72, 61
9, 131160, Note_on_c, 7, 72, 0
9, 131160, Note_on_c, 7, 84, 0
9, 131160, Note_on_c, 7, 85, 58
9, 131160, Note_on_c, 7, 73, 58
9, 131220, Note_on_c, 7, 73, 0
9, 131220, Note_on_c, 7, 85, 0
9, 131220, Note_on_c, 7, 84, 68
9, 131220, Note_on_c, 7, 72, 55
9, 131280, Note_on_c, 7, 72, 0
9, 131280, Note_on_c, 7, 84, 0
9, 131280, Note_on_c, 7, 85, 77
9, 131280, Note_on_c, 7, 73, 76
9, 131340, Note_on_c, 7, 73, 0
9, 131340, Note_on_c, 7, 85, 0
9, 131340, Note_on_c, 7, 82, 81
9, 131340, Note_on_c, 7, 70, 78
9, 131400, Note_on_c, 7, 70, 0
9, 131400, Note_on_c, 7, 82, 0
9, 131400, Note_on_c, 7, 79, 74
9, 131400, Note_on_c, 7, 67, 73
9, 131460, Note_on_c, 7, 67, 0
9, 131460, Note_on_c, 7, 79, 0
9, 131460, Note_on_c, 7, 76, 72
9, 131460, Note_on_c, 7, 64, 82
9, 131520, Note_on_c, 7, 64, 0
9, 131520, Note_on_c, 7, 76, 0
9, 131520, Note_on_c, 7, 79, 72
9, 131520, Note_on_c, 7, 67, 71
9, 131760, Note_on_c, 7, 67, 0
9, 131760, Note_on_c, 7, 79, 0
9, 131760, Note_on_c, 7, 77, 81
9, 131760, Note_on_c, 7, 65, 80
9, 131880, Note_on_c, 7, 65, 0
9, 131880, Note_on_c, 7, 77, 0
9, 132060, Note_on_c, 7, 88, 80
9, 132060, Note_on_c, 7, 76, 80
9, 132120, Note_on_c, 7, 76, 0
9, 132120, Note_on_c, 7, 88, 0
9, 132120, Note_on_c, 7, 89, 85
9, 132120, Note_on_c, 7, 77, 76
9, 132180, Note_on_c, 7, 77, 0
9, 132180, Note_on_c, 7, 89, 0
9, 132180, Note_on_c, 7, 88, 84
9, 132180, Note_on_c, 7, 76, 84
9, 132240, Note_on_c, 7, 76, 0
9, 132240, Note_on_c, 7, 88, 0
9, 132240, Note_on_c, 7, 89, 89
9, 132240, Note_on_c, 7, 77, 71
9, 132300, Note_on_c, 7, 77, 0
9, 132300, Note_on_c, 7, 89, 0
9, 132300, Note_on_c, 7, 87, 84
9, 132300, Note_on_c, 7, 75, 86
9, 132360, Note_on_c, 7, 75, 0
9, 132360, Note_on_c, 7, 87, 0
9, 132360, Note_on_c, 7, 85, 82
9, 132360, Note_on_c, 7, 73, 76
9, 132420, Note_on_c, 7, 73, 0
9, 132420, Note_on_c, 7, 85, 0
9, 132420, Note_on_c, 7, 84, 80
9, 132420, Note_on_c, 7, 72, 78
9, 132480, Note_on_c, 7, 72, 0
9, 132480, Note_on_c, 7, 84, 0
9, 132480, Note_on_c, 7, 87, 85
9, 132480, Note_on_c, 7, 75, 89
9, 132540, Note_on_c, 7, 75, 0
9, 132540, Note_on_c, 7, 87, 0
9, 132540, Note_on_c, 7, 85, 78
9, 132540, Note_on_c, 7, 73, 78
9, 132600, Note_on_c, 7, 73, 0
9, 132600, Note_on_c, 7, 85, 0
9, 132600, Note_on_c, 7, 84, 64
9, 132600, Note_on_c, 7, 72, 72
9, 132660, Note_on_c, 7, 72, 0
9, 132660, Note_on_c, 7, 84, 0
9, 132660, Note_on_c, 7, 82, 72
9, 132660, Note_on_c, 7, 70, 76
9, 132720, Note_on_c, 7, 70, 0
9, 132720, Note_on_c, 7, 82, 0
9, 132720, Note_on_c, 7, 80, 73
9, 132720, Note_on_c, 7, 68, 78
9, 132780, Note_on_c, 7, 68, 0
9, 132780, Note_on_c, 7, 80, 0
9, 132780, Note_on_c, 7, 79, 70
9, 132780, Note_on_c, 7, 67, 73
9, 132840, Note_on_c, 7, 67, 0
9, 132840, Note_on_c, 7, 79, 0
9, 132840, Note_on_c, 7, 82, 81
9, 132840, Note_on_c, 7, 70, 78
9, 132900, Note_on_c, 7, 70, 0
9, 132900, Note_on_c, 7, 82, 0
9, 132900, Note_on_c, 7, 85, 74
9, 132900, Note_on_c, 7, 73, 78
9, 132960, Note_on_c, 7, 73, 0
9, 132960, Note_on_c, 7, 85, 0
9, 132960, Note_on_c, 7, 85, 76
9, 132960, Note_on_c, 7, 73, 69
9, 133020, Note_on_c, 7, 73, 0
9, 133020, Note_on_c, 7, 85, 0
9, 133020, Note_on_c, 7, 77, 76
9, 133020, Note_on_c, 7, 65, 90
9, 133080, Note_on_c, 7, 65, 0
9, 133080, Note_on_c, 7, 77, 0
9, 133080, Note_on_c, 7, 77, 68
9, 133080, Note_on_c, 7, 65, 78
9, 133110, Note_on_c, 7, 65, 0
9, 133110, Note_on_c, 7, 77, 0
9, 133140, Note_on_c, 7, 77, 70
9, 133140, Note_on_c, 7, 65, 73
9, 133170, Note_on_c, 7, 65, 0
9, 133170, Note_on_c, 7, 77, 0
9, 133200, Note_on_c, 7, 77, 69
9, 133200, Note_on_c, 7, 65, 76
9, 133260, Note_on_c, 7, 65, 0
9, 133260, Note_on_c, 7, 77, 0
9, 133260, Note_on_c, 7, 76, 84
9, 133260, Note_on_c, 7, 64, 89
9, 133320, Note_on_c, 7, 64, 0
9, 133320, Note_on_c, 7, 76, 0
9, 133320, Note_on_c, 7, 76, 77
9, 133320, Note_on_c, 7, 64, 84
9, 133350, Note_on_c, 7, 64, 0
9, 133350, Note_on_c, 7, 76, 0
9, 133380, Note_on_c, 7, 76, 76
9, 133380, Note_on_c, 7, 64, 81
9, 133410, Note_on_c, 7, 64, 0
9, 133410, Note_on_c, 7, 76, 0
9, 133440, Note_on_c, 7, 77, 70
9, 133440, Note_on_c, 7, 65, 76
9, 133560, Note_on_c, 7, 65, 0
9, 133560, Note_on_c, 7, 77, 0
9, 134040, Note_on_c, 7, 80, 66
9, 134040, Note_on_c, 7, 68, 65
9, 134130, Note_on_c, 7, 68, 0
9, 134130, Note_on_c, 7, 80, 0
9, 134160, Note_on_c, 7, 80, 68
9, 134160, Note_on_c, 7, 68, 73
9, 134250, Note_on_c, 7, 68, 0
9, 134250, Note_on_c, 7, 80, 0
9, 134280, Note_on_c, 7, 80, 72
9, 134280, Note_on_c, 7, 68, 85
9, 134370, Note_on_c, 7, 68, 0
9, 134370, Note_on_c, 7, 80, 0
9, 134400, Note_on_c, 7, 78, 68
9, 134400, Note_on_c, 7, 66, 73
9, 134440, Note_on_c, 7, 66, 0
9, 134440, Note_on_c, 7, 78, 0
9, 134440, Note_on_c, 7, 80, 84
9, 134440, Note_on_c, 7, 68, 80
9, 134480, Note_on_c, 7, 68, 0
9, 134480, Note_on_c, 7, 80, 0
9, 134480, Note_on_c, 7, 82, 68
9, 134480, Note_on_c, 7, 70, 68
9, 134520, Note_on_c, 7, 70, 0
9, 134520, Note_on_c, 7, 82, 0
9, 134520, Note_on_c, 7, 80, 80
9, 134520, Note_on_c, 7, 68, 85
9, 134560, Note_on_c, 7, 68, 0
9, 134560, Note_on_c, 7, 80, 0
9, 134560, Note_on_c, 7, 78, 72
9, 134560, Note_on_c, 7, 66, 84
9, 134600, Note_on_c, 7, 66, 0
9, 134600, Note_on_c, 7, 78, 0
9, 134600, Note_on_c, 7, 77, 70
9, 134600, Note_on_c, 7, 65, 80
9, 134640, Note_on_c, 7, 65, 0
9, 134640, Note_on_c, 7, 77, 0
9, 134640, Note_on_c, 7, 75, 80
9, 134640, Note_on_c, 7, 63, 73
9, 134680, Note_on_c, 7, 63, 0
9, 134680, Note_on_c, 7, 75, 0
9, 134680, Note_on_c, 7, 77, 73
9, 134680, Note_on_c, 7, 65, 72
9, 134720, Note_on_c, 7, 65, 0
9, 134720, Note_on_c, 7, 77, 0
9, 134720, Note_on_c, 7, 78, 78
9, 134720, Note_on_c, 7, 66, 76
9, 134760, Note_on_c, 7, 66, 0
9, 134760, Note_on_c, 7, 78, 0
9, 134760, Note_on_c, 7, 77, 78
9, 134760, Note_on_c, 7, 65, 84
9, 134800, Note_on_c, 7, 65, 0
9, 134800, Note_on_c, 7, 77, 0
9, 134800, Note_on_c, 7, 75, 81
9, 134800, Note_on_c, 7, 63, 76
9, 134840, Note_on_c, 7, 63, 0
9, 134840, Note_on_c, 7, 75, 0
9, 134840, Note_on_c, 7, 61, 74
9, 134840, Note_on_c, 7, 73, 74
9, 134880, Note_on_c, 7, 73, 0
9, 134880, Note_on_c, 7, 61, 0
9, 134880, Note_on_c, 7, 72, 70
9, 134880, Note_on_c, 7, 60, 89
9, 134920, Note_on_c, 7, 60, 0
9, 134920, Note_on_c, 7, 72, 0
9, 134920, Note_on_c, 7, 73, 76
9, 134920, Note_on_c, 7, 61, 70
9, 134960, Note_on_c, 7, 61, 0
9, 134960, Note_on_c, 7, 73, 0
9, 134960, Note_on_c, 7, 75, 84
9, 134960, Note_on_c, 7, 63, 76
9, 135000, Note_on_c, 7, 63, 0
9, 135000, Note_on_c, 7, 75, 0
9, 135000, Note_on_c, 7, 73, 72
9, 135000, Note_on_c, 7, 61, 72
9, 135040, Note_on_c, 7, 61, 0
9, 135040, Note_on_c, 7, 73, 0
9, 135040, Note_on_c, 7, 72, 78
9, 135040, Note_on_c, 7, 60, 90
9, 135080, Note_on_c, 7, 60, 0
9, 135080, Note_on_c, 7, 72, 0
9, 135080, Note_on_c, 7, 70, 85
9, 135080, Note_on_c, 7, 58, 78
9, 135120, Note_on_c, 7, 58, 0
9, 135120, Note_on_c, 7, 70, 0
9, 135120, Note_on_c, 7, 68, 76
9, 135120, Note_on_c, 7, 56, 73
9, 135160, Note_on_c, 7, 56, 0
9, 135160, Note_on_c, 7, 68, 0
9, 135160, Note_on_c, 7, 70, 73
9, 135160, Note_on_c, 7, 58, 70
9, 135200, Note_on_c, 7, 58, 0
9, 135200, Note_on_c, 7, 70, 0
9, 135200, Note_on_c, 7, 68, 78
9, 135200, Note_on_c, 7, 56, 74
9, 135240, Note_on_c, 7, 56, 0
9, 135240, Note_on_c, 7, 68, 0
9, 135240, Note_on_c, 7, 66, 81
9, 135240, Note_on_c, 7, 54, 71
9, 135280, Note_on_c, 7, 54, 0
9, 135280, Note_on_c, 7, 66, 0
9, 135280, Note_on_c, 7, 68, 84
9, 135280, Note_on_c, 7, 56, 78
9, 135320, Note_on_c, 7, 56, 0
9, 135320, Note_on_c, 7, 68, 0
9, 135320, Note_on_c, 7, 54, 77
9, 135320, Note_on_c, 7, 66, 76
9, 135360, Note_on_c, 7, 66, 0
9, 135360, Note_on_c, 7, 54, 0
9, 135360, Note_on_c, 7, 65, 81
9, 135360, Note_on_c, 7, 53, 74
9, 135400, Note_on_c, 7, 53, 0
9, 135400, Note_on_c, 7, 65, 0
9, 135400, Note_on_c, 7, 61, 61
9, 135400, Note_on_c, 7, 49, 77
9, 135440, Note_on_c, 7, 49, 0
9, 135440, Note_on_c, 7, 61, 0
9, 135440, Note_on_c, 7, 65, 76
9, 135440, Note_on_c, 7, 53, 58
9, 135480, Note_on_c, 7, 53, 0
9, 135480, Note_on_c, 7, 65, 0
9, 135480, Note_on_c, 7, 68, 81
9, 135480, Note_on_c, 7, 56, 74
9, 135520, Note_on_c, 7, 56, 0
9, 135520, Note_on_c, 7, 68, 0
9, 135520, Note_on_c, 7, 65, 68
9, 135520, Note_on_c, 7, 53, 70
9, 135560, Note_on_c, 7, 53, 0
9, 135560, Note_on_c, 7, 65, 0
9, 135560, Note_on_c, 7, 68, 80
9, 135560, Note_on_c, 7, 56, 78
9, 135600, Note_on_c, 7, 56, 0
9, 135600, Note_on_c, 7, 68, 0
9, 135600, Note_on_c, 7, 73, 73
9, 135600, Note_on_c, 7, 61, 73
9, 135640, Note_on_c, 7, 61, 0
9, 135640, Note_on_c, 7, 73, 0
9, 135640, Note_on_c, 7, 68, 74
9, 135640, Note_on_c, 7, 56, 82
9, 135680, Note_on_c, 7, 56, 0
9, 135680, Note_on_c, 7, 68, 0
9, 135680, Note_on_c, 7, 73, 80
9, 135680, Note_on_c, 7, 61, 76
9, 135720, Note_on_c, 7, 61, 0
9, 135720, Note_on_c, 7, 73, 0
9, 135720, Note_on_c, 7, 77, 80
9, 135720, Note_on_c, 7, 65, 72
9, 135760, Note_on_c, 7, 65, 0
9, 135760, Note_on_c, 7, 77, 0
9, 135760, Note_on_c, 7, 73, 68
9, 135760, Note_on_c, 7, 61, 78
9, 135800, Note_on_c, 7, 61, 0
9, 135800, Note_on_c, 7, 73, 0
9, 135800, Note_on_c, 7, 65, 80
9, 135800, Note_on_c, 7, 77, 84
9, 135840, Note_on_c, 7, 77, 0
9, 135840, Note_on_c, 7, 65, 0
9, 135840, Note_on_c, 7, 80, 80
9, 135840, Note_on_c, 7, 68, 80
9, 135880, Note_on_c, 7, 68, 0
9, 135880, Note_on_c, 7, 80, 0
9, 135880, Note_on_c, 7, 77, 74
9, 135880, Note_on_c, 7, 65, 89
9, 135920, Note_on_c, 7, 65, 0
9, 135920, Note_on_c, 7, 77, 0
9, 135920, Note_on_c, 7, 80, 84
9, 135920, Note_on_c, 7, 68, 84
9, 135960, Note_on_c, 7, 68, 0
9, 135960, Note_on_c, 7, 80, 0
9, 135960, Note_on_c, 7, 85, 81
9, 135960, Note_on_c, 7, 73, 73
9, 136000, Note_on_c, 7, 73, 0
9, 136000, Note_on_c, 7, 85, 0
9, 136000, Note_on_c, 7, 80, 66
9, 136000, Note_on_c, 7, 68, 85
9, 136040, Note_on_c, 7, 68, 0
9, 136040, Note_on_c, 7, 80, 0
9, 136040, Note_on_c, 7, 85, 82
9, 136040, Note_on_c, 7, 73, 77
9, 136080, Note_on_c, 7, 73, 0
9, 136080, Note_on_c, 7, 85, 0
9, 136080, Note_on_c, 7, 89, 95
9, 136080, Note_on_c, 7, 77, 77
9, 136120, Note_on_c, 7, 77, 0
9, 136120, Note_on_c, 7, 89, 0
9, 136120, Note_on_c, 7, 85, 86
9, 136120, Note_on_c, 7, 73, 81
9, 136160, Note_on_c, 7, 73, 0
9, 136160, Note_on_c, 7, 85, 0
9, 136160, Note_on_c, 7, 80, 70
9, 136160, Note_on_c, 7, 68, 89
9, 136200, Note_on_c, 7, 68, 0
9, 136200, Note_on_c, 7, 80, 0
9, 136200, Note_on_c, 7, 85, 78
9, 136200, Note_on_c, 7, 73, 70
9, 136240, Note_on_c, 7, 73, 0
9, 136240, Note_on_c, 7, 85, 0
9, 136240, Note_on_c, 7, 80, 93
9, 136240, Note_on_c, 7, 68, 89
9, 136280, Note_on_c, 7, 68, 0
9, 136280, Note_on_c, 7, 80, 0
9, 136280, Note_on_c, 7, 65, 90
9, 136280, Note_on_c, 7, 77, 76
9, 136320, Note_on_c, 7, 77, 0
9, 136320, Note_on_c, 7, 65, 0
9, 136320, Note_on_c, 7, 78, 76
9, 136320, Note_on_c, 7, 66, 84
9, 136360, Note_on_c, 7, 66, 0
9, 136360, Note_on_c, 7, 78, 0
9, 136360, Note_on_c, 7, 80, 84
9, 136360, Note_on_c, 7, 68, 84
9, 136400, Note_on_c, 7, 68, 0
9, 136400, Note_on_c, 7, 80, 0
9, 136400, Note_on_c, 7, 82, 78
9, 136400, Note_on_c, 7, 70, 73
9, 136440, Note_on_c, 7, 70, 0
9, 136440, Note_on_c, 7, 82, 0
9, 136440, Note_on_c, 7, 80, 85
9, 136440, Note_on_c, 7, 68, 84
9, 136480, Note_on_c, 7, 68, 0
9, 136480, Note_on_c, 7, 80, 0
9, 136480, Note_on_c, 7, 78, 76
9, 136480, Note_on_c, 7, 66, 89
9, 136520, Note_on_c, 7, 66, 0
9, 136520, Note_on_c, 7, 78, 0
9, 136520, Note_on_c, 7, 77, 66
9, 136520, Note_on_c, 7, 65, 90
9, 136560, Note_on_c, 7, 65, 0
9, 136560, Note_on_c, 7, 77, 0
9, 136560, Note_on_c, 7, 75, 82
9, 136560, Note_on_c, 7, 63, 85
9, 136600, Note_on_c, 7, 63, 0
9, 136600, Note_on_c, 7, 75, 0
9, 136600, Note_on_c, 7, 77, 80
9, 136600, Note_on_c, 7, 65, 82
9, 136640, Note_on_c, 7, 65, 0
9, 136640, Note_on_c, 7, 77, 0
9, 136640, Note_on_c, 7, 78, 81
9, 136640, Note_on_c, 7, 66, 74
9, 136680, Note_on_c, 7, 66, 0
9, 136680, Note_on_c, 7, 78, 0
9, 136680, Note_on_c, 7, 77, 76
9, 136680, Note_on_c, 7, 65, 89
9, 136720, Note_on_c, 7, 65, 0
9, 136720, Note_on_c, 7, 77, 0
9, 136720, Note_on_c, 7, 75, 82
9, 136720, Note_on_c, 7, 63, 67
9, 136760, Note_on_c, 7, 63, 0
9, 136760, Note_on_c, 7, 75, 0
9, 136760, Note_on_c, 7, 73, 70
9, 136760, Note_on_c, 7, 61, 76
9, 136800, Note_on_c, 7, 61, 0
9, 136800, Note_on_c, 7, 73, 0
9, 136800, Note_on_c, 7, 72, 72
9, 136800, Note_on_c, 7, 60, 80
9, 136840, Note_on_c, 7, 60, 0
9, 136840, Note_on_c, 7, 72, 0
9, 136840, Note_on_c, 7, 73, 77
9, 136840, Note_on_c, 7, 61, 76
9, 136880, Note_on_c, 7, 61, 0
9, 136880, Note_on_c, 7, 73, 0
9, 136880, Note_on_c, 7, 75, 85
9, 136880, Note_on_c, 7, 63, 74
9, 136920, Note_on_c, 7, 63, 0
9, 136920, Note_on_c, 7, 75, 0
9, 136920, Note_on_c, 7, 73, 76
9, 136920, Note_on_c, 7, 61, 76
9, 136960, Note_on_c, 7, 61, 0
9, 136960, Note_on_c, 7, 73, 0
9, 136960, Note_on_c, 7, 72, 69
9, 136960, Note_on_c, 7, 60, 85
9, 137000, Note_on_c, 7, 60, 0
9, 137000, Note_on_c, 7, 72, 0
9, 137000, Note_on_c, 7, 70, 81
9, 137000, Note_on_c, 7, 58, 76
9, 137040, Note_on_c, 7, 58, 0
9, 137040, Note_on_c, 7, 70, 0
9, 137040, Note_on_c, 7, 68, 80
9, 137040, Note_on_c, 7, 56, 80
9, 137080, Note_on_c, 7, 56, 0
9, 137080, Note_on_c, 7, 68, 0
9, 137080, Note_on_c, 7, 70, 74
9, 137080, Note_on_c, 7, 58, 80
9, 137120, Note_on_c, 7, 58, 0
9, 137120, Note_on_c, 7, 70, 0
9, 137120, Note_on_c, 7, 68, 82
9, 137120, Note_on_c, 7, 56, 76
9, 137160, Note_on_c, 7, 56, 0
9, 137160, Note_on_c, 7, 68, 0
9, 137160, Note_on_c, 7, 66, 77
9, 137160, Note_on_c, 7, 54, 73
9, 137200, Note_on_c, 7, 54, 0
9, 137200, Note_on_c, 7, 66, 0
9, 137200, Note_on_c, 7, 68, 78
9, 137200, Note_on_c, 7, 56, 73
9, 137240, Note_on_c, 7, 56, 0
9, 137240, Note_on_c, 7, 68, 0
9, 137240, Note_on_c, 7, 66, 78
9, 137240, Note_on_c, 7, 54, 80
9, 137280, Note_on_c, 7, 54, 0
9, 137280, Note_on_c, 7, 66, 0
9, 137280, Note_on_c, 7, 65, 84
9, 137280, Note_on_c, 7, 53, 73
9, 137320, Note_on_c, 7, 53, 0
9, 137320, Note_on_c, 7, 65, 0
9, 137320, Note_on_c, 7, 61, 72
9, 137320, Note_on_c, 7, 49, 81
9, 137360, Note_on_c, 7, 49, 0
9, 137360, Note_on_c, 7, 61, 0
9, 137360, Note_on_c, 7, 65, 80
9, 137360, Note_on_c, 7, 53, 84
9, 137400, Note_on_c, 7, 53, 0
9, 137400, Note_on_c, 7, 65, 0
9, 137400, Note_on_c, 7, 68, 89
9, 137400, Note_on_c, 7, 56, 84
9, 137440, Note_on_c, 7, 56, 0
9, 137440, Note_on_c, 7, 68, 0
9, 137440, Note_on_c, 7, 65, 76
9, 137440, Note_on_c, 7, 53, 71
9, 137480, Note_on_c, 7, 53, 0
9, 137480, Note_on_c, 7, 65, 0
9, 137480, Note_on_c, 7, 68, 90
9, 137480, Note_on_c, 7, 56, 81
9, 137520, Note_on_c, 7, 56, 0
9, 137520, Note_on_c, 7, 68, 0
9, 137520, Note_on_c, 7, 73, 84
9, 137520, Note_on_c, 7, 61, 74
9, 137560, Note_on_c, 7, 61, 0
9, 137560, Note_on_c, 7, 73, 0
9, 137560, Note_on_c, 7, 68, 74
9, 137560, Note_on_c, 7, 56, 84
9, 137600, Note_on_c, 7, 56, 0
9, 137600, Note_on_c, 7, 68, 0
9, 137600, Note_on_c, 7, 73, 84
9, 137600, Note_on_c, 7, 61, 74
9, 137640, Note_on_c, 7, 61, 0
9, 137640, Note_on_c, 7, 73, 0
9, 137640, Note_on_c, 7, 77, 80
9, 137640, Note_on_c, 7, 65, 80
9, 137680, Note_on_c, 7, 65, 0
9, 137680, Note_on_c, 7, 77, 0
9, 137680, Note_on_c, 7, 73, 68
9, 137680, Note_on_c, 7, 61, 80
9, 137720, Note_on_c, 7, 61, 0
9, 137720, Note_on_c, 7, 73, 0
9, 137720, Note_on_c, 7, 77, 82
9, 137720, Note_on_c, 7, 65, 72
9, 137760, Note_on_c, 7, 65, 0
9, 137760, Note_on_c, 7, 77, 0
9, 137760, Note_on_c, 7, 74, 84
9, 137760, Note_on_c, 7, 62, 76
9, 137800, Note_on_c, 7, 62, 0
9, 137800, Note_on_c, 7, 74, 0
9, 137800, Note_on_c, 7, 71, 76
9, 137800, Note_on_c, 7, 59, 85
9, 137840, Note_on_c, 7, 59, 0
9, 137840, Note_on_c, 7, 71, 0
9, 137840, Note_on_c, 7, 74, 90
9, 137840, Note_on_c, 7, 62, 77
9, 137880, Note_on_c, 7, 62, 0
9, 137880, Note_on_c, 7, 74, 0
9, 137880, Note_on_c, 7, 77, 89
9, 137880, Note_on_c, 7, 65, 80
9, 137920, Note_on_c, 7, 65, 0
9, 137920, Note_on_c, 7, 77, 0
9, 137920, Note_on_c, 7, 74, 84
9, 137920, Note_on_c, 7, 62, 85
9, 137960, Note_on_c, 7, 62, 0
9, 137960, Note_on_c, 7, 74, 0
9, 137960, Note_on_c, 7, 77, 82
9, 137960, Note_on_c, 7, 65, 80
9, 138000, Note_on_c, 7, 65, 0
9, 138000, Note_on_c, 7, 77, 0
9, 138000, Note_on_c, 7, 83, 86
9, 138000, Note_on_c, 7, 71, 78
9, 138040, Note_on_c, 7, 71, 0
9, 138040, Note_on_c, 7, 83, 0
9, 138040, Note_on_c, 7, 77, 64
9, 138040, Note_on_c, 7, 65, 94
9, 138080, Note_on_c, 7, 65, 0
9, 138080, Note_on_c, 7, 77, 0
9, 138080, Note_on_c, 7, 83, 93
9, 138080, Note_on_c, 7, 71, 82
9, 138120, Note_on_c, 7, 71, 0
9, 138120, Note_on_c, 7, 83, 0
9, 138120, Note_on_c, 7, 86, 89
9, 138120, Note_on_c, 7, 74, 80
9, 138160, Note_on_c, 7, 74, 0
9, 138160, Note_on_c, 7, 86, 0
9, 138160, Note_on_c, 7, 83, 74
9, 138160, Note_on_c, 7, 71, 84
9, 138200, Note_on_c, 7, 71, 0
9, 138200, Note_on_c, 7, 83, 0
9, 138200, Note_on_c, 7, 86, 86
9, 138200, Note_on_c, 7, 74, 74
9, 138240, Note_on_c, 7, 74, 0
9, 138240, Note_on_c, 7, 86, 0
9, 138240, Note_on_c, 7, 79, 89
9, 138240, Note_on_c, 7, 67, 80
9, 138280, Note_on_c, 7, 67, 0
9, 138280, Note_on_c, 7, 79, 0
9, 138280, Note_on_c, 7, 75, 77
9, 138280, Note_on_c, 7, 63, 82
9, 138320, Note_on_c, 7, 63, 0
9, 138320, Note_on_c, 7, 75, 0
9, 138320, Note_on_c, 7, 79, 89
9, 138320, Note_on_c, 7, 67, 86
9, 138360, Note_on_c, 7, 67, 0
9, 138360, Note_on_c, 7, 79, 0
9, 138360, Note_on_c, 7, 84, 84
9, 138360, Note_on_c, 7, 72, 56
9, 138400, Note_on_c, 7, 72, 0
9, 138400, Note_on_c, 7, 84, 0
9, 138400, Note_on_c, 7, 79, 78
9, 138400, Note_on_c, 7, 67, 89
9, 138440, Note_on_c, 7, 67, 0
9, 138440, Note_on_c, 7, 79, 0
9, 138440, Note_on_c, 7, 84, 89
9, 138440, Note_on_c, 7, 72, 66
9, 138480, Note_on_c, 7, 72, 0
9, 138480, Note_on_c, 7, 84, 0
9, 138480, Note_on_c, 7, 87, 84
9, 138480, Note_on_c, 7, 75, 90
9, 138520, Note_on_c, 7, 75, 0
9, 138520, Note_on_c, 7, 87, 0
9, 138520, Note_on_c, 7, 84, 84
9, 138520, Note_on_c, 7, 72, 74
9, 138560, Note_on_c, 7, 72, 0
9, 138560, Note_on_c, 7, 84, 0
9, 138560, Note_on_c, 7, 87, 84
9, 138560, Note_on_c, 7, 75, 85
9, 138600, Note_on_c, 7, 75, 0
9, 138600, Note_on_c, 7, 87, 0
9, 138600, Note_on_c, 7, 91, 94
9, 138600, Note_on_c, 7, 79, 81
9, 138640, Note_on_c, 7, 79, 0
9, 138640, Note_on_c, 7, 91, 0
9, 138640, Note_on_c, 7, 89, 95
9, 138640, Note_on_c, 7, 77, 89
9, 138680, Note_on_c, 7, 77, 0
9, 138680, Note_on_c, 7, 89, 0
9, 138680, Note_on_c, 7, 87, 89
9, 138680, Note_on_c, 7, 75, 89
9, 138720, Note_on_c, 7, 75, 0
9, 138720, Note_on_c, 7, 87, 0
9, 138720, Note_on_c, 7, 85, 82
9, 138720, Note_on_c, 7, 73, 81
9, 138760, Note_on_c, 7, 73, 0
9, 138760, Note_on_c, 7, 85, 0
9, 138760, Note_on_c, 7, 84, 72
9, 138760, Note_on_c, 7, 72, 62
9, 138800, Note_on_c, 7, 72, 0
9, 138800, Note_on_c, 7, 84, 0
9, 138800, Note_on_c, 7, 85, 81
9, 138800, Note_on_c, 7, 73, 80
9, 138840, Note_on_c, 7, 73, 0
9, 138840, Note_on_c, 7, 85, 0
9, 138840, Note_on_c, 7, 89, 89
9, 138840, Note_on_c, 7, 77, 81
9, 138880, Note_on_c, 7, 77, 0
9, 138880, Note_on_c, 7, 89, 0
9, 138880, Note_on_c, 7, 87, 89
9, 138880, Note_on_c, 7, 75, 85
9, 138920, Note_on_c, 7, 75, 0
9, 138920, Note_on_c, 7, 87, 0
9, 138920, Note_on_c, 7, 85, 84
9, 138920, Note_on_c, 7, 73, 89
9, 138960, Note_on_c, 7, 73, 0
9, 138960, Note_on_c, 7, 85, 0
9, 138960, Note_on_c, 7, 84, 86
9, 138960, Note_on_c, 7, 72, 68
9, 139000, Note_on_c, 7, 72, 0
9, 139000, Note_on_c, 7, 84, 0
9, 139000, Note_on_c, 7, 83, 74
9, 139000, Note_on_c, 7, 71, 90
9, 139040, Note_on_c, 7, 71, 0
9, 139040, Note_on_c, 7, 83, 0
9, 139040, Note_on_c, 7, 84, 82
9, 139040, Note_on_c, 7, 72, 54
9, 139080, Note_on_c, 7, 72, 0
9, 139080, Note_on_c, 7, 84, 0
9, 139080, Note_on_c, 7, 87, 89
9, 139080, Note_on_c, 7, 75, 82
9, 139120, Note_on_c, 7, 75, 0
9, 139120, Note_on_c, 7, 87, 0
9, 139120, Note_on_c, 7, 86, 93
9, 139120, Note_on_c, 7, 74, 94
9, 139160, Note_on_c, 7, 74, 0
9, 139160, Note_on_c, 7, 86, 0
9, 139160, Note_on_c, 7, 84, 89
9, 139160, Note_on_c, 7, 72, 74
9, 139200, Note_on_c, 7, 72, 0
9, 139200, Note_on_c, 7, 84, 0
9, 139200, Note_on_c, 7, 83, 85
9, 139200, Note_on_c, 7, 71, 89
9, 139320, Note_on_c, 7, 71, 0
9, 139320, Note_on_c, 7, 83, 0
9, 139920, Note_on_c, 7, 90, 94
9, 139920, Note_on_c, 7, 78, 90
9, 139940, Note_on_c, 7, 78, 0
9, 139940, Note_on_c, 7, 90, 0
9, 139940, Note_on_c, 7, 91, 99
9, 139940, Note_on_c, 7, 79, 86
9, 139960, Note_on_c, 7, 79, 0
9, 139960, Note_on_c, 7, 91, 0
9, 139960, Note_on_c, 7, 90, 89
9, 139960, Note_on_c, 7, 78, 89
9, 139980, Note_on_c, 7, 78, 0
9, 139980, Note_on_c, 7, 90, 0
9, 139980, Note_on_c, 7, 91, 90
9, 139980, Note_on_c, 7, 79, 77
9, 140000, Note_on_c, 7, 79, 0
9, 140000, Note_on_c, 7, 91, 0
9, 140000, Note_on_c, 7, 90, 81
9, 140000, Note_on_c, 7, 78, 82
9, 140020, Note_on_c, 7, 78, 0
9, 140020, Note_on_c, 7, 90, 0
9, 140020, Note_on_c, 7, 91, 89
9, 140020, Note_on_c, 7, 79, 82
9, 140040, Note_on_c, 7, 79, 0
9, 140040, Note_on_c, 7, 91, 0
9, 140040, Note_on_c, 7, 90, 81
9, 140040, Note_on_c, 7, 78, 80
9, 140060, Note_on_c, 7, 78, 0
9, 140060, Note_on_c, 7, 90, 0
9, 140060, Note_on_c, 7, 91, 95
9, 140060, Note_on_c, 7, 79, 84
9, 140080, Note_on_c, 7, 79, 0
9, 140080, Note_on_c, 7, 91, 0
9, 140080, Note_on_c, 7, 90, 89
9, 140080, Note_on_c, 7, 78, 85
9, 140100, Note_on_c, 7, 78, 0
9, 140100, Note_on_c, 7, 90, 0
9, 140100, Note_on_c, 7, 88, 95
9, 140100, Note_on_c, 7, 76, 85
9, 140130, Note_on_c, 7, 76, 0
9, 140130, Note_on_c, 7, 88, 0
9, 140130, Note_on_c, 7, 90, 89
9, 140130, Note_on_c, 7, 78, 84
9, 140160, Note_on_c, 7, 78, 0
9, 140160, Note_on_c, 7, 90, 0
9, 140160, Note_on_c, 7, 91, 93
9, 140160, Note_on_c, 7, 79, 89
9, 140280, Note_on_c, 7, 79, 0
9, 140280, Note_on_c, 7, 91, 0
9, 140880, Note_on_c, 7, 90, 94
9, 140880, Note_on_c, 7, 78, 90
9, 140900, Note_on_c, 7, 78, 0
9, 140900, Note_on_c, 7, 90, 0
9, 140900, Note_on_c, 7, 91, 94
9, 140900, Note_on_c, 7, 79, 77
9, 140920, Note_on_c, 7, 79, 0
9, 140920, Note_on_c, 7, 91, 0
9, 140920, Note_on_c, 7, 90, 85
9, 140920, Note_on_c, 7, 78, 82
9, 140940, Note_on_c, 7, 78, 0
9, 140940, Note_on_c, 7, 90, 0
9, 140940, Note_on_c, 7, 91, 93
9, 140940, Note_on_c, 7, 79, 76
9, 140960, Note_on_c, 7, 79, 0
9, 140960, Note_on_c, 7, 91, 0
9, 140960, Note_on_c, 7, 90, 82
9, 140960, Note_on_c, 7, 78, 74
9, 140980, Note_on_c, 7, 78, 0
9, 140980, Note_on_c, 7, 90, 0
9, 140980, Note_on_c, 7, 91, 89
9, 140980, Note_on_c, 7, 79, 80
9, 141000, Note_on_c, 7, 79, 0
9, 141000, Note_on_c, 7, 91, 0
9, 141000, Note_on_c, 7, 90, 78
9, 141000, Note_on_c, 7, 78, 76
9, 141020, Note_on_c, 7, 78, 0
9, 141020, Note_on_c, 7, 90, 0
9, 141020, Note_on_c, 7, 91, 90
9, 141020, Note_on_c, 7, 79, 76
9, 141040, Note_on_c, 7, 79, 0
9, 141040, Note_on_c, 7, 91, 0
9, 141040, Note_on_c, 7, 90, 89
9, 141040, Note_on_c, 7, 78, 89
9, 141060, Note_on_c, 7, 78, 0
9, 141060, Note_on_c, 7, 90, 0
9, 141060, Note_on_c, 7, 88, 94
9, 141060, Note_on_c, 7, 76, 84
9, 141090, Note_on_c, 7, 76, 0
9, 141090, Note_on_c, 7, 88, 0
9, 141090, Note_on_c, 7, 90, 80
9, 141090, Note_on_c, 7, 78, 76
9, 141120, Note_on_c, 7, 78, 0
9, 141120, Note_on_c, 7, 90, 0
9, 141120, Note_on_c, 7, 91, 94
9, 141120, Note_on_c, 7, 79, 84
9, 141240, Note_on_c, 7, 79, 0
9, 141240, Note_on_c, 7, 91, 0
9, 141240, Note_on_c, 7, 55, 95
9, 141270, Note_on_c, 7, 55, 0
9, 141270, Note_on_c, 7, 67, 81
9, 141300, Note_on_c, 7, 67, 0
9, 141300, Note_on_c, 7, 79, 80
9, 141330, Note_on_c, 7, 79, 0
9, 141330, Note_on_c, 7, 91, 90
9, 141360, Note_on_c, 7, 91, 0
9, 141360, Note_on_c, 7, 50, 98
9, 141390, Note_on_c, 7, 50, 0
9, 141390, Note_on_c, 7, 62, 81
9, 141420, Note_on_c, 7, 62, 0
9, 141420, Note_on_c, 7, 74, 86
9, 141450, Note_on_c, 7, 74, 0
9, 141450, Note_on_c, 7, 86, 85
9, 141480, Note_on_c, 7, 86, 0
9, 141480, Note_on_c, 7, 47, 95
9, 141510, Note_on_c, 7, 47, 0
9, 141510, Note_on_c, 7, 59, 86
9, 141540, Note_on_c, 7, 59, 0
9, 141540, Note_on_c, 7, 71, 84
9, 141570, Note_on_c, 7, 71, 0
9, 141570, Note_on_c, 7, 83, 89
9, 141600, Note_on_c, 7, 83, 0
9, 141600, Note_on_c, 7, 43, 81
9, 141630, Note_on_c, 7, 43, 0
9, 141630, Note_on_c, 7, 55, 84
9, 141660, Note_on_c, 7, 55, 0
9, 141660, Note_on_c, 7, 67, 81
9, 141690, Note_on_c, 7, 67, 0
9, 141690, Note_on_c, 7, 79, 89
9, 141720, Note_on_c, 7, 79, 0
9, 141720, Note_on_c, 7, 38, 99
9, 141750, Note_on_c, 7, 38, 0
9, 141750, Note_on_c, 7, 50, 84
9, 141780, Note_on_c, 7, 50, 0
9, 141780, Note_on_c, 7, 62, 89
9, 141810, Note_on_c, 7, 62, 0
9, 141810, Note_on_c, 7, 74, 82
9, 141840, Note_on_c, 7, 74, 0
9, 141840, Note_on_c, 7, 35, 98
9, 141870, Note_on_c, 7, 35, 0
9, 141870, Note_on_c, 7, 47, 90
9, 141900, Note_on_c, 7, 47, 0
9, 141900, Note_on_c, 7, 59, 86
9, 141930, Note_on_c, 7, 59, 0
9, 141930, Note_on_c, 7, 71, 89
9, 141960, Note_on_c, 7, 71, 0
9, 141960, Note_on_c, 7, 31, 89
9, 141990, Note_on_c, 7, 31, 0
9, 141990, Note_on_c, 7, 43, 80
9, 142020, Note_on_c, 7, 43, 0
9, 142020, Note_on_c, 7, 55, 84
9, 142050, Note_on_c, 7, 55, 0
9, 142050, Note_on_c, 7, 67, 84
9, 142080, Note_on_c, 7, 67, 0
9, 142080, Note_on_c, 7, 32, 89
9, 142110, Note_on_c, 7, 32, 0
9, 142110, Note_on_c, 7, 44, 84
9, 142140, Note_on_c, 7, 44, 0
9, 142140, Note_on_c, 7, 56, 80
9, 142170, Note_on_c, 7, 56, 0
9, 142170, Note_on_c, 7, 68, 98
9, 142200, Note_on_c, 7, 68, 0
9, 142200, Note_on_c, 7, 32, 93
9, 142230, Note_on_c, 7, 32, 0
9, 142230, Note_on_c, 7, 44, 80
9, 142260, Note_on_c, 7, 44, 0
9, 142260, Note_on_c, 7, 56, 81
9, 142290, Note_on_c, 7, 56, 0
9, 142290, Note_on_c, 7, 68, 98
9, 142320, Note_on_c, 7, 68, 0
9, 142320, Note_on_c, 7, 36, 90
9, 142350, Note_on_c, 7, 36, 0
9, 142350, Note_on_c, 7, 48, 86
9, 142380, Note_on_c, 7, 48, 0
9, 142380, Note_on_c, 7, 60, 65
9, 142410, Note_on_c, 7, 60, 0
9, 142410, Note_on_c, 7, 72, 94
9, 142440, Note_on_c, 7, 72, 0
9, 142440, Note_on_c, 7, 41, 86
9, 142470, Note_on_c, 7, 41, 0
9, 142470, Note_on_c, 7, 53, 89
9, 142500, Note_on_c, 7, 53, 0
9, 142500, Note_on_c, 7, 65, 78
9, 142530, Note_on_c, 7, 65, 0
9, 142530, Note_on_c, 7, 77, 93
9, 142560, Note_on_c, 7, 77, 0
9, 142560, Note_on_c, 7, 44, 89
9, 142590, Note_on_c, 7, 44, 0
9, 142590, Note_on_c, 7, 56, 80
9, 142620, Note_on_c, 7, 56, 0
9, 142620, Note_on_c, 7, 68, 82
9, 142650, Note_on_c, 7, 68, 0
9, 142650, Note_on_c, 7, 80, 99
9, 142680, Note_on_c, 7, 80, 0
9, 142680, Note_on_c, 7, 48, 95
9, 142710, Note_on_c, 7, 48, 0
9, 142710, Note_on_c, 7, 60, 82
9, 142740, Note_on_c, 7, 60, 0
9, 142740, Note_on_c, 7, 72, 74
9, 142770, Note_on_c, 7, 72, 0
9, 142770, Note_on_c, 7, 84, 86
9, 142800, Note_on_c, 7, 84, 0
9, 142800, Note_on_c, 7, 53, 81
9, 142830, Note_on_c, 7, 53, 0
9, 142830, Note_on_c, 7, 65, 86
9, 142860, Note_on_c, 7, 65, 0
9, 142860, Note_on_c, 7, 77, 77
9, 142890, Note_on_c, 7, 77, 0
9, 142890, Note_on_c, 7, 89, 95
9, 142920, Note_on_c, 7, 89, 0
9, 142920, Note_on_c, 7, 44, 89
9, 142950, Note_on_c, 7, 44, 0
9, 142950, Note_on_c, 7, 56, 82
9, 142980, Note_on_c, 7, 56, 0
9, 142980, Note_on_c, 7, 68, 80
9, 143010, Note_on_c, 7, 68, 0
9, 143010, Note_on_c, 7, 80, 99
9, 143040, Note_on_c, 7, 80, 0
9, 143040, Note_on_c, 7, 45, 84
9, 143070, Note_on_c, 7, 45, 0
9, 143070, Note_on_c, 7, 57, 93
9, 143100, Note_on_c, 7, 57, 0
9, 143100, Note_on_c, 7, 69, 89
9, 143130, Note_on_c, 7, 69, 0
9, 143130, Note_on_c, 7, 81, 93
9, 143160, Note_on_c, 7, 81, 0
9, 143160, Note_on_c, 7, 51, 89
9, 143190, Note_on_c, 7, 51, 0
9, 143190, Note_on_c, 7, 63, 82
9, 143220, Note_on_c, 7, 63, 0
9, 143220, Note_on_c, 7, 75, 90
9, 143250, Note_on_c, 7, 75, 0
9, 143250, Note_on_c, 7, 87, 98
9, 143280, Note_on_c, 7, 87, 0
9, 143280, Note_on_c, 7, 48, 95
9, 143310, Note_on_c, 7, 48, 0
9, 143310, Note_on_c, 7, 60, 81
9, 143340, Note_on_c, 7, 60, 0
9, 143340, Note_on_c, 7, 72, 81
9, 143370, Note_on_c, 7, 72, 0
9, 143370, Note_on_c, 7, 84, 93
9, 143400, Note_on_c, 7, 84, 0
9, 143400, Note_on_c, 7, 45, 94
9, 143430, Note_on_c, 7, 45, 0
9, 143430, Note_on_c, 7, 57, 90
9, 143460, Note_on_c, 7, 57, 0
9, 143460, Note_on_c, 7, 69, 84
9, 143490, Note_on_c, 7, 69, 0
9, 143490, Note_on_c, 7, 81, 89
9, 143520, Note_on_c, 7, 81, 0
9, 143520, Note_on_c, 7, 41, 86
9, 143550, Note_on_c, 7, 41, 0
9, 143550, Note_on_c, 7, 53, 85
9, 143580, Note_on_c, 7, 53, 0
9, 143580, Note_on_c, 7, 65, 82
9, 143610, Note_on_c, 7, 65, 0
9, 143610, Note_on_c, 7, 77, 94
9, 143640, Note_on_c, 7, 77, 0
9, 143640, Note_on_c, 7, 39, 89
9, 143670, Note_on_c, 7, 39, 0
9, 143670, Note_on_c, 7, 51, 77
9, 143700, Note_on_c, 7, 51, 0
9, 143700, Note_on_c, 7, 63, 86
9, 143730, Note_on_c, 7, 63, 0
9, 143730, Note_on_c, 7, 75, 94
9, 143760, Note_on_c, 7, 75, 0
9, 143760, Note_on_c, 7, 36, 98
9, 143790, Note_on_c, 7, 36, 0
9, 143790, Note_on_c, 7, 48, 81
9, 143820, Note_on_c, 7, 48, 0
9, 143820, Note_on_c, 7, 60, 76
9, 143850, Note_on_c, 7, 60, 0
9, 143850, Note_on_c, 7, 72, 86
9, 143880, Note_on_c, 7, 72, 0
9, 143880, Note_on_c, 7, 33, 93
9, 143910, Note_on_c, 7, 33, 0
9, 143910, Note_on_c, 7, 45, 95
9, 143940, Note_on_c, 7, 45, 0
9, 143940, Note_on_c, 7, 57, 86
9, 143970, Note_on_c, 7, 57, 0
9, 143970, Note_on_c, 7, 69, 93
9, 144000, Note_on_c, 7, 69, 0
9, 144000, Note_on_c, 7, 34, 93
9, 144030, Note_on_c, 7, 34, 0
9, 144030, Note_on_c, 7, 46, 82
9, 144060, Note_on_c, 7, 46, 0
9, 144060, Note_on_c, 7, 58, 85
9, 144090, Note_on_c, 7, 58, 0
9, 144090, Note_on_c, 7, 70, 93
9, 144120, Note_on_c, 7, 70, 0
9, 144120, Note_on_c, 7, 34, 95
9, 144150, Note_on_c, 7, 34, 0
9, 144150, Note_on_c, 7, 46, 78
9, 144180, Note_on_c, 7, 46, 0
9, 144180, Note_on_c, 7, 58, 81
9, 144210, Note_on_c, 7, 58, 0
9, 144210, Note_on_c, 7, 70, 94
9, 144240, Note_on_c, 7, 70, 0
9, 144240, Note_on_c, 7, 37, 90
9, 144270, Note_on_c, 7, 37, 0
9, 144270, Note_on_c, 7, 49, 81
9, 144300, Note_on_c, 7, 49, 0
9, 144300, Note_on_c, 7, 61, 73
9, 144330, Note_on_c, 7, 61, 0
9, 144330, Note_on_c, 7, 73, 95
9, 144360, Note_on_c, 7, 73, 0
9, 144360, Note_on_c, 7, 41, 84
9, 144390, Note_on_c, 7, 41, 0
9, 144390, Note_on_c, 7, 53, 89
9, 144420, Note_on_c, 7, 53, 0
9, 144420, Note_on_c, 7, 65, 81
9, 144450, Note_on_c, 7, 65, 0
9, 144450, Note_on_c, 7, 77, 93
9, 144480, Note_on_c, 7, 77, 0
9, 144480, Note_on_c, 7, 46, 81
9, 144510, Note_on_c, 7, 46, 0
9, 144510, Note_on_c, 7, 58, 73
9, 144540, Note_on_c, 7, 58, 0
9, 144540, Note_on_c, 7, 70, 84
9, 144570, Note_on_c, 7, 70, 0
9, 144570, Note_on_c, 7, 82, 95
9, 144600, Note_on_c, 7, 82, 0
9, 144600, Note_on_c, 7, 49, 89
9, 144630, Note_on_c, 7, 49, 0
9, 144630, Note_on_c, 7, 61, 72
9, 144660, Note_on_c, 7, 61, 0
9, 144660, Note_on_c, 7, 73, 81
9, 144690, Note_on_c, 7, 73, 0
9, 144690, Note_on_c, 7, 85, 95
9, 144720, Note_on_c, 7, 85, 0
9, 144720, Note_on_c, 7, 53, 86
9, 144750, Note_on_c, 7, 53, 0
9, 144750, Note_on_c, 7, 65, 89
9, 144780, Note_on_c, 7, 65, 0
9, 144780, Note_on_c, 7, 77, 86
9, 144810, Note_on_c, 7, 77, 0
9, 144810, Note_on_c, 7, 89, 94
9, 144840, Note_on_c, 7, 89, 0
9, 144840, Note_on_c, 7, 46, 93
9, 144870, Note_on_c, 7, 46, 0
9, 144870, Note_on_c, 7, 58, 84
9, 144900, Note_on_c, 7, 58, 0
9, 144900, Note_on_c, 7, 70, 94
9, 144930, Note_on_c, 7, 70, 0
9, 144930, Note_on_c, 7, 82, 95
9, 144960, Note_on_c, 7, 82, 0
9, 144960, Note_on_c, 7, 47, 98
9, 144990, Note_on_c, 7, 47, 0
9, 144990, Note_on_c, 7, 59, 89
9, 145020, Note_on_c, 7, 59, 0
9, 145020, Note_on_c, 7, 71, 93
9, 145050, Note_on_c, 7, 71, 0
9, 145050, Note_on_c, 7, 83, 86
9, 145080, Note_on_c, 7, 83, 0
9, 145080, Note_on_c, 7, 53, 93
9, 145110, Note_on_c, 7, 53, 0
9, 145110, Note_on_c, 7, 65, 86
9, 145140, Note_on_c, 7, 65, 0
9, 145140, Note_on_c, 7, 77, 84
9, 145170, Note_on_c, 7, 77, 0
9, 145170, Note_on_c, 7, 89, 99
9, 145200, Note_on_c, 7, 89, 0
9, 145200, Note_on_c, 7, 50, 99
9, 145230, Note_on_c, 7, 50, 0
9, 145230, Note_on_c, 7, 62, 82
9, 145260, Note_on_c, 7, 62, 0
9, 145260, Note_on_c, 7, 74, 93
9, 145290, Note_on_c, 7, 74, 0
9, 145290, Note_on_c, 7, 86, 98
9, 145320, Note_on_c, 7, 86, 0
9, 145320, Note_on_c, 7, 47, 95
9, 145350, Note_on_c, 7, 47, 0
9, 145350, Note_on_c, 7, 59, 86
9, 145380, Note_on_c, 7, 59, 0
9, 145380, Note_on_c, 7, 71, 86
9, 145410, Note_on_c, 7, 71, 0
9, 145410, Note_on_c, 7, 83, 94
9, 145440, Note_on_c, 7, 83, 0
9, 145440, Note_on_c, 7, 43, 89
9, 145470, Note_on_c, 7, 43, 0
9, 145470, Note_on_c, 7, 55, 81
9, 145500, Note_on_c, 7, 55, 0
9, 145500, Note_on_c, 7, 67, 78
9, 145530, Note_on_c, 7, 67, 0
9, 145530, Note_on_c, 7, 79, 81
9, 145560, Note_on_c, 7, 79, 0
9, 145560, Note_on_c, 7, 41, 81
9, 145590, Note_on_c, 7, 41, 0
9, 145590, Note_on_c, 7, 53, 89
9, 145620, Note_on_c, 7, 53, 0
9, 145620, Note_on_c, 7, 65, 76
9, 145650, Note_on_c, 7, 65, 0
9, 145650, Note_on_c, 7, 77, 95
9, 145680, Note_on_c, 7, 77, 0
9, 145680, Note_on_c, 7, 38, 99
9, 145710, Note_on_c, 7, 38, 0
9, 145710, Note_on_c, 7, 50, 81
9, 145740, Note_on_c, 7, 50, 0
9, 145740, Note_on_c, 7, 62, 89
9, 145770, Note_on_c, 7, 62, 0
9, 145770, Note_on_c, 7, 74, 90
9, 145800, Note_on_c, 7, 74, 0
9, 145800, Note_on_c, 7, 35, 94
9, 145830, Note_on_c, 7, 35, 0
9, 145830, Note_on_c, 7, 47, 82
9, 145860, Note_on_c, 7, 47, 0
9, 145860, Note_on_c, 7, 59, 89
9, 145890, Note_on_c, 7, 59, 0
9, 145890, Note_on_c, 7, 71, 93
9, 145920, Note_on_c, 7, 71, 0
9, 145920, Note_on_c, 7, 36, 94
9, 145950, Note_on_c, 7, 36, 0
9, 145950, Note_on_c, 7, 48, 86
9, 145980, Note_on_c, 7, 48, 0
9, 145980, Note_on_c, 7, 60, 73
9, 146010, Note_on_c, 7, 60, 0
9, 146010, Note_on_c, 7, 72, 45
9, 146040, Note_on_c, 7, 72, 0
9, 146040, Note_on_c, 7, 39, 89
9, 146070, Note_on_c, 7, 39, 0
9, 146070, Note_on_c, 7, 51, 84
9, 146100, Note_on_c, 7, 51, 0
9, 146100, Note_on_c, 7, 63, 77
9, 146130, Note_on_c, 7, 63, 0
9, 146130, Note_on_c, 7, 75, 99
9, 146160, Note_on_c, 7, 75, 0
9, 146160, Note_on_c, 7, 43, 93
9, 146190, Note_on_c, 7, 43, 0
9, 146190, Note_on_c, 7, 55, 86
9, 146220, Note_on_c, 7, 55, 0
9, 146220, Note_on_c, 7, 67, 80
9, 146250, Note_on_c, 7, 67, 0
9, 146250, Note_on_c, 7, 79, 84
9, 146280, Note_on_c, 7, 79, 0
9, 146280, Note_on_c, 7, 48, 99
9, 146310, Note_on_c, 7, 48, 0
9, 146310, Note_on_c, 7, 60, 95
9, 146340, Note_on_c, 7, 60, 0
9, 146340, Note_on_c, 7, 72, 93
9, 146370, Note_on_c, 7, 72, 0
9, 146370, Note_on_c, 7, 84, 94
9, 146400, Note_on_c, 7, 84, 0
9, 146400, Note_on_c, 7, 41, 95
9, 146430, Note_on_c, 7, 41, 0
9, 146430, Note_on_c, 7, 53, 84
9, 146460, Note_on_c, 7, 53, 0
9, 146460, Note_on_c, 7, 65, 94
9, 146490, Note_on_c, 7, 65, 0
9, 146490, Note_on_c, 7, 77, 93
9, 146520, Note_on_c, 7, 77, 0
9, 146520, Note_on_c, 7, 44, 95
9, 146550, Note_on_c, 7, 44, 0
9, 146550, Note_on_c, 7, 56, 104
9, 146580, Note_on_c, 7, 56, 0
9, 146580, Note_on_c, 7, 68, 104
9, 146610, Note_on_c, 7, 68, 0
9, 146610, Note_on_c, 7, 80, 98
9, 146640, Note_on_c, 7, 80, 0
9, 146640, Note_on_c, 7, 50, 104
9, 146670, Note_on_c, 7, 50, 0
9, 146670, Note_on_c, 7, 62, 94
9, 146700, Note_on_c, 7, 62, 0
9, 146700, Note_on_c, 7, 74, 104
9, 146730, Note_on_c, 7, 74, 0
9, 146730, Note_on_c, 7, 86, 101
9, 146760, Note_on_c, 7, 86, 0
9, 146760, Note_on_c, 7, 53, 99
9, 146790, Note_on_c, 7, 53, 0
9, 146790, Note_on_c, 7, 65, 90
9, 146820, Note_on_c, 7, 65, 0
9, 146820, Note_on_c, 7, 77, 105
9, 146850, Note_on_c, 7, 77, 0
9, 146850, Note_on_c, 7, 89, 105
9, 146880, Note_on_c, 7, 89, 0
9, 146880, Note_on_c, 7, 91, 99
9, 146880, Note_on_c, 7, 43, 99
9, 146910, Note_on_c, 7, 43, 0
9, 146910, Note_on_c, 7, 91, 0
9, 146910, Note_on_c, 7, 90, 94
9, 146910, Note_on_c, 7, 55, 89
9, 146940, Note_on_c, 7, 55, 0
9, 146940, Note_on_c, 7, 90, 0
9, 146940, Note_on_c, 7, 91, 105
9, 146970, Note_on_c, 7, 91, 0
9, 146970, Note_on_c, 7, 90, 98
9, 147000, Note_on_c, 7, 90, 0
9, 147000, Note_on_c, 7, 91, 104
9, 147000, Note_on_c, 7, 48, 101
9, 147030, Note_on_c, 7, 48, 0
9, 147030, Note_on_c, 7, 91, 0
9, 147030, Note_on_c, 7, 90, 99
9, 147030, Note_on_c, 7, 60, 90
9, 147060, Note_on_c, 7, 60, 0
9, 147060, Note_on_c, 7, 90, 0
9, 147060, Note_on_c, 7, 91, 104
9, 147090, Note_on_c, 7, 91, 0
9, 147090, Note_on_c, 7, 90, 98
9, 147120, Note_on_c, 7, 90, 0
9, 147120, Note_on_c, 7, 91, 105
9, 147120, Note_on_c, 7, 51, 104
9, 147150, Note_on_c, 7, 51, 0
9, 147150, Note_on_c, 7, 91, 0
9, 147150, Note_on_c, 7, 90, 98
9, 147150, Note_on_c, 7, 63, 99
9, 147180, Note_on_c, 7, 63, 0
9, 147180, Note_on_c, 7, 90, 0
9, 147180, Note_on_c, 7, 91, 104
9, 147210, Note_on_c, 7, 91, 0
9, 147210, Note_on_c, 7, 90, 98
9, 147240, Note_on_c, 7, 90, 0
9, 147240, Note_on_c, 7, 91, 105
9, 147240, Note_on_c, 7, 55, 98
9, 147270, Note_on_c, 7, 55, 0
9, 147270, Note_on_c, 7, 91, 0
9, 147270, Note_on_c, 7, 90, 99
9, 147270, Note_on_c, 7, 67, 93
9, 147300, Note_on_c, 7, 67, 0
9, 147300, Note_on_c, 7, 90, 0
9, 147300, Note_on_c, 7, 91, 104
9, 147330, Note_on_c, 7, 91, 0
9, 147330, Note_on_c, 7, 90, 99
9, 147360, Note_on_c, 7, 90, 0
9, 147360, Note_on_c, 7, 43, 94
9, 147360, Note_on_c, 7, 31, 99
9, 147360, Note_on_c, 7, 91, 99
9, 147384, Note_on_c, 7, 91, 0
9, 147384, Note_on_c, 7, 89, 99
9, 147408, Note_on_c, 7, 89, 0
9, 147408, Note_on_c, 7, 87, 104
9, 147432, Note_on_c, 7, 87, 0
9, 147432, Note_on_c, 7, 86, 110
9, 147456, Note_on_c, 7, 86, 0
9, 147456, Note_on_c, 7, 84, 99
9, 147480, Note_on_c, 7, 84, 0
9, 147480, Note_on_c, 7, 83, 99
9, 147500, Note_on_c, 7, 83, 0
9, 147500, Note_on_c, 7, 80, 99
9, 147520, Note_on_c, 7, 80, 0
9, 147520, Note_on_c, 7, 79, 98
9, 147540, Note_on_c, 7, 79, 0
9, 147540, Note_on_c, 7, 77, 89
9, 147560, Note_on_c, 7, 77, 0
9, 147560, Note_on_c, 7, 75, 104
9, 147580, Note_on_c, 7, 75, 0
9, 147580, Note_on_c, 7, 74, 105
9, 147600, Note_on_c, 7, 74, 0
9, 147600, Note_on_c, 7, 72, 90
9, 147620, Note_on_c, 7, 72, 0
9, 147620, Note_on_c, 7, 71, 104
9, 147640, Note_on_c, 7, 71, 0
9, 147640, Note_on_c, 7, 68, 99
9, 147660, Note_on_c, 7, 68, 0
9, 147660, Note_on_c, 7, 67, 94
9, 147680, Note_on_c, 7, 67, 0
9, 147680, Note_on_c, 7, 65, 94
9, 147700, Note_on_c, 7, 65, 0
9, 147700, Note_on_c, 7, 63, 99
9, 147720, Note_on_c, 7, 63, 0
9, 147720, Note_on_c, 7, 62, 90
9, 147735, Note_on_c, 7, 62, 0
9, 147735, Note_on_c, 7, 60, 99
9, 147750, Note_on_c, 7, 60, 0
9, 147750, Note_on_c, 7, 59, 105
9, 147765, Note_on_c, 7, 59, 0
9, 147765, Note_on_c, 7, 56, 94
9, 147780, Note_on_c, 7, 56, 0
9, 147780, Note_on_c, 7, 55, 98
9, 147795, Note_on_c, 7, 55, 0
9, 147795, Note_on_c, 7, 53, 93
9, 147810, Note_on_c, 7, 53, 0
9, 147810, Note_on_c, 7, 51, 95
9, 147825, Note_on_c, 7, 51, 0
9, 147825, Note_on_c, 7, 50, 105
9, 147840, Note_on_c, 7, 50, 0
9, 147840, Note_on_c, 7, 31, 0
9, 147840, Note_on_c, 7, 43, 0
9, 147840, Note_on_c, 7, 48, 101
9, 147840, Note_on_c, 7, 36, 105
9, 147960, Note_on_c, 7, 36, 0
9, 147960, Note_on_c, 7, 48, 0
9, 152220, Note_on_c, 7, 70, 80
9, 152220, Note_on_c, 7, 82, 61
9, 152250, Note_on_c, 7, 82, 0
9, 152250, Note_on_c, 7, 70, 0
9, 152280, Note_on_c, 7, 82, 71
9, 152280, Note_on_c, 7, 70, 80
9, 152310, Note_on_c, 7, 70, 0
9, 152310, Note_on_c, 7, 82, 0
9, 152340, Note_on_c, 7, 70, 81
9, 152340, Note_on_c, 7, 82, 70
9, 152370, Note_on_c, 7, 82, 0
9, 152370, Note_on_c, 7, 70, 0
9, 152400, Note_on_c, 7, 70, 86
9, 152400, Note_on_c, 7, 82, 68
9, 152460, Note_on_c, 7, 82, 0
9, 152460, Note_on_c, 7, 70, 0
9, 152460, Note_on_c, 7, 67, 58
9, 152460, Note_on_c, 7, 79, 70
9, 152520, Note_on_c, 7, 79, 0
9, 152520, Note_on_c, 7, 67, 0
9, 152520, Note_on_c, 7, 64, 74
9, 152520, Note_on_c, 7, 76, 76
9, 152550, Note_on_c, 7, 76, 0
9, 152550, Note_on_c, 7, 64, 0
9, 152580, Note_on_c, 7, 58, 78
9, 152580, Note_on_c, 7, 70, 76
9, 152610, Note_on_c, 7, 70, 0
9, 152610, Note_on_c, 7, 58, 0
9, 152640, Note_on_c, 7, 57, 84
9, 152640, Note_on_c, 7, 69, 74
9, 152760, Note_on_c, 7, 69, 0
9, 152760, Note_on_c, 7, 57, 0
9, 153180, Note_on_c, 7, 75, 80
9, 153180, Note_on_c, 7, 87, 65
9, 153210, Note_on_c, 7, 87, 0
9, 153210, Note_on_c, 7, 75, 0
9, 153240, Note_on_c, 7, 75, 85
9, 153240, Note_on_c, 7, 87, 69
9, 153270, Note_on_c, 7, 87, 0
9, 153270, Note_on_c, 7, 75, 0
9, 153300, Note_on_c, 7, 87, 70
9, 153300, Note_on_c, 7, 75, 86
9, 153330, Note_on_c, 7, 75, 0
9, 153330, Note_on_c, 7, 87, 0
9, 153360, Note_on_c, 7, 75, 85
9, 153360, Note_on_c, 7, 87, 74
9, 153420, Note_on_c, 7, 87, 0
9, 153420, Note_on_c, 7, 75, 0
9, 153420, Note_on_c, 7, 72, 63
9, 153420, Note_on_c, 7, 84, 80
9, 153480, Note_on_c, 7, 84, 0
9, 153480, Note_on_c, 7, 72, 0
9, 153480, Note_on_c, 7, 69, 64
9, 153480, Note_on_c, 7, 81, 64
9, 153510, Note_on_c, 7, 81, 0
9, 153510, Note_on_c, 7, 69, 0
9, 153540, Note_on_c, 7, 63, 76
9, 153540, Note_on_c, 7, 75, 76
9, 153570, Note_on_c, 7, 75, 0
9, 153570, Note_on_c, 7, 63, 0
9, 153600, Note_on_c, 7, 62, 76
9, 153600, Note_on_c, 7, 74, 78
9, 153720, Note_on_c, 7, 74, 0
9, 153720, Note_on_c, 7, 62, 0
9, 154140, Note_on_c, 7, 68, 70
9, 154140, Note_on_c, 7, 80, 59
9, 154170, Note_on_c, 7, 80, 0
9, 154170, Note_on_c, 7, 68, 0
9, 154200, Note_on_c, 7, 68, 77
9, 154200, Note_on_c, 7, 80, 65
9, 154230, Note_on_c, 7, 80, 0
9, 154230, Note_on_c, 7, 68, 0
9, 154260, Note_on_c, 7, 68, 78
9, 154260, Note_on_c, 7, 80, 65
9, 154290, Note_on_c, 7, 80, 0
9, 154290, Note_on_c, 7, 68, 0
9, 154320, Note_on_c, 7, 80, 65
9, 154320, Note_on_c, 7, 68, 82
9, 154380, Note_on_c, 7, 68, 0
9, 154380, Note_on_c, 7, 80, 0
9, 154380, Note_on_c, 7, 65, 70
9, 154380, Note_on_c, 7, 77, 66
9, 154440, Note_on_c, 7, 77, 0
9, 154440, Note_on_c, 7, 65, 0
9, 154440, Note_on_c, 7, 62, 67
9, 154440, Note_on_c, 7, 74, 76
9, 154470, Note_on_c, 7, 74, 0
9, 154470, Note_on_c, 7, 62, 0
9, 154500, Note_on_c, 7, 68, 72
9, 154500, Note_on_c, 7, 56, 78
9, 154530, Note_on_c, 7, 56, 0
9, 154530, Note_on_c, 7, 68, 0
9, 154560, Note_on_c, 7, 55, 76
9, 154560, Note_on_c, 7, 67, 68
9, 154590, Note_on_c, 7, 67, 0
9, 154590, Note_on_c, 7, 55, 0
9, 154620, Note_on_c, 7, 77, 68
9, 154620, Note_on_c, 7, 89, 66
9, 154650, Note_on_c, 7, 89, 0
9, 154650, Note_on_c, 7, 77, 0
9, 154680, Note_on_c, 7, 77, 61
9, 154680, Note_on_c, 7, 89, 76
9, 154710, Note_on_c, 7, 89, 0
9, 154710, Note_on_c, 7, 77, 0
9, 154740, Note_on_c, 7, 77, 78
9, 154740, Note_on_c, 7, 89, 76
9, 154770, Note_on_c, 7, 89, 0
9, 154770, Note_on_c, 7, 77, 0
9, 154800, Note_on_c, 7, 77, 82
9, 154800, Note_on_c, 7, 89, 89
9, 154860, Note_on_c, 7, 89, 0
9, 154860, Note_on_c, 7, 77, 0
9, 154860, Note_on_c, 7, 74, 86
9, 154860, Note_on_c, 7, 86, 84
9, 154920, Note_on_c, 7, 86, 0
9, 154920, Note_on_c, 7, 74, 0
9, 154920, Note_on_c, 7, 71, 74
9, 154920, Note_on_c, 7, 83, 76
9, 154950, Note_on_c, 7, 83, 0
9, 154950, Note_on_c, 7, 71, 0
9, 154980, Note_on_c, 7, 65, 78
9, 154980, Note_on_c, 7, 77, 73
9, 155010, Note_on_c, 7, 77, 0
9, 155010, Note_on_c, 7, 65, 0
9, 155040, Note_on_c, 7, 75, 78
9, 155040, Note_on_c, 7, 63, 84
9, 155070, Note_on_c, 7, 63, 0
9, 155070, Note_on_c, 7, 75, 0
9, 155100, Note_on_c, 7, 87, 81
9, 155100, Note_on_c, 7, 91, 80
9, 155100, Note_on_c, 7, 75, 80
9, 155100, Note_on_c, 7, 79, 66
9, 155130, Note_on_c, 7, 79, 0
9, 155130, Note_on_c, 7, 87, 0
9, 155130, Note_on_c, 7, 91, 0
9, 155130, Note_on_c, 7, 75, 0
9, 155160, Note_on_c, 7, 91, 81
9, 155160, Note_on_c, 7, 87, 81
9, 155160, Note_on_c, 7, 75, 81
9, 155160, Note_on_c, 7, 79, 71
9, 155190, Note_on_c, 7, 79, 0
9, 155190, Note_on_c, 7, 91, 0
9, 155190, Note_on_c, 7, 87, 0
9, 155190, Note_on_c, 7, 75, 0
9, 155220, Note_on_c, 7, 75, 89
9, 155220, Note_on_c, 7, 91, 86
9, 155220, Note_on_c, 7, 79, 73
9, 155220, Note_on_c, 7, 87, 76
9, 155250, Note_on_c, 7, 87, 0
9, 155250, Note_on_c, 7, 75, 0
9, 155250, Note_on_c, 7, 91, 0
9, 155250, Note_on_c, 7, 79, 0
9, 155280, Note_on_c, 7, 87, 82
9, 155280, Note_on_c, 7, 91, 84
9, 155280, Note_on_c, 7, 75, 89
9, 155280, Note_on_c, 7, 79, 76
9, 155340, Note_on_c, 7, 79, 0
9, 155340, Note_on_c, 7, 87, 0
9, 155340, Note_on_c, 7, 91, 0
9, 155340, Note_on_c, 7, 75, 0
9, 155340, Note_on_c, 7, 75, 86
9, 155340, Note_on_c, 7, 84, 68
9, 155340, Note_on_c, 7, 72, 50
9, 155340, Note_on_c, 7, 87, 77
9, 155400, Note_on_c, 7, 87, 0
9, 155400, Note_on_c, 7, 75, 0
9, 155400, Note_on_c, 7, 84, 0
9, 155400, Note_on_c, 7, 72, 0
9, 155400, Note_on_c, 7, 84, 89
9, 155400, Note_on_c, 7, 72, 57
9, 155400, Note_on_c, 7, 79, 77
9, 155400, Note_on_c, 7, 67, 84
9, 155430, Note_on_c, 7, 67, 0
9, 155430, Note_on_c, 7, 84, 0
9, 155430, Note_on_c, 7, 72, 0
9, 155430, Note_on_c, 7, 79, 0
9, 155460, Note_on_c, 7, 75, 80
9, 155460, Note_on_c, 7, 79, 81
9, 155460, Note_on_c, 7, 67, 68
9, 155460, Note_on_c, 7, 63, 80
9, 155490, Note_on_c, 7, 63, 0
9, 155490, Note_on_c, 7, 75, 0
9, 155490, Note_on_c, 7, 79, 0
9, 155490, Note_on_c, 7, 67, 0
9, 155520, Note_on_c, 7, 75, 77
9, 155520, Note_on_c, 7, 79, 73
9, 155520, Note_on_c, 7, 67, 64
9, 155520, Note_on_c, 7, 63, 73
9, 155580, Note_on_c, 7, 63, 0
9, 155580, Note_on_c, 7, 75, 0
9, 155580, Note_on_c, 7, 79, 0
9, 155580, Note_on_c, 7, 67, 0
9, 155580, Note_on_c, 7, 65, 82
9, 155580, Note_on_c, 7, 62, 72
9, 155580, Note_on_c, 7, 74, 80
9, 155580, Note_on_c, 7, 77, 82
9, 155640, Note_on_c, 7, 77, 0
9, 155640, Note_on_c, 7, 65, 0
9, 155640, Note_on_c, 7, 62, 0
9, 155640, Note_on_c, 7, 74, 0
9, 155640, Note_on_c, 7, 77, 73
9, 155640, Note_on_c, 7, 65, 78
9, 155640, Note_on_c, 7, 62, 72
9, 155640, Note_on_c, 7, 74, 78
9, 155670, Note_on_c, 7, 74, 0
9, 155670, Note_on_c, 7, 77, 0
9, 155670, Note_on_c, 7, 65, 0
9, 155670, Note_on_c, 7, 62, 0
9, 155700, Note_on_c, 7, 77, 78
9, 155700, Note_on_c, 7, 62, 74
9, 155700, Note_on_c, 7, 65, 84
9, 155700, Note_on_c, 7, 74, 89
9, 155730, Note_on_c, 7, 74, 0
9, 155730, Note_on_c, 7, 77, 0
9, 155730, Note_on_c, 7, 62, 0
9, 155730, Note_on_c, 7, 65, 0
9, 155760, Note_on_c, 7, 77, 73
9, 155760, Note_on_c, 7, 74, 78
9, 155760, Note_on_c, 7, 65, 77
9, 155760, Note_on_c, 7, 62, 72
9, 155820, Note_on_c, 7, 62, 0
9, 155820, Note_on_c, 7, 77, 0
9, 155820, Note_on_c, 7, 74, 0
9, 155820, Note_on_c, 7, 65, 0
9, 155820, Note_on_c, 7, 75, 86
9, 155820, Note_on_c, 7, 60, 84
9, 155820, Note_on_c, 7, 72, 50
9, 155820, Note_on_c, 7, 63, 77
9, 155880, Note_on_c, 7, 63, 0
9, 155880, Note_on_c, 7, 75, 0
9, 155880, Note_on_c, 7, 60, 0
9, 155880, Note_on_c, 7, 72, 0
9, 155880, Note_on_c, 7, 60, 74
9, 155880, Note_on_c, 7, 75, 85
9, 155880, Note_on_c, 7, 72, 52
9, 155880, Note_on_c, 7, 63, 77
9, 155910, Note_on_c, 7, 63, 0
9, 155910, Note_on_c, 7, 60, 0
9, 155910, Note_on_c, 7, 75, 0
9, 155910, Note_on_c, 7, 72, 0
9, 155940, Note_on_c, 7, 60, 82
9, 155940, Note_on_c, 7, 72, 46
9, 155940, Note_on_c, 7, 75, 84
9, 155940, Note_on_c, 7, 63, 73
9, 155970, Note_on_c, 7, 63, 0
9, 155970, Note_on_c, 7, 60, 0
9, 155970, Note_on_c, 7, 72, 0
9, 155970, Note_on_c, 7, 75, 0
9, 156000, Control_c, 7, 64, 89
9, 156000, Note_on_c, 7, 71, 80
9, 156000, Note_on_c, 7, 74, 85
9, 156000, Note_on_c, 7, 43, 94
9, 156040, Note_on_c, 7, 43, 0
9, 156040, Note_on_c, 7, 59, 89
9, 156060, Note_on_c, 7, 74, 0
9, 156060, Note_on_c, 7, 71, 0
9, 156080, Note_on_c, 7, 59, 0
9, 156080, Note_on_c, 7, 55, 94
9, 156120, Note_on_c, 7, 55, 0
9, 156120, Note_on_c, 7, 79, 115
9, 156120, Note_on_c, 7, 47, 112
9, 156160, Note_on_c, 7, 47, 0
9, 156160, Note_on_c, 7, 62, 89
9, 156200, Note_on_c, 7, 62, 0
9, 156200, Note_on_c, 7, 59, 86
9, 156240, Note_on_c, 7, 59, 0
9, 156240, Note_on_c, 7, 50, 99
9, 156280, Note_on_c, 7, 50, 0
9, 156280, Note_on_c, 7, 65, 95
9, 156300, Note_on_c, 7, 79, 0
9, 156300, Note_on_c, 7, 79, 89
9, 156320, Note_on_c, 7, 65, 0
9, 156320, Note_on_c, 7, 55, 95
9, 156330, Note_on_c, 7, 79, 0
9, 156360, Note_on_c, 7, 55, 0
9, 156360, Note_on_c, 7, 79, 89
9, 156360, Note_on_c, 7, 47, 104
9, 156390, Note_on_c, 7, 79, 0
9, 156400, Note_on_c, 7, 47, 0
9, 156400, Note_on_c, 7, 62, 94
9, 156420, Note_on_c, 7, 79, 95
9, 156440, Note_on_c, 7, 62, 0
9, 156440, Note_on_c, 7, 55, 84
9, 156445, Control_c, 7, 64, 83
9, 156450, Note_on_c, 7, 79, 0
9, 156450, Control_c, 7, 64, 67
9, 156455, Control_c, 7, 64, 50
9, 156460, Control_c, 7, 64, 34
9, 156465, Control_c, 7, 64, 17
9, 156470, Control_c, 7, 64, 0
9, 156480, Note_on_c, 7, 55, 0
9, 156480, Control_c, 7, 64, 89
9, 156480, Note_on_c, 7, 79, 93
9, 156480, Note_on_c, 7, 48, 89
9, 156500, Note_on_c, 7, 79, 0
9, 156500, Note_on_c, 7, 80, 89
9, 156520, Note_on_c, 7, 80, 0
9, 156520, Note_on_c, 7, 48, 0
9, 156520, Note_on_c, 7, 79, 94
9, 156520, Note_on_c, 7, 63, 89
9, 156540, Note_on_c, 7, 79, 0
9, 156540, Note_on_c, 7, 78, 89
9, 156560, Note_on_c, 7, 63, 0
9, 156560, Note_on_c, 7, 55, 84
9, 156570, Note_on_c, 7, 78, 0
9, 156570, Note_on_c, 7, 79, 95
9, 156600, Note_on_c, 7, 79, 0
9, 156600, Note_on_c, 7, 55, 0
9, 156600, Note_on_c, 7, 80, 90
9, 156600, Note_on_c, 7, 51, 94
9, 156640, Note_on_c, 7, 51, 0
9, 156640, Note_on_c, 7, 63, 93
9, 156660, Note_on_c, 7, 80, 0
9, 156660, Note_on_c, 7, 79, 95
9, 156680, Note_on_c, 7, 63, 0
9, 156680, Note_on_c, 7, 55, 86
9, 156720, Note_on_c, 7, 55, 0
9, 156720, Note_on_c, 7, 79, 0
9, 156720, Note_on_c, 7, 77, 81
9, 156720, Note_on_c, 7, 48, 94
9, 156760, Note_on_c, 7, 48, 0
9, 156760, Note_on_c, 7, 63, 93
9, 156780, Note_on_c, 7, 77, 0
9, 156780, Note_on_c, 7, 75, 99
9, 156800, Note_on_c, 7, 63, 0
9, 156800, Note_on_c, 7, 55, 84
9, 156840, Note_on_c, 7, 55, 0
9, 156840, Note_on_c, 7, 75, 0
9, 156840, Note_on_c, 7, 74, 90
9, 156840, Note_on_c, 7, 51, 94
9, 156880, Note_on_c, 7, 51, 0
9, 156880, Note_on_c, 7, 63, 95
9, 156900, Note_on_c, 7, 74, 0
9, 156900, Note_on_c, 7, 72, 84
9, 156910, Control_c, 7, 64, 86
9, 156915, Control_c, 7, 64, 76
9, 156920, Note_on_c, 7, 63, 0
9, 156920, Note_on_c, 7, 55, 89
9, 156920, Control_c, 7, 64, 65
9, 156925, Control_c, 7, 64, 54
9, 156930, Control_c, 7, 64, 43
9, 156935, Control_c, 7, 64, 33
9, 156940, Control_c, 7, 64, 22
9, 156945, Control_c, 7, 64, 11
9, 156950, Control_c, 7, 64, 0
9, 156960, Note_on_c, 7, 55, 0
9, 156960, Note_on_c, 7, 72, 0
9, 156960, Control_c, 7, 64, 89
9, 156960, Note_on_c, 7, 72, 89
9, 156960, Note_on_c, 7, 50, 95
9, 157000, Note_on_c, 7, 50, 0
9, 157000, Note_on_c, 7, 62, 89
9, 157020, Note_on_c, 7, 72, 0
9, 157020, Note_on_c, 7, 71, 94
9, 157040, Note_on_c, 7, 62, 0
9, 157040, Note_on_c, 7, 55, 98
9, 157080, Note_on_c, 7, 55, 0
9, 157080, Note_on_c, 7, 71, 0
9, 157080, Note_on_c, 7, 71, 94
9, 157080, Note_on_c, 7, 53, 95
9, 157120, Note_on_c, 7, 53, 0
9, 157120, Note_on_c, 7, 65, 101
9, 157160, Note_on_c, 7, 65, 0
9, 157160, Note_on_c, 7, 55, 95
9, 157200, Note_on_c, 7, 55, 0
9, 157200, Note_on_c, 7, 71, 0
9, 157200, Note_on_c, 7, 72, 65
9, 157200, Note_on_c, 7, 50, 99
9, 157230, Note_on_c, 7, 72, 0
9, 157230, Note_on_c, 7, 71, 95
9, 157240, Note_on_c, 7, 50, 0
9, 157240, Note_on_c, 7, 62, 95
9, 157260, Note_on_c, 7, 71, 0
9, 157260, Note_on_c, 7, 69, 94
9, 157280, Note_on_c, 7, 62, 0
9, 157280, Note_on_c, 7, 55, 95
9, 157290, Note_on_c, 7, 69, 0
9, 157290, Note_on_c, 7, 71, 95
9, 157320, Note_on_c, 7, 71, 0
9, 157320, Note_on_c, 7, 55, 0
9, 157320, Note_on_c, 7, 72, 81
9, 157320, Note_on_c, 7, 53, 99
9, 157360, Note_on_c, 7, 53, 0
9, 157360, Note_on_c, 7, 65, 101
9, 157380, Note_on_c, 7, 72, 0
9, 157380, Note_on_c, 7, 74, 94
9, 157400, Note_on_c, 7, 65, 0
9, 157400, Note_on_c, 7, 55, 99
9, 157400, Control_c, 7, 64, 84
9, 157405, Control_c, 7, 64, 70
9, 157410, Control_c, 7, 64, 56
9, 157415, Control_c, 7, 64, 42
9, 157420, Control_c, 7, 64, 28
9, 157425, Control_c, 7, 64, 14
9, 157430, Control_c, 7, 64, 0
9, 157440, Note_on_c, 7, 55, 0
9, 157440, Note_on_c, 7, 74, 0
9, 157440, Control_c, 7, 64, 89
9, 157440, Note_on_c, 7, 74, 101
9, 157440, Note_on_c, 7, 51, 95
9, 157480, Note_on_c, 7, 51, 0
9, 157480, Note_on_c, 7, 63, 93
9, 157500, Note_on_c, 7, 74, 0
9, 157500, Note_on_c, 7, 72, 77
9, 157520, Note_on_c, 7, 63, 0
9, 157520, Note_on_c, 7, 55, 89
9, 157560, Note_on_c, 7, 55, 0
9, 157560, Note_on_c, 7, 72, 0
9, 157560, Note_on_c, 7, 72, 86
9, 157560, Note_on_c, 7, 48, 99
9, 157600, Note_on_c, 7, 48, 0
9, 157600, Note_on_c, 7, 60, 95
9, 157640, Note_on_c, 7, 60, 0
9, 157640, Note_on_c, 7, 55, 89
9, 157680, Note_on_c, 7, 55, 0
9, 157680, Note_on_c, 7, 72, 0
9, 157680, Note_on_c, 7, 74, 95
9, 157680, Note_on_c, 7, 51, 107
9, 157710, Note_on_c, 7, 74, 0
9, 157710, Note_on_c, 7, 72, 89
9, 157720, Note_on_c, 7, 51, 0
9, 157720, Note_on_c, 7, 63, 94
9, 157740, Note_on_c, 7, 72, 0
9, 157740, Note_on_c, 7, 71, 95
9, 157760, Note_on_c, 7, 63, 0
9, 157760, Note_on_c, 7, 55, 89
9, 157770, Note_on_c, 7, 71, 0
9, 157770, Note_on_c, 7, 72, 90
9, 157800, Note_on_c, 7, 72, 0
9, 157800, Note_on_c, 7, 55, 0
9, 157800, Note_on_c, 7, 74, 105
9, 157800, Note_on_c, 7, 48, 99
9, 157840, Note_on_c, 7, 48, 0
9, 157840, Note_on_c, 7, 60, 94
9, 157860, Note_on_c, 7, 74, 0
9, 157860, Note_on_c, 7, 75, 99
9, 157880, Note_on_c, 7, 60, 0
9, 157880, Note_on_c, 7, 55, 81
9, 157885, Control_c, 7, 64, 82
9, 157890, Control_c, 7, 64, 71
9, 157895, Control_c, 7, 64, 59
9, 157900, Control_c, 7, 64, 47
9, 157905, Control_c, 7, 64, 36
9, 157910, Control_c, 7, 64, 24
9, 157915, Control_c, 7, 64, 12
9, 157920, Note_on_c, 7, 55, 0
9, 157920, Note_on_c, 7, 75, 0
9, 157920, Control_c, 7, 64, 0
9, 157920, Note_on_c, 7, 43, 82
9, 157920, Note_on_c, 7, 74, 81
9, 157950, Note_on_c, 7, 74, 0
9, 157980, Note_on_c, 7, 79, 61
9, 158010, Note_on_c, 7, 79, 0
9, 158010, Note_on_c, 7, 91, 72
9, 158040, Note_on_c, 7, 91, 0
9, 158040, Note_on_c, 7, 43, 0
9, 158040, Note_on_c, 7, 79, 73
9, 158070, Note_on_c, 7, 79, 0
9, 158070, Note_on_c, 7, 91, 81
9, 158100, Note_on_c, 7, 91, 0
9, 158100, Note_on_c, 7, 79, 65
9, 158130, Note_on_c, 7, 79, 0
9, 158130, Note_on_c, 7, 91, 84
9, 158160, Note_on_c, 7, 91, 0
9, 158160, Note_on_c, 7, 79, 71
9, 158190, Note_on_c, 7, 79, 0
9, 158190, Note_on_c, 7, 91, 74
9, 158220, Note_on_c, 7, 91, 0
9, 158220, Note_on_c, 7, 79, 69
9, 158250, Note_on_c, 7, 79, 0
9, 158250, Note_on_c, 7, 91, 80
9, 158280, Note_on_c, 7, 91, 0
9, 158280, Note_on_c, 7, 79, 66
9, 158310, Note_on_c, 7, 79, 0
9, 158310, Note_on_c, 7, 91, 89
9, 158340, Note_on_c, 7, 91, 0
9, 158340, Note_on_c, 7, 79, 74
9, 158370, Note_on_c, 7, 79, 0
9, 158370, Note_on_c, 7, 91, 81
9, 158400, Note_on_c, 7, 91, 0
9, 158400, Note_on_c, 7, 79, 64
9, 158400, Note_on_c, 7, 48, 86
9, 158400, Note_on_c, 7, 60, 84
9, 158430, Note_on_c, 7, 79, 0
9, 158430, Note_on_c, 7, 91, 76
9, 158460, Note_on_c, 7, 91, 0
9, 158460, Note_on_c, 7, 79, 50
9, 158490, Note_on_c, 7, 79, 0
9, 158490, Note_on_c, 7, 91, 85
9, 158520, Note_on_c, 7, 91, 0
9, 158520, Note_on_c, 7, 60, 0
9, 158520, Note_on_c, 7, 48, 0
9, 158520, Note_on_c, 7, 79, 62
9, 158550, Note_on_c, 7, 79, 0
9, 158550, Note_on_c, 7, 91, 86
9, 158580, Note_on_c, 7, 91, 0
9, 158580, Note_on_c, 7, 79, 67
9, 158610, Note_on_c, 7, 79, 0
9, 158610, Note_on_c, 7, 91, 81
9, 158640, Note_on_c, 7, 91, 0
9, 158640, Note_on_c, 7, 79, 70
9, 158670, Note_on_c, 7, 79, 0
9, 158670, Note_on_c, 7, 91, 81
9, 158700, Note_on_c, 7, 91, 0
9, 158700, Note_on_c, 7, 79, 72
9, 158730, Note_on_c, 7, 79, 0
9, 158730, Note_on_c, 7, 91, 82
9, 158760, Note_on_c, 7, 91, 0
9, 158760, Note_on_c, 7, 79, 68
9, 158790, Note_on_c, 7, 79, 0
9, 158790, Note_on_c, 7, 91, 82
9, 158820, Note_on_c, 7, 91, 0
9, 158820, Note_on_c, 7, 79, 70
9, 158850, Note_on_c, 7, 79, 0
9, 158850, Note_on_c, 7, 91, 86
9, 158880, Note_on_c, 7, 91, 0
9, 158880, Note_on_c, 7, 79, 65
9, 158880, Note_on_c, 7, 67, 84
9, 158880, Note_on_c, 7, 55, 89
9, 158910, Note_on_c, 7, 79, 0
9, 158910, Note_on_c, 7, 91, 80
9, 158940, Note_on_c, 7, 91, 0
9, 158940, Note_on_c, 7, 79, 62
9, 158970, Note_on_c, 7, 79, 0
9, 158970, Note_on_c, 7, 91, 89
9, 159000, Note_on_c, 7, 91, 0
9, 159000, Note_on_c, 7, 55, 0
9, 159000, Note_on_c, 7, 67, 0
9, 159000, Note_on_c, 7, 79, 68
9, 159030, Note_on_c, 7, 79, 0
9, 159030, Note_on_c, 7, 91, 84
9, 159060, Note_on_c, 7, 91, 0
9, 159060, Note_on_c, 7, 79, 71
9, 159090, Note_on_c, 7, 79, 0
9, 159090, Note_on_c, 7, 91, 80
9, 159120, Note_on_c, 7, 91, 0
9, 159120, Note_on_c, 7, 79, 68
9, 159150, Note_on_c, 7, 79, 0
9, 159150, Note_on_c, 7, 91, 81
9, 159180, Note_on_c, 7, 91, 0
9, 159180, Note_on_c, 7, 79, 71
9, 159210, Note_on_c, 7, 79, 0
9, 159210, Note_on_c, 7, 91, 78
9, 159240, Note_on_c, 7, 91, 0
9, 159240, Note_on_c, 7, 79, 62
9, 159270, Note_on_c, 7, 79, 0
9, 159270, Note_on_c, 7, 91, 81
9, 159300, Note_on_c, 7, 91, 0
9, 159300, Note_on_c, 7, 79, 66
9, 159330, Note_on_c, 7, 79, 0
9, 159330, Note_on_c, 7, 91, 81
9, 159360, Note_on_c, 7, 91, 0
9, 159360, Note_on_c, 7, 79, 64
9, 159360, Note_on_c, 7, 48, 89
9, 159360, Note_on_c, 7, 60, 82
9, 159390, Note_on_c, 7, 79, 0
9, 159390, Note_on_c, 7, 91, 77
9, 159420, Note_on_c, 7, 91, 0
9, 159420, Note_on_c, 7, 79, 65
9, 159450, Note_on_c, 7, 79, 0
9, 159450, Note_on_c, 7, 91, 84
9, 159480, Note_on_c, 7, 91, 0
9, 159480, Note_on_c, 7, 60, 0
9, 159480, Note_on_c, 7, 48, 0
9, 159480, Note_on_c, 7, 79, 56
9, 159510, Note_on_c, 7, 79, 0
9, 159510, Note_on_c, 7, 91, 80
9, 159540, Note_on_c, 7, 91, 0
9, 159540, Note_on_c, 7, 79, 65
9, 159570, Note_on_c, 7, 79, 0
9, 159570, Note_on_c, 7, 91, 73
9, 159600, Note_on_c, 7, 91, 0
9, 159600, Note_on_c, 7, 79, 69
9, 159600, Note_on_c, 7, 48, 60
9, 159600, Note_on_c, 7, 36, 84
9, 159630, Note_on_c, 7, 79, 0
9, 159630, Note_on_c, 7, 91, 81
9, 159660, Note_on_c, 7, 91, 0
9, 159660, Note_on_c, 7, 79, 65
9, 159690, Note_on_c, 7, 79, 0
9, 159690, Note_on_c, 7, 91, 84
9, 159720, Note_on_c, 7, 91, 0
9, 159720, Note_on_c, 7, 36, 0
9, 159720, Note_on_c, 7, 48, 0
9, 159720, Note_on_c, 7, 79, 65
9, 159750, Note_on_c, 7, 79, 0
9, 159750, Note_on_c, 7, 91, 84
9, 159780, Note_on_c, 7, 91, 0
9, 159780, Note_on_c, 7, 79, 69
9, 159810, Note_on_c, 7, 79, 0
9, 159810, Note_on_c, 7, 91, 89
9, 159840, Note_on_c, 7, 91, 0
9, 159840, Note_on_c, 7, 79, 68
9, 159840, Note_on_c, 7, 43, 110
9, 159860, Note_on_c, 7, 43, 0
9, 159870, Note_on_c, 7, 79, 0
9, 159870, Note_on_c, 7, 91, 78
9, 159880, Note_on_c, 7, 55, 80
9, 159900, Note_on_c, 7, 91, 0
9, 159900, Note_on_c, 7, 79, 68
9, 159920, Note_on_c, 7, 55, 0
9, 159920, Note_on_c, 7, 54, 86
9, 159930, Note_on_c, 7, 79, 0
9, 159930, Note_on_c, 7, 91, 76
9, 159960, Note_on_c, 7, 91, 0
9, 159960, Note_on_c, 7, 54, 0
9, 159960, Note_on_c, 7, 79, 70
9, 159960, Note_on_c, 7, 55, 80
9, 159980, Note_on_c, 7, 55, 0
9, 159990, Note_on_c, 7, 79, 0
9, 159990, Note_on_c, 7, 91, 77
9, 160000, Note_on_c, 7, 53, 84
9, 160020, Note_on_c, 7, 53, 0
9, 160020, Note_on_c, 7, 91, 0
9, 160020, Note_on_c, 7, 79, 68
9, 160040, Note_on_c, 7, 50, 90
9, 160050, Note_on_c, 7, 79, 0
9, 160050, Note_on_c, 7, 91, 72
9, 160060, Note_on_c, 7, 50, 0
9, 160080, Note_on_c, 7, 91, 0
9, 160080, Note_on_c, 7, 79, 67
9, 160080, Note_on_c, 7, 48, 107
9, 160100, Note_on_c, 7, 48, 0
9, 160110, Note_on_c, 7, 79, 0
9, 160110, Note_on_c, 7, 91, 77
9, 160120, Note_on_c, 7, 55, 80
9, 160140, Note_on_c, 7, 91, 0
9, 160140, Note_on_c, 7, 79, 65
9, 160160, Note_on_c, 7, 55, 0
9, 160160, Note_on_c, 7, 54, 85
9, 160170, Note_on_c, 7, 79, 0
9, 160170, Note_on_c, 7, 91, 72
9, 160200, Note_on_c, 7, 91, 0
9, 160200, Note_on_c, 7, 54, 0
9, 160200, Note_on_c, 7, 79, 61
9, 160200, Note_on_c, 7, 55, 81
9, 160220, Note_on_c, 7, 55, 0
9, 160230, Note_on_c, 7, 79, 0
9, 160230, Note_on_c, 7, 91, 80
9, 160240, Note_on_c, 7, 51, 81
9, 160260, Note_on_c, 7, 51, 0
9, 160260, Note_on_c, 7, 91, 0
9, 160260, Note_on_c, 7, 79, 67
9, 160280, Note_on_c, 7, 48, 95
9, 160290, Note_on_c, 7, 79, 0
9, 160290, Note_on_c, 7, 91, 72
9, 160300, Note_on_c, 7, 48, 0
9, 160320, Note_on_c, 7, 91, 0
9, 160320, Note_on_c, 7, 79, 66
9, 160320, Note_on_c, 7, 43, 112
9, 160340, Note_on_c, 7, 43, 0
9, 160350, Note_on_c, 7, 79, 0
9, 160350, Note_on_c, 7, 91, 74
9, 160360, Note_on_c, 7, 55, 77
9, 160380, Note_on_c, 7, 91, 0
9, 160380, Note_on_c, 7, 79, 70
9, 160400, Note_on_c, 7, 55, 0
9, 160400, Note_on_c, 7, 54, 86
9, 160410, Note_on_c, 7, 79, 0
9, 160410, Note_on_c, 7, 91, 71
9, 160440, Note_on_c, 7, 91, 0
9, 160440, Note_on_c, 7, 54, 0
9, 160440, Note_on_c, 7, 79, 66
9, 160440, Note_on_c, 7, 55, 90
9, 160460, Note_on_c, 7, 55, 0
9, 160470, Note_on_c, 7, 79, 0
9, 160470, Note_on_c, 7, 91, 89
9, 160480, Note_on_c, 7, 53, 94
9, 160500, Note_on_c, 7, 53, 0
9, 160500, Note_on_c, 7, 91, 0
9, 160500, Note_on_c, 7, 79, 65
9, 160520, Note_on_c, 7, 50, 94
9, 160530, Note_on_c, 7, 79, 0
9, 160530, Note_on_c, 7, 91, 80
9, 160540, Note_on_c, 7, 50, 0
9, 160560, Note_on_c, 7, 91, 0
9, 160560, Note_on_c, 7, 79, 67
9, 160560, Note_on_c, 7, 43, 119
9, 160580, Note_on_c, 7, 43, 0
9, 160590, Note_on_c, 7, 79, 0
9, 160590, Note_on_c, 7, 91, 74
9, 160600, Note_on_c, 7, 55, 84
9, 160620, Note_on_c, 7, 91, 0
9, 160620, Note_on_c, 7, 79, 71
9, 160640, Note_on_c, 7, 55, 0
9, 160640, Note_on_c, 7, 54, 93
9, 160650, Note_on_c, 7, 79, 0
9, 160650, Note_on_c, 7, 91, 84
9, 160680, Note_on_c, 7, 91, 0
9, 160680, Note_on_c, 7, 54, 0
9, 160680, Note_on_c, 7, 79, 71
9, 160680, Note_on_c, 7, 55, 84
9, 160700, Note_on_c, 7, 55, 0
9, 160710, Note_on_c, 7, 79, 0
9, 160710, Note_on_c, 7, 91, 84
9, 160720, Note_on_c, 7, 51, 94
9, 160740, Note_on_c, 7, 51, 0
9, 160740, Note_on_c, 7, 91, 0
9, 160740, Note_on_c, 7, 79, 72
9, 160760, Note_on_c, 7, 48, 90
9, 160770, Note_on_c, 7, 79, 0
9, 160770, Note_on_c, 7, 91, 89
9, 160780, Note_on_c, 7, 48, 0
9, 160800, Note_on_c, 7, 91, 0
9, 160800, Note_on_c, 7, 43, 93
9, 160800, Note_on_c, 7, 79, 76
9, 160860, Note_on_c, 7, 79, 0
9, 160860, Note_on_c, 7, 81, 76
9, 160900, Note_on_c, 7, 81, 0
9, 160900, Note_on_c, 7, 79, 84
9, 160920, Note_on_c, 7, 43, 0
9, 160940, Note_on_c, 7, 79, 0
9, 160940, Note_on_c, 7, 81, 80
9, 160980, Note_on_c, 7, 81, 0
9, 160980, Note_on_c, 7, 79, 77
9, 161010, Note_on_c, 7, 79, 0
9, 161010, Note_on_c, 7, 81, 80
9, 161040, Note_on_c, 7, 81, 0
9, 161040, Note_on_c, 7, 79, 76
9, 161070, Note_on_c, 7, 79, 0
9, 161070, Note_on_c, 7, 81, 80
9, 161100, Note_on_c, 7, 81, 0
9, 161100, Note_on_c, 7, 79, 76
9, 161120, Note_on_c, 7, 79, 0
9, 161120, Note_on_c, 7, 81, 84
9, 161140, Note_on_c, 7, 81, 0
9, 161140, Note_on_c, 7, 79, 80
9, 161160, Note_on_c, 7, 79, 0
9, 161160, Note_on_c, 7, 81, 81
9, 161180, Note_on_c, 7, 81, 0
9, 161180, Note_on_c, 7, 79, 78
9, 161200, Note_on_c, 7, 79, 0
9, 161200, Note_on_c, 7, 81, 84
9, 161220, Note_on_c, 7, 81, 0
9, 161220, Note_on_c, 7, 79, 72
9, 161240, Note_on_c, 7, 79, 0
9, 161240, Note_on_c, 7, 81, 84
9, 161260, Note_on_c, 7, 81, 0
9, 161260, Note_on_c, 7, 79, 78
9, 161280, Note_on_c, 7, 79, 0
9, 161280, Note_on_c, 7, 81, 82
9, 161300, Note_on_c, 7, 81, 0
9, 161300, Note_on_c, 7, 79, 74
9, 161320, Note_on_c, 7, 79, 0
9, 161320, Note_on_c, 7, 81, 76
9, 161340, Note_on_c, 7, 81, 0
9, 161340, Note_on_c, 7, 79, 76
9, 161360, Note_on_c, 7, 79, 0
9, 161360, Note_on_c, 7, 81, 81
9, 161380, Note_on_c, 7, 81, 0
9, 161380, Note_on_c, 7, 79, 76
9, 161400, Note_on_c, 7, 79, 0
9, 161400, Note_on_c, 7, 81, 77
9, 161420, Note_on_c, 7, 81, 0
9, 161420, Note_on_c, 7, 79, 74
9, 161450, Note_on_c, 7, 79, 0
9, 161450, Note_on_c, 7, 81, 66
9, 161470, Note_on_c, 7, 81, 0
9, 161470, Note_on_c, 7, 79, 72
9, 161490, Note_on_c, 7, 79, 0
9, 161490, Note_on_c, 7, 81, 72
9, 161510, Note_on_c, 7, 81, 0
9, 161510, Note_on_c, 7, 79, 76
9, 161540, Note_on_c, 7, 79, 0
9, 161540, Note_on_c, 7, 81, 72
9, 161560, Note_on_c, 7, 81, 0
9, 161560, Note_on_c, 7, 79, 69
9, 161580, Note_on_c, 7, 79, 0
9, 161580, Note_on_c, 7, 81, 65
9, 161600, Note_on_c, 7, 81, 0
9, 161600, Note_on_c, 7, 79, 72
9, 161630, Note_on_c, 7, 79, 0
9, 161630, Note_on_c, 7, 81, 73
9, 161650, Note_on_c, 7, 81, 0
9, 161650, Note_on_c, 7, 79, 73
9, 161670, Note_on_c, 7, 79, 0
9, 161670, Note_on_c, 7, 81, 77
9, 161690, Note_on_c, 7, 81, 0
9, 161690, Note_on_c, 7, 79, 73
9, 161710, Note_on_c, 7, 79, 0
9, 161710, Note_on_c, 7, 81, 67
9, 161730, Note_on_c, 7, 81, 0
9, 161730, Note_on_c, 7, 79, 73
9, 161760, Note_on_c, 7, 79, 0
9, 161760, Note_on_c, 7, 78, 78
9, 161820, Note_on_c, 7, 78, 0
9, 161820, Note_on_c, 7, 79, 84
9, 161860, Note_on_c, 7, 79, 0
9, 161860, Note_on_c, 7, 78, 82
9, 161900, Note_on_c, 7, 78, 0
9, 161900, Note_on_c, 7, 79, 82
9, 161940, Note_on_c, 7, 79, 0
9, 161940, Note_on_c, 7, 78, 80
9, 161970, Note_on_c, 7, 78, 0
9, 161970, Note_on_c, 7, 79, 80
9, 162000, Note_on_c, 7, 79, 0
9, 162000, Note_on_c, 7, 78, 76
9, 162030, Note_on_c, 7, 78, 0
9, 162030, Note_on_c, 7, 79, 86
9, 162060, Note_on_c, 7, 79, 0
9, 162060, Note_on_c, 7, 78, 84
9, 162080, Note_on_c, 7, 78, 0
9, 162080, Note_on_c, 7, 79, 81
9, 162100, Note_on_c, 7, 79, 0
9, 162100, Note_on_c, 7, 78, 78
9, 162120, Note_on_c, 7, 78, 0
9, 162120, Note_on_c, 7, 79, 82
9, 162140, Note_on_c, 7, 79, 0
9, 162140, Note_on_c, 7, 78, 78
9, 162160, Note_on_c, 7, 78, 0
9, 162160, Note_on_c, 7, 79, 86
9, 162180, Note_on_c, 7, 79, 0
9, 162180, Note_on_c, 7, 78, 77
9, 162200, Note_on_c, 7, 78, 0
9, 162200, Note_on_c, 7, 79, 80
9, 162220, Note_on_c, 7, 79, 0
9, 162220, Note_on_c, 7, 78, 81
9, 162240, Note_on_c, 7, 78, 0
9, 162240, Note_on_c, 7, 77, 82
9, 162260, Note_on_c, 7, 77, 0
9, 162260, Note_on_c, 7, 79, 73
9, 162280, Note_on_c, 7, 79, 0
9, 162280, Note_on_c, 7, 77, 85
9, 162300, Note_on_c, 7, 77, 0
9, 162300, Note_on_c, 7, 79, 84
9, 162320, Note_on_c, 7, 79, 0
9, 162320, Note_on_c, 7, 77, 81
9, 162340, Note_on_c, 7, 77, 0
9, 162340, Note_on_c, 7, 79, 82
9, 162360, Note_on_c, 7, 79, 0
9, 162360, Note_on_c, 7, 77, 76
9, 162390, Note_on_c, 7, 77, 0
9, 162390, Note_on_c, 7, 79, 78
9, 162420, Note_on_c, 7, 79, 0
9, 162420, Note_on_c, 7, 77, 82
9, 162450, Note_on_c, 7, 77, 0
9, 162450, Note_on_c, 7, 79, 81
9, 162480, Note_on_c, 7, 79, 0
9, 162480, Note_on_c, 7, 77, 86
9, 162500, Note_on_c, 7, 77, 0
9, 162500, Note_on_c, 7, 79, 86
9, 162520, Note_on_c, 7, 79, 0
9, 162520, Note_on_c, 7, 77, 89
9, 162540, Note_on_c, 7, 77, 0
9, 162540, Note_on_c, 7, 76, 81
9, 162600, Note_on_c, 7, 76, 0
9, 162600, Note_on_c, 7, 79, 93
9, 162660, Note_on_c, 7, 79, 0
9, 162660, Note_on_c, 7, 77, 89
9, 162720, Note_on_c, 7, 77, 0
9, 162720, Note_on_c, 7, 48, 94
9, 162720, Note_on_c, 7, 76, 95
9, 162780, Note_on_c, 7, 48, 0
9, 162780, Note_on_c, 7, 55, 90
9, 162840, Note_on_c, 7, 55, 0
9, 162840, Note_on_c, 7, 60, 84
9, 162900, Note_on_c, 7, 60, 0
9, 162900, Note_on_c, 7, 55, 89
9, 162960, Note_on_c, 7, 55, 0
9, 162960, Note_on_c, 7, 76, 0
9, 162960, Note_on_c, 7, 59, 89
9, 162960, Note_on_c, 7, 74, 95
9, 163020, Note_on_c, 7, 74, 0
9, 163020, Note_on_c, 7, 59, 0
9, 163020, Note_on_c, 7, 55, 86
9, 163020, Note_on_c, 7, 76, 94
9, 163080, Note_on_c, 7, 76, 0
9, 163080, Note_on_c, 7, 55, 0
9, 163080, Note_on_c, 7, 53, 81
9, 163080, Note_on_c, 7, 77, 86
9, 163140, Note_on_c, 7, 77, 0
9, 163140, Note_on_c, 7, 53, 0
9, 163140, Note_on_c, 7, 55, 89
9, 163140, Note_on_c, 7, 74, 104
9, 163200, Note_on_c, 7, 74, 0
9, 163200, Note_on_c, 7, 55, 0
9, 163200, Note_on_c, 7, 52, 89
9, 163200, Note_on_c, 7, 72, 98
9, 163260, Note_on_c, 7, 52, 0
9, 163260, Note_on_c, 7, 55, 81
9, 163320, Note_on_c, 7, 55, 0
9, 163320, Note_on_c, 7, 51, 93
9, 163380, Note_on_c, 7, 51, 0
9, 163380, Note_on_c, 7, 55, 80
9, 163440, Note_on_c, 7, 55, 0
9, 163440, Note_on_c, 7, 72, 0
9, 163440, Note_on_c, 7, 52, 98
9, 163440, Note_on_c, 7, 67, 94
9, 163500, Note_on_c, 7, 52, 0
9, 163500, Note_on_c, 7, 55, 78
9, 163560, Note_on_c, 7, 55, 0
9, 163560, Note_on_c, 7, 48, 86
9, 163620, Note_on_c, 7, 48, 0
9, 163620, Note_on_c, 7, 67, 0
9, 163620, Note_on_c, 7, 55, 85
9, 163620, Note_on_c, 7, 72, 89
9, 163680, Note_on_c, 7, 72, 0
9, 163680, Note_on_c, 7, 55, 0
9, 163680, Note_on_c, 7, 47, 86
9, 163680, Note_on_c, 7, 74, 98
9, 163740, Note_on_c, 7, 47, 0
9, 163740, Note_on_c, 7, 55, 77
9, 163800, Note_on_c, 7, 55, 0
9, 163800, Note_on_c, 7, 74, 0
9, 163800, Note_on_c, 7, 46, 95
9, 163800, Note_on_c, 7, 62, 80
9, 163800, Note_on_c, 7, 74, 84
9, 163800, Note_on_c, 7, 67, 85
9, 163860, Note_on_c, 7, 46, 0
9, 163860, Note_on_c, 7, 55, 77
9, 163890, Note_on_c, 7, 62, 0
9, 163890, Note_on_c, 7, 67, 0
9, 163890, Note_on_c, 7, 74, 0
9, 163920, Note_on_c, 7, 55, 0
9, 163920, Note_on_c, 7, 47, 99
9, 163920, Note_on_c, 7, 62, 89
9, 163920, Note_on_c, 7, 74, 93
9, 163920, Note_on_c, 7, 67, 94
9, 163980, Note_on_c, 7, 47, 0
9, 163980, Note_on_c, 7, 55, 85
9, 164010, Note_on_c, 7, 62, 0
9, 164010, Note_on_c, 7, 67, 0
9, 164010, Note_on_c, 7, 74, 0
9, 164040, Note_on_c, 7, 55, 0
9, 164040, Note_on_c, 7, 43, 89
9, 164040, Note_on_c, 7, 75, 78
9, 164040, Note_on_c, 7, 63, 81
9, 164040, Note_on_c, 7, 67, 99
9, 164100, Note_on_c, 7, 43, 0
9, 164100, Note_on_c, 7, 55, 81
9, 164130, Note_on_c, 7, 75, 0
9, 164130, Note_on_c, 7, 67, 0
9, 164130, Note_on_c, 7, 63, 0
9, 164160, Note_on_c, 7, 55, 0
9, 164160, Note_on_c, 7, 48, 94
9, 164160, Note_on_c, 7, 63, 76
9, 164160, Note_on_c, 7, 75, 77
9, 164160, Note_on_c, 7, 67, 94
9, 164220, Note_on_c, 7, 48, 0
9, 164220, Note_on_c, 7, 55, 90
9, 164280, Note_on_c, 7, 55, 0
9, 164280, Note_on_c, 7, 59, 94
9, 164340, Note_on_c, 7, 59, 0
9, 164340, Note_on_c, 7, 55, 89
9, 164400, Note_on_c, 7, 55, 0
9, 164400, Note_on_c, 7, 67, 0
9, 164400, Note_on_c, 7, 75, 0
9, 164400, Note_on_c, 7, 63, 0
9, 164400, Note_on_c, 7, 60, 84
9, 164400, Note_on_c, 7, 67, 74
9, 164400, Note_on_c, 7, 64, 80
9, 164400, Note_on_c, 7, 76, 64
9, 164430, Note_on_c, 7, 60, 0
9, 164460, Note_on_c, 7, 55, 89
9, 164490, Note_on_c, 7, 55, 0
9, 164520, Note_on_c, 7, 76, 0
9, 164520, Note_on_c, 7, 64, 0
9, 164520, Note_on_c, 7, 67, 0
9, 164520, Note_on_c, 7, 52, 94
9, 164550, Note_on_c, 7, 52, 0
9, 164580, Note_on_c, 7, 72, 78
9, 164580, Note_on_c, 7, 48, 99
9, 164610, Note_on_c, 7, 48, 0
9, 164640, Note_on_c, 7, 72, 0
9, 164640, Note_on_c, 7, 45, 101
9, 164640, Note_on_c, 7, 65, 84
9, 164640, Note_on_c, 7, 77, 119
9, 164640, Note_on_c, 7, 72, 50
9, 164670, Note_on_c, 7, 45, 0
9, 164700, Note_on_c, 7, 48, 93
9, 164730, Note_on_c, 7, 48, 0
9, 164760, Note_on_c, 7, 53, 86
9, 164790, Note_on_c, 7, 53, 0
9, 164820, Note_on_c, 7, 57, 94
9, 164850, Note_on_c, 7, 57, 0
9, 164880, Note_on_c, 7, 72, 0
9, 164880, Note_on_c, 7, 77, 0
9, 164880, Note_on_c, 7, 65, 0
9, 164880, Note_on_c, 7, 64, 94
9, 164880, Note_on_c, 7, 72, 57
9, 164880, Note_on_c, 7, 76, 93
9, 164880, Note_on_c, 7, 55, 86
9, 164910, Note_on_c, 7, 55, 0
9, 164940, Note_on_c, 7, 60, 90
9, 164970, Note_on_c, 7, 60, 0
9, 165000, Note_on_c, 7, 76, 0
9, 165000, Note_on_c, 7, 72, 0
9, 165000, Note_on_c, 7, 64, 0
9, 165000, Note_on_c, 7, 64, 93
9, 165030, Note_on_c, 7, 64, 0
9, 165060, Note_on_c, 7, 72, 94
9, 165060, Note_on_c, 7, 67, 80
9, 165090, Note_on_c, 7, 67, 0
9, 165120, Note_on_c, 7, 72, 0
9, 165120, Note_on_c, 7, 69, 107
9, 165120, Note_on_c, 7, 72, 73
9, 165120, Note_on_c, 7, 81, 115
9, 165120, Note_on_c, 7, 65, 93
9, 165150, Note_on_c, 7, 65, 0
9, 165180, Note_on_c, 7, 60, 90
9, 165210, Note_on_c, 7, 60, 0
9, 165240, Note_on_c, 7, 57, 104
9, 165270, Note_on_c, 7, 57, 0
9, 165300, Note_on_c, 7, 53, 86
9, 165330, Note_on_c, 7, 53, 0
9, 165360, Note_on_c, 7, 81, 0
9, 165360, Note_on_c, 7, 72, 0
9, 165360, Note_on_c, 7, 69, 0
9, 165360, Note_on_c, 7, 67, 74
9, 165360, Note_on_c, 7, 79, 73
9, 165360, Note_on_c, 7, 72, 68
9, 165360, Note_on_c, 7, 52, 99
9, 165390, Note_on_c, 7, 52, 0
9, 165420, Note_on_c, 7, 67, 0
9, 165420, Note_on_c, 7, 79, 0
9, 165420, Note_on_c, 7, 72, 0
9, 165420, Note_on_c, 7, 64, 84
9, 165450, Note_on_c, 7, 64, 0
9, 165480, Note_on_c, 7, 79, 76
9, 165480, Note_on_c, 7, 73, 80
9, 165480, Note_on_c, 7, 45, 112
9, 165510, Note_on_c, 7, 45, 0
9, 165540, Note_on_c, 7, 57, 99
9, 165570, Note_on_c, 7, 57, 0
9, 165600, Note_on_c, 7, 73, 0
9, 165600, Note_on_c, 7, 79, 0
9, 165600, Note_on_c, 7, 78, 86
9, 165600, Note_on_c, 7, 74, 94
9, 165600, Note_on_c, 7, 38, 119
9, 165630, Note_on_c, 7, 38, 0
9, 165660, Note_on_c, 7, 50, 99
9, 165690, Note_on_c, 7, 50, 0
9, 165720, Note_on_c, 7, 74, 0
9, 165720, Note_on_c, 7, 78, 0
9, 165720, Note_on_c, 7, 77, 76
9, 165720, Note_on_c, 7, 71, 94
9, 165720, Note_on_c, 7, 43, 117
9, 165750, Note_on_c, 7, 43, 0
9, 165780, Note_on_c, 7, 55, 82
9, 165810, Note_on_c, 7, 55, 0
9, 165840, Note_on_c, 7, 71, 0
9, 165840, Note_on_c, 7, 77, 0
9, 165840, Note_on_c, 7, 76, 81
9, 165840, Note_on_c, 7, 48, 112
9, 165840, Note_on_c, 7, 72, 77
9, 165870, Note_on_c, 7, 48, 0
9, 165900, Note_on_c, 7, 60, 89
9, 165930, Note_on_c, 7, 60, 0
9, 165960, Note_on_c, 7, 72, 0
9, 165960, Note_on_c, 7, 76, 0
9, 165960, Note_on_c, 7, 81, 80
9, 165960, Note_on_c, 7, 69, 99
9, 165960, Note_on_c, 7, 53, 112
9, 165990, Note_on_c, 7, 53, 0
9, 166020, Note_on_c, 7, 65, 99
9, 166050, Note_on_c, 7, 65, 0
9, 166080, Note_on_c, 7, 69, 0
9, 166080, Note_on_c, 7, 81, 0
9, 166080, Note_on_c, 7, 55, 84
9, 166080, Note_on_c, 7, 64, 86
9, 166080, Note_on_c, 7, 72, 104
9, 166140, Note_on_c, 7, 64, 0
9, 166140, Note_on_c, 7, 63, 82
9, 166200, Note_on_c, 7, 63, 0
9, 166200, Note_on_c, 7, 64, 82
9, 166260, Note_on_c, 7, 64, 0
9, 166260, Note_on_c, 7, 66, 84
9, 166320, Note_on_c, 7, 66, 0
9, 166320, Note_on_c, 7, 72, 0
9, 166320, Note_on_c, 7, 67, 84
9, 166320, Note_on_c, 7, 71, 95
9, 166380, Note_on_c, 7, 71, 0
9, 166380, Note_on_c, 7, 67, 0
9, 166380, Note_on_c, 7, 55, 0
9, 166380, Note_on_c, 7, 65, 82
9, 166380, Note_on_c, 7, 77, 77
9, 166380, Note_on_c, 7, 69, 74
9, 166380, Note_on_c, 7, 81, 80
9, 166440, Note_on_c, 7, 81, 0
9, 166440, Note_on_c, 7, 65, 0
9, 166440, Note_on_c, 7, 77, 0
9, 166440, Note_on_c, 7, 69, 0
9, 166440, Note_on_c, 7, 67, 76
9, 166440, Note_on_c, 7, 79, 82
9, 166440, Note_on_c, 7, 76, 76
9, 166440, Note_on_c, 7, 64, 93
9, 166500, Note_on_c, 7, 64, 0
9, 166500, Note_on_c, 7, 67, 0
9, 166500, Note_on_c, 7, 79, 0
9, 166500, Note_on_c, 7, 76, 0
9, 166500, Note_on_c, 7, 62, 84
9, 166500, Note_on_c, 7, 65, 94
9, 166500, Note_on_c, 7, 77, 86
9, 166500, Note_on_c, 7, 74, 84
9, 166560, Note_on_c, 7, 74, 0
9, 166560, Note_on_c, 7, 62, 0
9, 166560, Note_on_c, 7, 65, 0
9, 166560, Note_on_c, 7, 77, 0
9, 166560, Note_on_c, 7, 64, 84
9, 166560, Note_on_c, 7, 76, 90
9, 166560, Note_on_c, 7, 60, 89
9, 166560, Note_on_c, 7, 72, 52
9, 166620, Note_on_c, 7, 72, 0
9, 166620, Note_on_c, 7, 64, 0
9, 166620, Note_on_c, 7, 76, 0
9, 166620, Note_on_c, 7, 60, 0
9, 170340, Note_on_c, 7, 72, 70
9, 170400, Note_on_c, 7, 72, 0
9, 170400, Note_on_c, 7, 77, 77
9, 170400, Note_on_c, 7, 69, 90
9, 170400, Note_on_c, 7, 72, 62
9, 170640, Note_on_c, 7, 72, 0
9, 170640, Note_on_c, 7, 69, 0
9, 170640, Note_on_c, 7, 77, 0
9, 170640, Note_on_c, 7, 67, 85
9, 170640, Note_on_c, 7, 76, 89
9, 170640, Note_on_c, 7, 72, 67
9, 170880, Note_on_c, 7, 72, 0
9, 170880, Note_on_c, 7, 76, 0
9, 170880, Note_on_c, 7, 67, 0
9, 170880, Note_on_c, 7, 65, 93
9, 170880, Note_on_c, 7, 81, 93
9, 170880, Note_on_c, 7, 72, 61
9, 170880, Note_on_c, 7, 69, 81
9, 171120, Note_on_c, 7, 69, 0
9, 171120, Note_on_c, 7, 65, 0
9, 171120, Note_on_c, 7, 81, 0
9, 171120, Note_on_c, 7, 72, 0
9, 171120, Note_on_c, 7, 73, 72
9, 171120, Note_on_c, 7, 79, 86
9, 171120, Note_on_c, 7, 63, 76
9, 171120, Note_on_c, 7, 67, 68
9, 171360, Note_on_c, 7, 67, 0
9, 171360, Note_on_c, 7, 73, 0
9, 171360, Note_on_c, 7, 79, 0
9, 171360, Note_on_c, 7, 63, 0
9, 171360, Note_on_c, 7, 62, 78
9, 171360, Note_on_c, 7, 69, 89
9, 171360, Note_on_c, 7, 72, 43
9, 171360, Note_on_c, 7, 78, 80
9, 171360, Note_on_c, 7, 74, 86
9, 171390, Note_on_c, 7, 74, 0
9, 171390, Note_on_c, 7, 78, 0
9, 171390, Note_on_c, 7, 79, 86
9, 171420, Note_on_c, 7, 79, 0
9, 171420, Note_on_c, 7, 81, 95
9, 171450, Note_on_c, 7, 81, 0
9, 171450, Note_on_c, 7, 83, 94
9, 171480, Note_on_c, 7, 83, 0
9, 171480, Note_on_c, 7, 72, 0
9, 171480, Note_on_c, 7, 69, 0
9, 171480, Note_on_c, 7, 62, 0
9, 171480, Note_on_c, 7, 84, 93
9, 171510, Note_on_c, 7, 84, 0
9, 171510, Note_on_c, 7, 83, 93
9, 171540, Note_on_c, 7, 83, 0
9, 171540, Note_on_c, 7, 81, 95
9, 171570, Note_on_c, 7, 81, 0
9, 171570, Note_on_c, 7, 83, 90
9, 171600, Note_on_c, 7, 83, 0
9, 171600, Note_on_c, 7, 84, 89
9, 171630, Note_on_c, 7, 84, 0
9, 171630, Note_on_c, 7, 83, 89
9, 171660, Note_on_c, 7, 83, 0
9, 171660, Note_on_c, 7, 81, 86
9, 171690, Note_on_c, 7, 81, 0
9, 171690, Note_on_c, 7, 79, 81
9, 171720, Note_on_c, 7, 79, 0
9, 171720, Note_on_c, 7, 78, 84
9, 171750, Note_on_c, 7, 78, 0
9, 171750, Note_on_c, 7, 76, 95
9, 171780, Note_on_c, 7, 76, 0
9, 171780, Note_on_c, 7, 74, 95
9, 171810, Note_on_c, 7, 74, 0
9, 171810, Note_on_c, 7, 72, 73
9, 171840, Note_on_c, 7, 72, 0
9, 171840, Note_on_c, 7, 71, 89
9, 171870, Note_on_c, 7, 71, 0
9, 171870, Note_on_c, 7, 74, 99
9, 171900, Note_on_c, 7, 74, 0
9, 171900, Note_on_c, 7, 62, 81
9, 171900, Note_on_c, 7, 77, 82
9, 171930, Note_on_c, 7, 77, 0
9, 171930, Note_on_c, 7, 62, 0
9, 171930, Note_on_c, 7, 83, 95
9, 171930, Note_on_c, 7, 65, 94
9, 171960, Note_on_c, 7, 65, 0
9, 171960, Note_on_c, 7, 83, 0
9, 171960, Note_on_c, 7, 71, 86
9, 171960, Note_on_c, 7, 86, 99
9, 171990, Note_on_c, 7, 86, 0
9, 171990, Note_on_c, 7, 71, 0
9, 171990, Note_on_c, 7, 83, 89
9, 171990, Note_on_c, 7, 65, 86
9, 172020, Note_on_c, 7, 65, 0
9, 172020, Note_on_c, 7, 83, 0
9, 172020, Note_on_c, 7, 89, 84
9, 172020, Note_on_c, 7, 74, 94
9, 172050, Note_on_c, 7, 74, 0
9, 172050, Note_on_c, 7, 89, 0
9, 172050, Note_on_c, 7, 73, 86
9, 172050, Note_on_c, 7, 88, 99
9, 172080, Note_on_c, 7, 88, 0
9, 172080, Note_on_c, 7, 73, 0
9, 172080, Note_on_c, 7, 89, 86
9, 172080, Note_on_c, 7, 74, 94
9, 172110, Note_on_c, 7, 74, 0
9, 172110, Note_on_c, 7, 89, 0
9, 172110, Note_on_c, 7, 88, 94
9, 172110, Note_on_c, 7, 72, 71
9, 172140, Note_on_c, 7, 72, 0
9, 172140, Note_on_c, 7, 88, 0
9, 172140, Note_on_c, 7, 71, 89
9, 172140, Note_on_c, 7, 86, 101
9, 172170, Note_on_c, 7, 86, 0
9, 172170, Note_on_c, 7, 71, 0
9, 172170, Note_on_c, 7, 84, 89
9, 172170, Note_on_c, 7, 69, 86
9, 172200, Note_on_c, 7, 69, 0
9, 172200, Note_on_c, 7, 84, 0
9, 172200, Note_on_c, 7, 67, 80
9, 172200, Note_on_c, 7, 83, 85
9, 172230, Note_on_c, 7, 83, 0
9, 172230, Note_on_c, 7, 67, 0
9, 172230, Note_on_c, 7, 65, 89
9, 172230, Note_on_c, 7, 81, 94
9, 172260, Note_on_c, 7, 81, 0
9, 172260, Note_on_c, 7, 65, 0
9, 172260, Note_on_c, 7, 79, 82
9, 172260, Note_on_c, 7, 64, 89
9, 172290, Note_on_c, 7, 64, 0
9, 172290, Note_on_c, 7, 79, 0
9, 172290, Note_on_c, 7, 62, 84
9, 172290, Note_on_c, 7, 77, 94
9, 172320, Note_on_c, 7, 77, 0
9, 172320, Note_on_c, 7, 62, 0
9, 172320, Note_on_c, 7, 60, 89
9, 172320, Note_on_c, 7, 77, 89
9, 172340, Note_on_c, 7, 77, 0
9, 172340, Note_on_c, 7, 79, 90
9, 172360, Note_on_c, 7, 79, 0
9, 172360, Note_on_c, 7, 77, 86
9, 172380, Note_on_c, 7, 77, 0
9, 172380, Note_on_c, 7, 76, 99
9, 172440, Note_on_c, 7, 76, 0
9, 172440, Note_on_c, 7, 60, 0
9, 172440, Note_on_c, 7, 57, 80
9, 172440, Note_on_c, 7, 64, 76
9, 172440, Note_on_c, 7, 60, 84
9, 172440, Note_on_c, 7, 86, 99
9, 172460, Note_on_c, 7, 86, 0
9, 172460, Note_on_c, 7, 88, 94
9, 172480, Note_on_c, 7, 88, 0
9, 172480, Note_on_c, 7, 86, 98
9, 172500, Note_on_c, 7, 86, 0
9, 172500, Note_on_c, 7, 84, 89
9, 172560, Note_on_c, 7, 84, 0
9, 172560, Note_on_c, 7, 60, 0
9, 172560, Note_on_c, 7, 64, 0
9, 172560, Note_on_c, 7, 57, 0
9, 172560, Note_on_c, 7, 83, 99
9, 172580, Note_on_c, 7, 83, 0
9, 172580, Note_on_c, 7, 84, 94
9, 172600, Note_on_c, 7, 84, 0
9, 172600, Note_on_c, 7, 83, 99
9, 172620, Note_on_c, 7, 83, 0
9, 172620, Note_on_c, 7, 81, 93
9, 172680, Note_on_c, 7, 81, 0
9, 172680, Note_on_c, 7, 62, 76
9, 172680, Note_on_c, 7, 53, 84
9, 172680, Note_on_c, 7, 57, 89
9, 172680, Note_on_c, 7, 79, 89
9, 172700, Note_on_c, 7, 79, 0
9, 172700, Note_on_c, 7, 81, 94
9, 172720, Note_on_c, 7, 81, 0
9, 172720, Note_on_c, 7, 79, 95
9, 172740, Note_on_c, 7, 79, 0
9, 172740, Note_on_c, 7, 77, 86
9, 172800, Note_on_c, 7, 77, 0
9, 172800, Note_on_c, 7, 57, 0
9, 172800, Note_on_c, 7, 53, 0
9, 172800, Note_on_c, 7, 62, 0
9, 172800, Note_on_c, 7, 77, 89
9, 172820, Note_on_c, 7, 77, 0
9, 172820, Note_on_c, 7, 79, 90
9, 172840, Note_on_c, 7, 79, 0
9, 172840, Note_on_c, 7, 77, 94
9, 172860, Note_on_c, 7, 77, 0
9, 172860, Note_on_c, 7, 76, 90
9, 172920, Note_on_c, 7, 76, 0
9, 172920, Note_on_c, 7, 64, 70
9, 172920, Note_on_c, 7, 60, 80
9, 172920, Note_on_c, 7, 55, 72
9, 172920, Note_on_c, 7, 81, 95
9, 172940, Note_on_c, 7, 81, 0
9, 172940, Note_on_c, 7, 83, 90
9, 172960, Note_on_c, 7, 83, 0
9, 172960, Note_on_c, 7, 81, 90
9, 172980, Note_on_c, 7, 81, 0
9, 172980, Note_on_c, 7, 79, 86
9, 173040, Note_on_c, 7, 79, 0
9, 173040, Note_on_c, 7, 55, 0
9, 173040, Note_on_c, 7, 60, 0
9, 173040, Note_on_c, 7, 64, 0
9, 173040, Note_on_c, 7, 79, 94
9, 173060, Note_on_c, 7, 79, 0
9, 173060, Note_on_c, 7, 81, 94
9, 173080, Note_on_c, 7, 81, 0
9, 173080, Note_on_c, 7, 79, 94
9, 173100, Note_on_c, 7, 79, 0
9, 173100, Note_on_c, 7, 77, 89
9, 173160, Note_on_c, 7, 77, 0
9, 173160, Note_on_c, 7, 55, 58
9, 173160, Note_on_c, 7, 50, 76
9, 173160, Note_on_c, 7, 47, 78
9, 173160, Note_on_c, 7, 43, 61
9, 173160, Note_on_c, 7, 76, 99
9, 173180, Note_on_c, 7, 76, 0
9, 173180, Note_on_c, 7, 77, 94
9, 173200, Note_on_c, 7, 77, 0
9, 173200, Note_on_c, 7, 76, 99
9, 173220, Note_on_c, 7, 76, 0
9, 173220, Note_on_c, 7, 74, 99
9, 173280, Note_on_c, 7, 74, 0
9, 173280, Note_on_c, 7, 43, 0
9, 173280, Note_on_c, 7, 55, 0
9, 173280, Note_on_c, 7, 50, 0
9, 173280, Note_on_c, 7, 47, 0
9, 173280, Note_on_c, 7, 60, 72
9, 173280, Note_on_c, 7, 55, 80
9, 173280, Note_on_c, 7, 48, 54
9, 173280, Note_on_c, 7, 52, 89
9, 173280, Note_on_c, 7, 72, 89
9, 173400, Note_on_c, 7, 72, 0
9, 173400, Note_on_c, 7, 48, 0
9, 173400, Note_on_c, 7, 60, 0
9, 173400, Note_on_c, 7, 55, 0
9, 173400, Note_on_c, 7, 52, 0
9, 174240, Note_on_c, 7, 29, 80
9, 174280, Note_on_c, 7, 29, 0
9, 174280, Note_on_c, 7, 33, 86
9, 174320, Note_on_c, 7, 33, 0
9, 174320, Note_on_c, 7, 38, 84
9, 174360, Note_on_c, 7, 38, 0
9, 174360, Note_on_c, 7, 41, 77
9, 174400, Note_on_c, 7, 41, 0
9, 174400, Note_on_c, 7, 45, 81
9, 174440, Note_on_c, 7, 45, 0
9, 174440, Note_on_c, 7, 50, 89
9, 174480, Note_on_c, 7, 50, 0
9, 174480, Note_on_c, 7, 53, 84
9, 174500, Note_on_c, 7, 53, 0
9, 174500, Note_on_c, 7, 57, 95
9, 174520, Note_on_c, 7, 57, 0
9, 174520, Note_on_c, 7, 62, 78
9, 174540, Note_on_c, 7, 62, 0
9, 174540, Note_on_c, 7, 65, 86
9, 174555, Note_on_c, 7, 65, 0
9, 174555, Note_on_c, 7, 69, 99
9, 174570, Note_on_c, 7, 69, 0
9, 174570, Note_on_c, 7, 74, 95
9, 174585, Note_on_c, 7, 74, 0
9, 174585, Note_on_c, 7, 77, 93
9, 174600, Note_on_c, 7, 77, 0
9, 174600, Note_on_c, 7, 62, 63
9, 174600, Note_on_c, 7, 53, 72
9, 174600, Note_on_c, 7, 57, 84
9, 174600, Note_on_c, 7, 81, 76
9, 174620, Note_on_c, 7, 81, 0
9, 174640, Note_on_c, 7, 77, 86
9, 174660, Note_on_c, 7, 77, 0
9, 174680, Note_on_c, 7, 74, 94
9, 174700, Note_on_c, 7, 74, 0
9, 174720, Note_on_c, 7, 62, 0
9, 174720, Note_on_c, 7, 53, 0
9, 174720, Note_on_c, 7, 57, 0
9, 174720, Note_on_c, 7, 64, 65
9, 174720, Note_on_c, 7, 55, 63
9, 174720, Note_on_c, 7, 60, 74
9, 174720, Note_on_c, 7, 74, 95
9, 174740, Note_on_c, 7, 74, 0
9, 174740, Note_on_c, 7, 76, 95
9, 174760, Note_on_c, 7, 76, 0
9, 174760, Note_on_c, 7, 74, 99
9, 174780, Note_on_c, 7, 74, 0
9, 174780, Note_on_c, 7, 72, 89
9, 174840, Note_on_c, 7, 72, 0
9, 174840, Note_on_c, 7, 60, 0
9, 174840, Note_on_c, 7, 55, 0
9, 174840, Note_on_c, 7, 64, 0
9, 174840, Note_on_c, 7, 64, 61
9, 174840, Note_on_c, 7, 55, 71
9, 174840, Note_on_c, 7, 60, 76
9, 174840, Note_on_c, 7, 72, 85
9, 174870, Note_on_c, 7, 72, 0
9, 174900, Note_on_c, 7, 72, 86
9, 174930, Note_on_c, 7, 72, 0
9, 174960, Note_on_c, 7, 60, 0
9, 174960, Note_on_c, 7, 55, 0
9, 174960, Note_on_c, 7, 64, 0
9, 174960, Note_on_c, 7, 72, 89
9, 174980, Note_on_c, 7, 72, 0
9, 174980, Note_on_c, 7, 74, 105
9, 175000, Note_on_c, 7, 74, 0
9, 175000, Note_on_c, 7, 72, 101
9, 175020, Note_on_c, 7, 72, 0
9, 175020, Note_on_c, 7, 71, 95
9, 175080, Note_on_c, 7, 71, 0
9, 175080, Note_on_c, 7, 65, 72
9, 175080, Note_on_c, 7, 55, 76
9, 175080, Note_on_c, 7, 62, 80
9, 175080, Note_on_c, 7, 71, 99
9, 175110, Note_on_c, 7, 71, 0
9, 175140, Note_on_c, 7, 71, 104
9, 175170, Note_on_c, 7, 71, 0
9, 175200, Note_on_c, 7, 62, 0
9, 175200, Note_on_c, 7, 55, 0
9, 175200, Note_on_c, 7, 65, 0
9, 175200, Note_on_c, 7, 60, 77
9, 175200, Note_on_c, 7, 48, 76
9, 175200, Note_on_c, 7, 72, 94
9, 175260, Note_on_c, 7, 72, 0
9, 175260, Note_on_c, 7, 48, 0
9, 175260, Note_on_c, 7, 60, 0
9, 175320, Note_on_c, 7, 67, 61
9, 175320, Note_on_c, 7, 63, 77
9, 175320, Note_on_c, 7, 72, 68
9, 175320, Note_on_c, 7, 79, 89
9, 175410, Note_on_c, 7, 79, 0
9, 175410, Note_on_c, 7, 67, 0
9, 175410, Note_on_c, 7, 63, 0
9, 175410, Note_on_c, 7, 72, 0
9, 175440, Note_on_c, 7, 63, 76
9, 175440, Note_on_c, 7, 67, 72
9, 175440, Note_on_c, 7, 79, 80
9, 175440, Note_on_c, 7, 72, 68
9, 175530, Note_on_c, 7, 72, 0
9, 175530, Note_on_c, 7, 63, 0
9, 175530, Note_on_c, 7, 67, 0
9, 175530, Note_on_c, 7, 79, 0
9, 175560, Note_on_c, 7, 63, 81
9, 175560, Note_on_c, 7, 67, 66
9, 175560, Note_on_c, 7, 79, 81
9, 175560, Note_on_c, 7, 72, 66
9, 175650, Note_on_c, 7, 72, 0
9, 175650, Note_on_c, 7, 63, 0
9, 175650, Note_on_c, 7, 67, 0
9, 175650, Note_on_c, 7, 79, 0
9, 175680, Note_on_c, 7, 63, 80
9, 175680, Note_on_c, 7, 67, 60
9, 175680, Note_on_c, 7, 72, 72
9, 175680, Note_on_c, 7, 79, 89
9, 175920, Note_on_c, 7, 79, 0
9, 175920, Note_on_c, 7, 63, 0
9, 175920, Note_on_c, 7, 67, 0
9, 175920, Note_on_c, 7, 72, 0
9, 175920, Note_on_c, 7, 67, 66
9, 175920, Note_on_c, 7, 62, 81
9, 175920, Note_on_c, 7, 77, 84
9, 175920, Note_on_c, 7, 71, 98
9, 176100, Note_on_c, 7, 71, 0
9, 176100, Note_on_c, 7, 67, 0
9, 176100, Note_on_c, 7, 62, 0
9, 176100, Note_on_c, 7, 77, 0
9, 176100, Note_on_c, 7, 67, 84
9, 176100, Note_on_c, 7, 60, 89
9, 176100, Note_on_c, 7, 72, 61
9, 176100, Note_on_c, 7, 75, 94
9, 176160, Note_on_c, 7, 75, 0
9, 176160, Note_on_c, 7, 67, 0
9, 176160, Note_on_c, 7, 60, 0
9, 176160, Note_on_c, 7, 72, 0
9, 176160, Note_on_c, 7, 68, 77
9, 176160, Note_on_c, 7, 72, 66
9, 176160, Note_on_c, 7, 84, 78
9, 176160, Note_on_c, 7, 77, 89
9, 176400, Note_on_c, 7, 77, 0
9, 176400, Note_on_c, 7, 68, 0
9, 176400, Note_on_c, 7, 72, 0
9, 176400, Note_on_c, 7, 84, 0
9, 176400, Note_on_c, 7, 67, 77
9, 176400, Note_on_c, 7, 70, 81
9, 176400, Note_on_c, 7, 82, 78
9, 176400, Note_on_c, 7, 76, 105
9, 176580, Note_on_c, 7, 76, 0
9, 176580, Note_on_c, 7, 67, 0
9, 176580, Note_on_c, 7, 70, 0
9, 176580, Note_on_c, 7, 82, 0
9, 176580, Note_on_c, 7, 68, 89
9, 176580, Note_on_c, 7, 65, 86
9, 176580, Note_on_c, 7, 77, 78
9, 176580, Note_on_c, 7, 80, 84
9, 176640, Note_on_c, 7, 80, 0
9, 176640, Note_on_c, 7, 68, 0
9, 176640, Note_on_c, 7, 65, 0
9, 176640, Note_on_c, 7, 77, 0
9, 176640, Note_on_c, 7, 68, 84
9, 176640, Note_on_c, 7, 65, 80
9, 176640, Note_on_c, 7, 80, 86
9, 176700, Note_on_c, 7, 80, 0
9, 176700, Note_on_c, 7, 82, 89
9, 176730, Note_on_c, 7, 82, 0
9, 176730, Note_on_c, 7, 80, 95
9, 176760, Note_on_c, 7, 80, 0
9, 176760, Note_on_c, 7, 82, 89
9, 176780, Note_on_c, 7, 82, 0
9, 176780, Note_on_c, 7, 80, 93
9, 176800, Note_on_c, 7, 80, 0
9, 176800, Note_on_c, 7, 82, 89
9, 176820, Note_on_c, 7, 82, 0
9, 176820, Note_on_c, 7, 80, 90
9, 176840, Note_on_c, 7, 80, 0
9, 176840, Note_on_c, 7, 82, 89
9, 176860, Note_on_c, 7, 82, 0
9, 176860, Note_on_c, 7, 80, 93
9, 176880, Note_on_c, 7, 80, 0
9, 176880, Note_on_c, 7, 65, 0
9, 176880, Note_on_c, 7, 68, 0
9, 176880, Note_on_c, 7, 67, 72
9, 176880, Note_on_c, 7, 63, 78
9, 176880, Note_on_c, 7, 82, 93
9, 176900, Note_on_c, 7, 82, 0
9, 176900, Note_on_c, 7, 80, 94
9, 176920, Note_on_c, 7, 80, 0
9, 176920, Note_on_c, 7, 82, 89
9, 176940, Note_on_c, 7, 82, 0
9, 176940, Note_on_c, 7, 80, 94
9, 176960, Note_on_c, 7, 80, 0
9, 176960, Note_on_c, 7, 82, 85
9, 176980, Note_on_c, 7, 82, 0
9, 176980, Note_on_c, 7, 80, 99
9, 177000, Note_on_c, 7, 80, 0
9, 177000, Note_on_c, 7, 82, 94
9, 177020, Note_on_c, 7, 82, 0
9, 177020, Note_on_c, 7, 80, 95
9, 177040, Note_on_c, 7, 80, 0
9, 177040, Note_on_c, 7, 82, 89
9, 177060, Note_on_c, 7, 82, 0
9, 177060, Note_on_c, 7, 63, 0
9, 177060, Note_on_c, 7, 67, 0
9, 177060, Note_on_c, 7, 62, 77
9, 177060, Note_on_c, 7, 65, 85
9, 177060, Note_on_c, 7, 80, 99
9, 177080, Note_on_c, 7, 80, 0
9, 177080, Note_on_c, 7, 82, 90
9, 177100, Note_on_c, 7, 82, 0
9, 177100, Note_on_c, 7, 80, 99
9, 177120, Note_on_c, 7, 80, 0
9, 177120, Note_on_c, 7, 65, 0
9, 177120, Note_on_c, 7, 62, 0
9, 177120, Note_on_c, 7, 65, 80
9, 177120, Note_on_c, 7, 62, 84
9, 177120, Note_on_c, 7, 82, 95
9, 177140, Note_on_c, 7, 82, 0
9, 177140, Note_on_c, 7, 80, 90
9, 177160, Note_on_c, 7, 80, 0
9, 177160, Note_on_c, 7, 82, 86
9, 177180, Note_on_c, 7, 82, 0
9, 177180, Note_on_c, 7, 80, 93
9, 177200, Note_on_c, 7, 80, 0
9, 177200, Note_on_c, 7, 82, 84
9, 177220, Note_on_c, 7, 82, 0
9, 177220, Note_on_c, 7, 80, 94
9, 177240, Note_on_c, 7, 80, 0
9, 177240, Note_on_c, 7, 82, 89
9, 177260, Note_on_c, 7, 82, 0
9, 177260, Note_on_c, 7, 80, 95
9, 177280, Note_on_c, 7, 80, 0
9, 177280, Note_on_c, 7, 82, 89
9, 177300, Note_on_c, 7, 82, 0
9, 177300, Note_on_c, 7, 80, 94
9, 177320, Note_on_c, 7, 80, 0
9, 177320, Note_on_c, 7, 82, 86
9, 177340, Note_on_c, 7, 82, 0
9, 177340, Note_on_c, 7, 80, 95
9, 177360, Note_on_c, 7, 80, 0
9, 177360, Note_on_c, 7, 62, 0
9, 177360, Note_on_c, 7, 65, 0
9, 177360, Note_on_c, 7, 60, 76
9, 177360, Note_on_c, 7, 63, 85
9, 177360, Note_on_c, 7, 80, 90
9, 177380, Note_on_c, 7, 80, 0
9, 177380, Note_on_c, 7, 79, 95
9, 177400, Note_on_c, 7, 79, 0
9, 177400, Note_on_c, 7, 80, 95
9, 177420, Note_on_c, 7, 80, 0
9, 177420, Note_on_c, 7, 82, 93
9, 177435, Note_on_c, 7, 82, 0
9, 177435, Note_on_c, 7, 84, 94
9, 177450, Note_on_c, 7, 84, 0
9, 177450, Note_on_c, 7, 86, 94
9, 177465, Note_on_c, 7, 86, 0
9, 177465, Note_on_c, 7, 87, 95
9, 177480, Note_on_c, 7, 87, 0
9, 177480, Note_on_c, 7, 89, 95
9, 177500, Note_on_c, 7, 89, 0
9, 177500, Note_on_c, 7, 87, 95
9, 177520, Note_on_c, 7, 87, 0
9, 177520, Note_on_c, 7, 86, 95
9, 177540, Note_on_c, 7, 86, 0
9, 177540, Note_on_c, 7, 63, 0
9, 177540, Note_on_c, 7, 60, 0
9, 177540, Note_on_c, 7, 62, 73
9, 177540, Note_on_c, 7, 58, 77
9, 177540, Note_on_c, 7, 84, 86
9, 177560, Note_on_c, 7, 84, 0
9, 177560, Note_on_c, 7, 82, 89
9, 177580, Note_on_c, 7, 82, 0
9, 177580, Note_on_c, 7, 80, 98
9, 177600, Note_on_c, 7, 80, 0
9, 177600, Note_on_c, 7, 58, 0
9, 177600, Note_on_c, 7, 62, 0
9, 177600, Note_on_c, 7, 51, 93
9, 177600, Note_on_c, 7, 79, 95
9, 177620, Note_on_c, 7, 79, 0
9, 177620, Note_on_c, 7, 80, 86
9, 177640, Note_on_c, 7, 80, 0
9, 177640, Note_on_c, 7, 51, 0
9, 177640, Note_on_c, 7, 55, 89
9, 177640, Note_on_c, 7, 79, 95
9, 177660, Note_on_c, 7, 79, 0
9, 177660, Note_on_c, 7, 77, 89
9, 177680, Note_on_c, 7, 55, 0
9, 177680, Note_on_c, 7, 58, 84
9, 177690, Note_on_c, 7, 77, 0
9, 177690, Note_on_c, 7, 79, 95
9, 177720, Note_on_c, 7, 79, 0
9, 177720, Note_on_c, 7, 58, 0
9, 177720, Note_on_c, 7, 63, 74
9, 177720, Note_on_c, 7, 82, 82
9, 177760, Note_on_c, 7, 63, 0
9, 177760, Note_on_c, 7, 58, 84
9, 177780, Note_on_c, 7, 82, 0
9, 177780, Note_on_c, 7, 79, 95
9, 177800, Note_on_c, 7, 58, 0
9, 177800, Note_on_c, 7, 55, 93
9, 177840, Note_on_c, 7, 55, 0
9, 177840, Note_on_c, 7, 79, 0
9, 177840, Note_on_c, 7, 44, 89
9, 177840, Note_on_c, 7, 77, 95
9, 177860, Note_on_c, 7, 77, 0
9, 177860, Note_on_c, 7, 79, 95
9, 177880, Note_on_c, 7, 79, 0
9, 177880, Note_on_c, 7, 44, 0
9, 177880, Note_on_c, 7, 48, 95
9, 177880, Note_on_c, 7, 77, 90
9, 177900, Note_on_c, 7, 77, 0
9, 177900, Note_on_c, 7, 76, 99
9, 177920, Note_on_c, 7, 48, 0
9, 177920, Note_on_c, 7, 53, 85
9, 177930, Note_on_c, 7, 76, 0
9, 177930, Note_on_c, 7, 77, 94
9, 177960, Note_on_c, 7, 77, 0
9, 177960, Note_on_c, 7, 53, 0
9, 177960, Note_on_c, 7, 56, 81
9, 177960, Note_on_c, 7, 80, 86
9, 178000, Note_on_c, 7, 56, 0
9, 178000, Note_on_c, 7, 53, 95
9, 178020, Note_on_c, 7, 80, 0
9, 178020, Note_on_c, 7, 77, 99
9, 178040, Note_on_c, 7, 53, 0
9, 178040, Note_on_c, 7, 48, 99
9, 178080, Note_on_c, 7, 48, 0
9, 178080, Note_on_c, 7, 77, 0
9, 178080, Note_on_c, 7, 46, 94
9, 178080, Note_on_c, 7, 75, 94
9, 178100, Note_on_c, 7, 75, 0
9, 178100, Note_on_c, 7, 77, 99
9, 178120, Note_on_c, 7, 77, 0
9, 178120, Note_on_c, 7, 46, 0
9, 178120, Note_on_c, 7, 51, 94
9, 178120, Note_on_c, 7, 75, 99
9, 178140, Note_on_c, 7, 75, 0
9, 178140, Note_on_c, 7, 74, 99
9, 178160, Note_on_c, 7, 51, 0
9, 178160, Note_on_c, 7, 55, 94
9, 178170, Note_on_c, 7, 74, 0
9, 178170, Note_on_c, 7, 75, 99
9, 178200, Note_on_c, 7, 75, 0
9, 178200, Note_on_c, 7, 55, 0
9, 178200, Note_on_c, 7, 58, 77
9, 178200, Note_on_c, 7, 79, 89
9, 178240, Note_on_c, 7, 58, 0
9, 178240, Note_on_c, 7, 55, 90
9, 178260, Note_on_c, 7, 79, 0
9, 178260, Note_on_c, 7, 75, 101
9, 178280, Note_on_c, 7, 55, 0
9, 178280, Note_on_c, 7, 51, 94
9, 178320, Note_on_c, 7, 51, 0
9, 178320, Note_on_c, 7, 75, 0
9, 178320, Note_on_c, 7, 47, 84
9, 178320, Note_on_c, 7, 74, 99
9, 178340, Note_on_c, 7, 74, 0
9, 178340, Note_on_c, 7, 75, 98
9, 178360, Note_on_c, 7, 75, 0
9, 178360, Note_on_c, 7, 47, 0
9, 178360, Note_on_c, 7, 50, 95
9, 178360, Note_on_c, 7, 74, 105
9, 178380, Note_on_c, 7, 74, 0
9, 178380, Note_on_c, 7, 73, 89
9, 178400, Note_on_c, 7, 50, 0
9, 178400, Note_on_c, 7, 53, 78
9, 178410, Note_on_c, 7, 73, 0
9, 178410, Note_on_c, 7, 74, 104
9, 178440, Note_on_c, 7, 74, 0
9, 178440, Note_on_c, 7, 53, 0
9, 178440, Note_on_c, 7, 47, 94
9, 178440, Note_on_c, 7, 79, 89
9, 178480, Note_on_c, 7, 47, 0
9, 178480, Note_on_c, 7, 50, 99
9, 178500, Note_on_c, 7, 79, 0
9, 178500, Note_on_c, 7, 77, 94
9, 178520, Note_on_c, 7, 50, 0
9, 178520, Note_on_c, 7, 55, 84
9, 178560, Note_on_c, 7, 55, 0
9, 178560, Note_on_c, 7, 77, 0
9, 178560, Note_on_c, 7, 48, 94
9, 178560, Note_on_c, 7, 63, 94
9, 178600, Note_on_c, 7, 63, 0
9, 178600, Note_on_c, 7, 48, 0
9, 178600, Note_on_c, 7, 51, 90
9, 178600, Note_on_c, 7, 86, 99
9, 178640, Note_on_c, 7, 86, 0
9, 178640, Note_on_c, 7, 51, 0
9, 178640, Note_on_c, 7, 55, 86
9, 178640, Note_on_c, 7, 87, 98
9, 178680, Note_on_c, 7, 87, 0
9, 178680, Note_on_c, 7, 55, 0
9, 178680, Note_on_c, 7, 60, 85
9, 178680, Note_on_c, 7, 91, 101
9, 178720, Note_on_c, 7, 91, 0
9, 178720, Note_on_c, 7, 60, 0
9, 178720, Note_on_c, 7, 55, 89
9, 178720, Note_on_c, 7, 89, 101
9, 178760, Note_on_c, 7, 89, 0
9, 178760, Note_on_c, 7, 55, 0
9, 178760, Note_on_c, 7, 51, 89
9, 178760, Note_on_c, 7, 87, 98
9, 178800, Note_on_c, 7, 87, 0
9, 178800, Note_on_c, 7, 51, 0
9, 178800, Note_on_c, 7, 41, 78
9, 178800, Note_on_c, 7, 86, 101
9, 178840, Note_on_c, 7, 86, 0
9, 178840, Note_on_c, 7, 41, 0
9, 178840, Note_on_c, 7, 44, 89
9, 178840, Note_on_c, 7, 85, 76
9, 178880, Note_on_c, 7, 85, 0
9, 178880, Note_on_c, 7, 44, 0
9, 178880, Note_on_c, 7, 50, 90
9, 178880, Note_on_c, 7, 86, 105
9, 178920, Note_on_c, 7, 86, 0
9, 178920, Note_on_c, 7, 50, 0
9, 178920, Note_on_c, 7, 53, 81
9, 178920, Note_on_c, 7, 89, 99
9, 178960, Note_on_c, 7, 89, 0
9, 178960, Note_on_c, 7, 53, 0
9, 178960, Note_on_c, 7, 50, 99
9, 178960, Note_on_c, 7, 87, 95
9, 179000, Note_on_c, 7, 87, 0
9, 179000, Note_on_c, 7, 50, 0
9, 179000, Note_on_c, 7, 44, 94
9, 179000, Note_on_c, 7, 86, 101
9, 179040, Note_on_c, 7, 86, 0
9, 179040, Note_on_c, 7, 44, 0
9, 179040, Note_on_c, 7, 43, 99
9, 179040, Note_on_c, 7, 84, 99
9, 179080, Note_on_c, 7, 84, 0
9, 179080, Note_on_c, 7, 43, 0
9, 179080, Note_on_c, 7, 48, 94
9, 179080, Note_on_c, 7, 83, 89
9, 179120, Note_on_c, 7, 83, 0
9, 179120, Note_on_c, 7, 48, 0
9, 179120, Note_on_c, 7, 51, 86
9, 179120, Note_on_c, 7, 84, 94
9, 179160, Note_on_c, 7, 84, 0
9, 179160, Note_on_c, 7, 51, 0
9, 179160, Note_on_c, 7, 55, 84
9, 179160, Note_on_c, 7, 87, 95
9, 179200, Note_on_c, 7, 87, 0
9, 179200, Note_on_c, 7, 55, 0
9, 179200, Note_on_c, 7, 51, 94
9, 179200, Note_on_c, 7, 86, 101
9, 179240, Note_on_c, 7, 86, 0
9, 179240, Note_on_c, 7, 51, 0
9, 179240, Note_on_c, 7, 48, 104
9, 179240, Note_on_c, 7, 84, 99
9, 179280, Note_on_c, 7, 84, 0
9, 179280, Note_on_c, 7, 48, 0
9, 179280, Note_on_c, 7, 43, 95
9, 179280, Note_on_c, 7, 83, 94
9, 179320, Note_on_c, 7, 83, 0
9, 179320, Note_on_c, 7, 43, 0
9, 179320, Note_on_c, 7, 50, 98
9, 179320, Note_on_c, 7, 84, 89
9, 179360, Note_on_c, 7, 84, 0
9, 179360, Note_on_c, 7, 50, 0
9, 179360, Note_on_c, 7, 53, 82
9, 179360, Note_on_c, 7, 86, 105
9, 179400, Note_on_c, 7, 86, 0
9, 179400, Note_on_c, 7, 53, 0
9, 179400, Note_on_c, 7, 43, 95
9, 179400, Note_on_c, 7, 79, 84
9, 179440, Note_on_c, 7, 79, 0
9, 179440, Note_on_c, 7, 43, 0
9, 179440, Note_on_c, 7, 50, 95
9, 179440, Note_on_c, 7, 81, 95
9, 179480, Note_on_c, 7, 81, 0
9, 179480, Note_on_c, 7, 50, 0
9, 179480, Note_on_c, 7, 53, 84
9, 179480, Note_on_c, 7, 83, 98
9, 179520, Note_on_c, 7, 83, 0
9, 179520, Note_on_c, 7, 53, 0
9, 179520, Note_on_c, 7, 84, 85
9, 179520, Note_on_c, 7, 48, 99
9, 179550, Note_on_c, 7, 84, 0
9, 179550, Note_on_c, 7, 86, 99
9, 179580, Note_on_c, 7, 86, 0
9, 179580, Note_on_c, 7, 88, 95
9, 179610, Note_on_c, 7, 88, 0
9, 179610, Note_on_c, 7, 89, 98
9, 179640, Note_on_c, 7, 89, 0
9, 179640, Note_on_c, 7, 48, 0
9, 179640, Note_on_c, 7, 91, 98
9, 179670, Note_on_c, 7, 91, 0
9, 179670, Note_on_c, 7, 89, 98
9, 179700, Note_on_c, 7, 89, 0
9, 179700, Note_on_c, 7, 88, 101
9, 179730, Note_on_c, 7, 88, 0
9, 179730, Note_on_c, 7, 86, 99
9, 179760, Note_on_c, 7, 86, 0
9, 179760, Note_on_c, 7, 84, 86
9, 179790, Note_on_c, 7, 84, 0
9, 179790, Note_on_c, 7, 83, 99
9, 179820, Note_on_c, 7, 83, 0
9, 179820, Note_on_c, 7, 81, 94
9, 179850, Note_on_c, 7, 81, 0
9, 179850, Note_on_c, 7, 79, 89
9, 179880, Note_on_c, 7, 79, 0
9, 179880, Note_on_c, 7, 78, 86
9, 179910, Note_on_c, 7, 78, 0
9, 179910, Note_on_c, 7, 79, 80
9, 179940, Note_on_c, 7, 79, 0
9, 179940, Note_on_c, 7, 81, 105
9, 179970, Note_on_c, 7, 81, 0
9, 179970, Note_on_c, 7, 83, 104
9, 180000, Note_on_c, 7, 83, 0
9, 180000, Note_on_c, 7, 84, 85
9, 180030, Note_on_c, 7, 84, 0
9, 180030, Note_on_c, 7, 86, 99
9, 180060, Note_on_c, 7, 86, 0
9, 180060, Note_on_c, 7, 88, 105
9, 180090, Note_on_c, 7, 88, 0
9, 180090, Note_on_c, 7, 89, 99
9, 180120, Note_on_c, 7, 89, 0
9, 180120, Note_on_c, 7, 91, 95
9, 180150, Note_on_c, 7, 91, 0
9, 180150, Note_on_c, 7, 89, 99
9, 180180, Note_on_c, 7, 89, 0
9, 180180, Note_on_c, 7, 88, 104
9, 180210, Note_on_c, 7, 88, 0
9, 180210, Note_on_c, 7, 86, 95
9, 180240, Note_on_c, 7, 86, 0
9, 180240, Note_on_c, 7, 84, 85
9, 180270, Note_on_c, 7, 84, 0
9, 180270, Note_on_c, 7, 83, 95
9, 180300, Note_on_c, 7, 83, 0
9, 180300, Note_on_c, 7, 81, 89
9, 180330, Note_on_c, 7, 81, 0
9, 180330, Note_on_c, 7, 79, 85
9, 180360, Note_on_c, 7, 79, 0
9, 180360, Note_on_c, 7, 78, 86
9, 180390, Note_on_c, 7, 78, 0
9, 180390, Note_on_c, 7, 79, 89
9, 180420, Note_on_c, 7, 79, 0
9, 180420, Note_on_c, 7, 81, 95
9, 180450, Note_on_c, 7, 81, 0
9, 180450, Note_on_c, 7, 83, 95
9, 180480, Note_on_c, 7, 83, 0
9, 180480, Note_on_c, 7, 84, 94
9, 180510, Note_on_c, 7, 84, 0
9, 180510, Note_on_c, 7, 83, 86
9, 180540, Note_on_c, 7, 83, 0
9, 180540, Note_on_c, 7, 84, 94
9, 180570, Note_on_c, 7, 84, 0
9, 180570, Note_on_c, 7, 86, 98
9, 180600, Note_on_c, 7, 86, 0
9, 180600, Note_on_c, 7, 88, 101
9, 180630, Note_on_c, 7, 88, 0
9, 180630, Note_on_c, 7, 76, 93
9, 180660, Note_on_c, 7, 76, 0
9, 180660, Note_on_c, 7, 78, 84
9, 180660, Note_on_c, 7, 71, 89
9, 180660, Note_on_c, 7, 74, 84
9, 180690, Note_on_c, 7, 74, 0
9, 180690, Note_on_c, 7, 71, 0
9, 180690, Note_on_c, 7, 78, 0
9, 180690, Note_on_c, 7, 80, 95
9, 180720, Note_on_c, 7, 80, 0
9, 180720, Note_on_c, 7, 81, 98
9, 180720, Note_on_c, 7, 69, 82
9, 180720, Note_on_c, 7, 72, 68
9, 180750, Note_on_c, 7, 81, 0
9, 180750, Note_on_c, 7, 80, 89
9, 180780, Note_on_c, 7, 80, 0
9, 180780, Note_on_c, 7, 72, 0
9, 180780, Note_on_c, 7, 69, 0
9, 180780, Note_on_c, 7, 81, 95
9, 180810, Note_on_c, 7, 81, 0
9, 180810, Note_on_c, 7, 83, 94
9, 180840, Note_on_c, 7, 83, 0
9, 180840, Note_on_c, 7, 84, 89
9, 180870, Note_on_c, 7, 84, 0
9, 180870, Note_on_c, 7, 72, 70
9, 180900, Note_on_c, 7, 72, 0
9, 180900, Note_on_c, 7, 74, 104
9, 180900, Note_on_c, 7, 67, 84
9, 180900, Note_on_c, 7, 70, 94
9, 180930, Note_on_c, 7, 70, 0
9, 180930, Note_on_c, 7, 67, 0
9, 180930, Note_on_c, 7, 74, 0
9, 180930, Note_on_c, 7, 76, 101
9, 180960, Note_on_c, 7, 76, 0
9, 180960, Note_on_c, 7, 77, 95
9, 180960, Note_on_c, 7, 65, 84
9, 180960, Note_on_c, 7, 69, 85
9, 180990, Note_on_c, 7, 77, 0
9, 180990, Note_on_c, 7, 76, 95
9, 181020, Note_on_c, 7, 76, 0
9, 181020, Note_on_c, 7, 69, 0
9, 181020, Note_on_c, 7, 65, 0
9, 181020, Note_on_c, 7, 77, 95
9, 181050, Note_on_c, 7, 77, 0
9, 181050, Note_on_c, 7, 79, 99
9, 181080, Note_on_c, 7, 79, 0
9, 181080, Note_on_c, 7, 81, 94
9, 181110, Note_on_c, 7, 81, 0
9, 181110, Note_on_c, 7, 69, 93
9, 181140, Note_on_c, 7, 69, 0
9, 181140, Note_on_c, 7, 71, 99
9, 181140, Note_on_c, 7, 64, 90
9, 181140, Note_on_c, 7, 67, 80
9, 181170, Note_on_c, 7, 71, 0
9, 181170, Note_on_c, 7, 73, 90
9, 181200, Note_on_c, 7, 73, 0
9, 181200, Note_on_c, 7, 67, 0
9, 181200, Note_on_c, 7, 64, 0
9, 181200, Note_on_c, 7, 74, 105
9, 181200, Note_on_c, 7, 65, 90
9, 181200, Note_on_c, 7, 62, 80
9, 181230, Note_on_c, 7, 74, 0
9, 181230, Note_on_c, 7, 73, 90
9, 181260, Note_on_c, 7, 73, 0
9, 181260, Note_on_c, 7, 62, 0
9, 181260, Note_on_c, 7, 65, 0
9, 181260, Note_on_c, 7, 74, 101
9, 181260, Note_on_c, 7, 62, 80
9, 181260, Note_on_c, 7, 65, 94
9, 181290, Note_on_c, 7, 74, 0
9, 181290, Note_on_c, 7, 76, 99
9, 181320, Note_on_c, 7, 76, 0
9, 181320, Note_on_c, 7, 65, 0
9, 181320, Note_on_c, 7, 62, 0
9, 181320, Note_on_c, 7, 77, 95
9, 181320, Note_on_c, 7, 60, 86
9, 181320, Note_on_c, 7, 64, 84
9, 181350, Note_on_c, 7, 77, 0
9, 181350, Note_on_c, 7, 76, 95
9, 181380, Note_on_c, 7, 76, 0
9, 181380, Note_on_c, 7, 64, 0
9, 181380, Note_on_c, 7, 60, 0
9, 181380, Note_on_c, 7, 60, 82
9, 181380, Note_on_c, 7, 64, 84
9, 181380, Note_on_c, 7, 77, 94
9, 181410, Note_on_c, 7, 77, 0
9, 181410, Note_on_c, 7, 76, 95
9, 181440, Note_on_c, 7, 76, 0
9, 181440, Note_on_c, 7, 64, 0
9, 181440, Note_on_c, 7, 60, 0
9, 181440, Note_on_c, 7, 77, 95
9, 181440, Note_on_c, 7, 59, 84
9, 181440, Note_on_c, 7, 62, 71
9, 181470, Note_on_c, 7, 77, 0
9, 181470, Note_on_c, 7, 76, 101
9, 181500, Note_on_c, 7, 76, 0
9, 181500, Note_on_c, 7, 62, 0
9, 181500, Note_on_c, 7, 59, 0
9, 181500, Note_on_c, 7, 77, 95
9, 181500, Note_on_c, 7, 59, 86
9, 181500, Note_on_c, 7, 62, 81
9, 181530, Note_on_c, 7, 77, 0
9, 181530, Note_on_c, 7, 76, 94
9, 181560, Note_on_c, 7, 76, 0
9, 181560, Note_on_c, 7, 62, 0
9, 181560, Note_on_c, 7, 59, 0
9, 181560, Note_on_c, 7, 77, 95
9, 181560, Note_on_c, 7, 57, 93
9, 181560, Note_on_c, 7, 60, 94
9, 181590, Note_on_c, 7, 77, 0
9, 181590, Note_on_c, 7, 76, 99
9, 181620, Note_on_c, 7, 76, 0
9, 181620, Note_on_c, 7, 60, 0
9, 181620, Note_on_c, 7, 57, 0
9, 181620, Note_on_c, 7, 77, 94
9, 181620, Note_on_c, 7, 57, 82
9, 181620, Note_on_c, 7, 60, 93
9, 181650, Note_on_c, 7, 77, 0
9, 181650, Note_on_c, 7, 76, 99
9, 181680, Note_on_c, 7, 76, 0
9, 181680, Note_on_c, 7, 60, 0
9, 181680, Note_on_c, 7, 57, 0
9, 181680, Note_on_c, 7, 77, 94
9, 181680, Note_on_c, 7, 59, 94
9, 181680, Note_on_c, 7, 55, 84
9, 181710, Note_on_c, 7, 77, 0
9, 181710, Note_on_c, 7, 76, 95
9, 181740, Note_on_c, 7, 76, 0
9, 181740, Note_on_c, 7, 55, 0
9, 181740, Note_on_c, 7, 59, 0
9, 181740, Note_on_c, 7, 74, 98
9, 181740, Note_on_c, 7, 59, 76
9, 181740, Note_on_c, 7, 55, 89
9, 181770, Note_on_c, 7, 74, 0
9, 181770, Note_on_c, 7, 72, 81
9, 181800, Note_on_c, 7, 72, 0
9, 181800, Note_on_c, 7, 55, 0
9, 181800, Note_on_c, 7, 59, 0
9, 181800, Note_on_c, 7, 71, 99
9, 181800, Note_on_c, 7, 57, 94
9, 181800, Note_on_c, 7, 60, 89
9, 181830, Note_on_c, 7, 71, 0
9, 181830, Note_on_c, 7, 69, 94
9, 181860, Note_on_c, 7, 69, 0
9, 181860, Note_on_c, 7, 60, 0
9, 181860, Note_on_c, 7, 57, 0
9, 181860, Note_on_c, 7, 59, 93
9, 181860, Note_on_c, 7, 62, 80
9, 181860, Note_on_c, 7, 67, 81
9, 181890, Note_on_c, 7, 67, 0
9, 181890, Note_on_c, 7, 65, 94
9, 181920, Note_on_c, 7, 65, 0
9, 181920, Note_on_c, 7, 62, 0
9, 181920, Note_on_c, 7, 59, 0
9, 181920, Note_on_c, 7, 64, 86
9, 181920, Note_on_c, 7, 60, 85
9, 181950, Note_on_c, 7, 64, 0
9, 181950, Note_on_c, 7, 72, 74
9, 181980, Note_on_c, 7, 72, 0
9, 181980, Note_on_c, 7, 60, 0
9, 181980, Note_on_c, 7, 67, 95
9, 181980, Note_on_c, 7, 52, 95
9, 182010, Note_on_c, 7, 67, 0
9, 182010, Note_on_c, 7, 64, 93
9, 182040, Note_on_c, 7, 64, 0
9, 182040, Note_on_c, 7, 52, 0
9, 182040, Note_on_c, 7, 65, 86
9, 182040, Note_on_c, 7, 57, 104
9, 182070, Note_on_c, 7, 65, 0
9, 182070, Note_on_c, 7, 74, 104
9, 182100, Note_on_c, 7, 74, 0
9, 182100, Note_on_c, 7, 57, 0
9, 182100, Note_on_c, 7, 69, 99
9, 182100, Note_on_c, 7, 53, 86
9, 182130, Note_on_c, 7, 69, 0
9, 182130, Note_on_c, 7, 65, 84
9, 182160, Note_on_c, 7, 65, 0
9, 182160, Note_on_c, 7, 53, 0
9, 182160, Note_on_c, 7, 64, 90
9, 182160, Note_on_c, 7, 55, 93
9, 182190, Note_on_c, 7, 64, 0
9, 182190, Note_on_c, 7, 72, 73
9, 182220, Note_on_c, 7, 72, 0
9, 182220, Note_on_c, 7, 55, 0
9, 182220, Note_on_c, 7, 67, 90
9, 182220, Note_on_c, 7, 54, 94
9, 182250, Note_on_c, 7, 67, 0
9, 182250, Note_on_c, 7, 64, 90
9, 182280, Note_on_c, 7, 64, 0
9, 182280, Note_on_c, 7, 54, 0
9, 182280, Note_on_c, 7, 62, 90
9, 182280, Note_on_c, 7, 55, 89
9, 182310, Note_on_c, 7, 62, 0
9, 182310, Note_on_c, 7, 71, 104
9, 182340, Note_on_c, 7, 71, 0
9, 182340, Note_on_c, 7, 55, 0
9, 182340, Note_on_c, 7, 43, 98
9, 182340, Note_on_c, 7, 65, 104
9, 182370, Note_on_c, 7, 65, 0
9, 182370, Note_on_c, 7, 62, 81
9, 182400, Note_on_c, 7, 62, 0
9, 182400, Note_on_c, 7, 43, 0
9, 182400, Note_on_c, 7, 48, 89
9, 182400, Note_on_c, 7, 64, 76
9, 182400, Note_on_c, 7, 67, 78
9, 182400, Note_on_c, 7, 72, 44
9, 182430, Note_on_c, 7, 48, 0
9, 182430, Note_on_c, 7, 50, 94
9, 182460, Note_on_c, 7, 50, 0
9, 182460, Note_on_c, 7, 52, 99
9, 182490, Note_on_c, 7, 52, 0
9, 182490, Note_on_c, 7, 53, 89
9, 182520, Note_on_c, 7, 53, 0
9, 182520, Note_on_c, 7, 72, 0
9, 182520, Note_on_c, 7, 67, 0
9, 182520, Note_on_c, 7, 64, 0
9, 182520, Note_on_c, 7, 55, 86
9, 182550, Note_on_c, 7, 55, 0
9, 182550, Note_on_c, 7, 53, 89
9, 182580, Note_on_c, 7, 53, 0
9, 182580, Note_on_c, 7, 52, 95
9, 182610, Note_on_c, 7, 52, 0
9, 182610, Note_on_c, 7, 50, 95
9, 182640, Note_on_c, 7, 50, 0
9, 182640, Note_on_c, 7, 48, 84
9, 182670, Note_on_c, 7, 48, 0
9, 182670, Note_on_c, 7, 47, 94
9, 182670, Note_on_c, 7, 79, 77
9, 182700, Note_on_c, 7, 79, 0
9, 182700, Note_on_c, 7, 47, 0
9, 182700, Note_on_c, 7, 45, 94
9, 182700, Note_on_c, 7, 91, 76
9, 182730, Note_on_c, 7, 91, 0
9, 182730, Note_on_c, 7, 45, 0
9, 182730, Note_on_c, 7, 43, 84
9, 182730, Note_on_c, 7, 79, 80
9, 182760, Note_on_c, 7, 79, 0
9, 182760, Note_on_c, 7, 43, 0
9, 182760, Note_on_c, 7, 42, 93
9, 182760, Note_on_c, 7, 91, 93
9, 182790, Note_on_c, 7, 91, 0
9, 182790, Note_on_c, 7, 42, 0
9, 182790, Note_on_c, 7, 43, 94
9, 182790, Note_on_c, 7, 79, 76
9, 182820, Note_on_c, 7, 79, 0
9, 182820, Note_on_c, 7, 43, 0
9, 182820, Note_on_c, 7, 45, 90
9, 182820, Note_on_c, 7, 91, 95
9, 182850, Note_on_c, 7, 91, 0
9, 182850, Note_on_c, 7, 45, 0
9, 182850, Note_on_c, 7, 47, 94
9, 182850, Note_on_c, 7, 79, 78
9, 182880, Note_on_c, 7, 79, 0
9, 182880, Note_on_c, 7, 47, 0
9, 182880, Note_on_c, 7, 48, 89
9, 182880, Note_on_c, 7, 91, 95
9, 182910, Note_on_c, 7, 48, 0
9, 182910, Note_on_c, 7, 50, 89
9, 182940, Note_on_c, 7, 50, 0
9, 182940, Note_on_c, 7, 52, 98
9, 182970, Note_on_c, 7, 52, 0
9, 182970, Note_on_c, 7, 53, 86
9, 183000, Note_on_c, 7, 53, 0
9, 183000, Note_on_c, 7, 91, 0
9, 183000, Note_on_c, 7, 55, 77
9, 183030, Note_on_c, 7, 55, 0
9, 183030, Note_on_c, 7, 53, 86
9, 183060, Note_on_c, 7, 53, 0
9, 183060, Note_on_c, 7, 52, 95
9, 183090, Note_on_c, 7, 52, 0
9, 183090, Note_on_c, 7, 50, 95
9, 183120, Note_on_c, 7, 50, 0
9, 183120, Note_on_c, 7, 48, 99
9, 183150, Note_on_c, 7, 48, 0
9, 183150, Note_on_c, 7, 47, 89
9, 183150, Note_on_c, 7, 79, 80
9, 183180, Note_on_c, 7, 79, 0
9, 183180, Note_on_c, 7, 47, 0
9, 183180, Note_on_c, 7, 45, 89
9, 183180, Note_on_c, 7, 91, 86
9, 183210, Note_on_c, 7, 91, 0
9, 183210, Note_on_c, 7, 45, 0
9, 183210, Note_on_c, 7, 43, 98
9, 183210, Note_on_c, 7, 79, 80
9, 183240, Note_on_c, 7, 79, 0
9, 183240, Note_on_c, 7, 43, 0
9, 183240, Note_on_c, 7, 42, 89
9, 183240, Note_on_c, 7, 91, 89
9, 183270, Note_on_c, 7, 91, 0
9, 183270, Note_on_c, 7, 42, 0
9, 183270, Note_on_c, 7, 43, 94
9, 183270, Note_on_c, 7, 79, 80
9, 183300, Note_on_c, 7, 79, 0
9, 183300, Note_on_c, 7, 43, 0
9, 183300, Note_on_c, 7, 45, 86
9, 183300, Note_on_c, 7, 91, 84
9, 183330, Note_on_c, 7, 91, 0
9, 183330, Note_on_c, 7, 45, 0
9, 183330, Note_on_c, 7, 47, 99
9, 183330, Note_on_c, 7, 79, 77
9, 183360, Note_on_c, 7, 79, 0
9, 183360, Note_on_c, 7, 47, 0
9, 183360, Note_on_c, 7, 48, 95
9, 183360, Note_on_c, 7, 91, 93
9, 183390, Note_on_c, 7, 91, 0
9, 183390, Note_on_c, 7, 48, 0
9, 183390, Note_on_c, 7, 47, 99
9, 183390, Note_on_c, 7, 76, 84
9, 183420, Note_on_c, 7, 76, 0
9, 183420, Note_on_c, 7, 47, 0
9, 183420, Note_on_c, 7, 48, 95
9, 183420, Note_on_c, 7, 88, 89
9, 183450, Note_on_c, 7, 88, 0
9, 183450, Note_on_c, 7, 48, 0
9, 183450, Note_on_c, 7, 50, 94
9, 183450, Note_on_c, 7, 76, 80
9, 183480, Note_on_c, 7, 76, 0
9, 183480, Note_on_c, 7, 50, 0
9, 183480, Note_on_c, 7, 52, 94
9, 183480, Note_on_c, 7, 88, 85
9, 183510, Note_on_c, 7, 88, 0
9, 183510, Note_on_c, 7, 52, 0
9, 183510, Note_on_c, 7, 40, 95
9, 183510, Note_on_c, 7, 76, 84
9, 183540, Note_on_c, 7, 76, 0
9, 183540, Note_on_c, 7, 40, 0
9, 183540, Note_on_c, 7, 42, 95
9, 183540, Note_on_c, 7, 88, 89
9, 183570, Note_on_c, 7, 88, 0
9, 183570, Note_on_c, 7, 42, 0
9, 183570, Note_on_c, 7, 44, 89
9, 183570, Note_on_c, 7, 76, 82
9, 183600, Note_on_c, 7, 76, 0
9, 183600, Note_on_c, 7, 44, 0
9, 183600, Note_on_c, 7, 45, 104
9, 183600, Note_on_c, 7, 88, 95
9, 183630, Note_on_c, 7, 88, 0
9, 183630, Note_on_c, 7, 45, 0
9, 183630, Note_on_c, 7, 44, 90
9, 183630, Note_on_c, 7, 72, 68
9, 183660, Note_on_c, 7, 72, 0
9, 183660, Note_on_c, 7, 44, 0
9, 183660, Note_on_c, 7, 45, 98
9, 183660, Note_on_c, 7, 84, 94
9, 183690, Note_on_c, 7, 84, 0
9, 183690, Note_on_c, 7, 45, 0
9, 183690, Note_on_c, 7, 47, 94
9, 183690, Note_on_c, 7, 72, 89
9, 183720, Note_on_c, 7, 72, 0
9, 183720, Note_on_c, 7, 47, 0
9, 183720, Note_on_c, 7, 48, 95
9, 183720, Note_on_c, 7, 84, 84
9, 183750, Note_on_c, 7, 84, 0
9, 183750, Note_on_c, 7, 48, 0
9, 183750, Note_on_c, 7, 36, 104
9, 183750, Note_on_c, 7, 72, 89
9, 183780, Note_on_c, 7, 72, 0
9, 183780, Note_on_c, 7, 36, 0
9, 183780, Note_on_c, 7, 38, 99
9, 183780, Note_on_c, 7, 84, 82
9, 183810, Note_on_c, 7, 84, 0
9, 183810, Note_on_c, 7, 38, 0
9, 183810, Note_on_c, 7, 40, 101
9, 183810, Note_on_c, 7, 72, 86
9, 183840, Note_on_c, 7, 72, 0
9, 183840, Note_on_c, 7, 40, 0
9, 183840, Note_on_c, 7, 84, 89
9, 183840, Note_on_c, 7, 41, 93
9, 183870, Note_on_c, 7, 41, 0
9, 183870, Note_on_c, 7, 84, 0
9, 183870, Note_on_c, 7, 69, 84
9, 183870, Note_on_c, 7, 40, 101
9, 183900, Note_on_c, 7, 40, 0
9, 183900, Note_on_c, 7, 69, 0
9, 183900, Note_on_c, 7, 81, 81
9, 183900, Note_on_c, 7, 41, 93
9, 183930, Note_on_c, 7, 41, 0
9, 183930, Note_on_c, 7, 81, 0
9, 183930, Note_on_c, 7, 69, 84
9, 183930, Note_on_c, 7, 43, 85
9, 183960, Note_on_c, 7, 43, 0
9, 183960, Note_on_c, 7, 69, 0
9, 183960, Note_on_c, 7, 81, 90
9, 183960, Note_on_c, 7, 45, 86
9, 183990, Note_on_c, 7, 45, 0
9, 183990, Note_on_c, 7, 81, 0
9, 183990, Note_on_c, 7, 69, 76
9, 183990, Note_on_c, 7, 33, 95
9, 184020, Note_on_c, 7, 33, 0
9, 184020, Note_on_c, 7, 69, 0
9, 184020, Note_on_c, 7, 81, 89
9, 184020, Note_on_c, 7, 35, 94
9, 184050, Note_on_c, 7, 35, 0
9, 184050, Note_on_c, 7, 81, 0
9, 184050, Note_on_c, 7, 69, 80
9, 184050, Note_on_c, 7, 37, 86
9, 184080, Note_on_c, 7, 37, 0
9, 184080, Note_on_c, 7, 69, 0
9, 184080, Note_on_c, 7, 81, 84
9, 184080, Note_on_c, 7, 38, 95
9, 184110, Note_on_c, 7, 38, 0
9, 184110, Note_on_c, 7, 81, 0
9, 184110, Note_on_c, 7, 69, 80
9, 184110, Note_on_c, 7, 37, 89
9, 184140, Note_on_c, 7, 37, 0
9, 184140, Note_on_c, 7, 69, 0
9, 184140, Note_on_c, 7, 81, 84
9, 184140, Note_on_c, 7, 38, 98
9, 184170, Note_on_c, 7, 38, 0
9, 184170, Note_on_c, 7, 81, 0
9, 184170, Note_on_c, 7, 69, 77
9, 184170, Note_on_c, 7, 40, 95
9, 184200, Note_on_c, 7, 40, 0
9, 184200, Note_on_c, 7, 69, 0
9, 184200, Note_on_c, 7, 81, 84
9, 184200, Note_on_c, 7, 41, 81
9, 184230, Note_on_c, 7, 41, 0
9, 184230, Note_on_c, 7, 81, 0
9, 184230, Note_on_c, 7, 69, 77
9, 184230, Note_on_c, 7, 33, 89
9, 184260, Note_on_c, 7, 33, 0
9, 184260, Note_on_c, 7, 69, 0
9, 184260, Note_on_c, 7, 81, 85
9, 184260, Note_on_c, 7, 35, 95
9, 184290, Note_on_c, 7, 35, 0
9, 184290, Note_on_c, 7, 81, 0
9, 184290, Note_on_c, 7, 69, 86
9, 184290, Note_on_c, 7, 37, 94
9, 184320, Note_on_c, 7, 37, 0
9, 184320, Note_on_c, 7, 69, 0
9, 184320, Note_on_c, 7, 81, 95
9, 184320, Note_on_c, 7, 38, 99
9, 184350, Note_on_c, 7, 38, 0
9, 184350, Note_on_c, 7, 81, 0
9, 184350, Note_on_c, 7, 45, 86
9, 184350, Note_on_c, 7, 33, 94
9, 184380, Note_on_c, 7, 33, 0
9, 184380, Note_on_c, 7, 45, 0
9, 184380, Note_on_c, 7, 47, 99
9, 184380, Note_on_c, 7, 35, 94
9, 184410, Note_on_c, 7, 35, 0
9, 184410, Note_on_c, 7, 47, 0
9, 184410, Note_on_c, 7, 49, 94
9, 184410, Note_on_c, 7, 37, 89
9, 184440, Note_on_c, 7, 37, 0
9, 184440, Note_on_c, 7, 49, 0
9, 184440, Note_on_c, 7, 50, 99
9, 184440, Note_on_c, 7, 38, 89
9, 184470, Note_on_c, 7, 38, 0
9, 184470, Note_on_c, 7, 50, 0
9, 184470, Note_on_c, 7, 49, 84
9, 184470, Note_on_c, 7, 37, 89
9, 184500, Note_on_c, 7, 37, 0
9, 184500, Note_on_c, 7, 49, 0
9, 184500, Note_on_c, 7, 50, 89
9, 184500, Note_on_c, 7, 38, 98
9, 184530, Note_on_c, 7, 38, 0
9, 184530, Note_on_c, 7, 50, 0
9, 184530, Note_on_c, 7, 52, 95
9, 184530, Note_on_c, 7, 40, 90
9, 184560, Note_on_c, 7, 40, 0
9, 184560, Note_on_c, 7, 52, 0
9, 184560, Note_on_c, 7, 53, 89
9, 184560, Note_on_c, 7, 41, 93
9, 184590, Note_on_c, 7, 41, 0
9, 184590, Note_on_c, 7, 53, 0
9, 184590, Note_on_c, 7, 61, 81
9, 184590, Note_on_c, 7, 45, 104
9, 184620, Note_on_c, 7, 45, 0
9, 184620, Note_on_c, 7, 61, 0
9, 184620, Note_on_c, 7, 62, 95
9, 184620, Note_on_c, 7, 47, 90
9, 184650, Note_on_c, 7, 47, 0
9, 184650, Note_on_c, 7, 62, 0
9, 184650, Note_on_c, 7, 64, 93
9, 184650, Note_on_c, 7, 49, 86
9, 184680, Note_on_c, 7, 49, 0
9, 184680, Note_on_c, 7, 64, 0
9, 184680, Note_on_c, 7, 65, 89
9, 184680, Note_on_c, 7, 50, 95
9, 184710, Note_on_c, 7, 50, 0
9, 184710, Note_on_c, 7, 65, 0
9, 184710, Note_on_c, 7, 67, 94
9, 184710, Note_on_c, 7, 52, 89
9, 184740, Note_on_c, 7, 52, 0
9, 184740, Note_on_c, 7, 67, 0
9, 184740, Note_on_c, 7, 69, 104
9, 184740, Note_on_c, 7, 53, 90
9, 184770, Note_on_c, 7, 53, 0
9, 184770, Note_on_c, 7, 69, 0
9, 184770, Note_on_c, 7, 67, 95
9, 184770, Note_on_c, 7, 52, 99
9, 184800, Note_on_c, 7, 52, 0
9, 184800, Note_on_c, 7, 67, 0
9, 184800, Note_on_c, 7, 65, 89
9, 184800, Note_on_c, 7, 53, 90
9, 184830, Note_on_c, 7, 53, 0
9, 184830, Note_on_c, 7, 65, 0
9, 184830, Note_on_c, 7, 67, 93
9, 184830, Note_on_c, 7, 55, 86
9, 184860, Note_on_c, 7, 55, 0
9, 184860, Note_on_c, 7, 67, 0
9, 184860, Note_on_c, 7, 64, 89
9, 184860, Note_on_c, 7, 52, 98
9, 184890, Note_on_c, 7, 52, 0
9, 184890, Note_on_c, 7, 64, 0
9, 184890, Note_on_c, 7, 53, 81
9, 184890, Note_on_c, 7, 65, 93
9, 184920, Note_on_c, 7, 65, 0
9, 184920, Note_on_c, 7, 53, 0
9, 184920, Note_on_c, 7, 50, 90
9, 184920, Note_on_c, 7, 62, 78
9, 184950, Note_on_c, 7, 62, 0
9, 184950, Note_on_c, 7, 50, 0
9, 184950, Note_on_c, 7, 64, 93
9, 184950, Note_on_c, 7, 52, 89
9, 184980, Note_on_c, 7, 52, 0
9, 184980, Note_on_c, 7, 64, 0
9, 184980, Note_on_c, 7, 60, 84
9, 184980, Note_on_c, 7, 48, 85
9, 185010, Note_on_c, 7, 48, 0
9, 185010, Note_on_c, 7, 60, 0
9, 185010, Note_on_c, 7, 50, 85
9, 185010, Note_on_c, 7, 62, 89
9, 185040, Note_on_c, 7, 62, 0
9, 185040, Note_on_c, 7, 50, 0
9, 185040, Note_on_c, 7, 59, 90
9, 185040, Note_on_c, 7, 47, 94
9, 185070, Note_on_c, 7, 47, 0
9, 185070, Note_on_c, 7, 59, 0
9, 185070, Note_on_c, 7, 60, 89
9, 185070, Note_on_c, 7, 48, 90
9, 185100, Note_on_c, 7, 48, 0
9, 185100, Note_on_c, 7, 60, 0
9, 185100, Note_on_c, 7, 45, 89
9, 185100, Note_on_c, 7, 57, 95
9, 185130, Note_on_c, 7, 57, 0
9, 185130, Note_on_c, 7, 45, 0
9, 185130, Note_on_c, 7, 59, 95
9, 185130, Note_on_c, 7, 47, 95
9, 185160, Note_on_c, 7, 47, 0
9, 185160, Note_on_c, 7, 59, 0
9, 185160, Note_on_c, 7, 43, 94
9, 185160, Note_on_c, 7, 55, 81
9, 185190, Note_on_c, 7, 55, 0
9, 185190, Note_on_c, 7, 43, 0
9, 185190, Note_on_c, 7, 57, 104
9, 185190, Note_on_c, 7, 45, 90
9, 185220, Note_on_c, 7, 45, 0
9, 185220, Note_on_c, 7, 57, 0
9, 185220, Note_on_c, 7, 53, 85
9, 185220, Note_on_c, 7, 41, 94
9, 185250, Note_on_c, 7, 41, 0
9, 185250, Note_on_c, 7, 53, 0
9, 185250, Note_on_c, 7, 43, 90
9, 185250, Note_on_c, 7, 55, 94
9, 185280, Note_on_c, 7, 55, 0
9, 185280, Note_on_c, 7, 43, 0
9, 185280, Note_on_c, 7, 40, 105
9, 185280, Note_on_c, 7, 52, 112
9, 185295, Note_on_c, 7, 52, 0
9, 185310, Note_on_c, 7, 60, 95
9, 185340, Note_on_c, 7, 60, 0
9, 185340, Note_on_c, 7, 55, 105
9, 185370, Note_on_c, 7, 55, 0
9, 185370, Note_on_c, 7, 64, 112
9, 185400, Note_on_c, 7, 64, 0
9, 185400, Note_on_c, 7, 40, 0
9, 185400, Note_on_c, 7, 55, 104
9, 185415, Note_on_c, 7, 55, 0
9, 185430, Note_on_c, 7, 64, 101
9, 185460, Note_on_c, 7, 64, 0
9, 185460, Note_on_c, 7, 60, 105
9, 185490, Note_on_c, 7, 60, 0
9, 185490, Note_on_c, 7, 67, 95
9, 185520, Note_on_c, 7, 67, 0
9, 185520, Note_on_c, 7, 60, 105
9, 185535, Note_on_c, 7, 60, 0
9, 185550, Note_on_c, 7, 67, 99
9, 185580, Note_on_c, 7, 67, 0
9, 185580, Note_on_c, 7, 64, 110
9, 185610, Note_on_c, 7, 64, 0
9, 185610, Note_on_c, 7, 72, 105
9, 185640, Note_on_c, 7, 72, 0
9, 185640, Note_on_c, 7, 64, 112
9, 185655, Note_on_c, 7, 64, 0
9, 185670, Note_on_c, 7, 72, 117
9, 185700, Note_on_c, 7, 72, 0
9, 185700, Note_on_c, 7, 67, 104
9, 185730, Note_on_c, 7, 67, 0
9, 185730, Note_on_c, 7, 76, 112
9, 185760, Note_on_c, 7, 76, 0
9, 185760, Note_on_c, 7, 67, 105
9, 185775, Note_on_c, 7, 67, 0
9, 185790, Note_on_c, 7, 76, 104
9, 185820, Note_on_c, 7, 76, 0
9, 185820, Note_on_c, 7, 72, 123
9, 185850, Note_on_c, 7, 72, 0
9, 185850, Note_on_c, 7, 79, 101
9, 185880, Note_on_c, 7, 79, 0
9, 185880, Note_on_c, 7, 72, 99
9, 185895, Note_on_c, 7, 72, 0
9, 185910, Note_on_c, 7, 79, 99
9, 185940, Note_on_c, 7, 79, 0
9, 185940, Note_on_c, 7, 76, 112
9, 185970, Note_on_c, 7, 76, 0
9, 185970, Note_on_c, 7, 84, 105
9, 186000, Note_on_c, 7, 84, 0
9, 186000, Note_on_c, 7, 76, 112
9, 186015, Note_on_c, 7, 76, 0
9, 186030, Note_on_c, 7, 84, 99
9, 186060, Note_on_c, 7, 84, 0
9, 186060, Note_on_c, 7, 79, 105
9, 186090, Note_on_c, 7, 79, 0
9, 186090, Note_on_c, 7, 88, 112
9, 186120, Note_on_c, 7, 88, 0
9, 186120, Note_on_c, 7, 79, 110
9, 186135, Note_on_c, 7, 79, 0
9, 186150, Note_on_c, 7, 88, 112
9, 186180, Note_on_c, 7, 88, 0
9, 186180, Note_on_c, 7, 40, 105
9, 186180, Note_on_c, 7, 28, 105
9, 186180, Note_on_c, 7, 84, 107
9, 186210, Note_on_c, 7, 84, 0
9, 186210, Note_on_c, 7, 91, 112
9, 186240, Note_on_c, 7, 91, 0
9, 186240, Note_on_c, 7, 28, 0
9, 186240, Note_on_c, 7, 40, 0
9, 186240, Note_on_c, 7, 29, 105
9, 186240, Note_on_c, 7, 41, 98
9, 186240, Note_on_c, 7, 45, 99
9, 186255, Note_on_c, 7, 45, 0
9, 186270, Note_on_c, 7, 53, 94
9, 186300, Note_on_c, 7, 53, 0
9, 186300, Note_on_c, 7, 48, 105
9, 186330, Note_on_c, 7, 48, 0
9, 186330, Note_on_c, 7, 57, 112
9, 186360, Note_on_c, 7, 57, 0
9, 186360, Note_on_c, 7, 41, 0
9, 186360, Note_on_c, 7, 29, 0
9, 186360, Note_on_c, 7, 48, 105
9, 186375, Note_on_c, 7, 48, 0
9, 186390, Note_on_c, 7, 57, 104
9, 186420, Note_on_c, 7, 57, 0
9, 186420, Note_on_c, 7, 53, 104
9, 186450, Note_on_c, 7, 53, 0
9, 186450, Note_on_c, 7, 60, 98
9, 186480, Note_on_c, 7, 60, 0
9, 186480, Note_on_c, 7, 53, 105
9, 186495, Note_on_c, 7, 53, 0
9, 186510, Note_on_c, 7, 60, 94
9, 186540, Note_on_c, 7, 60, 0
9, 186540, Note_on_c, 7, 57, 112
9, 186570, Note_on_c, 7, 57, 0
9, 186570, Note_on_c, 7, 65, 105
9, 186600, Note_on_c, 7, 65, 0
9, 186600, Note_on_c, 7, 57, 112
9, 186615, Note_on_c, 7, 57, 0
9, 186630, Note_on_c, 7, 65, 95
9, 186660, Note_on_c, 7, 65, 0
9, 186660, Note_on_c, 7, 60, 104
9, 186690, Note_on_c, 7, 60, 0
9, 186690, Note_on_c, 7, 69, 101
9, 186720, Note_on_c, 7, 69, 0
9, 186720, Note_on_c, 7, 60, 104
9, 186735, Note_on_c, 7, 60, 0
9, 186750, Note_on_c, 7, 69, 99
9, 186780, Note_on_c, 7, 69, 0
9, 186780, Note_on_c, 7, 65, 105
9, 186810, Note_on_c, 7, 65, 0
9, 186810, Note_on_c, 7, 72, 117
9, 186840, Note_on_c, 7, 72, 0
9, 186840, Note_on_c, 7, 65, 107
9, 186855, Note_on_c, 7, 65, 0
9, 186870, Note_on_c, 7, 72, 110
9, 186900, Note_on_c, 7, 72, 0
9, 186900, Note_on_c, 7, 69, 105
9, 186930, Note_on_c, 7, 69, 0
9, 186930, Note_on_c, 7, 77, 101
9, 186960, Note_on_c, 7, 77, 0
9, 186960, Note_on_c, 7, 69, 107
9, 186975, Note_on_c, 7, 69, 0
9, 186990, Note_on_c, 7, 77, 95
9, 187020, Note_on_c, 7, 77, 0
9, 187020, Note_on_c, 7, 72, 105
9, 187050, Note_on_c, 7, 72, 0
9, 187050, Note_on_c, 7, 81, 112
9, 187080, Note_on_c, 7, 81, 0
9, 187080, Note_on_c, 7, 72, 104
9, 187095, Note_on_c, 7, 72, 0
9, 187110, Note_on_c, 7, 81, 99
9, 187140, Note_on_c, 7, 81, 0
9, 187140, Note_on_c, 7, 29, 94
9, 187140, Note_on_c, 7, 41, 84
9, 187140, Note_on_c, 7, 77, 105
9, 187170, Note_on_c, 7, 77, 0
9, 187170, Note_on_c, 7, 84, 104
9, 187200, Note_on_c, 7, 84, 0
9, 187200, Note_on_c, 7, 41, 0
9, 187200, Note_on_c, 7, 29, 0
9, 187200, Control_c, 7, 64, 95
9, 187200, Note_on_c, 7, 30, 101
9, 187230, Note_on_c, 7, 42, 95
9, 187260, Note_on_c, 7, 42, 0
9, 187260, Note_on_c, 7, 45, 105
9, 187290, Note_on_c, 7, 45, 0
9, 187290, Note_on_c, 7, 48, 105
9, 187320, Note_on_c, 7, 48, 0
9, 187320, Note_on_c, 7, 30, 0
9, 187320, Note_on_c, 7, 51, 95
9, 187350, Note_on_c, 7, 29, 105
9, 187380, Note_on_c, 7, 29, 0
9, 187380, Note_on_c, 7, 33, 105
9, 187410, Note_on_c, 7, 33, 0
9, 187410, Note_on_c, 7, 36, 95
9, 187440, Note_on_c, 7, 36, 0
9, 187440, Note_on_c, 7, 51, 0
9, 187440, Note_on_c, 7, 39, 94
9, 187470, Note_on_c, 7, 54, 95
9, 187500, Note_on_c, 7, 54, 0
9, 187500, Note_on_c, 7, 57, 112
9, 187530, Note_on_c, 7, 57, 0
9, 187530, Note_on_c, 7, 60, 95
9, 187560, Note_on_c, 7, 60, 0
9, 187560, Note_on_c, 7, 39, 0
9, 187560, Note_on_c, 7, 63, 99
9, 187590, Note_on_c, 7, 63, 0
9, 187590, Note_on_c, 7, 42, 99
9, 187590, Note_on_c, 7, 54, 90
9, 187620, Note_on_c, 7, 54, 0
9, 187620, Note_on_c, 7, 42, 0
9, 187620, Note_on_c, 7, 45, 105
9, 187620, Note_on_c, 7, 57, 117
9, 187650, Note_on_c, 7, 57, 0
9, 187650, Note_on_c, 7, 45, 0
9, 187650, Note_on_c, 7, 60, 99
9, 187650, Note_on_c, 7, 48, 104
9, 187680, Note_on_c, 7, 48, 0
9, 187680, Note_on_c, 7, 60, 0
9, 187680, Note_on_c, 7, 51, 99
9, 187680, Note_on_c, 7, 63, 95
9, 187710, Note_on_c, 7, 63, 0
9, 187710, Note_on_c, 7, 51, 0
9, 187710, Note_on_c, 7, 54, 104
9, 187710, Note_on_c, 7, 66, 101
9, 187740, Note_on_c, 7, 66, 0
9, 187740, Note_on_c, 7, 54, 0
9, 187740, Note_on_c, 7, 57, 112
9, 187740, Note_on_c, 7, 69, 104
9, 187770, Note_on_c, 7, 69, 0
9, 187770, Note_on_c, 7, 57, 0
9, 187770, Note_on_c, 7, 60, 101
9, 187770, Note_on_c, 7, 72, 90
9, 187800, Note_on_c, 7, 72, 0
9, 187800, Note_on_c, 7, 60, 0
9, 187800, Note_on_c, 7, 75, 105
9, 187800, Note_on_c, 7, 63, 99
9, 187830, Note_on_c, 7, 63, 0
9, 187830, Note_on_c, 7, 75, 0
9, 187830, Note_on_c, 7, 66, 99
9, 187830, Note_on_c, 7, 54, 101
9, 187860, Note_on_c, 7, 54, 0
9, 187860, Note_on_c, 7, 66, 0
9, 187860, Note_on_c, 7, 57, 112
9, 187860, Note_on_c, 7, 69, 110
9, 187890, Note_on_c, 7, 69, 0
9, 187890, Note_on_c, 7, 57, 0
9, 187890, Note_on_c, 7, 60, 105
9, 187890, Note_on_c, 7, 72, 95
9, 187920, Note_on_c, 7, 72, 0
9, 187920, Note_on_c, 7, 60, 0
9, 187920, Note_on_c, 7, 63, 104
9, 187920, Note_on_c, 7, 75, 105
9, 187950, Note_on_c, 7, 75, 0
9, 187950, Note_on_c, 7, 63, 0
9, 187950, Note_on_c, 7, 66, 104
9, 187950, Note_on_c, 7, 78, 101
9, 187980, Note_on_c, 7, 78, 0
9, 187980, Note_on_c, 7, 66, 0
9, 187980, Note_on_c, 7, 69, 107
9, 187980, Note_on_c, 7, 81, 110
9, 188010, Note_on_c, 7, 81, 0
9, 188010, Note_on_c, 7, 69, 0
9, 188010, Note_on_c, 7, 72, 80
9, 188010, Note_on_c, 7, 84, 110
9, 188040, Note_on_c, 7, 84, 0
9, 188040, Note_on_c, 7, 72, 0
9, 188040, Note_on_c, 7, 87, 105
9, 188040, Note_on_c, 7, 75, 98
9, 188070, Note_on_c, 7, 75, 0
9, 188070, Note_on_c, 7, 87, 0
9, 188070, Note_on_c, 7, 84, 105
9, 188070, Note_on_c, 7, 72, 89
9, 188100, Note_on_c, 7, 72, 0
9, 188100, Note_on_c, 7, 84, 0
9, 188100, Note_on_c, 7, 69, 107
9, 188100, Note_on_c, 7, 81, 110
9, 188130, Note_on_c, 7, 81, 0
9, 188130, Note_on_c, 7, 69, 0
9, 188130, Note_on_c, 7, 66, 101
9, 188130, Note_on_c, 7, 78, 107
9, 188145, Control_c, 7, 64, 92
9, 188150, Control_c, 7, 64, 62
9, 188155, Control_c, 7, 64, 31
9, 188160, Note_on_c, 7, 78, 0
9, 188160, Note_on_c, 7, 66, 0
9, 188160, Control_c, 7, 64, 0
9, 188160, Note_on_c, 7, 79, 99
9, 188160, Note_on_c, 7, 67, 104
9, 188190, Note_on_c, 7, 79, 0
9, 188190, Note_on_c, 7, 83, 105
9, 188220, Note_on_c, 7, 83, 0
9, 188220, Note_on_c, 7, 84, 105
9, 188250, Note_on_c, 7, 84, 0
9, 188250, Note_on_c, 7, 83, 105
9, 188280, Note_on_c, 7, 83, 0
9, 188280, Note_on_c, 7, 67, 0
9, 188280, Note_on_c, 7, 84, 110
9, 188340, Note_on_c, 7, 72, 84
9, 188340, Note_on_c, 7, 67, 99
9, 188340, Note_on_c, 7, 76, 94
9, 188370, Note_on_c, 7, 76, 0
9, 188370, Note_on_c, 7, 67, 0
9, 188370, Note_on_c, 7, 72, 0
9, 188400, Note_on_c, 7, 84, 0
9, 188400, Note_on_c, 7, 69, 99
9, 188400, Note_on_c, 7, 72, 85
9, 188400, Note_on_c, 7, 77, 95
9, 188430, Note_on_c, 7, 83, 110
9, 188460, Note_on_c, 7, 83, 0
9, 188460, Note_on_c, 7, 69, 0
9, 188460, Note_on_c, 7, 72, 0
9, 188460, Note_on_c, 7, 77, 0
9, 188460, Note_on_c, 7, 84, 105
9, 188490, Note_on_c, 7, 84, 0
9, 188490, Note_on_c, 7, 83, 105
9, 188520, Note_on_c, 7, 83, 0
9, 188520, Note_on_c, 7, 84, 105
9, 188580, Note_on_c, 7, 77, 99
9, 188580, Note_on_c, 7, 69, 104
9, 188580, Note_on_c, 7, 72, 84
9, 188610, Note_on_c, 7, 72, 0
9, 188610, Note_on_c, 7, 69, 0
9, 188610, Note_on_c, 7, 77, 0
9, 188640, Note_on_c, 7, 84, 0
9, 188640, Note_on_c, 7, 76, 98
9, 188640, Note_on_c, 7, 67, 104
9, 188640, Note_on_c, 7, 72, 84
9, 188670, Note_on_c, 7, 83, 104
9, 188700, Note_on_c, 7, 83, 0
9, 188700, Note_on_c, 7, 76, 0
9, 188700, Note_on_c, 7, 67, 0
9, 188700, Note_on_c, 7, 72, 0
9, 188700, Note_on_c, 7, 84, 104
9, 188730, Note_on_c, 7, 84, 0
9, 188730, Note_on_c, 7, 83, 105
9, 188760, Note_on_c, 7, 83, 0
9, 188760, Note_on_c, 7, 84, 107
9, 188820, Note_on_c, 7, 76, 99
9, 188820, Note_on_c, 7, 67, 99
9, 188820, Note_on_c, 7, 72, 82
9, 188850, Note_on_c, 7, 72, 0
9, 188850, Note_on_c, 7, 67, 0
9, 188850, Note_on_c, 7, 76, 0
9, 188880, Note_on_c, 7, 84, 0
9, 188880, Note_on_c, 7, 75, 90
9, 188880, Note_on_c, 7, 66, 99
9, 188880, Note_on_c, 7, 72, 89
9, 188910, Note_on_c, 7, 83, 105
9, 188940, Note_on_c, 7, 83, 0
9, 188940, Note_on_c, 7, 75, 0
9, 188940, Note_on_c, 7, 66, 0
9, 188940, Note_on_c, 7, 72, 0
9, 188940, Note_on_c, 7, 84, 104
9, 188970, Note_on_c, 7, 84, 0
9, 188970, Note_on_c, 7, 83, 104
9, 189000, Note_on_c, 7, 83, 0
9, 189000, Note_on_c, 7, 84, 101
9, 189030, Note_on_c, 7, 84, 0
9, 189030, Note_on_c, 7, 83, 101
9, 189060, Note_on_c, 7, 83, 0
9, 189060, Note_on_c, 7, 84, 101
9, 189060, Note_on_c, 7, 75, 93
9, 189060, Note_on_c, 7, 66, 99
9, 189060, Note_on_c, 7, 72, 89
9, 189090, Note_on_c, 7, 72, 0
9, 189090, Note_on_c, 7, 84, 0
9, 189090, Note_on_c, 7, 75, 0
9, 189090, Note_on_c, 7, 66, 0
9, 189090, Note_on_c, 7, 83, 104
9, 189120, Note_on_c, 7, 83, 0
9, 189120, Note_on_c, 7, 76, 65
9, 189120, Note_on_c, 7, 72, 43
9, 189120, Note_on_c, 7, 67, 64
9, 189120, Note_on_c, 7, 84, 76
9, 189150, Note_on_c, 7, 84, 0
9, 189150, Note_on_c, 7, 86, 82
9, 189180, Note_on_c, 7, 86, 0
9, 189180, Note_on_c, 7, 84, 78
9, 189200, Note_on_c, 7, 84, 0
9, 189200, Note_on_c, 7, 86, 81
9, 189220, Note_on_c, 7, 86, 0
9, 189220, Note_on_c, 7, 84, 80
9, 189240, Note_on_c, 7, 84, 0
9, 189240, Note_on_c, 7, 76, 0
9, 189240, Note_on_c, 7, 72, 0
9, 189240, Note_on_c, 7, 67, 0
9, 189240, Note_on_c, 7, 86, 82
9, 189260, Note_on_c, 7, 86, 0
9, 189260, Note_on_c, 7, 84, 80
9, 189280, Note_on_c, 7, 84, 0
9, 189280, Note_on_c, 7, 86, 89
9, 189300, Note_on_c, 7, 86, 0
9, 189300, Note_on_c, 7, 84, 80
9, 189320, Note_on_c, 7, 84, 0
9, 189320, Note_on_c, 7, 86, 89
9, 189340, Note_on_c, 7, 86, 0
9, 189340, Note_on_c, 7, 84, 80
9, 189360, Note_on_c, 7, 84, 0
9, 189360, Note_on_c, 7, 86, 81
9, 189390, Note_on_c, 7, 86, 0
9, 189390, Note_on_c, 7, 84, 72
9, 189410, Note_on_c, 7, 84, 0
9, 189410, Note_on_c, 7, 86, 78
9, 189430, Note_on_c, 7, 86, 0
9, 189430, Note_on_c, 7, 84, 76
9, 189450, Note_on_c, 7, 84, 0
9, 189450, Note_on_c, 7, 86, 80
9, 189470, Note_on_c, 7, 86, 0
9, 189470, Note_on_c, 7, 84, 76
9, 189490, Note_on_c, 7, 84, 0
9, 189490, Note_on_c, 7, 86, 84
9, 189510, Note_on_c, 7, 86, 0
9, 189510, Note_on_c, 7, 84, 72
9, 189540, Note_on_c, 7, 84, 0
9, 189540, Note_on_c, 7, 86, 80
9, 189560, Note_on_c, 7, 86, 0
9, 189560, Note_on_c, 7, 84, 78
9, 189580, Note_on_c, 7, 84, 0
9, 189580, Note_on_c, 7, 86, 81
9, 189600, Note_on_c, 7, 86, 0
9, 189600, Note_on_c, 7, 84, 69
9, 189620, Note_on_c, 7, 84, 0
9, 189620, Note_on_c, 7, 86, 72
9, 189640, Note_on_c, 7, 86, 0
9, 189640, Note_on_c, 7, 84, 68
9, 189660, Note_on_c, 7, 84, 0
9, 189660, Note_on_c, 7, 86, 77
9, 189680, Note_on_c, 7, 86, 0
9, 189680, Note_on_c, 7, 84, 68
9, 189700, Note_on_c, 7, 84, 0
9, 189700, Note_on_c, 7, 86, 73
9, 189730, Note_on_c, 7, 86, 0
9, 189730, Note_on_c, 7, 84, 67
9, 189750, Note_on_c, 7, 84, 0
9, 189750, Note_on_c, 7, 86, 80
9, 189770, Note_on_c, 7, 86, 0
9, 189770, Note_on_c, 7, 84, 70
9, 189790, Note_on_c, 7, 84, 0
9, 189790, Note_on_c, 7, 86, 74
9, 189810, Note_on_c, 7, 86, 0
9, 189810, Note_on_c, 7, 84, 73
9, 189830, Note_on_c, 7, 84, 0
9, 189830, Note_on_c, 7, 86, 64
9, 189850, Note_on_c, 7, 86, 0
9, 189850, Note_on_c, 7, 84, 74
9, 189870, Note_on_c, 7, 84, 0
9, 189870, Note_on_c, 7, 86, 80
9, 189890, Note_on_c, 7, 86, 0
9, 189890, Note_on_c, 7, 84, 65
9, 189920, Note_on_c, 7, 84, 0
9, 189920, Note_on_c, 7, 86, 74
9, 189940, Note_on_c, 7, 86, 0
9, 189940, Note_on_c, 7, 84, 68
9, 189960, Note_on_c, 7, 84, 0
9, 189960, Note_on_c, 7, 86, 57
9, 189980, Note_on_c, 7, 86, 0
9, 189980, Note_on_c, 7, 84, 61
9, 190000, Note_on_c, 7, 84, 0
9, 190000, Note_on_c, 7, 86, 71
9, 190020, Note_on_c, 7, 86, 0
9, 190020, Note_on_c, 7, 84, 68
9, 190040, Note_on_c, 7, 84, 0
9, 190040, Note_on_c, 7, 86, 69
9, 190060, Note_on_c, 7, 86, 0
9, 190060, Note_on_c, 7, 84, 73
9, 190080, Note_on_c, 7, 84, 0
9, 190080, Note_on_c, 7, 86, 77
9, 190100, Note_on_c, 7, 86, 0
9, 190100, Note_on_c, 7, 84, 67
9, 190130, Note_on_c, 7, 84, 0
9, 190130, Note_on_c, 7, 86, 84
9, 190150, Note_on_c, 7, 86, 0
9, 190150, Note_on_c, 7, 84, 67
9, 190170, Note_on_c, 7, 84, 0
9, 190170, Note_on_c, 7, 86, 68
9, 190190, Note_on_c, 7, 86, 0
9, 190190, Note_on_c, 7, 84, 71
9, 190210, Note_on_c, 7, 84, 0
9, 190210, Note_on_c, 7, 86, 69
9, 190230, Note_on_c, 7, 86, 0
9, 190230, Note_on_c, 7, 84, 69
9, 190250, Note_on_c, 7, 84, 0
9, 190250, Note_on_c, 7, 86, 67
9, 190270, Note_on_c, 7, 86, 0
9, 190270, Note_on_c, 7, 84, 71
9, 190290, Note_on_c, 7, 84, 0
9, 190290, Note_on_c, 7, 86, 63
9, 190320, Note_on_c, 7, 86, 0
9, 190320, Note_on_c, 7, 84, 72
9, 190340, Note_on_c, 7, 84, 0
9, 190340, Note_on_c, 7, 86, 64
9, 190360, Note_on_c, 7, 86, 0
9, 190360, Note_on_c, 7, 84, 76
9, 190380, Note_on_c, 7, 84, 0
9, 190380, Note_on_c, 7, 86, 65
9, 190400, Note_on_c, 7, 86, 0
9, 190400, Note_on_c, 7, 84, 68
9, 190420, Note_on_c, 7, 84, 0
9, 190420, Note_on_c, 7, 86, 74
9, 190440, Note_on_c, 7, 86, 0
9, 190440, Note_on_c, 7, 84, 71
9, 190470, Note_on_c, 7, 84, 0
9, 190470, Note_on_c, 7, 86, 72
9, 190490, Note_on_c, 7, 86, 0
9, 190490, Note_on_c, 7, 84, 71
9, 190510, Note_on_c, 7, 84, 0
9, 190510, Note_on_c, 7, 86, 73
9, 190530, Note_on_c, 7, 86, 0
9, 190530, Note_on_c, 7, 84, 65
9, 190550, Note_on_c, 7, 84, 0
9, 190550, Note_on_c, 7, 86, 67
9, 190570, Note_on_c, 7, 86, 0
9, 190570, Note_on_c, 7, 84, 73
9, 190590, Note_on_c, 7, 84, 0
9, 190590, Note_on_c, 7, 86, 57
9, 190620, Note_on_c, 7, 86, 0
9, 190620, Note_on_c, 7, 84, 74
9, 190640, Note_on_c, 7, 84, 0
9, 190640, Note_on_c, 7, 86, 76
9, 190660, Note_on_c, 7, 86, 0
9, 190660, Note_on_c, 7, 84, 77
9, 190680, Note_on_c, 7, 84, 0
9, 190680, Note_on_c, 7, 86, 74
9, 190700, Note_on_c, 7, 86, 0
9, 190700, Note_on_c, 7, 84, 76
9, 190720, Note_on_c, 7, 84, 0
9, 190720, Note_on_c, 7, 86, 80
9, 190740, Note_on_c, 7, 86, 0
9, 190740, Note_on_c, 7, 84, 76
9, 190760, Note_on_c, 7, 84, 0
9, 190760, Note_on_c, 7, 86, 76
9, 190780, Note_on_c, 7, 86, 0
9, 190780, Note_on_c, 7, 84, 72
9, 190800, Note_on_c, 7, 84, 0
9, 190800, Note_on_c, 7, 85, 71
9, 190830, Note_on_c, 7, 85, 0
9, 190830, Note_on_c, 7, 86, 89
9, 190860, Note_on_c, 7, 86, 0
9, 190860, Note_on_c, 7, 85, 74
9, 190880, Note_on_c, 7, 85, 0
9, 190880, Note_on_c, 7, 86, 84
9, 190900, Note_on_c, 7, 86, 0
9, 190900, Note_on_c, 7, 85, 76
9, 190920, Note_on_c, 7, 85, 0
9, 190920, Note_on_c, 7, 86, 67
9, 190940, Note_on_c, 7, 86, 0
9, 190940, Note_on_c, 7, 85, 73
9, 190960, Note_on_c, 7, 85, 0
9, 190960, Note_on_c, 7, 86, 72
9, 190980, Note_on_c, 7, 86, 0
9, 190980, Note_on_c, 7, 85, 71
9, 191000, Note_on_c, 7, 85, 0
9, 191000, Note_on_c, 7, 86, 57
9, 191020, Note_on_c, 7, 86, 0
9, 191020, Note_on_c, 7, 85, 62
9, 191040, Note_on_c, 7, 85, 0
9, 191040, Note_on_c, 7, 86, 61
9, 191080, Note_on_c, 7, 31, 62
9, 191100, Note_on_c, 7, 31, 0
9, 191100, Note_on_c, 7, 86, 0
9, 191100, Note_on_c, 7, 88, 68
9, 191120, Note_on_c, 7, 35, 81
9, 191130, Note_on_c, 7, 88, 0
9, 191130, Note_on_c, 7, 86, 76
9, 191140, Note_on_c, 7, 35, 0
9, 191160, Note_on_c, 7, 86, 0
9, 191160, Note_on_c, 7, 88, 66
9, 191160, Note_on_c, 7, 38, 64
9, 191180, Note_on_c, 7, 38, 0
9, 191180, Note_on_c, 7, 88, 0
9, 191180, Note_on_c, 7, 86, 60
9, 191200, Note_on_c, 7, 86, 0
9, 191200, Note_on_c, 7, 88, 62
9, 191200, Note_on_c, 7, 43, 43
9, 191220, Note_on_c, 7, 43, 0
9, 191220, Note_on_c, 7, 88, 0
9, 191220, Note_on_c, 7, 86, 61
9, 191240, Note_on_c, 7, 86, 0
9, 191240, Note_on_c, 7, 88, 64
9, 191240, Note_on_c, 7, 47, 72
9, 191260, Note_on_c, 7, 47, 0
9, 191260, Note_on_c, 7, 88, 0
9, 191260, Note_on_c, 7, 86, 80
9, 191280, Note_on_c, 7, 86, 0
9, 191280, Note_on_c, 7, 88, 51
9, 191280, Note_on_c, 7, 50, 58
9, 191300, Note_on_c, 7, 50, 0
9, 191310, Note_on_c, 7, 88, 0
9, 191310, Note_on_c, 7, 86, 68
9, 191320, Note_on_c, 7, 43, 52
9, 191330, Note_on_c, 7, 86, 0
9, 191330, Note_on_c, 7, 88, 61
9, 191340, Note_on_c, 7, 43, 0
9, 191350, Note_on_c, 7, 88, 0
9, 191350, Note_on_c, 7, 86, 71
9, 191360, Note_on_c, 7, 47, 69
9, 191370, Note_on_c, 7, 86, 0
9, 191370, Note_on_c, 7, 88, 68
9, 191380, Note_on_c, 7, 47, 0
9, 191390, Note_on_c, 7, 88, 0
9, 191390, Note_on_c, 7, 86, 69
9, 191400, Note_on_c, 7, 50, 61
9, 191410, Note_on_c, 7, 86, 0
9, 191410, Note_on_c, 7, 88, 70
9, 191420, Note_on_c, 7, 50, 0
9, 191430, Note_on_c, 7, 88, 0
9, 191430, Note_on_c, 7, 86, 47
9, 191440, Note_on_c, 7, 55, 73
9, 191460, Note_on_c, 7, 55, 0
9, 191460, Note_on_c, 7, 86, 0
9, 191460, Note_on_c, 7, 88, 65
9, 191480, Note_on_c, 7, 88, 0
9, 191480, Note_on_c, 7, 86, 73
9, 191480, Note_on_c, 7, 59, 70
9, 191500, Note_on_c, 7, 59, 0
9, 191500, Note_on_c, 7, 86, 0
9, 191500, Note_on_c, 7, 88, 72
9, 191520, Note_on_c, 7, 88, 0
9, 191520, Note_on_c, 7, 86, 76
9, 191520, Note_on_c, 7, 62, 64
9, 191540, Note_on_c, 7, 62, 0
9, 191540, Note_on_c, 7, 86, 0
9, 191540, Note_on_c, 7, 88, 72
9, 191560, Note_on_c, 7, 88, 0
9, 191560, Note_on_c, 7, 86, 65
9, 191560, Note_on_c, 7, 55, 64
9, 191580, Note_on_c, 7, 55, 0
9, 191580, Note_on_c, 7, 86, 0
9, 191580, Note_on_c, 7, 88, 78
9, 191600, Note_on_c, 7, 88, 0
9, 191600, Note_on_c, 7, 86, 73
9, 191600, Note_on_c, 7, 59, 77
9, 191620, Note_on_c, 7, 59, 0
9, 191620, Note_on_c, 7, 86, 0
9, 191620, Note_on_c, 7, 88, 71
9, 191640, Note_on_c, 7, 62, 53
9, 191650, Note_on_c, 7, 88, 0
9, 191650, Note_on_c, 7, 86, 67
9, 191660, Note_on_c, 7, 62, 0
9, 191670, Note_on_c, 7, 86, 0
9, 191670, Note_on_c, 7, 88, 68
9, 191680, Note_on_c, 7, 67, 76
9, 191690, Note_on_c, 7, 88, 0
9, 191690, Note_on_c, 7, 86, 59
9, 191700, Note_on_c, 7, 67, 0
9, 191710, Note_on_c, 7, 86, 0
9, 191710, Note_on_c, 7, 88, 76
9, 191720, Note_on_c, 7, 71, 68
9, 191730, Note_on_c, 7, 88, 0
9, 191730, Note_on_c, 7, 86, 72
9, 191740, Note_on_c, 7, 71, 0
9, 191750, Note_on_c, 7, 86, 0
9, 191750, Note_on_c, 7, 88, 74
9, 191760, Note_on_c, 7, 74, 76
9, 191770, Note_on_c, 7, 88, 0
9, 191770, Note_on_c, 7, 86, 73
9, 191780, Note_on_c, 7, 74, 0
9, 191800, Note_on_c, 7, 86, 0
9, 191800, Note_on_c, 7, 88, 55
9, 191800, Note_on_c, 7, 71, 84
9, 191820, Note_on_c, 7, 71, 0
9, 191820, Note_on_c, 7, 88, 0
9, 191820, Note_on_c, 7, 86, 76
9, 191840, Note_on_c, 7, 86, 0
9, 191840, Note_on_c, 7, 88, 74
9, 191840, Note_on_c, 7, 67, 77
9, 191860, Note_on_c, 7, 67, 0
9, 191860, Note_on_c, 7, 88, 0
9, 191860, Note_on_c, 7, 86, 72
9, 191880, Note_on_c, 7, 86, 0
9, 191880, Note_on_c, 7, 88, 69
9, 191880, Note_on_c, 7, 79, 53
9, 191900, Note_on_c, 7, 79, 0
9, 191900, Note_on_c, 7, 88, 0
9, 191900, Note_on_c, 7, 86, 71
9, 191920, Note_on_c, 7, 86, 0
9, 191920, Note_on_c, 7, 88, 64
9, 191920, Note_on_c, 7, 74, 82
9, 191940, Note_on_c, 7, 74, 0
9, 191940, Note_on_c, 7, 88, 0
9, 191940, Note_on_c, 7, 86, 57
9, 191960, Note_on_c, 7, 86, 0
9, 191960, Note_on_c, 7, 88, 64
9, 191960, Note_on_c, 7, 71, 80
9, 191980, Note_on_c, 7, 71, 0
9, 191980, Note_on_c, 7, 88, 0
9, 191980, Note_on_c, 7, 86, 65
9, 192000, Note_on_c, 7, 86, 0
9, 192000, Control_c, 7, 64, 95
9, 192000, Note_on_c, 7, 91, 104
9, 192000, Note_on_c, 7, 77, 95
9, 192000, Note_on_c, 7, 71, 107
9, 192000, Note_on_c, 7, 67, 101
9, 192030, Note_on_c, 7, 91, 0
9, 192030, Note_on_c, 7, 90, 101
9, 192060, Note_on_c, 7, 90, 0
9, 192060, Note_on_c, 7, 91, 105
9, 192090, Note_on_c, 7, 91, 0
9, 192090, Note_on_c, 7, 90, 99
9, 192120, Note_on_c, 7, 90, 0
9, 192120, Note_on_c, 7, 67, 0
9, 192120, Note_on_c, 7, 71, 0
9, 192120, Note_on_c, 7, 77, 0
9, 192120, Note_on_c, 7, 91, 105
9, 192144, Note_on_c, 7, 91, 0
9, 192144, Note_on_c, 7, 89, 99
9, 192168, Note_on_c, 7, 89, 0
9, 192168, Note_on_c, 7, 88, 105
9, 192192, Note_on_c, 7, 88, 0
9, 192192, Note_on_c, 7, 86, 107
9, 192216, Note_on_c, 7, 86, 0
9, 192216, Note_on_c, 7, 84, 105
9, 192240, Note_on_c, 7, 84, 0
9, 192240, Note_on_c, 7, 83, 110
9, 192264, Note_on_c, 7, 83, 0
9, 192264, Note_on_c, 7, 81, 105
9, 192288, Note_on_c, 7, 81, 0
9, 192288, Note_on_c, 7, 79, 99
9, 192312, Note_on_c, 7, 79, 0
9, 192312, Note_on_c, 7, 77, 101
9, 192336, Note_on_c, 7, 77, 0
9, 192336, Note_on_c, 7, 76, 105
9, 192360, Note_on_c, 7, 76, 0
9, 192360, Note_on_c, 7, 74, 110
9, 192390, Note_on_c, 7, 74, 0
9, 192390, Note_on_c, 7, 72, 95
9, 192420, Note_on_c, 7, 72, 0
9, 192420, Note_on_c, 7, 71, 104
9, 192450, Note_on_c, 7, 71, 0
9, 192450, Note_on_c, 7, 69, 105
9, 192480, Note_on_c, 7, 69, 0
9, 192480, Note_on_c, 7, 67, 99
9, 192510, Note_on_c, 7, 67, 0
9, 192510, Note_on_c, 7, 65, 104
9, 192540, Note_on_c, 7, 65, 0
9, 192540, Note_on_c, 7, 64, 104
9, 192570, Note_on_c, 7, 64, 0
9, 192570, Note_on_c, 7, 62, 99
9, 192600, Note_on_c, 7, 62, 0
9, 192600, Note_on_c, 7, 60, 99
9, 192630, Note_on_c, 7, 60, 0
9, 192630, Note_on_c, 7, 59, 105
9, 192660, Note_on_c, 7, 59, 0
9, 192660, Note_on_c, 7, 57, 112
9, 192690, Note_on_c, 7, 57, 0
9, 192690, Note_on_c, 7, 55, 99
9, 192720, Note_on_c, 7, 55, 0
9, 192720, Note_on_c, 7, 53, 94
9, 192750, Note_on_c, 7, 53, 0
9, 192750, Note_on_c, 7, 52, 104
9, 192780, Note_on_c, 7, 52, 0
9, 192780, Note_on_c, 7, 50, 104
9, 192810, Note_on_c, 7, 50, 0
9, 192810, Note_on_c, 7, 48, 99
9, 192840, Note_on_c, 7, 48, 0
9, 192840, Note_on_c, 7, 47, 104
9, 192860, Note_on_c, 7, 47, 0
9, 192860, Note_on_c, 7, 45, 104
9, 192880, Note_on_c, 7, 45, 0
9, 192880, Note_on_c, 7, 43, 99
9, 192900, Note_on_c, 7, 43, 0
9, 192900, Note_on_c, 7, 41, 101
9, 192920, Note_on_c, 7, 41, 0
9, 192920, Note_on_c, 7, 40, 104
9, 192940, Note_on_c, 7, 40, 0
9, 192940, Note_on_c, 7, 38, 104
9, 192945, Control_c, 7, 64, 94
9, 192950, Control_c, 7, 64, 63
9, 192955, Control_c, 7, 64, 32
9, 192960, Note_on_c, 7, 38, 0
9, 192960, Control_c, 7, 64, 0
9, 192960, Note_on_c, 7, 36, 127
9, 193080, Note_on_c, 7, 36, 0
9, 199440, Note_on_c, 7, 55, 89
9, 199440, Note_on_c, 7, 65, 94
9, 199440, Note_on_c, 7, 59, 90
9, 199440, Note_on_c, 7, 74, 99
9, 199455, Note_on_c, 7, 74, 0
9, 199455, Note_on_c, 7, 75, 99
9, 199470, Note_on_c, 7, 75, 0
9, 199470, Note_on_c, 7, 74, 105
9, 199485, Note_on_c, 7, 74, 0
9, 199485, Note_on_c, 7, 75, 99
9, 199500, Note_on_c, 7, 75, 0
9, 199500, Note_on_c, 7, 74, 105
9, 199515, Note_on_c, 7, 74, 0
9, 199515, Note_on_c, 7, 75, 95
9, 199530, Note_on_c, 7, 75, 0
9, 199530, Note_on_c, 7, 74, 104
9, 199545, Note_on_c, 7, 74, 0
9, 199545, Note_on_c, 7, 75, 99
9, 199560, Note_on_c, 7, 75, 0
9, 199560, Note_on_c, 7, 74, 99
9, 199575, Note_on_c, 7, 74, 0
9, 199575, Note_on_c, 7, 75, 99
9, 199590, Note_on_c, 7, 75, 0
9, 199590, Note_on_c, 7, 74, 104
9, 199605, Note_on_c, 7, 74, 0
9, 199605, Note_on_c, 7, 75, 99
9, 199620, Note_on_c, 7, 75, 0
9, 199620, Note_on_c, 7, 74, 105
9, 199635, Note_on_c, 7, 74, 0
9, 199635, Note_on_c, 7, 75, 93
9, 199650, Note_on_c, 7, 75, 0
9, 199650, Note_on_c, 7, 74, 95
9, 199665, Note_on_c, 7, 74, 0
9, 199665, Note_on_c, 7, 75, 98
9, 199680, Note_on_c, 7, 75, 0
9, 199680, Note_on_c, 7, 59, 0
9, 199680, Note_on_c, 7, 65, 0
9, 199680, Note_on_c, 7, 55, 0
9, 199680, Note_on_c, 7, 74, 104
9, 199695, Note_on_c, 7, 74, 0
9, 199695, Note_on_c, 7, 75, 98
9, 199710, Note_on_c, 7, 75, 0
9, 199710, Note_on_c, 7, 74, 99
9, 199725, Note_on_c, 7, 74, 0
9, 199725, Note_on_c, 7, 75, 99
9, 199740, Note_on_c, 7, 75, 0
9, 199740, Note_on_c, 7, 74, 99
9, 199755, Note_on_c, 7, 74, 0
9, 199755, Note_on_c, 7, 75, 99
9, 199770, Note_on_c, 7, 75, 0
9, 199770, Note_on_c, 7, 74, 99
9, 199785, Note_on_c, 7, 74, 0
9, 199785, Note_on_c, 7, 75, 99
9, 199800, Note_on_c, 7, 75, 0
9, 199800, Note_on_c, 7, 74, 99
9, 199815, Note_on_c, 7, 74, 0
9, 199815, Note_on_c, 7, 75, 95
9, 199830, Note_on_c, 7, 75, 0
9, 199830, Note_on_c, 7, 74, 104
9, 199845, Note_on_c, 7, 74, 0
9, 199845, Note_on_c, 7, 75, 99
9, 199860, Note_on_c, 7, 75, 0
9, 199860, Note_on_c, 7, 74, 105
9, 199875, Note_on_c, 7, 74, 0
9, 199875, Note_on_c, 7, 75, 99
9, 199890, Note_on_c, 7, 75, 0
9, 199890, Note_on_c, 7, 74, 104
9, 199905, Note_on_c, 7, 74, 0
9, 199905, Note_on_c, 7, 75, 95
9, 199920, Note_on_c, 7, 75, 0
9, 199920, Note_on_c, 7, 74, 101
9, 199935, Note_on_c, 7, 74, 0
9, 199935, Note_on_c, 7, 75, 95
9, 199950, Note_on_c, 7, 75, 0
9, 199950, Note_on_c, 7, 74, 99
9, 199965, Note_on_c, 7, 74, 0
9, 199965, Note_on_c, 7, 75, 94
9, 199980, Note_on_c, 7, 75, 0
9, 199980, Note_on_c, 7, 74, 104
9, 199995, Note_on_c, 7, 74, 0
9, 199995, Note_on_c, 7, 75, 99
9, 200010, Note_on_c, 7, 75, 0
9, 200010, Note_on_c, 7, 74, 99
9, 200025, Note_on_c, 7, 74, 0
9, 200025, Note_on_c, 7, 75, 98
9, 200040, Note_on_c, 7, 75, 0
9, 200040, Note_on_c, 7, 74, 104
9, 200055, Note_on_c, 7, 74, 0
9, 200055, Note_on_c, 7, 75, 101
9, 200070, Note_on_c, 7, 75, 0
9, 200070, Note_on_c, 7, 74, 99
9, 200085, Note_on_c, 7, 74, 0
9, 200085, Note_on_c, 7, 75, 101
9, 200100, Note_on_c, 7, 75, 0
9, 200100, Note_on_c, 7, 72, 84
9, 200130, Note_on_c, 7, 72, 0
9, 200130, Note_on_c, 7, 74, 105
9, 200160, Note_on_c, 7, 74, 0
9, 200160, Note_on_c, 7, 44, 82
9, 200160, Note_on_c, 7, 32, 90
9, 200160, Note_on_c, 7, 60, 94
9, 200190, Note_on_c, 7, 60, 0
9, 200190, Note_on_c, 7, 63, 73
9, 200220, Note_on_c, 7, 63, 0
9, 200220, Note_on_c, 7, 72, 94
9, 200250, Note_on_c, 7, 72, 0
9, 200250, Note_on_c, 7, 63, 81
9, 200280, Note_on_c, 7, 63, 0
9, 200280, Note_on_c, 7, 72, 80
9, 200310, Note_on_c, 7, 72, 0
9, 200310, Note_on_c, 7, 63, 76
9, 200340, Note_on_c, 7, 63, 0
9, 200340, Note_on_c, 7, 72, 80
9, 200370, Note_on_c, 7, 72, 0
9, 200370, Note_on_c, 7, 63, 86
9, 200400, Note_on_c, 7, 63, 0
9, 200400, Note_on_c, 7, 60, 93
9, 200430, Note_on_c, 7, 60, 0
9, 200430, Note_on_c, 7, 63, 86
9, 200460, Note_on_c, 7, 63, 0
9, 200460, Note_on_c, 7, 72, 95
9, 200490, Note_on_c, 7, 72, 0
9, 200490, Note_on_c, 7, 63, 81
9, 200520, Note_on_c, 7, 63, 0
9, 200520, Note_on_c, 7, 72, 86
9, 200550, Note_on_c, 7, 72, 0
9, 200550, Note_on_c, 7, 63, 84
9, 200580, Note_on_c, 7, 63, 0
9, 200580, Note_on_c, 7, 72, 84
9, 200610, Note_on_c, 7, 72, 0
9, 200610, Note_on_c, 7, 32, 0
9, 200610, Note_on_c, 7, 44, 0
9, 200610, Note_on_c, 7, 63, 82
9, 200610, Note_on_c, 7, 44, 84
9, 200610, Note_on_c, 7, 32, 89
9, 200640, Note_on_c, 7, 32, 0
9, 200640, Note_on_c, 7, 44, 0
9, 200640, Note_on_c, 7, 63, 0
9, 200640, Note_on_c, 7, 31, 93
9, 200640, Note_on_c, 7, 43, 84
9, 200640, Note_on_c, 7, 60, 94
9, 200670, Note_on_c, 7, 60, 0
9, 200670, Note_on_c, 7, 63, 84
9, 200700, Note_on_c, 7, 63, 0
9, 200700, Note_on_c, 7, 72, 89
9, 200730, Note_on_c, 7, 72, 0
9, 200730, Note_on_c, 7, 63, 94
9, 200760, Note_on_c, 7, 63, 0
9, 200760, Note_on_c, 7, 72, 99
9, 200790, Note_on_c, 7, 72, 0
9, 200790, Note_on_c, 7, 63, 74
9, 200820, Note_on_c, 7, 63, 0
9, 200820, Note_on_c, 7, 72, 95
9, 200850, Note_on_c, 7, 72, 0
9, 200850, Note_on_c, 7, 43, 0
9, 200850, Note_on_c, 7, 31, 0
9, 200850, Note_on_c, 7, 31, 89
9, 200850, Note_on_c, 7, 43, 80
9, 200850, Note_on_c, 7, 63, 74
9, 200880, Note_on_c, 7, 63, 0
9, 200880, Note_on_c, 7, 43, 0
9, 200880, Note_on_c, 7, 31, 0
9, 200880, Note_on_c, 7, 30, 94
9, 200880, Note_on_c, 7, 42, 84
9, 200880, Note_on_c, 7, 60, 93
9, 200910, Note_on_c, 7, 60, 0
9, 200910, Note_on_c, 7, 63, 84
9, 200940, Note_on_c, 7, 63, 0
9, 200940, Note_on_c, 7, 72, 95
9, 200970, Note_on_c, 7, 72, 0
9, 200970, Note_on_c, 7, 63, 77
9, 201000, Note_on_c, 7, 63, 0
9, 201000, Note_on_c, 7, 72, 94
9, 201030, Note_on_c, 7, 72, 0
9, 201030, Note_on_c, 7, 63, 81
9, 201060, Note_on_c, 7, 63, 0
9, 201060, Note_on_c, 7, 72, 94
9, 201090, Note_on_c, 7, 72, 0
9, 201090, Note_on_c, 7, 42, 0
9, 201090, Note_on_c, 7, 30, 0
9, 201090, Note_on_c, 7, 63, 94
9, 201090, Note_on_c, 7, 42, 85
9, 201090, Note_on_c, 7, 30, 89
9, 201120, Note_on_c, 7, 30, 0
9, 201120, Note_on_c, 7, 42, 0
9, 201120, Note_on_c, 7, 63, 0
9, 201120, Note_on_c, 7, 31, 93
9, 201120, Note_on_c, 7, 43, 81
9, 201120, Note_on_c, 7, 60, 84
9, 201120, Note_on_c, 7, 63, 85
9, 201120, Note_on_c, 7, 72, 74
9, 201240, Note_on_c, 7, 43, 0
9, 201240, Note_on_c, 7, 31, 0
9, 201360, Note_on_c, 7, 63, 0
9, 201360, Note_on_c, 7, 60, 0
9, 201360, Note_on_c, 7, 72, 0
9, 201360, Note_on_c, 7, 75, 98
9, 201360, Note_on_c, 7, 63, 86
9, 201600, Note_on_c, 7, 63, 0
9, 201600, Note_on_c, 7, 75, 0
9, 201600, Note_on_c, 7, 67, 93
9, 201600, Note_on_c, 7, 79, 85
9, 201600, Note_on_c, 7, 48, 94
9, 201600, Note_on_c, 7, 36, 99
9, 201780, Note_on_c, 7, 79, 0
9, 201780, Note_on_c, 7, 67, 0
9, 201780, Note_on_c, 7, 65, 101
9, 201780, Note_on_c, 7, 77, 90
9, 201840, Note_on_c, 7, 77, 0
9, 201840, Note_on_c, 7, 36, 0
9, 201840, Note_on_c, 7, 48, 0
9, 201840, Note_on_c, 7, 65, 0
9, 201840, Note_on_c, 7, 51, 93
9, 201840, Note_on_c, 7, 39, 94
9, 201840, Note_on_c, 7, 63, 94
9, 201840, Note_on_c, 7, 75, 90
9, 201960, Note_on_c, 7, 75, 0
9, 201960, Note_on_c, 7, 63, 0
9, 201960, Note_on_c, 7, 74, 99
9, 201960, Note_on_c, 7, 62, 95
9, 202080, Note_on_c, 7, 62, 0
9, 202080, Note_on_c, 7, 51, 0
9, 202080, Note_on_c, 7, 39, 0
9, 202080, Note_on_c, 7, 74, 0
9, 202080, Note_on_c, 7, 60, 93
9, 202080, Note_on_c, 7, 72, 82
9, 202080, Note_on_c, 7, 44, 94
9, 202080, Note_on_c, 7, 56, 89
9, 202260, Note_on_c, 7, 56, 0
9, 202260, Note_on_c, 7, 44, 0
9, 202260, Note_on_c, 7, 55, 89
9, 202260, Note_on_c, 7, 43, 89
9, 202320, Note_on_c, 7, 43, 0
9, 202320, Note_on_c, 7, 60, 0
9, 202320, Note_on_c, 7, 72, 0
9, 202320, Note_on_c, 7, 55, 0
9, 202320, Note_on_c, 7, 75, 94
9, 202320, Note_on_c, 7, 63, 99
9, 202320, Note_on_c, 7, 41, 94
9, 202320, Note_on_c, 7, 53, 85
9, 202440, Note_on_c, 7, 53, 0
9, 202440, Note_on_c, 7, 41, 0
9, 202440, Note_on_c, 7, 39, 99
9, 202440, Note_on_c, 7, 51, 89
9, 202560, Note_on_c, 7, 51, 0
9, 202560, Note_on_c, 7, 75, 0
9, 202560, Note_on_c, 7, 63, 0
9, 202560, Note_on_c, 7, 39, 0
9, 202560, Note_on_c, 7, 80, 89
9, 202560, Note_on_c, 7, 68, 99
9, 202560, Note_on_c, 7, 38, 99
9, 202560, Note_on_c, 7, 50, 99
9, 202740, Note_on_c, 7, 68, 0
9, 202740, Note_on_c, 7, 80, 0
9, 202740, Note_on_c, 7, 67, 90
9, 202740, Note_on_c, 7, 79, 89
9, 202800, Note_on_c, 7, 79, 0
9, 202800, Note_on_c, 7, 50, 0
9, 202800, Note_on_c, 7, 38, 0
9, 202800, Note_on_c, 7, 67, 0
9, 202800, Note_on_c, 7, 41, 94
9, 202800, Note_on_c, 7, 53, 89
9, 202800, Note_on_c, 7, 77, 86
9, 202800, Note_on_c, 7, 65, 99
9, 202920, Note_on_c, 7, 65, 0
9, 202920, Note_on_c, 7, 77, 0
9, 202920, Note_on_c, 7, 63, 94
9, 202920, Note_on_c, 7, 75, 89
9, 203040, Note_on_c, 7, 75, 0
9, 203040, Note_on_c, 7, 41, 0
9, 203040, Note_on_c, 7, 53, 0
9, 203040, Note_on_c, 7, 63, 0
9, 203040, Note_on_c, 7, 62, 99
9, 203040, Note_on_c, 7, 74, 98
9, 203040, Note_on_c, 7, 58, 73
9, 203040, Note_on_c, 7, 46, 89
9, 203220, Note_on_c, 7, 46, 0
9, 203220, Note_on_c, 7, 58, 0
9, 203220, Note_on_c, 7, 44, 94
9, 203220, Note_on_c, 7, 56, 86
9, 203280, Note_on_c, 7, 56, 0
9, 203280, Note_on_c, 7, 62, 0
9, 203280, Note_on_c, 7, 74, 0
9, 203280, Note_on_c, 7, 44, 0
9, 203280, Note_on_c, 7, 65, 101
9, 203280, Note_on_c, 7, 77, 90
9, 203280, Note_on_c, 7, 55, 90
9, 203280, Note_on_c, 7, 43, 94
9, 203400, Note_on_c, 7, 43, 0
9, 203400, Note_on_c, 7, 55, 0
9, 203400, Note_on_c, 7, 53, 89
9, 203400, Note_on_c, 7, 41, 94
9, 203520, Note_on_c, 7, 41, 0
9, 203520, Note_on_c, 7, 65, 0
9, 203520, Note_on_c, 7, 77, 0
9, 203520, Note_on_c, 7, 53, 0
9, 203520, Note_on_c, 7, 70, 95
9, 203520, Note_on_c, 7, 82, 80
9, 203520, Note_on_c, 7, 40, 105
9, 203520, Note_on_c, 7, 52, 101
9, 203640, Note_on_c, 7, 40, 0
9, 203700, Note_on_c, 7, 70, 0
9, 203700, Note_on_c, 7, 82, 0
9, 203700, Note_on_c, 7, 68, 99
9, 203700, Note_on_c, 7, 80, 89
9, 203760, Note_on_c, 7, 80, 0
9, 203760, Note_on_c, 7, 68, 0
9, 203760, Note_on_c, 7, 52, 0
9, 203760, Note_on_c, 7, 55, 99
9, 203760, Note_on_c, 7, 67, 89
9, 203760, Note_on_c, 7, 79, 77
9, 203880, Note_on_c, 7, 79, 0
9, 203880, Note_on_c, 7, 67, 0
9, 203880, Note_on_c, 7, 65, 101
9, 203880, Note_on_c, 7, 77, 86
9, 204000, Note_on_c, 7, 77, 0
9, 204000, Note_on_c, 7, 65, 0
9, 204000, Note_on_c, 7, 55, 0
9, 204000, Note_on_c, 7, 58, 94
9, 204000, Note_on_c, 7, 64, 104
9, 204030, Note_on_c, 7, 64, 0
9, 204030, Note_on_c, 7, 67, 89
9, 204060, Note_on_c, 7, 67, 0
9, 204060, Note_on_c, 7, 76, 85
9, 204090, Note_on_c, 7, 76, 0
9, 204090, Note_on_c, 7, 67, 69
9, 204120, Note_on_c, 7, 67, 0
9, 204120, Note_on_c, 7, 67, 69
9, 204150, Note_on_c, 7, 67, 0
9, 204150, Note_on_c, 7, 76, 67
9, 204180, Note_on_c, 7, 76, 0
9, 204180, Note_on_c, 7, 58, 0
9, 204180, Note_on_c, 7, 56, 65
9, 204180, Note_on_c, 7, 79, 63
9, 204210, Note_on_c, 7, 79, 0
9, 204210, Note_on_c, 7, 76, 84
9, 204240, Note_on_c, 7, 76, 0
9, 204240, Note_on_c, 7, 56, 0
9, 204240, Note_on_c, 7, 55, 76
9, 204240, Note_on_c, 7, 67, 61
9, 204270, Note_on_c, 7, 67, 0
9, 204270, Note_on_c, 7, 76, 80
9, 204300, Note_on_c, 7, 76, 0
9, 204300, Note_on_c, 7, 79, 77
9, 204330, Note_on_c, 7, 79, 0
9, 204330, Note_on_c, 7, 76, 86
9, 204360, Note_on_c, 7, 76, 0
9, 204360, Note_on_c, 7, 55, 0
9, 204360, Note_on_c, 7, 53, 57
9, 204360, Note_on_c, 7, 68, 71
9, 204390, Note_on_c, 7, 68, 0
9, 204390, Note_on_c, 7, 77, 82
9, 204420, Note_on_c, 7, 77, 0
9, 204420, Note_on_c, 7, 80, 72
9, 204450, Note_on_c, 7, 80, 0
9, 204450, Note_on_c, 7, 77, 80
9, 204480, Note_on_c, 7, 77, 0
9, 204480, Note_on_c, 7, 53, 0
9, 204480, Note_on_c, 7, 52, 77
9, 204480, Note_on_c, 7, 70, 65
9, 204510, Note_on_c, 7, 70, 0
9, 204510, Note_on_c, 7, 79, 80
9, 204540, Note_on_c, 7, 79, 0
9, 204540, Note_on_c, 7, 82, 66
9, 204570, Note_on_c, 7, 82, 0
9, 204570, Note_on_c, 7, 79, 80
9, 204600, Note_on_c, 7, 79, 0
9, 204600, Note_on_c, 7, 52, 0
9, 204600, Note_on_c, 7, 49, 74
9, 204600, Note_on_c, 7, 76, 81
9, 204630, Note_on_c, 7, 76, 0
9, 204630, Note_on_c, 7, 79, 77
9, 204660, Note_on_c, 7, 79, 0
9, 204660, Note_on_c, 7, 82, 80
9, 204690, Note_on_c, 7, 82, 0
9, 204690, Note_on_c, 7, 79, 73
9, 204720, Note_on_c, 7, 79, 0
9, 204720, Note_on_c, 7, 49, 0
9, 204720, Note_on_c, 7, 48, 80
9, 204720, Note_on_c, 7, 76, 73
9, 204750, Note_on_c, 7, 76, 0
9, 204750, Note_on_c, 7, 79, 82
9, 204780, Note_on_c, 7, 79, 0
9, 204780, Note_on_c, 7, 84, 80
9, 204810, Note_on_c, 7, 84, 0
9, 204810, Note_on_c, 7, 79, 71
9, 204840, Note_on_c, 7, 79, 0
9, 204840, Note_on_c, 7, 48, 0
9, 204840, Note_on_c, 7, 46, 74
9, 204840, Note_on_c, 7, 76, 65
9, 204870, Note_on_c, 7, 76, 0
9, 204870, Note_on_c, 7, 79, 65
9, 204900, Note_on_c, 7, 79, 0
9, 204900, Note_on_c, 7, 85, 74
9, 204930, Note_on_c, 7, 85, 0
9, 204930, Note_on_c, 7, 79, 73
9, 204960, Note_on_c, 7, 79, 0
9, 204960, Note_on_c, 7, 46, 0
9, 204960, Note_on_c, 7, 65, 110
9, 204960, Note_on_c, 7, 44, 99
9, 204960, Note_on_c, 7, 56, 99
9, 204990, Note_on_c, 7, 65, 0
9, 204990, Note_on_c, 7, 72, 80
9, 205020, Note_on_c, 7, 72, 0
9, 205020, Note_on_c, 7, 77, 43
9, 205050, Note_on_c, 7, 77, 0
9, 205050, Note_on_c, 7, 72, 69
9, 205080, Note_on_c, 7, 72, 0
9, 205080, Note_on_c, 7, 44, 0
9, 205080, Note_on_c, 7, 65, 72
9, 205110, Note_on_c, 7, 65, 0
9, 205110, Note_on_c, 7, 72, 66
9, 205140, Note_on_c, 7, 72, 0
9, 205140, Note_on_c, 7, 56, 0
9, 205140, Note_on_c, 7, 77, 70
9, 205140, Note_on_c, 7, 55, 76
9, 205170, Note_on_c, 7, 77, 0
9, 205170, Note_on_c, 7, 72, 70
9, 205200, Note_on_c, 7, 72, 0
9, 205200, Note_on_c, 7, 55, 0
9, 205200, Note_on_c, 7, 65, 74
9, 205200, Note_on_c, 7, 53, 57
9, 205230, Note_on_c, 7, 65, 0
9, 205230, Note_on_c, 7, 72, 68
9, 205260, Note_on_c, 7, 72, 0
9, 205260, Note_on_c, 7, 77, 82
9, 205290, Note_on_c, 7, 77, 0
9, 205290, Note_on_c, 7, 72, 60
9, 205320, Note_on_c, 7, 72, 0
9, 205320, Note_on_c, 7, 53, 0
9, 205320, Note_on_c, 7, 51, 66
9, 205320, Note_on_c, 7, 67, 69
9, 205350, Note_on_c, 7, 67, 0
9, 205350, Note_on_c, 7, 72, 72
9, 205380, Note_on_c, 7, 72, 0
9, 205380, Note_on_c, 7, 79, 69
9, 205410, Note_on_c, 7, 79, 0
9, 205410, Note_on_c, 7, 72, 61
9, 205440, Note_on_c, 7, 72, 0
9, 205440, Note_on_c, 7, 51, 0
9, 205440, Note_on_c, 7, 68, 71
9, 205440, Note_on_c, 7, 50, 71
9, 205470, Note_on_c, 7, 68, 0
9, 205470, Note_on_c, 7, 72, 69
9, 205500, Note_on_c, 7, 72, 0
9, 205500, Note_on_c, 7, 80, 76
9, 205530, Note_on_c, 7, 80, 0
9, 205530, Note_on_c, 7, 72, 68
9, 205560, Note_on_c, 7, 72, 0
9, 205560, Note_on_c, 7, 50, 0
9, 205560, Note_on_c, 7, 68, 68
9, 205560, Note_on_c, 7, 47, 58
9, 205590, Note_on_c, 7, 68, 0
9, 205590, Note_on_c, 7, 74, 94
9, 205620, Note_on_c, 7, 74, 0
9, 205620, Note_on_c, 7, 80, 80
9, 205650, Note_on_c, 7, 80, 0
9, 205650, Note_on_c, 7, 74, 84
9, 205680, Note_on_c, 7, 74, 0
9, 205680, Note_on_c, 7, 47, 0
9, 205680, Note_on_c, 7, 70, 71
9, 205680, Note_on_c, 7, 46, 76
9, 205710, Note_on_c, 7, 70, 0
9, 205710, Note_on_c, 7, 74, 89
9, 205740, Note_on_c, 7, 74, 0
9, 205740, Note_on_c, 7, 82, 76
9, 205770, Note_on_c, 7, 82, 0
9, 205770, Note_on_c, 7, 74, 86
9, 205800, Note_on_c, 7, 74, 0
9, 205800, Note_on_c, 7, 46, 0
9, 205800, Note_on_c, 7, 44, 69
9, 205800, Note_on_c, 7, 71, 78
9, 205830, Note_on_c, 7, 71, 0
9, 205830, Note_on_c, 7, 74, 94
9, 205860, Note_on_c, 7, 74, 0
9, 205860, Note_on_c, 7, 83, 69
9, 205890, Note_on_c, 7, 83, 0
9, 205890, Note_on_c, 7, 74, 80
9, 205920, Note_on_c, 7, 74, 0
9, 205920, Note_on_c, 7, 44, 0
9, 205920, Note_on_c, 7, 63, 115
9, 205920, Note_on_c, 7, 42, 99
9, 205920, Note_on_c, 7, 54, 99
9, 205950, Note_on_c, 7, 63, 0
9, 205950, Note_on_c, 7, 70, 95
9, 205980, Note_on_c, 7, 70, 0
9, 205980, Note_on_c, 7, 75, 94
9, 206010, Note_on_c, 7, 75, 0
9, 206010, Note_on_c, 7, 70, 76
9, 206040, Note_on_c, 7, 70, 0
9, 206040, Note_on_c, 7, 42, 0
9, 206040, Note_on_c, 7, 63, 57
9, 206070, Note_on_c, 7, 63, 0
9, 206070, Note_on_c, 7, 70, 69
9, 206100, Note_on_c, 7, 70, 0
9, 206100, Note_on_c, 7, 54, 0
9, 206100, Note_on_c, 7, 75, 61
9, 206100, Note_on_c, 7, 53, 68
9, 206130, Note_on_c, 7, 75, 0
9, 206130, Note_on_c, 7, 70, 61
9, 206160, Note_on_c, 7, 70, 0
9, 206160, Note_on_c, 7, 53, 0
9, 206160, Note_on_c, 7, 63, 54
9, 206160, Note_on_c, 7, 51, 71
9, 206190, Note_on_c, 7, 63, 0
9, 206190, Note_on_c, 7, 70, 61
9, 206220, Note_on_c, 7, 70, 0
9, 206220, Note_on_c, 7, 75, 54
9, 206250, Note_on_c, 7, 75, 0
9, 206250, Note_on_c, 7, 70, 73
9, 206280, Note_on_c, 7, 70, 0
9, 206280, Note_on_c, 7, 51, 0
9, 206280, Note_on_c, 7, 49, 72
9, 206280, Note_on_c, 7, 65, 70
9, 206310, Note_on_c, 7, 65, 0
9, 206310, Note_on_c, 7, 70, 74
9, 206340, Note_on_c, 7, 70, 0
9, 206340, Note_on_c, 7, 77, 65
9, 206370, Note_on_c, 7, 77, 0
9, 206370, Note_on_c, 7, 70, 70
9, 206400, Note_on_c, 7, 70, 0
9, 206400, Note_on_c, 7, 49, 0
9, 206400, Note_on_c, 7, 66, 65
9, 206400, Note_on_c, 7, 48, 65
9, 206430, Note_on_c, 7, 66, 0
9, 206430, Note_on_c, 7, 75, 80
9, 206460, Note_on_c, 7, 75, 0
9, 206460, Note_on_c, 7, 78, 72
9, 206490, Note_on_c, 7, 78, 0
9, 206490, Note_on_c, 7, 75, 84
9, 206520, Note_on_c, 7, 75, 0
9, 206520, Note_on_c, 7, 48, 0
9, 206520, Note_on_c, 7, 72, 43
9, 206520, Note_on_c, 7, 46, 72
9, 206550, Note_on_c, 7, 72, 0
9, 206550, Note_on_c, 7, 75, 94
9, 206580, Note_on_c, 7, 75, 0
9, 206580, Note_on_c, 7, 84, 68
9, 206610, Note_on_c, 7, 84, 0
9, 206610, Note_on_c, 7, 75, 86
9, 206640, Note_on_c, 7, 75, 0
9, 206640, Note_on_c, 7, 46, 0
9, 206640, Note_on_c, 7, 72, 80
9, 206640, Note_on_c, 7, 44, 74
9, 206670, Note_on_c, 7, 72, 0
9, 206670, Note_on_c, 7, 75, 82
9, 206700, Note_on_c, 7, 75, 0
9, 206700, Note_on_c, 7, 84, 77
9, 206730, Note_on_c, 7, 84, 0
9, 206730, Note_on_c, 7, 75, 85
9, 206760, Note_on_c, 7, 75, 0
9, 206760, Note_on_c, 7, 44, 0
9, 206760, Note_on_c, 7, 42, 76
9, 206760, Note_on_c, 7, 72, 84
9, 206790, Note_on_c, 7, 72, 0
9, 206790, Note_on_c, 7, 75, 81
9, 206820, Note_on_c, 7, 75, 0
9, 206820, Note_on_c, 7, 84, 76
9, 206850, Note_on_c, 7, 84, 0
9, 206850, Note_on_c, 7, 75, 74
9, 206880, Note_on_c, 7, 75, 0
9, 206880, Note_on_c, 7, 42, 0
9, 206880, Note_on_c, 7, 80, 78
9, 206880, Note_on_c, 7, 85, 89
9, 206880, Note_on_c, 7, 73, 94
9, 206880, Note_on_c, 7, 41, 99
9, 206940, Note_on_c, 7, 41, 0
9, 206940, Note_on_c, 7, 65, 99
9, 206970, Note_on_c, 7, 65, 0
9, 206970, Note_on_c, 7, 68, 94
9, 207000, Note_on_c, 7, 68, 0
9, 207000, Note_on_c, 7, 65, 94
9, 207030, Note_on_c, 7, 65, 0
9, 207030, Note_on_c, 7, 68, 95
9, 207060, Note_on_c, 7, 68, 0
9, 207060, Note_on_c, 7, 65, 99
9, 207090, Note_on_c, 7, 65, 0
9, 207090, Note_on_c, 7, 68, 94
9, 207120, Note_on_c, 7, 68, 0
9, 207120, Note_on_c, 7, 80, 0
9, 207120, Note_on_c, 7, 85, 0
9, 207120, Note_on_c, 7, 73, 0
9, 207120, Note_on_c, 7, 77, 93
9, 207120, Note_on_c, 7, 80, 89
9, 207120, Note_on_c, 7, 89, 105
9, 207120, Note_on_c, 7, 65, 95
9, 207150, Note_on_c, 7, 65, 0
9, 207150, Note_on_c, 7, 68, 90
9, 207180, Note_on_c, 7, 68, 0
9, 207180, Note_on_c, 7, 65, 95
9, 207210, Note_on_c, 7, 65, 0
9, 207210, Note_on_c, 7, 68, 94
9, 207240, Note_on_c, 7, 68, 0
9, 207240, Note_on_c, 7, 65, 99
9, 207270, Note_on_c, 7, 65, 0
9, 207270, Note_on_c, 7, 68, 95
9, 207300, Note_on_c, 7, 68, 0
9, 207300, Note_on_c, 7, 65, 95
9, 207330, Note_on_c, 7, 65, 0
9, 207330, Note_on_c, 7, 68, 98
9, 207360, Note_on_c, 7, 68, 0
9, 207360, Note_on_c, 7, 89, 0
9, 207360, Note_on_c, 7, 80, 0
9, 207360, Note_on_c, 7, 77, 0
9, 207360, Control_c, 7, 64, 96
9, 207360, Note_on_c, 7, 63, 94
9, 207390, Note_on_c, 7, 63, 0
9, 207390, Note_on_c, 7, 66, 94
9, 207420, Note_on_c, 7, 66, 0
9, 207420, Note_on_c, 7, 69, 99
9, 207450, Note_on_c, 7, 69, 0
9, 207450, Note_on_c, 7, 72, 110
9, 207480, Note_on_c, 7, 72, 0
9, 207480, Note_on_c, 7, 75, 99
9, 207510, Note_on_c, 7, 75, 0
9, 207510, Note_on_c, 7, 78, 84
9, 207540, Note_on_c, 7, 78, 0
9, 207540, Note_on_c, 7, 84, 105
9, 207570, Note_on_c, 7, 84, 0
9, 207570, Note_on_c, 7, 81, 99
9, 207600, Note_on_c, 7, 81, 0
9, 207600, Note_on_c, 7, 87, 110
9, 207630, Note_on_c, 7, 87, 0
9, 207630, Note_on_c, 7, 84, 85
9, 207660, Note_on_c, 7, 84, 0
9, 207660, Note_on_c, 7, 90, 95
9, 207690, Note_on_c, 7, 90, 0
9, 207690, Note_on_c, 7, 87, 104
9, 207720, Note_on_c, 7, 87, 0
9, 207720, Note_on_c, 7, 84, 101
9, 207750, Note_on_c, 7, 84, 0
9, 207750, Note_on_c, 7, 81, 94
9, 207780, Note_on_c, 7, 81, 0
9, 207780, Note_on_c, 7, 78, 95
9, 207810, Note_on_c, 7, 78, 0
9, 207810, Note_on_c, 7, 75, 99
9, 207840, Note_on_c, 7, 75, 0
9, 207840, Note_on_c, 7, 72, 90
9, 207870, Note_on_c, 7, 72, 0
9, 207870, Note_on_c, 7, 69, 101
9, 207900, Note_on_c, 7, 69, 0
9, 207900, Note_on_c, 7, 66, 98
9, 207930, Note_on_c, 7, 66, 0
9, 207930, Note_on_c, 7, 63, 89
9, 207960, Note_on_c, 7, 63, 0
9, 207960, Note_on_c, 7, 60, 95
9, 207990, Note_on_c, 7, 60, 0
9, 207990, Note_on_c, 7, 57, 89
9, 208020, Note_on_c, 7, 57, 0
9, 208020, Note_on_c, 7, 54, 93
9, 208050, Note_on_c, 7, 54, 0
9, 208050, Note_on_c, 7, 51, 98
9, 208080, Note_on_c, 7, 51, 0
9, 208080, Note_on_c, 7, 48, 89
9, 208110, Note_on_c, 7, 48, 0
9, 208110, Note_on_c, 7, 45, 99
9, 208140, Note_on_c, 7, 45, 0
9, 208140, Note_on_c, 7, 42, 93
9, 208170, Note_on_c, 7, 42, 0
9, 208170, Note_on_c, 7, 39, 99
9, 208200, Note_on_c, 7, 39, 0
9, 208200, Note_on_c, 7, 42, 95
9, 208230, Note_on_c, 7, 42, 0
9, 208230, Note_on_c, 7, 45, 99
9, 208260, Note_on_c, 7, 45, 0
9, 208260, Note_on_c, 7, 48, 93
9, 208290, Note_on_c, 7, 48, 0
9, 208290, Note_on_c, 7, 51, 98
9, 208320, Note_on_c, 7, 51, 0
9, 208320, Note_on_c, 7, 54, 94
9, 208350, Note_on_c, 7, 54, 0
9, 208350, Note_on_c, 7, 57, 105
9, 208380, Note_on_c, 7, 57, 0
9, 208380, Note_on_c, 7, 60, 86
9, 208410, Note_on_c, 7, 60, 0
9, 208410, Note_on_c, 7, 63, 93
9, 208440, Note_on_c, 7, 63, 0
9, 208440, Note_on_c, 7, 66, 95
9, 208470, Note_on_c, 7, 66, 0
9, 208470, Note_on_c, 7, 69, 93
9, 208500, Note_on_c, 7, 69, 0
9, 208500, Note_on_c, 7, 72, 93
9, 208530, Note_on_c, 7, 72, 0
9, 208530, Note_on_c, 7, 75, 99
9, 208560, Note_on_c, 7, 75, 0
9, 208560, Note_on_c, 7, 78, 95
9, 208590, Note_on_c, 7, 78, 0
9, 208590, Note_on_c, 7, 81, 104
9, 208620, Note_on_c, 7, 81, 0
9, 208620, Note_on_c, 7, 84, 104
9, 208650, Note_on_c, 7, 84, 0
9, 208650, Note_on_c, 7, 87, 110
9, 208675, Control_c, 7, 64, 94
9, 208680, Note_on_c, 7, 87, 0
9, 208680, Control_c, 7, 64, 83
9, 208680, Note_on_c, 7, 90, 95
9, 208685, Control_c, 7, 64, 71
9, 208690, Control_c, 7, 64, 59
9, 208695, Control_c, 7, 64, 47
9, 208700, Control_c, 7, 64, 36
9, 208705, Control_c, 7, 64, 24
9, 208710, Note_on_c, 7, 90, 0
9, 208710, Control_c, 7, 64, 12
9, 208710, Note_on_c, 7, 81, 104
9, 208715, Control_c, 7, 64, 0
9, 208740, Note_on_c, 7, 81, 0
9, 208740, Note_on_c, 7, 82, 85
9, 208740, Note_on_c, 7, 77, 84
9, 208740, Note_on_c, 7, 70, 90
9, 208740, Note_on_c, 7, 61, 85
9, 208770, Note_on_c, 7, 61, 0
9, 208770, Note_on_c, 7, 65, 90
9, 208800, Note_on_c, 7, 65, 0
9, 208800, Note_on_c, 7, 61, 86
9, 208830, Note_on_c, 7, 61, 0
9, 208830, Note_on_c, 7, 65, 89
9, 208860, Note_on_c, 7, 65, 0
9, 208860, Note_on_c, 7, 61, 86
9, 208890, Note_on_c, 7, 61, 0
9, 208890, Note_on_c, 7, 65, 93
9, 208920, Note_on_c, 7, 65, 0
9, 208920, Note_on_c, 7, 61, 84
9, 208950, Note_on_c, 7, 61, 0
9, 208950, Note_on_c, 7, 65, 93
9, 208980, Note_on_c, 7, 65, 0
9, 208980, Note_on_c, 7, 70, 0
9, 208980, Note_on_c, 7, 77, 0
9, 208980, Note_on_c, 7, 82, 0
9, 208980, Note_on_c, 7, 85, 94
9, 208980, Note_on_c, 7, 77, 98
9, 208980, Note_on_c, 7, 73, 98
9, 208980, Note_on_c, 7, 61, 85
9, 209010, Note_on_c, 7, 61, 0
9, 209010, Note_on_c, 7, 65, 89
9, 209040, Note_on_c, 7, 65, 0
9, 209040, Note_on_c, 7, 61, 86
9, 209070, Note_on_c, 7, 61, 0
9, 209070, Note_on_c, 7, 65, 86
9, 209100, Note_on_c, 7, 65, 0
9, 209100, Note_on_c, 7, 61, 84
9, 209130, Note_on_c, 7, 61, 0
9, 209130, Note_on_c, 7, 65, 82
9, 209160, Note_on_c, 7, 65, 0
9, 209160, Note_on_c, 7, 61, 89
9, 209190, Note_on_c, 7, 61, 0
9, 209190, Note_on_c, 7, 65, 89
9, 209220, Note_on_c, 7, 65, 0
9, 209220, Note_on_c, 7, 73, 0
9, 209220, Note_on_c, 7, 77, 0
9, 209220, Note_on_c, 7, 85, 0
9, 209220, Note_on_c, 7, 59, 105
9, 209225, Control_c, 7, 64, 95
9, 209250, Note_on_c, 7, 59, 0
9, 209250, Note_on_c, 7, 63, 94
9, 209280, Note_on_c, 7, 63, 0
9, 209280, Note_on_c, 7, 68, 98
9, 209310, Note_on_c, 7, 68, 0
9, 209310, Note_on_c, 7, 71, 95
9, 209340, Note_on_c, 7, 71, 0
9, 209340, Note_on_c, 7, 75, 99
9, 209370, Note_on_c, 7, 75, 0
9, 209370, Note_on_c, 7, 80, 93
9, 209400, Note_on_c, 7, 80, 0
9, 209400, Note_on_c, 7, 83, 101
9, 209430, Note_on_c, 7, 83, 0
9, 209430, Note_on_c, 7, 80, 84
9, 209460, Note_on_c, 7, 80, 0
9, 209460, Note_on_c, 7, 87, 99
9, 209490, Note_on_c, 7, 87, 0
9, 209490, Note_on_c, 7, 83, 99
9, 209520, Note_on_c, 7, 83, 0
9, 209520, Note_on_c, 7, 80, 85
9, 209550, Note_on_c, 7, 80, 0
9, 209550, Note_on_c, 7, 75, 99
9, 209580, Note_on_c, 7, 75, 0
9, 209580, Note_on_c, 7, 71, 105
9, 209610, Note_on_c, 7, 71, 0
9, 209610, Note_on_c, 7, 68, 84
9, 209640, Note_on_c, 7, 68, 0
9, 209640, Note_on_c, 7, 63, 98
9, 209670, Note_on_c, 7, 63, 0
9, 209670, Note_on_c, 7, 59, 98
9, 209700, Note_on_c, 7, 59, 0
9, 209700, Note_on_c, 7, 56, 95
9, 209730, Note_on_c, 7, 56, 0
9, 209730, Note_on_c, 7, 51, 84
9, 209760, Note_on_c, 7, 51, 0
9, 209760, Note_on_c, 7, 47, 104
9, 209790, Note_on_c, 7, 47, 0
9, 209790, Note_on_c, 7, 44, 98
9, 209820, Note_on_c, 7, 44, 0
9, 209820, Note_on_c, 7, 39, 112
9, 209850, Note_on_c, 7, 39, 0
9, 209850, Note_on_c, 7, 35, 104
9, 209880, Note_on_c, 7, 35, 0
9, 209880, Note_on_c, 7, 39, 101
9, 209910, Note_on_c, 7, 39, 0
9, 209910, Note_on_c, 7, 44, 94
9, 209940, Note_on_c, 7, 44, 0
9, 209940, Note_on_c, 7, 47, 99
9, 209970, Note_on_c, 7, 47, 0
9, 209970, Note_on_c, 7, 51, 99
9, 210000, Note_on_c, 7, 51, 0
9, 210000, Note_on_c, 7, 56, 99
9, 210030, Note_on_c, 7, 56, 0
9, 210030, Note_on_c, 7, 59, 105
9, 210060, Note_on_c, 7, 59, 0
9, 210060, Note_on_c, 7, 63, 99
9, 210090, Note_on_c, 7, 63, 0
9, 210090, Note_on_c, 7, 68, 105
9, 210120, Note_on_c, 7, 68, 0
9, 210120, Note_on_c, 7, 71, 104
9, 210150, Note_on_c, 7, 71, 0
9, 210150, Note_on_c, 7, 75, 104
9, 210180, Note_on_c, 7, 75, 0
9, 210180, Note_on_c, 7, 80, 99
9, 210210, Note_on_c, 7, 80, 0
9, 210210, Note_on_c, 7, 83, 99
9, 210240, Note_on_c, 7, 83, 0
9, 210240, Note_on_c, 7, 87, 105
9, 210270, Note_on_c, 7, 87, 0
9, 210270, Note_on_c, 7, 83, 105
9, 210285, Control_c, 7, 64, 94
9, 210290, Control_c, 7, 64, 71
9, 210295, Control_c, 7, 64, 47
9, 210300, Note_on_c, 7, 83, 0
9, 210300, Control_c, 7, 64, 24
9, 210300, Note_on_c, 7, 80, 104
9, 210305, Control_c, 7, 64, 0
9, 210330, Note_on_c, 7, 80, 0
9, 210330, Note_on_c, 7, 78, 76
9, 210330, Note_on_c, 7, 73, 99
9, 210330, Note_on_c, 7, 66, 89
9, 210330, Note_on_c, 7, 58, 95
9, 210360, Note_on_c, 7, 58, 0
9, 210360, Note_on_c, 7, 61, 89
9, 210390, Note_on_c, 7, 61, 0
9, 210390, Note_on_c, 7, 58, 93
9, 210420, Note_on_c, 7, 58, 0
9, 210420, Note_on_c, 7, 61, 86
9, 210450, Note_on_c, 7, 61, 0
9, 210450, Note_on_c, 7, 58, 94
9, 210480, Note_on_c, 7, 58, 0
9, 210480, Note_on_c, 7, 61, 89
9, 210510, Note_on_c, 7, 61, 0
9, 210510, Note_on_c, 7, 58, 90
9, 210540, Note_on_c, 7, 58, 0
9, 210540, Note_on_c, 7, 61, 84
9, 210570, Note_on_c, 7, 61, 0
9, 210570, Note_on_c, 7, 66, 0
9, 210570, Note_on_c, 7, 73, 0
9, 210570, Note_on_c, 7, 78, 0
9, 210570, Note_on_c, 7, 82, 80
9, 210570, Note_on_c, 7, 73, 99
9, 210570, Note_on_c, 7, 70, 94
9, 210570, Note_on_c, 7, 58, 94
9, 210600, Note_on_c, 7, 58, 0
9, 210600, Note_on_c, 7, 61, 84
9, 210630, Note_on_c, 7, 61, 0
9, 210630, Note_on_c, 7, 58, 94
9, 210660, Note_on_c, 7, 58, 0
9, 210660, Note_on_c, 7, 61, 86
9, 210690, Note_on_c, 7, 61, 0
9, 210690, Note_on_c, 7, 58, 93
9, 210720, Note_on_c, 7, 58, 0
9, 210720, Note_on_c, 7, 61, 84
9, 210750, Note_on_c, 7, 61, 0
9, 210750, Note_on_c, 7, 58, 94
9, 210780, Note_on_c, 7, 58, 0
9, 210780, Note_on_c, 7, 61, 86
9, 210810, Note_on_c, 7, 61, 0
9, 210810, Note_on_c, 7, 70, 0
9, 210810, Note_on_c, 7, 73, 0
9, 210810, Note_on_c, 7, 82, 0
9, 210810, Control_c, 7, 64, 96
9, 210810, Note_on_c, 7, 57, 110
9, 210840, Note_on_c, 7, 57, 0
9, 210840, Note_on_c, 7, 61, 93
9, 210870, Note_on_c, 7, 61, 0
9, 210870, Note_on_c, 7, 66, 95
9, 210900, Note_on_c, 7, 66, 0
9, 210900, Note_on_c, 7, 69, 95
9, 210930, Note_on_c, 7, 69, 0
9, 210930, Note_on_c, 7, 73, 76
9, 210960, Note_on_c, 7, 73, 0
9, 210960, Note_on_c, 7, 78, 90
9, 210990, Note_on_c, 7, 78, 0
9, 210990, Note_on_c, 7, 81, 99
9, 211020, Note_on_c, 7, 81, 0
9, 211020, Note_on_c, 7, 78, 90
9, 211050, Note_on_c, 7, 78, 0
9, 211050, Note_on_c, 7, 85, 94
9, 211080, Note_on_c, 7, 85, 0
9, 211080, Note_on_c, 7, 81, 101
9, 211110, Note_on_c, 7, 81, 0
9, 211110, Note_on_c, 7, 78, 89
9, 211140, Note_on_c, 7, 78, 0
9, 211140, Note_on_c, 7, 73, 84
9, 211170, Note_on_c, 7, 73, 0
9, 211170, Note_on_c, 7, 69, 86
9, 211200, Note_on_c, 7, 69, 0
9, 211200, Note_on_c, 7, 66, 94
9, 211230, Note_on_c, 7, 66, 0
9, 211230, Note_on_c, 7, 61, 94
9, 211260, Note_on_c, 7, 61, 0
9, 211260, Note_on_c, 7, 57, 105
9, 211290, Note_on_c, 7, 57, 0
9, 211290, Note_on_c, 7, 54, 95
9, 211320, Note_on_c, 7, 54, 0
9, 211320, Note_on_c, 7, 49, 90
9, 211350, Note_on_c, 7, 49, 0
9, 211350, Note_on_c, 7, 45, 99
9, 211380, Note_on_c, 7, 45, 0
9, 211380, Note_on_c, 7, 49, 95
9, 211410, Note_on_c, 7, 49, 0
9, 211410, Note_on_c, 7, 54, 94
9, 211440, Note_on_c, 7, 54, 0
9, 211440, Note_on_c, 7, 57, 105
9, 211470, Note_on_c, 7, 57, 0
9, 211470, Note_on_c, 7, 61, 89
9, 211500, Note_on_c, 7, 61, 0
9, 211500, Note_on_c, 7, 66, 94
9, 211530, Note_on_c, 7, 66, 0
9, 211530, Note_on_c, 7, 69, 95
9, 211560, Note_on_c, 7, 69, 0
9, 211560, Note_on_c, 7, 73, 81
9, 211590, Note_on_c, 7, 73, 0
9, 211590, Note_on_c, 7, 78, 90
9, 211620, Note_on_c, 7, 78, 0
9, 211620, Note_on_c, 7, 81, 101
9, 211650, Note_on_c, 7, 81, 0
9, 211650, Note_on_c, 7, 78, 95
9, 211680, Note_on_c, 7, 78, 0
9, 211680, Note_on_c, 7, 85, 95
9, 211710, Note_on_c, 7, 85, 0
9, 211710, Note_on_c, 7, 81, 101
9, 211740, Note_on_c, 7, 81, 0
9, 211740, Note_on_c, 7, 78, 95
9, 211770, Note_on_c, 7, 78, 0
9, 211770, Note_on_c, 7, 73, 82
9, 211800, Note_on_c, 7, 73, 0
9, 211800, Note_on_c, 7, 69, 94
9, 211830, Note_on_c, 7, 69, 0
9, 211830, Note_on_c, 7, 66, 98
9, 211860, Note_on_c, 7, 66, 0
9, 211860, Note_on_c, 7, 61, 84
9, 211890, Note_on_c, 7, 61, 0
9, 211890, Note_on_c, 7, 57, 110
9, 211920, Note_on_c, 7, 57, 0
9, 211920, Note_on_c, 7, 54, 99
9, 211950, Note_on_c, 7, 54, 0
9, 211950, Note_on_c, 7, 49, 95
9, 211960, Control_c, 7, 64, 92
9, 211965, Control_c, 7, 64, 74
9, 211970, Control_c, 7, 64, 56
9, 211975, Control_c, 7, 64, 37
9, 211980, Note_on_c, 7, 49, 0
9, 211980, Control_c, 7, 64, 19
9, 211980, Note_on_c, 7, 45, 105
9, 211985, Control_c, 7, 64, 0
9, 212010, Note_on_c, 7, 45, 0
9, 212010, Note_on_c, 7, 73, 84
9, 212010, Note_on_c, 7, 79, 84
9, 212010, Note_on_c, 7, 76, 93
9, 212010, Note_on_c, 7, 57, 101
9, 212040, Note_on_c, 7, 57, 0
9, 212040, Note_on_c, 7, 61, 72
9, 212040, Note_on_c, 7, 64, 94
9, 212040, Note_on_c, 7, 67, 89
9, 212070, Note_on_c, 7, 67, 0
9, 212070, Note_on_c, 7, 61, 0
9, 212070, Note_on_c, 7, 64, 0
9, 212070, Note_on_c, 7, 57, 99
9, 212100, Note_on_c, 7, 57, 0
9, 212100, Note_on_c, 7, 61, 66
9, 212100, Note_on_c, 7, 67, 84
9, 212100, Note_on_c, 7, 64, 94
9, 212130, Note_on_c, 7, 64, 0
9, 212130, Note_on_c, 7, 61, 0
9, 212130, Note_on_c, 7, 67, 0
9, 212130, Note_on_c, 7, 57, 99
9, 212160, Note_on_c, 7, 57, 0
9, 212160, Note_on_c, 7, 61, 67
9, 212160, Note_on_c, 7, 67, 85
9, 212160, Note_on_c, 7, 64, 94
9, 212190, Note_on_c, 7, 64, 0
9, 212190, Note_on_c, 7, 61, 0
9, 212190, Note_on_c, 7, 67, 0
9, 212190, Note_on_c, 7, 57, 99
9, 212220, Note_on_c, 7, 57, 0
9, 212220, Note_on_c, 7, 61, 68
9, 212220, Note_on_c, 7, 64, 99
9, 212220, Note_on_c, 7, 67, 85
9, 212250, Note_on_c, 7, 67, 0
9, 212250, Note_on_c, 7, 73, 0
9, 212250, Note_on_c, 7, 79, 0
9, 212250, Note_on_c, 7, 76, 0
9, 212250, Note_on_c, 7, 64, 0
9, 212250, Note_on_c, 7, 61, 0
9, 212250, Note_on_c, 7, 85, 94
9, 212250, Note_on_c, 7, 76, 95
9, 212250, Note_on_c, 7, 81, 105
9, 212250, Note_on_c, 7, 79, 99
9, 212250, Note_on_c, 7, 57, 95
9, 212280, Note_on_c, 7, 57, 0
9, 212280, Note_on_c, 7, 61, 69
9, 212280, Note_on_c, 7, 67, 85
9, 212280, Note_on_c, 7, 64, 98
9, 212310, Note_on_c, 7, 64, 0
9, 212310, Note_on_c, 7, 61, 0
9, 212310, Note_on_c, 7, 67, 0
9, 212310, Note_on_c, 7, 57, 99
9, 212340, Note_on_c, 7, 57, 0
9, 212340, Note_on_c, 7, 61, 65
9, 212340, Note_on_c, 7, 67, 84
9, 212340, Note_on_c, 7, 64, 98
9, 212370, Note_on_c, 7, 64, 0
9, 212370, Note_on_c, 7, 61, 0
9, 212370, Note_on_c, 7, 67, 0
9, 212370, Note_on_c, 7, 57, 95
9, 212400, Note_on_c, 7, 57, 0
9, 212400, Note_on_c, 7, 61, 70
9, 212400, Note_on_c, 7, 64, 95
9, 212400, Note_on_c, 7, 67, 84
9, 212430, Note_on_c, 7, 67, 0
9, 212430, Note_on_c, 7, 61, 0
9, 212430, Note_on_c, 7, 64, 0
9, 212430, Note_on_c, 7, 57, 95
9, 212460, Note_on_c, 7, 57, 0
9, 212460, Note_on_c, 7, 61, 73
9, 212460, Note_on_c, 7, 67, 94
9, 212460, Note_on_c, 7, 64, 104
9, 212490, Note_on_c, 7, 64, 0
9, 212490, Note_on_c, 7, 61, 0
9, 212490, Note_on_c, 7, 76, 0
9, 212490, Note_on_c, 7, 79, 0
9, 212490, Note_on_c, 7, 85, 0
9, 212490, Note_on_c, 7, 67, 0
9, 212490, Note_on_c, 7, 81, 0
9, 212490, Note_on_c, 7, 45, 99
9, 212520, Note_on_c, 7, 45, 0
9, 212520, Control_c, 7, 64, 95
9, 212520, Note_on_c, 7, 49, 89
9, 212550, Note_on_c, 7, 49, 0
9, 212550, Note_on_c, 7, 52, 95
9, 212580, Note_on_c, 7, 52, 0
9, 212580, Note_on_c, 7, 55, 84
9, 212610, Note_on_c, 7, 55, 0
9, 212610, Note_on_c, 7, 57, 105
9, 212640, Note_on_c, 7, 57, 0
9, 212640, Note_on_c, 7, 61, 84
9, 212670, Note_on_c, 7, 61, 0
9, 212670, Note_on_c, 7, 64, 101
9, 212700, Note_on_c, 7, 64, 0
9, 212700, Note_on_c, 7, 61, 90
9, 212730, Note_on_c, 7, 61, 0
9, 212730, Note_on_c, 7, 67, 99
9, 212760, Note_on_c, 7, 67, 0
9, 212760, Note_on_c, 7, 64, 86
9, 212790, Note_on_c, 7, 64, 0
9, 212790, Note_on_c, 7, 69, 104
9, 212820, Note_on_c, 7, 69, 0
9, 212820, Note_on_c, 7, 67, 94
9, 212850, Note_on_c, 7, 67, 0
9, 212850, Note_on_c, 7, 73, 94
9, 212880, Note_on_c, 7, 73, 0
9, 212880, Note_on_c, 7, 69, 104
9, 212910, Note_on_c, 7, 69, 0
9, 212910, Note_on_c, 7, 76, 101
9, 212940, Note_on_c, 7, 76, 0
9, 212940, Note_on_c, 7, 73, 94
9, 212970, Note_on_c, 7, 73, 0
9, 212970, Note_on_c, 7, 79, 104
9, 213000, Note_on_c, 7, 79, 0
9, 213000, Note_on_c, 7, 76, 104
9, 213030, Note_on_c, 7, 76, 0
9, 213030, Note_on_c, 7, 81, 99
9, 213060, Note_on_c, 7, 81, 0
9, 213060, Note_on_c, 7, 79, 86
9, 213090, Note_on_c, 7, 79, 0
9, 213090, Note_on_c, 7, 88, 105
9, 213120, Note_on_c, 7, 88, 0
9, 213120, Note_on_c, 7, 85, 94
9, 213150, Note_on_c, 7, 85, 0
9, 213150, Note_on_c, 7, 81, 99
9, 213180, Note_on_c, 7, 81, 0
9, 213180, Note_on_c, 7, 79, 86
9, 213210, Note_on_c, 7, 79, 0
9, 213210, Note_on_c, 7, 76, 104
9, 213240, Note_on_c, 7, 76, 0
9, 213240, Note_on_c, 7, 73, 93
9, 213270, Note_on_c, 7, 73, 0
9, 213270, Note_on_c, 7, 69, 101
9, 213300, Note_on_c, 7, 69, 0
9, 213300, Note_on_c, 7, 67, 89
9, 213330, Note_on_c, 7, 67, 0
9, 213330, Note_on_c, 7, 64, 99
9, 213360, Note_on_c, 7, 64, 0
9, 213360, Note_on_c, 7, 61, 89
9, 213390, Note_on_c, 7, 61, 0
9, 213390, Note_on_c, 7, 57, 99
9, 213420, Note_on_c, 7, 57, 0
9, 213420, Note_on_c, 7, 55, 89
9, 213450, Note_on_c, 7, 55, 0
9, 213450, Note_on_c, 7, 52, 89
9, 213480, Note_on_c, 7, 52, 0
9, 213480, Note_on_c, 7, 49, 93
9, 213510, Note_on_c, 7, 49, 0
9, 213510, Note_on_c, 7, 45, 95
9, 213540, Note_on_c, 7, 45, 0
9, 213540, Note_on_c, 7, 55, 86
9, 213570, Note_on_c, 7, 55, 0
9, 213570, Note_on_c, 7, 52, 104
9, 213600, Note_on_c, 7, 52, 0
9, 213600, Note_on_c, 7, 49, 82
9, 213630, Note_on_c, 7, 49, 0
9, 213630, Note_on_c, 7, 45, 105
9, 213660, Note_on_c, 7, 45, 0
9, 213660, Note_on_c, 7, 43, 101
9, 213690, Note_on_c, 7, 43, 0
9, 213690, Note_on_c, 7, 40, 95
9, 213710, Control_c, 7, 64, 96
9, 213715, Control_c, 7, 64, 80
9, 213720, Note_on_c, 7, 40, 0
9, 213720, Control_c, 7, 64, 64
9, 213720, Note_on_c, 7, 37, 93
9, 213725, Control_c, 7, 64, 48
9, 213730, Control_c, 7, 64, 32
9, 213735, Control_c, 7, 64, 16
9, 213740, Control_c, 7, 64, 0
9, 213750, Note_on_c, 7, 37, 0
9, 213750, Note_on_c, 7, 33, 95
9, 213780, Note_on_c, 7, 33, 0
9, 213780, Note_on_c, 7, 74, 81
9, 213780, Note_on_c, 7, 78, 80
9, 213780, Note_on_c, 7, 86, 89
9, 213780, Note_on_c, 7, 62, 80
9, 213780, Note_on_c, 7, 81, 93
9, 213780, Note_on_c, 7, 57, 105
9, 213780, Note_on_c, 7, 54, 80
9, 213780, Note_on_c, 7, 50, 89
9, 214020, Note_on_c, 7, 50, 0
9, 214020, Note_on_c, 7, 74, 0
9, 214020, Note_on_c, 7, 81, 0
9, 214020, Note_on_c, 7, 78, 0
9, 214020, Note_on_c, 7, 86, 0
9, 214020, Note_on_c, 7, 62, 0
9, 214020, Note_on_c, 7, 57, 0
9, 214020, Note_on_c, 7, 54, 0
9, 214020, Note_on_c, 7, 78, 74
9, 214020, Note_on_c, 7, 90, 80
9, 214020, Note_on_c, 7, 57, 94
9, 214020, Note_on_c, 7, 62, 76
9, 214020, Note_on_c, 7, 50, 86
9, 214020, Note_on_c, 7, 81, 95
9, 214020, Note_on_c, 7, 86, 101
9, 214020, Note_on_c, 7, 54, 74
9, 214225, Control_c, 7, 64, 96
9, 214260, Note_on_c, 7, 54, 0
9, 214260, Note_on_c, 7, 78, 0
9, 214260, Note_on_c, 7, 50, 0
9, 214260, Note_on_c, 7, 90, 0
9, 214260, Note_on_c, 7, 57, 0
9, 214260, Note_on_c, 7, 62, 0
9, 214260, Note_on_c, 7, 81, 0
9, 214260, Note_on_c, 7, 86, 0
9, 214260, Note_on_c, 7, 38, 93
9, 214290, Note_on_c, 7, 38, 0
9, 214290, Note_on_c, 7, 42, 89
9, 214320, Note_on_c, 7, 42, 0
9, 214320, Note_on_c, 7, 45, 89
9, 214350, Note_on_c, 7, 45, 0
9, 214350, Note_on_c, 7, 50, 95
9, 214380, Note_on_c, 7, 50, 0
9, 214380, Note_on_c, 7, 54, 89
9, 214410, Note_on_c, 7, 54, 0
9, 214410, Note_on_c, 7, 57, 98
9, 214440, Note_on_c, 7, 57, 0
9, 214440, Note_on_c, 7, 62, 95
9, 214470, Note_on_c, 7, 62, 0
9, 214470, Note_on_c, 7, 66, 94
9, 214500, Note_on_c, 7, 66, 0
9, 214500, Note_on_c, 7, 69, 94
9, 214530, Note_on_c, 7, 69, 0
9, 214530, Note_on_c, 7, 66, 95
9, 214560, Note_on_c, 7, 66, 0
9, 214560, Note_on_c, 7, 74, 98
9, 214590, Note_on_c, 7, 74, 0
9, 214590, Note_on_c, 7, 69, 89
9, 214620, Note_on_c, 7, 69, 0
9, 214620, Note_on_c, 7, 78, 84
9, 214650, Note_on_c, 7, 78, 0
9, 214650, Note_on_c, 7, 74, 99
9, 214680, Note_on_c, 7, 74, 0
9, 214680, Note_on_c, 7, 81, 94
9, 214710, Note_on_c, 7, 81, 0
9, 214710, Note_on_c, 7, 78, 82
9, 214740, Note_on_c, 7, 78, 0
9, 214740, Note_on_c, 7, 86, 105
9, 214770, Note_on_c, 7, 86, 0
9, 214770, Note_on_c, 7, 81, 89
9, 214800, Note_on_c, 7, 81, 0
9, 214800, Note_on_c, 7, 90, 95
9, 214830, Note_on_c, 7, 90, 0
9, 214830, Note_on_c, 7, 86, 104
9, 214860, Note_on_c, 7, 86, 0
9, 214860, Note_on_c, 7, 93, 98
9, 214890, Note_on_c, 7, 93, 0
9, 214890, Note_on_c, 7, 90, 93
9, 214920, Note_on_c, 7, 90, 0
9, 214920, Note_on_c, 7, 86, 104
9, 214950, Note_on_c, 7, 86, 0
9, 214950, Note_on_c, 7, 81, 93
9, 214980, Note_on_c, 7, 81, 0
9, 214980, Note_on_c, 7, 78, 90
9, 215010, Note_on_c, 7, 78, 0
9, 215010, Note_on_c, 7, 74, 99
9, 215040, Note_on_c, 7, 74, 0
9, 215040, Note_on_c, 7, 69, 94
9, 215070, Note_on_c, 7, 69, 0
9, 215070, Note_on_c, 7, 66, 89
9, 215100, Note_on_c, 7, 66, 0
9, 215100, Note_on_c, 7, 62, 95
9, 215130, Note_on_c, 7, 62, 0
9, 215130, Note_on_c, 7, 57, 95
9, 215160, Note_on_c, 7, 57, 0
9, 215160, Note_on_c, 7, 54, 93
9, 215190, Note_on_c, 7, 54, 0
9, 215190, Note_on_c, 7, 50, 105
9, 215220, Note_on_c, 7, 50, 0
9, 215220, Note_on_c, 7, 45, 89
9, 215240, Control_c, 7, 64, 93
9, 215245, Control_c, 7, 64, 78
9, 215250, Note_on_c, 7, 45, 0
9, 215250, Control_c, 7, 64, 62
9, 215250, Note_on_c, 7, 42, 93
9, 215255, Control_c, 7, 64, 47
9, 215260, Control_c, 7, 64, 31
9, 215265, Control_c, 7, 64, 16
9, 215270, Control_c, 7, 64, 0
9, 215280, Note_on_c, 7, 42, 0
9, 215280, Note_on_c, 7, 45, 90
9, 215285, Control_c, 7, 64, 94
9, 215310, Note_on_c, 7, 45, 0
9, 215310, Note_on_c, 7, 38, 98
9, 215340, Note_on_c, 7, 38, 0
9, 215340, Note_on_c, 7, 42, 94
9, 215370, Note_on_c, 7, 42, 0
9, 215370, Note_on_c, 7, 45, 99
9, 215400, Note_on_c, 7, 45, 0
9, 215400, Note_on_c, 7, 48, 86
9, 215430, Note_on_c, 7, 48, 0
9, 215430, Note_on_c, 7, 50, 104
9, 215460, Note_on_c, 7, 50, 0
9, 215460, Note_on_c, 7, 54, 94
9, 215490, Note_on_c, 7, 54, 0
9, 215490, Note_on_c, 7, 57, 95
9, 215520, Note_on_c, 7, 57, 0
9, 215520, Note_on_c, 7, 54, 90
9, 215550, Note_on_c, 7, 54, 0
9, 215550, Note_on_c, 7, 60, 89
9, 215580, Note_on_c, 7, 60, 0
9, 215580, Note_on_c, 7, 57, 110
9, 215610, Note_on_c, 7, 57, 0
9, 215610, Note_on_c, 7, 62, 86
9, 215640, Note_on_c, 7, 62, 0
9, 215640, Note_on_c, 7, 60, 99
9, 215670, Note_on_c, 7, 60, 0
9, 215670, Note_on_c, 7, 66, 94
9, 215700, Note_on_c, 7, 66, 0
9, 215700, Note_on_c, 7, 62, 90
9, 215730, Note_on_c, 7, 62, 0
9, 215730, Note_on_c, 7, 69, 93
9, 215760, Note_on_c, 7, 69, 0
9, 215760, Note_on_c, 7, 66, 94
9, 215790, Note_on_c, 7, 66, 0
9, 215790, Note_on_c, 7, 72, 76
9, 215820, Note_on_c, 7, 72, 0
9, 215820, Note_on_c, 7, 69, 101
9, 215850, Note_on_c, 7, 69, 0
9, 215850, Note_on_c, 7, 74, 99
9, 215880, Note_on_c, 7, 74, 0
9, 215880, Note_on_c, 7, 72, 89
9, 215910, Note_on_c, 7, 72, 0
9, 215910, Note_on_c, 7, 78, 94
9, 215940, Note_on_c, 7, 78, 0
9, 215940, Note_on_c, 7, 74, 95
9, 215970, Note_on_c, 7, 74, 0
9, 215970, Note_on_c, 7, 81, 99
9, 216000, Note_on_c, 7, 81, 0
9, 216000, Note_on_c, 7, 78, 94
9, 216030, Note_on_c, 7, 78, 0
9, 216030, Note_on_c, 7, 84, 94
9, 216060, Note_on_c, 7, 84, 0
9, 216060, Note_on_c, 7, 81, 89
9, 216090, Note_on_c, 7, 81, 0
9, 216090, Note_on_c, 7, 86, 105
9, 216120, Note_on_c, 7, 86, 0
9, 216120, Note_on_c, 7, 84, 89
9, 216150, Note_on_c, 7, 84, 0
9, 216150, Note_on_c, 7, 90, 95
9, 216180, Note_on_c, 7, 90, 0
9, 216180, Note_on_c, 7, 86, 105
9, 216210, Note_on_c, 7, 86, 0
9, 216210, Note_on_c, 7, 93, 99
9, 216240, Note_on_c, 7, 93, 0
9, 216240, Note_on_c, 7, 90, 94
9, 216270, Note_on_c, 7, 90, 0
9, 216270, Note_on_c, 7, 86, 99
9, 216300, Note_on_c, 7, 86, 0
9, 216300, Note_on_c, 7, 84, 89
9, 216330, Note_on_c, 7, 84, 0
9, 216330, Note_on_c, 7, 81, 99
9, 216360, Note_on_c, 7, 81, 0
9, 216360, Note_on_c, 7, 78, 84
9, 216390, Note_on_c, 7, 78, 0
9, 216390, Note_on_c, 7, 74, 95
9, 216420, Note_on_c, 7, 74, 0
9, 216420, Note_on_c, 7, 72, 89
9, 216450, Note_on_c, 7, 72, 0
9, 216450, Note_on_c, 7, 69, 89
9, 216480, Note_on_c, 7, 69, 0
9, 216480, Note_on_c, 7, 66, 94
9, 216510, Note_on_c, 7, 66, 0
9, 216510, Note_on_c, 7, 62, 98
9, 216540, Note_on_c, 7, 62, 0
9, 216540, Note_on_c, 7, 60, 86
9, 216570, Note_on_c, 7, 60, 0
9, 216570, Note_on_c, 7, 57, 104
9, 216600, Note_on_c, 7, 57, 0
9, 216600, Note_on_c, 7, 54, 94
9, 216630, Note_on_c, 7, 54, 0
9, 216630, Note_on_c, 7, 50, 93
9, 216660, Note_on_c, 7, 50, 0
9, 216660, Note_on_c, 7, 48, 98
9, 216690, Note_on_c, 7, 48, 0
9, 216690, Note_on_c, 7, 45, 101
9, 216720, Note_on_c, 7, 45, 0
9, 216720, Note_on_c, 7, 42, 95
9, 216750, Note_on_c, 7, 42, 0
9, 216750, Note_on_c, 7, 38, 101
9, 216780, Note_on_c, 7, 38, 0
9, 216780, Note_on_c, 7, 50, 105
9, 216810, Note_on_c, 7, 50, 0
9, 216810, Note_on_c, 7, 54, 85
9, 216840, Note_on_c, 7, 54, 0
9, 216840, Note_on_c, 7, 57, 85
9, 216870, Note_on_c, 7, 57, 0
9, 216870, Note_on_c, 7, 74, 81
9, 216900, Note_on_c, 7, 74, 0
9, 216900, Note_on_c, 7, 81, 69
9, 216930, Note_on_c, 7, 81, 0
9, 216930, Note_on_c, 7, 78, 59
9, 216960, Note_on_c, 7, 78, 0
9, 216960, Note_on_c, 7, 84, 61
9, 216990, Note_on_c, 7, 84, 0
9, 216990, Note_on_c, 7, 81, 62
9, 217020, Note_on_c, 7, 81, 0
9, 217020, Note_on_c, 7, 86, 69
9, 217050, Note_on_c, 7, 86, 0
9, 217050, Note_on_c, 7, 84, 73
9, 217080, Note_on_c, 7, 84, 0
9, 217080, Note_on_c, 7, 81, 64
9, 217110, Note_on_c, 7, 81, 0
9, 217110, Note_on_c, 7, 78, 78
9, 217140, Note_on_c, 7, 78, 0
9, 217140, Note_on_c, 7, 74, 80
9, 217170, Note_on_c, 7, 74, 0
9, 217170, Note_on_c, 7, 38, 67
9, 217200, Note_on_c, 7, 38, 0
9, 217200, Note_on_c, 7, 50, 61
9, 217230, Note_on_c, 7, 50, 0
9, 217230, Note_on_c, 7, 54, 68
9, 217260, Note_on_c, 7, 54, 0
9, 217260, Note_on_c, 7, 57, 71
9, 217290, Note_on_c, 7, 57, 0
9, 217290, Note_on_c, 7, 74, 77
9, 217320, Note_on_c, 7, 74, 0
9, 217320, Note_on_c, 7, 78, 67
9, 217350, Note_on_c, 7, 78, 0
9, 217350, Note_on_c, 7, 81, 69
9, 217380, Note_on_c, 7, 81, 0
9, 217380, Note_on_c, 7, 78, 62
9, 217410, Note_on_c, 7, 78, 0
9, 217410, Note_on_c, 7, 84, 69
9, 217440, Note_on_c, 7, 84, 0
9, 217440, Note_on_c, 7, 81, 67
9, 217470, Note_on_c, 7, 81, 0
9, 217470, Note_on_c, 7, 86, 54
9, 217500, Note_on_c, 7, 86, 0
9, 217500, Note_on_c, 7, 84, 69
9, 217525, Control_c, 7, 64, 96
9, 217530, Note_on_c, 7, 84, 0
9, 217530, Control_c, 7, 64, 77
9, 217530, Note_on_c, 7, 81, 62
9, 217535, Control_c, 7, 64, 58
9, 217540, Control_c, 7, 64, 39
9, 217545, Control_c, 7, 64, 20
9, 217550, Control_c, 7, 64, 0
9, 217560, Note_on_c, 7, 81, 0
9, 217560, Note_on_c, 7, 78, 68
9, 217575, Control_c, 7, 64, 96
9, 217590, Note_on_c, 7, 78, 0
9, 217590, Note_on_c, 7, 74, 78
9, 217620, Note_on_c, 7, 74, 0
9, 217620, Note_on_c, 7, 38, 73
9, 217650, Note_on_c, 7, 38, 0
9, 217650, Note_on_c, 7, 50, 80
9, 217680, Note_on_c, 7, 50, 0
9, 217680, Note_on_c, 7, 55, 76
9, 217710, Note_on_c, 7, 55, 0
9, 217710, Note_on_c, 7, 59, 72
9, 217740, Note_on_c, 7, 59, 0
9, 217740, Note_on_c, 7, 74, 78
9, 217770, Note_on_c, 7, 74, 0
9, 217770, Note_on_c, 7, 79, 76
9, 217800, Note_on_c, 7, 79, 0
9, 217800, Note_on_c, 7, 83, 67
9, 217830, Note_on_c, 7, 83, 0
9, 217830, Note_on_c, 7, 79, 66
9, 217860, Note_on_c, 7, 79, 0
9, 217860, Note_on_c, 7, 86, 53
9, 217890, Note_on_c, 7, 86, 0
9, 217890, Note_on_c, 7, 83, 84
9, 217920, Note_on_c, 7, 83, 0
9, 217920, Note_on_c, 7, 79, 76
9, 217950, Note_on_c, 7, 79, 0
9, 217950, Note_on_c, 7, 74, 76
9, 217980, Note_on_c, 7, 74, 0
9, 217980, Note_on_c, 7, 38, 77
9, 218010, Note_on_c, 7, 38, 0
9, 218010, Note_on_c, 7, 50, 74
9, 218040, Note_on_c, 7, 50, 0
9, 218040, Note_on_c, 7, 55, 69
9, 218070, Note_on_c, 7, 55, 0
9, 218070, Note_on_c, 7, 59, 73
9, 218100, Note_on_c, 7, 59, 0
9, 218100, Note_on_c, 7, 74, 81
9, 218130, Note_on_c, 7, 74, 0
9, 218130, Note_on_c, 7, 79, 73
9, 218160, Note_on_c, 7, 79, 0
9, 218160, Note_on_c, 7, 83, 74
9, 218190, Note_on_c, 7, 83, 0
9, 218190, Note_on_c, 7, 79, 74
9, 218220, Note_on_c, 7, 79, 0
9, 218220, Note_on_c, 7, 86, 72
9, 218245, Control_c, 7, 64, 96
9, 218250, Note_on_c, 7, 86, 0
9, 218250, Control_c, 7, 64, 72
9, 218250, Note_on_c, 7, 83, 65
9, 218255, Control_c, 7, 64, 48
9, 218260, Control_c, 7, 64, 24
9, 218265, Control_c, 7, 64, 0
9, 218280, Note_on_c, 7, 83, 0
9, 218280, Note_on_c, 7, 79, 60
9, 218285, Control_c, 7, 64, 96
9, 218310, Note_on_c, 7, 79, 0
9, 218310, Note_on_c, 7, 74, 62
9, 218340, Note_on_c, 7, 74, 0
9, 218340, Note_on_c, 7, 38, 40
9, 218370, Note_on_c, 7, 38, 0
9, 218370, Note_on_c, 7, 50, 51
9, 218400, Note_on_c, 7, 50, 0
9, 218400, Note_on_c, 7, 54, 47
9, 218430, Note_on_c, 7, 54, 0
9, 218430, Note_on_c, 7, 57, 62
9, 218460, Note_on_c, 7, 57, 0
9, 218460, Note_on_c, 7, 60, 61
9, 218490, Note_on_c, 7, 60, 0
9, 218490, Note_on_c, 7, 74, 73
9, 218520, Note_on_c, 7, 74, 0
9, 218520, Note_on_c, 7, 78, 48
9, 218550, Note_on_c, 7, 78, 0
9, 218550, Note_on_c, 7, 81, 53
9, 218580, Note_on_c, 7, 81, 0
9, 218580, Note_on_c, 7, 78, 53
9, 218610, Note_on_c, 7, 78, 0
9, 218610, Note_on_c, 7, 74, 55
9, 218640, Note_on_c, 7, 74, 0
9, 218640, Note_on_c, 7, 78, 64
9, 218670, Note_on_c, 7, 78, 0
9, 218670, Note_on_c, 7, 81, 57
9, 218700, Note_on_c, 7, 81, 0
9, 218700, Note_on_c, 7, 84, 56
9, 218730, Note_on_c, 7, 84, 0
9, 218730, Note_on_c, 7, 81, 58
9, 218760, Note_on_c, 7, 81, 0
9, 218760, Note_on_c, 7, 78, 59
9, 218790, Note_on_c, 7, 78, 0
9, 218790, Note_on_c, 7, 81, 74
9, 218820, Note_on_c, 7, 81, 0
9, 218820, Note_on_c, 7, 84, 77
9, 218850, Note_on_c, 7, 84, 0
9, 218850, Note_on_c, 7, 86, 80
9, 218880, Note_on_c, 7, 86, 0
9, 218880, Note_on_c, 7, 84, 77
9, 218910, Note_on_c, 7, 84, 0
9, 218910, Note_on_c, 7, 81, 72
9, 218940, Note_on_c, 7, 81, 0
9, 218940, Note_on_c, 7, 84, 73
9, 218970, Note_on_c, 7, 84, 0
9, 218970, Note_on_c, 7, 86, 73
9, 219000, Note_on_c, 7, 86, 0
9, 219000, Note_on_c, 7, 90, 72
9, 219030, Note_on_c, 7, 90, 0
9, 219030, Note_on_c, 7, 86, 70
9, 219060, Note_on_c, 7, 86, 0
9, 219060, Note_on_c, 7, 84, 72
9, 219090, Note_on_c, 7, 84, 0
9, 219090, Note_on_c, 7, 86, 72
9, 219120, Note_on_c, 7, 86, 0
9, 219120, Note_on_c, 7, 90, 74
9, 219150, Note_on_c, 7, 90, 0
9, 219150, Note_on_c, 7, 93, 69
9, 219180, Note_on_c, 7, 93, 0
9, 219180, Note_on_c, 7, 90, 76
9, 219210, Note_on_c, 7, 90, 0
9, 219210, Note_on_c, 7, 86, 74
9, 219240, Note_on_c, 7, 86, 0
9, 219240, Control_c, 7, 64, 96
9, 219240, Note_on_c, 7, 90, 72
9, 219245, Control_c, 7, 64, 86
9, 219250, Control_c, 7, 64, 75
9, 219255, Control_c, 7, 64, 64
9, 219260, Control_c, 7, 64, 54
9, 219265, Control_c, 7, 64, 43
9, 219270, Note_on_c, 7, 90, 0
9, 219270, Control_c, 7, 64, 32
9, 219270, Note_on_c, 7, 93, 69
9, 219275, Control_c, 7, 64, 22
9, 219280, Control_c, 7, 64, 11
9, 219285, Control_c, 7, 64, 0
9, 219300, Note_on_c, 7, 93, 0
9, 219300, Note_on_c, 7, 96, 76
9, 219330, Note_on_c, 7, 96, 0
9, 219330, Note_on_c, 7, 95, 67
9, 219360, Note_on_c, 7, 95, 0
9, 219360, Note_on_c, 7, 93, 80
9, 219390, Note_on_c, 7, 93, 0
9, 219390, Note_on_c, 7, 91, 69
9, 219420, Note_on_c, 7, 91, 0
9, 219420, Note_on_c, 7, 90, 73
9, 219450, Note_on_c, 7, 90, 0
9, 219450, Note_on_c, 7, 93, 76
9, 219480, Note_on_c, 7, 93, 0
9, 219480, Note_on_c, 7, 91, 86
9, 219510, Note_on_c, 7, 91, 0
9, 219510, Note_on_c, 7, 90, 80
9, 219540, Note_on_c, 7, 90, 0
9, 219540, Note_on_c, 7, 88, 84
9, 219570, Note_on_c, 7, 88, 0
9, 219570, Note_on_c, 7, 86, 78
9, 219600, Note_on_c, 7, 86, 0
9, 219600, Note_on_c, 7, 84, 63
9, 219630, Note_on_c, 7, 84, 0
9, 219630, Note_on_c, 7, 83, 69
9, 219660, Note_on_c, 7, 83, 0
9, 219660, Note_on_c, 7, 86, 74
9, 219690, Note_on_c, 7, 86, 0
9, 219690, Note_on_c, 7, 84, 71
9, 219720, Note_on_c, 7, 84, 0
9, 219720, Note_on_c, 7, 83, 71
9, 219750, Note_on_c, 7, 83, 0
9, 219750, Note_on_c, 7, 81, 73
9, 219780, Note_on_c, 7, 81, 0
9, 219780, Note_on_c, 7, 84, 73
9, 219810, Note_on_c, 7, 84, 0
9, 219810, Note_on_c, 7, 83, 72
9, 219840, Note_on_c, 7, 83, 0
9, 219840, Note_on_c, 7, 81, 74
9, 219870, Note_on_c, 7, 81, 0
9, 219870, Note_on_c, 7, 79, 72
9, 219900, Note_on_c, 7, 79, 0
9, 219900, Note_on_c, 7, 78, 68
9, 219930, Note_on_c, 7, 78, 0
9, 219930, Note_on_c, 7, 81, 74
9, 219960, Note_on_c, 7, 81, 0
9, 219960, Note_on_c, 7, 79, 77
9, 219990, Note_on_c, 7, 79, 0
9, 219990, Note_on_c, 7, 78, 71
9, 220020, Note_on_c, 7, 78, 0
9, 220020, Note_on_c, 7, 76, 85
9, 220050, Note_on_c, 7, 76, 0
9, 220050, Note_on_c, 7, 74, 84
9, 220080, Note_on_c, 7, 74, 0
9, 220080, Note_on_c, 7, 73, 44
9, 220110, Note_on_c, 7, 73, 0
9, 220110, Note_on_c, 7, 76, 71
9, 220140, Note_on_c, 7, 76, 0
9, 220140, Note_on_c, 7, 74, 68
9, 220170, Note_on_c, 7, 74, 0
9, 220170, Note_on_c, 7, 73, 69
9, 220200, Note_on_c, 7, 73, 0
9, 220200, Note_on_c, 7, 74, 73
9, 220230, Note_on_c, 7, 74, 0
9, 220230, Note_on_c, 7, 75, 73
9, 220260, Note_on_c, 7, 75, 0
9, 220260, Note_on_c, 7, 76, 73
9, 220290, Note_on_c, 7, 76, 0
9, 220290, Note_on_c, 7, 77, 72
9, 220320, Note_on_c, 7, 77, 0
9, 220320, Note_on_c, 7, 78, 65
9, 220350, Note_on_c, 7, 78, 0
9, 220350, Note_on_c, 7, 79, 67
9, 220380, Note_on_c, 7, 79, 0
9, 220380, Note_on_c, 7, 80, 64
9, 220410, Note_on_c, 7, 80, 0
9, 220410, Note_on_c, 7, 81, 76
9, 220440, Note_on_c, 7, 81, 0
9, 220440, Note_on_c, 7, 82, 71
9, 220470, Note_on_c, 7, 82, 0
9, 220470, Note_on_c, 7, 83, 73
9, 220500, Note_on_c, 7, 83, 0
9, 220500, Note_on_c, 7, 84, 73
9, 220530, Note_on_c, 7, 84, 0
9, 220530, Note_on_c, 7, 85, 71
9, 220560, Note_on_c, 7, 85, 0
9, 220560, Note_on_c, 7, 86, 99
9, 220590, Note_on_c, 7, 86, 0
9, 220590, Note_on_c, 7, 88, 101
9, 220620, Note_on_c, 7, 88, 0
9, 220620, Note_on_c, 7, 86, 99
9, 220640, Note_on_c, 7, 86, 0
9, 220640, Note_on_c, 7, 88, 101
9, 220660, Note_on_c, 7, 88, 0
9, 220660, Note_on_c, 7, 86, 104
9, 220680, Note_on_c, 7, 86, 0
9, 220680, Note_on_c, 7, 88, 95
9, 220700, Note_on_c, 7, 88, 0
9, 220700, Note_on_c, 7, 86, 99
9, 220720, Note_on_c, 7, 86, 0
9, 220720, Note_on_c, 7, 88, 99
9, 220740, Note_on_c, 7, 88, 0
9, 220740, Note_on_c, 7, 86, 99
9, 220760, Note_on_c, 7, 86, 0
9, 220760, Note_on_c, 7, 88, 99
9, 220780, Note_on_c, 7, 88, 0
9, 220780, Note_on_c, 7, 86, 104
9, 220800, Note_on_c, 7, 86, 0
9, 220800, Note_on_c, 7, 88, 95
9, 220820, Note_on_c, 7, 88, 0
9, 220820, Note_on_c, 7, 86, 101
9, 220840, Note_on_c, 7, 86, 0
9, 220840, Note_on_c, 7, 88, 99
9, 220860, Note_on_c, 7, 88, 0
9, 220860, Note_on_c, 7, 86, 99
9, 220880, Note_on_c, 7, 86, 0
9, 220880, Note_on_c, 7, 88, 99
9, 220900, Note_on_c, 7, 88, 0
9, 220900, Note_on_c, 7, 86, 105
9, 220920, Note_on_c, 7, 86, 0
9, 220920, Note_on_c, 7, 88, 99
9, 220940, Note_on_c, 7, 88, 0
9, 220940, Note_on_c, 7, 86, 99
9, 220960, Note_on_c, 7, 86, 0
9, 220960, Note_on_c, 7, 88, 99
9, 220980, Note_on_c, 7, 88, 0
9, 220980, Note_on_c, 7, 86, 99
9, 221000, Note_on_c, 7, 86, 0
9, 221000, Note_on_c, 7, 88, 95
9, 221020, Note_on_c, 7, 88, 0
9, 221020, Note_on_c, 7, 86, 99
9, 221040, Note_on_c, 7, 86, 0
9, 221040, Note_on_c, 7, 88, 95
9, 221060, Note_on_c, 7, 88, 0
9, 221060, Note_on_c, 7, 86, 99
9, 221080, Note_on_c, 7, 86, 0
9, 221080, Note_on_c, 7, 88, 95
9, 221100, Note_on_c, 7, 88, 0
9, 221100, Note_on_c, 7, 85, 85
9, 221120, Note_on_c, 7, 85, 0
9, 221120, Note_on_c, 7, 86, 95
9, 221140, Note_on_c, 7, 86, 0
9, 221140, Note_on_c, 7, 85, 84
9, 221160, Note_on_c, 7, 85, 0
9, 221160, Note_on_c, 7, 86, 101
9, 221180, Note_on_c, 7, 86, 0
9, 221180, Note_on_c, 7, 85, 84
9, 221200, Note_on_c, 7, 85, 0
9, 221200, Note_on_c, 7, 86, 99
9, 221220, Note_on_c, 7, 86, 0
9, 221220, Note_on_c, 7, 85, 84
9, 221240, Note_on_c, 7, 85, 0
9, 221240, Note_on_c, 7, 86, 101
9, 221260, Note_on_c, 7, 86, 0
9, 221260, Note_on_c, 7, 85, 85
9, 221280, Note_on_c, 7, 85, 0
9, 221280, Note_on_c, 7, 86, 101
9, 221300, Note_on_c, 7, 86, 0
9, 221300, Note_on_c, 7, 85, 86
9, 221320, Note_on_c, 7, 85, 0
9, 221320, Note_on_c, 7, 86, 101
9, 221340, Note_on_c, 7, 86, 0
9, 221340, Note_on_c, 7, 84, 89
9, 221360, Note_on_c, 7, 84, 0
9, 221360, Note_on_c, 7, 86, 99
9, 221380, Note_on_c, 7, 86, 0
9, 221380, Note_on_c, 7, 84, 94
9, 221400, Note_on_c, 7, 84, 0
9, 221400, Note_on_c, 7, 86, 98
9, 221420, Note_on_c, 7, 86, 0
9, 221420, Note_on_c, 7, 84, 94
9, 221440, Note_on_c, 7, 84, 0
9, 221440, Note_on_c, 7, 86, 99
9, 221460, Note_on_c, 7, 86, 0
9, 221460, Note_on_c, 7, 84, 93
9, 221480, Note_on_c, 7, 84, 0
9, 221480, Note_on_c, 7, 86, 95
9, 221500, Note_on_c, 7, 86, 0
9, 221500, Note_on_c, 7, 84, 93
9, 221520, Note_on_c, 7, 84, 0
9, 221520, Note_on_c, 7, 86, 95
9, 221540, Note_on_c, 7, 86, 0
9, 221540, Note_on_c, 7, 84, 86
9, 221560, Note_on_c, 7, 84, 0
9, 221560, Note_on_c, 7, 86, 99
9, 221580, Note_on_c, 7, 86, 0
9, 221580, Note_on_c, 7, 83, 99
9, 221640, Note_on_c, 7, 83, 0
9, 221640, Note_on_c, 7, 86, 101
9, 221700, Note_on_c, 7, 86, 0
9, 221700, Note_on_c, 7, 84, 90
9, 221760, Note_on_c, 7, 84, 0
9, 221760, Note_on_c, 7, 55, 95
9, 221760, Note_on_c, 7, 83, 95
9, 221820, Note_on_c, 7, 55, 0
9, 221820, Note_on_c, 7, 62, 89
9, 221880, Note_on_c, 7, 62, 0
9, 221880, Note_on_c, 7, 67, 86
9, 221940, Note_on_c, 7, 67, 0
9, 221940, Note_on_c, 7, 62, 93
9, 222000, Note_on_c, 7, 62, 0
9, 222000, Note_on_c, 7, 83, 0
9, 222000, Note_on_c, 7, 60, 94
9, 222000, Note_on_c, 7, 81, 94
9, 222060, Note_on_c, 7, 81, 0
9, 222060, Note_on_c, 7, 60, 0
9, 222060, Note_on_c, 7, 62, 94
9, 222060, Note_on_c, 7, 83, 99
9, 222120, Note_on_c, 7, 83, 0
9, 222120, Note_on_c, 7, 62, 0
9, 222120, Note_on_c, 7, 66, 85
9, 222120, Note_on_c, 7, 84, 89
9, 222180, Note_on_c, 7, 84, 0
9, 222180, Note_on_c, 7, 66, 0
9, 222180, Note_on_c, 7, 62, 101
9, 222180, Note_on_c, 7, 81, 99
9, 222240, Note_on_c, 7, 81, 0
9, 222240, Note_on_c, 7, 62, 0
9, 222240, Note_on_c, 7, 59, 101
9, 222240, Note_on_c, 7, 79, 99
9, 222300, Note_on_c, 7, 59, 0
9, 222300, Note_on_c, 7, 62, 85
9, 222360, Note_on_c, 7, 62, 0
9, 222360, Note_on_c, 7, 58, 89
9, 222420, Note_on_c, 7, 58, 0
9, 222420, Note_on_c, 7, 62, 86
9, 222480, Note_on_c, 7, 62, 0
9, 222480, Note_on_c, 7, 79, 0
9, 222480, Note_on_c, 7, 59, 86
9, 222480, Note_on_c, 7, 74, 105
9, 222540, Note_on_c, 7, 59, 0
9, 222540, Note_on_c, 7, 62, 82
9, 222600, Note_on_c, 7, 62, 0
9, 222600, Note_on_c, 7, 55, 89
9, 222660, Note_on_c, 7, 55, 0
9, 222660, Note_on_c, 7, 74, 0
9, 222660, Note_on_c, 7, 62, 86
9, 222660, Note_on_c, 7, 79, 95
9, 222720, Note_on_c, 7, 79, 0
9, 222720, Note_on_c, 7, 62, 0
9, 222720, Note_on_c, 7, 54, 89
9, 222720, Note_on_c, 7, 69, 90
9, 222720, Note_on_c, 7, 74, 104
9, 222720, Note_on_c, 7, 81, 73
9, 222780, Note_on_c, 7, 54, 0
9, 222780, Note_on_c, 7, 62, 89
9, 222840, Note_on_c, 7, 62, 0
9, 222840, Note_on_c, 7, 81, 0
9, 222840, Note_on_c, 7, 74, 0
9, 222840, Note_on_c, 7, 69, 0
9, 222840, Note_on_c, 7, 53, 94
9, 222840, Note_on_c, 7, 81, 85
9, 222840, Note_on_c, 7, 69, 90
9, 222840, Note_on_c, 7, 74, 105
9, 222900, Note_on_c, 7, 53, 0
9, 222900, Note_on_c, 7, 62, 84
9, 222960, Note_on_c, 7, 62, 0
9, 222960, Note_on_c, 7, 74, 0
9, 222960, Note_on_c, 7, 69, 0
9, 222960, Note_on_c, 7, 81, 0
9, 222960, Note_on_c, 7, 54, 94
9, 222960, Note_on_c, 7, 81, 89
9, 222960, Note_on_c, 7, 69, 89
9, 222960, Note_on_c, 7, 74, 105
9, 223020, Note_on_c, 7, 54, 0
9, 223020, Note_on_c, 7, 62, 89
9, 223080, Note_on_c, 7, 62, 0
9, 223080, Note_on_c, 7, 74, 0
9, 223080, Note_on_c, 7, 69, 0
9, 223080, Note_on_c, 7, 81, 0
9, 223080, Note_on_c, 7, 50, 101
9, 223080, Note_on_c, 7, 82, 86
9, 223080, Note_on_c, 7, 70, 89
9, 223080, Note_on_c, 7, 74, 107
9, 223140, Note_on_c, 7, 50, 0
9, 223140, Note_on_c, 7, 62, 89
9, 223200, Note_on_c, 7, 62, 0
9, 223200, Note_on_c, 7, 74, 0
9, 223200, Note_on_c, 7, 70, 0
9, 223200, Note_on_c, 7, 82, 0
9, 223200, Note_on_c, 7, 55, 95
9, 223200, Note_on_c, 7, 82, 81
9, 223200, Note_on_c, 7, 70, 94
9, 223200, Note_on_c, 7, 74, 107
9, 223200, Note_on_c, 7, 55, 94
9, 223260, Note_on_c, 7, 55, 0
9, 223260, Note_on_c, 7, 62, 95
9, 223320, Note_on_c, 7, 62, 0
9, 223320, Note_on_c, 7, 66, 84
9, 223380, Note_on_c, 7, 66, 0
9, 223380, Note_on_c, 7, 62, 99
9, 223440, Note_on_c, 7, 62, 0
9, 223440, Note_on_c, 7, 82, 0
9, 223440, Note_on_c, 7, 74, 0
9, 223440, Note_on_c, 7, 70, 0
9, 223440, Note_on_c, 7, 67, 89
9, 223440, Note_on_c, 7, 83, 84
9, 223440, Note_on_c, 7, 71, 95
9, 223440, Note_on_c, 7, 74, 104
9, 223500, Note_on_c, 7, 67, 0
9, 223500, Note_on_c, 7, 62, 94
9, 223560, Note_on_c, 7, 62, 0
9, 223560, Note_on_c, 7, 74, 0
9, 223560, Note_on_c, 7, 55, 0
9, 223560, Note_on_c, 7, 83, 0
9, 223560, Note_on_c, 7, 71, 0
9, 223560, Note_on_c, 7, 67, 93
9, 223620, Note_on_c, 7, 67, 0
9, 223620, Note_on_c, 7, 65, 98
9, 223620, Note_on_c, 7, 79, 95
9, 223680, Note_on_c, 7, 79, 0
9, 223680, Note_on_c, 7, 65, 0
9, 223680, Note_on_c, 7, 64, 95
9, 223680, Note_on_c, 7, 84, 89
9, 223680, Note_on_c, 7, 72, 58
9, 223680, Note_on_c, 7, 79, 99
9, 223680, Note_on_c, 7, 64, 95
9, 223740, Note_on_c, 7, 64, 0
9, 223740, Note_on_c, 7, 66, 84
9, 223800, Note_on_c, 7, 66, 0
9, 223800, Note_on_c, 7, 67, 86
9, 223860, Note_on_c, 7, 67, 0
9, 223860, Note_on_c, 7, 66, 94
9, 223920, Note_on_c, 7, 66, 0
9, 223920, Note_on_c, 7, 64, 0
9, 223920, Note_on_c, 7, 84, 0
9, 223920, Note_on_c, 7, 72, 0
9, 223920, Note_on_c, 7, 79, 0
9, 223920, Note_on_c, 7, 67, 85
9, 223920, Note_on_c, 7, 79, 89
9, 223920, Note_on_c, 7, 71, 89
9, 223920, Note_on_c, 7, 83, 89
9, 223920, Note_on_c, 7, 62, 90
9, 223980, Note_on_c, 7, 67, 0
9, 223980, Note_on_c, 7, 66, 89
9, 224040, Note_on_c, 7, 66, 0
9, 224040, Note_on_c, 7, 79, 0
9, 224040, Note_on_c, 7, 83, 0
9, 224040, Note_on_c, 7, 71, 0
9, 224040, Note_on_c, 7, 67, 86
9, 224100, Note_on_c, 7, 67, 0
9, 224100, Note_on_c, 7, 66, 93
9, 224100, Note_on_c, 7, 79, 99
9, 224160, Note_on_c, 7, 79, 0
9, 224160, Note_on_c, 7, 66, 0
9, 224160, Note_on_c, 7, 62, 0
9, 224160, Note_on_c, 7, 64, 104
9, 224160, Note_on_c, 7, 88, 93
9, 224160, Note_on_c, 7, 79, 99
9, 224160, Note_on_c, 7, 76, 89
9, 224160, Note_on_c, 7, 60, 95
9, 224220, Note_on_c, 7, 64, 0
9, 224220, Note_on_c, 7, 66, 81
9, 224280, Note_on_c, 7, 66, 0
9, 224280, Note_on_c, 7, 67, 86
9, 224340, Note_on_c, 7, 67, 0
9, 224340, Note_on_c, 7, 66, 86
9, 224400, Note_on_c, 7, 66, 0
9, 224400, Note_on_c, 7, 60, 0
9, 224400, Note_on_c, 7, 88, 0
9, 224400, Note_on_c, 7, 79, 0
9, 224400, Note_on_c, 7, 76, 0
9, 224400, Note_on_c, 7, 67, 86
9, 224400, Note_on_c, 7, 86, 90
9, 224400, Note_on_c, 7, 74, 94
9, 224400, Note_on_c, 7, 79, 94
9, 224400, Note_on_c, 7, 59, 99
9, 224460, Note_on_c, 7, 67, 0
9, 224460, Note_on_c, 7, 66, 89
9, 224520, Note_on_c, 7, 66, 0
9, 224520, Note_on_c, 7, 86, 0
9, 224520, Note_on_c, 7, 79, 0
9, 224520, Note_on_c, 7, 74, 0
9, 224520, Note_on_c, 7, 67, 80
9, 224520, Note_on_c, 7, 86, 94
9, 224520, Note_on_c, 7, 74, 99
9, 224580, Note_on_c, 7, 67, 0
9, 224580, Note_on_c, 7, 66, 85
9, 224640, Note_on_c, 7, 66, 0
9, 224640, Note_on_c, 7, 74, 0
9, 224640, Note_on_c, 7, 86, 0
9, 224640, Note_on_c, 7, 59, 0
9, 224640, Note_on_c, 7, 67, 94
9, 224640, Note_on_c, 7, 73, 94
9, 224640, Note_on_c, 7, 85, 85
9, 224640, Note_on_c, 7, 57, 105
9, 224700, Note_on_c, 7, 67, 0
9, 224700, Note_on_c, 7, 69, 86
9, 224760, Note_on_c, 7, 69, 0
9, 224760, Note_on_c, 7, 57, 0
9, 224760, Note_on_c, 7, 85, 0
9, 224760, Note_on_c, 7, 73, 0
9, 224760, Note_on_c, 7, 66, 93
9, 224760, Note_on_c, 7, 72, 72
9, 224760, Note_on_c, 7, 84, 90
9, 224760, Note_on_c, 7, 62, 94
9, 224820, Note_on_c, 7, 66, 0
9, 224820, Note_on_c, 7, 69, 94
9, 224880, Note_on_c, 7, 69, 0
9, 224880, Note_on_c, 7, 62, 0
9, 224880, Note_on_c, 7, 84, 0
9, 224880, Note_on_c, 7, 72, 0
9, 224880, Note_on_c, 7, 62, 99
9, 224880, Note_on_c, 7, 71, 98
9, 224880, Note_on_c, 7, 83, 94
9, 224880, Note_on_c, 7, 55, 89
9, 224940, Note_on_c, 7, 62, 0
9, 224940, Note_on_c, 7, 69, 90
9, 225000, Note_on_c, 7, 69, 0
9, 225000, Note_on_c, 7, 55, 0
9, 225000, Note_on_c, 7, 83, 0
9, 225000, Note_on_c, 7, 71, 0
9, 225000, Note_on_c, 7, 64, 94
9, 225000, Note_on_c, 7, 88, 89
9, 225000, Note_on_c, 7, 76, 99
9, 225000, Note_on_c, 7, 60, 95
9, 225060, Note_on_c, 7, 64, 0
9, 225060, Note_on_c, 7, 69, 95
9, 225120, Note_on_c, 7, 69, 0
9, 225120, Note_on_c, 7, 60, 0
9, 225120, Note_on_c, 7, 76, 0
9, 225120, Note_on_c, 7, 88, 0
9, 225120, Note_on_c, 7, 79, 99
9, 225120, Note_on_c, 7, 71, 104
9, 225120, Note_on_c, 7, 62, 94
9, 225180, Note_on_c, 7, 79, 0
9, 225180, Note_on_c, 7, 83, 95
9, 225240, Note_on_c, 7, 83, 0
9, 225240, Note_on_c, 7, 71, 0
9, 225240, Note_on_c, 7, 81, 99
9, 225240, Note_on_c, 7, 73, 89
9, 225270, Note_on_c, 7, 81, 0
9, 225300, Note_on_c, 7, 79, 94
9, 225330, Note_on_c, 7, 79, 0
9, 225360, Note_on_c, 7, 73, 0
9, 225360, Note_on_c, 7, 78, 99
9, 225360, Note_on_c, 7, 74, 105
9, 225420, Note_on_c, 7, 78, 0
9, 225420, Note_on_c, 7, 88, 95
9, 225480, Note_on_c, 7, 88, 0
9, 225480, Note_on_c, 7, 74, 0
9, 225480, Note_on_c, 7, 62, 0
9, 225480, Note_on_c, 7, 86, 105
9, 225510, Note_on_c, 7, 86, 0
9, 225540, Note_on_c, 7, 84, 101
9, 225570, Note_on_c, 7, 84, 0
9, 225600, Note_on_c, 7, 55, 94
9, 225600, Note_on_c, 7, 83, 89
9, 225600, Note_on_c, 7, 71, 94
9, 225630, Note_on_c, 7, 55, 0
9, 225630, Note_on_c, 7, 62, 95
9, 225660, Note_on_c, 7, 62, 0
9, 225660, Note_on_c, 7, 67, 86
9, 225690, Note_on_c, 7, 67, 0
9, 225690, Note_on_c, 7, 62, 94
9, 225720, Note_on_c, 7, 62, 0
9, 225720, Note_on_c, 7, 67, 86
9, 225750, Note_on_c, 7, 67, 0
9, 225750, Note_on_c, 7, 62, 95
9, 225780, Note_on_c, 7, 62, 0
9, 225780, Note_on_c, 7, 67, 84
9, 225810, Note_on_c, 7, 67, 0
9, 225810, Note_on_c, 7, 62, 94
9, 225840, Note_on_c, 7, 62, 0
9, 225840, Note_on_c, 7, 71, 0
9, 225840, Note_on_c, 7, 83, 0
9, 225840, Note_on_c, 7, 60, 93
9, 225840, Note_on_c, 7, 69, 90
9, 225840, Note_on_c, 7, 81, 89
9, 225870, Note_on_c, 7, 60, 0
9, 225870, Note_on_c, 7, 62, 99
9, 225900, Note_on_c, 7, 62, 0
9, 225900, Note_on_c, 7, 81, 0
9, 225900, Note_on_c, 7, 69, 0
9, 225900, Note_on_c, 7, 66, 84
9, 225900, Note_on_c, 7, 71, 93
9, 225900, Note_on_c, 7, 83, 85
9, 225930, Note_on_c, 7, 66, 0
9, 225930, Note_on_c, 7, 62, 98
9, 225960, Note_on_c, 7, 62, 0
9, 225960, Note_on_c, 7, 83, 0
9, 225960, Note_on_c, 7, 71, 0
9, 225960, Note_on_c, 7, 66, 84
9, 225960, Note_on_c, 7, 84, 89
9, 225960, Note_on_c, 7, 72, 73
9, 225990, Note_on_c, 7, 66, 0
9, 225990, Note_on_c, 7, 62, 99
9, 226020, Note_on_c, 7, 62, 0
9, 226020, Note_on_c, 7, 72, 0
9, 226020, Note_on_c, 7, 84, 0
9, 226020, Note_on_c, 7, 66, 84
9, 226020, Note_on_c, 7, 69, 104
9, 226020, Note_on_c, 7, 81, 95
9, 226050, Note_on_c, 7, 66, 0
9, 226050, Note_on_c, 7, 62, 98
9, 226080, Note_on_c, 7, 62, 0
9, 226080, Note_on_c, 7, 81, 0
9, 226080, Note_on_c, 7, 69, 0
9, 226080, Note_on_c, 7, 59, 99
9, 226080, Note_on_c, 7, 74, 101
9, 226080, Note_on_c, 7, 86, 94
9, 226110, Note_on_c, 7, 59, 0
9, 226110, Note_on_c, 7, 62, 98
9, 226140, Note_on_c, 7, 62, 0
9, 226140, Note_on_c, 7, 67, 86
9, 226170, Note_on_c, 7, 67, 0
9, 226170, Note_on_c, 7, 62, 95
9, 226200, Note_on_c, 7, 62, 0
9, 226200, Note_on_c, 7, 67, 86
9, 226230, Note_on_c, 7, 67, 0
9, 226230, Note_on_c, 7, 62, 94
9, 226260, Note_on_c, 7, 62, 0
9, 226260, Note_on_c, 7, 67, 85
9, 226290, Note_on_c, 7, 67, 0
9, 226290, Note_on_c, 7, 62, 98
9, 226320, Note_on_c, 7, 62, 0
9, 226320, Note_on_c, 7, 86, 0
9, 226320, Note_on_c, 7, 74, 0
9, 226320, Note_on_c, 7, 55, 90
9, 226320, Note_on_c, 7, 77, 93
9, 226320, Note_on_c, 7, 89, 89
9, 226320, Note_on_c, 7, 80, 67
9, 226350, Note_on_c, 7, 55, 0
9, 226350, Note_on_c, 7, 62, 95
9, 226380, Note_on_c, 7, 62, 0
9, 226380, Note_on_c, 7, 65, 95
9, 226410, Note_on_c, 7, 65, 0
9, 226410, Note_on_c, 7, 62, 98
9, 226440, Note_on_c, 7, 62, 0
9, 226440, Note_on_c, 7, 65, 95
9, 226470, Note_on_c, 7, 65, 0
9, 226470, Note_on_c, 7, 62, 95
9, 226500, Note_on_c, 7, 62, 0
9, 226500, Note_on_c, 7, 80, 0
9, 226500, Note_on_c, 7, 89, 0
9, 226500, Note_on_c, 7, 77, 0
9, 226500, Note_on_c, 7, 65, 89
9, 226500, Note_on_c, 7, 74, 105
9, 226530, Note_on_c, 7, 65, 0
9, 226530, Note_on_c, 7, 62, 98
9, 226560, Note_on_c, 7, 62, 0
9, 226560, Note_on_c, 7, 74, 0
9, 226560, Note_on_c, 7, 48, 99
9, 226560, Note_on_c, 7, 75, 101
9, 226560, Note_on_c, 7, 87, 93
9, 226590, Note_on_c, 7, 48, 0
9, 226590, Note_on_c, 7, 55, 95
9, 226620, Note_on_c, 7, 55, 0
9, 226620, Note_on_c, 7, 60, 89
9, 226650, Note_on_c, 7, 60, 0
9, 226650, Note_on_c, 7, 55, 94
9, 226680, Note_on_c, 7, 55, 0
9, 226680, Note_on_c, 7, 60, 94
9, 226710, Note_on_c, 7, 60, 0
9, 226710, Note_on_c, 7, 55, 90
9, 226740, Note_on_c, 7, 55, 0
9, 226740, Note_on_c, 7, 60, 84
9, 226770, Note_on_c, 7, 60, 0
9, 226770, Note_on_c, 7, 55, 95
9, 226800, Note_on_c, 7, 55, 0
9, 226800, Note_on_c, 7, 87, 0
9, 226800, Note_on_c, 7, 75, 0
9, 226800, Note_on_c, 7, 53, 89
9, 226800, Note_on_c, 7, 74, 94
9, 226830, Note_on_c, 7, 53, 0
9, 226830, Note_on_c, 7, 55, 95
9, 226860, Note_on_c, 7, 55, 0
9, 226860, Note_on_c, 7, 74, 0
9, 226860, Note_on_c, 7, 59, 93
9, 226860, Note_on_c, 7, 75, 81
9, 226890, Note_on_c, 7, 59, 0
9, 226890, Note_on_c, 7, 55, 94
9, 226920, Note_on_c, 7, 55, 0
9, 226920, Note_on_c, 7, 75, 0
9, 226920, Note_on_c, 7, 59, 90
9, 226920, Note_on_c, 7, 77, 94
9, 226950, Note_on_c, 7, 59, 0
9, 226950, Note_on_c, 7, 55, 94
9, 226980, Note_on_c, 7, 55, 0
9, 226980, Note_on_c, 7, 77, 0
9, 226980, Note_on_c, 7, 59, 90
9, 226980, Note_on_c, 7, 74, 98
9, 227010, Note_on_c, 7, 59, 0
9, 227010, Note_on_c, 7, 55, 99
9, 227040, Note_on_c, 7, 55, 0
9, 227040, Note_on_c, 7, 74, 0
9, 227040, Note_on_c, 7, 51, 94
9, 227040, Note_on_c, 7, 79, 99
9, 227070, Note_on_c, 7, 51, 0
9, 227070, Note_on_c, 7, 55, 89
9, 227100, Note_on_c, 7, 55, 0
9, 227100, Note_on_c, 7, 60, 89
9, 227100, Note_on_c, 7, 67, 90
9, 227130, Note_on_c, 7, 67, 0
9, 227130, Note_on_c, 7, 60, 0
9, 227130, Note_on_c, 7, 55, 95
9, 227130, Note_on_c, 7, 68, 94
9, 227160, Note_on_c, 7, 68, 0
9, 227160, Note_on_c, 7, 55, 0
9, 227160, Note_on_c, 7, 60, 89
9, 227160, Note_on_c, 7, 67, 93
9, 227190, Note_on_c, 7, 67, 0
9, 227190, Note_on_c, 7, 60, 0
9, 227190, Note_on_c, 7, 55, 95
9, 227190, Note_on_c, 7, 68, 90
9, 227220, Note_on_c, 7, 68, 0
9, 227220, Note_on_c, 7, 55, 0
9, 227220, Note_on_c, 7, 60, 89
9, 227220, Note_on_c, 7, 67, 98
9, 227250, Note_on_c, 7, 67, 0
9, 227250, Note_on_c, 7, 60, 0
9, 227250, Note_on_c, 7, 55, 98
9, 227250, Note_on_c, 7, 68, 94
9, 227280, Note_on_c, 7, 68, 0
9, 227280, Note_on_c, 7, 55, 0
9, 227280, Note_on_c, 7, 79, 0
9, 227280, Note_on_c, 7, 50, 105
9, 227280, Note_on_c, 7, 77, 99
9, 227280, Note_on_c, 7, 67, 94
9, 227310, Note_on_c, 7, 50, 0
9, 227310, Note_on_c, 7, 55, 99
9, 227340, Note_on_c, 7, 55, 0
9, 227340, Note_on_c, 7, 67, 0
9, 227340, Note_on_c, 7, 59, 90
9, 227340, Note_on_c, 7, 67, 95
9, 227370, Note_on_c, 7, 67, 0
9, 227370, Note_on_c, 7, 59, 0
9, 227370, Note_on_c, 7, 55, 94
9, 227370, Note_on_c, 7, 68, 95
9, 227400, Note_on_c, 7, 68, 0
9, 227400, Note_on_c, 7, 55, 0
9, 227400, Note_on_c, 7, 59, 89
9, 227400, Note_on_c, 7, 67, 95
9, 227430, Note_on_c, 7, 67, 0
9, 227430, Note_on_c, 7, 59, 0
9, 227430, Note_on_c, 7, 68, 94
9, 227430, Note_on_c, 7, 55, 94
9, 227460, Note_on_c, 7, 55, 0
9, 227460, Note_on_c, 7, 68, 0
9, 227460, Note_on_c, 7, 59, 84
9, 227460, Note_on_c, 7, 67, 94
9, 227490, Note_on_c, 7, 67, 0
9, 227490, Note_on_c, 7, 59, 0
9, 227490, Note_on_c, 7, 55, 89
9, 227490, Note_on_c, 7, 68, 94
9, 227520, Note_on_c, 7, 68, 0
9, 227520, Note_on_c, 7, 55, 0
9, 227520, Note_on_c, 7, 77, 0
9, 227520, Note_on_c, 7, 48, 99
9, 227520, Note_on_c, 7, 75, 99
9, 227520, Note_on_c, 7, 67, 85
9, 227550, Note_on_c, 7, 48, 0
9, 227550, Note_on_c, 7, 55, 94
9, 227580, Note_on_c, 7, 55, 0
9, 227580, Note_on_c, 7, 60, 89
9, 227610, Note_on_c, 7, 60, 0
9, 227610, Note_on_c, 7, 55, 94
9, 227640, Note_on_c, 7, 55, 0
9, 227640, Note_on_c, 7, 67, 0
9, 227640, Note_on_c, 7, 60, 89
9, 227670, Note_on_c, 7, 60, 0
9, 227670, Note_on_c, 7, 55, 94
9, 227700, Note_on_c, 7, 55, 0
9, 227700, Note_on_c, 7, 60, 89
9, 227730, Note_on_c, 7, 60, 0
9, 227730, Note_on_c, 7, 55, 95
9, 227760, Note_on_c, 7, 55, 0
9, 227760, Note_on_c, 7, 75, 0
9, 227760, Note_on_c, 7, 53, 90
9, 227760, Note_on_c, 7, 74, 105
9, 227790, Note_on_c, 7, 53, 0
9, 227790, Note_on_c, 7, 55, 94
9, 227820, Note_on_c, 7, 55, 0
9, 227820, Note_on_c, 7, 74, 0
9, 227820, Note_on_c, 7, 59, 89
9, 227820, Note_on_c, 7, 75, 99
9, 227850, Note_on_c, 7, 59, 0
9, 227850, Note_on_c, 7, 55, 94
9, 227880, Note_on_c, 7, 55, 0
9, 227880, Note_on_c, 7, 75, 0
9, 227880, Note_on_c, 7, 59, 89
9, 227880, Note_on_c, 7, 77, 89
9, 227910, Note_on_c, 7, 59, 0
9, 227910, Note_on_c, 7, 55, 93
9, 227940, Note_on_c, 7, 55, 0
9, 227940, Note_on_c, 7, 77, 0
9, 227940, Note_on_c, 7, 59, 89
9, 227940, Note_on_c, 7, 74, 99
9, 227970, Note_on_c, 7, 59, 0
9, 227970, Note_on_c, 7, 55, 95
9, 228000, Note_on_c, 7, 55, 0
9, 228000, Note_on_c, 7, 74, 0
9, 228000, Note_on_c, 7, 79, 95
9, 228000, Note_on_c, 7, 51, 94
9, 228030, Note_on_c, 7, 51, 0
9, 228030, Note_on_c, 7, 55, 99
9, 228060, Note_on_c, 7, 55, 0
9, 228060, Note_on_c, 7, 60, 89
9, 228060, Note_on_c, 7, 84, 93
9, 228090, Note_on_c, 7, 84, 0
9, 228090, Note_on_c, 7, 60, 0
9, 228090, Note_on_c, 7, 55, 95
9, 228090, Note_on_c, 7, 85, 77
9, 228120, Note_on_c, 7, 85, 0
9, 228120, Note_on_c, 7, 55, 0
9, 228120, Note_on_c, 7, 60, 89
9, 228120, Note_on_c, 7, 84, 86
9, 228150, Note_on_c, 7, 84, 0
9, 228150, Note_on_c, 7, 60, 0
9, 228150, Note_on_c, 7, 55, 94
9, 228150, Note_on_c, 7, 85, 84
9, 228180, Note_on_c, 7, 85, 0
9, 228180, Note_on_c, 7, 55, 0
9, 228180, Note_on_c, 7, 60, 85
9, 228180, Note_on_c, 7, 84, 90
9, 228210, Note_on_c, 7, 84, 0
9, 228210, Note_on_c, 7, 60, 0
9, 228210, Note_on_c, 7, 55, 94
9, 228210, Note_on_c, 7, 85, 89
9, 228240, Note_on_c, 7, 85, 0
9, 228240, Note_on_c, 7, 55, 0
9, 228240, Note_on_c, 7, 79, 0
9, 228240, Note_on_c, 7, 52, 98
9, 228240, Note_on_c, 7, 79, 99
9, 228240, Note_on_c, 7, 82, 94
9, 228270, Note_on_c, 7, 52, 0
9, 228270, Note_on_c, 7, 55, 98
9, 228300, Note_on_c, 7, 55, 0
9, 228300, Note_on_c, 7, 82, 0
9, 228300, Note_on_c, 7, 60, 84
9, 228300, Note_on_c, 7, 84, 89
9, 228330, Note_on_c, 7, 84, 0
9, 228330, Note_on_c, 7, 60, 0
9, 228330, Note_on_c, 7, 55, 94
9, 228330, Note_on_c, 7, 85, 82
9, 228360, Note_on_c, 7, 85, 0
9, 228360, Note_on_c, 7, 55, 0
9, 228360, Note_on_c, 7, 60, 86
9, 228360, Note_on_c, 7, 84, 90
9, 228390, Note_on_c, 7, 84, 0
9, 228390, Note_on_c, 7, 60, 0
9, 228390, Note_on_c, 7, 55, 93
9, 228390, Note_on_c, 7, 85, 82
9, 228420, Note_on_c, 7, 85, 0
9, 228420, Note_on_c, 7, 55, 0
9, 228420, Note_on_c, 7, 60, 86
9, 228420, Note_on_c, 7, 84, 85
9, 228450, Note_on_c, 7, 84, 0
9, 228450, Note_on_c, 7, 60, 0
9, 228450, Note_on_c, 7, 55, 95
9, 228450, Note_on_c, 7, 85, 89
9, 228480, Note_on_c, 7, 85, 0
9, 228480, Note_on_c, 7, 55, 0
9, 228480, Note_on_c, 7, 79, 0
9, 228480, Note_on_c, 7, 60, 89
9, 228480, Note_on_c, 7, 56, 85
9, 228480, Note_on_c, 7, 53, 89
9, 228480, Note_on_c, 7, 80, 94
9, 228520, Note_on_c, 7, 80, 0
9, 228520, Note_on_c, 7, 84, 95
9, 228560, Note_on_c, 7, 84, 0
9, 228560, Note_on_c, 7, 77, 89
9, 228600, Note_on_c, 7, 77, 0
9, 228600, Note_on_c, 7, 60, 0
9, 228600, Note_on_c, 7, 56, 0
9, 228600, Note_on_c, 7, 53, 0
9, 228600, Note_on_c, 7, 80, 95
9, 228640, Note_on_c, 7, 80, 0
9, 228640, Note_on_c, 7, 84, 95
9, 228680, Note_on_c, 7, 84, 0
9, 228680, Note_on_c, 7, 77, 84
9, 228720, Note_on_c, 7, 77, 0
9, 228720, Note_on_c, 7, 60, 82
9, 228720, Note_on_c, 7, 56, 89
9, 228720, Note_on_c, 7, 53, 90
9, 228720, Note_on_c, 7, 84, 99
9, 228760, Note_on_c, 7, 84, 0
9, 228760, Note_on_c, 7, 89, 105
9, 228800, Note_on_c, 7, 89, 0
9, 228800, Note_on_c, 7, 80, 89
9, 228840, Note_on_c, 7, 80, 0
9, 228840, Note_on_c, 7, 60, 0
9, 228840, Note_on_c, 7, 56, 0
9, 228840, Note_on_c, 7, 53, 0
9, 228840, Note_on_c, 7, 84, 104
9, 228880, Note_on_c, 7, 84, 0
9, 228880, Note_on_c, 7, 89, 105
9, 228920, Note_on_c, 7, 89, 0
9, 228920, Note_on_c, 7, 80, 89
9, 228960, Note_on_c, 7, 80, 0
9, 228960, Note_on_c, 7, 60, 90
9, 228960, Note_on_c, 7, 58, 82
9, 228960, Note_on_c, 7, 55, 84
9, 228960, Note_on_c, 7, 48, 93
9, 228960, Note_on_c, 7, 88, 105
9, 229000, Note_on_c, 7, 88, 0
9, 229000, Note_on_c, 7, 91, 98
9, 229040, Note_on_c, 7, 91, 0
9, 229040, Note_on_c, 7, 84, 89
9, 229080, Note_on_c, 7, 84, 0
9, 229080, Note_on_c, 7, 55, 0
9, 229080, Note_on_c, 7, 60, 0
9, 229080, Note_on_c, 7, 58, 0
9, 229080, Note_on_c, 7, 48, 0
9, 229080, Note_on_c, 7, 60, 82
9, 229080, Note_on_c, 7, 58, 77
9, 229080, Note_on_c, 7, 55, 76
9, 229080, Note_on_c, 7, 48, 98
9, 229080, Note_on_c, 7, 88, 105
9, 229120, Note_on_c, 7, 88, 0
9, 229120, Note_on_c, 7, 91, 101
9, 229160, Note_on_c, 7, 91, 0
9, 229160, Note_on_c, 7, 84, 89
9, 229200, Note_on_c, 7, 84, 0
9, 229200, Note_on_c, 7, 55, 0
9, 229200, Note_on_c, 7, 60, 0
9, 229200, Note_on_c, 7, 58, 0
9, 229200, Note_on_c, 7, 48, 0
9, 229200, Note_on_c, 7, 60, 84
9, 229200, Note_on_c, 7, 58, 82
9, 229200, Note_on_c, 7, 55, 80
9, 229200, Note_on_c, 7, 48, 98
9, 229200, Note_on_c, 7, 82, 95
9, 229240, Note_on_c, 7, 82, 0
9, 229240, Note_on_c, 7, 84, 99
9, 229280, Note_on_c, 7, 84, 0
9, 229280, Note_on_c, 7, 79, 94
9, 229320, Note_on_c, 7, 79, 0
9, 229320, Note_on_c, 7, 55, 0
9, 229320, Note_on_c, 7, 60, 0
9, 229320, Note_on_c, 7, 58, 0
9, 229320, Note_on_c, 7, 48, 0
9, 229320, Note_on_c, 7, 82, 95
9, 229360, Note_on_c, 7, 82, 0
9, 229360, Note_on_c, 7, 84, 95
9, 229400, Note_on_c, 7, 84, 0
9, 229400, Note_on_c, 7, 79, 89
9, 229440, Note_on_c, 7, 79, 0
9, 229440, Note_on_c, 7, 60, 84
9, 229440, Note_on_c, 7, 56, 93
9, 229440, Note_on_c, 7, 53, 90
9, 229440, Note_on_c, 7, 80, 94
9, 229480, Note_on_c, 7, 80, 0
9, 229480, Note_on_c, 7, 84, 95
9, 229520, Note_on_c, 7, 84, 0
9, 229520, Note_on_c, 7, 77, 86
9, 229560, Note_on_c, 7, 77, 0
9, 229560, Note_on_c, 7, 60, 0
9, 229560, Note_on_c, 7, 56, 0
9, 229560, Note_on_c, 7, 53, 0
9, 229560, Note_on_c, 7, 80, 99
9, 229600, Note_on_c, 7, 80, 0
9, 229600, Note_on_c, 7, 84, 98
9, 229640, Note_on_c, 7, 84, 0
9, 229640, Note_on_c, 7, 77, 84
9, 229680, Note_on_c, 7, 77, 0
9, 229680, Note_on_c, 7, 65, 82
9, 229680, Note_on_c, 7, 60, 98
9, 229680, Note_on_c, 7, 56, 85
9, 229680, Note_on_c, 7, 53, 81
9, 229680, Note_on_c, 7, 80, 77
9, 229720, Note_on_c, 7, 80, 0
9, 229720, Note_on_c, 7, 89, 105
9, 229760, Note_on_c, 7, 89, 0
9, 229760, Note_on_c, 7, 77, 89
9, 229800, Note_on_c, 7, 77, 0
9, 229800, Note_on_c, 7, 56, 0
9, 229800, Note_on_c, 7, 65, 0
9, 229800, Note_on_c, 7, 60, 0
9, 229800, Note_on_c, 7, 53, 0
9, 229800, Note_on_c, 7, 80, 89
9, 229840, Note_on_c, 7, 80, 0
9, 229840, Note_on_c, 7, 89, 104
9, 229880, Note_on_c, 7, 89, 0
9, 229880, Note_on_c, 7, 77, 89
9, 229920, Note_on_c, 7, 77, 0
9, 229920, Note_on_c, 7, 59, 90
9, 229920, Note_on_c, 7, 65, 89
9, 229920, Note_on_c, 7, 55, 94
9, 229920, Note_on_c, 7, 86, 104
9, 229960, Note_on_c, 7, 86, 0
9, 229960, Note_on_c, 7, 89, 104
9, 230000, Note_on_c, 7, 89, 0
9, 230000, Note_on_c, 7, 83, 89
9, 230040, Note_on_c, 7, 83, 0
9, 230040, Note_on_c, 7, 59, 0
9, 230040, Note_on_c, 7, 65, 0
9, 230040, Note_on_c, 7, 55, 0
9, 230040, Note_on_c, 7, 65, 47
9, 230040, Note_on_c, 7, 55, 80
9, 230040, Note_on_c, 7, 62, 84
9, 230040, Note_on_c, 7, 59, 94
9, 230040, Note_on_c, 7, 86, 104
9, 230080, Note_on_c, 7, 86, 0
9, 230080, Note_on_c, 7, 89, 101
9, 230120, Note_on_c, 7, 89, 0
9, 230120, Note_on_c, 7, 83, 89
9, 230160, Note_on_c, 7, 83, 0
9, 230160, Note_on_c, 7, 62, 0
9, 230160, Note_on_c, 7, 65, 0
9, 230160, Note_on_c, 7, 55, 0
9, 230160, Note_on_c, 7, 59, 0
9, 230160, Note_on_c, 7, 65, 76
9, 230160, Note_on_c, 7, 55, 81
9, 230160, Note_on_c, 7, 62, 89
9, 230160, Note_on_c, 7, 59, 94
9, 230160, Note_on_c, 7, 77, 94
9, 230200, Note_on_c, 7, 77, 0
9, 230200, Note_on_c, 7, 79, 95
9, 230240, Note_on_c, 7, 79, 0
9, 230240, Note_on_c, 7, 74, 95
9, 230280, Note_on_c, 7, 74, 0
9, 230280, Note_on_c, 7, 62, 0
9, 230280, Note_on_c, 7, 65, 0
9, 230280, Note_on_c, 7, 55, 0
9, 230280, Note_on_c, 7, 59, 0
9, 230280, Note_on_c, 7, 77, 95
9, 230320, Note_on_c, 7, 77, 0
9, 230320, Note_on_c, 7, 79, 95
9, 230360, Note_on_c, 7, 79, 0
9, 230360, Note_on_c, 7, 74, 98
9, 230400, Note_on_c, 7, 74, 0
9, 230400, Note_on_c, 7, 48, 89
9, 230400, Note_on_c, 7, 55, 93
9, 230400, Note_on_c, 7, 60, 77
9, 230400, Note_on_c, 7, 51, 90
9, 230400, Note_on_c, 7, 75, 90
9, 230440, Note_on_c, 7, 75, 0
9, 230440, Note_on_c, 7, 79, 95
9, 230480, Note_on_c, 7, 79, 0
9, 230480, Note_on_c, 7, 72, 65
9, 230520, Note_on_c, 7, 72, 0
9, 230520, Note_on_c, 7, 60, 0
9, 230520, Note_on_c, 7, 48, 0
9, 230520, Note_on_c, 7, 55, 0
9, 230520, Note_on_c, 7, 51, 0
9, 230520, Note_on_c, 7, 75, 99
9, 230560, Note_on_c, 7, 75, 0
9, 230560, Note_on_c, 7, 79, 95
9, 230600, Note_on_c, 7, 79, 0
9, 230600, Note_on_c, 7, 72, 71
9, 230640, Note_on_c, 7, 72, 0
9, 230640, Note_on_c, 7, 48, 89
9, 230640, Note_on_c, 7, 60, 85
9, 230640, Note_on_c, 7, 55, 93
9, 230640, Note_on_c, 7, 51, 89
9, 230640, Note_on_c, 7, 79, 90
9, 230680, Note_on_c, 7, 79, 0
9, 230680, Note_on_c, 7, 84, 95
9, 230720, Note_on_c, 7, 84, 0
9, 230720, Note_on_c, 7, 75, 89
9, 230760, Note_on_c, 7, 75, 0
9, 230760, Note_on_c, 7, 55, 0
9, 230760, Note_on_c, 7, 48, 0
9, 230760, Note_on_c, 7, 60, 0
9, 230760, Note_on_c, 7, 51, 0
9, 230760, Note_on_c, 7, 79, 98
9, 230800, Note_on_c, 7, 79, 0
9, 230800, Note_on_c, 7, 84, 101
9, 230840, Note_on_c, 7, 84, 0
9, 230840, Note_on_c, 7, 75, 89
9, 230880, Note_on_c, 7, 75, 0
9, 230880, Note_on_c, 7, 59, 94
9, 230880, Note_on_c, 7, 62, 86
9, 230880, Note_on_c, 7, 55, 94
9, 230880, Note_on_c, 7, 83, 98
9, 230920, Note_on_c, 7, 83, 0
9, 230920, Note_on_c, 7, 86, 104
9, 230960, Note_on_c, 7, 86, 0
9, 230960, Note_on_c, 7, 79, 89
9, 231000, Note_on_c, 7, 79, 0
9, 231000, Note_on_c, 7, 59, 0
9, 231000, Note_on_c, 7, 62, 0
9, 231000, Note_on_c, 7, 55, 0
9, 231000, Note_on_c, 7, 59, 98
9, 231000, Note_on_c, 7, 62, 84
9, 231000, Note_on_c, 7, 55, 93
9, 231000, Note_on_c, 7, 83, 99
9, 231040, Note_on_c, 7, 83, 0
9, 231040, Note_on_c, 7, 86, 99
9, 231080, Note_on_c, 7, 86, 0
9, 231080, Note_on_c, 7, 79, 89
9, 231120, Note_on_c, 7, 79, 0
9, 231120, Note_on_c, 7, 59, 0
9, 231120, Note_on_c, 7, 62, 0
9, 231120, Note_on_c, 7, 55, 0
9, 231120, Note_on_c, 7, 62, 89
9, 231120, Note_on_c, 7, 55, 98
9, 231120, Note_on_c, 7, 59, 101
9, 231120, Note_on_c, 7, 77, 90
9, 231160, Note_on_c, 7, 77, 0
9, 231160, Note_on_c, 7, 79, 95
9, 231200, Note_on_c, 7, 79, 0
9, 231200, Note_on_c, 7, 74, 95
9, 231240, Note_on_c, 7, 74, 0
9, 231240, Note_on_c, 7, 62, 0
9, 231240, Note_on_c, 7, 55, 0
9, 231240, Note_on_c, 7, 59, 0
9, 231240, Note_on_c, 7, 77, 94
9, 231280, Note_on_c, 7, 77, 0
9, 231280, Note_on_c, 7, 79, 99
9, 231320, Note_on_c, 7, 79, 0
9, 231320, Note_on_c, 7, 74, 99
9, 231360, Note_on_c, 7, 74, 0
9, 231360, Note_on_c, 7, 60, 84
9, 231360, Note_on_c, 7, 48, 84
9, 231360, Note_on_c, 7, 51, 89
9, 231360, Note_on_c, 7, 55, 94
9, 231360, Note_on_c, 7, 75, 104
9, 231400, Note_on_c, 7, 75, 0
9, 231400, Note_on_c, 7, 79, 99
9, 231440, Note_on_c, 7, 79, 0
9, 231440, Note_on_c, 7, 72, 69
9, 231480, Note_on_c, 7, 72, 0
9, 231480, Note_on_c, 7, 51, 0
9, 231480, Note_on_c, 7, 60, 0
9, 231480, Note_on_c, 7, 48, 0
9, 231480, Note_on_c, 7, 55, 0
9, 231480, Note_on_c, 7, 75, 93
9, 231520, Note_on_c, 7, 75, 0
9, 231520, Note_on_c, 7, 79, 99
9, 231560, Note_on_c, 7, 79, 0
9, 231560, Note_on_c, 7, 72, 69
9, 231600, Note_on_c, 7, 72, 0
9, 231600, Note_on_c, 7, 60, 90
9, 231600, Note_on_c, 7, 51, 89
9, 231600, Note_on_c, 7, 48, 89
9, 231600, Note_on_c, 7, 55, 99
9, 231600, Note_on_c, 7, 79, 94
9, 231640, Note_on_c, 7, 79, 0
9, 231640, Note_on_c, 7, 84, 94
9, 231680, Note_on_c, 7, 84, 0
9, 231680, Note_on_c, 7, 75, 90
9, 231720, Note_on_c, 7, 75, 0
9, 231720, Note_on_c, 7, 48, 0
9, 231720, Note_on_c, 7, 60, 0
9, 231720, Note_on_c, 7, 51, 0
9, 231720, Note_on_c, 7, 55, 0
9, 231720, Note_on_c, 7, 79, 98
9, 231760, Note_on_c, 7, 79, 0
9, 231760, Note_on_c, 7, 84, 94
9, 231800, Note_on_c, 7, 84, 0
9, 231800, Note_on_c, 7, 75, 89
9, 231840, Note_on_c, 7, 75, 0
9, 231840, Note_on_c, 7, 55, 81
9, 231840, Note_on_c, 7, 43, 82
9, 231840, Note_on_c, 7, 50, 99
9, 231840, Note_on_c, 7, 47, 95
9, 231840, Note_on_c, 7, 83, 94
9, 231880, Note_on_c, 7, 83, 0
9, 231880, Note_on_c, 7, 86, 99
9, 231920, Note_on_c, 7, 86, 0
9, 231920, Note_on_c, 7, 79, 89
9, 231960, Note_on_c, 7, 79, 0
9, 231960, Note_on_c, 7, 50, 0
9, 231960, Note_on_c, 7, 55, 0
9, 231960, Note_on_c, 7, 43, 0
9, 231960, Note_on_c, 7, 47, 0
9, 231960, Note_on_c, 7, 55, 80
9, 231960, Note_on_c, 7, 43, 80
9, 231960, Note_on_c, 7, 50, 99
9, 231960, Note_on_c, 7, 47, 94
9, 231960, Note_on_c, 7, 83, 95
9, 232000, Note_on_c, 7, 83, 0
9, 232000, Note_on_c, 7, 86, 101
9, 232040, Note_on_c, 7, 86, 0
9, 232040, Note_on_c, 7, 79, 86
9, 232080, Note_on_c, 7, 79, 0
9, 232080, Note_on_c, 7, 50, 0
9, 232080, Note_on_c, 7, 55, 0
9, 232080, Note_on_c, 7, 43, 0
9, 232080, Note_on_c, 7, 47, 0
9, 232080, Note_on_c, 7, 55, 81
9, 232080, Note_on_c, 7, 43, 84
9, 232080, Note_on_c, 7, 47, 94
9, 232080, Note_on_c, 7, 50, 99
9, 232080, Note_on_c, 7, 77, 95
9, 232120, Note_on_c, 7, 77, 0
9, 232120, Note_on_c, 7, 79, 93
9, 232160, Note_on_c, 7, 79, 0
9, 232160, Note_on_c, 7, 74, 95
9, 232200, Note_on_c, 7, 74, 0
9, 232200, Note_on_c, 7, 47, 0
9, 232200, Note_on_c, 7, 55, 0
9, 232200, Note_on_c, 7, 43, 0
9, 232200, Note_on_c, 7, 50, 0
9, 232200, Note_on_c, 7, 43, 89
9, 232200, Note_on_c, 7, 55, 90
9, 232200, Note_on_c, 7, 47, 93
9, 232200, Note_on_c, 7, 50, 101
9, 232200, Note_on_c, 7, 77, 95
9, 232240, Note_on_c, 7, 77, 0
9, 232240, Note_on_c, 7, 79, 95
9, 232280, Note_on_c, 7, 79, 0
9, 232280, Note_on_c, 7, 74, 94
9, 232320, Note_on_c, 7, 74, 0
9, 232320, Note_on_c, 7, 47, 0
9, 232320, Note_on_c, 7, 43, 0
9, 232320, Note_on_c, 7, 55, 0
9, 232320, Note_on_c, 7, 50, 0
9, 232320, Note_on_c, 7, 36, 99
9, 232320, Note_on_c, 7, 48, 99
9, 232320, Note_on_c, 7, 75, 99
9, 232360, Note_on_c, 7, 75, 0
9, 232360, Note_on_c, 7, 79, 99
9, 232400, Note_on_c, 7, 79, 0
9, 232400, Note_on_c, 7, 72, 64
9, 232440, Note_on_c, 7, 72, 0
9, 232440, Note_on_c, 7, 48, 0
9, 232440, Note_on_c, 7, 36, 0
9, 232440, Note_on_c, 7, 39, 99
9, 232440, Note_on_c, 7, 51, 89
9, 232440, Note_on_c, 7, 75, 99
9, 232480, Note_on_c, 7, 75, 0
9, 232480, Note_on_c, 7, 84, 99
9, 232520, Note_on_c, 7, 84, 0
9, 232520, Note_on_c, 7, 72, 73
9, 232560, Note_on_c, 7, 72, 0
9, 232560, Note_on_c, 7, 51, 0
9, 232560, Note_on_c, 7, 39, 0
9, 232560, Note_on_c, 7, 44, 99
9, 232560, Note_on_c, 7, 56, 95
9, 232560, Note_on_c, 7, 75, 99
9, 232600, Note_on_c, 7, 75, 0
9, 232600, Note_on_c, 7, 84, 98
9, 232640, Note_on_c, 7, 84, 0
9, 232640, Note_on_c, 7, 72, 64
9, 232650, Note_on_c, 7, 56, 0
9, 232650, Note_on_c, 7, 44, 0
9, 232650, Note_on_c, 7, 43, 98
9, 232650, Note_on_c, 7, 55, 94
9, 232680, Note_on_c, 7, 55, 0
9, 232680, Note_on_c, 7, 43, 0
9, 232680, Note_on_c, 7, 72, 0
9, 232680, Note_on_c, 7, 53, 90
9, 232680, Note_on_c, 7, 41, 94
9, 232680, Note_on_c, 7, 75, 99
9, 232720, Note_on_c, 7, 75, 0
9, 232720, Note_on_c, 7, 84, 95
9, 232740, Note_on_c, 7, 41, 0
9, 232740, Note_on_c, 7, 53, 0
9, 232740, Note_on_c, 7, 39, 99
9, 232740, Note_on_c, 7, 51, 93
9, 232760, Note_on_c, 7, 84, 0
9, 232760, Note_on_c, 7, 72, 74
9, 232800, Note_on_c, 7, 72, 0
9, 232800, Note_on_c, 7, 51, 0
9, 232800, Note_on_c, 7, 39, 0
9, 232800, Note_on_c, 7, 50, 104
9, 232800, Note_on_c, 7, 38, 101
9, 232800, Note_on_c, 7, 77, 99
9, 232840, Note_on_c, 7, 77, 0
9, 232840, Note_on_c, 7, 84, 95
9, 232880, Note_on_c, 7, 84, 0
9, 232880, Note_on_c, 7, 74, 101
9, 232920, Note_on_c, 7, 74, 0
9, 232920, Note_on_c, 7, 38, 0
9, 232920, Note_on_c, 7, 50, 0
9, 232920, Note_on_c, 7, 41, 99
9, 232920, Note_on_c, 7, 53, 95
9, 232920, Note_on_c, 7, 77, 101
9, 232960, Note_on_c, 7, 77, 0
9, 232960, Note_on_c, 7, 86, 101
9, 233000, Note_on_c, 7, 86, 0
9, 233000, Note_on_c, 7, 74, 94
9, 233040, Note_on_c, 7, 74, 0
9, 233040, Note_on_c, 7, 53, 0
9, 233040, Note_on_c, 7, 41, 0
9, 233040, Note_on_c, 7, 47, 99
9, 233040, Note_on_c, 7, 59, 99
9, 233040, Note_on_c, 7, 77, 95
9, 233080, Note_on_c, 7, 77, 0
9, 233080, Note_on_c, 7, 86, 99
9, 233120, Note_on_c, 7, 86, 0
9, 233120, Note_on_c, 7, 74, 94
9, 233130, Note_on_c, 7, 59, 0
9, 233130, Note_on_c, 7, 47, 0
9, 233130, Note_on_c, 7, 44, 98
9, 233130, Note_on_c, 7, 56, 90
9, 233160, Note_on_c, 7, 56, 0
9, 233160, Note_on_c, 7, 44, 0
9, 233160, Note_on_c, 7, 74, 0
9, 233160, Note_on_c, 7, 55, 94
9, 233160, Note_on_c, 7, 43, 94
9, 233160, Note_on_c, 7, 77, 95
9, 233200, Note_on_c, 7, 77, 0
9, 233200, Note_on_c, 7, 86, 99
9, 233220, Note_on_c, 7, 43, 0
9, 233220, Note_on_c, 7, 55, 0
9, 233220, Note_on_c, 7, 41, 94
9, 233220, Note_on_c, 7, 53, 90
9, 233240, Note_on_c, 7, 86, 0
9, 233240, Note_on_c, 7, 74, 94
9, 233280, Note_on_c, 7, 74, 0
9, 233280, Note_on_c, 7, 53, 0
9, 233280, Note_on_c, 7, 41, 0
9, 233280, Note_on_c, 7, 51, 89
9, 233280, Note_on_c, 7, 39, 99
9, 233280, Note_on_c, 7, 79, 99
9, 233320, Note_on_c, 7, 79, 0
9, 233320, Note_on_c, 7, 86, 99
9, 233360, Note_on_c, 7, 86, 0
9, 233360, Note_on_c, 7, 75, 110
9, 233400, Note_on_c, 7, 75, 0
9, 233400, Note_on_c, 7, 39, 0
9, 233400, Note_on_c, 7, 51, 0
9, 233400, Note_on_c, 7, 43, 99
9, 233400, Note_on_c, 7, 55, 98
9, 233400, Note_on_c, 7, 79, 104
9, 233440, Note_on_c, 7, 79, 0
9, 233440, Note_on_c, 7, 87, 104
9, 233480, Note_on_c, 7, 87, 0
9, 233480, Note_on_c, 7, 75, 107
9, 233520, Note_on_c, 7, 75, 0
9, 233520, Note_on_c, 7, 55, 0
9, 233520, Note_on_c, 7, 43, 0
9, 233520, Note_on_c, 7, 60, 99
9, 233520, Note_on_c, 7, 48, 104
9, 233520, Note_on_c, 7, 79, 99
9, 233560, Note_on_c, 7, 79, 0
9, 233560, Note_on_c, 7, 87, 98
9, 233600, Note_on_c, 7, 87, 0
9, 233600, Note_on_c, 7, 75, 89
9, 233610, Note_on_c, 7, 48, 0
9, 233610, Note_on_c, 7, 60, 0
9, 233610, Note_on_c, 7, 46, 95
9, 233610, Note_on_c, 7, 58, 89
9, 233640, Note_on_c, 7, 58, 0
9, 233640, Note_on_c, 7, 46, 0
9, 233640, Note_on_c, 7, 75, 0
9, 233640, Note_on_c, 7, 44, 98
9, 233640, Note_on_c, 7, 56, 93
9, 233640, Note_on_c, 7, 79, 99
9, 233680, Note_on_c, 7, 79, 0
9, 233680, Note_on_c, 7, 87, 101
9, 233700, Note_on_c, 7, 56, 0
9, 233700, Note_on_c, 7, 44, 0
9, 233700, Note_on_c, 7, 43, 99
9, 233700, Note_on_c, 7, 55, 94
9, 233720, Note_on_c, 7, 87, 0
9, 233720, Note_on_c, 7, 75, 94
9, 233760, Note_on_c, 7, 75, 0
9, 233760, Note_on_c, 7, 55, 0
9, 233760, Note_on_c, 7, 43, 0
9, 233760, Note_on_c, 7, 53, 90
9, 233760, Note_on_c, 7, 41, 94
9, 233760, Note_on_c, 7, 80, 99
9, 233800, Note_on_c, 7, 80, 0
9, 233800, Note_on_c, 7, 87, 101
9, 233840, Note_on_c, 7, 87, 0
9, 233840, Note_on_c, 7, 77, 90
9, 233880, Note_on_c, 7, 77, 0
9, 233880, Note_on_c, 7, 41, 0
9, 233880, Note_on_c, 7, 53, 0
9, 233880, Note_on_c, 7, 44, 101
9, 233880, Note_on_c, 7, 56, 95
9, 233880, Note_on_c, 7, 80, 95
9, 233920, Note_on_c, 7, 80, 0
9, 233920, Note_on_c, 7, 89, 105
9, 233960, Note_on_c, 7, 89, 0
9, 233960, Note_on_c, 7, 77, 89
9, 234000, Note_on_c, 7, 77, 0
9, 234000, Note_on_c, 7, 56, 0
9, 234000, Note_on_c, 7, 44, 0
9, 234000, Note_on_c, 7, 50, 104
9, 234000, Note_on_c, 7, 62, 98
9, 234000, Note_on_c, 7, 80, 94
9, 234040, Note_on_c, 7, 80, 0
9, 234040, Note_on_c, 7, 89, 105
9, 234080, Note_on_c, 7, 89, 0
9, 234080, Note_on_c, 7, 77, 84
9, 234090, Note_on_c, 7, 62, 0
9, 234090, Note_on_c, 7, 50, 0
9, 234090, Note_on_c, 7, 60, 94
9, 234090, Note_on_c, 7, 48, 99
9, 234120, Note_on_c, 7, 48, 0
9, 234120, Note_on_c, 7, 60, 0
9, 234120, Note_on_c, 7, 77, 0
9, 234120, Note_on_c, 7, 47, 101
9, 234120, Note_on_c, 7, 59, 99
9, 234120, Note_on_c, 7, 80, 98
9, 234160, Note_on_c, 7, 80, 0
9, 234160, Note_on_c, 7, 89, 105
9, 234180, Note_on_c, 7, 59, 0
9, 234180, Note_on_c, 7, 47, 0
9, 234180, Note_on_c, 7, 44, 99
9, 234180, Note_on_c, 7, 56, 94
9, 234200, Note_on_c, 7, 89, 0
9, 234200, Note_on_c, 7, 77, 90
9, 234240, Note_on_c, 7, 77, 0
9, 234240, Note_on_c, 7, 56, 0
9, 234240, Note_on_c, 7, 44, 0
9, 234240, Note_on_c, 7, 86, 104
9, 234240, Control_c, 7, 64, 95
9, 234240, Note_on_c, 7, 43, 93
9, 234240, Note_on_c, 7, 31, 94
9, 234280, Note_on_c, 7, 86, 0
9, 234280, Note_on_c, 7, 87, 99
9, 234320, Note_on_c, 7, 87, 0
9, 234320, Note_on_c, 7, 89, 101
9, 234360, Note_on_c, 7, 89, 0
9, 234360, Note_on_c, 7, 31, 0
9, 234360, Note_on_c, 7, 43, 0
9, 234360, Note_on_c, 7, 83, 95
9, 234360, Note_on_c, 7, 80, 86
9, 234400, Note_on_c, 7, 83, 0
9, 234400, Note_on_c, 7, 84, 99
9, 234440, Note_on_c, 7, 84, 0
9, 234440, Note_on_c, 7, 86, 107
9, 234480, Note_on_c, 7, 86, 0
9, 234480, Note_on_c, 7, 80, 0
9, 234480, Note_on_c, 7, 80, 99
9, 234480, Note_on_c, 7, 74, 107
9, 234520, Note_on_c, 7, 80, 0
9, 234520, Note_on_c, 7, 82, 99
9, 234560, Note_on_c, 7, 82, 0
9, 234560, Note_on_c, 7, 84, 99
9, 234600, Note_on_c, 7, 84, 0
9, 234600, Note_on_c, 7, 74, 0
9, 234600, Note_on_c, 7, 74, 99
9, 234600, Note_on_c, 7, 71, 107
9, 234640, Note_on_c, 7, 74, 0
9, 234640, Note_on_c, 7, 75, 98
9, 234680, Note_on_c, 7, 75, 0
9, 234680, Note_on_c, 7, 77, 95
9, 234720, Note_on_c, 7, 77, 0
9, 234720, Note_on_c, 7, 71, 0
9, 234720, Note_on_c, 7, 71, 94
9, 234720, Note_on_c, 7, 67, 94
9, 234760, Note_on_c, 7, 71, 0
9, 234760, Note_on_c, 7, 72, 73
9, 234800, Note_on_c, 7, 72, 0
9, 234800, Note_on_c, 7, 74, 110
9, 234840, Note_on_c, 7, 74, 0
9, 234840, Note_on_c, 7, 67, 0
9, 234840, Note_on_c, 7, 67, 89
9, 234840, Note_on_c, 7, 65, 104
9, 234880, Note_on_c, 7, 67, 0
9, 234880, Note_on_c, 7, 71, 99
9, 234920, Note_on_c, 7, 71, 0
9, 234920, Note_on_c, 7, 74, 104
9, 234960, Note_on_c, 7, 74, 0
9, 234960, Note_on_c, 7, 65, 0
9, 234960, Note_on_c, 7, 67, 90
9, 234960, Note_on_c, 7, 62, 99
9, 235000, Note_on_c, 7, 67, 0
9, 235000, Note_on_c, 7, 71, 95
9, 235040, Note_on_c, 7, 71, 0
9, 235040, Note_on_c, 7, 74, 105
9, 235080, Note_on_c, 7, 74, 0
9, 235080, Note_on_c, 7, 62, 0
9, 235080, Note_on_c, 7, 67, 89
9, 235080, Control_c, 7, 64, 95
9, 235080, Note_on_c, 7, 59, 104
9, 235085, Control_c, 7, 64, 85
9, 235090, Control_c, 7, 64, 74
9, 235095, Control_c, 7, 64, 64
9, 235100, Control_c, 7, 64, 53
9, 235105, Control_c, 7, 64, 43
9, 235110, Control_c, 7, 64, 32
9, 235115, Control_c, 7, 64, 22
9, 235120, Note_on_c, 7, 67, 0
9, 235120, Note_on_c, 7, 71, 95
9, 235120, Control_c, 7, 64, 11
9, 235125, Control_c, 7, 64, 0
9, 235160, Note_on_c, 7, 71, 0
9, 235160, Note_on_c, 7, 74, 105
9, 235200, Note_on_c, 7, 74, 0
9, 235200, Note_on_c, 7, 59, 0
9, 235200, Note_on_c, 7, 87, 99
9, 235200, Note_on_c, 7, 31, 99
9, 235200, Note_on_c, 7, 43, 94
9, 235200, Control_c, 7, 64, 95
9, 235240, Note_on_c, 7, 87, 0
9, 235240, Note_on_c, 7, 89, 101
9, 235280, Note_on_c, 7, 89, 0
9, 235280, Note_on_c, 7, 91, 104
9, 235320, Note_on_c, 7, 91, 0
9, 235320, Note_on_c, 7, 43, 0
9, 235320, Note_on_c, 7, 31, 0
9, 235320, Note_on_c, 7, 84, 94
9, 235320, Note_on_c, 7, 79, 94
9, 235360, Note_on_c, 7, 84, 0
9, 235360, Note_on_c, 7, 86, 105
9, 235400, Note_on_c, 7, 86, 0
9, 235400, Note_on_c, 7, 87, 105
9, 235440, Note_on_c, 7, 87, 0
9, 235440, Note_on_c, 7, 79, 0
9, 235440, Note_on_c, 7, 79, 94
9, 235440, Note_on_c, 7, 75, 104
9, 235480, Note_on_c, 7, 79, 0
9, 235480, Note_on_c, 7, 83, 105
9, 235520, Note_on_c, 7, 83, 0
9, 235520, Note_on_c, 7, 84, 99
9, 235560, Note_on_c, 7, 84, 0
9, 235560, Note_on_c, 7, 75, 0
9, 235560, Note_on_c, 7, 75, 89
9, 235560, Note_on_c, 7, 72, 89
9, 235600, Note_on_c, 7, 75, 0
9, 235600, Note_on_c, 7, 77, 98
9, 235640, Note_on_c, 7, 77, 0
9, 235640, Note_on_c, 7, 79, 101
9, 235680, Note_on_c, 7, 79, 0
9, 235680, Note_on_c, 7, 72, 0
9, 235680, Note_on_c, 7, 72, 72
9, 235680, Note_on_c, 7, 67, 93
9, 235720, Note_on_c, 7, 72, 0
9, 235720, Note_on_c, 7, 74, 107
9, 235760, Note_on_c, 7, 74, 0
9, 235760, Note_on_c, 7, 75, 104
9, 235800, Note_on_c, 7, 75, 0
9, 235800, Note_on_c, 7, 67, 0
9, 235800, Note_on_c, 7, 67, 95
9, 235800, Note_on_c, 7, 63, 89
9, 235840, Note_on_c, 7, 67, 0
9, 235840, Note_on_c, 7, 72, 76
9, 235880, Note_on_c, 7, 72, 0
9, 235880, Note_on_c, 7, 75, 105
9, 235920, Note_on_c, 7, 75, 0
9, 235920, Note_on_c, 7, 63, 0
9, 235920, Note_on_c, 7, 67, 94
9, 235920, Note_on_c, 7, 60, 98
9, 235960, Note_on_c, 7, 67, 0
9, 235960, Note_on_c, 7, 72, 80
9, 236000, Note_on_c, 7, 72, 0
9, 236000, Note_on_c, 7, 75, 104
9, 236040, Note_on_c, 7, 75, 0
9, 236040, Note_on_c, 7, 60, 0
9, 236040, Note_on_c, 7, 67, 89
9, 236040, Control_c, 7, 64, 94
9, 236040, Note_on_c, 7, 55, 104
9, 236045, Control_c, 7, 64, 85
9, 236050, Control_c, 7, 64, 76
9, 236055, Control_c, 7, 64, 66
9, 236060, Control_c, 7, 64, 57
9, 236065, Control_c, 7, 64, 47
9, 236070, Control_c, 7, 64, 38
9, 236075, Control_c, 7, 64, 29
9, 236080, Note_on_c, 7, 67, 0
9, 236080, Note_on_c, 7, 72, 84
9, 236080, Control_c, 7, 64, 19
9, 236085, Control_c, 7, 64, 10
9, 236090, Control_c, 7, 64, 0
9, 236120, Note_on_c, 7, 72, 0
9, 236120, Note_on_c, 7, 75, 105
9, 236160, Note_on_c, 7, 75, 0
9, 236160, Note_on_c, 7, 55, 0
9, 236160, Note_on_c, 7, 84, 89
9, 236160, Note_on_c, 7, 30, 94
9, 236160, Note_on_c, 7, 42, 89
9, 236160, Control_c, 7, 64, 95
9, 236200, Note_on_c, 7, 84, 0
9, 236200, Note_on_c, 7, 86, 105
9, 236240, Note_on_c, 7, 86, 0
9, 236240, Note_on_c, 7, 87, 101
9, 236280, Note_on_c, 7, 87, 0
9, 236280, Note_on_c, 7, 42, 0
9, 236280, Note_on_c, 7, 30, 0
9, 236280, Note_on_c, 7, 81, 94
9, 236280, Note_on_c, 7, 78, 94
9, 236320, Note_on_c, 7, 81, 0
9, 236320, Note_on_c, 7, 83, 101
9, 236360, Note_on_c, 7, 83, 0
9, 236360, Note_on_c, 7, 84, 105
9, 236400, Note_on_c, 7, 84, 0
9, 236400, Note_on_c, 7, 78, 0
9, 236400, Note_on_c, 7, 75, 105
9, 236440, Note_on_c, 7, 75, 0
9, 236440, Note_on_c, 7, 78, 99
9, 236480, Note_on_c, 7, 78, 0
9, 236480, Note_on_c, 7, 81, 99
9, 236520, Note_on_c, 7, 81, 0
9, 236520, Note_on_c, 7, 74, 104
9, 236560, Note_on_c, 7, 74, 0
9, 236560, Note_on_c, 7, 78, 93
9, 236600, Note_on_c, 7, 78, 0
9, 236600, Note_on_c, 7, 81, 94
9, 236610, Control_c, 7, 64, 93
9, 236615, Control_c, 7, 64, 62
9, 236620, Control_c, 7, 64, 31
9, 236625, Control_c, 7, 64, 0
9, 236640, Note_on_c, 7, 81, 0
9, 236640, Note_on_c, 7, 83, 101
9, 236640, Note_on_c, 7, 29, 101
9, 236640, Note_on_c, 7, 41, 94
9, 236640, Control_c, 7, 64, 94
9, 236680, Note_on_c, 7, 83, 0
9, 236680, Note_on_c, 7, 84, 95
9, 236720, Note_on_c, 7, 84, 0
9, 236720, Note_on_c, 7, 86, 105
9, 236760, Note_on_c, 7, 86, 0
9, 236760, Note_on_c, 7, 41, 0
9, 236760, Note_on_c, 7, 29, 0
9, 236760, Note_on_c, 7, 79, 99
9, 236760, Note_on_c, 7, 77, 99
9, 236800, Note_on_c, 7, 79, 0
9, 236800, Note_on_c, 7, 83, 104
9, 236840, Note_on_c, 7, 83, 0
9, 236840, Note_on_c, 7, 86, 101
9, 236880, Note_on_c, 7, 86, 0
9, 236880, Note_on_c, 7, 77, 0
9, 236880, Note_on_c, 7, 74, 99
9, 236920, Note_on_c, 7, 74, 0
9, 236920, Note_on_c, 7, 83, 99
9, 236960, Note_on_c, 7, 83, 0
9, 236960, Note_on_c, 7, 86, 105
9, 237000, Note_on_c, 7, 86, 0
9, 237000, Note_on_c, 7, 71, 101
9, 237040, Note_on_c, 7, 71, 0
9, 237040, Note_on_c, 7, 83, 105
9, 237080, Note_on_c, 7, 83, 0
9, 237080, Note_on_c, 7, 86, 104
9, 237090, Control_c, 7, 64, 94
9, 237095, Control_c, 7, 64, 79
9, 237100, Control_c, 7, 64, 63
9, 237105, Control_c, 7, 64, 47
9, 237110, Control_c, 7, 64, 32
9, 237115, Control_c, 7, 64, 16
9, 237120, Note_on_c, 7, 86, 0
9, 237120, Note_on_c, 7, 79, 104
9, 237120, Control_c, 7, 64, 0
9, 237120, Note_on_c, 7, 39, 104
9, 237160, Note_on_c, 7, 79, 0
9, 237160, Note_on_c, 7, 91, 101
9, 237200, Note_on_c, 7, 91, 0
9, 237200, Note_on_c, 7, 90, 99
9, 237240, Note_on_c, 7, 90, 0
9, 237240, Note_on_c, 7, 39, 0
9, 237240, Note_on_c, 7, 89, 105
9, 237240, Note_on_c, 7, 51, 110
9, 237280, Note_on_c, 7, 89, 0
9, 237280, Note_on_c, 7, 88, 99
9, 237320, Note_on_c, 7, 88, 0
9, 237320, Note_on_c, 7, 87, 104
9, 237360, Note_on_c, 7, 87, 0
9, 237360, Note_on_c, 7, 51, 0
9, 237360, Note_on_c, 7, 86, 104
9, 237400, Note_on_c, 7, 86, 0
9, 237400, Note_on_c, 7, 85, 90
9, 237440, Note_on_c, 7, 85, 0
9, 237440, Note_on_c, 7, 84, 86
9, 237480, Note_on_c, 7, 84, 0
9, 237480, Note_on_c, 7, 83, 93
9, 237520, Note_on_c, 7, 83, 0
9, 237520, Note_on_c, 7, 82, 89
9, 237560, Note_on_c, 7, 82, 0
9, 237560, Note_on_c, 7, 81, 95
9, 237600, Note_on_c, 7, 81, 0
9, 237600, Note_on_c, 7, 80, 95
9, 237600, Note_on_c, 7, 29, 101
9, 237640, Note_on_c, 7, 80, 0
9, 237640, Note_on_c, 7, 79, 89
9, 237680, Note_on_c, 7, 79, 0
9, 237680, Note_on_c, 7, 78, 89
9, 237720, Note_on_c, 7, 78, 0
9, 237720, Note_on_c, 7, 29, 0
9, 237720, Note_on_c, 7, 77, 89
9, 237720, Note_on_c, 7, 41, 89
9, 237760, Note_on_c, 7, 77, 0
9, 237760, Note_on_c, 7, 76, 86
9, 237800, Note_on_c, 7, 76, 0
9, 237800, Note_on_c, 7, 75, 68
9, 237840, Note_on_c, 7, 75, 0
9, 237840, Note_on_c, 7, 41, 0
9, 237840, Note_on_c, 7, 74, 81
9, 237880, Note_on_c, 7, 74, 0
9, 237880, Note_on_c, 7, 73, 58
9, 237920, Note_on_c, 7, 73, 0
9, 237920, Note_on_c, 7, 72, 45
9, 237960, Note_on_c, 7, 72, 0
9, 237960, Note_on_c, 7, 71, 84
9, 237990, Note_on_c, 7, 71, 0
9, 237990, Note_on_c, 7, 70, 95
9, 238020, Note_on_c, 7, 70, 0
9, 238020, Note_on_c, 7, 69, 80
9, 238050, Note_on_c, 7, 69, 0
9, 238050, Note_on_c, 7, 68, 81
9, 238080, Note_on_c, 7, 68, 0
9, 238080, Note_on_c, 7, 67, 80
9, 238120, Note_on_c, 7, 67, 0
9, 238120, Note_on_c, 7, 66, 86
9, 238160, Note_on_c, 7, 66, 0
9, 238160, Note_on_c, 7, 65, 76
9, 238200, Note_on_c, 7, 65, 0
9, 238200, Note_on_c, 7, 64, 84
9, 238240, Note_on_c, 7, 64, 0
9, 238240, Note_on_c, 7, 63, 76
9, 238280, Note_on_c, 7, 63, 0
9, 238280, Note_on_c, 7, 62, 68
9, 238320, Note_on_c, 7, 62, 0
9, 238320, Note_on_c, 7, 61, 74
9, 238360, Note_on_c, 7, 61, 0
9, 238360, Note_on_c, 7, 60, 70
9, 238400, Note_on_c, 7, 60, 0
9, 238400, Note_on_c, 7, 59, 74
9, 238440, Note_on_c, 7, 59, 0
9, 238440, Note_on_c, 7, 58, 73
9, 238480, Note_on_c, 7, 58, 0
9, 238480, Note_on_c, 7, 57, 45
9, 238520, Note_on_c, 7, 57, 0
9, 238520, Note_on_c, 7, 56, 68
9, 238560, Note_on_c, 7, 56, 0
9, 238560, Note_on_c, 7, 55, 76
9, 238600, Note_on_c, 7, 55, 0
9, 238600, Note_on_c, 7, 54, 80
9, 238640, Note_on_c, 7, 54, 0
9, 238640, Note_on_c, 7, 55, 71
9, 238680, Note_on_c, 7, 55, 0
9, 238680, Note_on_c, 7, 56, 68
9, 238720, Note_on_c, 7, 56, 0
9, 238720, Note_on_c, 7, 57, 76
9, 238760, Note_on_c, 7, 57, 0
9, 238760, Note_on_c, 7, 58, 62
9, 238800, Note_on_c, 7, 58, 0
9, 238800, Note_on_c, 7, 59, 73
9, 238840, Note_on_c, 7, 59, 0
9, 238840, Note_on_c, 7, 60, 71
9, 238880, Note_on_c, 7, 60, 0
9, 238880, Note_on_c, 7, 61, 69
9, 238920, Note_on_c, 7, 61, 0
9, 238920, Note_on_c, 7, 62, 69
9, 238960, Note_on_c, 7, 62, 0
9, 238960, Note_on_c, 7, 63, 74
9, 239000, Note_on_c, 7, 63, 0
9, 239000, Note_on_c, 7, 64, 73
9, 239040, Note_on_c, 7, 64, 0
9, 239040, Note_on_c, 7, 65, 69
9, 239080, Note_on_c, 7, 65, 0
9, 239080, Note_on_c, 7, 66, 78
9, 239120, Note_on_c, 7, 66, 0
9, 239120, Note_on_c, 7, 67, 68
9, 239160, Note_on_c, 7, 67, 0
9, 239160, Note_on_c, 7, 68, 76
9, 239200, Note_on_c, 7, 68, 0
9, 239200, Note_on_c, 7, 69, 73
9, 239240, Note_on_c, 7, 69, 0
9, 239240, Note_on_c, 7, 70, 69
9, 239280, Note_on_c, 7, 70, 0
9, 239280, Note_on_c, 7, 71, 74
9, 239320, Note_on_c, 7, 71, 0
9, 239320, Note_on_c, 7, 72, 84
9, 239360, Note_on_c, 7, 72, 0
9, 239360, Note_on_c, 7, 73, 76
9, 239400, Note_on_c, 7, 73, 0
9, 239400, Note_on_c, 7, 74, 94
9, 239424, Note_on_c, 7, 74, 0
9, 239424, Note_on_c, 7, 75, 82
9, 239448, Note_on_c, 7, 75, 0
9, 239448, Note_on_c, 7, 76, 80
9, 239472, Note_on_c, 7, 76, 0
9, 239472, Note_on_c, 7, 77, 84
9, 239496, Note_on_c, 7, 77, 0
9, 239496, Note_on_c, 7, 78, 82
9, 239520, Note_on_c, 7, 78, 0
9, 239520, Note_on_c, 7, 79, 71
9, 239544, Note_on_c, 7, 79, 0
9, 239544, Note_on_c, 7, 78, 77
9, 239568, Note_on_c, 7, 78, 0
9, 239568, Note_on_c, 7, 77, 76
9, 239592, Note_on_c, 7, 77, 0
9, 239592, Note_on_c, 7, 76, 76
9, 239616, Note_on_c, 7, 76, 0
9, 239616, Note_on_c, 7, 75, 85
9, 239640, Note_on_c, 7, 75, 0
9, 239640, Note_on_c, 7, 43, 81
9, 239640, Note_on_c, 7, 74, 90
9, 239680, Note_on_c, 7, 43, 0
9, 239680, Note_on_c, 7, 44, 71
9, 239700, Note_on_c, 7, 74, 0
9, 239700, Note_on_c, 7, 75, 89
9, 239720, Note_on_c, 7, 44, 0
9, 239720, Note_on_c, 7, 45, 72
9, 239740, Note_on_c, 7, 75, 0
9, 239740, Note_on_c, 7, 74, 84
9, 239760, Note_on_c, 7, 45, 0
9, 239760, Note_on_c, 7, 46, 80
9, 239780, Note_on_c, 7, 74, 0
9, 239780, Note_on_c, 7, 75, 94
9, 239800, Note_on_c, 7, 46, 0
9, 239800, Note_on_c, 7, 47, 72
9, 239820, Note_on_c, 7, 75, 0
9, 239820, Note_on_c, 7, 74, 94
9, 239840, Note_on_c, 7, 47, 0
9, 239840, Note_on_c, 7, 48, 84
9, 239850, Note_on_c, 7, 74, 0
9, 239850, Note_on_c, 7, 75, 94
9, 239880, Note_on_c, 7, 75, 0
9, 239880, Note_on_c, 7, 48, 0
9, 239880, Note_on_c, 7, 49, 82
9, 239880, Note_on_c, 7, 74, 86
9, 239910, Note_on_c, 7, 74, 0
9, 239910, Note_on_c, 7, 75, 94
9, 239920, Note_on_c, 7, 49, 0
9, 239920, Note_on_c, 7, 50, 84
9, 239940, Note_on_c, 7, 75, 0
9, 239940, Note_on_c, 7, 74, 94
9, 239960, Note_on_c, 7, 74, 0
9, 239960, Note_on_c, 7, 50, 0
9, 239960, Note_on_c, 7, 51, 78
9, 239960, Note_on_c, 7, 75, 93
9, 239980, Note_on_c, 7, 75, 0
9, 239980, Note_on_c, 7, 74, 89
9, 240000, Note_on_c, 7, 74, 0
9, 240000, Note_on_c, 7, 51, 0
9, 240000, Note_on_c, 7, 52, 89
9, 240000, Note_on_c, 7, 75, 86
9, 240020, Note_on_c, 7, 75, 0
9, 240020, Note_on_c, 7, 74, 94
9, 240040, Note_on_c, 7, 74, 0
9, 240040, Note_on_c, 7, 52, 0
9, 240040, Note_on_c, 7, 53, 81
9, 240040, Note_on_c, 7, 75, 95
9, 240060, Note_on_c, 7, 75, 0
9, 240060, Note_on_c, 7, 74, 95
9, 240080, Note_on_c, 7, 74, 0
9, 240080, Note_on_c, 7, 53, 0
9, 240080, Note_on_c, 7, 54, 84
9, 240080, Note_on_c, 7, 75, 94
9, 240100, Note_on_c, 7, 75, 0
9, 240100, Note_on_c, 7, 74, 94
9, 240120, Note_on_c, 7, 74, 0
9, 240120, Note_on_c, 7, 54, 0
9, 240120, Note_on_c, 7, 55, 77
9, 240120, Note_on_c, 7, 75, 85
9, 240150, Note_on_c, 7, 75, 0
9, 240150, Note_on_c, 7, 74, 93
9, 240160, Note_on_c, 7, 55, 0
9, 240160, Note_on_c, 7, 56, 77
9, 240170, Note_on_c, 7, 74, 0
9, 240170, Note_on_c, 7, 75, 90
9, 240190, Note_on_c, 7, 75, 0
9, 240190, Note_on_c, 7, 74, 94
9, 240200, Note_on_c, 7, 56, 0
9, 240200, Note_on_c, 7, 57, 84
9, 240210, Note_on_c, 7, 74, 0
9, 240210, Note_on_c, 7, 75, 94
9, 240230, Note_on_c, 7, 75, 0
9, 240230, Note_on_c, 7, 74, 86
9, 240240, Note_on_c, 7, 57, 0
9, 240240, Note_on_c, 7, 58, 82
9, 240250, Note_on_c, 7, 74, 0
9, 240250, Note_on_c, 7, 75, 93
9, 240270, Note_on_c, 7, 75, 0
9, 240270, Note_on_c, 7, 74, 86
9, 240280, Note_on_c, 7, 58, 0
9, 240280, Note_on_c, 7, 59, 81
9, 240290, Note_on_c, 7, 74, 0
9, 240290, Note_on_c, 7, 75, 93
9, 240310, Note_on_c, 7, 75, 0
9, 240310, Note_on_c, 7, 74, 95
9, 240320, Note_on_c, 7, 59, 0
9, 240320, Note_on_c, 7, 60, 71
9, 240340, Note_on_c, 7, 74, 0
9, 240340, Note_on_c, 7, 75, 89
9, 240360, Note_on_c, 7, 75, 0
9, 240360, Note_on_c, 7, 60, 0
9, 240360, Note_on_c, 7, 61, 82
9, 240360, Note_on_c, 7, 74, 93
9, 240380, Note_on_c, 7, 74, 0
9, 240380, Note_on_c, 7, 75, 86
9, 240400, Note_on_c, 7, 75, 0
9, 240400, Note_on_c, 7, 61, 0
9, 240400, Note_on_c, 7, 62, 72
9, 240400, Note_on_c, 7, 74, 93
9, 240420, Note_on_c, 7, 74, 0
9, 240420, Note_on_c, 7, 75, 86
9, 240440, Note_on_c, 7, 75, 0
9, 240440, Note_on_c, 7, 62, 0
9, 240440, Note_on_c, 7, 63, 84
9, 240440, Note_on_c, 7, 74, 90
9, 240460, Note_on_c, 7, 74, 0
9, 240460, Note_on_c, 7, 75, 84
9, 240480, Note_on_c, 7, 75, 0
9, 240480, Note_on_c, 7, 63, 0
9, 240480, Note_on_c, 7, 64, 81
9, 240480, Note_on_c, 7, 74, 95
9, 240500, Note_on_c, 7, 74, 0
9, 240500, Note_on_c, 7, 75, 93
9, 240520, Note_on_c, 7, 75, 0
9, 240520, Note_on_c, 7, 64, 0
9, 240520, Note_on_c, 7, 65, 86
9, 240520, Note_on_c, 7, 74, 94
9, 240540, Note_on_c, 7, 74, 0
9, 240540, Note_on_c, 7, 75, 89
9, 240560, Note_on_c, 7, 75, 0
9, 240560, Note_on_c, 7, 65, 0
9, 240560, Note_on_c, 7, 66, 93
9, 240560, Note_on_c, 7, 74, 94
9, 240580, Note_on_c, 7, 74, 0
9, 240580, Note_on_c, 7, 75, 93
9, 240600, Note_on_c, 7, 75, 0
9, 240600, Note_on_c, 7, 66, 0
9, 240600, Note_on_c, 7, 67, 82
9, 240600, Note_on_c, 7, 74, 86
9, 240620, Note_on_c, 7, 74, 0
9, 240620, Note_on_c, 7, 75, 86
9, 240630, Note_on_c, 7, 67, 0
9, 240630, Note_on_c, 7, 68, 84
9, 240640, Note_on_c, 7, 75, 0
9, 240640, Note_on_c, 7, 74, 89
9, 240660, Note_on_c, 7, 74, 0
9, 240660, Note_on_c, 7, 68, 0
9, 240660, Note_on_c, 7, 69, 81
9, 240660, Note_on_c, 7, 75, 86
9, 240680, Note_on_c, 7, 75, 0
9, 240680, Note_on_c, 7, 74, 90
9, 240690, Note_on_c, 7, 69, 0
9, 240690, Note_on_c, 7, 70, 90
9, 240700, Note_on_c, 7, 74, 0
9, 240700, Note_on_c, 7, 75, 90
9, 240720, Note_on_c, 7, 75, 0
9, 240720, Note_on_c, 7, 70, 0
9, 240720, Note_on_c, 7, 71, 60
9, 240720, Note_on_c, 7, 74, 72
9, 240780, Note_on_c, 7, 74, 0
9, 240780, Note_on_c, 7, 71, 0
9, 240780, Note_on_c, 7, 72, 60
9, 240780, Note_on_c, 7, 75, 84
9, 240840, Note_on_c, 7, 75, 0
9, 240840, Note_on_c, 7, 72, 0
9, 240840, Note_on_c, 7, 71, 80
9, 240840, Note_on_c, 7, 74, 77
9, 240880, Note_on_c, 7, 74, 0
9, 240880, Note_on_c, 7, 71, 0
9, 240880, Note_on_c, 7, 72, 53
9, 240880, Note_on_c, 7, 75, 86
9, 240920, Note_on_c, 7, 75, 0
9, 240920, Note_on_c, 7, 72, 0
9, 240920, Note_on_c, 7, 74, 78
9, 240920, Note_on_c, 7, 71, 74
9, 240960, Note_on_c, 7, 71, 0
9, 240960, Note_on_c, 7, 74, 0
9, 240960, Note_on_c, 7, 72, 65
9, 240960, Note_on_c, 7, 75, 84
9, 240990, Note_on_c, 7, 75, 0
9, 240990, Note_on_c, 7, 72, 0
9, 240990, Note_on_c, 7, 71, 74
9, 240990, Note_on_c, 7, 74, 74
9, 241020, Note_on_c, 7, 74, 0
9, 241020, Note_on_c, 7, 71, 0
9, 241020, Note_on_c, 7, 72, 52
9, 241020, Note_on_c, 7, 75, 89
9, 241050, Note_on_c, 7, 75, 0
9, 241050, Note_on_c, 7, 72, 0
9, 241050, Note_on_c, 7, 71, 84
9, 241050, Note_on_c, 7, 74, 78
9, 241080, Note_on_c, 7, 74, 0
9, 241080, Note_on_c, 7, 71, 0
9, 241080, Note_on_c, 7, 72, 62
9, 241080, Note_on_c, 7, 75, 84
9, 241100, Note_on_c, 7, 75, 0
9, 241100, Note_on_c, 7, 72, 0
9, 241100, Note_on_c, 7, 71, 86
9, 241100, Note_on_c, 7, 74, 85
9, 241120, Note_on_c, 7, 74, 0
9, 241120, Note_on_c, 7, 71, 0
9, 241120, Note_on_c, 7, 75, 78
9, 241120, Note_on_c, 7, 72, 29
9, 241140, Note_on_c, 7, 72, 0
9, 241140, Note_on_c, 7, 75, 0
9, 241140, Note_on_c, 7, 71, 74
9, 241140, Note_on_c, 7, 74, 74
9, 241160, Note_on_c, 7, 74, 0
9, 241160, Note_on_c, 7, 71, 0
9, 241160, Note_on_c, 7, 75, 80
9, 241160, Note_on_c, 7, 72, 38
9, 241180, Note_on_c, 7, 72, 0
9, 241180, Note_on_c, 7, 75, 0
9, 241180, Note_on_c, 7, 71, 89
9, 241180, Note_on_c, 7, 74, 84
9, 241200, Note_on_c, 7, 74, 0
9, 241200, Note_on_c, 7, 71, 0
9, 241200, Note_on_c, 7, 75, 85
9, 241200, Note_on_c, 7, 72, 61
9, 241215, Note_on_c, 7, 72, 0
9, 241215, Note_on_c, 7, 75, 0
9, 241215, Note_on_c, 7, 71, 86
9, 241215, Note_on_c, 7, 74, 85
9, 241230, Note_on_c, 7, 72, 74
9, 241235, Note_on_c, 7, 74, 0
9, 241235, Note_on_c, 7, 71, 0
9, 241235, Note_on_c, 7, 75, 89
9, 241245, Note_on_c, 7, 72, 0
9, 241245, Note_on_c, 7, 71, 94
9, 241245, Note_on_c, 7, 74, 99
9, 241255, Note_on_c, 7, 75, 0
9, 241255, Note_on_c, 7, 72, 29
9, 241260, Note_on_c, 7, 74, 0
9, 241260, Note_on_c, 7, 71, 0
9, 241260, Note_on_c, 7, 75, 95
9, 241275, Note_on_c, 7, 75, 0
9, 241275, Note_on_c, 7, 72, 0
9, 241275, Note_on_c, 7, 74, 89
9, 241275, Note_on_c, 7, 71, 93
9, 241295, Note_on_c, 7, 71, 0
9, 241295, Note_on_c, 7, 74, 0
9, 241295, Note_on_c, 7, 72, 67
9, 241295, Note_on_c, 7, 75, 94
9, 241315, Note_on_c, 7, 75, 0
9, 241315, Note_on_c, 7, 72, 0
9, 241315, Note_on_c, 7, 71, 90
9, 241315, Note_on_c, 7, 74, 93
9, 241335, Note_on_c, 7, 74, 0
9, 241335, Note_on_c, 7, 71, 0
9, 241335, Note_on_c, 7, 72, 56
9, 241335, Note_on_c, 7, 75, 90
9, 241350, Note_on_c, 7, 75, 0
9, 241350, Note_on_c, 7, 72, 0
9, 241350, Note_on_c, 7, 71, 82
9, 241350, Note_on_c, 7, 74, 85
9, 241370, Note_on_c, 7, 74, 0
9, 241370, Note_on_c, 7, 71, 0
9, 241370, Note_on_c, 7, 75, 86
9, 241370, Note_on_c, 7, 72, 53
9, 241390, Note_on_c, 7, 72, 0
9, 241390, Note_on_c, 7, 75, 0
9, 241390, Note_on_c, 7, 74, 89
9, 241390, Note_on_c, 7, 71, 90
9, 241410, Note_on_c, 7, 71, 0
9, 241410, Note_on_c, 7, 74, 0
9, 241410, Note_on_c, 7, 72, 57
9, 241410, Note_on_c, 7, 75, 89
9, 241430, Note_on_c, 7, 75, 0
9, 241430, Note_on_c, 7, 72, 0
9, 241430, Note_on_c, 7, 71, 89
9, 241430, Note_on_c, 7, 74, 94
9, 241450, Note_on_c, 7, 74, 0
9, 241450, Note_on_c, 7, 71, 0
9, 241450, Note_on_c, 7, 72, 61
9, 241450, Note_on_c, 7, 75, 89
9, 241465, Note_on_c, 7, 75, 0
9, 241465, Note_on_c, 7, 72, 0
9, 241465, Note_on_c, 7, 71, 89
9, 241465, Note_on_c, 7, 74, 93
9, 241485, Note_on_c, 7, 74, 0
9, 241485, Note_on_c, 7, 71, 0
9, 241485, Note_on_c, 7, 75, 94
9, 241485, Note_on_c, 7, 72, 65
9, 241505, Note_on_c, 7, 72, 0
9, 241505, Note_on_c, 7, 75, 0
9, 241505, Note_on_c, 7, 71, 89
9, 241505, Note_on_c, 7, 74, 93
9, 241525, Note_on_c, 7, 74, 0
9, 241525, Note_on_c, 7, 71, 0
9, 241525, Note_on_c, 7, 75, 93
9, 241525, Note_on_c, 7, 72, 58
9, 241545, Note_on_c, 7, 72, 0
9, 241545, Note_on_c, 7, 75, 0
9, 241545, Note_on_c, 7, 71, 93
9, 241545, Note_on_c, 7, 74, 98
9, 241565, Note_on_c, 7, 74, 0
9, 241565, Note_on_c, 7, 71, 0
9, 241565, Note_on_c, 7, 75, 94
9, 241565, Note_on_c, 7, 72, 70
9, 241585, Note_on_c, 7, 72, 0
9, 241585, Note_on_c, 7, 75, 0
9, 241585, Note_on_c, 7, 71, 95
9, 241585, Note_on_c, 7, 74, 98
9, 241600, Note_on_c, 7, 74, 0
9, 241600, Note_on_c, 7, 71, 0
9, 241600, Note_on_c, 7, 75, 89
9, 241600, Note_on_c, 7, 72, 60
9, 241620, Note_on_c, 7, 72, 0
9, 241620, Note_on_c, 7, 75, 0
9, 241620, Note_on_c, 7, 71, 93
9, 241620, Note_on_c, 7, 74, 99
9, 241640, Note_on_c, 7, 74, 0
9, 241640, Note_on_c, 7, 71, 0
9, 241640, Note_on_c, 7, 75, 93
9, 241640, Note_on_c, 7, 72, 65
9, 241660, Note_on_c, 7, 72, 0
9, 241660, Note_on_c, 7, 75, 0
9, 241660, Note_on_c, 7, 71, 89
9, 241660, Note_on_c, 7, 74, 94
9, 241680, Note_on_c, 7, 74, 0
9, 241680, Note_on_c, 7, 71, 0
9, 241680, Note_on_c, 7, 75, 94
9, 241680, Note_on_c, 7, 72, 65
9, 241700, Note_on_c, 7, 72, 0
9, 241700, Note_on_c, 7, 75, 0
9, 241700, Note_on_c, 7, 71, 89
9, 241700, Note_on_c, 7, 74, 98
9, 241720, Note_on_c, 7, 74, 0
9, 241720, Note_on_c, 7, 71, 0
9, 241720, Note_on_c, 7, 75, 90
9, 241720, Note_on_c, 7, 72, 59
9, 241740, Note_on_c, 7, 72, 0
9, 241740, Note_on_c, 7, 75, 0
9, 241740, Note_on_c, 7, 71, 89
9, 241740, Note_on_c, 7, 74, 99
9, 241760, Note_on_c, 7, 74, 0
9, 241760, Note_on_c, 7, 71, 0
9, 241760, Note_on_c, 7, 72, 61
9, 241760, Note_on_c, 7, 75, 95
9, 241780, Note_on_c, 7, 75, 0
9, 241780, Note_on_c, 7, 72, 0
9, 241780, Note_on_c, 7, 71, 94
9, 241780, Note_on_c, 7, 74, 95
9, 241800, Note_on_c, 7, 74, 0
9, 241800, Note_on_c, 7, 71, 0
9, 241800, Note_on_c, 7, 71, 93
9, 241800, Note_on_c, 7, 74, 94
9, 241820, Note_on_c, 7, 74, 0
9, 241820, Note_on_c, 7, 71, 0
9, 241820, Note_on_c, 7, 75, 90
9, 241840, Note_on_c, 7, 75, 0
9, 241840, Note_on_c, 7, 71, 94
9, 241840, Note_on_c, 7, 74, 94
9, 241860, Note_on_c, 7, 74, 0
9, 241860, Note_on_c, 7, 71, 0
9, 241860, Note_on_c, 7, 75, 98
9, 241860, Note_on_c, 7, 72, 70
9, 241880, Note_on_c, 7, 72, 0
9, 241880, Note_on_c, 7, 75, 0
9, 241880, Note_on_c, 7, 74, 98
9, 241880, Note_on_c, 7, 71, 94
9, 241900, Note_on_c, 7, 71, 0
9, 241900, Note_on_c, 7, 74, 0
9, 241900, Note_on_c, 7, 75, 93
9, 241900, Note_on_c, 7, 72, 69
9, 241920, Note_on_c, 7, 72, 0
9, 241920, Note_on_c, 7, 75, 0
9, 241920, Note_on_c, 7, 71, 101
9, 241920, Note_on_c, 7, 74, 99
9, 241920, Note_on_c, 7, 86, 99
9, 241935, Note_on_c, 7, 74, 0
9, 241935, Note_on_c, 7, 71, 0
9, 241935, Note_on_c, 7, 72, 66
9, 241935, Note_on_c, 7, 75, 93
9, 241955, Note_on_c, 7, 75, 0
9, 241955, Note_on_c, 7, 72, 0
9, 241955, Note_on_c, 7, 71, 94
9, 241955, Note_on_c, 7, 74, 94
9, 241975, Note_on_c, 7, 74, 0
9, 241975, Note_on_c, 7, 71, 0
9, 241975, Note_on_c, 7, 72, 72
9, 241975, Note_on_c, 7, 75, 95
9, 241995, Note_on_c, 7, 75, 0
9, 241995, Note_on_c, 7, 72, 0
9, 241995, Note_on_c, 7, 71, 99
9, 241995, Note_on_c, 7, 74, 95
9, 242015, Note_on_c, 7, 74, 0
9, 242015, Note_on_c, 7, 71, 0
9, 242015, Note_on_c, 7, 75, 94
9, 242015, Note_on_c, 7, 72, 73
9, 242030, Note_on_c, 7, 72, 0
9, 242030, Note_on_c, 7, 75, 0
9, 242030, Note_on_c, 7, 71, 94
9, 242030, Note_on_c, 7, 74, 94
9, 242050, Note_on_c, 7, 74, 0
9, 242050, Note_on_c, 7, 71, 0
9, 242050, Note_on_c, 7, 75, 98
9, 242050, Note_on_c, 7, 72, 60
9, 242070, Note_on_c, 7, 72, 0
9, 242070, Note_on_c, 7, 75, 0
9, 242070, Note_on_c, 7, 71, 89
9, 242070, Note_on_c, 7, 74, 94
9, 242090, Note_on_c, 7, 74, 0
9, 242090, Note_on_c, 7, 71, 0
9, 242090, Note_on_c, 7, 75, 94
9, 242090, Note_on_c, 7, 72, 66
9, 242100, Note_on_c, 7, 86, 0
9, 242100, Note_on_c, 7, 84, 90
9, 242110, Note_on_c, 7, 72, 0
9, 242110, Note_on_c, 7, 75, 0
9, 242110, Note_on_c, 7, 71, 94
9, 242110, Note_on_c, 7, 74, 94
9, 242130, Note_on_c, 7, 74, 0
9, 242130, Note_on_c, 7, 71, 0
9, 242130, Note_on_c, 7, 75, 93
9, 242130, Note_on_c, 7, 72, 70
9, 242160, Note_on_c, 7, 72, 0
9, 242160, Note_on_c, 7, 75, 0
9, 242160, Note_on_c, 7, 84, 0
9, 242160, Note_on_c, 7, 74, 98
9, 242160, Note_on_c, 7, 71, 99
9, 242160, Note_on_c, 7, 83, 99
9, 242180, Note_on_c, 7, 71, 0
9, 242180, Note_on_c, 7, 74, 0
9, 242180, Note_on_c, 7, 75, 95
9, 242180, Note_on_c, 7, 72, 72
9, 242200, Note_on_c, 7, 72, 0
9, 242200, Note_on_c, 7, 75, 0
9, 242200, Note_on_c, 7, 71, 89
9, 242200, Note_on_c, 7, 74, 98
9, 242220, Note_on_c, 7, 74, 0
9, 242220, Note_on_c, 7, 71, 0
9, 242220, Note_on_c, 7, 75, 94
9, 242220, Note_on_c, 7, 72, 72
9, 242240, Note_on_c, 7, 72, 0
9, 242240, Note_on_c, 7, 75, 0
9, 242240, Note_on_c, 7, 71, 95
9, 242240, Note_on_c, 7, 74, 94
9, 242255, Note_on_c, 7, 74, 0
9, 242255, Note_on_c, 7, 71, 0
9, 242255, Note_on_c, 7, 75, 90
9, 242255, Note_on_c, 7, 72, 70
9, 242275, Note_on_c, 7, 72, 0
9, 242275, Note_on_c, 7, 75, 0
9, 242275, Note_on_c, 7, 71, 99
9, 242275, Note_on_c, 7, 74, 99
9, 242280, Note_on_c, 7, 83, 0
9, 242280, Note_on_c, 7, 80, 93
9, 242295, Note_on_c, 7, 74, 0
9, 242295, Note_on_c, 7, 71, 0
9, 242295, Note_on_c, 7, 75, 86
9, 242295, Note_on_c, 7, 72, 68
9, 242315, Note_on_c, 7, 72, 0
9, 242315, Note_on_c, 7, 75, 0
9, 242315, Note_on_c, 7, 71, 95
9, 242315, Note_on_c, 7, 74, 98
9, 242335, Note_on_c, 7, 74, 0
9, 242335, Note_on_c, 7, 71, 0
9, 242335, Note_on_c, 7, 75, 95
9, 242335, Note_on_c, 7, 72, 72
9, 242350, Note_on_c, 7, 72, 0
9, 242350, Note_on_c, 7, 75, 0
9, 242350, Note_on_c, 7, 71, 99
9, 242350, Note_on_c, 7, 74, 99
9, 242370, Note_on_c, 7, 74, 0
9, 242370, Note_on_c, 7, 71, 0
9, 242370, Note_on_c, 7, 75, 99
9, 242370, Note_on_c, 7, 72, 69
9, 242390, Note_on_c, 7, 72, 0
9, 242390, Note_on_c, 7, 75, 0
9, 242400, Note_on_c, 7, 80, 0
9, 242400, Note_on_c, 7, 79, 93
9, 242400, Note_on_c, 7, 71, 99
9, 242400, Note_on_c, 7, 74, 90
9, 242400, Note_on_c, 7, 65, 90
9, 242420, Note_on_c, 7, 74, 0
9, 242420, Note_on_c, 7, 71, 0
9, 242420, Note_on_c, 7, 75, 90
9, 242420, Note_on_c, 7, 72, 68
9, 242440, Note_on_c, 7, 72, 0
9, 242440, Note_on_c, 7, 75, 0
9, 242440, Note_on_c, 7, 71, 95
9, 242440, Note_on_c, 7, 74, 86
9, 242460, Note_on_c, 7, 74, 0
9, 242460, Note_on_c, 7, 71, 0
9, 242460, Note_on_c, 7, 75, 89
9, 242460, Note_on_c, 7, 72, 69
9, 242480, Note_on_c, 7, 72, 0
9, 242480, Note_on_c, 7, 75, 0
9, 242480, Note_on_c, 7, 71, 94
9, 242480, Note_on_c, 7, 74, 93
9, 242500, Note_on_c, 7, 74, 0
9, 242500, Note_on_c, 7, 71, 0
9, 242500, Note_on_c, 7, 72, 68
9, 242500, Note_on_c, 7, 75, 89
9, 242520, Note_on_c, 7, 75, 0
9, 242520, Note_on_c, 7, 72, 0
9, 242520, Note_on_c, 7, 79, 0
9, 242520, Note_on_c, 7, 71, 94
9, 242520, Note_on_c, 7, 74, 94
9, 242535, Note_on_c, 7, 74, 0
9, 242535, Note_on_c, 7, 71, 0
9, 242535, Note_on_c, 7, 75, 94
9, 242535, Note_on_c, 7, 72, 63
9, 242555, Note_on_c, 7, 72, 0
9, 242555, Note_on_c, 7, 75, 0
9, 242555, Note_on_c, 7, 71, 95
9, 242555, Note_on_c, 7, 74, 89
9, 242575, Note_on_c, 7, 74, 0
9, 242575, Note_on_c, 7, 71, 0
9, 242575, Note_on_c, 7, 75, 89
9, 242575, Note_on_c, 7, 72, 62
9, 242580, Note_on_c, 7, 65, 0
9, 242580, Note_on_c, 7, 63, 89
9, 242595, Note_on_c, 7, 72, 0
9, 242595, Note_on_c, 7, 75, 0
9, 242595, Note_on_c, 7, 71, 89
9, 242595, Note_on_c, 7, 74, 84
9, 242615, Note_on_c, 7, 74, 0
9, 242615, Note_on_c, 7, 71, 0
9, 242615, Note_on_c, 7, 75, 93
9, 242615, Note_on_c, 7, 72, 66
9, 242635, Note_on_c, 7, 72, 0
9, 242635, Note_on_c, 7, 75, 0
9, 242635, Note_on_c, 7, 71, 94
9, 242635, Note_on_c, 7, 74, 86
9, 242640, Note_on_c, 7, 63, 0
9, 242640, Note_on_c, 7, 62, 90
9, 242655, Note_on_c, 7, 74, 0
9, 242655, Note_on_c, 7, 71, 0
9, 242655, Note_on_c, 7, 75, 89
9, 242655, Note_on_c, 7, 72, 64
9, 242670, Note_on_c, 7, 72, 0
9, 242670, Note_on_c, 7, 75, 0
9, 242670, Note_on_c, 7, 71, 95
9, 242670, Note_on_c, 7, 74, 95
9, 242690, Note_on_c, 7, 74, 0
9, 242690, Note_on_c, 7, 71, 0
9, 242690, Note_on_c, 7, 75, 93
9, 242690, Note_on_c, 7, 72, 62
9, 242710, Note_on_c, 7, 72, 0
9, 242710, Note_on_c, 7, 75, 0
9, 242710, Note_on_c, 7, 71, 94
9, 242710, Note_on_c, 7, 74, 90
9, 242730, Note_on_c, 7, 74, 0
9, 242730, Note_on_c, 7, 71, 0
9, 242730, Note_on_c, 7, 75, 93
9, 242730, Note_on_c, 7, 72, 67
9, 242750, Note_on_c, 7, 72, 0
9, 242750, Note_on_c, 7, 75, 0
9, 242750, Note_on_c, 7, 71, 94
9, 242750, Note_on_c, 7, 74, 98
9, 242760, Note_on_c, 7, 62, 0
9, 242760, Note_on_c, 7, 60, 95
9, 242770, Note_on_c, 7, 74, 0
9, 242770, Note_on_c, 7, 71, 0
9, 242770, Note_on_c, 7, 72, 57
9, 242770, Note_on_c, 7, 75, 94
9, 242785, Note_on_c, 7, 75, 0
9, 242785, Note_on_c, 7, 72, 0
9, 242785, Note_on_c, 7, 71, 101
9, 242785, Note_on_c, 7, 74, 94
9, 242800, Note_on_c, 7, 74, 0
9, 242800, Note_on_c, 7, 71, 0
9, 242800, Note_on_c, 7, 75, 95
9, 242800, Note_on_c, 7, 72, 66
9, 242820, Note_on_c, 7, 72, 0
9, 242820, Note_on_c, 7, 75, 0
9, 242820, Note_on_c, 7, 71, 90
9, 242820, Note_on_c, 7, 74, 94
9, 242840, Note_on_c, 7, 74, 0
9, 242840, Note_on_c, 7, 71, 0
9, 242840, Note_on_c, 7, 75, 94
9, 242840, Note_on_c, 7, 72, 64
9, 242860, Note_on_c, 7, 72, 0
9, 242860, Note_on_c, 7, 75, 0
9, 242860, Note_on_c, 7, 71, 90
9, 242860, Note_on_c, 7, 74, 93
9, 242880, Note_on_c, 7, 74, 0
9, 242880, Note_on_c, 7, 71, 0
9, 242880, Note_on_c, 7, 60, 0
9, 242880, Note_on_c, 7, 86, 95
9, 242880, Note_on_c, 7, 59, 101
9, 242880, Note_on_c, 7, 71, 99
9, 242880, Note_on_c, 7, 74, 90
9, 242900, Note_on_c, 7, 74, 0
9, 242900, Note_on_c, 7, 71, 0
9, 242900, Note_on_c, 7, 75, 90
9, 242900, Note_on_c, 7, 72, 68
9, 242920, Note_on_c, 7, 72, 0
9, 242920, Note_on_c, 7, 75, 0
9, 242920, Note_on_c, 7, 71, 95
9, 242920, Note_on_c, 7, 74, 86
9, 242940, Note_on_c, 7, 74, 0
9, 242940, Note_on_c, 7, 71, 0
9, 242940, Note_on_c, 7, 75, 89
9, 242940, Note_on_c, 7, 72, 69
9, 242960, Note_on_c, 7, 72, 0
9, 242960, Note_on_c, 7, 75, 0
9, 242960, Note_on_c, 7, 71, 94
9, 242960, Note_on_c, 7, 74, 93
9, 242980, Note_on_c, 7, 74, 0
9, 242980, Note_on_c, 7, 71, 0
9, 242980, Note_on_c, 7, 72, 68
9, 242980, Note_on_c, 7, 75, 89
9, 243000, Note_on_c, 7, 75, 0
9, 243000, Note_on_c, 7, 72, 0
9, 243000, Note_on_c, 7, 59, 0
9, 243000, Note_on_c, 7, 71, 94
9, 243000, Note_on_c, 7, 74, 94
9, 243015, Note_on_c, 7, 74, 0
9, 243015, Note_on_c, 7, 71, 0
9, 243015, Note_on_c, 7, 75, 94
9, 243015, Note_on_c, 7, 72, 63
9, 243035, Note_on_c, 7, 72, 0
9, 243035, Note_on_c, 7, 75, 0
9, 243035, Note_on_c, 7, 71, 95
9, 243035, Note_on_c, 7, 74, 89
9, 243055, Note_on_c, 7, 74, 0
9, 243055, Note_on_c, 7, 71, 0
9, 243055, Note_on_c, 7, 75, 89
9, 243055, Note_on_c, 7, 72, 62
9, 243060, Note_on_c, 7, 86, 0
9, 243060, Note_on_c, 7, 84, 84
9, 243075, Note_on_c, 7, 72, 0
9, 243075, Note_on_c, 7, 75, 0
9, 243075, Note_on_c, 7, 71, 89
9, 243075, Note_on_c, 7, 74, 84
9, 243095, Note_on_c, 7, 74, 0
9, 243095, Note_on_c, 7, 71, 0
9, 243095, Note_on_c, 7, 75, 93
9, 243095, Note_on_c, 7, 72, 66
9, 243115, Note_on_c, 7, 72, 0
9, 243115, Note_on_c, 7, 75, 0
9, 243115, Note_on_c, 7, 71, 94
9, 243115, Note_on_c, 7, 74, 86
9, 243120, Note_on_c, 7, 84, 0
9, 243120, Note_on_c, 7, 83, 95
9, 243135, Note_on_c, 7, 74, 0
9, 243135, Note_on_c, 7, 71, 0
9, 243135, Note_on_c, 7, 75, 89
9, 243135, Note_on_c, 7, 72, 64
9, 243150, Note_on_c, 7, 72, 0
9, 243150, Note_on_c, 7, 75, 0
9, 243150, Note_on_c, 7, 71, 95
9, 243150, Note_on_c, 7, 74, 95
9, 243170, Note_on_c, 7, 74, 0
9, 243170, Note_on_c, 7, 71, 0
9, 243170, Note_on_c, 7, 75, 93
9, 243170, Note_on_c, 7, 72, 62
9, 243190, Note_on_c, 7, 72, 0
9, 243190, Note_on_c, 7, 75, 0
9, 243190, Note_on_c, 7, 71, 94
9, 243190, Note_on_c, 7, 74, 90
9, 243210, Note_on_c, 7, 74, 0
9, 243210, Note_on_c, 7, 71, 0
9, 243210, Note_on_c, 7, 75, 93
9, 243210, Note_on_c, 7, 72, 67
9, 243230, Note_on_c, 7, 72, 0
9, 243230, Note_on_c, 7, 75, 0
9, 243230, Note_on_c, 7, 71, 94
9, 243230, Note_on_c, 7, 74, 98
9, 243240, Note_on_c, 7, 83, 0
9, 243240, Note_on_c, 7, 80, 90
9, 243250, Note_on_c, 7, 74, 0
9, 243250, Note_on_c, 7, 71, 0
9, 243250, Note_on_c, 7, 72, 57
9, 243250, Note_on_c, 7, 75, 94
9, 243265, Note_on_c, 7, 75, 0
9, 243265, Note_on_c, 7, 72, 0
9, 243265, Note_on_c, 7, 71, 101
9, 243265, Note_on_c, 7, 74, 94
9, 243280, Note_on_c, 7, 74, 0
9, 243280, Note_on_c, 7, 71, 0
9, 243280, Note_on_c, 7, 75, 95
9, 243280, Note_on_c, 7, 72, 66
9, 243300, Note_on_c, 7, 72, 0
9, 243300, Note_on_c, 7, 75, 0
9, 243300, Note_on_c, 7, 71, 90
9, 243300, Note_on_c, 7, 74, 94
9, 243320, Note_on_c, 7, 74, 0
9, 243320, Note_on_c, 7, 71, 0
9, 243320, Note_on_c, 7, 75, 94
9, 243320, Note_on_c, 7, 72, 64
9, 243340, Note_on_c, 7, 72, 0
9, 243340, Note_on_c, 7, 75, 0
9, 243340, Note_on_c, 7, 71, 90
9, 243340, Note_on_c, 7, 74, 93
9, 243360, Note_on_c, 7, 74, 0
9, 243360, Note_on_c, 7, 71, 0
9, 243360, Note_on_c, 7, 80, 0
9, 243360, Note_on_c, 7, 79, 94
9, 243360, Note_on_c, 7, 65, 93
9, 243360, Note_on_c, 7, 71, 99
9, 243360, Note_on_c, 7, 74, 90
9, 243380, Note_on_c, 7, 74, 0
9, 243380, Note_on_c, 7, 71, 0
9, 243380, Note_on_c, 7, 75, 90
9, 243380, Note_on_c, 7, 72, 68
9, 243400, Note_on_c, 7, 72, 0
9, 243400, Note_on_c, 7, 75, 0
9, 243400, Note_on_c, 7, 71, 95
9, 243400, Note_on_c, 7, 74, 86
9, 243420, Note_on_c, 7, 74, 0
9, 243420, Note_on_c, 7, 71, 0
9, 243420, Note_on_c, 7, 75, 89
9, 243420, Note_on_c, 7, 72, 69
9, 243440, Note_on_c, 7, 72, 0
9, 243440, Note_on_c, 7, 75, 0
9, 243440, Note_on_c, 7, 71, 94
9, 243440, Note_on_c, 7, 74, 93
9, 243460, Note_on_c, 7, 74, 0
9, 243460, Note_on_c, 7, 71, 0
9, 243460, Note_on_c, 7, 72, 68
9, 243460, Note_on_c, 7, 75, 89
9, 243480, Note_on_c, 7, 75, 0
9, 243480, Note_on_c, 7, 72, 0
9, 243480, Note_on_c, 7, 79, 0
9, 243480, Note_on_c, 7, 71, 94
9, 243480, Note_on_c, 7, 74, 94
9, 243495, Note_on_c, 7, 74, 0
9, 243495, Note_on_c, 7, 71, 0
9, 243495, Note_on_c, 7, 75, 94
9, 243495, Note_on_c, 7, 72, 63
9, 243515, Note_on_c, 7, 72, 0
9, 243515, Note_on_c, 7, 75, 0
9, 243515, Note_on_c, 7, 71, 95
9, 243515, Note_on_c, 7, 74, 89
9, 243535, Note_on_c, 7, 74, 0
9, 243535, Note_on_c, 7, 71, 0
9, 243535, Note_on_c, 7, 75, 89
9, 243535, Note_on_c, 7, 72, 62
9, 243540, Note_on_c, 7, 65, 0
9, 243540, Note_on_c, 7, 63, 86
9, 243555, Note_on_c, 7, 72, 0
9, 243555, Note_on_c, 7, 75, 0
9, 243555, Note_on_c, 7, 71, 89
9, 243555, Note_on_c, 7, 74, 84
9, 243575, Note_on_c, 7, 74, 0
9, 243575, Note_on_c, 7, 71, 0
9, 243575, Note_on_c, 7, 75, 93
9, 243575, Note_on_c, 7, 72, 66
9, 243595, Note_on_c, 7, 72, 0
9, 243595, Note_on_c, 7, 75, 0
9, 243595, Note_on_c, 7, 71, 94
9, 243595, Note_on_c, 7, 74, 86
9, 243600, Note_on_c, 7, 63, 0
9, 243600, Note_on_c, 7, 62, 95
9, 243615, Note_on_c, 7, 74, 0
9, 243615, Note_on_c, 7, 71, 0
9, 243615, Note_on_c, 7, 75, 89
9, 243615, Note_on_c, 7, 72, 64
9, 243630, Note_on_c, 7, 72, 0
9, 243630, Note_on_c, 7, 75, 0
9, 243630, Note_on_c, 7, 71, 95
9, 243630, Note_on_c, 7, 74, 95
9, 243650, Note_on_c, 7, 74, 0
9, 243650, Note_on_c, 7, 71, 0
9, 243650, Note_on_c, 7, 75, 93
9, 243650, Note_on_c, 7, 72, 62
9, 243670, Note_on_c, 7, 72, 0
9, 243670, Note_on_c, 7, 75, 0
9, 243670, Note_on_c, 7, 71, 94
9, 243670, Note_on_c, 7, 74, 90
9, 243690, Note_on_c, 7, 74, 0
9, 243690, Note_on_c, 7, 71, 0
9, 243690, Note_on_c, 7, 75, 93
9, 243690, Note_on_c, 7, 72, 67
9, 243710, Note_on_c, 7, 72, 0
9, 243710, Note_on_c, 7, 75, 0
9, 243710, Note_on_c, 7, 71, 94
9, 243710, Note_on_c, 7, 74, 98
9, 243720, Note_on_c, 7, 62, 0
9, 243720, Note_on_c, 7, 60, 94
9, 243730, Note_on_c, 7, 74, 0
9, 243730, Note_on_c, 7, 71, 0
9, 243730, Note_on_c, 7, 72, 57
9, 243730, Note_on_c, 7, 75, 94
9, 243745, Note_on_c, 7, 75, 0
9, 243745, Note_on_c, 7, 72, 0
9, 243745, Note_on_c, 7, 71, 101
9, 243745, Note_on_c, 7, 74, 94
9, 243760, Note_on_c, 7, 74, 0
9, 243760, Note_on_c, 7, 71, 0
9, 243760, Note_on_c, 7, 75, 95
9, 243760, Note_on_c, 7, 72, 66
9, 243780, Note_on_c, 7, 72, 0
9, 243780, Note_on_c, 7, 75, 0
9, 243780, Note_on_c, 7, 71, 90
9, 243780, Note_on_c, 7, 74, 94
9, 243800, Note_on_c, 7, 74, 0
9, 243800, Note_on_c, 7, 71, 0
9, 243800, Note_on_c, 7, 75, 94
9, 243800, Note_on_c, 7, 72, 64
9, 243820, Note_on_c, 7, 72, 0
9, 243820, Note_on_c, 7, 75, 0
9, 243820, Note_on_c, 7, 71, 90
9, 243820, Note_on_c, 7, 74, 93
9, 243840, Note_on_c, 7, 74, 0
9, 243840, Note_on_c, 7, 71, 0
9, 243840, Note_on_c, 7, 60, 0
9, 243840, Note_on_c, 7, 59, 95
9, 243840, Note_on_c, 7, 71, 99
9, 243840, Note_on_c, 7, 74, 90
9, 243840, Note_on_c, 7, 79, 90
9, 243860, Note_on_c, 7, 79, 0
9, 243860, Note_on_c, 7, 74, 0
9, 243860, Note_on_c, 7, 71, 0
9, 243860, Note_on_c, 7, 75, 90
9, 243860, Note_on_c, 7, 72, 68
9, 243860, Note_on_c, 7, 80, 76
9, 243880, Note_on_c, 7, 80, 0
9, 243880, Note_on_c, 7, 72, 0
9, 243880, Note_on_c, 7, 75, 0
9, 243880, Note_on_c, 7, 71, 95
9, 243880, Note_on_c, 7, 74, 86
9, 243880, Note_on_c, 7, 79, 84
9, 243900, Note_on_c, 7, 79, 0
9, 243900, Note_on_c, 7, 74, 0
9, 243900, Note_on_c, 7, 71, 0
9, 243900, Note_on_c, 7, 75, 89
9, 243900, Note_on_c, 7, 72, 69
9, 243900, Note_on_c, 7, 80, 89
9, 243920, Note_on_c, 7, 80, 0
9, 243920, Note_on_c, 7, 72, 0
9, 243920, Note_on_c, 7, 75, 0
9, 243920, Note_on_c, 7, 71, 94
9, 243920, Note_on_c, 7, 74, 93
9, 243920, Note_on_c, 7, 79, 85
9, 243940, Note_on_c, 7, 79, 0
9, 243940, Note_on_c, 7, 74, 0
9, 243940, Note_on_c, 7, 71, 0
9, 243940, Note_on_c, 7, 72, 68
9, 243940, Note_on_c, 7, 75, 89
9, 243940, Note_on_c, 7, 80, 85
9, 243960, Note_on_c, 7, 80, 0
9, 243960, Note_on_c, 7, 59, 0
9, 243960, Note_on_c, 7, 72, 0
9, 243960, Note_on_c, 7, 75, 0
9, 243960, Note_on_c, 7, 71, 94
9, 243960, Note_on_c, 7, 74, 94
9, 243960, Note_on_c, 7, 79, 95
9, 243975, Note_on_c, 7, 79, 0
9, 243975, Note_on_c, 7, 74, 0
9, 243975, Note_on_c, 7, 71, 0
9, 243975, Note_on_c, 7, 75, 94
9, 243975, Note_on_c, 7, 72, 63
9, 243975, Note_on_c, 7, 80, 89
9, 243995, Note_on_c, 7, 80, 0
9, 243995, Note_on_c, 7, 72, 0
9, 243995, Note_on_c, 7, 75, 0
9, 243995, Note_on_c, 7, 71, 95
9, 243995, Note_on_c, 7, 74, 89
9, 243995, Note_on_c, 7, 79, 89
9, 244015, Note_on_c, 7, 79, 0
9, 244015, Note_on_c, 7, 74, 0
9, 244015, Note_on_c, 7, 71, 0
9, 244015, Note_on_c, 7, 75, 89
9, 244015, Note_on_c, 7, 72, 62
9, 244015, Note_on_c, 7, 80, 84
9, 244035, Note_on_c, 7, 80, 0
9, 244035, Note_on_c, 7, 72, 0
9, 244035, Note_on_c, 7, 75, 0
9, 244035, Note_on_c, 7, 71, 89
9, 244035, Note_on_c, 7, 74, 84
9, 244035, Note_on_c, 7, 79, 86
9, 244055, Note_on_c, 7, 79, 0
9, 244055, Note_on_c, 7, 74, 0
9, 244055, Note_on_c, 7, 71, 0
9, 244055, Note_on_c, 7, 75, 93
9, 244055, Note_on_c, 7, 72, 66
9, 244055, Note_on_c, 7, 80, 84
9, 244075, Note_on_c, 7, 80, 0
9, 244075, Note_on_c, 7, 72, 0
9, 244075, Note_on_c, 7, 75, 0
9, 244075, Note_on_c, 7, 71, 94
9, 244075, Note_on_c, 7, 74, 86
9, 244075, Note_on_c, 7, 79, 86
9, 244095, Note_on_c, 7, 79, 0
9, 244095, Note_on_c, 7, 74, 0
9, 244095, Note_on_c, 7, 71, 0
9, 244095, Note_on_c, 7, 75, 89
9, 244095, Note_on_c, 7, 72, 64
9, 244095, Note_on_c, 7, 80, 89
9, 244110, Note_on_c, 7, 80, 0
9, 244110, Note_on_c, 7, 72, 0
9, 244110, Note_on_c, 7, 75, 0
9, 244110, Note_on_c, 7, 71, 95
9, 244110, Note_on_c, 7, 74, 95
9, 244110, Note_on_c, 7, 79, 89
9, 244130, Note_on_c, 7, 79, 0
9, 244130, Note_on_c, 7, 74, 0
9, 244130, Note_on_c, 7, 71, 0
9, 244130, Note_on_c, 7, 75, 93
9, 244130, Note_on_c, 7, 72, 62
9, 244130, Note_on_c, 7, 80, 82
9, 244150, Note_on_c, 7, 80, 0
9, 244150, Note_on_c, 7, 72, 0
9, 244150, Note_on_c, 7, 75, 0
9, 244150, Note_on_c, 7, 71, 94
9, 244150, Note_on_c, 7, 74, 90
9, 244150, Note_on_c, 7, 79, 90
9, 244170, Note_on_c, 7, 79, 0
9, 244170, Note_on_c, 7, 74, 0
9, 244170, Note_on_c, 7, 71, 0
9, 244170, Note_on_c, 7, 75, 93
9, 244170, Note_on_c, 7, 72, 67
9, 244170, Note_on_c, 7, 80, 89
9, 244190, Note_on_c, 7, 80, 0
9, 244190, Note_on_c, 7, 72, 0
9, 244190, Note_on_c, 7, 75, 0
9, 244190, Note_on_c, 7, 71, 94
9, 244190, Note_on_c, 7, 74, 98
9, 244190, Note_on_c, 7, 79, 84
9, 244210, Note_on_c, 7, 79, 0
9, 244210, Note_on_c, 7, 74, 0
9, 244210, Note_on_c, 7, 71, 0
9, 244210, Note_on_c, 7, 72, 57
9, 244210, Note_on_c, 7, 75, 94
9, 244210, Note_on_c, 7, 80, 89
9, 244225, Note_on_c, 7, 75, 0
9, 244225, Note_on_c, 7, 72, 0
9, 244225, Note_on_c, 7, 71, 101
9, 244225, Note_on_c, 7, 74, 94
9, 244230, Note_on_c, 7, 80, 0
9, 244230, Note_on_c, 7, 79, 86
9, 244240, Note_on_c, 7, 74, 0
9, 244240, Note_on_c, 7, 71, 0
9, 244240, Note_on_c, 7, 75, 95
9, 244240, Note_on_c, 7, 72, 66
9, 244245, Note_on_c, 7, 79, 0
9, 244245, Note_on_c, 7, 80, 89
9, 244260, Note_on_c, 7, 72, 0
9, 244260, Note_on_c, 7, 75, 0
9, 244260, Note_on_c, 7, 71, 90
9, 244260, Note_on_c, 7, 74, 94
9, 244265, Note_on_c, 7, 80, 0
9, 244265, Note_on_c, 7, 79, 90
9, 244280, Note_on_c, 7, 74, 0
9, 244280, Note_on_c, 7, 71, 0
9, 244280, Note_on_c, 7, 75, 94
9, 244280, Note_on_c, 7, 72, 64
9, 244285, Note_on_c, 7, 79, 0
9, 244285, Note_on_c, 7, 80, 86
9, 244300, Note_on_c, 7, 72, 0
9, 244300, Note_on_c, 7, 75, 0
9, 244300, Note_on_c, 7, 71, 90
9, 244300, Note_on_c, 7, 74, 93
9, 244305, Note_on_c, 7, 80, 0
9, 244305, Note_on_c, 7, 79, 95
9, 244320, Note_on_c, 7, 74, 0
9, 244320, Note_on_c, 7, 71, 0
9, 244320, Note_on_c, 7, 80, 77
9, 244320, Note_on_c, 7, 75, 89
9, 244320, Note_on_c, 7, 72, 65
9, 244325, Note_on_c, 7, 79, 0
9, 244440, Note_on_c, 7, 80, 0
9, 244440, Note_on_c, 7, 75, 0
9, 244440, Note_on_c, 7, 72, 0
9, 244440, Note_on_c, 7, 71, 66
9, 244440, Note_on_c, 7, 79, 46
9, 244440, Note_on_c, 7, 74, 43
9, 244500, Note_on_c, 7, 74, 0
9, 244500, Note_on_c, 7, 79, 0
9, 244500, Note_on_c, 7, 71, 0
9, 244560, Note_on_c, 7, 72, 63
9, 244560, Note_on_c, 7, 75, 76
9, 244560, Note_on_c, 7, 80, 74
9, 244680, Note_on_c, 7, 80, 0
9, 244680, Note_on_c, 7, 75, 0
9, 244680, Note_on_c, 7, 72, 0
9, 244680, Note_on_c, 7, 71, 62
9, 244680, Note_on_c, 7, 79, 46
9, 244680, Note_on_c, 7, 74, 47
9, 244740, Note_on_c, 7, 74, 0
9, 244740, Note_on_c, 7, 79, 0
9, 244740, Note_on_c, 7, 71, 0
9, 244800, Note_on_c, 7, 72, 66
9, 244800, Note_on_c, 7, 75, 55
9, 244800, Note_on_c, 7, 80, 59
9, 244920, Note_on_c, 7, 80, 0
9, 244920, Note_on_c, 7, 75, 0
9, 244920, Note_on_c, 7, 72, 0
9, 244920, Note_on_c, 7, 70, 73
9, 244920, Note_on_c, 7, 79, 53
9, 244920, Note_on_c, 7, 74, 44
9, 244980, Note_on_c, 7, 74, 0
9, 244980, Note_on_c, 7, 79, 0
9, 244980, Note_on_c, 7, 70, 0
9, 245040, Note_on_c, 7, 68, 81
9, 245040, Note_on_c, 7, 77, 68
9, 245040, Note_on_c, 7, 72, 35
9, 245040, Note_on_c, 7, 72, 46
9, 245160, Note_on_c, 7, 72, 0
9, 245160, Note_on_c, 7, 68, 0
9, 245160, Note_on_c, 7, 77, 0
9, 245160, Note_on_c, 7, 72, 0
9, 245160, Note_on_c, 7, 67, 76
9, 245160, Note_on_c, 7, 75, 80
9, 245160, Note_on_c, 7, 72, 45
9, 245160, Note_on_c, 7, 72, 62
9, 245220, Note_on_c, 7, 72, 0
9, 245220, Note_on_c, 7, 67, 0
9, 245220, Note_on_c, 7, 75, 0
9, 245220, Note_on_c, 7, 72, 0
9, 245280, Note_on_c, 7, 72, 61
9, 245280, Note_on_c, 7, 68, 81
9, 245280, Note_on_c, 7, 77, 81
9, 245400, Note_on_c, 7, 77, 0
9, 245400, Note_on_c, 7, 68, 0
9, 245400, Note_on_c, 7, 72, 0
9, 245400, Note_on_c, 7, 72, 56
9, 245400, Note_on_c, 7, 75, 85
9, 245400, Note_on_c, 7, 67, 76
9, 245460, Note_on_c, 7, 67, 0
9, 245460, Note_on_c, 7, 75, 0
9, 245460, Note_on_c, 7, 72, 0
9, 245520, Note_on_c, 7, 72, 61
9, 245520, Note_on_c, 7, 68, 89
9, 245520, Note_on_c, 7, 77, 95
9, 245640, Note_on_c, 7, 77, 0
9, 245640, Note_on_c, 7, 68, 0
9, 245640, Note_on_c, 7, 72, 0
9, 245640, Note_on_c, 7, 72, 60
9, 245640, Note_on_c, 7, 65, 99
9, 245640, Note_on_c, 7, 74, 101
9, 245700, Note_on_c, 7, 74, 0
9, 245700, Note_on_c, 7, 65, 0
9, 245700, Note_on_c, 7, 72, 0
9, 245760, Note_on_c, 7, 55, 72
9, 245760, Note_on_c, 7, 65, 73
9, 245760, Note_on_c, 7, 59, 84
9, 245760, Note_on_c, 7, 74, 90
9, 245780, Note_on_c, 7, 74, 0
9, 245780, Note_on_c, 7, 75, 81
9, 245800, Note_on_c, 7, 75, 0
9, 245800, Note_on_c, 7, 74, 90
9, 245820, Note_on_c, 7, 74, 0
9, 245820, Note_on_c, 7, 75, 94
9, 245840, Note_on_c, 7, 75, 0
9, 245840, Note_on_c, 7, 74, 101
9, 245860, Note_on_c, 7, 74, 0
9, 245860, Note_on_c, 7, 75, 98
9, 245880, Note_on_c, 7, 75, 0
9, 245880, Note_on_c, 7, 59, 0
9, 245880, Note_on_c, 7, 65, 0
9, 245880, Note_on_c, 7, 55, 0
9, 245880, Note_on_c, 7, 74, 95
9, 245900, Note_on_c, 7, 74, 0
9, 245900, Note_on_c, 7, 75, 93
9, 245920, Note_on_c, 7, 75, 0
9, 245920, Note_on_c, 7, 74, 77
9, 245940, Note_on_c, 7, 74, 0
9, 245940, Note_on_c, 7, 75, 80
9, 245960, Note_on_c, 7, 75, 0
9, 245960, Note_on_c, 7, 74, 94
9, 245980, Note_on_c, 7, 74, 0
9, 245980, Note_on_c, 7, 75, 78
9, 246000, Note_on_c, 7, 75, 0
9, 246000, Note_on_c, 7, 74, 81
9, 246020, Note_on_c, 7, 74, 0
9, 246020, Note_on_c, 7, 75, 72
9, 246040, Note_on_c, 7, 75, 0
9, 246040, Note_on_c, 7, 74, 63
9, 246060, Note_on_c, 7, 74, 0
9, 246060, Note_on_c, 7, 75, 72
9, 246080, Note_on_c, 7, 75, 0
9, 246080, Note_on_c, 7, 74, 71
9, 246100, Note_on_c, 7, 74, 0
9, 246100, Note_on_c, 7, 75, 74
9, 246120, Note_on_c, 7, 75, 0
9, 246120, Note_on_c, 7, 74, 73
9, 246140, Note_on_c, 7, 74, 0
9, 246140, Note_on_c, 7, 75, 84
9, 246160, Note_on_c, 7, 75, 0
9, 246160, Note_on_c, 7, 74, 66
9, 246180, Note_on_c, 7, 74, 0
9, 246180, Note_on_c, 7, 75, 73
9, 246200, Note_on_c, 7, 75, 0
9, 246200, Note_on_c, 7, 74, 53
9, 246220, Note_on_c, 7, 74, 0
9, 246220, Note_on_c, 7, 75, 67
9, 246240, Note_on_c, 7, 75, 0
9, 246240, Note_on_c, 7, 74, 86
9, 246260, Note_on_c, 7, 74, 0
9, 246260, Note_on_c, 7, 76, 86
9, 246280, Note_on_c, 7, 76, 0
9, 246280, Note_on_c, 7, 74, 85
9, 246300, Note_on_c, 7, 74, 0
9, 246300, Note_on_c, 7, 76, 81
9, 246320, Note_on_c, 7, 76, 0
9, 246320, Note_on_c, 7, 74, 84
9, 246340, Note_on_c, 7, 74, 0
9, 246340, Note_on_c, 7, 76, 85
9, 246360, Note_on_c, 7, 76, 0
9, 246360, Note_on_c, 7, 74, 84
9, 246380, Note_on_c, 7, 74, 0
9, 246380, Note_on_c, 7, 76, 73
9, 246400, Note_on_c, 7, 76, 0
9, 246400, Note_on_c, 7, 74, 76
9, 246420, Note_on_c, 7, 74, 0
9, 246420, Note_on_c, 7, 76, 76
9, 246440, Note_on_c, 7, 76, 0
9, 246440, Note_on_c, 7, 74, 71
9, 246460, Note_on_c, 7, 74, 0
9, 246460, Note_on_c, 7, 76, 84
9, 246480, Note_on_c, 7, 76, 0
9, 246480, Note_on_c, 7, 74, 84
9, 246500, Note_on_c, 7, 74, 0
9, 246500, Note_on_c, 7, 76, 82
9, 246520, Note_on_c, 7, 76, 0
9, 246520, Note_on_c, 7, 74, 78
9, 246540, Note_on_c, 7, 74, 0
9, 246540, Note_on_c, 7, 76, 76
9, 246560, Note_on_c, 7, 76, 0
9, 246560, Note_on_c, 7, 74, 81
9, 246580, Note_on_c, 7, 74, 0
9, 246580, Note_on_c, 7, 76, 85
9, 246600, Note_on_c, 7, 76, 0
9, 246600, Note_on_c, 7, 74, 80
9, 246620, Note_on_c, 7, 74, 0
9, 246620, Note_on_c, 7, 76, 77
9, 246640, Note_on_c, 7, 76, 0
9, 246640, Note_on_c, 7, 74, 82
9, 246660, Note_on_c, 7, 74, 0
9, 246660, Note_on_c, 7, 76, 80
9, 246680, Note_on_c, 7, 76, 0
9, 246680, Note_on_c, 7, 74, 81
9, 246700, Note_on_c, 7, 74, 0
9, 246700, Note_on_c, 7, 76, 82
9, 246720, Note_on_c, 7, 76, 0
9, 246720, Note_on_c, 7, 75, 82
9, 246740, Note_on_c, 7, 75, 0
9, 246740, Note_on_c, 7, 76, 94
9, 246760, Note_on_c, 7, 76, 0
9, 246760, Note_on_c, 7, 75, 89
9, 246780, Note_on_c, 7, 75, 0
9, 246780, Note_on_c, 7, 76, 84
9, 246800, Note_on_c, 7, 76, 0
9, 246800, Note_on_c, 7, 75, 86
9, 246820, Note_on_c, 7, 75, 0
9, 246820, Note_on_c, 7, 76, 93
9, 246840, Note_on_c, 7, 76, 0
9, 246840, Note_on_c, 7, 75, 81
9, 246860, Note_on_c, 7, 75, 0
9, 246860, Note_on_c, 7, 76, 84
9, 246880, Note_on_c, 7, 76, 0
9, 246880, Note_on_c, 7, 75, 89
9, 246900, Note_on_c, 7, 75, 0
9, 246900, Note_on_c, 7, 76, 95
9, 246920, Note_on_c, 7, 76, 0
9, 246920, Note_on_c, 7, 75, 89
9, 246940, Note_on_c, 7, 75, 0
9, 246940, Note_on_c, 7, 76, 94
9, 246960, Note_on_c, 7, 76, 0
9, 246960, Note_on_c, 7, 75, 80
9, 246980, Note_on_c, 7, 75, 0
9, 246980, Note_on_c, 7, 76, 81
9, 247000, Note_on_c, 7, 76, 0
9, 247000, Note_on_c, 7, 75, 80
9, 247020, Note_on_c, 7, 75, 0
9, 247020, Note_on_c, 7, 76, 84
9, 247040, Note_on_c, 7, 76, 0
9, 247040, Note_on_c, 7, 75, 84
9, 247060, Note_on_c, 7, 75, 0
9, 247060, Note_on_c, 7, 76, 89
9, 247080, Note_on_c, 7, 76, 0
9, 247080, Note_on_c, 7, 75, 89
9, 247100, Note_on_c, 7, 75, 0
9, 247100, Note_on_c, 7, 76, 81
9, 247120, Note_on_c, 7, 76, 0
9, 247120, Note_on_c, 7, 75, 86
9, 247140, Note_on_c, 7, 75, 0
9, 247140, Note_on_c, 7, 76, 84
9, 247160, Note_on_c, 7, 76, 0
9, 247160, Note_on_c, 7, 75, 81
9, 247180, Note_on_c, 7, 75, 0
9, 247180, Note_on_c, 7, 76, 93
9, 247200, Note_on_c, 7, 76, 0
9, 247200, Note_on_c, 7, 76, 84
9, 247220, Note_on_c, 7, 76, 0
9, 247220, Note_on_c, 7, 77, 67
9, 247240, Note_on_c, 7, 77, 0
9, 247240, Note_on_c, 7, 76, 67
9, 247260, Note_on_c, 7, 76, 0
9, 247260, Note_on_c, 7, 77, 61
9, 247280, Note_on_c, 7, 77, 0
9, 247280, Note_on_c, 7, 76, 64
9, 247300, Note_on_c, 7, 76, 0
9, 247300, Note_on_c, 7, 77, 45
9, 247320, Note_on_c, 7, 77, 0
9, 247320, Note_on_c, 7, 76, 43
9, 247340, Note_on_c, 7, 76, 0
9, 247340, Note_on_c, 7, 77, 45
9, 247360, Note_on_c, 7, 77, 0
9, 247360, Note_on_c, 7, 76, 67
9, 247380, Note_on_c, 7, 76, 0
9, 247380, Note_on_c, 7, 77, 50
9, 247400, Note_on_c, 7, 77, 0
9, 247400, Note_on_c, 7, 76, 61
9, 247420, Note_on_c, 7, 76, 0
9, 247420, Note_on_c, 7, 77, 52
9, 247440, Note_on_c, 7, 77, 0
9, 247440, Note_on_c, 7, 76, 64
9, 247460, Note_on_c, 7, 76, 0
9, 247460, Note_on_c, 7, 77, 50
9, 247480, Note_on_c, 7, 77, 0
9, 247480, Note_on_c, 7, 76, 49
9, 247500, Note_on_c, 7, 76, 0
9, 247500, Note_on_c, 7, 77, 48
9, 247520, Note_on_c, 7, 77, 0
9, 247520, Note_on_c, 7, 76, 45
9, 247540, Note_on_c, 7, 76, 0
9, 247540, Note_on_c, 7, 77, 43
9, 247560, Note_on_c, 7, 77, 0
9, 247560, Note_on_c, 7, 76, 62
9, 247580, Note_on_c, 7, 76, 0
9, 247580, Note_on_c, 7, 77, 44
9, 247600, Note_on_c, 7, 77, 0
9, 247600, Note_on_c, 7, 76, 54
9, 247620, Note_on_c, 7, 76, 0
9, 247620, Note_on_c, 7, 77, 48
9, 247640, Note_on_c, 7, 77, 0
9, 247640, Note_on_c, 7, 76, 63
9, 247660, Note_on_c, 7, 76, 0
9, 247660, Note_on_c, 7, 77, 45
9, 247680, Note_on_c, 7, 77, 0
9, 247680, Note_on_c, 7, 67, 43
9, 247680, Note_on_c, 7, 64, 61
9, 247680, Note_on_c, 7, 70, 55
9, 247680, Note_on_c, 7, 60, 43
9, 247680, Note_on_c, 7, 76, 61
9, 247680, Note_on_c, 7, 55, 48
9, 247680, Note_on_c, 7, 58, 29
9, 247800, Note_on_c, 7, 58, 0
9, 247800, Note_on_c, 7, 76, 0
9, 247800, Note_on_c, 7, 64, 0
9, 247800, Note_on_c, 7, 70, 0
9, 247800, Note_on_c, 7, 67, 0
9, 247800, Note_on_c, 7, 55, 0
9, 247800, Note_on_c, 7, 60, 0
9, 248155, Control_c, 7, 64, 95
9, 248160, Note_on_c, 7, 70, 43
9, 248160, Note_on_c, 7, 82, 41
9, 248190, Note_on_c, 7, 82, 0
9, 248190, Note_on_c, 7, 70, 0
9, 248190, Note_on_c, 7, 85, 48
9, 248190, Note_on_c, 7, 73, 46
9, 248220, Note_on_c, 7, 73, 0
9, 248220, Note_on_c, 7, 85, 0
9, 248220, Note_on_c, 7, 82, 44
9, 248220, Note_on_c, 7, 70, 34
9, 248250, Note_on_c, 7, 70, 0
9, 248250, Note_on_c, 7, 82, 0
9, 248250, Note_on_c, 7, 79, 64
9, 248250, Note_on_c, 7, 67, 64
9, 248280, Note_on_c, 7, 67, 0
9, 248280, Note_on_c, 7, 79, 0
9, 248280, Note_on_c, 7, 76, 49
9, 248280, Note_on_c, 7, 64, 57
9, 248310, Note_on_c, 7, 64, 0
9, 248310, Note_on_c, 7, 76, 0
9, 248310, Note_on_c, 7, 70, 51
9, 248310, Note_on_c, 7, 82, 29
9, 248340, Note_on_c, 7, 82, 0
9, 248340, Note_on_c, 7, 70, 0
9, 248340, Note_on_c, 7, 79, 49
9, 248340, Note_on_c, 7, 67, 61
9, 248370, Note_on_c, 7, 67, 0
9, 248370, Note_on_c, 7, 79, 0
9, 248370, Note_on_c, 7, 64, 56
9, 248370, Note_on_c, 7, 76, 45
9, 248400, Note_on_c, 7, 76, 0
9, 248400, Note_on_c, 7, 64, 0
9, 248400, Note_on_c, 7, 73, 61
9, 248400, Note_on_c, 7, 61, 40
9, 248430, Note_on_c, 7, 61, 0
9, 248430, Note_on_c, 7, 73, 0
9, 248430, Note_on_c, 7, 67, 46
9, 248430, Note_on_c, 7, 79, 53
9, 248460, Note_on_c, 7, 79, 0
9, 248460, Note_on_c, 7, 67, 0
9, 248460, Note_on_c, 7, 76, 51
9, 248460, Note_on_c, 7, 64, 43
9, 248490, Note_on_c, 7, 64, 0
9, 248490, Note_on_c, 7, 76, 0
9, 248490, Note_on_c, 7, 73, 57
9, 248490, Note_on_c, 7, 61, 40
9, 248520, Note_on_c, 7, 61, 0
9, 248520, Note_on_c, 7, 73, 0
9, 248520, Note_on_c, 7, 58, 53
9, 248520, Note_on_c, 7, 70, 58
9, 248550, Note_on_c, 7, 70, 0
9, 248550, Note_on_c, 7, 58, 0
9, 248550, Note_on_c, 7, 64, 53
9, 248550, Note_on_c, 7, 76, 65
9, 248580, Note_on_c, 7, 76, 0
9, 248580, Note_on_c, 7, 64, 0
9, 248580, Note_on_c, 7, 61, 44
9, 248580, Note_on_c, 7, 73, 43
9, 248610, Note_on_c, 7, 73, 0
9, 248610, Note_on_c, 7, 61, 0
9, 248610, Note_on_c, 7, 70, 54
9, 248610, Note_on_c, 7, 58, 43
9, 248625, Control_c, 7, 64, 94
9, 248630, Control_c, 7, 64, 63
9, 248635, Control_c, 7, 64, 32
9, 248640, Note_on_c, 7, 58, 0
9, 248640, Note_on_c, 7, 70, 0
9, 248640, Control_c, 7, 64, 0
9, 248640, Note_on_c, 7, 60, 40
9, 248640, Note_on_c, 7, 65, 57
9, 248640, Note_on_c, 7, 69, 39
9, 248640, Note_on_c, 7, 77, 44
9, 248640, Note_on_c, 7, 57, 39
9, 248640, Note_on_c, 7, 72, 29
9, 248760, Note_on_c, 7, 72, 0
9, 248760, Note_on_c, 7, 65, 0
9, 248760, Note_on_c, 7, 69, 0
9, 248760, Note_on_c, 7, 60, 0
9, 248760, Note_on_c, 7, 57, 0
9, 248760, Note_on_c, 7, 77, 0
9, 249120, Control_c, 7, 64, 95
9, 249120, Note_on_c, 7, 71, 43
9, 249120, Note_on_c, 7, 83, 41
9, 249150, Note_on_c, 7, 83, 0
9, 249150, Note_on_c, 7, 71, 0
9, 249150, Note_on_c, 7, 86, 41
9, 249150, Note_on_c, 7, 74, 35
9, 249180, Note_on_c, 7, 74, 0
9, 249180, Note_on_c, 7, 86, 0
9, 249180, Note_on_c, 7, 83, 43
9, 249180, Note_on_c, 7, 71, 45
9, 249210, Note_on_c, 7, 71, 0
9, 249210, Note_on_c, 7, 83, 0
9, 249210, Note_on_c, 7, 68, 62
9, 249210, Note_on_c, 7, 80, 44
9, 249240, Note_on_c, 7, 80, 0
9, 249240, Note_on_c, 7, 68, 0
9, 249240, Note_on_c, 7, 77, 43
9, 249240, Note_on_c, 7, 65, 45
9, 249270, Note_on_c, 7, 65, 0
9, 249270, Note_on_c, 7, 77, 0
9, 249270, Note_on_c, 7, 71, 52
9, 249270, Note_on_c, 7, 83, 45
9, 249300, Note_on_c, 7, 83, 0
9, 249300, Note_on_c, 7, 71, 0
9, 249300, Note_on_c, 7, 80, 33
9, 249300, Note_on_c, 7, 68, 40
9, 249330, Note_on_c, 7, 68, 0
9, 249330, Note_on_c, 7, 80, 0
9, 249330, Note_on_c, 7, 65, 38
9, 249330, Note_on_c, 7, 77, 54
9, 249360, Note_on_c, 7, 77, 0
9, 249360, Note_on_c, 7, 65, 0
9, 249360, Note_on_c, 7, 74, 40
9, 249360, Note_on_c, 7, 62, 35
9, 249390, Note_on_c, 7, 62, 0
9, 249390, Note_on_c, 7, 74, 0
9, 249390, Note_on_c, 7, 68, 53
9, 249390, Note_on_c, 7, 80, 37
9, 249420, Note_on_c, 7, 80, 0
9, 249420, Note_on_c, 7, 68, 0
9, 249420, Note_on_c, 7, 77, 46
9, 249420, Note_on_c, 7, 65, 36
9, 249450, Note_on_c, 7, 65, 0
9, 249450, Note_on_c, 7, 77, 0
9, 249450, Note_on_c, 7, 62, 45
9, 249450, Note_on_c, 7, 74, 60
9, 249480, Note_on_c, 7, 74, 0
9, 249480, Note_on_c, 7, 62, 0
9, 249480, Note_on_c, 7, 80, 43
9, 249480, Note_on_c, 7, 68, 57
9, 249510, Note_on_c, 7, 68, 0
9, 249510, Note_on_c, 7, 80, 0
9, 249510, Note_on_c, 7, 77, 56
9, 249510, Note_on_c, 7, 65, 57
9, 249540, Note_on_c, 7, 65, 0
9, 249540, Note_on_c, 7, 77, 0
9, 249540, Note_on_c, 7, 62, 40
9, 249540, Note_on_c, 7, 74, 61
9, 249570, Note_on_c, 7, 74, 0
9, 249570, Note_on_c, 7, 62, 0
9, 249570, Note_on_c, 7, 71, 45
9, 249570, Note_on_c, 7, 59, 58
9, 249580, Control_c, 7, 64, 92
9, 249585, Control_c, 7, 64, 74
9, 249590, Control_c, 7, 64, 56
9, 249595, Control_c, 7, 64, 37
9, 249600, Note_on_c, 7, 59, 0
9, 249600, Note_on_c, 7, 71, 0
9, 249600, Control_c, 7, 64, 19
9, 249600, Note_on_c, 7, 72, 53
9, 249600, Note_on_c, 7, 60, 43
9, 249605, Control_c, 7, 64, 0
9, 249720, Note_on_c, 7, 60, 0
9, 249720, Note_on_c, 7, 72, 0
9, 249840, Note_on_c, 7, 67, 43
9, 249840, Note_on_c, 7, 70, 57
9, 249840, Note_on_c, 7, 76, 60
9, 249840, Note_on_c, 7, 60, 44
9, 249840, Note_on_c, 7, 64, 53
9, 249840, Note_on_c, 7, 55, 48
9, 249840, Note_on_c, 7, 58, 49
9, 249960, Note_on_c, 7, 58, 0
9, 249960, Note_on_c, 7, 64, 0
9, 249960, Note_on_c, 7, 70, 0
9, 249960, Note_on_c, 7, 76, 0
9, 249960, Note_on_c, 7, 67, 0
9, 249960, Note_on_c, 7, 55, 0
9, 249960, Note_on_c, 7, 60, 0
9, 250080, Control_c, 7, 64, 95
9, 250080, Note_on_c, 7, 70, 60
9, 250080, Note_on_c, 7, 82, 42
9, 250110, Note_on_c, 7, 82, 0
9, 250110, Note_on_c, 7, 70, 0
9, 250110, Note_on_c, 7, 73, 50
9, 250110, Note_on_c, 7, 85, 53
9, 250140, Note_on_c, 7, 85, 0
9, 250140, Note_on_c, 7, 73, 0
9, 250140, Note_on_c, 7, 82, 58
9, 250140, Note_on_c, 7, 70, 59
9, 250170, Note_on_c, 7, 70, 0
9, 250170, Note_on_c, 7, 82, 0
9, 250170, Note_on_c, 7, 67, 61
9, 250170, Note_on_c, 7, 79, 38
9, 250200, Note_on_c, 7, 79, 0
9, 250200, Note_on_c, 7, 67, 0
9, 250200, Note_on_c, 7, 64, 55
9, 250200, Note_on_c, 7, 76, 62
9, 250230, Note_on_c, 7, 76, 0
9, 250230, Note_on_c, 7, 64, 0
9, 250230, Note_on_c, 7, 70, 43
9, 250230, Note_on_c, 7, 82, 33
9, 250260, Note_on_c, 7, 82, 0
9, 250260, Note_on_c, 7, 70, 0
9, 250260, Note_on_c, 7, 79, 46
9, 250260, Note_on_c, 7, 67, 50
9, 250290, Note_on_c, 7, 67, 0
9, 250290, Note_on_c, 7, 79, 0
9, 250290, Note_on_c, 7, 64, 74
9, 250290, Note_on_c, 7, 76, 68
9, 250320, Note_on_c, 7, 76, 0
9, 250320, Note_on_c, 7, 64, 0
9, 250320, Note_on_c, 7, 73, 46
9, 250320, Note_on_c, 7, 61, 53
9, 250350, Note_on_c, 7, 61, 0
9, 250350, Note_on_c, 7, 73, 0
9, 250350, Note_on_c, 7, 67, 54
9, 250350, Note_on_c, 7, 79, 47
9, 250380, Note_on_c, 7, 79, 0
9, 250380, Note_on_c, 7, 67, 0
9, 250380, Note_on_c, 7, 76, 58
9, 250380, Note_on_c, 7, 64, 29
9, 250410, Note_on_c, 7, 64, 0
9, 250410, Note_on_c, 7, 76, 0
9, 250410, Note_on_c, 7, 73, 43
9, 250410, Note_on_c, 7, 61, 42
9, 250440, Note_on_c, 7, 61, 0
9, 250440, Note_on_c, 7, 73, 0
9, 250440, Note_on_c, 7, 58, 62
9, 250440, Note_on_c, 7, 70, 61
9, 250470, Note_on_c, 7, 70, 0
9, 250470, Note_on_c, 7, 58, 0
9, 250470, Note_on_c, 7, 64, 50
9, 250470, Note_on_c, 7, 76, 51
9, 250500, Note_on_c, 7, 76, 0
9, 250500, Note_on_c, 7, 64, 0
9, 250500, Note_on_c, 7, 61, 53
9, 250500, Note_on_c, 7, 73, 40
9, 250530, Note_on_c, 7, 73, 0
9, 250530, Note_on_c, 7, 61, 0
9, 250530, Note_on_c, 7, 70, 57
9, 250530, Note_on_c, 7, 58, 45
9, 250540, Control_c, 7, 64, 94
9, 250545, Control_c, 7, 64, 71
9, 250550, Control_c, 7, 64, 47
9, 250555, Control_c, 7, 64, 24
9, 250560, Note_on_c, 7, 58, 0
9, 250560, Note_on_c, 7, 70, 0
9, 250560, Control_c, 7, 64, 0
9, 250560, Note_on_c, 7, 69, 43
9, 250560, Note_on_c, 7, 57, 52
9, 250680, Note_on_c, 7, 57, 0
9, 250680, Note_on_c, 7, 69, 0
9, 250800, Note_on_c, 7, 65, 43
9, 250800, Note_on_c, 7, 69, 38
9, 250800, Note_on_c, 7, 60, 43
9, 250800, Note_on_c, 7, 57, 41
9, 250800, Note_on_c, 7, 77, 45
9, 250800, Note_on_c, 7, 72, 29
9, 250920, Note_on_c, 7, 72, 0
9, 250920, Note_on_c, 7, 69, 0
9, 250920, Note_on_c, 7, 60, 0
9, 250920, Note_on_c, 7, 65, 0
9, 250920, Note_on_c, 7, 77, 0
9, 250920, Note_on_c, 7, 57, 0
9, 251040, Control_c, 7, 64, 95
9, 251040, Note_on_c, 7, 71, 52
9, 251040, Note_on_c, 7, 83, 46
9, 251070, Note_on_c, 7, 83, 0
9, 251070, Note_on_c, 7, 71, 0
9, 251070, Note_on_c, 7, 86, 46
9, 251070, Note_on_c, 7, 74, 43
9, 251100, Note_on_c, 7, 74, 0
9, 251100, Note_on_c, 7, 86, 0
9, 251100, Note_on_c, 7, 83, 61
9, 251100, Note_on_c, 7, 71, 46
9, 251130, Note_on_c, 7, 71, 0
9, 251130, Note_on_c, 7, 83, 0
9, 251130, Note_on_c, 7, 68, 53
9, 251130, Note_on_c, 7, 80, 45
9, 251160, Note_on_c, 7, 80, 0
9, 251160, Note_on_c, 7, 68, 0
9, 251160, Note_on_c, 7, 77, 52
9, 251160, Note_on_c, 7, 65, 62
9, 251190, Note_on_c, 7, 65, 0
9, 251190, Note_on_c, 7, 77, 0
9, 251190, Note_on_c, 7, 71, 59
9, 251190, Note_on_c, 7, 83, 68
9, 251220, Note_on_c, 7, 83, 0
9, 251220, Note_on_c, 7, 71, 0
9, 251220, Note_on_c, 7, 80, 43
9, 251220, Note_on_c, 7, 68, 48
9, 251250, Note_on_c, 7, 68, 0
9, 251250, Note_on_c, 7, 80, 0
9, 251250, Note_on_c, 7, 65, 49
9, 251250, Note_on_c, 7, 77, 58
9, 251280, Note_on_c, 7, 77, 0
9, 251280, Note_on_c, 7, 65, 0
9, 251280, Note_on_c, 7, 74, 63
9, 251280, Note_on_c, 7, 62, 40
9, 251310, Note_on_c, 7, 62, 0
9, 251310, Note_on_c, 7, 74, 0
9, 251310, Note_on_c, 7, 68, 53
9, 251310, Note_on_c, 7, 80, 43
9, 251340, Note_on_c, 7, 80, 0
9, 251340, Note_on_c, 7, 68, 0
9, 251340, Note_on_c, 7, 77, 62
9, 251340, Note_on_c, 7, 65, 54
9, 251370, Note_on_c, 7, 65, 0
9, 251370, Note_on_c, 7, 77, 0
9, 251370, Note_on_c, 7, 62, 53
9, 251370, Note_on_c, 7, 74, 69
9, 251400, Note_on_c, 7, 74, 0
9, 251400, Note_on_c, 7, 62, 0
9, 251400, Note_on_c, 7, 68, 43
9, 251400, Note_on_c, 7, 80, 44
9, 251430, Note_on_c, 7, 80, 0
9, 251430, Note_on_c, 7, 68, 0
9, 251430, Note_on_c, 7, 77, 56
9, 251430, Note_on_c, 7, 65, 49
9, 251460, Note_on_c, 7, 65, 0
9, 251460, Note_on_c, 7, 77, 0
9, 251460, Note_on_c, 7, 62, 62
9, 251460, Note_on_c, 7, 74, 68
9, 251490, Note_on_c, 7, 74, 0
9, 251490, Note_on_c, 7, 62, 0
9, 251490, Note_on_c, 7, 71, 68
9, 251490, Note_on_c, 7, 59, 69
9, 251505, Control_c, 7, 64, 93
9, 251510, Control_c, 7, 64, 62
9, 251515, Control_c, 7, 64, 31
9, 251520, Note_on_c, 7, 59, 0
9, 251520, Note_on_c, 7, 71, 0
9, 251520, Control_c, 7, 64, 0
9, 251520, Note_on_c, 7, 72, 55
9, 251520, Note_on_c, 7, 60, 44
9, 251640, Note_on_c, 7, 60, 0
9, 251640, Note_on_c, 7, 72, 0
9, 251700, Note_on_c, 7, 84, 43
9, 251700, Note_on_c, 7, 60, 43
9, 251700, Note_on_c, 7, 72, 29
9, 251730, Note_on_c, 7, 72, 0
9, 251730, Note_on_c, 7, 60, 0
9, 251730, Note_on_c, 7, 84, 0
9, 251760, Note_on_c, 7, 63, 39
9, 251760, Note_on_c, 7, 75, 47
9, 251760, Note_on_c, 7, 87, 46
9, 251820, Note_on_c, 7, 87, 0
9, 251820, Note_on_c, 7, 75, 0
9, 251820, Note_on_c, 7, 63, 0
9, 252180, Note_on_c, 7, 72, 58
9, 252180, Note_on_c, 7, 60, 68
9, 252180, Note_on_c, 7, 84, 53
9, 252210, Note_on_c, 7, 84, 0
9, 252210, Note_on_c, 7, 60, 0
9, 252210, Note_on_c, 7, 72, 0
9, 252240, Note_on_c, 7, 87, 40
9, 252240, Note_on_c, 7, 75, 43
9, 252240, Note_on_c, 7, 63, 38
9, 252300, Note_on_c, 7, 63, 0
9, 252300, Note_on_c, 7, 75, 0
9, 252300, Note_on_c, 7, 87, 0
9, 252660, Note_on_c, 7, 62, 41
9, 252660, Note_on_c, 7, 86, 48
9, 252660, Note_on_c, 7, 74, 40
9, 252690, Note_on_c, 7, 74, 0
9, 252690, Note_on_c, 7, 86, 0
9, 252690, Note_on_c, 7, 62, 0
9, 252720, Note_on_c, 7, 65, 63
9, 252720, Note_on_c, 7, 89, 55
9, 252720, Note_on_c, 7, 77, 52
9, 252780, Note_on_c, 7, 77, 0
9, 252780, Note_on_c, 7, 89, 0
9, 252780, Note_on_c, 7, 65, 0
9, 253140, Note_on_c, 7, 71, 44
9, 253140, Note_on_c, 7, 59, 43
9, 253140, Note_on_c, 7, 83, 49
9, 253170, Note_on_c, 7, 83, 0
9, 253170, Note_on_c, 7, 59, 0
9, 253170, Note_on_c, 7, 71, 0
9, 253200, Note_on_c, 7, 62, 43
9, 253200, Note_on_c, 7, 86, 44
9, 253200, Note_on_c, 7, 74, 43
9, 253260, Note_on_c, 7, 74, 0
9, 253260, Note_on_c, 7, 86, 0
9, 253260, Note_on_c, 7, 62, 0
9, 253500, Note_on_c, 7, 60, 57
9, 253500, Note_on_c, 7, 84, 51
9, 253560, Note_on_c, 7, 84, 0
9, 253560, Note_on_c, 7, 60, 0
9, 253560, Note_on_c, 7, 60, 64
9, 253560, Note_on_c, 7, 84, 49
9, 253620, Note_on_c, 7, 84, 0
9, 253620, Note_on_c, 7, 60, 0
9, 253620, Note_on_c, 7, 60, 64
9, 253620, Note_on_c, 7, 84, 54
9, 253680, Note_on_c, 7, 84, 0
9, 253680, Note_on_c, 7, 60, 0
9, 253680, Note_on_c, 7, 63, 84
9, 253680, Note_on_c, 7, 75, 80
9, 253680, Note_on_c, 7, 87, 93
9, 253800, Note_on_c, 7, 87, 0
9, 253800, Note_on_c, 7, 75, 0
9, 253800, Note_on_c, 7, 63, 0
9, 253800, Note_on_c, 7, 60, 48
9, 253800, Note_on_c, 7, 84, 56
9, 253860, Note_on_c, 7, 84, 0
9, 253860, Note_on_c, 7, 60, 0
9, 253980, Note_on_c, 7, 84, 71
9, 253980, Note_on_c, 7, 60, 44
9, 254040, Note_on_c, 7, 60, 0
9, 254040, Note_on_c, 7, 84, 0
9, 254040, Note_on_c, 7, 84, 68
9, 254040, Note_on_c, 7, 60, 71
9, 254100, Note_on_c, 7, 60, 0
9, 254100, Note_on_c, 7, 84, 0
9, 254100, Note_on_c, 7, 84, 72
9, 254100, Note_on_c, 7, 60, 72
9, 254160, Note_on_c, 7, 60, 0
9, 254160, Note_on_c, 7, 84, 0
9, 254160, Note_on_c, 7, 63, 84
9, 254160, Note_on_c, 7, 75, 81
9, 254160, Note_on_c, 7, 87, 94
9, 254280, Note_on_c, 7, 87, 0
9, 254280, Note_on_c, 7, 75, 0
9, 254280, Note_on_c, 7, 63, 0
9, 254280, Note_on_c, 7, 60, 66
9, 254280, Note_on_c, 7, 84, 76
9, 254340, Note_on_c, 7, 84, 0
9, 254340, Note_on_c, 7, 60, 0
9, 254460, Note_on_c, 7, 62, 66
9, 254460, Note_on_c, 7, 86, 81
9, 254460, Note_on_c, 7, 74, 48
9, 254520, Note_on_c, 7, 74, 0
9, 254520, Note_on_c, 7, 86, 0
9, 254520, Note_on_c, 7, 62, 0
9, 254520, Note_on_c, 7, 62, 70
9, 254520, Note_on_c, 7, 74, 68
9, 254520, Note_on_c, 7, 86, 86
9, 254580, Note_on_c, 7, 86, 0
9, 254580, Note_on_c, 7, 74, 0
9, 254580, Note_on_c, 7, 62, 0
9, 254580, Note_on_c, 7, 86, 81
9, 254580, Note_on_c, 7, 62, 68
9, 254580, Note_on_c, 7, 74, 65
9, 254640, Note_on_c, 7, 74, 0
9, 254640, Note_on_c, 7, 62, 0
9, 254640, Note_on_c, 7, 86, 0
9, 254640, Note_on_c, 7, 65, 85
9, 254640, Note_on_c, 7, 77, 76
9, 254640, Note_on_c, 7, 89, 99
9, 254760, Note_on_c, 7, 89, 0
9, 254760, Note_on_c, 7, 77, 0
9, 254760, Note_on_c, 7, 65, 0
9, 254760, Note_on_c, 7, 62, 68
9, 254760, Note_on_c, 7, 86, 84
9, 254760, Note_on_c, 7, 74, 58
9, 254820, Note_on_c, 7, 74, 0
9, 254820, Note_on_c, 7, 86, 0
9, 254820, Note_on_c, 7, 62, 0
9, 254940, Note_on_c, 7, 59, 72
9, 254940, Note_on_c, 7, 71, 61
9, 254940, Note_on_c, 7, 83, 73
9, 255000, Note_on_c, 7, 83, 0
9, 255000, Note_on_c, 7, 71, 0
9, 255000, Note_on_c, 7, 59, 0
9, 255000, Note_on_c, 7, 59, 82
9, 255000, Note_on_c, 7, 71, 71
9, 255000, Note_on_c, 7, 83, 89
9, 255060, Note_on_c, 7, 83, 0
9, 255060, Note_on_c, 7, 71, 0
9, 255060, Note_on_c, 7, 59, 0
9, 255060, Note_on_c, 7, 83, 89
9, 255060, Note_on_c, 7, 59, 80
9, 255060, Note_on_c, 7, 71, 70
9, 255120, Note_on_c, 7, 71, 0
9, 255120, Note_on_c, 7, 59, 0
9, 255120, Note_on_c, 7, 83, 0
9, 255120, Note_on_c, 7, 62, 90
9, 255120, Note_on_c, 7, 74, 93
9, 255120, Note_on_c, 7, 86, 95
9, 255240, Note_on_c, 7, 86, 0
9, 255240, Note_on_c, 7, 74, 0
9, 255240, Note_on_c, 7, 62, 0
9, 255240, Note_on_c, 7, 59, 74
9, 255240, Note_on_c, 7, 83, 76
9, 255240, Note_on_c, 7, 71, 67
9, 255300, Note_on_c, 7, 71, 0
9, 255300, Note_on_c, 7, 83, 0
9, 255300, Note_on_c, 7, 59, 0
9, 255420, Note_on_c, 7, 60, 95
9, 255420, Note_on_c, 7, 72, 58
9, 255420, Note_on_c, 7, 84, 94
9, 255480, Note_on_c, 7, 84, 0
9, 255480, Note_on_c, 7, 72, 0
9, 255480, Note_on_c, 7, 60, 0
9, 255480, Note_on_c, 7, 87, 73
9, 255480, Note_on_c, 7, 75, 65
9, 255480, Note_on_c, 7, 63, 70
9, 255540, Note_on_c, 7, 63, 0
9, 255540, Note_on_c, 7, 75, 0
9, 255540, Note_on_c, 7, 87, 0
9, 255540, Note_on_c, 7, 84, 57
9, 255540, Note_on_c, 7, 60, 45
9, 255600, Note_on_c, 7, 60, 0
9, 255600, Note_on_c, 7, 84, 0
9, 255660, Note_on_c, 7, 60, 89
9, 255660, Note_on_c, 7, 84, 98
9, 255660, Note_on_c, 7, 72, 54
9, 255720, Note_on_c, 7, 72, 0
9, 255720, Note_on_c, 7, 84, 0
9, 255720, Note_on_c, 7, 60, 0
9, 255720, Note_on_c, 7, 87, 68
9, 255720, Note_on_c, 7, 63, 56
9, 255720, Note_on_c, 7, 75, 65
9, 255780, Note_on_c, 7, 75, 0
9, 255780, Note_on_c, 7, 63, 0
9, 255780, Note_on_c, 7, 87, 0
9, 255780, Note_on_c, 7, 84, 52
9, 255780, Note_on_c, 7, 60, 48
9, 255840, Note_on_c, 7, 60, 0
9, 255840, Note_on_c, 7, 84, 0
9, 255900, Note_on_c, 7, 62, 86
9, 255900, Note_on_c, 7, 86, 98
9, 255900, Note_on_c, 7, 74, 84
9, 255960, Note_on_c, 7, 74, 0
9, 255960, Note_on_c, 7, 86, 0
9, 255960, Note_on_c, 7, 62, 0
9, 255960, Note_on_c, 7, 77, 58
9, 255960, Note_on_c, 7, 89, 82
9, 255960, Note_on_c, 7, 65, 70
9, 256020, Note_on_c, 7, 65, 0
9, 256020, Note_on_c, 7, 89, 0
9, 256020, Note_on_c, 7, 77, 0
9, 256020, Note_on_c, 7, 62, 72
9, 256020, Note_on_c, 7, 86, 84
9, 256020, Note_on_c, 7, 74, 70
9, 256080, Note_on_c, 7, 74, 0
9, 256080, Note_on_c, 7, 86, 0
9, 256080, Note_on_c, 7, 62, 0
9, 256140, Note_on_c, 7, 71, 78
9, 256140, Note_on_c, 7, 59, 93
9, 256140, Note_on_c, 7, 83, 89
9, 256200, Note_on_c, 7, 83, 0
9, 256200, Note_on_c, 7, 59, 0
9, 256200, Note_on_c, 7, 71, 0
9, 256200, Note_on_c, 7, 86, 76
9, 256200, Note_on_c, 7, 62, 73
9, 256200, Note_on_c, 7, 74, 72
9, 256260, Note_on_c, 7, 74, 0
9, 256260, Note_on_c, 7, 62, 0
9, 256260, Note_on_c, 7, 86, 0
9, 256260, Note_on_c, 7, 59, 81
9, 256260, Note_on_c, 7, 83, 77
9, 256260, Note_on_c, 7, 71, 68
9, 256320, Note_on_c, 7, 71, 0
9, 256320, Note_on_c, 7, 83, 0
9, 256320, Note_on_c, 7, 59, 0
9, 257280, Control_c, 7, 64, 95
9, 257280, Note_on_c, 7, 84, 107
9, 257310, Note_on_c, 7, 84, 0
9, 257310, Note_on_c, 7, 87, 104
9, 257340, Note_on_c, 7, 87, 0
9, 257340, Note_on_c, 7, 84, 110
9, 257370, Note_on_c, 7, 84, 0
9, 257370, Note_on_c, 7, 79, 105
9, 257400, Note_on_c, 7, 79, 0
9, 257400, Note_on_c, 7, 75, 104
9, 257400, Note_on_c, 7, 63, 93
9, 257430, Note_on_c, 7, 63, 0
9, 257430, Note_on_c, 7, 75, 0
9, 257430, Note_on_c, 7, 72, 77
9, 257430, Note_on_c, 7, 84, 110
9, 257460, Note_on_c, 7, 84, 0
9, 257460, Note_on_c, 7, 72, 0
9, 257460, Note_on_c, 7, 67, 99
9, 257460, Note_on_c, 7, 79, 105
9, 257490, Note_on_c, 7, 79, 0
9, 257490, Note_on_c, 7, 67, 0
9, 257490, Note_on_c, 7, 63, 94
9, 257490, Note_on_c, 7, 75, 105
9, 257520, Note_on_c, 7, 75, 0
9, 257520, Note_on_c, 7, 63, 0
9, 257520, Note_on_c, 7, 60, 101
9, 257520, Note_on_c, 7, 72, 71
9, 257550, Note_on_c, 7, 72, 0
9, 257550, Note_on_c, 7, 60, 0
9, 257550, Note_on_c, 7, 67, 99
9, 257550, Note_on_c, 7, 79, 99
9, 257580, Note_on_c, 7, 79, 0
9, 257580, Note_on_c, 7, 67, 0
9, 257580, Note_on_c, 7, 75, 104
9, 257580, Note_on_c, 7, 63, 98
9, 257610, Note_on_c, 7, 63, 0
9, 257610, Note_on_c, 7, 75, 0
9, 257610, Note_on_c, 7, 72, 93
9, 257610, Note_on_c, 7, 60, 98
9, 257640, Note_on_c, 7, 60, 0
9, 257640, Note_on_c, 7, 72, 0
9, 257640, Note_on_c, 7, 55, 99
9, 257640, Note_on_c, 7, 67, 94
9, 257670, Note_on_c, 7, 67, 0
9, 257670, Note_on_c, 7, 55, 0
9, 257670, Note_on_c, 7, 63, 86
9, 257670, Note_on_c, 7, 75, 104
9, 257700, Note_on_c, 7, 75, 0
9, 257700, Note_on_c, 7, 63, 0
9, 257700, Note_on_c, 7, 60, 95
9, 257700, Note_on_c, 7, 72, 99
9, 257730, Note_on_c, 7, 72, 0
9, 257730, Note_on_c, 7, 60, 0
9, 257730, Note_on_c, 7, 55, 99
9, 257730, Note_on_c, 7, 67, 94
9, 257760, Note_on_c, 7, 67, 0
9, 257760, Note_on_c, 7, 55, 0
9, 257760, Note_on_c, 7, 63, 93
9, 257760, Note_on_c, 7, 51, 104
9, 257790, Note_on_c, 7, 51, 0
9, 257790, Note_on_c, 7, 63, 0
9, 257790, Note_on_c, 7, 72, 84
9, 257790, Note_on_c, 7, 60, 95
9, 257820, Note_on_c, 7, 60, 0
9, 257820, Note_on_c, 7, 72, 0
9, 257820, Note_on_c, 7, 67, 104
9, 257820, Note_on_c, 7, 55, 104
9, 257850, Note_on_c, 7, 55, 0
9, 257850, Note_on_c, 7, 67, 0
9, 257850, Note_on_c, 7, 63, 99
9, 257850, Note_on_c, 7, 51, 94
9, 257880, Note_on_c, 7, 51, 0
9, 257880, Note_on_c, 7, 63, 0
9, 257880, Note_on_c, 7, 60, 95
9, 257880, Note_on_c, 7, 48, 99
9, 257910, Note_on_c, 7, 48, 0
9, 257910, Note_on_c, 7, 60, 0
9, 257910, Note_on_c, 7, 67, 105
9, 257910, Note_on_c, 7, 55, 105
9, 257940, Note_on_c, 7, 55, 0
9, 257940, Note_on_c, 7, 67, 0
9, 257940, Note_on_c, 7, 51, 99
9, 257940, Note_on_c, 7, 63, 99
9, 257970, Note_on_c, 7, 63, 0
9, 257970, Note_on_c, 7, 51, 0
9, 257970, Note_on_c, 7, 48, 105
9, 257970, Note_on_c, 7, 60, 99
9, 258000, Note_on_c, 7, 60, 0
9, 258000, Note_on_c, 7, 48, 0
9, 258000, Note_on_c, 7, 43, 105
9, 258000, Note_on_c, 7, 55, 89
9, 258030, Note_on_c, 7, 55, 0
9, 258030, Note_on_c, 7, 43, 0
9, 258030, Note_on_c, 7, 63, 99
9, 258030, Note_on_c, 7, 51, 105
9, 258060, Note_on_c, 7, 51, 0
9, 258060, Note_on_c, 7, 63, 0
9, 258060, Note_on_c, 7, 48, 105
9, 258060, Note_on_c, 7, 60, 104
9, 258090, Note_on_c, 7, 60, 0
9, 258090, Note_on_c, 7, 48, 0
9, 258090, Note_on_c, 7, 43, 98
9, 258090, Note_on_c, 7, 55, 104
9, 258120, Note_on_c, 7, 55, 0
9, 258120, Note_on_c, 7, 43, 0
9, 258120, Note_on_c, 7, 51, 105
9, 258120, Note_on_c, 7, 39, 105
9, 258150, Note_on_c, 7, 39, 0
9, 258150, Note_on_c, 7, 51, 0
9, 258150, Note_on_c, 7, 60, 110
9, 258150, Note_on_c, 7, 48, 99
9, 258180, Note_on_c, 7, 48, 0
9, 258180, Note_on_c, 7, 60, 0
9, 258180, Note_on_c, 7, 43, 99
9, 258180, Note_on_c, 7, 55, 104
9, 258210, Note_on_c, 7, 55, 0
9, 258210, Note_on_c, 7, 43, 0
9, 258210, Note_on_c, 7, 51, 110
9, 258210, Note_on_c, 7, 39, 101
9, 258240, Note_on_c, 7, 39, 0
9, 258240, Note_on_c, 7, 51, 0
9, 258240, Note_on_c, 7, 48, 123
9, 258240, Note_on_c, 7, 36, 123
9, 258255, Note_on_c, 7, 36, 0
9, 258255, Note_on_c, 7, 48, 0
9, 258270, Note_on_c, 7, 36, 101
9, 258270, Note_on_c, 7, 48, 101
9, 258300, Note_on_c, 7, 48, 0
9, 258300, Note_on_c, 7, 36, 0
9, 258300, Note_on_c, 7, 50, 104
9, 258300, Note_on_c, 7, 38, 98
9, 258330, Note_on_c, 7, 38, 0
9, 258330, Note_on_c, 7, 50, 0
9, 258330, Note_on_c, 7, 39, 99
9, 258330, Note_on_c, 7, 51, 105
9, 258360, Note_on_c, 7, 51, 0
9, 258360, Note_on_c, 7, 39, 0
9, 258360, Note_on_c, 7, 41, 95
9, 258360, Note_on_c, 7, 53, 95
9, 258390, Note_on_c, 7, 53, 0
9, 258390, Note_on_c, 7, 41, 0
9, 258390, Note_on_c, 7, 43, 94
9, 258390, Note_on_c, 7, 55, 99
9, 258420, Note_on_c, 7, 55, 0
9, 258420, Note_on_c, 7, 43, 0
9, 258420, Note_on_c, 7, 45, 99
9, 258420, Note_on_c, 7, 57, 110
9, 258450, Note_on_c, 7, 57, 0
9, 258450, Note_on_c, 7, 45, 0
9, 258450, Note_on_c, 7, 47, 105
9, 258450, Note_on_c, 7, 59, 105
9, 258480, Note_on_c, 7, 59, 0
9, 258480, Note_on_c, 7, 47, 0
9, 258480, Note_on_c, 7, 60, 119
9, 258480, Note_on_c, 7, 48, 123
9, 258495, Note_on_c, 7, 48, 0
9, 258495, Note_on_c, 7, 60, 0
9, 258510, Note_on_c, 7, 60, 94
9, 258510, Note_on_c, 7, 48, 98
9, 258540, Note_on_c, 7, 48, 0
9, 258540, Note_on_c, 7, 60, 0
9, 258540, Note_on_c, 7, 62, 99
9, 258540, Note_on_c, 7, 50, 104
9, 258570, Note_on_c, 7, 50, 0
9, 258570, Note_on_c, 7, 62, 0
9, 258570, Note_on_c, 7, 51, 95
9, 258570, Note_on_c, 7, 63, 95
9, 258600, Note_on_c, 7, 63, 0
9, 258600, Note_on_c, 7, 51, 0
9, 258600, Note_on_c, 7, 65, 101
9, 258600, Note_on_c, 7, 53, 98
9, 258630, Note_on_c, 7, 53, 0
9, 258630, Note_on_c, 7, 65, 0
9, 258630, Note_on_c, 7, 55, 98
9, 258630, Note_on_c, 7, 67, 99
9, 258660, Note_on_c, 7, 67, 0
9, 258660, Note_on_c, 7, 55, 0
9, 258660, Note_on_c, 7, 57, 105
9, 258660, Note_on_c, 7, 69, 104
9, 258690, Note_on_c, 7, 69, 0
9, 258690, Note_on_c, 7, 57, 0
9, 258690, Note_on_c, 7, 71, 99
9, 258690, Note_on_c, 7, 59, 105
9, 258720, Note_on_c, 7, 59, 0
9, 258720, Note_on_c, 7, 71, 0
9, 258720, Note_on_c, 7, 72, 94
9, 258720, Note_on_c, 7, 60, 119
9, 258735, Note_on_c, 7, 60, 0
9, 258735, Note_on_c, 7, 72, 0
9, 258750, Note_on_c, 7, 60, 99
9, 258750, Note_on_c, 7, 72, 99
9, 258780, Note_on_c, 7, 72, 0
9, 258780, Note_on_c, 7, 60, 0
9, 258780, Note_on_c, 7, 74, 105
9, 258780, Note_on_c, 7, 62, 98
9, 258810, Note_on_c, 7, 62, 0
9, 258810, Note_on_c, 7, 74, 0
9, 258810, Note_on_c, 7, 63, 89
9, 258810, Note_on_c, 7, 75, 104
9, 258840, Note_on_c, 7, 75, 0
9, 258840, Note_on_c, 7, 63, 0
9, 258840, Note_on_c, 7, 65, 104
9, 258840, Note_on_c, 7, 77, 98
9, 258870, Note_on_c, 7, 77, 0
9, 258870, Note_on_c, 7, 65, 0
9, 258870, Note_on_c, 7, 67, 101
9, 258870, Note_on_c, 7, 79, 99
9, 258900, Note_on_c, 7, 79, 0
9, 258900, Note_on_c, 7, 67, 0
9, 258900, Note_on_c, 7, 69, 99
9, 258900, Note_on_c, 7, 81, 104
9, 258930, Note_on_c, 7, 81, 0
9, 258930, Note_on_c, 7, 69, 0
9, 258930, Note_on_c, 7, 83, 99
9, 258930, Note_on_c, 7, 71, 105
9, 258960, Note_on_c, 7, 71, 0
9, 258960, Note_on_c, 7, 83, 0
9, 258960, Note_on_c, 7, 84, 119
9, 258960, Note_on_c, 7, 72, 117
9, 258975, Note_on_c, 7, 72, 0
9, 258975, Note_on_c, 7, 84, 0
9, 258990, Note_on_c, 7, 72, 86
9, 258990, Note_on_c, 7, 84, 90
9, 259020, Note_on_c, 7, 84, 0
9, 259020, Note_on_c, 7, 72, 0
9, 259020, Note_on_c, 7, 74, 105
9, 259020, Note_on_c, 7, 86, 105
9, 259050, Note_on_c, 7, 86, 0
9, 259050, Note_on_c, 7, 74, 0
9, 259050, Note_on_c, 7, 75, 101
9, 259050, Note_on_c, 7, 87, 105
9, 259080, Note_on_c, 7, 87, 0
9, 259080, Note_on_c, 7, 75, 0
9, 259080, Note_on_c, 7, 89, 105
9, 259080, Note_on_c, 7, 77, 104
9, 259110, Note_on_c, 7, 77, 0
9, 259110, Note_on_c, 7, 89, 0
9, 259110, Note_on_c, 7, 79, 99
9, 259110, Note_on_c, 7, 91, 98
9, 259140, Note_on_c, 7, 91, 0
9, 259140, Note_on_c, 7, 79, 0
9, 259140, Note_on_c, 7, 93, 105
9, 259140, Note_on_c, 7, 81, 101
9, 259170, Note_on_c, 7, 81, 0
9, 259170, Note_on_c, 7, 93, 0
9, 259170, Note_on_c, 7, 95, 99
9, 259170, Note_on_c, 7, 83, 110
9, 259185, Control_c, 7, 64, 96
9, 259190, Control_c, 7, 64, 64
9, 259195, Control_c, 7, 64, 32
9, 259200, Note_on_c, 7, 83, 0
9, 259200, Note_on_c, 7, 95, 0
9, 259200, Control_c, 7, 64, 0
9, 259200, Note_on_c, 7, 96, 125
9, 259200, Note_on_c, 7, 84, 119
9, 259320, Note_on_c, 7, 84, 0
9, 259320, Note_on_c, 7, 96, 0
9, 259650, Note_on_c, 7, 60, 112
9, 259650, Note_on_c, 7, 48, 99
9, 259650, Note_on_c, 7, 36, 112
9, 259680, Note_on_c, 7, 36, 0
9, 259680, Note_on_c, 7, 48, 0
9, 259680, Note_on_c, 7, 60, 0
9, 259680, Note_on_c, 7, 60, 115
9, 259680, Note_on_c, 7, 48, 98
9, 259680, Note_on_c, 7, 36, 115
9, 259800, Note_on_c, 7, 36, 0
9, 259800, Note_on_c, 7, 48, 0
9, 259800, Note_on_c, 7, 60, 0
9, 260130, Note_on_c, 7, 48, 99
9, 260130, Note_on_c, 7, 60, 105
9, 260130, Note_on_c, 7, 36, 110
9, 260160, Note_on_c, 7, 36, 0
9, 260160, Note_on_c, 7, 60, 0
9, 260160, Note_on_c, 7, 48, 0
9, 260160, Note_on_c, 7, 60, 123
9, 260160, Note_on_c, 7, 48, 105
9, 260160, Note_on_c, 7, 36, 117
9, 260640, Note_on_c, 7, 36, 0
9, 260640, Note_on_c, 7, 48, 0
9, 260640, Note_on_c, 7, 60, 0
9, 260640, End_track
10, 0, Start_track
10, 0, MIDI_port, 0
10, 0, Title_t, "1st Violins"
10, 0, Program_c, 8, 48
10, 0, Control_c, 8, 7, 100
10, 0, Control_c, 8, 10, 26
10, 0, Control_c, 8, 93, 0
10, 0, Control_c, 8, 91, 66
10, 0, Note_on_c, 8, 60, 61
10, 240, Note_on_c, 8, 60, 0
10, 240, Note_on_c, 8, 63, 64
10, 480, Note_on_c, 8, 63, 0
10, 480, Note_on_c, 8, 67, 67
10, 660, Note_on_c, 8, 67, 0
10, 660, Note_on_c, 8, 65, 59
10, 690, Note_on_c, 8, 65, 0
10, 720, Note_on_c, 8, 63, 51
10, 780, Note_on_c, 8, 63, 0
10, 840, Note_on_c, 8, 62, 64
10, 900, Note_on_c, 8, 62, 0
10, 960, Note_on_c, 8, 60, 57
10, 1020, Note_on_c, 8, 60, 0
10, 1140, Note_on_c, 8, 55, 52
10, 1170, Note_on_c, 8, 55, 0
10, 1200, Note_on_c, 8, 60, 63
10, 1260, Note_on_c, 8, 60, 0
10, 1380, Note_on_c, 8, 55, 57
10, 1410, Note_on_c, 8, 55, 0
10, 1440, Note_on_c, 8, 60, 67
10, 1560, Note_on_c, 8, 60, 0
10, 3840, Note_on_c, 8, 79, 60
10, 4200, Note_on_c, 8, 79, 0
10, 4200, Note_on_c, 8, 77, 58
10, 4260, Note_on_c, 8, 77, 0
10, 4260, Note_on_c, 8, 75, 58
10, 4320, Note_on_c, 8, 75, 0
10, 4320, Note_on_c, 8, 74, 52
10, 4380, Note_on_c, 8, 74, 0
10, 4380, Note_on_c, 8, 72, 58
10, 4440, Note_on_c, 8, 72, 0
10, 4440, Note_on_c, 8, 72, 84
10, 4680, Note_on_c, 8, 72, 0
10, 4680, Note_on_c, 8, 72, 53
10, 4800, Note_on_c, 8, 72, 0
10, 4800, Note_on_c, 8, 84, 52
10, 5160, Note_on_c, 8, 84, 0
10, 5160, Note_on_c, 8, 82, 65
10, 5220, Note_on_c, 8, 82, 0
10, 5220, Note_on_c, 8, 80, 59
10, 5280, Note_on_c, 8, 80, 0
10, 5280, Note_on_c, 8, 79, 69
10, 5340, Note_on_c, 8, 79, 0
10, 5340, Note_on_c, 8, 77, 69
10, 5400, Note_on_c, 8, 77, 0
10, 5400, Note_on_c, 8, 77, 94
10, 5640, Note_on_c, 8, 77, 0
10, 5640, Note_on_c, 8, 77, 58
10, 5760, Note_on_c, 8, 77, 0
10, 5760, Note_on_c, 8, 77, 73
10, 6120, Note_on_c, 8, 77, 0
10, 6120, Note_on_c, 8, 75, 73
10, 6180, Note_on_c, 8, 75, 0
10, 6180, Note_on_c, 8, 74, 67
10, 6240, Note_on_c, 8, 74, 0
10, 6240, Note_on_c, 8, 72, 80
10, 6300, Note_on_c, 8, 72, 0
10, 6300, Note_on_c, 8, 71, 84
10, 6360, Note_on_c, 8, 71, 0
10, 6360, Note_on_c, 8, 86, 93
10, 6600, Note_on_c, 8, 86, 0
10, 6600, Note_on_c, 8, 86, 84
10, 6620, Note_on_c, 8, 86, 0
10, 6620, Note_on_c, 8, 87, 73
10, 6640, Note_on_c, 8, 87, 0
10, 6640, Note_on_c, 8, 86, 76
10, 6660, Note_on_c, 8, 86, 0
10, 6660, Note_on_c, 8, 84, 65
10, 6690, Note_on_c, 8, 84, 0
10, 6690, Note_on_c, 8, 86, 72
10, 6720, Note_on_c, 8, 86, 0
10, 6720, Note_on_c, 8, 84, 72
10, 6780, Note_on_c, 8, 84, 0
10, 6840, Note_on_c, 8, 77, 94
10, 6900, Note_on_c, 8, 77, 0
10, 6960, Note_on_c, 8, 75, 98
10, 7020, Note_on_c, 8, 75, 0
10, 7080, Note_on_c, 8, 74, 101
10, 7140, Note_on_c, 8, 74, 0
10, 7200, Note_on_c, 8, 72, 93
10, 7320, Note_on_c, 8, 72, 0
10, 7680, Note_on_c, 8, 71, 70
10, 8040, Note_on_c, 8, 71, 0
10, 8040, Note_on_c, 8, 74, 72
10, 8130, Note_on_c, 8, 74, 0
10, 8130, Note_on_c, 8, 72, 69
10, 8160, Note_on_c, 8, 72, 0
10, 8160, Note_on_c, 8, 72, 65
10, 8280, Note_on_c, 8, 72, 0
10, 9600, Note_on_c, 8, 74, 65
10, 9960, Note_on_c, 8, 74, 0
10, 9960, Note_on_c, 8, 77, 50
10, 10050, Note_on_c, 8, 77, 0
10, 10050, Note_on_c, 8, 75, 65
10, 10080, Note_on_c, 8, 75, 0
10, 10080, Note_on_c, 8, 75, 44
10, 10200, Note_on_c, 8, 75, 0
10, 11040, Note_on_c, 8, 75, 93
10, 11040, Note_on_c, 8, 63, 70
10, 11040, Note_on_c, 8, 55, 93
10, 11160, Note_on_c, 8, 55, 0
10, 11160, Note_on_c, 8, 63, 0
10, 11220, Note_on_c, 8, 75, 0
10, 11280, Note_on_c, 8, 79, 90
10, 11460, Note_on_c, 8, 79, 0
10, 11520, Note_on_c, 8, 82, 89
10, 11700, Note_on_c, 8, 82, 0
10, 11700, Note_on_c, 8, 80, 89
10, 11730, Note_on_c, 8, 80, 0
10, 11760, Note_on_c, 8, 79, 89
10, 11820, Note_on_c, 8, 79, 0
10, 11880, Note_on_c, 8, 77, 95
10, 11940, Note_on_c, 8, 77, 0
10, 12000, Note_on_c, 8, 75, 104
10, 12240, Note_on_c, 8, 75, 0
10, 12240, Note_on_c, 8, 75, 80
10, 12300, Note_on_c, 8, 75, 0
10, 12300, Note_on_c, 8, 74, 95
10, 12360, Note_on_c, 8, 74, 0
10, 12360, Note_on_c, 8, 74, 101
10, 12420, Note_on_c, 8, 74, 0
10, 12420, Note_on_c, 8, 72, 69
10, 12480, Note_on_c, 8, 72, 0
10, 12480, Note_on_c, 8, 72, 76
10, 12540, Note_on_c, 8, 72, 0
10, 12540, Note_on_c, 8, 70, 90
10, 12600, Note_on_c, 8, 70, 0
10, 12600, Note_on_c, 8, 70, 89
10, 12660, Note_on_c, 8, 70, 0
10, 12660, Note_on_c, 8, 68, 90
10, 12720, Note_on_c, 8, 68, 0
10, 12720, Note_on_c, 8, 68, 90
10, 12780, Note_on_c, 8, 68, 0
10, 12780, Note_on_c, 8, 67, 90
10, 12840, Note_on_c, 8, 67, 0
10, 12840, Note_on_c, 8, 67, 90
10, 12900, Note_on_c, 8, 67, 0
10, 12900, Note_on_c, 8, 65, 95
10, 12960, Note_on_c, 8, 65, 0
10, 12960, Note_on_c, 8, 65, 78
10, 12960, Note_on_c, 8, 56, 77
10, 13140, Note_on_c, 8, 56, 0
10, 13140, Note_on_c, 8, 65, 0
10, 13200, Note_on_c, 8, 80, 84
10, 13380, Note_on_c, 8, 80, 0
10, 13440, Note_on_c, 8, 84, 105
10, 13620, Note_on_c, 8, 84, 0
10, 13620, Note_on_c, 8, 82, 95
10, 13650, Note_on_c, 8, 82, 0
10, 13680, Note_on_c, 8, 80, 94
10, 13740, Note_on_c, 8, 80, 0
10, 13800, Note_on_c, 8, 79, 95
10, 13860, Note_on_c, 8, 79, 0
10, 13920, Note_on_c, 8, 77, 99
10, 14160, Note_on_c, 8, 77, 0
10, 14160, Note_on_c, 8, 77, 86
10, 14220, Note_on_c, 8, 77, 0
10, 14220, Note_on_c, 8, 75, 98
10, 14280, Note_on_c, 8, 75, 0
10, 14280, Note_on_c, 8, 75, 98
10, 14340, Note_on_c, 8, 75, 0
10, 14340, Note_on_c, 8, 74, 99
10, 14400, Note_on_c, 8, 74, 0
10, 14400, Note_on_c, 8, 74, 105
10, 14460, Note_on_c, 8, 74, 0
10, 14460, Note_on_c, 8, 72, 76
10, 14520, Note_on_c, 8, 72, 0
10, 14520, Note_on_c, 8, 72, 77
10, 14580, Note_on_c, 8, 72, 0
10, 14580, Note_on_c, 8, 70, 93
10, 14640, Note_on_c, 8, 70, 0
10, 14640, Note_on_c, 8, 70, 90
10, 14700, Note_on_c, 8, 70, 0
10, 14700, Note_on_c, 8, 71, 104
10, 14760, Note_on_c, 8, 71, 0
10, 14760, Note_on_c, 8, 72, 68
10, 14820, Note_on_c, 8, 72, 0
10, 14820, Note_on_c, 8, 68, 95
10, 14880, Note_on_c, 8, 68, 0
10, 14880, Note_on_c, 8, 67, 101
10, 15060, Note_on_c, 8, 67, 0
10, 15120, Note_on_c, 8, 82, 94
10, 15300, Note_on_c, 8, 82, 0
10, 15360, Note_on_c, 8, 85, 94
10, 15720, Note_on_c, 8, 85, 0
10, 15720, Note_on_c, 8, 79, 101
10, 15780, Note_on_c, 8, 79, 0
10, 15840, Note_on_c, 8, 80, 98
10, 16020, Note_on_c, 8, 80, 0
10, 16080, Note_on_c, 8, 84, 99
10, 16260, Note_on_c, 8, 84, 0
10, 16320, Note_on_c, 8, 87, 104
10, 16680, Note_on_c, 8, 87, 0
10, 16680, Note_on_c, 8, 81, 104
10, 16740, Note_on_c, 8, 81, 0
10, 16800, Note_on_c, 8, 82, 84
10, 16860, Note_on_c, 8, 82, 0
10, 16920, Note_on_c, 8, 82, 115
10, 17160, Note_on_c, 8, 82, 0
10, 17160, Note_on_c, 8, 80, 76
10, 17280, Note_on_c, 8, 80, 0
10, 17280, Note_on_c, 8, 80, 77
10, 17340, Note_on_c, 8, 80, 0
10, 17400, Note_on_c, 8, 78, 112
10, 17640, Note_on_c, 8, 78, 0
10, 17640, Note_on_c, 8, 77, 77
10, 17700, Note_on_c, 8, 77, 0
10, 17700, Note_on_c, 8, 75, 86
10, 17760, Note_on_c, 8, 75, 0
10, 17760, Note_on_c, 8, 75, 86
10, 17820, Note_on_c, 8, 75, 0
10, 17880, Note_on_c, 8, 74, 112
10, 18120, Note_on_c, 8, 74, 0
10, 18120, Note_on_c, 8, 75, 90
10, 18180, Note_on_c, 8, 75, 0
10, 18180, Note_on_c, 8, 77, 89
10, 18240, Note_on_c, 8, 77, 0
10, 18240, Note_on_c, 8, 77, 86
10, 18300, Note_on_c, 8, 77, 0
10, 18360, Note_on_c, 8, 75, 115
10, 18600, Note_on_c, 8, 75, 0
10, 18600, Note_on_c, 8, 77, 86
10, 18660, Note_on_c, 8, 77, 0
10, 18660, Note_on_c, 8, 78, 84
10, 18720, Note_on_c, 8, 78, 0
10, 18720, Note_on_c, 8, 77, 93
10, 18780, Note_on_c, 8, 77, 0
10, 18780, Note_on_c, 8, 82, 81
10, 18840, Note_on_c, 8, 82, 0
10, 18840, Note_on_c, 8, 82, 94
10, 18870, Note_on_c, 8, 82, 0
10, 18900, Note_on_c, 8, 82, 86
10, 18930, Note_on_c, 8, 82, 0
10, 18960, Note_on_c, 8, 82, 81
10, 18990, Note_on_c, 8, 82, 0
10, 19020, Note_on_c, 8, 82, 84
10, 19050, Note_on_c, 8, 82, 0
10, 19080, Note_on_c, 8, 82, 84
10, 19110, Note_on_c, 8, 82, 0
10, 19140, Note_on_c, 8, 80, 77
10, 19170, Note_on_c, 8, 80, 0
10, 19200, Note_on_c, 8, 80, 89
10, 19260, Note_on_c, 8, 80, 0
10, 19260, Note_on_c, 8, 78, 84
10, 19320, Note_on_c, 8, 78, 0
10, 19320, Note_on_c, 8, 78, 94
10, 19350, Note_on_c, 8, 78, 0
10, 19380, Note_on_c, 8, 78, 73
10, 19410, Note_on_c, 8, 78, 0
10, 19440, Note_on_c, 8, 78, 84
10, 19470, Note_on_c, 8, 78, 0
10, 19500, Note_on_c, 8, 78, 80
10, 19530, Note_on_c, 8, 78, 0
10, 19560, Note_on_c, 8, 77, 65
10, 19590, Note_on_c, 8, 77, 0
10, 19620, Note_on_c, 8, 75, 81
10, 19650, Note_on_c, 8, 75, 0
10, 19680, Note_on_c, 8, 75, 95
10, 19740, Note_on_c, 8, 75, 0
10, 19740, Note_on_c, 8, 74, 95
10, 19800, Note_on_c, 8, 74, 0
10, 19800, Note_on_c, 8, 74, 105
10, 19830, Note_on_c, 8, 74, 0
10, 19860, Note_on_c, 8, 74, 90
10, 19890, Note_on_c, 8, 74, 0
10, 19920, Note_on_c, 8, 74, 90
10, 19950, Note_on_c, 8, 74, 0
10, 19980, Note_on_c, 8, 74, 90
10, 20010, Note_on_c, 8, 74, 0
10, 20040, Note_on_c, 8, 75, 89
10, 20070, Note_on_c, 8, 75, 0
10, 20100, Note_on_c, 8, 77, 86
10, 20130, Note_on_c, 8, 77, 0
10, 20160, Note_on_c, 8, 77, 85
10, 20220, Note_on_c, 8, 77, 0
10, 20220, Note_on_c, 8, 75, 90
10, 20280, Note_on_c, 8, 75, 0
10, 20280, Note_on_c, 8, 75, 101
10, 20310, Note_on_c, 8, 75, 0
10, 20340, Note_on_c, 8, 75, 93
10, 20370, Note_on_c, 8, 75, 0
10, 20400, Note_on_c, 8, 75, 89
10, 20430, Note_on_c, 8, 75, 0
10, 20460, Note_on_c, 8, 75, 86
10, 20490, Note_on_c, 8, 75, 0
10, 20520, Note_on_c, 8, 77, 89
10, 20550, Note_on_c, 8, 77, 0
10, 20580, Note_on_c, 8, 78, 80
10, 20610, Note_on_c, 8, 78, 0
10, 20640, Note_on_c, 8, 77, 81
10, 20670, Note_on_c, 8, 77, 0
10, 20670, Note_on_c, 8, 77, 84
10, 20700, Note_on_c, 8, 77, 0
10, 20700, Note_on_c, 8, 77, 89
10, 20730, Note_on_c, 8, 77, 0
10, 20730, Note_on_c, 8, 77, 85
10, 20760, Note_on_c, 8, 77, 0
10, 20760, Note_on_c, 8, 77, 86
10, 20790, Note_on_c, 8, 77, 0
10, 20790, Note_on_c, 8, 77, 84
10, 20820, Note_on_c, 8, 77, 0
10, 20820, Note_on_c, 8, 77, 84
10, 20850, Note_on_c, 8, 77, 0
10, 20850, Note_on_c, 8, 77, 94
10, 20880, Note_on_c, 8, 77, 0
10, 20880, Note_on_c, 8, 78, 119
10, 20910, Note_on_c, 8, 78, 0
10, 20910, Note_on_c, 8, 78, 95
10, 20940, Note_on_c, 8, 78, 0
10, 20940, Note_on_c, 8, 78, 60
10, 20970, Note_on_c, 8, 78, 0
10, 20970, Note_on_c, 8, 78, 76
10, 21000, Note_on_c, 8, 78, 0
10, 21000, Note_on_c, 8, 78, 78
10, 21030, Note_on_c, 8, 78, 0
10, 21030, Note_on_c, 8, 78, 77
10, 21060, Note_on_c, 8, 78, 0
10, 21060, Note_on_c, 8, 78, 81
10, 21090, Note_on_c, 8, 78, 0
10, 21090, Note_on_c, 8, 78, 81
10, 21120, Note_on_c, 8, 78, 0
10, 21120, Note_on_c, 8, 77, 74
10, 21150, Note_on_c, 8, 77, 0
10, 21150, Note_on_c, 8, 77, 78
10, 21180, Note_on_c, 8, 77, 0
10, 21180, Note_on_c, 8, 77, 84
10, 21210, Note_on_c, 8, 77, 0
10, 21210, Note_on_c, 8, 77, 84
10, 21240, Note_on_c, 8, 77, 0
10, 21240, Note_on_c, 8, 77, 78
10, 21270, Note_on_c, 8, 77, 0
10, 21270, Note_on_c, 8, 77, 81
10, 21300, Note_on_c, 8, 77, 0
10, 21300, Note_on_c, 8, 77, 73
10, 21330, Note_on_c, 8, 77, 0
10, 21330, Note_on_c, 8, 77, 84
10, 21360, Note_on_c, 8, 77, 0
10, 21360, Note_on_c, 8, 81, 89
10, 21390, Note_on_c, 8, 81, 0
10, 21390, Note_on_c, 8, 81, 84
10, 21420, Note_on_c, 8, 81, 0
10, 21420, Note_on_c, 8, 81, 86
10, 21450, Note_on_c, 8, 81, 0
10, 21450, Note_on_c, 8, 81, 85
10, 21480, Note_on_c, 8, 81, 0
10, 21480, Note_on_c, 8, 81, 86
10, 21510, Note_on_c, 8, 81, 0
10, 21510, Note_on_c, 8, 81, 89
10, 21540, Note_on_c, 8, 81, 0
10, 21540, Note_on_c, 8, 81, 89
10, 21570, Note_on_c, 8, 81, 0
10, 21570, Note_on_c, 8, 81, 85
10, 21600, Note_on_c, 8, 81, 0
10, 21600, Note_on_c, 8, 82, 84
10, 21630, Note_on_c, 8, 82, 0
10, 21630, Note_on_c, 8, 82, 84
10, 21660, Note_on_c, 8, 82, 0
10, 21660, Note_on_c, 8, 82, 84
10, 21690, Note_on_c, 8, 82, 0
10, 21690, Note_on_c, 8, 82, 84
10, 21720, Note_on_c, 8, 82, 0
10, 21720, Note_on_c, 8, 78, 119
10, 21750, Note_on_c, 8, 78, 0
10, 21750, Note_on_c, 8, 78, 84
10, 21780, Note_on_c, 8, 78, 0
10, 21780, Note_on_c, 8, 78, 81
10, 21810, Note_on_c, 8, 78, 0
10, 21810, Note_on_c, 8, 78, 81
10, 21840, Note_on_c, 8, 78, 0
10, 21840, Note_on_c, 8, 77, 94
10, 21870, Note_on_c, 8, 77, 0
10, 21870, Note_on_c, 8, 77, 80
10, 21900, Note_on_c, 8, 77, 0
10, 21900, Note_on_c, 8, 77, 81
10, 21930, Note_on_c, 8, 77, 0
10, 21930, Note_on_c, 8, 77, 89
10, 21960, Note_on_c, 8, 77, 0
10, 21960, Note_on_c, 8, 81, 86
10, 21990, Note_on_c, 8, 81, 0
10, 21990, Note_on_c, 8, 81, 85
10, 22020, Note_on_c, 8, 81, 0
10, 22020, Note_on_c, 8, 81, 86
10, 22050, Note_on_c, 8, 81, 0
10, 22050, Note_on_c, 8, 81, 94
10, 22080, Note_on_c, 8, 81, 0
10, 22080, Note_on_c, 8, 82, 81
10, 22110, Note_on_c, 8, 82, 0
10, 22110, Note_on_c, 8, 82, 84
10, 22140, Note_on_c, 8, 82, 0
10, 22140, Note_on_c, 8, 82, 84
10, 22170, Note_on_c, 8, 82, 0
10, 22170, Note_on_c, 8, 82, 86
10, 22200, Note_on_c, 8, 82, 0
10, 22200, Note_on_c, 8, 78, 117
10, 22230, Note_on_c, 8, 78, 0
10, 22230, Note_on_c, 8, 78, 68
10, 22260, Note_on_c, 8, 78, 0
10, 22260, Note_on_c, 8, 78, 84
10, 22290, Note_on_c, 8, 78, 0
10, 22290, Note_on_c, 8, 78, 82
10, 22320, Note_on_c, 8, 78, 0
10, 22320, Note_on_c, 8, 77, 89
10, 22350, Note_on_c, 8, 77, 0
10, 22350, Note_on_c, 8, 77, 84
10, 22380, Note_on_c, 8, 77, 0
10, 22380, Note_on_c, 8, 77, 82
10, 22410, Note_on_c, 8, 77, 0
10, 22410, Note_on_c, 8, 77, 89
10, 22440, Note_on_c, 8, 77, 0
10, 22440, Note_on_c, 8, 81, 84
10, 22470, Note_on_c, 8, 81, 0
10, 22470, Note_on_c, 8, 81, 89
10, 22500, Note_on_c, 8, 81, 0
10, 22500, Note_on_c, 8, 81, 85
10, 22530, Note_on_c, 8, 81, 0
10, 22530, Note_on_c, 8, 81, 82
10, 22560, Note_on_c, 8, 81, 0
10, 22560, Note_on_c, 8, 82, 74
10, 22680, Note_on_c, 8, 82, 0
10, 23520, Note_on_c, 8, 67, 64
10, 23760, Note_on_c, 8, 67, 0
10, 23760, Note_on_c, 8, 65, 68
10, 23820, Note_on_c, 8, 65, 0
10, 23820, Note_on_c, 8, 67, 70
10, 23880, Note_on_c, 8, 67, 0
10, 23880, Note_on_c, 8, 68, 74
10, 23940, Note_on_c, 8, 68, 0
10, 23940, Note_on_c, 8, 65, 35
10, 24000, Note_on_c, 8, 65, 0
10, 24000, Note_on_c, 8, 63, 64
10, 24240, Note_on_c, 8, 63, 0
10, 24240, Note_on_c, 8, 58, 68
10, 24420, Note_on_c, 8, 58, 0
10, 24420, Note_on_c, 8, 63, 64
10, 24480, Note_on_c, 8, 63, 0
10, 24480, Note_on_c, 8, 65, 67
10, 24570, Note_on_c, 8, 65, 0
10, 24600, Note_on_c, 8, 65, 64
10, 24690, Note_on_c, 8, 65, 0
10, 24720, Note_on_c, 8, 65, 71
10, 24810, Note_on_c, 8, 65, 0
10, 24840, Note_on_c, 8, 66, 64
10, 24930, Note_on_c, 8, 66, 0
10, 24960, Note_on_c, 8, 66, 62
10, 25200, Note_on_c, 8, 66, 0
10, 25200, Note_on_c, 8, 67, 57
10, 25320, Note_on_c, 8, 67, 0
10, 25380, Note_on_c, 8, 63, 66
10, 25440, Note_on_c, 8, 63, 0
10, 25440, Note_on_c, 8, 68, 58
10, 25680, Note_on_c, 8, 68, 0
10, 25680, Note_on_c, 8, 67, 53
10, 25800, Note_on_c, 8, 67, 0
10, 25860, Note_on_c, 8, 63, 72
10, 25920, Note_on_c, 8, 63, 0
10, 25920, Note_on_c, 8, 72, 29
10, 26160, Note_on_c, 8, 72, 0
10, 26160, Note_on_c, 8, 70, 67
10, 26280, Note_on_c, 8, 70, 0
10, 26280, Note_on_c, 8, 70, 73
10, 26400, Note_on_c, 8, 70, 0
10, 26400, Note_on_c, 8, 69, 68
10, 26520, Note_on_c, 8, 69, 0
10, 26520, Note_on_c, 8, 68, 72
10, 26640, Note_on_c, 8, 68, 0
10, 26640, Note_on_c, 8, 67, 71
10, 26760, Note_on_c, 8, 67, 0
10, 26760, Note_on_c, 8, 72, 30
10, 26880, Note_on_c, 8, 72, 0
10, 26880, Note_on_c, 8, 63, 61
10, 27120, Note_on_c, 8, 63, 0
10, 27120, Note_on_c, 8, 62, 71
10, 27240, Note_on_c, 8, 62, 0
10, 27240, Note_on_c, 8, 70, 55
10, 27360, Note_on_c, 8, 70, 0
10, 27360, Note_on_c, 8, 79, 45
10, 27600, Note_on_c, 8, 79, 0
10, 27600, Note_on_c, 8, 77, 52
10, 27660, Note_on_c, 8, 77, 0
10, 27660, Note_on_c, 8, 79, 52
10, 27720, Note_on_c, 8, 79, 0
10, 27720, Note_on_c, 8, 80, 53
10, 27780, Note_on_c, 8, 80, 0
10, 27780, Note_on_c, 8, 77, 40
10, 27840, Note_on_c, 8, 77, 0
10, 27840, Note_on_c, 8, 75, 57
10, 28080, Note_on_c, 8, 75, 0
10, 28080, Note_on_c, 8, 74, 52
10, 28140, Note_on_c, 8, 74, 0
10, 28140, Note_on_c, 8, 75, 64
10, 28200, Note_on_c, 8, 75, 0
10, 28200, Note_on_c, 8, 77, 43
10, 28260, Note_on_c, 8, 77, 0
10, 28260, Note_on_c, 8, 74, 62
10, 28320, Note_on_c, 8, 74, 0
10, 28320, Note_on_c, 8, 72, 42
10, 28380, Note_on_c, 8, 72, 0
10, 28440, Note_on_c, 8, 74, 48
10, 28500, Note_on_c, 8, 74, 0
10, 28560, Note_on_c, 8, 75, 57
10, 28620, Note_on_c, 8, 75, 0
10, 28680, Note_on_c, 8, 78, 51
10, 28740, Note_on_c, 8, 78, 0
10, 28800, Control_c, 8, 7, 99
10, 28800, Note_on_c, 8, 79, 44
10, 28820, Control_c, 8, 7, 100
10, 28840, Control_c, 8, 7, 101
10, 28860, Control_c, 8, 7, 102
10, 28880, Control_c, 8, 7, 103
10, 28900, Control_c, 8, 7, 104
10, 28920, Control_c, 8, 7, 105
10, 28940, Control_c, 8, 7, 106
10, 28960, Control_c, 8, 7, 107
10, 28980, Control_c, 8, 7, 108
10, 29000, Control_c, 8, 7, 109
10, 29020, Control_c, 8, 7, 110
10, 29040, Control_c, 8, 7, 111
10, 29060, Control_c, 8, 7, 112
10, 29080, Control_c, 8, 7, 113
10, 29100, Control_c, 8, 7, 114
10, 29120, Control_c, 8, 7, 115
10, 29140, Control_c, 8, 7, 116
10, 29160, Note_on_c, 8, 79, 0
10, 29160, Note_on_c, 8, 77, 54
10, 29160, Control_c, 8, 7, 117
10, 29180, Control_c, 8, 7, 118
10, 29200, Control_c, 8, 7, 119
10, 29220, Control_c, 8, 7, 120
10, 29240, Control_c, 8, 7, 121
10, 29255, Control_c, 8, 7, 122
10, 29280, Note_on_c, 8, 77, 0
10, 29280, Control_c, 8, 7, 99
10, 29280, Note_on_c, 8, 76, 72
10, 29340, Note_on_c, 8, 76, 0
10, 29340, Note_on_c, 8, 72, 72
10, 29400, Note_on_c, 8, 72, 0
10, 29400, Note_on_c, 8, 67, 81
10, 29460, Note_on_c, 8, 67, 0
10, 29460, Note_on_c, 8, 76, 76
10, 29520, Note_on_c, 8, 76, 0
10, 29520, Note_on_c, 8, 74, 81
10, 29580, Note_on_c, 8, 74, 0
10, 29580, Note_on_c, 8, 76, 76
10, 29640, Note_on_c, 8, 76, 0
10, 29640, Note_on_c, 8, 77, 74
10, 29700, Note_on_c, 8, 77, 0
10, 29700, Note_on_c, 8, 74, 85
10, 29760, Note_on_c, 8, 74, 0
10, 29760, Note_on_c, 8, 72, 54
10, 29820, Note_on_c, 8, 72, 0
10, 29820, Note_on_c, 8, 67, 80
10, 29880, Note_on_c, 8, 67, 0
10, 29880, Note_on_c, 8, 64, 82
10, 29940, Note_on_c, 8, 64, 0
10, 29940, Note_on_c, 8, 67, 76
10, 30000, Note_on_c, 8, 67, 0
10, 30000, Note_on_c, 8, 60, 58
10, 30060, Note_on_c, 8, 60, 0
10, 30060, Note_on_c, 8, 64, 68
10, 30120, Note_on_c, 8, 64, 0
10, 30120, Note_on_c, 8, 67, 65
10, 30180, Note_on_c, 8, 67, 0
10, 30180, Note_on_c, 8, 72, 65
10, 30240, Note_on_c, 8, 72, 0
10, 30240, Note_on_c, 8, 74, 64
10, 30300, Note_on_c, 8, 74, 0
10, 30300, Note_on_c, 8, 73, 69
10, 30360, Note_on_c, 8, 73, 0
10, 30360, Note_on_c, 8, 74, 73
10, 30420, Note_on_c, 8, 74, 0
10, 30420, Note_on_c, 8, 73, 72
10, 30480, Note_on_c, 8, 73, 0
10, 30480, Note_on_c, 8, 74, 77
10, 30570, Note_on_c, 8, 74, 0
10, 30600, Note_on_c, 8, 75, 68
10, 30690, Note_on_c, 8, 75, 0
10, 30720, Note_on_c, 8, 75, 73
10, 30960, Note_on_c, 8, 75, 0
10, 30960, Note_on_c, 8, 76, 76
10, 31080, Note_on_c, 8, 76, 0
10, 31140, Note_on_c, 8, 71, 76
10, 31200, Note_on_c, 8, 71, 0
10, 31200, Note_on_c, 8, 77, 89
10, 31440, Note_on_c, 8, 77, 0
10, 31440, Note_on_c, 8, 76, 68
10, 31560, Note_on_c, 8, 76, 0
10, 31620, Note_on_c, 8, 72, 65
10, 31680, Note_on_c, 8, 72, 0
10, 31680, Note_on_c, 8, 81, 94
10, 31920, Note_on_c, 8, 81, 0
10, 31920, Note_on_c, 8, 79, 74
10, 32040, Note_on_c, 8, 79, 0
10, 32100, Note_on_c, 8, 77, 72
10, 32160, Note_on_c, 8, 77, 0
10, 32160, Note_on_c, 8, 76, 81
10, 32220, Note_on_c, 8, 76, 0
10, 32280, Note_on_c, 8, 76, 84
10, 32340, Note_on_c, 8, 76, 0
10, 32400, Note_on_c, 8, 76, 74
10, 32460, Note_on_c, 8, 76, 0
10, 32460, Note_on_c, 8, 74, 84
10, 32520, Note_on_c, 8, 74, 0
10, 32520, Note_on_c, 8, 72, 68
10, 32580, Note_on_c, 8, 72, 0
10, 32580, Note_on_c, 8, 74, 73
10, 32640, Note_on_c, 8, 74, 0
10, 32640, Note_on_c, 8, 74, 84
10, 32820, Note_on_c, 8, 74, 0
10, 32820, Note_on_c, 8, 75, 81
10, 32880, Note_on_c, 8, 75, 0
10, 32880, Note_on_c, 8, 76, 84
10, 33000, Note_on_c, 8, 76, 0
10, 33060, Note_on_c, 8, 72, 69
10, 33120, Note_on_c, 8, 72, 0
10, 33120, Note_on_c, 8, 77, 71
10, 33150, Note_on_c, 8, 77, 0
10, 33150, Note_on_c, 8, 77, 71
10, 33180, Note_on_c, 8, 77, 0
10, 33180, Note_on_c, 8, 77, 60
10, 33210, Note_on_c, 8, 77, 0
10, 33210, Note_on_c, 8, 77, 59
10, 33240, Note_on_c, 8, 77, 0
10, 33240, Note_on_c, 8, 77, 69
10, 33270, Note_on_c, 8, 77, 0
10, 33270, Note_on_c, 8, 77, 65
10, 33300, Note_on_c, 8, 77, 0
10, 33300, Note_on_c, 8, 77, 64
10, 33330, Note_on_c, 8, 77, 0
10, 33330, Note_on_c, 8, 77, 69
10, 33360, Note_on_c, 8, 77, 0
10, 33360, Note_on_c, 8, 75, 74
10, 33390, Note_on_c, 8, 75, 0
10, 33390, Note_on_c, 8, 75, 71
10, 33420, Note_on_c, 8, 75, 0
10, 33420, Note_on_c, 8, 75, 74
10, 33450, Note_on_c, 8, 75, 0
10, 33450, Note_on_c, 8, 75, 68
10, 33480, Note_on_c, 8, 75, 0
10, 33480, Note_on_c, 8, 75, 72
10, 33510, Note_on_c, 8, 75, 0
10, 33510, Note_on_c, 8, 75, 68
10, 33540, Note_on_c, 8, 75, 0
10, 33540, Note_on_c, 8, 75, 77
10, 33570, Note_on_c, 8, 75, 0
10, 33570, Note_on_c, 8, 75, 65
10, 33600, Note_on_c, 8, 75, 0
10, 33600, Note_on_c, 8, 80, 56
10, 33630, Note_on_c, 8, 80, 0
10, 33630, Note_on_c, 8, 80, 67
10, 33660, Note_on_c, 8, 80, 0
10, 33660, Note_on_c, 8, 80, 61
10, 33690, Note_on_c, 8, 80, 0
10, 33690, Note_on_c, 8, 80, 65
10, 33720, Note_on_c, 8, 80, 0
10, 33720, Note_on_c, 8, 80, 57
10, 33750, Note_on_c, 8, 80, 0
10, 33750, Note_on_c, 8, 80, 68
10, 33780, Note_on_c, 8, 80, 0
10, 33780, Note_on_c, 8, 80, 74
10, 33810, Note_on_c, 8, 80, 0
10, 33810, Note_on_c, 8, 80, 71
10, 33840, Note_on_c, 8, 80, 0
10, 33840, Note_on_c, 8, 79, 74
10, 33870, Note_on_c, 8, 79, 0
10, 33870, Note_on_c, 8, 79, 73
10, 33900, Note_on_c, 8, 79, 0
10, 33900, Note_on_c, 8, 79, 72
10, 33930, Note_on_c, 8, 79, 0
10, 33930, Note_on_c, 8, 79, 73
10, 33960, Note_on_c, 8, 79, 0
10, 33960, Note_on_c, 8, 79, 82
10, 33990, Note_on_c, 8, 79, 0
10, 33990, Note_on_c, 8, 79, 78
10, 34020, Note_on_c, 8, 79, 0
10, 34020, Note_on_c, 8, 79, 84
10, 34050, Note_on_c, 8, 79, 0
10, 34050, Note_on_c, 8, 79, 84
10, 34080, Note_on_c, 8, 79, 0
10, 34080, Note_on_c, 8, 78, 80
10, 34110, Note_on_c, 8, 78, 0
10, 34110, Note_on_c, 8, 78, 80
10, 34140, Note_on_c, 8, 78, 0
10, 34140, Note_on_c, 8, 78, 84
10, 34170, Note_on_c, 8, 78, 0
10, 34170, Note_on_c, 8, 78, 84
10, 34200, Note_on_c, 8, 78, 0
10, 34200, Note_on_c, 8, 78, 81
10, 34230, Note_on_c, 8, 78, 0
10, 34230, Note_on_c, 8, 78, 81
10, 34260, Note_on_c, 8, 78, 0
10, 34260, Note_on_c, 8, 78, 84
10, 34290, Note_on_c, 8, 78, 0
10, 34290, Note_on_c, 8, 78, 82
10, 34320, Note_on_c, 8, 78, 0
10, 34320, Note_on_c, 8, 77, 93
10, 34350, Note_on_c, 8, 77, 0
10, 34350, Note_on_c, 8, 77, 76
10, 34380, Note_on_c, 8, 77, 0
10, 34380, Note_on_c, 8, 77, 89
10, 34410, Note_on_c, 8, 77, 0
10, 34410, Note_on_c, 8, 77, 94
10, 34440, Note_on_c, 8, 77, 0
10, 34440, Note_on_c, 8, 77, 90
10, 34470, Note_on_c, 8, 77, 0
10, 34470, Note_on_c, 8, 77, 89
10, 34500, Note_on_c, 8, 77, 0
10, 34500, Note_on_c, 8, 77, 93
10, 34530, Note_on_c, 8, 77, 0
10, 34530, Note_on_c, 8, 77, 95
10, 34560, Note_on_c, 8, 77, 0
10, 34560, Note_on_c, 8, 75, 94
10, 34590, Note_on_c, 8, 75, 0
10, 34590, Note_on_c, 8, 75, 95
10, 34620, Note_on_c, 8, 75, 0
10, 34620, Note_on_c, 8, 75, 94
10, 34650, Note_on_c, 8, 75, 0
10, 34650, Note_on_c, 8, 75, 95
10, 34680, Note_on_c, 8, 75, 0
10, 34680, Note_on_c, 8, 74, 99
10, 34710, Note_on_c, 8, 74, 0
10, 34710, Note_on_c, 8, 74, 95
10, 34740, Note_on_c, 8, 74, 0
10, 34740, Note_on_c, 8, 74, 104
10, 34770, Note_on_c, 8, 74, 0
10, 34770, Note_on_c, 8, 74, 104
10, 34800, Note_on_c, 8, 74, 0
10, 34800, Note_on_c, 8, 72, 73
10, 34830, Note_on_c, 8, 72, 0
10, 34830, Note_on_c, 8, 72, 72
10, 34860, Note_on_c, 8, 72, 0
10, 34860, Note_on_c, 8, 72, 71
10, 34890, Note_on_c, 8, 72, 0
10, 34890, Note_on_c, 8, 72, 74
10, 34920, Note_on_c, 8, 72, 0
10, 34920, Note_on_c, 8, 71, 99
10, 34950, Note_on_c, 8, 71, 0
10, 34950, Note_on_c, 8, 71, 95
10, 34980, Note_on_c, 8, 71, 0
10, 34980, Note_on_c, 8, 71, 95
10, 35010, Note_on_c, 8, 71, 0
10, 35010, Note_on_c, 8, 71, 94
10, 35040, Note_on_c, 8, 71, 0
10, 35040, Note_on_c, 8, 72, 80
10, 35160, Note_on_c, 8, 72, 0
10, 36120, Note_on_c, 8, 76, 64
10, 36240, Note_on_c, 8, 76, 0
10, 36240, Note_on_c, 8, 76, 65
10, 36360, Note_on_c, 8, 76, 0
10, 36360, Note_on_c, 8, 76, 76
10, 36480, Note_on_c, 8, 76, 0
10, 36480, Note_on_c, 8, 77, 89
10, 36720, Note_on_c, 8, 77, 0
10, 36720, Note_on_c, 8, 80, 67
10, 36960, Note_on_c, 8, 80, 0
10, 36960, Note_on_c, 8, 84, 81
10, 37140, Note_on_c, 8, 84, 0
10, 37140, Note_on_c, 8, 82, 81
10, 37170, Note_on_c, 8, 82, 0
10, 37200, Note_on_c, 8, 80, 93
10, 37260, Note_on_c, 8, 80, 0
10, 37320, Note_on_c, 8, 79, 93
10, 37380, Note_on_c, 8, 79, 0
10, 37440, Note_on_c, 8, 77, 89
10, 37500, Note_on_c, 8, 77, 0
10, 37560, Note_on_c, 8, 75, 99
10, 37620, Note_on_c, 8, 75, 0
10, 37680, Note_on_c, 8, 73, 86
10, 37740, Note_on_c, 8, 73, 0
10, 37800, Note_on_c, 8, 72, 84
10, 37860, Note_on_c, 8, 72, 0
10, 37920, Note_on_c, 8, 71, 99
10, 38040, Note_on_c, 8, 71, 0
10, 39000, Note_on_c, 8, 83, 94
10, 39030, Note_on_c, 8, 83, 0
10, 39030, Note_on_c, 8, 83, 93
10, 39060, Note_on_c, 8, 83, 0
10, 39060, Note_on_c, 8, 83, 90
10, 39090, Note_on_c, 8, 83, 0
10, 39090, Note_on_c, 8, 83, 93
10, 39120, Note_on_c, 8, 83, 0
10, 39120, Note_on_c, 8, 83, 94
10, 39150, Note_on_c, 8, 83, 0
10, 39150, Note_on_c, 8, 83, 94
10, 39180, Note_on_c, 8, 83, 0
10, 39180, Note_on_c, 8, 83, 95
10, 39210, Note_on_c, 8, 83, 0
10, 39210, Note_on_c, 8, 83, 95
10, 39240, Note_on_c, 8, 83, 0
10, 39240, Note_on_c, 8, 83, 89
10, 39270, Note_on_c, 8, 83, 0
10, 39270, Note_on_c, 8, 83, 98
10, 39300, Note_on_c, 8, 83, 0
10, 39300, Note_on_c, 8, 83, 95
10, 39330, Note_on_c, 8, 83, 0
10, 39330, Note_on_c, 8, 83, 99
10, 39360, Note_on_c, 8, 83, 0
10, 39360, Note_on_c, 8, 84, 99
10, 39480, Note_on_c, 8, 84, 0
10, 39600, Note_on_c, 8, 80, 105
10, 39600, Note_on_c, 8, 72, 72
10, 39600, Note_on_c, 8, 65, 101
10, 39720, Note_on_c, 8, 65, 0
10, 39720, Note_on_c, 8, 72, 0
10, 39720, Note_on_c, 8, 80, 0
10, 39840, Note_on_c, 8, 79, 98
10, 39840, Note_on_c, 8, 72, 71
10, 39840, Note_on_c, 8, 63, 104
10, 39960, Note_on_c, 8, 63, 0
10, 39960, Note_on_c, 8, 72, 0
10, 39960, Note_on_c, 8, 79, 0
10, 40080, Note_on_c, 8, 71, 99
10, 40080, Note_on_c, 8, 62, 94
10, 40080, Note_on_c, 8, 55, 94
10, 40200, Note_on_c, 8, 55, 0
10, 40200, Note_on_c, 8, 62, 0
10, 40200, Note_on_c, 8, 71, 0
10, 40320, Note_on_c, 8, 72, 115
10, 40320, Note_on_c, 8, 63, 86
10, 40320, Note_on_c, 8, 55, 99
10, 40440, Note_on_c, 8, 55, 0
10, 40440, Note_on_c, 8, 63, 0
10, 40440, Note_on_c, 8, 72, 0
10, 41520, Note_on_c, 8, 80, 61
10, 41700, Note_on_c, 8, 80, 0
10, 41700, Note_on_c, 8, 77, 80
10, 41730, Note_on_c, 8, 77, 0
10, 41730, Note_on_c, 8, 74, 86
10, 41760, Note_on_c, 8, 74, 0
10, 41760, Note_on_c, 8, 74, 78
10, 41820, Note_on_c, 8, 74, 0
10, 41820, Note_on_c, 8, 72, 66
10, 41880, Note_on_c, 8, 72, 0
10, 41880, Note_on_c, 8, 72, 61
10, 41910, Note_on_c, 8, 72, 0
10, 41940, Note_on_c, 8, 72, 61
10, 41970, Note_on_c, 8, 72, 0
10, 42000, Note_on_c, 8, 72, 70
10, 42060, Note_on_c, 8, 72, 0
10, 42060, Note_on_c, 8, 71, 81
10, 42120, Note_on_c, 8, 71, 0
10, 42120, Note_on_c, 8, 71, 74
10, 42150, Note_on_c, 8, 71, 0
10, 42180, Note_on_c, 8, 71, 77
10, 42210, Note_on_c, 8, 71, 0
10, 42240, Note_on_c, 8, 72, 71
10, 42360, Note_on_c, 8, 72, 0
10, 43680, Note_on_c, 8, 68, 72
10, 44640, Note_on_c, 8, 68, 0
10, 44640, Note_on_c, 8, 68, 43
10, 44640, Note_on_c, 8, 59, 52
10, 44670, Note_on_c, 8, 59, 0
10, 44670, Note_on_c, 8, 68, 0
10, 44670, Note_on_c, 8, 68, 44
10, 44670, Note_on_c, 8, 59, 64
10, 44700, Note_on_c, 8, 59, 0
10, 44700, Note_on_c, 8, 68, 0
10, 44700, Note_on_c, 8, 68, 43
10, 44700, Note_on_c, 8, 59, 55
10, 44730, Note_on_c, 8, 59, 0
10, 44730, Note_on_c, 8, 68, 0
10, 44730, Note_on_c, 8, 68, 43
10, 44730, Note_on_c, 8, 59, 58
10, 44760, Note_on_c, 8, 59, 0
10, 44760, Note_on_c, 8, 68, 0
10, 44760, Note_on_c, 8, 68, 43
10, 44760, Note_on_c, 8, 59, 48
10, 44790, Note_on_c, 8, 59, 0
10, 44790, Note_on_c, 8, 68, 0
10, 44790, Note_on_c, 8, 68, 47
10, 44790, Note_on_c, 8, 59, 48
10, 44820, Note_on_c, 8, 59, 0
10, 44820, Note_on_c, 8, 68, 0
10, 44820, Note_on_c, 8, 68, 42
10, 44820, Note_on_c, 8, 59, 62
10, 44850, Note_on_c, 8, 59, 0
10, 44850, Note_on_c, 8, 68, 0
10, 44850, Note_on_c, 8, 68, 58
10, 44850, Note_on_c, 8, 59, 65
10, 44880, Note_on_c, 8, 59, 0
10, 44880, Note_on_c, 8, 68, 0
10, 44880, Note_on_c, 8, 68, 43
10, 44880, Note_on_c, 8, 59, 45
10, 44910, Note_on_c, 8, 59, 0
10, 44910, Note_on_c, 8, 68, 0
10, 44910, Note_on_c, 8, 68, 43
10, 44910, Note_on_c, 8, 59, 45
10, 44940, Note_on_c, 8, 59, 0
10, 44940, Note_on_c, 8, 68, 0
10, 44940, Note_on_c, 8, 68, 51
10, 44940, Note_on_c, 8, 59, 58
10, 44970, Note_on_c, 8, 59, 0
10, 44970, Note_on_c, 8, 68, 0
10, 44970, Note_on_c, 8, 68, 44
10, 44970, Note_on_c, 8, 59, 65
10, 45000, Note_on_c, 8, 59, 0
10, 45000, Note_on_c, 8, 68, 0
10, 45000, Note_on_c, 8, 68, 43
10, 45000, Note_on_c, 8, 59, 67
10, 45030, Note_on_c, 8, 59, 0
10, 45030, Note_on_c, 8, 68, 0
10, 45030, Note_on_c, 8, 68, 53
10, 45030, Note_on_c, 8, 59, 55
10, 45060, Note_on_c, 8, 59, 0
10, 45060, Note_on_c, 8, 68, 0
10, 45060, Note_on_c, 8, 68, 52
10, 45060, Note_on_c, 8, 59, 65
10, 45090, Note_on_c, 8, 59, 0
10, 45090, Note_on_c, 8, 68, 0
10, 45090, Note_on_c, 8, 68, 61
10, 45090, Note_on_c, 8, 59, 66
10, 45120, Note_on_c, 8, 59, 0
10, 45120, Note_on_c, 8, 68, 0
10, 45120, Note_on_c, 8, 67, 43
10, 45120, Note_on_c, 8, 58, 55
10, 45150, Note_on_c, 8, 58, 0
10, 45150, Note_on_c, 8, 67, 0
10, 45150, Note_on_c, 8, 67, 46
10, 45150, Note_on_c, 8, 58, 66
10, 45180, Note_on_c, 8, 58, 0
10, 45180, Note_on_c, 8, 67, 0
10, 45180, Note_on_c, 8, 67, 51
10, 45180, Note_on_c, 8, 58, 68
10, 45210, Note_on_c, 8, 58, 0
10, 45210, Note_on_c, 8, 67, 0
10, 45210, Note_on_c, 8, 67, 53
10, 45210, Note_on_c, 8, 58, 64
10, 45240, Note_on_c, 8, 58, 0
10, 45240, Note_on_c, 8, 67, 0
10, 45240, Note_on_c, 8, 67, 44
10, 45240, Note_on_c, 8, 58, 66
10, 45270, Note_on_c, 8, 58, 0
10, 45270, Note_on_c, 8, 67, 0
10, 45270, Note_on_c, 8, 67, 44
10, 45270, Note_on_c, 8, 58, 67
10, 45300, Note_on_c, 8, 58, 0
10, 45300, Note_on_c, 8, 67, 0
10, 45300, Note_on_c, 8, 67, 46
10, 45300, Note_on_c, 8, 58, 64
10, 45330, Note_on_c, 8, 58, 0
10, 45330, Note_on_c, 8, 67, 0
10, 45330, Note_on_c, 8, 67, 62
10, 45330, Note_on_c, 8, 58, 65
10, 45360, Note_on_c, 8, 58, 0
10, 45360, Note_on_c, 8, 67, 0
10, 45360, Note_on_c, 8, 67, 43
10, 45360, Note_on_c, 8, 58, 68
10, 45390, Note_on_c, 8, 58, 0
10, 45390, Note_on_c, 8, 67, 0
10, 45390, Note_on_c, 8, 67, 51
10, 45390, Note_on_c, 8, 58, 65
10, 45420, Note_on_c, 8, 58, 0
10, 45420, Note_on_c, 8, 67, 0
10, 45420, Note_on_c, 8, 67, 54
10, 45420, Note_on_c, 8, 58, 66
10, 45450, Note_on_c, 8, 58, 0
10, 45450, Note_on_c, 8, 67, 0
10, 45450, Note_on_c, 8, 67, 62
10, 45450, Note_on_c, 8, 58, 65
10, 45480, Note_on_c, 8, 58, 0
10, 45480, Note_on_c, 8, 67, 0
10, 45480, Note_on_c, 8, 67, 65
10, 45480, Note_on_c, 8, 58, 73
10, 45510, Note_on_c, 8, 58, 0
10, 45510, Note_on_c, 8, 67, 0
10, 45510, Note_on_c, 8, 67, 61
10, 45510, Note_on_c, 8, 58, 70
10, 45540, Note_on_c, 8, 58, 0
10, 45540, Note_on_c, 8, 67, 0
10, 45540, Note_on_c, 8, 67, 60
10, 45540, Note_on_c, 8, 58, 66
10, 45570, Note_on_c, 8, 58, 0
10, 45570, Note_on_c, 8, 67, 0
10, 45570, Note_on_c, 8, 67, 70
10, 45570, Note_on_c, 8, 58, 70
10, 45600, Note_on_c, 8, 58, 0
10, 45600, Note_on_c, 8, 67, 0
10, 45600, Note_on_c, 8, 66, 66
10, 45630, Note_on_c, 8, 66, 0
10, 45630, Note_on_c, 8, 66, 74
10, 45660, Note_on_c, 8, 66, 0
10, 45660, Note_on_c, 8, 66, 74
10, 45690, Note_on_c, 8, 66, 0
10, 45690, Note_on_c, 8, 66, 65
10, 45720, Note_on_c, 8, 66, 0
10, 45720, Note_on_c, 8, 66, 57
10, 45750, Note_on_c, 8, 66, 0
10, 45750, Note_on_c, 8, 66, 59
10, 45780, Note_on_c, 8, 66, 0
10, 45780, Note_on_c, 8, 66, 68
10, 45810, Note_on_c, 8, 66, 0
10, 45810, Note_on_c, 8, 66, 76
10, 45840, Note_on_c, 8, 66, 0
10, 45840, Note_on_c, 8, 65, 94
10, 45870, Note_on_c, 8, 65, 0
10, 45870, Note_on_c, 8, 65, 77
10, 45900, Note_on_c, 8, 65, 0
10, 45900, Note_on_c, 8, 65, 73
10, 45930, Note_on_c, 8, 65, 0
10, 45930, Note_on_c, 8, 65, 74
10, 45960, Note_on_c, 8, 65, 0
10, 45960, Note_on_c, 8, 65, 80
10, 45990, Note_on_c, 8, 65, 0
10, 45990, Note_on_c, 8, 65, 84
10, 46020, Note_on_c, 8, 65, 0
10, 46020, Note_on_c, 8, 65, 89
10, 46050, Note_on_c, 8, 65, 0
10, 46050, Note_on_c, 8, 65, 78
10, 46080, Note_on_c, 8, 65, 0
10, 46080, Note_on_c, 8, 64, 44
10, 46110, Note_on_c, 8, 64, 0
10, 46110, Note_on_c, 8, 64, 63
10, 46140, Note_on_c, 8, 64, 0
10, 46140, Note_on_c, 8, 64, 51
10, 46170, Note_on_c, 8, 64, 0
10, 46170, Note_on_c, 8, 64, 61
10, 46200, Note_on_c, 8, 64, 0
10, 46200, Note_on_c, 8, 63, 37
10, 46230, Note_on_c, 8, 63, 0
10, 46230, Note_on_c, 8, 63, 40
10, 46260, Note_on_c, 8, 63, 0
10, 46260, Note_on_c, 8, 63, 45
10, 46290, Note_on_c, 8, 63, 0
10, 46290, Note_on_c, 8, 63, 50
10, 46320, Note_on_c, 8, 63, 0
10, 46320, Note_on_c, 8, 62, 43
10, 46350, Note_on_c, 8, 62, 0
10, 46350, Note_on_c, 8, 62, 42
10, 46380, Note_on_c, 8, 62, 0
10, 46380, Note_on_c, 8, 62, 43
10, 46410, Note_on_c, 8, 62, 0
10, 46410, Note_on_c, 8, 62, 53
10, 46440, Note_on_c, 8, 62, 0
10, 46440, Note_on_c, 8, 67, 43
10, 46470, Note_on_c, 8, 67, 0
10, 46470, Note_on_c, 8, 67, 45
10, 46500, Note_on_c, 8, 67, 0
10, 46500, Note_on_c, 8, 67, 57
10, 46530, Note_on_c, 8, 67, 0
10, 46530, Note_on_c, 8, 67, 64
10, 46560, Note_on_c, 8, 67, 0
10, 46560, Note_on_c, 8, 60, 39
10, 46680, Note_on_c, 8, 60, 0
10, 46920, Note_on_c, 8, 80, 95
10, 47160, Note_on_c, 8, 80, 0
10, 47220, Note_on_c, 8, 79, 84
10, 47250, Note_on_c, 8, 79, 0
10, 47280, Note_on_c, 8, 77, 74
10, 47310, Note_on_c, 8, 77, 0
10, 47340, Note_on_c, 8, 75, 76
10, 47370, Note_on_c, 8, 75, 0
10, 47400, Note_on_c, 8, 74, 94
10, 47430, Note_on_c, 8, 74, 0
10, 47460, Note_on_c, 8, 79, 65
10, 47490, Note_on_c, 8, 79, 0
10, 47520, Note_on_c, 8, 75, 86
10, 47640, Note_on_c, 8, 75, 0
10, 47700, Note_on_c, 8, 75, 43
10, 47760, Note_on_c, 8, 75, 0
10, 47760, Note_on_c, 8, 72, 53
10, 47880, Note_on_c, 8, 72, 0
10, 47940, Note_on_c, 8, 72, 32
10, 48000, Note_on_c, 8, 72, 0
10, 48000, Note_on_c, 8, 74, 50
10, 48120, Note_on_c, 8, 74, 0
10, 48180, Note_on_c, 8, 74, 49
10, 48240, Note_on_c, 8, 74, 0
10, 48240, Note_on_c, 8, 67, 40
10, 48360, Note_on_c, 8, 67, 0
10, 48420, Note_on_c, 8, 67, 44
10, 48480, Note_on_c, 8, 67, 0
10, 48480, Note_on_c, 8, 75, 45
10, 48510, Note_on_c, 8, 75, 0
10, 48510, Note_on_c, 8, 84, 43
10, 48540, Note_on_c, 8, 84, 0
10, 48540, Note_on_c, 8, 84, 40
10, 48570, Note_on_c, 8, 84, 0
10, 48570, Note_on_c, 8, 84, 42
10, 48600, Note_on_c, 8, 84, 0
10, 48600, Note_on_c, 8, 84, 41
10, 48630, Note_on_c, 8, 84, 0
10, 48630, Note_on_c, 8, 84, 40
10, 48660, Note_on_c, 8, 84, 0
10, 48660, Note_on_c, 8, 84, 42
10, 48690, Note_on_c, 8, 84, 0
10, 48690, Note_on_c, 8, 84, 43
10, 48720, Note_on_c, 8, 84, 0
10, 48720, Note_on_c, 8, 84, 50
10, 48750, Note_on_c, 8, 84, 0
10, 48750, Note_on_c, 8, 84, 44
10, 48780, Note_on_c, 8, 84, 0
10, 48780, Note_on_c, 8, 84, 46
10, 48810, Note_on_c, 8, 84, 0
10, 48810, Note_on_c, 8, 84, 44
10, 48840, Note_on_c, 8, 84, 0
10, 48840, Note_on_c, 8, 84, 52
10, 48870, Note_on_c, 8, 84, 0
10, 48870, Note_on_c, 8, 84, 58
10, 48900, Note_on_c, 8, 84, 0
10, 48900, Note_on_c, 8, 84, 62
10, 48930, Note_on_c, 8, 84, 0
10, 48930, Note_on_c, 8, 84, 54
10, 48960, Note_on_c, 8, 84, 0
10, 48960, Note_on_c, 8, 84, 62
10, 48990, Note_on_c, 8, 84, 0
10, 48990, Note_on_c, 8, 84, 65
10, 49020, Note_on_c, 8, 84, 0
10, 49020, Note_on_c, 8, 84, 50
10, 49050, Note_on_c, 8, 84, 0
10, 49050, Note_on_c, 8, 84, 71
10, 49080, Note_on_c, 8, 84, 0
10, 49080, Note_on_c, 8, 84, 53
10, 49110, Note_on_c, 8, 84, 0
10, 49110, Note_on_c, 8, 84, 62
10, 49140, Note_on_c, 8, 84, 0
10, 49140, Note_on_c, 8, 84, 73
10, 49170, Note_on_c, 8, 84, 0
10, 49170, Note_on_c, 8, 84, 68
10, 49200, Note_on_c, 8, 84, 0
10, 49200, Note_on_c, 8, 83, 84
10, 49230, Note_on_c, 8, 83, 0
10, 49230, Note_on_c, 8, 83, 90
10, 49260, Note_on_c, 8, 83, 0
10, 49260, Note_on_c, 8, 83, 89
10, 49290, Note_on_c, 8, 83, 0
10, 49290, Note_on_c, 8, 83, 93
10, 49320, Note_on_c, 8, 83, 0
10, 49320, Note_on_c, 8, 83, 94
10, 49350, Note_on_c, 8, 83, 0
10, 49350, Note_on_c, 8, 83, 94
10, 49380, Note_on_c, 8, 83, 0
10, 49380, Note_on_c, 8, 83, 86
10, 49410, Note_on_c, 8, 83, 0
10, 49410, Note_on_c, 8, 83, 94
10, 49440, Note_on_c, 8, 83, 0
10, 49440, Note_on_c, 8, 84, 95
10, 49560, Note_on_c, 8, 84, 0
10, 49920, Note_on_c, 8, 60, 98
10, 50160, Note_on_c, 8, 60, 0
10, 50160, Note_on_c, 8, 63, 94
10, 50400, Note_on_c, 8, 63, 0
10, 50400, Note_on_c, 8, 67, 80
10, 50580, Note_on_c, 8, 67, 0
10, 50580, Note_on_c, 8, 65, 82
10, 50610, Note_on_c, 8, 65, 0
10, 50640, Note_on_c, 8, 63, 84
10, 50700, Note_on_c, 8, 63, 0
10, 50760, Note_on_c, 8, 62, 90
10, 50820, Note_on_c, 8, 62, 0
10, 50880, Note_on_c, 8, 60, 89
10, 51000, Note_on_c, 8, 60, 0
10, 51060, Note_on_c, 8, 55, 89
10, 51090, Note_on_c, 8, 55, 0
10, 51120, Note_on_c, 8, 60, 89
10, 51180, Note_on_c, 8, 60, 0
10, 51300, Note_on_c, 8, 55, 82
10, 51330, Note_on_c, 8, 55, 0
10, 51360, Note_on_c, 8, 60, 93
10, 51420, Note_on_c, 8, 60, 0
10, 51780, Note_on_c, 8, 83, 76
10, 51780, Note_on_c, 8, 74, 94
10, 51810, Note_on_c, 8, 74, 0
10, 51810, Note_on_c, 8, 83, 0
10, 51840, Note_on_c, 8, 84, 76
10, 51840, Note_on_c, 8, 75, 89
10, 51900, Note_on_c, 8, 75, 0
10, 51900, Note_on_c, 8, 84, 0
10, 52320, Note_on_c, 8, 60, 99
10, 52380, Note_on_c, 8, 60, 0
10, 52560, Note_on_c, 8, 60, 98
10, 52620, Note_on_c, 8, 60, 0
10, 52800, Note_on_c, 8, 60, 104
10, 53040, Note_on_c, 8, 60, 0
10, 58080, Note_on_c, 8, 63, 43
10, 58680, Note_on_c, 8, 63, 0
10, 58680, Note_on_c, 8, 63, 52
10, 58770, Note_on_c, 8, 63, 0
10, 58800, Note_on_c, 8, 63, 54
10, 58890, Note_on_c, 8, 63, 0
10, 58920, Note_on_c, 8, 63, 43
10, 59010, Note_on_c, 8, 63, 0
10, 59040, Note_on_c, 8, 68, 52
10, 59640, Note_on_c, 8, 68, 0
10, 59640, Note_on_c, 8, 68, 52
10, 59730, Note_on_c, 8, 68, 0
10, 59760, Note_on_c, 8, 68, 70
10, 59850, Note_on_c, 8, 68, 0
10, 59880, Note_on_c, 8, 68, 59
10, 59970, Note_on_c, 8, 68, 0
10, 60000, Note_on_c, 8, 68, 59
10, 60600, Note_on_c, 8, 68, 0
10, 60600, Note_on_c, 8, 68, 46
10, 60720, Note_on_c, 8, 68, 0
10, 60720, Note_on_c, 8, 67, 57
10, 60840, Note_on_c, 8, 67, 0
10, 60840, Note_on_c, 8, 71, 60
10, 60960, Note_on_c, 8, 71, 0
10, 60960, Note_on_c, 8, 72, 43
10, 61080, Note_on_c, 8, 72, 0
10, 61080, Note_on_c, 8, 72, 66
10, 61200, Note_on_c, 8, 72, 0
10, 61320, Note_on_c, 8, 68, 43
10, 61440, Note_on_c, 8, 68, 0
10, 61560, Note_on_c, 8, 67, 58
10, 61680, Note_on_c, 8, 67, 0
10, 61800, Note_on_c, 8, 67, 46
10, 61920, Note_on_c, 8, 67, 0
10, 61920, Note_on_c, 8, 67, 60
10, 62040, Note_on_c, 8, 67, 0
10, 62400, Note_on_c, 8, 71, 70
10, 62760, Note_on_c, 8, 71, 0
10, 62760, Note_on_c, 8, 74, 62
10, 62850, Note_on_c, 8, 74, 0
10, 62850, Note_on_c, 8, 72, 65
10, 62880, Note_on_c, 8, 72, 0
10, 62880, Note_on_c, 8, 72, 58
10, 63000, Note_on_c, 8, 72, 0
10, 64320, Note_on_c, 8, 74, 57
10, 64680, Note_on_c, 8, 74, 0
10, 64680, Note_on_c, 8, 77, 62
10, 64770, Note_on_c, 8, 77, 0
10, 64770, Note_on_c, 8, 75, 49
10, 64800, Note_on_c, 8, 75, 0
10, 64800, Note_on_c, 8, 75, 57
10, 64920, Note_on_c, 8, 75, 0
10, 65760, Note_on_c, 8, 75, 99
10, 65760, Note_on_c, 8, 63, 78
10, 65760, Note_on_c, 8, 55, 94
10, 65880, Note_on_c, 8, 55, 0
10, 65880, Note_on_c, 8, 63, 0
10, 65940, Note_on_c, 8, 75, 0
10, 66000, Note_on_c, 8, 79, 99
10, 66180, Note_on_c, 8, 79, 0
10, 66240, Note_on_c, 8, 82, 94
10, 66420, Note_on_c, 8, 82, 0
10, 66420, Note_on_c, 8, 80, 99
10, 66450, Note_on_c, 8, 80, 0
10, 66480, Note_on_c, 8, 79, 94
10, 66540, Note_on_c, 8, 79, 0
10, 66600, Note_on_c, 8, 77, 94
10, 66660, Note_on_c, 8, 77, 0
10, 66720, Note_on_c, 8, 75, 99
10, 66840, Note_on_c, 8, 75, 0
10, 67680, Note_on_c, 8, 80, 94
10, 67860, Note_on_c, 8, 80, 0
10, 67920, Note_on_c, 8, 84, 86
10, 68100, Note_on_c, 8, 84, 0
10, 68160, Note_on_c, 8, 87, 104
10, 68340, Note_on_c, 8, 87, 0
10, 68340, Note_on_c, 8, 85, 80
10, 68370, Note_on_c, 8, 85, 0
10, 68400, Note_on_c, 8, 84, 81
10, 68460, Note_on_c, 8, 84, 0
10, 68520, Note_on_c, 8, 82, 86
10, 68580, Note_on_c, 8, 82, 0
10, 68640, Note_on_c, 8, 81, 90
10, 68760, Note_on_c, 8, 81, 0
10, 69720, Note_on_c, 8, 70, 64
10, 69840, Note_on_c, 8, 70, 0
10, 69960, Note_on_c, 8, 70, 56
10, 70080, Note_on_c, 8, 70, 0
10, 70200, Note_on_c, 8, 70, 64
10, 70320, Note_on_c, 8, 70, 0
10, 70440, Note_on_c, 8, 70, 56
10, 70560, Note_on_c, 8, 70, 0
10, 70680, Note_on_c, 8, 70, 64
10, 70800, Note_on_c, 8, 70, 0
10, 70920, Note_on_c, 8, 70, 56
10, 71040, Note_on_c, 8, 70, 0
10, 71160, Note_on_c, 8, 70, 64
10, 71280, Note_on_c, 8, 70, 0
10, 71400, Note_on_c, 8, 70, 56
10, 71520, Note_on_c, 8, 70, 0
10, 71640, Note_on_c, 8, 70, 64
10, 71760, Note_on_c, 8, 70, 0
10, 71880, Note_on_c, 8, 70, 56
10, 72000, Note_on_c, 8, 70, 0
10, 72120, Note_on_c, 8, 70, 64
10, 72240, Note_on_c, 8, 70, 0
10, 72360, Note_on_c, 8, 70, 56
10, 72480, Note_on_c, 8, 70, 0
10, 72600, Note_on_c, 8, 70, 64
10, 72720, Note_on_c, 8, 70, 0
10, 72840, Note_on_c, 8, 70, 56
10, 72960, Note_on_c, 8, 70, 0
10, 73080, Note_on_c, 8, 70, 64
10, 73200, Note_on_c, 8, 70, 0
10, 73320, Note_on_c, 8, 70, 56
10, 73440, Note_on_c, 8, 70, 0
10, 73440, Note_on_c, 8, 70, 71
10, 73560, Note_on_c, 8, 70, 0
10, 73800, Note_on_c, 8, 69, 65
10, 73920, Note_on_c, 8, 69, 0
10, 73920, Note_on_c, 8, 70, 70
10, 73980, Note_on_c, 8, 70, 0
10, 74280, Note_on_c, 8, 69, 61
10, 74400, Note_on_c, 8, 69, 0
10, 74400, Note_on_c, 8, 70, 68
10, 74460, Note_on_c, 8, 70, 0
10, 74520, Note_on_c, 8, 70, 62
10, 74580, Note_on_c, 8, 70, 0
10, 74760, Note_on_c, 8, 68, 68
10, 74820, Note_on_c, 8, 68, 0
10, 75000, Note_on_c, 8, 67, 71
10, 75060, Note_on_c, 8, 67, 0
10, 75240, Note_on_c, 8, 65, 66
10, 75300, Note_on_c, 8, 65, 0
10, 75360, Note_on_c, 8, 63, 59
10, 75420, Note_on_c, 8, 63, 0
10, 75480, Note_on_c, 8, 62, 58
10, 75540, Note_on_c, 8, 62, 0
10, 78240, Note_on_c, 8, 67, 52
10, 78360, Note_on_c, 8, 67, 0
10, 78480, Note_on_c, 8, 65, 62
10, 78600, Note_on_c, 8, 65, 0
10, 78720, Note_on_c, 8, 63, 56
10, 78840, Note_on_c, 8, 63, 0
10, 80160, Note_on_c, 8, 68, 71
10, 80280, Note_on_c, 8, 68, 0
10, 80400, Note_on_c, 8, 67, 76
10, 80520, Note_on_c, 8, 67, 0
10, 80640, Note_on_c, 8, 72, 58
10, 80760, Note_on_c, 8, 72, 0
10, 80880, Note_on_c, 8, 70, 69
10, 81000, Note_on_c, 8, 70, 0
10, 81960, Note_on_c, 8, 58, 71
10, 82080, Note_on_c, 8, 58, 0
10, 82080, Note_on_c, 8, 67, 78
10, 82320, Note_on_c, 8, 67, 0
10, 82320, Note_on_c, 8, 65, 85
10, 82380, Note_on_c, 8, 65, 0
10, 82380, Note_on_c, 8, 67, 84
10, 82440, Note_on_c, 8, 67, 0
10, 82440, Note_on_c, 8, 68, 68
10, 82500, Note_on_c, 8, 68, 0
10, 82500, Note_on_c, 8, 65, 67
10, 82560, Note_on_c, 8, 65, 0
10, 82560, Note_on_c, 8, 63, 71
10, 82800, Note_on_c, 8, 63, 0
10, 82800, Note_on_c, 8, 58, 81
10, 82980, Note_on_c, 8, 58, 0
10, 82980, Note_on_c, 8, 63, 81
10, 83040, Note_on_c, 8, 63, 0
10, 83040, Note_on_c, 8, 65, 85
10, 83130, Note_on_c, 8, 65, 0
10, 83160, Note_on_c, 8, 65, 81
10, 83250, Note_on_c, 8, 65, 0
10, 83280, Note_on_c, 8, 65, 81
10, 83370, Note_on_c, 8, 65, 0
10, 83400, Note_on_c, 8, 66, 82
10, 83490, Note_on_c, 8, 66, 0
10, 83520, Note_on_c, 8, 66, 76
10, 83760, Note_on_c, 8, 66, 0
10, 83760, Note_on_c, 8, 67, 80
10, 83880, Note_on_c, 8, 67, 0
10, 83940, Note_on_c, 8, 63, 76
10, 84000, Note_on_c, 8, 63, 0
10, 84000, Note_on_c, 8, 68, 101
10, 84240, Note_on_c, 8, 68, 0
10, 84240, Note_on_c, 8, 67, 89
10, 84360, Note_on_c, 8, 67, 0
10, 84420, Note_on_c, 8, 63, 86
10, 84480, Note_on_c, 8, 63, 0
10, 84480, Note_on_c, 8, 72, 99
10, 84720, Note_on_c, 8, 72, 0
10, 84720, Note_on_c, 8, 70, 80
10, 84840, Note_on_c, 8, 70, 0
10, 84900, Note_on_c, 8, 68, 89
10, 84960, Note_on_c, 8, 68, 0
10, 84960, Note_on_c, 8, 67, 86
10, 85020, Note_on_c, 8, 67, 0
10, 85080, Note_on_c, 8, 67, 94
10, 85140, Note_on_c, 8, 67, 0
10, 85200, Note_on_c, 8, 67, 84
10, 85260, Note_on_c, 8, 67, 0
10, 85260, Note_on_c, 8, 65, 89
10, 85320, Note_on_c, 8, 65, 0
10, 85320, Note_on_c, 8, 63, 89
10, 85380, Note_on_c, 8, 63, 0
10, 85380, Note_on_c, 8, 65, 93
10, 85440, Note_on_c, 8, 65, 0
10, 85440, Note_on_c, 8, 65, 94
10, 85620, Note_on_c, 8, 65, 0
10, 85620, Note_on_c, 8, 66, 93
10, 85680, Note_on_c, 8, 66, 0
10, 85680, Note_on_c, 8, 67, 94
10, 85800, Note_on_c, 8, 67, 0
10, 86880, Note_on_c, 8, 69, 43
10, 87360, Note_on_c, 8, 69, 0
10, 87360, Note_on_c, 8, 68, 55
10, 87840, Note_on_c, 8, 68, 0
10, 87840, Note_on_c, 8, 67, 61
10, 88080, Note_on_c, 8, 67, 0
10, 88080, Note_on_c, 8, 65, 45
10, 88320, Note_on_c, 8, 65, 0
10, 88320, Note_on_c, 8, 63, 64
10, 88560, Note_on_c, 8, 63, 0
10, 88560, Note_on_c, 8, 62, 59
10, 88800, Note_on_c, 8, 62, 0
10, 88800, Note_on_c, 8, 63, 50
10, 88920, Note_on_c, 8, 63, 0
10, 90120, Note_on_c, 8, 65, 62
10, 90240, Note_on_c, 8, 65, 0
10, 90360, Note_on_c, 8, 63, 65
10, 90480, Note_on_c, 8, 63, 0
10, 90600, Note_on_c, 8, 62, 70
10, 90720, Note_on_c, 8, 62, 0
10, 90720, Note_on_c, 8, 63, 73
10, 90840, Note_on_c, 8, 63, 0
10, 92640, Note_on_c, 8, 65, 61
10, 92880, Note_on_c, 8, 65, 0
10, 92880, Note_on_c, 8, 66, 71
10, 93060, Note_on_c, 8, 66, 0
10, 93060, Note_on_c, 8, 68, 73
10, 93120, Note_on_c, 8, 68, 0
10, 93120, Note_on_c, 8, 70, 72
10, 93240, Note_on_c, 8, 70, 0
10, 93240, Note_on_c, 8, 70, 71
10, 93360, Note_on_c, 8, 70, 0
10, 93480, Note_on_c, 8, 68, 68
10, 93600, Note_on_c, 8, 68, 0
10, 93720, Note_on_c, 8, 66, 65
10, 93840, Note_on_c, 8, 66, 0
10, 93960, Note_on_c, 8, 65, 67
10, 94080, Note_on_c, 8, 65, 0
10, 94200, Note_on_c, 8, 66, 66
10, 94320, Note_on_c, 8, 66, 0
10, 94440, Note_on_c, 8, 65, 62
10, 94560, Note_on_c, 8, 65, 0
10, 94680, Note_on_c, 8, 63, 65
10, 94800, Note_on_c, 8, 63, 0
10, 94920, Note_on_c, 8, 62, 65
10, 95040, Note_on_c, 8, 62, 0
10, 95040, Note_on_c, 8, 63, 65
10, 95160, Note_on_c, 8, 63, 0
10, 95220, Note_on_c, 8, 58, 69
10, 95250, Note_on_c, 8, 58, 0
10, 95280, Note_on_c, 8, 63, 47
10, 95340, Note_on_c, 8, 63, 0
10, 95700, Note_on_c, 8, 58, 53
10, 95730, Note_on_c, 8, 58, 0
10, 95760, Note_on_c, 8, 63, 53
10, 95820, Note_on_c, 8, 63, 0
10, 98100, Note_on_c, 8, 70, 84
10, 98130, Note_on_c, 8, 70, 0
10, 98160, Note_on_c, 8, 75, 80
10, 98220, Note_on_c, 8, 75, 0
10, 98580, Note_on_c, 8, 70, 74
10, 98610, Note_on_c, 8, 70, 0
10, 98640, Note_on_c, 8, 75, 77
10, 98700, Note_on_c, 8, 75, 0
10, 100320, Note_on_c, 8, 65, 57
10, 100800, Note_on_c, 8, 65, 0
10, 100800, Note_on_c, 8, 67, 76
10, 100920, Note_on_c, 8, 67, 0
10, 100980, Note_on_c, 8, 82, 53
10, 101010, Note_on_c, 8, 82, 0
10, 101040, Note_on_c, 8, 87, 64
10, 101100, Note_on_c, 8, 87, 0
10, 101940, Note_on_c, 8, 84, 61
10, 101970, Note_on_c, 8, 84, 0
10, 102000, Note_on_c, 8, 87, 61
10, 102060, Note_on_c, 8, 87, 0
10, 102900, Note_on_c, 8, 84, 73
10, 102930, Note_on_c, 8, 84, 0
10, 102960, Note_on_c, 8, 87, 71
10, 103020, Note_on_c, 8, 87, 0
10, 103800, Note_on_c, 8, 67, 61
10, 103920, Note_on_c, 8, 67, 0
10, 104040, Note_on_c, 8, 68, 71
10, 104160, Note_on_c, 8, 68, 0
10, 104280, Note_on_c, 8, 67, 61
10, 104400, Note_on_c, 8, 67, 0
10, 104520, Note_on_c, 8, 66, 62
10, 104640, Note_on_c, 8, 66, 0
10, 104640, Note_on_c, 8, 67, 52
10, 104760, Note_on_c, 8, 67, 0
10, 106560, Note_on_c, 8, 80, 69
10, 106680, Note_on_c, 8, 80, 0
10, 107520, Note_on_c, 8, 62, 72
10, 107640, Note_on_c, 8, 62, 0
10, 108480, Note_on_c, 8, 75, 95
10, 108480, Note_on_c, 8, 63, 72
10, 108480, Note_on_c, 8, 55, 90
10, 108600, Note_on_c, 8, 55, 0
10, 108600, Note_on_c, 8, 63, 0
10, 108600, Note_on_c, 8, 75, 0
10, 108840, Note_on_c, 8, 84, 82
10, 109080, Note_on_c, 8, 84, 0
10, 109140, Note_on_c, 8, 82, 89
10, 109170, Note_on_c, 8, 82, 0
10, 109200, Note_on_c, 8, 80, 94
10, 109230, Note_on_c, 8, 80, 0
10, 109260, Note_on_c, 8, 79, 94
10, 109290, Note_on_c, 8, 79, 0
10, 109320, Note_on_c, 8, 77, 94
10, 109350, Note_on_c, 8, 77, 0
10, 109380, Note_on_c, 8, 82, 90
10, 109410, Note_on_c, 8, 82, 0
10, 109440, Note_on_c, 8, 79, 93
10, 109560, Note_on_c, 8, 79, 0
10, 109620, Note_on_c, 8, 79, 81
10, 109680, Note_on_c, 8, 79, 0
10, 109680, Note_on_c, 8, 75, 84
10, 109800, Note_on_c, 8, 75, 0
10, 109860, Note_on_c, 8, 75, 94
10, 109920, Note_on_c, 8, 75, 0
10, 109920, Note_on_c, 8, 77, 84
10, 110040, Note_on_c, 8, 77, 0
10, 110100, Note_on_c, 8, 77, 89
10, 110160, Note_on_c, 8, 77, 0
10, 110160, Note_on_c, 8, 70, 89
10, 110280, Note_on_c, 8, 70, 0
10, 110340, Note_on_c, 8, 70, 85
10, 110400, Note_on_c, 8, 70, 0
10, 110400, Note_on_c, 8, 79, 86
10, 110520, Note_on_c, 8, 79, 0
10, 110580, Note_on_c, 8, 87, 93
10, 110640, Note_on_c, 8, 87, 0
10, 110640, Note_on_c, 8, 87, 85
10, 110760, Note_on_c, 8, 87, 0
10, 110820, Note_on_c, 8, 87, 90
10, 110880, Note_on_c, 8, 87, 0
10, 110880, Note_on_c, 8, 87, 95
10, 111000, Note_on_c, 8, 87, 0
10, 111060, Note_on_c, 8, 87, 94
10, 111120, Note_on_c, 8, 87, 0
10, 111120, Note_on_c, 8, 86, 104
10, 111240, Note_on_c, 8, 86, 0
10, 111300, Note_on_c, 8, 86, 95
10, 111360, Note_on_c, 8, 86, 0
10, 111360, Note_on_c, 8, 86, 99
10, 111480, Note_on_c, 8, 86, 0
10, 111540, Note_on_c, 8, 86, 101
10, 111600, Note_on_c, 8, 86, 0
10, 111600, Note_on_c, 8, 84, 86
10, 111720, Note_on_c, 8, 84, 0
10, 111780, Note_on_c, 8, 84, 85
10, 111840, Note_on_c, 8, 84, 0
10, 111840, Note_on_c, 8, 84, 90
10, 111960, Note_on_c, 8, 84, 0
10, 112020, Note_on_c, 8, 84, 89
10, 112080, Note_on_c, 8, 84, 0
10, 112080, Note_on_c, 8, 82, 90
10, 112200, Note_on_c, 8, 82, 0
10, 112260, Note_on_c, 8, 82, 81
10, 112320, Note_on_c, 8, 82, 0
10, 112320, Note_on_c, 8, 81, 94
10, 112440, Note_on_c, 8, 81, 0
10, 112500, Note_on_c, 8, 81, 94
10, 112560, Note_on_c, 8, 81, 0
10, 112560, Note_on_c, 8, 79, 94
10, 112680, Note_on_c, 8, 79, 0
10, 112740, Note_on_c, 8, 79, 93
10, 112800, Note_on_c, 8, 79, 0
10, 112800, Note_on_c, 8, 78, 85
10, 112920, Note_on_c, 8, 78, 0
10, 112980, Note_on_c, 8, 78, 82
10, 113040, Note_on_c, 8, 78, 0
10, 113040, Note_on_c, 8, 79, 89
10, 113160, Note_on_c, 8, 79, 0
10, 113220, Note_on_c, 8, 73, 84
10, 113280, Note_on_c, 8, 73, 0
10, 113280, Note_on_c, 8, 74, 95
10, 113340, Note_on_c, 8, 74, 0
10, 113400, Note_on_c, 8, 86, 101
10, 113640, Note_on_c, 8, 86, 0
10, 113640, Note_on_c, 8, 84, 84
10, 113760, Note_on_c, 8, 84, 0
10, 113760, Note_on_c, 8, 84, 89
10, 113820, Note_on_c, 8, 84, 0
10, 113880, Note_on_c, 8, 82, 89
10, 114120, Note_on_c, 8, 82, 0
10, 114120, Note_on_c, 8, 81, 93
10, 114180, Note_on_c, 8, 81, 0
10, 114180, Note_on_c, 8, 79, 81
10, 114240, Note_on_c, 8, 79, 0
10, 114240, Note_on_c, 8, 79, 77
10, 114300, Note_on_c, 8, 79, 0
10, 114360, Note_on_c, 8, 78, 93
10, 114600, Note_on_c, 8, 78, 0
10, 114600, Note_on_c, 8, 79, 89
10, 114660, Note_on_c, 8, 79, 0
10, 114660, Note_on_c, 8, 81, 90
10, 114720, Note_on_c, 8, 81, 0
10, 114720, Note_on_c, 8, 81, 89
10, 114780, Note_on_c, 8, 81, 0
10, 114840, Note_on_c, 8, 79, 99
10, 115080, Note_on_c, 8, 79, 0
10, 115080, Note_on_c, 8, 81, 94
10, 115140, Note_on_c, 8, 81, 0
10, 115140, Note_on_c, 8, 82, 84
10, 115200, Note_on_c, 8, 82, 0
10, 115200, Note_on_c, 8, 81, 89
10, 115260, Note_on_c, 8, 81, 0
10, 115260, Note_on_c, 8, 86, 95
10, 115320, Note_on_c, 8, 86, 0
10, 115320, Note_on_c, 8, 86, 99
10, 115350, Note_on_c, 8, 86, 0
10, 115380, Note_on_c, 8, 86, 99
10, 115410, Note_on_c, 8, 86, 0
10, 115440, Note_on_c, 8, 86, 89
10, 115470, Note_on_c, 8, 86, 0
10, 115500, Note_on_c, 8, 86, 95
10, 115530, Note_on_c, 8, 86, 0
10, 115560, Note_on_c, 8, 86, 94
10, 115590, Note_on_c, 8, 86, 0
10, 115620, Note_on_c, 8, 84, 77
10, 115650, Note_on_c, 8, 84, 0
10, 115680, Note_on_c, 8, 84, 73
10, 115740, Note_on_c, 8, 84, 0
10, 115740, Note_on_c, 8, 82, 86
10, 115800, Note_on_c, 8, 82, 0
10, 115800, Note_on_c, 8, 82, 99
10, 115830, Note_on_c, 8, 82, 0
10, 115860, Note_on_c, 8, 82, 94
10, 115890, Note_on_c, 8, 82, 0
10, 115920, Note_on_c, 8, 82, 86
10, 115950, Note_on_c, 8, 82, 0
10, 115980, Note_on_c, 8, 82, 89
10, 116010, Note_on_c, 8, 82, 0
10, 116040, Note_on_c, 8, 81, 95
10, 116070, Note_on_c, 8, 81, 0
10, 116100, Note_on_c, 8, 79, 86
10, 116130, Note_on_c, 8, 79, 0
10, 116160, Note_on_c, 8, 79, 90
10, 116220, Note_on_c, 8, 79, 0
10, 116220, Note_on_c, 8, 78, 89
10, 116280, Note_on_c, 8, 78, 0
10, 116280, Note_on_c, 8, 78, 93
10, 116310, Note_on_c, 8, 78, 0
10, 116340, Note_on_c, 8, 78, 89
10, 116370, Note_on_c, 8, 78, 0
10, 116400, Note_on_c, 8, 78, 81
10, 116430, Note_on_c, 8, 78, 0
10, 116460, Note_on_c, 8, 78, 81
10, 116490, Note_on_c, 8, 78, 0
10, 116520, Note_on_c, 8, 79, 89
10, 116550, Note_on_c, 8, 79, 0
10, 116580, Note_on_c, 8, 81, 86
10, 116610, Note_on_c, 8, 81, 0
10, 116640, Note_on_c, 8, 81, 94
10, 116700, Note_on_c, 8, 81, 0
10, 116700, Note_on_c, 8, 79, 86
10, 116760, Note_on_c, 8, 79, 0
10, 116760, Note_on_c, 8, 79, 101
10, 116790, Note_on_c, 8, 79, 0
10, 116820, Note_on_c, 8, 79, 84
10, 116850, Note_on_c, 8, 79, 0
10, 116880, Note_on_c, 8, 79, 89
10, 116910, Note_on_c, 8, 79, 0
10, 116940, Note_on_c, 8, 79, 84
10, 116970, Note_on_c, 8, 79, 0
10, 117000, Note_on_c, 8, 81, 84
10, 117030, Note_on_c, 8, 81, 0
10, 117060, Note_on_c, 8, 82, 86
10, 117090, Note_on_c, 8, 82, 0
10, 117120, Note_on_c, 8, 81, 89
10, 117150, Note_on_c, 8, 81, 0
10, 117150, Note_on_c, 8, 81, 89
10, 117180, Note_on_c, 8, 81, 0
10, 117180, Note_on_c, 8, 81, 89
10, 117210, Note_on_c, 8, 81, 0
10, 117210, Note_on_c, 8, 81, 84
10, 117240, Note_on_c, 8, 81, 0
10, 117240, Note_on_c, 8, 81, 89
10, 117270, Note_on_c, 8, 81, 0
10, 117270, Note_on_c, 8, 81, 89
10, 117300, Note_on_c, 8, 81, 0
10, 117300, Note_on_c, 8, 81, 89
10, 117330, Note_on_c, 8, 81, 0
10, 117330, Note_on_c, 8, 81, 95
10, 117360, Note_on_c, 8, 81, 0
10, 117360, Note_on_c, 8, 82, 119
10, 117390, Note_on_c, 8, 82, 0
10, 117390, Note_on_c, 8, 82, 81
10, 117420, Note_on_c, 8, 82, 0
10, 117420, Note_on_c, 8, 82, 74
10, 117450, Note_on_c, 8, 82, 0
10, 117450, Note_on_c, 8, 82, 78
10, 117480, Note_on_c, 8, 82, 0
10, 117480, Note_on_c, 8, 82, 71
10, 117510, Note_on_c, 8, 82, 0
10, 117510, Note_on_c, 8, 82, 68
10, 117540, Note_on_c, 8, 82, 0
10, 117540, Note_on_c, 8, 82, 72
10, 117570, Note_on_c, 8, 82, 0
10, 117570, Note_on_c, 8, 82, 77
10, 117600, Note_on_c, 8, 82, 0
10, 117600, Note_on_c, 8, 81, 89
10, 117630, Note_on_c, 8, 81, 0
10, 117630, Note_on_c, 8, 81, 84
10, 117660, Note_on_c, 8, 81, 0
10, 117660, Note_on_c, 8, 81, 80
10, 117690, Note_on_c, 8, 81, 0
10, 117690, Note_on_c, 8, 81, 78
10, 117720, Note_on_c, 8, 81, 0
10, 117720, Note_on_c, 8, 81, 74
10, 117750, Note_on_c, 8, 81, 0
10, 117750, Note_on_c, 8, 81, 84
10, 117780, Note_on_c, 8, 81, 0
10, 117780, Note_on_c, 8, 81, 84
10, 117810, Note_on_c, 8, 81, 0
10, 117810, Note_on_c, 8, 81, 89
10, 117840, Note_on_c, 8, 81, 0
10, 117840, Note_on_c, 8, 85, 81
10, 117870, Note_on_c, 8, 85, 0
10, 117870, Note_on_c, 8, 85, 81
10, 117900, Note_on_c, 8, 85, 0
10, 117900, Note_on_c, 8, 85, 80
10, 117930, Note_on_c, 8, 85, 0
10, 117930, Note_on_c, 8, 85, 80
10, 117960, Note_on_c, 8, 85, 0
10, 117960, Note_on_c, 8, 85, 78
10, 117990, Note_on_c, 8, 85, 0
10, 117990, Note_on_c, 8, 85, 78
10, 118020, Note_on_c, 8, 85, 0
10, 118020, Note_on_c, 8, 85, 78
10, 118050, Note_on_c, 8, 85, 0
10, 118050, Note_on_c, 8, 85, 74
10, 118080, Note_on_c, 8, 85, 0
10, 118080, Note_on_c, 8, 86, 94
10, 118110, Note_on_c, 8, 86, 0
10, 118110, Note_on_c, 8, 86, 94
10, 118140, Note_on_c, 8, 86, 0
10, 118140, Note_on_c, 8, 86, 95
10, 118170, Note_on_c, 8, 86, 0
10, 118170, Note_on_c, 8, 86, 101
10, 118200, Note_on_c, 8, 86, 0
10, 118200, Note_on_c, 8, 82, 101
10, 118230, Note_on_c, 8, 82, 0
10, 118230, Note_on_c, 8, 82, 84
10, 118260, Note_on_c, 8, 82, 0
10, 118260, Note_on_c, 8, 82, 72
10, 118290, Note_on_c, 8, 82, 0
10, 118290, Note_on_c, 8, 82, 80
10, 118320, Note_on_c, 8, 82, 0
10, 118320, Note_on_c, 8, 81, 84
10, 118350, Note_on_c, 8, 81, 0
10, 118350, Note_on_c, 8, 81, 85
10, 118380, Note_on_c, 8, 81, 0
10, 118380, Note_on_c, 8, 81, 84
10, 118410, Note_on_c, 8, 81, 0
10, 118410, Note_on_c, 8, 81, 86
10, 118440, Note_on_c, 8, 81, 0
10, 118440, Note_on_c, 8, 85, 81
10, 118470, Note_on_c, 8, 85, 0
10, 118470, Note_on_c, 8, 85, 80
10, 118500, Note_on_c, 8, 85, 0
10, 118500, Note_on_c, 8, 85, 81
10, 118530, Note_on_c, 8, 85, 0
10, 118530, Note_on_c, 8, 85, 80
10, 118560, Note_on_c, 8, 85, 0
10, 118560, Note_on_c, 8, 86, 95
10, 118590, Note_on_c, 8, 86, 0
10, 118590, Note_on_c, 8, 86, 93
10, 118620, Note_on_c, 8, 86, 0
10, 118620, Note_on_c, 8, 86, 94
10, 118650, Note_on_c, 8, 86, 0
10, 118650, Note_on_c, 8, 86, 94
10, 118680, Note_on_c, 8, 86, 0
10, 118680, Note_on_c, 8, 82, 95
10, 118710, Note_on_c, 8, 82, 0
10, 118710, Note_on_c, 8, 82, 84
10, 118740, Note_on_c, 8, 82, 0
10, 118740, Note_on_c, 8, 82, 69
10, 118770, Note_on_c, 8, 82, 0
10, 118770, Note_on_c, 8, 82, 80
10, 118800, Note_on_c, 8, 82, 0
10, 118800, Note_on_c, 8, 81, 80
10, 118830, Note_on_c, 8, 81, 0
10, 118830, Note_on_c, 8, 81, 76
10, 118860, Note_on_c, 8, 81, 0
10, 118860, Note_on_c, 8, 81, 81
10, 118890, Note_on_c, 8, 81, 0
10, 118890, Note_on_c, 8, 81, 80
10, 118920, Note_on_c, 8, 81, 0
10, 118920, Note_on_c, 8, 85, 80
10, 118950, Note_on_c, 8, 85, 0
10, 118950, Note_on_c, 8, 85, 80
10, 118980, Note_on_c, 8, 85, 0
10, 118980, Note_on_c, 8, 85, 81
10, 119010, Note_on_c, 8, 85, 0
10, 119010, Note_on_c, 8, 85, 69
10, 119040, Note_on_c, 8, 85, 0
10, 119040, Note_on_c, 8, 86, 94
10, 119160, Note_on_c, 8, 86, 0
10, 119520, Note_on_c, 8, 62, 99
10, 119640, Note_on_c, 8, 62, 0
10, 120000, Note_on_c, 8, 62, 99
10, 120120, Note_on_c, 8, 62, 0
10, 121920, Control_c, 8, 7, 99
10, 121920, Note_on_c, 8, 60, 59
10, 121940, Control_c, 8, 7, 100
10, 121960, Control_c, 8, 7, 101
10, 121980, Note_on_c, 8, 60, 0
10, 121980, Control_c, 8, 7, 102
10, 122000, Control_c, 8, 7, 103
10, 122020, Control_c, 8, 7, 104
10, 122040, Control_c, 8, 7, 105
10, 122055, Control_c, 8, 7, 106
10, 122075, Control_c, 8, 7, 107
10, 122095, Control_c, 8, 7, 108
10, 122100, Note_on_c, 8, 57, 64
10, 122115, Control_c, 8, 7, 109
10, 122130, Note_on_c, 8, 57, 0
10, 122135, Control_c, 8, 7, 110
10, 122155, Control_c, 8, 7, 111
10, 122160, Note_on_c, 8, 60, 46
10, 122170, Control_c, 8, 7, 112
10, 122190, Control_c, 8, 7, 113
10, 122210, Control_c, 8, 7, 114
10, 122220, Note_on_c, 8, 60, 0
10, 122230, Control_c, 8, 7, 115
10, 122250, Control_c, 8, 7, 116
10, 122270, Control_c, 8, 7, 117
10, 122285, Control_c, 8, 7, 118
10, 122305, Control_c, 8, 7, 119
10, 122325, Control_c, 8, 7, 120
10, 122340, Note_on_c, 8, 57, 72
10, 122345, Control_c, 8, 7, 121
10, 122365, Control_c, 8, 7, 122
10, 122370, Note_on_c, 8, 57, 0
10, 122385, Control_c, 8, 7, 123
10, 122400, Control_c, 8, 7, 124
10, 122400, Note_on_c, 8, 60, 65
10, 122405, Control_c, 8, 7, 124
10, 122425, Control_c, 8, 7, 123
10, 122430, Note_on_c, 8, 60, 0
10, 122445, Control_c, 8, 7, 122
10, 122460, Control_c, 8, 7, 121
10, 122460, Note_on_c, 8, 57, 80
10, 122480, Control_c, 8, 7, 120
10, 122490, Note_on_c, 8, 57, 0
10, 122500, Control_c, 8, 7, 119
10, 122515, Control_c, 8, 7, 118
10, 122520, Note_on_c, 8, 60, 62
10, 122535, Control_c, 8, 7, 117
10, 122550, Note_on_c, 8, 60, 0
10, 122550, Control_c, 8, 7, 116
10, 122570, Control_c, 8, 7, 115
10, 122580, Note_on_c, 8, 57, 76
10, 122590, Control_c, 8, 7, 114
10, 122605, Control_c, 8, 7, 113
10, 122610, Note_on_c, 8, 57, 0
10, 122625, Control_c, 8, 7, 112
10, 122640, Control_c, 8, 7, 111
10, 122640, Note_on_c, 8, 60, 58
10, 122660, Control_c, 8, 7, 110
10, 122670, Note_on_c, 8, 60, 0
10, 122680, Control_c, 8, 7, 109
10, 122695, Control_c, 8, 7, 108
10, 122700, Note_on_c, 8, 57, 68
10, 122715, Control_c, 8, 7, 107
10, 122730, Note_on_c, 8, 57, 0
10, 122735, Control_c, 8, 7, 106
10, 122750, Control_c, 8, 7, 105
10, 122760, Note_on_c, 8, 60, 64
10, 122770, Control_c, 8, 7, 104
10, 122785, Control_c, 8, 7, 103
10, 122790, Note_on_c, 8, 60, 0
10, 122805, Control_c, 8, 7, 102
10, 122820, Note_on_c, 8, 57, 52
10, 122825, Control_c, 8, 7, 101
10, 122840, Control_c, 8, 7, 100
10, 122850, Note_on_c, 8, 57, 0
10, 122860, Control_c, 8, 7, 99
10, 122875, Control_c, 8, 7, 98
10, 122880, Note_on_c, 8, 55, 40
10, 122940, Note_on_c, 8, 55, 0
10, 122940, Note_on_c, 8, 67, 69
10, 123000, Note_on_c, 8, 67, 0
10, 123000, Note_on_c, 8, 67, 66
10, 123060, Note_on_c, 8, 67, 0
10, 123060, Note_on_c, 8, 67, 57
10, 123120, Note_on_c, 8, 67, 0
10, 123120, Note_on_c, 8, 67, 57
10, 123180, Note_on_c, 8, 67, 0
10, 123180, Note_on_c, 8, 67, 61
10, 123240, Note_on_c, 8, 67, 0
10, 123240, Note_on_c, 8, 67, 43
10, 123300, Note_on_c, 8, 67, 0
10, 123300, Note_on_c, 8, 67, 54
10, 123360, Note_on_c, 8, 67, 0
10, 123360, Note_on_c, 8, 67, 58
10, 123420, Note_on_c, 8, 67, 0
10, 123420, Note_on_c, 8, 67, 45
10, 123480, Note_on_c, 8, 67, 0
10, 123480, Note_on_c, 8, 67, 43
10, 123540, Note_on_c, 8, 67, 0
10, 123540, Note_on_c, 8, 67, 44
10, 123600, Note_on_c, 8, 67, 0
10, 123600, Note_on_c, 8, 67, 44
10, 123660, Note_on_c, 8, 67, 0
10, 123660, Note_on_c, 8, 67, 53
10, 123720, Note_on_c, 8, 67, 0
10, 123720, Note_on_c, 8, 67, 45
10, 123780, Note_on_c, 8, 67, 0
10, 123780, Note_on_c, 8, 67, 50
10, 123840, Note_on_c, 8, 67, 0
10, 123840, Note_on_c, 8, 67, 45
10, 123900, Note_on_c, 8, 67, 0
10, 123900, Note_on_c, 8, 67, 53
10, 123960, Note_on_c, 8, 67, 0
10, 123960, Note_on_c, 8, 67, 52
10, 124020, Note_on_c, 8, 67, 0
10, 124020, Note_on_c, 8, 67, 52
10, 124080, Note_on_c, 8, 67, 0
10, 124080, Note_on_c, 8, 67, 47
10, 124140, Note_on_c, 8, 67, 0
10, 124140, Note_on_c, 8, 67, 52
10, 124200, Note_on_c, 8, 67, 0
10, 124200, Note_on_c, 8, 67, 60
10, 124260, Note_on_c, 8, 67, 0
10, 124260, Note_on_c, 8, 67, 64
10, 124320, Note_on_c, 8, 67, 0
10, 124320, Note_on_c, 8, 67, 50
10, 124380, Note_on_c, 8, 67, 0
10, 124380, Note_on_c, 8, 67, 43
10, 124440, Note_on_c, 8, 67, 0
10, 124440, Note_on_c, 8, 67, 43
10, 124500, Note_on_c, 8, 67, 0
10, 124500, Note_on_c, 8, 67, 42
10, 124560, Note_on_c, 8, 67, 0
10, 124560, Note_on_c, 8, 67, 45
10, 124620, Note_on_c, 8, 67, 0
10, 124620, Note_on_c, 8, 67, 42
10, 124680, Note_on_c, 8, 67, 0
10, 124680, Note_on_c, 8, 67, 44
10, 124740, Note_on_c, 8, 67, 0
10, 124740, Note_on_c, 8, 67, 57
10, 124800, Note_on_c, 8, 67, 0
10, 124800, Note_on_c, 8, 66, 56
10, 124860, Note_on_c, 8, 66, 0
10, 124860, Note_on_c, 8, 66, 29
10, 124920, Note_on_c, 8, 66, 0
10, 124920, Note_on_c, 8, 66, 43
10, 124980, Note_on_c, 8, 66, 0
10, 124980, Note_on_c, 8, 66, 35
10, 125040, Note_on_c, 8, 66, 0
10, 125040, Note_on_c, 8, 66, 43
10, 125100, Note_on_c, 8, 66, 0
10, 125100, Note_on_c, 8, 66, 37
10, 125160, Note_on_c, 8, 66, 0
10, 125160, Note_on_c, 8, 66, 43
10, 125220, Note_on_c, 8, 66, 0
10, 125220, Note_on_c, 8, 66, 40
10, 125280, Note_on_c, 8, 66, 0
10, 125280, Note_on_c, 8, 66, 41
10, 125340, Note_on_c, 8, 66, 0
10, 125340, Note_on_c, 8, 66, 35
10, 125400, Note_on_c, 8, 66, 0
10, 125400, Note_on_c, 8, 66, 29
10, 125460, Note_on_c, 8, 66, 0
10, 125460, Note_on_c, 8, 66, 34
10, 125520, Note_on_c, 8, 66, 0
10, 125520, Note_on_c, 8, 66, 32
10, 125580, Note_on_c, 8, 66, 0
10, 125580, Note_on_c, 8, 66, 45
10, 125640, Note_on_c, 8, 66, 0
10, 125640, Note_on_c, 8, 66, 33
10, 125700, Note_on_c, 8, 66, 0
10, 125700, Note_on_c, 8, 66, 43
10, 125760, Note_on_c, 8, 66, 0
10, 125760, Note_on_c, 8, 67, 43
10, 125820, Note_on_c, 8, 67, 0
10, 125820, Note_on_c, 8, 67, 52
10, 125880, Note_on_c, 8, 67, 0
10, 125880, Note_on_c, 8, 67, 43
10, 125940, Note_on_c, 8, 67, 0
10, 125940, Note_on_c, 8, 67, 43
10, 126000, Note_on_c, 8, 67, 0
10, 126000, Note_on_c, 8, 67, 43
10, 126060, Note_on_c, 8, 67, 0
10, 126060, Note_on_c, 8, 67, 46
10, 126120, Note_on_c, 8, 67, 0
10, 126120, Note_on_c, 8, 67, 45
10, 126180, Note_on_c, 8, 67, 0
10, 126180, Note_on_c, 8, 67, 44
10, 126240, Note_on_c, 8, 67, 0
10, 126240, Note_on_c, 8, 67, 50
10, 126300, Note_on_c, 8, 67, 0
10, 126300, Note_on_c, 8, 67, 52
10, 126360, Note_on_c, 8, 67, 0
10, 126360, Note_on_c, 8, 67, 44
10, 126420, Note_on_c, 8, 67, 0
10, 126420, Note_on_c, 8, 67, 56
10, 126480, Note_on_c, 8, 67, 0
10, 126480, Note_on_c, 8, 67, 58
10, 126540, Note_on_c, 8, 67, 0
10, 126540, Note_on_c, 8, 67, 43
10, 126600, Note_on_c, 8, 67, 0
10, 126600, Note_on_c, 8, 67, 46
10, 126660, Note_on_c, 8, 67, 0
10, 126660, Note_on_c, 8, 67, 53
10, 126720, Note_on_c, 8, 67, 0
10, 126780, Note_on_c, 8, 67, 50
10, 126840, Note_on_c, 8, 67, 0
10, 126840, Note_on_c, 8, 67, 52
10, 126900, Note_on_c, 8, 67, 0
10, 126900, Note_on_c, 8, 67, 46
10, 126960, Note_on_c, 8, 67, 0
10, 127020, Note_on_c, 8, 69, 57
10, 127080, Note_on_c, 8, 69, 0
10, 127080, Note_on_c, 8, 69, 57
10, 127140, Note_on_c, 8, 69, 0
10, 127140, Note_on_c, 8, 69, 63
10, 127200, Note_on_c, 8, 69, 0
10, 127260, Note_on_c, 8, 70, 53
10, 127320, Note_on_c, 8, 70, 0
10, 127320, Note_on_c, 8, 70, 44
10, 127380, Note_on_c, 8, 70, 0
10, 127380, Note_on_c, 8, 70, 69
10, 127440, Note_on_c, 8, 70, 0
10, 127500, Note_on_c, 8, 66, 67
10, 127560, Note_on_c, 8, 66, 0
10, 127560, Note_on_c, 8, 66, 57
10, 127620, Note_on_c, 8, 66, 0
10, 127620, Note_on_c, 8, 66, 68
10, 127680, Note_on_c, 8, 66, 0
10, 127680, Note_on_c, 8, 67, 45
10, 127800, Note_on_c, 8, 67, 0
10, 128880, Note_on_c, 8, 64, 53
10, 129600, Note_on_c, 8, 64, 0
10, 129600, Note_on_c, 8, 65, 59
10, 129660, Note_on_c, 8, 65, 0
10, 129660, Note_on_c, 8, 68, 51
10, 129720, Note_on_c, 8, 68, 0
10, 129720, Note_on_c, 8, 68, 45
10, 129780, Note_on_c, 8, 68, 0
10, 129780, Note_on_c, 8, 68, 44
10, 129840, Note_on_c, 8, 68, 0
10, 129840, Note_on_c, 8, 68, 49
10, 129900, Note_on_c, 8, 68, 0
10, 129900, Note_on_c, 8, 68, 47
10, 129960, Note_on_c, 8, 68, 0
10, 129960, Note_on_c, 8, 68, 42
10, 130020, Note_on_c, 8, 68, 0
10, 130020, Note_on_c, 8, 68, 44
10, 130080, Note_on_c, 8, 68, 0
10, 130080, Note_on_c, 8, 68, 50
10, 130140, Note_on_c, 8, 68, 0
10, 130140, Note_on_c, 8, 68, 53
10, 130200, Note_on_c, 8, 68, 0
10, 130200, Note_on_c, 8, 68, 45
10, 130260, Note_on_c, 8, 68, 0
10, 130260, Note_on_c, 8, 68, 44
10, 130320, Note_on_c, 8, 68, 0
10, 130320, Note_on_c, 8, 68, 43
10, 130380, Note_on_c, 8, 68, 0
10, 130380, Note_on_c, 8, 68, 43
10, 130440, Note_on_c, 8, 68, 0
10, 130440, Note_on_c, 8, 68, 40
10, 130500, Note_on_c, 8, 68, 0
10, 130500, Note_on_c, 8, 68, 43
10, 130560, Note_on_c, 8, 68, 0
10, 130560, Note_on_c, 8, 70, 61
10, 130620, Note_on_c, 8, 70, 0
10, 130620, Note_on_c, 8, 70, 43
10, 130680, Note_on_c, 8, 70, 0
10, 130680, Note_on_c, 8, 70, 52
10, 130740, Note_on_c, 8, 70, 0
10, 130740, Note_on_c, 8, 70, 46
10, 130800, Note_on_c, 8, 70, 0
10, 130800, Note_on_c, 8, 70, 58
10, 130860, Note_on_c, 8, 70, 0
10, 130860, Note_on_c, 8, 70, 55
10, 130920, Note_on_c, 8, 70, 0
10, 130920, Note_on_c, 8, 70, 50
10, 130980, Note_on_c, 8, 70, 0
10, 130980, Note_on_c, 8, 70, 52
10, 131040, Note_on_c, 8, 70, 0
10, 131040, Note_on_c, 8, 70, 44
10, 131100, Note_on_c, 8, 70, 0
10, 131100, Note_on_c, 8, 70, 54
10, 131160, Note_on_c, 8, 70, 0
10, 131160, Note_on_c, 8, 70, 43
10, 131220, Note_on_c, 8, 70, 0
10, 131220, Note_on_c, 8, 70, 40
10, 131280, Note_on_c, 8, 70, 0
10, 131280, Note_on_c, 8, 70, 46
10, 131340, Note_on_c, 8, 70, 0
10, 131340, Note_on_c, 8, 70, 45
10, 131400, Note_on_c, 8, 70, 0
10, 131400, Note_on_c, 8, 70, 59
10, 131460, Note_on_c, 8, 70, 0
10, 131460, Note_on_c, 8, 70, 62
10, 131520, Note_on_c, 8, 70, 0
10, 131520, Note_on_c, 8, 72, 59
10, 131580, Note_on_c, 8, 72, 0
10, 131580, Note_on_c, 8, 72, 54
10, 131640, Note_on_c, 8, 72, 0
10, 131640, Note_on_c, 8, 72, 80
10, 131700, Note_on_c, 8, 72, 0
10, 131700, Note_on_c, 8, 72, 62
10, 131760, Note_on_c, 8, 72, 0
10, 131760, Note_on_c, 8, 72, 65
10, 131820, Note_on_c, 8, 72, 0
10, 131820, Note_on_c, 8, 72, 64
10, 131880, Note_on_c, 8, 72, 0
10, 131880, Note_on_c, 8, 72, 65
10, 131940, Note_on_c, 8, 72, 0
10, 131940, Note_on_c, 8, 72, 64
10, 132000, Note_on_c, 8, 72, 0
10, 132000, Note_on_c, 8, 72, 70
10, 132060, Note_on_c, 8, 72, 0
10, 132060, Note_on_c, 8, 72, 71
10, 132120, Note_on_c, 8, 72, 0
10, 132120, Note_on_c, 8, 72, 71
10, 132180, Note_on_c, 8, 72, 0
10, 132180, Note_on_c, 8, 72, 72
10, 132240, Note_on_c, 8, 72, 0
10, 132240, Note_on_c, 8, 72, 64
10, 132300, Note_on_c, 8, 72, 0
10, 132300, Note_on_c, 8, 72, 68
10, 132360, Note_on_c, 8, 72, 0
10, 132360, Note_on_c, 8, 72, 68
10, 132420, Note_on_c, 8, 72, 0
10, 132420, Note_on_c, 8, 72, 71
10, 132480, Note_on_c, 8, 72, 0
10, 132540, Note_on_c, 8, 73, 45
10, 132600, Note_on_c, 8, 73, 0
10, 132600, Note_on_c, 8, 73, 57
10, 132660, Note_on_c, 8, 73, 0
10, 132660, Note_on_c, 8, 73, 53
10, 132720, Note_on_c, 8, 73, 0
10, 132780, Note_on_c, 8, 67, 65
10, 132840, Note_on_c, 8, 67, 0
10, 132840, Note_on_c, 8, 67, 65
10, 132900, Note_on_c, 8, 67, 0
10, 132900, Note_on_c, 8, 67, 53
10, 132960, Note_on_c, 8, 67, 0
10, 133020, Note_on_c, 8, 68, 68
10, 133080, Note_on_c, 8, 68, 0
10, 133080, Note_on_c, 8, 68, 69
10, 133140, Note_on_c, 8, 68, 0
10, 133140, Note_on_c, 8, 68, 59
10, 133200, Note_on_c, 8, 68, 0
10, 133260, Note_on_c, 8, 64, 64
10, 133320, Note_on_c, 8, 64, 0
10, 133320, Note_on_c, 8, 64, 60
10, 133380, Note_on_c, 8, 64, 0
10, 133380, Note_on_c, 8, 64, 69
10, 133440, Note_on_c, 8, 64, 0
10, 133440, Note_on_c, 8, 65, 72
10, 133500, Note_on_c, 8, 65, 0
10, 133500, Note_on_c, 8, 65, 64
10, 133560, Note_on_c, 8, 65, 0
10, 133560, Note_on_c, 8, 65, 60
10, 133620, Note_on_c, 8, 65, 0
10, 133620, Note_on_c, 8, 65, 58
10, 133680, Note_on_c, 8, 65, 0
10, 133680, Note_on_c, 8, 65, 53
10, 133740, Note_on_c, 8, 65, 0
10, 133740, Note_on_c, 8, 65, 66
10, 133800, Note_on_c, 8, 65, 0
10, 133800, Note_on_c, 8, 65, 55
10, 133860, Note_on_c, 8, 65, 0
10, 133860, Note_on_c, 8, 65, 45
10, 133920, Note_on_c, 8, 65, 0
10, 133920, Note_on_c, 8, 65, 61
10, 133980, Note_on_c, 8, 65, 0
10, 133980, Note_on_c, 8, 65, 65
10, 134040, Note_on_c, 8, 65, 0
10, 134040, Note_on_c, 8, 65, 52
10, 134100, Note_on_c, 8, 65, 0
10, 134100, Note_on_c, 8, 65, 46
10, 134160, Note_on_c, 8, 65, 0
10, 134160, Note_on_c, 8, 65, 60
10, 134220, Note_on_c, 8, 65, 0
10, 134220, Note_on_c, 8, 65, 58
10, 134280, Note_on_c, 8, 65, 0
10, 134280, Note_on_c, 8, 65, 64
10, 134340, Note_on_c, 8, 65, 0
10, 134340, Note_on_c, 8, 65, 47
10, 134400, Note_on_c, 8, 65, 0
10, 134400, Note_on_c, 8, 66, 61
10, 134460, Note_on_c, 8, 66, 0
10, 134460, Note_on_c, 8, 66, 59
10, 134520, Note_on_c, 8, 66, 0
10, 134520, Note_on_c, 8, 66, 48
10, 134580, Note_on_c, 8, 66, 0
10, 134580, Note_on_c, 8, 66, 46
10, 134640, Note_on_c, 8, 66, 0
10, 134640, Note_on_c, 8, 66, 48
10, 134700, Note_on_c, 8, 66, 0
10, 134700, Note_on_c, 8, 66, 47
10, 134760, Note_on_c, 8, 66, 0
10, 134760, Note_on_c, 8, 66, 53
10, 134820, Note_on_c, 8, 66, 0
10, 134820, Note_on_c, 8, 66, 48
10, 134880, Note_on_c, 8, 66, 0
10, 134880, Note_on_c, 8, 66, 54
10, 134940, Note_on_c, 8, 66, 0
10, 134940, Note_on_c, 8, 66, 46
10, 135000, Note_on_c, 8, 66, 0
10, 135000, Note_on_c, 8, 66, 61
10, 135060, Note_on_c, 8, 66, 0
10, 135060, Note_on_c, 8, 66, 46
10, 135120, Note_on_c, 8, 66, 0
10, 135120, Note_on_c, 8, 66, 58
10, 135180, Note_on_c, 8, 66, 0
10, 135180, Note_on_c, 8, 66, 46
10, 135240, Note_on_c, 8, 66, 0
10, 135240, Note_on_c, 8, 66, 45
10, 135300, Note_on_c, 8, 66, 0
10, 135300, Note_on_c, 8, 66, 53
10, 135360, Note_on_c, 8, 66, 0
10, 135360, Note_on_c, 8, 65, 69
10, 135420, Note_on_c, 8, 65, 0
10, 135420, Note_on_c, 8, 65, 60
10, 135480, Note_on_c, 8, 65, 0
10, 135480, Note_on_c, 8, 65, 57
10, 135540, Note_on_c, 8, 65, 0
10, 135540, Note_on_c, 8, 65, 43
10, 135600, Note_on_c, 8, 65, 0
10, 135600, Note_on_c, 8, 65, 45
10, 135660, Note_on_c, 8, 65, 0
10, 135660, Note_on_c, 8, 65, 40
10, 135720, Note_on_c, 8, 65, 0
10, 135720, Note_on_c, 8, 65, 43
10, 135780, Note_on_c, 8, 65, 0
10, 135780, Note_on_c, 8, 65, 42
10, 135840, Note_on_c, 8, 65, 0
10, 135840, Note_on_c, 8, 65, 61
10, 135900, Note_on_c, 8, 65, 0
10, 135900, Note_on_c, 8, 65, 58
10, 135960, Note_on_c, 8, 65, 0
10, 135960, Note_on_c, 8, 65, 62
10, 136020, Note_on_c, 8, 65, 0
10, 136020, Note_on_c, 8, 65, 48
10, 136080, Note_on_c, 8, 65, 0
10, 136080, Note_on_c, 8, 65, 57
10, 136140, Note_on_c, 8, 65, 0
10, 136140, Note_on_c, 8, 65, 72
10, 136200, Note_on_c, 8, 65, 0
10, 136200, Note_on_c, 8, 65, 67
10, 136260, Note_on_c, 8, 65, 0
10, 136260, Note_on_c, 8, 65, 72
10, 136320, Note_on_c, 8, 65, 0
10, 136320, Note_on_c, 8, 66, 61
10, 136380, Note_on_c, 8, 66, 0
10, 136380, Note_on_c, 8, 66, 59
10, 136440, Note_on_c, 8, 66, 0
10, 136440, Note_on_c, 8, 66, 48
10, 136500, Note_on_c, 8, 66, 0
10, 136500, Note_on_c, 8, 66, 46
10, 136560, Note_on_c, 8, 66, 0
10, 136560, Note_on_c, 8, 66, 48
10, 136620, Note_on_c, 8, 66, 0
10, 136620, Note_on_c, 8, 66, 47
10, 136680, Note_on_c, 8, 66, 0
10, 136680, Note_on_c, 8, 66, 53
10, 136740, Note_on_c, 8, 66, 0
10, 136740, Note_on_c, 8, 66, 48
10, 136800, Note_on_c, 8, 66, 0
10, 136800, Note_on_c, 8, 66, 54
10, 136860, Note_on_c, 8, 66, 0
10, 136860, Note_on_c, 8, 66, 46
10, 136920, Note_on_c, 8, 66, 0
10, 136920, Note_on_c, 8, 66, 61
10, 136980, Note_on_c, 8, 66, 0
10, 136980, Note_on_c, 8, 66, 46
10, 137040, Note_on_c, 8, 66, 0
10, 137040, Note_on_c, 8, 66, 58
10, 137100, Note_on_c, 8, 66, 0
10, 137100, Note_on_c, 8, 66, 46
10, 137160, Note_on_c, 8, 66, 0
10, 137160, Note_on_c, 8, 66, 45
10, 137220, Note_on_c, 8, 66, 0
10, 137220, Note_on_c, 8, 66, 53
10, 137280, Note_on_c, 8, 66, 0
10, 137280, Note_on_c, 8, 65, 69
10, 137340, Note_on_c, 8, 65, 0
10, 137340, Note_on_c, 8, 65, 60
10, 137400, Note_on_c, 8, 65, 0
10, 137400, Note_on_c, 8, 65, 57
10, 137460, Note_on_c, 8, 65, 0
10, 137460, Note_on_c, 8, 65, 43
10, 137520, Note_on_c, 8, 65, 0
10, 137520, Note_on_c, 8, 65, 45
10, 137580, Note_on_c, 8, 65, 0
10, 137580, Note_on_c, 8, 65, 40
10, 137640, Note_on_c, 8, 65, 0
10, 137640, Note_on_c, 8, 65, 43
10, 137700, Note_on_c, 8, 65, 0
10, 137700, Note_on_c, 8, 65, 42
10, 137760, Note_on_c, 8, 65, 0
10, 137760, Note_on_c, 8, 65, 61
10, 137820, Note_on_c, 8, 65, 0
10, 137820, Note_on_c, 8, 65, 58
10, 137880, Note_on_c, 8, 65, 0
10, 137880, Note_on_c, 8, 65, 62
10, 137940, Note_on_c, 8, 65, 0
10, 137940, Note_on_c, 8, 65, 48
10, 138000, Note_on_c, 8, 65, 0
10, 138000, Note_on_c, 8, 65, 57
10, 138060, Note_on_c, 8, 65, 0
10, 138060, Note_on_c, 8, 65, 72
10, 138120, Note_on_c, 8, 65, 0
10, 138120, Note_on_c, 8, 65, 67
10, 138180, Note_on_c, 8, 65, 0
10, 138180, Note_on_c, 8, 65, 72
10, 138240, Note_on_c, 8, 65, 0
10, 138240, Note_on_c, 8, 63, 69
10, 138300, Note_on_c, 8, 63, 0
10, 138300, Note_on_c, 8, 75, 64
10, 138360, Note_on_c, 8, 75, 0
10, 138360, Note_on_c, 8, 75, 69
10, 138420, Note_on_c, 8, 75, 0
10, 138420, Note_on_c, 8, 75, 71
10, 138480, Note_on_c, 8, 75, 0
10, 138480, Note_on_c, 8, 75, 65
10, 138540, Note_on_c, 8, 75, 0
10, 138540, Note_on_c, 8, 75, 72
10, 138600, Note_on_c, 8, 75, 0
10, 138600, Note_on_c, 8, 75, 67
10, 138660, Note_on_c, 8, 75, 0
10, 138660, Note_on_c, 8, 75, 76
10, 138720, Note_on_c, 8, 75, 0
10, 138780, Note_on_c, 8, 73, 58
10, 138840, Note_on_c, 8, 73, 0
10, 138840, Note_on_c, 8, 73, 61
10, 138900, Note_on_c, 8, 73, 0
10, 138900, Note_on_c, 8, 73, 67
10, 138960, Note_on_c, 8, 73, 0
10, 139020, Note_on_c, 8, 72, 64
10, 139080, Note_on_c, 8, 72, 0
10, 139080, Note_on_c, 8, 72, 65
10, 139140, Note_on_c, 8, 72, 0
10, 139140, Note_on_c, 8, 72, 68
10, 139200, Note_on_c, 8, 72, 0
10, 139200, Note_on_c, 8, 71, 52
10, 139320, Note_on_c, 8, 71, 0
10, 139920, Note_on_c, 8, 66, 53
10, 140040, Note_on_c, 8, 66, 0
10, 140100, Note_on_c, 8, 66, 46
10, 140160, Note_on_c, 8, 66, 0
10, 140160, Note_on_c, 8, 67, 66
10, 140280, Note_on_c, 8, 67, 0
10, 140880, Note_on_c, 8, 66, 58
10, 141000, Note_on_c, 8, 66, 0
10, 141060, Note_on_c, 8, 66, 53
10, 141120, Note_on_c, 8, 66, 0
10, 141120, Note_on_c, 8, 67, 69
10, 141240, Note_on_c, 8, 67, 0
10, 141360, Note_on_c, 8, 55, 50
10, 141480, Note_on_c, 8, 55, 0
10, 142020, Note_on_c, 8, 55, 72
10, 142050, Note_on_c, 8, 55, 0
10, 142080, Note_on_c, 8, 56, 66
10, 142140, Note_on_c, 8, 56, 0
10, 142320, Note_on_c, 8, 56, 65
10, 142380, Note_on_c, 8, 56, 0
10, 142980, Note_on_c, 8, 56, 53
10, 143010, Note_on_c, 8, 56, 0
10, 143040, Note_on_c, 8, 57, 69
10, 143100, Note_on_c, 8, 57, 0
10, 143280, Note_on_c, 8, 57, 80
10, 143340, Note_on_c, 8, 57, 0
10, 143940, Note_on_c, 8, 57, 77
10, 143970, Note_on_c, 8, 57, 0
10, 144000, Note_on_c, 8, 58, 62
10, 144060, Note_on_c, 8, 58, 0
10, 144240, Note_on_c, 8, 58, 66
10, 144300, Note_on_c, 8, 58, 0
10, 144900, Note_on_c, 8, 58, 73
10, 144930, Note_on_c, 8, 58, 0
10, 144960, Note_on_c, 8, 59, 72
10, 145020, Note_on_c, 8, 59, 0
10, 145200, Note_on_c, 8, 59, 74
10, 145260, Note_on_c, 8, 59, 0
10, 145860, Note_on_c, 8, 59, 73
10, 145890, Note_on_c, 8, 59, 0
10, 145920, Note_on_c, 8, 60, 78
10, 145980, Note_on_c, 8, 60, 0
10, 146340, Note_on_c, 8, 60, 73
10, 146400, Note_on_c, 8, 60, 0
10, 146400, Note_on_c, 8, 65, 57
10, 146520, Note_on_c, 8, 65, 0
10, 146820, Note_on_c, 8, 65, 57
10, 146880, Note_on_c, 8, 65, 0
10, 146880, Note_on_c, 8, 67, 61
10, 147000, Note_on_c, 8, 67, 0
10, 147300, Note_on_c, 8, 67, 64
10, 147360, Note_on_c, 8, 67, 0
10, 147360, Note_on_c, 8, 55, 81
10, 147480, Note_on_c, 8, 55, 0
10, 147780, Note_on_c, 8, 55, 65
10, 147840, Note_on_c, 8, 55, 0
10, 147840, Note_on_c, 8, 60, 101
10, 148080, Note_on_c, 8, 60, 0
10, 148080, Note_on_c, 8, 63, 99
10, 148320, Note_on_c, 8, 63, 0
10, 148320, Note_on_c, 8, 67, 115
10, 148500, Note_on_c, 8, 67, 0
10, 148500, Note_on_c, 8, 65, 90
10, 148530, Note_on_c, 8, 65, 0
10, 148560, Note_on_c, 8, 63, 95
10, 148620, Note_on_c, 8, 63, 0
10, 148680, Note_on_c, 8, 62, 99
10, 148740, Note_on_c, 8, 62, 0
10, 148800, Note_on_c, 8, 60, 95
10, 148860, Note_on_c, 8, 60, 0
10, 148980, Note_on_c, 8, 55, 90
10, 149010, Note_on_c, 8, 55, 0
10, 149040, Note_on_c, 8, 60, 99
10, 149100, Note_on_c, 8, 60, 0
10, 149220, Note_on_c, 8, 55, 99
10, 149250, Note_on_c, 8, 55, 0
10, 149280, Note_on_c, 8, 60, 104
10, 149340, Note_on_c, 8, 60, 0
10, 151680, Note_on_c, 8, 64, 35
10, 151740, Note_on_c, 8, 64, 0
10, 151860, Note_on_c, 8, 65, 44
10, 151890, Note_on_c, 8, 65, 0
10, 151920, Note_on_c, 8, 64, 44
10, 151980, Note_on_c, 8, 64, 0
10, 152100, Note_on_c, 8, 65, 50
10, 152130, Note_on_c, 8, 65, 0
10, 152160, Note_on_c, 8, 64, 43
10, 152220, Note_on_c, 8, 64, 0
10, 153600, Note_on_c, 8, 62, 43
10, 153660, Note_on_c, 8, 62, 0
10, 153780, Note_on_c, 8, 63, 43
10, 153810, Note_on_c, 8, 63, 0
10, 153840, Note_on_c, 8, 62, 44
10, 153900, Note_on_c, 8, 62, 0
10, 154020, Note_on_c, 8, 63, 43
10, 154050, Note_on_c, 8, 63, 0
10, 154080, Note_on_c, 8, 62, 43
10, 154140, Note_on_c, 8, 62, 0
10, 154560, Note_on_c, 8, 65, 44
10, 154680, Note_on_c, 8, 65, 0
10, 155040, Note_on_c, 8, 63, 43
10, 155160, Note_on_c, 8, 63, 0
10, 155640, Note_on_c, 8, 74, 41
10, 155760, Note_on_c, 8, 74, 0
10, 155880, Note_on_c, 8, 72, 36
10, 156000, Note_on_c, 8, 72, 0
10, 156000, Note_on_c, 8, 71, 54
10, 156120, Note_on_c, 8, 71, 0
10, 158040, Note_on_c, 8, 59, 62
10, 158160, Note_on_c, 8, 59, 0
10, 158160, Note_on_c, 8, 60, 70
10, 158280, Note_on_c, 8, 60, 0
10, 158280, Note_on_c, 8, 62, 56
10, 158400, Note_on_c, 8, 62, 0
10, 158400, Note_on_c, 8, 63, 67
10, 158460, Note_on_c, 8, 63, 0
10, 158520, Note_on_c, 8, 63, 72
10, 158640, Note_on_c, 8, 63, 0
10, 158640, Note_on_c, 8, 65, 73
10, 158760, Note_on_c, 8, 65, 0
10, 158760, Note_on_c, 8, 67, 64
10, 158880, Note_on_c, 8, 67, 0
10, 158880, Note_on_c, 8, 68, 55
10, 158940, Note_on_c, 8, 68, 0
10, 159000, Note_on_c, 8, 68, 67
10, 159120, Note_on_c, 8, 68, 0
10, 159120, Note_on_c, 8, 67, 65
10, 159240, Note_on_c, 8, 67, 0
10, 159240, Note_on_c, 8, 65, 68
10, 159360, Note_on_c, 8, 65, 0
10, 159360, Note_on_c, 8, 67, 57
10, 159420, Note_on_c, 8, 67, 0
10, 159480, Note_on_c, 8, 67, 60
10, 159600, Note_on_c, 8, 67, 0
10, 159600, Note_on_c, 8, 65, 68
10, 159720, Note_on_c, 8, 65, 0
10, 159720, Note_on_c, 8, 63, 57
10, 159840, Note_on_c, 8, 63, 0
10, 159840, Note_on_c, 8, 62, 62
10, 159960, Note_on_c, 8, 62, 0
10, 159960, Note_on_c, 8, 74, 41
10, 160080, Note_on_c, 8, 74, 0
10, 160200, Note_on_c, 8, 75, 57
10, 160320, Note_on_c, 8, 75, 0
10, 160440, Note_on_c, 8, 74, 37
10, 160560, Note_on_c, 8, 74, 0
10, 160680, Note_on_c, 8, 75, 53
10, 160800, Note_on_c, 8, 75, 0
10, 160800, Note_on_c, 8, 74, 47
10, 160920, Note_on_c, 8, 74, 0
10, 162720, Note_on_c, 8, 67, 67
10, 162840, Note_on_c, 8, 67, 0
10, 162960, Note_on_c, 8, 71, 67
10, 163080, Note_on_c, 8, 71, 0
10, 163200, Note_on_c, 8, 72, 67
10, 163320, Note_on_c, 8, 72, 0
10, 164640, Note_on_c, 8, 72, 66
10, 164760, Note_on_c, 8, 72, 0
10, 164880, Note_on_c, 8, 72, 64
10, 165000, Note_on_c, 8, 72, 0
10, 165120, Note_on_c, 8, 72, 68
10, 165240, Note_on_c, 8, 72, 0
10, 165360, Note_on_c, 8, 72, 71
10, 165480, Note_on_c, 8, 72, 0
10, 166440, Note_on_c, 8, 67, 64
10, 166560, Note_on_c, 8, 67, 0
10, 166560, Note_on_c, 8, 76, 73
10, 166800, Note_on_c, 8, 76, 0
10, 166800, Note_on_c, 8, 74, 86
10, 166860, Note_on_c, 8, 74, 0
10, 166860, Note_on_c, 8, 76, 81
10, 166920, Note_on_c, 8, 76, 0
10, 166920, Note_on_c, 8, 77, 71
10, 166980, Note_on_c, 8, 77, 0
10, 166980, Note_on_c, 8, 74, 78
10, 167040, Note_on_c, 8, 74, 0
10, 167040, Note_on_c, 8, 72, 94
10, 167100, Note_on_c, 8, 72, 0
10, 167100, Note_on_c, 8, 67, 73
10, 167160, Note_on_c, 8, 67, 0
10, 167160, Note_on_c, 8, 64, 73
10, 167220, Note_on_c, 8, 64, 0
10, 167220, Note_on_c, 8, 67, 53
10, 167280, Note_on_c, 8, 67, 0
10, 167280, Note_on_c, 8, 60, 57
10, 167340, Note_on_c, 8, 60, 0
10, 167340, Note_on_c, 8, 64, 84
10, 167400, Note_on_c, 8, 64, 0
10, 167400, Note_on_c, 8, 67, 84
10, 167460, Note_on_c, 8, 67, 0
10, 167460, Note_on_c, 8, 72, 84
10, 167520, Note_on_c, 8, 72, 0
10, 167520, Note_on_c, 8, 74, 74
10, 167580, Note_on_c, 8, 74, 0
10, 167580, Note_on_c, 8, 73, 73
10, 167640, Note_on_c, 8, 73, 0
10, 167640, Note_on_c, 8, 74, 76
10, 167700, Note_on_c, 8, 74, 0
10, 167700, Note_on_c, 8, 73, 69
10, 167760, Note_on_c, 8, 73, 0
10, 167760, Note_on_c, 8, 74, 73
10, 167820, Note_on_c, 8, 74, 0
10, 167880, Note_on_c, 8, 75, 78
10, 167940, Note_on_c, 8, 75, 0
10, 168000, Note_on_c, 8, 75, 76
10, 168240, Note_on_c, 8, 75, 0
10, 168240, Note_on_c, 8, 76, 81
10, 168360, Note_on_c, 8, 76, 0
10, 168420, Note_on_c, 8, 72, 76
10, 168480, Note_on_c, 8, 72, 0
10, 168480, Note_on_c, 8, 77, 104
10, 168720, Note_on_c, 8, 77, 0
10, 168720, Note_on_c, 8, 76, 81
10, 168840, Note_on_c, 8, 76, 0
10, 168900, Note_on_c, 8, 72, 80
10, 168960, Note_on_c, 8, 72, 0
10, 168960, Note_on_c, 8, 81, 105
10, 169200, Note_on_c, 8, 81, 0
10, 169200, Note_on_c, 8, 79, 63
10, 169320, Note_on_c, 8, 79, 0
10, 169380, Note_on_c, 8, 77, 62
10, 169440, Note_on_c, 8, 77, 0
10, 169440, Note_on_c, 8, 76, 99
10, 169500, Note_on_c, 8, 76, 0
10, 169560, Note_on_c, 8, 76, 94
10, 169620, Note_on_c, 8, 76, 0
10, 169680, Note_on_c, 8, 76, 89
10, 169740, Note_on_c, 8, 76, 0
10, 169740, Note_on_c, 8, 74, 99
10, 169800, Note_on_c, 8, 74, 0
10, 169800, Note_on_c, 8, 72, 99
10, 169860, Note_on_c, 8, 72, 0
10, 169860, Note_on_c, 8, 74, 94
10, 169920, Note_on_c, 8, 74, 0
10, 169920, Note_on_c, 8, 74, 99
10, 170100, Note_on_c, 8, 74, 0
10, 170100, Note_on_c, 8, 75, 93
10, 170160, Note_on_c, 8, 75, 0
10, 170160, Note_on_c, 8, 76, 84
10, 170280, Note_on_c, 8, 76, 0
10, 171360, Note_on_c, 8, 78, 43
10, 171840, Note_on_c, 8, 78, 0
10, 171840, Note_on_c, 8, 77, 46
10, 172320, Note_on_c, 8, 77, 0
10, 172320, Note_on_c, 8, 76, 58
10, 172560, Note_on_c, 8, 76, 0
10, 172560, Note_on_c, 8, 74, 53
10, 172800, Note_on_c, 8, 74, 0
10, 172800, Note_on_c, 8, 72, 67
10, 173040, Note_on_c, 8, 72, 0
10, 173040, Note_on_c, 8, 71, 55
10, 173280, Note_on_c, 8, 71, 0
10, 173280, Note_on_c, 8, 72, 65
10, 173400, Note_on_c, 8, 72, 0
10, 174600, Note_on_c, 8, 74, 44
10, 174720, Note_on_c, 8, 74, 0
10, 174840, Note_on_c, 8, 72, 56
10, 174960, Note_on_c, 8, 72, 0
10, 175080, Note_on_c, 8, 71, 56
10, 175200, Note_on_c, 8, 71, 0
10, 175200, Note_on_c, 8, 72, 46
10, 175320, Note_on_c, 8, 72, 0
10, 177120, Note_on_c, 8, 62, 65
10, 177360, Note_on_c, 8, 62, 0
10, 177360, Note_on_c, 8, 63, 68
10, 177540, Note_on_c, 8, 63, 0
10, 177540, Note_on_c, 8, 65, 73
10, 177600, Note_on_c, 8, 65, 0
10, 177600, Note_on_c, 8, 67, 68
10, 177720, Note_on_c, 8, 67, 0
10, 177720, Note_on_c, 8, 67, 64
10, 177840, Note_on_c, 8, 67, 0
10, 177960, Note_on_c, 8, 65, 68
10, 178080, Note_on_c, 8, 65, 0
10, 178200, Note_on_c, 8, 63, 72
10, 178320, Note_on_c, 8, 63, 0
10, 178440, Note_on_c, 8, 67, 65
10, 178560, Note_on_c, 8, 67, 0
10, 178560, Note_on_c, 8, 67, 81
10, 178680, Note_on_c, 8, 67, 0
10, 178680, Note_on_c, 8, 75, 73
10, 178800, Note_on_c, 8, 75, 0
10, 178920, Note_on_c, 8, 74, 80
10, 179040, Note_on_c, 8, 74, 0
10, 179160, Note_on_c, 8, 72, 80
10, 179280, Note_on_c, 8, 72, 0
10, 179400, Note_on_c, 8, 71, 72
10, 179520, Note_on_c, 8, 71, 0
10, 179520, Note_on_c, 8, 72, 65
10, 179640, Note_on_c, 8, 72, 0
10, 179700, Note_on_c, 8, 55, 73
10, 179730, Note_on_c, 8, 55, 0
10, 179760, Note_on_c, 8, 60, 70
10, 179820, Note_on_c, 8, 60, 0
10, 180180, Note_on_c, 8, 55, 72
10, 180210, Note_on_c, 8, 55, 0
10, 180240, Note_on_c, 8, 60, 67
10, 180300, Note_on_c, 8, 60, 0
10, 182580, Note_on_c, 8, 79, 61
10, 182610, Note_on_c, 8, 79, 0
10, 182640, Note_on_c, 8, 84, 68
10, 182700, Note_on_c, 8, 84, 0
10, 183060, Note_on_c, 8, 79, 65
10, 183090, Note_on_c, 8, 79, 0
10, 183120, Note_on_c, 8, 84, 68
10, 183180, Note_on_c, 8, 84, 0
10, 183540, Note_on_c, 8, 74, 69
10, 183570, Note_on_c, 8, 74, 0
10, 183600, Note_on_c, 8, 72, 65
10, 183660, Note_on_c, 8, 72, 0
10, 183780, Note_on_c, 8, 70, 74
10, 183810, Note_on_c, 8, 70, 0
10, 183840, Note_on_c, 8, 69, 80
10, 183900, Note_on_c, 8, 69, 0
10, 184020, Note_on_c, 8, 67, 63
10, 184050, Note_on_c, 8, 67, 0
10, 184080, Note_on_c, 8, 65, 71
10, 184140, Note_on_c, 8, 65, 0
10, 184260, Note_on_c, 8, 67, 65
10, 184290, Note_on_c, 8, 67, 0
10, 184320, Note_on_c, 8, 65, 72
10, 184380, Note_on_c, 8, 65, 0
10, 184800, Note_on_c, 8, 71, 73
10, 185280, Note_on_c, 8, 71, 0
10, 185280, Note_on_c, 8, 72, 71
10, 185400, Note_on_c, 8, 72, 0
10, 185460, Note_on_c, 8, 79, 68
10, 185490, Note_on_c, 8, 79, 0
10, 185520, Note_on_c, 8, 84, 72
10, 185580, Note_on_c, 8, 84, 0
10, 186420, Note_on_c, 8, 81, 76
10, 186450, Note_on_c, 8, 81, 0
10, 186480, Note_on_c, 8, 84, 73
10, 186540, Note_on_c, 8, 84, 0
10, 187380, Note_on_c, 8, 84, 84
10, 187410, Note_on_c, 8, 84, 0
10, 187440, Note_on_c, 8, 87, 74
10, 187500, Note_on_c, 8, 87, 0
10, 188280, Note_on_c, 8, 64, 66
10, 188400, Note_on_c, 8, 64, 0
10, 188520, Note_on_c, 8, 65, 65
10, 188640, Note_on_c, 8, 65, 0
10, 188760, Note_on_c, 8, 64, 69
10, 188880, Note_on_c, 8, 64, 0
10, 189000, Note_on_c, 8, 63, 71
10, 189120, Note_on_c, 8, 63, 0
10, 189120, Note_on_c, 8, 64, 76
10, 189240, Note_on_c, 8, 64, 0
10, 191040, Note_on_c, 8, 77, 66
10, 191160, Note_on_c, 8, 77, 0
10, 192000, Note_on_c, 8, 59, 73
10, 192120, Note_on_c, 8, 59, 0
10, 192960, Note_on_c, 8, 55, 78
10, 192960, Note_on_c, 8, 72, 44
10, 192960, Note_on_c, 8, 64, 76
10, 193080, Note_on_c, 8, 64, 0
10, 193080, Note_on_c, 8, 72, 0
10, 193080, Note_on_c, 8, 55, 0
10, 194040, Note_on_c, 8, 76, 65
10, 194160, Note_on_c, 8, 76, 0
10, 194160, Note_on_c, 8, 76, 73
10, 194280, Note_on_c, 8, 76, 0
10, 194280, Note_on_c, 8, 76, 72
10, 194400, Note_on_c, 8, 76, 0
10, 194400, Note_on_c, 8, 77, 84
10, 194520, Control_c, 8, 7, 99
10, 194525, Control_c, 8, 7, 97
10, 194530, Control_c, 8, 7, 95
10, 194535, Control_c, 8, 7, 92
10, 194540, Control_c, 8, 7, 90
10, 194545, Control_c, 8, 7, 87
10, 194550, Control_c, 8, 7, 85
10, 194555, Control_c, 8, 7, 82
10, 194560, Control_c, 8, 7, 80
10, 194565, Control_c, 8, 7, 77
10, 194570, Control_c, 8, 7, 75
10, 194575, Control_c, 8, 7, 72
10, 194580, Control_c, 8, 7, 70
10, 194585, Control_c, 8, 7, 67
10, 194640, Note_on_c, 8, 77, 0
10, 194640, Note_on_c, 8, 80, 84
10, 194880, Note_on_c, 8, 80, 0
10, 194880, Note_on_c, 8, 84, 77
10, 195060, Note_on_c, 8, 84, 0
10, 195060, Note_on_c, 8, 82, 89
10, 195090, Note_on_c, 8, 82, 0
10, 195120, Note_on_c, 8, 80, 93
10, 195180, Note_on_c, 8, 80, 0
10, 195240, Note_on_c, 8, 79, 94
10, 195300, Note_on_c, 8, 79, 0
10, 195360, Control_c, 8, 7, 67
10, 195360, Note_on_c, 8, 77, 90
10, 195380, Control_c, 8, 7, 68
10, 195395, Control_c, 8, 7, 69
10, 195410, Control_c, 8, 7, 70
10, 195420, Note_on_c, 8, 77, 0
10, 195425, Control_c, 8, 7, 71
10, 195440, Control_c, 8, 7, 72
10, 195455, Control_c, 8, 7, 73
10, 195470, Control_c, 8, 7, 74
10, 195480, Note_on_c, 8, 75, 98
10, 195485, Control_c, 8, 7, 75
10, 195500, Control_c, 8, 7, 76
10, 195515, Control_c, 8, 7, 77
10, 195530, Control_c, 8, 7, 78
10, 195540, Note_on_c, 8, 75, 0
10, 195545, Control_c, 8, 7, 79
10, 195560, Control_c, 8, 7, 80
10, 195575, Control_c, 8, 7, 81
10, 195590, Control_c, 8, 7, 82
10, 195600, Note_on_c, 8, 73, 93
10, 195605, Control_c, 8, 7, 83
10, 195620, Control_c, 8, 7, 84
10, 195635, Control_c, 8, 7, 85
10, 195650, Control_c, 8, 7, 86
10, 195660, Note_on_c, 8, 73, 0
10, 195665, Control_c, 8, 7, 87
10, 195680, Control_c, 8, 7, 88
10, 195695, Control_c, 8, 7, 89
10, 195710, Control_c, 8, 7, 90
10, 195720, Note_on_c, 8, 72, 94
10, 195725, Control_c, 8, 7, 91
10, 195740, Control_c, 8, 7, 92
10, 195755, Control_c, 8, 7, 93
10, 195770, Control_c, 8, 7, 94
10, 195780, Note_on_c, 8, 72, 0
10, 195785, Control_c, 8, 7, 95
10, 195800, Control_c, 8, 7, 96
10, 195815, Control_c, 8, 7, 97
10, 195830, Control_c, 8, 7, 98
10, 195840, Note_on_c, 8, 71, 95
10, 195845, Control_c, 8, 7, 99
10, 195960, Note_on_c, 8, 71, 0
10, 196920, Note_on_c, 8, 83, 86
10, 196950, Note_on_c, 8, 83, 0
10, 196950, Note_on_c, 8, 83, 81
10, 196980, Note_on_c, 8, 83, 0
10, 196980, Note_on_c, 8, 83, 94
10, 197010, Note_on_c, 8, 83, 0
10, 197010, Note_on_c, 8, 83, 89
10, 197040, Note_on_c, 8, 83, 0
10, 197040, Note_on_c, 8, 83, 86
10, 197070, Note_on_c, 8, 83, 0
10, 197070, Note_on_c, 8, 83, 89
10, 197100, Note_on_c, 8, 83, 0
10, 197100, Note_on_c, 8, 83, 89
10, 197130, Note_on_c, 8, 83, 0
10, 197130, Note_on_c, 8, 83, 86
10, 197160, Note_on_c, 8, 83, 0
10, 197160, Note_on_c, 8, 83, 86
10, 197190, Note_on_c, 8, 83, 0
10, 197190, Note_on_c, 8, 83, 85
10, 197220, Note_on_c, 8, 83, 0
10, 197220, Note_on_c, 8, 83, 77
10, 197250, Note_on_c, 8, 83, 0
10, 197250, Note_on_c, 8, 83, 89
10, 197280, Note_on_c, 8, 83, 0
10, 197280, Note_on_c, 8, 84, 99
10, 197310, Note_on_c, 8, 84, 0
10, 197310, Note_on_c, 8, 84, 99
10, 197340, Note_on_c, 8, 84, 0
10, 197340, Note_on_c, 8, 84, 101
10, 197370, Note_on_c, 8, 84, 0
10, 197370, Note_on_c, 8, 84, 99
10, 197400, Note_on_c, 8, 84, 0
10, 197400, Note_on_c, 8, 84, 94
10, 197430, Note_on_c, 8, 84, 0
10, 197430, Note_on_c, 8, 84, 95
10, 197460, Note_on_c, 8, 84, 0
10, 197460, Note_on_c, 8, 84, 93
10, 197490, Note_on_c, 8, 84, 0
10, 197490, Note_on_c, 8, 84, 99
10, 197520, Note_on_c, 8, 84, 0
10, 197520, Note_on_c, 8, 84, 99
10, 197550, Note_on_c, 8, 84, 0
10, 197550, Note_on_c, 8, 84, 98
10, 197580, Note_on_c, 8, 84, 0
10, 197580, Note_on_c, 8, 84, 99
10, 197610, Note_on_c, 8, 84, 0
10, 197610, Note_on_c, 8, 84, 99
10, 197640, Note_on_c, 8, 84, 0
10, 197640, Note_on_c, 8, 84, 95
10, 197670, Note_on_c, 8, 84, 0
10, 197670, Note_on_c, 8, 84, 99
10, 197700, Note_on_c, 8, 84, 0
10, 197700, Note_on_c, 8, 84, 99
10, 197730, Note_on_c, 8, 84, 0
10, 197730, Note_on_c, 8, 84, 99
10, 197760, Note_on_c, 8, 84, 0
10, 197760, Note_on_c, 8, 84, 104
10, 197790, Note_on_c, 8, 84, 0
10, 197790, Note_on_c, 8, 84, 99
10, 197820, Note_on_c, 8, 84, 0
10, 197820, Note_on_c, 8, 84, 99
10, 197850, Note_on_c, 8, 84, 0
10, 197850, Note_on_c, 8, 84, 99
10, 197880, Note_on_c, 8, 84, 0
10, 197880, Note_on_c, 8, 84, 99
10, 197910, Note_on_c, 8, 84, 0
10, 197910, Note_on_c, 8, 84, 101
10, 197940, Note_on_c, 8, 84, 0
10, 197940, Note_on_c, 8, 84, 94
10, 197970, Note_on_c, 8, 84, 0
10, 197970, Note_on_c, 8, 84, 99
10, 198000, Note_on_c, 8, 84, 0
10, 198000, Note_on_c, 8, 84, 99
10, 198030, Note_on_c, 8, 84, 0
10, 198030, Note_on_c, 8, 84, 99
10, 198060, Note_on_c, 8, 84, 0
10, 198060, Note_on_c, 8, 84, 99
10, 198090, Note_on_c, 8, 84, 0
10, 198090, Note_on_c, 8, 84, 99
10, 198120, Note_on_c, 8, 84, 0
10, 198120, Note_on_c, 8, 84, 101
10, 198150, Note_on_c, 8, 84, 0
10, 198150, Note_on_c, 8, 84, 99
10, 198180, Note_on_c, 8, 84, 0
10, 198180, Note_on_c, 8, 84, 101
10, 198210, Note_on_c, 8, 84, 0
10, 198210, Note_on_c, 8, 84, 99
10, 198240, Note_on_c, 8, 84, 0
10, 198240, Note_on_c, 8, 84, 101
10, 198270, Note_on_c, 8, 84, 0
10, 198270, Note_on_c, 8, 67, 98
10, 198300, Note_on_c, 8, 67, 0
10, 198300, Note_on_c, 8, 67, 95
10, 198330, Note_on_c, 8, 67, 0
10, 198330, Note_on_c, 8, 67, 99
10, 198360, Note_on_c, 8, 67, 0
10, 198360, Note_on_c, 8, 67, 94
10, 198390, Note_on_c, 8, 67, 0
10, 198390, Note_on_c, 8, 67, 99
10, 198420, Note_on_c, 8, 67, 0
10, 198420, Note_on_c, 8, 67, 98
10, 198450, Note_on_c, 8, 67, 0
10, 198450, Note_on_c, 8, 67, 95
10, 198480, Note_on_c, 8, 67, 0
10, 198480, Note_on_c, 8, 68, 99
10, 198510, Note_on_c, 8, 68, 0
10, 198510, Note_on_c, 8, 68, 94
10, 198540, Note_on_c, 8, 68, 0
10, 198540, Note_on_c, 8, 68, 99
10, 198570, Note_on_c, 8, 68, 0
10, 198570, Note_on_c, 8, 68, 95
10, 198600, Note_on_c, 8, 68, 0
10, 198600, Note_on_c, 8, 68, 90
10, 198630, Note_on_c, 8, 68, 0
10, 198630, Note_on_c, 8, 68, 95
10, 198660, Note_on_c, 8, 68, 0
10, 198660, Note_on_c, 8, 68, 94
10, 198690, Note_on_c, 8, 68, 0
10, 198690, Note_on_c, 8, 68, 94
10, 198720, Note_on_c, 8, 68, 0
10, 198720, Note_on_c, 8, 67, 99
10, 198750, Note_on_c, 8, 67, 0
10, 198750, Note_on_c, 8, 67, 95
10, 198780, Note_on_c, 8, 67, 0
10, 198780, Note_on_c, 8, 67, 98
10, 198810, Note_on_c, 8, 67, 0
10, 198810, Note_on_c, 8, 67, 98
10, 198840, Note_on_c, 8, 67, 0
10, 198840, Note_on_c, 8, 67, 95
10, 198870, Note_on_c, 8, 67, 0
10, 198870, Note_on_c, 8, 67, 99
10, 198900, Note_on_c, 8, 67, 0
10, 198900, Note_on_c, 8, 67, 94
10, 198930, Note_on_c, 8, 67, 0
10, 198930, Note_on_c, 8, 67, 99
10, 198960, Note_on_c, 8, 67, 0
10, 198960, Note_on_c, 8, 66, 94
10, 198990, Note_on_c, 8, 66, 0
10, 198990, Note_on_c, 8, 66, 95
10, 199020, Note_on_c, 8, 66, 0
10, 199020, Note_on_c, 8, 66, 94
10, 199050, Note_on_c, 8, 66, 0
10, 199050, Note_on_c, 8, 66, 94
10, 199080, Note_on_c, 8, 66, 0
10, 199080, Note_on_c, 8, 66, 95
10, 199110, Note_on_c, 8, 66, 0
10, 199110, Note_on_c, 8, 66, 94
10, 199140, Note_on_c, 8, 66, 0
10, 199140, Note_on_c, 8, 66, 89
10, 199170, Note_on_c, 8, 66, 0
10, 199170, Note_on_c, 8, 66, 93
10, 199200, Note_on_c, 8, 66, 0
10, 199200, Note_on_c, 8, 55, 99
10, 199200, Note_on_c, 8, 67, 98
10, 199440, Note_on_c, 8, 67, 0
10, 199440, Note_on_c, 8, 55, 0
10, 247680, Note_on_c, 8, 64, 40
10, 248640, Note_on_c, 8, 64, 0
10, 248640, Note_on_c, 8, 65, 38
10, 249120, Note_on_c, 8, 65, 0
10, 249120, Note_on_c, 8, 65, 40
10, 249120, Note_on_c, 8, 56, 29
10, 249600, Note_on_c, 8, 56, 0
10, 249600, Note_on_c, 8, 65, 0
10, 249600, Note_on_c, 8, 64, 29
10, 250560, Note_on_c, 8, 64, 0
10, 250560, Note_on_c, 8, 65, 30
10, 251040, Note_on_c, 8, 65, 0
10, 251040, Note_on_c, 8, 65, 39
10, 251040, Note_on_c, 8, 56, 29
10, 251520, Note_on_c, 8, 56, 0
10, 251520, Note_on_c, 8, 65, 0
10, 251520, Note_on_c, 8, 63, 32
10, 251550, Note_on_c, 8, 63, 0
10, 251550, Note_on_c, 8, 63, 35
10, 251580, Note_on_c, 8, 63, 0
10, 251580, Note_on_c, 8, 63, 31
10, 251610, Note_on_c, 8, 63, 0
10, 251610, Note_on_c, 8, 63, 35
10, 251640, Note_on_c, 8, 63, 0
10, 251640, Note_on_c, 8, 63, 38
10, 251670, Note_on_c, 8, 63, 0
10, 251670, Note_on_c, 8, 63, 36
10, 251700, Note_on_c, 8, 63, 0
10, 251700, Note_on_c, 8, 63, 36
10, 251730, Note_on_c, 8, 63, 0
10, 251730, Note_on_c, 8, 63, 36
10, 251760, Note_on_c, 8, 63, 0
10, 251760, Note_on_c, 8, 63, 32
10, 251790, Note_on_c, 8, 63, 0
10, 251790, Note_on_c, 8, 63, 35
10, 251820, Note_on_c, 8, 63, 0
10, 251820, Note_on_c, 8, 63, 32
10, 251850, Note_on_c, 8, 63, 0
10, 251850, Note_on_c, 8, 63, 32
10, 251880, Note_on_c, 8, 63, 0
10, 251880, Note_on_c, 8, 63, 38
10, 251910, Note_on_c, 8, 63, 0
10, 251910, Note_on_c, 8, 63, 35
10, 251940, Note_on_c, 8, 63, 0
10, 251940, Note_on_c, 8, 63, 34
10, 251970, Note_on_c, 8, 63, 0
10, 251970, Note_on_c, 8, 63, 32
10, 252000, Note_on_c, 8, 63, 0
10, 252000, Note_on_c, 8, 63, 37
10, 252030, Note_on_c, 8, 63, 0
10, 252030, Note_on_c, 8, 63, 29
10, 252060, Note_on_c, 8, 63, 0
10, 252060, Note_on_c, 8, 63, 29
10, 252090, Note_on_c, 8, 63, 0
10, 252090, Note_on_c, 8, 63, 32
10, 252120, Note_on_c, 8, 63, 0
10, 252120, Note_on_c, 8, 63, 35
10, 252150, Note_on_c, 8, 63, 0
10, 252150, Note_on_c, 8, 63, 33
10, 252180, Note_on_c, 8, 63, 0
10, 252180, Note_on_c, 8, 63, 35
10, 252210, Note_on_c, 8, 63, 0
10, 252210, Note_on_c, 8, 63, 32
10, 252240, Note_on_c, 8, 63, 0
10, 252240, Note_on_c, 8, 63, 35
10, 252270, Note_on_c, 8, 63, 0
10, 252270, Note_on_c, 8, 63, 35
10, 252300, Note_on_c, 8, 63, 0
10, 252300, Note_on_c, 8, 63, 32
10, 252330, Note_on_c, 8, 63, 0
10, 252330, Note_on_c, 8, 63, 34
10, 252360, Note_on_c, 8, 63, 0
10, 252360, Note_on_c, 8, 63, 35
10, 252390, Note_on_c, 8, 63, 0
10, 252390, Note_on_c, 8, 63, 31
10, 252420, Note_on_c, 8, 63, 0
10, 252420, Note_on_c, 8, 63, 35
10, 252450, Note_on_c, 8, 63, 0
10, 252450, Note_on_c, 8, 63, 38
10, 252480, Note_on_c, 8, 63, 0
10, 252480, Note_on_c, 8, 65, 30
10, 252510, Note_on_c, 8, 65, 0
10, 252510, Note_on_c, 8, 65, 43
10, 252540, Note_on_c, 8, 65, 0
10, 252540, Note_on_c, 8, 65, 29
10, 252570, Note_on_c, 8, 65, 0
10, 252570, Note_on_c, 8, 65, 38
10, 252600, Note_on_c, 8, 65, 0
10, 252600, Note_on_c, 8, 65, 37
10, 252630, Note_on_c, 8, 65, 0
10, 252630, Note_on_c, 8, 65, 29
10, 252660, Note_on_c, 8, 65, 0
10, 252660, Note_on_c, 8, 65, 40
10, 252690, Note_on_c, 8, 65, 0
10, 252690, Note_on_c, 8, 65, 39
10, 252720, Note_on_c, 8, 65, 0
10, 252720, Note_on_c, 8, 65, 29
10, 252750, Note_on_c, 8, 65, 0
10, 252750, Note_on_c, 8, 65, 41
10, 252780, Note_on_c, 8, 65, 0
10, 252780, Note_on_c, 8, 65, 29
10, 252810, Note_on_c, 8, 65, 0
10, 252810, Note_on_c, 8, 65, 31
10, 252840, Note_on_c, 8, 65, 0
10, 252840, Note_on_c, 8, 65, 32
10, 252870, Note_on_c, 8, 65, 0
10, 252870, Note_on_c, 8, 65, 35
10, 252900, Note_on_c, 8, 65, 0
10, 252900, Note_on_c, 8, 65, 33
10, 252930, Note_on_c, 8, 65, 0
10, 252930, Note_on_c, 8, 65, 38
10, 252960, Note_on_c, 8, 65, 0
10, 252960, Note_on_c, 8, 62, 29
10, 252990, Note_on_c, 8, 62, 0
10, 252990, Note_on_c, 8, 62, 29
10, 253020, Note_on_c, 8, 62, 0
10, 253020, Note_on_c, 8, 62, 36
10, 253050, Note_on_c, 8, 62, 0
10, 253050, Note_on_c, 8, 62, 39
10, 253080, Note_on_c, 8, 62, 0
10, 253080, Note_on_c, 8, 62, 29
10, 253110, Note_on_c, 8, 62, 0
10, 253110, Note_on_c, 8, 62, 31
10, 253140, Note_on_c, 8, 62, 0
10, 253140, Note_on_c, 8, 62, 35
10, 253170, Note_on_c, 8, 62, 0
10, 253170, Note_on_c, 8, 62, 36
10, 253200, Note_on_c, 8, 62, 0
10, 253200, Note_on_c, 8, 62, 37
10, 253230, Note_on_c, 8, 62, 0
10, 253230, Note_on_c, 8, 62, 29
10, 253260, Note_on_c, 8, 62, 0
10, 253260, Note_on_c, 8, 62, 32
10, 253290, Note_on_c, 8, 62, 0
10, 253290, Note_on_c, 8, 62, 35
10, 253320, Note_on_c, 8, 62, 0
10, 253320, Note_on_c, 8, 62, 37
10, 253350, Note_on_c, 8, 62, 0
10, 253350, Note_on_c, 8, 62, 38
10, 253380, Note_on_c, 8, 62, 0
10, 253380, Note_on_c, 8, 62, 35
10, 253410, Note_on_c, 8, 62, 0
10, 253410, Note_on_c, 8, 62, 40
10, 253440, Note_on_c, 8, 62, 0
10, 253440, Note_on_c, 8, 63, 29
10, 253470, Note_on_c, 8, 63, 0
10, 253470, Note_on_c, 8, 72, 29
10, 253500, Note_on_c, 8, 72, 0
10, 253500, Note_on_c, 8, 72, 29
10, 253530, Note_on_c, 8, 72, 0
10, 253530, Note_on_c, 8, 72, 29
10, 253560, Note_on_c, 8, 72, 0
10, 253560, Note_on_c, 8, 72, 29
10, 253590, Note_on_c, 8, 72, 0
10, 253590, Note_on_c, 8, 72, 29
10, 253620, Note_on_c, 8, 72, 0
10, 253620, Note_on_c, 8, 72, 32
10, 253650, Note_on_c, 8, 72, 0
10, 253650, Note_on_c, 8, 72, 33
10, 253680, Note_on_c, 8, 72, 0
10, 253680, Note_on_c, 8, 72, 29
10, 253710, Note_on_c, 8, 72, 0
10, 253710, Note_on_c, 8, 72, 30
10, 253740, Note_on_c, 8, 72, 0
10, 253740, Note_on_c, 8, 72, 40
10, 253770, Note_on_c, 8, 72, 0
10, 253770, Note_on_c, 8, 72, 39
10, 253800, Note_on_c, 8, 72, 0
10, 253800, Note_on_c, 8, 72, 29
10, 253830, Note_on_c, 8, 72, 0
10, 253830, Note_on_c, 8, 72, 29
10, 253860, Note_on_c, 8, 72, 0
10, 253860, Note_on_c, 8, 72, 33
10, 253890, Note_on_c, 8, 72, 0
10, 253890, Note_on_c, 8, 72, 32
10, 253920, Note_on_c, 8, 72, 0
10, 253920, Note_on_c, 8, 72, 43
10, 253950, Note_on_c, 8, 72, 0
10, 253950, Note_on_c, 8, 72, 36
10, 253980, Note_on_c, 8, 72, 0
10, 253980, Note_on_c, 8, 72, 31
10, 254010, Note_on_c, 8, 72, 0
10, 254010, Note_on_c, 8, 72, 31
10, 254040, Note_on_c, 8, 72, 0
10, 254040, Note_on_c, 8, 72, 32
10, 254070, Note_on_c, 8, 72, 0
10, 254070, Note_on_c, 8, 72, 32
10, 254100, Note_on_c, 8, 72, 0
10, 254100, Note_on_c, 8, 72, 38
10, 254130, Note_on_c, 8, 72, 0
10, 254130, Note_on_c, 8, 72, 41
10, 254160, Note_on_c, 8, 72, 0
10, 254160, Note_on_c, 8, 72, 37
10, 254190, Note_on_c, 8, 72, 0
10, 254190, Note_on_c, 8, 72, 35
10, 254220, Note_on_c, 8, 72, 0
10, 254220, Note_on_c, 8, 72, 38
10, 254250, Note_on_c, 8, 72, 0
10, 254250, Note_on_c, 8, 72, 29
10, 254280, Note_on_c, 8, 72, 0
10, 254280, Note_on_c, 8, 72, 30
10, 254310, Note_on_c, 8, 72, 0
10, 254310, Note_on_c, 8, 72, 35
10, 254340, Note_on_c, 8, 72, 0
10, 254340, Note_on_c, 8, 72, 38
10, 254370, Note_on_c, 8, 72, 0
10, 254370, Note_on_c, 8, 72, 33
10, 254400, Note_on_c, 8, 72, 0
10, 254400, Note_on_c, 8, 74, 36
10, 254430, Note_on_c, 8, 74, 0
10, 254430, Note_on_c, 8, 74, 38
10, 254460, Note_on_c, 8, 74, 0
10, 254460, Note_on_c, 8, 74, 32
10, 254490, Note_on_c, 8, 74, 0
10, 254490, Note_on_c, 8, 74, 38
10, 254520, Note_on_c, 8, 74, 0
10, 254520, Note_on_c, 8, 74, 45
10, 254550, Note_on_c, 8, 74, 0
10, 254550, Note_on_c, 8, 74, 40
10, 254580, Note_on_c, 8, 74, 0
10, 254580, Note_on_c, 8, 74, 38
10, 254610, Note_on_c, 8, 74, 0
10, 254610, Note_on_c, 8, 74, 35
10, 254640, Note_on_c, 8, 74, 0
10, 254640, Note_on_c, 8, 74, 40
10, 254670, Note_on_c, 8, 74, 0
10, 254670, Note_on_c, 8, 74, 38
10, 254700, Note_on_c, 8, 74, 0
10, 254700, Note_on_c, 8, 74, 37
10, 254730, Note_on_c, 8, 74, 0
10, 254730, Note_on_c, 8, 74, 40
10, 254760, Note_on_c, 8, 74, 0
10, 254760, Note_on_c, 8, 74, 41
10, 254790, Note_on_c, 8, 74, 0
10, 254790, Note_on_c, 8, 74, 38
10, 254820, Note_on_c, 8, 74, 0
10, 254820, Note_on_c, 8, 74, 38
10, 254850, Note_on_c, 8, 74, 0
10, 254850, Note_on_c, 8, 74, 43
10, 254880, Note_on_c, 8, 74, 0
10, 254880, Note_on_c, 8, 71, 35
10, 254910, Note_on_c, 8, 71, 0
10, 254910, Note_on_c, 8, 71, 37
10, 254940, Note_on_c, 8, 71, 0
10, 254940, Note_on_c, 8, 71, 40
10, 254970, Note_on_c, 8, 71, 0
10, 254970, Note_on_c, 8, 71, 38
10, 255000, Note_on_c, 8, 71, 0
10, 255000, Note_on_c, 8, 71, 39
10, 255030, Note_on_c, 8, 71, 0
10, 255030, Note_on_c, 8, 71, 35
10, 255060, Note_on_c, 8, 71, 0
10, 255060, Note_on_c, 8, 71, 39
10, 255090, Note_on_c, 8, 71, 0
10, 255090, Note_on_c, 8, 71, 36
10, 255120, Note_on_c, 8, 71, 0
10, 255120, Note_on_c, 8, 71, 38
10, 255150, Note_on_c, 8, 71, 0
10, 255150, Note_on_c, 8, 71, 33
10, 255180, Note_on_c, 8, 71, 0
10, 255180, Note_on_c, 8, 71, 34
10, 255210, Note_on_c, 8, 71, 0
10, 255210, Note_on_c, 8, 71, 40
10, 255240, Note_on_c, 8, 71, 0
10, 255240, Note_on_c, 8, 71, 40
10, 255270, Note_on_c, 8, 71, 0
10, 255270, Note_on_c, 8, 71, 41
10, 255300, Note_on_c, 8, 71, 0
10, 255300, Note_on_c, 8, 71, 39
10, 255330, Note_on_c, 8, 71, 0
10, 255330, Note_on_c, 8, 71, 44
10, 255360, Note_on_c, 8, 71, 0
10, 255360, Note_on_c, 8, 72, 29
10, 255390, Note_on_c, 8, 72, 0
10, 255390, Note_on_c, 8, 75, 29
10, 255420, Note_on_c, 8, 75, 0
10, 255420, Note_on_c, 8, 75, 40
10, 255450, Note_on_c, 8, 75, 0
10, 255450, Note_on_c, 8, 75, 43
10, 255480, Note_on_c, 8, 75, 0
10, 255480, Note_on_c, 8, 75, 43
10, 255510, Note_on_c, 8, 75, 0
10, 255510, Note_on_c, 8, 75, 50
10, 255540, Note_on_c, 8, 75, 0
10, 255540, Note_on_c, 8, 75, 46
10, 255570, Note_on_c, 8, 75, 0
10, 255570, Note_on_c, 8, 75, 48
10, 255600, Note_on_c, 8, 75, 0
10, 255600, Note_on_c, 8, 75, 50
10, 255630, Note_on_c, 8, 75, 0
10, 255630, Note_on_c, 8, 75, 62
10, 255660, Note_on_c, 8, 75, 0
10, 255660, Note_on_c, 8, 75, 57
10, 255690, Note_on_c, 8, 75, 0
10, 255690, Note_on_c, 8, 75, 58
10, 255720, Note_on_c, 8, 75, 0
10, 255720, Note_on_c, 8, 75, 57
10, 255750, Note_on_c, 8, 75, 0
10, 255750, Note_on_c, 8, 75, 64
10, 255780, Note_on_c, 8, 75, 0
10, 255780, Note_on_c, 8, 75, 58
10, 255810, Note_on_c, 8, 75, 0
10, 255810, Note_on_c, 8, 75, 53
10, 255840, Note_on_c, 8, 75, 0
10, 255840, Note_on_c, 8, 77, 71
10, 255870, Note_on_c, 8, 77, 0
10, 255870, Note_on_c, 8, 77, 59
10, 255900, Note_on_c, 8, 77, 0
10, 255900, Note_on_c, 8, 77, 58
10, 255930, Note_on_c, 8, 77, 0
10, 255930, Note_on_c, 8, 77, 72
10, 255960, Note_on_c, 8, 77, 0
10, 255960, Note_on_c, 8, 77, 76
10, 255990, Note_on_c, 8, 77, 0
10, 255990, Note_on_c, 8, 77, 78
10, 256020, Note_on_c, 8, 77, 0
10, 256020, Note_on_c, 8, 77, 76
10, 256050, Note_on_c, 8, 77, 0
10, 256050, Note_on_c, 8, 77, 89
10, 256080, Note_on_c, 8, 77, 0
10, 256080, Note_on_c, 8, 74, 84
10, 256110, Note_on_c, 8, 74, 0
10, 256110, Note_on_c, 8, 74, 93
10, 256140, Note_on_c, 8, 74, 0
10, 256140, Note_on_c, 8, 74, 95
10, 256170, Note_on_c, 8, 74, 0
10, 256170, Note_on_c, 8, 74, 99
10, 256200, Note_on_c, 8, 74, 0
10, 256200, Note_on_c, 8, 74, 99
10, 256230, Note_on_c, 8, 74, 0
10, 256230, Note_on_c, 8, 74, 104
10, 256260, Note_on_c, 8, 74, 0
10, 256260, Note_on_c, 8, 74, 99
10, 256290, Note_on_c, 8, 74, 0
10, 256290, Note_on_c, 8, 74, 99
10, 256320, Note_on_c, 8, 74, 0
10, 256320, Note_on_c, 8, 75, 105
10, 256350, Note_on_c, 8, 75, 0
10, 256350, Note_on_c, 8, 84, 90
10, 256380, Note_on_c, 8, 84, 0
10, 256380, Note_on_c, 8, 84, 93
10, 256410, Note_on_c, 8, 84, 0
10, 256410, Note_on_c, 8, 84, 90
10, 256440, Note_on_c, 8, 84, 0
10, 256440, Note_on_c, 8, 84, 89
10, 256470, Note_on_c, 8, 84, 0
10, 256470, Note_on_c, 8, 84, 93
10, 256500, Note_on_c, 8, 84, 0
10, 256500, Note_on_c, 8, 84, 95
10, 256530, Note_on_c, 8, 84, 0
10, 256530, Note_on_c, 8, 84, 98
10, 256560, Note_on_c, 8, 84, 0
10, 256560, Note_on_c, 8, 84, 90
10, 256590, Note_on_c, 8, 84, 0
10, 256590, Note_on_c, 8, 84, 94
10, 256620, Note_on_c, 8, 84, 0
10, 256620, Note_on_c, 8, 84, 94
10, 256650, Note_on_c, 8, 84, 0
10, 256650, Note_on_c, 8, 84, 95
10, 256680, Note_on_c, 8, 84, 0
10, 256680, Note_on_c, 8, 84, 98
10, 256710, Note_on_c, 8, 84, 0
10, 256710, Note_on_c, 8, 84, 93
10, 256740, Note_on_c, 8, 84, 0
10, 256740, Note_on_c, 8, 84, 95
10, 256770, Note_on_c, 8, 84, 0
10, 256770, Note_on_c, 8, 84, 99
10, 256800, Note_on_c, 8, 84, 0
10, 256800, Note_on_c, 8, 89, 101
10, 256830, Note_on_c, 8, 89, 0
10, 256830, Note_on_c, 8, 89, 104
10, 256860, Note_on_c, 8, 89, 0
10, 256860, Note_on_c, 8, 89, 101
10, 256890, Note_on_c, 8, 89, 0
10, 256890, Note_on_c, 8, 89, 98
10, 256920, Note_on_c, 8, 89, 0
10, 256920, Note_on_c, 8, 89, 99
10, 256950, Note_on_c, 8, 89, 0
10, 256950, Note_on_c, 8, 89, 104
10, 256980, Note_on_c, 8, 89, 0
10, 256980, Note_on_c, 8, 89, 101
10, 257010, Note_on_c, 8, 89, 0
10, 257010, Note_on_c, 8, 89, 105
10, 257040, Note_on_c, 8, 89, 0
10, 257040, Note_on_c, 8, 86, 104
10, 257070, Note_on_c, 8, 86, 0
10, 257070, Note_on_c, 8, 86, 101
10, 257100, Note_on_c, 8, 86, 0
10, 257100, Note_on_c, 8, 86, 105
10, 257130, Note_on_c, 8, 86, 0
10, 257130, Note_on_c, 8, 86, 105
10, 257160, Note_on_c, 8, 86, 0
10, 257160, Note_on_c, 8, 86, 104
10, 257190, Note_on_c, 8, 86, 0
10, 257190, Note_on_c, 8, 86, 105
10, 257220, Note_on_c, 8, 86, 0
10, 257220, Note_on_c, 8, 86, 105
10, 257250, Note_on_c, 8, 86, 0
10, 257250, Note_on_c, 8, 86, 110
10, 257280, Note_on_c, 8, 86, 0
10, 257280, Note_on_c, 8, 84, 107
10, 257400, Note_on_c, 8, 84, 0
10, 257760, Note_on_c, 8, 75, 99
10, 257760, Note_on_c, 8, 84, 99
10, 257760, Note_on_c, 8, 67, 105
10, 257880, Note_on_c, 8, 67, 0
10, 257880, Note_on_c, 8, 84, 0
10, 257880, Note_on_c, 8, 75, 0
10, 258240, Note_on_c, 8, 75, 98
10, 258240, Note_on_c, 8, 84, 99
10, 258240, Note_on_c, 8, 67, 107
10, 258360, Note_on_c, 8, 67, 0
10, 258360, Note_on_c, 8, 84, 0
10, 258360, Note_on_c, 8, 75, 0
10, 258480, Note_on_c, 8, 72, 115
10, 258600, Note_on_c, 8, 72, 0
10, 258720, Note_on_c, 8, 67, 104
10, 258840, Note_on_c, 8, 67, 0
10, 258960, Note_on_c, 8, 63, 101
10, 259080, Note_on_c, 8, 63, 0
10, 259200, Note_on_c, 8, 60, 112
10, 259320, Note_on_c, 8, 60, 0
10, 259650, Note_on_c, 8, 60, 112
10, 259680, Note_on_c, 8, 60, 0
10, 259680, Note_on_c, 8, 60, 105
10, 259800, Note_on_c, 8, 60, 0
10, 260130, Note_on_c, 8, 60, 105
10, 260160, Note_on_c, 8, 60, 0
10, 260160, Note_on_c, 8, 60, 112
10, 260640, Note_on_c, 8, 60, 0
10, 260640, End_track
11, 0, Start_track
11, 0, MIDI_port, 0
11, 0, Title_t, "2nd Violins"
11, 0, Program_c, 10, 48
11, 0, Control_c, 10, 7, 100
11, 0, Control_c, 10, 10, 13
11, 0, Control_c, 10, 93, 0
11, 0, Control_c, 10, 91, 66
11, 0, Note_on_c, 10, 60, 61
11, 240, Note_on_c, 10, 60, 0
11, 240, Note_on_c, 10, 63, 64
11, 480, Note_on_c, 10, 63, 0
11, 480, Note_on_c, 10, 67, 67
11, 660, Note_on_c, 10, 67, 0
11, 660, Note_on_c, 10, 65, 59
11, 690, Note_on_c, 10, 65, 0
11, 720, Note_on_c, 10, 63, 51
11, 780, Note_on_c, 10, 63, 0
11, 840, Note_on_c, 10, 62, 64
11, 900, Note_on_c, 10, 62, 0
11, 960, Note_on_c, 10, 60, 57
11, 1020, Note_on_c, 10, 60, 0
11, 1140, Note_on_c, 10, 55, 52
11, 1170, Note_on_c, 10, 55, 0
11, 1200, Note_on_c, 10, 60, 63
11, 1260, Note_on_c, 10, 60, 0
11, 1380, Note_on_c, 10, 55, 57
11, 1410, Note_on_c, 10, 55, 0
11, 1440, Note_on_c, 10, 60, 67
11, 1560, Note_on_c, 10, 60, 0
11, 3840, Note_on_c, 10, 67, 60
11, 4200, Note_on_c, 10, 67, 0
11, 4200, Note_on_c, 10, 65, 58
11, 4260, Note_on_c, 10, 65, 0
11, 4260, Note_on_c, 10, 63, 58
11, 4320, Note_on_c, 10, 63, 0
11, 4320, Note_on_c, 10, 62, 52
11, 4380, Note_on_c, 10, 62, 0
11, 4380, Note_on_c, 10, 60, 58
11, 4440, Note_on_c, 10, 60, 0
11, 4440, Note_on_c, 10, 60, 84
11, 4680, Note_on_c, 10, 60, 0
11, 4680, Note_on_c, 10, 60, 53
11, 4800, Note_on_c, 10, 60, 0
11, 4800, Note_on_c, 10, 72, 52
11, 5160, Note_on_c, 10, 72, 0
11, 5160, Note_on_c, 10, 70, 65
11, 5220, Note_on_c, 10, 70, 0
11, 5220, Note_on_c, 10, 68, 59
11, 5280, Note_on_c, 10, 68, 0
11, 5280, Note_on_c, 10, 67, 69
11, 5340, Note_on_c, 10, 67, 0
11, 5340, Note_on_c, 10, 65, 69
11, 5400, Note_on_c, 10, 65, 0
11, 5400, Note_on_c, 10, 65, 94
11, 5640, Note_on_c, 10, 65, 0
11, 5640, Note_on_c, 10, 65, 58
11, 5760, Note_on_c, 10, 65, 0
11, 5760, Note_on_c, 10, 65, 73
11, 6120, Note_on_c, 10, 65, 0
11, 6120, Note_on_c, 10, 63, 73
11, 6180, Note_on_c, 10, 63, 0
11, 6180, Note_on_c, 10, 62, 67
11, 6240, Note_on_c, 10, 62, 0
11, 6240, Note_on_c, 10, 60, 80
11, 6300, Note_on_c, 10, 60, 0
11, 6300, Note_on_c, 10, 59, 84
11, 6360, Note_on_c, 10, 59, 0
11, 6360, Note_on_c, 10, 74, 93
11, 6600, Note_on_c, 10, 74, 0
11, 6600, Note_on_c, 10, 74, 84
11, 6620, Note_on_c, 10, 74, 0
11, 6620, Note_on_c, 10, 75, 73
11, 6640, Note_on_c, 10, 75, 0
11, 6640, Note_on_c, 10, 74, 76
11, 6660, Note_on_c, 10, 74, 0
11, 6660, Note_on_c, 10, 72, 65
11, 6690, Note_on_c, 10, 72, 0
11, 6690, Note_on_c, 10, 74, 72
11, 6720, Note_on_c, 10, 74, 0
11, 6720, Note_on_c, 10, 75, 68
11, 6780, Note_on_c, 10, 75, 0
11, 6840, Note_on_c, 10, 74, 99
11, 6900, Note_on_c, 10, 74, 0
11, 6960, Note_on_c, 10, 72, 82
11, 7020, Note_on_c, 10, 72, 0
11, 7080, Note_on_c, 10, 71, 95
11, 7140, Note_on_c, 10, 71, 0
11, 7200, Note_on_c, 10, 63, 89
11, 7320, Note_on_c, 10, 63, 0
11, 7680, Note_on_c, 10, 65, 57
11, 8040, Note_on_c, 10, 65, 0
11, 8040, Note_on_c, 10, 65, 43
11, 8130, Note_on_c, 10, 65, 0
11, 8130, Note_on_c, 10, 63, 55
11, 8160, Note_on_c, 10, 63, 0
11, 8160, Note_on_c, 10, 63, 46
11, 8280, Note_on_c, 10, 63, 0
11, 9600, Note_on_c, 10, 68, 63
11, 9960, Note_on_c, 10, 68, 0
11, 9960, Note_on_c, 10, 68, 73
11, 10050, Note_on_c, 10, 68, 0
11, 10050, Note_on_c, 10, 67, 60
11, 10080, Note_on_c, 10, 67, 0
11, 10080, Note_on_c, 10, 67, 47
11, 10200, Note_on_c, 10, 67, 0
11, 11040, Note_on_c, 10, 63, 61
11, 11040, Note_on_c, 10, 55, 80
11, 11100, Note_on_c, 10, 55, 0
11, 11100, Note_on_c, 10, 63, 0
11, 11100, Note_on_c, 10, 63, 59
11, 11100, Note_on_c, 10, 55, 77
11, 11160, Note_on_c, 10, 55, 0
11, 11160, Note_on_c, 10, 63, 0
11, 11160, Note_on_c, 10, 63, 68
11, 11160, Note_on_c, 10, 55, 74
11, 11220, Note_on_c, 10, 55, 0
11, 11220, Note_on_c, 10, 63, 0
11, 11220, Note_on_c, 10, 63, 67
11, 11220, Note_on_c, 10, 55, 81
11, 11280, Note_on_c, 10, 55, 0
11, 11280, Note_on_c, 10, 63, 0
11, 11280, Note_on_c, 10, 63, 65
11, 11280, Note_on_c, 10, 55, 80
11, 11340, Note_on_c, 10, 55, 0
11, 11340, Note_on_c, 10, 63, 0
11, 11340, Note_on_c, 10, 63, 72
11, 11340, Note_on_c, 10, 55, 82
11, 11400, Note_on_c, 10, 55, 0
11, 11400, Note_on_c, 10, 63, 0
11, 11400, Note_on_c, 10, 63, 68
11, 11400, Note_on_c, 10, 55, 84
11, 11460, Note_on_c, 10, 55, 0
11, 11460, Note_on_c, 10, 63, 0
11, 11460, Note_on_c, 10, 55, 76
11, 11460, Note_on_c, 10, 63, 69
11, 11520, Note_on_c, 10, 63, 0
11, 11520, Note_on_c, 10, 55, 0
11, 11520, Note_on_c, 10, 63, 72
11, 11520, Note_on_c, 10, 55, 81
11, 11580, Note_on_c, 10, 55, 0
11, 11580, Note_on_c, 10, 63, 0
11, 11580, Note_on_c, 10, 63, 73
11, 11580, Note_on_c, 10, 55, 84
11, 11640, Note_on_c, 10, 55, 0
11, 11640, Note_on_c, 10, 63, 0
11, 11640, Note_on_c, 10, 63, 69
11, 11640, Note_on_c, 10, 55, 80
11, 11700, Note_on_c, 10, 55, 0
11, 11700, Note_on_c, 10, 63, 0
11, 11700, Note_on_c, 10, 63, 69
11, 11700, Note_on_c, 10, 55, 80
11, 11760, Note_on_c, 10, 55, 0
11, 11760, Note_on_c, 10, 63, 0
11, 11760, Note_on_c, 10, 63, 74
11, 11760, Note_on_c, 10, 55, 86
11, 11820, Note_on_c, 10, 55, 0
11, 11820, Note_on_c, 10, 63, 0
11, 11820, Note_on_c, 10, 63, 73
11, 11820, Note_on_c, 10, 55, 81
11, 11880, Note_on_c, 10, 55, 0
11, 11880, Note_on_c, 10, 63, 0
11, 11880, Note_on_c, 10, 63, 76
11, 11880, Note_on_c, 10, 55, 84
11, 11940, Note_on_c, 10, 55, 0
11, 11940, Note_on_c, 10, 63, 0
11, 11940, Note_on_c, 10, 55, 89
11, 11940, Note_on_c, 10, 63, 71
11, 12000, Note_on_c, 10, 63, 0
11, 12000, Note_on_c, 10, 55, 0
11, 12000, Note_on_c, 10, 63, 85
11, 12000, Note_on_c, 10, 55, 104
11, 12030, Note_on_c, 10, 55, 0
11, 12030, Note_on_c, 10, 63, 0
11, 12030, Note_on_c, 10, 63, 81
11, 12030, Note_on_c, 10, 55, 98
11, 12060, Note_on_c, 10, 55, 0
11, 12060, Note_on_c, 10, 63, 0
11, 12060, Note_on_c, 10, 63, 65
11, 12060, Note_on_c, 10, 55, 85
11, 12090, Note_on_c, 10, 55, 0
11, 12090, Note_on_c, 10, 63, 0
11, 12090, Note_on_c, 10, 63, 60
11, 12090, Note_on_c, 10, 55, 80
11, 12120, Note_on_c, 10, 55, 0
11, 12120, Note_on_c, 10, 63, 0
11, 12120, Note_on_c, 10, 63, 61
11, 12120, Note_on_c, 10, 55, 84
11, 12150, Note_on_c, 10, 55, 0
11, 12150, Note_on_c, 10, 63, 0
11, 12150, Note_on_c, 10, 63, 57
11, 12150, Note_on_c, 10, 55, 71
11, 12180, Note_on_c, 10, 55, 0
11, 12180, Note_on_c, 10, 63, 0
11, 12180, Note_on_c, 10, 63, 56
11, 12180, Note_on_c, 10, 55, 72
11, 12210, Note_on_c, 10, 55, 0
11, 12210, Note_on_c, 10, 63, 0
11, 12210, Note_on_c, 10, 63, 57
11, 12210, Note_on_c, 10, 55, 77
11, 12240, Note_on_c, 10, 55, 0
11, 12240, Note_on_c, 10, 63, 0
11, 12240, Note_on_c, 10, 63, 65
11, 12240, Note_on_c, 10, 55, 78
11, 12270, Note_on_c, 10, 55, 0
11, 12270, Note_on_c, 10, 63, 0
11, 12270, Note_on_c, 10, 63, 63
11, 12270, Note_on_c, 10, 55, 77
11, 12300, Note_on_c, 10, 55, 0
11, 12300, Note_on_c, 10, 63, 0
11, 12300, Note_on_c, 10, 63, 53
11, 12300, Note_on_c, 10, 55, 80
11, 12330, Note_on_c, 10, 55, 0
11, 12330, Note_on_c, 10, 63, 0
11, 12330, Note_on_c, 10, 63, 65
11, 12330, Note_on_c, 10, 55, 80
11, 12360, Note_on_c, 10, 55, 0
11, 12360, Note_on_c, 10, 63, 0
11, 12360, Note_on_c, 10, 63, 56
11, 12360, Note_on_c, 10, 55, 77
11, 12390, Note_on_c, 10, 55, 0
11, 12390, Note_on_c, 10, 63, 0
11, 12390, Note_on_c, 10, 63, 62
11, 12390, Note_on_c, 10, 55, 80
11, 12420, Note_on_c, 10, 55, 0
11, 12420, Note_on_c, 10, 63, 0
11, 12420, Note_on_c, 10, 63, 55
11, 12420, Note_on_c, 10, 55, 81
11, 12450, Note_on_c, 10, 55, 0
11, 12450, Note_on_c, 10, 63, 0
11, 12450, Note_on_c, 10, 55, 84
11, 12450, Note_on_c, 10, 63, 57
11, 12480, Note_on_c, 10, 63, 0
11, 12480, Note_on_c, 10, 55, 0
11, 12480, Note_on_c, 10, 63, 66
11, 12480, Note_on_c, 10, 55, 81
11, 12510, Note_on_c, 10, 55, 0
11, 12510, Note_on_c, 10, 63, 0
11, 12510, Note_on_c, 10, 63, 64
11, 12510, Note_on_c, 10, 55, 84
11, 12540, Note_on_c, 10, 55, 0
11, 12540, Note_on_c, 10, 63, 0
11, 12540, Note_on_c, 10, 63, 65
11, 12540, Note_on_c, 10, 55, 80
11, 12570, Note_on_c, 10, 55, 0
11, 12570, Note_on_c, 10, 63, 0
11, 12570, Note_on_c, 10, 63, 62
11, 12570, Note_on_c, 10, 55, 78
11, 12600, Note_on_c, 10, 55, 0
11, 12600, Note_on_c, 10, 63, 0
11, 12600, Note_on_c, 10, 63, 63
11, 12600, Note_on_c, 10, 55, 84
11, 12630, Note_on_c, 10, 55, 0
11, 12630, Note_on_c, 10, 63, 0
11, 12630, Note_on_c, 10, 63, 64
11, 12630, Note_on_c, 10, 55, 82
11, 12660, Note_on_c, 10, 55, 0
11, 12660, Note_on_c, 10, 63, 0
11, 12660, Note_on_c, 10, 63, 64
11, 12660, Note_on_c, 10, 55, 76
11, 12690, Note_on_c, 10, 55, 0
11, 12690, Note_on_c, 10, 63, 0
11, 12690, Note_on_c, 10, 63, 68
11, 12690, Note_on_c, 10, 55, 84
11, 12720, Note_on_c, 10, 55, 0
11, 12720, Note_on_c, 10, 63, 0
11, 12720, Note_on_c, 10, 63, 65
11, 12720, Note_on_c, 10, 55, 77
11, 12750, Note_on_c, 10, 55, 0
11, 12750, Note_on_c, 10, 63, 0
11, 12750, Note_on_c, 10, 63, 67
11, 12750, Note_on_c, 10, 55, 80
11, 12780, Note_on_c, 10, 55, 0
11, 12780, Note_on_c, 10, 63, 0
11, 12780, Note_on_c, 10, 63, 67
11, 12780, Note_on_c, 10, 55, 80
11, 12810, Note_on_c, 10, 55, 0
11, 12810, Note_on_c, 10, 63, 0
11, 12810, Note_on_c, 10, 63, 66
11, 12810, Note_on_c, 10, 55, 77
11, 12840, Note_on_c, 10, 55, 0
11, 12840, Note_on_c, 10, 63, 0
11, 12840, Note_on_c, 10, 63, 50
11, 12840, Note_on_c, 10, 55, 73
11, 12870, Note_on_c, 10, 55, 0
11, 12870, Note_on_c, 10, 63, 0
11, 12870, Note_on_c, 10, 63, 46
11, 12870, Note_on_c, 10, 55, 74
11, 12900, Note_on_c, 10, 55, 0
11, 12900, Note_on_c, 10, 63, 0
11, 12900, Note_on_c, 10, 63, 68
11, 12900, Note_on_c, 10, 55, 76
11, 12930, Note_on_c, 10, 55, 0
11, 12930, Note_on_c, 10, 63, 0
11, 12930, Note_on_c, 10, 55, 86
11, 12930, Note_on_c, 10, 63, 48
11, 12960, Note_on_c, 10, 63, 0
11, 12960, Note_on_c, 10, 55, 0
11, 12960, Note_on_c, 10, 65, 81
11, 13020, Note_on_c, 10, 65, 0
11, 13020, Note_on_c, 10, 60, 93
11, 13080, Note_on_c, 10, 60, 0
11, 13080, Note_on_c, 10, 60, 86
11, 13140, Note_on_c, 10, 60, 0
11, 13140, Note_on_c, 10, 60, 82
11, 13200, Note_on_c, 10, 60, 0
11, 13200, Note_on_c, 10, 60, 86
11, 13260, Note_on_c, 10, 60, 0
11, 13260, Note_on_c, 10, 65, 80
11, 13260, Note_on_c, 10, 56, 77
11, 13320, Note_on_c, 10, 56, 0
11, 13320, Note_on_c, 10, 65, 0
11, 13320, Note_on_c, 10, 65, 84
11, 13320, Note_on_c, 10, 56, 85
11, 13380, Note_on_c, 10, 56, 0
11, 13380, Note_on_c, 10, 65, 0
11, 13380, Note_on_c, 10, 56, 84
11, 13380, Note_on_c, 10, 65, 81
11, 13440, Note_on_c, 10, 65, 0
11, 13440, Note_on_c, 10, 56, 0
11, 13440, Note_on_c, 10, 65, 82
11, 13440, Note_on_c, 10, 56, 85
11, 13500, Note_on_c, 10, 56, 0
11, 13500, Note_on_c, 10, 65, 0
11, 13500, Note_on_c, 10, 65, 72
11, 13500, Note_on_c, 10, 56, 80
11, 13560, Note_on_c, 10, 56, 0
11, 13560, Note_on_c, 10, 65, 0
11, 13560, Note_on_c, 10, 65, 78
11, 13560, Note_on_c, 10, 56, 90
11, 13620, Note_on_c, 10, 56, 0
11, 13620, Note_on_c, 10, 65, 0
11, 13620, Note_on_c, 10, 65, 84
11, 13620, Note_on_c, 10, 56, 86
11, 13680, Note_on_c, 10, 56, 0
11, 13680, Note_on_c, 10, 65, 0
11, 13680, Note_on_c, 10, 65, 84
11, 13680, Note_on_c, 10, 56, 85
11, 13740, Note_on_c, 10, 56, 0
11, 13740, Note_on_c, 10, 65, 0
11, 13740, Note_on_c, 10, 65, 84
11, 13740, Note_on_c, 10, 56, 86
11, 13800, Note_on_c, 10, 56, 0
11, 13800, Note_on_c, 10, 65, 0
11, 13800, Note_on_c, 10, 65, 82
11, 13800, Note_on_c, 10, 56, 84
11, 13860, Note_on_c, 10, 56, 0
11, 13860, Note_on_c, 10, 65, 0
11, 13860, Note_on_c, 10, 56, 89
11, 13860, Note_on_c, 10, 65, 69
11, 13920, Note_on_c, 10, 65, 0
11, 13920, Note_on_c, 10, 56, 0
11, 13920, Note_on_c, 10, 65, 101
11, 13920, Note_on_c, 10, 56, 98
11, 13950, Note_on_c, 10, 56, 0
11, 13950, Note_on_c, 10, 65, 0
11, 13950, Note_on_c, 10, 65, 99
11, 13950, Note_on_c, 10, 56, 99
11, 13980, Note_on_c, 10, 56, 0
11, 13980, Note_on_c, 10, 65, 0
11, 13980, Note_on_c, 10, 65, 89
11, 13980, Note_on_c, 10, 56, 89
11, 14010, Note_on_c, 10, 56, 0
11, 14010, Note_on_c, 10, 65, 0
11, 14010, Note_on_c, 10, 65, 68
11, 14010, Note_on_c, 10, 56, 85
11, 14040, Note_on_c, 10, 56, 0
11, 14040, Note_on_c, 10, 65, 0
11, 14040, Note_on_c, 10, 65, 62
11, 14040, Note_on_c, 10, 56, 72
11, 14070, Note_on_c, 10, 56, 0
11, 14070, Note_on_c, 10, 65, 0
11, 14070, Note_on_c, 10, 65, 78
11, 14070, Note_on_c, 10, 56, 86
11, 14100, Note_on_c, 10, 56, 0
11, 14100, Note_on_c, 10, 65, 0
11, 14100, Note_on_c, 10, 65, 70
11, 14100, Note_on_c, 10, 56, 72
11, 14130, Note_on_c, 10, 56, 0
11, 14130, Note_on_c, 10, 65, 0
11, 14130, Note_on_c, 10, 65, 61
11, 14130, Note_on_c, 10, 56, 68
11, 14160, Note_on_c, 10, 56, 0
11, 14160, Note_on_c, 10, 65, 0
11, 14160, Note_on_c, 10, 65, 65
11, 14160, Note_on_c, 10, 56, 78
11, 14190, Note_on_c, 10, 56, 0
11, 14190, Note_on_c, 10, 65, 0
11, 14190, Note_on_c, 10, 65, 69
11, 14190, Note_on_c, 10, 56, 77
11, 14220, Note_on_c, 10, 56, 0
11, 14220, Note_on_c, 10, 65, 0
11, 14220, Note_on_c, 10, 65, 62
11, 14220, Note_on_c, 10, 56, 84
11, 14250, Note_on_c, 10, 56, 0
11, 14250, Note_on_c, 10, 65, 0
11, 14250, Note_on_c, 10, 65, 81
11, 14250, Note_on_c, 10, 56, 84
11, 14280, Note_on_c, 10, 56, 0
11, 14280, Note_on_c, 10, 65, 0
11, 14280, Note_on_c, 10, 65, 84
11, 14280, Note_on_c, 10, 56, 84
11, 14310, Note_on_c, 10, 56, 0
11, 14310, Note_on_c, 10, 65, 0
11, 14310, Note_on_c, 10, 65, 74
11, 14310, Note_on_c, 10, 56, 82
11, 14340, Note_on_c, 10, 56, 0
11, 14340, Note_on_c, 10, 65, 0
11, 14340, Note_on_c, 10, 65, 80
11, 14340, Note_on_c, 10, 56, 85
11, 14370, Note_on_c, 10, 56, 0
11, 14370, Note_on_c, 10, 65, 0
11, 14370, Note_on_c, 10, 56, 85
11, 14370, Note_on_c, 10, 65, 66
11, 14400, Note_on_c, 10, 65, 0
11, 14400, Note_on_c, 10, 56, 0
11, 14400, Note_on_c, 10, 65, 80
11, 14400, Note_on_c, 10, 56, 85
11, 14430, Note_on_c, 10, 56, 0
11, 14430, Note_on_c, 10, 65, 0
11, 14430, Note_on_c, 10, 65, 81
11, 14430, Note_on_c, 10, 56, 93
11, 14460, Note_on_c, 10, 56, 0
11, 14460, Note_on_c, 10, 65, 0
11, 14460, Note_on_c, 10, 65, 72
11, 14460, Note_on_c, 10, 56, 81
11, 14490, Note_on_c, 10, 56, 0
11, 14490, Note_on_c, 10, 65, 0
11, 14490, Note_on_c, 10, 65, 84
11, 14490, Note_on_c, 10, 56, 84
11, 14520, Note_on_c, 10, 56, 0
11, 14520, Note_on_c, 10, 65, 0
11, 14520, Note_on_c, 10, 65, 76
11, 14520, Note_on_c, 10, 56, 84
11, 14550, Note_on_c, 10, 56, 0
11, 14550, Note_on_c, 10, 65, 0
11, 14550, Note_on_c, 10, 65, 68
11, 14550, Note_on_c, 10, 56, 85
11, 14580, Note_on_c, 10, 56, 0
11, 14580, Note_on_c, 10, 65, 0
11, 14580, Note_on_c, 10, 65, 77
11, 14580, Note_on_c, 10, 56, 80
11, 14610, Note_on_c, 10, 56, 0
11, 14610, Note_on_c, 10, 65, 0
11, 14610, Note_on_c, 10, 65, 72
11, 14610, Note_on_c, 10, 56, 82
11, 14640, Note_on_c, 10, 56, 0
11, 14640, Note_on_c, 10, 65, 0
11, 14640, Note_on_c, 10, 65, 73
11, 14640, Note_on_c, 10, 56, 89
11, 14670, Note_on_c, 10, 56, 0
11, 14670, Note_on_c, 10, 65, 0
11, 14670, Note_on_c, 10, 65, 76
11, 14670, Note_on_c, 10, 56, 81
11, 14700, Note_on_c, 10, 56, 0
11, 14700, Note_on_c, 10, 65, 0
11, 14700, Note_on_c, 10, 65, 78
11, 14700, Note_on_c, 10, 56, 85
11, 14730, Note_on_c, 10, 56, 0
11, 14730, Note_on_c, 10, 65, 0
11, 14730, Note_on_c, 10, 65, 80
11, 14730, Note_on_c, 10, 56, 89
11, 14760, Note_on_c, 10, 56, 0
11, 14760, Note_on_c, 10, 65, 0
11, 14760, Note_on_c, 10, 65, 74
11, 14760, Note_on_c, 10, 56, 77
11, 14790, Note_on_c, 10, 56, 0
11, 14790, Note_on_c, 10, 65, 0
11, 14790, Note_on_c, 10, 65, 80
11, 14790, Note_on_c, 10, 56, 86
11, 14820, Note_on_c, 10, 56, 0
11, 14820, Note_on_c, 10, 65, 0
11, 14820, Note_on_c, 10, 65, 80
11, 14820, Note_on_c, 10, 56, 89
11, 14850, Note_on_c, 10, 56, 0
11, 14850, Note_on_c, 10, 65, 0
11, 14850, Note_on_c, 10, 56, 89
11, 14850, Note_on_c, 10, 65, 74
11, 14880, Note_on_c, 10, 65, 0
11, 14880, Note_on_c, 10, 56, 0
11, 14880, Note_on_c, 10, 63, 78
11, 14880, Note_on_c, 10, 55, 98
11, 14910, Note_on_c, 10, 55, 0
11, 14910, Note_on_c, 10, 63, 0
11, 14910, Note_on_c, 10, 67, 77
11, 14910, Note_on_c, 10, 58, 81
11, 14940, Note_on_c, 10, 58, 0
11, 14940, Note_on_c, 10, 67, 0
11, 14940, Note_on_c, 10, 67, 62
11, 14940, Note_on_c, 10, 58, 76
11, 14970, Note_on_c, 10, 58, 0
11, 14970, Note_on_c, 10, 67, 0
11, 14970, Note_on_c, 10, 67, 77
11, 14970, Note_on_c, 10, 58, 84
11, 15000, Note_on_c, 10, 58, 0
11, 15000, Note_on_c, 10, 67, 0
11, 15000, Note_on_c, 10, 67, 81
11, 15000, Note_on_c, 10, 58, 89
11, 15030, Note_on_c, 10, 58, 0
11, 15030, Note_on_c, 10, 67, 0
11, 15030, Note_on_c, 10, 67, 76
11, 15030, Note_on_c, 10, 58, 84
11, 15060, Note_on_c, 10, 58, 0
11, 15060, Note_on_c, 10, 67, 0
11, 15060, Note_on_c, 10, 67, 77
11, 15060, Note_on_c, 10, 58, 78
11, 15090, Note_on_c, 10, 58, 0
11, 15090, Note_on_c, 10, 67, 0
11, 15090, Note_on_c, 10, 67, 78
11, 15090, Note_on_c, 10, 58, 84
11, 15120, Note_on_c, 10, 58, 0
11, 15120, Note_on_c, 10, 67, 0
11, 15120, Note_on_c, 10, 67, 76
11, 15120, Note_on_c, 10, 58, 85
11, 15150, Note_on_c, 10, 58, 0
11, 15150, Note_on_c, 10, 67, 0
11, 15150, Note_on_c, 10, 67, 80
11, 15150, Note_on_c, 10, 58, 82
11, 15180, Note_on_c, 10, 58, 0
11, 15180, Note_on_c, 10, 67, 0
11, 15180, Note_on_c, 10, 67, 81
11, 15180, Note_on_c, 10, 58, 85
11, 15210, Note_on_c, 10, 58, 0
11, 15210, Note_on_c, 10, 67, 0
11, 15210, Note_on_c, 10, 67, 82
11, 15210, Note_on_c, 10, 58, 85
11, 15240, Note_on_c, 10, 58, 0
11, 15240, Note_on_c, 10, 67, 0
11, 15240, Note_on_c, 10, 67, 81
11, 15240, Note_on_c, 10, 58, 89
11, 15270, Note_on_c, 10, 58, 0
11, 15270, Note_on_c, 10, 67, 0
11, 15270, Note_on_c, 10, 67, 80
11, 15270, Note_on_c, 10, 58, 86
11, 15300, Note_on_c, 10, 58, 0
11, 15300, Note_on_c, 10, 67, 0
11, 15300, Note_on_c, 10, 67, 82
11, 15300, Note_on_c, 10, 58, 84
11, 15330, Note_on_c, 10, 58, 0
11, 15330, Note_on_c, 10, 67, 0
11, 15330, Note_on_c, 10, 58, 89
11, 15330, Note_on_c, 10, 67, 82
11, 15360, Note_on_c, 10, 67, 0
11, 15360, Note_on_c, 10, 58, 0
11, 15360, Note_on_c, 10, 67, 82
11, 15360, Note_on_c, 10, 58, 86
11, 15390, Note_on_c, 10, 58, 0
11, 15390, Note_on_c, 10, 67, 0
11, 15390, Note_on_c, 10, 67, 84
11, 15390, Note_on_c, 10, 58, 90
11, 15420, Note_on_c, 10, 58, 0
11, 15420, Note_on_c, 10, 67, 0
11, 15420, Note_on_c, 10, 67, 81
11, 15420, Note_on_c, 10, 58, 86
11, 15450, Note_on_c, 10, 58, 0
11, 15450, Note_on_c, 10, 67, 0
11, 15450, Note_on_c, 10, 67, 82
11, 15450, Note_on_c, 10, 58, 85
11, 15480, Note_on_c, 10, 58, 0
11, 15480, Note_on_c, 10, 67, 0
11, 15480, Note_on_c, 10, 67, 80
11, 15480, Note_on_c, 10, 58, 85
11, 15510, Note_on_c, 10, 58, 0
11, 15510, Note_on_c, 10, 67, 0
11, 15510, Note_on_c, 10, 67, 84
11, 15510, Note_on_c, 10, 58, 89
11, 15540, Note_on_c, 10, 58, 0
11, 15540, Note_on_c, 10, 67, 0
11, 15540, Note_on_c, 10, 67, 81
11, 15540, Note_on_c, 10, 58, 84
11, 15570, Note_on_c, 10, 58, 0
11, 15570, Note_on_c, 10, 67, 0
11, 15570, Note_on_c, 10, 67, 85
11, 15570, Note_on_c, 10, 58, 90
11, 15600, Note_on_c, 10, 58, 0
11, 15600, Note_on_c, 10, 67, 0
11, 15600, Note_on_c, 10, 67, 77
11, 15600, Note_on_c, 10, 58, 85
11, 15630, Note_on_c, 10, 58, 0
11, 15630, Note_on_c, 10, 67, 0
11, 15630, Note_on_c, 10, 67, 80
11, 15630, Note_on_c, 10, 58, 89
11, 15660, Note_on_c, 10, 58, 0
11, 15660, Note_on_c, 10, 67, 0
11, 15660, Note_on_c, 10, 67, 81
11, 15660, Note_on_c, 10, 58, 90
11, 15690, Note_on_c, 10, 58, 0
11, 15690, Note_on_c, 10, 67, 0
11, 15690, Note_on_c, 10, 67, 73
11, 15690, Note_on_c, 10, 58, 89
11, 15720, Note_on_c, 10, 58, 0
11, 15720, Note_on_c, 10, 67, 0
11, 15720, Note_on_c, 10, 67, 80
11, 15720, Note_on_c, 10, 58, 86
11, 15750, Note_on_c, 10, 58, 0
11, 15750, Note_on_c, 10, 67, 0
11, 15750, Note_on_c, 10, 67, 84
11, 15750, Note_on_c, 10, 58, 84
11, 15780, Note_on_c, 10, 58, 0
11, 15780, Note_on_c, 10, 67, 0
11, 15780, Note_on_c, 10, 67, 84
11, 15780, Note_on_c, 10, 58, 89
11, 15810, Note_on_c, 10, 58, 0
11, 15810, Note_on_c, 10, 67, 0
11, 15810, Note_on_c, 10, 58, 90
11, 15810, Note_on_c, 10, 67, 89
11, 15840, Note_on_c, 10, 67, 0
11, 15840, Note_on_c, 10, 58, 0
11, 15840, Note_on_c, 10, 68, 76
11, 15840, Note_on_c, 10, 60, 84
11, 15870, Note_on_c, 10, 60, 0
11, 15870, Note_on_c, 10, 68, 0
11, 15870, Note_on_c, 10, 68, 82
11, 15870, Note_on_c, 10, 60, 95
11, 15900, Note_on_c, 10, 60, 0
11, 15900, Note_on_c, 10, 68, 0
11, 15900, Note_on_c, 10, 68, 76
11, 15900, Note_on_c, 10, 60, 94
11, 15930, Note_on_c, 10, 60, 0
11, 15930, Note_on_c, 10, 68, 0
11, 15930, Note_on_c, 10, 68, 76
11, 15930, Note_on_c, 10, 60, 94
11, 15960, Note_on_c, 10, 60, 0
11, 15960, Note_on_c, 10, 68, 0
11, 15960, Note_on_c, 10, 68, 82
11, 15960, Note_on_c, 10, 60, 98
11, 15990, Note_on_c, 10, 60, 0
11, 15990, Note_on_c, 10, 68, 0
11, 15990, Note_on_c, 10, 68, 80
11, 15990, Note_on_c, 10, 60, 93
11, 16020, Note_on_c, 10, 60, 0
11, 16020, Note_on_c, 10, 68, 0
11, 16020, Note_on_c, 10, 68, 77
11, 16020, Note_on_c, 10, 60, 93
11, 16050, Note_on_c, 10, 60, 0
11, 16050, Note_on_c, 10, 68, 0
11, 16050, Note_on_c, 10, 68, 80
11, 16050, Note_on_c, 10, 60, 94
11, 16080, Note_on_c, 10, 60, 0
11, 16080, Note_on_c, 10, 68, 0
11, 16080, Note_on_c, 10, 68, 78
11, 16080, Note_on_c, 10, 60, 94
11, 16110, Note_on_c, 10, 60, 0
11, 16110, Note_on_c, 10, 68, 0
11, 16110, Note_on_c, 10, 68, 76
11, 16110, Note_on_c, 10, 60, 93
11, 16140, Note_on_c, 10, 60, 0
11, 16140, Note_on_c, 10, 68, 0
11, 16140, Note_on_c, 10, 68, 76
11, 16140, Note_on_c, 10, 60, 94
11, 16170, Note_on_c, 10, 60, 0
11, 16170, Note_on_c, 10, 68, 0
11, 16170, Note_on_c, 10, 68, 73
11, 16170, Note_on_c, 10, 60, 94
11, 16200, Note_on_c, 10, 60, 0
11, 16200, Note_on_c, 10, 68, 0
11, 16200, Note_on_c, 10, 68, 77
11, 16200, Note_on_c, 10, 60, 94
11, 16230, Note_on_c, 10, 60, 0
11, 16230, Note_on_c, 10, 68, 0
11, 16230, Note_on_c, 10, 68, 76
11, 16230, Note_on_c, 10, 60, 90
11, 16260, Note_on_c, 10, 60, 0
11, 16260, Note_on_c, 10, 68, 0
11, 16260, Note_on_c, 10, 68, 76
11, 16260, Note_on_c, 10, 60, 94
11, 16290, Note_on_c, 10, 60, 0
11, 16290, Note_on_c, 10, 68, 0
11, 16290, Note_on_c, 10, 60, 94
11, 16290, Note_on_c, 10, 68, 84
11, 16320, Note_on_c, 10, 68, 0
11, 16320, Note_on_c, 10, 60, 0
11, 16320, Note_on_c, 10, 69, 101
11, 16350, Note_on_c, 10, 69, 0
11, 16350, Note_on_c, 10, 69, 101
11, 16380, Note_on_c, 10, 69, 0
11, 16380, Note_on_c, 10, 69, 99
11, 16410, Note_on_c, 10, 69, 0
11, 16410, Note_on_c, 10, 69, 94
11, 16440, Note_on_c, 10, 69, 0
11, 16440, Note_on_c, 10, 78, 89
11, 16470, Note_on_c, 10, 78, 0
11, 16470, Note_on_c, 10, 78, 89
11, 16500, Note_on_c, 10, 78, 0
11, 16500, Note_on_c, 10, 78, 84
11, 16530, Note_on_c, 10, 78, 0
11, 16530, Note_on_c, 10, 78, 95
11, 16560, Note_on_c, 10, 78, 0
11, 16560, Note_on_c, 10, 77, 95
11, 16590, Note_on_c, 10, 77, 0
11, 16590, Note_on_c, 10, 77, 98
11, 16620, Note_on_c, 10, 77, 0
11, 16620, Note_on_c, 10, 77, 98
11, 16650, Note_on_c, 10, 77, 0
11, 16650, Note_on_c, 10, 77, 99
11, 16680, Note_on_c, 10, 77, 0
11, 16680, Note_on_c, 10, 75, 99
11, 16710, Note_on_c, 10, 75, 0
11, 16710, Note_on_c, 10, 75, 105
11, 16740, Note_on_c, 10, 75, 0
11, 16740, Note_on_c, 10, 75, 104
11, 16770, Note_on_c, 10, 75, 0
11, 16770, Note_on_c, 10, 75, 101
11, 16800, Note_on_c, 10, 75, 0
11, 16800, Note_on_c, 10, 74, 95
11, 16860, Note_on_c, 10, 74, 0
11, 16920, Note_on_c, 10, 70, 119
11, 17160, Note_on_c, 10, 70, 0
11, 17160, Note_on_c, 10, 68, 81
11, 17280, Note_on_c, 10, 68, 0
11, 17280, Note_on_c, 10, 68, 85
11, 17340, Note_on_c, 10, 68, 0
11, 17400, Note_on_c, 10, 66, 115
11, 17640, Note_on_c, 10, 66, 0
11, 17640, Note_on_c, 10, 65, 84
11, 17700, Note_on_c, 10, 65, 0
11, 17700, Note_on_c, 10, 63, 80
11, 17760, Note_on_c, 10, 63, 0
11, 17760, Note_on_c, 10, 63, 76
11, 17820, Note_on_c, 10, 63, 0
11, 17880, Note_on_c, 10, 62, 105
11, 18120, Note_on_c, 10, 62, 0
11, 18120, Note_on_c, 10, 63, 84
11, 18180, Note_on_c, 10, 63, 0
11, 18180, Note_on_c, 10, 65, 86
11, 18240, Note_on_c, 10, 65, 0
11, 18240, Note_on_c, 10, 65, 95
11, 18300, Note_on_c, 10, 65, 0
11, 18360, Note_on_c, 10, 63, 105
11, 18600, Note_on_c, 10, 63, 0
11, 18600, Note_on_c, 10, 65, 89
11, 18660, Note_on_c, 10, 65, 0
11, 18660, Note_on_c, 10, 66, 89
11, 18720, Note_on_c, 10, 66, 0
11, 18720, Note_on_c, 10, 65, 72
11, 18780, Note_on_c, 10, 65, 0
11, 18780, Note_on_c, 10, 70, 89
11, 18840, Note_on_c, 10, 70, 0
11, 18840, Note_on_c, 10, 70, 94
11, 18870, Note_on_c, 10, 70, 0
11, 18900, Note_on_c, 10, 70, 85
11, 18930, Note_on_c, 10, 70, 0
11, 18960, Note_on_c, 10, 70, 84
11, 18990, Note_on_c, 10, 70, 0
11, 19020, Note_on_c, 10, 70, 90
11, 19050, Note_on_c, 10, 70, 0
11, 19080, Note_on_c, 10, 70, 86
11, 19110, Note_on_c, 10, 70, 0
11, 19140, Note_on_c, 10, 68, 82
11, 19170, Note_on_c, 10, 68, 0
11, 19200, Note_on_c, 10, 68, 86
11, 19260, Note_on_c, 10, 68, 0
11, 19260, Note_on_c, 10, 66, 85
11, 19320, Note_on_c, 10, 66, 0
11, 19320, Note_on_c, 10, 66, 94
11, 19350, Note_on_c, 10, 66, 0
11, 19380, Note_on_c, 10, 66, 81
11, 19410, Note_on_c, 10, 66, 0
11, 19440, Note_on_c, 10, 66, 81
11, 19470, Note_on_c, 10, 66, 0
11, 19500, Note_on_c, 10, 66, 86
11, 19530, Note_on_c, 10, 66, 0
11, 19560, Note_on_c, 10, 65, 94
11, 19590, Note_on_c, 10, 65, 0
11, 19620, Note_on_c, 10, 63, 84
11, 19650, Note_on_c, 10, 63, 0
11, 19680, Note_on_c, 10, 63, 89
11, 19740, Note_on_c, 10, 63, 0
11, 19740, Note_on_c, 10, 62, 84
11, 19800, Note_on_c, 10, 62, 0
11, 19800, Note_on_c, 10, 62, 99
11, 19830, Note_on_c, 10, 62, 0
11, 19860, Note_on_c, 10, 62, 82
11, 19890, Note_on_c, 10, 62, 0
11, 19920, Note_on_c, 10, 62, 85
11, 19950, Note_on_c, 10, 62, 0
11, 19980, Note_on_c, 10, 62, 86
11, 20010, Note_on_c, 10, 62, 0
11, 20040, Note_on_c, 10, 63, 86
11, 20070, Note_on_c, 10, 63, 0
11, 20100, Note_on_c, 10, 65, 90
11, 20130, Note_on_c, 10, 65, 0
11, 20160, Note_on_c, 10, 65, 85
11, 20220, Note_on_c, 10, 65, 0
11, 20220, Note_on_c, 10, 63, 81
11, 20280, Note_on_c, 10, 63, 0
11, 20280, Note_on_c, 10, 63, 98
11, 20310, Note_on_c, 10, 63, 0
11, 20340, Note_on_c, 10, 63, 80
11, 20370, Note_on_c, 10, 63, 0
11, 20400, Note_on_c, 10, 63, 89
11, 20430, Note_on_c, 10, 63, 0
11, 20460, Note_on_c, 10, 63, 89
11, 20490, Note_on_c, 10, 63, 0
11, 20520, Note_on_c, 10, 65, 93
11, 20550, Note_on_c, 10, 65, 0
11, 20580, Note_on_c, 10, 66, 84
11, 20610, Note_on_c, 10, 66, 0
11, 20640, Note_on_c, 10, 62, 93
11, 20670, Note_on_c, 10, 62, 0
11, 20670, Note_on_c, 10, 74, 84
11, 20700, Note_on_c, 10, 74, 0
11, 20700, Note_on_c, 10, 74, 81
11, 20730, Note_on_c, 10, 74, 0
11, 20730, Note_on_c, 10, 74, 81
11, 20760, Note_on_c, 10, 74, 0
11, 20760, Note_on_c, 10, 74, 85
11, 20790, Note_on_c, 10, 74, 0
11, 20790, Note_on_c, 10, 74, 86
11, 20820, Note_on_c, 10, 74, 0
11, 20820, Note_on_c, 10, 74, 89
11, 20850, Note_on_c, 10, 74, 0
11, 20850, Note_on_c, 10, 74, 93
11, 20880, Note_on_c, 10, 74, 0
11, 20880, Note_on_c, 10, 75, 110
11, 20910, Note_on_c, 10, 75, 0
11, 20910, Note_on_c, 10, 75, 101
11, 20940, Note_on_c, 10, 75, 0
11, 20940, Note_on_c, 10, 75, 84
11, 20970, Note_on_c, 10, 75, 0
11, 20970, Note_on_c, 10, 75, 84
11, 21000, Note_on_c, 10, 75, 0
11, 21000, Note_on_c, 10, 75, 85
11, 21030, Note_on_c, 10, 75, 0
11, 21030, Note_on_c, 10, 75, 82
11, 21060, Note_on_c, 10, 75, 0
11, 21060, Note_on_c, 10, 75, 86
11, 21090, Note_on_c, 10, 75, 0
11, 21090, Note_on_c, 10, 75, 90
11, 21120, Note_on_c, 10, 75, 0
11, 21120, Note_on_c, 10, 74, 95
11, 21150, Note_on_c, 10, 74, 0
11, 21150, Note_on_c, 10, 74, 99
11, 21180, Note_on_c, 10, 74, 0
11, 21180, Note_on_c, 10, 74, 89
11, 21210, Note_on_c, 10, 74, 0
11, 21210, Note_on_c, 10, 74, 94
11, 21240, Note_on_c, 10, 74, 0
11, 21240, Note_on_c, 10, 74, 90
11, 21270, Note_on_c, 10, 74, 0
11, 21270, Note_on_c, 10, 74, 89
11, 21300, Note_on_c, 10, 74, 0
11, 21300, Note_on_c, 10, 74, 93
11, 21330, Note_on_c, 10, 74, 0
11, 21330, Note_on_c, 10, 74, 95
11, 21360, Note_on_c, 10, 74, 0
11, 21360, Note_on_c, 10, 75, 85
11, 21390, Note_on_c, 10, 75, 0
11, 21390, Note_on_c, 10, 75, 86
11, 21420, Note_on_c, 10, 75, 0
11, 21420, Note_on_c, 10, 75, 84
11, 21450, Note_on_c, 10, 75, 0
11, 21450, Note_on_c, 10, 75, 94
11, 21480, Note_on_c, 10, 75, 0
11, 21480, Note_on_c, 10, 75, 90
11, 21510, Note_on_c, 10, 75, 0
11, 21510, Note_on_c, 10, 75, 86
11, 21540, Note_on_c, 10, 75, 0
11, 21540, Note_on_c, 10, 75, 89
11, 21570, Note_on_c, 10, 75, 0
11, 21570, Note_on_c, 10, 75, 89
11, 21600, Note_on_c, 10, 75, 0
11, 21600, Note_on_c, 10, 74, 94
11, 21630, Note_on_c, 10, 74, 0
11, 21630, Note_on_c, 10, 74, 85
11, 21660, Note_on_c, 10, 74, 0
11, 21660, Note_on_c, 10, 74, 94
11, 21690, Note_on_c, 10, 74, 0
11, 21690, Note_on_c, 10, 74, 99
11, 21720, Note_on_c, 10, 74, 0
11, 21720, Note_on_c, 10, 75, 117
11, 21750, Note_on_c, 10, 75, 0
11, 21750, Note_on_c, 10, 75, 99
11, 21780, Note_on_c, 10, 75, 0
11, 21780, Note_on_c, 10, 75, 89
11, 21810, Note_on_c, 10, 75, 0
11, 21810, Note_on_c, 10, 75, 89
11, 21840, Note_on_c, 10, 75, 0
11, 21840, Note_on_c, 10, 74, 86
11, 21870, Note_on_c, 10, 74, 0
11, 21870, Note_on_c, 10, 74, 94
11, 21900, Note_on_c, 10, 74, 0
11, 21900, Note_on_c, 10, 74, 84
11, 21930, Note_on_c, 10, 74, 0
11, 21930, Note_on_c, 10, 74, 90
11, 21960, Note_on_c, 10, 74, 0
11, 21960, Note_on_c, 10, 75, 93
11, 21990, Note_on_c, 10, 75, 0
11, 21990, Note_on_c, 10, 75, 81
11, 22020, Note_on_c, 10, 75, 0
11, 22020, Note_on_c, 10, 75, 86
11, 22050, Note_on_c, 10, 75, 0
11, 22050, Note_on_c, 10, 75, 86
11, 22080, Note_on_c, 10, 75, 0
11, 22080, Note_on_c, 10, 74, 89
11, 22110, Note_on_c, 10, 74, 0
11, 22110, Note_on_c, 10, 74, 82
11, 22140, Note_on_c, 10, 74, 0
11, 22140, Note_on_c, 10, 74, 89
11, 22170, Note_on_c, 10, 74, 0
11, 22170, Note_on_c, 10, 74, 94
11, 22200, Note_on_c, 10, 74, 0
11, 22200, Note_on_c, 10, 75, 115
11, 22230, Note_on_c, 10, 75, 0
11, 22230, Note_on_c, 10, 75, 98
11, 22260, Note_on_c, 10, 75, 0
11, 22260, Note_on_c, 10, 75, 81
11, 22290, Note_on_c, 10, 75, 0
11, 22290, Note_on_c, 10, 75, 84
11, 22320, Note_on_c, 10, 75, 0
11, 22320, Note_on_c, 10, 74, 90
11, 22350, Note_on_c, 10, 74, 0
11, 22350, Note_on_c, 10, 74, 74
11, 22380, Note_on_c, 10, 74, 0
11, 22380, Note_on_c, 10, 74, 84
11, 22410, Note_on_c, 10, 74, 0
11, 22410, Note_on_c, 10, 74, 81
11, 22440, Note_on_c, 10, 74, 0
11, 22440, Note_on_c, 10, 75, 89
11, 22470, Note_on_c, 10, 75, 0
11, 22470, Note_on_c, 10, 75, 89
11, 22500, Note_on_c, 10, 75, 0
11, 22500, Note_on_c, 10, 75, 90
11, 22530, Note_on_c, 10, 75, 0
11, 22530, Note_on_c, 10, 75, 93
11, 22560, Note_on_c, 10, 75, 0
11, 22560, Note_on_c, 10, 74, 72
11, 22680, Note_on_c, 10, 74, 0
11, 23520, Note_on_c, 10, 58, 76
11, 23580, Note_on_c, 10, 58, 0
11, 23580, Note_on_c, 10, 63, 72
11, 23640, Note_on_c, 10, 63, 0
11, 23640, Note_on_c, 10, 58, 78
11, 23700, Note_on_c, 10, 58, 0
11, 23700, Note_on_c, 10, 55, 84
11, 23760, Note_on_c, 10, 55, 0
11, 23760, Note_on_c, 10, 56, 84
11, 23820, Note_on_c, 10, 56, 0
11, 23820, Note_on_c, 10, 62, 62
11, 23880, Note_on_c, 10, 62, 0
11, 23880, Note_on_c, 10, 58, 71
11, 23940, Note_on_c, 10, 58, 0
11, 23940, Note_on_c, 10, 56, 65
11, 24000, Note_on_c, 10, 56, 0
11, 24000, Note_on_c, 10, 55, 84
11, 24060, Note_on_c, 10, 55, 0
11, 24060, Note_on_c, 10, 58, 76
11, 24120, Note_on_c, 10, 58, 0
11, 24120, Note_on_c, 10, 63, 73
11, 24180, Note_on_c, 10, 63, 0
11, 24180, Note_on_c, 10, 67, 69
11, 24240, Note_on_c, 10, 67, 0
11, 24240, Note_on_c, 10, 70, 61
11, 24300, Note_on_c, 10, 70, 0
11, 24300, Note_on_c, 10, 67, 84
11, 24360, Note_on_c, 10, 67, 0
11, 24360, Note_on_c, 10, 65, 76
11, 24420, Note_on_c, 10, 65, 0
11, 24420, Note_on_c, 10, 63, 77
11, 24480, Note_on_c, 10, 63, 0
11, 24480, Note_on_c, 10, 62, 68
11, 24540, Note_on_c, 10, 62, 0
11, 24540, Note_on_c, 10, 58, 65
11, 24600, Note_on_c, 10, 58, 0
11, 24600, Note_on_c, 10, 56, 74
11, 24660, Note_on_c, 10, 56, 0
11, 24660, Note_on_c, 10, 58, 69
11, 24720, Note_on_c, 10, 58, 0
11, 24720, Note_on_c, 10, 56, 74
11, 24780, Note_on_c, 10, 56, 0
11, 24780, Note_on_c, 10, 58, 74
11, 24840, Note_on_c, 10, 58, 0
11, 24840, Note_on_c, 10, 62, 60
11, 24900, Note_on_c, 10, 62, 0
11, 24900, Note_on_c, 10, 58, 72
11, 24960, Note_on_c, 10, 58, 0
11, 24960, Note_on_c, 10, 62, 69
11, 25020, Note_on_c, 10, 62, 0
11, 25020, Note_on_c, 10, 58, 74
11, 25080, Note_on_c, 10, 58, 0
11, 25080, Note_on_c, 10, 56, 69
11, 25140, Note_on_c, 10, 56, 0
11, 25140, Note_on_c, 10, 58, 76
11, 25200, Note_on_c, 10, 58, 0
11, 25200, Note_on_c, 10, 55, 73
11, 25260, Note_on_c, 10, 55, 0
11, 25260, Note_on_c, 10, 58, 81
11, 25320, Note_on_c, 10, 58, 0
11, 25320, Note_on_c, 10, 63, 72
11, 25380, Note_on_c, 10, 63, 0
11, 25380, Note_on_c, 10, 67, 68
11, 25440, Note_on_c, 10, 67, 0
11, 25440, Note_on_c, 10, 63, 84
11, 25470, Note_on_c, 10, 63, 0
11, 25500, Note_on_c, 10, 63, 85
11, 25560, Note_on_c, 10, 63, 0
11, 25560, Note_on_c, 10, 62, 84
11, 25620, Note_on_c, 10, 62, 0
11, 25620, Note_on_c, 10, 63, 81
11, 25680, Note_on_c, 10, 63, 0
11, 25680, Note_on_c, 10, 63, 81
11, 25710, Note_on_c, 10, 63, 0
11, 25740, Note_on_c, 10, 63, 81
11, 25800, Note_on_c, 10, 63, 0
11, 25800, Note_on_c, 10, 62, 81
11, 25860, Note_on_c, 10, 62, 0
11, 25860, Note_on_c, 10, 63, 82
11, 25920, Note_on_c, 10, 63, 0
11, 25920, Note_on_c, 10, 63, 80
11, 25950, Note_on_c, 10, 63, 0
11, 25980, Note_on_c, 10, 63, 81
11, 26040, Note_on_c, 10, 63, 0
11, 26040, Note_on_c, 10, 62, 81
11, 26100, Note_on_c, 10, 62, 0
11, 26100, Note_on_c, 10, 63, 81
11, 26160, Note_on_c, 10, 63, 0
11, 26160, Note_on_c, 10, 63, 78
11, 26190, Note_on_c, 10, 63, 0
11, 26220, Note_on_c, 10, 63, 84
11, 26280, Note_on_c, 10, 63, 0
11, 26280, Note_on_c, 10, 64, 89
11, 26340, Note_on_c, 10, 64, 0
11, 26340, Note_on_c, 10, 64, 89
11, 26400, Note_on_c, 10, 64, 0
11, 26400, Note_on_c, 10, 65, 84
11, 26460, Note_on_c, 10, 65, 0
11, 26460, Note_on_c, 10, 63, 81
11, 26520, Note_on_c, 10, 63, 0
11, 26520, Note_on_c, 10, 62, 74
11, 26580, Note_on_c, 10, 62, 0
11, 26580, Note_on_c, 10, 65, 84
11, 26640, Note_on_c, 10, 65, 0
11, 26640, Note_on_c, 10, 63, 81
11, 26700, Note_on_c, 10, 63, 0
11, 26700, Note_on_c, 10, 61, 72
11, 26760, Note_on_c, 10, 61, 0
11, 26760, Note_on_c, 10, 60, 89
11, 26820, Note_on_c, 10, 60, 0
11, 26820, Note_on_c, 10, 65, 81
11, 26880, Note_on_c, 10, 65, 0
11, 26880, Note_on_c, 10, 55, 78
11, 26940, Note_on_c, 10, 55, 0
11, 26940, Note_on_c, 10, 57, 98
11, 27000, Note_on_c, 10, 57, 0
11, 27000, Note_on_c, 10, 58, 78
11, 27060, Note_on_c, 10, 58, 0
11, 27060, Note_on_c, 10, 56, 85
11, 27120, Note_on_c, 10, 56, 0
11, 27120, Note_on_c, 10, 58, 85
11, 27180, Note_on_c, 10, 58, 0
11, 27180, Note_on_c, 10, 60, 73
11, 27240, Note_on_c, 10, 60, 0
11, 27240, Note_on_c, 10, 58, 80
11, 27300, Note_on_c, 10, 58, 0
11, 27300, Note_on_c, 10, 56, 81
11, 27360, Note_on_c, 10, 56, 0
11, 27360, Note_on_c, 10, 67, 52
11, 27600, Note_on_c, 10, 67, 0
11, 27600, Note_on_c, 10, 65, 58
11, 27660, Note_on_c, 10, 65, 0
11, 27660, Note_on_c, 10, 67, 44
11, 27720, Note_on_c, 10, 67, 0
11, 27720, Note_on_c, 10, 68, 64
11, 27780, Note_on_c, 10, 68, 0
11, 27780, Note_on_c, 10, 65, 46
11, 27840, Note_on_c, 10, 65, 0
11, 27840, Note_on_c, 10, 63, 43
11, 28080, Note_on_c, 10, 63, 0
11, 28080, Note_on_c, 10, 62, 41
11, 28140, Note_on_c, 10, 62, 0
11, 28140, Note_on_c, 10, 63, 45
11, 28200, Note_on_c, 10, 63, 0
11, 28200, Note_on_c, 10, 65, 49
11, 28260, Note_on_c, 10, 65, 0
11, 28260, Note_on_c, 10, 62, 42
11, 28320, Note_on_c, 10, 62, 0
11, 28320, Note_on_c, 10, 60, 52
11, 28380, Note_on_c, 10, 60, 0
11, 28380, Note_on_c, 10, 72, 45
11, 28440, Note_on_c, 10, 72, 0
11, 28440, Note_on_c, 10, 72, 37
11, 28500, Note_on_c, 10, 72, 0
11, 28500, Note_on_c, 10, 72, 45
11, 28560, Note_on_c, 10, 72, 0
11, 28560, Note_on_c, 10, 72, 36
11, 28620, Note_on_c, 10, 72, 0
11, 28620, Note_on_c, 10, 72, 36
11, 28680, Note_on_c, 10, 72, 0
11, 28680, Note_on_c, 10, 72, 43
11, 28740, Note_on_c, 10, 72, 0
11, 28740, Note_on_c, 10, 72, 45
11, 28800, Note_on_c, 10, 72, 0
11, 28800, Note_on_c, 10, 71, 58
11, 28920, Note_on_c, 10, 71, 0
11, 28920, Note_on_c, 10, 71, 76
11, 29040, Note_on_c, 10, 71, 0
11, 29040, Note_on_c, 10, 72, 64
11, 29160, Note_on_c, 10, 72, 0
11, 29160, Note_on_c, 10, 74, 76
11, 29280, Note_on_c, 10, 74, 0
11, 29280, Note_on_c, 10, 76, 68
11, 29340, Note_on_c, 10, 76, 0
11, 29340, Note_on_c, 10, 67, 59
11, 29400, Note_on_c, 10, 67, 0
11, 29400, Note_on_c, 10, 72, 68
11, 29460, Note_on_c, 10, 72, 0
11, 29460, Note_on_c, 10, 67, 63
11, 29520, Note_on_c, 10, 67, 0
11, 29520, Note_on_c, 10, 71, 74
11, 29580, Note_on_c, 10, 71, 0
11, 29580, Note_on_c, 10, 67, 50
11, 29640, Note_on_c, 10, 67, 0
11, 29640, Note_on_c, 10, 65, 64
11, 29700, Note_on_c, 10, 65, 0
11, 29700, Note_on_c, 10, 67, 57
11, 29760, Note_on_c, 10, 67, 0
11, 29760, Note_on_c, 10, 64, 71
11, 29820, Note_on_c, 10, 64, 0
11, 29820, Note_on_c, 10, 67, 56
11, 29880, Note_on_c, 10, 67, 0
11, 29880, Note_on_c, 10, 64, 72
11, 29940, Note_on_c, 10, 64, 0
11, 29940, Note_on_c, 10, 67, 50
11, 30000, Note_on_c, 10, 67, 0
11, 30000, Note_on_c, 10, 64, 72
11, 30060, Note_on_c, 10, 64, 0
11, 30060, Note_on_c, 10, 67, 64
11, 30120, Note_on_c, 10, 67, 0
11, 30120, Note_on_c, 10, 64, 73
11, 30180, Note_on_c, 10, 64, 0
11, 30180, Note_on_c, 10, 60, 45
11, 30240, Note_on_c, 10, 60, 0
11, 30240, Note_on_c, 10, 62, 72
11, 30300, Note_on_c, 10, 62, 0
11, 30300, Note_on_c, 10, 67, 64
11, 30360, Note_on_c, 10, 67, 0
11, 30360, Note_on_c, 10, 62, 73
11, 30420, Note_on_c, 10, 62, 0
11, 30420, Note_on_c, 10, 67, 71
11, 30480, Note_on_c, 10, 67, 0
11, 30480, Note_on_c, 10, 65, 70
11, 30540, Note_on_c, 10, 65, 0
11, 30540, Note_on_c, 10, 67, 67
11, 30600, Note_on_c, 10, 67, 0
11, 30600, Note_on_c, 10, 65, 72
11, 30660, Note_on_c, 10, 65, 0
11, 30660, Note_on_c, 10, 67, 68
11, 30720, Note_on_c, 10, 67, 0
11, 30720, Note_on_c, 10, 65, 65
11, 30780, Note_on_c, 10, 65, 0
11, 30780, Note_on_c, 10, 67, 62
11, 30840, Note_on_c, 10, 67, 0
11, 30840, Note_on_c, 10, 65, 73
11, 30900, Note_on_c, 10, 65, 0
11, 30900, Note_on_c, 10, 67, 64
11, 30960, Note_on_c, 10, 67, 0
11, 30960, Note_on_c, 10, 64, 81
11, 31020, Note_on_c, 10, 64, 0
11, 31020, Note_on_c, 10, 67, 71
11, 31080, Note_on_c, 10, 67, 0
11, 31080, Note_on_c, 10, 72, 63
11, 31140, Note_on_c, 10, 72, 0
11, 31140, Note_on_c, 10, 72, 76
11, 31200, Note_on_c, 10, 72, 0
11, 31200, Note_on_c, 10, 65, 93
11, 31440, Note_on_c, 10, 65, 0
11, 31440, Note_on_c, 10, 64, 74
11, 31560, Note_on_c, 10, 64, 0
11, 31620, Note_on_c, 10, 60, 45
11, 31680, Note_on_c, 10, 60, 0
11, 31680, Note_on_c, 10, 69, 84
11, 31920, Note_on_c, 10, 69, 0
11, 31920, Note_on_c, 10, 67, 61
11, 32040, Note_on_c, 10, 67, 0
11, 32100, Note_on_c, 10, 74, 70
11, 32160, Note_on_c, 10, 74, 0
11, 32160, Note_on_c, 10, 72, 45
11, 32220, Note_on_c, 10, 72, 0
11, 32280, Note_on_c, 10, 72, 81
11, 32340, Note_on_c, 10, 72, 0
11, 32400, Note_on_c, 10, 72, 74
11, 32460, Note_on_c, 10, 72, 0
11, 32460, Note_on_c, 10, 71, 80
11, 32520, Note_on_c, 10, 71, 0
11, 32520, Note_on_c, 10, 69, 76
11, 32580, Note_on_c, 10, 69, 0
11, 32580, Note_on_c, 10, 71, 76
11, 32640, Note_on_c, 10, 71, 0
11, 32640, Note_on_c, 10, 71, 80
11, 32880, Note_on_c, 10, 71, 0
11, 32880, Note_on_c, 10, 72, 70
11, 33000, Note_on_c, 10, 72, 0
11, 33120, Note_on_c, 10, 65, 78
11, 33150, Note_on_c, 10, 65, 0
11, 33150, Note_on_c, 10, 65, 73
11, 33180, Note_on_c, 10, 65, 0
11, 33180, Note_on_c, 10, 65, 78
11, 33210, Note_on_c, 10, 65, 0
11, 33210, Note_on_c, 10, 65, 80
11, 33240, Note_on_c, 10, 65, 0
11, 33240, Note_on_c, 10, 65, 78
11, 33270, Note_on_c, 10, 65, 0
11, 33270, Note_on_c, 10, 65, 76
11, 33300, Note_on_c, 10, 65, 0
11, 33300, Note_on_c, 10, 65, 77
11, 33330, Note_on_c, 10, 65, 0
11, 33330, Note_on_c, 10, 65, 72
11, 33360, Note_on_c, 10, 65, 0
11, 33360, Note_on_c, 10, 67, 74
11, 33390, Note_on_c, 10, 67, 0
11, 33390, Note_on_c, 10, 67, 74
11, 33420, Note_on_c, 10, 67, 0
11, 33420, Note_on_c, 10, 67, 68
11, 33450, Note_on_c, 10, 67, 0
11, 33450, Note_on_c, 10, 67, 69
11, 33480, Note_on_c, 10, 67, 0
11, 33480, Note_on_c, 10, 67, 63
11, 33510, Note_on_c, 10, 67, 0
11, 33510, Note_on_c, 10, 67, 66
11, 33540, Note_on_c, 10, 67, 0
11, 33540, Note_on_c, 10, 67, 68
11, 33570, Note_on_c, 10, 67, 0
11, 33570, Note_on_c, 10, 67, 71
11, 33600, Note_on_c, 10, 67, 0
11, 33600, Note_on_c, 10, 68, 76
11, 33630, Note_on_c, 10, 68, 0
11, 33630, Note_on_c, 10, 68, 73
11, 33660, Note_on_c, 10, 68, 0
11, 33660, Note_on_c, 10, 68, 80
11, 33690, Note_on_c, 10, 68, 0
11, 33690, Note_on_c, 10, 68, 74
11, 33720, Note_on_c, 10, 68, 0
11, 33720, Note_on_c, 10, 68, 77
11, 33750, Note_on_c, 10, 68, 0
11, 33750, Note_on_c, 10, 68, 73
11, 33780, Note_on_c, 10, 68, 0
11, 33780, Note_on_c, 10, 68, 74
11, 33810, Note_on_c, 10, 68, 0
11, 33810, Note_on_c, 10, 68, 89
11, 33840, Note_on_c, 10, 68, 0
11, 33840, Note_on_c, 10, 72, 66
11, 33870, Note_on_c, 10, 72, 0
11, 33870, Note_on_c, 10, 72, 64
11, 33900, Note_on_c, 10, 72, 0
11, 33900, Note_on_c, 10, 72, 63
11, 33930, Note_on_c, 10, 72, 0
11, 33930, Note_on_c, 10, 72, 68
11, 33960, Note_on_c, 10, 72, 0
11, 33960, Note_on_c, 10, 72, 70
11, 33990, Note_on_c, 10, 72, 0
11, 33990, Note_on_c, 10, 72, 72
11, 34020, Note_on_c, 10, 72, 0
11, 34020, Note_on_c, 10, 72, 74
11, 34050, Note_on_c, 10, 72, 0
11, 34050, Note_on_c, 10, 72, 73
11, 34080, Note_on_c, 10, 72, 0
11, 34080, Note_on_c, 10, 72, 73
11, 34110, Note_on_c, 10, 72, 0
11, 34110, Note_on_c, 10, 72, 72
11, 34140, Note_on_c, 10, 72, 0
11, 34140, Note_on_c, 10, 72, 74
11, 34170, Note_on_c, 10, 72, 0
11, 34170, Note_on_c, 10, 72, 74
11, 34200, Note_on_c, 10, 72, 0
11, 34200, Note_on_c, 10, 72, 74
11, 34230, Note_on_c, 10, 72, 0
11, 34230, Note_on_c, 10, 72, 78
11, 34260, Note_on_c, 10, 72, 0
11, 34260, Note_on_c, 10, 72, 81
11, 34290, Note_on_c, 10, 72, 0
11, 34290, Note_on_c, 10, 72, 76
11, 34320, Note_on_c, 10, 72, 0
11, 34320, Note_on_c, 10, 71, 86
11, 34350, Note_on_c, 10, 71, 0
11, 34350, Note_on_c, 10, 71, 82
11, 34380, Note_on_c, 10, 71, 0
11, 34380, Note_on_c, 10, 71, 89
11, 34410, Note_on_c, 10, 71, 0
11, 34410, Note_on_c, 10, 71, 89
11, 34440, Note_on_c, 10, 71, 0
11, 34440, Note_on_c, 10, 71, 93
11, 34470, Note_on_c, 10, 71, 0
11, 34470, Note_on_c, 10, 71, 95
11, 34500, Note_on_c, 10, 71, 0
11, 34500, Note_on_c, 10, 71, 94
11, 34530, Note_on_c, 10, 71, 0
11, 34530, Note_on_c, 10, 71, 94
11, 34560, Note_on_c, 10, 71, 0
11, 34560, Note_on_c, 10, 72, 78
11, 34590, Note_on_c, 10, 72, 0
11, 34590, Note_on_c, 10, 72, 77
11, 34620, Note_on_c, 10, 72, 0
11, 34620, Note_on_c, 10, 72, 71
11, 34650, Note_on_c, 10, 72, 0
11, 34650, Note_on_c, 10, 72, 73
11, 34680, Note_on_c, 10, 72, 0
11, 34680, Note_on_c, 10, 68, 95
11, 34710, Note_on_c, 10, 68, 0
11, 34710, Note_on_c, 10, 68, 89
11, 34740, Note_on_c, 10, 68, 0
11, 34740, Note_on_c, 10, 68, 95
11, 34770, Note_on_c, 10, 68, 0
11, 34770, Note_on_c, 10, 68, 94
11, 34800, Note_on_c, 10, 68, 0
11, 34800, Note_on_c, 10, 67, 86
11, 34830, Note_on_c, 10, 67, 0
11, 34830, Note_on_c, 10, 67, 89
11, 34860, Note_on_c, 10, 67, 0
11, 34860, Note_on_c, 10, 67, 93
11, 34890, Note_on_c, 10, 67, 0
11, 34890, Note_on_c, 10, 67, 95
11, 34920, Note_on_c, 10, 67, 0
11, 34920, Note_on_c, 10, 62, 89
11, 34950, Note_on_c, 10, 62, 0
11, 34950, Note_on_c, 10, 62, 90
11, 34980, Note_on_c, 10, 62, 0
11, 34980, Note_on_c, 10, 62, 89
11, 35010, Note_on_c, 10, 62, 0
11, 35010, Note_on_c, 10, 62, 94
11, 35040, Note_on_c, 10, 62, 0
11, 35040, Note_on_c, 10, 60, 101
11, 35070, Note_on_c, 10, 60, 0
11, 35070, Note_on_c, 10, 64, 70
11, 35070, Note_on_c, 10, 55, 77
11, 35100, Note_on_c, 10, 55, 0
11, 35100, Note_on_c, 10, 64, 0
11, 35100, Note_on_c, 10, 64, 62
11, 35100, Note_on_c, 10, 55, 63
11, 35130, Note_on_c, 10, 55, 0
11, 35130, Note_on_c, 10, 64, 0
11, 35130, Note_on_c, 10, 64, 43
11, 35130, Note_on_c, 10, 55, 43
11, 35160, Note_on_c, 10, 55, 0
11, 35160, Note_on_c, 10, 64, 0
11, 35160, Note_on_c, 10, 64, 42
11, 35160, Note_on_c, 10, 55, 40
11, 35190, Note_on_c, 10, 55, 0
11, 35190, Note_on_c, 10, 64, 0
11, 35190, Note_on_c, 10, 64, 44
11, 35190, Note_on_c, 10, 55, 43
11, 35220, Note_on_c, 10, 55, 0
11, 35220, Note_on_c, 10, 64, 0
11, 35220, Note_on_c, 10, 64, 43
11, 35220, Note_on_c, 10, 55, 43
11, 35250, Note_on_c, 10, 55, 0
11, 35250, Note_on_c, 10, 64, 0
11, 35250, Note_on_c, 10, 64, 43
11, 35250, Note_on_c, 10, 55, 44
11, 35280, Note_on_c, 10, 55, 0
11, 35280, Note_on_c, 10, 64, 0
11, 35280, Note_on_c, 10, 64, 45
11, 35280, Note_on_c, 10, 55, 43
11, 35310, Note_on_c, 10, 55, 0
11, 35310, Note_on_c, 10, 64, 0
11, 35310, Note_on_c, 10, 64, 44
11, 35310, Note_on_c, 10, 55, 43
11, 35340, Note_on_c, 10, 55, 0
11, 35340, Note_on_c, 10, 64, 0
11, 35340, Note_on_c, 10, 64, 43
11, 35340, Note_on_c, 10, 55, 43
11, 35370, Note_on_c, 10, 55, 0
11, 35370, Note_on_c, 10, 64, 0
11, 35370, Note_on_c, 10, 64, 42
11, 35370, Note_on_c, 10, 55, 42
11, 35400, Note_on_c, 10, 55, 0
11, 35400, Note_on_c, 10, 64, 0
11, 35400, Note_on_c, 10, 64, 44
11, 35400, Note_on_c, 10, 55, 40
11, 35430, Note_on_c, 10, 55, 0
11, 35430, Note_on_c, 10, 64, 0
11, 35430, Note_on_c, 10, 64, 45
11, 35430, Note_on_c, 10, 55, 43
11, 35460, Note_on_c, 10, 55, 0
11, 35460, Note_on_c, 10, 64, 0
11, 35460, Note_on_c, 10, 64, 43
11, 35460, Note_on_c, 10, 55, 44
11, 35490, Note_on_c, 10, 55, 0
11, 35490, Note_on_c, 10, 64, 0
11, 35490, Note_on_c, 10, 55, 44
11, 35490, Note_on_c, 10, 64, 44
11, 35520, Note_on_c, 10, 64, 0
11, 35520, Note_on_c, 10, 55, 0
11, 35520, Note_on_c, 10, 64, 45
11, 35520, Note_on_c, 10, 55, 43
11, 35550, Note_on_c, 10, 55, 0
11, 35550, Note_on_c, 10, 64, 0
11, 35550, Note_on_c, 10, 64, 44
11, 35550, Note_on_c, 10, 55, 43
11, 35580, Note_on_c, 10, 55, 0
11, 35580, Note_on_c, 10, 64, 0
11, 35580, Note_on_c, 10, 64, 43
11, 35580, Note_on_c, 10, 55, 43
11, 35610, Note_on_c, 10, 55, 0
11, 35610, Note_on_c, 10, 64, 0
11, 35610, Note_on_c, 10, 64, 44
11, 35610, Note_on_c, 10, 55, 44
11, 35640, Note_on_c, 10, 55, 0
11, 35640, Note_on_c, 10, 64, 0
11, 35640, Note_on_c, 10, 64, 43
11, 35640, Note_on_c, 10, 55, 44
11, 35670, Note_on_c, 10, 55, 0
11, 35670, Note_on_c, 10, 64, 0
11, 35670, Note_on_c, 10, 64, 46
11, 35670, Note_on_c, 10, 55, 46
11, 35700, Note_on_c, 10, 55, 0
11, 35700, Note_on_c, 10, 64, 0
11, 35700, Note_on_c, 10, 64, 45
11, 35700, Note_on_c, 10, 55, 45
11, 35730, Note_on_c, 10, 55, 0
11, 35730, Note_on_c, 10, 64, 0
11, 35730, Note_on_c, 10, 64, 44
11, 35730, Note_on_c, 10, 55, 50
11, 35760, Note_on_c, 10, 55, 0
11, 35760, Note_on_c, 10, 64, 0
11, 35760, Note_on_c, 10, 64, 55
11, 35760, Note_on_c, 10, 55, 43
11, 35790, Note_on_c, 10, 55, 0
11, 35790, Note_on_c, 10, 64, 0
11, 35790, Note_on_c, 10, 64, 50
11, 35790, Note_on_c, 10, 55, 48
11, 35820, Note_on_c, 10, 55, 0
11, 35820, Note_on_c, 10, 64, 0
11, 35820, Note_on_c, 10, 64, 45
11, 35820, Note_on_c, 10, 55, 45
11, 35850, Note_on_c, 10, 55, 0
11, 35850, Note_on_c, 10, 64, 0
11, 35850, Note_on_c, 10, 64, 42
11, 35850, Note_on_c, 10, 55, 40
11, 35880, Note_on_c, 10, 55, 0
11, 35880, Note_on_c, 10, 64, 0
11, 35880, Note_on_c, 10, 64, 43
11, 35880, Note_on_c, 10, 55, 43
11, 35910, Note_on_c, 10, 55, 0
11, 35910, Note_on_c, 10, 64, 0
11, 35910, Note_on_c, 10, 64, 43
11, 35910, Note_on_c, 10, 55, 44
11, 35940, Note_on_c, 10, 55, 0
11, 35940, Note_on_c, 10, 64, 0
11, 35940, Note_on_c, 10, 64, 52
11, 35940, Note_on_c, 10, 55, 46
11, 35970, Note_on_c, 10, 55, 0
11, 35970, Note_on_c, 10, 64, 0
11, 35970, Note_on_c, 10, 55, 43
11, 35970, Note_on_c, 10, 64, 46
11, 36000, Note_on_c, 10, 64, 0
11, 36000, Note_on_c, 10, 55, 0
11, 36000, Note_on_c, 10, 64, 46
11, 36000, Note_on_c, 10, 55, 45
11, 36030, Note_on_c, 10, 55, 0
11, 36030, Note_on_c, 10, 64, 0
11, 36030, Note_on_c, 10, 64, 50
11, 36030, Note_on_c, 10, 55, 44
11, 36060, Note_on_c, 10, 55, 0
11, 36060, Note_on_c, 10, 64, 0
11, 36060, Note_on_c, 10, 64, 45
11, 36060, Note_on_c, 10, 55, 43
11, 36090, Note_on_c, 10, 55, 0
11, 36090, Note_on_c, 10, 64, 0
11, 36090, Note_on_c, 10, 64, 52
11, 36090, Note_on_c, 10, 55, 44
11, 36120, Note_on_c, 10, 55, 0
11, 36120, Note_on_c, 10, 64, 0
11, 36120, Note_on_c, 10, 64, 50
11, 36120, Note_on_c, 10, 55, 45
11, 36150, Note_on_c, 10, 55, 0
11, 36150, Note_on_c, 10, 64, 0
11, 36150, Note_on_c, 10, 64, 45
11, 36150, Note_on_c, 10, 55, 44
11, 36180, Note_on_c, 10, 55, 0
11, 36180, Note_on_c, 10, 64, 0
11, 36180, Note_on_c, 10, 64, 43
11, 36180, Note_on_c, 10, 55, 44
11, 36210, Note_on_c, 10, 55, 0
11, 36210, Note_on_c, 10, 64, 0
11, 36210, Note_on_c, 10, 64, 60
11, 36210, Note_on_c, 10, 55, 52
11, 36240, Note_on_c, 10, 55, 0
11, 36240, Note_on_c, 10, 64, 0
11, 36240, Note_on_c, 10, 64, 46
11, 36240, Note_on_c, 10, 55, 45
11, 36270, Note_on_c, 10, 55, 0
11, 36270, Note_on_c, 10, 64, 0
11, 36270, Note_on_c, 10, 64, 47
11, 36270, Note_on_c, 10, 55, 46
11, 36300, Note_on_c, 10, 55, 0
11, 36300, Note_on_c, 10, 64, 0
11, 36300, Note_on_c, 10, 64, 50
11, 36300, Note_on_c, 10, 55, 50
11, 36330, Note_on_c, 10, 55, 0
11, 36330, Note_on_c, 10, 64, 0
11, 36330, Note_on_c, 10, 64, 46
11, 36330, Note_on_c, 10, 55, 48
11, 36360, Note_on_c, 10, 55, 0
11, 36360, Note_on_c, 10, 64, 0
11, 36360, Note_on_c, 10, 64, 50
11, 36360, Note_on_c, 10, 55, 53
11, 36390, Note_on_c, 10, 55, 0
11, 36390, Note_on_c, 10, 64, 0
11, 36390, Note_on_c, 10, 64, 62
11, 36390, Note_on_c, 10, 55, 59
11, 36420, Note_on_c, 10, 55, 0
11, 36420, Note_on_c, 10, 64, 0
11, 36420, Note_on_c, 10, 64, 58
11, 36420, Note_on_c, 10, 55, 48
11, 36450, Note_on_c, 10, 55, 0
11, 36450, Note_on_c, 10, 64, 0
11, 36450, Note_on_c, 10, 55, 63
11, 36450, Note_on_c, 10, 64, 63
11, 36480, Note_on_c, 10, 64, 0
11, 36480, Note_on_c, 10, 55, 0
11, 36480, Note_on_c, 10, 65, 95
11, 36510, Note_on_c, 10, 65, 0
11, 36510, Note_on_c, 10, 56, 80
11, 36540, Note_on_c, 10, 56, 0
11, 36540, Note_on_c, 10, 56, 73
11, 36570, Note_on_c, 10, 56, 0
11, 36570, Note_on_c, 10, 56, 61
11, 36600, Note_on_c, 10, 56, 0
11, 36600, Note_on_c, 10, 56, 63
11, 36630, Note_on_c, 10, 56, 0
11, 36630, Note_on_c, 10, 56, 43
11, 36660, Note_on_c, 10, 56, 0
11, 36660, Note_on_c, 10, 56, 61
11, 36690, Note_on_c, 10, 56, 0
11, 36690, Note_on_c, 10, 56, 45
11, 36720, Note_on_c, 10, 56, 0
11, 36720, Note_on_c, 10, 56, 61
11, 36750, Note_on_c, 10, 56, 0
11, 36750, Note_on_c, 10, 56, 57
11, 36780, Note_on_c, 10, 56, 0
11, 36780, Note_on_c, 10, 56, 60
11, 36810, Note_on_c, 10, 56, 0
11, 36810, Note_on_c, 10, 56, 66
11, 36840, Note_on_c, 10, 56, 0
11, 36840, Note_on_c, 10, 56, 45
11, 36870, Note_on_c, 10, 56, 0
11, 36870, Note_on_c, 10, 56, 45
11, 36900, Note_on_c, 10, 56, 0
11, 36900, Note_on_c, 10, 56, 62
11, 36930, Note_on_c, 10, 56, 0
11, 36930, Note_on_c, 10, 56, 65
11, 36960, Note_on_c, 10, 56, 0
11, 36960, Note_on_c, 10, 56, 84
11, 36990, Note_on_c, 10, 56, 0
11, 36990, Note_on_c, 10, 56, 89
11, 37020, Note_on_c, 10, 56, 0
11, 37020, Note_on_c, 10, 56, 94
11, 37050, Note_on_c, 10, 56, 0
11, 37050, Note_on_c, 10, 56, 89
11, 37080, Note_on_c, 10, 56, 0
11, 37080, Note_on_c, 10, 56, 86
11, 37110, Note_on_c, 10, 56, 0
11, 37110, Note_on_c, 10, 56, 81
11, 37140, Note_on_c, 10, 56, 0
11, 37140, Note_on_c, 10, 56, 85
11, 37170, Note_on_c, 10, 56, 0
11, 37170, Note_on_c, 10, 56, 89
11, 37200, Note_on_c, 10, 56, 0
11, 37200, Note_on_c, 10, 56, 84
11, 37230, Note_on_c, 10, 56, 0
11, 37230, Note_on_c, 10, 56, 93
11, 37260, Note_on_c, 10, 56, 0
11, 37260, Note_on_c, 10, 56, 95
11, 37290, Note_on_c, 10, 56, 0
11, 37290, Note_on_c, 10, 56, 99
11, 37320, Note_on_c, 10, 56, 0
11, 37320, Note_on_c, 10, 56, 94
11, 37350, Note_on_c, 10, 56, 0
11, 37350, Note_on_c, 10, 56, 94
11, 37380, Note_on_c, 10, 56, 0
11, 37380, Note_on_c, 10, 56, 94
11, 37410, Note_on_c, 10, 56, 0
11, 37410, Note_on_c, 10, 56, 99
11, 37440, Note_on_c, 10, 56, 0
11, 37440, Note_on_c, 10, 56, 104
11, 37470, Note_on_c, 10, 56, 0
11, 37470, Note_on_c, 10, 68, 90
11, 37500, Note_on_c, 10, 68, 0
11, 37500, Note_on_c, 10, 68, 95
11, 37530, Note_on_c, 10, 68, 0
11, 37530, Note_on_c, 10, 68, 101
11, 37560, Note_on_c, 10, 68, 0
11, 37560, Note_on_c, 10, 70, 95
11, 37590, Note_on_c, 10, 70, 0
11, 37590, Note_on_c, 10, 70, 94
11, 37620, Note_on_c, 10, 70, 0
11, 37620, Note_on_c, 10, 70, 89
11, 37650, Note_on_c, 10, 70, 0
11, 37650, Note_on_c, 10, 70, 86
11, 37680, Note_on_c, 10, 70, 0
11, 37680, Note_on_c, 10, 68, 94
11, 37710, Note_on_c, 10, 68, 0
11, 37710, Note_on_c, 10, 68, 99
11, 37740, Note_on_c, 10, 68, 0
11, 37740, Note_on_c, 10, 68, 95
11, 37770, Note_on_c, 10, 68, 0
11, 37770, Note_on_c, 10, 68, 99
11, 37800, Note_on_c, 10, 68, 0
11, 37800, Note_on_c, 10, 67, 64
11, 37830, Note_on_c, 10, 67, 0
11, 37830, Note_on_c, 10, 67, 94
11, 37860, Note_on_c, 10, 67, 0
11, 37860, Note_on_c, 10, 67, 94
11, 37890, Note_on_c, 10, 67, 0
11, 37890, Note_on_c, 10, 67, 95
11, 37920, Note_on_c, 10, 67, 0
11, 37920, Note_on_c, 10, 65, 105
11, 37950, Note_on_c, 10, 65, 0
11, 37950, Note_on_c, 10, 71, 84
11, 37950, Note_on_c, 10, 62, 89
11, 37980, Note_on_c, 10, 62, 0
11, 37980, Note_on_c, 10, 71, 0
11, 37980, Note_on_c, 10, 71, 85
11, 37980, Note_on_c, 10, 62, 85
11, 38010, Note_on_c, 10, 62, 0
11, 38010, Note_on_c, 10, 71, 0
11, 38010, Note_on_c, 10, 71, 89
11, 38010, Note_on_c, 10, 62, 84
11, 38040, Note_on_c, 10, 62, 0
11, 38040, Note_on_c, 10, 71, 0
11, 38040, Note_on_c, 10, 71, 90
11, 38040, Note_on_c, 10, 62, 93
11, 38070, Note_on_c, 10, 62, 0
11, 38070, Note_on_c, 10, 71, 0
11, 38070, Note_on_c, 10, 71, 93
11, 38070, Note_on_c, 10, 62, 89
11, 38100, Note_on_c, 10, 62, 0
11, 38100, Note_on_c, 10, 71, 0
11, 38100, Note_on_c, 10, 71, 90
11, 38100, Note_on_c, 10, 62, 93
11, 38130, Note_on_c, 10, 62, 0
11, 38130, Note_on_c, 10, 71, 0
11, 38130, Note_on_c, 10, 71, 89
11, 38130, Note_on_c, 10, 62, 93
11, 38160, Note_on_c, 10, 62, 0
11, 38160, Note_on_c, 10, 71, 0
11, 38160, Note_on_c, 10, 71, 93
11, 38160, Note_on_c, 10, 62, 93
11, 38190, Note_on_c, 10, 62, 0
11, 38190, Note_on_c, 10, 71, 0
11, 38190, Note_on_c, 10, 71, 94
11, 38190, Note_on_c, 10, 62, 89
11, 38220, Note_on_c, 10, 62, 0
11, 38220, Note_on_c, 10, 71, 0
11, 38220, Note_on_c, 10, 71, 93
11, 38220, Note_on_c, 10, 62, 90
11, 38250, Note_on_c, 10, 62, 0
11, 38250, Note_on_c, 10, 71, 0
11, 38250, Note_on_c, 10, 71, 89
11, 38250, Note_on_c, 10, 62, 89
11, 38280, Note_on_c, 10, 62, 0
11, 38280, Note_on_c, 10, 71, 0
11, 38280, Note_on_c, 10, 71, 84
11, 38280, Note_on_c, 10, 62, 84
11, 38310, Note_on_c, 10, 62, 0
11, 38310, Note_on_c, 10, 71, 0
11, 38310, Note_on_c, 10, 71, 90
11, 38310, Note_on_c, 10, 62, 93
11, 38340, Note_on_c, 10, 62, 0
11, 38340, Note_on_c, 10, 71, 0
11, 38340, Note_on_c, 10, 71, 89
11, 38340, Note_on_c, 10, 62, 89
11, 38370, Note_on_c, 10, 62, 0
11, 38370, Note_on_c, 10, 71, 0
11, 38370, Note_on_c, 10, 62, 86
11, 38370, Note_on_c, 10, 71, 90
11, 38400, Note_on_c, 10, 71, 0
11, 38400, Note_on_c, 10, 62, 0
11, 38400, Note_on_c, 10, 71, 90
11, 38400, Note_on_c, 10, 62, 90
11, 38430, Note_on_c, 10, 62, 0
11, 38430, Note_on_c, 10, 71, 0
11, 38430, Note_on_c, 10, 71, 90
11, 38430, Note_on_c, 10, 62, 90
11, 38460, Note_on_c, 10, 62, 0
11, 38460, Note_on_c, 10, 71, 0
11, 38460, Note_on_c, 10, 71, 84
11, 38460, Note_on_c, 10, 62, 81
11, 38490, Note_on_c, 10, 62, 0
11, 38490, Note_on_c, 10, 71, 0
11, 38490, Note_on_c, 10, 71, 89
11, 38490, Note_on_c, 10, 62, 89
11, 38520, Note_on_c, 10, 62, 0
11, 38520, Note_on_c, 10, 71, 0
11, 38520, Note_on_c, 10, 71, 85
11, 38520, Note_on_c, 10, 62, 86
11, 38550, Note_on_c, 10, 62, 0
11, 38550, Note_on_c, 10, 71, 0
11, 38550, Note_on_c, 10, 71, 85
11, 38550, Note_on_c, 10, 62, 81
11, 38580, Note_on_c, 10, 62, 0
11, 38580, Note_on_c, 10, 71, 0
11, 38580, Note_on_c, 10, 71, 89
11, 38580, Note_on_c, 10, 62, 84
11, 38610, Note_on_c, 10, 62, 0
11, 38610, Note_on_c, 10, 71, 0
11, 38610, Note_on_c, 10, 71, 89
11, 38610, Note_on_c, 10, 62, 89
11, 38640, Note_on_c, 10, 62, 0
11, 38640, Note_on_c, 10, 71, 0
11, 38640, Note_on_c, 10, 71, 84
11, 38640, Note_on_c, 10, 62, 93
11, 38670, Note_on_c, 10, 62, 0
11, 38670, Note_on_c, 10, 71, 0
11, 38670, Note_on_c, 10, 71, 80
11, 38670, Note_on_c, 10, 62, 85
11, 38700, Note_on_c, 10, 62, 0
11, 38700, Note_on_c, 10, 71, 0
11, 38700, Note_on_c, 10, 71, 84
11, 38700, Note_on_c, 10, 62, 84
11, 38730, Note_on_c, 10, 62, 0
11, 38730, Note_on_c, 10, 71, 0
11, 38730, Note_on_c, 10, 71, 86
11, 38730, Note_on_c, 10, 62, 84
11, 38760, Note_on_c, 10, 62, 0
11, 38760, Note_on_c, 10, 71, 0
11, 38760, Note_on_c, 10, 71, 89
11, 38760, Note_on_c, 10, 62, 89
11, 38790, Note_on_c, 10, 62, 0
11, 38790, Note_on_c, 10, 71, 0
11, 38790, Note_on_c, 10, 71, 85
11, 38790, Note_on_c, 10, 62, 86
11, 38820, Note_on_c, 10, 62, 0
11, 38820, Note_on_c, 10, 71, 0
11, 38820, Note_on_c, 10, 71, 89
11, 38820, Note_on_c, 10, 62, 89
11, 38850, Note_on_c, 10, 62, 0
11, 38850, Note_on_c, 10, 71, 0
11, 38850, Note_on_c, 10, 62, 90
11, 38850, Note_on_c, 10, 71, 85
11, 38880, Note_on_c, 10, 71, 0
11, 38880, Note_on_c, 10, 62, 0
11, 38880, Note_on_c, 10, 71, 86
11, 38880, Note_on_c, 10, 62, 94
11, 38910, Note_on_c, 10, 62, 0
11, 38910, Note_on_c, 10, 71, 0
11, 38910, Note_on_c, 10, 71, 85
11, 38910, Note_on_c, 10, 62, 90
11, 38940, Note_on_c, 10, 62, 0
11, 38940, Note_on_c, 10, 71, 0
11, 38940, Note_on_c, 10, 71, 84
11, 38940, Note_on_c, 10, 62, 85
11, 38970, Note_on_c, 10, 62, 0
11, 38970, Note_on_c, 10, 71, 0
11, 38970, Note_on_c, 10, 71, 90
11, 38970, Note_on_c, 10, 62, 94
11, 39000, Note_on_c, 10, 62, 0
11, 39000, Note_on_c, 10, 71, 0
11, 39000, Note_on_c, 10, 80, 99
11, 39030, Note_on_c, 10, 80, 0
11, 39030, Note_on_c, 10, 80, 95
11, 39060, Note_on_c, 10, 80, 0
11, 39060, Note_on_c, 10, 80, 95
11, 39090, Note_on_c, 10, 80, 0
11, 39090, Note_on_c, 10, 80, 90
11, 39120, Note_on_c, 10, 80, 0
11, 39120, Note_on_c, 10, 79, 95
11, 39150, Note_on_c, 10, 79, 0
11, 39150, Note_on_c, 10, 79, 94
11, 39180, Note_on_c, 10, 79, 0
11, 39180, Note_on_c, 10, 79, 94
11, 39210, Note_on_c, 10, 79, 0
11, 39210, Note_on_c, 10, 79, 94
11, 39240, Note_on_c, 10, 79, 0
11, 39240, Note_on_c, 10, 77, 98
11, 39270, Note_on_c, 10, 77, 0
11, 39270, Note_on_c, 10, 77, 94
11, 39300, Note_on_c, 10, 77, 0
11, 39300, Note_on_c, 10, 77, 93
11, 39330, Note_on_c, 10, 77, 0
11, 39330, Note_on_c, 10, 77, 94
11, 39360, Note_on_c, 10, 77, 0
11, 39360, Note_on_c, 10, 75, 104
11, 39480, Note_on_c, 10, 75, 0
11, 39600, Note_on_c, 10, 80, 98
11, 39600, Note_on_c, 10, 72, 115
11, 39600, Note_on_c, 10, 65, 105
11, 39720, Note_on_c, 10, 65, 0
11, 39720, Note_on_c, 10, 72, 0
11, 39720, Note_on_c, 10, 80, 0
11, 39840, Note_on_c, 10, 79, 99
11, 39840, Note_on_c, 10, 72, 105
11, 39840, Note_on_c, 10, 63, 99
11, 39960, Note_on_c, 10, 63, 0
11, 39960, Note_on_c, 10, 72, 0
11, 39960, Note_on_c, 10, 79, 0
11, 40080, Note_on_c, 10, 71, 101
11, 40080, Note_on_c, 10, 62, 94
11, 40080, Note_on_c, 10, 55, 95
11, 40200, Note_on_c, 10, 55, 0
11, 40200, Note_on_c, 10, 62, 0
11, 40200, Note_on_c, 10, 71, 0
11, 40320, Note_on_c, 10, 72, 76
11, 40320, Note_on_c, 10, 63, 93
11, 40320, Note_on_c, 10, 55, 104
11, 40440, Note_on_c, 10, 55, 0
11, 40440, Note_on_c, 10, 63, 0
11, 40440, Note_on_c, 10, 72, 0
11, 41640, Note_on_c, 10, 68, 67
11, 41760, Note_on_c, 10, 68, 0
11, 41880, Note_on_c, 10, 67, 61
11, 42000, Note_on_c, 10, 67, 0
11, 42120, Note_on_c, 10, 65, 72
11, 42240, Note_on_c, 10, 65, 0
11, 42240, Note_on_c, 10, 63, 60
11, 42360, Note_on_c, 10, 63, 0
11, 43680, Note_on_c, 10, 59, 65
11, 43920, Note_on_c, 10, 59, 0
11, 43920, Note_on_c, 10, 60, 68
11, 44100, Note_on_c, 10, 60, 0
11, 44100, Note_on_c, 10, 62, 58
11, 44160, Note_on_c, 10, 62, 0
11, 44160, Note_on_c, 10, 62, 56
11, 44400, Note_on_c, 10, 62, 0
11, 44400, Note_on_c, 10, 63, 61
11, 44580, Note_on_c, 10, 63, 0
11, 44580, Note_on_c, 10, 65, 66
11, 44640, Note_on_c, 10, 65, 0
11, 44640, Note_on_c, 10, 65, 73
11, 44670, Note_on_c, 10, 65, 0
11, 44670, Note_on_c, 10, 65, 74
11, 44700, Note_on_c, 10, 65, 0
11, 44700, Note_on_c, 10, 65, 65
11, 44730, Note_on_c, 10, 65, 0
11, 44730, Note_on_c, 10, 65, 74
11, 44760, Note_on_c, 10, 65, 0
11, 44760, Note_on_c, 10, 65, 71
11, 44790, Note_on_c, 10, 65, 0
11, 44790, Note_on_c, 10, 65, 73
11, 44820, Note_on_c, 10, 65, 0
11, 44820, Note_on_c, 10, 65, 74
11, 44850, Note_on_c, 10, 65, 0
11, 44850, Note_on_c, 10, 65, 76
11, 44880, Note_on_c, 10, 65, 0
11, 44880, Note_on_c, 10, 65, 78
11, 44910, Note_on_c, 10, 65, 0
11, 44910, Note_on_c, 10, 65, 73
11, 44940, Note_on_c, 10, 65, 0
11, 44940, Note_on_c, 10, 65, 77
11, 44970, Note_on_c, 10, 65, 0
11, 44970, Note_on_c, 10, 65, 76
11, 45000, Note_on_c, 10, 65, 0
11, 45000, Note_on_c, 10, 65, 76
11, 45030, Note_on_c, 10, 65, 0
11, 45030, Note_on_c, 10, 65, 76
11, 45060, Note_on_c, 10, 65, 0
11, 45060, Note_on_c, 10, 65, 76
11, 45090, Note_on_c, 10, 65, 0
11, 45090, Note_on_c, 10, 65, 80
11, 45120, Note_on_c, 10, 65, 0
11, 45120, Note_on_c, 10, 64, 80
11, 45150, Note_on_c, 10, 64, 0
11, 45150, Note_on_c, 10, 64, 69
11, 45180, Note_on_c, 10, 64, 0
11, 45180, Note_on_c, 10, 64, 76
11, 45210, Note_on_c, 10, 64, 0
11, 45210, Note_on_c, 10, 64, 82
11, 45240, Note_on_c, 10, 64, 0
11, 45240, Note_on_c, 10, 64, 80
11, 45270, Note_on_c, 10, 64, 0
11, 45270, Note_on_c, 10, 64, 85
11, 45300, Note_on_c, 10, 64, 0
11, 45300, Note_on_c, 10, 64, 81
11, 45330, Note_on_c, 10, 64, 0
11, 45330, Note_on_c, 10, 64, 81
11, 45360, Note_on_c, 10, 64, 0
11, 45360, Note_on_c, 10, 64, 82
11, 45390, Note_on_c, 10, 64, 0
11, 45390, Note_on_c, 10, 64, 84
11, 45420, Note_on_c, 10, 64, 0
11, 45420, Note_on_c, 10, 64, 78
11, 45450, Note_on_c, 10, 64, 0
11, 45450, Note_on_c, 10, 64, 78
11, 45480, Note_on_c, 10, 64, 0
11, 45480, Note_on_c, 10, 64, 84
11, 45510, Note_on_c, 10, 64, 0
11, 45510, Note_on_c, 10, 64, 85
11, 45540, Note_on_c, 10, 64, 0
11, 45540, Note_on_c, 10, 64, 86
11, 45570, Note_on_c, 10, 64, 0
11, 45570, Note_on_c, 10, 64, 89
11, 45600, Note_on_c, 10, 64, 0
11, 45600, Note_on_c, 10, 60, 58
11, 45630, Note_on_c, 10, 60, 0
11, 45630, Note_on_c, 10, 60, 80
11, 45660, Note_on_c, 10, 60, 0
11, 45660, Note_on_c, 10, 60, 84
11, 45690, Note_on_c, 10, 60, 0
11, 45690, Note_on_c, 10, 60, 85
11, 45720, Note_on_c, 10, 60, 0
11, 45720, Note_on_c, 10, 60, 81
11, 45750, Note_on_c, 10, 60, 0
11, 45750, Note_on_c, 10, 60, 86
11, 45780, Note_on_c, 10, 60, 0
11, 45780, Note_on_c, 10, 60, 81
11, 45810, Note_on_c, 10, 60, 0
11, 45810, Note_on_c, 10, 60, 80
11, 45840, Note_on_c, 10, 60, 0
11, 45840, Note_on_c, 10, 60, 84
11, 45870, Note_on_c, 10, 60, 0
11, 45870, Note_on_c, 10, 60, 86
11, 45900, Note_on_c, 10, 60, 0
11, 45900, Note_on_c, 10, 60, 90
11, 45930, Note_on_c, 10, 60, 0
11, 45930, Note_on_c, 10, 60, 93
11, 45960, Note_on_c, 10, 60, 0
11, 45960, Note_on_c, 10, 60, 93
11, 45990, Note_on_c, 10, 60, 0
11, 45990, Note_on_c, 10, 60, 93
11, 46020, Note_on_c, 10, 60, 0
11, 46020, Note_on_c, 10, 60, 84
11, 46050, Note_on_c, 10, 60, 0
11, 46050, Note_on_c, 10, 60, 77
11, 46080, Note_on_c, 10, 60, 0
11, 46080, Note_on_c, 10, 60, 58
11, 46110, Note_on_c, 10, 60, 0
11, 46110, Note_on_c, 10, 60, 61
11, 46140, Note_on_c, 10, 60, 0
11, 46140, Note_on_c, 10, 60, 59
11, 46170, Note_on_c, 10, 60, 0
11, 46170, Note_on_c, 10, 60, 58
11, 46200, Note_on_c, 10, 60, 0
11, 46200, Note_on_c, 10, 60, 57
11, 46230, Note_on_c, 10, 60, 0
11, 46230, Note_on_c, 10, 60, 65
11, 46260, Note_on_c, 10, 60, 0
11, 46260, Note_on_c, 10, 60, 53
11, 46290, Note_on_c, 10, 60, 0
11, 46290, Note_on_c, 10, 60, 59
11, 46320, Note_on_c, 10, 60, 0
11, 46320, Note_on_c, 10, 60, 67
11, 46350, Note_on_c, 10, 60, 0
11, 46350, Note_on_c, 10, 60, 70
11, 46380, Note_on_c, 10, 60, 0
11, 46380, Note_on_c, 10, 60, 69
11, 46410, Note_on_c, 10, 60, 0
11, 46410, Note_on_c, 10, 60, 59
11, 46440, Note_on_c, 10, 60, 0
11, 46440, Note_on_c, 10, 59, 58
11, 46470, Note_on_c, 10, 59, 0
11, 46470, Note_on_c, 10, 59, 62
11, 46500, Note_on_c, 10, 59, 0
11, 46500, Note_on_c, 10, 59, 59
11, 46530, Note_on_c, 10, 59, 0
11, 46530, Note_on_c, 10, 59, 58
11, 46560, Note_on_c, 10, 59, 0
11, 46560, Note_on_c, 10, 60, 69
11, 46620, Note_on_c, 10, 60, 0
11, 46620, Note_on_c, 10, 63, 69
11, 46620, Note_on_c, 10, 55, 43
11, 46680, Note_on_c, 10, 55, 0
11, 46680, Note_on_c, 10, 63, 0
11, 46680, Note_on_c, 10, 63, 49
11, 46680, Note_on_c, 10, 55, 37
11, 46740, Note_on_c, 10, 55, 0
11, 46740, Note_on_c, 10, 63, 0
11, 46740, Note_on_c, 10, 63, 52
11, 46740, Note_on_c, 10, 55, 38
11, 46800, Note_on_c, 10, 55, 0
11, 46800, Note_on_c, 10, 63, 0
11, 46800, Note_on_c, 10, 63, 65
11, 46800, Note_on_c, 10, 55, 40
11, 46860, Note_on_c, 10, 55, 0
11, 46860, Note_on_c, 10, 63, 0
11, 46860, Note_on_c, 10, 63, 59
11, 46860, Note_on_c, 10, 55, 38
11, 46920, Note_on_c, 10, 55, 0
11, 46920, Note_on_c, 10, 63, 0
11, 46920, Note_on_c, 10, 63, 62
11, 46920, Note_on_c, 10, 55, 42
11, 46980, Note_on_c, 10, 55, 0
11, 46980, Note_on_c, 10, 63, 0
11, 46980, Note_on_c, 10, 55, 42
11, 46980, Note_on_c, 10, 63, 65
11, 47040, Note_on_c, 10, 63, 0
11, 47040, Note_on_c, 10, 55, 0
11, 47100, Note_on_c, 10, 65, 58
11, 47100, Note_on_c, 10, 55, 64
11, 47160, Note_on_c, 10, 55, 0
11, 47160, Note_on_c, 10, 65, 0
11, 47160, Note_on_c, 10, 65, 64
11, 47160, Note_on_c, 10, 55, 76
11, 47220, Note_on_c, 10, 55, 0
11, 47220, Note_on_c, 10, 65, 0
11, 47220, Note_on_c, 10, 65, 66
11, 47220, Note_on_c, 10, 55, 71
11, 47280, Note_on_c, 10, 55, 0
11, 47280, Note_on_c, 10, 65, 0
11, 47280, Note_on_c, 10, 65, 64
11, 47280, Note_on_c, 10, 55, 64
11, 47340, Note_on_c, 10, 55, 0
11, 47340, Note_on_c, 10, 65, 0
11, 47340, Note_on_c, 10, 65, 66
11, 47340, Note_on_c, 10, 55, 78
11, 47400, Note_on_c, 10, 55, 0
11, 47400, Note_on_c, 10, 65, 0
11, 47400, Note_on_c, 10, 65, 65
11, 47400, Note_on_c, 10, 55, 70
11, 47460, Note_on_c, 10, 55, 0
11, 47460, Note_on_c, 10, 65, 0
11, 47460, Note_on_c, 10, 55, 65
11, 47460, Note_on_c, 10, 65, 58
11, 47520, Note_on_c, 10, 65, 0
11, 47520, Note_on_c, 10, 55, 0
11, 47580, Note_on_c, 10, 63, 43
11, 47580, Note_on_c, 10, 55, 42
11, 47640, Note_on_c, 10, 55, 0
11, 47640, Note_on_c, 10, 63, 0
11, 47640, Note_on_c, 10, 63, 40
11, 47640, Note_on_c, 10, 55, 43
11, 47700, Note_on_c, 10, 55, 0
11, 47700, Note_on_c, 10, 63, 0
11, 47700, Note_on_c, 10, 63, 40
11, 47700, Note_on_c, 10, 55, 42
11, 47760, Note_on_c, 10, 55, 0
11, 47760, Note_on_c, 10, 63, 0
11, 47820, Note_on_c, 10, 63, 33
11, 47880, Note_on_c, 10, 63, 0
11, 47880, Note_on_c, 10, 63, 40
11, 47940, Note_on_c, 10, 63, 0
11, 47940, Note_on_c, 10, 63, 43
11, 48000, Note_on_c, 10, 63, 0
11, 48060, Note_on_c, 10, 62, 29
11, 48120, Note_on_c, 10, 62, 0
11, 48120, Note_on_c, 10, 62, 48
11, 48180, Note_on_c, 10, 62, 0
11, 48180, Note_on_c, 10, 62, 44
11, 48240, Note_on_c, 10, 62, 0
11, 48300, Note_on_c, 10, 62, 44
11, 48360, Note_on_c, 10, 62, 0
11, 48360, Note_on_c, 10, 62, 45
11, 48420, Note_on_c, 10, 62, 0
11, 48420, Note_on_c, 10, 62, 64
11, 48480, Note_on_c, 10, 62, 0
11, 48480, Note_on_c, 10, 63, 43
11, 48510, Note_on_c, 10, 63, 0
11, 48510, Note_on_c, 10, 75, 65
11, 48540, Note_on_c, 10, 75, 0
11, 48540, Note_on_c, 10, 75, 64
11, 48570, Note_on_c, 10, 75, 0
11, 48570, Note_on_c, 10, 75, 65
11, 48600, Note_on_c, 10, 75, 0
11, 48600, Note_on_c, 10, 75, 61
11, 48630, Note_on_c, 10, 75, 0
11, 48630, Note_on_c, 10, 75, 72
11, 48660, Note_on_c, 10, 75, 0
11, 48660, Note_on_c, 10, 75, 72
11, 48690, Note_on_c, 10, 75, 0
11, 48690, Note_on_c, 10, 75, 73
11, 48720, Note_on_c, 10, 75, 0
11, 48720, Note_on_c, 10, 75, 67
11, 48750, Note_on_c, 10, 75, 0
11, 48750, Note_on_c, 10, 75, 70
11, 48780, Note_on_c, 10, 75, 0
11, 48780, Note_on_c, 10, 75, 74
11, 48810, Note_on_c, 10, 75, 0
11, 48810, Note_on_c, 10, 75, 80
11, 48840, Note_on_c, 10, 75, 0
11, 48840, Note_on_c, 10, 75, 81
11, 48870, Note_on_c, 10, 75, 0
11, 48870, Note_on_c, 10, 75, 89
11, 48900, Note_on_c, 10, 75, 0
11, 48900, Note_on_c, 10, 75, 84
11, 48930, Note_on_c, 10, 75, 0
11, 48930, Note_on_c, 10, 75, 86
11, 48960, Note_on_c, 10, 75, 0
11, 48960, Note_on_c, 10, 75, 84
11, 48990, Note_on_c, 10, 75, 0
11, 48990, Note_on_c, 10, 75, 84
11, 49020, Note_on_c, 10, 75, 0
11, 49020, Note_on_c, 10, 75, 89
11, 49050, Note_on_c, 10, 75, 0
11, 49050, Note_on_c, 10, 75, 81
11, 49080, Note_on_c, 10, 75, 0
11, 49080, Note_on_c, 10, 75, 81
11, 49110, Note_on_c, 10, 75, 0
11, 49110, Note_on_c, 10, 75, 89
11, 49140, Note_on_c, 10, 75, 0
11, 49140, Note_on_c, 10, 75, 89
11, 49170, Note_on_c, 10, 75, 0
11, 49170, Note_on_c, 10, 75, 85
11, 49200, Note_on_c, 10, 75, 0
11, 49200, Note_on_c, 10, 74, 95
11, 49230, Note_on_c, 10, 74, 0
11, 49230, Note_on_c, 10, 74, 95
11, 49260, Note_on_c, 10, 74, 0
11, 49260, Note_on_c, 10, 74, 94
11, 49290, Note_on_c, 10, 74, 0
11, 49290, Note_on_c, 10, 74, 90
11, 49320, Note_on_c, 10, 74, 0
11, 49320, Note_on_c, 10, 74, 95
11, 49350, Note_on_c, 10, 74, 0
11, 49350, Note_on_c, 10, 74, 99
11, 49380, Note_on_c, 10, 74, 0
11, 49380, Note_on_c, 10, 74, 95
11, 49410, Note_on_c, 10, 74, 0
11, 49410, Note_on_c, 10, 74, 95
11, 49440, Note_on_c, 10, 74, 0
11, 49440, Note_on_c, 10, 75, 105
11, 49560, Note_on_c, 10, 75, 0
11, 49920, Note_on_c, 10, 60, 98
11, 50160, Note_on_c, 10, 60, 0
11, 50160, Note_on_c, 10, 63, 94
11, 50400, Note_on_c, 10, 63, 0
11, 50400, Note_on_c, 10, 67, 80
11, 50580, Note_on_c, 10, 67, 0
11, 50580, Note_on_c, 10, 65, 82
11, 50610, Note_on_c, 10, 65, 0
11, 50640, Note_on_c, 10, 63, 84
11, 50700, Note_on_c, 10, 63, 0
11, 50760, Note_on_c, 10, 62, 90
11, 50820, Note_on_c, 10, 62, 0
11, 50880, Note_on_c, 10, 60, 94
11, 51000, Note_on_c, 10, 60, 0
11, 51060, Note_on_c, 10, 55, 85
11, 51090, Note_on_c, 10, 55, 0
11, 51120, Note_on_c, 10, 60, 86
11, 51180, Note_on_c, 10, 60, 0
11, 51300, Note_on_c, 10, 55, 86
11, 51330, Note_on_c, 10, 55, 0
11, 51360, Note_on_c, 10, 60, 94
11, 51420, Note_on_c, 10, 60, 0
11, 51780, Note_on_c, 10, 79, 74
11, 51780, Note_on_c, 10, 71, 89
11, 51810, Note_on_c, 10, 71, 0
11, 51810, Note_on_c, 10, 79, 0
11, 51840, Note_on_c, 10, 79, 76
11, 51840, Note_on_c, 10, 72, 104
11, 51900, Note_on_c, 10, 72, 0
11, 51900, Note_on_c, 10, 79, 0
11, 52320, Note_on_c, 10, 60, 98
11, 52380, Note_on_c, 10, 60, 0
11, 52560, Note_on_c, 10, 60, 104
11, 52620, Note_on_c, 10, 60, 0
11, 52800, Note_on_c, 10, 60, 104
11, 53040, Note_on_c, 10, 60, 0
11, 58080, Note_on_c, 10, 60, 65
11, 58680, Note_on_c, 10, 60, 0
11, 58680, Note_on_c, 10, 60, 54
11, 58770, Note_on_c, 10, 60, 0
11, 58800, Note_on_c, 10, 60, 59
11, 58890, Note_on_c, 10, 60, 0
11, 58920, Note_on_c, 10, 60, 52
11, 59010, Note_on_c, 10, 60, 0
11, 59040, Note_on_c, 10, 60, 56
11, 59280, Note_on_c, 10, 60, 0
11, 59280, Note_on_c, 10, 65, 59
11, 59640, Note_on_c, 10, 65, 0
11, 59640, Note_on_c, 10, 65, 53
11, 59730, Note_on_c, 10, 65, 0
11, 59760, Note_on_c, 10, 65, 43
11, 59850, Note_on_c, 10, 65, 0
11, 59880, Note_on_c, 10, 65, 54
11, 59970, Note_on_c, 10, 65, 0
11, 60000, Note_on_c, 10, 65, 65
11, 60600, Note_on_c, 10, 65, 0
11, 60600, Note_on_c, 10, 65, 65
11, 60720, Note_on_c, 10, 65, 0
11, 60720, Note_on_c, 10, 63, 53
11, 60840, Note_on_c, 10, 63, 0
11, 60840, Note_on_c, 10, 62, 61
11, 60960, Note_on_c, 10, 62, 0
11, 60960, Note_on_c, 10, 63, 68
11, 61080, Note_on_c, 10, 63, 0
11, 61080, Note_on_c, 10, 63, 66
11, 61200, Note_on_c, 10, 63, 0
11, 61320, Note_on_c, 10, 62, 67
11, 61440, Note_on_c, 10, 62, 0
11, 61560, Note_on_c, 10, 63, 61
11, 61680, Note_on_c, 10, 63, 0
11, 61800, Note_on_c, 10, 65, 56
11, 61920, Note_on_c, 10, 65, 0
11, 61920, Note_on_c, 10, 63, 58
11, 62040, Note_on_c, 10, 63, 0
11, 62400, Note_on_c, 10, 65, 59
11, 62760, Note_on_c, 10, 65, 0
11, 62760, Note_on_c, 10, 65, 54
11, 62850, Note_on_c, 10, 65, 0
11, 62850, Note_on_c, 10, 63, 56
11, 62880, Note_on_c, 10, 63, 0
11, 62880, Note_on_c, 10, 63, 49
11, 63000, Note_on_c, 10, 63, 0
11, 64320, Note_on_c, 10, 68, 58
11, 64680, Note_on_c, 10, 68, 0
11, 64680, Note_on_c, 10, 68, 66
11, 64770, Note_on_c, 10, 68, 0
11, 64770, Note_on_c, 10, 67, 59
11, 64800, Note_on_c, 10, 67, 0
11, 64800, Note_on_c, 10, 67, 71
11, 64920, Note_on_c, 10, 67, 0
11, 65760, Note_on_c, 10, 63, 77
11, 65760, Note_on_c, 10, 55, 94
11, 65820, Note_on_c, 10, 55, 0
11, 65820, Note_on_c, 10, 63, 0
11, 65820, Note_on_c, 10, 63, 78
11, 65820, Note_on_c, 10, 55, 94
11, 65880, Note_on_c, 10, 55, 0
11, 65880, Note_on_c, 10, 63, 0
11, 65880, Note_on_c, 10, 63, 85
11, 65880, Note_on_c, 10, 55, 95
11, 65940, Note_on_c, 10, 55, 0
11, 65940, Note_on_c, 10, 63, 0
11, 65940, Note_on_c, 10, 63, 82
11, 65940, Note_on_c, 10, 55, 93
11, 66000, Note_on_c, 10, 55, 0
11, 66000, Note_on_c, 10, 63, 0
11, 66000, Note_on_c, 10, 63, 82
11, 66000, Note_on_c, 10, 55, 98
11, 66060, Note_on_c, 10, 55, 0
11, 66060, Note_on_c, 10, 63, 0
11, 66060, Note_on_c, 10, 63, 81
11, 66060, Note_on_c, 10, 55, 94
11, 66120, Note_on_c, 10, 55, 0
11, 66120, Note_on_c, 10, 63, 0
11, 66120, Note_on_c, 10, 63, 84
11, 66120, Note_on_c, 10, 55, 95
11, 66180, Note_on_c, 10, 55, 0
11, 66180, Note_on_c, 10, 63, 0
11, 66180, Note_on_c, 10, 55, 99
11, 66180, Note_on_c, 10, 63, 86
11, 66240, Note_on_c, 10, 63, 0
11, 66240, Note_on_c, 10, 55, 0
11, 66240, Note_on_c, 10, 63, 85
11, 66240, Note_on_c, 10, 55, 99
11, 66300, Note_on_c, 10, 55, 0
11, 66300, Note_on_c, 10, 63, 0
11, 66300, Note_on_c, 10, 63, 72
11, 66300, Note_on_c, 10, 55, 93
11, 66360, Note_on_c, 10, 55, 0
11, 66360, Note_on_c, 10, 63, 0
11, 66360, Note_on_c, 10, 63, 80
11, 66360, Note_on_c, 10, 55, 98
11, 66420, Note_on_c, 10, 55, 0
11, 66420, Note_on_c, 10, 63, 0
11, 66420, Note_on_c, 10, 63, 81
11, 66420, Note_on_c, 10, 55, 99
11, 66480, Note_on_c, 10, 55, 0
11, 66480, Note_on_c, 10, 63, 0
11, 66480, Note_on_c, 10, 63, 81
11, 66480, Note_on_c, 10, 55, 98
11, 66540, Note_on_c, 10, 55, 0
11, 66540, Note_on_c, 10, 63, 0
11, 66540, Note_on_c, 10, 63, 81
11, 66540, Note_on_c, 10, 55, 94
11, 66600, Note_on_c, 10, 55, 0
11, 66600, Note_on_c, 10, 63, 0
11, 66600, Note_on_c, 10, 63, 80
11, 66600, Note_on_c, 10, 55, 94
11, 66660, Note_on_c, 10, 55, 0
11, 66660, Note_on_c, 10, 63, 0
11, 66660, Note_on_c, 10, 55, 94
11, 66660, Note_on_c, 10, 63, 81
11, 66720, Note_on_c, 10, 63, 0
11, 66720, Note_on_c, 10, 55, 0
11, 66720, Note_on_c, 10, 63, 82
11, 66720, Note_on_c, 10, 55, 94
11, 66840, Note_on_c, 10, 55, 0
11, 66840, Note_on_c, 10, 63, 0
11, 67680, Note_on_c, 10, 68, 94
11, 67860, Note_on_c, 10, 68, 0
11, 67920, Note_on_c, 10, 72, 86
11, 68100, Note_on_c, 10, 72, 0
11, 68160, Note_on_c, 10, 75, 104
11, 68340, Note_on_c, 10, 75, 0
11, 68340, Note_on_c, 10, 73, 80
11, 68370, Note_on_c, 10, 73, 0
11, 68400, Note_on_c, 10, 72, 81
11, 68460, Note_on_c, 10, 72, 0
11, 68520, Note_on_c, 10, 70, 86
11, 68580, Note_on_c, 10, 70, 0
11, 68640, Note_on_c, 10, 69, 90
11, 68760, Note_on_c, 10, 69, 0
11, 69720, Note_on_c, 10, 62, 59
11, 69840, Note_on_c, 10, 62, 0
11, 69960, Note_on_c, 10, 65, 59
11, 70080, Note_on_c, 10, 65, 0
11, 70200, Note_on_c, 10, 66, 68
11, 70320, Note_on_c, 10, 66, 0
11, 70440, Note_on_c, 10, 63, 54
11, 70560, Note_on_c, 10, 63, 0
11, 70680, Note_on_c, 10, 62, 65
11, 70800, Note_on_c, 10, 62, 0
11, 70920, Note_on_c, 10, 65, 58
11, 71040, Note_on_c, 10, 65, 0
11, 71160, Note_on_c, 10, 63, 62
11, 71280, Note_on_c, 10, 63, 0
11, 71400, Note_on_c, 10, 66, 48
11, 71520, Note_on_c, 10, 66, 0
11, 71640, Note_on_c, 10, 62, 45
11, 71760, Note_on_c, 10, 62, 0
11, 71880, Note_on_c, 10, 65, 64
11, 72000, Note_on_c, 10, 65, 0
11, 72120, Note_on_c, 10, 66, 64
11, 72240, Note_on_c, 10, 66, 0
11, 72360, Note_on_c, 10, 63, 62
11, 72480, Note_on_c, 10, 63, 0
11, 72600, Note_on_c, 10, 62, 65
11, 72720, Note_on_c, 10, 62, 0
11, 72840, Note_on_c, 10, 65, 65
11, 72960, Note_on_c, 10, 65, 0
11, 73080, Note_on_c, 10, 63, 67
11, 73200, Note_on_c, 10, 63, 0
11, 73320, Note_on_c, 10, 66, 68
11, 73440, Note_on_c, 10, 66, 0
11, 73440, Note_on_c, 10, 62, 73
11, 73560, Note_on_c, 10, 62, 0
11, 73800, Note_on_c, 10, 66, 65
11, 73920, Note_on_c, 10, 66, 0
11, 73920, Note_on_c, 10, 65, 61
11, 73980, Note_on_c, 10, 65, 0
11, 74280, Note_on_c, 10, 66, 58
11, 74400, Note_on_c, 10, 66, 0
11, 74400, Note_on_c, 10, 65, 68
11, 74460, Note_on_c, 10, 65, 0
11, 74520, Note_on_c, 10, 65, 80
11, 74580, Note_on_c, 10, 65, 0
11, 74760, Note_on_c, 10, 63, 67
11, 74820, Note_on_c, 10, 63, 0
11, 75000, Note_on_c, 10, 62, 72
11, 75060, Note_on_c, 10, 62, 0
11, 75240, Note_on_c, 10, 60, 80
11, 75300, Note_on_c, 10, 60, 0
11, 75360, Note_on_c, 10, 58, 73
11, 75420, Note_on_c, 10, 58, 0
11, 75480, Note_on_c, 10, 56, 55
11, 75540, Note_on_c, 10, 56, 0
11, 78240, Note_on_c, 10, 63, 57
11, 78360, Note_on_c, 10, 63, 0
11, 78480, Note_on_c, 10, 62, 60
11, 78600, Note_on_c, 10, 62, 0
11, 78720, Note_on_c, 10, 58, 71
11, 78840, Note_on_c, 10, 58, 0
11, 80160, Note_on_c, 10, 63, 46
11, 80280, Note_on_c, 10, 63, 0
11, 80400, Note_on_c, 10, 63, 55
11, 80520, Note_on_c, 10, 63, 0
11, 80640, Note_on_c, 10, 63, 57
11, 80760, Note_on_c, 10, 63, 0
11, 80880, Note_on_c, 10, 63, 54
11, 81000, Note_on_c, 10, 63, 0
11, 82080, Note_on_c, 10, 58, 81
11, 82140, Note_on_c, 10, 58, 0
11, 82140, Note_on_c, 10, 67, 71
11, 82200, Note_on_c, 10, 67, 0
11, 82200, Note_on_c, 10, 58, 76
11, 82260, Note_on_c, 10, 58, 0
11, 82260, Note_on_c, 10, 55, 74
11, 82320, Note_on_c, 10, 55, 0
11, 82320, Note_on_c, 10, 56, 58
11, 82380, Note_on_c, 10, 56, 0
11, 82380, Note_on_c, 10, 62, 64
11, 82440, Note_on_c, 10, 62, 0
11, 82440, Note_on_c, 10, 58, 71
11, 82500, Note_on_c, 10, 58, 0
11, 82500, Note_on_c, 10, 56, 78
11, 82560, Note_on_c, 10, 56, 0
11, 82560, Note_on_c, 10, 55, 68
11, 82620, Note_on_c, 10, 55, 0
11, 82620, Note_on_c, 10, 58, 84
11, 82680, Note_on_c, 10, 58, 0
11, 82680, Note_on_c, 10, 63, 72
11, 82740, Note_on_c, 10, 63, 0
11, 82740, Note_on_c, 10, 67, 71
11, 82800, Note_on_c, 10, 67, 0
11, 82800, Note_on_c, 10, 70, 71
11, 82860, Note_on_c, 10, 70, 0
11, 82860, Note_on_c, 10, 67, 82
11, 82920, Note_on_c, 10, 67, 0
11, 82920, Note_on_c, 10, 65, 78
11, 82980, Note_on_c, 10, 65, 0
11, 82980, Note_on_c, 10, 63, 84
11, 83040, Note_on_c, 10, 63, 0
11, 83040, Note_on_c, 10, 62, 74
11, 83100, Note_on_c, 10, 62, 0
11, 83100, Note_on_c, 10, 58, 78
11, 83160, Note_on_c, 10, 58, 0
11, 83160, Note_on_c, 10, 56, 76
11, 83220, Note_on_c, 10, 56, 0
11, 83220, Note_on_c, 10, 58, 74
11, 83280, Note_on_c, 10, 58, 0
11, 83280, Note_on_c, 10, 56, 80
11, 83340, Note_on_c, 10, 56, 0
11, 83340, Note_on_c, 10, 58, 73
11, 83400, Note_on_c, 10, 58, 0
11, 83400, Note_on_c, 10, 62, 69
11, 83460, Note_on_c, 10, 62, 0
11, 83460, Note_on_c, 10, 58, 81
11, 83520, Note_on_c, 10, 58, 0
11, 83520, Note_on_c, 10, 62, 67
11, 83580, Note_on_c, 10, 62, 0
11, 83580, Note_on_c, 10, 58, 84
11, 83640, Note_on_c, 10, 58, 0
11, 83640, Note_on_c, 10, 56, 77
11, 83700, Note_on_c, 10, 56, 0
11, 83700, Note_on_c, 10, 58, 74
11, 83760, Note_on_c, 10, 58, 0
11, 83760, Note_on_c, 10, 55, 69
11, 83820, Note_on_c, 10, 55, 0
11, 83820, Note_on_c, 10, 58, 80
11, 83880, Note_on_c, 10, 58, 0
11, 83880, Note_on_c, 10, 63, 76
11, 83940, Note_on_c, 10, 63, 0
11, 83940, Note_on_c, 10, 67, 55
11, 84000, Note_on_c, 10, 67, 0
11, 84000, Note_on_c, 10, 63, 84
11, 84360, Note_on_c, 10, 63, 0
11, 84420, Note_on_c, 10, 67, 93
11, 84480, Note_on_c, 10, 67, 0
11, 84480, Note_on_c, 10, 63, 89
11, 84840, Note_on_c, 10, 63, 0
11, 84900, Note_on_c, 10, 65, 82
11, 84960, Note_on_c, 10, 65, 0
11, 84960, Note_on_c, 10, 63, 93
11, 85020, Note_on_c, 10, 63, 0
11, 85080, Note_on_c, 10, 63, 90
11, 85140, Note_on_c, 10, 63, 0
11, 85200, Note_on_c, 10, 63, 84
11, 85260, Note_on_c, 10, 63, 0
11, 85260, Note_on_c, 10, 62, 95
11, 85320, Note_on_c, 10, 62, 0
11, 85320, Note_on_c, 10, 60, 81
11, 85380, Note_on_c, 10, 60, 0
11, 85380, Note_on_c, 10, 62, 93
11, 85440, Note_on_c, 10, 62, 0
11, 85440, Note_on_c, 10, 62, 94
11, 85680, Note_on_c, 10, 62, 0
11, 85680, Note_on_c, 10, 63, 86
11, 85800, Note_on_c, 10, 63, 0
11, 86880, Note_on_c, 10, 63, 43
11, 87360, Note_on_c, 10, 63, 0
11, 87360, Note_on_c, 10, 65, 57
11, 87840, Note_on_c, 10, 65, 0
11, 87840, Note_on_c, 10, 63, 43
11, 88080, Note_on_c, 10, 63, 0
11, 88080, Note_on_c, 10, 60, 44
11, 88320, Note_on_c, 10, 60, 0
11, 88320, Note_on_c, 10, 58, 53
11, 88560, Note_on_c, 10, 58, 0
11, 88560, Note_on_c, 10, 56, 44
11, 88800, Note_on_c, 10, 56, 0
11, 88800, Note_on_c, 10, 55, 44
11, 88920, Note_on_c, 10, 55, 0
11, 90120, Note_on_c, 10, 60, 62
11, 90240, Note_on_c, 10, 60, 0
11, 90360, Note_on_c, 10, 58, 64
11, 90480, Note_on_c, 10, 58, 0
11, 90600, Note_on_c, 10, 56, 68
11, 90720, Note_on_c, 10, 56, 0
11, 90720, Note_on_c, 10, 55, 68
11, 90840, Note_on_c, 10, 55, 0
11, 92640, Note_on_c, 10, 61, 64
11, 92880, Note_on_c, 10, 61, 0
11, 92880, Note_on_c, 10, 63, 63
11, 93060, Note_on_c, 10, 63, 0
11, 93060, Note_on_c, 10, 65, 65
11, 93120, Note_on_c, 10, 65, 0
11, 93120, Note_on_c, 10, 66, 68
11, 93240, Note_on_c, 10, 66, 0
11, 93240, Note_on_c, 10, 66, 70
11, 93360, Note_on_c, 10, 66, 0
11, 93480, Note_on_c, 10, 63, 67
11, 93600, Note_on_c, 10, 63, 0
11, 93720, Note_on_c, 10, 61, 73
11, 93840, Note_on_c, 10, 61, 0
11, 93960, Note_on_c, 10, 58, 68
11, 94080, Note_on_c, 10, 58, 0
11, 94200, Note_on_c, 10, 58, 72
11, 94320, Note_on_c, 10, 58, 0
11, 94440, Note_on_c, 10, 59, 69
11, 94560, Note_on_c, 10, 59, 0
11, 94680, Note_on_c, 10, 58, 68
11, 94800, Note_on_c, 10, 58, 0
11, 94920, Note_on_c, 10, 56, 66
11, 95040, Note_on_c, 10, 56, 0
11, 95040, Note_on_c, 10, 63, 59
11, 95160, Note_on_c, 10, 63, 0
11, 95220, Note_on_c, 10, 58, 68
11, 95250, Note_on_c, 10, 58, 0
11, 95280, Note_on_c, 10, 63, 58
11, 95340, Note_on_c, 10, 63, 0
11, 95700, Note_on_c, 10, 58, 59
11, 95730, Note_on_c, 10, 58, 0
11, 95760, Note_on_c, 10, 63, 61
11, 95820, Note_on_c, 10, 63, 0
11, 98100, Note_on_c, 10, 58, 81
11, 98130, Note_on_c, 10, 58, 0
11, 98160, Note_on_c, 10, 63, 80
11, 98220, Note_on_c, 10, 63, 0
11, 98580, Note_on_c, 10, 58, 78
11, 98610, Note_on_c, 10, 58, 0
11, 98640, Note_on_c, 10, 63, 80
11, 98700, Note_on_c, 10, 63, 0
11, 100320, Note_on_c, 10, 62, 62
11, 100800, Note_on_c, 10, 62, 0
11, 100800, Note_on_c, 10, 63, 61
11, 100920, Note_on_c, 10, 63, 0
11, 101220, Note_on_c, 10, 70, 69
11, 101250, Note_on_c, 10, 70, 0
11, 101280, Note_on_c, 10, 75, 78
11, 101340, Note_on_c, 10, 75, 0
11, 102180, Note_on_c, 10, 70, 76
11, 102210, Note_on_c, 10, 70, 0
11, 102240, Note_on_c, 10, 75, 68
11, 102300, Note_on_c, 10, 75, 0
11, 103140, Note_on_c, 10, 75, 76
11, 103170, Note_on_c, 10, 75, 0
11, 103200, Note_on_c, 10, 78, 64
11, 103260, Note_on_c, 10, 78, 0
11, 103800, Note_on_c, 10, 63, 58
11, 103920, Note_on_c, 10, 63, 0
11, 104040, Note_on_c, 10, 63, 54
11, 104160, Note_on_c, 10, 63, 0
11, 104280, Note_on_c, 10, 63, 56
11, 104400, Note_on_c, 10, 63, 0
11, 104520, Note_on_c, 10, 63, 69
11, 104640, Note_on_c, 10, 63, 0
11, 104640, Note_on_c, 10, 63, 63
11, 104760, Note_on_c, 10, 63, 0
11, 106560, Note_on_c, 10, 74, 66
11, 106680, Note_on_c, 10, 74, 0
11, 107520, Note_on_c, 10, 56, 64
11, 107640, Note_on_c, 10, 56, 0
11, 108480, Note_on_c, 10, 63, 76
11, 108480, Note_on_c, 10, 55, 93
11, 108510, Note_on_c, 10, 55, 0
11, 108510, Note_on_c, 10, 63, 0
11, 108510, Note_on_c, 10, 63, 72
11, 108510, Note_on_c, 10, 55, 86
11, 108540, Note_on_c, 10, 55, 0
11, 108540, Note_on_c, 10, 63, 0
11, 108540, Note_on_c, 10, 63, 73
11, 108540, Note_on_c, 10, 55, 84
11, 108570, Note_on_c, 10, 55, 0
11, 108570, Note_on_c, 10, 63, 0
11, 108570, Note_on_c, 10, 63, 73
11, 108570, Note_on_c, 10, 55, 84
11, 108600, Note_on_c, 10, 55, 0
11, 108600, Note_on_c, 10, 63, 0
11, 108600, Note_on_c, 10, 63, 72
11, 108600, Note_on_c, 10, 55, 85
11, 108630, Note_on_c, 10, 55, 0
11, 108630, Note_on_c, 10, 63, 0
11, 108630, Note_on_c, 10, 63, 80
11, 108630, Note_on_c, 10, 55, 89
11, 108660, Note_on_c, 10, 55, 0
11, 108660, Note_on_c, 10, 63, 0
11, 108660, Note_on_c, 10, 63, 73
11, 108660, Note_on_c, 10, 55, 90
11, 108690, Note_on_c, 10, 55, 0
11, 108690, Note_on_c, 10, 63, 0
11, 108690, Note_on_c, 10, 63, 77
11, 108690, Note_on_c, 10, 55, 93
11, 108720, Note_on_c, 10, 55, 0
11, 108720, Note_on_c, 10, 63, 0
11, 108720, Note_on_c, 10, 63, 72
11, 108720, Note_on_c, 10, 55, 93
11, 108750, Note_on_c, 10, 55, 0
11, 108750, Note_on_c, 10, 63, 0
11, 108750, Note_on_c, 10, 63, 71
11, 108750, Note_on_c, 10, 55, 89
11, 108780, Note_on_c, 10, 55, 0
11, 108780, Note_on_c, 10, 63, 0
11, 108780, Note_on_c, 10, 63, 72
11, 108780, Note_on_c, 10, 55, 90
11, 108810, Note_on_c, 10, 55, 0
11, 108810, Note_on_c, 10, 63, 0
11, 108810, Note_on_c, 10, 63, 72
11, 108810, Note_on_c, 10, 55, 94
11, 108840, Note_on_c, 10, 55, 0
11, 108840, Note_on_c, 10, 63, 0
11, 108840, Note_on_c, 10, 63, 71
11, 108840, Note_on_c, 10, 55, 93
11, 108870, Note_on_c, 10, 55, 0
11, 108870, Note_on_c, 10, 63, 0
11, 108870, Note_on_c, 10, 63, 76
11, 108870, Note_on_c, 10, 55, 86
11, 108900, Note_on_c, 10, 55, 0
11, 108900, Note_on_c, 10, 63, 0
11, 108900, Note_on_c, 10, 63, 73
11, 108900, Note_on_c, 10, 55, 84
11, 108930, Note_on_c, 10, 55, 0
11, 108930, Note_on_c, 10, 63, 0
11, 108930, Note_on_c, 10, 63, 73
11, 108930, Note_on_c, 10, 55, 89
11, 108960, Note_on_c, 10, 55, 0
11, 108960, Note_on_c, 10, 63, 0
11, 108960, Note_on_c, 10, 62, 72
11, 108960, Note_on_c, 10, 56, 67
11, 108990, Note_on_c, 10, 56, 0
11, 108990, Note_on_c, 10, 62, 0
11, 108990, Note_on_c, 10, 62, 70
11, 108990, Note_on_c, 10, 56, 42
11, 109020, Note_on_c, 10, 56, 0
11, 109020, Note_on_c, 10, 62, 0
11, 109020, Note_on_c, 10, 62, 77
11, 109020, Note_on_c, 10, 56, 57
11, 109050, Note_on_c, 10, 56, 0
11, 109050, Note_on_c, 10, 62, 0
11, 109050, Note_on_c, 10, 62, 76
11, 109050, Note_on_c, 10, 56, 65
11, 109080, Note_on_c, 10, 56, 0
11, 109080, Note_on_c, 10, 62, 0
11, 109080, Note_on_c, 10, 62, 78
11, 109080, Note_on_c, 10, 56, 70
11, 109110, Note_on_c, 10, 56, 0
11, 109110, Note_on_c, 10, 62, 0
11, 109110, Note_on_c, 10, 62, 76
11, 109110, Note_on_c, 10, 56, 73
11, 109140, Note_on_c, 10, 56, 0
11, 109140, Note_on_c, 10, 62, 0
11, 109140, Note_on_c, 10, 62, 80
11, 109140, Note_on_c, 10, 56, 69
11, 109170, Note_on_c, 10, 56, 0
11, 109170, Note_on_c, 10, 62, 0
11, 109170, Note_on_c, 10, 62, 80
11, 109170, Note_on_c, 10, 56, 68
11, 109200, Note_on_c, 10, 56, 0
11, 109200, Note_on_c, 10, 62, 0
11, 109200, Note_on_c, 10, 62, 76
11, 109200, Note_on_c, 10, 56, 76
11, 109230, Note_on_c, 10, 56, 0
11, 109230, Note_on_c, 10, 62, 0
11, 109230, Note_on_c, 10, 62, 77
11, 109230, Note_on_c, 10, 56, 73
11, 109260, Note_on_c, 10, 56, 0
11, 109260, Note_on_c, 10, 62, 0
11, 109260, Note_on_c, 10, 62, 80
11, 109260, Note_on_c, 10, 56, 76
11, 109290, Note_on_c, 10, 56, 0
11, 109290, Note_on_c, 10, 62, 0
11, 109290, Note_on_c, 10, 62, 80
11, 109290, Note_on_c, 10, 56, 72
11, 109320, Note_on_c, 10, 56, 0
11, 109320, Note_on_c, 10, 62, 0
11, 109320, Note_on_c, 10, 62, 73
11, 109320, Note_on_c, 10, 56, 64
11, 109350, Note_on_c, 10, 56, 0
11, 109350, Note_on_c, 10, 62, 0
11, 109350, Note_on_c, 10, 62, 73
11, 109350, Note_on_c, 10, 56, 70
11, 109380, Note_on_c, 10, 56, 0
11, 109380, Note_on_c, 10, 62, 0
11, 109380, Note_on_c, 10, 62, 76
11, 109380, Note_on_c, 10, 56, 72
11, 109410, Note_on_c, 10, 56, 0
11, 109410, Note_on_c, 10, 62, 0
11, 109410, Note_on_c, 10, 62, 80
11, 109410, Note_on_c, 10, 56, 76
11, 109440, Note_on_c, 10, 56, 0
11, 109440, Note_on_c, 10, 62, 0
11, 109440, Note_on_c, 10, 63, 77
11, 109440, Note_on_c, 10, 55, 94
11, 109470, Note_on_c, 10, 55, 0
11, 109470, Note_on_c, 10, 63, 0
11, 109470, Note_on_c, 10, 67, 86
11, 109500, Note_on_c, 10, 67, 0
11, 109500, Note_on_c, 10, 67, 86
11, 109530, Note_on_c, 10, 67, 0
11, 109530, Note_on_c, 10, 67, 89
11, 109560, Note_on_c, 10, 67, 0
11, 109560, Note_on_c, 10, 67, 93
11, 109590, Note_on_c, 10, 67, 0
11, 109590, Note_on_c, 10, 67, 90
11, 109620, Note_on_c, 10, 67, 0
11, 109620, Note_on_c, 10, 67, 86
11, 109650, Note_on_c, 10, 67, 0
11, 109650, Note_on_c, 10, 67, 89
11, 109680, Note_on_c, 10, 67, 0
11, 109680, Note_on_c, 10, 67, 89
11, 109710, Note_on_c, 10, 67, 0
11, 109710, Note_on_c, 10, 67, 89
11, 109740, Note_on_c, 10, 67, 0
11, 109740, Note_on_c, 10, 67, 84
11, 109770, Note_on_c, 10, 67, 0
11, 109770, Note_on_c, 10, 67, 86
11, 109800, Note_on_c, 10, 67, 0
11, 109800, Note_on_c, 10, 67, 82
11, 109830, Note_on_c, 10, 67, 0
11, 109830, Note_on_c, 10, 67, 86
11, 109860, Note_on_c, 10, 67, 0
11, 109860, Note_on_c, 10, 67, 89
11, 109890, Note_on_c, 10, 67, 0
11, 109890, Note_on_c, 10, 67, 89
11, 109920, Note_on_c, 10, 67, 0
11, 109920, Note_on_c, 10, 65, 93
11, 109950, Note_on_c, 10, 65, 0
11, 109950, Note_on_c, 10, 65, 94
11, 109980, Note_on_c, 10, 65, 0
11, 109980, Note_on_c, 10, 65, 94
11, 110010, Note_on_c, 10, 65, 0
11, 110010, Note_on_c, 10, 65, 95
11, 110040, Note_on_c, 10, 65, 0
11, 110040, Note_on_c, 10, 65, 90
11, 110070, Note_on_c, 10, 65, 0
11, 110070, Note_on_c, 10, 65, 89
11, 110100, Note_on_c, 10, 65, 0
11, 110100, Note_on_c, 10, 65, 93
11, 110130, Note_on_c, 10, 65, 0
11, 110130, Note_on_c, 10, 65, 94
11, 110160, Note_on_c, 10, 65, 0
11, 110160, Note_on_c, 10, 65, 94
11, 110190, Note_on_c, 10, 65, 0
11, 110190, Note_on_c, 10, 65, 93
11, 110220, Note_on_c, 10, 65, 0
11, 110220, Note_on_c, 10, 65, 94
11, 110250, Note_on_c, 10, 65, 0
11, 110250, Note_on_c, 10, 65, 94
11, 110280, Note_on_c, 10, 65, 0
11, 110280, Note_on_c, 10, 65, 94
11, 110310, Note_on_c, 10, 65, 0
11, 110310, Note_on_c, 10, 65, 94
11, 110340, Note_on_c, 10, 65, 0
11, 110340, Note_on_c, 10, 65, 94
11, 110370, Note_on_c, 10, 65, 0
11, 110370, Note_on_c, 10, 65, 95
11, 110400, Note_on_c, 10, 65, 0
11, 110400, Note_on_c, 10, 67, 94
11, 110430, Note_on_c, 10, 67, 0
11, 110430, Note_on_c, 10, 75, 95
11, 110460, Note_on_c, 10, 75, 0
11, 110460, Note_on_c, 10, 75, 95
11, 110490, Note_on_c, 10, 75, 0
11, 110490, Note_on_c, 10, 75, 94
11, 110520, Note_on_c, 10, 75, 0
11, 110520, Note_on_c, 10, 75, 99
11, 110550, Note_on_c, 10, 75, 0
11, 110550, Note_on_c, 10, 75, 94
11, 110580, Note_on_c, 10, 75, 0
11, 110580, Note_on_c, 10, 75, 95
11, 110610, Note_on_c, 10, 75, 0
11, 110610, Note_on_c, 10, 75, 94
11, 110640, Note_on_c, 10, 75, 0
11, 110640, Note_on_c, 10, 75, 94
11, 110670, Note_on_c, 10, 75, 0
11, 110670, Note_on_c, 10, 75, 94
11, 110700, Note_on_c, 10, 75, 0
11, 110700, Note_on_c, 10, 75, 94
11, 110730, Note_on_c, 10, 75, 0
11, 110730, Note_on_c, 10, 75, 94
11, 110760, Note_on_c, 10, 75, 0
11, 110760, Note_on_c, 10, 75, 94
11, 110790, Note_on_c, 10, 75, 0
11, 110790, Note_on_c, 10, 75, 94
11, 110820, Note_on_c, 10, 75, 0
11, 110820, Note_on_c, 10, 75, 94
11, 110850, Note_on_c, 10, 75, 0
11, 110850, Note_on_c, 10, 75, 95
11, 110880, Note_on_c, 10, 75, 0
11, 110880, Note_on_c, 10, 75, 94
11, 110910, Note_on_c, 10, 75, 0
11, 110910, Note_on_c, 10, 75, 94
11, 110940, Note_on_c, 10, 75, 0
11, 110940, Note_on_c, 10, 75, 94
11, 110970, Note_on_c, 10, 75, 0
11, 110970, Note_on_c, 10, 75, 89
11, 111000, Note_on_c, 10, 75, 0
11, 111000, Note_on_c, 10, 75, 94
11, 111030, Note_on_c, 10, 75, 0
11, 111030, Note_on_c, 10, 75, 95
11, 111060, Note_on_c, 10, 75, 0
11, 111060, Note_on_c, 10, 75, 89
11, 111090, Note_on_c, 10, 75, 0
11, 111090, Note_on_c, 10, 75, 94
11, 111120, Note_on_c, 10, 75, 0
11, 111120, Note_on_c, 10, 74, 105
11, 111150, Note_on_c, 10, 74, 0
11, 111150, Note_on_c, 10, 74, 99
11, 111180, Note_on_c, 10, 74, 0
11, 111180, Note_on_c, 10, 74, 105
11, 111210, Note_on_c, 10, 74, 0
11, 111210, Note_on_c, 10, 74, 99
11, 111240, Note_on_c, 10, 74, 0
11, 111240, Note_on_c, 10, 74, 99
11, 111270, Note_on_c, 10, 74, 0
11, 111270, Note_on_c, 10, 74, 99
11, 111300, Note_on_c, 10, 74, 0
11, 111300, Note_on_c, 10, 74, 99
11, 111330, Note_on_c, 10, 74, 0
11, 111330, Note_on_c, 10, 74, 101
11, 111360, Note_on_c, 10, 74, 0
11, 111360, Note_on_c, 10, 74, 99
11, 111390, Note_on_c, 10, 74, 0
11, 111390, Note_on_c, 10, 74, 99
11, 111420, Note_on_c, 10, 74, 0
11, 111420, Note_on_c, 10, 74, 99
11, 111450, Note_on_c, 10, 74, 0
11, 111450, Note_on_c, 10, 74, 104
11, 111480, Note_on_c, 10, 74, 0
11, 111480, Note_on_c, 10, 74, 99
11, 111510, Note_on_c, 10, 74, 0
11, 111510, Note_on_c, 10, 74, 99
11, 111540, Note_on_c, 10, 74, 0
11, 111540, Note_on_c, 10, 74, 99
11, 111570, Note_on_c, 10, 74, 0
11, 111570, Note_on_c, 10, 74, 98
11, 111600, Note_on_c, 10, 74, 0
11, 111600, Note_on_c, 10, 72, 80
11, 111630, Note_on_c, 10, 72, 0
11, 111630, Note_on_c, 10, 72, 72
11, 111660, Note_on_c, 10, 72, 0
11, 111660, Note_on_c, 10, 72, 80
11, 111690, Note_on_c, 10, 72, 0
11, 111690, Note_on_c, 10, 72, 80
11, 111720, Note_on_c, 10, 72, 0
11, 111720, Note_on_c, 10, 72, 78
11, 111750, Note_on_c, 10, 72, 0
11, 111750, Note_on_c, 10, 72, 78
11, 111780, Note_on_c, 10, 72, 0
11, 111780, Note_on_c, 10, 72, 81
11, 111810, Note_on_c, 10, 72, 0
11, 111810, Note_on_c, 10, 72, 81
11, 111840, Note_on_c, 10, 72, 0
11, 111840, Note_on_c, 10, 72, 85
11, 111870, Note_on_c, 10, 72, 0
11, 111870, Note_on_c, 10, 81, 95
11, 111900, Note_on_c, 10, 81, 0
11, 111900, Note_on_c, 10, 81, 94
11, 111930, Note_on_c, 10, 81, 0
11, 111930, Note_on_c, 10, 81, 90
11, 111960, Note_on_c, 10, 81, 0
11, 111960, Note_on_c, 10, 81, 95
11, 111990, Note_on_c, 10, 81, 0
11, 111990, Note_on_c, 10, 81, 94
11, 112020, Note_on_c, 10, 81, 0
11, 112020, Note_on_c, 10, 81, 95
11, 112050, Note_on_c, 10, 81, 0
11, 112050, Note_on_c, 10, 81, 99
11, 112080, Note_on_c, 10, 81, 0
11, 112080, Note_on_c, 10, 79, 94
11, 112110, Note_on_c, 10, 79, 0
11, 112110, Note_on_c, 10, 79, 95
11, 112140, Note_on_c, 10, 79, 0
11, 112140, Note_on_c, 10, 79, 95
11, 112170, Note_on_c, 10, 79, 0
11, 112170, Note_on_c, 10, 79, 99
11, 112200, Note_on_c, 10, 79, 0
11, 112200, Note_on_c, 10, 79, 94
11, 112230, Note_on_c, 10, 79, 0
11, 112230, Note_on_c, 10, 79, 94
11, 112260, Note_on_c, 10, 79, 0
11, 112260, Note_on_c, 10, 79, 99
11, 112290, Note_on_c, 10, 79, 0
11, 112290, Note_on_c, 10, 79, 94
11, 112320, Note_on_c, 10, 79, 0
11, 112320, Note_on_c, 10, 75, 94
11, 112350, Note_on_c, 10, 75, 0
11, 112350, Note_on_c, 10, 75, 95
11, 112380, Note_on_c, 10, 75, 0
11, 112380, Note_on_c, 10, 75, 94
11, 112410, Note_on_c, 10, 75, 0
11, 112410, Note_on_c, 10, 75, 90
11, 112440, Note_on_c, 10, 75, 0
11, 112440, Note_on_c, 10, 75, 95
11, 112470, Note_on_c, 10, 75, 0
11, 112470, Note_on_c, 10, 75, 95
11, 112500, Note_on_c, 10, 75, 0
11, 112500, Note_on_c, 10, 75, 93
11, 112530, Note_on_c, 10, 75, 0
11, 112530, Note_on_c, 10, 75, 95
11, 112560, Note_on_c, 10, 75, 0
11, 112560, Note_on_c, 10, 76, 99
11, 112590, Note_on_c, 10, 76, 0
11, 112590, Note_on_c, 10, 76, 94
11, 112620, Note_on_c, 10, 76, 0
11, 112620, Note_on_c, 10, 76, 95
11, 112650, Note_on_c, 10, 76, 0
11, 112650, Note_on_c, 10, 76, 95
11, 112680, Note_on_c, 10, 76, 0
11, 112680, Note_on_c, 10, 76, 94
11, 112710, Note_on_c, 10, 76, 0
11, 112710, Note_on_c, 10, 76, 98
11, 112740, Note_on_c, 10, 76, 0
11, 112740, Note_on_c, 10, 76, 95
11, 112770, Note_on_c, 10, 76, 0
11, 112770, Note_on_c, 10, 76, 99
11, 112800, Note_on_c, 10, 76, 0
11, 112800, Note_on_c, 10, 74, 99
11, 112830, Note_on_c, 10, 74, 0
11, 112830, Note_on_c, 10, 74, 104
11, 112860, Note_on_c, 10, 74, 0
11, 112860, Note_on_c, 10, 74, 99
11, 112890, Note_on_c, 10, 74, 0
11, 112890, Note_on_c, 10, 74, 99
11, 112920, Note_on_c, 10, 74, 0
11, 112920, Note_on_c, 10, 74, 101
11, 112950, Note_on_c, 10, 74, 0
11, 112950, Note_on_c, 10, 74, 90
11, 112980, Note_on_c, 10, 74, 0
11, 112980, Note_on_c, 10, 74, 104
11, 113010, Note_on_c, 10, 74, 0
11, 113010, Note_on_c, 10, 74, 99
11, 113040, Note_on_c, 10, 74, 0
11, 113040, Note_on_c, 10, 73, 90
11, 113070, Note_on_c, 10, 73, 0
11, 113070, Note_on_c, 10, 73, 89
11, 113100, Note_on_c, 10, 73, 0
11, 113100, Note_on_c, 10, 73, 89
11, 113130, Note_on_c, 10, 73, 0
11, 113130, Note_on_c, 10, 73, 89
11, 113160, Note_on_c, 10, 73, 0
11, 113160, Note_on_c, 10, 67, 94
11, 113190, Note_on_c, 10, 67, 0
11, 113190, Note_on_c, 10, 67, 95
11, 113220, Note_on_c, 10, 67, 0
11, 113220, Note_on_c, 10, 67, 94
11, 113250, Note_on_c, 10, 67, 0
11, 113250, Note_on_c, 10, 67, 95
11, 113280, Note_on_c, 10, 67, 0
11, 113280, Note_on_c, 10, 66, 90
11, 113340, Note_on_c, 10, 66, 0
11, 113400, Note_on_c, 10, 74, 104
11, 113640, Note_on_c, 10, 74, 0
11, 113640, Note_on_c, 10, 72, 65
11, 113760, Note_on_c, 10, 72, 0
11, 113760, Note_on_c, 10, 72, 72
11, 113820, Note_on_c, 10, 72, 0
11, 113880, Note_on_c, 10, 70, 99
11, 114120, Note_on_c, 10, 70, 0
11, 114120, Note_on_c, 10, 69, 95
11, 114180, Note_on_c, 10, 69, 0
11, 114180, Note_on_c, 10, 67, 84
11, 114240, Note_on_c, 10, 67, 0
11, 114240, Note_on_c, 10, 67, 86
11, 114300, Note_on_c, 10, 67, 0
11, 114360, Note_on_c, 10, 66, 95
11, 114600, Note_on_c, 10, 66, 0
11, 114600, Note_on_c, 10, 67, 89
11, 114660, Note_on_c, 10, 67, 0
11, 114660, Note_on_c, 10, 69, 86
11, 114720, Note_on_c, 10, 69, 0
11, 114720, Note_on_c, 10, 69, 95
11, 114780, Note_on_c, 10, 69, 0
11, 114840, Note_on_c, 10, 67, 90
11, 115080, Note_on_c, 10, 67, 0
11, 115080, Note_on_c, 10, 69, 90
11, 115140, Note_on_c, 10, 69, 0
11, 115140, Note_on_c, 10, 70, 94
11, 115200, Note_on_c, 10, 70, 0
11, 115200, Note_on_c, 10, 69, 89
11, 115260, Note_on_c, 10, 69, 0
11, 115260, Note_on_c, 10, 74, 95
11, 115320, Note_on_c, 10, 74, 0
11, 115320, Note_on_c, 10, 74, 99
11, 115350, Note_on_c, 10, 74, 0
11, 115380, Note_on_c, 10, 74, 99
11, 115410, Note_on_c, 10, 74, 0
11, 115440, Note_on_c, 10, 74, 89
11, 115470, Note_on_c, 10, 74, 0
11, 115500, Note_on_c, 10, 74, 95
11, 115530, Note_on_c, 10, 74, 0
11, 115560, Note_on_c, 10, 74, 94
11, 115590, Note_on_c, 10, 74, 0
11, 115620, Note_on_c, 10, 72, 77
11, 115650, Note_on_c, 10, 72, 0
11, 115680, Note_on_c, 10, 72, 73
11, 115740, Note_on_c, 10, 72, 0
11, 115740, Note_on_c, 10, 70, 86
11, 115800, Note_on_c, 10, 70, 0
11, 115800, Note_on_c, 10, 70, 99
11, 115830, Note_on_c, 10, 70, 0
11, 115860, Note_on_c, 10, 70, 94
11, 115890, Note_on_c, 10, 70, 0
11, 115920, Note_on_c, 10, 70, 86
11, 115950, Note_on_c, 10, 70, 0
11, 115980, Note_on_c, 10, 70, 89
11, 116010, Note_on_c, 10, 70, 0
11, 116040, Note_on_c, 10, 69, 95
11, 116070, Note_on_c, 10, 69, 0
11, 116100, Note_on_c, 10, 67, 86
11, 116130, Note_on_c, 10, 67, 0
11, 116160, Note_on_c, 10, 67, 90
11, 116220, Note_on_c, 10, 67, 0
11, 116220, Note_on_c, 10, 66, 89
11, 116280, Note_on_c, 10, 66, 0
11, 116280, Note_on_c, 10, 66, 93
11, 116310, Note_on_c, 10, 66, 0
11, 116340, Note_on_c, 10, 66, 89
11, 116370, Note_on_c, 10, 66, 0
11, 116400, Note_on_c, 10, 66, 81
11, 116430, Note_on_c, 10, 66, 0
11, 116460, Note_on_c, 10, 66, 81
11, 116490, Note_on_c, 10, 66, 0
11, 116520, Note_on_c, 10, 67, 89
11, 116550, Note_on_c, 10, 67, 0
11, 116580, Note_on_c, 10, 69, 86
11, 116610, Note_on_c, 10, 69, 0
11, 116640, Note_on_c, 10, 69, 86
11, 116700, Note_on_c, 10, 69, 0
11, 116700, Note_on_c, 10, 67, 85
11, 116760, Note_on_c, 10, 67, 0
11, 116760, Note_on_c, 10, 67, 95
11, 116790, Note_on_c, 10, 67, 0
11, 116820, Note_on_c, 10, 67, 86
11, 116850, Note_on_c, 10, 67, 0
11, 116880, Note_on_c, 10, 67, 86
11, 116910, Note_on_c, 10, 67, 0
11, 116940, Note_on_c, 10, 67, 90
11, 116970, Note_on_c, 10, 67, 0
11, 117000, Note_on_c, 10, 69, 94
11, 117030, Note_on_c, 10, 69, 0
11, 117060, Note_on_c, 10, 70, 93
11, 117090, Note_on_c, 10, 70, 0
11, 117120, Note_on_c, 10, 66, 86
11, 117150, Note_on_c, 10, 66, 0
11, 117150, Note_on_c, 10, 78, 89
11, 117180, Note_on_c, 10, 78, 0
11, 117180, Note_on_c, 10, 78, 89
11, 117210, Note_on_c, 10, 78, 0
11, 117210, Note_on_c, 10, 78, 84
11, 117240, Note_on_c, 10, 78, 0
11, 117240, Note_on_c, 10, 78, 81
11, 117270, Note_on_c, 10, 78, 0
11, 117270, Note_on_c, 10, 78, 81
11, 117300, Note_on_c, 10, 78, 0
11, 117300, Note_on_c, 10, 78, 85
11, 117330, Note_on_c, 10, 78, 0
11, 117330, Note_on_c, 10, 78, 86
11, 117360, Note_on_c, 10, 78, 0
11, 117360, Note_on_c, 10, 79, 104
11, 117390, Note_on_c, 10, 79, 0
11, 117390, Note_on_c, 10, 79, 85
11, 117420, Note_on_c, 10, 79, 0
11, 117420, Note_on_c, 10, 79, 85
11, 117450, Note_on_c, 10, 79, 0
11, 117450, Note_on_c, 10, 79, 78
11, 117480, Note_on_c, 10, 79, 0
11, 117480, Note_on_c, 10, 79, 76
11, 117510, Note_on_c, 10, 79, 0
11, 117510, Note_on_c, 10, 79, 81
11, 117540, Note_on_c, 10, 79, 0
11, 117540, Note_on_c, 10, 79, 76
11, 117570, Note_on_c, 10, 79, 0
11, 117570, Note_on_c, 10, 79, 84
11, 117600, Note_on_c, 10, 79, 0
11, 117600, Note_on_c, 10, 78, 84
11, 117630, Note_on_c, 10, 78, 0
11, 117630, Note_on_c, 10, 78, 81
11, 117660, Note_on_c, 10, 78, 0
11, 117660, Note_on_c, 10, 78, 74
11, 117690, Note_on_c, 10, 78, 0
11, 117690, Note_on_c, 10, 78, 81
11, 117720, Note_on_c, 10, 78, 0
11, 117720, Note_on_c, 10, 78, 80
11, 117750, Note_on_c, 10, 78, 0
11, 117750, Note_on_c, 10, 78, 69
11, 117780, Note_on_c, 10, 78, 0
11, 117780, Note_on_c, 10, 78, 80
11, 117810, Note_on_c, 10, 78, 0
11, 117810, Note_on_c, 10, 78, 82
11, 117840, Note_on_c, 10, 78, 0
11, 117840, Note_on_c, 10, 79, 89
11, 117870, Note_on_c, 10, 79, 0
11, 117870, Note_on_c, 10, 79, 78
11, 117900, Note_on_c, 10, 79, 0
11, 117900, Note_on_c, 10, 79, 80
11, 117930, Note_on_c, 10, 79, 0
11, 117930, Note_on_c, 10, 79, 84
11, 117960, Note_on_c, 10, 79, 0
11, 117960, Note_on_c, 10, 79, 73
11, 117990, Note_on_c, 10, 79, 0
11, 117990, Note_on_c, 10, 79, 78
11, 118020, Note_on_c, 10, 79, 0
11, 118020, Note_on_c, 10, 79, 81
11, 118050, Note_on_c, 10, 79, 0
11, 118050, Note_on_c, 10, 79, 86
11, 118080, Note_on_c, 10, 79, 0
11, 118080, Note_on_c, 10, 78, 84
11, 118110, Note_on_c, 10, 78, 0
11, 118110, Note_on_c, 10, 78, 76
11, 118140, Note_on_c, 10, 78, 0
11, 118140, Note_on_c, 10, 78, 80
11, 118170, Note_on_c, 10, 78, 0
11, 118170, Note_on_c, 10, 78, 80
11, 118200, Note_on_c, 10, 78, 0
11, 118200, Note_on_c, 10, 79, 115
11, 118230, Note_on_c, 10, 79, 0
11, 118230, Note_on_c, 10, 79, 81
11, 118260, Note_on_c, 10, 79, 0
11, 118260, Note_on_c, 10, 79, 84
11, 118290, Note_on_c, 10, 79, 0
11, 118290, Note_on_c, 10, 79, 84
11, 118320, Note_on_c, 10, 79, 0
11, 118320, Note_on_c, 10, 78, 78
11, 118350, Note_on_c, 10, 78, 0
11, 118350, Note_on_c, 10, 78, 76
11, 118380, Note_on_c, 10, 78, 0
11, 118380, Note_on_c, 10, 78, 72
11, 118410, Note_on_c, 10, 78, 0
11, 118410, Note_on_c, 10, 78, 77
11, 118440, Note_on_c, 10, 78, 0
11, 118440, Note_on_c, 10, 79, 84
11, 118470, Note_on_c, 10, 79, 0
11, 118470, Note_on_c, 10, 79, 76
11, 118500, Note_on_c, 10, 79, 0
11, 118500, Note_on_c, 10, 79, 73
11, 118530, Note_on_c, 10, 79, 0
11, 118530, Note_on_c, 10, 79, 80
11, 118560, Note_on_c, 10, 79, 0
11, 118560, Note_on_c, 10, 78, 82
11, 118590, Note_on_c, 10, 78, 0
11, 118590, Note_on_c, 10, 78, 76
11, 118620, Note_on_c, 10, 78, 0
11, 118620, Note_on_c, 10, 78, 76
11, 118650, Note_on_c, 10, 78, 0
11, 118650, Note_on_c, 10, 78, 84
11, 118680, Note_on_c, 10, 78, 0
11, 118680, Note_on_c, 10, 79, 119
11, 118710, Note_on_c, 10, 79, 0
11, 118710, Note_on_c, 10, 79, 90
11, 118740, Note_on_c, 10, 79, 0
11, 118740, Note_on_c, 10, 79, 81
11, 118770, Note_on_c, 10, 79, 0
11, 118770, Note_on_c, 10, 79, 80
11, 118800, Note_on_c, 10, 79, 0
11, 118800, Note_on_c, 10, 78, 84
11, 118830, Note_on_c, 10, 78, 0
11, 118830, Note_on_c, 10, 78, 72
11, 118860, Note_on_c, 10, 78, 0
11, 118860, Note_on_c, 10, 78, 71
11, 118890, Note_on_c, 10, 78, 0
11, 118890, Note_on_c, 10, 78, 77
11, 118920, Note_on_c, 10, 78, 0
11, 118920, Note_on_c, 10, 79, 89
11, 118950, Note_on_c, 10, 79, 0
11, 118950, Note_on_c, 10, 79, 86
11, 118980, Note_on_c, 10, 79, 0
11, 118980, Note_on_c, 10, 79, 81
11, 119010, Note_on_c, 10, 79, 0
11, 119010, Note_on_c, 10, 79, 81
11, 119040, Note_on_c, 10, 79, 0
11, 119040, Note_on_c, 10, 78, 81
11, 119160, Note_on_c, 10, 78, 0
11, 119520, Note_on_c, 10, 62, 94
11, 119640, Note_on_c, 10, 62, 0
11, 120000, Note_on_c, 10, 62, 94
11, 120120, Note_on_c, 10, 62, 0
11, 121920, Control_c, 10, 7, 99
11, 121920, Note_on_c, 10, 60, 59
11, 121940, Control_c, 10, 7, 100
11, 121960, Control_c, 10, 7, 101
11, 121980, Note_on_c, 10, 60, 0
11, 121980, Control_c, 10, 7, 102
11, 121995, Control_c, 10, 7, 103
11, 122015, Control_c, 10, 7, 104
11, 122035, Control_c, 10, 7, 105
11, 122050, Control_c, 10, 7, 106
11, 122070, Control_c, 10, 7, 107
11, 122090, Control_c, 10, 7, 108
11, 122100, Note_on_c, 10, 57, 64
11, 122105, Control_c, 10, 7, 109
11, 122125, Control_c, 10, 7, 110
11, 122130, Note_on_c, 10, 57, 0
11, 122145, Control_c, 10, 7, 111
11, 122160, Control_c, 10, 7, 112
11, 122160, Note_on_c, 10, 60, 46
11, 122180, Control_c, 10, 7, 113
11, 122200, Control_c, 10, 7, 114
11, 122220, Note_on_c, 10, 60, 0
11, 122220, Control_c, 10, 7, 115
11, 122235, Control_c, 10, 7, 116
11, 122255, Control_c, 10, 7, 117
11, 122275, Control_c, 10, 7, 118
11, 122290, Control_c, 10, 7, 119
11, 122310, Control_c, 10, 7, 120
11, 122330, Control_c, 10, 7, 121
11, 122340, Note_on_c, 10, 57, 72
11, 122345, Control_c, 10, 7, 122
11, 122365, Control_c, 10, 7, 123
11, 122370, Note_on_c, 10, 57, 0
11, 122385, Control_c, 10, 7, 124
11, 122400, Control_c, 10, 7, 124
11, 122400, Note_on_c, 10, 60, 65
11, 122420, Control_c, 10, 7, 123
11, 122430, Note_on_c, 10, 60, 0
11, 122440, Control_c, 10, 7, 122
11, 122460, Control_c, 10, 7, 121
11, 122460, Note_on_c, 10, 57, 80
11, 122480, Control_c, 10, 7, 120
11, 122490, Note_on_c, 10, 57, 0
11, 122500, Control_c, 10, 7, 119
11, 122520, Control_c, 10, 7, 118
11, 122520, Note_on_c, 10, 60, 62
11, 122535, Control_c, 10, 7, 117
11, 122550, Note_on_c, 10, 60, 0
11, 122555, Control_c, 10, 7, 116
11, 122575, Control_c, 10, 7, 115
11, 122580, Note_on_c, 10, 57, 76
11, 122595, Control_c, 10, 7, 114
11, 122610, Note_on_c, 10, 57, 0
11, 122615, Control_c, 10, 7, 113
11, 122635, Control_c, 10, 7, 112
11, 122640, Note_on_c, 10, 60, 58
11, 122650, Control_c, 10, 7, 111
11, 122670, Note_on_c, 10, 60, 0
11, 122670, Control_c, 10, 7, 110
11, 122690, Control_c, 10, 7, 109
11, 122700, Note_on_c, 10, 57, 68
11, 122710, Control_c, 10, 7, 108
11, 122730, Note_on_c, 10, 57, 0
11, 122730, Control_c, 10, 7, 107
11, 122750, Control_c, 10, 7, 106
11, 122760, Note_on_c, 10, 60, 64
11, 122765, Control_c, 10, 7, 105
11, 122785, Control_c, 10, 7, 104
11, 122790, Note_on_c, 10, 60, 0
11, 122805, Control_c, 10, 7, 103
11, 122820, Note_on_c, 10, 57, 52
11, 122825, Control_c, 10, 7, 102
11, 122845, Control_c, 10, 7, 101
11, 122850, Note_on_c, 10, 57, 0
11, 122865, Control_c, 10, 7, 100
11, 122880, Control_c, 10, 7, 99
11, 122880, Note_on_c, 10, 55, 58
11, 122940, Note_on_c, 10, 55, 0
11, 122940, Note_on_c, 10, 62, 61
11, 123000, Note_on_c, 10, 62, 0
11, 123000, Note_on_c, 10, 62, 69
11, 123060, Note_on_c, 10, 62, 0
11, 123060, Note_on_c, 10, 62, 62
11, 123120, Note_on_c, 10, 62, 0
11, 123120, Note_on_c, 10, 62, 62
11, 123180, Note_on_c, 10, 62, 0
11, 123180, Note_on_c, 10, 62, 63
11, 123240, Note_on_c, 10, 62, 0
11, 123240, Note_on_c, 10, 62, 50
11, 123300, Note_on_c, 10, 62, 0
11, 123300, Note_on_c, 10, 62, 46
11, 123360, Note_on_c, 10, 62, 0
11, 123360, Note_on_c, 10, 62, 54
11, 123420, Note_on_c, 10, 62, 0
11, 123420, Note_on_c, 10, 62, 54
11, 123480, Note_on_c, 10, 62, 0
11, 123480, Note_on_c, 10, 62, 52
11, 123540, Note_on_c, 10, 62, 0
11, 123540, Note_on_c, 10, 62, 53
11, 123600, Note_on_c, 10, 62, 0
11, 123600, Note_on_c, 10, 62, 44
11, 123660, Note_on_c, 10, 62, 0
11, 123660, Note_on_c, 10, 62, 51
11, 123720, Note_on_c, 10, 62, 0
11, 123720, Note_on_c, 10, 62, 57
11, 123780, Note_on_c, 10, 62, 0
11, 123780, Note_on_c, 10, 62, 46
11, 123840, Note_on_c, 10, 62, 0
11, 123840, Note_on_c, 10, 62, 57
11, 123900, Note_on_c, 10, 62, 0
11, 123900, Note_on_c, 10, 62, 54
11, 123960, Note_on_c, 10, 62, 0
11, 123960, Note_on_c, 10, 62, 52
11, 124020, Note_on_c, 10, 62, 0
11, 124020, Note_on_c, 10, 62, 50
11, 124080, Note_on_c, 10, 62, 0
11, 124080, Note_on_c, 10, 62, 52
11, 124140, Note_on_c, 10, 62, 0
11, 124140, Note_on_c, 10, 62, 49
11, 124200, Note_on_c, 10, 62, 0
11, 124200, Note_on_c, 10, 62, 52
11, 124260, Note_on_c, 10, 62, 0
11, 124260, Note_on_c, 10, 62, 44
11, 124320, Note_on_c, 10, 62, 0
11, 124320, Note_on_c, 10, 62, 53
11, 124380, Note_on_c, 10, 62, 0
11, 124380, Note_on_c, 10, 62, 43
11, 124440, Note_on_c, 10, 62, 0
11, 124440, Note_on_c, 10, 62, 40
11, 124500, Note_on_c, 10, 62, 0
11, 124500, Note_on_c, 10, 62, 43
11, 124560, Note_on_c, 10, 62, 0
11, 124560, Note_on_c, 10, 62, 43
11, 124620, Note_on_c, 10, 62, 0
11, 124620, Note_on_c, 10, 62, 47
11, 124680, Note_on_c, 10, 62, 0
11, 124680, Note_on_c, 10, 62, 43
11, 124740, Note_on_c, 10, 62, 0
11, 124740, Note_on_c, 10, 62, 43
11, 124800, Note_on_c, 10, 62, 0
11, 124800, Note_on_c, 10, 62, 39
11, 124860, Note_on_c, 10, 62, 0
11, 124860, Note_on_c, 10, 62, 45
11, 124920, Note_on_c, 10, 62, 0
11, 124920, Note_on_c, 10, 62, 44
11, 124980, Note_on_c, 10, 62, 0
11, 124980, Note_on_c, 10, 62, 45
11, 125040, Note_on_c, 10, 62, 0
11, 125040, Note_on_c, 10, 62, 40
11, 125100, Note_on_c, 10, 62, 0
11, 125100, Note_on_c, 10, 62, 52
11, 125160, Note_on_c, 10, 62, 0
11, 125160, Note_on_c, 10, 62, 43
11, 125220, Note_on_c, 10, 62, 0
11, 125220, Note_on_c, 10, 62, 46
11, 125280, Note_on_c, 10, 62, 0
11, 125280, Note_on_c, 10, 62, 42
11, 125340, Note_on_c, 10, 62, 0
11, 125340, Note_on_c, 10, 62, 60
11, 125400, Note_on_c, 10, 62, 0
11, 125400, Note_on_c, 10, 62, 46
11, 125460, Note_on_c, 10, 62, 0
11, 125460, Note_on_c, 10, 62, 45
11, 125520, Note_on_c, 10, 62, 0
11, 125520, Note_on_c, 10, 62, 43
11, 125580, Note_on_c, 10, 62, 0
11, 125580, Note_on_c, 10, 62, 45
11, 125640, Note_on_c, 10, 62, 0
11, 125640, Note_on_c, 10, 62, 43
11, 125700, Note_on_c, 10, 62, 0
11, 125700, Note_on_c, 10, 62, 45
11, 125760, Note_on_c, 10, 62, 0
11, 125760, Note_on_c, 10, 62, 44
11, 125820, Note_on_c, 10, 62, 0
11, 125820, Note_on_c, 10, 62, 57
11, 125880, Note_on_c, 10, 62, 0
11, 125880, Note_on_c, 10, 62, 40
11, 125940, Note_on_c, 10, 62, 0
11, 125940, Note_on_c, 10, 62, 50
11, 126000, Note_on_c, 10, 62, 0
11, 126000, Note_on_c, 10, 62, 42
11, 126060, Note_on_c, 10, 62, 0
11, 126060, Note_on_c, 10, 62, 43
11, 126120, Note_on_c, 10, 62, 0
11, 126120, Note_on_c, 10, 62, 43
11, 126180, Note_on_c, 10, 62, 0
11, 126180, Note_on_c, 10, 62, 46
11, 126240, Note_on_c, 10, 62, 0
11, 126240, Note_on_c, 10, 65, 43
11, 126300, Note_on_c, 10, 65, 0
11, 126300, Note_on_c, 10, 65, 54
11, 126360, Note_on_c, 10, 65, 0
11, 126360, Note_on_c, 10, 65, 47
11, 126420, Note_on_c, 10, 65, 0
11, 126420, Note_on_c, 10, 65, 52
11, 126480, Note_on_c, 10, 65, 0
11, 126480, Note_on_c, 10, 65, 59
11, 126540, Note_on_c, 10, 65, 0
11, 126540, Note_on_c, 10, 65, 59
11, 126600, Note_on_c, 10, 65, 0
11, 126600, Note_on_c, 10, 65, 58
11, 126660, Note_on_c, 10, 65, 0
11, 126660, Note_on_c, 10, 65, 53
11, 126720, Note_on_c, 10, 65, 0
11, 126780, Note_on_c, 10, 63, 43
11, 126840, Note_on_c, 10, 63, 0
11, 126840, Note_on_c, 10, 63, 43
11, 126900, Note_on_c, 10, 63, 0
11, 126900, Note_on_c, 10, 63, 42
11, 126960, Note_on_c, 10, 63, 0
11, 127020, Note_on_c, 10, 63, 43
11, 127080, Note_on_c, 10, 63, 0
11, 127080, Note_on_c, 10, 63, 46
11, 127140, Note_on_c, 10, 63, 0
11, 127140, Note_on_c, 10, 63, 45
11, 127200, Note_on_c, 10, 63, 0
11, 127260, Note_on_c, 10, 67, 53
11, 127320, Note_on_c, 10, 67, 0
11, 127320, Note_on_c, 10, 67, 62
11, 127380, Note_on_c, 10, 67, 0
11, 127380, Note_on_c, 10, 67, 57
11, 127440, Note_on_c, 10, 67, 0
11, 127500, Note_on_c, 10, 60, 58
11, 127560, Note_on_c, 10, 60, 0
11, 127560, Note_on_c, 10, 60, 65
11, 127620, Note_on_c, 10, 60, 0
11, 127620, Note_on_c, 10, 60, 48
11, 127680, Note_on_c, 10, 60, 0
11, 127680, Note_on_c, 10, 58, 59
11, 127800, Note_on_c, 10, 58, 0
11, 128640, Note_on_c, 10, 58, 62
11, 129120, Note_on_c, 10, 58, 0
11, 129120, Note_on_c, 10, 58, 31
11, 129240, Note_on_c, 10, 58, 0
11, 129240, Note_on_c, 10, 61, 53
11, 129360, Note_on_c, 10, 61, 0
11, 129360, Note_on_c, 10, 60, 47
11, 129480, Note_on_c, 10, 60, 0
11, 129480, Note_on_c, 10, 58, 43
11, 129600, Note_on_c, 10, 58, 0
11, 129600, Note_on_c, 10, 56, 39
11, 129660, Note_on_c, 10, 56, 0
11, 129660, Note_on_c, 10, 65, 45
11, 129720, Note_on_c, 10, 65, 0
11, 129720, Note_on_c, 10, 65, 55
11, 129780, Note_on_c, 10, 65, 0
11, 129780, Note_on_c, 10, 65, 52
11, 129840, Note_on_c, 10, 65, 0
11, 129840, Note_on_c, 10, 65, 56
11, 129900, Note_on_c, 10, 65, 0
11, 129900, Note_on_c, 10, 65, 57
11, 129960, Note_on_c, 10, 65, 0
11, 129960, Note_on_c, 10, 65, 57
11, 130020, Note_on_c, 10, 65, 0
11, 130020, Note_on_c, 10, 65, 52
11, 130080, Note_on_c, 10, 65, 0
11, 130080, Note_on_c, 10, 65, 50
11, 130140, Note_on_c, 10, 65, 0
11, 130140, Note_on_c, 10, 65, 50
11, 130200, Note_on_c, 10, 65, 0
11, 130200, Note_on_c, 10, 65, 48
11, 130260, Note_on_c, 10, 65, 0
11, 130260, Note_on_c, 10, 65, 57
11, 130320, Note_on_c, 10, 65, 0
11, 130320, Note_on_c, 10, 65, 53
11, 130380, Note_on_c, 10, 65, 0
11, 130380, Note_on_c, 10, 65, 59
11, 130440, Note_on_c, 10, 65, 0
11, 130440, Note_on_c, 10, 65, 58
11, 130500, Note_on_c, 10, 65, 0
11, 130500, Note_on_c, 10, 65, 57
11, 130560, Note_on_c, 10, 65, 0
11, 130560, Note_on_c, 10, 64, 67
11, 130620, Note_on_c, 10, 64, 0
11, 130620, Note_on_c, 10, 64, 61
11, 130680, Note_on_c, 10, 64, 0
11, 130680, Note_on_c, 10, 64, 70
11, 130740, Note_on_c, 10, 64, 0
11, 130740, Note_on_c, 10, 64, 59
11, 130800, Note_on_c, 10, 64, 0
11, 130800, Note_on_c, 10, 64, 65
11, 130860, Note_on_c, 10, 64, 0
11, 130860, Note_on_c, 10, 64, 62
11, 130920, Note_on_c, 10, 64, 0
11, 130920, Note_on_c, 10, 64, 59
11, 130980, Note_on_c, 10, 64, 0
11, 130980, Note_on_c, 10, 64, 52
11, 131040, Note_on_c, 10, 64, 0
11, 131040, Note_on_c, 10, 64, 62
11, 131100, Note_on_c, 10, 64, 0
11, 131100, Note_on_c, 10, 64, 46
11, 131160, Note_on_c, 10, 64, 0
11, 131160, Note_on_c, 10, 64, 50
11, 131220, Note_on_c, 10, 64, 0
11, 131220, Note_on_c, 10, 64, 42
11, 131280, Note_on_c, 10, 64, 0
11, 131280, Note_on_c, 10, 64, 53
11, 131340, Note_on_c, 10, 64, 0
11, 131340, Note_on_c, 10, 64, 61
11, 131400, Note_on_c, 10, 64, 0
11, 131400, Note_on_c, 10, 64, 62
11, 131460, Note_on_c, 10, 64, 0
11, 131460, Note_on_c, 10, 64, 52
11, 131520, Note_on_c, 10, 64, 0
11, 131520, Note_on_c, 10, 65, 49
11, 131580, Note_on_c, 10, 65, 0
11, 131580, Note_on_c, 10, 65, 45
11, 131640, Note_on_c, 10, 65, 0
11, 131640, Note_on_c, 10, 65, 45
11, 131700, Note_on_c, 10, 65, 0
11, 131700, Note_on_c, 10, 65, 44
11, 131760, Note_on_c, 10, 65, 0
11, 131760, Note_on_c, 10, 65, 62
11, 131820, Note_on_c, 10, 65, 0
11, 131820, Note_on_c, 10, 65, 43
11, 131880, Note_on_c, 10, 65, 0
11, 131880, Note_on_c, 10, 65, 64
11, 131940, Note_on_c, 10, 65, 0
11, 131940, Note_on_c, 10, 65, 65
11, 132000, Note_on_c, 10, 65, 0
11, 132000, Note_on_c, 10, 65, 53
11, 132060, Note_on_c, 10, 65, 0
11, 132060, Note_on_c, 10, 65, 62
11, 132120, Note_on_c, 10, 65, 0
11, 132120, Note_on_c, 10, 65, 65
11, 132180, Note_on_c, 10, 65, 0
11, 132180, Note_on_c, 10, 65, 55
11, 132240, Note_on_c, 10, 65, 0
11, 132240, Note_on_c, 10, 65, 68
11, 132300, Note_on_c, 10, 65, 0
11, 132300, Note_on_c, 10, 65, 64
11, 132360, Note_on_c, 10, 65, 0
11, 132360, Note_on_c, 10, 65, 66
11, 132420, Note_on_c, 10, 65, 0
11, 132420, Note_on_c, 10, 65, 60
11, 132480, Note_on_c, 10, 65, 0
11, 132540, Note_on_c, 10, 65, 69
11, 132600, Note_on_c, 10, 65, 0
11, 132600, Note_on_c, 10, 65, 62
11, 132660, Note_on_c, 10, 65, 0
11, 132660, Note_on_c, 10, 65, 67
11, 132720, Note_on_c, 10, 65, 0
11, 132780, Note_on_c, 10, 65, 56
11, 132840, Note_on_c, 10, 65, 0
11, 132840, Note_on_c, 10, 65, 65
11, 132900, Note_on_c, 10, 65, 0
11, 132900, Note_on_c, 10, 65, 66
11, 132960, Note_on_c, 10, 65, 0
11, 133020, Note_on_c, 10, 65, 59
11, 133080, Note_on_c, 10, 65, 0
11, 133080, Note_on_c, 10, 65, 67
11, 133140, Note_on_c, 10, 65, 0
11, 133140, Note_on_c, 10, 65, 64
11, 133200, Note_on_c, 10, 65, 0
11, 133260, Note_on_c, 10, 58, 64
11, 133320, Note_on_c, 10, 58, 0
11, 133320, Note_on_c, 10, 58, 43
11, 133380, Note_on_c, 10, 58, 0
11, 133380, Note_on_c, 10, 58, 58
11, 133440, Note_on_c, 10, 58, 0
11, 133440, Note_on_c, 10, 56, 67
11, 133500, Note_on_c, 10, 56, 0
11, 133500, Note_on_c, 10, 60, 58
11, 133560, Note_on_c, 10, 60, 0
11, 133560, Note_on_c, 10, 60, 61
11, 133620, Note_on_c, 10, 60, 0
11, 133620, Note_on_c, 10, 60, 62
11, 133680, Note_on_c, 10, 60, 0
11, 133680, Note_on_c, 10, 60, 62
11, 133740, Note_on_c, 10, 60, 0
11, 133740, Note_on_c, 10, 60, 65
11, 133800, Note_on_c, 10, 60, 0
11, 133800, Note_on_c, 10, 60, 68
11, 133860, Note_on_c, 10, 60, 0
11, 133860, Note_on_c, 10, 60, 68
11, 133920, Note_on_c, 10, 60, 0
11, 133920, Note_on_c, 10, 60, 65
11, 133980, Note_on_c, 10, 60, 0
11, 133980, Note_on_c, 10, 60, 59
11, 134040, Note_on_c, 10, 60, 0
11, 134040, Note_on_c, 10, 60, 67
11, 134100, Note_on_c, 10, 60, 0
11, 134100, Note_on_c, 10, 60, 63
11, 134160, Note_on_c, 10, 60, 0
11, 134160, Note_on_c, 10, 60, 67
11, 134220, Note_on_c, 10, 60, 0
11, 134220, Note_on_c, 10, 60, 64
11, 134280, Note_on_c, 10, 60, 0
11, 134280, Note_on_c, 10, 60, 65
11, 134340, Note_on_c, 10, 60, 0
11, 134340, Note_on_c, 10, 60, 64
11, 134400, Note_on_c, 10, 60, 0
11, 134400, Note_on_c, 10, 63, 45
11, 134460, Note_on_c, 10, 63, 0
11, 134460, Note_on_c, 10, 63, 40
11, 134520, Note_on_c, 10, 63, 0
11, 134520, Note_on_c, 10, 63, 52
11, 134580, Note_on_c, 10, 63, 0
11, 134580, Note_on_c, 10, 63, 45
11, 134640, Note_on_c, 10, 63, 0
11, 134640, Note_on_c, 10, 63, 43
11, 134700, Note_on_c, 10, 63, 0
11, 134700, Note_on_c, 10, 63, 58
11, 134760, Note_on_c, 10, 63, 0
11, 134760, Note_on_c, 10, 63, 48
11, 134820, Note_on_c, 10, 63, 0
11, 134820, Note_on_c, 10, 63, 52
11, 134880, Note_on_c, 10, 63, 0
11, 134880, Note_on_c, 10, 63, 43
11, 134940, Note_on_c, 10, 63, 0
11, 134940, Note_on_c, 10, 63, 55
11, 135000, Note_on_c, 10, 63, 0
11, 135000, Note_on_c, 10, 63, 53
11, 135060, Note_on_c, 10, 63, 0
11, 135060, Note_on_c, 10, 63, 65
11, 135120, Note_on_c, 10, 63, 0
11, 135120, Note_on_c, 10, 63, 52
11, 135180, Note_on_c, 10, 63, 0
11, 135180, Note_on_c, 10, 63, 62
11, 135240, Note_on_c, 10, 63, 0
11, 135240, Note_on_c, 10, 63, 50
11, 135300, Note_on_c, 10, 63, 0
11, 135300, Note_on_c, 10, 63, 56
11, 135360, Note_on_c, 10, 63, 0
11, 135360, Note_on_c, 10, 61, 44
11, 135420, Note_on_c, 10, 61, 0
11, 135420, Note_on_c, 10, 61, 45
11, 135480, Note_on_c, 10, 61, 0
11, 135480, Note_on_c, 10, 61, 47
11, 135540, Note_on_c, 10, 61, 0
11, 135540, Note_on_c, 10, 61, 48
11, 135600, Note_on_c, 10, 61, 0
11, 135600, Note_on_c, 10, 61, 51
11, 135660, Note_on_c, 10, 61, 0
11, 135660, Note_on_c, 10, 61, 54
11, 135720, Note_on_c, 10, 61, 0
11, 135720, Note_on_c, 10, 61, 46
11, 135780, Note_on_c, 10, 61, 0
11, 135780, Note_on_c, 10, 61, 47
11, 135840, Note_on_c, 10, 61, 0
11, 135840, Note_on_c, 10, 61, 61
11, 135900, Note_on_c, 10, 61, 0
11, 135900, Note_on_c, 10, 61, 53
11, 135960, Note_on_c, 10, 61, 0
11, 135960, Note_on_c, 10, 61, 52
11, 136020, Note_on_c, 10, 61, 0
11, 136020, Note_on_c, 10, 61, 56
11, 136080, Note_on_c, 10, 61, 0
11, 136080, Note_on_c, 10, 61, 59
11, 136140, Note_on_c, 10, 61, 0
11, 136140, Note_on_c, 10, 61, 50
11, 136200, Note_on_c, 10, 61, 0
11, 136200, Note_on_c, 10, 61, 58
11, 136260, Note_on_c, 10, 61, 0
11, 136260, Note_on_c, 10, 61, 61
11, 136320, Note_on_c, 10, 61, 0
11, 136320, Note_on_c, 10, 63, 45
11, 136380, Note_on_c, 10, 63, 0
11, 136380, Note_on_c, 10, 63, 40
11, 136440, Note_on_c, 10, 63, 0
11, 136440, Note_on_c, 10, 63, 52
11, 136500, Note_on_c, 10, 63, 0
11, 136500, Note_on_c, 10, 63, 45
11, 136560, Note_on_c, 10, 63, 0
11, 136560, Note_on_c, 10, 63, 43
11, 136620, Note_on_c, 10, 63, 0
11, 136620, Note_on_c, 10, 63, 58
11, 136680, Note_on_c, 10, 63, 0
11, 136680, Note_on_c, 10, 63, 48
11, 136740, Note_on_c, 10, 63, 0
11, 136740, Note_on_c, 10, 63, 52
11, 136800, Note_on_c, 10, 63, 0
11, 136800, Note_on_c, 10, 63, 43
11, 136860, Note_on_c, 10, 63, 0
11, 136860, Note_on_c, 10, 63, 55
11, 136920, Note_on_c, 10, 63, 0
11, 136920, Note_on_c, 10, 63, 53
11, 136980, Note_on_c, 10, 63, 0
11, 136980, Note_on_c, 10, 63, 65
11, 137040, Note_on_c, 10, 63, 0
11, 137040, Note_on_c, 10, 63, 52
11, 137100, Note_on_c, 10, 63, 0
11, 137100, Note_on_c, 10, 63, 62
11, 137160, Note_on_c, 10, 63, 0
11, 137160, Note_on_c, 10, 63, 50
11, 137220, Note_on_c, 10, 63, 0
11, 137220, Note_on_c, 10, 63, 56
11, 137280, Note_on_c, 10, 63, 0
11, 137280, Note_on_c, 10, 61, 44
11, 137340, Note_on_c, 10, 61, 0
11, 137340, Note_on_c, 10, 61, 45
11, 137400, Note_on_c, 10, 61, 0
11, 137400, Note_on_c, 10, 61, 47
11, 137460, Note_on_c, 10, 61, 0
11, 137460, Note_on_c, 10, 61, 48
11, 137520, Note_on_c, 10, 61, 0
11, 137520, Note_on_c, 10, 61, 51
11, 137580, Note_on_c, 10, 61, 0
11, 137580, Note_on_c, 10, 61, 54
11, 137640, Note_on_c, 10, 61, 0
11, 137640, Note_on_c, 10, 61, 46
11, 137700, Note_on_c, 10, 61, 0
11, 137700, Note_on_c, 10, 61, 47
11, 137760, Note_on_c, 10, 61, 0
11, 137760, Note_on_c, 10, 62, 53
11, 137820, Note_on_c, 10, 62, 0
11, 137820, Note_on_c, 10, 62, 46
11, 137880, Note_on_c, 10, 62, 0
11, 137880, Note_on_c, 10, 62, 43
11, 137940, Note_on_c, 10, 62, 0
11, 137940, Note_on_c, 10, 62, 43
11, 138000, Note_on_c, 10, 62, 0
11, 138000, Note_on_c, 10, 62, 43
11, 138060, Note_on_c, 10, 62, 0
11, 138060, Note_on_c, 10, 62, 40
11, 138120, Note_on_c, 10, 62, 0
11, 138120, Note_on_c, 10, 62, 64
11, 138180, Note_on_c, 10, 62, 0
11, 138180, Note_on_c, 10, 62, 67
11, 138240, Note_on_c, 10, 62, 0
11, 138240, Note_on_c, 10, 60, 70
11, 138300, Note_on_c, 10, 60, 0
11, 138300, Note_on_c, 10, 72, 56
11, 138360, Note_on_c, 10, 72, 0
11, 138360, Note_on_c, 10, 72, 55
11, 138420, Note_on_c, 10, 72, 0
11, 138420, Note_on_c, 10, 72, 61
11, 138480, Note_on_c, 10, 72, 0
11, 138480, Note_on_c, 10, 72, 61
11, 138540, Note_on_c, 10, 72, 0
11, 138540, Note_on_c, 10, 72, 54
11, 138600, Note_on_c, 10, 72, 0
11, 138600, Note_on_c, 10, 72, 55
11, 138660, Note_on_c, 10, 72, 0
11, 138660, Note_on_c, 10, 72, 62
11, 138720, Note_on_c, 10, 72, 0
11, 138780, Note_on_c, 10, 68, 47
11, 138840, Note_on_c, 10, 68, 0
11, 138840, Note_on_c, 10, 68, 65
11, 138900, Note_on_c, 10, 68, 0
11, 138900, Note_on_c, 10, 68, 68
11, 138960, Note_on_c, 10, 68, 0
11, 139020, Note_on_c, 10, 69, 71
11, 139080, Note_on_c, 10, 69, 0
11, 139080, Note_on_c, 10, 69, 65
11, 139140, Note_on_c, 10, 69, 0
11, 139140, Note_on_c, 10, 69, 67
11, 139200, Note_on_c, 10, 69, 0
11, 139200, Note_on_c, 10, 67, 41
11, 139320, Note_on_c, 10, 67, 0
11, 139920, Note_on_c, 10, 63, 45
11, 140040, Note_on_c, 10, 63, 0
11, 140100, Note_on_c, 10, 63, 40
11, 140160, Note_on_c, 10, 63, 0
11, 140160, Note_on_c, 10, 62, 45
11, 140280, Note_on_c, 10, 62, 0
11, 140880, Note_on_c, 10, 63, 43
11, 141000, Note_on_c, 10, 63, 0
11, 141060, Note_on_c, 10, 63, 45
11, 141120, Note_on_c, 10, 63, 0
11, 141120, Note_on_c, 10, 62, 49
11, 141240, Note_on_c, 10, 62, 0
11, 141360, Note_on_c, 10, 55, 61
11, 141480, Note_on_c, 10, 55, 0
11, 142020, Note_on_c, 10, 55, 72
11, 142050, Note_on_c, 10, 55, 0
11, 142080, Note_on_c, 10, 56, 66
11, 142140, Note_on_c, 10, 56, 0
11, 142320, Note_on_c, 10, 56, 65
11, 142380, Note_on_c, 10, 56, 0
11, 142980, Note_on_c, 10, 56, 53
11, 143010, Note_on_c, 10, 56, 0
11, 143040, Note_on_c, 10, 57, 69
11, 143100, Note_on_c, 10, 57, 0
11, 143280, Note_on_c, 10, 57, 80
11, 143340, Note_on_c, 10, 57, 0
11, 143940, Note_on_c, 10, 57, 77
11, 143970, Note_on_c, 10, 57, 0
11, 144000, Note_on_c, 10, 58, 62
11, 144060, Note_on_c, 10, 58, 0
11, 144240, Note_on_c, 10, 58, 66
11, 144300, Note_on_c, 10, 58, 0
11, 144900, Note_on_c, 10, 58, 73
11, 144930, Note_on_c, 10, 58, 0
11, 144960, Note_on_c, 10, 59, 72
11, 145020, Note_on_c, 10, 59, 0
11, 145200, Note_on_c, 10, 59, 74
11, 145260, Note_on_c, 10, 59, 0
11, 145860, Note_on_c, 10, 59, 73
11, 145890, Note_on_c, 10, 59, 0
11, 145920, Note_on_c, 10, 60, 78
11, 145980, Note_on_c, 10, 60, 0
11, 146340, Note_on_c, 10, 60, 73
11, 146400, Note_on_c, 10, 60, 0
11, 146400, Note_on_c, 10, 65, 57
11, 146520, Note_on_c, 10, 65, 0
11, 146820, Note_on_c, 10, 65, 57
11, 146880, Note_on_c, 10, 65, 0
11, 146880, Note_on_c, 10, 67, 61
11, 147000, Note_on_c, 10, 67, 0
11, 147300, Note_on_c, 10, 67, 64
11, 147360, Note_on_c, 10, 67, 0
11, 147360, Note_on_c, 10, 55, 81
11, 147480, Note_on_c, 10, 55, 0
11, 147780, Note_on_c, 10, 55, 65
11, 147840, Note_on_c, 10, 55, 0
11, 147840, Note_on_c, 10, 60, 101
11, 148080, Note_on_c, 10, 60, 0
11, 148080, Note_on_c, 10, 63, 99
11, 148320, Note_on_c, 10, 63, 0
11, 148320, Note_on_c, 10, 67, 115
11, 148500, Note_on_c, 10, 67, 0
11, 148500, Note_on_c, 10, 65, 90
11, 148530, Note_on_c, 10, 65, 0
11, 148560, Note_on_c, 10, 63, 95
11, 148620, Note_on_c, 10, 63, 0
11, 148680, Note_on_c, 10, 62, 99
11, 148740, Note_on_c, 10, 62, 0
11, 148800, Note_on_c, 10, 60, 95
11, 148860, Note_on_c, 10, 60, 0
11, 148980, Note_on_c, 10, 55, 90
11, 149010, Note_on_c, 10, 55, 0
11, 149040, Note_on_c, 10, 60, 99
11, 149100, Note_on_c, 10, 60, 0
11, 149220, Note_on_c, 10, 55, 99
11, 149250, Note_on_c, 10, 55, 0
11, 149280, Note_on_c, 10, 60, 104
11, 149340, Note_on_c, 10, 60, 0
11, 151680, Note_on_c, 10, 58, 33
11, 151740, Note_on_c, 10, 58, 0
11, 151860, Note_on_c, 10, 58, 45
11, 151890, Note_on_c, 10, 58, 0
11, 151920, Note_on_c, 10, 58, 45
11, 151980, Note_on_c, 10, 58, 0
11, 152100, Note_on_c, 10, 58, 43
11, 152130, Note_on_c, 10, 58, 0
11, 152160, Note_on_c, 10, 58, 43
11, 152220, Note_on_c, 10, 58, 0
11, 153600, Note_on_c, 10, 56, 46
11, 153660, Note_on_c, 10, 56, 0
11, 153780, Note_on_c, 10, 56, 45
11, 153810, Note_on_c, 10, 56, 0
11, 153840, Note_on_c, 10, 56, 43
11, 153900, Note_on_c, 10, 56, 0
11, 154020, Note_on_c, 10, 56, 44
11, 154050, Note_on_c, 10, 56, 0
11, 154080, Note_on_c, 10, 56, 54
11, 154140, Note_on_c, 10, 56, 0
11, 154560, Note_on_c, 10, 62, 43
11, 154680, Note_on_c, 10, 62, 0
11, 155040, Note_on_c, 10, 60, 46
11, 155160, Note_on_c, 10, 60, 0
11, 155640, Note_on_c, 10, 68, 46
11, 155760, Note_on_c, 10, 68, 0
11, 155880, Note_on_c, 10, 69, 41
11, 156000, Note_on_c, 10, 69, 0
11, 156000, Note_on_c, 10, 67, 63
11, 156120, Note_on_c, 10, 67, 0
11, 158040, Note_on_c, 10, 55, 66
11, 158160, Note_on_c, 10, 55, 0
11, 158160, Note_on_c, 10, 57, 68
11, 158280, Note_on_c, 10, 57, 0
11, 158280, Note_on_c, 10, 59, 57
11, 158400, Note_on_c, 10, 59, 0
11, 158400, Note_on_c, 10, 60, 57
11, 158460, Note_on_c, 10, 60, 0
11, 158520, Note_on_c, 10, 60, 56
11, 158640, Note_on_c, 10, 60, 0
11, 158640, Note_on_c, 10, 62, 53
11, 158760, Note_on_c, 10, 62, 0
11, 158760, Note_on_c, 10, 63, 62
11, 158880, Note_on_c, 10, 63, 0
11, 158880, Note_on_c, 10, 65, 60
11, 158940, Note_on_c, 10, 65, 0
11, 159000, Note_on_c, 10, 65, 45
11, 159120, Note_on_c, 10, 65, 0
11, 159120, Note_on_c, 10, 63, 57
11, 159240, Note_on_c, 10, 63, 0
11, 159240, Note_on_c, 10, 62, 49
11, 159360, Note_on_c, 10, 62, 0
11, 159360, Note_on_c, 10, 63, 58
11, 159420, Note_on_c, 10, 63, 0
11, 159480, Note_on_c, 10, 63, 53
11, 159600, Note_on_c, 10, 63, 0
11, 159600, Note_on_c, 10, 62, 44
11, 159720, Note_on_c, 10, 62, 0
11, 159720, Note_on_c, 10, 60, 71
11, 159840, Note_on_c, 10, 60, 0
11, 159840, Note_on_c, 10, 59, 62
11, 159960, Note_on_c, 10, 59, 0
11, 159960, Note_on_c, 10, 71, 43
11, 160080, Note_on_c, 10, 71, 0
11, 160200, Note_on_c, 10, 72, 43
11, 160320, Note_on_c, 10, 72, 0
11, 160440, Note_on_c, 10, 71, 42
11, 160560, Note_on_c, 10, 71, 0
11, 160680, Note_on_c, 10, 72, 51
11, 160800, Note_on_c, 10, 72, 0
11, 160800, Note_on_c, 10, 71, 45
11, 160920, Note_on_c, 10, 71, 0
11, 162720, Note_on_c, 10, 64, 71
11, 162840, Note_on_c, 10, 64, 0
11, 162960, Note_on_c, 10, 65, 54
11, 163080, Note_on_c, 10, 65, 0
11, 163200, Note_on_c, 10, 64, 69
11, 163320, Note_on_c, 10, 64, 0
11, 164640, Note_on_c, 10, 65, 72
11, 164760, Note_on_c, 10, 65, 0
11, 164880, Note_on_c, 10, 64, 80
11, 165000, Note_on_c, 10, 64, 0
11, 165120, Note_on_c, 10, 69, 72
11, 165240, Note_on_c, 10, 69, 0
11, 165360, Note_on_c, 10, 67, 66
11, 165480, Note_on_c, 10, 67, 0
11, 166560, Note_on_c, 10, 72, 69
11, 166620, Note_on_c, 10, 72, 0
11, 166620, Note_on_c, 10, 67, 56
11, 166680, Note_on_c, 10, 67, 0
11, 166680, Note_on_c, 10, 72, 74
11, 166740, Note_on_c, 10, 72, 0
11, 166740, Note_on_c, 10, 67, 67
11, 166800, Note_on_c, 10, 67, 0
11, 166800, Note_on_c, 10, 71, 84
11, 166860, Note_on_c, 10, 71, 0
11, 166860, Note_on_c, 10, 67, 68
11, 166920, Note_on_c, 10, 67, 0
11, 166920, Note_on_c, 10, 65, 73
11, 166980, Note_on_c, 10, 65, 0
11, 166980, Note_on_c, 10, 67, 62
11, 167040, Note_on_c, 10, 67, 0
11, 167040, Note_on_c, 10, 64, 59
11, 167100, Note_on_c, 10, 64, 0
11, 167100, Note_on_c, 10, 67, 64
11, 167160, Note_on_c, 10, 67, 0
11, 167160, Note_on_c, 10, 64, 67
11, 167220, Note_on_c, 10, 64, 0
11, 167220, Note_on_c, 10, 67, 68
11, 167280, Note_on_c, 10, 67, 0
11, 167280, Note_on_c, 10, 64, 64
11, 167340, Note_on_c, 10, 64, 0
11, 167340, Note_on_c, 10, 67, 78
11, 167400, Note_on_c, 10, 67, 0
11, 167400, Note_on_c, 10, 64, 71
11, 167460, Note_on_c, 10, 64, 0
11, 167460, Note_on_c, 10, 60, 74
11, 167520, Note_on_c, 10, 60, 0
11, 167520, Note_on_c, 10, 62, 63
11, 167580, Note_on_c, 10, 62, 0
11, 167580, Note_on_c, 10, 67, 74
11, 167640, Note_on_c, 10, 67, 0
11, 167640, Note_on_c, 10, 62, 64
11, 167700, Note_on_c, 10, 62, 0
11, 167700, Note_on_c, 10, 67, 80
11, 167760, Note_on_c, 10, 67, 0
11, 167760, Note_on_c, 10, 65, 68
11, 167820, Note_on_c, 10, 65, 0
11, 167820, Note_on_c, 10, 67, 73
11, 167880, Note_on_c, 10, 67, 0
11, 167880, Note_on_c, 10, 65, 72
11, 167940, Note_on_c, 10, 65, 0
11, 167940, Note_on_c, 10, 67, 62
11, 168000, Note_on_c, 10, 67, 0
11, 168000, Note_on_c, 10, 65, 68
11, 168060, Note_on_c, 10, 65, 0
11, 168060, Note_on_c, 10, 67, 63
11, 168120, Note_on_c, 10, 67, 0
11, 168120, Note_on_c, 10, 65, 73
11, 168180, Note_on_c, 10, 65, 0
11, 168180, Note_on_c, 10, 67, 69
11, 168240, Note_on_c, 10, 67, 0
11, 168240, Note_on_c, 10, 64, 74
11, 168300, Note_on_c, 10, 64, 0
11, 168300, Note_on_c, 10, 67, 80
11, 168360, Note_on_c, 10, 67, 0
11, 168360, Note_on_c, 10, 72, 80
11, 168420, Note_on_c, 10, 72, 0
11, 168420, Note_on_c, 10, 72, 81
11, 168480, Note_on_c, 10, 72, 0
11, 168480, Note_on_c, 10, 65, 95
11, 168720, Note_on_c, 10, 65, 0
11, 168720, Note_on_c, 10, 64, 59
11, 168840, Note_on_c, 10, 64, 0
11, 168900, Note_on_c, 10, 60, 58
11, 168960, Note_on_c, 10, 60, 0
11, 168960, Note_on_c, 10, 69, 95
11, 169200, Note_on_c, 10, 69, 0
11, 169200, Note_on_c, 10, 67, 67
11, 169320, Note_on_c, 10, 67, 0
11, 169380, Note_on_c, 10, 74, 54
11, 169440, Note_on_c, 10, 74, 0
11, 169440, Note_on_c, 10, 72, 78
11, 169500, Note_on_c, 10, 72, 0
11, 169560, Note_on_c, 10, 72, 74
11, 169620, Note_on_c, 10, 72, 0
11, 169680, Note_on_c, 10, 72, 65
11, 169740, Note_on_c, 10, 72, 0
11, 169740, Note_on_c, 10, 71, 94
11, 169800, Note_on_c, 10, 71, 0
11, 169800, Note_on_c, 10, 69, 89
11, 169860, Note_on_c, 10, 69, 0
11, 169860, Note_on_c, 10, 71, 86
11, 169920, Note_on_c, 10, 71, 0
11, 169920, Note_on_c, 10, 71, 93
11, 170160, Note_on_c, 10, 71, 0
11, 170160, Note_on_c, 10, 72, 85
11, 170280, Note_on_c, 10, 72, 0
11, 171360, Note_on_c, 10, 72, 56
11, 171840, Note_on_c, 10, 72, 0
11, 171840, Note_on_c, 10, 74, 59
11, 172320, Note_on_c, 10, 74, 0
11, 172320, Note_on_c, 10, 72, 57
11, 172560, Note_on_c, 10, 72, 0
11, 172560, Note_on_c, 10, 69, 65
11, 172800, Note_on_c, 10, 69, 0
11, 172800, Note_on_c, 10, 67, 44
11, 173040, Note_on_c, 10, 67, 0
11, 173040, Note_on_c, 10, 65, 45
11, 173280, Note_on_c, 10, 65, 0
11, 173280, Note_on_c, 10, 64, 42
11, 173400, Note_on_c, 10, 64, 0
11, 174600, Note_on_c, 10, 69, 58
11, 174720, Note_on_c, 10, 69, 0
11, 174840, Note_on_c, 10, 67, 53
11, 174960, Note_on_c, 10, 67, 0
11, 175080, Note_on_c, 10, 65, 61
11, 175200, Note_on_c, 10, 65, 0
11, 175200, Note_on_c, 10, 64, 51
11, 175320, Note_on_c, 10, 64, 0
11, 177120, Note_on_c, 10, 58, 62
11, 177360, Note_on_c, 10, 58, 0
11, 177360, Note_on_c, 10, 60, 71
11, 177540, Note_on_c, 10, 60, 0
11, 177540, Note_on_c, 10, 62, 62
11, 177600, Note_on_c, 10, 62, 0
11, 177600, Note_on_c, 10, 63, 54
11, 177720, Note_on_c, 10, 63, 0
11, 177720, Note_on_c, 10, 63, 53
11, 177840, Note_on_c, 10, 63, 0
11, 177960, Note_on_c, 10, 60, 70
11, 178080, Note_on_c, 10, 60, 0
11, 178200, Note_on_c, 10, 58, 68
11, 178320, Note_on_c, 10, 58, 0
11, 178440, Note_on_c, 10, 62, 65
11, 178560, Note_on_c, 10, 62, 0
11, 178560, Note_on_c, 10, 63, 73
11, 178680, Note_on_c, 10, 63, 0
11, 178680, Note_on_c, 10, 72, 51
11, 178800, Note_on_c, 10, 72, 0
11, 178920, Note_on_c, 10, 68, 62
11, 179040, Note_on_c, 10, 68, 0
11, 179160, Note_on_c, 10, 67, 72
11, 179280, Note_on_c, 10, 67, 0
11, 179400, Note_on_c, 10, 65, 73
11, 179520, Note_on_c, 10, 65, 0
11, 179520, Note_on_c, 10, 64, 78
11, 179640, Note_on_c, 10, 64, 0
11, 179700, Note_on_c, 10, 55, 73
11, 179730, Note_on_c, 10, 55, 0
11, 179760, Note_on_c, 10, 60, 77
11, 179820, Note_on_c, 10, 60, 0
11, 180180, Note_on_c, 10, 55, 55
11, 180210, Note_on_c, 10, 55, 0
11, 180240, Note_on_c, 10, 60, 62
11, 180300, Note_on_c, 10, 60, 0
11, 182580, Note_on_c, 10, 67, 68
11, 182610, Note_on_c, 10, 67, 0
11, 182640, Note_on_c, 10, 72, 71
11, 182700, Note_on_c, 10, 72, 0
11, 183060, Note_on_c, 10, 67, 76
11, 183090, Note_on_c, 10, 67, 0
11, 183120, Note_on_c, 10, 72, 71
11, 183180, Note_on_c, 10, 72, 0
11, 183540, Note_on_c, 10, 71, 72
11, 183570, Note_on_c, 10, 71, 0
11, 183600, Note_on_c, 10, 69, 71
11, 183660, Note_on_c, 10, 69, 0
11, 183780, Note_on_c, 10, 67, 67
11, 183810, Note_on_c, 10, 67, 0
11, 183840, Note_on_c, 10, 65, 57
11, 183900, Note_on_c, 10, 65, 0
11, 184020, Note_on_c, 10, 64, 65
11, 184050, Note_on_c, 10, 64, 0
11, 184080, Note_on_c, 10, 62, 62
11, 184140, Note_on_c, 10, 62, 0
11, 184260, Note_on_c, 10, 64, 61
11, 184290, Note_on_c, 10, 64, 0
11, 184320, Note_on_c, 10, 62, 68
11, 184380, Note_on_c, 10, 62, 0
11, 184800, Note_on_c, 10, 67, 72
11, 185280, Note_on_c, 10, 67, 0
11, 185280, Note_on_c, 10, 67, 69
11, 185400, Note_on_c, 10, 67, 0
11, 185700, Note_on_c, 10, 67, 65
11, 185730, Note_on_c, 10, 67, 0
11, 185760, Note_on_c, 10, 72, 68
11, 185820, Note_on_c, 10, 72, 0
11, 186660, Note_on_c, 10, 69, 64
11, 186690, Note_on_c, 10, 69, 0
11, 186720, Note_on_c, 10, 72, 70
11, 186780, Note_on_c, 10, 72, 0
11, 187620, Note_on_c, 10, 72, 76
11, 187650, Note_on_c, 10, 72, 0
11, 187680, Note_on_c, 10, 75, 84
11, 187740, Note_on_c, 10, 75, 0
11, 188280, Note_on_c, 10, 60, 64
11, 188400, Note_on_c, 10, 60, 0
11, 188520, Note_on_c, 10, 60, 63
11, 188640, Note_on_c, 10, 60, 0
11, 188760, Note_on_c, 10, 60, 76
11, 188880, Note_on_c, 10, 60, 0
11, 189000, Note_on_c, 10, 60, 62
11, 189120, Note_on_c, 10, 60, 0
11, 189120, Note_on_c, 10, 60, 64
11, 189240, Note_on_c, 10, 60, 0
11, 191040, Note_on_c, 10, 71, 61
11, 191160, Note_on_c, 10, 71, 0
11, 192000, Note_on_c, 10, 62, 61
11, 192120, Note_on_c, 10, 62, 0
11, 192960, Note_on_c, 10, 55, 94
11, 192960, Note_on_c, 10, 64, 94
11, 192990, Note_on_c, 10, 64, 0
11, 192990, Note_on_c, 10, 55, 0
11, 192990, Note_on_c, 10, 64, 80
11, 192990, Note_on_c, 10, 55, 84
11, 193020, Note_on_c, 10, 55, 0
11, 193020, Note_on_c, 10, 64, 0
11, 193020, Note_on_c, 10, 55, 74
11, 193020, Note_on_c, 10, 64, 73
11, 193050, Note_on_c, 10, 64, 0
11, 193050, Note_on_c, 10, 55, 0
11, 193050, Note_on_c, 10, 55, 67
11, 193050, Note_on_c, 10, 64, 52
11, 193080, Note_on_c, 10, 64, 0
11, 193080, Note_on_c, 10, 55, 0
11, 193080, Note_on_c, 10, 64, 44
11, 193080, Note_on_c, 10, 55, 43
11, 193110, Note_on_c, 10, 55, 0
11, 193110, Note_on_c, 10, 64, 0
11, 193110, Note_on_c, 10, 64, 56
11, 193110, Note_on_c, 10, 55, 45
11, 193140, Note_on_c, 10, 55, 0
11, 193140, Note_on_c, 10, 64, 0
11, 193140, Note_on_c, 10, 64, 45
11, 193140, Note_on_c, 10, 55, 51
11, 193170, Note_on_c, 10, 55, 0
11, 193170, Note_on_c, 10, 64, 0
11, 193170, Note_on_c, 10, 64, 58
11, 193170, Note_on_c, 10, 55, 55
11, 193200, Note_on_c, 10, 55, 0
11, 193200, Note_on_c, 10, 64, 0
11, 193200, Note_on_c, 10, 55, 62
11, 193200, Note_on_c, 10, 64, 53
11, 193230, Note_on_c, 10, 64, 0
11, 193230, Note_on_c, 10, 55, 0
11, 193230, Note_on_c, 10, 64, 57
11, 193230, Note_on_c, 10, 55, 52
11, 193260, Note_on_c, 10, 55, 0
11, 193260, Note_on_c, 10, 64, 0
11, 193260, Note_on_c, 10, 64, 53
11, 193260, Note_on_c, 10, 55, 56
11, 193290, Note_on_c, 10, 55, 0
11, 193290, Note_on_c, 10, 64, 0
11, 193290, Note_on_c, 10, 64, 50
11, 193290, Note_on_c, 10, 55, 50
11, 193320, Note_on_c, 10, 55, 0
11, 193320, Note_on_c, 10, 64, 0
11, 193320, Note_on_c, 10, 55, 58
11, 193320, Note_on_c, 10, 64, 52
11, 193350, Note_on_c, 10, 64, 0
11, 193350, Note_on_c, 10, 55, 0
11, 193350, Note_on_c, 10, 64, 45
11, 193350, Note_on_c, 10, 55, 53
11, 193380, Note_on_c, 10, 55, 0
11, 193380, Note_on_c, 10, 64, 0
11, 193380, Note_on_c, 10, 55, 52
11, 193380, Note_on_c, 10, 64, 50
11, 193410, Note_on_c, 10, 64, 0
11, 193410, Note_on_c, 10, 55, 0
11, 193410, Note_on_c, 10, 55, 41
11, 193410, Note_on_c, 10, 64, 42
11, 193440, Note_on_c, 10, 64, 0
11, 193440, Note_on_c, 10, 55, 0
11, 193440, Note_on_c, 10, 64, 44
11, 193440, Note_on_c, 10, 55, 47
11, 193470, Note_on_c, 10, 55, 0
11, 193470, Note_on_c, 10, 64, 0
11, 193470, Note_on_c, 10, 55, 44
11, 193470, Note_on_c, 10, 64, 48
11, 193500, Note_on_c, 10, 64, 0
11, 193500, Note_on_c, 10, 55, 0
11, 193500, Note_on_c, 10, 55, 62
11, 193500, Note_on_c, 10, 64, 58
11, 193530, Note_on_c, 10, 64, 0
11, 193530, Note_on_c, 10, 55, 0
11, 193530, Note_on_c, 10, 55, 45
11, 193530, Note_on_c, 10, 64, 51
11, 193560, Note_on_c, 10, 64, 0
11, 193560, Note_on_c, 10, 55, 0
11, 193560, Note_on_c, 10, 64, 47
11, 193560, Note_on_c, 10, 55, 40
11, 193590, Note_on_c, 10, 55, 0
11, 193590, Note_on_c, 10, 64, 0
11, 193590, Note_on_c, 10, 64, 55
11, 193590, Note_on_c, 10, 55, 45
11, 193620, Note_on_c, 10, 55, 0
11, 193620, Note_on_c, 10, 64, 0
11, 193620, Note_on_c, 10, 55, 57
11, 193620, Note_on_c, 10, 64, 57
11, 193650, Note_on_c, 10, 64, 0
11, 193650, Note_on_c, 10, 55, 0
11, 193650, Note_on_c, 10, 55, 45
11, 193650, Note_on_c, 10, 64, 52
11, 193680, Note_on_c, 10, 64, 0
11, 193680, Note_on_c, 10, 55, 0
11, 193680, Note_on_c, 10, 64, 53
11, 193680, Note_on_c, 10, 55, 44
11, 193710, Note_on_c, 10, 55, 0
11, 193710, Note_on_c, 10, 64, 0
11, 193710, Note_on_c, 10, 64, 56
11, 193710, Note_on_c, 10, 55, 57
11, 193740, Note_on_c, 10, 55, 0
11, 193740, Note_on_c, 10, 64, 0
11, 193740, Note_on_c, 10, 55, 60
11, 193740, Note_on_c, 10, 64, 58
11, 193770, Note_on_c, 10, 64, 0
11, 193770, Note_on_c, 10, 55, 0
11, 193770, Note_on_c, 10, 55, 52
11, 193770, Note_on_c, 10, 64, 57
11, 193800, Note_on_c, 10, 64, 0
11, 193800, Note_on_c, 10, 55, 0
11, 193800, Note_on_c, 10, 64, 56
11, 193800, Note_on_c, 10, 55, 53
11, 193830, Note_on_c, 10, 55, 0
11, 193830, Note_on_c, 10, 64, 0
11, 193830, Note_on_c, 10, 55, 57
11, 193830, Note_on_c, 10, 64, 58
11, 193860, Note_on_c, 10, 64, 0
11, 193860, Note_on_c, 10, 55, 0
11, 193860, Note_on_c, 10, 55, 52
11, 193860, Note_on_c, 10, 64, 53
11, 193890, Note_on_c, 10, 64, 0
11, 193890, Note_on_c, 10, 55, 0
11, 193890, Note_on_c, 10, 64, 57
11, 193890, Note_on_c, 10, 55, 57
11, 193920, Note_on_c, 10, 55, 0
11, 193920, Note_on_c, 10, 64, 0
11, 193920, Note_on_c, 10, 55, 48
11, 193920, Note_on_c, 10, 64, 55
11, 193950, Note_on_c, 10, 64, 0
11, 193950, Note_on_c, 10, 55, 0
11, 193950, Note_on_c, 10, 55, 53
11, 193950, Note_on_c, 10, 64, 56
11, 193980, Note_on_c, 10, 64, 0
11, 193980, Note_on_c, 10, 55, 0
11, 193980, Note_on_c, 10, 64, 45
11, 193980, Note_on_c, 10, 55, 46
11, 194010, Note_on_c, 10, 55, 0
11, 194010, Note_on_c, 10, 64, 0
11, 194010, Note_on_c, 10, 64, 50
11, 194010, Note_on_c, 10, 55, 45
11, 194040, Note_on_c, 10, 55, 0
11, 194040, Note_on_c, 10, 64, 0
11, 194040, Note_on_c, 10, 55, 44
11, 194040, Note_on_c, 10, 64, 46
11, 194070, Note_on_c, 10, 64, 0
11, 194070, Note_on_c, 10, 55, 0
11, 194070, Note_on_c, 10, 64, 45
11, 194070, Note_on_c, 10, 55, 43
11, 194100, Note_on_c, 10, 55, 0
11, 194100, Note_on_c, 10, 64, 0
11, 194100, Note_on_c, 10, 55, 57
11, 194100, Note_on_c, 10, 64, 57
11, 194130, Note_on_c, 10, 64, 0
11, 194130, Note_on_c, 10, 55, 0
11, 194130, Note_on_c, 10, 55, 65
11, 194130, Note_on_c, 10, 64, 62
11, 194160, Note_on_c, 10, 64, 0
11, 194160, Note_on_c, 10, 55, 0
11, 194160, Note_on_c, 10, 55, 43
11, 194160, Note_on_c, 10, 64, 49
11, 194190, Note_on_c, 10, 64, 0
11, 194190, Note_on_c, 10, 55, 0
11, 194190, Note_on_c, 10, 55, 43
11, 194190, Note_on_c, 10, 64, 43
11, 194220, Note_on_c, 10, 64, 0
11, 194220, Note_on_c, 10, 55, 0
11, 194220, Note_on_c, 10, 55, 43
11, 194220, Note_on_c, 10, 64, 43
11, 194250, Note_on_c, 10, 64, 0
11, 194250, Note_on_c, 10, 55, 0
11, 194250, Note_on_c, 10, 55, 43
11, 194250, Note_on_c, 10, 64, 43
11, 194280, Note_on_c, 10, 64, 0
11, 194280, Note_on_c, 10, 55, 0
11, 194280, Note_on_c, 10, 64, 45
11, 194280, Note_on_c, 10, 55, 44
11, 194310, Note_on_c, 10, 55, 0
11, 194310, Note_on_c, 10, 64, 0
11, 194310, Note_on_c, 10, 64, 47
11, 194310, Note_on_c, 10, 55, 45
11, 194340, Note_on_c, 10, 55, 0
11, 194340, Note_on_c, 10, 64, 0
11, 194340, Note_on_c, 10, 55, 41
11, 194340, Note_on_c, 10, 64, 44
11, 194370, Note_on_c, 10, 64, 0
11, 194370, Note_on_c, 10, 55, 0
11, 194370, Note_on_c, 10, 55, 45
11, 194370, Note_on_c, 10, 64, 43
11, 194400, Note_on_c, 10, 64, 0
11, 194400, Note_on_c, 10, 55, 0
11, 194400, Note_on_c, 10, 65, 105
11, 194430, Note_on_c, 10, 65, 0
11, 194430, Note_on_c, 10, 56, 95
11, 194460, Note_on_c, 10, 56, 0
11, 194460, Note_on_c, 10, 56, 68
11, 194490, Note_on_c, 10, 56, 0
11, 194490, Note_on_c, 10, 56, 68
11, 194520, Note_on_c, 10, 56, 0
11, 194520, Note_on_c, 10, 56, 59
11, 194550, Note_on_c, 10, 56, 0
11, 194550, Note_on_c, 10, 56, 38
11, 194580, Note_on_c, 10, 56, 0
11, 194580, Note_on_c, 10, 56, 60
11, 194610, Note_on_c, 10, 56, 0
11, 194610, Note_on_c, 10, 56, 47
11, 194640, Note_on_c, 10, 56, 0
11, 194640, Note_on_c, 10, 56, 38
11, 194670, Note_on_c, 10, 56, 0
11, 194670, Note_on_c, 10, 56, 62
11, 194700, Note_on_c, 10, 56, 0
11, 194700, Note_on_c, 10, 56, 53
11, 194730, Note_on_c, 10, 56, 0
11, 194730, Note_on_c, 10, 56, 54
11, 194760, Note_on_c, 10, 56, 0
11, 194760, Note_on_c, 10, 56, 57
11, 194790, Note_on_c, 10, 56, 0
11, 194790, Note_on_c, 10, 56, 67
11, 194820, Note_on_c, 10, 56, 0
11, 194820, Note_on_c, 10, 56, 63
11, 194850, Note_on_c, 10, 56, 0
11, 194850, Note_on_c, 10, 56, 64
11, 194880, Note_on_c, 10, 56, 0
11, 194880, Note_on_c, 10, 56, 64
11, 194910, Note_on_c, 10, 56, 0
11, 194910, Note_on_c, 10, 56, 68
11, 194940, Note_on_c, 10, 56, 0
11, 194940, Note_on_c, 10, 56, 64
11, 194970, Note_on_c, 10, 56, 0
11, 194970, Note_on_c, 10, 56, 65
11, 195000, Note_on_c, 10, 56, 0
11, 195000, Note_on_c, 10, 56, 66
11, 195030, Note_on_c, 10, 56, 0
11, 195030, Note_on_c, 10, 56, 62
11, 195060, Note_on_c, 10, 56, 0
11, 195060, Note_on_c, 10, 56, 57
11, 195090, Note_on_c, 10, 56, 0
11, 195090, Note_on_c, 10, 56, 67
11, 195120, Note_on_c, 10, 56, 0
11, 195120, Note_on_c, 10, 56, 65
11, 195150, Note_on_c, 10, 56, 0
11, 195150, Note_on_c, 10, 56, 65
11, 195180, Note_on_c, 10, 56, 0
11, 195180, Note_on_c, 10, 56, 54
11, 195210, Note_on_c, 10, 56, 0
11, 195210, Note_on_c, 10, 56, 57
11, 195240, Note_on_c, 10, 56, 0
11, 195240, Note_on_c, 10, 56, 62
11, 195270, Note_on_c, 10, 56, 0
11, 195270, Note_on_c, 10, 56, 65
11, 195300, Note_on_c, 10, 56, 0
11, 195300, Note_on_c, 10, 56, 69
11, 195330, Note_on_c, 10, 56, 0
11, 195330, Note_on_c, 10, 56, 68
11, 195360, Note_on_c, 10, 56, 0
11, 195360, Note_on_c, 10, 56, 68
11, 195390, Note_on_c, 10, 56, 0
11, 195390, Note_on_c, 10, 68, 53
11, 195420, Note_on_c, 10, 68, 0
11, 195420, Note_on_c, 10, 68, 72
11, 195450, Note_on_c, 10, 68, 0
11, 195450, Note_on_c, 10, 68, 73
11, 195480, Note_on_c, 10, 68, 0
11, 195480, Note_on_c, 10, 70, 71
11, 195510, Note_on_c, 10, 70, 0
11, 195510, Note_on_c, 10, 70, 78
11, 195540, Note_on_c, 10, 70, 0
11, 195540, Note_on_c, 10, 70, 80
11, 195570, Note_on_c, 10, 70, 0
11, 195570, Note_on_c, 10, 70, 84
11, 195600, Note_on_c, 10, 70, 0
11, 195600, Note_on_c, 10, 68, 81
11, 195630, Note_on_c, 10, 68, 0
11, 195630, Note_on_c, 10, 68, 89
11, 195660, Note_on_c, 10, 68, 0
11, 195660, Note_on_c, 10, 68, 94
11, 195690, Note_on_c, 10, 68, 0
11, 195690, Note_on_c, 10, 68, 94
11, 195720, Note_on_c, 10, 68, 0
11, 195720, Note_on_c, 10, 67, 99
11, 195750, Note_on_c, 10, 67, 0
11, 195750, Note_on_c, 10, 67, 90
11, 195780, Note_on_c, 10, 67, 0
11, 195780, Note_on_c, 10, 67, 94
11, 195810, Note_on_c, 10, 67, 0
11, 195810, Note_on_c, 10, 67, 89
11, 195840, Note_on_c, 10, 67, 0
11, 195840, Note_on_c, 10, 65, 94
11, 195870, Note_on_c, 10, 65, 0
11, 195870, Note_on_c, 10, 71, 76
11, 195870, Note_on_c, 10, 62, 80
11, 195900, Note_on_c, 10, 62, 0
11, 195900, Note_on_c, 10, 71, 0
11, 195900, Note_on_c, 10, 62, 84
11, 195900, Note_on_c, 10, 71, 80
11, 195930, Note_on_c, 10, 71, 0
11, 195930, Note_on_c, 10, 62, 0
11, 195930, Note_on_c, 10, 62, 84
11, 195930, Note_on_c, 10, 71, 84
11, 195960, Note_on_c, 10, 71, 0
11, 195960, Note_on_c, 10, 62, 0
11, 195960, Note_on_c, 10, 62, 76
11, 195960, Note_on_c, 10, 71, 81
11, 195990, Note_on_c, 10, 71, 0
11, 195990, Note_on_c, 10, 62, 0
11, 195990, Note_on_c, 10, 62, 80
11, 195990, Note_on_c, 10, 71, 84
11, 196020, Note_on_c, 10, 71, 0
11, 196020, Note_on_c, 10, 62, 0
11, 196020, Note_on_c, 10, 62, 78
11, 196020, Note_on_c, 10, 71, 80
11, 196050, Note_on_c, 10, 71, 0
11, 196050, Note_on_c, 10, 62, 0
11, 196050, Note_on_c, 10, 62, 80
11, 196050, Note_on_c, 10, 71, 80
11, 196080, Note_on_c, 10, 71, 0
11, 196080, Note_on_c, 10, 62, 0
11, 196080, Note_on_c, 10, 71, 84
11, 196080, Note_on_c, 10, 62, 80
11, 196110, Note_on_c, 10, 62, 0
11, 196110, Note_on_c, 10, 71, 0
11, 196110, Note_on_c, 10, 62, 82
11, 196110, Note_on_c, 10, 71, 84
11, 196140, Note_on_c, 10, 71, 0
11, 196140, Note_on_c, 10, 62, 0
11, 196140, Note_on_c, 10, 62, 82
11, 196140, Note_on_c, 10, 71, 84
11, 196170, Note_on_c, 10, 71, 0
11, 196170, Note_on_c, 10, 62, 0
11, 196170, Note_on_c, 10, 62, 82
11, 196170, Note_on_c, 10, 71, 84
11, 196200, Note_on_c, 10, 71, 0
11, 196200, Note_on_c, 10, 62, 0
11, 196200, Note_on_c, 10, 71, 70
11, 196200, Note_on_c, 10, 62, 77
11, 196230, Note_on_c, 10, 62, 0
11, 196230, Note_on_c, 10, 71, 0
11, 196230, Note_on_c, 10, 62, 71
11, 196230, Note_on_c, 10, 71, 73
11, 196260, Note_on_c, 10, 71, 0
11, 196260, Note_on_c, 10, 62, 0
11, 196260, Note_on_c, 10, 62, 86
11, 196260, Note_on_c, 10, 71, 85
11, 196290, Note_on_c, 10, 71, 0
11, 196290, Note_on_c, 10, 62, 0
11, 196290, Note_on_c, 10, 62, 78
11, 196290, Note_on_c, 10, 71, 80
11, 196320, Note_on_c, 10, 71, 0
11, 196320, Note_on_c, 10, 62, 0
11, 196320, Note_on_c, 10, 62, 84
11, 196320, Note_on_c, 10, 71, 84
11, 196350, Note_on_c, 10, 71, 0
11, 196350, Note_on_c, 10, 62, 0
11, 196350, Note_on_c, 10, 62, 84
11, 196350, Note_on_c, 10, 71, 81
11, 196380, Note_on_c, 10, 71, 0
11, 196380, Note_on_c, 10, 62, 0
11, 196380, Note_on_c, 10, 62, 84
11, 196380, Note_on_c, 10, 71, 81
11, 196410, Note_on_c, 10, 71, 0
11, 196410, Note_on_c, 10, 62, 0
11, 196410, Note_on_c, 10, 62, 89
11, 196410, Note_on_c, 10, 71, 85
11, 196440, Note_on_c, 10, 71, 0
11, 196440, Note_on_c, 10, 62, 0
11, 196440, Note_on_c, 10, 62, 84
11, 196440, Note_on_c, 10, 71, 84
11, 196470, Note_on_c, 10, 71, 0
11, 196470, Note_on_c, 10, 62, 0
11, 196470, Note_on_c, 10, 62, 84
11, 196470, Note_on_c, 10, 71, 80
11, 196500, Note_on_c, 10, 71, 0
11, 196500, Note_on_c, 10, 62, 0
11, 196500, Note_on_c, 10, 62, 80
11, 196500, Note_on_c, 10, 71, 81
11, 196530, Note_on_c, 10, 71, 0
11, 196530, Note_on_c, 10, 62, 0
11, 196530, Note_on_c, 10, 62, 84
11, 196530, Note_on_c, 10, 71, 84
11, 196560, Note_on_c, 10, 71, 0
11, 196560, Note_on_c, 10, 62, 0
11, 196560, Note_on_c, 10, 62, 81
11, 196560, Note_on_c, 10, 71, 81
11, 196590, Note_on_c, 10, 71, 0
11, 196590, Note_on_c, 10, 62, 0
11, 196590, Note_on_c, 10, 62, 80
11, 196590, Note_on_c, 10, 71, 81
11, 196620, Note_on_c, 10, 71, 0
11, 196620, Note_on_c, 10, 62, 0
11, 196620, Note_on_c, 10, 62, 80
11, 196620, Note_on_c, 10, 71, 80
11, 196650, Note_on_c, 10, 71, 0
11, 196650, Note_on_c, 10, 62, 0
11, 196650, Note_on_c, 10, 62, 89
11, 196650, Note_on_c, 10, 71, 85
11, 196680, Note_on_c, 10, 71, 0
11, 196680, Note_on_c, 10, 62, 0
11, 196680, Note_on_c, 10, 62, 86
11, 196680, Note_on_c, 10, 71, 85
11, 196710, Note_on_c, 10, 71, 0
11, 196710, Note_on_c, 10, 62, 0
11, 196710, Note_on_c, 10, 62, 85
11, 196710, Note_on_c, 10, 71, 84
11, 196740, Note_on_c, 10, 71, 0
11, 196740, Note_on_c, 10, 62, 0
11, 196740, Note_on_c, 10, 62, 85
11, 196740, Note_on_c, 10, 71, 84
11, 196770, Note_on_c, 10, 71, 0
11, 196770, Note_on_c, 10, 62, 0
11, 196770, Note_on_c, 10, 71, 85
11, 196770, Note_on_c, 10, 62, 85
11, 196800, Note_on_c, 10, 62, 0
11, 196800, Note_on_c, 10, 71, 0
11, 196800, Note_on_c, 10, 71, 73
11, 196800, Note_on_c, 10, 62, 78
11, 196830, Note_on_c, 10, 62, 0
11, 196830, Note_on_c, 10, 71, 0
11, 196830, Note_on_c, 10, 62, 86
11, 196830, Note_on_c, 10, 71, 85
11, 196860, Note_on_c, 10, 71, 0
11, 196860, Note_on_c, 10, 62, 0
11, 196860, Note_on_c, 10, 71, 89
11, 196860, Note_on_c, 10, 62, 90
11, 196890, Note_on_c, 10, 62, 0
11, 196890, Note_on_c, 10, 71, 0
11, 196890, Note_on_c, 10, 62, 86
11, 196890, Note_on_c, 10, 71, 85
11, 196920, Note_on_c, 10, 71, 0
11, 196920, Note_on_c, 10, 62, 0
11, 196920, Note_on_c, 10, 80, 86
11, 196950, Note_on_c, 10, 80, 0
11, 196950, Note_on_c, 10, 80, 84
11, 196980, Note_on_c, 10, 80, 0
11, 196980, Note_on_c, 10, 80, 84
11, 197010, Note_on_c, 10, 80, 0
11, 197010, Note_on_c, 10, 80, 80
11, 197040, Note_on_c, 10, 80, 0
11, 197040, Note_on_c, 10, 79, 93
11, 197070, Note_on_c, 10, 79, 0
11, 197070, Note_on_c, 10, 79, 94
11, 197100, Note_on_c, 10, 79, 0
11, 197100, Note_on_c, 10, 79, 93
11, 197130, Note_on_c, 10, 79, 0
11, 197130, Note_on_c, 10, 79, 95
11, 197160, Note_on_c, 10, 79, 0
11, 197160, Note_on_c, 10, 77, 94
11, 197190, Note_on_c, 10, 77, 0
11, 197190, Note_on_c, 10, 77, 94
11, 197220, Note_on_c, 10, 77, 0
11, 197220, Note_on_c, 10, 77, 95
11, 197250, Note_on_c, 10, 77, 0
11, 197250, Note_on_c, 10, 77, 101
11, 197280, Note_on_c, 10, 77, 0
11, 197280, Note_on_c, 10, 75, 107
11, 197310, Note_on_c, 10, 75, 0
11, 197310, Note_on_c, 10, 75, 101
11, 197340, Note_on_c, 10, 75, 0
11, 197340, Note_on_c, 10, 75, 115
11, 197370, Note_on_c, 10, 75, 0
11, 197370, Note_on_c, 10, 75, 115
11, 197400, Note_on_c, 10, 75, 0
11, 197400, Note_on_c, 10, 75, 119
11, 197430, Note_on_c, 10, 75, 0
11, 197430, Note_on_c, 10, 75, 115
11, 197460, Note_on_c, 10, 75, 0
11, 197460, Note_on_c, 10, 75, 115
11, 197490, Note_on_c, 10, 75, 0
11, 197490, Note_on_c, 10, 75, 115
11, 197520, Note_on_c, 10, 75, 0
11, 197520, Note_on_c, 10, 75, 115
11, 197550, Note_on_c, 10, 75, 0
11, 197550, Note_on_c, 10, 75, 112
11, 197580, Note_on_c, 10, 75, 0
11, 197580, Note_on_c, 10, 75, 115
11, 197610, Note_on_c, 10, 75, 0
11, 197610, Note_on_c, 10, 75, 115
11, 197640, Note_on_c, 10, 75, 0
11, 197640, Note_on_c, 10, 75, 115
11, 197670, Note_on_c, 10, 75, 0
11, 197670, Note_on_c, 10, 75, 115
11, 197700, Note_on_c, 10, 75, 0
11, 197700, Note_on_c, 10, 75, 119
11, 197730, Note_on_c, 10, 75, 0
11, 197730, Note_on_c, 10, 75, 119
11, 197760, Note_on_c, 10, 75, 0
11, 197760, Note_on_c, 10, 75, 119
11, 197790, Note_on_c, 10, 75, 0
11, 197790, Note_on_c, 10, 75, 115
11, 197820, Note_on_c, 10, 75, 0
11, 197820, Note_on_c, 10, 75, 119
11, 197850, Note_on_c, 10, 75, 0
11, 197850, Note_on_c, 10, 75, 119
11, 197880, Note_on_c, 10, 75, 0
11, 197880, Note_on_c, 10, 75, 119
11, 197910, Note_on_c, 10, 75, 0
11, 197910, Note_on_c, 10, 75, 115
11, 197940, Note_on_c, 10, 75, 0
11, 197940, Note_on_c, 10, 75, 115
11, 197970, Note_on_c, 10, 75, 0
11, 197970, Note_on_c, 10, 75, 115
11, 198000, Note_on_c, 10, 75, 0
11, 198000, Note_on_c, 10, 75, 117
11, 198030, Note_on_c, 10, 75, 0
11, 198030, Note_on_c, 10, 75, 112
11, 198060, Note_on_c, 10, 75, 0
11, 198060, Note_on_c, 10, 75, 119
11, 198090, Note_on_c, 10, 75, 0
11, 198090, Note_on_c, 10, 75, 117
11, 198120, Note_on_c, 10, 75, 0
11, 198120, Note_on_c, 10, 75, 115
11, 198150, Note_on_c, 10, 75, 0
11, 198150, Note_on_c, 10, 75, 115
11, 198180, Note_on_c, 10, 75, 0
11, 198180, Note_on_c, 10, 75, 119
11, 198210, Note_on_c, 10, 75, 0
11, 198210, Note_on_c, 10, 75, 119
11, 198240, Note_on_c, 10, 75, 0
11, 198240, Note_on_c, 10, 75, 110
11, 198270, Note_on_c, 10, 75, 0
11, 198270, Note_on_c, 10, 67, 99
11, 198300, Note_on_c, 10, 67, 0
11, 198300, Note_on_c, 10, 67, 104
11, 198330, Note_on_c, 10, 67, 0
11, 198330, Note_on_c, 10, 67, 112
11, 198360, Note_on_c, 10, 67, 0
11, 198360, Note_on_c, 10, 67, 112
11, 198390, Note_on_c, 10, 67, 0
11, 198390, Note_on_c, 10, 67, 112
11, 198420, Note_on_c, 10, 67, 0
11, 198420, Note_on_c, 10, 67, 112
11, 198450, Note_on_c, 10, 67, 0
11, 198450, Note_on_c, 10, 67, 112
11, 198480, Note_on_c, 10, 67, 0
11, 198480, Note_on_c, 10, 68, 119
11, 198510, Note_on_c, 10, 68, 0
11, 198510, Note_on_c, 10, 68, 119
11, 198540, Note_on_c, 10, 68, 0
11, 198540, Note_on_c, 10, 68, 123
11, 198570, Note_on_c, 10, 68, 0
11, 198570, Note_on_c, 10, 68, 119
11, 198600, Note_on_c, 10, 68, 0
11, 198600, Note_on_c, 10, 68, 123
11, 198630, Note_on_c, 10, 68, 0
11, 198630, Note_on_c, 10, 68, 119
11, 198660, Note_on_c, 10, 68, 0
11, 198660, Note_on_c, 10, 68, 119
11, 198690, Note_on_c, 10, 68, 0
11, 198690, Note_on_c, 10, 68, 119
11, 198720, Note_on_c, 10, 68, 0
11, 198720, Note_on_c, 10, 67, 112
11, 198750, Note_on_c, 10, 67, 0
11, 198750, Note_on_c, 10, 67, 112
11, 198780, Note_on_c, 10, 67, 0
11, 198780, Note_on_c, 10, 67, 112
11, 198810, Note_on_c, 10, 67, 0
11, 198810, Note_on_c, 10, 67, 115
11, 198840, Note_on_c, 10, 67, 0
11, 198840, Note_on_c, 10, 67, 115
11, 198870, Note_on_c, 10, 67, 0
11, 198870, Note_on_c, 10, 67, 115
11, 198900, Note_on_c, 10, 67, 0
11, 198900, Note_on_c, 10, 67, 117
11, 198930, Note_on_c, 10, 67, 0
11, 198930, Note_on_c, 10, 67, 112
11, 198960, Note_on_c, 10, 67, 0
11, 198960, Note_on_c, 10, 66, 115
11, 198990, Note_on_c, 10, 66, 0
11, 198990, Note_on_c, 10, 66, 112
11, 199020, Note_on_c, 10, 66, 0
11, 199020, Note_on_c, 10, 66, 112
11, 199050, Note_on_c, 10, 66, 0
11, 199050, Note_on_c, 10, 66, 115
11, 199080, Note_on_c, 10, 66, 0
11, 199080, Note_on_c, 10, 66, 110
11, 199110, Note_on_c, 10, 66, 0
11, 199110, Note_on_c, 10, 66, 112
11, 199140, Note_on_c, 10, 66, 0
11, 199140, Note_on_c, 10, 66, 112
11, 199170, Note_on_c, 10, 66, 0
11, 199170, Note_on_c, 10, 66, 112
11, 199200, Note_on_c, 10, 66, 0
11, 199200, Note_on_c, 10, 55, 95
11, 199200, Note_on_c, 10, 67, 101
11, 199440, Note_on_c, 10, 67, 0
11, 199440, Note_on_c, 10, 55, 0
11, 247680, Note_on_c, 10, 60, 32
11, 248160, Note_on_c, 10, 60, 0
11, 248160, Note_on_c, 10, 61, 29
11, 248640, Note_on_c, 10, 61, 0
11, 248640, Note_on_c, 10, 60, 33
11, 249120, Note_on_c, 10, 60, 0
11, 249120, Note_on_c, 10, 62, 36
11, 249600, Note_on_c, 10, 62, 0
11, 249600, Note_on_c, 10, 60, 37
11, 250080, Note_on_c, 10, 60, 0
11, 250080, Note_on_c, 10, 61, 35
11, 250560, Note_on_c, 10, 61, 0
11, 250560, Note_on_c, 10, 60, 30
11, 251040, Note_on_c, 10, 60, 0
11, 251040, Note_on_c, 10, 62, 32
11, 251520, Note_on_c, 10, 62, 0
11, 251520, Note_on_c, 10, 60, 36
11, 251550, Note_on_c, 10, 60, 0
11, 251550, Note_on_c, 10, 60, 40
11, 251580, Note_on_c, 10, 60, 0
11, 251580, Note_on_c, 10, 60, 38
11, 251610, Note_on_c, 10, 60, 0
11, 251610, Note_on_c, 10, 60, 32
11, 251640, Note_on_c, 10, 60, 0
11, 251640, Note_on_c, 10, 60, 29
11, 251670, Note_on_c, 10, 60, 0
11, 251670, Note_on_c, 10, 60, 34
11, 251700, Note_on_c, 10, 60, 0
11, 251700, Note_on_c, 10, 60, 39
11, 251730, Note_on_c, 10, 60, 0
11, 251730, Note_on_c, 10, 60, 38
11, 251760, Note_on_c, 10, 60, 0
11, 251760, Note_on_c, 10, 60, 37
11, 251790, Note_on_c, 10, 60, 0
11, 251790, Note_on_c, 10, 60, 38
11, 251820, Note_on_c, 10, 60, 0
11, 251820, Note_on_c, 10, 60, 39
11, 251850, Note_on_c, 10, 60, 0
11, 251850, Note_on_c, 10, 60, 36
11, 251880, Note_on_c, 10, 60, 0
11, 251880, Note_on_c, 10, 60, 33
11, 251910, Note_on_c, 10, 60, 0
11, 251910, Note_on_c, 10, 60, 36
11, 251940, Note_on_c, 10, 60, 0
11, 251940, Note_on_c, 10, 60, 39
11, 251970, Note_on_c, 10, 60, 0
11, 251970, Note_on_c, 10, 60, 38
11, 252000, Note_on_c, 10, 60, 0
11, 252000, Note_on_c, 10, 60, 37
11, 252030, Note_on_c, 10, 60, 0
11, 252030, Note_on_c, 10, 60, 31
11, 252060, Note_on_c, 10, 60, 0
11, 252060, Note_on_c, 10, 60, 29
11, 252090, Note_on_c, 10, 60, 0
11, 252090, Note_on_c, 10, 60, 30
11, 252120, Note_on_c, 10, 60, 0
11, 252120, Note_on_c, 10, 60, 32
11, 252150, Note_on_c, 10, 60, 0
11, 252150, Note_on_c, 10, 60, 32
11, 252180, Note_on_c, 10, 60, 0
11, 252180, Note_on_c, 10, 60, 37
11, 252210, Note_on_c, 10, 60, 0
11, 252210, Note_on_c, 10, 60, 31
11, 252240, Note_on_c, 10, 60, 0
11, 252240, Note_on_c, 10, 60, 32
11, 252270, Note_on_c, 10, 60, 0
11, 252270, Note_on_c, 10, 60, 37
11, 252300, Note_on_c, 10, 60, 0
11, 252300, Note_on_c, 10, 60, 30
11, 252330, Note_on_c, 10, 60, 0
11, 252330, Note_on_c, 10, 60, 33
11, 252360, Note_on_c, 10, 60, 0
11, 252360, Note_on_c, 10, 60, 38
11, 252390, Note_on_c, 10, 60, 0
11, 252390, Note_on_c, 10, 60, 32
11, 252420, Note_on_c, 10, 60, 0
11, 252420, Note_on_c, 10, 60, 39
11, 252450, Note_on_c, 10, 60, 0
11, 252450, Note_on_c, 10, 60, 38
11, 252480, Note_on_c, 10, 60, 0
11, 252480, Note_on_c, 10, 62, 29
11, 252510, Note_on_c, 10, 62, 0
11, 252510, Note_on_c, 10, 62, 29
11, 252540, Note_on_c, 10, 62, 0
11, 252540, Note_on_c, 10, 62, 31
11, 252570, Note_on_c, 10, 62, 0
11, 252570, Note_on_c, 10, 62, 34
11, 252600, Note_on_c, 10, 62, 0
11, 252600, Note_on_c, 10, 62, 30
11, 252630, Note_on_c, 10, 62, 0
11, 252630, Note_on_c, 10, 62, 32
11, 252660, Note_on_c, 10, 62, 0
11, 252660, Note_on_c, 10, 62, 42
11, 252690, Note_on_c, 10, 62, 0
11, 252690, Note_on_c, 10, 62, 38
11, 252720, Note_on_c, 10, 62, 0
11, 252720, Note_on_c, 10, 62, 29
11, 252750, Note_on_c, 10, 62, 0
11, 252750, Note_on_c, 10, 62, 29
11, 252780, Note_on_c, 10, 62, 0
11, 252780, Note_on_c, 10, 62, 29
11, 252810, Note_on_c, 10, 62, 0
11, 252810, Note_on_c, 10, 62, 29
11, 252840, Note_on_c, 10, 62, 0
11, 252840, Note_on_c, 10, 62, 32
11, 252870, Note_on_c, 10, 62, 0
11, 252870, Note_on_c, 10, 62, 29
11, 252900, Note_on_c, 10, 62, 0
11, 252900, Note_on_c, 10, 62, 29
11, 252930, Note_on_c, 10, 62, 0
11, 252930, Note_on_c, 10, 62, 31
11, 252960, Note_on_c, 10, 62, 0
11, 252960, Note_on_c, 10, 59, 30
11, 252990, Note_on_c, 10, 59, 0
11, 252990, Note_on_c, 10, 59, 33
11, 253020, Note_on_c, 10, 59, 0
11, 253020, Note_on_c, 10, 59, 32
11, 253050, Note_on_c, 10, 59, 0
11, 253050, Note_on_c, 10, 59, 31
11, 253080, Note_on_c, 10, 59, 0
11, 253080, Note_on_c, 10, 59, 35
11, 253110, Note_on_c, 10, 59, 0
11, 253110, Note_on_c, 10, 59, 38
11, 253140, Note_on_c, 10, 59, 0
11, 253140, Note_on_c, 10, 59, 29
11, 253170, Note_on_c, 10, 59, 0
11, 253170, Note_on_c, 10, 59, 29
11, 253200, Note_on_c, 10, 59, 0
11, 253200, Note_on_c, 10, 59, 29
11, 253230, Note_on_c, 10, 59, 0
11, 253230, Note_on_c, 10, 59, 29
11, 253260, Note_on_c, 10, 59, 0
11, 253260, Note_on_c, 10, 59, 29
11, 253290, Note_on_c, 10, 59, 0
11, 253290, Note_on_c, 10, 59, 30
11, 253320, Note_on_c, 10, 59, 0
11, 253320, Note_on_c, 10, 59, 40
11, 253350, Note_on_c, 10, 59, 0
11, 253350, Note_on_c, 10, 59, 35
11, 253380, Note_on_c, 10, 59, 0
11, 253380, Note_on_c, 10, 59, 29
11, 253410, Note_on_c, 10, 59, 0
11, 253410, Note_on_c, 10, 59, 33
11, 253440, Note_on_c, 10, 59, 0
11, 253440, Note_on_c, 10, 60, 40
11, 253470, Note_on_c, 10, 60, 0
11, 253470, Note_on_c, 10, 63, 30
11, 253500, Note_on_c, 10, 63, 0
11, 253500, Note_on_c, 10, 63, 29
11, 253530, Note_on_c, 10, 63, 0
11, 253530, Note_on_c, 10, 63, 31
11, 253560, Note_on_c, 10, 63, 0
11, 253560, Note_on_c, 10, 63, 29
11, 253590, Note_on_c, 10, 63, 0
11, 253590, Note_on_c, 10, 63, 33
11, 253620, Note_on_c, 10, 63, 0
11, 253620, Note_on_c, 10, 63, 32
11, 253650, Note_on_c, 10, 63, 0
11, 253650, Note_on_c, 10, 63, 33
11, 253680, Note_on_c, 10, 63, 0
11, 253680, Note_on_c, 10, 63, 29
11, 253710, Note_on_c, 10, 63, 0
11, 253710, Note_on_c, 10, 63, 29
11, 253740, Note_on_c, 10, 63, 0
11, 253740, Note_on_c, 10, 63, 29
11, 253770, Note_on_c, 10, 63, 0
11, 253770, Note_on_c, 10, 63, 35
11, 253800, Note_on_c, 10, 63, 0
11, 253800, Note_on_c, 10, 63, 29
11, 253830, Note_on_c, 10, 63, 0
11, 253830, Note_on_c, 10, 63, 29
11, 253860, Note_on_c, 10, 63, 0
11, 253860, Note_on_c, 10, 63, 29
11, 253890, Note_on_c, 10, 63, 0
11, 253890, Note_on_c, 10, 63, 30
11, 253920, Note_on_c, 10, 63, 0
11, 253920, Note_on_c, 10, 63, 29
11, 253950, Note_on_c, 10, 63, 0
11, 253950, Note_on_c, 10, 63, 29
11, 253980, Note_on_c, 10, 63, 0
11, 253980, Note_on_c, 10, 63, 29
11, 254010, Note_on_c, 10, 63, 0
11, 254010, Note_on_c, 10, 63, 29
11, 254040, Note_on_c, 10, 63, 0
11, 254040, Note_on_c, 10, 63, 29
11, 254070, Note_on_c, 10, 63, 0
11, 254070, Note_on_c, 10, 63, 29
11, 254100, Note_on_c, 10, 63, 0
11, 254100, Note_on_c, 10, 63, 29
11, 254130, Note_on_c, 10, 63, 0
11, 254130, Note_on_c, 10, 63, 32
11, 254160, Note_on_c, 10, 63, 0
11, 254160, Note_on_c, 10, 63, 29
11, 254190, Note_on_c, 10, 63, 0
11, 254190, Note_on_c, 10, 63, 32
11, 254220, Note_on_c, 10, 63, 0
11, 254220, Note_on_c, 10, 63, 30
11, 254250, Note_on_c, 10, 63, 0
11, 254250, Note_on_c, 10, 63, 29
11, 254280, Note_on_c, 10, 63, 0
11, 254280, Note_on_c, 10, 63, 29
11, 254310, Note_on_c, 10, 63, 0
11, 254310, Note_on_c, 10, 63, 29
11, 254340, Note_on_c, 10, 63, 0
11, 254340, Note_on_c, 10, 63, 29
11, 254370, Note_on_c, 10, 63, 0
11, 254370, Note_on_c, 10, 63, 32
11, 254400, Note_on_c, 10, 63, 0
11, 254400, Note_on_c, 10, 65, 34
11, 254430, Note_on_c, 10, 65, 0
11, 254430, Note_on_c, 10, 65, 32
11, 254460, Note_on_c, 10, 65, 0
11, 254460, Note_on_c, 10, 65, 30
11, 254490, Note_on_c, 10, 65, 0
11, 254490, Note_on_c, 10, 65, 29
11, 254520, Note_on_c, 10, 65, 0
11, 254520, Note_on_c, 10, 65, 35
11, 254550, Note_on_c, 10, 65, 0
11, 254550, Note_on_c, 10, 65, 29
11, 254580, Note_on_c, 10, 65, 0
11, 254580, Note_on_c, 10, 65, 29
11, 254610, Note_on_c, 10, 65, 0
11, 254610, Note_on_c, 10, 65, 38
11, 254640, Note_on_c, 10, 65, 0
11, 254640, Note_on_c, 10, 65, 33
11, 254670, Note_on_c, 10, 65, 0
11, 254670, Note_on_c, 10, 65, 35
11, 254700, Note_on_c, 10, 65, 0
11, 254700, Note_on_c, 10, 65, 39
11, 254730, Note_on_c, 10, 65, 0
11, 254730, Note_on_c, 10, 65, 34
11, 254760, Note_on_c, 10, 65, 0
11, 254760, Note_on_c, 10, 65, 32
11, 254790, Note_on_c, 10, 65, 0
11, 254790, Note_on_c, 10, 65, 38
11, 254820, Note_on_c, 10, 65, 0
11, 254820, Note_on_c, 10, 65, 40
11, 254850, Note_on_c, 10, 65, 0
11, 254850, Note_on_c, 10, 65, 39
11, 254880, Note_on_c, 10, 65, 0
11, 254880, Note_on_c, 10, 62, 29
11, 254910, Note_on_c, 10, 62, 0
11, 254910, Note_on_c, 10, 62, 30
11, 254940, Note_on_c, 10, 62, 0
11, 254940, Note_on_c, 10, 62, 35
11, 254970, Note_on_c, 10, 62, 0
11, 254970, Note_on_c, 10, 62, 32
11, 255000, Note_on_c, 10, 62, 0
11, 255000, Note_on_c, 10, 62, 32
11, 255030, Note_on_c, 10, 62, 0
11, 255030, Note_on_c, 10, 62, 35
11, 255060, Note_on_c, 10, 62, 0
11, 255060, Note_on_c, 10, 62, 37
11, 255090, Note_on_c, 10, 62, 0
11, 255090, Note_on_c, 10, 62, 36
11, 255120, Note_on_c, 10, 62, 0
11, 255120, Note_on_c, 10, 62, 32
11, 255150, Note_on_c, 10, 62, 0
11, 255150, Note_on_c, 10, 62, 33
11, 255180, Note_on_c, 10, 62, 0
11, 255180, Note_on_c, 10, 62, 36
11, 255210, Note_on_c, 10, 62, 0
11, 255210, Note_on_c, 10, 62, 29
11, 255240, Note_on_c, 10, 62, 0
11, 255240, Note_on_c, 10, 62, 33
11, 255270, Note_on_c, 10, 62, 0
11, 255270, Note_on_c, 10, 62, 29
11, 255300, Note_on_c, 10, 62, 0
11, 255300, Note_on_c, 10, 62, 31
11, 255330, Note_on_c, 10, 62, 0
11, 255330, Note_on_c, 10, 62, 32
11, 255360, Note_on_c, 10, 62, 0
11, 255360, Note_on_c, 10, 63, 34
11, 255390, Note_on_c, 10, 63, 0
11, 255390, Note_on_c, 10, 72, 29
11, 255420, Note_on_c, 10, 72, 0
11, 255420, Note_on_c, 10, 72, 35
11, 255450, Note_on_c, 10, 72, 0
11, 255450, Note_on_c, 10, 72, 41
11, 255480, Note_on_c, 10, 72, 0
11, 255480, Note_on_c, 10, 72, 43
11, 255510, Note_on_c, 10, 72, 0
11, 255510, Note_on_c, 10, 72, 43
11, 255540, Note_on_c, 10, 72, 0
11, 255540, Note_on_c, 10, 72, 43
11, 255570, Note_on_c, 10, 72, 0
11, 255570, Note_on_c, 10, 72, 65
11, 255600, Note_on_c, 10, 72, 0
11, 255600, Note_on_c, 10, 72, 45
11, 255630, Note_on_c, 10, 72, 0
11, 255630, Note_on_c, 10, 72, 52
11, 255660, Note_on_c, 10, 72, 0
11, 255660, Note_on_c, 10, 72, 57
11, 255690, Note_on_c, 10, 72, 0
11, 255690, Note_on_c, 10, 72, 67
11, 255720, Note_on_c, 10, 72, 0
11, 255720, Note_on_c, 10, 72, 59
11, 255750, Note_on_c, 10, 72, 0
11, 255750, Note_on_c, 10, 72, 69
11, 255780, Note_on_c, 10, 72, 0
11, 255780, Note_on_c, 10, 72, 67
11, 255810, Note_on_c, 10, 72, 0
11, 255810, Note_on_c, 10, 72, 72
11, 255840, Note_on_c, 10, 72, 0
11, 255840, Note_on_c, 10, 74, 65
11, 255870, Note_on_c, 10, 74, 0
11, 255870, Note_on_c, 10, 74, 71
11, 255900, Note_on_c, 10, 74, 0
11, 255900, Note_on_c, 10, 74, 74
11, 255930, Note_on_c, 10, 74, 0
11, 255930, Note_on_c, 10, 74, 65
11, 255960, Note_on_c, 10, 74, 0
11, 255960, Note_on_c, 10, 74, 80
11, 255990, Note_on_c, 10, 74, 0
11, 255990, Note_on_c, 10, 74, 69
11, 256020, Note_on_c, 10, 74, 0
11, 256020, Note_on_c, 10, 74, 65
11, 256050, Note_on_c, 10, 74, 0
11, 256050, Note_on_c, 10, 74, 93
11, 256080, Note_on_c, 10, 74, 0
11, 256080, Note_on_c, 10, 71, 67
11, 256110, Note_on_c, 10, 71, 0
11, 256110, Note_on_c, 10, 71, 69
11, 256140, Note_on_c, 10, 71, 0
11, 256140, Note_on_c, 10, 71, 84
11, 256170, Note_on_c, 10, 71, 0
11, 256170, Note_on_c, 10, 71, 90
11, 256200, Note_on_c, 10, 71, 0
11, 256200, Note_on_c, 10, 71, 94
11, 256230, Note_on_c, 10, 71, 0
11, 256230, Note_on_c, 10, 71, 99
11, 256260, Note_on_c, 10, 71, 0
11, 256260, Note_on_c, 10, 71, 99
11, 256290, Note_on_c, 10, 71, 0
11, 256290, Note_on_c, 10, 71, 99
11, 256320, Note_on_c, 10, 71, 0
11, 256320, Note_on_c, 10, 72, 117
11, 256350, Note_on_c, 10, 72, 0
11, 256350, Note_on_c, 10, 75, 105
11, 256380, Note_on_c, 10, 75, 0
11, 256380, Note_on_c, 10, 75, 105
11, 256410, Note_on_c, 10, 75, 0
11, 256410, Note_on_c, 10, 75, 104
11, 256440, Note_on_c, 10, 75, 0
11, 256440, Note_on_c, 10, 75, 99
11, 256470, Note_on_c, 10, 75, 0
11, 256470, Note_on_c, 10, 75, 99
11, 256500, Note_on_c, 10, 75, 0
11, 256500, Note_on_c, 10, 75, 99
11, 256530, Note_on_c, 10, 75, 0
11, 256530, Note_on_c, 10, 75, 99
11, 256560, Note_on_c, 10, 75, 0
11, 256560, Note_on_c, 10, 75, 101
11, 256590, Note_on_c, 10, 75, 0
11, 256590, Note_on_c, 10, 75, 99
11, 256620, Note_on_c, 10, 75, 0
11, 256620, Note_on_c, 10, 75, 99
11, 256650, Note_on_c, 10, 75, 0
11, 256650, Note_on_c, 10, 75, 98
11, 256680, Note_on_c, 10, 75, 0
11, 256680, Note_on_c, 10, 75, 104
11, 256710, Note_on_c, 10, 75, 0
11, 256710, Note_on_c, 10, 75, 99
11, 256740, Note_on_c, 10, 75, 0
11, 256740, Note_on_c, 10, 75, 99
11, 256770, Note_on_c, 10, 75, 0
11, 256770, Note_on_c, 10, 75, 99
11, 256800, Note_on_c, 10, 75, 0
11, 256800, Note_on_c, 10, 77, 101
11, 256830, Note_on_c, 10, 77, 0
11, 256830, Note_on_c, 10, 77, 104
11, 256860, Note_on_c, 10, 77, 0
11, 256860, Note_on_c, 10, 77, 99
11, 256890, Note_on_c, 10, 77, 0
11, 256890, Note_on_c, 10, 77, 99
11, 256920, Note_on_c, 10, 77, 0
11, 256920, Note_on_c, 10, 77, 99
11, 256950, Note_on_c, 10, 77, 0
11, 256950, Note_on_c, 10, 77, 101
11, 256980, Note_on_c, 10, 77, 0
11, 256980, Note_on_c, 10, 77, 99
11, 257010, Note_on_c, 10, 77, 0
11, 257010, Note_on_c, 10, 77, 99
11, 257040, Note_on_c, 10, 77, 0
11, 257040, Note_on_c, 10, 74, 110
11, 257070, Note_on_c, 10, 74, 0
11, 257070, Note_on_c, 10, 74, 107
11, 257100, Note_on_c, 10, 74, 0
11, 257100, Note_on_c, 10, 74, 110
11, 257130, Note_on_c, 10, 74, 0
11, 257130, Note_on_c, 10, 74, 107
11, 257160, Note_on_c, 10, 74, 0
11, 257160, Note_on_c, 10, 74, 107
11, 257190, Note_on_c, 10, 74, 0
11, 257190, Note_on_c, 10, 74, 110
11, 257220, Note_on_c, 10, 74, 0
11, 257220, Note_on_c, 10, 74, 107
11, 257250, Note_on_c, 10, 74, 0
11, 257250, Note_on_c, 10, 74, 112
11, 257280, Note_on_c, 10, 74, 0
11, 257280, Note_on_c, 10, 72, 115
11, 257400, Note_on_c, 10, 72, 0
11, 257760, Note_on_c, 10, 63, 98
11, 257760, Note_on_c, 10, 72, 76
11, 257760, Note_on_c, 10, 79, 95
11, 257880, Note_on_c, 10, 79, 0
11, 257880, Note_on_c, 10, 72, 0
11, 257880, Note_on_c, 10, 63, 0
11, 258240, Note_on_c, 10, 63, 99
11, 258240, Note_on_c, 10, 72, 89
11, 258240, Note_on_c, 10, 79, 101
11, 258360, Note_on_c, 10, 79, 0
11, 258360, Note_on_c, 10, 72, 0
11, 258360, Note_on_c, 10, 63, 0
11, 258480, Note_on_c, 10, 72, 119
11, 258600, Note_on_c, 10, 72, 0
11, 258720, Note_on_c, 10, 67, 99
11, 258840, Note_on_c, 10, 67, 0
11, 258960, Note_on_c, 10, 63, 105
11, 259080, Note_on_c, 10, 63, 0
11, 259200, Note_on_c, 10, 60, 105
11, 259320, Note_on_c, 10, 60, 0
11, 259650, Note_on_c, 10, 60, 107
11, 259680, Note_on_c, 10, 60, 0
11, 259680, Note_on_c, 10, 60, 105
11, 259800, Note_on_c, 10, 60, 0
11, 260130, Note_on_c, 10, 60, 105
11, 260160, Note_on_c, 10, 60, 0
11, 260160, Note_on_c, 10, 60, 107
11, 260640, Note_on_c, 10, 60, 0
11, 260640, End_track
12, 0, Start_track
12, 0, MIDI_port, 0
12, 0, Title_t, "Violas"
12, 0, Program_c, 11, 48
12, 0, Control_c, 11, 7, 100
12, 0, Control_c, 11, 10, 64
12, 0, Control_c, 11, 93, 0
12, 0, Control_c, 11, 91, 66
12, 0, Note_on_c, 11, 48, 61
12, 240, Note_on_c, 11, 48, 0
12, 240, Note_on_c, 11, 51, 64
12, 480, Note_on_c, 11, 51, 0
12, 480, Note_on_c, 11, 55, 67
12, 660, Note_on_c, 11, 55, 0
12, 660, Note_on_c, 11, 53, 59
12, 690, Note_on_c, 11, 53, 0
12, 720, Note_on_c, 11, 51, 51
12, 780, Note_on_c, 11, 51, 0
12, 840, Note_on_c, 11, 50, 64
12, 900, Note_on_c, 11, 50, 0
12, 960, Note_on_c, 11, 48, 53
12, 1020, Note_on_c, 11, 48, 0
12, 1140, Note_on_c, 11, 55, 52
12, 1170, Note_on_c, 11, 55, 0
12, 1200, Note_on_c, 11, 60, 63
12, 1260, Note_on_c, 11, 60, 0
12, 1380, Note_on_c, 11, 55, 57
12, 1410, Note_on_c, 11, 55, 0
12, 1440, Note_on_c, 11, 60, 67
12, 1560, Note_on_c, 11, 60, 0
12, 3840, Note_on_c, 11, 48, 68
12, 4080, Note_on_c, 11, 48, 0
12, 4080, Note_on_c, 11, 51, 62
12, 4320, Note_on_c, 11, 51, 0
12, 4320, Note_on_c, 11, 56, 94
12, 4800, Note_on_c, 11, 56, 0
12, 4800, Note_on_c, 11, 53, 61
12, 5040, Note_on_c, 11, 53, 0
12, 5040, Note_on_c, 11, 56, 49
12, 5280, Note_on_c, 11, 56, 0
12, 5280, Note_on_c, 11, 61, 76
12, 5760, Note_on_c, 11, 61, 0
12, 5760, Note_on_c, 11, 59, 46
12, 6000, Note_on_c, 11, 59, 0
12, 6000, Note_on_c, 11, 62, 35
12, 6240, Note_on_c, 11, 62, 0
12, 6240, Note_on_c, 11, 67, 84
12, 6600, Note_on_c, 11, 67, 0
12, 6600, Note_on_c, 11, 65, 64
12, 6660, Note_on_c, 11, 65, 0
12, 6720, Note_on_c, 11, 63, 54
12, 6780, Note_on_c, 11, 63, 0
12, 6840, Note_on_c, 11, 68, 86
12, 6900, Note_on_c, 11, 68, 0
12, 6960, Note_on_c, 11, 67, 93
12, 7020, Note_on_c, 11, 67, 0
12, 7080, Note_on_c, 11, 65, 89
12, 7140, Note_on_c, 11, 65, 0
12, 7200, Note_on_c, 11, 63, 81
12, 7320, Note_on_c, 11, 63, 0
12, 7680, Note_on_c, 11, 62, 43
12, 8040, Note_on_c, 11, 62, 0
12, 8040, Note_on_c, 11, 59, 62
12, 8130, Note_on_c, 11, 59, 0
12, 8130, Note_on_c, 11, 60, 59
12, 8160, Note_on_c, 11, 60, 0
12, 8160, Note_on_c, 11, 60, 61
12, 8280, Note_on_c, 11, 60, 0
12, 9600, Note_on_c, 11, 65, 61
12, 9960, Note_on_c, 11, 65, 0
12, 9960, Note_on_c, 11, 62, 58
12, 10050, Note_on_c, 11, 62, 0
12, 10050, Note_on_c, 11, 63, 53
12, 10080, Note_on_c, 11, 63, 0
12, 10080, Note_on_c, 11, 63, 53
12, 10200, Note_on_c, 11, 63, 0
12, 11040, Note_on_c, 11, 58, 86
12, 11100, Note_on_c, 11, 58, 0
12, 11100, Note_on_c, 11, 58, 82
12, 11160, Note_on_c, 11, 58, 0
12, 11160, Note_on_c, 11, 58, 78
12, 11220, Note_on_c, 11, 58, 0
12, 11220, Note_on_c, 11, 58, 86
12, 11280, Note_on_c, 11, 58, 0
12, 11280, Note_on_c, 11, 58, 84
12, 11340, Note_on_c, 11, 58, 0
12, 11340, Note_on_c, 11, 58, 81
12, 11400, Note_on_c, 11, 58, 0
12, 11400, Note_on_c, 11, 58, 81
12, 11460, Note_on_c, 11, 58, 0
12, 11460, Note_on_c, 11, 58, 81
12, 11520, Note_on_c, 11, 58, 0
12, 11520, Note_on_c, 11, 58, 86
12, 11580, Note_on_c, 11, 58, 0
12, 11580, Note_on_c, 11, 58, 85
12, 11640, Note_on_c, 11, 58, 0
12, 11640, Note_on_c, 11, 58, 80
12, 11700, Note_on_c, 11, 58, 0
12, 11700, Note_on_c, 11, 58, 89
12, 11760, Note_on_c, 11, 58, 0
12, 11760, Note_on_c, 11, 58, 82
12, 11820, Note_on_c, 11, 58, 0
12, 11820, Note_on_c, 11, 58, 74
12, 11880, Note_on_c, 11, 58, 0
12, 11880, Note_on_c, 11, 58, 78
12, 11940, Note_on_c, 11, 58, 0
12, 11940, Note_on_c, 11, 58, 81
12, 12000, Note_on_c, 11, 58, 0
12, 12000, Note_on_c, 11, 58, 112
12, 12030, Note_on_c, 11, 58, 0
12, 12030, Note_on_c, 11, 58, 115
12, 12060, Note_on_c, 11, 58, 0
12, 12060, Note_on_c, 11, 58, 93
12, 12090, Note_on_c, 11, 58, 0
12, 12090, Note_on_c, 11, 58, 77
12, 12120, Note_on_c, 11, 58, 0
12, 12120, Note_on_c, 11, 58, 81
12, 12150, Note_on_c, 11, 58, 0
12, 12150, Note_on_c, 11, 58, 67
12, 12180, Note_on_c, 11, 58, 0
12, 12180, Note_on_c, 11, 58, 76
12, 12210, Note_on_c, 11, 58, 0
12, 12210, Note_on_c, 11, 58, 77
12, 12240, Note_on_c, 11, 58, 0
12, 12240, Note_on_c, 11, 58, 74
12, 12270, Note_on_c, 11, 58, 0
12, 12270, Note_on_c, 11, 58, 84
12, 12300, Note_on_c, 11, 58, 0
12, 12300, Note_on_c, 11, 58, 80
12, 12330, Note_on_c, 11, 58, 0
12, 12330, Note_on_c, 11, 58, 68
12, 12360, Note_on_c, 11, 58, 0
12, 12360, Note_on_c, 11, 58, 72
12, 12390, Note_on_c, 11, 58, 0
12, 12390, Note_on_c, 11, 58, 80
12, 12420, Note_on_c, 11, 58, 0
12, 12420, Note_on_c, 11, 58, 66
12, 12450, Note_on_c, 11, 58, 0
12, 12450, Note_on_c, 11, 58, 63
12, 12480, Note_on_c, 11, 58, 0
12, 12480, Note_on_c, 11, 58, 84
12, 12510, Note_on_c, 11, 58, 0
12, 12510, Note_on_c, 11, 58, 81
12, 12540, Note_on_c, 11, 58, 0
12, 12540, Note_on_c, 11, 58, 74
12, 12570, Note_on_c, 11, 58, 0
12, 12570, Note_on_c, 11, 58, 74
12, 12600, Note_on_c, 11, 58, 0
12, 12600, Note_on_c, 11, 58, 76
12, 12630, Note_on_c, 11, 58, 0
12, 12630, Note_on_c, 11, 58, 76
12, 12660, Note_on_c, 11, 58, 0
12, 12660, Note_on_c, 11, 58, 80
12, 12690, Note_on_c, 11, 58, 0
12, 12690, Note_on_c, 11, 58, 78
12, 12720, Note_on_c, 11, 58, 0
12, 12720, Note_on_c, 11, 58, 76
12, 12750, Note_on_c, 11, 58, 0
12, 12750, Note_on_c, 11, 58, 82
12, 12780, Note_on_c, 11, 58, 0
12, 12780, Note_on_c, 11, 58, 82
12, 12810, Note_on_c, 11, 58, 0
12, 12810, Note_on_c, 11, 58, 82
12, 12840, Note_on_c, 11, 58, 0
12, 12840, Note_on_c, 11, 58, 84
12, 12870, Note_on_c, 11, 58, 0
12, 12870, Note_on_c, 11, 58, 80
12, 12900, Note_on_c, 11, 58, 0
12, 12900, Note_on_c, 11, 58, 86
12, 12930, Note_on_c, 11, 58, 0
12, 12930, Note_on_c, 11, 58, 81
12, 12960, Note_on_c, 11, 58, 0
12, 12960, Note_on_c, 11, 56, 81
12, 13020, Note_on_c, 11, 56, 0
12, 13020, Note_on_c, 11, 56, 73
12, 13080, Note_on_c, 11, 56, 0
12, 13080, Note_on_c, 11, 56, 81
12, 13140, Note_on_c, 11, 56, 0
12, 13140, Note_on_c, 11, 56, 80
12, 13200, Note_on_c, 11, 56, 0
12, 13200, Note_on_c, 11, 56, 77
12, 13260, Note_on_c, 11, 56, 0
12, 13260, Note_on_c, 11, 60, 74
12, 13320, Note_on_c, 11, 60, 0
12, 13320, Note_on_c, 11, 60, 74
12, 13380, Note_on_c, 11, 60, 0
12, 13380, Note_on_c, 11, 60, 76
12, 13440, Note_on_c, 11, 60, 0
12, 13440, Note_on_c, 11, 60, 94
12, 13500, Note_on_c, 11, 60, 0
12, 13500, Note_on_c, 11, 60, 89
12, 13560, Note_on_c, 11, 60, 0
12, 13560, Note_on_c, 11, 60, 89
12, 13620, Note_on_c, 11, 60, 0
12, 13620, Note_on_c, 11, 60, 89
12, 13680, Note_on_c, 11, 60, 0
12, 13680, Note_on_c, 11, 60, 89
12, 13740, Note_on_c, 11, 60, 0
12, 13740, Note_on_c, 11, 60, 93
12, 13800, Note_on_c, 11, 60, 0
12, 13800, Note_on_c, 11, 60, 93
12, 13860, Note_on_c, 11, 60, 0
12, 13860, Note_on_c, 11, 60, 89
12, 13920, Note_on_c, 11, 60, 0
12, 13920, Note_on_c, 11, 58, 117
12, 13950, Note_on_c, 11, 58, 0
12, 13950, Note_on_c, 11, 58, 105
12, 13980, Note_on_c, 11, 58, 0
12, 13980, Note_on_c, 11, 58, 81
12, 14010, Note_on_c, 11, 58, 0
12, 14010, Note_on_c, 11, 58, 76
12, 14040, Note_on_c, 11, 58, 0
12, 14040, Note_on_c, 11, 58, 57
12, 14070, Note_on_c, 11, 58, 0
12, 14070, Note_on_c, 11, 58, 68
12, 14100, Note_on_c, 11, 58, 0
12, 14100, Note_on_c, 11, 58, 78
12, 14130, Note_on_c, 11, 58, 0
12, 14130, Note_on_c, 11, 58, 74
12, 14160, Note_on_c, 11, 58, 0
12, 14160, Note_on_c, 11, 58, 80
12, 14190, Note_on_c, 11, 58, 0
12, 14190, Note_on_c, 11, 58, 72
12, 14220, Note_on_c, 11, 58, 0
12, 14220, Note_on_c, 11, 58, 78
12, 14250, Note_on_c, 11, 58, 0
12, 14250, Note_on_c, 11, 58, 65
12, 14280, Note_on_c, 11, 58, 0
12, 14280, Note_on_c, 11, 58, 73
12, 14310, Note_on_c, 11, 58, 0
12, 14310, Note_on_c, 11, 58, 74
12, 14340, Note_on_c, 11, 58, 0
12, 14340, Note_on_c, 11, 58, 73
12, 14370, Note_on_c, 11, 58, 0
12, 14370, Note_on_c, 11, 58, 73
12, 14400, Note_on_c, 11, 58, 0
12, 14400, Note_on_c, 11, 58, 86
12, 14430, Note_on_c, 11, 58, 0
12, 14430, Note_on_c, 11, 58, 84
12, 14460, Note_on_c, 11, 58, 0
12, 14460, Note_on_c, 11, 58, 84
12, 14490, Note_on_c, 11, 58, 0
12, 14490, Note_on_c, 11, 58, 77
12, 14520, Note_on_c, 11, 58, 0
12, 14520, Note_on_c, 11, 58, 77
12, 14550, Note_on_c, 11, 58, 0
12, 14550, Note_on_c, 11, 58, 76
12, 14580, Note_on_c, 11, 58, 0
12, 14580, Note_on_c, 11, 58, 81
12, 14610, Note_on_c, 11, 58, 0
12, 14610, Note_on_c, 11, 58, 84
12, 14640, Note_on_c, 11, 58, 0
12, 14640, Note_on_c, 11, 58, 74
12, 14670, Note_on_c, 11, 58, 0
12, 14670, Note_on_c, 11, 58, 81
12, 14700, Note_on_c, 11, 58, 0
12, 14700, Note_on_c, 11, 58, 80
12, 14730, Note_on_c, 11, 58, 0
12, 14730, Note_on_c, 11, 58, 73
12, 14760, Note_on_c, 11, 58, 0
12, 14760, Note_on_c, 11, 58, 76
12, 14790, Note_on_c, 11, 58, 0
12, 14790, Note_on_c, 11, 58, 85
12, 14820, Note_on_c, 11, 58, 0
12, 14820, Note_on_c, 11, 58, 85
12, 14850, Note_on_c, 11, 58, 0
12, 14850, Note_on_c, 11, 58, 86
12, 14880, Note_on_c, 11, 58, 0
12, 14880, Note_on_c, 11, 58, 90
12, 14910, Note_on_c, 11, 58, 0
12, 14910, Note_on_c, 11, 63, 84
12, 14910, Note_on_c, 11, 55, 98
12, 14940, Note_on_c, 11, 55, 0
12, 14940, Note_on_c, 11, 63, 0
12, 14940, Note_on_c, 11, 63, 72
12, 14940, Note_on_c, 11, 55, 90
12, 14970, Note_on_c, 11, 55, 0
12, 14970, Note_on_c, 11, 63, 0
12, 14970, Note_on_c, 11, 63, 73
12, 14970, Note_on_c, 11, 55, 89
12, 15000, Note_on_c, 11, 55, 0
12, 15000, Note_on_c, 11, 63, 0
12, 15000, Note_on_c, 11, 63, 81
12, 15000, Note_on_c, 11, 55, 95
12, 15030, Note_on_c, 11, 55, 0
12, 15030, Note_on_c, 11, 63, 0
12, 15030, Note_on_c, 11, 63, 76
12, 15030, Note_on_c, 11, 55, 94
12, 15060, Note_on_c, 11, 55, 0
12, 15060, Note_on_c, 11, 63, 0
12, 15060, Note_on_c, 11, 63, 80
12, 15060, Note_on_c, 11, 55, 93
12, 15090, Note_on_c, 11, 55, 0
12, 15090, Note_on_c, 11, 63, 0
12, 15090, Note_on_c, 11, 63, 76
12, 15090, Note_on_c, 11, 55, 94
12, 15120, Note_on_c, 11, 55, 0
12, 15120, Note_on_c, 11, 63, 0
12, 15120, Note_on_c, 11, 63, 76
12, 15120, Note_on_c, 11, 55, 94
12, 15150, Note_on_c, 11, 55, 0
12, 15150, Note_on_c, 11, 63, 0
12, 15150, Note_on_c, 11, 63, 77
12, 15150, Note_on_c, 11, 55, 94
12, 15180, Note_on_c, 11, 55, 0
12, 15180, Note_on_c, 11, 63, 0
12, 15180, Note_on_c, 11, 63, 76
12, 15180, Note_on_c, 11, 55, 98
12, 15210, Note_on_c, 11, 55, 0
12, 15210, Note_on_c, 11, 63, 0
12, 15210, Note_on_c, 11, 63, 76
12, 15210, Note_on_c, 11, 55, 95
12, 15240, Note_on_c, 11, 55, 0
12, 15240, Note_on_c, 11, 63, 0
12, 15240, Note_on_c, 11, 63, 81
12, 15240, Note_on_c, 11, 55, 93
12, 15270, Note_on_c, 11, 55, 0
12, 15270, Note_on_c, 11, 63, 0
12, 15270, Note_on_c, 11, 63, 71
12, 15270, Note_on_c, 11, 55, 89
12, 15300, Note_on_c, 11, 55, 0
12, 15300, Note_on_c, 11, 63, 0
12, 15300, Note_on_c, 11, 63, 78
12, 15300, Note_on_c, 11, 55, 93
12, 15330, Note_on_c, 11, 55, 0
12, 15330, Note_on_c, 11, 63, 0
12, 15330, Note_on_c, 11, 55, 94
12, 15330, Note_on_c, 11, 63, 81
12, 15360, Note_on_c, 11, 63, 0
12, 15360, Note_on_c, 11, 55, 0
12, 15360, Note_on_c, 11, 63, 73
12, 15360, Note_on_c, 11, 55, 95
12, 15390, Note_on_c, 11, 55, 0
12, 15390, Note_on_c, 11, 63, 0
12, 15390, Note_on_c, 11, 63, 76
12, 15390, Note_on_c, 11, 55, 98
12, 15420, Note_on_c, 11, 55, 0
12, 15420, Note_on_c, 11, 63, 0
12, 15420, Note_on_c, 11, 63, 76
12, 15420, Note_on_c, 11, 55, 98
12, 15450, Note_on_c, 11, 55, 0
12, 15450, Note_on_c, 11, 63, 0
12, 15450, Note_on_c, 11, 63, 72
12, 15450, Note_on_c, 11, 55, 95
12, 15480, Note_on_c, 11, 55, 0
12, 15480, Note_on_c, 11, 63, 0
12, 15480, Note_on_c, 11, 63, 69
12, 15480, Note_on_c, 11, 55, 94
12, 15510, Note_on_c, 11, 55, 0
12, 15510, Note_on_c, 11, 63, 0
12, 15510, Note_on_c, 11, 63, 76
12, 15510, Note_on_c, 11, 55, 94
12, 15540, Note_on_c, 11, 55, 0
12, 15540, Note_on_c, 11, 63, 0
12, 15540, Note_on_c, 11, 63, 70
12, 15540, Note_on_c, 11, 55, 95
12, 15570, Note_on_c, 11, 55, 0
12, 15570, Note_on_c, 11, 63, 0
12, 15570, Note_on_c, 11, 63, 67
12, 15570, Note_on_c, 11, 55, 94
12, 15600, Note_on_c, 11, 55, 0
12, 15600, Note_on_c, 11, 63, 0
12, 15600, Note_on_c, 11, 63, 74
12, 15600, Note_on_c, 11, 55, 90
12, 15630, Note_on_c, 11, 55, 0
12, 15630, Note_on_c, 11, 63, 0
12, 15630, Note_on_c, 11, 63, 70
12, 15630, Note_on_c, 11, 55, 94
12, 15660, Note_on_c, 11, 55, 0
12, 15660, Note_on_c, 11, 63, 0
12, 15660, Note_on_c, 11, 63, 70
12, 15660, Note_on_c, 11, 55, 89
12, 15690, Note_on_c, 11, 55, 0
12, 15690, Note_on_c, 11, 63, 0
12, 15690, Note_on_c, 11, 63, 67
12, 15690, Note_on_c, 11, 55, 93
12, 15720, Note_on_c, 11, 55, 0
12, 15720, Note_on_c, 11, 63, 0
12, 15720, Note_on_c, 11, 63, 77
12, 15720, Note_on_c, 11, 55, 94
12, 15750, Note_on_c, 11, 55, 0
12, 15750, Note_on_c, 11, 63, 0
12, 15750, Note_on_c, 11, 63, 74
12, 15750, Note_on_c, 11, 55, 98
12, 15780, Note_on_c, 11, 55, 0
12, 15780, Note_on_c, 11, 63, 0
12, 15780, Note_on_c, 11, 63, 72
12, 15780, Note_on_c, 11, 55, 93
12, 15810, Note_on_c, 11, 55, 0
12, 15810, Note_on_c, 11, 63, 0
12, 15810, Note_on_c, 11, 55, 94
12, 15810, Note_on_c, 11, 63, 70
12, 15840, Note_on_c, 11, 63, 0
12, 15840, Note_on_c, 11, 55, 0
12, 15840, Note_on_c, 11, 63, 76
12, 15840, Note_on_c, 11, 56, 90
12, 15870, Note_on_c, 11, 56, 0
12, 15870, Note_on_c, 11, 63, 0
12, 15870, Note_on_c, 11, 63, 76
12, 15870, Note_on_c, 11, 56, 99
12, 15900, Note_on_c, 11, 56, 0
12, 15900, Note_on_c, 11, 63, 0
12, 15900, Note_on_c, 11, 63, 81
12, 15900, Note_on_c, 11, 56, 99
12, 15930, Note_on_c, 11, 56, 0
12, 15930, Note_on_c, 11, 63, 0
12, 15930, Note_on_c, 11, 63, 77
12, 15930, Note_on_c, 11, 56, 94
12, 15960, Note_on_c, 11, 56, 0
12, 15960, Note_on_c, 11, 63, 0
12, 15960, Note_on_c, 11, 63, 76
12, 15960, Note_on_c, 11, 56, 94
12, 15990, Note_on_c, 11, 56, 0
12, 15990, Note_on_c, 11, 63, 0
12, 15990, Note_on_c, 11, 63, 73
12, 15990, Note_on_c, 11, 56, 95
12, 16020, Note_on_c, 11, 56, 0
12, 16020, Note_on_c, 11, 63, 0
12, 16020, Note_on_c, 11, 63, 76
12, 16020, Note_on_c, 11, 56, 95
12, 16050, Note_on_c, 11, 56, 0
12, 16050, Note_on_c, 11, 63, 0
12, 16050, Note_on_c, 11, 63, 74
12, 16050, Note_on_c, 11, 56, 90
12, 16080, Note_on_c, 11, 56, 0
12, 16080, Note_on_c, 11, 63, 0
12, 16080, Note_on_c, 11, 63, 89
12, 16080, Note_on_c, 11, 56, 95
12, 16110, Note_on_c, 11, 56, 0
12, 16110, Note_on_c, 11, 63, 0
12, 16110, Note_on_c, 11, 63, 78
12, 16110, Note_on_c, 11, 56, 73
12, 16140, Note_on_c, 11, 56, 0
12, 16140, Note_on_c, 11, 63, 0
12, 16140, Note_on_c, 11, 63, 76
12, 16140, Note_on_c, 11, 56, 95
12, 16170, Note_on_c, 11, 56, 0
12, 16170, Note_on_c, 11, 63, 0
12, 16170, Note_on_c, 11, 63, 74
12, 16170, Note_on_c, 11, 56, 89
12, 16200, Note_on_c, 11, 56, 0
12, 16200, Note_on_c, 11, 63, 0
12, 16200, Note_on_c, 11, 63, 76
12, 16200, Note_on_c, 11, 56, 84
12, 16230, Note_on_c, 11, 56, 0
12, 16230, Note_on_c, 11, 63, 0
12, 16230, Note_on_c, 11, 63, 85
12, 16230, Note_on_c, 11, 56, 94
12, 16260, Note_on_c, 11, 56, 0
12, 16260, Note_on_c, 11, 63, 0
12, 16260, Note_on_c, 11, 63, 81
12, 16260, Note_on_c, 11, 56, 99
12, 16290, Note_on_c, 11, 56, 0
12, 16290, Note_on_c, 11, 63, 0
12, 16290, Note_on_c, 11, 63, 84
12, 16290, Note_on_c, 11, 56, 98
12, 16320, Note_on_c, 11, 56, 0
12, 16320, Note_on_c, 11, 63, 0
12, 16320, Note_on_c, 11, 57, 110
12, 16350, Note_on_c, 11, 57, 0
12, 16350, Note_on_c, 11, 57, 99
12, 16380, Note_on_c, 11, 57, 0
12, 16380, Note_on_c, 11, 57, 110
12, 16410, Note_on_c, 11, 57, 0
12, 16410, Note_on_c, 11, 57, 110
12, 16440, Note_on_c, 11, 57, 0
12, 16440, Note_on_c, 11, 66, 98
12, 16470, Note_on_c, 11, 66, 0
12, 16470, Note_on_c, 11, 66, 94
12, 16500, Note_on_c, 11, 66, 0
12, 16500, Note_on_c, 11, 66, 94
12, 16530, Note_on_c, 11, 66, 0
12, 16530, Note_on_c, 11, 66, 90
12, 16560, Note_on_c, 11, 66, 0
12, 16560, Note_on_c, 11, 65, 104
12, 16590, Note_on_c, 11, 65, 0
12, 16590, Note_on_c, 11, 65, 99
12, 16620, Note_on_c, 11, 65, 0
12, 16620, Note_on_c, 11, 65, 105
12, 16650, Note_on_c, 11, 65, 0
12, 16650, Note_on_c, 11, 65, 101
12, 16680, Note_on_c, 11, 65, 0
12, 16680, Note_on_c, 11, 63, 95
12, 16710, Note_on_c, 11, 63, 0
12, 16710, Note_on_c, 11, 63, 99
12, 16740, Note_on_c, 11, 63, 0
12, 16740, Note_on_c, 11, 63, 99
12, 16770, Note_on_c, 11, 63, 0
12, 16770, Note_on_c, 11, 63, 99
12, 16800, Note_on_c, 11, 63, 0
12, 16800, Note_on_c, 11, 62, 90
12, 16860, Note_on_c, 11, 62, 0
12, 16860, Note_on_c, 11, 58, 119
12, 16920, Note_on_c, 11, 58, 0
12, 16920, Note_on_c, 11, 58, 99
12, 16980, Note_on_c, 11, 58, 0
12, 16980, Note_on_c, 11, 58, 76
12, 17040, Note_on_c, 11, 58, 0
12, 17040, Note_on_c, 11, 58, 84
12, 17100, Note_on_c, 11, 58, 0
12, 17100, Note_on_c, 11, 58, 80
12, 17160, Note_on_c, 11, 58, 0
12, 17160, Note_on_c, 11, 58, 80
12, 17220, Note_on_c, 11, 58, 0
12, 17220, Note_on_c, 11, 58, 80
12, 17280, Note_on_c, 11, 58, 0
12, 17280, Note_on_c, 11, 58, 89
12, 17340, Note_on_c, 11, 58, 0
12, 17340, Note_on_c, 11, 58, 82
12, 17400, Note_on_c, 11, 58, 0
12, 17400, Note_on_c, 11, 58, 115
12, 17460, Note_on_c, 11, 58, 0
12, 17460, Note_on_c, 11, 58, 93
12, 17520, Note_on_c, 11, 58, 0
12, 17520, Note_on_c, 11, 58, 90
12, 17580, Note_on_c, 11, 58, 0
12, 17580, Note_on_c, 11, 58, 81
12, 17640, Note_on_c, 11, 58, 0
12, 17640, Note_on_c, 11, 58, 81
12, 17700, Note_on_c, 11, 58, 0
12, 17700, Note_on_c, 11, 58, 80
12, 17760, Note_on_c, 11, 58, 0
12, 17760, Note_on_c, 11, 58, 82
12, 17820, Note_on_c, 11, 58, 0
12, 17820, Note_on_c, 11, 58, 73
12, 17880, Note_on_c, 11, 58, 0
12, 17880, Note_on_c, 11, 58, 119
12, 17940, Note_on_c, 11, 58, 0
12, 17940, Note_on_c, 11, 58, 81
12, 18000, Note_on_c, 11, 58, 0
12, 18000, Note_on_c, 11, 58, 86
12, 18060, Note_on_c, 11, 58, 0
12, 18060, Note_on_c, 11, 58, 82
12, 18120, Note_on_c, 11, 58, 0
12, 18120, Note_on_c, 11, 58, 81
12, 18180, Note_on_c, 11, 58, 0
12, 18180, Note_on_c, 11, 58, 84
12, 18240, Note_on_c, 11, 58, 0
12, 18240, Note_on_c, 11, 58, 82
12, 18300, Note_on_c, 11, 58, 0
12, 18300, Note_on_c, 11, 58, 84
12, 18360, Note_on_c, 11, 58, 0
12, 18360, Note_on_c, 11, 58, 112
12, 18420, Note_on_c, 11, 58, 0
12, 18420, Note_on_c, 11, 58, 89
12, 18480, Note_on_c, 11, 58, 0
12, 18480, Note_on_c, 11, 58, 84
12, 18540, Note_on_c, 11, 58, 0
12, 18540, Note_on_c, 11, 58, 81
12, 18600, Note_on_c, 11, 58, 0
12, 18600, Note_on_c, 11, 58, 84
12, 18660, Note_on_c, 11, 58, 0
12, 18660, Note_on_c, 11, 58, 81
12, 18720, Note_on_c, 11, 58, 0
12, 18720, Note_on_c, 11, 58, 68
12, 18780, Note_on_c, 11, 58, 0
12, 18780, Note_on_c, 11, 58, 72
12, 18840, Note_on_c, 11, 58, 0
12, 18840, Note_on_c, 11, 50, 104
12, 18900, Note_on_c, 11, 50, 0
12, 18900, Note_on_c, 11, 58, 76
12, 18960, Note_on_c, 11, 58, 0
12, 18960, Note_on_c, 11, 51, 80
12, 19020, Note_on_c, 11, 51, 0
12, 19020, Note_on_c, 11, 58, 72
12, 19080, Note_on_c, 11, 58, 0
12, 19080, Note_on_c, 11, 53, 84
12, 19140, Note_on_c, 11, 53, 0
12, 19140, Note_on_c, 11, 58, 73
12, 19200, Note_on_c, 11, 58, 0
12, 19200, Note_on_c, 11, 54, 84
12, 19260, Note_on_c, 11, 54, 0
12, 19260, Note_on_c, 11, 58, 80
12, 19320, Note_on_c, 11, 58, 0
12, 19320, Note_on_c, 11, 58, 84
12, 19380, Note_on_c, 11, 58, 0
12, 19380, Note_on_c, 11, 58, 77
12, 19440, Note_on_c, 11, 58, 0
12, 19440, Note_on_c, 11, 58, 68
12, 19500, Note_on_c, 11, 58, 0
12, 19500, Note_on_c, 11, 58, 69
12, 19560, Note_on_c, 11, 58, 0
12, 19560, Note_on_c, 11, 58, 68
12, 19620, Note_on_c, 11, 58, 0
12, 19620, Note_on_c, 11, 58, 69
12, 19680, Note_on_c, 11, 58, 0
12, 19680, Note_on_c, 11, 58, 73
12, 19740, Note_on_c, 11, 58, 0
12, 19740, Note_on_c, 11, 58, 76
12, 19800, Note_on_c, 11, 58, 0
12, 19800, Note_on_c, 11, 58, 94
12, 19860, Note_on_c, 11, 58, 0
12, 19860, Note_on_c, 11, 58, 73
12, 19920, Note_on_c, 11, 58, 0
12, 19920, Note_on_c, 11, 58, 72
12, 19980, Note_on_c, 11, 58, 0
12, 19980, Note_on_c, 11, 58, 72
12, 20040, Note_on_c, 11, 58, 0
12, 20040, Note_on_c, 11, 58, 73
12, 20100, Note_on_c, 11, 58, 0
12, 20100, Note_on_c, 11, 58, 63
12, 20160, Note_on_c, 11, 58, 0
12, 20160, Note_on_c, 11, 58, 58
12, 20220, Note_on_c, 11, 58, 0
12, 20220, Note_on_c, 11, 58, 70
12, 20280, Note_on_c, 11, 58, 0
12, 20280, Note_on_c, 11, 58, 101
12, 20340, Note_on_c, 11, 58, 0
12, 20340, Note_on_c, 11, 58, 70
12, 20400, Note_on_c, 11, 58, 0
12, 20400, Note_on_c, 11, 58, 64
12, 20460, Note_on_c, 11, 58, 0
12, 20460, Note_on_c, 11, 58, 63
12, 20520, Note_on_c, 11, 58, 0
12, 20520, Note_on_c, 11, 58, 74
12, 20580, Note_on_c, 11, 58, 0
12, 20580, Note_on_c, 11, 58, 66
12, 20640, Note_on_c, 11, 58, 0
12, 20640, Note_on_c, 11, 58, 69
12, 20760, Note_on_c, 11, 58, 0
12, 20760, Note_on_c, 11, 70, 98
12, 21000, Note_on_c, 11, 70, 0
12, 21000, Note_on_c, 11, 69, 84
12, 21120, Note_on_c, 11, 69, 0
12, 21120, Note_on_c, 11, 70, 76
12, 21240, Note_on_c, 11, 70, 0
12, 21240, Note_on_c, 11, 58, 81
12, 21300, Note_on_c, 11, 58, 0
12, 21360, Note_on_c, 11, 59, 67
12, 21420, Note_on_c, 11, 59, 0
12, 21480, Note_on_c, 11, 59, 93
12, 21540, Note_on_c, 11, 59, 0
12, 21600, Note_on_c, 11, 58, 89
12, 21660, Note_on_c, 11, 58, 0
12, 21720, Note_on_c, 11, 69, 105
12, 21840, Note_on_c, 11, 69, 0
12, 21840, Note_on_c, 11, 70, 81
12, 21960, Note_on_c, 11, 70, 0
12, 21960, Note_on_c, 11, 59, 82
12, 22020, Note_on_c, 11, 59, 0
12, 22080, Note_on_c, 11, 58, 81
12, 22140, Note_on_c, 11, 58, 0
12, 22200, Note_on_c, 11, 69, 107
12, 22320, Note_on_c, 11, 69, 0
12, 22320, Note_on_c, 11, 70, 86
12, 22440, Note_on_c, 11, 70, 0
12, 22440, Note_on_c, 11, 59, 85
12, 22500, Note_on_c, 11, 59, 0
12, 22560, Note_on_c, 11, 58, 80
12, 22680, Note_on_c, 11, 58, 0
12, 23520, Note_on_c, 11, 75, 54
12, 23640, Note_on_c, 11, 75, 0
12, 23760, Note_on_c, 11, 70, 64
12, 23880, Note_on_c, 11, 70, 0
12, 24000, Note_on_c, 11, 63, 72
12, 24120, Note_on_c, 11, 63, 0
12, 24600, Note_on_c, 11, 70, 56
12, 24720, Note_on_c, 11, 70, 0
12, 24720, Note_on_c, 11, 70, 63
12, 24840, Note_on_c, 11, 70, 0
12, 24840, Note_on_c, 11, 70, 59
12, 24960, Note_on_c, 11, 70, 0
12, 24960, Note_on_c, 11, 75, 62
12, 25080, Note_on_c, 11, 75, 0
12, 25080, Note_on_c, 11, 63, 64
12, 25200, Note_on_c, 11, 63, 0
12, 25200, Note_on_c, 11, 75, 55
12, 25320, Note_on_c, 11, 75, 0
12, 25320, Note_on_c, 11, 73, 50
12, 25440, Note_on_c, 11, 73, 0
12, 25440, Note_on_c, 11, 72, 68
12, 25680, Note_on_c, 11, 72, 0
12, 25680, Note_on_c, 11, 70, 53
12, 25800, Note_on_c, 11, 70, 0
12, 25920, Note_on_c, 11, 68, 77
12, 26160, Note_on_c, 11, 68, 0
12, 26160, Note_on_c, 11, 67, 73
12, 26280, Note_on_c, 11, 67, 0
12, 26280, Note_on_c, 11, 60, 61
12, 26400, Note_on_c, 11, 60, 0
12, 26400, Note_on_c, 11, 65, 68
12, 26520, Note_on_c, 11, 65, 0
12, 26520, Note_on_c, 11, 58, 67
12, 26640, Note_on_c, 11, 58, 0
12, 26640, Note_on_c, 11, 63, 69
12, 26760, Note_on_c, 11, 63, 0
12, 26760, Note_on_c, 11, 56, 70
12, 26880, Note_on_c, 11, 56, 0
12, 26880, Note_on_c, 11, 55, 72
12, 27120, Note_on_c, 11, 55, 0
12, 27120, Note_on_c, 11, 53, 74
12, 27180, Note_on_c, 11, 53, 0
12, 27180, Note_on_c, 11, 56, 60
12, 27240, Note_on_c, 11, 56, 0
12, 27240, Note_on_c, 11, 55, 72
12, 27300, Note_on_c, 11, 55, 0
12, 27300, Note_on_c, 11, 53, 76
12, 27360, Note_on_c, 11, 53, 0
12, 27360, Note_on_c, 11, 63, 43
12, 27420, Note_on_c, 11, 63, 0
12, 27420, Note_on_c, 11, 55, 54
12, 27480, Note_on_c, 11, 55, 0
12, 27480, Note_on_c, 11, 63, 41
12, 27540, Note_on_c, 11, 63, 0
12, 27540, Note_on_c, 11, 55, 62
12, 27600, Note_on_c, 11, 55, 0
12, 27600, Note_on_c, 11, 62, 46
12, 27660, Note_on_c, 11, 62, 0
12, 27660, Note_on_c, 11, 55, 38
12, 27720, Note_on_c, 11, 55, 0
12, 27720, Note_on_c, 11, 62, 43
12, 27780, Note_on_c, 11, 62, 0
12, 27780, Note_on_c, 11, 55, 38
12, 27840, Note_on_c, 11, 55, 0
12, 27840, Note_on_c, 11, 60, 49
12, 27900, Note_on_c, 11, 60, 0
12, 27900, Note_on_c, 11, 55, 42
12, 27960, Note_on_c, 11, 55, 0
12, 27960, Note_on_c, 11, 60, 59
12, 28020, Note_on_c, 11, 60, 0
12, 28020, Note_on_c, 11, 55, 57
12, 28080, Note_on_c, 11, 55, 0
12, 28080, Note_on_c, 11, 59, 45
12, 28140, Note_on_c, 11, 59, 0
12, 28140, Note_on_c, 11, 55, 38
12, 28200, Note_on_c, 11, 55, 0
12, 28200, Note_on_c, 11, 59, 54
12, 28260, Note_on_c, 11, 59, 0
12, 28260, Note_on_c, 11, 53, 48
12, 28320, Note_on_c, 11, 53, 0
12, 28320, Note_on_c, 11, 51, 60
12, 28380, Note_on_c, 11, 51, 0
12, 28380, Note_on_c, 11, 48, 62
12, 28440, Note_on_c, 11, 48, 0
12, 28440, Note_on_c, 11, 60, 58
12, 28500, Note_on_c, 11, 60, 0
12, 28500, Note_on_c, 11, 60, 58
12, 28560, Note_on_c, 11, 60, 0
12, 28560, Note_on_c, 11, 60, 52
12, 28620, Note_on_c, 11, 60, 0
12, 28620, Note_on_c, 11, 60, 53
12, 28680, Note_on_c, 11, 60, 0
12, 28680, Note_on_c, 11, 60, 46
12, 28740, Note_on_c, 11, 60, 0
12, 28740, Note_on_c, 11, 60, 45
12, 28800, Note_on_c, 11, 60, 0
12, 28800, Note_on_c, 11, 59, 32
12, 28800, Note_on_c, 11, 55, 38
12, 28920, Note_on_c, 11, 55, 0
12, 28920, Note_on_c, 11, 59, 0
12, 28920, Note_on_c, 11, 67, 43
12, 28920, Note_on_c, 11, 65, 44
12, 29040, Note_on_c, 11, 65, 0
12, 29040, Note_on_c, 11, 67, 0
12, 29040, Note_on_c, 11, 69, 56
12, 29040, Note_on_c, 11, 64, 71
12, 29160, Note_on_c, 11, 64, 0
12, 29160, Note_on_c, 11, 69, 0
12, 29160, Note_on_c, 11, 62, 42
12, 29160, Note_on_c, 11, 71, 56
12, 29280, Note_on_c, 11, 71, 0
12, 29280, Note_on_c, 11, 62, 0
12, 29280, Note_on_c, 11, 72, 68
12, 29340, Note_on_c, 11, 72, 0
12, 29340, Note_on_c, 11, 55, 72
12, 29400, Note_on_c, 11, 55, 0
12, 29400, Note_on_c, 11, 60, 52
12, 29460, Note_on_c, 11, 60, 0
12, 29460, Note_on_c, 11, 55, 69
12, 29520, Note_on_c, 11, 55, 0
12, 29520, Note_on_c, 11, 59, 61
12, 29580, Note_on_c, 11, 59, 0
12, 29580, Note_on_c, 11, 55, 76
12, 29640, Note_on_c, 11, 55, 0
12, 29640, Note_on_c, 11, 53, 59
12, 29700, Note_on_c, 11, 53, 0
12, 29700, Note_on_c, 11, 55, 68
12, 29760, Note_on_c, 11, 55, 0
12, 29760, Note_on_c, 11, 52, 71
12, 29820, Note_on_c, 11, 52, 0
12, 29820, Note_on_c, 11, 55, 60
12, 29880, Note_on_c, 11, 55, 0
12, 29880, Note_on_c, 11, 52, 64
12, 29940, Note_on_c, 11, 52, 0
12, 29940, Note_on_c, 11, 55, 43
12, 30000, Note_on_c, 11, 55, 0
12, 30000, Note_on_c, 11, 52, 50
12, 30060, Note_on_c, 11, 52, 0
12, 30060, Note_on_c, 11, 55, 45
12, 30120, Note_on_c, 11, 55, 0
12, 30120, Note_on_c, 11, 52, 49
12, 30180, Note_on_c, 11, 52, 0
12, 30180, Note_on_c, 11, 48, 44
12, 30240, Note_on_c, 11, 48, 0
12, 30240, Note_on_c, 11, 59, 57
12, 30300, Note_on_c, 11, 59, 0
12, 30300, Note_on_c, 11, 55, 78
12, 30360, Note_on_c, 11, 55, 0
12, 30360, Note_on_c, 11, 59, 68
12, 30420, Note_on_c, 11, 59, 0
12, 30420, Note_on_c, 11, 55, 66
12, 30480, Note_on_c, 11, 55, 0
12, 30480, Note_on_c, 11, 59, 65
12, 30540, Note_on_c, 11, 59, 0
12, 30540, Note_on_c, 11, 55, 65
12, 30600, Note_on_c, 11, 55, 0
12, 30600, Note_on_c, 11, 59, 63
12, 30660, Note_on_c, 11, 59, 0
12, 30660, Note_on_c, 11, 55, 68
12, 30720, Note_on_c, 11, 55, 0
12, 30720, Note_on_c, 11, 59, 63
12, 30780, Note_on_c, 11, 59, 0
12, 30780, Note_on_c, 11, 55, 71
12, 30840, Note_on_c, 11, 55, 0
12, 30840, Note_on_c, 11, 59, 60
12, 30900, Note_on_c, 11, 59, 0
12, 30900, Note_on_c, 11, 55, 73
12, 30960, Note_on_c, 11, 55, 0
12, 30960, Note_on_c, 11, 60, 59
12, 31020, Note_on_c, 11, 60, 0
12, 31020, Note_on_c, 11, 55, 74
12, 31080, Note_on_c, 11, 55, 0
12, 31080, Note_on_c, 11, 52, 73
12, 31140, Note_on_c, 11, 52, 0
12, 31140, Note_on_c, 11, 48, 44
12, 31200, Note_on_c, 11, 48, 0
12, 31200, Note_on_c, 11, 60, 89
12, 31560, Note_on_c, 11, 60, 0
12, 31620, Note_on_c, 11, 64, 85
12, 31680, Note_on_c, 11, 64, 0
12, 31680, Note_on_c, 11, 60, 90
12, 32040, Note_on_c, 11, 60, 0
12, 32100, Note_on_c, 11, 69, 73
12, 32160, Note_on_c, 11, 69, 0
12, 32160, Note_on_c, 11, 67, 62
12, 32280, Note_on_c, 11, 67, 0
12, 32280, Note_on_c, 11, 67, 69
12, 32400, Note_on_c, 11, 67, 0
12, 32400, Note_on_c, 11, 65, 72
12, 32520, Note_on_c, 11, 65, 0
12, 32520, Note_on_c, 11, 65, 72
12, 32640, Note_on_c, 11, 65, 0
12, 32640, Note_on_c, 11, 65, 74
12, 32880, Note_on_c, 11, 65, 0
12, 32880, Note_on_c, 11, 64, 81
12, 33000, Note_on_c, 11, 64, 0
12, 33120, Note_on_c, 11, 72, 65
12, 33150, Note_on_c, 11, 72, 0
12, 33150, Note_on_c, 11, 72, 61
12, 33180, Note_on_c, 11, 72, 0
12, 33180, Note_on_c, 11, 72, 58
12, 33210, Note_on_c, 11, 72, 0
12, 33210, Note_on_c, 11, 72, 65
12, 33240, Note_on_c, 11, 72, 0
12, 33240, Note_on_c, 11, 72, 61
12, 33270, Note_on_c, 11, 72, 0
12, 33270, Note_on_c, 11, 72, 64
12, 33300, Note_on_c, 11, 72, 0
12, 33300, Note_on_c, 11, 72, 73
12, 33330, Note_on_c, 11, 72, 0
12, 33330, Note_on_c, 11, 72, 63
12, 33360, Note_on_c, 11, 72, 0
12, 33360, Note_on_c, 11, 72, 63
12, 33390, Note_on_c, 11, 72, 0
12, 33390, Note_on_c, 11, 72, 61
12, 33420, Note_on_c, 11, 72, 0
12, 33420, Note_on_c, 11, 72, 73
12, 33450, Note_on_c, 11, 72, 0
12, 33450, Note_on_c, 11, 72, 61
12, 33480, Note_on_c, 11, 72, 0
12, 33480, Note_on_c, 11, 72, 51
12, 33510, Note_on_c, 11, 72, 0
12, 33510, Note_on_c, 11, 72, 62
12, 33540, Note_on_c, 11, 72, 0
12, 33540, Note_on_c, 11, 72, 58
12, 33570, Note_on_c, 11, 72, 0
12, 33570, Note_on_c, 11, 72, 65
12, 33600, Note_on_c, 11, 72, 0
12, 33600, Note_on_c, 11, 72, 56
12, 33630, Note_on_c, 11, 72, 0
12, 33630, Note_on_c, 11, 72, 61
12, 33660, Note_on_c, 11, 72, 0
12, 33660, Note_on_c, 11, 72, 69
12, 33690, Note_on_c, 11, 72, 0
12, 33690, Note_on_c, 11, 72, 65
12, 33720, Note_on_c, 11, 72, 0
12, 33720, Note_on_c, 11, 72, 61
12, 33750, Note_on_c, 11, 72, 0
12, 33750, Note_on_c, 11, 72, 64
12, 33780, Note_on_c, 11, 72, 0
12, 33780, Note_on_c, 11, 72, 60
12, 33810, Note_on_c, 11, 72, 0
12, 33810, Note_on_c, 11, 72, 66
12, 33840, Note_on_c, 11, 72, 0
12, 33840, Note_on_c, 11, 60, 69
12, 33870, Note_on_c, 11, 60, 0
12, 33870, Note_on_c, 11, 60, 72
12, 33900, Note_on_c, 11, 60, 0
12, 33900, Note_on_c, 11, 60, 76
12, 33930, Note_on_c, 11, 60, 0
12, 33930, Note_on_c, 11, 60, 78
12, 33960, Note_on_c, 11, 60, 0
12, 33960, Note_on_c, 11, 60, 76
12, 33990, Note_on_c, 11, 60, 0
12, 33990, Note_on_c, 11, 60, 84
12, 34020, Note_on_c, 11, 60, 0
12, 34020, Note_on_c, 11, 60, 89
12, 34050, Note_on_c, 11, 60, 0
12, 34050, Note_on_c, 11, 60, 89
12, 34080, Note_on_c, 11, 60, 0
12, 34080, Note_on_c, 11, 69, 84
12, 34110, Note_on_c, 11, 69, 0
12, 34110, Note_on_c, 11, 69, 84
12, 34140, Note_on_c, 11, 69, 0
12, 34140, Note_on_c, 11, 69, 86
12, 34170, Note_on_c, 11, 69, 0
12, 34170, Note_on_c, 11, 69, 90
12, 34200, Note_on_c, 11, 69, 0
12, 34200, Note_on_c, 11, 57, 95
12, 34230, Note_on_c, 11, 57, 0
12, 34230, Note_on_c, 11, 57, 95
12, 34260, Note_on_c, 11, 57, 0
12, 34260, Note_on_c, 11, 57, 95
12, 34290, Note_on_c, 11, 57, 0
12, 34290, Note_on_c, 11, 57, 99
12, 34320, Note_on_c, 11, 57, 0
12, 34320, Note_on_c, 11, 62, 90
12, 34350, Note_on_c, 11, 62, 0
12, 34350, Note_on_c, 11, 62, 94
12, 34380, Note_on_c, 11, 62, 0
12, 34380, Note_on_c, 11, 62, 89
12, 34410, Note_on_c, 11, 62, 0
12, 34410, Note_on_c, 11, 62, 93
12, 34440, Note_on_c, 11, 62, 0
12, 34440, Note_on_c, 11, 62, 90
12, 34470, Note_on_c, 11, 62, 0
12, 34470, Note_on_c, 11, 62, 89
12, 34500, Note_on_c, 11, 62, 0
12, 34500, Note_on_c, 11, 62, 89
12, 34530, Note_on_c, 11, 62, 0
12, 34530, Note_on_c, 11, 62, 94
12, 34560, Note_on_c, 11, 62, 0
12, 34560, Note_on_c, 11, 60, 90
12, 34590, Note_on_c, 11, 60, 0
12, 34590, Note_on_c, 11, 60, 90
12, 34620, Note_on_c, 11, 60, 0
12, 34620, Note_on_c, 11, 60, 93
12, 34650, Note_on_c, 11, 60, 0
12, 34650, Note_on_c, 11, 60, 90
12, 34680, Note_on_c, 11, 60, 0
12, 34680, Note_on_c, 11, 65, 89
12, 34710, Note_on_c, 11, 65, 0
12, 34710, Note_on_c, 11, 65, 89
12, 34740, Note_on_c, 11, 65, 0
12, 34740, Note_on_c, 11, 65, 93
12, 34770, Note_on_c, 11, 65, 0
12, 34770, Note_on_c, 11, 65, 93
12, 34800, Note_on_c, 11, 65, 0
12, 34800, Note_on_c, 11, 63, 84
12, 34830, Note_on_c, 11, 63, 0
12, 34830, Note_on_c, 11, 63, 89
12, 34860, Note_on_c, 11, 63, 0
12, 34860, Note_on_c, 11, 63, 86
12, 34890, Note_on_c, 11, 63, 0
12, 34890, Note_on_c, 11, 63, 80
12, 34920, Note_on_c, 11, 63, 0
12, 34920, Note_on_c, 11, 65, 94
12, 34950, Note_on_c, 11, 65, 0
12, 34950, Note_on_c, 11, 65, 90
12, 34980, Note_on_c, 11, 65, 0
12, 34980, Note_on_c, 11, 65, 94
12, 35010, Note_on_c, 11, 65, 0
12, 35010, Note_on_c, 11, 65, 95
12, 35040, Note_on_c, 11, 65, 0
12, 35040, Note_on_c, 11, 60, 89
12, 35070, Note_on_c, 11, 60, 0
12, 35070, Note_on_c, 11, 60, 86
12, 35070, Note_on_c, 11, 58, 81
12, 35100, Note_on_c, 11, 58, 0
12, 35100, Note_on_c, 11, 60, 0
12, 35100, Note_on_c, 11, 60, 78
12, 35100, Note_on_c, 11, 58, 72
12, 35130, Note_on_c, 11, 58, 0
12, 35130, Note_on_c, 11, 60, 0
12, 35130, Note_on_c, 11, 60, 76
12, 35130, Note_on_c, 11, 58, 61
12, 35160, Note_on_c, 11, 58, 0
12, 35160, Note_on_c, 11, 60, 0
12, 35160, Note_on_c, 11, 60, 61
12, 35160, Note_on_c, 11, 58, 48
12, 35190, Note_on_c, 11, 58, 0
12, 35190, Note_on_c, 11, 60, 0
12, 35190, Note_on_c, 11, 60, 58
12, 35190, Note_on_c, 11, 58, 29
12, 35220, Note_on_c, 11, 58, 0
12, 35220, Note_on_c, 11, 60, 0
12, 35220, Note_on_c, 11, 60, 46
12, 35220, Note_on_c, 11, 58, 40
12, 35250, Note_on_c, 11, 58, 0
12, 35250, Note_on_c, 11, 60, 0
12, 35250, Note_on_c, 11, 60, 53
12, 35250, Note_on_c, 11, 58, 42
12, 35280, Note_on_c, 11, 58, 0
12, 35280, Note_on_c, 11, 60, 0
12, 35280, Note_on_c, 11, 60, 55
12, 35280, Note_on_c, 11, 58, 46
12, 35310, Note_on_c, 11, 58, 0
12, 35310, Note_on_c, 11, 60, 0
12, 35310, Note_on_c, 11, 60, 43
12, 35310, Note_on_c, 11, 58, 43
12, 35340, Note_on_c, 11, 58, 0
12, 35340, Note_on_c, 11, 60, 0
12, 35340, Note_on_c, 11, 60, 43
12, 35340, Note_on_c, 11, 58, 48
12, 35370, Note_on_c, 11, 58, 0
12, 35370, Note_on_c, 11, 60, 0
12, 35370, Note_on_c, 11, 60, 46
12, 35370, Note_on_c, 11, 58, 47
12, 35400, Note_on_c, 11, 58, 0
12, 35400, Note_on_c, 11, 60, 0
12, 35400, Note_on_c, 11, 60, 43
12, 35400, Note_on_c, 11, 58, 50
12, 35430, Note_on_c, 11, 58, 0
12, 35430, Note_on_c, 11, 60, 0
12, 35430, Note_on_c, 11, 60, 43
12, 35430, Note_on_c, 11, 58, 47
12, 35460, Note_on_c, 11, 58, 0
12, 35460, Note_on_c, 11, 60, 0
12, 35460, Note_on_c, 11, 60, 49
12, 35460, Note_on_c, 11, 58, 53
12, 35490, Note_on_c, 11, 58, 0
12, 35490, Note_on_c, 11, 60, 0
12, 35490, Note_on_c, 11, 60, 42
12, 35490, Note_on_c, 11, 58, 42
12, 35520, Note_on_c, 11, 58, 0
12, 35520, Note_on_c, 11, 60, 0
12, 35520, Note_on_c, 11, 60, 43
12, 35520, Note_on_c, 11, 58, 44
12, 35550, Note_on_c, 11, 58, 0
12, 35550, Note_on_c, 11, 60, 0
12, 35550, Note_on_c, 11, 60, 43
12, 35550, Note_on_c, 11, 58, 47
12, 35580, Note_on_c, 11, 58, 0
12, 35580, Note_on_c, 11, 60, 0
12, 35580, Note_on_c, 11, 60, 42
12, 35580, Note_on_c, 11, 58, 33
12, 35610, Note_on_c, 11, 58, 0
12, 35610, Note_on_c, 11, 60, 0
12, 35610, Note_on_c, 11, 60, 39
12, 35610, Note_on_c, 11, 58, 38
12, 35640, Note_on_c, 11, 58, 0
12, 35640, Note_on_c, 11, 60, 0
12, 35640, Note_on_c, 11, 60, 38
12, 35640, Note_on_c, 11, 58, 30
12, 35670, Note_on_c, 11, 58, 0
12, 35670, Note_on_c, 11, 60, 0
12, 35670, Note_on_c, 11, 60, 41
12, 35670, Note_on_c, 11, 58, 39
12, 35700, Note_on_c, 11, 58, 0
12, 35700, Note_on_c, 11, 60, 0
12, 35700, Note_on_c, 11, 60, 35
12, 35700, Note_on_c, 11, 58, 35
12, 35730, Note_on_c, 11, 58, 0
12, 35730, Note_on_c, 11, 60, 0
12, 35730, Note_on_c, 11, 60, 39
12, 35730, Note_on_c, 11, 58, 39
12, 35760, Note_on_c, 11, 58, 0
12, 35760, Note_on_c, 11, 60, 0
12, 35760, Note_on_c, 11, 60, 35
12, 35760, Note_on_c, 11, 58, 43
12, 35790, Note_on_c, 11, 58, 0
12, 35790, Note_on_c, 11, 60, 0
12, 35790, Note_on_c, 11, 60, 35
12, 35790, Note_on_c, 11, 58, 35
12, 35820, Note_on_c, 11, 58, 0
12, 35820, Note_on_c, 11, 60, 0
12, 35820, Note_on_c, 11, 60, 36
12, 35820, Note_on_c, 11, 58, 36
12, 35850, Note_on_c, 11, 58, 0
12, 35850, Note_on_c, 11, 60, 0
12, 35850, Note_on_c, 11, 60, 38
12, 35850, Note_on_c, 11, 58, 36
12, 35880, Note_on_c, 11, 58, 0
12, 35880, Note_on_c, 11, 60, 0
12, 35880, Note_on_c, 11, 60, 35
12, 35880, Note_on_c, 11, 58, 35
12, 35910, Note_on_c, 11, 58, 0
12, 35910, Note_on_c, 11, 60, 0
12, 35910, Note_on_c, 11, 60, 35
12, 35910, Note_on_c, 11, 58, 38
12, 35940, Note_on_c, 11, 58, 0
12, 35940, Note_on_c, 11, 60, 0
12, 35940, Note_on_c, 11, 60, 38
12, 35940, Note_on_c, 11, 58, 35
12, 35970, Note_on_c, 11, 58, 0
12, 35970, Note_on_c, 11, 60, 0
12, 35970, Note_on_c, 11, 60, 39
12, 35970, Note_on_c, 11, 58, 41
12, 36000, Note_on_c, 11, 58, 0
12, 36000, Note_on_c, 11, 60, 0
12, 36000, Note_on_c, 11, 60, 40
12, 36000, Note_on_c, 11, 58, 35
12, 36030, Note_on_c, 11, 58, 0
12, 36030, Note_on_c, 11, 60, 0
12, 36030, Note_on_c, 11, 60, 38
12, 36030, Note_on_c, 11, 58, 38
12, 36060, Note_on_c, 11, 58, 0
12, 36060, Note_on_c, 11, 60, 0
12, 36060, Note_on_c, 11, 60, 38
12, 36060, Note_on_c, 11, 58, 39
12, 36090, Note_on_c, 11, 58, 0
12, 36090, Note_on_c, 11, 60, 0
12, 36090, Note_on_c, 11, 60, 38
12, 36090, Note_on_c, 11, 58, 37
12, 36120, Note_on_c, 11, 58, 0
12, 36120, Note_on_c, 11, 60, 0
12, 36120, Note_on_c, 11, 60, 30
12, 36120, Note_on_c, 11, 58, 35
12, 36150, Note_on_c, 11, 58, 0
12, 36150, Note_on_c, 11, 60, 0
12, 36150, Note_on_c, 11, 60, 35
12, 36150, Note_on_c, 11, 58, 38
12, 36180, Note_on_c, 11, 58, 0
12, 36180, Note_on_c, 11, 60, 0
12, 36180, Note_on_c, 11, 60, 36
12, 36180, Note_on_c, 11, 58, 34
12, 36210, Note_on_c, 11, 58, 0
12, 36210, Note_on_c, 11, 60, 0
12, 36210, Note_on_c, 11, 60, 35
12, 36210, Note_on_c, 11, 58, 35
12, 36240, Note_on_c, 11, 58, 0
12, 36240, Note_on_c, 11, 60, 0
12, 36240, Note_on_c, 11, 60, 38
12, 36240, Note_on_c, 11, 58, 35
12, 36270, Note_on_c, 11, 58, 0
12, 36270, Note_on_c, 11, 60, 0
12, 36270, Note_on_c, 11, 60, 38
12, 36270, Note_on_c, 11, 58, 38
12, 36300, Note_on_c, 11, 58, 0
12, 36300, Note_on_c, 11, 60, 0
12, 36300, Note_on_c, 11, 60, 35
12, 36300, Note_on_c, 11, 58, 38
12, 36330, Note_on_c, 11, 58, 0
12, 36330, Note_on_c, 11, 60, 0
12, 36330, Note_on_c, 11, 60, 35
12, 36330, Note_on_c, 11, 58, 38
12, 36360, Note_on_c, 11, 58, 0
12, 36360, Note_on_c, 11, 60, 0
12, 36360, Note_on_c, 11, 60, 37
12, 36360, Note_on_c, 11, 58, 37
12, 36390, Note_on_c, 11, 58, 0
12, 36390, Note_on_c, 11, 60, 0
12, 36390, Note_on_c, 11, 60, 37
12, 36390, Note_on_c, 11, 58, 39
12, 36420, Note_on_c, 11, 58, 0
12, 36420, Note_on_c, 11, 60, 0
12, 36420, Note_on_c, 11, 60, 40
12, 36420, Note_on_c, 11, 58, 43
12, 36450, Note_on_c, 11, 58, 0
12, 36450, Note_on_c, 11, 60, 0
12, 36450, Note_on_c, 11, 60, 40
12, 36450, Note_on_c, 11, 58, 43
12, 36480, Note_on_c, 11, 58, 0
12, 36480, Note_on_c, 11, 60, 0
12, 36480, Note_on_c, 11, 60, 81
12, 36480, Note_on_c, 11, 56, 80
12, 36510, Note_on_c, 11, 56, 0
12, 36510, Note_on_c, 11, 60, 0
12, 36510, Note_on_c, 11, 53, 68
12, 36540, Note_on_c, 11, 53, 0
12, 36540, Note_on_c, 11, 53, 65
12, 36570, Note_on_c, 11, 53, 0
12, 36570, Note_on_c, 11, 53, 67
12, 36600, Note_on_c, 11, 53, 0
12, 36600, Note_on_c, 11, 53, 43
12, 36630, Note_on_c, 11, 53, 0
12, 36630, Note_on_c, 11, 53, 56
12, 36660, Note_on_c, 11, 53, 0
12, 36660, Note_on_c, 11, 53, 53
12, 36690, Note_on_c, 11, 53, 0
12, 36690, Note_on_c, 11, 53, 56
12, 36720, Note_on_c, 11, 53, 0
12, 36720, Note_on_c, 11, 53, 53
12, 36750, Note_on_c, 11, 53, 0
12, 36750, Note_on_c, 11, 53, 54
12, 36780, Note_on_c, 11, 53, 0
12, 36780, Note_on_c, 11, 53, 61
12, 36810, Note_on_c, 11, 53, 0
12, 36810, Note_on_c, 11, 53, 46
12, 36840, Note_on_c, 11, 53, 0
12, 36840, Note_on_c, 11, 53, 62
12, 36870, Note_on_c, 11, 53, 0
12, 36870, Note_on_c, 11, 53, 50
12, 36900, Note_on_c, 11, 53, 0
12, 36900, Note_on_c, 11, 53, 57
12, 36930, Note_on_c, 11, 53, 0
12, 36930, Note_on_c, 11, 53, 59
12, 36960, Note_on_c, 11, 53, 0
12, 36960, Note_on_c, 11, 53, 71
12, 36990, Note_on_c, 11, 53, 0
12, 36990, Note_on_c, 11, 53, 71
12, 37020, Note_on_c, 11, 53, 0
12, 37020, Note_on_c, 11, 53, 61
12, 37050, Note_on_c, 11, 53, 0
12, 37050, Note_on_c, 11, 53, 73
12, 37080, Note_on_c, 11, 53, 0
12, 37080, Note_on_c, 11, 53, 68
12, 37110, Note_on_c, 11, 53, 0
12, 37110, Note_on_c, 11, 53, 60
12, 37140, Note_on_c, 11, 53, 0
12, 37140, Note_on_c, 11, 53, 65
12, 37170, Note_on_c, 11, 53, 0
12, 37170, Note_on_c, 11, 53, 63
12, 37200, Note_on_c, 11, 53, 0
12, 37200, Note_on_c, 11, 53, 71
12, 37230, Note_on_c, 11, 53, 0
12, 37230, Note_on_c, 11, 53, 76
12, 37260, Note_on_c, 11, 53, 0
12, 37260, Note_on_c, 11, 53, 84
12, 37290, Note_on_c, 11, 53, 0
12, 37290, Note_on_c, 11, 53, 80
12, 37320, Note_on_c, 11, 53, 0
12, 37320, Note_on_c, 11, 53, 85
12, 37350, Note_on_c, 11, 53, 0
12, 37350, Note_on_c, 11, 53, 81
12, 37380, Note_on_c, 11, 53, 0
12, 37380, Note_on_c, 11, 53, 89
12, 37410, Note_on_c, 11, 53, 0
12, 37410, Note_on_c, 11, 53, 93
12, 37440, Note_on_c, 11, 53, 0
12, 37440, Note_on_c, 11, 53, 93
12, 37470, Note_on_c, 11, 53, 0
12, 37470, Note_on_c, 11, 65, 95
12, 37500, Note_on_c, 11, 65, 0
12, 37500, Note_on_c, 11, 65, 94
12, 37530, Note_on_c, 11, 65, 0
12, 37530, Note_on_c, 11, 65, 99
12, 37560, Note_on_c, 11, 65, 0
12, 37560, Note_on_c, 11, 67, 89
12, 37590, Note_on_c, 11, 67, 0
12, 37590, Note_on_c, 11, 67, 94
12, 37620, Note_on_c, 11, 67, 0
12, 37620, Note_on_c, 11, 67, 94
12, 37650, Note_on_c, 11, 67, 0
12, 37650, Note_on_c, 11, 67, 86
12, 37680, Note_on_c, 11, 67, 0
12, 37680, Note_on_c, 11, 65, 99
12, 37710, Note_on_c, 11, 65, 0
12, 37710, Note_on_c, 11, 65, 99
12, 37740, Note_on_c, 11, 65, 0
12, 37740, Note_on_c, 11, 65, 95
12, 37770, Note_on_c, 11, 65, 0
12, 37770, Note_on_c, 11, 65, 99
12, 37800, Note_on_c, 11, 65, 0
12, 37800, Note_on_c, 11, 63, 90
12, 37830, Note_on_c, 11, 63, 0
12, 37830, Note_on_c, 11, 63, 94
12, 37860, Note_on_c, 11, 63, 0
12, 37860, Note_on_c, 11, 63, 86
12, 37890, Note_on_c, 11, 63, 0
12, 37890, Note_on_c, 11, 63, 89
12, 37920, Note_on_c, 11, 63, 0
12, 37920, Note_on_c, 11, 62, 94
12, 37950, Note_on_c, 11, 62, 0
12, 37950, Note_on_c, 11, 65, 95
12, 37980, Note_on_c, 11, 65, 0
12, 37980, Note_on_c, 11, 65, 99
12, 38010, Note_on_c, 11, 65, 0
12, 38010, Note_on_c, 11, 65, 99
12, 38040, Note_on_c, 11, 65, 0
12, 38040, Note_on_c, 11, 65, 95
12, 38070, Note_on_c, 11, 65, 0
12, 38070, Note_on_c, 11, 65, 98
12, 38100, Note_on_c, 11, 65, 0
12, 38100, Note_on_c, 11, 65, 99
12, 38130, Note_on_c, 11, 65, 0
12, 38130, Note_on_c, 11, 65, 99
12, 38160, Note_on_c, 11, 65, 0
12, 38160, Note_on_c, 11, 65, 94
12, 38190, Note_on_c, 11, 65, 0
12, 38190, Note_on_c, 11, 65, 94
12, 38220, Note_on_c, 11, 65, 0
12, 38220, Note_on_c, 11, 65, 89
12, 38250, Note_on_c, 11, 65, 0
12, 38250, Note_on_c, 11, 65, 99
12, 38280, Note_on_c, 11, 65, 0
12, 38280, Note_on_c, 11, 65, 95
12, 38310, Note_on_c, 11, 65, 0
12, 38310, Note_on_c, 11, 65, 94
12, 38340, Note_on_c, 11, 65, 0
12, 38340, Note_on_c, 11, 65, 99
12, 38370, Note_on_c, 11, 65, 0
12, 38370, Note_on_c, 11, 65, 99
12, 38400, Note_on_c, 11, 65, 0
12, 38400, Note_on_c, 11, 65, 95
12, 38430, Note_on_c, 11, 65, 0
12, 38430, Note_on_c, 11, 65, 95
12, 38460, Note_on_c, 11, 65, 0
12, 38460, Note_on_c, 11, 65, 99
12, 38490, Note_on_c, 11, 65, 0
12, 38490, Note_on_c, 11, 65, 94
12, 38520, Note_on_c, 11, 65, 0
12, 38520, Note_on_c, 11, 65, 95
12, 38550, Note_on_c, 11, 65, 0
12, 38550, Note_on_c, 11, 65, 93
12, 38580, Note_on_c, 11, 65, 0
12, 38580, Note_on_c, 11, 65, 95
12, 38610, Note_on_c, 11, 65, 0
12, 38610, Note_on_c, 11, 65, 99
12, 38640, Note_on_c, 11, 65, 0
12, 38640, Note_on_c, 11, 65, 94
12, 38670, Note_on_c, 11, 65, 0
12, 38670, Note_on_c, 11, 65, 95
12, 38700, Note_on_c, 11, 65, 0
12, 38700, Note_on_c, 11, 65, 94
12, 38730, Note_on_c, 11, 65, 0
12, 38730, Note_on_c, 11, 65, 94
12, 38760, Note_on_c, 11, 65, 0
12, 38760, Note_on_c, 11, 65, 94
12, 38790, Note_on_c, 11, 65, 0
12, 38790, Note_on_c, 11, 65, 94
12, 38820, Note_on_c, 11, 65, 0
12, 38820, Note_on_c, 11, 65, 94
12, 38850, Note_on_c, 11, 65, 0
12, 38850, Note_on_c, 11, 65, 99
12, 38880, Note_on_c, 11, 65, 0
12, 38880, Note_on_c, 11, 65, 98
12, 38910, Note_on_c, 11, 65, 0
12, 38910, Note_on_c, 11, 65, 98
12, 38940, Note_on_c, 11, 65, 0
12, 38940, Note_on_c, 11, 65, 95
12, 38970, Note_on_c, 11, 65, 0
12, 38970, Note_on_c, 11, 65, 95
12, 39000, Note_on_c, 11, 65, 0
12, 39000, Note_on_c, 11, 65, 95
12, 39030, Note_on_c, 11, 65, 0
12, 39030, Note_on_c, 11, 65, 95
12, 39060, Note_on_c, 11, 65, 0
12, 39060, Note_on_c, 11, 65, 95
12, 39090, Note_on_c, 11, 65, 0
12, 39090, Note_on_c, 11, 65, 99
12, 39120, Note_on_c, 11, 65, 0
12, 39120, Note_on_c, 11, 63, 89
12, 39150, Note_on_c, 11, 63, 0
12, 39150, Note_on_c, 11, 63, 90
12, 39180, Note_on_c, 11, 63, 0
12, 39180, Note_on_c, 11, 63, 90
12, 39210, Note_on_c, 11, 63, 0
12, 39210, Note_on_c, 11, 63, 95
12, 39240, Note_on_c, 11, 63, 0
12, 39240, Note_on_c, 11, 62, 94
12, 39270, Note_on_c, 11, 62, 0
12, 39270, Note_on_c, 11, 62, 98
12, 39300, Note_on_c, 11, 62, 0
12, 39300, Note_on_c, 11, 62, 99
12, 39330, Note_on_c, 11, 62, 0
12, 39330, Note_on_c, 11, 62, 99
12, 39360, Note_on_c, 11, 62, 0
12, 39360, Note_on_c, 11, 60, 104
12, 39480, Note_on_c, 11, 60, 0
12, 39600, Note_on_c, 11, 65, 104
12, 39720, Note_on_c, 11, 65, 0
12, 39840, Note_on_c, 11, 67, 104
12, 39960, Note_on_c, 11, 67, 0
12, 40080, Note_on_c, 11, 55, 99
12, 40200, Note_on_c, 11, 55, 0
12, 40320, Note_on_c, 11, 60, 105
12, 40440, Note_on_c, 11, 60, 0
12, 41640, Note_on_c, 11, 65, 65
12, 41760, Note_on_c, 11, 65, 0
12, 41880, Note_on_c, 11, 63, 69
12, 42000, Note_on_c, 11, 63, 0
12, 42120, Note_on_c, 11, 62, 81
12, 42240, Note_on_c, 11, 62, 0
12, 42240, Note_on_c, 11, 60, 72
12, 42360, Note_on_c, 11, 60, 0
12, 42360, Note_on_c, 11, 63, 73
12, 42450, Note_on_c, 11, 63, 0
12, 42480, Note_on_c, 11, 63, 62
12, 42570, Note_on_c, 11, 63, 0
12, 42600, Note_on_c, 11, 63, 67
12, 42690, Note_on_c, 11, 63, 0
12, 42720, Note_on_c, 11, 63, 77
12, 42960, Note_on_c, 11, 63, 0
12, 42960, Note_on_c, 11, 62, 69
12, 43140, Note_on_c, 11, 62, 0
12, 43140, Note_on_c, 11, 60, 84
12, 43200, Note_on_c, 11, 60, 0
12, 43200, Note_on_c, 11, 68, 76
12, 43440, Note_on_c, 11, 68, 0
12, 43440, Note_on_c, 11, 67, 84
12, 43620, Note_on_c, 11, 67, 0
12, 43620, Note_on_c, 11, 65, 89
12, 43680, Note_on_c, 11, 65, 0
12, 43680, Note_on_c, 11, 65, 69
12, 43920, Note_on_c, 11, 65, 0
12, 43920, Note_on_c, 11, 63, 65
12, 44100, Note_on_c, 11, 63, 0
12, 44100, Note_on_c, 11, 62, 74
12, 44160, Note_on_c, 11, 62, 0
12, 44160, Note_on_c, 11, 59, 70
12, 44400, Note_on_c, 11, 59, 0
12, 44400, Note_on_c, 11, 60, 65
12, 44580, Note_on_c, 11, 60, 0
12, 44580, Note_on_c, 11, 62, 43
12, 44640, Note_on_c, 11, 62, 0
12, 44640, Note_on_c, 11, 62, 68
12, 44670, Note_on_c, 11, 62, 0
12, 44670, Note_on_c, 11, 62, 73
12, 44700, Note_on_c, 11, 62, 0
12, 44700, Note_on_c, 11, 62, 70
12, 44730, Note_on_c, 11, 62, 0
12, 44730, Note_on_c, 11, 62, 74
12, 44760, Note_on_c, 11, 62, 0
12, 44760, Note_on_c, 11, 62, 74
12, 44790, Note_on_c, 11, 62, 0
12, 44790, Note_on_c, 11, 62, 72
12, 44820, Note_on_c, 11, 62, 0
12, 44820, Note_on_c, 11, 62, 76
12, 44850, Note_on_c, 11, 62, 0
12, 44850, Note_on_c, 11, 62, 80
12, 44880, Note_on_c, 11, 62, 0
12, 44880, Note_on_c, 11, 62, 81
12, 44910, Note_on_c, 11, 62, 0
12, 44910, Note_on_c, 11, 62, 84
12, 44940, Note_on_c, 11, 62, 0
12, 44940, Note_on_c, 11, 62, 80
12, 44970, Note_on_c, 11, 62, 0
12, 44970, Note_on_c, 11, 62, 86
12, 45000, Note_on_c, 11, 62, 0
12, 45000, Note_on_c, 11, 62, 81
12, 45030, Note_on_c, 11, 62, 0
12, 45030, Note_on_c, 11, 62, 84
12, 45060, Note_on_c, 11, 62, 0
12, 45060, Note_on_c, 11, 62, 80
12, 45090, Note_on_c, 11, 62, 0
12, 45090, Note_on_c, 11, 62, 81
12, 45120, Note_on_c, 11, 62, 0
12, 45120, Note_on_c, 11, 61, 74
12, 45150, Note_on_c, 11, 61, 0
12, 45150, Note_on_c, 11, 61, 74
12, 45180, Note_on_c, 11, 61, 0
12, 45180, Note_on_c, 11, 61, 74
12, 45210, Note_on_c, 11, 61, 0
12, 45210, Note_on_c, 11, 61, 78
12, 45240, Note_on_c, 11, 61, 0
12, 45240, Note_on_c, 11, 61, 73
12, 45270, Note_on_c, 11, 61, 0
12, 45270, Note_on_c, 11, 61, 76
12, 45300, Note_on_c, 11, 61, 0
12, 45300, Note_on_c, 11, 61, 69
12, 45330, Note_on_c, 11, 61, 0
12, 45330, Note_on_c, 11, 61, 73
12, 45360, Note_on_c, 11, 61, 0
12, 45360, Note_on_c, 11, 61, 74
12, 45390, Note_on_c, 11, 61, 0
12, 45390, Note_on_c, 11, 61, 73
12, 45420, Note_on_c, 11, 61, 0
12, 45420, Note_on_c, 11, 61, 76
12, 45450, Note_on_c, 11, 61, 0
12, 45450, Note_on_c, 11, 61, 73
12, 45480, Note_on_c, 11, 61, 0
12, 45480, Note_on_c, 11, 61, 76
12, 45510, Note_on_c, 11, 61, 0
12, 45510, Note_on_c, 11, 61, 76
12, 45540, Note_on_c, 11, 61, 0
12, 45540, Note_on_c, 11, 61, 74
12, 45570, Note_on_c, 11, 61, 0
12, 45570, Note_on_c, 11, 61, 80
12, 45600, Note_on_c, 11, 61, 0
12, 45600, Note_on_c, 11, 57, 98
12, 45630, Note_on_c, 11, 57, 0
12, 45630, Note_on_c, 11, 57, 94
12, 45660, Note_on_c, 11, 57, 0
12, 45660, Note_on_c, 11, 57, 90
12, 45690, Note_on_c, 11, 57, 0
12, 45690, Note_on_c, 11, 57, 89
12, 45720, Note_on_c, 11, 57, 0
12, 45720, Note_on_c, 11, 57, 95
12, 45750, Note_on_c, 11, 57, 0
12, 45750, Note_on_c, 11, 57, 99
12, 45780, Note_on_c, 11, 57, 0
12, 45780, Note_on_c, 11, 57, 95
12, 45810, Note_on_c, 11, 57, 0
12, 45810, Note_on_c, 11, 57, 99
12, 45840, Note_on_c, 11, 57, 0
12, 45840, Note_on_c, 11, 56, 84
12, 45870, Note_on_c, 11, 56, 0
12, 45870, Note_on_c, 11, 56, 78
12, 45900, Note_on_c, 11, 56, 0
12, 45900, Note_on_c, 11, 56, 84
12, 45930, Note_on_c, 11, 56, 0
12, 45930, Note_on_c, 11, 56, 84
12, 45960, Note_on_c, 11, 56, 0
12, 45960, Note_on_c, 11, 56, 84
12, 45990, Note_on_c, 11, 56, 0
12, 45990, Note_on_c, 11, 56, 86
12, 46020, Note_on_c, 11, 56, 0
12, 46020, Note_on_c, 11, 56, 85
12, 46050, Note_on_c, 11, 56, 0
12, 46050, Note_on_c, 11, 56, 80
12, 46080, Note_on_c, 11, 56, 0
12, 46080, Note_on_c, 11, 55, 61
12, 46110, Note_on_c, 11, 55, 0
12, 46110, Note_on_c, 11, 55, 59
12, 46140, Note_on_c, 11, 55, 0
12, 46140, Note_on_c, 11, 55, 53
12, 46170, Note_on_c, 11, 55, 0
12, 46170, Note_on_c, 11, 55, 58
12, 46200, Note_on_c, 11, 55, 0
12, 46200, Note_on_c, 11, 55, 62
12, 46230, Note_on_c, 11, 55, 0
12, 46230, Note_on_c, 11, 55, 65
12, 46260, Note_on_c, 11, 55, 0
12, 46260, Note_on_c, 11, 55, 69
12, 46290, Note_on_c, 11, 55, 0
12, 46290, Note_on_c, 11, 55, 69
12, 46320, Note_on_c, 11, 55, 0
12, 46320, Note_on_c, 11, 55, 69
12, 46350, Note_on_c, 11, 55, 0
12, 46350, Note_on_c, 11, 55, 69
12, 46380, Note_on_c, 11, 55, 0
12, 46380, Note_on_c, 11, 55, 61
12, 46410, Note_on_c, 11, 55, 0
12, 46410, Note_on_c, 11, 55, 68
12, 46440, Note_on_c, 11, 55, 0
12, 46440, Note_on_c, 11, 53, 64
12, 46470, Note_on_c, 11, 53, 0
12, 46470, Note_on_c, 11, 53, 61
12, 46500, Note_on_c, 11, 53, 0
12, 46500, Note_on_c, 11, 53, 66
12, 46530, Note_on_c, 11, 53, 0
12, 46530, Note_on_c, 11, 53, 69
12, 46560, Note_on_c, 11, 53, 0
12, 46560, Note_on_c, 11, 51, 71
12, 46620, Note_on_c, 11, 51, 0
12, 46620, Note_on_c, 11, 60, 46
12, 46680, Note_on_c, 11, 60, 0
12, 46680, Note_on_c, 11, 60, 59
12, 46740, Note_on_c, 11, 60, 0
12, 46740, Note_on_c, 11, 60, 65
12, 46800, Note_on_c, 11, 60, 0
12, 46800, Note_on_c, 11, 60, 62
12, 46860, Note_on_c, 11, 60, 0
12, 46860, Note_on_c, 11, 60, 62
12, 46920, Note_on_c, 11, 60, 0
12, 46920, Note_on_c, 11, 60, 66
12, 46980, Note_on_c, 11, 60, 0
12, 46980, Note_on_c, 11, 60, 64
12, 47040, Note_on_c, 11, 60, 0
12, 47100, Note_on_c, 11, 59, 67
12, 47160, Note_on_c, 11, 59, 0
12, 47160, Note_on_c, 11, 59, 62
12, 47220, Note_on_c, 11, 59, 0
12, 47220, Note_on_c, 11, 59, 71
12, 47280, Note_on_c, 11, 59, 0
12, 47280, Note_on_c, 11, 59, 59
12, 47340, Note_on_c, 11, 59, 0
12, 47340, Note_on_c, 11, 59, 65
12, 47400, Note_on_c, 11, 59, 0
12, 47400, Note_on_c, 11, 59, 60
12, 47460, Note_on_c, 11, 59, 0
12, 47460, Note_on_c, 11, 59, 67
12, 47520, Note_on_c, 11, 59, 0
12, 47580, Note_on_c, 11, 60, 43
12, 47640, Note_on_c, 11, 60, 0
12, 47640, Note_on_c, 11, 60, 43
12, 47700, Note_on_c, 11, 60, 0
12, 47700, Note_on_c, 11, 60, 43
12, 47760, Note_on_c, 11, 60, 0
12, 47820, Note_on_c, 11, 60, 43
12, 47880, Note_on_c, 11, 60, 0
12, 47880, Note_on_c, 11, 60, 46
12, 47940, Note_on_c, 11, 60, 0
12, 47940, Note_on_c, 11, 60, 40
12, 48000, Note_on_c, 11, 60, 0
12, 48060, Note_on_c, 11, 60, 52
12, 48120, Note_on_c, 11, 60, 0
12, 48120, Note_on_c, 11, 60, 59
12, 48180, Note_on_c, 11, 60, 0
12, 48180, Note_on_c, 11, 60, 49
12, 48240, Note_on_c, 11, 60, 0
12, 48300, Note_on_c, 11, 59, 46
12, 48360, Note_on_c, 11, 59, 0
12, 48360, Note_on_c, 11, 59, 42
12, 48420, Note_on_c, 11, 59, 0
12, 48420, Note_on_c, 11, 59, 53
12, 48480, Note_on_c, 11, 59, 0
12, 48480, Note_on_c, 11, 60, 58
12, 48540, Note_on_c, 11, 60, 0
12, 48540, Note_on_c, 11, 60, 44
12, 48600, Note_on_c, 11, 60, 0
12, 48600, Note_on_c, 11, 72, 31
12, 48660, Note_on_c, 11, 72, 0
12, 48660, Note_on_c, 11, 72, 36
12, 48720, Note_on_c, 11, 72, 0
12, 48720, Note_on_c, 11, 68, 73
12, 48780, Note_on_c, 11, 68, 0
12, 48780, Note_on_c, 11, 68, 80
12, 48840, Note_on_c, 11, 68, 0
12, 48840, Note_on_c, 11, 66, 84
12, 48900, Note_on_c, 11, 66, 0
12, 48900, Note_on_c, 11, 66, 85
12, 48960, Note_on_c, 11, 66, 0
12, 48960, Note_on_c, 11, 67, 89
12, 49020, Note_on_c, 11, 67, 0
12, 49020, Note_on_c, 11, 67, 84
12, 49080, Note_on_c, 11, 67, 0
12, 49080, Note_on_c, 11, 67, 81
12, 49140, Note_on_c, 11, 67, 0
12, 49140, Note_on_c, 11, 67, 80
12, 49200, Note_on_c, 11, 67, 0
12, 49200, Note_on_c, 11, 55, 89
12, 49260, Note_on_c, 11, 55, 0
12, 49260, Note_on_c, 11, 55, 86
12, 49320, Note_on_c, 11, 55, 0
12, 49320, Note_on_c, 11, 55, 84
12, 49380, Note_on_c, 11, 55, 0
12, 49380, Note_on_c, 11, 55, 86
12, 49440, Note_on_c, 11, 55, 0
12, 49440, Note_on_c, 11, 60, 104
12, 49560, Note_on_c, 11, 60, 0
12, 49920, Note_on_c, 11, 48, 98
12, 50160, Note_on_c, 11, 48, 0
12, 50160, Note_on_c, 11, 51, 94
12, 50400, Note_on_c, 11, 51, 0
12, 50400, Note_on_c, 11, 55, 80
12, 50580, Note_on_c, 11, 55, 0
12, 50580, Note_on_c, 11, 53, 82
12, 50610, Note_on_c, 11, 53, 0
12, 50640, Note_on_c, 11, 51, 84
12, 50700, Note_on_c, 11, 51, 0
12, 50760, Note_on_c, 11, 50, 90
12, 50820, Note_on_c, 11, 50, 0
12, 50880, Note_on_c, 11, 48, 84
12, 51000, Note_on_c, 11, 48, 0
12, 51060, Note_on_c, 11, 55, 85
12, 51090, Note_on_c, 11, 55, 0
12, 51120, Note_on_c, 11, 60, 84
12, 51180, Note_on_c, 11, 60, 0
12, 51300, Note_on_c, 11, 55, 89
12, 51330, Note_on_c, 11, 55, 0
12, 51360, Note_on_c, 11, 60, 80
12, 51420, Note_on_c, 11, 60, 0
12, 51780, Note_on_c, 11, 67, 84
12, 51810, Note_on_c, 11, 67, 0
12, 51840, Note_on_c, 11, 72, 58
12, 51900, Note_on_c, 11, 72, 0
12, 52320, Note_on_c, 11, 48, 99
12, 52380, Note_on_c, 11, 48, 0
12, 52560, Note_on_c, 11, 48, 99
12, 52620, Note_on_c, 11, 48, 0
12, 52800, Note_on_c, 11, 48, 101
12, 53040, Note_on_c, 11, 48, 0
12, 58080, Note_on_c, 11, 48, 44
12, 58320, Note_on_c, 11, 48, 0
12, 58320, Note_on_c, 11, 51, 76
12, 58560, Note_on_c, 11, 51, 0
12, 58560, Note_on_c, 11, 56, 48
12, 59040, Note_on_c, 11, 56, 0
12, 59040, Note_on_c, 11, 53, 46
12, 59280, Note_on_c, 11, 53, 0
12, 59280, Note_on_c, 11, 56, 68
12, 59520, Note_on_c, 11, 56, 0
12, 59520, Note_on_c, 11, 61, 44
12, 60000, Note_on_c, 11, 61, 0
12, 60000, Note_on_c, 11, 59, 67
12, 60240, Note_on_c, 11, 59, 0
12, 60240, Note_on_c, 11, 62, 55
12, 60480, Note_on_c, 11, 62, 0
12, 60480, Note_on_c, 11, 55, 54
12, 60840, Note_on_c, 11, 55, 0
12, 60840, Note_on_c, 11, 67, 57
12, 61080, Note_on_c, 11, 67, 0
12, 61080, Note_on_c, 11, 67, 64
12, 61200, Note_on_c, 11, 67, 0
12, 61320, Note_on_c, 11, 60, 44
12, 61440, Note_on_c, 11, 60, 0
12, 61560, Note_on_c, 11, 60, 52
12, 61680, Note_on_c, 11, 60, 0
12, 61800, Note_on_c, 11, 62, 57
12, 61920, Note_on_c, 11, 62, 0
12, 61920, Note_on_c, 11, 60, 68
12, 62040, Note_on_c, 11, 60, 0
12, 62400, Note_on_c, 11, 62, 59
12, 62760, Note_on_c, 11, 62, 0
12, 62760, Note_on_c, 11, 59, 65
12, 62850, Note_on_c, 11, 59, 0
12, 62850, Note_on_c, 11, 60, 64
12, 62880, Note_on_c, 11, 60, 0
12, 62880, Note_on_c, 11, 60, 57
12, 63000, Note_on_c, 11, 60, 0
12, 64320, Note_on_c, 11, 65, 69
12, 64680, Note_on_c, 11, 65, 0
12, 64680, Note_on_c, 11, 62, 61
12, 64770, Note_on_c, 11, 62, 0
12, 64770, Note_on_c, 11, 63, 58
12, 64800, Note_on_c, 11, 63, 0
12, 64800, Note_on_c, 11, 63, 53
12, 64920, Note_on_c, 11, 63, 0
12, 65760, Note_on_c, 11, 58, 94
12, 65820, Note_on_c, 11, 58, 0
12, 65820, Note_on_c, 11, 58, 93
12, 65880, Note_on_c, 11, 58, 0
12, 65880, Note_on_c, 11, 58, 89
12, 65940, Note_on_c, 11, 58, 0
12, 65940, Note_on_c, 11, 58, 94
12, 66000, Note_on_c, 11, 58, 0
12, 66000, Note_on_c, 11, 58, 94
12, 66060, Note_on_c, 11, 58, 0
12, 66060, Note_on_c, 11, 58, 94
12, 66120, Note_on_c, 11, 58, 0
12, 66120, Note_on_c, 11, 58, 86
12, 66180, Note_on_c, 11, 58, 0
12, 66180, Note_on_c, 11, 58, 93
12, 66240, Note_on_c, 11, 58, 0
12, 66240, Note_on_c, 11, 58, 90
12, 66300, Note_on_c, 11, 58, 0
12, 66300, Note_on_c, 11, 58, 95
12, 66360, Note_on_c, 11, 58, 0
12, 66360, Note_on_c, 11, 58, 93
12, 66420, Note_on_c, 11, 58, 0
12, 66420, Note_on_c, 11, 58, 90
12, 66480, Note_on_c, 11, 58, 0
12, 66480, Note_on_c, 11, 58, 93
12, 66540, Note_on_c, 11, 58, 0
12, 66540, Note_on_c, 11, 58, 89
12, 66600, Note_on_c, 11, 58, 0
12, 66600, Note_on_c, 11, 58, 90
12, 66660, Note_on_c, 11, 58, 0
12, 66660, Note_on_c, 11, 58, 90
12, 66720, Note_on_c, 11, 58, 0
12, 66720, Note_on_c, 11, 58, 94
12, 66840, Note_on_c, 11, 58, 0
12, 67680, Note_on_c, 11, 51, 95
12, 67740, Note_on_c, 11, 51, 0
12, 67740, Note_on_c, 11, 63, 84
12, 67800, Note_on_c, 11, 63, 0
12, 67800, Note_on_c, 11, 63, 84
12, 67860, Note_on_c, 11, 63, 0
12, 67860, Note_on_c, 11, 63, 84
12, 67920, Note_on_c, 11, 63, 0
12, 67920, Note_on_c, 11, 63, 89
12, 67980, Note_on_c, 11, 63, 0
12, 67980, Note_on_c, 11, 63, 86
12, 68040, Note_on_c, 11, 63, 0
12, 68040, Note_on_c, 11, 63, 89
12, 68100, Note_on_c, 11, 63, 0
12, 68100, Note_on_c, 11, 63, 93
12, 68160, Note_on_c, 11, 63, 0
12, 68160, Note_on_c, 11, 63, 93
12, 68220, Note_on_c, 11, 63, 0
12, 68220, Note_on_c, 11, 63, 89
12, 68280, Note_on_c, 11, 63, 0
12, 68280, Note_on_c, 11, 63, 89
12, 68340, Note_on_c, 11, 63, 0
12, 68340, Note_on_c, 11, 63, 93
12, 68400, Note_on_c, 11, 63, 0
12, 68400, Note_on_c, 11, 63, 89
12, 68460, Note_on_c, 11, 63, 0
12, 68460, Note_on_c, 11, 63, 89
12, 68520, Note_on_c, 11, 63, 0
12, 68520, Note_on_c, 11, 63, 86
12, 68580, Note_on_c, 11, 63, 0
12, 68580, Note_on_c, 11, 63, 95
12, 68640, Note_on_c, 11, 63, 0
12, 68640, Note_on_c, 11, 63, 85
12, 68760, Note_on_c, 11, 63, 0
12, 69720, Note_on_c, 11, 58, 53
12, 69840, Note_on_c, 11, 58, 0
12, 69960, Note_on_c, 11, 58, 43
12, 70080, Note_on_c, 11, 58, 0
12, 70200, Note_on_c, 11, 58, 53
12, 70320, Note_on_c, 11, 58, 0
12, 70440, Note_on_c, 11, 58, 43
12, 70560, Note_on_c, 11, 58, 0
12, 70680, Note_on_c, 11, 58, 53
12, 70800, Note_on_c, 11, 58, 0
12, 70920, Note_on_c, 11, 58, 43
12, 71040, Note_on_c, 11, 58, 0
12, 71160, Note_on_c, 11, 58, 53
12, 71280, Note_on_c, 11, 58, 0
12, 71400, Note_on_c, 11, 58, 43
12, 71520, Note_on_c, 11, 58, 0
12, 71640, Note_on_c, 11, 58, 53
12, 71760, Note_on_c, 11, 58, 0
12, 71880, Note_on_c, 11, 58, 43
12, 72000, Note_on_c, 11, 58, 0
12, 72120, Note_on_c, 11, 58, 53
12, 72240, Note_on_c, 11, 58, 0
12, 72360, Note_on_c, 11, 58, 43
12, 72480, Note_on_c, 11, 58, 0
12, 72600, Note_on_c, 11, 58, 53
12, 72720, Note_on_c, 11, 58, 0
12, 72840, Note_on_c, 11, 58, 43
12, 72960, Note_on_c, 11, 58, 0
12, 73080, Note_on_c, 11, 58, 53
12, 73200, Note_on_c, 11, 58, 0
12, 73320, Note_on_c, 11, 58, 43
12, 73440, Note_on_c, 11, 58, 0
12, 73440, Note_on_c, 11, 58, 62
12, 73560, Note_on_c, 11, 58, 0
12, 73800, Note_on_c, 11, 60, 52
12, 73920, Note_on_c, 11, 60, 0
12, 73920, Note_on_c, 11, 62, 54
12, 73980, Note_on_c, 11, 62, 0
12, 74280, Note_on_c, 11, 60, 65
12, 74400, Note_on_c, 11, 60, 0
12, 74400, Note_on_c, 11, 62, 67
12, 74460, Note_on_c, 11, 62, 0
12, 74520, Note_on_c, 11, 62, 73
12, 74580, Note_on_c, 11, 62, 0
12, 74760, Note_on_c, 11, 60, 65
12, 74820, Note_on_c, 11, 60, 0
12, 75000, Note_on_c, 11, 58, 67
12, 75060, Note_on_c, 11, 58, 0
12, 75240, Note_on_c, 11, 56, 61
12, 75300, Note_on_c, 11, 56, 0
12, 75360, Note_on_c, 11, 55, 65
12, 75420, Note_on_c, 11, 55, 0
12, 75480, Note_on_c, 11, 53, 69
12, 75540, Note_on_c, 11, 53, 0
12, 78240, Note_on_c, 11, 58, 53
12, 78360, Note_on_c, 11, 58, 0
12, 78480, Note_on_c, 11, 56, 58
12, 78600, Note_on_c, 11, 56, 0
12, 78720, Note_on_c, 11, 55, 61
12, 78840, Note_on_c, 11, 55, 0
12, 80160, Note_on_c, 11, 60, 52
12, 80280, Note_on_c, 11, 60, 0
12, 80400, Note_on_c, 11, 58, 46
12, 80520, Note_on_c, 11, 58, 0
12, 80640, Note_on_c, 11, 56, 44
12, 80760, Note_on_c, 11, 56, 0
12, 80880, Note_on_c, 11, 55, 45
12, 81000, Note_on_c, 11, 55, 0
12, 82080, Note_on_c, 11, 63, 50
12, 82200, Note_on_c, 11, 63, 0
12, 82320, Note_on_c, 11, 58, 46
12, 82440, Note_on_c, 11, 58, 0
12, 82560, Note_on_c, 11, 51, 53
12, 82680, Note_on_c, 11, 51, 0
12, 83160, Note_on_c, 11, 58, 45
12, 83280, Note_on_c, 11, 58, 0
12, 83280, Note_on_c, 11, 58, 45
12, 83400, Note_on_c, 11, 58, 0
12, 83400, Note_on_c, 11, 58, 61
12, 83520, Note_on_c, 11, 58, 0
12, 83520, Note_on_c, 11, 63, 59
12, 83640, Note_on_c, 11, 63, 0
12, 83640, Note_on_c, 11, 51, 69
12, 83760, Note_on_c, 11, 51, 0
12, 83760, Note_on_c, 11, 63, 57
12, 83880, Note_on_c, 11, 63, 0
12, 83880, Note_on_c, 11, 61, 61
12, 84000, Note_on_c, 11, 61, 0
12, 84000, Note_on_c, 11, 60, 104
12, 84240, Note_on_c, 11, 60, 0
12, 84240, Note_on_c, 11, 58, 74
12, 84360, Note_on_c, 11, 58, 0
12, 84420, Note_on_c, 11, 58, 68
12, 84480, Note_on_c, 11, 58, 0
12, 84480, Note_on_c, 11, 56, 112
12, 84720, Note_on_c, 11, 56, 0
12, 84720, Note_on_c, 11, 55, 89
12, 84840, Note_on_c, 11, 55, 0
12, 84900, Note_on_c, 11, 60, 86
12, 84960, Note_on_c, 11, 60, 0
12, 84960, Note_on_c, 11, 58, 80
12, 85080, Note_on_c, 11, 58, 0
12, 85080, Note_on_c, 11, 58, 84
12, 85200, Note_on_c, 11, 58, 0
12, 85200, Note_on_c, 11, 58, 77
12, 85320, Note_on_c, 11, 58, 0
12, 85320, Note_on_c, 11, 58, 86
12, 85440, Note_on_c, 11, 58, 0
12, 85440, Note_on_c, 11, 58, 89
12, 85800, Note_on_c, 11, 58, 0
12, 86880, Note_on_c, 11, 60, 48
12, 87360, Note_on_c, 11, 60, 0
12, 87360, Note_on_c, 11, 62, 43
12, 87840, Note_on_c, 11, 62, 0
12, 87840, Note_on_c, 11, 63, 40
12, 88080, Note_on_c, 11, 63, 0
12, 88080, Note_on_c, 11, 56, 39
12, 88320, Note_on_c, 11, 56, 0
12, 88320, Note_on_c, 11, 55, 54
12, 88560, Note_on_c, 11, 55, 0
12, 88560, Note_on_c, 11, 53, 43
12, 88800, Note_on_c, 11, 53, 0
12, 88800, Note_on_c, 11, 55, 45
12, 88920, Note_on_c, 11, 55, 0
12, 90120, Note_on_c, 11, 56, 62
12, 90240, Note_on_c, 11, 56, 0
12, 90360, Note_on_c, 11, 55, 71
12, 90480, Note_on_c, 11, 55, 0
12, 90600, Note_on_c, 11, 53, 67
12, 90720, Note_on_c, 11, 53, 0
12, 90720, Note_on_c, 11, 55, 68
12, 90840, Note_on_c, 11, 55, 0
12, 92640, Note_on_c, 11, 61, 44
12, 93120, Note_on_c, 11, 61, 0
12, 93120, Note_on_c, 11, 61, 40
12, 93240, Note_on_c, 11, 61, 0
12, 93240, Note_on_c, 11, 61, 46
12, 93360, Note_on_c, 11, 61, 0
12, 93480, Note_on_c, 11, 59, 61
12, 93600, Note_on_c, 11, 59, 0
12, 93720, Note_on_c, 11, 58, 58
12, 93840, Note_on_c, 11, 58, 0
12, 93960, Note_on_c, 11, 56, 61
12, 94080, Note_on_c, 11, 56, 0
12, 94200, Note_on_c, 11, 63, 68
12, 94320, Note_on_c, 11, 63, 0
12, 94440, Note_on_c, 11, 56, 68
12, 94560, Note_on_c, 11, 56, 0
12, 94680, Note_on_c, 11, 54, 64
12, 94800, Note_on_c, 11, 54, 0
12, 94920, Note_on_c, 11, 53, 71
12, 95040, Note_on_c, 11, 53, 0
12, 95040, Note_on_c, 11, 63, 58
12, 95160, Note_on_c, 11, 63, 0
12, 95220, Note_on_c, 11, 58, 71
12, 95250, Note_on_c, 11, 58, 0
12, 95280, Note_on_c, 11, 63, 62
12, 95340, Note_on_c, 11, 63, 0
12, 95700, Note_on_c, 11, 58, 69
12, 95730, Note_on_c, 11, 58, 0
12, 95760, Note_on_c, 11, 63, 70
12, 95820, Note_on_c, 11, 63, 0
12, 97920, Note_on_c, 11, 63, 65
12, 98040, Note_on_c, 11, 63, 0
12, 98400, Note_on_c, 11, 63, 65
12, 98520, Note_on_c, 11, 63, 0
12, 100320, Note_on_c, 11, 58, 67
12, 100800, Note_on_c, 11, 58, 0
12, 100800, Note_on_c, 11, 58, 62
12, 100920, Note_on_c, 11, 58, 0
12, 101460, Note_on_c, 11, 63, 81
12, 101490, Note_on_c, 11, 63, 0
12, 101520, Note_on_c, 11, 67, 71
12, 101580, Note_on_c, 11, 67, 0
12, 101700, Note_on_c, 11, 55, 85
12, 101730, Note_on_c, 11, 55, 0
12, 101760, Note_on_c, 11, 56, 80
12, 101820, Note_on_c, 11, 56, 0
12, 102420, Note_on_c, 11, 60, 80
12, 102450, Note_on_c, 11, 60, 0
12, 102480, Note_on_c, 11, 63, 72
12, 102540, Note_on_c, 11, 63, 0
12, 102660, Note_on_c, 11, 56, 69
12, 102690, Note_on_c, 11, 56, 0
12, 102720, Note_on_c, 11, 57, 76
12, 102780, Note_on_c, 11, 57, 0
12, 103380, Note_on_c, 11, 63, 76
12, 103410, Note_on_c, 11, 63, 0
12, 103440, Note_on_c, 11, 66, 74
12, 103500, Note_on_c, 11, 66, 0
12, 103620, Note_on_c, 11, 57, 67
12, 103650, Note_on_c, 11, 57, 0
12, 103680, Note_on_c, 11, 58, 73
12, 103740, Note_on_c, 11, 58, 0
12, 103800, Note_on_c, 11, 58, 69
12, 103920, Note_on_c, 11, 58, 0
12, 104040, Note_on_c, 11, 60, 73
12, 104160, Note_on_c, 11, 60, 0
12, 104280, Note_on_c, 11, 58, 58
12, 104400, Note_on_c, 11, 58, 0
12, 104520, Note_on_c, 11, 57, 74
12, 104640, Note_on_c, 11, 57, 0
12, 104640, Note_on_c, 11, 58, 55
12, 104760, Note_on_c, 11, 58, 0
12, 106560, Note_on_c, 11, 65, 58
12, 106680, Note_on_c, 11, 65, 0
12, 107520, Note_on_c, 11, 53, 71
12, 107640, Note_on_c, 11, 53, 0
12, 108480, Note_on_c, 11, 58, 94
12, 108510, Note_on_c, 11, 58, 0
12, 108510, Note_on_c, 11, 58, 93
12, 108540, Note_on_c, 11, 58, 0
12, 108540, Note_on_c, 11, 58, 93
12, 108570, Note_on_c, 11, 58, 0
12, 108570, Note_on_c, 11, 58, 93
12, 108600, Note_on_c, 11, 58, 0
12, 108600, Note_on_c, 11, 58, 86
12, 108630, Note_on_c, 11, 58, 0
12, 108630, Note_on_c, 11, 58, 90
12, 108660, Note_on_c, 11, 58, 0
12, 108660, Note_on_c, 11, 58, 89
12, 108690, Note_on_c, 11, 58, 0
12, 108690, Note_on_c, 11, 58, 90
12, 108720, Note_on_c, 11, 58, 0
12, 108720, Note_on_c, 11, 58, 89
12, 108750, Note_on_c, 11, 58, 0
12, 108750, Note_on_c, 11, 58, 93
12, 108780, Note_on_c, 11, 58, 0
12, 108780, Note_on_c, 11, 58, 90
12, 108810, Note_on_c, 11, 58, 0
12, 108810, Note_on_c, 11, 58, 94
12, 108840, Note_on_c, 11, 58, 0
12, 108840, Note_on_c, 11, 58, 94
12, 108870, Note_on_c, 11, 58, 0
12, 108870, Note_on_c, 11, 58, 89
12, 108900, Note_on_c, 11, 58, 0
12, 108900, Note_on_c, 11, 58, 89
12, 108930, Note_on_c, 11, 58, 0
12, 108930, Note_on_c, 11, 58, 90
12, 108960, Note_on_c, 11, 58, 0
12, 108960, Note_on_c, 11, 58, 84
12, 108990, Note_on_c, 11, 58, 0
12, 108990, Note_on_c, 11, 58, 82
12, 109020, Note_on_c, 11, 58, 0
12, 109020, Note_on_c, 11, 58, 80
12, 109050, Note_on_c, 11, 58, 0
12, 109050, Note_on_c, 11, 58, 86
12, 109080, Note_on_c, 11, 58, 0
12, 109080, Note_on_c, 11, 58, 82
12, 109110, Note_on_c, 11, 58, 0
12, 109110, Note_on_c, 11, 58, 84
12, 109140, Note_on_c, 11, 58, 0
12, 109140, Note_on_c, 11, 58, 84
12, 109170, Note_on_c, 11, 58, 0
12, 109170, Note_on_c, 11, 58, 84
12, 109200, Note_on_c, 11, 58, 0
12, 109200, Note_on_c, 11, 58, 80
12, 109230, Note_on_c, 11, 58, 0
12, 109230, Note_on_c, 11, 58, 84
12, 109260, Note_on_c, 11, 58, 0
12, 109260, Note_on_c, 11, 58, 81
12, 109290, Note_on_c, 11, 58, 0
12, 109290, Note_on_c, 11, 58, 84
12, 109320, Note_on_c, 11, 58, 0
12, 109320, Note_on_c, 11, 58, 84
12, 109350, Note_on_c, 11, 58, 0
12, 109350, Note_on_c, 11, 58, 84
12, 109380, Note_on_c, 11, 58, 0
12, 109380, Note_on_c, 11, 58, 85
12, 109410, Note_on_c, 11, 58, 0
12, 109410, Note_on_c, 11, 58, 84
12, 109440, Note_on_c, 11, 58, 0
12, 109440, Note_on_c, 11, 58, 89
12, 109470, Note_on_c, 11, 58, 0
12, 109470, Note_on_c, 11, 63, 89
12, 109500, Note_on_c, 11, 63, 0
12, 109500, Note_on_c, 11, 63, 86
12, 109530, Note_on_c, 11, 63, 0
12, 109530, Note_on_c, 11, 63, 84
12, 109560, Note_on_c, 11, 63, 0
12, 109560, Note_on_c, 11, 63, 81
12, 109590, Note_on_c, 11, 63, 0
12, 109590, Note_on_c, 11, 63, 89
12, 109620, Note_on_c, 11, 63, 0
12, 109620, Note_on_c, 11, 63, 85
12, 109650, Note_on_c, 11, 63, 0
12, 109650, Note_on_c, 11, 63, 89
12, 109680, Note_on_c, 11, 63, 0
12, 109680, Note_on_c, 11, 63, 84
12, 109710, Note_on_c, 11, 63, 0
12, 109710, Note_on_c, 11, 63, 86
12, 109740, Note_on_c, 11, 63, 0
12, 109740, Note_on_c, 11, 63, 84
12, 109770, Note_on_c, 11, 63, 0
12, 109770, Note_on_c, 11, 63, 89
12, 109800, Note_on_c, 11, 63, 0
12, 109800, Note_on_c, 11, 63, 85
12, 109830, Note_on_c, 11, 63, 0
12, 109830, Note_on_c, 11, 63, 81
12, 109860, Note_on_c, 11, 63, 0
12, 109860, Note_on_c, 11, 63, 84
12, 109890, Note_on_c, 11, 63, 0
12, 109890, Note_on_c, 11, 63, 85
12, 109920, Note_on_c, 11, 63, 0
12, 109920, Note_on_c, 11, 63, 94
12, 109950, Note_on_c, 11, 63, 0
12, 109950, Note_on_c, 11, 63, 86
12, 109980, Note_on_c, 11, 63, 0
12, 109980, Note_on_c, 11, 63, 84
12, 110010, Note_on_c, 11, 63, 0
12, 110010, Note_on_c, 11, 63, 84
12, 110040, Note_on_c, 11, 63, 0
12, 110040, Note_on_c, 11, 63, 86
12, 110070, Note_on_c, 11, 63, 0
12, 110070, Note_on_c, 11, 63, 89
12, 110100, Note_on_c, 11, 63, 0
12, 110100, Note_on_c, 11, 63, 84
12, 110130, Note_on_c, 11, 63, 0
12, 110130, Note_on_c, 11, 63, 85
12, 110160, Note_on_c, 11, 63, 0
12, 110160, Note_on_c, 11, 62, 95
12, 110190, Note_on_c, 11, 62, 0
12, 110190, Note_on_c, 11, 62, 93
12, 110220, Note_on_c, 11, 62, 0
12, 110220, Note_on_c, 11, 62, 90
12, 110250, Note_on_c, 11, 62, 0
12, 110250, Note_on_c, 11, 62, 89
12, 110280, Note_on_c, 11, 62, 0
12, 110280, Note_on_c, 11, 62, 89
12, 110310, Note_on_c, 11, 62, 0
12, 110310, Note_on_c, 11, 62, 89
12, 110340, Note_on_c, 11, 62, 0
12, 110340, Note_on_c, 11, 62, 86
12, 110370, Note_on_c, 11, 62, 0
12, 110370, Note_on_c, 11, 62, 94
12, 110400, Note_on_c, 11, 62, 0
12, 110400, Note_on_c, 11, 63, 89
12, 110430, Note_on_c, 11, 63, 0
12, 110430, Note_on_c, 11, 67, 89
12, 110460, Note_on_c, 11, 67, 0
12, 110460, Note_on_c, 11, 67, 93
12, 110490, Note_on_c, 11, 67, 0
12, 110490, Note_on_c, 11, 67, 93
12, 110520, Note_on_c, 11, 67, 0
12, 110520, Note_on_c, 11, 67, 90
12, 110550, Note_on_c, 11, 67, 0
12, 110550, Note_on_c, 11, 67, 86
12, 110580, Note_on_c, 11, 67, 0
12, 110580, Note_on_c, 11, 67, 89
12, 110610, Note_on_c, 11, 67, 0
12, 110610, Note_on_c, 11, 67, 89
12, 110640, Note_on_c, 11, 67, 0
12, 110640, Note_on_c, 11, 67, 93
12, 110670, Note_on_c, 11, 67, 0
12, 110670, Note_on_c, 11, 67, 90
12, 110700, Note_on_c, 11, 67, 0
12, 110700, Note_on_c, 11, 67, 93
12, 110730, Note_on_c, 11, 67, 0
12, 110730, Note_on_c, 11, 67, 90
12, 110760, Note_on_c, 11, 67, 0
12, 110760, Note_on_c, 11, 67, 89
12, 110790, Note_on_c, 11, 67, 0
12, 110790, Note_on_c, 11, 67, 89
12, 110820, Note_on_c, 11, 67, 0
12, 110820, Note_on_c, 11, 67, 95
12, 110850, Note_on_c, 11, 67, 0
12, 110850, Note_on_c, 11, 67, 94
12, 110880, Note_on_c, 11, 67, 0
12, 110880, Note_on_c, 11, 65, 98
12, 110910, Note_on_c, 11, 65, 0
12, 110910, Note_on_c, 11, 65, 94
12, 110940, Note_on_c, 11, 65, 0
12, 110940, Note_on_c, 11, 65, 94
12, 110970, Note_on_c, 11, 65, 0
12, 110970, Note_on_c, 11, 65, 93
12, 111000, Note_on_c, 11, 65, 0
12, 111000, Note_on_c, 11, 65, 94
12, 111030, Note_on_c, 11, 65, 0
12, 111030, Note_on_c, 11, 65, 93
12, 111060, Note_on_c, 11, 65, 0
12, 111060, Note_on_c, 11, 65, 94
12, 111090, Note_on_c, 11, 65, 0
12, 111090, Note_on_c, 11, 65, 90
12, 111120, Note_on_c, 11, 65, 0
12, 111120, Note_on_c, 11, 65, 94
12, 111150, Note_on_c, 11, 65, 0
12, 111150, Note_on_c, 11, 65, 93
12, 111180, Note_on_c, 11, 65, 0
12, 111180, Note_on_c, 11, 65, 93
12, 111210, Note_on_c, 11, 65, 0
12, 111210, Note_on_c, 11, 65, 93
12, 111240, Note_on_c, 11, 65, 0
12, 111240, Note_on_c, 11, 65, 93
12, 111270, Note_on_c, 11, 65, 0
12, 111270, Note_on_c, 11, 65, 94
12, 111300, Note_on_c, 11, 65, 0
12, 111300, Note_on_c, 11, 65, 94
12, 111330, Note_on_c, 11, 65, 0
12, 111330, Note_on_c, 11, 65, 98
12, 111360, Note_on_c, 11, 65, 0
12, 111360, Note_on_c, 11, 63, 89
12, 111390, Note_on_c, 11, 63, 0
12, 111390, Note_on_c, 11, 63, 89
12, 111420, Note_on_c, 11, 63, 0
12, 111420, Note_on_c, 11, 63, 93
12, 111450, Note_on_c, 11, 63, 0
12, 111450, Note_on_c, 11, 63, 86
12, 111480, Note_on_c, 11, 63, 0
12, 111480, Note_on_c, 11, 63, 89
12, 111510, Note_on_c, 11, 63, 0
12, 111510, Note_on_c, 11, 63, 89
12, 111540, Note_on_c, 11, 63, 0
12, 111540, Note_on_c, 11, 63, 89
12, 111570, Note_on_c, 11, 63, 0
12, 111570, Note_on_c, 11, 63, 84
12, 111600, Note_on_c, 11, 63, 0
12, 111600, Note_on_c, 11, 63, 86
12, 111630, Note_on_c, 11, 63, 0
12, 111630, Note_on_c, 11, 63, 85
12, 111660, Note_on_c, 11, 63, 0
12, 111660, Note_on_c, 11, 63, 84
12, 111690, Note_on_c, 11, 63, 0
12, 111690, Note_on_c, 11, 63, 89
12, 111720, Note_on_c, 11, 63, 0
12, 111720, Note_on_c, 11, 63, 86
12, 111750, Note_on_c, 11, 63, 0
12, 111750, Note_on_c, 11, 63, 86
12, 111780, Note_on_c, 11, 63, 0
12, 111780, Note_on_c, 11, 63, 86
12, 111810, Note_on_c, 11, 63, 0
12, 111810, Note_on_c, 11, 63, 89
12, 111840, Note_on_c, 11, 63, 0
12, 111840, Note_on_c, 11, 62, 93
12, 111870, Note_on_c, 11, 62, 0
12, 111870, Note_on_c, 11, 62, 90
12, 111900, Note_on_c, 11, 62, 0
12, 111900, Note_on_c, 11, 62, 86
12, 111930, Note_on_c, 11, 62, 0
12, 111930, Note_on_c, 11, 62, 94
12, 111960, Note_on_c, 11, 62, 0
12, 111960, Note_on_c, 11, 62, 94
12, 111990, Note_on_c, 11, 62, 0
12, 111990, Note_on_c, 11, 62, 90
12, 112020, Note_on_c, 11, 62, 0
12, 112020, Note_on_c, 11, 62, 90
12, 112050, Note_on_c, 11, 62, 0
12, 112050, Note_on_c, 11, 62, 89
12, 112080, Note_on_c, 11, 62, 0
12, 112080, Note_on_c, 11, 62, 93
12, 112110, Note_on_c, 11, 62, 0
12, 112110, Note_on_c, 11, 62, 89
12, 112140, Note_on_c, 11, 62, 0
12, 112140, Note_on_c, 11, 62, 94
12, 112170, Note_on_c, 11, 62, 0
12, 112170, Note_on_c, 11, 62, 94
12, 112200, Note_on_c, 11, 62, 0
12, 112200, Note_on_c, 11, 62, 89
12, 112230, Note_on_c, 11, 62, 0
12, 112230, Note_on_c, 11, 62, 90
12, 112260, Note_on_c, 11, 62, 0
12, 112260, Note_on_c, 11, 62, 90
12, 112290, Note_on_c, 11, 62, 0
12, 112290, Note_on_c, 11, 62, 86
12, 112320, Note_on_c, 11, 62, 0
12, 112320, Note_on_c, 11, 60, 93
12, 112350, Note_on_c, 11, 60, 0
12, 112350, Note_on_c, 11, 60, 90
12, 112380, Note_on_c, 11, 60, 0
12, 112380, Note_on_c, 11, 60, 86
12, 112410, Note_on_c, 11, 60, 0
12, 112410, Note_on_c, 11, 60, 93
12, 112440, Note_on_c, 11, 60, 0
12, 112440, Note_on_c, 11, 60, 89
12, 112470, Note_on_c, 11, 60, 0
12, 112470, Note_on_c, 11, 60, 94
12, 112500, Note_on_c, 11, 60, 0
12, 112500, Note_on_c, 11, 60, 93
12, 112530, Note_on_c, 11, 60, 0
12, 112530, Note_on_c, 11, 60, 93
12, 112560, Note_on_c, 11, 60, 0
12, 112560, Note_on_c, 11, 58, 93
12, 112590, Note_on_c, 11, 58, 0
12, 112590, Note_on_c, 11, 70, 94
12, 112620, Note_on_c, 11, 70, 0
12, 112620, Note_on_c, 11, 70, 90
12, 112650, Note_on_c, 11, 70, 0
12, 112650, Note_on_c, 11, 70, 89
12, 112680, Note_on_c, 11, 70, 0
12, 112680, Note_on_c, 11, 70, 89
12, 112710, Note_on_c, 11, 70, 0
12, 112710, Note_on_c, 11, 70, 89
12, 112740, Note_on_c, 11, 70, 0
12, 112740, Note_on_c, 11, 70, 93
12, 112770, Note_on_c, 11, 70, 0
12, 112770, Note_on_c, 11, 70, 94
12, 112800, Note_on_c, 11, 70, 0
12, 112800, Note_on_c, 11, 69, 99
12, 112830, Note_on_c, 11, 69, 0
12, 112830, Note_on_c, 11, 69, 99
12, 112860, Note_on_c, 11, 69, 0
12, 112860, Note_on_c, 11, 69, 95
12, 112890, Note_on_c, 11, 69, 0
12, 112890, Note_on_c, 11, 69, 101
12, 112920, Note_on_c, 11, 69, 0
12, 112920, Note_on_c, 11, 57, 104
12, 112950, Note_on_c, 11, 57, 0
12, 112950, Note_on_c, 11, 57, 99
12, 112980, Note_on_c, 11, 57, 0
12, 112980, Note_on_c, 11, 57, 99
12, 113010, Note_on_c, 11, 57, 0
12, 113010, Note_on_c, 11, 57, 99
12, 113040, Note_on_c, 11, 57, 0
12, 113040, Note_on_c, 11, 55, 94
12, 113070, Note_on_c, 11, 55, 0
12, 113070, Note_on_c, 11, 55, 94
12, 113100, Note_on_c, 11, 55, 0
12, 113100, Note_on_c, 11, 55, 90
12, 113130, Note_on_c, 11, 55, 0
12, 113130, Note_on_c, 11, 55, 90
12, 113160, Note_on_c, 11, 55, 0
12, 113160, Note_on_c, 11, 55, 90
12, 113190, Note_on_c, 11, 55, 0
12, 113190, Note_on_c, 11, 55, 86
12, 113220, Note_on_c, 11, 55, 0
12, 113220, Note_on_c, 11, 55, 89
12, 113250, Note_on_c, 11, 55, 0
12, 113250, Note_on_c, 11, 55, 90
12, 113280, Note_on_c, 11, 55, 0
12, 113280, Note_on_c, 11, 57, 99
12, 113340, Note_on_c, 11, 57, 0
12, 113340, Note_on_c, 11, 62, 84
12, 113400, Note_on_c, 11, 62, 0
12, 113400, Note_on_c, 11, 54, 94
12, 113460, Note_on_c, 11, 54, 0
12, 113460, Note_on_c, 11, 62, 81
12, 113520, Note_on_c, 11, 62, 0
12, 113520, Note_on_c, 11, 55, 89
12, 113580, Note_on_c, 11, 55, 0
12, 113580, Note_on_c, 11, 62, 76
12, 113640, Note_on_c, 11, 62, 0
12, 113640, Note_on_c, 11, 57, 101
12, 113700, Note_on_c, 11, 57, 0
12, 113700, Note_on_c, 11, 62, 84
12, 113760, Note_on_c, 11, 62, 0
12, 113760, Note_on_c, 11, 58, 84
12, 113820, Note_on_c, 11, 58, 0
12, 113820, Note_on_c, 11, 62, 81
12, 113880, Note_on_c, 11, 62, 0
12, 113880, Note_on_c, 11, 62, 93
12, 113910, Note_on_c, 11, 62, 0
12, 113940, Note_on_c, 11, 62, 76
12, 113970, Note_on_c, 11, 62, 0
12, 114000, Note_on_c, 11, 62, 81
12, 114060, Note_on_c, 11, 62, 0
12, 114060, Note_on_c, 11, 62, 80
12, 114120, Note_on_c, 11, 62, 0
12, 114120, Note_on_c, 11, 62, 80
12, 114180, Note_on_c, 11, 62, 0
12, 114180, Note_on_c, 11, 62, 78
12, 114240, Note_on_c, 11, 62, 0
12, 114240, Note_on_c, 11, 62, 80
12, 114300, Note_on_c, 11, 62, 0
12, 114300, Note_on_c, 11, 62, 81
12, 114360, Note_on_c, 11, 62, 0
12, 114360, Note_on_c, 11, 62, 104
12, 114420, Note_on_c, 11, 62, 0
12, 114420, Note_on_c, 11, 62, 78
12, 114480, Note_on_c, 11, 62, 0
12, 114480, Note_on_c, 11, 62, 78
12, 114540, Note_on_c, 11, 62, 0
12, 114540, Note_on_c, 11, 62, 74
12, 114600, Note_on_c, 11, 62, 0
12, 114600, Note_on_c, 11, 62, 73
12, 114660, Note_on_c, 11, 62, 0
12, 114660, Note_on_c, 11, 62, 80
12, 114720, Note_on_c, 11, 62, 0
12, 114720, Note_on_c, 11, 62, 76
12, 114780, Note_on_c, 11, 62, 0
12, 114780, Note_on_c, 11, 62, 80
12, 114840, Note_on_c, 11, 62, 0
12, 114840, Note_on_c, 11, 62, 99
12, 114900, Note_on_c, 11, 62, 0
12, 114900, Note_on_c, 11, 62, 81
12, 114960, Note_on_c, 11, 62, 0
12, 114960, Note_on_c, 11, 62, 76
12, 115020, Note_on_c, 11, 62, 0
12, 115020, Note_on_c, 11, 62, 76
12, 115080, Note_on_c, 11, 62, 0
12, 115080, Note_on_c, 11, 62, 74
12, 115140, Note_on_c, 11, 62, 0
12, 115140, Note_on_c, 11, 62, 74
12, 115200, Note_on_c, 11, 62, 0
12, 115200, Note_on_c, 11, 62, 84
12, 115260, Note_on_c, 11, 62, 0
12, 115260, Note_on_c, 11, 62, 84
12, 115320, Note_on_c, 11, 62, 0
12, 115320, Note_on_c, 11, 54, 99
12, 115380, Note_on_c, 11, 54, 0
12, 115380, Note_on_c, 11, 62, 81
12, 115440, Note_on_c, 11, 62, 0
12, 115440, Note_on_c, 11, 55, 93
12, 115500, Note_on_c, 11, 55, 0
12, 115500, Note_on_c, 11, 62, 80
12, 115560, Note_on_c, 11, 62, 0
12, 115560, Note_on_c, 11, 57, 99
12, 115620, Note_on_c, 11, 57, 0
12, 115620, Note_on_c, 11, 62, 81
12, 115680, Note_on_c, 11, 62, 0
12, 115680, Note_on_c, 11, 58, 85
12, 115710, Note_on_c, 11, 58, 0
12, 115710, Note_on_c, 11, 62, 81
12, 115740, Note_on_c, 11, 62, 0
12, 115740, Note_on_c, 11, 62, 86
12, 115770, Note_on_c, 11, 62, 0
12, 115770, Note_on_c, 11, 62, 84
12, 115800, Note_on_c, 11, 62, 0
12, 115800, Note_on_c, 11, 62, 99
12, 115830, Note_on_c, 11, 62, 0
12, 115830, Note_on_c, 11, 62, 89
12, 115860, Note_on_c, 11, 62, 0
12, 115860, Note_on_c, 11, 62, 77
12, 115890, Note_on_c, 11, 62, 0
12, 115890, Note_on_c, 11, 62, 80
12, 115920, Note_on_c, 11, 62, 0
12, 115920, Note_on_c, 11, 62, 76
12, 115950, Note_on_c, 11, 62, 0
12, 115950, Note_on_c, 11, 62, 77
12, 115980, Note_on_c, 11, 62, 0
12, 115980, Note_on_c, 11, 62, 76
12, 116010, Note_on_c, 11, 62, 0
12, 116010, Note_on_c, 11, 62, 73
12, 116040, Note_on_c, 11, 62, 0
12, 116040, Note_on_c, 11, 62, 74
12, 116070, Note_on_c, 11, 62, 0
12, 116070, Note_on_c, 11, 62, 76
12, 116100, Note_on_c, 11, 62, 0
12, 116100, Note_on_c, 11, 62, 78
12, 116130, Note_on_c, 11, 62, 0
12, 116130, Note_on_c, 11, 62, 78
12, 116160, Note_on_c, 11, 62, 0
12, 116160, Note_on_c, 11, 62, 80
12, 116190, Note_on_c, 11, 62, 0
12, 116190, Note_on_c, 11, 62, 77
12, 116220, Note_on_c, 11, 62, 0
12, 116220, Note_on_c, 11, 62, 81
12, 116250, Note_on_c, 11, 62, 0
12, 116250, Note_on_c, 11, 62, 85
12, 116280, Note_on_c, 11, 62, 0
12, 116280, Note_on_c, 11, 62, 105
12, 116310, Note_on_c, 11, 62, 0
12, 116310, Note_on_c, 11, 62, 93
12, 116340, Note_on_c, 11, 62, 0
12, 116340, Note_on_c, 11, 62, 86
12, 116370, Note_on_c, 11, 62, 0
12, 116370, Note_on_c, 11, 62, 84
12, 116400, Note_on_c, 11, 62, 0
12, 116400, Note_on_c, 11, 62, 81
12, 116430, Note_on_c, 11, 62, 0
12, 116430, Note_on_c, 11, 62, 78
12, 116460, Note_on_c, 11, 62, 0
12, 116460, Note_on_c, 11, 62, 89
12, 116490, Note_on_c, 11, 62, 0
12, 116490, Note_on_c, 11, 62, 89
12, 116520, Note_on_c, 11, 62, 0
12, 116520, Note_on_c, 11, 62, 93
12, 116550, Note_on_c, 11, 62, 0
12, 116550, Note_on_c, 11, 62, 86
12, 116580, Note_on_c, 11, 62, 0
12, 116580, Note_on_c, 11, 62, 86
12, 116610, Note_on_c, 11, 62, 0
12, 116610, Note_on_c, 11, 62, 89
12, 116640, Note_on_c, 11, 62, 0
12, 116640, Note_on_c, 11, 62, 90
12, 116670, Note_on_c, 11, 62, 0
12, 116670, Note_on_c, 11, 62, 93
12, 116700, Note_on_c, 11, 62, 0
12, 116700, Note_on_c, 11, 62, 90
12, 116730, Note_on_c, 11, 62, 0
12, 116730, Note_on_c, 11, 62, 93
12, 116760, Note_on_c, 11, 62, 0
12, 116760, Note_on_c, 11, 62, 112
12, 116790, Note_on_c, 11, 62, 0
12, 116790, Note_on_c, 11, 62, 89
12, 116820, Note_on_c, 11, 62, 0
12, 116820, Note_on_c, 11, 62, 86
12, 116850, Note_on_c, 11, 62, 0
12, 116850, Note_on_c, 11, 62, 89
12, 116880, Note_on_c, 11, 62, 0
12, 116880, Note_on_c, 11, 62, 89
12, 116910, Note_on_c, 11, 62, 0
12, 116910, Note_on_c, 11, 62, 89
12, 116940, Note_on_c, 11, 62, 0
12, 116940, Note_on_c, 11, 62, 86
12, 116970, Note_on_c, 11, 62, 0
12, 116970, Note_on_c, 11, 62, 89
12, 117000, Note_on_c, 11, 62, 0
12, 117000, Note_on_c, 11, 62, 86
12, 117030, Note_on_c, 11, 62, 0
12, 117030, Note_on_c, 11, 62, 90
12, 117060, Note_on_c, 11, 62, 0
12, 117060, Note_on_c, 11, 62, 93
12, 117090, Note_on_c, 11, 62, 0
12, 117090, Note_on_c, 11, 62, 94
12, 117120, Note_on_c, 11, 62, 0
12, 117120, Note_on_c, 11, 62, 93
12, 117240, Note_on_c, 11, 62, 0
12, 117240, Note_on_c, 11, 74, 105
12, 117480, Note_on_c, 11, 74, 0
12, 117480, Note_on_c, 11, 73, 82
12, 117600, Note_on_c, 11, 73, 0
12, 117600, Note_on_c, 11, 74, 98
12, 117720, Note_on_c, 11, 74, 0
12, 117720, Note_on_c, 11, 62, 89
12, 117780, Note_on_c, 11, 62, 0
12, 117840, Note_on_c, 11, 63, 81
12, 117900, Note_on_c, 11, 63, 0
12, 117960, Note_on_c, 11, 63, 80
12, 118020, Note_on_c, 11, 63, 0
12, 118080, Note_on_c, 11, 62, 86
12, 118140, Note_on_c, 11, 62, 0
12, 118200, Note_on_c, 11, 73, 94
12, 118320, Note_on_c, 11, 73, 0
12, 118320, Note_on_c, 11, 74, 94
12, 118440, Note_on_c, 11, 74, 0
12, 118440, Note_on_c, 11, 63, 86
12, 118500, Note_on_c, 11, 63, 0
12, 118560, Note_on_c, 11, 62, 95
12, 118620, Note_on_c, 11, 62, 0
12, 118680, Note_on_c, 11, 73, 93
12, 118800, Note_on_c, 11, 73, 0
12, 118800, Note_on_c, 11, 74, 94
12, 118920, Note_on_c, 11, 74, 0
12, 118920, Note_on_c, 11, 63, 85
12, 118980, Note_on_c, 11, 63, 0
12, 119040, Note_on_c, 11, 62, 81
12, 119160, Note_on_c, 11, 62, 0
12, 119520, Note_on_c, 11, 50, 105
12, 119640, Note_on_c, 11, 50, 0
12, 120000, Note_on_c, 11, 50, 105
12, 120120, Note_on_c, 11, 50, 0
12, 121920, Control_c, 11, 7, 99
12, 121920, Note_on_c, 11, 60, 59
12, 121940, Control_c, 11, 7, 100
12, 121960, Control_c, 11, 7, 101
12, 121980, Note_on_c, 11, 60, 0
12, 121980, Control_c, 11, 7, 102
12, 122000, Control_c, 11, 7, 103
12, 122020, Control_c, 11, 7, 104
12, 122040, Control_c, 11, 7, 105
12, 122060, Control_c, 11, 7, 106
12, 122080, Control_c, 11, 7, 107
12, 122095, Control_c, 11, 7, 108
12, 122100, Note_on_c, 11, 57, 64
12, 122115, Control_c, 11, 7, 109
12, 122130, Note_on_c, 11, 57, 0
12, 122135, Control_c, 11, 7, 110
12, 122155, Control_c, 11, 7, 111
12, 122160, Note_on_c, 11, 60, 46
12, 122175, Control_c, 11, 7, 112
12, 122195, Control_c, 11, 7, 113
12, 122215, Control_c, 11, 7, 114
12, 122220, Note_on_c, 11, 60, 0
12, 122235, Control_c, 11, 7, 115
12, 122250, Control_c, 11, 7, 116
12, 122270, Control_c, 11, 7, 117
12, 122290, Control_c, 11, 7, 118
12, 122310, Control_c, 11, 7, 119
12, 122330, Control_c, 11, 7, 120
12, 122340, Note_on_c, 11, 57, 72
12, 122350, Control_c, 11, 7, 121
12, 122370, Note_on_c, 11, 57, 0
12, 122370, Control_c, 11, 7, 122
12, 122390, Control_c, 11, 7, 123
12, 122400, Note_on_c, 11, 60, 65
12, 122405, Control_c, 11, 7, 124
12, 122425, Control_c, 11, 7, 123
12, 122430, Note_on_c, 11, 60, 0
12, 122445, Control_c, 11, 7, 122
12, 122460, Note_on_c, 11, 57, 80
12, 122465, Control_c, 11, 7, 121
12, 122485, Control_c, 11, 7, 120
12, 122490, Note_on_c, 11, 57, 0
12, 122500, Control_c, 11, 7, 119
12, 122520, Control_c, 11, 7, 118
12, 122520, Note_on_c, 11, 60, 62
12, 122540, Control_c, 11, 7, 117
12, 122550, Note_on_c, 11, 60, 0
12, 122560, Control_c, 11, 7, 116
12, 122580, Control_c, 11, 7, 115
12, 122580, Note_on_c, 11, 57, 76
12, 122595, Control_c, 11, 7, 114
12, 122610, Note_on_c, 11, 57, 0
12, 122615, Control_c, 11, 7, 113
12, 122635, Control_c, 11, 7, 112
12, 122640, Note_on_c, 11, 60, 58
12, 122655, Control_c, 11, 7, 111
12, 122670, Note_on_c, 11, 60, 0
12, 122675, Control_c, 11, 7, 110
12, 122690, Control_c, 11, 7, 109
12, 122700, Note_on_c, 11, 57, 68
12, 122710, Control_c, 11, 7, 108
12, 122730, Note_on_c, 11, 57, 0
12, 122730, Control_c, 11, 7, 107
12, 122750, Control_c, 11, 7, 106
12, 122760, Note_on_c, 11, 60, 64
12, 122770, Control_c, 11, 7, 105
12, 122785, Control_c, 11, 7, 104
12, 122790, Note_on_c, 11, 60, 0
12, 122805, Control_c, 11, 7, 103
12, 122820, Note_on_c, 11, 57, 52
12, 122825, Control_c, 11, 7, 102
12, 122845, Control_c, 11, 7, 101
12, 122850, Note_on_c, 11, 57, 0
12, 122865, Control_c, 11, 7, 100
12, 122880, Control_c, 11, 7, 99
12, 122880, Note_on_c, 11, 55, 70
12, 122940, Note_on_c, 11, 55, 0
12, 122940, Note_on_c, 11, 58, 67
12, 123000, Note_on_c, 11, 58, 0
12, 123000, Note_on_c, 11, 58, 57
12, 123060, Note_on_c, 11, 58, 0
12, 123060, Note_on_c, 11, 58, 64
12, 123120, Note_on_c, 11, 58, 0
12, 123120, Note_on_c, 11, 58, 53
12, 123180, Note_on_c, 11, 58, 0
12, 123180, Note_on_c, 11, 58, 64
12, 123240, Note_on_c, 11, 58, 0
12, 123240, Note_on_c, 11, 58, 56
12, 123300, Note_on_c, 11, 58, 0
12, 123300, Note_on_c, 11, 58, 62
12, 123360, Note_on_c, 11, 58, 0
12, 123360, Note_on_c, 11, 58, 64
12, 123420, Note_on_c, 11, 58, 0
12, 123420, Note_on_c, 11, 58, 71
12, 123480, Note_on_c, 11, 58, 0
12, 123480, Note_on_c, 11, 58, 63
12, 123540, Note_on_c, 11, 58, 0
12, 123540, Note_on_c, 11, 58, 62
12, 123600, Note_on_c, 11, 58, 0
12, 123600, Note_on_c, 11, 58, 43
12, 123660, Note_on_c, 11, 58, 0
12, 123660, Note_on_c, 11, 58, 64
12, 123720, Note_on_c, 11, 58, 0
12, 123720, Note_on_c, 11, 58, 70
12, 123780, Note_on_c, 11, 58, 0
12, 123780, Note_on_c, 11, 58, 57
12, 123840, Note_on_c, 11, 58, 0
12, 123840, Note_on_c, 11, 58, 60
12, 123900, Note_on_c, 11, 58, 0
12, 123900, Note_on_c, 11, 58, 55
12, 123960, Note_on_c, 11, 58, 0
12, 123960, Note_on_c, 11, 58, 53
12, 124020, Note_on_c, 11, 58, 0
12, 124020, Note_on_c, 11, 58, 50
12, 124080, Note_on_c, 11, 58, 0
12, 124080, Note_on_c, 11, 58, 49
12, 124140, Note_on_c, 11, 58, 0
12, 124140, Note_on_c, 11, 58, 52
12, 124200, Note_on_c, 11, 58, 0
12, 124200, Note_on_c, 11, 58, 44
12, 124260, Note_on_c, 11, 58, 0
12, 124260, Note_on_c, 11, 58, 57
12, 124320, Note_on_c, 11, 58, 0
12, 124320, Note_on_c, 11, 58, 54
12, 124380, Note_on_c, 11, 58, 0
12, 124380, Note_on_c, 11, 58, 45
12, 124440, Note_on_c, 11, 58, 0
12, 124440, Note_on_c, 11, 58, 50
12, 124500, Note_on_c, 11, 58, 0
12, 124500, Note_on_c, 11, 58, 43
12, 124560, Note_on_c, 11, 58, 0
12, 124560, Note_on_c, 11, 58, 58
12, 124620, Note_on_c, 11, 58, 0
12, 124620, Note_on_c, 11, 58, 64
12, 124680, Note_on_c, 11, 58, 0
12, 124680, Note_on_c, 11, 58, 65
12, 124740, Note_on_c, 11, 58, 0
12, 124740, Note_on_c, 11, 58, 61
12, 124800, Note_on_c, 11, 58, 0
12, 124800, Note_on_c, 11, 60, 42
12, 124860, Note_on_c, 11, 60, 0
12, 124860, Note_on_c, 11, 60, 49
12, 124920, Note_on_c, 11, 60, 0
12, 124920, Note_on_c, 11, 60, 56
12, 124980, Note_on_c, 11, 60, 0
12, 124980, Note_on_c, 11, 60, 48
12, 125040, Note_on_c, 11, 60, 0
12, 125040, Note_on_c, 11, 60, 53
12, 125100, Note_on_c, 11, 60, 0
12, 125100, Note_on_c, 11, 60, 43
12, 125160, Note_on_c, 11, 60, 0
12, 125160, Note_on_c, 11, 60, 62
12, 125220, Note_on_c, 11, 60, 0
12, 125220, Note_on_c, 11, 60, 57
12, 125280, Note_on_c, 11, 60, 0
12, 125280, Note_on_c, 11, 60, 62
12, 125340, Note_on_c, 11, 60, 0
12, 125340, Note_on_c, 11, 60, 52
12, 125400, Note_on_c, 11, 60, 0
12, 125400, Note_on_c, 11, 60, 56
12, 125460, Note_on_c, 11, 60, 0
12, 125460, Note_on_c, 11, 60, 43
12, 125520, Note_on_c, 11, 60, 0
12, 125520, Note_on_c, 11, 60, 45
12, 125580, Note_on_c, 11, 60, 0
12, 125580, Note_on_c, 11, 60, 45
12, 125640, Note_on_c, 11, 60, 0
12, 125640, Note_on_c, 11, 60, 58
12, 125700, Note_on_c, 11, 60, 0
12, 125700, Note_on_c, 11, 60, 62
12, 125760, Note_on_c, 11, 60, 0
12, 125760, Note_on_c, 11, 58, 49
12, 125820, Note_on_c, 11, 58, 0
12, 125820, Note_on_c, 11, 58, 50
12, 125880, Note_on_c, 11, 58, 0
12, 125880, Note_on_c, 11, 58, 43
12, 125940, Note_on_c, 11, 58, 0
12, 125940, Note_on_c, 11, 58, 35
12, 126000, Note_on_c, 11, 58, 0
12, 126000, Note_on_c, 11, 58, 51
12, 126060, Note_on_c, 11, 58, 0
12, 126060, Note_on_c, 11, 58, 42
12, 126120, Note_on_c, 11, 58, 0
12, 126120, Note_on_c, 11, 58, 40
12, 126180, Note_on_c, 11, 58, 0
12, 126180, Note_on_c, 11, 58, 45
12, 126240, Note_on_c, 11, 58, 0
12, 126240, Note_on_c, 11, 59, 53
12, 126300, Note_on_c, 11, 59, 0
12, 126300, Note_on_c, 11, 59, 51
12, 126360, Note_on_c, 11, 59, 0
12, 126360, Note_on_c, 11, 59, 44
12, 126420, Note_on_c, 11, 59, 0
12, 126420, Note_on_c, 11, 59, 44
12, 126480, Note_on_c, 11, 59, 0
12, 126480, Note_on_c, 11, 59, 41
12, 126540, Note_on_c, 11, 59, 0
12, 126540, Note_on_c, 11, 59, 43
12, 126600, Note_on_c, 11, 59, 0
12, 126600, Note_on_c, 11, 59, 43
12, 126660, Note_on_c, 11, 59, 0
12, 126660, Note_on_c, 11, 59, 43
12, 126720, Note_on_c, 11, 59, 0
12, 126780, Note_on_c, 11, 60, 61
12, 126840, Note_on_c, 11, 60, 0
12, 126840, Note_on_c, 11, 60, 58
12, 126900, Note_on_c, 11, 60, 0
12, 126900, Note_on_c, 11, 60, 54
12, 126960, Note_on_c, 11, 60, 0
12, 127020, Note_on_c, 11, 60, 53
12, 127080, Note_on_c, 11, 60, 0
12, 127080, Note_on_c, 11, 60, 56
12, 127140, Note_on_c, 11, 60, 0
12, 127140, Note_on_c, 11, 60, 61
12, 127200, Note_on_c, 11, 60, 0
12, 127260, Note_on_c, 11, 62, 61
12, 127320, Note_on_c, 11, 62, 0
12, 127320, Note_on_c, 11, 62, 58
12, 127380, Note_on_c, 11, 62, 0
12, 127380, Note_on_c, 11, 62, 54
12, 127440, Note_on_c, 11, 62, 0
12, 127500, Note_on_c, 11, 62, 49
12, 127560, Note_on_c, 11, 62, 0
12, 127560, Note_on_c, 11, 62, 52
12, 127620, Note_on_c, 11, 62, 0
12, 127620, Note_on_c, 11, 62, 53
12, 127680, Note_on_c, 11, 62, 0
12, 127680, Note_on_c, 11, 62, 53
12, 127800, Note_on_c, 11, 62, 0
12, 128640, Note_on_c, 11, 55, 53
12, 129120, Note_on_c, 11, 55, 0
12, 129120, Note_on_c, 11, 55, 40
12, 129240, Note_on_c, 11, 55, 0
12, 129240, Note_on_c, 11, 58, 53
12, 129360, Note_on_c, 11, 58, 0
12, 129360, Note_on_c, 11, 56, 43
12, 129480, Note_on_c, 11, 56, 0
12, 129480, Note_on_c, 11, 55, 56
12, 129600, Note_on_c, 11, 55, 0
12, 129600, Note_on_c, 11, 53, 61
12, 129660, Note_on_c, 11, 53, 0
12, 129660, Note_on_c, 11, 60, 57
12, 129720, Note_on_c, 11, 60, 0
12, 129720, Note_on_c, 11, 60, 60
12, 129780, Note_on_c, 11, 60, 0
12, 129780, Note_on_c, 11, 60, 58
12, 129840, Note_on_c, 11, 60, 0
12, 129840, Note_on_c, 11, 60, 46
12, 129900, Note_on_c, 11, 60, 0
12, 129900, Note_on_c, 11, 60, 60
12, 129960, Note_on_c, 11, 60, 0
12, 129960, Note_on_c, 11, 60, 62
12, 130020, Note_on_c, 11, 60, 0
12, 130020, Note_on_c, 11, 60, 62
12, 130080, Note_on_c, 11, 60, 0
12, 130080, Note_on_c, 11, 60, 61
12, 130140, Note_on_c, 11, 60, 0
12, 130140, Note_on_c, 11, 60, 67
12, 130200, Note_on_c, 11, 60, 0
12, 130200, Note_on_c, 11, 60, 46
12, 130260, Note_on_c, 11, 60, 0
12, 130260, Note_on_c, 11, 60, 45
12, 130320, Note_on_c, 11, 60, 0
12, 130320, Note_on_c, 11, 60, 54
12, 130380, Note_on_c, 11, 60, 0
12, 130380, Note_on_c, 11, 60, 61
12, 130440, Note_on_c, 11, 60, 0
12, 130440, Note_on_c, 11, 60, 59
12, 130500, Note_on_c, 11, 60, 0
12, 130500, Note_on_c, 11, 60, 56
12, 130560, Note_on_c, 11, 60, 0
12, 130560, Note_on_c, 11, 60, 59
12, 130620, Note_on_c, 11, 60, 0
12, 130620, Note_on_c, 11, 60, 48
12, 130680, Note_on_c, 11, 60, 0
12, 130680, Note_on_c, 11, 60, 61
12, 130740, Note_on_c, 11, 60, 0
12, 130740, Note_on_c, 11, 60, 62
12, 130800, Note_on_c, 11, 60, 0
12, 130800, Note_on_c, 11, 60, 54
12, 130860, Note_on_c, 11, 60, 0
12, 130860, Note_on_c, 11, 60, 57
12, 130920, Note_on_c, 11, 60, 0
12, 130920, Note_on_c, 11, 60, 62
12, 130980, Note_on_c, 11, 60, 0
12, 130980, Note_on_c, 11, 60, 60
12, 131040, Note_on_c, 11, 60, 0
12, 131040, Note_on_c, 11, 60, 53
12, 131100, Note_on_c, 11, 60, 0
12, 131100, Note_on_c, 11, 60, 45
12, 131160, Note_on_c, 11, 60, 0
12, 131160, Note_on_c, 11, 60, 43
12, 131220, Note_on_c, 11, 60, 0
12, 131220, Note_on_c, 11, 60, 43
12, 131280, Note_on_c, 11, 60, 0
12, 131280, Note_on_c, 11, 60, 43
12, 131340, Note_on_c, 11, 60, 0
12, 131340, Note_on_c, 11, 60, 42
12, 131400, Note_on_c, 11, 60, 0
12, 131400, Note_on_c, 11, 60, 42
12, 131460, Note_on_c, 11, 60, 0
12, 131460, Note_on_c, 11, 60, 40
12, 131520, Note_on_c, 11, 60, 0
12, 131520, Note_on_c, 11, 60, 39
12, 131580, Note_on_c, 11, 60, 0
12, 131580, Note_on_c, 11, 60, 43
12, 131640, Note_on_c, 11, 60, 0
12, 131640, Note_on_c, 11, 60, 38
12, 131700, Note_on_c, 11, 60, 0
12, 131700, Note_on_c, 11, 60, 39
12, 131760, Note_on_c, 11, 60, 0
12, 131760, Note_on_c, 11, 60, 40
12, 131820, Note_on_c, 11, 60, 0
12, 131820, Note_on_c, 11, 60, 40
12, 131880, Note_on_c, 11, 60, 0
12, 131880, Note_on_c, 11, 60, 43
12, 131940, Note_on_c, 11, 60, 0
12, 131940, Note_on_c, 11, 60, 41
12, 132000, Note_on_c, 11, 60, 0
12, 132000, Note_on_c, 11, 63, 50
12, 132060, Note_on_c, 11, 63, 0
12, 132060, Note_on_c, 11, 63, 42
12, 132120, Note_on_c, 11, 63, 0
12, 132120, Note_on_c, 11, 63, 40
12, 132180, Note_on_c, 11, 63, 0
12, 132180, Note_on_c, 11, 63, 40
12, 132240, Note_on_c, 11, 63, 0
12, 132240, Note_on_c, 11, 63, 43
12, 132300, Note_on_c, 11, 63, 0
12, 132300, Note_on_c, 11, 63, 43
12, 132360, Note_on_c, 11, 63, 0
12, 132360, Note_on_c, 11, 63, 40
12, 132420, Note_on_c, 11, 63, 0
12, 132420, Note_on_c, 11, 63, 38
12, 132480, Note_on_c, 11, 63, 0
12, 132540, Note_on_c, 11, 61, 64
12, 132600, Note_on_c, 11, 61, 0
12, 132600, Note_on_c, 11, 61, 55
12, 132660, Note_on_c, 11, 61, 0
12, 132660, Note_on_c, 11, 61, 53
12, 132720, Note_on_c, 11, 61, 0
12, 132780, Note_on_c, 11, 61, 58
12, 132840, Note_on_c, 11, 61, 0
12, 132840, Note_on_c, 11, 61, 49
12, 132900, Note_on_c, 11, 61, 0
12, 132900, Note_on_c, 11, 61, 44
12, 132960, Note_on_c, 11, 61, 0
12, 133020, Note_on_c, 11, 60, 63
12, 133080, Note_on_c, 11, 60, 0
12, 133080, Note_on_c, 11, 60, 67
12, 133140, Note_on_c, 11, 60, 0
12, 133140, Note_on_c, 11, 60, 64
12, 133200, Note_on_c, 11, 60, 0
12, 133260, Note_on_c, 11, 55, 39
12, 133320, Note_on_c, 11, 55, 0
12, 133320, Note_on_c, 11, 55, 52
12, 133380, Note_on_c, 11, 55, 0
12, 133380, Note_on_c, 11, 55, 60
12, 133440, Note_on_c, 11, 55, 0
12, 133440, Note_on_c, 11, 53, 67
12, 133500, Note_on_c, 11, 53, 0
12, 133500, Note_on_c, 11, 56, 67
12, 133560, Note_on_c, 11, 56, 0
12, 133560, Note_on_c, 11, 56, 52
12, 133620, Note_on_c, 11, 56, 0
12, 133620, Note_on_c, 11, 56, 43
12, 133680, Note_on_c, 11, 56, 0
12, 133680, Note_on_c, 11, 56, 56
12, 133740, Note_on_c, 11, 56, 0
12, 133740, Note_on_c, 11, 56, 50
12, 133800, Note_on_c, 11, 56, 0
12, 133800, Note_on_c, 11, 56, 52
12, 133860, Note_on_c, 11, 56, 0
12, 133860, Note_on_c, 11, 56, 46
12, 133920, Note_on_c, 11, 56, 0
12, 133920, Note_on_c, 11, 56, 52
12, 133980, Note_on_c, 11, 56, 0
12, 133980, Note_on_c, 11, 56, 61
12, 134040, Note_on_c, 11, 56, 0
12, 134040, Note_on_c, 11, 56, 41
12, 134100, Note_on_c, 11, 56, 0
12, 134100, Note_on_c, 11, 56, 46
12, 134160, Note_on_c, 11, 56, 0
12, 134160, Note_on_c, 11, 56, 46
12, 134220, Note_on_c, 11, 56, 0
12, 134220, Note_on_c, 11, 56, 46
12, 134280, Note_on_c, 11, 56, 0
12, 134280, Note_on_c, 11, 56, 50
12, 134340, Note_on_c, 11, 56, 0
12, 134340, Note_on_c, 11, 56, 54
12, 134400, Note_on_c, 11, 56, 0
12, 134400, Note_on_c, 11, 56, 57
12, 134460, Note_on_c, 11, 56, 0
12, 134460, Note_on_c, 11, 56, 46
12, 134520, Note_on_c, 11, 56, 0
12, 134520, Note_on_c, 11, 56, 53
12, 134580, Note_on_c, 11, 56, 0
12, 134580, Note_on_c, 11, 56, 52
12, 134640, Note_on_c, 11, 56, 0
12, 134640, Note_on_c, 11, 56, 54
12, 134700, Note_on_c, 11, 56, 0
12, 134700, Note_on_c, 11, 56, 54
12, 134760, Note_on_c, 11, 56, 0
12, 134760, Note_on_c, 11, 56, 45
12, 134820, Note_on_c, 11, 56, 0
12, 134820, Note_on_c, 11, 56, 46
12, 134880, Note_on_c, 11, 56, 0
12, 134880, Note_on_c, 11, 56, 53
12, 134940, Note_on_c, 11, 56, 0
12, 134940, Note_on_c, 11, 56, 45
12, 135000, Note_on_c, 11, 56, 0
12, 135000, Note_on_c, 11, 56, 45
12, 135060, Note_on_c, 11, 56, 0
12, 135060, Note_on_c, 11, 56, 47
12, 135120, Note_on_c, 11, 56, 0
12, 135120, Note_on_c, 11, 56, 54
12, 135180, Note_on_c, 11, 56, 0
12, 135180, Note_on_c, 11, 56, 57
12, 135240, Note_on_c, 11, 56, 0
12, 135240, Note_on_c, 11, 56, 43
12, 135300, Note_on_c, 11, 56, 0
12, 135300, Note_on_c, 11, 56, 44
12, 135360, Note_on_c, 11, 56, 0
12, 135360, Note_on_c, 11, 56, 43
12, 135420, Note_on_c, 11, 56, 0
12, 135420, Note_on_c, 11, 56, 53
12, 135480, Note_on_c, 11, 56, 0
12, 135480, Note_on_c, 11, 56, 36
12, 135540, Note_on_c, 11, 56, 0
12, 135540, Note_on_c, 11, 56, 52
12, 135600, Note_on_c, 11, 56, 0
12, 135600, Note_on_c, 11, 56, 52
12, 135660, Note_on_c, 11, 56, 0
12, 135660, Note_on_c, 11, 56, 49
12, 135720, Note_on_c, 11, 56, 0
12, 135720, Note_on_c, 11, 56, 53
12, 135780, Note_on_c, 11, 56, 0
12, 135780, Note_on_c, 11, 56, 43
12, 135840, Note_on_c, 11, 56, 0
12, 135840, Note_on_c, 11, 56, 60
12, 135900, Note_on_c, 11, 56, 0
12, 135900, Note_on_c, 11, 56, 52
12, 135960, Note_on_c, 11, 56, 0
12, 135960, Note_on_c, 11, 56, 58
12, 136020, Note_on_c, 11, 56, 0
12, 136020, Note_on_c, 11, 56, 53
12, 136080, Note_on_c, 11, 56, 0
12, 136080, Note_on_c, 11, 56, 40
12, 136140, Note_on_c, 11, 56, 0
12, 136140, Note_on_c, 11, 56, 50
12, 136200, Note_on_c, 11, 56, 0
12, 136200, Note_on_c, 11, 56, 59
12, 136260, Note_on_c, 11, 56, 0
12, 136260, Note_on_c, 11, 56, 63
12, 136320, Note_on_c, 11, 56, 0
12, 136320, Note_on_c, 11, 56, 57
12, 136380, Note_on_c, 11, 56, 0
12, 136380, Note_on_c, 11, 56, 46
12, 136440, Note_on_c, 11, 56, 0
12, 136440, Note_on_c, 11, 56, 53
12, 136500, Note_on_c, 11, 56, 0
12, 136500, Note_on_c, 11, 56, 52
12, 136560, Note_on_c, 11, 56, 0
12, 136560, Note_on_c, 11, 56, 54
12, 136620, Note_on_c, 11, 56, 0
12, 136620, Note_on_c, 11, 56, 54
12, 136680, Note_on_c, 11, 56, 0
12, 136680, Note_on_c, 11, 56, 45
12, 136740, Note_on_c, 11, 56, 0
12, 136740, Note_on_c, 11, 56, 46
12, 136800, Note_on_c, 11, 56, 0
12, 136800, Note_on_c, 11, 56, 53
12, 136860, Note_on_c, 11, 56, 0
12, 136860, Note_on_c, 11, 56, 45
12, 136920, Note_on_c, 11, 56, 0
12, 136920, Note_on_c, 11, 56, 45
12, 136980, Note_on_c, 11, 56, 0
12, 136980, Note_on_c, 11, 56, 47
12, 137040, Note_on_c, 11, 56, 0
12, 137040, Note_on_c, 11, 56, 54
12, 137100, Note_on_c, 11, 56, 0
12, 137100, Note_on_c, 11, 56, 57
12, 137160, Note_on_c, 11, 56, 0
12, 137160, Note_on_c, 11, 56, 43
12, 137220, Note_on_c, 11, 56, 0
12, 137220, Note_on_c, 11, 56, 44
12, 137280, Note_on_c, 11, 56, 0
12, 137280, Note_on_c, 11, 56, 43
12, 137340, Note_on_c, 11, 56, 0
12, 137340, Note_on_c, 11, 56, 53
12, 137400, Note_on_c, 11, 56, 0
12, 137400, Note_on_c, 11, 56, 36
12, 137460, Note_on_c, 11, 56, 0
12, 137460, Note_on_c, 11, 56, 52
12, 137520, Note_on_c, 11, 56, 0
12, 137520, Note_on_c, 11, 56, 52
12, 137580, Note_on_c, 11, 56, 0
12, 137580, Note_on_c, 11, 56, 49
12, 137640, Note_on_c, 11, 56, 0
12, 137640, Note_on_c, 11, 56, 53
12, 137700, Note_on_c, 11, 56, 0
12, 137700, Note_on_c, 11, 56, 43
12, 137760, Note_on_c, 11, 56, 0
12, 137760, Note_on_c, 11, 55, 60
12, 137820, Note_on_c, 11, 55, 0
12, 137820, Note_on_c, 11, 55, 52
12, 137880, Note_on_c, 11, 55, 0
12, 137880, Note_on_c, 11, 55, 58
12, 137940, Note_on_c, 11, 55, 0
12, 137940, Note_on_c, 11, 55, 53
12, 138000, Note_on_c, 11, 55, 0
12, 138000, Note_on_c, 11, 55, 40
12, 138060, Note_on_c, 11, 55, 0
12, 138060, Note_on_c, 11, 55, 50
12, 138120, Note_on_c, 11, 55, 0
12, 138120, Note_on_c, 11, 55, 59
12, 138180, Note_on_c, 11, 55, 0
12, 138180, Note_on_c, 11, 55, 63
12, 138240, Note_on_c, 11, 55, 0
12, 138240, Note_on_c, 11, 55, 70
12, 138300, Note_on_c, 11, 55, 0
12, 138300, Note_on_c, 11, 67, 57
12, 138360, Note_on_c, 11, 67, 0
12, 138360, Note_on_c, 11, 67, 65
12, 138420, Note_on_c, 11, 67, 0
12, 138420, Note_on_c, 11, 67, 53
12, 138480, Note_on_c, 11, 67, 0
12, 138480, Note_on_c, 11, 67, 57
12, 138540, Note_on_c, 11, 67, 0
12, 138540, Note_on_c, 11, 67, 58
12, 138600, Note_on_c, 11, 67, 0
12, 138600, Note_on_c, 11, 67, 57
12, 138660, Note_on_c, 11, 67, 0
12, 138660, Note_on_c, 11, 67, 59
12, 138720, Note_on_c, 11, 67, 0
12, 138780, Note_on_c, 11, 65, 63
12, 138840, Note_on_c, 11, 65, 0
12, 138840, Note_on_c, 11, 65, 64
12, 138900, Note_on_c, 11, 65, 0
12, 138900, Note_on_c, 11, 65, 68
12, 138960, Note_on_c, 11, 65, 0
12, 139020, Note_on_c, 11, 63, 58
12, 139080, Note_on_c, 11, 63, 0
12, 139080, Note_on_c, 11, 63, 71
12, 139140, Note_on_c, 11, 63, 0
12, 139140, Note_on_c, 11, 63, 67
12, 139200, Note_on_c, 11, 63, 0
12, 139200, Note_on_c, 11, 62, 45
12, 139320, Note_on_c, 11, 62, 0
12, 139920, Note_on_c, 11, 57, 69
12, 140040, Note_on_c, 11, 57, 0
12, 140100, Note_on_c, 11, 57, 64
12, 140160, Note_on_c, 11, 57, 0
12, 140160, Note_on_c, 11, 59, 50
12, 140280, Note_on_c, 11, 59, 0
12, 140880, Note_on_c, 11, 57, 65
12, 141000, Note_on_c, 11, 57, 0
12, 141060, Note_on_c, 11, 57, 64
12, 141120, Note_on_c, 11, 57, 0
12, 141120, Note_on_c, 11, 59, 52
12, 141240, Note_on_c, 11, 59, 0
12, 141360, Note_on_c, 11, 55, 51
12, 141480, Note_on_c, 11, 55, 0
12, 142020, Note_on_c, 11, 55, 72
12, 142050, Note_on_c, 11, 55, 0
12, 142080, Note_on_c, 11, 56, 66
12, 142140, Note_on_c, 11, 56, 0
12, 142320, Note_on_c, 11, 56, 65
12, 142380, Note_on_c, 11, 56, 0
12, 142980, Note_on_c, 11, 56, 53
12, 143010, Note_on_c, 11, 56, 0
12, 143040, Note_on_c, 11, 57, 69
12, 143100, Note_on_c, 11, 57, 0
12, 143280, Note_on_c, 11, 57, 80
12, 143340, Note_on_c, 11, 57, 0
12, 143940, Note_on_c, 11, 57, 77
12, 143970, Note_on_c, 11, 57, 0
12, 144000, Note_on_c, 11, 58, 62
12, 144060, Note_on_c, 11, 58, 0
12, 144240, Note_on_c, 11, 58, 66
12, 144300, Note_on_c, 11, 58, 0
12, 144900, Note_on_c, 11, 58, 73
12, 144930, Note_on_c, 11, 58, 0
12, 144960, Note_on_c, 11, 59, 72
12, 145020, Note_on_c, 11, 59, 0
12, 145200, Note_on_c, 11, 59, 74
12, 145260, Note_on_c, 11, 59, 0
12, 145860, Note_on_c, 11, 59, 73
12, 145890, Note_on_c, 11, 59, 0
12, 145920, Note_on_c, 11, 60, 78
12, 145980, Note_on_c, 11, 60, 0
12, 146340, Note_on_c, 11, 60, 73
12, 146400, Note_on_c, 11, 60, 0
12, 146400, Note_on_c, 11, 65, 57
12, 146520, Note_on_c, 11, 65, 0
12, 146820, Note_on_c, 11, 65, 57
12, 146880, Note_on_c, 11, 65, 0
12, 146880, Note_on_c, 11, 67, 61
12, 147000, Note_on_c, 11, 67, 0
12, 147300, Note_on_c, 11, 67, 64
12, 147360, Note_on_c, 11, 67, 0
12, 147360, Note_on_c, 11, 55, 81
12, 147480, Note_on_c, 11, 55, 0
12, 147780, Note_on_c, 11, 43, 65
12, 147840, Note_on_c, 11, 43, 0
12, 147840, Note_on_c, 11, 48, 101
12, 148080, Note_on_c, 11, 48, 0
12, 148080, Note_on_c, 11, 51, 99
12, 148320, Note_on_c, 11, 51, 0
12, 148320, Note_on_c, 11, 55, 115
12, 148500, Note_on_c, 11, 55, 0
12, 148500, Note_on_c, 11, 53, 90
12, 148530, Note_on_c, 11, 53, 0
12, 148560, Note_on_c, 11, 51, 95
12, 148620, Note_on_c, 11, 51, 0
12, 148680, Note_on_c, 11, 50, 99
12, 148740, Note_on_c, 11, 50, 0
12, 148800, Note_on_c, 11, 48, 95
12, 148860, Note_on_c, 11, 48, 0
12, 148980, Note_on_c, 11, 43, 90
12, 149010, Note_on_c, 11, 43, 0
12, 149040, Note_on_c, 11, 48, 99
12, 149100, Note_on_c, 11, 48, 0
12, 149220, Note_on_c, 11, 43, 99
12, 149250, Note_on_c, 11, 43, 0
12, 149280, Note_on_c, 11, 48, 104
12, 149340, Note_on_c, 11, 48, 0
12, 151680, Note_on_c, 11, 55, 47
12, 151740, Note_on_c, 11, 55, 0
12, 151860, Note_on_c, 11, 55, 45
12, 151890, Note_on_c, 11, 55, 0
12, 151920, Note_on_c, 11, 55, 49
12, 151980, Note_on_c, 11, 55, 0
12, 152100, Note_on_c, 11, 55, 53
12, 152130, Note_on_c, 11, 55, 0
12, 152160, Note_on_c, 11, 55, 56
12, 152220, Note_on_c, 11, 55, 0
12, 153600, Note_on_c, 11, 53, 52
12, 153660, Note_on_c, 11, 53, 0
12, 153780, Note_on_c, 11, 53, 46
12, 153810, Note_on_c, 11, 53, 0
12, 153840, Note_on_c, 11, 53, 45
12, 153900, Note_on_c, 11, 53, 0
12, 154020, Note_on_c, 11, 53, 45
12, 154050, Note_on_c, 11, 53, 0
12, 154080, Note_on_c, 11, 53, 58
12, 154140, Note_on_c, 11, 53, 0
12, 154560, Note_on_c, 11, 55, 52
12, 154680, Note_on_c, 11, 55, 0
12, 155040, Note_on_c, 11, 55, 45
12, 155160, Note_on_c, 11, 55, 0
12, 155640, Note_on_c, 11, 65, 54
12, 155760, Note_on_c, 11, 65, 0
12, 155880, Note_on_c, 11, 63, 43
12, 156000, Note_on_c, 11, 63, 0
12, 156000, Note_on_c, 11, 62, 46
12, 156120, Note_on_c, 11, 62, 0
12, 157920, Program_c, 11, 45
12, 157920, Note_on_c, 11, 55, 86
12, 158040, Note_on_c, 11, 55, 0
12, 158400, Note_on_c, 11, 60, 89
12, 158520, Note_on_c, 11, 60, 0
12, 158880, Note_on_c, 11, 55, 86
12, 159000, Note_on_c, 11, 55, 0
12, 159360, Note_on_c, 11, 48, 93
12, 159480, Note_on_c, 11, 48, 0
12, 159840, Note_on_c, 11, 43, 77
12, 159960, Note_on_c, 11, 43, 0
12, 160080, Note_on_c, 11, 48, 81
12, 160200, Note_on_c, 11, 48, 0
12, 160320, Note_on_c, 11, 43, 72
12, 160440, Note_on_c, 11, 43, 0
12, 160560, Note_on_c, 11, 48, 89
12, 160680, Note_on_c, 11, 48, 0
12, 160800, Note_on_c, 11, 43, 70
12, 160920, Note_on_c, 11, 43, 0
12, 162720, Program_c, 11, 48
12, 162720, Note_on_c, 11, 60, 67
12, 162840, Note_on_c, 11, 60, 0
12, 162960, Note_on_c, 11, 67, 61
12, 163080, Note_on_c, 11, 67, 0
12, 163200, Note_on_c, 11, 67, 64
12, 163320, Note_on_c, 11, 67, 0
12, 164640, Note_on_c, 11, 60, 61
12, 164760, Note_on_c, 11, 60, 0
12, 164880, Note_on_c, 11, 60, 53
12, 165000, Note_on_c, 11, 60, 0
12, 165120, Note_on_c, 11, 60, 60
12, 165240, Note_on_c, 11, 60, 0
12, 165360, Note_on_c, 11, 60, 59
12, 165480, Note_on_c, 11, 60, 0
12, 166560, Note_on_c, 11, 60, 56
12, 166620, Note_on_c, 11, 60, 0
12, 166620, Note_on_c, 11, 55, 81
12, 166680, Note_on_c, 11, 55, 0
12, 166680, Note_on_c, 11, 60, 62
12, 166740, Note_on_c, 11, 60, 0
12, 166740, Note_on_c, 11, 55, 71
12, 166800, Note_on_c, 11, 55, 0
12, 166800, Note_on_c, 11, 59, 65
12, 166860, Note_on_c, 11, 59, 0
12, 166860, Note_on_c, 11, 55, 77
12, 166920, Note_on_c, 11, 55, 0
12, 166920, Note_on_c, 11, 53, 68
12, 166980, Note_on_c, 11, 53, 0
12, 166980, Note_on_c, 11, 55, 84
12, 167040, Note_on_c, 11, 55, 0
12, 167040, Note_on_c, 11, 52, 73
12, 167100, Note_on_c, 11, 52, 0
12, 167100, Note_on_c, 11, 55, 81
12, 167160, Note_on_c, 11, 55, 0
12, 167160, Note_on_c, 11, 52, 78
12, 167220, Note_on_c, 11, 52, 0
12, 167220, Note_on_c, 11, 55, 73
12, 167280, Note_on_c, 11, 55, 0
12, 167280, Note_on_c, 11, 52, 80
12, 167340, Note_on_c, 11, 52, 0
12, 167340, Note_on_c, 11, 55, 80
12, 167400, Note_on_c, 11, 55, 0
12, 167400, Note_on_c, 11, 52, 81
12, 167460, Note_on_c, 11, 52, 0
12, 167460, Note_on_c, 11, 48, 59
12, 167520, Note_on_c, 11, 48, 0
12, 167520, Note_on_c, 11, 59, 71
12, 167580, Note_on_c, 11, 59, 0
12, 167580, Note_on_c, 11, 55, 73
12, 167640, Note_on_c, 11, 55, 0
12, 167640, Note_on_c, 11, 59, 71
12, 167700, Note_on_c, 11, 59, 0
12, 167700, Note_on_c, 11, 55, 76
12, 167760, Note_on_c, 11, 55, 0
12, 167760, Note_on_c, 11, 59, 66
12, 167820, Note_on_c, 11, 59, 0
12, 167820, Note_on_c, 11, 55, 68
12, 167880, Note_on_c, 11, 55, 0
12, 167880, Note_on_c, 11, 59, 71
12, 167940, Note_on_c, 11, 59, 0
12, 167940, Note_on_c, 11, 55, 73
12, 168000, Note_on_c, 11, 55, 0
12, 168000, Note_on_c, 11, 59, 72
12, 168060, Note_on_c, 11, 59, 0
12, 168060, Note_on_c, 11, 55, 68
12, 168120, Note_on_c, 11, 55, 0
12, 168120, Note_on_c, 11, 59, 68
12, 168180, Note_on_c, 11, 59, 0
12, 168180, Note_on_c, 11, 55, 72
12, 168240, Note_on_c, 11, 55, 0
12, 168240, Note_on_c, 11, 60, 72
12, 168300, Note_on_c, 11, 60, 0
12, 168300, Note_on_c, 11, 55, 73
12, 168360, Note_on_c, 11, 55, 0
12, 168360, Note_on_c, 11, 52, 64
12, 168420, Note_on_c, 11, 52, 0
12, 168420, Note_on_c, 11, 48, 72
12, 168480, Note_on_c, 11, 48, 0
12, 168480, Note_on_c, 11, 60, 93
12, 168840, Note_on_c, 11, 60, 0
12, 168900, Note_on_c, 11, 64, 72
12, 168960, Note_on_c, 11, 64, 0
12, 168960, Note_on_c, 11, 60, 93
12, 169320, Note_on_c, 11, 60, 0
12, 169380, Note_on_c, 11, 69, 64
12, 169440, Note_on_c, 11, 69, 0
12, 169440, Note_on_c, 11, 67, 72
12, 169560, Note_on_c, 11, 67, 0
12, 169560, Note_on_c, 11, 67, 73
12, 169680, Note_on_c, 11, 67, 0
12, 169680, Note_on_c, 11, 65, 70
12, 169680, Note_on_c, 11, 55, 80
12, 169800, Note_on_c, 11, 55, 0
12, 169800, Note_on_c, 11, 65, 0
12, 169800, Note_on_c, 11, 65, 73
12, 169800, Note_on_c, 11, 55, 81
12, 169920, Note_on_c, 11, 55, 0
12, 169920, Note_on_c, 11, 65, 0
12, 169920, Note_on_c, 11, 65, 81
12, 169920, Note_on_c, 11, 55, 72
12, 170160, Note_on_c, 11, 65, 0
12, 170160, Note_on_c, 11, 64, 77
12, 170280, Note_on_c, 11, 64, 0
12, 170280, Note_on_c, 11, 55, 0
12, 171360, Note_on_c, 11, 69, 56
12, 171840, Note_on_c, 11, 69, 0
12, 171840, Note_on_c, 11, 71, 52
12, 172320, Note_on_c, 11, 71, 0
12, 172320, Note_on_c, 11, 60, 44
12, 172560, Note_on_c, 11, 60, 0
12, 172560, Note_on_c, 11, 65, 53
12, 172800, Note_on_c, 11, 65, 0
12, 172800, Note_on_c, 11, 64, 43
12, 173040, Note_on_c, 11, 64, 0
12, 173040, Note_on_c, 11, 62, 46
12, 173280, Note_on_c, 11, 62, 0
12, 173280, Note_on_c, 11, 60, 44
12, 173400, Note_on_c, 11, 60, 0
12, 174600, Note_on_c, 11, 65, 43
12, 174720, Note_on_c, 11, 65, 0
12, 174840, Note_on_c, 11, 64, 57
12, 174960, Note_on_c, 11, 64, 0
12, 175080, Note_on_c, 11, 62, 70
12, 175200, Note_on_c, 11, 62, 0
12, 175200, Note_on_c, 11, 60, 53
12, 175320, Note_on_c, 11, 60, 0
12, 177120, Note_on_c, 11, 58, 69
12, 177720, Note_on_c, 11, 58, 0
12, 177720, Note_on_c, 11, 58, 45
12, 177840, Note_on_c, 11, 58, 0
12, 177960, Note_on_c, 11, 56, 64
12, 178080, Note_on_c, 11, 56, 0
12, 178200, Note_on_c, 11, 55, 76
12, 178320, Note_on_c, 11, 55, 0
12, 178440, Note_on_c, 11, 65, 73
12, 178560, Note_on_c, 11, 65, 0
12, 178560, Note_on_c, 11, 63, 64
12, 178680, Note_on_c, 11, 63, 0
12, 178680, Note_on_c, 11, 67, 63
12, 178800, Note_on_c, 11, 67, 0
12, 178920, Note_on_c, 11, 65, 73
12, 179040, Note_on_c, 11, 65, 0
12, 179160, Note_on_c, 11, 63, 72
12, 179280, Note_on_c, 11, 63, 0
12, 179400, Note_on_c, 11, 62, 68
12, 179520, Note_on_c, 11, 62, 0
12, 179520, Note_on_c, 11, 60, 84
12, 179640, Note_on_c, 11, 60, 0
12, 179700, Note_on_c, 11, 55, 64
12, 179730, Note_on_c, 11, 55, 0
12, 179760, Note_on_c, 11, 60, 76
12, 179820, Note_on_c, 11, 60, 0
12, 180180, Note_on_c, 11, 55, 76
12, 180210, Note_on_c, 11, 55, 0
12, 180240, Note_on_c, 11, 60, 76
12, 180300, Note_on_c, 11, 60, 0
12, 182400, Note_on_c, 11, 60, 70
12, 182520, Note_on_c, 11, 60, 0
12, 182880, Note_on_c, 11, 60, 63
12, 183000, Note_on_c, 11, 60, 0
12, 184800, Note_on_c, 11, 62, 69
12, 185280, Note_on_c, 11, 62, 0
12, 185280, Note_on_c, 11, 64, 65
12, 185400, Note_on_c, 11, 64, 0
12, 185940, Note_on_c, 11, 60, 65
12, 185970, Note_on_c, 11, 60, 0
12, 186000, Note_on_c, 11, 64, 70
12, 186060, Note_on_c, 11, 64, 0
12, 186180, Note_on_c, 11, 52, 72
12, 186210, Note_on_c, 11, 52, 0
12, 186240, Note_on_c, 11, 53, 65
12, 186300, Note_on_c, 11, 53, 0
12, 186900, Note_on_c, 11, 65, 77
12, 186930, Note_on_c, 11, 65, 0
12, 186960, Note_on_c, 11, 69, 73
12, 187020, Note_on_c, 11, 69, 0
12, 187140, Note_on_c, 11, 53, 61
12, 187170, Note_on_c, 11, 53, 0
12, 187200, Note_on_c, 11, 54, 54
12, 187260, Note_on_c, 11, 54, 0
12, 187860, Note_on_c, 11, 60, 89
12, 187890, Note_on_c, 11, 60, 0
12, 187920, Note_on_c, 11, 63, 85
12, 187980, Note_on_c, 11, 63, 0
12, 188100, Note_on_c, 11, 54, 62
12, 188130, Note_on_c, 11, 54, 0
12, 188160, Note_on_c, 11, 55, 73
12, 188220, Note_on_c, 11, 55, 0
12, 188280, Note_on_c, 11, 55, 69
12, 188400, Note_on_c, 11, 55, 0
12, 188520, Note_on_c, 11, 57, 77
12, 188640, Note_on_c, 11, 57, 0
12, 188760, Note_on_c, 11, 55, 68
12, 188880, Note_on_c, 11, 55, 0
12, 189000, Note_on_c, 11, 54, 66
12, 189120, Note_on_c, 11, 54, 0
12, 189120, Note_on_c, 11, 55, 63
12, 189240, Note_on_c, 11, 55, 0
12, 191040, Note_on_c, 11, 62, 58
12, 191160, Note_on_c, 11, 62, 0
12, 192000, Note_on_c, 11, 55, 68
12, 192120, Note_on_c, 11, 55, 0
12, 192960, Note_on_c, 11, 60, 99
12, 192990, Note_on_c, 11, 60, 0
12, 192990, Note_on_c, 11, 60, 95
12, 193020, Note_on_c, 11, 60, 0
12, 193020, Note_on_c, 11, 60, 89
12, 193050, Note_on_c, 11, 60, 0
12, 193050, Note_on_c, 11, 60, 72
12, 193080, Note_on_c, 11, 60, 0
12, 193080, Note_on_c, 11, 60, 65
12, 193110, Note_on_c, 11, 60, 0
12, 193110, Note_on_c, 11, 60, 59
12, 193140, Note_on_c, 11, 60, 0
12, 193140, Note_on_c, 11, 60, 62
12, 193170, Note_on_c, 11, 60, 0
12, 193170, Note_on_c, 11, 60, 68
12, 193200, Note_on_c, 11, 60, 0
12, 193200, Note_on_c, 11, 60, 53
12, 193230, Note_on_c, 11, 60, 0
12, 193230, Note_on_c, 11, 60, 54
12, 193260, Note_on_c, 11, 60, 0
12, 193260, Note_on_c, 11, 60, 54
12, 193290, Note_on_c, 11, 60, 0
12, 193290, Note_on_c, 11, 60, 64
12, 193320, Note_on_c, 11, 60, 0
12, 193320, Note_on_c, 11, 60, 57
12, 193350, Note_on_c, 11, 60, 0
12, 193350, Note_on_c, 11, 60, 65
12, 193380, Note_on_c, 11, 60, 0
12, 193380, Note_on_c, 11, 60, 64
12, 193410, Note_on_c, 11, 60, 0
12, 193410, Note_on_c, 11, 60, 53
12, 193440, Note_on_c, 11, 60, 0
12, 193440, Note_on_c, 11, 60, 61
12, 193470, Note_on_c, 11, 60, 0
12, 193470, Note_on_c, 11, 60, 62
12, 193500, Note_on_c, 11, 60, 0
12, 193500, Note_on_c, 11, 60, 61
12, 193530, Note_on_c, 11, 60, 0
12, 193530, Note_on_c, 11, 60, 57
12, 193560, Note_on_c, 11, 60, 0
12, 193560, Note_on_c, 11, 60, 50
12, 193590, Note_on_c, 11, 60, 0
12, 193590, Note_on_c, 11, 60, 65
12, 193620, Note_on_c, 11, 60, 0
12, 193620, Note_on_c, 11, 60, 65
12, 193650, Note_on_c, 11, 60, 0
12, 193650, Note_on_c, 11, 60, 62
12, 193680, Note_on_c, 11, 60, 0
12, 193680, Note_on_c, 11, 60, 58
12, 193710, Note_on_c, 11, 60, 0
12, 193710, Note_on_c, 11, 60, 45
12, 193740, Note_on_c, 11, 60, 0
12, 193740, Note_on_c, 11, 60, 61
12, 193770, Note_on_c, 11, 60, 0
12, 193770, Note_on_c, 11, 60, 53
12, 193800, Note_on_c, 11, 60, 0
12, 193800, Note_on_c, 11, 60, 64
12, 193830, Note_on_c, 11, 60, 0
12, 193830, Note_on_c, 11, 60, 45
12, 193860, Note_on_c, 11, 60, 0
12, 193860, Note_on_c, 11, 60, 50
12, 193890, Note_on_c, 11, 60, 0
12, 193890, Note_on_c, 11, 60, 67
12, 193920, Note_on_c, 11, 60, 0
12, 193920, Note_on_c, 11, 60, 56
12, 193950, Note_on_c, 11, 60, 0
12, 193950, Note_on_c, 11, 60, 52
12, 193980, Note_on_c, 11, 60, 0
12, 193980, Note_on_c, 11, 60, 55
12, 194010, Note_on_c, 11, 60, 0
12, 194010, Note_on_c, 11, 60, 55
12, 194040, Note_on_c, 11, 60, 0
12, 194040, Note_on_c, 11, 60, 64
12, 194070, Note_on_c, 11, 60, 0
12, 194070, Note_on_c, 11, 60, 57
12, 194100, Note_on_c, 11, 60, 0
12, 194100, Note_on_c, 11, 60, 63
12, 194130, Note_on_c, 11, 60, 0
12, 194130, Note_on_c, 11, 60, 57
12, 194160, Note_on_c, 11, 60, 0
12, 194160, Note_on_c, 11, 60, 59
12, 194190, Note_on_c, 11, 60, 0
12, 194190, Note_on_c, 11, 60, 57
12, 194220, Note_on_c, 11, 60, 0
12, 194220, Note_on_c, 11, 60, 53
12, 194250, Note_on_c, 11, 60, 0
12, 194250, Note_on_c, 11, 60, 43
12, 194280, Note_on_c, 11, 60, 0
12, 194280, Note_on_c, 11, 60, 44
12, 194310, Note_on_c, 11, 60, 0
12, 194310, Note_on_c, 11, 60, 67
12, 194340, Note_on_c, 11, 60, 0
12, 194340, Note_on_c, 11, 60, 68
12, 194370, Note_on_c, 11, 60, 0
12, 194370, Note_on_c, 11, 60, 50
12, 194400, Note_on_c, 11, 60, 0
12, 194400, Note_on_c, 11, 60, 104
12, 194430, Note_on_c, 11, 60, 0
12, 194430, Note_on_c, 11, 53, 69
12, 194460, Note_on_c, 11, 53, 0
12, 194460, Note_on_c, 11, 53, 46
12, 194490, Note_on_c, 11, 53, 0
12, 194490, Note_on_c, 11, 53, 53
12, 194520, Note_on_c, 11, 53, 0
12, 194520, Note_on_c, 11, 53, 53
12, 194550, Note_on_c, 11, 53, 0
12, 194550, Note_on_c, 11, 53, 43
12, 194580, Note_on_c, 11, 53, 0
12, 194580, Note_on_c, 11, 53, 44
12, 194610, Note_on_c, 11, 53, 0
12, 194610, Note_on_c, 11, 53, 57
12, 194640, Note_on_c, 11, 53, 0
12, 194640, Note_on_c, 11, 53, 52
12, 194670, Note_on_c, 11, 53, 0
12, 194670, Note_on_c, 11, 53, 52
12, 194700, Note_on_c, 11, 53, 0
12, 194700, Note_on_c, 11, 53, 60
12, 194730, Note_on_c, 11, 53, 0
12, 194730, Note_on_c, 11, 53, 61
12, 194760, Note_on_c, 11, 53, 0
12, 194760, Note_on_c, 11, 53, 53
12, 194790, Note_on_c, 11, 53, 0
12, 194790, Note_on_c, 11, 53, 51
12, 194820, Note_on_c, 11, 53, 0
12, 194820, Note_on_c, 11, 53, 54
12, 194850, Note_on_c, 11, 53, 0
12, 194850, Note_on_c, 11, 53, 54
12, 194880, Note_on_c, 11, 53, 0
12, 194880, Note_on_c, 11, 53, 52
12, 194910, Note_on_c, 11, 53, 0
12, 194910, Note_on_c, 11, 53, 58
12, 194940, Note_on_c, 11, 53, 0
12, 194940, Note_on_c, 11, 53, 44
12, 194970, Note_on_c, 11, 53, 0
12, 194970, Note_on_c, 11, 53, 51
12, 195000, Note_on_c, 11, 53, 0
12, 195000, Note_on_c, 11, 53, 45
12, 195030, Note_on_c, 11, 53, 0
12, 195030, Note_on_c, 11, 53, 53
12, 195060, Note_on_c, 11, 53, 0
12, 195060, Note_on_c, 11, 53, 64
12, 195090, Note_on_c, 11, 53, 0
12, 195090, Note_on_c, 11, 53, 42
12, 195120, Note_on_c, 11, 53, 0
12, 195120, Note_on_c, 11, 53, 53
12, 195150, Note_on_c, 11, 53, 0
12, 195150, Note_on_c, 11, 53, 49
12, 195180, Note_on_c, 11, 53, 0
12, 195180, Note_on_c, 11, 53, 49
12, 195210, Note_on_c, 11, 53, 0
12, 195210, Note_on_c, 11, 53, 53
12, 195240, Note_on_c, 11, 53, 0
12, 195240, Note_on_c, 11, 53, 45
12, 195270, Note_on_c, 11, 53, 0
12, 195270, Note_on_c, 11, 53, 53
12, 195300, Note_on_c, 11, 53, 0
12, 195300, Note_on_c, 11, 53, 53
12, 195330, Note_on_c, 11, 53, 0
12, 195330, Note_on_c, 11, 53, 59
12, 195360, Note_on_c, 11, 53, 0
12, 195360, Note_on_c, 11, 53, 62
12, 195390, Note_on_c, 11, 53, 0
12, 195390, Note_on_c, 11, 65, 53
12, 195420, Note_on_c, 11, 65, 0
12, 195420, Note_on_c, 11, 65, 54
12, 195450, Note_on_c, 11, 65, 0
12, 195450, Note_on_c, 11, 65, 53
12, 195480, Note_on_c, 11, 65, 0
12, 195480, Note_on_c, 11, 67, 64
12, 195510, Note_on_c, 11, 67, 0
12, 195510, Note_on_c, 11, 67, 69
12, 195540, Note_on_c, 11, 67, 0
12, 195540, Note_on_c, 11, 67, 76
12, 195570, Note_on_c, 11, 67, 0
12, 195570, Note_on_c, 11, 67, 74
12, 195600, Note_on_c, 11, 67, 0
12, 195600, Note_on_c, 11, 65, 84
12, 195630, Note_on_c, 11, 65, 0
12, 195630, Note_on_c, 11, 65, 81
12, 195660, Note_on_c, 11, 65, 0
12, 195660, Note_on_c, 11, 65, 72
12, 195690, Note_on_c, 11, 65, 0
12, 195690, Note_on_c, 11, 65, 82
12, 195720, Note_on_c, 11, 65, 0
12, 195720, Note_on_c, 11, 63, 80
12, 195750, Note_on_c, 11, 63, 0
12, 195750, Note_on_c, 11, 63, 84
12, 195780, Note_on_c, 11, 63, 0
12, 195780, Note_on_c, 11, 63, 89
12, 195810, Note_on_c, 11, 63, 0
12, 195810, Note_on_c, 11, 63, 84
12, 195840, Note_on_c, 11, 63, 0
12, 195840, Note_on_c, 11, 62, 86
12, 195870, Note_on_c, 11, 62, 0
12, 195870, Note_on_c, 11, 65, 89
12, 195900, Note_on_c, 11, 65, 0
12, 195900, Note_on_c, 11, 65, 93
12, 195930, Note_on_c, 11, 65, 0
12, 195930, Note_on_c, 11, 65, 90
12, 195960, Note_on_c, 11, 65, 0
12, 195960, Note_on_c, 11, 65, 93
12, 195990, Note_on_c, 11, 65, 0
12, 195990, Note_on_c, 11, 65, 86
12, 196020, Note_on_c, 11, 65, 0
12, 196020, Note_on_c, 11, 65, 86
12, 196050, Note_on_c, 11, 65, 0
12, 196050, Note_on_c, 11, 65, 89
12, 196080, Note_on_c, 11, 65, 0
12, 196080, Note_on_c, 11, 65, 86
12, 196110, Note_on_c, 11, 65, 0
12, 196110, Note_on_c, 11, 65, 84
12, 196140, Note_on_c, 11, 65, 0
12, 196140, Note_on_c, 11, 65, 89
12, 196170, Note_on_c, 11, 65, 0
12, 196170, Note_on_c, 11, 65, 93
12, 196200, Note_on_c, 11, 65, 0
12, 196200, Note_on_c, 11, 65, 86
12, 196230, Note_on_c, 11, 65, 0
12, 196230, Note_on_c, 11, 65, 85
12, 196260, Note_on_c, 11, 65, 0
12, 196260, Note_on_c, 11, 65, 86
12, 196290, Note_on_c, 11, 65, 0
12, 196290, Note_on_c, 11, 65, 84
12, 196320, Note_on_c, 11, 65, 0
12, 196320, Note_on_c, 11, 65, 89
12, 196350, Note_on_c, 11, 65, 0
12, 196350, Note_on_c, 11, 65, 94
12, 196380, Note_on_c, 11, 65, 0
12, 196380, Note_on_c, 11, 65, 84
12, 196410, Note_on_c, 11, 65, 0
12, 196410, Note_on_c, 11, 65, 84
12, 196440, Note_on_c, 11, 65, 0
12, 196440, Note_on_c, 11, 65, 85
12, 196470, Note_on_c, 11, 65, 0
12, 196470, Note_on_c, 11, 65, 86
12, 196500, Note_on_c, 11, 65, 0
12, 196500, Note_on_c, 11, 65, 86
12, 196530, Note_on_c, 11, 65, 0
12, 196530, Note_on_c, 11, 65, 86
12, 196560, Note_on_c, 11, 65, 0
12, 196560, Note_on_c, 11, 65, 82
12, 196590, Note_on_c, 11, 65, 0
12, 196590, Note_on_c, 11, 65, 89
12, 196620, Note_on_c, 11, 65, 0
12, 196620, Note_on_c, 11, 65, 84
12, 196650, Note_on_c, 11, 65, 0
12, 196650, Note_on_c, 11, 65, 81
12, 196680, Note_on_c, 11, 65, 0
12, 196680, Note_on_c, 11, 65, 81
12, 196710, Note_on_c, 11, 65, 0
12, 196710, Note_on_c, 11, 65, 86
12, 196740, Note_on_c, 11, 65, 0
12, 196740, Note_on_c, 11, 65, 89
12, 196770, Note_on_c, 11, 65, 0
12, 196770, Note_on_c, 11, 65, 85
12, 196800, Note_on_c, 11, 65, 0
12, 196800, Note_on_c, 11, 65, 89
12, 196830, Note_on_c, 11, 65, 0
12, 196830, Note_on_c, 11, 65, 82
12, 196860, Note_on_c, 11, 65, 0
12, 196860, Note_on_c, 11, 65, 90
12, 196890, Note_on_c, 11, 65, 0
12, 196890, Note_on_c, 11, 65, 84
12, 196920, Note_on_c, 11, 65, 0
12, 196920, Note_on_c, 11, 65, 84
12, 196950, Note_on_c, 11, 65, 0
12, 196950, Note_on_c, 11, 65, 86
12, 196980, Note_on_c, 11, 65, 0
12, 196980, Note_on_c, 11, 65, 84
12, 197010, Note_on_c, 11, 65, 0
12, 197010, Note_on_c, 11, 65, 86
12, 197040, Note_on_c, 11, 65, 0
12, 197040, Note_on_c, 11, 63, 84
12, 197070, Note_on_c, 11, 63, 0
12, 197070, Note_on_c, 11, 63, 86
12, 197100, Note_on_c, 11, 63, 0
12, 197100, Note_on_c, 11, 63, 85
12, 197130, Note_on_c, 11, 63, 0
12, 197130, Note_on_c, 11, 63, 81
12, 197160, Note_on_c, 11, 63, 0
12, 197160, Note_on_c, 11, 62, 95
12, 197190, Note_on_c, 11, 62, 0
12, 197190, Note_on_c, 11, 62, 90
12, 197220, Note_on_c, 11, 62, 0
12, 197220, Note_on_c, 11, 62, 94
12, 197250, Note_on_c, 11, 62, 0
12, 197250, Note_on_c, 11, 62, 93
12, 197280, Note_on_c, 11, 62, 0
12, 197280, Note_on_c, 11, 60, 101
12, 197310, Note_on_c, 11, 60, 0
12, 197310, Note_on_c, 11, 72, 89
12, 197340, Note_on_c, 11, 72, 0
12, 197340, Note_on_c, 11, 72, 93
12, 197370, Note_on_c, 11, 72, 0
12, 197370, Note_on_c, 11, 72, 95
12, 197400, Note_on_c, 11, 72, 0
12, 197400, Note_on_c, 11, 72, 90
12, 197430, Note_on_c, 11, 72, 0
12, 197430, Note_on_c, 11, 72, 104
12, 197460, Note_on_c, 11, 72, 0
12, 197460, Note_on_c, 11, 72, 99
12, 197490, Note_on_c, 11, 72, 0
12, 197490, Note_on_c, 11, 72, 110
12, 197520, Note_on_c, 11, 72, 0
12, 197520, Note_on_c, 11, 72, 105
12, 197550, Note_on_c, 11, 72, 0
12, 197550, Note_on_c, 11, 72, 101
12, 197580, Note_on_c, 11, 72, 0
12, 197580, Note_on_c, 11, 72, 107
12, 197610, Note_on_c, 11, 72, 0
12, 197610, Note_on_c, 11, 72, 112
12, 197640, Note_on_c, 11, 72, 0
12, 197640, Note_on_c, 11, 72, 112
12, 197670, Note_on_c, 11, 72, 0
12, 197670, Note_on_c, 11, 72, 98
12, 197700, Note_on_c, 11, 72, 0
12, 197700, Note_on_c, 11, 72, 99
12, 197730, Note_on_c, 11, 72, 0
12, 197730, Note_on_c, 11, 72, 105
12, 197760, Note_on_c, 11, 72, 0
12, 197760, Note_on_c, 11, 72, 110
12, 197790, Note_on_c, 11, 72, 0
12, 197790, Note_on_c, 11, 72, 104
12, 197820, Note_on_c, 11, 72, 0
12, 197820, Note_on_c, 11, 72, 99
12, 197850, Note_on_c, 11, 72, 0
12, 197850, Note_on_c, 11, 72, 104
12, 197880, Note_on_c, 11, 72, 0
12, 197880, Note_on_c, 11, 72, 110
12, 197910, Note_on_c, 11, 72, 0
12, 197910, Note_on_c, 11, 72, 110
12, 197940, Note_on_c, 11, 72, 0
12, 197940, Note_on_c, 11, 72, 105
12, 197970, Note_on_c, 11, 72, 0
12, 197970, Note_on_c, 11, 72, 105
12, 198000, Note_on_c, 11, 72, 0
12, 198000, Note_on_c, 11, 72, 99
12, 198030, Note_on_c, 11, 72, 0
12, 198030, Note_on_c, 11, 72, 105
12, 198060, Note_on_c, 11, 72, 0
12, 198060, Note_on_c, 11, 72, 104
12, 198090, Note_on_c, 11, 72, 0
12, 198090, Note_on_c, 11, 72, 105
12, 198120, Note_on_c, 11, 72, 0
12, 198120, Note_on_c, 11, 72, 99
12, 198150, Note_on_c, 11, 72, 0
12, 198150, Note_on_c, 11, 72, 104
12, 198180, Note_on_c, 11, 72, 0
12, 198180, Note_on_c, 11, 72, 105
12, 198210, Note_on_c, 11, 72, 0
12, 198210, Note_on_c, 11, 72, 105
12, 198240, Note_on_c, 11, 72, 0
12, 198240, Note_on_c, 11, 55, 101
12, 198450, Note_on_c, 11, 55, 0
12, 198450, Note_on_c, 11, 55, 99
12, 198480, Note_on_c, 11, 55, 0
12, 198480, Note_on_c, 11, 56, 101
12, 198690, Note_on_c, 11, 56, 0
12, 198690, Note_on_c, 11, 56, 98
12, 198720, Note_on_c, 11, 56, 0
12, 198720, Note_on_c, 11, 55, 105
12, 198930, Note_on_c, 11, 55, 0
12, 198930, Note_on_c, 11, 55, 104
12, 198960, Note_on_c, 11, 55, 0
12, 198960, Note_on_c, 11, 54, 99
12, 199170, Note_on_c, 11, 54, 0
12, 199170, Note_on_c, 11, 54, 99
12, 199200, Note_on_c, 11, 54, 0
12, 199200, Note_on_c, 11, 55, 107
12, 199440, Note_on_c, 11, 55, 0
12, 247680, Note_on_c, 11, 55, 31
12, 248160, Note_on_c, 11, 55, 0
12, 248160, Note_on_c, 11, 58, 29
12, 248640, Note_on_c, 11, 58, 0
12, 248640, Note_on_c, 11, 57, 39
12, 249120, Note_on_c, 11, 57, 0
12, 249120, Note_on_c, 11, 59, 29
12, 249600, Note_on_c, 11, 59, 0
12, 249600, Note_on_c, 11, 55, 30
12, 250080, Note_on_c, 11, 55, 0
12, 250080, Note_on_c, 11, 58, 29
12, 250560, Note_on_c, 11, 58, 0
12, 250560, Note_on_c, 11, 57, 32
12, 251040, Note_on_c, 11, 57, 0
12, 251040, Note_on_c, 11, 59, 32
12, 251520, Note_on_c, 11, 59, 0
12, 251520, Note_on_c, 11, 60, 31
12, 251640, Note_on_c, 11, 60, 0
12, 251940, Note_on_c, 11, 60, 29
12, 252000, Note_on_c, 11, 60, 0
12, 252000, Note_on_c, 11, 56, 29
12, 252120, Note_on_c, 11, 56, 0
12, 252420, Note_on_c, 11, 56, 35
12, 252480, Note_on_c, 11, 56, 0
12, 252480, Note_on_c, 11, 53, 36
12, 252600, Note_on_c, 11, 53, 0
12, 252900, Note_on_c, 11, 53, 39
12, 252960, Note_on_c, 11, 53, 0
12, 252960, Note_on_c, 11, 55, 29
12, 253080, Note_on_c, 11, 55, 0
12, 253380, Note_on_c, 11, 55, 38
12, 253440, Note_on_c, 11, 55, 0
12, 253440, Note_on_c, 11, 60, 38
12, 253470, Note_on_c, 11, 60, 0
12, 253470, Note_on_c, 11, 67, 29
12, 253500, Note_on_c, 11, 67, 0
12, 253500, Note_on_c, 11, 67, 30
12, 253530, Note_on_c, 11, 67, 0
12, 253530, Note_on_c, 11, 67, 32
12, 253560, Note_on_c, 11, 67, 0
12, 253560, Note_on_c, 11, 67, 29
12, 253590, Note_on_c, 11, 67, 0
12, 253590, Note_on_c, 11, 67, 35
12, 253620, Note_on_c, 11, 67, 0
12, 253620, Note_on_c, 11, 67, 33
12, 253650, Note_on_c, 11, 67, 0
12, 253650, Note_on_c, 11, 67, 31
12, 253680, Note_on_c, 11, 67, 0
12, 253680, Note_on_c, 11, 67, 32
12, 253710, Note_on_c, 11, 67, 0
12, 253710, Note_on_c, 11, 67, 31
12, 253740, Note_on_c, 11, 67, 0
12, 253740, Note_on_c, 11, 67, 29
12, 253770, Note_on_c, 11, 67, 0
12, 253770, Note_on_c, 11, 67, 30
12, 253800, Note_on_c, 11, 67, 0
12, 253800, Note_on_c, 11, 67, 32
12, 253830, Note_on_c, 11, 67, 0
12, 253830, Note_on_c, 11, 67, 32
12, 253860, Note_on_c, 11, 67, 0
12, 253860, Note_on_c, 11, 67, 32
12, 253890, Note_on_c, 11, 67, 0
12, 253890, Note_on_c, 11, 67, 34
12, 253920, Note_on_c, 11, 67, 0
12, 253920, Note_on_c, 11, 68, 29
12, 253950, Note_on_c, 11, 68, 0
12, 253950, Note_on_c, 11, 68, 29
12, 253980, Note_on_c, 11, 68, 0
12, 253980, Note_on_c, 11, 68, 33
12, 254010, Note_on_c, 11, 68, 0
12, 254010, Note_on_c, 11, 68, 29
12, 254040, Note_on_c, 11, 68, 0
12, 254040, Note_on_c, 11, 68, 32
12, 254070, Note_on_c, 11, 68, 0
12, 254070, Note_on_c, 11, 68, 30
12, 254100, Note_on_c, 11, 68, 0
12, 254100, Note_on_c, 11, 68, 29
12, 254130, Note_on_c, 11, 68, 0
12, 254130, Note_on_c, 11, 68, 29
12, 254160, Note_on_c, 11, 68, 0
12, 254160, Note_on_c, 11, 68, 32
12, 254190, Note_on_c, 11, 68, 0
12, 254190, Note_on_c, 11, 68, 29
12, 254220, Note_on_c, 11, 68, 0
12, 254220, Note_on_c, 11, 68, 32
12, 254250, Note_on_c, 11, 68, 0
12, 254250, Note_on_c, 11, 68, 33
12, 254280, Note_on_c, 11, 68, 0
12, 254280, Note_on_c, 11, 68, 30
12, 254310, Note_on_c, 11, 68, 0
12, 254310, Note_on_c, 11, 68, 33
12, 254340, Note_on_c, 11, 68, 0
12, 254340, Note_on_c, 11, 68, 35
12, 254370, Note_on_c, 11, 68, 0
12, 254370, Note_on_c, 11, 68, 35
12, 254400, Note_on_c, 11, 68, 0
12, 254400, Note_on_c, 11, 68, 31
12, 254430, Note_on_c, 11, 68, 0
12, 254430, Note_on_c, 11, 68, 35
12, 254460, Note_on_c, 11, 68, 0
12, 254460, Note_on_c, 11, 68, 30
12, 254490, Note_on_c, 11, 68, 0
12, 254490, Note_on_c, 11, 68, 29
12, 254520, Note_on_c, 11, 68, 0
12, 254520, Note_on_c, 11, 68, 31
12, 254550, Note_on_c, 11, 68, 0
12, 254550, Note_on_c, 11, 68, 33
12, 254580, Note_on_c, 11, 68, 0
12, 254580, Note_on_c, 11, 68, 32
12, 254610, Note_on_c, 11, 68, 0
12, 254610, Note_on_c, 11, 68, 31
12, 254640, Note_on_c, 11, 68, 0
12, 254640, Note_on_c, 11, 68, 34
12, 254670, Note_on_c, 11, 68, 0
12, 254670, Note_on_c, 11, 68, 29
12, 254700, Note_on_c, 11, 68, 0
12, 254700, Note_on_c, 11, 68, 29
12, 254730, Note_on_c, 11, 68, 0
12, 254730, Note_on_c, 11, 68, 29
12, 254760, Note_on_c, 11, 68, 0
12, 254760, Note_on_c, 11, 68, 32
12, 254790, Note_on_c, 11, 68, 0
12, 254790, Note_on_c, 11, 68, 29
12, 254820, Note_on_c, 11, 68, 0
12, 254820, Note_on_c, 11, 68, 31
12, 254850, Note_on_c, 11, 68, 0
12, 254850, Note_on_c, 11, 68, 35
12, 254880, Note_on_c, 11, 68, 0
12, 254880, Note_on_c, 11, 65, 29
12, 254910, Note_on_c, 11, 65, 0
12, 254910, Note_on_c, 11, 65, 29
12, 254940, Note_on_c, 11, 65, 0
12, 254940, Note_on_c, 11, 65, 29
12, 254970, Note_on_c, 11, 65, 0
12, 254970, Note_on_c, 11, 65, 29
12, 255000, Note_on_c, 11, 65, 0
12, 255000, Note_on_c, 11, 65, 29
12, 255030, Note_on_c, 11, 65, 0
12, 255030, Note_on_c, 11, 65, 33
12, 255060, Note_on_c, 11, 65, 0
12, 255060, Note_on_c, 11, 65, 31
12, 255090, Note_on_c, 11, 65, 0
12, 255090, Note_on_c, 11, 65, 30
12, 255120, Note_on_c, 11, 65, 0
12, 255120, Note_on_c, 11, 65, 30
12, 255150, Note_on_c, 11, 65, 0
12, 255150, Note_on_c, 11, 65, 29
12, 255180, Note_on_c, 11, 65, 0
12, 255180, Note_on_c, 11, 65, 29
12, 255210, Note_on_c, 11, 65, 0
12, 255210, Note_on_c, 11, 65, 37
12, 255240, Note_on_c, 11, 65, 0
12, 255240, Note_on_c, 11, 65, 36
12, 255270, Note_on_c, 11, 65, 0
12, 255270, Note_on_c, 11, 65, 29
12, 255300, Note_on_c, 11, 65, 0
12, 255300, Note_on_c, 11, 65, 29
12, 255330, Note_on_c, 11, 65, 0
12, 255330, Note_on_c, 11, 65, 31
12, 255360, Note_on_c, 11, 65, 0
12, 255360, Note_on_c, 11, 63, 29
12, 255390, Note_on_c, 11, 63, 0
12, 255390, Note_on_c, 11, 67, 30
12, 255420, Note_on_c, 11, 67, 0
12, 255420, Note_on_c, 11, 67, 38
12, 255450, Note_on_c, 11, 67, 0
12, 255450, Note_on_c, 11, 67, 40
12, 255480, Note_on_c, 11, 67, 0
12, 255480, Note_on_c, 11, 67, 38
12, 255510, Note_on_c, 11, 67, 0
12, 255510, Note_on_c, 11, 67, 44
12, 255540, Note_on_c, 11, 67, 0
12, 255540, Note_on_c, 11, 67, 46
12, 255570, Note_on_c, 11, 67, 0
12, 255570, Note_on_c, 11, 67, 57
12, 255600, Note_on_c, 11, 67, 0
12, 255600, Note_on_c, 11, 68, 52
12, 255630, Note_on_c, 11, 68, 0
12, 255630, Note_on_c, 11, 68, 42
12, 255660, Note_on_c, 11, 68, 0
12, 255660, Note_on_c, 11, 68, 43
12, 255690, Note_on_c, 11, 68, 0
12, 255690, Note_on_c, 11, 68, 53
12, 255720, Note_on_c, 11, 68, 0
12, 255720, Note_on_c, 11, 68, 62
12, 255750, Note_on_c, 11, 68, 0
12, 255750, Note_on_c, 11, 68, 60
12, 255780, Note_on_c, 11, 68, 0
12, 255780, Note_on_c, 11, 68, 47
12, 255810, Note_on_c, 11, 68, 0
12, 255810, Note_on_c, 11, 68, 44
12, 255840, Note_on_c, 11, 68, 0
12, 255840, Note_on_c, 11, 68, 62
12, 255870, Note_on_c, 11, 68, 0
12, 255870, Note_on_c, 11, 68, 61
12, 255900, Note_on_c, 11, 68, 0
12, 255900, Note_on_c, 11, 68, 60
12, 255930, Note_on_c, 11, 68, 0
12, 255930, Note_on_c, 11, 68, 73
12, 255960, Note_on_c, 11, 68, 0
12, 255960, Note_on_c, 11, 68, 72
12, 255990, Note_on_c, 11, 68, 0
12, 255990, Note_on_c, 11, 68, 72
12, 256020, Note_on_c, 11, 68, 0
12, 256020, Note_on_c, 11, 68, 73
12, 256050, Note_on_c, 11, 68, 0
12, 256050, Note_on_c, 11, 68, 80
12, 256080, Note_on_c, 11, 68, 0
12, 256080, Note_on_c, 11, 65, 89
12, 256110, Note_on_c, 11, 65, 0
12, 256110, Note_on_c, 11, 65, 74
12, 256140, Note_on_c, 11, 65, 0
12, 256140, Note_on_c, 11, 65, 89
12, 256170, Note_on_c, 11, 65, 0
12, 256170, Note_on_c, 11, 65, 94
12, 256200, Note_on_c, 11, 65, 0
12, 256200, Note_on_c, 11, 65, 94
12, 256230, Note_on_c, 11, 65, 0
12, 256230, Note_on_c, 11, 65, 89
12, 256260, Note_on_c, 11, 65, 0
12, 256260, Note_on_c, 11, 65, 85
12, 256290, Note_on_c, 11, 65, 0
12, 256290, Note_on_c, 11, 65, 86
12, 256320, Note_on_c, 11, 65, 0
12, 256320, Note_on_c, 11, 63, 98
12, 256350, Note_on_c, 11, 63, 0
12, 256350, Note_on_c, 11, 67, 95
12, 256380, Note_on_c, 11, 67, 0
12, 256380, Note_on_c, 11, 67, 89
12, 256410, Note_on_c, 11, 67, 0
12, 256410, Note_on_c, 11, 67, 94
12, 256440, Note_on_c, 11, 67, 0
12, 256440, Note_on_c, 11, 67, 86
12, 256470, Note_on_c, 11, 67, 0
12, 256470, Note_on_c, 11, 67, 93
12, 256500, Note_on_c, 11, 67, 0
12, 256500, Note_on_c, 11, 67, 89
12, 256530, Note_on_c, 11, 67, 0
12, 256530, Note_on_c, 11, 67, 93
12, 256560, Note_on_c, 11, 67, 0
12, 256560, Note_on_c, 11, 68, 99
12, 256590, Note_on_c, 11, 68, 0
12, 256590, Note_on_c, 11, 68, 95
12, 256620, Note_on_c, 11, 68, 0
12, 256620, Note_on_c, 11, 68, 95
12, 256650, Note_on_c, 11, 68, 0
12, 256650, Note_on_c, 11, 68, 95
12, 256680, Note_on_c, 11, 68, 0
12, 256680, Note_on_c, 11, 68, 99
12, 256710, Note_on_c, 11, 68, 0
12, 256710, Note_on_c, 11, 68, 94
12, 256740, Note_on_c, 11, 68, 0
12, 256740, Note_on_c, 11, 68, 101
12, 256770, Note_on_c, 11, 68, 0
12, 256770, Note_on_c, 11, 68, 99
12, 256800, Note_on_c, 11, 68, 0
12, 256800, Note_on_c, 11, 68, 99
12, 256830, Note_on_c, 11, 68, 0
12, 256830, Note_on_c, 11, 68, 95
12, 256860, Note_on_c, 11, 68, 0
12, 256860, Note_on_c, 11, 68, 90
12, 256890, Note_on_c, 11, 68, 0
12, 256890, Note_on_c, 11, 68, 95
12, 256920, Note_on_c, 11, 68, 0
12, 256920, Note_on_c, 11, 68, 95
12, 256950, Note_on_c, 11, 68, 0
12, 256950, Note_on_c, 11, 68, 89
12, 256980, Note_on_c, 11, 68, 0
12, 256980, Note_on_c, 11, 68, 95
12, 257010, Note_on_c, 11, 68, 0
12, 257010, Note_on_c, 11, 68, 98
12, 257040, Note_on_c, 11, 68, 0
12, 257040, Note_on_c, 11, 65, 105
12, 257070, Note_on_c, 11, 65, 0
12, 257070, Note_on_c, 11, 65, 98
12, 257100, Note_on_c, 11, 65, 0
12, 257100, Note_on_c, 11, 65, 99
12, 257130, Note_on_c, 11, 65, 0
12, 257130, Note_on_c, 11, 65, 95
12, 257160, Note_on_c, 11, 65, 0
12, 257160, Note_on_c, 11, 65, 98
12, 257190, Note_on_c, 11, 65, 0
12, 257190, Note_on_c, 11, 65, 95
12, 257220, Note_on_c, 11, 65, 0
12, 257220, Note_on_c, 11, 65, 101
12, 257250, Note_on_c, 11, 65, 0
12, 257250, Note_on_c, 11, 65, 101
12, 257280, Note_on_c, 11, 65, 0
12, 257280, Note_on_c, 11, 63, 94
12, 257400, Note_on_c, 11, 63, 0
12, 257760, Note_on_c, 11, 63, 89
12, 257760, Note_on_c, 11, 55, 104
12, 257760, Note_on_c, 11, 72, 72
12, 257880, Note_on_c, 11, 72, 0
12, 257880, Note_on_c, 11, 55, 0
12, 257880, Note_on_c, 11, 63, 0
12, 258240, Note_on_c, 11, 63, 89
12, 258240, Note_on_c, 11, 55, 99
12, 258240, Note_on_c, 11, 72, 84
12, 258360, Note_on_c, 11, 72, 0
12, 258360, Note_on_c, 11, 55, 0
12, 258360, Note_on_c, 11, 63, 0
12, 258480, Note_on_c, 11, 60, 101
12, 258600, Note_on_c, 11, 60, 0
12, 258720, Note_on_c, 11, 55, 98
12, 258840, Note_on_c, 11, 55, 0
12, 258960, Note_on_c, 11, 51, 99
12, 259080, Note_on_c, 11, 51, 0
12, 259200, Note_on_c, 11, 48, 105
12, 259320, Note_on_c, 11, 48, 0
12, 259650, Note_on_c, 11, 48, 105
12, 259680, Note_on_c, 11, 48, 0
12, 259680, Note_on_c, 11, 48, 105
12, 259800, Note_on_c, 11, 48, 0
12, 260130, Note_on_c, 11, 48, 104
12, 260160, Note_on_c, 11, 48, 0
12, 260160, Note_on_c, 11, 48, 104
12, 260640, Note_on_c, 11, 48, 0
12, 260640, End_track
13, 0, Start_track
13, 0, MIDI_port, 0
13, 0, Title_t, "Cellos"
13, 0, Program_c, 12, 48
13, 0, Control_c, 12, 7, 100
13, 0, Control_c, 12, 10, 103
13, 0, Control_c, 12, 93, 0
13, 0, Control_c, 12, 91, 66
13, 0, Note_on_c, 12, 48, 61
13, 240, Note_on_c, 12, 48, 0
13, 240, Note_on_c, 12, 51, 64
13, 480, Note_on_c, 12, 51, 0
13, 480, Note_on_c, 12, 55, 67
13, 660, Note_on_c, 12, 55, 0
13, 660, Note_on_c, 12, 53, 59
13, 690, Note_on_c, 12, 53, 0
13, 720, Note_on_c, 12, 51, 51
13, 780, Note_on_c, 12, 51, 0
13, 840, Note_on_c, 12, 50, 64
13, 900, Note_on_c, 12, 50, 0
13, 960, Note_on_c, 12, 48, 57
13, 1020, Note_on_c, 12, 48, 0
13, 1140, Note_on_c, 12, 43, 52
13, 1170, Note_on_c, 12, 43, 0
13, 1200, Note_on_c, 12, 48, 63
13, 1260, Note_on_c, 12, 48, 0
13, 1380, Note_on_c, 12, 43, 57
13, 1410, Note_on_c, 12, 43, 0
13, 1440, Note_on_c, 12, 48, 67
13, 1560, Note_on_c, 12, 48, 0
13, 3840, Note_on_c, 12, 48, 68
13, 4080, Note_on_c, 12, 48, 0
13, 4080, Note_on_c, 12, 51, 62
13, 4320, Note_on_c, 12, 51, 0
13, 4320, Note_on_c, 12, 56, 94
13, 4800, Note_on_c, 12, 56, 0
13, 4800, Note_on_c, 12, 53, 61
13, 5040, Note_on_c, 12, 53, 0
13, 5040, Note_on_c, 12, 56, 49
13, 5280, Note_on_c, 12, 56, 0
13, 5280, Note_on_c, 12, 61, 76
13, 5760, Note_on_c, 12, 61, 0
13, 5760, Note_on_c, 12, 59, 46
13, 6000, Note_on_c, 12, 59, 0
13, 6000, Note_on_c, 12, 62, 35
13, 6240, Note_on_c, 12, 62, 0
13, 6240, Note_on_c, 12, 67, 84
13, 6600, Note_on_c, 12, 67, 0
13, 6600, Note_on_c, 12, 65, 64
13, 6660, Note_on_c, 12, 65, 0
13, 6720, Note_on_c, 12, 63, 63
13, 6780, Note_on_c, 12, 63, 0
13, 6840, Note_on_c, 12, 65, 95
13, 6900, Note_on_c, 12, 65, 0
13, 6960, Note_on_c, 12, 67, 81
13, 7020, Note_on_c, 12, 67, 0
13, 7080, Note_on_c, 12, 55, 94
13, 7140, Note_on_c, 12, 55, 0
13, 7200, Note_on_c, 12, 60, 94
13, 7320, Note_on_c, 12, 60, 0
13, 7680, Note_on_c, 12, 55, 43
13, 8160, Note_on_c, 12, 55, 0
13, 8160, Note_on_c, 12, 60, 45
13, 8280, Note_on_c, 12, 60, 0
13, 9600, Note_on_c, 12, 46, 58
13, 10080, Note_on_c, 12, 46, 0
13, 10080, Note_on_c, 12, 51, 43
13, 10200, Note_on_c, 12, 51, 0
13, 11040, Note_on_c, 12, 51, 81
13, 11100, Note_on_c, 12, 51, 0
13, 11100, Note_on_c, 12, 51, 78
13, 11160, Note_on_c, 12, 51, 0
13, 11160, Note_on_c, 12, 51, 86
13, 11220, Note_on_c, 12, 51, 0
13, 11220, Note_on_c, 12, 51, 89
13, 11280, Note_on_c, 12, 51, 0
13, 11280, Note_on_c, 12, 51, 89
13, 11340, Note_on_c, 12, 51, 0
13, 11340, Note_on_c, 12, 51, 68
13, 11400, Note_on_c, 12, 51, 0
13, 11400, Note_on_c, 12, 51, 71
13, 11460, Note_on_c, 12, 51, 0
13, 11460, Note_on_c, 12, 51, 76
13, 11520, Note_on_c, 12, 51, 0
13, 11520, Note_on_c, 12, 51, 84
13, 11580, Note_on_c, 12, 51, 0
13, 11580, Note_on_c, 12, 51, 84
13, 11640, Note_on_c, 12, 51, 0
13, 11640, Note_on_c, 12, 51, 85
13, 11700, Note_on_c, 12, 51, 0
13, 11700, Note_on_c, 12, 51, 84
13, 11760, Note_on_c, 12, 51, 0
13, 11760, Note_on_c, 12, 51, 76
13, 11820, Note_on_c, 12, 51, 0
13, 11820, Note_on_c, 12, 51, 84
13, 11880, Note_on_c, 12, 51, 0
13, 11880, Note_on_c, 12, 51, 80
13, 11940, Note_on_c, 12, 51, 0
13, 11940, Note_on_c, 12, 51, 86
13, 12000, Note_on_c, 12, 51, 0
13, 12000, Note_on_c, 12, 51, 115
13, 12060, Note_on_c, 12, 51, 0
13, 12060, Note_on_c, 12, 51, 84
13, 12120, Note_on_c, 12, 51, 0
13, 12120, Note_on_c, 12, 51, 74
13, 12180, Note_on_c, 12, 51, 0
13, 12180, Note_on_c, 12, 51, 85
13, 12240, Note_on_c, 12, 51, 0
13, 12240, Note_on_c, 12, 51, 80
13, 12300, Note_on_c, 12, 51, 0
13, 12300, Note_on_c, 12, 51, 84
13, 12360, Note_on_c, 12, 51, 0
13, 12360, Note_on_c, 12, 51, 78
13, 12420, Note_on_c, 12, 51, 0
13, 12420, Note_on_c, 12, 51, 78
13, 12480, Note_on_c, 12, 51, 0
13, 12480, Note_on_c, 12, 51, 84
13, 12540, Note_on_c, 12, 51, 0
13, 12540, Note_on_c, 12, 51, 84
13, 12600, Note_on_c, 12, 51, 0
13, 12600, Note_on_c, 12, 51, 86
13, 12660, Note_on_c, 12, 51, 0
13, 12660, Note_on_c, 12, 51, 89
13, 12720, Note_on_c, 12, 51, 0
13, 12720, Note_on_c, 12, 51, 82
13, 12780, Note_on_c, 12, 51, 0
13, 12780, Note_on_c, 12, 51, 85
13, 12840, Note_on_c, 12, 51, 0
13, 12840, Note_on_c, 12, 51, 86
13, 12900, Note_on_c, 12, 51, 0
13, 12900, Note_on_c, 12, 51, 89
13, 12960, Note_on_c, 12, 51, 0
13, 12960, Note_on_c, 12, 51, 84
13, 13020, Note_on_c, 12, 51, 0
13, 13020, Note_on_c, 12, 51, 80
13, 13080, Note_on_c, 12, 51, 0
13, 13080, Note_on_c, 12, 51, 81
13, 13140, Note_on_c, 12, 51, 0
13, 13140, Note_on_c, 12, 51, 85
13, 13200, Note_on_c, 12, 51, 0
13, 13200, Note_on_c, 12, 51, 84
13, 13260, Note_on_c, 12, 51, 0
13, 13260, Note_on_c, 12, 51, 76
13, 13320, Note_on_c, 12, 51, 0
13, 13320, Note_on_c, 12, 51, 84
13, 13380, Note_on_c, 12, 51, 0
13, 13380, Note_on_c, 12, 51, 84
13, 13440, Note_on_c, 12, 51, 0
13, 13440, Note_on_c, 12, 51, 84
13, 13500, Note_on_c, 12, 51, 0
13, 13500, Note_on_c, 12, 51, 89
13, 13560, Note_on_c, 12, 51, 0
13, 13560, Note_on_c, 12, 51, 78
13, 13620, Note_on_c, 12, 51, 0
13, 13620, Note_on_c, 12, 51, 76
13, 13680, Note_on_c, 12, 51, 0
13, 13680, Note_on_c, 12, 51, 77
13, 13740, Note_on_c, 12, 51, 0
13, 13740, Note_on_c, 12, 51, 84
13, 13800, Note_on_c, 12, 51, 0
13, 13800, Note_on_c, 12, 51, 81
13, 13860, Note_on_c, 12, 51, 0
13, 13860, Note_on_c, 12, 51, 65
13, 13920, Note_on_c, 12, 51, 0
13, 13920, Note_on_c, 12, 50, 119
13, 13980, Note_on_c, 12, 50, 0
13, 13980, Note_on_c, 12, 50, 89
13, 14040, Note_on_c, 12, 50, 0
13, 14040, Note_on_c, 12, 50, 73
13, 14100, Note_on_c, 12, 50, 0
13, 14100, Note_on_c, 12, 50, 82
13, 14160, Note_on_c, 12, 50, 0
13, 14160, Note_on_c, 12, 50, 81
13, 14220, Note_on_c, 12, 50, 0
13, 14220, Note_on_c, 12, 50, 81
13, 14280, Note_on_c, 12, 50, 0
13, 14280, Note_on_c, 12, 50, 80
13, 14340, Note_on_c, 12, 50, 0
13, 14340, Note_on_c, 12, 50, 84
13, 14400, Note_on_c, 12, 50, 0
13, 14400, Note_on_c, 12, 50, 77
13, 14460, Note_on_c, 12, 50, 0
13, 14460, Note_on_c, 12, 50, 78
13, 14520, Note_on_c, 12, 50, 0
13, 14520, Note_on_c, 12, 50, 78
13, 14580, Note_on_c, 12, 50, 0
13, 14580, Note_on_c, 12, 50, 80
13, 14640, Note_on_c, 12, 50, 0
13, 14640, Note_on_c, 12, 50, 81
13, 14700, Note_on_c, 12, 50, 0
13, 14700, Note_on_c, 12, 50, 82
13, 14760, Note_on_c, 12, 50, 0
13, 14760, Note_on_c, 12, 50, 85
13, 14820, Note_on_c, 12, 50, 0
13, 14820, Note_on_c, 12, 50, 84
13, 14880, Note_on_c, 12, 50, 0
13, 14880, Note_on_c, 12, 49, 94
13, 15000, Note_on_c, 12, 49, 0
13, 15480, Note_on_c, 12, 49, 99
13, 15600, Note_on_c, 12, 49, 0
13, 15600, Note_on_c, 12, 49, 95
13, 15720, Note_on_c, 12, 49, 0
13, 15720, Note_on_c, 12, 49, 89
13, 15840, Note_on_c, 12, 49, 0
13, 15840, Note_on_c, 12, 48, 107
13, 15960, Note_on_c, 12, 48, 0
13, 16440, Note_on_c, 12, 47, 99
13, 16560, Note_on_c, 12, 47, 0
13, 16560, Note_on_c, 12, 47, 98
13, 16680, Note_on_c, 12, 47, 0
13, 16680, Note_on_c, 12, 47, 95
13, 16800, Note_on_c, 12, 47, 0
13, 16800, Note_on_c, 12, 46, 80
13, 16860, Note_on_c, 12, 46, 0
13, 16920, Note_on_c, 12, 46, 119
13, 17040, Note_on_c, 12, 46, 0
13, 17040, Note_on_c, 12, 48, 94
13, 17160, Note_on_c, 12, 48, 0
13, 17160, Note_on_c, 12, 50, 95
13, 17280, Note_on_c, 12, 50, 0
13, 17280, Note_on_c, 12, 51, 89
13, 17340, Note_on_c, 12, 51, 0
13, 17400, Note_on_c, 12, 51, 123
13, 17520, Note_on_c, 12, 51, 0
13, 17520, Note_on_c, 12, 53, 86
13, 17640, Note_on_c, 12, 53, 0
13, 17640, Note_on_c, 12, 54, 78
13, 17760, Note_on_c, 12, 54, 0
13, 17760, Note_on_c, 12, 53, 89
13, 17820, Note_on_c, 12, 53, 0
13, 17880, Note_on_c, 12, 53, 107
13, 18000, Note_on_c, 12, 53, 0
13, 18000, Note_on_c, 12, 58, 85
13, 18120, Note_on_c, 12, 58, 0
13, 18120, Note_on_c, 12, 56, 80
13, 18240, Note_on_c, 12, 56, 0
13, 18240, Note_on_c, 12, 56, 93
13, 18300, Note_on_c, 12, 56, 0
13, 18360, Note_on_c, 12, 54, 115
13, 18480, Note_on_c, 12, 54, 0
13, 18480, Note_on_c, 12, 53, 89
13, 18600, Note_on_c, 12, 53, 0
13, 18600, Note_on_c, 12, 51, 89
13, 18720, Note_on_c, 12, 51, 0
13, 18720, Note_on_c, 12, 50, 94
13, 18780, Note_on_c, 12, 50, 0
13, 18840, Note_on_c, 12, 46, 95
13, 18960, Note_on_c, 12, 46, 0
13, 18960, Note_on_c, 12, 48, 86
13, 19080, Note_on_c, 12, 48, 0
13, 19080, Note_on_c, 12, 50, 94
13, 19200, Note_on_c, 12, 50, 0
13, 19200, Note_on_c, 12, 51, 80
13, 19260, Note_on_c, 12, 51, 0
13, 19320, Note_on_c, 12, 51, 99
13, 19440, Note_on_c, 12, 51, 0
13, 19440, Note_on_c, 12, 53, 80
13, 19560, Note_on_c, 12, 53, 0
13, 19560, Note_on_c, 12, 54, 76
13, 19680, Note_on_c, 12, 54, 0
13, 19680, Note_on_c, 12, 53, 86
13, 19740, Note_on_c, 12, 53, 0
13, 19800, Note_on_c, 12, 53, 94
13, 19920, Note_on_c, 12, 53, 0
13, 19920, Note_on_c, 12, 58, 77
13, 20040, Note_on_c, 12, 58, 0
13, 20040, Note_on_c, 12, 56, 84
13, 20160, Note_on_c, 12, 56, 0
13, 20160, Note_on_c, 12, 56, 71
13, 20220, Note_on_c, 12, 56, 0
13, 20280, Note_on_c, 12, 54, 94
13, 20400, Note_on_c, 12, 54, 0
13, 20400, Note_on_c, 12, 53, 78
13, 20520, Note_on_c, 12, 53, 0
13, 20520, Note_on_c, 12, 51, 60
13, 20640, Note_on_c, 12, 51, 0
13, 20640, Note_on_c, 12, 46, 85
13, 20760, Note_on_c, 12, 46, 0
13, 20760, Note_on_c, 12, 58, 89
13, 21000, Note_on_c, 12, 58, 0
13, 21000, Note_on_c, 12, 57, 85
13, 21120, Note_on_c, 12, 57, 0
13, 21120, Note_on_c, 12, 58, 76
13, 21240, Note_on_c, 12, 58, 0
13, 21240, Note_on_c, 12, 46, 81
13, 21300, Note_on_c, 12, 46, 0
13, 21360, Note_on_c, 12, 47, 67
13, 21420, Note_on_c, 12, 47, 0
13, 21480, Note_on_c, 12, 47, 93
13, 21540, Note_on_c, 12, 47, 0
13, 21600, Note_on_c, 12, 46, 89
13, 21660, Note_on_c, 12, 46, 0
13, 21720, Note_on_c, 12, 57, 105
13, 21840, Note_on_c, 12, 57, 0
13, 21840, Note_on_c, 12, 58, 81
13, 21960, Note_on_c, 12, 58, 0
13, 21960, Note_on_c, 12, 47, 82
13, 22020, Note_on_c, 12, 47, 0
13, 22080, Note_on_c, 12, 46, 81
13, 22140, Note_on_c, 12, 46, 0
13, 22200, Note_on_c, 12, 57, 107
13, 22320, Note_on_c, 12, 57, 0
13, 22320, Note_on_c, 12, 58, 86
13, 22440, Note_on_c, 12, 58, 0
13, 22440, Note_on_c, 12, 47, 85
13, 22500, Note_on_c, 12, 47, 0
13, 22560, Note_on_c, 12, 46, 80
13, 22680, Note_on_c, 12, 46, 0
13, 23520, Note_on_c, 12, 63, 54
13, 23640, Note_on_c, 12, 63, 0
13, 23760, Note_on_c, 12, 58, 64
13, 23880, Note_on_c, 12, 58, 0
13, 24000, Note_on_c, 12, 51, 72
13, 24120, Note_on_c, 12, 51, 0
13, 24600, Note_on_c, 12, 58, 56
13, 24720, Note_on_c, 12, 58, 0
13, 24720, Note_on_c, 12, 58, 63
13, 24840, Note_on_c, 12, 58, 0
13, 24840, Note_on_c, 12, 58, 59
13, 24960, Note_on_c, 12, 58, 0
13, 24960, Note_on_c, 12, 63, 62
13, 25080, Note_on_c, 12, 63, 0
13, 25080, Note_on_c, 12, 51, 64
13, 25200, Note_on_c, 12, 51, 0
13, 25200, Note_on_c, 12, 63, 55
13, 25320, Note_on_c, 12, 63, 0
13, 25320, Note_on_c, 12, 61, 50
13, 25440, Note_on_c, 12, 61, 0
13, 25440, Note_on_c, 12, 60, 68
13, 25680, Note_on_c, 12, 60, 0
13, 25680, Note_on_c, 12, 58, 53
13, 25800, Note_on_c, 12, 58, 0
13, 25920, Note_on_c, 12, 56, 77
13, 26160, Note_on_c, 12, 56, 0
13, 26160, Note_on_c, 12, 55, 73
13, 26280, Note_on_c, 12, 55, 0
13, 26280, Note_on_c, 12, 48, 61
13, 26400, Note_on_c, 12, 48, 0
13, 26400, Note_on_c, 12, 53, 68
13, 26520, Note_on_c, 12, 53, 0
13, 26520, Note_on_c, 12, 46, 67
13, 26640, Note_on_c, 12, 46, 0
13, 26640, Note_on_c, 12, 51, 69
13, 26760, Note_on_c, 12, 51, 0
13, 26760, Note_on_c, 12, 44, 70
13, 26880, Note_on_c, 12, 44, 0
13, 26880, Note_on_c, 12, 46, 78
13, 27000, Note_on_c, 12, 46, 0
13, 27000, Note_on_c, 12, 58, 61
13, 27120, Note_on_c, 12, 58, 0
13, 27120, Note_on_c, 12, 46, 57
13, 27240, Note_on_c, 12, 46, 0
13, 27360, Note_on_c, 12, 51, 46
13, 27600, Note_on_c, 12, 51, 0
13, 27600, Note_on_c, 12, 47, 39
13, 27840, Note_on_c, 12, 47, 0
13, 27840, Note_on_c, 12, 48, 43
13, 28080, Note_on_c, 12, 48, 0
13, 28080, Note_on_c, 12, 55, 43
13, 28320, Note_on_c, 12, 55, 0
13, 28320, Note_on_c, 12, 56, 45
13, 28440, Note_on_c, 12, 56, 0
13, 28440, Note_on_c, 12, 44, 35
13, 28560, Note_on_c, 12, 44, 0
13, 28560, Note_on_c, 12, 56, 45
13, 28680, Note_on_c, 12, 56, 0
13, 28680, Note_on_c, 12, 56, 44
13, 28800, Note_on_c, 12, 56, 0
13, 28800, Note_on_c, 12, 55, 43
13, 28920, Note_on_c, 12, 55, 0
13, 29280, Note_on_c, 12, 60, 59
13, 29400, Note_on_c, 12, 60, 0
13, 29520, Note_on_c, 12, 55, 76
13, 29640, Note_on_c, 12, 55, 0
13, 29760, Note_on_c, 12, 48, 69
13, 29880, Note_on_c, 12, 48, 0
13, 30360, Note_on_c, 12, 55, 61
13, 30480, Note_on_c, 12, 55, 0
13, 30480, Note_on_c, 12, 55, 60
13, 30600, Note_on_c, 12, 55, 0
13, 30600, Note_on_c, 12, 55, 72
13, 30720, Note_on_c, 12, 55, 0
13, 30720, Note_on_c, 12, 60, 70
13, 30840, Note_on_c, 12, 60, 0
13, 30840, Note_on_c, 12, 48, 65
13, 30960, Note_on_c, 12, 48, 0
13, 30960, Note_on_c, 12, 60, 68
13, 31080, Note_on_c, 12, 60, 0
13, 31080, Note_on_c, 12, 58, 59
13, 31200, Note_on_c, 12, 58, 0
13, 31200, Note_on_c, 12, 57, 93
13, 31440, Note_on_c, 12, 57, 0
13, 31440, Note_on_c, 12, 55, 72
13, 31560, Note_on_c, 12, 55, 0
13, 31620, Note_on_c, 12, 55, 68
13, 31680, Note_on_c, 12, 55, 0
13, 31680, Note_on_c, 12, 53, 81
13, 31920, Note_on_c, 12, 53, 0
13, 31920, Note_on_c, 12, 52, 76
13, 32040, Note_on_c, 12, 52, 0
13, 32100, Note_on_c, 12, 53, 73
13, 32160, Note_on_c, 12, 53, 0
13, 32160, Note_on_c, 12, 55, 61
13, 32280, Note_on_c, 12, 55, 0
13, 32280, Note_on_c, 12, 55, 62
13, 32400, Note_on_c, 12, 55, 0
13, 32400, Note_on_c, 12, 43, 68
13, 32520, Note_on_c, 12, 43, 0
13, 32520, Note_on_c, 12, 43, 68
13, 32640, Note_on_c, 12, 43, 0
13, 32640, Note_on_c, 12, 48, 76
13, 32760, Note_on_c, 12, 48, 0
13, 32760, Note_on_c, 12, 48, 72
13, 32880, Note_on_c, 12, 48, 0
13, 32880, Note_on_c, 12, 60, 68
13, 33000, Note_on_c, 12, 60, 0
13, 33000, Note_on_c, 12, 58, 78
13, 33120, Note_on_c, 12, 58, 0
13, 33120, Note_on_c, 12, 56, 64
13, 33180, Note_on_c, 12, 56, 0
13, 33240, Note_on_c, 12, 44, 62
13, 33300, Note_on_c, 12, 44, 0
13, 33360, Note_on_c, 12, 43, 67
13, 33420, Note_on_c, 12, 43, 0
13, 33480, Note_on_c, 12, 55, 67
13, 33540, Note_on_c, 12, 55, 0
13, 33600, Note_on_c, 12, 53, 77
13, 33660, Note_on_c, 12, 53, 0
13, 33720, Note_on_c, 12, 65, 62
13, 33780, Note_on_c, 12, 65, 0
13, 33840, Note_on_c, 12, 51, 76
13, 33900, Note_on_c, 12, 51, 0
13, 33960, Note_on_c, 12, 63, 61
13, 34020, Note_on_c, 12, 63, 0
13, 34080, Note_on_c, 12, 50, 81
13, 34140, Note_on_c, 12, 50, 0
13, 34200, Note_on_c, 12, 62, 72
13, 34260, Note_on_c, 12, 62, 0
13, 34320, Note_on_c, 12, 43, 78
13, 34380, Note_on_c, 12, 43, 0
13, 34440, Note_on_c, 12, 55, 77
13, 34500, Note_on_c, 12, 55, 0
13, 34560, Note_on_c, 12, 56, 85
13, 34620, Note_on_c, 12, 56, 0
13, 34680, Note_on_c, 12, 53, 90
13, 34740, Note_on_c, 12, 53, 0
13, 34800, Note_on_c, 12, 55, 95
13, 34860, Note_on_c, 12, 55, 0
13, 34920, Note_on_c, 12, 43, 85
13, 34980, Note_on_c, 12, 43, 0
13, 35040, Note_on_c, 12, 48, 94
13, 35160, Control_c, 12, 7, 99
13, 35165, Control_c, 12, 7, 97
13, 35170, Control_c, 12, 7, 95
13, 35175, Control_c, 12, 7, 93
13, 35180, Control_c, 12, 7, 91
13, 35185, Control_c, 12, 7, 89
13, 35190, Control_c, 12, 7, 87
13, 35195, Control_c, 12, 7, 85
13, 35200, Control_c, 12, 7, 83
13, 35205, Control_c, 12, 7, 81
13, 35210, Control_c, 12, 7, 79
13, 35215, Control_c, 12, 7, 77
13, 35220, Control_c, 12, 7, 75
13, 35225, Control_c, 12, 7, 73
13, 35230, Control_c, 12, 7, 71
13, 35235, Control_c, 12, 7, 69
13, 35240, Control_c, 12, 7, 66
13, 35280, Note_on_c, 12, 48, 0
13, 35280, Note_on_c, 12, 52, 95
13, 35520, Note_on_c, 12, 52, 0
13, 35520, Note_on_c, 12, 55, 84
13, 35700, Note_on_c, 12, 55, 0
13, 35700, Note_on_c, 12, 53, 85
13, 35730, Note_on_c, 12, 53, 0
13, 35760, Note_on_c, 12, 52, 95
13, 35820, Note_on_c, 12, 52, 0
13, 35880, Note_on_c, 12, 49, 94
13, 35940, Note_on_c, 12, 49, 0
13, 36000, Note_on_c, 12, 48, 101
13, 36060, Note_on_c, 12, 48, 0
13, 36120, Note_on_c, 12, 46, 93
13, 36180, Note_on_c, 12, 46, 0
13, 36240, Note_on_c, 12, 44, 89
13, 36300, Note_on_c, 12, 44, 0
13, 36360, Note_on_c, 12, 43, 94
13, 36420, Note_on_c, 12, 43, 0
13, 36480, Note_on_c, 12, 41, 94
13, 36600, Note_on_c, 12, 41, 0
13, 36780, Control_c, 12, 7, 99
13, 37560, Note_on_c, 12, 53, 77
13, 37680, Note_on_c, 12, 53, 0
13, 37680, Note_on_c, 12, 53, 81
13, 37800, Note_on_c, 12, 53, 0
13, 37800, Note_on_c, 12, 53, 93
13, 37920, Note_on_c, 12, 53, 0
13, 37920, Note_on_c, 12, 55, 93
13, 38040, Note_on_c, 12, 55, 0
13, 39000, Note_on_c, 12, 55, 94
13, 39120, Note_on_c, 12, 55, 0
13, 39120, Note_on_c, 12, 55, 95
13, 39240, Note_on_c, 12, 55, 0
13, 39240, Note_on_c, 12, 55, 94
13, 39360, Note_on_c, 12, 55, 0
13, 39360, Note_on_c, 12, 56, 112
13, 39480, Note_on_c, 12, 56, 0
13, 39600, Note_on_c, 12, 53, 99
13, 39720, Note_on_c, 12, 53, 0
13, 39840, Note_on_c, 12, 55, 99
13, 39960, Note_on_c, 12, 55, 0
13, 40080, Note_on_c, 12, 43, 104
13, 40200, Note_on_c, 12, 43, 0
13, 40320, Note_on_c, 12, 48, 104
13, 40440, Note_on_c, 12, 48, 0
13, 41520, Note_on_c, 12, 53, 74
13, 41640, Note_on_c, 12, 53, 0
13, 41760, Note_on_c, 12, 55, 73
13, 41880, Note_on_c, 12, 55, 0
13, 42000, Note_on_c, 12, 43, 76
13, 42120, Note_on_c, 12, 43, 0
13, 42240, Note_on_c, 12, 48, 80
13, 42360, Note_on_c, 12, 48, 0
13, 43680, Note_on_c, 12, 53, 62
13, 43920, Note_on_c, 12, 53, 0
13, 43920, Note_on_c, 12, 51, 74
13, 44100, Note_on_c, 12, 51, 0
13, 44100, Note_on_c, 12, 50, 76
13, 44160, Note_on_c, 12, 50, 0
13, 44160, Note_on_c, 12, 50, 74
13, 44400, Note_on_c, 12, 50, 0
13, 44400, Note_on_c, 12, 48, 76
13, 44580, Note_on_c, 12, 48, 0
13, 44580, Note_on_c, 12, 47, 80
13, 44640, Note_on_c, 12, 47, 0
13, 44640, Note_on_c, 12, 47, 73
13, 44760, Note_on_c, 12, 47, 0
13, 44820, Note_on_c, 12, 47, 85
13, 44880, Note_on_c, 12, 47, 0
13, 44880, Note_on_c, 12, 50, 73
13, 44940, Note_on_c, 12, 50, 0
13, 45300, Note_on_c, 12, 58, 85
13, 45360, Note_on_c, 12, 58, 0
13, 45360, Note_on_c, 12, 61, 86
13, 45420, Note_on_c, 12, 61, 0
13, 45660, Note_on_c, 12, 57, 99
13, 45720, Note_on_c, 12, 57, 0
13, 45720, Note_on_c, 12, 60, 81
13, 45780, Note_on_c, 12, 60, 0
13, 45900, Note_on_c, 12, 56, 86
13, 45960, Note_on_c, 12, 56, 0
13, 45960, Note_on_c, 12, 60, 86
13, 46020, Note_on_c, 12, 60, 0
13, 46140, Note_on_c, 12, 57, 76
13, 46200, Note_on_c, 12, 57, 0
13, 46200, Note_on_c, 12, 60, 50
13, 46260, Note_on_c, 12, 60, 0
13, 46380, Note_on_c, 12, 43, 68
13, 46440, Note_on_c, 12, 43, 0
13, 46440, Note_on_c, 12, 55, 53
13, 46500, Note_on_c, 12, 55, 0
13, 46560, Note_on_c, 12, 48, 65
13, 46680, Note_on_c, 12, 48, 0
13, 47040, Note_on_c, 12, 55, 65
13, 47160, Note_on_c, 12, 55, 0
13, 47520, Note_on_c, 12, 60, 43
13, 47640, Note_on_c, 12, 60, 0
13, 47760, Note_on_c, 12, 57, 38
13, 47880, Note_on_c, 12, 57, 0
13, 48000, Note_on_c, 12, 53, 41
13, 48120, Note_on_c, 12, 53, 0
13, 48240, Note_on_c, 12, 55, 44
13, 48360, Note_on_c, 12, 55, 0
13, 48480, Note_on_c, 12, 48, 45
13, 48540, Note_on_c, 12, 48, 0
13, 48540, Note_on_c, 12, 48, 61
13, 48600, Note_on_c, 12, 48, 0
13, 48600, Note_on_c, 12, 60, 43
13, 48660, Note_on_c, 12, 60, 0
13, 48660, Note_on_c, 12, 60, 64
13, 48720, Note_on_c, 12, 60, 0
13, 48720, Note_on_c, 12, 56, 72
13, 48780, Note_on_c, 12, 56, 0
13, 48780, Note_on_c, 12, 56, 84
13, 48840, Note_on_c, 12, 56, 0
13, 48840, Note_on_c, 12, 54, 81
13, 48900, Note_on_c, 12, 54, 0
13, 48900, Note_on_c, 12, 54, 89
13, 48960, Note_on_c, 12, 54, 0
13, 48960, Note_on_c, 12, 55, 90
13, 49020, Note_on_c, 12, 55, 0
13, 49020, Note_on_c, 12, 55, 90
13, 49080, Note_on_c, 12, 55, 0
13, 49080, Note_on_c, 12, 55, 94
13, 49140, Note_on_c, 12, 55, 0
13, 49140, Note_on_c, 12, 55, 94
13, 49200, Note_on_c, 12, 55, 0
13, 49200, Note_on_c, 12, 43, 84
13, 49260, Note_on_c, 12, 43, 0
13, 49260, Note_on_c, 12, 43, 89
13, 49320, Note_on_c, 12, 43, 0
13, 49320, Note_on_c, 12, 43, 93
13, 49380, Note_on_c, 12, 43, 0
13, 49380, Note_on_c, 12, 43, 95
13, 49440, Note_on_c, 12, 43, 0
13, 49440, Note_on_c, 12, 48, 105
13, 49560, Note_on_c, 12, 48, 0
13, 49920, Note_on_c, 12, 48, 98
13, 50160, Note_on_c, 12, 48, 0
13, 50160, Note_on_c, 12, 51, 94
13, 50400, Note_on_c, 12, 51, 0
13, 50400, Note_on_c, 12, 55, 80
13, 50580, Note_on_c, 12, 55, 0
13, 50580, Note_on_c, 12, 53, 82
13, 50610, Note_on_c, 12, 53, 0
13, 50640, Note_on_c, 12, 51, 84
13, 50700, Note_on_c, 12, 51, 0
13, 50760, Note_on_c, 12, 50, 90
13, 50820, Note_on_c, 12, 50, 0
13, 50880, Note_on_c, 12, 48, 89
13, 51000, Note_on_c, 12, 48, 0
13, 51060, Note_on_c, 12, 43, 90
13, 51090, Note_on_c, 12, 43, 0
13, 51120, Note_on_c, 12, 48, 81
13, 51180, Note_on_c, 12, 48, 0
13, 51300, Note_on_c, 12, 43, 86
13, 51330, Note_on_c, 12, 43, 0
13, 51360, Note_on_c, 12, 48, 84
13, 51420, Note_on_c, 12, 48, 0
13, 51780, Note_on_c, 12, 55, 89
13, 51810, Note_on_c, 12, 55, 0
13, 51840, Note_on_c, 12, 60, 78
13, 51900, Note_on_c, 12, 60, 0
13, 52320, Note_on_c, 12, 48, 101
13, 52380, Note_on_c, 12, 48, 0
13, 52560, Note_on_c, 12, 48, 104
13, 52620, Note_on_c, 12, 48, 0
13, 52800, Note_on_c, 12, 48, 105
13, 53040, Note_on_c, 12, 48, 0
13, 58080, Note_on_c, 12, 48, 62
13, 58320, Note_on_c, 12, 48, 0
13, 58320, Note_on_c, 12, 51, 68
13, 58560, Note_on_c, 12, 51, 0
13, 58560, Note_on_c, 12, 56, 65
13, 59040, Note_on_c, 12, 56, 0
13, 59040, Note_on_c, 12, 53, 64
13, 59280, Note_on_c, 12, 53, 0
13, 59280, Note_on_c, 12, 56, 64
13, 59520, Note_on_c, 12, 56, 0
13, 59520, Note_on_c, 12, 61, 66
13, 60000, Note_on_c, 12, 61, 0
13, 60000, Note_on_c, 12, 59, 68
13, 60240, Note_on_c, 12, 59, 0
13, 60240, Note_on_c, 12, 62, 65
13, 60480, Note_on_c, 12, 62, 0
13, 60480, Note_on_c, 12, 55, 64
13, 60840, Note_on_c, 12, 55, 0
13, 60840, Note_on_c, 12, 53, 61
13, 60960, Note_on_c, 12, 53, 0
13, 60960, Note_on_c, 12, 51, 57
13, 61080, Note_on_c, 12, 51, 0
13, 61200, Note_on_c, 12, 53, 70
13, 61320, Note_on_c, 12, 53, 0
13, 61440, Note_on_c, 12, 55, 60
13, 61560, Note_on_c, 12, 55, 0
13, 61680, Note_on_c, 12, 43, 68
13, 61800, Note_on_c, 12, 43, 0
13, 61920, Note_on_c, 12, 48, 72
13, 62040, Note_on_c, 12, 48, 0
13, 62400, Note_on_c, 12, 55, 59
13, 62880, Note_on_c, 12, 55, 0
13, 62880, Note_on_c, 12, 60, 62
13, 63000, Note_on_c, 12, 60, 0
13, 64320, Note_on_c, 12, 46, 72
13, 64800, Note_on_c, 12, 46, 0
13, 64800, Note_on_c, 12, 51, 56
13, 64920, Note_on_c, 12, 51, 0
13, 65760, Note_on_c, 12, 51, 94
13, 65820, Note_on_c, 12, 51, 0
13, 65820, Note_on_c, 12, 51, 99
13, 65880, Note_on_c, 12, 51, 0
13, 65880, Note_on_c, 12, 51, 95
13, 65940, Note_on_c, 12, 51, 0
13, 65940, Note_on_c, 12, 51, 94
13, 66000, Note_on_c, 12, 51, 0
13, 66000, Note_on_c, 12, 51, 98
13, 66060, Note_on_c, 12, 51, 0
13, 66060, Note_on_c, 12, 51, 93
13, 66120, Note_on_c, 12, 51, 0
13, 66120, Note_on_c, 12, 51, 95
13, 66180, Note_on_c, 12, 51, 0
13, 66180, Note_on_c, 12, 51, 95
13, 66240, Note_on_c, 12, 51, 0
13, 66240, Note_on_c, 12, 51, 89
13, 66300, Note_on_c, 12, 51, 0
13, 66300, Note_on_c, 12, 51, 94
13, 66360, Note_on_c, 12, 51, 0
13, 66360, Note_on_c, 12, 51, 90
13, 66420, Note_on_c, 12, 51, 0
13, 66420, Note_on_c, 12, 51, 98
13, 66480, Note_on_c, 12, 51, 0
13, 66480, Note_on_c, 12, 51, 95
13, 66540, Note_on_c, 12, 51, 0
13, 66540, Note_on_c, 12, 51, 94
13, 66600, Note_on_c, 12, 51, 0
13, 66600, Note_on_c, 12, 51, 94
13, 66660, Note_on_c, 12, 51, 0
13, 66660, Note_on_c, 12, 51, 90
13, 66720, Note_on_c, 12, 51, 0
13, 66720, Note_on_c, 12, 51, 95
13, 66840, Note_on_c, 12, 51, 0
13, 67680, Note_on_c, 12, 48, 95
13, 67740, Note_on_c, 12, 48, 0
13, 67740, Note_on_c, 12, 60, 84
13, 67800, Note_on_c, 12, 60, 0
13, 67800, Note_on_c, 12, 60, 84
13, 67860, Note_on_c, 12, 60, 0
13, 67860, Note_on_c, 12, 60, 84
13, 67920, Note_on_c, 12, 60, 0
13, 67920, Note_on_c, 12, 60, 89
13, 67980, Note_on_c, 12, 60, 0
13, 67980, Note_on_c, 12, 60, 86
13, 68040, Note_on_c, 12, 60, 0
13, 68040, Note_on_c, 12, 60, 89
13, 68100, Note_on_c, 12, 60, 0
13, 68100, Note_on_c, 12, 60, 93
13, 68160, Note_on_c, 12, 60, 0
13, 68160, Note_on_c, 12, 60, 93
13, 68220, Note_on_c, 12, 60, 0
13, 68220, Note_on_c, 12, 60, 89
13, 68280, Note_on_c, 12, 60, 0
13, 68280, Note_on_c, 12, 60, 89
13, 68340, Note_on_c, 12, 60, 0
13, 68340, Note_on_c, 12, 60, 93
13, 68400, Note_on_c, 12, 60, 0
13, 68400, Note_on_c, 12, 60, 89
13, 68460, Note_on_c, 12, 60, 0
13, 68460, Note_on_c, 12, 60, 89
13, 68520, Note_on_c, 12, 60, 0
13, 68520, Note_on_c, 12, 60, 86
13, 68580, Note_on_c, 12, 60, 0
13, 68580, Note_on_c, 12, 60, 95
13, 68640, Note_on_c, 12, 60, 0
13, 68640, Note_on_c, 12, 59, 85
13, 68760, Note_on_c, 12, 59, 0
13, 69600, Note_on_c, 12, 46, 67
13, 69720, Note_on_c, 12, 46, 0
13, 69840, Note_on_c, 12, 50, 72
13, 69960, Note_on_c, 12, 50, 0
13, 70080, Note_on_c, 12, 51, 62
13, 70200, Note_on_c, 12, 51, 0
13, 70320, Note_on_c, 12, 54, 56
13, 70440, Note_on_c, 12, 54, 0
13, 70560, Note_on_c, 12, 53, 65
13, 70680, Note_on_c, 12, 53, 0
13, 70800, Note_on_c, 12, 56, 54
13, 70920, Note_on_c, 12, 56, 0
13, 71040, Note_on_c, 12, 54, 68
13, 71160, Note_on_c, 12, 54, 0
13, 71280, Note_on_c, 12, 51, 61
13, 71400, Note_on_c, 12, 51, 0
13, 71520, Note_on_c, 12, 46, 58
13, 71640, Note_on_c, 12, 46, 0
13, 71760, Note_on_c, 12, 50, 71
13, 71880, Note_on_c, 12, 50, 0
13, 72000, Note_on_c, 12, 51, 68
13, 72120, Note_on_c, 12, 51, 0
13, 72240, Note_on_c, 12, 54, 62
13, 72360, Note_on_c, 12, 54, 0
13, 72480, Note_on_c, 12, 53, 58
13, 72600, Note_on_c, 12, 53, 0
13, 72720, Note_on_c, 12, 56, 62
13, 72840, Note_on_c, 12, 56, 0
13, 72960, Note_on_c, 12, 54, 68
13, 73080, Note_on_c, 12, 54, 0
13, 73200, Note_on_c, 12, 51, 62
13, 73320, Note_on_c, 12, 51, 0
13, 73440, Note_on_c, 12, 46, 69
13, 73560, Note_on_c, 12, 46, 0
13, 73920, Note_on_c, 12, 58, 64
13, 74040, Note_on_c, 12, 58, 0
13, 74400, Note_on_c, 12, 58, 65
13, 74520, Note_on_c, 12, 58, 0
13, 74640, Note_on_c, 12, 58, 49
13, 74760, Note_on_c, 12, 58, 0
13, 74880, Note_on_c, 12, 58, 59
13, 75000, Note_on_c, 12, 58, 0
13, 75120, Note_on_c, 12, 58, 50
13, 75240, Note_on_c, 12, 58, 0
13, 75360, Note_on_c, 12, 46, 58
13, 75420, Note_on_c, 12, 46, 0
13, 75480, Note_on_c, 12, 46, 57
13, 75540, Note_on_c, 12, 46, 0
13, 78240, Note_on_c, 12, 63, 65
13, 78360, Note_on_c, 12, 63, 0
13, 78480, Note_on_c, 12, 58, 72
13, 78600, Note_on_c, 12, 58, 0
13, 78720, Note_on_c, 12, 51, 57
13, 78840, Note_on_c, 12, 51, 0
13, 80160, Note_on_c, 12, 60, 69
13, 80280, Note_on_c, 12, 60, 0
13, 80400, Note_on_c, 12, 58, 71
13, 80520, Note_on_c, 12, 58, 0
13, 80640, Note_on_c, 12, 56, 74
13, 80760, Note_on_c, 12, 56, 0
13, 80880, Note_on_c, 12, 55, 64
13, 81000, Note_on_c, 12, 55, 0
13, 82080, Note_on_c, 12, 63, 70
13, 82200, Note_on_c, 12, 63, 0
13, 82320, Note_on_c, 12, 58, 70
13, 82440, Note_on_c, 12, 58, 0
13, 82560, Note_on_c, 12, 51, 70
13, 82680, Note_on_c, 12, 51, 0
13, 83160, Note_on_c, 12, 58, 54
13, 83280, Note_on_c, 12, 58, 0
13, 83280, Note_on_c, 12, 58, 62
13, 83400, Note_on_c, 12, 58, 0
13, 83400, Note_on_c, 12, 58, 68
13, 83520, Note_on_c, 12, 58, 0
13, 83520, Note_on_c, 12, 63, 57
13, 83640, Note_on_c, 12, 63, 0
13, 83640, Note_on_c, 12, 51, 61
13, 83760, Note_on_c, 12, 51, 0
13, 83760, Note_on_c, 12, 63, 64
13, 83880, Note_on_c, 12, 63, 0
13, 83880, Note_on_c, 12, 61, 72
13, 84000, Note_on_c, 12, 61, 0
13, 84000, Note_on_c, 12, 60, 115
13, 84240, Note_on_c, 12, 60, 0
13, 84240, Note_on_c, 12, 58, 78
13, 84360, Note_on_c, 12, 58, 0
13, 84420, Note_on_c, 12, 58, 71
13, 84480, Note_on_c, 12, 58, 0
13, 84480, Note_on_c, 12, 56, 105
13, 84720, Note_on_c, 12, 56, 0
13, 84720, Note_on_c, 12, 55, 82
13, 84840, Note_on_c, 12, 55, 0
13, 84900, Note_on_c, 12, 56, 73
13, 84960, Note_on_c, 12, 56, 0
13, 84960, Note_on_c, 12, 58, 80
13, 85080, Note_on_c, 12, 58, 0
13, 85080, Note_on_c, 12, 46, 89
13, 85200, Note_on_c, 12, 46, 0
13, 85200, Note_on_c, 12, 46, 86
13, 85320, Note_on_c, 12, 46, 0
13, 85320, Note_on_c, 12, 46, 85
13, 85440, Note_on_c, 12, 46, 0
13, 85440, Note_on_c, 12, 51, 77
13, 85560, Note_on_c, 12, 51, 0
13, 85560, Note_on_c, 12, 46, 84
13, 85680, Note_on_c, 12, 46, 0
13, 85680, Note_on_c, 12, 51, 84
13, 85800, Note_on_c, 12, 51, 0
13, 86880, Note_on_c, 12, 53, 45
13, 87000, Note_on_c, 12, 53, 0
13, 87360, Note_on_c, 12, 46, 62
13, 87480, Note_on_c, 12, 46, 0
13, 87840, Note_on_c, 12, 48, 58
13, 87960, Note_on_c, 12, 48, 0
13, 88080, Note_on_c, 12, 56, 39
13, 88200, Note_on_c, 12, 56, 0
13, 88320, Note_on_c, 12, 58, 41
13, 88440, Note_on_c, 12, 58, 0
13, 88560, Note_on_c, 12, 46, 45
13, 88680, Note_on_c, 12, 46, 0
13, 88800, Note_on_c, 12, 51, 50
13, 88920, Note_on_c, 12, 51, 0
13, 90000, Note_on_c, 12, 56, 65
13, 90120, Note_on_c, 12, 56, 0
13, 90240, Note_on_c, 12, 58, 53
13, 90360, Note_on_c, 12, 58, 0
13, 90480, Note_on_c, 12, 46, 74
13, 90600, Note_on_c, 12, 46, 0
13, 90720, Note_on_c, 12, 51, 61
13, 90840, Note_on_c, 12, 51, 0
13, 92640, Note_on_c, 12, 49, 71
13, 93120, Note_on_c, 12, 49, 0
13, 93120, Note_on_c, 12, 54, 67
13, 93240, Note_on_c, 12, 54, 0
13, 93360, Note_on_c, 12, 47, 70
13, 93480, Note_on_c, 12, 47, 0
13, 93600, Note_on_c, 12, 49, 69
13, 93720, Note_on_c, 12, 49, 0
13, 93840, Note_on_c, 12, 50, 65
13, 93960, Note_on_c, 12, 50, 0
13, 94080, Note_on_c, 12, 51, 64
13, 94200, Note_on_c, 12, 51, 0
13, 94320, Note_on_c, 12, 44, 70
13, 94440, Note_on_c, 12, 44, 0
13, 94560, Note_on_c, 12, 46, 66
13, 94680, Note_on_c, 12, 46, 0
13, 94800, Note_on_c, 12, 46, 72
13, 94920, Note_on_c, 12, 46, 0
13, 95040, Note_on_c, 12, 51, 62
13, 95160, Note_on_c, 12, 51, 0
13, 95220, Note_on_c, 12, 46, 71
13, 95250, Note_on_c, 12, 46, 0
13, 95280, Note_on_c, 12, 51, 71
13, 95340, Note_on_c, 12, 51, 0
13, 95700, Note_on_c, 12, 46, 68
13, 95730, Note_on_c, 12, 46, 0
13, 95760, Note_on_c, 12, 51, 57
13, 95820, Note_on_c, 12, 51, 0
13, 97920, Note_on_c, 12, 51, 65
13, 98040, Note_on_c, 12, 51, 0
13, 98400, Note_on_c, 12, 51, 68
13, 98520, Note_on_c, 12, 51, 0
13, 100320, Note_on_c, 12, 56, 81
13, 100800, Note_on_c, 12, 56, 0
13, 100800, Note_on_c, 12, 55, 69
13, 100920, Note_on_c, 12, 55, 0
13, 101700, Note_on_c, 12, 55, 89
13, 101730, Note_on_c, 12, 55, 0
13, 101760, Note_on_c, 12, 56, 78
13, 101820, Note_on_c, 12, 56, 0
13, 102660, Note_on_c, 12, 56, 86
13, 102690, Note_on_c, 12, 56, 0
13, 102720, Note_on_c, 12, 57, 84
13, 102780, Note_on_c, 12, 57, 0
13, 103620, Note_on_c, 12, 57, 89
13, 103650, Note_on_c, 12, 57, 0
13, 103680, Note_on_c, 12, 58, 78
13, 103740, Note_on_c, 12, 58, 0
13, 103920, Note_on_c, 12, 60, 81
13, 104040, Note_on_c, 12, 60, 0
13, 104160, Note_on_c, 12, 58, 73
13, 104280, Note_on_c, 12, 58, 0
13, 104400, Note_on_c, 12, 57, 80
13, 104520, Note_on_c, 12, 57, 0
13, 104640, Note_on_c, 12, 58, 72
13, 104760, Note_on_c, 12, 58, 0
13, 106560, Note_on_c, 12, 58, 65
13, 106680, Note_on_c, 12, 58, 0
13, 107520, Note_on_c, 12, 46, 76
13, 107640, Note_on_c, 12, 46, 0
13, 108480, Note_on_c, 12, 51, 99
13, 108540, Note_on_c, 12, 51, 0
13, 108540, Note_on_c, 12, 51, 90
13, 108600, Note_on_c, 12, 51, 0
13, 108600, Note_on_c, 12, 51, 89
13, 108660, Note_on_c, 12, 51, 0
13, 108660, Note_on_c, 12, 51, 93
13, 108720, Note_on_c, 12, 51, 0
13, 108720, Note_on_c, 12, 51, 93
13, 108780, Note_on_c, 12, 51, 0
13, 108780, Note_on_c, 12, 51, 94
13, 108840, Note_on_c, 12, 51, 0
13, 108840, Note_on_c, 12, 51, 94
13, 108900, Note_on_c, 12, 51, 0
13, 108900, Note_on_c, 12, 51, 93
13, 108960, Note_on_c, 12, 51, 0
13, 108960, Note_on_c, 12, 51, 90
13, 109020, Note_on_c, 12, 51, 0
13, 109020, Note_on_c, 12, 51, 89
13, 109080, Note_on_c, 12, 51, 0
13, 109080, Note_on_c, 12, 51, 89
13, 109140, Note_on_c, 12, 51, 0
13, 109140, Note_on_c, 12, 51, 94
13, 109200, Note_on_c, 12, 51, 0
13, 109200, Note_on_c, 12, 51, 86
13, 109260, Note_on_c, 12, 51, 0
13, 109260, Note_on_c, 12, 51, 93
13, 109320, Note_on_c, 12, 51, 0
13, 109320, Note_on_c, 12, 51, 85
13, 109380, Note_on_c, 12, 51, 0
13, 109380, Note_on_c, 12, 51, 89
13, 109440, Note_on_c, 12, 51, 0
13, 109440, Note_on_c, 12, 51, 86
13, 109500, Note_on_c, 12, 51, 0
13, 109500, Note_on_c, 12, 51, 90
13, 109560, Note_on_c, 12, 51, 0
13, 109560, Note_on_c, 12, 51, 89
13, 109620, Note_on_c, 12, 51, 0
13, 109620, Note_on_c, 12, 51, 94
13, 109680, Note_on_c, 12, 51, 0
13, 109680, Note_on_c, 12, 60, 74
13, 109740, Note_on_c, 12, 60, 0
13, 109740, Note_on_c, 12, 60, 84
13, 109800, Note_on_c, 12, 60, 0
13, 109800, Note_on_c, 12, 60, 89
13, 109860, Note_on_c, 12, 60, 0
13, 109860, Note_on_c, 12, 60, 94
13, 109920, Note_on_c, 12, 60, 0
13, 109920, Note_on_c, 12, 56, 93
13, 109980, Note_on_c, 12, 56, 0
13, 109980, Note_on_c, 12, 56, 89
13, 110040, Note_on_c, 12, 56, 0
13, 110040, Note_on_c, 12, 56, 86
13, 110100, Note_on_c, 12, 56, 0
13, 110100, Note_on_c, 12, 56, 86
13, 110160, Note_on_c, 12, 56, 0
13, 110160, Note_on_c, 12, 58, 89
13, 110220, Note_on_c, 12, 58, 0
13, 110220, Note_on_c, 12, 58, 86
13, 110280, Note_on_c, 12, 58, 0
13, 110280, Note_on_c, 12, 58, 84
13, 110340, Note_on_c, 12, 58, 0
13, 110340, Note_on_c, 12, 58, 86
13, 110400, Note_on_c, 12, 58, 0
13, 110400, Note_on_c, 12, 51, 89
13, 110520, Note_on_c, 12, 51, 0
13, 110520, Note_on_c, 12, 63, 82
13, 110640, Note_on_c, 12, 63, 0
13, 110760, Note_on_c, 12, 60, 89
13, 110880, Note_on_c, 12, 60, 0
13, 111000, Note_on_c, 12, 57, 95
13, 111120, Note_on_c, 12, 57, 0
13, 111240, Note_on_c, 12, 59, 90
13, 111360, Note_on_c, 12, 59, 0
13, 111480, Note_on_c, 12, 60, 78
13, 111600, Note_on_c, 12, 60, 0
13, 111720, Note_on_c, 12, 56, 82
13, 111840, Note_on_c, 12, 56, 0
13, 111960, Note_on_c, 12, 54, 84
13, 112080, Note_on_c, 12, 54, 0
13, 112200, Note_on_c, 12, 55, 89
13, 112320, Note_on_c, 12, 55, 0
13, 112320, Note_on_c, 12, 48, 94
13, 112440, Note_on_c, 12, 48, 0
13, 112440, Note_on_c, 12, 60, 78
13, 112560, Note_on_c, 12, 60, 0
13, 112680, Note_on_c, 12, 61, 81
13, 112800, Note_on_c, 12, 61, 0
13, 112920, Note_on_c, 12, 62, 89
13, 113040, Note_on_c, 12, 62, 0
13, 113040, Note_on_c, 12, 63, 84
13, 113160, Note_on_c, 12, 63, 0
13, 113160, Note_on_c, 12, 51, 93
13, 113280, Note_on_c, 12, 51, 0
13, 113280, Note_on_c, 12, 50, 94
13, 113340, Note_on_c, 12, 50, 0
13, 113400, Note_on_c, 12, 50, 101
13, 113520, Note_on_c, 12, 50, 0
13, 113520, Note_on_c, 12, 52, 99
13, 113640, Note_on_c, 12, 52, 0
13, 113640, Note_on_c, 12, 54, 85
13, 113760, Note_on_c, 12, 54, 0
13, 113760, Note_on_c, 12, 55, 94
13, 113820, Note_on_c, 12, 55, 0
13, 113880, Note_on_c, 12, 55, 99
13, 114000, Note_on_c, 12, 55, 0
13, 114000, Note_on_c, 12, 57, 94
13, 114120, Note_on_c, 12, 57, 0
13, 114120, Note_on_c, 12, 58, 84
13, 114240, Note_on_c, 12, 58, 0
13, 114240, Note_on_c, 12, 57, 101
13, 114300, Note_on_c, 12, 57, 0
13, 114360, Note_on_c, 12, 57, 110
13, 114480, Note_on_c, 12, 57, 0
13, 114480, Note_on_c, 12, 62, 86
13, 114600, Note_on_c, 12, 62, 0
13, 114600, Note_on_c, 12, 60, 89
13, 114720, Note_on_c, 12, 60, 0
13, 114720, Note_on_c, 12, 60, 81
13, 114840, Note_on_c, 12, 60, 0
13, 114840, Note_on_c, 12, 58, 98
13, 114960, Note_on_c, 12, 58, 0
13, 114960, Note_on_c, 12, 57, 104
13, 115080, Note_on_c, 12, 57, 0
13, 115080, Note_on_c, 12, 55, 84
13, 115200, Note_on_c, 12, 55, 0
13, 115200, Note_on_c, 12, 54, 77
13, 115260, Note_on_c, 12, 54, 0
13, 115320, Note_on_c, 12, 50, 105
13, 115440, Note_on_c, 12, 50, 0
13, 115440, Note_on_c, 12, 52, 95
13, 115560, Note_on_c, 12, 52, 0
13, 115560, Note_on_c, 12, 54, 86
13, 115680, Note_on_c, 12, 54, 0
13, 115680, Note_on_c, 12, 55, 86
13, 115740, Note_on_c, 12, 55, 0
13, 115800, Note_on_c, 12, 55, 99
13, 115920, Note_on_c, 12, 55, 0
13, 115920, Note_on_c, 12, 57, 94
13, 116040, Note_on_c, 12, 57, 0
13, 116040, Note_on_c, 12, 58, 86
13, 116160, Note_on_c, 12, 58, 0
13, 116160, Note_on_c, 12, 57, 99
13, 116220, Note_on_c, 12, 57, 0
13, 116280, Note_on_c, 12, 57, 112
13, 116400, Note_on_c, 12, 57, 0
13, 116400, Note_on_c, 12, 62, 77
13, 116520, Note_on_c, 12, 62, 0
13, 116520, Note_on_c, 12, 60, 89
13, 116640, Note_on_c, 12, 60, 0
13, 116640, Note_on_c, 12, 60, 82
13, 116760, Note_on_c, 12, 60, 0
13, 116760, Note_on_c, 12, 58, 90
13, 116880, Note_on_c, 12, 58, 0
13, 116880, Note_on_c, 12, 57, 95
13, 117000, Note_on_c, 12, 57, 0
13, 117000, Note_on_c, 12, 55, 86
13, 117120, Note_on_c, 12, 55, 0
13, 117120, Note_on_c, 12, 50, 95
13, 117240, Note_on_c, 12, 50, 0
13, 117240, Note_on_c, 12, 62, 90
13, 117480, Note_on_c, 12, 62, 0
13, 117480, Note_on_c, 12, 61, 76
13, 117600, Note_on_c, 12, 61, 0
13, 117600, Note_on_c, 12, 62, 80
13, 117720, Note_on_c, 12, 62, 0
13, 117720, Note_on_c, 12, 50, 90
13, 117780, Note_on_c, 12, 50, 0
13, 117840, Note_on_c, 12, 51, 85
13, 117900, Note_on_c, 12, 51, 0
13, 117960, Note_on_c, 12, 51, 90
13, 118020, Note_on_c, 12, 51, 0
13, 118080, Note_on_c, 12, 50, 95
13, 118140, Note_on_c, 12, 50, 0
13, 118200, Note_on_c, 12, 61, 89
13, 118320, Note_on_c, 12, 61, 0
13, 118320, Note_on_c, 12, 62, 84
13, 118440, Note_on_c, 12, 62, 0
13, 118440, Note_on_c, 12, 51, 77
13, 118500, Note_on_c, 12, 51, 0
13, 118560, Note_on_c, 12, 50, 94
13, 118620, Note_on_c, 12, 50, 0
13, 118680, Note_on_c, 12, 61, 94
13, 118800, Note_on_c, 12, 61, 0
13, 118800, Note_on_c, 12, 62, 90
13, 118920, Note_on_c, 12, 62, 0
13, 118920, Note_on_c, 12, 51, 84
13, 118980, Note_on_c, 12, 51, 0
13, 119040, Note_on_c, 12, 50, 95
13, 119160, Note_on_c, 12, 50, 0
13, 119520, Note_on_c, 12, 50, 99
13, 119640, Note_on_c, 12, 50, 0
13, 120000, Note_on_c, 12, 50, 99
13, 120120, Note_on_c, 12, 50, 0
13, 121920, Control_c, 12, 7, 99
13, 121920, Note_on_c, 12, 48, 59
13, 121940, Control_c, 12, 7, 100
13, 121960, Control_c, 12, 7, 101
13, 121980, Note_on_c, 12, 48, 0
13, 121980, Control_c, 12, 7, 102
13, 121995, Control_c, 12, 7, 103
13, 122015, Control_c, 12, 7, 104
13, 122035, Control_c, 12, 7, 105
13, 122055, Control_c, 12, 7, 106
13, 122070, Control_c, 12, 7, 107
13, 122090, Control_c, 12, 7, 108
13, 122100, Note_on_c, 12, 45, 64
13, 122110, Control_c, 12, 7, 109
13, 122130, Note_on_c, 12, 45, 0
13, 122130, Control_c, 12, 7, 110
13, 122145, Control_c, 12, 7, 111
13, 122160, Note_on_c, 12, 48, 46
13, 122165, Control_c, 12, 7, 112
13, 122185, Control_c, 12, 7, 113
13, 122200, Control_c, 12, 7, 114
13, 122220, Note_on_c, 12, 48, 0
13, 122220, Control_c, 12, 7, 115
13, 122240, Control_c, 12, 7, 116
13, 122260, Control_c, 12, 7, 117
13, 122275, Control_c, 12, 7, 118
13, 122295, Control_c, 12, 7, 119
13, 122315, Control_c, 12, 7, 120
13, 122335, Control_c, 12, 7, 121
13, 122340, Note_on_c, 12, 45, 72
13, 122350, Control_c, 12, 7, 122
13, 122370, Note_on_c, 12, 45, 0
13, 122370, Control_c, 12, 7, 123
13, 122390, Control_c, 12, 7, 124
13, 122400, Note_on_c, 12, 48, 65
13, 122405, Control_c, 12, 7, 125
13, 122425, Control_c, 12, 7, 124
13, 122430, Note_on_c, 12, 48, 0
13, 122445, Control_c, 12, 7, 123
13, 122460, Control_c, 12, 7, 122
13, 122460, Note_on_c, 12, 45, 80
13, 122480, Control_c, 12, 7, 121
13, 122490, Note_on_c, 12, 45, 0
13, 122500, Control_c, 12, 7, 120
13, 122515, Control_c, 12, 7, 119
13, 122520, Note_on_c, 12, 48, 62
13, 122535, Control_c, 12, 7, 118
13, 122550, Note_on_c, 12, 48, 0
13, 122550, Control_c, 12, 7, 117
13, 122570, Control_c, 12, 7, 116
13, 122580, Note_on_c, 12, 45, 76
13, 122590, Control_c, 12, 7, 115
13, 122605, Control_c, 12, 7, 114
13, 122610, Note_on_c, 12, 45, 0
13, 122625, Control_c, 12, 7, 113
13, 122640, Control_c, 12, 7, 112
13, 122640, Note_on_c, 12, 48, 58
13, 122660, Control_c, 12, 7, 111
13, 122670, Note_on_c, 12, 48, 0
13, 122680, Control_c, 12, 7, 110
13, 122695, Control_c, 12, 7, 109
13, 122700, Note_on_c, 12, 45, 68
13, 122715, Control_c, 12, 7, 108
13, 122730, Note_on_c, 12, 45, 0
13, 122735, Control_c, 12, 7, 107
13, 122750, Control_c, 12, 7, 106
13, 122760, Note_on_c, 12, 48, 64
13, 122770, Control_c, 12, 7, 105
13, 122785, Control_c, 12, 7, 104
13, 122790, Note_on_c, 12, 48, 0
13, 122805, Control_c, 12, 7, 103
13, 122820, Note_on_c, 12, 45, 52
13, 122825, Control_c, 12, 7, 102
13, 122840, Control_c, 12, 7, 101
13, 122850, Note_on_c, 12, 45, 0
13, 122860, Control_c, 12, 7, 100
13, 122875, Control_c, 12, 7, 99
13, 122880, Note_on_c, 12, 43, 66
13, 123000, Note_on_c, 12, 43, 0
13, 123840, Note_on_c, 12, 55, 67
13, 123900, Note_on_c, 12, 55, 0
13, 124020, Note_on_c, 12, 50, 73
13, 124050, Note_on_c, 12, 50, 0
13, 124080, Note_on_c, 12, 55, 45
13, 124140, Note_on_c, 12, 55, 0
13, 124260, Note_on_c, 12, 50, 73
13, 124290, Note_on_c, 12, 50, 0
13, 124320, Note_on_c, 12, 55, 71
13, 124380, Note_on_c, 12, 55, 0
13, 124800, Note_on_c, 12, 57, 73
13, 124860, Note_on_c, 12, 57, 0
13, 124980, Note_on_c, 12, 50, 65
13, 125010, Note_on_c, 12, 50, 0
13, 125040, Note_on_c, 12, 57, 68
13, 125100, Note_on_c, 12, 57, 0
13, 125220, Note_on_c, 12, 50, 68
13, 125250, Note_on_c, 12, 50, 0
13, 125280, Note_on_c, 12, 57, 71
13, 125340, Note_on_c, 12, 57, 0
13, 125760, Note_on_c, 12, 58, 65
13, 125820, Note_on_c, 12, 58, 0
13, 125940, Note_on_c, 12, 55, 64
13, 125970, Note_on_c, 12, 55, 0
13, 126000, Note_on_c, 12, 58, 60
13, 126060, Note_on_c, 12, 58, 0
13, 126180, Note_on_c, 12, 55, 61
13, 126210, Note_on_c, 12, 55, 0
13, 126240, Note_on_c, 12, 59, 57
13, 126300, Note_on_c, 12, 59, 0
13, 126720, Note_on_c, 12, 60, 54
13, 126840, Note_on_c, 12, 60, 0
13, 126960, Note_on_c, 12, 60, 62
13, 127080, Note_on_c, 12, 60, 0
13, 127200, Note_on_c, 12, 62, 58
13, 127320, Note_on_c, 12, 62, 0
13, 127440, Note_on_c, 12, 50, 65
13, 127560, Note_on_c, 12, 50, 0
13, 127680, Note_on_c, 12, 55, 57
13, 127800, Note_on_c, 12, 55, 0
13, 128640, Note_on_c, 12, 48, 50
13, 129120, Note_on_c, 12, 48, 0
13, 129120, Note_on_c, 12, 48, 50
13, 129600, Note_on_c, 12, 48, 0
13, 129600, Note_on_c, 12, 53, 67
13, 129720, Note_on_c, 12, 53, 0
13, 129780, Note_on_c, 12, 48, 54
13, 129840, Note_on_c, 12, 48, 0
13, 129840, Note_on_c, 12, 53, 53
13, 129960, Note_on_c, 12, 53, 0
13, 130020, Note_on_c, 12, 48, 65
13, 130080, Note_on_c, 12, 48, 0
13, 130080, Note_on_c, 12, 53, 52
13, 130200, Note_on_c, 12, 53, 0
13, 130560, Note_on_c, 12, 55, 64
13, 130680, Note_on_c, 12, 55, 0
13, 130740, Note_on_c, 12, 48, 60
13, 130800, Note_on_c, 12, 48, 0
13, 130800, Note_on_c, 12, 55, 62
13, 130920, Note_on_c, 12, 55, 0
13, 130980, Note_on_c, 12, 48, 58
13, 131040, Note_on_c, 12, 48, 0
13, 131040, Note_on_c, 12, 55, 68
13, 131160, Note_on_c, 12, 55, 0
13, 131520, Note_on_c, 12, 56, 44
13, 131640, Note_on_c, 12, 56, 0
13, 131700, Note_on_c, 12, 53, 65
13, 131760, Note_on_c, 12, 53, 0
13, 131760, Note_on_c, 12, 56, 58
13, 131880, Note_on_c, 12, 56, 0
13, 131940, Note_on_c, 12, 53, 68
13, 132000, Note_on_c, 12, 53, 0
13, 132000, Note_on_c, 12, 57, 81
13, 132120, Note_on_c, 12, 57, 0
13, 132480, Note_on_c, 12, 58, 59
13, 132600, Note_on_c, 12, 58, 0
13, 132720, Note_on_c, 12, 58, 57
13, 132840, Note_on_c, 12, 58, 0
13, 132960, Note_on_c, 12, 60, 71
13, 133080, Note_on_c, 12, 60, 0
13, 133200, Note_on_c, 12, 48, 74
13, 133320, Note_on_c, 12, 48, 0
13, 133440, Note_on_c, 12, 53, 64
13, 133560, Note_on_c, 12, 53, 0
13, 133620, Note_on_c, 12, 48, 73
13, 133680, Note_on_c, 12, 48, 0
13, 133680, Note_on_c, 12, 53, 70
13, 133800, Note_on_c, 12, 53, 0
13, 133860, Note_on_c, 12, 48, 84
13, 133920, Note_on_c, 12, 48, 0
13, 133920, Note_on_c, 12, 53, 69
13, 134040, Note_on_c, 12, 53, 0
13, 134400, Note_on_c, 12, 48, 68
13, 134520, Note_on_c, 12, 48, 0
13, 134580, Note_on_c, 12, 44, 77
13, 134640, Note_on_c, 12, 44, 0
13, 134640, Note_on_c, 12, 48, 67
13, 134760, Note_on_c, 12, 48, 0
13, 134820, Note_on_c, 12, 44, 71
13, 134880, Note_on_c, 12, 44, 0
13, 134880, Note_on_c, 12, 48, 59
13, 135000, Note_on_c, 12, 48, 0
13, 135360, Note_on_c, 12, 49, 71
13, 135480, Note_on_c, 12, 49, 0
13, 135540, Note_on_c, 12, 44, 76
13, 135600, Note_on_c, 12, 44, 0
13, 135600, Note_on_c, 12, 49, 68
13, 135720, Note_on_c, 12, 49, 0
13, 135780, Note_on_c, 12, 44, 78
13, 135840, Note_on_c, 12, 44, 0
13, 135840, Note_on_c, 12, 49, 62
13, 135960, Note_on_c, 12, 49, 0
13, 136320, Note_on_c, 12, 48, 68
13, 136440, Note_on_c, 12, 48, 0
13, 136500, Note_on_c, 12, 44, 77
13, 136560, Note_on_c, 12, 44, 0
13, 136560, Note_on_c, 12, 48, 67
13, 136680, Note_on_c, 12, 48, 0
13, 136740, Note_on_c, 12, 44, 71
13, 136800, Note_on_c, 12, 44, 0
13, 136800, Note_on_c, 12, 48, 59
13, 136920, Note_on_c, 12, 48, 0
13, 137280, Note_on_c, 12, 49, 71
13, 137400, Note_on_c, 12, 49, 0
13, 137700, Note_on_c, 12, 49, 62
13, 137760, Note_on_c, 12, 49, 0
13, 137760, Note_on_c, 12, 47, 68
13, 137880, Note_on_c, 12, 47, 0
13, 138180, Note_on_c, 12, 59, 72
13, 138240, Note_on_c, 12, 59, 0
13, 138240, Note_on_c, 12, 60, 71
13, 138360, Note_on_c, 12, 60, 0
13, 138660, Note_on_c, 12, 60, 71
13, 138720, Note_on_c, 12, 60, 0
13, 138720, Note_on_c, 12, 53, 61
13, 138840, Note_on_c, 12, 53, 0
13, 138900, Note_on_c, 12, 53, 61
13, 138960, Note_on_c, 12, 53, 0
13, 138960, Note_on_c, 12, 54, 71
13, 139080, Note_on_c, 12, 54, 0
13, 139140, Note_on_c, 12, 54, 62
13, 139200, Note_on_c, 12, 54, 0
13, 139200, Note_on_c, 12, 55, 76
13, 139320, Note_on_c, 12, 55, 0
13, 139920, Note_on_c, 12, 48, 72
13, 140040, Note_on_c, 12, 48, 0
13, 140100, Note_on_c, 12, 48, 80
13, 140160, Note_on_c, 12, 48, 0
13, 140160, Note_on_c, 12, 43, 58
13, 140280, Note_on_c, 12, 43, 0
13, 140880, Note_on_c, 12, 48, 65
13, 141000, Note_on_c, 12, 48, 0
13, 141060, Note_on_c, 12, 48, 70
13, 141120, Note_on_c, 12, 48, 0
13, 141120, Note_on_c, 12, 47, 63
13, 141240, Note_on_c, 12, 47, 0
13, 141360, Note_on_c, 12, 43, 66
13, 141480, Note_on_c, 12, 43, 0
13, 142020, Note_on_c, 12, 43, 72
13, 142050, Note_on_c, 12, 43, 0
13, 142080, Note_on_c, 12, 44, 66
13, 142140, Note_on_c, 12, 44, 0
13, 142320, Note_on_c, 12, 44, 65
13, 142380, Note_on_c, 12, 44, 0
13, 142980, Note_on_c, 12, 44, 53
13, 143010, Note_on_c, 12, 44, 0
13, 143040, Note_on_c, 12, 45, 69
13, 143100, Note_on_c, 12, 45, 0
13, 143280, Note_on_c, 12, 45, 80
13, 143340, Note_on_c, 12, 45, 0
13, 143940, Note_on_c, 12, 45, 77
13, 143970, Note_on_c, 12, 45, 0
13, 144000, Note_on_c, 12, 46, 62
13, 144060, Note_on_c, 12, 46, 0
13, 144240, Note_on_c, 12, 46, 66
13, 144300, Note_on_c, 12, 46, 0
13, 144900, Note_on_c, 12, 46, 73
13, 144930, Note_on_c, 12, 46, 0
13, 144960, Note_on_c, 12, 47, 72
13, 145020, Note_on_c, 12, 47, 0
13, 145200, Note_on_c, 12, 47, 74
13, 145260, Note_on_c, 12, 47, 0
13, 145860, Note_on_c, 12, 47, 73
13, 145890, Note_on_c, 12, 47, 0
13, 145920, Note_on_c, 12, 48, 78
13, 145980, Note_on_c, 12, 48, 0
13, 146340, Note_on_c, 12, 48, 73
13, 146400, Note_on_c, 12, 48, 0
13, 146400, Note_on_c, 12, 53, 57
13, 146520, Note_on_c, 12, 53, 0
13, 146820, Note_on_c, 12, 53, 57
13, 146880, Note_on_c, 12, 53, 0
13, 146880, Note_on_c, 12, 55, 61
13, 147000, Note_on_c, 12, 55, 0
13, 147300, Note_on_c, 12, 55, 64
13, 147360, Note_on_c, 12, 55, 0
13, 147360, Note_on_c, 12, 43, 81
13, 147480, Note_on_c, 12, 43, 0
13, 147780, Note_on_c, 12, 43, 65
13, 147840, Note_on_c, 12, 43, 0
13, 147840, Note_on_c, 12, 48, 101
13, 148080, Note_on_c, 12, 48, 0
13, 148080, Note_on_c, 12, 51, 99
13, 148320, Note_on_c, 12, 51, 0
13, 148320, Note_on_c, 12, 55, 115
13, 148500, Note_on_c, 12, 55, 0
13, 148500, Note_on_c, 12, 53, 90
13, 148530, Note_on_c, 12, 53, 0
13, 148560, Note_on_c, 12, 51, 95
13, 148620, Note_on_c, 12, 51, 0
13, 148680, Note_on_c, 12, 50, 99
13, 148740, Note_on_c, 12, 50, 0
13, 148800, Note_on_c, 12, 48, 95
13, 148860, Note_on_c, 12, 48, 0
13, 148980, Note_on_c, 12, 43, 90
13, 149010, Note_on_c, 12, 43, 0
13, 149040, Note_on_c, 12, 48, 99
13, 149100, Note_on_c, 12, 48, 0
13, 149220, Note_on_c, 12, 43, 99
13, 149250, Note_on_c, 12, 43, 0
13, 149280, Note_on_c, 12, 48, 104
13, 149340, Note_on_c, 12, 48, 0
13, 151680, Note_on_c, 12, 48, 59
13, 151740, Note_on_c, 12, 48, 0
13, 151860, Note_on_c, 12, 49, 46
13, 151890, Note_on_c, 12, 49, 0
13, 151920, Note_on_c, 12, 48, 45
13, 151980, Note_on_c, 12, 48, 0
13, 152100, Note_on_c, 12, 49, 43
13, 152130, Note_on_c, 12, 49, 0
13, 152160, Note_on_c, 12, 48, 43
13, 152220, Note_on_c, 12, 48, 0
13, 153600, Note_on_c, 12, 46, 45
13, 153660, Note_on_c, 12, 46, 0
13, 153780, Note_on_c, 12, 47, 61
13, 153810, Note_on_c, 12, 47, 0
13, 153840, Note_on_c, 12, 46, 50
13, 153900, Note_on_c, 12, 46, 0
13, 154020, Note_on_c, 12, 47, 60
13, 154050, Note_on_c, 12, 47, 0
13, 154080, Note_on_c, 12, 46, 65
13, 154140, Note_on_c, 12, 46, 0
13, 154560, Note_on_c, 12, 47, 44
13, 154680, Note_on_c, 12, 47, 0
13, 155040, Note_on_c, 12, 48, 44
13, 155160, Note_on_c, 12, 48, 0
13, 155520, Note_on_c, 12, 53, 53
13, 155640, Note_on_c, 12, 53, 0
13, 155760, Note_on_c, 12, 54, 56
13, 155880, Note_on_c, 12, 54, 0
13, 156000, Note_on_c, 12, 55, 61
13, 156120, Note_on_c, 12, 55, 0
13, 157920, Program_c, 12, 45
13, 157920, Note_on_c, 12, 55, 86
13, 158040, Note_on_c, 12, 55, 0
13, 158400, Note_on_c, 12, 60, 89
13, 158520, Note_on_c, 12, 60, 0
13, 158880, Note_on_c, 12, 55, 86
13, 159000, Note_on_c, 12, 55, 0
13, 159360, Note_on_c, 12, 48, 93
13, 159480, Note_on_c, 12, 48, 0
13, 159840, Note_on_c, 12, 43, 77
13, 159960, Note_on_c, 12, 43, 0
13, 160080, Note_on_c, 12, 48, 81
13, 160200, Note_on_c, 12, 48, 0
13, 160320, Note_on_c, 12, 43, 72
13, 160440, Note_on_c, 12, 43, 0
13, 160560, Note_on_c, 12, 48, 89
13, 160680, Note_on_c, 12, 48, 0
13, 160800, Note_on_c, 12, 43, 70
13, 160920, Note_on_c, 12, 43, 0
13, 162720, Program_c, 12, 48
13, 162720, Note_on_c, 12, 60, 59
13, 162840, Note_on_c, 12, 60, 0
13, 162960, Note_on_c, 12, 55, 70
13, 163080, Note_on_c, 12, 55, 0
13, 163200, Note_on_c, 12, 48, 57
13, 163320, Note_on_c, 12, 48, 0
13, 164640, Note_on_c, 12, 57, 64
13, 164760, Note_on_c, 12, 57, 0
13, 164880, Note_on_c, 12, 55, 68
13, 165000, Note_on_c, 12, 55, 0
13, 165120, Note_on_c, 12, 53, 69
13, 165240, Note_on_c, 12, 53, 0
13, 165360, Note_on_c, 12, 52, 69
13, 165480, Note_on_c, 12, 52, 0
13, 166560, Note_on_c, 12, 60, 53
13, 166680, Note_on_c, 12, 60, 0
13, 166800, Note_on_c, 12, 55, 65
13, 166920, Note_on_c, 12, 55, 0
13, 167040, Note_on_c, 12, 48, 61
13, 167160, Note_on_c, 12, 48, 0
13, 167640, Note_on_c, 12, 55, 61
13, 167760, Note_on_c, 12, 55, 0
13, 167760, Note_on_c, 12, 55, 58
13, 167880, Note_on_c, 12, 55, 0
13, 167880, Note_on_c, 12, 55, 44
13, 168000, Note_on_c, 12, 55, 0
13, 168000, Note_on_c, 12, 60, 50
13, 168120, Note_on_c, 12, 60, 0
13, 168120, Note_on_c, 12, 48, 54
13, 168240, Note_on_c, 12, 48, 0
13, 168240, Note_on_c, 12, 60, 68
13, 168360, Note_on_c, 12, 60, 0
13, 168360, Note_on_c, 12, 58, 73
13, 168480, Note_on_c, 12, 58, 0
13, 168480, Note_on_c, 12, 57, 105
13, 168720, Note_on_c, 12, 57, 0
13, 168720, Note_on_c, 12, 55, 71
13, 168840, Note_on_c, 12, 55, 0
13, 168900, Note_on_c, 12, 55, 57
13, 168960, Note_on_c, 12, 55, 0
13, 168960, Note_on_c, 12, 53, 94
13, 169200, Note_on_c, 12, 53, 0
13, 169200, Note_on_c, 12, 52, 53
13, 169320, Note_on_c, 12, 52, 0
13, 169380, Note_on_c, 12, 53, 65
13, 169440, Note_on_c, 12, 53, 0
13, 169440, Note_on_c, 12, 55, 76
13, 169560, Note_on_c, 12, 55, 0
13, 169560, Note_on_c, 12, 55, 68
13, 169680, Note_on_c, 12, 55, 0
13, 169680, Note_on_c, 12, 43, 86
13, 169800, Note_on_c, 12, 43, 0
13, 169800, Note_on_c, 12, 43, 89
13, 169920, Note_on_c, 12, 43, 0
13, 169920, Note_on_c, 12, 48, 94
13, 170040, Note_on_c, 12, 48, 0
13, 170040, Note_on_c, 12, 43, 80
13, 170160, Note_on_c, 12, 43, 0
13, 170160, Note_on_c, 12, 48, 84
13, 170280, Note_on_c, 12, 48, 0
13, 171360, Note_on_c, 12, 62, 43
13, 171480, Note_on_c, 12, 62, 0
13, 171840, Note_on_c, 12, 55, 43
13, 171960, Note_on_c, 12, 55, 0
13, 172320, Note_on_c, 12, 57, 38
13, 172440, Note_on_c, 12, 57, 0
13, 172560, Note_on_c, 12, 53, 54
13, 172680, Note_on_c, 12, 53, 0
13, 172800, Note_on_c, 12, 55, 46
13, 172920, Note_on_c, 12, 55, 0
13, 173040, Note_on_c, 12, 43, 64
13, 173160, Note_on_c, 12, 43, 0
13, 173280, Note_on_c, 12, 48, 65
13, 173400, Note_on_c, 12, 48, 0
13, 174480, Note_on_c, 12, 53, 43
13, 174600, Note_on_c, 12, 53, 0
13, 174720, Note_on_c, 12, 55, 47
13, 174840, Note_on_c, 12, 55, 0
13, 174960, Note_on_c, 12, 43, 53
13, 175080, Note_on_c, 12, 43, 0
13, 175200, Note_on_c, 12, 48, 56
13, 175320, Note_on_c, 12, 48, 0
13, 177120, Note_on_c, 12, 46, 72
13, 177600, Note_on_c, 12, 46, 0
13, 177600, Note_on_c, 12, 51, 50
13, 177720, Note_on_c, 12, 51, 0
13, 177840, Note_on_c, 12, 56, 50
13, 177960, Note_on_c, 12, 56, 0
13, 178080, Note_on_c, 12, 58, 65
13, 178200, Note_on_c, 12, 58, 0
13, 178320, Note_on_c, 12, 59, 53
13, 178440, Note_on_c, 12, 59, 0
13, 178560, Note_on_c, 12, 60, 70
13, 178680, Note_on_c, 12, 60, 0
13, 178800, Note_on_c, 12, 53, 62
13, 178920, Note_on_c, 12, 53, 0
13, 179040, Note_on_c, 12, 55, 68
13, 179160, Note_on_c, 12, 55, 0
13, 179280, Note_on_c, 12, 43, 65
13, 179400, Note_on_c, 12, 43, 0
13, 179520, Note_on_c, 12, 48, 65
13, 179640, Note_on_c, 12, 48, 0
13, 179700, Note_on_c, 12, 43, 65
13, 179730, Note_on_c, 12, 43, 0
13, 179760, Note_on_c, 12, 48, 73
13, 179820, Note_on_c, 12, 48, 0
13, 180180, Note_on_c, 12, 43, 61
13, 180210, Note_on_c, 12, 43, 0
13, 180240, Note_on_c, 12, 48, 67
13, 180300, Note_on_c, 12, 48, 0
13, 182400, Note_on_c, 12, 60, 64
13, 182520, Note_on_c, 12, 60, 0
13, 182880, Note_on_c, 12, 60, 65
13, 183000, Note_on_c, 12, 60, 0
13, 184800, Note_on_c, 12, 65, 71
13, 185280, Note_on_c, 12, 65, 0
13, 185280, Note_on_c, 12, 64, 58
13, 185400, Note_on_c, 12, 64, 0
13, 186180, Note_on_c, 12, 52, 72
13, 186210, Note_on_c, 12, 52, 0
13, 186240, Note_on_c, 12, 53, 70
13, 186300, Note_on_c, 12, 53, 0
13, 187140, Note_on_c, 12, 53, 68
13, 187170, Note_on_c, 12, 53, 0
13, 187200, Note_on_c, 12, 54, 74
13, 187260, Note_on_c, 12, 54, 0
13, 188100, Note_on_c, 12, 54, 67
13, 188130, Note_on_c, 12, 54, 0
13, 188160, Note_on_c, 12, 55, 72
13, 188220, Note_on_c, 12, 55, 0
13, 188400, Note_on_c, 12, 57, 71
13, 188520, Note_on_c, 12, 57, 0
13, 188640, Note_on_c, 12, 55, 73
13, 188760, Note_on_c, 12, 55, 0
13, 188880, Note_on_c, 12, 54, 62
13, 189000, Note_on_c, 12, 54, 0
13, 189120, Note_on_c, 12, 55, 81
13, 189240, Note_on_c, 12, 55, 0
13, 191040, Note_on_c, 12, 55, 55
13, 191160, Note_on_c, 12, 55, 0
13, 192000, Note_on_c, 12, 43, 62
13, 192120, Note_on_c, 12, 43, 0
13, 192960, Note_on_c, 12, 48, 90
13, 193090, Control_c, 12, 7, 99
13, 193095, Control_c, 12, 7, 97
13, 193100, Control_c, 12, 7, 94
13, 193105, Control_c, 12, 7, 91
13, 193110, Control_c, 12, 7, 88
13, 193115, Control_c, 12, 7, 86
13, 193120, Control_c, 12, 7, 83
13, 193125, Control_c, 12, 7, 80
13, 193130, Control_c, 12, 7, 77
13, 193135, Control_c, 12, 7, 75
13, 193140, Control_c, 12, 7, 72
13, 193145, Control_c, 12, 7, 69
13, 193150, Control_c, 12, 7, 66
13, 193155, Control_c, 12, 7, 63
13, 193200, Note_on_c, 12, 48, 0
13, 193200, Note_on_c, 12, 52, 95
13, 193440, Note_on_c, 12, 52, 0
13, 193440, Note_on_c, 12, 55, 85
13, 193620, Note_on_c, 12, 55, 0
13, 193620, Note_on_c, 12, 53, 84
13, 193650, Note_on_c, 12, 53, 0
13, 193680, Note_on_c, 12, 52, 94
13, 193740, Note_on_c, 12, 52, 0
13, 193800, Note_on_c, 12, 49, 84
13, 193860, Note_on_c, 12, 49, 0
13, 193920, Note_on_c, 12, 48, 99
13, 193980, Note_on_c, 12, 48, 0
13, 194040, Note_on_c, 12, 46, 90
13, 194100, Note_on_c, 12, 46, 0
13, 194160, Note_on_c, 12, 44, 94
13, 194220, Note_on_c, 12, 44, 0
13, 194280, Note_on_c, 12, 43, 94
13, 194340, Note_on_c, 12, 43, 0
13, 194400, Note_on_c, 12, 41, 81
13, 194520, Note_on_c, 12, 41, 0
13, 195480, Control_c, 12, 7, 64
13, 195480, Note_on_c, 12, 53, 84
13, 195495, Control_c, 12, 7, 65
13, 195505, Control_c, 12, 7, 66
13, 195515, Control_c, 12, 7, 67
13, 195525, Control_c, 12, 7, 68
13, 195535, Control_c, 12, 7, 69
13, 195545, Control_c, 12, 7, 70
13, 195555, Control_c, 12, 7, 71
13, 195565, Control_c, 12, 7, 72
13, 195575, Control_c, 12, 7, 73
13, 195585, Control_c, 12, 7, 74
13, 195595, Control_c, 12, 7, 75
13, 195600, Note_on_c, 12, 53, 0
13, 195600, Note_on_c, 12, 53, 93
13, 195605, Control_c, 12, 7, 76
13, 195615, Control_c, 12, 7, 77
13, 195625, Control_c, 12, 7, 78
13, 195635, Control_c, 12, 7, 79
13, 195645, Control_c, 12, 7, 80
13, 195655, Control_c, 12, 7, 81
13, 195670, Control_c, 12, 7, 82
13, 195680, Control_c, 12, 7, 83
13, 195690, Control_c, 12, 7, 84
13, 195700, Control_c, 12, 7, 85
13, 195710, Control_c, 12, 7, 86
13, 195720, Note_on_c, 12, 53, 0
13, 195720, Note_on_c, 12, 53, 89
13, 195720, Control_c, 12, 7, 87
13, 195730, Control_c, 12, 7, 88
13, 195740, Control_c, 12, 7, 89
13, 195750, Control_c, 12, 7, 90
13, 195760, Control_c, 12, 7, 91
13, 195770, Control_c, 12, 7, 92
13, 195780, Control_c, 12, 7, 93
13, 195790, Control_c, 12, 7, 94
13, 195800, Control_c, 12, 7, 95
13, 195810, Control_c, 12, 7, 96
13, 195820, Control_c, 12, 7, 97
13, 195830, Control_c, 12, 7, 98
13, 195840, Note_on_c, 12, 53, 0
13, 195840, Control_c, 12, 7, 99
13, 195840, Note_on_c, 12, 55, 90
13, 195960, Note_on_c, 12, 55, 0
13, 196920, Note_on_c, 12, 55, 86
13, 197040, Note_on_c, 12, 55, 0
13, 197040, Note_on_c, 12, 55, 86
13, 197160, Note_on_c, 12, 55, 0
13, 197160, Note_on_c, 12, 55, 93
13, 197280, Note_on_c, 12, 55, 0
13, 197280, Note_on_c, 12, 56, 101
13, 197730, Note_on_c, 12, 56, 0
13, 197730, Note_on_c, 12, 56, 101
13, 197760, Note_on_c, 12, 56, 0
13, 197760, Note_on_c, 12, 55, 101
13, 197970, Note_on_c, 12, 55, 0
13, 197970, Note_on_c, 12, 55, 99
13, 198000, Note_on_c, 12, 55, 0
13, 198000, Note_on_c, 12, 54, 99
13, 198210, Note_on_c, 12, 54, 0
13, 198210, Note_on_c, 12, 54, 99
13, 198240, Note_on_c, 12, 54, 0
13, 198240, Note_on_c, 12, 55, 101
13, 198450, Note_on_c, 12, 55, 0
13, 198450, Note_on_c, 12, 55, 104
13, 198480, Note_on_c, 12, 55, 0
13, 198480, Note_on_c, 12, 56, 101
13, 198690, Note_on_c, 12, 56, 0
13, 198690, Note_on_c, 12, 56, 95
13, 198720, Note_on_c, 12, 56, 0
13, 198720, Note_on_c, 12, 55, 104
13, 198930, Note_on_c, 12, 55, 0
13, 198930, Note_on_c, 12, 55, 104
13, 198960, Note_on_c, 12, 55, 0
13, 198960, Note_on_c, 12, 54, 99
13, 199170, Note_on_c, 12, 54, 0
13, 199170, Note_on_c, 12, 54, 99
13, 199200, Note_on_c, 12, 54, 0
13, 199200, Note_on_c, 12, 55, 105
13, 199440, Note_on_c, 12, 55, 0
13, 247680, Note_on_c, 12, 48, 43
13, 247800, Note_on_c, 12, 48, 0
13, 248640, Note_on_c, 12, 48, 45
13, 248760, Note_on_c, 12, 48, 0
13, 249600, Note_on_c, 12, 48, 43
13, 249720, Note_on_c, 12, 48, 0
13, 250560, Note_on_c, 12, 48, 42
13, 250680, Note_on_c, 12, 48, 0
13, 251520, Note_on_c, 12, 48, 43
13, 251640, Note_on_c, 12, 48, 0
13, 251940, Note_on_c, 12, 60, 43
13, 252000, Note_on_c, 12, 60, 0
13, 252000, Note_on_c, 12, 56, 30
13, 252120, Note_on_c, 12, 56, 0
13, 252420, Note_on_c, 12, 56, 35
13, 252480, Note_on_c, 12, 56, 0
13, 252480, Note_on_c, 12, 53, 43
13, 252600, Note_on_c, 12, 53, 0
13, 252900, Note_on_c, 12, 53, 43
13, 252960, Note_on_c, 12, 53, 0
13, 252960, Note_on_c, 12, 55, 41
13, 253080, Note_on_c, 12, 55, 0
13, 253380, Note_on_c, 12, 55, 40
13, 253440, Note_on_c, 12, 55, 0
13, 253440, Note_on_c, 12, 60, 40
13, 253560, Note_on_c, 12, 60, 0
13, 253740, Note_on_c, 12, 60, 37
13, 253800, Note_on_c, 12, 60, 0
13, 253800, Note_on_c, 12, 60, 42
13, 253860, Note_on_c, 12, 60, 0
13, 253860, Note_on_c, 12, 60, 43
13, 253920, Note_on_c, 12, 60, 0
13, 253920, Note_on_c, 12, 56, 34
13, 254040, Note_on_c, 12, 56, 0
13, 254220, Note_on_c, 12, 56, 31
13, 254280, Note_on_c, 12, 56, 0
13, 254280, Note_on_c, 12, 56, 33
13, 254340, Note_on_c, 12, 56, 0
13, 254340, Note_on_c, 12, 56, 40
13, 254400, Note_on_c, 12, 56, 0
13, 254400, Note_on_c, 12, 53, 44
13, 254520, Note_on_c, 12, 53, 0
13, 254700, Note_on_c, 12, 53, 44
13, 254760, Note_on_c, 12, 53, 0
13, 254760, Note_on_c, 12, 53, 44
13, 254820, Note_on_c, 12, 53, 0
13, 254820, Note_on_c, 12, 53, 43
13, 254880, Note_on_c, 12, 53, 0
13, 254880, Note_on_c, 12, 55, 40
13, 255000, Note_on_c, 12, 55, 0
13, 255180, Note_on_c, 12, 55, 41
13, 255240, Note_on_c, 12, 55, 0
13, 255240, Note_on_c, 12, 55, 41
13, 255300, Note_on_c, 12, 55, 0
13, 255300, Note_on_c, 12, 55, 44
13, 255360, Note_on_c, 12, 55, 0
13, 255360, Note_on_c, 12, 60, 35
13, 255480, Note_on_c, 12, 60, 0
13, 255540, Note_on_c, 12, 60, 42
13, 255600, Note_on_c, 12, 60, 0
13, 255600, Note_on_c, 12, 56, 44
13, 255720, Note_on_c, 12, 56, 0
13, 255780, Note_on_c, 12, 56, 43
13, 255840, Note_on_c, 12, 56, 0
13, 255840, Note_on_c, 12, 53, 57
13, 255960, Note_on_c, 12, 53, 0
13, 256020, Note_on_c, 12, 53, 66
13, 256080, Note_on_c, 12, 53, 0
13, 256080, Note_on_c, 12, 55, 81
13, 256200, Note_on_c, 12, 55, 0
13, 256260, Note_on_c, 12, 55, 76
13, 256320, Note_on_c, 12, 55, 0
13, 256320, Note_on_c, 12, 60, 104
13, 256350, Note_on_c, 12, 60, 0
13, 256350, Note_on_c, 12, 60, 99
13, 256380, Note_on_c, 12, 60, 0
13, 256380, Note_on_c, 12, 60, 99
13, 256410, Note_on_c, 12, 60, 0
13, 256410, Note_on_c, 12, 60, 104
13, 256440, Note_on_c, 12, 60, 0
13, 256440, Note_on_c, 12, 60, 104
13, 256470, Note_on_c, 12, 60, 0
13, 256470, Note_on_c, 12, 60, 101
13, 256500, Note_on_c, 12, 60, 0
13, 256500, Note_on_c, 12, 60, 99
13, 256530, Note_on_c, 12, 60, 0
13, 256530, Note_on_c, 12, 60, 99
13, 256560, Note_on_c, 12, 60, 0
13, 256560, Note_on_c, 12, 56, 101
13, 256590, Note_on_c, 12, 56, 0
13, 256590, Note_on_c, 12, 56, 95
13, 256620, Note_on_c, 12, 56, 0
13, 256620, Note_on_c, 12, 56, 101
13, 256650, Note_on_c, 12, 56, 0
13, 256650, Note_on_c, 12, 56, 99
13, 256680, Note_on_c, 12, 56, 0
13, 256680, Note_on_c, 12, 56, 101
13, 256710, Note_on_c, 12, 56, 0
13, 256710, Note_on_c, 12, 56, 99
13, 256740, Note_on_c, 12, 56, 0
13, 256740, Note_on_c, 12, 56, 101
13, 256770, Note_on_c, 12, 56, 0
13, 256770, Note_on_c, 12, 56, 99
13, 256800, Note_on_c, 12, 56, 0
13, 256800, Note_on_c, 12, 53, 99
13, 256830, Note_on_c, 12, 53, 0
13, 256830, Note_on_c, 12, 53, 104
13, 256860, Note_on_c, 12, 53, 0
13, 256860, Note_on_c, 12, 53, 101
13, 256890, Note_on_c, 12, 53, 0
13, 256890, Note_on_c, 12, 53, 99
13, 256920, Note_on_c, 12, 53, 0
13, 256920, Note_on_c, 12, 53, 101
13, 256950, Note_on_c, 12, 53, 0
13, 256950, Note_on_c, 12, 53, 99
13, 256980, Note_on_c, 12, 53, 0
13, 256980, Note_on_c, 12, 53, 99
13, 257010, Note_on_c, 12, 53, 0
13, 257010, Note_on_c, 12, 53, 99
13, 257040, Note_on_c, 12, 53, 0
13, 257040, Note_on_c, 12, 55, 105
13, 257070, Note_on_c, 12, 55, 0
13, 257070, Note_on_c, 12, 55, 104
13, 257100, Note_on_c, 12, 55, 0
13, 257100, Note_on_c, 12, 55, 104
13, 257130, Note_on_c, 12, 55, 0
13, 257130, Note_on_c, 12, 55, 104
13, 257160, Note_on_c, 12, 55, 0
13, 257160, Note_on_c, 12, 55, 99
13, 257190, Note_on_c, 12, 55, 0
13, 257190, Note_on_c, 12, 55, 99
13, 257220, Note_on_c, 12, 55, 0
13, 257220, Note_on_c, 12, 55, 99
13, 257250, Note_on_c, 12, 55, 0
13, 257250, Note_on_c, 12, 55, 99
13, 257280, Note_on_c, 12, 55, 0
13, 257280, Note_on_c, 12, 48, 110
13, 257400, Note_on_c, 12, 48, 0
13, 257760, Note_on_c, 12, 60, 105
13, 257880, Note_on_c, 12, 60, 0
13, 258240, Note_on_c, 12, 60, 105
13, 258360, Note_on_c, 12, 60, 0
13, 258480, Note_on_c, 12, 60, 104
13, 258600, Note_on_c, 12, 60, 0
13, 258720, Note_on_c, 12, 55, 105
13, 258840, Note_on_c, 12, 55, 0
13, 258960, Note_on_c, 12, 51, 99
13, 259080, Note_on_c, 12, 51, 0
13, 259200, Note_on_c, 12, 48, 105
13, 259320, Note_on_c, 12, 48, 0
13, 259650, Note_on_c, 12, 48, 110
13, 259680, Note_on_c, 12, 48, 0
13, 259680, Note_on_c, 12, 48, 107
13, 259800, Note_on_c, 12, 48, 0
13, 260130, Note_on_c, 12, 48, 112
13, 260160, Note_on_c, 12, 48, 0
13, 260160, Note_on_c, 12, 48, 112
13, 260640, Note_on_c, 12, 48, 0
13, 260640, End_track
14, 0, Start_track
14, 0, MIDI_port, 0
14, 0, Title_t, "Contrabasses"
14, 0, Program_c, 13, 48
14, 0, Control_c, 13, 7, 100
14, 0, Control_c, 13, 10, 118
14, 0, Control_c, 13, 93, 0
14, 0, Control_c, 13, 91, 66
14, 0, Note_on_c, 13, 36, 61
14, 240, Note_on_c, 13, 36, 0
14, 240, Note_on_c, 13, 39, 64
14, 480, Note_on_c, 13, 39, 0
14, 480, Note_on_c, 13, 43, 67
14, 660, Note_on_c, 13, 43, 0
14, 660, Note_on_c, 13, 41, 59
14, 690, Note_on_c, 13, 41, 0
14, 720, Note_on_c, 13, 39, 51
14, 780, Note_on_c, 13, 39, 0
14, 840, Note_on_c, 13, 38, 64
14, 900, Note_on_c, 13, 38, 0
14, 960, Note_on_c, 13, 36, 57
14, 1020, Note_on_c, 13, 36, 0
14, 1140, Note_on_c, 13, 31, 52
14, 1170, Note_on_c, 13, 31, 0
14, 1200, Note_on_c, 13, 36, 63
14, 1260, Note_on_c, 13, 36, 0
14, 1380, Note_on_c, 13, 31, 57
14, 1410, Note_on_c, 13, 31, 0
14, 1440, Note_on_c, 13, 36, 67
14, 1560, Note_on_c, 13, 36, 0
14, 3840, Note_on_c, 13, 36, 68
14, 4080, Note_on_c, 13, 36, 0
14, 4080, Note_on_c, 13, 39, 62
14, 4320, Note_on_c, 13, 39, 0
14, 4320, Note_on_c, 13, 44, 94
14, 4800, Note_on_c, 13, 44, 0
14, 4800, Note_on_c, 13, 41, 61
14, 5040, Note_on_c, 13, 41, 0
14, 5040, Note_on_c, 13, 44, 49
14, 5280, Note_on_c, 13, 44, 0
14, 5280, Note_on_c, 13, 49, 76
14, 5760, Note_on_c, 13, 49, 0
14, 5760, Note_on_c, 13, 47, 46
14, 6000, Note_on_c, 13, 47, 0
14, 6000, Note_on_c, 13, 50, 35
14, 6240, Note_on_c, 13, 50, 0
14, 6240, Note_on_c, 13, 55, 84
14, 6600, Note_on_c, 13, 55, 0
14, 6600, Note_on_c, 13, 53, 64
14, 6660, Note_on_c, 13, 53, 0
14, 6720, Note_on_c, 13, 51, 63
14, 6780, Note_on_c, 13, 51, 0
14, 6840, Note_on_c, 13, 53, 95
14, 6900, Note_on_c, 13, 53, 0
14, 6960, Note_on_c, 13, 55, 81
14, 7020, Note_on_c, 13, 55, 0
14, 7080, Note_on_c, 13, 43, 94
14, 7140, Note_on_c, 13, 43, 0
14, 7200, Note_on_c, 13, 48, 94
14, 7320, Note_on_c, 13, 48, 0
14, 7680, Note_on_c, 13, 43, 64
14, 8160, Note_on_c, 13, 43, 0
14, 8160, Note_on_c, 13, 48, 55
14, 8280, Note_on_c, 13, 48, 0
14, 9600, Note_on_c, 13, 34, 58
14, 10080, Note_on_c, 13, 34, 0
14, 10080, Note_on_c, 13, 39, 43
14, 10200, Note_on_c, 13, 39, 0
14, 11040, Note_on_c, 13, 39, 86
14, 11100, Note_on_c, 13, 39, 0
14, 11100, Note_on_c, 13, 39, 89
14, 11160, Note_on_c, 13, 39, 0
14, 11160, Note_on_c, 13, 39, 84
14, 11220, Note_on_c, 13, 39, 0
14, 11220, Note_on_c, 13, 39, 86
14, 11280, Note_on_c, 13, 39, 0
14, 11280, Note_on_c, 13, 39, 80
14, 11340, Note_on_c, 13, 39, 0
14, 11340, Note_on_c, 13, 39, 73
14, 11400, Note_on_c, 13, 39, 0
14, 11400, Note_on_c, 13, 39, 76
14, 11460, Note_on_c, 13, 39, 0
14, 11460, Note_on_c, 13, 39, 81
14, 11520, Note_on_c, 13, 39, 0
14, 11520, Note_on_c, 13, 39, 84
14, 11580, Note_on_c, 13, 39, 0
14, 11580, Note_on_c, 13, 39, 80
14, 11640, Note_on_c, 13, 39, 0
14, 11640, Note_on_c, 13, 39, 85
14, 11700, Note_on_c, 13, 39, 0
14, 11700, Note_on_c, 13, 39, 74
14, 11760, Note_on_c, 13, 39, 0
14, 11760, Note_on_c, 13, 39, 81
14, 11820, Note_on_c, 13, 39, 0
14, 11820, Note_on_c, 13, 39, 80
14, 11880, Note_on_c, 13, 39, 0
14, 11880, Note_on_c, 13, 39, 80
14, 11940, Note_on_c, 13, 39, 0
14, 11940, Note_on_c, 13, 39, 84
14, 12000, Note_on_c, 13, 39, 0
14, 12000, Note_on_c, 13, 39, 112
14, 12060, Note_on_c, 13, 39, 0
14, 12060, Note_on_c, 13, 39, 78
14, 12120, Note_on_c, 13, 39, 0
14, 12120, Note_on_c, 13, 39, 80
14, 12180, Note_on_c, 13, 39, 0
14, 12180, Note_on_c, 13, 39, 81
14, 12240, Note_on_c, 13, 39, 0
14, 12240, Note_on_c, 13, 39, 81
14, 12300, Note_on_c, 13, 39, 0
14, 12300, Note_on_c, 13, 39, 76
14, 12360, Note_on_c, 13, 39, 0
14, 12360, Note_on_c, 13, 39, 76
14, 12420, Note_on_c, 13, 39, 0
14, 12420, Note_on_c, 13, 39, 74
14, 12480, Note_on_c, 13, 39, 0
14, 12480, Note_on_c, 13, 39, 69
14, 12540, Note_on_c, 13, 39, 0
14, 12540, Note_on_c, 13, 39, 81
14, 12600, Note_on_c, 13, 39, 0
14, 12600, Note_on_c, 13, 39, 72
14, 12660, Note_on_c, 13, 39, 0
14, 12660, Note_on_c, 13, 39, 73
14, 12720, Note_on_c, 13, 39, 0
14, 12720, Note_on_c, 13, 39, 73
14, 12780, Note_on_c, 13, 39, 0
14, 12780, Note_on_c, 13, 39, 76
14, 12840, Note_on_c, 13, 39, 0
14, 12840, Note_on_c, 13, 39, 72
14, 12900, Note_on_c, 13, 39, 0
14, 12900, Note_on_c, 13, 39, 76
14, 12960, Note_on_c, 13, 39, 0
14, 12960, Note_on_c, 13, 39, 70
14, 13020, Note_on_c, 13, 39, 0
14, 13020, Note_on_c, 13, 39, 77
14, 13080, Note_on_c, 13, 39, 0
14, 13080, Note_on_c, 13, 39, 76
14, 13140, Note_on_c, 13, 39, 0
14, 13140, Note_on_c, 13, 39, 73
14, 13200, Note_on_c, 13, 39, 0
14, 13200, Note_on_c, 13, 39, 77
14, 13260, Note_on_c, 13, 39, 0
14, 13260, Note_on_c, 13, 39, 74
14, 13320, Note_on_c, 13, 39, 0
14, 13320, Note_on_c, 13, 39, 72
14, 13380, Note_on_c, 13, 39, 0
14, 13380, Note_on_c, 13, 39, 74
14, 13440, Note_on_c, 13, 39, 0
14, 13440, Note_on_c, 13, 39, 84
14, 13500, Note_on_c, 13, 39, 0
14, 13500, Note_on_c, 13, 39, 89
14, 13560, Note_on_c, 13, 39, 0
14, 13560, Note_on_c, 13, 39, 78
14, 13620, Note_on_c, 13, 39, 0
14, 13620, Note_on_c, 13, 39, 76
14, 13680, Note_on_c, 13, 39, 0
14, 13680, Note_on_c, 13, 39, 77
14, 13740, Note_on_c, 13, 39, 0
14, 13740, Note_on_c, 13, 39, 84
14, 13800, Note_on_c, 13, 39, 0
14, 13800, Note_on_c, 13, 39, 81
14, 13860, Note_on_c, 13, 39, 0
14, 13860, Note_on_c, 13, 39, 65
14, 13920, Note_on_c, 13, 39, 0
14, 13920, Note_on_c, 13, 38, 119
14, 13980, Note_on_c, 13, 38, 0
14, 13980, Note_on_c, 13, 38, 89
14, 14040, Note_on_c, 13, 38, 0
14, 14040, Note_on_c, 13, 38, 73
14, 14100, Note_on_c, 13, 38, 0
14, 14100, Note_on_c, 13, 38, 82
14, 14160, Note_on_c, 13, 38, 0
14, 14160, Note_on_c, 13, 38, 81
14, 14220, Note_on_c, 13, 38, 0
14, 14220, Note_on_c, 13, 38, 81
14, 14280, Note_on_c, 13, 38, 0
14, 14280, Note_on_c, 13, 38, 80
14, 14340, Note_on_c, 13, 38, 0
14, 14340, Note_on_c, 13, 38, 84
14, 14400, Note_on_c, 13, 38, 0
14, 14400, Note_on_c, 13, 38, 77
14, 14460, Note_on_c, 13, 38, 0
14, 14460, Note_on_c, 13, 38, 78
14, 14520, Note_on_c, 13, 38, 0
14, 14520, Note_on_c, 13, 38, 78
14, 14580, Note_on_c, 13, 38, 0
14, 14580, Note_on_c, 13, 38, 80
14, 14640, Note_on_c, 13, 38, 0
14, 14640, Note_on_c, 13, 38, 81
14, 14700, Note_on_c, 13, 38, 0
14, 14700, Note_on_c, 13, 38, 82
14, 14760, Note_on_c, 13, 38, 0
14, 14760, Note_on_c, 13, 38, 85
14, 14820, Note_on_c, 13, 38, 0
14, 14820, Note_on_c, 13, 38, 84
14, 14880, Note_on_c, 13, 38, 0
14, 14880, Note_on_c, 13, 37, 94
14, 15000, Note_on_c, 13, 37, 0
14, 15480, Note_on_c, 13, 37, 99
14, 15600, Note_on_c, 13, 37, 0
14, 15600, Note_on_c, 13, 37, 95
14, 15720, Note_on_c, 13, 37, 0
14, 15720, Note_on_c, 13, 37, 89
14, 15840, Note_on_c, 13, 37, 0
14, 15840, Note_on_c, 13, 36, 107
14, 15960, Note_on_c, 13, 36, 0
14, 16440, Note_on_c, 13, 35, 99
14, 16560, Note_on_c, 13, 35, 0
14, 16560, Note_on_c, 13, 35, 98
14, 16680, Note_on_c, 13, 35, 0
14, 16680, Note_on_c, 13, 35, 95
14, 16800, Note_on_c, 13, 35, 0
14, 16800, Note_on_c, 13, 34, 80
14, 16860, Note_on_c, 13, 34, 0
14, 16920, Note_on_c, 13, 34, 119
14, 17040, Note_on_c, 13, 34, 0
14, 17040, Note_on_c, 13, 36, 94
14, 17160, Note_on_c, 13, 36, 0
14, 17160, Note_on_c, 13, 38, 95
14, 17280, Note_on_c, 13, 38, 0
14, 17280, Note_on_c, 13, 39, 89
14, 17340, Note_on_c, 13, 39, 0
14, 17400, Note_on_c, 13, 39, 123
14, 17520, Note_on_c, 13, 39, 0
14, 17520, Note_on_c, 13, 41, 86
14, 17640, Note_on_c, 13, 41, 0
14, 17640, Note_on_c, 13, 42, 78
14, 17760, Note_on_c, 13, 42, 0
14, 17760, Note_on_c, 13, 41, 89
14, 17820, Note_on_c, 13, 41, 0
14, 17880, Note_on_c, 13, 41, 107
14, 18000, Note_on_c, 13, 41, 0
14, 18000, Note_on_c, 13, 46, 85
14, 18120, Note_on_c, 13, 46, 0
14, 18120, Note_on_c, 13, 44, 80
14, 18240, Note_on_c, 13, 44, 0
14, 18240, Note_on_c, 13, 44, 93
14, 18300, Note_on_c, 13, 44, 0
14, 18360, Note_on_c, 13, 42, 115
14, 18480, Note_on_c, 13, 42, 0
14, 18480, Note_on_c, 13, 41, 89
14, 18600, Note_on_c, 13, 41, 0
14, 18600, Note_on_c, 13, 39, 89
14, 18720, Note_on_c, 13, 39, 0
14, 18720, Note_on_c, 13, 38, 94
14, 18780, Note_on_c, 13, 38, 0
14, 18840, Note_on_c, 13, 34, 95
14, 18960, Note_on_c, 13, 34, 0
14, 18960, Note_on_c, 13, 36, 86
14, 19080, Note_on_c, 13, 36, 0
14, 19080, Note_on_c, 13, 38, 94
14, 19200, Note_on_c, 13, 38, 0
14, 19200, Note_on_c, 13, 39, 80
14, 19260, Note_on_c, 13, 39, 0
14, 19320, Note_on_c, 13, 39, 99
14, 19440, Note_on_c, 13, 39, 0
14, 19440, Note_on_c, 13, 41, 80
14, 19560, Note_on_c, 13, 41, 0
14, 19560, Note_on_c, 13, 42, 76
14, 19680, Note_on_c, 13, 42, 0
14, 19680, Note_on_c, 13, 41, 86
14, 19740, Note_on_c, 13, 41, 0
14, 19800, Note_on_c, 13, 41, 94
14, 19920, Note_on_c, 13, 41, 0
14, 19920, Note_on_c, 13, 46, 77
14, 20040, Note_on_c, 13, 46, 0
14, 20040, Note_on_c, 13, 44, 84
14, 20160, Note_on_c, 13, 44, 0
14, 20160, Note_on_c, 13, 44, 71
14, 20220, Note_on_c, 13, 44, 0
14, 20280, Note_on_c, 13, 42, 94
14, 20400, Note_on_c, 13, 42, 0
14, 20400, Note_on_c, 13, 41, 78
14, 20520, Note_on_c, 13, 41, 0
14, 20520, Note_on_c, 13, 39, 60
14, 20640, Note_on_c, 13, 39, 0
14, 20640, Note_on_c, 13, 34, 85
14, 20760, Note_on_c, 13, 34, 0
14, 20760, Note_on_c, 13, 46, 89
14, 21000, Note_on_c, 13, 46, 0
14, 21000, Note_on_c, 13, 45, 85
14, 21120, Note_on_c, 13, 45, 0
14, 21120, Note_on_c, 13, 46, 76
14, 21240, Note_on_c, 13, 46, 0
14, 21240, Note_on_c, 13, 34, 81
14, 21300, Note_on_c, 13, 34, 0
14, 21360, Note_on_c, 13, 35, 67
14, 21420, Note_on_c, 13, 35, 0
14, 21480, Note_on_c, 13, 35, 93
14, 21540, Note_on_c, 13, 35, 0
14, 21600, Note_on_c, 13, 34, 89
14, 21660, Note_on_c, 13, 34, 0
14, 21720, Note_on_c, 13, 45, 105
14, 21840, Note_on_c, 13, 45, 0
14, 21840, Note_on_c, 13, 46, 81
14, 21960, Note_on_c, 13, 46, 0
14, 21960, Note_on_c, 13, 35, 82
14, 22020, Note_on_c, 13, 35, 0
14, 22080, Note_on_c, 13, 34, 81
14, 22140, Note_on_c, 13, 34, 0
14, 22200, Note_on_c, 13, 45, 107
14, 22320, Note_on_c, 13, 45, 0
14, 22320, Note_on_c, 13, 46, 86
14, 22440, Note_on_c, 13, 46, 0
14, 22440, Note_on_c, 13, 35, 85
14, 22500, Note_on_c, 13, 35, 0
14, 22560, Note_on_c, 13, 34, 80
14, 22680, Note_on_c, 13, 34, 0
14, 23520, Note_on_c, 13, 51, 54
14, 23640, Note_on_c, 13, 51, 0
14, 23760, Note_on_c, 13, 46, 64
14, 23880, Note_on_c, 13, 46, 0
14, 24000, Note_on_c, 13, 39, 72
14, 24120, Note_on_c, 13, 39, 0
14, 24600, Note_on_c, 13, 46, 56
14, 24720, Note_on_c, 13, 46, 0
14, 24720, Note_on_c, 13, 46, 63
14, 24840, Note_on_c, 13, 46, 0
14, 24840, Note_on_c, 13, 46, 59
14, 24960, Note_on_c, 13, 46, 0
14, 24960, Note_on_c, 13, 51, 62
14, 25080, Note_on_c, 13, 51, 0
14, 25080, Note_on_c, 13, 39, 64
14, 25200, Note_on_c, 13, 39, 0
14, 25200, Note_on_c, 13, 51, 55
14, 25320, Note_on_c, 13, 51, 0
14, 25320, Note_on_c, 13, 49, 50
14, 25440, Note_on_c, 13, 49, 0
14, 25440, Note_on_c, 13, 48, 68
14, 25680, Note_on_c, 13, 48, 0
14, 25680, Note_on_c, 13, 46, 53
14, 25800, Note_on_c, 13, 46, 0
14, 25920, Note_on_c, 13, 44, 77
14, 26160, Note_on_c, 13, 44, 0
14, 26160, Note_on_c, 13, 43, 73
14, 26280, Note_on_c, 13, 43, 0
14, 26280, Note_on_c, 13, 36, 61
14, 26400, Note_on_c, 13, 36, 0
14, 26400, Note_on_c, 13, 41, 68
14, 26520, Note_on_c, 13, 41, 0
14, 26520, Note_on_c, 13, 34, 67
14, 26640, Note_on_c, 13, 34, 0
14, 26640, Note_on_c, 13, 39, 69
14, 26760, Note_on_c, 13, 39, 0
14, 26760, Note_on_c, 13, 32, 70
14, 26880, Note_on_c, 13, 32, 0
14, 26880, Note_on_c, 13, 34, 78
14, 27000, Note_on_c, 13, 34, 0
14, 27000, Note_on_c, 13, 46, 61
14, 27120, Note_on_c, 13, 46, 0
14, 27120, Note_on_c, 13, 34, 57
14, 27240, Note_on_c, 13, 34, 0
14, 27360, Note_on_c, 13, 39, 46
14, 27600, Note_on_c, 13, 39, 0
14, 27600, Note_on_c, 13, 35, 39
14, 27840, Note_on_c, 13, 35, 0
14, 27840, Note_on_c, 13, 36, 43
14, 28080, Note_on_c, 13, 36, 0
14, 28080, Note_on_c, 13, 43, 43
14, 28320, Note_on_c, 13, 43, 0
14, 28320, Note_on_c, 13, 44, 45
14, 28440, Note_on_c, 13, 44, 0
14, 28440, Note_on_c, 13, 32, 35
14, 28560, Note_on_c, 13, 32, 0
14, 28560, Note_on_c, 13, 44, 45
14, 28680, Note_on_c, 13, 44, 0
14, 28680, Note_on_c, 13, 44, 44
14, 28800, Note_on_c, 13, 44, 0
14, 28800, Note_on_c, 13, 43, 49
14, 28920, Note_on_c, 13, 43, 0
14, 29280, Note_on_c, 13, 48, 76
14, 29400, Note_on_c, 13, 48, 0
14, 29520, Note_on_c, 13, 43, 76
14, 29640, Note_on_c, 13, 43, 0
14, 29760, Note_on_c, 13, 36, 73
14, 29880, Note_on_c, 13, 36, 0
14, 30360, Note_on_c, 13, 43, 66
14, 30480, Note_on_c, 13, 43, 0
14, 30480, Note_on_c, 13, 43, 69
14, 30600, Note_on_c, 13, 43, 0
14, 30600, Note_on_c, 13, 43, 70
14, 30720, Note_on_c, 13, 43, 0
14, 30720, Note_on_c, 13, 48, 45
14, 30840, Note_on_c, 13, 48, 0
14, 30840, Note_on_c, 13, 36, 72
14, 30960, Note_on_c, 13, 36, 0
14, 30960, Note_on_c, 13, 48, 62
14, 31080, Note_on_c, 13, 48, 0
14, 31080, Note_on_c, 13, 46, 70
14, 31200, Note_on_c, 13, 46, 0
14, 31200, Note_on_c, 13, 45, 93
14, 31440, Note_on_c, 13, 45, 0
14, 31440, Note_on_c, 13, 43, 72
14, 31560, Note_on_c, 13, 43, 0
14, 31620, Note_on_c, 13, 43, 68
14, 31680, Note_on_c, 13, 43, 0
14, 31680, Note_on_c, 13, 41, 81
14, 31920, Note_on_c, 13, 41, 0
14, 31920, Note_on_c, 13, 40, 76
14, 32040, Note_on_c, 13, 40, 0
14, 32100, Note_on_c, 13, 41, 73
14, 32160, Note_on_c, 13, 41, 0
14, 32160, Note_on_c, 13, 43, 61
14, 32280, Note_on_c, 13, 43, 0
14, 32280, Note_on_c, 13, 43, 62
14, 32400, Note_on_c, 13, 43, 0
14, 32400, Note_on_c, 13, 31, 68
14, 32520, Note_on_c, 13, 31, 0
14, 32520, Note_on_c, 13, 31, 68
14, 32640, Note_on_c, 13, 31, 0
14, 32640, Note_on_c, 13, 36, 76
14, 32760, Note_on_c, 13, 36, 0
14, 32760, Note_on_c, 13, 36, 72
14, 32880, Note_on_c, 13, 36, 0
14, 32880, Note_on_c, 13, 48, 68
14, 33000, Note_on_c, 13, 48, 0
14, 33000, Note_on_c, 13, 46, 78
14, 33120, Note_on_c, 13, 46, 0
14, 33120, Note_on_c, 13, 44, 64
14, 33180, Note_on_c, 13, 44, 0
14, 33240, Note_on_c, 13, 32, 62
14, 33300, Note_on_c, 13, 32, 0
14, 33360, Note_on_c, 13, 31, 67
14, 33420, Note_on_c, 13, 31, 0
14, 33480, Note_on_c, 13, 43, 67
14, 33540, Note_on_c, 13, 43, 0
14, 33600, Note_on_c, 13, 41, 77
14, 33660, Note_on_c, 13, 41, 0
14, 33720, Note_on_c, 13, 53, 62
14, 33780, Note_on_c, 13, 53, 0
14, 33840, Note_on_c, 13, 39, 76
14, 33900, Note_on_c, 13, 39, 0
14, 33960, Note_on_c, 13, 51, 61
14, 34020, Note_on_c, 13, 51, 0
14, 34080, Note_on_c, 13, 38, 81
14, 34140, Note_on_c, 13, 38, 0
14, 34200, Note_on_c, 13, 50, 72
14, 34260, Note_on_c, 13, 50, 0
14, 34320, Note_on_c, 13, 31, 78
14, 34380, Note_on_c, 13, 31, 0
14, 34440, Note_on_c, 13, 43, 77
14, 34500, Note_on_c, 13, 43, 0
14, 34560, Note_on_c, 13, 44, 85
14, 34620, Note_on_c, 13, 44, 0
14, 34680, Note_on_c, 13, 41, 90
14, 34740, Note_on_c, 13, 41, 0
14, 34800, Note_on_c, 13, 43, 95
14, 34860, Note_on_c, 13, 43, 0
14, 34920, Note_on_c, 13, 31, 85
14, 34980, Note_on_c, 13, 31, 0
14, 35040, Note_on_c, 13, 36, 94
14, 35160, Control_c, 13, 7, 99
14, 35165, Control_c, 13, 7, 97
14, 35170, Control_c, 13, 7, 95
14, 35175, Control_c, 13, 7, 92
14, 35180, Control_c, 13, 7, 90
14, 35185, Control_c, 13, 7, 87
14, 35190, Control_c, 13, 7, 85
14, 35195, Control_c, 13, 7, 82
14, 35200, Control_c, 13, 7, 80
14, 35205, Control_c, 13, 7, 77
14, 35210, Control_c, 13, 7, 75
14, 35215, Control_c, 13, 7, 72
14, 35220, Control_c, 13, 7, 70
14, 35225, Control_c, 13, 7, 67
14, 35280, Note_on_c, 13, 36, 0
14, 35280, Note_on_c, 13, 40, 95
14, 35520, Note_on_c, 13, 40, 0
14, 35520, Note_on_c, 13, 43, 84
14, 35700, Note_on_c, 13, 43, 0
14, 35700, Note_on_c, 13, 41, 85
14, 35730, Note_on_c, 13, 41, 0
14, 35760, Note_on_c, 13, 40, 95
14, 35820, Note_on_c, 13, 40, 0
14, 35880, Note_on_c, 13, 37, 94
14, 35940, Note_on_c, 13, 37, 0
14, 36000, Note_on_c, 13, 36, 101
14, 36060, Note_on_c, 13, 36, 0
14, 36120, Note_on_c, 13, 34, 93
14, 36180, Note_on_c, 13, 34, 0
14, 36240, Note_on_c, 13, 32, 89
14, 36300, Note_on_c, 13, 32, 0
14, 36360, Note_on_c, 13, 31, 94
14, 36420, Note_on_c, 13, 31, 0
14, 36480, Note_on_c, 13, 29, 94
14, 36600, Note_on_c, 13, 29, 0
14, 36710, Control_c, 13, 7, 99
14, 37560, Note_on_c, 13, 41, 77
14, 37680, Note_on_c, 13, 41, 0
14, 37680, Note_on_c, 13, 41, 81
14, 37800, Note_on_c, 13, 41, 0
14, 37800, Note_on_c, 13, 41, 93
14, 37920, Note_on_c, 13, 41, 0
14, 37920, Note_on_c, 13, 43, 93
14, 38040, Note_on_c, 13, 43, 0
14, 39000, Note_on_c, 13, 43, 94
14, 39120, Note_on_c, 13, 43, 0
14, 39120, Note_on_c, 13, 43, 95
14, 39240, Note_on_c, 13, 43, 0
14, 39240, Note_on_c, 13, 43, 94
14, 39360, Note_on_c, 13, 43, 0
14, 39360, Note_on_c, 13, 44, 112
14, 39480, Note_on_c, 13, 44, 0
14, 39600, Note_on_c, 13, 41, 99
14, 39720, Note_on_c, 13, 41, 0
14, 39840, Note_on_c, 13, 43, 99
14, 39960, Note_on_c, 13, 43, 0
14, 40080, Note_on_c, 13, 31, 104
14, 40200, Note_on_c, 13, 31, 0
14, 40320, Note_on_c, 13, 36, 104
14, 40440, Note_on_c, 13, 36, 0
14, 41520, Note_on_c, 13, 41, 74
14, 41640, Note_on_c, 13, 41, 0
14, 41760, Note_on_c, 13, 43, 73
14, 41880, Note_on_c, 13, 43, 0
14, 42000, Note_on_c, 13, 31, 76
14, 42120, Note_on_c, 13, 31, 0
14, 42240, Note_on_c, 13, 36, 80
14, 42360, Note_on_c, 13, 36, 0
14, 43680, Note_on_c, 13, 41, 62
14, 43920, Note_on_c, 13, 41, 0
14, 43920, Note_on_c, 13, 39, 74
14, 44100, Note_on_c, 13, 39, 0
14, 44100, Note_on_c, 13, 38, 76
14, 44160, Note_on_c, 13, 38, 0
14, 44160, Note_on_c, 13, 38, 74
14, 44400, Note_on_c, 13, 38, 0
14, 44400, Note_on_c, 13, 36, 76
14, 44580, Note_on_c, 13, 36, 0
14, 44580, Note_on_c, 13, 35, 80
14, 44640, Note_on_c, 13, 35, 0
14, 44640, Note_on_c, 13, 35, 73
14, 44760, Note_on_c, 13, 35, 0
14, 44820, Note_on_c, 13, 35, 85
14, 44880, Note_on_c, 13, 35, 0
14, 44880, Note_on_c, 13, 38, 73
14, 44940, Note_on_c, 13, 38, 0
14, 45300, Note_on_c, 13, 46, 85
14, 45360, Note_on_c, 13, 46, 0
14, 45360, Note_on_c, 13, 49, 86
14, 45420, Note_on_c, 13, 49, 0
14, 45660, Note_on_c, 13, 45, 99
14, 45720, Note_on_c, 13, 45, 0
14, 45720, Note_on_c, 13, 48, 81
14, 45780, Note_on_c, 13, 48, 0
14, 45900, Note_on_c, 13, 44, 86
14, 45960, Note_on_c, 13, 44, 0
14, 45960, Note_on_c, 13, 48, 86
14, 46020, Note_on_c, 13, 48, 0
14, 46140, Note_on_c, 13, 45, 76
14, 46200, Note_on_c, 13, 45, 0
14, 46200, Note_on_c, 13, 48, 50
14, 46260, Note_on_c, 13, 48, 0
14, 46380, Note_on_c, 13, 31, 68
14, 46440, Note_on_c, 13, 31, 0
14, 46440, Note_on_c, 13, 43, 53
14, 46500, Note_on_c, 13, 43, 0
14, 46560, Note_on_c, 13, 36, 65
14, 46680, Note_on_c, 13, 36, 0
14, 47040, Note_on_c, 13, 43, 65
14, 47160, Note_on_c, 13, 43, 0
14, 47520, Note_on_c, 13, 48, 43
14, 47640, Note_on_c, 13, 48, 0
14, 47760, Note_on_c, 13, 45, 38
14, 47880, Note_on_c, 13, 45, 0
14, 48000, Note_on_c, 13, 41, 41
14, 48120, Note_on_c, 13, 41, 0
14, 48240, Note_on_c, 13, 43, 44
14, 48360, Note_on_c, 13, 43, 0
14, 48480, Note_on_c, 13, 36, 45
14, 48540, Note_on_c, 13, 36, 0
14, 48540, Note_on_c, 13, 36, 61
14, 48600, Note_on_c, 13, 36, 0
14, 48600, Note_on_c, 13, 48, 43
14, 48660, Note_on_c, 13, 48, 0
14, 48660, Note_on_c, 13, 48, 64
14, 48720, Note_on_c, 13, 48, 0
14, 48720, Note_on_c, 13, 44, 72
14, 48780, Note_on_c, 13, 44, 0
14, 48780, Note_on_c, 13, 44, 84
14, 48840, Note_on_c, 13, 44, 0
14, 48840, Note_on_c, 13, 42, 81
14, 48900, Note_on_c, 13, 42, 0
14, 48900, Note_on_c, 13, 42, 89
14, 48960, Note_on_c, 13, 42, 0
14, 48960, Note_on_c, 13, 43, 90
14, 49020, Note_on_c, 13, 43, 0
14, 49020, Note_on_c, 13, 43, 90
14, 49080, Note_on_c, 13, 43, 0
14, 49080, Note_on_c, 13, 43, 94
14, 49140, Note_on_c, 13, 43, 0
14, 49140, Note_on_c, 13, 43, 94
14, 49200, Note_on_c, 13, 43, 0
14, 49200, Note_on_c, 13, 31, 84
14, 49260, Note_on_c, 13, 31, 0
14, 49260, Note_on_c, 13, 31, 89
14, 49320, Note_on_c, 13, 31, 0
14, 49320, Note_on_c, 13, 31, 93
14, 49380, Note_on_c, 13, 31, 0
14, 49380, Note_on_c, 13, 31, 95
14, 49440, Note_on_c, 13, 31, 0
14, 49440, Note_on_c, 13, 36, 105
14, 49560, Note_on_c, 13, 36, 0
14, 49920, Note_on_c, 13, 36, 98
14, 50160, Note_on_c, 13, 36, 0
14, 50160, Note_on_c, 13, 39, 94
14, 50400, Note_on_c, 13, 39, 0
14, 50400, Note_on_c, 13, 43, 80
14, 50580, Note_on_c, 13, 43, 0
14, 50580, Note_on_c, 13, 41, 82
14, 50610, Note_on_c, 13, 41, 0
14, 50640, Note_on_c, 13, 39, 84
14, 50700, Note_on_c, 13, 39, 0
14, 50760, Note_on_c, 13, 38, 90
14, 50820, Note_on_c, 13, 38, 0
14, 50880, Note_on_c, 13, 36, 89
14, 51000, Note_on_c, 13, 36, 0
14, 51060, Note_on_c, 13, 31, 90
14, 51090, Note_on_c, 13, 31, 0
14, 51120, Note_on_c, 13, 36, 81
14, 51180, Note_on_c, 13, 36, 0
14, 51300, Note_on_c, 13, 31, 86
14, 51330, Note_on_c, 13, 31, 0
14, 51360, Note_on_c, 13, 36, 84
14, 51420, Note_on_c, 13, 36, 0
14, 51780, Note_on_c, 13, 43, 89
14, 51810, Note_on_c, 13, 43, 0
14, 51840, Note_on_c, 13, 48, 78
14, 51900, Note_on_c, 13, 48, 0
14, 52320, Note_on_c, 13, 36, 99
14, 52380, Note_on_c, 13, 36, 0
14, 52560, Note_on_c, 13, 36, 104
14, 52620, Note_on_c, 13, 36, 0
14, 52800, Note_on_c, 13, 36, 105
14, 53040, Note_on_c, 13, 36, 0
14, 58080, Note_on_c, 13, 36, 62
14, 58320, Note_on_c, 13, 36, 0
14, 58320, Note_on_c, 13, 39, 68
14, 58560, Note_on_c, 13, 39, 0
14, 58560, Note_on_c, 13, 44, 65
14, 59040, Note_on_c, 13, 44, 0
14, 59040, Note_on_c, 13, 41, 64
14, 59280, Note_on_c, 13, 41, 0
14, 59280, Note_on_c, 13, 44, 64
14, 59520, Note_on_c, 13, 44, 0
14, 59520, Note_on_c, 13, 49, 66
14, 60000, Note_on_c, 13, 49, 0
14, 60000, Note_on_c, 13, 47, 68
14, 60240, Note_on_c, 13, 47, 0
14, 60240, Note_on_c, 13, 50, 65
14, 60480, Note_on_c, 13, 50, 0
14, 60480, Note_on_c, 13, 43, 64
14, 60840, Note_on_c, 13, 43, 0
14, 60840, Note_on_c, 13, 41, 61
14, 60960, Note_on_c, 13, 41, 0
14, 60960, Note_on_c, 13, 39, 57
14, 61080, Note_on_c, 13, 39, 0
14, 61200, Note_on_c, 13, 41, 70
14, 61320, Note_on_c, 13, 41, 0
14, 61440, Note_on_c, 13, 43, 60
14, 61560, Note_on_c, 13, 43, 0
14, 61680, Note_on_c, 13, 31, 68
14, 61800, Note_on_c, 13, 31, 0
14, 61920, Note_on_c, 13, 36, 72
14, 62040, Note_on_c, 13, 36, 0
14, 62400, Note_on_c, 13, 43, 59
14, 62880, Note_on_c, 13, 43, 0
14, 62880, Note_on_c, 13, 48, 62
14, 63000, Note_on_c, 13, 48, 0
14, 64320, Note_on_c, 13, 34, 72
14, 64800, Note_on_c, 13, 34, 0
14, 64800, Note_on_c, 13, 39, 56
14, 64920, Note_on_c, 13, 39, 0
14, 65760, Note_on_c, 13, 39, 94
14, 65820, Note_on_c, 13, 39, 0
14, 65820, Note_on_c, 13, 39, 99
14, 65880, Note_on_c, 13, 39, 0
14, 65880, Note_on_c, 13, 39, 95
14, 65940, Note_on_c, 13, 39, 0
14, 65940, Note_on_c, 13, 39, 94
14, 66000, Note_on_c, 13, 39, 0
14, 66000, Note_on_c, 13, 39, 98
14, 66060, Note_on_c, 13, 39, 0
14, 66060, Note_on_c, 13, 39, 93
14, 66120, Note_on_c, 13, 39, 0
14, 66120, Note_on_c, 13, 39, 95
14, 66180, Note_on_c, 13, 39, 0
14, 66180, Note_on_c, 13, 39, 95
14, 66240, Note_on_c, 13, 39, 0
14, 66240, Note_on_c, 13, 39, 89
14, 66300, Note_on_c, 13, 39, 0
14, 66300, Note_on_c, 13, 39, 94
14, 66360, Note_on_c, 13, 39, 0
14, 66360, Note_on_c, 13, 39, 90
14, 66420, Note_on_c, 13, 39, 0
14, 66420, Note_on_c, 13, 39, 98
14, 66480, Note_on_c, 13, 39, 0
14, 66480, Note_on_c, 13, 39, 95
14, 66540, Note_on_c, 13, 39, 0
14, 66540, Note_on_c, 13, 39, 94
14, 66600, Note_on_c, 13, 39, 0
14, 66600, Note_on_c, 13, 39, 94
14, 66660, Note_on_c, 13, 39, 0
14, 66660, Note_on_c, 13, 39, 90
14, 66720, Note_on_c, 13, 39, 0
14, 66720, Note_on_c, 13, 39, 95
14, 66840, Note_on_c, 13, 39, 0
14, 67680, Note_on_c, 13, 36, 95
14, 67740, Note_on_c, 13, 36, 0
14, 67740, Note_on_c, 13, 48, 84
14, 67800, Note_on_c, 13, 48, 0
14, 67800, Note_on_c, 13, 48, 84
14, 67860, Note_on_c, 13, 48, 0
14, 67860, Note_on_c, 13, 48, 84
14, 67920, Note_on_c, 13, 48, 0
14, 67920, Note_on_c, 13, 48, 89
14, 67980, Note_on_c, 13, 48, 0
14, 67980, Note_on_c, 13, 48, 86
14, 68040, Note_on_c, 13, 48, 0
14, 68040, Note_on_c, 13, 48, 89
14, 68100, Note_on_c, 13, 48, 0
14, 68100, Note_on_c, 13, 48, 93
14, 68160, Note_on_c, 13, 48, 0
14, 68160, Note_on_c, 13, 48, 93
14, 68220, Note_on_c, 13, 48, 0
14, 68220, Note_on_c, 13, 48, 89
14, 68280, Note_on_c, 13, 48, 0
14, 68280, Note_on_c, 13, 48, 89
14, 68340, Note_on_c, 13, 48, 0
14, 68340, Note_on_c, 13, 48, 93
14, 68400, Note_on_c, 13, 48, 0
14, 68400, Note_on_c, 13, 48, 89
14, 68460, Note_on_c, 13, 48, 0
14, 68460, Note_on_c, 13, 48, 89
14, 68520, Note_on_c, 13, 48, 0
14, 68520, Note_on_c, 13, 48, 86
14, 68580, Note_on_c, 13, 48, 0
14, 68580, Note_on_c, 13, 48, 95
14, 68640, Note_on_c, 13, 48, 0
14, 68640, Note_on_c, 13, 47, 85
14, 68760, Note_on_c, 13, 47, 0
14, 69600, Note_on_c, 13, 34, 67
14, 69720, Note_on_c, 13, 34, 0
14, 69840, Note_on_c, 13, 38, 72
14, 69960, Note_on_c, 13, 38, 0
14, 70080, Note_on_c, 13, 39, 62
14, 70200, Note_on_c, 13, 39, 0
14, 70320, Note_on_c, 13, 42, 56
14, 70440, Note_on_c, 13, 42, 0
14, 70560, Note_on_c, 13, 41, 65
14, 70680, Note_on_c, 13, 41, 0
14, 70800, Note_on_c, 13, 44, 54
14, 70920, Note_on_c, 13, 44, 0
14, 71040, Note_on_c, 13, 42, 68
14, 71160, Note_on_c, 13, 42, 0
14, 71280, Note_on_c, 13, 39, 61
14, 71400, Note_on_c, 13, 39, 0
14, 71520, Note_on_c, 13, 34, 69
14, 71640, Note_on_c, 13, 34, 0
14, 71760, Note_on_c, 13, 38, 64
14, 71880, Note_on_c, 13, 38, 0
14, 72000, Note_on_c, 13, 39, 68
14, 72120, Note_on_c, 13, 39, 0
14, 72240, Note_on_c, 13, 42, 62
14, 72360, Note_on_c, 13, 42, 0
14, 72480, Note_on_c, 13, 41, 58
14, 72600, Note_on_c, 13, 41, 0
14, 72720, Note_on_c, 13, 44, 62
14, 72840, Note_on_c, 13, 44, 0
14, 72960, Note_on_c, 13, 42, 68
14, 73080, Note_on_c, 13, 42, 0
14, 73200, Note_on_c, 13, 39, 62
14, 73320, Note_on_c, 13, 39, 0
14, 73440, Note_on_c, 13, 34, 69
14, 73560, Note_on_c, 13, 34, 0
14, 73920, Note_on_c, 13, 46, 64
14, 74040, Note_on_c, 13, 46, 0
14, 74400, Note_on_c, 13, 46, 65
14, 74520, Note_on_c, 13, 46, 0
14, 74640, Note_on_c, 13, 46, 49
14, 74760, Note_on_c, 13, 46, 0
14, 74880, Note_on_c, 13, 46, 59
14, 75000, Note_on_c, 13, 46, 0
14, 75120, Note_on_c, 13, 46, 50
14, 75240, Note_on_c, 13, 46, 0
14, 75360, Note_on_c, 13, 34, 58
14, 75420, Note_on_c, 13, 34, 0
14, 75480, Note_on_c, 13, 34, 57
14, 75540, Note_on_c, 13, 34, 0
14, 78240, Note_on_c, 13, 51, 65
14, 78360, Note_on_c, 13, 51, 0
14, 78480, Note_on_c, 13, 46, 72
14, 78600, Note_on_c, 13, 46, 0
14, 78720, Note_on_c, 13, 39, 57
14, 78840, Note_on_c, 13, 39, 0
14, 80160, Note_on_c, 13, 48, 69
14, 80280, Note_on_c, 13, 48, 0
14, 80400, Note_on_c, 13, 46, 71
14, 80520, Note_on_c, 13, 46, 0
14, 80640, Note_on_c, 13, 44, 74
14, 80760, Note_on_c, 13, 44, 0
14, 80880, Note_on_c, 13, 43, 64
14, 81000, Note_on_c, 13, 43, 0
14, 82080, Note_on_c, 13, 51, 70
14, 82200, Note_on_c, 13, 51, 0
14, 82320, Note_on_c, 13, 46, 70
14, 82440, Note_on_c, 13, 46, 0
14, 82560, Note_on_c, 13, 39, 70
14, 82680, Note_on_c, 13, 39, 0
14, 83160, Note_on_c, 13, 46, 54
14, 83280, Note_on_c, 13, 46, 0
14, 83280, Note_on_c, 13, 46, 62
14, 83400, Note_on_c, 13, 46, 0
14, 83400, Note_on_c, 13, 46, 68
14, 83520, Note_on_c, 13, 46, 0
14, 83520, Note_on_c, 13, 51, 57
14, 83640, Note_on_c, 13, 51, 0
14, 83640, Note_on_c, 13, 39, 61
14, 83760, Note_on_c, 13, 39, 0
14, 83760, Note_on_c, 13, 51, 64
14, 83880, Note_on_c, 13, 51, 0
14, 83880, Note_on_c, 13, 49, 72
14, 84000, Note_on_c, 13, 49, 0
14, 84000, Note_on_c, 13, 48, 115
14, 84240, Note_on_c, 13, 48, 0
14, 84240, Note_on_c, 13, 46, 78
14, 84360, Note_on_c, 13, 46, 0
14, 84420, Note_on_c, 13, 46, 71
14, 84480, Note_on_c, 13, 46, 0
14, 84480, Note_on_c, 13, 44, 105
14, 84720, Note_on_c, 13, 44, 0
14, 84720, Note_on_c, 13, 43, 82
14, 84840, Note_on_c, 13, 43, 0
14, 84900, Note_on_c, 13, 44, 73
14, 84960, Note_on_c, 13, 44, 0
14, 84960, Note_on_c, 13, 46, 80
14, 85080, Note_on_c, 13, 46, 0
14, 85080, Note_on_c, 13, 34, 89
14, 85200, Note_on_c, 13, 34, 0
14, 85200, Note_on_c, 13, 34, 86
14, 85320, Note_on_c, 13, 34, 0
14, 85320, Note_on_c, 13, 34, 85
14, 85440, Note_on_c, 13, 34, 0
14, 85440, Note_on_c, 13, 39, 77
14, 85560, Note_on_c, 13, 39, 0
14, 85560, Note_on_c, 13, 34, 84
14, 85680, Note_on_c, 13, 34, 0
14, 85680, Note_on_c, 13, 39, 84
14, 85800, Note_on_c, 13, 39, 0
14, 86880, Note_on_c, 13, 41, 45
14, 87000, Note_on_c, 13, 41, 0
14, 87360, Note_on_c, 13, 34, 62
14, 87480, Note_on_c, 13, 34, 0
14, 87840, Note_on_c, 13, 36, 58
14, 87960, Note_on_c, 13, 36, 0
14, 88080, Note_on_c, 13, 44, 39
14, 88200, Note_on_c, 13, 44, 0
14, 88320, Note_on_c, 13, 46, 41
14, 88440, Note_on_c, 13, 46, 0
14, 88560, Note_on_c, 13, 34, 45
14, 88680, Note_on_c, 13, 34, 0
14, 88800, Note_on_c, 13, 39, 50
14, 88920, Note_on_c, 13, 39, 0
14, 90000, Note_on_c, 13, 44, 65
14, 90120, Note_on_c, 13, 44, 0
14, 90240, Note_on_c, 13, 46, 53
14, 90360, Note_on_c, 13, 46, 0
14, 90480, Note_on_c, 13, 34, 74
14, 90600, Note_on_c, 13, 34, 0
14, 90720, Note_on_c, 13, 39, 61
14, 90840, Note_on_c, 13, 39, 0
14, 92640, Note_on_c, 13, 37, 71
14, 93120, Note_on_c, 13, 37, 0
14, 93120, Note_on_c, 13, 42, 67
14, 93240, Note_on_c, 13, 42, 0
14, 93360, Note_on_c, 13, 35, 70
14, 93480, Note_on_c, 13, 35, 0
14, 93600, Note_on_c, 13, 37, 69
14, 93720, Note_on_c, 13, 37, 0
14, 93840, Note_on_c, 13, 38, 65
14, 93960, Note_on_c, 13, 38, 0
14, 94080, Note_on_c, 13, 39, 64
14, 94200, Note_on_c, 13, 39, 0
14, 94320, Note_on_c, 13, 32, 70
14, 94440, Note_on_c, 13, 32, 0
14, 94560, Note_on_c, 13, 34, 66
14, 94680, Note_on_c, 13, 34, 0
14, 94800, Note_on_c, 13, 34, 72
14, 94920, Note_on_c, 13, 34, 0
14, 95040, Note_on_c, 13, 39, 62
14, 95160, Note_on_c, 13, 39, 0
14, 95220, Note_on_c, 13, 34, 71
14, 95250, Note_on_c, 13, 34, 0
14, 95280, Note_on_c, 13, 39, 71
14, 95340, Note_on_c, 13, 39, 0
14, 95700, Note_on_c, 13, 34, 68
14, 95730, Note_on_c, 13, 34, 0
14, 95760, Note_on_c, 13, 39, 57
14, 95820, Note_on_c, 13, 39, 0
14, 97920, Note_on_c, 13, 39, 71
14, 98040, Note_on_c, 13, 39, 0
14, 98400, Note_on_c, 13, 39, 69
14, 98520, Note_on_c, 13, 39, 0
14, 100320, Note_on_c, 13, 44, 81
14, 100800, Note_on_c, 13, 44, 0
14, 100800, Note_on_c, 13, 43, 69
14, 100920, Note_on_c, 13, 43, 0
14, 101700, Note_on_c, 13, 43, 89
14, 101730, Note_on_c, 13, 43, 0
14, 101760, Note_on_c, 13, 44, 78
14, 101820, Note_on_c, 13, 44, 0
14, 102660, Note_on_c, 13, 44, 86
14, 102690, Note_on_c, 13, 44, 0
14, 102720, Note_on_c, 13, 45, 84
14, 102780, Note_on_c, 13, 45, 0
14, 103620, Note_on_c, 13, 45, 89
14, 103650, Note_on_c, 13, 45, 0
14, 103680, Note_on_c, 13, 46, 78
14, 103740, Note_on_c, 13, 46, 0
14, 103920, Note_on_c, 13, 48, 81
14, 104040, Note_on_c, 13, 48, 0
14, 104160, Note_on_c, 13, 46, 73
14, 104280, Note_on_c, 13, 46, 0
14, 104400, Note_on_c, 13, 45, 80
14, 104520, Note_on_c, 13, 45, 0
14, 104640, Note_on_c, 13, 46, 72
14, 104760, Note_on_c, 13, 46, 0
14, 106560, Note_on_c, 13, 46, 65
14, 106680, Note_on_c, 13, 46, 0
14, 107520, Note_on_c, 13, 34, 76
14, 107640, Note_on_c, 13, 34, 0
14, 108480, Note_on_c, 13, 39, 99
14, 108540, Note_on_c, 13, 39, 0
14, 108540, Note_on_c, 13, 39, 90
14, 108600, Note_on_c, 13, 39, 0
14, 108600, Note_on_c, 13, 39, 89
14, 108660, Note_on_c, 13, 39, 0
14, 108660, Note_on_c, 13, 39, 93
14, 108720, Note_on_c, 13, 39, 0
14, 108720, Note_on_c, 13, 39, 93
14, 108780, Note_on_c, 13, 39, 0
14, 108780, Note_on_c, 13, 39, 94
14, 108840, Note_on_c, 13, 39, 0
14, 108840, Note_on_c, 13, 39, 94
14, 108900, Note_on_c, 13, 39, 0
14, 108900, Note_on_c, 13, 39, 93
14, 108960, Note_on_c, 13, 39, 0
14, 108960, Note_on_c, 13, 39, 90
14, 109020, Note_on_c, 13, 39, 0
14, 109020, Note_on_c, 13, 39, 89
14, 109080, Note_on_c, 13, 39, 0
14, 109080, Note_on_c, 13, 39, 89
14, 109140, Note_on_c, 13, 39, 0
14, 109140, Note_on_c, 13, 39, 94
14, 109200, Note_on_c, 13, 39, 0
14, 109200, Note_on_c, 13, 39, 86
14, 109260, Note_on_c, 13, 39, 0
14, 109260, Note_on_c, 13, 39, 93
14, 109320, Note_on_c, 13, 39, 0
14, 109320, Note_on_c, 13, 39, 85
14, 109380, Note_on_c, 13, 39, 0
14, 109380, Note_on_c, 13, 39, 89
14, 109440, Note_on_c, 13, 39, 0
14, 109440, Note_on_c, 13, 39, 86
14, 109500, Note_on_c, 13, 39, 0
14, 109500, Note_on_c, 13, 39, 90
14, 109560, Note_on_c, 13, 39, 0
14, 109560, Note_on_c, 13, 39, 89
14, 109620, Note_on_c, 13, 39, 0
14, 109620, Note_on_c, 13, 39, 94
14, 109680, Note_on_c, 13, 39, 0
14, 109680, Note_on_c, 13, 48, 74
14, 109740, Note_on_c, 13, 48, 0
14, 109740, Note_on_c, 13, 48, 84
14, 109800, Note_on_c, 13, 48, 0
14, 109800, Note_on_c, 13, 48, 89
14, 109860, Note_on_c, 13, 48, 0
14, 109860, Note_on_c, 13, 48, 94
14, 109920, Note_on_c, 13, 48, 0
14, 109920, Note_on_c, 13, 44, 93
14, 109980, Note_on_c, 13, 44, 0
14, 109980, Note_on_c, 13, 44, 89
14, 110040, Note_on_c, 13, 44, 0
14, 110040, Note_on_c, 13, 44, 86
14, 110100, Note_on_c, 13, 44, 0
14, 110100, Note_on_c, 13, 44, 86
14, 110160, Note_on_c, 13, 44, 0
14, 110160, Note_on_c, 13, 46, 89
14, 110220, Note_on_c, 13, 46, 0
14, 110220, Note_on_c, 13, 46, 86
14, 110280, Note_on_c, 13, 46, 0
14, 110280, Note_on_c, 13, 46, 84
14, 110340, Note_on_c, 13, 46, 0
14, 110340, Note_on_c, 13, 46, 86
14, 110400, Note_on_c, 13, 46, 0
14, 110400, Note_on_c, 13, 39, 89
14, 110520, Note_on_c, 13, 39, 0
14, 110520, Note_on_c, 13, 51, 82
14, 110640, Note_on_c, 13, 51, 0
14, 110760, Note_on_c, 13, 48, 89
14, 110880, Note_on_c, 13, 48, 0
14, 111000, Note_on_c, 13, 45, 95
14, 111120, Note_on_c, 13, 45, 0
14, 111240, Note_on_c, 13, 47, 90
14, 111360, Note_on_c, 13, 47, 0
14, 111480, Note_on_c, 13, 48, 78
14, 111600, Note_on_c, 13, 48, 0
14, 111720, Note_on_c, 13, 44, 82
14, 111840, Note_on_c, 13, 44, 0
14, 111960, Note_on_c, 13, 42, 84
14, 112080, Note_on_c, 13, 42, 0
14, 112200, Note_on_c, 13, 43, 89
14, 112320, Note_on_c, 13, 43, 0
14, 112320, Note_on_c, 13, 36, 94
14, 112440, Note_on_c, 13, 36, 0
14, 112440, Note_on_c, 13, 48, 78
14, 112560, Note_on_c, 13, 48, 0
14, 112680, Note_on_c, 13, 49, 81
14, 112800, Note_on_c, 13, 49, 0
14, 112920, Note_on_c, 13, 50, 89
14, 113040, Note_on_c, 13, 50, 0
14, 113040, Note_on_c, 13, 51, 84
14, 113160, Note_on_c, 13, 51, 0
14, 113160, Note_on_c, 13, 39, 93
14, 113280, Note_on_c, 13, 39, 0
14, 113280, Note_on_c, 13, 38, 94
14, 113340, Note_on_c, 13, 38, 0
14, 113400, Note_on_c, 13, 38, 101
14, 113520, Note_on_c, 13, 38, 0
14, 113520, Note_on_c, 13, 40, 99
14, 113640, Note_on_c, 13, 40, 0
14, 113640, Note_on_c, 13, 42, 85
14, 113760, Note_on_c, 13, 42, 0
14, 113760, Note_on_c, 13, 43, 94
14, 113820, Note_on_c, 13, 43, 0
14, 113880, Note_on_c, 13, 43, 99
14, 114000, Note_on_c, 13, 43, 0
14, 114000, Note_on_c, 13, 45, 94
14, 114120, Note_on_c, 13, 45, 0
14, 114120, Note_on_c, 13, 46, 84
14, 114240, Note_on_c, 13, 46, 0
14, 114240, Note_on_c, 13, 45, 101
14, 114300, Note_on_c, 13, 45, 0
14, 114360, Note_on_c, 13, 45, 110
14, 114480, Note_on_c, 13, 45, 0
14, 114480, Note_on_c, 13, 50, 86
14, 114600, Note_on_c, 13, 50, 0
14, 114600, Note_on_c, 13, 48, 89
14, 114720, Note_on_c, 13, 48, 0
14, 114720, Note_on_c, 13, 48, 81
14, 114840, Note_on_c, 13, 48, 0
14, 114840, Note_on_c, 13, 46, 98
14, 114960, Note_on_c, 13, 46, 0
14, 114960, Note_on_c, 13, 45, 104
14, 115080, Note_on_c, 13, 45, 0
14, 115080, Note_on_c, 13, 43, 84
14, 115200, Note_on_c, 13, 43, 0
14, 115200, Note_on_c, 13, 42, 77
14, 115260, Note_on_c, 13, 42, 0
14, 115320, Note_on_c, 13, 38, 105
14, 115440, Note_on_c, 13, 38, 0
14, 115440, Note_on_c, 13, 40, 95
14, 115560, Note_on_c, 13, 40, 0
14, 115560, Note_on_c, 13, 42, 86
14, 115680, Note_on_c, 13, 42, 0
14, 115680, Note_on_c, 13, 43, 86
14, 115740, Note_on_c, 13, 43, 0
14, 115800, Note_on_c, 13, 43, 99
14, 115920, Note_on_c, 13, 43, 0
14, 115920, Note_on_c, 13, 45, 94
14, 116040, Note_on_c, 13, 45, 0
14, 116040, Note_on_c, 13, 46, 86
14, 116160, Note_on_c, 13, 46, 0
14, 116160, Note_on_c, 13, 45, 99
14, 116220, Note_on_c, 13, 45, 0
14, 116280, Note_on_c, 13, 45, 112
14, 116400, Note_on_c, 13, 45, 0
14, 116400, Note_on_c, 13, 50, 77
14, 116520, Note_on_c, 13, 50, 0
14, 116520, Note_on_c, 13, 48, 89
14, 116640, Note_on_c, 13, 48, 0
14, 116640, Note_on_c, 13, 48, 82
14, 116760, Note_on_c, 13, 48, 0
14, 116760, Note_on_c, 13, 46, 90
14, 116880, Note_on_c, 13, 46, 0
14, 116880, Note_on_c, 13, 45, 95
14, 117000, Note_on_c, 13, 45, 0
14, 117000, Note_on_c, 13, 43, 86
14, 117120, Note_on_c, 13, 43, 0
14, 117120, Note_on_c, 13, 38, 95
14, 117240, Note_on_c, 13, 38, 0
14, 117240, Note_on_c, 13, 50, 90
14, 117480, Note_on_c, 13, 50, 0
14, 117480, Note_on_c, 13, 49, 76
14, 117600, Note_on_c, 13, 49, 0
14, 117600, Note_on_c, 13, 50, 80
14, 117720, Note_on_c, 13, 50, 0
14, 117720, Note_on_c, 13, 38, 90
14, 117780, Note_on_c, 13, 38, 0
14, 117840, Note_on_c, 13, 39, 85
14, 117900, Note_on_c, 13, 39, 0
14, 117960, Note_on_c, 13, 39, 90
14, 118020, Note_on_c, 13, 39, 0
14, 118080, Note_on_c, 13, 38, 95
14, 118140, Note_on_c, 13, 38, 0
14, 118200, Note_on_c, 13, 49, 89
14, 118320, Note_on_c, 13, 49, 0
14, 118320, Note_on_c, 13, 50, 84
14, 118440, Note_on_c, 13, 50, 0
14, 118440, Note_on_c, 13, 39, 77
14, 118500, Note_on_c, 13, 39, 0
14, 118560, Note_on_c, 13, 38, 94
14, 118620, Note_on_c, 13, 38, 0
14, 118680, Note_on_c, 13, 49, 94
14, 118800, Note_on_c, 13, 49, 0
14, 118800, Note_on_c, 13, 50, 90
14, 118920, Note_on_c, 13, 50, 0
14, 118920, Note_on_c, 13, 39, 84
14, 118980, Note_on_c, 13, 39, 0
14, 119040, Note_on_c, 13, 38, 95
14, 119160, Note_on_c, 13, 38, 0
14, 119520, Note_on_c, 13, 38, 99
14, 119640, Note_on_c, 13, 38, 0
14, 120000, Note_on_c, 13, 38, 99
14, 120120, Note_on_c, 13, 38, 0
14, 121920, Control_c, 13, 7, 99
14, 121920, Note_on_c, 13, 36, 59
14, 121940, Control_c, 13, 7, 100
14, 121955, Control_c, 13, 7, 101
14, 121975, Control_c, 13, 7, 102
14, 121980, Note_on_c, 13, 36, 0
14, 121990, Control_c, 13, 7, 103
14, 122010, Control_c, 13, 7, 104
14, 122025, Control_c, 13, 7, 105
14, 122040, Control_c, 13, 7, 106
14, 122060, Control_c, 13, 7, 107
14, 122075, Control_c, 13, 7, 108
14, 122095, Control_c, 13, 7, 109
14, 122100, Note_on_c, 13, 33, 64
14, 122110, Control_c, 13, 7, 110
14, 122130, Note_on_c, 13, 33, 0
14, 122130, Control_c, 13, 7, 111
14, 122145, Control_c, 13, 7, 112
14, 122160, Control_c, 13, 7, 113
14, 122160, Note_on_c, 13, 36, 46
14, 122180, Control_c, 13, 7, 114
14, 122195, Control_c, 13, 7, 115
14, 122215, Control_c, 13, 7, 116
14, 122220, Note_on_c, 13, 36, 0
14, 122230, Control_c, 13, 7, 117
14, 122250, Control_c, 13, 7, 118
14, 122265, Control_c, 13, 7, 119
14, 122280, Control_c, 13, 7, 120
14, 122300, Control_c, 13, 7, 121
14, 122315, Control_c, 13, 7, 122
14, 122335, Control_c, 13, 7, 123
14, 122340, Note_on_c, 13, 33, 72
14, 122350, Control_c, 13, 7, 124
14, 122370, Note_on_c, 13, 33, 0
14, 122370, Control_c, 13, 7, 125
14, 122385, Control_c, 13, 7, 126
14, 122400, Control_c, 13, 7, 127
14, 122400, Note_on_c, 13, 36, 65
14, 122420, Control_c, 13, 7, 126
14, 122430, Note_on_c, 13, 36, 0
14, 122435, Control_c, 13, 7, 125
14, 122455, Control_c, 13, 7, 124
14, 122460, Note_on_c, 13, 33, 80
14, 122470, Control_c, 13, 7, 123
14, 122490, Note_on_c, 13, 33, 0
14, 122490, Control_c, 13, 7, 122
14, 122505, Control_c, 13, 7, 121
14, 122520, Control_c, 13, 7, 120
14, 122520, Note_on_c, 13, 36, 62
14, 122540, Control_c, 13, 7, 119
14, 122550, Note_on_c, 13, 36, 0
14, 122555, Control_c, 13, 7, 118
14, 122575, Control_c, 13, 7, 117
14, 122580, Note_on_c, 13, 33, 76
14, 122590, Control_c, 13, 7, 116
14, 122610, Note_on_c, 13, 33, 0
14, 122610, Control_c, 13, 7, 115
14, 122625, Control_c, 13, 7, 114
14, 122640, Control_c, 13, 7, 113
14, 122640, Note_on_c, 13, 36, 58
14, 122660, Control_c, 13, 7, 112
14, 122670, Note_on_c, 13, 36, 0
14, 122675, Control_c, 13, 7, 111
14, 122695, Control_c, 13, 7, 110
14, 122700, Note_on_c, 13, 33, 68
14, 122710, Control_c, 13, 7, 109
14, 122730, Note_on_c, 13, 33, 0
14, 122730, Control_c, 13, 7, 108
14, 122745, Control_c, 13, 7, 107
14, 122760, Control_c, 13, 7, 106
14, 122760, Note_on_c, 13, 36, 64
14, 122780, Control_c, 13, 7, 105
14, 122790, Note_on_c, 13, 36, 0
14, 122795, Control_c, 13, 7, 104
14, 122815, Control_c, 13, 7, 103
14, 122820, Note_on_c, 13, 33, 52
14, 122830, Control_c, 13, 7, 102
14, 122850, Note_on_c, 13, 33, 0
14, 122850, Control_c, 13, 7, 101
14, 122865, Control_c, 13, 7, 100
14, 122880, Control_c, 13, 7, 99
14, 122880, Note_on_c, 13, 31, 66
14, 123000, Note_on_c, 13, 31, 0
14, 126720, Note_on_c, 13, 48, 54
14, 126840, Note_on_c, 13, 48, 0
14, 126960, Note_on_c, 13, 48, 62
14, 127080, Note_on_c, 13, 48, 0
14, 127200, Note_on_c, 13, 50, 58
14, 127320, Note_on_c, 13, 50, 0
14, 127440, Note_on_c, 13, 38, 65
14, 127560, Note_on_c, 13, 38, 0
14, 127680, Note_on_c, 13, 43, 57
14, 127800, Note_on_c, 13, 43, 0
14, 128640, Note_on_c, 13, 36, 50
14, 129120, Note_on_c, 13, 36, 0
14, 129120, Note_on_c, 13, 36, 50
14, 129600, Note_on_c, 13, 36, 0
14, 129600, Note_on_c, 13, 41, 67
14, 129720, Note_on_c, 13, 41, 0
14, 129780, Note_on_c, 13, 36, 54
14, 129840, Note_on_c, 13, 36, 0
14, 129840, Note_on_c, 13, 41, 53
14, 129960, Note_on_c, 13, 41, 0
14, 130020, Note_on_c, 13, 36, 65
14, 130080, Note_on_c, 13, 36, 0
14, 130080, Note_on_c, 13, 41, 52
14, 130200, Note_on_c, 13, 41, 0
14, 130560, Note_on_c, 13, 43, 64
14, 130680, Note_on_c, 13, 43, 0
14, 130740, Note_on_c, 13, 36, 60
14, 130800, Note_on_c, 13, 36, 0
14, 130800, Note_on_c, 13, 43, 62
14, 130920, Note_on_c, 13, 43, 0
14, 130980, Note_on_c, 13, 36, 58
14, 131040, Note_on_c, 13, 36, 0
14, 131040, Note_on_c, 13, 43, 68
14, 131160, Note_on_c, 13, 43, 0
14, 131520, Note_on_c, 13, 44, 44
14, 131640, Note_on_c, 13, 44, 0
14, 131700, Note_on_c, 13, 41, 65
14, 131760, Note_on_c, 13, 41, 0
14, 131760, Note_on_c, 13, 44, 58
14, 131880, Note_on_c, 13, 44, 0
14, 131940, Note_on_c, 13, 41, 68
14, 132000, Note_on_c, 13, 41, 0
14, 132000, Note_on_c, 13, 45, 81
14, 132120, Note_on_c, 13, 45, 0
14, 132480, Note_on_c, 13, 46, 59
14, 132600, Note_on_c, 13, 46, 0
14, 132720, Note_on_c, 13, 46, 57
14, 132840, Note_on_c, 13, 46, 0
14, 132960, Note_on_c, 13, 48, 71
14, 133080, Note_on_c, 13, 48, 0
14, 133200, Note_on_c, 13, 36, 74
14, 133320, Note_on_c, 13, 36, 0
14, 133440, Note_on_c, 13, 41, 64
14, 133560, Note_on_c, 13, 41, 0
14, 133620, Note_on_c, 13, 36, 73
14, 133680, Note_on_c, 13, 36, 0
14, 133680, Note_on_c, 13, 41, 70
14, 133800, Note_on_c, 13, 41, 0
14, 133860, Note_on_c, 13, 36, 84
14, 133920, Note_on_c, 13, 36, 0
14, 133920, Note_on_c, 13, 41, 69
14, 134040, Note_on_c, 13, 41, 0
14, 134400, Note_on_c, 13, 36, 68
14, 134520, Note_on_c, 13, 36, 0
14, 134580, Note_on_c, 13, 32, 77
14, 134640, Note_on_c, 13, 32, 0
14, 134640, Note_on_c, 13, 36, 67
14, 134760, Note_on_c, 13, 36, 0
14, 134820, Note_on_c, 13, 32, 71
14, 134880, Note_on_c, 13, 32, 0
14, 134880, Note_on_c, 13, 36, 59
14, 135000, Note_on_c, 13, 36, 0
14, 135360, Note_on_c, 13, 37, 71
14, 135480, Note_on_c, 13, 37, 0
14, 135540, Note_on_c, 13, 32, 76
14, 135600, Note_on_c, 13, 32, 0
14, 135600, Note_on_c, 13, 37, 68
14, 135720, Note_on_c, 13, 37, 0
14, 135780, Note_on_c, 13, 32, 78
14, 135840, Note_on_c, 13, 32, 0
14, 135840, Note_on_c, 13, 37, 62
14, 135960, Note_on_c, 13, 37, 0
14, 136320, Note_on_c, 13, 36, 68
14, 136440, Note_on_c, 13, 36, 0
14, 136500, Note_on_c, 13, 32, 77
14, 136560, Note_on_c, 13, 32, 0
14, 136560, Note_on_c, 13, 36, 67
14, 136680, Note_on_c, 13, 36, 0
14, 136740, Note_on_c, 13, 32, 71
14, 136800, Note_on_c, 13, 32, 0
14, 136800, Note_on_c, 13, 36, 59
14, 136920, Note_on_c, 13, 36, 0
14, 137280, Note_on_c, 13, 37, 71
14, 137400, Note_on_c, 13, 37, 0
14, 137700, Note_on_c, 13, 37, 62
14, 137760, Note_on_c, 13, 37, 0
14, 137760, Note_on_c, 13, 35, 68
14, 137880, Note_on_c, 13, 35, 0
14, 138180, Note_on_c, 13, 47, 72
14, 138240, Note_on_c, 13, 47, 0
14, 138240, Note_on_c, 13, 48, 71
14, 138360, Note_on_c, 13, 48, 0
14, 138660, Note_on_c, 13, 48, 71
14, 138720, Note_on_c, 13, 48, 0
14, 138720, Note_on_c, 13, 41, 61
14, 138840, Note_on_c, 13, 41, 0
14, 138900, Note_on_c, 13, 41, 61
14, 138960, Note_on_c, 13, 41, 0
14, 138960, Note_on_c, 13, 42, 71
14, 139080, Note_on_c, 13, 42, 0
14, 139140, Note_on_c, 13, 42, 62
14, 139200, Note_on_c, 13, 42, 0
14, 139200, Note_on_c, 13, 43, 76
14, 139320, Note_on_c, 13, 43, 0
14, 139920, Note_on_c, 13, 36, 72
14, 140040, Note_on_c, 13, 36, 0
14, 140100, Note_on_c, 13, 36, 80
14, 140160, Note_on_c, 13, 36, 0
14, 140160, Note_on_c, 13, 31, 58
14, 140280, Note_on_c, 13, 31, 0
14, 140880, Note_on_c, 13, 36, 65
14, 141000, Note_on_c, 13, 36, 0
14, 141060, Note_on_c, 13, 36, 70
14, 141120, Note_on_c, 13, 36, 0
14, 141120, Note_on_c, 13, 35, 63
14, 141240, Note_on_c, 13, 35, 0
14, 141360, Note_on_c, 13, 31, 66
14, 141480, Note_on_c, 13, 31, 0
14, 142020, Note_on_c, 13, 31, 72
14, 142050, Note_on_c, 13, 31, 0
14, 142080, Note_on_c, 13, 32, 66
14, 142140, Note_on_c, 13, 32, 0
14, 142320, Note_on_c, 13, 32, 65
14, 142380, Note_on_c, 13, 32, 0
14, 142980, Note_on_c, 13, 32, 53
14, 143010, Note_on_c, 13, 32, 0
14, 143040, Note_on_c, 13, 33, 69
14, 143100, Note_on_c, 13, 33, 0
14, 143280, Note_on_c, 13, 33, 80
14, 143340, Note_on_c, 13, 33, 0
14, 143940, Note_on_c, 13, 33, 77
14, 143970, Note_on_c, 13, 33, 0
14, 144000, Note_on_c, 13, 34, 62
14, 144060, Note_on_c, 13, 34, 0
14, 144240, Note_on_c, 13, 34, 66
14, 144300, Note_on_c, 13, 34, 0
14, 144900, Note_on_c, 13, 34, 73
14, 144930, Note_on_c, 13, 34, 0
14, 144960, Note_on_c, 13, 35, 72
14, 145020, Note_on_c, 13, 35, 0
14, 145200, Note_on_c, 13, 35, 74
14, 145260, Note_on_c, 13, 35, 0
14, 145860, Note_on_c, 13, 35, 73
14, 145890, Note_on_c, 13, 35, 0
14, 145920, Note_on_c, 13, 36, 78
14, 145980, Note_on_c, 13, 36, 0
14, 146340, Note_on_c, 13, 36, 73
14, 146400, Note_on_c, 13, 36, 0
14, 146400, Note_on_c, 13, 41, 57
14, 146520, Note_on_c, 13, 41, 0
14, 146820, Note_on_c, 13, 41, 57
14, 146880, Note_on_c, 13, 41, 0
14, 146880, Note_on_c, 13, 43, 61
14, 147000, Note_on_c, 13, 43, 0
14, 147300, Note_on_c, 13, 43, 64
14, 147360, Note_on_c, 13, 43, 0
14, 147360, Note_on_c, 13, 31, 81
14, 147480, Note_on_c, 13, 31, 0
14, 147780, Note_on_c, 13, 31, 65
14, 147840, Note_on_c, 13, 31, 0
14, 147840, Note_on_c, 13, 36, 101
14, 148080, Note_on_c, 13, 36, 0
14, 148080, Note_on_c, 13, 39, 99
14, 148320, Note_on_c, 13, 39, 0
14, 148320, Note_on_c, 13, 43, 115
14, 148500, Note_on_c, 13, 43, 0
14, 148500, Note_on_c, 13, 41, 90
14, 148530, Note_on_c, 13, 41, 0
14, 148560, Note_on_c, 13, 39, 95
14, 148620, Note_on_c, 13, 39, 0
14, 148680, Note_on_c, 13, 38, 99
14, 148740, Note_on_c, 13, 38, 0
14, 148800, Note_on_c, 13, 36, 95
14, 148860, Note_on_c, 13, 36, 0
14, 148980, Note_on_c, 13, 31, 90
14, 149010, Note_on_c, 13, 31, 0
14, 149040, Note_on_c, 13, 36, 99
14, 149100, Note_on_c, 13, 36, 0
14, 149220, Note_on_c, 13, 31, 99
14, 149250, Note_on_c, 13, 31, 0
14, 149280, Note_on_c, 13, 36, 104
14, 149340, Note_on_c, 13, 36, 0
14, 151680, Note_on_c, 13, 36, 57
14, 151740, Note_on_c, 13, 36, 0
14, 151860, Note_on_c, 13, 37, 71
14, 151890, Note_on_c, 13, 37, 0
14, 151920, Note_on_c, 13, 36, 73
14, 151980, Note_on_c, 13, 36, 0
14, 152100, Note_on_c, 13, 37, 70
14, 152130, Note_on_c, 13, 37, 0
14, 152160, Note_on_c, 13, 36, 60
14, 152220, Note_on_c, 13, 36, 0
14, 153600, Note_on_c, 13, 34, 45
14, 153660, Note_on_c, 13, 34, 0
14, 153780, Note_on_c, 13, 35, 61
14, 153810, Note_on_c, 13, 35, 0
14, 153840, Note_on_c, 13, 34, 50
14, 153900, Note_on_c, 13, 34, 0
14, 154020, Note_on_c, 13, 35, 60
14, 154050, Note_on_c, 13, 35, 0
14, 154080, Note_on_c, 13, 34, 65
14, 154140, Note_on_c, 13, 34, 0
14, 154560, Note_on_c, 13, 35, 44
14, 154680, Note_on_c, 13, 35, 0
14, 155040, Note_on_c, 13, 36, 44
14, 155160, Note_on_c, 13, 36, 0
14, 155520, Note_on_c, 13, 41, 53
14, 155640, Note_on_c, 13, 41, 0
14, 155760, Note_on_c, 13, 42, 56
14, 155880, Note_on_c, 13, 42, 0
14, 156000, Note_on_c, 13, 43, 61
14, 156120, Note_on_c, 13, 43, 0
14, 157920, Program_c, 13, 45
14, 157920, Note_on_c, 13, 43, 86
14, 158040, Note_on_c, 13, 43, 0
14, 158400, Note_on_c, 13, 48, 89
14, 158520, Note_on_c, 13, 48, 0
14, 158880, Note_on_c, 13, 43, 86
14, 159000, Note_on_c, 13, 43, 0
14, 159360, Note_on_c, 13, 36, 93
14, 159480, Note_on_c, 13, 36, 0
14, 159840, Note_on_c, 13, 31, 77
14, 159960, Note_on_c, 13, 31, 0
14, 160080, Note_on_c, 13, 36, 81
14, 160200, Note_on_c, 13, 36, 0
14, 160320, Note_on_c, 13, 31, 72
14, 160440, Note_on_c, 13, 31, 0
14, 160560, Note_on_c, 13, 36, 89
14, 160680, Note_on_c, 13, 36, 0
14, 160800, Note_on_c, 13, 31, 70
14, 160920, Note_on_c, 13, 31, 0
14, 162720, Program_c, 13, 48
14, 162720, Note_on_c, 13, 48, 65
14, 162840, Note_on_c, 13, 48, 0
14, 162960, Note_on_c, 13, 43, 78
14, 163080, Note_on_c, 13, 43, 0
14, 163200, Note_on_c, 13, 36, 80
14, 163320, Note_on_c, 13, 36, 0
14, 164640, Note_on_c, 13, 45, 69
14, 164760, Note_on_c, 13, 45, 0
14, 164880, Note_on_c, 13, 43, 68
14, 165000, Note_on_c, 13, 43, 0
14, 165120, Note_on_c, 13, 41, 77
14, 165240, Note_on_c, 13, 41, 0
14, 165360, Note_on_c, 13, 40, 74
14, 165480, Note_on_c, 13, 40, 0
14, 166560, Note_on_c, 13, 48, 64
14, 166680, Note_on_c, 13, 48, 0
14, 166800, Note_on_c, 13, 43, 69
14, 166920, Note_on_c, 13, 43, 0
14, 167040, Note_on_c, 13, 36, 74
14, 167160, Note_on_c, 13, 36, 0
14, 167640, Note_on_c, 13, 43, 74
14, 167760, Note_on_c, 13, 43, 0
14, 167760, Note_on_c, 13, 43, 74
14, 167880, Note_on_c, 13, 43, 0
14, 167880, Note_on_c, 13, 43, 76
14, 168000, Note_on_c, 13, 43, 0
14, 168000, Note_on_c, 13, 48, 82
14, 168120, Note_on_c, 13, 48, 0
14, 168120, Note_on_c, 13, 36, 80
14, 168240, Note_on_c, 13, 36, 0
14, 168240, Note_on_c, 13, 48, 80
14, 168360, Note_on_c, 13, 48, 0
14, 168360, Note_on_c, 13, 46, 80
14, 168480, Note_on_c, 13, 46, 0
14, 168480, Note_on_c, 13, 45, 104
14, 168720, Note_on_c, 13, 45, 0
14, 168720, Note_on_c, 13, 43, 82
14, 168840, Note_on_c, 13, 43, 0
14, 168900, Note_on_c, 13, 43, 89
14, 168960, Note_on_c, 13, 43, 0
14, 168960, Note_on_c, 13, 41, 99
14, 169200, Note_on_c, 13, 41, 0
14, 169200, Note_on_c, 13, 40, 86
14, 169320, Note_on_c, 13, 40, 0
14, 169380, Note_on_c, 13, 41, 80
14, 169440, Note_on_c, 13, 41, 0
14, 169440, Note_on_c, 13, 43, 76
14, 169560, Note_on_c, 13, 43, 0
14, 169560, Note_on_c, 13, 43, 68
14, 169680, Note_on_c, 13, 43, 0
14, 169680, Note_on_c, 13, 31, 86
14, 169800, Note_on_c, 13, 31, 0
14, 169800, Note_on_c, 13, 31, 89
14, 169920, Note_on_c, 13, 31, 0
14, 169920, Note_on_c, 13, 36, 94
14, 170040, Note_on_c, 13, 36, 0
14, 170040, Note_on_c, 13, 31, 80
14, 170160, Note_on_c, 13, 31, 0
14, 170160, Note_on_c, 13, 36, 84
14, 170280, Note_on_c, 13, 36, 0
14, 171360, Note_on_c, 13, 50, 43
14, 171480, Note_on_c, 13, 50, 0
14, 171840, Note_on_c, 13, 43, 43
14, 171960, Note_on_c, 13, 43, 0
14, 172320, Note_on_c, 13, 45, 38
14, 172440, Note_on_c, 13, 45, 0
14, 172560, Note_on_c, 13, 41, 54
14, 172680, Note_on_c, 13, 41, 0
14, 172800, Note_on_c, 13, 43, 46
14, 172920, Note_on_c, 13, 43, 0
14, 173040, Note_on_c, 13, 31, 64
14, 173160, Note_on_c, 13, 31, 0
14, 173280, Note_on_c, 13, 36, 65
14, 173400, Note_on_c, 13, 36, 0
14, 174480, Note_on_c, 13, 41, 43
14, 174600, Note_on_c, 13, 41, 0
14, 174720, Note_on_c, 13, 43, 47
14, 174840, Note_on_c, 13, 43, 0
14, 174960, Note_on_c, 13, 31, 53
14, 175080, Note_on_c, 13, 31, 0
14, 175200, Note_on_c, 13, 36, 56
14, 175320, Note_on_c, 13, 36, 0
14, 177120, Note_on_c, 13, 34, 72
14, 177600, Note_on_c, 13, 34, 0
14, 177600, Note_on_c, 13, 39, 50
14, 177720, Note_on_c, 13, 39, 0
14, 177840, Note_on_c, 13, 44, 50
14, 177960, Note_on_c, 13, 44, 0
14, 178080, Note_on_c, 13, 46, 65
14, 178200, Note_on_c, 13, 46, 0
14, 178320, Note_on_c, 13, 47, 53
14, 178440, Note_on_c, 13, 47, 0
14, 178560, Note_on_c, 13, 48, 70
14, 178680, Note_on_c, 13, 48, 0
14, 178800, Note_on_c, 13, 41, 62
14, 178920, Note_on_c, 13, 41, 0
14, 179040, Note_on_c, 13, 43, 68
14, 179160, Note_on_c, 13, 43, 0
14, 179280, Note_on_c, 13, 31, 65
14, 179400, Note_on_c, 13, 31, 0
14, 179520, Note_on_c, 13, 36, 65
14, 179640, Note_on_c, 13, 36, 0
14, 179700, Note_on_c, 13, 31, 65
14, 179730, Note_on_c, 13, 31, 0
14, 179760, Note_on_c, 13, 36, 73
14, 179820, Note_on_c, 13, 36, 0
14, 180180, Note_on_c, 13, 31, 61
14, 180210, Note_on_c, 13, 31, 0
14, 180240, Note_on_c, 13, 36, 67
14, 180300, Note_on_c, 13, 36, 0
14, 182400, Note_on_c, 13, 48, 64
14, 182520, Note_on_c, 13, 48, 0
14, 182880, Note_on_c, 13, 48, 65
14, 183000, Note_on_c, 13, 48, 0
14, 184800, Note_on_c, 13, 53, 71
14, 185280, Note_on_c, 13, 53, 0
14, 185280, Note_on_c, 13, 52, 58
14, 185400, Note_on_c, 13, 52, 0
14, 186180, Note_on_c, 13, 40, 72
14, 186210, Note_on_c, 13, 40, 0
14, 186240, Note_on_c, 13, 41, 70
14, 186300, Note_on_c, 13, 41, 0
14, 187140, Note_on_c, 13, 41, 68
14, 187170, Note_on_c, 13, 41, 0
14, 187200, Note_on_c, 13, 42, 74
14, 187260, Note_on_c, 13, 42, 0
14, 188100, Note_on_c, 13, 42, 67
14, 188130, Note_on_c, 13, 42, 0
14, 188160, Note_on_c, 13, 43, 72
14, 188220, Note_on_c, 13, 43, 0
14, 188400, Note_on_c, 13, 45, 71
14, 188520, Note_on_c, 13, 45, 0
14, 188640, Note_on_c, 13, 43, 73
14, 188760, Note_on_c, 13, 43, 0
14, 188880, Note_on_c, 13, 42, 62
14, 189000, Note_on_c, 13, 42, 0
14, 189120, Note_on_c, 13, 43, 81
14, 189240, Note_on_c, 13, 43, 0
14, 191040, Note_on_c, 13, 43, 55
14, 191160, Note_on_c, 13, 43, 0
14, 192000, Note_on_c, 13, 31, 62
14, 192120, Note_on_c, 13, 31, 0
14, 192960, Note_on_c, 13, 36, 90
14, 193080, Control_c, 13, 7, 99
14, 193085, Control_c, 13, 7, 98
14, 193090, Control_c, 13, 7, 96
14, 193095, Control_c, 13, 7, 95
14, 193100, Control_c, 13, 7, 93
14, 193105, Control_c, 13, 7, 91
14, 193110, Control_c, 13, 7, 90
14, 193115, Control_c, 13, 7, 88
14, 193120, Control_c, 13, 7, 86
14, 193125, Control_c, 13, 7, 85
14, 193130, Control_c, 13, 7, 83
14, 193135, Control_c, 13, 7, 81
14, 193140, Control_c, 13, 7, 80
14, 193145, Control_c, 13, 7, 78
14, 193150, Control_c, 13, 7, 77
14, 193155, Control_c, 13, 7, 75
14, 193160, Control_c, 13, 7, 73
14, 193165, Control_c, 13, 7, 72
14, 193170, Control_c, 13, 7, 70
14, 193175, Control_c, 13, 7, 68
14, 193180, Control_c, 13, 7, 67
14, 193185, Control_c, 13, 7, 65
14, 193190, Control_c, 13, 7, 63
14, 193200, Note_on_c, 13, 36, 0
14, 193200, Note_on_c, 13, 40, 95
14, 193440, Note_on_c, 13, 40, 0
14, 193440, Note_on_c, 13, 43, 85
14, 193620, Note_on_c, 13, 43, 0
14, 193620, Note_on_c, 13, 41, 84
14, 193650, Note_on_c, 13, 41, 0
14, 193680, Note_on_c, 13, 40, 94
14, 193740, Note_on_c, 13, 40, 0
14, 193800, Note_on_c, 13, 37, 72
14, 193860, Note_on_c, 13, 37, 0
14, 193920, Note_on_c, 13, 36, 99
14, 193980, Note_on_c, 13, 36, 0
14, 194040, Note_on_c, 13, 34, 90
14, 194100, Note_on_c, 13, 34, 0
14, 194160, Note_on_c, 13, 32, 94
14, 194220, Note_on_c, 13, 32, 0
14, 194280, Note_on_c, 13, 31, 94
14, 194340, Note_on_c, 13, 31, 0
14, 194400, Note_on_c, 13, 29, 81
14, 194520, Note_on_c, 13, 29, 0
14, 195470, Control_c, 13, 7, 64
14, 195480, Note_on_c, 13, 41, 84
14, 195485, Control_c, 13, 7, 65
14, 195495, Control_c, 13, 7, 66
14, 195505, Control_c, 13, 7, 67
14, 195515, Control_c, 13, 7, 68
14, 195525, Control_c, 13, 7, 69
14, 195535, Control_c, 13, 7, 70
14, 195545, Control_c, 13, 7, 71
14, 195555, Control_c, 13, 7, 72
14, 195570, Control_c, 13, 7, 73
14, 195580, Control_c, 13, 7, 74
14, 195590, Control_c, 13, 7, 75
14, 195600, Note_on_c, 13, 41, 0
14, 195600, Control_c, 13, 7, 76
14, 195600, Note_on_c, 13, 41, 93
14, 195610, Control_c, 13, 7, 77
14, 195620, Control_c, 13, 7, 78
14, 195630, Control_c, 13, 7, 79
14, 195640, Control_c, 13, 7, 80
14, 195650, Control_c, 13, 7, 81
14, 195665, Control_c, 13, 7, 82
14, 195675, Control_c, 13, 7, 83
14, 195685, Control_c, 13, 7, 84
14, 195695, Control_c, 13, 7, 85
14, 195705, Control_c, 13, 7, 86
14, 195715, Control_c, 13, 7, 87
14, 195720, Note_on_c, 13, 41, 0
14, 195720, Note_on_c, 13, 41, 89
14, 195725, Control_c, 13, 7, 88
14, 195735, Control_c, 13, 7, 89
14, 195745, Control_c, 13, 7, 90
14, 195760, Control_c, 13, 7, 91
14, 195770, Control_c, 13, 7, 92
14, 195780, Control_c, 13, 7, 93
14, 195790, Control_c, 13, 7, 94
14, 195800, Control_c, 13, 7, 95
14, 195810, Control_c, 13, 7, 96
14, 195820, Control_c, 13, 7, 97
14, 195830, Control_c, 13, 7, 98
14, 195840, Note_on_c, 13, 41, 0
14, 195840, Control_c, 13, 7, 99
14, 195840, Note_on_c, 13, 43, 90
14, 195960, Note_on_c, 13, 43, 0
14, 196920, Note_on_c, 13, 43, 86
14, 197040, Note_on_c, 13, 43, 0
14, 197040, Note_on_c, 13, 43, 86
14, 197160, Note_on_c, 13, 43, 0
14, 197160, Note_on_c, 13, 43, 93
14, 197280, Note_on_c, 13, 43, 0
14, 197280, Note_on_c, 13, 44, 101
14, 197730, Note_on_c, 13, 44, 0
14, 197730, Note_on_c, 13, 44, 101
14, 197760, Note_on_c, 13, 44, 0
14, 197760, Note_on_c, 13, 43, 101
14, 197970, Note_on_c, 13, 43, 0
14, 197970, Note_on_c, 13, 43, 99
14, 198000, Note_on_c, 13, 43, 0
14, 198000, Note_on_c, 13, 42, 99
14, 198210, Note_on_c, 13, 42, 0
14, 198210, Note_on_c, 13, 42, 99
14, 198240, Note_on_c, 13, 42, 0
14, 198240, Note_on_c, 13, 43, 101
14, 198450, Note_on_c, 13, 43, 0
14, 198450, Note_on_c, 13, 43, 104
14, 198480, Note_on_c, 13, 43, 0
14, 198480, Note_on_c, 13, 44, 101
14, 198690, Note_on_c, 13, 44, 0
14, 198690, Note_on_c, 13, 44, 95
14, 198720, Note_on_c, 13, 44, 0
14, 198720, Note_on_c, 13, 43, 104
14, 198930, Note_on_c, 13, 43, 0
14, 198930, Note_on_c, 13, 43, 104
14, 198960, Note_on_c, 13, 43, 0
14, 198960, Note_on_c, 13, 42, 99
14, 199170, Note_on_c, 13, 42, 0
14, 199170, Note_on_c, 13, 42, 99
14, 199200, Note_on_c, 13, 42, 0
14, 199200, Note_on_c, 13, 43, 105
14, 199440, Note_on_c, 13, 43, 0
14, 247680, Note_on_c, 13, 36, 43
14, 247800, Note_on_c, 13, 36, 0
14, 248640, Note_on_c, 13, 36, 45
14, 248760, Note_on_c, 13, 36, 0
14, 249600, Note_on_c, 13, 36, 43
14, 249720, Note_on_c, 13, 36, 0
14, 250560, Note_on_c, 13, 36, 42
14, 250680, Note_on_c, 13, 36, 0
14, 251520, Note_on_c, 13, 36, 43
14, 251640, Note_on_c, 13, 36, 0
14, 251940, Note_on_c, 13, 48, 43
14, 252000, Note_on_c, 13, 48, 0
14, 252000, Note_on_c, 13, 44, 30
14, 252120, Note_on_c, 13, 44, 0
14, 252420, Note_on_c, 13, 44, 35
14, 252480, Note_on_c, 13, 44, 0
14, 252480, Note_on_c, 13, 41, 43
14, 252600, Note_on_c, 13, 41, 0
14, 252900, Note_on_c, 13, 41, 43
14, 252960, Note_on_c, 13, 41, 0
14, 252960, Note_on_c, 13, 43, 41
14, 253080, Note_on_c, 13, 43, 0
14, 253380, Note_on_c, 13, 43, 40
14, 253440, Note_on_c, 13, 43, 0
14, 253440, Note_on_c, 13, 48, 40
14, 253560, Note_on_c, 13, 48, 0
14, 253740, Note_on_c, 13, 48, 37
14, 253800, Note_on_c, 13, 48, 0
14, 253800, Note_on_c, 13, 48, 42
14, 253860, Note_on_c, 13, 48, 0
14, 253860, Note_on_c, 13, 48, 43
14, 253920, Note_on_c, 13, 48, 0
14, 253920, Note_on_c, 13, 44, 34
14, 254040, Note_on_c, 13, 44, 0
14, 254220, Note_on_c, 13, 44, 39
14, 254280, Note_on_c, 13, 44, 0
14, 254280, Note_on_c, 13, 44, 35
14, 254340, Note_on_c, 13, 44, 0
14, 254340, Note_on_c, 13, 44, 42
14, 254400, Note_on_c, 13, 44, 0
14, 254400, Note_on_c, 13, 41, 44
14, 254520, Note_on_c, 13, 41, 0
14, 254700, Note_on_c, 13, 41, 44
14, 254760, Note_on_c, 13, 41, 0
14, 254760, Note_on_c, 13, 41, 44
14, 254820, Note_on_c, 13, 41, 0
14, 254820, Note_on_c, 13, 41, 43
14, 254880, Note_on_c, 13, 41, 0
14, 254880, Note_on_c, 13, 43, 40
14, 255000, Note_on_c, 13, 43, 0
14, 255180, Note_on_c, 13, 43, 41
14, 255240, Note_on_c, 13, 43, 0
14, 255240, Note_on_c, 13, 43, 41
14, 255300, Note_on_c, 13, 43, 0
14, 255300, Note_on_c, 13, 43, 44
14, 255360, Note_on_c, 13, 43, 0
14, 255360, Note_on_c, 13, 48, 35
14, 255480, Note_on_c, 13, 48, 0
14, 255540, Note_on_c, 13, 48, 42
14, 255600, Note_on_c, 13, 48, 0
14, 255600, Note_on_c, 13, 44, 44
14, 255720, Note_on_c, 13, 44, 0
14, 255780, Note_on_c, 13, 44, 43
14, 255840, Note_on_c, 13, 44, 0
14, 255840, Note_on_c, 13, 41, 64
14, 255960, Note_on_c, 13, 41, 0
14, 256020, Note_on_c, 13, 41, 72
14, 256080, Note_on_c, 13, 41, 0
14, 256080, Note_on_c, 13, 43, 77
14, 256200, Note_on_c, 13, 43, 0
14, 256260, Note_on_c, 13, 43, 86
14, 256320, Note_on_c, 13, 43, 0
14, 256320, Note_on_c, 13, 48, 104
14, 256350, Note_on_c, 13, 48, 0
14, 256350, Note_on_c, 13, 48, 104
14, 256380, Note_on_c, 13, 48, 0
14, 256380, Note_on_c, 13, 48, 104
14, 256410, Note_on_c, 13, 48, 0
14, 256410, Note_on_c, 13, 48, 105
14, 256440, Note_on_c, 13, 48, 0
14, 256440, Note_on_c, 13, 48, 105
14, 256470, Note_on_c, 13, 48, 0
14, 256470, Note_on_c, 13, 48, 105
14, 256500, Note_on_c, 13, 48, 0
14, 256500, Note_on_c, 13, 48, 105
14, 256530, Note_on_c, 13, 48, 0
14, 256530, Note_on_c, 13, 48, 105
14, 256560, Note_on_c, 13, 48, 0
14, 256560, Note_on_c, 13, 44, 99
14, 256590, Note_on_c, 13, 44, 0
14, 256590, Note_on_c, 13, 44, 99
14, 256620, Note_on_c, 13, 44, 0
14, 256620, Note_on_c, 13, 44, 99
14, 256650, Note_on_c, 13, 44, 0
14, 256650, Note_on_c, 13, 44, 99
14, 256680, Note_on_c, 13, 44, 0
14, 256680, Note_on_c, 13, 44, 98
14, 256710, Note_on_c, 13, 44, 0
14, 256710, Note_on_c, 13, 44, 99
14, 256740, Note_on_c, 13, 44, 0
14, 256740, Note_on_c, 13, 44, 98
14, 256770, Note_on_c, 13, 44, 0
14, 256770, Note_on_c, 13, 44, 99
14, 256800, Note_on_c, 13, 44, 0
14, 256800, Note_on_c, 13, 41, 104
14, 256830, Note_on_c, 13, 41, 0
14, 256830, Note_on_c, 13, 41, 104
14, 256860, Note_on_c, 13, 41, 0
14, 256860, Note_on_c, 13, 41, 105
14, 256890, Note_on_c, 13, 41, 0
14, 256890, Note_on_c, 13, 41, 105
14, 256920, Note_on_c, 13, 41, 0
14, 256920, Note_on_c, 13, 41, 104
14, 256950, Note_on_c, 13, 41, 0
14, 256950, Note_on_c, 13, 41, 104
14, 256980, Note_on_c, 13, 41, 0
14, 256980, Note_on_c, 13, 41, 105
14, 257010, Note_on_c, 13, 41, 0
14, 257010, Note_on_c, 13, 41, 105
14, 257040, Note_on_c, 13, 41, 0
14, 257040, Note_on_c, 13, 43, 105
14, 257070, Note_on_c, 13, 43, 0
14, 257070, Note_on_c, 13, 43, 104
14, 257100, Note_on_c, 13, 43, 0
14, 257100, Note_on_c, 13, 43, 105
14, 257130, Note_on_c, 13, 43, 0
14, 257130, Note_on_c, 13, 43, 105
14, 257160, Note_on_c, 13, 43, 0
14, 257160, Note_on_c, 13, 43, 104
14, 257190, Note_on_c, 13, 43, 0
14, 257190, Note_on_c, 13, 43, 105
14, 257220, Note_on_c, 13, 43, 0
14, 257220, Note_on_c, 13, 43, 104
14, 257250, Note_on_c, 13, 43, 0
14, 257250, Note_on_c, 13, 43, 104
14, 257280, Note_on_c, 13, 43, 0
14, 257280, Note_on_c, 13, 36, 112
14, 257400, Note_on_c, 13, 36, 0
14, 257760, Note_on_c, 13, 48, 110
14, 257880, Note_on_c, 13, 48, 0
14, 258240, Note_on_c, 13, 48, 105
14, 258360, Note_on_c, 13, 48, 0
14, 258480, Note_on_c, 13, 48, 105
14, 258600, Note_on_c, 13, 48, 0
14, 258720, Note_on_c, 13, 43, 105
14, 258840, Note_on_c, 13, 43, 0
14, 258960, Note_on_c, 13, 39, 104
14, 259080, Note_on_c, 13, 39, 0
14, 259200, Note_on_c, 13, 36, 105
14, 259320, Note_on_c, 13, 36, 0
14, 259650, Note_on_c, 13, 36, 105
14, 259680, Note_on_c, 13, 36, 0
14, 259680, Note_on_c, 13, 36, 112
14, 259800, Note_on_c, 13, 36, 0
14, 260130, Note_on_c, 13, 36, 107
14, 260160, Note_on_c, 13, 36, 0
14, 260160, Note_on_c, 13, 36, 127
14, 260640, Note_on_c, 13, 36, 0
14, 260640, End_track
15, 0, Start_track
15, 0, MIDI_port, 0
15, 0, Title_t, "Ludwig van Beethoven"
15, 0, End_track
16, 0, Start_track
16, 0, MIDI_port, 0
16, 0, Title_t, "Piano Concerto No.3"
16, 0, End_track
17, 0, Start_track
17, 0, MIDI_port, 0
17, 0, Title_t, "in C Minor, Op. 37"
17, 0, End_track
18, 0, Start_track
18, 0, MIDI_port, 0
18, 0, Title_t, "Mov't. 1 - Allegro con brio"
18, 0, End_track
19, 0, Start_track
19, 0, MIDI_port, 0
19, 0, Title_t, "Sequenced by Bill Nemitz"
19, 0, End_track
20, 0, Start_track
20, 0, MIDI_port, 0
20, 0, Title_t, "Email at billnem@ix.netcom.com"
20, 0, End_track
0, 0, End_of_file