0, 0, Header, 1, 17, 384
1, 0, Start_track
1, 0, Time_signature, 3, 2, 96, 8
1, 0, Sequencer_specific, 03, 00, 00, 41
1, 0, Tempo, 400000
1, 11136, Tempo, 428571
1, 11520, Tempo, 400000
1, 19200, Tempo, 428571
1, 20352, Tempo, 400000
1, 40320, Tempo, 500000
1, 42240, Tempo, 400000
1, 63360, Tempo, 428571
1, 65280, Tempo, 400000
1, 160128, Tempo, 600000
1, 160128, End_track
2, 0, Start_track
2, 0, Title_t, "2nd Mvmt Sonata No.14, Opus 27, No.2"
2, 0, Control_c, 0, 0, 0
2, 0, Program_c, 0, 0
2, 0, Key_signature, -5, "major"
2, 768, Note_on_c, 0, 73, 60
2, 768, Note_on_c, 0, 65, 50
2, 768, Note_on_c, 0, 68, 50
2, 1148, Note_off_c, 0, 73, 0
2, 1148, Note_off_c, 0, 65, 0
2, 1148, Note_off_c, 0, 68, 0
2, 1152, Note_on_c, 0, 68, 37
2, 1152, Note_on_c, 0, 72, 60
2, 1152, Note_on_c, 0, 63, 45
2, 1916, Note_off_c, 0, 68, 0
2, 1916, Note_off_c, 0, 72, 0
2, 1916, Note_off_c, 0, 63, 0
2, 1920, Note_on_c, 0, 70, 55
2, 1920, Note_on_c, 0, 67, 60
2, 1920, Note_on_c, 0, 61, 49
2, 2300, Note_off_c, 0, 70, 0
2, 2300, Note_off_c, 0, 67, 0
2, 2300, Note_off_c, 0, 61, 0
2, 2304, Note_on_c, 0, 75, 60
2, 2304, Note_on_c, 0, 60, 53
2, 2304, Note_on_c, 0, 68, 50
2, 2404, Note_off_c, 0, 75, 0
2, 2404, Note_off_c, 0, 60, 0
2, 2404, Note_off_c, 0, 68, 0
2, 3072, Note_on_c, 0, 58, 53
2, 3072, Note_on_c, 0, 73, 55
2, 3072, Note_on_c, 0, 65, 52
2, 3172, Note_off_c, 0, 58, 0
2, 3172, Note_off_c, 0, 73, 0
2, 3172, Note_off_c, 0, 65, 0
2, 3456, Note_on_c, 0, 63, 67
2, 3456, Note_on_c, 0, 72, 70
2, 3456, Note_on_c, 0, 68, 54
2, 3556, Note_off_c, 0, 63, 0
2, 3556, Note_off_c, 0, 72, 0
2, 3556, Note_off_c, 0, 68, 0
2, 4224, Note_on_c, 0, 70, 56
2, 4224, Note_on_c, 0, 61, 35
2, 4224, Note_on_c, 0, 67, 55
2, 4324, Note_off_c, 0, 70, 0
2, 4324, Note_off_c, 0, 61, 0
2, 4324, Note_off_c, 0, 67, 0
2, 4608, Note_on_c, 0, 60, 55
2, 4608, Note_on_c, 0, 68, 69
2, 4708, Note_off_c, 0, 60, 0
2, 4708, Note_off_c, 0, 68, 0
2, 5376, Note_on_c, 0, 73, 89
2, 5376, Note_on_c, 0, 78, 88
2, 5376, Note_on_c, 0, 70, 72
2, 5756, Note_off_c, 0, 73, 0
2, 5756, Note_off_c, 0, 78, 0
2, 5756, Note_off_c, 0, 70, 0
2, 5760, Note_on_c, 0, 73, 71
2, 5760, Note_on_c, 0, 68, 74
2, 5760, Note_on_c, 0, 77, 84
2, 6524, Note_off_c, 0, 73, 0
2, 6524, Note_off_c, 0, 68, 0
2, 6524, Note_off_c, 0, 77, 0
2, 6528, Note_on_c, 0, 75, 77
2, 6528, Note_on_c, 0, 72, 73
2, 6528, Note_on_c, 0, 66, 69
2, 6908, Note_off_c, 0, 75, 0
2, 6908, Note_off_c, 0, 72, 0
2, 6908, Note_off_c, 0, 66, 0
2, 6912, Note_on_c, 0, 65, 72
2, 6912, Note_on_c, 0, 73, 84
2, 6912, Note_on_c, 0, 80, 88
2, 7292, Note_off_c, 0, 65, 0
2, 7292, Note_off_c, 0, 73, 0
2, 7292, Note_off_c, 0, 80, 0
2, 7680, Note_on_c, 0, 78, 68
2, 7680, Note_on_c, 0, 63, 54
2, 7680, Note_on_c, 0, 70, 55
2, 7780, Note_off_c, 0, 78, 0
2, 7780, Note_off_c, 0, 63, 0
2, 7780, Note_off_c, 0, 70, 0
2, 8064, Note_on_c, 0, 68, 56
2, 8064, Note_on_c, 0, 77, 70
2, 8064, Note_on_c, 0, 73, 42
2, 8164, Note_off_c, 0, 68, 0
2, 8164, Note_off_c, 0, 77, 0
2, 8164, Note_off_c, 0, 73, 0
2, 8832, Note_on_c, 0, 75, 61
2, 8832, Note_on_c, 0, 66, 39
2, 8832, Note_on_c, 0, 72, 34
2, 8932, Note_off_c, 0, 75, 0
2, 8932, Note_off_c, 0, 66, 0
2, 8932, Note_off_c, 0, 72, 0
2, 9216, Note_on_c, 0, 65, 54
2, 9216, Note_on_c, 0, 61, 60
2, 9216, Note_on_c, 0, 73, 73
2, 9316, Note_off_c, 0, 65, 0
2, 9316, Note_off_c, 0, 61, 0
2, 9316, Note_off_c, 0, 73, 0
2, 9984, Note_on_c, 0, 73, 76
2, 9984, Note_on_c, 0, 61, 67
2, 10748, Note_off_c, 0, 61, 0
2, 10748, Note_off_c, 0, 73, 0
2, 10752, Note_on_c, 0, 72, 70
2, 10752, Note_on_c, 0, 60, 55
2, 10852, Note_off_c, 0, 72, 0
2, 10852, Note_off_c, 0, 60, 0
2, 11136, Note_on_c, 0, 58, 53
2, 11136, Note_on_c, 0, 70, 53
2, 11228, Control_c, 0, 64, 56
2, 11248, Control_c, 0, 64, 72
2, 11268, Control_c, 0, 64, 88
2, 11288, Control_c, 0, 64, 104
2, 11308, Control_c, 0, 64, 127
2, 11384, Control_c, 0, 64, 56
2, 11404, Control_c, 0, 64, 0
2, 11516, Note_off_c, 0, 58, 0
2, 11520, Note_on_c, 0, 63, 73
2, 11520, Note_on_c, 0, 60, 53
2, 11620, Note_off_c, 0, 63, 0
2, 11620, Note_off_c, 0, 60, 0
2, 11900, Note_off_c, 0, 70, 0
2, 11904, Note_on_c, 0, 75, 69
2, 12004, Note_off_c, 0, 75, 0
2, 12288, Note_on_c, 0, 58, 44
2, 12288, Note_on_c, 0, 65, 40
2, 12288, Note_on_c, 0, 73, 71
2, 12388, Note_off_c, 0, 58, 0
2, 12388, Note_off_c, 0, 65, 0
2, 12672, Note_on_c, 0, 68, 59
2, 12672, Note_on_c, 0, 63, 60
2, 12772, Note_off_c, 0, 68, 0
2, 12772, Note_off_c, 0, 63, 0
2, 13052, Note_off_c, 0, 73, 0
2, 13056, Note_on_c, 0, 72, 39
2, 13156, Note_off_c, 0, 72, 0
2, 13440, Note_on_c, 0, 61, 44
2, 13440, Note_on_c, 0, 70, 43
2, 13440, Note_on_c, 0, 67, 59
2, 13540, Note_off_c, 0, 61, 0
2, 13540, Note_off_c, 0, 67, 0
2, 13824, Note_on_c, 0, 60, 60
2, 13924, Note_off_c, 0, 60, 0
2, 14204, Note_off_c, 0, 70, 0
2, 14208, Note_on_c, 0, 68, 53
2, 14308, Note_off_c, 0, 68, 0
2, 14592, Note_on_c, 0, 61, 51
2, 14592, Note_on_c, 0, 78, 77
2, 14592, Note_on_c, 0, 66, 69
2, 14592, Note_on_c, 0, 58, 65
2, 14972, Note_off_c, 0, 61, 0
2, 14972, Note_off_c, 0, 58, 0
2, 14976, Note_on_c, 0, 61, 47
2, 15356, Note_off_c, 0, 66, 0
2, 15356, Note_off_c, 0, 78, 0
2, 15360, Note_on_c, 0, 77, 79
2, 15360, Note_on_c, 0, 65, 57
2, 15460, Note_off_c, 0, 77, 0
2, 15460, Note_off_c, 0, 65, 0
2, 15740, Note_off_c, 0, 61, 0
2, 15744, Note_on_c, 0, 63, 44
2, 15744, Note_on_c, 0, 75, 65
2, 15744, Note_on_c, 0, 60, 72
2, 15844, Note_off_c, 0, 63, 0
2, 15844, Note_off_c, 0, 60, 0
2, 16128, Note_on_c, 0, 68, 71
2, 16128, Note_on_c, 0, 65, 64
2, 16228, Note_off_c, 0, 68, 0
2, 16228, Note_off_c, 0, 65, 0
2, 16508, Note_off_c, 0, 75, 0
2, 16512, Note_on_c, 0, 80, 77
2, 16612, Note_off_c, 0, 80, 0
2, 16896, Note_on_c, 0, 63, 40
2, 16896, Note_on_c, 0, 70, 43
2, 16896, Note_on_c, 0, 78, 57
2, 16996, Note_off_c, 0, 63, 0
2, 16996, Note_off_c, 0, 70, 0
2, 17280, Note_on_c, 0, 73, 62
2, 17280, Note_on_c, 0, 68, 37
2, 17380, Note_off_c, 0, 73, 0
2, 17380, Note_off_c, 0, 68, 0
2, 17660, Note_off_c, 0, 78, 0
2, 17664, Note_on_c, 0, 77, 41
2, 17764, Note_off_c, 0, 77, 0
2, 18048, Note_on_c, 0, 66, 39
2, 18048, Note_on_c, 0, 75, 38
2, 18048, Note_on_c, 0, 72, 50
2, 18148, Note_off_c, 0, 66, 0
2, 18148, Note_off_c, 0, 72, 0
2, 18432, Note_on_c, 0, 65, 51
2, 18432, Note_on_c, 0, 61, 35
2, 18532, Note_off_c, 0, 65, 0
2, 18532, Note_off_c, 0, 61, 0
2, 18812, Note_off_c, 0, 75, 0
2, 18816, Note_on_c, 0, 73, 42
2, 18916, Note_off_c, 0, 73, 0
2, 19200, Note_on_c, 0, 61, 30
2, 19200, Note_on_c, 0, 65, 38
2, 19200, Note_on_c, 0, 73, 43
2, 19344, Control_c, 0, 64, 24
2, 19368, Control_c, 0, 64, 40
2, 19388, Control_c, 0, 64, 56
2, 19408, Control_c, 0, 64, 72
2, 19424, Control_c, 0, 64, 88
2, 19444, Control_c, 0, 64, 104
2, 19464, Control_c, 0, 64, 127
2, 19580, Note_off_c, 0, 61, 0
2, 19580, Note_off_c, 0, 65, 0
2, 19580, Note_off_c, 0, 73, 0
2, 19584, Note_on_c, 0, 73, 62
2, 19584, Note_on_c, 0, 58, 50
2, 19584, Note_on_c, 0, 65, 62
2, 20348, Note_off_c, 0, 73, 0
2, 20348, Note_off_c, 0, 58, 0
2, 20348, Note_off_c, 0, 65, 0
2, 20352, Note_on_c, 0, 73, 63
2, 20352, Note_on_c, 0, 65, 52
2, 20624, Control_c, 0, 64, 104
2, 20644, Control_c, 0, 64, 0
2, 20732, Note_off_c, 0, 73, 0
2, 20732, Note_off_c, 0, 65, 0
2, 20736, Note_on_c, 0, 73, 50
2, 20736, Note_on_c, 0, 63, 33
2, 20900, Control_c, 0, 64, 72
2, 20916, Control_c, 0, 64, 127
2, 21112, Control_c, 0, 64, 72
2, 21116, Note_off_c, 0, 73, 0
2, 21120, Note_on_c, 0, 72, 50
2, 21132, Control_c, 0, 64, 0
2, 21220, Note_off_c, 0, 72, 0
2, 21500, Note_off_c, 0, 63, 0
2, 21504, Note_on_c, 0, 71, 40
2, 21504, Note_on_c, 0, 63, 12
2, 21556, Control_c, 0, 64, 40
2, 21576, Control_c, 0, 64, 104
2, 21596, Control_c, 0, 64, 127
2, 21884, Note_off_c, 0, 71, 0
2, 21884, Note_off_c, 0, 63, 0
2, 21888, Note_on_c, 0, 71, 64
2, 21888, Note_on_c, 0, 63, 42
2, 22652, Note_off_c, 0, 71, 0
2, 22652, Note_off_c, 0, 63, 0
2, 22656, Note_on_c, 0, 63, 45
2, 22656, Note_on_c, 0, 71, 53
2, 22992, Control_c, 0, 64, 72
2, 23012, Control_c, 0, 64, 0
2, 23024, Note_on_c, 0, 61, 34
2, 23036, Note_off_c, 0, 63, 0
2, 23036, Note_off_c, 0, 71, 0
2, 23040, Note_on_c, 0, 71, 63
2, 23204, Control_c, 0, 64, 72
2, 23224, Control_c, 0, 64, 127
2, 23320, Control_c, 0, 64, 88
2, 23336, Control_c, 0, 64, 0
2, 23420, Note_off_c, 0, 71, 0
2, 23424, Note_on_c, 0, 70, 46
2, 23524, Note_off_c, 0, 70, 0
2, 23724, Control_c, 0, 64, 24
2, 23744, Control_c, 0, 64, 88
2, 23764, Control_c, 0, 64, 127
2, 23788, Note_off_c, 0, 61, 64
2, 23808, Note_on_c, 0, 70, 50
2, 23808, Note_on_c, 0, 61, 42
2, 24076, Control_c, 0, 64, 24
2, 24096, Control_c, 0, 64, 0
2, 24188, Note_off_c, 0, 70, 0
2, 24188, Note_off_c, 0, 61, 0
2, 24192, Note_on_c, 0, 66, 54
2, 24192, Note_on_c, 0, 72, 70
2, 24248, Control_c, 0, 64, 56
2, 24268, Control_c, 0, 64, 127
2, 24956, Note_off_c, 0, 66, 0
2, 24956, Note_off_c, 0, 72, 0
2, 24960, Note_on_c, 0, 73, 77
2, 24960, Note_on_c, 0, 65, 67
2, 25276, Control_c, 0, 64, 40
2, 25296, Control_c, 0, 64, 0
2, 25340, Note_off_c, 0, 73, 0
2, 25340, Note_off_c, 0, 65, 0
2, 25344, Note_on_c, 0, 75, 89
2, 25344, Note_on_c, 0, 66, 88
2, 25528, Control_c, 0, 64, 56
2, 25548, Control_c, 0, 64, 127
2, 26108, Note_off_c, 0, 75, 0
2, 26108, Note_off_c, 0, 66, 0
2, 26112, Note_on_c, 0, 66, 61
2, 26112, Note_on_c, 0, 63, 67
2, 26148, Control_c, 0, 64, 72
2, 26168, Control_c, 0, 64, 0
2, 26576, Control_c, 0, 64, 40
2, 26596, Control_c, 0, 64, 88
2, 26616, Control_c, 0, 64, 127
2, 26876, Note_off_c, 0, 63, 64
2, 26876, Note_off_c, 0, 66, 64
2, 26880, Note_on_c, 0, 61, 46
2, 26880, Note_on_c, 0, 65, 49
2, 27252, Control_c, 0, 64, 56
2, 27260, Note_off_c, 0, 61, 0
2, 27260, Note_off_c, 0, 65, 0
2, 27264, Note_on_c, 0, 58, 73
2, 27264, Note_on_c, 0, 70, 81
2, 27276, Control_c, 0, 64, 0
2, 27456, Note_off_c, 0, 58, 0
2, 27456, Note_off_c, 0, 70, 0
2, 27456, Note_on_c, 0, 66, 57
2, 27648, Note_off_c, 0, 66, 0
2, 27648, Note_on_c, 0, 61, 62
2, 27648, Note_on_c, 0, 65, 58
2, 27720, Control_c, 0, 64, 127
2, 28028, Note_off_c, 0, 61, 0
2, 28028, Note_off_c, 0, 65, 0
2, 28028, Control_c, 0, 64, 88
2, 28032, Note_on_c, 0, 63, 68
2, 28032, Note_on_c, 0, 60, 62
2, 28044, Control_c, 0, 64, 0
2, 28132, Note_off_c, 0, 63, 0
2, 28132, Note_off_c, 0, 60, 0
2, 28416, Note_on_c, 0, 61, 55
2, 28416, Note_on_c, 0, 73, 75
2, 28796, Note_off_c, 0, 61, 0
2, 28796, Note_off_c, 0, 73, 0
2, 28800, Note_on_c, 0, 72, 68
2, 28800, Note_on_c, 0, 60, 55
2, 28880, Control_c, 0, 64, 56
2, 28900, Control_c, 0, 64, 88
2, 28920, Control_c, 0, 64, 127
2, 29564, Note_off_c, 0, 72, 0
2, 29564, Note_off_c, 0, 60, 0
2, 29568, Note_on_c, 0, 58, 56
2, 29568, Note_on_c, 0, 70, 67
2, 29908, Control_c, 0, 64, 56
2, 29928, Control_c, 0, 64, 0
2, 29948, Note_off_c, 0, 58, 0
2, 29948, Note_off_c, 0, 70, 0
2, 29952, Note_on_c, 0, 75, 81
2, 29952, Note_on_c, 0, 63, 64
2, 29952, Note_on_c, 0, 60, 42
2, 30052, Note_off_c, 0, 75, 0
2, 30052, Note_off_c, 0, 63, 0
2, 30052, Note_off_c, 0, 60, 0
2, 30720, Note_on_c, 0, 58, 46
2, 30720, Note_on_c, 0, 65, 47
2, 30720, Note_on_c, 0, 73, 54
2, 30820, Note_off_c, 0, 58, 0
2, 30820, Note_off_c, 0, 65, 0
2, 31104, Note_on_c, 0, 63, 43
2, 31104, Note_on_c, 0, 68, 44
2, 31192, Note_off_c, 0, 63, 0
2, 31296, Note_off_c, 0, 68, 0
2, 31484, Note_off_c, 0, 73, 0
2, 31488, Note_on_c, 0, 72, 33
2, 31588, Note_off_c, 0, 72, 0
2, 31872, Note_on_c, 0, 61, 42
2, 31872, Note_on_c, 0, 70, 41
2, 31872, Note_on_c, 0, 67, 52
2, 31972, Note_off_c, 0, 61, 0
2, 32256, Note_on_c, 0, 60, 49
2, 32356, Note_off_c, 0, 60, 0
2, 32636, Note_off_c, 0, 67, 64
2, 32636, Note_off_c, 0, 70, 64
2, 32640, Note_on_c, 0, 68, 48
2, 32740, Note_off_c, 0, 68, 0
2, 33024, Note_on_c, 0, 78, 65
2, 33024, Note_on_c, 0, 58, 47
2, 33024, Note_on_c, 0, 61, 38
2, 33024, Note_on_c, 0, 66, 55
2, 33404, Note_off_c, 0, 78, 0
2, 33404, Note_off_c, 0, 58, 0
2, 33404, Note_off_c, 0, 61, 0
2, 33404, Note_off_c, 0, 66, 0
2, 33408, Note_on_c, 0, 77, 73
2, 33408, Note_on_c, 0, 61, 39
2, 33408, Note_on_c, 0, 65, 48
2, 33704, Control_c, 0, 64, 40
2, 33728, Control_c, 0, 64, 56
2, 33744, Control_c, 0, 64, 72
2, 33756, Control_c, 0, 64, 88
2, 33800, Control_c, 0, 64, 104
2, 33844, Control_c, 0, 64, 127
2, 34172, Note_off_c, 0, 77, 0
2, 34172, Note_off_c, 0, 61, 0
2, 34172, Note_off_c, 0, 65, 0
2, 34176, Note_on_c, 0, 75, 71
2, 34176, Note_on_c, 0, 60, 53
2, 34176, Note_on_c, 0, 63, 61
2, 34556, Note_off_c, 0, 75, 0
2, 34556, Note_off_c, 0, 60, 0
2, 34556, Note_off_c, 0, 63, 0
2, 34560, Note_on_c, 0, 80, 83
2, 34560, Note_on_c, 0, 68, 69
2, 34560, Note_on_c, 0, 65, 52
2, 34560, Control_c, 0, 64, 56
2, 34576, Control_c, 0, 64, 0
2, 34660, Note_off_c, 0, 80, 0
2, 34660, Note_off_c, 0, 68, 0
2, 34660, Note_off_c, 0, 65, 0
2, 35328, Note_on_c, 0, 58, 64
2, 35328, Note_on_c, 0, 61, 54
2, 35328, Note_on_c, 0, 78, 80
2, 35328, Note_on_c, 0, 66, 74
2, 35468, Control_c, 0, 64, 24
2, 35488, Control_c, 0, 64, 56
2, 35508, Control_c, 0, 64, 88
2, 35528, Control_c, 0, 64, 127
2, 35708, Note_off_c, 0, 58, 0
2, 35708, Note_off_c, 0, 61, 0
2, 35712, Note_on_c, 0, 61, 52
2, 36092, Note_off_c, 0, 66, 0
2, 36092, Note_off_c, 0, 78, 0
2, 36096, Note_on_c, 0, 77, 70
2, 36096, Note_on_c, 0, 65, 60
2, 36196, Note_off_c, 0, 77, 0
2, 36196, Note_off_c, 0, 65, 0
2, 36360, Control_c, 0, 64, 40
2, 36380, Control_c, 0, 64, 0
2, 36476, Note_off_c, 0, 61, 0
2, 36480, Note_on_c, 0, 60, 56
2, 36480, Note_on_c, 0, 75, 77
2, 36480, Note_on_c, 0, 63, 64
2, 36580, Note_off_c, 0, 60, 0
2, 36580, Note_off_c, 0, 75, 0
2, 36580, Note_off_c, 0, 63, 0
2, 36864, Note_on_c, 0, 65, 31
2, 36864, Note_on_c, 0, 80, 83
2, 36864, Note_on_c, 0, 68, 70
2, 36964, Note_off_c, 0, 65, 0
2, 36964, Note_off_c, 0, 80, 0
2, 36964, Note_off_c, 0, 68, 0
2, 37564, Control_c, 0, 64, 24
2, 37580, Control_c, 0, 64, 40
2, 37600, Control_c, 0, 64, 72
2, 37620, Control_c, 0, 64, 88
2, 37632, Note_on_c, 0, 61, 71
2, 37632, Note_on_c, 0, 78, 94
2, 37632, Note_on_c, 0, 66, 85
2, 37632, Note_on_c, 0, 58, 81
2, 37640, Control_c, 0, 64, 127
2, 38012, Note_off_c, 0, 61, 0
2, 38012, Note_off_c, 0, 58, 0
2, 38016, Note_on_c, 0, 61, 60
2, 38396, Note_off_c, 0, 66, 0
2, 38396, Note_off_c, 0, 78, 0
2, 38400, Note_on_c, 0, 65, 50
2, 38400, Note_on_c, 0, 77, 69
2, 38500, Note_off_c, 0, 65, 0
2, 38500, Note_off_c, 0, 77, 0
2, 38624, Control_c, 0, 64, 104
2, 38648, Control_c, 0, 64, 0
2, 38780, Note_off_c, 0, 61, 0
2, 38784, Note_on_c, 0, 64, 78
2, 38784, Note_on_c, 0, 70, 88
2, 38784, Note_on_c, 0, 82, 98
2, 38784, Note_on_c, 0, 61, 79
2, 38860, Control_c, 0, 64, 40
2, 38880, Control_c, 0, 64, 127
2, 39164, Note_off_c, 0, 64, 0
2, 39168, Note_on_c, 0, 65, 66
2, 39208, Control_c, 0, 64, 40
2, 39228, Control_c, 0, 64, 0
2, 39548, Note_off_c, 0, 61, 0
2, 39548, Note_off_c, 0, 70, 64
2, 39548, Note_off_c, 0, 82, 64
2, 39548, Note_off_c, 0, 65, 0
2, 39552, Note_on_c, 0, 80, 88
2, 39552, Note_on_c, 0, 68, 66
2, 39652, Note_off_c, 0, 80, 0
2, 39652, Note_off_c, 0, 68, 0
2, 40320, Note_on_c, 0, 60, 62
2, 41088, Note_off_c, 0, 60, 0
2, 41088, Note_on_c, 0, 63, 55
2, 41280, Note_off_c, 0, 63, 0
2, 41280, Note_on_c, 0, 61, 56
2, 41472, Note_off_c, 0, 61, 0
2, 41472, Note_on_c, 0, 61, 57
2, 41852, Note_off_c, 0, 61, 0
2, 42240, Note_on_c, 0, 61, 30
2, 42240, Note_on_c, 0, 65, 38
2, 42240, Note_on_c, 0, 73, 43
2, 42384, Control_c, 0, 64, 24
2, 42408, Control_c, 0, 64, 40
2, 42428, Control_c, 0, 64, 56
2, 42448, Control_c, 0, 64, 72
2, 42464, Control_c, 0, 64, 88
2, 42484, Control_c, 0, 64, 104
2, 42504, Control_c, 0, 64, 127
2, 42620, Note_off_c, 0, 61, 0
2, 42620, Note_off_c, 0, 65, 0
2, 42620, Note_off_c, 0, 73, 0
2, 42624, Note_on_c, 0, 73, 62
2, 42624, Note_on_c, 0, 58, 50
2, 42624, Note_on_c, 0, 65, 62
2, 43388, Note_off_c, 0, 73, 0
2, 43388, Note_off_c, 0, 58, 0
2, 43388, Note_off_c, 0, 65, 0
2, 43392, Note_on_c, 0, 73, 63
2, 43392, Note_on_c, 0, 65, 52
2, 43664, Control_c, 0, 64, 104
2, 43684, Control_c, 0, 64, 0
2, 43772, Note_off_c, 0, 73, 0
2, 43772, Note_off_c, 0, 65, 0
2, 43776, Note_on_c, 0, 73, 51
2, 43776, Note_on_c, 0, 63, 33
2, 43940, Control_c, 0, 64, 72
2, 43956, Control_c, 0, 64, 127
2, 44152, Control_c, 0, 64, 72
2, 44156, Note_off_c, 0, 73, 0
2, 44160, Note_on_c, 0, 72, 50
2, 44172, Control_c, 0, 64, 0
2, 44260, Note_off_c, 0, 72, 0
2, 44540, Note_off_c, 0, 63, 0
2, 44544, Note_on_c, 0, 71, 40
2, 44544, Note_on_c, 0, 63, 12
2, 44596, Control_c, 0, 64, 40
2, 44616, Control_c, 0, 64, 104
2, 44636, Control_c, 0, 64, 127
2, 44924, Note_off_c, 0, 71, 0
2, 44924, Note_off_c, 0, 63, 0
2, 44928, Note_on_c, 0, 71, 64
2, 44928, Note_on_c, 0, 63, 42
2, 45692, Note_off_c, 0, 71, 0
2, 45692, Note_off_c, 0, 63, 0
2, 45696, Note_on_c, 0, 63, 45
2, 45696, Note_on_c, 0, 71, 53
2, 46032, Control_c, 0, 64, 72
2, 46052, Control_c, 0, 64, 0
2, 46064, Note_on_c, 0, 61, 34
2, 46076, Note_off_c, 0, 63, 0
2, 46076, Note_off_c, 0, 71, 0
2, 46080, Note_on_c, 0, 71, 63
2, 46244, Control_c, 0, 64, 72
2, 46264, Control_c, 0, 64, 127
2, 46360, Control_c, 0, 64, 88
2, 46376, Control_c, 0, 64, 0
2, 46460, Note_off_c, 0, 71, 0
2, 46464, Note_on_c, 0, 70, 46
2, 46564, Note_off_c, 0, 70, 0
2, 46764, Control_c, 0, 64, 24
2, 46784, Control_c, 0, 64, 88
2, 46804, Control_c, 0, 64, 127
2, 46828, Note_off_c, 0, 61, 64
2, 46848, Note_on_c, 0, 70, 50
2, 46848, Note_on_c, 0, 61, 42
2, 47116, Control_c, 0, 64, 24
2, 47136, Control_c, 0, 64, 0
2, 47228, Note_off_c, 0, 70, 0
2, 47228, Note_off_c, 0, 61, 0
2, 47232, Note_on_c, 0, 66, 54
2, 47232, Note_on_c, 0, 72, 70
2, 47288, Control_c, 0, 64, 56
2, 47308, Control_c, 0, 64, 127
2, 47996, Note_off_c, 0, 66, 0
2, 47996, Note_off_c, 0, 72, 0
2, 48000, Note_on_c, 0, 73, 77
2, 48000, Note_on_c, 0, 65, 67
2, 48316, Control_c, 0, 64, 40
2, 48336, Control_c, 0, 64, 0
2, 48380, Note_off_c, 0, 73, 0
2, 48380, Note_off_c, 0, 65, 0
2, 48384, Note_on_c, 0, 75, 89
2, 48384, Note_on_c, 0, 66, 88
2, 48568, Control_c, 0, 64, 56
2, 48588, Control_c, 0, 64, 127
2, 49148, Note_off_c, 0, 75, 0
2, 49148, Note_off_c, 0, 66, 0
2, 49152, Note_on_c, 0, 66, 61
2, 49152, Note_on_c, 0, 63, 67
2, 49188, Control_c, 0, 64, 72
2, 49208, Control_c, 0, 64, 0
2, 49616, Control_c, 0, 64, 40
2, 49636, Control_c, 0, 64, 88
2, 49656, Control_c, 0, 64, 127
2, 49916, Note_off_c, 0, 63, 64
2, 49916, Note_off_c, 0, 66, 64
2, 49920, Note_on_c, 0, 61, 46
2, 49920, Note_on_c, 0, 65, 49
2, 50292, Control_c, 0, 64, 56
2, 50300, Note_off_c, 0, 61, 0
2, 50300, Note_off_c, 0, 65, 0
2, 50304, Note_on_c, 0, 58, 73
2, 50304, Note_on_c, 0, 70, 81
2, 50316, Control_c, 0, 64, 0
2, 50496, Note_off_c, 0, 58, 0
2, 50496, Note_off_c, 0, 70, 0
2, 50496, Note_on_c, 0, 66, 57
2, 50688, Note_off_c, 0, 66, 0
2, 50688, Note_on_c, 0, 61, 62
2, 50688, Note_on_c, 0, 65, 58
2, 50760, Control_c, 0, 64, 127
2, 51068, Note_off_c, 0, 61, 0
2, 51068, Note_off_c, 0, 65, 0
2, 51068, Control_c, 0, 64, 88
2, 51072, Note_on_c, 0, 63, 68
2, 51072, Note_on_c, 0, 60, 62
2, 51084, Control_c, 0, 64, 0
2, 51172, Note_off_c, 0, 63, 0
2, 51172, Note_off_c, 0, 60, 0
2, 51456, Note_on_c, 0, 61, 55
2, 51456, Note_on_c, 0, 73, 75
2, 51836, Note_off_c, 0, 61, 0
2, 51836, Note_off_c, 0, 73, 0
2, 51840, Note_on_c, 0, 72, 68
2, 51840, Note_on_c, 0, 60, 55
2, 51920, Control_c, 0, 64, 56
2, 51940, Control_c, 0, 64, 88
2, 51960, Control_c, 0, 64, 127
2, 52604, Note_off_c, 0, 72, 0
2, 52604, Note_off_c, 0, 60, 0
2, 52608, Note_on_c, 0, 58, 56
2, 52608, Note_on_c, 0, 70, 67
2, 52948, Control_c, 0, 64, 56
2, 52968, Control_c, 0, 64, 0
2, 52988, Note_off_c, 0, 58, 0
2, 52988, Note_off_c, 0, 70, 0
2, 52992, Note_on_c, 0, 75, 81
2, 52992, Note_on_c, 0, 63, 64
2, 52992, Note_on_c, 0, 60, 42
2, 53092, Note_off_c, 0, 75, 0
2, 53092, Note_off_c, 0, 63, 0
2, 53092, Note_off_c, 0, 60, 0
2, 53760, Note_on_c, 0, 58, 46
2, 53760, Note_on_c, 0, 65, 47
2, 53760, Note_on_c, 0, 73, 54
2, 53860, Note_off_c, 0, 58, 0
2, 53860, Note_off_c, 0, 65, 0
2, 54144, Note_on_c, 0, 63, 43
2, 54144, Note_on_c, 0, 68, 44
2, 54232, Note_off_c, 0, 63, 0
2, 54336, Note_off_c, 0, 68, 0
2, 54524, Note_off_c, 0, 73, 64
2, 54528, Note_on_c, 0, 72, 33
2, 54628, Note_off_c, 0, 72, 0
2, 54912, Note_on_c, 0, 61, 42
2, 54912, Note_on_c, 0, 70, 41
2, 54912, Note_on_c, 0, 67, 52
2, 55012, Note_off_c, 0, 61, 0
2, 55296, Note_on_c, 0, 60, 49
2, 55396, Note_off_c, 0, 60, 0
2, 55676, Note_off_c, 0, 67, 64
2, 55676, Note_off_c, 0, 70, 64
2, 55680, Note_on_c, 0, 68, 48
2, 55780, Note_off_c, 0, 68, 0
2, 56064, Note_on_c, 0, 78, 65
2, 56064, Note_on_c, 0, 58, 47
2, 56064, Note_on_c, 0, 61, 38
2, 56064, Note_on_c, 0, 66, 55
2, 56444, Note_off_c, 0, 78, 0
2, 56444, Note_off_c, 0, 58, 0
2, 56444, Note_off_c, 0, 61, 0
2, 56444, Note_off_c, 0, 66, 0
2, 56448, Note_on_c, 0, 77, 73
2, 56448, Note_on_c, 0, 61, 39
2, 56448, Note_on_c, 0, 65, 48
2, 56744, Control_c, 0, 64, 40
2, 56768, Control_c, 0, 64, 56
2, 56784, Control_c, 0, 64, 72
2, 56796, Control_c, 0, 64, 88
2, 56840, Control_c, 0, 64, 104
2, 56884, Control_c, 0, 64, 127
2, 57212, Note_off_c, 0, 77, 0
2, 57212, Note_off_c, 0, 61, 0
2, 57212, Note_off_c, 0, 65, 0
2, 57216, Note_on_c, 0, 75, 71
2, 57216, Note_on_c, 0, 60, 53
2, 57216, Note_on_c, 0, 63, 61
2, 57596, Note_off_c, 0, 75, 0
2, 57596, Note_off_c, 0, 60, 0
2, 57596, Note_off_c, 0, 63, 0
2, 57600, Note_on_c, 0, 80, 83
2, 57600, Note_on_c, 0, 68, 69
2, 57600, Note_on_c, 0, 65, 52
2, 57600, Control_c, 0, 64, 56
2, 57616, Control_c, 0, 64, 0
2, 57700, Note_off_c, 0, 80, 0
2, 57700, Note_off_c, 0, 68, 0
2, 57700, Note_off_c, 0, 65, 0
2, 58368, Note_on_c, 0, 58, 64
2, 58368, Note_on_c, 0, 61, 54
2, 58368, Note_on_c, 0, 78, 80
2, 58368, Note_on_c, 0, 66, 74
2, 58508, Control_c, 0, 64, 24
2, 58528, Control_c, 0, 64, 56
2, 58548, Control_c, 0, 64, 88
2, 58568, Control_c, 0, 64, 127
2, 58748, Note_off_c, 0, 58, 0
2, 58748, Note_off_c, 0, 61, 0
2, 58752, Note_on_c, 0, 61, 52
2, 59132, Note_off_c, 0, 66, 0
2, 59132, Note_off_c, 0, 78, 0
2, 59136, Note_on_c, 0, 77, 70
2, 59136, Note_on_c, 0, 65, 60
2, 59236, Note_off_c, 0, 77, 0
2, 59236, Note_off_c, 0, 65, 0
2, 59400, Control_c, 0, 64, 40
2, 59420, Control_c, 0, 64, 0
2, 59516, Note_off_c, 0, 61, 0
2, 59520, Note_on_c, 0, 60, 56
2, 59520, Note_on_c, 0, 75, 77
2, 59520, Note_on_c, 0, 63, 64
2, 59620, Note_off_c, 0, 60, 0
2, 59620, Note_off_c, 0, 75, 0
2, 59620, Note_off_c, 0, 63, 0
2, 59904, Note_on_c, 0, 65, 31
2, 59904, Note_on_c, 0, 80, 83
2, 59904, Note_on_c, 0, 68, 70
2, 60004, Note_off_c, 0, 65, 0
2, 60004, Note_off_c, 0, 80, 0
2, 60004, Note_off_c, 0, 68, 0
2, 60604, Control_c, 0, 64, 24
2, 60620, Control_c, 0, 64, 40
2, 60640, Control_c, 0, 64, 72
2, 60660, Control_c, 0, 64, 88
2, 60672, Note_on_c, 0, 61, 71
2, 60672, Note_on_c, 0, 78, 94
2, 60672, Note_on_c, 0, 66, 85
2, 60672, Note_on_c, 0, 58, 81
2, 60680, Control_c, 0, 64, 127
2, 61052, Note_off_c, 0, 61, 0
2, 61052, Note_off_c, 0, 58, 0
2, 61056, Note_on_c, 0, 61, 60
2, 61436, Note_off_c, 0, 66, 0
2, 61436, Note_off_c, 0, 78, 0
2, 61440, Note_on_c, 0, 65, 50
2, 61440, Note_on_c, 0, 77, 69
2, 61540, Note_off_c, 0, 65, 0
2, 61540, Note_off_c, 0, 77, 0
2, 61664, Control_c, 0, 64, 104
2, 61688, Control_c, 0, 64, 0
2, 61820, Note_off_c, 0, 61, 0
2, 61824, Note_on_c, 0, 64, 78
2, 61824, Note_on_c, 0, 70, 88
2, 61824, Note_on_c, 0, 82, 98
2, 61824, Note_on_c, 0, 61, 79
2, 61900, Control_c, 0, 64, 40
2, 61920, Control_c, 0, 64, 127
2, 62204, Note_off_c, 0, 64, 0
2, 62208, Note_on_c, 0, 65, 66
2, 62248, Control_c, 0, 64, 40
2, 62268, Control_c, 0, 64, 0
2, 62588, Note_off_c, 0, 61, 0
2, 62588, Note_off_c, 0, 70, 64
2, 62588, Note_off_c, 0, 82, 64
2, 62588, Note_off_c, 0, 65, 0
2, 62592, Note_on_c, 0, 80, 88
2, 62592, Note_on_c, 0, 68, 66
2, 62692, Note_off_c, 0, 80, 0
2, 62692, Note_off_c, 0, 68, 0
2, 63360, Note_on_c, 0, 60, 62
2, 64128, Note_off_c, 0, 60, 0
2, 64128, Note_on_c, 0, 63, 55
2, 64320, Note_off_c, 0, 63, 0
2, 64320, Note_on_c, 0, 61, 56
2, 64512, Note_off_c, 0, 61, 0
2, 64512, Note_on_c, 0, 61, 57
2, 64892, Note_off_c, 0, 61, 0
2, 65280, Note_on_c, 0, 65, 87
2, 65280, Note_on_c, 0, 53, 84
2, 66428, Note_off_c, 0, 53, 0
2, 66428, Note_off_c, 0, 65, 0
2, 66432, Note_on_c, 0, 66, 87
2, 66432, Note_on_c, 0, 54, 79
2, 67580, Note_off_c, 0, 54, 0
2, 67580, Note_off_c, 0, 66, 0
2, 67584, Note_on_c, 0, 75, 91
2, 67584, Note_on_c, 0, 63, 85
2, 68348, Note_off_c, 0, 63, 0
2, 68348, Note_off_c, 0, 75, 0
2, 68352, Note_on_c, 0, 72, 66
2, 68352, Note_on_c, 0, 60, 59
2, 68476, Note_off_c, 0, 72, 0
2, 68476, Note_off_c, 0, 60, 0
2, 68736, Note_on_c, 0, 68, 71
2, 68736, Note_on_c, 0, 56, 64
2, 68860, Note_off_c, 0, 68, 0
2, 68860, Note_off_c, 0, 56, 0
2, 69120, Note_on_c, 0, 73, 74
2, 69120, Note_on_c, 0, 61, 61
2, 69500, Note_off_c, 0, 73, 0
2, 69500, Note_off_c, 0, 61, 0
2, 69504, Note_on_c, 0, 77, 66
2, 69504, Note_on_c, 0, 65, 59
2, 69628, Note_off_c, 0, 77, 0
2, 69628, Note_off_c, 0, 65, 0
2, 72192, Note_on_c, 0, 78, 84
2, 72192, Note_on_c, 0, 66, 78
2, 72956, Note_off_c, 0, 66, 0
2, 72956, Note_off_c, 0, 78, 0
2, 72960, Note_on_c, 0, 70, 62
2, 72960, Note_on_c, 0, 82, 71
2, 73340, Note_off_c, 0, 70, 0
2, 73340, Note_off_c, 0, 82, 0
2, 73344, Note_on_c, 0, 72, 46
2, 73344, Note_on_c, 0, 60, 44
2, 73468, Note_off_c, 0, 72, 0
2, 73468, Note_off_c, 0, 60, 0
2, 73728, Note_on_c, 0, 63, 60
2, 73728, Note_on_c, 0, 75, 62
2, 74108, Note_off_c, 0, 63, 0
2, 74108, Note_off_c, 0, 75, 0
2, 74112, Note_on_c, 0, 73, 57
2, 74112, Note_on_c, 0, 61, 34
2, 74236, Note_off_c, 0, 73, 0
2, 74236, Note_off_c, 0, 61, 0
2, 74496, Note_on_c, 0, 65, 87
2, 74496, Note_on_c, 0, 53, 84
2, 75644, Note_off_c, 0, 53, 0
2, 75644, Note_off_c, 0, 65, 0
2, 75648, Note_on_c, 0, 66, 87
2, 75648, Note_on_c, 0, 54, 79
2, 76796, Note_off_c, 0, 54, 0
2, 76796, Note_off_c, 0, 66, 0
2, 76800, Note_on_c, 0, 75, 91
2, 76800, Note_on_c, 0, 63, 85
2, 77564, Note_off_c, 0, 63, 0
2, 77564, Note_off_c, 0, 75, 0
2, 77568, Note_on_c, 0, 72, 66
2, 77568, Note_on_c, 0, 60, 59
2, 77692, Note_off_c, 0, 72, 0
2, 77692, Note_off_c, 0, 60, 0
2, 77952, Note_on_c, 0, 68, 71
2, 77952, Note_on_c, 0, 56, 64
2, 78076, Note_off_c, 0, 68, 0
2, 78076, Note_off_c, 0, 56, 0
2, 78336, Note_on_c, 0, 73, 74
2, 78336, Note_on_c, 0, 61, 61
2, 78716, Note_off_c, 0, 73, 0
2, 78716, Note_off_c, 0, 61, 0
2, 78720, Note_on_c, 0, 77, 66
2, 78720, Note_on_c, 0, 65, 59
2, 78844, Note_off_c, 0, 77, 0
2, 78844, Note_off_c, 0, 65, 0
2, 81408, Note_on_c, 0, 78, 84
2, 81408, Note_on_c, 0, 66, 78
2, 82172, Note_off_c, 0, 66, 0
2, 82172, Note_off_c, 0, 78, 0
2, 82176, Note_on_c, 0, 70, 62
2, 82176, Note_on_c, 0, 82, 71
2, 82556, Note_off_c, 0, 70, 0
2, 82556, Note_off_c, 0, 82, 0
2, 82560, Note_on_c, 0, 72, 46
2, 82560, Note_on_c, 0, 60, 44
2, 82684, Note_off_c, 0, 72, 0
2, 82684, Note_off_c, 0, 60, 0
2, 82944, Note_on_c, 0, 63, 60
2, 82944, Note_on_c, 0, 75, 62
2, 83324, Note_off_c, 0, 63, 0
2, 83324, Note_off_c, 0, 75, 0
2, 83328, Note_on_c, 0, 73, 57
2, 83328, Note_on_c, 0, 61, 34
2, 83452, Note_off_c, 0, 73, 0
2, 83452, Note_off_c, 0, 61, 0
2, 83712, Note_on_c, 0, 77, 58
2, 83712, Note_on_c, 0, 65, 43
2, 84860, Note_off_c, 0, 65, 0
2, 84860, Note_off_c, 0, 77, 0
2, 84864, Note_on_c, 0, 70, 37
2, 84864, Note_on_c, 0, 58, 45
2, 86012, Note_off_c, 0, 58, 0
2, 86012, Note_off_c, 0, 70, 0
2, 86016, Note_on_c, 0, 75, 39
2, 86016, Note_on_c, 0, 63, 28
2, 87164, Note_off_c, 0, 63, 0
2, 87164, Note_off_c, 0, 75, 0
2, 88320, Note_on_c, 0, 73, 62
2, 88320, Note_on_c, 0, 61, 56
2, 89468, Note_off_c, 0, 61, 0
2, 89468, Note_off_c, 0, 73, 0
2, 91392, Note_on_c, 0, 68, 73
2, 91392, Note_on_c, 0, 56, 69
2, 91772, Note_off_c, 0, 68, 0
2, 91772, Note_off_c, 0, 56, 0
2, 91776, Note_on_c, 0, 71, 78
2, 91776, Note_on_c, 0, 59, 69
2, 92540, Note_off_c, 0, 59, 0
2, 92540, Note_off_c, 0, 71, 0
2, 92544, Note_on_c, 0, 70, 55
2, 92544, Note_on_c, 0, 58, 34
2, 92668, Note_off_c, 0, 70, 0
2, 92668, Note_off_c, 0, 58, 0
2, 92928, Note_on_c, 0, 73, 48
2, 92928, Note_on_c, 0, 61, 25
2, 94076, Note_off_c, 0, 61, 0
2, 94076, Note_off_c, 0, 73, 0
2, 96384, Note_on_c, 0, 64, 39
2, 96384, Note_on_c, 0, 52, 34
2, 97532, Note_off_c, 0, 52, 0
2, 97532, Note_off_c, 0, 64, 0
2, 97536, Note_on_c, 0, 65, 45
2, 97536, Note_on_c, 0, 53, 38
2, 98684, Note_off_c, 0, 53, 0
2, 98684, Note_off_c, 0, 65, 0
2, 100608, Note_on_c, 0, 66, 83
2, 100608, Note_on_c, 0, 54, 77
2, 100732, Note_off_c, 0, 66, 0
2, 100732, Note_off_c, 0, 54, 0
2, 100992, Note_on_c, 0, 60, 49
2, 100992, Note_on_c, 0, 48, 32
2, 101116, Note_off_c, 0, 60, 0
2, 101116, Note_off_c, 0, 48, 0
2, 102144, Note_on_c, 0, 77, 58
2, 102144, Note_on_c, 0, 65, 43
2, 103292, Note_off_c, 0, 65, 0
2, 103292, Note_off_c, 0, 77, 0
2, 103296, Note_on_c, 0, 70, 37
2, 103296, Note_on_c, 0, 58, 45
2, 104444, Note_off_c, 0, 58, 0
2, 104444, Note_off_c, 0, 70, 0
2, 104448, Note_on_c, 0, 75, 39
2, 104448, Note_on_c, 0, 63, 28
2, 105596, Note_off_c, 0, 63, 0
2, 105596, Note_off_c, 0, 75, 0
2, 106752, Note_on_c, 0, 73, 67
2, 106752, Note_on_c, 0, 61, 43
2, 107900, Note_off_c, 0, 61, 0
2, 107900, Note_off_c, 0, 73, 0
2, 109824, Note_on_c, 0, 68, 73
2, 109824, Note_on_c, 0, 56, 69
2, 110204, Note_off_c, 0, 68, 0
2, 110204, Note_off_c, 0, 56, 0
2, 110208, Note_on_c, 0, 71, 78
2, 110208, Note_on_c, 0, 59, 69
2, 110972, Note_off_c, 0, 59, 0
2, 110972, Note_off_c, 0, 71, 0
2, 110976, Note_on_c, 0, 70, 55
2, 110976, Note_on_c, 0, 58, 34
2, 111100, Note_off_c, 0, 70, 0
2, 111100, Note_off_c, 0, 58, 0
2, 111360, Note_on_c, 0, 73, 48
2, 111360, Note_on_c, 0, 61, 25
2, 112508, Note_off_c, 0, 61, 0
2, 112508, Note_off_c, 0, 73, 0
2, 114816, Note_on_c, 0, 64, 39
2, 114816, Note_on_c, 0, 52, 34
2, 115964, Note_off_c, 0, 52, 0
2, 115964, Note_off_c, 0, 64, 0
2, 115968, Note_on_c, 0, 65, 45
2, 115968, Note_on_c, 0, 53, 38
2, 117116, Note_off_c, 0, 53, 0
2, 117116, Note_off_c, 0, 65, 0
2, 119040, Note_on_c, 0, 66, 83
2, 119040, Note_on_c, 0, 54, 77
2, 119164, Note_off_c, 0, 66, 0
2, 119164, Note_off_c, 0, 54, 0
2, 119424, Note_on_c, 0, 60, 49
2, 119424, Note_on_c, 0, 48, 32
2, 119548, Note_off_c, 0, 60, 0
2, 119548, Note_off_c, 0, 48, 0
2, 120576, Note_on_c, 0, 73, 60
2, 120576, Note_on_c, 0, 65, 50
2, 120576, Note_on_c, 0, 68, 50
2, 120956, Note_off_c, 0, 73, 0
2, 120956, Note_off_c, 0, 65, 0
2, 120956, Note_off_c, 0, 68, 0
2, 120960, Note_on_c, 0, 68, 37
2, 120960, Note_on_c, 0, 72, 60
2, 120960, Note_on_c, 0, 63, 45
2, 121724, Note_off_c, 0, 68, 0
2, 121724, Note_off_c, 0, 72, 0
2, 121724, Note_off_c, 0, 63, 0
2, 121728, Note_on_c, 0, 70, 55
2, 121728, Note_on_c, 0, 67, 60
2, 121728, Note_on_c, 0, 61, 49
2, 122108, Note_off_c, 0, 70, 0
2, 122108, Note_off_c, 0, 67, 0
2, 122108, Note_off_c, 0, 61, 0
2, 122112, Note_on_c, 0, 75, 60
2, 122112, Note_on_c, 0, 60, 53
2, 122112, Note_on_c, 0, 68, 50
2, 122212, Note_off_c, 0, 75, 0
2, 122212, Note_off_c, 0, 60, 0
2, 122212, Note_off_c, 0, 68, 0
2, 122880, Note_on_c, 0, 58, 53
2, 122880, Note_on_c, 0, 73, 55
2, 122880, Note_on_c, 0, 65, 52
2, 122980, Note_off_c, 0, 58, 0
2, 122980, Note_off_c, 0, 73, 0
2, 122980, Note_off_c, 0, 65, 0
2, 123264, Note_on_c, 0, 63, 67
2, 123264, Note_on_c, 0, 72, 70
2, 123264, Note_on_c, 0, 68, 54
2, 123364, Note_off_c, 0, 63, 0
2, 123364, Note_off_c, 0, 72, 0
2, 123364, Note_off_c, 0, 68, 0
2, 124032, Note_on_c, 0, 70, 56
2, 124032, Note_on_c, 0, 61, 35
2, 124032, Note_on_c, 0, 67, 55
2, 124132, Note_off_c, 0, 70, 0
2, 124132, Note_off_c, 0, 61, 0
2, 124132, Note_off_c, 0, 67, 0
2, 124416, Note_on_c, 0, 60, 55
2, 124416, Note_on_c, 0, 68, 69
2, 124516, Note_off_c, 0, 60, 0
2, 124516, Note_off_c, 0, 68, 0
2, 125184, Note_on_c, 0, 73, 89
2, 125184, Note_on_c, 0, 78, 88
2, 125184, Note_on_c, 0, 70, 72
2, 125564, Note_off_c, 0, 73, 0
2, 125564, Note_off_c, 0, 78, 0
2, 125564, Note_off_c, 0, 70, 0
2, 125568, Note_on_c, 0, 73, 71
2, 125568, Note_on_c, 0, 68, 74
2, 125568, Note_on_c, 0, 77, 84
2, 126332, Note_off_c, 0, 73, 0
2, 126332, Note_off_c, 0, 68, 0
2, 126332, Note_off_c, 0, 77, 0
2, 126336, Note_on_c, 0, 75, 77
2, 126336, Note_on_c, 0, 72, 73
2, 126336, Note_on_c, 0, 66, 69
2, 126716, Note_off_c, 0, 75, 0
2, 126716, Note_off_c, 0, 72, 0
2, 126716, Note_off_c, 0, 66, 0
2, 126720, Note_on_c, 0, 65, 72
2, 126720, Note_on_c, 0, 73, 84
2, 126720, Note_on_c, 0, 80, 88
2, 127100, Note_off_c, 0, 65, 0
2, 127100, Note_off_c, 0, 73, 0
2, 127100, Note_off_c, 0, 80, 0
2, 127488, Note_on_c, 0, 78, 68
2, 127488, Note_on_c, 0, 63, 54
2, 127488, Note_on_c, 0, 70, 55
2, 127588, Note_off_c, 0, 78, 0
2, 127588, Note_off_c, 0, 63, 0
2, 127588, Note_off_c, 0, 70, 0
2, 127872, Note_on_c, 0, 68, 56
2, 127872, Note_on_c, 0, 77, 70
2, 127872, Note_on_c, 0, 73, 42
2, 127972, Note_off_c, 0, 68, 0
2, 127972, Note_off_c, 0, 77, 0
2, 127972, Note_off_c, 0, 73, 0
2, 128640, Note_on_c, 0, 75, 61
2, 128640, Note_on_c, 0, 66, 39
2, 128640, Note_on_c, 0, 72, 34
2, 128740, Note_off_c, 0, 75, 0
2, 128740, Note_off_c, 0, 66, 0
2, 128740, Note_off_c, 0, 72, 0
2, 129024, Note_on_c, 0, 65, 54
2, 129024, Note_on_c, 0, 61, 60
2, 129024, Note_on_c, 0, 73, 73
2, 129124, Note_off_c, 0, 65, 0
2, 129124, Note_off_c, 0, 61, 0
2, 129124, Note_off_c, 0, 73, 0
2, 129792, Note_on_c, 0, 73, 76
2, 129792, Note_on_c, 0, 61, 67
2, 130556, Note_off_c, 0, 61, 64
2, 130556, Note_off_c, 0, 73, 64
2, 130560, Note_on_c, 0, 72, 70
2, 130560, Note_on_c, 0, 60, 55
2, 130660, Note_off_c, 0, 72, 0
2, 130660, Note_off_c, 0, 60, 0
2, 130944, Note_on_c, 0, 58, 53
2, 130944, Note_on_c, 0, 70, 53
2, 131036, Control_c, 0, 64, 56
2, 131056, Control_c, 0, 64, 72
2, 131076, Control_c, 0, 64, 88
2, 131096, Control_c, 0, 64, 104
2, 131116, Control_c, 0, 64, 127
2, 131192, Control_c, 0, 64, 56
2, 131212, Control_c, 0, 64, 0
2, 131324, Note_off_c, 0, 58, 0
2, 131328, Note_on_c, 0, 63, 73
2, 131328, Note_on_c, 0, 60, 53
2, 131428, Note_off_c, 0, 63, 0
2, 131428, Note_off_c, 0, 60, 0
2, 131708, Note_off_c, 0, 70, 64
2, 131712, Note_on_c, 0, 75, 69
2, 131812, Note_off_c, 0, 75, 0
2, 132096, Note_on_c, 0, 58, 44
2, 132096, Note_on_c, 0, 65, 40
2, 132096, Note_on_c, 0, 73, 71
2, 132196, Note_off_c, 0, 58, 0
2, 132196, Note_off_c, 0, 65, 0
2, 132480, Note_on_c, 0, 68, 59
2, 132480, Note_on_c, 0, 63, 60
2, 132580, Note_off_c, 0, 68, 0
2, 132580, Note_off_c, 0, 63, 0
2, 132860, Note_off_c, 0, 73, 64
2, 132864, Note_on_c, 0, 72, 39
2, 132964, Note_off_c, 0, 72, 0
2, 133248, Note_on_c, 0, 61, 44
2, 133248, Note_on_c, 0, 70, 43
2, 133248, Note_on_c, 0, 67, 59
2, 133348, Note_off_c, 0, 61, 0
2, 133348, Note_off_c, 0, 67, 0
2, 133632, Note_on_c, 0, 60, 60
2, 133732, Note_off_c, 0, 60, 0
2, 134012, Note_off_c, 0, 70, 64
2, 134016, Note_on_c, 0, 68, 53
2, 134116, Note_off_c, 0, 68, 0
2, 134400, Note_on_c, 0, 61, 51
2, 134400, Note_on_c, 0, 78, 77
2, 134400, Note_on_c, 0, 66, 69
2, 134400, Note_on_c, 0, 58, 65
2, 134780, Note_off_c, 0, 61, 0
2, 134780, Note_off_c, 0, 58, 0
2, 134784, Note_on_c, 0, 61, 47
2, 135164, Note_off_c, 0, 66, 64
2, 135164, Note_off_c, 0, 78, 64
2, 135168, Note_on_c, 0, 77, 79
2, 135168, Note_on_c, 0, 65, 57
2, 135268, Note_off_c, 0, 77, 0
2, 135268, Note_off_c, 0, 65, 0
2, 135548, Note_off_c, 0, 61, 0
2, 135552, Note_on_c, 0, 63, 44
2, 135552, Note_on_c, 0, 75, 65
2, 135552, Note_on_c, 0, 60, 72
2, 135652, Note_off_c, 0, 63, 0
2, 135652, Note_off_c, 0, 60, 0
2, 135936, Note_on_c, 0, 68, 71
2, 135936, Note_on_c, 0, 65, 64
2, 136036, Note_off_c, 0, 68, 0
2, 136036, Note_off_c, 0, 65, 0
2, 136316, Note_off_c, 0, 75, 64
2, 136320, Note_on_c, 0, 80, 77
2, 136420, Note_off_c, 0, 80, 0
2, 136704, Note_on_c, 0, 63, 40
2, 136704, Note_on_c, 0, 70, 43
2, 136704, Note_on_c, 0, 78, 57
2, 136804, Note_off_c, 0, 63, 0
2, 136804, Note_off_c, 0, 70, 0
2, 137088, Note_on_c, 0, 73, 62
2, 137088, Note_on_c, 0, 68, 37
2, 137188, Note_off_c, 0, 73, 0
2, 137188, Note_off_c, 0, 68, 0
2, 137468, Note_off_c, 0, 78, 64
2, 137472, Note_on_c, 0, 77, 41
2, 137572, Note_off_c, 0, 77, 0
2, 137856, Note_on_c, 0, 66, 39
2, 137856, Note_on_c, 0, 75, 38
2, 137856, Note_on_c, 0, 72, 50
2, 137956, Note_off_c, 0, 66, 0
2, 137956, Note_off_c, 0, 72, 0
2, 138240, Note_on_c, 0, 65, 51
2, 138240, Note_on_c, 0, 61, 35
2, 138340, Note_off_c, 0, 65, 0
2, 138340, Note_off_c, 0, 61, 0
2, 138620, Note_off_c, 0, 75, 64
2, 138624, Note_on_c, 0, 73, 42
2, 138724, Note_off_c, 0, 73, 0
2, 139008, Note_on_c, 0, 61, 30
2, 139008, Note_on_c, 0, 65, 38
2, 139008, Note_on_c, 0, 73, 43
2, 139152, Control_c, 0, 64, 24
2, 139176, Control_c, 0, 64, 40
2, 139196, Control_c, 0, 64, 56
2, 139216, Control_c, 0, 64, 72
2, 139232, Control_c, 0, 64, 88
2, 139252, Control_c, 0, 64, 104
2, 139272, Control_c, 0, 64, 127
2, 139388, Note_off_c, 0, 61, 0
2, 139388, Note_off_c, 0, 65, 0
2, 139388, Note_off_c, 0, 73, 0
2, 139392, Note_on_c, 0, 73, 62
2, 139392, Note_on_c, 0, 58, 50
2, 139392, Note_on_c, 0, 65, 62
2, 140156, Note_off_c, 0, 73, 0
2, 140156, Note_off_c, 0, 58, 0
2, 140156, Note_off_c, 0, 65, 0
2, 140160, Note_on_c, 0, 73, 63
2, 140160, Note_on_c, 0, 65, 52
2, 140432, Control_c, 0, 64, 104
2, 140452, Control_c, 0, 64, 0
2, 140540, Note_off_c, 0, 73, 0
2, 140540, Note_off_c, 0, 65, 0
2, 140544, Note_on_c, 0, 73, 52
2, 140544, Note_on_c, 0, 63, 33
2, 140708, Control_c, 0, 64, 72
2, 140724, Control_c, 0, 64, 127
2, 140920, Control_c, 0, 64, 72
2, 140924, Note_off_c, 0, 73, 0
2, 140928, Note_on_c, 0, 72, 50
2, 140940, Control_c, 0, 64, 0
2, 141028, Note_off_c, 0, 72, 0
2, 141308, Note_off_c, 0, 63, 0
2, 141312, Note_on_c, 0, 71, 40
2, 141312, Note_on_c, 0, 63, 12
2, 141364, Control_c, 0, 64, 40
2, 141384, Control_c, 0, 64, 104
2, 141404, Control_c, 0, 64, 127
2, 141692, Note_off_c, 0, 71, 0
2, 141692, Note_off_c, 0, 63, 0
2, 141696, Note_on_c, 0, 71, 64
2, 141696, Note_on_c, 0, 63, 42
2, 142460, Note_off_c, 0, 71, 0
2, 142460, Note_off_c, 0, 63, 0
2, 142464, Note_on_c, 0, 63, 45
2, 142464, Note_on_c, 0, 71, 53
2, 142800, Control_c, 0, 64, 72
2, 142820, Control_c, 0, 64, 0
2, 142832, Note_on_c, 0, 61, 34
2, 142844, Note_off_c, 0, 63, 0
2, 142844, Note_off_c, 0, 71, 0
2, 142848, Note_on_c, 0, 71, 63
2, 143012, Control_c, 0, 64, 72
2, 143032, Control_c, 0, 64, 127
2, 143128, Control_c, 0, 64, 88
2, 143144, Control_c, 0, 64, 0
2, 143228, Note_off_c, 0, 71, 0
2, 143232, Note_on_c, 0, 70, 46
2, 143332, Note_off_c, 0, 70, 0
2, 143532, Control_c, 0, 64, 24
2, 143552, Control_c, 0, 64, 88
2, 143572, Control_c, 0, 64, 127
2, 143596, Note_off_c, 0, 61, 64
2, 143616, Note_on_c, 0, 70, 50
2, 143616, Note_on_c, 0, 61, 42
2, 143884, Control_c, 0, 64, 24
2, 143904, Control_c, 0, 64, 0
2, 143996, Note_off_c, 0, 70, 0
2, 143996, Note_off_c, 0, 61, 0
2, 144000, Note_on_c, 0, 66, 54
2, 144000, Note_on_c, 0, 72, 70
2, 144056, Control_c, 0, 64, 56
2, 144076, Control_c, 0, 64, 127
2, 144764, Note_off_c, 0, 66, 0
2, 144764, Note_off_c, 0, 72, 0
2, 144768, Note_on_c, 0, 73, 77
2, 144768, Note_on_c, 0, 65, 67
2, 145084, Control_c, 0, 64, 40
2, 145104, Control_c, 0, 64, 0
2, 145148, Note_off_c, 0, 73, 0
2, 145148, Note_off_c, 0, 65, 0
2, 145152, Note_on_c, 0, 75, 89
2, 145152, Note_on_c, 0, 66, 88
2, 145336, Control_c, 0, 64, 56
2, 145356, Control_c, 0, 64, 127
2, 145916, Note_off_c, 0, 75, 0
2, 145916, Note_off_c, 0, 66, 0
2, 145920, Note_on_c, 0, 66, 61
2, 145920, Note_on_c, 0, 63, 67
2, 145956, Control_c, 0, 64, 72
2, 145976, Control_c, 0, 64, 0
2, 146384, Control_c, 0, 64, 40
2, 146404, Control_c, 0, 64, 88
2, 146424, Control_c, 0, 64, 127
2, 146684, Note_off_c, 0, 63, 64
2, 146684, Note_off_c, 0, 66, 64
2, 146688, Note_on_c, 0, 61, 46
2, 146688, Note_on_c, 0, 65, 49
2, 147060, Control_c, 0, 64, 56
2, 147068, Note_off_c, 0, 61, 0
2, 147068, Note_off_c, 0, 65, 0
2, 147072, Note_on_c, 0, 58, 73
2, 147072, Note_on_c, 0, 70, 81
2, 147084, Control_c, 0, 64, 0
2, 147264, Note_off_c, 0, 58, 0
2, 147264, Note_off_c, 0, 70, 0
2, 147264, Note_on_c, 0, 66, 57
2, 147456, Note_off_c, 0, 66, 0
2, 147456, Note_on_c, 0, 61, 62
2, 147456, Note_on_c, 0, 65, 58
2, 147528, Control_c, 0, 64, 127
2, 147836, Note_off_c, 0, 61, 0
2, 147836, Note_off_c, 0, 65, 0
2, 147836, Control_c, 0, 64, 88
2, 147840, Note_on_c, 0, 63, 68
2, 147840, Note_on_c, 0, 60, 62
2, 147852, Control_c, 0, 64, 0
2, 147940, Note_off_c, 0, 63, 0
2, 147940, Note_off_c, 0, 60, 0
2, 148224, Note_on_c, 0, 61, 55
2, 148224, Note_on_c, 0, 73, 75
2, 148604, Note_off_c, 0, 61, 0
2, 148604, Note_off_c, 0, 73, 0
2, 148608, Note_on_c, 0, 72, 68
2, 148608, Note_on_c, 0, 60, 55
2, 148688, Control_c, 0, 64, 56
2, 148708, Control_c, 0, 64, 88
2, 148728, Control_c, 0, 64, 127
2, 149372, Note_off_c, 0, 72, 0
2, 149372, Note_off_c, 0, 60, 0
2, 149376, Note_on_c, 0, 58, 56
2, 149376, Note_on_c, 0, 70, 67
2, 149716, Control_c, 0, 64, 56
2, 149736, Control_c, 0, 64, 0
2, 149756, Note_off_c, 0, 58, 0
2, 149756, Note_off_c, 0, 70, 0
2, 149760, Note_on_c, 0, 75, 81
2, 149760, Note_on_c, 0, 63, 64
2, 149760, Note_on_c, 0, 60, 42
2, 149860, Note_off_c, 0, 75, 0
2, 149860, Note_off_c, 0, 63, 0
2, 149860, Note_off_c, 0, 60, 0
2, 150528, Note_on_c, 0, 58, 46
2, 150528, Note_on_c, 0, 65, 47
2, 150528, Note_on_c, 0, 73, 54
2, 150628, Note_off_c, 0, 58, 0
2, 150628, Note_off_c, 0, 65, 0
2, 150912, Note_on_c, 0, 63, 43
2, 150912, Note_on_c, 0, 68, 44
2, 151000, Note_off_c, 0, 63, 0
2, 151104, Note_off_c, 0, 68, 0
2, 151292, Note_off_c, 0, 73, 64
2, 151296, Note_on_c, 0, 72, 33
2, 151396, Note_off_c, 0, 72, 0
2, 151680, Note_on_c, 0, 61, 42
2, 151680, Note_on_c, 0, 70, 41
2, 151680, Note_on_c, 0, 67, 52
2, 151780, Note_off_c, 0, 61, 0
2, 152064, Note_on_c, 0, 60, 49
2, 152164, Note_off_c, 0, 60, 0
2, 152444, Note_off_c, 0, 67, 64
2, 152444, Note_off_c, 0, 70, 64
2, 152448, Note_on_c, 0, 68, 48
2, 152548, Note_off_c, 0, 68, 0
2, 152832, Note_on_c, 0, 78, 65
2, 152832, Note_on_c, 0, 58, 47
2, 152832, Note_on_c, 0, 61, 38
2, 152832, Note_on_c, 0, 66, 55
2, 153212, Note_off_c, 0, 78, 0
2, 153212, Note_off_c, 0, 58, 0
2, 153212, Note_off_c, 0, 61, 0
2, 153212, Note_off_c, 0, 66, 0
2, 153216, Note_on_c, 0, 77, 73
2, 153216, Note_on_c, 0, 61, 39
2, 153216, Note_on_c, 0, 65, 48
2, 153512, Control_c, 0, 64, 40
2, 153536, Control_c, 0, 64, 56
2, 153552, Control_c, 0, 64, 72
2, 153564, Control_c, 0, 64, 88
2, 153608, Control_c, 0, 64, 104
2, 153652, Control_c, 0, 64, 127
2, 153980, Note_off_c, 0, 77, 0
2, 153980, Note_off_c, 0, 61, 0
2, 153980, Note_off_c, 0, 65, 0
2, 153984, Note_on_c, 0, 75, 71
2, 153984, Note_on_c, 0, 60, 53
2, 153984, Note_on_c, 0, 63, 61
2, 154364, Note_off_c, 0, 75, 0
2, 154364, Note_off_c, 0, 60, 0
2, 154364, Note_off_c, 0, 63, 0
2, 154368, Note_on_c, 0, 80, 83
2, 154368, Note_on_c, 0, 68, 69
2, 154368, Note_on_c, 0, 65, 52
2, 154368, Control_c, 0, 64, 56
2, 154384, Control_c, 0, 64, 0
2, 154468, Note_off_c, 0, 80, 0
2, 154468, Note_off_c, 0, 68, 0
2, 154468, Note_off_c, 0, 65, 0
2, 155136, Note_on_c, 0, 58, 64
2, 155136, Note_on_c, 0, 61, 54
2, 155136, Note_on_c, 0, 78, 80
2, 155136, Note_on_c, 0, 66, 74
2, 155276, Control_c, 0, 64, 24
2, 155296, Control_c, 0, 64, 56
2, 155316, Control_c, 0, 64, 88
2, 155336, Control_c, 0, 64, 127
2, 155516, Note_off_c, 0, 58, 0
2, 155516, Note_off_c, 0, 61, 0
2, 155520, Note_on_c, 0, 61, 52
2, 155900, Note_off_c, 0, 66, 0
2, 155900, Note_off_c, 0, 78, 0
2, 155904, Note_on_c, 0, 77, 70
2, 155904, Note_on_c, 0, 65, 60
2, 156004, Note_off_c, 0, 77, 0
2, 156004, Note_off_c, 0, 65, 0
2, 156168, Control_c, 0, 64, 40
2, 156188, Control_c, 0, 64, 0
2, 156284, Note_off_c, 0, 61, 0
2, 156288, Note_on_c, 0, 60, 56
2, 156288, Note_on_c, 0, 75, 77
2, 156288, Note_on_c, 0, 63, 64
2, 156388, Note_off_c, 0, 60, 0
2, 156388, Note_off_c, 0, 75, 0
2, 156388, Note_off_c, 0, 63, 0
2, 156672, Note_on_c, 0, 65, 31
2, 156672, Note_on_c, 0, 80, 83
2, 156672, Note_on_c, 0, 68, 70
2, 156772, Note_off_c, 0, 65, 0
2, 156772, Note_off_c, 0, 80, 0
2, 156772, Note_off_c, 0, 68, 0
2, 157372, Control_c, 0, 64, 24
2, 157388, Control_c, 0, 64, 40
2, 157408, Control_c, 0, 64, 72
2, 157428, Control_c, 0, 64, 88
2, 157440, Note_on_c, 0, 61, 71
2, 157440, Note_on_c, 0, 78, 94
2, 157440, Note_on_c, 0, 66, 85
2, 157440, Note_on_c, 0, 58, 81
2, 157448, Control_c, 0, 64, 127
2, 157820, Note_off_c, 0, 61, 0
2, 157820, Note_off_c, 0, 58, 0
2, 157824, Note_on_c, 0, 61, 60
2, 158204, Note_off_c, 0, 66, 0
2, 158204, Note_off_c, 0, 78, 0
2, 158208, Note_on_c, 0, 65, 50
2, 158208, Note_on_c, 0, 77, 69
2, 158308, Note_off_c, 0, 65, 0
2, 158308, Note_off_c, 0, 77, 0
2, 158432, Control_c, 0, 64, 104
2, 158456, Control_c, 0, 64, 0
2, 158588, Note_off_c, 0, 61, 0
2, 158592, Note_on_c, 0, 64, 78
2, 158592, Note_on_c, 0, 70, 88
2, 158592, Note_on_c, 0, 82, 98
2, 158592, Note_on_c, 0, 61, 79
2, 158668, Control_c, 0, 64, 40
2, 158688, Control_c, 0, 64, 127
2, 158972, Note_off_c, 0, 64, 0
2, 158976, Note_on_c, 0, 65, 66
2, 159016, Control_c, 0, 64, 40
2, 159036, Control_c, 0, 64, 0
2, 159356, Note_off_c, 0, 61, 0
2, 159356, Note_off_c, 0, 70, 64
2, 159356, Note_off_c, 0, 82, 64
2, 159356, Note_off_c, 0, 65, 0
2, 159360, Note_on_c, 0, 80, 88
2, 159360, Note_on_c, 0, 68, 66
2, 159460, Note_off_c, 0, 80, 0
2, 159460, Note_off_c, 0, 68, 0
2, 160128, Note_on_c, 0, 60, 62
2, 160896, Note_off_c, 0, 60, 0
2, 160896, Note_on_c, 0, 63, 55
2, 161088, Note_off_c, 0, 63, 0
2, 161088, Note_on_c, 0, 61, 56
2, 161280, Note_off_c, 0, 61, 0
2, 161280, Note_on_c, 0, 61, 57
2, 161660, Note_off_c, 0, 61, 0
2, 161660, End_track
3, 0, Start_track
3, 0, Title_t, "Sonata Quasi Una Fantasia (""Moonlight"" Sonata)"
3, 0, Control_c, 0, 0, 0
3, 0, Program_c, 0, 0
3, 0, Key_signature, -5, "major"
3, 3072, Note_on_c, 0, 49, 53
3, 3132, Note_off_c, 0, 49, 0
3, 3456, Note_on_c, 0, 51, 65
3, 3516, Note_off_c, 0, 51, 0
3, 4224, Note_on_c, 0, 51, 39
3, 4284, Note_off_c, 0, 51, 0
3, 4608, Note_on_c, 0, 56, 67
3, 4668, Note_off_c, 0, 56, 0
3, 7680, Note_on_c, 0, 54, 56
3, 7740, Note_off_c, 0, 54, 0
3, 8064, Note_on_c, 0, 56, 60
3, 8124, Note_off_c, 0, 56, 0
3, 8832, Note_on_c, 0, 56, 51
3, 8892, Note_off_c, 0, 56, 0
3, 9984, Note_on_c, 0, 53, 60
3, 9984, Note_on_c, 0, 56, 57
3, 10364, Note_off_c, 0, 53, 0
3, 10364, Note_off_c, 0, 56, 0
3, 10368, Note_on_c, 0, 56, 54
3, 10368, Note_on_c, 0, 51, 50
3, 11132, Note_off_c, 0, 56, 0
3, 11132, Note_off_c, 0, 51, 0
3, 11136, Note_on_c, 0, 49, 51
3, 11136, Note_on_c, 0, 55, 66
3, 11516, Note_off_c, 0, 49, 0
3, 11516, Note_off_c, 0, 55, 0
3, 11520, Note_on_c, 0, 48, 67
3, 11580, Note_off_c, 0, 48, 0
3, 12288, Note_on_c, 0, 49, 48
3, 12348, Note_off_c, 0, 49, 0
3, 12672, Note_on_c, 0, 51, 58
3, 12732, Note_off_c, 0, 51, 0
3, 13440, Note_on_c, 0, 51, 44
3, 13500, Note_off_c, 0, 51, 0
3, 13824, Note_on_c, 0, 56, 62
3, 13884, Note_off_c, 0, 56, 0
3, 14976, Note_on_c, 0, 56, 58
3, 15740, Note_off_c, 0, 56, 0
3, 15744, Note_on_c, 0, 54, 67
3, 15804, Note_off_c, 0, 54, 0
3, 16128, Note_on_c, 0, 53, 74
3, 16188, Note_off_c, 0, 53, 0
3, 16896, Note_on_c, 0, 54, 60
3, 16956, Note_off_c, 0, 54, 0
3, 17280, Note_on_c, 0, 56, 57
3, 17340, Note_off_c, 0, 56, 0
3, 18048, Note_on_c, 0, 56, 47
3, 18108, Note_off_c, 0, 56, 0
3, 20352, Note_on_c, 0, 56, 38
3, 20732, Note_off_c, 0, 56, 0
3, 20736, Note_on_c, 0, 55, 42
3, 21116, Note_off_c, 0, 55, 0
3, 21120, Note_on_c, 0, 56, 53
3, 21500, Note_off_c, 0, 56, 0
3, 21504, Note_on_c, 0, 56, 45
3, 21884, Note_off_c, 0, 56, 0
3, 21888, Note_on_c, 0, 56, 42
3, 22652, Note_off_c, 0, 56, 0
3, 22656, Note_on_c, 0, 54, 42
3, 23036, Note_off_c, 0, 54, 0
3, 23040, Note_on_c, 0, 53, 38
3, 23420, Note_off_c, 0, 53, 0
3, 23424, Note_on_c, 0, 54, 40
3, 23524, Note_off_c, 0, 54, 0
3, 23808, Note_on_c, 0, 54, 37
3, 24188, Note_off_c, 0, 54, 0
3, 24192, Note_on_c, 0, 56, 61
3, 24192, Note_on_c, 0, 51, 56
3, 24956, Note_off_c, 0, 56, 0
3, 24956, Note_off_c, 0, 51, 0
3, 24960, Note_on_c, 0, 56, 59
3, 24960, Note_on_c, 0, 49, 65
3, 25152, Note_off_c, 0, 56, 0
3, 25152, Note_off_c, 0, 49, 0
3, 25344, Note_on_c, 0, 56, 73
3, 25344, Note_on_c, 0, 48, 84
3, 26492, Note_off_c, 0, 56, 0
3, 26492, Note_off_c, 0, 48, 0
3, 26496, Note_on_c, 0, 56, 51
3, 26496, Note_on_c, 0, 49, 51
3, 27260, Note_off_c, 0, 56, 0
3, 27260, Note_off_c, 0, 49, 0
3, 27264, Note_on_c, 0, 54, 38
3, 27264, Note_on_c, 0, 42, 44
3, 27452, Note_on_c, 0, 51, 61
3, 27456, Note_off_c, 0, 54, 0
3, 27456, Note_off_c, 0, 42, 0
3, 27644, Note_off_c, 0, 51, 0
3, 27648, Note_on_c, 0, 44, 44
3, 27648, Note_on_c, 0, 56, 61
3, 28412, Note_off_c, 0, 44, 0
3, 28412, Note_off_c, 0, 56, 0
3, 28416, Note_on_c, 0, 56, 51
3, 28416, Note_on_c, 0, 53, 62
3, 28796, Note_off_c, 0, 56, 0
3, 28796, Note_off_c, 0, 53, 0
3, 28800, Note_on_c, 0, 56, 43
3, 28800, Note_on_c, 0, 51, 65
3, 29564, Note_off_c, 0, 56, 0
3, 29564, Note_off_c, 0, 51, 0
3, 29568, Note_on_c, 0, 55, 59
3, 29568, Note_on_c, 0, 49, 62
3, 29948, Note_off_c, 0, 55, 0
3, 29948, Note_off_c, 0, 49, 0
3, 29952, Note_on_c, 0, 48, 61
3, 30052, Note_off_c, 0, 48, 0
3, 30720, Note_on_c, 0, 49, 56
3, 30820, Note_off_c, 0, 49, 0
3, 31104, Note_on_c, 0, 51, 51
3, 31204, Note_off_c, 0, 51, 0
3, 31872, Note_on_c, 0, 51, 48
3, 31956, Note_off_c, 0, 51, 0
3, 32256, Note_on_c, 0, 56, 63
3, 32356, Note_off_c, 0, 56, 0
3, 33408, Note_on_c, 0, 56, 60
3, 34172, Note_off_c, 0, 56, 0
3, 34176, Note_on_c, 0, 54, 47
3, 34556, Note_off_c, 0, 54, 0
3, 34560, Note_on_c, 0, 53, 67
3, 34660, Note_off_c, 0, 53, 0
3, 35712, Note_on_c, 0, 56, 58
3, 36476, Note_off_c, 0, 56, 0
3, 36480, Note_on_c, 0, 54, 47
3, 36580, Note_off_c, 0, 54, 0
3, 36864, Note_on_c, 0, 53, 59
3, 36964, Note_off_c, 0, 53, 0
3, 38016, Note_on_c, 0, 56, 74
3, 38780, Note_off_c, 0, 56, 0
3, 38784, Note_on_c, 0, 55, 92
3, 39164, Note_off_c, 0, 55, 0
3, 39168, Note_on_c, 0, 56, 63
3, 39548, Note_off_c, 0, 56, 0
3, 40320, Note_on_c, 0, 44, 46
3, 40320, Note_on_c, 0, 54, 37
3, 40320, Note_on_c, 0, 32, 33
3, 41468, Note_off_c, 0, 54, 0
3, 41468, Note_off_c, 0, 32, 0
3, 41472, Note_on_c, 0, 37, 42
3, 41472, Note_on_c, 0, 53, 25
3, 41532, Note_off_c, 0, 53, 0
3, 41572, Note_off_c, 0, 37, 0
3, 41852, Note_off_c, 0, 44, 0
3, 43392, Note_on_c, 0, 56, 38
3, 43772, Note_off_c, 0, 56, 0
3, 43776, Note_on_c, 0, 55, 42
3, 44156, Note_off_c, 0, 55, 0
3, 44160, Note_on_c, 0, 56, 53
3, 44540, Note_off_c, 0, 56, 0
3, 44544, Note_on_c, 0, 56, 45
3, 44924, Note_off_c, 0, 56, 0
3, 44928, Note_on_c, 0, 56, 42
3, 45692, Note_off_c, 0, 56, 0
3, 45696, Note_on_c, 0, 54, 42
3, 46076, Note_off_c, 0, 54, 0
3, 46080, Note_on_c, 0, 53, 38
3, 46460, Note_off_c, 0, 53, 0
3, 46464, Note_on_c, 0, 54, 40
3, 46564, Note_off_c, 0, 54, 0
3, 46848, Note_on_c, 0, 54, 37
3, 47228, Note_off_c, 0, 54, 0
3, 47232, Note_on_c, 0, 56, 61
3, 47232, Note_on_c, 0, 51, 56
3, 47996, Note_off_c, 0, 56, 0
3, 47996, Note_off_c, 0, 51, 0
3, 48000, Note_on_c, 0, 56, 59
3, 48000, Note_on_c, 0, 49, 65
3, 48192, Note_off_c, 0, 56, 0
3, 48192, Note_off_c, 0, 49, 0
3, 48384, Note_on_c, 0, 56, 73
3, 48384, Note_on_c, 0, 48, 84
3, 49532, Note_off_c, 0, 56, 0
3, 49532, Note_off_c, 0, 48, 0
3, 49536, Note_on_c, 0, 56, 51
3, 49536, Note_on_c, 0, 49, 51
3, 50300, Note_off_c, 0, 56, 0
3, 50300, Note_off_c, 0, 49, 0
3, 50304, Note_on_c, 0, 54, 38
3, 50304, Note_on_c, 0, 42, 44
3, 50492, Note_on_c, 0, 51, 61
3, 50496, Note_off_c, 0, 54, 0
3, 50496, Note_off_c, 0, 42, 0
3, 50684, Note_off_c, 0, 51, 0
3, 50688, Note_on_c, 0, 44, 44
3, 50688, Note_on_c, 0, 56, 61
3, 51452, Note_off_c, 0, 44, 0
3, 51452, Note_off_c, 0, 56, 0
3, 51456, Note_on_c, 0, 56, 51
3, 51456, Note_on_c, 0, 53, 62
3, 51836, Note_off_c, 0, 56, 0
3, 51836, Note_off_c, 0, 53, 0
3, 51840, Note_on_c, 0, 56, 43
3, 51840, Note_on_c, 0, 51, 65
3, 52604, Note_off_c, 0, 56, 0
3, 52604, Note_off_c, 0, 51, 0
3, 52608, Note_on_c, 0, 55, 59
3, 52608, Note_on_c, 0, 49, 62
3, 52988, Note_off_c, 0, 55, 0
3, 52988, Note_off_c, 0, 49, 0
3, 52992, Note_on_c, 0, 48, 61
3, 53092, Note_off_c, 0, 48, 0
3, 53760, Note_on_c, 0, 49, 56
3, 53860, Note_off_c, 0, 49, 0
3, 54144, Note_on_c, 0, 51, 51
3, 54244, Note_off_c, 0, 51, 0
3, 54912, Note_on_c, 0, 51, 48
3, 54996, Note_off_c, 0, 51, 0
3, 55296, Note_on_c, 0, 56, 63
3, 55396, Note_off_c, 0, 56, 0
3, 56448, Note_on_c, 0, 56, 60
3, 57212, Note_off_c, 0, 56, 0
3, 57216, Note_on_c, 0, 54, 47
3, 57596, Note_off_c, 0, 54, 0
3, 57600, Note_on_c, 0, 53, 67
3, 57700, Note_off_c, 0, 53, 0
3, 58752, Note_on_c, 0, 56, 58
3, 59516, Note_off_c, 0, 56, 0
3, 59520, Note_on_c, 0, 54, 47
3, 59620, Note_off_c, 0, 54, 0
3, 59904, Note_on_c, 0, 53, 59
3, 60004, Note_off_c, 0, 53, 0
3, 61056, Note_on_c, 0, 56, 74
3, 61820, Note_off_c, 0, 56, 0
3, 61824, Note_on_c, 0, 55, 92
3, 62204, Note_off_c, 0, 55, 0
3, 62208, Note_on_c, 0, 56, 63
3, 62588, Note_off_c, 0, 56, 0
3, 63360, Note_on_c, 0, 44, 46
3, 63360, Note_on_c, 0, 54, 37
3, 63360, Note_on_c, 0, 32, 33
3, 64508, Note_off_c, 0, 54, 0
3, 64508, Note_off_c, 0, 32, 0
3, 64512, Note_on_c, 0, 37, 42
3, 64512, Note_on_c, 0, 53, 25
3, 64572, Note_off_c, 0, 53, 0
3, 64612, Note_off_c, 0, 37, 0
3, 64892, Note_off_c, 0, 44, 0
3, 65664, Note_on_c, 0, 37, 67
3, 65664, Note_on_c, 0, 44, 71
3, 66812, Note_off_c, 0, 37, 0
3, 66816, Note_on_c, 0, 39, 61
3, 67964, Note_off_c, 0, 39, 0
3, 67968, Note_on_c, 0, 42, 65
3, 69116, Note_off_c, 0, 42, 0
3, 69120, Note_on_c, 0, 41, 57
3, 69884, Note_off_c, 0, 44, 0
3, 69884, Note_off_c, 0, 41, 0
3, 69888, Note_on_c, 0, 65, 96
3, 69888, Note_on_c, 0, 53, 90
3, 70272, Note_on_c, 0, 37, 69
3, 70272, Note_on_c, 0, 44, 50
3, 71036, Note_off_c, 0, 53, 0
3, 71036, Note_off_c, 0, 65, 0
3, 71040, Note_on_c, 0, 54, 79
3, 71040, Note_on_c, 0, 66, 82
3, 71420, Note_off_c, 0, 37, 0
3, 71424, Note_on_c, 0, 39, 74
3, 72188, Note_off_c, 0, 54, 0
3, 72188, Note_off_c, 0, 66, 0
3, 72572, Note_off_c, 0, 39, 0
3, 72576, Note_on_c, 0, 32, 73
3, 73340, Note_off_c, 0, 44, 0
3, 73340, Note_off_c, 0, 32, 0
3, 73344, Note_on_c, 0, 44, 46
3, 73728, Note_on_c, 0, 37, 39
3, 74492, Note_off_c, 0, 44, 0
3, 74492, Note_off_c, 0, 37, 0
3, 74880, Note_on_c, 0, 37, 67
3, 74880, Note_on_c, 0, 44, 71
3, 76028, Note_off_c, 0, 37, 0
3, 76032, Note_on_c, 0, 39, 61
3, 77180, Note_off_c, 0, 39, 0
3, 77184, Note_on_c, 0, 42, 65
3, 78332, Note_off_c, 0, 42, 0
3, 78336, Note_on_c, 0, 41, 57
3, 79100, Note_off_c, 0, 44, 0
3, 79100, Note_off_c, 0, 41, 0
3, 79104, Note_on_c, 0, 65, 96
3, 79104, Note_on_c, 0, 53, 90
3, 79488, Note_on_c, 0, 37, 69
3, 79488, Note_on_c, 0, 44, 50
3, 80252, Note_off_c, 0, 53, 0
3, 80252, Note_off_c, 0, 65, 0
3, 80256, Note_on_c, 0, 54, 79
3, 80256, Note_on_c, 0, 66, 82
3, 80636, Note_off_c, 0, 37, 0
3, 80640, Note_on_c, 0, 39, 74
3, 81404, Note_off_c, 0, 54, 0
3, 81404, Note_off_c, 0, 66, 0
3, 81788, Note_off_c, 0, 39, 0
3, 81792, Note_on_c, 0, 32, 73
3, 82556, Note_off_c, 0, 44, 0
3, 82556, Note_off_c, 0, 32, 0
3, 82560, Note_on_c, 0, 44, 46
3, 82944, Note_on_c, 0, 37, 39
3, 83708, Note_off_c, 0, 44, 0
3, 83708, Note_off_c, 0, 37, 0
3, 84096, Note_on_c, 0, 56, 42
3, 84096, Note_on_c, 0, 50, 45
3, 85244, Note_off_c, 0, 56, 0
3, 85244, Note_off_c, 0, 50, 0
3, 85248, Note_on_c, 0, 49, 43
3, 85248, Note_on_c, 0, 55, 33
3, 86396, Note_off_c, 0, 49, 0
3, 86396, Note_off_c, 0, 55, 0
3, 86400, Note_on_c, 0, 54, 34
3, 86400, Note_on_c, 0, 48, 44
3, 87168, Note_on_c, 0, 68, 38
3, 87168, Note_on_c, 0, 56, 33
3, 87548, Note_off_c, 0, 54, 0
3, 87548, Note_off_c, 0, 48, 0
3, 87552, Note_on_c, 0, 47, 54
3, 87552, Note_on_c, 0, 53, 34
3, 88316, Note_off_c, 0, 56, 0
3, 88316, Note_off_c, 0, 68, 0
3, 88700, Note_off_c, 0, 47, 0
3, 88700, Note_off_c, 0, 53, 0
3, 88704, Note_on_c, 0, 46, 45
3, 88704, Note_on_c, 0, 49, 55
3, 89472, Note_on_c, 0, 66, 50
3, 89472, Note_on_c, 0, 54, 42
3, 89852, Note_off_c, 0, 46, 0
3, 89856, Note_on_c, 0, 44, 46
3, 90620, Note_off_c, 0, 54, 0
3, 90620, Note_off_c, 0, 66, 0
3, 90624, Note_on_c, 0, 65, 54
3, 90624, Note_on_c, 0, 53, 42
3, 91004, Note_off_c, 0, 44, 0
3, 91008, Note_on_c, 0, 37, 37
3, 91388, Note_off_c, 0, 53, 0
3, 91388, Note_off_c, 0, 65, 0
3, 91388, Note_off_c, 0, 37, 0
3, 91392, Note_on_c, 0, 41, 64
3, 91772, Note_off_c, 0, 41, 0
3, 91776, Note_on_c, 0, 44, 62
3, 92156, Note_off_c, 0, 44, 0
3, 92160, Note_on_c, 0, 42, 53
3, 92924, Note_off_c, 0, 49, 0
3, 92924, Note_off_c, 0, 42, 0
3, 93312, Note_on_c, 0, 49, 49
3, 93312, Note_on_c, 0, 46, 40
3, 94080, Note_on_c, 0, 54, 38
3, 94080, Note_on_c, 0, 66, 39
3, 94460, Note_off_c, 0, 46, 0
3, 94464, Note_on_c, 0, 44, 33
3, 95228, Note_off_c, 0, 54, 0
3, 95228, Note_off_c, 0, 66, 0
3, 95232, Note_on_c, 0, 53, 33
3, 95232, Note_on_c, 0, 65, 60
3, 95612, Note_off_c, 0, 44, 0
3, 95616, Note_on_c, 0, 43, 41
3, 96380, Note_off_c, 0, 53, 0
3, 96380, Note_off_c, 0, 65, 0
3, 96764, Note_off_c, 0, 43, 0
3, 96768, Note_on_c, 0, 44, 35
3, 97916, Note_off_c, 0, 49, 0
3, 97916, Note_off_c, 0, 44, 0
3, 97920, Note_on_c, 0, 49, 46
3, 97920, Note_on_c, 0, 46, 40
3, 98688, Note_on_c, 0, 66, 69
3, 98688, Note_on_c, 0, 54, 64
3, 99068, Note_off_c, 0, 46, 0
3, 99072, Note_on_c, 0, 44, 44
3, 99836, Note_off_c, 0, 54, 0
3, 99836, Note_off_c, 0, 66, 0
3, 99840, Note_on_c, 0, 65, 73
3, 99840, Note_on_c, 0, 53, 62
3, 100220, Note_off_c, 0, 49, 0
3, 100220, Note_off_c, 0, 44, 0
3, 100224, Note_on_c, 0, 32, 44
3, 100224, Note_on_c, 0, 44, 32
3, 100604, Note_off_c, 0, 53, 0
3, 100604, Note_off_c, 0, 65, 0
3, 100988, Note_off_c, 0, 32, 0
3, 100988, Note_off_c, 0, 44, 0
3, 100992, Note_on_c, 0, 44, 42
3, 101116, Note_off_c, 0, 44, 0
3, 101376, Note_on_c, 0, 61, 31
3, 101376, Note_on_c, 0, 49, 25
3, 101376, Note_on_c, 0, 37, 33
3, 101500, Note_off_c, 0, 61, 0
3, 101500, Note_off_c, 0, 49, 0
3, 101500, Note_off_c, 0, 37, 0
3, 102528, Note_on_c, 0, 56, 42
3, 102528, Note_on_c, 0, 50, 45
3, 103676, Note_off_c, 0, 56, 0
3, 103676, Note_off_c, 0, 50, 0
3, 103680, Note_on_c, 0, 49, 43
3, 103680, Note_on_c, 0, 55, 33
3, 104828, Note_off_c, 0, 49, 0
3, 104828, Note_off_c, 0, 55, 0
3, 104832, Note_on_c, 0, 54, 34
3, 104832, Note_on_c, 0, 48, 44
3, 105600, Note_on_c, 0, 68, 38
3, 105600, Note_on_c, 0, 56, 33
3, 105980, Note_off_c, 0, 54, 0
3, 105980, Note_off_c, 0, 48, 0
3, 105984, Note_on_c, 0, 47, 54
3, 105984, Note_on_c, 0, 53, 34
3, 106748, Note_off_c, 0, 56, 0
3, 106748, Note_off_c, 0, 68, 0
3, 107132, Note_off_c, 0, 47, 0
3, 107132, Note_off_c, 0, 53, 0
3, 107136, Note_on_c, 0, 46, 45
3, 107136, Note_on_c, 0, 49, 55
3, 107904, Note_on_c, 0, 66, 50
3, 107904, Note_on_c, 0, 54, 42
3, 108284, Note_off_c, 0, 46, 0
3, 108288, Note_on_c, 0, 44, 46
3, 109052, Note_off_c, 0, 54, 0
3, 109052, Note_off_c, 0, 66, 0
3, 109056, Note_on_c, 0, 65, 54
3, 109056, Note_on_c, 0, 53, 42
3, 109436, Note_off_c, 0, 44, 0
3, 109440, Note_on_c, 0, 37, 37
3, 109820, Note_off_c, 0, 53, 0
3, 109820, Note_off_c, 0, 65, 0
3, 109820, Note_off_c, 0, 37, 0
3, 109824, Note_on_c, 0, 41, 64
3, 110204, Note_off_c, 0, 41, 0
3, 110208, Note_on_c, 0, 44, 62
3, 110588, Note_off_c, 0, 44, 0
3, 110592, Note_on_c, 0, 42, 53
3, 111356, Note_off_c, 0, 49, 0
3, 111356, Note_off_c, 0, 42, 0
3, 111744, Note_on_c, 0, 49, 49
3, 111744, Note_on_c, 0, 46, 40
3, 112512, Note_on_c, 0, 54, 38
3, 112512, Note_on_c, 0, 66, 39
3, 112892, Note_off_c, 0, 46, 0
3, 112896, Note_on_c, 0, 44, 33
3, 113660, Note_off_c, 0, 54, 0
3, 113660, Note_off_c, 0, 66, 0
3, 113664, Note_on_c, 0, 53, 33
3, 113664, Note_on_c, 0, 65, 60
3, 114044, Note_off_c, 0, 44, 0
3, 114048, Note_on_c, 0, 43, 41
3, 114812, Note_off_c, 0, 53, 0
3, 114812, Note_off_c, 0, 65, 0
3, 115196, Note_off_c, 0, 43, 0
3, 115200, Note_on_c, 0, 44, 35
3, 116348, Note_off_c, 0, 49, 0
3, 116348, Note_off_c, 0, 44, 0
3, 116352, Note_on_c, 0, 49, 46
3, 116352, Note_on_c, 0, 46, 40
3, 117120, Note_on_c, 0, 66, 69
3, 117120, Note_on_c, 0, 54, 64
3, 117500, Note_off_c, 0, 46, 0
3, 117504, Note_on_c, 0, 44, 44
3, 118268, Note_off_c, 0, 54, 0
3, 118268, Note_off_c, 0, 66, 0
3, 118272, Note_on_c, 0, 65, 73
3, 118272, Note_on_c, 0, 53, 62
3, 118652, Note_off_c, 0, 49, 0
3, 118652, Note_off_c, 0, 44, 0
3, 118656, Note_on_c, 0, 32, 44
3, 118656, Note_on_c, 0, 44, 32
3, 119036, Note_off_c, 0, 53, 0
3, 119036, Note_off_c, 0, 65, 0
3, 119420, Note_off_c, 0, 32, 0
3, 119420, Note_off_c, 0, 44, 0
3, 119424, Note_on_c, 0, 44, 42
3, 119548, Note_off_c, 0, 44, 0
3, 119808, Note_on_c, 0, 61, 31
3, 119808, Note_on_c, 0, 49, 25
3, 119808, Note_on_c, 0, 37, 33
3, 119932, Note_off_c, 0, 61, 0
3, 119932, Note_off_c, 0, 49, 0
3, 119932, Note_off_c, 0, 37, 0
3, 122880, Note_on_c, 0, 49, 53
3, 122940, Note_off_c, 0, 49, 0
3, 123264, Note_on_c, 0, 51, 65
3, 123324, Note_off_c, 0, 51, 0
3, 124032, Note_on_c, 0, 51, 39
3, 124092, Note_off_c, 0, 51, 0
3, 124416, Note_on_c, 0, 56, 67
3, 124476, Note_off_c, 0, 56, 0
3, 127488, Note_on_c, 0, 54, 56
3, 127548, Note_off_c, 0, 54, 0
3, 127872, Note_on_c, 0, 56, 60
3, 127932, Note_off_c, 0, 56, 0
3, 128640, Note_on_c, 0, 56, 51
3, 128700, Note_off_c, 0, 56, 0
3, 129792, Note_on_c, 0, 53, 60
3, 129792, Note_on_c, 0, 56, 57
3, 130172, Note_off_c, 0, 53, 0
3, 130172, Note_off_c, 0, 56, 0
3, 130176, Note_on_c, 0, 56, 54
3, 130176, Note_on_c, 0, 51, 50
3, 130940, Note_off_c, 0, 56, 0
3, 130940, Note_off_c, 0, 51, 0
3, 130944, Note_on_c, 0, 49, 51
3, 130944, Note_on_c, 0, 55, 66
3, 131324, Note_off_c, 0, 49, 0
3, 131324, Note_off_c, 0, 55, 0
3, 131328, Note_on_c, 0, 48, 67
3, 131388, Note_off_c, 0, 48, 0
3, 132096, Note_on_c, 0, 49, 48
3, 132156, Note_off_c, 0, 49, 0
3, 132480, Note_on_c, 0, 51, 58
3, 132540, Note_off_c, 0, 51, 0
3, 133248, Note_on_c, 0, 51, 44
3, 133308, Note_off_c, 0, 51, 0
3, 133632, Note_on_c, 0, 56, 62
3, 133692, Note_off_c, 0, 56, 0
3, 134784, Note_on_c, 0, 56, 58
3, 135548, Note_off_c, 0, 56, 0
3, 135552, Note_on_c, 0, 54, 67
3, 135612, Note_off_c, 0, 54, 0
3, 135936, Note_on_c, 0, 53, 74
3, 135996, Note_off_c, 0, 53, 0
3, 136704, Note_on_c, 0, 54, 60
3, 136764, Note_off_c, 0, 54, 0
3, 137088, Note_on_c, 0, 56, 57
3, 137148, Note_off_c, 0, 56, 0
3, 137856, Note_on_c, 0, 56, 47
3, 137916, Note_off_c, 0, 56, 0
3, 140160, Note_on_c, 0, 56, 38
3, 140540, Note_off_c, 0, 56, 0
3, 140544, Note_on_c, 0, 55, 42
3, 140924, Note_off_c, 0, 55, 0
3, 140928, Note_on_c, 0, 56, 53
3, 141308, Note_off_c, 0, 56, 0
3, 141312, Note_on_c, 0, 56, 45
3, 141692, Note_off_c, 0, 56, 0
3, 141696, Note_on_c, 0, 56, 42
3, 142460, Note_off_c, 0, 56, 0
3, 142464, Note_on_c, 0, 54, 42
3, 142844, Note_off_c, 0, 54, 0
3, 142848, Note_on_c, 0, 53, 38
3, 143228, Note_off_c, 0, 53, 0
3, 143232, Note_on_c, 0, 54, 40
3, 143332, Note_off_c, 0, 54, 0
3, 143616, Note_on_c, 0, 54, 37
3, 143996, Note_off_c, 0, 54, 0
3, 144000, Note_on_c, 0, 56, 61
3, 144000, Note_on_c, 0, 51, 56
3, 144764, Note_off_c, 0, 56, 0
3, 144764, Note_off_c, 0, 51, 0
3, 144768, Note_on_c, 0, 56, 59
3, 144768, Note_on_c, 0, 49, 65
3, 144960, Note_off_c, 0, 56, 0
3, 144960, Note_off_c, 0, 49, 0
3, 145152, Note_on_c, 0, 56, 73
3, 145152, Note_on_c, 0, 48, 84
3, 146300, Note_off_c, 0, 56, 0
3, 146300, Note_off_c, 0, 48, 0
3, 146304, Note_on_c, 0, 56, 51
3, 146304, Note_on_c, 0, 49, 51
3, 147068, Note_off_c, 0, 56, 0
3, 147068, Note_off_c, 0, 49, 0
3, 147072, Note_on_c, 0, 54, 38
3, 147072, Note_on_c, 0, 42, 44
3, 147260, Note_on_c, 0, 51, 61
3, 147264, Note_off_c, 0, 54, 0
3, 147264, Note_off_c, 0, 42, 0
3, 147452, Note_off_c, 0, 51, 0
3, 147456, Note_on_c, 0, 44, 44
3, 147456, Note_on_c, 0, 56, 61
3, 148220, Note_off_c, 0, 44, 0
3, 148220, Note_off_c, 0, 56, 0
3, 148224, Note_on_c, 0, 56, 51
3, 148224, Note_on_c, 0, 53, 62
3, 148604, Note_off_c, 0, 56, 0
3, 148604, Note_off_c, 0, 53, 0
3, 148608, Note_on_c, 0, 56, 43
3, 148608, Note_on_c, 0, 51, 65
3, 149372, Note_off_c, 0, 56, 0
3, 149372, Note_off_c, 0, 51, 0
3, 149376, Note_on_c, 0, 55, 59
3, 149376, Note_on_c, 0, 49, 62
3, 149756, Note_off_c, 0, 55, 0
3, 149756, Note_off_c, 0, 49, 0
3, 149760, Note_on_c, 0, 48, 61
3, 149860, Note_off_c, 0, 48, 0
3, 150528, Note_on_c, 0, 49, 56
3, 150628, Note_off_c, 0, 49, 0
3, 150912, Note_on_c, 0, 51, 51
3, 151012, Note_off_c, 0, 51, 0
3, 151680, Note_on_c, 0, 51, 48
3, 151764, Note_off_c, 0, 51, 0
3, 152064, Note_on_c, 0, 56, 63
3, 152164, Note_off_c, 0, 56, 0
3, 153216, Note_on_c, 0, 56, 60
3, 153980, Note_off_c, 0, 56, 0
3, 153984, Note_on_c, 0, 54, 47
3, 154364, Note_off_c, 0, 54, 0
3, 154368, Note_on_c, 0, 53, 67
3, 154468, Note_off_c, 0, 53, 0
3, 155520, Note_on_c, 0, 56, 58
3, 156284, Note_off_c, 0, 56, 0
3, 156288, Note_on_c, 0, 54, 47
3, 156388, Note_off_c, 0, 54, 0
3, 156672, Note_on_c, 0, 53, 59
3, 156772, Note_off_c, 0, 53, 0
3, 157824, Note_on_c, 0, 56, 74
3, 158588, Note_off_c, 0, 56, 0
3, 158592, Note_on_c, 0, 55, 92
3, 158972, Note_off_c, 0, 55, 0
3, 158976, Note_on_c, 0, 56, 63
3, 159356, Note_off_c, 0, 56, 0
3, 160128, Note_on_c, 0, 44, 46
3, 160128, Note_on_c, 0, 54, 37
3, 160128, Note_on_c, 0, 32, 33
3, 161276, Note_off_c, 0, 54, 0
3, 161276, Note_off_c, 0, 32, 0
3, 161280, Note_on_c, 0, 37, 42
3, 161280, Note_on_c, 0, 53, 25
3, 161340, Note_off_c, 0, 53, 0
3, 161380, Note_off_c, 0, 37, 0
3, 161660, Note_off_c, 0, 44, 0
3, 161660, End_track
4, 0, Start_track
4, 0, Title_t, "Ludwig van Beethoven"
4, 0, Key_signature, 0, "major"
4, 0, End_track
5, 0, Start_track
5, 0, Title_t, "Performed by:  Wesley Venable"
5, 0, Key_signature, 0, "major"
5, 0, End_track
6, 0, Start_track
6, 0, Title_t, "Instrument:  Yamaha Clavinova CLP -123"
6, 0, Key_signature, 0, "major"
6, 0, End_track
7, 0, Start_track
7, 0, Title_t, "Wesley_Venable@Prodigy.com -or- Wesley_Venable@msn.com"
7, 0, Key_signature, 0, "major"
7, 0, End_track
8, 0, Start_track
8, 0, Key_signature, 0, "major"
8, 0, End_track
9, 0, Start_track
9, 0, Key_signature, 0, "major"
9, 0, End_track
10, 0, Start_track
10, 0, Key_signature, 0, "major"
10, 0, End_track
11, 0, Start_track
11, 0, Key_signature, 0, "major"
11, 0, End_track
12, 0, Start_track
12, 0, Key_signature, 0, "major"
12, 0, End_track
13, 0, Start_track
13, 0, Key_signature, 0, "major"
13, 0, End_track
14, 0, Start_track
14, 0, Key_signature, 0, "major"
14, 0, End_track
15, 0, Start_track
15, 0, Key_signature, 0, "major"
15, 0, End_track
16, 0, Start_track
16, 0, Key_signature, 0, "major"
16, 0, End_track
17, 0, Start_track
17, 0, Key_signature, 0, "major"
17, 0, End_track
0, 0, End_of_file