0, 0, Header, 1, 8, 480
1, 0, Start_track
1, 0, Title_t, "Sonata No.14 in cis-Moll, Op. 27/2 - 2. Satz"
1, 0, Title_t, "Mondscheinsonate; der Gr\344fin Giulietta Guiccardi gewidmet"
1, 0, Copyright_t, "Copyright Bernd Krueger  http://www.piano-midi.de"
1, 0, Text_t, "Ludwig van Beethoven"
1, 0, Text_t, "Fertiggestellt am 25.10.97\012"
1, 0, Text_t, "Pan's auf Standard am 18.1.98\012"
1, 0, Text_t, "Tempo\344nderungen am 31.1.98\012"
1, 0, Text_t, "Update am 17.8.99\012"
1, 0, Text_t, "Update am 8.1.00\012"
1, 0, Text_t, "Normierung: 23.12.2002\012"
1, 0, Text_t, "Dauer: 2:04 Minuten\012"
1, 0, Time_signature, 3, 2, 24, 8
1, 0, Key_signature, -5, "major"
1, 0, Tempo, 285714
1, 960, Marker_t, "Allegretto"
1, 1440, Tempo, 286205
1, 2400, Tempo, 288962
1, 3840, Tempo, 284846
1, 5280, Tempo, 287770
1, 6720, Tempo, 286205
1, 8160, Tempo, 288962
1, 9600, Tempo, 284185
1, 11040, Tempo, 287770
1, 12480, Tempo, 286205
1, 13920, Tempo, 287577
1, 14400, Tempo, 283688
1, 15360, Tempo, 283514
1, 16800, Tempo, 282832
1, 18240, Tempo, 287577
1, 19680, Tempo, 288962
1, 20160, Tempo, 282353
1, 21120, Tempo, 283514
1, 22560, Tempo, 284846
1, 24000, Tempo, 286205
1, 26880, Tempo, 291050
1, 29768, Tempo, 286205
1, 29912, Tempo, 287577
1, 29992, Tempo, 288962
1, 30080, Tempo, 290360
1, 30264, Tempo, 291744
1, 30320, Tempo, 293169
1, 30376, Tempo, 294623
1, 30408, Tempo, 296092
1, 30448, Tempo, 297545
1, 30472, Tempo, 299013
1, 30520, Tempo, 300511
1, 30544, Tempo, 302039
1, 30592, Tempo, 303567
1, 30624, Tempo, 305095
1, 30688, Tempo, 306654
1, 30752, Tempo, 308214
1, 30816, Tempo, 309805
1, 30992, Tempo, 311429
1, 31056, Tempo, 313054
1, 31080, Tempo, 314680
1, 31128, Tempo, 316339
1, 31184, Tempo, 318016
1, 31216, Tempo, 319693
1, 31264, Tempo, 321423
1, 31328, Tempo, 323137
1, 31352, Tempo, 324886
1, 31400, Tempo, 326655
1, 31448, Tempo, 328443
1, 31472, Tempo, 330233
1, 31512, Tempo, 332079
1, 31576, Tempo, 333927
1, 33112, Tempo, 286205
1, 34080, Tempo, 319693
1, 35040, Tempo, 355661
1, 35528, Tempo, 286205
1, 36960, Tempo, 288962
1, 38400, Tempo, 280846
1, 39840, Tempo, 282194
1, 41280, Tempo, 286889
1, 42720, Tempo, 288268
1, 44160, Tempo, 285538
1, 45600, Tempo, 288268
1, 47080, Tempo, 286232
1, 47440, Tempo, 287577
1, 47464, Tempo, 288962
1, 47512, Tempo, 290360
1, 47672, Tempo, 291744
1, 47776, Tempo, 293169
1, 47824, Tempo, 294623
1, 47864, Tempo, 296092
1, 47928, Tempo, 297545
1, 47976, Tempo, 299013
1, 47992, Tempo, 300511
1, 48040, Tempo, 302039
1, 48056, Tempo, 303567
1, 48088, Tempo, 305095
1, 48112, Tempo, 306654
1, 48144, Tempo, 308214
1, 48208, Tempo, 311429
1, 48232, Tempo, 313054
1, 48264, Tempo, 314680
1, 48288, Tempo, 316339
1, 48336, Tempo, 318016
1, 48368, Tempo, 321423
1, 48392, Tempo, 323137
1, 48424, Tempo, 324886
1, 48432, Tempo, 326655
1, 48456, Tempo, 328443
1, 48488, Tempo, 330233
1, 48536, Tempo, 332079
1, 48560, Tempo, 333927
1, 48600, Tempo, 335777
1, 48624, Tempo, 337667
1, 48648, Tempo, 339559
1, 48672, Tempo, 341491
1, 48688, Tempo, 343446
1, 48712, Tempo, 345443
1, 48768, Tempo, 347443
1, 48816, Tempo, 349447
1, 48864, Tempo, 351494
1, 48880, Tempo, 353565
1, 48904, Tempo, 353565
1, 49000, Tempo, 355661
1, 51360, Tempo, 384074
1, 51848, Tempo, 286205
1, 52320, Tempo, 341491
1, 52800, Tempo, 291744
1, 54240, Tempo, 288962
1, 55680, Tempo, 294623
1, 58568, Tempo, 286205
1, 58712, Tempo, 287577
1, 58792, Tempo, 288962
1, 58880, Tempo, 290360
1, 59064, Tempo, 291744
1, 59120, Tempo, 293169
1, 59176, Tempo, 294623
1, 59208, Tempo, 296092
1, 59248, Tempo, 297545
1, 59272, Tempo, 299013
1, 59320, Tempo, 300511
1, 59344, Tempo, 302039
1, 59392, Tempo, 303567
1, 59424, Tempo, 305095
1, 59488, Tempo, 306654
1, 59552, Tempo, 308214
1, 59616, Tempo, 309805
1, 59792, Tempo, 311429
1, 59856, Tempo, 313054
1, 59880, Tempo, 314680
1, 59928, Tempo, 316339
1, 59984, Tempo, 318016
1, 60016, Tempo, 319693
1, 60064, Tempo, 321423
1, 60128, Tempo, 323137
1, 60152, Tempo, 324886
1, 60200, Tempo, 326655
1, 60248, Tempo, 328443
1, 60272, Tempo, 330233
1, 60312, Tempo, 332079
1, 60376, Tempo, 333927
1, 61912, Tempo, 286205
1, 62880, Tempo, 320564
1, 63840, Tempo, 334840
1, 64328, Tempo, 286205
1, 65760, Tempo, 288962
1, 66240, Tempo, 284360
1, 67200, Tempo, 283514
1, 70080, Tempo, 286889
1, 71520, Tempo, 283019
1, 72960, Tempo, 286205
1, 74400, Tempo, 288268
1, 76240, Tempo, 287577
1, 76264, Tempo, 288962
1, 76312, Tempo, 290360
1, 76472, Tempo, 291744
1, 76576, Tempo, 293169
1, 76624, Tempo, 294623
1, 76664, Tempo, 296092
1, 76728, Tempo, 297545
1, 76776, Tempo, 299013
1, 76792, Tempo, 300511
1, 76840, Tempo, 302039
1, 76856, Tempo, 303567
1, 76888, Tempo, 305095
1, 76912, Tempo, 306654
1, 76944, Tempo, 308214
1, 77008, Tempo, 311429
1, 77032, Tempo, 313054
1, 77064, Tempo, 314680
1, 77088, Tempo, 316339
1, 77136, Tempo, 318016
1, 77168, Tempo, 321423
1, 77192, Tempo, 323137
1, 77224, Tempo, 324886
1, 77232, Tempo, 326655
1, 77256, Tempo, 328443
1, 77288, Tempo, 330233
1, 77336, Tempo, 332079
1, 77360, Tempo, 333927
1, 77400, Tempo, 335777
1, 77424, Tempo, 337667
1, 77448, Tempo, 339559
1, 77472, Tempo, 341491
1, 77488, Tempo, 343446
1, 77512, Tempo, 345443
1, 77568, Tempo, 347443
1, 77616, Tempo, 349447
1, 77664, Tempo, 351494
1, 77680, Tempo, 353565
1, 77704, Tempo, 353565
1, 77800, Tempo, 355661
1, 79200, Tempo, 365386
1, 80160, Tempo, 414536
1, 80640, Tempo, 353565
1, 81600, Tempo, 290360
1, 81600, Marker_t, "Trio"
1, 84480, Tempo, 279538
1, 86880, Tempo, 299775
1, 87360, Tempo, 290360
1, 90240, Tempo, 278267
1, 92640, Tempo, 299013
1, 93120, Tempo, 289645
1, 96000, Tempo, 279538
1, 98400, Tempo, 296809
1, 98880, Tempo, 286205
1, 101760, Tempo, 289645
1, 104160, Tempo, 305095
1, 104640, Tempo, 289645
1, 113280, Tempo, 284185
1, 116160, Tempo, 287577
1, 125760, Tempo, 318016
1, 126720, Tempo, 288962
1, 132480, Tempo, 285714
1, 136320, Tempo, 282832
1, 139200, Tempo, 287577
1, 148800, Tempo, 311429
1, 150720, Tempo, 286205
1, 150720, Marker_t, "Allegretto D.C."
1, 152160, Tempo, 288962
1, 153600, Tempo, 284846
1, 155040, Tempo, 289855
1, 156000, Tempo, 286205
1, 157920, Tempo, 288962
1, 159360, Tempo, 284185
1, 160800, Tempo, 288462
1, 162240, Tempo, 286889
1, 163680, Tempo, 288268
1, 164160, Tempo, 285036
1, 165120, Tempo, 283514
1, 166560, Tempo, 281030
1, 168000, Tempo, 286205
1, 169440, Tempo, 288268
1, 169920, Tempo, 281030
1, 170880, Tempo, 284185
1, 173280, Tempo, 310623
1, 173760, Tempo, 288268
1, 176640, Tempo, 291744
1, 179528, Tempo, 286205
1, 179672, Tempo, 287577
1, 179752, Tempo, 288962
1, 179840, Tempo, 290360
1, 180024, Tempo, 291744
1, 180080, Tempo, 293169
1, 180136, Tempo, 294623
1, 180168, Tempo, 296092
1, 180208, Tempo, 297545
1, 180232, Tempo, 299013
1, 180280, Tempo, 300511
1, 180304, Tempo, 302039
1, 180352, Tempo, 303567
1, 180384, Tempo, 305095
1, 180448, Tempo, 306654
1, 180512, Tempo, 308214
1, 180576, Tempo, 309805
1, 180752, Tempo, 311429
1, 180816, Tempo, 313054
1, 180840, Tempo, 314680
1, 180888, Tempo, 316339
1, 180944, Tempo, 318016
1, 180976, Tempo, 319693
1, 181024, Tempo, 321423
1, 181088, Tempo, 323137
1, 181112, Tempo, 324886
1, 181160, Tempo, 326655
1, 181208, Tempo, 328443
1, 181232, Tempo, 330233
1, 181272, Tempo, 332079
1, 181336, Tempo, 333927
1, 182872, Tempo, 286205
1, 183840, Tempo, 304321
1, 184800, Tempo, 320564
1, 185288, Tempo, 286205
1, 186720, Tempo, 288962
1, 188160, Tempo, 282832
1, 191040, Tempo, 286889
1, 192480, Tempo, 289645
1, 193440, Tempo, 286205
1, 195360, Tempo, 288962
1, 196808, Tempo, 252525
1, 196816, Tempo, 286205
1, 197200, Tempo, 287577
1, 197224, Tempo, 288962
1, 197272, Tempo, 290360
1, 197432, Tempo, 291744
1, 197536, Tempo, 293169
1, 197584, Tempo, 294623
1, 197624, Tempo, 296092
1, 197688, Tempo, 297545
1, 197736, Tempo, 299013
1, 197752, Tempo, 300511
1, 197800, Tempo, 302039
1, 197816, Tempo, 303567
1, 197848, Tempo, 305095
1, 197872, Tempo, 306654
1, 197904, Tempo, 308214
1, 197968, Tempo, 311429
1, 197992, Tempo, 313054
1, 198024, Tempo, 314680
1, 198048, Tempo, 316339
1, 198096, Tempo, 318016
1, 198128, Tempo, 321423
1, 198152, Tempo, 323137
1, 198184, Tempo, 324886
1, 198192, Tempo, 326655
1, 198216, Tempo, 328443
1, 198248, Tempo, 330233
1, 198296, Tempo, 332079
1, 198320, Tempo, 333927
1, 198360, Tempo, 335777
1, 198384, Tempo, 337667
1, 198408, Tempo, 339559
1, 198432, Tempo, 341491
1, 198448, Tempo, 343446
1, 198472, Tempo, 345443
1, 198528, Tempo, 347443
1, 198576, Tempo, 349447
1, 198624, Tempo, 351494
1, 198640, Tempo, 353565
1, 198664, Tempo, 353565
1, 198760, Tempo, 355661
1, 201120, Tempo, 430880
1, 201600, Tempo, 667928
1, 202080, Tempo, 667928
1, 202080, End_track
2, 0, Start_track
2, 0, MIDI_port, 0
2, 0, Title_t, "PIano right "
2, 0, Program_c, 0, 0
2, 0, Control_c, 0, 7, 100
2, 0, Control_c, 0, 10, 64
2, 0, Control_c, 0, 91, 127
2, 0, Text_t, "bdca426d104a26ac9dcb070447587523"
2, 959, Control_c, 0, 91, 127
2, 960, Note_on_c, 0, 68, 62
2, 960, Note_on_c, 0, 73, 62
2, 1440, Note_on_c, 0, 73, 0
2, 1440, Note_on_c, 0, 68, 0
2, 1441, Note_on_c, 0, 72, 65
2, 1441, Note_on_c, 0, 68, 65
2, 2400, Note_on_c, 0, 67, 58
2, 2400, Note_on_c, 0, 70, 58
2, 2401, Note_on_c, 0, 68, 0
2, 2401, Note_on_c, 0, 72, 0
2, 2880, Note_on_c, 0, 67, 0
2, 2880, Note_on_c, 0, 70, 0
2, 2880, Note_on_c, 0, 72, 54
2, 2880, Note_on_c, 0, 75, 54
2, 3000, Note_on_c, 0, 75, 0
2, 3000, Note_on_c, 0, 72, 0
2, 3840, Note_on_c, 0, 65, 53
2, 3840, Note_on_c, 0, 73, 53
2, 3960, Note_on_c, 0, 73, 0
2, 3960, Note_on_c, 0, 65, 0
2, 4320, Note_on_c, 0, 68, 53
2, 4320, Note_on_c, 0, 72, 53
2, 4440, Note_on_c, 0, 72, 0
2, 4440, Note_on_c, 0, 68, 0
2, 5280, Note_on_c, 0, 67, 52
2, 5280, Note_on_c, 0, 70, 52
2, 5400, Note_on_c, 0, 70, 0
2, 5400, Note_on_c, 0, 67, 0
2, 5760, Note_on_c, 0, 68, 51
2, 5880, Note_on_c, 0, 68, 0
2, 6720, Note_on_c, 0, 73, 65
2, 6720, Note_on_c, 0, 78, 65
2, 7200, Note_on_c, 0, 78, 0
2, 7200, Note_on_c, 0, 73, 0
2, 7200, Note_on_c, 0, 73, 65
2, 7200, Note_on_c, 0, 77, 65
2, 8160, Note_on_c, 0, 77, 0
2, 8160, Note_on_c, 0, 73, 0
2, 8160, Note_on_c, 0, 72, 61
2, 8160, Note_on_c, 0, 75, 61
2, 8640, Note_on_c, 0, 75, 0
2, 8640, Note_on_c, 0, 72, 0
2, 8640, Note_on_c, 0, 73, 56
2, 8640, Note_on_c, 0, 80, 56
2, 8760, Note_on_c, 0, 80, 0
2, 8760, Note_on_c, 0, 73, 0
2, 9600, Note_on_c, 0, 70, 55
2, 9600, Note_on_c, 0, 78, 55
2, 9720, Note_on_c, 0, 78, 0
2, 9720, Note_on_c, 0, 70, 0
2, 10080, Note_on_c, 0, 73, 55
2, 10080, Note_on_c, 0, 77, 55
2, 10200, Note_on_c, 0, 77, 0
2, 10200, Note_on_c, 0, 73, 0
2, 11040, Note_on_c, 0, 72, 53
2, 11040, Note_on_c, 0, 75, 53
2, 11160, Note_on_c, 0, 75, 0
2, 11160, Note_on_c, 0, 72, 0
2, 11520, Note_on_c, 0, 73, 50
2, 11640, Note_on_c, 0, 73, 0
2, 12480, Note_on_c, 0, 61, 65
2, 12480, Note_on_c, 0, 73, 65
2, 13440, Note_on_c, 0, 73, 0
2, 13440, Note_on_c, 0, 61, 0
2, 13440, Note_on_c, 0, 60, 65
2, 13440, Note_on_c, 0, 72, 65
2, 13920, Note_on_c, 0, 72, 0
2, 13920, Note_on_c, 0, 60, 0
2, 13920, Note_on_c, 0, 58, 65
2, 13920, Note_on_c, 0, 70, 65
2, 14400, Note_on_c, 0, 58, 0
2, 14400, Note_on_c, 0, 60, 65
2, 14880, Note_on_c, 0, 60, 0
2, 14880, Note_on_c, 0, 70, 0
2, 14880, Note_on_c, 0, 75, 65
2, 15360, Note_on_c, 0, 75, 0
2, 15360, Note_on_c, 0, 73, 62
2, 15360, Note_on_c, 0, 65, 62
2, 15840, Note_on_c, 0, 65, 0
2, 15840, Note_on_c, 0, 68, 62
2, 16320, Note_on_c, 0, 68, 0
2, 16320, Note_on_c, 0, 73, 0
2, 16320, Note_on_c, 0, 72, 62
2, 16800, Note_on_c, 0, 72, 0
2, 16800, Note_on_c, 0, 67, 58
2, 16800, Note_on_c, 0, 70, 58
2, 17280, Note_on_c, 0, 67, 0
2, 17760, Note_on_c, 0, 70, 0
2, 17760, Note_on_c, 0, 68, 56
2, 18240, Note_on_c, 0, 68, 0
2, 18240, Note_on_c, 0, 66, 66
2, 18240, Note_on_c, 0, 78, 66
2, 19200, Note_on_c, 0, 78, 0
2, 19200, Note_on_c, 0, 66, 0
2, 19200, Note_on_c, 0, 65, 65
2, 19200, Note_on_c, 0, 77, 65
2, 19680, Note_on_c, 0, 77, 0
2, 19680, Note_on_c, 0, 65, 0
2, 19680, Note_on_c, 0, 63, 65
2, 19680, Note_on_c, 0, 75, 65
2, 20160, Note_on_c, 0, 63, 0
2, 20160, Note_on_c, 0, 68, 73
2, 20640, Note_on_c, 0, 68, 0
2, 20640, Note_on_c, 0, 75, 0
2, 20640, Note_on_c, 0, 80, 73
2, 21120, Note_on_c, 0, 80, 0
2, 21120, Note_on_c, 0, 70, 62
2, 21120, Note_on_c, 0, 78, 62
2, 21600, Note_on_c, 0, 70, 0
2, 21600, Note_on_c, 0, 73, 62
2, 22080, Note_on_c, 0, 73, 0
2, 22080, Note_on_c, 0, 78, 0
2, 22080, Note_on_c, 0, 77, 62
2, 22560, Note_on_c, 0, 77, 0
2, 22560, Note_on_c, 0, 75, 62
2, 22560, Note_on_c, 0, 72, 62
2, 23040, Note_on_c, 0, 72, 0
2, 23520, Note_on_c, 0, 75, 0
2, 23520, Note_on_c, 0, 73, 59
2, 24000, Note_on_c, 0, 73, 0
2, 24000, Note_on_c, 0, 73, 53
2, 24000, Note_on_c, 0, 65, 53
2, 24480, Note_on_c, 0, 65, 0
2, 24480, Note_on_c, 0, 73, 0
2, 24480, Note_on_c, 0, 73, 58
2, 24480, Note_on_c, 0, 65, 58
2, 25440, Note_on_c, 0, 65, 0
2, 25440, Note_on_c, 0, 73, 0
2, 25440, Note_on_c, 0, 65, 57
2, 25440, Note_on_c, 0, 73, 57
2, 25920, Note_on_c, 0, 73, 0
2, 25920, Note_on_c, 0, 65, 0
2, 25920, Note_on_c, 0, 63, 57
2, 25920, Note_on_c, 0, 73, 57
2, 26400, Note_on_c, 0, 73, 0
2, 26400, Note_on_c, 0, 72, 58
2, 26880, Note_on_c, 0, 72, 0
2, 26880, Note_on_c, 0, 63, 0
2, 26880, Note_on_c, 0, 63, 58
2, 26880, Note_on_c, 0, 71, 58
2, 27360, Note_on_c, 0, 71, 0
2, 27360, Note_on_c, 0, 63, 0
2, 27360, Note_on_c, 0, 63, 58
2, 27360, Note_on_c, 0, 71, 58
2, 28320, Note_on_c, 0, 71, 0
2, 28320, Note_on_c, 0, 63, 0
2, 28320, Note_on_c, 0, 63, 56
2, 28320, Note_on_c, 0, 71, 56
2, 28800, Note_on_c, 0, 71, 0
2, 28800, Note_on_c, 0, 63, 0
2, 28800, Note_on_c, 0, 63, 56
2, 28800, Note_on_c, 0, 71, 56
2, 29280, Note_on_c, 0, 71, 0
2, 29280, Note_on_c, 0, 70, 56
2, 29760, Note_on_c, 0, 70, 0
2, 29760, Note_on_c, 0, 63, 0
2, 29760, Note_on_c, 0, 61, 65
2, 29760, Note_on_c, 0, 70, 65
2, 30240, Note_on_c, 0, 70, 0
2, 30240, Note_on_c, 0, 61, 0
2, 30240, Note_on_c, 0, 66, 75
2, 30240, Note_on_c, 0, 72, 75
2, 31200, Note_on_c, 0, 72, 0
2, 31200, Note_on_c, 0, 66, 0
2, 31200, Note_on_c, 0, 65, 78
2, 31200, Note_on_c, 0, 73, 78
2, 31680, Note_on_c, 0, 73, 0
2, 31680, Note_on_c, 0, 65, 0
2, 31680, Note_on_c, 0, 63, 90
2, 31680, Note_on_c, 0, 75, 90
2, 32640, Note_on_c, 0, 75, 0
2, 32640, Note_on_c, 0, 63, 0
2, 32640, Note_on_c, 0, 63, 77
2, 32640, Note_on_c, 0, 66, 77
2, 33600, Note_on_c, 0, 66, 0
2, 33600, Note_on_c, 0, 63, 0
2, 33600, Note_on_c, 0, 61, 65
2, 33600, Note_on_c, 0, 65, 65
2, 34080, Note_on_c, 0, 65, 0
2, 34080, Note_on_c, 0, 61, 0
2, 34080, Note_on_c, 0, 70, 65
2, 34080, Note_on_c, 0, 58, 65
2, 34320, Note_on_c, 0, 70, 0
2, 34320, Note_on_c, 0, 66, 65
2, 34560, Note_on_c, 0, 66, 0
2, 34560, Note_on_c, 0, 58, 0
2, 34560, Note_on_c, 0, 61, 71
2, 34560, Note_on_c, 0, 65, 71
2, 35040, Note_on_c, 0, 65, 0
2, 35040, Note_on_c, 0, 61, 0
2, 35040, Note_on_c, 0, 60, 65
2, 35040, Note_on_c, 0, 63, 65
2, 35520, Note_on_c, 0, 63, 0
2, 35520, Note_on_c, 0, 60, 0
2, 35520, Note_on_c, 0, 61, 65
2, 35520, Note_on_c, 0, 73, 65
2, 36000, Note_on_c, 0, 73, 0
2, 36000, Note_on_c, 0, 61, 0
2, 36000, Note_on_c, 0, 60, 66
2, 36000, Note_on_c, 0, 72, 66
2, 36960, Note_on_c, 0, 72, 0
2, 36960, Note_on_c, 0, 60, 0
2, 36960, Note_on_c, 0, 70, 61
2, 36960, Note_on_c, 0, 58, 61
2, 37440, Note_on_c, 0, 58, 0
2, 37440, Note_on_c, 0, 70, 0
2, 37440, Note_on_c, 0, 63, 59
2, 37440, Note_on_c, 0, 75, 59
2, 37560, Note_on_c, 0, 75, 0
2, 37560, Note_on_c, 0, 63, 0
2, 38400, Note_on_c, 0, 65, 64
2, 38400, Note_on_c, 0, 73, 64
2, 38880, Note_on_c, 0, 65, 0
2, 38880, Note_on_c, 0, 68, 64
2, 39360, Note_on_c, 0, 68, 0
2, 39360, Note_on_c, 0, 73, 0
2, 39360, Note_on_c, 0, 72, 64
2, 39840, Note_on_c, 0, 72, 0
2, 39840, Note_on_c, 0, 67, 60
2, 39840, Note_on_c, 0, 70, 60
2, 40320, Note_on_c, 0, 67, 0
2, 40800, Note_on_c, 0, 70, 0
2, 40800, Note_on_c, 0, 68, 60
2, 41280, Note_on_c, 0, 68, 0
2, 41280, Note_on_c, 0, 66, 64
2, 41280, Note_on_c, 0, 78, 64
2, 41760, Note_on_c, 0, 78, 0
2, 41760, Note_on_c, 0, 66, 0
2, 41760, Note_on_c, 0, 65, 65
2, 41760, Note_on_c, 0, 77, 65
2, 42720, Note_on_c, 0, 77, 0
2, 42720, Note_on_c, 0, 65, 0
2, 42720, Note_on_c, 0, 63, 64
2, 42720, Note_on_c, 0, 75, 64
2, 43200, Note_on_c, 0, 75, 0
2, 43200, Note_on_c, 0, 63, 0
2, 43200, Note_on_c, 0, 68, 62
2, 43200, Note_on_c, 0, 80, 62
2, 43320, Note_on_c, 0, 80, 0
2, 43320, Note_on_c, 0, 68, 0
2, 44160, Note_on_c, 0, 66, 64
2, 44160, Note_on_c, 0, 78, 64
2, 45120, Note_on_c, 0, 78, 0
2, 45120, Note_on_c, 0, 66, 0
2, 45120, Note_on_c, 0, 65, 64
2, 45120, Note_on_c, 0, 77, 64
2, 45600, Note_on_c, 0, 77, 0
2, 45600, Note_on_c, 0, 65, 0
2, 45600, Note_on_c, 0, 63, 64
2, 45600, Note_on_c, 0, 75, 64
2, 45840, Note_on_c, 0, 75, 0
2, 45840, Note_on_c, 0, 63, 0
2, 46080, Note_on_c, 0, 68, 65
2, 46080, Note_on_c, 0, 80, 65
2, 46200, Note_on_c, 0, 80, 0
2, 46200, Note_on_c, 0, 68, 0
2, 47040, Note_on_c, 0, 66, 74
2, 47040, Note_on_c, 0, 78, 74
2, 48000, Note_on_c, 0, 78, 0
2, 48000, Note_on_c, 0, 66, 0
2, 48000, Note_on_c, 0, 65, 80
2, 48000, Note_on_c, 0, 77, 80
2, 48480, Note_on_c, 0, 77, 0
2, 48480, Note_on_c, 0, 65, 0
2, 48480, Note_on_c, 0, 70, 97
2, 48480, Note_on_c, 0, 82, 97
2, 49440, Note_on_c, 0, 82, 0
2, 49440, Note_on_c, 0, 70, 0
2, 49440, Note_on_c, 0, 68, 77
2, 49440, Note_on_c, 0, 80, 77
2, 49920, Note_on_c, 0, 80, 0
2, 49920, Note_on_c, 0, 68, 0
2, 50400, Note_on_c, 0, 54, 64
2, 50400, Note_on_c, 0, 60, 64
2, 51360, Note_on_c, 0, 60, 0
2, 51360, Note_on_c, 0, 63, 61
2, 51600, Note_on_c, 0, 63, 0
2, 51600, Note_on_c, 0, 61, 61
2, 51840, Note_on_c, 0, 61, 0
2, 51840, Note_on_c, 0, 54, 0
2, 51840, Note_on_c, 0, 61, 58
2, 52320, Note_on_c, 0, 61, 0
2, 52800, Note_on_c, 0, 73, 64
2, 52800, Note_on_c, 0, 65, 64
2, 53280, Note_on_c, 0, 65, 0
2, 53280, Note_on_c, 0, 73, 0
2, 53280, Note_on_c, 0, 73, 64
2, 53280, Note_on_c, 0, 65, 64
2, 54240, Note_on_c, 0, 65, 0
2, 54240, Note_on_c, 0, 73, 0
2, 54240, Note_on_c, 0, 65, 64
2, 54240, Note_on_c, 0, 73, 64
2, 54720, Note_on_c, 0, 73, 0
2, 54720, Note_on_c, 0, 65, 0
2, 54720, Note_on_c, 0, 63, 64
2, 54720, Note_on_c, 0, 73, 64
2, 55200, Note_on_c, 0, 73, 0
2, 55200, Note_on_c, 0, 72, 64
2, 55680, Note_on_c, 0, 72, 0
2, 55680, Note_on_c, 0, 63, 0
2, 55680, Note_on_c, 0, 63, 61
2, 55680, Note_on_c, 0, 71, 61
2, 56160, Note_on_c, 0, 71, 0
2, 56160, Note_on_c, 0, 63, 0
2, 56160, Note_on_c, 0, 63, 61
2, 56160, Note_on_c, 0, 71, 61
2, 57120, Note_on_c, 0, 71, 0
2, 57120, Note_on_c, 0, 63, 0
2, 57120, Note_on_c, 0, 63, 58
2, 57120, Note_on_c, 0, 71, 58
2, 57600, Note_on_c, 0, 71, 0
2, 57600, Note_on_c, 0, 63, 0
2, 57600, Note_on_c, 0, 63, 58
2, 57600, Note_on_c, 0, 71, 58
2, 58080, Note_on_c, 0, 71, 0
2, 58080, Note_on_c, 0, 70, 58
2, 58560, Note_on_c, 0, 70, 0
2, 58560, Note_on_c, 0, 63, 0
2, 58560, Note_on_c, 0, 61, 64
2, 58560, Note_on_c, 0, 70, 64
2, 59040, Note_on_c, 0, 70, 0
2, 59040, Note_on_c, 0, 61, 0
2, 59040, Note_on_c, 0, 66, 74
2, 59040, Note_on_c, 0, 72, 74
2, 60000, Note_on_c, 0, 72, 0
2, 60000, Note_on_c, 0, 66, 0
2, 60000, Note_on_c, 0, 65, 77
2, 60000, Note_on_c, 0, 73, 77
2, 60480, Note_on_c, 0, 73, 0
2, 60480, Note_on_c, 0, 65, 0
2, 60480, Note_on_c, 0, 63, 89
2, 60480, Note_on_c, 0, 75, 89
2, 61440, Note_on_c, 0, 75, 0
2, 61440, Note_on_c, 0, 63, 0
2, 61440, Note_on_c, 0, 63, 76
2, 61440, Note_on_c, 0, 66, 76
2, 62400, Note_on_c, 0, 66, 0
2, 62400, Note_on_c, 0, 63, 0
2, 62400, Note_on_c, 0, 61, 64
2, 62400, Note_on_c, 0, 65, 64
2, 62880, Note_on_c, 0, 65, 0
2, 62880, Note_on_c, 0, 61, 0
2, 62880, Note_on_c, 0, 70, 64
2, 62880, Note_on_c, 0, 58, 64
2, 63120, Note_on_c, 0, 70, 0
2, 63120, Note_on_c, 0, 66, 64
2, 63360, Note_on_c, 0, 66, 0
2, 63360, Note_on_c, 0, 58, 0
2, 63360, Note_on_c, 0, 61, 71
2, 63360, Note_on_c, 0, 65, 71
2, 63840, Note_on_c, 0, 65, 0
2, 63840, Note_on_c, 0, 61, 0
2, 63840, Note_on_c, 0, 60, 64
2, 63840, Note_on_c, 0, 63, 64
2, 64320, Note_on_c, 0, 63, 0
2, 64320, Note_on_c, 0, 60, 0
2, 64320, Note_on_c, 0, 61, 64
2, 64320, Note_on_c, 0, 73, 64
2, 64800, Note_on_c, 0, 73, 0
2, 64800, Note_on_c, 0, 61, 0
2, 64800, Note_on_c, 0, 60, 65
2, 64800, Note_on_c, 0, 72, 65
2, 65760, Note_on_c, 0, 72, 0
2, 65760, Note_on_c, 0, 60, 0
2, 65760, Note_on_c, 0, 70, 62
2, 65760, Note_on_c, 0, 58, 62
2, 66240, Note_on_c, 0, 58, 0
2, 66240, Note_on_c, 0, 70, 0
2, 66240, Note_on_c, 0, 63, 60
2, 66240, Note_on_c, 0, 75, 60
2, 66360, Note_on_c, 0, 75, 0
2, 66360, Note_on_c, 0, 63, 0
2, 67200, Note_on_c, 0, 65, 61
2, 67200, Note_on_c, 0, 73, 61
2, 67680, Note_on_c, 0, 65, 0
2, 67680, Note_on_c, 0, 68, 61
2, 68160, Note_on_c, 0, 68, 0
2, 68160, Note_on_c, 0, 73, 0
2, 68160, Note_on_c, 0, 72, 61
2, 68640, Note_on_c, 0, 72, 0
2, 68640, Note_on_c, 0, 67, 61
2, 68640, Note_on_c, 0, 70, 61
2, 69120, Note_on_c, 0, 67, 0
2, 69600, Note_on_c, 0, 70, 0
2, 69600, Note_on_c, 0, 68, 59
2, 70080, Note_on_c, 0, 68, 0
2, 70080, Note_on_c, 0, 66, 64
2, 70080, Note_on_c, 0, 78, 64
2, 70560, Note_on_c, 0, 78, 0
2, 70560, Note_on_c, 0, 66, 0
2, 70560, Note_on_c, 0, 65, 65
2, 70560, Note_on_c, 0, 77, 65
2, 71520, Note_on_c, 0, 77, 0
2, 71520, Note_on_c, 0, 65, 0
2, 71520, Note_on_c, 0, 63, 63
2, 71520, Note_on_c, 0, 75, 63
2, 72000, Note_on_c, 0, 75, 0
2, 72000, Note_on_c, 0, 63, 0
2, 72000, Note_on_c, 0, 68, 59
2, 72000, Note_on_c, 0, 80, 59
2, 72120, Note_on_c, 0, 80, 0
2, 72120, Note_on_c, 0, 68, 0
2, 72960, Note_on_c, 0, 66, 64
2, 72960, Note_on_c, 0, 78, 64
2, 73920, Note_on_c, 0, 78, 0
2, 73920, Note_on_c, 0, 66, 0
2, 73920, Note_on_c, 0, 65, 64
2, 73920, Note_on_c, 0, 77, 64
2, 74400, Note_on_c, 0, 77, 0
2, 74400, Note_on_c, 0, 65, 0
2, 74400, Note_on_c, 0, 63, 64
2, 74400, Note_on_c, 0, 75, 64
2, 74640, Note_on_c, 0, 75, 0
2, 74640, Note_on_c, 0, 63, 0
2, 74880, Note_on_c, 0, 68, 69
2, 74880, Note_on_c, 0, 80, 69
2, 75000, Note_on_c, 0, 80, 0
2, 75000, Note_on_c, 0, 68, 0
2, 75840, Note_on_c, 0, 66, 74
2, 75840, Note_on_c, 0, 78, 74
2, 76800, Note_on_c, 0, 78, 0
2, 76800, Note_on_c, 0, 66, 0
2, 76800, Note_on_c, 0, 65, 84
2, 76800, Note_on_c, 0, 77, 84
2, 77280, Note_on_c, 0, 77, 0
2, 77280, Note_on_c, 0, 65, 0
2, 77280, Note_on_c, 0, 70, 99
2, 77280, Note_on_c, 0, 82, 99
2, 78240, Note_on_c, 0, 82, 0
2, 78240, Note_on_c, 0, 70, 0
2, 78240, Note_on_c, 0, 68, 77
2, 78240, Note_on_c, 0, 80, 77
2, 78720, Note_on_c, 0, 80, 0
2, 78720, Note_on_c, 0, 68, 0
2, 79200, Note_on_c, 0, 54, 64
2, 79200, Note_on_c, 0, 60, 64
2, 80160, Note_on_c, 0, 60, 0
2, 80160, Note_on_c, 0, 63, 61
2, 80400, Note_on_c, 0, 63, 0
2, 80400, Note_on_c, 0, 61, 61
2, 80640, Note_on_c, 0, 61, 0
2, 80640, Note_on_c, 0, 54, 0
2, 80640, Note_on_c, 0, 61, 58
2, 81120, Note_on_c, 0, 61, 0
2, 81600, Note_on_c, 0, 53, 100
2, 81600, Note_on_c, 0, 65, 100
2, 83040, Note_on_c, 0, 65, 0
2, 83040, Note_on_c, 0, 53, 0
2, 83040, Note_on_c, 0, 54, 98
2, 83040, Note_on_c, 0, 66, 98
2, 84480, Note_on_c, 0, 66, 0
2, 84480, Note_on_c, 0, 54, 0
2, 84480, Note_on_c, 0, 63, 102
2, 84480, Note_on_c, 0, 75, 102
2, 85440, Note_on_c, 0, 75, 0
2, 85440, Note_on_c, 0, 63, 0
2, 85440, Note_on_c, 0, 60, 87
2, 85440, Note_on_c, 0, 72, 87
2, 85920, Note_on_c, 0, 72, 0
2, 85920, Note_on_c, 0, 60, 0
2, 85920, Note_on_c, 0, 56, 88
2, 85920, Note_on_c, 0, 68, 88
2, 86040, Note_on_c, 0, 68, 0
2, 86040, Note_on_c, 0, 56, 0
2, 86400, Note_on_c, 0, 61, 89
2, 86400, Note_on_c, 0, 73, 89
2, 86880, Note_on_c, 0, 73, 0
2, 86880, Note_on_c, 0, 61, 0
2, 86880, Note_on_c, 0, 65, 82
2, 86880, Note_on_c, 0, 77, 82
2, 87360, Note_on_c, 0, 77, 0
2, 87360, Note_on_c, 0, 65, 0
2, 87360, Note_on_c, 0, 53, 99
2, 87360, Note_on_c, 0, 65, 99
2, 88800, Note_on_c, 0, 65, 0
2, 88800, Note_on_c, 0, 53, 0
2, 88800, Note_on_c, 0, 54, 99
2, 88800, Note_on_c, 0, 66, 99
2, 90240, Note_on_c, 0, 66, 0
2, 90240, Note_on_c, 0, 54, 0
2, 90240, Note_on_c, 0, 66, 87
2, 90240, Note_on_c, 0, 78, 87
2, 91200, Note_on_c, 0, 78, 0
2, 91200, Note_on_c, 0, 66, 0
2, 91200, Note_on_c, 0, 70, 83
2, 91200, Note_on_c, 0, 82, 83
2, 91680, Note_on_c, 0, 82, 0
2, 91680, Note_on_c, 0, 70, 0
2, 91680, Note_on_c, 0, 60, 79
2, 91680, Note_on_c, 0, 72, 79
2, 91800, Note_on_c, 0, 72, 0
2, 91800, Note_on_c, 0, 60, 0
2, 92160, Note_on_c, 0, 63, 84
2, 92160, Note_on_c, 0, 75, 84
2, 92640, Note_on_c, 0, 75, 0
2, 92640, Note_on_c, 0, 63, 0
2, 92640, Note_on_c, 0, 61, 78
2, 92640, Note_on_c, 0, 73, 78
2, 93120, Note_on_c, 0, 73, 0
2, 93120, Note_on_c, 0, 61, 0
2, 93120, Note_on_c, 0, 53, 99
2, 93120, Note_on_c, 0, 65, 99
2, 94560, Note_on_c, 0, 65, 0
2, 94560, Note_on_c, 0, 53, 0
2, 94560, Note_on_c, 0, 54, 100
2, 94560, Note_on_c, 0, 66, 100
2, 96000, Note_on_c, 0, 66, 0
2, 96000, Note_on_c, 0, 54, 0
2, 96000, Note_on_c, 0, 63, 99
2, 96000, Note_on_c, 0, 75, 99
2, 96960, Note_on_c, 0, 75, 0
2, 96960, Note_on_c, 0, 63, 0
2, 96960, Note_on_c, 0, 60, 87
2, 96960, Note_on_c, 0, 72, 87
2, 97440, Note_on_c, 0, 72, 0
2, 97440, Note_on_c, 0, 60, 0
2, 97440, Note_on_c, 0, 56, 88
2, 97440, Note_on_c, 0, 68, 88
2, 97560, Note_on_c, 0, 68, 0
2, 97560, Note_on_c, 0, 56, 0
2, 97920, Note_on_c, 0, 61, 89
2, 97920, Note_on_c, 0, 73, 89
2, 98400, Note_on_c, 0, 73, 0
2, 98400, Note_on_c, 0, 61, 0
2, 98400, Note_on_c, 0, 65, 83
2, 98400, Note_on_c, 0, 77, 83
2, 98880, Note_on_c, 0, 77, 0
2, 98880, Note_on_c, 0, 65, 0
2, 98880, Note_on_c, 0, 53, 100
2, 98880, Note_on_c, 0, 65, 100
2, 100320, Note_on_c, 0, 65, 0
2, 100320, Note_on_c, 0, 53, 0
2, 100320, Note_on_c, 0, 54, 102
2, 100320, Note_on_c, 0, 66, 102
2, 101760, Note_on_c, 0, 66, 0
2, 101760, Note_on_c, 0, 54, 0
2, 101760, Note_on_c, 0, 66, 87
2, 101760, Note_on_c, 0, 78, 87
2, 102720, Note_on_c, 0, 78, 0
2, 102720, Note_on_c, 0, 66, 0
2, 102720, Note_on_c, 0, 70, 87
2, 102720, Note_on_c, 0, 82, 87
2, 103200, Note_on_c, 0, 82, 0
2, 103200, Note_on_c, 0, 70, 0
2, 103200, Note_on_c, 0, 60, 85
2, 103200, Note_on_c, 0, 72, 85
2, 103320, Note_on_c, 0, 72, 0
2, 103320, Note_on_c, 0, 60, 0
2, 103680, Note_on_c, 0, 63, 79
2, 103680, Note_on_c, 0, 75, 79
2, 104160, Note_on_c, 0, 75, 0
2, 104160, Note_on_c, 0, 63, 0
2, 104160, Note_on_c, 0, 61, 74
2, 104160, Note_on_c, 0, 73, 74
2, 104640, Note_on_c, 0, 73, 0
2, 104640, Note_on_c, 0, 61, 0
2, 104640, Note_on_c, 0, 65, 55
2, 104640, Note_on_c, 0, 77, 55
2, 106080, Note_on_c, 0, 77, 0
2, 106080, Note_on_c, 0, 65, 0
2, 106080, Note_on_c, 0, 58, 55
2, 106080, Note_on_c, 0, 70, 55
2, 107520, Note_on_c, 0, 70, 0
2, 107520, Note_on_c, 0, 58, 0
2, 107520, Note_on_c, 0, 63, 48
2, 107520, Note_on_c, 0, 75, 48
2, 108960, Note_on_c, 0, 75, 0
2, 108960, Note_on_c, 0, 63, 0
2, 108960, Note_on_c, 0, 56, 49
2, 108960, Note_on_c, 0, 68, 49
2, 110400, Note_on_c, 0, 68, 0
2, 110400, Note_on_c, 0, 56, 0
2, 110400, Note_on_c, 0, 61, 49
2, 110400, Note_on_c, 0, 73, 49
2, 111840, Note_on_c, 0, 73, 0
2, 111840, Note_on_c, 0, 61, 0
2, 111840, Note_on_c, 0, 54, 43
2, 111840, Note_on_c, 0, 66, 43
2, 113280, Note_on_c, 0, 66, 0
2, 113280, Note_on_c, 0, 54, 0
2, 113280, Note_on_c, 0, 53, 44
2, 113280, Note_on_c, 0, 65, 44
2, 114240, Note_on_c, 0, 65, 0
2, 114240, Note_on_c, 0, 53, 0
2, 114240, Note_on_c, 0, 56, 44
2, 114240, Note_on_c, 0, 68, 44
2, 114720, Note_on_c, 0, 68, 0
2, 114720, Note_on_c, 0, 56, 0
2, 114720, Note_on_c, 0, 59, 44
2, 114720, Note_on_c, 0, 71, 44
2, 115680, Note_on_c, 0, 71, 0
2, 115680, Note_on_c, 0, 59, 0
2, 115680, Note_on_c, 0, 58, 44
2, 115680, Note_on_c, 0, 70, 44
2, 116160, Note_on_c, 0, 70, 0
2, 116160, Note_on_c, 0, 58, 0
2, 116160, Note_on_c, 0, 61, 48
2, 116160, Note_on_c, 0, 73, 48
2, 117600, Note_on_c, 0, 73, 0
2, 117600, Note_on_c, 0, 61, 0
2, 117600, Note_on_c, 0, 54, 48
2, 117600, Note_on_c, 0, 66, 48
2, 119040, Note_on_c, 0, 66, 0
2, 119040, Note_on_c, 0, 54, 0
2, 119040, Note_on_c, 0, 53, 47
2, 119040, Note_on_c, 0, 65, 47
2, 120480, Note_on_c, 0, 65, 0
2, 120480, Note_on_c, 0, 53, 0
2, 120480, Note_on_c, 0, 52, 50
2, 120480, Note_on_c, 0, 64, 50
2, 121920, Note_on_c, 0, 64, 0
2, 121920, Note_on_c, 0, 52, 0
2, 121920, Note_on_c, 0, 53, 64
2, 121920, Note_on_c, 0, 65, 64
2, 123360, Note_on_c, 0, 65, 0
2, 123360, Note_on_c, 0, 53, 0
2, 123360, Note_on_c, 0, 54, 85
2, 123360, Note_on_c, 0, 66, 85
2, 124800, Note_on_c, 0, 66, 0
2, 124800, Note_on_c, 0, 54, 0
2, 124800, Note_on_c, 0, 53, 66
2, 124800, Note_on_c, 0, 65, 66
2, 125760, Note_on_c, 0, 65, 0
2, 125760, Note_on_c, 0, 53, 0
2, 125760, Note_on_c, 0, 54, 64
2, 125760, Note_on_c, 0, 66, 64
2, 126240, Note_on_c, 0, 66, 0
2, 126240, Note_on_c, 0, 54, 0
2, 126240, Note_on_c, 0, 48, 57
2, 126240, Note_on_c, 0, 60, 57
2, 126360, Note_on_c, 0, 60, 0
2, 126360, Note_on_c, 0, 48, 0
2, 126720, Note_on_c, 0, 49, 57
2, 126720, Note_on_c, 0, 61, 57
2, 126840, Note_on_c, 0, 61, 0
2, 126840, Note_on_c, 0, 49, 0
2, 127680, Note_on_c, 0, 65, 52
2, 127680, Note_on_c, 0, 77, 52
2, 129120, Note_on_c, 0, 77, 0
2, 129120, Note_on_c, 0, 65, 0
2, 129120, Note_on_c, 0, 58, 49
2, 129120, Note_on_c, 0, 70, 49
2, 130560, Note_on_c, 0, 70, 0
2, 130560, Note_on_c, 0, 58, 0
2, 130560, Note_on_c, 0, 63, 49
2, 130560, Note_on_c, 0, 75, 49
2, 132000, Note_on_c, 0, 75, 0
2, 132000, Note_on_c, 0, 63, 0
2, 132000, Note_on_c, 0, 56, 47
2, 132000, Note_on_c, 0, 68, 47
2, 133440, Note_on_c, 0, 68, 0
2, 133440, Note_on_c, 0, 56, 0
2, 133440, Note_on_c, 0, 61, 49
2, 133440, Note_on_c, 0, 73, 49
2, 134880, Note_on_c, 0, 73, 0
2, 134880, Note_on_c, 0, 61, 0
2, 134880, Note_on_c, 0, 54, 42
2, 134880, Note_on_c, 0, 66, 42
2, 136320, Note_on_c, 0, 66, 0
2, 136320, Note_on_c, 0, 54, 0
2, 136320, Note_on_c, 0, 53, 43
2, 136320, Note_on_c, 0, 65, 43
2, 137280, Note_on_c, 0, 65, 0
2, 137280, Note_on_c, 0, 53, 0
2, 137280, Note_on_c, 0, 56, 43
2, 137280, Note_on_c, 0, 68, 43
2, 137760, Note_on_c, 0, 68, 0
2, 137760, Note_on_c, 0, 56, 0
2, 137760, Note_on_c, 0, 59, 50
2, 137760, Note_on_c, 0, 71, 50
2, 138720, Note_on_c, 0, 71, 0
2, 138720, Note_on_c, 0, 59, 0
2, 138720, Note_on_c, 0, 58, 43
2, 138720, Note_on_c, 0, 70, 43
2, 139200, Note_on_c, 0, 70, 0
2, 139200, Note_on_c, 0, 58, 0
2, 139200, Note_on_c, 0, 61, 51
2, 139200, Note_on_c, 0, 73, 51
2, 140640, Note_on_c, 0, 73, 0
2, 140640, Note_on_c, 0, 61, 0
2, 140640, Note_on_c, 0, 54, 49
2, 140640, Note_on_c, 0, 66, 49
2, 142080, Note_on_c, 0, 66, 0
2, 142080, Note_on_c, 0, 54, 0
2, 142080, Note_on_c, 0, 53, 46
2, 142080, Note_on_c, 0, 65, 46
2, 143520, Note_on_c, 0, 65, 0
2, 143520, Note_on_c, 0, 53, 0
2, 143520, Note_on_c, 0, 52, 47
2, 143520, Note_on_c, 0, 64, 47
2, 144960, Note_on_c, 0, 64, 0
2, 144960, Note_on_c, 0, 52, 0
2, 144960, Note_on_c, 0, 53, 64
2, 144960, Note_on_c, 0, 65, 64
2, 146400, Note_on_c, 0, 65, 0
2, 146400, Note_on_c, 0, 53, 0
2, 146400, Note_on_c, 0, 54, 85
2, 146400, Note_on_c, 0, 66, 85
2, 147840, Note_on_c, 0, 66, 0
2, 147840, Note_on_c, 0, 54, 0
2, 147840, Note_on_c, 0, 53, 66
2, 147840, Note_on_c, 0, 65, 66
2, 148800, Note_on_c, 0, 65, 0
2, 148800, Note_on_c, 0, 53, 0
2, 148800, Note_on_c, 0, 54, 64
2, 148800, Note_on_c, 0, 66, 64
2, 149280, Note_on_c, 0, 66, 0
2, 149280, Note_on_c, 0, 54, 0
2, 149280, Note_on_c, 0, 48, 58
2, 149280, Note_on_c, 0, 60, 58
2, 149400, Note_on_c, 0, 60, 0
2, 149400, Note_on_c, 0, 48, 0
2, 149760, Note_on_c, 0, 49, 58
2, 149760, Note_on_c, 0, 61, 58
2, 149880, Note_on_c, 0, 61, 0
2, 149880, Note_on_c, 0, 49, 0
2, 150720, Note_on_c, 0, 68, 64
2, 150720, Note_on_c, 0, 73, 64
2, 151200, Note_on_c, 0, 73, 0
2, 151200, Note_on_c, 0, 68, 0
2, 151201, Note_on_c, 0, 72, 64
2, 151201, Note_on_c, 0, 68, 64
2, 152160, Note_on_c, 0, 67, 59
2, 152160, Note_on_c, 0, 70, 59
2, 152161, Note_on_c, 0, 68, 0
2, 152161, Note_on_c, 0, 72, 0
2, 152640, Note_on_c, 0, 67, 0
2, 152640, Note_on_c, 0, 70, 0
2, 152640, Note_on_c, 0, 72, 55
2, 152640, Note_on_c, 0, 75, 55
2, 152760, Note_on_c, 0, 75, 0
2, 152760, Note_on_c, 0, 72, 0
2, 153600, Note_on_c, 0, 65, 55
2, 153600, Note_on_c, 0, 73, 55
2, 153720, Note_on_c, 0, 73, 0
2, 153720, Note_on_c, 0, 65, 0
2, 154080, Note_on_c, 0, 68, 55
2, 154080, Note_on_c, 0, 72, 55
2, 154200, Note_on_c, 0, 72, 0
2, 154200, Note_on_c, 0, 68, 0
2, 155040, Note_on_c, 0, 67, 50
2, 155040, Note_on_c, 0, 70, 50
2, 155160, Note_on_c, 0, 70, 0
2, 155160, Note_on_c, 0, 67, 0
2, 155520, Note_on_c, 0, 68, 48
2, 155640, Note_on_c, 0, 68, 0
2, 156480, Note_on_c, 0, 73, 64
2, 156480, Note_on_c, 0, 78, 64
2, 156960, Note_on_c, 0, 78, 0
2, 156960, Note_on_c, 0, 73, 0
2, 156960, Note_on_c, 0, 73, 64
2, 156960, Note_on_c, 0, 77, 64
2, 157920, Note_on_c, 0, 77, 0
2, 157920, Note_on_c, 0, 73, 0
2, 157920, Note_on_c, 0, 72, 60
2, 157920, Note_on_c, 0, 75, 60
2, 158400, Note_on_c, 0, 75, 0
2, 158400, Note_on_c, 0, 72, 0
2, 158400, Note_on_c, 0, 73, 56
2, 158400, Note_on_c, 0, 80, 56
2, 158520, Note_on_c, 0, 80, 0
2, 158520, Note_on_c, 0, 73, 0
2, 159360, Note_on_c, 0, 70, 55
2, 159360, Note_on_c, 0, 78, 55
2, 159480, Note_on_c, 0, 78, 0
2, 159480, Note_on_c, 0, 70, 0
2, 159840, Note_on_c, 0, 73, 56
2, 159840, Note_on_c, 0, 77, 56
2, 159960, Note_on_c, 0, 77, 0
2, 159960, Note_on_c, 0, 73, 0
2, 160800, Note_on_c, 0, 72, 54
2, 160800, Note_on_c, 0, 75, 54
2, 160920, Note_on_c, 0, 75, 0
2, 160920, Note_on_c, 0, 72, 0
2, 161280, Note_on_c, 0, 73, 51
2, 161400, Note_on_c, 0, 73, 0
2, 162240, Note_on_c, 0, 61, 64
2, 162240, Note_on_c, 0, 73, 64
2, 163200, Note_on_c, 0, 73, 0
2, 163200, Note_on_c, 0, 61, 0
2, 163200, Note_on_c, 0, 60, 64
2, 163200, Note_on_c, 0, 72, 64
2, 163680, Note_on_c, 0, 72, 0
2, 163680, Note_on_c, 0, 60, 0
2, 163680, Note_on_c, 0, 58, 64
2, 163680, Note_on_c, 0, 70, 64
2, 164160, Note_on_c, 0, 58, 0
2, 164160, Note_on_c, 0, 60, 64
2, 164640, Note_on_c, 0, 60, 0
2, 164640, Note_on_c, 0, 70, 0
2, 164640, Note_on_c, 0, 75, 64
2, 165120, Note_on_c, 0, 75, 0
2, 165120, Note_on_c, 0, 73, 59
2, 165120, Note_on_c, 0, 65, 59
2, 165600, Note_on_c, 0, 65, 0
2, 165600, Note_on_c, 0, 68, 59
2, 166080, Note_on_c, 0, 68, 0
2, 166080, Note_on_c, 0, 73, 0
2, 166080, Note_on_c, 0, 72, 59
2, 166560, Note_on_c, 0, 72, 0
2, 166560, Note_on_c, 0, 67, 59
2, 166560, Note_on_c, 0, 70, 59
2, 167040, Note_on_c, 0, 67, 0
2, 167520, Note_on_c, 0, 70, 0
2, 167520, Note_on_c, 0, 68, 64
2, 168000, Note_on_c, 0, 68, 0
2, 168000, Note_on_c, 0, 66, 64
2, 168000, Note_on_c, 0, 78, 64
2, 168960, Note_on_c, 0, 78, 0
2, 168960, Note_on_c, 0, 66, 0
2, 168960, Note_on_c, 0, 65, 64
2, 168960, Note_on_c, 0, 77, 64
2, 169440, Note_on_c, 0, 77, 0
2, 169440, Note_on_c, 0, 65, 0
2, 169440, Note_on_c, 0, 63, 64
2, 169440, Note_on_c, 0, 75, 64
2, 169920, Note_on_c, 0, 63, 0
2, 169920, Note_on_c, 0, 68, 69
2, 170400, Note_on_c, 0, 68, 0
2, 170400, Note_on_c, 0, 75, 0
2, 170400, Note_on_c, 0, 80, 69
2, 170880, Note_on_c, 0, 80, 0
2, 170880, Note_on_c, 0, 70, 64
2, 170880, Note_on_c, 0, 78, 64
2, 171360, Note_on_c, 0, 70, 0
2, 171360, Note_on_c, 0, 73, 64
2, 171840, Note_on_c, 0, 73, 0
2, 171840, Note_on_c, 0, 78, 0
2, 171840, Note_on_c, 0, 77, 59
2, 172320, Note_on_c, 0, 77, 0
2, 172320, Note_on_c, 0, 75, 59
2, 172320, Note_on_c, 0, 72, 59
2, 172800, Note_on_c, 0, 72, 0
2, 173280, Note_on_c, 0, 75, 0
2, 173280, Note_on_c, 0, 73, 56
2, 173760, Note_on_c, 0, 73, 0
2, 173760, Note_on_c, 0, 73, 64
2, 173760, Note_on_c, 0, 65, 64
2, 174240, Note_on_c, 0, 65, 0
2, 174240, Note_on_c, 0, 73, 0
2, 174240, Note_on_c, 0, 73, 64
2, 174240, Note_on_c, 0, 65, 64
2, 175200, Note_on_c, 0, 65, 0
2, 175200, Note_on_c, 0, 73, 0
2, 175200, Note_on_c, 0, 65, 64
2, 175200, Note_on_c, 0, 73, 64
2, 175680, Note_on_c, 0, 73, 0
2, 175680, Note_on_c, 0, 65, 0
2, 175680, Note_on_c, 0, 63, 64
2, 175680, Note_on_c, 0, 73, 64
2, 176160, Note_on_c, 0, 73, 0
2, 176160, Note_on_c, 0, 72, 64
2, 176640, Note_on_c, 0, 72, 0
2, 176640, Note_on_c, 0, 63, 0
2, 176640, Note_on_c, 0, 63, 57
2, 176640, Note_on_c, 0, 71, 57
2, 177120, Note_on_c, 0, 71, 0
2, 177120, Note_on_c, 0, 63, 0
2, 177120, Note_on_c, 0, 63, 58
2, 177120, Note_on_c, 0, 71, 58
2, 178080, Note_on_c, 0, 71, 0
2, 178080, Note_on_c, 0, 63, 0
2, 178080, Note_on_c, 0, 63, 58
2, 178080, Note_on_c, 0, 71, 58
2, 178560, Note_on_c, 0, 71, 0
2, 178560, Note_on_c, 0, 63, 0
2, 178560, Note_on_c, 0, 63, 58
2, 178560, Note_on_c, 0, 71, 58
2, 179040, Note_on_c, 0, 71, 0
2, 179040, Note_on_c, 0, 70, 58
2, 179520, Note_on_c, 0, 70, 0
2, 179520, Note_on_c, 0, 63, 0
2, 179520, Note_on_c, 0, 61, 64
2, 179520, Note_on_c, 0, 70, 64
2, 180000, Note_on_c, 0, 70, 0
2, 180000, Note_on_c, 0, 61, 0
2, 180000, Note_on_c, 0, 66, 73
2, 180000, Note_on_c, 0, 72, 73
2, 180960, Note_on_c, 0, 72, 0
2, 180960, Note_on_c, 0, 66, 0
2, 180960, Note_on_c, 0, 65, 77
2, 180960, Note_on_c, 0, 73, 77
2, 181440, Note_on_c, 0, 73, 0
2, 181440, Note_on_c, 0, 65, 0
2, 181440, Note_on_c, 0, 63, 88
2, 181440, Note_on_c, 0, 75, 88
2, 182400, Note_on_c, 0, 75, 0
2, 182400, Note_on_c, 0, 63, 0
2, 182400, Note_on_c, 0, 63, 75
2, 182400, Note_on_c, 0, 66, 75
2, 183360, Note_on_c, 0, 66, 0
2, 183360, Note_on_c, 0, 63, 0
2, 183360, Note_on_c, 0, 61, 64
2, 183360, Note_on_c, 0, 65, 64
2, 183840, Note_on_c, 0, 65, 0
2, 183840, Note_on_c, 0, 61, 0
2, 183840, Note_on_c, 0, 70, 64
2, 183840, Note_on_c, 0, 58, 64
2, 184080, Note_on_c, 0, 70, 0
2, 184080, Note_on_c, 0, 66, 64
2, 184320, Note_on_c, 0, 66, 0
2, 184320, Note_on_c, 0, 58, 0
2, 184320, Note_on_c, 0, 61, 70
2, 184320, Note_on_c, 0, 65, 70
2, 184800, Note_on_c, 0, 65, 0
2, 184800, Note_on_c, 0, 61, 0
2, 184800, Note_on_c, 0, 60, 64
2, 184800, Note_on_c, 0, 63, 64
2, 185280, Note_on_c, 0, 63, 0
2, 185280, Note_on_c, 0, 60, 0
2, 185280, Note_on_c, 0, 61, 64
2, 185280, Note_on_c, 0, 73, 64
2, 185760, Note_on_c, 0, 73, 0
2, 185760, Note_on_c, 0, 61, 0
2, 185760, Note_on_c, 0, 60, 65
2, 185760, Note_on_c, 0, 72, 65
2, 186720, Note_on_c, 0, 72, 0
2, 186720, Note_on_c, 0, 60, 0
2, 186720, Note_on_c, 0, 70, 68
2, 186720, Note_on_c, 0, 58, 68
2, 187200, Note_on_c, 0, 58, 0
2, 187200, Note_on_c, 0, 70, 0
2, 187200, Note_on_c, 0, 63, 65
2, 187200, Note_on_c, 0, 75, 65
2, 187320, Note_on_c, 0, 75, 0
2, 187320, Note_on_c, 0, 63, 0
2, 188160, Note_on_c, 0, 65, 64
2, 188160, Note_on_c, 0, 73, 64
2, 188640, Note_on_c, 0, 65, 0
2, 188640, Note_on_c, 0, 68, 64
2, 189120, Note_on_c, 0, 68, 0
2, 189120, Note_on_c, 0, 73, 0
2, 189120, Note_on_c, 0, 72, 64
2, 189600, Note_on_c, 0, 72, 0
2, 189600, Note_on_c, 0, 67, 59
2, 189600, Note_on_c, 0, 70, 59
2, 190080, Note_on_c, 0, 67, 0
2, 190560, Note_on_c, 0, 70, 0
2, 190560, Note_on_c, 0, 68, 58
2, 191040, Note_on_c, 0, 68, 0
2, 191040, Note_on_c, 0, 66, 64
2, 191040, Note_on_c, 0, 78, 64
2, 191520, Note_on_c, 0, 78, 0
2, 191520, Note_on_c, 0, 66, 0
2, 191520, Note_on_c, 0, 65, 65
2, 191520, Note_on_c, 0, 77, 65
2, 192480, Note_on_c, 0, 77, 0
2, 192480, Note_on_c, 0, 65, 0
2, 192480, Note_on_c, 0, 63, 68
2, 192480, Note_on_c, 0, 75, 68
2, 192960, Note_on_c, 0, 75, 0
2, 192960, Note_on_c, 0, 63, 0
2, 192960, Note_on_c, 0, 68, 65
2, 192960, Note_on_c, 0, 80, 65
2, 193080, Note_on_c, 0, 80, 0
2, 193080, Note_on_c, 0, 68, 0
2, 193920, Note_on_c, 0, 66, 64
2, 193920, Note_on_c, 0, 78, 64
2, 194880, Note_on_c, 0, 78, 0
2, 194880, Note_on_c, 0, 66, 0
2, 194880, Note_on_c, 0, 65, 64
2, 194880, Note_on_c, 0, 77, 64
2, 195360, Note_on_c, 0, 77, 0
2, 195360, Note_on_c, 0, 65, 0
2, 195360, Note_on_c, 0, 63, 64
2, 195360, Note_on_c, 0, 75, 64
2, 195600, Note_on_c, 0, 75, 0
2, 195600, Note_on_c, 0, 63, 0
2, 195840, Note_on_c, 0, 68, 64
2, 195840, Note_on_c, 0, 80, 64
2, 195960, Note_on_c, 0, 80, 0
2, 195960, Note_on_c, 0, 68, 0
2, 196800, Note_on_c, 0, 66, 73
2, 196800, Note_on_c, 0, 78, 73
2, 197760, Note_on_c, 0, 78, 0
2, 197760, Note_on_c, 0, 66, 0
2, 197760, Note_on_c, 0, 65, 85
2, 197760, Note_on_c, 0, 77, 85
2, 198240, Note_on_c, 0, 77, 0
2, 198240, Note_on_c, 0, 65, 0
2, 198240, Note_on_c, 0, 70, 103
2, 198240, Note_on_c, 0, 82, 103
2, 199200, Note_on_c, 0, 82, 0
2, 199200, Note_on_c, 0, 70, 0
2, 199200, Note_on_c, 0, 68, 77
2, 199200, Note_on_c, 0, 80, 77
2, 199680, Note_on_c, 0, 80, 0
2, 199680, Note_on_c, 0, 68, 0
2, 200160, Note_on_c, 0, 54, 64
2, 200160, Note_on_c, 0, 60, 64
2, 201120, Note_on_c, 0, 60, 0
2, 201120, Note_on_c, 0, 63, 60
2, 201360, Note_on_c, 0, 63, 0
2, 201360, Note_on_c, 0, 61, 60
2, 201600, Note_on_c, 0, 61, 0
2, 201600, Note_on_c, 0, 54, 0
2, 201600, Note_on_c, 0, 61, 57
2, 202080, Note_on_c, 0, 61, 0
2, 202080, End_track
3, 0, Start_track
3, 0, MIDI_port, 0
3, 0, Title_t, "Piano left"
3, 0, Program_c, 0, 0
3, 0, Control_c, 0, 7, 100
3, 0, Control_c, 0, 10, 64
3, 0, Control_c, 0, 64, 0
3, 0, Control_c, 0, 64, 0
3, 959, Control_c, 0, 91, 127
3, 960, Note_on_c, 0, 65, 62
3, 1440, Note_on_c, 0, 65, 0
3, 1441, Note_on_c, 0, 63, 65
3, 2400, Note_on_c, 0, 61, 58
3, 2401, Note_on_c, 0, 63, 0
3, 2880, Note_on_c, 0, 61, 0
3, 2880, Note_on_c, 0, 60, 55
3, 3000, Note_on_c, 0, 60, 0
3, 3840, Note_on_c, 0, 49, 52
3, 3840, Note_on_c, 0, 58, 52
3, 3960, Note_on_c, 0, 58, 0
3, 3960, Note_on_c, 0, 49, 0
3, 4320, Note_on_c, 0, 63, 53
3, 4320, Note_on_c, 0, 51, 53
3, 4440, Note_on_c, 0, 51, 0
3, 4440, Note_on_c, 0, 63, 0
3, 5280, Note_on_c, 0, 51, 50
3, 5280, Note_on_c, 0, 61, 50
3, 5400, Note_on_c, 0, 61, 0
3, 5400, Note_on_c, 0, 51, 0
3, 5760, Note_on_c, 0, 56, 49
3, 5760, Note_on_c, 0, 60, 49
3, 5880, Note_on_c, 0, 60, 0
3, 5880, Note_on_c, 0, 56, 0
3, 6720, Note_on_c, 0, 70, 65
3, 7200, Note_on_c, 0, 70, 0
3, 7200, Note_on_c, 0, 68, 65
3, 8160, Note_on_c, 0, 68, 0
3, 8160, Note_on_c, 0, 66, 62
3, 8640, Note_on_c, 0, 66, 0
3, 8640, Note_on_c, 0, 65, 56
3, 8760, Note_on_c, 0, 65, 0
3, 9600, Note_on_c, 0, 54, 56
3, 9600, Note_on_c, 0, 63, 56
3, 9720, Note_on_c, 0, 63, 0
3, 9720, Note_on_c, 0, 54, 0
3, 10080, Note_on_c, 0, 56, 56
3, 10080, Note_on_c, 0, 68, 56
3, 10200, Note_on_c, 0, 68, 0
3, 10200, Note_on_c, 0, 56, 0
3, 11040, Note_on_c, 0, 56, 54
3, 11040, Note_on_c, 0, 66, 54
3, 11160, Note_on_c, 0, 66, 0
3, 11160, Note_on_c, 0, 56, 0
3, 11520, Note_on_c, 0, 61, 52
3, 11520, Note_on_c, 0, 65, 52
3, 11640, Note_on_c, 0, 65, 0
3, 11640, Note_on_c, 0, 61, 0
3, 12480, Note_on_c, 0, 53, 56
3, 12480, Note_on_c, 0, 56, 56
3, 12960, Note_on_c, 0, 56, 0
3, 12960, Note_on_c, 0, 53, 0
3, 12960, Note_on_c, 0, 51, 65
3, 12960, Note_on_c, 0, 56, 65
3, 13920, Note_on_c, 0, 56, 0
3, 13920, Note_on_c, 0, 51, 0
3, 13920, Note_on_c, 0, 55, 58
3, 13920, Note_on_c, 0, 49, 58
3, 14400, Note_on_c, 0, 49, 0
3, 14400, Note_on_c, 0, 55, 0
3, 14400, Note_on_c, 0, 48, 65
3, 14400, Note_on_c, 0, 60, 65
3, 14880, Note_on_c, 0, 60, 0
3, 14880, Note_on_c, 0, 48, 0
3, 15360, Note_on_c, 0, 49, 57
3, 15360, Note_on_c, 0, 58, 57
3, 15600, Note_on_c, 0, 58, 0
3, 15600, Note_on_c, 0, 49, 0
3, 15840, Note_on_c, 0, 51, 62
3, 15840, Note_on_c, 0, 63, 62
3, 16080, Note_on_c, 0, 63, 0
3, 16080, Note_on_c, 0, 51, 0
3, 16800, Note_on_c, 0, 51, 53
3, 16800, Note_on_c, 0, 61, 53
3, 17040, Note_on_c, 0, 61, 0
3, 17040, Note_on_c, 0, 51, 0
3, 17280, Note_on_c, 0, 56, 57
3, 17280, Note_on_c, 0, 60, 57
3, 17520, Note_on_c, 0, 60, 0
3, 17520, Note_on_c, 0, 56, 0
3, 18240, Note_on_c, 0, 58, 58
3, 18240, Note_on_c, 0, 61, 58
3, 18720, Note_on_c, 0, 61, 0
3, 18720, Note_on_c, 0, 58, 0
3, 18720, Note_on_c, 0, 56, 66
3, 18720, Note_on_c, 0, 61, 66
3, 19680, Note_on_c, 0, 61, 0
3, 19680, Note_on_c, 0, 56, 0
3, 19680, Note_on_c, 0, 54, 65
3, 19680, Note_on_c, 0, 60, 65
3, 20160, Note_on_c, 0, 60, 0
3, 20160, Note_on_c, 0, 54, 0
3, 20160, Note_on_c, 0, 53, 71
3, 20160, Note_on_c, 0, 65, 71
3, 20640, Note_on_c, 0, 65, 0
3, 20640, Note_on_c, 0, 53, 0
3, 21120, Note_on_c, 0, 54, 55
3, 21120, Note_on_c, 0, 63, 55
3, 21360, Note_on_c, 0, 63, 0
3, 21360, Note_on_c, 0, 54, 0
3, 21600, Note_on_c, 0, 56, 62
3, 21600, Note_on_c, 0, 68, 62
3, 21840, Note_on_c, 0, 68, 0
3, 21840, Note_on_c, 0, 56, 0
3, 22560, Note_on_c, 0, 56, 54
3, 22560, Note_on_c, 0, 66, 54
3, 22800, Note_on_c, 0, 66, 0
3, 22800, Note_on_c, 0, 56, 0
3, 23040, Note_on_c, 0, 61, 56
3, 23040, Note_on_c, 0, 65, 56
3, 23280, Note_on_c, 0, 65, 0
3, 23280, Note_on_c, 0, 61, 0
3, 23992, Control_c, 0, 64, 96
3, 24000, Note_on_c, 0, 61, 55
3, 24480, Note_on_c, 0, 61, 0
3, 24480, Note_on_c, 0, 58, 59
3, 25440, Note_on_c, 0, 58, 0
3, 25440, Note_on_c, 0, 56, 59
3, 25920, Note_on_c, 0, 56, 0
3, 25920, Note_on_c, 0, 55, 59
3, 25924, Control_c, 0, 64, 31
3, 26400, Note_on_c, 0, 55, 0
3, 26400, Note_on_c, 0, 56, 56
3, 26880, Note_on_c, 0, 56, 0
3, 26880, Note_on_c, 0, 56, 56
3, 26892, Control_c, 0, 64, 96
3, 27360, Note_on_c, 0, 56, 0
3, 27360, Note_on_c, 0, 56, 56
3, 28320, Note_on_c, 0, 56, 0
3, 28320, Note_on_c, 0, 54, 56
3, 28800, Note_on_c, 0, 54, 0
3, 28800, Note_on_c, 0, 53, 57
3, 28800, Control_c, 0, 64, 32
3, 29051, Control_c, 0, 64, 127
3, 29280, Note_on_c, 0, 53, 0
3, 29280, Note_on_c, 0, 54, 57
3, 29531, Control_c, 0, 64, 0
3, 29760, Note_on_c, 0, 54, 0
3, 29760, Note_on_c, 0, 54, 65
3, 29829, Control_c, 0, 64, 127
3, 30126, Control_c, 0, 64, 0
3, 30240, Note_on_c, 0, 54, 0
3, 30240, Note_on_c, 0, 51, 69
3, 30240, Note_on_c, 0, 56, 69
3, 30453, Control_c, 0, 64, 127
3, 31093, Control_c, 0, 64, 0
3, 31200, Note_on_c, 0, 56, 0
3, 31200, Note_on_c, 0, 51, 0
3, 31200, Note_on_c, 0, 49, 77
3, 31200, Note_on_c, 0, 56, 77
3, 31333, Control_c, 0, 64, 127
3, 31520, Control_c, 0, 64, 0
3, 31680, Note_on_c, 0, 56, 0
3, 31680, Note_on_c, 0, 49, 0
3, 31680, Note_on_c, 0, 48, 86
3, 31680, Note_on_c, 0, 56, 86
3, 31840, Control_c, 0, 64, 127
3, 32667, Control_c, 0, 64, 0
3, 32933, Control_c, 0, 64, 127
3, 33120, Note_on_c, 0, 56, 0
3, 33120, Note_on_c, 0, 48, 0
3, 33120, Note_on_c, 0, 49, 67
3, 33120, Note_on_c, 0, 56, 67
3, 33487, Control_c, 0, 64, 0
3, 33642, Control_c, 0, 64, 127
3, 33925, Control_c, 0, 64, 0
3, 34080, Note_on_c, 0, 56, 0
3, 34080, Note_on_c, 0, 49, 0
3, 34080, Note_on_c, 0, 54, 65
3, 34080, Note_on_c, 0, 42, 65
3, 34136, Control_c, 0, 64, 127
3, 34320, Note_on_c, 0, 54, 0
3, 34320, Note_on_c, 0, 51, 65
3, 34475, Control_c, 0, 64, 0
3, 34560, Note_on_c, 0, 51, 0
3, 34560, Note_on_c, 0, 42, 0
3, 34560, Note_on_c, 0, 42, 65
3, 34560, Note_on_c, 0, 56, 65
3, 34693, Control_c, 0, 64, 127
3, 35040, Control_c, 0, 64, 0
3, 35520, Note_on_c, 0, 56, 0
3, 35520, Note_on_c, 0, 42, 0
3, 35520, Note_on_c, 0, 53, 60
3, 35520, Note_on_c, 0, 56, 60
3, 36000, Note_on_c, 0, 56, 0
3, 36000, Note_on_c, 0, 53, 0
3, 36000, Note_on_c, 0, 51, 67
3, 36000, Note_on_c, 0, 56, 67
3, 36960, Note_on_c, 0, 56, 0
3, 36960, Note_on_c, 0, 51, 0
3, 36960, Note_on_c, 0, 49, 56
3, 36960, Note_on_c, 0, 55, 56
3, 37440, Note_on_c, 0, 55, 0
3, 37440, Note_on_c, 0, 49, 0
3, 37440, Note_on_c, 0, 48, 58
3, 37440, Note_on_c, 0, 60, 58
3, 37560, Note_on_c, 0, 60, 0
3, 37560, Note_on_c, 0, 48, 0
3, 38400, Note_on_c, 0, 49, 57
3, 38400, Note_on_c, 0, 58, 57
3, 38640, Note_on_c, 0, 58, 0
3, 38640, Note_on_c, 0, 49, 0
3, 38880, Note_on_c, 0, 51, 64
3, 38880, Note_on_c, 0, 63, 64
3, 39120, Note_on_c, 0, 63, 0
3, 39120, Note_on_c, 0, 51, 0
3, 39840, Note_on_c, 0, 51, 56
3, 39840, Note_on_c, 0, 61, 56
3, 40080, Note_on_c, 0, 61, 0
3, 40080, Note_on_c, 0, 51, 0
3, 40320, Note_on_c, 0, 56, 60
3, 40320, Note_on_c, 0, 60, 60
3, 40560, Note_on_c, 0, 60, 0
3, 40560, Note_on_c, 0, 56, 0
3, 41280, Note_on_c, 0, 58, 58
3, 41280, Note_on_c, 0, 61, 58
3, 41760, Note_on_c, 0, 61, 0
3, 41760, Note_on_c, 0, 58, 0
3, 41760, Note_on_c, 0, 56, 66
3, 41760, Note_on_c, 0, 61, 66
3, 42720, Note_on_c, 0, 61, 0
3, 42720, Note_on_c, 0, 56, 0
3, 42720, Note_on_c, 0, 54, 58
3, 42720, Note_on_c, 0, 60, 58
3, 43200, Note_on_c, 0, 60, 0
3, 43200, Note_on_c, 0, 54, 0
3, 43200, Note_on_c, 0, 53, 63
3, 43200, Note_on_c, 0, 61, 63
3, 43320, Note_on_c, 0, 61, 0
3, 43320, Note_on_c, 0, 53, 0
3, 44160, Note_on_c, 0, 58, 56
3, 44160, Note_on_c, 0, 61, 56
3, 44640, Note_on_c, 0, 61, 0
3, 44640, Note_on_c, 0, 58, 0
3, 44640, Note_on_c, 0, 56, 65
3, 44640, Note_on_c, 0, 61, 65
3, 45600, Note_on_c, 0, 61, 0
3, 45600, Note_on_c, 0, 56, 0
3, 45600, Note_on_c, 0, 54, 56
3, 45600, Note_on_c, 0, 60, 56
3, 46080, Note_on_c, 0, 60, 0
3, 46080, Note_on_c, 0, 54, 0
3, 46080, Note_on_c, 0, 53, 66
3, 46080, Note_on_c, 0, 61, 66
3, 46200, Note_on_c, 0, 61, 0
3, 46200, Note_on_c, 0, 53, 0
3, 47040, Note_on_c, 0, 58, 64
3, 47040, Note_on_c, 0, 61, 64
3, 47520, Note_on_c, 0, 61, 0
3, 47520, Note_on_c, 0, 58, 0
3, 47520, Note_on_c, 0, 56, 72
3, 47520, Note_on_c, 0, 61, 72
3, 48480, Note_on_c, 0, 61, 0
3, 48480, Note_on_c, 0, 56, 0
3, 48480, Note_on_c, 0, 55, 84
3, 48480, Note_on_c, 0, 64, 84
3, 48480, Note_on_c, 0, 61, 84
3, 48960, Note_on_c, 0, 61, 0
3, 48960, Note_on_c, 0, 64, 0
3, 48960, Note_on_c, 0, 55, 0
3, 48960, Note_on_c, 0, 56, 88
3, 48960, Note_on_c, 0, 61, 88
3, 48960, Note_on_c, 0, 65, 88
3, 49440, Note_on_c, 0, 65, 0
3, 49440, Note_on_c, 0, 61, 0
3, 49440, Note_on_c, 0, 56, 0
3, 50400, Note_on_c, 0, 32, 64
3, 50400, Note_on_c, 0, 44, 64
3, 50555, Control_c, 0, 64, 127
3, 51656, Control_c, 0, 64, 0
3, 51840, Note_on_c, 0, 44, 0
3, 51840, Note_on_c, 0, 32, 0
3, 51840, Note_on_c, 0, 37, 61
3, 51840, Note_on_c, 0, 44, 61
3, 52320, Note_on_c, 0, 44, 0
3, 52320, Note_on_c, 0, 37, 0
3, 52800, Note_on_c, 0, 61, 64
3, 52853, Control_c, 0, 64, 127
3, 53280, Note_on_c, 0, 61, 0
3, 53280, Note_on_c, 0, 58, 64
3, 54240, Note_on_c, 0, 58, 0
3, 54240, Note_on_c, 0, 56, 64
3, 54720, Note_on_c, 0, 56, 0
3, 54720, Note_on_c, 0, 55, 64
3, 54724, Control_c, 0, 64, 0
3, 55200, Note_on_c, 0, 55, 0
3, 55200, Note_on_c, 0, 56, 64
3, 55680, Note_on_c, 0, 56, 0
3, 55680, Note_on_c, 0, 56, 61
3, 55692, Control_c, 0, 64, 127
3, 56160, Note_on_c, 0, 56, 0
3, 56160, Note_on_c, 0, 56, 61
3, 57120, Note_on_c, 0, 56, 0
3, 57120, Note_on_c, 0, 54, 60
3, 57600, Note_on_c, 0, 54, 0
3, 57600, Note_on_c, 0, 53, 60
3, 57600, Control_c, 0, 64, 0
3, 57989, Control_c, 0, 64, 127
3, 58080, Note_on_c, 0, 53, 0
3, 58080, Note_on_c, 0, 54, 60
3, 58446, Control_c, 0, 64, 0
3, 58560, Note_on_c, 0, 54, 0
3, 58560, Note_on_c, 0, 54, 64
3, 58674, Control_c, 0, 64, 127
3, 58926, Control_c, 0, 64, 0
3, 59040, Note_on_c, 0, 54, 0
3, 59040, Note_on_c, 0, 51, 69
3, 59040, Note_on_c, 0, 56, 69
3, 59253, Control_c, 0, 64, 127
3, 59813, Control_c, 0, 64, 0
3, 60000, Note_on_c, 0, 56, 0
3, 60000, Note_on_c, 0, 51, 0
3, 60000, Note_on_c, 0, 49, 76
3, 60000, Note_on_c, 0, 56, 76
3, 60160, Control_c, 0, 64, 127
3, 60347, Control_c, 0, 64, 0
3, 60480, Note_on_c, 0, 56, 0
3, 60480, Note_on_c, 0, 49, 0
3, 60480, Note_on_c, 0, 48, 85
3, 60480, Note_on_c, 0, 56, 85
3, 60693, Control_c, 0, 64, 127
3, 61227, Control_c, 0, 64, 0
3, 61653, Control_c, 0, 64, 127
3, 61920, Note_on_c, 0, 56, 0
3, 61920, Note_on_c, 0, 48, 0
3, 61920, Note_on_c, 0, 49, 66
3, 61920, Note_on_c, 0, 56, 66
3, 62358, Control_c, 0, 64, 0
3, 62584, Control_c, 0, 64, 127
3, 62838, Control_c, 0, 64, 0
3, 62880, Note_on_c, 0, 56, 0
3, 62880, Note_on_c, 0, 49, 0
3, 62880, Note_on_c, 0, 54, 64
3, 62880, Note_on_c, 0, 42, 64
3, 63035, Control_c, 0, 64, 127
3, 63120, Note_on_c, 0, 54, 0
3, 63120, Note_on_c, 0, 51, 64
3, 63261, Control_c, 0, 64, 0
3, 63360, Note_on_c, 0, 51, 0
3, 63360, Note_on_c, 0, 42, 0
3, 63360, Note_on_c, 0, 42, 64
3, 63360, Note_on_c, 0, 56, 64
3, 63600, Control_c, 0, 64, 127
3, 63893, Control_c, 0, 64, 0
3, 64320, Note_on_c, 0, 56, 0
3, 64320, Note_on_c, 0, 42, 0
3, 64320, Note_on_c, 0, 53, 59
3, 64320, Note_on_c, 0, 56, 59
3, 64800, Note_on_c, 0, 56, 0
3, 64800, Note_on_c, 0, 53, 0
3, 64800, Note_on_c, 0, 51, 66
3, 64800, Note_on_c, 0, 56, 66
3, 65760, Note_on_c, 0, 56, 0
3, 65760, Note_on_c, 0, 51, 0
3, 65760, Note_on_c, 0, 49, 57
3, 65760, Note_on_c, 0, 55, 57
3, 66240, Note_on_c, 0, 55, 0
3, 66240, Note_on_c, 0, 49, 0
3, 66240, Note_on_c, 0, 48, 59
3, 66240, Note_on_c, 0, 60, 59
3, 66360, Note_on_c, 0, 60, 0
3, 66360, Note_on_c, 0, 48, 0
3, 67200, Note_on_c, 0, 49, 55
3, 67200, Note_on_c, 0, 58, 55
3, 67440, Note_on_c, 0, 58, 0
3, 67440, Note_on_c, 0, 49, 0
3, 67680, Note_on_c, 0, 51, 61
3, 67680, Note_on_c, 0, 63, 61
3, 67920, Note_on_c, 0, 63, 0
3, 67920, Note_on_c, 0, 51, 0
3, 68640, Note_on_c, 0, 51, 56
3, 68640, Note_on_c, 0, 61, 56
3, 68880, Note_on_c, 0, 61, 0
3, 68880, Note_on_c, 0, 51, 0
3, 69120, Note_on_c, 0, 56, 61
3, 69120, Note_on_c, 0, 60, 61
3, 69360, Note_on_c, 0, 60, 0
3, 69360, Note_on_c, 0, 56, 0
3, 70080, Note_on_c, 0, 58, 64
3, 70080, Note_on_c, 0, 61, 64
3, 70560, Note_on_c, 0, 61, 0
3, 70560, Note_on_c, 0, 58, 0
3, 70560, Note_on_c, 0, 56, 66
3, 70560, Note_on_c, 0, 61, 66
3, 71520, Note_on_c, 0, 61, 0
3, 71520, Note_on_c, 0, 56, 0
3, 71520, Note_on_c, 0, 54, 56
3, 71520, Note_on_c, 0, 60, 56
3, 72000, Note_on_c, 0, 60, 0
3, 72000, Note_on_c, 0, 54, 0
3, 72000, Note_on_c, 0, 53, 58
3, 72000, Note_on_c, 0, 61, 58
3, 72120, Note_on_c, 0, 61, 0
3, 72120, Note_on_c, 0, 53, 0
3, 72960, Note_on_c, 0, 58, 58
3, 72960, Note_on_c, 0, 61, 58
3, 73440, Note_on_c, 0, 61, 0
3, 73440, Note_on_c, 0, 58, 0
3, 73440, Note_on_c, 0, 56, 65
3, 73440, Note_on_c, 0, 61, 65
3, 74400, Note_on_c, 0, 61, 0
3, 74400, Note_on_c, 0, 56, 0
3, 74400, Note_on_c, 0, 54, 64
3, 74400, Note_on_c, 0, 60, 64
3, 74880, Note_on_c, 0, 60, 0
3, 74880, Note_on_c, 0, 54, 0
3, 74880, Note_on_c, 0, 53, 69
3, 74880, Note_on_c, 0, 61, 69
3, 75000, Note_on_c, 0, 61, 0
3, 75000, Note_on_c, 0, 53, 0
3, 75840, Note_on_c, 0, 58, 64
3, 75840, Note_on_c, 0, 61, 64
3, 76320, Note_on_c, 0, 61, 0
3, 76320, Note_on_c, 0, 58, 0
3, 76320, Note_on_c, 0, 56, 72
3, 76320, Note_on_c, 0, 61, 72
3, 77280, Note_on_c, 0, 61, 0
3, 77280, Note_on_c, 0, 56, 0
3, 77280, Note_on_c, 0, 55, 79
3, 77280, Note_on_c, 0, 64, 79
3, 77280, Note_on_c, 0, 61, 79
3, 77760, Note_on_c, 0, 61, 0
3, 77760, Note_on_c, 0, 64, 0
3, 77760, Note_on_c, 0, 55, 0
3, 77760, Note_on_c, 0, 56, 88
3, 77760, Note_on_c, 0, 61, 88
3, 77760, Note_on_c, 0, 65, 88
3, 78240, Note_on_c, 0, 65, 0
3, 78240, Note_on_c, 0, 61, 0
3, 78240, Note_on_c, 0, 56, 0
3, 79200, Note_on_c, 0, 32, 64
3, 79200, Note_on_c, 0, 44, 64
3, 79327, Control_c, 0, 64, 127
3, 80456, Control_c, 0, 64, 0
3, 80640, Note_on_c, 0, 44, 0
3, 80640, Note_on_c, 0, 32, 0
3, 80640, Note_on_c, 0, 37, 61
3, 80640, Note_on_c, 0, 44, 61
3, 81120, Note_on_c, 0, 44, 0
3, 81120, Note_on_c, 0, 37, 0
3, 81600, Control_c, 0, 64, 127
3, 82080, Note_on_c, 0, 37, 91
3, 82080, Note_on_c, 0, 44, 91
3, 82740, Control_c, 0, 64, 0
3, 83220, Control_c, 0, 64, 127
3, 83520, Note_on_c, 0, 37, 0
3, 83520, Note_on_c, 0, 39, 86
3, 84360, Control_c, 0, 64, 0
3, 84720, Control_c, 0, 64, 127
3, 84960, Note_on_c, 0, 39, 0
3, 84960, Note_on_c, 0, 42, 87
3, 85980, Control_c, 0, 64, 0
3, 86400, Note_on_c, 0, 42, 0
3, 86400, Note_on_c, 0, 41, 87
3, 86640, Control_c, 0, 64, 127
3, 87120, Control_c, 0, 64, 0
3, 87600, Control_c, 0, 64, 127
3, 87840, Note_on_c, 0, 41, 0
3, 87840, Note_on_c, 0, 44, 0
3, 87840, Note_on_c, 0, 37, 94
3, 87840, Note_on_c, 0, 44, 94
3, 88680, Control_c, 0, 64, 0
3, 89040, Control_c, 0, 64, 127
3, 89280, Note_on_c, 0, 37, 0
3, 89280, Note_on_c, 0, 39, 88
3, 90000, Control_c, 0, 64, 0
3, 90480, Control_c, 0, 64, 127
3, 90720, Note_on_c, 0, 39, 0
3, 90720, Note_on_c, 0, 32, 86
3, 91620, Control_c, 0, 64, 0
3, 91680, Note_on_c, 0, 44, 0
3, 91680, Note_on_c, 0, 44, 85
3, 92160, Note_on_c, 0, 32, 0
3, 92160, Control_c, 0, 64, 127
3, 92160, Note_on_c, 0, 37, 86
3, 92640, Control_c, 0, 64, 0
3, 93120, Note_on_c, 0, 37, 0
3, 93120, Note_on_c, 0, 44, 0
3, 93180, Control_c, 0, 64, 127
3, 93600, Note_on_c, 0, 37, 93
3, 93600, Note_on_c, 0, 44, 93
3, 94380, Control_c, 0, 64, 0
3, 94800, Control_c, 0, 64, 127
3, 95040, Note_on_c, 0, 37, 0
3, 95040, Note_on_c, 0, 39, 86
3, 95880, Control_c, 0, 64, 0
3, 96300, Control_c, 0, 64, 127
3, 96480, Note_on_c, 0, 39, 0
3, 96480, Note_on_c, 0, 42, 87
3, 97440, Control_c, 0, 64, 0
3, 97920, Note_on_c, 0, 42, 0
3, 97920, Control_c, 0, 64, 127
3, 97920, Note_on_c, 0, 41, 87
3, 98640, Control_c, 0, 64, 0
3, 98940, Control_c, 0, 64, 127
3, 99360, Note_on_c, 0, 41, 0
3, 99360, Note_on_c, 0, 44, 0
3, 99360, Note_on_c, 0, 37, 94
3, 99360, Note_on_c, 0, 44, 94
3, 100080, Control_c, 0, 64, 0
3, 100440, Control_c, 0, 64, 127
3, 100800, Note_on_c, 0, 37, 0
3, 100800, Note_on_c, 0, 39, 88
3, 101520, Control_c, 0, 64, 0
3, 102240, Note_on_c, 0, 39, 0
3, 102240, Control_c, 0, 64, 127
3, 102240, Note_on_c, 0, 32, 86
3, 103200, Note_on_c, 0, 44, 0
3, 103200, Control_c, 0, 64, 0
3, 103200, Note_on_c, 0, 44, 85
3, 103680, Note_on_c, 0, 32, 0
3, 103680, Note_on_c, 0, 37, 78
3, 103800, Control_c, 0, 64, 127
3, 104400, Control_c, 0, 64, 0
3, 104640, Note_on_c, 0, 37, 0
3, 104640, Note_on_c, 0, 44, 0
3, 105120, Note_on_c, 0, 50, 50
3, 105120, Note_on_c, 0, 56, 50
3, 106560, Note_on_c, 0, 56, 0
3, 106560, Note_on_c, 0, 50, 0
3, 106560, Note_on_c, 0, 49, 47
3, 106560, Note_on_c, 0, 55, 47
3, 108000, Note_on_c, 0, 55, 0
3, 108000, Note_on_c, 0, 49, 0
3, 108000, Note_on_c, 0, 48, 43
3, 108000, Note_on_c, 0, 54, 43
3, 109440, Note_on_c, 0, 54, 0
3, 109440, Note_on_c, 0, 48, 0
3, 109440, Note_on_c, 0, 47, 42
3, 109440, Note_on_c, 0, 53, 42
3, 110880, Note_on_c, 0, 53, 0
3, 110880, Note_on_c, 0, 47, 0
3, 110880, Note_on_c, 0, 46, 59
3, 110880, Note_on_c, 0, 49, 59
3, 112320, Note_on_c, 0, 46, 0
3, 112320, Note_on_c, 0, 44, 44
3, 113493, Control_c, 0, 64, 127
3, 113760, Note_on_c, 0, 44, 0
3, 113760, Note_on_c, 0, 37, 43
3, 114240, Note_on_c, 0, 37, 0
3, 114240, Note_on_c, 0, 41, 43
3, 114720, Note_on_c, 0, 41, 0
3, 114720, Note_on_c, 0, 44, 49
3, 114994, Control_c, 0, 64, 0
3, 115200, Note_on_c, 0, 44, 0
3, 115200, Note_on_c, 0, 42, 43
3, 116297, Control_c, 0, 64, 127
3, 116640, Note_on_c, 0, 42, 0
3, 116640, Note_on_c, 0, 49, 0
3, 116640, Note_on_c, 0, 46, 58
3, 116640, Note_on_c, 0, 49, 58
3, 117573, Control_c, 0, 64, 0
3, 117867, Control_c, 0, 64, 127
3, 118080, Note_on_c, 0, 46, 0
3, 118080, Note_on_c, 0, 44, 44
3, 119013, Control_c, 0, 64, 0
3, 119333, Control_c, 0, 64, 127
3, 119520, Note_on_c, 0, 44, 0
3, 119520, Note_on_c, 0, 43, 44
3, 120343, Control_c, 0, 64, 0
3, 120663, Control_c, 0, 64, 127
3, 120960, Note_on_c, 0, 43, 0
3, 120960, Note_on_c, 0, 44, 44
3, 121737, Control_c, 0, 64, 0
3, 122194, Control_c, 0, 64, 127
3, 122400, Note_on_c, 0, 44, 0
3, 122400, Note_on_c, 0, 49, 0
3, 122400, Note_on_c, 0, 46, 53
3, 122400, Note_on_c, 0, 49, 53
3, 123387, Control_c, 0, 64, 0
3, 123707, Control_c, 0, 64, 127
3, 123840, Note_on_c, 0, 46, 0
3, 123840, Note_on_c, 0, 44, 64
3, 124720, Control_c, 0, 64, 0
3, 125093, Control_c, 0, 64, 127
3, 125280, Note_on_c, 0, 49, 0
3, 125280, Note_on_c, 0, 32, 64
3, 126205, Control_c, 0, 64, 0
3, 126240, Note_on_c, 0, 32, 0
3, 126240, Note_on_c, 0, 44, 0
3, 126240, Note_on_c, 0, 44, 57
3, 126360, Note_on_c, 0, 44, 0
3, 126720, Note_on_c, 0, 37, 57
3, 126840, Note_on_c, 0, 37, 0
3, 128160, Note_on_c, 0, 50, 47
3, 128160, Note_on_c, 0, 56, 47
3, 129600, Note_on_c, 0, 56, 0
3, 129600, Note_on_c, 0, 50, 0
3, 129600, Note_on_c, 0, 49, 42
3, 129600, Note_on_c, 0, 55, 42
3, 131040, Note_on_c, 0, 55, 0
3, 131040, Note_on_c, 0, 49, 0
3, 131040, Note_on_c, 0, 48, 44
3, 131040, Note_on_c, 0, 54, 44
3, 132480, Note_on_c, 0, 54, 0
3, 132480, Note_on_c, 0, 48, 0
3, 132480, Note_on_c, 0, 47, 41
3, 132480, Note_on_c, 0, 53, 41
3, 133920, Note_on_c, 0, 53, 0
3, 133920, Note_on_c, 0, 47, 0
3, 133920, Note_on_c, 0, 46, 59
3, 133920, Note_on_c, 0, 49, 59
3, 135360, Note_on_c, 0, 46, 0
3, 135360, Note_on_c, 0, 44, 43
3, 136480, Control_c, 0, 64, 127
3, 136800, Note_on_c, 0, 44, 0
3, 136800, Note_on_c, 0, 37, 42
3, 137280, Note_on_c, 0, 37, 0
3, 137280, Note_on_c, 0, 41, 42
3, 137760, Note_on_c, 0, 41, 0
3, 137760, Note_on_c, 0, 44, 46
3, 138034, Control_c, 0, 64, 0
3, 138240, Note_on_c, 0, 44, 0
3, 138240, Note_on_c, 0, 42, 49
3, 139291, Control_c, 0, 64, 127
3, 139680, Note_on_c, 0, 42, 0
3, 139680, Note_on_c, 0, 49, 0
3, 139680, Note_on_c, 0, 46, 56
3, 139680, Note_on_c, 0, 49, 56
3, 140320, Control_c, 0, 64, 0
3, 140800, Control_c, 0, 64, 127
3, 141120, Note_on_c, 0, 46, 0
3, 141120, Note_on_c, 0, 44, 46
3, 141973, Control_c, 0, 64, 0
3, 142320, Control_c, 0, 64, 127
3, 142560, Note_on_c, 0, 44, 0
3, 142560, Note_on_c, 0, 43, 46
3, 143451, Control_c, 0, 64, 0
3, 143749, Control_c, 0, 64, 127
3, 144000, Note_on_c, 0, 43, 0
3, 144000, Note_on_c, 0, 44, 46
3, 144777, Control_c, 0, 64, 0
3, 145166, Control_c, 0, 64, 127
3, 145440, Note_on_c, 0, 44, 0
3, 145440, Note_on_c, 0, 49, 0
3, 145440, Note_on_c, 0, 46, 53
3, 145440, Note_on_c, 0, 49, 53
3, 146133, Control_c, 0, 64, 0
3, 146880, Note_on_c, 0, 46, 0
3, 146880, Note_on_c, 0, 44, 64
3, 146907, Control_c, 0, 64, 127
3, 147600, Control_c, 0, 64, 0
3, 148053, Control_c, 0, 64, 127
3, 148320, Note_on_c, 0, 49, 0
3, 148320, Note_on_c, 0, 32, 64
3, 149209, Control_c, 0, 64, 0
3, 149280, Note_on_c, 0, 32, 0
3, 149280, Note_on_c, 0, 44, 0
3, 149280, Note_on_c, 0, 44, 62
3, 149400, Note_on_c, 0, 44, 0
3, 149760, Note_on_c, 0, 37, 62
3, 149880, Note_on_c, 0, 37, 0
3, 150720, Note_on_c, 0, 65, 64
3, 151200, Note_on_c, 0, 65, 0
3, 151201, Note_on_c, 0, 63, 64
3, 152160, Note_on_c, 0, 61, 59
3, 152161, Note_on_c, 0, 63, 0
3, 152640, Note_on_c, 0, 61, 0
3, 152640, Note_on_c, 0, 60, 55
3, 152760, Note_on_c, 0, 60, 0
3, 153600, Note_on_c, 0, 49, 53
3, 153600, Note_on_c, 0, 58, 53
3, 153720, Note_on_c, 0, 58, 0
3, 153720, Note_on_c, 0, 49, 0
3, 154080, Note_on_c, 0, 63, 56
3, 154080, Note_on_c, 0, 51, 56
3, 154200, Note_on_c, 0, 51, 0
3, 154200, Note_on_c, 0, 63, 0
3, 155040, Note_on_c, 0, 51, 48
3, 155040, Note_on_c, 0, 61, 48
3, 155160, Note_on_c, 0, 61, 0
3, 155160, Note_on_c, 0, 51, 0
3, 155520, Note_on_c, 0, 56, 50
3, 155520, Note_on_c, 0, 60, 50
3, 155640, Note_on_c, 0, 60, 0
3, 155640, Note_on_c, 0, 56, 0
3, 156480, Note_on_c, 0, 70, 58
3, 156960, Note_on_c, 0, 70, 0
3, 156960, Note_on_c, 0, 68, 64
3, 157920, Note_on_c, 0, 68, 0
3, 157920, Note_on_c, 0, 66, 55
3, 158400, Note_on_c, 0, 66, 0
3, 158400, Note_on_c, 0, 65, 57
3, 158520, Note_on_c, 0, 65, 0
3, 159360, Note_on_c, 0, 54, 53
3, 159360, Note_on_c, 0, 63, 53
3, 159480, Note_on_c, 0, 63, 0
3, 159480, Note_on_c, 0, 54, 0
3, 159840, Note_on_c, 0, 56, 56
3, 159840, Note_on_c, 0, 68, 56
3, 159960, Note_on_c, 0, 68, 0
3, 159960, Note_on_c, 0, 56, 0
3, 160800, Note_on_c, 0, 56, 48
3, 160800, Note_on_c, 0, 66, 48
3, 160920, Note_on_c, 0, 66, 0
3, 160920, Note_on_c, 0, 56, 0
3, 161280, Note_on_c, 0, 61, 50
3, 161280, Note_on_c, 0, 65, 50
3, 161400, Note_on_c, 0, 65, 0
3, 161400, Note_on_c, 0, 61, 0
3, 162240, Note_on_c, 0, 53, 58
3, 162240, Note_on_c, 0, 56, 58
3, 162720, Note_on_c, 0, 56, 0
3, 162720, Note_on_c, 0, 53, 0
3, 162720, Note_on_c, 0, 51, 64
3, 162720, Note_on_c, 0, 56, 64
3, 163680, Note_on_c, 0, 56, 0
3, 163680, Note_on_c, 0, 51, 0
3, 163680, Note_on_c, 0, 55, 58
3, 163680, Note_on_c, 0, 49, 58
3, 164160, Note_on_c, 0, 49, 0
3, 164160, Note_on_c, 0, 55, 0
3, 164160, Note_on_c, 0, 48, 64
3, 164160, Note_on_c, 0, 60, 64
3, 164640, Note_on_c, 0, 60, 0
3, 164640, Note_on_c, 0, 48, 0
3, 165120, Note_on_c, 0, 49, 55
3, 165120, Note_on_c, 0, 58, 55
3, 165360, Note_on_c, 0, 58, 0
3, 165360, Note_on_c, 0, 49, 0
3, 165600, Note_on_c, 0, 51, 58
3, 165600, Note_on_c, 0, 63, 58
3, 165840, Note_on_c, 0, 63, 0
3, 165840, Note_on_c, 0, 51, 0
3, 166560, Note_on_c, 0, 51, 53
3, 166560, Note_on_c, 0, 61, 53
3, 166800, Note_on_c, 0, 61, 0
3, 166800, Note_on_c, 0, 51, 0
3, 167040, Note_on_c, 0, 56, 55
3, 167040, Note_on_c, 0, 60, 55
3, 167280, Note_on_c, 0, 60, 0
3, 167280, Note_on_c, 0, 56, 0
3, 168000, Note_on_c, 0, 58, 58
3, 168000, Note_on_c, 0, 61, 58
3, 168480, Note_on_c, 0, 61, 0
3, 168480, Note_on_c, 0, 58, 0
3, 168480, Note_on_c, 0, 56, 64
3, 168480, Note_on_c, 0, 61, 64
3, 169440, Note_on_c, 0, 61, 0
3, 169440, Note_on_c, 0, 56, 0
3, 169440, Note_on_c, 0, 54, 64
3, 169440, Note_on_c, 0, 60, 64
3, 169920, Note_on_c, 0, 60, 0
3, 169920, Note_on_c, 0, 54, 0
3, 169920, Note_on_c, 0, 53, 68
3, 169920, Note_on_c, 0, 65, 68
3, 170400, Note_on_c, 0, 65, 0
3, 170400, Note_on_c, 0, 53, 0
3, 170880, Note_on_c, 0, 54, 59
3, 170880, Note_on_c, 0, 63, 59
3, 171120, Note_on_c, 0, 63, 0
3, 171120, Note_on_c, 0, 54, 0
3, 171360, Note_on_c, 0, 56, 64
3, 171360, Note_on_c, 0, 68, 64
3, 171600, Note_on_c, 0, 68, 0
3, 171600, Note_on_c, 0, 56, 0
3, 172320, Note_on_c, 0, 56, 53
3, 172320, Note_on_c, 0, 66, 53
3, 172560, Note_on_c, 0, 66, 0
3, 172560, Note_on_c, 0, 56, 0
3, 172800, Note_on_c, 0, 61, 57
3, 172800, Note_on_c, 0, 65, 57
3, 173040, Note_on_c, 0, 65, 0
3, 173040, Note_on_c, 0, 61, 0
3, 173752, Control_c, 0, 64, 127
3, 173760, Note_on_c, 0, 61, 64
3, 174240, Note_on_c, 0, 61, 0
3, 174240, Note_on_c, 0, 58, 64
3, 175200, Note_on_c, 0, 58, 0
3, 175200, Note_on_c, 0, 56, 64
3, 175493, Control_c, 0, 64, 0
3, 175680, Note_on_c, 0, 56, 0
3, 175680, Note_on_c, 0, 55, 64
3, 175886, Control_c, 0, 64, 127
3, 176160, Note_on_c, 0, 55, 0
3, 176160, Note_on_c, 0, 56, 64
3, 176549, Control_c, 0, 64, 0
3, 176640, Note_on_c, 0, 56, 0
3, 176640, Note_on_c, 0, 56, 59
3, 176846, Control_c, 0, 64, 127
3, 177120, Note_on_c, 0, 56, 0
3, 177120, Note_on_c, 0, 56, 59
3, 178080, Note_on_c, 0, 56, 0
3, 178080, Note_on_c, 0, 54, 57
3, 178560, Note_on_c, 0, 54, 0
3, 178560, Note_on_c, 0, 53, 57
3, 178560, Control_c, 0, 64, 0
3, 178789, Control_c, 0, 64, 127
3, 179040, Note_on_c, 0, 53, 0
3, 179040, Note_on_c, 0, 54, 57
3, 179406, Control_c, 0, 64, 0
3, 179520, Note_on_c, 0, 54, 0
3, 179520, Note_on_c, 0, 54, 64
3, 179657, Control_c, 0, 64, 127
3, 179886, Control_c, 0, 64, 0
3, 180000, Note_on_c, 0, 54, 0
3, 180000, Note_on_c, 0, 51, 64
3, 180000, Note_on_c, 0, 56, 64
3, 180160, Control_c, 0, 64, 127
3, 180773, Control_c, 0, 64, 0
3, 180960, Note_on_c, 0, 56, 0
3, 180960, Note_on_c, 0, 51, 0
3, 180960, Note_on_c, 0, 49, 64
3, 180960, Note_on_c, 0, 56, 64
3, 181013, Control_c, 0, 64, 127
3, 181280, Control_c, 0, 64, 0
3, 181440, Note_on_c, 0, 56, 0
3, 181440, Note_on_c, 0, 49, 0
3, 181440, Note_on_c, 0, 48, 64
3, 181440, Note_on_c, 0, 56, 64
3, 181600, Control_c, 0, 64, 127
3, 182293, Control_c, 0, 64, 0
3, 182587, Control_c, 0, 64, 127
3, 182880, Note_on_c, 0, 56, 0
3, 182880, Note_on_c, 0, 48, 0
3, 182880, Note_on_c, 0, 49, 64
3, 182880, Note_on_c, 0, 56, 64
3, 183247, Control_c, 0, 64, 0
3, 183416, Control_c, 0, 64, 127
3, 183713, Control_c, 0, 64, 0
3, 183840, Note_on_c, 0, 56, 0
3, 183840, Note_on_c, 0, 49, 0
3, 183840, Note_on_c, 0, 54, 64
3, 183840, Note_on_c, 0, 42, 64
3, 183925, Control_c, 0, 64, 127
3, 184080, Note_on_c, 0, 54, 0
3, 184080, Note_on_c, 0, 51, 64
3, 184221, Control_c, 0, 64, 0
3, 184320, Note_on_c, 0, 51, 0
3, 184320, Note_on_c, 0, 42, 0
3, 184320, Note_on_c, 0, 42, 64
3, 184320, Note_on_c, 0, 56, 64
3, 184480, Control_c, 0, 64, 127
3, 184907, Control_c, 0, 64, 0
3, 185280, Note_on_c, 0, 56, 0
3, 185280, Note_on_c, 0, 42, 0
3, 185280, Note_on_c, 0, 53, 58
3, 185280, Note_on_c, 0, 56, 58
3, 185760, Note_on_c, 0, 56, 0
3, 185760, Note_on_c, 0, 53, 0
3, 185760, Note_on_c, 0, 51, 64
3, 185760, Note_on_c, 0, 56, 64
3, 186720, Note_on_c, 0, 56, 0
3, 186720, Note_on_c, 0, 51, 0
3, 186720, Note_on_c, 0, 49, 56
3, 186720, Note_on_c, 0, 55, 56
3, 187200, Note_on_c, 0, 55, 0
3, 187200, Note_on_c, 0, 49, 0
3, 187200, Note_on_c, 0, 48, 64
3, 187200, Note_on_c, 0, 60, 64
3, 187320, Note_on_c, 0, 60, 0
3, 187320, Note_on_c, 0, 48, 0
3, 188160, Note_on_c, 0, 49, 58
3, 188160, Note_on_c, 0, 58, 58
3, 188400, Note_on_c, 0, 58, 0
3, 188400, Note_on_c, 0, 49, 0
3, 188640, Note_on_c, 0, 51, 64
3, 188640, Note_on_c, 0, 63, 64
3, 188880, Note_on_c, 0, 63, 0
3, 188880, Note_on_c, 0, 51, 0
3, 189600, Note_on_c, 0, 51, 54
3, 189600, Note_on_c, 0, 61, 54
3, 189840, Note_on_c, 0, 61, 0
3, 189840, Note_on_c, 0, 51, 0
3, 190080, Note_on_c, 0, 56, 60
3, 190080, Note_on_c, 0, 60, 60
3, 190320, Note_on_c, 0, 60, 0
3, 190320, Note_on_c, 0, 56, 0
3, 191040, Note_on_c, 0, 58, 58
3, 191040, Note_on_c, 0, 61, 58
3, 191520, Note_on_c, 0, 61, 0
3, 191520, Note_on_c, 0, 58, 0
3, 191520, Note_on_c, 0, 56, 64
3, 191520, Note_on_c, 0, 61, 64
3, 192480, Note_on_c, 0, 61, 0
3, 192480, Note_on_c, 0, 56, 0
3, 192480, Note_on_c, 0, 54, 58
3, 192480, Note_on_c, 0, 60, 58
3, 192960, Note_on_c, 0, 60, 0
3, 192960, Note_on_c, 0, 54, 0
3, 192960, Note_on_c, 0, 53, 65
3, 192960, Note_on_c, 0, 61, 65
3, 193080, Note_on_c, 0, 61, 0
3, 193080, Note_on_c, 0, 53, 0
3, 193920, Note_on_c, 0, 58, 57
3, 193920, Note_on_c, 0, 61, 57
3, 194400, Note_on_c, 0, 61, 0
3, 194400, Note_on_c, 0, 58, 0
3, 194400, Note_on_c, 0, 56, 64
3, 194400, Note_on_c, 0, 61, 64
3, 195360, Note_on_c, 0, 61, 0
3, 195360, Note_on_c, 0, 56, 0
3, 195360, Note_on_c, 0, 54, 57
3, 195360, Note_on_c, 0, 60, 57
3, 195840, Note_on_c, 0, 60, 0
3, 195840, Note_on_c, 0, 54, 0
3, 195840, Note_on_c, 0, 53, 64
3, 195840, Note_on_c, 0, 61, 64
3, 195960, Note_on_c, 0, 61, 0
3, 195960, Note_on_c, 0, 53, 0
3, 196800, Note_on_c, 0, 58, 58
3, 196800, Note_on_c, 0, 61, 58
3, 197280, Note_on_c, 0, 61, 0
3, 197280, Note_on_c, 0, 58, 0
3, 197280, Note_on_c, 0, 56, 64
3, 197280, Note_on_c, 0, 61, 64
3, 198240, Note_on_c, 0, 61, 0
3, 198240, Note_on_c, 0, 56, 0
3, 198240, Note_on_c, 0, 55, 74
3, 198240, Note_on_c, 0, 64, 74
3, 198240, Note_on_c, 0, 61, 74
3, 198720, Note_on_c, 0, 61, 0
3, 198720, Note_on_c, 0, 64, 0
3, 198720, Note_on_c, 0, 55, 0
3, 198720, Note_on_c, 0, 56, 77
3, 198720, Note_on_c, 0, 61, 77
3, 198720, Note_on_c, 0, 65, 77
3, 199200, Note_on_c, 0, 65, 0
3, 199200, Note_on_c, 0, 61, 0
3, 199200, Note_on_c, 0, 56, 0
3, 200160, Note_on_c, 0, 32, 64
3, 200160, Note_on_c, 0, 44, 64
3, 200245, Control_c, 0, 64, 127
3, 201431, Control_c, 0, 64, 0
3, 201600, Note_on_c, 0, 44, 0
3, 201600, Note_on_c, 0, 32, 0
3, 201600, Note_on_c, 0, 37, 64
3, 201600, Note_on_c, 0, 44, 64
3, 202080, Note_on_c, 0, 44, 0
3, 202080, Note_on_c, 0, 37, 0
3, 202080, End_track
4, 0, Start_track
4, 0, MIDI_port, 0
4, 0, Title_t, "Beethoven: Sonate Nr. 14 cis-moll, Op. 27/2"
4, 0, End_track
5, 0, Start_track
5, 0, MIDI_port, 0
5, 0, Title_t, "Copyright \251 1998 by Bernd Krueger"
5, 0, End_track
6, 0, Start_track
6, 0, MIDI_port, 0
6, 0, Title_t, "email: bernd.krueger@piano-midi.de"
6, 0, End_track
7, 0, Start_track
7, 0, MIDI_port, 0
7, 0, Title_t, "http://www.piano-midi.de"
7, 0, End_track
8, 0, Start_track
8, 0, MIDI_port, 0
8, 0, Title_t, "Edition: 8.1.00"
8, 0, End_track
0, 0, End_of_file