0, 0, Header, 1, 19, 480
1, 0, Start_track
1, 0, Tempo, 300000
1, 0, Time_signature, 4, 2, 24, 8
1, 0, Key_signature, 3, "major"
1, 5760, Tempo, 402685
1, 5760, Time_signature, 5, 3, 12, 8
1, 10560, Tempo, 384615
1, 10560, Time_signature, 2, 2, 24, 8
1, 17280, Tempo, 394737
1, 18240, Tempo, 384615
1, 24960, Tempo, 394737
1, 25920, Tempo, 384615
1, 32640, Tempo, 394737
1, 33600, Tempo, 384615
1, 40320, Tempo, 370370
1, 40320, Time_signature, 9, 4, 18, 8
1, 44640, Tempo, 416667
1, 44640, Time_signature, 2, 2, 24, 8
1, 48480, Tempo, 370370
1, 48480, Time_signature, 9, 4, 18, 8
1, 52800, Tempo, 384615
1, 52800, Time_signature, 2, 2, 24, 8
1, 56640, Tempo, 400000
1, 57600, Tempo, 384615
1, 60480, Tempo, 400000
1, 61440, Tempo, 384615
1, 71040, Tempo, 394737
1, 72000, Tempo, 384615
1, 96960, Tempo, 428571
1, 97920, Tempo, 384615
1, 106560, Tempo, 428571
1, 107520, Tempo, 384615
1, 139200, Time_signature, 5, 3, 12, 8
1, 144000, Time_signature, 2, 2, 24, 8
1, 150720, Tempo, 394737
1, 151680, Tempo, 384615
1, 158400, Tempo, 394737
1, 159360, Tempo, 384615
1, 166080, Tempo, 394737
1, 167040, Tempo, 384615
1, 173760, Tempo, 370370
1, 173760, Time_signature, 9, 4, 18, 8
1, 178080, Tempo, 416667
1, 178080, Time_signature, 2, 2, 24, 8
1, 181920, Tempo, 370370
1, 181920, Time_signature, 9, 4, 18, 8
1, 186240, Tempo, 384615
1, 186240, Time_signature, 2, 2, 24, 8
1, 190080, Tempo, 400000
1, 191040, Tempo, 384615
1, 193920, Tempo, 400000
1, 194880, Tempo, 384615
1, 204480, Tempo, 394737
1, 205440, Tempo, 384615
1, 230400, Tempo, 428571
1, 231360, Tempo, 384615
1, 240000, Tempo, 428571
1, 240960, Tempo, 384615
1, 272640, Time_signature, 5, 3, 12, 8
1, 277440, Tempo, 405405
1, 277440, Time_signature, 2, 2, 24, 8
1, 281280, Tempo, 428571
1, 282240, Tempo, 405405
1, 283200, Tempo, 428571
1, 284160, Tempo, 405405
1, 288000, Tempo, 428571
1, 288960, Tempo, 405405
1, 289920, Tempo, 428571
1, 290880, Tempo, 405405
1, 291840, Tempo, 428571
1, 292800, Tempo, 405405
1, 293760, Tempo, 428571
1, 294720, Tempo, 405405
1, 296640, Tempo, 400000
1, 297600, Tempo, 392157
1, 298560, Tempo, 384615
1, 305280, Tempo, 392157
1, 306240, Tempo, 384615
1, 327360, Tempo, 379747
1, 330240, Tempo, 394737
1, 334080, Tempo, 384615
1, 368640, Tempo, 400000
1, 369600, Tempo, 384615
1, 379200, Tempo, 400000
1, 380160, Tempo, 384615
1, 383040, Time_signature, 5, 3, 12, 8
1, 387840, Time_signature, 2, 2, 24, 8
1, 402240, Tempo, 363636
1, 402240, Time_signature, 9, 4, 18, 8
1, 406560, Tempo, 394737
1, 406560, Time_signature, 2, 2, 24, 8
1, 410400, Tempo, 363636
1, 410400, Time_signature, 9, 4, 18, 8
1, 414720, Tempo, 384615
1, 414720, Time_signature, 2, 2, 24, 8
1, 508800, Time_signature, 5, 3, 12, 8
1, 510000, Time_signature, 9, 4, 18, 8
1, 511080, Time_signature, 5, 3, 12, 8
1, 512280, Time_signature, 9, 4, 18, 8
1, 516600, Time_signature, 4, 3, 24, 8
1, 517560, Tempo, 363636
1, 517560, Time_signature, 2, 5, 6, 8
1, 517680, Tempo, 384615
1, 517680, Time_signature, 9, 4, 18, 8
1, 518760, Time_signature, 2, 2, 24, 8
1, 571560, Time_signature, 9, 4, 18, 8
1, 575880, Time_signature, 2, 2, 24, 8
1, 579720, Time_signature, 9, 4, 18, 8
1, 584040, Time_signature, 2, 2, 24, 8
1, 628200, Time_signature, 9, 4, 18, 8
1, 629280, Time_signature, 5, 3, 12, 8
1, 630480, Time_signature, 9, 4, 18, 8
1, 630480, End_track
2, 0, Start_track
2, 0, Title_t, "Flute"
2, 0, MIDI_port, 0
2, 0, Channel_prefix, 0
2, 0, Control_c, 0, 7, 90
2, 0, Control_c, 0, 10, 55
2, 0, Program_c, 0, 73
2, 0, Program_c, 0, 73
2, 0, Control_c, 0, 91, 66
2, 480, Control_c, 0, 10, 60
2, 6060, Note_on_c, 0, 76, 54
2, 6060, Note_on_c, 0, 88, 54
2, 6174, Note_off_c, 0, 88, 64
2, 6174, Note_off_c, 0, 76, 64
2, 6180, Note_on_c, 0, 88, 54
2, 6180, Note_on_c, 0, 76, 54
2, 6294, Note_off_c, 0, 76, 64
2, 6294, Note_off_c, 0, 88, 64
2, 6300, Note_on_c, 0, 88, 72
2, 6300, Note_on_c, 0, 76, 72
2, 6414, Note_off_c, 0, 76, 64
2, 6414, Note_off_c, 0, 88, 64
2, 8460, Note_on_c, 0, 83, 54
2, 8460, Note_on_c, 0, 86, 54
2, 8574, Note_off_c, 0, 86, 64
2, 8574, Note_off_c, 0, 83, 64
2, 8580, Note_on_c, 0, 86, 54
2, 8580, Note_on_c, 0, 83, 54
2, 8694, Note_off_c, 0, 83, 64
2, 8694, Note_off_c, 0, 86, 64
2, 8700, Note_on_c, 0, 86, 72
2, 8700, Note_on_c, 0, 83, 72
2, 8814, Note_off_c, 0, 83, 64
2, 8814, Note_off_c, 0, 86, 64
2, 10560, Note_on_c, 0, 88, 72
2, 10560, Note_on_c, 0, 76, 72
2, 10680, Note_off_c, 0, 76, 64
2, 10680, Note_off_c, 0, 88, 64
2, 11280, Note_on_c, 0, 76, 72
2, 11280, Note_on_c, 0, 88, 72
2, 11640, Note_off_c, 0, 88, 64
2, 11640, Note_off_c, 0, 76, 64
2, 12240, Note_on_c, 0, 88, 72
2, 12240, Note_on_c, 0, 76, 72
2, 12600, Note_off_c, 0, 76, 64
2, 12600, Note_off_c, 0, 88, 64
2, 13200, Note_on_c, 0, 76, 72
2, 13200, Note_on_c, 0, 88, 72
2, 13560, Note_off_c, 0, 88, 64
2, 13560, Note_off_c, 0, 76, 64
2, 14160, Note_on_c, 0, 88, 72
2, 14160, Note_on_c, 0, 76, 72
2, 14520, Note_off_c, 0, 76, 64
2, 14520, Note_off_c, 0, 88, 64
2, 15120, Note_on_c, 0, 76, 72
2, 15120, Note_on_c, 0, 88, 72
2, 15480, Note_off_c, 0, 88, 64
2, 15480, Note_off_c, 0, 76, 64
2, 16080, Note_on_c, 0, 76, 72
2, 16080, Note_on_c, 0, 88, 72
2, 16440, Note_off_c, 0, 88, 64
2, 16440, Note_off_c, 0, 76, 64
2, 17040, Note_on_c, 0, 76, 72
2, 17040, Note_on_c, 0, 88, 72
2, 17280, Note_off_c, 0, 88, 64
2, 17280, Note_off_c, 0, 76, 64
2, 17280, Note_on_c, 0, 81, 72
2, 17280, Note_on_c, 0, 76, 72
2, 17400, Note_off_c, 0, 76, 64
2, 17400, Note_off_c, 0, 81, 64
2, 17520, Note_on_c, 0, 81, 72
2, 17520, Note_on_c, 0, 93, 72
2, 17580, Note_off_c, 0, 93, 64
2, 17580, Note_off_c, 0, 81, 64
2, 17640, Note_on_c, 0, 81, 72
2, 17640, Note_on_c, 0, 93, 72
2, 17700, Note_off_c, 0, 93, 64
2, 17700, Note_off_c, 0, 81, 64
2, 17760, Note_on_c, 0, 93, 72
2, 17760, Note_on_c, 0, 81, 72
2, 17880, Note_off_c, 0, 81, 64
2, 17880, Note_off_c, 0, 93, 64
2, 18240, Note_on_c, 0, 88, 72
2, 18240, Note_on_c, 0, 76, 72
2, 18360, Note_off_c, 0, 76, 64
2, 18360, Note_off_c, 0, 88, 64
2, 18960, Note_on_c, 0, 76, 72
2, 18960, Note_on_c, 0, 88, 72
2, 19320, Note_off_c, 0, 88, 64
2, 19320, Note_off_c, 0, 76, 64
2, 19920, Note_on_c, 0, 88, 72
2, 19920, Note_on_c, 0, 76, 72
2, 20280, Note_off_c, 0, 76, 64
2, 20280, Note_off_c, 0, 88, 64
2, 20880, Note_on_c, 0, 76, 72
2, 20880, Note_on_c, 0, 88, 72
2, 21240, Note_off_c, 0, 88, 64
2, 21240, Note_off_c, 0, 76, 64
2, 21840, Note_on_c, 0, 88, 72
2, 21840, Note_on_c, 0, 76, 72
2, 22200, Note_off_c, 0, 76, 64
2, 22200, Note_off_c, 0, 88, 64
2, 22800, Note_on_c, 0, 76, 72
2, 22800, Note_on_c, 0, 88, 72
2, 23160, Note_off_c, 0, 88, 64
2, 23160, Note_off_c, 0, 76, 64
2, 23760, Note_on_c, 0, 76, 72
2, 23760, Note_on_c, 0, 88, 72
2, 24120, Note_off_c, 0, 88, 64
2, 24120, Note_off_c, 0, 76, 64
2, 24720, Note_on_c, 0, 76, 72
2, 24720, Note_on_c, 0, 88, 72
2, 24960, Note_off_c, 0, 88, 64
2, 24960, Note_off_c, 0, 76, 64
2, 24960, Note_on_c, 0, 81, 72
2, 24960, Note_on_c, 0, 76, 72
2, 25080, Note_off_c, 0, 76, 64
2, 25080, Note_off_c, 0, 81, 64
2, 25200, Note_on_c, 0, 93, 72
2, 25200, Note_on_c, 0, 81, 72
2, 25260, Note_off_c, 0, 81, 64
2, 25260, Note_off_c, 0, 93, 64
2, 25320, Note_on_c, 0, 93, 72
2, 25320, Note_on_c, 0, 81, 72
2, 25380, Note_off_c, 0, 81, 64
2, 25380, Note_off_c, 0, 93, 64
2, 25440, Note_on_c, 0, 93, 72
2, 25440, Note_on_c, 0, 81, 72
2, 25560, Note_off_c, 0, 81, 64
2, 25560, Note_off_c, 0, 93, 64
2, 25920, Note_on_c, 0, 81, 81
2, 25920, Note_on_c, 0, 90, 81
2, 26040, Note_off_c, 0, 90, 64
2, 26040, Note_off_c, 0, 81, 64
2, 26640, Note_on_c, 0, 90, 97
2, 26640, Note_on_c, 0, 81, 97
2, 26880, Note_off_c, 0, 90, 64
2, 26880, Note_on_c, 0, 88, 97
2, 27000, Note_off_c, 0, 81, 64
2, 27000, Note_off_c, 0, 88, 64
2, 27600, Note_on_c, 0, 81, 97
2, 27600, Note_on_c, 0, 88, 97
2, 27840, Note_off_c, 0, 88, 64
2, 27840, Note_on_c, 0, 90, 97
2, 27960, Note_off_c, 0, 81, 64
2, 27960, Note_off_c, 0, 90, 64
2, 28560, Note_on_c, 0, 90, 97
2, 28560, Note_on_c, 0, 81, 97
2, 28920, Note_off_c, 0, 81, 64
2, 28920, Note_off_c, 0, 90, 64
2, 29040, Note_on_c, 0, 89, 127
2, 29232, Note_off_c, 0, 89, 64
2, 29520, Note_on_c, 0, 88, 97
2, 29520, Note_on_c, 0, 85, 97
2, 29760, Note_off_c, 0, 85, 64
2, 29760, Note_off_c, 0, 88, 64
2, 29760, Note_on_c, 0, 81, 65
2, 29760, Note_on_c, 0, 87, 65
2, 29880, Note_off_c, 0, 87, 64
2, 29880, Note_off_c, 0, 81, 64
2, 30480, Note_on_c, 0, 86, 65
2, 30480, Note_on_c, 0, 83, 65
2, 30720, Note_off_c, 0, 83, 64
2, 30720, Note_off_c, 0, 86, 64
2, 30720, Note_on_c, 0, 88, 65
2, 30720, Note_on_c, 0, 85, 65
2, 30840, Note_off_c, 0, 85, 64
2, 30840, Note_off_c, 0, 88, 64
2, 31440, Note_on_c, 0, 85, 65
2, 31440, Note_on_c, 0, 88, 65
2, 31680, Note_off_c, 0, 85, 64
2, 31680, Note_on_c, 0, 83, 65
2, 31800, Note_off_c, 0, 88, 64
2, 31800, Note_off_c, 0, 83, 64
2, 32400, Note_on_c, 0, 88, 65
2, 32400, Note_on_c, 0, 83, 65
2, 32640, Note_off_c, 0, 83, 64
2, 32640, Note_off_c, 0, 88, 64
2, 32640, Note_on_c, 0, 81, 72
2, 32760, Note_off_c, 0, 81, 64
2, 32880, Note_on_c, 0, 81, 72
2, 32880, Note_on_c, 0, 93, 72
2, 32940, Note_off_c, 0, 93, 64
2, 32940, Note_off_c, 0, 81, 64
2, 33000, Note_on_c, 0, 93, 72
2, 33000, Note_on_c, 0, 81, 72
2, 33060, Note_off_c, 0, 81, 64
2, 33060, Note_off_c, 0, 93, 64
2, 33120, Note_on_c, 0, 81, 72
2, 33120, Note_on_c, 0, 93, 72
2, 33240, Note_off_c, 0, 93, 64
2, 33240, Note_off_c, 0, 81, 64
2, 33600, Note_on_c, 0, 81, 81
2, 33600, Note_on_c, 0, 90, 81
2, 33720, Note_off_c, 0, 90, 64
2, 33720, Note_off_c, 0, 81, 64
2, 34320, Note_on_c, 0, 90, 97
2, 34320, Note_on_c, 0, 81, 97
2, 34560, Note_off_c, 0, 90, 64
2, 34560, Note_on_c, 0, 88, 97
2, 34680, Note_off_c, 0, 81, 64
2, 34680, Note_off_c, 0, 88, 64
2, 35280, Note_on_c, 0, 81, 97
2, 35280, Note_on_c, 0, 88, 97
2, 35520, Note_off_c, 0, 88, 64
2, 35520, Note_on_c, 0, 90, 97
2, 35640, Note_off_c, 0, 81, 64
2, 35640, Note_off_c, 0, 90, 64
2, 36240, Note_on_c, 0, 90, 97
2, 36240, Note_on_c, 0, 81, 97
2, 36600, Note_off_c, 0, 81, 64
2, 36600, Note_off_c, 0, 90, 64
2, 36720, Note_on_c, 0, 89, 127
2, 36912, Note_off_c, 0, 89, 64
2, 37200, Note_on_c, 0, 88, 97
2, 37200, Note_on_c, 0, 85, 97
2, 37440, Note_off_c, 0, 85, 64
2, 37440, Note_off_c, 0, 88, 64
2, 37440, Note_on_c, 0, 81, 65
2, 37440, Note_on_c, 0, 87, 65
2, 37560, Note_off_c, 0, 87, 64
2, 37560, Note_off_c, 0, 81, 64
2, 38160, Note_on_c, 0, 86, 65
2, 38160, Note_on_c, 0, 83, 65
2, 38400, Note_off_c, 0, 83, 64
2, 38400, Note_off_c, 0, 86, 64
2, 38400, Note_on_c, 0, 88, 65
2, 38400, Note_on_c, 0, 85, 65
2, 38520, Note_off_c, 0, 85, 64
2, 38520, Note_off_c, 0, 88, 64
2, 39120, Note_on_c, 0, 85, 65
2, 39120, Note_on_c, 0, 88, 65
2, 39360, Note_off_c, 0, 85, 64
2, 39360, Note_on_c, 0, 83, 65
2, 39480, Note_off_c, 0, 88, 64
2, 39480, Note_off_c, 0, 83, 64
2, 40080, Note_on_c, 0, 88, 65
2, 40080, Note_on_c, 0, 83, 65
2, 40320, Note_off_c, 0, 83, 64
2, 40320, Note_off_c, 0, 88, 64
2, 40320, Note_on_c, 0, 81, 72
2, 40320, Note_on_c, 0, 76, 72
2, 40440, Note_off_c, 0, 76, 64
2, 40440, Note_off_c, 0, 81, 64
2, 40620, Note_on_c, 0, 81, 72
2, 40680, Note_off_c, 0, 81, 64
2, 40740, Note_on_c, 0, 81, 72
2, 40800, Note_off_c, 0, 81, 64
2, 40860, Note_on_c, 0, 81, 72
2, 40980, Note_off_c, 0, 81, 64
2, 41700, Note_on_c, 0, 81, 72
2, 41814, Note_off_c, 0, 81, 64
2, 41820, Note_on_c, 0, 81, 72
2, 41934, Note_off_c, 0, 81, 64
2, 41940, Note_on_c, 0, 81, 72
2, 42054, Note_off_c, 0, 81, 64
2, 42780, Note_on_c, 0, 88, 72
2, 42840, Note_off_c, 0, 88, 64
2, 42900, Note_on_c, 0, 88, 72
2, 42960, Note_off_c, 0, 88, 64
2, 43020, Note_on_c, 0, 88, 72
2, 43140, Note_off_c, 0, 88, 64
2, 43860, Note_on_c, 0, 88, 72
2, 43920, Note_off_c, 0, 88, 64
2, 43980, Note_on_c, 0, 88, 72
2, 44040, Note_off_c, 0, 88, 64
2, 44100, Note_on_c, 0, 88, 72
2, 44220, Note_off_c, 0, 88, 64
2, 44640, Note_on_c, 0, 85, 54
2, 44640, Note_on_c, 0, 76, 54
2, 45216, Note_off_c, 0, 76, 64
2, 45216, Note_off_c, 0, 85, 64
2, 45360, Note_on_c, 0, 74, 54
2, 45360, Note_on_c, 0, 83, 54
2, 45480, Note_off_c, 0, 83, 64
2, 45480, Note_off_c, 0, 74, 64
2, 45600, Note_on_c, 0, 73, 54
2, 45600, Note_on_c, 0, 81, 54
2, 45720, Note_off_c, 0, 81, 64
2, 45720, Note_off_c, 0, 73, 64
2, 45840, Note_on_c, 0, 76, 54
2, 45840, Note_on_c, 0, 85, 54
2, 45960, Note_off_c, 0, 85, 64
2, 45960, Note_off_c, 0, 76, 64
2, 46080, Note_on_c, 0, 83, 54
2, 46080, Note_on_c, 0, 74, 54
2, 46200, Note_off_c, 0, 74, 64
2, 46200, Note_off_c, 0, 83, 64
2, 46320, Note_on_c, 0, 81, 54
2, 46320, Note_on_c, 0, 73, 54
2, 46440, Note_off_c, 0, 73, 64
2, 46440, Note_off_c, 0, 81, 64
2, 46560, Note_on_c, 0, 74, 54
2, 46560, Note_on_c, 0, 83, 54
2, 46680, Note_off_c, 0, 83, 64
2, 46680, Note_off_c, 0, 74, 64
2, 46800, Note_on_c, 0, 85, 72
2, 46800, Note_on_c, 0, 93, 72
2, 46920, Note_off_c, 0, 93, 64
2, 46920, Note_off_c, 0, 85, 64
2, 47040, Note_on_c, 0, 88, 72
2, 47040, Note_on_c, 0, 92, 72
2, 47160, Note_off_c, 0, 92, 64
2, 47160, Note_off_c, 0, 88, 64
2, 47280, Note_on_c, 0, 90, 72
2, 47280, Note_on_c, 0, 86, 72
2, 47400, Note_off_c, 0, 86, 64
2, 47400, Note_off_c, 0, 90, 64
2, 47520, Note_on_c, 0, 85, 72
2, 47520, Note_on_c, 0, 88, 72
2, 47640, Note_off_c, 0, 88, 64
2, 47640, Note_off_c, 0, 85, 64
2, 47760, Note_on_c, 0, 83, 72
2, 47760, Note_on_c, 0, 86, 72
2, 47880, Note_off_c, 0, 86, 64
2, 47880, Note_off_c, 0, 83, 64
2, 48000, Note_on_c, 0, 81, 72
2, 48000, Note_on_c, 0, 85, 72
2, 48120, Note_off_c, 0, 85, 64
2, 48120, Note_off_c, 0, 81, 64
2, 48240, Note_on_c, 0, 83, 72
2, 48240, Note_on_c, 0, 80, 72
2, 48360, Note_off_c, 0, 80, 64
2, 48360, Note_off_c, 0, 83, 64
2, 48480, Note_on_c, 0, 76, 72
2, 48480, Note_on_c, 0, 81, 72
2, 48600, Note_off_c, 0, 81, 64
2, 48600, Note_off_c, 0, 76, 64
2, 48780, Note_on_c, 0, 81, 72
2, 48840, Note_off_c, 0, 81, 64
2, 48900, Note_on_c, 0, 81, 72
2, 48960, Note_off_c, 0, 81, 64
2, 49020, Note_on_c, 0, 81, 72
2, 49140, Note_off_c, 0, 81, 64
2, 49860, Note_on_c, 0, 81, 72
2, 49920, Note_off_c, 0, 81, 64
2, 49920, Note_on_c, 0, 81, 72
2, 49980, Note_off_c, 0, 81, 64
2, 50040, Note_on_c, 0, 81, 72
2, 50160, Note_off_c, 0, 81, 64
2, 50940, Note_on_c, 0, 88, 72
2, 51000, Note_off_c, 0, 88, 64
2, 51060, Note_on_c, 0, 88, 72
2, 51120, Note_off_c, 0, 88, 64
2, 51180, Note_on_c, 0, 88, 72
2, 51300, Note_off_c, 0, 88, 64
2, 52020, Note_on_c, 0, 88, 72
2, 52134, Note_off_c, 0, 88, 64
2, 52140, Note_on_c, 0, 88, 72
2, 52254, Note_off_c, 0, 88, 64
2, 52260, Note_on_c, 0, 88, 72
2, 52374, Note_off_c, 0, 88, 64
2, 52800, Note_on_c, 0, 88, 80
2, 52992, Note_off_c, 0, 88, 64
2, 53280, Note_on_c, 0, 88, 80
2, 53472, Note_off_c, 0, 88, 64
2, 53760, Note_on_c, 0, 88, 80
2, 53952, Note_off_c, 0, 88, 64
2, 54240, Note_on_c, 0, 88, 80
2, 54432, Note_off_c, 0, 88, 64
2, 54720, Note_on_c, 0, 88, 64
2, 54912, Note_off_c, 0, 88, 64
2, 55200, Note_on_c, 0, 88, 61
2, 55392, Note_off_c, 0, 88, 64
2, 55680, Note_on_c, 0, 88, 57
2, 55872, Note_off_c, 0, 88, 64
2, 56160, Note_on_c, 0, 88, 53
2, 56352, Note_off_c, 0, 88, 64
2, 56640, Note_on_c, 0, 88, 60
2, 56832, Note_off_c, 0, 88, 64
2, 57600, Note_on_c, 0, 76, 58
2, 57600, Note_on_c, 0, 88, 58
2, 60706, Note_off_c, 0, 88, 64
2, 60706, Note_off_c, 0, 76, 64
2, 61440, Note_on_c, 0, 76, 58
2, 61440, Note_on_c, 0, 88, 58
2, 63840, Note_off_c, 0, 88, 64
2, 63840, Note_off_c, 0, 76, 64
2, 63840, Note_on_c, 0, 77, 58
2, 63840, Note_on_c, 0, 89, 58
2, 64320, Note_off_c, 0, 89, 64
2, 64320, Note_off_c, 0, 77, 64
2, 64320, Note_on_c, 0, 90, 58
2, 64320, Note_on_c, 0, 78, 58
2, 64560, Note_off_c, 0, 78, 64
2, 64560, Note_off_c, 0, 90, 64
2, 71520, Note_on_c, 0, 89, 77
2, 71520, Note_on_c, 0, 85, 77
2, 72000, Note_off_c, 0, 89, 64
2, 72000, Note_on_c, 0, 90, 58
2, 72240, Note_off_c, 0, 85, 64
2, 72240, Note_off_c, 0, 90, 64
2, 72480, Note_on_c, 0, 85, 80
2, 72624, Note_off_c, 0, 85, 64
2, 72960, Note_on_c, 0, 85, 80
2, 73104, Note_off_c, 0, 85, 64
2, 73440, Note_on_c, 0, 85, 80
2, 73584, Note_off_c, 0, 85, 64
2, 73920, Note_on_c, 0, 85, 80
2, 74064, Note_off_c, 0, 85, 64
2, 74400, Note_on_c, 0, 85, 80
2, 74544, Note_off_c, 0, 85, 64
2, 74880, Note_on_c, 0, 85, 80
2, 75024, Note_off_c, 0, 85, 64
2, 75360, Note_on_c, 0, 85, 80
2, 75504, Note_off_c, 0, 85, 64
2, 75840, Note_on_c, 0, 85, 80
2, 75984, Note_off_c, 0, 85, 64
2, 76320, Note_on_c, 0, 85, 80
2, 76464, Note_off_c, 0, 85, 64
2, 76800, Note_on_c, 0, 85, 80
2, 76944, Note_off_c, 0, 85, 64
2, 77280, Note_on_c, 0, 85, 80
2, 77424, Note_off_c, 0, 85, 64
2, 77760, Note_on_c, 0, 87, 80
2, 77904, Note_off_c, 0, 87, 64
2, 78240, Note_on_c, 0, 87, 80
2, 78384, Note_off_c, 0, 87, 64
2, 78720, Note_on_c, 0, 88, 80
2, 78864, Note_off_c, 0, 88, 64
2, 79200, Note_on_c, 0, 88, 80
2, 79344, Note_off_c, 0, 88, 64
2, 79680, Note_on_c, 0, 90, 80
2, 79680, Note_on_c, 0, 87, 80
2, 79824, Note_off_c, 0, 87, 64
2, 79824, Note_off_c, 0, 90, 64
2, 80160, Note_on_c, 0, 90, 80
2, 80160, Note_on_c, 0, 87, 80
2, 80304, Note_off_c, 0, 87, 64
2, 80304, Note_off_c, 0, 90, 64
2, 80640, Note_on_c, 0, 90, 80
2, 80640, Note_on_c, 0, 87, 80
2, 80784, Note_off_c, 0, 87, 64
2, 80784, Note_off_c, 0, 90, 64
2, 81120, Note_on_c, 0, 90, 80
2, 81120, Note_on_c, 0, 87, 80
2, 81264, Note_off_c, 0, 87, 64
2, 81264, Note_off_c, 0, 90, 64
2, 81600, Note_on_c, 0, 90, 80
2, 81600, Note_on_c, 0, 87, 80
2, 81744, Note_off_c, 0, 87, 64
2, 81744, Note_off_c, 0, 90, 64
2, 82080, Note_on_c, 0, 90, 80
2, 82080, Note_on_c, 0, 87, 80
2, 82224, Note_off_c, 0, 87, 64
2, 82224, Note_off_c, 0, 90, 64
2, 82560, Note_on_c, 0, 75, 56
2, 82560, Note_on_c, 0, 78, 56
2, 82704, Note_off_c, 0, 78, 64
2, 82704, Note_off_c, 0, 75, 64
2, 83040, Note_on_c, 0, 68, 48
2, 83184, Note_off_c, 0, 68, 64
2, 83520, Note_on_c, 0, 56, 48
2, 83664, Note_off_c, 0, 56, 64
2, 85920, Note_on_c, 0, 87, 80
2, 85920, Note_on_c, 0, 90, 80
2, 86064, Note_off_c, 0, 90, 64
2, 86064, Note_off_c, 0, 87, 64
2, 86400, Note_on_c, 0, 78, 56
2, 86400, Note_on_c, 0, 75, 56
2, 86544, Note_off_c, 0, 75, 64
2, 86544, Note_off_c, 0, 78, 64
2, 86880, Note_on_c, 0, 68, 64
2, 87024, Note_off_c, 0, 68, 64
2, 87360, Note_on_c, 0, 56, 64
2, 87504, Note_off_c, 0, 56, 64
2, 88800, Note_on_c, 0, 68, 64
2, 88944, Note_off_c, 0, 68, 64
2, 89280, Note_on_c, 0, 56, 64
2, 89424, Note_off_c, 0, 56, 64
2, 90720, Note_on_c, 0, 68, 64
2, 90864, Note_off_c, 0, 68, 64
2, 91200, Note_on_c, 0, 56, 64
2, 91344, Note_off_c, 0, 56, 64
2, 93600, Note_on_c, 0, 80, 80
2, 93600, Note_on_c, 0, 88, 80
2, 93984, Note_off_c, 0, 88, 64
2, 93984, Note_off_c, 0, 80, 64
2, 94560, Note_on_c, 0, 78, 80
2, 94560, Note_on_c, 0, 87, 80
2, 94944, Note_off_c, 0, 87, 64
2, 94944, Note_off_c, 0, 78, 64
2, 95520, Note_on_c, 0, 76, 80
2, 95520, Note_on_c, 0, 85, 80
2, 95904, Note_off_c, 0, 85, 64
2, 95904, Note_off_c, 0, 76, 64
2, 96480, Note_on_c, 0, 78, 80
2, 96480, Note_on_c, 0, 87, 80
2, 96864, Note_off_c, 0, 87, 64
2, 96864, Note_off_c, 0, 78, 64
2, 96960, Note_on_c, 0, 88, 64
2, 98146, Note_off_c, 0, 88, 64
2, 98280, Note_on_c, 0, 90, 64
2, 98400, Note_off_c, 0, 90, 64
2, 98400, Note_on_c, 0, 91, 64
2, 98496, Note_off_c, 0, 91, 64
2, 98760, Note_on_c, 0, 88, 64
2, 98874, Note_off_c, 0, 88, 64
2, 98880, Note_on_c, 0, 90, 64
2, 98976, Note_off_c, 0, 90, 64
2, 99240, Note_on_c, 0, 88, 64
2, 99354, Note_off_c, 0, 88, 64
2, 99360, Note_on_c, 0, 86, 64
2, 99456, Note_off_c, 0, 86, 64
2, 99720, Note_on_c, 0, 90, 64
2, 99834, Note_off_c, 0, 90, 64
2, 99840, Note_on_c, 0, 88, 64
2, 99936, Note_off_c, 0, 88, 64
2, 100200, Note_on_c, 0, 90, 64
2, 100314, Note_off_c, 0, 90, 64
2, 100320, Note_on_c, 0, 91, 64
2, 100416, Note_off_c, 0, 91, 64
2, 100680, Note_on_c, 0, 88, 64
2, 100794, Note_off_c, 0, 88, 64
2, 100800, Note_on_c, 0, 90, 64
2, 100896, Note_off_c, 0, 90, 64
2, 101160, Note_on_c, 0, 88, 64
2, 101274, Note_off_c, 0, 88, 64
2, 101280, Note_on_c, 0, 86, 64
2, 101376, Note_off_c, 0, 86, 64
2, 101640, Note_on_c, 0, 90, 64
2, 101754, Note_off_c, 0, 90, 64
2, 103200, Note_on_c, 0, 80, 80
2, 103200, Note_on_c, 0, 88, 80
2, 103584, Note_off_c, 0, 88, 64
2, 103584, Note_off_c, 0, 80, 64
2, 104160, Note_on_c, 0, 78, 80
2, 104160, Note_on_c, 0, 87, 80
2, 104544, Note_off_c, 0, 87, 64
2, 104544, Note_off_c, 0, 78, 64
2, 105120, Note_on_c, 0, 76, 80
2, 105120, Note_on_c, 0, 85, 80
2, 105504, Note_off_c, 0, 85, 64
2, 105504, Note_off_c, 0, 76, 64
2, 106080, Note_on_c, 0, 78, 80
2, 106080, Note_on_c, 0, 87, 80
2, 106464, Note_off_c, 0, 87, 64
2, 106464, Note_off_c, 0, 78, 64
2, 106560, Note_on_c, 0, 88, 64
2, 107746, Note_off_c, 0, 88, 64
2, 107880, Note_on_c, 0, 90, 64
2, 108000, Note_off_c, 0, 90, 64
2, 108000, Note_on_c, 0, 91, 64
2, 108096, Note_off_c, 0, 91, 64
2, 108360, Note_on_c, 0, 88, 64
2, 108474, Note_off_c, 0, 88, 64
2, 108480, Note_on_c, 0, 90, 64
2, 108576, Note_off_c, 0, 90, 64
2, 108840, Note_on_c, 0, 88, 64
2, 108954, Note_off_c, 0, 88, 64
2, 108960, Note_on_c, 0, 86, 64
2, 109056, Note_off_c, 0, 86, 64
2, 109320, Note_on_c, 0, 90, 64
2, 109434, Note_off_c, 0, 90, 64
2, 109440, Note_on_c, 0, 88, 64
2, 109536, Note_off_c, 0, 88, 64
2, 109800, Note_on_c, 0, 90, 64
2, 109914, Note_off_c, 0, 90, 64
2, 109920, Note_on_c, 0, 91, 64
2, 110016, Note_off_c, 0, 91, 64
2, 110280, Note_on_c, 0, 90, 64
2, 110394, Note_off_c, 0, 90, 64
2, 110400, Note_on_c, 0, 91, 64
2, 110400, Note_on_c, 0, 88, 64
2, 110496, Note_off_c, 0, 88, 64
2, 110496, Note_off_c, 0, 91, 64
2, 110880, Note_on_c, 0, 88, 48
2, 110880, Note_on_c, 0, 91, 48
2, 115200, Note_off_c, 0, 91, 64
2, 115200, Note_off_c, 0, 88, 64
2, 115200, Note_on_c, 0, 90, 53
2, 115200, Note_on_c, 0, 86, 53
2, 116160, Note_off_c, 0, 86, 64
2, 116160, Note_off_c, 0, 90, 64
2, 116160, Note_on_c, 0, 88, 64
2, 116160, Note_on_c, 0, 91, 64
2, 120960, Note_off_c, 0, 91, 64
2, 120960, Note_off_c, 0, 88, 64
2, 120960, Note_on_c, 0, 90, 85
2, 120960, Note_on_c, 0, 86, 85
2, 121824, Note_off_c, 0, 86, 64
2, 121824, Note_off_c, 0, 90, 64
2, 121920, Note_on_c, 0, 87, 99
2, 121920, Note_on_c, 0, 90, 99
2, 122040, Note_off_c, 0, 90, 64
2, 122040, Note_off_c, 0, 87, 64
2, 122160, Note_on_c, 0, 90, 99
2, 122160, Note_on_c, 0, 87, 99
2, 122280, Note_off_c, 0, 87, 64
2, 122280, Note_off_c, 0, 90, 64
2, 122400, Note_on_c, 0, 87, 99
2, 122400, Note_on_c, 0, 90, 99
2, 122520, Note_off_c, 0, 90, 64
2, 122520, Note_off_c, 0, 87, 64
2, 122640, Note_on_c, 0, 87, 99
2, 122640, Note_on_c, 0, 90, 99
2, 122760, Note_off_c, 0, 90, 64
2, 122760, Note_off_c, 0, 87, 64
2, 122880, Note_on_c, 0, 87, 99
2, 122880, Note_on_c, 0, 90, 99
2, 123000, Note_off_c, 0, 90, 64
2, 123000, Note_off_c, 0, 87, 64
2, 123120, Note_on_c, 0, 90, 99
2, 123120, Note_on_c, 0, 87, 99
2, 123240, Note_off_c, 0, 87, 64
2, 123240, Note_off_c, 0, 90, 64
2, 123360, Note_on_c, 0, 87, 99
2, 123360, Note_on_c, 0, 90, 99
2, 123480, Note_off_c, 0, 90, 64
2, 123480, Note_off_c, 0, 87, 64
2, 123600, Note_on_c, 0, 90, 99
2, 123600, Note_on_c, 0, 87, 99
2, 123720, Note_off_c, 0, 87, 64
2, 123720, Note_off_c, 0, 90, 64
2, 123840, Note_on_c, 0, 85, 127
2, 123840, Note_on_c, 0, 88, 127
2, 123960, Note_off_c, 0, 88, 64
2, 123960, Note_off_c, 0, 85, 64
2, 124080, Note_on_c, 0, 88, 99
2, 124080, Note_on_c, 0, 85, 99
2, 124200, Note_off_c, 0, 85, 64
2, 124200, Note_off_c, 0, 88, 64
2, 124320, Note_on_c, 0, 88, 99
2, 124320, Note_on_c, 0, 85, 99
2, 124440, Note_off_c, 0, 85, 64
2, 124440, Note_off_c, 0, 88, 64
2, 124560, Note_on_c, 0, 88, 99
2, 124560, Note_on_c, 0, 85, 99
2, 124680, Note_off_c, 0, 85, 64
2, 124680, Note_off_c, 0, 88, 64
2, 124800, Note_on_c, 0, 87, 127
2, 124800, Note_on_c, 0, 90, 127
2, 124920, Note_off_c, 0, 90, 64
2, 124920, Note_off_c, 0, 87, 64
2, 125040, Note_on_c, 0, 87, 99
2, 125040, Note_on_c, 0, 90, 99
2, 125160, Note_off_c, 0, 90, 64
2, 125160, Note_off_c, 0, 87, 64
2, 125280, Note_on_c, 0, 87, 99
2, 125280, Note_on_c, 0, 90, 99
2, 125400, Note_off_c, 0, 90, 64
2, 125400, Note_off_c, 0, 87, 64
2, 125520, Note_on_c, 0, 87, 99
2, 125520, Note_on_c, 0, 90, 99
2, 125640, Note_off_c, 0, 90, 64
2, 125640, Note_off_c, 0, 87, 64
2, 125760, Note_on_c, 0, 85, 127
2, 125760, Note_on_c, 0, 88, 127
2, 125880, Note_off_c, 0, 88, 64
2, 125880, Note_off_c, 0, 85, 64
2, 126000, Note_on_c, 0, 85, 99
2, 126000, Note_on_c, 0, 88, 99
2, 126120, Note_off_c, 0, 88, 64
2, 126120, Note_off_c, 0, 85, 64
2, 126240, Note_on_c, 0, 88, 99
2, 126240, Note_on_c, 0, 85, 99
2, 126360, Note_off_c, 0, 85, 64
2, 126360, Note_off_c, 0, 88, 64
2, 126480, Note_on_c, 0, 88, 99
2, 126480, Note_on_c, 0, 85, 99
2, 126600, Note_off_c, 0, 85, 64
2, 126600, Note_off_c, 0, 88, 64
2, 126720, Note_on_c, 0, 87, 127
2, 126720, Note_on_c, 0, 90, 127
2, 126840, Note_off_c, 0, 90, 64
2, 126840, Note_off_c, 0, 87, 64
2, 126960, Note_on_c, 0, 87, 99
2, 126960, Note_on_c, 0, 90, 99
2, 127080, Note_off_c, 0, 90, 64
2, 127080, Note_off_c, 0, 87, 64
2, 127200, Note_on_c, 0, 87, 99
2, 127200, Note_on_c, 0, 90, 99
2, 127320, Note_off_c, 0, 90, 64
2, 127320, Note_off_c, 0, 87, 64
2, 127440, Note_on_c, 0, 87, 99
2, 127440, Note_on_c, 0, 90, 99
2, 127560, Note_off_c, 0, 90, 64
2, 127560, Note_off_c, 0, 87, 64
2, 127680, Note_on_c, 0, 85, 127
2, 127680, Note_on_c, 0, 88, 127
2, 127800, Note_off_c, 0, 88, 64
2, 127800, Note_off_c, 0, 85, 64
2, 127920, Note_on_c, 0, 85, 99
2, 127920, Note_on_c, 0, 88, 99
2, 128040, Note_off_c, 0, 88, 64
2, 128040, Note_off_c, 0, 85, 64
2, 128160, Note_on_c, 0, 88, 99
2, 128160, Note_on_c, 0, 85, 99
2, 128280, Note_off_c, 0, 85, 64
2, 128280, Note_off_c, 0, 88, 64
2, 128400, Note_on_c, 0, 88, 99
2, 128400, Note_on_c, 0, 85, 99
2, 128520, Note_off_c, 0, 85, 64
2, 128520, Note_off_c, 0, 88, 64
2, 128640, Note_on_c, 0, 85, 127
2, 128640, Note_on_c, 0, 90, 127
2, 128760, Note_off_c, 0, 90, 64
2, 128760, Note_off_c, 0, 85, 64
2, 128880, Note_on_c, 0, 90, 99
2, 128880, Note_on_c, 0, 85, 99
2, 129000, Note_off_c, 0, 85, 64
2, 129000, Note_off_c, 0, 90, 64
2, 129120, Note_on_c, 0, 85, 99
2, 129120, Note_on_c, 0, 90, 99
2, 129240, Note_off_c, 0, 90, 64
2, 129240, Note_off_c, 0, 85, 64
2, 129360, Note_on_c, 0, 85, 99
2, 129360, Note_on_c, 0, 90, 99
2, 129480, Note_off_c, 0, 90, 64
2, 129480, Note_off_c, 0, 85, 64
2, 129600, Note_on_c, 0, 85, 127
2, 129600, Note_on_c, 0, 88, 127
2, 129720, Note_off_c, 0, 88, 64
2, 129720, Note_off_c, 0, 85, 64
2, 129840, Note_on_c, 0, 85, 99
2, 129840, Note_on_c, 0, 88, 99
2, 129960, Note_off_c, 0, 88, 64
2, 129960, Note_off_c, 0, 85, 64
2, 130080, Note_on_c, 0, 88, 99
2, 130080, Note_on_c, 0, 85, 99
2, 130200, Note_off_c, 0, 85, 64
2, 130200, Note_off_c, 0, 88, 64
2, 130320, Note_on_c, 0, 88, 99
2, 130320, Note_on_c, 0, 85, 99
2, 130440, Note_off_c, 0, 85, 64
2, 130440, Note_off_c, 0, 88, 64
2, 130560, Note_on_c, 0, 84, 127
2, 130560, Note_on_c, 0, 87, 127
2, 130680, Note_off_c, 0, 87, 64
2, 130680, Note_off_c, 0, 84, 64
2, 130800, Note_on_c, 0, 84, 99
2, 130800, Note_on_c, 0, 87, 99
2, 130920, Note_off_c, 0, 87, 64
2, 130920, Note_off_c, 0, 84, 64
2, 131040, Note_on_c, 0, 84, 99
2, 131040, Note_on_c, 0, 87, 99
2, 131160, Note_off_c, 0, 87, 64
2, 131160, Note_off_c, 0, 84, 64
2, 131280, Note_on_c, 0, 84, 99
2, 131280, Note_on_c, 0, 87, 99
2, 131400, Note_off_c, 0, 87, 64
2, 131400, Note_off_c, 0, 84, 64
2, 131520, Note_on_c, 0, 85, 99
2, 131520, Note_on_c, 0, 88, 99
2, 131640, Note_off_c, 0, 88, 64
2, 131640, Note_off_c, 0, 85, 64
2, 131760, Note_on_c, 0, 85, 99
2, 131760, Note_on_c, 0, 88, 99
2, 131880, Note_off_c, 0, 88, 64
2, 131880, Note_off_c, 0, 85, 64
2, 132000, Note_on_c, 0, 84, 127
2, 132000, Note_on_c, 0, 87, 127
2, 132120, Note_off_c, 0, 87, 64
2, 132120, Note_off_c, 0, 84, 64
2, 132240, Note_on_c, 0, 87, 99
2, 132240, Note_on_c, 0, 84, 99
2, 132360, Note_off_c, 0, 84, 64
2, 132360, Note_off_c, 0, 87, 64
2, 132480, Note_on_c, 0, 87, 99
2, 132480, Note_on_c, 0, 84, 99
2, 132600, Note_off_c, 0, 84, 64
2, 132600, Note_off_c, 0, 87, 64
2, 132720, Note_on_c, 0, 87, 99
2, 132720, Note_on_c, 0, 84, 99
2, 132840, Note_off_c, 0, 84, 64
2, 132840, Note_off_c, 0, 87, 64
2, 132960, Note_on_c, 0, 87, 99
2, 132960, Note_on_c, 0, 84, 99
2, 133080, Note_off_c, 0, 84, 64
2, 133080, Note_off_c, 0, 87, 64
2, 133200, Note_on_c, 0, 84, 99
2, 133200, Note_on_c, 0, 87, 99
2, 133320, Note_off_c, 0, 87, 64
2, 133320, Note_off_c, 0, 84, 64
2, 133440, Note_on_c, 0, 88, 99
2, 133440, Note_on_c, 0, 85, 99
2, 133560, Note_off_c, 0, 85, 64
2, 133560, Note_off_c, 0, 88, 64
2, 133680, Note_on_c, 0, 88, 99
2, 133680, Note_on_c, 0, 85, 99
2, 133800, Note_off_c, 0, 85, 64
2, 133800, Note_off_c, 0, 88, 64
2, 133920, Note_on_c, 0, 84, 127
2, 133920, Note_on_c, 0, 87, 127
2, 134040, Note_off_c, 0, 87, 64
2, 134040, Note_off_c, 0, 84, 64
2, 134160, Note_on_c, 0, 84, 99
2, 134160, Note_on_c, 0, 87, 99
2, 134280, Note_off_c, 0, 87, 64
2, 134280, Note_off_c, 0, 84, 64
2, 134400, Note_on_c, 0, 87, 99
2, 134400, Note_on_c, 0, 84, 99
2, 134520, Note_off_c, 0, 84, 64
2, 134520, Note_off_c, 0, 87, 64
2, 134640, Note_on_c, 0, 84, 99
2, 134640, Note_on_c, 0, 87, 99
2, 134760, Note_off_c, 0, 87, 64
2, 134760, Note_off_c, 0, 84, 64
2, 134880, Note_on_c, 0, 87, 99
2, 134880, Note_on_c, 0, 84, 99
2, 135000, Note_off_c, 0, 84, 64
2, 135000, Note_off_c, 0, 87, 64
2, 135120, Note_on_c, 0, 84, 99
2, 135120, Note_on_c, 0, 87, 99
2, 135240, Note_off_c, 0, 87, 64
2, 135240, Note_off_c, 0, 84, 64
2, 135360, Note_on_c, 0, 88, 99
2, 135360, Note_on_c, 0, 85, 99
2, 135480, Note_off_c, 0, 85, 64
2, 135480, Note_off_c, 0, 88, 64
2, 135600, Note_on_c, 0, 88, 99
2, 135600, Note_on_c, 0, 85, 99
2, 135720, Note_off_c, 0, 85, 64
2, 135720, Note_off_c, 0, 88, 64
2, 135840, Note_on_c, 0, 84, 127
2, 135840, Note_on_c, 0, 87, 127
2, 135960, Note_off_c, 0, 87, 64
2, 135960, Note_off_c, 0, 84, 64
2, 136080, Note_on_c, 0, 84, 99
2, 136080, Note_on_c, 0, 87, 99
2, 136200, Note_off_c, 0, 87, 64
2, 136200, Note_off_c, 0, 84, 64
2, 136320, Note_on_c, 0, 88, 99
2, 136320, Note_on_c, 0, 85, 99
2, 136440, Note_off_c, 0, 85, 64
2, 136440, Note_off_c, 0, 88, 64
2, 136560, Note_on_c, 0, 88, 99
2, 136560, Note_on_c, 0, 85, 99
2, 136680, Note_off_c, 0, 85, 64
2, 136680, Note_off_c, 0, 88, 64
2, 136800, Note_on_c, 0, 84, 127
2, 136800, Note_on_c, 0, 87, 127
2, 136920, Note_off_c, 0, 87, 64
2, 136920, Note_off_c, 0, 84, 64
2, 137040, Note_on_c, 0, 84, 99
2, 137040, Note_on_c, 0, 87, 99
2, 137160, Note_off_c, 0, 87, 64
2, 137160, Note_off_c, 0, 84, 64
2, 137280, Note_on_c, 0, 88, 99
2, 137280, Note_on_c, 0, 85, 99
2, 137400, Note_off_c, 0, 85, 64
2, 137400, Note_off_c, 0, 88, 64
2, 137520, Note_on_c, 0, 88, 99
2, 137520, Note_on_c, 0, 85, 99
2, 137640, Note_off_c, 0, 85, 64
2, 137640, Note_off_c, 0, 88, 64
2, 137760, Note_on_c, 0, 84, 127
2, 137760, Note_on_c, 0, 87, 127
2, 137880, Note_off_c, 0, 87, 64
2, 137880, Note_off_c, 0, 84, 64
2, 138000, Note_on_c, 0, 84, 99
2, 138000, Note_on_c, 0, 87, 99
2, 138120, Note_off_c, 0, 87, 64
2, 138120, Note_off_c, 0, 84, 64
2, 138240, Note_on_c, 0, 85, 99
2, 138240, Note_on_c, 0, 88, 99
2, 138360, Note_off_c, 0, 88, 64
2, 138360, Note_off_c, 0, 85, 64
2, 138480, Note_on_c, 0, 88, 99
2, 138480, Note_on_c, 0, 85, 99
2, 138600, Note_off_c, 0, 85, 64
2, 138600, Note_off_c, 0, 88, 64
2, 138720, Note_on_c, 0, 90, 127
2, 138720, Note_on_c, 0, 83, 127
2, 138840, Note_off_c, 0, 83, 64
2, 138840, Note_off_c, 0, 90, 64
2, 138960, Note_on_c, 0, 90, 99
2, 138960, Note_on_c, 0, 83, 99
2, 139080, Note_off_c, 0, 83, 64
2, 139080, Note_off_c, 0, 90, 64
2, 139500, Note_on_c, 0, 76, 54
2, 139500, Note_on_c, 0, 88, 54
2, 139614, Note_off_c, 0, 88, 64
2, 139614, Note_off_c, 0, 76, 64
2, 139620, Note_on_c, 0, 88, 54
2, 139620, Note_on_c, 0, 76, 54
2, 139734, Note_off_c, 0, 76, 64
2, 139734, Note_off_c, 0, 88, 64
2, 139740, Note_on_c, 0, 88, 72
2, 139740, Note_on_c, 0, 76, 72
2, 139854, Note_off_c, 0, 76, 64
2, 139854, Note_off_c, 0, 88, 64
2, 141900, Note_on_c, 0, 83, 54
2, 141900, Note_on_c, 0, 86, 54
2, 142014, Note_off_c, 0, 86, 64
2, 142014, Note_off_c, 0, 83, 64
2, 142020, Note_on_c, 0, 86, 54
2, 142020, Note_on_c, 0, 83, 54
2, 142134, Note_off_c, 0, 83, 64
2, 142134, Note_off_c, 0, 86, 64
2, 142140, Note_on_c, 0, 86, 72
2, 142140, Note_on_c, 0, 83, 72
2, 142254, Note_off_c, 0, 83, 64
2, 142254, Note_off_c, 0, 86, 64
2, 144000, Note_on_c, 0, 88, 72
2, 144000, Note_on_c, 0, 76, 72
2, 144120, Note_off_c, 0, 76, 64
2, 144120, Note_off_c, 0, 88, 64
2, 144720, Note_on_c, 0, 76, 72
2, 144720, Note_on_c, 0, 88, 72
2, 145080, Note_off_c, 0, 88, 64
2, 145080, Note_off_c, 0, 76, 64
2, 145680, Note_on_c, 0, 88, 72
2, 145680, Note_on_c, 0, 76, 72
2, 146040, Note_off_c, 0, 76, 64
2, 146040, Note_off_c, 0, 88, 64
2, 146640, Note_on_c, 0, 76, 72
2, 146640, Note_on_c, 0, 88, 72
2, 147000, Note_off_c, 0, 88, 64
2, 147000, Note_off_c, 0, 76, 64
2, 147600, Note_on_c, 0, 88, 72
2, 147600, Note_on_c, 0, 76, 72
2, 147960, Note_off_c, 0, 76, 64
2, 147960, Note_off_c, 0, 88, 64
2, 148560, Note_on_c, 0, 76, 72
2, 148560, Note_on_c, 0, 88, 72
2, 148920, Note_off_c, 0, 88, 64
2, 148920, Note_off_c, 0, 76, 64
2, 149520, Note_on_c, 0, 76, 72
2, 149520, Note_on_c, 0, 88, 72
2, 149880, Note_off_c, 0, 88, 64
2, 149880, Note_off_c, 0, 76, 64
2, 150480, Note_on_c, 0, 76, 72
2, 150480, Note_on_c, 0, 88, 72
2, 150720, Note_off_c, 0, 88, 64
2, 150720, Note_off_c, 0, 76, 64
2, 150720, Note_on_c, 0, 81, 72
2, 150720, Note_on_c, 0, 76, 72
2, 150840, Note_off_c, 0, 76, 64
2, 150840, Note_off_c, 0, 81, 64
2, 150960, Note_on_c, 0, 81, 72
2, 150960, Note_on_c, 0, 93, 72
2, 151020, Note_off_c, 0, 93, 64
2, 151020, Note_off_c, 0, 81, 64
2, 151080, Note_on_c, 0, 81, 72
2, 151080, Note_on_c, 0, 93, 72
2, 151140, Note_off_c, 0, 93, 64
2, 151140, Note_off_c, 0, 81, 64
2, 151200, Note_on_c, 0, 93, 72
2, 151200, Note_on_c, 0, 81, 72
2, 151320, Note_off_c, 0, 81, 64
2, 151320, Note_off_c, 0, 93, 64
2, 151680, Note_on_c, 0, 88, 72
2, 151680, Note_on_c, 0, 76, 72
2, 151800, Note_off_c, 0, 76, 64
2, 151800, Note_off_c, 0, 88, 64
2, 152400, Note_on_c, 0, 76, 72
2, 152400, Note_on_c, 0, 88, 72
2, 152760, Note_off_c, 0, 88, 64
2, 152760, Note_off_c, 0, 76, 64
2, 153360, Note_on_c, 0, 88, 72
2, 153360, Note_on_c, 0, 76, 72
2, 153720, Note_off_c, 0, 76, 64
2, 153720, Note_off_c, 0, 88, 64
2, 154320, Note_on_c, 0, 76, 72
2, 154320, Note_on_c, 0, 88, 72
2, 154680, Note_off_c, 0, 88, 64
2, 154680, Note_off_c, 0, 76, 64
2, 155280, Note_on_c, 0, 88, 72
2, 155280, Note_on_c, 0, 76, 72
2, 155640, Note_off_c, 0, 76, 64
2, 155640, Note_off_c, 0, 88, 64
2, 156240, Note_on_c, 0, 76, 72
2, 156240, Note_on_c, 0, 88, 72
2, 156600, Note_off_c, 0, 88, 64
2, 156600, Note_off_c, 0, 76, 64
2, 157200, Note_on_c, 0, 76, 72
2, 157200, Note_on_c, 0, 88, 72
2, 157560, Note_off_c, 0, 88, 64
2, 157560, Note_off_c, 0, 76, 64
2, 158160, Note_on_c, 0, 76, 72
2, 158160, Note_on_c, 0, 88, 72
2, 158400, Note_off_c, 0, 88, 64
2, 158400, Note_off_c, 0, 76, 64
2, 158400, Note_on_c, 0, 81, 72
2, 158400, Note_on_c, 0, 76, 72
2, 158520, Note_off_c, 0, 76, 64
2, 158520, Note_off_c, 0, 81, 64
2, 158640, Note_on_c, 0, 93, 72
2, 158640, Note_on_c, 0, 81, 72
2, 158700, Note_off_c, 0, 81, 64
2, 158700, Note_off_c, 0, 93, 64
2, 158760, Note_on_c, 0, 93, 72
2, 158760, Note_on_c, 0, 81, 72
2, 158820, Note_off_c, 0, 81, 64
2, 158820, Note_off_c, 0, 93, 64
2, 158880, Note_on_c, 0, 93, 72
2, 158880, Note_on_c, 0, 81, 72
2, 159000, Note_off_c, 0, 81, 64
2, 159000, Note_off_c, 0, 93, 64
2, 159360, Note_on_c, 0, 81, 81
2, 159360, Note_on_c, 0, 90, 81
2, 159480, Note_off_c, 0, 90, 64
2, 159480, Note_off_c, 0, 81, 64
2, 160080, Note_on_c, 0, 90, 97
2, 160080, Note_on_c, 0, 81, 97
2, 160320, Note_off_c, 0, 90, 64
2, 160320, Note_on_c, 0, 88, 97
2, 160440, Note_off_c, 0, 81, 64
2, 160440, Note_off_c, 0, 88, 64
2, 161040, Note_on_c, 0, 81, 97
2, 161040, Note_on_c, 0, 88, 97
2, 161280, Note_off_c, 0, 88, 64
2, 161280, Note_on_c, 0, 90, 97
2, 161400, Note_off_c, 0, 81, 64
2, 161400, Note_off_c, 0, 90, 64
2, 162000, Note_on_c, 0, 90, 97
2, 162000, Note_on_c, 0, 81, 97
2, 162360, Note_off_c, 0, 81, 64
2, 162360, Note_off_c, 0, 90, 64
2, 162480, Note_on_c, 0, 89, 127
2, 162672, Note_off_c, 0, 89, 64
2, 162960, Note_on_c, 0, 88, 97
2, 162960, Note_on_c, 0, 85, 97
2, 163200, Note_off_c, 0, 85, 64
2, 163200, Note_off_c, 0, 88, 64
2, 163200, Note_on_c, 0, 81, 65
2, 163200, Note_on_c, 0, 87, 65
2, 163320, Note_off_c, 0, 87, 64
2, 163320, Note_off_c, 0, 81, 64
2, 163920, Note_on_c, 0, 86, 65
2, 163920, Note_on_c, 0, 83, 65
2, 164160, Note_off_c, 0, 83, 64
2, 164160, Note_off_c, 0, 86, 64
2, 164160, Note_on_c, 0, 88, 65
2, 164160, Note_on_c, 0, 85, 65
2, 164280, Note_off_c, 0, 85, 64
2, 164280, Note_off_c, 0, 88, 64
2, 164880, Note_on_c, 0, 85, 65
2, 164880, Note_on_c, 0, 88, 65
2, 165120, Note_off_c, 0, 85, 64
2, 165120, Note_on_c, 0, 83, 65
2, 165240, Note_off_c, 0, 88, 64
2, 165240, Note_off_c, 0, 83, 64
2, 165840, Note_on_c, 0, 88, 65
2, 165840, Note_on_c, 0, 83, 65
2, 166080, Note_off_c, 0, 83, 64
2, 166080, Note_off_c, 0, 88, 64
2, 166080, Note_on_c, 0, 81, 72
2, 166200, Note_off_c, 0, 81, 64
2, 166320, Note_on_c, 0, 81, 72
2, 166320, Note_on_c, 0, 93, 72
2, 166380, Note_off_c, 0, 93, 64
2, 166380, Note_off_c, 0, 81, 64
2, 166440, Note_on_c, 0, 93, 72
2, 166440, Note_on_c, 0, 81, 72
2, 166500, Note_off_c, 0, 81, 64
2, 166500, Note_off_c, 0, 93, 64
2, 166560, Note_on_c, 0, 81, 72
2, 166560, Note_on_c, 0, 93, 72
2, 166680, Note_off_c, 0, 93, 64
2, 166680, Note_off_c, 0, 81, 64
2, 167040, Note_on_c, 0, 81, 81
2, 167040, Note_on_c, 0, 90, 81
2, 167160, Note_off_c, 0, 90, 64
2, 167160, Note_off_c, 0, 81, 64
2, 167760, Note_on_c, 0, 90, 97
2, 167760, Note_on_c, 0, 81, 97
2, 168000, Note_off_c, 0, 90, 64
2, 168000, Note_on_c, 0, 88, 97
2, 168120, Note_off_c, 0, 81, 64
2, 168120, Note_off_c, 0, 88, 64
2, 168720, Note_on_c, 0, 81, 97
2, 168720, Note_on_c, 0, 88, 97
2, 168960, Note_off_c, 0, 88, 64
2, 168960, Note_on_c, 0, 90, 97
2, 169080, Note_off_c, 0, 81, 64
2, 169080, Note_off_c, 0, 90, 64
2, 169680, Note_on_c, 0, 90, 97
2, 169680, Note_on_c, 0, 81, 97
2, 170040, Note_off_c, 0, 81, 64
2, 170040, Note_off_c, 0, 90, 64
2, 170160, Note_on_c, 0, 89, 127
2, 170352, Note_off_c, 0, 89, 64
2, 170640, Note_on_c, 0, 88, 97
2, 170640, Note_on_c, 0, 85, 97
2, 170880, Note_off_c, 0, 85, 64
2, 170880, Note_off_c, 0, 88, 64
2, 170880, Note_on_c, 0, 81, 65
2, 170880, Note_on_c, 0, 87, 65
2, 171000, Note_off_c, 0, 87, 64
2, 171000, Note_off_c, 0, 81, 64
2, 171600, Note_on_c, 0, 86, 65
2, 171600, Note_on_c, 0, 83, 65
2, 171840, Note_off_c, 0, 83, 64
2, 171840, Note_off_c, 0, 86, 64
2, 171840, Note_on_c, 0, 88, 65
2, 171840, Note_on_c, 0, 85, 65
2, 171960, Note_off_c, 0, 85, 64
2, 171960, Note_off_c, 0, 88, 64
2, 172560, Note_on_c, 0, 85, 65
2, 172560, Note_on_c, 0, 88, 65
2, 172800, Note_off_c, 0, 85, 64
2, 172800, Note_on_c, 0, 83, 65
2, 172920, Note_off_c, 0, 88, 64
2, 172920, Note_off_c, 0, 83, 64
2, 173520, Note_on_c, 0, 88, 65
2, 173520, Note_on_c, 0, 83, 65
2, 173760, Note_off_c, 0, 83, 64
2, 173760, Note_off_c, 0, 88, 64
2, 173760, Note_on_c, 0, 81, 72
2, 173760, Note_on_c, 0, 76, 72
2, 173880, Note_off_c, 0, 76, 64
2, 173880, Note_off_c, 0, 81, 64
2, 174060, Note_on_c, 0, 81, 72
2, 174120, Note_off_c, 0, 81, 64
2, 174180, Note_on_c, 0, 81, 72
2, 174240, Note_off_c, 0, 81, 64
2, 174300, Note_on_c, 0, 81, 72
2, 174420, Note_off_c, 0, 81, 64
2, 175140, Note_on_c, 0, 81, 72
2, 175254, Note_off_c, 0, 81, 64
2, 175260, Note_on_c, 0, 81, 72
2, 175374, Note_off_c, 0, 81, 64
2, 175380, Note_on_c, 0, 81, 72
2, 175494, Note_off_c, 0, 81, 64
2, 176220, Note_on_c, 0, 88, 72
2, 176280, Note_off_c, 0, 88, 64
2, 176340, Note_on_c, 0, 88, 72
2, 176400, Note_off_c, 0, 88, 64
2, 176460, Note_on_c, 0, 88, 72
2, 176580, Note_off_c, 0, 88, 64
2, 177300, Note_on_c, 0, 88, 72
2, 177360, Note_off_c, 0, 88, 64
2, 177420, Note_on_c, 0, 88, 72
2, 177480, Note_off_c, 0, 88, 64
2, 177540, Note_on_c, 0, 88, 72
2, 177660, Note_off_c, 0, 88, 64
2, 178080, Note_on_c, 0, 85, 54
2, 178080, Note_on_c, 0, 76, 54
2, 178656, Note_off_c, 0, 76, 64
2, 178656, Note_off_c, 0, 85, 64
2, 178800, Note_on_c, 0, 74, 54
2, 178800, Note_on_c, 0, 83, 54
2, 178920, Note_off_c, 0, 83, 64
2, 178920, Note_off_c, 0, 74, 64
2, 179040, Note_on_c, 0, 73, 54
2, 179040, Note_on_c, 0, 81, 54
2, 179160, Note_off_c, 0, 81, 64
2, 179160, Note_off_c, 0, 73, 64
2, 179280, Note_on_c, 0, 76, 54
2, 179280, Note_on_c, 0, 85, 54
2, 179400, Note_off_c, 0, 85, 64
2, 179400, Note_off_c, 0, 76, 64
2, 179520, Note_on_c, 0, 83, 54
2, 179520, Note_on_c, 0, 74, 54
2, 179640, Note_off_c, 0, 74, 64
2, 179640, Note_off_c, 0, 83, 64
2, 179760, Note_on_c, 0, 81, 54
2, 179760, Note_on_c, 0, 73, 54
2, 179880, Note_off_c, 0, 73, 64
2, 179880, Note_off_c, 0, 81, 64
2, 180000, Note_on_c, 0, 74, 54
2, 180000, Note_on_c, 0, 83, 54
2, 180120, Note_off_c, 0, 83, 64
2, 180120, Note_off_c, 0, 74, 64
2, 180240, Note_on_c, 0, 85, 72
2, 180240, Note_on_c, 0, 93, 72
2, 180360, Note_off_c, 0, 93, 64
2, 180360, Note_off_c, 0, 85, 64
2, 180480, Note_on_c, 0, 88, 72
2, 180480, Note_on_c, 0, 92, 72
2, 180600, Note_off_c, 0, 92, 64
2, 180600, Note_off_c, 0, 88, 64
2, 180720, Note_on_c, 0, 90, 72
2, 180720, Note_on_c, 0, 86, 72
2, 180840, Note_off_c, 0, 86, 64
2, 180840, Note_off_c, 0, 90, 64
2, 180960, Note_on_c, 0, 85, 72
2, 180960, Note_on_c, 0, 88, 72
2, 181080, Note_off_c, 0, 88, 64
2, 181080, Note_off_c, 0, 85, 64
2, 181200, Note_on_c, 0, 83, 72
2, 181200, Note_on_c, 0, 86, 72
2, 181320, Note_off_c, 0, 86, 64
2, 181320, Note_off_c, 0, 83, 64
2, 181440, Note_on_c, 0, 81, 72
2, 181440, Note_on_c, 0, 85, 72
2, 181560, Note_off_c, 0, 85, 64
2, 181560, Note_off_c, 0, 81, 64
2, 181680, Note_on_c, 0, 83, 72
2, 181680, Note_on_c, 0, 80, 72
2, 181800, Note_off_c, 0, 80, 64
2, 181800, Note_off_c, 0, 83, 64
2, 181920, Note_on_c, 0, 76, 72
2, 181920, Note_on_c, 0, 81, 72
2, 182040, Note_off_c, 0, 81, 64
2, 182040, Note_off_c, 0, 76, 64
2, 182220, Note_on_c, 0, 81, 72
2, 182280, Note_off_c, 0, 81, 64
2, 182340, Note_on_c, 0, 81, 72
2, 182400, Note_off_c, 0, 81, 64
2, 182460, Note_on_c, 0, 81, 72
2, 182580, Note_off_c, 0, 81, 64
2, 183300, Note_on_c, 0, 81, 72
2, 183360, Note_off_c, 0, 81, 64
2, 183360, Note_on_c, 0, 81, 72
2, 183420, Note_off_c, 0, 81, 64
2, 183480, Note_on_c, 0, 81, 72
2, 183600, Note_off_c, 0, 81, 64
2, 184380, Note_on_c, 0, 88, 72
2, 184440, Note_off_c, 0, 88, 64
2, 184500, Note_on_c, 0, 88, 72
2, 184560, Note_off_c, 0, 88, 64
2, 184620, Note_on_c, 0, 88, 72
2, 184740, Note_off_c, 0, 88, 64
2, 185460, Note_on_c, 0, 88, 72
2, 185574, Note_off_c, 0, 88, 64
2, 185580, Note_on_c, 0, 88, 72
2, 185694, Note_off_c, 0, 88, 64
2, 185700, Note_on_c, 0, 88, 72
2, 185814, Note_off_c, 0, 88, 64
2, 186240, Note_on_c, 0, 88, 80
2, 186432, Note_off_c, 0, 88, 64
2, 186720, Note_on_c, 0, 88, 80
2, 186912, Note_off_c, 0, 88, 64
2, 187200, Note_on_c, 0, 88, 80
2, 187392, Note_off_c, 0, 88, 64
2, 187680, Note_on_c, 0, 88, 80
2, 187872, Note_off_c, 0, 88, 64
2, 188160, Note_on_c, 0, 88, 64
2, 188352, Note_off_c, 0, 88, 64
2, 188640, Note_on_c, 0, 88, 61
2, 188832, Note_off_c, 0, 88, 64
2, 189120, Note_on_c, 0, 88, 57
2, 189312, Note_off_c, 0, 88, 64
2, 189600, Note_on_c, 0, 88, 53
2, 189792, Note_off_c, 0, 88, 64
2, 190080, Note_on_c, 0, 88, 60
2, 190272, Note_off_c, 0, 88, 64
2, 191040, Note_on_c, 0, 76, 58
2, 191040, Note_on_c, 0, 88, 58
2, 194146, Note_off_c, 0, 88, 64
2, 194146, Note_off_c, 0, 76, 64
2, 194880, Note_on_c, 0, 76, 58
2, 194880, Note_on_c, 0, 88, 58
2, 197280, Note_off_c, 0, 88, 64
2, 197280, Note_off_c, 0, 76, 64
2, 197280, Note_on_c, 0, 77, 58
2, 197280, Note_on_c, 0, 89, 58
2, 197760, Note_off_c, 0, 89, 64
2, 197760, Note_off_c, 0, 77, 64
2, 197760, Note_on_c, 0, 90, 58
2, 197760, Note_on_c, 0, 78, 58
2, 198000, Note_off_c, 0, 78, 64
2, 198000, Note_off_c, 0, 90, 64
2, 204960, Note_on_c, 0, 89, 77
2, 204960, Note_on_c, 0, 85, 77
2, 205440, Note_off_c, 0, 89, 64
2, 205440, Note_on_c, 0, 90, 58
2, 205680, Note_off_c, 0, 85, 64
2, 205680, Note_off_c, 0, 90, 64
2, 205920, Note_on_c, 0, 85, 80
2, 206064, Note_off_c, 0, 85, 64
2, 206400, Note_on_c, 0, 85, 80
2, 206544, Note_off_c, 0, 85, 64
2, 206880, Note_on_c, 0, 85, 80
2, 207024, Note_off_c, 0, 85, 64
2, 207360, Note_on_c, 0, 85, 80
2, 207504, Note_off_c, 0, 85, 64
2, 207840, Note_on_c, 0, 85, 80
2, 207984, Note_off_c, 0, 85, 64
2, 208320, Note_on_c, 0, 85, 80
2, 208464, Note_off_c, 0, 85, 64
2, 208800, Note_on_c, 0, 85, 80
2, 208944, Note_off_c, 0, 85, 64
2, 209280, Note_on_c, 0, 85, 80
2, 209424, Note_off_c, 0, 85, 64
2, 209760, Note_on_c, 0, 85, 80
2, 209904, Note_off_c, 0, 85, 64
2, 210240, Note_on_c, 0, 85, 80
2, 210384, Note_off_c, 0, 85, 64
2, 210720, Note_on_c, 0, 85, 80
2, 210864, Note_off_c, 0, 85, 64
2, 211200, Note_on_c, 0, 87, 80
2, 211344, Note_off_c, 0, 87, 64
2, 211680, Note_on_c, 0, 87, 80
2, 211824, Note_off_c, 0, 87, 64
2, 212160, Note_on_c, 0, 88, 80
2, 212304, Note_off_c, 0, 88, 64
2, 212640, Note_on_c, 0, 88, 80
2, 212784, Note_off_c, 0, 88, 64
2, 213120, Note_on_c, 0, 90, 80
2, 213120, Note_on_c, 0, 87, 80
2, 213264, Note_off_c, 0, 87, 64
2, 213264, Note_off_c, 0, 90, 64
2, 213600, Note_on_c, 0, 90, 80
2, 213600, Note_on_c, 0, 87, 80
2, 213744, Note_off_c, 0, 87, 64
2, 213744, Note_off_c, 0, 90, 64
2, 214080, Note_on_c, 0, 90, 80
2, 214080, Note_on_c, 0, 87, 80
2, 214224, Note_off_c, 0, 87, 64
2, 214224, Note_off_c, 0, 90, 64
2, 214560, Note_on_c, 0, 90, 80
2, 214560, Note_on_c, 0, 87, 80
2, 214704, Note_off_c, 0, 87, 64
2, 214704, Note_off_c, 0, 90, 64
2, 215040, Note_on_c, 0, 90, 80
2, 215040, Note_on_c, 0, 87, 80
2, 215184, Note_off_c, 0, 87, 64
2, 215184, Note_off_c, 0, 90, 64
2, 215520, Note_on_c, 0, 90, 80
2, 215520, Note_on_c, 0, 87, 80
2, 215664, Note_off_c, 0, 87, 64
2, 215664, Note_off_c, 0, 90, 64
2, 216000, Note_on_c, 0, 75, 56
2, 216000, Note_on_c, 0, 78, 56
2, 216144, Note_off_c, 0, 78, 64
2, 216144, Note_off_c, 0, 75, 64
2, 216480, Note_on_c, 0, 68, 48
2, 216624, Note_off_c, 0, 68, 64
2, 216960, Note_on_c, 0, 56, 48
2, 217104, Note_off_c, 0, 56, 64
2, 219360, Note_on_c, 0, 87, 80
2, 219360, Note_on_c, 0, 90, 80
2, 219504, Note_off_c, 0, 90, 64
2, 219504, Note_off_c, 0, 87, 64
2, 219840, Note_on_c, 0, 78, 56
2, 219840, Note_on_c, 0, 75, 56
2, 219984, Note_off_c, 0, 75, 64
2, 219984, Note_off_c, 0, 78, 64
2, 220320, Note_on_c, 0, 68, 64
2, 220464, Note_off_c, 0, 68, 64
2, 220800, Note_on_c, 0, 56, 64
2, 220944, Note_off_c, 0, 56, 64
2, 222240, Note_on_c, 0, 68, 64
2, 222384, Note_off_c, 0, 68, 64
2, 222720, Note_on_c, 0, 56, 64
2, 222864, Note_off_c, 0, 56, 64
2, 224160, Note_on_c, 0, 68, 64
2, 224304, Note_off_c, 0, 68, 64
2, 224640, Note_on_c, 0, 56, 64
2, 224784, Note_off_c, 0, 56, 64
2, 227040, Note_on_c, 0, 80, 80
2, 227040, Note_on_c, 0, 88, 80
2, 227424, Note_off_c, 0, 88, 64
2, 227424, Note_off_c, 0, 80, 64
2, 228000, Note_on_c, 0, 78, 80
2, 228000, Note_on_c, 0, 87, 80
2, 228384, Note_off_c, 0, 87, 64
2, 228384, Note_off_c, 0, 78, 64
2, 228960, Note_on_c, 0, 76, 80
2, 228960, Note_on_c, 0, 85, 80
2, 229344, Note_off_c, 0, 85, 64
2, 229344, Note_off_c, 0, 76, 64
2, 229920, Note_on_c, 0, 78, 80
2, 229920, Note_on_c, 0, 87, 80
2, 230304, Note_off_c, 0, 87, 64
2, 230304, Note_off_c, 0, 78, 64
2, 230400, Note_on_c, 0, 88, 64
2, 231586, Note_off_c, 0, 88, 64
2, 231720, Note_on_c, 0, 90, 64
2, 231840, Note_off_c, 0, 90, 64
2, 231840, Note_on_c, 0, 91, 64
2, 231936, Note_off_c, 0, 91, 64
2, 232200, Note_on_c, 0, 88, 64
2, 232314, Note_off_c, 0, 88, 64
2, 232320, Note_on_c, 0, 90, 64
2, 232416, Note_off_c, 0, 90, 64
2, 232680, Note_on_c, 0, 88, 64
2, 232794, Note_off_c, 0, 88, 64
2, 232800, Note_on_c, 0, 86, 64
2, 232896, Note_off_c, 0, 86, 64
2, 233160, Note_on_c, 0, 90, 64
2, 233274, Note_off_c, 0, 90, 64
2, 233280, Note_on_c, 0, 88, 64
2, 233376, Note_off_c, 0, 88, 64
2, 233640, Note_on_c, 0, 90, 64
2, 233754, Note_off_c, 0, 90, 64
2, 233760, Note_on_c, 0, 91, 64
2, 233856, Note_off_c, 0, 91, 64
2, 234120, Note_on_c, 0, 88, 64
2, 234234, Note_off_c, 0, 88, 64
2, 234240, Note_on_c, 0, 90, 64
2, 234336, Note_off_c, 0, 90, 64
2, 234600, Note_on_c, 0, 88, 64
2, 234714, Note_off_c, 0, 88, 64
2, 234720, Note_on_c, 0, 86, 64
2, 234816, Note_off_c, 0, 86, 64
2, 235080, Note_on_c, 0, 90, 64
2, 235194, Note_off_c, 0, 90, 64
2, 236640, Note_on_c, 0, 80, 80
2, 236640, Note_on_c, 0, 88, 80
2, 237024, Note_off_c, 0, 88, 64
2, 237024, Note_off_c, 0, 80, 64
2, 237600, Note_on_c, 0, 78, 80
2, 237600, Note_on_c, 0, 87, 80
2, 237984, Note_off_c, 0, 87, 64
2, 237984, Note_off_c, 0, 78, 64
2, 238560, Note_on_c, 0, 76, 80
2, 238560, Note_on_c, 0, 85, 80
2, 238944, Note_off_c, 0, 85, 64
2, 238944, Note_off_c, 0, 76, 64
2, 239520, Note_on_c, 0, 78, 80
2, 239520, Note_on_c, 0, 87, 80
2, 239904, Note_off_c, 0, 87, 64
2, 239904, Note_off_c, 0, 78, 64
2, 240000, Note_on_c, 0, 88, 64
2, 241186, Note_off_c, 0, 88, 64
2, 241320, Note_on_c, 0, 90, 64
2, 241440, Note_off_c, 0, 90, 64
2, 241440, Note_on_c, 0, 91, 64
2, 241536, Note_off_c, 0, 91, 64
2, 241800, Note_on_c, 0, 88, 64
2, 241914, Note_off_c, 0, 88, 64
2, 241920, Note_on_c, 0, 90, 64
2, 242016, Note_off_c, 0, 90, 64
2, 242280, Note_on_c, 0, 88, 64
2, 242394, Note_off_c, 0, 88, 64
2, 242400, Note_on_c, 0, 86, 64
2, 242496, Note_off_c, 0, 86, 64
2, 242760, Note_on_c, 0, 90, 64
2, 242874, Note_off_c, 0, 90, 64
2, 242880, Note_on_c, 0, 88, 64
2, 242976, Note_off_c, 0, 88, 64
2, 243240, Note_on_c, 0, 90, 64
2, 243354, Note_off_c, 0, 90, 64
2, 243360, Note_on_c, 0, 91, 64
2, 243456, Note_off_c, 0, 91, 64
2, 243720, Note_on_c, 0, 90, 64
2, 243834, Note_off_c, 0, 90, 64
2, 243840, Note_on_c, 0, 91, 64
2, 243840, Note_on_c, 0, 88, 64
2, 243936, Note_off_c, 0, 88, 64
2, 243936, Note_off_c, 0, 91, 64
2, 244320, Note_on_c, 0, 88, 48
2, 244320, Note_on_c, 0, 91, 48
2, 248640, Note_off_c, 0, 91, 64
2, 248640, Note_off_c, 0, 88, 64
2, 248640, Note_on_c, 0, 90, 53
2, 248640, Note_on_c, 0, 86, 53
2, 249600, Note_off_c, 0, 86, 64
2, 249600, Note_off_c, 0, 90, 64
2, 249600, Note_on_c, 0, 88, 64
2, 249600, Note_on_c, 0, 91, 64
2, 254400, Note_off_c, 0, 91, 64
2, 254400, Note_off_c, 0, 88, 64
2, 254400, Note_on_c, 0, 90, 85
2, 254400, Note_on_c, 0, 86, 85
2, 255264, Note_off_c, 0, 86, 64
2, 255264, Note_off_c, 0, 90, 64
2, 255360, Note_on_c, 0, 87, 99
2, 255360, Note_on_c, 0, 90, 99
2, 255480, Note_off_c, 0, 90, 64
2, 255480, Note_off_c, 0, 87, 64
2, 255600, Note_on_c, 0, 90, 99
2, 255600, Note_on_c, 0, 87, 99
2, 255720, Note_off_c, 0, 87, 64
2, 255720, Note_off_c, 0, 90, 64
2, 255840, Note_on_c, 0, 87, 99
2, 255840, Note_on_c, 0, 90, 99
2, 255960, Note_off_c, 0, 90, 64
2, 255960, Note_off_c, 0, 87, 64
2, 256080, Note_on_c, 0, 87, 99
2, 256080, Note_on_c, 0, 90, 99
2, 256200, Note_off_c, 0, 90, 64
2, 256200, Note_off_c, 0, 87, 64
2, 256320, Note_on_c, 0, 87, 99
2, 256320, Note_on_c, 0, 90, 99
2, 256440, Note_off_c, 0, 90, 64
2, 256440, Note_off_c, 0, 87, 64
2, 256560, Note_on_c, 0, 90, 99
2, 256560, Note_on_c, 0, 87, 99
2, 256680, Note_off_c, 0, 87, 64
2, 256680, Note_off_c, 0, 90, 64
2, 256800, Note_on_c, 0, 87, 99
2, 256800, Note_on_c, 0, 90, 99
2, 256920, Note_off_c, 0, 90, 64
2, 256920, Note_off_c, 0, 87, 64
2, 257040, Note_on_c, 0, 90, 99
2, 257040, Note_on_c, 0, 87, 99
2, 257160, Note_off_c, 0, 87, 64
2, 257160, Note_off_c, 0, 90, 64
2, 257280, Note_on_c, 0, 85, 127
2, 257280, Note_on_c, 0, 88, 127
2, 257400, Note_off_c, 0, 88, 64
2, 257400, Note_off_c, 0, 85, 64
2, 257520, Note_on_c, 0, 88, 99
2, 257520, Note_on_c, 0, 85, 99
2, 257640, Note_off_c, 0, 85, 64
2, 257640, Note_off_c, 0, 88, 64
2, 257760, Note_on_c, 0, 88, 99
2, 257760, Note_on_c, 0, 85, 99
2, 257880, Note_off_c, 0, 85, 64
2, 257880, Note_off_c, 0, 88, 64
2, 258000, Note_on_c, 0, 88, 99
2, 258000, Note_on_c, 0, 85, 99
2, 258120, Note_off_c, 0, 85, 64
2, 258120, Note_off_c, 0, 88, 64
2, 258240, Note_on_c, 0, 87, 127
2, 258240, Note_on_c, 0, 90, 127
2, 258360, Note_off_c, 0, 90, 64
2, 258360, Note_off_c, 0, 87, 64
2, 258480, Note_on_c, 0, 87, 99
2, 258480, Note_on_c, 0, 90, 99
2, 258600, Note_off_c, 0, 90, 64
2, 258600, Note_off_c, 0, 87, 64
2, 258720, Note_on_c, 0, 87, 99
2, 258720, Note_on_c, 0, 90, 99
2, 258840, Note_off_c, 0, 90, 64
2, 258840, Note_off_c, 0, 87, 64
2, 258960, Note_on_c, 0, 87, 99
2, 258960, Note_on_c, 0, 90, 99
2, 259080, Note_off_c, 0, 90, 64
2, 259080, Note_off_c, 0, 87, 64
2, 259200, Note_on_c, 0, 85, 127
2, 259200, Note_on_c, 0, 88, 127
2, 259320, Note_off_c, 0, 88, 64
2, 259320, Note_off_c, 0, 85, 64
2, 259440, Note_on_c, 0, 85, 99
2, 259440, Note_on_c, 0, 88, 99
2, 259560, Note_off_c, 0, 88, 64
2, 259560, Note_off_c, 0, 85, 64
2, 259680, Note_on_c, 0, 88, 99
2, 259680, Note_on_c, 0, 85, 99
2, 259800, Note_off_c, 0, 85, 64
2, 259800, Note_off_c, 0, 88, 64
2, 259920, Note_on_c, 0, 88, 99
2, 259920, Note_on_c, 0, 85, 99
2, 260040, Note_off_c, 0, 85, 64
2, 260040, Note_off_c, 0, 88, 64
2, 260160, Note_on_c, 0, 87, 127
2, 260160, Note_on_c, 0, 90, 127
2, 260280, Note_off_c, 0, 90, 64
2, 260280, Note_off_c, 0, 87, 64
2, 260400, Note_on_c, 0, 87, 99
2, 260400, Note_on_c, 0, 90, 99
2, 260520, Note_off_c, 0, 90, 64
2, 260520, Note_off_c, 0, 87, 64
2, 260640, Note_on_c, 0, 87, 99
2, 260640, Note_on_c, 0, 90, 99
2, 260760, Note_off_c, 0, 90, 64
2, 260760, Note_off_c, 0, 87, 64
2, 260880, Note_on_c, 0, 87, 99
2, 260880, Note_on_c, 0, 90, 99
2, 261000, Note_off_c, 0, 90, 64
2, 261000, Note_off_c, 0, 87, 64
2, 261120, Note_on_c, 0, 85, 127
2, 261120, Note_on_c, 0, 88, 127
2, 261240, Note_off_c, 0, 88, 64
2, 261240, Note_off_c, 0, 85, 64
2, 261360, Note_on_c, 0, 85, 99
2, 261360, Note_on_c, 0, 88, 99
2, 261480, Note_off_c, 0, 88, 64
2, 261480, Note_off_c, 0, 85, 64
2, 261600, Note_on_c, 0, 88, 99
2, 261600, Note_on_c, 0, 85, 99
2, 261720, Note_off_c, 0, 85, 64
2, 261720, Note_off_c, 0, 88, 64
2, 261840, Note_on_c, 0, 88, 99
2, 261840, Note_on_c, 0, 85, 99
2, 261960, Note_off_c, 0, 85, 64
2, 261960, Note_off_c, 0, 88, 64
2, 262080, Note_on_c, 0, 85, 127
2, 262080, Note_on_c, 0, 90, 127
2, 262200, Note_off_c, 0, 90, 64
2, 262200, Note_off_c, 0, 85, 64
2, 262320, Note_on_c, 0, 90, 99
2, 262320, Note_on_c, 0, 85, 99
2, 262440, Note_off_c, 0, 85, 64
2, 262440, Note_off_c, 0, 90, 64
2, 262560, Note_on_c, 0, 85, 99
2, 262560, Note_on_c, 0, 90, 99
2, 262680, Note_off_c, 0, 90, 64
2, 262680, Note_off_c, 0, 85, 64
2, 262800, Note_on_c, 0, 85, 99
2, 262800, Note_on_c, 0, 90, 99
2, 262920, Note_off_c, 0, 90, 64
2, 262920, Note_off_c, 0, 85, 64
2, 263040, Note_on_c, 0, 85, 127
2, 263040, Note_on_c, 0, 88, 127
2, 263160, Note_off_c, 0, 88, 64
2, 263160, Note_off_c, 0, 85, 64
2, 263280, Note_on_c, 0, 85, 99
2, 263280, Note_on_c, 0, 88, 99
2, 263400, Note_off_c, 0, 88, 64
2, 263400, Note_off_c, 0, 85, 64
2, 263520, Note_on_c, 0, 88, 99
2, 263520, Note_on_c, 0, 85, 99
2, 263640, Note_off_c, 0, 85, 64
2, 263640, Note_off_c, 0, 88, 64
2, 263760, Note_on_c, 0, 88, 99
2, 263760, Note_on_c, 0, 85, 99
2, 263880, Note_off_c, 0, 85, 64
2, 263880, Note_off_c, 0, 88, 64
2, 264000, Note_on_c, 0, 84, 127
2, 264000, Note_on_c, 0, 87, 127
2, 264120, Note_off_c, 0, 87, 64
2, 264120, Note_off_c, 0, 84, 64
2, 264240, Note_on_c, 0, 84, 99
2, 264240, Note_on_c, 0, 87, 99
2, 264360, Note_off_c, 0, 87, 64
2, 264360, Note_off_c, 0, 84, 64
2, 264480, Note_on_c, 0, 84, 99
2, 264480, Note_on_c, 0, 87, 99
2, 264600, Note_off_c, 0, 87, 64
2, 264600, Note_off_c, 0, 84, 64
2, 264720, Note_on_c, 0, 84, 99
2, 264720, Note_on_c, 0, 87, 99
2, 264840, Note_off_c, 0, 87, 64
2, 264840, Note_off_c, 0, 84, 64
2, 264960, Note_on_c, 0, 85, 99
2, 264960, Note_on_c, 0, 88, 99
2, 265080, Note_off_c, 0, 88, 64
2, 265080, Note_off_c, 0, 85, 64
2, 265200, Note_on_c, 0, 85, 99
2, 265200, Note_on_c, 0, 88, 99
2, 265320, Note_off_c, 0, 88, 64
2, 265320, Note_off_c, 0, 85, 64
2, 265440, Note_on_c, 0, 84, 127
2, 265440, Note_on_c, 0, 87, 127
2, 265560, Note_off_c, 0, 87, 64
2, 265560, Note_off_c, 0, 84, 64
2, 265680, Note_on_c, 0, 87, 99
2, 265680, Note_on_c, 0, 84, 99
2, 265800, Note_off_c, 0, 84, 64
2, 265800, Note_off_c, 0, 87, 64
2, 265920, Note_on_c, 0, 87, 99
2, 265920, Note_on_c, 0, 84, 99
2, 266040, Note_off_c, 0, 84, 64
2, 266040, Note_off_c, 0, 87, 64
2, 266160, Note_on_c, 0, 87, 99
2, 266160, Note_on_c, 0, 84, 99
2, 266280, Note_off_c, 0, 84, 64
2, 266280, Note_off_c, 0, 87, 64
2, 266400, Note_on_c, 0, 87, 99
2, 266400, Note_on_c, 0, 84, 99
2, 266520, Note_off_c, 0, 84, 64
2, 266520, Note_off_c, 0, 87, 64
2, 266640, Note_on_c, 0, 84, 99
2, 266640, Note_on_c, 0, 87, 99
2, 266760, Note_off_c, 0, 87, 64
2, 266760, Note_off_c, 0, 84, 64
2, 266880, Note_on_c, 0, 88, 99
2, 266880, Note_on_c, 0, 85, 99
2, 267000, Note_off_c, 0, 85, 64
2, 267000, Note_off_c, 0, 88, 64
2, 267120, Note_on_c, 0, 88, 99
2, 267120, Note_on_c, 0, 85, 99
2, 267240, Note_off_c, 0, 85, 64
2, 267240, Note_off_c, 0, 88, 64
2, 267360, Note_on_c, 0, 84, 127
2, 267360, Note_on_c, 0, 87, 127
2, 267480, Note_off_c, 0, 87, 64
2, 267480, Note_off_c, 0, 84, 64
2, 267600, Note_on_c, 0, 84, 99
2, 267600, Note_on_c, 0, 87, 99
2, 267720, Note_off_c, 0, 87, 64
2, 267720, Note_off_c, 0, 84, 64
2, 267840, Note_on_c, 0, 87, 99
2, 267840, Note_on_c, 0, 84, 99
2, 267960, Note_off_c, 0, 84, 64
2, 267960, Note_off_c, 0, 87, 64
2, 268080, Note_on_c, 0, 84, 99
2, 268080, Note_on_c, 0, 87, 99
2, 268200, Note_off_c, 0, 87, 64
2, 268200, Note_off_c, 0, 84, 64
2, 268320, Note_on_c, 0, 87, 99
2, 268320, Note_on_c, 0, 84, 99
2, 268440, Note_off_c, 0, 84, 64
2, 268440, Note_off_c, 0, 87, 64
2, 268560, Note_on_c, 0, 84, 99
2, 268560, Note_on_c, 0, 87, 99
2, 268680, Note_off_c, 0, 87, 64
2, 268680, Note_off_c, 0, 84, 64
2, 268800, Note_on_c, 0, 88, 99
2, 268800, Note_on_c, 0, 85, 99
2, 268920, Note_off_c, 0, 85, 64
2, 268920, Note_off_c, 0, 88, 64
2, 269040, Note_on_c, 0, 88, 99
2, 269040, Note_on_c, 0, 85, 99
2, 269160, Note_off_c, 0, 85, 64
2, 269160, Note_off_c, 0, 88, 64
2, 269280, Note_on_c, 0, 84, 127
2, 269280, Note_on_c, 0, 87, 127
2, 269400, Note_off_c, 0, 87, 64
2, 269400, Note_off_c, 0, 84, 64
2, 269520, Note_on_c, 0, 84, 99
2, 269520, Note_on_c, 0, 87, 99
2, 269640, Note_off_c, 0, 87, 64
2, 269640, Note_off_c, 0, 84, 64
2, 269760, Note_on_c, 0, 88, 99
2, 269760, Note_on_c, 0, 85, 99
2, 269880, Note_off_c, 0, 85, 64
2, 269880, Note_off_c, 0, 88, 64
2, 270000, Note_on_c, 0, 88, 99
2, 270000, Note_on_c, 0, 85, 99
2, 270120, Note_off_c, 0, 85, 64
2, 270120, Note_off_c, 0, 88, 64
2, 270240, Note_on_c, 0, 84, 127
2, 270240, Note_on_c, 0, 87, 127
2, 270360, Note_off_c, 0, 87, 64
2, 270360, Note_off_c, 0, 84, 64
2, 270480, Note_on_c, 0, 84, 99
2, 270480, Note_on_c, 0, 87, 99
2, 270600, Note_off_c, 0, 87, 64
2, 270600, Note_off_c, 0, 84, 64
2, 270720, Note_on_c, 0, 88, 99
2, 270720, Note_on_c, 0, 85, 99
2, 270840, Note_off_c, 0, 85, 64
2, 270840, Note_off_c, 0, 88, 64
2, 270960, Note_on_c, 0, 88, 99
2, 270960, Note_on_c, 0, 85, 99
2, 271080, Note_off_c, 0, 85, 64
2, 271080, Note_off_c, 0, 88, 64
2, 271200, Note_on_c, 0, 84, 127
2, 271200, Note_on_c, 0, 87, 127
2, 271320, Note_off_c, 0, 87, 64
2, 271320, Note_off_c, 0, 84, 64
2, 271440, Note_on_c, 0, 84, 99
2, 271440, Note_on_c, 0, 87, 99
2, 271560, Note_off_c, 0, 87, 64
2, 271560, Note_off_c, 0, 84, 64
2, 271680, Note_on_c, 0, 88, 99
2, 271800, Note_off_c, 0, 88, 64
2, 271920, Note_on_c, 0, 88, 99
2, 272040, Note_off_c, 0, 88, 64
2, 272160, Note_on_c, 0, 88, 127
2, 272280, Note_off_c, 0, 88, 64
2, 272400, Note_on_c, 0, 88, 99
2, 272520, Note_off_c, 0, 88, 64
2, 272940, Note_on_c, 0, 76, 54
2, 272940, Note_on_c, 0, 88, 54
2, 273054, Note_off_c, 0, 88, 64
2, 273054, Note_off_c, 0, 76, 64
2, 273060, Note_on_c, 0, 88, 54
2, 273060, Note_on_c, 0, 76, 54
2, 273174, Note_off_c, 0, 76, 64
2, 273174, Note_off_c, 0, 88, 64
2, 273180, Note_on_c, 0, 76, 72
2, 273180, Note_on_c, 0, 88, 72
2, 273294, Note_off_c, 0, 88, 64
2, 273294, Note_off_c, 0, 76, 64
2, 275340, Note_on_c, 0, 88, 54
2, 275340, Note_on_c, 0, 76, 54
2, 275454, Note_off_c, 0, 76, 64
2, 275454, Note_off_c, 0, 88, 64
2, 275460, Note_on_c, 0, 88, 54
2, 275460, Note_on_c, 0, 76, 54
2, 275574, Note_off_c, 0, 76, 64
2, 275574, Note_off_c, 0, 88, 64
2, 275580, Note_on_c, 0, 76, 72
2, 275580, Note_on_c, 0, 88, 72
2, 275694, Note_off_c, 0, 88, 64
2, 275694, Note_off_c, 0, 76, 64
2, 277440, Note_on_c, 0, 84, 72
2, 277440, Note_on_c, 0, 72, 72
2, 277560, Note_off_c, 0, 72, 64
2, 277560, Note_off_c, 0, 84, 64
2, 278160, Note_on_c, 0, 72, 72
2, 278160, Note_on_c, 0, 84, 72
2, 278520, Note_off_c, 0, 84, 64
2, 278520, Note_off_c, 0, 72, 64
2, 279120, Note_on_c, 0, 84, 72
2, 279120, Note_on_c, 0, 72, 72
2, 279480, Note_off_c, 0, 72, 64
2, 279480, Note_off_c, 0, 84, 64
2, 280080, Note_on_c, 0, 72, 72
2, 280080, Note_on_c, 0, 84, 72
2, 280440, Note_off_c, 0, 84, 64
2, 280440, Note_off_c, 0, 72, 64
2, 284160, Note_on_c, 0, 76, 72
2, 284160, Note_on_c, 0, 88, 72
2, 284280, Note_off_c, 0, 88, 64
2, 284280, Note_off_c, 0, 76, 64
2, 284880, Note_on_c, 0, 88, 72
2, 284880, Note_on_c, 0, 76, 72
2, 285240, Note_off_c, 0, 76, 64
2, 285240, Note_off_c, 0, 88, 64
2, 285840, Note_on_c, 0, 76, 72
2, 285840, Note_on_c, 0, 88, 72
2, 286200, Note_off_c, 0, 88, 64
2, 286200, Note_off_c, 0, 76, 64
2, 286800, Note_on_c, 0, 76, 72
2, 286800, Note_on_c, 0, 88, 72
2, 287040, Note_off_c, 0, 88, 64
2, 287040, Note_off_c, 0, 76, 64
2, 287040, Note_on_c, 0, 84, 72
2, 287040, Note_on_c, 0, 76, 72
2, 287160, Note_off_c, 0, 76, 64
2, 287160, Note_off_c, 0, 84, 64
2, 296640, Note_on_c, 0, 86, 72
2, 296640, Note_on_c, 0, 91, 72
2, 296760, Note_off_c, 0, 91, 64
2, 296760, Note_off_c, 0, 86, 64
2, 297360, Note_on_c, 0, 86, 72
2, 297360, Note_on_c, 0, 91, 72
2, 297480, Note_off_c, 0, 86, 64
2, 297600, Note_on_c, 0, 88, 72
2, 297720, Note_off_c, 0, 91, 64
2, 297720, Note_off_c, 0, 88, 64
2, 298320, Note_on_c, 0, 91, 72
2, 298320, Note_on_c, 0, 88, 72
2, 298440, Note_off_c, 0, 88, 64
2, 298560, Note_on_c, 0, 86, 72
2, 298680, Note_off_c, 0, 91, 64
2, 298680, Note_off_c, 0, 86, 64
2, 299280, Note_on_c, 0, 86, 72
2, 299280, Note_on_c, 0, 91, 72
2, 299400, Note_off_c, 0, 86, 64
2, 299520, Note_on_c, 0, 88, 72
2, 299640, Note_off_c, 0, 91, 64
2, 299640, Note_off_c, 0, 88, 64
2, 300240, Note_on_c, 0, 91, 72
2, 300240, Note_on_c, 0, 88, 72
2, 300360, Note_off_c, 0, 88, 64
2, 300480, Note_on_c, 0, 86, 72
2, 300600, Note_off_c, 0, 91, 64
2, 300600, Note_off_c, 0, 86, 64
2, 301200, Note_on_c, 0, 91, 72
2, 301200, Note_on_c, 0, 86, 72
2, 301320, Note_off_c, 0, 86, 64
2, 301440, Note_on_c, 0, 88, 72
2, 301560, Note_off_c, 0, 91, 64
2, 301560, Note_off_c, 0, 88, 64
2, 302160, Note_on_c, 0, 88, 72
2, 302160, Note_on_c, 0, 91, 72
2, 302280, Note_off_c, 0, 88, 64
2, 302400, Note_on_c, 0, 86, 72
2, 302520, Note_off_c, 0, 91, 64
2, 302520, Note_off_c, 0, 86, 64
2, 303120, Note_on_c, 0, 86, 72
2, 303120, Note_on_c, 0, 91, 72
2, 303360, Note_off_c, 0, 91, 64
2, 303360, Note_off_c, 0, 86, 64
2, 303360, Note_on_c, 0, 84, 72
2, 303360, Note_on_c, 0, 88, 72
2, 303480, Note_off_c, 0, 88, 64
2, 303480, Note_off_c, 0, 84, 64
2, 303600, Note_on_c, 0, 84, 72
2, 303600, Note_on_c, 0, 88, 72
2, 303660, Note_off_c, 0, 88, 64
2, 303660, Note_off_c, 0, 84, 64
2, 303720, Note_on_c, 0, 84, 72
2, 303720, Note_on_c, 0, 88, 72
2, 303780, Note_off_c, 0, 88, 64
2, 303780, Note_off_c, 0, 84, 64
2, 303840, Note_on_c, 0, 88, 72
2, 303840, Note_on_c, 0, 84, 72
2, 303960, Note_off_c, 0, 84, 64
2, 303960, Note_off_c, 0, 88, 64
2, 304320, Note_on_c, 0, 91, 72
2, 304320, Note_on_c, 0, 86, 72
2, 304440, Note_off_c, 0, 86, 64
2, 304440, Note_off_c, 0, 91, 64
2, 305040, Note_on_c, 0, 86, 72
2, 305040, Note_on_c, 0, 91, 72
2, 305160, Note_off_c, 0, 86, 64
2, 305280, Note_on_c, 0, 88, 72
2, 305400, Note_off_c, 0, 91, 64
2, 305400, Note_off_c, 0, 88, 64
2, 306000, Note_on_c, 0, 91, 72
2, 306000, Note_on_c, 0, 88, 72
2, 306120, Note_off_c, 0, 88, 64
2, 306240, Note_on_c, 0, 86, 72
2, 306360, Note_off_c, 0, 91, 64
2, 306360, Note_off_c, 0, 86, 64
2, 306960, Note_on_c, 0, 86, 72
2, 306960, Note_on_c, 0, 91, 72
2, 307080, Note_off_c, 0, 86, 64
2, 307200, Note_on_c, 0, 88, 72
2, 307320, Note_off_c, 0, 91, 64
2, 307320, Note_off_c, 0, 88, 64
2, 307920, Note_on_c, 0, 91, 72
2, 307920, Note_on_c, 0, 88, 72
2, 308040, Note_off_c, 0, 88, 64
2, 308160, Note_on_c, 0, 86, 72
2, 308280, Note_off_c, 0, 91, 64
2, 308280, Note_off_c, 0, 86, 64
2, 308880, Note_on_c, 0, 91, 72
2, 308880, Note_on_c, 0, 86, 72
2, 309000, Note_off_c, 0, 86, 64
2, 309120, Note_on_c, 0, 88, 72
2, 309240, Note_off_c, 0, 91, 64
2, 309240, Note_off_c, 0, 88, 64
2, 309840, Note_on_c, 0, 88, 72
2, 309840, Note_on_c, 0, 91, 72
2, 309960, Note_off_c, 0, 88, 64
2, 310080, Note_on_c, 0, 86, 72
2, 310200, Note_off_c, 0, 91, 64
2, 310200, Note_off_c, 0, 86, 64
2, 310800, Note_on_c, 0, 86, 72
2, 310800, Note_on_c, 0, 91, 72
2, 311040, Note_off_c, 0, 91, 64
2, 311040, Note_off_c, 0, 86, 64
2, 311040, Note_on_c, 0, 84, 72
2, 311040, Note_on_c, 0, 88, 72
2, 311160, Note_off_c, 0, 88, 64
2, 311160, Note_off_c, 0, 84, 64
2, 311280, Note_on_c, 0, 84, 72
2, 311280, Note_on_c, 0, 88, 72
2, 311340, Note_off_c, 0, 88, 64
2, 311340, Note_off_c, 0, 84, 64
2, 311400, Note_on_c, 0, 88, 72
2, 311400, Note_on_c, 0, 84, 72
2, 311460, Note_off_c, 0, 84, 64
2, 311460, Note_off_c, 0, 88, 64
2, 311520, Note_on_c, 0, 88, 72
2, 311520, Note_on_c, 0, 84, 72
2, 311640, Note_off_c, 0, 84, 64
2, 311640, Note_off_c, 0, 88, 64
2, 312000, Note_on_c, 0, 84, 81
2, 312000, Note_on_c, 0, 93, 81
2, 312120, Note_off_c, 0, 93, 64
2, 312120, Note_off_c, 0, 84, 64
2, 312720, Note_on_c, 0, 93, 81
2, 312720, Note_on_c, 0, 84, 81
2, 312960, Note_off_c, 0, 93, 64
2, 312960, Note_on_c, 0, 91, 81
2, 313080, Note_off_c, 0, 84, 64
2, 313080, Note_off_c, 0, 91, 64
2, 313680, Note_on_c, 0, 84, 81
2, 313680, Note_on_c, 0, 91, 81
2, 313920, Note_off_c, 0, 91, 64
2, 313920, Note_on_c, 0, 93, 81
2, 314040, Note_off_c, 0, 84, 64
2, 314040, Note_off_c, 0, 93, 64
2, 314640, Note_on_c, 0, 93, 81
2, 314640, Note_on_c, 0, 84, 81
2, 315000, Note_off_c, 0, 84, 64
2, 315000, Note_off_c, 0, 93, 64
2, 315120, Note_on_c, 0, 92, 108
2, 315312, Note_off_c, 0, 92, 64
2, 315600, Note_on_c, 0, 91, 81
2, 315600, Note_on_c, 0, 88, 81
2, 315840, Note_off_c, 0, 88, 64
2, 315840, Note_off_c, 0, 91, 64
2, 315840, Note_on_c, 0, 90, 54
2, 315840, Note_on_c, 0, 84, 54
2, 315960, Note_off_c, 0, 84, 64
2, 315960, Note_off_c, 0, 90, 64
2, 316560, Note_on_c, 0, 89, 54
2, 316560, Note_on_c, 0, 86, 54
2, 316800, Note_off_c, 0, 86, 64
2, 316800, Note_off_c, 0, 89, 64
2, 316800, Note_on_c, 0, 88, 54
2, 316800, Note_on_c, 0, 91, 54
2, 316920, Note_off_c, 0, 91, 64
2, 316920, Note_off_c, 0, 88, 64
2, 317520, Note_on_c, 0, 88, 54
2, 317520, Note_on_c, 0, 91, 54
2, 317760, Note_off_c, 0, 88, 64
2, 317760, Note_on_c, 0, 86, 54
2, 317880, Note_off_c, 0, 91, 64
2, 317880, Note_off_c, 0, 86, 64
2, 318480, Note_on_c, 0, 91, 54
2, 318480, Note_on_c, 0, 86, 54
2, 318720, Note_off_c, 0, 86, 64
2, 318720, Note_off_c, 0, 91, 64
2, 318720, Note_on_c, 0, 88, 72
2, 318720, Note_on_c, 0, 84, 72
2, 318840, Note_off_c, 0, 84, 64
2, 318840, Note_off_c, 0, 88, 64
2, 318960, Note_on_c, 0, 84, 72
2, 318960, Note_on_c, 0, 88, 72
2, 319020, Note_off_c, 0, 88, 64
2, 319020, Note_off_c, 0, 84, 64
2, 319080, Note_on_c, 0, 84, 72
2, 319080, Note_on_c, 0, 88, 72
2, 319140, Note_off_c, 0, 88, 64
2, 319140, Note_off_c, 0, 84, 64
2, 319200, Note_on_c, 0, 88, 72
2, 319200, Note_on_c, 0, 84, 72
2, 319320, Note_off_c, 0, 84, 64
2, 319320, Note_off_c, 0, 88, 64
2, 319680, Note_on_c, 0, 84, 81
2, 319680, Note_on_c, 0, 93, 81
2, 319800, Note_off_c, 0, 93, 64
2, 319800, Note_off_c, 0, 84, 64
2, 320400, Note_on_c, 0, 93, 81
2, 320400, Note_on_c, 0, 84, 81
2, 320640, Note_off_c, 0, 93, 64
2, 320640, Note_on_c, 0, 91, 81
2, 320760, Note_off_c, 0, 84, 64
2, 320760, Note_off_c, 0, 91, 64
2, 321360, Note_on_c, 0, 84, 81
2, 321360, Note_on_c, 0, 91, 81
2, 321600, Note_off_c, 0, 91, 64
2, 321600, Note_on_c, 0, 93, 81
2, 321720, Note_off_c, 0, 84, 64
2, 321720, Note_off_c, 0, 93, 64
2, 322320, Note_on_c, 0, 93, 81
2, 322320, Note_on_c, 0, 84, 81
2, 322680, Note_off_c, 0, 84, 64
2, 322680, Note_off_c, 0, 93, 64
2, 322800, Note_on_c, 0, 92, 108
2, 322992, Note_off_c, 0, 92, 64
2, 323280, Note_on_c, 0, 91, 81
2, 323280, Note_on_c, 0, 88, 81
2, 323520, Note_off_c, 0, 88, 64
2, 323520, Note_off_c, 0, 91, 64
2, 323520, Note_on_c, 0, 90, 54
2, 323520, Note_on_c, 0, 84, 54
2, 323640, Note_off_c, 0, 84, 64
2, 323640, Note_off_c, 0, 90, 64
2, 324240, Note_on_c, 0, 89, 54
2, 324240, Note_on_c, 0, 86, 54
2, 324480, Note_off_c, 0, 86, 64
2, 324480, Note_off_c, 0, 89, 64
2, 324480, Note_on_c, 0, 88, 54
2, 324480, Note_on_c, 0, 91, 54
2, 324600, Note_off_c, 0, 91, 64
2, 324600, Note_off_c, 0, 88, 64
2, 325200, Note_on_c, 0, 88, 54
2, 325200, Note_on_c, 0, 91, 54
2, 325440, Note_off_c, 0, 88, 64
2, 325440, Note_on_c, 0, 86, 54
2, 325560, Note_off_c, 0, 91, 64
2, 325560, Note_off_c, 0, 86, 64
2, 326160, Note_on_c, 0, 91, 54
2, 326160, Note_on_c, 0, 86, 54
2, 326400, Note_off_c, 0, 86, 64
2, 326400, Note_off_c, 0, 91, 64
2, 326400, Note_on_c, 0, 84, 72
2, 326520, Note_off_c, 0, 84, 64
2, 326640, Note_on_c, 0, 84, 72
2, 326640, Note_on_c, 0, 88, 72
2, 326700, Note_off_c, 0, 88, 64
2, 326700, Note_off_c, 0, 84, 64
2, 326760, Note_on_c, 0, 88, 72
2, 326760, Note_on_c, 0, 84, 72
2, 326820, Note_off_c, 0, 84, 64
2, 326820, Note_off_c, 0, 88, 64
2, 326880, Note_on_c, 0, 88, 72
2, 326880, Note_on_c, 0, 84, 72
2, 327000, Note_off_c, 0, 84, 64
2, 327000, Note_off_c, 0, 88, 64
2, 327600, Note_on_c, 0, 89, 72
2, 327600, Note_on_c, 0, 86, 72
2, 327660, Note_off_c, 0, 86, 64
2, 327660, Note_off_c, 0, 89, 64
2, 327720, Note_on_c, 0, 86, 72
2, 327720, Note_on_c, 0, 89, 72
2, 327780, Note_off_c, 0, 89, 64
2, 327780, Note_off_c, 0, 86, 64
2, 327840, Note_on_c, 0, 86, 72
2, 327840, Note_on_c, 0, 89, 72
2, 327900, Note_off_c, 0, 89, 64
2, 327900, Note_off_c, 0, 86, 64
2, 328560, Note_on_c, 0, 84, 72
2, 328560, Note_on_c, 0, 88, 72
2, 328620, Note_off_c, 0, 88, 64
2, 328620, Note_off_c, 0, 84, 64
2, 328680, Note_on_c, 0, 84, 72
2, 328680, Note_on_c, 0, 88, 72
2, 328740, Note_off_c, 0, 88, 64
2, 328740, Note_off_c, 0, 84, 64
2, 328800, Note_on_c, 0, 88, 72
2, 328800, Note_on_c, 0, 84, 72
2, 328860, Note_off_c, 0, 84, 64
2, 328860, Note_off_c, 0, 88, 64
2, 329520, Note_on_c, 0, 88, 72
2, 329520, Note_on_c, 0, 84, 72
2, 329580, Note_off_c, 0, 84, 64
2, 329580, Note_off_c, 0, 88, 64
2, 329640, Note_on_c, 0, 84, 72
2, 329640, Note_on_c, 0, 88, 72
2, 329700, Note_off_c, 0, 88, 64
2, 329700, Note_off_c, 0, 84, 64
2, 329760, Note_on_c, 0, 86, 72
2, 329760, Note_on_c, 0, 83, 72
2, 329820, Note_off_c, 0, 83, 64
2, 329820, Note_off_c, 0, 86, 64
2, 330720, Note_on_c, 0, 84, 120
2, 331200, Note_off_c, 0, 84, 64
2, 331200, Note_on_c, 0, 89, 120
2, 331320, Note_off_c, 0, 89, 64
2, 331680, Note_on_c, 0, 81, 120
2, 332160, Note_off_c, 0, 81, 64
2, 332160, Note_on_c, 0, 86, 120
2, 332280, Note_off_c, 0, 86, 64
2, 332640, Note_on_c, 0, 79, 120
2, 333120, Note_off_c, 0, 79, 64
2, 333120, Note_on_c, 0, 82, 120
2, 333240, Note_off_c, 0, 82, 64
2, 333600, Note_on_c, 0, 76, 120
2, 334080, Note_off_c, 0, 76, 64
2, 334080, Note_on_c, 0, 77, 120
2, 334200, Note_off_c, 0, 77, 64
2, 334320, Note_on_c, 0, 89, 72
2, 334320, Note_on_c, 0, 81, 72
2, 334380, Note_off_c, 0, 81, 64
2, 334380, Note_off_c, 0, 89, 64
2, 334440, Note_on_c, 0, 89, 72
2, 334440, Note_on_c, 0, 81, 72
2, 334500, Note_off_c, 0, 81, 64
2, 334500, Note_off_c, 0, 89, 64
2, 334560, Note_on_c, 0, 89, 72
2, 334560, Note_on_c, 0, 81, 72
2, 334620, Note_off_c, 0, 81, 64
2, 334620, Note_off_c, 0, 89, 64
2, 335280, Note_on_c, 0, 86, 72
2, 335280, Note_on_c, 0, 89, 72
2, 335340, Note_off_c, 0, 89, 64
2, 335340, Note_off_c, 0, 86, 64
2, 335400, Note_on_c, 0, 89, 72
2, 335400, Note_on_c, 0, 86, 72
2, 335460, Note_off_c, 0, 86, 64
2, 335460, Note_off_c, 0, 89, 64
2, 335520, Note_on_c, 0, 86, 72
2, 335520, Note_on_c, 0, 89, 72
2, 335580, Note_off_c, 0, 89, 64
2, 335580, Note_off_c, 0, 86, 64
2, 336240, Note_on_c, 0, 88, 72
2, 336300, Note_off_c, 0, 88, 64
2, 336360, Note_on_c, 0, 88, 72
2, 336420, Note_off_c, 0, 88, 64
2, 336480, Note_on_c, 0, 88, 72
2, 336540, Note_off_c, 0, 88, 64
2, 337200, Note_on_c, 0, 88, 72
2, 337200, Note_on_c, 0, 85, 72
2, 337260, Note_off_c, 0, 85, 64
2, 337260, Note_off_c, 0, 88, 64
2, 337320, Note_on_c, 0, 85, 72
2, 337320, Note_on_c, 0, 88, 72
2, 337380, Note_off_c, 0, 88, 64
2, 337380, Note_off_c, 0, 85, 64
2, 337440, Note_on_c, 0, 85, 72
2, 337440, Note_on_c, 0, 88, 72
2, 337500, Note_off_c, 0, 88, 64
2, 337500, Note_off_c, 0, 85, 64
2, 337920, Note_on_c, 0, 89, 72
2, 337920, Note_on_c, 0, 86, 72
2, 338040, Note_off_c, 0, 86, 64
2, 338040, Note_off_c, 0, 89, 64
2, 340320, Note_on_c, 0, 89, 70
2, 340770, Note_off_c, 0, 89, 64
2, 340800, Note_on_c, 0, 93, 68
2, 341026, Note_off_c, 0, 93, 64
2, 341280, Note_on_c, 0, 86, 66
2, 341730, Note_off_c, 0, 86, 64
2, 341760, Note_on_c, 0, 89, 63
2, 341986, Note_off_c, 0, 89, 64
2, 342240, Note_on_c, 0, 81, 61
2, 342690, Note_off_c, 0, 81, 64
2, 342720, Note_on_c, 0, 86, 59
2, 342946, Note_off_c, 0, 86, 64
2, 343200, Note_on_c, 0, 89, 56
2, 343650, Note_off_c, 0, 89, 64
2, 343680, Note_on_c, 0, 93, 54
2, 343906, Note_off_c, 0, 93, 64
2, 344160, Note_on_c, 0, 89, 52
2, 344610, Note_off_c, 0, 89, 64
2, 344640, Note_on_c, 0, 93, 60
2, 344866, Note_off_c, 0, 93, 64
2, 345120, Note_on_c, 0, 90, 60
2, 345570, Note_off_c, 0, 90, 64
2, 345600, Note_on_c, 0, 93, 60
2, 345826, Note_off_c, 0, 93, 64
2, 346080, Note_on_c, 0, 90, 60
2, 346530, Note_off_c, 0, 90, 64
2, 346560, Note_on_c, 0, 94, 80
2, 346786, Note_off_c, 0, 94, 64
2, 347040, Note_on_c, 0, 91, 80
2, 347490, Note_off_c, 0, 91, 64
2, 347520, Note_on_c, 0, 82, 80
2, 347746, Note_off_c, 0, 82, 64
2, 348000, Note_on_c, 0, 79, 80
2, 348450, Note_off_c, 0, 79, 64
2, 348480, Note_on_c, 0, 83, 80
2, 348706, Note_off_c, 0, 83, 64
2, 348960, Note_on_c, 0, 80, 80
2, 349410, Note_off_c, 0, 80, 64
2, 349440, Note_on_c, 0, 83, 80
2, 349666, Note_off_c, 0, 83, 64
2, 349920, Note_on_c, 0, 80, 80
2, 350370, Note_off_c, 0, 80, 64
2, 350400, Note_on_c, 0, 84, 80
2, 350626, Note_off_c, 0, 84, 64
2, 350880, Note_on_c, 0, 81, 80
2, 351330, Note_off_c, 0, 81, 64
2, 351360, Note_on_c, 0, 85, 80
2, 351586, Note_off_c, 0, 85, 64
2, 351840, Note_on_c, 0, 82, 80
2, 352290, Note_off_c, 0, 82, 64
2, 352320, Note_on_c, 0, 86, 80
2, 352546, Note_off_c, 0, 86, 64
2, 352800, Note_on_c, 0, 83, 80
2, 352800, Note_on_c, 0, 71, 80
2, 353250, Note_off_c, 0, 71, 64
2, 353250, Note_off_c, 0, 83, 64
2, 353280, Note_on_c, 0, 87, 50
2, 353280, Note_on_c, 0, 75, 50
2, 353506, Note_off_c, 0, 75, 64
2, 353506, Note_off_c, 0, 87, 64
2, 353760, Note_on_c, 0, 72, 50
2, 353760, Note_on_c, 0, 84, 50
2, 354210, Note_off_c, 0, 84, 64
2, 354210, Note_off_c, 0, 72, 64
2, 354240, Note_on_c, 0, 88, 50
2, 354240, Note_on_c, 0, 76, 50
2, 354466, Note_off_c, 0, 76, 64
2, 354466, Note_off_c, 0, 88, 64
2, 354720, Note_on_c, 0, 73, 50
2, 354720, Note_on_c, 0, 85, 50
2, 355170, Note_off_c, 0, 85, 64
2, 355170, Note_off_c, 0, 73, 64
2, 355200, Note_on_c, 0, 88, 50
2, 355200, Note_on_c, 0, 76, 50
2, 355426, Note_off_c, 0, 76, 64
2, 355426, Note_off_c, 0, 88, 64
2, 355680, Note_on_c, 0, 74, 50
2, 355680, Note_on_c, 0, 86, 50
2, 356130, Note_off_c, 0, 86, 64
2, 356130, Note_off_c, 0, 74, 64
2, 356160, Note_on_c, 0, 88, 50
2, 356160, Note_on_c, 0, 76, 50
2, 356386, Note_off_c, 0, 76, 64
2, 356386, Note_off_c, 0, 88, 64
2, 356640, Note_on_c, 0, 75, 50
2, 356640, Note_on_c, 0, 87, 50
2, 357090, Note_off_c, 0, 87, 64
2, 357090, Note_off_c, 0, 75, 64
2, 357120, Note_on_c, 0, 88, 50
2, 357120, Note_on_c, 0, 76, 50
2, 357346, Note_off_c, 0, 76, 64
2, 357346, Note_off_c, 0, 88, 64
2, 357600, Note_on_c, 0, 75, 50
2, 357600, Note_on_c, 0, 87, 50
2, 358050, Note_off_c, 0, 87, 64
2, 358050, Note_off_c, 0, 75, 64
2, 358080, Note_on_c, 0, 88, 50
2, 358080, Note_on_c, 0, 76, 50
2, 358306, Note_off_c, 0, 76, 64
2, 358306, Note_off_c, 0, 88, 64
2, 358560, Note_on_c, 0, 87, 50
2, 358560, Note_on_c, 0, 75, 50
2, 359010, Note_off_c, 0, 75, 64
2, 359010, Note_off_c, 0, 87, 64
2, 359040, Note_on_c, 0, 76, 50
2, 359040, Note_on_c, 0, 88, 50
2, 359266, Note_off_c, 0, 88, 64
2, 359266, Note_off_c, 0, 76, 64
2, 359520, Note_on_c, 0, 87, 50
2, 359520, Note_on_c, 0, 75, 50
2, 359970, Note_off_c, 0, 75, 64
2, 359970, Note_off_c, 0, 87, 64
2, 360000, Note_on_c, 0, 76, 50
2, 360000, Note_on_c, 0, 88, 50
2, 360226, Note_off_c, 0, 88, 64
2, 360226, Note_off_c, 0, 76, 64
2, 360480, Note_on_c, 0, 75, 50
2, 360480, Note_on_c, 0, 87, 50
2, 360930, Note_off_c, 0, 87, 64
2, 360930, Note_off_c, 0, 75, 64
2, 360960, Note_on_c, 0, 88, 50
2, 361186, Note_off_c, 0, 88, 64
2, 361440, Note_on_c, 0, 76, 50
2, 361890, Note_off_c, 0, 76, 64
2, 361920, Note_on_c, 0, 77, 50
2, 362112, Note_off_c, 0, 77, 64
2, 362880, Note_on_c, 0, 77, 88
2, 362940, Note_off_c, 0, 77, 64
2, 363120, Note_on_c, 0, 77, 58
2, 363180, Note_off_c, 0, 77, 64
2, 363240, Note_on_c, 0, 77, 58
2, 363300, Note_off_c, 0, 77, 64
2, 363360, Note_on_c, 0, 77, 58
2, 363480, Note_off_c, 0, 77, 64
2, 364800, Note_on_c, 0, 75, 58
2, 364860, Note_off_c, 0, 75, 64
2, 365040, Note_on_c, 0, 75, 58
2, 365100, Note_off_c, 0, 75, 64
2, 365160, Note_on_c, 0, 75, 58
2, 365220, Note_off_c, 0, 75, 64
2, 365280, Note_on_c, 0, 75, 58
2, 365400, Note_off_c, 0, 75, 64
2, 365760, Note_on_c, 0, 72, 76
2, 365880, Note_off_c, 0, 72, 64
2, 366000, Note_on_c, 0, 72, 76
2, 366120, Note_off_c, 0, 72, 64
2, 366120, Note_on_c, 0, 74, 76
2, 366240, Note_off_c, 0, 74, 64
2, 366240, Note_on_c, 0, 77, 84
2, 366360, Note_off_c, 0, 77, 64
2, 366360, Note_on_c, 0, 75, 76
2, 366480, Note_off_c, 0, 75, 64
2, 366480, Note_on_c, 0, 74, 76
2, 366600, Note_off_c, 0, 74, 64
2, 366600, Note_on_c, 0, 72, 76
2, 366720, Note_off_c, 0, 72, 64
2, 366720, Note_on_c, 0, 74, 76
2, 366840, Note_off_c, 0, 74, 64
2, 366960, Note_on_c, 0, 74, 76
2, 367080, Note_off_c, 0, 74, 64
2, 367080, Note_on_c, 0, 75, 76
2, 367200, Note_off_c, 0, 75, 64
2, 367200, Note_on_c, 0, 79, 84
2, 367320, Note_off_c, 0, 79, 64
2, 367320, Note_on_c, 0, 77, 76
2, 367440, Note_off_c, 0, 77, 64
2, 367440, Note_on_c, 0, 75, 76
2, 367560, Note_off_c, 0, 75, 64
2, 367560, Note_on_c, 0, 74, 76
2, 367680, Note_off_c, 0, 74, 64
2, 367680, Note_on_c, 0, 72, 76
2, 367800, Note_off_c, 0, 72, 64
2, 367920, Note_on_c, 0, 72, 76
2, 368040, Note_off_c, 0, 72, 64
2, 368040, Note_on_c, 0, 74, 76
2, 368160, Note_off_c, 0, 74, 64
2, 368160, Note_on_c, 0, 77, 91
2, 368280, Note_off_c, 0, 77, 64
2, 368280, Note_on_c, 0, 75, 76
2, 368400, Note_off_c, 0, 75, 64
2, 368400, Note_on_c, 0, 74, 76
2, 368520, Note_off_c, 0, 74, 64
2, 368520, Note_on_c, 0, 72, 76
2, 368640, Note_off_c, 0, 72, 64
2, 368640, Note_on_c, 0, 74, 91
2, 369000, Note_off_c, 0, 74, 64
2, 369000, Note_on_c, 0, 82, 76
2, 369096, Note_off_c, 0, 82, 64
2, 369120, Note_on_c, 0, 82, 91
2, 372480, Note_off_c, 0, 82, 64
2, 372480, Note_on_c, 0, 81, 76
2, 372706, Note_off_c, 0, 81, 64
2, 373440, Note_on_c, 0, 77, 88
2, 373500, Note_off_c, 0, 77, 64
2, 373680, Note_on_c, 0, 77, 58
2, 373740, Note_off_c, 0, 77, 64
2, 373800, Note_on_c, 0, 77, 58
2, 373860, Note_off_c, 0, 77, 64
2, 373920, Note_on_c, 0, 77, 58
2, 374040, Note_off_c, 0, 77, 64
2, 375360, Note_on_c, 0, 75, 58
2, 375420, Note_off_c, 0, 75, 64
2, 375600, Note_on_c, 0, 75, 58
2, 375660, Note_off_c, 0, 75, 64
2, 375720, Note_on_c, 0, 75, 58
2, 375780, Note_off_c, 0, 75, 64
2, 375840, Note_on_c, 0, 75, 58
2, 375960, Note_off_c, 0, 75, 64
2, 376320, Note_on_c, 0, 72, 76
2, 376440, Note_off_c, 0, 72, 64
2, 376560, Note_on_c, 0, 72, 76
2, 376680, Note_off_c, 0, 72, 64
2, 376680, Note_on_c, 0, 74, 76
2, 376800, Note_off_c, 0, 74, 64
2, 376800, Note_on_c, 0, 77, 84
2, 376920, Note_off_c, 0, 77, 64
2, 376920, Note_on_c, 0, 75, 76
2, 377040, Note_off_c, 0, 75, 64
2, 377040, Note_on_c, 0, 74, 76
2, 377160, Note_off_c, 0, 74, 64
2, 377160, Note_on_c, 0, 72, 76
2, 377280, Note_off_c, 0, 72, 64
2, 377280, Note_on_c, 0, 74, 76
2, 377400, Note_off_c, 0, 74, 64
2, 377520, Note_on_c, 0, 74, 76
2, 377640, Note_off_c, 0, 74, 64
2, 377640, Note_on_c, 0, 75, 76
2, 377760, Note_off_c, 0, 75, 64
2, 377760, Note_on_c, 0, 79, 84
2, 377880, Note_off_c, 0, 79, 64
2, 377880, Note_on_c, 0, 77, 76
2, 378000, Note_off_c, 0, 77, 64
2, 378000, Note_on_c, 0, 75, 76
2, 378120, Note_off_c, 0, 75, 64
2, 378120, Note_on_c, 0, 74, 76
2, 378240, Note_off_c, 0, 74, 64
2, 378240, Note_on_c, 0, 72, 76
2, 378360, Note_off_c, 0, 72, 64
2, 378480, Note_on_c, 0, 72, 76
2, 378600, Note_off_c, 0, 72, 64
2, 378600, Note_on_c, 0, 74, 76
2, 378720, Note_off_c, 0, 74, 64
2, 378720, Note_on_c, 0, 77, 91
2, 378840, Note_off_c, 0, 77, 64
2, 378840, Note_on_c, 0, 75, 76
2, 378960, Note_off_c, 0, 75, 64
2, 378960, Note_on_c, 0, 74, 76
2, 379080, Note_off_c, 0, 74, 64
2, 379080, Note_on_c, 0, 72, 76
2, 379200, Note_off_c, 0, 72, 64
2, 379200, Note_on_c, 0, 74, 118
2, 379560, Note_off_c, 0, 74, 64
2, 379560, Note_on_c, 0, 83, 99
2, 379656, Note_off_c, 0, 83, 64
2, 379680, Note_on_c, 0, 83, 118
2, 383040, Note_off_c, 0, 83, 64
2, 383040, Note_on_c, 0, 83, 127
2, 383266, Note_off_c, 0, 83, 64
2, 383340, Note_on_c, 0, 88, 54
2, 383340, Note_on_c, 0, 76, 54
2, 383454, Note_off_c, 0, 76, 64
2, 383454, Note_off_c, 0, 88, 64
2, 383460, Note_on_c, 0, 88, 54
2, 383460, Note_on_c, 0, 76, 54
2, 383574, Note_off_c, 0, 76, 64
2, 383574, Note_off_c, 0, 88, 64
2, 383580, Note_on_c, 0, 88, 72
2, 383580, Note_on_c, 0, 76, 72
2, 383694, Note_off_c, 0, 76, 64
2, 383694, Note_off_c, 0, 88, 64
2, 385740, Note_on_c, 0, 83, 54
2, 385740, Note_on_c, 0, 86, 54
2, 385854, Note_off_c, 0, 86, 64
2, 385854, Note_off_c, 0, 83, 64
2, 385860, Note_on_c, 0, 83, 54
2, 385860, Note_on_c, 0, 86, 54
2, 385974, Note_off_c, 0, 86, 64
2, 385974, Note_off_c, 0, 83, 64
2, 385980, Note_on_c, 0, 86, 72
2, 385980, Note_on_c, 0, 83, 72
2, 386094, Note_off_c, 0, 83, 64
2, 386094, Note_off_c, 0, 86, 64
2, 387840, Note_on_c, 0, 76, 72
2, 387840, Note_on_c, 0, 88, 72
2, 387960, Note_off_c, 0, 88, 64
2, 387960, Note_off_c, 0, 76, 64
2, 388560, Note_on_c, 0, 76, 72
2, 388560, Note_on_c, 0, 88, 72
2, 388920, Note_off_c, 0, 88, 64
2, 388920, Note_off_c, 0, 76, 64
2, 389520, Note_on_c, 0, 88, 72
2, 389520, Note_on_c, 0, 76, 72
2, 389880, Note_off_c, 0, 76, 64
2, 389880, Note_off_c, 0, 88, 64
2, 390480, Note_on_c, 0, 76, 72
2, 390480, Note_on_c, 0, 88, 72
2, 390840, Note_off_c, 0, 88, 64
2, 390840, Note_off_c, 0, 76, 64
2, 391440, Note_on_c, 0, 88, 72
2, 391440, Note_on_c, 0, 76, 72
2, 391800, Note_off_c, 0, 76, 64
2, 391800, Note_off_c, 0, 88, 64
2, 392400, Note_on_c, 0, 76, 72
2, 392400, Note_on_c, 0, 88, 72
2, 392760, Note_off_c, 0, 88, 64
2, 392760, Note_off_c, 0, 76, 64
2, 393360, Note_on_c, 0, 76, 72
2, 393360, Note_on_c, 0, 88, 72
2, 393720, Note_off_c, 0, 88, 64
2, 393720, Note_off_c, 0, 76, 64
2, 394320, Note_on_c, 0, 88, 72
2, 394320, Note_on_c, 0, 76, 72
2, 394560, Note_off_c, 0, 76, 64
2, 394560, Note_off_c, 0, 88, 64
2, 394560, Note_on_c, 0, 81, 72
2, 394560, Note_on_c, 0, 76, 72
2, 394680, Note_off_c, 0, 76, 64
2, 394680, Note_off_c, 0, 81, 64
2, 394800, Note_on_c, 0, 93, 72
2, 394800, Note_on_c, 0, 81, 72
2, 394860, Note_off_c, 0, 81, 64
2, 394860, Note_off_c, 0, 93, 64
2, 394920, Note_on_c, 0, 81, 72
2, 394920, Note_on_c, 0, 93, 72
2, 394980, Note_off_c, 0, 93, 64
2, 394980, Note_off_c, 0, 81, 64
2, 395040, Note_on_c, 0, 93, 72
2, 395040, Note_on_c, 0, 81, 72
2, 395160, Note_off_c, 0, 81, 64
2, 395160, Note_off_c, 0, 93, 64
2, 395520, Note_on_c, 0, 76, 72
2, 395520, Note_on_c, 0, 88, 72
2, 395640, Note_off_c, 0, 88, 64
2, 395640, Note_off_c, 0, 76, 64
2, 396240, Note_on_c, 0, 76, 72
2, 396240, Note_on_c, 0, 88, 72
2, 396600, Note_off_c, 0, 88, 64
2, 396600, Note_off_c, 0, 76, 64
2, 397200, Note_on_c, 0, 88, 72
2, 397200, Note_on_c, 0, 76, 72
2, 397560, Note_off_c, 0, 76, 64
2, 397560, Note_off_c, 0, 88, 64
2, 398160, Note_on_c, 0, 76, 72
2, 398160, Note_on_c, 0, 88, 72
2, 398520, Note_off_c, 0, 88, 64
2, 398520, Note_off_c, 0, 76, 64
2, 399120, Note_on_c, 0, 88, 72
2, 399120, Note_on_c, 0, 76, 72
2, 399480, Note_off_c, 0, 76, 64
2, 399480, Note_off_c, 0, 88, 64
2, 400080, Note_on_c, 0, 76, 72
2, 400080, Note_on_c, 0, 88, 72
2, 400440, Note_off_c, 0, 88, 64
2, 400440, Note_off_c, 0, 76, 64
2, 401040, Note_on_c, 0, 76, 72
2, 401040, Note_on_c, 0, 88, 72
2, 401400, Note_off_c, 0, 88, 64
2, 401400, Note_off_c, 0, 76, 64
2, 402000, Note_on_c, 0, 88, 72
2, 402000, Note_on_c, 0, 76, 72
2, 402240, Note_off_c, 0, 76, 64
2, 402240, Note_off_c, 0, 88, 64
2, 402240, Note_on_c, 0, 76, 72
2, 402240, Note_on_c, 0, 81, 72
2, 402360, Note_off_c, 0, 81, 64
2, 402360, Note_off_c, 0, 76, 64
2, 402540, Note_on_c, 0, 93, 72
2, 402540, Note_on_c, 0, 81, 72
2, 402600, Note_off_c, 0, 81, 64
2, 402600, Note_off_c, 0, 93, 64
2, 402660, Note_on_c, 0, 93, 72
2, 402660, Note_on_c, 0, 81, 72
2, 402720, Note_off_c, 0, 81, 64
2, 402720, Note_off_c, 0, 93, 64
2, 402780, Note_on_c, 0, 93, 72
2, 402780, Note_on_c, 0, 81, 72
2, 402900, Note_off_c, 0, 81, 64
2, 402900, Note_off_c, 0, 93, 64
2, 403620, Note_on_c, 0, 81, 72
2, 403734, Note_off_c, 0, 81, 64
2, 403740, Note_on_c, 0, 81, 72
2, 403854, Note_off_c, 0, 81, 64
2, 403860, Note_on_c, 0, 81, 72
2, 403974, Note_off_c, 0, 81, 64
2, 404700, Note_on_c, 0, 88, 72
2, 404760, Note_off_c, 0, 88, 64
2, 404820, Note_on_c, 0, 88, 72
2, 404880, Note_off_c, 0, 88, 64
2, 404940, Note_on_c, 0, 88, 72
2, 405060, Note_off_c, 0, 88, 64
2, 405780, Note_on_c, 0, 88, 72
2, 405840, Note_off_c, 0, 88, 64
2, 405900, Note_on_c, 0, 88, 72
2, 405960, Note_off_c, 0, 88, 64
2, 406020, Note_on_c, 0, 88, 72
2, 406140, Note_off_c, 0, 88, 64
2, 406560, Note_on_c, 0, 76, 54
2, 406560, Note_on_c, 0, 85, 54
2, 407136, Note_off_c, 0, 85, 64
2, 407136, Note_off_c, 0, 76, 64
2, 407280, Note_on_c, 0, 74, 54
2, 407280, Note_on_c, 0, 83, 54
2, 407400, Note_off_c, 0, 83, 64
2, 407400, Note_off_c, 0, 74, 64
2, 407520, Note_on_c, 0, 81, 54
2, 407520, Note_on_c, 0, 73, 54
2, 407640, Note_off_c, 0, 73, 64
2, 407640, Note_off_c, 0, 81, 64
2, 407760, Note_on_c, 0, 76, 54
2, 407760, Note_on_c, 0, 85, 54
2, 407880, Note_off_c, 0, 85, 64
2, 407880, Note_off_c, 0, 76, 64
2, 408000, Note_on_c, 0, 83, 54
2, 408000, Note_on_c, 0, 74, 54
2, 408120, Note_off_c, 0, 74, 64
2, 408120, Note_off_c, 0, 83, 64
2, 408240, Note_on_c, 0, 81, 54
2, 408240, Note_on_c, 0, 73, 54
2, 408360, Note_off_c, 0, 73, 64
2, 408360, Note_off_c, 0, 81, 64
2, 408480, Note_on_c, 0, 83, 54
2, 408480, Note_on_c, 0, 74, 54
2, 408600, Note_off_c, 0, 74, 64
2, 408600, Note_off_c, 0, 83, 64
2, 408720, Note_on_c, 0, 85, 72
2, 408720, Note_on_c, 0, 93, 72
2, 408840, Note_off_c, 0, 93, 64
2, 408840, Note_off_c, 0, 85, 64
2, 408960, Note_on_c, 0, 88, 72
2, 408960, Note_on_c, 0, 92, 72
2, 409080, Note_off_c, 0, 92, 64
2, 409080, Note_off_c, 0, 88, 64
2, 409200, Note_on_c, 0, 90, 72
2, 409200, Note_on_c, 0, 86, 72
2, 409320, Note_off_c, 0, 86, 64
2, 409320, Note_off_c, 0, 90, 64
2, 409440, Note_on_c, 0, 88, 72
2, 409440, Note_on_c, 0, 85, 72
2, 409560, Note_off_c, 0, 85, 64
2, 409560, Note_off_c, 0, 88, 64
2, 409680, Note_on_c, 0, 83, 72
2, 409680, Note_on_c, 0, 86, 72
2, 409800, Note_off_c, 0, 86, 64
2, 409800, Note_off_c, 0, 83, 64
2, 409920, Note_on_c, 0, 85, 72
2, 409920, Note_on_c, 0, 81, 72
2, 410040, Note_off_c, 0, 81, 64
2, 410040, Note_off_c, 0, 85, 64
2, 410160, Note_on_c, 0, 83, 72
2, 410160, Note_on_c, 0, 80, 72
2, 410280, Note_off_c, 0, 80, 64
2, 410280, Note_off_c, 0, 83, 64
2, 410400, Note_on_c, 0, 76, 72
2, 410400, Note_on_c, 0, 81, 72
2, 410520, Note_off_c, 0, 81, 64
2, 410520, Note_off_c, 0, 76, 64
2, 410700, Note_on_c, 0, 81, 72
2, 410760, Note_off_c, 0, 81, 64
2, 410820, Note_on_c, 0, 81, 72
2, 410880, Note_off_c, 0, 81, 64
2, 410940, Note_on_c, 0, 81, 72
2, 411060, Note_off_c, 0, 81, 64
2, 411780, Note_on_c, 0, 81, 72
2, 411840, Note_off_c, 0, 81, 64
2, 411840, Note_on_c, 0, 81, 72
2, 411900, Note_off_c, 0, 81, 64
2, 411960, Note_on_c, 0, 81, 72
2, 412080, Note_off_c, 0, 81, 64
2, 412860, Note_on_c, 0, 88, 72
2, 412920, Note_off_c, 0, 88, 64
2, 412980, Note_on_c, 0, 88, 72
2, 413040, Note_off_c, 0, 88, 64
2, 413100, Note_on_c, 0, 88, 72
2, 413220, Note_off_c, 0, 88, 64
2, 413940, Note_on_c, 0, 88, 72
2, 414054, Note_off_c, 0, 88, 64
2, 414060, Note_on_c, 0, 88, 72
2, 414174, Note_off_c, 0, 88, 64
2, 414180, Note_on_c, 0, 88, 72
2, 414294, Note_off_c, 0, 88, 64
2, 414720, Note_on_c, 0, 88, 80
2, 414912, Note_off_c, 0, 88, 64
2, 415200, Note_on_c, 0, 88, 80
2, 415392, Note_off_c, 0, 88, 64
2, 415680, Note_on_c, 0, 88, 80
2, 415872, Note_off_c, 0, 88, 64
2, 416160, Note_on_c, 0, 88, 80
2, 416352, Note_off_c, 0, 88, 64
2, 416640, Note_on_c, 0, 88, 64
2, 416832, Note_off_c, 0, 88, 64
2, 417120, Note_on_c, 0, 88, 61
2, 417312, Note_off_c, 0, 88, 64
2, 417600, Note_on_c, 0, 88, 57
2, 417792, Note_off_c, 0, 88, 64
2, 418080, Note_on_c, 0, 88, 53
2, 418272, Note_off_c, 0, 88, 64
2, 418560, Note_on_c, 0, 88, 60
2, 418752, Note_off_c, 0, 88, 64
2, 419520, Note_on_c, 0, 76, 58
2, 419520, Note_on_c, 0, 88, 58
2, 422626, Note_off_c, 0, 88, 64
2, 422626, Note_off_c, 0, 76, 64
2, 423360, Note_on_c, 0, 76, 58
2, 423360, Note_on_c, 0, 88, 58
2, 424800, Note_off_c, 0, 88, 64
2, 424800, Note_off_c, 0, 76, 64
2, 424800, Note_on_c, 0, 91, 80
2, 424800, Note_on_c, 0, 88, 80
2, 425760, Note_off_c, 0, 88, 64
2, 425760, Note_off_c, 0, 91, 64
2, 425760, Note_on_c, 0, 88, 58
2, 425760, Note_on_c, 0, 85, 58
2, 426240, Note_off_c, 0, 85, 64
2, 426240, Note_off_c, 0, 88, 64
2, 426240, Note_on_c, 0, 89, 58
2, 426240, Note_on_c, 0, 86, 58
2, 426480, Note_off_c, 0, 86, 64
2, 426480, Note_off_c, 0, 89, 64
2, 429360, Note_on_c, 0, 85, 90
2, 429480, Note_off_c, 0, 85, 64
2, 429480, Note_on_c, 0, 86, 90
2, 429600, Note_off_c, 0, 86, 64
2, 429600, Note_on_c, 0, 85, 90
2, 429600, Note_on_c, 0, 89, 108
2, 429720, Note_off_c, 0, 89, 64
2, 429720, Note_on_c, 0, 88, 108
2, 429840, Note_off_c, 0, 88, 64
2, 429840, Note_on_c, 0, 86, 108
2, 429960, Note_off_c, 0, 86, 64
2, 429960, Note_on_c, 0, 88, 108
2, 430080, Note_off_c, 0, 85, 64
2, 430080, Note_off_c, 0, 88, 64
2, 430080, Note_on_c, 0, 86, 90
2, 430080, Note_on_c, 0, 89, 108
2, 430200, Note_off_c, 0, 89, 64
2, 430200, Note_off_c, 0, 86, 64
2, 433200, Note_on_c, 0, 85, 90
2, 433320, Note_off_c, 0, 85, 64
2, 433320, Note_on_c, 0, 86, 90
2, 433440, Note_off_c, 0, 86, 64
2, 433440, Note_on_c, 0, 85, 90
2, 433440, Note_on_c, 0, 89, 108
2, 433560, Note_off_c, 0, 89, 64
2, 433560, Note_on_c, 0, 88, 108
2, 433680, Note_off_c, 0, 88, 64
2, 433680, Note_on_c, 0, 86, 108
2, 433800, Note_off_c, 0, 86, 64
2, 433800, Note_on_c, 0, 88, 108
2, 433920, Note_off_c, 0, 85, 64
2, 433920, Note_off_c, 0, 88, 64
2, 433920, Note_on_c, 0, 89, 127
2, 433920, Note_on_c, 0, 86, 90
2, 434040, Note_off_c, 0, 86, 64
2, 434040, Note_off_c, 0, 89, 64
2, 434400, Note_on_c, 0, 86, 80
2, 434400, Note_on_c, 0, 89, 80
2, 434544, Note_off_c, 0, 89, 64
2, 434544, Note_off_c, 0, 86, 64
2, 434880, Note_on_c, 0, 86, 80
2, 434880, Note_on_c, 0, 89, 80
2, 435024, Note_off_c, 0, 89, 64
2, 435024, Note_off_c, 0, 86, 64
2, 435360, Note_on_c, 0, 86, 80
2, 435360, Note_on_c, 0, 89, 80
2, 435504, Note_off_c, 0, 89, 64
2, 435504, Note_off_c, 0, 86, 64
2, 435840, Note_on_c, 0, 91, 80
2, 435840, Note_on_c, 0, 88, 80
2, 435984, Note_off_c, 0, 88, 64
2, 435984, Note_off_c, 0, 91, 64
2, 436320, Note_on_c, 0, 88, 80
2, 436320, Note_on_c, 0, 91, 80
2, 436464, Note_off_c, 0, 91, 64
2, 436464, Note_off_c, 0, 88, 64
2, 436800, Note_on_c, 0, 91, 80
2, 436800, Note_on_c, 0, 88, 80
2, 436944, Note_off_c, 0, 88, 64
2, 436944, Note_off_c, 0, 91, 64
2, 437280, Note_on_c, 0, 88, 80
2, 437280, Note_on_c, 0, 91, 80
2, 437424, Note_off_c, 0, 91, 64
2, 437424, Note_off_c, 0, 88, 64
2, 437760, Note_on_c, 0, 89, 80
2, 437760, Note_on_c, 0, 86, 80
2, 437904, Note_off_c, 0, 86, 64
2, 437904, Note_off_c, 0, 89, 64
2, 438240, Note_on_c, 0, 89, 80
2, 438240, Note_on_c, 0, 86, 80
2, 438384, Note_off_c, 0, 86, 64
2, 438384, Note_off_c, 0, 89, 64
2, 438720, Note_on_c, 0, 90, 80
2, 438720, Note_on_c, 0, 86, 80
2, 438864, Note_off_c, 0, 86, 64
2, 438864, Note_off_c, 0, 90, 64
2, 439200, Note_on_c, 0, 86, 80
2, 439200, Note_on_c, 0, 90, 80
2, 439344, Note_off_c, 0, 90, 64
2, 439344, Note_off_c, 0, 86, 64
2, 439680, Note_on_c, 0, 86, 80
2, 439680, Note_on_c, 0, 92, 80
2, 439824, Note_off_c, 0, 92, 64
2, 439824, Note_off_c, 0, 86, 64
2, 440160, Note_on_c, 0, 86, 80
2, 440304, Note_off_c, 0, 86, 64
2, 440640, Note_on_c, 0, 86, 80
2, 440640, Note_on_c, 0, 89, 80
2, 440784, Note_off_c, 0, 89, 64
2, 440784, Note_off_c, 0, 86, 64
2, 441120, Note_on_c, 0, 86, 80
2, 441120, Note_on_c, 0, 89, 80
2, 441264, Note_off_c, 0, 89, 64
2, 441264, Note_off_c, 0, 86, 64
2, 441600, Note_on_c, 0, 86, 80
2, 441744, Note_off_c, 0, 86, 64
2, 442080, Note_on_c, 0, 86, 80
2, 442224, Note_off_c, 0, 86, 64
2, 442560, Note_on_c, 0, 86, 80
2, 442704, Note_off_c, 0, 86, 64
2, 443040, Note_on_c, 0, 86, 80
2, 443184, Note_off_c, 0, 86, 64
2, 443520, Note_on_c, 0, 86, 80
2, 443664, Note_off_c, 0, 86, 64
2, 444000, Note_on_c, 0, 86, 80
2, 444000, Note_on_c, 0, 89, 80
2, 444144, Note_off_c, 0, 89, 64
2, 444144, Note_off_c, 0, 86, 64
2, 444480, Note_on_c, 0, 74, 80
2, 444480, Note_on_c, 0, 77, 80
2, 444624, Note_off_c, 0, 77, 64
2, 444624, Note_off_c, 0, 74, 64
2, 447840, Note_on_c, 0, 86, 80
2, 447840, Note_on_c, 0, 89, 80
2, 447984, Note_off_c, 0, 89, 64
2, 447984, Note_off_c, 0, 86, 64
2, 448320, Note_on_c, 0, 74, 80
2, 448320, Note_on_c, 0, 77, 80
2, 448464, Note_off_c, 0, 77, 64
2, 448464, Note_off_c, 0, 74, 64
2, 454440, Note_on_c, 0, 83, 85
2, 454560, Note_off_c, 0, 83, 64
2, 454560, Note_on_c, 0, 88, 85
2, 454632, Note_off_c, 0, 88, 64
2, 454920, Note_on_c, 0, 86, 85
2, 455040, Note_off_c, 0, 86, 64
2, 455040, Note_on_c, 0, 85, 74
2, 455112, Note_off_c, 0, 85, 64
2, 455400, Note_on_c, 0, 83, 74
2, 455520, Note_off_c, 0, 83, 64
2, 455520, Note_on_c, 0, 85, 110
2, 455970, Note_off_c, 0, 85, 64
2, 456000, Note_on_c, 0, 83, 89
2, 456072, Note_off_c, 0, 83, 64
2, 456360, Note_on_c, 0, 81, 74
2, 456480, Note_off_c, 0, 81, 64
2, 456480, Note_on_c, 0, 83, 110
2, 456930, Note_off_c, 0, 83, 64
2, 456960, Note_on_c, 0, 81, 89
2, 457032, Note_off_c, 0, 81, 64
2, 457320, Note_on_c, 0, 80, 74
2, 457440, Note_off_c, 0, 80, 64
2, 457440, Note_on_c, 0, 81, 110
2, 457890, Note_off_c, 0, 81, 64
2, 457920, Note_on_c, 0, 83, 89
2, 457992, Note_off_c, 0, 83, 64
2, 458280, Note_on_c, 0, 81, 74
2, 458400, Note_off_c, 0, 81, 64
2, 458400, Note_on_c, 0, 83, 110
2, 458850, Note_off_c, 0, 83, 64
2, 458880, Note_on_c, 0, 85, 52
2, 459106, Note_off_c, 0, 85, 64
2, 463680, Note_on_c, 0, 86, 70
2, 463752, Note_off_c, 0, 86, 64
2, 464040, Note_on_c, 0, 85, 64
2, 464160, Note_off_c, 0, 85, 64
2, 464160, Note_on_c, 0, 83, 64
2, 464232, Note_off_c, 0, 83, 64
2, 464520, Note_on_c, 0, 86, 64
2, 464640, Note_off_c, 0, 86, 64
2, 464640, Note_on_c, 0, 85, 74
2, 464712, Note_off_c, 0, 85, 64
2, 465000, Note_on_c, 0, 83, 74
2, 465120, Note_off_c, 0, 83, 64
2, 465120, Note_on_c, 0, 85, 110
2, 465570, Note_off_c, 0, 85, 64
2, 465600, Note_on_c, 0, 83, 89
2, 465672, Note_off_c, 0, 83, 64
2, 465960, Note_on_c, 0, 81, 74
2, 466080, Note_off_c, 0, 81, 64
2, 466080, Note_on_c, 0, 83, 110
2, 466530, Note_off_c, 0, 83, 64
2, 466560, Note_on_c, 0, 81, 89
2, 466632, Note_off_c, 0, 81, 64
2, 466920, Note_on_c, 0, 80, 74
2, 467040, Note_off_c, 0, 80, 64
2, 467040, Note_on_c, 0, 81, 110
2, 467490, Note_off_c, 0, 81, 64
2, 467520, Note_on_c, 0, 83, 89
2, 467592, Note_off_c, 0, 83, 64
2, 467880, Note_on_c, 0, 81, 74
2, 468000, Note_off_c, 0, 81, 64
2, 468000, Note_on_c, 0, 83, 110
2, 468450, Note_off_c, 0, 83, 64
2, 468480, Note_on_c, 0, 85, 52
2, 468706, Note_off_c, 0, 85, 64
2, 471360, Note_on_c, 0, 83, 85
2, 471432, Note_off_c, 0, 83, 64
2, 471720, Note_on_c, 0, 85, 85
2, 471840, Note_off_c, 0, 85, 64
2, 471840, Note_on_c, 0, 86, 85
2, 471912, Note_off_c, 0, 86, 64
2, 472200, Note_on_c, 0, 83, 85
2, 472320, Note_off_c, 0, 83, 64
2, 472320, Note_on_c, 0, 85, 85
2, 472392, Note_off_c, 0, 85, 64
2, 472680, Note_on_c, 0, 83, 85
2, 472800, Note_off_c, 0, 83, 64
2, 472800, Note_on_c, 0, 81, 85
2, 472872, Note_off_c, 0, 81, 64
2, 473160, Note_on_c, 0, 85, 85
2, 473280, Note_off_c, 0, 85, 64
2, 473280, Note_on_c, 0, 83, 85
2, 473352, Note_off_c, 0, 83, 64
2, 473640, Note_on_c, 0, 85, 85
2, 473760, Note_off_c, 0, 85, 64
2, 473760, Note_on_c, 0, 86, 85
2, 473832, Note_off_c, 0, 86, 64
2, 474120, Note_on_c, 0, 83, 85
2, 474240, Note_off_c, 0, 83, 64
2, 474240, Note_on_c, 0, 85, 85
2, 474312, Note_off_c, 0, 85, 64
2, 474600, Note_on_c, 0, 83, 85
2, 474720, Note_off_c, 0, 83, 64
2, 474720, Note_on_c, 0, 81, 85
2, 474792, Note_off_c, 0, 81, 64
2, 475080, Note_on_c, 0, 85, 85
2, 475200, Note_off_c, 0, 85, 64
2, 475200, Note_on_c, 0, 83, 85
2, 475272, Note_off_c, 0, 83, 64
2, 475560, Note_on_c, 0, 85, 85
2, 475680, Note_off_c, 0, 85, 64
2, 475680, Note_on_c, 0, 86, 85
2, 475752, Note_off_c, 0, 86, 64
2, 476040, Note_on_c, 0, 85, 85
2, 476160, Note_off_c, 0, 85, 64
2, 476160, Note_on_c, 0, 86, 85
2, 476232, Note_off_c, 0, 86, 64
2, 476640, Note_on_c, 0, 86, 48
2, 476640, Note_on_c, 0, 83, 48
2, 480960, Note_off_c, 0, 83, 64
2, 480960, Note_off_c, 0, 86, 64
2, 480960, Note_on_c, 0, 85, 55
2, 480960, Note_on_c, 0, 81, 55
2, 481920, Note_off_c, 0, 81, 64
2, 481920, Note_off_c, 0, 85, 64
2, 481920, Note_on_c, 0, 86, 63
2, 481920, Note_on_c, 0, 83, 63
2, 486720, Note_off_c, 0, 83, 64
2, 486720, Note_off_c, 0, 86, 64
2, 486720, Note_on_c, 0, 85, 72
2, 486720, Note_on_c, 0, 81, 72
2, 487200, Note_off_c, 0, 85, 64
2, 487200, Note_on_c, 0, 88, 83
2, 487650, Note_off_c, 0, 81, 64
2, 487650, Note_off_c, 0, 88, 64
2, 487680, Note_on_c, 0, 88, 96
2, 487824, Note_off_c, 0, 88, 64
2, 487920, Note_on_c, 0, 88, 96
2, 488064, Note_off_c, 0, 88, 64
2, 488160, Note_on_c, 0, 88, 96
2, 488304, Note_off_c, 0, 88, 64
2, 488400, Note_on_c, 0, 88, 96
2, 488544, Note_off_c, 0, 88, 64
2, 488640, Note_on_c, 0, 88, 96
2, 488784, Note_off_c, 0, 88, 64
2, 488880, Note_on_c, 0, 88, 96
2, 489024, Note_off_c, 0, 88, 64
2, 489120, Note_on_c, 0, 88, 96
2, 489264, Note_off_c, 0, 88, 64
2, 489360, Note_on_c, 0, 88, 96
2, 489504, Note_off_c, 0, 88, 64
2, 489600, Note_on_c, 0, 89, 126
2, 489744, Note_off_c, 0, 89, 64
2, 489840, Note_on_c, 0, 89, 96
2, 489984, Note_off_c, 0, 89, 64
2, 490080, Note_on_c, 0, 89, 96
2, 490224, Note_off_c, 0, 89, 64
2, 490320, Note_on_c, 0, 89, 96
2, 490464, Note_off_c, 0, 89, 64
2, 490560, Note_on_c, 0, 88, 96
2, 490704, Note_off_c, 0, 88, 64
2, 490800, Note_on_c, 0, 88, 96
2, 490944, Note_off_c, 0, 88, 64
2, 491040, Note_on_c, 0, 88, 96
2, 491184, Note_off_c, 0, 88, 64
2, 491280, Note_on_c, 0, 88, 96
2, 491424, Note_off_c, 0, 88, 64
2, 491520, Note_on_c, 0, 89, 126
2, 491664, Note_off_c, 0, 89, 64
2, 491760, Note_on_c, 0, 89, 96
2, 491904, Note_off_c, 0, 89, 64
2, 492000, Note_on_c, 0, 89, 96
2, 492144, Note_off_c, 0, 89, 64
2, 492240, Note_on_c, 0, 89, 96
2, 492384, Note_off_c, 0, 89, 64
2, 492480, Note_on_c, 0, 88, 96
2, 492624, Note_off_c, 0, 88, 64
2, 492720, Note_on_c, 0, 88, 96
2, 492864, Note_off_c, 0, 88, 64
2, 492960, Note_on_c, 0, 88, 96
2, 493104, Note_off_c, 0, 88, 64
2, 493200, Note_on_c, 0, 88, 96
2, 493344, Note_off_c, 0, 88, 64
2, 493440, Note_on_c, 0, 88, 127
2, 493584, Note_off_c, 0, 88, 64
2, 493680, Note_on_c, 0, 88, 127
2, 493824, Note_off_c, 0, 88, 64
2, 493920, Note_on_c, 0, 88, 127
2, 494064, Note_off_c, 0, 88, 64
2, 494160, Note_on_c, 0, 88, 127
2, 494304, Note_off_c, 0, 88, 64
2, 494400, Note_on_c, 0, 88, 127
2, 494544, Note_off_c, 0, 88, 64
2, 494640, Note_on_c, 0, 88, 127
2, 494784, Note_off_c, 0, 88, 64
2, 494880, Note_on_c, 0, 88, 127
2, 495024, Note_off_c, 0, 88, 64
2, 495120, Note_on_c, 0, 88, 127
2, 495264, Note_off_c, 0, 88, 64
2, 495360, Note_on_c, 0, 89, 126
2, 495504, Note_off_c, 0, 89, 64
2, 495600, Note_on_c, 0, 89, 96
2, 495744, Note_off_c, 0, 89, 64
2, 495840, Note_on_c, 0, 89, 96
2, 495984, Note_off_c, 0, 89, 64
2, 496080, Note_on_c, 0, 89, 96
2, 496224, Note_off_c, 0, 89, 64
2, 496320, Note_on_c, 0, 88, 96
2, 496464, Note_off_c, 0, 88, 64
2, 496560, Note_on_c, 0, 88, 96
2, 496704, Note_off_c, 0, 88, 64
2, 496800, Note_on_c, 0, 88, 96
2, 496944, Note_off_c, 0, 88, 64
2, 497040, Note_on_c, 0, 88, 96
2, 497184, Note_off_c, 0, 88, 64
2, 497280, Note_on_c, 0, 89, 126
2, 497424, Note_off_c, 0, 89, 64
2, 497520, Note_on_c, 0, 89, 96
2, 497664, Note_off_c, 0, 89, 64
2, 497760, Note_on_c, 0, 89, 96
2, 497904, Note_off_c, 0, 89, 64
2, 498000, Note_on_c, 0, 89, 96
2, 498144, Note_off_c, 0, 89, 64
2, 498240, Note_on_c, 0, 87, 126
2, 498384, Note_off_c, 0, 87, 64
2, 498480, Note_on_c, 0, 87, 96
2, 498624, Note_off_c, 0, 87, 64
2, 498720, Note_on_c, 0, 87, 96
2, 498864, Note_off_c, 0, 87, 64
2, 498960, Note_on_c, 0, 87, 96
2, 499104, Note_off_c, 0, 87, 64
2, 499200, Note_on_c, 0, 88, 126
2, 499320, Note_off_c, 0, 88, 64
2, 499440, Note_on_c, 0, 88, 96
2, 499560, Note_off_c, 0, 88, 64
2, 499680, Note_on_c, 0, 88, 96
2, 499800, Note_off_c, 0, 88, 64
2, 499920, Note_on_c, 0, 88, 96
2, 500040, Note_off_c, 0, 88, 64
2, 500160, Note_on_c, 0, 88, 126
2, 500280, Note_off_c, 0, 88, 64
2, 500400, Note_on_c, 0, 88, 96
2, 500520, Note_off_c, 0, 88, 64
2, 500640, Note_on_c, 0, 88, 96
2, 500760, Note_off_c, 0, 88, 64
2, 500880, Note_on_c, 0, 88, 96
2, 501000, Note_off_c, 0, 88, 64
2, 501120, Note_on_c, 0, 88, 96
2, 501240, Note_off_c, 0, 88, 64
2, 501360, Note_on_c, 0, 88, 96
2, 501480, Note_off_c, 0, 88, 64
2, 501600, Note_on_c, 0, 89, 126
2, 501720, Note_off_c, 0, 89, 64
2, 501840, Note_on_c, 0, 89, 96
2, 501960, Note_off_c, 0, 89, 64
2, 502080, Note_on_c, 0, 89, 96
2, 502200, Note_off_c, 0, 89, 64
2, 502320, Note_on_c, 0, 89, 96
2, 502440, Note_off_c, 0, 89, 64
2, 502560, Note_on_c, 0, 89, 96
2, 502680, Note_off_c, 0, 89, 64
2, 502800, Note_on_c, 0, 89, 96
2, 502920, Note_off_c, 0, 89, 64
2, 503040, Note_on_c, 0, 88, 96
2, 503160, Note_off_c, 0, 88, 64
2, 503280, Note_on_c, 0, 88, 96
2, 503400, Note_off_c, 0, 88, 64
2, 503520, Note_on_c, 0, 89, 126
2, 503640, Note_off_c, 0, 89, 64
2, 503760, Note_on_c, 0, 89, 96
2, 503880, Note_off_c, 0, 89, 64
2, 504000, Note_on_c, 0, 89, 96
2, 504120, Note_off_c, 0, 89, 64
2, 504240, Note_on_c, 0, 89, 96
2, 504360, Note_off_c, 0, 89, 64
2, 504480, Note_on_c, 0, 89, 96
2, 504600, Note_off_c, 0, 89, 64
2, 504720, Note_on_c, 0, 89, 96
2, 504840, Note_off_c, 0, 89, 64
2, 504960, Note_on_c, 0, 88, 96
2, 505080, Note_off_c, 0, 88, 64
2, 505200, Note_on_c, 0, 88, 96
2, 505320, Note_off_c, 0, 88, 64
2, 505440, Note_on_c, 0, 89, 126
2, 505560, Note_off_c, 0, 89, 64
2, 505680, Note_on_c, 0, 89, 96
2, 505800, Note_off_c, 0, 89, 64
2, 505920, Note_on_c, 0, 88, 96
2, 506040, Note_off_c, 0, 88, 64
2, 506160, Note_on_c, 0, 88, 96
2, 506280, Note_off_c, 0, 88, 64
2, 506400, Note_on_c, 0, 89, 126
2, 506520, Note_off_c, 0, 89, 64
2, 506640, Note_on_c, 0, 89, 96
2, 506760, Note_off_c, 0, 89, 64
2, 506880, Note_on_c, 0, 88, 96
2, 507000, Note_off_c, 0, 88, 64
2, 507120, Note_on_c, 0, 88, 96
2, 507240, Note_off_c, 0, 88, 64
2, 507360, Note_on_c, 0, 89, 126
2, 507480, Note_off_c, 0, 89, 64
2, 507600, Note_on_c, 0, 89, 96
2, 507720, Note_off_c, 0, 89, 64
2, 507840, Note_on_c, 0, 88, 96
2, 507960, Note_off_c, 0, 88, 64
2, 508080, Note_on_c, 0, 88, 96
2, 508200, Note_off_c, 0, 88, 64
2, 508320, Note_on_c, 0, 88, 96
2, 508440, Note_off_c, 0, 88, 64
2, 508560, Note_on_c, 0, 88, 96
2, 508680, Note_off_c, 0, 88, 64
2, 508800, Note_on_c, 0, 88, 96
2, 508920, Note_off_c, 0, 88, 64
2, 509100, Note_on_c, 0, 93, 54
2, 509100, Note_on_c, 0, 81, 54
2, 509214, Note_off_c, 0, 81, 64
2, 509214, Note_off_c, 0, 93, 64
2, 509220, Note_on_c, 0, 81, 54
2, 509220, Note_on_c, 0, 93, 54
2, 509334, Note_off_c, 0, 93, 64
2, 509334, Note_off_c, 0, 81, 64
2, 509340, Note_on_c, 0, 81, 72
2, 509340, Note_on_c, 0, 93, 72
2, 509454, Note_off_c, 0, 93, 64
2, 509454, Note_off_c, 0, 81, 64
2, 511380, Note_on_c, 0, 88, 54
2, 511380, Note_on_c, 0, 91, 54
2, 511494, Note_off_c, 0, 91, 64
2, 511494, Note_off_c, 0, 88, 64
2, 511500, Note_on_c, 0, 91, 54
2, 511500, Note_on_c, 0, 88, 54
2, 511614, Note_off_c, 0, 88, 64
2, 511614, Note_off_c, 0, 91, 64
2, 511620, Note_on_c, 0, 88, 72
2, 511620, Note_on_c, 0, 91, 72
2, 511734, Note_off_c, 0, 91, 64
2, 511734, Note_off_c, 0, 88, 64
2, 513660, Note_on_c, 0, 91, 54
2, 513660, Note_on_c, 0, 88, 54
2, 513774, Note_off_c, 0, 88, 64
2, 513774, Note_off_c, 0, 91, 64
2, 513780, Note_on_c, 0, 88, 54
2, 513780, Note_on_c, 0, 91, 54
2, 513894, Note_off_c, 0, 91, 64
2, 513894, Note_off_c, 0, 88, 64
2, 513900, Note_on_c, 0, 88, 72
2, 513900, Note_on_c, 0, 91, 72
2, 514014, Note_off_c, 0, 91, 64
2, 514014, Note_off_c, 0, 88, 64
2, 514740, Note_on_c, 0, 91, 54
2, 514740, Note_on_c, 0, 88, 54
2, 514854, Note_off_c, 0, 88, 64
2, 514854, Note_off_c, 0, 91, 64
2, 514860, Note_on_c, 0, 88, 54
2, 514860, Note_on_c, 0, 91, 54
2, 514974, Note_off_c, 0, 91, 64
2, 514974, Note_off_c, 0, 88, 64
2, 514980, Note_on_c, 0, 88, 72
2, 514980, Note_on_c, 0, 91, 72
2, 515094, Note_off_c, 0, 91, 64
2, 515094, Note_off_c, 0, 88, 64
2, 515820, Note_on_c, 0, 91, 54
2, 515820, Note_on_c, 0, 88, 54
2, 515934, Note_off_c, 0, 88, 64
2, 515934, Note_off_c, 0, 91, 64
2, 515940, Note_on_c, 0, 88, 54
2, 515940, Note_on_c, 0, 91, 54
2, 516054, Note_off_c, 0, 91, 64
2, 516054, Note_off_c, 0, 88, 64
2, 516060, Note_on_c, 0, 88, 72
2, 516060, Note_on_c, 0, 91, 72
2, 516174, Note_off_c, 0, 91, 64
2, 516174, Note_off_c, 0, 88, 64
2, 516900, Note_on_c, 0, 91, 54
2, 516900, Note_on_c, 0, 88, 54
2, 517014, Note_off_c, 0, 88, 64
2, 517014, Note_off_c, 0, 91, 64
2, 517020, Note_on_c, 0, 88, 54
2, 517020, Note_on_c, 0, 91, 54
2, 517134, Note_off_c, 0, 91, 64
2, 517134, Note_off_c, 0, 88, 64
2, 517140, Note_on_c, 0, 88, 72
2, 517140, Note_on_c, 0, 91, 72
2, 517254, Note_off_c, 0, 91, 64
2, 517254, Note_off_c, 0, 88, 64
2, 517680, Note_on_c, 0, 90, 54
2, 517680, Note_on_c, 0, 85, 54
2, 517776, Note_off_c, 0, 85, 64
2, 517776, Note_off_c, 0, 90, 64
2, 520920, Note_on_c, 0, 82, 75
2, 521040, Note_off_c, 0, 82, 64
2, 521040, Note_on_c, 0, 83, 75
2, 521160, Note_off_c, 0, 83, 64
2, 521160, Note_on_c, 0, 82, 75
2, 521160, Note_on_c, 0, 86, 89
2, 521280, Note_off_c, 0, 86, 64
2, 521280, Note_on_c, 0, 85, 89
2, 521400, Note_off_c, 0, 85, 64
2, 521400, Note_on_c, 0, 83, 89
2, 521520, Note_off_c, 0, 83, 64
2, 521520, Note_on_c, 0, 85, 89
2, 521640, Note_off_c, 0, 82, 64
2, 521640, Note_off_c, 0, 85, 64
2, 521640, Note_on_c, 0, 83, 75
2, 521640, Note_on_c, 0, 86, 89
2, 521760, Note_off_c, 0, 86, 64
2, 521760, Note_off_c, 0, 83, 64
2, 524760, Note_on_c, 0, 82, 75
2, 524880, Note_off_c, 0, 82, 64
2, 524880, Note_on_c, 0, 83, 75
2, 525000, Note_off_c, 0, 83, 64
2, 525000, Note_on_c, 0, 86, 89
2, 525000, Note_on_c, 0, 82, 75
2, 525120, Note_off_c, 0, 86, 64
2, 525120, Note_on_c, 0, 85, 89
2, 525240, Note_off_c, 0, 85, 64
2, 525240, Note_on_c, 0, 83, 89
2, 525360, Note_off_c, 0, 83, 64
2, 525360, Note_on_c, 0, 85, 89
2, 525480, Note_off_c, 0, 82, 64
2, 525480, Note_off_c, 0, 85, 64
2, 525480, Note_on_c, 0, 83, 75
2, 525480, Note_on_c, 0, 86, 89
2, 525600, Note_off_c, 0, 86, 64
2, 525600, Note_off_c, 0, 83, 64
2, 534120, Note_on_c, 0, 86, 35
2, 539370, Note_off_c, 0, 86, 64
2, 539400, Note_on_c, 0, 89, 50
2, 539400, Note_on_c, 0, 86, 50
2, 541320, Note_off_c, 0, 86, 64
2, 541320, Note_off_c, 0, 89, 64
2, 541320, Note_on_c, 0, 84, 50
2, 541320, Note_on_c, 0, 87, 50
2, 547050, Note_off_c, 0, 87, 64
2, 547050, Note_off_c, 0, 84, 64
2, 547080, Note_on_c, 0, 85, 50
2, 547080, Note_on_c, 0, 82, 50
2, 550890, Note_off_c, 0, 82, 64
2, 550890, Note_off_c, 0, 85, 64
2, 550920, Note_on_c, 0, 84, 50
2, 550920, Note_on_c, 0, 81, 50
2, 558120, Note_off_c, 0, 81, 64
2, 558120, Note_off_c, 0, 84, 64
2, 558120, Note_on_c, 0, 86, 65
2, 558120, Note_on_c, 0, 83, 65
2, 560040, Note_off_c, 0, 83, 64
2, 560040, Note_off_c, 0, 86, 64
2, 560040, Note_on_c, 0, 85, 65
2, 560040, Note_on_c, 0, 81, 65
2, 561960, Note_off_c, 0, 81, 64
2, 561960, Note_off_c, 0, 85, 64
2, 561960, Note_on_c, 0, 83, 65
2, 561960, Note_on_c, 0, 86, 65
2, 563880, Note_off_c, 0, 86, 64
2, 563880, Note_off_c, 0, 83, 64
2, 563880, Note_on_c, 0, 85, 65
2, 563880, Note_on_c, 0, 88, 65
2, 564360, Note_off_c, 0, 85, 64
2, 564360, Note_on_c, 0, 76, 65
2, 571368, Note_off_c, 0, 88, 64
2, 571368, Note_off_c, 0, 76, 64
2, 571560, Note_on_c, 0, 81, 72
2, 571560, Note_on_c, 0, 76, 72
2, 571680, Note_off_c, 0, 76, 64
2, 571680, Note_off_c, 0, 81, 64
2, 571860, Note_on_c, 0, 81, 72
2, 571920, Note_off_c, 0, 81, 64
2, 571980, Note_on_c, 0, 81, 72
2, 572040, Note_off_c, 0, 81, 64
2, 572100, Note_on_c, 0, 81, 72
2, 572220, Note_off_c, 0, 81, 64
2, 572940, Note_on_c, 0, 81, 72
2, 573054, Note_off_c, 0, 81, 64
2, 573060, Note_on_c, 0, 81, 72
2, 573174, Note_off_c, 0, 81, 64
2, 573180, Note_on_c, 0, 81, 72
2, 573294, Note_off_c, 0, 81, 64
2, 574020, Note_on_c, 0, 83, 72
2, 574020, Note_on_c, 0, 86, 72
2, 574080, Note_off_c, 0, 86, 64
2, 574080, Note_off_c, 0, 83, 64
2, 574140, Note_on_c, 0, 83, 72
2, 574140, Note_on_c, 0, 86, 72
2, 574200, Note_off_c, 0, 86, 64
2, 574200, Note_off_c, 0, 83, 64
2, 574260, Note_on_c, 0, 86, 72
2, 574260, Note_on_c, 0, 83, 72
2, 574380, Note_off_c, 0, 83, 64
2, 574380, Note_off_c, 0, 86, 64
2, 575100, Note_on_c, 0, 83, 72
2, 575100, Note_on_c, 0, 86, 72
2, 575160, Note_off_c, 0, 86, 64
2, 575160, Note_off_c, 0, 83, 64
2, 575220, Note_on_c, 0, 83, 72
2, 575220, Note_on_c, 0, 86, 72
2, 575280, Note_off_c, 0, 86, 64
2, 575280, Note_off_c, 0, 83, 64
2, 575340, Note_on_c, 0, 86, 72
2, 575340, Note_on_c, 0, 83, 72
2, 575460, Note_off_c, 0, 83, 64
2, 575460, Note_off_c, 0, 86, 64
2, 575880, Note_on_c, 0, 76, 54
2, 575880, Note_on_c, 0, 85, 54
2, 576456, Note_off_c, 0, 85, 64
2, 576456, Note_off_c, 0, 76, 64
2, 576600, Note_on_c, 0, 83, 54
2, 576600, Note_on_c, 0, 74, 54
2, 576720, Note_off_c, 0, 74, 64
2, 576720, Note_off_c, 0, 83, 64
2, 576840, Note_on_c, 0, 73, 54
2, 576840, Note_on_c, 0, 81, 54
2, 576960, Note_off_c, 0, 81, 64
2, 576960, Note_off_c, 0, 73, 64
2, 577080, Note_on_c, 0, 85, 54
2, 577080, Note_on_c, 0, 76, 54
2, 577200, Note_off_c, 0, 76, 64
2, 577200, Note_off_c, 0, 85, 64
2, 577320, Note_on_c, 0, 83, 54
2, 577320, Note_on_c, 0, 74, 54
2, 577440, Note_off_c, 0, 74, 64
2, 577440, Note_off_c, 0, 83, 64
2, 577560, Note_on_c, 0, 73, 54
2, 577560, Note_on_c, 0, 81, 54
2, 577680, Note_off_c, 0, 81, 64
2, 577680, Note_off_c, 0, 73, 64
2, 577800, Note_on_c, 0, 83, 54
2, 577800, Note_on_c, 0, 74, 54
2, 577920, Note_off_c, 0, 74, 64
2, 577920, Note_off_c, 0, 83, 64
2, 578040, Note_on_c, 0, 85, 72
2, 578040, Note_on_c, 0, 93, 72
2, 578160, Note_off_c, 0, 93, 64
2, 578160, Note_off_c, 0, 85, 64
2, 578280, Note_on_c, 0, 88, 72
2, 578280, Note_on_c, 0, 92, 72
2, 578400, Note_off_c, 0, 92, 64
2, 578400, Note_off_c, 0, 88, 64
2, 578520, Note_on_c, 0, 86, 72
2, 578520, Note_on_c, 0, 90, 72
2, 578640, Note_off_c, 0, 90, 64
2, 578640, Note_off_c, 0, 86, 64
2, 578760, Note_on_c, 0, 88, 72
2, 578760, Note_on_c, 0, 85, 72
2, 578880, Note_off_c, 0, 85, 64
2, 578880, Note_off_c, 0, 88, 64
2, 579000, Note_on_c, 0, 83, 72
2, 579000, Note_on_c, 0, 86, 72
2, 579120, Note_off_c, 0, 86, 64
2, 579120, Note_off_c, 0, 83, 64
2, 579240, Note_on_c, 0, 81, 72
2, 579240, Note_on_c, 0, 85, 72
2, 579360, Note_off_c, 0, 85, 64
2, 579360, Note_off_c, 0, 81, 64
2, 579480, Note_on_c, 0, 83, 72
2, 579480, Note_on_c, 0, 80, 72
2, 579600, Note_off_c, 0, 80, 64
2, 579600, Note_off_c, 0, 83, 64
2, 579720, Note_on_c, 0, 81, 72
2, 579720, Note_on_c, 0, 76, 72
2, 579840, Note_off_c, 0, 76, 64
2, 579840, Note_off_c, 0, 81, 64
2, 580020, Note_on_c, 0, 81, 72
2, 580080, Note_off_c, 0, 81, 64
2, 580140, Note_on_c, 0, 81, 72
2, 580200, Note_off_c, 0, 81, 64
2, 580260, Note_on_c, 0, 81, 72
2, 580380, Note_off_c, 0, 81, 64
2, 581100, Note_on_c, 0, 81, 72
2, 581214, Note_off_c, 0, 81, 64
2, 581220, Note_on_c, 0, 81, 72
2, 581334, Note_off_c, 0, 81, 64
2, 581340, Note_on_c, 0, 81, 72
2, 581454, Note_off_c, 0, 81, 64
2, 582180, Note_on_c, 0, 83, 72
2, 582180, Note_on_c, 0, 86, 72
2, 582240, Note_off_c, 0, 86, 64
2, 582240, Note_off_c, 0, 83, 64
2, 582300, Note_on_c, 0, 83, 72
2, 582300, Note_on_c, 0, 86, 72
2, 582360, Note_off_c, 0, 86, 64
2, 582360, Note_off_c, 0, 83, 64
2, 582420, Note_on_c, 0, 83, 72
2, 582420, Note_on_c, 0, 86, 72
2, 582540, Note_off_c, 0, 86, 64
2, 582540, Note_off_c, 0, 83, 64
2, 583260, Note_on_c, 0, 83, 72
2, 583260, Note_on_c, 0, 86, 72
2, 583320, Note_off_c, 0, 86, 64
2, 583320, Note_off_c, 0, 83, 64
2, 583380, Note_on_c, 0, 86, 72
2, 583380, Note_on_c, 0, 83, 72
2, 583440, Note_off_c, 0, 83, 64
2, 583440, Note_off_c, 0, 86, 64
2, 583500, Note_on_c, 0, 86, 72
2, 583500, Note_on_c, 0, 83, 72
2, 583620, Note_off_c, 0, 83, 64
2, 583620, Note_off_c, 0, 86, 64
2, 584040, Note_on_c, 0, 88, 80
2, 584232, Note_off_c, 0, 88, 64
2, 584520, Note_on_c, 0, 88, 80
2, 584712, Note_off_c, 0, 88, 64
2, 585000, Note_on_c, 0, 88, 80
2, 585192, Note_off_c, 0, 88, 64
2, 585480, Note_on_c, 0, 88, 80
2, 585672, Note_off_c, 0, 88, 64
2, 585960, Note_on_c, 0, 88, 64
2, 586152, Note_off_c, 0, 88, 64
2, 586440, Note_on_c, 0, 88, 61
2, 586632, Note_off_c, 0, 88, 64
2, 586920, Note_on_c, 0, 88, 57
2, 587112, Note_off_c, 0, 88, 64
2, 587400, Note_on_c, 0, 88, 53
2, 587592, Note_off_c, 0, 88, 64
2, 587880, Note_on_c, 0, 85, 64
2, 587880, Note_on_c, 0, 81, 64
2, 588072, Note_off_c, 0, 81, 64
2, 588072, Note_off_c, 0, 85, 64
2, 588360, Note_on_c, 0, 85, 61
2, 588360, Note_on_c, 0, 81, 61
2, 588552, Note_off_c, 0, 81, 64
2, 588552, Note_off_c, 0, 85, 64
2, 588840, Note_on_c, 0, 85, 57
2, 588840, Note_on_c, 0, 81, 57
2, 589032, Note_off_c, 0, 81, 64
2, 589032, Note_off_c, 0, 85, 64
2, 589320, Note_on_c, 0, 81, 53
2, 589320, Note_on_c, 0, 85, 53
2, 589512, Note_off_c, 0, 85, 64
2, 589512, Note_off_c, 0, 81, 64
2, 589800, Note_on_c, 0, 83, 64
2, 589800, Note_on_c, 0, 86, 64
2, 589992, Note_off_c, 0, 86, 64
2, 589992, Note_off_c, 0, 83, 64
2, 590280, Note_on_c, 0, 86, 61
2, 590280, Note_on_c, 0, 83, 61
2, 590472, Note_off_c, 0, 83, 64
2, 590472, Note_off_c, 0, 86, 64
2, 590760, Note_on_c, 0, 83, 57
2, 590760, Note_on_c, 0, 86, 57
2, 590952, Note_off_c, 0, 86, 64
2, 590952, Note_off_c, 0, 83, 64
2, 591240, Note_on_c, 0, 86, 53
2, 591240, Note_on_c, 0, 83, 53
2, 591432, Note_off_c, 0, 83, 64
2, 591432, Note_off_c, 0, 86, 64
2, 591720, Note_on_c, 0, 88, 64
2, 591720, Note_on_c, 0, 85, 64
2, 591912, Note_off_c, 0, 85, 64
2, 591912, Note_off_c, 0, 88, 64
2, 592200, Note_on_c, 0, 88, 61
2, 592200, Note_on_c, 0, 85, 61
2, 592392, Note_off_c, 0, 85, 64
2, 592392, Note_off_c, 0, 88, 64
2, 592680, Note_on_c, 0, 88, 57
2, 592680, Note_on_c, 0, 85, 57
2, 592872, Note_off_c, 0, 85, 64
2, 592872, Note_off_c, 0, 88, 64
2, 593160, Note_on_c, 0, 88, 53
2, 593160, Note_on_c, 0, 85, 53
2, 593352, Note_off_c, 0, 85, 64
2, 593352, Note_off_c, 0, 88, 64
2, 593640, Note_on_c, 0, 91, 90
2, 595368, Note_off_c, 0, 91, 64
2, 595560, Note_on_c, 0, 90, 120
2, 595668, Note_off_c, 0, 90, 64
2, 595800, Note_on_c, 0, 88, 120
2, 595908, Note_off_c, 0, 88, 64
2, 596040, Note_on_c, 0, 86, 120
2, 596148, Note_off_c, 0, 86, 64
2, 596280, Note_on_c, 0, 85, 120
2, 596388, Note_off_c, 0, 85, 64
2, 596520, Note_on_c, 0, 83, 120
2, 596628, Note_off_c, 0, 83, 64
2, 596760, Note_on_c, 0, 81, 120
2, 596868, Note_off_c, 0, 81, 64
2, 597000, Note_on_c, 0, 79, 120
2, 597108, Note_off_c, 0, 79, 64
2, 597240, Note_on_c, 0, 90, 120
2, 597348, Note_off_c, 0, 90, 64
2, 597480, Note_on_c, 0, 88, 80
2, 598392, Note_off_c, 0, 88, 64
2, 598440, Note_on_c, 0, 86, 80
2, 598440, Note_on_c, 0, 90, 80
2, 599352, Note_off_c, 0, 90, 64
2, 599352, Note_off_c, 0, 86, 64
2, 599400, Note_on_c, 0, 85, 80
2, 599400, Note_on_c, 0, 88, 80
2, 600312, Note_off_c, 0, 88, 64
2, 600312, Note_off_c, 0, 85, 64
2, 600360, Note_on_c, 0, 83, 80
2, 600360, Note_on_c, 0, 88, 80
2, 601272, Note_off_c, 0, 88, 64
2, 601272, Note_off_c, 0, 83, 64
2, 601320, Note_on_c, 0, 83, 74
2, 601440, Note_off_c, 0, 83, 64
2, 601560, Note_on_c, 0, 81, 74
2, 601680, Note_off_c, 0, 81, 64
2, 601800, Note_on_c, 0, 80, 74
2, 601920, Note_off_c, 0, 80, 64
2, 602040, Note_on_c, 0, 78, 74
2, 602160, Note_off_c, 0, 78, 64
2, 602280, Note_on_c, 0, 76, 74
2, 602400, Note_off_c, 0, 76, 64
2, 602520, Note_on_c, 0, 74, 74
2, 602640, Note_off_c, 0, 74, 64
2, 602760, Note_on_c, 0, 73, 74
2, 602880, Note_off_c, 0, 73, 64
2, 603000, Note_on_c, 0, 71, 74
2, 603120, Note_off_c, 0, 71, 64
2, 603240, Note_on_c, 0, 73, 74
2, 603360, Note_off_c, 0, 73, 64
2, 603480, Note_on_c, 0, 74, 74
2, 603600, Note_off_c, 0, 74, 64
2, 603720, Note_on_c, 0, 76, 74
2, 603840, Note_off_c, 0, 76, 64
2, 603960, Note_on_c, 0, 78, 74
2, 604080, Note_off_c, 0, 78, 64
2, 604200, Note_on_c, 0, 80, 74
2, 604320, Note_off_c, 0, 80, 64
2, 604440, Note_on_c, 0, 81, 74
2, 604560, Note_off_c, 0, 81, 64
2, 604680, Note_on_c, 0, 83, 74
2, 604800, Note_off_c, 0, 83, 64
2, 604920, Note_on_c, 0, 85, 74
2, 605040, Note_off_c, 0, 85, 64
2, 605160, Note_on_c, 0, 86, 64
2, 605280, Note_off_c, 0, 86, 64
2, 605400, Note_on_c, 0, 85, 67
2, 605520, Note_off_c, 0, 85, 64
2, 605640, Note_on_c, 0, 83, 70
2, 605760, Note_off_c, 0, 83, 64
2, 605880, Note_on_c, 0, 81, 74
2, 606000, Note_off_c, 0, 81, 64
2, 606120, Note_on_c, 0, 80, 77
2, 606240, Note_off_c, 0, 80, 64
2, 606360, Note_on_c, 0, 78, 80
2, 606480, Note_off_c, 0, 78, 64
2, 606600, Note_on_c, 0, 76, 83
2, 606720, Note_off_c, 0, 76, 64
2, 606840, Note_on_c, 0, 74, 86
2, 606960, Note_off_c, 0, 74, 64
2, 607080, Note_on_c, 0, 76, 90
2, 607200, Note_off_c, 0, 76, 64
2, 607320, Note_on_c, 0, 78, 93
2, 607440, Note_off_c, 0, 78, 64
2, 607560, Note_on_c, 0, 80, 96
2, 607680, Note_off_c, 0, 80, 64
2, 607800, Note_on_c, 0, 81, 99
2, 607920, Note_off_c, 0, 81, 64
2, 608040, Note_on_c, 0, 83, 102
2, 608160, Note_off_c, 0, 83, 64
2, 608280, Note_on_c, 0, 85, 106
2, 608400, Note_off_c, 0, 85, 64
2, 608520, Note_on_c, 0, 86, 109
2, 608640, Note_off_c, 0, 86, 64
2, 608760, Note_on_c, 0, 88, 112
2, 608880, Note_off_c, 0, 88, 64
2, 609000, Note_on_c, 0, 91, 90
2, 610728, Note_off_c, 0, 91, 64
2, 610920, Note_on_c, 0, 90, 120
2, 611028, Note_off_c, 0, 90, 64
2, 611160, Note_on_c, 0, 88, 120
2, 611268, Note_off_c, 0, 88, 64
2, 611400, Note_on_c, 0, 86, 120
2, 611508, Note_off_c, 0, 86, 64
2, 611640, Note_on_c, 0, 85, 120
2, 611748, Note_off_c, 0, 85, 64
2, 611880, Note_on_c, 0, 83, 120
2, 611988, Note_off_c, 0, 83, 64
2, 612120, Note_on_c, 0, 81, 120
2, 612228, Note_off_c, 0, 81, 64
2, 612360, Note_on_c, 0, 79, 120
2, 612468, Note_off_c, 0, 79, 64
2, 612600, Note_on_c, 0, 90, 120
2, 612708, Note_off_c, 0, 90, 64
2, 612840, Note_on_c, 0, 88, 80
2, 613752, Note_off_c, 0, 88, 64
2, 613800, Note_on_c, 0, 86, 80
2, 613800, Note_on_c, 0, 90, 80
2, 614712, Note_off_c, 0, 90, 64
2, 614712, Note_off_c, 0, 86, 64
2, 614760, Note_on_c, 0, 85, 80
2, 614760, Note_on_c, 0, 88, 80
2, 615672, Note_off_c, 0, 88, 64
2, 615672, Note_off_c, 0, 85, 64
2, 615720, Note_on_c, 0, 83, 80
2, 615720, Note_on_c, 0, 88, 80
2, 616632, Note_off_c, 0, 88, 64
2, 616632, Note_off_c, 0, 83, 64
2, 616680, Note_on_c, 0, 81, 80
2, 616680, Note_on_c, 0, 88, 80
2, 616800, Note_off_c, 0, 88, 64
2, 616800, Note_off_c, 0, 81, 64
2, 617640, Note_on_c, 0, 88, 76
2, 618120, Note_on_c, 0, 86, 76
2, 618120, Note_on_c, 0, 83, 76
2, 618576, Note_off_c, 0, 83, 64
2, 618576, Note_off_c, 0, 86, 64
2, 618600, Note_on_c, 0, 81, 76
2, 618600, Note_on_c, 0, 85, 76
2, 619056, Note_off_c, 0, 85, 64
2, 619056, Note_off_c, 0, 81, 64
2, 619080, Note_on_c, 0, 83, 76
2, 619080, Note_on_c, 0, 76, 76
2, 619536, Note_off_c, 0, 76, 64
2, 619536, Note_off_c, 0, 83, 64
2, 619560, Note_on_c, 0, 73, 76
2, 619560, Note_on_c, 0, 81, 76
2, 619944, Note_off_c, 0, 88, 64
2, 620016, Note_off_c, 0, 73, 64
2, 620016, Note_off_c, 0, 81, 64
2, 620040, Note_on_c, 0, 83, 76
2, 620040, Note_on_c, 0, 76, 76
2, 620040, Note_on_c, 0, 88, 38
2, 620424, Note_off_c, 0, 88, 64
2, 620496, Note_off_c, 0, 76, 64
2, 620496, Note_off_c, 0, 83, 64
2, 620520, Note_on_c, 0, 81, 80
2, 620520, Note_on_c, 0, 88, 80
2, 620640, Note_off_c, 0, 88, 64
2, 620640, Note_off_c, 0, 81, 64
2, 621480, Note_on_c, 0, 88, 76
2, 621960, Note_on_c, 0, 86, 76
2, 621960, Note_on_c, 0, 83, 76
2, 622416, Note_off_c, 0, 83, 64
2, 622416, Note_off_c, 0, 86, 64
2, 622440, Note_on_c, 0, 81, 76
2, 622440, Note_on_c, 0, 85, 76
2, 622896, Note_off_c, 0, 85, 64
2, 622896, Note_off_c, 0, 81, 64
2, 622920, Note_on_c, 0, 83, 76
2, 622920, Note_on_c, 0, 76, 76
2, 623376, Note_off_c, 0, 76, 64
2, 623376, Note_off_c, 0, 83, 64
2, 623400, Note_on_c, 0, 73, 76
2, 623400, Note_on_c, 0, 81, 76
2, 623784, Note_off_c, 0, 88, 64
2, 623856, Note_off_c, 0, 73, 64
2, 623856, Note_off_c, 0, 81, 64
2, 623880, Note_on_c, 0, 83, 76
2, 623880, Note_on_c, 0, 76, 76
2, 623880, Note_on_c, 0, 88, 38
2, 624264, Note_off_c, 0, 88, 64
2, 624336, Note_off_c, 0, 76, 64
2, 624336, Note_off_c, 0, 83, 64
2, 624360, Note_on_c, 0, 83, 102
2, 624480, Note_off_c, 0, 83, 64
2, 624600, Note_on_c, 0, 83, 102
2, 624720, Note_off_c, 0, 83, 64
2, 624840, Note_on_c, 0, 83, 102
2, 624960, Note_off_c, 0, 83, 64
2, 625080, Note_on_c, 0, 83, 102
2, 625200, Note_off_c, 0, 83, 64
2, 625320, Note_on_c, 0, 83, 102
2, 625440, Note_off_c, 0, 83, 64
2, 625560, Note_on_c, 0, 83, 102
2, 625680, Note_off_c, 0, 83, 64
2, 625800, Note_on_c, 0, 83, 102
2, 625920, Note_off_c, 0, 83, 64
2, 626040, Note_on_c, 0, 83, 102
2, 626160, Note_off_c, 0, 83, 64
2, 626280, Note_on_c, 0, 83, 102
2, 626400, Note_off_c, 0, 83, 64
2, 626520, Note_on_c, 0, 83, 102
2, 626640, Note_off_c, 0, 83, 64
2, 626760, Note_on_c, 0, 83, 127
2, 626880, Note_off_c, 0, 83, 64
2, 627000, Note_on_c, 0, 85, 127
2, 627120, Note_off_c, 0, 85, 64
2, 627240, Note_on_c, 0, 86, 127
2, 627360, Note_off_c, 0, 86, 64
2, 627480, Note_on_c, 0, 88, 127
2, 627600, Note_off_c, 0, 88, 64
2, 627720, Note_on_c, 0, 90, 127
2, 627720, Note_on_c, 0, 88, 102
2, 627840, Note_off_c, 0, 88, 64
2, 627840, Note_off_c, 0, 90, 64
2, 627960, Note_on_c, 0, 88, 102
2, 627960, Note_on_c, 0, 92, 127
2, 628080, Note_off_c, 0, 92, 64
2, 628080, Note_off_c, 0, 88, 64
2, 628200, Note_on_c, 0, 93, 99
2, 628200, Note_on_c, 0, 81, 99
2, 628392, Note_off_c, 0, 81, 64
2, 628392, Note_off_c, 0, 93, 64
2, 629040, Note_on_c, 0, 88, 80
2, 629040, Note_on_c, 0, 93, 80
2, 629136, Note_off_c, 0, 93, 64
2, 629136, Note_off_c, 0, 88, 64
2, 629160, Note_on_c, 0, 88, 80
2, 629160, Note_on_c, 0, 93, 80
2, 629256, Note_off_c, 0, 93, 64
2, 629256, Note_off_c, 0, 88, 64
2, 629280, Note_on_c, 0, 93, 99
2, 629280, Note_on_c, 0, 81, 99
2, 629472, Note_off_c, 0, 81, 64
2, 629472, Note_off_c, 0, 93, 64
2, 630240, Note_on_c, 0, 88, 80
2, 630240, Note_on_c, 0, 93, 80
2, 630336, Note_off_c, 0, 93, 64
2, 630336, Note_off_c, 0, 88, 64
2, 630360, Note_on_c, 0, 93, 80
2, 630360, Note_on_c, 0, 88, 80
2, 630456, Note_off_c, 0, 88, 64
2, 630456, Note_off_c, 0, 93, 64
2, 630480, Note_on_c, 0, 81, 99
2, 630480, Note_on_c, 0, 93, 99
2, 630672, Note_off_c, 0, 93, 64
2, 630672, Note_off_c, 0, 81, 64
2, 630672, End_track
3, 0, Start_track
3, 0, Title_t, "Oboe"
3, 0, MIDI_port, 0
3, 0, Channel_prefix, 1
3, 0, Control_c, 1, 7, 90
3, 0, Control_c, 1, 10, 70
3, 0, Program_c, 1, 68
3, 0, Program_c, 1, 68
3, 0, Control_c, 1, 91, 66
3, 480, Control_c, 1, 10, 71
3, 6060, Note_on_c, 1, 76, 54
3, 6174, Note_off_c, 1, 76, 64
3, 6180, Note_on_c, 1, 76, 54
3, 6294, Note_off_c, 1, 76, 64
3, 6300, Note_on_c, 1, 76, 72
3, 6414, Note_off_c, 1, 76, 64
3, 8460, Note_on_c, 1, 83, 41
3, 8460, Note_on_c, 1, 86, 41
3, 8574, Note_off_c, 1, 86, 64
3, 8574, Note_off_c, 1, 83, 64
3, 8580, Note_on_c, 1, 86, 41
3, 8580, Note_on_c, 1, 83, 41
3, 8694, Note_off_c, 1, 83, 64
3, 8694, Note_off_c, 1, 86, 64
3, 8700, Note_on_c, 1, 83, 54
3, 8700, Note_on_c, 1, 86, 54
3, 8814, Note_off_c, 1, 86, 64
3, 8814, Note_off_c, 1, 83, 64
3, 10560, Note_on_c, 1, 80, 65
3, 10560, Note_on_c, 1, 83, 65
3, 10680, Note_off_c, 1, 83, 64
3, 10680, Note_off_c, 1, 80, 64
3, 11280, Note_on_c, 1, 80, 65
3, 11280, Note_on_c, 1, 83, 65
3, 11520, Note_off_c, 1, 83, 64
3, 11520, Note_off_c, 1, 80, 64
3, 11520, Note_on_c, 1, 85, 65
3, 11520, Note_on_c, 1, 81, 65
3, 11640, Note_off_c, 1, 81, 64
3, 11640, Note_off_c, 1, 85, 64
3, 12240, Note_on_c, 1, 81, 65
3, 12240, Note_on_c, 1, 85, 65
3, 12480, Note_off_c, 1, 85, 64
3, 12480, Note_off_c, 1, 81, 64
3, 12480, Note_on_c, 1, 80, 65
3, 12480, Note_on_c, 1, 83, 65
3, 12600, Note_off_c, 1, 83, 64
3, 12600, Note_off_c, 1, 80, 64
3, 13200, Note_on_c, 1, 83, 65
3, 13200, Note_on_c, 1, 80, 65
3, 13440, Note_off_c, 1, 80, 64
3, 13440, Note_off_c, 1, 83, 64
3, 13440, Note_on_c, 1, 85, 65
3, 13440, Note_on_c, 1, 81, 65
3, 13560, Note_off_c, 1, 81, 64
3, 13560, Note_off_c, 1, 85, 64
3, 14160, Note_on_c, 1, 81, 65
3, 14160, Note_on_c, 1, 85, 65
3, 14400, Note_off_c, 1, 85, 64
3, 14400, Note_off_c, 1, 81, 64
3, 14400, Note_on_c, 1, 80, 65
3, 14400, Note_on_c, 1, 83, 65
3, 14520, Note_off_c, 1, 83, 64
3, 14520, Note_off_c, 1, 80, 64
3, 15120, Note_on_c, 1, 83, 65
3, 15120, Note_on_c, 1, 80, 65
3, 15360, Note_off_c, 1, 80, 64
3, 15360, Note_off_c, 1, 83, 64
3, 15360, Note_on_c, 1, 85, 65
3, 15360, Note_on_c, 1, 81, 65
3, 15480, Note_off_c, 1, 81, 64
3, 15480, Note_off_c, 1, 85, 64
3, 16080, Note_on_c, 1, 85, 65
3, 16080, Note_on_c, 1, 81, 65
3, 16320, Note_off_c, 1, 81, 64
3, 16320, Note_off_c, 1, 85, 64
3, 16320, Note_on_c, 1, 80, 65
3, 16320, Note_on_c, 1, 83, 65
3, 16440, Note_off_c, 1, 83, 64
3, 16440, Note_off_c, 1, 80, 64
3, 17040, Note_on_c, 1, 83, 65
3, 17040, Note_on_c, 1, 80, 65
3, 17280, Note_off_c, 1, 80, 64
3, 17280, Note_off_c, 1, 83, 64
3, 17280, Note_on_c, 1, 81, 54
3, 17280, Note_on_c, 1, 85, 54
3, 17400, Note_off_c, 1, 85, 64
3, 17400, Note_off_c, 1, 81, 64
3, 17520, Note_on_c, 1, 69, 54
3, 17520, Note_on_c, 1, 81, 54
3, 17580, Note_off_c, 1, 81, 64
3, 17580, Note_off_c, 1, 69, 64
3, 17640, Note_on_c, 1, 81, 54
3, 17640, Note_on_c, 1, 69, 54
3, 17700, Note_off_c, 1, 69, 64
3, 17700, Note_off_c, 1, 81, 64
3, 17760, Note_on_c, 1, 81, 54
3, 17760, Note_on_c, 1, 69, 54
3, 17880, Note_off_c, 1, 69, 64
3, 17880, Note_off_c, 1, 81, 64
3, 18240, Note_on_c, 1, 80, 65
3, 18240, Note_on_c, 1, 83, 65
3, 18360, Note_off_c, 1, 83, 64
3, 18360, Note_off_c, 1, 80, 64
3, 18960, Note_on_c, 1, 80, 65
3, 18960, Note_on_c, 1, 83, 65
3, 19200, Note_off_c, 1, 83, 64
3, 19200, Note_off_c, 1, 80, 64
3, 19200, Note_on_c, 1, 85, 65
3, 19200, Note_on_c, 1, 81, 65
3, 19320, Note_off_c, 1, 81, 64
3, 19320, Note_off_c, 1, 85, 64
3, 19920, Note_on_c, 1, 81, 65
3, 19920, Note_on_c, 1, 85, 65
3, 20160, Note_off_c, 1, 85, 64
3, 20160, Note_off_c, 1, 81, 64
3, 20160, Note_on_c, 1, 80, 65
3, 20160, Note_on_c, 1, 83, 65
3, 20280, Note_off_c, 1, 83, 64
3, 20280, Note_off_c, 1, 80, 64
3, 20880, Note_on_c, 1, 83, 65
3, 20880, Note_on_c, 1, 80, 65
3, 21120, Note_off_c, 1, 80, 64
3, 21120, Note_off_c, 1, 83, 64
3, 21120, Note_on_c, 1, 85, 65
3, 21120, Note_on_c, 1, 81, 65
3, 21240, Note_off_c, 1, 81, 64
3, 21240, Note_off_c, 1, 85, 64
3, 21840, Note_on_c, 1, 81, 65
3, 21840, Note_on_c, 1, 85, 65
3, 22080, Note_off_c, 1, 85, 64
3, 22080, Note_off_c, 1, 81, 64
3, 22080, Note_on_c, 1, 80, 65
3, 22080, Note_on_c, 1, 83, 65
3, 22200, Note_off_c, 1, 83, 64
3, 22200, Note_off_c, 1, 80, 64
3, 22800, Note_on_c, 1, 83, 65
3, 22800, Note_on_c, 1, 80, 65
3, 23040, Note_off_c, 1, 80, 64
3, 23040, Note_off_c, 1, 83, 64
3, 23040, Note_on_c, 1, 85, 65
3, 23040, Note_on_c, 1, 81, 65
3, 23160, Note_off_c, 1, 81, 64
3, 23160, Note_off_c, 1, 85, 64
3, 23760, Note_on_c, 1, 85, 65
3, 23760, Note_on_c, 1, 81, 65
3, 24000, Note_off_c, 1, 81, 64
3, 24000, Note_off_c, 1, 85, 64
3, 24000, Note_on_c, 1, 80, 65
3, 24000, Note_on_c, 1, 83, 65
3, 24120, Note_off_c, 1, 83, 64
3, 24120, Note_off_c, 1, 80, 64
3, 24720, Note_on_c, 1, 83, 65
3, 24720, Note_on_c, 1, 80, 65
3, 24960, Note_off_c, 1, 80, 64
3, 24960, Note_off_c, 1, 83, 64
3, 24960, Note_on_c, 1, 85, 54
3, 24960, Note_on_c, 1, 81, 54
3, 25080, Note_off_c, 1, 81, 64
3, 25080, Note_off_c, 1, 85, 64
3, 25200, Note_on_c, 1, 69, 54
3, 25200, Note_on_c, 1, 81, 54
3, 25260, Note_off_c, 1, 81, 64
3, 25260, Note_off_c, 1, 69, 64
3, 25320, Note_on_c, 1, 81, 54
3, 25320, Note_on_c, 1, 69, 54
3, 25380, Note_off_c, 1, 69, 64
3, 25380, Note_off_c, 1, 81, 64
3, 25440, Note_on_c, 1, 69, 54
3, 25440, Note_on_c, 1, 81, 54
3, 25560, Note_off_c, 1, 81, 64
3, 25560, Note_off_c, 1, 69, 64
3, 25920, Note_on_c, 1, 81, 54
3, 25920, Note_on_c, 1, 78, 54
3, 26040, Note_off_c, 1, 78, 64
3, 26040, Note_off_c, 1, 81, 64
3, 26640, Note_on_c, 1, 81, 65
3, 26640, Note_on_c, 1, 78, 65
3, 26880, Note_off_c, 1, 78, 64
3, 26880, Note_on_c, 1, 76, 65
3, 27000, Note_off_c, 1, 81, 64
3, 27000, Note_off_c, 1, 76, 64
3, 27600, Note_on_c, 1, 76, 65
3, 27600, Note_on_c, 1, 81, 65
3, 27840, Note_off_c, 1, 76, 64
3, 27840, Note_on_c, 1, 78, 65
3, 27960, Note_off_c, 1, 81, 64
3, 27960, Note_off_c, 1, 78, 64
3, 28560, Note_on_c, 1, 81, 65
3, 28560, Note_on_c, 1, 78, 65
3, 28920, Note_off_c, 1, 78, 64
3, 28920, Note_off_c, 1, 81, 64
3, 29040, Note_on_c, 1, 77, 86
3, 29232, Note_off_c, 1, 77, 64
3, 29520, Note_on_c, 1, 76, 65
3, 29520, Note_on_c, 1, 85, 65
3, 29760, Note_off_c, 1, 85, 64
3, 29760, Note_off_c, 1, 76, 64
3, 29760, Note_on_c, 1, 83, 65
3, 29760, Note_on_c, 1, 75, 65
3, 29880, Note_off_c, 1, 75, 64
3, 29880, Note_off_c, 1, 83, 64
3, 30480, Note_on_c, 1, 74, 65
3, 30480, Note_on_c, 1, 83, 65
3, 30720, Note_off_c, 1, 83, 64
3, 30720, Note_off_c, 1, 74, 64
3, 30720, Note_on_c, 1, 73, 65
3, 30720, Note_on_c, 1, 81, 65
3, 30840, Note_off_c, 1, 81, 64
3, 30840, Note_off_c, 1, 73, 64
3, 31440, Note_on_c, 1, 81, 65
3, 31440, Note_on_c, 1, 73, 65
3, 31680, Note_off_c, 1, 73, 64
3, 31680, Note_off_c, 1, 81, 64
3, 31680, Note_on_c, 1, 80, 65
3, 31680, Note_on_c, 1, 76, 65
3, 31800, Note_off_c, 1, 76, 64
3, 31800, Note_off_c, 1, 80, 64
3, 32400, Note_on_c, 1, 76, 65
3, 32400, Note_on_c, 1, 80, 65
3, 32640, Note_off_c, 1, 80, 64
3, 32640, Note_off_c, 1, 76, 64
3, 32640, Note_on_c, 1, 85, 54
3, 32640, Note_on_c, 1, 81, 54
3, 32760, Note_off_c, 1, 81, 64
3, 32760, Note_off_c, 1, 85, 64
3, 32880, Note_on_c, 1, 69, 54
3, 32880, Note_on_c, 1, 81, 54
3, 32940, Note_off_c, 1, 81, 64
3, 32940, Note_off_c, 1, 69, 64
3, 33000, Note_on_c, 1, 81, 54
3, 33000, Note_on_c, 1, 69, 54
3, 33060, Note_off_c, 1, 69, 64
3, 33060, Note_off_c, 1, 81, 64
3, 33120, Note_on_c, 1, 69, 54
3, 33120, Note_on_c, 1, 81, 54
3, 33240, Note_off_c, 1, 81, 64
3, 33240, Note_off_c, 1, 69, 64
3, 33600, Note_on_c, 1, 81, 54
3, 33600, Note_on_c, 1, 78, 54
3, 33720, Note_off_c, 1, 78, 64
3, 33720, Note_off_c, 1, 81, 64
3, 34320, Note_on_c, 1, 81, 65
3, 34320, Note_on_c, 1, 78, 65
3, 34560, Note_off_c, 1, 78, 64
3, 34560, Note_on_c, 1, 76, 65
3, 34680, Note_off_c, 1, 81, 64
3, 34680, Note_off_c, 1, 76, 64
3, 35280, Note_on_c, 1, 76, 65
3, 35280, Note_on_c, 1, 81, 65
3, 35520, Note_off_c, 1, 76, 64
3, 35520, Note_on_c, 1, 78, 65
3, 35640, Note_off_c, 1, 81, 64
3, 35640, Note_off_c, 1, 78, 64
3, 36240, Note_on_c, 1, 81, 65
3, 36240, Note_on_c, 1, 78, 65
3, 36600, Note_off_c, 1, 78, 64
3, 36600, Note_off_c, 1, 81, 64
3, 36720, Note_on_c, 1, 77, 86
3, 36912, Note_off_c, 1, 77, 64
3, 37200, Note_on_c, 1, 76, 65
3, 37200, Note_on_c, 1, 85, 65
3, 37440, Note_off_c, 1, 85, 64
3, 37440, Note_off_c, 1, 76, 64
3, 37440, Note_on_c, 1, 83, 65
3, 37440, Note_on_c, 1, 75, 65
3, 37560, Note_off_c, 1, 75, 64
3, 37560, Note_off_c, 1, 83, 64
3, 38160, Note_on_c, 1, 74, 65
3, 38160, Note_on_c, 1, 83, 65
3, 38400, Note_off_c, 1, 83, 64
3, 38400, Note_off_c, 1, 74, 64
3, 38400, Note_on_c, 1, 73, 65
3, 38400, Note_on_c, 1, 81, 65
3, 38520, Note_off_c, 1, 81, 64
3, 38520, Note_off_c, 1, 73, 64
3, 39120, Note_on_c, 1, 81, 65
3, 39120, Note_on_c, 1, 73, 65
3, 39360, Note_off_c, 1, 73, 64
3, 39360, Note_off_c, 1, 81, 64
3, 39360, Note_on_c, 1, 80, 65
3, 39360, Note_on_c, 1, 76, 65
3, 39480, Note_off_c, 1, 76, 64
3, 39480, Note_off_c, 1, 80, 64
3, 40080, Note_on_c, 1, 76, 65
3, 40080, Note_on_c, 1, 80, 65
3, 40320, Note_off_c, 1, 80, 64
3, 40320, Note_off_c, 1, 76, 64
3, 40320, Note_on_c, 1, 85, 54
3, 40320, Note_on_c, 1, 81, 54
3, 40440, Note_off_c, 1, 81, 64
3, 40440, Note_off_c, 1, 85, 64
3, 40620, Note_on_c, 1, 81, 54
3, 40620, Note_on_c, 1, 69, 54
3, 40680, Note_off_c, 1, 69, 64
3, 40680, Note_off_c, 1, 81, 64
3, 40740, Note_on_c, 1, 69, 54
3, 40740, Note_on_c, 1, 81, 54
3, 40800, Note_off_c, 1, 81, 64
3, 40800, Note_off_c, 1, 69, 64
3, 40860, Note_on_c, 1, 69, 54
3, 40860, Note_on_c, 1, 81, 54
3, 40980, Note_off_c, 1, 81, 64
3, 40980, Note_off_c, 1, 69, 64
3, 41700, Note_on_c, 1, 69, 54
3, 41700, Note_on_c, 1, 81, 54
3, 41814, Note_off_c, 1, 81, 64
3, 41814, Note_off_c, 1, 69, 64
3, 41820, Note_on_c, 1, 81, 54
3, 41820, Note_on_c, 1, 69, 54
3, 41934, Note_off_c, 1, 69, 64
3, 41934, Note_off_c, 1, 81, 64
3, 41940, Note_on_c, 1, 69, 54
3, 41940, Note_on_c, 1, 81, 54
3, 42054, Note_off_c, 1, 81, 64
3, 42054, Note_off_c, 1, 69, 64
3, 42780, Note_on_c, 1, 80, 54
3, 42780, Note_on_c, 1, 83, 54
3, 42840, Note_off_c, 1, 83, 64
3, 42840, Note_off_c, 1, 80, 64
3, 42900, Note_on_c, 1, 83, 54
3, 42900, Note_on_c, 1, 80, 54
3, 42960, Note_off_c, 1, 80, 64
3, 42960, Note_off_c, 1, 83, 64
3, 43020, Note_on_c, 1, 83, 54
3, 43020, Note_on_c, 1, 80, 54
3, 43140, Note_off_c, 1, 80, 64
3, 43140, Note_off_c, 1, 83, 64
3, 43860, Note_on_c, 1, 83, 54
3, 43860, Note_on_c, 1, 80, 54
3, 43920, Note_off_c, 1, 80, 64
3, 43920, Note_off_c, 1, 83, 64
3, 43980, Note_on_c, 1, 80, 54
3, 43980, Note_on_c, 1, 83, 54
3, 44040, Note_off_c, 1, 83, 64
3, 44040, Note_off_c, 1, 80, 64
3, 44100, Note_on_c, 1, 83, 54
3, 44100, Note_on_c, 1, 80, 54
3, 44220, Note_off_c, 1, 80, 64
3, 44220, Note_off_c, 1, 83, 64
3, 44640, Note_on_c, 1, 76, 54
3, 44640, Note_on_c, 1, 85, 54
3, 45216, Note_off_c, 1, 85, 64
3, 45216, Note_off_c, 1, 76, 64
3, 45360, Note_on_c, 1, 74, 54
3, 45360, Note_on_c, 1, 83, 54
3, 45480, Note_off_c, 1, 83, 64
3, 45480, Note_off_c, 1, 74, 64
3, 45600, Note_on_c, 1, 73, 54
3, 45600, Note_on_c, 1, 81, 54
3, 45720, Note_off_c, 1, 81, 64
3, 45720, Note_off_c, 1, 73, 64
3, 45840, Note_on_c, 1, 85, 54
3, 45840, Note_on_c, 1, 76, 54
3, 45960, Note_off_c, 1, 76, 64
3, 45960, Note_off_c, 1, 85, 64
3, 46080, Note_on_c, 1, 74, 54
3, 46080, Note_on_c, 1, 83, 54
3, 46200, Note_off_c, 1, 83, 64
3, 46200, Note_off_c, 1, 74, 64
3, 46320, Note_on_c, 1, 81, 54
3, 46320, Note_on_c, 1, 73, 54
3, 46440, Note_off_c, 1, 73, 64
3, 46440, Note_off_c, 1, 81, 64
3, 46560, Note_on_c, 1, 83, 54
3, 46560, Note_on_c, 1, 74, 54
3, 46680, Note_off_c, 1, 74, 64
3, 46680, Note_off_c, 1, 83, 64
3, 46800, Note_on_c, 1, 81, 72
3, 46800, Note_on_c, 1, 73, 72
3, 46920, Note_off_c, 1, 73, 64
3, 46920, Note_off_c, 1, 81, 64
3, 47040, Note_on_c, 1, 80, 72
3, 47040, Note_on_c, 1, 71, 72
3, 47160, Note_off_c, 1, 71, 64
3, 47160, Note_off_c, 1, 80, 64
3, 47280, Note_on_c, 1, 74, 72
3, 47280, Note_on_c, 1, 78, 72
3, 47400, Note_off_c, 1, 78, 64
3, 47400, Note_off_c, 1, 74, 64
3, 47520, Note_on_c, 1, 76, 72
3, 47520, Note_on_c, 1, 73, 72
3, 47640, Note_off_c, 1, 73, 64
3, 47640, Note_off_c, 1, 76, 64
3, 47760, Note_on_c, 1, 71, 72
3, 47760, Note_on_c, 1, 74, 72
3, 47880, Note_off_c, 1, 74, 64
3, 47880, Note_off_c, 1, 71, 64
3, 48000, Note_on_c, 1, 69, 72
3, 48000, Note_on_c, 1, 73, 72
3, 48120, Note_off_c, 1, 73, 64
3, 48120, Note_off_c, 1, 69, 64
3, 48240, Note_on_c, 1, 68, 72
3, 48240, Note_on_c, 1, 71, 72
3, 48360, Note_off_c, 1, 71, 64
3, 48360, Note_off_c, 1, 68, 64
3, 48480, Note_on_c, 1, 81, 54
3, 48480, Note_on_c, 1, 85, 54
3, 48600, Note_off_c, 1, 85, 64
3, 48600, Note_off_c, 1, 81, 64
3, 48780, Note_on_c, 1, 69, 54
3, 48780, Note_on_c, 1, 81, 54
3, 48840, Note_off_c, 1, 81, 64
3, 48840, Note_off_c, 1, 69, 64
3, 48900, Note_on_c, 1, 69, 54
3, 48900, Note_on_c, 1, 81, 54
3, 48960, Note_off_c, 1, 81, 64
3, 48960, Note_off_c, 1, 69, 64
3, 49020, Note_on_c, 1, 69, 54
3, 49020, Note_on_c, 1, 81, 54
3, 49140, Note_off_c, 1, 81, 64
3, 49140, Note_off_c, 1, 69, 64
3, 49860, Note_on_c, 1, 69, 54
3, 49860, Note_on_c, 1, 81, 54
3, 49920, Note_off_c, 1, 81, 64
3, 49920, Note_off_c, 1, 69, 64
3, 49980, Note_on_c, 1, 69, 54
3, 49980, Note_on_c, 1, 81, 54
3, 50040, Note_off_c, 1, 81, 64
3, 50040, Note_off_c, 1, 69, 64
3, 50100, Note_on_c, 1, 69, 54
3, 50100, Note_on_c, 1, 81, 54
3, 50220, Note_off_c, 1, 81, 64
3, 50220, Note_off_c, 1, 69, 64
3, 50940, Note_on_c, 1, 80, 54
3, 50940, Note_on_c, 1, 83, 54
3, 51000, Note_off_c, 1, 83, 64
3, 51000, Note_off_c, 1, 80, 64
3, 51060, Note_on_c, 1, 80, 54
3, 51060, Note_on_c, 1, 83, 54
3, 51120, Note_off_c, 1, 83, 64
3, 51120, Note_off_c, 1, 80, 64
3, 51180, Note_on_c, 1, 80, 54
3, 51180, Note_on_c, 1, 83, 54
3, 51300, Note_off_c, 1, 83, 64
3, 51300, Note_off_c, 1, 80, 64
3, 51960, Note_on_c, 1, 80, 54
3, 51960, Note_on_c, 1, 83, 54
3, 52020, Note_off_c, 1, 83, 64
3, 52020, Note_off_c, 1, 80, 64
3, 52080, Note_on_c, 1, 83, 54
3, 52080, Note_on_c, 1, 80, 54
3, 52140, Note_off_c, 1, 80, 64
3, 52140, Note_off_c, 1, 83, 64
3, 52200, Note_on_c, 1, 83, 54
3, 52200, Note_on_c, 1, 80, 54
3, 52320, Note_off_c, 1, 80, 64
3, 52320, Note_off_c, 1, 83, 64
3, 52800, Note_on_c, 1, 81, 64
3, 52800, Note_on_c, 1, 85, 64
3, 52992, Note_off_c, 1, 85, 64
3, 52992, Note_off_c, 1, 81, 64
3, 53280, Note_on_c, 1, 81, 64
3, 53280, Note_on_c, 1, 85, 64
3, 53472, Note_off_c, 1, 85, 64
3, 53472, Note_off_c, 1, 81, 64
3, 53760, Note_on_c, 1, 81, 64
3, 53760, Note_on_c, 1, 85, 64
3, 53952, Note_off_c, 1, 85, 64
3, 53952, Note_off_c, 1, 81, 64
3, 54240, Note_on_c, 1, 81, 64
3, 54240, Note_on_c, 1, 85, 64
3, 54432, Note_off_c, 1, 85, 64
3, 54432, Note_off_c, 1, 81, 64
3, 54720, Note_on_c, 1, 83, 64
3, 54720, Note_on_c, 1, 86, 64
3, 54912, Note_off_c, 1, 86, 64
3, 54912, Note_off_c, 1, 83, 64
3, 55200, Note_on_c, 1, 83, 61
3, 55200, Note_on_c, 1, 86, 61
3, 55392, Note_off_c, 1, 86, 64
3, 55392, Note_off_c, 1, 83, 64
3, 55680, Note_on_c, 1, 83, 57
3, 55680, Note_on_c, 1, 86, 57
3, 55872, Note_off_c, 1, 86, 64
3, 55872, Note_off_c, 1, 83, 64
3, 56160, Note_on_c, 1, 83, 53
3, 56160, Note_on_c, 1, 86, 53
3, 56352, Note_off_c, 1, 86, 64
3, 56352, Note_off_c, 1, 83, 64
3, 56640, Note_on_c, 1, 81, 60
3, 56640, Note_on_c, 1, 85, 60
3, 56832, Note_off_c, 1, 85, 64
3, 56832, Note_off_c, 1, 81, 64
3, 57600, Note_on_c, 1, 64, 58
3, 57600, Note_on_c, 1, 76, 58
3, 60706, Note_off_c, 1, 76, 64
3, 60706, Note_off_c, 1, 64, 64
3, 61440, Note_on_c, 1, 64, 58
3, 61440, Note_on_c, 1, 76, 58
3, 63840, Note_off_c, 1, 76, 64
3, 63840, Note_off_c, 1, 64, 64
3, 63840, Note_on_c, 1, 65, 58
3, 63840, Note_on_c, 1, 77, 58
3, 64320, Note_off_c, 1, 77, 64
3, 64320, Note_off_c, 1, 65, 64
3, 64320, Note_on_c, 1, 78, 58
3, 64320, Note_on_c, 1, 66, 58
3, 64560, Note_off_c, 1, 66, 64
3, 64560, Note_off_c, 1, 78, 64
3, 65280, Note_on_c, 1, 73, 58
3, 65280, Note_on_c, 1, 85, 58
3, 68386, Note_off_c, 1, 85, 64
3, 68386, Note_off_c, 1, 73, 64
3, 69120, Note_on_c, 1, 73, 58
3, 69120, Note_on_c, 1, 85, 58
3, 71520, Note_off_c, 1, 85, 64
3, 71520, Note_off_c, 1, 73, 64
3, 71520, Note_on_c, 1, 73, 96
3, 71520, Note_on_c, 1, 77, 96
3, 72000, Note_off_c, 1, 77, 64
3, 72000, Note_on_c, 1, 78, 58
3, 72240, Note_off_c, 1, 73, 64
3, 72240, Note_off_c, 1, 78, 64
3, 72480, Note_on_c, 1, 81, 80
3, 72480, Note_on_c, 1, 73, 80
3, 72624, Note_off_c, 1, 73, 64
3, 72624, Note_off_c, 1, 81, 64
3, 72960, Note_on_c, 1, 73, 80
3, 72960, Note_on_c, 1, 81, 80
3, 73104, Note_off_c, 1, 81, 64
3, 73104, Note_off_c, 1, 73, 64
3, 73440, Note_on_c, 1, 73, 80
3, 73440, Note_on_c, 1, 81, 80
3, 73584, Note_off_c, 1, 81, 64
3, 73584, Note_off_c, 1, 73, 64
3, 73920, Note_on_c, 1, 73, 80
3, 73920, Note_on_c, 1, 83, 80
3, 74064, Note_off_c, 1, 83, 64
3, 74064, Note_off_c, 1, 73, 64
3, 74400, Note_on_c, 1, 73, 80
3, 74400, Note_on_c, 1, 83, 80
3, 74544, Note_off_c, 1, 83, 64
3, 74544, Note_off_c, 1, 73, 64
3, 74880, Note_on_c, 1, 73, 80
3, 74880, Note_on_c, 1, 83, 80
3, 75024, Note_off_c, 1, 83, 64
3, 75024, Note_off_c, 1, 73, 64
3, 75360, Note_on_c, 1, 73, 80
3, 75360, Note_on_c, 1, 83, 80
3, 75504, Note_off_c, 1, 83, 64
3, 75504, Note_off_c, 1, 73, 64
3, 75840, Note_on_c, 1, 73, 80
3, 75840, Note_on_c, 1, 81, 80
3, 75984, Note_off_c, 1, 81, 64
3, 75984, Note_off_c, 1, 73, 64
3, 76320, Note_on_c, 1, 73, 80
3, 76320, Note_on_c, 1, 81, 80
3, 76464, Note_off_c, 1, 81, 64
3, 76464, Note_off_c, 1, 73, 64
3, 76800, Note_on_c, 1, 73, 80
3, 76800, Note_on_c, 1, 82, 80
3, 76944, Note_off_c, 1, 82, 64
3, 76944, Note_off_c, 1, 73, 64
3, 77280, Note_on_c, 1, 73, 80
3, 77280, Note_on_c, 1, 82, 80
3, 77424, Note_off_c, 1, 82, 64
3, 77424, Note_off_c, 1, 73, 64
3, 77760, Note_on_c, 1, 75, 80
3, 77760, Note_on_c, 1, 84, 80
3, 77904, Note_off_c, 1, 84, 64
3, 77904, Note_off_c, 1, 75, 64
3, 78240, Note_on_c, 1, 75, 80
3, 78240, Note_on_c, 1, 84, 80
3, 78384, Note_off_c, 1, 84, 64
3, 78384, Note_off_c, 1, 75, 64
3, 78720, Note_on_c, 1, 76, 80
3, 78720, Note_on_c, 1, 85, 80
3, 78864, Note_off_c, 1, 85, 64
3, 78864, Note_off_c, 1, 76, 64
3, 79200, Note_on_c, 1, 76, 80
3, 79200, Note_on_c, 1, 85, 80
3, 79344, Note_off_c, 1, 85, 64
3, 79344, Note_off_c, 1, 76, 64
3, 79680, Note_on_c, 1, 75, 80
3, 79680, Note_on_c, 1, 78, 80
3, 79824, Note_off_c, 1, 78, 64
3, 79824, Note_off_c, 1, 75, 64
3, 80160, Note_on_c, 1, 78, 80
3, 80160, Note_on_c, 1, 75, 80
3, 80304, Note_off_c, 1, 75, 64
3, 80304, Note_off_c, 1, 78, 64
3, 80640, Note_on_c, 1, 75, 80
3, 80640, Note_on_c, 1, 78, 80
3, 80784, Note_off_c, 1, 78, 64
3, 80784, Note_off_c, 1, 75, 64
3, 81120, Note_on_c, 1, 78, 80
3, 81120, Note_on_c, 1, 75, 80
3, 81264, Note_off_c, 1, 75, 64
3, 81264, Note_off_c, 1, 78, 64
3, 81600, Note_on_c, 1, 75, 80
3, 81600, Note_on_c, 1, 78, 80
3, 81744, Note_off_c, 1, 78, 64
3, 81744, Note_off_c, 1, 75, 64
3, 82080, Note_on_c, 1, 78, 80
3, 82080, Note_on_c, 1, 75, 80
3, 82224, Note_off_c, 1, 75, 64
3, 82224, Note_off_c, 1, 78, 64
3, 85920, Note_on_c, 1, 78, 80
3, 85920, Note_on_c, 1, 75, 80
3, 86064, Note_off_c, 1, 75, 64
3, 86064, Note_off_c, 1, 78, 64
3, 93600, Note_on_c, 1, 80, 80
3, 93984, Note_off_c, 1, 80, 64
3, 94560, Note_on_c, 1, 80, 80
3, 94560, Note_on_c, 1, 78, 80
3, 94944, Note_off_c, 1, 78, 64
3, 94944, Note_off_c, 1, 80, 64
3, 95520, Note_on_c, 1, 76, 80
3, 95520, Note_on_c, 1, 80, 80
3, 95904, Note_off_c, 1, 80, 64
3, 95904, Note_off_c, 1, 76, 64
3, 96480, Note_on_c, 1, 80, 80
3, 96480, Note_on_c, 1, 78, 80
3, 96864, Note_off_c, 1, 78, 64
3, 96864, Note_off_c, 1, 80, 64
3, 96960, Note_on_c, 1, 76, 64
3, 98146, Note_off_c, 1, 76, 64
3, 98280, Note_on_c, 1, 78, 64
3, 98400, Note_off_c, 1, 78, 64
3, 98400, Note_on_c, 1, 79, 64
3, 98496, Note_off_c, 1, 79, 64
3, 98760, Note_on_c, 1, 76, 64
3, 98874, Note_off_c, 1, 76, 64
3, 98880, Note_on_c, 1, 78, 64
3, 98976, Note_off_c, 1, 78, 64
3, 99240, Note_on_c, 1, 76, 64
3, 99354, Note_off_c, 1, 76, 64
3, 99360, Note_on_c, 1, 74, 64
3, 99456, Note_off_c, 1, 74, 64
3, 99720, Note_on_c, 1, 78, 64
3, 99834, Note_off_c, 1, 78, 64
3, 99840, Note_on_c, 1, 76, 64
3, 99936, Note_off_c, 1, 76, 64
3, 100200, Note_on_c, 1, 78, 64
3, 100314, Note_off_c, 1, 78, 64
3, 100320, Note_on_c, 1, 79, 64
3, 100416, Note_off_c, 1, 79, 64
3, 100680, Note_on_c, 1, 76, 64
3, 100794, Note_off_c, 1, 76, 64
3, 100800, Note_on_c, 1, 78, 64
3, 100896, Note_off_c, 1, 78, 64
3, 101160, Note_on_c, 1, 76, 64
3, 101274, Note_off_c, 1, 76, 64
3, 101280, Note_on_c, 1, 74, 64
3, 101376, Note_off_c, 1, 74, 64
3, 101640, Note_on_c, 1, 78, 64
3, 101754, Note_off_c, 1, 78, 64
3, 103200, Note_on_c, 1, 80, 80
3, 103584, Note_off_c, 1, 80, 64
3, 104160, Note_on_c, 1, 80, 80
3, 104160, Note_on_c, 1, 78, 80
3, 104544, Note_off_c, 1, 78, 64
3, 104544, Note_off_c, 1, 80, 64
3, 105120, Note_on_c, 1, 76, 80
3, 105120, Note_on_c, 1, 80, 80
3, 105504, Note_off_c, 1, 80, 64
3, 105504, Note_off_c, 1, 76, 64
3, 106080, Note_on_c, 1, 80, 80
3, 106080, Note_on_c, 1, 78, 80
3, 106464, Note_off_c, 1, 78, 64
3, 106464, Note_off_c, 1, 80, 64
3, 106560, Note_on_c, 1, 76, 64
3, 107746, Note_off_c, 1, 76, 64
3, 107880, Note_on_c, 1, 78, 64
3, 108000, Note_off_c, 1, 78, 64
3, 108000, Note_on_c, 1, 79, 64
3, 108096, Note_off_c, 1, 79, 64
3, 108360, Note_on_c, 1, 76, 64
3, 108474, Note_off_c, 1, 76, 64
3, 108480, Note_on_c, 1, 78, 64
3, 108576, Note_off_c, 1, 78, 64
3, 108840, Note_on_c, 1, 76, 64
3, 108954, Note_off_c, 1, 76, 64
3, 108960, Note_on_c, 1, 74, 64
3, 109056, Note_off_c, 1, 74, 64
3, 109320, Note_on_c, 1, 78, 64
3, 109434, Note_off_c, 1, 78, 64
3, 109440, Note_on_c, 1, 76, 64
3, 109536, Note_off_c, 1, 76, 64
3, 109800, Note_on_c, 1, 78, 64
3, 109914, Note_off_c, 1, 78, 64
3, 109920, Note_on_c, 1, 79, 64
3, 110016, Note_off_c, 1, 79, 64
3, 110280, Note_on_c, 1, 78, 64
3, 110394, Note_off_c, 1, 78, 64
3, 110400, Note_on_c, 1, 79, 64
3, 110400, Note_on_c, 1, 76, 64
3, 110496, Note_off_c, 1, 76, 64
3, 110496, Note_off_c, 1, 79, 64
3, 110880, Note_on_c, 1, 79, 48
3, 110880, Note_on_c, 1, 76, 48
3, 115200, Note_off_c, 1, 76, 64
3, 115200, Note_off_c, 1, 79, 64
3, 115200, Note_on_c, 1, 78, 53
3, 115200, Note_on_c, 1, 74, 53
3, 116160, Note_off_c, 1, 74, 64
3, 116160, Note_off_c, 1, 78, 64
3, 116160, Note_on_c, 1, 79, 64
3, 116160, Note_on_c, 1, 76, 64
3, 120960, Note_off_c, 1, 76, 64
3, 120960, Note_off_c, 1, 79, 64
3, 120960, Note_on_c, 1, 78, 85
3, 120960, Note_on_c, 1, 74, 85
3, 121824, Note_off_c, 1, 74, 64
3, 121824, Note_off_c, 1, 78, 64
3, 121920, Note_on_c, 1, 78, 99
3, 121920, Note_on_c, 1, 81, 99
3, 122040, Note_off_c, 1, 81, 64
3, 122040, Note_off_c, 1, 78, 64
3, 122160, Note_on_c, 1, 78, 99
3, 122160, Note_on_c, 1, 81, 99
3, 122280, Note_off_c, 1, 81, 64
3, 122280, Note_off_c, 1, 78, 64
3, 122400, Note_on_c, 1, 81, 99
3, 122400, Note_on_c, 1, 78, 99
3, 122520, Note_off_c, 1, 78, 64
3, 122520, Note_off_c, 1, 81, 64
3, 122640, Note_on_c, 1, 81, 99
3, 122640, Note_on_c, 1, 78, 99
3, 122760, Note_off_c, 1, 78, 64
3, 122760, Note_off_c, 1, 81, 64
3, 122880, Note_on_c, 1, 81, 99
3, 122880, Note_on_c, 1, 78, 99
3, 123000, Note_off_c, 1, 78, 64
3, 123000, Note_off_c, 1, 81, 64
3, 123120, Note_on_c, 1, 81, 99
3, 123120, Note_on_c, 1, 78, 99
3, 123240, Note_off_c, 1, 78, 64
3, 123240, Note_off_c, 1, 81, 64
3, 123360, Note_on_c, 1, 81, 99
3, 123360, Note_on_c, 1, 78, 99
3, 123480, Note_off_c, 1, 78, 64
3, 123480, Note_off_c, 1, 81, 64
3, 123600, Note_on_c, 1, 81, 99
3, 123600, Note_on_c, 1, 78, 99
3, 123720, Note_off_c, 1, 78, 64
3, 123720, Note_off_c, 1, 81, 64
3, 123840, Note_on_c, 1, 80, 127
3, 123840, Note_on_c, 1, 76, 127
3, 123960, Note_off_c, 1, 76, 64
3, 123960, Note_off_c, 1, 80, 64
3, 124080, Note_on_c, 1, 76, 99
3, 124080, Note_on_c, 1, 80, 99
3, 124200, Note_off_c, 1, 80, 64
3, 124200, Note_off_c, 1, 76, 64
3, 124320, Note_on_c, 1, 76, 99
3, 124320, Note_on_c, 1, 80, 99
3, 124440, Note_off_c, 1, 80, 64
3, 124440, Note_off_c, 1, 76, 64
3, 124560, Note_on_c, 1, 80, 99
3, 124560, Note_on_c, 1, 76, 99
3, 124680, Note_off_c, 1, 76, 64
3, 124680, Note_off_c, 1, 80, 64
3, 124800, Note_on_c, 1, 81, 127
3, 124800, Note_on_c, 1, 78, 127
3, 124920, Note_off_c, 1, 78, 64
3, 124920, Note_off_c, 1, 81, 64
3, 125040, Note_on_c, 1, 78, 99
3, 125040, Note_on_c, 1, 81, 99
3, 125160, Note_off_c, 1, 81, 64
3, 125160, Note_off_c, 1, 78, 64
3, 125280, Note_on_c, 1, 78, 99
3, 125280, Note_on_c, 1, 81, 99
3, 125400, Note_off_c, 1, 81, 64
3, 125400, Note_off_c, 1, 78, 64
3, 125520, Note_on_c, 1, 78, 99
3, 125520, Note_on_c, 1, 81, 99
3, 125640, Note_off_c, 1, 81, 64
3, 125640, Note_off_c, 1, 78, 64
3, 125760, Note_on_c, 1, 80, 127
3, 125760, Note_on_c, 1, 76, 127
3, 125880, Note_off_c, 1, 76, 64
3, 125880, Note_off_c, 1, 80, 64
3, 126000, Note_on_c, 1, 80, 99
3, 126000, Note_on_c, 1, 76, 99
3, 126120, Note_off_c, 1, 76, 64
3, 126120, Note_off_c, 1, 80, 64
3, 126240, Note_on_c, 1, 76, 99
3, 126240, Note_on_c, 1, 80, 99
3, 126360, Note_off_c, 1, 80, 64
3, 126360, Note_off_c, 1, 76, 64
3, 126480, Note_on_c, 1, 76, 99
3, 126480, Note_on_c, 1, 80, 99
3, 126600, Note_off_c, 1, 80, 64
3, 126600, Note_off_c, 1, 76, 64
3, 126720, Note_on_c, 1, 81, 127
3, 126720, Note_on_c, 1, 78, 127
3, 126840, Note_off_c, 1, 78, 64
3, 126840, Note_off_c, 1, 81, 64
3, 126960, Note_on_c, 1, 81, 99
3, 126960, Note_on_c, 1, 78, 99
3, 127080, Note_off_c, 1, 78, 64
3, 127080, Note_off_c, 1, 81, 64
3, 127200, Note_on_c, 1, 78, 99
3, 127200, Note_on_c, 1, 81, 99
3, 127320, Note_off_c, 1, 81, 64
3, 127320, Note_off_c, 1, 78, 64
3, 127440, Note_on_c, 1, 78, 99
3, 127440, Note_on_c, 1, 81, 99
3, 127560, Note_off_c, 1, 81, 64
3, 127560, Note_off_c, 1, 78, 64
3, 127680, Note_on_c, 1, 80, 127
3, 127680, Note_on_c, 1, 76, 127
3, 127800, Note_off_c, 1, 76, 64
3, 127800, Note_off_c, 1, 80, 64
3, 127920, Note_on_c, 1, 80, 99
3, 127920, Note_on_c, 1, 76, 99
3, 128040, Note_off_c, 1, 76, 64
3, 128040, Note_off_c, 1, 80, 64
3, 128160, Note_on_c, 1, 76, 99
3, 128160, Note_on_c, 1, 80, 99
3, 128280, Note_off_c, 1, 80, 64
3, 128280, Note_off_c, 1, 76, 64
3, 128400, Note_on_c, 1, 76, 99
3, 128400, Note_on_c, 1, 80, 99
3, 128520, Note_off_c, 1, 80, 64
3, 128520, Note_off_c, 1, 76, 64
3, 128640, Note_on_c, 1, 81, 127
3, 128640, Note_on_c, 1, 78, 127
3, 128760, Note_off_c, 1, 78, 64
3, 128760, Note_off_c, 1, 81, 64
3, 128880, Note_on_c, 1, 81, 99
3, 128880, Note_on_c, 1, 78, 99
3, 129000, Note_off_c, 1, 78, 64
3, 129000, Note_off_c, 1, 81, 64
3, 129120, Note_on_c, 1, 78, 99
3, 129120, Note_on_c, 1, 81, 99
3, 129240, Note_off_c, 1, 81, 64
3, 129240, Note_off_c, 1, 78, 64
3, 129360, Note_on_c, 1, 78, 99
3, 129360, Note_on_c, 1, 81, 99
3, 129480, Note_off_c, 1, 81, 64
3, 129480, Note_off_c, 1, 78, 64
3, 129600, Note_on_c, 1, 80, 127
3, 129600, Note_on_c, 1, 76, 127
3, 129720, Note_off_c, 1, 76, 64
3, 129720, Note_off_c, 1, 80, 64
3, 129840, Note_on_c, 1, 80, 99
3, 129840, Note_on_c, 1, 76, 99
3, 129960, Note_off_c, 1, 76, 64
3, 129960, Note_off_c, 1, 80, 64
3, 130080, Note_on_c, 1, 76, 99
3, 130080, Note_on_c, 1, 80, 99
3, 130200, Note_off_c, 1, 80, 64
3, 130200, Note_off_c, 1, 76, 64
3, 130320, Note_on_c, 1, 76, 99
3, 130320, Note_on_c, 1, 80, 99
3, 130440, Note_off_c, 1, 80, 64
3, 130440, Note_off_c, 1, 76, 64
3, 130560, Note_on_c, 1, 80, 127
3, 130560, Note_on_c, 1, 78, 127
3, 130680, Note_off_c, 1, 78, 64
3, 130680, Note_off_c, 1, 80, 64
3, 130800, Note_on_c, 1, 80, 99
3, 130800, Note_on_c, 1, 78, 99
3, 130920, Note_off_c, 1, 78, 64
3, 130920, Note_off_c, 1, 80, 64
3, 131040, Note_on_c, 1, 78, 99
3, 131040, Note_on_c, 1, 80, 99
3, 131160, Note_off_c, 1, 80, 64
3, 131160, Note_off_c, 1, 78, 64
3, 131280, Note_on_c, 1, 78, 99
3, 131280, Note_on_c, 1, 80, 99
3, 131400, Note_off_c, 1, 80, 64
3, 131400, Note_off_c, 1, 78, 64
3, 131520, Note_on_c, 1, 80, 99
3, 131520, Note_on_c, 1, 76, 99
3, 131640, Note_off_c, 1, 76, 64
3, 131640, Note_off_c, 1, 80, 64
3, 131760, Note_on_c, 1, 76, 99
3, 131760, Note_on_c, 1, 80, 99
3, 131880, Note_off_c, 1, 80, 64
3, 131880, Note_off_c, 1, 76, 64
3, 132000, Note_on_c, 1, 81, 127
3, 132000, Note_on_c, 1, 78, 127
3, 132120, Note_off_c, 1, 78, 64
3, 132120, Note_off_c, 1, 81, 64
3, 132240, Note_on_c, 1, 81, 99
3, 132240, Note_on_c, 1, 78, 99
3, 132360, Note_off_c, 1, 78, 64
3, 132360, Note_off_c, 1, 81, 64
3, 132480, Note_on_c, 1, 81, 99
3, 132480, Note_on_c, 1, 78, 99
3, 132600, Note_off_c, 1, 78, 64
3, 132600, Note_off_c, 1, 81, 64
3, 132720, Note_on_c, 1, 78, 99
3, 132720, Note_on_c, 1, 81, 99
3, 132840, Note_off_c, 1, 81, 64
3, 132840, Note_off_c, 1, 78, 64
3, 132960, Note_on_c, 1, 78, 99
3, 132960, Note_on_c, 1, 81, 99
3, 133080, Note_off_c, 1, 81, 64
3, 133080, Note_off_c, 1, 78, 64
3, 133200, Note_on_c, 1, 78, 99
3, 133200, Note_on_c, 1, 81, 99
3, 133320, Note_off_c, 1, 81, 64
3, 133320, Note_off_c, 1, 78, 64
3, 133440, Note_on_c, 1, 80, 99
3, 133440, Note_on_c, 1, 76, 99
3, 133560, Note_off_c, 1, 76, 64
3, 133560, Note_off_c, 1, 80, 64
3, 133680, Note_on_c, 1, 80, 99
3, 133680, Note_on_c, 1, 76, 99
3, 133800, Note_off_c, 1, 76, 64
3, 133800, Note_off_c, 1, 80, 64
3, 133920, Note_on_c, 1, 81, 127
3, 133920, Note_on_c, 1, 78, 127
3, 134040, Note_off_c, 1, 78, 64
3, 134040, Note_off_c, 1, 81, 64
3, 134160, Note_on_c, 1, 81, 99
3, 134160, Note_on_c, 1, 78, 99
3, 134280, Note_off_c, 1, 78, 64
3, 134280, Note_off_c, 1, 81, 64
3, 134400, Note_on_c, 1, 81, 99
3, 134400, Note_on_c, 1, 78, 99
3, 134520, Note_off_c, 1, 78, 64
3, 134520, Note_off_c, 1, 81, 64
3, 134640, Note_on_c, 1, 81, 99
3, 134640, Note_on_c, 1, 78, 99
3, 134760, Note_off_c, 1, 78, 64
3, 134760, Note_off_c, 1, 81, 64
3, 134880, Note_on_c, 1, 78, 99
3, 134880, Note_on_c, 1, 81, 99
3, 135000, Note_off_c, 1, 81, 64
3, 135000, Note_off_c, 1, 78, 64
3, 135120, Note_on_c, 1, 78, 99
3, 135120, Note_on_c, 1, 81, 99
3, 135240, Note_off_c, 1, 81, 64
3, 135240, Note_off_c, 1, 78, 64
3, 135360, Note_on_c, 1, 80, 99
3, 135360, Note_on_c, 1, 76, 99
3, 135480, Note_off_c, 1, 76, 64
3, 135480, Note_off_c, 1, 80, 64
3, 135600, Note_on_c, 1, 80, 99
3, 135600, Note_on_c, 1, 76, 99
3, 135720, Note_off_c, 1, 76, 64
3, 135720, Note_off_c, 1, 80, 64
3, 135840, Note_on_c, 1, 81, 127
3, 135840, Note_on_c, 1, 78, 127
3, 135960, Note_off_c, 1, 78, 64
3, 135960, Note_off_c, 1, 81, 64
3, 136080, Note_on_c, 1, 81, 99
3, 136080, Note_on_c, 1, 78, 99
3, 136200, Note_off_c, 1, 78, 64
3, 136200, Note_off_c, 1, 81, 64
3, 136320, Note_on_c, 1, 80, 99
3, 136320, Note_on_c, 1, 76, 99
3, 136440, Note_off_c, 1, 76, 64
3, 136440, Note_off_c, 1, 80, 64
3, 136560, Note_on_c, 1, 80, 99
3, 136560, Note_on_c, 1, 76, 99
3, 136680, Note_off_c, 1, 76, 64
3, 136680, Note_off_c, 1, 80, 64
3, 136800, Note_on_c, 1, 81, 127
3, 136800, Note_on_c, 1, 78, 127
3, 136920, Note_off_c, 1, 78, 64
3, 136920, Note_off_c, 1, 81, 64
3, 137040, Note_on_c, 1, 81, 99
3, 137040, Note_on_c, 1, 78, 99
3, 137160, Note_off_c, 1, 78, 64
3, 137160, Note_off_c, 1, 81, 64
3, 137280, Note_on_c, 1, 80, 99
3, 137280, Note_on_c, 1, 76, 99
3, 137400, Note_off_c, 1, 76, 64
3, 137400, Note_off_c, 1, 80, 64
3, 137520, Note_on_c, 1, 80, 99
3, 137520, Note_on_c, 1, 76, 99
3, 137640, Note_off_c, 1, 76, 64
3, 137640, Note_off_c, 1, 80, 64
3, 137760, Note_on_c, 1, 81, 127
3, 137760, Note_on_c, 1, 78, 127
3, 137880, Note_off_c, 1, 78, 64
3, 137880, Note_off_c, 1, 81, 64
3, 138000, Note_on_c, 1, 81, 99
3, 138000, Note_on_c, 1, 78, 99
3, 138120, Note_off_c, 1, 78, 64
3, 138120, Note_off_c, 1, 81, 64
3, 138240, Note_on_c, 1, 76, 99
3, 138240, Note_on_c, 1, 80, 99
3, 138360, Note_off_c, 1, 80, 64
3, 138360, Note_off_c, 1, 76, 64
3, 138480, Note_on_c, 1, 76, 99
3, 138480, Note_on_c, 1, 81, 99
3, 138600, Note_off_c, 1, 81, 64
3, 138600, Note_off_c, 1, 76, 64
3, 138720, Note_on_c, 1, 78, 127
3, 138720, Note_on_c, 1, 81, 127
3, 138840, Note_off_c, 1, 81, 64
3, 138840, Note_off_c, 1, 78, 64
3, 138960, Note_on_c, 1, 78, 99
3, 138960, Note_on_c, 1, 81, 99
3, 139080, Note_off_c, 1, 81, 64
3, 139080, Note_off_c, 1, 78, 64
3, 139500, Note_on_c, 1, 76, 54
3, 139614, Note_off_c, 1, 76, 64
3, 139620, Note_on_c, 1, 76, 54
3, 139734, Note_off_c, 1, 76, 64
3, 139740, Note_on_c, 1, 76, 72
3, 139854, Note_off_c, 1, 76, 64
3, 141900, Note_on_c, 1, 83, 41
3, 141900, Note_on_c, 1, 86, 41
3, 142014, Note_off_c, 1, 86, 64
3, 142014, Note_off_c, 1, 83, 64
3, 142020, Note_on_c, 1, 86, 41
3, 142020, Note_on_c, 1, 83, 41
3, 142134, Note_off_c, 1, 83, 64
3, 142134, Note_off_c, 1, 86, 64
3, 142140, Note_on_c, 1, 83, 54
3, 142140, Note_on_c, 1, 86, 54
3, 142254, Note_off_c, 1, 86, 64
3, 142254, Note_off_c, 1, 83, 64
3, 144000, Note_on_c, 1, 80, 65
3, 144000, Note_on_c, 1, 83, 65
3, 144120, Note_off_c, 1, 83, 64
3, 144120, Note_off_c, 1, 80, 64
3, 144720, Note_on_c, 1, 80, 65
3, 144720, Note_on_c, 1, 83, 65
3, 144960, Note_off_c, 1, 83, 64
3, 144960, Note_off_c, 1, 80, 64
3, 144960, Note_on_c, 1, 85, 65
3, 144960, Note_on_c, 1, 81, 65
3, 145080, Note_off_c, 1, 81, 64
3, 145080, Note_off_c, 1, 85, 64
3, 145680, Note_on_c, 1, 81, 65
3, 145680, Note_on_c, 1, 85, 65
3, 145920, Note_off_c, 1, 85, 64
3, 145920, Note_off_c, 1, 81, 64
3, 145920, Note_on_c, 1, 80, 65
3, 145920, Note_on_c, 1, 83, 65
3, 146040, Note_off_c, 1, 83, 64
3, 146040, Note_off_c, 1, 80, 64
3, 146640, Note_on_c, 1, 83, 65
3, 146640, Note_on_c, 1, 80, 65
3, 146880, Note_off_c, 1, 80, 64
3, 146880, Note_off_c, 1, 83, 64
3, 146880, Note_on_c, 1, 85, 65
3, 146880, Note_on_c, 1, 81, 65
3, 147000, Note_off_c, 1, 81, 64
3, 147000, Note_off_c, 1, 85, 64
3, 147600, Note_on_c, 1, 81, 65
3, 147600, Note_on_c, 1, 85, 65
3, 147840, Note_off_c, 1, 85, 64
3, 147840, Note_off_c, 1, 81, 64
3, 147840, Note_on_c, 1, 80, 65
3, 147840, Note_on_c, 1, 83, 65
3, 147960, Note_off_c, 1, 83, 64
3, 147960, Note_off_c, 1, 80, 64
3, 148560, Note_on_c, 1, 83, 65
3, 148560, Note_on_c, 1, 80, 65
3, 148800, Note_off_c, 1, 80, 64
3, 148800, Note_off_c, 1, 83, 64
3, 148800, Note_on_c, 1, 85, 65
3, 148800, Note_on_c, 1, 81, 65
3, 148920, Note_off_c, 1, 81, 64
3, 148920, Note_off_c, 1, 85, 64
3, 149520, Note_on_c, 1, 85, 65
3, 149520, Note_on_c, 1, 81, 65
3, 149760, Note_off_c, 1, 81, 64
3, 149760, Note_off_c, 1, 85, 64
3, 149760, Note_on_c, 1, 80, 65
3, 149760, Note_on_c, 1, 83, 65
3, 149880, Note_off_c, 1, 83, 64
3, 149880, Note_off_c, 1, 80, 64
3, 150480, Note_on_c, 1, 83, 65
3, 150480, Note_on_c, 1, 80, 65
3, 150720, Note_off_c, 1, 80, 64
3, 150720, Note_off_c, 1, 83, 64
3, 150720, Note_on_c, 1, 81, 54
3, 150720, Note_on_c, 1, 85, 54
3, 150840, Note_off_c, 1, 85, 64
3, 150840, Note_off_c, 1, 81, 64
3, 150960, Note_on_c, 1, 69, 54
3, 150960, Note_on_c, 1, 81, 54
3, 151020, Note_off_c, 1, 81, 64
3, 151020, Note_off_c, 1, 69, 64
3, 151080, Note_on_c, 1, 81, 54
3, 151080, Note_on_c, 1, 69, 54
3, 151140, Note_off_c, 1, 69, 64
3, 151140, Note_off_c, 1, 81, 64
3, 151200, Note_on_c, 1, 81, 54
3, 151200, Note_on_c, 1, 69, 54
3, 151320, Note_off_c, 1, 69, 64
3, 151320, Note_off_c, 1, 81, 64
3, 151680, Note_on_c, 1, 80, 65
3, 151680, Note_on_c, 1, 83, 65
3, 151800, Note_off_c, 1, 83, 64
3, 151800, Note_off_c, 1, 80, 64
3, 152400, Note_on_c, 1, 80, 65
3, 152400, Note_on_c, 1, 83, 65
3, 152640, Note_off_c, 1, 83, 64
3, 152640, Note_off_c, 1, 80, 64
3, 152640, Note_on_c, 1, 85, 65
3, 152640, Note_on_c, 1, 81, 65
3, 152760, Note_off_c, 1, 81, 64
3, 152760, Note_off_c, 1, 85, 64
3, 153360, Note_on_c, 1, 81, 65
3, 153360, Note_on_c, 1, 85, 65
3, 153600, Note_off_c, 1, 85, 64
3, 153600, Note_off_c, 1, 81, 64
3, 153600, Note_on_c, 1, 80, 65
3, 153600, Note_on_c, 1, 83, 65
3, 153720, Note_off_c, 1, 83, 64
3, 153720, Note_off_c, 1, 80, 64
3, 154320, Note_on_c, 1, 83, 65
3, 154320, Note_on_c, 1, 80, 65
3, 154560, Note_off_c, 1, 80, 64
3, 154560, Note_off_c, 1, 83, 64
3, 154560, Note_on_c, 1, 85, 65
3, 154560, Note_on_c, 1, 81, 65
3, 154680, Note_off_c, 1, 81, 64
3, 154680, Note_off_c, 1, 85, 64
3, 155280, Note_on_c, 1, 81, 65
3, 155280, Note_on_c, 1, 85, 65
3, 155520, Note_off_c, 1, 85, 64
3, 155520, Note_off_c, 1, 81, 64
3, 155520, Note_on_c, 1, 80, 65
3, 155520, Note_on_c, 1, 83, 65
3, 155640, Note_off_c, 1, 83, 64
3, 155640, Note_off_c, 1, 80, 64
3, 156240, Note_on_c, 1, 83, 65
3, 156240, Note_on_c, 1, 80, 65
3, 156480, Note_off_c, 1, 80, 64
3, 156480, Note_off_c, 1, 83, 64
3, 156480, Note_on_c, 1, 85, 65
3, 156480, Note_on_c, 1, 81, 65
3, 156600, Note_off_c, 1, 81, 64
3, 156600, Note_off_c, 1, 85, 64
3, 157200, Note_on_c, 1, 85, 65
3, 157200, Note_on_c, 1, 81, 65
3, 157440, Note_off_c, 1, 81, 64
3, 157440, Note_off_c, 1, 85, 64
3, 157440, Note_on_c, 1, 80, 65
3, 157440, Note_on_c, 1, 83, 65
3, 157560, Note_off_c, 1, 83, 64
3, 157560, Note_off_c, 1, 80, 64
3, 158160, Note_on_c, 1, 83, 65
3, 158160, Note_on_c, 1, 80, 65
3, 158400, Note_off_c, 1, 80, 64
3, 158400, Note_off_c, 1, 83, 64
3, 158400, Note_on_c, 1, 85, 54
3, 158400, Note_on_c, 1, 81, 54
3, 158520, Note_off_c, 1, 81, 64
3, 158520, Note_off_c, 1, 85, 64
3, 158640, Note_on_c, 1, 69, 54
3, 158640, Note_on_c, 1, 81, 54
3, 158700, Note_off_c, 1, 81, 64
3, 158700, Note_off_c, 1, 69, 64
3, 158760, Note_on_c, 1, 81, 54
3, 158760, Note_on_c, 1, 69, 54
3, 158820, Note_off_c, 1, 69, 64
3, 158820, Note_off_c, 1, 81, 64
3, 158880, Note_on_c, 1, 69, 54
3, 158880, Note_on_c, 1, 81, 54
3, 159000, Note_off_c, 1, 81, 64
3, 159000, Note_off_c, 1, 69, 64
3, 159360, Note_on_c, 1, 81, 54
3, 159360, Note_on_c, 1, 78, 54
3, 159480, Note_off_c, 1, 78, 64
3, 159480, Note_off_c, 1, 81, 64
3, 160080, Note_on_c, 1, 81, 65
3, 160080, Note_on_c, 1, 78, 65
3, 160320, Note_off_c, 1, 78, 64
3, 160320, Note_on_c, 1, 76, 65
3, 160440, Note_off_c, 1, 81, 64
3, 160440, Note_off_c, 1, 76, 64
3, 161040, Note_on_c, 1, 76, 65
3, 161040, Note_on_c, 1, 81, 65
3, 161280, Note_off_c, 1, 76, 64
3, 161280, Note_on_c, 1, 78, 65
3, 161400, Note_off_c, 1, 81, 64
3, 161400, Note_off_c, 1, 78, 64
3, 162000, Note_on_c, 1, 81, 65
3, 162000, Note_on_c, 1, 78, 65
3, 162360, Note_off_c, 1, 78, 64
3, 162360, Note_off_c, 1, 81, 64
3, 162480, Note_on_c, 1, 77, 86
3, 162672, Note_off_c, 1, 77, 64
3, 162960, Note_on_c, 1, 76, 65
3, 162960, Note_on_c, 1, 85, 65
3, 163200, Note_off_c, 1, 85, 64
3, 163200, Note_off_c, 1, 76, 64
3, 163200, Note_on_c, 1, 83, 65
3, 163200, Note_on_c, 1, 75, 65
3, 163320, Note_off_c, 1, 75, 64
3, 163320, Note_off_c, 1, 83, 64
3, 163920, Note_on_c, 1, 74, 65
3, 163920, Note_on_c, 1, 83, 65
3, 164160, Note_off_c, 1, 83, 64
3, 164160, Note_off_c, 1, 74, 64
3, 164160, Note_on_c, 1, 73, 65
3, 164160, Note_on_c, 1, 81, 65
3, 164280, Note_off_c, 1, 81, 64
3, 164280, Note_off_c, 1, 73, 64
3, 164880, Note_on_c, 1, 81, 65
3, 164880, Note_on_c, 1, 73, 65
3, 165120, Note_off_c, 1, 73, 64
3, 165120, Note_off_c, 1, 81, 64
3, 165120, Note_on_c, 1, 80, 65
3, 165120, Note_on_c, 1, 76, 65
3, 165240, Note_off_c, 1, 76, 64
3, 165240, Note_off_c, 1, 80, 64
3, 165840, Note_on_c, 1, 76, 65
3, 165840, Note_on_c, 1, 80, 65
3, 166080, Note_off_c, 1, 80, 64
3, 166080, Note_off_c, 1, 76, 64
3, 166080, Note_on_c, 1, 85, 54
3, 166080, Note_on_c, 1, 81, 54
3, 166200, Note_off_c, 1, 81, 64
3, 166200, Note_off_c, 1, 85, 64
3, 166320, Note_on_c, 1, 69, 54
3, 166320, Note_on_c, 1, 81, 54
3, 166380, Note_off_c, 1, 81, 64
3, 166380, Note_off_c, 1, 69, 64
3, 166440, Note_on_c, 1, 81, 54
3, 166440, Note_on_c, 1, 69, 54
3, 166500, Note_off_c, 1, 69, 64
3, 166500, Note_off_c, 1, 81, 64
3, 166560, Note_on_c, 1, 69, 54
3, 166560, Note_on_c, 1, 81, 54
3, 166680, Note_off_c, 1, 81, 64
3, 166680, Note_off_c, 1, 69, 64
3, 167040, Note_on_c, 1, 81, 54
3, 167040, Note_on_c, 1, 78, 54
3, 167160, Note_off_c, 1, 78, 64
3, 167160, Note_off_c, 1, 81, 64
3, 167760, Note_on_c, 1, 81, 65
3, 167760, Note_on_c, 1, 78, 65
3, 168000, Note_off_c, 1, 78, 64
3, 168000, Note_on_c, 1, 76, 65
3, 168120, Note_off_c, 1, 81, 64
3, 168120, Note_off_c, 1, 76, 64
3, 168720, Note_on_c, 1, 76, 65
3, 168720, Note_on_c, 1, 81, 65
3, 168960, Note_off_c, 1, 76, 64
3, 168960, Note_on_c, 1, 78, 65
3, 169080, Note_off_c, 1, 81, 64
3, 169080, Note_off_c, 1, 78, 64
3, 169680, Note_on_c, 1, 81, 65
3, 169680, Note_on_c, 1, 78, 65
3, 170040, Note_off_c, 1, 78, 64
3, 170040, Note_off_c, 1, 81, 64
3, 170160, Note_on_c, 1, 77, 86
3, 170352, Note_off_c, 1, 77, 64
3, 170640, Note_on_c, 1, 76, 65
3, 170640, Note_on_c, 1, 85, 65
3, 170880, Note_off_c, 1, 85, 64
3, 170880, Note_off_c, 1, 76, 64
3, 170880, Note_on_c, 1, 83, 65
3, 170880, Note_on_c, 1, 75, 65
3, 171000, Note_off_c, 1, 75, 64
3, 171000, Note_off_c, 1, 83, 64
3, 171600, Note_on_c, 1, 74, 65
3, 171600, Note_on_c, 1, 83, 65
3, 171840, Note_off_c, 1, 83, 64
3, 171840, Note_off_c, 1, 74, 64
3, 171840, Note_on_c, 1, 73, 65
3, 171840, Note_on_c, 1, 81, 65
3, 171960, Note_off_c, 1, 81, 64
3, 171960, Note_off_c, 1, 73, 64
3, 172560, Note_on_c, 1, 81, 65
3, 172560, Note_on_c, 1, 73, 65
3, 172800, Note_off_c, 1, 73, 64
3, 172800, Note_off_c, 1, 81, 64
3, 172800, Note_on_c, 1, 80, 65
3, 172800, Note_on_c, 1, 76, 65
3, 172920, Note_off_c, 1, 76, 64
3, 172920, Note_off_c, 1, 80, 64
3, 173520, Note_on_c, 1, 76, 65
3, 173520, Note_on_c, 1, 80, 65
3, 173760, Note_off_c, 1, 80, 64
3, 173760, Note_off_c, 1, 76, 64
3, 173760, Note_on_c, 1, 85, 54
3, 173760, Note_on_c, 1, 81, 54
3, 173880, Note_off_c, 1, 81, 64
3, 173880, Note_off_c, 1, 85, 64
3, 174060, Note_on_c, 1, 81, 54
3, 174060, Note_on_c, 1, 69, 54
3, 174120, Note_off_c, 1, 69, 64
3, 174120, Note_off_c, 1, 81, 64
3, 174180, Note_on_c, 1, 69, 54
3, 174180, Note_on_c, 1, 81, 54
3, 174240, Note_off_c, 1, 81, 64
3, 174240, Note_off_c, 1, 69, 64
3, 174300, Note_on_c, 1, 69, 54
3, 174300, Note_on_c, 1, 81, 54
3, 174420, Note_off_c, 1, 81, 64
3, 174420, Note_off_c, 1, 69, 64
3, 175140, Note_on_c, 1, 69, 54
3, 175140, Note_on_c, 1, 81, 54
3, 175254, Note_off_c, 1, 81, 64
3, 175254, Note_off_c, 1, 69, 64
3, 175260, Note_on_c, 1, 81, 54
3, 175260, Note_on_c, 1, 69, 54
3, 175374, Note_off_c, 1, 69, 64
3, 175374, Note_off_c, 1, 81, 64
3, 175380, Note_on_c, 1, 69, 54
3, 175380, Note_on_c, 1, 81, 54
3, 175494, Note_off_c, 1, 81, 64
3, 175494, Note_off_c, 1, 69, 64
3, 176220, Note_on_c, 1, 80, 54
3, 176220, Note_on_c, 1, 83, 54
3, 176280, Note_off_c, 1, 83, 64
3, 176280, Note_off_c, 1, 80, 64
3, 176340, Note_on_c, 1, 83, 54
3, 176340, Note_on_c, 1, 80, 54
3, 176400, Note_off_c, 1, 80, 64
3, 176400, Note_off_c, 1, 83, 64
3, 176460, Note_on_c, 1, 83, 54
3, 176460, Note_on_c, 1, 80, 54
3, 176580, Note_off_c, 1, 80, 64
3, 176580, Note_off_c, 1, 83, 64
3, 177300, Note_on_c, 1, 83, 54
3, 177300, Note_on_c, 1, 80, 54
3, 177360, Note_off_c, 1, 80, 64
3, 177360, Note_off_c, 1, 83, 64
3, 177420, Note_on_c, 1, 80, 54
3, 177420, Note_on_c, 1, 83, 54
3, 177480, Note_off_c, 1, 83, 64
3, 177480, Note_off_c, 1, 80, 64
3, 177540, Note_on_c, 1, 83, 54
3, 177540, Note_on_c, 1, 80, 54
3, 177660, Note_off_c, 1, 80, 64
3, 177660, Note_off_c, 1, 83, 64
3, 178080, Note_on_c, 1, 76, 54
3, 178080, Note_on_c, 1, 85, 54
3, 178656, Note_off_c, 1, 85, 64
3, 178656, Note_off_c, 1, 76, 64
3, 178800, Note_on_c, 1, 74, 54
3, 178800, Note_on_c, 1, 83, 54
3, 178920, Note_off_c, 1, 83, 64
3, 178920, Note_off_c, 1, 74, 64
3, 179040, Note_on_c, 1, 73, 54
3, 179040, Note_on_c, 1, 81, 54
3, 179160, Note_off_c, 1, 81, 64
3, 179160, Note_off_c, 1, 73, 64
3, 179280, Note_on_c, 1, 85, 54
3, 179280, Note_on_c, 1, 76, 54
3, 179400, Note_off_c, 1, 76, 64
3, 179400, Note_off_c, 1, 85, 64
3, 179520, Note_on_c, 1, 74, 54
3, 179520, Note_on_c, 1, 83, 54
3, 179640, Note_off_c, 1, 83, 64
3, 179640, Note_off_c, 1, 74, 64
3, 179760, Note_on_c, 1, 81, 54
3, 179760, Note_on_c, 1, 73, 54
3, 179880, Note_off_c, 1, 73, 64
3, 179880, Note_off_c, 1, 81, 64
3, 180000, Note_on_c, 1, 83, 54
3, 180000, Note_on_c, 1, 74, 54
3, 180120, Note_off_c, 1, 74, 64
3, 180120, Note_off_c, 1, 83, 64
3, 180240, Note_on_c, 1, 81, 72
3, 180240, Note_on_c, 1, 73, 72
3, 180360, Note_off_c, 1, 73, 64
3, 180360, Note_off_c, 1, 81, 64
3, 180480, Note_on_c, 1, 80, 72
3, 180480, Note_on_c, 1, 71, 72
3, 180600, Note_off_c, 1, 71, 64
3, 180600, Note_off_c, 1, 80, 64
3, 180720, Note_on_c, 1, 74, 72
3, 180720, Note_on_c, 1, 78, 72
3, 180840, Note_off_c, 1, 78, 64
3, 180840, Note_off_c, 1, 74, 64
3, 180960, Note_on_c, 1, 76, 72
3, 180960, Note_on_c, 1, 73, 72
3, 181080, Note_off_c, 1, 73, 64
3, 181080, Note_off_c, 1, 76, 64
3, 181200, Note_on_c, 1, 71, 72
3, 181200, Note_on_c, 1, 74, 72
3, 181320, Note_off_c, 1, 74, 64
3, 181320, Note_off_c, 1, 71, 64
3, 181440, Note_on_c, 1, 69, 72
3, 181440, Note_on_c, 1, 73, 72
3, 181560, Note_off_c, 1, 73, 64
3, 181560, Note_off_c, 1, 69, 64
3, 181680, Note_on_c, 1, 68, 72
3, 181680, Note_on_c, 1, 71, 72
3, 181800, Note_off_c, 1, 71, 64
3, 181800, Note_off_c, 1, 68, 64
3, 181920, Note_on_c, 1, 81, 54
3, 181920, Note_on_c, 1, 85, 54
3, 182040, Note_off_c, 1, 85, 64
3, 182040, Note_off_c, 1, 81, 64
3, 182220, Note_on_c, 1, 69, 54
3, 182220, Note_on_c, 1, 81, 54
3, 182280, Note_off_c, 1, 81, 64
3, 182280, Note_off_c, 1, 69, 64
3, 182340, Note_on_c, 1, 69, 54
3, 182340, Note_on_c, 1, 81, 54
3, 182400, Note_off_c, 1, 81, 64
3, 182400, Note_off_c, 1, 69, 64
3, 182460, Note_on_c, 1, 69, 54
3, 182460, Note_on_c, 1, 81, 54
3, 182580, Note_off_c, 1, 81, 64
3, 182580, Note_off_c, 1, 69, 64
3, 183300, Note_on_c, 1, 69, 54
3, 183300, Note_on_c, 1, 81, 54
3, 183360, Note_off_c, 1, 81, 64
3, 183360, Note_off_c, 1, 69, 64
3, 183420, Note_on_c, 1, 69, 54
3, 183420, Note_on_c, 1, 81, 54
3, 183480, Note_off_c, 1, 81, 64
3, 183480, Note_off_c, 1, 69, 64
3, 183540, Note_on_c, 1, 69, 54
3, 183540, Note_on_c, 1, 81, 54
3, 183660, Note_off_c, 1, 81, 64
3, 183660, Note_off_c, 1, 69, 64
3, 184380, Note_on_c, 1, 80, 54
3, 184380, Note_on_c, 1, 83, 54
3, 184440, Note_off_c, 1, 83, 64
3, 184440, Note_off_c, 1, 80, 64
3, 184500, Note_on_c, 1, 80, 54
3, 184500, Note_on_c, 1, 83, 54
3, 184560, Note_off_c, 1, 83, 64
3, 184560, Note_off_c, 1, 80, 64
3, 184620, Note_on_c, 1, 80, 54
3, 184620, Note_on_c, 1, 83, 54
3, 184740, Note_off_c, 1, 83, 64
3, 184740, Note_off_c, 1, 80, 64
3, 185400, Note_on_c, 1, 80, 54
3, 185400, Note_on_c, 1, 83, 54
3, 185460, Note_off_c, 1, 83, 64
3, 185460, Note_off_c, 1, 80, 64
3, 185520, Note_on_c, 1, 83, 54
3, 185520, Note_on_c, 1, 80, 54
3, 185580, Note_off_c, 1, 80, 64
3, 185580, Note_off_c, 1, 83, 64
3, 185640, Note_on_c, 1, 83, 54
3, 185640, Note_on_c, 1, 80, 54
3, 185760, Note_off_c, 1, 80, 64
3, 185760, Note_off_c, 1, 83, 64
3, 186240, Note_on_c, 1, 81, 64
3, 186240, Note_on_c, 1, 85, 64
3, 186432, Note_off_c, 1, 85, 64
3, 186432, Note_off_c, 1, 81, 64
3, 186720, Note_on_c, 1, 81, 64
3, 186720, Note_on_c, 1, 85, 64
3, 186912, Note_off_c, 1, 85, 64
3, 186912, Note_off_c, 1, 81, 64
3, 187200, Note_on_c, 1, 81, 64
3, 187200, Note_on_c, 1, 85, 64
3, 187392, Note_off_c, 1, 85, 64
3, 187392, Note_off_c, 1, 81, 64
3, 187680, Note_on_c, 1, 81, 64
3, 187680, Note_on_c, 1, 85, 64
3, 187872, Note_off_c, 1, 85, 64
3, 187872, Note_off_c, 1, 81, 64
3, 188160, Note_on_c, 1, 83, 64
3, 188160, Note_on_c, 1, 86, 64
3, 188352, Note_off_c, 1, 86, 64
3, 188352, Note_off_c, 1, 83, 64
3, 188640, Note_on_c, 1, 83, 61
3, 188640, Note_on_c, 1, 86, 61
3, 188832, Note_off_c, 1, 86, 64
3, 188832, Note_off_c, 1, 83, 64
3, 189120, Note_on_c, 1, 83, 57
3, 189120, Note_on_c, 1, 86, 57
3, 189312, Note_off_c, 1, 86, 64
3, 189312, Note_off_c, 1, 83, 64
3, 189600, Note_on_c, 1, 83, 53
3, 189600, Note_on_c, 1, 86, 53
3, 189792, Note_off_c, 1, 86, 64
3, 189792, Note_off_c, 1, 83, 64
3, 190080, Note_on_c, 1, 81, 60
3, 190080, Note_on_c, 1, 85, 60
3, 190272, Note_off_c, 1, 85, 64
3, 190272, Note_off_c, 1, 81, 64
3, 191040, Note_on_c, 1, 64, 58
3, 191040, Note_on_c, 1, 76, 58
3, 194146, Note_off_c, 1, 76, 64
3, 194146, Note_off_c, 1, 64, 64
3, 194880, Note_on_c, 1, 64, 58
3, 194880, Note_on_c, 1, 76, 58
3, 197280, Note_off_c, 1, 76, 64
3, 197280, Note_off_c, 1, 64, 64
3, 197280, Note_on_c, 1, 65, 58
3, 197280, Note_on_c, 1, 77, 58
3, 197760, Note_off_c, 1, 77, 64
3, 197760, Note_off_c, 1, 65, 64
3, 197760, Note_on_c, 1, 78, 58
3, 197760, Note_on_c, 1, 66, 58
3, 198000, Note_off_c, 1, 66, 64
3, 198000, Note_off_c, 1, 78, 64
3, 198720, Note_on_c, 1, 73, 58
3, 198720, Note_on_c, 1, 85, 58
3, 201826, Note_off_c, 1, 85, 64
3, 201826, Note_off_c, 1, 73, 64
3, 202560, Note_on_c, 1, 73, 58
3, 202560, Note_on_c, 1, 85, 58
3, 204960, Note_off_c, 1, 85, 64
3, 204960, Note_off_c, 1, 73, 64
3, 204960, Note_on_c, 1, 73, 96
3, 204960, Note_on_c, 1, 77, 96
3, 205440, Note_off_c, 1, 77, 64
3, 205440, Note_on_c, 1, 78, 58
3, 205680, Note_off_c, 1, 73, 64
3, 205680, Note_off_c, 1, 78, 64
3, 205920, Note_on_c, 1, 81, 80
3, 205920, Note_on_c, 1, 73, 80
3, 206064, Note_off_c, 1, 73, 64
3, 206064, Note_off_c, 1, 81, 64
3, 206400, Note_on_c, 1, 73, 80
3, 206400, Note_on_c, 1, 81, 80
3, 206544, Note_off_c, 1, 81, 64
3, 206544, Note_off_c, 1, 73, 64
3, 206880, Note_on_c, 1, 73, 80
3, 206880, Note_on_c, 1, 81, 80
3, 207024, Note_off_c, 1, 81, 64
3, 207024, Note_off_c, 1, 73, 64
3, 207360, Note_on_c, 1, 73, 80
3, 207360, Note_on_c, 1, 83, 80
3, 207504, Note_off_c, 1, 83, 64
3, 207504, Note_off_c, 1, 73, 64
3, 207840, Note_on_c, 1, 73, 80
3, 207840, Note_on_c, 1, 83, 80
3, 207984, Note_off_c, 1, 83, 64
3, 207984, Note_off_c, 1, 73, 64
3, 208320, Note_on_c, 1, 73, 80
3, 208320, Note_on_c, 1, 83, 80
3, 208464, Note_off_c, 1, 83, 64
3, 208464, Note_off_c, 1, 73, 64
3, 208800, Note_on_c, 1, 73, 80
3, 208800, Note_on_c, 1, 83, 80
3, 208944, Note_off_c, 1, 83, 64
3, 208944, Note_off_c, 1, 73, 64
3, 209280, Note_on_c, 1, 73, 80
3, 209280, Note_on_c, 1, 81, 80
3, 209424, Note_off_c, 1, 81, 64
3, 209424, Note_off_c, 1, 73, 64
3, 209760, Note_on_c, 1, 73, 80
3, 209760, Note_on_c, 1, 81, 80
3, 209904, Note_off_c, 1, 81, 64
3, 209904, Note_off_c, 1, 73, 64
3, 210240, Note_on_c, 1, 73, 80
3, 210240, Note_on_c, 1, 82, 80
3, 210384, Note_off_c, 1, 82, 64
3, 210384, Note_off_c, 1, 73, 64
3, 210720, Note_on_c, 1, 73, 80
3, 210720, Note_on_c, 1, 82, 80
3, 210864, Note_off_c, 1, 82, 64
3, 210864, Note_off_c, 1, 73, 64
3, 211200, Note_on_c, 1, 75, 80
3, 211200, Note_on_c, 1, 84, 80
3, 211344, Note_off_c, 1, 84, 64
3, 211344, Note_off_c, 1, 75, 64
3, 211680, Note_on_c, 1, 75, 80
3, 211680, Note_on_c, 1, 84, 80
3, 211824, Note_off_c, 1, 84, 64
3, 211824, Note_off_c, 1, 75, 64
3, 212160, Note_on_c, 1, 76, 80
3, 212160, Note_on_c, 1, 85, 80
3, 212304, Note_off_c, 1, 85, 64
3, 212304, Note_off_c, 1, 76, 64
3, 212640, Note_on_c, 1, 76, 80
3, 212640, Note_on_c, 1, 85, 80
3, 212784, Note_off_c, 1, 85, 64
3, 212784, Note_off_c, 1, 76, 64
3, 213120, Note_on_c, 1, 75, 80
3, 213120, Note_on_c, 1, 78, 80
3, 213264, Note_off_c, 1, 78, 64
3, 213264, Note_off_c, 1, 75, 64
3, 213600, Note_on_c, 1, 78, 80
3, 213600, Note_on_c, 1, 75, 80
3, 213744, Note_off_c, 1, 75, 64
3, 213744, Note_off_c, 1, 78, 64
3, 214080, Note_on_c, 1, 75, 80
3, 214080, Note_on_c, 1, 78, 80
3, 214224, Note_off_c, 1, 78, 64
3, 214224, Note_off_c, 1, 75, 64
3, 214560, Note_on_c, 1, 78, 80
3, 214560, Note_on_c, 1, 75, 80
3, 214704, Note_off_c, 1, 75, 64
3, 214704, Note_off_c, 1, 78, 64
3, 215040, Note_on_c, 1, 75, 80
3, 215040, Note_on_c, 1, 78, 80
3, 215184, Note_off_c, 1, 78, 64
3, 215184, Note_off_c, 1, 75, 64
3, 215520, Note_on_c, 1, 78, 80
3, 215520, Note_on_c, 1, 75, 80
3, 215664, Note_off_c, 1, 75, 64
3, 215664, Note_off_c, 1, 78, 64
3, 219360, Note_on_c, 1, 78, 80
3, 219360, Note_on_c, 1, 75, 80
3, 219504, Note_off_c, 1, 75, 64
3, 219504, Note_off_c, 1, 78, 64
3, 227040, Note_on_c, 1, 80, 80
3, 227424, Note_off_c, 1, 80, 64
3, 228000, Note_on_c, 1, 80, 80
3, 228000, Note_on_c, 1, 78, 80
3, 228384, Note_off_c, 1, 78, 64
3, 228384, Note_off_c, 1, 80, 64
3, 228960, Note_on_c, 1, 76, 80
3, 228960, Note_on_c, 1, 80, 80
3, 229344, Note_off_c, 1, 80, 64
3, 229344, Note_off_c, 1, 76, 64
3, 229920, Note_on_c, 1, 80, 80
3, 229920, Note_on_c, 1, 78, 80
3, 230304, Note_off_c, 1, 78, 64
3, 230304, Note_off_c, 1, 80, 64
3, 230400, Note_on_c, 1, 76, 64
3, 231586, Note_off_c, 1, 76, 64
3, 231720, Note_on_c, 1, 78, 64
3, 231840, Note_off_c, 1, 78, 64
3, 231840, Note_on_c, 1, 79, 64
3, 231936, Note_off_c, 1, 79, 64
3, 232200, Note_on_c, 1, 76, 64
3, 232314, Note_off_c, 1, 76, 64
3, 232320, Note_on_c, 1, 78, 64
3, 232416, Note_off_c, 1, 78, 64
3, 232680, Note_on_c, 1, 76, 64
3, 232794, Note_off_c, 1, 76, 64
3, 232800, Note_on_c, 1, 74, 64
3, 232896, Note_off_c, 1, 74, 64
3, 233160, Note_on_c, 1, 78, 64
3, 233274, Note_off_c, 1, 78, 64
3, 233280, Note_on_c, 1, 76, 64
3, 233376, Note_off_c, 1, 76, 64
3, 233640, Note_on_c, 1, 78, 64
3, 233754, Note_off_c, 1, 78, 64
3, 233760, Note_on_c, 1, 79, 64
3, 233856, Note_off_c, 1, 79, 64
3, 234120, Note_on_c, 1, 76, 64
3, 234234, Note_off_c, 1, 76, 64
3, 234240, Note_on_c, 1, 78, 64
3, 234336, Note_off_c, 1, 78, 64
3, 234600, Note_on_c, 1, 76, 64
3, 234714, Note_off_c, 1, 76, 64
3, 234720, Note_on_c, 1, 74, 64
3, 234816, Note_off_c, 1, 74, 64
3, 235080, Note_on_c, 1, 78, 64
3, 235194, Note_off_c, 1, 78, 64
3, 236640, Note_on_c, 1, 80, 80
3, 237024, Note_off_c, 1, 80, 64
3, 237600, Note_on_c, 1, 80, 80
3, 237600, Note_on_c, 1, 78, 80
3, 237984, Note_off_c, 1, 78, 64
3, 237984, Note_off_c, 1, 80, 64
3, 238560, Note_on_c, 1, 76, 80
3, 238560, Note_on_c, 1, 80, 80
3, 238944, Note_off_c, 1, 80, 64
3, 238944, Note_off_c, 1, 76, 64
3, 239520, Note_on_c, 1, 80, 80
3, 239520, Note_on_c, 1, 78, 80
3, 239904, Note_off_c, 1, 78, 64
3, 239904, Note_off_c, 1, 80, 64
3, 240000, Note_on_c, 1, 76, 64
3, 241186, Note_off_c, 1, 76, 64
3, 241320, Note_on_c, 1, 78, 64
3, 241440, Note_off_c, 1, 78, 64
3, 241440, Note_on_c, 1, 79, 64
3, 241536, Note_off_c, 1, 79, 64
3, 241800, Note_on_c, 1, 76, 64
3, 241914, Note_off_c, 1, 76, 64
3, 241920, Note_on_c, 1, 78, 64
3, 242016, Note_off_c, 1, 78, 64
3, 242280, Note_on_c, 1, 76, 64
3, 242394, Note_off_c, 1, 76, 64
3, 242400, Note_on_c, 1, 74, 64
3, 242496, Note_off_c, 1, 74, 64
3, 242760, Note_on_c, 1, 78, 64
3, 242874, Note_off_c, 1, 78, 64
3, 242880, Note_on_c, 1, 76, 64
3, 242976, Note_off_c, 1, 76, 64
3, 243240, Note_on_c, 1, 78, 64
3, 243354, Note_off_c, 1, 78, 64
3, 243360, Note_on_c, 1, 79, 64
3, 243456, Note_off_c, 1, 79, 64
3, 243720, Note_on_c, 1, 78, 64
3, 243834, Note_off_c, 1, 78, 64
3, 243840, Note_on_c, 1, 79, 64
3, 243840, Note_on_c, 1, 76, 64
3, 243936, Note_off_c, 1, 76, 64
3, 243936, Note_off_c, 1, 79, 64
3, 244320, Note_on_c, 1, 79, 48
3, 244320, Note_on_c, 1, 76, 48
3, 248640, Note_off_c, 1, 76, 64
3, 248640, Note_off_c, 1, 79, 64
3, 248640, Note_on_c, 1, 78, 53
3, 248640, Note_on_c, 1, 74, 53
3, 249600, Note_off_c, 1, 74, 64
3, 249600, Note_off_c, 1, 78, 64
3, 249600, Note_on_c, 1, 79, 64
3, 249600, Note_on_c, 1, 76, 64
3, 254400, Note_off_c, 1, 76, 64
3, 254400, Note_off_c, 1, 79, 64
3, 254400, Note_on_c, 1, 78, 85
3, 254400, Note_on_c, 1, 74, 85
3, 255264, Note_off_c, 1, 74, 64
3, 255264, Note_off_c, 1, 78, 64
3, 255360, Note_on_c, 1, 78, 99
3, 255360, Note_on_c, 1, 81, 99
3, 255480, Note_off_c, 1, 81, 64
3, 255480, Note_off_c, 1, 78, 64
3, 255600, Note_on_c, 1, 78, 99
3, 255600, Note_on_c, 1, 81, 99
3, 255720, Note_off_c, 1, 81, 64
3, 255720, Note_off_c, 1, 78, 64
3, 255840, Note_on_c, 1, 81, 99
3, 255840, Note_on_c, 1, 78, 99
3, 255960, Note_off_c, 1, 78, 64
3, 255960, Note_off_c, 1, 81, 64
3, 256080, Note_on_c, 1, 81, 99
3, 256080, Note_on_c, 1, 78, 99
3, 256200, Note_off_c, 1, 78, 64
3, 256200, Note_off_c, 1, 81, 64
3, 256320, Note_on_c, 1, 81, 99
3, 256320, Note_on_c, 1, 78, 99
3, 256440, Note_off_c, 1, 78, 64
3, 256440, Note_off_c, 1, 81, 64
3, 256560, Note_on_c, 1, 81, 99
3, 256560, Note_on_c, 1, 78, 99
3, 256680, Note_off_c, 1, 78, 64
3, 256680, Note_off_c, 1, 81, 64
3, 256800, Note_on_c, 1, 81, 99
3, 256800, Note_on_c, 1, 78, 99
3, 256920, Note_off_c, 1, 78, 64
3, 256920, Note_off_c, 1, 81, 64
3, 257040, Note_on_c, 1, 81, 99
3, 257040, Note_on_c, 1, 78, 99
3, 257160, Note_off_c, 1, 78, 64
3, 257160, Note_off_c, 1, 81, 64
3, 257280, Note_on_c, 1, 80, 127
3, 257280, Note_on_c, 1, 76, 127
3, 257400, Note_off_c, 1, 76, 64
3, 257400, Note_off_c, 1, 80, 64
3, 257520, Note_on_c, 1, 76, 99
3, 257520, Note_on_c, 1, 80, 99
3, 257640, Note_off_c, 1, 80, 64
3, 257640, Note_off_c, 1, 76, 64
3, 257760, Note_on_c, 1, 76, 99
3, 257760, Note_on_c, 1, 80, 99
3, 257880, Note_off_c, 1, 80, 64
3, 257880, Note_off_c, 1, 76, 64
3, 258000, Note_on_c, 1, 80, 99
3, 258000, Note_on_c, 1, 76, 99
3, 258120, Note_off_c, 1, 76, 64
3, 258120, Note_off_c, 1, 80, 64
3, 258240, Note_on_c, 1, 81, 127
3, 258240, Note_on_c, 1, 78, 127
3, 258360, Note_off_c, 1, 78, 64
3, 258360, Note_off_c, 1, 81, 64
3, 258480, Note_on_c, 1, 78, 99
3, 258480, Note_on_c, 1, 81, 99
3, 258600, Note_off_c, 1, 81, 64
3, 258600, Note_off_c, 1, 78, 64
3, 258720, Note_on_c, 1, 78, 99
3, 258720, Note_on_c, 1, 81, 99
3, 258840, Note_off_c, 1, 81, 64
3, 258840, Note_off_c, 1, 78, 64
3, 258960, Note_on_c, 1, 78, 99
3, 258960, Note_on_c, 1, 81, 99
3, 259080, Note_off_c, 1, 81, 64
3, 259080, Note_off_c, 1, 78, 64
3, 259200, Note_on_c, 1, 80, 127
3, 259200, Note_on_c, 1, 76, 127
3, 259320, Note_off_c, 1, 76, 64
3, 259320, Note_off_c, 1, 80, 64
3, 259440, Note_on_c, 1, 80, 99
3, 259440, Note_on_c, 1, 76, 99
3, 259560, Note_off_c, 1, 76, 64
3, 259560, Note_off_c, 1, 80, 64
3, 259680, Note_on_c, 1, 76, 99
3, 259680, Note_on_c, 1, 80, 99
3, 259800, Note_off_c, 1, 80, 64
3, 259800, Note_off_c, 1, 76, 64
3, 259920, Note_on_c, 1, 76, 99
3, 259920, Note_on_c, 1, 80, 99
3, 260040, Note_off_c, 1, 80, 64
3, 260040, Note_off_c, 1, 76, 64
3, 260160, Note_on_c, 1, 81, 127
3, 260160, Note_on_c, 1, 78, 127
3, 260280, Note_off_c, 1, 78, 64
3, 260280, Note_off_c, 1, 81, 64
3, 260400, Note_on_c, 1, 81, 99
3, 260400, Note_on_c, 1, 78, 99
3, 260520, Note_off_c, 1, 78, 64
3, 260520, Note_off_c, 1, 81, 64
3, 260640, Note_on_c, 1, 78, 99
3, 260640, Note_on_c, 1, 81, 99
3, 260760, Note_off_c, 1, 81, 64
3, 260760, Note_off_c, 1, 78, 64
3, 260880, Note_on_c, 1, 78, 99
3, 260880, Note_on_c, 1, 81, 99
3, 261000, Note_off_c, 1, 81, 64
3, 261000, Note_off_c, 1, 78, 64
3, 261120, Note_on_c, 1, 80, 127
3, 261120, Note_on_c, 1, 76, 127
3, 261240, Note_off_c, 1, 76, 64
3, 261240, Note_off_c, 1, 80, 64
3, 261360, Note_on_c, 1, 80, 99
3, 261360, Note_on_c, 1, 76, 99
3, 261480, Note_off_c, 1, 76, 64
3, 261480, Note_off_c, 1, 80, 64
3, 261600, Note_on_c, 1, 76, 99
3, 261600, Note_on_c, 1, 80, 99
3, 261720, Note_off_c, 1, 80, 64
3, 261720, Note_off_c, 1, 76, 64
3, 261840, Note_on_c, 1, 76, 99
3, 261840, Note_on_c, 1, 80, 99
3, 261960, Note_off_c, 1, 80, 64
3, 261960, Note_off_c, 1, 76, 64
3, 262080, Note_on_c, 1, 81, 127
3, 262080, Note_on_c, 1, 78, 127
3, 262200, Note_off_c, 1, 78, 64
3, 262200, Note_off_c, 1, 81, 64
3, 262320, Note_on_c, 1, 81, 99
3, 262320, Note_on_c, 1, 78, 99
3, 262440, Note_off_c, 1, 78, 64
3, 262440, Note_off_c, 1, 81, 64
3, 262560, Note_on_c, 1, 78, 99
3, 262560, Note_on_c, 1, 81, 99
3, 262680, Note_off_c, 1, 81, 64
3, 262680, Note_off_c, 1, 78, 64
3, 262800, Note_on_c, 1, 78, 99
3, 262800, Note_on_c, 1, 81, 99
3, 262920, Note_off_c, 1, 81, 64
3, 262920, Note_off_c, 1, 78, 64
3, 263040, Note_on_c, 1, 80, 127
3, 263040, Note_on_c, 1, 76, 127
3, 263160, Note_off_c, 1, 76, 64
3, 263160, Note_off_c, 1, 80, 64
3, 263280, Note_on_c, 1, 80, 99
3, 263280, Note_on_c, 1, 76, 99
3, 263400, Note_off_c, 1, 76, 64
3, 263400, Note_off_c, 1, 80, 64
3, 263520, Note_on_c, 1, 76, 99
3, 263520, Note_on_c, 1, 80, 99
3, 263640, Note_off_c, 1, 80, 64
3, 263640, Note_off_c, 1, 76, 64
3, 263760, Note_on_c, 1, 76, 99
3, 263760, Note_on_c, 1, 80, 99
3, 263880, Note_off_c, 1, 80, 64
3, 263880, Note_off_c, 1, 76, 64
3, 264000, Note_on_c, 1, 80, 127
3, 264000, Note_on_c, 1, 78, 127
3, 264120, Note_off_c, 1, 78, 64
3, 264120, Note_off_c, 1, 80, 64
3, 264240, Note_on_c, 1, 80, 99
3, 264240, Note_on_c, 1, 78, 99
3, 264360, Note_off_c, 1, 78, 64
3, 264360, Note_off_c, 1, 80, 64
3, 264480, Note_on_c, 1, 78, 99
3, 264480, Note_on_c, 1, 80, 99
3, 264600, Note_off_c, 1, 80, 64
3, 264600, Note_off_c, 1, 78, 64
3, 264720, Note_on_c, 1, 78, 99
3, 264720, Note_on_c, 1, 80, 99
3, 264840, Note_off_c, 1, 80, 64
3, 264840, Note_off_c, 1, 78, 64
3, 264960, Note_on_c, 1, 80, 99
3, 264960, Note_on_c, 1, 76, 99
3, 265080, Note_off_c, 1, 76, 64
3, 265080, Note_off_c, 1, 80, 64
3, 265200, Note_on_c, 1, 76, 99
3, 265200, Note_on_c, 1, 80, 99
3, 265320, Note_off_c, 1, 80, 64
3, 265320, Note_off_c, 1, 76, 64
3, 265440, Note_on_c, 1, 81, 127
3, 265440, Note_on_c, 1, 78, 127
3, 265560, Note_off_c, 1, 78, 64
3, 265560, Note_off_c, 1, 81, 64
3, 265680, Note_on_c, 1, 81, 99
3, 265680, Note_on_c, 1, 78, 99
3, 265800, Note_off_c, 1, 78, 64
3, 265800, Note_off_c, 1, 81, 64
3, 265920, Note_on_c, 1, 81, 99
3, 265920, Note_on_c, 1, 78, 99
3, 266040, Note_off_c, 1, 78, 64
3, 266040, Note_off_c, 1, 81, 64
3, 266160, Note_on_c, 1, 78, 99
3, 266160, Note_on_c, 1, 81, 99
3, 266280, Note_off_c, 1, 81, 64
3, 266280, Note_off_c, 1, 78, 64
3, 266400, Note_on_c, 1, 78, 99
3, 266400, Note_on_c, 1, 81, 99
3, 266520, Note_off_c, 1, 81, 64
3, 266520, Note_off_c, 1, 78, 64
3, 266640, Note_on_c, 1, 78, 99
3, 266640, Note_on_c, 1, 81, 99
3, 266760, Note_off_c, 1, 81, 64
3, 266760, Note_off_c, 1, 78, 64
3, 266880, Note_on_c, 1, 80, 99
3, 266880, Note_on_c, 1, 76, 99
3, 267000, Note_off_c, 1, 76, 64
3, 267000, Note_off_c, 1, 80, 64
3, 267120, Note_on_c, 1, 80, 99
3, 267120, Note_on_c, 1, 76, 99
3, 267240, Note_off_c, 1, 76, 64
3, 267240, Note_off_c, 1, 80, 64
3, 267360, Note_on_c, 1, 81, 127
3, 267360, Note_on_c, 1, 78, 127
3, 267480, Note_off_c, 1, 78, 64
3, 267480, Note_off_c, 1, 81, 64
3, 267600, Note_on_c, 1, 81, 99
3, 267600, Note_on_c, 1, 78, 99
3, 267720, Note_off_c, 1, 78, 64
3, 267720, Note_off_c, 1, 81, 64
3, 267840, Note_on_c, 1, 81, 99
3, 267840, Note_on_c, 1, 78, 99
3, 267960, Note_off_c, 1, 78, 64
3, 267960, Note_off_c, 1, 81, 64
3, 268080, Note_on_c, 1, 81, 99
3, 268080, Note_on_c, 1, 78, 99
3, 268200, Note_off_c, 1, 78, 64
3, 268200, Note_off_c, 1, 81, 64
3, 268320, Note_on_c, 1, 78, 99
3, 268320, Note_on_c, 1, 81, 99
3, 268440, Note_off_c, 1, 81, 64
3, 268440, Note_off_c, 1, 78, 64
3, 268560, Note_on_c, 1, 78, 99
3, 268560, Note_on_c, 1, 81, 99
3, 268680, Note_off_c, 1, 81, 64
3, 268680, Note_off_c, 1, 78, 64
3, 268800, Note_on_c, 1, 80, 99
3, 268800, Note_on_c, 1, 76, 99
3, 268920, Note_off_c, 1, 76, 64
3, 268920, Note_off_c, 1, 80, 64
3, 269040, Note_on_c, 1, 80, 99
3, 269040, Note_on_c, 1, 76, 99
3, 269160, Note_off_c, 1, 76, 64
3, 269160, Note_off_c, 1, 80, 64
3, 269280, Note_on_c, 1, 81, 127
3, 269280, Note_on_c, 1, 78, 127
3, 269400, Note_off_c, 1, 78, 64
3, 269400, Note_off_c, 1, 81, 64
3, 269520, Note_on_c, 1, 81, 99
3, 269520, Note_on_c, 1, 78, 99
3, 269640, Note_off_c, 1, 78, 64
3, 269640, Note_off_c, 1, 81, 64
3, 269760, Note_on_c, 1, 80, 99
3, 269760, Note_on_c, 1, 76, 99
3, 269880, Note_off_c, 1, 76, 64
3, 269880, Note_off_c, 1, 80, 64
3, 270000, Note_on_c, 1, 80, 99
3, 270000, Note_on_c, 1, 76, 99
3, 270120, Note_off_c, 1, 76, 64
3, 270120, Note_off_c, 1, 80, 64
3, 270240, Note_on_c, 1, 81, 127
3, 270240, Note_on_c, 1, 78, 127
3, 270360, Note_off_c, 1, 78, 64
3, 270360, Note_off_c, 1, 81, 64
3, 270480, Note_on_c, 1, 81, 99
3, 270480, Note_on_c, 1, 78, 99
3, 270600, Note_off_c, 1, 78, 64
3, 270600, Note_off_c, 1, 81, 64
3, 270720, Note_on_c, 1, 80, 99
3, 270720, Note_on_c, 1, 76, 99
3, 270840, Note_off_c, 1, 76, 64
3, 270840, Note_off_c, 1, 80, 64
3, 270960, Note_on_c, 1, 80, 99
3, 270960, Note_on_c, 1, 76, 99
3, 271080, Note_off_c, 1, 76, 64
3, 271080, Note_off_c, 1, 80, 64
3, 271200, Note_on_c, 1, 81, 127
3, 271200, Note_on_c, 1, 78, 127
3, 271320, Note_off_c, 1, 78, 64
3, 271320, Note_off_c, 1, 81, 64
3, 271440, Note_on_c, 1, 81, 99
3, 271440, Note_on_c, 1, 78, 99
3, 271560, Note_off_c, 1, 78, 64
3, 271560, Note_off_c, 1, 81, 64
3, 271680, Note_on_c, 1, 80, 99
3, 271680, Note_on_c, 1, 76, 99
3, 271800, Note_off_c, 1, 76, 64
3, 271800, Note_off_c, 1, 80, 64
3, 271920, Note_on_c, 1, 81, 99
3, 271920, Note_on_c, 1, 69, 99
3, 272040, Note_off_c, 1, 69, 64
3, 272040, Note_off_c, 1, 81, 64
3, 272160, Note_on_c, 1, 70, 127
3, 272160, Note_on_c, 1, 82, 127
3, 272280, Note_off_c, 1, 82, 64
3, 272280, Note_off_c, 1, 70, 64
3, 272400, Note_on_c, 1, 82, 99
3, 272400, Note_on_c, 1, 70, 99
3, 272520, Note_off_c, 1, 70, 64
3, 272520, Note_off_c, 1, 82, 64
3, 272940, Note_on_c, 1, 76, 54
3, 273054, Note_off_c, 1, 76, 64
3, 273060, Note_on_c, 1, 76, 54
3, 273174, Note_off_c, 1, 76, 64
3, 273180, Note_on_c, 1, 76, 72
3, 273294, Note_off_c, 1, 76, 64
3, 275340, Note_on_c, 1, 82, 41
3, 275340, Note_on_c, 1, 79, 41
3, 275454, Note_off_c, 1, 79, 64
3, 275454, Note_off_c, 1, 82, 64
3, 275460, Note_on_c, 1, 82, 41
3, 275460, Note_on_c, 1, 79, 41
3, 275574, Note_off_c, 1, 79, 64
3, 275574, Note_off_c, 1, 82, 64
3, 275580, Note_on_c, 1, 79, 54
3, 275580, Note_on_c, 1, 82, 54
3, 275694, Note_off_c, 1, 82, 64
3, 275694, Note_off_c, 1, 79, 64
3, 277440, Note_on_c, 1, 76, 54
3, 277440, Note_on_c, 1, 79, 54
3, 277560, Note_off_c, 1, 79, 64
3, 277560, Note_off_c, 1, 76, 64
3, 278160, Note_on_c, 1, 76, 54
3, 278160, Note_on_c, 1, 79, 54
3, 278400, Note_off_c, 1, 79, 64
3, 278400, Note_off_c, 1, 76, 64
3, 278400, Note_on_c, 1, 81, 54
3, 278400, Note_on_c, 1, 77, 54
3, 278520, Note_off_c, 1, 77, 64
3, 278520, Note_off_c, 1, 81, 64
3, 279120, Note_on_c, 1, 77, 54
3, 279120, Note_on_c, 1, 81, 54
3, 279360, Note_off_c, 1, 81, 64
3, 279360, Note_off_c, 1, 77, 64
3, 279360, Note_on_c, 1, 76, 54
3, 279360, Note_on_c, 1, 79, 54
3, 279480, Note_off_c, 1, 79, 64
3, 279480, Note_off_c, 1, 76, 64
3, 280080, Note_on_c, 1, 79, 54
3, 280080, Note_on_c, 1, 76, 54
3, 280320, Note_off_c, 1, 76, 64
3, 280320, Note_off_c, 1, 79, 64
3, 280320, Note_on_c, 1, 81, 54
3, 280320, Note_on_c, 1, 77, 54
3, 280440, Note_off_c, 1, 77, 64
3, 280440, Note_off_c, 1, 81, 64
3, 284160, Note_on_c, 1, 83, 54
3, 284160, Note_on_c, 1, 80, 54
3, 284280, Note_off_c, 1, 80, 64
3, 284280, Note_off_c, 1, 83, 64
3, 284880, Note_on_c, 1, 83, 54
3, 284880, Note_on_c, 1, 80, 54
3, 285120, Note_off_c, 1, 80, 64
3, 285120, Note_off_c, 1, 83, 64
3, 285120, Note_on_c, 1, 84, 54
3, 285120, Note_on_c, 1, 81, 54
3, 285240, Note_off_c, 1, 81, 64
3, 285240, Note_off_c, 1, 84, 64
3, 285840, Note_on_c, 1, 81, 54
3, 285840, Note_on_c, 1, 84, 54
3, 286080, Note_off_c, 1, 84, 64
3, 286080, Note_off_c, 1, 81, 64
3, 286080, Note_on_c, 1, 80, 54
3, 286080, Note_on_c, 1, 83, 54
3, 286200, Note_off_c, 1, 83, 64
3, 286200, Note_off_c, 1, 80, 64
3, 286800, Note_on_c, 1, 83, 54
3, 286800, Note_on_c, 1, 80, 54
3, 287040, Note_off_c, 1, 80, 64
3, 287040, Note_off_c, 1, 83, 64
3, 287040, Note_on_c, 1, 81, 54
3, 287040, Note_on_c, 1, 84, 54
3, 287160, Note_off_c, 1, 84, 64
3, 287160, Note_off_c, 1, 81, 64
3, 296640, Note_on_c, 1, 74, 54
3, 296640, Note_on_c, 1, 71, 54
3, 296760, Note_off_c, 1, 71, 64
3, 296760, Note_off_c, 1, 74, 64
3, 297360, Note_on_c, 1, 71, 54
3, 297360, Note_on_c, 1, 74, 54
3, 297600, Note_off_c, 1, 74, 64
3, 297600, Note_off_c, 1, 71, 64
3, 297600, Note_on_c, 1, 72, 54
3, 297600, Note_on_c, 1, 76, 54
3, 297720, Note_off_c, 1, 76, 64
3, 297720, Note_off_c, 1, 72, 64
3, 298320, Note_on_c, 1, 72, 54
3, 298320, Note_on_c, 1, 76, 54
3, 298560, Note_off_c, 1, 76, 64
3, 298560, Note_off_c, 1, 72, 64
3, 298560, Note_on_c, 1, 74, 54
3, 298560, Note_on_c, 1, 71, 54
3, 298680, Note_off_c, 1, 71, 64
3, 298680, Note_off_c, 1, 74, 64
3, 299280, Note_on_c, 1, 74, 54
3, 299280, Note_on_c, 1, 71, 54
3, 299520, Note_off_c, 1, 71, 64
3, 299520, Note_off_c, 1, 74, 64
3, 299520, Note_on_c, 1, 72, 54
3, 299520, Note_on_c, 1, 76, 54
3, 299640, Note_off_c, 1, 76, 64
3, 299640, Note_off_c, 1, 72, 64
3, 300240, Note_on_c, 1, 76, 54
3, 300240, Note_on_c, 1, 72, 54
3, 300480, Note_off_c, 1, 72, 64
3, 300480, Note_off_c, 1, 76, 64
3, 300480, Note_on_c, 1, 74, 54
3, 300480, Note_on_c, 1, 71, 54
3, 300600, Note_off_c, 1, 71, 64
3, 300600, Note_off_c, 1, 74, 64
3, 301200, Note_on_c, 1, 71, 54
3, 301200, Note_on_c, 1, 74, 54
3, 301440, Note_off_c, 1, 74, 64
3, 301440, Note_off_c, 1, 71, 64
3, 301440, Note_on_c, 1, 72, 54
3, 301440, Note_on_c, 1, 76, 54
3, 301560, Note_off_c, 1, 76, 64
3, 301560, Note_off_c, 1, 72, 64
3, 302160, Note_on_c, 1, 76, 54
3, 302160, Note_on_c, 1, 72, 54
3, 302400, Note_off_c, 1, 72, 64
3, 302400, Note_off_c, 1, 76, 64
3, 302400, Note_on_c, 1, 74, 54
3, 302400, Note_on_c, 1, 71, 54
3, 302520, Note_off_c, 1, 71, 64
3, 302520, Note_off_c, 1, 74, 64
3, 303120, Note_on_c, 1, 74, 54
3, 303120, Note_on_c, 1, 71, 54
3, 303360, Note_off_c, 1, 71, 64
3, 303360, Note_off_c, 1, 74, 64
3, 303360, Note_on_c, 1, 76, 54
3, 303360, Note_on_c, 1, 72, 54
3, 303480, Note_off_c, 1, 72, 64
3, 303480, Note_off_c, 1, 76, 64
3, 303600, Note_on_c, 1, 84, 54
3, 303600, Note_on_c, 1, 72, 54
3, 303714, Note_off_c, 1, 72, 64
3, 303714, Note_off_c, 1, 84, 64
3, 303720, Note_on_c, 1, 84, 54
3, 303720, Note_on_c, 1, 72, 54
3, 303834, Note_off_c, 1, 72, 64
3, 303834, Note_off_c, 1, 84, 64
3, 303840, Note_on_c, 1, 72, 54
3, 303840, Note_on_c, 1, 84, 54
3, 304066, Note_off_c, 1, 84, 64
3, 304066, Note_off_c, 1, 72, 64
3, 304320, Note_on_c, 1, 71, 54
3, 304320, Note_on_c, 1, 74, 54
3, 304440, Note_off_c, 1, 74, 64
3, 304440, Note_off_c, 1, 71, 64
3, 305040, Note_on_c, 1, 71, 54
3, 305040, Note_on_c, 1, 74, 54
3, 305280, Note_off_c, 1, 74, 64
3, 305280, Note_off_c, 1, 71, 64
3, 305280, Note_on_c, 1, 72, 54
3, 305280, Note_on_c, 1, 76, 54
3, 305400, Note_off_c, 1, 76, 64
3, 305400, Note_off_c, 1, 72, 64
3, 306000, Note_on_c, 1, 72, 54
3, 306000, Note_on_c, 1, 76, 54
3, 306240, Note_off_c, 1, 76, 64
3, 306240, Note_off_c, 1, 72, 64
3, 306240, Note_on_c, 1, 74, 54
3, 306240, Note_on_c, 1, 71, 54
3, 306360, Note_off_c, 1, 71, 64
3, 306360, Note_off_c, 1, 74, 64
3, 306960, Note_on_c, 1, 74, 54
3, 306960, Note_on_c, 1, 71, 54
3, 307200, Note_off_c, 1, 71, 64
3, 307200, Note_off_c, 1, 74, 64
3, 307200, Note_on_c, 1, 72, 54
3, 307200, Note_on_c, 1, 76, 54
3, 307320, Note_off_c, 1, 76, 64
3, 307320, Note_off_c, 1, 72, 64
3, 307920, Note_on_c, 1, 76, 54
3, 307920, Note_on_c, 1, 72, 54
3, 308160, Note_off_c, 1, 72, 64
3, 308160, Note_off_c, 1, 76, 64
3, 308160, Note_on_c, 1, 74, 54
3, 308160, Note_on_c, 1, 71, 54
3, 308280, Note_off_c, 1, 71, 64
3, 308280, Note_off_c, 1, 74, 64
3, 308880, Note_on_c, 1, 71, 54
3, 308880, Note_on_c, 1, 74, 54
3, 309120, Note_off_c, 1, 74, 64
3, 309120, Note_off_c, 1, 71, 64
3, 309120, Note_on_c, 1, 72, 54
3, 309120, Note_on_c, 1, 76, 54
3, 309240, Note_off_c, 1, 76, 64
3, 309240, Note_off_c, 1, 72, 64
3, 309840, Note_on_c, 1, 76, 54
3, 309840, Note_on_c, 1, 72, 54
3, 310080, Note_off_c, 1, 72, 64
3, 310080, Note_off_c, 1, 76, 64
3, 310080, Note_on_c, 1, 74, 54
3, 310080, Note_on_c, 1, 71, 54
3, 310200, Note_off_c, 1, 71, 64
3, 310200, Note_off_c, 1, 74, 64
3, 310800, Note_on_c, 1, 74, 54
3, 310800, Note_on_c, 1, 71, 54
3, 311040, Note_off_c, 1, 71, 64
3, 311040, Note_off_c, 1, 74, 64
3, 311040, Note_on_c, 1, 72, 54
3, 311040, Note_on_c, 1, 76, 54
3, 311160, Note_off_c, 1, 76, 64
3, 311160, Note_off_c, 1, 72, 64
3, 311280, Note_on_c, 1, 84, 54
3, 311280, Note_on_c, 1, 72, 54
3, 311394, Note_off_c, 1, 72, 64
3, 311394, Note_off_c, 1, 84, 64
3, 311400, Note_on_c, 1, 72, 54
3, 311400, Note_on_c, 1, 84, 54
3, 311514, Note_off_c, 1, 84, 64
3, 311514, Note_off_c, 1, 72, 64
3, 311520, Note_on_c, 1, 84, 54
3, 311520, Note_on_c, 1, 72, 54
3, 311746, Note_off_c, 1, 72, 64
3, 311746, Note_off_c, 1, 84, 64
3, 312000, Note_on_c, 1, 81, 54
3, 312000, Note_on_c, 1, 84, 54
3, 312120, Note_off_c, 1, 84, 64
3, 312120, Note_off_c, 1, 81, 64
3, 312720, Note_on_c, 1, 81, 54
3, 312720, Note_on_c, 1, 84, 54
3, 312960, Note_off_c, 1, 81, 64
3, 312960, Note_on_c, 1, 79, 54
3, 313080, Note_off_c, 1, 84, 64
3, 313080, Note_off_c, 1, 79, 64
3, 313680, Note_on_c, 1, 79, 54
3, 313680, Note_on_c, 1, 84, 54
3, 313920, Note_off_c, 1, 79, 64
3, 313920, Note_on_c, 1, 81, 54
3, 314040, Note_off_c, 1, 84, 64
3, 314040, Note_off_c, 1, 81, 64
3, 314640, Note_on_c, 1, 84, 54
3, 314640, Note_on_c, 1, 81, 54
3, 315000, Note_off_c, 1, 81, 64
3, 315000, Note_off_c, 1, 84, 64
3, 315120, Note_on_c, 1, 80, 72
3, 315312, Note_off_c, 1, 80, 64
3, 315600, Note_on_c, 1, 67, 54
3, 315600, Note_on_c, 1, 76, 54
3, 315826, Note_off_c, 1, 76, 64
3, 315826, Note_off_c, 1, 67, 64
3, 315840, Note_on_c, 1, 66, 54
3, 315840, Note_on_c, 1, 74, 54
3, 316066, Note_off_c, 1, 74, 64
3, 316066, Note_off_c, 1, 66, 64
3, 316320, Note_on_c, 1, 65, 54
3, 316320, Note_on_c, 1, 74, 54
3, 316546, Note_off_c, 1, 74, 64
3, 316546, Note_off_c, 1, 65, 64
3, 316800, Note_on_c, 1, 84, 54
3, 316800, Note_on_c, 1, 76, 54
3, 316920, Note_off_c, 1, 76, 64
3, 316920, Note_off_c, 1, 84, 64
3, 317520, Note_on_c, 1, 76, 54
3, 317520, Note_on_c, 1, 84, 54
3, 317760, Note_off_c, 1, 84, 64
3, 317760, Note_off_c, 1, 76, 64
3, 317760, Note_on_c, 1, 79, 54
3, 317760, Note_on_c, 1, 83, 54
3, 317880, Note_off_c, 1, 83, 64
3, 317880, Note_off_c, 1, 79, 64
3, 318480, Note_on_c, 1, 83, 54
3, 318480, Note_on_c, 1, 79, 54
3, 318720, Note_off_c, 1, 79, 64
3, 318720, Note_off_c, 1, 83, 64
3, 318720, Note_on_c, 1, 88, 54
3, 318720, Note_on_c, 1, 84, 54
3, 318840, Note_off_c, 1, 84, 64
3, 318840, Note_off_c, 1, 88, 64
3, 318960, Note_on_c, 1, 72, 54
3, 318960, Note_on_c, 1, 84, 54
3, 319020, Note_off_c, 1, 84, 64
3, 319020, Note_off_c, 1, 72, 64
3, 319080, Note_on_c, 1, 72, 54
3, 319080, Note_on_c, 1, 84, 54
3, 319140, Note_off_c, 1, 84, 64
3, 319140, Note_off_c, 1, 72, 64
3, 319200, Note_on_c, 1, 84, 54
3, 319200, Note_on_c, 1, 72, 54
3, 319320, Note_off_c, 1, 72, 64
3, 319320, Note_off_c, 1, 84, 64
3, 319680, Note_on_c, 1, 81, 54
3, 319680, Note_on_c, 1, 84, 54
3, 319800, Note_off_c, 1, 84, 64
3, 319800, Note_off_c, 1, 81, 64
3, 320400, Note_on_c, 1, 81, 54
3, 320400, Note_on_c, 1, 84, 54
3, 320640, Note_off_c, 1, 81, 64
3, 320640, Note_on_c, 1, 79, 54
3, 320760, Note_off_c, 1, 84, 64
3, 320760, Note_off_c, 1, 79, 64
3, 321360, Note_on_c, 1, 79, 54
3, 321360, Note_on_c, 1, 84, 54
3, 321600, Note_off_c, 1, 79, 64
3, 321600, Note_on_c, 1, 81, 54
3, 321720, Note_off_c, 1, 84, 64
3, 321720, Note_off_c, 1, 81, 64
3, 322320, Note_on_c, 1, 84, 54
3, 322320, Note_on_c, 1, 81, 54
3, 322680, Note_off_c, 1, 81, 64
3, 322680, Note_off_c, 1, 84, 64
3, 322800, Note_on_c, 1, 80, 72
3, 322992, Note_off_c, 1, 80, 64
3, 323280, Note_on_c, 1, 67, 54
3, 323280, Note_on_c, 1, 76, 54
3, 323506, Note_off_c, 1, 76, 64
3, 323506, Note_off_c, 1, 67, 64
3, 323520, Note_on_c, 1, 66, 54
3, 323520, Note_on_c, 1, 74, 54
3, 323746, Note_off_c, 1, 74, 64
3, 323746, Note_off_c, 1, 66, 64
3, 324000, Note_on_c, 1, 65, 54
3, 324000, Note_on_c, 1, 74, 54
3, 324226, Note_off_c, 1, 74, 64
3, 324226, Note_off_c, 1, 65, 64
3, 324480, Note_on_c, 1, 84, 54
3, 324480, Note_on_c, 1, 76, 54
3, 324600, Note_off_c, 1, 76, 64
3, 324600, Note_off_c, 1, 84, 64
3, 325200, Note_on_c, 1, 76, 54
3, 325200, Note_on_c, 1, 84, 54
3, 325440, Note_off_c, 1, 84, 64
3, 325440, Note_off_c, 1, 76, 64
3, 325440, Note_on_c, 1, 79, 54
3, 325440, Note_on_c, 1, 83, 54
3, 325560, Note_off_c, 1, 83, 64
3, 325560, Note_off_c, 1, 79, 64
3, 326160, Note_on_c, 1, 83, 54
3, 326160, Note_on_c, 1, 79, 54
3, 326400, Note_off_c, 1, 79, 64
3, 326400, Note_off_c, 1, 83, 64
3, 326400, Note_on_c, 1, 88, 54
3, 326400, Note_on_c, 1, 84, 54
3, 326520, Note_off_c, 1, 84, 64
3, 326520, Note_off_c, 1, 88, 64
3, 326640, Note_on_c, 1, 79, 54
3, 326640, Note_on_c, 1, 76, 54
3, 326700, Note_off_c, 1, 76, 64
3, 326700, Note_off_c, 1, 79, 64
3, 326760, Note_on_c, 1, 79, 54
3, 326760, Note_on_c, 1, 76, 54
3, 326820, Note_off_c, 1, 76, 64
3, 326820, Note_off_c, 1, 79, 64
3, 326880, Note_on_c, 1, 76, 54
3, 326880, Note_on_c, 1, 79, 54
3, 327000, Note_off_c, 1, 79, 64
3, 327000, Note_off_c, 1, 76, 64
3, 327600, Note_on_c, 1, 77, 72
3, 327600, Note_on_c, 1, 74, 72
3, 327660, Note_off_c, 1, 74, 64
3, 327660, Note_off_c, 1, 77, 64
3, 327720, Note_on_c, 1, 74, 72
3, 327720, Note_on_c, 1, 77, 72
3, 327780, Note_off_c, 1, 77, 64
3, 327780, Note_off_c, 1, 74, 64
3, 327840, Note_on_c, 1, 74, 72
3, 327840, Note_on_c, 1, 77, 72
3, 327900, Note_off_c, 1, 77, 64
3, 327900, Note_off_c, 1, 74, 64
3, 328560, Note_on_c, 1, 72, 72
3, 328560, Note_on_c, 1, 76, 72
3, 328620, Note_off_c, 1, 76, 64
3, 328620, Note_off_c, 1, 72, 64
3, 328680, Note_on_c, 1, 72, 72
3, 328680, Note_on_c, 1, 76, 72
3, 328740, Note_off_c, 1, 76, 64
3, 328740, Note_off_c, 1, 72, 64
3, 328800, Note_on_c, 1, 76, 72
3, 328800, Note_on_c, 1, 72, 72
3, 328860, Note_off_c, 1, 72, 64
3, 328860, Note_off_c, 1, 76, 64
3, 329520, Note_on_c, 1, 72, 72
3, 329520, Note_on_c, 1, 76, 72
3, 329580, Note_off_c, 1, 76, 64
3, 329580, Note_off_c, 1, 72, 64
3, 329640, Note_on_c, 1, 76, 72
3, 329640, Note_on_c, 1, 72, 72
3, 329700, Note_off_c, 1, 72, 64
3, 329700, Note_off_c, 1, 76, 64
3, 329760, Note_on_c, 1, 74, 72
3, 329760, Note_on_c, 1, 71, 72
3, 329820, Note_off_c, 1, 71, 64
3, 329820, Note_off_c, 1, 74, 64
3, 330720, Note_on_c, 1, 72, 120
3, 331200, Note_off_c, 1, 72, 64
3, 331200, Note_on_c, 1, 77, 120
3, 331320, Note_off_c, 1, 77, 64
3, 331680, Note_on_c, 1, 69, 120
3, 332160, Note_off_c, 1, 69, 64
3, 332160, Note_on_c, 1, 74, 120
3, 332280, Note_off_c, 1, 74, 64
3, 332640, Note_on_c, 1, 67, 120
3, 333120, Note_off_c, 1, 67, 64
3, 333120, Note_on_c, 1, 70, 120
3, 333240, Note_off_c, 1, 70, 64
3, 333600, Note_on_c, 1, 64, 120
3, 334080, Note_off_c, 1, 64, 64
3, 334080, Note_on_c, 1, 65, 120
3, 334200, Note_off_c, 1, 65, 64
3, 334320, Note_on_c, 1, 77, 72
3, 334320, Note_on_c, 1, 69, 72
3, 334380, Note_off_c, 1, 69, 64
3, 334380, Note_off_c, 1, 77, 64
3, 334440, Note_on_c, 1, 77, 72
3, 334440, Note_on_c, 1, 69, 72
3, 334500, Note_off_c, 1, 69, 64
3, 334500, Note_off_c, 1, 77, 64
3, 334560, Note_on_c, 1, 77, 72
3, 334560, Note_on_c, 1, 69, 72
3, 334620, Note_off_c, 1, 69, 64
3, 334620, Note_off_c, 1, 77, 64
3, 335280, Note_on_c, 1, 77, 72
3, 335280, Note_on_c, 1, 81, 72
3, 335340, Note_off_c, 1, 81, 64
3, 335340, Note_off_c, 1, 77, 64
3, 335400, Note_on_c, 1, 81, 72
3, 335400, Note_on_c, 1, 77, 72
3, 335460, Note_off_c, 1, 77, 64
3, 335460, Note_off_c, 1, 81, 64
3, 335520, Note_on_c, 1, 81, 72
3, 335520, Note_on_c, 1, 77, 72
3, 335580, Note_off_c, 1, 77, 64
3, 335580, Note_off_c, 1, 81, 64
3, 336240, Note_on_c, 1, 79, 72
3, 336240, Note_on_c, 1, 82, 72
3, 336300, Note_off_c, 1, 82, 64
3, 336300, Note_off_c, 1, 79, 64
3, 336360, Note_on_c, 1, 79, 72
3, 336360, Note_on_c, 1, 82, 72
3, 336420, Note_off_c, 1, 82, 64
3, 336420, Note_off_c, 1, 79, 64
3, 336480, Note_on_c, 1, 79, 72
3, 336480, Note_on_c, 1, 82, 72
3, 336540, Note_off_c, 1, 82, 64
3, 336540, Note_off_c, 1, 79, 64
3, 337200, Note_on_c, 1, 76, 72
3, 337200, Note_on_c, 1, 81, 72
3, 337260, Note_off_c, 1, 81, 64
3, 337260, Note_off_c, 1, 76, 64
3, 337320, Note_on_c, 1, 81, 72
3, 337320, Note_on_c, 1, 76, 72
3, 337380, Note_off_c, 1, 76, 64
3, 337380, Note_off_c, 1, 81, 64
3, 337440, Note_on_c, 1, 76, 72
3, 337440, Note_on_c, 1, 81, 72
3, 337500, Note_off_c, 1, 81, 64
3, 337500, Note_off_c, 1, 76, 64
3, 337920, Note_on_c, 1, 81, 72
3, 337920, Note_on_c, 1, 77, 72
3, 338040, Note_off_c, 1, 77, 64
3, 338040, Note_off_c, 1, 81, 64
3, 338400, Note_on_c, 1, 74, 80
3, 338850, Note_off_c, 1, 74, 64
3, 338880, Note_on_c, 1, 77, 77
3, 339106, Note_off_c, 1, 77, 64
3, 339360, Note_on_c, 1, 81, 75
3, 339810, Note_off_c, 1, 81, 64
3, 339840, Note_on_c, 1, 86, 73
3, 340066, Note_off_c, 1, 86, 64
3, 340320, Note_on_c, 1, 77, 70
3, 340770, Note_off_c, 1, 77, 64
3, 340800, Note_on_c, 1, 81, 68
3, 341026, Note_off_c, 1, 81, 64
3, 341280, Note_on_c, 1, 74, 66
3, 341730, Note_off_c, 1, 74, 64
3, 341760, Note_on_c, 1, 77, 63
3, 341986, Note_off_c, 1, 77, 64
3, 342240, Note_on_c, 1, 69, 61
3, 342690, Note_off_c, 1, 69, 64
3, 342720, Note_on_c, 1, 74, 59
3, 342946, Note_off_c, 1, 74, 64
3, 343200, Note_on_c, 1, 77, 56
3, 343650, Note_off_c, 1, 77, 64
3, 343680, Note_on_c, 1, 81, 54
3, 343906, Note_off_c, 1, 81, 64
3, 344160, Note_on_c, 1, 77, 52
3, 344610, Note_off_c, 1, 77, 64
3, 344640, Note_on_c, 1, 81, 60
3, 344866, Note_off_c, 1, 81, 64
3, 345120, Note_on_c, 1, 78, 60
3, 345570, Note_off_c, 1, 78, 64
3, 345600, Note_on_c, 1, 81, 60
3, 345826, Note_off_c, 1, 81, 64
3, 346080, Note_on_c, 1, 78, 60
3, 346530, Note_off_c, 1, 78, 64
3, 346560, Note_on_c, 1, 82, 80
3, 346786, Note_off_c, 1, 82, 64
3, 347040, Note_on_c, 1, 79, 80
3, 347490, Note_off_c, 1, 79, 64
3, 347520, Note_on_c, 1, 82, 80
3, 347746, Note_off_c, 1, 82, 64
3, 348000, Note_on_c, 1, 79, 80
3, 348450, Note_off_c, 1, 79, 64
3, 348480, Note_on_c, 1, 83, 80
3, 348706, Note_off_c, 1, 83, 64
3, 348960, Note_on_c, 1, 80, 80
3, 349410, Note_off_c, 1, 80, 64
3, 349440, Note_on_c, 1, 83, 80
3, 349666, Note_off_c, 1, 83, 64
3, 349920, Note_on_c, 1, 80, 80
3, 350370, Note_off_c, 1, 80, 64
3, 350400, Note_on_c, 1, 84, 80
3, 350626, Note_off_c, 1, 84, 64
3, 350880, Note_on_c, 1, 81, 80
3, 351330, Note_off_c, 1, 81, 64
3, 351360, Note_on_c, 1, 85, 80
3, 351586, Note_off_c, 1, 85, 64
3, 351840, Note_on_c, 1, 82, 80
3, 352290, Note_off_c, 1, 82, 64
3, 352320, Note_on_c, 1, 86, 80
3, 352546, Note_off_c, 1, 86, 64
3, 352800, Note_on_c, 1, 83, 80
3, 353250, Note_off_c, 1, 83, 64
3, 353280, Note_on_c, 1, 87, 50
3, 353506, Note_off_c, 1, 87, 64
3, 353760, Note_on_c, 1, 84, 50
3, 354210, Note_off_c, 1, 84, 64
3, 354240, Note_on_c, 1, 88, 50
3, 354466, Note_off_c, 1, 88, 64
3, 354720, Note_on_c, 1, 85, 50
3, 355170, Note_off_c, 1, 85, 64
3, 355200, Note_on_c, 1, 76, 50
3, 355426, Note_off_c, 1, 76, 64
3, 355680, Note_on_c, 1, 74, 50
3, 356130, Note_off_c, 1, 74, 64
3, 356160, Note_on_c, 1, 76, 50
3, 356386, Note_off_c, 1, 76, 64
3, 356640, Note_on_c, 1, 75, 50
3, 357090, Note_off_c, 1, 75, 64
3, 357120, Note_on_c, 1, 76, 50
3, 357346, Note_off_c, 1, 76, 64
3, 357600, Note_on_c, 1, 75, 50
3, 358050, Note_off_c, 1, 75, 64
3, 358080, Note_on_c, 1, 76, 50
3, 358306, Note_off_c, 1, 76, 64
3, 358560, Note_on_c, 1, 75, 50
3, 359010, Note_off_c, 1, 75, 64
3, 359040, Note_on_c, 1, 76, 50
3, 359266, Note_off_c, 1, 76, 64
3, 359520, Note_on_c, 1, 75, 50
3, 359970, Note_off_c, 1, 75, 64
3, 360000, Note_on_c, 1, 76, 50
3, 360226, Note_off_c, 1, 76, 64
3, 360480, Note_on_c, 1, 75, 50
3, 360930, Note_off_c, 1, 75, 64
3, 360960, Note_on_c, 1, 76, 50
3, 361186, Note_off_c, 1, 76, 64
3, 362880, Note_on_c, 1, 69, 68
3, 362940, Note_off_c, 1, 69, 64
3, 363120, Note_on_c, 1, 69, 38
3, 363180, Note_off_c, 1, 69, 64
3, 363240, Note_on_c, 1, 69, 38
3, 363300, Note_off_c, 1, 69, 64
3, 363360, Note_on_c, 1, 69, 38
3, 363480, Note_off_c, 1, 69, 64
3, 364800, Note_on_c, 1, 69, 68
3, 364860, Note_off_c, 1, 69, 64
3, 365040, Note_on_c, 1, 69, 38
3, 365100, Note_off_c, 1, 69, 64
3, 365160, Note_on_c, 1, 69, 38
3, 365220, Note_off_c, 1, 69, 64
3, 365280, Note_on_c, 1, 69, 38
3, 365400, Note_off_c, 1, 69, 64
3, 365760, Note_on_c, 1, 69, 40
3, 365880, Note_off_c, 1, 69, 64
3, 366240, Note_on_c, 1, 69, 40
3, 366720, Note_off_c, 1, 69, 64
3, 366720, Note_on_c, 1, 70, 40
3, 366840, Note_off_c, 1, 70, 64
3, 367200, Note_on_c, 1, 70, 40
3, 367680, Note_off_c, 1, 70, 64
3, 367680, Note_on_c, 1, 69, 40
3, 367800, Note_off_c, 1, 69, 64
3, 368160, Note_on_c, 1, 69, 40
3, 368640, Note_off_c, 1, 69, 64
3, 368640, Note_on_c, 1, 70, 40
3, 368760, Note_off_c, 1, 70, 64
3, 369120, Note_on_c, 1, 70, 40
3, 372480, Note_off_c, 1, 70, 64
3, 372480, Note_on_c, 1, 69, 40
3, 372706, Note_off_c, 1, 69, 64
3, 373440, Note_on_c, 1, 69, 68
3, 373500, Note_off_c, 1, 69, 64
3, 373680, Note_on_c, 1, 69, 38
3, 373740, Note_off_c, 1, 69, 64
3, 373800, Note_on_c, 1, 69, 38
3, 373860, Note_off_c, 1, 69, 64
3, 373920, Note_on_c, 1, 69, 38
3, 374040, Note_off_c, 1, 69, 64
3, 375360, Note_on_c, 1, 69, 68
3, 375420, Note_off_c, 1, 69, 64
3, 375600, Note_on_c, 1, 69, 38
3, 375660, Note_off_c, 1, 69, 64
3, 375720, Note_on_c, 1, 69, 38
3, 375780, Note_off_c, 1, 69, 64
3, 375840, Note_on_c, 1, 69, 38
3, 375960, Note_off_c, 1, 69, 64
3, 376320, Note_on_c, 1, 69, 40
3, 376440, Note_off_c, 1, 69, 64
3, 376800, Note_on_c, 1, 69, 40
3, 377280, Note_off_c, 1, 69, 64
3, 377280, Note_on_c, 1, 70, 40
3, 377400, Note_off_c, 1, 70, 64
3, 377760, Note_on_c, 1, 70, 40
3, 378240, Note_off_c, 1, 70, 64
3, 378240, Note_on_c, 1, 69, 40
3, 378360, Note_off_c, 1, 69, 64
3, 378720, Note_on_c, 1, 72, 40
3, 379200, Note_off_c, 1, 72, 64
3, 379200, Note_on_c, 1, 74, 52
3, 379320, Note_off_c, 1, 74, 64
3, 379680, Note_on_c, 1, 80, 52
3, 379680, Note_on_c, 1, 74, 52
3, 383040, Note_off_c, 1, 74, 64
3, 383040, Note_off_c, 1, 80, 64
3, 383040, Note_on_c, 1, 76, 80
3, 383040, Note_on_c, 1, 80, 80
3, 383266, Note_off_c, 1, 80, 64
3, 383266, Note_off_c, 1, 76, 64
3, 383340, Note_on_c, 1, 76, 54
3, 383454, Note_off_c, 1, 76, 64
3, 383460, Note_on_c, 1, 76, 54
3, 383574, Note_off_c, 1, 76, 64
3, 383580, Note_on_c, 1, 76, 72
3, 383694, Note_off_c, 1, 76, 64
3, 385740, Note_on_c, 1, 86, 41
3, 385740, Note_on_c, 1, 83, 41
3, 385854, Note_off_c, 1, 83, 64
3, 385854, Note_off_c, 1, 86, 64
3, 385860, Note_on_c, 1, 86, 41
3, 385860, Note_on_c, 1, 83, 41
3, 385974, Note_off_c, 1, 83, 64
3, 385974, Note_off_c, 1, 86, 64
3, 385980, Note_on_c, 1, 86, 54
3, 385980, Note_on_c, 1, 83, 54
3, 386094, Note_off_c, 1, 83, 64
3, 386094, Note_off_c, 1, 86, 64
3, 387840, Note_on_c, 1, 83, 54
3, 387840, Note_on_c, 1, 80, 54
3, 387960, Note_off_c, 1, 80, 64
3, 387960, Note_off_c, 1, 83, 64
3, 388560, Note_on_c, 1, 80, 54
3, 388560, Note_on_c, 1, 83, 54
3, 388800, Note_off_c, 1, 83, 64
3, 388800, Note_off_c, 1, 80, 64
3, 388800, Note_on_c, 1, 81, 54
3, 388800, Note_on_c, 1, 85, 54
3, 388920, Note_off_c, 1, 85, 64
3, 388920, Note_off_c, 1, 81, 64
3, 389520, Note_on_c, 1, 81, 54
3, 389520, Note_on_c, 1, 85, 54
3, 389760, Note_off_c, 1, 85, 64
3, 389760, Note_off_c, 1, 81, 64
3, 389760, Note_on_c, 1, 83, 54
3, 389760, Note_on_c, 1, 80, 54
3, 389880, Note_off_c, 1, 80, 64
3, 389880, Note_off_c, 1, 83, 64
3, 390480, Note_on_c, 1, 83, 54
3, 390480, Note_on_c, 1, 80, 54
3, 390720, Note_off_c, 1, 80, 64
3, 390720, Note_off_c, 1, 83, 64
3, 390720, Note_on_c, 1, 81, 54
3, 390720, Note_on_c, 1, 85, 54
3, 390840, Note_off_c, 1, 85, 64
3, 390840, Note_off_c, 1, 81, 64
3, 391440, Note_on_c, 1, 85, 54
3, 391440, Note_on_c, 1, 81, 54
3, 391680, Note_off_c, 1, 81, 64
3, 391680, Note_off_c, 1, 85, 64
3, 391680, Note_on_c, 1, 80, 54
3, 391680, Note_on_c, 1, 83, 54
3, 391800, Note_off_c, 1, 83, 64
3, 391800, Note_off_c, 1, 80, 64
3, 392400, Note_on_c, 1, 83, 54
3, 392400, Note_on_c, 1, 80, 54
3, 392640, Note_off_c, 1, 80, 64
3, 392640, Note_off_c, 1, 83, 64
3, 392640, Note_on_c, 1, 85, 54
3, 392640, Note_on_c, 1, 81, 54
3, 392760, Note_off_c, 1, 81, 64
3, 392760, Note_off_c, 1, 85, 64
3, 393360, Note_on_c, 1, 85, 54
3, 393360, Note_on_c, 1, 81, 54
3, 393600, Note_off_c, 1, 81, 64
3, 393600, Note_off_c, 1, 85, 64
3, 393600, Note_on_c, 1, 83, 54
3, 393600, Note_on_c, 1, 80, 54
3, 393720, Note_off_c, 1, 80, 64
3, 393720, Note_off_c, 1, 83, 64
3, 394320, Note_on_c, 1, 80, 54
3, 394320, Note_on_c, 1, 83, 54
3, 394560, Note_off_c, 1, 83, 64
3, 394560, Note_off_c, 1, 80, 64
3, 394560, Note_on_c, 1, 85, 54
3, 394560, Note_on_c, 1, 81, 54
3, 394680, Note_off_c, 1, 81, 64
3, 394680, Note_off_c, 1, 85, 64
3, 394800, Note_on_c, 1, 69, 54
3, 394800, Note_on_c, 1, 81, 54
3, 394860, Note_off_c, 1, 81, 64
3, 394860, Note_off_c, 1, 69, 64
3, 394920, Note_on_c, 1, 69, 54
3, 394920, Note_on_c, 1, 81, 54
3, 394980, Note_off_c, 1, 81, 64
3, 394980, Note_off_c, 1, 69, 64
3, 395040, Note_on_c, 1, 81, 54
3, 395040, Note_on_c, 1, 69, 54
3, 395160, Note_off_c, 1, 69, 64
3, 395160, Note_off_c, 1, 81, 64
3, 395520, Note_on_c, 1, 83, 54
3, 395520, Note_on_c, 1, 80, 54
3, 395640, Note_off_c, 1, 80, 64
3, 395640, Note_off_c, 1, 83, 64
3, 396240, Note_on_c, 1, 80, 54
3, 396240, Note_on_c, 1, 83, 54
3, 396480, Note_off_c, 1, 83, 64
3, 396480, Note_off_c, 1, 80, 64
3, 396480, Note_on_c, 1, 81, 54
3, 396480, Note_on_c, 1, 85, 54
3, 396600, Note_off_c, 1, 85, 64
3, 396600, Note_off_c, 1, 81, 64
3, 397200, Note_on_c, 1, 81, 54
3, 397200, Note_on_c, 1, 85, 54
3, 397440, Note_off_c, 1, 85, 64
3, 397440, Note_off_c, 1, 81, 64
3, 397440, Note_on_c, 1, 83, 54
3, 397440, Note_on_c, 1, 80, 54
3, 397560, Note_off_c, 1, 80, 64
3, 397560, Note_off_c, 1, 83, 64
3, 398160, Note_on_c, 1, 83, 54
3, 398160, Note_on_c, 1, 80, 54
3, 398400, Note_off_c, 1, 80, 64
3, 398400, Note_off_c, 1, 83, 64
3, 398400, Note_on_c, 1, 81, 54
3, 398400, Note_on_c, 1, 85, 54
3, 398520, Note_off_c, 1, 85, 64
3, 398520, Note_off_c, 1, 81, 64
3, 399120, Note_on_c, 1, 85, 54
3, 399120, Note_on_c, 1, 81, 54
3, 399360, Note_off_c, 1, 81, 64
3, 399360, Note_off_c, 1, 85, 64
3, 399360, Note_on_c, 1, 80, 54
3, 399360, Note_on_c, 1, 83, 54
3, 399480, Note_off_c, 1, 83, 64
3, 399480, Note_off_c, 1, 80, 64
3, 400080, Note_on_c, 1, 83, 54
3, 400080, Note_on_c, 1, 80, 54
3, 400320, Note_off_c, 1, 80, 64
3, 400320, Note_off_c, 1, 83, 64
3, 400320, Note_on_c, 1, 85, 54
3, 400320, Note_on_c, 1, 81, 54
3, 400440, Note_off_c, 1, 81, 64
3, 400440, Note_off_c, 1, 85, 64
3, 401040, Note_on_c, 1, 85, 54
3, 401040, Note_on_c, 1, 81, 54
3, 401280, Note_off_c, 1, 81, 64
3, 401280, Note_off_c, 1, 85, 64
3, 401280, Note_on_c, 1, 83, 54
3, 401280, Note_on_c, 1, 80, 54
3, 401400, Note_off_c, 1, 80, 64
3, 401400, Note_off_c, 1, 83, 64
3, 402000, Note_on_c, 1, 80, 54
3, 402000, Note_on_c, 1, 83, 54
3, 402240, Note_off_c, 1, 83, 64
3, 402240, Note_off_c, 1, 80, 64
3, 402240, Note_on_c, 1, 81, 54
3, 402240, Note_on_c, 1, 85, 54
3, 402360, Note_off_c, 1, 85, 64
3, 402360, Note_off_c, 1, 81, 64
3, 402540, Note_on_c, 1, 81, 54
3, 402540, Note_on_c, 1, 69, 54
3, 402600, Note_off_c, 1, 69, 64
3, 402600, Note_off_c, 1, 81, 64
3, 402660, Note_on_c, 1, 69, 54
3, 402660, Note_on_c, 1, 81, 54
3, 402720, Note_off_c, 1, 81, 64
3, 402720, Note_off_c, 1, 69, 64
3, 402780, Note_on_c, 1, 69, 54
3, 402780, Note_on_c, 1, 81, 54
3, 402900, Note_off_c, 1, 81, 64
3, 402900, Note_off_c, 1, 69, 64
3, 403620, Note_on_c, 1, 69, 54
3, 403620, Note_on_c, 1, 81, 54
3, 403734, Note_off_c, 1, 81, 64
3, 403734, Note_off_c, 1, 69, 64
3, 403740, Note_on_c, 1, 81, 54
3, 403740, Note_on_c, 1, 69, 54
3, 403854, Note_off_c, 1, 69, 64
3, 403854, Note_off_c, 1, 81, 64
3, 403860, Note_on_c, 1, 69, 54
3, 403860, Note_on_c, 1, 81, 54
3, 403974, Note_off_c, 1, 81, 64
3, 403974, Note_off_c, 1, 69, 64
3, 404700, Note_on_c, 1, 80, 54
3, 404700, Note_on_c, 1, 83, 54
3, 404760, Note_off_c, 1, 83, 64
3, 404760, Note_off_c, 1, 80, 64
3, 404820, Note_on_c, 1, 83, 54
3, 404820, Note_on_c, 1, 80, 54
3, 404880, Note_off_c, 1, 80, 64
3, 404880, Note_off_c, 1, 83, 64
3, 404940, Note_on_c, 1, 83, 54
3, 404940, Note_on_c, 1, 80, 54
3, 405060, Note_off_c, 1, 80, 64
3, 405060, Note_off_c, 1, 83, 64
3, 405780, Note_on_c, 1, 83, 54
3, 405780, Note_on_c, 1, 80, 54
3, 405840, Note_off_c, 1, 80, 64
3, 405840, Note_off_c, 1, 83, 64
3, 405900, Note_on_c, 1, 80, 54
3, 405900, Note_on_c, 1, 83, 54
3, 405960, Note_off_c, 1, 83, 64
3, 405960, Note_off_c, 1, 80, 64
3, 406020, Note_on_c, 1, 83, 54
3, 406020, Note_on_c, 1, 80, 54
3, 406140, Note_off_c, 1, 80, 64
3, 406140, Note_off_c, 1, 83, 64
3, 406560, Note_on_c, 1, 76, 54
3, 406560, Note_on_c, 1, 85, 54
3, 407136, Note_off_c, 1, 85, 64
3, 407136, Note_off_c, 1, 76, 64
3, 407280, Note_on_c, 1, 74, 54
3, 407280, Note_on_c, 1, 83, 54
3, 407400, Note_off_c, 1, 83, 64
3, 407400, Note_off_c, 1, 74, 64
3, 407520, Note_on_c, 1, 81, 54
3, 407520, Note_on_c, 1, 73, 54
3, 407640, Note_off_c, 1, 73, 64
3, 407640, Note_off_c, 1, 81, 64
3, 407760, Note_on_c, 1, 85, 54
3, 407760, Note_on_c, 1, 76, 54
3, 407880, Note_off_c, 1, 76, 64
3, 407880, Note_off_c, 1, 85, 64
3, 408000, Note_on_c, 1, 74, 54
3, 408000, Note_on_c, 1, 83, 54
3, 408120, Note_off_c, 1, 83, 64
3, 408120, Note_off_c, 1, 74, 64
3, 408240, Note_on_c, 1, 81, 54
3, 408240, Note_on_c, 1, 73, 54
3, 408360, Note_off_c, 1, 73, 64
3, 408360, Note_off_c, 1, 81, 64
3, 408480, Note_on_c, 1, 74, 54
3, 408480, Note_on_c, 1, 83, 54
3, 408600, Note_off_c, 1, 83, 64
3, 408600, Note_off_c, 1, 74, 64
3, 408720, Note_on_c, 1, 81, 72
3, 408720, Note_on_c, 1, 73, 72
3, 408840, Note_off_c, 1, 73, 64
3, 408840, Note_off_c, 1, 81, 64
3, 408960, Note_on_c, 1, 71, 72
3, 408960, Note_on_c, 1, 80, 72
3, 409080, Note_off_c, 1, 80, 64
3, 409080, Note_off_c, 1, 71, 64
3, 409200, Note_on_c, 1, 78, 72
3, 409200, Note_on_c, 1, 74, 72
3, 409320, Note_off_c, 1, 74, 64
3, 409320, Note_off_c, 1, 78, 64
3, 409440, Note_on_c, 1, 73, 72
3, 409440, Note_on_c, 1, 76, 72
3, 409560, Note_off_c, 1, 76, 64
3, 409560, Note_off_c, 1, 73, 64
3, 409680, Note_on_c, 1, 71, 72
3, 409680, Note_on_c, 1, 74, 72
3, 409800, Note_off_c, 1, 74, 64
3, 409800, Note_off_c, 1, 71, 64
3, 409920, Note_on_c, 1, 69, 72
3, 409920, Note_on_c, 1, 73, 72
3, 410040, Note_off_c, 1, 73, 64
3, 410040, Note_off_c, 1, 69, 64
3, 410160, Note_on_c, 1, 68, 72
3, 410160, Note_on_c, 1, 71, 72
3, 410280, Note_off_c, 1, 71, 64
3, 410280, Note_off_c, 1, 68, 64
3, 410400, Note_on_c, 1, 81, 54
3, 410400, Note_on_c, 1, 85, 54
3, 410520, Note_off_c, 1, 85, 64
3, 410520, Note_off_c, 1, 81, 64
3, 410700, Note_on_c, 1, 69, 54
3, 410700, Note_on_c, 1, 81, 54
3, 410760, Note_off_c, 1, 81, 64
3, 410760, Note_off_c, 1, 69, 64
3, 410820, Note_on_c, 1, 81, 54
3, 410820, Note_on_c, 1, 69, 54
3, 410880, Note_off_c, 1, 69, 64
3, 410880, Note_off_c, 1, 81, 64
3, 410940, Note_on_c, 1, 69, 54
3, 410940, Note_on_c, 1, 81, 54
3, 411060, Note_off_c, 1, 81, 64
3, 411060, Note_off_c, 1, 69, 64
3, 411780, Note_on_c, 1, 81, 54
3, 411780, Note_on_c, 1, 69, 54
3, 411840, Note_off_c, 1, 69, 64
3, 411840, Note_off_c, 1, 81, 64
3, 411900, Note_on_c, 1, 81, 54
3, 411900, Note_on_c, 1, 69, 54
3, 411960, Note_off_c, 1, 69, 64
3, 411960, Note_off_c, 1, 81, 64
3, 412020, Note_on_c, 1, 69, 54
3, 412020, Note_on_c, 1, 81, 54
3, 412140, Note_off_c, 1, 81, 64
3, 412140, Note_off_c, 1, 69, 64
3, 412860, Note_on_c, 1, 83, 54
3, 412860, Note_on_c, 1, 80, 54
3, 412920, Note_off_c, 1, 80, 64
3, 412920, Note_off_c, 1, 83, 64
3, 412980, Note_on_c, 1, 83, 54
3, 412980, Note_on_c, 1, 80, 54
3, 413040, Note_off_c, 1, 80, 64
3, 413040, Note_off_c, 1, 83, 64
3, 413100, Note_on_c, 1, 83, 54
3, 413100, Note_on_c, 1, 80, 54
3, 413220, Note_off_c, 1, 80, 64
3, 413220, Note_off_c, 1, 83, 64
3, 413880, Note_on_c, 1, 83, 54
3, 413880, Note_on_c, 1, 80, 54
3, 413940, Note_off_c, 1, 80, 64
3, 413940, Note_off_c, 1, 83, 64
3, 414000, Note_on_c, 1, 83, 54
3, 414000, Note_on_c, 1, 80, 54
3, 414060, Note_off_c, 1, 80, 64
3, 414060, Note_off_c, 1, 83, 64
3, 414120, Note_on_c, 1, 83, 54
3, 414120, Note_on_c, 1, 80, 54
3, 414240, Note_off_c, 1, 80, 64
3, 414240, Note_off_c, 1, 83, 64
3, 414720, Note_on_c, 1, 81, 64
3, 414720, Note_on_c, 1, 85, 64
3, 414912, Note_off_c, 1, 85, 64
3, 414912, Note_off_c, 1, 81, 64
3, 415200, Note_on_c, 1, 81, 64
3, 415200, Note_on_c, 1, 85, 64
3, 415392, Note_off_c, 1, 85, 64
3, 415392, Note_off_c, 1, 81, 64
3, 415680, Note_on_c, 1, 81, 64
3, 415680, Note_on_c, 1, 85, 64
3, 415872, Note_off_c, 1, 85, 64
3, 415872, Note_off_c, 1, 81, 64
3, 416160, Note_on_c, 1, 81, 64
3, 416160, Note_on_c, 1, 85, 64
3, 416352, Note_off_c, 1, 85, 64
3, 416352, Note_off_c, 1, 81, 64
3, 416640, Note_on_c, 1, 83, 64
3, 416640, Note_on_c, 1, 86, 64
3, 416832, Note_off_c, 1, 86, 64
3, 416832, Note_off_c, 1, 83, 64
3, 417120, Note_on_c, 1, 83, 61
3, 417120, Note_on_c, 1, 86, 61
3, 417312, Note_off_c, 1, 86, 64
3, 417312, Note_off_c, 1, 83, 64
3, 417600, Note_on_c, 1, 83, 57
3, 417600, Note_on_c, 1, 86, 57
3, 417792, Note_off_c, 1, 86, 64
3, 417792, Note_off_c, 1, 83, 64
3, 418080, Note_on_c, 1, 83, 53
3, 418080, Note_on_c, 1, 86, 53
3, 418272, Note_off_c, 1, 86, 64
3, 418272, Note_off_c, 1, 83, 64
3, 418560, Note_on_c, 1, 81, 60
3, 418560, Note_on_c, 1, 85, 60
3, 418752, Note_off_c, 1, 85, 64
3, 418752, Note_off_c, 1, 81, 64
3, 419520, Note_on_c, 1, 64, 58
3, 419520, Note_on_c, 1, 76, 58
3, 422626, Note_off_c, 1, 76, 64
3, 422626, Note_off_c, 1, 64, 64
3, 423360, Note_on_c, 1, 64, 58
3, 423360, Note_on_c, 1, 76, 58
3, 424800, Note_off_c, 1, 76, 64
3, 424800, Note_off_c, 1, 64, 64
3, 424800, Note_on_c, 1, 79, 80
3, 424800, Note_on_c, 1, 82, 80
3, 425280, Note_off_c, 1, 82, 64
3, 425280, Note_on_c, 1, 81, 58
3, 425760, Note_off_c, 1, 79, 64
3, 425760, Note_off_c, 1, 81, 64
3, 425760, Note_on_c, 1, 81, 58
3, 425760, Note_on_c, 1, 79, 58
3, 426240, Note_off_c, 1, 79, 64
3, 426240, Note_off_c, 1, 81, 64
3, 426240, Note_on_c, 1, 81, 58
3, 426240, Note_on_c, 1, 77, 58
3, 426480, Note_off_c, 1, 77, 64
3, 426480, Note_off_c, 1, 81, 64
3, 429360, Note_on_c, 1, 73, 80
3, 429480, Note_off_c, 1, 73, 64
3, 429480, Note_on_c, 1, 74, 80
3, 429600, Note_off_c, 1, 74, 64
3, 429600, Note_on_c, 1, 77, 80
3, 429600, Note_on_c, 1, 73, 80
3, 429720, Note_off_c, 1, 77, 64
3, 429720, Note_on_c, 1, 76, 80
3, 429840, Note_off_c, 1, 76, 64
3, 429840, Note_on_c, 1, 74, 80
3, 429960, Note_off_c, 1, 74, 64
3, 429960, Note_on_c, 1, 76, 80
3, 430080, Note_off_c, 1, 73, 64
3, 430080, Note_off_c, 1, 76, 64
3, 430080, Note_on_c, 1, 74, 80
3, 430080, Note_on_c, 1, 77, 80
3, 430200, Note_off_c, 1, 77, 64
3, 430200, Note_off_c, 1, 74, 64
3, 433200, Note_on_c, 1, 73, 80
3, 433320, Note_off_c, 1, 73, 64
3, 433320, Note_on_c, 1, 74, 80
3, 433440, Note_off_c, 1, 74, 64
3, 433440, Note_on_c, 1, 77, 80
3, 433440, Note_on_c, 1, 73, 80
3, 433560, Note_off_c, 1, 77, 64
3, 433560, Note_on_c, 1, 76, 80
3, 433680, Note_off_c, 1, 76, 64
3, 433680, Note_on_c, 1, 74, 80
3, 433800, Note_off_c, 1, 74, 64
3, 433800, Note_on_c, 1, 76, 80
3, 433920, Note_off_c, 1, 73, 64
3, 433920, Note_off_c, 1, 76, 64
3, 433920, Note_on_c, 1, 74, 80
3, 433920, Note_on_c, 1, 77, 80
3, 434040, Note_off_c, 1, 77, 64
3, 434040, Note_off_c, 1, 74, 64
3, 434400, Note_on_c, 1, 77, 80
3, 434400, Note_on_c, 1, 74, 80
3, 434544, Note_off_c, 1, 74, 64
3, 434544, Note_off_c, 1, 77, 64
3, 434880, Note_on_c, 1, 77, 80
3, 434880, Note_on_c, 1, 74, 80
3, 435024, Note_off_c, 1, 74, 64
3, 435024, Note_off_c, 1, 77, 64
3, 435360, Note_on_c, 1, 74, 80
3, 435360, Note_on_c, 1, 77, 80
3, 435504, Note_off_c, 1, 77, 64
3, 435504, Note_off_c, 1, 74, 64
3, 435840, Note_on_c, 1, 76, 80
3, 435840, Note_on_c, 1, 79, 80
3, 435984, Note_off_c, 1, 79, 64
3, 435984, Note_off_c, 1, 76, 64
3, 436320, Note_on_c, 1, 79, 80
3, 436320, Note_on_c, 1, 76, 80
3, 436464, Note_off_c, 1, 76, 64
3, 436464, Note_off_c, 1, 79, 64
3, 436800, Note_on_c, 1, 76, 80
3, 436800, Note_on_c, 1, 79, 80
3, 436944, Note_off_c, 1, 79, 64
3, 436944, Note_off_c, 1, 76, 64
3, 437280, Note_on_c, 1, 79, 80
3, 437280, Note_on_c, 1, 76, 80
3, 437424, Note_off_c, 1, 76, 64
3, 437424, Note_off_c, 1, 79, 64
3, 437760, Note_on_c, 1, 74, 80
3, 437760, Note_on_c, 1, 77, 80
3, 437904, Note_off_c, 1, 77, 64
3, 437904, Note_off_c, 1, 74, 64
3, 438240, Note_on_c, 1, 77, 80
3, 438240, Note_on_c, 1, 74, 80
3, 438384, Note_off_c, 1, 74, 64
3, 438384, Note_off_c, 1, 77, 64
3, 438720, Note_on_c, 1, 74, 80
3, 438720, Note_on_c, 1, 78, 80
3, 438864, Note_off_c, 1, 78, 64
3, 438864, Note_off_c, 1, 74, 64
3, 439200, Note_on_c, 1, 74, 80
3, 439200, Note_on_c, 1, 78, 80
3, 439344, Note_off_c, 1, 78, 64
3, 439344, Note_off_c, 1, 74, 64
3, 439680, Note_on_c, 1, 80, 80
3, 439680, Note_on_c, 1, 74, 80
3, 439824, Note_off_c, 1, 74, 64
3, 439824, Note_off_c, 1, 80, 64
3, 440160, Note_on_c, 1, 80, 80
3, 440160, Note_on_c, 1, 74, 80
3, 440304, Note_off_c, 1, 74, 64
3, 440304, Note_off_c, 1, 80, 64
3, 440640, Note_on_c, 1, 77, 80
3, 440640, Note_on_c, 1, 81, 80
3, 440784, Note_off_c, 1, 81, 64
3, 440784, Note_off_c, 1, 77, 64
3, 441120, Note_on_c, 1, 77, 80
3, 441120, Note_on_c, 1, 81, 80
3, 441264, Note_off_c, 1, 81, 64
3, 441264, Note_off_c, 1, 77, 64
3, 441600, Note_on_c, 1, 83, 80
3, 441600, Note_on_c, 1, 76, 80
3, 441744, Note_off_c, 1, 76, 64
3, 441744, Note_off_c, 1, 83, 64
3, 442080, Note_on_c, 1, 71, 80
3, 442080, Note_on_c, 1, 81, 80
3, 442224, Note_off_c, 1, 81, 64
3, 442224, Note_off_c, 1, 71, 64
3, 442560, Note_on_c, 1, 81, 80
3, 442560, Note_on_c, 1, 69, 80
3, 442704, Note_off_c, 1, 69, 64
3, 442704, Note_off_c, 1, 81, 64
3, 443040, Note_on_c, 1, 69, 80
3, 443040, Note_on_c, 1, 81, 80
3, 443184, Note_off_c, 1, 81, 64
3, 443184, Note_off_c, 1, 69, 64
3, 443520, Note_on_c, 1, 80, 80
3, 443520, Note_on_c, 1, 71, 80
3, 443664, Note_off_c, 1, 71, 64
3, 443664, Note_off_c, 1, 80, 64
3, 444000, Note_on_c, 1, 74, 80
3, 444000, Note_on_c, 1, 77, 80
3, 444144, Note_off_c, 1, 77, 64
3, 444144, Note_off_c, 1, 74, 64
3, 447840, Note_on_c, 1, 77, 80
3, 447840, Note_on_c, 1, 74, 80
3, 447984, Note_off_c, 1, 74, 64
3, 447984, Note_off_c, 1, 77, 64
3, 455520, Note_on_c, 1, 76, 77
3, 455520, Note_on_c, 1, 85, 77
3, 455970, Note_off_c, 1, 85, 64
3, 455970, Note_off_c, 1, 76, 64
3, 456480, Note_on_c, 1, 83, 77
3, 456480, Note_on_c, 1, 74, 77
3, 456930, Note_off_c, 1, 74, 64
3, 456930, Note_off_c, 1, 83, 64
3, 457440, Note_on_c, 1, 81, 77
3, 457440, Note_on_c, 1, 73, 77
3, 457890, Note_off_c, 1, 73, 64
3, 457890, Note_off_c, 1, 81, 64
3, 458400, Note_on_c, 1, 83, 77
3, 458400, Note_on_c, 1, 74, 77
3, 458850, Note_off_c, 1, 74, 64
3, 458850, Note_off_c, 1, 83, 64
3, 458880, Note_on_c, 1, 85, 54
3, 458880, Note_on_c, 1, 73, 54
3, 459106, Note_off_c, 1, 73, 64
3, 459106, Note_off_c, 1, 85, 64
3, 465120, Note_on_c, 1, 85, 77
3, 465120, Note_on_c, 1, 76, 77
3, 465570, Note_off_c, 1, 76, 64
3, 465570, Note_off_c, 1, 85, 64
3, 466080, Note_on_c, 1, 83, 77
3, 466080, Note_on_c, 1, 74, 77
3, 466530, Note_off_c, 1, 74, 64
3, 466530, Note_off_c, 1, 83, 64
3, 467040, Note_on_c, 1, 81, 77
3, 467040, Note_on_c, 1, 73, 77
3, 467490, Note_off_c, 1, 73, 64
3, 467490, Note_off_c, 1, 81, 64
3, 468000, Note_on_c, 1, 83, 77
3, 468000, Note_on_c, 1, 74, 77
3, 468450, Note_off_c, 1, 74, 64
3, 468450, Note_off_c, 1, 83, 64
3, 468480, Note_on_c, 1, 85, 54
3, 468480, Note_on_c, 1, 73, 54
3, 468706, Note_off_c, 1, 73, 64
3, 468706, Note_off_c, 1, 85, 64
3, 487680, Note_on_c, 1, 79, 96
3, 487680, Note_on_c, 1, 82, 96
3, 487824, Note_off_c, 1, 82, 64
3, 487824, Note_off_c, 1, 79, 64
3, 487920, Note_on_c, 1, 82, 96
3, 487920, Note_on_c, 1, 79, 96
3, 488064, Note_off_c, 1, 79, 64
3, 488064, Note_off_c, 1, 82, 64
3, 488160, Note_on_c, 1, 82, 96
3, 488160, Note_on_c, 1, 79, 96
3, 488304, Note_off_c, 1, 79, 64
3, 488304, Note_off_c, 1, 82, 64
3, 488400, Note_on_c, 1, 79, 96
3, 488400, Note_on_c, 1, 82, 96
3, 488544, Note_off_c, 1, 82, 64
3, 488544, Note_off_c, 1, 79, 64
3, 488640, Note_on_c, 1, 79, 96
3, 488640, Note_on_c, 1, 82, 96
3, 488784, Note_off_c, 1, 82, 64
3, 488784, Note_off_c, 1, 79, 64
3, 488880, Note_on_c, 1, 79, 96
3, 488880, Note_on_c, 1, 82, 96
3, 489024, Note_off_c, 1, 82, 64
3, 489024, Note_off_c, 1, 79, 64
3, 489120, Note_on_c, 1, 82, 96
3, 489120, Note_on_c, 1, 79, 96
3, 489264, Note_off_c, 1, 79, 64
3, 489264, Note_off_c, 1, 82, 64
3, 489360, Note_on_c, 1, 79, 96
3, 489360, Note_on_c, 1, 82, 96
3, 489504, Note_off_c, 1, 82, 64
3, 489504, Note_off_c, 1, 79, 64
3, 489600, Note_on_c, 1, 77, 126
3, 489600, Note_on_c, 1, 81, 126
3, 489744, Note_off_c, 1, 81, 64
3, 489744, Note_off_c, 1, 77, 64
3, 489840, Note_on_c, 1, 77, 96
3, 489840, Note_on_c, 1, 81, 96
3, 489984, Note_off_c, 1, 81, 64
3, 489984, Note_off_c, 1, 77, 64
3, 490080, Note_on_c, 1, 77, 96
3, 490080, Note_on_c, 1, 81, 96
3, 490224, Note_off_c, 1, 81, 64
3, 490224, Note_off_c, 1, 77, 64
3, 490320, Note_on_c, 1, 81, 96
3, 490320, Note_on_c, 1, 77, 96
3, 490464, Note_off_c, 1, 77, 64
3, 490464, Note_off_c, 1, 81, 64
3, 490560, Note_on_c, 1, 82, 96
3, 490560, Note_on_c, 1, 79, 96
3, 490704, Note_off_c, 1, 79, 64
3, 490704, Note_off_c, 1, 82, 64
3, 490800, Note_on_c, 1, 82, 96
3, 490800, Note_on_c, 1, 79, 96
3, 490944, Note_off_c, 1, 79, 64
3, 490944, Note_off_c, 1, 82, 64
3, 491040, Note_on_c, 1, 82, 96
3, 491040, Note_on_c, 1, 79, 96
3, 491184, Note_off_c, 1, 79, 64
3, 491184, Note_off_c, 1, 82, 64
3, 491280, Note_on_c, 1, 82, 96
3, 491280, Note_on_c, 1, 79, 96
3, 491424, Note_off_c, 1, 79, 64
3, 491424, Note_off_c, 1, 82, 64
3, 491520, Note_on_c, 1, 81, 126
3, 491520, Note_on_c, 1, 77, 126
3, 491664, Note_off_c, 1, 77, 64
3, 491664, Note_off_c, 1, 81, 64
3, 491760, Note_on_c, 1, 77, 96
3, 491760, Note_on_c, 1, 81, 96
3, 491904, Note_off_c, 1, 81, 64
3, 491904, Note_off_c, 1, 77, 64
3, 492000, Note_on_c, 1, 77, 96
3, 492000, Note_on_c, 1, 81, 96
3, 492144, Note_off_c, 1, 81, 64
3, 492144, Note_off_c, 1, 77, 64
3, 492240, Note_on_c, 1, 77, 96
3, 492240, Note_on_c, 1, 81, 96
3, 492384, Note_off_c, 1, 81, 64
3, 492384, Note_off_c, 1, 77, 64
3, 492480, Note_on_c, 1, 79, 96
3, 492480, Note_on_c, 1, 82, 96
3, 492624, Note_off_c, 1, 82, 64
3, 492624, Note_off_c, 1, 79, 64
3, 492720, Note_on_c, 1, 79, 96
3, 492720, Note_on_c, 1, 82, 96
3, 492864, Note_off_c, 1, 82, 64
3, 492864, Note_off_c, 1, 79, 64
3, 492960, Note_on_c, 1, 79, 96
3, 492960, Note_on_c, 1, 82, 96
3, 493104, Note_off_c, 1, 82, 64
3, 493104, Note_off_c, 1, 79, 64
3, 493200, Note_on_c, 1, 79, 96
3, 493200, Note_on_c, 1, 82, 96
3, 493344, Note_off_c, 1, 82, 64
3, 493344, Note_off_c, 1, 79, 64
3, 493440, Note_on_c, 1, 79, 127
3, 493440, Note_on_c, 1, 82, 127
3, 493584, Note_off_c, 1, 82, 64
3, 493584, Note_off_c, 1, 79, 64
3, 493680, Note_on_c, 1, 79, 127
3, 493680, Note_on_c, 1, 82, 127
3, 493824, Note_off_c, 1, 82, 64
3, 493824, Note_off_c, 1, 79, 64
3, 493920, Note_on_c, 1, 82, 127
3, 493920, Note_on_c, 1, 79, 127
3, 494064, Note_off_c, 1, 79, 64
3, 494064, Note_off_c, 1, 82, 64
3, 494160, Note_on_c, 1, 79, 127
3, 494160, Note_on_c, 1, 82, 127
3, 494304, Note_off_c, 1, 82, 64
3, 494304, Note_off_c, 1, 79, 64
3, 494400, Note_on_c, 1, 79, 127
3, 494400, Note_on_c, 1, 82, 127
3, 494544, Note_off_c, 1, 82, 64
3, 494544, Note_off_c, 1, 79, 64
3, 494640, Note_on_c, 1, 79, 127
3, 494640, Note_on_c, 1, 82, 127
3, 494784, Note_off_c, 1, 82, 64
3, 494784, Note_off_c, 1, 79, 64
3, 494880, Note_on_c, 1, 82, 127
3, 494880, Note_on_c, 1, 79, 127
3, 495024, Note_off_c, 1, 79, 64
3, 495024, Note_off_c, 1, 82, 64
3, 495120, Note_on_c, 1, 79, 127
3, 495120, Note_on_c, 1, 82, 127
3, 495264, Note_off_c, 1, 82, 64
3, 495264, Note_off_c, 1, 79, 64
3, 495360, Note_on_c, 1, 81, 126
3, 495360, Note_on_c, 1, 77, 126
3, 495504, Note_off_c, 1, 77, 64
3, 495504, Note_off_c, 1, 81, 64
3, 495600, Note_on_c, 1, 77, 96
3, 495600, Note_on_c, 1, 81, 96
3, 495744, Note_off_c, 1, 81, 64
3, 495744, Note_off_c, 1, 77, 64
3, 495840, Note_on_c, 1, 77, 96
3, 495840, Note_on_c, 1, 81, 96
3, 495984, Note_off_c, 1, 81, 64
3, 495984, Note_off_c, 1, 77, 64
3, 496080, Note_on_c, 1, 77, 96
3, 496080, Note_on_c, 1, 81, 96
3, 496224, Note_off_c, 1, 81, 64
3, 496224, Note_off_c, 1, 77, 64
3, 496320, Note_on_c, 1, 79, 96
3, 496320, Note_on_c, 1, 82, 96
3, 496464, Note_off_c, 1, 82, 64
3, 496464, Note_off_c, 1, 79, 64
3, 496560, Note_on_c, 1, 79, 96
3, 496560, Note_on_c, 1, 82, 96
3, 496704, Note_off_c, 1, 82, 64
3, 496704, Note_off_c, 1, 79, 64
3, 496800, Note_on_c, 1, 79, 96
3, 496800, Note_on_c, 1, 82, 96
3, 496944, Note_off_c, 1, 82, 64
3, 496944, Note_off_c, 1, 79, 64
3, 497040, Note_on_c, 1, 79, 96
3, 497040, Note_on_c, 1, 82, 96
3, 497184, Note_off_c, 1, 82, 64
3, 497184, Note_off_c, 1, 79, 64
3, 497280, Note_on_c, 1, 81, 126
3, 497280, Note_on_c, 1, 77, 126
3, 497424, Note_off_c, 1, 77, 64
3, 497424, Note_off_c, 1, 81, 64
3, 497520, Note_on_c, 1, 77, 96
3, 497520, Note_on_c, 1, 81, 96
3, 497664, Note_off_c, 1, 81, 64
3, 497664, Note_off_c, 1, 77, 64
3, 497760, Note_on_c, 1, 81, 96
3, 497760, Note_on_c, 1, 77, 96
3, 497904, Note_off_c, 1, 77, 64
3, 497904, Note_off_c, 1, 81, 64
3, 498000, Note_on_c, 1, 77, 96
3, 498000, Note_on_c, 1, 81, 96
3, 498144, Note_off_c, 1, 81, 64
3, 498144, Note_off_c, 1, 77, 64
3, 498240, Note_on_c, 1, 81, 126
3, 498240, Note_on_c, 1, 84, 126
3, 498384, Note_off_c, 1, 84, 64
3, 498384, Note_off_c, 1, 81, 64
3, 498480, Note_on_c, 1, 84, 96
3, 498480, Note_on_c, 1, 81, 96
3, 498624, Note_off_c, 1, 81, 64
3, 498624, Note_off_c, 1, 84, 64
3, 498720, Note_on_c, 1, 81, 96
3, 498720, Note_on_c, 1, 84, 96
3, 498864, Note_off_c, 1, 84, 64
3, 498864, Note_off_c, 1, 81, 64
3, 498960, Note_on_c, 1, 84, 96
3, 498960, Note_on_c, 1, 81, 96
3, 499104, Note_off_c, 1, 81, 64
3, 499104, Note_off_c, 1, 84, 64
3, 499200, Note_on_c, 1, 81, 126
3, 499200, Note_on_c, 1, 85, 126
3, 499320, Note_off_c, 1, 85, 64
3, 499320, Note_off_c, 1, 81, 64
3, 499440, Note_on_c, 1, 81, 96
3, 499440, Note_on_c, 1, 85, 96
3, 499560, Note_off_c, 1, 85, 64
3, 499560, Note_off_c, 1, 81, 64
3, 499680, Note_on_c, 1, 85, 96
3, 499680, Note_on_c, 1, 81, 96
3, 499800, Note_off_c, 1, 81, 64
3, 499800, Note_off_c, 1, 85, 64
3, 499920, Note_on_c, 1, 85, 96
3, 499920, Note_on_c, 1, 81, 96
3, 500040, Note_off_c, 1, 81, 64
3, 500040, Note_off_c, 1, 85, 64
3, 500160, Note_on_c, 1, 80, 126
3, 500160, Note_on_c, 1, 83, 126
3, 500280, Note_off_c, 1, 83, 64
3, 500280, Note_off_c, 1, 80, 64
3, 500400, Note_on_c, 1, 80, 96
3, 500400, Note_on_c, 1, 83, 96
3, 500520, Note_off_c, 1, 83, 64
3, 500520, Note_off_c, 1, 80, 64
3, 500640, Note_on_c, 1, 80, 96
3, 500640, Note_on_c, 1, 83, 96
3, 500760, Note_off_c, 1, 83, 64
3, 500760, Note_off_c, 1, 80, 64
3, 500880, Note_on_c, 1, 80, 96
3, 500880, Note_on_c, 1, 83, 96
3, 501000, Note_off_c, 1, 83, 64
3, 501000, Note_off_c, 1, 80, 64
3, 501120, Note_on_c, 1, 85, 96
3, 501120, Note_on_c, 1, 81, 96
3, 501240, Note_off_c, 1, 81, 64
3, 501240, Note_off_c, 1, 85, 64
3, 501360, Note_on_c, 1, 81, 96
3, 501360, Note_on_c, 1, 85, 96
3, 501480, Note_off_c, 1, 85, 64
3, 501480, Note_off_c, 1, 81, 64
3, 501600, Note_on_c, 1, 80, 126
3, 501600, Note_on_c, 1, 86, 126
3, 501720, Note_off_c, 1, 86, 64
3, 501720, Note_off_c, 1, 80, 64
3, 501840, Note_on_c, 1, 86, 96
3, 501840, Note_on_c, 1, 80, 96
3, 501960, Note_off_c, 1, 80, 64
3, 501960, Note_off_c, 1, 86, 64
3, 502080, Note_on_c, 1, 80, 96
3, 502080, Note_on_c, 1, 86, 96
3, 502200, Note_off_c, 1, 86, 64
3, 502200, Note_off_c, 1, 80, 64
3, 502320, Note_on_c, 1, 86, 96
3, 502320, Note_on_c, 1, 80, 96
3, 502440, Note_off_c, 1, 80, 64
3, 502440, Note_off_c, 1, 86, 64
3, 502560, Note_on_c, 1, 86, 96
3, 502560, Note_on_c, 1, 80, 96
3, 502680, Note_off_c, 1, 80, 64
3, 502680, Note_off_c, 1, 86, 64
3, 502800, Note_on_c, 1, 80, 96
3, 502800, Note_on_c, 1, 86, 96
3, 502920, Note_off_c, 1, 86, 64
3, 502920, Note_off_c, 1, 80, 64
3, 503040, Note_on_c, 1, 85, 96
3, 503040, Note_on_c, 1, 81, 96
3, 503160, Note_off_c, 1, 81, 64
3, 503160, Note_off_c, 1, 85, 64
3, 503280, Note_on_c, 1, 81, 96
3, 503280, Note_on_c, 1, 85, 96
3, 503400, Note_off_c, 1, 85, 64
3, 503400, Note_off_c, 1, 81, 64
3, 503520, Note_on_c, 1, 86, 126
3, 503520, Note_on_c, 1, 80, 126
3, 503640, Note_off_c, 1, 80, 64
3, 503640, Note_off_c, 1, 86, 64
3, 503760, Note_on_c, 1, 86, 96
3, 503760, Note_on_c, 1, 80, 96
3, 503880, Note_off_c, 1, 80, 64
3, 503880, Note_off_c, 1, 86, 64
3, 504000, Note_on_c, 1, 80, 96
3, 504000, Note_on_c, 1, 86, 96
3, 504120, Note_off_c, 1, 86, 64
3, 504120, Note_off_c, 1, 80, 64
3, 504240, Note_on_c, 1, 86, 96
3, 504240, Note_on_c, 1, 80, 96
3, 504360, Note_off_c, 1, 80, 64
3, 504360, Note_off_c, 1, 86, 64
3, 504480, Note_on_c, 1, 80, 96
3, 504480, Note_on_c, 1, 86, 96
3, 504600, Note_off_c, 1, 86, 64
3, 504600, Note_off_c, 1, 80, 64
3, 504720, Note_on_c, 1, 86, 96
3, 504720, Note_on_c, 1, 80, 96
3, 504840, Note_off_c, 1, 80, 64
3, 504840, Note_off_c, 1, 86, 64
3, 504960, Note_on_c, 1, 85, 96
3, 504960, Note_on_c, 1, 81, 96
3, 505080, Note_off_c, 1, 81, 64
3, 505080, Note_off_c, 1, 85, 64
3, 505200, Note_on_c, 1, 81, 96
3, 505200, Note_on_c, 1, 85, 96
3, 505320, Note_off_c, 1, 85, 64
3, 505320, Note_off_c, 1, 81, 64
3, 505440, Note_on_c, 1, 86, 126
3, 505440, Note_on_c, 1, 80, 126
3, 505560, Note_off_c, 1, 80, 64
3, 505560, Note_off_c, 1, 86, 64
3, 505680, Note_on_c, 1, 86, 96
3, 505680, Note_on_c, 1, 80, 96
3, 505800, Note_off_c, 1, 80, 64
3, 505800, Note_off_c, 1, 86, 64
3, 505920, Note_on_c, 1, 85, 96
3, 505920, Note_on_c, 1, 81, 96
3, 506040, Note_off_c, 1, 81, 64
3, 506040, Note_off_c, 1, 85, 64
3, 506160, Note_on_c, 1, 81, 96
3, 506160, Note_on_c, 1, 85, 96
3, 506280, Note_off_c, 1, 85, 64
3, 506280, Note_off_c, 1, 81, 64
3, 506400, Note_on_c, 1, 86, 126
3, 506400, Note_on_c, 1, 80, 126
3, 506520, Note_off_c, 1, 80, 64
3, 506520, Note_off_c, 1, 86, 64
3, 506640, Note_on_c, 1, 86, 96
3, 506640, Note_on_c, 1, 80, 96
3, 506760, Note_off_c, 1, 80, 64
3, 506760, Note_off_c, 1, 86, 64
3, 506880, Note_on_c, 1, 85, 96
3, 506880, Note_on_c, 1, 81, 96
3, 507000, Note_off_c, 1, 81, 64
3, 507000, Note_off_c, 1, 85, 64
3, 507120, Note_on_c, 1, 81, 96
3, 507120, Note_on_c, 1, 85, 96
3, 507240, Note_off_c, 1, 85, 64
3, 507240, Note_off_c, 1, 81, 64
3, 507360, Note_on_c, 1, 86, 126
3, 507360, Note_on_c, 1, 80, 126
3, 507480, Note_off_c, 1, 80, 64
3, 507480, Note_off_c, 1, 86, 64
3, 507600, Note_on_c, 1, 86, 96
3, 507600, Note_on_c, 1, 80, 96
3, 507720, Note_off_c, 1, 80, 64
3, 507720, Note_off_c, 1, 86, 64
3, 507840, Note_on_c, 1, 85, 96
3, 507840, Note_on_c, 1, 81, 96
3, 507960, Note_off_c, 1, 81, 64
3, 507960, Note_off_c, 1, 85, 64
3, 508080, Note_on_c, 1, 81, 96
3, 508080, Note_on_c, 1, 85, 96
3, 508200, Note_off_c, 1, 85, 64
3, 508200, Note_off_c, 1, 81, 64
3, 508320, Note_on_c, 1, 85, 96
3, 508320, Note_on_c, 1, 81, 96
3, 508440, Note_off_c, 1, 81, 64
3, 508440, Note_off_c, 1, 85, 64
3, 508560, Note_on_c, 1, 85, 96
3, 508560, Note_on_c, 1, 81, 96
3, 508680, Note_off_c, 1, 81, 64
3, 508680, Note_off_c, 1, 85, 64
3, 508800, Note_on_c, 1, 85, 96
3, 508800, Note_on_c, 1, 81, 96
3, 508920, Note_off_c, 1, 81, 64
3, 508920, Note_off_c, 1, 85, 64
3, 509100, Note_on_c, 1, 81, 54
3, 509214, Note_off_c, 1, 81, 64
3, 509220, Note_on_c, 1, 81, 54
3, 509334, Note_off_c, 1, 81, 64
3, 509340, Note_on_c, 1, 81, 72
3, 509454, Note_off_c, 1, 81, 64
3, 511380, Note_on_c, 1, 79, 41
3, 511380, Note_on_c, 1, 76, 41
3, 511494, Note_off_c, 1, 76, 64
3, 511494, Note_off_c, 1, 79, 64
3, 511500, Note_on_c, 1, 76, 41
3, 511500, Note_on_c, 1, 79, 41
3, 511614, Note_off_c, 1, 79, 64
3, 511614, Note_off_c, 1, 76, 64
3, 511620, Note_on_c, 1, 76, 54
3, 511620, Note_on_c, 1, 79, 54
3, 511734, Note_off_c, 1, 79, 64
3, 511734, Note_off_c, 1, 76, 64
3, 513660, Note_on_c, 1, 79, 41
3, 513660, Note_on_c, 1, 76, 41
3, 513774, Note_off_c, 1, 76, 64
3, 513774, Note_off_c, 1, 79, 64
3, 513780, Note_on_c, 1, 79, 41
3, 513780, Note_on_c, 1, 76, 41
3, 513894, Note_off_c, 1, 76, 64
3, 513894, Note_off_c, 1, 79, 64
3, 513900, Note_on_c, 1, 79, 54
3, 513900, Note_on_c, 1, 76, 54
3, 514014, Note_off_c, 1, 76, 64
3, 514014, Note_off_c, 1, 79, 64
3, 514740, Note_on_c, 1, 79, 41
3, 514740, Note_on_c, 1, 76, 41
3, 514854, Note_off_c, 1, 76, 64
3, 514854, Note_off_c, 1, 79, 64
3, 514860, Note_on_c, 1, 79, 41
3, 514860, Note_on_c, 1, 76, 41
3, 514974, Note_off_c, 1, 76, 64
3, 514974, Note_off_c, 1, 79, 64
3, 514980, Note_on_c, 1, 79, 54
3, 514980, Note_on_c, 1, 76, 54
3, 515094, Note_off_c, 1, 76, 64
3, 515094, Note_off_c, 1, 79, 64
3, 515820, Note_on_c, 1, 79, 41
3, 515820, Note_on_c, 1, 76, 41
3, 515934, Note_off_c, 1, 76, 64
3, 515934, Note_off_c, 1, 79, 64
3, 515940, Note_on_c, 1, 79, 41
3, 515940, Note_on_c, 1, 76, 41
3, 516054, Note_off_c, 1, 76, 64
3, 516054, Note_off_c, 1, 79, 64
3, 516060, Note_on_c, 1, 79, 54
3, 516060, Note_on_c, 1, 76, 54
3, 516174, Note_off_c, 1, 76, 64
3, 516174, Note_off_c, 1, 79, 64
3, 516900, Note_on_c, 1, 79, 41
3, 516900, Note_on_c, 1, 76, 41
3, 517014, Note_off_c, 1, 76, 64
3, 517014, Note_off_c, 1, 79, 64
3, 517020, Note_on_c, 1, 79, 41
3, 517020, Note_on_c, 1, 76, 41
3, 517134, Note_off_c, 1, 76, 64
3, 517134, Note_off_c, 1, 79, 64
3, 517140, Note_on_c, 1, 79, 54
3, 517140, Note_on_c, 1, 76, 54
3, 517254, Note_off_c, 1, 76, 64
3, 517254, Note_off_c, 1, 79, 64
3, 517680, Note_on_c, 1, 78, 41
3, 517680, Note_on_c, 1, 73, 41
3, 517776, Note_off_c, 1, 73, 64
3, 517776, Note_off_c, 1, 78, 64
3, 521160, Note_on_c, 1, 73, 60
3, 521160, Note_on_c, 1, 82, 60
3, 521640, Note_off_c, 1, 82, 64
3, 521640, Note_off_c, 1, 73, 64
3, 521640, Note_on_c, 1, 74, 60
3, 521640, Note_on_c, 1, 83, 60
3, 521760, Note_off_c, 1, 83, 64
3, 521760, Note_off_c, 1, 74, 64
3, 525000, Note_on_c, 1, 82, 60
3, 525000, Note_on_c, 1, 73, 60
3, 525480, Note_off_c, 1, 73, 64
3, 525480, Note_off_c, 1, 82, 64
3, 525480, Note_on_c, 1, 74, 60
3, 525480, Note_on_c, 1, 83, 60
3, 525600, Note_off_c, 1, 83, 64
3, 525600, Note_off_c, 1, 74, 64
3, 526440, Note_on_c, 1, 76, 46
3, 529546, Note_off_c, 1, 76, 64
3, 530280, Note_on_c, 1, 76, 46
3, 532008, Note_off_c, 1, 76, 64
3, 532200, Note_on_c, 1, 81, 46
3, 533928, Note_off_c, 1, 81, 64
3, 534120, Note_on_c, 1, 86, 35
3, 534120, Note_on_c, 1, 74, 35
3, 539370, Note_off_c, 1, 74, 64
3, 539370, Note_off_c, 1, 86, 64
3, 539400, Note_on_c, 1, 74, 50
3, 539400, Note_on_c, 1, 77, 50
3, 541320, Note_off_c, 1, 77, 64
3, 541320, Note_off_c, 1, 74, 64
3, 541320, Note_on_c, 1, 72, 50
3, 541320, Note_on_c, 1, 75, 50
3, 547050, Note_off_c, 1, 75, 64
3, 547050, Note_off_c, 1, 72, 64
3, 547080, Note_on_c, 1, 70, 50
3, 547080, Note_on_c, 1, 73, 50
3, 550890, Note_off_c, 1, 73, 64
3, 550890, Note_off_c, 1, 70, 64
3, 550920, Note_on_c, 1, 72, 50
3, 550920, Note_on_c, 1, 69, 50
3, 558120, Note_off_c, 1, 69, 64
3, 558120, Note_off_c, 1, 72, 64
3, 558120, Note_on_c, 1, 74, 65
3, 558120, Note_on_c, 1, 71, 65
3, 560040, Note_off_c, 1, 71, 64
3, 560040, Note_off_c, 1, 74, 64
3, 560040, Note_on_c, 1, 73, 65
3, 560040, Note_on_c, 1, 69, 65
3, 561960, Note_off_c, 1, 69, 64
3, 561960, Note_off_c, 1, 73, 64
3, 561960, Note_on_c, 1, 71, 65
3, 561960, Note_on_c, 1, 74, 65
3, 563880, Note_off_c, 1, 74, 64
3, 563880, Note_off_c, 1, 71, 64
3, 563880, Note_on_c, 1, 73, 65
3, 563880, Note_on_c, 1, 76, 65
3, 564840, Note_off_c, 1, 76, 64
3, 564840, Note_off_c, 1, 73, 64
3, 564840, Note_on_c, 1, 78, 65
3, 564840, Note_on_c, 1, 74, 65
3, 565800, Note_off_c, 1, 74, 64
3, 565800, Note_off_c, 1, 78, 64
3, 565800, Note_on_c, 1, 80, 65
3, 565800, Note_on_c, 1, 76, 65
3, 566760, Note_off_c, 1, 76, 64
3, 566760, Note_off_c, 1, 80, 64
3, 566760, Note_on_c, 1, 78, 65
3, 566760, Note_on_c, 1, 81, 65
3, 567720, Note_off_c, 1, 81, 64
3, 567720, Note_off_c, 1, 78, 64
3, 567720, Note_on_c, 1, 80, 65
3, 567720, Note_on_c, 1, 83, 65
3, 568680, Note_off_c, 1, 83, 64
3, 568680, Note_off_c, 1, 80, 64
3, 568680, Note_on_c, 1, 85, 65
3, 568680, Note_on_c, 1, 81, 65
3, 569640, Note_off_c, 1, 81, 64
3, 569640, Note_off_c, 1, 85, 64
3, 569640, Note_on_c, 1, 86, 65
3, 569640, Note_on_c, 1, 83, 65
3, 571560, Note_off_c, 1, 83, 64
3, 571560, Note_off_c, 1, 86, 64
3, 571560, Note_on_c, 1, 81, 54
3, 571560, Note_on_c, 1, 85, 54
3, 571680, Note_off_c, 1, 85, 64
3, 571680, Note_off_c, 1, 81, 64
3, 571860, Note_on_c, 1, 81, 54
3, 571860, Note_on_c, 1, 69, 54
3, 571920, Note_off_c, 1, 69, 64
3, 571920, Note_off_c, 1, 81, 64
3, 571980, Note_on_c, 1, 69, 54
3, 571980, Note_on_c, 1, 81, 54
3, 572040, Note_off_c, 1, 81, 64
3, 572040, Note_off_c, 1, 69, 64
3, 572100, Note_on_c, 1, 69, 54
3, 572100, Note_on_c, 1, 81, 54
3, 572220, Note_off_c, 1, 81, 64
3, 572220, Note_off_c, 1, 69, 64
3, 572940, Note_on_c, 1, 69, 54
3, 572940, Note_on_c, 1, 81, 54
3, 573054, Note_off_c, 1, 81, 64
3, 573054, Note_off_c, 1, 69, 64
3, 573060, Note_on_c, 1, 69, 54
3, 573060, Note_on_c, 1, 81, 54
3, 573174, Note_off_c, 1, 81, 64
3, 573174, Note_off_c, 1, 69, 64
3, 573180, Note_on_c, 1, 81, 54
3, 573180, Note_on_c, 1, 69, 54
3, 573294, Note_off_c, 1, 69, 64
3, 573294, Note_off_c, 1, 81, 64
3, 574020, Note_on_c, 1, 83, 54
3, 574020, Note_on_c, 1, 80, 54
3, 574080, Note_off_c, 1, 80, 64
3, 574080, Note_off_c, 1, 83, 64
3, 574140, Note_on_c, 1, 80, 54
3, 574140, Note_on_c, 1, 83, 54
3, 574200, Note_off_c, 1, 83, 64
3, 574200, Note_off_c, 1, 80, 64
3, 574260, Note_on_c, 1, 83, 54
3, 574260, Note_on_c, 1, 80, 54
3, 574380, Note_off_c, 1, 80, 64
3, 574380, Note_off_c, 1, 83, 64
3, 575100, Note_on_c, 1, 83, 54
3, 575100, Note_on_c, 1, 80, 54
3, 575160, Note_off_c, 1, 80, 64
3, 575160, Note_off_c, 1, 83, 64
3, 575220, Note_on_c, 1, 80, 54
3, 575220, Note_on_c, 1, 83, 54
3, 575280, Note_off_c, 1, 83, 64
3, 575280, Note_off_c, 1, 80, 64
3, 575340, Note_on_c, 1, 83, 54
3, 575340, Note_on_c, 1, 80, 54
3, 575460, Note_off_c, 1, 80, 64
3, 575460, Note_off_c, 1, 83, 64
3, 575880, Note_on_c, 1, 85, 54
3, 575880, Note_on_c, 1, 76, 54
3, 576456, Note_off_c, 1, 76, 64
3, 576456, Note_off_c, 1, 85, 64
3, 576600, Note_on_c, 1, 83, 54
3, 576600, Note_on_c, 1, 74, 54
3, 576720, Note_off_c, 1, 74, 64
3, 576720, Note_off_c, 1, 83, 64
3, 576840, Note_on_c, 1, 73, 54
3, 576840, Note_on_c, 1, 81, 54
3, 576960, Note_off_c, 1, 81, 64
3, 576960, Note_off_c, 1, 73, 64
3, 577080, Note_on_c, 1, 76, 54
3, 577080, Note_on_c, 1, 85, 54
3, 577200, Note_off_c, 1, 85, 64
3, 577200, Note_off_c, 1, 76, 64
3, 577320, Note_on_c, 1, 83, 54
3, 577320, Note_on_c, 1, 74, 54
3, 577440, Note_off_c, 1, 74, 64
3, 577440, Note_off_c, 1, 83, 64
3, 577560, Note_on_c, 1, 81, 54
3, 577560, Note_on_c, 1, 73, 54
3, 577680, Note_off_c, 1, 73, 64
3, 577680, Note_off_c, 1, 81, 64
3, 577800, Note_on_c, 1, 74, 54
3, 577800, Note_on_c, 1, 83, 54
3, 577920, Note_off_c, 1, 83, 64
3, 577920, Note_off_c, 1, 74, 64
3, 578040, Note_on_c, 1, 81, 72
3, 578040, Note_on_c, 1, 73, 72
3, 578160, Note_off_c, 1, 73, 64
3, 578160, Note_off_c, 1, 81, 64
3, 578280, Note_on_c, 1, 71, 72
3, 578280, Note_on_c, 1, 80, 72
3, 578400, Note_off_c, 1, 80, 64
3, 578400, Note_off_c, 1, 71, 64
3, 578520, Note_on_c, 1, 78, 72
3, 578520, Note_on_c, 1, 74, 72
3, 578640, Note_off_c, 1, 74, 64
3, 578640, Note_off_c, 1, 78, 64
3, 578760, Note_on_c, 1, 73, 72
3, 578760, Note_on_c, 1, 76, 72
3, 578880, Note_off_c, 1, 76, 64
3, 578880, Note_off_c, 1, 73, 64
3, 579000, Note_on_c, 1, 71, 72
3, 579000, Note_on_c, 1, 74, 72
3, 579120, Note_off_c, 1, 74, 64
3, 579120, Note_off_c, 1, 71, 64
3, 579240, Note_on_c, 1, 69, 72
3, 579240, Note_on_c, 1, 73, 72
3, 579360, Note_off_c, 1, 73, 64
3, 579360, Note_off_c, 1, 69, 64
3, 579480, Note_on_c, 1, 68, 72
3, 579480, Note_on_c, 1, 71, 72
3, 579600, Note_off_c, 1, 71, 64
3, 579600, Note_off_c, 1, 68, 64
3, 579720, Note_on_c, 1, 85, 54
3, 579720, Note_on_c, 1, 81, 54
3, 579840, Note_off_c, 1, 81, 64
3, 579840, Note_off_c, 1, 85, 64
3, 580020, Note_on_c, 1, 69, 54
3, 580020, Note_on_c, 1, 81, 54
3, 580080, Note_off_c, 1, 81, 64
3, 580080, Note_off_c, 1, 69, 64
3, 580140, Note_on_c, 1, 69, 54
3, 580140, Note_on_c, 1, 81, 54
3, 580200, Note_off_c, 1, 81, 64
3, 580200, Note_off_c, 1, 69, 64
3, 580260, Note_on_c, 1, 69, 54
3, 580260, Note_on_c, 1, 81, 54
3, 580380, Note_off_c, 1, 81, 64
3, 580380, Note_off_c, 1, 69, 64
3, 581100, Note_on_c, 1, 81, 54
3, 581100, Note_on_c, 1, 69, 54
3, 581214, Note_off_c, 1, 69, 64
3, 581214, Note_off_c, 1, 81, 64
3, 581220, Note_on_c, 1, 69, 54
3, 581220, Note_on_c, 1, 81, 54
3, 581334, Note_off_c, 1, 81, 64
3, 581334, Note_off_c, 1, 69, 64
3, 581340, Note_on_c, 1, 81, 54
3, 581340, Note_on_c, 1, 69, 54
3, 581454, Note_off_c, 1, 69, 64
3, 581454, Note_off_c, 1, 81, 64
3, 582180, Note_on_c, 1, 83, 54
3, 582180, Note_on_c, 1, 80, 54
3, 582240, Note_off_c, 1, 80, 64
3, 582240, Note_off_c, 1, 83, 64
3, 582300, Note_on_c, 1, 83, 54
3, 582300, Note_on_c, 1, 80, 54
3, 582360, Note_off_c, 1, 80, 64
3, 582360, Note_off_c, 1, 83, 64
3, 582420, Note_on_c, 1, 83, 54
3, 582420, Note_on_c, 1, 80, 54
3, 582540, Note_off_c, 1, 80, 64
3, 582540, Note_off_c, 1, 83, 64
3, 583260, Note_on_c, 1, 80, 54
3, 583260, Note_on_c, 1, 83, 54
3, 583320, Note_off_c, 1, 83, 64
3, 583320, Note_off_c, 1, 80, 64
3, 583380, Note_on_c, 1, 83, 54
3, 583380, Note_on_c, 1, 80, 54
3, 583440, Note_off_c, 1, 80, 64
3, 583440, Note_off_c, 1, 83, 64
3, 583500, Note_on_c, 1, 83, 54
3, 583500, Note_on_c, 1, 80, 54
3, 583620, Note_off_c, 1, 80, 64
3, 583620, Note_off_c, 1, 83, 64
3, 584040, Note_on_c, 1, 85, 64
3, 584040, Note_on_c, 1, 81, 64
3, 584232, Note_off_c, 1, 81, 64
3, 584232, Note_off_c, 1, 85, 64
3, 584520, Note_on_c, 1, 81, 64
3, 584520, Note_on_c, 1, 85, 64
3, 584712, Note_off_c, 1, 85, 64
3, 584712, Note_off_c, 1, 81, 64
3, 585000, Note_on_c, 1, 85, 64
3, 585000, Note_on_c, 1, 81, 64
3, 585192, Note_off_c, 1, 81, 64
3, 585192, Note_off_c, 1, 85, 64
3, 585480, Note_on_c, 1, 81, 64
3, 585480, Note_on_c, 1, 85, 64
3, 585672, Note_off_c, 1, 85, 64
3, 585672, Note_off_c, 1, 81, 64
3, 585960, Note_on_c, 1, 80, 64
3, 585960, Note_on_c, 1, 83, 64
3, 586152, Note_off_c, 1, 83, 64
3, 586152, Note_off_c, 1, 80, 64
3, 586440, Note_on_c, 1, 80, 61
3, 586440, Note_on_c, 1, 83, 61
3, 586632, Note_off_c, 1, 83, 64
3, 586632, Note_off_c, 1, 80, 64
3, 586920, Note_on_c, 1, 80, 57
3, 586920, Note_on_c, 1, 83, 57
3, 587112, Note_off_c, 1, 83, 64
3, 587112, Note_off_c, 1, 80, 64
3, 587400, Note_on_c, 1, 80, 53
3, 587400, Note_on_c, 1, 83, 53
3, 587592, Note_off_c, 1, 83, 64
3, 587592, Note_off_c, 1, 80, 64
3, 587880, Note_on_c, 1, 81, 64
3, 587880, Note_on_c, 1, 85, 64
3, 588072, Note_off_c, 1, 85, 64
3, 588072, Note_off_c, 1, 81, 64
3, 588360, Note_on_c, 1, 81, 61
3, 588360, Note_on_c, 1, 85, 61
3, 588552, Note_off_c, 1, 85, 64
3, 588552, Note_off_c, 1, 81, 64
3, 588840, Note_on_c, 1, 81, 57
3, 588840, Note_on_c, 1, 85, 57
3, 589032, Note_off_c, 1, 85, 64
3, 589032, Note_off_c, 1, 81, 64
3, 589320, Note_on_c, 1, 85, 53
3, 589320, Note_on_c, 1, 81, 53
3, 589512, Note_off_c, 1, 81, 64
3, 589512, Note_off_c, 1, 85, 64
3, 589800, Note_on_c, 1, 83, 64
3, 589800, Note_on_c, 1, 86, 64
3, 589992, Note_off_c, 1, 86, 64
3, 589992, Note_off_c, 1, 83, 64
3, 590280, Note_on_c, 1, 86, 61
3, 590280, Note_on_c, 1, 83, 61
3, 590472, Note_off_c, 1, 83, 64
3, 590472, Note_off_c, 1, 86, 64
3, 590760, Note_on_c, 1, 83, 57
3, 590760, Note_on_c, 1, 86, 57
3, 590952, Note_off_c, 1, 86, 64
3, 590952, Note_off_c, 1, 83, 64
3, 591240, Note_on_c, 1, 86, 53
3, 591240, Note_on_c, 1, 83, 53
3, 591432, Note_off_c, 1, 83, 64
3, 591432, Note_off_c, 1, 86, 64
3, 591720, Note_on_c, 1, 85, 64
3, 591720, Note_on_c, 1, 76, 64
3, 591912, Note_off_c, 1, 76, 64
3, 591912, Note_off_c, 1, 85, 64
3, 592200, Note_on_c, 1, 85, 61
3, 592200, Note_on_c, 1, 76, 61
3, 592392, Note_off_c, 1, 76, 64
3, 592392, Note_off_c, 1, 85, 64
3, 592680, Note_on_c, 1, 85, 57
3, 592680, Note_on_c, 1, 76, 57
3, 592872, Note_off_c, 1, 76, 64
3, 592872, Note_off_c, 1, 85, 64
3, 593160, Note_on_c, 1, 85, 53
3, 593160, Note_on_c, 1, 76, 53
3, 593352, Note_off_c, 1, 76, 64
3, 593352, Note_off_c, 1, 85, 64
3, 593640, Note_on_c, 1, 79, 90
3, 595368, Note_off_c, 1, 79, 64
3, 595560, Note_on_c, 1, 78, 120
3, 595668, Note_off_c, 1, 78, 64
3, 595800, Note_on_c, 1, 76, 120
3, 595908, Note_off_c, 1, 76, 64
3, 596040, Note_on_c, 1, 86, 120
3, 596148, Note_off_c, 1, 86, 64
3, 596280, Note_on_c, 1, 85, 120
3, 596388, Note_off_c, 1, 85, 64
3, 596520, Note_on_c, 1, 83, 120
3, 596628, Note_off_c, 1, 83, 64
3, 596760, Note_on_c, 1, 81, 120
3, 596868, Note_off_c, 1, 81, 64
3, 597000, Note_on_c, 1, 79, 120
3, 597108, Note_off_c, 1, 79, 64
3, 597240, Note_on_c, 1, 78, 120
3, 597348, Note_off_c, 1, 78, 64
3, 597480, Note_on_c, 1, 76, 80
3, 598392, Note_off_c, 1, 76, 64
3, 598440, Note_on_c, 1, 78, 80
3, 599352, Note_off_c, 1, 78, 64
3, 599400, Note_on_c, 1, 73, 80
3, 599400, Note_on_c, 1, 85, 80
3, 600312, Note_off_c, 1, 85, 64
3, 600312, Note_off_c, 1, 73, 64
3, 600360, Note_on_c, 1, 80, 80
3, 600360, Note_on_c, 1, 71, 80
3, 601272, Note_off_c, 1, 71, 64
3, 601272, Note_off_c, 1, 80, 64
3, 601320, Note_on_c, 1, 76, 80
3, 601320, Note_on_c, 1, 64, 80
3, 601440, Note_off_c, 1, 64, 64
3, 601440, Note_off_c, 1, 76, 64
3, 601560, Note_on_c, 1, 76, 80
3, 601560, Note_on_c, 1, 64, 80
3, 601680, Note_off_c, 1, 64, 64
3, 601680, Note_off_c, 1, 76, 64
3, 601800, Note_on_c, 1, 64, 80
3, 601800, Note_on_c, 1, 76, 80
3, 601920, Note_off_c, 1, 76, 64
3, 601920, Note_off_c, 1, 64, 64
3, 602040, Note_on_c, 1, 76, 80
3, 602040, Note_on_c, 1, 64, 80
3, 602160, Note_off_c, 1, 64, 64
3, 602160, Note_off_c, 1, 76, 64
3, 602280, Note_on_c, 1, 76, 80
3, 602280, Note_on_c, 1, 64, 80
3, 602400, Note_off_c, 1, 64, 64
3, 602400, Note_off_c, 1, 76, 64
3, 602520, Note_on_c, 1, 76, 80
3, 602520, Note_on_c, 1, 64, 80
3, 602640, Note_off_c, 1, 64, 64
3, 602640, Note_off_c, 1, 76, 64
3, 602760, Note_on_c, 1, 76, 80
3, 602760, Note_on_c, 1, 64, 80
3, 602880, Note_off_c, 1, 64, 64
3, 602880, Note_off_c, 1, 76, 64
3, 603000, Note_on_c, 1, 64, 80
3, 603000, Note_on_c, 1, 76, 80
3, 603120, Note_off_c, 1, 76, 64
3, 603120, Note_off_c, 1, 64, 64
3, 603240, Note_on_c, 1, 64, 80
3, 603240, Note_on_c, 1, 76, 80
3, 603360, Note_off_c, 1, 76, 64
3, 603360, Note_off_c, 1, 64, 64
3, 603480, Note_on_c, 1, 64, 80
3, 603480, Note_on_c, 1, 76, 80
3, 603600, Note_off_c, 1, 76, 64
3, 603600, Note_off_c, 1, 64, 64
3, 603720, Note_on_c, 1, 76, 80
3, 603720, Note_on_c, 1, 64, 80
3, 603840, Note_off_c, 1, 64, 64
3, 603840, Note_off_c, 1, 76, 64
3, 603960, Note_on_c, 1, 76, 80
3, 603960, Note_on_c, 1, 64, 80
3, 604080, Note_off_c, 1, 64, 64
3, 604080, Note_off_c, 1, 76, 64
3, 604200, Note_on_c, 1, 64, 80
3, 604200, Note_on_c, 1, 76, 80
3, 604320, Note_off_c, 1, 76, 64
3, 604320, Note_off_c, 1, 64, 64
3, 604440, Note_on_c, 1, 64, 80
3, 604440, Note_on_c, 1, 76, 80
3, 604560, Note_off_c, 1, 76, 64
3, 604560, Note_off_c, 1, 64, 64
3, 604680, Note_on_c, 1, 76, 80
3, 604680, Note_on_c, 1, 64, 80
3, 604800, Note_off_c, 1, 64, 64
3, 604800, Note_off_c, 1, 76, 64
3, 604920, Note_on_c, 1, 76, 80
3, 604920, Note_on_c, 1, 64, 80
3, 605040, Note_off_c, 1, 64, 64
3, 605040, Note_off_c, 1, 76, 64
3, 605160, Note_on_c, 1, 76, 64
3, 605160, Note_on_c, 1, 64, 64
3, 605280, Note_off_c, 1, 64, 64
3, 605280, Note_off_c, 1, 76, 64
3, 605400, Note_on_c, 1, 64, 67
3, 605400, Note_on_c, 1, 76, 67
3, 605520, Note_off_c, 1, 76, 64
3, 605520, Note_off_c, 1, 64, 64
3, 605640, Note_on_c, 1, 76, 70
3, 605640, Note_on_c, 1, 64, 70
3, 605760, Note_off_c, 1, 64, 64
3, 605760, Note_off_c, 1, 76, 64
3, 605880, Note_on_c, 1, 64, 74
3, 605880, Note_on_c, 1, 76, 74
3, 606000, Note_off_c, 1, 76, 64
3, 606000, Note_off_c, 1, 64, 64
3, 606120, Note_on_c, 1, 64, 77
3, 606120, Note_on_c, 1, 76, 77
3, 606240, Note_off_c, 1, 76, 64
3, 606240, Note_off_c, 1, 64, 64
3, 606360, Note_on_c, 1, 64, 80
3, 606360, Note_on_c, 1, 76, 80
3, 606480, Note_off_c, 1, 76, 64
3, 606480, Note_off_c, 1, 64, 64
3, 606600, Note_on_c, 1, 64, 83
3, 606600, Note_on_c, 1, 76, 83
3, 606720, Note_off_c, 1, 76, 64
3, 606720, Note_off_c, 1, 64, 64
3, 606840, Note_on_c, 1, 64, 86
3, 606840, Note_on_c, 1, 76, 86
3, 606960, Note_off_c, 1, 76, 64
3, 606960, Note_off_c, 1, 64, 64
3, 607080, Note_on_c, 1, 76, 90
3, 607080, Note_on_c, 1, 64, 90
3, 607200, Note_off_c, 1, 64, 64
3, 607200, Note_off_c, 1, 76, 64
3, 607320, Note_on_c, 1, 64, 93
3, 607320, Note_on_c, 1, 76, 93
3, 607440, Note_off_c, 1, 76, 64
3, 607440, Note_off_c, 1, 64, 64
3, 607560, Note_on_c, 1, 76, 96
3, 607560, Note_on_c, 1, 64, 96
3, 607680, Note_off_c, 1, 64, 64
3, 607680, Note_off_c, 1, 76, 64
3, 607800, Note_on_c, 1, 76, 99
3, 607800, Note_on_c, 1, 64, 99
3, 607920, Note_off_c, 1, 64, 64
3, 607920, Note_off_c, 1, 76, 64
3, 608040, Note_on_c, 1, 76, 102
3, 608040, Note_on_c, 1, 64, 102
3, 608160, Note_off_c, 1, 64, 64
3, 608160, Note_off_c, 1, 76, 64
3, 608280, Note_on_c, 1, 64, 106
3, 608280, Note_on_c, 1, 76, 106
3, 608400, Note_off_c, 1, 76, 64
3, 608400, Note_off_c, 1, 64, 64
3, 608520, Note_on_c, 1, 76, 109
3, 608520, Note_on_c, 1, 64, 109
3, 608640, Note_off_c, 1, 64, 64
3, 608640, Note_off_c, 1, 76, 64
3, 608760, Note_on_c, 1, 76, 112
3, 608760, Note_on_c, 1, 64, 112
3, 608880, Note_off_c, 1, 64, 64
3, 608880, Note_off_c, 1, 76, 64
3, 609000, Note_on_c, 1, 79, 90
3, 610728, Note_off_c, 1, 79, 64
3, 610920, Note_on_c, 1, 78, 120
3, 611028, Note_off_c, 1, 78, 64
3, 611160, Note_on_c, 1, 76, 120
3, 611268, Note_off_c, 1, 76, 64
3, 611400, Note_on_c, 1, 86, 120
3, 611508, Note_off_c, 1, 86, 64
3, 611640, Note_on_c, 1, 85, 120
3, 611748, Note_off_c, 1, 85, 64
3, 611880, Note_on_c, 1, 83, 120
3, 611988, Note_off_c, 1, 83, 64
3, 612120, Note_on_c, 1, 81, 120
3, 612228, Note_off_c, 1, 81, 64
3, 612360, Note_on_c, 1, 79, 120
3, 612468, Note_off_c, 1, 79, 64
3, 612600, Note_on_c, 1, 78, 120
3, 612708, Note_off_c, 1, 78, 64
3, 612840, Note_on_c, 1, 76, 80
3, 613752, Note_off_c, 1, 76, 64
3, 613800, Note_on_c, 1, 78, 80
3, 614712, Note_off_c, 1, 78, 64
3, 614760, Note_on_c, 1, 73, 80
3, 614760, Note_on_c, 1, 85, 80
3, 615672, Note_off_c, 1, 85, 64
3, 615672, Note_off_c, 1, 73, 64
3, 615720, Note_on_c, 1, 80, 80
3, 615720, Note_on_c, 1, 71, 80
3, 616632, Note_off_c, 1, 71, 64
3, 616632, Note_off_c, 1, 80, 64
3, 616680, Note_on_c, 1, 81, 80
3, 616680, Note_on_c, 1, 73, 80
3, 616800, Note_off_c, 1, 73, 64
3, 616800, Note_off_c, 1, 81, 64
3, 617640, Note_on_c, 1, 88, 76
3, 618120, Note_on_c, 1, 86, 76
3, 618120, Note_on_c, 1, 83, 76
3, 618576, Note_off_c, 1, 83, 64
3, 618576, Note_off_c, 1, 86, 64
3, 618600, Note_on_c, 1, 85, 76
3, 618600, Note_on_c, 1, 81, 76
3, 619056, Note_off_c, 1, 81, 64
3, 619056, Note_off_c, 1, 85, 64
3, 619080, Note_on_c, 1, 76, 76
3, 619080, Note_on_c, 1, 83, 76
3, 619536, Note_off_c, 1, 83, 64
3, 619536, Note_off_c, 1, 76, 64
3, 619560, Note_on_c, 1, 73, 76
3, 619560, Note_on_c, 1, 81, 76
3, 619944, Note_off_c, 1, 88, 64
3, 620016, Note_off_c, 1, 73, 64
3, 620016, Note_off_c, 1, 81, 64
3, 620040, Note_on_c, 1, 83, 76
3, 620040, Note_on_c, 1, 88, 38
3, 620040, Note_on_c, 1, 76, 76
3, 620424, Note_off_c, 1, 88, 64
3, 620496, Note_off_c, 1, 83, 64
3, 620496, Note_off_c, 1, 76, 64
3, 620520, Note_on_c, 1, 81, 80
3, 620520, Note_on_c, 1, 73, 80
3, 620640, Note_off_c, 1, 73, 64
3, 620640, Note_off_c, 1, 81, 64
3, 621480, Note_on_c, 1, 88, 76
3, 621960, Note_on_c, 1, 86, 76
3, 621960, Note_on_c, 1, 83, 76
3, 622416, Note_off_c, 1, 83, 64
3, 622416, Note_off_c, 1, 86, 64
3, 622440, Note_on_c, 1, 85, 76
3, 622440, Note_on_c, 1, 81, 76
3, 622896, Note_off_c, 1, 81, 64
3, 622896, Note_off_c, 1, 85, 64
3, 622920, Note_on_c, 1, 76, 76
3, 622920, Note_on_c, 1, 83, 76
3, 623376, Note_off_c, 1, 83, 64
3, 623376, Note_off_c, 1, 76, 64
3, 623400, Note_on_c, 1, 73, 76
3, 623400, Note_on_c, 1, 81, 76
3, 623784, Note_off_c, 1, 88, 64
3, 623856, Note_off_c, 1, 73, 64
3, 623856, Note_off_c, 1, 81, 64
3, 623880, Note_on_c, 1, 83, 76
3, 623880, Note_on_c, 1, 88, 38
3, 623880, Note_on_c, 1, 76, 76
3, 624264, Note_off_c, 1, 88, 64
3, 624336, Note_off_c, 1, 83, 64
3, 624336, Note_off_c, 1, 76, 64
3, 624360, Note_on_c, 1, 80, 102
3, 624360, Note_on_c, 1, 83, 102
3, 624480, Note_off_c, 1, 83, 64
3, 624480, Note_off_c, 1, 80, 64
3, 624600, Note_on_c, 1, 80, 102
3, 624600, Note_on_c, 1, 83, 102
3, 624720, Note_off_c, 1, 83, 64
3, 624720, Note_off_c, 1, 80, 64
3, 624840, Note_on_c, 1, 80, 102
3, 624840, Note_on_c, 1, 83, 102
3, 624960, Note_off_c, 1, 83, 64
3, 624960, Note_off_c, 1, 80, 64
3, 625080, Note_on_c, 1, 80, 102
3, 625080, Note_on_c, 1, 83, 102
3, 625200, Note_off_c, 1, 83, 64
3, 625200, Note_off_c, 1, 80, 64
3, 625320, Note_on_c, 1, 80, 102
3, 625320, Note_on_c, 1, 83, 102
3, 625440, Note_off_c, 1, 83, 64
3, 625440, Note_off_c, 1, 80, 64
3, 625560, Note_on_c, 1, 80, 102
3, 625560, Note_on_c, 1, 83, 102
3, 625680, Note_off_c, 1, 83, 64
3, 625680, Note_off_c, 1, 80, 64
3, 625800, Note_on_c, 1, 80, 102
3, 625800, Note_on_c, 1, 83, 102
3, 625920, Note_off_c, 1, 83, 64
3, 625920, Note_off_c, 1, 80, 64
3, 626040, Note_on_c, 1, 80, 102
3, 626040, Note_on_c, 1, 83, 102
3, 626160, Note_off_c, 1, 83, 64
3, 626160, Note_off_c, 1, 80, 64
3, 626280, Note_on_c, 1, 80, 102
3, 626280, Note_on_c, 1, 83, 102
3, 626400, Note_off_c, 1, 83, 64
3, 626400, Note_off_c, 1, 80, 64
3, 626520, Note_on_c, 1, 80, 102
3, 626520, Note_on_c, 1, 83, 102
3, 626640, Note_off_c, 1, 83, 64
3, 626640, Note_off_c, 1, 80, 64
3, 626760, Note_on_c, 1, 80, 102
3, 626760, Note_on_c, 1, 83, 102
3, 626880, Note_off_c, 1, 83, 64
3, 626880, Note_off_c, 1, 80, 64
3, 627000, Note_on_c, 1, 83, 102
3, 627000, Note_on_c, 1, 80, 102
3, 627120, Note_off_c, 1, 80, 64
3, 627120, Note_off_c, 1, 83, 64
3, 627240, Note_on_c, 1, 83, 102
3, 627240, Note_on_c, 1, 86, 102
3, 627360, Note_off_c, 1, 86, 64
3, 627360, Note_off_c, 1, 83, 64
3, 627480, Note_on_c, 1, 86, 102
3, 627480, Note_on_c, 1, 83, 102
3, 627600, Note_off_c, 1, 83, 64
3, 627600, Note_off_c, 1, 86, 64
3, 627720, Note_on_c, 1, 83, 102
3, 627720, Note_on_c, 1, 86, 102
3, 627840, Note_off_c, 1, 86, 64
3, 627840, Note_off_c, 1, 83, 64
3, 627960, Note_on_c, 1, 83, 102
3, 627960, Note_on_c, 1, 86, 102
3, 628080, Note_off_c, 1, 86, 64
3, 628080, Note_off_c, 1, 83, 64
3, 628200, Note_on_c, 1, 85, 99
3, 628200, Note_on_c, 1, 81, 99
3, 628392, Note_off_c, 1, 81, 64
3, 628392, Note_off_c, 1, 85, 64
3, 629040, Note_on_c, 1, 81, 80
3, 629040, Note_on_c, 1, 85, 80
3, 629136, Note_off_c, 1, 85, 64
3, 629136, Note_off_c, 1, 81, 64
3, 629160, Note_on_c, 1, 81, 80
3, 629160, Note_on_c, 1, 85, 80
3, 629256, Note_off_c, 1, 85, 64
3, 629256, Note_off_c, 1, 81, 64
3, 629280, Note_on_c, 1, 85, 99
3, 629280, Note_on_c, 1, 81, 99
3, 629472, Note_off_c, 1, 81, 64
3, 629472, Note_off_c, 1, 85, 64
3, 630240, Note_on_c, 1, 81, 80
3, 630240, Note_on_c, 1, 85, 80
3, 630336, Note_off_c, 1, 85, 64
3, 630336, Note_off_c, 1, 81, 64
3, 630360, Note_on_c, 1, 85, 80
3, 630360, Note_on_c, 1, 81, 80
3, 630456, Note_off_c, 1, 81, 64
3, 630456, Note_off_c, 1, 85, 64
3, 630480, Note_on_c, 1, 85, 99
3, 630480, Note_on_c, 1, 81, 99
3, 630672, Note_off_c, 1, 81, 64
3, 630672, Note_off_c, 1, 85, 64
3, 630672, End_track
4, 0, Start_track
4, 0, Title_t, "Clarinet"
4, 0, MIDI_port, 0
4, 0, Channel_prefix, 2
4, 0, Control_c, 2, 7, 90
4, 0, Control_c, 2, 10, 55
4, 0, Program_c, 2, 71
4, 0, Program_c, 2, 71
4, 0, Control_c, 2, 91, 66
4, 480, Control_c, 2, 10, 60
4, 6060, Note_on_c, 2, 64, 54
4, 6060, Note_on_c, 2, 76, 54
4, 6174, Note_off_c, 2, 76, 64
4, 6174, Note_off_c, 2, 64, 64
4, 6180, Note_on_c, 2, 64, 54
4, 6180, Note_on_c, 2, 76, 54
4, 6294, Note_off_c, 2, 76, 64
4, 6294, Note_off_c, 2, 64, 64
4, 6300, Note_on_c, 2, 76, 72
4, 6300, Note_on_c, 2, 64, 72
4, 6414, Note_off_c, 2, 64, 64
4, 6414, Note_off_c, 2, 76, 64
4, 8460, Note_on_c, 2, 71, 41
4, 8460, Note_on_c, 2, 74, 41
4, 8574, Note_off_c, 2, 74, 64
4, 8574, Note_off_c, 2, 71, 64
4, 8580, Note_on_c, 2, 71, 41
4, 8580, Note_on_c, 2, 74, 41
4, 8694, Note_off_c, 2, 74, 64
4, 8694, Note_off_c, 2, 71, 64
4, 8700, Note_on_c, 2, 74, 54
4, 8700, Note_on_c, 2, 71, 54
4, 8814, Note_off_c, 2, 71, 64
4, 8814, Note_off_c, 2, 74, 64
4, 10560, Note_on_c, 2, 68, 65
4, 10560, Note_on_c, 2, 71, 65
4, 10680, Note_off_c, 2, 71, 64
4, 10680, Note_off_c, 2, 68, 64
4, 11280, Note_on_c, 2, 71, 65
4, 11280, Note_on_c, 2, 68, 65
4, 11520, Note_off_c, 2, 68, 64
4, 11520, Note_off_c, 2, 71, 64
4, 11520, Note_on_c, 2, 73, 65
4, 11520, Note_on_c, 2, 69, 65
4, 11640, Note_off_c, 2, 69, 64
4, 11640, Note_off_c, 2, 73, 64
4, 12240, Note_on_c, 2, 73, 65
4, 12240, Note_on_c, 2, 69, 65
4, 12480, Note_off_c, 2, 69, 64
4, 12480, Note_off_c, 2, 73, 64
4, 12480, Note_on_c, 2, 68, 65
4, 12480, Note_on_c, 2, 71, 65
4, 12600, Note_off_c, 2, 71, 64
4, 12600, Note_off_c, 2, 68, 64
4, 13200, Note_on_c, 2, 68, 65
4, 13200, Note_on_c, 2, 71, 65
4, 13440, Note_off_c, 2, 71, 64
4, 13440, Note_off_c, 2, 68, 64
4, 13440, Note_on_c, 2, 73, 65
4, 13440, Note_on_c, 2, 69, 65
4, 13560, Note_off_c, 2, 69, 64
4, 13560, Note_off_c, 2, 73, 64
4, 14160, Note_on_c, 2, 69, 65
4, 14160, Note_on_c, 2, 73, 65
4, 14400, Note_off_c, 2, 73, 64
4, 14400, Note_off_c, 2, 69, 64
4, 14400, Note_on_c, 2, 68, 65
4, 14400, Note_on_c, 2, 71, 65
4, 14520, Note_off_c, 2, 71, 64
4, 14520, Note_off_c, 2, 68, 64
4, 15120, Note_on_c, 2, 68, 65
4, 15120, Note_on_c, 2, 71, 65
4, 15360, Note_off_c, 2, 71, 64
4, 15360, Note_off_c, 2, 68, 64
4, 15360, Note_on_c, 2, 73, 65
4, 15360, Note_on_c, 2, 69, 65
4, 15480, Note_off_c, 2, 69, 64
4, 15480, Note_off_c, 2, 73, 64
4, 16080, Note_on_c, 2, 69, 65
4, 16080, Note_on_c, 2, 73, 65
4, 16320, Note_off_c, 2, 73, 64
4, 16320, Note_off_c, 2, 69, 64
4, 16320, Note_on_c, 2, 68, 65
4, 16320, Note_on_c, 2, 71, 65
4, 16440, Note_off_c, 2, 71, 64
4, 16440, Note_off_c, 2, 68, 64
4, 17040, Note_on_c, 2, 68, 65
4, 17040, Note_on_c, 2, 71, 65
4, 17280, Note_off_c, 2, 71, 64
4, 17280, Note_off_c, 2, 68, 64
4, 17280, Note_on_c, 2, 69, 54
4, 17280, Note_on_c, 2, 73, 54
4, 17400, Note_off_c, 2, 73, 64
4, 17400, Note_off_c, 2, 69, 64
4, 17520, Note_on_c, 2, 81, 54
4, 17520, Note_on_c, 2, 69, 54
4, 17580, Note_off_c, 2, 69, 64
4, 17580, Note_off_c, 2, 81, 64
4, 17640, Note_on_c, 2, 69, 54
4, 17640, Note_on_c, 2, 81, 54
4, 17700, Note_off_c, 2, 81, 64
4, 17700, Note_off_c, 2, 69, 64
4, 17760, Note_on_c, 2, 81, 54
4, 17760, Note_on_c, 2, 69, 54
4, 17880, Note_off_c, 2, 69, 64
4, 17880, Note_off_c, 2, 81, 64
4, 18240, Note_on_c, 2, 68, 65
4, 18240, Note_on_c, 2, 71, 65
4, 18360, Note_off_c, 2, 71, 64
4, 18360, Note_off_c, 2, 68, 64
4, 18960, Note_on_c, 2, 71, 65
4, 18960, Note_on_c, 2, 68, 65
4, 19200, Note_off_c, 2, 68, 64
4, 19200, Note_off_c, 2, 71, 64
4, 19200, Note_on_c, 2, 73, 65
4, 19200, Note_on_c, 2, 69, 65
4, 19320, Note_off_c, 2, 69, 64
4, 19320, Note_off_c, 2, 73, 64
4, 19920, Note_on_c, 2, 73, 65
4, 19920, Note_on_c, 2, 69, 65
4, 20160, Note_off_c, 2, 69, 64
4, 20160, Note_off_c, 2, 73, 64
4, 20160, Note_on_c, 2, 68, 65
4, 20160, Note_on_c, 2, 71, 65
4, 20280, Note_off_c, 2, 71, 64
4, 20280, Note_off_c, 2, 68, 64
4, 20880, Note_on_c, 2, 68, 65
4, 20880, Note_on_c, 2, 71, 65
4, 21120, Note_off_c, 2, 71, 64
4, 21120, Note_off_c, 2, 68, 64
4, 21120, Note_on_c, 2, 73, 65
4, 21120, Note_on_c, 2, 69, 65
4, 21240, Note_off_c, 2, 69, 64
4, 21240, Note_off_c, 2, 73, 64
4, 21840, Note_on_c, 2, 69, 65
4, 21840, Note_on_c, 2, 73, 65
4, 22080, Note_off_c, 2, 73, 64
4, 22080, Note_off_c, 2, 69, 64
4, 22080, Note_on_c, 2, 68, 65
4, 22080, Note_on_c, 2, 71, 65
4, 22200, Note_off_c, 2, 71, 64
4, 22200, Note_off_c, 2, 68, 64
4, 22800, Note_on_c, 2, 68, 65
4, 22800, Note_on_c, 2, 71, 65
4, 23040, Note_off_c, 2, 71, 64
4, 23040, Note_off_c, 2, 68, 64
4, 23040, Note_on_c, 2, 73, 65
4, 23040, Note_on_c, 2, 69, 65
4, 23160, Note_off_c, 2, 69, 64
4, 23160, Note_off_c, 2, 73, 64
4, 23760, Note_on_c, 2, 69, 65
4, 23760, Note_on_c, 2, 73, 65
4, 24000, Note_off_c, 2, 73, 64
4, 24000, Note_off_c, 2, 69, 64
4, 24000, Note_on_c, 2, 68, 65
4, 24000, Note_on_c, 2, 71, 65
4, 24120, Note_off_c, 2, 71, 64
4, 24120, Note_off_c, 2, 68, 64
4, 24720, Note_on_c, 2, 68, 65
4, 24720, Note_on_c, 2, 71, 65
4, 24960, Note_off_c, 2, 71, 64
4, 24960, Note_off_c, 2, 68, 64
4, 24960, Note_on_c, 2, 73, 54
4, 24960, Note_on_c, 2, 69, 54
4, 25080, Note_off_c, 2, 69, 64
4, 25080, Note_off_c, 2, 73, 64
4, 25200, Note_on_c, 2, 81, 54
4, 25200, Note_on_c, 2, 69, 54
4, 25260, Note_off_c, 2, 69, 64
4, 25260, Note_off_c, 2, 81, 64
4, 25320, Note_on_c, 2, 81, 54
4, 25320, Note_on_c, 2, 69, 54
4, 25380, Note_off_c, 2, 69, 64
4, 25380, Note_off_c, 2, 81, 64
4, 25440, Note_on_c, 2, 69, 54
4, 25440, Note_on_c, 2, 81, 54
4, 25560, Note_off_c, 2, 81, 64
4, 25560, Note_off_c, 2, 69, 64
4, 25920, Note_on_c, 2, 69, 54
4, 25920, Note_on_c, 2, 78, 54
4, 26040, Note_off_c, 2, 78, 64
4, 26040, Note_off_c, 2, 69, 64
4, 26640, Note_on_c, 2, 78, 65
4, 26640, Note_on_c, 2, 69, 65
4, 26880, Note_off_c, 2, 78, 64
4, 26880, Note_on_c, 2, 76, 65
4, 27000, Note_off_c, 2, 69, 64
4, 27000, Note_off_c, 2, 76, 64
4, 27600, Note_on_c, 2, 76, 65
4, 27600, Note_on_c, 2, 69, 65
4, 27840, Note_off_c, 2, 76, 64
4, 27840, Note_on_c, 2, 78, 65
4, 27960, Note_off_c, 2, 69, 64
4, 27960, Note_off_c, 2, 78, 64
4, 28560, Note_on_c, 2, 69, 65
4, 28560, Note_on_c, 2, 78, 65
4, 28920, Note_off_c, 2, 78, 64
4, 28920, Note_off_c, 2, 69, 64
4, 29040, Note_on_c, 2, 77, 86
4, 29232, Note_off_c, 2, 77, 64
4, 29520, Note_on_c, 2, 73, 65
4, 29520, Note_on_c, 2, 76, 65
4, 29760, Note_off_c, 2, 76, 64
4, 29760, Note_off_c, 2, 73, 64
4, 29760, Note_on_c, 2, 69, 65
4, 29760, Note_on_c, 2, 75, 65
4, 29880, Note_off_c, 2, 75, 64
4, 29880, Note_off_c, 2, 69, 64
4, 30480, Note_on_c, 2, 74, 65
4, 30480, Note_on_c, 2, 71, 65
4, 30720, Note_off_c, 2, 71, 64
4, 30720, Note_off_c, 2, 74, 64
4, 30720, Note_on_c, 2, 73, 65
4, 30720, Note_on_c, 2, 69, 65
4, 30840, Note_off_c, 2, 69, 64
4, 30840, Note_off_c, 2, 73, 64
4, 31440, Note_on_c, 2, 69, 65
4, 31440, Note_on_c, 2, 73, 65
4, 31680, Note_off_c, 2, 73, 64
4, 31680, Note_off_c, 2, 69, 64
4, 31680, Note_on_c, 2, 68, 65
4, 31680, Note_on_c, 2, 71, 65
4, 31800, Note_off_c, 2, 71, 64
4, 31800, Note_off_c, 2, 68, 64
4, 32400, Note_on_c, 2, 68, 65
4, 32400, Note_on_c, 2, 71, 65
4, 32640, Note_off_c, 2, 71, 64
4, 32640, Note_off_c, 2, 68, 64
4, 32640, Note_on_c, 2, 73, 54
4, 32640, Note_on_c, 2, 69, 54
4, 32760, Note_off_c, 2, 69, 64
4, 32760, Note_off_c, 2, 73, 64
4, 32880, Note_on_c, 2, 81, 54
4, 32880, Note_on_c, 2, 69, 54
4, 32940, Note_off_c, 2, 69, 64
4, 32940, Note_off_c, 2, 81, 64
4, 33000, Note_on_c, 2, 81, 54
4, 33000, Note_on_c, 2, 69, 54
4, 33060, Note_off_c, 2, 69, 64
4, 33060, Note_off_c, 2, 81, 64
4, 33120, Note_on_c, 2, 81, 54
4, 33120, Note_on_c, 2, 69, 54
4, 33240, Note_off_c, 2, 69, 64
4, 33240, Note_off_c, 2, 81, 64
4, 33600, Note_on_c, 2, 69, 54
4, 33600, Note_on_c, 2, 78, 54
4, 33720, Note_off_c, 2, 78, 64
4, 33720, Note_off_c, 2, 69, 64
4, 34320, Note_on_c, 2, 78, 65
4, 34320, Note_on_c, 2, 69, 65
4, 34560, Note_off_c, 2, 78, 64
4, 34560, Note_on_c, 2, 76, 65
4, 34680, Note_off_c, 2, 69, 64
4, 34680, Note_off_c, 2, 76, 64
4, 35280, Note_on_c, 2, 76, 65
4, 35280, Note_on_c, 2, 69, 65
4, 35520, Note_off_c, 2, 76, 64
4, 35520, Note_on_c, 2, 78, 65
4, 35640, Note_off_c, 2, 69, 64
4, 35640, Note_off_c, 2, 78, 64
4, 36240, Note_on_c, 2, 69, 65
4, 36240, Note_on_c, 2, 78, 65
4, 36600, Note_off_c, 2, 78, 64
4, 36600, Note_off_c, 2, 69, 64
4, 36720, Note_on_c, 2, 77, 86
4, 36912, Note_off_c, 2, 77, 64
4, 37200, Note_on_c, 2, 73, 65
4, 37200, Note_on_c, 2, 76, 65
4, 37440, Note_off_c, 2, 76, 64
4, 37440, Note_off_c, 2, 73, 64
4, 37440, Note_on_c, 2, 69, 65
4, 37440, Note_on_c, 2, 75, 65
4, 37560, Note_off_c, 2, 75, 64
4, 37560, Note_off_c, 2, 69, 64
4, 38160, Note_on_c, 2, 74, 65
4, 38160, Note_on_c, 2, 71, 65
4, 38400, Note_off_c, 2, 71, 64
4, 38400, Note_off_c, 2, 74, 64
4, 38400, Note_on_c, 2, 73, 65
4, 38400, Note_on_c, 2, 69, 65
4, 38520, Note_off_c, 2, 69, 64
4, 38520, Note_off_c, 2, 73, 64
4, 39120, Note_on_c, 2, 69, 65
4, 39120, Note_on_c, 2, 73, 65
4, 39360, Note_off_c, 2, 73, 64
4, 39360, Note_off_c, 2, 69, 64
4, 39360, Note_on_c, 2, 68, 65
4, 39360, Note_on_c, 2, 71, 65
4, 39480, Note_off_c, 2, 71, 64
4, 39480, Note_off_c, 2, 68, 64
4, 40080, Note_on_c, 2, 68, 65
4, 40080, Note_on_c, 2, 71, 65
4, 40320, Note_off_c, 2, 71, 64
4, 40320, Note_off_c, 2, 68, 64
4, 40320, Note_on_c, 2, 73, 54
4, 40320, Note_on_c, 2, 69, 54
4, 40440, Note_off_c, 2, 69, 64
4, 40440, Note_off_c, 2, 73, 64
4, 40620, Note_on_c, 2, 81, 54
4, 40620, Note_on_c, 2, 69, 54
4, 40680, Note_off_c, 2, 69, 64
4, 40680, Note_off_c, 2, 81, 64
4, 40740, Note_on_c, 2, 69, 54
4, 40740, Note_on_c, 2, 81, 54
4, 40800, Note_off_c, 2, 81, 64
4, 40800, Note_off_c, 2, 69, 64
4, 40860, Note_on_c, 2, 81, 54
4, 40860, Note_on_c, 2, 69, 54
4, 40980, Note_off_c, 2, 69, 64
4, 40980, Note_off_c, 2, 81, 64
4, 41700, Note_on_c, 2, 81, 54
4, 41700, Note_on_c, 2, 69, 54
4, 41814, Note_off_c, 2, 69, 64
4, 41814, Note_off_c, 2, 81, 64
4, 41820, Note_on_c, 2, 81, 54
4, 41820, Note_on_c, 2, 69, 54
4, 41934, Note_off_c, 2, 69, 64
4, 41934, Note_off_c, 2, 81, 64
4, 41940, Note_on_c, 2, 81, 54
4, 41940, Note_on_c, 2, 69, 54
4, 42054, Note_off_c, 2, 69, 64
4, 42054, Note_off_c, 2, 81, 64
4, 42780, Note_on_c, 2, 68, 54
4, 42780, Note_on_c, 2, 71, 54
4, 42840, Note_off_c, 2, 71, 64
4, 42840, Note_off_c, 2, 68, 64
4, 42900, Note_on_c, 2, 68, 54
4, 42900, Note_on_c, 2, 71, 54
4, 42960, Note_off_c, 2, 71, 64
4, 42960, Note_off_c, 2, 68, 64
4, 43020, Note_on_c, 2, 71, 54
4, 43020, Note_on_c, 2, 68, 54
4, 43140, Note_off_c, 2, 68, 64
4, 43140, Note_off_c, 2, 71, 64
4, 43860, Note_on_c, 2, 68, 54
4, 43860, Note_on_c, 2, 71, 54
4, 43920, Note_off_c, 2, 71, 64
4, 43920, Note_off_c, 2, 68, 64
4, 43980, Note_on_c, 2, 71, 54
4, 43980, Note_on_c, 2, 68, 54
4, 44040, Note_off_c, 2, 68, 64
4, 44040, Note_off_c, 2, 71, 64
4, 44100, Note_on_c, 2, 68, 54
4, 44100, Note_on_c, 2, 71, 54
4, 44220, Note_off_c, 2, 71, 64
4, 44220, Note_off_c, 2, 68, 64
4, 44640, Note_on_c, 2, 69, 108
4, 44640, Note_on_c, 2, 73, 108
4, 45216, Note_off_c, 2, 73, 64
4, 45216, Note_off_c, 2, 69, 64
4, 45360, Note_on_c, 2, 71, 108
4, 45360, Note_on_c, 2, 64, 108
4, 45480, Note_off_c, 2, 64, 64
4, 45480, Note_off_c, 2, 71, 64
4, 45600, Note_on_c, 2, 69, 108
4, 45600, Note_on_c, 2, 61, 108
4, 45720, Note_off_c, 2, 61, 64
4, 45720, Note_off_c, 2, 69, 64
4, 45840, Note_on_c, 2, 69, 108
4, 45840, Note_on_c, 2, 73, 108
4, 45960, Note_off_c, 2, 73, 64
4, 45960, Note_off_c, 2, 69, 64
4, 46080, Note_on_c, 2, 64, 108
4, 46080, Note_on_c, 2, 71, 108
4, 46200, Note_off_c, 2, 71, 64
4, 46200, Note_off_c, 2, 64, 64
4, 46320, Note_on_c, 2, 61, 108
4, 46320, Note_on_c, 2, 69, 108
4, 46440, Note_off_c, 2, 69, 64
4, 46440, Note_off_c, 2, 61, 64
4, 46560, Note_on_c, 2, 71, 108
4, 46560, Note_on_c, 2, 68, 108
4, 46680, Note_off_c, 2, 68, 64
4, 46680, Note_off_c, 2, 71, 64
4, 46800, Note_on_c, 2, 69, 72
4, 46800, Note_on_c, 2, 64, 72
4, 46920, Note_off_c, 2, 64, 64
4, 46920, Note_off_c, 2, 69, 64
4, 47040, Note_on_c, 2, 68, 72
4, 47040, Note_on_c, 2, 71, 72
4, 47160, Note_off_c, 2, 71, 64
4, 47160, Note_off_c, 2, 68, 64
4, 47280, Note_on_c, 2, 74, 72
4, 47280, Note_on_c, 2, 78, 72
4, 47400, Note_off_c, 2, 78, 64
4, 47400, Note_off_c, 2, 74, 64
4, 47520, Note_on_c, 2, 76, 72
4, 47520, Note_on_c, 2, 73, 72
4, 47640, Note_off_c, 2, 73, 64
4, 47640, Note_off_c, 2, 76, 64
4, 47760, Note_on_c, 2, 74, 72
4, 47760, Note_on_c, 2, 71, 72
4, 47880, Note_off_c, 2, 71, 64
4, 47880, Note_off_c, 2, 74, 64
4, 48000, Note_on_c, 2, 69, 72
4, 48000, Note_on_c, 2, 73, 72
4, 48120, Note_off_c, 2, 73, 64
4, 48120, Note_off_c, 2, 69, 64
4, 48240, Note_on_c, 2, 71, 72
4, 48240, Note_on_c, 2, 68, 72
4, 48360, Note_off_c, 2, 68, 64
4, 48360, Note_off_c, 2, 71, 64
4, 48480, Note_on_c, 2, 73, 54
4, 48480, Note_on_c, 2, 69, 54
4, 48600, Note_off_c, 2, 69, 64
4, 48600, Note_off_c, 2, 73, 64
4, 48780, Note_on_c, 2, 69, 54
4, 48780, Note_on_c, 2, 81, 54
4, 48840, Note_off_c, 2, 81, 64
4, 48840, Note_off_c, 2, 69, 64
4, 48900, Note_on_c, 2, 81, 54
4, 48900, Note_on_c, 2, 69, 54
4, 48960, Note_off_c, 2, 69, 64
4, 48960, Note_off_c, 2, 81, 64
4, 49020, Note_on_c, 2, 81, 54
4, 49020, Note_on_c, 2, 69, 54
4, 49140, Note_off_c, 2, 69, 64
4, 49140, Note_off_c, 2, 81, 64
4, 49860, Note_on_c, 2, 69, 54
4, 49860, Note_on_c, 2, 81, 54
4, 49920, Note_off_c, 2, 81, 64
4, 49920, Note_off_c, 2, 69, 64
4, 49980, Note_on_c, 2, 81, 54
4, 49980, Note_on_c, 2, 69, 54
4, 50040, Note_off_c, 2, 69, 64
4, 50040, Note_off_c, 2, 81, 64
4, 50100, Note_on_c, 2, 81, 54
4, 50100, Note_on_c, 2, 69, 54
4, 50220, Note_off_c, 2, 69, 64
4, 50220, Note_off_c, 2, 81, 64
4, 50940, Note_on_c, 2, 68, 54
4, 50940, Note_on_c, 2, 71, 54
4, 51000, Note_off_c, 2, 71, 64
4, 51000, Note_off_c, 2, 68, 64
4, 51060, Note_on_c, 2, 71, 54
4, 51060, Note_on_c, 2, 68, 54
4, 51120, Note_off_c, 2, 68, 64
4, 51120, Note_off_c, 2, 71, 64
4, 51180, Note_on_c, 2, 68, 54
4, 51180, Note_on_c, 2, 71, 54
4, 51300, Note_off_c, 2, 71, 64
4, 51300, Note_off_c, 2, 68, 64
4, 52020, Note_on_c, 2, 68, 54
4, 52020, Note_on_c, 2, 71, 54
4, 52080, Note_off_c, 2, 71, 64
4, 52080, Note_off_c, 2, 68, 64
4, 52140, Note_on_c, 2, 71, 54
4, 52140, Note_on_c, 2, 68, 54
4, 52200, Note_off_c, 2, 68, 64
4, 52200, Note_off_c, 2, 71, 64
4, 52260, Note_on_c, 2, 68, 54
4, 52260, Note_on_c, 2, 71, 54
4, 52380, Note_off_c, 2, 71, 64
4, 52380, Note_off_c, 2, 68, 64
4, 52800, Note_on_c, 2, 69, 64
4, 52800, Note_on_c, 2, 73, 64
4, 52992, Note_off_c, 2, 73, 64
4, 52992, Note_off_c, 2, 69, 64
4, 53280, Note_on_c, 2, 69, 64
4, 53280, Note_on_c, 2, 73, 64
4, 53472, Note_off_c, 2, 73, 64
4, 53472, Note_off_c, 2, 69, 64
4, 53760, Note_on_c, 2, 69, 64
4, 53760, Note_on_c, 2, 73, 64
4, 53952, Note_off_c, 2, 73, 64
4, 53952, Note_off_c, 2, 69, 64
4, 54240, Note_on_c, 2, 69, 64
4, 54240, Note_on_c, 2, 73, 64
4, 54432, Note_off_c, 2, 73, 64
4, 54432, Note_off_c, 2, 69, 64
4, 54720, Note_on_c, 2, 71, 64
4, 54720, Note_on_c, 2, 74, 64
4, 54912, Note_off_c, 2, 74, 64
4, 54912, Note_off_c, 2, 71, 64
4, 55200, Note_on_c, 2, 71, 61
4, 55200, Note_on_c, 2, 74, 61
4, 55392, Note_off_c, 2, 74, 64
4, 55392, Note_off_c, 2, 71, 64
4, 55680, Note_on_c, 2, 71, 57
4, 55680, Note_on_c, 2, 74, 57
4, 55872, Note_off_c, 2, 74, 64
4, 55872, Note_off_c, 2, 71, 64
4, 56160, Note_on_c, 2, 71, 53
4, 56160, Note_on_c, 2, 74, 53
4, 56352, Note_off_c, 2, 74, 64
4, 56352, Note_off_c, 2, 71, 64
4, 56640, Note_on_c, 2, 69, 60
4, 56640, Note_on_c, 2, 73, 60
4, 56832, Note_off_c, 2, 73, 64
4, 56832, Note_off_c, 2, 69, 64
4, 65280, Note_on_c, 2, 61, 58
4, 65280, Note_on_c, 2, 73, 58
4, 68386, Note_off_c, 2, 73, 64
4, 68386, Note_off_c, 2, 61, 64
4, 69120, Note_on_c, 2, 61, 58
4, 69120, Note_on_c, 2, 73, 58
4, 71520, Note_off_c, 2, 73, 64
4, 71520, Note_off_c, 2, 61, 64
4, 71520, Note_on_c, 2, 68, 96
4, 71520, Note_on_c, 2, 73, 96
4, 72000, Note_off_c, 2, 68, 64
4, 72000, Note_on_c, 2, 69, 58
4, 72240, Note_off_c, 2, 73, 64
4, 72240, Note_off_c, 2, 69, 64
4, 72480, Note_on_c, 2, 69, 80
4, 72480, Note_on_c, 2, 66, 80
4, 72624, Note_off_c, 2, 66, 64
4, 72624, Note_off_c, 2, 69, 64
4, 72960, Note_on_c, 2, 66, 80
4, 72960, Note_on_c, 2, 69, 80
4, 73104, Note_off_c, 2, 69, 64
4, 73104, Note_off_c, 2, 66, 64
4, 73440, Note_on_c, 2, 69, 80
4, 73440, Note_on_c, 2, 66, 80
4, 73584, Note_off_c, 2, 66, 64
4, 73584, Note_off_c, 2, 69, 64
4, 73920, Note_on_c, 2, 68, 80
4, 73920, Note_on_c, 2, 71, 80
4, 74064, Note_off_c, 2, 71, 64
4, 74064, Note_off_c, 2, 68, 64
4, 74400, Note_on_c, 2, 68, 80
4, 74400, Note_on_c, 2, 71, 80
4, 74544, Note_off_c, 2, 71, 64
4, 74544, Note_off_c, 2, 68, 64
4, 74880, Note_on_c, 2, 68, 80
4, 74880, Note_on_c, 2, 71, 80
4, 75024, Note_off_c, 2, 71, 64
4, 75024, Note_off_c, 2, 68, 64
4, 75360, Note_on_c, 2, 68, 80
4, 75360, Note_on_c, 2, 71, 80
4, 75504, Note_off_c, 2, 71, 64
4, 75504, Note_off_c, 2, 68, 64
4, 75840, Note_on_c, 2, 66, 80
4, 75840, Note_on_c, 2, 69, 80
4, 75984, Note_off_c, 2, 69, 64
4, 75984, Note_off_c, 2, 66, 64
4, 76320, Note_on_c, 2, 66, 80
4, 76320, Note_on_c, 2, 69, 80
4, 76464, Note_off_c, 2, 69, 64
4, 76464, Note_off_c, 2, 66, 64
4, 76800, Note_on_c, 2, 66, 80
4, 76800, Note_on_c, 2, 70, 80
4, 76944, Note_off_c, 2, 70, 64
4, 76944, Note_off_c, 2, 66, 64
4, 77280, Note_on_c, 2, 66, 80
4, 77280, Note_on_c, 2, 70, 80
4, 77424, Note_off_c, 2, 70, 64
4, 77424, Note_off_c, 2, 66, 64
4, 77760, Note_on_c, 2, 66, 80
4, 77760, Note_on_c, 2, 72, 80
4, 77904, Note_off_c, 2, 72, 64
4, 77904, Note_off_c, 2, 66, 64
4, 78240, Note_on_c, 2, 66, 80
4, 78240, Note_on_c, 2, 72, 80
4, 78384, Note_off_c, 2, 72, 64
4, 78384, Note_off_c, 2, 66, 64
4, 78720, Note_on_c, 2, 66, 80
4, 78720, Note_on_c, 2, 73, 80
4, 78864, Note_off_c, 2, 73, 64
4, 78864, Note_off_c, 2, 66, 64
4, 79200, Note_on_c, 2, 66, 80
4, 79200, Note_on_c, 2, 73, 80
4, 79344, Note_off_c, 2, 73, 64
4, 79344, Note_off_c, 2, 66, 64
4, 79680, Note_on_c, 2, 66, 80
4, 79680, Note_on_c, 2, 75, 80
4, 79824, Note_off_c, 2, 75, 64
4, 79824, Note_off_c, 2, 66, 64
4, 80160, Note_on_c, 2, 75, 80
4, 80160, Note_on_c, 2, 72, 80
4, 80304, Note_off_c, 2, 72, 64
4, 80304, Note_off_c, 2, 75, 64
4, 80640, Note_on_c, 2, 72, 80
4, 80640, Note_on_c, 2, 75, 80
4, 80784, Note_off_c, 2, 75, 64
4, 80784, Note_off_c, 2, 72, 64
4, 81120, Note_on_c, 2, 75, 80
4, 81120, Note_on_c, 2, 72, 80
4, 81264, Note_off_c, 2, 72, 64
4, 81264, Note_off_c, 2, 75, 64
4, 81600, Note_on_c, 2, 75, 80
4, 81600, Note_on_c, 2, 72, 80
4, 81744, Note_off_c, 2, 72, 64
4, 81744, Note_off_c, 2, 75, 64
4, 82080, Note_on_c, 2, 75, 80
4, 82080, Note_on_c, 2, 66, 80
4, 82224, Note_off_c, 2, 66, 64
4, 82224, Note_off_c, 2, 75, 64
4, 85920, Note_on_c, 2, 75, 80
4, 85920, Note_on_c, 2, 66, 80
4, 86064, Note_off_c, 2, 66, 64
4, 86064, Note_off_c, 2, 75, 64
4, 93600, Note_on_c, 2, 68, 80
4, 93984, Note_off_c, 2, 68, 64
4, 94560, Note_on_c, 2, 68, 80
4, 94944, Note_off_c, 2, 68, 64
4, 95520, Note_on_c, 2, 68, 80
4, 95904, Note_off_c, 2, 68, 64
4, 96480, Note_on_c, 2, 68, 80
4, 96864, Note_off_c, 2, 68, 64
4, 97920, Note_on_c, 2, 67, 35
4, 97920, Note_on_c, 2, 64, 35
4, 98304, Note_off_c, 2, 64, 64
4, 98304, Note_off_c, 2, 67, 64
4, 98400, Note_on_c, 2, 64, 35
4, 98400, Note_on_c, 2, 67, 35
4, 98784, Note_off_c, 2, 67, 64
4, 98784, Note_off_c, 2, 64, 64
4, 98880, Note_on_c, 2, 66, 35
4, 98880, Note_on_c, 2, 62, 35
4, 99264, Note_off_c, 2, 62, 64
4, 99264, Note_off_c, 2, 66, 64
4, 99360, Note_on_c, 2, 62, 35
4, 99360, Note_on_c, 2, 66, 35
4, 99744, Note_off_c, 2, 66, 64
4, 99744, Note_off_c, 2, 62, 64
4, 99840, Note_on_c, 2, 67, 35
4, 99840, Note_on_c, 2, 64, 35
4, 100224, Note_off_c, 2, 64, 64
4, 100224, Note_off_c, 2, 67, 64
4, 100320, Note_on_c, 2, 64, 35
4, 100320, Note_on_c, 2, 67, 35
4, 100704, Note_off_c, 2, 67, 64
4, 100704, Note_off_c, 2, 64, 64
4, 100800, Note_on_c, 2, 62, 35
4, 100800, Note_on_c, 2, 66, 35
4, 101184, Note_off_c, 2, 66, 64
4, 101184, Note_off_c, 2, 62, 64
4, 101280, Note_on_c, 2, 62, 35
4, 101280, Note_on_c, 2, 66, 35
4, 101664, Note_off_c, 2, 66, 64
4, 101664, Note_off_c, 2, 62, 64
4, 103200, Note_on_c, 2, 68, 80
4, 103584, Note_off_c, 2, 68, 64
4, 104160, Note_on_c, 2, 68, 80
4, 104544, Note_off_c, 2, 68, 64
4, 105120, Note_on_c, 2, 68, 80
4, 105504, Note_off_c, 2, 68, 64
4, 106080, Note_on_c, 2, 68, 80
4, 106464, Note_off_c, 2, 68, 64
4, 107520, Note_on_c, 2, 67, 35
4, 107520, Note_on_c, 2, 64, 35
4, 107904, Note_off_c, 2, 64, 64
4, 107904, Note_off_c, 2, 67, 64
4, 108000, Note_on_c, 2, 64, 35
4, 108000, Note_on_c, 2, 67, 35
4, 108384, Note_off_c, 2, 67, 64
4, 108384, Note_off_c, 2, 64, 64
4, 108480, Note_on_c, 2, 66, 35
4, 108480, Note_on_c, 2, 62, 35
4, 108864, Note_off_c, 2, 62, 64
4, 108864, Note_off_c, 2, 66, 64
4, 108960, Note_on_c, 2, 62, 35
4, 108960, Note_on_c, 2, 66, 35
4, 109344, Note_off_c, 2, 66, 64
4, 109344, Note_off_c, 2, 62, 64
4, 109440, Note_on_c, 2, 67, 35
4, 109440, Note_on_c, 2, 64, 35
4, 109824, Note_off_c, 2, 64, 64
4, 109824, Note_off_c, 2, 67, 64
4, 109920, Note_on_c, 2, 64, 35
4, 109920, Note_on_c, 2, 67, 35
4, 110304, Note_off_c, 2, 67, 64
4, 110304, Note_off_c, 2, 64, 64
4, 110400, Note_on_c, 2, 67, 35
4, 110400, Note_on_c, 2, 64, 35
4, 110784, Note_off_c, 2, 64, 64
4, 110784, Note_off_c, 2, 67, 64
4, 110880, Note_on_c, 2, 64, 26
4, 110880, Note_on_c, 2, 67, 26
4, 115200, Note_off_c, 2, 67, 64
4, 115200, Note_off_c, 2, 64, 64
4, 115200, Note_on_c, 2, 66, 29
4, 115200, Note_on_c, 2, 62, 29
4, 116160, Note_off_c, 2, 62, 64
4, 116160, Note_off_c, 2, 66, 64
4, 116160, Note_on_c, 2, 67, 35
4, 116160, Note_on_c, 2, 64, 35
4, 120960, Note_off_c, 2, 64, 64
4, 120960, Note_off_c, 2, 67, 64
4, 120960, Note_on_c, 2, 62, 47
4, 120960, Note_on_c, 2, 66, 47
4, 121824, Note_off_c, 2, 66, 64
4, 121824, Note_off_c, 2, 62, 64
4, 121920, Note_on_c, 2, 66, 99
4, 121920, Note_on_c, 2, 69, 99
4, 122040, Note_off_c, 2, 69, 64
4, 122040, Note_off_c, 2, 66, 64
4, 122160, Note_on_c, 2, 66, 99
4, 122160, Note_on_c, 2, 69, 99
4, 122280, Note_off_c, 2, 69, 64
4, 122280, Note_off_c, 2, 66, 64
4, 122400, Note_on_c, 2, 69, 99
4, 122400, Note_on_c, 2, 66, 99
4, 122520, Note_off_c, 2, 66, 64
4, 122520, Note_off_c, 2, 69, 64
4, 122640, Note_on_c, 2, 66, 99
4, 122640, Note_on_c, 2, 69, 99
4, 122760, Note_off_c, 2, 69, 64
4, 122760, Note_off_c, 2, 66, 64
4, 122880, Note_on_c, 2, 69, 99
4, 122880, Note_on_c, 2, 66, 99
4, 123000, Note_off_c, 2, 66, 64
4, 123000, Note_off_c, 2, 69, 64
4, 123120, Note_on_c, 2, 69, 99
4, 123120, Note_on_c, 2, 66, 99
4, 123240, Note_off_c, 2, 66, 64
4, 123240, Note_off_c, 2, 69, 64
4, 123360, Note_on_c, 2, 69, 99
4, 123360, Note_on_c, 2, 66, 99
4, 123480, Note_off_c, 2, 66, 64
4, 123480, Note_off_c, 2, 69, 64
4, 123600, Note_on_c, 2, 66, 99
4, 123600, Note_on_c, 2, 69, 99
4, 123720, Note_off_c, 2, 69, 64
4, 123720, Note_off_c, 2, 66, 64
4, 123840, Note_on_c, 2, 64, 127
4, 123840, Note_on_c, 2, 68, 127
4, 123960, Note_off_c, 2, 68, 64
4, 123960, Note_off_c, 2, 64, 64
4, 124080, Note_on_c, 2, 68, 99
4, 124080, Note_on_c, 2, 64, 99
4, 124200, Note_off_c, 2, 64, 64
4, 124200, Note_off_c, 2, 68, 64
4, 124320, Note_on_c, 2, 64, 99
4, 124320, Note_on_c, 2, 68, 99
4, 124440, Note_off_c, 2, 68, 64
4, 124440, Note_off_c, 2, 64, 64
4, 124560, Note_on_c, 2, 64, 99
4, 124560, Note_on_c, 2, 68, 99
4, 124680, Note_off_c, 2, 68, 64
4, 124680, Note_off_c, 2, 64, 64
4, 124800, Note_on_c, 2, 66, 127
4, 124800, Note_on_c, 2, 69, 127
4, 124920, Note_off_c, 2, 69, 64
4, 124920, Note_off_c, 2, 66, 64
4, 125040, Note_on_c, 2, 69, 99
4, 125040, Note_on_c, 2, 66, 99
4, 125160, Note_off_c, 2, 66, 64
4, 125160, Note_off_c, 2, 69, 64
4, 125280, Note_on_c, 2, 69, 99
4, 125280, Note_on_c, 2, 66, 99
4, 125400, Note_off_c, 2, 66, 64
4, 125400, Note_off_c, 2, 69, 64
4, 125520, Note_on_c, 2, 69, 99
4, 125520, Note_on_c, 2, 66, 99
4, 125640, Note_off_c, 2, 66, 64
4, 125640, Note_off_c, 2, 69, 64
4, 125760, Note_on_c, 2, 68, 127
4, 125760, Note_on_c, 2, 64, 127
4, 125880, Note_off_c, 2, 64, 64
4, 125880, Note_off_c, 2, 68, 64
4, 126000, Note_on_c, 2, 68, 99
4, 126000, Note_on_c, 2, 64, 99
4, 126120, Note_off_c, 2, 64, 64
4, 126120, Note_off_c, 2, 68, 64
4, 126240, Note_on_c, 2, 64, 99
4, 126240, Note_on_c, 2, 68, 99
4, 126360, Note_off_c, 2, 68, 64
4, 126360, Note_off_c, 2, 64, 64
4, 126480, Note_on_c, 2, 64, 99
4, 126480, Note_on_c, 2, 68, 99
4, 126600, Note_off_c, 2, 68, 64
4, 126600, Note_off_c, 2, 64, 64
4, 126720, Note_on_c, 2, 69, 127
4, 126720, Note_on_c, 2, 66, 127
4, 126840, Note_off_c, 2, 66, 64
4, 126840, Note_off_c, 2, 69, 64
4, 126960, Note_on_c, 2, 66, 99
4, 126960, Note_on_c, 2, 69, 99
4, 127080, Note_off_c, 2, 69, 64
4, 127080, Note_off_c, 2, 66, 64
4, 127200, Note_on_c, 2, 69, 99
4, 127200, Note_on_c, 2, 66, 99
4, 127320, Note_off_c, 2, 66, 64
4, 127320, Note_off_c, 2, 69, 64
4, 127440, Note_on_c, 2, 69, 99
4, 127440, Note_on_c, 2, 66, 99
4, 127560, Note_off_c, 2, 66, 64
4, 127560, Note_off_c, 2, 69, 64
4, 127680, Note_on_c, 2, 68, 127
4, 127680, Note_on_c, 2, 64, 127
4, 127800, Note_off_c, 2, 64, 64
4, 127800, Note_off_c, 2, 68, 64
4, 127920, Note_on_c, 2, 68, 99
4, 127920, Note_on_c, 2, 64, 99
4, 128040, Note_off_c, 2, 64, 64
4, 128040, Note_off_c, 2, 68, 64
4, 128160, Note_on_c, 2, 64, 99
4, 128160, Note_on_c, 2, 68, 99
4, 128280, Note_off_c, 2, 68, 64
4, 128280, Note_off_c, 2, 64, 64
4, 128400, Note_on_c, 2, 64, 99
4, 128400, Note_on_c, 2, 68, 99
4, 128520, Note_off_c, 2, 68, 64
4, 128520, Note_off_c, 2, 64, 64
4, 128640, Note_on_c, 2, 69, 127
4, 128640, Note_on_c, 2, 66, 127
4, 128760, Note_off_c, 2, 66, 64
4, 128760, Note_off_c, 2, 69, 64
4, 128880, Note_on_c, 2, 66, 99
4, 128880, Note_on_c, 2, 69, 99
4, 129000, Note_off_c, 2, 69, 64
4, 129000, Note_off_c, 2, 66, 64
4, 129120, Note_on_c, 2, 66, 99
4, 129120, Note_on_c, 2, 69, 99
4, 129240, Note_off_c, 2, 69, 64
4, 129240, Note_off_c, 2, 66, 64
4, 129360, Note_on_c, 2, 69, 99
4, 129360, Note_on_c, 2, 66, 99
4, 129480, Note_off_c, 2, 66, 64
4, 129480, Note_off_c, 2, 69, 64
4, 129600, Note_on_c, 2, 68, 127
4, 129600, Note_on_c, 2, 64, 127
4, 129720, Note_off_c, 2, 64, 64
4, 129720, Note_off_c, 2, 68, 64
4, 129840, Note_on_c, 2, 68, 99
4, 129840, Note_on_c, 2, 64, 99
4, 129960, Note_off_c, 2, 64, 64
4, 129960, Note_off_c, 2, 68, 64
4, 130080, Note_on_c, 2, 64, 99
4, 130080, Note_on_c, 2, 68, 99
4, 130200, Note_off_c, 2, 68, 64
4, 130200, Note_off_c, 2, 64, 64
4, 130320, Note_on_c, 2, 64, 99
4, 130320, Note_on_c, 2, 68, 99
4, 130440, Note_off_c, 2, 68, 64
4, 130440, Note_off_c, 2, 64, 64
4, 130560, Note_on_c, 2, 68, 127
4, 130560, Note_on_c, 2, 66, 127
4, 130680, Note_off_c, 2, 66, 64
4, 130680, Note_off_c, 2, 68, 64
4, 130800, Note_on_c, 2, 66, 99
4, 130800, Note_on_c, 2, 68, 99
4, 130920, Note_off_c, 2, 68, 64
4, 130920, Note_off_c, 2, 66, 64
4, 131040, Note_on_c, 2, 68, 99
4, 131040, Note_on_c, 2, 66, 99
4, 131160, Note_off_c, 2, 66, 64
4, 131160, Note_off_c, 2, 68, 64
4, 131280, Note_on_c, 2, 68, 99
4, 131280, Note_on_c, 2, 66, 99
4, 131400, Note_off_c, 2, 66, 64
4, 131400, Note_off_c, 2, 68, 64
4, 131520, Note_on_c, 2, 64, 99
4, 131520, Note_on_c, 2, 68, 99
4, 131640, Note_off_c, 2, 68, 64
4, 131640, Note_off_c, 2, 64, 64
4, 131760, Note_on_c, 2, 64, 99
4, 131760, Note_on_c, 2, 68, 99
4, 131880, Note_off_c, 2, 68, 64
4, 131880, Note_off_c, 2, 64, 64
4, 132000, Note_on_c, 2, 69, 127
4, 132000, Note_on_c, 2, 66, 127
4, 132120, Note_off_c, 2, 66, 64
4, 132120, Note_off_c, 2, 69, 64
4, 132240, Note_on_c, 2, 66, 99
4, 132240, Note_on_c, 2, 69, 99
4, 132360, Note_off_c, 2, 69, 64
4, 132360, Note_off_c, 2, 66, 64
4, 132480, Note_on_c, 2, 66, 99
4, 132480, Note_on_c, 2, 69, 99
4, 132600, Note_off_c, 2, 69, 64
4, 132600, Note_off_c, 2, 66, 64
4, 132720, Note_on_c, 2, 69, 99
4, 132720, Note_on_c, 2, 66, 99
4, 132840, Note_off_c, 2, 66, 64
4, 132840, Note_off_c, 2, 69, 64
4, 132960, Note_on_c, 2, 69, 99
4, 132960, Note_on_c, 2, 66, 99
4, 133080, Note_off_c, 2, 66, 64
4, 133080, Note_off_c, 2, 69, 64
4, 133200, Note_on_c, 2, 69, 99
4, 133200, Note_on_c, 2, 66, 99
4, 133320, Note_off_c, 2, 66, 64
4, 133320, Note_off_c, 2, 69, 64
4, 133440, Note_on_c, 2, 64, 99
4, 133440, Note_on_c, 2, 68, 99
4, 133560, Note_off_c, 2, 68, 64
4, 133560, Note_off_c, 2, 64, 64
4, 133680, Note_on_c, 2, 68, 99
4, 133680, Note_on_c, 2, 64, 99
4, 133800, Note_off_c, 2, 64, 64
4, 133800, Note_off_c, 2, 68, 64
4, 133920, Note_on_c, 2, 69, 127
4, 133920, Note_on_c, 2, 66, 127
4, 134040, Note_off_c, 2, 66, 64
4, 134040, Note_off_c, 2, 69, 64
4, 134160, Note_on_c, 2, 69, 99
4, 134160, Note_on_c, 2, 66, 99
4, 134280, Note_off_c, 2, 66, 64
4, 134280, Note_off_c, 2, 69, 64
4, 134400, Note_on_c, 2, 69, 99
4, 134400, Note_on_c, 2, 66, 99
4, 134520, Note_off_c, 2, 66, 64
4, 134520, Note_off_c, 2, 69, 64
4, 134640, Note_on_c, 2, 69, 99
4, 134640, Note_on_c, 2, 66, 99
4, 134760, Note_off_c, 2, 66, 64
4, 134760, Note_off_c, 2, 69, 64
4, 134880, Note_on_c, 2, 69, 99
4, 134880, Note_on_c, 2, 66, 99
4, 135000, Note_off_c, 2, 66, 64
4, 135000, Note_off_c, 2, 69, 64
4, 135120, Note_on_c, 2, 69, 99
4, 135120, Note_on_c, 2, 66, 99
4, 135240, Note_off_c, 2, 66, 64
4, 135240, Note_off_c, 2, 69, 64
4, 135360, Note_on_c, 2, 64, 99
4, 135360, Note_on_c, 2, 68, 99
4, 135480, Note_off_c, 2, 68, 64
4, 135480, Note_off_c, 2, 64, 64
4, 135600, Note_on_c, 2, 68, 99
4, 135600, Note_on_c, 2, 64, 99
4, 135720, Note_off_c, 2, 64, 64
4, 135720, Note_off_c, 2, 68, 64
4, 135840, Note_on_c, 2, 69, 127
4, 135840, Note_on_c, 2, 66, 127
4, 135960, Note_off_c, 2, 66, 64
4, 135960, Note_off_c, 2, 69, 64
4, 136080, Note_on_c, 2, 69, 99
4, 136080, Note_on_c, 2, 66, 99
4, 136200, Note_off_c, 2, 66, 64
4, 136200, Note_off_c, 2, 69, 64
4, 136320, Note_on_c, 2, 64, 99
4, 136320, Note_on_c, 2, 68, 99
4, 136440, Note_off_c, 2, 68, 64
4, 136440, Note_off_c, 2, 64, 64
4, 136560, Note_on_c, 2, 68, 99
4, 136560, Note_on_c, 2, 64, 99
4, 136680, Note_off_c, 2, 64, 64
4, 136680, Note_off_c, 2, 68, 64
4, 136800, Note_on_c, 2, 69, 127
4, 136800, Note_on_c, 2, 66, 127
4, 136920, Note_off_c, 2, 66, 64
4, 136920, Note_off_c, 2, 69, 64
4, 137040, Note_on_c, 2, 69, 99
4, 137040, Note_on_c, 2, 66, 99
4, 137160, Note_off_c, 2, 66, 64
4, 137160, Note_off_c, 2, 69, 64
4, 137280, Note_on_c, 2, 64, 99
4, 137280, Note_on_c, 2, 68, 99
4, 137400, Note_off_c, 2, 68, 64
4, 137400, Note_off_c, 2, 64, 64
4, 137520, Note_on_c, 2, 68, 99
4, 137520, Note_on_c, 2, 64, 99
4, 137640, Note_off_c, 2, 64, 64
4, 137640, Note_off_c, 2, 68, 64
4, 137760, Note_on_c, 2, 69, 127
4, 137760, Note_on_c, 2, 66, 127
4, 137880, Note_off_c, 2, 66, 64
4, 137880, Note_off_c, 2, 69, 64
4, 138000, Note_on_c, 2, 69, 99
4, 138000, Note_on_c, 2, 66, 99
4, 138120, Note_off_c, 2, 66, 64
4, 138120, Note_off_c, 2, 69, 64
4, 138240, Note_on_c, 2, 64, 99
4, 138240, Note_on_c, 2, 68, 99
4, 138360, Note_off_c, 2, 68, 64
4, 138360, Note_off_c, 2, 64, 64
4, 138480, Note_on_c, 2, 64, 99
4, 138480, Note_on_c, 2, 69, 99
4, 138600, Note_off_c, 2, 69, 64
4, 138600, Note_off_c, 2, 64, 64
4, 138720, Note_on_c, 2, 69, 127
4, 138720, Note_on_c, 2, 66, 127
4, 138840, Note_off_c, 2, 66, 64
4, 138840, Note_off_c, 2, 69, 64
4, 138960, Note_on_c, 2, 66, 99
4, 138960, Note_on_c, 2, 69, 99
4, 139080, Note_off_c, 2, 69, 64
4, 139080, Note_off_c, 2, 66, 64
4, 139500, Note_on_c, 2, 64, 54
4, 139500, Note_on_c, 2, 76, 54
4, 139614, Note_off_c, 2, 76, 64
4, 139614, Note_off_c, 2, 64, 64
4, 139620, Note_on_c, 2, 64, 54
4, 139620, Note_on_c, 2, 76, 54
4, 139734, Note_off_c, 2, 76, 64
4, 139734, Note_off_c, 2, 64, 64
4, 139740, Note_on_c, 2, 64, 72
4, 139740, Note_on_c, 2, 76, 72
4, 139854, Note_off_c, 2, 76, 64
4, 139854, Note_off_c, 2, 64, 64
4, 141900, Note_on_c, 2, 71, 41
4, 141900, Note_on_c, 2, 74, 41
4, 142014, Note_off_c, 2, 74, 64
4, 142014, Note_off_c, 2, 71, 64
4, 142020, Note_on_c, 2, 71, 41
4, 142020, Note_on_c, 2, 74, 41
4, 142134, Note_off_c, 2, 74, 64
4, 142134, Note_off_c, 2, 71, 64
4, 142140, Note_on_c, 2, 71, 54
4, 142140, Note_on_c, 2, 74, 54
4, 142254, Note_off_c, 2, 74, 64
4, 142254, Note_off_c, 2, 71, 64
4, 144000, Note_on_c, 2, 68, 65
4, 144000, Note_on_c, 2, 71, 65
4, 144120, Note_off_c, 2, 71, 64
4, 144120, Note_off_c, 2, 68, 64
4, 144720, Note_on_c, 2, 71, 65
4, 144720, Note_on_c, 2, 68, 65
4, 144960, Note_off_c, 2, 68, 64
4, 144960, Note_off_c, 2, 71, 64
4, 144960, Note_on_c, 2, 73, 65
4, 144960, Note_on_c, 2, 69, 65
4, 145080, Note_off_c, 2, 69, 64
4, 145080, Note_off_c, 2, 73, 64
4, 145680, Note_on_c, 2, 73, 65
4, 145680, Note_on_c, 2, 69, 65
4, 145920, Note_off_c, 2, 69, 64
4, 145920, Note_off_c, 2, 73, 64
4, 145920, Note_on_c, 2, 68, 65
4, 145920, Note_on_c, 2, 71, 65
4, 146040, Note_off_c, 2, 71, 64
4, 146040, Note_off_c, 2, 68, 64
4, 146640, Note_on_c, 2, 68, 65
4, 146640, Note_on_c, 2, 71, 65
4, 146880, Note_off_c, 2, 71, 64
4, 146880, Note_off_c, 2, 68, 64
4, 146880, Note_on_c, 2, 73, 65
4, 146880, Note_on_c, 2, 69, 65
4, 147000, Note_off_c, 2, 69, 64
4, 147000, Note_off_c, 2, 73, 64
4, 147600, Note_on_c, 2, 69, 65
4, 147600, Note_on_c, 2, 73, 65
4, 147840, Note_off_c, 2, 73, 64
4, 147840, Note_off_c, 2, 69, 64
4, 147840, Note_on_c, 2, 68, 65
4, 147840, Note_on_c, 2, 71, 65
4, 147960, Note_off_c, 2, 71, 64
4, 147960, Note_off_c, 2, 68, 64
4, 148560, Note_on_c, 2, 68, 65
4, 148560, Note_on_c, 2, 71, 65
4, 148800, Note_off_c, 2, 71, 64
4, 148800, Note_off_c, 2, 68, 64
4, 148800, Note_on_c, 2, 73, 65
4, 148800, Note_on_c, 2, 69, 65
4, 148920, Note_off_c, 2, 69, 64
4, 148920, Note_off_c, 2, 73, 64
4, 149520, Note_on_c, 2, 69, 65
4, 149520, Note_on_c, 2, 73, 65
4, 149760, Note_off_c, 2, 73, 64
4, 149760, Note_off_c, 2, 69, 64
4, 149760, Note_on_c, 2, 68, 65
4, 149760, Note_on_c, 2, 71, 65
4, 149880, Note_off_c, 2, 71, 64
4, 149880, Note_off_c, 2, 68, 64
4, 150480, Note_on_c, 2, 68, 65
4, 150480, Note_on_c, 2, 71, 65
4, 150720, Note_off_c, 2, 71, 64
4, 150720, Note_off_c, 2, 68, 64
4, 150720, Note_on_c, 2, 69, 54
4, 150720, Note_on_c, 2, 73, 54
4, 150840, Note_off_c, 2, 73, 64
4, 150840, Note_off_c, 2, 69, 64
4, 150960, Note_on_c, 2, 81, 54
4, 150960, Note_on_c, 2, 69, 54
4, 151020, Note_off_c, 2, 69, 64
4, 151020, Note_off_c, 2, 81, 64
4, 151080, Note_on_c, 2, 69, 54
4, 151080, Note_on_c, 2, 81, 54
4, 151140, Note_off_c, 2, 81, 64
4, 151140, Note_off_c, 2, 69, 64
4, 151200, Note_on_c, 2, 81, 54
4, 151200, Note_on_c, 2, 69, 54
4, 151320, Note_off_c, 2, 69, 64
4, 151320, Note_off_c, 2, 81, 64
4, 151680, Note_on_c, 2, 68, 65
4, 151680, Note_on_c, 2, 71, 65
4, 151800, Note_off_c, 2, 71, 64
4, 151800, Note_off_c, 2, 68, 64
4, 152400, Note_on_c, 2, 71, 65
4, 152400, Note_on_c, 2, 68, 65
4, 152640, Note_off_c, 2, 68, 64
4, 152640, Note_off_c, 2, 71, 64
4, 152640, Note_on_c, 2, 73, 65
4, 152640, Note_on_c, 2, 69, 65
4, 152760, Note_off_c, 2, 69, 64
4, 152760, Note_off_c, 2, 73, 64
4, 153360, Note_on_c, 2, 73, 65
4, 153360, Note_on_c, 2, 69, 65
4, 153600, Note_off_c, 2, 69, 64
4, 153600, Note_off_c, 2, 73, 64
4, 153600, Note_on_c, 2, 68, 65
4, 153600, Note_on_c, 2, 71, 65
4, 153720, Note_off_c, 2, 71, 64
4, 153720, Note_off_c, 2, 68, 64
4, 154320, Note_on_c, 2, 68, 65
4, 154320, Note_on_c, 2, 71, 65
4, 154560, Note_off_c, 2, 71, 64
4, 154560, Note_off_c, 2, 68, 64
4, 154560, Note_on_c, 2, 73, 65
4, 154560, Note_on_c, 2, 69, 65
4, 154680, Note_off_c, 2, 69, 64
4, 154680, Note_off_c, 2, 73, 64
4, 155280, Note_on_c, 2, 69, 65
4, 155280, Note_on_c, 2, 73, 65
4, 155520, Note_off_c, 2, 73, 64
4, 155520, Note_off_c, 2, 69, 64
4, 155520, Note_on_c, 2, 68, 65
4, 155520, Note_on_c, 2, 71, 65
4, 155640, Note_off_c, 2, 71, 64
4, 155640, Note_off_c, 2, 68, 64
4, 156240, Note_on_c, 2, 68, 65
4, 156240, Note_on_c, 2, 71, 65
4, 156480, Note_off_c, 2, 71, 64
4, 156480, Note_off_c, 2, 68, 64
4, 156480, Note_on_c, 2, 73, 65
4, 156480, Note_on_c, 2, 69, 65
4, 156600, Note_off_c, 2, 69, 64
4, 156600, Note_off_c, 2, 73, 64
4, 157200, Note_on_c, 2, 69, 65
4, 157200, Note_on_c, 2, 73, 65
4, 157440, Note_off_c, 2, 73, 64
4, 157440, Note_off_c, 2, 69, 64
4, 157440, Note_on_c, 2, 68, 65
4, 157440, Note_on_c, 2, 71, 65
4, 157560, Note_off_c, 2, 71, 64
4, 157560, Note_off_c, 2, 68, 64
4, 158160, Note_on_c, 2, 68, 65
4, 158160, Note_on_c, 2, 71, 65
4, 158400, Note_off_c, 2, 71, 64
4, 158400, Note_off_c, 2, 68, 64
4, 158400, Note_on_c, 2, 73, 54
4, 158400, Note_on_c, 2, 69, 54
4, 158520, Note_off_c, 2, 69, 64
4, 158520, Note_off_c, 2, 73, 64
4, 158640, Note_on_c, 2, 81, 54
4, 158640, Note_on_c, 2, 69, 54
4, 158700, Note_off_c, 2, 69, 64
4, 158700, Note_off_c, 2, 81, 64
4, 158760, Note_on_c, 2, 81, 54
4, 158760, Note_on_c, 2, 69, 54
4, 158820, Note_off_c, 2, 69, 64
4, 158820, Note_off_c, 2, 81, 64
4, 158880, Note_on_c, 2, 69, 54
4, 158880, Note_on_c, 2, 81, 54
4, 159000, Note_off_c, 2, 81, 64
4, 159000, Note_off_c, 2, 69, 64
4, 159360, Note_on_c, 2, 69, 54
4, 159360, Note_on_c, 2, 78, 54
4, 159480, Note_off_c, 2, 78, 64
4, 159480, Note_off_c, 2, 69, 64
4, 160080, Note_on_c, 2, 78, 65
4, 160080, Note_on_c, 2, 69, 65
4, 160320, Note_off_c, 2, 78, 64
4, 160320, Note_on_c, 2, 76, 65
4, 160440, Note_off_c, 2, 69, 64
4, 160440, Note_off_c, 2, 76, 64
4, 161040, Note_on_c, 2, 76, 65
4, 161040, Note_on_c, 2, 69, 65
4, 161280, Note_off_c, 2, 76, 64
4, 161280, Note_on_c, 2, 78, 65
4, 161400, Note_off_c, 2, 69, 64
4, 161400, Note_off_c, 2, 78, 64
4, 162000, Note_on_c, 2, 69, 65
4, 162000, Note_on_c, 2, 78, 65
4, 162360, Note_off_c, 2, 78, 64
4, 162360, Note_off_c, 2, 69, 64
4, 162480, Note_on_c, 2, 77, 86
4, 162672, Note_off_c, 2, 77, 64
4, 162960, Note_on_c, 2, 73, 65
4, 162960, Note_on_c, 2, 76, 65
4, 163200, Note_off_c, 2, 76, 64
4, 163200, Note_off_c, 2, 73, 64
4, 163200, Note_on_c, 2, 69, 65
4, 163200, Note_on_c, 2, 75, 65
4, 163320, Note_off_c, 2, 75, 64
4, 163320, Note_off_c, 2, 69, 64
4, 163920, Note_on_c, 2, 74, 65
4, 163920, Note_on_c, 2, 71, 65
4, 164160, Note_off_c, 2, 71, 64
4, 164160, Note_off_c, 2, 74, 64
4, 164160, Note_on_c, 2, 73, 65
4, 164160, Note_on_c, 2, 69, 65
4, 164280, Note_off_c, 2, 69, 64
4, 164280, Note_off_c, 2, 73, 64
4, 164880, Note_on_c, 2, 69, 65
4, 164880, Note_on_c, 2, 73, 65
4, 165120, Note_off_c, 2, 73, 64
4, 165120, Note_off_c, 2, 69, 64
4, 165120, Note_on_c, 2, 68, 65
4, 165120, Note_on_c, 2, 71, 65
4, 165240, Note_off_c, 2, 71, 64
4, 165240, Note_off_c, 2, 68, 64
4, 165840, Note_on_c, 2, 68, 65
4, 165840, Note_on_c, 2, 71, 65
4, 166080, Note_off_c, 2, 71, 64
4, 166080, Note_off_c, 2, 68, 64
4, 166080, Note_on_c, 2, 73, 54
4, 166080, Note_on_c, 2, 69, 54
4, 166200, Note_off_c, 2, 69, 64
4, 166200, Note_off_c, 2, 73, 64
4, 166320, Note_on_c, 2, 81, 54
4, 166320, Note_on_c, 2, 69, 54
4, 166380, Note_off_c, 2, 69, 64
4, 166380, Note_off_c, 2, 81, 64
4, 166440, Note_on_c, 2, 81, 54
4, 166440, Note_on_c, 2, 69, 54
4, 166500, Note_off_c, 2, 69, 64
4, 166500, Note_off_c, 2, 81, 64
4, 166560, Note_on_c, 2, 81, 54
4, 166560, Note_on_c, 2, 69, 54
4, 166680, Note_off_c, 2, 69, 64
4, 166680, Note_off_c, 2, 81, 64
4, 167040, Note_on_c, 2, 69, 54
4, 167040, Note_on_c, 2, 78, 54
4, 167160, Note_off_c, 2, 78, 64
4, 167160, Note_off_c, 2, 69, 64
4, 167760, Note_on_c, 2, 78, 65
4, 167760, Note_on_c, 2, 69, 65
4, 168000, Note_off_c, 2, 78, 64
4, 168000, Note_on_c, 2, 76, 65
4, 168120, Note_off_c, 2, 69, 64
4, 168120, Note_off_c, 2, 76, 64
4, 168720, Note_on_c, 2, 76, 65
4, 168720, Note_on_c, 2, 69, 65
4, 168960, Note_off_c, 2, 76, 64
4, 168960, Note_on_c, 2, 78, 65
4, 169080, Note_off_c, 2, 69, 64
4, 169080, Note_off_c, 2, 78, 64
4, 169680, Note_on_c, 2, 69, 65
4, 169680, Note_on_c, 2, 78, 65
4, 170040, Note_off_c, 2, 78, 64
4, 170040, Note_off_c, 2, 69, 64
4, 170160, Note_on_c, 2, 77, 86
4, 170352, Note_off_c, 2, 77, 64
4, 170640, Note_on_c, 2, 73, 65
4, 170640, Note_on_c, 2, 76, 65
4, 170880, Note_off_c, 2, 76, 64
4, 170880, Note_off_c, 2, 73, 64
4, 170880, Note_on_c, 2, 69, 65
4, 170880, Note_on_c, 2, 75, 65
4, 171000, Note_off_c, 2, 75, 64
4, 171000, Note_off_c, 2, 69, 64
4, 171600, Note_on_c, 2, 74, 65
4, 171600, Note_on_c, 2, 71, 65
4, 171840, Note_off_c, 2, 71, 64
4, 171840, Note_off_c, 2, 74, 64
4, 171840, Note_on_c, 2, 73, 65
4, 171840, Note_on_c, 2, 69, 65
4, 171960, Note_off_c, 2, 69, 64
4, 171960, Note_off_c, 2, 73, 64
4, 172560, Note_on_c, 2, 69, 65
4, 172560, Note_on_c, 2, 73, 65
4, 172800, Note_off_c, 2, 73, 64
4, 172800, Note_off_c, 2, 69, 64
4, 172800, Note_on_c, 2, 68, 65
4, 172800, Note_on_c, 2, 71, 65
4, 172920, Note_off_c, 2, 71, 64
4, 172920, Note_off_c, 2, 68, 64
4, 173520, Note_on_c, 2, 68, 65
4, 173520, Note_on_c, 2, 71, 65
4, 173760, Note_off_c, 2, 71, 64
4, 173760, Note_off_c, 2, 68, 64
4, 173760, Note_on_c, 2, 73, 54
4, 173760, Note_on_c, 2, 69, 54
4, 173880, Note_off_c, 2, 69, 64
4, 173880, Note_off_c, 2, 73, 64
4, 174060, Note_on_c, 2, 81, 54
4, 174060, Note_on_c, 2, 69, 54
4, 174120, Note_off_c, 2, 69, 64
4, 174120, Note_off_c, 2, 81, 64
4, 174180, Note_on_c, 2, 69, 54
4, 174180, Note_on_c, 2, 81, 54
4, 174240, Note_off_c, 2, 81, 64
4, 174240, Note_off_c, 2, 69, 64
4, 174300, Note_on_c, 2, 81, 54
4, 174300, Note_on_c, 2, 69, 54
4, 174420, Note_off_c, 2, 69, 64
4, 174420, Note_off_c, 2, 81, 64
4, 175140, Note_on_c, 2, 81, 54
4, 175140, Note_on_c, 2, 69, 54
4, 175254, Note_off_c, 2, 69, 64
4, 175254, Note_off_c, 2, 81, 64
4, 175260, Note_on_c, 2, 81, 54
4, 175260, Note_on_c, 2, 69, 54
4, 175374, Note_off_c, 2, 69, 64
4, 175374, Note_off_c, 2, 81, 64
4, 175380, Note_on_c, 2, 81, 54
4, 175380, Note_on_c, 2, 69, 54
4, 175494, Note_off_c, 2, 69, 64
4, 175494, Note_off_c, 2, 81, 64
4, 176220, Note_on_c, 2, 68, 54
4, 176220, Note_on_c, 2, 71, 54
4, 176280, Note_off_c, 2, 71, 64
4, 176280, Note_off_c, 2, 68, 64
4, 176340, Note_on_c, 2, 68, 54
4, 176340, Note_on_c, 2, 71, 54
4, 176400, Note_off_c, 2, 71, 64
4, 176400, Note_off_c, 2, 68, 64
4, 176460, Note_on_c, 2, 71, 54
4, 176460, Note_on_c, 2, 68, 54
4, 176580, Note_off_c, 2, 68, 64
4, 176580, Note_off_c, 2, 71, 64
4, 177300, Note_on_c, 2, 68, 54
4, 177300, Note_on_c, 2, 71, 54
4, 177360, Note_off_c, 2, 71, 64
4, 177360, Note_off_c, 2, 68, 64
4, 177420, Note_on_c, 2, 71, 54
4, 177420, Note_on_c, 2, 68, 54
4, 177480, Note_off_c, 2, 68, 64
4, 177480, Note_off_c, 2, 71, 64
4, 177540, Note_on_c, 2, 68, 54
4, 177540, Note_on_c, 2, 71, 54
4, 177660, Note_off_c, 2, 71, 64
4, 177660, Note_off_c, 2, 68, 64
4, 178080, Note_on_c, 2, 69, 108
4, 178080, Note_on_c, 2, 73, 108
4, 178656, Note_off_c, 2, 73, 64
4, 178656, Note_off_c, 2, 69, 64
4, 178800, Note_on_c, 2, 71, 108
4, 178800, Note_on_c, 2, 64, 108
4, 178920, Note_off_c, 2, 64, 64
4, 178920, Note_off_c, 2, 71, 64
4, 179040, Note_on_c, 2, 69, 108
4, 179040, Note_on_c, 2, 61, 108
4, 179160, Note_off_c, 2, 61, 64
4, 179160, Note_off_c, 2, 69, 64
4, 179280, Note_on_c, 2, 69, 108
4, 179280, Note_on_c, 2, 73, 108
4, 179400, Note_off_c, 2, 73, 64
4, 179400, Note_off_c, 2, 69, 64
4, 179520, Note_on_c, 2, 64, 108
4, 179520, Note_on_c, 2, 71, 108
4, 179640, Note_off_c, 2, 71, 64
4, 179640, Note_off_c, 2, 64, 64
4, 179760, Note_on_c, 2, 61, 108
4, 179760, Note_on_c, 2, 69, 108
4, 179880, Note_off_c, 2, 69, 64
4, 179880, Note_off_c, 2, 61, 64
4, 180000, Note_on_c, 2, 71, 108
4, 180000, Note_on_c, 2, 68, 108
4, 180120, Note_off_c, 2, 68, 64
4, 180120, Note_off_c, 2, 71, 64
4, 180240, Note_on_c, 2, 69, 72
4, 180240, Note_on_c, 2, 64, 72
4, 180360, Note_off_c, 2, 64, 64
4, 180360, Note_off_c, 2, 69, 64
4, 180480, Note_on_c, 2, 68, 72
4, 180480, Note_on_c, 2, 71, 72
4, 180600, Note_off_c, 2, 71, 64
4, 180600, Note_off_c, 2, 68, 64
4, 180720, Note_on_c, 2, 74, 72
4, 180720, Note_on_c, 2, 78, 72
4, 180840, Note_off_c, 2, 78, 64
4, 180840, Note_off_c, 2, 74, 64
4, 180960, Note_on_c, 2, 76, 72
4, 180960, Note_on_c, 2, 73, 72
4, 181080, Note_off_c, 2, 73, 64
4, 181080, Note_off_c, 2, 76, 64
4, 181200, Note_on_c, 2, 74, 72
4, 181200, Note_on_c, 2, 71, 72
4, 181320, Note_off_c, 2, 71, 64
4, 181320, Note_off_c, 2, 74, 64
4, 181440, Note_on_c, 2, 69, 72
4, 181440, Note_on_c, 2, 73, 72
4, 181560, Note_off_c, 2, 73, 64
4, 181560, Note_off_c, 2, 69, 64
4, 181680, Note_on_c, 2, 71, 72
4, 181680, Note_on_c, 2, 68, 72
4, 181800, Note_off_c, 2, 68, 64
4, 181800, Note_off_c, 2, 71, 64
4, 181920, Note_on_c, 2, 73, 54
4, 181920, Note_on_c, 2, 69, 54
4, 182040, Note_off_c, 2, 69, 64
4, 182040, Note_off_c, 2, 73, 64
4, 182220, Note_on_c, 2, 69, 54
4, 182220, Note_on_c, 2, 81, 54
4, 182280, Note_off_c, 2, 81, 64
4, 182280, Note_off_c, 2, 69, 64
4, 182340, Note_on_c, 2, 81, 54
4, 182340, Note_on_c, 2, 69, 54
4, 182400, Note_off_c, 2, 69, 64
4, 182400, Note_off_c, 2, 81, 64
4, 182460, Note_on_c, 2, 81, 54
4, 182460, Note_on_c, 2, 69, 54
4, 182580, Note_off_c, 2, 69, 64
4, 182580, Note_off_c, 2, 81, 64
4, 183300, Note_on_c, 2, 69, 54
4, 183300, Note_on_c, 2, 81, 54
4, 183360, Note_off_c, 2, 81, 64
4, 183360, Note_off_c, 2, 69, 64
4, 183420, Note_on_c, 2, 81, 54
4, 183420, Note_on_c, 2, 69, 54
4, 183480, Note_off_c, 2, 69, 64
4, 183480, Note_off_c, 2, 81, 64
4, 183540, Note_on_c, 2, 81, 54
4, 183540, Note_on_c, 2, 69, 54
4, 183660, Note_off_c, 2, 69, 64
4, 183660, Note_off_c, 2, 81, 64
4, 184380, Note_on_c, 2, 68, 54
4, 184380, Note_on_c, 2, 71, 54
4, 184440, Note_off_c, 2, 71, 64
4, 184440, Note_off_c, 2, 68, 64
4, 184500, Note_on_c, 2, 71, 54
4, 184500, Note_on_c, 2, 68, 54
4, 184560, Note_off_c, 2, 68, 64
4, 184560, Note_off_c, 2, 71, 64
4, 184620, Note_on_c, 2, 68, 54
4, 184620, Note_on_c, 2, 71, 54
4, 184740, Note_off_c, 2, 71, 64
4, 184740, Note_off_c, 2, 68, 64
4, 185460, Note_on_c, 2, 68, 54
4, 185460, Note_on_c, 2, 71, 54
4, 185520, Note_off_c, 2, 71, 64
4, 185520, Note_off_c, 2, 68, 64
4, 185580, Note_on_c, 2, 71, 54
4, 185580, Note_on_c, 2, 68, 54
4, 185640, Note_off_c, 2, 68, 64
4, 185640, Note_off_c, 2, 71, 64
4, 185700, Note_on_c, 2, 68, 54
4, 185700, Note_on_c, 2, 71, 54
4, 185820, Note_off_c, 2, 71, 64
4, 185820, Note_off_c, 2, 68, 64
4, 186240, Note_on_c, 2, 69, 64
4, 186240, Note_on_c, 2, 73, 64
4, 186432, Note_off_c, 2, 73, 64
4, 186432, Note_off_c, 2, 69, 64
4, 186720, Note_on_c, 2, 69, 64
4, 186720, Note_on_c, 2, 73, 64
4, 186912, Note_off_c, 2, 73, 64
4, 186912, Note_off_c, 2, 69, 64
4, 187200, Note_on_c, 2, 69, 64
4, 187200, Note_on_c, 2, 73, 64
4, 187392, Note_off_c, 2, 73, 64
4, 187392, Note_off_c, 2, 69, 64
4, 187680, Note_on_c, 2, 69, 64
4, 187680, Note_on_c, 2, 73, 64
4, 187872, Note_off_c, 2, 73, 64
4, 187872, Note_off_c, 2, 69, 64
4, 188160, Note_on_c, 2, 71, 64
4, 188160, Note_on_c, 2, 74, 64
4, 188352, Note_off_c, 2, 74, 64
4, 188352, Note_off_c, 2, 71, 64
4, 188640, Note_on_c, 2, 71, 61
4, 188640, Note_on_c, 2, 74, 61
4, 188832, Note_off_c, 2, 74, 64
4, 188832, Note_off_c, 2, 71, 64
4, 189120, Note_on_c, 2, 71, 57
4, 189120, Note_on_c, 2, 74, 57
4, 189312, Note_off_c, 2, 74, 64
4, 189312, Note_off_c, 2, 71, 64
4, 189600, Note_on_c, 2, 71, 53
4, 189600, Note_on_c, 2, 74, 53
4, 189792, Note_off_c, 2, 74, 64
4, 189792, Note_off_c, 2, 71, 64
4, 190080, Note_on_c, 2, 69, 60
4, 190080, Note_on_c, 2, 73, 60
4, 190272, Note_off_c, 2, 73, 64
4, 190272, Note_off_c, 2, 69, 64
4, 198720, Note_on_c, 2, 61, 58
4, 198720, Note_on_c, 2, 73, 58
4, 201826, Note_off_c, 2, 73, 64
4, 201826, Note_off_c, 2, 61, 64
4, 202560, Note_on_c, 2, 61, 58
4, 202560, Note_on_c, 2, 73, 58
4, 204960, Note_off_c, 2, 73, 64
4, 204960, Note_off_c, 2, 61, 64
4, 204960, Note_on_c, 2, 68, 96
4, 204960, Note_on_c, 2, 73, 96
4, 205440, Note_off_c, 2, 68, 64
4, 205440, Note_on_c, 2, 69, 58
4, 205680, Note_off_c, 2, 73, 64
4, 205680, Note_off_c, 2, 69, 64
4, 205920, Note_on_c, 2, 69, 80
4, 205920, Note_on_c, 2, 66, 80
4, 206064, Note_off_c, 2, 66, 64
4, 206064, Note_off_c, 2, 69, 64
4, 206400, Note_on_c, 2, 66, 80
4, 206400, Note_on_c, 2, 69, 80
4, 206544, Note_off_c, 2, 69, 64
4, 206544, Note_off_c, 2, 66, 64
4, 206880, Note_on_c, 2, 69, 80
4, 206880, Note_on_c, 2, 66, 80
4, 207024, Note_off_c, 2, 66, 64
4, 207024, Note_off_c, 2, 69, 64
4, 207360, Note_on_c, 2, 68, 80
4, 207360, Note_on_c, 2, 71, 80
4, 207504, Note_off_c, 2, 71, 64
4, 207504, Note_off_c, 2, 68, 64
4, 207840, Note_on_c, 2, 68, 80
4, 207840, Note_on_c, 2, 71, 80
4, 207984, Note_off_c, 2, 71, 64
4, 207984, Note_off_c, 2, 68, 64
4, 208320, Note_on_c, 2, 68, 80
4, 208320, Note_on_c, 2, 71, 80
4, 208464, Note_off_c, 2, 71, 64
4, 208464, Note_off_c, 2, 68, 64
4, 208800, Note_on_c, 2, 68, 80
4, 208800, Note_on_c, 2, 71, 80
4, 208944, Note_off_c, 2, 71, 64
4, 208944, Note_off_c, 2, 68, 64
4, 209280, Note_on_c, 2, 66, 80
4, 209280, Note_on_c, 2, 69, 80
4, 209424, Note_off_c, 2, 69, 64
4, 209424, Note_off_c, 2, 66, 64
4, 209760, Note_on_c, 2, 66, 80
4, 209760, Note_on_c, 2, 69, 80
4, 209904, Note_off_c, 2, 69, 64
4, 209904, Note_off_c, 2, 66, 64
4, 210240, Note_on_c, 2, 66, 80
4, 210240, Note_on_c, 2, 70, 80
4, 210384, Note_off_c, 2, 70, 64
4, 210384, Note_off_c, 2, 66, 64
4, 210720, Note_on_c, 2, 66, 80
4, 210720, Note_on_c, 2, 70, 80
4, 210864, Note_off_c, 2, 70, 64
4, 210864, Note_off_c, 2, 66, 64
4, 211200, Note_on_c, 2, 66, 80
4, 211200, Note_on_c, 2, 72, 80
4, 211344, Note_off_c, 2, 72, 64
4, 211344, Note_off_c, 2, 66, 64
4, 211680, Note_on_c, 2, 66, 80
4, 211680, Note_on_c, 2, 72, 80
4, 211824, Note_off_c, 2, 72, 64
4, 211824, Note_off_c, 2, 66, 64
4, 212160, Note_on_c, 2, 66, 80
4, 212160, Note_on_c, 2, 73, 80
4, 212304, Note_off_c, 2, 73, 64
4, 212304, Note_off_c, 2, 66, 64
4, 212640, Note_on_c, 2, 66, 80
4, 212640, Note_on_c, 2, 73, 80
4, 212784, Note_off_c, 2, 73, 64
4, 212784, Note_off_c, 2, 66, 64
4, 213120, Note_on_c, 2, 66, 80
4, 213120, Note_on_c, 2, 75, 80
4, 213264, Note_off_c, 2, 75, 64
4, 213264, Note_off_c, 2, 66, 64
4, 213600, Note_on_c, 2, 75, 80
4, 213600, Note_on_c, 2, 72, 80
4, 213744, Note_off_c, 2, 72, 64
4, 213744, Note_off_c, 2, 75, 64
4, 214080, Note_on_c, 2, 72, 80
4, 214080, Note_on_c, 2, 75, 80
4, 214224, Note_off_c, 2, 75, 64
4, 214224, Note_off_c, 2, 72, 64
4, 214560, Note_on_c, 2, 75, 80
4, 214560, Note_on_c, 2, 72, 80
4, 214704, Note_off_c, 2, 72, 64
4, 214704, Note_off_c, 2, 75, 64
4, 215040, Note_on_c, 2, 75, 80
4, 215040, Note_on_c, 2, 72, 80
4, 215184, Note_off_c, 2, 72, 64
4, 215184, Note_off_c, 2, 75, 64
4, 215520, Note_on_c, 2, 75, 80
4, 215520, Note_on_c, 2, 66, 80
4, 215664, Note_off_c, 2, 66, 64
4, 215664, Note_off_c, 2, 75, 64
4, 219360, Note_on_c, 2, 75, 80
4, 219360, Note_on_c, 2, 66, 80
4, 219504, Note_off_c, 2, 66, 64
4, 219504, Note_off_c, 2, 75, 64
4, 227040, Note_on_c, 2, 68, 80
4, 227424, Note_off_c, 2, 68, 64
4, 228000, Note_on_c, 2, 68, 80
4, 228384, Note_off_c, 2, 68, 64
4, 228960, Note_on_c, 2, 68, 80
4, 229344, Note_off_c, 2, 68, 64
4, 229920, Note_on_c, 2, 68, 80
4, 230304, Note_off_c, 2, 68, 64
4, 231360, Note_on_c, 2, 67, 35
4, 231360, Note_on_c, 2, 64, 35
4, 231744, Note_off_c, 2, 64, 64
4, 231744, Note_off_c, 2, 67, 64
4, 231840, Note_on_c, 2, 64, 35
4, 231840, Note_on_c, 2, 67, 35
4, 232224, Note_off_c, 2, 67, 64
4, 232224, Note_off_c, 2, 64, 64
4, 232320, Note_on_c, 2, 66, 35
4, 232320, Note_on_c, 2, 62, 35
4, 232704, Note_off_c, 2, 62, 64
4, 232704, Note_off_c, 2, 66, 64
4, 232800, Note_on_c, 2, 62, 35
4, 232800, Note_on_c, 2, 66, 35
4, 233184, Note_off_c, 2, 66, 64
4, 233184, Note_off_c, 2, 62, 64
4, 233280, Note_on_c, 2, 67, 35
4, 233280, Note_on_c, 2, 64, 35
4, 233664, Note_off_c, 2, 64, 64
4, 233664, Note_off_c, 2, 67, 64
4, 233760, Note_on_c, 2, 64, 35
4, 233760, Note_on_c, 2, 67, 35
4, 234144, Note_off_c, 2, 67, 64
4, 234144, Note_off_c, 2, 64, 64
4, 234240, Note_on_c, 2, 62, 35
4, 234240, Note_on_c, 2, 66, 35
4, 234624, Note_off_c, 2, 66, 64
4, 234624, Note_off_c, 2, 62, 64
4, 234720, Note_on_c, 2, 62, 35
4, 234720, Note_on_c, 2, 66, 35
4, 235104, Note_off_c, 2, 66, 64
4, 235104, Note_off_c, 2, 62, 64
4, 236640, Note_on_c, 2, 68, 80
4, 237024, Note_off_c, 2, 68, 64
4, 237600, Note_on_c, 2, 68, 80
4, 237984, Note_off_c, 2, 68, 64
4, 238560, Note_on_c, 2, 68, 80
4, 238944, Note_off_c, 2, 68, 64
4, 239520, Note_on_c, 2, 68, 80
4, 239904, Note_off_c, 2, 68, 64
4, 240960, Note_on_c, 2, 67, 35
4, 240960, Note_on_c, 2, 64, 35
4, 241344, Note_off_c, 2, 64, 64
4, 241344, Note_off_c, 2, 67, 64
4, 241440, Note_on_c, 2, 64, 35
4, 241440, Note_on_c, 2, 67, 35
4, 241824, Note_off_c, 2, 67, 64
4, 241824, Note_off_c, 2, 64, 64
4, 241920, Note_on_c, 2, 66, 35
4, 241920, Note_on_c, 2, 62, 35
4, 242304, Note_off_c, 2, 62, 64
4, 242304, Note_off_c, 2, 66, 64
4, 242400, Note_on_c, 2, 62, 35
4, 242400, Note_on_c, 2, 66, 35
4, 242784, Note_off_c, 2, 66, 64
4, 242784, Note_off_c, 2, 62, 64
4, 242880, Note_on_c, 2, 67, 35
4, 242880, Note_on_c, 2, 64, 35
4, 243264, Note_off_c, 2, 64, 64
4, 243264, Note_off_c, 2, 67, 64
4, 243360, Note_on_c, 2, 64, 35
4, 243360, Note_on_c, 2, 67, 35
4, 243744, Note_off_c, 2, 67, 64
4, 243744, Note_off_c, 2, 64, 64
4, 243840, Note_on_c, 2, 67, 35
4, 243840, Note_on_c, 2, 64, 35
4, 244224, Note_off_c, 2, 64, 64
4, 244224, Note_off_c, 2, 67, 64
4, 244320, Note_on_c, 2, 64, 26
4, 244320, Note_on_c, 2, 67, 26
4, 248640, Note_off_c, 2, 67, 64
4, 248640, Note_off_c, 2, 64, 64
4, 248640, Note_on_c, 2, 66, 29
4, 248640, Note_on_c, 2, 62, 29
4, 249600, Note_off_c, 2, 62, 64
4, 249600, Note_off_c, 2, 66, 64
4, 249600, Note_on_c, 2, 67, 35
4, 249600, Note_on_c, 2, 64, 35
4, 254400, Note_off_c, 2, 64, 64
4, 254400, Note_off_c, 2, 67, 64
4, 254400, Note_on_c, 2, 62, 47
4, 254400, Note_on_c, 2, 66, 47
4, 255264, Note_off_c, 2, 66, 64
4, 255264, Note_off_c, 2, 62, 64
4, 255360, Note_on_c, 2, 66, 99
4, 255360, Note_on_c, 2, 69, 99
4, 255480, Note_off_c, 2, 69, 64
4, 255480, Note_off_c, 2, 66, 64
4, 255600, Note_on_c, 2, 66, 99
4, 255600, Note_on_c, 2, 69, 99
4, 255720, Note_off_c, 2, 69, 64
4, 255720, Note_off_c, 2, 66, 64
4, 255840, Note_on_c, 2, 69, 99
4, 255840, Note_on_c, 2, 66, 99
4, 255960, Note_off_c, 2, 66, 64
4, 255960, Note_off_c, 2, 69, 64
4, 256080, Note_on_c, 2, 66, 99
4, 256080, Note_on_c, 2, 69, 99
4, 256200, Note_off_c, 2, 69, 64
4, 256200, Note_off_c, 2, 66, 64
4, 256320, Note_on_c, 2, 69, 99
4, 256320, Note_on_c, 2, 66, 99
4, 256440, Note_off_c, 2, 66, 64
4, 256440, Note_off_c, 2, 69, 64
4, 256560, Note_on_c, 2, 69, 99
4, 256560, Note_on_c, 2, 66, 99
4, 256680, Note_off_c, 2, 66, 64
4, 256680, Note_off_c, 2, 69, 64
4, 256800, Note_on_c, 2, 69, 99
4, 256800, Note_on_c, 2, 66, 99
4, 256920, Note_off_c, 2, 66, 64
4, 256920, Note_off_c, 2, 69, 64
4, 257040, Note_on_c, 2, 66, 99
4, 257040, Note_on_c, 2, 69, 99
4, 257160, Note_off_c, 2, 69, 64
4, 257160, Note_off_c, 2, 66, 64
4, 257280, Note_on_c, 2, 64, 127
4, 257280, Note_on_c, 2, 68, 127
4, 257400, Note_off_c, 2, 68, 64
4, 257400, Note_off_c, 2, 64, 64
4, 257520, Note_on_c, 2, 68, 99
4, 257520, Note_on_c, 2, 64, 99
4, 257640, Note_off_c, 2, 64, 64
4, 257640, Note_off_c, 2, 68, 64
4, 257760, Note_on_c, 2, 64, 99
4, 257760, Note_on_c, 2, 68, 99
4, 257880, Note_off_c, 2, 68, 64
4, 257880, Note_off_c, 2, 64, 64
4, 258000, Note_on_c, 2, 64, 99
4, 258000, Note_on_c, 2, 68, 99
4, 258120, Note_off_c, 2, 68, 64
4, 258120, Note_off_c, 2, 64, 64
4, 258240, Note_on_c, 2, 66, 127
4, 258240, Note_on_c, 2, 69, 127
4, 258360, Note_off_c, 2, 69, 64
4, 258360, Note_off_c, 2, 66, 64
4, 258480, Note_on_c, 2, 69, 99
4, 258480, Note_on_c, 2, 66, 99
4, 258600, Note_off_c, 2, 66, 64
4, 258600, Note_off_c, 2, 69, 64
4, 258720, Note_on_c, 2, 69, 99
4, 258720, Note_on_c, 2, 66, 99
4, 258840, Note_off_c, 2, 66, 64
4, 258840, Note_off_c, 2, 69, 64
4, 258960, Note_on_c, 2, 69, 99
4, 258960, Note_on_c, 2, 66, 99
4, 259080, Note_off_c, 2, 66, 64
4, 259080, Note_off_c, 2, 69, 64
4, 259200, Note_on_c, 2, 68, 127
4, 259200, Note_on_c, 2, 64, 127
4, 259320, Note_off_c, 2, 64, 64
4, 259320, Note_off_c, 2, 68, 64
4, 259440, Note_on_c, 2, 68, 99
4, 259440, Note_on_c, 2, 64, 99
4, 259560, Note_off_c, 2, 64, 64
4, 259560, Note_off_c, 2, 68, 64
4, 259680, Note_on_c, 2, 64, 99
4, 259680, Note_on_c, 2, 68, 99
4, 259800, Note_off_c, 2, 68, 64
4, 259800, Note_off_c, 2, 64, 64
4, 259920, Note_on_c, 2, 64, 99
4, 259920, Note_on_c, 2, 68, 99
4, 260040, Note_off_c, 2, 68, 64
4, 260040, Note_off_c, 2, 64, 64
4, 260160, Note_on_c, 2, 69, 127
4, 260160, Note_on_c, 2, 66, 127
4, 260280, Note_off_c, 2, 66, 64
4, 260280, Note_off_c, 2, 69, 64
4, 260400, Note_on_c, 2, 66, 99
4, 260400, Note_on_c, 2, 69, 99
4, 260520, Note_off_c, 2, 69, 64
4, 260520, Note_off_c, 2, 66, 64
4, 260640, Note_on_c, 2, 69, 99
4, 260640, Note_on_c, 2, 66, 99
4, 260760, Note_off_c, 2, 66, 64
4, 260760, Note_off_c, 2, 69, 64
4, 260880, Note_on_c, 2, 69, 99
4, 260880, Note_on_c, 2, 66, 99
4, 261000, Note_off_c, 2, 66, 64
4, 261000, Note_off_c, 2, 69, 64
4, 261120, Note_on_c, 2, 68, 127
4, 261120, Note_on_c, 2, 64, 127
4, 261240, Note_off_c, 2, 64, 64
4, 261240, Note_off_c, 2, 68, 64
4, 261360, Note_on_c, 2, 68, 99
4, 261360, Note_on_c, 2, 64, 99
4, 261480, Note_off_c, 2, 64, 64
4, 261480, Note_off_c, 2, 68, 64
4, 261600, Note_on_c, 2, 64, 99
4, 261600, Note_on_c, 2, 68, 99
4, 261720, Note_off_c, 2, 68, 64
4, 261720, Note_off_c, 2, 64, 64
4, 261840, Note_on_c, 2, 64, 99
4, 261840, Note_on_c, 2, 68, 99
4, 261960, Note_off_c, 2, 68, 64
4, 261960, Note_off_c, 2, 64, 64
4, 262080, Note_on_c, 2, 69, 127
4, 262080, Note_on_c, 2, 66, 127
4, 262200, Note_off_c, 2, 66, 64
4, 262200, Note_off_c, 2, 69, 64
4, 262320, Note_on_c, 2, 66, 99
4, 262320, Note_on_c, 2, 69, 99
4, 262440, Note_off_c, 2, 69, 64
4, 262440, Note_off_c, 2, 66, 64
4, 262560, Note_on_c, 2, 66, 99
4, 262560, Note_on_c, 2, 69, 99
4, 262680, Note_off_c, 2, 69, 64
4, 262680, Note_off_c, 2, 66, 64
4, 262800, Note_on_c, 2, 69, 99
4, 262800, Note_on_c, 2, 66, 99
4, 262920, Note_off_c, 2, 66, 64
4, 262920, Note_off_c, 2, 69, 64
4, 263040, Note_on_c, 2, 68, 127
4, 263040, Note_on_c, 2, 64, 127
4, 263160, Note_off_c, 2, 64, 64
4, 263160, Note_off_c, 2, 68, 64
4, 263280, Note_on_c, 2, 68, 99
4, 263280, Note_on_c, 2, 64, 99
4, 263400, Note_off_c, 2, 64, 64
4, 263400, Note_off_c, 2, 68, 64
4, 263520, Note_on_c, 2, 64, 99
4, 263520, Note_on_c, 2, 68, 99
4, 263640, Note_off_c, 2, 68, 64
4, 263640, Note_off_c, 2, 64, 64
4, 263760, Note_on_c, 2, 64, 99
4, 263760, Note_on_c, 2, 68, 99
4, 263880, Note_off_c, 2, 68, 64
4, 263880, Note_off_c, 2, 64, 64
4, 264000, Note_on_c, 2, 68, 127
4, 264000, Note_on_c, 2, 66, 127
4, 264120, Note_off_c, 2, 66, 64
4, 264120, Note_off_c, 2, 68, 64
4, 264240, Note_on_c, 2, 66, 99
4, 264240, Note_on_c, 2, 68, 99
4, 264360, Note_off_c, 2, 68, 64
4, 264360, Note_off_c, 2, 66, 64
4, 264480, Note_on_c, 2, 68, 99
4, 264480, Note_on_c, 2, 66, 99
4, 264600, Note_off_c, 2, 66, 64
4, 264600, Note_off_c, 2, 68, 64
4, 264720, Note_on_c, 2, 68, 99
4, 264720, Note_on_c, 2, 66, 99
4, 264840, Note_off_c, 2, 66, 64
4, 264840, Note_off_c, 2, 68, 64
4, 264960, Note_on_c, 2, 64, 99
4, 264960, Note_on_c, 2, 68, 99
4, 265080, Note_off_c, 2, 68, 64
4, 265080, Note_off_c, 2, 64, 64
4, 265200, Note_on_c, 2, 64, 99
4, 265200, Note_on_c, 2, 68, 99
4, 265320, Note_off_c, 2, 68, 64
4, 265320, Note_off_c, 2, 64, 64
4, 265440, Note_on_c, 2, 69, 127
4, 265440, Note_on_c, 2, 66, 127
4, 265560, Note_off_c, 2, 66, 64
4, 265560, Note_off_c, 2, 69, 64
4, 265680, Note_on_c, 2, 66, 99
4, 265680, Note_on_c, 2, 69, 99
4, 265800, Note_off_c, 2, 69, 64
4, 265800, Note_off_c, 2, 66, 64
4, 265920, Note_on_c, 2, 66, 99
4, 265920, Note_on_c, 2, 69, 99
4, 266040, Note_off_c, 2, 69, 64
4, 266040, Note_off_c, 2, 66, 64
4, 266160, Note_on_c, 2, 69, 99
4, 266160, Note_on_c, 2, 66, 99
4, 266280, Note_off_c, 2, 66, 64
4, 266280, Note_off_c, 2, 69, 64
4, 266400, Note_on_c, 2, 69, 99
4, 266400, Note_on_c, 2, 66, 99
4, 266520, Note_off_c, 2, 66, 64
4, 266520, Note_off_c, 2, 69, 64
4, 266640, Note_on_c, 2, 69, 99
4, 266640, Note_on_c, 2, 66, 99
4, 266760, Note_off_c, 2, 66, 64
4, 266760, Note_off_c, 2, 69, 64
4, 266880, Note_on_c, 2, 64, 99
4, 266880, Note_on_c, 2, 68, 99
4, 267000, Note_off_c, 2, 68, 64
4, 267000, Note_off_c, 2, 64, 64
4, 267120, Note_on_c, 2, 68, 99
4, 267120, Note_on_c, 2, 64, 99
4, 267240, Note_off_c, 2, 64, 64
4, 267240, Note_off_c, 2, 68, 64
4, 267360, Note_on_c, 2, 69, 127
4, 267360, Note_on_c, 2, 66, 127
4, 267480, Note_off_c, 2, 66, 64
4, 267480, Note_off_c, 2, 69, 64
4, 267600, Note_on_c, 2, 69, 99
4, 267600, Note_on_c, 2, 66, 99
4, 267720, Note_off_c, 2, 66, 64
4, 267720, Note_off_c, 2, 69, 64
4, 267840, Note_on_c, 2, 69, 99
4, 267840, Note_on_c, 2, 66, 99
4, 267960, Note_off_c, 2, 66, 64
4, 267960, Note_off_c, 2, 69, 64
4, 268080, Note_on_c, 2, 69, 99
4, 268080, Note_on_c, 2, 66, 99
4, 268200, Note_off_c, 2, 66, 64
4, 268200, Note_off_c, 2, 69, 64
4, 268320, Note_on_c, 2, 69, 99
4, 268320, Note_on_c, 2, 66, 99
4, 268440, Note_off_c, 2, 66, 64
4, 268440, Note_off_c, 2, 69, 64
4, 268560, Note_on_c, 2, 69, 99
4, 268560, Note_on_c, 2, 66, 99
4, 268680, Note_off_c, 2, 66, 64
4, 268680, Note_off_c, 2, 69, 64
4, 268800, Note_on_c, 2, 64, 99
4, 268800, Note_on_c, 2, 68, 99
4, 268920, Note_off_c, 2, 68, 64
4, 268920, Note_off_c, 2, 64, 64
4, 269040, Note_on_c, 2, 68, 99
4, 269040, Note_on_c, 2, 64, 99
4, 269160, Note_off_c, 2, 64, 64
4, 269160, Note_off_c, 2, 68, 64
4, 269280, Note_on_c, 2, 69, 127
4, 269280, Note_on_c, 2, 66, 127
4, 269400, Note_off_c, 2, 66, 64
4, 269400, Note_off_c, 2, 69, 64
4, 269520, Note_on_c, 2, 69, 99
4, 269520, Note_on_c, 2, 66, 99
4, 269640, Note_off_c, 2, 66, 64
4, 269640, Note_off_c, 2, 69, 64
4, 269760, Note_on_c, 2, 64, 99
4, 269760, Note_on_c, 2, 68, 99
4, 269880, Note_off_c, 2, 68, 64
4, 269880, Note_off_c, 2, 64, 64
4, 270000, Note_on_c, 2, 68, 99
4, 270000, Note_on_c, 2, 64, 99
4, 270120, Note_off_c, 2, 64, 64
4, 270120, Note_off_c, 2, 68, 64
4, 270240, Note_on_c, 2, 69, 127
4, 270240, Note_on_c, 2, 66, 127
4, 270360, Note_off_c, 2, 66, 64
4, 270360, Note_off_c, 2, 69, 64
4, 270480, Note_on_c, 2, 69, 99
4, 270480, Note_on_c, 2, 66, 99
4, 270600, Note_off_c, 2, 66, 64
4, 270600, Note_off_c, 2, 69, 64
4, 270720, Note_on_c, 2, 64, 99
4, 270720, Note_on_c, 2, 68, 99
4, 270840, Note_off_c, 2, 68, 64
4, 270840, Note_off_c, 2, 64, 64
4, 270960, Note_on_c, 2, 68, 99
4, 270960, Note_on_c, 2, 64, 99
4, 271080, Note_off_c, 2, 64, 64
4, 271080, Note_off_c, 2, 68, 64
4, 271200, Note_on_c, 2, 69, 127
4, 271200, Note_on_c, 2, 66, 127
4, 271320, Note_off_c, 2, 66, 64
4, 271320, Note_off_c, 2, 69, 64
4, 271440, Note_on_c, 2, 69, 99
4, 271440, Note_on_c, 2, 66, 99
4, 271560, Note_off_c, 2, 66, 64
4, 271560, Note_off_c, 2, 69, 64
4, 271680, Note_on_c, 2, 68, 99
4, 271680, Note_on_c, 2, 64, 99
4, 271800, Note_off_c, 2, 64, 64
4, 271800, Note_off_c, 2, 68, 64
4, 271920, Note_on_c, 2, 69, 99
4, 272040, Note_off_c, 2, 69, 64
4, 272160, Note_on_c, 2, 70, 127
4, 272280, Note_off_c, 2, 70, 64
4, 272400, Note_on_c, 2, 70, 99
4, 272520, Note_off_c, 2, 70, 64
4, 272940, Note_on_c, 2, 76, 54
4, 272940, Note_on_c, 2, 64, 54
4, 273054, Note_off_c, 2, 64, 64
4, 273054, Note_off_c, 2, 76, 64
4, 273060, Note_on_c, 2, 64, 54
4, 273060, Note_on_c, 2, 76, 54
4, 273174, Note_off_c, 2, 76, 64
4, 273174, Note_off_c, 2, 64, 64
4, 273180, Note_on_c, 2, 76, 72
4, 273180, Note_on_c, 2, 64, 72
4, 273294, Note_off_c, 2, 64, 64
4, 273294, Note_off_c, 2, 76, 64
4, 275340, Note_on_c, 2, 70, 41
4, 275340, Note_on_c, 2, 67, 41
4, 275454, Note_off_c, 2, 67, 64
4, 275454, Note_off_c, 2, 70, 64
4, 275460, Note_on_c, 2, 70, 41
4, 275460, Note_on_c, 2, 67, 41
4, 275574, Note_off_c, 2, 67, 64
4, 275574, Note_off_c, 2, 70, 64
4, 275580, Note_on_c, 2, 70, 54
4, 275580, Note_on_c, 2, 67, 54
4, 275694, Note_off_c, 2, 67, 64
4, 275694, Note_off_c, 2, 70, 64
4, 277440, Note_on_c, 2, 64, 54
4, 277440, Note_on_c, 2, 67, 54
4, 277560, Note_off_c, 2, 67, 64
4, 277560, Note_off_c, 2, 64, 64
4, 278160, Note_on_c, 2, 64, 54
4, 278160, Note_on_c, 2, 67, 54
4, 278400, Note_off_c, 2, 67, 64
4, 278400, Note_off_c, 2, 64, 64
4, 278400, Note_on_c, 2, 69, 54
4, 278400, Note_on_c, 2, 65, 54
4, 278520, Note_off_c, 2, 65, 64
4, 278520, Note_off_c, 2, 69, 64
4, 279120, Note_on_c, 2, 69, 54
4, 279120, Note_on_c, 2, 65, 54
4, 279360, Note_off_c, 2, 65, 64
4, 279360, Note_off_c, 2, 69, 64
4, 279360, Note_on_c, 2, 64, 54
4, 279360, Note_on_c, 2, 67, 54
4, 279480, Note_off_c, 2, 67, 64
4, 279480, Note_off_c, 2, 64, 64
4, 280080, Note_on_c, 2, 64, 54
4, 280080, Note_on_c, 2, 67, 54
4, 280320, Note_off_c, 2, 67, 64
4, 280320, Note_off_c, 2, 64, 64
4, 280320, Note_on_c, 2, 69, 54
4, 280320, Note_on_c, 2, 65, 54
4, 280440, Note_off_c, 2, 65, 64
4, 280440, Note_off_c, 2, 69, 64
4, 284160, Note_on_c, 2, 71, 54
4, 284160, Note_on_c, 2, 68, 54
4, 284280, Note_off_c, 2, 68, 64
4, 284280, Note_off_c, 2, 71, 64
4, 284880, Note_on_c, 2, 71, 54
4, 284880, Note_on_c, 2, 68, 54
4, 285120, Note_off_c, 2, 68, 64
4, 285120, Note_off_c, 2, 71, 64
4, 285120, Note_on_c, 2, 72, 54
4, 285120, Note_on_c, 2, 69, 54
4, 285240, Note_off_c, 2, 69, 64
4, 285240, Note_off_c, 2, 72, 64
4, 285840, Note_on_c, 2, 69, 54
4, 285840, Note_on_c, 2, 72, 54
4, 286080, Note_off_c, 2, 72, 64
4, 286080, Note_off_c, 2, 69, 64
4, 286080, Note_on_c, 2, 68, 54
4, 286080, Note_on_c, 2, 71, 54
4, 286200, Note_off_c, 2, 71, 64
4, 286200, Note_off_c, 2, 68, 64
4, 286800, Note_on_c, 2, 71, 54
4, 286800, Note_on_c, 2, 68, 54
4, 287040, Note_off_c, 2, 68, 64
4, 287040, Note_off_c, 2, 71, 64
4, 287040, Note_on_c, 2, 69, 54
4, 287040, Note_on_c, 2, 72, 54
4, 287160, Note_off_c, 2, 72, 64
4, 287160, Note_off_c, 2, 69, 64
4, 296640, Note_on_c, 2, 68, 54
4, 296640, Note_on_c, 2, 71, 54
4, 296760, Note_off_c, 2, 71, 64
4, 296760, Note_off_c, 2, 68, 64
4, 297360, Note_on_c, 2, 68, 54
4, 297360, Note_on_c, 2, 71, 54
4, 297600, Note_off_c, 2, 71, 64
4, 297600, Note_off_c, 2, 68, 64
4, 297600, Note_on_c, 2, 73, 54
4, 297600, Note_on_c, 2, 69, 54
4, 297720, Note_off_c, 2, 69, 64
4, 297720, Note_off_c, 2, 73, 64
4, 298320, Note_on_c, 2, 69, 54
4, 298320, Note_on_c, 2, 73, 54
4, 298560, Note_off_c, 2, 73, 64
4, 298560, Note_off_c, 2, 69, 64
4, 298560, Note_on_c, 2, 68, 54
4, 298560, Note_on_c, 2, 71, 54
4, 298680, Note_off_c, 2, 71, 64
4, 298680, Note_off_c, 2, 68, 64
4, 299280, Note_on_c, 2, 71, 54
4, 299280, Note_on_c, 2, 68, 54
4, 299520, Note_off_c, 2, 68, 64
4, 299520, Note_off_c, 2, 71, 64
4, 299520, Note_on_c, 2, 69, 54
4, 299520, Note_on_c, 2, 73, 54
4, 299640, Note_off_c, 2, 73, 64
4, 299640, Note_off_c, 2, 69, 64
4, 300240, Note_on_c, 2, 69, 54
4, 300240, Note_on_c, 2, 73, 54
4, 300480, Note_off_c, 2, 73, 64
4, 300480, Note_off_c, 2, 69, 64
4, 300480, Note_on_c, 2, 68, 54
4, 300480, Note_on_c, 2, 71, 54
4, 300600, Note_off_c, 2, 71, 64
4, 300600, Note_off_c, 2, 68, 64
4, 301200, Note_on_c, 2, 71, 54
4, 301200, Note_on_c, 2, 68, 54
4, 301440, Note_off_c, 2, 68, 64
4, 301440, Note_off_c, 2, 71, 64
4, 301440, Note_on_c, 2, 76, 54
4, 301440, Note_on_c, 2, 72, 54
4, 301560, Note_off_c, 2, 72, 64
4, 301560, Note_off_c, 2, 76, 64
4, 302160, Note_on_c, 2, 72, 54
4, 302160, Note_on_c, 2, 76, 54
4, 302400, Note_off_c, 2, 76, 64
4, 302400, Note_off_c, 2, 72, 64
4, 302400, Note_on_c, 2, 71, 54
4, 302400, Note_on_c, 2, 74, 54
4, 302520, Note_off_c, 2, 74, 64
4, 302520, Note_off_c, 2, 71, 64
4, 303120, Note_on_c, 2, 71, 54
4, 303120, Note_on_c, 2, 74, 54
4, 303360, Note_off_c, 2, 74, 64
4, 303360, Note_off_c, 2, 71, 64
4, 303360, Note_on_c, 2, 76, 54
4, 303360, Note_on_c, 2, 72, 54
4, 303480, Note_off_c, 2, 72, 64
4, 303480, Note_off_c, 2, 76, 64
4, 303600, Note_on_c, 2, 60, 54
4, 303600, Note_on_c, 2, 72, 54
4, 303660, Note_off_c, 2, 72, 64
4, 303660, Note_off_c, 2, 60, 64
4, 303720, Note_on_c, 2, 72, 54
4, 303720, Note_on_c, 2, 60, 54
4, 303780, Note_off_c, 2, 60, 64
4, 303780, Note_off_c, 2, 72, 64
4, 303840, Note_on_c, 2, 72, 54
4, 303840, Note_on_c, 2, 60, 54
4, 303960, Note_off_c, 2, 60, 64
4, 303960, Note_off_c, 2, 72, 64
4, 304320, Note_on_c, 2, 68, 54
4, 304320, Note_on_c, 2, 71, 54
4, 304440, Note_off_c, 2, 71, 64
4, 304440, Note_off_c, 2, 68, 64
4, 305040, Note_on_c, 2, 71, 54
4, 305040, Note_on_c, 2, 68, 54
4, 305280, Note_off_c, 2, 68, 64
4, 305280, Note_off_c, 2, 71, 64
4, 305280, Note_on_c, 2, 73, 54
4, 305280, Note_on_c, 2, 69, 54
4, 305400, Note_off_c, 2, 69, 64
4, 305400, Note_off_c, 2, 73, 64
4, 306000, Note_on_c, 2, 69, 54
4, 306000, Note_on_c, 2, 73, 54
4, 306240, Note_off_c, 2, 73, 64
4, 306240, Note_off_c, 2, 69, 64
4, 306240, Note_on_c, 2, 68, 54
4, 306240, Note_on_c, 2, 71, 54
4, 306360, Note_off_c, 2, 71, 64
4, 306360, Note_off_c, 2, 68, 64
4, 306960, Note_on_c, 2, 71, 54
4, 306960, Note_on_c, 2, 68, 54
4, 307200, Note_off_c, 2, 68, 64
4, 307200, Note_off_c, 2, 71, 64
4, 307200, Note_on_c, 2, 69, 54
4, 307200, Note_on_c, 2, 73, 54
4, 307320, Note_off_c, 2, 73, 64
4, 307320, Note_off_c, 2, 69, 64
4, 307920, Note_on_c, 2, 69, 54
4, 307920, Note_on_c, 2, 73, 54
4, 308160, Note_off_c, 2, 73, 64
4, 308160, Note_off_c, 2, 69, 64
4, 308160, Note_on_c, 2, 68, 54
4, 308160, Note_on_c, 2, 71, 54
4, 308280, Note_off_c, 2, 71, 64
4, 308280, Note_off_c, 2, 68, 64
4, 308880, Note_on_c, 2, 71, 54
4, 308880, Note_on_c, 2, 68, 54
4, 309120, Note_off_c, 2, 68, 64
4, 309120, Note_off_c, 2, 71, 64
4, 309120, Note_on_c, 2, 76, 54
4, 309120, Note_on_c, 2, 72, 54
4, 309240, Note_off_c, 2, 72, 64
4, 309240, Note_off_c, 2, 76, 64
4, 309840, Note_on_c, 2, 72, 54
4, 309840, Note_on_c, 2, 76, 54
4, 310080, Note_off_c, 2, 76, 64
4, 310080, Note_off_c, 2, 72, 64
4, 310080, Note_on_c, 2, 71, 54
4, 310080, Note_on_c, 2, 74, 54
4, 310200, Note_off_c, 2, 74, 64
4, 310200, Note_off_c, 2, 71, 64
4, 310800, Note_on_c, 2, 71, 54
4, 310800, Note_on_c, 2, 74, 54
4, 311040, Note_off_c, 2, 74, 64
4, 311040, Note_off_c, 2, 71, 64
4, 311040, Note_on_c, 2, 72, 54
4, 311040, Note_on_c, 2, 76, 54
4, 311160, Note_off_c, 2, 76, 64
4, 311160, Note_off_c, 2, 72, 64
4, 311280, Note_on_c, 2, 60, 54
4, 311280, Note_on_c, 2, 72, 54
4, 311340, Note_off_c, 2, 72, 64
4, 311340, Note_off_c, 2, 60, 64
4, 311400, Note_on_c, 2, 60, 54
4, 311400, Note_on_c, 2, 72, 54
4, 311460, Note_off_c, 2, 72, 64
4, 311460, Note_off_c, 2, 60, 64
4, 311520, Note_on_c, 2, 60, 54
4, 311520, Note_on_c, 2, 72, 54
4, 311640, Note_off_c, 2, 72, 64
4, 311640, Note_off_c, 2, 60, 64
4, 312000, Note_on_c, 2, 72, 54
4, 312000, Note_on_c, 2, 81, 54
4, 312120, Note_off_c, 2, 81, 64
4, 312120, Note_off_c, 2, 72, 64
4, 312720, Note_on_c, 2, 81, 54
4, 312720, Note_on_c, 2, 72, 54
4, 312960, Note_off_c, 2, 81, 64
4, 312960, Note_on_c, 2, 79, 54
4, 313080, Note_off_c, 2, 72, 64
4, 313080, Note_off_c, 2, 79, 64
4, 313680, Note_on_c, 2, 72, 54
4, 313680, Note_on_c, 2, 79, 54
4, 313920, Note_off_c, 2, 79, 64
4, 313920, Note_on_c, 2, 81, 54
4, 314040, Note_off_c, 2, 72, 64
4, 314040, Note_off_c, 2, 81, 64
4, 314640, Note_on_c, 2, 81, 54
4, 314640, Note_on_c, 2, 72, 54
4, 315000, Note_off_c, 2, 72, 64
4, 315000, Note_off_c, 2, 81, 64
4, 315120, Note_on_c, 2, 80, 72
4, 315312, Note_off_c, 2, 80, 64
4, 315600, Note_on_c, 2, 79, 54
4, 315600, Note_on_c, 2, 76, 54
4, 315840, Note_off_c, 2, 76, 64
4, 315840, Note_off_c, 2, 79, 64
4, 315840, Note_on_c, 2, 72, 54
4, 315840, Note_on_c, 2, 78, 54
4, 315960, Note_off_c, 2, 78, 64
4, 315960, Note_off_c, 2, 72, 64
4, 316560, Note_on_c, 2, 77, 54
4, 316560, Note_on_c, 2, 74, 54
4, 316800, Note_off_c, 2, 74, 64
4, 316800, Note_off_c, 2, 77, 64
4, 316800, Note_on_c, 2, 76, 54
4, 316800, Note_on_c, 2, 72, 54
4, 316920, Note_off_c, 2, 72, 64
4, 316920, Note_off_c, 2, 76, 64
4, 317520, Note_on_c, 2, 76, 54
4, 317520, Note_on_c, 2, 72, 54
4, 317760, Note_off_c, 2, 72, 64
4, 317760, Note_off_c, 2, 76, 64
4, 317760, Note_on_c, 2, 71, 54
4, 317760, Note_on_c, 2, 74, 54
4, 317880, Note_off_c, 2, 74, 64
4, 317880, Note_off_c, 2, 71, 64
4, 318480, Note_on_c, 2, 71, 54
4, 318480, Note_on_c, 2, 74, 54
4, 318720, Note_off_c, 2, 74, 64
4, 318720, Note_off_c, 2, 71, 64
4, 318720, Note_on_c, 2, 72, 54
4, 318720, Note_on_c, 2, 76, 54
4, 318840, Note_off_c, 2, 76, 64
4, 318840, Note_off_c, 2, 72, 64
4, 318960, Note_on_c, 2, 84, 54
4, 318960, Note_on_c, 2, 72, 54
4, 319020, Note_off_c, 2, 72, 64
4, 319020, Note_off_c, 2, 84, 64
4, 319080, Note_on_c, 2, 84, 54
4, 319080, Note_on_c, 2, 72, 54
4, 319140, Note_off_c, 2, 72, 64
4, 319140, Note_off_c, 2, 84, 64
4, 319200, Note_on_c, 2, 72, 54
4, 319200, Note_on_c, 2, 84, 54
4, 319320, Note_off_c, 2, 84, 64
4, 319320, Note_off_c, 2, 72, 64
4, 319680, Note_on_c, 2, 72, 54
4, 319680, Note_on_c, 2, 81, 54
4, 319800, Note_off_c, 2, 81, 64
4, 319800, Note_off_c, 2, 72, 64
4, 320400, Note_on_c, 2, 81, 54
4, 320400, Note_on_c, 2, 72, 54
4, 320640, Note_off_c, 2, 81, 64
4, 320640, Note_on_c, 2, 79, 54
4, 320760, Note_off_c, 2, 72, 64
4, 320760, Note_off_c, 2, 79, 64
4, 321360, Note_on_c, 2, 72, 54
4, 321360, Note_on_c, 2, 79, 54
4, 321600, Note_off_c, 2, 79, 64
4, 321600, Note_on_c, 2, 81, 54
4, 321720, Note_off_c, 2, 72, 64
4, 321720, Note_off_c, 2, 81, 64
4, 322320, Note_on_c, 2, 81, 54
4, 322320, Note_on_c, 2, 72, 54
4, 322680, Note_off_c, 2, 72, 64
4, 322680, Note_off_c, 2, 81, 64
4, 322800, Note_on_c, 2, 80, 72
4, 322992, Note_off_c, 2, 80, 64
4, 323280, Note_on_c, 2, 79, 54
4, 323280, Note_on_c, 2, 76, 54
4, 323520, Note_off_c, 2, 76, 64
4, 323520, Note_off_c, 2, 79, 64
4, 323520, Note_on_c, 2, 72, 54
4, 323520, Note_on_c, 2, 78, 54
4, 323640, Note_off_c, 2, 78, 64
4, 323640, Note_off_c, 2, 72, 64
4, 324240, Note_on_c, 2, 77, 54
4, 324240, Note_on_c, 2, 74, 54
4, 324480, Note_off_c, 2, 74, 64
4, 324480, Note_off_c, 2, 77, 64
4, 324480, Note_on_c, 2, 76, 54
4, 324480, Note_on_c, 2, 72, 54
4, 324600, Note_off_c, 2, 72, 64
4, 324600, Note_off_c, 2, 76, 64
4, 325200, Note_on_c, 2, 76, 54
4, 325200, Note_on_c, 2, 72, 54
4, 325440, Note_off_c, 2, 72, 64
4, 325440, Note_off_c, 2, 76, 64
4, 325440, Note_on_c, 2, 71, 54
4, 325440, Note_on_c, 2, 74, 54
4, 325560, Note_off_c, 2, 74, 64
4, 325560, Note_off_c, 2, 71, 64
4, 326160, Note_on_c, 2, 71, 54
4, 326160, Note_on_c, 2, 74, 54
4, 326400, Note_off_c, 2, 74, 64
4, 326400, Note_off_c, 2, 71, 64
4, 326400, Note_on_c, 2, 76, 54
4, 326400, Note_on_c, 2, 72, 54
4, 326520, Note_off_c, 2, 72, 64
4, 326520, Note_off_c, 2, 76, 64
4, 326640, Note_on_c, 2, 72, 54
4, 326640, Note_on_c, 2, 76, 54
4, 326700, Note_off_c, 2, 76, 64
4, 326700, Note_off_c, 2, 72, 64
4, 326760, Note_on_c, 2, 76, 54
4, 326760, Note_on_c, 2, 72, 54
4, 326820, Note_off_c, 2, 72, 64
4, 326820, Note_off_c, 2, 76, 64
4, 326880, Note_on_c, 2, 72, 54
4, 326880, Note_on_c, 2, 76, 54
4, 327000, Note_off_c, 2, 76, 64
4, 327000, Note_off_c, 2, 72, 64
4, 327600, Note_on_c, 2, 77, 72
4, 327600, Note_on_c, 2, 74, 72
4, 327660, Note_off_c, 2, 74, 64
4, 327660, Note_off_c, 2, 77, 64
4, 327720, Note_on_c, 2, 77, 72
4, 327720, Note_on_c, 2, 74, 72
4, 327780, Note_off_c, 2, 74, 64
4, 327780, Note_off_c, 2, 77, 64
4, 327840, Note_on_c, 2, 77, 72
4, 327840, Note_on_c, 2, 74, 72
4, 327900, Note_off_c, 2, 74, 64
4, 327900, Note_off_c, 2, 77, 64
4, 328560, Note_on_c, 2, 76, 72
4, 328560, Note_on_c, 2, 72, 72
4, 328620, Note_off_c, 2, 72, 64
4, 328620, Note_off_c, 2, 76, 64
4, 328680, Note_on_c, 2, 76, 72
4, 328680, Note_on_c, 2, 72, 72
4, 328740, Note_off_c, 2, 72, 64
4, 328740, Note_off_c, 2, 76, 64
4, 328800, Note_on_c, 2, 72, 72
4, 328800, Note_on_c, 2, 76, 72
4, 328860, Note_off_c, 2, 76, 64
4, 328860, Note_off_c, 2, 72, 64
4, 329520, Note_on_c, 2, 76, 72
4, 329520, Note_on_c, 2, 72, 72
4, 329580, Note_off_c, 2, 72, 64
4, 329580, Note_off_c, 2, 76, 64
4, 329640, Note_on_c, 2, 72, 72
4, 329640, Note_on_c, 2, 76, 72
4, 329700, Note_off_c, 2, 76, 64
4, 329700, Note_off_c, 2, 72, 64
4, 329760, Note_on_c, 2, 74, 72
4, 329760, Note_on_c, 2, 71, 72
4, 329820, Note_off_c, 2, 71, 64
4, 329820, Note_off_c, 2, 74, 64
4, 334320, Note_on_c, 2, 77, 72
4, 334320, Note_on_c, 2, 69, 72
4, 334380, Note_off_c, 2, 69, 64
4, 334380, Note_off_c, 2, 77, 64
4, 334440, Note_on_c, 2, 69, 72
4, 334440, Note_on_c, 2, 77, 72
4, 334500, Note_off_c, 2, 77, 64
4, 334500, Note_off_c, 2, 69, 64
4, 334560, Note_on_c, 2, 77, 72
4, 334560, Note_on_c, 2, 69, 72
4, 334620, Note_off_c, 2, 69, 64
4, 334620, Note_off_c, 2, 77, 64
4, 335280, Note_on_c, 2, 74, 72
4, 335280, Note_on_c, 2, 77, 72
4, 335340, Note_off_c, 2, 77, 64
4, 335340, Note_off_c, 2, 74, 64
4, 335400, Note_on_c, 2, 77, 72
4, 335400, Note_on_c, 2, 74, 72
4, 335460, Note_off_c, 2, 74, 64
4, 335460, Note_off_c, 2, 77, 64
4, 335520, Note_on_c, 2, 74, 72
4, 335520, Note_on_c, 2, 77, 72
4, 335580, Note_off_c, 2, 77, 64
4, 335580, Note_off_c, 2, 74, 64
4, 336240, Note_on_c, 2, 76, 72
4, 336240, Note_on_c, 2, 70, 72
4, 336300, Note_off_c, 2, 70, 64
4, 336300, Note_off_c, 2, 76, 64
4, 336360, Note_on_c, 2, 70, 72
4, 336360, Note_on_c, 2, 76, 72
4, 336420, Note_off_c, 2, 76, 64
4, 336420, Note_off_c, 2, 70, 64
4, 336480, Note_on_c, 2, 76, 72
4, 336480, Note_on_c, 2, 70, 72
4, 336540, Note_off_c, 2, 70, 64
4, 336540, Note_off_c, 2, 76, 64
4, 337200, Note_on_c, 2, 73, 72
4, 337200, Note_on_c, 2, 76, 72
4, 337260, Note_off_c, 2, 76, 64
4, 337260, Note_off_c, 2, 73, 64
4, 337320, Note_on_c, 2, 76, 72
4, 337320, Note_on_c, 2, 73, 72
4, 337380, Note_off_c, 2, 73, 64
4, 337380, Note_off_c, 2, 76, 64
4, 337440, Note_on_c, 2, 73, 72
4, 337440, Note_on_c, 2, 76, 72
4, 337500, Note_off_c, 2, 76, 64
4, 337500, Note_off_c, 2, 73, 64
4, 337920, Note_on_c, 2, 77, 72
4, 337920, Note_on_c, 2, 74, 72
4, 338040, Note_off_c, 2, 74, 64
4, 338040, Note_off_c, 2, 77, 64
4, 338400, Note_on_c, 2, 74, 80
4, 338850, Note_off_c, 2, 74, 64
4, 338880, Note_on_c, 2, 77, 77
4, 339106, Note_off_c, 2, 77, 64
4, 339360, Note_on_c, 2, 69, 75
4, 339810, Note_off_c, 2, 69, 64
4, 339840, Note_on_c, 2, 74, 73
4, 340066, Note_off_c, 2, 74, 64
4, 340320, Note_on_c, 2, 65, 70
4, 340770, Note_off_c, 2, 65, 64
4, 340800, Note_on_c, 2, 69, 68
4, 341026, Note_off_c, 2, 69, 64
4, 341280, Note_on_c, 2, 62, 66
4, 341730, Note_off_c, 2, 62, 64
4, 341760, Note_on_c, 2, 65, 63
4, 341986, Note_off_c, 2, 65, 64
4, 342240, Note_on_c, 2, 57, 61
4, 342690, Note_off_c, 2, 57, 64
4, 342720, Note_on_c, 2, 62, 59
4, 342946, Note_off_c, 2, 62, 64
4, 343200, Note_on_c, 2, 65, 56
4, 343650, Note_off_c, 2, 65, 64
4, 343680, Note_on_c, 2, 69, 54
4, 343906, Note_off_c, 2, 69, 64
4, 344160, Note_on_c, 2, 65, 52
4, 344610, Note_off_c, 2, 65, 64
4, 344640, Note_on_c, 2, 69, 60
4, 344866, Note_off_c, 2, 69, 64
4, 345120, Note_on_c, 2, 66, 60
4, 345570, Note_off_c, 2, 66, 64
4, 345600, Note_on_c, 2, 69, 60
4, 345826, Note_off_c, 2, 69, 64
4, 346080, Note_on_c, 2, 66, 60
4, 346530, Note_off_c, 2, 66, 64
4, 346560, Note_on_c, 2, 70, 80
4, 346786, Note_off_c, 2, 70, 64
4, 347040, Note_on_c, 2, 67, 80
4, 347490, Note_off_c, 2, 67, 64
4, 347520, Note_on_c, 2, 70, 80
4, 347746, Note_off_c, 2, 70, 64
4, 348000, Note_on_c, 2, 67, 80
4, 348450, Note_off_c, 2, 67, 64
4, 348480, Note_on_c, 2, 71, 80
4, 348706, Note_off_c, 2, 71, 64
4, 348960, Note_on_c, 2, 68, 80
4, 349410, Note_off_c, 2, 68, 64
4, 349440, Note_on_c, 2, 71, 80
4, 349666, Note_off_c, 2, 71, 64
4, 349920, Note_on_c, 2, 68, 80
4, 350370, Note_off_c, 2, 68, 64
4, 350400, Note_on_c, 2, 72, 80
4, 350626, Note_off_c, 2, 72, 64
4, 350880, Note_on_c, 2, 69, 80
4, 351330, Note_off_c, 2, 69, 64
4, 351360, Note_on_c, 2, 73, 80
4, 351586, Note_off_c, 2, 73, 64
4, 351840, Note_on_c, 2, 70, 80
4, 352290, Note_off_c, 2, 70, 64
4, 352320, Note_on_c, 2, 74, 80
4, 352546, Note_off_c, 2, 74, 64
4, 352800, Note_on_c, 2, 71, 80
4, 353250, Note_off_c, 2, 71, 64
4, 353280, Note_on_c, 2, 75, 50
4, 353506, Note_off_c, 2, 75, 64
4, 353760, Note_on_c, 2, 72, 50
4, 354210, Note_off_c, 2, 72, 64
4, 354240, Note_on_c, 2, 76, 50
4, 354466, Note_off_c, 2, 76, 64
4, 354720, Note_on_c, 2, 73, 50
4, 355170, Note_off_c, 2, 73, 64
4, 355200, Note_on_c, 2, 64, 50
4, 355426, Note_off_c, 2, 64, 64
4, 355680, Note_on_c, 2, 62, 50
4, 356130, Note_off_c, 2, 62, 64
4, 356160, Note_on_c, 2, 64, 50
4, 356386, Note_off_c, 2, 64, 64
4, 356640, Note_on_c, 2, 63, 50
4, 357090, Note_off_c, 2, 63, 64
4, 357120, Note_on_c, 2, 64, 50
4, 357346, Note_off_c, 2, 64, 64
4, 357600, Note_on_c, 2, 63, 50
4, 358050, Note_off_c, 2, 63, 64
4, 358080, Note_on_c, 2, 64, 50
4, 358306, Note_off_c, 2, 64, 64
4, 358560, Note_on_c, 2, 63, 50
4, 359010, Note_off_c, 2, 63, 64
4, 359040, Note_on_c, 2, 64, 50
4, 359266, Note_off_c, 2, 64, 64
4, 359520, Note_on_c, 2, 63, 50
4, 359970, Note_off_c, 2, 63, 64
4, 360000, Note_on_c, 2, 64, 50
4, 360226, Note_off_c, 2, 64, 64
4, 360480, Note_on_c, 2, 63, 50
4, 360930, Note_off_c, 2, 63, 64
4, 360960, Note_on_c, 2, 64, 50
4, 361186, Note_off_c, 2, 64, 64
4, 361440, Note_on_c, 2, 64, 50
4, 361890, Note_off_c, 2, 64, 64
4, 361920, Note_on_c, 2, 65, 50
4, 362112, Note_off_c, 2, 65, 64
4, 362880, Note_on_c, 2, 72, 68
4, 362940, Note_off_c, 2, 72, 64
4, 363120, Note_on_c, 2, 72, 38
4, 363180, Note_off_c, 2, 72, 64
4, 363240, Note_on_c, 2, 72, 38
4, 363300, Note_off_c, 2, 72, 64
4, 363360, Note_on_c, 2, 72, 38
4, 363480, Note_off_c, 2, 72, 64
4, 364800, Note_on_c, 2, 72, 68
4, 364860, Note_off_c, 2, 72, 64
4, 365040, Note_on_c, 2, 72, 38
4, 365100, Note_off_c, 2, 72, 64
4, 365160, Note_on_c, 2, 72, 38
4, 365220, Note_off_c, 2, 72, 64
4, 365280, Note_on_c, 2, 72, 38
4, 365400, Note_off_c, 2, 72, 64
4, 365760, Note_on_c, 2, 72, 40
4, 365880, Note_off_c, 2, 72, 64
4, 366240, Note_on_c, 2, 72, 40
4, 366720, Note_off_c, 2, 72, 64
4, 366720, Note_on_c, 2, 74, 40
4, 366840, Note_off_c, 2, 74, 64
4, 367200, Note_on_c, 2, 74, 40
4, 367680, Note_off_c, 2, 74, 64
4, 367680, Note_on_c, 2, 72, 40
4, 367800, Note_off_c, 2, 72, 64
4, 368160, Note_on_c, 2, 72, 40
4, 368640, Note_off_c, 2, 72, 64
4, 368640, Note_on_c, 2, 74, 40
4, 368760, Note_off_c, 2, 74, 64
4, 369120, Note_on_c, 2, 74, 40
4, 372480, Note_off_c, 2, 74, 64
4, 372480, Note_on_c, 2, 72, 40
4, 372706, Note_off_c, 2, 72, 64
4, 373440, Note_on_c, 2, 72, 68
4, 373500, Note_off_c, 2, 72, 64
4, 373680, Note_on_c, 2, 72, 38
4, 373740, Note_off_c, 2, 72, 64
4, 373800, Note_on_c, 2, 72, 38
4, 373860, Note_off_c, 2, 72, 64
4, 373920, Note_on_c, 2, 72, 38
4, 374040, Note_off_c, 2, 72, 64
4, 375360, Note_on_c, 2, 72, 68
4, 375420, Note_off_c, 2, 72, 64
4, 375600, Note_on_c, 2, 72, 38
4, 375660, Note_off_c, 2, 72, 64
4, 375720, Note_on_c, 2, 72, 38
4, 375780, Note_off_c, 2, 72, 64
4, 375840, Note_on_c, 2, 72, 38
4, 375960, Note_off_c, 2, 72, 64
4, 376320, Note_on_c, 2, 72, 40
4, 376440, Note_off_c, 2, 72, 64
4, 376800, Note_on_c, 2, 72, 40
4, 377280, Note_off_c, 2, 72, 64
4, 377280, Note_on_c, 2, 74, 40
4, 377400, Note_off_c, 2, 74, 64
4, 377760, Note_on_c, 2, 74, 40
4, 378240, Note_off_c, 2, 74, 64
4, 378240, Note_on_c, 2, 72, 40
4, 378360, Note_off_c, 2, 72, 64
4, 378720, Note_on_c, 2, 69, 40
4, 379200, Note_off_c, 2, 69, 64
4, 379200, Note_on_c, 2, 68, 52
4, 379320, Note_off_c, 2, 68, 64
4, 379680, Note_on_c, 2, 74, 52
4, 383040, Note_off_c, 2, 74, 64
4, 383040, Note_on_c, 2, 71, 80
4, 383040, Note_on_c, 2, 74, 80
4, 383266, Note_off_c, 2, 74, 64
4, 383266, Note_off_c, 2, 71, 64
4, 383340, Note_on_c, 2, 64, 54
4, 383340, Note_on_c, 2, 76, 54
4, 383454, Note_off_c, 2, 76, 64
4, 383454, Note_off_c, 2, 64, 64
4, 383460, Note_on_c, 2, 64, 54
4, 383460, Note_on_c, 2, 76, 54
4, 383574, Note_off_c, 2, 76, 64
4, 383574, Note_off_c, 2, 64, 64
4, 383580, Note_on_c, 2, 64, 72
4, 383580, Note_on_c, 2, 76, 72
4, 383694, Note_off_c, 2, 76, 64
4, 383694, Note_off_c, 2, 64, 64
4, 385740, Note_on_c, 2, 74, 41
4, 385740, Note_on_c, 2, 71, 41
4, 385854, Note_off_c, 2, 71, 64
4, 385854, Note_off_c, 2, 74, 64
4, 385860, Note_on_c, 2, 71, 41
4, 385860, Note_on_c, 2, 74, 41
4, 385974, Note_off_c, 2, 74, 64
4, 385974, Note_off_c, 2, 71, 64
4, 385980, Note_on_c, 2, 71, 54
4, 385980, Note_on_c, 2, 74, 54
4, 386094, Note_off_c, 2, 74, 64
4, 386094, Note_off_c, 2, 71, 64
4, 387840, Note_on_c, 2, 68, 54
4, 387840, Note_on_c, 2, 71, 54
4, 387960, Note_off_c, 2, 71, 64
4, 387960, Note_off_c, 2, 68, 64
4, 388560, Note_on_c, 2, 68, 54
4, 388560, Note_on_c, 2, 71, 54
4, 388800, Note_off_c, 2, 71, 64
4, 388800, Note_off_c, 2, 68, 64
4, 388800, Note_on_c, 2, 73, 54
4, 388800, Note_on_c, 2, 69, 54
4, 388920, Note_off_c, 2, 69, 64
4, 388920, Note_off_c, 2, 73, 64
4, 389520, Note_on_c, 2, 69, 54
4, 389520, Note_on_c, 2, 73, 54
4, 389760, Note_off_c, 2, 73, 64
4, 389760, Note_off_c, 2, 69, 64
4, 389760, Note_on_c, 2, 68, 54
4, 389760, Note_on_c, 2, 71, 54
4, 389880, Note_off_c, 2, 71, 64
4, 389880, Note_off_c, 2, 68, 64
4, 390480, Note_on_c, 2, 71, 54
4, 390480, Note_on_c, 2, 68, 54
4, 390720, Note_off_c, 2, 68, 64
4, 390720, Note_off_c, 2, 71, 64
4, 390720, Note_on_c, 2, 69, 54
4, 390720, Note_on_c, 2, 73, 54
4, 390840, Note_off_c, 2, 73, 64
4, 390840, Note_off_c, 2, 69, 64
4, 391440, Note_on_c, 2, 73, 54
4, 391440, Note_on_c, 2, 69, 54
4, 391680, Note_off_c, 2, 69, 64
4, 391680, Note_off_c, 2, 73, 64
4, 391680, Note_on_c, 2, 71, 54
4, 391680, Note_on_c, 2, 68, 54
4, 391800, Note_off_c, 2, 68, 64
4, 391800, Note_off_c, 2, 71, 64
4, 392400, Note_on_c, 2, 71, 54
4, 392400, Note_on_c, 2, 68, 54
4, 392640, Note_off_c, 2, 68, 64
4, 392640, Note_off_c, 2, 71, 64
4, 392640, Note_on_c, 2, 69, 54
4, 392640, Note_on_c, 2, 73, 54
4, 392760, Note_off_c, 2, 73, 64
4, 392760, Note_off_c, 2, 69, 64
4, 393360, Note_on_c, 2, 73, 54
4, 393360, Note_on_c, 2, 69, 54
4, 393600, Note_off_c, 2, 69, 64
4, 393600, Note_off_c, 2, 73, 64
4, 393600, Note_on_c, 2, 68, 54
4, 393600, Note_on_c, 2, 71, 54
4, 393720, Note_off_c, 2, 71, 64
4, 393720, Note_off_c, 2, 68, 64
4, 394320, Note_on_c, 2, 68, 54
4, 394320, Note_on_c, 2, 71, 54
4, 394560, Note_off_c, 2, 71, 64
4, 394560, Note_off_c, 2, 68, 64
4, 394560, Note_on_c, 2, 73, 54
4, 394560, Note_on_c, 2, 69, 54
4, 394680, Note_off_c, 2, 69, 64
4, 394680, Note_off_c, 2, 73, 64
4, 394800, Note_on_c, 2, 69, 54
4, 394800, Note_on_c, 2, 81, 54
4, 394860, Note_off_c, 2, 81, 64
4, 394860, Note_off_c, 2, 69, 64
4, 394920, Note_on_c, 2, 69, 54
4, 394920, Note_on_c, 2, 81, 54
4, 394980, Note_off_c, 2, 81, 64
4, 394980, Note_off_c, 2, 69, 64
4, 395040, Note_on_c, 2, 81, 54
4, 395040, Note_on_c, 2, 69, 54
4, 395160, Note_off_c, 2, 69, 64
4, 395160, Note_off_c, 2, 81, 64
4, 395520, Note_on_c, 2, 68, 54
4, 395520, Note_on_c, 2, 71, 54
4, 395640, Note_off_c, 2, 71, 64
4, 395640, Note_off_c, 2, 68, 64
4, 396240, Note_on_c, 2, 68, 54
4, 396240, Note_on_c, 2, 71, 54
4, 396480, Note_off_c, 2, 71, 64
4, 396480, Note_off_c, 2, 68, 64
4, 396480, Note_on_c, 2, 73, 54
4, 396480, Note_on_c, 2, 69, 54
4, 396600, Note_off_c, 2, 69, 64
4, 396600, Note_off_c, 2, 73, 64
4, 397200, Note_on_c, 2, 69, 54
4, 397200, Note_on_c, 2, 73, 54
4, 397440, Note_off_c, 2, 73, 64
4, 397440, Note_off_c, 2, 69, 64
4, 397440, Note_on_c, 2, 68, 54
4, 397440, Note_on_c, 2, 71, 54
4, 397560, Note_off_c, 2, 71, 64
4, 397560, Note_off_c, 2, 68, 64
4, 398160, Note_on_c, 2, 71, 54
4, 398160, Note_on_c, 2, 68, 54
4, 398400, Note_off_c, 2, 68, 64
4, 398400, Note_off_c, 2, 71, 64
4, 398400, Note_on_c, 2, 69, 54
4, 398400, Note_on_c, 2, 73, 54
4, 398520, Note_off_c, 2, 73, 64
4, 398520, Note_off_c, 2, 69, 64
4, 399120, Note_on_c, 2, 73, 54
4, 399120, Note_on_c, 2, 69, 54
4, 399360, Note_off_c, 2, 69, 64
4, 399360, Note_off_c, 2, 73, 64
4, 399360, Note_on_c, 2, 71, 54
4, 399360, Note_on_c, 2, 68, 54
4, 399480, Note_off_c, 2, 68, 64
4, 399480, Note_off_c, 2, 71, 64
4, 400080, Note_on_c, 2, 71, 54
4, 400080, Note_on_c, 2, 68, 54
4, 400320, Note_off_c, 2, 68, 64
4, 400320, Note_off_c, 2, 71, 64
4, 400320, Note_on_c, 2, 69, 54
4, 400320, Note_on_c, 2, 73, 54
4, 400440, Note_off_c, 2, 73, 64
4, 400440, Note_off_c, 2, 69, 64
4, 401040, Note_on_c, 2, 73, 54
4, 401040, Note_on_c, 2, 69, 54
4, 401280, Note_off_c, 2, 69, 64
4, 401280, Note_off_c, 2, 73, 64
4, 401280, Note_on_c, 2, 68, 54
4, 401280, Note_on_c, 2, 71, 54
4, 401400, Note_off_c, 2, 71, 64
4, 401400, Note_off_c, 2, 68, 64
4, 402000, Note_on_c, 2, 68, 54
4, 402000, Note_on_c, 2, 71, 54
4, 402240, Note_off_c, 2, 71, 64
4, 402240, Note_off_c, 2, 68, 64
4, 402240, Note_on_c, 2, 73, 54
4, 402240, Note_on_c, 2, 69, 54
4, 402360, Note_off_c, 2, 69, 64
4, 402360, Note_off_c, 2, 73, 64
4, 402540, Note_on_c, 2, 69, 54
4, 402540, Note_on_c, 2, 81, 54
4, 402600, Note_off_c, 2, 81, 64
4, 402600, Note_off_c, 2, 69, 64
4, 402660, Note_on_c, 2, 81, 54
4, 402660, Note_on_c, 2, 69, 54
4, 402720, Note_off_c, 2, 69, 64
4, 402720, Note_off_c, 2, 81, 64
4, 402780, Note_on_c, 2, 69, 54
4, 402780, Note_on_c, 2, 81, 54
4, 402900, Note_off_c, 2, 81, 64
4, 402900, Note_off_c, 2, 69, 64
4, 403620, Note_on_c, 2, 81, 54
4, 403620, Note_on_c, 2, 69, 54
4, 403734, Note_off_c, 2, 69, 64
4, 403734, Note_off_c, 2, 81, 64
4, 403740, Note_on_c, 2, 81, 54
4, 403740, Note_on_c, 2, 69, 54
4, 403854, Note_off_c, 2, 69, 64
4, 403854, Note_off_c, 2, 81, 64
4, 403860, Note_on_c, 2, 81, 54
4, 403860, Note_on_c, 2, 69, 54
4, 403974, Note_off_c, 2, 69, 64
4, 403974, Note_off_c, 2, 81, 64
4, 404700, Note_on_c, 2, 68, 54
4, 404700, Note_on_c, 2, 71, 54
4, 404760, Note_off_c, 2, 71, 64
4, 404760, Note_off_c, 2, 68, 64
4, 404820, Note_on_c, 2, 68, 54
4, 404820, Note_on_c, 2, 71, 54
4, 404880, Note_off_c, 2, 71, 64
4, 404880, Note_off_c, 2, 68, 64
4, 404940, Note_on_c, 2, 71, 54
4, 404940, Note_on_c, 2, 68, 54
4, 405060, Note_off_c, 2, 68, 64
4, 405060, Note_off_c, 2, 71, 64
4, 405780, Note_on_c, 2, 68, 54
4, 405780, Note_on_c, 2, 71, 54
4, 405840, Note_off_c, 2, 71, 64
4, 405840, Note_off_c, 2, 68, 64
4, 405900, Note_on_c, 2, 71, 54
4, 405900, Note_on_c, 2, 68, 54
4, 405960, Note_off_c, 2, 68, 64
4, 405960, Note_off_c, 2, 71, 64
4, 406020, Note_on_c, 2, 68, 54
4, 406020, Note_on_c, 2, 71, 54
4, 406140, Note_off_c, 2, 71, 64
4, 406140, Note_off_c, 2, 68, 64
4, 406560, Note_on_c, 2, 73, 108
4, 406560, Note_on_c, 2, 69, 108
4, 407136, Note_off_c, 2, 69, 64
4, 407136, Note_off_c, 2, 73, 64
4, 407280, Note_on_c, 2, 71, 108
4, 407280, Note_on_c, 2, 64, 108
4, 407400, Note_off_c, 2, 64, 64
4, 407400, Note_off_c, 2, 71, 64
4, 407520, Note_on_c, 2, 61, 108
4, 407520, Note_on_c, 2, 69, 108
4, 407640, Note_off_c, 2, 69, 64
4, 407640, Note_off_c, 2, 61, 64
4, 407760, Note_on_c, 2, 69, 108
4, 407760, Note_on_c, 2, 73, 108
4, 407880, Note_off_c, 2, 73, 64
4, 407880, Note_off_c, 2, 69, 64
4, 408000, Note_on_c, 2, 64, 108
4, 408000, Note_on_c, 2, 71, 108
4, 408120, Note_off_c, 2, 71, 64
4, 408120, Note_off_c, 2, 64, 64
4, 408240, Note_on_c, 2, 69, 108
4, 408240, Note_on_c, 2, 61, 108
4, 408360, Note_off_c, 2, 61, 64
4, 408360, Note_off_c, 2, 69, 64
4, 408480, Note_on_c, 2, 68, 108
4, 408480, Note_on_c, 2, 71, 108
4, 408600, Note_off_c, 2, 71, 64
4, 408600, Note_off_c, 2, 68, 64
4, 408720, Note_on_c, 2, 69, 72
4, 408720, Note_on_c, 2, 64, 72
4, 408840, Note_off_c, 2, 64, 64
4, 408840, Note_off_c, 2, 69, 64
4, 408960, Note_on_c, 2, 68, 72
4, 408960, Note_on_c, 2, 71, 72
4, 409080, Note_off_c, 2, 71, 64
4, 409080, Note_off_c, 2, 68, 64
4, 409200, Note_on_c, 2, 74, 72
4, 409200, Note_on_c, 2, 78, 72
4, 409320, Note_off_c, 2, 78, 64
4, 409320, Note_off_c, 2, 74, 64
4, 409440, Note_on_c, 2, 73, 72
4, 409440, Note_on_c, 2, 76, 72
4, 409560, Note_off_c, 2, 76, 64
4, 409560, Note_off_c, 2, 73, 64
4, 409680, Note_on_c, 2, 74, 72
4, 409680, Note_on_c, 2, 71, 72
4, 409800, Note_off_c, 2, 71, 64
4, 409800, Note_off_c, 2, 74, 64
4, 409920, Note_on_c, 2, 73, 72
4, 409920, Note_on_c, 2, 69, 72
4, 410040, Note_off_c, 2, 69, 64
4, 410040, Note_off_c, 2, 73, 64
4, 410160, Note_on_c, 2, 68, 72
4, 410160, Note_on_c, 2, 71, 72
4, 410280, Note_off_c, 2, 71, 64
4, 410280, Note_off_c, 2, 68, 64
4, 410400, Note_on_c, 2, 69, 54
4, 410400, Note_on_c, 2, 73, 54
4, 410520, Note_off_c, 2, 73, 64
4, 410520, Note_off_c, 2, 69, 64
4, 410700, Note_on_c, 2, 69, 54
4, 410700, Note_on_c, 2, 81, 54
4, 410760, Note_off_c, 2, 81, 64
4, 410760, Note_off_c, 2, 69, 64
4, 410820, Note_on_c, 2, 69, 54
4, 410820, Note_on_c, 2, 81, 54
4, 410880, Note_off_c, 2, 81, 64
4, 410880, Note_off_c, 2, 69, 64
4, 410940, Note_on_c, 2, 81, 54
4, 410940, Note_on_c, 2, 69, 54
4, 411060, Note_off_c, 2, 69, 64
4, 411060, Note_off_c, 2, 81, 64
4, 411780, Note_on_c, 2, 81, 54
4, 411780, Note_on_c, 2, 69, 54
4, 411840, Note_off_c, 2, 69, 64
4, 411840, Note_off_c, 2, 81, 64
4, 411900, Note_on_c, 2, 81, 54
4, 411900, Note_on_c, 2, 69, 54
4, 411960, Note_off_c, 2, 69, 64
4, 411960, Note_off_c, 2, 81, 64
4, 412020, Note_on_c, 2, 81, 54
4, 412020, Note_on_c, 2, 69, 54
4, 412140, Note_off_c, 2, 69, 64
4, 412140, Note_off_c, 2, 81, 64
4, 412860, Note_on_c, 2, 71, 54
4, 412860, Note_on_c, 2, 68, 54
4, 412920, Note_off_c, 2, 68, 64
4, 412920, Note_off_c, 2, 71, 64
4, 412980, Note_on_c, 2, 71, 54
4, 412980, Note_on_c, 2, 68, 54
4, 413040, Note_off_c, 2, 68, 64
4, 413040, Note_off_c, 2, 71, 64
4, 413100, Note_on_c, 2, 71, 54
4, 413100, Note_on_c, 2, 68, 54
4, 413220, Note_off_c, 2, 68, 64
4, 413220, Note_off_c, 2, 71, 64
4, 413940, Note_on_c, 2, 71, 54
4, 413940, Note_on_c, 2, 68, 54
4, 414000, Note_off_c, 2, 68, 64
4, 414000, Note_off_c, 2, 71, 64
4, 414060, Note_on_c, 2, 68, 54
4, 414060, Note_on_c, 2, 71, 54
4, 414120, Note_off_c, 2, 71, 64
4, 414120, Note_off_c, 2, 68, 64
4, 414180, Note_on_c, 2, 71, 54
4, 414180, Note_on_c, 2, 68, 54
4, 414300, Note_off_c, 2, 68, 64
4, 414300, Note_off_c, 2, 71, 64
4, 414720, Note_on_c, 2, 69, 64
4, 414720, Note_on_c, 2, 73, 64
4, 414912, Note_off_c, 2, 73, 64
4, 414912, Note_off_c, 2, 69, 64
4, 415200, Note_on_c, 2, 69, 64
4, 415200, Note_on_c, 2, 73, 64
4, 415392, Note_off_c, 2, 73, 64
4, 415392, Note_off_c, 2, 69, 64
4, 415680, Note_on_c, 2, 69, 64
4, 415680, Note_on_c, 2, 73, 64
4, 415872, Note_off_c, 2, 73, 64
4, 415872, Note_off_c, 2, 69, 64
4, 416160, Note_on_c, 2, 69, 64
4, 416160, Note_on_c, 2, 73, 64
4, 416352, Note_off_c, 2, 73, 64
4, 416352, Note_off_c, 2, 69, 64
4, 416640, Note_on_c, 2, 71, 64
4, 416640, Note_on_c, 2, 74, 64
4, 416832, Note_off_c, 2, 74, 64
4, 416832, Note_off_c, 2, 71, 64
4, 417120, Note_on_c, 2, 71, 61
4, 417120, Note_on_c, 2, 74, 61
4, 417312, Note_off_c, 2, 74, 64
4, 417312, Note_off_c, 2, 71, 64
4, 417600, Note_on_c, 2, 71, 57
4, 417600, Note_on_c, 2, 74, 57
4, 417792, Note_off_c, 2, 74, 64
4, 417792, Note_off_c, 2, 71, 64
4, 418080, Note_on_c, 2, 71, 53
4, 418080, Note_on_c, 2, 74, 53
4, 418272, Note_off_c, 2, 74, 64
4, 418272, Note_off_c, 2, 71, 64
4, 418560, Note_on_c, 2, 69, 60
4, 418560, Note_on_c, 2, 73, 60
4, 418752, Note_off_c, 2, 73, 64
4, 418752, Note_off_c, 2, 69, 64
4, 423360, Note_on_c, 2, 76, 58
4, 423360, Note_on_c, 2, 64, 58
4, 424800, Note_off_c, 2, 64, 64
4, 424800, Note_off_c, 2, 76, 64
4, 424800, Note_on_c, 2, 70, 80
4, 424800, Note_on_c, 2, 67, 80
4, 425280, Note_off_c, 2, 70, 64
4, 425280, Note_on_c, 2, 69, 58
4, 425760, Note_off_c, 2, 67, 64
4, 425760, Note_off_c, 2, 69, 64
4, 425760, Note_on_c, 2, 76, 58
4, 425760, Note_on_c, 2, 79, 58
4, 426240, Note_off_c, 2, 79, 64
4, 426240, Note_off_c, 2, 76, 64
4, 426240, Note_on_c, 2, 77, 58
4, 426240, Note_on_c, 2, 74, 58
4, 426480, Note_off_c, 2, 74, 64
4, 426480, Note_off_c, 2, 77, 64
4, 429600, Note_on_c, 2, 79, 80
4, 429600, Note_on_c, 2, 76, 80
4, 430080, Note_off_c, 2, 76, 64
4, 430080, Note_off_c, 2, 79, 64
4, 430080, Note_on_c, 2, 74, 80
4, 430080, Note_on_c, 2, 77, 80
4, 430200, Note_off_c, 2, 77, 64
4, 430200, Note_off_c, 2, 74, 64
4, 433440, Note_on_c, 2, 76, 80
4, 433440, Note_on_c, 2, 79, 80
4, 433920, Note_off_c, 2, 79, 64
4, 433920, Note_off_c, 2, 76, 64
4, 433920, Note_on_c, 2, 74, 80
4, 433920, Note_on_c, 2, 77, 80
4, 434040, Note_off_c, 2, 77, 64
4, 434040, Note_off_c, 2, 74, 64
4, 434400, Note_on_c, 2, 63, 80
4, 434400, Note_on_c, 2, 65, 80
4, 434544, Note_off_c, 2, 65, 64
4, 434544, Note_off_c, 2, 63, 64
4, 434880, Note_on_c, 2, 63, 80
4, 434880, Note_on_c, 2, 65, 80
4, 435024, Note_off_c, 2, 65, 64
4, 435024, Note_off_c, 2, 63, 64
4, 435360, Note_on_c, 2, 65, 80
4, 435360, Note_on_c, 2, 63, 80
4, 435504, Note_off_c, 2, 63, 64
4, 435504, Note_off_c, 2, 65, 64
4, 435840, Note_on_c, 2, 64, 80
4, 435840, Note_on_c, 2, 67, 80
4, 435984, Note_off_c, 2, 67, 64
4, 435984, Note_off_c, 2, 64, 64
4, 436320, Note_on_c, 2, 64, 80
4, 436320, Note_on_c, 2, 67, 80
4, 436464, Note_off_c, 2, 67, 64
4, 436464, Note_off_c, 2, 64, 64
4, 436800, Note_on_c, 2, 64, 80
4, 436800, Note_on_c, 2, 67, 80
4, 436944, Note_off_c, 2, 67, 64
4, 436944, Note_off_c, 2, 64, 64
4, 437280, Note_on_c, 2, 64, 80
4, 437280, Note_on_c, 2, 67, 80
4, 437424, Note_off_c, 2, 67, 64
4, 437424, Note_off_c, 2, 64, 64
4, 437760, Note_on_c, 2, 62, 80
4, 437760, Note_on_c, 2, 65, 80
4, 437904, Note_off_c, 2, 65, 64
4, 437904, Note_off_c, 2, 62, 64
4, 438240, Note_on_c, 2, 62, 80
4, 438240, Note_on_c, 2, 65, 80
4, 438384, Note_off_c, 2, 65, 64
4, 438384, Note_off_c, 2, 62, 64
4, 438720, Note_on_c, 2, 62, 80
4, 438720, Note_on_c, 2, 66, 80
4, 438864, Note_off_c, 2, 66, 64
4, 438864, Note_off_c, 2, 62, 64
4, 439200, Note_on_c, 2, 66, 80
4, 439200, Note_on_c, 2, 62, 80
4, 439344, Note_off_c, 2, 62, 64
4, 439344, Note_off_c, 2, 66, 64
4, 439680, Note_on_c, 2, 68, 80
4, 439680, Note_on_c, 2, 62, 80
4, 439824, Note_off_c, 2, 62, 64
4, 439824, Note_off_c, 2, 68, 64
4, 440160, Note_on_c, 2, 62, 80
4, 440160, Note_on_c, 2, 68, 80
4, 440304, Note_off_c, 2, 68, 64
4, 440304, Note_off_c, 2, 62, 64
4, 440640, Note_on_c, 2, 77, 80
4, 440640, Note_on_c, 2, 65, 80
4, 440784, Note_off_c, 2, 65, 64
4, 440784, Note_off_c, 2, 77, 64
4, 441120, Note_on_c, 2, 77, 80
4, 441120, Note_on_c, 2, 65, 80
4, 441264, Note_off_c, 2, 65, 64
4, 441264, Note_off_c, 2, 77, 64
4, 441600, Note_on_c, 2, 64, 80
4, 441600, Note_on_c, 2, 76, 80
4, 441744, Note_off_c, 2, 76, 64
4, 441744, Note_off_c, 2, 64, 64
4, 442080, Note_on_c, 2, 69, 80
4, 442080, Note_on_c, 2, 81, 80
4, 442224, Note_off_c, 2, 81, 64
4, 442224, Note_off_c, 2, 69, 64
4, 442560, Note_on_c, 2, 69, 80
4, 442560, Note_on_c, 2, 81, 80
4, 442704, Note_off_c, 2, 81, 64
4, 442704, Note_off_c, 2, 69, 64
4, 443040, Note_on_c, 2, 69, 80
4, 443040, Note_on_c, 2, 81, 80
4, 443184, Note_off_c, 2, 81, 64
4, 443184, Note_off_c, 2, 69, 64
4, 443520, Note_on_c, 2, 68, 80
4, 443520, Note_on_c, 2, 71, 80
4, 443664, Note_off_c, 2, 71, 64
4, 443664, Note_off_c, 2, 68, 64
4, 444000, Note_on_c, 2, 74, 80
4, 444000, Note_on_c, 2, 77, 80
4, 444144, Note_off_c, 2, 77, 64
4, 444144, Note_off_c, 2, 74, 64
4, 447840, Note_on_c, 2, 74, 80
4, 447840, Note_on_c, 2, 77, 80
4, 447984, Note_off_c, 2, 77, 64
4, 447984, Note_off_c, 2, 74, 64
4, 455040, Note_on_c, 2, 73, 67
4, 455040, Note_on_c, 2, 76, 67
4, 455112, Note_off_c, 2, 76, 64
4, 455112, Note_off_c, 2, 73, 64
4, 455400, Note_on_c, 2, 74, 67
4, 455400, Note_on_c, 2, 71, 67
4, 455520, Note_off_c, 2, 71, 64
4, 455520, Note_off_c, 2, 74, 64
4, 455520, Note_on_c, 2, 76, 99
4, 455520, Note_on_c, 2, 73, 99
4, 455970, Note_off_c, 2, 73, 64
4, 455970, Note_off_c, 2, 76, 64
4, 456000, Note_on_c, 2, 74, 80
4, 456000, Note_on_c, 2, 71, 80
4, 456072, Note_off_c, 2, 71, 64
4, 456072, Note_off_c, 2, 74, 64
4, 456360, Note_on_c, 2, 73, 67
4, 456360, Note_on_c, 2, 69, 67
4, 456480, Note_off_c, 2, 69, 64
4, 456480, Note_off_c, 2, 73, 64
4, 456480, Note_on_c, 2, 71, 99
4, 456480, Note_on_c, 2, 74, 99
4, 456930, Note_off_c, 2, 74, 64
4, 456930, Note_off_c, 2, 71, 64
4, 456960, Note_on_c, 2, 73, 80
4, 456960, Note_on_c, 2, 69, 80
4, 457032, Note_off_c, 2, 69, 64
4, 457032, Note_off_c, 2, 73, 64
4, 457320, Note_on_c, 2, 71, 67
4, 457320, Note_on_c, 2, 68, 67
4, 457440, Note_off_c, 2, 68, 64
4, 457440, Note_off_c, 2, 71, 64
4, 457440, Note_on_c, 2, 69, 99
4, 457440, Note_on_c, 2, 73, 99
4, 457890, Note_off_c, 2, 73, 64
4, 457890, Note_off_c, 2, 69, 64
4, 457920, Note_on_c, 2, 74, 80
4, 457920, Note_on_c, 2, 71, 80
4, 457992, Note_off_c, 2, 71, 64
4, 457992, Note_off_c, 2, 74, 64
4, 458280, Note_on_c, 2, 73, 67
4, 458280, Note_on_c, 2, 69, 67
4, 458400, Note_off_c, 2, 69, 64
4, 458400, Note_off_c, 2, 73, 64
4, 458400, Note_on_c, 2, 74, 99
4, 458400, Note_on_c, 2, 71, 99
4, 458850, Note_off_c, 2, 71, 64
4, 458850, Note_off_c, 2, 74, 64
4, 458880, Note_on_c, 2, 73, 47
4, 459106, Note_off_c, 2, 73, 64
4, 463680, Note_on_c, 2, 74, 64
4, 463680, Note_on_c, 2, 64, 29
4, 463752, Note_off_c, 2, 74, 64
4, 464040, Note_on_c, 2, 73, 64
4, 464064, Note_off_c, 2, 64, 64
4, 464160, Note_off_c, 2, 73, 64
4, 464160, Note_on_c, 2, 64, 29
4, 464160, Note_on_c, 2, 71, 64
4, 464232, Note_off_c, 2, 71, 64
4, 464520, Note_on_c, 2, 74, 64
4, 464544, Note_off_c, 2, 64, 64
4, 464640, Note_off_c, 2, 74, 64
4, 464640, Note_on_c, 2, 73, 67
4, 464640, Note_on_c, 2, 76, 67
4, 464712, Note_off_c, 2, 76, 64
4, 464712, Note_off_c, 2, 73, 64
4, 465000, Note_on_c, 2, 71, 67
4, 465000, Note_on_c, 2, 74, 67
4, 465120, Note_off_c, 2, 74, 64
4, 465120, Note_off_c, 2, 71, 64
4, 465120, Note_on_c, 2, 73, 99
4, 465120, Note_on_c, 2, 76, 99
4, 465570, Note_off_c, 2, 76, 64
4, 465570, Note_off_c, 2, 73, 64
4, 465600, Note_on_c, 2, 74, 80
4, 465600, Note_on_c, 2, 71, 80
4, 465672, Note_off_c, 2, 71, 64
4, 465672, Note_off_c, 2, 74, 64
4, 465960, Note_on_c, 2, 69, 67
4, 465960, Note_on_c, 2, 73, 67
4, 466080, Note_off_c, 2, 73, 64
4, 466080, Note_off_c, 2, 69, 64
4, 466080, Note_on_c, 2, 74, 99
4, 466080, Note_on_c, 2, 71, 99
4, 466530, Note_off_c, 2, 71, 64
4, 466530, Note_off_c, 2, 74, 64
4, 466560, Note_on_c, 2, 73, 80
4, 466560, Note_on_c, 2, 69, 80
4, 466632, Note_off_c, 2, 69, 64
4, 466632, Note_off_c, 2, 73, 64
4, 466920, Note_on_c, 2, 71, 67
4, 466920, Note_on_c, 2, 68, 67
4, 467040, Note_off_c, 2, 68, 64
4, 467040, Note_off_c, 2, 71, 64
4, 467040, Note_on_c, 2, 73, 99
4, 467040, Note_on_c, 2, 69, 99
4, 467490, Note_off_c, 2, 69, 64
4, 467490, Note_off_c, 2, 73, 64
4, 467520, Note_on_c, 2, 74, 80
4, 467520, Note_on_c, 2, 71, 80
4, 467592, Note_off_c, 2, 71, 64
4, 467592, Note_off_c, 2, 74, 64
4, 467880, Note_on_c, 2, 73, 67
4, 467880, Note_on_c, 2, 69, 67
4, 468000, Note_off_c, 2, 69, 64
4, 468000, Note_off_c, 2, 73, 64
4, 468000, Note_on_c, 2, 71, 99
4, 468000, Note_on_c, 2, 74, 99
4, 468450, Note_off_c, 2, 74, 64
4, 468450, Note_off_c, 2, 71, 64
4, 468480, Note_on_c, 2, 73, 47
4, 468706, Note_off_c, 2, 73, 64
4, 471360, Note_on_c, 2, 71, 64
4, 471360, Note_on_c, 2, 62, 40
4, 471432, Note_off_c, 2, 71, 64
4, 471720, Note_on_c, 2, 73, 64
4, 471744, Note_off_c, 2, 62, 64
4, 471840, Note_off_c, 2, 73, 64
4, 471840, Note_on_c, 2, 74, 64
4, 471840, Note_on_c, 2, 62, 40
4, 471912, Note_off_c, 2, 74, 64
4, 472200, Note_on_c, 2, 71, 64
4, 472224, Note_off_c, 2, 62, 64
4, 472320, Note_off_c, 2, 71, 64
4, 472320, Note_on_c, 2, 73, 64
4, 472320, Note_on_c, 2, 61, 40
4, 472392, Note_off_c, 2, 73, 64
4, 472680, Note_on_c, 2, 71, 64
4, 472704, Note_off_c, 2, 61, 64
4, 472800, Note_off_c, 2, 71, 64
4, 472800, Note_on_c, 2, 69, 64
4, 472800, Note_on_c, 2, 61, 40
4, 472872, Note_off_c, 2, 69, 64
4, 473160, Note_on_c, 2, 73, 64
4, 473184, Note_off_c, 2, 61, 64
4, 473280, Note_off_c, 2, 73, 64
4, 473280, Note_on_c, 2, 71, 64
4, 473280, Note_on_c, 2, 62, 40
4, 473352, Note_off_c, 2, 71, 64
4, 473640, Note_on_c, 2, 73, 64
4, 473664, Note_off_c, 2, 62, 64
4, 473760, Note_off_c, 2, 73, 64
4, 473760, Note_on_c, 2, 62, 40
4, 473760, Note_on_c, 2, 74, 64
4, 473832, Note_off_c, 2, 74, 64
4, 474120, Note_on_c, 2, 71, 64
4, 474144, Note_off_c, 2, 62, 64
4, 474240, Note_off_c, 2, 71, 64
4, 474240, Note_on_c, 2, 73, 64
4, 474240, Note_on_c, 2, 61, 40
4, 474312, Note_off_c, 2, 73, 64
4, 474600, Note_on_c, 2, 71, 64
4, 474624, Note_off_c, 2, 61, 64
4, 474720, Note_off_c, 2, 71, 64
4, 474720, Note_on_c, 2, 69, 64
4, 474720, Note_on_c, 2, 61, 40
4, 474792, Note_off_c, 2, 69, 64
4, 475080, Note_on_c, 2, 73, 64
4, 475104, Note_off_c, 2, 61, 64
4, 475200, Note_off_c, 2, 73, 64
4, 475200, Note_on_c, 2, 71, 64
4, 475200, Note_on_c, 2, 62, 40
4, 475272, Note_off_c, 2, 71, 64
4, 475560, Note_on_c, 2, 73, 64
4, 475584, Note_off_c, 2, 62, 64
4, 475680, Note_off_c, 2, 73, 64
4, 475680, Note_on_c, 2, 62, 40
4, 475680, Note_on_c, 2, 74, 64
4, 475752, Note_off_c, 2, 74, 64
4, 476040, Note_on_c, 2, 73, 64
4, 476064, Note_off_c, 2, 62, 64
4, 476160, Note_off_c, 2, 73, 64
4, 476160, Note_on_c, 2, 61, 40
4, 476160, Note_on_c, 2, 74, 64
4, 476232, Note_off_c, 2, 74, 64
4, 476544, Note_off_c, 2, 61, 64
4, 476640, Note_on_c, 2, 74, 48
4, 476640, Note_on_c, 2, 71, 48
4, 480960, Note_off_c, 2, 71, 64
4, 480960, Note_off_c, 2, 74, 64
4, 480960, Note_on_c, 2, 69, 55
4, 480960, Note_on_c, 2, 73, 55
4, 481920, Note_off_c, 2, 73, 64
4, 481920, Note_off_c, 2, 69, 64
4, 481920, Note_on_c, 2, 74, 63
4, 481920, Note_on_c, 2, 71, 63
4, 486720, Note_off_c, 2, 71, 64
4, 486720, Note_off_c, 2, 74, 64
4, 486720, Note_on_c, 2, 73, 72
4, 486720, Note_on_c, 2, 69, 72
4, 487200, Note_off_c, 2, 73, 64
4, 487200, Note_on_c, 2, 76, 83
4, 487650, Note_off_c, 2, 69, 64
4, 487650, Note_off_c, 2, 76, 64
4, 487680, Note_on_c, 2, 64, 96
4, 487680, Note_on_c, 2, 70, 96
4, 487824, Note_off_c, 2, 70, 64
4, 487824, Note_off_c, 2, 64, 64
4, 487920, Note_on_c, 2, 64, 96
4, 487920, Note_on_c, 2, 70, 96
4, 488064, Note_off_c, 2, 70, 64
4, 488064, Note_off_c, 2, 64, 64
4, 488160, Note_on_c, 2, 64, 96
4, 488160, Note_on_c, 2, 70, 96
4, 488304, Note_off_c, 2, 70, 64
4, 488304, Note_off_c, 2, 64, 64
4, 488400, Note_on_c, 2, 70, 96
4, 488400, Note_on_c, 2, 64, 96
4, 488544, Note_off_c, 2, 64, 64
4, 488544, Note_off_c, 2, 70, 64
4, 488640, Note_on_c, 2, 64, 96
4, 488640, Note_on_c, 2, 70, 96
4, 488784, Note_off_c, 2, 70, 64
4, 488784, Note_off_c, 2, 64, 64
4, 488880, Note_on_c, 2, 70, 96
4, 488880, Note_on_c, 2, 64, 96
4, 489024, Note_off_c, 2, 64, 64
4, 489024, Note_off_c, 2, 70, 64
4, 489120, Note_on_c, 2, 70, 96
4, 489120, Note_on_c, 2, 64, 96
4, 489264, Note_off_c, 2, 64, 64
4, 489264, Note_off_c, 2, 70, 64
4, 489360, Note_on_c, 2, 70, 96
4, 489360, Note_on_c, 2, 64, 96
4, 489504, Note_off_c, 2, 64, 64
4, 489504, Note_off_c, 2, 70, 64
4, 489600, Note_on_c, 2, 65, 126
4, 489600, Note_on_c, 2, 69, 126
4, 489744, Note_off_c, 2, 69, 64
4, 489744, Note_off_c, 2, 65, 64
4, 489840, Note_on_c, 2, 69, 96
4, 489840, Note_on_c, 2, 65, 96
4, 489984, Note_off_c, 2, 65, 64
4, 489984, Note_off_c, 2, 69, 64
4, 490080, Note_on_c, 2, 65, 96
4, 490080, Note_on_c, 2, 69, 96
4, 490224, Note_off_c, 2, 69, 64
4, 490224, Note_off_c, 2, 65, 64
4, 490320, Note_on_c, 2, 65, 96
4, 490320, Note_on_c, 2, 69, 96
4, 490464, Note_off_c, 2, 69, 64
4, 490464, Note_off_c, 2, 65, 64
4, 490560, Note_on_c, 2, 70, 96
4, 490560, Note_on_c, 2, 64, 96
4, 490704, Note_off_c, 2, 64, 64
4, 490704, Note_off_c, 2, 70, 64
4, 490800, Note_on_c, 2, 70, 96
4, 490800, Note_on_c, 2, 64, 96
4, 490944, Note_off_c, 2, 64, 64
4, 490944, Note_off_c, 2, 70, 64
4, 491040, Note_on_c, 2, 64, 96
4, 491040, Note_on_c, 2, 70, 96
4, 491184, Note_off_c, 2, 70, 64
4, 491184, Note_off_c, 2, 64, 64
4, 491280, Note_on_c, 2, 64, 96
4, 491280, Note_on_c, 2, 70, 96
4, 491424, Note_off_c, 2, 70, 64
4, 491424, Note_off_c, 2, 64, 64
4, 491520, Note_on_c, 2, 69, 126
4, 491520, Note_on_c, 2, 65, 126
4, 491664, Note_off_c, 2, 65, 64
4, 491664, Note_off_c, 2, 69, 64
4, 491760, Note_on_c, 2, 65, 96
4, 491760, Note_on_c, 2, 69, 96
4, 491904, Note_off_c, 2, 69, 64
4, 491904, Note_off_c, 2, 65, 64
4, 492000, Note_on_c, 2, 69, 96
4, 492000, Note_on_c, 2, 65, 96
4, 492144, Note_off_c, 2, 65, 64
4, 492144, Note_off_c, 2, 69, 64
4, 492240, Note_on_c, 2, 69, 96
4, 492240, Note_on_c, 2, 65, 96
4, 492384, Note_off_c, 2, 65, 64
4, 492384, Note_off_c, 2, 69, 64
4, 492480, Note_on_c, 2, 70, 96
4, 492480, Note_on_c, 2, 64, 96
4, 492624, Note_off_c, 2, 64, 64
4, 492624, Note_off_c, 2, 70, 64
4, 492720, Note_on_c, 2, 70, 96
4, 492720, Note_on_c, 2, 64, 96
4, 492864, Note_off_c, 2, 64, 64
4, 492864, Note_off_c, 2, 70, 64
4, 492960, Note_on_c, 2, 70, 96
4, 492960, Note_on_c, 2, 64, 96
4, 493104, Note_off_c, 2, 64, 64
4, 493104, Note_off_c, 2, 70, 64
4, 493200, Note_on_c, 2, 64, 96
4, 493200, Note_on_c, 2, 70, 96
4, 493344, Note_off_c, 2, 70, 64
4, 493344, Note_off_c, 2, 64, 64
4, 493440, Note_on_c, 2, 70, 127
4, 493440, Note_on_c, 2, 64, 127
4, 493584, Note_off_c, 2, 64, 64
4, 493584, Note_off_c, 2, 70, 64
4, 493680, Note_on_c, 2, 70, 127
4, 493680, Note_on_c, 2, 64, 127
4, 493824, Note_off_c, 2, 64, 64
4, 493824, Note_off_c, 2, 70, 64
4, 493920, Note_on_c, 2, 64, 127
4, 493920, Note_on_c, 2, 70, 127
4, 494064, Note_off_c, 2, 70, 64
4, 494064, Note_off_c, 2, 64, 64
4, 494160, Note_on_c, 2, 64, 127
4, 494160, Note_on_c, 2, 70, 127
4, 494304, Note_off_c, 2, 70, 64
4, 494304, Note_off_c, 2, 64, 64
4, 494400, Note_on_c, 2, 70, 127
4, 494400, Note_on_c, 2, 64, 127
4, 494544, Note_off_c, 2, 64, 64
4, 494544, Note_off_c, 2, 70, 64
4, 494640, Note_on_c, 2, 70, 127
4, 494640, Note_on_c, 2, 64, 127
4, 494784, Note_off_c, 2, 64, 64
4, 494784, Note_off_c, 2, 70, 64
4, 494880, Note_on_c, 2, 64, 127
4, 494880, Note_on_c, 2, 70, 127
4, 495024, Note_off_c, 2, 70, 64
4, 495024, Note_off_c, 2, 64, 64
4, 495120, Note_on_c, 2, 64, 127
4, 495120, Note_on_c, 2, 70, 127
4, 495264, Note_off_c, 2, 70, 64
4, 495264, Note_off_c, 2, 64, 64
4, 495360, Note_on_c, 2, 69, 126
4, 495360, Note_on_c, 2, 65, 126
4, 495504, Note_off_c, 2, 65, 64
4, 495504, Note_off_c, 2, 69, 64
4, 495600, Note_on_c, 2, 65, 96
4, 495600, Note_on_c, 2, 69, 96
4, 495744, Note_off_c, 2, 69, 64
4, 495744, Note_off_c, 2, 65, 64
4, 495840, Note_on_c, 2, 69, 96
4, 495840, Note_on_c, 2, 65, 96
4, 495984, Note_off_c, 2, 65, 64
4, 495984, Note_off_c, 2, 69, 64
4, 496080, Note_on_c, 2, 69, 96
4, 496080, Note_on_c, 2, 65, 96
4, 496224, Note_off_c, 2, 65, 64
4, 496224, Note_off_c, 2, 69, 64
4, 496320, Note_on_c, 2, 70, 96
4, 496320, Note_on_c, 2, 64, 96
4, 496464, Note_off_c, 2, 64, 64
4, 496464, Note_off_c, 2, 70, 64
4, 496560, Note_on_c, 2, 70, 96
4, 496560, Note_on_c, 2, 64, 96
4, 496704, Note_off_c, 2, 64, 64
4, 496704, Note_off_c, 2, 70, 64
4, 496800, Note_on_c, 2, 70, 96
4, 496800, Note_on_c, 2, 64, 96
4, 496944, Note_off_c, 2, 64, 64
4, 496944, Note_off_c, 2, 70, 64
4, 497040, Note_on_c, 2, 64, 96
4, 497040, Note_on_c, 2, 70, 96
4, 497184, Note_off_c, 2, 70, 64
4, 497184, Note_off_c, 2, 64, 64
4, 497280, Note_on_c, 2, 69, 126
4, 497280, Note_on_c, 2, 65, 126
4, 497424, Note_off_c, 2, 65, 64
4, 497424, Note_off_c, 2, 69, 64
4, 497520, Note_on_c, 2, 65, 96
4, 497520, Note_on_c, 2, 69, 96
4, 497664, Note_off_c, 2, 69, 64
4, 497664, Note_off_c, 2, 65, 64
4, 497760, Note_on_c, 2, 65, 96
4, 497760, Note_on_c, 2, 69, 96
4, 497904, Note_off_c, 2, 69, 64
4, 497904, Note_off_c, 2, 65, 64
4, 498000, Note_on_c, 2, 65, 96
4, 498000, Note_on_c, 2, 69, 96
4, 498144, Note_off_c, 2, 69, 64
4, 498144, Note_off_c, 2, 65, 64
4, 498240, Note_on_c, 2, 69, 126
4, 498240, Note_on_c, 2, 72, 126
4, 498384, Note_off_c, 2, 72, 64
4, 498384, Note_off_c, 2, 69, 64
4, 498480, Note_on_c, 2, 72, 96
4, 498480, Note_on_c, 2, 69, 96
4, 498624, Note_off_c, 2, 69, 64
4, 498624, Note_off_c, 2, 72, 64
4, 498720, Note_on_c, 2, 69, 96
4, 498720, Note_on_c, 2, 72, 96
4, 498864, Note_off_c, 2, 72, 64
4, 498864, Note_off_c, 2, 69, 64
4, 498960, Note_on_c, 2, 69, 96
4, 498960, Note_on_c, 2, 72, 96
4, 499104, Note_off_c, 2, 72, 64
4, 499104, Note_off_c, 2, 69, 64
4, 499200, Note_on_c, 2, 69, 126
4, 499200, Note_on_c, 2, 73, 126
4, 499320, Note_off_c, 2, 73, 64
4, 499320, Note_off_c, 2, 69, 64
4, 499440, Note_on_c, 2, 73, 96
4, 499440, Note_on_c, 2, 69, 96
4, 499560, Note_off_c, 2, 69, 64
4, 499560, Note_off_c, 2, 73, 64
4, 499680, Note_on_c, 2, 73, 96
4, 499680, Note_on_c, 2, 69, 96
4, 499800, Note_off_c, 2, 69, 64
4, 499800, Note_off_c, 2, 73, 64
4, 499920, Note_on_c, 2, 69, 96
4, 499920, Note_on_c, 2, 73, 96
4, 500040, Note_off_c, 2, 73, 64
4, 500040, Note_off_c, 2, 69, 64
4, 500160, Note_on_c, 2, 68, 126
4, 500160, Note_on_c, 2, 71, 126
4, 500280, Note_off_c, 2, 71, 64
4, 500280, Note_off_c, 2, 68, 64
4, 500400, Note_on_c, 2, 71, 96
4, 500400, Note_on_c, 2, 68, 96
4, 500520, Note_off_c, 2, 68, 64
4, 500520, Note_off_c, 2, 71, 64
4, 500640, Note_on_c, 2, 71, 96
4, 500640, Note_on_c, 2, 68, 96
4, 500760, Note_off_c, 2, 68, 64
4, 500760, Note_off_c, 2, 71, 64
4, 500880, Note_on_c, 2, 71, 96
4, 500880, Note_on_c, 2, 68, 96
4, 501000, Note_off_c, 2, 68, 64
4, 501000, Note_off_c, 2, 71, 64
4, 501120, Note_on_c, 2, 69, 96
4, 501120, Note_on_c, 2, 73, 96
4, 501240, Note_off_c, 2, 73, 64
4, 501240, Note_off_c, 2, 69, 64
4, 501360, Note_on_c, 2, 73, 96
4, 501360, Note_on_c, 2, 76, 96
4, 501480, Note_off_c, 2, 76, 64
4, 501480, Note_off_c, 2, 73, 64
4, 501600, Note_on_c, 2, 68, 126
4, 501600, Note_on_c, 2, 77, 126
4, 501720, Note_off_c, 2, 77, 64
4, 501720, Note_off_c, 2, 68, 64
4, 501840, Note_on_c, 2, 77, 96
4, 501840, Note_on_c, 2, 68, 96
4, 501960, Note_off_c, 2, 68, 64
4, 501960, Note_off_c, 2, 77, 64
4, 502080, Note_on_c, 2, 77, 96
4, 502080, Note_on_c, 2, 68, 96
4, 502200, Note_off_c, 2, 68, 64
4, 502200, Note_off_c, 2, 77, 64
4, 502320, Note_on_c, 2, 68, 96
4, 502320, Note_on_c, 2, 77, 96
4, 502440, Note_off_c, 2, 77, 64
4, 502440, Note_off_c, 2, 68, 64
4, 502560, Note_on_c, 2, 77, 96
4, 502560, Note_on_c, 2, 68, 96
4, 502680, Note_off_c, 2, 68, 64
4, 502680, Note_off_c, 2, 77, 64
4, 502800, Note_on_c, 2, 68, 96
4, 502800, Note_on_c, 2, 77, 96
4, 502920, Note_off_c, 2, 77, 64
4, 502920, Note_off_c, 2, 68, 64
4, 503040, Note_on_c, 2, 69, 96
4, 503040, Note_on_c, 2, 73, 96
4, 503160, Note_off_c, 2, 73, 64
4, 503160, Note_off_c, 2, 69, 64
4, 503280, Note_on_c, 2, 73, 96
4, 503280, Note_on_c, 2, 76, 96
4, 503400, Note_off_c, 2, 76, 64
4, 503400, Note_off_c, 2, 73, 64
4, 503520, Note_on_c, 2, 77, 126
4, 503520, Note_on_c, 2, 68, 126
4, 503640, Note_off_c, 2, 68, 64
4, 503640, Note_off_c, 2, 77, 64
4, 503760, Note_on_c, 2, 68, 96
4, 503760, Note_on_c, 2, 77, 96
4, 503880, Note_off_c, 2, 77, 64
4, 503880, Note_off_c, 2, 68, 64
4, 504000, Note_on_c, 2, 77, 96
4, 504000, Note_on_c, 2, 68, 96
4, 504120, Note_off_c, 2, 68, 64
4, 504120, Note_off_c, 2, 77, 64
4, 504240, Note_on_c, 2, 68, 96
4, 504240, Note_on_c, 2, 77, 96
4, 504360, Note_off_c, 2, 77, 64
4, 504360, Note_off_c, 2, 68, 64
4, 504480, Note_on_c, 2, 68, 96
4, 504480, Note_on_c, 2, 77, 96
4, 504600, Note_off_c, 2, 77, 64
4, 504600, Note_off_c, 2, 68, 64
4, 504720, Note_on_c, 2, 68, 96
4, 504720, Note_on_c, 2, 77, 96
4, 504840, Note_off_c, 2, 77, 64
4, 504840, Note_off_c, 2, 68, 64
4, 504960, Note_on_c, 2, 69, 96
4, 504960, Note_on_c, 2, 73, 96
4, 505080, Note_off_c, 2, 73, 64
4, 505080, Note_off_c, 2, 69, 64
4, 505200, Note_on_c, 2, 73, 96
4, 505200, Note_on_c, 2, 76, 96
4, 505320, Note_off_c, 2, 76, 64
4, 505320, Note_off_c, 2, 73, 64
4, 505440, Note_on_c, 2, 77, 126
4, 505440, Note_on_c, 2, 68, 126
4, 505560, Note_off_c, 2, 68, 64
4, 505560, Note_off_c, 2, 77, 64
4, 505680, Note_on_c, 2, 68, 96
4, 505680, Note_on_c, 2, 77, 96
4, 505800, Note_off_c, 2, 77, 64
4, 505800, Note_off_c, 2, 68, 64
4, 505920, Note_on_c, 2, 69, 96
4, 505920, Note_on_c, 2, 73, 96
4, 506040, Note_off_c, 2, 73, 64
4, 506040, Note_off_c, 2, 69, 64
4, 506160, Note_on_c, 2, 73, 96
4, 506160, Note_on_c, 2, 76, 96
4, 506280, Note_off_c, 2, 76, 64
4, 506280, Note_off_c, 2, 73, 64
4, 506400, Note_on_c, 2, 68, 126
4, 506400, Note_on_c, 2, 77, 126
4, 506520, Note_off_c, 2, 77, 64
4, 506520, Note_off_c, 2, 68, 64
4, 506640, Note_on_c, 2, 68, 96
4, 506640, Note_on_c, 2, 77, 96
4, 506760, Note_off_c, 2, 77, 64
4, 506760, Note_off_c, 2, 68, 64
4, 506880, Note_on_c, 2, 69, 96
4, 506880, Note_on_c, 2, 73, 96
4, 507000, Note_off_c, 2, 73, 64
4, 507000, Note_off_c, 2, 69, 64
4, 507120, Note_on_c, 2, 73, 96
4, 507120, Note_on_c, 2, 76, 96
4, 507240, Note_off_c, 2, 76, 64
4, 507240, Note_off_c, 2, 73, 64
4, 507360, Note_on_c, 2, 68, 126
4, 507360, Note_on_c, 2, 77, 126
4, 507480, Note_off_c, 2, 77, 64
4, 507480, Note_off_c, 2, 68, 64
4, 507600, Note_on_c, 2, 68, 96
4, 507600, Note_on_c, 2, 77, 96
4, 507720, Note_off_c, 2, 77, 64
4, 507720, Note_off_c, 2, 68, 64
4, 507840, Note_on_c, 2, 69, 96
4, 507840, Note_on_c, 2, 73, 96
4, 507960, Note_off_c, 2, 73, 64
4, 507960, Note_off_c, 2, 69, 64
4, 508080, Note_on_c, 2, 73, 96
4, 508080, Note_on_c, 2, 76, 96
4, 508200, Note_off_c, 2, 76, 64
4, 508200, Note_off_c, 2, 73, 64
4, 508320, Note_on_c, 2, 76, 96
4, 508320, Note_on_c, 2, 73, 96
4, 508440, Note_off_c, 2, 73, 64
4, 508440, Note_off_c, 2, 76, 64
4, 508560, Note_on_c, 2, 76, 96
4, 508560, Note_on_c, 2, 73, 96
4, 508680, Note_off_c, 2, 73, 64
4, 508680, Note_off_c, 2, 76, 64
4, 508800, Note_on_c, 2, 73, 96
4, 508800, Note_on_c, 2, 76, 96
4, 508920, Note_off_c, 2, 76, 64
4, 508920, Note_off_c, 2, 73, 64
4, 509100, Note_on_c, 2, 69, 54
4, 509100, Note_on_c, 2, 81, 54
4, 509214, Note_off_c, 2, 81, 64
4, 509214, Note_off_c, 2, 69, 64
4, 509220, Note_on_c, 2, 69, 54
4, 509220, Note_on_c, 2, 81, 54
4, 509334, Note_off_c, 2, 81, 64
4, 509334, Note_off_c, 2, 69, 64
4, 509340, Note_on_c, 2, 69, 72
4, 509340, Note_on_c, 2, 81, 72
4, 509454, Note_off_c, 2, 81, 64
4, 509454, Note_off_c, 2, 69, 64
4, 511380, Note_on_c, 2, 76, 41
4, 511380, Note_on_c, 2, 79, 41
4, 511494, Note_off_c, 2, 79, 64
4, 511494, Note_off_c, 2, 76, 64
4, 511500, Note_on_c, 2, 76, 41
4, 511500, Note_on_c, 2, 79, 41
4, 511614, Note_off_c, 2, 79, 64
4, 511614, Note_off_c, 2, 76, 64
4, 511620, Note_on_c, 2, 76, 54
4, 511620, Note_on_c, 2, 79, 54
4, 511734, Note_off_c, 2, 79, 64
4, 511734, Note_off_c, 2, 76, 64
4, 513660, Note_on_c, 2, 76, 41
4, 513660, Note_on_c, 2, 79, 41
4, 513774, Note_off_c, 2, 79, 64
4, 513774, Note_off_c, 2, 76, 64
4, 513780, Note_on_c, 2, 79, 41
4, 513780, Note_on_c, 2, 76, 41
4, 513894, Note_off_c, 2, 76, 64
4, 513894, Note_off_c, 2, 79, 64
4, 513900, Note_on_c, 2, 79, 54
4, 513900, Note_on_c, 2, 76, 54
4, 514014, Note_off_c, 2, 76, 64
4, 514014, Note_off_c, 2, 79, 64
4, 514740, Note_on_c, 2, 76, 41
4, 514740, Note_on_c, 2, 79, 41
4, 514854, Note_off_c, 2, 79, 64
4, 514854, Note_off_c, 2, 76, 64
4, 514860, Note_on_c, 2, 79, 41
4, 514860, Note_on_c, 2, 76, 41
4, 514974, Note_off_c, 2, 76, 64
4, 514974, Note_off_c, 2, 79, 64
4, 514980, Note_on_c, 2, 79, 54
4, 514980, Note_on_c, 2, 76, 54
4, 515094, Note_off_c, 2, 76, 64
4, 515094, Note_off_c, 2, 79, 64
4, 515820, Note_on_c, 2, 76, 41
4, 515820, Note_on_c, 2, 79, 41
4, 515934, Note_off_c, 2, 79, 64
4, 515934, Note_off_c, 2, 76, 64
4, 515940, Note_on_c, 2, 79, 41
4, 515940, Note_on_c, 2, 76, 41
4, 516054, Note_off_c, 2, 76, 64
4, 516054, Note_off_c, 2, 79, 64
4, 516060, Note_on_c, 2, 79, 54
4, 516060, Note_on_c, 2, 76, 54
4, 516174, Note_off_c, 2, 76, 64
4, 516174, Note_off_c, 2, 79, 64
4, 516900, Note_on_c, 2, 76, 41
4, 516900, Note_on_c, 2, 79, 41
4, 517014, Note_off_c, 2, 79, 64
4, 517014, Note_off_c, 2, 76, 64
4, 517020, Note_on_c, 2, 79, 41
4, 517020, Note_on_c, 2, 76, 41
4, 517134, Note_off_c, 2, 76, 64
4, 517134, Note_off_c, 2, 79, 64
4, 517140, Note_on_c, 2, 79, 54
4, 517140, Note_on_c, 2, 76, 54
4, 517254, Note_off_c, 2, 76, 64
4, 517254, Note_off_c, 2, 79, 64
4, 517680, Note_on_c, 2, 73, 41
4, 517680, Note_on_c, 2, 78, 41
4, 517776, Note_off_c, 2, 78, 64
4, 517776, Note_off_c, 2, 73, 64
4, 520920, Note_on_c, 2, 70, 80
4, 521040, Note_off_c, 2, 70, 64
4, 521040, Note_on_c, 2, 71, 80
4, 521160, Note_off_c, 2, 71, 64
4, 521160, Note_on_c, 2, 74, 80
4, 521160, Note_on_c, 2, 70, 80
4, 521280, Note_off_c, 2, 74, 64
4, 521280, Note_on_c, 2, 73, 80
4, 521400, Note_off_c, 2, 73, 64
4, 521400, Note_on_c, 2, 71, 80
4, 521520, Note_off_c, 2, 71, 64
4, 521520, Note_on_c, 2, 73, 80
4, 521640, Note_off_c, 2, 70, 64
4, 521640, Note_off_c, 2, 73, 64
4, 521640, Note_on_c, 2, 71, 80
4, 521640, Note_on_c, 2, 74, 80
4, 521760, Note_off_c, 2, 74, 64
4, 521760, Note_off_c, 2, 71, 64
4, 524760, Note_on_c, 2, 70, 80
4, 524880, Note_off_c, 2, 70, 64
4, 524880, Note_on_c, 2, 71, 80
4, 525000, Note_off_c, 2, 71, 64
4, 525000, Note_on_c, 2, 74, 80
4, 525000, Note_on_c, 2, 70, 80
4, 525120, Note_off_c, 2, 74, 64
4, 525120, Note_on_c, 2, 73, 80
4, 525240, Note_off_c, 2, 73, 64
4, 525240, Note_on_c, 2, 71, 80
4, 525360, Note_off_c, 2, 71, 64
4, 525360, Note_on_c, 2, 73, 80
4, 525480, Note_off_c, 2, 70, 64
4, 525480, Note_off_c, 2, 73, 64
4, 525480, Note_on_c, 2, 71, 80
4, 525480, Note_on_c, 2, 74, 80
4, 525600, Note_off_c, 2, 74, 64
4, 525600, Note_off_c, 2, 71, 64
4, 526440, Note_on_c, 2, 76, 46
4, 526440, Note_on_c, 2, 64, 46
4, 529546, Note_off_c, 2, 64, 64
4, 529546, Note_off_c, 2, 76, 64
4, 530280, Note_on_c, 2, 64, 46
4, 530280, Note_on_c, 2, 76, 46
4, 532008, Note_off_c, 2, 76, 64
4, 532008, Note_off_c, 2, 64, 64
4, 532200, Note_on_c, 2, 69, 46
4, 532200, Note_on_c, 2, 81, 46
4, 533928, Note_off_c, 2, 81, 64
4, 533928, Note_off_c, 2, 69, 64
4, 534120, Note_on_c, 2, 74, 35
4, 534120, Note_on_c, 2, 62, 35
4, 539370, Note_off_c, 2, 62, 64
4, 539370, Note_off_c, 2, 74, 64
4, 560040, Note_on_c, 2, 69, 65
4, 560040, Note_on_c, 2, 73, 65
4, 561960, Note_off_c, 2, 73, 64
4, 561960, Note_off_c, 2, 69, 64
4, 561960, Note_on_c, 2, 71, 65
4, 561960, Note_on_c, 2, 74, 65
4, 563880, Note_off_c, 2, 74, 64
4, 563880, Note_off_c, 2, 71, 64
4, 563880, Note_on_c, 2, 76, 65
4, 563880, Note_on_c, 2, 73, 65
4, 564330, Note_off_c, 2, 73, 64
4, 564330, Note_off_c, 2, 76, 64
4, 564360, Note_on_c, 2, 64, 65
4, 564360, Note_on_c, 2, 61, 65
4, 564810, Note_off_c, 2, 61, 64
4, 564810, Note_off_c, 2, 64, 64
4, 564840, Note_on_c, 2, 62, 65
4, 564840, Note_on_c, 2, 66, 65
4, 565800, Note_off_c, 2, 66, 64
4, 565800, Note_off_c, 2, 62, 64
4, 565800, Note_on_c, 2, 64, 65
4, 565800, Note_on_c, 2, 68, 65
4, 566760, Note_off_c, 2, 68, 64
4, 566760, Note_off_c, 2, 64, 64
4, 566760, Note_on_c, 2, 69, 65
4, 566760, Note_on_c, 2, 66, 65
4, 567720, Note_off_c, 2, 66, 64
4, 567720, Note_off_c, 2, 69, 64
4, 567720, Note_on_c, 2, 71, 65
4, 567720, Note_on_c, 2, 68, 65
4, 568680, Note_off_c, 2, 68, 64
4, 568680, Note_off_c, 2, 71, 64
4, 568680, Note_on_c, 2, 73, 65
4, 568680, Note_on_c, 2, 69, 65
4, 569640, Note_off_c, 2, 69, 64
4, 569640, Note_off_c, 2, 73, 64
4, 569640, Note_on_c, 2, 74, 65
4, 569640, Note_on_c, 2, 71, 65
4, 571560, Note_off_c, 2, 71, 64
4, 571560, Note_off_c, 2, 74, 64
4, 571560, Note_on_c, 2, 69, 70
4, 571560, Note_on_c, 2, 73, 70
4, 571680, Note_off_c, 2, 73, 64
4, 571680, Note_off_c, 2, 69, 64
4, 571860, Note_on_c, 2, 69, 70
4, 571860, Note_on_c, 2, 81, 70
4, 571920, Note_off_c, 2, 81, 64
4, 571920, Note_off_c, 2, 69, 64
4, 571980, Note_on_c, 2, 81, 70
4, 571980, Note_on_c, 2, 69, 70
4, 572040, Note_off_c, 2, 69, 64
4, 572040, Note_off_c, 2, 81, 64
4, 572100, Note_on_c, 2, 69, 70
4, 572100, Note_on_c, 2, 81, 70
4, 572220, Note_off_c, 2, 81, 64
4, 572220, Note_off_c, 2, 69, 64
4, 572940, Note_on_c, 2, 81, 70
4, 572940, Note_on_c, 2, 69, 70
4, 573054, Note_off_c, 2, 69, 64
4, 573054, Note_off_c, 2, 81, 64
4, 573060, Note_on_c, 2, 69, 70
4, 573060, Note_on_c, 2, 81, 70
4, 573174, Note_off_c, 2, 81, 64
4, 573174, Note_off_c, 2, 69, 64
4, 573180, Note_on_c, 2, 69, 70
4, 573180, Note_on_c, 2, 81, 70
4, 573294, Note_off_c, 2, 81, 64
4, 573294, Note_off_c, 2, 69, 64
4, 574020, Note_on_c, 2, 71, 70
4, 574020, Note_on_c, 2, 68, 70
4, 574080, Note_off_c, 2, 68, 64
4, 574080, Note_off_c, 2, 71, 64
4, 574140, Note_on_c, 2, 68, 70
4, 574140, Note_on_c, 2, 71, 70
4, 574200, Note_off_c, 2, 71, 64
4, 574200, Note_off_c, 2, 68, 64
4, 574260, Note_on_c, 2, 71, 70
4, 574260, Note_on_c, 2, 68, 70
4, 574380, Note_off_c, 2, 68, 64
4, 574380, Note_off_c, 2, 71, 64
4, 575100, Note_on_c, 2, 71, 70
4, 575100, Note_on_c, 2, 68, 70
4, 575160, Note_off_c, 2, 68, 64
4, 575160, Note_off_c, 2, 71, 64
4, 575220, Note_on_c, 2, 71, 70
4, 575220, Note_on_c, 2, 68, 70
4, 575280, Note_off_c, 2, 68, 64
4, 575280, Note_off_c, 2, 71, 64
4, 575340, Note_on_c, 2, 68, 70
4, 575340, Note_on_c, 2, 71, 70
4, 575460, Note_off_c, 2, 71, 64
4, 575460, Note_off_c, 2, 68, 64
4, 575880, Note_on_c, 2, 69, 108
4, 575880, Note_on_c, 2, 73, 108
4, 576456, Note_off_c, 2, 73, 64
4, 576456, Note_off_c, 2, 69, 64
4, 576600, Note_on_c, 2, 64, 108
4, 576600, Note_on_c, 2, 71, 108
4, 576720, Note_off_c, 2, 71, 64
4, 576720, Note_off_c, 2, 64, 64
4, 576840, Note_on_c, 2, 61, 108
4, 576840, Note_on_c, 2, 69, 108
4, 576960, Note_off_c, 2, 69, 64
4, 576960, Note_off_c, 2, 61, 64
4, 577080, Note_on_c, 2, 69, 108
4, 577080, Note_on_c, 2, 73, 108
4, 577200, Note_off_c, 2, 73, 64
4, 577200, Note_off_c, 2, 69, 64
4, 577320, Note_on_c, 2, 64, 108
4, 577320, Note_on_c, 2, 71, 108
4, 577440, Note_off_c, 2, 71, 64
4, 577440, Note_off_c, 2, 64, 64
4, 577560, Note_on_c, 2, 69, 108
4, 577560, Note_on_c, 2, 61, 108
4, 577680, Note_off_c, 2, 61, 64
4, 577680, Note_off_c, 2, 69, 64
4, 577800, Note_on_c, 2, 68, 108
4, 577800, Note_on_c, 2, 71, 108
4, 577920, Note_off_c, 2, 71, 64
4, 577920, Note_off_c, 2, 68, 64
4, 578040, Note_on_c, 2, 64, 72
4, 578040, Note_on_c, 2, 69, 72
4, 578160, Note_off_c, 2, 69, 64
4, 578160, Note_off_c, 2, 64, 64
4, 578280, Note_on_c, 2, 71, 72
4, 578280, Note_on_c, 2, 68, 72
4, 578400, Note_off_c, 2, 68, 64
4, 578400, Note_off_c, 2, 71, 64
4, 578520, Note_on_c, 2, 74, 72
4, 578520, Note_on_c, 2, 78, 72
4, 578640, Note_off_c, 2, 78, 64
4, 578640, Note_off_c, 2, 74, 64
4, 578760, Note_on_c, 2, 73, 72
4, 578760, Note_on_c, 2, 76, 72
4, 578880, Note_off_c, 2, 76, 64
4, 578880, Note_off_c, 2, 73, 64
4, 579000, Note_on_c, 2, 71, 72
4, 579000, Note_on_c, 2, 74, 72
4, 579120, Note_off_c, 2, 74, 64
4, 579120, Note_off_c, 2, 71, 64
4, 579240, Note_on_c, 2, 73, 72
4, 579240, Note_on_c, 2, 69, 72
4, 579360, Note_off_c, 2, 69, 64
4, 579360, Note_off_c, 2, 73, 64
4, 579480, Note_on_c, 2, 68, 72
4, 579480, Note_on_c, 2, 71, 72
4, 579600, Note_off_c, 2, 71, 64
4, 579600, Note_off_c, 2, 68, 64
4, 579720, Note_on_c, 2, 73, 70
4, 579720, Note_on_c, 2, 69, 70
4, 579840, Note_off_c, 2, 69, 64
4, 579840, Note_off_c, 2, 73, 64
4, 580020, Note_on_c, 2, 69, 70
4, 580020, Note_on_c, 2, 81, 70
4, 580080, Note_off_c, 2, 81, 64
4, 580080, Note_off_c, 2, 69, 64
4, 580140, Note_on_c, 2, 69, 70
4, 580140, Note_on_c, 2, 81, 70
4, 580200, Note_off_c, 2, 81, 64
4, 580200, Note_off_c, 2, 69, 64
4, 580260, Note_on_c, 2, 69, 70
4, 580260, Note_on_c, 2, 81, 70
4, 580380, Note_off_c, 2, 81, 64
4, 580380, Note_off_c, 2, 69, 64
4, 581100, Note_on_c, 2, 81, 70
4, 581100, Note_on_c, 2, 69, 70
4, 581214, Note_off_c, 2, 69, 64
4, 581214, Note_off_c, 2, 81, 64
4, 581220, Note_on_c, 2, 69, 70
4, 581220, Note_on_c, 2, 81, 70
4, 581334, Note_off_c, 2, 81, 64
4, 581334, Note_off_c, 2, 69, 64
4, 581340, Note_on_c, 2, 69, 70
4, 581340, Note_on_c, 2, 81, 70
4, 581454, Note_off_c, 2, 81, 64
4, 581454, Note_off_c, 2, 69, 64
4, 582180, Note_on_c, 2, 68, 70
4, 582180, Note_on_c, 2, 71, 70
4, 582240, Note_off_c, 2, 71, 64
4, 582240, Note_off_c, 2, 68, 64
4, 582300, Note_on_c, 2, 71, 70
4, 582300, Note_on_c, 2, 68, 70
4, 582360, Note_off_c, 2, 68, 64
4, 582360, Note_off_c, 2, 71, 64
4, 582420, Note_on_c, 2, 71, 70
4, 582420, Note_on_c, 2, 68, 70
4, 582540, Note_off_c, 2, 68, 64
4, 582540, Note_off_c, 2, 71, 64
4, 583260, Note_on_c, 2, 71, 70
4, 583260, Note_on_c, 2, 68, 70
4, 583320, Note_off_c, 2, 68, 64
4, 583320, Note_off_c, 2, 71, 64
4, 583380, Note_on_c, 2, 71, 70
4, 583380, Note_on_c, 2, 68, 70
4, 583440, Note_off_c, 2, 68, 64
4, 583440, Note_off_c, 2, 71, 64
4, 583500, Note_on_c, 2, 71, 70
4, 583500, Note_on_c, 2, 68, 70
4, 583620, Note_off_c, 2, 68, 64
4, 583620, Note_off_c, 2, 71, 64
4, 584040, Note_on_c, 2, 69, 64
4, 584040, Note_on_c, 2, 73, 64
4, 584232, Note_off_c, 2, 73, 64
4, 584232, Note_off_c, 2, 69, 64
4, 584520, Note_on_c, 2, 69, 64
4, 584520, Note_on_c, 2, 73, 64
4, 584712, Note_off_c, 2, 73, 64
4, 584712, Note_off_c, 2, 69, 64
4, 585000, Note_on_c, 2, 69, 64
4, 585000, Note_on_c, 2, 73, 64
4, 585192, Note_off_c, 2, 73, 64
4, 585192, Note_off_c, 2, 69, 64
4, 585480, Note_on_c, 2, 73, 64
4, 585480, Note_on_c, 2, 69, 64
4, 585672, Note_off_c, 2, 69, 64
4, 585672, Note_off_c, 2, 73, 64
4, 585960, Note_on_c, 2, 71, 64
4, 585960, Note_on_c, 2, 68, 64
4, 586152, Note_off_c, 2, 68, 64
4, 586152, Note_off_c, 2, 71, 64
4, 586440, Note_on_c, 2, 68, 61
4, 586440, Note_on_c, 2, 71, 61
4, 586632, Note_off_c, 2, 71, 64
4, 586632, Note_off_c, 2, 68, 64
4, 586920, Note_on_c, 2, 71, 57
4, 586920, Note_on_c, 2, 68, 57
4, 587112, Note_off_c, 2, 68, 64
4, 587112, Note_off_c, 2, 71, 64
4, 587400, Note_on_c, 2, 68, 53
4, 587400, Note_on_c, 2, 71, 53
4, 587592, Note_off_c, 2, 71, 64
4, 587592, Note_off_c, 2, 68, 64
4, 587880, Note_on_c, 2, 73, 64
4, 587880, Note_on_c, 2, 69, 64
4, 588072, Note_off_c, 2, 69, 64
4, 588072, Note_off_c, 2, 73, 64
4, 588360, Note_on_c, 2, 69, 61
4, 588360, Note_on_c, 2, 73, 61
4, 588552, Note_off_c, 2, 73, 64
4, 588552, Note_off_c, 2, 69, 64
4, 588840, Note_on_c, 2, 73, 57
4, 588840, Note_on_c, 2, 69, 57
4, 589032, Note_off_c, 2, 69, 64
4, 589032, Note_off_c, 2, 73, 64
4, 589320, Note_on_c, 2, 73, 53
4, 589320, Note_on_c, 2, 69, 53
4, 589512, Note_off_c, 2, 69, 64
4, 589512, Note_off_c, 2, 73, 64
4, 589800, Note_on_c, 2, 71, 64
4, 589800, Note_on_c, 2, 74, 64
4, 589992, Note_off_c, 2, 74, 64
4, 589992, Note_off_c, 2, 71, 64
4, 590280, Note_on_c, 2, 74, 61
4, 590280, Note_on_c, 2, 71, 61
4, 590472, Note_off_c, 2, 71, 64
4, 590472, Note_off_c, 2, 74, 64
4, 590760, Note_on_c, 2, 71, 57
4, 590760, Note_on_c, 2, 74, 57
4, 590952, Note_off_c, 2, 74, 64
4, 590952, Note_off_c, 2, 71, 64
4, 591240, Note_on_c, 2, 74, 53
4, 591240, Note_on_c, 2, 71, 53
4, 591432, Note_off_c, 2, 71, 64
4, 591432, Note_off_c, 2, 74, 64
4, 591720, Note_on_c, 2, 76, 64
4, 591720, Note_on_c, 2, 73, 64
4, 591912, Note_off_c, 2, 73, 64
4, 591912, Note_off_c, 2, 76, 64
4, 592200, Note_on_c, 2, 76, 61
4, 592200, Note_on_c, 2, 73, 61
4, 592392, Note_off_c, 2, 73, 64
4, 592392, Note_off_c, 2, 76, 64
4, 592680, Note_on_c, 2, 76, 57
4, 592680, Note_on_c, 2, 73, 57
4, 592872, Note_off_c, 2, 73, 64
4, 592872, Note_off_c, 2, 76, 64
4, 593160, Note_on_c, 2, 76, 53
4, 593160, Note_on_c, 2, 73, 53
4, 593352, Note_off_c, 2, 73, 64
4, 593352, Note_off_c, 2, 76, 64
4, 593640, Note_on_c, 2, 67, 90
4, 593640, Note_on_c, 2, 79, 90
4, 595368, Note_off_c, 2, 79, 64
4, 595368, Note_off_c, 2, 67, 64
4, 595560, Note_on_c, 2, 78, 120
4, 595668, Note_off_c, 2, 78, 64
4, 595800, Note_on_c, 2, 76, 120
4, 595908, Note_off_c, 2, 76, 64
4, 596040, Note_on_c, 2, 74, 120
4, 596148, Note_off_c, 2, 74, 64
4, 596280, Note_on_c, 2, 73, 120
4, 596388, Note_off_c, 2, 73, 64
4, 596520, Note_on_c, 2, 71, 120
4, 596628, Note_off_c, 2, 71, 64
4, 596760, Note_on_c, 2, 69, 120
4, 596868, Note_off_c, 2, 69, 64
4, 597000, Note_on_c, 2, 67, 120
4, 597108, Note_off_c, 2, 67, 64
4, 597240, Note_on_c, 2, 66, 120
4, 597348, Note_off_c, 2, 66, 64
4, 597480, Note_on_c, 2, 76, 80
4, 597480, Note_on_c, 2, 64, 80
4, 598392, Note_off_c, 2, 64, 64
4, 598392, Note_off_c, 2, 76, 64
4, 598440, Note_on_c, 2, 78, 80
4, 598440, Note_on_c, 2, 66, 80
4, 599352, Note_off_c, 2, 66, 64
4, 599352, Note_off_c, 2, 78, 64
4, 599400, Note_on_c, 2, 69, 80
4, 599400, Note_on_c, 2, 73, 80
4, 600312, Note_off_c, 2, 73, 64
4, 600312, Note_off_c, 2, 69, 64
4, 600360, Note_on_c, 2, 68, 80
4, 600360, Note_on_c, 2, 71, 80
4, 601272, Note_off_c, 2, 71, 64
4, 601272, Note_off_c, 2, 68, 64
4, 601320, Note_on_c, 2, 71, 74
4, 601440, Note_off_c, 2, 71, 64
4, 601560, Note_on_c, 2, 69, 74
4, 601680, Note_off_c, 2, 69, 64
4, 601800, Note_on_c, 2, 68, 74
4, 601920, Note_off_c, 2, 68, 64
4, 602040, Note_on_c, 2, 66, 74
4, 602160, Note_off_c, 2, 66, 64
4, 602280, Note_on_c, 2, 64, 74
4, 602400, Note_off_c, 2, 64, 64
4, 602520, Note_on_c, 2, 62, 74
4, 602640, Note_off_c, 2, 62, 64
4, 602760, Note_on_c, 2, 61, 74
4, 602880, Note_off_c, 2, 61, 64
4, 603000, Note_on_c, 2, 59, 74
4, 603120, Note_off_c, 2, 59, 64
4, 603240, Note_on_c, 2, 61, 74
4, 603360, Note_off_c, 2, 61, 64
4, 603480, Note_on_c, 2, 62, 74
4, 603600, Note_off_c, 2, 62, 64
4, 603720, Note_on_c, 2, 64, 74
4, 603840, Note_off_c, 2, 64, 64
4, 603960, Note_on_c, 2, 66, 74
4, 604080, Note_off_c, 2, 66, 64
4, 604200, Note_on_c, 2, 68, 74
4, 604320, Note_off_c, 2, 68, 64
4, 604440, Note_on_c, 2, 69, 74
4, 604560, Note_off_c, 2, 69, 64
4, 604680, Note_on_c, 2, 71, 74
4, 604800, Note_off_c, 2, 71, 64
4, 604920, Note_on_c, 2, 73, 74
4, 605040, Note_off_c, 2, 73, 64
4, 605160, Note_on_c, 2, 74, 64
4, 605280, Note_off_c, 2, 74, 64
4, 605400, Note_on_c, 2, 73, 67
4, 605520, Note_off_c, 2, 73, 64
4, 605640, Note_on_c, 2, 71, 70
4, 605760, Note_off_c, 2, 71, 64
4, 605880, Note_on_c, 2, 69, 74
4, 606000, Note_off_c, 2, 69, 64
4, 606120, Note_on_c, 2, 68, 77
4, 606240, Note_off_c, 2, 68, 64
4, 606360, Note_on_c, 2, 66, 80
4, 606480, Note_off_c, 2, 66, 64
4, 606600, Note_on_c, 2, 64, 83
4, 606720, Note_off_c, 2, 64, 64
4, 606840, Note_on_c, 2, 62, 86
4, 606960, Note_off_c, 2, 62, 64
4, 607080, Note_on_c, 2, 64, 90
4, 607200, Note_off_c, 2, 64, 64
4, 607320, Note_on_c, 2, 66, 93
4, 607440, Note_off_c, 2, 66, 64
4, 607560, Note_on_c, 2, 68, 96
4, 607680, Note_off_c, 2, 68, 64
4, 607800, Note_on_c, 2, 69, 99
4, 607920, Note_off_c, 2, 69, 64
4, 608040, Note_on_c, 2, 71, 102
4, 608160, Note_off_c, 2, 71, 64
4, 608280, Note_on_c, 2, 73, 106
4, 608400, Note_off_c, 2, 73, 64
4, 608520, Note_on_c, 2, 74, 109
4, 608640, Note_off_c, 2, 74, 64
4, 608760, Note_on_c, 2, 76, 112
4, 608880, Note_off_c, 2, 76, 64
4, 609000, Note_on_c, 2, 67, 90
4, 609000, Note_on_c, 2, 79, 90
4, 610728, Note_off_c, 2, 79, 64
4, 610728, Note_off_c, 2, 67, 64
4, 610920, Note_on_c, 2, 78, 120
4, 611028, Note_off_c, 2, 78, 64
4, 611160, Note_on_c, 2, 76, 120
4, 611268, Note_off_c, 2, 76, 64
4, 611400, Note_on_c, 2, 74, 120
4, 611508, Note_off_c, 2, 74, 64
4, 611640, Note_on_c, 2, 73, 120
4, 611748, Note_off_c, 2, 73, 64
4, 611880, Note_on_c, 2, 71, 120
4, 611988, Note_off_c, 2, 71, 64
4, 612120, Note_on_c, 2, 69, 120
4, 612228, Note_off_c, 2, 69, 64
4, 612360, Note_on_c, 2, 67, 120
4, 612468, Note_off_c, 2, 67, 64
4, 612600, Note_on_c, 2, 66, 120
4, 612708, Note_off_c, 2, 66, 64
4, 612840, Note_on_c, 2, 76, 80
4, 612840, Note_on_c, 2, 64, 80
4, 613752, Note_off_c, 2, 64, 64
4, 613752, Note_off_c, 2, 76, 64
4, 613800, Note_on_c, 2, 78, 80
4, 613800, Note_on_c, 2, 66, 80
4, 614712, Note_off_c, 2, 66, 64
4, 614712, Note_off_c, 2, 78, 64
4, 614760, Note_on_c, 2, 69, 80
4, 614760, Note_on_c, 2, 73, 80
4, 615672, Note_off_c, 2, 73, 64
4, 615672, Note_off_c, 2, 69, 64
4, 615720, Note_on_c, 2, 68, 80
4, 615720, Note_on_c, 2, 71, 80
4, 616632, Note_off_c, 2, 71, 64
4, 616632, Note_off_c, 2, 68, 64
4, 616680, Note_on_c, 2, 69, 80
4, 616680, Note_on_c, 2, 73, 80
4, 616800, Note_off_c, 2, 73, 64
4, 616800, Note_off_c, 2, 69, 64
4, 617640, Note_on_c, 2, 76, 127
4, 618120, Note_on_c, 2, 74, 127
4, 618120, Note_on_c, 2, 71, 127
4, 618576, Note_off_c, 2, 71, 64
4, 618576, Note_off_c, 2, 74, 64
4, 618600, Note_on_c, 2, 73, 127
4, 618600, Note_on_c, 2, 69, 127
4, 619056, Note_off_c, 2, 69, 64
4, 619056, Note_off_c, 2, 73, 64
4, 619080, Note_on_c, 2, 76, 127
4, 619080, Note_on_c, 2, 80, 127
4, 619536, Note_off_c, 2, 80, 64
4, 619536, Note_off_c, 2, 76, 64
4, 619560, Note_on_c, 2, 81, 127
4, 619560, Note_on_c, 2, 69, 127
4, 619944, Note_off_c, 2, 76, 64
4, 620016, Note_off_c, 2, 81, 64
4, 620016, Note_off_c, 2, 69, 64
4, 620040, Note_on_c, 2, 76, 64
4, 620040, Note_on_c, 2, 64, 127
4, 620040, Note_on_c, 2, 80, 127
4, 620424, Note_off_c, 2, 76, 64
4, 620496, Note_off_c, 2, 64, 64
4, 620496, Note_off_c, 2, 80, 64
4, 620520, Note_on_c, 2, 69, 80
4, 620520, Note_on_c, 2, 73, 80
4, 620640, Note_off_c, 2, 73, 64
4, 620640, Note_off_c, 2, 69, 64
4, 621480, Note_on_c, 2, 76, 127
4, 621960, Note_on_c, 2, 74, 127
4, 621960, Note_on_c, 2, 71, 127
4, 622416, Note_off_c, 2, 71, 64
4, 622416, Note_off_c, 2, 74, 64
4, 622440, Note_on_c, 2, 73, 127
4, 622440, Note_on_c, 2, 69, 127
4, 622896, Note_off_c, 2, 69, 64
4, 622896, Note_off_c, 2, 73, 64
4, 622920, Note_on_c, 2, 76, 127
4, 622920, Note_on_c, 2, 80, 127
4, 623376, Note_off_c, 2, 80, 64
4, 623376, Note_off_c, 2, 76, 64
4, 623400, Note_on_c, 2, 81, 127
4, 623400, Note_on_c, 2, 69, 127
4, 623784, Note_off_c, 2, 76, 64
4, 623856, Note_off_c, 2, 81, 64
4, 623856, Note_off_c, 2, 69, 64
4, 623880, Note_on_c, 2, 76, 64
4, 623880, Note_on_c, 2, 64, 127
4, 623880, Note_on_c, 2, 80, 127
4, 624264, Note_off_c, 2, 76, 64
4, 624336, Note_off_c, 2, 64, 64
4, 624336, Note_off_c, 2, 80, 64
4, 624360, Note_on_c, 2, 80, 102
4, 624360, Note_on_c, 2, 71, 102
4, 624480, Note_off_c, 2, 71, 64
4, 624480, Note_off_c, 2, 80, 64
4, 624600, Note_on_c, 2, 71, 102
4, 624600, Note_on_c, 2, 80, 102
4, 624720, Note_off_c, 2, 80, 64
4, 624720, Note_off_c, 2, 71, 64
4, 624840, Note_on_c, 2, 80, 102
4, 624840, Note_on_c, 2, 71, 102
4, 624960, Note_off_c, 2, 71, 64
4, 624960, Note_off_c, 2, 80, 64
4, 625080, Note_on_c, 2, 80, 102
4, 625080, Note_on_c, 2, 71, 102
4, 625200, Note_off_c, 2, 71, 64
4, 625200, Note_off_c, 2, 80, 64
4, 625320, Note_on_c, 2, 80, 102
4, 625320, Note_on_c, 2, 71, 102
4, 625440, Note_off_c, 2, 71, 64
4, 625440, Note_off_c, 2, 80, 64
4, 625560, Note_on_c, 2, 71, 102
4, 625560, Note_on_c, 2, 80, 102
4, 625680, Note_off_c, 2, 80, 64
4, 625680, Note_off_c, 2, 71, 64
4, 625800, Note_on_c, 2, 80, 102
4, 625800, Note_on_c, 2, 71, 102
4, 625920, Note_off_c, 2, 71, 64
4, 625920, Note_off_c, 2, 80, 64
4, 626040, Note_on_c, 2, 80, 102
4, 626040, Note_on_c, 2, 71, 102
4, 626160, Note_off_c, 2, 71, 64
4, 626160, Note_off_c, 2, 80, 64
4, 626280, Note_on_c, 2, 80, 102
4, 626280, Note_on_c, 2, 71, 102
4, 626400, Note_off_c, 2, 71, 64
4, 626400, Note_off_c, 2, 80, 64
4, 626520, Note_on_c, 2, 80, 102
4, 626520, Note_on_c, 2, 71, 102
4, 626640, Note_off_c, 2, 71, 64
4, 626640, Note_off_c, 2, 80, 64
4, 626760, Note_on_c, 2, 71, 102
4, 626760, Note_on_c, 2, 80, 102
4, 626880, Note_off_c, 2, 80, 64
4, 626880, Note_off_c, 2, 71, 64
4, 627000, Note_on_c, 2, 80, 102
4, 627000, Note_on_c, 2, 71, 102
4, 627120, Note_off_c, 2, 71, 64
4, 627120, Note_off_c, 2, 80, 64
4, 627240, Note_on_c, 2, 80, 102
4, 627240, Note_on_c, 2, 71, 102
4, 627360, Note_off_c, 2, 71, 64
4, 627360, Note_off_c, 2, 80, 64
4, 627480, Note_on_c, 2, 71, 102
4, 627480, Note_on_c, 2, 80, 102
4, 627600, Note_off_c, 2, 80, 64
4, 627600, Note_off_c, 2, 71, 64
4, 627720, Note_on_c, 2, 80, 102
4, 627720, Note_on_c, 2, 71, 102
4, 627840, Note_off_c, 2, 71, 64
4, 627840, Note_off_c, 2, 80, 64
4, 627960, Note_on_c, 2, 80, 102
4, 627960, Note_on_c, 2, 71, 102
4, 628080, Note_off_c, 2, 71, 64
4, 628080, Note_off_c, 2, 80, 64
4, 628200, Note_on_c, 2, 85, 99
4, 628200, Note_on_c, 2, 81, 99
4, 628392, Note_off_c, 2, 81, 64
4, 628392, Note_off_c, 2, 85, 64
4, 629040, Note_on_c, 2, 73, 80
4, 629040, Note_on_c, 2, 81, 80
4, 629136, Note_off_c, 2, 81, 64
4, 629136, Note_off_c, 2, 73, 64
4, 629160, Note_on_c, 2, 81, 80
4, 629160, Note_on_c, 2, 73, 80
4, 629256, Note_off_c, 2, 73, 64
4, 629256, Note_off_c, 2, 81, 64
4, 629280, Note_on_c, 2, 81, 99
4, 629280, Note_on_c, 2, 85, 99
4, 629472, Note_off_c, 2, 85, 64
4, 629472, Note_off_c, 2, 81, 64
4, 630240, Note_on_c, 2, 73, 80
4, 630240, Note_on_c, 2, 81, 80
4, 630336, Note_off_c, 2, 81, 64
4, 630336, Note_off_c, 2, 73, 64
4, 630360, Note_on_c, 2, 73, 80
4, 630360, Note_on_c, 2, 81, 80
4, 630456, Note_off_c, 2, 81, 64
4, 630456, Note_off_c, 2, 73, 64
4, 630480, Note_on_c, 2, 81, 99
4, 630480, Note_on_c, 2, 85, 99
4, 630672, Note_off_c, 2, 85, 64
4, 630672, Note_off_c, 2, 81, 64
4, 630672, End_track
5, 0, Start_track
5, 0, Title_t, "Bassoon"
5, 0, MIDI_port, 0
5, 0, Channel_prefix, 3
5, 0, Control_c, 3, 7, 90
5, 0, Control_c, 3, 10, 70
5, 0, Program_c, 3, 70
5, 0, Program_c, 3, 70
5, 0, Control_c, 3, 91, 66
5, 480, Control_c, 3, 10, 71
5, 6060, Note_on_c, 3, 52, 54
5, 6060, Note_on_c, 3, 64, 54
5, 6174, Note_off_c, 3, 64, 64
5, 6174, Note_off_c, 3, 52, 64
5, 6180, Note_on_c, 3, 64, 54
5, 6180, Note_on_c, 3, 52, 54
5, 6294, Note_off_c, 3, 52, 64
5, 6294, Note_off_c, 3, 64, 64
5, 6300, Note_on_c, 3, 52, 72
5, 6300, Note_on_c, 3, 64, 72
5, 6414, Note_off_c, 3, 64, 64
5, 6414, Note_off_c, 3, 52, 64
5, 8460, Note_on_c, 3, 62, 54
5, 8460, Note_on_c, 3, 59, 54
5, 8574, Note_off_c, 3, 59, 64
5, 8574, Note_off_c, 3, 62, 64
5, 8580, Note_on_c, 3, 59, 54
5, 8580, Note_on_c, 3, 62, 54
5, 8694, Note_off_c, 3, 62, 64
5, 8694, Note_off_c, 3, 59, 64
5, 8700, Note_on_c, 3, 62, 72
5, 8700, Note_on_c, 3, 59, 72
5, 8814, Note_off_c, 3, 59, 64
5, 8814, Note_off_c, 3, 62, 64
5, 10560, Note_on_c, 3, 56, 65
5, 10560, Note_on_c, 3, 59, 65
5, 10680, Note_off_c, 3, 59, 64
5, 10680, Note_off_c, 3, 56, 64
5, 11280, Note_on_c, 3, 56, 65
5, 11280, Note_on_c, 3, 59, 65
5, 11520, Note_off_c, 3, 59, 64
5, 11520, Note_off_c, 3, 56, 64
5, 11520, Note_on_c, 3, 61, 65
5, 11520, Note_on_c, 3, 57, 65
5, 11640, Note_off_c, 3, 57, 64
5, 11640, Note_off_c, 3, 61, 64
5, 12240, Note_on_c, 3, 57, 65
5, 12240, Note_on_c, 3, 61, 65
5, 12480, Note_off_c, 3, 61, 64
5, 12480, Note_off_c, 3, 57, 64
5, 12480, Note_on_c, 3, 56, 65
5, 12480, Note_on_c, 3, 59, 65
5, 12600, Note_off_c, 3, 59, 64
5, 12600, Note_off_c, 3, 56, 64
5, 13200, Note_on_c, 3, 59, 65
5, 13200, Note_on_c, 3, 56, 65
5, 13440, Note_off_c, 3, 56, 64
5, 13440, Note_off_c, 3, 59, 64
5, 13440, Note_on_c, 3, 61, 65
5, 13440, Note_on_c, 3, 57, 65
5, 13560, Note_off_c, 3, 57, 64
5, 13560, Note_off_c, 3, 61, 64
5, 14160, Note_on_c, 3, 61, 65
5, 14160, Note_on_c, 3, 57, 65
5, 14400, Note_off_c, 3, 57, 64
5, 14400, Note_off_c, 3, 61, 64
5, 14400, Note_on_c, 3, 56, 65
5, 14400, Note_on_c, 3, 59, 65
5, 14520, Note_off_c, 3, 59, 64
5, 14520, Note_off_c, 3, 56, 64
5, 15120, Note_on_c, 3, 59, 65
5, 15120, Note_on_c, 3, 56, 65
5, 15360, Note_off_c, 3, 56, 64
5, 15360, Note_off_c, 3, 59, 64
5, 15360, Note_on_c, 3, 61, 65
5, 15360, Note_on_c, 3, 57, 65
5, 15480, Note_off_c, 3, 57, 64
5, 15480, Note_off_c, 3, 61, 64
5, 16080, Note_on_c, 3, 61, 65
5, 16080, Note_on_c, 3, 57, 65
5, 16320, Note_off_c, 3, 57, 64
5, 16320, Note_off_c, 3, 61, 64
5, 16320, Note_on_c, 3, 56, 65
5, 16320, Note_on_c, 3, 59, 65
5, 16440, Note_off_c, 3, 59, 64
5, 16440, Note_off_c, 3, 56, 64
5, 17040, Note_on_c, 3, 59, 65
5, 17040, Note_on_c, 3, 56, 65
5, 17280, Note_off_c, 3, 56, 64
5, 17280, Note_off_c, 3, 59, 64
5, 17280, Note_on_c, 3, 61, 54
5, 17280, Note_on_c, 3, 57, 54
5, 17400, Note_off_c, 3, 57, 64
5, 17400, Note_off_c, 3, 61, 64
5, 18240, Note_on_c, 3, 56, 65
5, 18240, Note_on_c, 3, 59, 65
5, 18360, Note_off_c, 3, 59, 64
5, 18360, Note_off_c, 3, 56, 64
5, 18960, Note_on_c, 3, 56, 65
5, 18960, Note_on_c, 3, 59, 65
5, 19200, Note_off_c, 3, 59, 64
5, 19200, Note_off_c, 3, 56, 64
5, 19200, Note_on_c, 3, 61, 65
5, 19200, Note_on_c, 3, 57, 65
5, 19320, Note_off_c, 3, 57, 64
5, 19320, Note_off_c, 3, 61, 64
5, 19920, Note_on_c, 3, 57, 65
5, 19920, Note_on_c, 3, 61, 65
5, 20160, Note_off_c, 3, 61, 64
5, 20160, Note_off_c, 3, 57, 64
5, 20160, Note_on_c, 3, 56, 65
5, 20160, Note_on_c, 3, 59, 65
5, 20280, Note_off_c, 3, 59, 64
5, 20280, Note_off_c, 3, 56, 64
5, 20880, Note_on_c, 3, 59, 65
5, 20880, Note_on_c, 3, 56, 65
5, 21120, Note_off_c, 3, 56, 64
5, 21120, Note_off_c, 3, 59, 64
5, 21120, Note_on_c, 3, 61, 65
5, 21120, Note_on_c, 3, 57, 65
5, 21240, Note_off_c, 3, 57, 64
5, 21240, Note_off_c, 3, 61, 64
5, 21840, Note_on_c, 3, 61, 65
5, 21840, Note_on_c, 3, 57, 65
5, 22080, Note_off_c, 3, 57, 64
5, 22080, Note_off_c, 3, 61, 64
5, 22080, Note_on_c, 3, 56, 65
5, 22080, Note_on_c, 3, 59, 65
5, 22200, Note_off_c, 3, 59, 64
5, 22200, Note_off_c, 3, 56, 64
5, 22800, Note_on_c, 3, 59, 65
5, 22800, Note_on_c, 3, 56, 65
5, 23040, Note_off_c, 3, 56, 64
5, 23040, Note_off_c, 3, 59, 64
5, 23040, Note_on_c, 3, 61, 65
5, 23040, Note_on_c, 3, 57, 65
5, 23160, Note_off_c, 3, 57, 64
5, 23160, Note_off_c, 3, 61, 64
5, 23760, Note_on_c, 3, 61, 65
5, 23760, Note_on_c, 3, 57, 65
5, 24000, Note_off_c, 3, 57, 64
5, 24000, Note_off_c, 3, 61, 64
5, 24000, Note_on_c, 3, 56, 65
5, 24000, Note_on_c, 3, 59, 65
5, 24120, Note_off_c, 3, 59, 64
5, 24120, Note_off_c, 3, 56, 64
5, 24720, Note_on_c, 3, 59, 65
5, 24720, Note_on_c, 3, 56, 65
5, 24960, Note_off_c, 3, 56, 64
5, 24960, Note_off_c, 3, 59, 64
5, 24960, Note_on_c, 3, 57, 54
5, 24960, Note_on_c, 3, 61, 54
5, 25080, Note_off_c, 3, 61, 64
5, 25080, Note_off_c, 3, 57, 64
5, 25920, Note_on_c, 3, 66, 54
5, 25920, Note_on_c, 3, 62, 54
5, 26040, Note_off_c, 3, 62, 64
5, 26040, Note_off_c, 3, 66, 64
5, 26640, Note_on_c, 3, 66, 65
5, 26640, Note_on_c, 3, 62, 65
5, 26880, Note_off_c, 3, 62, 64
5, 26880, Note_off_c, 3, 66, 64
5, 26880, Note_on_c, 3, 64, 65
5, 26880, Note_on_c, 3, 61, 65
5, 27000, Note_off_c, 3, 61, 64
5, 27000, Note_off_c, 3, 64, 64
5, 27600, Note_on_c, 3, 61, 65
5, 27600, Note_on_c, 3, 64, 65
5, 27840, Note_off_c, 3, 64, 64
5, 27840, Note_off_c, 3, 61, 64
5, 27840, Note_on_c, 3, 66, 65
5, 27840, Note_on_c, 3, 62, 65
5, 27960, Note_off_c, 3, 62, 64
5, 27960, Note_off_c, 3, 66, 64
5, 28560, Note_on_c, 3, 62, 65
5, 28560, Note_on_c, 3, 66, 65
5, 28800, Note_off_c, 3, 62, 64
5, 28920, Note_off_c, 3, 66, 64
5, 29040, Note_on_c, 3, 65, 86
5, 29232, Note_off_c, 3, 65, 64
5, 29520, Note_on_c, 3, 64, 65
5, 29520, Note_on_c, 3, 61, 65
5, 29760, Note_off_c, 3, 61, 64
5, 29760, Note_off_c, 3, 64, 64
5, 29760, Note_on_c, 3, 57, 65
5, 29760, Note_on_c, 3, 63, 65
5, 29880, Note_off_c, 3, 63, 64
5, 29880, Note_off_c, 3, 57, 64
5, 30480, Note_on_c, 3, 59, 65
5, 30480, Note_on_c, 3, 62, 65
5, 30720, Note_off_c, 3, 62, 64
5, 30720, Note_off_c, 3, 59, 64
5, 30720, Note_on_c, 3, 61, 65
5, 30720, Note_on_c, 3, 57, 65
5, 30840, Note_off_c, 3, 57, 64
5, 30840, Note_off_c, 3, 61, 64
5, 31440, Note_on_c, 3, 61, 65
5, 31440, Note_on_c, 3, 57, 65
5, 31680, Note_off_c, 3, 57, 64
5, 31680, Note_off_c, 3, 61, 64
5, 31680, Note_on_c, 3, 56, 65
5, 31680, Note_on_c, 3, 59, 65
5, 31800, Note_off_c, 3, 59, 64
5, 31800, Note_off_c, 3, 56, 64
5, 32400, Note_on_c, 3, 59, 65
5, 32400, Note_on_c, 3, 56, 65
5, 32640, Note_off_c, 3, 56, 64
5, 32640, Note_off_c, 3, 59, 64
5, 32640, Note_on_c, 3, 61, 54
5, 32640, Note_on_c, 3, 57, 54
5, 32760, Note_off_c, 3, 57, 64
5, 32760, Note_off_c, 3, 61, 64
5, 33600, Note_on_c, 3, 66, 54
5, 33600, Note_on_c, 3, 62, 54
5, 33720, Note_off_c, 3, 62, 64
5, 33720, Note_off_c, 3, 66, 64
5, 34320, Note_on_c, 3, 66, 65
5, 34320, Note_on_c, 3, 62, 65
5, 34560, Note_off_c, 3, 62, 64
5, 34560, Note_off_c, 3, 66, 64
5, 34560, Note_on_c, 3, 64, 65
5, 34560, Note_on_c, 3, 61, 65
5, 34680, Note_off_c, 3, 61, 64
5, 34680, Note_off_c, 3, 64, 64
5, 35280, Note_on_c, 3, 61, 65
5, 35280, Note_on_c, 3, 64, 65
5, 35520, Note_off_c, 3, 64, 64
5, 35520, Note_off_c, 3, 61, 64
5, 35520, Note_on_c, 3, 66, 65
5, 35520, Note_on_c, 3, 62, 65
5, 35640, Note_off_c, 3, 62, 64
5, 35640, Note_off_c, 3, 66, 64
5, 36240, Note_on_c, 3, 62, 65
5, 36240, Note_on_c, 3, 66, 65
5, 36480, Note_off_c, 3, 62, 64
5, 36600, Note_off_c, 3, 66, 64
5, 36720, Note_on_c, 3, 65, 86
5, 36912, Note_off_c, 3, 65, 64
5, 37200, Note_on_c, 3, 64, 65
5, 37200, Note_on_c, 3, 61, 65
5, 37440, Note_off_c, 3, 61, 64
5, 37440, Note_off_c, 3, 64, 64
5, 37440, Note_on_c, 3, 57, 65
5, 37440, Note_on_c, 3, 63, 65
5, 37560, Note_off_c, 3, 63, 64
5, 37560, Note_off_c, 3, 57, 64
5, 38160, Note_on_c, 3, 59, 65
5, 38160, Note_on_c, 3, 62, 65
5, 38400, Note_off_c, 3, 62, 64
5, 38400, Note_off_c, 3, 59, 64
5, 38400, Note_on_c, 3, 61, 65
5, 38400, Note_on_c, 3, 57, 65
5, 38520, Note_off_c, 3, 57, 64
5, 38520, Note_off_c, 3, 61, 64
5, 39120, Note_on_c, 3, 61, 65
5, 39120, Note_on_c, 3, 57, 65
5, 39360, Note_off_c, 3, 57, 64
5, 39360, Note_off_c, 3, 61, 64
5, 39360, Note_on_c, 3, 56, 65
5, 39360, Note_on_c, 3, 59, 65
5, 39480, Note_off_c, 3, 59, 64
5, 39480, Note_off_c, 3, 56, 64
5, 40080, Note_on_c, 3, 59, 65
5, 40080, Note_on_c, 3, 56, 65
5, 40320, Note_off_c, 3, 56, 64
5, 40320, Note_off_c, 3, 59, 64
5, 40320, Note_on_c, 3, 57, 54
5, 40320, Note_on_c, 3, 61, 54
5, 40440, Note_off_c, 3, 61, 64
5, 40440, Note_off_c, 3, 57, 64
5, 41400, Note_on_c, 3, 57, 72
5, 41400, Note_on_c, 3, 45, 72
5, 41514, Note_off_c, 3, 45, 64
5, 41514, Note_off_c, 3, 57, 64
5, 42780, Note_on_c, 3, 56, 54
5, 42780, Note_on_c, 3, 59, 54
5, 42840, Note_off_c, 3, 59, 64
5, 42840, Note_off_c, 3, 56, 64
5, 42900, Note_on_c, 3, 59, 54
5, 42900, Note_on_c, 3, 56, 54
5, 42960, Note_off_c, 3, 56, 64
5, 42960, Note_off_c, 3, 59, 64
5, 43020, Note_on_c, 3, 56, 54
5, 43020, Note_on_c, 3, 59, 54
5, 43140, Note_off_c, 3, 59, 64
5, 43140, Note_off_c, 3, 56, 64
5, 43860, Note_on_c, 3, 56, 54
5, 43860, Note_on_c, 3, 59, 54
5, 43920, Note_off_c, 3, 59, 64
5, 43920, Note_off_c, 3, 56, 64
5, 43980, Note_on_c, 3, 56, 54
5, 43980, Note_on_c, 3, 59, 54
5, 44040, Note_off_c, 3, 59, 64
5, 44040, Note_off_c, 3, 56, 64
5, 44100, Note_on_c, 3, 59, 54
5, 44100, Note_on_c, 3, 56, 54
5, 44220, Note_off_c, 3, 56, 64
5, 44220, Note_off_c, 3, 59, 64
5, 44640, Note_on_c, 3, 52, 54
5, 44640, Note_on_c, 3, 61, 54
5, 45216, Note_off_c, 3, 61, 64
5, 45216, Note_off_c, 3, 52, 64
5, 45360, Note_on_c, 3, 59, 54
5, 45360, Note_on_c, 3, 50, 54
5, 45480, Note_off_c, 3, 50, 64
5, 45480, Note_off_c, 3, 59, 64
5, 45600, Note_on_c, 3, 57, 54
5, 45600, Note_on_c, 3, 49, 54
5, 45720, Note_off_c, 3, 49, 64
5, 45720, Note_off_c, 3, 57, 64
5, 45840, Note_on_c, 3, 61, 54
5, 45840, Note_on_c, 3, 52, 54
5, 45960, Note_off_c, 3, 52, 64
5, 45960, Note_off_c, 3, 61, 64
5, 46080, Note_on_c, 3, 50, 54
5, 46080, Note_on_c, 3, 59, 54
5, 46200, Note_off_c, 3, 59, 64
5, 46200, Note_off_c, 3, 50, 64
5, 46320, Note_on_c, 3, 49, 54
5, 46320, Note_on_c, 3, 57, 54
5, 46440, Note_off_c, 3, 57, 64
5, 46440, Note_off_c, 3, 49, 64
5, 46560, Note_on_c, 3, 59, 54
5, 46560, Note_on_c, 3, 50, 54
5, 46680, Note_off_c, 3, 50, 64
5, 46680, Note_off_c, 3, 59, 64
5, 46800, Note_on_c, 3, 49, 72
5, 46800, Note_on_c, 3, 57, 72
5, 46920, Note_off_c, 3, 57, 64
5, 46920, Note_off_c, 3, 49, 64
5, 47040, Note_on_c, 3, 56, 72
5, 47040, Note_on_c, 3, 47, 72
5, 47160, Note_off_c, 3, 47, 64
5, 47160, Note_off_c, 3, 56, 64
5, 47280, Note_on_c, 3, 54, 72
5, 47280, Note_on_c, 3, 50, 72
5, 47400, Note_off_c, 3, 50, 64
5, 47400, Note_off_c, 3, 54, 64
5, 47520, Note_on_c, 3, 64, 72
5, 47520, Note_on_c, 3, 61, 72
5, 47640, Note_off_c, 3, 61, 64
5, 47640, Note_off_c, 3, 64, 64
5, 47760, Note_on_c, 3, 62, 72
5, 47760, Note_on_c, 3, 59, 72
5, 47880, Note_off_c, 3, 59, 64
5, 47880, Note_off_c, 3, 62, 64
5, 48000, Note_on_c, 3, 57, 72
5, 48000, Note_on_c, 3, 61, 72
5, 48120, Note_off_c, 3, 61, 64
5, 48120, Note_off_c, 3, 57, 64
5, 48240, Note_on_c, 3, 59, 72
5, 48240, Note_on_c, 3, 56, 72
5, 48360, Note_off_c, 3, 56, 64
5, 48360, Note_off_c, 3, 59, 64
5, 48480, Note_on_c, 3, 57, 54
5, 48480, Note_on_c, 3, 61, 54
5, 48600, Note_off_c, 3, 61, 64
5, 48600, Note_off_c, 3, 57, 64
5, 49560, Note_on_c, 3, 57, 72
5, 49560, Note_on_c, 3, 45, 72
5, 49752, Note_off_c, 3, 45, 64
5, 49752, Note_off_c, 3, 57, 64
5, 50940, Note_on_c, 3, 56, 54
5, 50940, Note_on_c, 3, 59, 54
5, 51000, Note_off_c, 3, 59, 64
5, 51000, Note_off_c, 3, 56, 64
5, 51060, Note_on_c, 3, 59, 54
5, 51060, Note_on_c, 3, 56, 54
5, 51120, Note_off_c, 3, 56, 64
5, 51120, Note_off_c, 3, 59, 64
5, 51180, Note_on_c, 3, 59, 54
5, 51180, Note_on_c, 3, 56, 54
5, 51300, Note_off_c, 3, 56, 64
5, 51300, Note_off_c, 3, 59, 64
5, 52020, Note_on_c, 3, 56, 54
5, 52020, Note_on_c, 3, 59, 54
5, 52080, Note_off_c, 3, 59, 64
5, 52080, Note_off_c, 3, 56, 64
5, 52140, Note_on_c, 3, 56, 54
5, 52140, Note_on_c, 3, 59, 54
5, 52200, Note_off_c, 3, 59, 64
5, 52200, Note_off_c, 3, 56, 64
5, 52260, Note_on_c, 3, 56, 54
5, 52260, Note_on_c, 3, 59, 54
5, 52380, Note_off_c, 3, 59, 64
5, 52380, Note_off_c, 3, 56, 64
5, 52800, Note_on_c, 3, 57, 80
5, 52800, Note_on_c, 3, 61, 80
5, 52992, Note_off_c, 3, 61, 64
5, 52992, Note_off_c, 3, 57, 64
5, 53280, Note_on_c, 3, 61, 80
5, 53280, Note_on_c, 3, 57, 80
5, 53472, Note_off_c, 3, 57, 64
5, 53472, Note_off_c, 3, 61, 64
5, 53760, Note_on_c, 3, 57, 80
5, 53760, Note_on_c, 3, 61, 80
5, 53952, Note_off_c, 3, 61, 64
5, 53952, Note_off_c, 3, 57, 64
5, 54240, Note_on_c, 3, 61, 80
5, 54240, Note_on_c, 3, 57, 80
5, 54432, Note_off_c, 3, 57, 64
5, 54432, Note_off_c, 3, 61, 64
5, 54720, Note_on_c, 3, 59, 64
5, 54720, Note_on_c, 3, 62, 64
5, 54912, Note_off_c, 3, 62, 64
5, 54912, Note_off_c, 3, 59, 64
5, 55200, Note_on_c, 3, 59, 61
5, 55200, Note_on_c, 3, 62, 61
5, 55392, Note_off_c, 3, 62, 64
5, 55392, Note_off_c, 3, 59, 64
5, 55680, Note_on_c, 3, 59, 57
5, 55680, Note_on_c, 3, 62, 57
5, 55872, Note_off_c, 3, 62, 64
5, 55872, Note_off_c, 3, 59, 64
5, 56160, Note_on_c, 3, 59, 53
5, 56160, Note_on_c, 3, 62, 53
5, 56352, Note_off_c, 3, 62, 64
5, 56352, Note_off_c, 3, 59, 64
5, 56640, Note_on_c, 3, 57, 60
5, 56640, Note_on_c, 3, 61, 60
5, 56832, Note_off_c, 3, 61, 64
5, 56832, Note_off_c, 3, 57, 64
5, 61440, Note_on_c, 3, 64, 58
5, 63840, Note_off_c, 3, 64, 64
5, 63840, Note_on_c, 3, 65, 58
5, 64320, Note_off_c, 3, 65, 64
5, 64320, Note_on_c, 3, 66, 58
5, 64560, Note_off_c, 3, 66, 64
5, 65280, Note_on_c, 3, 49, 58
5, 65280, Note_on_c, 3, 61, 58
5, 68386, Note_off_c, 3, 61, 64
5, 68386, Note_off_c, 3, 49, 64
5, 69120, Note_on_c, 3, 49, 58
5, 69120, Note_on_c, 3, 61, 58
5, 71520, Note_off_c, 3, 61, 64
5, 71520, Note_off_c, 3, 49, 64
5, 71520, Note_on_c, 3, 49, 96
5, 71520, Note_on_c, 3, 65, 96
5, 72000, Note_off_c, 3, 65, 64
5, 72000, Note_on_c, 3, 66, 58
5, 72240, Note_off_c, 3, 49, 64
5, 72240, Note_off_c, 3, 66, 64
5, 72480, Note_on_c, 3, 57, 80
5, 72480, Note_on_c, 3, 54, 80
5, 72624, Note_off_c, 3, 54, 64
5, 72624, Note_off_c, 3, 57, 64
5, 72960, Note_on_c, 3, 57, 80
5, 72960, Note_on_c, 3, 54, 80
5, 73104, Note_off_c, 3, 54, 64
5, 73104, Note_off_c, 3, 57, 64
5, 73440, Note_on_c, 3, 57, 80
5, 73440, Note_on_c, 3, 54, 80
5, 73584, Note_off_c, 3, 54, 64
5, 73584, Note_off_c, 3, 57, 64
5, 73920, Note_on_c, 3, 56, 80
5, 73920, Note_on_c, 3, 59, 80
5, 74064, Note_off_c, 3, 59, 64
5, 74064, Note_off_c, 3, 56, 64
5, 74400, Note_on_c, 3, 59, 80
5, 74400, Note_on_c, 3, 56, 80
5, 74544, Note_off_c, 3, 56, 64
5, 74544, Note_off_c, 3, 59, 64
5, 74880, Note_on_c, 3, 56, 80
5, 74880, Note_on_c, 3, 59, 80
5, 75024, Note_off_c, 3, 59, 64
5, 75024, Note_off_c, 3, 56, 64
5, 75360, Note_on_c, 3, 59, 80
5, 75360, Note_on_c, 3, 56, 80
5, 75504, Note_off_c, 3, 56, 64
5, 75504, Note_off_c, 3, 59, 64
5, 75840, Note_on_c, 3, 54, 80
5, 75840, Note_on_c, 3, 57, 80
5, 75984, Note_off_c, 3, 57, 64
5, 75984, Note_off_c, 3, 54, 64
5, 76320, Note_on_c, 3, 57, 80
5, 76320, Note_on_c, 3, 54, 80
5, 76464, Note_off_c, 3, 54, 64
5, 76464, Note_off_c, 3, 57, 64
5, 76800, Note_on_c, 3, 54, 80
5, 76800, Note_on_c, 3, 58, 80
5, 76944, Note_off_c, 3, 58, 64
5, 76944, Note_off_c, 3, 54, 64
5, 77280, Note_on_c, 3, 58, 80
5, 77280, Note_on_c, 3, 54, 80
5, 77424, Note_off_c, 3, 54, 64
5, 77424, Note_off_c, 3, 58, 64
5, 77760, Note_on_c, 3, 54, 80
5, 77760, Note_on_c, 3, 60, 80
5, 77904, Note_off_c, 3, 60, 64
5, 77904, Note_off_c, 3, 54, 64
5, 78240, Note_on_c, 3, 54, 80
5, 78240, Note_on_c, 3, 60, 80
5, 78384, Note_off_c, 3, 60, 64
5, 78384, Note_off_c, 3, 54, 64
5, 78720, Note_on_c, 3, 54, 80
5, 78720, Note_on_c, 3, 61, 80
5, 78864, Note_off_c, 3, 61, 64
5, 78864, Note_off_c, 3, 54, 64
5, 79200, Note_on_c, 3, 54, 80
5, 79200, Note_on_c, 3, 61, 80
5, 79344, Note_off_c, 3, 61, 64
5, 79344, Note_off_c, 3, 54, 64
5, 79680, Note_on_c, 3, 54, 80
5, 79680, Note_on_c, 3, 63, 80
5, 79824, Note_off_c, 3, 63, 64
5, 79824, Note_off_c, 3, 54, 64
5, 80160, Note_on_c, 3, 63, 80
5, 80160, Note_on_c, 3, 60, 80
5, 80304, Note_off_c, 3, 60, 64
5, 80304, Note_off_c, 3, 63, 64
5, 80640, Note_on_c, 3, 60, 80
5, 80640, Note_on_c, 3, 63, 80
5, 80784, Note_off_c, 3, 63, 64
5, 80784, Note_off_c, 3, 60, 64
5, 81120, Note_on_c, 3, 60, 80
5, 81120, Note_on_c, 3, 63, 80
5, 81264, Note_off_c, 3, 63, 64
5, 81264, Note_off_c, 3, 60, 64
5, 81600, Note_on_c, 3, 63, 80
5, 81600, Note_on_c, 3, 60, 80
5, 81744, Note_off_c, 3, 60, 64
5, 81744, Note_off_c, 3, 63, 64
5, 82080, Note_on_c, 3, 66, 80
5, 82080, Note_on_c, 3, 63, 80
5, 82224, Note_off_c, 3, 63, 64
5, 82224, Note_off_c, 3, 66, 64
5, 83040, Note_on_c, 3, 68, 48
5, 83184, Note_off_c, 3, 68, 64
5, 83520, Note_on_c, 3, 56, 48
5, 83664, Note_off_c, 3, 56, 64
5, 85920, Note_on_c, 3, 66, 80
5, 85920, Note_on_c, 3, 63, 80
5, 86064, Note_off_c, 3, 63, 64
5, 86064, Note_off_c, 3, 66, 64
5, 86880, Note_on_c, 3, 68, 64
5, 87024, Note_off_c, 3, 68, 64
5, 87360, Note_on_c, 3, 56, 64
5, 87504, Note_off_c, 3, 56, 64
5, 88800, Note_on_c, 3, 68, 64
5, 88944, Note_off_c, 3, 68, 64
5, 89280, Note_on_c, 3, 56, 64
5, 89424, Note_off_c, 3, 56, 64
5, 90720, Note_on_c, 3, 68, 64
5, 90864, Note_off_c, 3, 68, 64
5, 91200, Note_on_c, 3, 56, 64
5, 91344, Note_off_c, 3, 56, 64
5, 93600, Note_on_c, 3, 49, 80
5, 93600, Note_on_c, 3, 61, 80
5, 93984, Note_off_c, 3, 61, 64
5, 93984, Note_off_c, 3, 49, 64
5, 94560, Note_on_c, 3, 56, 80
5, 94560, Note_on_c, 3, 44, 80
5, 94944, Note_off_c, 3, 44, 64
5, 94944, Note_off_c, 3, 56, 64
5, 95520, Note_on_c, 3, 61, 80
5, 95520, Note_on_c, 3, 49, 80
5, 95904, Note_off_c, 3, 49, 64
5, 95904, Note_off_c, 3, 61, 64
5, 96480, Note_on_c, 3, 44, 80
5, 96480, Note_on_c, 3, 56, 80
5, 96864, Note_off_c, 3, 56, 64
5, 96864, Note_off_c, 3, 44, 64
5, 97920, Note_on_c, 3, 57, 40
5, 97920, Note_on_c, 3, 61, 40
5, 98304, Note_off_c, 3, 61, 64
5, 98304, Note_off_c, 3, 57, 64
5, 98400, Note_on_c, 3, 57, 40
5, 98400, Note_on_c, 3, 61, 40
5, 98784, Note_off_c, 3, 61, 64
5, 98784, Note_off_c, 3, 57, 64
5, 98880, Note_on_c, 3, 62, 40
5, 98880, Note_on_c, 3, 57, 40
5, 99264, Note_off_c, 3, 57, 64
5, 99264, Note_off_c, 3, 62, 64
5, 99360, Note_on_c, 3, 57, 40
5, 99360, Note_on_c, 3, 62, 40
5, 99744, Note_off_c, 3, 62, 64
5, 99744, Note_off_c, 3, 57, 64
5, 99840, Note_on_c, 3, 61, 40
5, 99840, Note_on_c, 3, 57, 40
5, 100224, Note_off_c, 3, 57, 64
5, 100224, Note_off_c, 3, 61, 64
5, 100320, Note_on_c, 3, 61, 40
5, 100320, Note_on_c, 3, 57, 40
5, 100704, Note_off_c, 3, 57, 64
5, 100704, Note_off_c, 3, 61, 64
5, 100800, Note_on_c, 3, 62, 40
5, 100800, Note_on_c, 3, 57, 40
5, 101184, Note_off_c, 3, 57, 64
5, 101184, Note_off_c, 3, 62, 64
5, 101280, Note_on_c, 3, 62, 40
5, 101280, Note_on_c, 3, 57, 40
5, 101664, Note_off_c, 3, 57, 64
5, 101664, Note_off_c, 3, 62, 64
5, 103200, Note_on_c, 3, 49, 80
5, 103200, Note_on_c, 3, 61, 80
5, 103584, Note_off_c, 3, 61, 64
5, 103584, Note_off_c, 3, 49, 64
5, 104160, Note_on_c, 3, 56, 80
5, 104160, Note_on_c, 3, 44, 80
5, 104544, Note_off_c, 3, 44, 64
5, 104544, Note_off_c, 3, 56, 64
5, 105120, Note_on_c, 3, 61, 80
5, 105120, Note_on_c, 3, 49, 80
5, 105504, Note_off_c, 3, 49, 64
5, 105504, Note_off_c, 3, 61, 64
5, 106080, Note_on_c, 3, 44, 80
5, 106080, Note_on_c, 3, 56, 80
5, 106464, Note_off_c, 3, 56, 64
5, 106464, Note_off_c, 3, 44, 64
5, 107520, Note_on_c, 3, 57, 40
5, 107520, Note_on_c, 3, 61, 40
5, 107904, Note_off_c, 3, 61, 64
5, 107904, Note_off_c, 3, 57, 64
5, 108000, Note_on_c, 3, 57, 40
5, 108000, Note_on_c, 3, 61, 40
5, 108384, Note_off_c, 3, 61, 64
5, 108384, Note_off_c, 3, 57, 64
5, 108480, Note_on_c, 3, 62, 40
5, 108480, Note_on_c, 3, 57, 40
5, 108864, Note_off_c, 3, 57, 64
5, 108864, Note_off_c, 3, 62, 64
5, 108960, Note_on_c, 3, 57, 40
5, 108960, Note_on_c, 3, 62, 40
5, 109344, Note_off_c, 3, 62, 64
5, 109344, Note_off_c, 3, 57, 64
5, 109440, Note_on_c, 3, 61, 40
5, 109440, Note_on_c, 3, 57, 40
5, 109824, Note_off_c, 3, 57, 64
5, 109824, Note_off_c, 3, 61, 64
5, 109920, Note_on_c, 3, 61, 40
5, 109920, Note_on_c, 3, 57, 40
5, 110304, Note_off_c, 3, 57, 64
5, 110304, Note_off_c, 3, 61, 64
5, 110400, Note_on_c, 3, 61, 40
5, 110400, Note_on_c, 3, 57, 40
5, 110784, Note_off_c, 3, 57, 64
5, 110784, Note_off_c, 3, 61, 64
5, 110880, Note_on_c, 3, 55, 30
5, 110880, Note_on_c, 3, 52, 30
5, 115200, Note_off_c, 3, 52, 64
5, 115200, Note_off_c, 3, 55, 64
5, 115200, Note_on_c, 3, 71, 33
5, 115200, Note_on_c, 3, 54, 33
5, 116160, Note_off_c, 3, 54, 64
5, 116160, Note_off_c, 3, 71, 64
5, 116160, Note_on_c, 3, 55, 40
5, 116160, Note_on_c, 3, 52, 40
5, 120960, Note_off_c, 3, 52, 64
5, 120960, Note_off_c, 3, 55, 64
5, 120960, Note_on_c, 3, 50, 53
5, 120960, Note_on_c, 3, 54, 53
5, 121824, Note_off_c, 3, 54, 64
5, 121824, Note_off_c, 3, 50, 64
5, 121920, Note_on_c, 3, 36, 99
5, 121920, Note_on_c, 3, 48, 99
5, 122040, Note_off_c, 3, 48, 64
5, 122040, Note_off_c, 3, 36, 64
5, 122160, Note_on_c, 3, 48, 99
5, 122160, Note_on_c, 3, 36, 99
5, 122280, Note_off_c, 3, 36, 64
5, 122280, Note_off_c, 3, 48, 64
5, 122400, Note_on_c, 3, 36, 99
5, 122400, Note_on_c, 3, 48, 99
5, 122520, Note_off_c, 3, 48, 64
5, 122520, Note_off_c, 3, 36, 64
5, 122640, Note_on_c, 3, 36, 99
5, 122640, Note_on_c, 3, 48, 99
5, 122760, Note_off_c, 3, 48, 64
5, 122760, Note_off_c, 3, 36, 64
5, 122880, Note_on_c, 3, 36, 99
5, 122880, Note_on_c, 3, 48, 99
5, 123000, Note_off_c, 3, 48, 64
5, 123000, Note_off_c, 3, 36, 64
5, 123120, Note_on_c, 3, 48, 99
5, 123120, Note_on_c, 3, 36, 99
5, 123240, Note_off_c, 3, 36, 64
5, 123240, Note_off_c, 3, 48, 64
5, 123360, Note_on_c, 3, 48, 99
5, 123360, Note_on_c, 3, 36, 99
5, 123480, Note_off_c, 3, 36, 64
5, 123480, Note_off_c, 3, 48, 64
5, 123600, Note_on_c, 3, 36, 99
5, 123600, Note_on_c, 3, 48, 99
5, 123720, Note_off_c, 3, 48, 64
5, 123720, Note_off_c, 3, 36, 64
5, 123840, Note_on_c, 3, 37, 127
5, 123840, Note_on_c, 3, 49, 127
5, 123960, Note_off_c, 3, 49, 64
5, 123960, Note_off_c, 3, 37, 64
5, 124080, Note_on_c, 3, 49, 99
5, 124080, Note_on_c, 3, 37, 99
5, 124200, Note_off_c, 3, 37, 64
5, 124200, Note_off_c, 3, 49, 64
5, 124320, Note_on_c, 3, 37, 99
5, 124320, Note_on_c, 3, 49, 99
5, 124440, Note_off_c, 3, 49, 64
5, 124440, Note_off_c, 3, 37, 64
5, 124560, Note_on_c, 3, 37, 99
5, 124560, Note_on_c, 3, 49, 99
5, 124680, Note_off_c, 3, 49, 64
5, 124680, Note_off_c, 3, 37, 64
5, 124800, Note_on_c, 3, 36, 127
5, 124800, Note_on_c, 3, 48, 127
5, 124920, Note_off_c, 3, 48, 64
5, 124920, Note_off_c, 3, 36, 64
5, 125040, Note_on_c, 3, 48, 99
5, 125040, Note_on_c, 3, 36, 99
5, 125160, Note_off_c, 3, 36, 64
5, 125160, Note_off_c, 3, 48, 64
5, 125280, Note_on_c, 3, 36, 99
5, 125280, Note_on_c, 3, 48, 99
5, 125400, Note_off_c, 3, 48, 64
5, 125400, Note_off_c, 3, 36, 64
5, 125520, Note_on_c, 3, 36, 99
5, 125520, Note_on_c, 3, 48, 99
5, 125640, Note_off_c, 3, 48, 64
5, 125640, Note_off_c, 3, 36, 64
5, 125760, Note_on_c, 3, 49, 127
5, 125760, Note_on_c, 3, 37, 127
5, 125880, Note_off_c, 3, 37, 64
5, 125880, Note_off_c, 3, 49, 64
5, 126000, Note_on_c, 3, 49, 99
5, 126000, Note_on_c, 3, 37, 99
5, 126120, Note_off_c, 3, 37, 64
5, 126120, Note_off_c, 3, 49, 64
5, 126240, Note_on_c, 3, 37, 99
5, 126240, Note_on_c, 3, 49, 99
5, 126360, Note_off_c, 3, 49, 64
5, 126360, Note_off_c, 3, 37, 64
5, 126480, Note_on_c, 3, 37, 99
5, 126480, Note_on_c, 3, 49, 99
5, 126600, Note_off_c, 3, 49, 64
5, 126600, Note_off_c, 3, 37, 64
5, 126720, Note_on_c, 3, 48, 127
5, 126720, Note_on_c, 3, 36, 127
5, 126840, Note_off_c, 3, 36, 64
5, 126840, Note_off_c, 3, 48, 64
5, 126960, Note_on_c, 3, 48, 99
5, 126960, Note_on_c, 3, 36, 99
5, 127080, Note_off_c, 3, 36, 64
5, 127080, Note_off_c, 3, 48, 64
5, 127200, Note_on_c, 3, 36, 99
5, 127200, Note_on_c, 3, 48, 99
5, 127320, Note_off_c, 3, 48, 64
5, 127320, Note_off_c, 3, 36, 64
5, 127440, Note_on_c, 3, 48, 99
5, 127440, Note_on_c, 3, 36, 99
5, 127560, Note_off_c, 3, 36, 64
5, 127560, Note_off_c, 3, 48, 64
5, 127680, Note_on_c, 3, 49, 127
5, 127680, Note_on_c, 3, 37, 127
5, 127800, Note_off_c, 3, 37, 64
5, 127800, Note_off_c, 3, 49, 64
5, 127920, Note_on_c, 3, 49, 99
5, 127920, Note_on_c, 3, 37, 99
5, 128040, Note_off_c, 3, 37, 64
5, 128040, Note_off_c, 3, 49, 64
5, 128160, Note_on_c, 3, 37, 99
5, 128160, Note_on_c, 3, 49, 99
5, 128280, Note_off_c, 3, 49, 64
5, 128280, Note_off_c, 3, 37, 64
5, 128400, Note_on_c, 3, 37, 99
5, 128400, Note_on_c, 3, 49, 99
5, 128520, Note_off_c, 3, 49, 64
5, 128520, Note_off_c, 3, 37, 64
5, 128640, Note_on_c, 3, 54, 127
5, 128640, Note_on_c, 3, 42, 127
5, 128760, Note_off_c, 3, 42, 64
5, 128760, Note_off_c, 3, 54, 64
5, 128880, Note_on_c, 3, 54, 99
5, 128880, Note_on_c, 3, 42, 99
5, 129000, Note_off_c, 3, 42, 64
5, 129000, Note_off_c, 3, 54, 64
5, 129120, Note_on_c, 3, 42, 99
5, 129120, Note_on_c, 3, 54, 99
5, 129240, Note_off_c, 3, 54, 64
5, 129240, Note_off_c, 3, 42, 64
5, 129360, Note_on_c, 3, 54, 99
5, 129360, Note_on_c, 3, 42, 99
5, 129480, Note_off_c, 3, 42, 64
5, 129480, Note_off_c, 3, 54, 64
5, 129600, Note_on_c, 3, 56, 127
5, 129600, Note_on_c, 3, 44, 127
5, 129720, Note_off_c, 3, 44, 64
5, 129720, Note_off_c, 3, 56, 64
5, 129840, Note_on_c, 3, 56, 99
5, 129840, Note_on_c, 3, 44, 99
5, 129960, Note_off_c, 3, 44, 64
5, 129960, Note_off_c, 3, 56, 64
5, 130080, Note_on_c, 3, 44, 99
5, 130080, Note_on_c, 3, 56, 99
5, 130200, Note_off_c, 3, 56, 64
5, 130200, Note_off_c, 3, 44, 64
5, 130320, Note_on_c, 3, 44, 99
5, 130320, Note_on_c, 3, 56, 99
5, 130440, Note_off_c, 3, 56, 64
5, 130440, Note_off_c, 3, 44, 64
5, 130560, Note_on_c, 3, 56, 127
5, 130560, Note_on_c, 3, 44, 127
5, 130680, Note_off_c, 3, 44, 64
5, 130680, Note_off_c, 3, 56, 64
5, 130800, Note_on_c, 3, 56, 99
5, 130800, Note_on_c, 3, 44, 99
5, 130920, Note_off_c, 3, 44, 64
5, 130920, Note_off_c, 3, 56, 64
5, 131040, Note_on_c, 3, 44, 99
5, 131040, Note_on_c, 3, 56, 99
5, 131160, Note_off_c, 3, 56, 64
5, 131160, Note_off_c, 3, 44, 64
5, 131280, Note_on_c, 3, 56, 99
5, 131280, Note_on_c, 3, 44, 99
5, 131400, Note_off_c, 3, 44, 64
5, 131400, Note_off_c, 3, 56, 64
5, 131520, Note_on_c, 3, 49, 99
5, 131520, Note_on_c, 3, 37, 99
5, 131640, Note_off_c, 3, 37, 64
5, 131640, Note_off_c, 3, 49, 64
5, 131760, Note_on_c, 3, 49, 99
5, 131760, Note_on_c, 3, 37, 99
5, 131880, Note_off_c, 3, 37, 64
5, 131880, Note_off_c, 3, 49, 64
5, 132000, Note_on_c, 3, 49, 127
5, 132000, Note_on_c, 3, 37, 127
5, 132120, Note_off_c, 3, 37, 64
5, 132120, Note_off_c, 3, 49, 64
5, 132240, Note_on_c, 3, 49, 99
5, 132240, Note_on_c, 3, 37, 99
5, 132360, Note_off_c, 3, 37, 64
5, 132360, Note_off_c, 3, 49, 64
5, 132480, Note_on_c, 3, 37, 99
5, 132480, Note_on_c, 3, 49, 99
5, 132600, Note_off_c, 3, 49, 64
5, 132600, Note_off_c, 3, 37, 64
5, 132720, Note_on_c, 3, 37, 99
5, 132720, Note_on_c, 3, 49, 99
5, 132840, Note_off_c, 3, 49, 64
5, 132840, Note_off_c, 3, 37, 64
5, 132960, Note_on_c, 3, 37, 99
5, 132960, Note_on_c, 3, 49, 99
5, 133080, Note_off_c, 3, 49, 64
5, 133080, Note_off_c, 3, 37, 64
5, 133200, Note_on_c, 3, 37, 99
5, 133200, Note_on_c, 3, 49, 99
5, 133320, Note_off_c, 3, 49, 64
5, 133320, Note_off_c, 3, 37, 64
5, 133440, Note_on_c, 3, 37, 99
5, 133440, Note_on_c, 3, 49, 99
5, 133560, Note_off_c, 3, 49, 64
5, 133560, Note_off_c, 3, 37, 64
5, 133680, Note_on_c, 3, 37, 99
5, 133680, Note_on_c, 3, 49, 99
5, 133800, Note_off_c, 3, 49, 64
5, 133800, Note_off_c, 3, 37, 64
5, 133920, Note_on_c, 3, 37, 127
5, 133920, Note_on_c, 3, 49, 127
5, 134040, Note_off_c, 3, 49, 64
5, 134040, Note_off_c, 3, 37, 64
5, 134160, Note_on_c, 3, 49, 99
5, 134160, Note_on_c, 3, 37, 99
5, 134280, Note_off_c, 3, 37, 64
5, 134280, Note_off_c, 3, 49, 64
5, 134400, Note_on_c, 3, 37, 99
5, 134400, Note_on_c, 3, 49, 99
5, 134520, Note_off_c, 3, 49, 64
5, 134520, Note_off_c, 3, 37, 64
5, 134640, Note_on_c, 3, 49, 99
5, 134640, Note_on_c, 3, 37, 99
5, 134760, Note_off_c, 3, 37, 64
5, 134760, Note_off_c, 3, 49, 64
5, 134880, Note_on_c, 3, 49, 99
5, 134880, Note_on_c, 3, 37, 99
5, 135000, Note_off_c, 3, 37, 64
5, 135000, Note_off_c, 3, 49, 64
5, 135120, Note_on_c, 3, 49, 99
5, 135120, Note_on_c, 3, 37, 99
5, 135240, Note_off_c, 3, 37, 64
5, 135240, Note_off_c, 3, 49, 64
5, 135360, Note_on_c, 3, 37, 99
5, 135360, Note_on_c, 3, 49, 99
5, 135480, Note_off_c, 3, 49, 64
5, 135480, Note_off_c, 3, 37, 64
5, 135600, Note_on_c, 3, 37, 99
5, 135600, Note_on_c, 3, 49, 99
5, 135720, Note_off_c, 3, 49, 64
5, 135720, Note_off_c, 3, 37, 64
5, 135840, Note_on_c, 3, 37, 127
5, 135840, Note_on_c, 3, 49, 127
5, 135960, Note_off_c, 3, 49, 64
5, 135960, Note_off_c, 3, 37, 64
5, 136080, Note_on_c, 3, 49, 99
5, 136080, Note_on_c, 3, 37, 99
5, 136200, Note_off_c, 3, 37, 64
5, 136200, Note_off_c, 3, 49, 64
5, 136320, Note_on_c, 3, 49, 99
5, 136320, Note_on_c, 3, 37, 99
5, 136440, Note_off_c, 3, 37, 64
5, 136440, Note_off_c, 3, 49, 64
5, 136560, Note_on_c, 3, 37, 99
5, 136560, Note_on_c, 3, 49, 99
5, 136680, Note_off_c, 3, 49, 64
5, 136680, Note_off_c, 3, 37, 64
5, 136800, Note_on_c, 3, 37, 127
5, 136800, Note_on_c, 3, 49, 127
5, 136920, Note_off_c, 3, 49, 64
5, 136920, Note_off_c, 3, 37, 64
5, 137040, Note_on_c, 3, 49, 99
5, 137040, Note_on_c, 3, 37, 99
5, 137160, Note_off_c, 3, 37, 64
5, 137160, Note_off_c, 3, 49, 64
5, 137280, Note_on_c, 3, 49, 99
5, 137280, Note_on_c, 3, 37, 99
5, 137400, Note_off_c, 3, 37, 64
5, 137400, Note_off_c, 3, 49, 64
5, 137520, Note_on_c, 3, 37, 99
5, 137520, Note_on_c, 3, 49, 99
5, 137640, Note_off_c, 3, 49, 64
5, 137640, Note_off_c, 3, 37, 64
5, 137760, Note_on_c, 3, 37, 127
5, 137760, Note_on_c, 3, 49, 127
5, 137880, Note_off_c, 3, 49, 64
5, 137880, Note_off_c, 3, 37, 64
5, 138000, Note_on_c, 3, 49, 99
5, 138000, Note_on_c, 3, 37, 99
5, 138120, Note_off_c, 3, 37, 64
5, 138120, Note_off_c, 3, 49, 64
5, 138240, Note_on_c, 3, 37, 99
5, 138240, Note_on_c, 3, 49, 99
5, 138360, Note_off_c, 3, 49, 64
5, 138360, Note_off_c, 3, 37, 64
5, 138480, Note_on_c, 3, 37, 99
5, 138480, Note_on_c, 3, 57, 99
5, 138600, Note_off_c, 3, 57, 64
5, 138600, Note_off_c, 3, 37, 64
5, 138720, Note_on_c, 3, 54, 127
5, 138720, Note_on_c, 3, 57, 127
5, 138840, Note_off_c, 3, 57, 64
5, 138840, Note_off_c, 3, 54, 64
5, 138960, Note_on_c, 3, 54, 99
5, 138960, Note_on_c, 3, 57, 99
5, 139080, Note_off_c, 3, 57, 64
5, 139080, Note_off_c, 3, 54, 64
5, 139500, Note_on_c, 3, 52, 54
5, 139500, Note_on_c, 3, 64, 54
5, 139614, Note_off_c, 3, 64, 64
5, 139614, Note_off_c, 3, 52, 64
5, 139620, Note_on_c, 3, 52, 54
5, 139620, Note_on_c, 3, 64, 54
5, 139734, Note_off_c, 3, 64, 64
5, 139734, Note_off_c, 3, 52, 64
5, 139740, Note_on_c, 3, 64, 72
5, 139740, Note_on_c, 3, 52, 72
5, 139854, Note_off_c, 3, 52, 64
5, 139854, Note_off_c, 3, 64, 64
5, 141900, Note_on_c, 3, 62, 54
5, 141900, Note_on_c, 3, 59, 54
5, 142014, Note_off_c, 3, 59, 64
5, 142014, Note_off_c, 3, 62, 64
5, 142020, Note_on_c, 3, 62, 54
5, 142020, Note_on_c, 3, 59, 54
5, 142134, Note_off_c, 3, 59, 64
5, 142134, Note_off_c, 3, 62, 64
5, 142140, Note_on_c, 3, 59, 72
5, 142140, Note_on_c, 3, 62, 72
5, 142254, Note_off_c, 3, 62, 64
5, 142254, Note_off_c, 3, 59, 64
5, 144000, Note_on_c, 3, 56, 65
5, 144000, Note_on_c, 3, 59, 65
5, 144120, Note_off_c, 3, 59, 64
5, 144120, Note_off_c, 3, 56, 64
5, 144720, Note_on_c, 3, 56, 65
5, 144720, Note_on_c, 3, 59, 65
5, 144960, Note_off_c, 3, 59, 64
5, 144960, Note_off_c, 3, 56, 64
5, 144960, Note_on_c, 3, 61, 65
5, 144960, Note_on_c, 3, 57, 65
5, 145080, Note_off_c, 3, 57, 64
5, 145080, Note_off_c, 3, 61, 64
5, 145680, Note_on_c, 3, 57, 65
5, 145680, Note_on_c, 3, 61, 65
5, 145920, Note_off_c, 3, 61, 64
5, 145920, Note_off_c, 3, 57, 64
5, 145920, Note_on_c, 3, 56, 65
5, 145920, Note_on_c, 3, 59, 65
5, 146040, Note_off_c, 3, 59, 64
5, 146040, Note_off_c, 3, 56, 64
5, 146640, Note_on_c, 3, 59, 65
5, 146640, Note_on_c, 3, 56, 65
5, 146880, Note_off_c, 3, 56, 64
5, 146880, Note_off_c, 3, 59, 64
5, 146880, Note_on_c, 3, 61, 65
5, 146880, Note_on_c, 3, 57, 65
5, 147000, Note_off_c, 3, 57, 64
5, 147000, Note_off_c, 3, 61, 64
5, 147600, Note_on_c, 3, 61, 65
5, 147600, Note_on_c, 3, 57, 65
5, 147840, Note_off_c, 3, 57, 64
5, 147840, Note_off_c, 3, 61, 64
5, 147840, Note_on_c, 3, 56, 65
5, 147840, Note_on_c, 3, 59, 65
5, 147960, Note_off_c, 3, 59, 64
5, 147960, Note_off_c, 3, 56, 64
5, 148560, Note_on_c, 3, 59, 65
5, 148560, Note_on_c, 3, 56, 65
5, 148800, Note_off_c, 3, 56, 64
5, 148800, Note_off_c, 3, 59, 64
5, 148800, Note_on_c, 3, 61, 65
5, 148800, Note_on_c, 3, 57, 65
5, 148920, Note_off_c, 3, 57, 64
5, 148920, Note_off_c, 3, 61, 64
5, 149520, Note_on_c, 3, 61, 65
5, 149520, Note_on_c, 3, 57, 65
5, 149760, Note_off_c, 3, 57, 64
5, 149760, Note_off_c, 3, 61, 64
5, 149760, Note_on_c, 3, 56, 65
5, 149760, Note_on_c, 3, 59, 65
5, 149880, Note_off_c, 3, 59, 64
5, 149880, Note_off_c, 3, 56, 64
5, 150480, Note_on_c, 3, 59, 65
5, 150480, Note_on_c, 3, 56, 65
5, 150720, Note_off_c, 3, 56, 64
5, 150720, Note_off_c, 3, 59, 64
5, 150720, Note_on_c, 3, 61, 54
5, 150720, Note_on_c, 3, 57, 54
5, 150840, Note_off_c, 3, 57, 64
5, 150840, Note_off_c, 3, 61, 64
5, 151680, Note_on_c, 3, 56, 65
5, 151680, Note_on_c, 3, 59, 65
5, 151800, Note_off_c, 3, 59, 64
5, 151800, Note_off_c, 3, 56, 64
5, 152400, Note_on_c, 3, 56, 65
5, 152400, Note_on_c, 3, 59, 65
5, 152640, Note_off_c, 3, 59, 64
5, 152640, Note_off_c, 3, 56, 64
5, 152640, Note_on_c, 3, 61, 65
5, 152640, Note_on_c, 3, 57, 65
5, 152760, Note_off_c, 3, 57, 64
5, 152760, Note_off_c, 3, 61, 64
5, 153360, Note_on_c, 3, 57, 65
5, 153360, Note_on_c, 3, 61, 65
5, 153600, Note_off_c, 3, 61, 64
5, 153600, Note_off_c, 3, 57, 64
5, 153600, Note_on_c, 3, 56, 65
5, 153600, Note_on_c, 3, 59, 65
5, 153720, Note_off_c, 3, 59, 64
5, 153720, Note_off_c, 3, 56, 64
5, 154320, Note_on_c, 3, 59, 65
5, 154320, Note_on_c, 3, 56, 65
5, 154560, Note_off_c, 3, 56, 64
5, 154560, Note_off_c, 3, 59, 64
5, 154560, Note_on_c, 3, 61, 65
5, 154560, Note_on_c, 3, 57, 65
5, 154680, Note_off_c, 3, 57, 64
5, 154680, Note_off_c, 3, 61, 64
5, 155280, Note_on_c, 3, 61, 65
5, 155280, Note_on_c, 3, 57, 65
5, 155520, Note_off_c, 3, 57, 64
5, 155520, Note_off_c, 3, 61, 64
5, 155520, Note_on_c, 3, 56, 65
5, 155520, Note_on_c, 3, 59, 65
5, 155640, Note_off_c, 3, 59, 64
5, 155640, Note_off_c, 3, 56, 64
5, 156240, Note_on_c, 3, 59, 65
5, 156240, Note_on_c, 3, 56, 65
5, 156480, Note_off_c, 3, 56, 64
5, 156480, Note_off_c, 3, 59, 64
5, 156480, Note_on_c, 3, 61, 65
5, 156480, Note_on_c, 3, 57, 65
5, 156600, Note_off_c, 3, 57, 64
5, 156600, Note_off_c, 3, 61, 64
5, 157200, Note_on_c, 3, 61, 65
5, 157200, Note_on_c, 3, 57, 65
5, 157440, Note_off_c, 3, 57, 64
5, 157440, Note_off_c, 3, 61, 64
5, 157440, Note_on_c, 3, 56, 65
5, 157440, Note_on_c, 3, 59, 65
5, 157560, Note_off_c, 3, 59, 64
5, 157560, Note_off_c, 3, 56, 64
5, 158160, Note_on_c, 3, 59, 65
5, 158160, Note_on_c, 3, 56, 65
5, 158400, Note_off_c, 3, 56, 64
5, 158400, Note_off_c, 3, 59, 64
5, 158400, Note_on_c, 3, 57, 54
5, 158400, Note_on_c, 3, 61, 54
5, 158520, Note_off_c, 3, 61, 64
5, 158520, Note_off_c, 3, 57, 64
5, 159360, Note_on_c, 3, 66, 54
5, 159360, Note_on_c, 3, 62, 54
5, 159480, Note_off_c, 3, 62, 64
5, 159480, Note_off_c, 3, 66, 64
5, 160080, Note_on_c, 3, 66, 65
5, 160080, Note_on_c, 3, 62, 65
5, 160320, Note_off_c, 3, 62, 64
5, 160320, Note_off_c, 3, 66, 64
5, 160320, Note_on_c, 3, 64, 65
5, 160320, Note_on_c, 3, 61, 65
5, 160440, Note_off_c, 3, 61, 64
5, 160440, Note_off_c, 3, 64, 64
5, 161040, Note_on_c, 3, 61, 65
5, 161040, Note_on_c, 3, 64, 65
5, 161280, Note_off_c, 3, 64, 64
5, 161280, Note_off_c, 3, 61, 64
5, 161280, Note_on_c, 3, 66, 65
5, 161280, Note_on_c, 3, 62, 65
5, 161400, Note_off_c, 3, 62, 64
5, 161400, Note_off_c, 3, 66, 64
5, 162000, Note_on_c, 3, 62, 65
5, 162000, Note_on_c, 3, 66, 65
5, 162240, Note_off_c, 3, 62, 64
5, 162360, Note_off_c, 3, 66, 64
5, 162480, Note_on_c, 3, 65, 86
5, 162672, Note_off_c, 3, 65, 64
5, 162960, Note_on_c, 3, 64, 65
5, 162960, Note_on_c, 3, 61, 65
5, 163200, Note_off_c, 3, 61, 64
5, 163200, Note_off_c, 3, 64, 64
5, 163200, Note_on_c, 3, 57, 65
5, 163200, Note_on_c, 3, 63, 65
5, 163320, Note_off_c, 3, 63, 64
5, 163320, Note_off_c, 3, 57, 64
5, 163920, Note_on_c, 3, 59, 65
5, 163920, Note_on_c, 3, 62, 65
5, 164160, Note_off_c, 3, 62, 64
5, 164160, Note_off_c, 3, 59, 64
5, 164160, Note_on_c, 3, 61, 65
5, 164160, Note_on_c, 3, 57, 65
5, 164280, Note_off_c, 3, 57, 64
5, 164280, Note_off_c, 3, 61, 64
5, 164880, Note_on_c, 3, 61, 65
5, 164880, Note_on_c, 3, 57, 65
5, 165120, Note_off_c, 3, 57, 64
5, 165120, Note_off_c, 3, 61, 64
5, 165120, Note_on_c, 3, 56, 65
5, 165120, Note_on_c, 3, 59, 65
5, 165240, Note_off_c, 3, 59, 64
5, 165240, Note_off_c, 3, 56, 64
5, 165840, Note_on_c, 3, 59, 65
5, 165840, Note_on_c, 3, 56, 65
5, 166080, Note_off_c, 3, 56, 64
5, 166080, Note_off_c, 3, 59, 64
5, 166080, Note_on_c, 3, 61, 54
5, 166080, Note_on_c, 3, 57, 54
5, 166200, Note_off_c, 3, 57, 64
5, 166200, Note_off_c, 3, 61, 64
5, 167040, Note_on_c, 3, 66, 54
5, 167040, Note_on_c, 3, 62, 54
5, 167160, Note_off_c, 3, 62, 64
5, 167160, Note_off_c, 3, 66, 64
5, 167760, Note_on_c, 3, 66, 65
5, 167760, Note_on_c, 3, 62, 65
5, 168000, Note_off_c, 3, 62, 64
5, 168000, Note_off_c, 3, 66, 64
5, 168000, Note_on_c, 3, 64, 65
5, 168000, Note_on_c, 3, 61, 65
5, 168120, Note_off_c, 3, 61, 64
5, 168120, Note_off_c, 3, 64, 64
5, 168720, Note_on_c, 3, 61, 65
5, 168720, Note_on_c, 3, 64, 65
5, 168960, Note_off_c, 3, 64, 64
5, 168960, Note_off_c, 3, 61, 64
5, 168960, Note_on_c, 3, 66, 65
5, 168960, Note_on_c, 3, 62, 65
5, 169080, Note_off_c, 3, 62, 64
5, 169080, Note_off_c, 3, 66, 64
5, 169680, Note_on_c, 3, 62, 65
5, 169680, Note_on_c, 3, 66, 65
5, 169920, Note_off_c, 3, 62, 64
5, 170040, Note_off_c, 3, 66, 64
5, 170160, Note_on_c, 3, 65, 86
5, 170352, Note_off_c, 3, 65, 64
5, 170640, Note_on_c, 3, 64, 65
5, 170640, Note_on_c, 3, 61, 65
5, 170880, Note_off_c, 3, 61, 64
5, 170880, Note_off_c, 3, 64, 64
5, 170880, Note_on_c, 3, 57, 65
5, 170880, Note_on_c, 3, 63, 65
5, 171000, Note_off_c, 3, 63, 64
5, 171000, Note_off_c, 3, 57, 64
5, 171600, Note_on_c, 3, 59, 65
5, 171600, Note_on_c, 3, 62, 65
5, 171840, Note_off_c, 3, 62, 64
5, 171840, Note_off_c, 3, 59, 64
5, 171840, Note_on_c, 3, 61, 65
5, 171840, Note_on_c, 3, 57, 65
5, 171960, Note_off_c, 3, 57, 64
5, 171960, Note_off_c, 3, 61, 64
5, 172560, Note_on_c, 3, 61, 65
5, 172560, Note_on_c, 3, 57, 65
5, 172800, Note_off_c, 3, 57, 64
5, 172800, Note_off_c, 3, 61, 64
5, 172800, Note_on_c, 3, 56, 65
5, 172800, Note_on_c, 3, 59, 65
5, 172920, Note_off_c, 3, 59, 64
5, 172920, Note_off_c, 3, 56, 64
5, 173520, Note_on_c, 3, 59, 65
5, 173520, Note_on_c, 3, 56, 65
5, 173760, Note_off_c, 3, 56, 64
5, 173760, Note_off_c, 3, 59, 64
5, 173760, Note_on_c, 3, 57, 54
5, 173760, Note_on_c, 3, 61, 54
5, 173880, Note_off_c, 3, 61, 64
5, 173880, Note_off_c, 3, 57, 64
5, 174840, Note_on_c, 3, 57, 72
5, 174840, Note_on_c, 3, 45, 72
5, 174954, Note_off_c, 3, 45, 64
5, 174954, Note_off_c, 3, 57, 64
5, 176220, Note_on_c, 3, 56, 54
5, 176220, Note_on_c, 3, 59, 54
5, 176280, Note_off_c, 3, 59, 64
5, 176280, Note_off_c, 3, 56, 64
5, 176340, Note_on_c, 3, 59, 54
5, 176340, Note_on_c, 3, 56, 54
5, 176400, Note_off_c, 3, 56, 64
5, 176400, Note_off_c, 3, 59, 64
5, 176460, Note_on_c, 3, 56, 54
5, 176460, Note_on_c, 3, 59, 54
5, 176580, Note_off_c, 3, 59, 64
5, 176580, Note_off_c, 3, 56, 64
5, 177300, Note_on_c, 3, 56, 54
5, 177300, Note_on_c, 3, 59, 54
5, 177360, Note_off_c, 3, 59, 64
5, 177360, Note_off_c, 3, 56, 64
5, 177420, Note_on_c, 3, 56, 54
5, 177420, Note_on_c, 3, 59, 54
5, 177480, Note_off_c, 3, 59, 64
5, 177480, Note_off_c, 3, 56, 64
5, 177540, Note_on_c, 3, 59, 54
5, 177540, Note_on_c, 3, 56, 54
5, 177660, Note_off_c, 3, 56, 64
5, 177660, Note_off_c, 3, 59, 64
5, 178080, Note_on_c, 3, 52, 54
5, 178080, Note_on_c, 3, 61, 54
5, 178656, Note_off_c, 3, 61, 64
5, 178656, Note_off_c, 3, 52, 64
5, 178800, Note_on_c, 3, 59, 54
5, 178800, Note_on_c, 3, 50, 54
5, 178920, Note_off_c, 3, 50, 64
5, 178920, Note_off_c, 3, 59, 64
5, 179040, Note_on_c, 3, 57, 54
5, 179040, Note_on_c, 3, 49, 54
5, 179160, Note_off_c, 3, 49, 64
5, 179160, Note_off_c, 3, 57, 64
5, 179280, Note_on_c, 3, 61, 54
5, 179280, Note_on_c, 3, 52, 54
5, 179400, Note_off_c, 3, 52, 64
5, 179400, Note_off_c, 3, 61, 64
5, 179520, Note_on_c, 3, 50, 54
5, 179520, Note_on_c, 3, 59, 54
5, 179640, Note_off_c, 3, 59, 64
5, 179640, Note_off_c, 3, 50, 64
5, 179760, Note_on_c, 3, 49, 54
5, 179760, Note_on_c, 3, 57, 54
5, 179880, Note_off_c, 3, 57, 64
5, 179880, Note_off_c, 3, 49, 64
5, 180000, Note_on_c, 3, 59, 54
5, 180000, Note_on_c, 3, 50, 54
5, 180120, Note_off_c, 3, 50, 64
5, 180120, Note_off_c, 3, 59, 64
5, 180240, Note_on_c, 3, 49, 72
5, 180240, Note_on_c, 3, 57, 72
5, 180360, Note_off_c, 3, 57, 64
5, 180360, Note_off_c, 3, 49, 64
5, 180480, Note_on_c, 3, 56, 72
5, 180480, Note_on_c, 3, 47, 72
5, 180600, Note_off_c, 3, 47, 64
5, 180600, Note_off_c, 3, 56, 64
5, 180720, Note_on_c, 3, 54, 72
5, 180720, Note_on_c, 3, 50, 72
5, 180840, Note_off_c, 3, 50, 64
5, 180840, Note_off_c, 3, 54, 64
5, 180960, Note_on_c, 3, 64, 72
5, 180960, Note_on_c, 3, 61, 72
5, 181080, Note_off_c, 3, 61, 64
5, 181080, Note_off_c, 3, 64, 64
5, 181200, Note_on_c, 3, 62, 72
5, 181200, Note_on_c, 3, 59, 72
5, 181320, Note_off_c, 3, 59, 64
5, 181320, Note_off_c, 3, 62, 64
5, 181440, Note_on_c, 3, 57, 72
5, 181440, Note_on_c, 3, 61, 72
5, 181560, Note_off_c, 3, 61, 64
5, 181560, Note_off_c, 3, 57, 64
5, 181680, Note_on_c, 3, 59, 72
5, 181680, Note_on_c, 3, 56, 72
5, 181800, Note_off_c, 3, 56, 64
5, 181800, Note_off_c, 3, 59, 64
5, 181920, Note_on_c, 3, 57, 54
5, 181920, Note_on_c, 3, 61, 54
5, 182040, Note_off_c, 3, 61, 64
5, 182040, Note_off_c, 3, 57, 64
5, 183000, Note_on_c, 3, 57, 72
5, 183000, Note_on_c, 3, 45, 72
5, 183192, Note_off_c, 3, 45, 64
5, 183192, Note_off_c, 3, 57, 64
5, 184380, Note_on_c, 3, 56, 54
5, 184380, Note_on_c, 3, 59, 54
5, 184440, Note_off_c, 3, 59, 64
5, 184440, Note_off_c, 3, 56, 64
5, 184500, Note_on_c, 3, 59, 54
5, 184500, Note_on_c, 3, 56, 54
5, 184560, Note_off_c, 3, 56, 64
5, 184560, Note_off_c, 3, 59, 64
5, 184620, Note_on_c, 3, 59, 54
5, 184620, Note_on_c, 3, 56, 54
5, 184740, Note_off_c, 3, 56, 64
5, 184740, Note_off_c, 3, 59, 64
5, 185460, Note_on_c, 3, 56, 54
5, 185460, Note_on_c, 3, 59, 54
5, 185520, Note_off_c, 3, 59, 64
5, 185520, Note_off_c, 3, 56, 64
5, 185580, Note_on_c, 3, 56, 54
5, 185580, Note_on_c, 3, 59, 54
5, 185640, Note_off_c, 3, 59, 64
5, 185640, Note_off_c, 3, 56, 64
5, 185700, Note_on_c, 3, 56, 54
5, 185700, Note_on_c, 3, 59, 54
5, 185820, Note_off_c, 3, 59, 64
5, 185820, Note_off_c, 3, 56, 64
5, 186240, Note_on_c, 3, 57, 80
5, 186240, Note_on_c, 3, 61, 80
5, 186432, Note_off_c, 3, 61, 64
5, 186432, Note_off_c, 3, 57, 64
5, 186720, Note_on_c, 3, 61, 80
5, 186720, Note_on_c, 3, 57, 80
5, 186912, Note_off_c, 3, 57, 64
5, 186912, Note_off_c, 3, 61, 64
5, 187200, Note_on_c, 3, 57, 80
5, 187200, Note_on_c, 3, 61, 80
5, 187392, Note_off_c, 3, 61, 64
5, 187392, Note_off_c, 3, 57, 64
5, 187680, Note_on_c, 3, 61, 80
5, 187680, Note_on_c, 3, 57, 80
5, 187872, Note_off_c, 3, 57, 64
5, 187872, Note_off_c, 3, 61, 64
5, 188160, Note_on_c, 3, 59, 64
5, 188160, Note_on_c, 3, 62, 64
5, 188352, Note_off_c, 3, 62, 64
5, 188352, Note_off_c, 3, 59, 64
5, 188640, Note_on_c, 3, 59, 61
5, 188640, Note_on_c, 3, 62, 61
5, 188832, Note_off_c, 3, 62, 64
5, 188832, Note_off_c, 3, 59, 64
5, 189120, Note_on_c, 3, 59, 57
5, 189120, Note_on_c, 3, 62, 57
5, 189312, Note_off_c, 3, 62, 64
5, 189312, Note_off_c, 3, 59, 64
5, 189600, Note_on_c, 3, 59, 53
5, 189600, Note_on_c, 3, 62, 53
5, 189792, Note_off_c, 3, 62, 64
5, 189792, Note_off_c, 3, 59, 64
5, 190080, Note_on_c, 3, 57, 60
5, 190080, Note_on_c, 3, 61, 60
5, 190272, Note_off_c, 3, 61, 64
5, 190272, Note_off_c, 3, 57, 64
5, 194880, Note_on_c, 3, 64, 58
5, 197280, Note_off_c, 3, 64, 64
5, 197280, Note_on_c, 3, 65, 58
5, 197760, Note_off_c, 3, 65, 64
5, 197760, Note_on_c, 3, 66, 58
5, 198000, Note_off_c, 3, 66, 64
5, 198720, Note_on_c, 3, 49, 58
5, 198720, Note_on_c, 3, 61, 58
5, 201826, Note_off_c, 3, 61, 64
5, 201826, Note_off_c, 3, 49, 64
5, 202560, Note_on_c, 3, 49, 58
5, 202560, Note_on_c, 3, 61, 58
5, 204960, Note_off_c, 3, 61, 64
5, 204960, Note_off_c, 3, 49, 64
5, 204960, Note_on_c, 3, 49, 96
5, 204960, Note_on_c, 3, 65, 96
5, 205440, Note_off_c, 3, 65, 64
5, 205440, Note_on_c, 3, 66, 58
5, 205680, Note_off_c, 3, 49, 64
5, 205680, Note_off_c, 3, 66, 64
5, 205920, Note_on_c, 3, 57, 80
5, 205920, Note_on_c, 3, 54, 80
5, 206064, Note_off_c, 3, 54, 64
5, 206064, Note_off_c, 3, 57, 64
5, 206400, Note_on_c, 3, 57, 80
5, 206400, Note_on_c, 3, 54, 80
5, 206544, Note_off_c, 3, 54, 64
5, 206544, Note_off_c, 3, 57, 64
5, 206880, Note_on_c, 3, 57, 80
5, 206880, Note_on_c, 3, 54, 80
5, 207024, Note_off_c, 3, 54, 64
5, 207024, Note_off_c, 3, 57, 64
5, 207360, Note_on_c, 3, 56, 80
5, 207360, Note_on_c, 3, 59, 80
5, 207504, Note_off_c, 3, 59, 64
5, 207504, Note_off_c, 3, 56, 64
5, 207840, Note_on_c, 3, 59, 80
5, 207840, Note_on_c, 3, 56, 80
5, 207984, Note_off_c, 3, 56, 64
5, 207984, Note_off_c, 3, 59, 64
5, 208320, Note_on_c, 3, 56, 80
5, 208320, Note_on_c, 3, 59, 80
5, 208464, Note_off_c, 3, 59, 64
5, 208464, Note_off_c, 3, 56, 64
5, 208800, Note_on_c, 3, 59, 80
5, 208800, Note_on_c, 3, 56, 80
5, 208944, Note_off_c, 3, 56, 64
5, 208944, Note_off_c, 3, 59, 64
5, 209280, Note_on_c, 3, 54, 80
5, 209280, Note_on_c, 3, 57, 80
5, 209424, Note_off_c, 3, 57, 64
5, 209424, Note_off_c, 3, 54, 64
5, 209760, Note_on_c, 3, 57, 80
5, 209760, Note_on_c, 3, 54, 80
5, 209904, Note_off_c, 3, 54, 64
5, 209904, Note_off_c, 3, 57, 64
5, 210240, Note_on_c, 3, 54, 80
5, 210240, Note_on_c, 3, 58, 80
5, 210384, Note_off_c, 3, 58, 64
5, 210384, Note_off_c, 3, 54, 64
5, 210720, Note_on_c, 3, 58, 80
5, 210720, Note_on_c, 3, 54, 80
5, 210864, Note_off_c, 3, 54, 64
5, 210864, Note_off_c, 3, 58, 64
5, 211200, Note_on_c, 3, 54, 80
5, 211200, Note_on_c, 3, 60, 80
5, 211344, Note_off_c, 3, 60, 64
5, 211344, Note_off_c, 3, 54, 64
5, 211680, Note_on_c, 3, 54, 80
5, 211680, Note_on_c, 3, 60, 80
5, 211824, Note_off_c, 3, 60, 64
5, 211824, Note_off_c, 3, 54, 64
5, 212160, Note_on_c, 3, 54, 80
5, 212160, Note_on_c, 3, 61, 80
5, 212304, Note_off_c, 3, 61, 64
5, 212304, Note_off_c, 3, 54, 64
5, 212640, Note_on_c, 3, 54, 80
5, 212640, Note_on_c, 3, 61, 80
5, 212784, Note_off_c, 3, 61, 64
5, 212784, Note_off_c, 3, 54, 64
5, 213120, Note_on_c, 3, 54, 80
5, 213120, Note_on_c, 3, 63, 80
5, 213264, Note_off_c, 3, 63, 64
5, 213264, Note_off_c, 3, 54, 64
5, 213600, Note_on_c, 3, 63, 80
5, 213600, Note_on_c, 3, 60, 80
5, 213744, Note_off_c, 3, 60, 64
5, 213744, Note_off_c, 3, 63, 64
5, 214080, Note_on_c, 3, 60, 80
5, 214080, Note_on_c, 3, 63, 80
5, 214224, Note_off_c, 3, 63, 64
5, 214224, Note_off_c, 3, 60, 64
5, 214560, Note_on_c, 3, 60, 80
5, 214560, Note_on_c, 3, 63, 80
5, 214704, Note_off_c, 3, 63, 64
5, 214704, Note_off_c, 3, 60, 64
5, 215040, Note_on_c, 3, 63, 80
5, 215040, Note_on_c, 3, 60, 80
5, 215184, Note_off_c, 3, 60, 64
5, 215184, Note_off_c, 3, 63, 64
5, 215520, Note_on_c, 3, 66, 80
5, 215520, Note_on_c, 3, 63, 80
5, 215664, Note_off_c, 3, 63, 64
5, 215664, Note_off_c, 3, 66, 64
5, 216480, Note_on_c, 3, 68, 48
5, 216624, Note_off_c, 3, 68, 64
5, 216960, Note_on_c, 3, 56, 48
5, 217104, Note_off_c, 3, 56, 64
5, 219360, Note_on_c, 3, 66, 80
5, 219360, Note_on_c, 3, 63, 80
5, 219504, Note_off_c, 3, 63, 64
5, 219504, Note_off_c, 3, 66, 64
5, 220320, Note_on_c, 3, 68, 64
5, 220464, Note_off_c, 3, 68, 64
5, 220800, Note_on_c, 3, 56, 64
5, 220944, Note_off_c, 3, 56, 64
5, 222240, Note_on_c, 3, 68, 64
5, 222384, Note_off_c, 3, 68, 64
5, 222720, Note_on_c, 3, 56, 64
5, 222864, Note_off_c, 3, 56, 64
5, 224160, Note_on_c, 3, 68, 64
5, 224304, Note_off_c, 3, 68, 64
5, 224640, Note_on_c, 3, 56, 64
5, 224784, Note_off_c, 3, 56, 64
5, 227040, Note_on_c, 3, 49, 80
5, 227040, Note_on_c, 3, 61, 80
5, 227424, Note_off_c, 3, 61, 64
5, 227424, Note_off_c, 3, 49, 64
5, 228000, Note_on_c, 3, 56, 80
5, 228000, Note_on_c, 3, 44, 80
5, 228384, Note_off_c, 3, 44, 64
5, 228384, Note_off_c, 3, 56, 64
5, 228960, Note_on_c, 3, 61, 80
5, 228960, Note_on_c, 3, 49, 80
5, 229344, Note_off_c, 3, 49, 64
5, 229344, Note_off_c, 3, 61, 64
5, 229920, Note_on_c, 3, 44, 80
5, 229920, Note_on_c, 3, 56, 80
5, 230304, Note_off_c, 3, 56, 64
5, 230304, Note_off_c, 3, 44, 64
5, 231360, Note_on_c, 3, 57, 40
5, 231360, Note_on_c, 3, 61, 40
5, 231744, Note_off_c, 3, 61, 64
5, 231744, Note_off_c, 3, 57, 64
5, 231840, Note_on_c, 3, 57, 40
5, 231840, Note_on_c, 3, 61, 40
5, 232224, Note_off_c, 3, 61, 64
5, 232224, Note_off_c, 3, 57, 64
5, 232320, Note_on_c, 3, 62, 40
5, 232320, Note_on_c, 3, 57, 40
5, 232704, Note_off_c, 3, 57, 64
5, 232704, Note_off_c, 3, 62, 64
5, 232800, Note_on_c, 3, 57, 40
5, 232800, Note_on_c, 3, 62, 40
5, 233184, Note_off_c, 3, 62, 64
5, 233184, Note_off_c, 3, 57, 64
5, 233280, Note_on_c, 3, 61, 40
5, 233280, Note_on_c, 3, 57, 40
5, 233664, Note_off_c, 3, 57, 64
5, 233664, Note_off_c, 3, 61, 64
5, 233760, Note_on_c, 3, 61, 40
5, 233760, Note_on_c, 3, 57, 40
5, 234144, Note_off_c, 3, 57, 64
5, 234144, Note_off_c, 3, 61, 64
5, 234240, Note_on_c, 3, 62, 40
5, 234240, Note_on_c, 3, 57, 40
5, 234624, Note_off_c, 3, 57, 64
5, 234624, Note_off_c, 3, 62, 64
5, 234720, Note_on_c, 3, 62, 40
5, 234720, Note_on_c, 3, 57, 40
5, 235104, Note_off_c, 3, 57, 64
5, 235104, Note_off_c, 3, 62, 64
5, 236640, Note_on_c, 3, 49, 80
5, 236640, Note_on_c, 3, 61, 80
5, 237024, Note_off_c, 3, 61, 64
5, 237024, Note_off_c, 3, 49, 64
5, 237600, Note_on_c, 3, 56, 80
5, 237600, Note_on_c, 3, 44, 80
5, 237984, Note_off_c, 3, 44, 64
5, 237984, Note_off_c, 3, 56, 64
5, 238560, Note_on_c, 3, 61, 80
5, 238560, Note_on_c, 3, 49, 80
5, 238944, Note_off_c, 3, 49, 64
5, 238944, Note_off_c, 3, 61, 64
5, 239520, Note_on_c, 3, 44, 80
5, 239520, Note_on_c, 3, 56, 80
5, 239904, Note_off_c, 3, 56, 64
5, 239904, Note_off_c, 3, 44, 64
5, 240960, Note_on_c, 3, 57, 40
5, 240960, Note_on_c, 3, 61, 40
5, 241344, Note_off_c, 3, 61, 64
5, 241344, Note_off_c, 3, 57, 64
5, 241440, Note_on_c, 3, 57, 40
5, 241440, Note_on_c, 3, 61, 40
5, 241824, Note_off_c, 3, 61, 64
5, 241824, Note_off_c, 3, 57, 64
5, 241920, Note_on_c, 3, 62, 40
5, 241920, Note_on_c, 3, 57, 40
5, 242304, Note_off_c, 3, 57, 64
5, 242304, Note_off_c, 3, 62, 64
5, 242400, Note_on_c, 3, 57, 40
5, 242400, Note_on_c, 3, 62, 40
5, 242784, Note_off_c, 3, 62, 64
5, 242784, Note_off_c, 3, 57, 64
5, 242880, Note_on_c, 3, 61, 40
5, 242880, Note_on_c, 3, 57, 40
5, 243264, Note_off_c, 3, 57, 64
5, 243264, Note_off_c, 3, 61, 64
5, 243360, Note_on_c, 3, 61, 40
5, 243360, Note_on_c, 3, 57, 40
5, 243744, Note_off_c, 3, 57, 64
5, 243744, Note_off_c, 3, 61, 64
5, 243840, Note_on_c, 3, 61, 40
5, 243840, Note_on_c, 3, 57, 40
5, 244224, Note_off_c, 3, 57, 64
5, 244224, Note_off_c, 3, 61, 64
5, 244320, Note_on_c, 3, 55, 30
5, 244320, Note_on_c, 3, 52, 30
5, 248640, Note_off_c, 3, 52, 64
5, 248640, Note_off_c, 3, 55, 64
5, 248640, Note_on_c, 3, 71, 33
5, 248640, Note_on_c, 3, 54, 33
5, 249600, Note_off_c, 3, 54, 64
5, 249600, Note_off_c, 3, 71, 64
5, 249600, Note_on_c, 3, 55, 40
5, 249600, Note_on_c, 3, 52, 40
5, 254400, Note_off_c, 3, 52, 64
5, 254400, Note_off_c, 3, 55, 64
5, 254400, Note_on_c, 3, 50, 53
5, 254400, Note_on_c, 3, 54, 53
5, 255264, Note_off_c, 3, 54, 64
5, 255264, Note_off_c, 3, 50, 64
5, 255360, Note_on_c, 3, 36, 99
5, 255360, Note_on_c, 3, 48, 99
5, 255480, Note_off_c, 3, 48, 64
5, 255480, Note_off_c, 3, 36, 64
5, 255600, Note_on_c, 3, 48, 99
5, 255600, Note_on_c, 3, 36, 99
5, 255720, Note_off_c, 3, 36, 64
5, 255720, Note_off_c, 3, 48, 64
5, 255840, Note_on_c, 3, 36, 99
5, 255840, Note_on_c, 3, 48, 99
5, 255960, Note_off_c, 3, 48, 64
5, 255960, Note_off_c, 3, 36, 64
5, 256080, Note_on_c, 3, 36, 99
5, 256080, Note_on_c, 3, 48, 99
5, 256200, Note_off_c, 3, 48, 64
5, 256200, Note_off_c, 3, 36, 64
5, 256320, Note_on_c, 3, 36, 99
5, 256320, Note_on_c, 3, 48, 99
5, 256440, Note_off_c, 3, 48, 64
5, 256440, Note_off_c, 3, 36, 64
5, 256560, Note_on_c, 3, 48, 99
5, 256560, Note_on_c, 3, 36, 99
5, 256680, Note_off_c, 3, 36, 64
5, 256680, Note_off_c, 3, 48, 64
5, 256800, Note_on_c, 3, 48, 99
5, 256800, Note_on_c, 3, 36, 99
5, 256920, Note_off_c, 3, 36, 64
5, 256920, Note_off_c, 3, 48, 64
5, 257040, Note_on_c, 3, 36, 99
5, 257040, Note_on_c, 3, 48, 99
5, 257160, Note_off_c, 3, 48, 64
5, 257160, Note_off_c, 3, 36, 64
5, 257280, Note_on_c, 3, 37, 127
5, 257280, Note_on_c, 3, 49, 127
5, 257400, Note_off_c, 3, 49, 64
5, 257400, Note_off_c, 3, 37, 64
5, 257520, Note_on_c, 3, 49, 99
5, 257520, Note_on_c, 3, 37, 99
5, 257640, Note_off_c, 3, 37, 64
5, 257640, Note_off_c, 3, 49, 64
5, 257760, Note_on_c, 3, 37, 99
5, 257760, Note_on_c, 3, 49, 99
5, 257880, Note_off_c, 3, 49, 64
5, 257880, Note_off_c, 3, 37, 64
5, 258000, Note_on_c, 3, 37, 99
5, 258000, Note_on_c, 3, 49, 99
5, 258120, Note_off_c, 3, 49, 64
5, 258120, Note_off_c, 3, 37, 64
5, 258240, Note_on_c, 3, 36, 127
5, 258240, Note_on_c, 3, 48, 127
5, 258360, Note_off_c, 3, 48, 64
5, 258360, Note_off_c, 3, 36, 64
5, 258480, Note_on_c, 3, 48, 99
5, 258480, Note_on_c, 3, 36, 99
5, 258600, Note_off_c, 3, 36, 64
5, 258600, Note_off_c, 3, 48, 64
5, 258720, Note_on_c, 3, 36, 99
5, 258720, Note_on_c, 3, 48, 99
5, 258840, Note_off_c, 3, 48, 64
5, 258840, Note_off_c, 3, 36, 64
5, 258960, Note_on_c, 3, 36, 99
5, 258960, Note_on_c, 3, 48, 99
5, 259080, Note_off_c, 3, 48, 64
5, 259080, Note_off_c, 3, 36, 64
5, 259200, Note_on_c, 3, 49, 127
5, 259200, Note_on_c, 3, 37, 127
5, 259320, Note_off_c, 3, 37, 64
5, 259320, Note_off_c, 3, 49, 64
5, 259440, Note_on_c, 3, 49, 99
5, 259440, Note_on_c, 3, 37, 99
5, 259560, Note_off_c, 3, 37, 64
5, 259560, Note_off_c, 3, 49, 64
5, 259680, Note_on_c, 3, 37, 99
5, 259680, Note_on_c, 3, 49, 99
5, 259800, Note_off_c, 3, 49, 64
5, 259800, Note_off_c, 3, 37, 64
5, 259920, Note_on_c, 3, 37, 99
5, 259920, Note_on_c, 3, 49, 99
5, 260040, Note_off_c, 3, 49, 64
5, 260040, Note_off_c, 3, 37, 64
5, 260160, Note_on_c, 3, 48, 127
5, 260160, Note_on_c, 3, 36, 127
5, 260280, Note_off_c, 3, 36, 64
5, 260280, Note_off_c, 3, 48, 64
5, 260400, Note_on_c, 3, 48, 99
5, 260400, Note_on_c, 3, 36, 99
5, 260520, Note_off_c, 3, 36, 64
5, 260520, Note_off_c, 3, 48, 64
5, 260640, Note_on_c, 3, 36, 99
5, 260640, Note_on_c, 3, 48, 99
5, 260760, Note_off_c, 3, 48, 64
5, 260760, Note_off_c, 3, 36, 64
5, 260880, Note_on_c, 3, 48, 99
5, 260880, Note_on_c, 3, 36, 99
5, 261000, Note_off_c, 3, 36, 64
5, 261000, Note_off_c, 3, 48, 64
5, 261120, Note_on_c, 3, 49, 127
5, 261120, Note_on_c, 3, 37, 127
5, 261240, Note_off_c, 3, 37, 64
5, 261240, Note_off_c, 3, 49, 64
5, 261360, Note_on_c, 3, 49, 99
5, 261360, Note_on_c, 3, 37, 99
5, 261480, Note_off_c, 3, 37, 64
5, 261480, Note_off_c, 3, 49, 64
5, 261600, Note_on_c, 3, 37, 99
5, 261600, Note_on_c, 3, 49, 99
5, 261720, Note_off_c, 3, 49, 64
5, 261720, Note_off_c, 3, 37, 64
5, 261840, Note_on_c, 3, 37, 99
5, 261840, Note_on_c, 3, 49, 99
5, 261960, Note_off_c, 3, 49, 64
5, 261960, Note_off_c, 3, 37, 64
5, 262080, Note_on_c, 3, 54, 127
5, 262080, Note_on_c, 3, 42, 127
5, 262200, Note_off_c, 3, 42, 64
5, 262200, Note_off_c, 3, 54, 64
5, 262320, Note_on_c, 3, 54, 99
5, 262320, Note_on_c, 3, 42, 99
5, 262440, Note_off_c, 3, 42, 64
5, 262440, Note_off_c, 3, 54, 64
5, 262560, Note_on_c, 3, 42, 99
5, 262560, Note_on_c, 3, 54, 99
5, 262680, Note_off_c, 3, 54, 64
5, 262680, Note_off_c, 3, 42, 64
5, 262800, Note_on_c, 3, 54, 99
5, 262800, Note_on_c, 3, 42, 99
5, 262920, Note_off_c, 3, 42, 64
5, 262920, Note_off_c, 3, 54, 64
5, 263040, Note_on_c, 3, 56, 127
5, 263040, Note_on_c, 3, 44, 127
5, 263160, Note_off_c, 3, 44, 64
5, 263160, Note_off_c, 3, 56, 64
5, 263280, Note_on_c, 3, 56, 99
5, 263280, Note_on_c, 3, 44, 99
5, 263400, Note_off_c, 3, 44, 64
5, 263400, Note_off_c, 3, 56, 64
5, 263520, Note_on_c, 3, 44, 99
5, 263520, Note_on_c, 3, 56, 99
5, 263640, Note_off_c, 3, 56, 64
5, 263640, Note_off_c, 3, 44, 64
5, 263760, Note_on_c, 3, 44, 99
5, 263760, Note_on_c, 3, 56, 99
5, 263880, Note_off_c, 3, 56, 64
5, 263880, Note_off_c, 3, 44, 64
5, 264000, Note_on_c, 3, 56, 127
5, 264000, Note_on_c, 3, 44, 127
5, 264120, Note_off_c, 3, 44, 64
5, 264120, Note_off_c, 3, 56, 64
5, 264240, Note_on_c, 3, 56, 99
5, 264240, Note_on_c, 3, 44, 99
5, 264360, Note_off_c, 3, 44, 64
5, 264360, Note_off_c, 3, 56, 64
5, 264480, Note_on_c, 3, 44, 99
5, 264480, Note_on_c, 3, 56, 99
5, 264600, Note_off_c, 3, 56, 64
5, 264600, Note_off_c, 3, 44, 64
5, 264720, Note_on_c, 3, 56, 99
5, 264720, Note_on_c, 3, 44, 99
5, 264840, Note_off_c, 3, 44, 64
5, 264840, Note_off_c, 3, 56, 64
5, 264960, Note_on_c, 3, 49, 99
5, 264960, Note_on_c, 3, 37, 99
5, 265080, Note_off_c, 3, 37, 64
5, 265080, Note_off_c, 3, 49, 64
5, 265200, Note_on_c, 3, 49, 99
5, 265200, Note_on_c, 3, 37, 99
5, 265320, Note_off_c, 3, 37, 64
5, 265320, Note_off_c, 3, 49, 64
5, 265440, Note_on_c, 3, 49, 127
5, 265440, Note_on_c, 3, 37, 127
5, 265560, Note_off_c, 3, 37, 64
5, 265560, Note_off_c, 3, 49, 64
5, 265680, Note_on_c, 3, 49, 99
5, 265680, Note_on_c, 3, 37, 99
5, 265800, Note_off_c, 3, 37, 64
5, 265800, Note_off_c, 3, 49, 64
5, 265920, Note_on_c, 3, 37, 99
5, 265920, Note_on_c, 3, 49, 99
5, 266040, Note_off_c, 3, 49, 64
5, 266040, Note_off_c, 3, 37, 64
5, 266160, Note_on_c, 3, 37, 99
5, 266160, Note_on_c, 3, 49, 99
5, 266280, Note_off_c, 3, 49, 64
5, 266280, Note_off_c, 3, 37, 64
5, 266400, Note_on_c, 3, 37, 99
5, 266400, Note_on_c, 3, 49, 99
5, 266520, Note_off_c, 3, 49, 64
5, 266520, Note_off_c, 3, 37, 64
5, 266640, Note_on_c, 3, 37, 99
5, 266640, Note_on_c, 3, 49, 99
5, 266760, Note_off_c, 3, 49, 64
5, 266760, Note_off_c, 3, 37, 64
5, 266880, Note_on_c, 3, 37, 99
5, 266880, Note_on_c, 3, 49, 99
5, 267000, Note_off_c, 3, 49, 64
5, 267000, Note_off_c, 3, 37, 64
5, 267120, Note_on_c, 3, 37, 99
5, 267120, Note_on_c, 3, 49, 99
5, 267240, Note_off_c, 3, 49, 64
5, 267240, Note_off_c, 3, 37, 64
5, 267360, Note_on_c, 3, 37, 127
5, 267360, Note_on_c, 3, 49, 127
5, 267480, Note_off_c, 3, 49, 64
5, 267480, Note_off_c, 3, 37, 64
5, 267600, Note_on_c, 3, 49, 99
5, 267600, Note_on_c, 3, 37, 99
5, 267720, Note_off_c, 3, 37, 64
5, 267720, Note_off_c, 3, 49, 64
5, 267840, Note_on_c, 3, 37, 99
5, 267840, Note_on_c, 3, 49, 99
5, 267960, Note_off_c, 3, 49, 64
5, 267960, Note_off_c, 3, 37, 64
5, 268080, Note_on_c, 3, 49, 99
5, 268080, Note_on_c, 3, 37, 99
5, 268200, Note_off_c, 3, 37, 64
5, 268200, Note_off_c, 3, 49, 64
5, 268320, Note_on_c, 3, 49, 99
5, 268320, Note_on_c, 3, 37, 99
5, 268440, Note_off_c, 3, 37, 64
5, 268440, Note_off_c, 3, 49, 64
5, 268560, Note_on_c, 3, 49, 99
5, 268560, Note_on_c, 3, 37, 99
5, 268680, Note_off_c, 3, 37, 64
5, 268680, Note_off_c, 3, 49, 64
5, 268800, Note_on_c, 3, 37, 99
5, 268800, Note_on_c, 3, 49, 99
5, 268920, Note_off_c, 3, 49, 64
5, 268920, Note_off_c, 3, 37, 64
5, 269040, Note_on_c, 3, 37, 99
5, 269040, Note_on_c, 3, 49, 99
5, 269160, Note_off_c, 3, 49, 64
5, 269160, Note_off_c, 3, 37, 64
5, 269280, Note_on_c, 3, 37, 127
5, 269280, Note_on_c, 3, 49, 127
5, 269400, Note_off_c, 3, 49, 64
5, 269400, Note_off_c, 3, 37, 64
5, 269520, Note_on_c, 3, 49, 99
5, 269520, Note_on_c, 3, 37, 99
5, 269640, Note_off_c, 3, 37, 64
5, 269640, Note_off_c, 3, 49, 64
5, 269760, Note_on_c, 3, 49, 99
5, 269760, Note_on_c, 3, 37, 99
5, 269880, Note_off_c, 3, 37, 64
5, 269880, Note_off_c, 3, 49, 64
5, 270000, Note_on_c, 3, 37, 99
5, 270000, Note_on_c, 3, 49, 99
5, 270120, Note_off_c, 3, 49, 64
5, 270120, Note_off_c, 3, 37, 64
5, 270240, Note_on_c, 3, 37, 127
5, 270240, Note_on_c, 3, 49, 127
5, 270360, Note_off_c, 3, 49, 64
5, 270360, Note_off_c, 3, 37, 64
5, 270480, Note_on_c, 3, 49, 99
5, 270480, Note_on_c, 3, 37, 99
5, 270600, Note_off_c, 3, 37, 64
5, 270600, Note_off_c, 3, 49, 64
5, 270720, Note_on_c, 3, 49, 99
5, 270720, Note_on_c, 3, 37, 99
5, 270840, Note_off_c, 3, 37, 64
5, 270840, Note_off_c, 3, 49, 64
5, 270960, Note_on_c, 3, 37, 99
5, 270960, Note_on_c, 3, 49, 99
5, 271080, Note_off_c, 3, 49, 64
5, 271080, Note_off_c, 3, 37, 64
5, 271200, Note_on_c, 3, 37, 127
5, 271200, Note_on_c, 3, 49, 127
5, 271320, Note_off_c, 3, 49, 64
5, 271320, Note_off_c, 3, 37, 64
5, 271440, Note_on_c, 3, 49, 99
5, 271440, Note_on_c, 3, 37, 99
5, 271560, Note_off_c, 3, 37, 64
5, 271560, Note_off_c, 3, 49, 64
5, 271680, Note_on_c, 3, 56, 99
5, 271680, Note_on_c, 3, 52, 99
5, 271800, Note_off_c, 3, 52, 64
5, 271800, Note_off_c, 3, 56, 64
5, 271920, Note_on_c, 3, 57, 99
5, 272040, Note_off_c, 3, 57, 64
5, 272160, Note_on_c, 3, 58, 127
5, 272280, Note_off_c, 3, 58, 64
5, 272400, Note_on_c, 3, 58, 99
5, 272520, Note_off_c, 3, 58, 64
5, 272940, Note_on_c, 3, 52, 54
5, 272940, Note_on_c, 3, 64, 54
5, 273054, Note_off_c, 3, 64, 64
5, 273054, Note_off_c, 3, 52, 64
5, 273060, Note_on_c, 3, 52, 54
5, 273060, Note_on_c, 3, 64, 54
5, 273174, Note_off_c, 3, 64, 64
5, 273174, Note_off_c, 3, 52, 64
5, 273180, Note_on_c, 3, 52, 72
5, 273180, Note_on_c, 3, 64, 72
5, 273294, Note_off_c, 3, 64, 64
5, 273294, Note_off_c, 3, 52, 64
5, 275040, Note_on_c, 3, 36, 120
5, 275040, Note_on_c, 3, 48, 120
5, 275160, Note_off_c, 3, 48, 64
5, 275160, Note_off_c, 3, 36, 64
5, 275340, Note_on_c, 3, 55, 54
5, 275340, Note_on_c, 3, 58, 54
5, 275454, Note_off_c, 3, 58, 64
5, 275454, Note_off_c, 3, 55, 64
5, 275460, Note_on_c, 3, 58, 54
5, 275460, Note_on_c, 3, 55, 54
5, 275574, Note_off_c, 3, 55, 64
5, 275574, Note_off_c, 3, 58, 64
5, 275580, Note_on_c, 3, 58, 72
5, 275580, Note_on_c, 3, 55, 72
5, 275694, Note_off_c, 3, 55, 64
5, 275694, Note_off_c, 3, 58, 64
5, 277440, Note_on_c, 3, 52, 54
5, 277440, Note_on_c, 3, 55, 54
5, 277560, Note_off_c, 3, 55, 64
5, 277560, Note_off_c, 3, 52, 64
5, 278160, Note_on_c, 3, 52, 54
5, 278160, Note_on_c, 3, 55, 54
5, 278400, Note_off_c, 3, 55, 64
5, 278400, Note_off_c, 3, 52, 64
5, 278400, Note_on_c, 3, 57, 54
5, 278400, Note_on_c, 3, 53, 54
5, 278520, Note_off_c, 3, 53, 64
5, 278520, Note_off_c, 3, 57, 64
5, 279120, Note_on_c, 3, 53, 54
5, 279120, Note_on_c, 3, 57, 54
5, 279360, Note_off_c, 3, 57, 64
5, 279360, Note_off_c, 3, 53, 64
5, 279360, Note_on_c, 3, 52, 54
5, 279360, Note_on_c, 3, 55, 54
5, 279480, Note_off_c, 3, 55, 64
5, 279480, Note_off_c, 3, 52, 64
5, 280080, Note_on_c, 3, 55, 54
5, 280080, Note_on_c, 3, 52, 54
5, 280320, Note_off_c, 3, 52, 64
5, 280320, Note_off_c, 3, 55, 64
5, 280320, Note_on_c, 3, 57, 54
5, 280320, Note_on_c, 3, 53, 54
5, 280440, Note_off_c, 3, 53, 64
5, 280440, Note_off_c, 3, 57, 64
5, 284160, Note_on_c, 3, 56, 54
5, 284160, Note_on_c, 3, 59, 54
5, 284280, Note_off_c, 3, 59, 64
5, 284280, Note_off_c, 3, 56, 64
5, 284880, Note_on_c, 3, 56, 54
5, 284880, Note_on_c, 3, 59, 54
5, 285120, Note_off_c, 3, 59, 64
5, 285120, Note_off_c, 3, 56, 64
5, 285120, Note_on_c, 3, 60, 54
5, 285120, Note_on_c, 3, 57, 54
5, 285240, Note_off_c, 3, 57, 64
5, 285240, Note_off_c, 3, 60, 64
5, 285840, Note_on_c, 3, 57, 54
5, 285840, Note_on_c, 3, 60, 54
5, 286080, Note_off_c, 3, 60, 64
5, 286080, Note_off_c, 3, 57, 64
5, 286080, Note_on_c, 3, 56, 54
5, 286080, Note_on_c, 3, 59, 54
5, 286200, Note_off_c, 3, 59, 64
5, 286200, Note_off_c, 3, 56, 64
5, 286800, Note_on_c, 3, 59, 54
5, 286800, Note_on_c, 3, 56, 54
5, 287040, Note_off_c, 3, 56, 64
5, 287040, Note_off_c, 3, 59, 64
5, 287040, Note_on_c, 3, 60, 54
5, 287040, Note_on_c, 3, 57, 54
5, 287160, Note_off_c, 3, 57, 64
5, 287160, Note_off_c, 3, 60, 64
5, 296640, Note_on_c, 3, 56, 54
5, 296640, Note_on_c, 3, 59, 54
5, 296760, Note_off_c, 3, 59, 64
5, 296760, Note_off_c, 3, 56, 64
5, 297360, Note_on_c, 3, 56, 54
5, 297360, Note_on_c, 3, 59, 54
5, 297600, Note_off_c, 3, 59, 64
5, 297600, Note_off_c, 3, 56, 64
5, 297600, Note_on_c, 3, 61, 54
5, 297600, Note_on_c, 3, 57, 54
5, 297720, Note_off_c, 3, 57, 64
5, 297720, Note_off_c, 3, 61, 64
5, 298320, Note_on_c, 3, 57, 54
5, 298320, Note_on_c, 3, 61, 54
5, 298560, Note_off_c, 3, 61, 64
5, 298560, Note_off_c, 3, 57, 64
5, 298560, Note_on_c, 3, 56, 54
5, 298560, Note_on_c, 3, 59, 54
5, 298680, Note_off_c, 3, 59, 64
5, 298680, Note_off_c, 3, 56, 64
5, 299280, Note_on_c, 3, 56, 54
5, 299280, Note_on_c, 3, 59, 54
5, 299520, Note_off_c, 3, 59, 64
5, 299520, Note_off_c, 3, 56, 64
5, 299520, Note_on_c, 3, 61, 54
5, 299520, Note_on_c, 3, 57, 54
5, 299640, Note_off_c, 3, 57, 64
5, 299640, Note_off_c, 3, 61, 64
5, 300240, Note_on_c, 3, 61, 54
5, 300240, Note_on_c, 3, 57, 54
5, 300480, Note_off_c, 3, 57, 64
5, 300480, Note_off_c, 3, 61, 64
5, 300480, Note_on_c, 3, 56, 54
5, 300480, Note_on_c, 3, 59, 54
5, 300600, Note_off_c, 3, 59, 64
5, 300600, Note_off_c, 3, 56, 64
5, 301200, Note_on_c, 3, 56, 54
5, 301200, Note_on_c, 3, 59, 54
5, 301440, Note_off_c, 3, 59, 64
5, 301440, Note_off_c, 3, 56, 64
5, 301440, Note_on_c, 3, 64, 54
5, 301440, Note_on_c, 3, 60, 54
5, 301560, Note_off_c, 3, 60, 64
5, 301560, Note_off_c, 3, 64, 64
5, 302160, Note_on_c, 3, 60, 54
5, 302160, Note_on_c, 3, 64, 54
5, 302400, Note_off_c, 3, 64, 64
5, 302400, Note_off_c, 3, 60, 64
5, 302400, Note_on_c, 3, 59, 54
5, 302400, Note_on_c, 3, 62, 54
5, 302520, Note_off_c, 3, 62, 64
5, 302520, Note_off_c, 3, 59, 64
5, 303120, Note_on_c, 3, 59, 54
5, 303120, Note_on_c, 3, 62, 54
5, 303360, Note_off_c, 3, 62, 64
5, 303360, Note_off_c, 3, 59, 64
5, 303360, Note_on_c, 3, 64, 54
5, 303360, Note_on_c, 3, 60, 54
5, 303480, Note_off_c, 3, 60, 64
5, 303480, Note_off_c, 3, 64, 64
5, 304320, Note_on_c, 3, 56, 54
5, 304320, Note_on_c, 3, 59, 54
5, 304440, Note_off_c, 3, 59, 64
5, 304440, Note_off_c, 3, 56, 64
5, 305040, Note_on_c, 3, 56, 54
5, 305040, Note_on_c, 3, 59, 54
5, 305280, Note_off_c, 3, 59, 64
5, 305280, Note_off_c, 3, 56, 64
5, 305280, Note_on_c, 3, 61, 54
5, 305280, Note_on_c, 3, 57, 54
5, 305400, Note_off_c, 3, 57, 64
5, 305400, Note_off_c, 3, 61, 64
5, 306000, Note_on_c, 3, 57, 54
5, 306000, Note_on_c, 3, 61, 54
5, 306240, Note_off_c, 3, 61, 64
5, 306240, Note_off_c, 3, 57, 64
5, 306240, Note_on_c, 3, 56, 54
5, 306240, Note_on_c, 3, 59, 54
5, 306360, Note_off_c, 3, 59, 64
5, 306360, Note_off_c, 3, 56, 64
5, 306960, Note_on_c, 3, 56, 54
5, 306960, Note_on_c, 3, 59, 54
5, 307200, Note_off_c, 3, 59, 64
5, 307200, Note_off_c, 3, 56, 64
5, 307200, Note_on_c, 3, 61, 54
5, 307200, Note_on_c, 3, 57, 54
5, 307320, Note_off_c, 3, 57, 64
5, 307320, Note_off_c, 3, 61, 64
5, 307920, Note_on_c, 3, 61, 54
5, 307920, Note_on_c, 3, 57, 54
5, 308160, Note_off_c, 3, 57, 64
5, 308160, Note_off_c, 3, 61, 64
5, 308160, Note_on_c, 3, 56, 54
5, 308160, Note_on_c, 3, 59, 54
5, 308280, Note_off_c, 3, 59, 64
5, 308280, Note_off_c, 3, 56, 64
5, 308880, Note_on_c, 3, 56, 54
5, 308880, Note_on_c, 3, 59, 54
5, 309120, Note_off_c, 3, 59, 64
5, 309120, Note_off_c, 3, 56, 64
5, 309120, Note_on_c, 3, 64, 54
5, 309120, Note_on_c, 3, 60, 54
5, 309240, Note_off_c, 3, 60, 64
5, 309240, Note_off_c, 3, 64, 64
5, 309840, Note_on_c, 3, 60, 54
5, 309840, Note_on_c, 3, 64, 54
5, 310080, Note_off_c, 3, 64, 64
5, 310080, Note_off_c, 3, 60, 64
5, 310080, Note_on_c, 3, 59, 54
5, 310080, Note_on_c, 3, 62, 54
5, 310200, Note_off_c, 3, 62, 64
5, 310200, Note_off_c, 3, 59, 64
5, 310800, Note_on_c, 3, 59, 54
5, 310800, Note_on_c, 3, 62, 54
5, 311040, Note_off_c, 3, 62, 64
5, 311040, Note_off_c, 3, 59, 64
5, 311040, Note_on_c, 3, 64, 54
5, 311040, Note_on_c, 3, 60, 54
5, 311160, Note_off_c, 3, 60, 64
5, 311160, Note_off_c, 3, 64, 64
5, 312000, Note_on_c, 3, 65, 54
5, 312000, Note_on_c, 3, 69, 54
5, 312120, Note_off_c, 3, 69, 64
5, 312120, Note_off_c, 3, 65, 64
5, 312720, Note_on_c, 3, 69, 54
5, 312720, Note_on_c, 3, 65, 54
5, 312960, Note_off_c, 3, 65, 64
5, 312960, Note_off_c, 3, 69, 64
5, 312960, Note_on_c, 3, 64, 54
5, 312960, Note_on_c, 3, 67, 54
5, 313080, Note_off_c, 3, 67, 64
5, 313080, Note_off_c, 3, 64, 64
5, 313680, Note_on_c, 3, 64, 54
5, 313680, Note_on_c, 3, 67, 54
5, 313920, Note_off_c, 3, 67, 64
5, 313920, Note_off_c, 3, 64, 64
5, 313920, Note_on_c, 3, 65, 54
5, 313920, Note_on_c, 3, 69, 54
5, 314040, Note_off_c, 3, 69, 64
5, 314040, Note_off_c, 3, 65, 64
5, 314640, Note_on_c, 3, 65, 54
5, 314640, Note_on_c, 3, 69, 54
5, 314880, Note_off_c, 3, 65, 64
5, 315000, Note_off_c, 3, 69, 64
5, 315120, Note_on_c, 3, 68, 72
5, 315312, Note_off_c, 3, 68, 64
5, 315600, Note_on_c, 3, 67, 54
5, 315600, Note_on_c, 3, 64, 54
5, 315840, Note_off_c, 3, 64, 64
5, 315840, Note_off_c, 3, 67, 64
5, 315840, Note_on_c, 3, 60, 54
5, 315840, Note_on_c, 3, 66, 54
5, 315960, Note_off_c, 3, 66, 64
5, 315960, Note_off_c, 3, 60, 64
5, 316560, Note_on_c, 3, 62, 54
5, 316560, Note_on_c, 3, 65, 54
5, 316800, Note_off_c, 3, 65, 64
5, 316800, Note_off_c, 3, 62, 64
5, 316800, Note_on_c, 3, 64, 54
5, 316800, Note_on_c, 3, 60, 54
5, 316920, Note_off_c, 3, 60, 64
5, 316920, Note_off_c, 3, 64, 64
5, 317520, Note_on_c, 3, 64, 54
5, 317520, Note_on_c, 3, 60, 54
5, 317760, Note_off_c, 3, 60, 64
5, 317760, Note_off_c, 3, 64, 64
5, 317760, Note_on_c, 3, 59, 54
5, 317760, Note_on_c, 3, 62, 54
5, 317880, Note_off_c, 3, 62, 64
5, 317880, Note_off_c, 3, 59, 64
5, 318480, Note_on_c, 3, 62, 54
5, 318480, Note_on_c, 3, 59, 54
5, 318720, Note_off_c, 3, 59, 64
5, 318720, Note_off_c, 3, 62, 64
5, 318720, Note_on_c, 3, 64, 54
5, 318720, Note_on_c, 3, 60, 54
5, 318840, Note_off_c, 3, 60, 64
5, 318840, Note_off_c, 3, 64, 64
5, 319680, Note_on_c, 3, 65, 54
5, 319680, Note_on_c, 3, 69, 54
5, 319800, Note_off_c, 3, 69, 64
5, 319800, Note_off_c, 3, 65, 64
5, 320400, Note_on_c, 3, 69, 54
5, 320400, Note_on_c, 3, 65, 54
5, 320640, Note_off_c, 3, 65, 64
5, 320640, Note_off_c, 3, 69, 64
5, 320640, Note_on_c, 3, 64, 54
5, 320640, Note_on_c, 3, 67, 54
5, 320760, Note_off_c, 3, 67, 64
5, 320760, Note_off_c, 3, 64, 64
5, 321360, Note_on_c, 3, 64, 54
5, 321360, Note_on_c, 3, 67, 54
5, 321600, Note_off_c, 3, 67, 64
5, 321600, Note_off_c, 3, 64, 64
5, 321600, Note_on_c, 3, 65, 54
5, 321600, Note_on_c, 3, 69, 54
5, 321720, Note_off_c, 3, 69, 64
5, 321720, Note_off_c, 3, 65, 64
5, 322320, Note_on_c, 3, 65, 54
5, 322320, Note_on_c, 3, 69, 54
5, 322560, Note_off_c, 3, 65, 64
5, 322680, Note_off_c, 3, 69, 64
5, 322800, Note_on_c, 3, 68, 72
5, 322992, Note_off_c, 3, 68, 64
5, 323280, Note_on_c, 3, 67, 54
5, 323280, Note_on_c, 3, 64, 54
5, 323520, Note_off_c, 3, 64, 64
5, 323520, Note_off_c, 3, 67, 64
5, 323520, Note_on_c, 3, 60, 54
5, 323520, Note_on_c, 3, 66, 54
5, 323640, Note_off_c, 3, 66, 64
5, 323640, Note_off_c, 3, 60, 64
5, 324240, Note_on_c, 3, 62, 54
5, 324240, Note_on_c, 3, 65, 54
5, 324480, Note_off_c, 3, 65, 64
5, 324480, Note_off_c, 3, 62, 64
5, 324480, Note_on_c, 3, 64, 54
5, 324480, Note_on_c, 3, 60, 54
5, 324600, Note_off_c, 3, 60, 64
5, 324600, Note_off_c, 3, 64, 64
5, 325200, Note_on_c, 3, 64, 54
5, 325200, Note_on_c, 3, 60, 54
5, 325440, Note_off_c, 3, 60, 64
5, 325440, Note_off_c, 3, 64, 64
5, 325440, Note_on_c, 3, 59, 54
5, 325440, Note_on_c, 3, 62, 54
5, 325560, Note_off_c, 3, 62, 64
5, 325560, Note_off_c, 3, 59, 64
5, 326160, Note_on_c, 3, 62, 54
5, 326160, Note_on_c, 3, 59, 54
5, 326400, Note_off_c, 3, 59, 64
5, 326400, Note_off_c, 3, 62, 64
5, 326400, Note_on_c, 3, 60, 54
5, 326400, Note_on_c, 3, 64, 54
5, 326520, Note_off_c, 3, 64, 64
5, 326520, Note_off_c, 3, 60, 64
5, 326640, Note_on_c, 3, 60, 72
5, 326640, Note_on_c, 3, 64, 72
5, 326700, Note_off_c, 3, 64, 64
5, 326700, Note_off_c, 3, 60, 64
5, 326760, Note_on_c, 3, 64, 72
5, 326760, Note_on_c, 3, 60, 72
5, 326820, Note_off_c, 3, 60, 64
5, 326820, Note_off_c, 3, 64, 64
5, 326880, Note_on_c, 3, 64, 72
5, 326880, Note_on_c, 3, 60, 72
5, 326940, Note_off_c, 3, 60, 64
5, 326940, Note_off_c, 3, 64, 64
5, 327600, Note_on_c, 3, 65, 72
5, 327600, Note_on_c, 3, 62, 72
5, 327660, Note_off_c, 3, 62, 64
5, 327660, Note_off_c, 3, 65, 64
5, 327720, Note_on_c, 3, 65, 72
5, 327720, Note_on_c, 3, 62, 72
5, 327780, Note_off_c, 3, 62, 64
5, 327780, Note_off_c, 3, 65, 64
5, 327840, Note_on_c, 3, 65, 72
5, 327840, Note_on_c, 3, 62, 72
5, 327900, Note_off_c, 3, 62, 64
5, 327900, Note_off_c, 3, 65, 64
5, 328560, Note_on_c, 3, 64, 72
5, 328560, Note_on_c, 3, 60, 72
5, 328620, Note_off_c, 3, 60, 64
5, 328620, Note_off_c, 3, 64, 64
5, 328680, Note_on_c, 3, 60, 72
5, 328680, Note_on_c, 3, 64, 72
5, 328740, Note_off_c, 3, 64, 64
5, 328740, Note_off_c, 3, 60, 64
5, 328800, Note_on_c, 3, 64, 72
5, 328800, Note_on_c, 3, 60, 72
5, 328860, Note_off_c, 3, 60, 64
5, 328860, Note_off_c, 3, 64, 64
5, 329520, Note_on_c, 3, 64, 72
5, 329520, Note_on_c, 3, 60, 72
5, 329580, Note_off_c, 3, 60, 64
5, 329580, Note_off_c, 3, 64, 64
5, 329640, Note_on_c, 3, 64, 72
5, 329640, Note_on_c, 3, 60, 72
5, 329700, Note_off_c, 3, 60, 64
5, 329700, Note_off_c, 3, 64, 64
5, 329760, Note_on_c, 3, 62, 72
5, 329760, Note_on_c, 3, 59, 72
5, 329820, Note_off_c, 3, 59, 64
5, 329820, Note_off_c, 3, 62, 64
5, 330720, Note_on_c, 3, 60, 120
5, 331200, Note_off_c, 3, 60, 64
5, 331200, Note_on_c, 3, 65, 120
5, 331320, Note_off_c, 3, 65, 64
5, 331680, Note_on_c, 3, 57, 120
5, 332160, Note_off_c, 3, 57, 64
5, 332160, Note_on_c, 3, 62, 120
5, 332280, Note_off_c, 3, 62, 64
5, 332640, Note_on_c, 3, 55, 120
5, 333120, Note_off_c, 3, 55, 64
5, 333120, Note_on_c, 3, 58, 120
5, 333240, Note_off_c, 3, 58, 64
5, 333600, Note_on_c, 3, 52, 120
5, 334080, Note_off_c, 3, 52, 64
5, 334080, Note_on_c, 3, 53, 120
5, 334200, Note_off_c, 3, 53, 64
5, 334320, Note_on_c, 3, 65, 72
5, 334320, Note_on_c, 3, 53, 72
5, 334380, Note_off_c, 3, 53, 64
5, 334380, Note_off_c, 3, 65, 64
5, 334440, Note_on_c, 3, 65, 72
5, 334440, Note_on_c, 3, 53, 72
5, 334500, Note_off_c, 3, 53, 64
5, 334500, Note_off_c, 3, 65, 64
5, 334560, Note_on_c, 3, 53, 72
5, 334560, Note_on_c, 3, 65, 72
5, 334620, Note_off_c, 3, 65, 64
5, 334620, Note_off_c, 3, 53, 64
5, 335280, Note_on_c, 3, 62, 72
5, 335280, Note_on_c, 3, 50, 72
5, 335340, Note_off_c, 3, 50, 64
5, 335340, Note_off_c, 3, 62, 64
5, 335400, Note_on_c, 3, 62, 72
5, 335400, Note_on_c, 3, 50, 72
5, 335460, Note_off_c, 3, 50, 64
5, 335460, Note_off_c, 3, 62, 64
5, 335520, Note_on_c, 3, 62, 72
5, 335520, Note_on_c, 3, 50, 72
5, 335580, Note_off_c, 3, 50, 64
5, 335580, Note_off_c, 3, 62, 64
5, 336240, Note_on_c, 3, 62, 72
5, 336240, Note_on_c, 3, 50, 72
5, 336300, Note_off_c, 3, 50, 64
5, 336300, Note_off_c, 3, 62, 64
5, 336360, Note_on_c, 3, 62, 72
5, 336360, Note_on_c, 3, 50, 72
5, 336420, Note_off_c, 3, 50, 64
5, 336420, Note_off_c, 3, 62, 64
5, 336480, Note_on_c, 3, 62, 72
5, 336480, Note_on_c, 3, 50, 72
5, 336540, Note_off_c, 3, 50, 64
5, 336540, Note_off_c, 3, 62, 64
5, 337200, Note_on_c, 3, 64, 72
5, 337200, Note_on_c, 3, 61, 72
5, 337260, Note_off_c, 3, 61, 64
5, 337260, Note_off_c, 3, 64, 64
5, 337320, Note_on_c, 3, 61, 72
5, 337320, Note_on_c, 3, 64, 72
5, 337380, Note_off_c, 3, 64, 64
5, 337380, Note_off_c, 3, 61, 64
5, 337440, Note_on_c, 3, 61, 72
5, 337440, Note_on_c, 3, 64, 72
5, 337500, Note_off_c, 3, 64, 64
5, 337500, Note_off_c, 3, 61, 64
5, 337920, Note_on_c, 3, 62, 72
5, 337920, Note_on_c, 3, 50, 72
5, 338040, Note_off_c, 3, 50, 64
5, 338040, Note_off_c, 3, 62, 64
5, 338400, Note_on_c, 3, 62, 80
5, 338850, Note_off_c, 3, 62, 64
5, 338880, Note_on_c, 3, 65, 77
5, 339106, Note_off_c, 3, 65, 64
5, 339360, Note_on_c, 3, 57, 75
5, 339810, Note_off_c, 3, 57, 64
5, 339840, Note_on_c, 3, 62, 73
5, 340066, Note_off_c, 3, 62, 64
5, 340320, Note_on_c, 3, 53, 70
5, 340770, Note_off_c, 3, 53, 64
5, 340800, Note_on_c, 3, 57, 68
5, 341026, Note_off_c, 3, 57, 64
5, 341280, Note_on_c, 3, 50, 66
5, 341730, Note_off_c, 3, 50, 64
5, 341760, Note_on_c, 3, 53, 63
5, 341986, Note_off_c, 3, 53, 64
5, 342240, Note_on_c, 3, 45, 61
5, 342690, Note_off_c, 3, 45, 64
5, 342720, Note_on_c, 3, 50, 59
5, 342946, Note_off_c, 3, 50, 64
5, 343200, Note_on_c, 3, 41, 56
5, 343200, Note_on_c, 3, 53, 56
5, 343650, Note_off_c, 3, 53, 64
5, 343650, Note_off_c, 3, 41, 64
5, 343680, Note_on_c, 3, 57, 54
5, 343680, Note_on_c, 3, 45, 54
5, 343906, Note_off_c, 3, 45, 64
5, 343906, Note_off_c, 3, 57, 64
5, 344160, Note_on_c, 3, 41, 52
5, 344160, Note_on_c, 3, 53, 52
5, 344610, Note_off_c, 3, 53, 64
5, 344610, Note_off_c, 3, 41, 64
5, 344640, Note_on_c, 3, 57, 60
5, 344640, Note_on_c, 3, 45, 60
5, 344866, Note_off_c, 3, 45, 64
5, 344866, Note_off_c, 3, 57, 64
5, 345120, Note_on_c, 3, 54, 60
5, 345120, Note_on_c, 3, 42, 60
5, 345570, Note_off_c, 3, 42, 64
5, 345570, Note_off_c, 3, 54, 64
5, 345600, Note_on_c, 3, 57, 60
5, 345600, Note_on_c, 3, 45, 60
5, 345826, Note_off_c, 3, 45, 64
5, 345826, Note_off_c, 3, 57, 64
5, 346080, Note_on_c, 3, 54, 60
5, 346080, Note_on_c, 3, 42, 60
5, 346530, Note_off_c, 3, 42, 64
5, 346530, Note_off_c, 3, 54, 64
5, 346560, Note_on_c, 3, 58, 80
5, 346560, Note_on_c, 3, 46, 80
5, 346786, Note_off_c, 3, 46, 64
5, 346786, Note_off_c, 3, 58, 64
5, 347040, Note_on_c, 3, 55, 80
5, 347040, Note_on_c, 3, 43, 80
5, 347490, Note_off_c, 3, 43, 64
5, 347490, Note_off_c, 3, 55, 64
5, 347520, Note_on_c, 3, 46, 80
5, 347746, Note_off_c, 3, 46, 64
5, 348000, Note_on_c, 3, 43, 80
5, 348450, Note_off_c, 3, 43, 64
5, 348480, Note_on_c, 3, 47, 80
5, 348706, Note_off_c, 3, 47, 64
5, 348960, Note_on_c, 3, 44, 80
5, 349410, Note_off_c, 3, 44, 64
5, 349440, Note_on_c, 3, 47, 80
5, 349666, Note_off_c, 3, 47, 64
5, 349920, Note_on_c, 3, 44, 80
5, 350370, Note_off_c, 3, 44, 64
5, 350400, Note_on_c, 3, 48, 80
5, 350626, Note_off_c, 3, 48, 64
5, 350880, Note_on_c, 3, 45, 80
5, 351330, Note_off_c, 3, 45, 64
5, 351360, Note_on_c, 3, 49, 80
5, 351586, Note_off_c, 3, 49, 64
5, 351840, Note_on_c, 3, 46, 80
5, 352290, Note_off_c, 3, 46, 64
5, 352320, Note_on_c, 3, 50, 80
5, 352546, Note_off_c, 3, 50, 64
5, 352800, Note_on_c, 3, 47, 80
5, 353250, Note_off_c, 3, 47, 64
5, 353280, Note_on_c, 3, 51, 50
5, 353506, Note_off_c, 3, 51, 64
5, 353760, Note_on_c, 3, 48, 50
5, 354210, Note_off_c, 3, 48, 64
5, 354240, Note_on_c, 3, 52, 50
5, 354466, Note_off_c, 3, 52, 64
5, 354720, Note_on_c, 3, 49, 50
5, 355170, Note_off_c, 3, 49, 64
5, 355200, Note_on_c, 3, 52, 50
5, 355426, Note_off_c, 3, 52, 64
5, 355680, Note_on_c, 3, 50, 50
5, 356130, Note_off_c, 3, 50, 64
5, 356160, Note_on_c, 3, 52, 50
5, 356386, Note_off_c, 3, 52, 64
5, 356640, Note_on_c, 3, 51, 50
5, 357090, Note_off_c, 3, 51, 64
5, 357120, Note_on_c, 3, 52, 50
5, 357346, Note_off_c, 3, 52, 64
5, 357600, Note_on_c, 3, 51, 50
5, 358050, Note_off_c, 3, 51, 64
5, 358080, Note_on_c, 3, 52, 50
5, 358306, Note_off_c, 3, 52, 64
5, 358560, Note_on_c, 3, 51, 50
5, 359010, Note_off_c, 3, 51, 64
5, 359040, Note_on_c, 3, 52, 50
5, 359266, Note_off_c, 3, 52, 64
5, 359520, Note_on_c, 3, 51, 50
5, 359970, Note_off_c, 3, 51, 64
5, 360000, Note_on_c, 3, 52, 50
5, 360226, Note_off_c, 3, 52, 64
5, 360480, Note_on_c, 3, 51, 50
5, 360930, Note_off_c, 3, 51, 64
5, 360960, Note_on_c, 3, 52, 50
5, 361186, Note_off_c, 3, 52, 64
5, 361440, Note_on_c, 3, 52, 50
5, 361890, Note_off_c, 3, 52, 64
5, 361920, Note_on_c, 3, 53, 50
5, 362112, Note_off_c, 3, 53, 64
5, 362880, Note_on_c, 3, 65, 68
5, 362940, Note_off_c, 3, 65, 64
5, 363120, Note_on_c, 3, 65, 38
5, 363180, Note_off_c, 3, 65, 64
5, 363240, Note_on_c, 3, 65, 38
5, 363300, Note_off_c, 3, 65, 64
5, 363360, Note_on_c, 3, 65, 38
5, 363480, Note_off_c, 3, 65, 64
5, 364800, Note_on_c, 3, 65, 68
5, 364860, Note_off_c, 3, 65, 64
5, 365040, Note_on_c, 3, 65, 38
5, 365100, Note_off_c, 3, 65, 64
5, 365160, Note_on_c, 3, 65, 38
5, 365220, Note_off_c, 3, 65, 64
5, 365280, Note_on_c, 3, 65, 38
5, 365400, Note_off_c, 3, 65, 64
5, 365760, Note_on_c, 3, 65, 40
5, 365880, Note_off_c, 3, 65, 64
5, 366240, Note_on_c, 3, 65, 40
5, 366720, Note_off_c, 3, 65, 64
5, 366720, Note_on_c, 3, 65, 40
5, 366840, Note_off_c, 3, 65, 64
5, 367200, Note_on_c, 3, 65, 40
5, 367680, Note_off_c, 3, 65, 64
5, 367680, Note_on_c, 3, 65, 40
5, 367800, Note_off_c, 3, 65, 64
5, 368160, Note_on_c, 3, 65, 40
5, 368640, Note_off_c, 3, 65, 64
5, 368640, Note_on_c, 3, 65, 40
5, 368760, Note_off_c, 3, 65, 64
5, 369120, Note_on_c, 3, 65, 40
5, 372480, Note_off_c, 3, 65, 64
5, 372480, Note_on_c, 3, 65, 40
5, 372706, Note_off_c, 3, 65, 64
5, 373440, Note_on_c, 3, 65, 68
5, 373500, Note_off_c, 3, 65, 64
5, 373680, Note_on_c, 3, 65, 38
5, 373740, Note_off_c, 3, 65, 64
5, 373800, Note_on_c, 3, 65, 38
5, 373860, Note_off_c, 3, 65, 64
5, 373920, Note_on_c, 3, 65, 38
5, 374040, Note_off_c, 3, 65, 64
5, 375360, Note_on_c, 3, 65, 68
5, 375420, Note_off_c, 3, 65, 64
5, 375600, Note_on_c, 3, 65, 38
5, 375660, Note_off_c, 3, 65, 64
5, 375720, Note_on_c, 3, 65, 38
5, 375780, Note_off_c, 3, 65, 64
5, 375840, Note_on_c, 3, 65, 38
5, 375960, Note_off_c, 3, 65, 64
5, 376320, Note_on_c, 3, 65, 40
5, 376440, Note_off_c, 3, 65, 64
5, 376800, Note_on_c, 3, 65, 40
5, 377400, Note_off_c, 3, 65, 64
5, 377760, Note_on_c, 3, 65, 40
5, 378360, Note_off_c, 3, 65, 64
5, 378720, Note_on_c, 3, 65, 40
5, 379320, Note_off_c, 3, 65, 64
5, 379680, Note_on_c, 3, 65, 52
5, 383040, Note_off_c, 3, 65, 64
5, 383040, Note_on_c, 3, 64, 80
5, 383266, Note_off_c, 3, 64, 64
5, 383340, Note_on_c, 3, 64, 54
5, 383340, Note_on_c, 3, 52, 54
5, 383454, Note_off_c, 3, 52, 64
5, 383454, Note_off_c, 3, 64, 64
5, 383460, Note_on_c, 3, 64, 54
5, 383460, Note_on_c, 3, 52, 54
5, 383574, Note_off_c, 3, 52, 64
5, 383574, Note_off_c, 3, 64, 64
5, 383580, Note_on_c, 3, 52, 72
5, 383580, Note_on_c, 3, 64, 72
5, 383694, Note_off_c, 3, 64, 64
5, 383694, Note_off_c, 3, 52, 64
5, 385740, Note_on_c, 3, 59, 54
5, 385740, Note_on_c, 3, 62, 54
5, 385854, Note_off_c, 3, 62, 64
5, 385854, Note_off_c, 3, 59, 64
5, 385860, Note_on_c, 3, 62, 54
5, 385860, Note_on_c, 3, 59, 54
5, 385974, Note_off_c, 3, 59, 64
5, 385974, Note_off_c, 3, 62, 64
5, 385980, Note_on_c, 3, 62, 72
5, 385980, Note_on_c, 3, 59, 72
5, 386094, Note_off_c, 3, 59, 64
5, 386094, Note_off_c, 3, 62, 64
5, 387840, Note_on_c, 3, 56, 54
5, 387840, Note_on_c, 3, 59, 54
5, 387960, Note_off_c, 3, 59, 64
5, 387960, Note_off_c, 3, 56, 64
5, 388560, Note_on_c, 3, 56, 54
5, 388560, Note_on_c, 3, 59, 54
5, 388800, Note_off_c, 3, 59, 64
5, 388800, Note_off_c, 3, 56, 64
5, 388800, Note_on_c, 3, 61, 54
5, 388800, Note_on_c, 3, 57, 54
5, 388920, Note_off_c, 3, 57, 64
5, 388920, Note_off_c, 3, 61, 64
5, 389520, Note_on_c, 3, 57, 54
5, 389520, Note_on_c, 3, 61, 54
5, 389760, Note_off_c, 3, 61, 64
5, 389760, Note_off_c, 3, 57, 64
5, 389760, Note_on_c, 3, 56, 54
5, 389760, Note_on_c, 3, 59, 54
5, 389880, Note_off_c, 3, 59, 64
5, 389880, Note_off_c, 3, 56, 64
5, 390480, Note_on_c, 3, 59, 54
5, 390480, Note_on_c, 3, 56, 54
5, 390720, Note_off_c, 3, 56, 64
5, 390720, Note_off_c, 3, 59, 64
5, 390720, Note_on_c, 3, 61, 54
5, 390720, Note_on_c, 3, 57, 54
5, 390840, Note_off_c, 3, 57, 64
5, 390840, Note_off_c, 3, 61, 64
5, 391440, Note_on_c, 3, 57, 54
5, 391440, Note_on_c, 3, 61, 54
5, 391680, Note_off_c, 3, 61, 64
5, 391680, Note_off_c, 3, 57, 64
5, 391680, Note_on_c, 3, 59, 54
5, 391680, Note_on_c, 3, 56, 54
5, 391800, Note_off_c, 3, 56, 64
5, 391800, Note_off_c, 3, 59, 64
5, 392400, Note_on_c, 3, 59, 54
5, 392400, Note_on_c, 3, 56, 54
5, 392640, Note_off_c, 3, 56, 64
5, 392640, Note_off_c, 3, 59, 64
5, 392640, Note_on_c, 3, 57, 54
5, 392640, Note_on_c, 3, 61, 54
5, 392760, Note_off_c, 3, 61, 64
5, 392760, Note_off_c, 3, 57, 64
5, 393360, Note_on_c, 3, 61, 54
5, 393360, Note_on_c, 3, 57, 54
5, 393600, Note_off_c, 3, 57, 64
5, 393600, Note_off_c, 3, 61, 64
5, 393600, Note_on_c, 3, 56, 54
5, 393600, Note_on_c, 3, 59, 54
5, 393720, Note_off_c, 3, 59, 64
5, 393720, Note_off_c, 3, 56, 64
5, 394320, Note_on_c, 3, 56, 54
5, 394320, Note_on_c, 3, 59, 54
5, 394560, Note_off_c, 3, 59, 64
5, 394560, Note_off_c, 3, 56, 64
5, 394560, Note_on_c, 3, 61, 54
5, 394560, Note_on_c, 3, 57, 54
5, 394680, Note_off_c, 3, 57, 64
5, 394680, Note_off_c, 3, 61, 64
5, 395520, Note_on_c, 3, 56, 54
5, 395520, Note_on_c, 3, 59, 54
5, 395640, Note_off_c, 3, 59, 64
5, 395640, Note_off_c, 3, 56, 64
5, 396240, Note_on_c, 3, 56, 54
5, 396240, Note_on_c, 3, 59, 54
5, 396480, Note_off_c, 3, 59, 64
5, 396480, Note_off_c, 3, 56, 64
5, 396480, Note_on_c, 3, 61, 54
5, 396480, Note_on_c, 3, 57, 54
5, 396600, Note_off_c, 3, 57, 64
5, 396600, Note_off_c, 3, 61, 64
5, 397200, Note_on_c, 3, 57, 54
5, 397200, Note_on_c, 3, 61, 54
5, 397440, Note_off_c, 3, 61, 64
5, 397440, Note_off_c, 3, 57, 64
5, 397440, Note_on_c, 3, 56, 54
5, 397440, Note_on_c, 3, 59, 54
5, 397560, Note_off_c, 3, 59, 64
5, 397560, Note_off_c, 3, 56, 64
5, 398160, Note_on_c, 3, 59, 54
5, 398160, Note_on_c, 3, 56, 54
5, 398400, Note_off_c, 3, 56, 64
5, 398400, Note_off_c, 3, 59, 64
5, 398400, Note_on_c, 3, 61, 54
5, 398400, Note_on_c, 3, 57, 54
5, 398520, Note_off_c, 3, 57, 64
5, 398520, Note_off_c, 3, 61, 64
5, 399120, Note_on_c, 3, 57, 54
5, 399120, Note_on_c, 3, 61, 54
5, 399360, Note_off_c, 3, 61, 64
5, 399360, Note_off_c, 3, 57, 64
5, 399360, Note_on_c, 3, 59, 54
5, 399360, Note_on_c, 3, 56, 54
5, 399480, Note_off_c, 3, 56, 64
5, 399480, Note_off_c, 3, 59, 64
5, 400080, Note_on_c, 3, 59, 54
5, 400080, Note_on_c, 3, 56, 54
5, 400320, Note_off_c, 3, 56, 64
5, 400320, Note_off_c, 3, 59, 64
5, 400320, Note_on_c, 3, 57, 54
5, 400320, Note_on_c, 3, 61, 54
5, 400440, Note_off_c, 3, 61, 64
5, 400440, Note_off_c, 3, 57, 64
5, 401040, Note_on_c, 3, 61, 54
5, 401040, Note_on_c, 3, 57, 54
5, 401280, Note_off_c, 3, 57, 64
5, 401280, Note_off_c, 3, 61, 64
5, 401280, Note_on_c, 3, 56, 54
5, 401280, Note_on_c, 3, 59, 54
5, 401400, Note_off_c, 3, 59, 64
5, 401400, Note_off_c, 3, 56, 64
5, 402000, Note_on_c, 3, 56, 54
5, 402000, Note_on_c, 3, 59, 54
5, 402240, Note_off_c, 3, 59, 64
5, 402240, Note_off_c, 3, 56, 64
5, 402240, Note_on_c, 3, 57, 54
5, 402240, Note_on_c, 3, 61, 54
5, 402360, Note_off_c, 3, 61, 64
5, 402360, Note_off_c, 3, 57, 64
5, 403320, Note_on_c, 3, 45, 72
5, 403320, Note_on_c, 3, 57, 72
5, 403434, Note_off_c, 3, 57, 64
5, 403434, Note_off_c, 3, 45, 64
5, 404700, Note_on_c, 3, 56, 54
5, 404700, Note_on_c, 3, 59, 54
5, 404760, Note_off_c, 3, 59, 64
5, 404760, Note_off_c, 3, 56, 64
5, 404820, Note_on_c, 3, 59, 54
5, 404820, Note_on_c, 3, 56, 54
5, 404880, Note_off_c, 3, 56, 64
5, 404880, Note_off_c, 3, 59, 64
5, 404940, Note_on_c, 3, 56, 54
5, 404940, Note_on_c, 3, 59, 54
5, 405060, Note_off_c, 3, 59, 64
5, 405060, Note_off_c, 3, 56, 64
5, 405780, Note_on_c, 3, 56, 54
5, 405780, Note_on_c, 3, 59, 54
5, 405840, Note_off_c, 3, 59, 64
5, 405840, Note_off_c, 3, 56, 64
5, 405900, Note_on_c, 3, 56, 54
5, 405900, Note_on_c, 3, 59, 54
5, 405960, Note_off_c, 3, 59, 64
5, 405960, Note_off_c, 3, 56, 64
5, 406020, Note_on_c, 3, 59, 54
5, 406020, Note_on_c, 3, 56, 54
5, 406140, Note_off_c, 3, 56, 64
5, 406140, Note_off_c, 3, 59, 64
5, 406560, Note_on_c, 3, 52, 54
5, 406560, Note_on_c, 3, 61, 54
5, 407136, Note_off_c, 3, 61, 64
5, 407136, Note_off_c, 3, 52, 64
5, 407280, Note_on_c, 3, 59, 54
5, 407280, Note_on_c, 3, 50, 54
5, 407400, Note_off_c, 3, 50, 64
5, 407400, Note_off_c, 3, 59, 64
5, 407520, Note_on_c, 3, 49, 54
5, 407520, Note_on_c, 3, 57, 54
5, 407640, Note_off_c, 3, 57, 64
5, 407640, Note_off_c, 3, 49, 64
5, 407760, Note_on_c, 3, 61, 54
5, 407760, Note_on_c, 3, 52, 54
5, 407880, Note_off_c, 3, 52, 64
5, 407880, Note_off_c, 3, 61, 64
5, 408000, Note_on_c, 3, 50, 54
5, 408000, Note_on_c, 3, 59, 54
5, 408120, Note_off_c, 3, 59, 64
5, 408120, Note_off_c, 3, 50, 64
5, 408240, Note_on_c, 3, 49, 54
5, 408240, Note_on_c, 3, 57, 54
5, 408360, Note_off_c, 3, 57, 64
5, 408360, Note_off_c, 3, 49, 64
5, 408480, Note_on_c, 3, 50, 54
5, 408480, Note_on_c, 3, 59, 54
5, 408600, Note_off_c, 3, 59, 64
5, 408600, Note_off_c, 3, 50, 64
5, 408720, Note_on_c, 3, 49, 72
5, 408720, Note_on_c, 3, 57, 72
5, 408840, Note_off_c, 3, 57, 64
5, 408840, Note_off_c, 3, 49, 64
5, 408960, Note_on_c, 3, 47, 72
5, 408960, Note_on_c, 3, 56, 72
5, 409080, Note_off_c, 3, 56, 64
5, 409080, Note_off_c, 3, 47, 64
5, 409200, Note_on_c, 3, 50, 72
5, 409200, Note_on_c, 3, 54, 72
5, 409320, Note_off_c, 3, 54, 64
5, 409320, Note_off_c, 3, 50, 64
5, 409440, Note_on_c, 3, 61, 72
5, 409440, Note_on_c, 3, 64, 72
5, 409560, Note_off_c, 3, 64, 64
5, 409560, Note_off_c, 3, 61, 64
5, 409680, Note_on_c, 3, 62, 72
5, 409680, Note_on_c, 3, 59, 72
5, 409800, Note_off_c, 3, 59, 64
5, 409800, Note_off_c, 3, 62, 64
5, 409920, Note_on_c, 3, 57, 72
5, 409920, Note_on_c, 3, 61, 72
5, 410040, Note_off_c, 3, 61, 64
5, 410040, Note_off_c, 3, 57, 64
5, 410160, Note_on_c, 3, 59, 72
5, 410160, Note_on_c, 3, 56, 72
5, 410280, Note_off_c, 3, 56, 64
5, 410280, Note_off_c, 3, 59, 64
5, 410400, Note_on_c, 3, 57, 54
5, 410400, Note_on_c, 3, 61, 54
5, 410520, Note_off_c, 3, 61, 64
5, 410520, Note_off_c, 3, 57, 64
5, 411480, Note_on_c, 3, 45, 72
5, 411480, Note_on_c, 3, 57, 72
5, 411672, Note_off_c, 3, 57, 64
5, 411672, Note_off_c, 3, 45, 64
5, 412860, Note_on_c, 3, 56, 54
5, 412860, Note_on_c, 3, 59, 54
5, 412920, Note_off_c, 3, 59, 64
5, 412920, Note_off_c, 3, 56, 64
5, 412980, Note_on_c, 3, 59, 54
5, 412980, Note_on_c, 3, 56, 54
5, 413040, Note_off_c, 3, 56, 64
5, 413040, Note_off_c, 3, 59, 64
5, 413100, Note_on_c, 3, 56, 54
5, 413100, Note_on_c, 3, 59, 54
5, 413220, Note_off_c, 3, 59, 64
5, 413220, Note_off_c, 3, 56, 64
5, 413940, Note_on_c, 3, 59, 54
5, 413940, Note_on_c, 3, 56, 54
5, 414000, Note_off_c, 3, 56, 64
5, 414000, Note_off_c, 3, 59, 64
5, 414060, Note_on_c, 3, 59, 54
5, 414060, Note_on_c, 3, 56, 54
5, 414120, Note_off_c, 3, 56, 64
5, 414120, Note_off_c, 3, 59, 64
5, 414180, Note_on_c, 3, 59, 54
5, 414180, Note_on_c, 3, 56, 54
5, 414300, Note_off_c, 3, 56, 64
5, 414300, Note_off_c, 3, 59, 64
5, 414720, Note_on_c, 3, 57, 80
5, 414720, Note_on_c, 3, 61, 80
5, 414912, Note_off_c, 3, 61, 64
5, 414912, Note_off_c, 3, 57, 64
5, 415200, Note_on_c, 3, 61, 80
5, 415200, Note_on_c, 3, 57, 80
5, 415392, Note_off_c, 3, 57, 64
5, 415392, Note_off_c, 3, 61, 64
5, 415680, Note_on_c, 3, 57, 80
5, 415680, Note_on_c, 3, 61, 80
5, 415872, Note_off_c, 3, 61, 64
5, 415872, Note_off_c, 3, 57, 64
5, 416160, Note_on_c, 3, 61, 80
5, 416160, Note_on_c, 3, 57, 80
5, 416352, Note_off_c, 3, 57, 64
5, 416352, Note_off_c, 3, 61, 64
5, 416640, Note_on_c, 3, 59, 64
5, 416640, Note_on_c, 3, 62, 64
5, 416832, Note_off_c, 3, 62, 64
5, 416832, Note_off_c, 3, 59, 64
5, 417120, Note_on_c, 3, 59, 61
5, 417120, Note_on_c, 3, 62, 61
5, 417312, Note_off_c, 3, 62, 64
5, 417312, Note_off_c, 3, 59, 64
5, 417600, Note_on_c, 3, 59, 57
5, 417600, Note_on_c, 3, 62, 57
5, 417792, Note_off_c, 3, 62, 64
5, 417792, Note_off_c, 3, 59, 64
5, 418080, Note_on_c, 3, 59, 53
5, 418080, Note_on_c, 3, 62, 53
5, 418272, Note_off_c, 3, 62, 64
5, 418272, Note_off_c, 3, 59, 64
5, 418560, Note_on_c, 3, 57, 60
5, 418560, Note_on_c, 3, 61, 60
5, 418752, Note_off_c, 3, 61, 64
5, 418752, Note_off_c, 3, 57, 64
5, 424800, Note_on_c, 3, 58, 58
5, 424800, Note_on_c, 3, 55, 58
5, 425280, Note_off_c, 3, 58, 64
5, 425280, Note_on_c, 3, 57, 58
5, 425760, Note_off_c, 3, 55, 64
5, 425760, Note_off_c, 3, 57, 64
5, 425760, Note_on_c, 3, 52, 58
5, 425760, Note_on_c, 3, 55, 58
5, 426240, Note_off_c, 3, 55, 64
5, 426240, Note_off_c, 3, 52, 64
5, 426240, Note_on_c, 3, 50, 58
5, 426240, Note_on_c, 3, 53, 58
5, 426480, Note_off_c, 3, 53, 64
5, 426480, Note_off_c, 3, 50, 64
5, 429360, Note_on_c, 3, 61, 80
5, 429480, Note_off_c, 3, 61, 64
5, 429480, Note_on_c, 3, 62, 80
5, 429600, Note_off_c, 3, 62, 64
5, 429600, Note_on_c, 3, 61, 80
5, 429600, Note_on_c, 3, 65, 80
5, 429720, Note_off_c, 3, 65, 64
5, 429720, Note_on_c, 3, 64, 80
5, 429840, Note_off_c, 3, 64, 64
5, 429840, Note_on_c, 3, 62, 80
5, 429960, Note_off_c, 3, 62, 64
5, 429960, Note_on_c, 3, 64, 80
5, 430080, Note_off_c, 3, 61, 64
5, 430080, Note_off_c, 3, 64, 64
5, 430080, Note_on_c, 3, 62, 80
5, 430080, Note_on_c, 3, 65, 80
5, 430200, Note_off_c, 3, 65, 64
5, 430200, Note_off_c, 3, 62, 64
5, 433200, Note_on_c, 3, 61, 80
5, 433320, Note_off_c, 3, 61, 64
5, 433320, Note_on_c, 3, 62, 80
5, 433440, Note_off_c, 3, 62, 64
5, 433440, Note_on_c, 3, 65, 80
5, 433440, Note_on_c, 3, 61, 80
5, 433560, Note_off_c, 3, 65, 64
5, 433560, Note_on_c, 3, 64, 80
5, 433680, Note_off_c, 3, 64, 64
5, 433680, Note_on_c, 3, 62, 80
5, 433800, Note_off_c, 3, 62, 64
5, 433800, Note_on_c, 3, 64, 80
5, 433920, Note_off_c, 3, 61, 64
5, 433920, Note_off_c, 3, 64, 64
5, 433920, Note_on_c, 3, 65, 80
5, 433920, Note_on_c, 3, 62, 80
5, 434040, Note_off_c, 3, 62, 64
5, 434040, Note_off_c, 3, 65, 64
5, 434400, Note_on_c, 3, 50, 80
5, 434400, Note_on_c, 3, 53, 80
5, 434544, Note_off_c, 3, 53, 64
5, 434544, Note_off_c, 3, 50, 64
5, 434880, Note_on_c, 3, 50, 80
5, 434880, Note_on_c, 3, 53, 80
5, 435024, Note_off_c, 3, 53, 64
5, 435024, Note_off_c, 3, 50, 64
5, 435360, Note_on_c, 3, 53, 80
5, 435360, Note_on_c, 3, 50, 80
5, 435504, Note_off_c, 3, 50, 64
5, 435504, Note_off_c, 3, 53, 64
5, 435840, Note_on_c, 3, 52, 80
5, 435840, Note_on_c, 3, 55, 80
5, 435984, Note_off_c, 3, 55, 64
5, 435984, Note_off_c, 3, 52, 64
5, 436320, Note_on_c, 3, 55, 80
5, 436320, Note_on_c, 3, 52, 80
5, 436464, Note_off_c, 3, 52, 64
5, 436464, Note_off_c, 3, 55, 64
5, 436800, Note_on_c, 3, 52, 80
5, 436800, Note_on_c, 3, 55, 80
5, 436944, Note_off_c, 3, 55, 64
5, 436944, Note_off_c, 3, 52, 64
5, 437280, Note_on_c, 3, 55, 80
5, 437280, Note_on_c, 3, 52, 80
5, 437424, Note_off_c, 3, 52, 64
5, 437424, Note_off_c, 3, 55, 64
5, 437760, Note_on_c, 3, 53, 80
5, 437760, Note_on_c, 3, 50, 80
5, 437904, Note_off_c, 3, 50, 64
5, 437904, Note_off_c, 3, 53, 64
5, 438240, Note_on_c, 3, 53, 80
5, 438240, Note_on_c, 3, 50, 80
5, 438384, Note_off_c, 3, 50, 64
5, 438384, Note_off_c, 3, 53, 64
5, 438720, Note_on_c, 3, 54, 80
5, 438720, Note_on_c, 3, 50, 80
5, 438864, Note_off_c, 3, 50, 64
5, 438864, Note_off_c, 3, 54, 64
5, 439200, Note_on_c, 3, 54, 80
5, 439200, Note_on_c, 3, 50, 80
5, 439344, Note_off_c, 3, 50, 64
5, 439344, Note_off_c, 3, 54, 64
5, 439680, Note_on_c, 3, 50, 80
5, 439680, Note_on_c, 3, 56, 80
5, 439824, Note_off_c, 3, 56, 64
5, 439824, Note_off_c, 3, 50, 64
5, 440160, Note_on_c, 3, 56, 80
5, 440160, Note_on_c, 3, 50, 80
5, 440304, Note_off_c, 3, 50, 64
5, 440304, Note_off_c, 3, 56, 64
5, 440640, Note_on_c, 3, 45, 80
5, 440640, Note_on_c, 3, 57, 80
5, 440784, Note_off_c, 3, 57, 64
5, 440784, Note_off_c, 3, 45, 64
5, 441120, Note_on_c, 3, 57, 80
5, 441120, Note_on_c, 3, 45, 80
5, 441264, Note_off_c, 3, 45, 64
5, 441264, Note_off_c, 3, 57, 64
5, 441600, Note_on_c, 3, 56, 80
5, 441600, Note_on_c, 3, 44, 80
5, 441744, Note_off_c, 3, 44, 64
5, 441744, Note_off_c, 3, 56, 64
5, 442080, Note_on_c, 3, 53, 80
5, 442080, Note_on_c, 3, 41, 80
5, 442224, Note_off_c, 3, 41, 64
5, 442224, Note_off_c, 3, 53, 64
5, 442560, Note_on_c, 3, 53, 80
5, 442560, Note_on_c, 3, 41, 80
5, 442704, Note_off_c, 3, 41, 64
5, 442704, Note_off_c, 3, 53, 64
5, 443040, Note_on_c, 3, 53, 80
5, 443040, Note_on_c, 3, 41, 80
5, 443184, Note_off_c, 3, 41, 64
5, 443184, Note_off_c, 3, 53, 64
5, 443520, Note_on_c, 3, 52, 80
5, 443520, Note_on_c, 3, 40, 80
5, 443664, Note_off_c, 3, 40, 64
5, 443664, Note_off_c, 3, 52, 64
5, 444000, Note_on_c, 3, 62, 80
5, 444000, Note_on_c, 3, 65, 80
5, 444144, Note_off_c, 3, 65, 64
5, 444144, Note_off_c, 3, 62, 64
5, 447840, Note_on_c, 3, 65, 80
5, 447840, Note_on_c, 3, 62, 80
5, 447984, Note_off_c, 3, 62, 64
5, 447984, Note_off_c, 3, 65, 64
5, 454440, Note_on_c, 3, 59, 85
5, 454560, Note_off_c, 3, 59, 64
5, 454560, Note_on_c, 3, 64, 85
5, 454632, Note_off_c, 3, 64, 64
5, 454920, Note_on_c, 3, 62, 85
5, 455040, Note_off_c, 3, 62, 64
5, 455040, Note_on_c, 3, 61, 67
5, 455112, Note_off_c, 3, 61, 64
5, 455400, Note_on_c, 3, 62, 67
5, 455400, Note_on_c, 3, 59, 67
5, 455520, Note_off_c, 3, 59, 64
5, 455520, Note_off_c, 3, 62, 64
5, 455520, Note_on_c, 3, 64, 99
5, 455520, Note_on_c, 3, 61, 99
5, 455970, Note_off_c, 3, 61, 64
5, 455970, Note_off_c, 3, 64, 64
5, 456000, Note_on_c, 3, 59, 80
5, 456000, Note_on_c, 3, 62, 80
5, 456072, Note_off_c, 3, 62, 64
5, 456072, Note_off_c, 3, 59, 64
5, 456360, Note_on_c, 3, 57, 67
5, 456360, Note_on_c, 3, 61, 67
5, 456480, Note_off_c, 3, 61, 64
5, 456480, Note_off_c, 3, 57, 64
5, 456480, Note_on_c, 3, 62, 99
5, 456480, Note_on_c, 3, 59, 99
5, 456930, Note_off_c, 3, 59, 64
5, 456930, Note_off_c, 3, 62, 64
5, 456960, Note_on_c, 3, 57, 80
5, 456960, Note_on_c, 3, 61, 80
5, 457032, Note_off_c, 3, 61, 64
5, 457032, Note_off_c, 3, 57, 64
5, 457320, Note_on_c, 3, 56, 67
5, 457320, Note_on_c, 3, 59, 67
5, 457440, Note_off_c, 3, 59, 64
5, 457440, Note_off_c, 3, 56, 64
5, 457440, Note_on_c, 3, 61, 99
5, 457440, Note_on_c, 3, 57, 99
5, 457890, Note_off_c, 3, 57, 64
5, 457890, Note_off_c, 3, 61, 64
5, 457920, Note_on_c, 3, 59, 80
5, 457920, Note_on_c, 3, 62, 80
5, 457992, Note_off_c, 3, 62, 64
5, 457992, Note_off_c, 3, 59, 64
5, 458280, Note_on_c, 3, 57, 67
5, 458280, Note_on_c, 3, 61, 67
5, 458400, Note_off_c, 3, 61, 64
5, 458400, Note_off_c, 3, 57, 64
5, 458400, Note_on_c, 3, 59, 99
5, 458400, Note_on_c, 3, 62, 99
5, 458850, Note_off_c, 3, 62, 64
5, 458850, Note_off_c, 3, 59, 64
5, 458880, Note_on_c, 3, 61, 47
5, 459106, Note_off_c, 3, 61, 64
5, 463680, Note_on_c, 3, 59, 48
5, 463680, Note_on_c, 3, 56, 48
5, 464064, Note_off_c, 3, 56, 64
5, 464064, Note_off_c, 3, 59, 64
5, 464160, Note_on_c, 3, 56, 48
5, 464160, Note_on_c, 3, 59, 48
5, 464544, Note_off_c, 3, 59, 64
5, 464544, Note_off_c, 3, 56, 64
5, 464640, Note_on_c, 3, 61, 67
5, 464712, Note_off_c, 3, 61, 64
5, 465000, Note_on_c, 3, 59, 67
5, 465000, Note_on_c, 3, 62, 67
5, 465120, Note_off_c, 3, 62, 64
5, 465120, Note_off_c, 3, 59, 64
5, 465120, Note_on_c, 3, 61, 99
5, 465120, Note_on_c, 3, 64, 99
5, 465570, Note_off_c, 3, 64, 64
5, 465570, Note_off_c, 3, 61, 64
5, 465600, Note_on_c, 3, 62, 80
5, 465600, Note_on_c, 3, 59, 80
5, 465672, Note_off_c, 3, 59, 64
5, 465672, Note_off_c, 3, 62, 64
5, 465960, Note_on_c, 3, 57, 67
5, 465960, Note_on_c, 3, 61, 67
5, 466080, Note_off_c, 3, 61, 64
5, 466080, Note_off_c, 3, 57, 64
5, 466080, Note_on_c, 3, 59, 99
5, 466080, Note_on_c, 3, 62, 99
5, 466530, Note_off_c, 3, 62, 64
5, 466530, Note_off_c, 3, 59, 64
5, 466560, Note_on_c, 3, 61, 80
5, 466560, Note_on_c, 3, 57, 80
5, 466632, Note_off_c, 3, 57, 64
5, 466632, Note_off_c, 3, 61, 64
5, 466920, Note_on_c, 3, 56, 67
5, 466920, Note_on_c, 3, 59, 67
5, 467040, Note_off_c, 3, 59, 64
5, 467040, Note_off_c, 3, 56, 64
5, 467040, Note_on_c, 3, 61, 99
5, 467040, Note_on_c, 3, 57, 99
5, 467490, Note_off_c, 3, 57, 64
5, 467490, Note_off_c, 3, 61, 64
5, 467520, Note_on_c, 3, 62, 80
5, 467520, Note_on_c, 3, 59, 80
5, 467592, Note_off_c, 3, 59, 64
5, 467592, Note_off_c, 3, 62, 64
5, 467880, Note_on_c, 3, 61, 67
5, 467880, Note_on_c, 3, 57, 67
5, 468000, Note_off_c, 3, 57, 64
5, 468000, Note_off_c, 3, 61, 64
5, 468000, Note_on_c, 3, 62, 99
5, 468000, Note_on_c, 3, 59, 99
5, 468450, Note_off_c, 3, 59, 64
5, 468450, Note_off_c, 3, 62, 64
5, 468480, Note_on_c, 3, 61, 47
5, 468706, Note_off_c, 3, 61, 64
5, 471360, Note_on_c, 3, 56, 48
5, 471360, Note_on_c, 3, 59, 48
5, 471744, Note_off_c, 3, 59, 64
5, 471744, Note_off_c, 3, 56, 64
5, 471840, Note_on_c, 3, 56, 48
5, 471840, Note_on_c, 3, 59, 48
5, 472224, Note_off_c, 3, 59, 64
5, 472224, Note_off_c, 3, 56, 64
5, 472320, Note_on_c, 3, 57, 48
5, 472320, Note_on_c, 3, 61, 48
5, 472704, Note_off_c, 3, 61, 64
5, 472704, Note_off_c, 3, 57, 64
5, 472800, Note_on_c, 3, 57, 48
5, 472800, Note_on_c, 3, 61, 48
5, 473184, Note_off_c, 3, 61, 64
5, 473184, Note_off_c, 3, 57, 64
5, 473280, Note_on_c, 3, 59, 48
5, 473280, Note_on_c, 3, 56, 48
5, 473664, Note_off_c, 3, 56, 64
5, 473664, Note_off_c, 3, 59, 64
5, 473760, Note_on_c, 3, 56, 48
5, 473760, Note_on_c, 3, 59, 48
5, 474144, Note_off_c, 3, 59, 64
5, 474144, Note_off_c, 3, 56, 64
5, 474240, Note_on_c, 3, 61, 48
5, 474240, Note_on_c, 3, 57, 48
5, 474624, Note_off_c, 3, 57, 64
5, 474624, Note_off_c, 3, 61, 64
5, 474720, Note_on_c, 3, 61, 48
5, 474720, Note_on_c, 3, 57, 48
5, 475104, Note_off_c, 3, 57, 64
5, 475104, Note_off_c, 3, 61, 64
5, 475200, Note_on_c, 3, 59, 48
5, 475200, Note_on_c, 3, 56, 48
5, 475584, Note_off_c, 3, 56, 64
5, 475584, Note_off_c, 3, 59, 64
5, 475680, Note_on_c, 3, 56, 48
5, 475680, Note_on_c, 3, 59, 48
5, 476064, Note_off_c, 3, 59, 64
5, 476064, Note_off_c, 3, 56, 64
5, 476160, Note_on_c, 3, 56, 48
5, 476160, Note_on_c, 3, 59, 48
5, 476544, Note_off_c, 3, 59, 64
5, 476544, Note_off_c, 3, 56, 64
5, 476640, Note_on_c, 3, 59, 48
5, 476640, Note_on_c, 3, 62, 48
5, 480960, Note_off_c, 3, 62, 64
5, 480960, Note_off_c, 3, 59, 64
5, 480960, Note_on_c, 3, 61, 55
5, 480960, Note_on_c, 3, 57, 55
5, 481920, Note_off_c, 3, 57, 64
5, 481920, Note_off_c, 3, 61, 64
5, 481920, Note_on_c, 3, 62, 63
5, 481920, Note_on_c, 3, 59, 63
5, 486720, Note_off_c, 3, 59, 64
5, 486720, Note_off_c, 3, 62, 64
5, 486720, Note_on_c, 3, 57, 72
5, 486720, Note_on_c, 3, 61, 72
5, 487200, Note_off_c, 3, 61, 64
5, 487200, Note_off_c, 3, 57, 64
5, 487200, Note_on_c, 3, 49, 83
5, 487200, Note_on_c, 3, 64, 83
5, 487650, Note_off_c, 3, 64, 64
5, 487650, Note_off_c, 3, 49, 64
5, 487680, Note_on_c, 3, 48, 96
5, 487680, Note_on_c, 3, 58, 96
5, 487824, Note_off_c, 3, 58, 64
5, 487824, Note_off_c, 3, 48, 64
5, 487920, Note_on_c, 3, 56, 96
5, 487920, Note_on_c, 3, 59, 96
5, 488064, Note_off_c, 3, 59, 64
5, 488064, Note_off_c, 3, 56, 64
5, 488160, Note_on_c, 3, 58, 96
5, 488160, Note_on_c, 3, 55, 96
5, 488304, Note_off_c, 3, 55, 64
5, 488304, Note_off_c, 3, 58, 64
5, 488400, Note_on_c, 3, 55, 96
5, 488400, Note_on_c, 3, 58, 96
5, 488544, Note_off_c, 3, 58, 64
5, 488544, Note_off_c, 3, 55, 64
5, 488640, Note_on_c, 3, 55, 96
5, 488640, Note_on_c, 3, 58, 96
5, 488784, Note_off_c, 3, 58, 64
5, 488784, Note_off_c, 3, 55, 64
5, 488880, Note_on_c, 3, 55, 96
5, 488880, Note_on_c, 3, 58, 96
5, 489024, Note_off_c, 3, 58, 64
5, 489024, Note_off_c, 3, 55, 64
5, 489120, Note_on_c, 3, 58, 96
5, 489120, Note_on_c, 3, 55, 96
5, 489264, Note_off_c, 3, 55, 64
5, 489264, Note_off_c, 3, 58, 64
5, 489360, Note_on_c, 3, 55, 96
5, 489360, Note_on_c, 3, 58, 96
5, 489504, Note_off_c, 3, 58, 64
5, 489504, Note_off_c, 3, 55, 64
5, 489600, Note_on_c, 3, 53, 126
5, 489600, Note_on_c, 3, 57, 126
5, 489744, Note_off_c, 3, 57, 64
5, 489744, Note_off_c, 3, 53, 64
5, 489840, Note_on_c, 3, 53, 96
5, 489840, Note_on_c, 3, 57, 96
5, 489984, Note_off_c, 3, 57, 64
5, 489984, Note_off_c, 3, 53, 64
5, 490080, Note_on_c, 3, 57, 96
5, 490080, Note_on_c, 3, 53, 96
5, 490224, Note_off_c, 3, 53, 64
5, 490224, Note_off_c, 3, 57, 64
5, 490320, Note_on_c, 3, 57, 96
5, 490320, Note_on_c, 3, 53, 96
5, 490464, Note_off_c, 3, 53, 64
5, 490464, Note_off_c, 3, 57, 64
5, 490560, Note_on_c, 3, 58, 96
5, 490560, Note_on_c, 3, 55, 96
5, 490704, Note_off_c, 3, 55, 64
5, 490704, Note_off_c, 3, 58, 64
5, 490800, Note_on_c, 3, 55, 96
5, 490800, Note_on_c, 3, 58, 96
5, 490944, Note_off_c, 3, 58, 64
5, 490944, Note_off_c, 3, 55, 64
5, 491040, Note_on_c, 3, 58, 96
5, 491040, Note_on_c, 3, 55, 96
5, 491184, Note_off_c, 3, 55, 64
5, 491184, Note_off_c, 3, 58, 64
5, 491280, Note_on_c, 3, 55, 96
5, 491280, Note_on_c, 3, 58, 96
5, 491424, Note_off_c, 3, 58, 64
5, 491424, Note_off_c, 3, 55, 64
5, 491520, Note_on_c, 3, 57, 126
5, 491520, Note_on_c, 3, 53, 126
5, 491664, Note_off_c, 3, 53, 64
5, 491664, Note_off_c, 3, 57, 64
5, 491760, Note_on_c, 3, 53, 96
5, 491760, Note_on_c, 3, 57, 96
5, 491904, Note_off_c, 3, 57, 64
5, 491904, Note_off_c, 3, 53, 64
5, 492000, Note_on_c, 3, 53, 96
5, 492000, Note_on_c, 3, 57, 96
5, 492144, Note_off_c, 3, 57, 64
5, 492144, Note_off_c, 3, 53, 64
5, 492240, Note_on_c, 3, 53, 96
5, 492240, Note_on_c, 3, 57, 96
5, 492384, Note_off_c, 3, 57, 64
5, 492384, Note_off_c, 3, 53, 64
5, 492480, Note_on_c, 3, 55, 96
5, 492480, Note_on_c, 3, 58, 96
5, 492624, Note_off_c, 3, 58, 64
5, 492624, Note_off_c, 3, 55, 64
5, 492720, Note_on_c, 3, 55, 96
5, 492720, Note_on_c, 3, 58, 96
5, 492864, Note_off_c, 3, 58, 64
5, 492864, Note_off_c, 3, 55, 64
5, 492960, Note_on_c, 3, 55, 96
5, 492960, Note_on_c, 3, 58, 96
5, 493104, Note_off_c, 3, 58, 64
5, 493104, Note_off_c, 3, 55, 64
5, 493200, Note_on_c, 3, 58, 96
5, 493200, Note_on_c, 3, 55, 96
5, 493344, Note_off_c, 3, 55, 64
5, 493344, Note_off_c, 3, 58, 64
5, 493440, Note_on_c, 3, 55, 127
5, 493440, Note_on_c, 3, 58, 127
5, 493584, Note_off_c, 3, 58, 64
5, 493584, Note_off_c, 3, 55, 64
5, 493680, Note_on_c, 3, 55, 127
5, 493680, Note_on_c, 3, 58, 127
5, 493824, Note_off_c, 3, 58, 64
5, 493824, Note_off_c, 3, 55, 64
5, 493920, Note_on_c, 3, 58, 127
5, 493920, Note_on_c, 3, 55, 127
5, 494064, Note_off_c, 3, 55, 64
5, 494064, Note_off_c, 3, 58, 64
5, 494160, Note_on_c, 3, 55, 127
5, 494160, Note_on_c, 3, 58, 127
5, 494304, Note_off_c, 3, 58, 64
5, 494304, Note_off_c, 3, 55, 64
5, 494400, Note_on_c, 3, 55, 127
5, 494400, Note_on_c, 3, 58, 127
5, 494544, Note_off_c, 3, 58, 64
5, 494544, Note_off_c, 3, 55, 64
5, 494640, Note_on_c, 3, 55, 127
5, 494640, Note_on_c, 3, 58, 127
5, 494784, Note_off_c, 3, 58, 64
5, 494784, Note_off_c, 3, 55, 64
5, 494880, Note_on_c, 3, 58, 127
5, 494880, Note_on_c, 3, 55, 127
5, 495024, Note_off_c, 3, 55, 64
5, 495024, Note_off_c, 3, 58, 64
5, 495120, Note_on_c, 3, 55, 127
5, 495120, Note_on_c, 3, 58, 127
5, 495264, Note_off_c, 3, 58, 64
5, 495264, Note_off_c, 3, 55, 64
5, 495360, Note_on_c, 3, 57, 126
5, 495360, Note_on_c, 3, 53, 126
5, 495504, Note_off_c, 3, 53, 64
5, 495504, Note_off_c, 3, 57, 64
5, 495600, Note_on_c, 3, 53, 96
5, 495600, Note_on_c, 3, 57, 96
5, 495744, Note_off_c, 3, 57, 64
5, 495744, Note_off_c, 3, 53, 64
5, 495840, Note_on_c, 3, 53, 96
5, 495840, Note_on_c, 3, 57, 96
5, 495984, Note_off_c, 3, 57, 64
5, 495984, Note_off_c, 3, 53, 64
5, 496080, Note_on_c, 3, 53, 96
5, 496080, Note_on_c, 3, 57, 96
5, 496224, Note_off_c, 3, 57, 64
5, 496224, Note_off_c, 3, 53, 64
5, 496320, Note_on_c, 3, 55, 96
5, 496320, Note_on_c, 3, 58, 96
5, 496464, Note_off_c, 3, 58, 64
5, 496464, Note_off_c, 3, 55, 64
5, 496560, Note_on_c, 3, 55, 96
5, 496560, Note_on_c, 3, 58, 96
5, 496704, Note_off_c, 3, 58, 64
5, 496704, Note_off_c, 3, 55, 64
5, 496800, Note_on_c, 3, 55, 96
5, 496800, Note_on_c, 3, 58, 96
5, 496944, Note_off_c, 3, 58, 64
5, 496944, Note_off_c, 3, 55, 64
5, 497040, Note_on_c, 3, 58, 96
5, 497040, Note_on_c, 3, 55, 96
5, 497184, Note_off_c, 3, 55, 64
5, 497184, Note_off_c, 3, 58, 64
5, 497280, Note_on_c, 3, 57, 126
5, 497280, Note_on_c, 3, 53, 126
5, 497424, Note_off_c, 3, 53, 64
5, 497424, Note_off_c, 3, 57, 64
5, 497520, Note_on_c, 3, 53, 96
5, 497520, Note_on_c, 3, 57, 96
5, 497664, Note_off_c, 3, 57, 64
5, 497664, Note_off_c, 3, 53, 64
5, 497760, Note_on_c, 3, 57, 96
5, 497760, Note_on_c, 3, 53, 96
5, 497904, Note_off_c, 3, 53, 64
5, 497904, Note_off_c, 3, 57, 64
5, 498000, Note_on_c, 3, 57, 96
5, 498000, Note_on_c, 3, 53, 96
5, 498144, Note_off_c, 3, 53, 64
5, 498144, Note_off_c, 3, 57, 64
5, 498240, Note_on_c, 3, 53, 126
5, 498240, Note_on_c, 3, 57, 126
5, 498384, Note_off_c, 3, 57, 64
5, 498384, Note_off_c, 3, 53, 64
5, 498480, Note_on_c, 3, 53, 96
5, 498480, Note_on_c, 3, 57, 96
5, 498624, Note_off_c, 3, 57, 64
5, 498624, Note_off_c, 3, 53, 64
5, 498720, Note_on_c, 3, 60, 96
5, 498720, Note_on_c, 3, 57, 96
5, 498864, Note_off_c, 3, 57, 64
5, 498864, Note_off_c, 3, 60, 64
5, 498960, Note_on_c, 3, 57, 96
5, 498960, Note_on_c, 3, 60, 96
5, 499104, Note_off_c, 3, 60, 64
5, 499104, Note_off_c, 3, 57, 64
5, 499200, Note_on_c, 3, 61, 126
5, 499200, Note_on_c, 3, 57, 126
5, 499320, Note_off_c, 3, 57, 64
5, 499320, Note_off_c, 3, 61, 64
5, 499440, Note_on_c, 3, 61, 96
5, 499440, Note_on_c, 3, 57, 96
5, 499560, Note_off_c, 3, 57, 64
5, 499560, Note_off_c, 3, 61, 64
5, 499680, Note_on_c, 3, 61, 96
5, 499680, Note_on_c, 3, 57, 96
5, 499800, Note_off_c, 3, 57, 64
5, 499800, Note_off_c, 3, 61, 64
5, 499920, Note_on_c, 3, 57, 96
5, 499920, Note_on_c, 3, 61, 96
5, 500040, Note_off_c, 3, 61, 64
5, 500040, Note_off_c, 3, 57, 64
5, 500160, Note_on_c, 3, 59, 126
5, 500160, Note_on_c, 3, 56, 126
5, 500280, Note_off_c, 3, 56, 64
5, 500280, Note_off_c, 3, 59, 64
5, 500400, Note_on_c, 3, 59, 96
5, 500400, Note_on_c, 3, 56, 96
5, 500520, Note_off_c, 3, 56, 64
5, 500520, Note_off_c, 3, 59, 64
5, 500640, Note_on_c, 3, 59, 96
5, 500640, Note_on_c, 3, 56, 96
5, 500760, Note_off_c, 3, 56, 64
5, 500760, Note_off_c, 3, 59, 64
5, 500880, Note_on_c, 3, 56, 96
5, 500880, Note_on_c, 3, 59, 96
5, 501000, Note_off_c, 3, 59, 64
5, 501000, Note_off_c, 3, 56, 64
5, 501120, Note_on_c, 3, 57, 96
5, 501120, Note_on_c, 3, 61, 96
5, 501240, Note_off_c, 3, 61, 64
5, 501240, Note_off_c, 3, 57, 64
5, 501360, Note_on_c, 3, 64, 96
5, 501360, Note_on_c, 3, 61, 96
5, 501480, Note_off_c, 3, 61, 64
5, 501480, Note_off_c, 3, 64, 64
5, 501600, Note_on_c, 3, 62, 126
5, 501600, Note_on_c, 3, 65, 126
5, 501720, Note_off_c, 3, 65, 64
5, 501720, Note_off_c, 3, 62, 64
5, 501840, Note_on_c, 3, 65, 96
5, 501840, Note_on_c, 3, 62, 96
5, 501960, Note_off_c, 3, 62, 64
5, 501960, Note_off_c, 3, 65, 64
5, 502080, Note_on_c, 3, 65, 96
5, 502080, Note_on_c, 3, 62, 96
5, 502200, Note_off_c, 3, 62, 64
5, 502200, Note_off_c, 3, 65, 64
5, 502320, Note_on_c, 3, 62, 96
5, 502320, Note_on_c, 3, 65, 96
5, 502440, Note_off_c, 3, 65, 64
5, 502440, Note_off_c, 3, 62, 64
5, 502560, Note_on_c, 3, 65, 96
5, 502560, Note_on_c, 3, 62, 96
5, 502680, Note_off_c, 3, 62, 64
5, 502680, Note_off_c, 3, 65, 64
5, 502800, Note_on_c, 3, 62, 96
5, 502800, Note_on_c, 3, 65, 96
5, 502920, Note_off_c, 3, 65, 64
5, 502920, Note_off_c, 3, 62, 64
5, 503040, Note_on_c, 3, 57, 96
5, 503040, Note_on_c, 3, 61, 96
5, 503160, Note_off_c, 3, 61, 64
5, 503160, Note_off_c, 3, 57, 64
5, 503280, Note_on_c, 3, 64, 96
5, 503280, Note_on_c, 3, 61, 96
5, 503400, Note_off_c, 3, 61, 64
5, 503400, Note_off_c, 3, 64, 64
5, 503520, Note_on_c, 3, 65, 126
5, 503520, Note_on_c, 3, 62, 126
5, 503640, Note_off_c, 3, 62, 64
5, 503640, Note_off_c, 3, 65, 64
5, 503760, Note_on_c, 3, 65, 96
5, 503760, Note_on_c, 3, 62, 96
5, 503880, Note_off_c, 3, 62, 64
5, 503880, Note_off_c, 3, 65, 64
5, 504000, Note_on_c, 3, 65, 96
5, 504000, Note_on_c, 3, 62, 96
5, 504120, Note_off_c, 3, 62, 64
5, 504120, Note_off_c, 3, 65, 64
5, 504240, Note_on_c, 3, 62, 96
5, 504240, Note_on_c, 3, 65, 96
5, 504360, Note_off_c, 3, 65, 64
5, 504360, Note_off_c, 3, 62, 64
5, 504480, Note_on_c, 3, 62, 96
5, 504480, Note_on_c, 3, 65, 96
5, 504600, Note_off_c, 3, 65, 64
5, 504600, Note_off_c, 3, 62, 64
5, 504720, Note_on_c, 3, 62, 96
5, 504720, Note_on_c, 3, 65, 96
5, 504840, Note_off_c, 3, 65, 64
5, 504840, Note_off_c, 3, 62, 64
5, 504960, Note_on_c, 3, 57, 96
5, 504960, Note_on_c, 3, 61, 96
5, 505080, Note_off_c, 3, 61, 64
5, 505080, Note_off_c, 3, 57, 64
5, 505200, Note_on_c, 3, 64, 96
5, 505200, Note_on_c, 3, 61, 96
5, 505320, Note_off_c, 3, 61, 64
5, 505320, Note_off_c, 3, 64, 64
5, 505440, Note_on_c, 3, 65, 126
5, 505440, Note_on_c, 3, 62, 126
5, 505560, Note_off_c, 3, 62, 64
5, 505560, Note_off_c, 3, 65, 64
5, 505680, Note_on_c, 3, 65, 96
5, 505680, Note_on_c, 3, 62, 96
5, 505800, Note_off_c, 3, 62, 64
5, 505800, Note_off_c, 3, 65, 64
5, 505920, Note_on_c, 3, 57, 96
5, 505920, Note_on_c, 3, 61, 96
5, 506040, Note_off_c, 3, 61, 64
5, 506040, Note_off_c, 3, 57, 64
5, 506160, Note_on_c, 3, 64, 96
5, 506160, Note_on_c, 3, 61, 96
5, 506280, Note_off_c, 3, 61, 64
5, 506280, Note_off_c, 3, 64, 64
5, 506400, Note_on_c, 3, 62, 126
5, 506400, Note_on_c, 3, 65, 126
5, 506520, Note_off_c, 3, 65, 64
5, 506520, Note_off_c, 3, 62, 64
5, 506640, Note_on_c, 3, 62, 96
5, 506640, Note_on_c, 3, 65, 96
5, 506760, Note_off_c, 3, 65, 64
5, 506760, Note_off_c, 3, 62, 64
5, 506880, Note_on_c, 3, 57, 96
5, 506880, Note_on_c, 3, 61, 96
5, 507000, Note_off_c, 3, 61, 64
5, 507000, Note_off_c, 3, 57, 64
5, 507120, Note_on_c, 3, 64, 96
5, 507120, Note_on_c, 3, 61, 96
5, 507240, Note_off_c, 3, 61, 64
5, 507240, Note_off_c, 3, 64, 64
5, 507360, Note_on_c, 3, 62, 126
5, 507360, Note_on_c, 3, 65, 126
5, 507480, Note_off_c, 3, 65, 64
5, 507480, Note_off_c, 3, 62, 64
5, 507600, Note_on_c, 3, 62, 96
5, 507600, Note_on_c, 3, 65, 96
5, 507720, Note_off_c, 3, 65, 64
5, 507720, Note_off_c, 3, 62, 64
5, 507840, Note_on_c, 3, 57, 96
5, 507840, Note_on_c, 3, 61, 96
5, 507960, Note_off_c, 3, 61, 64
5, 507960, Note_off_c, 3, 57, 64
5, 508080, Note_on_c, 3, 61, 96
5, 508080, Note_on_c, 3, 64, 96
5, 508200, Note_off_c, 3, 64, 64
5, 508200, Note_off_c, 3, 61, 64
5, 508320, Note_on_c, 3, 64, 96
5, 508320, Note_on_c, 3, 61, 96
5, 508440, Note_off_c, 3, 61, 64
5, 508440, Note_off_c, 3, 64, 64
5, 508560, Note_on_c, 3, 64, 96
5, 508560, Note_on_c, 3, 61, 96
5, 508680, Note_off_c, 3, 61, 64
5, 508680, Note_off_c, 3, 64, 64
5, 508800, Note_on_c, 3, 64, 96
5, 508800, Note_on_c, 3, 61, 96
5, 508920, Note_off_c, 3, 61, 64
5, 508920, Note_off_c, 3, 64, 64
5, 511380, Note_on_c, 3, 67, 54
5, 511380, Note_on_c, 3, 64, 54
5, 511494, Note_off_c, 3, 64, 64
5, 511494, Note_off_c, 3, 67, 64
5, 511500, Note_on_c, 3, 64, 54
5, 511500, Note_on_c, 3, 67, 54
5, 511614, Note_off_c, 3, 67, 64
5, 511614, Note_off_c, 3, 64, 64
5, 511620, Note_on_c, 3, 64, 72
5, 511620, Note_on_c, 3, 67, 72
5, 511734, Note_off_c, 3, 67, 64
5, 511734, Note_off_c, 3, 64, 64
5, 513660, Note_on_c, 3, 64, 54
5, 513660, Note_on_c, 3, 67, 54
5, 513774, Note_off_c, 3, 67, 64
5, 513774, Note_off_c, 3, 64, 64
5, 513780, Note_on_c, 3, 67, 54
5, 513780, Note_on_c, 3, 64, 54
5, 513894, Note_off_c, 3, 64, 64
5, 513894, Note_off_c, 3, 67, 64
5, 513900, Note_on_c, 3, 67, 72
5, 513900, Note_on_c, 3, 64, 72
5, 514014, Note_off_c, 3, 64, 64
5, 514014, Note_off_c, 3, 67, 64
5, 514740, Note_on_c, 3, 64, 54
5, 514740, Note_on_c, 3, 67, 54
5, 514854, Note_off_c, 3, 67, 64
5, 514854, Note_off_c, 3, 64, 64
5, 514860, Note_on_c, 3, 67, 54
5, 514860, Note_on_c, 3, 64, 54
5, 514974, Note_off_c, 3, 64, 64
5, 514974, Note_off_c, 3, 67, 64
5, 514980, Note_on_c, 3, 67, 72
5, 514980, Note_on_c, 3, 64, 72
5, 515094, Note_off_c, 3, 64, 64
5, 515094, Note_off_c, 3, 67, 64
5, 515820, Note_on_c, 3, 64, 54
5, 515820, Note_on_c, 3, 67, 54
5, 515934, Note_off_c, 3, 67, 64
5, 515934, Note_off_c, 3, 64, 64
5, 515940, Note_on_c, 3, 67, 54
5, 515940, Note_on_c, 3, 64, 54
5, 516054, Note_off_c, 3, 64, 64
5, 516054, Note_off_c, 3, 67, 64
5, 516060, Note_on_c, 3, 67, 72
5, 516060, Note_on_c, 3, 64, 72
5, 516174, Note_off_c, 3, 64, 64
5, 516174, Note_off_c, 3, 67, 64
5, 516900, Note_on_c, 3, 64, 54
5, 516900, Note_on_c, 3, 67, 54
5, 517014, Note_off_c, 3, 67, 64
5, 517014, Note_off_c, 3, 64, 64
5, 517020, Note_on_c, 3, 67, 54
5, 517020, Note_on_c, 3, 64, 54
5, 517134, Note_off_c, 3, 64, 64
5, 517134, Note_off_c, 3, 67, 64
5, 517140, Note_on_c, 3, 67, 72
5, 517140, Note_on_c, 3, 64, 72
5, 517254, Note_off_c, 3, 64, 64
5, 517254, Note_off_c, 3, 67, 64
5, 517680, Note_on_c, 3, 61, 54
5, 517680, Note_on_c, 3, 58, 54
5, 517776, Note_off_c, 3, 58, 64
5, 517776, Note_off_c, 3, 61, 64
5, 518760, Note_on_c, 3, 66, 80
5, 518760, Note_on_c, 3, 54, 80
5, 520872, Note_off_c, 3, 54, 64
5, 520872, Note_off_c, 3, 66, 64
5, 520920, Note_on_c, 3, 58, 80
5, 521040, Note_off_c, 3, 58, 64
5, 521040, Note_on_c, 3, 59, 80
5, 521160, Note_off_c, 3, 59, 64
5, 521160, Note_on_c, 3, 62, 80
5, 521160, Note_on_c, 3, 58, 80
5, 521280, Note_off_c, 3, 62, 64
5, 521280, Note_on_c, 3, 61, 80
5, 521400, Note_off_c, 3, 61, 64
5, 521400, Note_on_c, 3, 59, 80
5, 521520, Note_off_c, 3, 59, 64
5, 521520, Note_on_c, 3, 61, 80
5, 521640, Note_off_c, 3, 58, 64
5, 521640, Note_off_c, 3, 61, 64
5, 521640, Note_on_c, 3, 59, 80
5, 521640, Note_on_c, 3, 62, 80
5, 521760, Note_off_c, 3, 62, 64
5, 521760, Note_off_c, 3, 59, 64
5, 522600, Note_on_c, 3, 66, 80
5, 522600, Note_on_c, 3, 54, 80
5, 524712, Note_off_c, 3, 54, 64
5, 524712, Note_off_c, 3, 66, 64
5, 524760, Note_on_c, 3, 58, 80
5, 524880, Note_off_c, 3, 58, 64
5, 524880, Note_on_c, 3, 59, 80
5, 525000, Note_off_c, 3, 59, 64
5, 525000, Note_on_c, 3, 58, 80
5, 525000, Note_on_c, 3, 62, 80
5, 525120, Note_off_c, 3, 62, 64
5, 525120, Note_on_c, 3, 61, 80
5, 525240, Note_off_c, 3, 61, 64
5, 525240, Note_on_c, 3, 59, 80
5, 525360, Note_off_c, 3, 59, 64
5, 525360, Note_on_c, 3, 61, 80
5, 525480, Note_off_c, 3, 58, 64
5, 525480, Note_off_c, 3, 61, 64
5, 525480, Note_on_c, 3, 59, 80
5, 525480, Note_on_c, 3, 62, 80
5, 525600, Note_off_c, 3, 62, 64
5, 525600, Note_off_c, 3, 59, 64
5, 526680, Note_on_c, 3, 59, 80
5, 526764, Note_off_c, 3, 59, 64
5, 526800, Note_on_c, 3, 61, 80
5, 526884, Note_off_c, 3, 61, 64
5, 526920, Note_on_c, 3, 64, 80
5, 527004, Note_off_c, 3, 64, 64
5, 527040, Note_on_c, 3, 62, 80
5, 527124, Note_off_c, 3, 62, 64
5, 527160, Note_on_c, 3, 61, 80
5, 527244, Note_off_c, 3, 61, 64
5, 527280, Note_on_c, 3, 59, 80
5, 527364, Note_off_c, 3, 59, 64
5, 527400, Note_on_c, 3, 64, 80
5, 527736, Note_off_c, 3, 64, 64
5, 532200, Note_on_c, 3, 45, 46
5, 532200, Note_on_c, 3, 57, 46
5, 533928, Note_off_c, 3, 57, 64
5, 533928, Note_off_c, 3, 45, 64
5, 534120, Note_on_c, 3, 62, 35
5, 534120, Note_on_c, 3, 50, 35
5, 539370, Note_off_c, 3, 50, 64
5, 539370, Note_off_c, 3, 62, 64
5, 539400, Note_on_c, 3, 65, 50
5, 539400, Note_on_c, 3, 62, 50
5, 541320, Note_off_c, 3, 62, 64
5, 541320, Note_off_c, 3, 65, 64
5, 541320, Note_on_c, 3, 60, 50
5, 541320, Note_on_c, 3, 63, 50
5, 547050, Note_off_c, 3, 63, 64
5, 547050, Note_off_c, 3, 60, 64
5, 547080, Note_on_c, 3, 61, 50
5, 547080, Note_on_c, 3, 58, 50
5, 550890, Note_off_c, 3, 58, 64
5, 550890, Note_off_c, 3, 61, 64
5, 550920, Note_on_c, 3, 57, 50
5, 550920, Note_on_c, 3, 60, 50
5, 558120, Note_off_c, 3, 60, 64
5, 558120, Note_off_c, 3, 57, 64
5, 558120, Note_on_c, 3, 59, 65
5, 558120, Note_on_c, 3, 62, 65
5, 560040, Note_off_c, 3, 62, 64
5, 560040, Note_off_c, 3, 59, 64
5, 560040, Note_on_c, 3, 57, 65
5, 560040, Note_on_c, 3, 61, 65
5, 561960, Note_off_c, 3, 61, 64
5, 561960, Note_off_c, 3, 57, 64
5, 561960, Note_on_c, 3, 59, 65
5, 561960, Note_on_c, 3, 62, 65
5, 563880, Note_off_c, 3, 62, 64
5, 563880, Note_off_c, 3, 59, 64
5, 563880, Note_on_c, 3, 61, 65
5, 563880, Note_on_c, 3, 64, 65
5, 564330, Note_off_c, 3, 64, 64
5, 564330, Note_off_c, 3, 61, 64
5, 564360, Note_on_c, 3, 49, 65
5, 564360, Note_on_c, 3, 52, 65
5, 564810, Note_off_c, 3, 52, 64
5, 564810, Note_off_c, 3, 49, 64
5, 564840, Note_on_c, 3, 50, 65
5, 564840, Note_on_c, 3, 54, 65
5, 565800, Note_off_c, 3, 54, 64
5, 565800, Note_off_c, 3, 50, 64
5, 565800, Note_on_c, 3, 56, 65
5, 565800, Note_on_c, 3, 52, 65
5, 566760, Note_off_c, 3, 52, 64
5, 566760, Note_off_c, 3, 56, 64
5, 566760, Note_on_c, 3, 54, 65
5, 566760, Note_on_c, 3, 57, 65
5, 567720, Note_off_c, 3, 57, 64
5, 567720, Note_off_c, 3, 54, 64
5, 567720, Note_on_c, 3, 56, 65
5, 567720, Note_on_c, 3, 59, 65
5, 568680, Note_off_c, 3, 59, 64
5, 568680, Note_off_c, 3, 56, 64
5, 568680, Note_on_c, 3, 57, 65
5, 568680, Note_on_c, 3, 61, 65
5, 569640, Note_off_c, 3, 61, 64
5, 569640, Note_off_c, 3, 57, 64
5, 569640, Note_on_c, 3, 62, 65
5, 569640, Note_on_c, 3, 59, 65
5, 571560, Note_off_c, 3, 59, 64
5, 571560, Note_off_c, 3, 62, 64
5, 571560, Note_on_c, 3, 61, 70
5, 571560, Note_on_c, 3, 57, 70
5, 571680, Note_off_c, 3, 57, 64
5, 571680, Note_off_c, 3, 61, 64
5, 572640, Note_on_c, 3, 45, 94
5, 572640, Note_on_c, 3, 57, 94
5, 572754, Note_off_c, 3, 57, 64
5, 572754, Note_off_c, 3, 45, 64
5, 574020, Note_on_c, 3, 56, 70
5, 574020, Note_on_c, 3, 59, 70
5, 574080, Note_off_c, 3, 59, 64
5, 574080, Note_off_c, 3, 56, 64
5, 574140, Note_on_c, 3, 59, 70
5, 574140, Note_on_c, 3, 56, 70
5, 574200, Note_off_c, 3, 56, 64
5, 574200, Note_off_c, 3, 59, 64
5, 574260, Note_on_c, 3, 56, 70
5, 574260, Note_on_c, 3, 59, 70
5, 574380, Note_off_c, 3, 59, 64
5, 574380, Note_off_c, 3, 56, 64
5, 575100, Note_on_c, 3, 56, 70
5, 575100, Note_on_c, 3, 59, 70
5, 575160, Note_off_c, 3, 59, 64
5, 575160, Note_off_c, 3, 56, 64
5, 575220, Note_on_c, 3, 59, 70
5, 575220, Note_on_c, 3, 56, 70
5, 575280, Note_off_c, 3, 56, 64
5, 575280, Note_off_c, 3, 59, 64
5, 575340, Note_on_c, 3, 59, 70
5, 575340, Note_on_c, 3, 56, 70
5, 575460, Note_off_c, 3, 56, 64
5, 575460, Note_off_c, 3, 59, 64
5, 575880, Note_on_c, 3, 61, 54
5, 575880, Note_on_c, 3, 52, 54
5, 576456, Note_off_c, 3, 52, 64
5, 576456, Note_off_c, 3, 61, 64
5, 576600, Note_on_c, 3, 50, 54
5, 576600, Note_on_c, 3, 59, 54
5, 576720, Note_off_c, 3, 59, 64
5, 576720, Note_off_c, 3, 50, 64
5, 576840, Note_on_c, 3, 49, 54
5, 576840, Note_on_c, 3, 57, 54
5, 576960, Note_off_c, 3, 57, 64
5, 576960, Note_off_c, 3, 49, 64
5, 577080, Note_on_c, 3, 61, 54
5, 577080, Note_on_c, 3, 52, 54
5, 577200, Note_off_c, 3, 52, 64
5, 577200, Note_off_c, 3, 61, 64
5, 577320, Note_on_c, 3, 59, 54
5, 577320, Note_on_c, 3, 50, 54
5, 577440, Note_off_c, 3, 50, 64
5, 577440, Note_off_c, 3, 59, 64
5, 577560, Note_on_c, 3, 49, 54
5, 577560, Note_on_c, 3, 57, 54
5, 577680, Note_off_c, 3, 57, 64
5, 577680, Note_off_c, 3, 49, 64
5, 577800, Note_on_c, 3, 50, 54
5, 577800, Note_on_c, 3, 59, 54
5, 577920, Note_off_c, 3, 59, 64
5, 577920, Note_off_c, 3, 50, 64
5, 578040, Note_on_c, 3, 49, 72
5, 578040, Note_on_c, 3, 57, 72
5, 578160, Note_off_c, 3, 57, 64
5, 578160, Note_off_c, 3, 49, 64
5, 578280, Note_on_c, 3, 56, 72
5, 578280, Note_on_c, 3, 47, 72
5, 578400, Note_off_c, 3, 47, 64
5, 578400, Note_off_c, 3, 56, 64
5, 578520, Note_on_c, 3, 50, 72
5, 578520, Note_on_c, 3, 54, 72
5, 578640, Note_off_c, 3, 54, 64
5, 578640, Note_off_c, 3, 50, 64
5, 578760, Note_on_c, 3, 61, 72
5, 578760, Note_on_c, 3, 64, 72
5, 578880, Note_off_c, 3, 64, 64
5, 578880, Note_off_c, 3, 61, 64
5, 579000, Note_on_c, 3, 62, 72
5, 579000, Note_on_c, 3, 59, 72
5, 579120, Note_off_c, 3, 59, 64
5, 579120, Note_off_c, 3, 62, 64
5, 579240, Note_on_c, 3, 57, 72
5, 579240, Note_on_c, 3, 61, 72
5, 579360, Note_off_c, 3, 61, 64
5, 579360, Note_off_c, 3, 57, 64
5, 579480, Note_on_c, 3, 59, 72
5, 579480, Note_on_c, 3, 56, 72
5, 579600, Note_off_c, 3, 56, 64
5, 579600, Note_off_c, 3, 59, 64
5, 579720, Note_on_c, 3, 61, 70
5, 579720, Note_on_c, 3, 57, 70
5, 579840, Note_off_c, 3, 57, 64
5, 579840, Note_off_c, 3, 61, 64
5, 580800, Note_on_c, 3, 57, 94
5, 580800, Note_on_c, 3, 45, 94
5, 580914, Note_off_c, 3, 45, 64
5, 580914, Note_off_c, 3, 57, 64
5, 582180, Note_on_c, 3, 59, 70
5, 582180, Note_on_c, 3, 56, 70
5, 582240, Note_off_c, 3, 56, 64
5, 582240, Note_off_c, 3, 59, 64
5, 582300, Note_on_c, 3, 56, 70
5, 582300, Note_on_c, 3, 59, 70
5, 582360, Note_off_c, 3, 59, 64
5, 582360, Note_off_c, 3, 56, 64
5, 582420, Note_on_c, 3, 56, 70
5, 582420, Note_on_c, 3, 59, 70
5, 582540, Note_off_c, 3, 59, 64
5, 582540, Note_off_c, 3, 56, 64
5, 583260, Note_on_c, 3, 56, 70
5, 583260, Note_on_c, 3, 59, 70
5, 583320, Note_off_c, 3, 59, 64
5, 583320, Note_off_c, 3, 56, 64
5, 583380, Note_on_c, 3, 56, 70
5, 583380, Note_on_c, 3, 59, 70
5, 583440, Note_off_c, 3, 59, 64
5, 583440, Note_off_c, 3, 56, 64
5, 583500, Note_on_c, 3, 56, 70
5, 583500, Note_on_c, 3, 59, 70
5, 583620, Note_off_c, 3, 59, 64
5, 583620, Note_off_c, 3, 56, 64
5, 584040, Note_on_c, 3, 57, 120
5, 584040, Note_on_c, 3, 61, 120
5, 584232, Note_off_c, 3, 61, 64
5, 584232, Note_off_c, 3, 57, 64
5, 584280, Note_on_c, 3, 49, 120
5, 584280, Note_on_c, 3, 45, 120
5, 584472, Note_off_c, 3, 45, 64
5, 584472, Note_off_c, 3, 49, 64
5, 584520, Note_on_c, 3, 45, 120
5, 584520, Note_on_c, 3, 49, 120
5, 584712, Note_off_c, 3, 49, 64
5, 584712, Note_off_c, 3, 45, 64
5, 584760, Note_on_c, 3, 45, 120
5, 584760, Note_on_c, 3, 49, 120
5, 584952, Note_off_c, 3, 49, 64
5, 584952, Note_off_c, 3, 45, 64
5, 585000, Note_on_c, 3, 52, 120
5, 585000, Note_on_c, 3, 49, 120
5, 585192, Note_off_c, 3, 49, 64
5, 585192, Note_off_c, 3, 52, 64
5, 585240, Note_on_c, 3, 45, 120
5, 585240, Note_on_c, 3, 49, 120
5, 585432, Note_off_c, 3, 49, 64
5, 585432, Note_off_c, 3, 45, 64
5, 585480, Note_on_c, 3, 47, 120
5, 585480, Note_on_c, 3, 50, 120
5, 585672, Note_off_c, 3, 50, 64
5, 585672, Note_off_c, 3, 47, 64
5, 585720, Note_on_c, 3, 49, 120
5, 585720, Note_on_c, 3, 52, 120
5, 585912, Note_off_c, 3, 52, 64
5, 585912, Note_off_c, 3, 49, 64
5, 585960, Note_on_c, 3, 44, 120
5, 585960, Note_on_c, 3, 47, 120
5, 586152, Note_off_c, 3, 47, 64
5, 586152, Note_off_c, 3, 44, 64
5, 586200, Note_on_c, 3, 45, 120
5, 586200, Note_on_c, 3, 49, 120
5, 586392, Note_off_c, 3, 49, 64
5, 586392, Note_off_c, 3, 45, 64
5, 586440, Note_on_c, 3, 47, 120
5, 586440, Note_on_c, 3, 50, 120
5, 586632, Note_off_c, 3, 50, 64
5, 586632, Note_off_c, 3, 47, 64
5, 586680, Note_on_c, 3, 49, 120
5, 586680, Note_on_c, 3, 52, 120
5, 586872, Note_off_c, 3, 52, 64
5, 586872, Note_off_c, 3, 49, 64
5, 586920, Note_on_c, 3, 50, 120
5, 586920, Note_on_c, 3, 54, 120
5, 587112, Note_off_c, 3, 54, 64
5, 587112, Note_off_c, 3, 50, 64
5, 587160, Note_on_c, 3, 52, 120
5, 587160, Note_on_c, 3, 56, 120
5, 587352, Note_off_c, 3, 56, 64
5, 587352, Note_off_c, 3, 52, 64
5, 587400, Note_on_c, 3, 57, 120
5, 587400, Note_on_c, 3, 54, 120
5, 587592, Note_off_c, 3, 54, 64
5, 587592, Note_off_c, 3, 57, 64
5, 587640, Note_on_c, 3, 59, 120
5, 587640, Note_on_c, 3, 56, 120
5, 587832, Note_off_c, 3, 56, 64
5, 587832, Note_off_c, 3, 59, 64
5, 587880, Note_on_c, 3, 45, 90
5, 587880, Note_on_c, 3, 49, 90
5, 588072, Note_off_c, 3, 49, 64
5, 588072, Note_off_c, 3, 45, 64
5, 588120, Note_on_c, 3, 47, 90
5, 588120, Note_on_c, 3, 50, 90
5, 588312, Note_off_c, 3, 50, 64
5, 588312, Note_off_c, 3, 47, 64
5, 588360, Note_on_c, 3, 49, 90
5, 588360, Note_on_c, 3, 52, 90
5, 588552, Note_off_c, 3, 52, 64
5, 588552, Note_off_c, 3, 49, 64
5, 588600, Note_on_c, 3, 50, 90
5, 588600, Note_on_c, 3, 54, 90
5, 588792, Note_off_c, 3, 54, 64
5, 588792, Note_off_c, 3, 50, 64
5, 588840, Note_on_c, 3, 52, 90
5, 588840, Note_on_c, 3, 56, 90
5, 589032, Note_off_c, 3, 56, 64
5, 589032, Note_off_c, 3, 52, 64
5, 589080, Note_on_c, 3, 54, 90
5, 589080, Note_on_c, 3, 57, 90
5, 589272, Note_off_c, 3, 57, 64
5, 589272, Note_off_c, 3, 54, 64
5, 589320, Note_on_c, 3, 59, 90
5, 589320, Note_on_c, 3, 56, 90
5, 589512, Note_off_c, 3, 56, 64
5, 589512, Note_off_c, 3, 59, 64
5, 589560, Note_on_c, 3, 61, 90
5, 589560, Note_on_c, 3, 57, 90
5, 589752, Note_off_c, 3, 57, 64
5, 589752, Note_off_c, 3, 61, 64
5, 589800, Note_on_c, 3, 47, 90
5, 589800, Note_on_c, 3, 50, 90
5, 589992, Note_off_c, 3, 50, 64
5, 589992, Note_off_c, 3, 47, 64
5, 590040, Note_on_c, 3, 49, 90
5, 590040, Note_on_c, 3, 52, 90
5, 590232, Note_off_c, 3, 52, 64
5, 590232, Note_off_c, 3, 49, 64
5, 590280, Note_on_c, 3, 54, 90
5, 590280, Note_on_c, 3, 50, 90
5, 590472, Note_off_c, 3, 50, 64
5, 590472, Note_off_c, 3, 54, 64
5, 590520, Note_on_c, 3, 52, 90
5, 590520, Note_on_c, 3, 56, 90
5, 590712, Note_off_c, 3, 56, 64
5, 590712, Note_off_c, 3, 52, 64
5, 590760, Note_on_c, 3, 54, 90
5, 590760, Note_on_c, 3, 57, 90
5, 590952, Note_off_c, 3, 57, 64
5, 590952, Note_off_c, 3, 54, 64
5, 591000, Note_on_c, 3, 56, 90
5, 591000, Note_on_c, 3, 59, 90
5, 591192, Note_off_c, 3, 59, 64
5, 591192, Note_off_c, 3, 56, 64
5, 591240, Note_on_c, 3, 57, 90
5, 591240, Note_on_c, 3, 61, 90
5, 591432, Note_off_c, 3, 61, 64
5, 591432, Note_off_c, 3, 57, 64
5, 591480, Note_on_c, 3, 62, 90
5, 591480, Note_on_c, 3, 59, 90
5, 591672, Note_off_c, 3, 59, 64
5, 591672, Note_off_c, 3, 62, 64
5, 591720, Note_on_c, 3, 52, 90
5, 591720, Note_on_c, 3, 49, 90
5, 591912, Note_off_c, 3, 49, 64
5, 591912, Note_off_c, 3, 52, 64
5, 591960, Note_on_c, 3, 50, 90
5, 591960, Note_on_c, 3, 54, 90
5, 592152, Note_off_c, 3, 54, 64
5, 592152, Note_off_c, 3, 50, 64
5, 592200, Note_on_c, 3, 56, 90
5, 592200, Note_on_c, 3, 52, 90
5, 592392, Note_off_c, 3, 52, 64
5, 592392, Note_off_c, 3, 56, 64
5, 592440, Note_on_c, 3, 57, 90
5, 592440, Note_on_c, 3, 54, 90
5, 592632, Note_off_c, 3, 54, 64
5, 592632, Note_off_c, 3, 57, 64
5, 592680, Note_on_c, 3, 59, 90
5, 592680, Note_on_c, 3, 56, 90
5, 592872, Note_off_c, 3, 56, 64
5, 592872, Note_off_c, 3, 59, 64
5, 592920, Note_on_c, 3, 57, 90
5, 592920, Note_on_c, 3, 61, 90
5, 593112, Note_off_c, 3, 61, 64
5, 593112, Note_off_c, 3, 57, 64
5, 593160, Note_on_c, 3, 59, 90
5, 593160, Note_on_c, 3, 62, 90
5, 593352, Note_off_c, 3, 62, 64
5, 593352, Note_off_c, 3, 59, 64
5, 593400, Note_on_c, 3, 61, 90
5, 593400, Note_on_c, 3, 64, 90
5, 593592, Note_off_c, 3, 64, 64
5, 593592, Note_off_c, 3, 61, 64
5, 593640, Note_on_c, 3, 45, 90
5, 593640, Note_on_c, 3, 67, 90
5, 594408, Note_off_c, 3, 45, 64
5, 595368, Note_off_c, 3, 67, 64
5, 595560, Note_on_c, 3, 66, 120
5, 595668, Note_off_c, 3, 66, 64
5, 595800, Note_on_c, 3, 64, 120
5, 595908, Note_off_c, 3, 64, 64
5, 596040, Note_on_c, 3, 62, 120
5, 596148, Note_off_c, 3, 62, 64
5, 596280, Note_on_c, 3, 61, 120
5, 596388, Note_off_c, 3, 61, 64
5, 596520, Note_on_c, 3, 59, 120
5, 596628, Note_off_c, 3, 59, 64
5, 596760, Note_on_c, 3, 57, 120
5, 596868, Note_off_c, 3, 57, 64
5, 597000, Note_on_c, 3, 55, 120
5, 597108, Note_off_c, 3, 55, 64
5, 597240, Note_on_c, 3, 54, 120
5, 597348, Note_off_c, 3, 54, 64
5, 597480, Note_on_c, 3, 61, 80
5, 597480, Note_on_c, 3, 64, 80
5, 598392, Note_off_c, 3, 64, 64
5, 598392, Note_off_c, 3, 61, 64
5, 598440, Note_on_c, 3, 66, 80
5, 598440, Note_on_c, 3, 62, 80
5, 599352, Note_off_c, 3, 62, 64
5, 599352, Note_off_c, 3, 66, 64
5, 599400, Note_on_c, 3, 57, 80
5, 599400, Note_on_c, 3, 61, 80
5, 600312, Note_off_c, 3, 61, 64
5, 600312, Note_off_c, 3, 57, 64
5, 600360, Note_on_c, 3, 56, 80
5, 600360, Note_on_c, 3, 59, 80
5, 601272, Note_off_c, 3, 59, 64
5, 601272, Note_off_c, 3, 56, 64
5, 601320, Note_on_c, 3, 56, 74
5, 601440, Note_off_c, 3, 56, 64
5, 601560, Note_on_c, 3, 54, 74
5, 601680, Note_off_c, 3, 54, 64
5, 601800, Note_on_c, 3, 52, 74
5, 601920, Note_off_c, 3, 52, 64
5, 602040, Note_on_c, 3, 50, 74
5, 602160, Note_off_c, 3, 50, 64
5, 602280, Note_on_c, 3, 49, 74
5, 602400, Note_off_c, 3, 49, 64
5, 602520, Note_on_c, 3, 47, 74
5, 602640, Note_off_c, 3, 47, 64
5, 602760, Note_on_c, 3, 45, 74
5, 602880, Note_off_c, 3, 45, 64
5, 603000, Note_on_c, 3, 44, 74
5, 603120, Note_off_c, 3, 44, 64
5, 603240, Note_on_c, 3, 45, 74
5, 603360, Note_off_c, 3, 45, 64
5, 603480, Note_on_c, 3, 47, 74
5, 603600, Note_off_c, 3, 47, 64
5, 603720, Note_on_c, 3, 49, 74
5, 603840, Note_off_c, 3, 49, 64
5, 603960, Note_on_c, 3, 50, 74
5, 604080, Note_off_c, 3, 50, 64
5, 604200, Note_on_c, 3, 52, 74
5, 604320, Note_off_c, 3, 52, 64
5, 604440, Note_on_c, 3, 54, 74
5, 604560, Note_off_c, 3, 54, 64
5, 604680, Note_on_c, 3, 56, 74
5, 604800, Note_off_c, 3, 56, 64
5, 604920, Note_on_c, 3, 57, 74
5, 605040, Note_off_c, 3, 57, 64
5, 605160, Note_on_c, 3, 59, 64
5, 605280, Note_off_c, 3, 59, 64
5, 605400, Note_on_c, 3, 57, 67
5, 605520, Note_off_c, 3, 57, 64
5, 605640, Note_on_c, 3, 56, 70
5, 605760, Note_off_c, 3, 56, 64
5, 605880, Note_on_c, 3, 54, 74
5, 606000, Note_off_c, 3, 54, 64
5, 606120, Note_on_c, 3, 52, 77
5, 606240, Note_off_c, 3, 52, 64
5, 606360, Note_on_c, 3, 50, 80
5, 606480, Note_off_c, 3, 50, 64
5, 606600, Note_on_c, 3, 49, 83
5, 606720, Note_off_c, 3, 49, 64
5, 606840, Note_on_c, 3, 47, 86
5, 606960, Note_off_c, 3, 47, 64
5, 607080, Note_on_c, 3, 49, 90
5, 607200, Note_off_c, 3, 49, 64
5, 607320, Note_on_c, 3, 50, 93
5, 607440, Note_off_c, 3, 50, 64
5, 607560, Note_on_c, 3, 52, 96
5, 607680, Note_off_c, 3, 52, 64
5, 607800, Note_on_c, 3, 54, 99
5, 607920, Note_off_c, 3, 54, 64
5, 608040, Note_on_c, 3, 56, 102
5, 608160, Note_off_c, 3, 56, 64
5, 608280, Note_on_c, 3, 57, 106
5, 608400, Note_off_c, 3, 57, 64
5, 608520, Note_on_c, 3, 59, 109
5, 608640, Note_off_c, 3, 59, 64
5, 608760, Note_on_c, 3, 61, 112
5, 608880, Note_off_c, 3, 61, 64
5, 609000, Note_on_c, 3, 45, 90
5, 609000, Note_on_c, 3, 67, 90
5, 609768, Note_off_c, 3, 45, 64
5, 610728, Note_off_c, 3, 67, 64
5, 610920, Note_on_c, 3, 66, 120
5, 611028, Note_off_c, 3, 66, 64
5, 611160, Note_on_c, 3, 64, 120
5, 611268, Note_off_c, 3, 64, 64
5, 611400, Note_on_c, 3, 62, 120
5, 611508, Note_off_c, 3, 62, 64
5, 611640, Note_on_c, 3, 61, 120
5, 611748, Note_off_c, 3, 61, 64
5, 611880, Note_on_c, 3, 59, 120
5, 611988, Note_off_c, 3, 59, 64
5, 612120, Note_on_c, 3, 57, 120
5, 612228, Note_off_c, 3, 57, 64
5, 612360, Note_on_c, 3, 55, 120
5, 612468, Note_off_c, 3, 55, 64
5, 612600, Note_on_c, 3, 54, 120
5, 612708, Note_off_c, 3, 54, 64
5, 612840, Note_on_c, 3, 61, 80
5, 612840, Note_on_c, 3, 64, 80
5, 613752, Note_off_c, 3, 64, 64
5, 613752, Note_off_c, 3, 61, 64
5, 613800, Note_on_c, 3, 66, 80
5, 613800, Note_on_c, 3, 62, 80
5, 614712, Note_off_c, 3, 62, 64
5, 614712, Note_off_c, 3, 66, 64
5, 614760, Note_on_c, 3, 57, 80
5, 614760, Note_on_c, 3, 61, 80
5, 615672, Note_off_c, 3, 61, 64
5, 615672, Note_off_c, 3, 57, 64
5, 615720, Note_on_c, 3, 56, 80
5, 615720, Note_on_c, 3, 59, 80
5, 616632, Note_off_c, 3, 59, 64
5, 616632, Note_off_c, 3, 56, 64
5, 616680, Note_on_c, 3, 57, 80
5, 616680, Note_on_c, 3, 45, 80
5, 616800, Note_off_c, 3, 45, 64
5, 616800, Note_off_c, 3, 57, 64
5, 617640, Note_on_c, 3, 64, 127
5, 618120, Note_on_c, 3, 62, 127
5, 618120, Note_on_c, 3, 59, 127
5, 618576, Note_off_c, 3, 59, 64
5, 618576, Note_off_c, 3, 62, 64
5, 618600, Note_on_c, 3, 61, 127
5, 618600, Note_on_c, 3, 57, 127
5, 619056, Note_off_c, 3, 57, 64
5, 619056, Note_off_c, 3, 61, 64
5, 619080, Note_on_c, 3, 59, 127
5, 619080, Note_on_c, 3, 52, 127
5, 619536, Note_off_c, 3, 52, 64
5, 619536, Note_off_c, 3, 59, 64
5, 619560, Note_on_c, 3, 49, 127
5, 619560, Note_on_c, 3, 57, 127
5, 619944, Note_off_c, 3, 64, 64
5, 620016, Note_off_c, 3, 49, 64
5, 620016, Note_off_c, 3, 57, 64
5, 620040, Note_on_c, 3, 52, 127
5, 620040, Note_on_c, 3, 59, 127
5, 620040, Note_on_c, 3, 64, 64
5, 620424, Note_off_c, 3, 64, 64
5, 620496, Note_off_c, 3, 59, 64
5, 620496, Note_off_c, 3, 52, 64
5, 620520, Note_on_c, 3, 57, 80
5, 620520, Note_on_c, 3, 45, 80
5, 620640, Note_off_c, 3, 45, 64
5, 620640, Note_off_c, 3, 57, 64
5, 621480, Note_on_c, 3, 64, 127
5, 621960, Note_on_c, 3, 62, 127
5, 621960, Note_on_c, 3, 59, 127
5, 622416, Note_off_c, 3, 59, 64
5, 622416, Note_off_c, 3, 62, 64
5, 622440, Note_on_c, 3, 61, 127
5, 622440, Note_on_c, 3, 57, 127
5, 622896, Note_off_c, 3, 57, 64
5, 622896, Note_off_c, 3, 61, 64
5, 622920, Note_on_c, 3, 59, 127
5, 622920, Note_on_c, 3, 52, 127
5, 623376, Note_off_c, 3, 52, 64
5, 623376, Note_off_c, 3, 59, 64
5, 623400, Note_on_c, 3, 49, 127
5, 623400, Note_on_c, 3, 57, 127
5, 623784, Note_off_c, 3, 64, 64
5, 623856, Note_off_c, 3, 49, 64
5, 623856, Note_off_c, 3, 57, 64
5, 623880, Note_on_c, 3, 52, 127
5, 623880, Note_on_c, 3, 59, 127
5, 623880, Note_on_c, 3, 64, 64
5, 624264, Note_off_c, 3, 64, 64
5, 624336, Note_off_c, 3, 59, 64
5, 624336, Note_off_c, 3, 52, 64
5, 624360, Note_on_c, 3, 59, 79
5, 624360, Note_on_c, 3, 52, 79
5, 624480, Note_off_c, 3, 52, 64
5, 624480, Note_off_c, 3, 59, 64
5, 624600, Note_on_c, 3, 59, 79
5, 624600, Note_on_c, 3, 52, 79
5, 624720, Note_off_c, 3, 52, 64
5, 624720, Note_off_c, 3, 59, 64
5, 624840, Note_on_c, 3, 59, 79
5, 624840, Note_on_c, 3, 52, 79
5, 624960, Note_off_c, 3, 52, 64
5, 624960, Note_off_c, 3, 59, 64
5, 625080, Note_on_c, 3, 59, 79
5, 625080, Note_on_c, 3, 52, 79
5, 625200, Note_off_c, 3, 52, 64
5, 625200, Note_off_c, 3, 59, 64
5, 625320, Note_on_c, 3, 59, 79
5, 625320, Note_on_c, 3, 52, 79
5, 625440, Note_off_c, 3, 52, 64
5, 625440, Note_off_c, 3, 59, 64
5, 625560, Note_on_c, 3, 52, 79
5, 625560, Note_on_c, 3, 59, 79
5, 625680, Note_off_c, 3, 59, 64
5, 625680, Note_off_c, 3, 52, 64
5, 625800, Note_on_c, 3, 59, 79
5, 625800, Note_on_c, 3, 52, 79
5, 625920, Note_off_c, 3, 52, 64
5, 625920, Note_off_c, 3, 59, 64
5, 626040, Note_on_c, 3, 52, 79
5, 626040, Note_on_c, 3, 59, 79
5, 626160, Note_off_c, 3, 59, 64
5, 626160, Note_off_c, 3, 52, 64
5, 626280, Note_on_c, 3, 59, 79
5, 626280, Note_on_c, 3, 52, 79
5, 626400, Note_off_c, 3, 52, 64
5, 626400, Note_off_c, 3, 59, 64
5, 626520, Note_on_c, 3, 59, 79
5, 626520, Note_on_c, 3, 52, 79
5, 626640, Note_off_c, 3, 52, 64
5, 626640, Note_off_c, 3, 59, 64
5, 626760, Note_on_c, 3, 52, 79
5, 626760, Note_on_c, 3, 59, 79
5, 626880, Note_off_c, 3, 59, 64
5, 626880, Note_off_c, 3, 52, 64
5, 627000, Note_on_c, 3, 52, 79
5, 627000, Note_on_c, 3, 59, 79
5, 627120, Note_off_c, 3, 59, 64
5, 627120, Note_off_c, 3, 52, 64
5, 627240, Note_on_c, 3, 52, 79
5, 627240, Note_on_c, 3, 59, 79
5, 627360, Note_off_c, 3, 59, 64
5, 627360, Note_off_c, 3, 52, 64
5, 627480, Note_on_c, 3, 52, 79
5, 627480, Note_on_c, 3, 59, 79
5, 627600, Note_off_c, 3, 59, 64
5, 627600, Note_off_c, 3, 52, 64
5, 627720, Note_on_c, 3, 52, 79
5, 627720, Note_on_c, 3, 59, 79
5, 627840, Note_off_c, 3, 59, 64
5, 627840, Note_off_c, 3, 52, 64
5, 627960, Note_on_c, 3, 52, 79
5, 627960, Note_on_c, 3, 59, 79
5, 628080, Note_off_c, 3, 59, 64
5, 628080, Note_off_c, 3, 52, 64
5, 628200, Note_on_c, 3, 57, 99
5, 628392, Note_off_c, 3, 57, 64
5, 629280, Note_on_c, 3, 45, 127
5, 629472, Note_off_c, 3, 45, 64
5, 630480, Note_on_c, 3, 45, 127
5, 630672, Note_off_c, 3, 45, 64
5, 630672, End_track
6, 0, Start_track
6, 0, Title_t, "Horns"
6, 0, MIDI_port, 0
6, 0, Channel_prefix, 4
6, 0, Control_c, 4, 7, 90
6, 0, Control_c, 4, 10, 35
6, 0, Program_c, 4, 60
6, 0, Program_c, 4, 60
6, 0, Control_c, 4, 91, 66
6, 480, Control_c, 4, 10, 36
6, 6060, Note_on_c, 4, 64, 81
6, 6060, Note_on_c, 4, 52, 81
6, 6174, Note_off_c, 4, 52, 64
6, 6174, Note_off_c, 4, 64, 64
6, 6180, Note_on_c, 4, 64, 81
6, 6180, Note_on_c, 4, 52, 81
6, 6294, Note_off_c, 4, 52, 64
6, 6294, Note_off_c, 4, 64, 64
6, 6300, Note_on_c, 4, 52, 108
6, 6300, Note_on_c, 4, 64, 108
6, 6414, Note_off_c, 4, 64, 64
6, 6414, Note_off_c, 4, 52, 64
6, 8460, Note_on_c, 4, 52, 81
6, 8460, Note_on_c, 4, 64, 81
6, 8574, Note_off_c, 4, 64, 64
6, 8574, Note_off_c, 4, 52, 64
6, 8580, Note_on_c, 4, 52, 81
6, 8580, Note_on_c, 4, 64, 81
6, 8694, Note_off_c, 4, 64, 64
6, 8694, Note_off_c, 4, 52, 64
6, 8700, Note_on_c, 4, 64, 108
6, 8700, Note_on_c, 4, 52, 108
6, 8814, Note_off_c, 4, 52, 64
6, 8814, Note_off_c, 4, 64, 64
6, 10560, Note_on_c, 4, 52, 54
6, 10560, Note_on_c, 4, 64, 54
6, 10680, Note_off_c, 4, 64, 64
6, 10680, Note_off_c, 4, 52, 64
6, 11040, Note_on_c, 4, 64, 94
6, 11040, Note_on_c, 4, 52, 94
6, 11640, Note_off_c, 4, 52, 64
6, 11640, Note_off_c, 4, 64, 64
6, 12000, Note_on_c, 4, 52, 94
6, 12000, Note_on_c, 4, 64, 94
6, 12600, Note_off_c, 4, 64, 64
6, 12600, Note_off_c, 4, 52, 64
6, 12960, Note_on_c, 4, 64, 94
6, 12960, Note_on_c, 4, 52, 94
6, 13560, Note_off_c, 4, 52, 64
6, 13560, Note_off_c, 4, 64, 64
6, 13920, Note_on_c, 4, 64, 94
6, 13920, Note_on_c, 4, 52, 94
6, 14520, Note_off_c, 4, 52, 64
6, 14520, Note_off_c, 4, 64, 64
6, 14880, Note_on_c, 4, 64, 94
6, 14880, Note_on_c, 4, 52, 94
6, 15480, Note_off_c, 4, 52, 64
6, 15480, Note_off_c, 4, 64, 64
6, 15840, Note_on_c, 4, 64, 94
6, 15840, Note_on_c, 4, 52, 94
6, 16440, Note_off_c, 4, 52, 64
6, 16440, Note_off_c, 4, 64, 64
6, 16800, Note_on_c, 4, 64, 94
6, 16800, Note_on_c, 4, 52, 94
6, 17280, Note_off_c, 4, 52, 64
6, 17280, Note_off_c, 4, 64, 64
6, 17280, Note_on_c, 4, 57, 114
6, 17280, Note_on_c, 4, 69, 114
6, 17400, Note_off_c, 4, 69, 64
6, 17400, Note_off_c, 4, 57, 64
6, 17520, Note_on_c, 4, 57, 114
6, 17520, Note_on_c, 4, 69, 114
6, 17634, Note_off_c, 4, 69, 64
6, 17634, Note_off_c, 4, 57, 64
6, 17640, Note_on_c, 4, 57, 114
6, 17640, Note_on_c, 4, 69, 114
6, 17754, Note_off_c, 4, 69, 64
6, 17754, Note_off_c, 4, 57, 64
6, 17760, Note_on_c, 4, 57, 114
6, 17760, Note_on_c, 4, 69, 114
6, 17880, Note_off_c, 4, 69, 64
6, 17880, Note_off_c, 4, 57, 64
6, 18240, Note_on_c, 4, 52, 54
6, 18240, Note_on_c, 4, 64, 54
6, 18360, Note_off_c, 4, 64, 64
6, 18360, Note_off_c, 4, 52, 64
6, 18720, Note_on_c, 4, 64, 94
6, 18720, Note_on_c, 4, 52, 94
6, 19320, Note_off_c, 4, 52, 64
6, 19320, Note_off_c, 4, 64, 64
6, 19680, Note_on_c, 4, 52, 94
6, 19680, Note_on_c, 4, 64, 94
6, 20280, Note_off_c, 4, 64, 64
6, 20280, Note_off_c, 4, 52, 64
6, 20640, Note_on_c, 4, 64, 94
6, 20640, Note_on_c, 4, 52, 94
6, 21240, Note_off_c, 4, 52, 64
6, 21240, Note_off_c, 4, 64, 64
6, 21600, Note_on_c, 4, 64, 94
6, 21600, Note_on_c, 4, 52, 94
6, 22200, Note_off_c, 4, 52, 64
6, 22200, Note_off_c, 4, 64, 64
6, 22560, Note_on_c, 4, 64, 94
6, 22560, Note_on_c, 4, 52, 94
6, 23160, Note_off_c, 4, 52, 64
6, 23160, Note_off_c, 4, 64, 64
6, 23520, Note_on_c, 4, 64, 94
6, 23520, Note_on_c, 4, 52, 94
6, 24120, Note_off_c, 4, 52, 64
6, 24120, Note_off_c, 4, 64, 64
6, 24480, Note_on_c, 4, 64, 94
6, 24480, Note_on_c, 4, 52, 94
6, 24960, Note_off_c, 4, 52, 64
6, 24960, Note_off_c, 4, 64, 64
6, 24960, Note_on_c, 4, 69, 114
6, 24960, Note_on_c, 4, 57, 114
6, 25080, Note_off_c, 4, 57, 64
6, 25080, Note_off_c, 4, 69, 64
6, 25200, Note_on_c, 4, 69, 114
6, 25200, Note_on_c, 4, 57, 114
6, 25314, Note_off_c, 4, 57, 64
6, 25314, Note_off_c, 4, 69, 64
6, 25320, Note_on_c, 4, 57, 114
6, 25320, Note_on_c, 4, 69, 114
6, 25434, Note_off_c, 4, 69, 64
6, 25434, Note_off_c, 4, 57, 64
6, 25440, Note_on_c, 4, 69, 114
6, 25440, Note_on_c, 4, 57, 114
6, 25560, Note_off_c, 4, 57, 64
6, 25560, Note_off_c, 4, 69, 64
6, 25920, Note_on_c, 4, 45, 54
6, 25920, Note_on_c, 4, 57, 54
6, 26040, Note_off_c, 4, 57, 64
6, 26040, Note_off_c, 4, 45, 64
6, 26400, Note_on_c, 4, 45, 95
6, 26400, Note_on_c, 4, 57, 95
6, 27000, Note_off_c, 4, 57, 64
6, 27000, Note_off_c, 4, 45, 64
6, 27360, Note_on_c, 4, 45, 95
6, 27360, Note_on_c, 4, 57, 95
6, 27960, Note_off_c, 4, 57, 64
6, 27960, Note_off_c, 4, 45, 64
6, 28320, Note_on_c, 4, 45, 95
6, 28320, Note_on_c, 4, 57, 95
6, 28920, Note_off_c, 4, 57, 64
6, 28920, Note_off_c, 4, 45, 64
6, 29760, Note_on_c, 4, 71, 54
6, 29880, Note_off_c, 4, 71, 64
6, 30240, Note_on_c, 4, 64, 35
6, 30240, Note_on_c, 4, 52, 35
6, 30720, Note_off_c, 4, 64, 64
6, 30720, Note_on_c, 4, 69, 35
6, 30840, Note_off_c, 4, 52, 64
6, 30840, Note_off_c, 4, 69, 64
6, 31200, Note_on_c, 4, 61, 35
6, 31200, Note_on_c, 4, 52, 35
6, 31680, Note_off_c, 4, 61, 64
6, 31680, Note_on_c, 4, 64, 35
6, 31800, Note_off_c, 4, 52, 64
6, 31800, Note_off_c, 4, 64, 64
6, 32160, Note_on_c, 4, 64, 35
6, 32160, Note_on_c, 4, 52, 35
6, 32640, Note_off_c, 4, 52, 64
6, 32640, Note_off_c, 4, 64, 64
6, 32640, Note_on_c, 4, 57, 114
6, 32640, Note_on_c, 4, 45, 114
6, 32760, Note_off_c, 4, 45, 64
6, 32760, Note_off_c, 4, 57, 64
6, 32880, Note_on_c, 4, 69, 114
6, 32880, Note_on_c, 4, 57, 114
6, 32994, Note_off_c, 4, 57, 64
6, 32994, Note_off_c, 4, 69, 64
6, 33000, Note_on_c, 4, 57, 114
6, 33000, Note_on_c, 4, 69, 114
6, 33114, Note_off_c, 4, 69, 64
6, 33114, Note_off_c, 4, 57, 64
6, 33120, Note_on_c, 4, 69, 114
6, 33120, Note_on_c, 4, 57, 114
6, 33240, Note_off_c, 4, 57, 64
6, 33240, Note_off_c, 4, 69, 64
6, 33600, Note_on_c, 4, 45, 54
6, 33600, Note_on_c, 4, 57, 54
6, 33720, Note_off_c, 4, 57, 64
6, 33720, Note_off_c, 4, 45, 64
6, 34080, Note_on_c, 4, 45, 95
6, 34080, Note_on_c, 4, 57, 95
6, 34680, Note_off_c, 4, 57, 64
6, 34680, Note_off_c, 4, 45, 64
6, 35040, Note_on_c, 4, 45, 95
6, 35040, Note_on_c, 4, 57, 95
6, 35640, Note_off_c, 4, 57, 64
6, 35640, Note_off_c, 4, 45, 64
6, 36000, Note_on_c, 4, 45, 95
6, 36000, Note_on_c, 4, 57, 95
6, 36600, Note_off_c, 4, 57, 64
6, 36600, Note_off_c, 4, 45, 64
6, 37440, Note_on_c, 4, 71, 54
6, 37560, Note_off_c, 4, 71, 64
6, 37920, Note_on_c, 4, 64, 35
6, 37920, Note_on_c, 4, 52, 35
6, 38400, Note_off_c, 4, 64, 64
6, 38400, Note_on_c, 4, 69, 35
6, 38520, Note_off_c, 4, 52, 64
6, 38520, Note_off_c, 4, 69, 64
6, 38880, Note_on_c, 4, 61, 35
6, 38880, Note_on_c, 4, 52, 35
6, 39360, Note_off_c, 4, 61, 64
6, 39360, Note_on_c, 4, 64, 35
6, 39480, Note_off_c, 4, 52, 64
6, 39480, Note_off_c, 4, 64, 64
6, 39840, Note_on_c, 4, 64, 35
6, 39840, Note_on_c, 4, 52, 35
6, 40320, Note_off_c, 4, 52, 64
6, 40320, Note_off_c, 4, 64, 64
6, 40320, Note_on_c, 4, 45, 114
6, 40320, Note_on_c, 4, 57, 114
6, 40440, Note_off_c, 4, 57, 64
6, 40440, Note_off_c, 4, 45, 64
6, 40620, Note_on_c, 4, 57, 114
6, 40620, Note_on_c, 4, 69, 114
6, 40734, Note_off_c, 4, 69, 64
6, 40734, Note_off_c, 4, 57, 64
6, 40740, Note_on_c, 4, 57, 114
6, 40740, Note_on_c, 4, 69, 114
6, 40854, Note_off_c, 4, 69, 64
6, 40854, Note_off_c, 4, 57, 64
6, 40860, Note_on_c, 4, 57, 114
6, 40860, Note_on_c, 4, 69, 114
6, 40980, Note_off_c, 4, 69, 64
6, 40980, Note_off_c, 4, 57, 64
6, 41700, Note_on_c, 4, 69, 114
6, 41700, Note_on_c, 4, 57, 114
6, 41814, Note_off_c, 4, 57, 64
6, 41814, Note_off_c, 4, 69, 64
6, 41820, Note_on_c, 4, 69, 114
6, 41820, Note_on_c, 4, 57, 114
6, 41934, Note_off_c, 4, 57, 64
6, 41934, Note_off_c, 4, 69, 64
6, 41940, Note_on_c, 4, 69, 114
6, 41940, Note_on_c, 4, 57, 114
6, 42054, Note_off_c, 4, 57, 64
6, 42054, Note_off_c, 4, 69, 64
6, 42780, Note_on_c, 4, 76, 114
6, 42780, Note_on_c, 4, 64, 114
6, 42894, Note_off_c, 4, 64, 64
6, 42894, Note_off_c, 4, 76, 64
6, 42900, Note_on_c, 4, 76, 114
6, 42900, Note_on_c, 4, 64, 114
6, 43014, Note_off_c, 4, 64, 64
6, 43014, Note_off_c, 4, 76, 64
6, 43020, Note_on_c, 4, 76, 114
6, 43020, Note_on_c, 4, 64, 114
6, 43140, Note_off_c, 4, 64, 64
6, 43140, Note_off_c, 4, 76, 64
6, 43860, Note_on_c, 4, 76, 114
6, 43860, Note_on_c, 4, 64, 114
6, 43974, Note_off_c, 4, 64, 64
6, 43974, Note_off_c, 4, 76, 64
6, 43980, Note_on_c, 4, 76, 114
6, 43980, Note_on_c, 4, 64, 114
6, 44094, Note_off_c, 4, 64, 64
6, 44094, Note_off_c, 4, 76, 64
6, 44100, Note_on_c, 4, 76, 114
6, 44100, Note_on_c, 4, 64, 114
6, 44220, Note_off_c, 4, 64, 64
6, 44220, Note_off_c, 4, 76, 64
6, 44640, Note_on_c, 4, 73, 108
6, 44640, Note_on_c, 4, 69, 108
6, 45216, Note_off_c, 4, 69, 64
6, 45216, Note_off_c, 4, 73, 64
6, 45360, Note_on_c, 4, 71, 108
6, 45360, Note_on_c, 4, 64, 108
6, 45480, Note_off_c, 4, 64, 64
6, 45480, Note_off_c, 4, 71, 64
6, 45600, Note_on_c, 4, 61, 108
6, 45600, Note_on_c, 4, 69, 108
6, 45720, Note_off_c, 4, 69, 64
6, 45720, Note_off_c, 4, 61, 64
6, 45840, Note_on_c, 4, 69, 108
6, 45840, Note_on_c, 4, 73, 108
6, 45960, Note_off_c, 4, 73, 64
6, 45960, Note_off_c, 4, 69, 64
6, 46080, Note_on_c, 4, 71, 108
6, 46080, Note_on_c, 4, 64, 108
6, 46200, Note_off_c, 4, 64, 64
6, 46200, Note_off_c, 4, 71, 64
6, 46320, Note_on_c, 4, 61, 108
6, 46320, Note_on_c, 4, 69, 108
6, 46440, Note_off_c, 4, 69, 64
6, 46440, Note_off_c, 4, 61, 64
6, 46560, Note_on_c, 4, 71, 108
6, 46560, Note_on_c, 4, 64, 108
6, 46680, Note_off_c, 4, 64, 64
6, 46680, Note_off_c, 4, 71, 64
6, 46800, Note_on_c, 4, 61, 72
6, 46800, Note_on_c, 4, 69, 72
6, 46920, Note_off_c, 4, 69, 64
6, 46920, Note_off_c, 4, 61, 64
6, 47040, Note_on_c, 4, 64, 54
6, 47040, Note_on_c, 4, 76, 54
6, 47160, Note_off_c, 4, 76, 64
6, 47160, Note_off_c, 4, 64, 64
6, 47280, Note_on_c, 4, 64, 54
6, 47280, Note_on_c, 4, 76, 54
6, 47400, Note_off_c, 4, 76, 64
6, 47400, Note_off_c, 4, 64, 64
6, 47520, Note_on_c, 4, 76, 54
6, 47520, Note_on_c, 4, 64, 54
6, 47640, Note_off_c, 4, 64, 64
6, 47640, Note_off_c, 4, 76, 64
6, 47760, Note_on_c, 4, 64, 54
6, 47760, Note_on_c, 4, 76, 54
6, 47880, Note_off_c, 4, 76, 64
6, 47880, Note_off_c, 4, 64, 64
6, 48000, Note_on_c, 4, 76, 54
6, 48000, Note_on_c, 4, 64, 54
6, 48120, Note_off_c, 4, 64, 64
6, 48120, Note_off_c, 4, 76, 64
6, 48240, Note_on_c, 4, 76, 54
6, 48240, Note_on_c, 4, 64, 54
6, 48360, Note_off_c, 4, 64, 64
6, 48360, Note_off_c, 4, 76, 64
6, 48480, Note_on_c, 4, 45, 114
6, 48480, Note_on_c, 4, 57, 114
6, 48600, Note_off_c, 4, 57, 64
6, 48600, Note_off_c, 4, 45, 64
6, 48780, Note_on_c, 4, 69, 114
6, 48780, Note_on_c, 4, 57, 114
6, 48894, Note_off_c, 4, 57, 64
6, 48894, Note_off_c, 4, 69, 64
6, 48900, Note_on_c, 4, 57, 114
6, 48900, Note_on_c, 4, 69, 114
6, 49014, Note_off_c, 4, 69, 64
6, 49014, Note_off_c, 4, 57, 64
6, 49020, Note_on_c, 4, 57, 114
6, 49020, Note_on_c, 4, 69, 114
6, 49140, Note_off_c, 4, 69, 64
6, 49140, Note_off_c, 4, 57, 64
6, 49860, Note_on_c, 4, 69, 114
6, 49860, Note_on_c, 4, 57, 114
6, 49974, Note_off_c, 4, 57, 64
6, 49974, Note_off_c, 4, 69, 64
6, 49980, Note_on_c, 4, 69, 114
6, 49980, Note_on_c, 4, 57, 114
6, 50094, Note_off_c, 4, 57, 64
6, 50094, Note_off_c, 4, 69, 64
6, 50100, Note_on_c, 4, 69, 114
6, 50100, Note_on_c, 4, 57, 114
6, 50220, Note_off_c, 4, 57, 64
6, 50220, Note_off_c, 4, 69, 64
6, 50940, Note_on_c, 4, 76, 114
6, 50940, Note_on_c, 4, 64, 114
6, 51054, Note_off_c, 4, 64, 64
6, 51054, Note_off_c, 4, 76, 64
6, 51060, Note_on_c, 4, 76, 114
6, 51060, Note_on_c, 4, 64, 114
6, 51174, Note_off_c, 4, 64, 64
6, 51174, Note_off_c, 4, 76, 64
6, 51180, Note_on_c, 4, 76, 114
6, 51180, Note_on_c, 4, 64, 114
6, 51300, Note_off_c, 4, 64, 64
6, 51300, Note_off_c, 4, 76, 64
6, 52020, Note_on_c, 4, 76, 114
6, 52020, Note_on_c, 4, 64, 114
6, 52134, Note_off_c, 4, 64, 64
6, 52134, Note_off_c, 4, 76, 64
6, 52140, Note_on_c, 4, 76, 114
6, 52140, Note_on_c, 4, 64, 114
6, 52254, Note_off_c, 4, 64, 64
6, 52254, Note_off_c, 4, 76, 64
6, 52260, Note_on_c, 4, 76, 114
6, 52260, Note_on_c, 4, 64, 114
6, 52380, Note_off_c, 4, 64, 64
6, 52380, Note_off_c, 4, 76, 64
6, 52800, Note_on_c, 4, 69, 80
6, 52800, Note_on_c, 4, 73, 80
6, 52992, Note_off_c, 4, 73, 64
6, 52992, Note_off_c, 4, 69, 64
6, 53280, Note_on_c, 4, 73, 80
6, 53280, Note_on_c, 4, 69, 80
6, 53472, Note_off_c, 4, 69, 64
6, 53472, Note_off_c, 4, 73, 64
6, 53760, Note_on_c, 4, 73, 80
6, 53760, Note_on_c, 4, 69, 80
6, 53952, Note_off_c, 4, 69, 64
6, 53952, Note_off_c, 4, 73, 64
6, 54240, Note_on_c, 4, 73, 80
6, 54240, Note_on_c, 4, 69, 80
6, 54432, Note_off_c, 4, 69, 64
6, 54432, Note_off_c, 4, 73, 64
6, 54720, Note_on_c, 4, 71, 64
6, 54720, Note_on_c, 4, 64, 64
6, 54912, Note_off_c, 4, 64, 64
6, 54912, Note_off_c, 4, 71, 64
6, 55200, Note_on_c, 4, 64, 61
6, 55200, Note_on_c, 4, 71, 61
6, 55392, Note_off_c, 4, 71, 64
6, 55392, Note_off_c, 4, 64, 64
6, 55680, Note_on_c, 4, 71, 57
6, 55680, Note_on_c, 4, 64, 57
6, 55872, Note_off_c, 4, 64, 64
6, 55872, Note_off_c, 4, 71, 64
6, 56160, Note_on_c, 4, 64, 53
6, 56160, Note_on_c, 4, 71, 53
6, 56352, Note_off_c, 4, 71, 64
6, 56352, Note_off_c, 4, 64, 64
6, 56640, Note_on_c, 4, 61, 60
6, 56640, Note_on_c, 4, 69, 60
6, 56832, Note_off_c, 4, 69, 64
6, 56832, Note_off_c, 4, 61, 64
6, 57600, Note_on_c, 4, 52, 58
6, 57600, Note_on_c, 4, 64, 58
6, 60706, Note_off_c, 4, 64, 64
6, 60706, Note_off_c, 4, 52, 64
6, 61440, Note_on_c, 4, 52, 58
6, 61440, Note_on_c, 4, 64, 58
6, 63586, Note_off_c, 4, 64, 64
6, 63586, Note_off_c, 4, 52, 64
6, 72000, Note_on_c, 4, 61, 75
6, 72000, Note_on_c, 4, 73, 75
6, 72144, Note_off_c, 4, 73, 64
6, 72144, Note_off_c, 4, 61, 64
6, 72480, Note_on_c, 4, 61, 75
6, 72480, Note_on_c, 4, 73, 75
6, 72624, Note_off_c, 4, 73, 64
6, 72624, Note_off_c, 4, 61, 64
6, 72960, Note_on_c, 4, 61, 75
6, 72960, Note_on_c, 4, 73, 75
6, 73104, Note_off_c, 4, 73, 64
6, 73104, Note_off_c, 4, 61, 64
6, 73440, Note_on_c, 4, 73, 75
6, 73440, Note_on_c, 4, 61, 75
6, 73584, Note_off_c, 4, 61, 64
6, 73584, Note_off_c, 4, 73, 64
6, 73920, Note_on_c, 4, 73, 75
6, 73920, Note_on_c, 4, 61, 75
6, 74064, Note_off_c, 4, 61, 64
6, 74064, Note_off_c, 4, 73, 64
6, 74400, Note_on_c, 4, 73, 75
6, 74400, Note_on_c, 4, 61, 75
6, 74544, Note_off_c, 4, 61, 64
6, 74544, Note_off_c, 4, 73, 64
6, 74880, Note_on_c, 4, 73, 75
6, 74880, Note_on_c, 4, 61, 75
6, 75024, Note_off_c, 4, 61, 64
6, 75024, Note_off_c, 4, 73, 64
6, 75360, Note_on_c, 4, 73, 75
6, 75360, Note_on_c, 4, 61, 75
6, 75504, Note_off_c, 4, 61, 64
6, 75504, Note_off_c, 4, 73, 64
6, 75840, Note_on_c, 4, 61, 75
6, 75840, Note_on_c, 4, 73, 75
6, 75984, Note_off_c, 4, 73, 64
6, 75984, Note_off_c, 4, 61, 64
6, 76320, Note_on_c, 4, 73, 75
6, 76320, Note_on_c, 4, 61, 75
6, 76464, Note_off_c, 4, 61, 64
6, 76464, Note_off_c, 4, 73, 64
6, 76800, Note_on_c, 4, 61, 75
6, 76800, Note_on_c, 4, 73, 75
6, 76944, Note_off_c, 4, 73, 64
6, 76944, Note_off_c, 4, 61, 64
6, 77280, Note_on_c, 4, 73, 75
6, 77280, Note_on_c, 4, 61, 75
6, 77424, Note_off_c, 4, 61, 64
6, 77424, Note_off_c, 4, 73, 64
6, 77760, Note_on_c, 4, 57, 75
6, 77760, Note_on_c, 4, 69, 75
6, 77904, Note_off_c, 4, 69, 64
6, 77904, Note_off_c, 4, 57, 64
6, 78240, Note_on_c, 4, 69, 75
6, 78240, Note_on_c, 4, 57, 75
6, 78384, Note_off_c, 4, 57, 64
6, 78384, Note_off_c, 4, 69, 64
6, 78720, Note_on_c, 4, 57, 75
6, 78720, Note_on_c, 4, 69, 75
6, 78864, Note_off_c, 4, 69, 64
6, 78864, Note_off_c, 4, 57, 64
6, 79200, Note_on_c, 4, 57, 75
6, 79200, Note_on_c, 4, 69, 75
6, 79344, Note_off_c, 4, 69, 64
6, 79344, Note_off_c, 4, 57, 64
6, 79680, Note_on_c, 4, 57, 75
6, 79680, Note_on_c, 4, 69, 75
6, 79824, Note_off_c, 4, 69, 64
6, 79824, Note_off_c, 4, 57, 64
6, 80160, Note_on_c, 4, 69, 75
6, 80160, Note_on_c, 4, 57, 75
6, 80304, Note_off_c, 4, 57, 64
6, 80304, Note_off_c, 4, 69, 64
6, 80640, Note_on_c, 4, 57, 75
6, 80640, Note_on_c, 4, 69, 75
6, 80784, Note_off_c, 4, 69, 64
6, 80784, Note_off_c, 4, 57, 64
6, 81120, Note_on_c, 4, 69, 75
6, 81120, Note_on_c, 4, 57, 75
6, 81264, Note_off_c, 4, 57, 64
6, 81264, Note_off_c, 4, 69, 64
6, 81600, Note_on_c, 4, 57, 75
6, 81600, Note_on_c, 4, 69, 75
6, 81744, Note_off_c, 4, 69, 64
6, 81744, Note_off_c, 4, 57, 64
6, 82080, Note_on_c, 4, 69, 113
6, 82080, Note_on_c, 4, 57, 113
6, 82224, Note_off_c, 4, 57, 64
6, 82224, Note_off_c, 4, 69, 64
6, 85920, Note_on_c, 4, 69, 113
6, 85920, Note_on_c, 4, 57, 113
6, 86064, Note_off_c, 4, 57, 64
6, 86064, Note_off_c, 4, 69, 64
6, 93600, Note_on_c, 4, 52, 80
6, 93600, Note_on_c, 4, 64, 80
6, 93984, Note_off_c, 4, 64, 64
6, 93984, Note_off_c, 4, 52, 64
6, 95520, Note_on_c, 4, 52, 80
6, 95520, Note_on_c, 4, 64, 80
6, 95904, Note_off_c, 4, 64, 64
6, 95904, Note_off_c, 4, 52, 64
6, 103200, Note_on_c, 4, 52, 80
6, 103200, Note_on_c, 4, 64, 80
6, 103584, Note_off_c, 4, 64, 64
6, 103584, Note_off_c, 4, 52, 64
6, 105120, Note_on_c, 4, 52, 80
6, 105120, Note_on_c, 4, 64, 80
6, 105504, Note_off_c, 4, 64, 64
6, 105504, Note_off_c, 4, 52, 64
6, 121920, Note_on_c, 4, 69, 99
6, 121920, Note_on_c, 4, 57, 99
6, 122112, Note_off_c, 4, 57, 64
6, 122112, Note_off_c, 4, 69, 64
6, 122160, Note_on_c, 4, 57, 99
6, 122160, Note_on_c, 4, 69, 99
6, 122352, Note_off_c, 4, 69, 64
6, 122352, Note_off_c, 4, 57, 64
6, 122400, Note_on_c, 4, 57, 99
6, 122400, Note_on_c, 4, 69, 99
6, 122592, Note_off_c, 4, 69, 64
6, 122592, Note_off_c, 4, 57, 64
6, 122640, Note_on_c, 4, 57, 99
6, 122640, Note_on_c, 4, 69, 99
6, 122832, Note_off_c, 4, 69, 64
6, 122832, Note_off_c, 4, 57, 64
6, 122880, Note_on_c, 4, 69, 99
6, 122880, Note_on_c, 4, 57, 99
6, 123072, Note_off_c, 4, 57, 64
6, 123072, Note_off_c, 4, 69, 64
6, 123120, Note_on_c, 4, 69, 99
6, 123120, Note_on_c, 4, 57, 99
6, 123312, Note_off_c, 4, 57, 64
6, 123312, Note_off_c, 4, 69, 64
6, 123360, Note_on_c, 4, 69, 99
6, 123360, Note_on_c, 4, 57, 99
6, 123552, Note_off_c, 4, 57, 64
6, 123552, Note_off_c, 4, 69, 64
6, 123600, Note_on_c, 4, 69, 99
6, 123600, Note_on_c, 4, 57, 99
6, 123792, Note_off_c, 4, 57, 64
6, 123792, Note_off_c, 4, 69, 64
6, 123840, Note_on_c, 4, 52, 127
6, 123840, Note_on_c, 4, 64, 127
6, 124032, Note_off_c, 4, 64, 64
6, 124032, Note_off_c, 4, 52, 64
6, 124080, Note_on_c, 4, 64, 99
6, 124080, Note_on_c, 4, 52, 99
6, 124272, Note_off_c, 4, 52, 64
6, 124272, Note_off_c, 4, 64, 64
6, 124320, Note_on_c, 4, 64, 99
6, 124320, Note_on_c, 4, 52, 99
6, 124512, Note_off_c, 4, 52, 64
6, 124512, Note_off_c, 4, 64, 64
6, 124560, Note_on_c, 4, 52, 99
6, 124560, Note_on_c, 4, 64, 99
6, 124752, Note_off_c, 4, 64, 64
6, 124752, Note_off_c, 4, 52, 64
6, 124800, Note_on_c, 4, 57, 127
6, 124800, Note_on_c, 4, 69, 127
6, 124992, Note_off_c, 4, 69, 64
6, 124992, Note_off_c, 4, 57, 64
6, 125040, Note_on_c, 4, 69, 99
6, 125040, Note_on_c, 4, 57, 99
6, 125232, Note_off_c, 4, 57, 64
6, 125232, Note_off_c, 4, 69, 64
6, 125280, Note_on_c, 4, 69, 99
6, 125280, Note_on_c, 4, 57, 99
6, 125472, Note_off_c, 4, 57, 64
6, 125472, Note_off_c, 4, 69, 64
6, 125520, Note_on_c, 4, 69, 99
6, 125520, Note_on_c, 4, 57, 99
6, 125712, Note_off_c, 4, 57, 64
6, 125712, Note_off_c, 4, 69, 64
6, 125760, Note_on_c, 4, 52, 127
6, 125760, Note_on_c, 4, 64, 127
6, 125952, Note_off_c, 4, 64, 64
6, 125952, Note_off_c, 4, 52, 64
6, 126000, Note_on_c, 4, 52, 99
6, 126000, Note_on_c, 4, 64, 99
6, 126192, Note_off_c, 4, 64, 64
6, 126192, Note_off_c, 4, 52, 64
6, 126240, Note_on_c, 4, 64, 99
6, 126240, Note_on_c, 4, 52, 99
6, 126432, Note_off_c, 4, 52, 64
6, 126432, Note_off_c, 4, 64, 64
6, 126480, Note_on_c, 4, 64, 99
6, 126480, Note_on_c, 4, 52, 99
6, 126672, Note_off_c, 4, 52, 64
6, 126672, Note_off_c, 4, 64, 64
6, 126720, Note_on_c, 4, 57, 127
6, 126720, Note_on_c, 4, 69, 127
6, 126912, Note_off_c, 4, 69, 64
6, 126912, Note_off_c, 4, 57, 64
6, 126960, Note_on_c, 4, 57, 99
6, 126960, Note_on_c, 4, 69, 99
6, 127152, Note_off_c, 4, 69, 64
6, 127152, Note_off_c, 4, 57, 64
6, 127200, Note_on_c, 4, 69, 99
6, 127200, Note_on_c, 4, 57, 99
6, 127392, Note_off_c, 4, 57, 64
6, 127392, Note_off_c, 4, 69, 64
6, 127440, Note_on_c, 4, 57, 99
6, 127440, Note_on_c, 4, 69, 99
6, 127632, Note_off_c, 4, 69, 64
6, 127632, Note_off_c, 4, 57, 64
6, 127680, Note_on_c, 4, 52, 127
6, 127680, Note_on_c, 4, 64, 127
6, 127872, Note_off_c, 4, 64, 64
6, 127872, Note_off_c, 4, 52, 64
6, 127920, Note_on_c, 4, 52, 99
6, 127920, Note_on_c, 4, 64, 99
6, 128112, Note_off_c, 4, 64, 64
6, 128112, Note_off_c, 4, 52, 64
6, 128160, Note_on_c, 4, 64, 99
6, 128160, Note_on_c, 4, 52, 99
6, 128352, Note_off_c, 4, 52, 64
6, 128352, Note_off_c, 4, 64, 64
6, 128400, Note_on_c, 4, 64, 99
6, 128400, Note_on_c, 4, 52, 99
6, 128592, Note_off_c, 4, 52, 64
6, 128592, Note_off_c, 4, 64, 64
6, 128640, Note_on_c, 4, 57, 127
6, 128640, Note_on_c, 4, 69, 127
6, 128832, Note_off_c, 4, 69, 64
6, 128832, Note_off_c, 4, 57, 64
6, 128880, Note_on_c, 4, 57, 99
6, 128880, Note_on_c, 4, 69, 99
6, 129072, Note_off_c, 4, 69, 64
6, 129072, Note_off_c, 4, 57, 64
6, 129120, Note_on_c, 4, 69, 99
6, 129120, Note_on_c, 4, 57, 99
6, 129312, Note_off_c, 4, 57, 64
6, 129312, Note_off_c, 4, 69, 64
6, 129360, Note_on_c, 4, 69, 99
6, 129360, Note_on_c, 4, 57, 99
6, 129552, Note_off_c, 4, 57, 64
6, 129552, Note_off_c, 4, 69, 64
6, 129600, Note_on_c, 4, 52, 127
6, 129600, Note_on_c, 4, 64, 127
6, 129792, Note_off_c, 4, 64, 64
6, 129792, Note_off_c, 4, 52, 64
6, 129840, Note_on_c, 4, 52, 99
6, 129840, Note_on_c, 4, 64, 99
6, 130032, Note_off_c, 4, 64, 64
6, 130032, Note_off_c, 4, 52, 64
6, 130080, Note_on_c, 4, 64, 99
6, 130080, Note_on_c, 4, 52, 99
6, 130272, Note_off_c, 4, 52, 64
6, 130272, Note_off_c, 4, 64, 64
6, 130320, Note_on_c, 4, 64, 99
6, 130320, Note_on_c, 4, 52, 99
6, 130512, Note_off_c, 4, 52, 64
6, 130512, Note_off_c, 4, 64, 64
6, 131520, Note_on_c, 4, 73, 99
6, 131640, Note_off_c, 4, 73, 64
6, 131760, Note_on_c, 4, 73, 99
6, 131880, Note_off_c, 4, 73, 64
6, 132000, Note_on_c, 4, 73, 127
6, 132120, Note_off_c, 4, 73, 64
6, 132240, Note_on_c, 4, 73, 99
6, 132360, Note_off_c, 4, 73, 64
6, 132480, Note_on_c, 4, 73, 99
6, 132600, Note_off_c, 4, 73, 64
6, 132720, Note_on_c, 4, 73, 99
6, 132840, Note_off_c, 4, 73, 64
6, 132960, Note_on_c, 4, 73, 99
6, 133080, Note_off_c, 4, 73, 64
6, 133200, Note_on_c, 4, 73, 99
6, 133320, Note_off_c, 4, 73, 64
6, 133440, Note_on_c, 4, 73, 99
6, 133560, Note_off_c, 4, 73, 64
6, 133680, Note_on_c, 4, 73, 99
6, 133800, Note_off_c, 4, 73, 64
6, 133920, Note_on_c, 4, 73, 127
6, 134040, Note_off_c, 4, 73, 64
6, 134160, Note_on_c, 4, 73, 99
6, 134280, Note_off_c, 4, 73, 64
6, 134400, Note_on_c, 4, 73, 99
6, 134520, Note_off_c, 4, 73, 64
6, 134640, Note_on_c, 4, 73, 99
6, 134760, Note_off_c, 4, 73, 64
6, 134880, Note_on_c, 4, 73, 99
6, 135000, Note_off_c, 4, 73, 64
6, 135120, Note_on_c, 4, 73, 99
6, 135240, Note_off_c, 4, 73, 64
6, 135360, Note_on_c, 4, 73, 99
6, 135480, Note_off_c, 4, 73, 64
6, 135600, Note_on_c, 4, 73, 99
6, 135720, Note_off_c, 4, 73, 64
6, 135840, Note_on_c, 4, 73, 127
6, 135960, Note_off_c, 4, 73, 64
6, 136080, Note_on_c, 4, 73, 99
6, 136200, Note_off_c, 4, 73, 64
6, 136320, Note_on_c, 4, 73, 99
6, 136440, Note_off_c, 4, 73, 64
6, 136560, Note_on_c, 4, 73, 99
6, 136680, Note_off_c, 4, 73, 64
6, 136800, Note_on_c, 4, 73, 127
6, 136920, Note_off_c, 4, 73, 64
6, 137040, Note_on_c, 4, 73, 99
6, 137160, Note_off_c, 4, 73, 64
6, 137280, Note_on_c, 4, 73, 99
6, 137400, Note_off_c, 4, 73, 64
6, 137520, Note_on_c, 4, 73, 99
6, 137640, Note_off_c, 4, 73, 64
6, 137760, Note_on_c, 4, 73, 127
6, 137880, Note_off_c, 4, 73, 64
6, 138000, Note_on_c, 4, 73, 99
6, 138120, Note_off_c, 4, 73, 64
6, 138240, Note_on_c, 4, 73, 99
6, 138360, Note_off_c, 4, 73, 64
6, 138480, Note_on_c, 4, 73, 99
6, 138600, Note_off_c, 4, 73, 64
6, 138720, Note_on_c, 4, 71, 127
6, 138840, Note_off_c, 4, 71, 64
6, 138960, Note_on_c, 4, 71, 99
6, 139080, Note_off_c, 4, 71, 64
6, 139500, Note_on_c, 4, 52, 81
6, 139500, Note_on_c, 4, 64, 81
6, 139614, Note_off_c, 4, 64, 64
6, 139614, Note_off_c, 4, 52, 64
6, 139620, Note_on_c, 4, 64, 81
6, 139620, Note_on_c, 4, 52, 81
6, 139734, Note_off_c, 4, 52, 64
6, 139734, Note_off_c, 4, 64, 64
6, 139740, Note_on_c, 4, 52, 108
6, 139740, Note_on_c, 4, 64, 108
6, 139854, Note_off_c, 4, 64, 64
6, 139854, Note_off_c, 4, 52, 64
6, 141900, Note_on_c, 4, 52, 81
6, 141900, Note_on_c, 4, 64, 81
6, 142014, Note_off_c, 4, 64, 64
6, 142014, Note_off_c, 4, 52, 64
6, 142020, Note_on_c, 4, 64, 81
6, 142020, Note_on_c, 4, 52, 81
6, 142134, Note_off_c, 4, 52, 64
6, 142134, Note_off_c, 4, 64, 64
6, 142140, Note_on_c, 4, 52, 108
6, 142140, Note_on_c, 4, 64, 108
6, 142254, Note_off_c, 4, 64, 64
6, 142254, Note_off_c, 4, 52, 64
6, 144000, Note_on_c, 4, 52, 54
6, 144000, Note_on_c, 4, 64, 54
6, 144120, Note_off_c, 4, 64, 64
6, 144120, Note_off_c, 4, 52, 64
6, 144480, Note_on_c, 4, 64, 94
6, 144480, Note_on_c, 4, 52, 94
6, 145080, Note_off_c, 4, 52, 64
6, 145080, Note_off_c, 4, 64, 64
6, 145440, Note_on_c, 4, 52, 94
6, 145440, Note_on_c, 4, 64, 94
6, 146040, Note_off_c, 4, 64, 64
6, 146040, Note_off_c, 4, 52, 64
6, 146400, Note_on_c, 4, 64, 94
6, 146400, Note_on_c, 4, 52, 94
6, 147000, Note_off_c, 4, 52, 64
6, 147000, Note_off_c, 4, 64, 64
6, 147360, Note_on_c, 4, 64, 94
6, 147360, Note_on_c, 4, 52, 94
6, 147960, Note_off_c, 4, 52, 64
6, 147960, Note_off_c, 4, 64, 64
6, 148320, Note_on_c, 4, 64, 94
6, 148320, Note_on_c, 4, 52, 94
6, 148920, Note_off_c, 4, 52, 64
6, 148920, Note_off_c, 4, 64, 64
6, 149280, Note_on_c, 4, 64, 94
6, 149280, Note_on_c, 4, 52, 94
6, 149880, Note_off_c, 4, 52, 64
6, 149880, Note_off_c, 4, 64, 64
6, 150240, Note_on_c, 4, 64, 94
6, 150240, Note_on_c, 4, 52, 94
6, 150720, Note_off_c, 4, 52, 64
6, 150720, Note_off_c, 4, 64, 64
6, 150720, Note_on_c, 4, 57, 114
6, 150720, Note_on_c, 4, 69, 114
6, 150840, Note_off_c, 4, 69, 64
6, 150840, Note_off_c, 4, 57, 64
6, 150960, Note_on_c, 4, 57, 114
6, 150960, Note_on_c, 4, 69, 114
6, 151074, Note_off_c, 4, 69, 64
6, 151074, Note_off_c, 4, 57, 64
6, 151080, Note_on_c, 4, 57, 114
6, 151080, Note_on_c, 4, 69, 114
6, 151194, Note_off_c, 4, 69, 64
6, 151194, Note_off_c, 4, 57, 64
6, 151200, Note_on_c, 4, 57, 114
6, 151200, Note_on_c, 4, 69, 114
6, 151320, Note_off_c, 4, 69, 64
6, 151320, Note_off_c, 4, 57, 64
6, 151680, Note_on_c, 4, 52, 54
6, 151680, Note_on_c, 4, 64, 54
6, 151800, Note_off_c, 4, 64, 64
6, 151800, Note_off_c, 4, 52, 64
6, 152160, Note_on_c, 4, 64, 94
6, 152160, Note_on_c, 4, 52, 94
6, 152760, Note_off_c, 4, 52, 64
6, 152760, Note_off_c, 4, 64, 64
6, 153120, Note_on_c, 4, 52, 94
6, 153120, Note_on_c, 4, 64, 94
6, 153720, Note_off_c, 4, 64, 64
6, 153720, Note_off_c, 4, 52, 64
6, 154080, Note_on_c, 4, 64, 94
6, 154080, Note_on_c, 4, 52, 94
6, 154680, Note_off_c, 4, 52, 64
6, 154680, Note_off_c, 4, 64, 64
6, 155040, Note_on_c, 4, 64, 94
6, 155040, Note_on_c, 4, 52, 94
6, 155640, Note_off_c, 4, 52, 64
6, 155640, Note_off_c, 4, 64, 64
6, 156000, Note_on_c, 4, 64, 94
6, 156000, Note_on_c, 4, 52, 94
6, 156600, Note_off_c, 4, 52, 64
6, 156600, Note_off_c, 4, 64, 64
6, 156960, Note_on_c, 4, 64, 94
6, 156960, Note_on_c, 4, 52, 94
6, 157560, Note_off_c, 4, 52, 64
6, 157560, Note_off_c, 4, 64, 64
6, 157920, Note_on_c, 4, 64, 94
6, 157920, Note_on_c, 4, 52, 94
6, 158400, Note_off_c, 4, 52, 64
6, 158400, Note_off_c, 4, 64, 64
6, 158400, Note_on_c, 4, 69, 114
6, 158400, Note_on_c, 4, 57, 114
6, 158520, Note_off_c, 4, 57, 64
6, 158520, Note_off_c, 4, 69, 64
6, 158640, Note_on_c, 4, 69, 114
6, 158640, Note_on_c, 4, 57, 114
6, 158754, Note_off_c, 4, 57, 64
6, 158754, Note_off_c, 4, 69, 64
6, 158760, Note_on_c, 4, 57, 114
6, 158760, Note_on_c, 4, 69, 114
6, 158874, Note_off_c, 4, 69, 64
6, 158874, Note_off_c, 4, 57, 64
6, 158880, Note_on_c, 4, 69, 114
6, 158880, Note_on_c, 4, 57, 114
6, 159000, Note_off_c, 4, 57, 64
6, 159000, Note_off_c, 4, 69, 64
6, 159360, Note_on_c, 4, 45, 54
6, 159360, Note_on_c, 4, 57, 54
6, 159480, Note_off_c, 4, 57, 64
6, 159480, Note_off_c, 4, 45, 64
6, 159840, Note_on_c, 4, 45, 95
6, 159840, Note_on_c, 4, 57, 95
6, 160440, Note_off_c, 4, 57, 64
6, 160440, Note_off_c, 4, 45, 64
6, 160800, Note_on_c, 4, 45, 95
6, 160800, Note_on_c, 4, 57, 95
6, 161400, Note_off_c, 4, 57, 64
6, 161400, Note_off_c, 4, 45, 64
6, 161760, Note_on_c, 4, 45, 95
6, 161760, Note_on_c, 4, 57, 95
6, 162360, Note_off_c, 4, 57, 64
6, 162360, Note_off_c, 4, 45, 64
6, 163200, Note_on_c, 4, 71, 54
6, 163320, Note_off_c, 4, 71, 64
6, 163680, Note_on_c, 4, 64, 35
6, 163680, Note_on_c, 4, 52, 35
6, 164160, Note_off_c, 4, 64, 64
6, 164160, Note_on_c, 4, 69, 35
6, 164280, Note_off_c, 4, 52, 64
6, 164280, Note_off_c, 4, 69, 64
6, 164640, Note_on_c, 4, 61, 35
6, 164640, Note_on_c, 4, 52, 35
6, 165120, Note_off_c, 4, 61, 64
6, 165120, Note_on_c, 4, 64, 35
6, 165240, Note_off_c, 4, 52, 64
6, 165240, Note_off_c, 4, 64, 64
6, 165600, Note_on_c, 4, 64, 35
6, 165600, Note_on_c, 4, 52, 35
6, 166080, Note_off_c, 4, 52, 64
6, 166080, Note_off_c, 4, 64, 64
6, 166080, Note_on_c, 4, 57, 114
6, 166080, Note_on_c, 4, 45, 114
6, 166200, Note_off_c, 4, 45, 64
6, 166200, Note_off_c, 4, 57, 64
6, 166320, Note_on_c, 4, 69, 114
6, 166320, Note_on_c, 4, 57, 114
6, 166434, Note_off_c, 4, 57, 64
6, 166434, Note_off_c, 4, 69, 64
6, 166440, Note_on_c, 4, 57, 114
6, 166440, Note_on_c, 4, 69, 114
6, 166554, Note_off_c, 4, 69, 64
6, 166554, Note_off_c, 4, 57, 64
6, 166560, Note_on_c, 4, 69, 114
6, 166560, Note_on_c, 4, 57, 114
6, 166680, Note_off_c, 4, 57, 64
6, 166680, Note_off_c, 4, 69, 64
6, 167040, Note_on_c, 4, 45, 54
6, 167040, Note_on_c, 4, 57, 54
6, 167160, Note_off_c, 4, 57, 64
6, 167160, Note_off_c, 4, 45, 64
6, 167520, Note_on_c, 4, 45, 95
6, 167520, Note_on_c, 4, 57, 95
6, 168120, Note_off_c, 4, 57, 64
6, 168120, Note_off_c, 4, 45, 64
6, 168480, Note_on_c, 4, 45, 95
6, 168480, Note_on_c, 4, 57, 95
6, 169080, Note_off_c, 4, 57, 64
6, 169080, Note_off_c, 4, 45, 64
6, 169440, Note_on_c, 4, 45, 95
6, 169440, Note_on_c, 4, 57, 95
6, 170040, Note_off_c, 4, 57, 64
6, 170040, Note_off_c, 4, 45, 64
6, 170880, Note_on_c, 4, 71, 54
6, 171000, Note_off_c, 4, 71, 64
6, 171360, Note_on_c, 4, 64, 35
6, 171360, Note_on_c, 4, 52, 35
6, 171840, Note_off_c, 4, 64, 64
6, 171840, Note_on_c, 4, 69, 35
6, 171960, Note_off_c, 4, 52, 64
6, 171960, Note_off_c, 4, 69, 64
6, 172320, Note_on_c, 4, 61, 35
6, 172320, Note_on_c, 4, 52, 35
6, 172800, Note_off_c, 4, 61, 64
6, 172800, Note_on_c, 4, 64, 35
6, 172920, Note_off_c, 4, 52, 64
6, 172920, Note_off_c, 4, 64, 64
6, 173280, Note_on_c, 4, 64, 35
6, 173280, Note_on_c, 4, 52, 35
6, 173760, Note_off_c, 4, 52, 64
6, 173760, Note_off_c, 4, 64, 64
6, 173760, Note_on_c, 4, 45, 114
6, 173760, Note_on_c, 4, 57, 114
6, 173880, Note_off_c, 4, 57, 64
6, 173880, Note_off_c, 4, 45, 64
6, 174060, Note_on_c, 4, 57, 114
6, 174060, Note_on_c, 4, 69, 114
6, 174174, Note_off_c, 4, 69, 64
6, 174174, Note_off_c, 4, 57, 64
6, 174180, Note_on_c, 4, 57, 114
6, 174180, Note_on_c, 4, 69, 114
6, 174294, Note_off_c, 4, 69, 64
6, 174294, Note_off_c, 4, 57, 64
6, 174300, Note_on_c, 4, 57, 114
6, 174300, Note_on_c, 4, 69, 114
6, 174420, Note_off_c, 4, 69, 64
6, 174420, Note_off_c, 4, 57, 64
6, 175140, Note_on_c, 4, 69, 114
6, 175140, Note_on_c, 4, 57, 114
6, 175254, Note_off_c, 4, 57, 64
6, 175254, Note_off_c, 4, 69, 64
6, 175260, Note_on_c, 4, 69, 114
6, 175260, Note_on_c, 4, 57, 114
6, 175374, Note_off_c, 4, 57, 64
6, 175374, Note_off_c, 4, 69, 64
6, 175380, Note_on_c, 4, 69, 114
6, 175380, Note_on_c, 4, 57, 114
6, 175494, Note_off_c, 4, 57, 64
6, 175494, Note_off_c, 4, 69, 64
6, 176220, Note_on_c, 4, 76, 114
6, 176220, Note_on_c, 4, 64, 114
6, 176334, Note_off_c, 4, 64, 64
6, 176334, Note_off_c, 4, 76, 64
6, 176340, Note_on_c, 4, 76, 114
6, 176340, Note_on_c, 4, 64, 114
6, 176454, Note_off_c, 4, 64, 64
6, 176454, Note_off_c, 4, 76, 64
6, 176460, Note_on_c, 4, 76, 114
6, 176460, Note_on_c, 4, 64, 114
6, 176580, Note_off_c, 4, 64, 64
6, 176580, Note_off_c, 4, 76, 64
6, 177300, Note_on_c, 4, 76, 114
6, 177300, Note_on_c, 4, 64, 114
6, 177414, Note_off_c, 4, 64, 64
6, 177414, Note_off_c, 4, 76, 64
6, 177420, Note_on_c, 4, 76, 114
6, 177420, Note_on_c, 4, 64, 114
6, 177534, Note_off_c, 4, 64, 64
6, 177534, Note_off_c, 4, 76, 64
6, 177540, Note_on_c, 4, 76, 114
6, 177540, Note_on_c, 4, 64, 114
6, 177660, Note_off_c, 4, 64, 64
6, 177660, Note_off_c, 4, 76, 64
6, 178080, Note_on_c, 4, 73, 108
6, 178080, Note_on_c, 4, 69, 108
6, 178656, Note_off_c, 4, 69, 64
6, 178656, Note_off_c, 4, 73, 64
6, 178800, Note_on_c, 4, 71, 108
6, 178800, Note_on_c, 4, 64, 108
6, 178920, Note_off_c, 4, 64, 64
6, 178920, Note_off_c, 4, 71, 64
6, 179040, Note_on_c, 4, 61, 108
6, 179040, Note_on_c, 4, 69, 108
6, 179160, Note_off_c, 4, 69, 64
6, 179160, Note_off_c, 4, 61, 64
6, 179280, Note_on_c, 4, 69, 108
6, 179280, Note_on_c, 4, 73, 108
6, 179400, Note_off_c, 4, 73, 64
6, 179400, Note_off_c, 4, 69, 64
6, 179520, Note_on_c, 4, 71, 108
6, 179520, Note_on_c, 4, 64, 108
6, 179640, Note_off_c, 4, 64, 64
6, 179640, Note_off_c, 4, 71, 64
6, 179760, Note_on_c, 4, 61, 108
6, 179760, Note_on_c, 4, 69, 108
6, 179880, Note_off_c, 4, 69, 64
6, 179880, Note_off_c, 4, 61, 64
6, 180000, Note_on_c, 4, 71, 108
6, 180000, Note_on_c, 4, 64, 108
6, 180120, Note_off_c, 4, 64, 64
6, 180120, Note_off_c, 4, 71, 64
6, 180240, Note_on_c, 4, 61, 72
6, 180240, Note_on_c, 4, 69, 72
6, 180360, Note_off_c, 4, 69, 64
6, 180360, Note_off_c, 4, 61, 64
6, 180480, Note_on_c, 4, 64, 54
6, 180480, Note_on_c, 4, 76, 54
6, 180600, Note_off_c, 4, 76, 64
6, 180600, Note_off_c, 4, 64, 64
6, 180720, Note_on_c, 4, 64, 54
6, 180720, Note_on_c, 4, 76, 54
6, 180840, Note_off_c, 4, 76, 64
6, 180840, Note_off_c, 4, 64, 64
6, 180960, Note_on_c, 4, 76, 54
6, 180960, Note_on_c, 4, 64, 54
6, 181080, Note_off_c, 4, 64, 64
6, 181080, Note_off_c, 4, 76, 64
6, 181200, Note_on_c, 4, 64, 54
6, 181200, Note_on_c, 4, 76, 54
6, 181320, Note_off_c, 4, 76, 64
6, 181320, Note_off_c, 4, 64, 64
6, 181440, Note_on_c, 4, 76, 54
6, 181440, Note_on_c, 4, 64, 54
6, 181560, Note_off_c, 4, 64, 64
6, 181560, Note_off_c, 4, 76, 64
6, 181680, Note_on_c, 4, 76, 54
6, 181680, Note_on_c, 4, 64, 54
6, 181800, Note_off_c, 4, 64, 64
6, 181800, Note_off_c, 4, 76, 64
6, 181920, Note_on_c, 4, 45, 114
6, 181920, Note_on_c, 4, 57, 114
6, 182040, Note_off_c, 4, 57, 64
6, 182040, Note_off_c, 4, 45, 64
6, 182220, Note_on_c, 4, 69, 114
6, 182220, Note_on_c, 4, 57, 114
6, 182334, Note_off_c, 4, 57, 64
6, 182334, Note_off_c, 4, 69, 64
6, 182340, Note_on_c, 4, 57, 114
6, 182340, Note_on_c, 4, 69, 114
6, 182454, Note_off_c, 4, 69, 64
6, 182454, Note_off_c, 4, 57, 64
6, 182460, Note_on_c, 4, 57, 114
6, 182460, Note_on_c, 4, 69, 114
6, 182580, Note_off_c, 4, 69, 64
6, 182580, Note_off_c, 4, 57, 64
6, 183300, Note_on_c, 4, 69, 114
6, 183300, Note_on_c, 4, 57, 114
6, 183414, Note_off_c, 4, 57, 64
6, 183414, Note_off_c, 4, 69, 64
6, 183420, Note_on_c, 4, 69, 114
6, 183420, Note_on_c, 4, 57, 114
6, 183534, Note_off_c, 4, 57, 64
6, 183534, Note_off_c, 4, 69, 64
6, 183540, Note_on_c, 4, 69, 114
6, 183540, Note_on_c, 4, 57, 114
6, 183660, Note_off_c, 4, 57, 64
6, 183660, Note_off_c, 4, 69, 64
6, 184380, Note_on_c, 4, 76, 114
6, 184380, Note_on_c, 4, 64, 114
6, 184494, Note_off_c, 4, 64, 64
6, 184494, Note_off_c, 4, 76, 64
6, 184500, Note_on_c, 4, 76, 114
6, 184500, Note_on_c, 4, 64, 114
6, 184614, Note_off_c, 4, 64, 64
6, 184614, Note_off_c, 4, 76, 64
6, 184620, Note_on_c, 4, 76, 114
6, 184620, Note_on_c, 4, 64, 114
6, 184740, Note_off_c, 4, 64, 64
6, 184740, Note_off_c, 4, 76, 64
6, 185460, Note_on_c, 4, 76, 114
6, 185460, Note_on_c, 4, 64, 114
6, 185574, Note_off_c, 4, 64, 64
6, 185574, Note_off_c, 4, 76, 64
6, 185580, Note_on_c, 4, 76, 114
6, 185580, Note_on_c, 4, 64, 114
6, 185694, Note_off_c, 4, 64, 64
6, 185694, Note_off_c, 4, 76, 64
6, 185700, Note_on_c, 4, 76, 114
6, 185700, Note_on_c, 4, 64, 114
6, 185820, Note_off_c, 4, 64, 64
6, 185820, Note_off_c, 4, 76, 64
6, 186240, Note_on_c, 4, 69, 80
6, 186240, Note_on_c, 4, 73, 80
6, 186432, Note_off_c, 4, 73, 64
6, 186432, Note_off_c, 4, 69, 64
6, 186720, Note_on_c, 4, 73, 80
6, 186720, Note_on_c, 4, 69, 80
6, 186912, Note_off_c, 4, 69, 64
6, 186912, Note_off_c, 4, 73, 64
6, 187200, Note_on_c, 4, 73, 80
6, 187200, Note_on_c, 4, 69, 80
6, 187392, Note_off_c, 4, 69, 64
6, 187392, Note_off_c, 4, 73, 64
6, 187680, Note_on_c, 4, 73, 80
6, 187680, Note_on_c, 4, 69, 80
6, 187872, Note_off_c, 4, 69, 64
6, 187872, Note_off_c, 4, 73, 64
6, 188160, Note_on_c, 4, 71, 64
6, 188160, Note_on_c, 4, 64, 64
6, 188352, Note_off_c, 4, 64, 64
6, 188352, Note_off_c, 4, 71, 64
6, 188640, Note_on_c, 4, 64, 61
6, 188640, Note_on_c, 4, 71, 61
6, 188832, Note_off_c, 4, 71, 64
6, 188832, Note_off_c, 4, 64, 64
6, 189120, Note_on_c, 4, 71, 57
6, 189120, Note_on_c, 4, 64, 57
6, 189312, Note_off_c, 4, 64, 64
6, 189312, Note_off_c, 4, 71, 64
6, 189600, Note_on_c, 4, 64, 53
6, 189600, Note_on_c, 4, 71, 53
6, 189792, Note_off_c, 4, 71, 64
6, 189792, Note_off_c, 4, 64, 64
6, 190080, Note_on_c, 4, 61, 60
6, 190080, Note_on_c, 4, 69, 60
6, 190272, Note_off_c, 4, 69, 64
6, 190272, Note_off_c, 4, 61, 64
6, 191040, Note_on_c, 4, 52, 58
6, 191040, Note_on_c, 4, 64, 58
6, 194146, Note_off_c, 4, 64, 64
6, 194146, Note_off_c, 4, 52, 64
6, 194880, Note_on_c, 4, 52, 58
6, 194880, Note_on_c, 4, 64, 58
6, 197026, Note_off_c, 4, 64, 64
6, 197026, Note_off_c, 4, 52, 64
6, 205440, Note_on_c, 4, 61, 75
6, 205440, Note_on_c, 4, 73, 75
6, 205584, Note_off_c, 4, 73, 64
6, 205584, Note_off_c, 4, 61, 64
6, 205920, Note_on_c, 4, 61, 75
6, 205920, Note_on_c, 4, 73, 75
6, 206064, Note_off_c, 4, 73, 64
6, 206064, Note_off_c, 4, 61, 64
6, 206400, Note_on_c, 4, 61, 75
6, 206400, Note_on_c, 4, 73, 75
6, 206544, Note_off_c, 4, 73, 64
6, 206544, Note_off_c, 4, 61, 64
6, 206880, Note_on_c, 4, 73, 75
6, 206880, Note_on_c, 4, 61, 75
6, 207024, Note_off_c, 4, 61, 64
6, 207024, Note_off_c, 4, 73, 64
6, 207360, Note_on_c, 4, 73, 75
6, 207360, Note_on_c, 4, 61, 75
6, 207504, Note_off_c, 4, 61, 64
6, 207504, Note_off_c, 4, 73, 64
6, 207840, Note_on_c, 4, 73, 75
6, 207840, Note_on_c, 4, 61, 75
6, 207984, Note_off_c, 4, 61, 64
6, 207984, Note_off_c, 4, 73, 64
6, 208320, Note_on_c, 4, 73, 75
6, 208320, Note_on_c, 4, 61, 75
6, 208464, Note_off_c, 4, 61, 64
6, 208464, Note_off_c, 4, 73, 64
6, 208800, Note_on_c, 4, 73, 75
6, 208800, Note_on_c, 4, 61, 75
6, 208944, Note_off_c, 4, 61, 64
6, 208944, Note_off_c, 4, 73, 64
6, 209280, Note_on_c, 4, 61, 75
6, 209280, Note_on_c, 4, 73, 75
6, 209424, Note_off_c, 4, 73, 64
6, 209424, Note_off_c, 4, 61, 64
6, 209760, Note_on_c, 4, 73, 75
6, 209760, Note_on_c, 4, 61, 75
6, 209904, Note_off_c, 4, 61, 64
6, 209904, Note_off_c, 4, 73, 64
6, 210240, Note_on_c, 4, 61, 75
6, 210240, Note_on_c, 4, 73, 75
6, 210384, Note_off_c, 4, 73, 64
6, 210384, Note_off_c, 4, 61, 64
6, 210720, Note_on_c, 4, 73, 75
6, 210720, Note_on_c, 4, 61, 75
6, 210864, Note_off_c, 4, 61, 64
6, 210864, Note_off_c, 4, 73, 64
6, 211200, Note_on_c, 4, 57, 75
6, 211200, Note_on_c, 4, 69, 75
6, 211344, Note_off_c, 4, 69, 64
6, 211344, Note_off_c, 4, 57, 64
6, 211680, Note_on_c, 4, 69, 75
6, 211680, Note_on_c, 4, 57, 75
6, 211824, Note_off_c, 4, 57, 64
6, 211824, Note_off_c, 4, 69, 64
6, 212160, Note_on_c, 4, 57, 75
6, 212160, Note_on_c, 4, 69, 75
6, 212304, Note_off_c, 4, 69, 64
6, 212304, Note_off_c, 4, 57, 64
6, 212640, Note_on_c, 4, 57, 75
6, 212640, Note_on_c, 4, 69, 75
6, 212784, Note_off_c, 4, 69, 64
6, 212784, Note_off_c, 4, 57, 64
6, 213120, Note_on_c, 4, 57, 75
6, 213120, Note_on_c, 4, 69, 75
6, 213264, Note_off_c, 4, 69, 64
6, 213264, Note_off_c, 4, 57, 64
6, 213600, Note_on_c, 4, 69, 75
6, 213600, Note_on_c, 4, 57, 75
6, 213744, Note_off_c, 4, 57, 64
6, 213744, Note_off_c, 4, 69, 64
6, 214080, Note_on_c, 4, 57, 75
6, 214080, Note_on_c, 4, 69, 75
6, 214224, Note_off_c, 4, 69, 64
6, 214224, Note_off_c, 4, 57, 64
6, 214560, Note_on_c, 4, 69, 75
6, 214560, Note_on_c, 4, 57, 75
6, 214704, Note_off_c, 4, 57, 64
6, 214704, Note_off_c, 4, 69, 64
6, 215040, Note_on_c, 4, 57, 75
6, 215040, Note_on_c, 4, 69, 75
6, 215184, Note_off_c, 4, 69, 64
6, 215184, Note_off_c, 4, 57, 64
6, 215520, Note_on_c, 4, 69, 113
6, 215520, Note_on_c, 4, 57, 113
6, 215664, Note_off_c, 4, 57, 64
6, 215664, Note_off_c, 4, 69, 64
6, 219360, Note_on_c, 4, 69, 113
6, 219360, Note_on_c, 4, 57, 113
6, 219504, Note_off_c, 4, 57, 64
6, 219504, Note_off_c, 4, 69, 64
6, 227040, Note_on_c, 4, 52, 80
6, 227040, Note_on_c, 4, 64, 80
6, 227424, Note_off_c, 4, 64, 64
6, 227424, Note_off_c, 4, 52, 64
6, 228960, Note_on_c, 4, 52, 80
6, 228960, Note_on_c, 4, 64, 80
6, 229344, Note_off_c, 4, 64, 64
6, 229344, Note_off_c, 4, 52, 64
6, 236640, Note_on_c, 4, 52, 80
6, 236640, Note_on_c, 4, 64, 80
6, 237024, Note_off_c, 4, 64, 64
6, 237024, Note_off_c, 4, 52, 64
6, 238560, Note_on_c, 4, 52, 80
6, 238560, Note_on_c, 4, 64, 80
6, 238944, Note_off_c, 4, 64, 64
6, 238944, Note_off_c, 4, 52, 64
6, 255360, Note_on_c, 4, 69, 99
6, 255360, Note_on_c, 4, 57, 99
6, 255552, Note_off_c, 4, 57, 64
6, 255552, Note_off_c, 4, 69, 64
6, 255600, Note_on_c, 4, 57, 99
6, 255600, Note_on_c, 4, 69, 99
6, 255792, Note_off_c, 4, 69, 64
6, 255792, Note_off_c, 4, 57, 64
6, 255840, Note_on_c, 4, 57, 99
6, 255840, Note_on_c, 4, 69, 99
6, 256032, Note_off_c, 4, 69, 64
6, 256032, Note_off_c, 4, 57, 64
6, 256080, Note_on_c, 4, 57, 99
6, 256080, Note_on_c, 4, 69, 99
6, 256272, Note_off_c, 4, 69, 64
6, 256272, Note_off_c, 4, 57, 64
6, 256320, Note_on_c, 4, 69, 99
6, 256320, Note_on_c, 4, 57, 99
6, 256512, Note_off_c, 4, 57, 64
6, 256512, Note_off_c, 4, 69, 64
6, 256560, Note_on_c, 4, 69, 99
6, 256560, Note_on_c, 4, 57, 99
6, 256752, Note_off_c, 4, 57, 64
6, 256752, Note_off_c, 4, 69, 64
6, 256800, Note_on_c, 4, 69, 99
6, 256800, Note_on_c, 4, 57, 99
6, 256992, Note_off_c, 4, 57, 64
6, 256992, Note_off_c, 4, 69, 64
6, 257040, Note_on_c, 4, 69, 99
6, 257040, Note_on_c, 4, 57, 99
6, 257232, Note_off_c, 4, 57, 64
6, 257232, Note_off_c, 4, 69, 64
6, 257280, Note_on_c, 4, 52, 127
6, 257280, Note_on_c, 4, 64, 127
6, 257472, Note_off_c, 4, 64, 64
6, 257472, Note_off_c, 4, 52, 64
6, 257520, Note_on_c, 4, 64, 99
6, 257520, Note_on_c, 4, 52, 99
6, 257712, Note_off_c, 4, 52, 64
6, 257712, Note_off_c, 4, 64, 64
6, 257760, Note_on_c, 4, 64, 99
6, 257760, Note_on_c, 4, 52, 99
6, 257952, Note_off_c, 4, 52, 64
6, 257952, Note_off_c, 4, 64, 64
6, 258000, Note_on_c, 4, 52, 99
6, 258000, Note_on_c, 4, 64, 99
6, 258192, Note_off_c, 4, 64, 64
6, 258192, Note_off_c, 4, 52, 64
6, 258240, Note_on_c, 4, 57, 127
6, 258240, Note_on_c, 4, 69, 127
6, 258432, Note_off_c, 4, 69, 64
6, 258432, Note_off_c, 4, 57, 64
6, 258480, Note_on_c, 4, 69, 99
6, 258480, Note_on_c, 4, 57, 99
6, 258672, Note_off_c, 4, 57, 64
6, 258672, Note_off_c, 4, 69, 64
6, 258720, Note_on_c, 4, 69, 99
6, 258720, Note_on_c, 4, 57, 99
6, 258912, Note_off_c, 4, 57, 64
6, 258912, Note_off_c, 4, 69, 64
6, 258960, Note_on_c, 4, 69, 99
6, 258960, Note_on_c, 4, 57, 99
6, 259152, Note_off_c, 4, 57, 64
6, 259152, Note_off_c, 4, 69, 64
6, 259200, Note_on_c, 4, 52, 127
6, 259200, Note_on_c, 4, 64, 127
6, 259392, Note_off_c, 4, 64, 64
6, 259392, Note_off_c, 4, 52, 64
6, 259440, Note_on_c, 4, 52, 99
6, 259440, Note_on_c, 4, 64, 99
6, 259632, Note_off_c, 4, 64, 64
6, 259632, Note_off_c, 4, 52, 64
6, 259680, Note_on_c, 4, 64, 99
6, 259680, Note_on_c, 4, 52, 99
6, 259872, Note_off_c, 4, 52, 64
6, 259872, Note_off_c, 4, 64, 64
6, 259920, Note_on_c, 4, 64, 99
6, 259920, Note_on_c, 4, 52, 99
6, 260112, Note_off_c, 4, 52, 64
6, 260112, Note_off_c, 4, 64, 64
6, 260160, Note_on_c, 4, 57, 127
6, 260160, Note_on_c, 4, 69, 127
6, 260352, Note_off_c, 4, 69, 64
6, 260352, Note_off_c, 4, 57, 64
6, 260400, Note_on_c, 4, 57, 99
6, 260400, Note_on_c, 4, 69, 99
6, 260592, Note_off_c, 4, 69, 64
6, 260592, Note_off_c, 4, 57, 64
6, 260640, Note_on_c, 4, 69, 99
6, 260640, Note_on_c, 4, 57, 99
6, 260832, Note_off_c, 4, 57, 64
6, 260832, Note_off_c, 4, 69, 64
6, 260880, Note_on_c, 4, 57, 99
6, 260880, Note_on_c, 4, 69, 99
6, 261072, Note_off_c, 4, 69, 64
6, 261072, Note_off_c, 4, 57, 64
6, 261120, Note_on_c, 4, 52, 127
6, 261120, Note_on_c, 4, 64, 127
6, 261312, Note_off_c, 4, 64, 64
6, 261312, Note_off_c, 4, 52, 64
6, 261360, Note_on_c, 4, 52, 99
6, 261360, Note_on_c, 4, 64, 99
6, 261552, Note_off_c, 4, 64, 64
6, 261552, Note_off_c, 4, 52, 64
6, 261600, Note_on_c, 4, 64, 99
6, 261600, Note_on_c, 4, 52, 99
6, 261792, Note_off_c, 4, 52, 64
6, 261792, Note_off_c, 4, 64, 64
6, 261840, Note_on_c, 4, 64, 99
6, 261840, Note_on_c, 4, 52, 99
6, 262032, Note_off_c, 4, 52, 64
6, 262032, Note_off_c, 4, 64, 64
6, 262080, Note_on_c, 4, 57, 127
6, 262080, Note_on_c, 4, 69, 127
6, 262272, Note_off_c, 4, 69, 64
6, 262272, Note_off_c, 4, 57, 64
6, 262320, Note_on_c, 4, 57, 99
6, 262320, Note_on_c, 4, 69, 99
6, 262512, Note_off_c, 4, 69, 64
6, 262512, Note_off_c, 4, 57, 64
6, 262560, Note_on_c, 4, 69, 99
6, 262560, Note_on_c, 4, 57, 99
6, 262752, Note_off_c, 4, 57, 64
6, 262752, Note_off_c, 4, 69, 64
6, 262800, Note_on_c, 4, 69, 99
6, 262800, Note_on_c, 4, 57, 99
6, 262992, Note_off_c, 4, 57, 64
6, 262992, Note_off_c, 4, 69, 64
6, 263040, Note_on_c, 4, 52, 127
6, 263040, Note_on_c, 4, 64, 127
6, 263232, Note_off_c, 4, 64, 64
6, 263232, Note_off_c, 4, 52, 64
6, 263280, Note_on_c, 4, 52, 99
6, 263280, Note_on_c, 4, 64, 99
6, 263472, Note_off_c, 4, 64, 64
6, 263472, Note_off_c, 4, 52, 64
6, 263520, Note_on_c, 4, 64, 99
6, 263520, Note_on_c, 4, 52, 99
6, 263712, Note_off_c, 4, 52, 64
6, 263712, Note_off_c, 4, 64, 64
6, 263760, Note_on_c, 4, 64, 99
6, 263760, Note_on_c, 4, 52, 99
6, 263952, Note_off_c, 4, 52, 64
6, 263952, Note_off_c, 4, 64, 64
6, 264960, Note_on_c, 4, 73, 99
6, 265080, Note_off_c, 4, 73, 64
6, 265200, Note_on_c, 4, 73, 99
6, 265320, Note_off_c, 4, 73, 64
6, 265440, Note_on_c, 4, 73, 127
6, 265560, Note_off_c, 4, 73, 64
6, 265680, Note_on_c, 4, 73, 99
6, 265800, Note_off_c, 4, 73, 64
6, 265920, Note_on_c, 4, 73, 99
6, 266040, Note_off_c, 4, 73, 64
6, 266160, Note_on_c, 4, 73, 99
6, 266280, Note_off_c, 4, 73, 64
6, 266400, Note_on_c, 4, 73, 99
6, 266520, Note_off_c, 4, 73, 64
6, 266640, Note_on_c, 4, 73, 99
6, 266760, Note_off_c, 4, 73, 64
6, 266880, Note_on_c, 4, 73, 99
6, 267000, Note_off_c, 4, 73, 64
6, 267120, Note_on_c, 4, 73, 99
6, 267240, Note_off_c, 4, 73, 64
6, 267360, Note_on_c, 4, 73, 127
6, 267480, Note_off_c, 4, 73, 64
6, 267600, Note_on_c, 4, 73, 99
6, 267720, Note_off_c, 4, 73, 64
6, 267840, Note_on_c, 4, 73, 99
6, 267960, Note_off_c, 4, 73, 64
6, 268080, Note_on_c, 4, 73, 99
6, 268200, Note_off_c, 4, 73, 64
6, 268320, Note_on_c, 4, 73, 99
6, 268440, Note_off_c, 4, 73, 64
6, 268560, Note_on_c, 4, 73, 99
6, 268680, Note_off_c, 4, 73, 64
6, 268800, Note_on_c, 4, 73, 99
6, 268920, Note_off_c, 4, 73, 64
6, 269040, Note_on_c, 4, 73, 99
6, 269160, Note_off_c, 4, 73, 64
6, 269280, Note_on_c, 4, 73, 127
6, 269400, Note_off_c, 4, 73, 64
6, 269520, Note_on_c, 4, 73, 99
6, 269640, Note_off_c, 4, 73, 64
6, 269760, Note_on_c, 4, 73, 99
6, 269880, Note_off_c, 4, 73, 64
6, 270000, Note_on_c, 4, 73, 99
6, 270120, Note_off_c, 4, 73, 64
6, 270240, Note_on_c, 4, 73, 127
6, 270360, Note_off_c, 4, 73, 64
6, 270480, Note_on_c, 4, 73, 99
6, 270600, Note_off_c, 4, 73, 64
6, 270720, Note_on_c, 4, 73, 99
6, 270840, Note_off_c, 4, 73, 64
6, 270960, Note_on_c, 4, 73, 99
6, 271080, Note_off_c, 4, 73, 64
6, 271200, Note_on_c, 4, 73, 127
6, 271320, Note_off_c, 4, 73, 64
6, 271440, Note_on_c, 4, 73, 99
6, 271560, Note_off_c, 4, 73, 64
6, 271680, Note_on_c, 4, 73, 99
6, 271800, Note_off_c, 4, 73, 64
6, 271920, Note_on_c, 4, 64, 99
6, 271920, Note_on_c, 4, 52, 99
6, 272040, Note_off_c, 4, 52, 64
6, 272040, Note_off_c, 4, 64, 64
6, 272160, Note_on_c, 4, 52, 99
6, 272160, Note_on_c, 4, 64, 127
6, 272280, Note_off_c, 4, 64, 64
6, 272280, Note_off_c, 4, 52, 64
6, 272400, Note_on_c, 4, 64, 99
6, 272400, Note_on_c, 4, 52, 99
6, 272520, Note_off_c, 4, 52, 64
6, 272520, Note_off_c, 4, 64, 64
6, 272940, Note_on_c, 4, 52, 81
6, 272940, Note_on_c, 4, 64, 81
6, 273054, Note_off_c, 4, 64, 64
6, 273054, Note_off_c, 4, 52, 64
6, 273060, Note_on_c, 4, 52, 81
6, 273060, Note_on_c, 4, 64, 81
6, 273174, Note_off_c, 4, 64, 64
6, 273174, Note_off_c, 4, 52, 64
6, 273180, Note_on_c, 4, 64, 108
6, 273180, Note_on_c, 4, 52, 108
6, 273294, Note_off_c, 4, 52, 64
6, 273294, Note_off_c, 4, 64, 64
6, 275040, Note_on_c, 4, 48, 120
6, 275040, Note_on_c, 4, 60, 120
6, 275160, Note_off_c, 4, 60, 64
6, 275160, Note_off_c, 4, 48, 64
6, 275340, Note_on_c, 4, 52, 81
6, 275340, Note_on_c, 4, 64, 81
6, 275454, Note_off_c, 4, 64, 64
6, 275454, Note_off_c, 4, 52, 64
6, 275460, Note_on_c, 4, 52, 81
6, 275460, Note_on_c, 4, 64, 81
6, 275574, Note_off_c, 4, 64, 64
6, 275574, Note_off_c, 4, 52, 64
6, 275580, Note_on_c, 4, 52, 108
6, 275580, Note_on_c, 4, 64, 108
6, 275694, Note_off_c, 4, 64, 64
6, 275694, Note_off_c, 4, 52, 64
6, 277440, Note_on_c, 4, 60, 54
6, 277440, Note_on_c, 4, 72, 54
6, 277560, Note_off_c, 4, 72, 64
6, 277560, Note_off_c, 4, 60, 64
6, 277920, Note_on_c, 4, 72, 114
6, 277920, Note_on_c, 4, 60, 114
6, 278520, Note_off_c, 4, 60, 64
6, 278520, Note_off_c, 4, 72, 64
6, 278880, Note_on_c, 4, 60, 114
6, 278880, Note_on_c, 4, 72, 114
6, 279480, Note_off_c, 4, 72, 64
6, 279480, Note_off_c, 4, 60, 64
6, 279840, Note_on_c, 4, 72, 114
6, 279840, Note_on_c, 4, 60, 114
6, 280440, Note_off_c, 4, 60, 64
6, 280440, Note_off_c, 4, 72, 64
6, 284160, Note_on_c, 4, 64, 54
6, 284160, Note_on_c, 4, 52, 54
6, 284280, Note_off_c, 4, 52, 64
6, 284280, Note_off_c, 4, 64, 64
6, 284640, Note_on_c, 4, 64, 114
6, 284640, Note_on_c, 4, 52, 114
6, 285240, Note_off_c, 4, 52, 64
6, 285240, Note_off_c, 4, 64, 64
6, 285600, Note_on_c, 4, 64, 114
6, 285600, Note_on_c, 4, 52, 114
6, 286200, Note_off_c, 4, 52, 64
6, 286200, Note_off_c, 4, 64, 64
6, 286560, Note_on_c, 4, 52, 114
6, 286560, Note_on_c, 4, 64, 114
6, 287040, Note_off_c, 4, 64, 64
6, 287040, Note_off_c, 4, 52, 64
6, 287040, Note_on_c, 4, 57, 54
6, 287160, Note_off_c, 4, 57, 64
6, 296640, Note_on_c, 4, 67, 54
6, 296760, Note_off_c, 4, 67, 64
6, 297120, Note_on_c, 4, 67, 101
6, 297720, Note_off_c, 4, 67, 64
6, 298080, Note_on_c, 4, 67, 101
6, 298680, Note_off_c, 4, 67, 64
6, 299040, Note_on_c, 4, 67, 101
6, 299640, Note_off_c, 4, 67, 64
6, 300000, Note_on_c, 4, 67, 101
6, 300600, Note_off_c, 4, 67, 64
6, 300960, Note_on_c, 4, 67, 101
6, 301560, Note_off_c, 4, 67, 64
6, 301920, Note_on_c, 4, 67, 101
6, 302520, Note_off_c, 4, 67, 64
6, 302880, Note_on_c, 4, 67, 101
6, 303360, Note_off_c, 4, 67, 64
6, 303360, Note_on_c, 4, 72, 114
6, 303480, Note_off_c, 4, 72, 64
6, 303600, Note_on_c, 4, 72, 114
6, 303714, Note_off_c, 4, 72, 64
6, 303720, Note_on_c, 4, 72, 114
6, 303834, Note_off_c, 4, 72, 64
6, 303840, Note_on_c, 4, 72, 114
6, 303960, Note_off_c, 4, 72, 64
6, 304320, Note_on_c, 4, 67, 41
6, 304440, Note_off_c, 4, 67, 64
6, 304800, Note_on_c, 4, 67, 101
6, 305400, Note_off_c, 4, 67, 64
6, 305760, Note_on_c, 4, 67, 101
6, 306360, Note_off_c, 4, 67, 64
6, 306720, Note_on_c, 4, 67, 101
6, 307320, Note_off_c, 4, 67, 64
6, 307680, Note_on_c, 4, 67, 101
6, 308280, Note_off_c, 4, 67, 64
6, 308640, Note_on_c, 4, 67, 101
6, 309240, Note_off_c, 4, 67, 64
6, 309600, Note_on_c, 4, 67, 101
6, 310200, Note_off_c, 4, 67, 64
6, 310560, Note_on_c, 4, 67, 101
6, 311040, Note_off_c, 4, 67, 64
6, 311040, Note_on_c, 4, 72, 114
6, 311160, Note_off_c, 4, 72, 64
6, 311280, Note_on_c, 4, 72, 114
6, 311394, Note_off_c, 4, 72, 64
6, 311400, Note_on_c, 4, 72, 114
6, 311514, Note_off_c, 4, 72, 64
6, 311520, Note_on_c, 4, 72, 114
6, 311640, Note_off_c, 4, 72, 64
6, 312000, Note_on_c, 4, 69, 54
6, 312120, Note_off_c, 4, 69, 64
6, 312480, Note_on_c, 4, 57, 101
6, 312480, Note_on_c, 4, 69, 101
6, 312960, Note_off_c, 4, 69, 64
6, 312960, Note_off_c, 4, 57, 64
6, 312960, Note_on_c, 4, 52, 25
6, 312960, Note_on_c, 4, 64, 25
6, 313080, Note_off_c, 4, 64, 64
6, 313080, Note_off_c, 4, 52, 64
6, 313440, Note_on_c, 4, 64, 96
6, 313440, Note_on_c, 4, 52, 96
6, 313920, Note_off_c, 4, 52, 64
6, 313920, Note_off_c, 4, 64, 64
6, 313920, Note_on_c, 4, 69, 41
6, 314040, Note_off_c, 4, 69, 64
6, 314400, Note_on_c, 4, 69, 101
6, 314400, Note_on_c, 4, 57, 101
6, 314880, Note_off_c, 4, 57, 64
6, 314880, Note_off_c, 4, 69, 64
6, 314880, Note_on_c, 4, 64, 25
6, 314880, Note_on_c, 4, 52, 25
6, 315000, Note_off_c, 4, 52, 64
6, 315000, Note_off_c, 4, 64, 64
6, 315360, Note_on_c, 4, 57, 120
6, 315360, Note_on_c, 4, 69, 120
6, 316032, Note_off_c, 4, 69, 64
6, 316032, Note_off_c, 4, 57, 64
6, 316320, Note_on_c, 4, 67, 120
6, 316320, Note_on_c, 4, 55, 120
6, 316992, Note_off_c, 4, 55, 64
6, 316992, Note_off_c, 4, 67, 64
6, 317280, Note_on_c, 4, 55, 120
6, 317280, Note_on_c, 4, 67, 120
6, 317952, Note_off_c, 4, 67, 64
6, 317952, Note_off_c, 4, 55, 64
6, 318240, Note_on_c, 4, 67, 120
6, 318240, Note_on_c, 4, 55, 120
6, 318720, Note_off_c, 4, 55, 64
6, 318720, Note_off_c, 4, 67, 64
6, 318720, Note_on_c, 4, 55, 80
6, 318720, Note_on_c, 4, 67, 80
6, 318912, Note_off_c, 4, 67, 64
6, 318912, Note_off_c, 4, 55, 64
6, 318960, Note_on_c, 4, 64, 120
6, 318960, Note_on_c, 4, 52, 120
6, 319020, Note_off_c, 4, 52, 64
6, 319020, Note_off_c, 4, 64, 64
6, 319080, Note_on_c, 4, 52, 120
6, 319080, Note_on_c, 4, 64, 120
6, 319140, Note_off_c, 4, 64, 64
6, 319140, Note_off_c, 4, 52, 64
6, 319200, Note_on_c, 4, 64, 120
6, 319200, Note_on_c, 4, 52, 120
6, 319320, Note_off_c, 4, 52, 64
6, 319320, Note_off_c, 4, 64, 64
6, 319680, Note_on_c, 4, 69, 54
6, 319800, Note_off_c, 4, 69, 64
6, 320160, Note_on_c, 4, 57, 101
6, 320160, Note_on_c, 4, 69, 101
6, 320640, Note_off_c, 4, 69, 64
6, 320640, Note_off_c, 4, 57, 64
6, 320640, Note_on_c, 4, 52, 25
6, 320640, Note_on_c, 4, 64, 25
6, 320760, Note_off_c, 4, 64, 64
6, 320760, Note_off_c, 4, 52, 64
6, 321120, Note_on_c, 4, 64, 96
6, 321120, Note_on_c, 4, 52, 96
6, 321600, Note_off_c, 4, 52, 64
6, 321600, Note_off_c, 4, 64, 64
6, 321600, Note_on_c, 4, 69, 41
6, 321720, Note_off_c, 4, 69, 64
6, 322080, Note_on_c, 4, 69, 101
6, 322080, Note_on_c, 4, 57, 101
6, 322560, Note_off_c, 4, 57, 64
6, 322560, Note_off_c, 4, 69, 64
6, 322560, Note_on_c, 4, 64, 25
6, 322560, Note_on_c, 4, 52, 25
6, 322680, Note_off_c, 4, 52, 64
6, 322680, Note_off_c, 4, 64, 64
6, 323040, Note_on_c, 4, 57, 120
6, 323040, Note_on_c, 4, 69, 120
6, 323712, Note_off_c, 4, 69, 64
6, 323712, Note_off_c, 4, 57, 64
6, 324000, Note_on_c, 4, 67, 120
6, 324000, Note_on_c, 4, 55, 120
6, 324672, Note_off_c, 4, 55, 64
6, 324672, Note_off_c, 4, 67, 64
6, 324960, Note_on_c, 4, 55, 120
6, 324960, Note_on_c, 4, 67, 120
6, 325632, Note_off_c, 4, 67, 64
6, 325632, Note_off_c, 4, 55, 64
6, 325920, Note_on_c, 4, 67, 120
6, 325920, Note_on_c, 4, 55, 120
6, 326400, Note_off_c, 4, 55, 64
6, 326400, Note_off_c, 4, 67, 64
6, 326640, Note_on_c, 4, 64, 120
6, 326640, Note_on_c, 4, 52, 120
6, 326700, Note_off_c, 4, 52, 64
6, 326700, Note_off_c, 4, 64, 64
6, 326760, Note_on_c, 4, 52, 120
6, 326760, Note_on_c, 4, 64, 120
6, 326820, Note_off_c, 4, 64, 64
6, 326820, Note_off_c, 4, 52, 64
6, 326880, Note_on_c, 4, 64, 120
6, 326880, Note_on_c, 4, 52, 120
6, 327000, Note_off_c, 4, 52, 64
6, 327000, Note_off_c, 4, 64, 64
6, 348960, Note_on_c, 4, 64, 80
6, 348960, Note_on_c, 4, 52, 80
6, 349632, Note_off_c, 4, 52, 64
6, 349632, Note_off_c, 4, 64, 64
6, 349920, Note_on_c, 4, 64, 80
6, 349920, Note_on_c, 4, 52, 80
6, 350592, Note_off_c, 4, 52, 64
6, 350592, Note_off_c, 4, 64, 64
6, 350880, Note_on_c, 4, 64, 80
6, 350880, Note_on_c, 4, 52, 80
6, 351552, Note_off_c, 4, 52, 64
6, 351552, Note_off_c, 4, 64, 64
6, 351840, Note_on_c, 4, 64, 80
6, 351840, Note_on_c, 4, 52, 80
6, 352512, Note_off_c, 4, 52, 64
6, 352512, Note_off_c, 4, 64, 64
6, 352800, Note_on_c, 4, 64, 80
6, 352800, Note_on_c, 4, 52, 80
6, 353472, Note_off_c, 4, 52, 64
6, 353472, Note_off_c, 4, 64, 64
6, 353760, Note_on_c, 4, 64, 80
6, 353760, Note_on_c, 4, 52, 80
6, 354432, Note_off_c, 4, 52, 64
6, 354432, Note_off_c, 4, 64, 64
6, 354720, Note_on_c, 4, 64, 80
6, 354720, Note_on_c, 4, 52, 80
6, 355392, Note_off_c, 4, 52, 64
6, 355392, Note_off_c, 4, 64, 64
6, 355680, Note_on_c, 4, 64, 80
6, 355680, Note_on_c, 4, 52, 80
6, 356352, Note_off_c, 4, 52, 64
6, 356352, Note_off_c, 4, 64, 64
6, 356640, Note_on_c, 4, 64, 80
6, 356640, Note_on_c, 4, 52, 80
6, 357312, Note_off_c, 4, 52, 64
6, 357312, Note_off_c, 4, 64, 64
6, 357600, Note_on_c, 4, 64, 80
6, 357600, Note_on_c, 4, 52, 80
6, 358272, Note_off_c, 4, 52, 64
6, 358272, Note_off_c, 4, 64, 64
6, 358560, Note_on_c, 4, 52, 80
6, 359232, Note_off_c, 4, 52, 64
6, 359520, Note_on_c, 4, 52, 80
6, 360192, Note_off_c, 4, 52, 64
6, 383340, Note_on_c, 4, 52, 81
6, 383340, Note_on_c, 4, 64, 81
6, 383454, Note_off_c, 4, 64, 64
6, 383454, Note_off_c, 4, 52, 64
6, 383460, Note_on_c, 4, 52, 81
6, 383460, Note_on_c, 4, 64, 81
6, 383574, Note_off_c, 4, 64, 64
6, 383574, Note_off_c, 4, 52, 64
6, 383580, Note_on_c, 4, 52, 108
6, 383580, Note_on_c, 4, 64, 108
6, 383694, Note_off_c, 4, 64, 64
6, 383694, Note_off_c, 4, 52, 64
6, 385740, Note_on_c, 4, 52, 81
6, 385740, Note_on_c, 4, 64, 81
6, 385854, Note_off_c, 4, 64, 64
6, 385854, Note_off_c, 4, 52, 64
6, 385860, Note_on_c, 4, 64, 81
6, 385860, Note_on_c, 4, 52, 81
6, 385974, Note_off_c, 4, 52, 64
6, 385974, Note_off_c, 4, 64, 64
6, 385980, Note_on_c, 4, 64, 108
6, 385980, Note_on_c, 4, 52, 108
6, 386094, Note_off_c, 4, 52, 64
6, 386094, Note_off_c, 4, 64, 64
6, 387840, Note_on_c, 4, 52, 41
6, 387840, Note_on_c, 4, 64, 41
6, 387960, Note_off_c, 4, 64, 64
6, 387960, Note_off_c, 4, 52, 64
6, 388320, Note_on_c, 4, 52, 101
6, 388320, Note_on_c, 4, 64, 101
6, 388920, Note_off_c, 4, 64, 64
6, 388920, Note_off_c, 4, 52, 64
6, 389280, Note_on_c, 4, 52, 101
6, 389280, Note_on_c, 4, 64, 101
6, 389880, Note_off_c, 4, 64, 64
6, 389880, Note_off_c, 4, 52, 64
6, 390240, Note_on_c, 4, 52, 101
6, 390240, Note_on_c, 4, 64, 101
6, 390840, Note_off_c, 4, 64, 64
6, 390840, Note_off_c, 4, 52, 64
6, 391200, Note_on_c, 4, 64, 101
6, 391200, Note_on_c, 4, 52, 101
6, 391800, Note_off_c, 4, 52, 64
6, 391800, Note_off_c, 4, 64, 64
6, 392160, Note_on_c, 4, 52, 101
6, 392160, Note_on_c, 4, 64, 101
6, 392760, Note_off_c, 4, 64, 64
6, 392760, Note_off_c, 4, 52, 64
6, 393120, Note_on_c, 4, 52, 101
6, 393120, Note_on_c, 4, 64, 101
6, 393720, Note_off_c, 4, 64, 64
6, 393720, Note_off_c, 4, 52, 64
6, 394080, Note_on_c, 4, 64, 114
6, 394080, Note_on_c, 4, 52, 114
6, 394560, Note_off_c, 4, 52, 64
6, 394560, Note_off_c, 4, 64, 64
6, 394560, Note_on_c, 4, 57, 114
6, 394560, Note_on_c, 4, 69, 114
6, 394680, Note_off_c, 4, 69, 64
6, 394680, Note_off_c, 4, 57, 64
6, 394800, Note_on_c, 4, 69, 114
6, 394800, Note_on_c, 4, 57, 114
6, 394914, Note_off_c, 4, 57, 64
6, 394914, Note_off_c, 4, 69, 64
6, 394920, Note_on_c, 4, 69, 114
6, 394920, Note_on_c, 4, 57, 114
6, 395034, Note_off_c, 4, 57, 64
6, 395034, Note_off_c, 4, 69, 64
6, 395040, Note_on_c, 4, 69, 114
6, 395040, Note_on_c, 4, 57, 114
6, 395160, Note_off_c, 4, 57, 64
6, 395160, Note_off_c, 4, 69, 64
6, 395520, Note_on_c, 4, 52, 41
6, 395520, Note_on_c, 4, 64, 41
6, 395640, Note_off_c, 4, 64, 64
6, 395640, Note_off_c, 4, 52, 64
6, 396000, Note_on_c, 4, 52, 101
6, 396000, Note_on_c, 4, 64, 101
6, 396600, Note_off_c, 4, 64, 64
6, 396600, Note_off_c, 4, 52, 64
6, 396960, Note_on_c, 4, 52, 101
6, 396960, Note_on_c, 4, 64, 101
6, 397560, Note_off_c, 4, 64, 64
6, 397560, Note_off_c, 4, 52, 64
6, 397920, Note_on_c, 4, 52, 101
6, 397920, Note_on_c, 4, 64, 101
6, 398520, Note_off_c, 4, 64, 64
6, 398520, Note_off_c, 4, 52, 64
6, 398880, Note_on_c, 4, 64, 101
6, 398880, Note_on_c, 4, 52, 101
6, 399480, Note_off_c, 4, 52, 64
6, 399480, Note_off_c, 4, 64, 64
6, 399840, Note_on_c, 4, 52, 101
6, 399840, Note_on_c, 4, 64, 101
6, 400440, Note_off_c, 4, 64, 64
6, 400440, Note_off_c, 4, 52, 64
6, 400800, Note_on_c, 4, 52, 101
6, 400800, Note_on_c, 4, 64, 101
6, 401400, Note_off_c, 4, 64, 64
6, 401400, Note_off_c, 4, 52, 64
6, 401760, Note_on_c, 4, 64, 114
6, 401760, Note_on_c, 4, 52, 114
6, 402240, Note_off_c, 4, 52, 64
6, 402240, Note_off_c, 4, 64, 64
6, 402240, Note_on_c, 4, 69, 114
6, 402240, Note_on_c, 4, 57, 114
6, 402360, Note_off_c, 4, 57, 64
6, 402360, Note_off_c, 4, 69, 64
6, 402540, Note_on_c, 4, 69, 114
6, 402540, Note_on_c, 4, 57, 114
6, 402654, Note_off_c, 4, 57, 64
6, 402654, Note_off_c, 4, 69, 64
6, 402660, Note_on_c, 4, 69, 114
6, 402660, Note_on_c, 4, 57, 114
6, 402774, Note_off_c, 4, 57, 64
6, 402774, Note_off_c, 4, 69, 64
6, 402780, Note_on_c, 4, 57, 114
6, 402780, Note_on_c, 4, 69, 114
6, 402900, Note_off_c, 4, 69, 64
6, 402900, Note_off_c, 4, 57, 64
6, 403620, Note_on_c, 4, 57, 114
6, 403620, Note_on_c, 4, 69, 114
6, 403734, Note_off_c, 4, 69, 64
6, 403734, Note_off_c, 4, 57, 64
6, 403740, Note_on_c, 4, 69, 114
6, 403740, Note_on_c, 4, 57, 114
6, 403854, Note_off_c, 4, 57, 64
6, 403854, Note_off_c, 4, 69, 64
6, 403860, Note_on_c, 4, 69, 114
6, 403860, Note_on_c, 4, 57, 114
6, 403974, Note_off_c, 4, 57, 64
6, 403974, Note_off_c, 4, 69, 64
6, 404700, Note_on_c, 4, 76, 114
6, 404700, Note_on_c, 4, 64, 114
6, 404814, Note_off_c, 4, 64, 64
6, 404814, Note_off_c, 4, 76, 64
6, 404820, Note_on_c, 4, 76, 114
6, 404820, Note_on_c, 4, 64, 114
6, 404934, Note_off_c, 4, 64, 64
6, 404934, Note_off_c, 4, 76, 64
6, 404940, Note_on_c, 4, 76, 114
6, 404940, Note_on_c, 4, 64, 114
6, 405060, Note_off_c, 4, 64, 64
6, 405060, Note_off_c, 4, 76, 64
6, 405780, Note_on_c, 4, 76, 114
6, 405780, Note_on_c, 4, 64, 114
6, 405894, Note_off_c, 4, 64, 64
6, 405894, Note_off_c, 4, 76, 64
6, 405900, Note_on_c, 4, 76, 114
6, 405900, Note_on_c, 4, 64, 114
6, 406014, Note_off_c, 4, 64, 64
6, 406014, Note_off_c, 4, 76, 64
6, 406020, Note_on_c, 4, 76, 114
6, 406020, Note_on_c, 4, 64, 114
6, 406140, Note_off_c, 4, 64, 64
6, 406140, Note_off_c, 4, 76, 64
6, 406560, Note_on_c, 4, 69, 108
6, 406560, Note_on_c, 4, 73, 108
6, 407136, Note_off_c, 4, 73, 64
6, 407136, Note_off_c, 4, 69, 64
6, 407280, Note_on_c, 4, 71, 108
6, 407280, Note_on_c, 4, 64, 108
6, 407400, Note_off_c, 4, 64, 64
6, 407400, Note_off_c, 4, 71, 64
6, 407520, Note_on_c, 4, 69, 108
6, 407520, Note_on_c, 4, 61, 108
6, 407640, Note_off_c, 4, 61, 64
6, 407640, Note_off_c, 4, 69, 64
6, 407760, Note_on_c, 4, 69, 108
6, 407760, Note_on_c, 4, 73, 108
6, 407880, Note_off_c, 4, 73, 64
6, 407880, Note_off_c, 4, 69, 64
6, 408000, Note_on_c, 4, 64, 108
6, 408000, Note_on_c, 4, 71, 108
6, 408120, Note_off_c, 4, 71, 64
6, 408120, Note_off_c, 4, 64, 64
6, 408240, Note_on_c, 4, 61, 108
6, 408240, Note_on_c, 4, 69, 108
6, 408360, Note_off_c, 4, 69, 64
6, 408360, Note_off_c, 4, 61, 64
6, 408480, Note_on_c, 4, 64, 108
6, 408480, Note_on_c, 4, 71, 108
6, 408600, Note_off_c, 4, 71, 64
6, 408600, Note_off_c, 4, 64, 64
6, 408720, Note_on_c, 4, 69, 72
6, 408720, Note_on_c, 4, 61, 72
6, 408840, Note_off_c, 4, 61, 64
6, 408840, Note_off_c, 4, 69, 64
6, 408960, Note_on_c, 4, 64, 98
6, 408960, Note_on_c, 4, 76, 98
6, 409080, Note_off_c, 4, 76, 64
6, 409080, Note_off_c, 4, 64, 64
6, 409200, Note_on_c, 4, 64, 98
6, 409200, Note_on_c, 4, 76, 98
6, 409320, Note_off_c, 4, 76, 64
6, 409320, Note_off_c, 4, 64, 64
6, 409440, Note_on_c, 4, 64, 98
6, 409440, Note_on_c, 4, 76, 98
6, 409560, Note_off_c, 4, 76, 64
6, 409560, Note_off_c, 4, 64, 64
6, 409680, Note_on_c, 4, 64, 98
6, 409680, Note_on_c, 4, 76, 98
6, 409800, Note_off_c, 4, 76, 64
6, 409800, Note_off_c, 4, 64, 64
6, 409920, Note_on_c, 4, 76, 98
6, 409920, Note_on_c, 4, 64, 98
6, 410040, Note_off_c, 4, 64, 64
6, 410040, Note_off_c, 4, 76, 64
6, 410160, Note_on_c, 4, 76, 98
6, 410160, Note_on_c, 4, 64, 98
6, 410280, Note_off_c, 4, 64, 64
6, 410280, Note_off_c, 4, 76, 64
6, 410400, Note_on_c, 4, 45, 114
6, 410400, Note_on_c, 4, 57, 114
6, 410520, Note_off_c, 4, 57, 64
6, 410520, Note_off_c, 4, 45, 64
6, 410700, Note_on_c, 4, 69, 114
6, 410700, Note_on_c, 4, 57, 114
6, 410814, Note_off_c, 4, 57, 64
6, 410814, Note_off_c, 4, 69, 64
6, 410820, Note_on_c, 4, 69, 114
6, 410820, Note_on_c, 4, 57, 114
6, 410934, Note_off_c, 4, 57, 64
6, 410934, Note_off_c, 4, 69, 64
6, 410940, Note_on_c, 4, 57, 114
6, 410940, Note_on_c, 4, 69, 114
6, 411060, Note_off_c, 4, 69, 64
6, 411060, Note_off_c, 4, 57, 64
6, 411780, Note_on_c, 4, 57, 114
6, 411780, Note_on_c, 4, 69, 114
6, 411894, Note_off_c, 4, 69, 64
6, 411894, Note_off_c, 4, 57, 64
6, 411900, Note_on_c, 4, 57, 114
6, 411900, Note_on_c, 4, 69, 114
6, 412014, Note_off_c, 4, 69, 64
6, 412014, Note_off_c, 4, 57, 64
6, 412020, Note_on_c, 4, 69, 114
6, 412020, Note_on_c, 4, 57, 114
6, 412140, Note_off_c, 4, 57, 64
6, 412140, Note_off_c, 4, 69, 64
6, 412860, Note_on_c, 4, 64, 114
6, 412860, Note_on_c, 4, 76, 114
6, 412974, Note_off_c, 4, 76, 64
6, 412974, Note_off_c, 4, 64, 64
6, 412980, Note_on_c, 4, 64, 114
6, 412980, Note_on_c, 4, 76, 114
6, 413094, Note_off_c, 4, 76, 64
6, 413094, Note_off_c, 4, 64, 64
6, 413100, Note_on_c, 4, 64, 114
6, 413100, Note_on_c, 4, 76, 114
6, 413220, Note_off_c, 4, 76, 64
6, 413220, Note_off_c, 4, 64, 64
6, 413940, Note_on_c, 4, 64, 114
6, 413940, Note_on_c, 4, 76, 114
6, 414054, Note_off_c, 4, 76, 64
6, 414054, Note_off_c, 4, 64, 64
6, 414060, Note_on_c, 4, 64, 114
6, 414060, Note_on_c, 4, 76, 114
6, 414174, Note_off_c, 4, 76, 64
6, 414174, Note_off_c, 4, 64, 64
6, 414180, Note_on_c, 4, 76, 114
6, 414180, Note_on_c, 4, 64, 114
6, 414300, Note_off_c, 4, 64, 64
6, 414300, Note_off_c, 4, 76, 64
6, 414720, Note_on_c, 4, 69, 80
6, 414720, Note_on_c, 4, 73, 80
6, 414912, Note_off_c, 4, 73, 64
6, 414912, Note_off_c, 4, 69, 64
6, 415200, Note_on_c, 4, 73, 80
6, 415200, Note_on_c, 4, 69, 80
6, 415392, Note_off_c, 4, 69, 64
6, 415392, Note_off_c, 4, 73, 64
6, 415680, Note_on_c, 4, 73, 80
6, 415680, Note_on_c, 4, 69, 80
6, 415872, Note_off_c, 4, 69, 64
6, 415872, Note_off_c, 4, 73, 64
6, 416160, Note_on_c, 4, 73, 80
6, 416160, Note_on_c, 4, 69, 80
6, 416352, Note_off_c, 4, 69, 64
6, 416352, Note_off_c, 4, 73, 64
6, 416640, Note_on_c, 4, 71, 64
6, 416640, Note_on_c, 4, 64, 64
6, 416832, Note_off_c, 4, 64, 64
6, 416832, Note_off_c, 4, 71, 64
6, 417120, Note_on_c, 4, 64, 61
6, 417120, Note_on_c, 4, 71, 61
6, 417312, Note_off_c, 4, 71, 64
6, 417312, Note_off_c, 4, 64, 64
6, 417600, Note_on_c, 4, 71, 57
6, 417600, Note_on_c, 4, 64, 57
6, 417792, Note_off_c, 4, 64, 64
6, 417792, Note_off_c, 4, 71, 64
6, 418080, Note_on_c, 4, 64, 53
6, 418080, Note_on_c, 4, 71, 53
6, 418272, Note_off_c, 4, 71, 64
6, 418272, Note_off_c, 4, 64, 64
6, 418560, Note_on_c, 4, 61, 60
6, 418560, Note_on_c, 4, 69, 60
6, 418752, Note_off_c, 4, 69, 64
6, 418752, Note_off_c, 4, 61, 64
6, 419520, Note_on_c, 4, 52, 58
6, 419520, Note_on_c, 4, 64, 58
6, 422626, Note_off_c, 4, 64, 64
6, 422626, Note_off_c, 4, 52, 64
6, 423360, Note_on_c, 4, 52, 58
6, 423360, Note_on_c, 4, 64, 58
6, 425088, Note_off_c, 4, 64, 64
6, 425088, Note_off_c, 4, 52, 64
6, 425280, Note_on_c, 4, 57, 58
6, 425280, Note_on_c, 4, 69, 58
6, 426180, Note_off_c, 4, 69, 64
6, 426180, Note_off_c, 4, 57, 64
6, 426240, Note_on_c, 4, 57, 58
6, 426240, Note_on_c, 4, 69, 58
6, 426466, Note_off_c, 4, 69, 64
6, 426466, Note_off_c, 4, 57, 64
6, 427200, Note_on_c, 4, 57, 58
6, 427200, Note_on_c, 4, 45, 58
6, 430306, Note_off_c, 4, 45, 64
6, 430306, Note_off_c, 4, 57, 64
6, 431040, Note_on_c, 4, 45, 58
6, 431040, Note_on_c, 4, 57, 58
6, 434146, Note_off_c, 4, 57, 64
6, 434146, Note_off_c, 4, 45, 64
6, 434400, Note_on_c, 4, 69, 75
6, 434400, Note_on_c, 4, 57, 75
6, 434544, Note_off_c, 4, 57, 64
6, 434544, Note_off_c, 4, 69, 64
6, 434880, Note_on_c, 4, 69, 75
6, 434880, Note_on_c, 4, 57, 75
6, 435024, Note_off_c, 4, 57, 64
6, 435024, Note_off_c, 4, 69, 64
6, 435360, Note_on_c, 4, 69, 75
6, 435360, Note_on_c, 4, 57, 75
6, 435504, Note_off_c, 4, 57, 64
6, 435504, Note_off_c, 4, 69, 64
6, 435840, Note_on_c, 4, 69, 75
6, 435840, Note_on_c, 4, 57, 75
6, 435984, Note_off_c, 4, 57, 64
6, 435984, Note_off_c, 4, 69, 64
6, 436320, Note_on_c, 4, 69, 75
6, 436320, Note_on_c, 4, 57, 75
6, 436464, Note_off_c, 4, 57, 64
6, 436464, Note_off_c, 4, 69, 64
6, 436800, Note_on_c, 4, 69, 75
6, 436800, Note_on_c, 4, 57, 75
6, 436944, Note_off_c, 4, 57, 64
6, 436944, Note_off_c, 4, 69, 64
6, 437280, Note_on_c, 4, 69, 75
6, 437280, Note_on_c, 4, 57, 75
6, 437424, Note_off_c, 4, 57, 64
6, 437424, Note_off_c, 4, 69, 64
6, 437760, Note_on_c, 4, 57, 75
6, 437760, Note_on_c, 4, 69, 75
6, 437904, Note_off_c, 4, 69, 64
6, 437904, Note_off_c, 4, 57, 64
6, 438240, Note_on_c, 4, 57, 75
6, 438240, Note_on_c, 4, 69, 75
6, 438384, Note_off_c, 4, 69, 64
6, 438384, Note_off_c, 4, 57, 64
6, 438720, Note_on_c, 4, 57, 75
6, 438720, Note_on_c, 4, 69, 75
6, 438864, Note_off_c, 4, 69, 64
6, 438864, Note_off_c, 4, 57, 64
6, 439200, Note_on_c, 4, 57, 75
6, 439200, Note_on_c, 4, 69, 75
6, 439344, Note_off_c, 4, 69, 64
6, 439344, Note_off_c, 4, 57, 64
6, 439680, Note_on_c, 4, 57, 75
6, 439680, Note_on_c, 4, 69, 75
6, 439824, Note_off_c, 4, 69, 64
6, 439824, Note_off_c, 4, 57, 64
6, 440160, Note_on_c, 4, 69, 75
6, 440160, Note_on_c, 4, 57, 75
6, 440304, Note_off_c, 4, 57, 64
6, 440304, Note_off_c, 4, 69, 64
6, 440640, Note_on_c, 4, 57, 75
6, 440640, Note_on_c, 4, 69, 75
6, 440784, Note_off_c, 4, 69, 64
6, 440784, Note_off_c, 4, 57, 64
6, 441120, Note_on_c, 4, 57, 75
6, 441120, Note_on_c, 4, 69, 75
6, 441264, Note_off_c, 4, 69, 64
6, 441264, Note_off_c, 4, 57, 64
6, 441600, Note_on_c, 4, 57, 75
6, 441600, Note_on_c, 4, 69, 75
6, 441744, Note_off_c, 4, 69, 64
6, 441744, Note_off_c, 4, 57, 64
6, 442080, Note_on_c, 4, 69, 75
6, 442080, Note_on_c, 4, 57, 75
6, 442224, Note_off_c, 4, 57, 64
6, 442224, Note_off_c, 4, 69, 64
6, 442560, Note_on_c, 4, 57, 75
6, 442560, Note_on_c, 4, 69, 75
6, 442704, Note_off_c, 4, 69, 64
6, 442704, Note_off_c, 4, 57, 64
6, 443040, Note_on_c, 4, 69, 75
6, 443040, Note_on_c, 4, 57, 75
6, 443184, Note_off_c, 4, 57, 64
6, 443184, Note_off_c, 4, 69, 64
6, 443520, Note_on_c, 4, 52, 75
6, 443520, Note_on_c, 4, 64, 75
6, 443664, Note_off_c, 4, 64, 64
6, 443664, Note_off_c, 4, 52, 64
6, 444000, Note_on_c, 4, 64, 127
6, 444000, Note_on_c, 4, 52, 127
6, 444144, Note_off_c, 4, 52, 64
6, 444144, Note_off_c, 4, 64, 64
6, 444960, Note_on_c, 4, 64, 75
6, 445104, Note_off_c, 4, 64, 64
6, 445440, Note_on_c, 4, 52, 75
6, 445584, Note_off_c, 4, 52, 64
6, 447840, Note_on_c, 4, 64, 127
6, 447840, Note_on_c, 4, 52, 127
6, 447984, Note_off_c, 4, 52, 64
6, 447984, Note_off_c, 4, 64, 64
6, 450720, Note_on_c, 4, 64, 75
6, 450864, Note_off_c, 4, 64, 64
6, 451200, Note_on_c, 4, 52, 75
6, 451344, Note_off_c, 4, 52, 64
6, 452640, Note_on_c, 4, 64, 75
6, 452784, Note_off_c, 4, 64, 64
6, 453120, Note_on_c, 4, 52, 75
6, 453264, Note_off_c, 4, 52, 64
6, 453600, Note_on_c, 4, 64, 60
6, 453600, Note_on_c, 4, 52, 60
6, 454980, Note_off_c, 4, 52, 64
6, 454980, Note_off_c, 4, 64, 64
6, 455040, Note_on_c, 4, 64, 67
6, 455040, Note_on_c, 4, 57, 67
6, 455112, Note_off_c, 4, 57, 64
6, 455112, Note_off_c, 4, 64, 64
6, 455400, Note_on_c, 4, 57, 67
6, 455400, Note_on_c, 4, 64, 67
6, 455520, Note_off_c, 4, 64, 64
6, 455520, Note_off_c, 4, 57, 64
6, 455520, Note_on_c, 4, 64, 99
6, 455520, Note_on_c, 4, 57, 99
6, 455970, Note_off_c, 4, 57, 64
6, 455970, Note_off_c, 4, 64, 64
6, 456000, Note_on_c, 4, 52, 67
6, 456000, Note_on_c, 4, 64, 67
6, 456072, Note_off_c, 4, 64, 64
6, 456072, Note_off_c, 4, 52, 64
6, 456360, Note_on_c, 4, 64, 67
6, 456360, Note_on_c, 4, 52, 67
6, 456480, Note_off_c, 4, 52, 64
6, 456480, Note_off_c, 4, 64, 64
6, 456480, Note_on_c, 4, 64, 99
6, 456480, Note_on_c, 4, 52, 99
6, 456930, Note_off_c, 4, 52, 64
6, 456930, Note_off_c, 4, 64, 64
6, 456960, Note_on_c, 4, 57, 67
6, 456960, Note_on_c, 4, 64, 67
6, 457032, Note_off_c, 4, 64, 64
6, 457032, Note_off_c, 4, 57, 64
6, 457320, Note_on_c, 4, 57, 67
6, 457320, Note_on_c, 4, 64, 67
6, 457440, Note_off_c, 4, 64, 64
6, 457440, Note_off_c, 4, 57, 64
6, 457440, Note_on_c, 4, 64, 99
6, 457440, Note_on_c, 4, 57, 99
6, 457890, Note_off_c, 4, 57, 64
6, 457890, Note_off_c, 4, 64, 64
6, 457920, Note_on_c, 4, 52, 67
6, 457920, Note_on_c, 4, 64, 67
6, 457992, Note_off_c, 4, 64, 64
6, 457992, Note_off_c, 4, 52, 64
6, 458280, Note_on_c, 4, 52, 67
6, 458280, Note_on_c, 4, 64, 67
6, 458400, Note_off_c, 4, 64, 64
6, 458400, Note_off_c, 4, 52, 64
6, 458400, Note_on_c, 4, 64, 99
6, 458400, Note_on_c, 4, 52, 99
6, 458850, Note_off_c, 4, 52, 64
6, 458850, Note_off_c, 4, 64, 64
6, 458880, Note_on_c, 4, 61, 56
6, 458880, Note_on_c, 4, 57, 56
6, 459072, Note_off_c, 4, 57, 64
6, 459072, Note_off_c, 4, 61, 64
6, 463680, Note_on_c, 4, 52, 40
6, 463680, Note_on_c, 4, 64, 40
6, 464064, Note_off_c, 4, 64, 64
6, 464160, Note_on_c, 4, 64, 40
6, 464544, Note_off_c, 4, 52, 64
6, 464544, Note_off_c, 4, 64, 64
6, 464640, Note_on_c, 4, 57, 67
6, 464640, Note_on_c, 4, 64, 67
6, 464712, Note_off_c, 4, 64, 64
6, 464712, Note_off_c, 4, 57, 64
6, 465000, Note_on_c, 4, 64, 67
6, 465000, Note_on_c, 4, 57, 67
6, 465120, Note_off_c, 4, 57, 64
6, 465120, Note_off_c, 4, 64, 64
6, 465120, Note_on_c, 4, 57, 99
6, 465120, Note_on_c, 4, 64, 99
6, 465570, Note_off_c, 4, 64, 64
6, 465570, Note_off_c, 4, 57, 64
6, 465600, Note_on_c, 4, 52, 67
6, 465600, Note_on_c, 4, 64, 67
6, 465672, Note_off_c, 4, 64, 64
6, 465672, Note_off_c, 4, 52, 64
6, 465960, Note_on_c, 4, 52, 67
6, 465960, Note_on_c, 4, 64, 67
6, 466080, Note_off_c, 4, 64, 64
6, 466080, Note_off_c, 4, 52, 64
6, 466080, Note_on_c, 4, 64, 99
6, 466080, Note_on_c, 4, 52, 99
6, 466530, Note_off_c, 4, 52, 64
6, 466530, Note_off_c, 4, 64, 64
6, 466560, Note_on_c, 4, 57, 67
6, 466560, Note_on_c, 4, 64, 67
6, 466632, Note_off_c, 4, 64, 64
6, 466632, Note_off_c, 4, 57, 64
6, 466920, Note_on_c, 4, 57, 67
6, 466920, Note_on_c, 4, 64, 67
6, 467040, Note_off_c, 4, 64, 64
6, 467040, Note_off_c, 4, 57, 64
6, 467040, Note_on_c, 4, 57, 99
6, 467040, Note_on_c, 4, 64, 99
6, 467490, Note_off_c, 4, 64, 64
6, 467490, Note_off_c, 4, 57, 64
6, 467520, Note_on_c, 4, 52, 67
6, 467520, Note_on_c, 4, 64, 67
6, 467592, Note_off_c, 4, 64, 64
6, 467592, Note_off_c, 4, 52, 64
6, 467880, Note_on_c, 4, 52, 67
6, 467880, Note_on_c, 4, 64, 67
6, 468000, Note_off_c, 4, 64, 64
6, 468000, Note_off_c, 4, 52, 64
6, 468000, Note_on_c, 4, 52, 99
6, 468000, Note_on_c, 4, 64, 99
6, 468450, Note_off_c, 4, 64, 64
6, 468450, Note_off_c, 4, 52, 64
6, 468480, Note_on_c, 4, 57, 56
6, 468480, Note_on_c, 4, 61, 56
6, 468672, Note_off_c, 4, 61, 64
6, 468672, Note_off_c, 4, 57, 64
6, 471360, Note_on_c, 4, 52, 40
6, 471360, Note_on_c, 4, 64, 40
6, 471744, Note_off_c, 4, 64, 64
6, 471840, Note_on_c, 4, 64, 40
6, 472224, Note_off_c, 4, 52, 64
6, 472224, Note_off_c, 4, 64, 64
6, 472320, Note_on_c, 4, 57, 40
6, 472320, Note_on_c, 4, 64, 40
6, 472704, Note_off_c, 4, 64, 64
6, 472800, Note_on_c, 4, 64, 40
6, 473184, Note_off_c, 4, 57, 64
6, 473184, Note_off_c, 4, 64, 64
6, 473280, Note_on_c, 4, 64, 40
6, 473280, Note_on_c, 4, 52, 40
6, 473664, Note_off_c, 4, 64, 64
6, 473760, Note_on_c, 4, 64, 40
6, 474144, Note_off_c, 4, 52, 64
6, 474144, Note_off_c, 4, 64, 64
6, 474240, Note_on_c, 4, 64, 40
6, 474240, Note_on_c, 4, 57, 40
6, 474624, Note_off_c, 4, 64, 64
6, 474720, Note_on_c, 4, 64, 40
6, 475104, Note_off_c, 4, 57, 64
6, 475104, Note_off_c, 4, 64, 64
6, 475200, Note_on_c, 4, 64, 40
6, 475200, Note_on_c, 4, 52, 40
6, 475584, Note_off_c, 4, 64, 64
6, 475680, Note_on_c, 4, 64, 40
6, 476064, Note_off_c, 4, 52, 64
6, 476064, Note_off_c, 4, 64, 64
6, 476160, Note_on_c, 4, 52, 40
6, 476160, Note_on_c, 4, 64, 40
6, 476544, Note_off_c, 4, 64, 64
6, 476544, Note_off_c, 4, 52, 64
6, 476640, Note_on_c, 4, 52, 40
6, 476640, Note_on_c, 4, 64, 40
6, 480960, Note_off_c, 4, 64, 64
6, 480960, Note_off_c, 4, 52, 64
6, 480960, Note_on_c, 4, 52, 46
6, 480960, Note_on_c, 4, 64, 46
6, 481920, Note_off_c, 4, 64, 64
6, 481920, Note_off_c, 4, 52, 64
6, 481920, Note_on_c, 4, 52, 53
6, 481920, Note_on_c, 4, 64, 53
6, 487620, Note_off_c, 4, 64, 64
6, 487620, Note_off_c, 4, 52, 64
6, 487680, Note_on_c, 4, 64, 120
6, 489408, Note_off_c, 4, 64, 64
6, 489600, Note_on_c, 4, 69, 127
6, 489600, Note_on_c, 4, 57, 127
6, 490368, Note_off_c, 4, 57, 64
6, 490368, Note_off_c, 4, 69, 64
6, 490560, Note_on_c, 4, 64, 120
6, 491328, Note_off_c, 4, 64, 64
6, 491520, Note_on_c, 4, 69, 127
6, 491520, Note_on_c, 4, 57, 127
6, 492288, Note_off_c, 4, 57, 64
6, 492288, Note_off_c, 4, 69, 64
6, 492480, Note_on_c, 4, 64, 120
6, 493248, Note_off_c, 4, 64, 64
6, 493440, Note_on_c, 4, 64, 127
6, 495168, Note_off_c, 4, 64, 64
6, 495360, Note_on_c, 4, 69, 127
6, 495360, Note_on_c, 4, 57, 127
6, 496128, Note_off_c, 4, 57, 64
6, 496128, Note_off_c, 4, 69, 64
6, 496320, Note_on_c, 4, 64, 120
6, 497088, Note_off_c, 4, 64, 64
6, 497280, Note_on_c, 4, 69, 127
6, 497280, Note_on_c, 4, 57, 127
6, 498048, Note_off_c, 4, 57, 64
6, 498048, Note_off_c, 4, 69, 64
6, 498240, Note_on_c, 4, 69, 127
6, 498240, Note_on_c, 4, 57, 127
6, 499008, Note_off_c, 4, 57, 64
6, 499008, Note_off_c, 4, 69, 64
6, 499200, Note_on_c, 4, 69, 127
6, 499200, Note_on_c, 4, 73, 127
6, 499320, Note_off_c, 4, 73, 64
6, 499320, Note_off_c, 4, 69, 64
6, 499440, Note_on_c, 4, 69, 127
6, 499440, Note_on_c, 4, 73, 127
6, 499560, Note_off_c, 4, 73, 64
6, 499560, Note_off_c, 4, 69, 64
6, 499680, Note_on_c, 4, 69, 127
6, 499680, Note_on_c, 4, 73, 127
6, 499800, Note_off_c, 4, 73, 64
6, 499800, Note_off_c, 4, 69, 64
6, 499920, Note_on_c, 4, 69, 127
6, 499920, Note_on_c, 4, 73, 127
6, 500040, Note_off_c, 4, 73, 64
6, 500040, Note_off_c, 4, 69, 64
6, 500040, Control_c, 4, 7, 110
6, 500160, Note_on_c, 4, 64, 127
6, 500160, Note_on_c, 4, 71, 127
6, 500280, Note_off_c, 4, 71, 64
6, 500280, Note_off_c, 4, 64, 64
6, 500400, Note_on_c, 4, 64, 127
6, 500400, Note_on_c, 4, 71, 127
6, 500520, Note_off_c, 4, 71, 64
6, 500520, Note_off_c, 4, 64, 64
6, 500640, Note_on_c, 4, 64, 127
6, 500640, Note_on_c, 4, 71, 127
6, 500760, Note_off_c, 4, 71, 64
6, 500760, Note_off_c, 4, 64, 64
6, 500880, Note_on_c, 4, 64, 127
6, 500880, Note_on_c, 4, 71, 127
6, 501000, Note_off_c, 4, 71, 64
6, 501000, Note_off_c, 4, 64, 64
6, 501120, Note_on_c, 4, 57, 127
6, 501120, Note_on_c, 4, 69, 127
6, 501216, Note_off_c, 4, 69, 64
6, 501216, Note_off_c, 4, 57, 64
6, 501360, Note_on_c, 4, 69, 82
6, 501360, Note_on_c, 4, 57, 82
6, 501456, Note_off_c, 4, 57, 64
6, 501456, Note_off_c, 4, 69, 64
6, 501600, Note_on_c, 4, 57, 112
6, 501600, Note_on_c, 4, 69, 112
6, 501696, Note_off_c, 4, 69, 64
6, 501696, Note_off_c, 4, 57, 64
6, 501840, Note_on_c, 4, 57, 82
6, 501840, Note_on_c, 4, 69, 82
6, 501936, Note_off_c, 4, 69, 64
6, 501936, Note_off_c, 4, 57, 64
6, 502080, Note_on_c, 4, 69, 82
6, 502080, Note_on_c, 4, 57, 82
6, 502176, Note_off_c, 4, 57, 64
6, 502176, Note_off_c, 4, 69, 64
6, 502320, Note_on_c, 4, 69, 82
6, 502320, Note_on_c, 4, 57, 82
6, 502416, Note_off_c, 4, 57, 64
6, 502416, Note_off_c, 4, 69, 64
6, 502560, Note_on_c, 4, 57, 82
6, 502560, Note_on_c, 4, 69, 82
6, 502656, Note_off_c, 4, 69, 64
6, 502656, Note_off_c, 4, 57, 64
6, 502800, Note_on_c, 4, 57, 82
6, 502800, Note_on_c, 4, 69, 82
6, 502896, Note_off_c, 4, 69, 64
6, 502896, Note_off_c, 4, 57, 64
6, 503040, Note_on_c, 4, 69, 82
6, 503040, Note_on_c, 4, 57, 82
6, 503136, Note_off_c, 4, 57, 64
6, 503136, Note_off_c, 4, 69, 64
6, 503280, Note_on_c, 4, 69, 82
6, 503280, Note_on_c, 4, 57, 82
6, 503376, Note_off_c, 4, 57, 64
6, 503376, Note_off_c, 4, 69, 64
6, 503520, Note_on_c, 4, 69, 112
6, 503520, Note_on_c, 4, 57, 112
6, 503616, Note_off_c, 4, 57, 64
6, 503616, Note_off_c, 4, 69, 64
6, 503760, Note_on_c, 4, 57, 82
6, 503760, Note_on_c, 4, 69, 82
6, 503856, Note_off_c, 4, 69, 64
6, 503856, Note_off_c, 4, 57, 64
6, 504000, Note_on_c, 4, 57, 82
6, 504000, Note_on_c, 4, 69, 82
6, 504096, Note_off_c, 4, 69, 64
6, 504096, Note_off_c, 4, 57, 64
6, 504240, Note_on_c, 4, 57, 82
6, 504240, Note_on_c, 4, 69, 82
6, 504336, Note_off_c, 4, 69, 64
6, 504336, Note_off_c, 4, 57, 64
6, 504480, Note_on_c, 4, 57, 82
6, 504480, Note_on_c, 4, 69, 82
6, 504576, Note_off_c, 4, 69, 64
6, 504576, Note_off_c, 4, 57, 64
6, 504720, Note_on_c, 4, 57, 82
6, 504720, Note_on_c, 4, 69, 82
6, 504816, Note_off_c, 4, 69, 64
6, 504816, Note_off_c, 4, 57, 64
6, 504960, Note_on_c, 4, 69, 82
6, 504960, Note_on_c, 4, 57, 82
6, 505056, Note_off_c, 4, 57, 64
6, 505056, Note_off_c, 4, 69, 64
6, 505200, Note_on_c, 4, 69, 82
6, 505200, Note_on_c, 4, 57, 82
6, 505296, Note_off_c, 4, 57, 64
6, 505296, Note_off_c, 4, 69, 64
6, 505440, Note_on_c, 4, 69, 112
6, 505440, Note_on_c, 4, 57, 112
6, 505536, Note_off_c, 4, 57, 64
6, 505536, Note_off_c, 4, 69, 64
6, 505680, Note_on_c, 4, 57, 82
6, 505680, Note_on_c, 4, 69, 82
6, 505776, Note_off_c, 4, 69, 64
6, 505776, Note_off_c, 4, 57, 64
6, 505920, Note_on_c, 4, 57, 82
6, 505920, Note_on_c, 4, 69, 82
6, 506016, Note_off_c, 4, 69, 64
6, 506016, Note_off_c, 4, 57, 64
6, 506160, Note_on_c, 4, 69, 82
6, 506160, Note_on_c, 4, 57, 82
6, 506256, Note_off_c, 4, 57, 64
6, 506256, Note_off_c, 4, 69, 64
6, 506400, Note_on_c, 4, 57, 112
6, 506400, Note_on_c, 4, 69, 112
6, 506496, Note_off_c, 4, 69, 64
6, 506496, Note_off_c, 4, 57, 64
6, 506640, Note_on_c, 4, 57, 82
6, 506640, Note_on_c, 4, 69, 82
6, 506736, Note_off_c, 4, 69, 64
6, 506736, Note_off_c, 4, 57, 64
6, 506880, Note_on_c, 4, 69, 82
6, 506880, Note_on_c, 4, 57, 82
6, 506976, Note_off_c, 4, 57, 64
6, 506976, Note_off_c, 4, 69, 64
6, 507120, Note_on_c, 4, 57, 82
6, 507120, Note_on_c, 4, 69, 82
6, 507216, Note_off_c, 4, 69, 64
6, 507216, Note_off_c, 4, 57, 64
6, 507360, Note_on_c, 4, 57, 112
6, 507360, Note_on_c, 4, 69, 112
6, 507456, Note_off_c, 4, 69, 64
6, 507456, Note_off_c, 4, 57, 64
6, 507600, Note_on_c, 4, 69, 82
6, 507600, Note_on_c, 4, 57, 82
6, 507696, Note_off_c, 4, 57, 64
6, 507696, Note_off_c, 4, 69, 64
6, 507840, Note_on_c, 4, 57, 82
6, 507840, Note_on_c, 4, 69, 82
6, 507936, Note_off_c, 4, 69, 64
6, 507936, Note_off_c, 4, 57, 64
6, 508080, Note_on_c, 4, 69, 82
6, 508080, Note_on_c, 4, 57, 82
6, 508176, Note_off_c, 4, 57, 64
6, 508176, Note_off_c, 4, 69, 64
6, 508320, Note_on_c, 4, 69, 82
6, 508320, Note_on_c, 4, 57, 82
6, 508416, Note_off_c, 4, 57, 64
6, 508416, Note_off_c, 4, 69, 64
6, 508560, Note_on_c, 4, 57, 82
6, 508560, Note_on_c, 4, 69, 82
6, 508656, Note_off_c, 4, 69, 64
6, 508656, Note_off_c, 4, 57, 64
6, 508800, Note_on_c, 4, 57, 82
6, 508800, Note_on_c, 4, 69, 82
6, 508896, Note_off_c, 4, 69, 64
6, 508896, Note_off_c, 4, 57, 64
6, 509100, Note_on_c, 4, 69, 81
6, 509100, Note_on_c, 4, 57, 81
6, 509214, Note_off_c, 4, 57, 64
6, 509214, Note_off_c, 4, 69, 64
6, 509220, Note_on_c, 4, 69, 81
6, 509220, Note_on_c, 4, 57, 81
6, 509334, Note_off_c, 4, 57, 64
6, 509334, Note_off_c, 4, 69, 64
6, 509340, Note_on_c, 4, 57, 108
6, 509340, Note_on_c, 4, 69, 108
6, 509454, Note_off_c, 4, 69, 64
6, 509454, Note_off_c, 4, 57, 64
6, 511380, Note_on_c, 4, 57, 81
6, 511380, Note_on_c, 4, 69, 81
6, 511494, Note_off_c, 4, 69, 64
6, 511494, Note_off_c, 4, 57, 64
6, 511500, Note_on_c, 4, 69, 81
6, 511500, Note_on_c, 4, 57, 81
6, 511614, Note_off_c, 4, 57, 64
6, 511614, Note_off_c, 4, 69, 64
6, 511620, Note_on_c, 4, 57, 108
6, 511620, Note_on_c, 4, 69, 108
6, 511734, Note_off_c, 4, 69, 64
6, 511734, Note_off_c, 4, 57, 64
6, 513660, Note_on_c, 4, 69, 81
6, 513660, Note_on_c, 4, 57, 81
6, 513774, Note_off_c, 4, 57, 64
6, 513774, Note_off_c, 4, 69, 64
6, 513780, Note_on_c, 4, 69, 81
6, 513780, Note_on_c, 4, 57, 81
6, 513894, Note_off_c, 4, 57, 64
6, 513894, Note_off_c, 4, 69, 64
6, 513900, Note_on_c, 4, 69, 108
6, 513900, Note_on_c, 4, 57, 108
6, 514014, Note_off_c, 4, 57, 64
6, 514014, Note_off_c, 4, 69, 64
6, 514740, Note_on_c, 4, 69, 81
6, 514740, Note_on_c, 4, 57, 81
6, 514854, Note_off_c, 4, 57, 64
6, 514854, Note_off_c, 4, 69, 64
6, 514860, Note_on_c, 4, 69, 81
6, 514860, Note_on_c, 4, 57, 81
6, 514974, Note_off_c, 4, 57, 64
6, 514974, Note_off_c, 4, 69, 64
6, 514980, Note_on_c, 4, 69, 108
6, 514980, Note_on_c, 4, 57, 108
6, 515094, Note_off_c, 4, 57, 64
6, 515094, Note_off_c, 4, 69, 64
6, 515820, Note_on_c, 4, 69, 81
6, 515820, Note_on_c, 4, 57, 81
6, 515934, Note_off_c, 4, 57, 64
6, 515934, Note_off_c, 4, 69, 64
6, 515940, Note_on_c, 4, 69, 81
6, 515940, Note_on_c, 4, 57, 81
6, 516054, Note_off_c, 4, 57, 64
6, 516054, Note_off_c, 4, 69, 64
6, 516060, Note_on_c, 4, 69, 108
6, 516060, Note_on_c, 4, 57, 108
6, 516174, Note_off_c, 4, 57, 64
6, 516174, Note_off_c, 4, 69, 64
6, 516900, Note_on_c, 4, 69, 81
6, 516900, Note_on_c, 4, 57, 81
6, 517014, Note_off_c, 4, 57, 64
6, 517014, Note_off_c, 4, 69, 64
6, 517020, Note_on_c, 4, 69, 81
6, 517020, Note_on_c, 4, 57, 81
6, 517134, Note_off_c, 4, 57, 64
6, 517134, Note_off_c, 4, 69, 64
6, 517140, Note_on_c, 4, 69, 108
6, 517140, Note_on_c, 4, 57, 108
6, 517254, Note_off_c, 4, 57, 64
6, 517254, Note_off_c, 4, 69, 64
6, 517680, Note_on_c, 4, 66, 81
6, 517680, Note_on_c, 4, 58, 81
6, 517776, Note_off_c, 4, 58, 64
6, 517776, Note_off_c, 4, 66, 64
6, 526440, Note_on_c, 4, 64, 46
6, 526440, Note_on_c, 4, 52, 46
6, 529546, Note_off_c, 4, 52, 64
6, 529546, Note_off_c, 4, 64, 64
6, 530280, Note_on_c, 4, 64, 46
6, 530280, Note_on_c, 4, 52, 46
6, 532008, Note_off_c, 4, 52, 64
6, 532008, Note_off_c, 4, 64, 64
6, 556200, Note_on_c, 4, 52, 60
6, 556200, Note_on_c, 4, 64, 60
6, 559848, Note_off_c, 4, 64, 64
6, 559848, Note_off_c, 4, 52, 64
6, 560040, Note_on_c, 4, 52, 60
6, 560040, Note_on_c, 4, 64, 60
6, 561768, Note_off_c, 4, 64, 64
6, 561768, Note_off_c, 4, 52, 64
6, 561960, Note_on_c, 4, 52, 60
6, 561960, Note_on_c, 4, 64, 60
6, 571368, Note_off_c, 4, 64, 64
6, 571368, Note_off_c, 4, 52, 64
6, 571560, Note_on_c, 4, 45, 114
6, 571560, Note_on_c, 4, 57, 114
6, 571680, Note_off_c, 4, 57, 64
6, 571680, Note_off_c, 4, 45, 64
6, 571860, Note_on_c, 4, 69, 114
6, 571860, Note_on_c, 4, 57, 114
6, 571974, Note_off_c, 4, 57, 64
6, 571974, Note_off_c, 4, 69, 64
6, 571980, Note_on_c, 4, 69, 114
6, 571980, Note_on_c, 4, 57, 114
6, 572094, Note_off_c, 4, 57, 64
6, 572094, Note_off_c, 4, 69, 64
6, 572100, Note_on_c, 4, 69, 114
6, 572100, Note_on_c, 4, 57, 114
6, 572220, Note_off_c, 4, 57, 64
6, 572220, Note_off_c, 4, 69, 64
6, 572940, Note_on_c, 4, 57, 114
6, 572940, Note_on_c, 4, 69, 114
6, 573054, Note_off_c, 4, 69, 64
6, 573054, Note_off_c, 4, 57, 64
6, 573060, Note_on_c, 4, 57, 114
6, 573060, Note_on_c, 4, 69, 114
6, 573174, Note_off_c, 4, 69, 64
6, 573174, Note_off_c, 4, 57, 64
6, 573180, Note_on_c, 4, 69, 114
6, 573180, Note_on_c, 4, 57, 114
6, 573294, Note_off_c, 4, 57, 64
6, 573294, Note_off_c, 4, 69, 64
6, 574020, Note_on_c, 4, 76, 114
6, 574020, Note_on_c, 4, 64, 114
6, 574134, Note_off_c, 4, 64, 64
6, 574134, Note_off_c, 4, 76, 64
6, 574140, Note_on_c, 4, 76, 114
6, 574140, Note_on_c, 4, 64, 114
6, 574254, Note_off_c, 4, 64, 64
6, 574254, Note_off_c, 4, 76, 64
6, 574260, Note_on_c, 4, 64, 114
6, 574260, Note_on_c, 4, 76, 114
6, 574380, Note_off_c, 4, 76, 64
6, 574380, Note_off_c, 4, 64, 64
6, 575100, Note_on_c, 4, 76, 114
6, 575100, Note_on_c, 4, 64, 114
6, 575214, Note_off_c, 4, 64, 64
6, 575214, Note_off_c, 4, 76, 64
6, 575220, Note_on_c, 4, 64, 114
6, 575220, Note_on_c, 4, 76, 114
6, 575334, Note_off_c, 4, 76, 64
6, 575334, Note_off_c, 4, 64, 64
6, 575340, Note_on_c, 4, 64, 114
6, 575340, Note_on_c, 4, 76, 114
6, 575460, Note_off_c, 4, 76, 64
6, 575460, Note_off_c, 4, 64, 64
6, 575880, Note_on_c, 4, 69, 108
6, 575880, Note_on_c, 4, 73, 108
6, 576456, Note_off_c, 4, 73, 64
6, 576456, Note_off_c, 4, 69, 64
6, 576600, Note_on_c, 4, 71, 108
6, 576600, Note_on_c, 4, 64, 108
6, 576720, Note_off_c, 4, 64, 64
6, 576720, Note_off_c, 4, 71, 64
6, 576840, Note_on_c, 4, 61, 108
6, 576840, Note_on_c, 4, 69, 108
6, 576960, Note_off_c, 4, 69, 64
6, 576960, Note_off_c, 4, 61, 64
6, 577080, Note_on_c, 4, 69, 108
6, 577080, Note_on_c, 4, 73, 108
6, 577200, Note_off_c, 4, 73, 64
6, 577200, Note_off_c, 4, 69, 64
6, 577320, Note_on_c, 4, 64, 108
6, 577320, Note_on_c, 4, 71, 108
6, 577440, Note_off_c, 4, 71, 64
6, 577440, Note_off_c, 4, 64, 64
6, 577560, Note_on_c, 4, 61, 108
6, 577560, Note_on_c, 4, 69, 108
6, 577680, Note_off_c, 4, 69, 64
6, 577680, Note_off_c, 4, 61, 64
6, 577800, Note_on_c, 4, 64, 108
6, 577800, Note_on_c, 4, 71, 108
6, 577920, Note_off_c, 4, 71, 64
6, 577920, Note_off_c, 4, 64, 64
6, 578040, Note_on_c, 4, 61, 72
6, 578040, Note_on_c, 4, 69, 72
6, 578160, Note_off_c, 4, 69, 64
6, 578160, Note_off_c, 4, 61, 64
6, 578280, Note_on_c, 4, 76, 54
6, 578280, Note_on_c, 4, 64, 54
6, 578400, Note_off_c, 4, 64, 64
6, 578400, Note_off_c, 4, 76, 64
6, 578520, Note_on_c, 4, 64, 54
6, 578520, Note_on_c, 4, 76, 54
6, 578640, Note_off_c, 4, 76, 64
6, 578640, Note_off_c, 4, 64, 64
6, 578760, Note_on_c, 4, 64, 54
6, 578760, Note_on_c, 4, 76, 54
6, 578880, Note_off_c, 4, 76, 64
6, 578880, Note_off_c, 4, 64, 64
6, 579000, Note_on_c, 4, 76, 54
6, 579000, Note_on_c, 4, 64, 54
6, 579120, Note_off_c, 4, 64, 64
6, 579120, Note_off_c, 4, 76, 64
6, 579240, Note_on_c, 4, 76, 54
6, 579240, Note_on_c, 4, 64, 54
6, 579360, Note_off_c, 4, 64, 64
6, 579360, Note_off_c, 4, 76, 64
6, 579480, Note_on_c, 4, 64, 54
6, 579480, Note_on_c, 4, 76, 54
6, 579600, Note_off_c, 4, 76, 64
6, 579600, Note_off_c, 4, 64, 64
6, 579720, Note_on_c, 4, 57, 114
6, 579720, Note_on_c, 4, 45, 114
6, 579840, Note_off_c, 4, 45, 64
6, 579840, Note_off_c, 4, 57, 64
6, 580020, Note_on_c, 4, 57, 114
6, 580020, Note_on_c, 4, 69, 114
6, 580134, Note_off_c, 4, 69, 64
6, 580134, Note_off_c, 4, 57, 64
6, 580140, Note_on_c, 4, 69, 114
6, 580140, Note_on_c, 4, 57, 114
6, 580254, Note_off_c, 4, 57, 64
6, 580254, Note_off_c, 4, 69, 64
6, 580260, Note_on_c, 4, 69, 114
6, 580260, Note_on_c, 4, 57, 114
6, 580380, Note_off_c, 4, 57, 64
6, 580380, Note_off_c, 4, 69, 64
6, 581100, Note_on_c, 4, 69, 114
6, 581100, Note_on_c, 4, 57, 114
6, 581214, Note_off_c, 4, 57, 64
6, 581214, Note_off_c, 4, 69, 64
6, 581220, Note_on_c, 4, 69, 114
6, 581220, Note_on_c, 4, 57, 114
6, 581334, Note_off_c, 4, 57, 64
6, 581334, Note_off_c, 4, 69, 64
6, 581340, Note_on_c, 4, 69, 114
6, 581340, Note_on_c, 4, 57, 114
6, 581454, Note_off_c, 4, 57, 64
6, 581454, Note_off_c, 4, 69, 64
6, 582180, Note_on_c, 4, 76, 114
6, 582180, Note_on_c, 4, 64, 114
6, 582294, Note_off_c, 4, 64, 64
6, 582294, Note_off_c, 4, 76, 64
6, 582300, Note_on_c, 4, 64, 114
6, 582300, Note_on_c, 4, 76, 114
6, 582414, Note_off_c, 4, 76, 64
6, 582414, Note_off_c, 4, 64, 64
6, 582420, Note_on_c, 4, 76, 114
6, 582420, Note_on_c, 4, 64, 114
6, 582540, Note_off_c, 4, 64, 64
6, 582540, Note_off_c, 4, 76, 64
6, 583260, Note_on_c, 4, 76, 114
6, 583260, Note_on_c, 4, 64, 114
6, 583374, Note_off_c, 4, 64, 64
6, 583374, Note_off_c, 4, 76, 64
6, 583380, Note_on_c, 4, 76, 114
6, 583380, Note_on_c, 4, 64, 114
6, 583494, Note_off_c, 4, 64, 64
6, 583494, Note_off_c, 4, 76, 64
6, 583500, Note_on_c, 4, 76, 114
6, 583500, Note_on_c, 4, 64, 114
6, 583620, Note_off_c, 4, 64, 64
6, 583620, Note_off_c, 4, 76, 64
6, 584040, Note_on_c, 4, 73, 80
6, 584040, Note_on_c, 4, 69, 80
6, 584232, Note_off_c, 4, 69, 64
6, 584232, Note_off_c, 4, 73, 64
6, 584520, Note_on_c, 4, 69, 80
6, 584520, Note_on_c, 4, 73, 80
6, 584712, Note_off_c, 4, 73, 64
6, 584712, Note_off_c, 4, 69, 64
6, 585000, Note_on_c, 4, 69, 80
6, 585000, Note_on_c, 4, 73, 80
6, 585192, Note_off_c, 4, 73, 64
6, 585192, Note_off_c, 4, 69, 64
6, 585480, Note_on_c, 4, 73, 80
6, 585480, Note_on_c, 4, 69, 80
6, 585672, Note_off_c, 4, 69, 64
6, 585672, Note_off_c, 4, 73, 64
6, 585960, Note_on_c, 4, 71, 64
6, 585960, Note_on_c, 4, 64, 64
6, 586152, Note_off_c, 4, 64, 64
6, 586152, Note_off_c, 4, 71, 64
6, 586440, Note_on_c, 4, 71, 61
6, 586440, Note_on_c, 4, 64, 61
6, 586632, Note_off_c, 4, 64, 64
6, 586632, Note_off_c, 4, 71, 64
6, 586920, Note_on_c, 4, 71, 57
6, 586920, Note_on_c, 4, 64, 57
6, 587112, Note_off_c, 4, 64, 64
6, 587112, Note_off_c, 4, 71, 64
6, 587400, Note_on_c, 4, 71, 53
6, 587400, Note_on_c, 4, 64, 53
6, 587592, Note_off_c, 4, 64, 64
6, 587592, Note_off_c, 4, 71, 64
6, 587880, Note_on_c, 4, 69, 64
6, 587880, Note_on_c, 4, 73, 64
6, 588072, Note_off_c, 4, 73, 64
6, 588072, Note_off_c, 4, 69, 64
6, 588360, Note_on_c, 4, 52, 61
6, 588360, Note_on_c, 4, 64, 61
6, 588552, Note_off_c, 4, 64, 64
6, 588552, Note_off_c, 4, 52, 64
6, 588840, Note_on_c, 4, 64, 57
6, 588840, Note_on_c, 4, 52, 57
6, 589032, Note_off_c, 4, 52, 64
6, 589032, Note_off_c, 4, 64, 64
6, 589320, Note_on_c, 4, 52, 53
6, 589320, Note_on_c, 4, 64, 53
6, 589512, Note_off_c, 4, 64, 64
6, 589512, Note_off_c, 4, 52, 64
6, 589800, Note_on_c, 4, 64, 64
6, 589800, Note_on_c, 4, 52, 64
6, 589992, Note_off_c, 4, 52, 64
6, 589992, Note_off_c, 4, 64, 64
6, 590280, Note_on_c, 4, 64, 61
6, 590280, Note_on_c, 4, 52, 61
6, 590472, Note_off_c, 4, 52, 64
6, 590472, Note_off_c, 4, 64, 64
6, 590760, Note_on_c, 4, 64, 57
6, 590760, Note_on_c, 4, 52, 57
6, 590952, Note_off_c, 4, 52, 64
6, 590952, Note_off_c, 4, 64, 64
6, 591240, Note_on_c, 4, 64, 53
6, 591240, Note_on_c, 4, 52, 53
6, 591432, Note_off_c, 4, 52, 64
6, 591432, Note_off_c, 4, 64, 64
6, 591720, Note_on_c, 4, 64, 64
6, 591720, Note_on_c, 4, 52, 64
6, 591912, Note_off_c, 4, 52, 64
6, 591912, Note_off_c, 4, 64, 64
6, 592200, Note_on_c, 4, 52, 61
6, 592200, Note_on_c, 4, 64, 61
6, 592392, Note_off_c, 4, 64, 64
6, 592392, Note_off_c, 4, 52, 64
6, 592680, Note_on_c, 4, 64, 57
6, 592680, Note_on_c, 4, 52, 57
6, 592872, Note_off_c, 4, 52, 64
6, 592872, Note_off_c, 4, 64, 64
6, 593160, Note_on_c, 4, 64, 53
6, 593160, Note_on_c, 4, 52, 53
6, 593352, Note_off_c, 4, 52, 64
6, 593352, Note_off_c, 4, 64, 64
6, 593640, Note_on_c, 4, 57, 90
6, 593640, Note_on_c, 4, 69, 90
6, 594408, Note_off_c, 4, 57, 64
6, 595368, Note_off_c, 4, 69, 64
6, 595560, Note_on_c, 4, 69, 127
6, 597288, Note_off_c, 4, 69, 64
6, 597480, Note_on_c, 4, 76, 120
6, 597480, Note_on_c, 4, 69, 120
6, 598248, Note_off_c, 4, 69, 64
6, 598248, Note_off_c, 4, 76, 64
6, 598440, Note_on_c, 4, 74, 120
6, 598440, Note_on_c, 4, 69, 120
6, 599208, Note_off_c, 4, 69, 64
6, 599208, Note_off_c, 4, 74, 64
6, 599400, Note_on_c, 4, 73, 120
6, 599400, Note_on_c, 4, 69, 120
6, 600168, Note_off_c, 4, 69, 64
6, 600168, Note_off_c, 4, 73, 64
6, 600360, Note_on_c, 4, 71, 120
6, 600360, Note_on_c, 4, 64, 120
6, 601128, Note_off_c, 4, 64, 64
6, 601128, Note_off_c, 4, 71, 64
6, 601320, Note_on_c, 4, 52, 64
6, 601320, Note_on_c, 4, 64, 64
6, 601512, Note_off_c, 4, 64, 64
6, 601512, Note_off_c, 4, 52, 64
6, 601800, Note_on_c, 4, 52, 61
6, 601800, Note_on_c, 4, 64, 61
6, 601992, Note_off_c, 4, 64, 64
6, 601992, Note_off_c, 4, 52, 64
6, 602280, Note_on_c, 4, 52, 57
6, 602280, Note_on_c, 4, 64, 57
6, 602472, Note_off_c, 4, 64, 64
6, 602472, Note_off_c, 4, 52, 64
6, 602760, Note_on_c, 4, 52, 53
6, 602760, Note_on_c, 4, 64, 53
6, 602952, Note_off_c, 4, 64, 64
6, 602952, Note_off_c, 4, 52, 64
6, 603240, Note_on_c, 4, 64, 64
6, 603240, Note_on_c, 4, 52, 64
6, 603432, Note_off_c, 4, 52, 64
6, 603432, Note_off_c, 4, 64, 64
6, 603720, Note_on_c, 4, 64, 61
6, 603720, Note_on_c, 4, 52, 61
6, 603912, Note_off_c, 4, 52, 64
6, 603912, Note_off_c, 4, 64, 64
6, 604200, Note_on_c, 4, 64, 57
6, 604200, Note_on_c, 4, 52, 57
6, 604392, Note_off_c, 4, 52, 64
6, 604392, Note_off_c, 4, 64, 64
6, 604680, Note_on_c, 4, 64, 53
6, 604680, Note_on_c, 4, 52, 53
6, 604872, Note_off_c, 4, 52, 64
6, 604872, Note_off_c, 4, 64, 64
6, 605160, Note_on_c, 4, 64, 64
6, 605160, Note_on_c, 4, 52, 64
6, 605352, Note_off_c, 4, 52, 64
6, 605352, Note_off_c, 4, 64, 64
6, 605640, Note_on_c, 4, 64, 61
6, 605640, Note_on_c, 4, 52, 61
6, 605832, Note_off_c, 4, 52, 64
6, 605832, Note_off_c, 4, 64, 64
6, 606120, Note_on_c, 4, 64, 57
6, 606120, Note_on_c, 4, 52, 57
6, 606312, Note_off_c, 4, 52, 64
6, 606312, Note_off_c, 4, 64, 64
6, 606600, Note_on_c, 4, 64, 53
6, 606600, Note_on_c, 4, 52, 53
6, 606792, Note_off_c, 4, 52, 64
6, 606792, Note_off_c, 4, 64, 64
6, 607080, Note_on_c, 4, 64, 63
6, 607080, Note_on_c, 4, 52, 63
6, 607272, Note_off_c, 4, 52, 64
6, 607272, Note_off_c, 4, 64, 64
6, 607560, Note_on_c, 4, 64, 77
6, 607560, Note_on_c, 4, 52, 77
6, 607752, Note_off_c, 4, 52, 64
6, 607752, Note_off_c, 4, 64, 64
6, 608040, Note_on_c, 4, 64, 92
6, 608040, Note_on_c, 4, 52, 92
6, 608232, Note_off_c, 4, 52, 64
6, 608232, Note_off_c, 4, 64, 64
6, 608520, Note_on_c, 4, 64, 106
6, 608520, Note_on_c, 4, 52, 106
6, 608712, Note_off_c, 4, 52, 64
6, 608712, Note_off_c, 4, 64, 64
6, 609000, Note_on_c, 4, 57, 90
6, 609000, Note_on_c, 4, 69, 90
6, 609768, Note_off_c, 4, 57, 64
6, 610728, Note_off_c, 4, 69, 64
6, 610920, Note_on_c, 4, 69, 127
6, 612648, Note_off_c, 4, 69, 64
6, 612840, Note_on_c, 4, 76, 120
6, 612840, Note_on_c, 4, 69, 120
6, 613608, Note_off_c, 4, 69, 64
6, 613608, Note_off_c, 4, 76, 64
6, 613800, Note_on_c, 4, 74, 120
6, 613800, Note_on_c, 4, 69, 120
6, 614568, Note_off_c, 4, 69, 64
6, 614568, Note_off_c, 4, 74, 64
6, 614760, Note_on_c, 4, 73, 120
6, 614760, Note_on_c, 4, 69, 120
6, 615528, Note_off_c, 4, 69, 64
6, 615528, Note_off_c, 4, 73, 64
6, 615720, Note_on_c, 4, 71, 120
6, 615720, Note_on_c, 4, 64, 120
6, 616488, Note_off_c, 4, 64, 64
6, 616488, Note_off_c, 4, 71, 64
6, 616680, Note_on_c, 4, 73, 120
6, 616680, Note_on_c, 4, 61, 120
6, 616680, Note_on_c, 4, 69, 120
6, 616800, Note_off_c, 4, 69, 64
6, 616800, Note_off_c, 4, 61, 64
6, 616800, Note_off_c, 4, 73, 64
6, 617640, Note_on_c, 4, 76, 127
6, 618120, Note_on_c, 4, 74, 127
6, 618120, Note_on_c, 4, 71, 127
6, 618576, Note_off_c, 4, 71, 64
6, 618576, Note_off_c, 4, 74, 64
6, 618600, Note_on_c, 4, 69, 127
6, 618600, Note_on_c, 4, 73, 127
6, 619056, Note_off_c, 4, 73, 64
6, 619056, Note_off_c, 4, 69, 64
6, 619080, Note_on_c, 4, 71, 127
6, 619080, Note_on_c, 4, 64, 127
6, 619536, Note_off_c, 4, 64, 64
6, 619536, Note_off_c, 4, 71, 64
6, 619560, Note_on_c, 4, 69, 127
6, 619560, Note_on_c, 4, 61, 127
6, 619944, Note_off_c, 4, 76, 64
6, 620016, Note_off_c, 4, 69, 64
6, 620016, Note_off_c, 4, 61, 64
6, 620040, Note_on_c, 4, 76, 64
6, 620040, Note_on_c, 4, 64, 127
6, 620040, Note_on_c, 4, 71, 127
6, 620424, Note_off_c, 4, 76, 64
6, 620496, Note_off_c, 4, 64, 64
6, 620496, Note_off_c, 4, 71, 64
6, 620520, Note_on_c, 4, 73, 120
6, 620520, Note_on_c, 4, 61, 120
6, 620520, Note_on_c, 4, 69, 120
6, 620640, Note_off_c, 4, 69, 64
6, 620640, Note_off_c, 4, 61, 64
6, 620640, Note_off_c, 4, 73, 64
6, 621480, Note_on_c, 4, 76, 127
6, 621960, Note_on_c, 4, 74, 127
6, 621960, Note_on_c, 4, 71, 127
6, 622416, Note_off_c, 4, 71, 64
6, 622416, Note_off_c, 4, 74, 64
6, 622440, Note_on_c, 4, 69, 127
6, 622440, Note_on_c, 4, 73, 127
6, 622896, Note_off_c, 4, 73, 64
6, 622896, Note_off_c, 4, 69, 64
6, 622920, Note_on_c, 4, 71, 127
6, 622920, Note_on_c, 4, 64, 127
6, 623376, Note_off_c, 4, 64, 64
6, 623376, Note_off_c, 4, 71, 64
6, 623400, Note_on_c, 4, 69, 127
6, 623400, Note_on_c, 4, 61, 127
6, 623784, Note_off_c, 4, 76, 64
6, 623856, Note_off_c, 4, 69, 64
6, 623856, Note_off_c, 4, 61, 64
6, 623880, Note_on_c, 4, 76, 64
6, 623880, Note_on_c, 4, 64, 127
6, 623880, Note_on_c, 4, 71, 127
6, 624264, Note_off_c, 4, 76, 64
6, 624336, Note_off_c, 4, 64, 64
6, 624336, Note_off_c, 4, 71, 64
6, 624360, Note_on_c, 4, 71, 79
6, 624360, Note_on_c, 4, 64, 79
6, 624480, Note_off_c, 4, 64, 64
6, 624480, Note_off_c, 4, 71, 64
6, 624600, Note_on_c, 4, 71, 79
6, 624600, Note_on_c, 4, 64, 79
6, 624720, Note_off_c, 4, 64, 64
6, 624720, Note_off_c, 4, 71, 64
6, 624840, Note_on_c, 4, 71, 79
6, 624840, Note_on_c, 4, 64, 79
6, 624960, Note_off_c, 4, 64, 64
6, 624960, Note_off_c, 4, 71, 64
6, 625080, Note_on_c, 4, 64, 79
6, 625080, Note_on_c, 4, 71, 79
6, 625200, Note_off_c, 4, 71, 64
6, 625200, Note_off_c, 4, 64, 64
6, 625320, Note_on_c, 4, 71, 79
6, 625320, Note_on_c, 4, 64, 79
6, 625440, Note_off_c, 4, 64, 64
6, 625440, Note_off_c, 4, 71, 64
6, 625560, Note_on_c, 4, 71, 79
6, 625560, Note_on_c, 4, 64, 79
6, 625680, Note_off_c, 4, 64, 64
6, 625680, Note_off_c, 4, 71, 64
6, 625800, Note_on_c, 4, 71, 79
6, 625800, Note_on_c, 4, 64, 79
6, 625920, Note_off_c, 4, 64, 64
6, 625920, Note_off_c, 4, 71, 64
6, 626040, Note_on_c, 4, 64, 79
6, 626040, Note_on_c, 4, 71, 79
6, 626160, Note_off_c, 4, 71, 64
6, 626160, Note_off_c, 4, 64, 64
6, 626280, Note_on_c, 4, 71, 79
6, 626280, Note_on_c, 4, 64, 79
6, 626400, Note_off_c, 4, 64, 64
6, 626400, Note_off_c, 4, 71, 64
6, 626520, Note_on_c, 4, 71, 79
6, 626520, Note_on_c, 4, 64, 79
6, 626640, Note_off_c, 4, 64, 64
6, 626640, Note_off_c, 4, 71, 64
6, 626760, Note_on_c, 4, 71, 79
6, 626760, Note_on_c, 4, 64, 79
6, 626880, Note_off_c, 4, 64, 64
6, 626880, Note_off_c, 4, 71, 64
6, 627000, Note_on_c, 4, 64, 79
6, 627000, Note_on_c, 4, 71, 79
6, 627120, Note_off_c, 4, 71, 64
6, 627120, Note_off_c, 4, 64, 64
6, 627240, Note_on_c, 4, 71, 79
6, 627240, Note_on_c, 4, 64, 79
6, 627360, Note_off_c, 4, 64, 64
6, 627360, Note_off_c, 4, 71, 64
6, 627480, Note_on_c, 4, 71, 79
6, 627480, Note_on_c, 4, 64, 79
6, 627600, Note_off_c, 4, 64, 64
6, 627600, Note_off_c, 4, 71, 64
6, 627720, Note_on_c, 4, 64, 79
6, 627720, Note_on_c, 4, 71, 79
6, 627840, Note_off_c, 4, 71, 64
6, 627840, Note_off_c, 4, 64, 64
6, 627960, Note_on_c, 4, 64, 79
6, 627960, Note_on_c, 4, 71, 79
6, 628080, Note_off_c, 4, 71, 64
6, 628080, Note_off_c, 4, 64, 64
6, 628200, Note_on_c, 4, 61, 99
6, 628200, Note_on_c, 4, 69, 99
6, 628392, Note_off_c, 4, 69, 64
6, 628392, Note_off_c, 4, 61, 64
6, 629040, Note_on_c, 4, 69, 80
6, 629040, Note_on_c, 4, 61, 80
6, 629136, Note_off_c, 4, 61, 64
6, 629136, Note_off_c, 4, 69, 64
6, 629160, Note_on_c, 4, 61, 80
6, 629160, Note_on_c, 4, 69, 80
6, 629256, Note_off_c, 4, 69, 64
6, 629256, Note_off_c, 4, 61, 64
6, 629280, Note_on_c, 4, 61, 99
6, 629280, Note_on_c, 4, 69, 99
6, 629472, Note_off_c, 4, 69, 64
6, 629472, Note_off_c, 4, 61, 64
6, 630240, Note_on_c, 4, 69, 80
6, 630240, Note_on_c, 4, 61, 80
6, 630336, Note_off_c, 4, 61, 64
6, 630336, Note_off_c, 4, 69, 64
6, 630360, Note_on_c, 4, 61, 80
6, 630360, Note_on_c, 4, 69, 80
6, 630456, Note_off_c, 4, 69, 64
6, 630456, Note_off_c, 4, 61, 64
6, 630480, Note_on_c, 4, 61, 127
6, 630480, Note_on_c, 4, 69, 127
6, 630672, Note_off_c, 4, 69, 64
6, 630672, Note_off_c, 4, 61, 64
6, 630672, End_track
7, 0, Start_track
7, 0, Title_t, "Trumpets"
7, 0, MIDI_port, 0
7, 0, Channel_prefix, 5
7, 0, Control_c, 5, 7, 90
7, 0, Control_c, 5, 10, 110
7, 0, Program_c, 5, 61
7, 0, Program_c, 5, 61
7, 0, Control_c, 5, 91, 66
7, 480, Control_c, 5, 10, 91
7, 6060, Note_on_c, 5, 76, 81
7, 6174, Note_off_c, 5, 76, 64
7, 6180, Note_on_c, 5, 76, 81
7, 6294, Note_off_c, 5, 76, 64
7, 6300, Note_on_c, 5, 76, 108
7, 6414, Note_off_c, 5, 76, 64
7, 8460, Note_on_c, 5, 76, 81
7, 8574, Note_off_c, 5, 76, 64
7, 8580, Note_on_c, 5, 76, 81
7, 8694, Note_off_c, 5, 76, 64
7, 8700, Note_on_c, 5, 76, 108
7, 8814, Note_off_c, 5, 76, 64
7, 10560, Note_on_c, 5, 76, 54
7, 10680, Note_off_c, 5, 76, 64
7, 11040, Note_on_c, 5, 76, 94
7, 11640, Note_off_c, 5, 76, 64
7, 12000, Note_on_c, 5, 76, 94
7, 12600, Note_off_c, 5, 76, 64
7, 12960, Note_on_c, 5, 76, 94
7, 13560, Note_off_c, 5, 76, 64
7, 13920, Note_on_c, 5, 76, 94
7, 14520, Note_off_c, 5, 76, 64
7, 14880, Note_on_c, 5, 76, 94
7, 15480, Note_off_c, 5, 76, 64
7, 15840, Note_on_c, 5, 76, 94
7, 16440, Note_off_c, 5, 76, 64
7, 16800, Note_on_c, 5, 76, 94
7, 17280, Note_off_c, 5, 76, 64
7, 17280, Note_on_c, 5, 69, 114
7, 17400, Note_off_c, 5, 69, 64
7, 17520, Note_on_c, 5, 69, 114
7, 17634, Note_off_c, 5, 69, 64
7, 17640, Note_on_c, 5, 69, 114
7, 17754, Note_off_c, 5, 69, 64
7, 17760, Note_on_c, 5, 69, 114
7, 17880, Note_off_c, 5, 69, 64
7, 18240, Note_on_c, 5, 76, 54
7, 18360, Note_off_c, 5, 76, 64
7, 18720, Note_on_c, 5, 76, 94
7, 19320, Note_off_c, 5, 76, 64
7, 19680, Note_on_c, 5, 76, 94
7, 20280, Note_off_c, 5, 76, 64
7, 20640, Note_on_c, 5, 76, 94
7, 21240, Note_off_c, 5, 76, 64
7, 21600, Note_on_c, 5, 76, 94
7, 22200, Note_off_c, 5, 76, 64
7, 22560, Note_on_c, 5, 76, 94
7, 23160, Note_off_c, 5, 76, 64
7, 23520, Note_on_c, 5, 76, 94
7, 24120, Note_off_c, 5, 76, 64
7, 24480, Note_on_c, 5, 76, 94
7, 24960, Note_off_c, 5, 76, 64
7, 24960, Note_on_c, 5, 69, 114
7, 25080, Note_off_c, 5, 69, 64
7, 25200, Note_on_c, 5, 69, 114
7, 25314, Note_off_c, 5, 69, 64
7, 25320, Note_on_c, 5, 69, 114
7, 25434, Note_off_c, 5, 69, 64
7, 25440, Note_on_c, 5, 69, 114
7, 25560, Note_off_c, 5, 69, 64
7, 25920, Note_on_c, 5, 69, 54
7, 26040, Note_off_c, 5, 69, 64
7, 26400, Note_on_c, 5, 69, 95
7, 27000, Note_off_c, 5, 69, 64
7, 27360, Note_on_c, 5, 69, 95
7, 27960, Note_off_c, 5, 69, 64
7, 28320, Note_on_c, 5, 69, 95
7, 28920, Note_off_c, 5, 69, 64
7, 30240, Note_on_c, 5, 76, 95
7, 30840, Note_off_c, 5, 76, 64
7, 31200, Note_on_c, 5, 76, 95
7, 31800, Note_off_c, 5, 76, 64
7, 32160, Note_on_c, 5, 76, 95
7, 32640, Note_off_c, 5, 76, 64
7, 32640, Note_on_c, 5, 69, 114
7, 32760, Note_off_c, 5, 69, 64
7, 32880, Note_on_c, 5, 69, 114
7, 32994, Note_off_c, 5, 69, 64
7, 33000, Note_on_c, 5, 69, 114
7, 33114, Note_off_c, 5, 69, 64
7, 33120, Note_on_c, 5, 69, 114
7, 33240, Note_off_c, 5, 69, 64
7, 33600, Note_on_c, 5, 69, 54
7, 33720, Note_off_c, 5, 69, 64
7, 34080, Note_on_c, 5, 69, 95
7, 34680, Note_off_c, 5, 69, 64
7, 35040, Note_on_c, 5, 69, 95
7, 35640, Note_off_c, 5, 69, 64
7, 36000, Note_on_c, 5, 69, 95
7, 36600, Note_off_c, 5, 69, 64
7, 37920, Note_on_c, 5, 76, 95
7, 38520, Note_off_c, 5, 76, 64
7, 38880, Note_on_c, 5, 76, 95
7, 39480, Note_off_c, 5, 76, 64
7, 39840, Note_on_c, 5, 76, 95
7, 40320, Note_off_c, 5, 76, 64
7, 40320, Note_on_c, 5, 69, 114
7, 40440, Note_off_c, 5, 69, 64
7, 40620, Note_on_c, 5, 69, 114
7, 40734, Note_off_c, 5, 69, 64
7, 40740, Note_on_c, 5, 69, 114
7, 40854, Note_off_c, 5, 69, 64
7, 40860, Note_on_c, 5, 69, 114
7, 40980, Note_off_c, 5, 69, 64
7, 41700, Note_on_c, 5, 69, 114
7, 41814, Note_off_c, 5, 69, 64
7, 41820, Note_on_c, 5, 69, 114
7, 41934, Note_off_c, 5, 69, 64
7, 41940, Note_on_c, 5, 69, 114
7, 42054, Note_off_c, 5, 69, 64
7, 42780, Note_on_c, 5, 76, 114
7, 42894, Note_off_c, 5, 76, 64
7, 42900, Note_on_c, 5, 76, 114
7, 43014, Note_off_c, 5, 76, 64
7, 43020, Note_on_c, 5, 76, 114
7, 43140, Note_off_c, 5, 76, 64
7, 43860, Note_on_c, 5, 76, 114
7, 43974, Note_off_c, 5, 76, 64
7, 43980, Note_on_c, 5, 76, 114
7, 44094, Note_off_c, 5, 76, 64
7, 44100, Note_on_c, 5, 76, 114
7, 44220, Note_off_c, 5, 76, 64
7, 44640, Note_on_c, 5, 57, 72
7, 44640, Note_on_c, 5, 69, 72
7, 44784, Note_off_c, 5, 69, 64
7, 44784, Note_off_c, 5, 57, 64
7, 45120, Note_on_c, 5, 69, 72
7, 45120, Note_on_c, 5, 57, 72
7, 45264, Note_off_c, 5, 57, 64
7, 45264, Note_off_c, 5, 69, 64
7, 45600, Note_on_c, 5, 69, 72
7, 45600, Note_on_c, 5, 57, 72
7, 45744, Note_off_c, 5, 57, 64
7, 45744, Note_off_c, 5, 69, 64
7, 46080, Note_on_c, 5, 57, 72
7, 46080, Note_on_c, 5, 69, 72
7, 46224, Note_off_c, 5, 69, 64
7, 46224, Note_off_c, 5, 57, 64
7, 46560, Note_on_c, 5, 76, 72
7, 46704, Note_off_c, 5, 76, 64
7, 47040, Note_on_c, 5, 76, 72
7, 47184, Note_off_c, 5, 76, 64
7, 47520, Note_on_c, 5, 76, 72
7, 47664, Note_off_c, 5, 76, 64
7, 48000, Note_on_c, 5, 76, 72
7, 48144, Note_off_c, 5, 76, 64
7, 48480, Note_on_c, 5, 69, 114
7, 48600, Note_off_c, 5, 69, 64
7, 48780, Note_on_c, 5, 69, 114
7, 48894, Note_off_c, 5, 69, 64
7, 48900, Note_on_c, 5, 69, 114
7, 49014, Note_off_c, 5, 69, 64
7, 49020, Note_on_c, 5, 69, 114
7, 49140, Note_off_c, 5, 69, 64
7, 49860, Note_on_c, 5, 69, 114
7, 49974, Note_off_c, 5, 69, 64
7, 49980, Note_on_c, 5, 69, 114
7, 50094, Note_off_c, 5, 69, 64
7, 50100, Note_on_c, 5, 69, 114
7, 50220, Note_off_c, 5, 69, 64
7, 50940, Note_on_c, 5, 76, 114
7, 51054, Note_off_c, 5, 76, 64
7, 51060, Note_on_c, 5, 76, 114
7, 51174, Note_off_c, 5, 76, 64
7, 51180, Note_on_c, 5, 76, 114
7, 51300, Note_off_c, 5, 76, 64
7, 52020, Note_on_c, 5, 76, 114
7, 52134, Note_off_c, 5, 76, 64
7, 52140, Note_on_c, 5, 76, 114
7, 52254, Note_off_c, 5, 76, 64
7, 52260, Note_on_c, 5, 76, 114
7, 52380, Note_off_c, 5, 76, 64
7, 52800, Note_on_c, 5, 57, 80
7, 52800, Note_on_c, 5, 69, 80
7, 52992, Note_off_c, 5, 69, 64
7, 52992, Note_off_c, 5, 57, 64
7, 53280, Note_on_c, 5, 69, 80
7, 53280, Note_on_c, 5, 57, 80
7, 53472, Note_off_c, 5, 57, 64
7, 53472, Note_off_c, 5, 69, 64
7, 53760, Note_on_c, 5, 69, 80
7, 53760, Note_on_c, 5, 57, 80
7, 53952, Note_off_c, 5, 57, 64
7, 53952, Note_off_c, 5, 69, 64
7, 54240, Note_on_c, 5, 69, 80
7, 54240, Note_on_c, 5, 57, 80
7, 54432, Note_off_c, 5, 57, 64
7, 54432, Note_off_c, 5, 69, 64
7, 54720, Note_on_c, 5, 64, 64
7, 54720, Note_on_c, 5, 76, 64
7, 54912, Note_off_c, 5, 76, 64
7, 54912, Note_off_c, 5, 64, 64
7, 55200, Note_on_c, 5, 76, 61
7, 55200, Note_on_c, 5, 64, 61
7, 55392, Note_off_c, 5, 64, 64
7, 55392, Note_off_c, 5, 76, 64
7, 55680, Note_on_c, 5, 64, 57
7, 55680, Note_on_c, 5, 76, 57
7, 55872, Note_off_c, 5, 76, 64
7, 55872, Note_off_c, 5, 64, 64
7, 56160, Note_on_c, 5, 76, 53
7, 56160, Note_on_c, 5, 64, 53
7, 56352, Note_off_c, 5, 64, 64
7, 56352, Note_off_c, 5, 76, 64
7, 56640, Note_on_c, 5, 69, 60
7, 56640, Note_on_c, 5, 57, 60
7, 56832, Note_off_c, 5, 57, 64
7, 56832, Note_off_c, 5, 69, 64
7, 58080, Note_on_c, 5, 76, 50
7, 58224, Note_off_c, 5, 76, 64
7, 58560, Note_on_c, 5, 69, 50
7, 58560, Note_on_c, 5, 57, 50
7, 58704, Note_off_c, 5, 57, 64
7, 58704, Note_off_c, 5, 69, 64
7, 59040, Note_on_c, 5, 76, 50
7, 59184, Note_off_c, 5, 76, 64
7, 59520, Note_on_c, 5, 69, 50
7, 59520, Note_on_c, 5, 57, 50
7, 59664, Note_off_c, 5, 57, 64
7, 59664, Note_off_c, 5, 69, 64
7, 60000, Note_on_c, 5, 76, 50
7, 60144, Note_off_c, 5, 76, 64
7, 60480, Note_on_c, 5, 69, 50
7, 60480, Note_on_c, 5, 57, 50
7, 60624, Note_off_c, 5, 57, 64
7, 60624, Note_off_c, 5, 69, 64
7, 61920, Note_on_c, 5, 76, 50
7, 62064, Note_off_c, 5, 76, 64
7, 62400, Note_on_c, 5, 69, 50
7, 62400, Note_on_c, 5, 57, 50
7, 62544, Note_off_c, 5, 57, 64
7, 62544, Note_off_c, 5, 69, 64
7, 62880, Note_on_c, 5, 76, 50
7, 63024, Note_off_c, 5, 76, 64
7, 63360, Note_on_c, 5, 69, 50
7, 63360, Note_on_c, 5, 57, 50
7, 63504, Note_off_c, 5, 57, 64
7, 63504, Note_off_c, 5, 69, 64
7, 72000, Note_on_c, 5, 69, 75
7, 72000, Note_on_c, 5, 57, 75
7, 72144, Note_off_c, 5, 57, 64
7, 72144, Note_off_c, 5, 69, 64
7, 72480, Note_on_c, 5, 69, 75
7, 72480, Note_on_c, 5, 57, 75
7, 72624, Note_off_c, 5, 57, 64
7, 72624, Note_off_c, 5, 69, 64
7, 72960, Note_on_c, 5, 57, 75
7, 72960, Note_on_c, 5, 69, 75
7, 73104, Note_off_c, 5, 69, 64
7, 73104, Note_off_c, 5, 57, 64
7, 73440, Note_on_c, 5, 69, 75
7, 73440, Note_on_c, 5, 57, 75
7, 73584, Note_off_c, 5, 57, 64
7, 73584, Note_off_c, 5, 69, 64
7, 75840, Note_on_c, 5, 57, 75
7, 75840, Note_on_c, 5, 69, 75
7, 75984, Note_off_c, 5, 69, 64
7, 75984, Note_off_c, 5, 57, 64
7, 76320, Note_on_c, 5, 69, 75
7, 76320, Note_on_c, 5, 57, 75
7, 76464, Note_off_c, 5, 57, 64
7, 76464, Note_off_c, 5, 69, 64
7, 76800, Note_on_c, 5, 66, 75
7, 76800, Note_on_c, 5, 78, 75
7, 76944, Note_off_c, 5, 78, 64
7, 76944, Note_off_c, 5, 66, 64
7, 77280, Note_on_c, 5, 78, 75
7, 77280, Note_on_c, 5, 66, 75
7, 77424, Note_off_c, 5, 66, 64
7, 77424, Note_off_c, 5, 78, 64
7, 77760, Note_on_c, 5, 66, 75
7, 77760, Note_on_c, 5, 78, 75
7, 77904, Note_off_c, 5, 78, 64
7, 77904, Note_off_c, 5, 66, 64
7, 78240, Note_on_c, 5, 66, 75
7, 78240, Note_on_c, 5, 78, 75
7, 78384, Note_off_c, 5, 78, 64
7, 78384, Note_off_c, 5, 66, 64
7, 78720, Note_on_c, 5, 66, 75
7, 78720, Note_on_c, 5, 78, 75
7, 78864, Note_off_c, 5, 78, 64
7, 78864, Note_off_c, 5, 66, 64
7, 79200, Note_on_c, 5, 66, 75
7, 79200, Note_on_c, 5, 78, 75
7, 79344, Note_off_c, 5, 78, 64
7, 79344, Note_off_c, 5, 66, 64
7, 79680, Note_on_c, 5, 66, 63
7, 79680, Note_on_c, 5, 78, 63
7, 79824, Note_off_c, 5, 78, 64
7, 79824, Note_off_c, 5, 66, 64
7, 80160, Note_on_c, 5, 66, 76
7, 80160, Note_on_c, 5, 78, 76
7, 80304, Note_off_c, 5, 78, 64
7, 80304, Note_off_c, 5, 66, 64
7, 80640, Note_on_c, 5, 66, 89
7, 80640, Note_on_c, 5, 78, 89
7, 80784, Note_off_c, 5, 78, 64
7, 80784, Note_off_c, 5, 66, 64
7, 81120, Note_on_c, 5, 66, 102
7, 81120, Note_on_c, 5, 78, 102
7, 81264, Note_off_c, 5, 78, 64
7, 81264, Note_off_c, 5, 66, 64
7, 81600, Note_on_c, 5, 66, 115
7, 81600, Note_on_c, 5, 78, 115
7, 81744, Note_off_c, 5, 78, 64
7, 81744, Note_off_c, 5, 66, 64
7, 82080, Note_on_c, 5, 66, 100
7, 82224, Note_off_c, 5, 66, 64
7, 85920, Note_on_c, 5, 66, 100
7, 86064, Note_off_c, 5, 66, 64
7, 93600, Note_on_c, 5, 76, 80
7, 93984, Note_off_c, 5, 76, 64
7, 95520, Note_on_c, 5, 76, 80
7, 95904, Note_off_c, 5, 76, 64
7, 97920, Note_on_c, 5, 57, 35
7, 97920, Note_on_c, 5, 69, 35
7, 98304, Note_off_c, 5, 69, 64
7, 98304, Note_off_c, 5, 57, 64
7, 98400, Note_on_c, 5, 57, 35
7, 98400, Note_on_c, 5, 69, 35
7, 98784, Note_off_c, 5, 69, 64
7, 98784, Note_off_c, 5, 57, 64
7, 98880, Note_on_c, 5, 69, 35
7, 98880, Note_on_c, 5, 62, 35
7, 99264, Note_off_c, 5, 62, 64
7, 99264, Note_off_c, 5, 69, 64
7, 99360, Note_on_c, 5, 62, 35
7, 99360, Note_on_c, 5, 69, 35
7, 99744, Note_off_c, 5, 69, 64
7, 99744, Note_off_c, 5, 62, 64
7, 99840, Note_on_c, 5, 69, 35
7, 99840, Note_on_c, 5, 57, 35
7, 100224, Note_off_c, 5, 57, 64
7, 100224, Note_off_c, 5, 69, 64
7, 100320, Note_on_c, 5, 69, 35
7, 100320, Note_on_c, 5, 57, 35
7, 100704, Note_off_c, 5, 57, 64
7, 100704, Note_off_c, 5, 69, 64
7, 100800, Note_on_c, 5, 69, 35
7, 100800, Note_on_c, 5, 62, 35
7, 101184, Note_off_c, 5, 62, 64
7, 101184, Note_off_c, 5, 69, 64
7, 101280, Note_on_c, 5, 66, 35
7, 101280, Note_on_c, 5, 62, 35
7, 101664, Note_off_c, 5, 62, 64
7, 101664, Note_off_c, 5, 66, 64
7, 103200, Note_on_c, 5, 76, 80
7, 103584, Note_off_c, 5, 76, 64
7, 105120, Note_on_c, 5, 76, 80
7, 105504, Note_off_c, 5, 76, 64
7, 107520, Note_on_c, 5, 57, 35
7, 107520, Note_on_c, 5, 69, 35
7, 107904, Note_off_c, 5, 69, 64
7, 107904, Note_off_c, 5, 57, 64
7, 108000, Note_on_c, 5, 57, 35
7, 108000, Note_on_c, 5, 69, 35
7, 108384, Note_off_c, 5, 69, 64
7, 108384, Note_off_c, 5, 57, 64
7, 108480, Note_on_c, 5, 69, 35
7, 108480, Note_on_c, 5, 62, 35
7, 108864, Note_off_c, 5, 62, 64
7, 108864, Note_off_c, 5, 69, 64
7, 108960, Note_on_c, 5, 62, 35
7, 108960, Note_on_c, 5, 69, 35
7, 109344, Note_off_c, 5, 69, 64
7, 109344, Note_off_c, 5, 62, 64
7, 109440, Note_on_c, 5, 69, 35
7, 109440, Note_on_c, 5, 57, 35
7, 109824, Note_off_c, 5, 57, 64
7, 109824, Note_off_c, 5, 69, 64
7, 109920, Note_on_c, 5, 69, 35
7, 109920, Note_on_c, 5, 57, 35
7, 110304, Note_off_c, 5, 57, 64
7, 110304, Note_off_c, 5, 69, 64
7, 121920, Note_on_c, 5, 69, 69
7, 121920, Note_on_c, 5, 81, 69
7, 122112, Note_off_c, 5, 81, 64
7, 122112, Note_off_c, 5, 69, 64
7, 122160, Note_on_c, 5, 69, 69
7, 122160, Note_on_c, 5, 81, 69
7, 122352, Note_off_c, 5, 81, 64
7, 122352, Note_off_c, 5, 69, 64
7, 122400, Note_on_c, 5, 81, 69
7, 122400, Note_on_c, 5, 69, 69
7, 122592, Note_off_c, 5, 69, 64
7, 122592, Note_off_c, 5, 81, 64
7, 122640, Note_on_c, 5, 69, 69
7, 122640, Note_on_c, 5, 81, 69
7, 122832, Note_off_c, 5, 81, 64
7, 122832, Note_off_c, 5, 69, 64
7, 122880, Note_on_c, 5, 81, 69
7, 122880, Note_on_c, 5, 69, 69
7, 123072, Note_off_c, 5, 69, 64
7, 123072, Note_off_c, 5, 81, 64
7, 123120, Note_on_c, 5, 81, 69
7, 123120, Note_on_c, 5, 69, 69
7, 123312, Note_off_c, 5, 69, 64
7, 123312, Note_off_c, 5, 81, 64
7, 123360, Note_on_c, 5, 69, 69
7, 123360, Note_on_c, 5, 81, 69
7, 123552, Note_off_c, 5, 81, 64
7, 123552, Note_off_c, 5, 69, 64
7, 123600, Note_on_c, 5, 81, 69
7, 123600, Note_on_c, 5, 69, 69
7, 123792, Note_off_c, 5, 69, 64
7, 123792, Note_off_c, 5, 81, 64
7, 123840, Note_on_c, 5, 64, 127
7, 123840, Note_on_c, 5, 76, 127
7, 124032, Note_off_c, 5, 76, 64
7, 124032, Note_off_c, 5, 64, 64
7, 124080, Note_on_c, 5, 76, 69
7, 124080, Note_on_c, 5, 64, 69
7, 124272, Note_off_c, 5, 64, 64
7, 124272, Note_off_c, 5, 76, 64
7, 124320, Note_on_c, 5, 64, 69
7, 124320, Note_on_c, 5, 76, 69
7, 124512, Note_off_c, 5, 76, 64
7, 124512, Note_off_c, 5, 64, 64
7, 124560, Note_on_c, 5, 76, 69
7, 124560, Note_on_c, 5, 64, 69
7, 124752, Note_off_c, 5, 64, 64
7, 124752, Note_off_c, 5, 76, 64
7, 124800, Note_on_c, 5, 69, 127
7, 124800, Note_on_c, 5, 81, 127
7, 124992, Note_off_c, 5, 81, 64
7, 124992, Note_off_c, 5, 69, 64
7, 125040, Note_on_c, 5, 81, 69
7, 125040, Note_on_c, 5, 69, 69
7, 125232, Note_off_c, 5, 69, 64
7, 125232, Note_off_c, 5, 81, 64
7, 125280, Note_on_c, 5, 69, 69
7, 125280, Note_on_c, 5, 81, 69
7, 125472, Note_off_c, 5, 81, 64
7, 125472, Note_off_c, 5, 69, 64
7, 125520, Note_on_c, 5, 69, 69
7, 125520, Note_on_c, 5, 81, 69
7, 125712, Note_off_c, 5, 81, 64
7, 125712, Note_off_c, 5, 69, 64
7, 125760, Note_on_c, 5, 76, 127
7, 125760, Note_on_c, 5, 64, 127
7, 125952, Note_off_c, 5, 64, 64
7, 125952, Note_off_c, 5, 76, 64
7, 126000, Note_on_c, 5, 76, 69
7, 126000, Note_on_c, 5, 64, 69
7, 126192, Note_off_c, 5, 64, 64
7, 126192, Note_off_c, 5, 76, 64
7, 126240, Note_on_c, 5, 64, 69
7, 126240, Note_on_c, 5, 76, 69
7, 126432, Note_off_c, 5, 76, 64
7, 126432, Note_off_c, 5, 64, 64
7, 126480, Note_on_c, 5, 76, 69
7, 126480, Note_on_c, 5, 64, 69
7, 126672, Note_off_c, 5, 64, 64
7, 126672, Note_off_c, 5, 76, 64
7, 126720, Note_on_c, 5, 81, 127
7, 126720, Note_on_c, 5, 69, 127
7, 126912, Note_off_c, 5, 69, 64
7, 126912, Note_off_c, 5, 81, 64
7, 126960, Note_on_c, 5, 81, 69
7, 126960, Note_on_c, 5, 69, 69
7, 127152, Note_off_c, 5, 69, 64
7, 127152, Note_off_c, 5, 81, 64
7, 127200, Note_on_c, 5, 69, 69
7, 127200, Note_on_c, 5, 81, 69
7, 127392, Note_off_c, 5, 81, 64
7, 127392, Note_off_c, 5, 69, 64
7, 127440, Note_on_c, 5, 69, 69
7, 127440, Note_on_c, 5, 81, 69
7, 127632, Note_off_c, 5, 81, 64
7, 127632, Note_off_c, 5, 69, 64
7, 127680, Note_on_c, 5, 76, 127
7, 127680, Note_on_c, 5, 64, 127
7, 127872, Note_off_c, 5, 64, 64
7, 127872, Note_off_c, 5, 76, 64
7, 127920, Note_on_c, 5, 76, 69
7, 127920, Note_on_c, 5, 64, 69
7, 128112, Note_off_c, 5, 64, 64
7, 128112, Note_off_c, 5, 76, 64
7, 128160, Note_on_c, 5, 64, 69
7, 128160, Note_on_c, 5, 76, 69
7, 128352, Note_off_c, 5, 76, 64
7, 128352, Note_off_c, 5, 64, 64
7, 128400, Note_on_c, 5, 76, 69
7, 128400, Note_on_c, 5, 64, 69
7, 128592, Note_off_c, 5, 64, 64
7, 128592, Note_off_c, 5, 76, 64
7, 128640, Note_on_c, 5, 81, 127
7, 128640, Note_on_c, 5, 69, 127
7, 128832, Note_off_c, 5, 69, 64
7, 128832, Note_off_c, 5, 81, 64
7, 128880, Note_on_c, 5, 81, 69
7, 128880, Note_on_c, 5, 69, 69
7, 129072, Note_off_c, 5, 69, 64
7, 129072, Note_off_c, 5, 81, 64
7, 129120, Note_on_c, 5, 69, 69
7, 129120, Note_on_c, 5, 81, 69
7, 129312, Note_off_c, 5, 81, 64
7, 129312, Note_off_c, 5, 69, 64
7, 129360, Note_on_c, 5, 69, 69
7, 129360, Note_on_c, 5, 81, 69
7, 129552, Note_off_c, 5, 81, 64
7, 129552, Note_off_c, 5, 69, 64
7, 129600, Note_on_c, 5, 76, 127
7, 129600, Note_on_c, 5, 64, 127
7, 129792, Note_off_c, 5, 64, 64
7, 129792, Note_off_c, 5, 76, 64
7, 129840, Note_on_c, 5, 76, 69
7, 129840, Note_on_c, 5, 64, 69
7, 130032, Note_off_c, 5, 64, 64
7, 130032, Note_off_c, 5, 76, 64
7, 130080, Note_on_c, 5, 64, 69
7, 130080, Note_on_c, 5, 76, 69
7, 130272, Note_off_c, 5, 76, 64
7, 130272, Note_off_c, 5, 64, 64
7, 130320, Note_on_c, 5, 76, 69
7, 130320, Note_on_c, 5, 64, 69
7, 130512, Note_off_c, 5, 64, 64
7, 130512, Note_off_c, 5, 76, 64
7, 131520, Note_on_c, 5, 76, 69
7, 131640, Note_off_c, 5, 76, 64
7, 131760, Note_on_c, 5, 76, 69
7, 131880, Note_off_c, 5, 76, 64
7, 132000, Note_on_c, 5, 69, 127
7, 132000, Note_on_c, 5, 81, 127
7, 132120, Note_off_c, 5, 81, 64
7, 132120, Note_off_c, 5, 69, 64
7, 132240, Note_on_c, 5, 69, 69
7, 132240, Note_on_c, 5, 81, 69
7, 132360, Note_off_c, 5, 81, 64
7, 132360, Note_off_c, 5, 69, 64
7, 132480, Note_on_c, 5, 81, 69
7, 132480, Note_on_c, 5, 69, 69
7, 132600, Note_off_c, 5, 69, 64
7, 132600, Note_off_c, 5, 81, 64
7, 132720, Note_on_c, 5, 69, 69
7, 132720, Note_on_c, 5, 81, 69
7, 132840, Note_off_c, 5, 81, 64
7, 132840, Note_off_c, 5, 69, 64
7, 132960, Note_on_c, 5, 69, 69
7, 132960, Note_on_c, 5, 81, 69
7, 133080, Note_off_c, 5, 81, 64
7, 133080, Note_off_c, 5, 69, 64
7, 133200, Note_on_c, 5, 69, 69
7, 133200, Note_on_c, 5, 81, 69
7, 133320, Note_off_c, 5, 81, 64
7, 133320, Note_off_c, 5, 69, 64
7, 133440, Note_on_c, 5, 76, 69
7, 133560, Note_off_c, 5, 76, 64
7, 133680, Note_on_c, 5, 76, 69
7, 133800, Note_off_c, 5, 76, 64
7, 133920, Note_on_c, 5, 81, 127
7, 133920, Note_on_c, 5, 69, 127
7, 134040, Note_off_c, 5, 69, 64
7, 134040, Note_off_c, 5, 81, 64
7, 134160, Note_on_c, 5, 81, 69
7, 134160, Note_on_c, 5, 69, 69
7, 134280, Note_off_c, 5, 69, 64
7, 134280, Note_off_c, 5, 81, 64
7, 134400, Note_on_c, 5, 81, 69
7, 134400, Note_on_c, 5, 69, 69
7, 134520, Note_off_c, 5, 69, 64
7, 134520, Note_off_c, 5, 81, 64
7, 134640, Note_on_c, 5, 81, 69
7, 134640, Note_on_c, 5, 69, 69
7, 134760, Note_off_c, 5, 69, 64
7, 134760, Note_off_c, 5, 81, 64
7, 134880, Note_on_c, 5, 69, 69
7, 134880, Note_on_c, 5, 81, 69
7, 135000, Note_off_c, 5, 81, 64
7, 135000, Note_off_c, 5, 69, 64
7, 135120, Note_on_c, 5, 69, 69
7, 135120, Note_on_c, 5, 81, 69
7, 135240, Note_off_c, 5, 81, 64
7, 135240, Note_off_c, 5, 69, 64
7, 135360, Note_on_c, 5, 76, 69
7, 135480, Note_off_c, 5, 76, 64
7, 135600, Note_on_c, 5, 76, 69
7, 135720, Note_off_c, 5, 76, 64
7, 135840, Note_on_c, 5, 69, 127
7, 135840, Note_on_c, 5, 81, 127
7, 135960, Note_off_c, 5, 81, 64
7, 135960, Note_off_c, 5, 69, 64
7, 136080, Note_on_c, 5, 69, 69
7, 136080, Note_on_c, 5, 81, 69
7, 136200, Note_off_c, 5, 81, 64
7, 136200, Note_off_c, 5, 69, 64
7, 136320, Note_on_c, 5, 76, 69
7, 136440, Note_off_c, 5, 76, 64
7, 136560, Note_on_c, 5, 76, 69
7, 136680, Note_off_c, 5, 76, 64
7, 136800, Note_on_c, 5, 69, 127
7, 136800, Note_on_c, 5, 81, 127
7, 136920, Note_off_c, 5, 81, 64
7, 136920, Note_off_c, 5, 69, 64
7, 137040, Note_on_c, 5, 69, 69
7, 137040, Note_on_c, 5, 81, 69
7, 137160, Note_off_c, 5, 81, 64
7, 137160, Note_off_c, 5, 69, 64
7, 137280, Note_on_c, 5, 76, 69
7, 137400, Note_off_c, 5, 76, 64
7, 137520, Note_on_c, 5, 76, 69
7, 137640, Note_off_c, 5, 76, 64
7, 137760, Note_on_c, 5, 69, 127
7, 137760, Note_on_c, 5, 81, 127
7, 137880, Note_off_c, 5, 81, 64
7, 137880, Note_off_c, 5, 69, 64
7, 138000, Note_on_c, 5, 69, 69
7, 138000, Note_on_c, 5, 81, 69
7, 138120, Note_off_c, 5, 81, 64
7, 138120, Note_off_c, 5, 69, 64
7, 138240, Note_on_c, 5, 76, 69
7, 138360, Note_off_c, 5, 76, 64
7, 138480, Note_on_c, 5, 76, 69
7, 138600, Note_off_c, 5, 76, 64
7, 138720, Note_on_c, 5, 69, 127
7, 138720, Note_on_c, 5, 81, 127
7, 138840, Note_off_c, 5, 81, 64
7, 138840, Note_off_c, 5, 69, 64
7, 138960, Note_on_c, 5, 69, 69
7, 138960, Note_on_c, 5, 81, 69
7, 139080, Note_off_c, 5, 81, 64
7, 139080, Note_off_c, 5, 69, 64
7, 139500, Note_on_c, 5, 76, 86
7, 139614, Note_off_c, 5, 76, 64
7, 139620, Note_on_c, 5, 76, 86
7, 139734, Note_off_c, 5, 76, 64
7, 139740, Note_on_c, 5, 76, 114
7, 139854, Note_off_c, 5, 76, 64
7, 141900, Note_on_c, 5, 76, 86
7, 142014, Note_off_c, 5, 76, 64
7, 142020, Note_on_c, 5, 76, 86
7, 142134, Note_off_c, 5, 76, 64
7, 142140, Note_on_c, 5, 76, 114
7, 142254, Note_off_c, 5, 76, 64
7, 144000, Note_on_c, 5, 76, 54
7, 144120, Note_off_c, 5, 76, 64
7, 144480, Note_on_c, 5, 76, 94
7, 145080, Note_off_c, 5, 76, 64
7, 145440, Note_on_c, 5, 76, 94
7, 146040, Note_off_c, 5, 76, 64
7, 146400, Note_on_c, 5, 76, 94
7, 147000, Note_off_c, 5, 76, 64
7, 147360, Note_on_c, 5, 76, 94
7, 147960, Note_off_c, 5, 76, 64
7, 148320, Note_on_c, 5, 76, 94
7, 148920, Note_off_c, 5, 76, 64
7, 149280, Note_on_c, 5, 76, 94
7, 149880, Note_off_c, 5, 76, 64
7, 150240, Note_on_c, 5, 76, 94
7, 150720, Note_off_c, 5, 76, 64
7, 150720, Note_on_c, 5, 69, 114
7, 150840, Note_off_c, 5, 69, 64
7, 150960, Note_on_c, 5, 69, 114
7, 151074, Note_off_c, 5, 69, 64
7, 151080, Note_on_c, 5, 69, 114
7, 151194, Note_off_c, 5, 69, 64
7, 151200, Note_on_c, 5, 69, 114
7, 151320, Note_off_c, 5, 69, 64
7, 151680, Note_on_c, 5, 76, 54
7, 151800, Note_off_c, 5, 76, 64
7, 152160, Note_on_c, 5, 76, 94
7, 152760, Note_off_c, 5, 76, 64
7, 153120, Note_on_c, 5, 76, 94
7, 153720, Note_off_c, 5, 76, 64
7, 154080, Note_on_c, 5, 76, 94
7, 154680, Note_off_c, 5, 76, 64
7, 155040, Note_on_c, 5, 76, 94
7, 155640, Note_off_c, 5, 76, 64
7, 156000, Note_on_c, 5, 76, 94
7, 156600, Note_off_c, 5, 76, 64
7, 156960, Note_on_c, 5, 76, 94
7, 157560, Note_off_c, 5, 76, 64
7, 157920, Note_on_c, 5, 76, 94
7, 158400, Note_off_c, 5, 76, 64
7, 158400, Note_on_c, 5, 69, 114
7, 158520, Note_off_c, 5, 69, 64
7, 158640, Note_on_c, 5, 69, 114
7, 158754, Note_off_c, 5, 69, 64
7, 158760, Note_on_c, 5, 69, 114
7, 158874, Note_off_c, 5, 69, 64
7, 158880, Note_on_c, 5, 69, 114
7, 159000, Note_off_c, 5, 69, 64
7, 159360, Note_on_c, 5, 69, 54
7, 159480, Note_off_c, 5, 69, 64
7, 159840, Note_on_c, 5, 69, 95
7, 160440, Note_off_c, 5, 69, 64
7, 160800, Note_on_c, 5, 69, 95
7, 161400, Note_off_c, 5, 69, 64
7, 161760, Note_on_c, 5, 69, 95
7, 162360, Note_off_c, 5, 69, 64
7, 163680, Note_on_c, 5, 76, 95
7, 164280, Note_off_c, 5, 76, 64
7, 164640, Note_on_c, 5, 76, 95
7, 165240, Note_off_c, 5, 76, 64
7, 165600, Note_on_c, 5, 76, 95
7, 166080, Note_off_c, 5, 76, 64
7, 166080, Note_on_c, 5, 69, 114
7, 166200, Note_off_c, 5, 69, 64
7, 166320, Note_on_c, 5, 69, 114
7, 166434, Note_off_c, 5, 69, 64
7, 166440, Note_on_c, 5, 69, 114
7, 166554, Note_off_c, 5, 69, 64
7, 166560, Note_on_c, 5, 69, 114
7, 166680, Note_off_c, 5, 69, 64
7, 167040, Note_on_c, 5, 69, 54
7, 167160, Note_off_c, 5, 69, 64
7, 167520, Note_on_c, 5, 69, 95
7, 168120, Note_off_c, 5, 69, 64
7, 168480, Note_on_c, 5, 69, 95
7, 169080, Note_off_c, 5, 69, 64
7, 169440, Note_on_c, 5, 69, 95
7, 170040, Note_off_c, 5, 69, 64
7, 171360, Note_on_c, 5, 76, 95
7, 171960, Note_off_c, 5, 76, 64
7, 172320, Note_on_c, 5, 76, 95
7, 172920, Note_off_c, 5, 76, 64
7, 173280, Note_on_c, 5, 76, 95
7, 173760, Note_off_c, 5, 76, 64
7, 173760, Note_on_c, 5, 69, 114
7, 173880, Note_off_c, 5, 69, 64
7, 174060, Note_on_c, 5, 69, 114
7, 174174, Note_off_c, 5, 69, 64
7, 174180, Note_on_c, 5, 69, 114
7, 174294, Note_off_c, 5, 69, 64
7, 174300, Note_on_c, 5, 69, 114
7, 174420, Note_off_c, 5, 69, 64
7, 175140, Note_on_c, 5, 69, 114
7, 175254, Note_off_c, 5, 69, 64
7, 175260, Note_on_c, 5, 69, 114
7, 175374, Note_off_c, 5, 69, 64
7, 175380, Note_on_c, 5, 69, 114
7, 175494, Note_off_c, 5, 69, 64
7, 176220, Note_on_c, 5, 76, 114
7, 176334, Note_off_c, 5, 76, 64
7, 176340, Note_on_c, 5, 76, 114
7, 176454, Note_off_c, 5, 76, 64
7, 176460, Note_on_c, 5, 76, 114
7, 176580, Note_off_c, 5, 76, 64
7, 177300, Note_on_c, 5, 76, 114
7, 177414, Note_off_c, 5, 76, 64
7, 177420, Note_on_c, 5, 76, 114
7, 177534, Note_off_c, 5, 76, 64
7, 177540, Note_on_c, 5, 76, 114
7, 177660, Note_off_c, 5, 76, 64
7, 178080, Note_on_c, 5, 57, 72
7, 178080, Note_on_c, 5, 69, 72
7, 178224, Note_off_c, 5, 69, 64
7, 178224, Note_off_c, 5, 57, 64
7, 178560, Note_on_c, 5, 69, 72
7, 178560, Note_on_c, 5, 57, 72
7, 178704, Note_off_c, 5, 57, 64
7, 178704, Note_off_c, 5, 69, 64
7, 179040, Note_on_c, 5, 69, 72
7, 179040, Note_on_c, 5, 57, 72
7, 179184, Note_off_c, 5, 57, 64
7, 179184, Note_off_c, 5, 69, 64
7, 179520, Note_on_c, 5, 57, 72
7, 179520, Note_on_c, 5, 69, 72
7, 179664, Note_off_c, 5, 69, 64
7, 179664, Note_off_c, 5, 57, 64
7, 180000, Note_on_c, 5, 76, 72
7, 180144, Note_off_c, 5, 76, 64
7, 180480, Note_on_c, 5, 76, 72
7, 180624, Note_off_c, 5, 76, 64
7, 180960, Note_on_c, 5, 76, 72
7, 181104, Note_off_c, 5, 76, 64
7, 181440, Note_on_c, 5, 76, 72
7, 181584, Note_off_c, 5, 76, 64
7, 181920, Note_on_c, 5, 69, 114
7, 182040, Note_off_c, 5, 69, 64
7, 182220, Note_on_c, 5, 69, 114
7, 182334, Note_off_c, 5, 69, 64
7, 182340, Note_on_c, 5, 69, 114
7, 182454, Note_off_c, 5, 69, 64
7, 182460, Note_on_c, 5, 69, 114
7, 182580, Note_off_c, 5, 69, 64
7, 183300, Note_on_c, 5, 69, 114
7, 183414, Note_off_c, 5, 69, 64
7, 183420, Note_on_c, 5, 69, 114
7, 183534, Note_off_c, 5, 69, 64
7, 183540, Note_on_c, 5, 69, 114
7, 183660, Note_off_c, 5, 69, 64
7, 184380, Note_on_c, 5, 76, 114
7, 184494, Note_off_c, 5, 76, 64
7, 184500, Note_on_c, 5, 76, 114
7, 184614, Note_off_c, 5, 76, 64
7, 184620, Note_on_c, 5, 76, 114
7, 184740, Note_off_c, 5, 76, 64
7, 185460, Note_on_c, 5, 76, 114
7, 185574, Note_off_c, 5, 76, 64
7, 185580, Note_on_c, 5, 76, 114
7, 185694, Note_off_c, 5, 76, 64
7, 185700, Note_on_c, 5, 76, 114
7, 185820, Note_off_c, 5, 76, 64
7, 186240, Note_on_c, 5, 57, 80
7, 186240, Note_on_c, 5, 69, 80
7, 186432, Note_off_c, 5, 69, 64
7, 186432, Note_off_c, 5, 57, 64
7, 186720, Note_on_c, 5, 69, 80
7, 186720, Note_on_c, 5, 57, 80
7, 186912, Note_off_c, 5, 57, 64
7, 186912, Note_off_c, 5, 69, 64
7, 187200, Note_on_c, 5, 69, 80
7, 187200, Note_on_c, 5, 57, 80
7, 187392, Note_off_c, 5, 57, 64
7, 187392, Note_off_c, 5, 69, 64
7, 187680, Note_on_c, 5, 69, 80
7, 187680, Note_on_c, 5, 57, 80
7, 187872, Note_off_c, 5, 57, 64
7, 187872, Note_off_c, 5, 69, 64
7, 188160, Note_on_c, 5, 64, 64
7, 188160, Note_on_c, 5, 76, 64
7, 188352, Note_off_c, 5, 76, 64
7, 188352, Note_off_c, 5, 64, 64
7, 188640, Note_on_c, 5, 76, 61
7, 188640, Note_on_c, 5, 64, 61
7, 188832, Note_off_c, 5, 64, 64
7, 188832, Note_off_c, 5, 76, 64
7, 189120, Note_on_c, 5, 64, 57
7, 189120, Note_on_c, 5, 76, 57
7, 189312, Note_off_c, 5, 76, 64
7, 189312, Note_off_c, 5, 64, 64
7, 189600, Note_on_c, 5, 76, 53
7, 189600, Note_on_c, 5, 64, 53
7, 189792, Note_off_c, 5, 64, 64
7, 189792, Note_off_c, 5, 76, 64
7, 190080, Note_on_c, 5, 69, 60
7, 190080, Note_on_c, 5, 57, 60
7, 190272, Note_off_c, 5, 57, 64
7, 190272, Note_off_c, 5, 69, 64
7, 191520, Note_on_c, 5, 76, 50
7, 191664, Note_off_c, 5, 76, 64
7, 192000, Note_on_c, 5, 69, 50
7, 192000, Note_on_c, 5, 57, 50
7, 192144, Note_off_c, 5, 57, 64
7, 192144, Note_off_c, 5, 69, 64
7, 192480, Note_on_c, 5, 76, 50
7, 192624, Note_off_c, 5, 76, 64
7, 192960, Note_on_c, 5, 69, 50
7, 192960, Note_on_c, 5, 57, 50
7, 193104, Note_off_c, 5, 57, 64
7, 193104, Note_off_c, 5, 69, 64
7, 193440, Note_on_c, 5, 76, 50
7, 193584, Note_off_c, 5, 76, 64
7, 193920, Note_on_c, 5, 69, 50
7, 193920, Note_on_c, 5, 57, 50
7, 194064, Note_off_c, 5, 57, 64
7, 194064, Note_off_c, 5, 69, 64
7, 195360, Note_on_c, 5, 76, 50
7, 195504, Note_off_c, 5, 76, 64
7, 195840, Note_on_c, 5, 69, 50
7, 195840, Note_on_c, 5, 57, 50
7, 195984, Note_off_c, 5, 57, 64
7, 195984, Note_off_c, 5, 69, 64
7, 196320, Note_on_c, 5, 76, 50
7, 196464, Note_off_c, 5, 76, 64
7, 196800, Note_on_c, 5, 69, 50
7, 196800, Note_on_c, 5, 57, 50
7, 196944, Note_off_c, 5, 57, 64
7, 196944, Note_off_c, 5, 69, 64
7, 205440, Note_on_c, 5, 69, 75
7, 205440, Note_on_c, 5, 57, 75
7, 205584, Note_off_c, 5, 57, 64
7, 205584, Note_off_c, 5, 69, 64
7, 205920, Note_on_c, 5, 69, 75
7, 205920, Note_on_c, 5, 57, 75
7, 206064, Note_off_c, 5, 57, 64
7, 206064, Note_off_c, 5, 69, 64
7, 206400, Note_on_c, 5, 57, 75
7, 206400, Note_on_c, 5, 69, 75
7, 206544, Note_off_c, 5, 69, 64
7, 206544, Note_off_c, 5, 57, 64
7, 206880, Note_on_c, 5, 69, 75
7, 206880, Note_on_c, 5, 57, 75
7, 207024, Note_off_c, 5, 57, 64
7, 207024, Note_off_c, 5, 69, 64
7, 209280, Note_on_c, 5, 57, 75
7, 209280, Note_on_c, 5, 69, 75
7, 209424, Note_off_c, 5, 69, 64
7, 209424, Note_off_c, 5, 57, 64
7, 209760, Note_on_c, 5, 69, 75
7, 209760, Note_on_c, 5, 57, 75
7, 209904, Note_off_c, 5, 57, 64
7, 209904, Note_off_c, 5, 69, 64
7, 210240, Note_on_c, 5, 66, 75
7, 210240, Note_on_c, 5, 78, 75
7, 210384, Note_off_c, 5, 78, 64
7, 210384, Note_off_c, 5, 66, 64
7, 210720, Note_on_c, 5, 78, 75
7, 210720, Note_on_c, 5, 66, 75
7, 210864, Note_off_c, 5, 66, 64
7, 210864, Note_off_c, 5, 78, 64
7, 211200, Note_on_c, 5, 66, 75
7, 211200, Note_on_c, 5, 78, 75
7, 211344, Note_off_c, 5, 78, 64
7, 211344, Note_off_c, 5, 66, 64
7, 211680, Note_on_c, 5, 66, 75
7, 211680, Note_on_c, 5, 78, 75
7, 211824, Note_off_c, 5, 78, 64
7, 211824, Note_off_c, 5, 66, 64
7, 212160, Note_on_c, 5, 66, 75
7, 212160, Note_on_c, 5, 78, 75
7, 212304, Note_off_c, 5, 78, 64
7, 212304, Note_off_c, 5, 66, 64
7, 212640, Note_on_c, 5, 66, 75
7, 212640, Note_on_c, 5, 78, 75
7, 212784, Note_off_c, 5, 78, 64
7, 212784, Note_off_c, 5, 66, 64
7, 213120, Note_on_c, 5, 66, 63
7, 213120, Note_on_c, 5, 78, 63
7, 213264, Note_off_c, 5, 78, 64
7, 213264, Note_off_c, 5, 66, 64
7, 213600, Note_on_c, 5, 66, 76
7, 213600, Note_on_c, 5, 78, 76
7, 213744, Note_off_c, 5, 78, 64
7, 213744, Note_off_c, 5, 66, 64
7, 214080, Note_on_c, 5, 66, 89
7, 214080, Note_on_c, 5, 78, 89
7, 214224, Note_off_c, 5, 78, 64
7, 214224, Note_off_c, 5, 66, 64
7, 214560, Note_on_c, 5, 66, 102
7, 214560, Note_on_c, 5, 78, 102
7, 214704, Note_off_c, 5, 78, 64
7, 214704, Note_off_c, 5, 66, 64
7, 215040, Note_on_c, 5, 66, 115
7, 215040, Note_on_c, 5, 78, 115
7, 215184, Note_off_c, 5, 78, 64
7, 215184, Note_off_c, 5, 66, 64
7, 215520, Note_on_c, 5, 66, 100
7, 215664, Note_off_c, 5, 66, 64
7, 219360, Note_on_c, 5, 66, 100
7, 219504, Note_off_c, 5, 66, 64
7, 227040, Note_on_c, 5, 76, 80
7, 227424, Note_off_c, 5, 76, 64
7, 228960, Note_on_c, 5, 76, 80
7, 229344, Note_off_c, 5, 76, 64
7, 231360, Note_on_c, 5, 57, 35
7, 231360, Note_on_c, 5, 69, 35
7, 231744, Note_off_c, 5, 69, 64
7, 231744, Note_off_c, 5, 57, 64
7, 231840, Note_on_c, 5, 57, 35
7, 231840, Note_on_c, 5, 69, 35
7, 232224, Note_off_c, 5, 69, 64
7, 232224, Note_off_c, 5, 57, 64
7, 232320, Note_on_c, 5, 69, 35
7, 232320, Note_on_c, 5, 62, 35
7, 232704, Note_off_c, 5, 62, 64
7, 232704, Note_off_c, 5, 69, 64
7, 232800, Note_on_c, 5, 62, 35
7, 232800, Note_on_c, 5, 69, 35
7, 233184, Note_off_c, 5, 69, 64
7, 233184, Note_off_c, 5, 62, 64
7, 233280, Note_on_c, 5, 69, 35
7, 233280, Note_on_c, 5, 57, 35
7, 233664, Note_off_c, 5, 57, 64
7, 233664, Note_off_c, 5, 69, 64
7, 233760, Note_on_c, 5, 69, 35
7, 233760, Note_on_c, 5, 57, 35
7, 234144, Note_off_c, 5, 57, 64
7, 234144, Note_off_c, 5, 69, 64
7, 234240, Note_on_c, 5, 69, 35
7, 234240, Note_on_c, 5, 62, 35
7, 234624, Note_off_c, 5, 62, 64
7, 234624, Note_off_c, 5, 69, 64
7, 234720, Note_on_c, 5, 66, 35
7, 234720, Note_on_c, 5, 62, 35
7, 235104, Note_off_c, 5, 62, 64
7, 235104, Note_off_c, 5, 66, 64
7, 236640, Note_on_c, 5, 76, 80
7, 237024, Note_off_c, 5, 76, 64
7, 238560, Note_on_c, 5, 76, 80
7, 238944, Note_off_c, 5, 76, 64
7, 240960, Note_on_c, 5, 57, 35
7, 240960, Note_on_c, 5, 69, 35
7, 241344, Note_off_c, 5, 69, 64
7, 241344, Note_off_c, 5, 57, 64
7, 241440, Note_on_c, 5, 57, 35
7, 241440, Note_on_c, 5, 69, 35
7, 241824, Note_off_c, 5, 69, 64
7, 241824, Note_off_c, 5, 57, 64
7, 241920, Note_on_c, 5, 69, 35
7, 241920, Note_on_c, 5, 62, 35
7, 242304, Note_off_c, 5, 62, 64
7, 242304, Note_off_c, 5, 69, 64
7, 242400, Note_on_c, 5, 62, 35
7, 242400, Note_on_c, 5, 69, 35
7, 242784, Note_off_c, 5, 69, 64
7, 242784, Note_off_c, 5, 62, 64
7, 242880, Note_on_c, 5, 69, 35
7, 242880, Note_on_c, 5, 57, 35
7, 243264, Note_off_c, 5, 57, 64
7, 243264, Note_off_c, 5, 69, 64
7, 243360, Note_on_c, 5, 69, 35
7, 243360, Note_on_c, 5, 57, 35
7, 243744, Note_off_c, 5, 57, 64
7, 243744, Note_off_c, 5, 69, 64
7, 255360, Note_on_c, 5, 69, 69
7, 255360, Note_on_c, 5, 81, 69
7, 255552, Note_off_c, 5, 81, 64
7, 255552, Note_off_c, 5, 69, 64
7, 255600, Note_on_c, 5, 69, 69
7, 255600, Note_on_c, 5, 81, 69
7, 255792, Note_off_c, 5, 81, 64
7, 255792, Note_off_c, 5, 69, 64
7, 255840, Note_on_c, 5, 81, 69
7, 255840, Note_on_c, 5, 69, 69
7, 256032, Note_off_c, 5, 69, 64
7, 256032, Note_off_c, 5, 81, 64
7, 256080, Note_on_c, 5, 69, 69
7, 256080, Note_on_c, 5, 81, 69
7, 256272, Note_off_c, 5, 81, 64
7, 256272, Note_off_c, 5, 69, 64
7, 256320, Note_on_c, 5, 81, 69
7, 256320, Note_on_c, 5, 69, 69
7, 256512, Note_off_c, 5, 69, 64
7, 256512, Note_off_c, 5, 81, 64
7, 256560, Note_on_c, 5, 81, 69
7, 256560, Note_on_c, 5, 69, 69
7, 256752, Note_off_c, 5, 69, 64
7, 256752, Note_off_c, 5, 81, 64
7, 256800, Note_on_c, 5, 69, 69
7, 256800, Note_on_c, 5, 81, 69
7, 256992, Note_off_c, 5, 81, 64
7, 256992, Note_off_c, 5, 69, 64
7, 257040, Note_on_c, 5, 81, 69
7, 257040, Note_on_c, 5, 69, 69
7, 257232, Note_off_c, 5, 69, 64
7, 257232, Note_off_c, 5, 81, 64
7, 257280, Note_on_c, 5, 64, 127
7, 257280, Note_on_c, 5, 76, 127
7, 257472, Note_off_c, 5, 76, 64
7, 257472, Note_off_c, 5, 64, 64
7, 257520, Note_on_c, 5, 76, 69
7, 257520, Note_on_c, 5, 64, 69
7, 257712, Note_off_c, 5, 64, 64
7, 257712, Note_off_c, 5, 76, 64
7, 257760, Note_on_c, 5, 64, 69
7, 257760, Note_on_c, 5, 76, 69
7, 257952, Note_off_c, 5, 76, 64
7, 257952, Note_off_c, 5, 64, 64
7, 258000, Note_on_c, 5, 76, 69
7, 258000, Note_on_c, 5, 64, 69
7, 258192, Note_off_c, 5, 64, 64
7, 258192, Note_off_c, 5, 76, 64
7, 258240, Note_on_c, 5, 69, 127
7, 258240, Note_on_c, 5, 81, 127
7, 258432, Note_off_c, 5, 81, 64
7, 258432, Note_off_c, 5, 69, 64
7, 258480, Note_on_c, 5, 81, 69
7, 258480, Note_on_c, 5, 69, 69
7, 258672, Note_off_c, 5, 69, 64
7, 258672, Note_off_c, 5, 81, 64
7, 258720, Note_on_c, 5, 69, 69
7, 258720, Note_on_c, 5, 81, 69
7, 258912, Note_off_c, 5, 81, 64
7, 258912, Note_off_c, 5, 69, 64
7, 258960, Note_on_c, 5, 69, 69
7, 258960, Note_on_c, 5, 81, 69
7, 259152, Note_off_c, 5, 81, 64
7, 259152, Note_off_c, 5, 69, 64
7, 259200, Note_on_c, 5, 76, 127
7, 259200, Note_on_c, 5, 64, 127
7, 259392, Note_off_c, 5, 64, 64
7, 259392, Note_off_c, 5, 76, 64
7, 259440, Note_on_c, 5, 76, 69
7, 259440, Note_on_c, 5, 64, 69
7, 259632, Note_off_c, 5, 64, 64
7, 259632, Note_off_c, 5, 76, 64
7, 259680, Note_on_c, 5, 64, 69
7, 259680, Note_on_c, 5, 76, 69
7, 259872, Note_off_c, 5, 76, 64
7, 259872, Note_off_c, 5, 64, 64
7, 259920, Note_on_c, 5, 76, 69
7, 259920, Note_on_c, 5, 64, 69
7, 260112, Note_off_c, 5, 64, 64
7, 260112, Note_off_c, 5, 76, 64
7, 260160, Note_on_c, 5, 81, 127
7, 260160, Note_on_c, 5, 69, 127
7, 260352, Note_off_c, 5, 69, 64
7, 260352, Note_off_c, 5, 81, 64
7, 260400, Note_on_c, 5, 81, 69
7, 260400, Note_on_c, 5, 69, 69
7, 260592, Note_off_c, 5, 69, 64
7, 260592, Note_off_c, 5, 81, 64
7, 260640, Note_on_c, 5, 69, 69
7, 260640, Note_on_c, 5, 81, 69
7, 260832, Note_off_c, 5, 81, 64
7, 260832, Note_off_c, 5, 69, 64
7, 260880, Note_on_c, 5, 69, 69
7, 260880, Note_on_c, 5, 81, 69
7, 261072, Note_off_c, 5, 81, 64
7, 261072, Note_off_c, 5, 69, 64
7, 261120, Note_on_c, 5, 76, 127
7, 261120, Note_on_c, 5, 64, 127
7, 261312, Note_off_c, 5, 64, 64
7, 261312, Note_off_c, 5, 76, 64
7, 261360, Note_on_c, 5, 76, 69
7, 261360, Note_on_c, 5, 64, 69
7, 261552, Note_off_c, 5, 64, 64
7, 261552, Note_off_c, 5, 76, 64
7, 261600, Note_on_c, 5, 64, 69
7, 261600, Note_on_c, 5, 76, 69
7, 261792, Note_off_c, 5, 76, 64
7, 261792, Note_off_c, 5, 64, 64
7, 261840, Note_on_c, 5, 76, 69
7, 261840, Note_on_c, 5, 64, 69
7, 262032, Note_off_c, 5, 64, 64
7, 262032, Note_off_c, 5, 76, 64
7, 262080, Note_on_c, 5, 81, 127
7, 262080, Note_on_c, 5, 69, 127
7, 262272, Note_off_c, 5, 69, 64
7, 262272, Note_off_c, 5, 81, 64
7, 262320, Note_on_c, 5, 81, 69
7, 262320, Note_on_c, 5, 69, 69
7, 262512, Note_off_c, 5, 69, 64
7, 262512, Note_off_c, 5, 81, 64
7, 262560, Note_on_c, 5, 69, 69
7, 262560, Note_on_c, 5, 81, 69
7, 262752, Note_off_c, 5, 81, 64
7, 262752, Note_off_c, 5, 69, 64
7, 262800, Note_on_c, 5, 69, 69
7, 262800, Note_on_c, 5, 81, 69
7, 262992, Note_off_c, 5, 81, 64
7, 262992, Note_off_c, 5, 69, 64
7, 263040, Note_on_c, 5, 76, 127
7, 263040, Note_on_c, 5, 64, 127
7, 263232, Note_off_c, 5, 64, 64
7, 263232, Note_off_c, 5, 76, 64
7, 263280, Note_on_c, 5, 76, 69
7, 263280, Note_on_c, 5, 64, 69
7, 263472, Note_off_c, 5, 64, 64
7, 263472, Note_off_c, 5, 76, 64
7, 263520, Note_on_c, 5, 64, 69
7, 263520, Note_on_c, 5, 76, 69
7, 263712, Note_off_c, 5, 76, 64
7, 263712, Note_off_c, 5, 64, 64
7, 263760, Note_on_c, 5, 76, 69
7, 263760, Note_on_c, 5, 64, 69
7, 263952, Note_off_c, 5, 64, 64
7, 263952, Note_off_c, 5, 76, 64
7, 264960, Note_on_c, 5, 76, 69
7, 265080, Note_off_c, 5, 76, 64
7, 265200, Note_on_c, 5, 76, 69
7, 265320, Note_off_c, 5, 76, 64
7, 265440, Note_on_c, 5, 69, 127
7, 265440, Note_on_c, 5, 81, 127
7, 265560, Note_off_c, 5, 81, 64
7, 265560, Note_off_c, 5, 69, 64
7, 265680, Note_on_c, 5, 69, 69
7, 265680, Note_on_c, 5, 81, 69
7, 265800, Note_off_c, 5, 81, 64
7, 265800, Note_off_c, 5, 69, 64
7, 265920, Note_on_c, 5, 81, 69
7, 265920, Note_on_c, 5, 69, 69
7, 266040, Note_off_c, 5, 69, 64
7, 266040, Note_off_c, 5, 81, 64
7, 266160, Note_on_c, 5, 69, 69
7, 266160, Note_on_c, 5, 81, 69
7, 266280, Note_off_c, 5, 81, 64
7, 266280, Note_off_c, 5, 69, 64
7, 266400, Note_on_c, 5, 69, 69
7, 266400, Note_on_c, 5, 81, 69
7, 266520, Note_off_c, 5, 81, 64
7, 266520, Note_off_c, 5, 69, 64
7, 266640, Note_on_c, 5, 69, 69
7, 266640, Note_on_c, 5, 81, 69
7, 266760, Note_off_c, 5, 81, 64
7, 266760, Note_off_c, 5, 69, 64
7, 266880, Note_on_c, 5, 76, 69
7, 267000, Note_off_c, 5, 76, 64
7, 267120, Note_on_c, 5, 76, 69
7, 267240, Note_off_c, 5, 76, 64
7, 267360, Note_on_c, 5, 81, 127
7, 267360, Note_on_c, 5, 69, 127
7, 267480, Note_off_c, 5, 69, 64
7, 267480, Note_off_c, 5, 81, 64
7, 267600, Note_on_c, 5, 81, 69
7, 267600, Note_on_c, 5, 69, 69
7, 267720, Note_off_c, 5, 69, 64
7, 267720, Note_off_c, 5, 81, 64
7, 267840, Note_on_c, 5, 81, 69
7, 267840, Note_on_c, 5, 69, 69
7, 267960, Note_off_c, 5, 69, 64
7, 267960, Note_off_c, 5, 81, 64
7, 268080, Note_on_c, 5, 81, 69
7, 268080, Note_on_c, 5, 69, 69
7, 268200, Note_off_c, 5, 69, 64
7, 268200, Note_off_c, 5, 81, 64
7, 268320, Note_on_c, 5, 69, 69
7, 268320, Note_on_c, 5, 81, 69
7, 268440, Note_off_c, 5, 81, 64
7, 268440, Note_off_c, 5, 69, 64
7, 268560, Note_on_c, 5, 69, 69
7, 268560, Note_on_c, 5, 81, 69
7, 268680, Note_off_c, 5, 81, 64
7, 268680, Note_off_c, 5, 69, 64
7, 268800, Note_on_c, 5, 76, 69
7, 268920, Note_off_c, 5, 76, 64
7, 269040, Note_on_c, 5, 76, 69
7, 269160, Note_off_c, 5, 76, 64
7, 269280, Note_on_c, 5, 69, 127
7, 269280, Note_on_c, 5, 81, 127
7, 269400, Note_off_c, 5, 81, 64
7, 269400, Note_off_c, 5, 69, 64
7, 269520, Note_on_c, 5, 69, 69
7, 269520, Note_on_c, 5, 81, 69
7, 269640, Note_off_c, 5, 81, 64
7, 269640, Note_off_c, 5, 69, 64
7, 269760, Note_on_c, 5, 76, 69
7, 269880, Note_off_c, 5, 76, 64
7, 270000, Note_on_c, 5, 76, 69
7, 270120, Note_off_c, 5, 76, 64
7, 270240, Note_on_c, 5, 69, 127
7, 270240, Note_on_c, 5, 81, 127
7, 270360, Note_off_c, 5, 81, 64
7, 270360, Note_off_c, 5, 69, 64
7, 270480, Note_on_c, 5, 69, 69
7, 270480, Note_on_c, 5, 81, 69
7, 270600, Note_off_c, 5, 81, 64
7, 270600, Note_off_c, 5, 69, 64
7, 270720, Note_on_c, 5, 76, 69
7, 270840, Note_off_c, 5, 76, 64
7, 270960, Note_on_c, 5, 76, 69
7, 271080, Note_off_c, 5, 76, 64
7, 271200, Note_on_c, 5, 69, 127
7, 271200, Note_on_c, 5, 81, 127
7, 271320, Note_off_c, 5, 81, 64
7, 271320, Note_off_c, 5, 69, 64
7, 271440, Note_on_c, 5, 69, 69
7, 271440, Note_on_c, 5, 81, 69
7, 271560, Note_off_c, 5, 81, 64
7, 271560, Note_off_c, 5, 69, 64
7, 271680, Note_on_c, 5, 76, 69
7, 271800, Note_off_c, 5, 76, 64
7, 271920, Note_on_c, 5, 76, 69
7, 272040, Note_off_c, 5, 76, 64
7, 272160, Note_on_c, 5, 76, 127
7, 272280, Note_off_c, 5, 76, 64
7, 272400, Note_on_c, 5, 76, 69
7, 272520, Note_off_c, 5, 76, 64
7, 272940, Note_on_c, 5, 76, 86
7, 273054, Note_off_c, 5, 76, 64
7, 273060, Note_on_c, 5, 76, 86
7, 273174, Note_off_c, 5, 76, 64
7, 273180, Note_on_c, 5, 76, 114
7, 273294, Note_off_c, 5, 76, 64
7, 275340, Note_on_c, 5, 76, 86
7, 275454, Note_off_c, 5, 76, 64
7, 275460, Note_on_c, 5, 76, 86
7, 275574, Note_off_c, 5, 76, 64
7, 275580, Note_on_c, 5, 76, 114
7, 275694, Note_off_c, 5, 76, 64
7, 284160, Note_on_c, 5, 76, 54
7, 284280, Note_off_c, 5, 76, 64
7, 284640, Note_on_c, 5, 76, 114
7, 285240, Note_off_c, 5, 76, 64
7, 285600, Note_on_c, 5, 76, 114
7, 286200, Note_off_c, 5, 76, 64
7, 286560, Note_on_c, 5, 76, 114
7, 287040, Note_off_c, 5, 76, 64
7, 287040, Note_on_c, 5, 69, 54
7, 287160, Note_off_c, 5, 69, 64
7, 296640, Note_on_c, 5, 79, 38
7, 296760, Note_off_c, 5, 79, 64
7, 297120, Note_on_c, 5, 74, 29
7, 297120, Note_on_c, 5, 79, 89
7, 297360, Note_off_c, 5, 74, 64
7, 297600, Note_on_c, 5, 76, 29
7, 297720, Note_off_c, 5, 79, 64
7, 297720, Note_off_c, 5, 76, 64
7, 298080, Note_on_c, 5, 76, 29
7, 298080, Note_on_c, 5, 79, 89
7, 298320, Note_off_c, 5, 76, 64
7, 298560, Note_on_c, 5, 74, 29
7, 298680, Note_off_c, 5, 79, 64
7, 298680, Note_off_c, 5, 74, 64
7, 299040, Note_on_c, 5, 74, 29
7, 299040, Note_on_c, 5, 79, 89
7, 299280, Note_off_c, 5, 74, 64
7, 299520, Note_on_c, 5, 76, 29
7, 299640, Note_off_c, 5, 79, 64
7, 299640, Note_off_c, 5, 76, 64
7, 300000, Note_on_c, 5, 79, 89
7, 300000, Note_on_c, 5, 76, 29
7, 300240, Note_off_c, 5, 76, 64
7, 300480, Note_on_c, 5, 74, 29
7, 300600, Note_off_c, 5, 79, 64
7, 300600, Note_off_c, 5, 74, 64
7, 300960, Note_on_c, 5, 74, 29
7, 300960, Note_on_c, 5, 79, 89
7, 301200, Note_off_c, 5, 74, 64
7, 301440, Note_on_c, 5, 76, 29
7, 301560, Note_off_c, 5, 79, 64
7, 301560, Note_off_c, 5, 76, 64
7, 301920, Note_on_c, 5, 76, 29
7, 301920, Note_on_c, 5, 79, 89
7, 302160, Note_off_c, 5, 76, 64
7, 302400, Note_on_c, 5, 74, 29
7, 302520, Note_off_c, 5, 79, 64
7, 302520, Note_off_c, 5, 74, 64
7, 302880, Note_on_c, 5, 74, 29
7, 302880, Note_on_c, 5, 79, 89
7, 303360, Note_off_c, 5, 79, 64
7, 303360, Note_off_c, 5, 74, 64
7, 303360, Note_on_c, 5, 76, 98
7, 303480, Note_off_c, 5, 76, 64
7, 303600, Note_on_c, 5, 76, 98
7, 303714, Note_off_c, 5, 76, 64
7, 303720, Note_on_c, 5, 76, 98
7, 303834, Note_off_c, 5, 76, 64
7, 303840, Note_on_c, 5, 76, 98
7, 303960, Note_off_c, 5, 76, 64
7, 304320, Note_on_c, 5, 79, 29
7, 304440, Note_off_c, 5, 79, 64
7, 304800, Note_on_c, 5, 79, 89
7, 304800, Note_on_c, 5, 74, 29
7, 305040, Note_off_c, 5, 74, 64
7, 305280, Note_on_c, 5, 76, 29
7, 305400, Note_off_c, 5, 79, 64
7, 305400, Note_off_c, 5, 76, 64
7, 305760, Note_on_c, 5, 76, 29
7, 305760, Note_on_c, 5, 79, 89
7, 306000, Note_off_c, 5, 76, 64
7, 306240, Note_on_c, 5, 74, 29
7, 306360, Note_off_c, 5, 79, 64
7, 306360, Note_off_c, 5, 74, 64
7, 306720, Note_on_c, 5, 74, 29
7, 306720, Note_on_c, 5, 79, 89
7, 306960, Note_off_c, 5, 74, 64
7, 307200, Note_on_c, 5, 76, 29
7, 307320, Note_off_c, 5, 79, 64
7, 307320, Note_off_c, 5, 76, 64
7, 307680, Note_on_c, 5, 79, 89
7, 307680, Note_on_c, 5, 76, 29
7, 307920, Note_off_c, 5, 76, 64
7, 308160, Note_on_c, 5, 74, 29
7, 308280, Note_off_c, 5, 79, 64
7, 308280, Note_off_c, 5, 74, 64
7, 308640, Note_on_c, 5, 74, 29
7, 308640, Note_on_c, 5, 79, 89
7, 308880, Note_off_c, 5, 74, 64
7, 309120, Note_on_c, 5, 76, 29
7, 309240, Note_off_c, 5, 79, 64
7, 309240, Note_off_c, 5, 76, 64
7, 309600, Note_on_c, 5, 76, 29
7, 309600, Note_on_c, 5, 79, 89
7, 309840, Note_off_c, 5, 76, 64
7, 310080, Note_on_c, 5, 74, 29
7, 310200, Note_off_c, 5, 79, 64
7, 310200, Note_off_c, 5, 74, 64
7, 310560, Note_on_c, 5, 74, 29
7, 310560, Note_on_c, 5, 79, 89
7, 311040, Note_off_c, 5, 79, 64
7, 311040, Note_off_c, 5, 74, 64
7, 311040, Note_on_c, 5, 76, 98
7, 311160, Note_off_c, 5, 76, 64
7, 311280, Note_on_c, 5, 76, 98
7, 311394, Note_off_c, 5, 76, 64
7, 311400, Note_on_c, 5, 76, 98
7, 311514, Note_off_c, 5, 76, 64
7, 311520, Note_on_c, 5, 76, 98
7, 311640, Note_off_c, 5, 76, 64
7, 312480, Note_on_c, 5, 72, 101
7, 313080, Note_off_c, 5, 72, 64
7, 313440, Note_on_c, 5, 72, 101
7, 314040, Note_off_c, 5, 72, 64
7, 314400, Note_on_c, 5, 72, 101
7, 315000, Note_off_c, 5, 72, 64
7, 315360, Note_on_c, 5, 69, 101
7, 315360, Note_on_c, 5, 57, 41
7, 315840, Note_off_c, 5, 57, 64
7, 315840, Note_off_c, 5, 69, 64
7, 315840, Note_on_c, 5, 74, 41
7, 315840, Note_on_c, 5, 62, 41
7, 315960, Note_off_c, 5, 62, 64
7, 315960, Note_off_c, 5, 74, 64
7, 316320, Note_on_c, 5, 74, 101
7, 316320, Note_on_c, 5, 79, 41
7, 316560, Note_off_c, 5, 74, 64
7, 316800, Note_on_c, 5, 76, 54
7, 316920, Note_off_c, 5, 79, 64
7, 316920, Note_off_c, 5, 76, 64
7, 317280, Note_on_c, 5, 76, 101
7, 317280, Note_on_c, 5, 79, 41
7, 317520, Note_off_c, 5, 76, 64
7, 317760, Note_on_c, 5, 74, 41
7, 317880, Note_off_c, 5, 79, 64
7, 317880, Note_off_c, 5, 74, 64
7, 318240, Note_on_c, 5, 74, 101
7, 318240, Note_on_c, 5, 79, 41
7, 318480, Note_off_c, 5, 79, 64
7, 318480, Note_off_c, 5, 74, 64
7, 318720, Note_on_c, 5, 76, 54
7, 318840, Note_off_c, 5, 76, 64
7, 318960, Note_on_c, 5, 76, 120
7, 319020, Note_off_c, 5, 76, 64
7, 319080, Note_on_c, 5, 76, 120
7, 319140, Note_off_c, 5, 76, 64
7, 319200, Note_on_c, 5, 76, 120
7, 319320, Note_off_c, 5, 76, 64
7, 320160, Note_on_c, 5, 72, 101
7, 320760, Note_off_c, 5, 72, 64
7, 321120, Note_on_c, 5, 72, 101
7, 321720, Note_off_c, 5, 72, 64
7, 322080, Note_on_c, 5, 72, 101
7, 322680, Note_off_c, 5, 72, 64
7, 323040, Note_on_c, 5, 69, 101
7, 323040, Note_on_c, 5, 57, 41
7, 323520, Note_off_c, 5, 57, 64
7, 323520, Note_off_c, 5, 69, 64
7, 323520, Note_on_c, 5, 74, 41
7, 323520, Note_on_c, 5, 62, 41
7, 323640, Note_off_c, 5, 62, 64
7, 323640, Note_off_c, 5, 74, 64
7, 324000, Note_on_c, 5, 74, 101
7, 324000, Note_on_c, 5, 79, 41
7, 324240, Note_off_c, 5, 74, 64
7, 324480, Note_on_c, 5, 76, 54
7, 324600, Note_off_c, 5, 79, 64
7, 324600, Note_off_c, 5, 76, 64
7, 324960, Note_on_c, 5, 76, 101
7, 324960, Note_on_c, 5, 79, 41
7, 325200, Note_off_c, 5, 76, 64
7, 325440, Note_on_c, 5, 74, 41
7, 325560, Note_off_c, 5, 79, 64
7, 325560, Note_off_c, 5, 74, 64
7, 325920, Note_on_c, 5, 74, 101
7, 325920, Note_on_c, 5, 79, 41
7, 326160, Note_off_c, 5, 79, 64
7, 326160, Note_off_c, 5, 74, 64
7, 326400, Note_on_c, 5, 76, 54
7, 326520, Note_off_c, 5, 76, 64
7, 326640, Note_on_c, 5, 76, 120
7, 326700, Note_off_c, 5, 76, 64
7, 326760, Note_on_c, 5, 76, 120
7, 326820, Note_off_c, 5, 76, 64
7, 326880, Note_on_c, 5, 76, 120
7, 327000, Note_off_c, 5, 76, 64
7, 327600, Note_on_c, 5, 62, 120
7, 327600, Note_on_c, 5, 74, 120
7, 327660, Note_off_c, 5, 74, 64
7, 327660, Note_off_c, 5, 62, 64
7, 327720, Note_on_c, 5, 62, 120
7, 327720, Note_on_c, 5, 74, 120
7, 327780, Note_off_c, 5, 74, 64
7, 327780, Note_off_c, 5, 62, 64
7, 327840, Note_on_c, 5, 62, 120
7, 327840, Note_on_c, 5, 74, 120
7, 327960, Note_off_c, 5, 74, 64
7, 327960, Note_off_c, 5, 62, 64
7, 328560, Note_on_c, 5, 76, 120
7, 328620, Note_off_c, 5, 76, 64
7, 328680, Note_on_c, 5, 76, 120
7, 328740, Note_off_c, 5, 76, 64
7, 328800, Note_on_c, 5, 76, 120
7, 328920, Note_off_c, 5, 76, 64
7, 335280, Note_on_c, 5, 62, 72
7, 335280, Note_on_c, 5, 74, 72
7, 335340, Note_off_c, 5, 74, 64
7, 335340, Note_off_c, 5, 62, 64
7, 335400, Note_on_c, 5, 74, 72
7, 335400, Note_on_c, 5, 62, 72
7, 335460, Note_off_c, 5, 62, 64
7, 335460, Note_off_c, 5, 74, 64
7, 335520, Note_on_c, 5, 62, 72
7, 335520, Note_on_c, 5, 74, 72
7, 335580, Note_off_c, 5, 74, 64
7, 335580, Note_off_c, 5, 62, 64
7, 336240, Note_on_c, 5, 74, 72
7, 336240, Note_on_c, 5, 62, 72
7, 336300, Note_off_c, 5, 62, 64
7, 336300, Note_off_c, 5, 74, 64
7, 336360, Note_on_c, 5, 74, 72
7, 336360, Note_on_c, 5, 62, 72
7, 336420, Note_off_c, 5, 62, 64
7, 336420, Note_off_c, 5, 74, 64
7, 336480, Note_on_c, 5, 74, 72
7, 336480, Note_on_c, 5, 62, 72
7, 336540, Note_off_c, 5, 62, 64
7, 336540, Note_off_c, 5, 74, 64
7, 337200, Note_on_c, 5, 57, 72
7, 337200, Note_on_c, 5, 69, 72
7, 337260, Note_off_c, 5, 69, 64
7, 337260, Note_off_c, 5, 57, 64
7, 337320, Note_on_c, 5, 69, 72
7, 337320, Note_on_c, 5, 57, 72
7, 337380, Note_off_c, 5, 57, 64
7, 337380, Note_off_c, 5, 69, 64
7, 337440, Note_on_c, 5, 69, 72
7, 337440, Note_on_c, 5, 57, 72
7, 337500, Note_off_c, 5, 57, 64
7, 337500, Note_off_c, 5, 69, 64
7, 337920, Note_on_c, 5, 62, 72
7, 337920, Note_on_c, 5, 74, 72
7, 338040, Note_off_c, 5, 74, 64
7, 338040, Note_off_c, 5, 62, 64
7, 338400, Note_on_c, 5, 74, 80
7, 338400, Note_on_c, 5, 62, 80
7, 339072, Note_off_c, 5, 62, 64
7, 339072, Note_off_c, 5, 74, 64
7, 339360, Note_on_c, 5, 62, 80
7, 339360, Note_on_c, 5, 74, 80
7, 340032, Note_off_c, 5, 74, 64
7, 340032, Note_off_c, 5, 62, 64
7, 340320, Note_on_c, 5, 62, 80
7, 340320, Note_on_c, 5, 74, 80
7, 340992, Note_off_c, 5, 74, 64
7, 340992, Note_off_c, 5, 62, 64
7, 341280, Note_on_c, 5, 62, 80
7, 341280, Note_on_c, 5, 74, 80
7, 341952, Note_off_c, 5, 74, 64
7, 341952, Note_off_c, 5, 62, 64
7, 342240, Note_on_c, 5, 62, 80
7, 342240, Note_on_c, 5, 74, 80
7, 342912, Note_off_c, 5, 74, 64
7, 342912, Note_off_c, 5, 62, 64
7, 343200, Note_on_c, 5, 62, 80
7, 343200, Note_on_c, 5, 74, 80
7, 343872, Note_off_c, 5, 74, 64
7, 343872, Note_off_c, 5, 62, 64
7, 344160, Note_on_c, 5, 62, 80
7, 344160, Note_on_c, 5, 74, 80
7, 344832, Note_off_c, 5, 74, 64
7, 344832, Note_off_c, 5, 62, 64
7, 345120, Note_on_c, 5, 62, 80
7, 345120, Note_on_c, 5, 74, 80
7, 345792, Note_off_c, 5, 74, 64
7, 345792, Note_off_c, 5, 62, 64
7, 346080, Note_on_c, 5, 62, 80
7, 346080, Note_on_c, 5, 74, 80
7, 346752, Note_off_c, 5, 74, 64
7, 346752, Note_off_c, 5, 62, 64
7, 347040, Note_on_c, 5, 62, 80
7, 347040, Note_on_c, 5, 74, 80
7, 347712, Note_off_c, 5, 74, 64
7, 347712, Note_off_c, 5, 62, 64
7, 348000, Note_on_c, 5, 62, 80
7, 348000, Note_on_c, 5, 74, 80
7, 348672, Note_off_c, 5, 74, 64
7, 348672, Note_off_c, 5, 62, 64
7, 348960, Note_on_c, 5, 76, 80
7, 349632, Note_off_c, 5, 76, 64
7, 349920, Note_on_c, 5, 76, 80
7, 350592, Note_off_c, 5, 76, 64
7, 350880, Note_on_c, 5, 76, 80
7, 351552, Note_off_c, 5, 76, 64
7, 351840, Note_on_c, 5, 76, 80
7, 352512, Note_off_c, 5, 76, 64
7, 352800, Note_on_c, 5, 76, 80
7, 353472, Note_off_c, 5, 76, 64
7, 353760, Note_on_c, 5, 76, 80
7, 354432, Note_off_c, 5, 76, 64
7, 354720, Note_on_c, 5, 76, 80
7, 355392, Note_off_c, 5, 76, 64
7, 355680, Note_on_c, 5, 76, 80
7, 356352, Note_off_c, 5, 76, 64
7, 356640, Note_on_c, 5, 76, 80
7, 357312, Note_off_c, 5, 76, 64
7, 357600, Note_on_c, 5, 76, 80
7, 358272, Note_off_c, 5, 76, 64
7, 383340, Note_on_c, 5, 76, 81
7, 383454, Note_off_c, 5, 76, 64
7, 383460, Note_on_c, 5, 76, 81
7, 383574, Note_off_c, 5, 76, 64
7, 383580, Note_on_c, 5, 76, 108
7, 383694, Note_off_c, 5, 76, 64
7, 385740, Note_on_c, 5, 76, 81
7, 385854, Note_off_c, 5, 76, 64
7, 385860, Note_on_c, 5, 76, 81
7, 385974, Note_off_c, 5, 76, 64
7, 385980, Note_on_c, 5, 76, 108
7, 386094, Note_off_c, 5, 76, 64
7, 387840, Note_on_c, 5, 76, 41
7, 387960, Note_off_c, 5, 76, 64
7, 388320, Note_on_c, 5, 76, 101
7, 388920, Note_off_c, 5, 76, 64
7, 389280, Note_on_c, 5, 76, 101
7, 389880, Note_off_c, 5, 76, 64
7, 390240, Note_on_c, 5, 76, 101
7, 390840, Note_off_c, 5, 76, 64
7, 391200, Note_on_c, 5, 76, 101
7, 391800, Note_off_c, 5, 76, 64
7, 392160, Note_on_c, 5, 76, 101
7, 392760, Note_off_c, 5, 76, 64
7, 393120, Note_on_c, 5, 76, 101
7, 393720, Note_off_c, 5, 76, 64
7, 394080, Note_on_c, 5, 76, 114
7, 394560, Note_off_c, 5, 76, 64
7, 394560, Note_on_c, 5, 69, 114
7, 394680, Note_off_c, 5, 69, 64
7, 394800, Note_on_c, 5, 69, 114
7, 394914, Note_off_c, 5, 69, 64
7, 394920, Note_on_c, 5, 69, 114
7, 395034, Note_off_c, 5, 69, 64
7, 395040, Note_on_c, 5, 69, 114
7, 395160, Note_off_c, 5, 69, 64
7, 395520, Note_on_c, 5, 76, 41
7, 395640, Note_off_c, 5, 76, 64
7, 396000, Note_on_c, 5, 76, 101
7, 396600, Note_off_c, 5, 76, 64
7, 396960, Note_on_c, 5, 76, 101
7, 397560, Note_off_c, 5, 76, 64
7, 397920, Note_on_c, 5, 76, 101
7, 398520, Note_off_c, 5, 76, 64
7, 398880, Note_on_c, 5, 76, 101
7, 399480, Note_off_c, 5, 76, 64
7, 399840, Note_on_c, 5, 76, 101
7, 400440, Note_off_c, 5, 76, 64
7, 400800, Note_on_c, 5, 76, 101
7, 401400, Note_off_c, 5, 76, 64
7, 401760, Note_on_c, 5, 76, 114
7, 402240, Note_off_c, 5, 76, 64
7, 402240, Note_on_c, 5, 69, 114
7, 402360, Note_off_c, 5, 69, 64
7, 402540, Note_on_c, 5, 69, 114
7, 402654, Note_off_c, 5, 69, 64
7, 402660, Note_on_c, 5, 69, 114
7, 402774, Note_off_c, 5, 69, 64
7, 402780, Note_on_c, 5, 69, 114
7, 402900, Note_off_c, 5, 69, 64
7, 403620, Note_on_c, 5, 69, 114
7, 403734, Note_off_c, 5, 69, 64
7, 403740, Note_on_c, 5, 69, 114
7, 403854, Note_off_c, 5, 69, 64
7, 403860, Note_on_c, 5, 69, 114
7, 403974, Note_off_c, 5, 69, 64
7, 404700, Note_on_c, 5, 76, 114
7, 404814, Note_off_c, 5, 76, 64
7, 404820, Note_on_c, 5, 76, 114
7, 404934, Note_off_c, 5, 76, 64
7, 404940, Note_on_c, 5, 76, 114
7, 405060, Note_off_c, 5, 76, 64
7, 405780, Note_on_c, 5, 76, 114
7, 405894, Note_off_c, 5, 76, 64
7, 405900, Note_on_c, 5, 76, 114
7, 406014, Note_off_c, 5, 76, 64
7, 406020, Note_on_c, 5, 76, 114
7, 406140, Note_off_c, 5, 76, 64
7, 406560, Note_on_c, 5, 57, 72
7, 406560, Note_on_c, 5, 69, 72
7, 406704, Note_off_c, 5, 69, 64
7, 406704, Note_off_c, 5, 57, 64
7, 407040, Note_on_c, 5, 69, 72
7, 407040, Note_on_c, 5, 57, 72
7, 407184, Note_off_c, 5, 57, 64
7, 407184, Note_off_c, 5, 69, 64
7, 407520, Note_on_c, 5, 57, 72
7, 407520, Note_on_c, 5, 69, 72
7, 407664, Note_off_c, 5, 69, 64
7, 407664, Note_off_c, 5, 57, 64
7, 408000, Note_on_c, 5, 69, 72
7, 408000, Note_on_c, 5, 57, 72
7, 408144, Note_off_c, 5, 57, 64
7, 408144, Note_off_c, 5, 69, 64
7, 408480, Note_on_c, 5, 76, 72
7, 408624, Note_off_c, 5, 76, 64
7, 408960, Note_on_c, 5, 76, 72
7, 409104, Note_off_c, 5, 76, 64
7, 409440, Note_on_c, 5, 76, 72
7, 409584, Note_off_c, 5, 76, 64
7, 409920, Note_on_c, 5, 76, 72
7, 410064, Note_off_c, 5, 76, 64
7, 410400, Note_on_c, 5, 69, 114
7, 410520, Note_off_c, 5, 69, 64
7, 410700, Note_on_c, 5, 69, 114
7, 410814, Note_off_c, 5, 69, 64
7, 410820, Note_on_c, 5, 69, 114
7, 410934, Note_off_c, 5, 69, 64
7, 410940, Note_on_c, 5, 69, 114
7, 411060, Note_off_c, 5, 69, 64
7, 411780, Note_on_c, 5, 69, 114
7, 411894, Note_off_c, 5, 69, 64
7, 411900, Note_on_c, 5, 69, 114
7, 412014, Note_off_c, 5, 69, 64
7, 412020, Note_on_c, 5, 69, 114
7, 412140, Note_off_c, 5, 69, 64
7, 412860, Note_on_c, 5, 76, 114
7, 412974, Note_off_c, 5, 76, 64
7, 412980, Note_on_c, 5, 76, 114
7, 413094, Note_off_c, 5, 76, 64
7, 413100, Note_on_c, 5, 76, 114
7, 413220, Note_off_c, 5, 76, 64
7, 413940, Note_on_c, 5, 76, 114
7, 414054, Note_off_c, 5, 76, 64
7, 414060, Note_on_c, 5, 76, 114
7, 414174, Note_off_c, 5, 76, 64
7, 414180, Note_on_c, 5, 76, 114
7, 414300, Note_off_c, 5, 76, 64
7, 414720, Note_on_c, 5, 57, 80
7, 414720, Note_on_c, 5, 69, 80
7, 414912, Note_off_c, 5, 69, 64
7, 414912, Note_off_c, 5, 57, 64
7, 415200, Note_on_c, 5, 69, 80
7, 415200, Note_on_c, 5, 57, 80
7, 415392, Note_off_c, 5, 57, 64
7, 415392, Note_off_c, 5, 69, 64
7, 415680, Note_on_c, 5, 57, 80
7, 415680, Note_on_c, 5, 69, 80
7, 415872, Note_off_c, 5, 69, 64
7, 415872, Note_off_c, 5, 57, 64
7, 416160, Note_on_c, 5, 69, 80
7, 416160, Note_on_c, 5, 57, 80
7, 416352, Note_off_c, 5, 57, 64
7, 416352, Note_off_c, 5, 69, 64
7, 416640, Note_on_c, 5, 64, 64
7, 416640, Note_on_c, 5, 76, 64
7, 416832, Note_off_c, 5, 76, 64
7, 416832, Note_off_c, 5, 64, 64
7, 417120, Note_on_c, 5, 76, 61
7, 417120, Note_on_c, 5, 64, 61
7, 417312, Note_off_c, 5, 64, 64
7, 417312, Note_off_c, 5, 76, 64
7, 417600, Note_on_c, 5, 64, 57
7, 417600, Note_on_c, 5, 76, 57
7, 417792, Note_off_c, 5, 76, 64
7, 417792, Note_off_c, 5, 64, 64
7, 418080, Note_on_c, 5, 76, 53
7, 418080, Note_on_c, 5, 64, 53
7, 418272, Note_off_c, 5, 64, 64
7, 418272, Note_off_c, 5, 76, 64
7, 418560, Note_on_c, 5, 69, 60
7, 418560, Note_on_c, 5, 57, 60
7, 418752, Note_off_c, 5, 57, 64
7, 418752, Note_off_c, 5, 69, 64
7, 420000, Note_on_c, 5, 76, 50
7, 420144, Note_off_c, 5, 76, 64
7, 420480, Note_on_c, 5, 57, 50
7, 420480, Note_on_c, 5, 69, 50
7, 420624, Note_off_c, 5, 69, 64
7, 420624, Note_off_c, 5, 57, 64
7, 420960, Note_on_c, 5, 76, 50
7, 421104, Note_off_c, 5, 76, 64
7, 421440, Note_on_c, 5, 69, 50
7, 421440, Note_on_c, 5, 57, 50
7, 421584, Note_off_c, 5, 57, 64
7, 421584, Note_off_c, 5, 69, 64
7, 421920, Note_on_c, 5, 76, 50
7, 422064, Note_off_c, 5, 76, 64
7, 422400, Note_on_c, 5, 57, 50
7, 422400, Note_on_c, 5, 69, 50
7, 422544, Note_off_c, 5, 69, 64
7, 422544, Note_off_c, 5, 57, 64
7, 423840, Note_on_c, 5, 76, 50
7, 423984, Note_off_c, 5, 76, 64
7, 424320, Note_on_c, 5, 69, 50
7, 424320, Note_on_c, 5, 57, 50
7, 424464, Note_off_c, 5, 57, 64
7, 424464, Note_off_c, 5, 69, 64
7, 425280, Note_on_c, 5, 76, 50
7, 425280, Note_on_c, 5, 69, 50
7, 425424, Note_off_c, 5, 69, 64
7, 425424, Note_off_c, 5, 76, 64
7, 425760, Note_on_c, 5, 69, 50
7, 425760, Note_on_c, 5, 76, 50
7, 425904, Note_off_c, 5, 76, 64
7, 425904, Note_off_c, 5, 69, 64
7, 426240, Note_on_c, 5, 74, 50
7, 426240, Note_on_c, 5, 62, 50
7, 426466, Note_off_c, 5, 62, 64
7, 426466, Note_off_c, 5, 74, 64
7, 427200, Note_on_c, 5, 81, 58
7, 427200, Note_on_c, 5, 69, 58
7, 430306, Note_off_c, 5, 69, 64
7, 430306, Note_off_c, 5, 81, 64
7, 431040, Note_on_c, 5, 69, 58
7, 431040, Note_on_c, 5, 81, 58
7, 434146, Note_off_c, 5, 81, 64
7, 434146, Note_off_c, 5, 69, 64
7, 434400, Note_on_c, 5, 62, 75
7, 434400, Note_on_c, 5, 74, 75
7, 434544, Note_off_c, 5, 74, 64
7, 434544, Note_off_c, 5, 62, 64
7, 434880, Note_on_c, 5, 62, 75
7, 434880, Note_on_c, 5, 74, 75
7, 435024, Note_off_c, 5, 74, 64
7, 435024, Note_off_c, 5, 62, 64
7, 435360, Note_on_c, 5, 74, 75
7, 435360, Note_on_c, 5, 62, 75
7, 435504, Note_off_c, 5, 62, 64
7, 435504, Note_off_c, 5, 74, 64
7, 435840, Note_on_c, 5, 69, 75
7, 435840, Note_on_c, 5, 76, 75
7, 435984, Note_off_c, 5, 76, 64
7, 435984, Note_off_c, 5, 69, 64
7, 436320, Note_on_c, 5, 76, 75
7, 436320, Note_on_c, 5, 69, 75
7, 436464, Note_off_c, 5, 69, 64
7, 436464, Note_off_c, 5, 76, 64
7, 436800, Note_on_c, 5, 69, 75
7, 436800, Note_on_c, 5, 76, 75
7, 436944, Note_off_c, 5, 76, 64
7, 436944, Note_off_c, 5, 69, 64
7, 437280, Note_on_c, 5, 76, 75
7, 437280, Note_on_c, 5, 69, 75
7, 437424, Note_off_c, 5, 69, 64
7, 437424, Note_off_c, 5, 76, 64
7, 437760, Note_on_c, 5, 62, 75
7, 437760, Note_on_c, 5, 74, 75
7, 437904, Note_off_c, 5, 74, 64
7, 437904, Note_off_c, 5, 62, 64
7, 438240, Note_on_c, 5, 62, 75
7, 438240, Note_on_c, 5, 74, 75
7, 438384, Note_off_c, 5, 74, 64
7, 438384, Note_off_c, 5, 62, 64
7, 438720, Note_on_c, 5, 62, 75
7, 438720, Note_on_c, 5, 74, 75
7, 438864, Note_off_c, 5, 74, 64
7, 438864, Note_off_c, 5, 62, 64
7, 439200, Note_on_c, 5, 74, 75
7, 439200, Note_on_c, 5, 62, 75
7, 439344, Note_off_c, 5, 62, 64
7, 439344, Note_off_c, 5, 74, 64
7, 439680, Note_on_c, 5, 76, 75
7, 439824, Note_off_c, 5, 76, 64
7, 440160, Note_on_c, 5, 76, 75
7, 440304, Note_off_c, 5, 76, 64
7, 440640, Note_on_c, 5, 62, 75
7, 440640, Note_on_c, 5, 74, 75
7, 440784, Note_off_c, 5, 74, 64
7, 440784, Note_off_c, 5, 62, 64
7, 441120, Note_on_c, 5, 74, 75
7, 441120, Note_on_c, 5, 62, 75
7, 441264, Note_off_c, 5, 62, 64
7, 441264, Note_off_c, 5, 74, 64
7, 441600, Note_on_c, 5, 62, 75
7, 441600, Note_on_c, 5, 74, 75
7, 441744, Note_off_c, 5, 74, 64
7, 441744, Note_off_c, 5, 62, 64
7, 442080, Note_on_c, 5, 62, 75
7, 442080, Note_on_c, 5, 74, 75
7, 442224, Note_off_c, 5, 74, 64
7, 442224, Note_off_c, 5, 62, 64
7, 442560, Note_on_c, 5, 62, 75
7, 442560, Note_on_c, 5, 74, 75
7, 442704, Note_off_c, 5, 74, 64
7, 442704, Note_off_c, 5, 62, 64
7, 443040, Note_on_c, 5, 62, 75
7, 443040, Note_on_c, 5, 74, 75
7, 443184, Note_off_c, 5, 74, 64
7, 443184, Note_off_c, 5, 62, 64
7, 443520, Note_on_c, 5, 62, 75
7, 443520, Note_on_c, 5, 74, 75
7, 443664, Note_off_c, 5, 74, 64
7, 443664, Note_off_c, 5, 62, 64
7, 444000, Note_on_c, 5, 62, 127
7, 444000, Note_on_c, 5, 74, 127
7, 444144, Note_off_c, 5, 74, 64
7, 444144, Note_off_c, 5, 62, 64
7, 447840, Note_on_c, 5, 62, 127
7, 447840, Note_on_c, 5, 74, 127
7, 447984, Note_off_c, 5, 74, 64
7, 447984, Note_off_c, 5, 62, 64
7, 455520, Note_on_c, 5, 57, 80
7, 455520, Note_on_c, 5, 69, 80
7, 455904, Note_off_c, 5, 69, 64
7, 455904, Note_off_c, 5, 57, 64
7, 456480, Note_on_c, 5, 76, 80
7, 456864, Note_off_c, 5, 76, 64
7, 457440, Note_on_c, 5, 69, 80
7, 457440, Note_on_c, 5, 57, 80
7, 457824, Note_off_c, 5, 57, 64
7, 457824, Note_off_c, 5, 69, 64
7, 458400, Note_on_c, 5, 76, 80
7, 458784, Note_off_c, 5, 76, 64
7, 465120, Note_on_c, 5, 57, 80
7, 465120, Note_on_c, 5, 69, 80
7, 465504, Note_off_c, 5, 69, 64
7, 465504, Note_off_c, 5, 57, 64
7, 466080, Note_on_c, 5, 76, 80
7, 466464, Note_off_c, 5, 76, 64
7, 467040, Note_on_c, 5, 69, 80
7, 467040, Note_on_c, 5, 57, 80
7, 467424, Note_off_c, 5, 57, 64
7, 467424, Note_off_c, 5, 69, 64
7, 468000, Note_on_c, 5, 76, 80
7, 468384, Note_off_c, 5, 76, 64
7, 487680, Note_on_c, 5, 76, 120
7, 489408, Note_off_c, 5, 76, 64
7, 489600, Note_on_c, 5, 69, 120
7, 489600, Note_on_c, 5, 81, 120
7, 490368, Note_off_c, 5, 81, 64
7, 490368, Note_off_c, 5, 69, 64
7, 490560, Note_on_c, 5, 76, 120
7, 491328, Note_off_c, 5, 76, 64
7, 491520, Note_on_c, 5, 69, 120
7, 491520, Note_on_c, 5, 81, 120
7, 492288, Note_off_c, 5, 81, 64
7, 492288, Note_off_c, 5, 69, 64
7, 492480, Note_on_c, 5, 76, 120
7, 493248, Note_off_c, 5, 76, 64
7, 493440, Note_on_c, 5, 76, 127
7, 495168, Note_off_c, 5, 76, 64
7, 495360, Note_on_c, 5, 69, 120
7, 495360, Note_on_c, 5, 81, 120
7, 496128, Note_off_c, 5, 81, 64
7, 496128, Note_off_c, 5, 69, 64
7, 496320, Note_on_c, 5, 76, 120
7, 497088, Note_off_c, 5, 76, 64
7, 497280, Note_on_c, 5, 69, 120
7, 497280, Note_on_c, 5, 81, 120
7, 498048, Note_off_c, 5, 81, 64
7, 498048, Note_off_c, 5, 69, 64
7, 498240, Note_on_c, 5, 69, 120
7, 498240, Note_on_c, 5, 81, 120
7, 499008, Note_off_c, 5, 81, 64
7, 499008, Note_off_c, 5, 69, 64
7, 501120, Note_on_c, 5, 57, 127
7, 501120, Note_on_c, 5, 69, 127
7, 501216, Note_off_c, 5, 69, 64
7, 501216, Note_off_c, 5, 57, 64
7, 501360, Note_on_c, 5, 69, 82
7, 501360, Note_on_c, 5, 57, 82
7, 501456, Note_off_c, 5, 57, 64
7, 501456, Note_off_c, 5, 69, 64
7, 501600, Note_on_c, 5, 69, 112
7, 501600, Note_on_c, 5, 57, 112
7, 501696, Note_off_c, 5, 57, 64
7, 501696, Note_off_c, 5, 69, 64
7, 501840, Note_on_c, 5, 57, 82
7, 501840, Note_on_c, 5, 69, 82
7, 501936, Note_off_c, 5, 69, 64
7, 501936, Note_off_c, 5, 57, 64
7, 502080, Note_on_c, 5, 57, 82
7, 502080, Note_on_c, 5, 69, 82
7, 502176, Note_off_c, 5, 69, 64
7, 502176, Note_off_c, 5, 57, 64
7, 502320, Note_on_c, 5, 57, 82
7, 502320, Note_on_c, 5, 69, 82
7, 502416, Note_off_c, 5, 69, 64
7, 502416, Note_off_c, 5, 57, 64
7, 502560, Note_on_c, 5, 69, 82
7, 502560, Note_on_c, 5, 57, 82
7, 502656, Note_off_c, 5, 57, 64
7, 502656, Note_off_c, 5, 69, 64
7, 502800, Note_on_c, 5, 57, 82
7, 502800, Note_on_c, 5, 69, 82
7, 502896, Note_off_c, 5, 69, 64
7, 502896, Note_off_c, 5, 57, 64
7, 503040, Note_on_c, 5, 69, 82
7, 503040, Note_on_c, 5, 57, 82
7, 503136, Note_off_c, 5, 57, 64
7, 503136, Note_off_c, 5, 69, 64
7, 503280, Note_on_c, 5, 57, 82
7, 503280, Note_on_c, 5, 69, 82
7, 503376, Note_off_c, 5, 69, 64
7, 503376, Note_off_c, 5, 57, 64
7, 503520, Note_on_c, 5, 69, 112
7, 503520, Note_on_c, 5, 57, 112
7, 503616, Note_off_c, 5, 57, 64
7, 503616, Note_off_c, 5, 69, 64
7, 503760, Note_on_c, 5, 57, 82
7, 503760, Note_on_c, 5, 69, 82
7, 503856, Note_off_c, 5, 69, 64
7, 503856, Note_off_c, 5, 57, 64
7, 504000, Note_on_c, 5, 57, 82
7, 504000, Note_on_c, 5, 69, 82
7, 504096, Note_off_c, 5, 69, 64
7, 504096, Note_off_c, 5, 57, 64
7, 504240, Note_on_c, 5, 69, 82
7, 504240, Note_on_c, 5, 57, 82
7, 504336, Note_off_c, 5, 57, 64
7, 504336, Note_off_c, 5, 69, 64
7, 504480, Note_on_c, 5, 57, 82
7, 504480, Note_on_c, 5, 69, 82
7, 504576, Note_off_c, 5, 69, 64
7, 504576, Note_off_c, 5, 57, 64
7, 504720, Note_on_c, 5, 69, 82
7, 504720, Note_on_c, 5, 57, 82
7, 504816, Note_off_c, 5, 57, 64
7, 504816, Note_off_c, 5, 69, 64
7, 504960, Note_on_c, 5, 69, 82
7, 504960, Note_on_c, 5, 57, 82
7, 505056, Note_off_c, 5, 57, 64
7, 505056, Note_off_c, 5, 69, 64
7, 505200, Note_on_c, 5, 57, 82
7, 505200, Note_on_c, 5, 69, 82
7, 505296, Note_off_c, 5, 69, 64
7, 505296, Note_off_c, 5, 57, 64
7, 505440, Note_on_c, 5, 69, 112
7, 505440, Note_on_c, 5, 57, 112
7, 505536, Note_off_c, 5, 57, 64
7, 505536, Note_off_c, 5, 69, 64
7, 505680, Note_on_c, 5, 57, 82
7, 505680, Note_on_c, 5, 69, 82
7, 505776, Note_off_c, 5, 69, 64
7, 505776, Note_off_c, 5, 57, 64
7, 505920, Note_on_c, 5, 57, 82
7, 505920, Note_on_c, 5, 69, 82
7, 506016, Note_off_c, 5, 69, 64
7, 506016, Note_off_c, 5, 57, 64
7, 506160, Note_on_c, 5, 69, 82
7, 506160, Note_on_c, 5, 57, 82
7, 506256, Note_off_c, 5, 57, 64
7, 506256, Note_off_c, 5, 69, 64
7, 506400, Note_on_c, 5, 69, 112
7, 506400, Note_on_c, 5, 57, 112
7, 506496, Note_off_c, 5, 57, 64
7, 506496, Note_off_c, 5, 69, 64
7, 506640, Note_on_c, 5, 57, 82
7, 506640, Note_on_c, 5, 69, 82
7, 506736, Note_off_c, 5, 69, 64
7, 506736, Note_off_c, 5, 57, 64
7, 506880, Note_on_c, 5, 69, 82
7, 506880, Note_on_c, 5, 57, 82
7, 506976, Note_off_c, 5, 57, 64
7, 506976, Note_off_c, 5, 69, 64
7, 507120, Note_on_c, 5, 69, 82
7, 507120, Note_on_c, 5, 57, 82
7, 507216, Note_off_c, 5, 57, 64
7, 507216, Note_off_c, 5, 69, 64
7, 507360, Note_on_c, 5, 69, 112
7, 507360, Note_on_c, 5, 57, 112
7, 507456, Note_off_c, 5, 57, 64
7, 507456, Note_off_c, 5, 69, 64
7, 507600, Note_on_c, 5, 57, 82
7, 507600, Note_on_c, 5, 69, 82
7, 507696, Note_off_c, 5, 69, 64
7, 507696, Note_off_c, 5, 57, 64
7, 507840, Note_on_c, 5, 57, 82
7, 507840, Note_on_c, 5, 69, 82
7, 507936, Note_off_c, 5, 69, 64
7, 507936, Note_off_c, 5, 57, 64
7, 508080, Note_on_c, 5, 57, 82
7, 508080, Note_on_c, 5, 69, 82
7, 508176, Note_off_c, 5, 69, 64
7, 508176, Note_off_c, 5, 57, 64
7, 508320, Note_on_c, 5, 57, 82
7, 508320, Note_on_c, 5, 69, 82
7, 508416, Note_off_c, 5, 69, 64
7, 508416, Note_off_c, 5, 57, 64
7, 508560, Note_on_c, 5, 57, 82
7, 508560, Note_on_c, 5, 69, 82
7, 508656, Note_off_c, 5, 69, 64
7, 508656, Note_off_c, 5, 57, 64
7, 508800, Note_on_c, 5, 57, 82
7, 508800, Note_on_c, 5, 69, 82
7, 508896, Note_off_c, 5, 69, 64
7, 508896, Note_off_c, 5, 57, 64
7, 509100, Note_on_c, 5, 69, 81
7, 509214, Note_off_c, 5, 69, 64
7, 509220, Note_on_c, 5, 69, 81
7, 509334, Note_off_c, 5, 69, 64
7, 509340, Note_on_c, 5, 69, 108
7, 509454, Note_off_c, 5, 69, 64
7, 511380, Note_on_c, 5, 69, 81
7, 511494, Note_off_c, 5, 69, 64
7, 511500, Note_on_c, 5, 69, 81
7, 511614, Note_off_c, 5, 69, 64
7, 511620, Note_on_c, 5, 69, 108
7, 511734, Note_off_c, 5, 69, 64
7, 513660, Note_on_c, 5, 69, 81
7, 513774, Note_off_c, 5, 69, 64
7, 513780, Note_on_c, 5, 69, 81
7, 513894, Note_off_c, 5, 69, 64
7, 513900, Note_on_c, 5, 69, 108
7, 514014, Note_off_c, 5, 69, 64
7, 514740, Note_on_c, 5, 69, 81
7, 514854, Note_off_c, 5, 69, 64
7, 514860, Note_on_c, 5, 69, 81
7, 514974, Note_off_c, 5, 69, 64
7, 514980, Note_on_c, 5, 69, 108
7, 515094, Note_off_c, 5, 69, 64
7, 515820, Note_on_c, 5, 69, 81
7, 515934, Note_off_c, 5, 69, 64
7, 515940, Note_on_c, 5, 69, 81
7, 516054, Note_off_c, 5, 69, 64
7, 516060, Note_on_c, 5, 69, 108
7, 516174, Note_off_c, 5, 69, 64
7, 516900, Note_on_c, 5, 69, 81
7, 517014, Note_off_c, 5, 69, 64
7, 517020, Note_on_c, 5, 69, 81
7, 517134, Note_off_c, 5, 69, 64
7, 517140, Note_on_c, 5, 69, 108
7, 517254, Note_off_c, 5, 69, 64
7, 517680, Note_on_c, 5, 64, 81
7, 517680, Note_on_c, 5, 76, 81
7, 517776, Note_off_c, 5, 76, 64
7, 517776, Note_off_c, 5, 64, 64
7, 518760, Note_on_c, 5, 66, 64
7, 518760, Note_on_c, 5, 78, 64
7, 521866, Note_off_c, 5, 78, 64
7, 521866, Note_off_c, 5, 66, 64
7, 522600, Note_on_c, 5, 66, 64
7, 522600, Note_on_c, 5, 78, 64
7, 525706, Note_off_c, 5, 78, 64
7, 525706, Note_off_c, 5, 66, 64
7, 529320, Note_on_c, 5, 57, 80
7, 529320, Note_on_c, 5, 69, 80
7, 529440, Note_off_c, 5, 69, 64
7, 529440, Note_off_c, 5, 57, 64
7, 532200, Note_on_c, 5, 57, 80
7, 532200, Note_on_c, 5, 69, 80
7, 532320, Note_off_c, 5, 69, 64
7, 532320, Note_off_c, 5, 57, 64
7, 534120, Note_on_c, 5, 62, 80
7, 534120, Note_on_c, 5, 74, 80
7, 534240, Note_off_c, 5, 74, 64
7, 534240, Note_off_c, 5, 62, 64
7, 536040, Note_on_c, 5, 62, 80
7, 536040, Note_on_c, 5, 74, 80
7, 536160, Note_off_c, 5, 74, 64
7, 536160, Note_off_c, 5, 62, 64
7, 537960, Note_on_c, 5, 62, 80
7, 537960, Note_on_c, 5, 74, 80
7, 538080, Note_off_c, 5, 74, 64
7, 538080, Note_off_c, 5, 62, 64
7, 539880, Note_on_c, 5, 62, 80
7, 539880, Note_on_c, 5, 74, 80
7, 540000, Note_off_c, 5, 74, 64
7, 540000, Note_off_c, 5, 62, 64
7, 541800, Note_on_c, 5, 72, 80
7, 541920, Note_off_c, 5, 72, 64
7, 543720, Note_on_c, 5, 72, 80
7, 543840, Note_off_c, 5, 72, 64
7, 545640, Note_on_c, 5, 57, 80
7, 545640, Note_on_c, 5, 69, 80
7, 545760, Note_off_c, 5, 69, 64
7, 545760, Note_off_c, 5, 57, 64
7, 551400, Note_on_c, 5, 57, 80
7, 551400, Note_on_c, 5, 69, 80
7, 551520, Note_off_c, 5, 69, 64
7, 551520, Note_off_c, 5, 57, 64
7, 553320, Note_on_c, 5, 76, 80
7, 553440, Note_off_c, 5, 76, 64
7, 555240, Note_on_c, 5, 76, 80
7, 555360, Note_off_c, 5, 76, 64
7, 557160, Note_on_c, 5, 76, 80
7, 557280, Note_off_c, 5, 76, 64
7, 559080, Note_on_c, 5, 76, 80
7, 559200, Note_off_c, 5, 76, 64
7, 561000, Note_on_c, 5, 76, 80
7, 561120, Note_off_c, 5, 76, 64
7, 562920, Note_on_c, 5, 76, 80
7, 563040, Note_off_c, 5, 76, 64
7, 564840, Note_on_c, 5, 76, 80
7, 564960, Note_off_c, 5, 76, 64
7, 566760, Note_on_c, 5, 76, 80
7, 566880, Note_off_c, 5, 76, 64
7, 568680, Note_on_c, 5, 76, 80
7, 571560, Note_off_c, 5, 76, 64
7, 571560, Note_on_c, 5, 69, 77
7, 571680, Note_off_c, 5, 69, 64
7, 571860, Note_on_c, 5, 69, 77
7, 571974, Note_off_c, 5, 69, 64
7, 571980, Note_on_c, 5, 69, 77
7, 572094, Note_off_c, 5, 69, 64
7, 572100, Note_on_c, 5, 69, 77
7, 572220, Note_off_c, 5, 69, 64
7, 572940, Note_on_c, 5, 69, 77
7, 573054, Note_off_c, 5, 69, 64
7, 573060, Note_on_c, 5, 69, 77
7, 573174, Note_off_c, 5, 69, 64
7, 573180, Note_on_c, 5, 69, 77
7, 573294, Note_off_c, 5, 69, 64
7, 574020, Note_on_c, 5, 76, 77
7, 574134, Note_off_c, 5, 76, 64
7, 574140, Note_on_c, 5, 76, 77
7, 574254, Note_off_c, 5, 76, 64
7, 574260, Note_on_c, 5, 76, 77
7, 574380, Note_off_c, 5, 76, 64
7, 575100, Note_on_c, 5, 76, 77
7, 575214, Note_off_c, 5, 76, 64
7, 575220, Note_on_c, 5, 76, 77
7, 575334, Note_off_c, 5, 76, 64
7, 575340, Note_on_c, 5, 76, 77
7, 575460, Note_off_c, 5, 76, 64
7, 575880, Note_on_c, 5, 69, 72
7, 575880, Note_on_c, 5, 57, 72
7, 576024, Note_off_c, 5, 57, 64
7, 576024, Note_off_c, 5, 69, 64
7, 576360, Note_on_c, 5, 57, 72
7, 576360, Note_on_c, 5, 69, 72
7, 576504, Note_off_c, 5, 69, 64
7, 576504, Note_off_c, 5, 57, 64
7, 576840, Note_on_c, 5, 69, 72
7, 576840, Note_on_c, 5, 57, 72
7, 576984, Note_off_c, 5, 57, 64
7, 576984, Note_off_c, 5, 69, 64
7, 577320, Note_on_c, 5, 69, 72
7, 577320, Note_on_c, 5, 57, 72
7, 577464, Note_off_c, 5, 57, 64
7, 577464, Note_off_c, 5, 69, 64
7, 577800, Note_on_c, 5, 76, 72
7, 577944, Note_off_c, 5, 76, 64
7, 578280, Note_on_c, 5, 76, 72
7, 578424, Note_off_c, 5, 76, 64
7, 578760, Note_on_c, 5, 76, 72
7, 578904, Note_off_c, 5, 76, 64
7, 579240, Note_on_c, 5, 76, 72
7, 579384, Note_off_c, 5, 76, 64
7, 579720, Note_on_c, 5, 69, 77
7, 579840, Note_off_c, 5, 69, 64
7, 580020, Note_on_c, 5, 69, 77
7, 580134, Note_off_c, 5, 69, 64
7, 580140, Note_on_c, 5, 69, 77
7, 580254, Note_off_c, 5, 69, 64
7, 580260, Note_on_c, 5, 69, 77
7, 580380, Note_off_c, 5, 69, 64
7, 581100, Note_on_c, 5, 69, 77
7, 581214, Note_off_c, 5, 69, 64
7, 581220, Note_on_c, 5, 69, 77
7, 581334, Note_off_c, 5, 69, 64
7, 581340, Note_on_c, 5, 69, 77
7, 581454, Note_off_c, 5, 69, 64
7, 582180, Note_on_c, 5, 76, 77
7, 582294, Note_off_c, 5, 76, 64
7, 582300, Note_on_c, 5, 76, 77
7, 582414, Note_off_c, 5, 76, 64
7, 582420, Note_on_c, 5, 76, 77
7, 582540, Note_off_c, 5, 76, 64
7, 583260, Note_on_c, 5, 76, 77
7, 583374, Note_off_c, 5, 76, 64
7, 583380, Note_on_c, 5, 76, 77
7, 583494, Note_off_c, 5, 76, 64
7, 583500, Note_on_c, 5, 76, 77
7, 583620, Note_off_c, 5, 76, 64
7, 584040, Note_on_c, 5, 69, 80
7, 584040, Note_on_c, 5, 61, 80
7, 584232, Note_off_c, 5, 61, 64
7, 584232, Note_off_c, 5, 69, 64
7, 584520, Note_on_c, 5, 69, 80
7, 584520, Note_on_c, 5, 61, 80
7, 584712, Note_off_c, 5, 61, 64
7, 584712, Note_off_c, 5, 69, 64
7, 585000, Note_on_c, 5, 69, 80
7, 585000, Note_on_c, 5, 61, 80
7, 585192, Note_off_c, 5, 61, 64
7, 585192, Note_off_c, 5, 69, 64
7, 585480, Note_on_c, 5, 69, 80
7, 585480, Note_on_c, 5, 61, 80
7, 585672, Note_off_c, 5, 61, 64
7, 585672, Note_off_c, 5, 69, 64
7, 585960, Note_on_c, 5, 64, 64
7, 585960, Note_on_c, 5, 71, 64
7, 586152, Note_off_c, 5, 71, 64
7, 586152, Note_off_c, 5, 64, 64
7, 586440, Note_on_c, 5, 71, 61
7, 586440, Note_on_c, 5, 64, 61
7, 586632, Note_off_c, 5, 64, 64
7, 586632, Note_off_c, 5, 71, 64
7, 586920, Note_on_c, 5, 64, 57
7, 586920, Note_on_c, 5, 71, 57
7, 587112, Note_off_c, 5, 71, 64
7, 587112, Note_off_c, 5, 64, 64
7, 587400, Note_on_c, 5, 71, 53
7, 587400, Note_on_c, 5, 64, 53
7, 587592, Note_off_c, 5, 64, 64
7, 587592, Note_off_c, 5, 71, 64
7, 587880, Note_on_c, 5, 76, 64
7, 587880, Note_on_c, 5, 64, 64
7, 588072, Note_off_c, 5, 64, 64
7, 588072, Note_off_c, 5, 76, 64
7, 588360, Note_on_c, 5, 76, 61
7, 588360, Note_on_c, 5, 64, 61
7, 588552, Note_off_c, 5, 64, 64
7, 588552, Note_off_c, 5, 76, 64
7, 588840, Note_on_c, 5, 76, 57
7, 588840, Note_on_c, 5, 64, 57
7, 589032, Note_off_c, 5, 64, 64
7, 589032, Note_off_c, 5, 76, 64
7, 589320, Note_on_c, 5, 76, 53
7, 589320, Note_on_c, 5, 64, 53
7, 589512, Note_off_c, 5, 64, 64
7, 589512, Note_off_c, 5, 76, 64
7, 589800, Note_on_c, 5, 64, 64
7, 589800, Note_on_c, 5, 76, 64
7, 589992, Note_off_c, 5, 76, 64
7, 589992, Note_off_c, 5, 64, 64
7, 590280, Note_on_c, 5, 64, 61
7, 590280, Note_on_c, 5, 76, 61
7, 590472, Note_off_c, 5, 76, 64
7, 590472, Note_off_c, 5, 64, 64
7, 590760, Note_on_c, 5, 64, 57
7, 590760, Note_on_c, 5, 76, 57
7, 590952, Note_off_c, 5, 76, 64
7, 590952, Note_off_c, 5, 64, 64
7, 591240, Note_on_c, 5, 76, 53
7, 591240, Note_on_c, 5, 64, 53
7, 591432, Note_off_c, 5, 64, 64
7, 591432, Note_off_c, 5, 76, 64
7, 591720, Note_on_c, 5, 64, 64
7, 591720, Note_on_c, 5, 76, 64
7, 591912, Note_off_c, 5, 76, 64
7, 591912, Note_off_c, 5, 64, 64
7, 592200, Note_on_c, 5, 64, 61
7, 592200, Note_on_c, 5, 76, 61
7, 592392, Note_off_c, 5, 76, 64
7, 592392, Note_off_c, 5, 64, 64
7, 592680, Note_on_c, 5, 64, 57
7, 592680, Note_on_c, 5, 76, 57
7, 592872, Note_off_c, 5, 76, 64
7, 592872, Note_off_c, 5, 64, 64
7, 593160, Note_on_c, 5, 76, 53
7, 593160, Note_on_c, 5, 64, 53
7, 593352, Note_off_c, 5, 64, 64
7, 593352, Note_off_c, 5, 76, 64
7, 593640, Note_on_c, 5, 67, 90
7, 593640, Note_on_c, 5, 79, 90
7, 595368, Note_off_c, 5, 79, 64
7, 595368, Note_off_c, 5, 67, 64
7, 595560, Note_on_c, 5, 74, 127
7, 595560, Note_on_c, 5, 62, 127
7, 597288, Note_off_c, 5, 62, 64
7, 597288, Note_off_c, 5, 74, 64
7, 597480, Note_on_c, 5, 81, 120
7, 597480, Note_on_c, 5, 69, 120
7, 598248, Note_off_c, 5, 69, 64
7, 598248, Note_off_c, 5, 81, 64
7, 598440, Note_on_c, 5, 81, 120
7, 598440, Note_on_c, 5, 69, 120
7, 599208, Note_off_c, 5, 69, 64
7, 599208, Note_off_c, 5, 81, 64
7, 599400, Note_on_c, 5, 81, 120
7, 599400, Note_on_c, 5, 69, 120
7, 600168, Note_off_c, 5, 69, 64
7, 600168, Note_off_c, 5, 81, 64
7, 600360, Note_on_c, 5, 76, 120
7, 601128, Note_off_c, 5, 76, 64
7, 601320, Note_on_c, 5, 64, 64
7, 601320, Note_on_c, 5, 76, 64
7, 601512, Note_off_c, 5, 76, 64
7, 601512, Note_off_c, 5, 64, 64
7, 601800, Note_on_c, 5, 76, 61
7, 601800, Note_on_c, 5, 64, 61
7, 601992, Note_off_c, 5, 64, 64
7, 601992, Note_off_c, 5, 76, 64
7, 602280, Note_on_c, 5, 64, 57
7, 602280, Note_on_c, 5, 76, 57
7, 602472, Note_off_c, 5, 76, 64
7, 602472, Note_off_c, 5, 64, 64
7, 602760, Note_on_c, 5, 64, 53
7, 602760, Note_on_c, 5, 76, 53
7, 602952, Note_off_c, 5, 76, 64
7, 602952, Note_off_c, 5, 64, 64
7, 603240, Note_on_c, 5, 64, 64
7, 603240, Note_on_c, 5, 76, 64
7, 603432, Note_off_c, 5, 76, 64
7, 603432, Note_off_c, 5, 64, 64
7, 603720, Note_on_c, 5, 76, 61
7, 603720, Note_on_c, 5, 64, 61
7, 603912, Note_off_c, 5, 64, 64
7, 603912, Note_off_c, 5, 76, 64
7, 604200, Note_on_c, 5, 64, 57
7, 604200, Note_on_c, 5, 76, 57
7, 604392, Note_off_c, 5, 76, 64
7, 604392, Note_off_c, 5, 64, 64
7, 604680, Note_on_c, 5, 64, 53
7, 604680, Note_on_c, 5, 76, 53
7, 604872, Note_off_c, 5, 76, 64
7, 604872, Note_off_c, 5, 64, 64
7, 605160, Note_on_c, 5, 64, 64
7, 605160, Note_on_c, 5, 76, 64
7, 605352, Note_off_c, 5, 76, 64
7, 605352, Note_off_c, 5, 64, 64
7, 605640, Note_on_c, 5, 76, 61
7, 605640, Note_on_c, 5, 64, 61
7, 605832, Note_off_c, 5, 64, 64
7, 605832, Note_off_c, 5, 76, 64
7, 606120, Note_on_c, 5, 64, 57
7, 606120, Note_on_c, 5, 76, 57
7, 606312, Note_off_c, 5, 76, 64
7, 606312, Note_off_c, 5, 64, 64
7, 606600, Note_on_c, 5, 64, 53
7, 606600, Note_on_c, 5, 76, 53
7, 606792, Note_off_c, 5, 76, 64
7, 606792, Note_off_c, 5, 64, 64
7, 607080, Note_on_c, 5, 64, 63
7, 607080, Note_on_c, 5, 76, 63
7, 607272, Note_off_c, 5, 76, 64
7, 607272, Note_off_c, 5, 64, 64
7, 607560, Note_on_c, 5, 76, 77
7, 607560, Note_on_c, 5, 64, 77
7, 607752, Note_off_c, 5, 64, 64
7, 607752, Note_off_c, 5, 76, 64
7, 608040, Note_on_c, 5, 64, 92
7, 608040, Note_on_c, 5, 76, 92
7, 608232, Note_off_c, 5, 76, 64
7, 608232, Note_off_c, 5, 64, 64
7, 608520, Note_on_c, 5, 64, 106
7, 608520, Note_on_c, 5, 76, 106
7, 608712, Note_off_c, 5, 76, 64
7, 608712, Note_off_c, 5, 64, 64
7, 609000, Note_on_c, 5, 67, 90
7, 609000, Note_on_c, 5, 79, 90
7, 610728, Note_off_c, 5, 79, 64
7, 610728, Note_off_c, 5, 67, 64
7, 610920, Note_on_c, 5, 74, 127
7, 610920, Note_on_c, 5, 62, 127
7, 612648, Note_off_c, 5, 62, 64
7, 612648, Note_off_c, 5, 74, 64
7, 612840, Note_on_c, 5, 81, 120
7, 612840, Note_on_c, 5, 69, 120
7, 613608, Note_off_c, 5, 69, 64
7, 613608, Note_off_c, 5, 81, 64
7, 613800, Note_on_c, 5, 81, 120
7, 613800, Note_on_c, 5, 69, 120
7, 614568, Note_off_c, 5, 69, 64
7, 614568, Note_off_c, 5, 81, 64
7, 614760, Note_on_c, 5, 81, 120
7, 614760, Note_on_c, 5, 69, 120
7, 615528, Note_off_c, 5, 69, 64
7, 615528, Note_off_c, 5, 81, 64
7, 615720, Note_on_c, 5, 76, 120
7, 616488, Note_off_c, 5, 76, 64
7, 616680, Note_on_c, 5, 57, 120
7, 616680, Note_on_c, 5, 69, 120
7, 616800, Note_off_c, 5, 69, 64
7, 616800, Note_off_c, 5, 57, 64
7, 617640, Note_on_c, 5, 76, 127
7, 619944, Note_off_c, 5, 76, 64
7, 620040, Note_on_c, 5, 76, 64
7, 620424, Note_off_c, 5, 76, 64
7, 620520, Note_on_c, 5, 57, 120
7, 620520, Note_on_c, 5, 69, 120
7, 620640, Note_off_c, 5, 69, 64
7, 620640, Note_off_c, 5, 57, 64
7, 621480, Note_on_c, 5, 76, 127
7, 623784, Note_off_c, 5, 76, 64
7, 623880, Note_on_c, 5, 76, 64
7, 624264, Note_off_c, 5, 76, 64
7, 624360, Note_on_c, 5, 76, 79
7, 624480, Note_off_c, 5, 76, 64
7, 624600, Note_on_c, 5, 76, 79
7, 624720, Note_off_c, 5, 76, 64
7, 624840, Note_on_c, 5, 76, 79
7, 624960, Note_off_c, 5, 76, 64
7, 625080, Note_on_c, 5, 76, 79
7, 625200, Note_off_c, 5, 76, 64
7, 625320, Note_on_c, 5, 76, 79
7, 625440, Note_off_c, 5, 76, 64
7, 625560, Note_on_c, 5, 76, 79
7, 625680, Note_off_c, 5, 76, 64
7, 625800, Note_on_c, 5, 76, 79
7, 625920, Note_off_c, 5, 76, 64
7, 626040, Note_on_c, 5, 76, 79
7, 626160, Note_off_c, 5, 76, 64
7, 626280, Note_on_c, 5, 76, 79
7, 626400, Note_off_c, 5, 76, 64
7, 626520, Note_on_c, 5, 76, 79
7, 626640, Note_off_c, 5, 76, 64
7, 626760, Note_on_c, 5, 71, 79
7, 626760, Note_on_c, 5, 76, 79
7, 626880, Note_off_c, 5, 76, 64
7, 626880, Note_off_c, 5, 71, 64
7, 627000, Note_on_c, 5, 76, 79
7, 627000, Note_on_c, 5, 73, 79
7, 627120, Note_off_c, 5, 73, 64
7, 627120, Note_off_c, 5, 76, 64
7, 627240, Note_on_c, 5, 74, 79
7, 627240, Note_on_c, 5, 76, 79
7, 627360, Note_off_c, 5, 76, 64
7, 627360, Note_off_c, 5, 74, 64
7, 627480, Note_on_c, 5, 76, 79
7, 627600, Note_off_c, 5, 76, 64
7, 627720, Note_on_c, 5, 78, 79
7, 627720, Note_on_c, 5, 76, 79
7, 627840, Note_off_c, 5, 76, 64
7, 627840, Note_off_c, 5, 78, 64
7, 627960, Note_on_c, 5, 76, 79
7, 627960, Note_on_c, 5, 80, 79
7, 628080, Note_off_c, 5, 80, 64
7, 628080, Note_off_c, 5, 76, 64
7, 628200, Note_on_c, 5, 81, 99
7, 628200, Note_on_c, 5, 69, 99
7, 628392, Note_off_c, 5, 69, 64
7, 628392, Note_off_c, 5, 81, 64
7, 629040, Note_on_c, 5, 69, 80
7, 629136, Note_off_c, 5, 69, 64
7, 629160, Note_on_c, 5, 69, 80
7, 629256, Note_off_c, 5, 69, 64
7, 629280, Note_on_c, 5, 69, 99
7, 629472, Note_off_c, 5, 69, 64
7, 630240, Note_on_c, 5, 69, 80
7, 630336, Note_off_c, 5, 69, 64
7, 630360, Note_on_c, 5, 69, 80
7, 630456, Note_off_c, 5, 69, 64
7, 630480, Note_on_c, 5, 69, 127
7, 630672, Note_off_c, 5, 69, 64
7, 630672, End_track
8, 0, Start_track
8, 0, Title_t, "Timpani"
8, 0, MIDI_port, 0
8, 0, Channel_prefix, 6
8, 0, Control_c, 6, 7, 90
8, 0, Control_c, 6, 10, 25
8, 0, Program_c, 6, 47
8, 0, Program_c, 6, 47
8, 0, Control_c, 6, 91, 66
8, 480, Control_c, 6, 10, 30
8, 6060, Note_on_c, 6, 52, 127
8, 6060, Note_on_c, 6, 52, 127
8, 6174, Note_off_c, 6, 52, 64
8, 6174, Note_off_c, 6, 52, 64
8, 6180, Note_on_c, 6, 52, 127
8, 6294, Note_off_c, 6, 52, 64
8, 6300, Note_on_c, 6, 52, 127
8, 6414, Note_off_c, 6, 52, 64
8, 8460, Note_on_c, 6, 52, 127
8, 8460, Note_on_c, 6, 52, 127
8, 8574, Note_off_c, 6, 52, 64
8, 8574, Note_off_c, 6, 52, 64
8, 8580, Note_on_c, 6, 52, 127
8, 8694, Note_off_c, 6, 52, 64
8, 8700, Note_on_c, 6, 52, 127
8, 8814, Note_off_c, 6, 52, 64
8, 10560, Note_on_c, 6, 52, 81
8, 10680, Note_off_c, 6, 52, 64
8, 11040, Note_on_c, 6, 52, 127
8, 11640, Note_off_c, 6, 52, 64
8, 12000, Note_on_c, 6, 52, 127
8, 12600, Note_off_c, 6, 52, 64
8, 12960, Note_on_c, 6, 52, 127
8, 13560, Note_off_c, 6, 52, 64
8, 13920, Note_on_c, 6, 52, 127
8, 14520, Note_off_c, 6, 52, 64
8, 14880, Note_on_c, 6, 52, 127
8, 15480, Note_off_c, 6, 52, 64
8, 15840, Note_on_c, 6, 52, 127
8, 16440, Note_off_c, 6, 52, 64
8, 16800, Note_on_c, 6, 52, 127
8, 17280, Note_off_c, 6, 52, 64
8, 17280, Note_on_c, 6, 45, 127
8, 17400, Note_off_c, 6, 45, 64
8, 17520, Note_on_c, 6, 45, 127
8, 17634, Note_off_c, 6, 45, 64
8, 17640, Note_on_c, 6, 45, 127
8, 17754, Note_off_c, 6, 45, 64
8, 17760, Note_on_c, 6, 45, 127
8, 17880, Note_off_c, 6, 45, 64
8, 18240, Note_on_c, 6, 52, 81
8, 18360, Note_off_c, 6, 52, 64
8, 18720, Note_on_c, 6, 52, 127
8, 19320, Note_off_c, 6, 52, 64
8, 19680, Note_on_c, 6, 52, 127
8, 20280, Note_off_c, 6, 52, 64
8, 20640, Note_on_c, 6, 52, 127
8, 21240, Note_off_c, 6, 52, 64
8, 21600, Note_on_c, 6, 52, 127
8, 22200, Note_off_c, 6, 52, 64
8, 22560, Note_on_c, 6, 52, 127
8, 23160, Note_off_c, 6, 52, 64
8, 23520, Note_on_c, 6, 52, 127
8, 24120, Note_off_c, 6, 52, 64
8, 24480, Note_on_c, 6, 52, 127
8, 24960, Note_off_c, 6, 52, 64
8, 24960, Note_on_c, 6, 45, 127
8, 25080, Note_off_c, 6, 45, 64
8, 25200, Note_on_c, 6, 45, 127
8, 25314, Note_off_c, 6, 45, 64
8, 25320, Note_on_c, 6, 45, 127
8, 25434, Note_off_c, 6, 45, 64
8, 25440, Note_on_c, 6, 45, 127
8, 25560, Note_off_c, 6, 45, 64
8, 25920, Note_on_c, 6, 45, 81
8, 26040, Note_off_c, 6, 45, 64
8, 26400, Note_on_c, 6, 45, 127
8, 27000, Note_off_c, 6, 45, 64
8, 27360, Note_on_c, 6, 45, 127
8, 27960, Note_off_c, 6, 45, 64
8, 28320, Note_on_c, 6, 45, 127
8, 28920, Note_off_c, 6, 45, 64
8, 30240, Note_on_c, 6, 52, 127
8, 30840, Note_off_c, 6, 52, 64
8, 31200, Note_on_c, 6, 52, 127
8, 31800, Note_off_c, 6, 52, 64
8, 32160, Note_on_c, 6, 52, 127
8, 32640, Note_off_c, 6, 52, 64
8, 32640, Note_on_c, 6, 45, 127
8, 32760, Note_off_c, 6, 45, 64
8, 32880, Note_on_c, 6, 45, 127
8, 32994, Note_off_c, 6, 45, 64
8, 33000, Note_on_c, 6, 45, 127
8, 33114, Note_off_c, 6, 45, 64
8, 33120, Note_on_c, 6, 45, 127
8, 33240, Note_off_c, 6, 45, 64
8, 33600, Note_on_c, 6, 45, 81
8, 33720, Note_off_c, 6, 45, 64
8, 34080, Note_on_c, 6, 45, 127
8, 34680, Note_off_c, 6, 45, 64
8, 35040, Note_on_c, 6, 45, 127
8, 35640, Note_off_c, 6, 45, 64
8, 36000, Note_on_c, 6, 45, 127
8, 36600, Note_off_c, 6, 45, 64
8, 37920, Note_on_c, 6, 52, 127
8, 38520, Note_off_c, 6, 52, 64
8, 38880, Note_on_c, 6, 52, 127
8, 39480, Note_off_c, 6, 52, 64
8, 39840, Note_on_c, 6, 52, 127
8, 40320, Note_off_c, 6, 52, 64
8, 40320, Note_on_c, 6, 45, 127
8, 40440, Note_off_c, 6, 45, 64
8, 40620, Note_on_c, 6, 45, 127
8, 40734, Note_off_c, 6, 45, 64
8, 40740, Note_on_c, 6, 45, 127
8, 40854, Note_off_c, 6, 45, 64
8, 40860, Note_on_c, 6, 45, 127
8, 40980, Note_off_c, 6, 45, 64
8, 41700, Note_on_c, 6, 45, 127
8, 41814, Note_off_c, 6, 45, 64
8, 41820, Note_on_c, 6, 45, 127
8, 41934, Note_off_c, 6, 45, 64
8, 41940, Note_on_c, 6, 45, 127
8, 42054, Note_off_c, 6, 45, 64
8, 42780, Note_on_c, 6, 52, 127
8, 42894, Note_off_c, 6, 52, 64
8, 42900, Note_on_c, 6, 52, 127
8, 43014, Note_off_c, 6, 52, 64
8, 43020, Note_on_c, 6, 52, 127
8, 43140, Note_off_c, 6, 52, 64
8, 43860, Note_on_c, 6, 52, 127
8, 43974, Note_off_c, 6, 52, 64
8, 43980, Note_on_c, 6, 52, 127
8, 44094, Note_off_c, 6, 52, 64
8, 44100, Note_on_c, 6, 52, 127
8, 44220, Note_off_c, 6, 52, 64
8, 44640, Note_on_c, 6, 45, 72
8, 45024, Note_off_c, 6, 45, 64
8, 45120, Note_on_c, 6, 45, 72
8, 45504, Note_off_c, 6, 45, 64
8, 45600, Note_on_c, 6, 45, 72
8, 45984, Note_off_c, 6, 45, 64
8, 46080, Note_on_c, 6, 45, 72
8, 46464, Note_off_c, 6, 45, 64
8, 46560, Note_on_c, 6, 52, 72
8, 46944, Note_off_c, 6, 52, 64
8, 47040, Note_on_c, 6, 52, 72
8, 47424, Note_off_c, 6, 52, 64
8, 47520, Note_on_c, 6, 52, 72
8, 47904, Note_off_c, 6, 52, 64
8, 48000, Note_on_c, 6, 52, 72
8, 48384, Note_off_c, 6, 52, 64
8, 48480, Note_on_c, 6, 45, 127
8, 48600, Note_off_c, 6, 45, 64
8, 48780, Note_on_c, 6, 45, 127
8, 48894, Note_off_c, 6, 45, 64
8, 48900, Note_on_c, 6, 45, 127
8, 49014, Note_off_c, 6, 45, 64
8, 49020, Note_on_c, 6, 45, 127
8, 49140, Note_off_c, 6, 45, 64
8, 49860, Note_on_c, 6, 45, 127
8, 49974, Note_off_c, 6, 45, 64
8, 49980, Note_on_c, 6, 45, 127
8, 50094, Note_off_c, 6, 45, 64
8, 50100, Note_on_c, 6, 45, 127
8, 50220, Note_off_c, 6, 45, 64
8, 50940, Note_on_c, 6, 52, 127
8, 51054, Note_off_c, 6, 52, 64
8, 51060, Note_on_c, 6, 52, 127
8, 51174, Note_off_c, 6, 52, 64
8, 51180, Note_on_c, 6, 52, 127
8, 51300, Note_off_c, 6, 52, 64
8, 52020, Note_on_c, 6, 52, 127
8, 52134, Note_off_c, 6, 52, 64
8, 52140, Note_on_c, 6, 52, 127
8, 52254, Note_off_c, 6, 52, 64
8, 52260, Note_on_c, 6, 52, 127
8, 52380, Note_off_c, 6, 52, 64
8, 52800, Note_on_c, 6, 45, 80
8, 52992, Note_off_c, 6, 45, 64
8, 53280, Note_on_c, 6, 45, 80
8, 53472, Note_off_c, 6, 45, 64
8, 53760, Note_on_c, 6, 45, 80
8, 53952, Note_off_c, 6, 45, 64
8, 54240, Note_on_c, 6, 45, 80
8, 54432, Note_off_c, 6, 45, 64
8, 54720, Note_on_c, 6, 52, 64
8, 54912, Note_off_c, 6, 52, 64
8, 55200, Note_on_c, 6, 52, 61
8, 55392, Note_off_c, 6, 52, 64
8, 55680, Note_on_c, 6, 52, 57
8, 55872, Note_off_c, 6, 52, 64
8, 56160, Note_on_c, 6, 52, 53
8, 56352, Note_off_c, 6, 52, 64
8, 56640, Note_on_c, 6, 45, 80
8, 56832, Note_off_c, 6, 45, 64
8, 58080, Note_on_c, 6, 52, 80
8, 58464, Note_off_c, 6, 52, 64
8, 58560, Note_on_c, 6, 45, 80
8, 58944, Note_off_c, 6, 45, 64
8, 59040, Note_on_c, 6, 52, 80
8, 59424, Note_off_c, 6, 52, 64
8, 59520, Note_on_c, 6, 45, 80
8, 59904, Note_off_c, 6, 45, 64
8, 60000, Note_on_c, 6, 52, 80
8, 60384, Note_off_c, 6, 52, 64
8, 60480, Note_on_c, 6, 45, 80
8, 60864, Note_off_c, 6, 45, 64
8, 61920, Note_on_c, 6, 52, 80
8, 62304, Note_off_c, 6, 52, 64
8, 62400, Note_on_c, 6, 45, 80
8, 62784, Note_off_c, 6, 45, 64
8, 62880, Note_on_c, 6, 52, 80
8, 63264, Note_off_c, 6, 52, 64
8, 63360, Note_on_c, 6, 45, 80
8, 63744, Note_off_c, 6, 45, 64
8, 72000, Note_on_c, 6, 45, 80
8, 72384, Note_off_c, 6, 45, 64
8, 72480, Note_on_c, 6, 45, 80
8, 72864, Note_off_c, 6, 45, 64
8, 72960, Note_on_c, 6, 45, 80
8, 73344, Note_off_c, 6, 45, 64
8, 73440, Note_on_c, 6, 45, 80
8, 73824, Note_off_c, 6, 45, 64
8, 75840, Note_on_c, 6, 45, 80
8, 76224, Note_off_c, 6, 45, 64
8, 76320, Note_on_c, 6, 45, 80
8, 76704, Note_off_c, 6, 45, 64
8, 76800, Note_on_c, 6, 52, 80
8, 77184, Note_off_c, 6, 52, 64
8, 77280, Note_on_c, 6, 52, 80
8, 77664, Note_off_c, 6, 52, 64
8, 77760, Note_on_c, 6, 45, 80
8, 78144, Note_off_c, 6, 45, 64
8, 78240, Note_on_c, 6, 45, 80
8, 78624, Note_off_c, 6, 45, 64
8, 78720, Note_on_c, 6, 45, 80
8, 79104, Note_off_c, 6, 45, 64
8, 79200, Note_on_c, 6, 45, 80
8, 79584, Note_off_c, 6, 45, 64
8, 79680, Note_on_c, 6, 45, 63
8, 80064, Note_off_c, 6, 45, 64
8, 80160, Note_on_c, 6, 45, 76
8, 80544, Note_off_c, 6, 45, 64
8, 80640, Note_on_c, 6, 45, 89
8, 81024, Note_off_c, 6, 45, 64
8, 81120, Note_on_c, 6, 45, 102
8, 81504, Note_off_c, 6, 45, 64
8, 82080, Note_on_c, 6, 45, 127
8, 82464, Note_off_c, 6, 45, 64
8, 85920, Note_on_c, 6, 45, 127
8, 86304, Note_off_c, 6, 45, 64
8, 93600, Note_on_c, 6, 52, 80
8, 93984, Note_off_c, 6, 52, 64
8, 95520, Note_on_c, 6, 52, 80
8, 95904, Note_off_c, 6, 52, 64
8, 103200, Note_on_c, 6, 52, 80
8, 103584, Note_off_c, 6, 52, 64
8, 105120, Note_on_c, 6, 52, 80
8, 105504, Note_off_c, 6, 52, 64
8, 110400, Note_on_c, 6, 45, 40
8, 110496, Note_off_c, 6, 45, 64
8, 110520, Note_on_c, 6, 45, 40
8, 110616, Note_off_c, 6, 45, 64
8, 110640, Note_on_c, 6, 45, 40
8, 110736, Note_off_c, 6, 45, 64
8, 110760, Note_on_c, 6, 45, 40
8, 110856, Note_off_c, 6, 45, 64
8, 110880, Note_on_c, 6, 45, 40
8, 110976, Note_off_c, 6, 45, 64
8, 111000, Note_on_c, 6, 45, 40
8, 111096, Note_off_c, 6, 45, 64
8, 111120, Note_on_c, 6, 45, 40
8, 111216, Note_off_c, 6, 45, 64
8, 111240, Note_on_c, 6, 45, 40
8, 111336, Note_off_c, 6, 45, 64
8, 111360, Note_on_c, 6, 45, 40
8, 111456, Note_off_c, 6, 45, 64
8, 111480, Note_on_c, 6, 45, 40
8, 111576, Note_off_c, 6, 45, 64
8, 111600, Note_on_c, 6, 45, 40
8, 111696, Note_off_c, 6, 45, 64
8, 111720, Note_on_c, 6, 45, 40
8, 111816, Note_off_c, 6, 45, 64
8, 111840, Note_on_c, 6, 45, 40
8, 111936, Note_off_c, 6, 45, 64
8, 111960, Note_on_c, 6, 45, 40
8, 112056, Note_off_c, 6, 45, 64
8, 112080, Note_on_c, 6, 45, 40
8, 112176, Note_off_c, 6, 45, 64
8, 112200, Note_on_c, 6, 45, 40
8, 112296, Note_off_c, 6, 45, 64
8, 112320, Note_on_c, 6, 45, 40
8, 112416, Note_off_c, 6, 45, 64
8, 112440, Note_on_c, 6, 45, 40
8, 112536, Note_off_c, 6, 45, 64
8, 112560, Note_on_c, 6, 45, 40
8, 112656, Note_off_c, 6, 45, 64
8, 112680, Note_on_c, 6, 45, 40
8, 112776, Note_off_c, 6, 45, 64
8, 112800, Note_on_c, 6, 45, 40
8, 112896, Note_off_c, 6, 45, 64
8, 112920, Note_on_c, 6, 45, 40
8, 113016, Note_off_c, 6, 45, 64
8, 113040, Note_on_c, 6, 45, 40
8, 113136, Note_off_c, 6, 45, 64
8, 113160, Note_on_c, 6, 45, 40
8, 113256, Note_off_c, 6, 45, 64
8, 113280, Note_on_c, 6, 45, 31
8, 113376, Note_off_c, 6, 45, 64
8, 113400, Note_on_c, 6, 45, 33
8, 113496, Note_off_c, 6, 45, 64
8, 113520, Note_on_c, 6, 45, 34
8, 113616, Note_off_c, 6, 45, 64
8, 113640, Note_on_c, 6, 45, 35
8, 113736, Note_off_c, 6, 45, 64
8, 113760, Note_on_c, 6, 45, 36
8, 113856, Note_off_c, 6, 45, 64
8, 113880, Note_on_c, 6, 45, 37
8, 113976, Note_off_c, 6, 45, 64
8, 114000, Note_on_c, 6, 45, 39
8, 114096, Note_off_c, 6, 45, 64
8, 114120, Note_on_c, 6, 45, 40
8, 114216, Note_off_c, 6, 45, 64
8, 114240, Note_on_c, 6, 45, 41
8, 114336, Note_off_c, 6, 45, 64
8, 114360, Note_on_c, 6, 45, 42
8, 114456, Note_off_c, 6, 45, 64
8, 114480, Note_on_c, 6, 45, 43
8, 114576, Note_off_c, 6, 45, 64
8, 114600, Note_on_c, 6, 45, 45
8, 114696, Note_off_c, 6, 45, 64
8, 114720, Note_on_c, 6, 45, 46
8, 114816, Note_off_c, 6, 45, 64
8, 114840, Note_on_c, 6, 45, 47
8, 114936, Note_off_c, 6, 45, 64
8, 114960, Note_on_c, 6, 45, 48
8, 115056, Note_off_c, 6, 45, 64
8, 115080, Note_on_c, 6, 45, 49
8, 115176, Note_off_c, 6, 45, 64
8, 115200, Note_on_c, 6, 45, 50
8, 115296, Note_off_c, 6, 45, 64
8, 115320, Note_on_c, 6, 45, 52
8, 115416, Note_off_c, 6, 45, 64
8, 115440, Note_on_c, 6, 45, 53
8, 115536, Note_off_c, 6, 45, 64
8, 115560, Note_on_c, 6, 45, 54
8, 115656, Note_off_c, 6, 45, 64
8, 115680, Note_on_c, 6, 45, 55
8, 115776, Note_off_c, 6, 45, 64
8, 115800, Note_on_c, 6, 45, 56
8, 115896, Note_off_c, 6, 45, 64
8, 115920, Note_on_c, 6, 45, 58
8, 116016, Note_off_c, 6, 45, 64
8, 116040, Note_on_c, 6, 45, 59
8, 116136, Note_off_c, 6, 45, 64
8, 116160, Note_on_c, 6, 45, 60
8, 116256, Note_off_c, 6, 45, 64
8, 116280, Note_on_c, 6, 45, 61
8, 116376, Note_off_c, 6, 45, 64
8, 116400, Note_on_c, 6, 45, 62
8, 116496, Note_off_c, 6, 45, 64
8, 116520, Note_on_c, 6, 45, 62
8, 116616, Note_off_c, 6, 45, 64
8, 116640, Note_on_c, 6, 45, 63
8, 116736, Note_off_c, 6, 45, 64
8, 116760, Note_on_c, 6, 45, 64
8, 116856, Note_off_c, 6, 45, 64
8, 116880, Note_on_c, 6, 45, 65
8, 116976, Note_off_c, 6, 45, 64
8, 117000, Note_on_c, 6, 45, 66
8, 117096, Note_off_c, 6, 45, 64
8, 117120, Note_on_c, 6, 45, 67
8, 117216, Note_off_c, 6, 45, 64
8, 117240, Note_on_c, 6, 45, 67
8, 117336, Note_off_c, 6, 45, 64
8, 117360, Note_on_c, 6, 45, 68
8, 117456, Note_off_c, 6, 45, 64
8, 117480, Note_on_c, 6, 45, 69
8, 117576, Note_off_c, 6, 45, 64
8, 117600, Note_on_c, 6, 45, 70
8, 117696, Note_off_c, 6, 45, 64
8, 117720, Note_on_c, 6, 45, 71
8, 117816, Note_off_c, 6, 45, 64
8, 117840, Note_on_c, 6, 45, 72
8, 117936, Note_off_c, 6, 45, 64
8, 117960, Note_on_c, 6, 45, 72
8, 118056, Note_off_c, 6, 45, 64
8, 118080, Note_on_c, 6, 45, 73
8, 118176, Note_off_c, 6, 45, 64
8, 118200, Note_on_c, 6, 45, 74
8, 118296, Note_off_c, 6, 45, 64
8, 118320, Note_on_c, 6, 45, 75
8, 118416, Note_off_c, 6, 45, 64
8, 118440, Note_on_c, 6, 45, 76
8, 118536, Note_off_c, 6, 45, 64
8, 118560, Note_on_c, 6, 45, 77
8, 118656, Note_off_c, 6, 45, 64
8, 118680, Note_on_c, 6, 45, 77
8, 118776, Note_off_c, 6, 45, 64
8, 118800, Note_on_c, 6, 45, 78
8, 118896, Note_off_c, 6, 45, 64
8, 118920, Note_on_c, 6, 45, 79
8, 119016, Note_off_c, 6, 45, 64
8, 119040, Note_on_c, 6, 45, 80
8, 119136, Note_off_c, 6, 45, 64
8, 119160, Note_on_c, 6, 45, 81
8, 119256, Note_off_c, 6, 45, 64
8, 119280, Note_on_c, 6, 45, 82
8, 119376, Note_off_c, 6, 45, 64
8, 119400, Note_on_c, 6, 45, 82
8, 119496, Note_off_c, 6, 45, 64
8, 119520, Note_on_c, 6, 45, 83
8, 119616, Note_off_c, 6, 45, 64
8, 119640, Note_on_c, 6, 45, 84
8, 119736, Note_off_c, 6, 45, 64
8, 119760, Note_on_c, 6, 45, 85
8, 119856, Note_off_c, 6, 45, 64
8, 119880, Note_on_c, 6, 45, 86
8, 119976, Note_off_c, 6, 45, 64
8, 120000, Note_on_c, 6, 45, 87
8, 120096, Note_off_c, 6, 45, 64
8, 120120, Note_on_c, 6, 45, 87
8, 120216, Note_off_c, 6, 45, 64
8, 120240, Note_on_c, 6, 45, 88
8, 120336, Note_off_c, 6, 45, 64
8, 120360, Note_on_c, 6, 45, 89
8, 120456, Note_off_c, 6, 45, 64
8, 120480, Note_on_c, 6, 45, 90
8, 120576, Note_off_c, 6, 45, 64
8, 120600, Note_on_c, 6, 45, 91
8, 120696, Note_off_c, 6, 45, 64
8, 120720, Note_on_c, 6, 45, 92
8, 120816, Note_off_c, 6, 45, 64
8, 120840, Note_on_c, 6, 45, 92
8, 120936, Note_off_c, 6, 45, 64
8, 120960, Note_on_c, 6, 45, 93
8, 121056, Note_off_c, 6, 45, 64
8, 121080, Note_on_c, 6, 45, 94
8, 121176, Note_off_c, 6, 45, 64
8, 121200, Note_on_c, 6, 45, 95
8, 121296, Note_off_c, 6, 45, 64
8, 121320, Note_on_c, 6, 45, 96
8, 121416, Note_off_c, 6, 45, 64
8, 121440, Note_on_c, 6, 45, 97
8, 121536, Note_off_c, 6, 45, 64
8, 121560, Note_on_c, 6, 45, 97
8, 121656, Note_off_c, 6, 45, 64
8, 121680, Note_on_c, 6, 45, 98
8, 121776, Note_off_c, 6, 45, 64
8, 121800, Note_on_c, 6, 45, 99
8, 121896, Note_off_c, 6, 45, 64
8, 121920, Note_on_c, 6, 45, 127
8, 121984, Note_off_c, 6, 45, 64
8, 122000, Note_on_c, 6, 45, 127
8, 122064, Note_off_c, 6, 45, 64
8, 122080, Note_on_c, 6, 45, 127
8, 122144, Note_off_c, 6, 45, 64
8, 122160, Note_on_c, 6, 45, 127
8, 122224, Note_off_c, 6, 45, 64
8, 122240, Note_on_c, 6, 45, 127
8, 122304, Note_off_c, 6, 45, 64
8, 122320, Note_on_c, 6, 45, 127
8, 122384, Note_off_c, 6, 45, 64
8, 122400, Note_on_c, 6, 45, 127
8, 122464, Note_off_c, 6, 45, 64
8, 122480, Note_on_c, 6, 45, 127
8, 122544, Note_off_c, 6, 45, 64
8, 122560, Note_on_c, 6, 45, 127
8, 122624, Note_off_c, 6, 45, 64
8, 122640, Note_on_c, 6, 45, 127
8, 122704, Note_off_c, 6, 45, 64
8, 122720, Note_on_c, 6, 45, 127
8, 122784, Note_off_c, 6, 45, 64
8, 122800, Note_on_c, 6, 45, 127
8, 122864, Note_off_c, 6, 45, 64
8, 122880, Note_on_c, 6, 45, 127
8, 122944, Note_off_c, 6, 45, 64
8, 122960, Note_on_c, 6, 45, 127
8, 123024, Note_off_c, 6, 45, 64
8, 123040, Note_on_c, 6, 45, 127
8, 123104, Note_off_c, 6, 45, 64
8, 123120, Note_on_c, 6, 45, 127
8, 123184, Note_off_c, 6, 45, 64
8, 123200, Note_on_c, 6, 45, 127
8, 123264, Note_off_c, 6, 45, 64
8, 123280, Note_on_c, 6, 45, 127
8, 123344, Note_off_c, 6, 45, 64
8, 123360, Note_on_c, 6, 45, 127
8, 123424, Note_off_c, 6, 45, 64
8, 123440, Note_on_c, 6, 45, 127
8, 123504, Note_off_c, 6, 45, 64
8, 123520, Note_on_c, 6, 45, 127
8, 123584, Note_off_c, 6, 45, 64
8, 123600, Note_on_c, 6, 45, 127
8, 123664, Note_off_c, 6, 45, 64
8, 123680, Note_on_c, 6, 45, 127
8, 123744, Note_off_c, 6, 45, 64
8, 123760, Note_on_c, 6, 45, 127
8, 123824, Note_off_c, 6, 45, 64
8, 123840, Note_on_c, 6, 52, 127
8, 123904, Note_off_c, 6, 52, 64
8, 123920, Note_on_c, 6, 52, 127
8, 123984, Note_off_c, 6, 52, 64
8, 124000, Note_on_c, 6, 52, 127
8, 124064, Note_off_c, 6, 52, 64
8, 124080, Note_on_c, 6, 52, 127
8, 124144, Note_off_c, 6, 52, 64
8, 124160, Note_on_c, 6, 52, 127
8, 124224, Note_off_c, 6, 52, 64
8, 124240, Note_on_c, 6, 52, 127
8, 124304, Note_off_c, 6, 52, 64
8, 124320, Note_on_c, 6, 52, 127
8, 124384, Note_off_c, 6, 52, 64
8, 124400, Note_on_c, 6, 52, 127
8, 124464, Note_off_c, 6, 52, 64
8, 124480, Note_on_c, 6, 52, 127
8, 124544, Note_off_c, 6, 52, 64
8, 124560, Note_on_c, 6, 52, 127
8, 124624, Note_off_c, 6, 52, 64
8, 124640, Note_on_c, 6, 52, 127
8, 124704, Note_off_c, 6, 52, 64
8, 124720, Note_on_c, 6, 52, 127
8, 124784, Note_off_c, 6, 52, 64
8, 124800, Note_on_c, 6, 45, 127
8, 124864, Note_off_c, 6, 45, 64
8, 124880, Note_on_c, 6, 45, 127
8, 124944, Note_off_c, 6, 45, 64
8, 124960, Note_on_c, 6, 45, 127
8, 125024, Note_off_c, 6, 45, 64
8, 125040, Note_on_c, 6, 45, 127
8, 125104, Note_off_c, 6, 45, 64
8, 125120, Note_on_c, 6, 45, 127
8, 125184, Note_off_c, 6, 45, 64
8, 125200, Note_on_c, 6, 45, 127
8, 125264, Note_off_c, 6, 45, 64
8, 125280, Note_on_c, 6, 45, 127
8, 125344, Note_off_c, 6, 45, 64
8, 125360, Note_on_c, 6, 45, 127
8, 125424, Note_off_c, 6, 45, 64
8, 125440, Note_on_c, 6, 45, 127
8, 125504, Note_off_c, 6, 45, 64
8, 125520, Note_on_c, 6, 45, 127
8, 125584, Note_off_c, 6, 45, 64
8, 125600, Note_on_c, 6, 45, 127
8, 125664, Note_off_c, 6, 45, 64
8, 125680, Note_on_c, 6, 45, 127
8, 125744, Note_off_c, 6, 45, 64
8, 125760, Note_on_c, 6, 52, 127
8, 125824, Note_off_c, 6, 52, 64
8, 125840, Note_on_c, 6, 52, 127
8, 125904, Note_off_c, 6, 52, 64
8, 125920, Note_on_c, 6, 52, 127
8, 125984, Note_off_c, 6, 52, 64
8, 126000, Note_on_c, 6, 52, 127
8, 126064, Note_off_c, 6, 52, 64
8, 126080, Note_on_c, 6, 52, 127
8, 126144, Note_off_c, 6, 52, 64
8, 126160, Note_on_c, 6, 52, 127
8, 126224, Note_off_c, 6, 52, 64
8, 126240, Note_on_c, 6, 52, 127
8, 126304, Note_off_c, 6, 52, 64
8, 126320, Note_on_c, 6, 52, 127
8, 126384, Note_off_c, 6, 52, 64
8, 126400, Note_on_c, 6, 52, 127
8, 126464, Note_off_c, 6, 52, 64
8, 126480, Note_on_c, 6, 52, 127
8, 126544, Note_off_c, 6, 52, 64
8, 126560, Note_on_c, 6, 52, 127
8, 126624, Note_off_c, 6, 52, 64
8, 126640, Note_on_c, 6, 52, 127
8, 126704, Note_off_c, 6, 52, 64
8, 126720, Note_on_c, 6, 45, 127
8, 126784, Note_off_c, 6, 45, 64
8, 126800, Note_on_c, 6, 45, 127
8, 126864, Note_off_c, 6, 45, 64
8, 126880, Note_on_c, 6, 45, 127
8, 126944, Note_off_c, 6, 45, 64
8, 126960, Note_on_c, 6, 45, 127
8, 127024, Note_off_c, 6, 45, 64
8, 127040, Note_on_c, 6, 45, 127
8, 127104, Note_off_c, 6, 45, 64
8, 127120, Note_on_c, 6, 45, 127
8, 127184, Note_off_c, 6, 45, 64
8, 127200, Note_on_c, 6, 45, 127
8, 127264, Note_off_c, 6, 45, 64
8, 127280, Note_on_c, 6, 45, 127
8, 127344, Note_off_c, 6, 45, 64
8, 127360, Note_on_c, 6, 45, 127
8, 127424, Note_off_c, 6, 45, 64
8, 127440, Note_on_c, 6, 45, 127
8, 127504, Note_off_c, 6, 45, 64
8, 127520, Note_on_c, 6, 45, 127
8, 127584, Note_off_c, 6, 45, 64
8, 127600, Note_on_c, 6, 45, 127
8, 127664, Note_off_c, 6, 45, 64
8, 127680, Note_on_c, 6, 52, 127
8, 127744, Note_off_c, 6, 52, 64
8, 127760, Note_on_c, 6, 52, 127
8, 127824, Note_off_c, 6, 52, 64
8, 127840, Note_on_c, 6, 52, 127
8, 127904, Note_off_c, 6, 52, 64
8, 127920, Note_on_c, 6, 52, 127
8, 127984, Note_off_c, 6, 52, 64
8, 128000, Note_on_c, 6, 52, 127
8, 128064, Note_off_c, 6, 52, 64
8, 128080, Note_on_c, 6, 52, 127
8, 128144, Note_off_c, 6, 52, 64
8, 128160, Note_on_c, 6, 52, 127
8, 128224, Note_off_c, 6, 52, 64
8, 128240, Note_on_c, 6, 52, 127
8, 128304, Note_off_c, 6, 52, 64
8, 128320, Note_on_c, 6, 52, 127
8, 128384, Note_off_c, 6, 52, 64
8, 128400, Note_on_c, 6, 52, 127
8, 128464, Note_off_c, 6, 52, 64
8, 128480, Note_on_c, 6, 52, 127
8, 128544, Note_off_c, 6, 52, 64
8, 128560, Note_on_c, 6, 52, 127
8, 128624, Note_off_c, 6, 52, 64
8, 128640, Note_on_c, 6, 45, 127
8, 128704, Note_off_c, 6, 45, 64
8, 128720, Note_on_c, 6, 45, 127
8, 128784, Note_off_c, 6, 45, 64
8, 128800, Note_on_c, 6, 45, 127
8, 128864, Note_off_c, 6, 45, 64
8, 128880, Note_on_c, 6, 45, 127
8, 128944, Note_off_c, 6, 45, 64
8, 128960, Note_on_c, 6, 45, 127
8, 129024, Note_off_c, 6, 45, 64
8, 129040, Note_on_c, 6, 45, 127
8, 129104, Note_off_c, 6, 45, 64
8, 129120, Note_on_c, 6, 45, 127
8, 129184, Note_off_c, 6, 45, 64
8, 129200, Note_on_c, 6, 45, 127
8, 129264, Note_off_c, 6, 45, 64
8, 129280, Note_on_c, 6, 45, 127
8, 129344, Note_off_c, 6, 45, 64
8, 129360, Note_on_c, 6, 45, 127
8, 129424, Note_off_c, 6, 45, 64
8, 129440, Note_on_c, 6, 45, 127
8, 129504, Note_off_c, 6, 45, 64
8, 129520, Note_on_c, 6, 45, 127
8, 129584, Note_off_c, 6, 45, 64
8, 129600, Note_on_c, 6, 52, 127
8, 129664, Note_off_c, 6, 52, 64
8, 129680, Note_on_c, 6, 52, 127
8, 129744, Note_off_c, 6, 52, 64
8, 129760, Note_on_c, 6, 52, 127
8, 129824, Note_off_c, 6, 52, 64
8, 129840, Note_on_c, 6, 52, 127
8, 129904, Note_off_c, 6, 52, 64
8, 129920, Note_on_c, 6, 52, 127
8, 129984, Note_off_c, 6, 52, 64
8, 130000, Note_on_c, 6, 52, 127
8, 130064, Note_off_c, 6, 52, 64
8, 130080, Note_on_c, 6, 52, 127
8, 130144, Note_off_c, 6, 52, 64
8, 130160, Note_on_c, 6, 52, 127
8, 130224, Note_off_c, 6, 52, 64
8, 130240, Note_on_c, 6, 52, 127
8, 130304, Note_off_c, 6, 52, 64
8, 130320, Note_on_c, 6, 52, 127
8, 130384, Note_off_c, 6, 52, 64
8, 130400, Note_on_c, 6, 52, 127
8, 130464, Note_off_c, 6, 52, 64
8, 130480, Note_on_c, 6, 52, 127
8, 130544, Note_off_c, 6, 52, 64
8, 131520, Note_on_c, 6, 52, 127
8, 131584, Note_off_c, 6, 52, 64
8, 131600, Note_on_c, 6, 52, 127
8, 131664, Note_off_c, 6, 52, 64
8, 131680, Note_on_c, 6, 52, 127
8, 131744, Note_off_c, 6, 52, 64
8, 131760, Note_on_c, 6, 52, 127
8, 131824, Note_off_c, 6, 52, 64
8, 131840, Note_on_c, 6, 52, 127
8, 131904, Note_off_c, 6, 52, 64
8, 131920, Note_on_c, 6, 52, 127
8, 131984, Note_off_c, 6, 52, 64
8, 132000, Note_on_c, 6, 45, 127
8, 132064, Note_off_c, 6, 45, 64
8, 132080, Note_on_c, 6, 45, 127
8, 132144, Note_off_c, 6, 45, 64
8, 132160, Note_on_c, 6, 45, 127
8, 132224, Note_off_c, 6, 45, 64
8, 132240, Note_on_c, 6, 45, 127
8, 132304, Note_off_c, 6, 45, 64
8, 132320, Note_on_c, 6, 45, 127
8, 132384, Note_off_c, 6, 45, 64
8, 132400, Note_on_c, 6, 45, 127
8, 132464, Note_off_c, 6, 45, 64
8, 132480, Note_on_c, 6, 45, 127
8, 132544, Note_off_c, 6, 45, 64
8, 132560, Note_on_c, 6, 45, 127
8, 132624, Note_off_c, 6, 45, 64
8, 132640, Note_on_c, 6, 45, 127
8, 132704, Note_off_c, 6, 45, 64
8, 132720, Note_on_c, 6, 45, 127
8, 132784, Note_off_c, 6, 45, 64
8, 132800, Note_on_c, 6, 45, 127
8, 132864, Note_off_c, 6, 45, 64
8, 132880, Note_on_c, 6, 45, 127
8, 132944, Note_off_c, 6, 45, 64
8, 132960, Note_on_c, 6, 45, 127
8, 133024, Note_off_c, 6, 45, 64
8, 133040, Note_on_c, 6, 45, 127
8, 133104, Note_off_c, 6, 45, 64
8, 133120, Note_on_c, 6, 45, 127
8, 133184, Note_off_c, 6, 45, 64
8, 133200, Note_on_c, 6, 45, 127
8, 133264, Note_off_c, 6, 45, 64
8, 133280, Note_on_c, 6, 45, 127
8, 133344, Note_off_c, 6, 45, 64
8, 133360, Note_on_c, 6, 45, 127
8, 133424, Note_off_c, 6, 45, 64
8, 133440, Note_on_c, 6, 52, 127
8, 133504, Note_off_c, 6, 52, 64
8, 133520, Note_on_c, 6, 52, 127
8, 133584, Note_off_c, 6, 52, 64
8, 133600, Note_on_c, 6, 52, 127
8, 133664, Note_off_c, 6, 52, 64
8, 133680, Note_on_c, 6, 52, 127
8, 133744, Note_off_c, 6, 52, 64
8, 133760, Note_on_c, 6, 52, 127
8, 133824, Note_off_c, 6, 52, 64
8, 133840, Note_on_c, 6, 52, 127
8, 133904, Note_off_c, 6, 52, 64
8, 133920, Note_on_c, 6, 45, 127
8, 133984, Note_off_c, 6, 45, 64
8, 134000, Note_on_c, 6, 45, 127
8, 134064, Note_off_c, 6, 45, 64
8, 134080, Note_on_c, 6, 45, 127
8, 134144, Note_off_c, 6, 45, 64
8, 134160, Note_on_c, 6, 45, 127
8, 134224, Note_off_c, 6, 45, 64
8, 134240, Note_on_c, 6, 45, 127
8, 134304, Note_off_c, 6, 45, 64
8, 134320, Note_on_c, 6, 45, 127
8, 134384, Note_off_c, 6, 45, 64
8, 134400, Note_on_c, 6, 45, 127
8, 134464, Note_off_c, 6, 45, 64
8, 134480, Note_on_c, 6, 45, 127
8, 134544, Note_off_c, 6, 45, 64
8, 134560, Note_on_c, 6, 45, 127
8, 134624, Note_off_c, 6, 45, 64
8, 134640, Note_on_c, 6, 45, 127
8, 134704, Note_off_c, 6, 45, 64
8, 134720, Note_on_c, 6, 45, 127
8, 134784, Note_off_c, 6, 45, 64
8, 134800, Note_on_c, 6, 45, 127
8, 134864, Note_off_c, 6, 45, 64
8, 134880, Note_on_c, 6, 45, 127
8, 134944, Note_off_c, 6, 45, 64
8, 134960, Note_on_c, 6, 45, 127
8, 135024, Note_off_c, 6, 45, 64
8, 135040, Note_on_c, 6, 45, 127
8, 135104, Note_off_c, 6, 45, 64
8, 135120, Note_on_c, 6, 45, 127
8, 135184, Note_off_c, 6, 45, 64
8, 135200, Note_on_c, 6, 45, 127
8, 135264, Note_off_c, 6, 45, 64
8, 135280, Note_on_c, 6, 45, 127
8, 135344, Note_off_c, 6, 45, 64
8, 135360, Note_on_c, 6, 52, 127
8, 135424, Note_off_c, 6, 52, 64
8, 135440, Note_on_c, 6, 52, 127
8, 135504, Note_off_c, 6, 52, 64
8, 135520, Note_on_c, 6, 52, 127
8, 135584, Note_off_c, 6, 52, 64
8, 135600, Note_on_c, 6, 52, 127
8, 135664, Note_off_c, 6, 52, 64
8, 135680, Note_on_c, 6, 52, 127
8, 135744, Note_off_c, 6, 52, 64
8, 135760, Note_on_c, 6, 52, 127
8, 135824, Note_off_c, 6, 52, 64
8, 135840, Note_on_c, 6, 45, 127
8, 135904, Note_off_c, 6, 45, 64
8, 135920, Note_on_c, 6, 45, 127
8, 135984, Note_off_c, 6, 45, 64
8, 136000, Note_on_c, 6, 45, 127
8, 136064, Note_off_c, 6, 45, 64
8, 136080, Note_on_c, 6, 45, 127
8, 136144, Note_off_c, 6, 45, 64
8, 136160, Note_on_c, 6, 45, 127
8, 136224, Note_off_c, 6, 45, 64
8, 136240, Note_on_c, 6, 45, 127
8, 136304, Note_off_c, 6, 45, 64
8, 136320, Note_on_c, 6, 52, 127
8, 136384, Note_off_c, 6, 52, 64
8, 136400, Note_on_c, 6, 52, 127
8, 136464, Note_off_c, 6, 52, 64
8, 136480, Note_on_c, 6, 52, 127
8, 136544, Note_off_c, 6, 52, 64
8, 136560, Note_on_c, 6, 52, 127
8, 136624, Note_off_c, 6, 52, 64
8, 136640, Note_on_c, 6, 52, 127
8, 136704, Note_off_c, 6, 52, 64
8, 136720, Note_on_c, 6, 52, 127
8, 136784, Note_off_c, 6, 52, 64
8, 136800, Note_on_c, 6, 45, 127
8, 136864, Note_off_c, 6, 45, 64
8, 136880, Note_on_c, 6, 45, 127
8, 136944, Note_off_c, 6, 45, 64
8, 136960, Note_on_c, 6, 45, 127
8, 137024, Note_off_c, 6, 45, 64
8, 137040, Note_on_c, 6, 45, 127
8, 137104, Note_off_c, 6, 45, 64
8, 137120, Note_on_c, 6, 45, 127
8, 137184, Note_off_c, 6, 45, 64
8, 137200, Note_on_c, 6, 45, 127
8, 137264, Note_off_c, 6, 45, 64
8, 137280, Note_on_c, 6, 52, 127
8, 137344, Note_off_c, 6, 52, 64
8, 137360, Note_on_c, 6, 52, 127
8, 137424, Note_off_c, 6, 52, 64
8, 137440, Note_on_c, 6, 52, 127
8, 137504, Note_off_c, 6, 52, 64
8, 137520, Note_on_c, 6, 52, 127
8, 137584, Note_off_c, 6, 52, 64
8, 137600, Note_on_c, 6, 52, 127
8, 137664, Note_off_c, 6, 52, 64
8, 137680, Note_on_c, 6, 52, 127
8, 137744, Note_off_c, 6, 52, 64
8, 137760, Note_on_c, 6, 45, 127
8, 137824, Note_off_c, 6, 45, 64
8, 137840, Note_on_c, 6, 45, 127
8, 137904, Note_off_c, 6, 45, 64
8, 137920, Note_on_c, 6, 45, 127
8, 137984, Note_off_c, 6, 45, 64
8, 138000, Note_on_c, 6, 45, 127
8, 138064, Note_off_c, 6, 45, 64
8, 138080, Note_on_c, 6, 45, 127
8, 138144, Note_off_c, 6, 45, 64
8, 138160, Note_on_c, 6, 45, 127
8, 138224, Note_off_c, 6, 45, 64
8, 138240, Note_on_c, 6, 52, 127
8, 138304, Note_off_c, 6, 52, 64
8, 138320, Note_on_c, 6, 52, 127
8, 138384, Note_off_c, 6, 52, 64
8, 138400, Note_on_c, 6, 52, 127
8, 138464, Note_off_c, 6, 52, 64
8, 138480, Note_on_c, 6, 52, 127
8, 138544, Note_off_c, 6, 52, 64
8, 138560, Note_on_c, 6, 52, 127
8, 138624, Note_off_c, 6, 52, 64
8, 138640, Note_on_c, 6, 52, 127
8, 138704, Note_off_c, 6, 52, 64
8, 138720, Note_on_c, 6, 45, 127
8, 138784, Note_off_c, 6, 45, 64
8, 138800, Note_on_c, 6, 45, 127
8, 138864, Note_off_c, 6, 45, 64
8, 138880, Note_on_c, 6, 45, 127
8, 138944, Note_off_c, 6, 45, 64
8, 138960, Note_on_c, 6, 45, 127
8, 139024, Note_off_c, 6, 45, 64
8, 139040, Note_on_c, 6, 45, 127
8, 139104, Note_off_c, 6, 45, 64
8, 139120, Note_on_c, 6, 45, 127
8, 139184, Note_off_c, 6, 45, 64
8, 139500, Note_on_c, 6, 52, 127
8, 139500, Note_on_c, 6, 52, 127
8, 139614, Note_off_c, 6, 52, 64
8, 139614, Note_off_c, 6, 52, 64
8, 139620, Note_on_c, 6, 52, 127
8, 139734, Note_off_c, 6, 52, 64
8, 139740, Note_on_c, 6, 52, 127
8, 139854, Note_off_c, 6, 52, 64
8, 141900, Note_on_c, 6, 52, 127
8, 141900, Note_on_c, 6, 52, 127
8, 142014, Note_off_c, 6, 52, 64
8, 142014, Note_off_c, 6, 52, 64
8, 142020, Note_on_c, 6, 52, 127
8, 142134, Note_off_c, 6, 52, 64
8, 142140, Note_on_c, 6, 52, 127
8, 142254, Note_off_c, 6, 52, 64
8, 144000, Note_on_c, 6, 52, 81
8, 144120, Note_off_c, 6, 52, 64
8, 144480, Note_on_c, 6, 52, 127
8, 145080, Note_off_c, 6, 52, 64
8, 145440, Note_on_c, 6, 52, 127
8, 146040, Note_off_c, 6, 52, 64
8, 146400, Note_on_c, 6, 52, 127
8, 147000, Note_off_c, 6, 52, 64
8, 147360, Note_on_c, 6, 52, 127
8, 147960, Note_off_c, 6, 52, 64
8, 148320, Note_on_c, 6, 52, 127
8, 148920, Note_off_c, 6, 52, 64
8, 149280, Note_on_c, 6, 52, 127
8, 149880, Note_off_c, 6, 52, 64
8, 150240, Note_on_c, 6, 52, 127
8, 150720, Note_off_c, 6, 52, 64
8, 150720, Note_on_c, 6, 45, 127
8, 150840, Note_off_c, 6, 45, 64
8, 150960, Note_on_c, 6, 45, 127
8, 151074, Note_off_c, 6, 45, 64
8, 151080, Note_on_c, 6, 45, 127
8, 151194, Note_off_c, 6, 45, 64
8, 151200, Note_on_c, 6, 45, 127
8, 151320, Note_off_c, 6, 45, 64
8, 151680, Note_on_c, 6, 52, 81
8, 151800, Note_off_c, 6, 52, 64
8, 152160, Note_on_c, 6, 52, 127
8, 152760, Note_off_c, 6, 52, 64
8, 153120, Note_on_c, 6, 52, 127
8, 153720, Note_off_c, 6, 52, 64
8, 154080, Note_on_c, 6, 52, 127
8, 154680, Note_off_c, 6, 52, 64
8, 155040, Note_on_c, 6, 52, 127
8, 155640, Note_off_c, 6, 52, 64
8, 156000, Note_on_c, 6, 52, 127
8, 156600, Note_off_c, 6, 52, 64
8, 156960, Note_on_c, 6, 52, 127
8, 157560, Note_off_c, 6, 52, 64
8, 157920, Note_on_c, 6, 52, 127
8, 158400, Note_off_c, 6, 52, 64
8, 158400, Note_on_c, 6, 45, 127
8, 158520, Note_off_c, 6, 45, 64
8, 158640, Note_on_c, 6, 45, 127
8, 158754, Note_off_c, 6, 45, 64
8, 158760, Note_on_c, 6, 45, 127
8, 158874, Note_off_c, 6, 45, 64
8, 158880, Note_on_c, 6, 45, 127
8, 159000, Note_off_c, 6, 45, 64
8, 159360, Note_on_c, 6, 45, 81
8, 159480, Note_off_c, 6, 45, 64
8, 159840, Note_on_c, 6, 45, 127
8, 160440, Note_off_c, 6, 45, 64
8, 160800, Note_on_c, 6, 45, 127
8, 161400, Note_off_c, 6, 45, 64
8, 161760, Note_on_c, 6, 45, 127
8, 162360, Note_off_c, 6, 45, 64
8, 163680, Note_on_c, 6, 52, 127
8, 164280, Note_off_c, 6, 52, 64
8, 164640, Note_on_c, 6, 52, 127
8, 165240, Note_off_c, 6, 52, 64
8, 165600, Note_on_c, 6, 52, 127
8, 166080, Note_off_c, 6, 52, 64
8, 166080, Note_on_c, 6, 45, 127
8, 166200, Note_off_c, 6, 45, 64
8, 166320, Note_on_c, 6, 45, 127
8, 166434, Note_off_c, 6, 45, 64
8, 166440, Note_on_c, 6, 45, 127
8, 166554, Note_off_c, 6, 45, 64
8, 166560, Note_on_c, 6, 45, 127
8, 166680, Note_off_c, 6, 45, 64
8, 167040, Note_on_c, 6, 45, 81
8, 167160, Note_off_c, 6, 45, 64
8, 167520, Note_on_c, 6, 45, 127
8, 168120, Note_off_c, 6, 45, 64
8, 168480, Note_on_c, 6, 45, 127
8, 169080, Note_off_c, 6, 45, 64
8, 169440, Note_on_c, 6, 45, 127
8, 170040, Note_off_c, 6, 45, 64
8, 171360, Note_on_c, 6, 52, 127
8, 171960, Note_off_c, 6, 52, 64
8, 172320, Note_on_c, 6, 52, 127
8, 172920, Note_off_c, 6, 52, 64
8, 173280, Note_on_c, 6, 52, 127
8, 173760, Note_off_c, 6, 52, 64
8, 173760, Note_on_c, 6, 45, 127
8, 173880, Note_off_c, 6, 45, 64
8, 174060, Note_on_c, 6, 45, 127
8, 174174, Note_off_c, 6, 45, 64
8, 174180, Note_on_c, 6, 45, 127
8, 174294, Note_off_c, 6, 45, 64
8, 174300, Note_on_c, 6, 45, 127
8, 174420, Note_off_c, 6, 45, 64
8, 175140, Note_on_c, 6, 45, 127
8, 175254, Note_off_c, 6, 45, 64
8, 175260, Note_on_c, 6, 45, 127
8, 175374, Note_off_c, 6, 45, 64
8, 175380, Note_on_c, 6, 45, 127
8, 175494, Note_off_c, 6, 45, 64
8, 176220, Note_on_c, 6, 52, 127
8, 176334, Note_off_c, 6, 52, 64
8, 176340, Note_on_c, 6, 52, 127
8, 176454, Note_off_c, 6, 52, 64
8, 176460, Note_on_c, 6, 52, 127
8, 176580, Note_off_c, 6, 52, 64
8, 177300, Note_on_c, 6, 52, 127
8, 177414, Note_off_c, 6, 52, 64
8, 177420, Note_on_c, 6, 52, 127
8, 177534, Note_off_c, 6, 52, 64
8, 177540, Note_on_c, 6, 52, 127
8, 177660, Note_off_c, 6, 52, 64
8, 178080, Note_on_c, 6, 45, 72
8, 178464, Note_off_c, 6, 45, 64
8, 178560, Note_on_c, 6, 45, 72
8, 178944, Note_off_c, 6, 45, 64
8, 179040, Note_on_c, 6, 45, 72
8, 179424, Note_off_c, 6, 45, 64
8, 179520, Note_on_c, 6, 45, 72
8, 179904, Note_off_c, 6, 45, 64
8, 180000, Note_on_c, 6, 52, 72
8, 180384, Note_off_c, 6, 52, 64
8, 180480, Note_on_c, 6, 52, 72
8, 180864, Note_off_c, 6, 52, 64
8, 180960, Note_on_c, 6, 52, 72
8, 181344, Note_off_c, 6, 52, 64
8, 181440, Note_on_c, 6, 52, 72
8, 181824, Note_off_c, 6, 52, 64
8, 181920, Note_on_c, 6, 45, 127
8, 182040, Note_off_c, 6, 45, 64
8, 182220, Note_on_c, 6, 45, 127
8, 182334, Note_off_c, 6, 45, 64
8, 182340, Note_on_c, 6, 45, 127
8, 182454, Note_off_c, 6, 45, 64
8, 182460, Note_on_c, 6, 45, 127
8, 182580, Note_off_c, 6, 45, 64
8, 183300, Note_on_c, 6, 45, 127
8, 183414, Note_off_c, 6, 45, 64
8, 183420, Note_on_c, 6, 45, 127
8, 183534, Note_off_c, 6, 45, 64
8, 183540, Note_on_c, 6, 45, 127
8, 183660, Note_off_c, 6, 45, 64
8, 184380, Note_on_c, 6, 52, 127
8, 184494, Note_off_c, 6, 52, 64
8, 184500, Note_on_c, 6, 52, 127
8, 184614, Note_off_c, 6, 52, 64
8, 184620, Note_on_c, 6, 52, 127
8, 184740, Note_off_c, 6, 52, 64
8, 185460, Note_on_c, 6, 52, 127
8, 185574, Note_off_c, 6, 52, 64
8, 185580, Note_on_c, 6, 52, 127
8, 185694, Note_off_c, 6, 52, 64
8, 185700, Note_on_c, 6, 52, 127
8, 185820, Note_off_c, 6, 52, 64
8, 186240, Note_on_c, 6, 45, 80
8, 186432, Note_off_c, 6, 45, 64
8, 186720, Note_on_c, 6, 45, 80
8, 186912, Note_off_c, 6, 45, 64
8, 187200, Note_on_c, 6, 45, 80
8, 187392, Note_off_c, 6, 45, 64
8, 187680, Note_on_c, 6, 45, 80
8, 187872, Note_off_c, 6, 45, 64
8, 188160, Note_on_c, 6, 52, 64
8, 188352, Note_off_c, 6, 52, 64
8, 188640, Note_on_c, 6, 52, 61
8, 188832, Note_off_c, 6, 52, 64
8, 189120, Note_on_c, 6, 52, 57
8, 189312, Note_off_c, 6, 52, 64
8, 189600, Note_on_c, 6, 52, 53
8, 189792, Note_off_c, 6, 52, 64
8, 190080, Note_on_c, 6, 45, 80
8, 190272, Note_off_c, 6, 45, 64
8, 191520, Note_on_c, 6, 52, 80
8, 191904, Note_off_c, 6, 52, 64
8, 192000, Note_on_c, 6, 45, 80
8, 192384, Note_off_c, 6, 45, 64
8, 192480, Note_on_c, 6, 52, 80
8, 192864, Note_off_c, 6, 52, 64
8, 192960, Note_on_c, 6, 45, 80
8, 193344, Note_off_c, 6, 45, 64
8, 193440, Note_on_c, 6, 52, 80
8, 193824, Note_off_c, 6, 52, 64
8, 193920, Note_on_c, 6, 45, 80
8, 194304, Note_off_c, 6, 45, 64
8, 195360, Note_on_c, 6, 52, 80
8, 195744, Note_off_c, 6, 52, 64
8, 195840, Note_on_c, 6, 45, 80
8, 196224, Note_off_c, 6, 45, 64
8, 196320, Note_on_c, 6, 52, 80
8, 196704, Note_off_c, 6, 52, 64
8, 196800, Note_on_c, 6, 45, 80
8, 197184, Note_off_c, 6, 45, 64
8, 205440, Note_on_c, 6, 45, 80
8, 205824, Note_off_c, 6, 45, 64
8, 205920, Note_on_c, 6, 45, 80
8, 206304, Note_off_c, 6, 45, 64
8, 206400, Note_on_c, 6, 45, 80
8, 206784, Note_off_c, 6, 45, 64
8, 206880, Note_on_c, 6, 45, 80
8, 207264, Note_off_c, 6, 45, 64
8, 209280, Note_on_c, 6, 45, 80
8, 209664, Note_off_c, 6, 45, 64
8, 209760, Note_on_c, 6, 45, 80
8, 210144, Note_off_c, 6, 45, 64
8, 210240, Note_on_c, 6, 52, 80
8, 210624, Note_off_c, 6, 52, 64
8, 210720, Note_on_c, 6, 52, 80
8, 211104, Note_off_c, 6, 52, 64
8, 211200, Note_on_c, 6, 45, 80
8, 211584, Note_off_c, 6, 45, 64
8, 211680, Note_on_c, 6, 45, 80
8, 212064, Note_off_c, 6, 45, 64
8, 212160, Note_on_c, 6, 45, 80
8, 212544, Note_off_c, 6, 45, 64
8, 212640, Note_on_c, 6, 45, 80
8, 213024, Note_off_c, 6, 45, 64
8, 213120, Note_on_c, 6, 45, 63
8, 213504, Note_off_c, 6, 45, 64
8, 213600, Note_on_c, 6, 45, 76
8, 213984, Note_off_c, 6, 45, 64
8, 214080, Note_on_c, 6, 45, 89
8, 214464, Note_off_c, 6, 45, 64
8, 214560, Note_on_c, 6, 45, 102
8, 214944, Note_off_c, 6, 45, 64
8, 215520, Note_on_c, 6, 45, 127
8, 215904, Note_off_c, 6, 45, 64
8, 219360, Note_on_c, 6, 45, 127
8, 219744, Note_off_c, 6, 45, 64
8, 227040, Note_on_c, 6, 52, 80
8, 227424, Note_off_c, 6, 52, 64
8, 228960, Note_on_c, 6, 52, 80
8, 229344, Note_off_c, 6, 52, 64
8, 236640, Note_on_c, 6, 52, 80
8, 237024, Note_off_c, 6, 52, 64
8, 238560, Note_on_c, 6, 52, 80
8, 238944, Note_off_c, 6, 52, 64
8, 243840, Note_on_c, 6, 45, 40
8, 243936, Note_off_c, 6, 45, 64
8, 243960, Note_on_c, 6, 45, 40
8, 244056, Note_off_c, 6, 45, 64
8, 244080, Note_on_c, 6, 45, 40
8, 244176, Note_off_c, 6, 45, 64
8, 244200, Note_on_c, 6, 45, 40
8, 244296, Note_off_c, 6, 45, 64
8, 244320, Note_on_c, 6, 45, 40
8, 244416, Note_off_c, 6, 45, 64
8, 244440, Note_on_c, 6, 45, 40
8, 244536, Note_off_c, 6, 45, 64
8, 244560, Note_on_c, 6, 45, 40
8, 244656, Note_off_c, 6, 45, 64
8, 244680, Note_on_c, 6, 45, 40
8, 244776, Note_off_c, 6, 45, 64
8, 244800, Note_on_c, 6, 45, 40
8, 244896, Note_off_c, 6, 45, 64
8, 244920, Note_on_c, 6, 45, 40
8, 245016, Note_off_c, 6, 45, 64
8, 245040, Note_on_c, 6, 45, 40
8, 245136, Note_off_c, 6, 45, 64
8, 245160, Note_on_c, 6, 45, 40
8, 245256, Note_off_c, 6, 45, 64
8, 245280, Note_on_c, 6, 45, 40
8, 245376, Note_off_c, 6, 45, 64
8, 245400, Note_on_c, 6, 45, 40
8, 245496, Note_off_c, 6, 45, 64
8, 245520, Note_on_c, 6, 45, 40
8, 245616, Note_off_c, 6, 45, 64
8, 245640, Note_on_c, 6, 45, 40
8, 245736, Note_off_c, 6, 45, 64
8, 245760, Note_on_c, 6, 45, 40
8, 245856, Note_off_c, 6, 45, 64
8, 245880, Note_on_c, 6, 45, 40
8, 245976, Note_off_c, 6, 45, 64
8, 246000, Note_on_c, 6, 45, 40
8, 246096, Note_off_c, 6, 45, 64
8, 246120, Note_on_c, 6, 45, 40
8, 246216, Note_off_c, 6, 45, 64
8, 246240, Note_on_c, 6, 45, 40
8, 246336, Note_off_c, 6, 45, 64
8, 246360, Note_on_c, 6, 45, 40
8, 246456, Note_off_c, 6, 45, 64
8, 246480, Note_on_c, 6, 45, 40
8, 246576, Note_off_c, 6, 45, 64
8, 246600, Note_on_c, 6, 45, 40
8, 246696, Note_off_c, 6, 45, 64
8, 246720, Note_on_c, 6, 45, 31
8, 246816, Note_off_c, 6, 45, 64
8, 246840, Note_on_c, 6, 45, 33
8, 246936, Note_off_c, 6, 45, 64
8, 246960, Note_on_c, 6, 45, 34
8, 247056, Note_off_c, 6, 45, 64
8, 247080, Note_on_c, 6, 45, 35
8, 247176, Note_off_c, 6, 45, 64
8, 247200, Note_on_c, 6, 45, 36
8, 247296, Note_off_c, 6, 45, 64
8, 247320, Note_on_c, 6, 45, 37
8, 247416, Note_off_c, 6, 45, 64
8, 247440, Note_on_c, 6, 45, 39
8, 247536, Note_off_c, 6, 45, 64
8, 247560, Note_on_c, 6, 45, 40
8, 247656, Note_off_c, 6, 45, 64
8, 247680, Note_on_c, 6, 45, 41
8, 247776, Note_off_c, 6, 45, 64
8, 247800, Note_on_c, 6, 45, 42
8, 247896, Note_off_c, 6, 45, 64
8, 247920, Note_on_c, 6, 45, 43
8, 248016, Note_off_c, 6, 45, 64
8, 248040, Note_on_c, 6, 45, 45
8, 248136, Note_off_c, 6, 45, 64
8, 248160, Note_on_c, 6, 45, 46
8, 248256, Note_off_c, 6, 45, 64
8, 248280, Note_on_c, 6, 45, 47
8, 248376, Note_off_c, 6, 45, 64
8, 248400, Note_on_c, 6, 45, 48
8, 248496, Note_off_c, 6, 45, 64
8, 248520, Note_on_c, 6, 45, 49
8, 248616, Note_off_c, 6, 45, 64
8, 248640, Note_on_c, 6, 45, 50
8, 248736, Note_off_c, 6, 45, 64
8, 248760, Note_on_c, 6, 45, 52
8, 248856, Note_off_c, 6, 45, 64
8, 248880, Note_on_c, 6, 45, 53
8, 248976, Note_off_c, 6, 45, 64
8, 249000, Note_on_c, 6, 45, 54
8, 249096, Note_off_c, 6, 45, 64
8, 249120, Note_on_c, 6, 45, 55
8, 249216, Note_off_c, 6, 45, 64
8, 249240, Note_on_c, 6, 45, 56
8, 249336, Note_off_c, 6, 45, 64
8, 249360, Note_on_c, 6, 45, 58
8, 249456, Note_off_c, 6, 45, 64
8, 249480, Note_on_c, 6, 45, 59
8, 249576, Note_off_c, 6, 45, 64
8, 249600, Note_on_c, 6, 45, 60
8, 249696, Note_off_c, 6, 45, 64
8, 249720, Note_on_c, 6, 45, 61
8, 249816, Note_off_c, 6, 45, 64
8, 249840, Note_on_c, 6, 45, 62
8, 249936, Note_off_c, 6, 45, 64
8, 249960, Note_on_c, 6, 45, 62
8, 250056, Note_off_c, 6, 45, 64
8, 250080, Note_on_c, 6, 45, 63
8, 250176, Note_off_c, 6, 45, 64
8, 250200, Note_on_c, 6, 45, 64
8, 250296, Note_off_c, 6, 45, 64
8, 250320, Note_on_c, 6, 45, 65
8, 250416, Note_off_c, 6, 45, 64
8, 250440, Note_on_c, 6, 45, 66
8, 250536, Note_off_c, 6, 45, 64
8, 250560, Note_on_c, 6, 45, 67
8, 250656, Note_off_c, 6, 45, 64
8, 250680, Note_on_c, 6, 45, 67
8, 250776, Note_off_c, 6, 45, 64
8, 250800, Note_on_c, 6, 45, 68
8, 250896, Note_off_c, 6, 45, 64
8, 250920, Note_on_c, 6, 45, 69
8, 251016, Note_off_c, 6, 45, 64
8, 251040, Note_on_c, 6, 45, 70
8, 251136, Note_off_c, 6, 45, 64
8, 251160, Note_on_c, 6, 45, 71
8, 251256, Note_off_c, 6, 45, 64
8, 251280, Note_on_c, 6, 45, 72
8, 251376, Note_off_c, 6, 45, 64
8, 251400, Note_on_c, 6, 45, 72
8, 251496, Note_off_c, 6, 45, 64
8, 251520, Note_on_c, 6, 45, 73
8, 251616, Note_off_c, 6, 45, 64
8, 251640, Note_on_c, 6, 45, 74
8, 251736, Note_off_c, 6, 45, 64
8, 251760, Note_on_c, 6, 45, 75
8, 251856, Note_off_c, 6, 45, 64
8, 251880, Note_on_c, 6, 45, 76
8, 251976, Note_off_c, 6, 45, 64
8, 252000, Note_on_c, 6, 45, 77
8, 252096, Note_off_c, 6, 45, 64
8, 252120, Note_on_c, 6, 45, 77
8, 252216, Note_off_c, 6, 45, 64
8, 252240, Note_on_c, 6, 45, 78
8, 252336, Note_off_c, 6, 45, 64
8, 252360, Note_on_c, 6, 45, 79
8, 252456, Note_off_c, 6, 45, 64
8, 252480, Note_on_c, 6, 45, 80
8, 252576, Note_off_c, 6, 45, 64
8, 252600, Note_on_c, 6, 45, 81
8, 252696, Note_off_c, 6, 45, 64
8, 252720, Note_on_c, 6, 45, 82
8, 252816, Note_off_c, 6, 45, 64
8, 252840, Note_on_c, 6, 45, 82
8, 252936, Note_off_c, 6, 45, 64
8, 252960, Note_on_c, 6, 45, 83
8, 253056, Note_off_c, 6, 45, 64
8, 253080, Note_on_c, 6, 45, 84
8, 253176, Note_off_c, 6, 45, 64
8, 253200, Note_on_c, 6, 45, 85
8, 253296, Note_off_c, 6, 45, 64
8, 253320, Note_on_c, 6, 45, 86
8, 253416, Note_off_c, 6, 45, 64
8, 253440, Note_on_c, 6, 45, 87
8, 253536, Note_off_c, 6, 45, 64
8, 253560, Note_on_c, 6, 45, 87
8, 253656, Note_off_c, 6, 45, 64
8, 253680, Note_on_c, 6, 45, 88
8, 253776, Note_off_c, 6, 45, 64
8, 253800, Note_on_c, 6, 45, 89
8, 253896, Note_off_c, 6, 45, 64
8, 253920, Note_on_c, 6, 45, 90
8, 254016, Note_off_c, 6, 45, 64
8, 254040, Note_on_c, 6, 45, 91
8, 254136, Note_off_c, 6, 45, 64
8, 254160, Note_on_c, 6, 45, 92
8, 254256, Note_off_c, 6, 45, 64
8, 254280, Note_on_c, 6, 45, 92
8, 254376, Note_off_c, 6, 45, 64
8, 254400, Note_on_c, 6, 45, 93
8, 254496, Note_off_c, 6, 45, 64
8, 254520, Note_on_c, 6, 45, 94
8, 254616, Note_off_c, 6, 45, 64
8, 254640, Note_on_c, 6, 45, 95
8, 254736, Note_off_c, 6, 45, 64
8, 254760, Note_on_c, 6, 45, 96
8, 254856, Note_off_c, 6, 45, 64
8, 254880, Note_on_c, 6, 45, 97
8, 254976, Note_off_c, 6, 45, 64
8, 255000, Note_on_c, 6, 45, 97
8, 255096, Note_off_c, 6, 45, 64
8, 255120, Note_on_c, 6, 45, 98
8, 255216, Note_off_c, 6, 45, 64
8, 255240, Note_on_c, 6, 45, 99
8, 255336, Note_off_c, 6, 45, 64
8, 255360, Note_on_c, 6, 45, 127
8, 255424, Note_off_c, 6, 45, 64
8, 255440, Note_on_c, 6, 45, 127
8, 255504, Note_off_c, 6, 45, 64
8, 255520, Note_on_c, 6, 45, 127
8, 255584, Note_off_c, 6, 45, 64
8, 255600, Note_on_c, 6, 45, 127
8, 255664, Note_off_c, 6, 45, 64
8, 255680, Note_on_c, 6, 45, 127
8, 255744, Note_off_c, 6, 45, 64
8, 255760, Note_on_c, 6, 45, 127
8, 255824, Note_off_c, 6, 45, 64
8, 255840, Note_on_c, 6, 45, 127
8, 255904, Note_off_c, 6, 45, 64
8, 255920, Note_on_c, 6, 45, 127
8, 255984, Note_off_c, 6, 45, 64
8, 256000, Note_on_c, 6, 45, 127
8, 256064, Note_off_c, 6, 45, 64
8, 256080, Note_on_c, 6, 45, 127
8, 256144, Note_off_c, 6, 45, 64
8, 256160, Note_on_c, 6, 45, 127
8, 256224, Note_off_c, 6, 45, 64
8, 256240, Note_on_c, 6, 45, 127
8, 256304, Note_off_c, 6, 45, 64
8, 256320, Note_on_c, 6, 45, 127
8, 256384, Note_off_c, 6, 45, 64
8, 256400, Note_on_c, 6, 45, 127
8, 256464, Note_off_c, 6, 45, 64
8, 256480, Note_on_c, 6, 45, 127
8, 256544, Note_off_c, 6, 45, 64
8, 256560, Note_on_c, 6, 45, 127
8, 256624, Note_off_c, 6, 45, 64
8, 256640, Note_on_c, 6, 45, 127
8, 256704, Note_off_c, 6, 45, 64
8, 256720, Note_on_c, 6, 45, 127
8, 256784, Note_off_c, 6, 45, 64
8, 256800, Note_on_c, 6, 45, 127
8, 256864, Note_off_c, 6, 45, 64
8, 256880, Note_on_c, 6, 45, 127
8, 256944, Note_off_c, 6, 45, 64
8, 256960, Note_on_c, 6, 45, 127
8, 257024, Note_off_c, 6, 45, 64
8, 257040, Note_on_c, 6, 45, 127
8, 257104, Note_off_c, 6, 45, 64
8, 257120, Note_on_c, 6, 45, 127
8, 257184, Note_off_c, 6, 45, 64
8, 257200, Note_on_c, 6, 45, 127
8, 257264, Note_off_c, 6, 45, 64
8, 257280, Note_on_c, 6, 52, 127
8, 257344, Note_off_c, 6, 52, 64
8, 257360, Note_on_c, 6, 52, 127
8, 257424, Note_off_c, 6, 52, 64
8, 257440, Note_on_c, 6, 52, 127
8, 257504, Note_off_c, 6, 52, 64
8, 257520, Note_on_c, 6, 52, 127
8, 257584, Note_off_c, 6, 52, 64
8, 257600, Note_on_c, 6, 52, 127
8, 257664, Note_off_c, 6, 52, 64
8, 257680, Note_on_c, 6, 52, 127
8, 257744, Note_off_c, 6, 52, 64
8, 257760, Note_on_c, 6, 52, 127
8, 257824, Note_off_c, 6, 52, 64
8, 257840, Note_on_c, 6, 52, 127
8, 257904, Note_off_c, 6, 52, 64
8, 257920, Note_on_c, 6, 52, 127
8, 257984, Note_off_c, 6, 52, 64
8, 258000, Note_on_c, 6, 52, 127
8, 258064, Note_off_c, 6, 52, 64
8, 258080, Note_on_c, 6, 52, 127
8, 258144, Note_off_c, 6, 52, 64
8, 258160, Note_on_c, 6, 52, 127
8, 258224, Note_off_c, 6, 52, 64
8, 258240, Note_on_c, 6, 45, 127
8, 258304, Note_off_c, 6, 45, 64
8, 258320, Note_on_c, 6, 45, 127
8, 258384, Note_off_c, 6, 45, 64
8, 258400, Note_on_c, 6, 45, 127
8, 258464, Note_off_c, 6, 45, 64
8, 258480, Note_on_c, 6, 45, 127
8, 258544, Note_off_c, 6, 45, 64
8, 258560, Note_on_c, 6, 45, 127
8, 258624, Note_off_c, 6, 45, 64
8, 258640, Note_on_c, 6, 45, 127
8, 258704, Note_off_c, 6, 45, 64
8, 258720, Note_on_c, 6, 45, 127
8, 258784, Note_off_c, 6, 45, 64
8, 258800, Note_on_c, 6, 45, 127
8, 258864, Note_off_c, 6, 45, 64
8, 258880, Note_on_c, 6, 45, 127
8, 258944, Note_off_c, 6, 45, 64
8, 258960, Note_on_c, 6, 45, 127
8, 259024, Note_off_c, 6, 45, 64
8, 259040, Note_on_c, 6, 45, 127
8, 259104, Note_off_c, 6, 45, 64
8, 259120, Note_on_c, 6, 45, 127
8, 259184, Note_off_c, 6, 45, 64
8, 259200, Note_on_c, 6, 52, 127
8, 259264, Note_off_c, 6, 52, 64
8, 259280, Note_on_c, 6, 52, 127
8, 259344, Note_off_c, 6, 52, 64
8, 259360, Note_on_c, 6, 52, 127
8, 259424, Note_off_c, 6, 52, 64
8, 259440, Note_on_c, 6, 52, 127
8, 259504, Note_off_c, 6, 52, 64
8, 259520, Note_on_c, 6, 52, 127
8, 259584, Note_off_c, 6, 52, 64
8, 259600, Note_on_c, 6, 52, 127
8, 259664, Note_off_c, 6, 52, 64
8, 259680, Note_on_c, 6, 52, 127
8, 259744, Note_off_c, 6, 52, 64
8, 259760, Note_on_c, 6, 52, 127
8, 259824, Note_off_c, 6, 52, 64
8, 259840, Note_on_c, 6, 52, 127
8, 259904, Note_off_c, 6, 52, 64
8, 259920, Note_on_c, 6, 52, 127
8, 259984, Note_off_c, 6, 52, 64
8, 260000, Note_on_c, 6, 52, 127
8, 260064, Note_off_c, 6, 52, 64
8, 260080, Note_on_c, 6, 52, 127
8, 260144, Note_off_c, 6, 52, 64
8, 260160, Note_on_c, 6, 45, 127
8, 260224, Note_off_c, 6, 45, 64
8, 260240, Note_on_c, 6, 45, 127
8, 260304, Note_off_c, 6, 45, 64
8, 260320, Note_on_c, 6, 45, 127
8, 260384, Note_off_c, 6, 45, 64
8, 260400, Note_on_c, 6, 45, 127
8, 260464, Note_off_c, 6, 45, 64
8, 260480, Note_on_c, 6, 45, 127
8, 260544, Note_off_c, 6, 45, 64
8, 260560, Note_on_c, 6, 45, 127
8, 260624, Note_off_c, 6, 45, 64
8, 260640, Note_on_c, 6, 45, 127
8, 260704, Note_off_c, 6, 45, 64
8, 260720, Note_on_c, 6, 45, 127
8, 260784, Note_off_c, 6, 45, 64
8, 260800, Note_on_c, 6, 45, 127
8, 260864, Note_off_c, 6, 45, 64
8, 260880, Note_on_c, 6, 45, 127
8, 260944, Note_off_c, 6, 45, 64
8, 260960, Note_on_c, 6, 45, 127
8, 261024, Note_off_c, 6, 45, 64
8, 261040, Note_on_c, 6, 45, 127
8, 261104, Note_off_c, 6, 45, 64
8, 261120, Note_on_c, 6, 52, 127
8, 261184, Note_off_c, 6, 52, 64
8, 261200, Note_on_c, 6, 52, 127
8, 261264, Note_off_c, 6, 52, 64
8, 261280, Note_on_c, 6, 52, 127
8, 261344, Note_off_c, 6, 52, 64
8, 261360, Note_on_c, 6, 52, 127
8, 261424, Note_off_c, 6, 52, 64
8, 261440, Note_on_c, 6, 52, 127
8, 261504, Note_off_c, 6, 52, 64
8, 261520, Note_on_c, 6, 52, 127
8, 261584, Note_off_c, 6, 52, 64
8, 261600, Note_on_c, 6, 52, 127
8, 261664, Note_off_c, 6, 52, 64
8, 261680, Note_on_c, 6, 52, 127
8, 261744, Note_off_c, 6, 52, 64
8, 261760, Note_on_c, 6, 52, 127
8, 261824, Note_off_c, 6, 52, 64
8, 261840, Note_on_c, 6, 52, 127
8, 261904, Note_off_c, 6, 52, 64
8, 261920, Note_on_c, 6, 52, 127
8, 261984, Note_off_c, 6, 52, 64
8, 262000, Note_on_c, 6, 52, 127
8, 262064, Note_off_c, 6, 52, 64
8, 262080, Note_on_c, 6, 45, 127
8, 262144, Note_off_c, 6, 45, 64
8, 262160, Note_on_c, 6, 45, 127
8, 262224, Note_off_c, 6, 45, 64
8, 262240, Note_on_c, 6, 45, 127
8, 262304, Note_off_c, 6, 45, 64
8, 262320, Note_on_c, 6, 45, 127
8, 262384, Note_off_c, 6, 45, 64
8, 262400, Note_on_c, 6, 45, 127
8, 262464, Note_off_c, 6, 45, 64
8, 262480, Note_on_c, 6, 45, 127
8, 262544, Note_off_c, 6, 45, 64
8, 262560, Note_on_c, 6, 45, 127
8, 262624, Note_off_c, 6, 45, 64
8, 262640, Note_on_c, 6, 45, 127
8, 262704, Note_off_c, 6, 45, 64
8, 262720, Note_on_c, 6, 45, 127
8, 262784, Note_off_c, 6, 45, 64
8, 262800, Note_on_c, 6, 45, 127
8, 262864, Note_off_c, 6, 45, 64
8, 262880, Note_on_c, 6, 45, 127
8, 262944, Note_off_c, 6, 45, 64
8, 262960, Note_on_c, 6, 45, 127
8, 263024, Note_off_c, 6, 45, 64
8, 263040, Note_on_c, 6, 52, 127
8, 263104, Note_off_c, 6, 52, 64
8, 263120, Note_on_c, 6, 52, 127
8, 263184, Note_off_c, 6, 52, 64
8, 263200, Note_on_c, 6, 52, 127
8, 263264, Note_off_c, 6, 52, 64
8, 263280, Note_on_c, 6, 52, 127
8, 263344, Note_off_c, 6, 52, 64
8, 263360, Note_on_c, 6, 52, 127
8, 263424, Note_off_c, 6, 52, 64
8, 263440, Note_on_c, 6, 52, 127
8, 263504, Note_off_c, 6, 52, 64
8, 263520, Note_on_c, 6, 52, 127
8, 263584, Note_off_c, 6, 52, 64
8, 263600, Note_on_c, 6, 52, 127
8, 263664, Note_off_c, 6, 52, 64
8, 263680, Note_on_c, 6, 52, 127
8, 263744, Note_off_c, 6, 52, 64
8, 263760, Note_on_c, 6, 52, 127
8, 263824, Note_off_c, 6, 52, 64
8, 263840, Note_on_c, 6, 52, 127
8, 263904, Note_off_c, 6, 52, 64
8, 263920, Note_on_c, 6, 52, 127
8, 263984, Note_off_c, 6, 52, 64
8, 264960, Note_on_c, 6, 52, 127
8, 265024, Note_off_c, 6, 52, 64
8, 265040, Note_on_c, 6, 52, 127
8, 265104, Note_off_c, 6, 52, 64
8, 265120, Note_on_c, 6, 52, 127
8, 265184, Note_off_c, 6, 52, 64
8, 265200, Note_on_c, 6, 52, 127
8, 265264, Note_off_c, 6, 52, 64
8, 265280, Note_on_c, 6, 52, 127
8, 265344, Note_off_c, 6, 52, 64
8, 265360, Note_on_c, 6, 52, 127
8, 265424, Note_off_c, 6, 52, 64
8, 265440, Note_on_c, 6, 45, 127
8, 265504, Note_off_c, 6, 45, 64
8, 265520, Note_on_c, 6, 45, 127
8, 265584, Note_off_c, 6, 45, 64
8, 265600, Note_on_c, 6, 45, 127
8, 265664, Note_off_c, 6, 45, 64
8, 265680, Note_on_c, 6, 45, 127
8, 265744, Note_off_c, 6, 45, 64
8, 265760, Note_on_c, 6, 45, 127
8, 265824, Note_off_c, 6, 45, 64
8, 265840, Note_on_c, 6, 45, 127
8, 265904, Note_off_c, 6, 45, 64
8, 265920, Note_on_c, 6, 45, 127
8, 265984, Note_off_c, 6, 45, 64
8, 266000, Note_on_c, 6, 45, 127
8, 266064, Note_off_c, 6, 45, 64
8, 266080, Note_on_c, 6, 45, 127
8, 266144, Note_off_c, 6, 45, 64
8, 266160, Note_on_c, 6, 45, 127
8, 266224, Note_off_c, 6, 45, 64
8, 266240, Note_on_c, 6, 45, 127
8, 266304, Note_off_c, 6, 45, 64
8, 266320, Note_on_c, 6, 45, 127
8, 266384, Note_off_c, 6, 45, 64
8, 266400, Note_on_c, 6, 45, 127
8, 266464, Note_off_c, 6, 45, 64
8, 266480, Note_on_c, 6, 45, 127
8, 266544, Note_off_c, 6, 45, 64
8, 266560, Note_on_c, 6, 45, 127
8, 266624, Note_off_c, 6, 45, 64
8, 266640, Note_on_c, 6, 45, 127
8, 266704, Note_off_c, 6, 45, 64
8, 266720, Note_on_c, 6, 45, 127
8, 266784, Note_off_c, 6, 45, 64
8, 266800, Note_on_c, 6, 45, 127
8, 266864, Note_off_c, 6, 45, 64
8, 266880, Note_on_c, 6, 52, 127
8, 266944, Note_off_c, 6, 52, 64
8, 266960, Note_on_c, 6, 52, 127
8, 267024, Note_off_c, 6, 52, 64
8, 267040, Note_on_c, 6, 52, 127
8, 267104, Note_off_c, 6, 52, 64
8, 267120, Note_on_c, 6, 52, 127
8, 267184, Note_off_c, 6, 52, 64
8, 267200, Note_on_c, 6, 52, 127
8, 267264, Note_off_c, 6, 52, 64
8, 267280, Note_on_c, 6, 52, 127
8, 267344, Note_off_c, 6, 52, 64
8, 267360, Note_on_c, 6, 45, 127
8, 267424, Note_off_c, 6, 45, 64
8, 267440, Note_on_c, 6, 45, 127
8, 267504, Note_off_c, 6, 45, 64
8, 267520, Note_on_c, 6, 45, 127
8, 267584, Note_off_c, 6, 45, 64
8, 267600, Note_on_c, 6, 45, 127
8, 267664, Note_off_c, 6, 45, 64
8, 267680, Note_on_c, 6, 45, 127
8, 267744, Note_off_c, 6, 45, 64
8, 267760, Note_on_c, 6, 45, 127
8, 267824, Note_off_c, 6, 45, 64
8, 267840, Note_on_c, 6, 45, 127
8, 267904, Note_off_c, 6, 45, 64
8, 267920, Note_on_c, 6, 45, 127
8, 267984, Note_off_c, 6, 45, 64
8, 268000, Note_on_c, 6, 45, 127
8, 268064, Note_off_c, 6, 45, 64
8, 268080, Note_on_c, 6, 45, 127
8, 268144, Note_off_c, 6, 45, 64
8, 268160, Note_on_c, 6, 45, 127
8, 268224, Note_off_c, 6, 45, 64
8, 268240, Note_on_c, 6, 45, 127
8, 268304, Note_off_c, 6, 45, 64
8, 268320, Note_on_c, 6, 45, 127
8, 268384, Note_off_c, 6, 45, 64
8, 268400, Note_on_c, 6, 45, 127
8, 268464, Note_off_c, 6, 45, 64
8, 268480, Note_on_c, 6, 45, 127
8, 268544, Note_off_c, 6, 45, 64
8, 268560, Note_on_c, 6, 45, 127
8, 268624, Note_off_c, 6, 45, 64
8, 268640, Note_on_c, 6, 45, 127
8, 268704, Note_off_c, 6, 45, 64
8, 268720, Note_on_c, 6, 45, 127
8, 268784, Note_off_c, 6, 45, 64
8, 268800, Note_on_c, 6, 52, 127
8, 268864, Note_off_c, 6, 52, 64
8, 268880, Note_on_c, 6, 52, 127
8, 268944, Note_off_c, 6, 52, 64
8, 268960, Note_on_c, 6, 52, 127
8, 269024, Note_off_c, 6, 52, 64
8, 269040, Note_on_c, 6, 52, 127
8, 269104, Note_off_c, 6, 52, 64
8, 269120, Note_on_c, 6, 52, 127
8, 269184, Note_off_c, 6, 52, 64
8, 269200, Note_on_c, 6, 52, 127
8, 269264, Note_off_c, 6, 52, 64
8, 269280, Note_on_c, 6, 45, 127
8, 269344, Note_off_c, 6, 45, 64
8, 269360, Note_on_c, 6, 45, 127
8, 269424, Note_off_c, 6, 45, 64
8, 269440, Note_on_c, 6, 45, 127
8, 269504, Note_off_c, 6, 45, 64
8, 269520, Note_on_c, 6, 45, 127
8, 269584, Note_off_c, 6, 45, 64
8, 269600, Note_on_c, 6, 45, 127
8, 269664, Note_off_c, 6, 45, 64
8, 269680, Note_on_c, 6, 45, 127
8, 269744, Note_off_c, 6, 45, 64
8, 269760, Note_on_c, 6, 52, 127
8, 269824, Note_off_c, 6, 52, 64
8, 269840, Note_on_c, 6, 52, 127
8, 269904, Note_off_c, 6, 52, 64
8, 269920, Note_on_c, 6, 52, 127
8, 269984, Note_off_c, 6, 52, 64
8, 270000, Note_on_c, 6, 52, 127
8, 270064, Note_off_c, 6, 52, 64
8, 270080, Note_on_c, 6, 52, 127
8, 270144, Note_off_c, 6, 52, 64
8, 270160, Note_on_c, 6, 52, 127
8, 270224, Note_off_c, 6, 52, 64
8, 270240, Note_on_c, 6, 45, 127
8, 270304, Note_off_c, 6, 45, 64
8, 270320, Note_on_c, 6, 45, 127
8, 270384, Note_off_c, 6, 45, 64
8, 270400, Note_on_c, 6, 45, 127
8, 270464, Note_off_c, 6, 45, 64
8, 270480, Note_on_c, 6, 45, 127
8, 270544, Note_off_c, 6, 45, 64
8, 270560, Note_on_c, 6, 45, 127
8, 270624, Note_off_c, 6, 45, 64
8, 270640, Note_on_c, 6, 45, 127
8, 270704, Note_off_c, 6, 45, 64
8, 270720, Note_on_c, 6, 52, 127
8, 270784, Note_off_c, 6, 52, 64
8, 270800, Note_on_c, 6, 52, 127
8, 270864, Note_off_c, 6, 52, 64
8, 270880, Note_on_c, 6, 52, 127
8, 270944, Note_off_c, 6, 52, 64
8, 270960, Note_on_c, 6, 52, 127
8, 271024, Note_off_c, 6, 52, 64
8, 271040, Note_on_c, 6, 52, 127
8, 271104, Note_off_c, 6, 52, 64
8, 271120, Note_on_c, 6, 52, 127
8, 271184, Note_off_c, 6, 52, 64
8, 271200, Note_on_c, 6, 45, 127
8, 271264, Note_off_c, 6, 45, 64
8, 271280, Note_on_c, 6, 45, 127
8, 271344, Note_off_c, 6, 45, 64
8, 271360, Note_on_c, 6, 45, 127
8, 271424, Note_off_c, 6, 45, 64
8, 271440, Note_on_c, 6, 45, 127
8, 271504, Note_off_c, 6, 45, 64
8, 271520, Note_on_c, 6, 45, 127
8, 271584, Note_off_c, 6, 45, 64
8, 271600, Note_on_c, 6, 45, 127
8, 271664, Note_off_c, 6, 45, 64
8, 271680, Note_on_c, 6, 52, 127
8, 271744, Note_off_c, 6, 52, 64
8, 271760, Note_on_c, 6, 52, 127
8, 271824, Note_off_c, 6, 52, 64
8, 271840, Note_on_c, 6, 52, 127
8, 271904, Note_off_c, 6, 52, 64
8, 271920, Note_on_c, 6, 52, 127
8, 271984, Note_off_c, 6, 52, 64
8, 272000, Note_on_c, 6, 52, 127
8, 272064, Note_off_c, 6, 52, 64
8, 272080, Note_on_c, 6, 52, 127
8, 272144, Note_off_c, 6, 52, 64
8, 272160, Note_on_c, 6, 52, 127
8, 272224, Note_off_c, 6, 52, 64
8, 272240, Note_on_c, 6, 52, 127
8, 272304, Note_off_c, 6, 52, 64
8, 272320, Note_on_c, 6, 52, 127
8, 272384, Note_off_c, 6, 52, 64
8, 272400, Note_on_c, 6, 52, 127
8, 272464, Note_off_c, 6, 52, 64
8, 272480, Note_on_c, 6, 52, 127
8, 272544, Note_off_c, 6, 52, 64
8, 272560, Note_on_c, 6, 52, 127
8, 272624, Note_off_c, 6, 52, 64
8, 272640, Note_on_c, 6, 52, 120
8, 272832, Note_off_c, 6, 52, 64
8, 272940, Note_on_c, 6, 52, 127
8, 272940, Note_on_c, 6, 52, 127
8, 273054, Note_off_c, 6, 52, 64
8, 273054, Note_off_c, 6, 52, 64
8, 273060, Note_on_c, 6, 52, 127
8, 273174, Note_off_c, 6, 52, 64
8, 273180, Note_on_c, 6, 52, 127
8, 273294, Note_off_c, 6, 52, 64
8, 284160, Note_on_c, 6, 52, 54
8, 284280, Note_off_c, 6, 52, 64
8, 284640, Note_on_c, 6, 52, 114
8, 285240, Note_off_c, 6, 52, 64
8, 285600, Note_on_c, 6, 52, 114
8, 286200, Note_off_c, 6, 52, 64
8, 286560, Note_on_c, 6, 52, 114
8, 287040, Note_off_c, 6, 52, 64
8, 287040, Note_on_c, 6, 45, 54
8, 287160, Note_off_c, 6, 45, 64
8, 298080, Note_on_c, 6, 52, 127
8, 298680, Note_off_c, 6, 52, 64
8, 300000, Note_on_c, 6, 52, 127
8, 300600, Note_off_c, 6, 52, 64
8, 301920, Note_on_c, 6, 52, 127
8, 302520, Note_off_c, 6, 52, 64
8, 303360, Note_on_c, 6, 52, 127
8, 303480, Note_off_c, 6, 52, 64
8, 303600, Note_on_c, 6, 52, 127
8, 303714, Note_off_c, 6, 52, 64
8, 303720, Note_on_c, 6, 52, 127
8, 303834, Note_off_c, 6, 52, 64
8, 303840, Note_on_c, 6, 52, 127
8, 303960, Note_off_c, 6, 52, 64
8, 305760, Note_on_c, 6, 52, 127
8, 306360, Note_off_c, 6, 52, 64
8, 307680, Note_on_c, 6, 52, 127
8, 308280, Note_off_c, 6, 52, 64
8, 309600, Note_on_c, 6, 52, 127
8, 310200, Note_off_c, 6, 52, 64
8, 311040, Note_on_c, 6, 52, 127
8, 311160, Note_off_c, 6, 52, 64
8, 311280, Note_on_c, 6, 52, 127
8, 311394, Note_off_c, 6, 52, 64
8, 311400, Note_on_c, 6, 52, 127
8, 311514, Note_off_c, 6, 52, 64
8, 311520, Note_on_c, 6, 52, 127
8, 311640, Note_off_c, 6, 52, 64
8, 312480, Note_on_c, 6, 45, 127
8, 313080, Note_off_c, 6, 45, 64
8, 313440, Note_on_c, 6, 52, 127
8, 314040, Note_off_c, 6, 52, 64
8, 314400, Note_on_c, 6, 45, 127
8, 315000, Note_off_c, 6, 45, 64
8, 315360, Note_on_c, 6, 52, 127
8, 315960, Note_off_c, 6, 52, 64
8, 317280, Note_on_c, 6, 52, 127
8, 317880, Note_off_c, 6, 52, 64
8, 318720, Note_on_c, 6, 52, 54
8, 318840, Note_off_c, 6, 52, 64
8, 318960, Note_on_c, 6, 52, 120
8, 319020, Note_off_c, 6, 52, 64
8, 319080, Note_on_c, 6, 52, 120
8, 319140, Note_off_c, 6, 52, 64
8, 319200, Note_on_c, 6, 52, 120
8, 319320, Note_off_c, 6, 52, 64
8, 320160, Note_on_c, 6, 45, 127
8, 320760, Note_off_c, 6, 45, 64
8, 321120, Note_on_c, 6, 52, 127
8, 321720, Note_off_c, 6, 52, 64
8, 322080, Note_on_c, 6, 45, 127
8, 322680, Note_off_c, 6, 45, 64
8, 323040, Note_on_c, 6, 52, 127
8, 323640, Note_off_c, 6, 52, 64
8, 324960, Note_on_c, 6, 52, 127
8, 325560, Note_off_c, 6, 52, 64
8, 326400, Note_on_c, 6, 52, 54
8, 326520, Note_off_c, 6, 52, 64
8, 326640, Note_on_c, 6, 52, 120
8, 326700, Note_off_c, 6, 52, 64
8, 326760, Note_on_c, 6, 52, 120
8, 326820, Note_off_c, 6, 52, 64
8, 326880, Note_on_c, 6, 52, 120
8, 327000, Note_off_c, 6, 52, 64
8, 328560, Note_on_c, 6, 52, 80
8, 328656, Note_off_c, 6, 52, 64
8, 328680, Note_on_c, 6, 52, 80
8, 328776, Note_off_c, 6, 52, 64
8, 328800, Note_on_c, 6, 52, 80
8, 328992, Note_off_c, 6, 52, 64
8, 337200, Note_on_c, 6, 45, 72
8, 337260, Note_off_c, 6, 45, 64
8, 337320, Note_on_c, 6, 45, 72
8, 337380, Note_off_c, 6, 45, 64
8, 337440, Note_on_c, 6, 45, 72
8, 337500, Note_off_c, 6, 45, 64
8, 348960, Note_on_c, 6, 52, 104
8, 349344, Note_off_c, 6, 52, 64
8, 349920, Note_on_c, 6, 52, 104
8, 350304, Note_off_c, 6, 52, 64
8, 350880, Note_on_c, 6, 52, 104
8, 351264, Note_off_c, 6, 52, 64
8, 351840, Note_on_c, 6, 52, 104
8, 352224, Note_off_c, 6, 52, 64
8, 352800, Note_on_c, 6, 52, 80
8, 353184, Note_off_c, 6, 52, 64
8, 353760, Note_on_c, 6, 52, 80
8, 354144, Note_off_c, 6, 52, 64
8, 354720, Note_on_c, 6, 52, 80
8, 355104, Note_off_c, 6, 52, 64
8, 355680, Note_on_c, 6, 52, 80
8, 356064, Note_off_c, 6, 52, 64
8, 356640, Note_on_c, 6, 52, 64
8, 357024, Note_off_c, 6, 52, 64
8, 357600, Note_on_c, 6, 52, 51
8, 357984, Note_off_c, 6, 52, 64
8, 383340, Note_on_c, 6, 52, 127
8, 383340, Note_on_c, 6, 52, 127
8, 383454, Note_off_c, 6, 52, 64
8, 383454, Note_off_c, 6, 52, 64
8, 383460, Note_on_c, 6, 52, 127
8, 383574, Note_off_c, 6, 52, 64
8, 383580, Note_on_c, 6, 52, 127
8, 383694, Note_off_c, 6, 52, 64
8, 385740, Note_on_c, 6, 52, 127
8, 385740, Note_on_c, 6, 52, 127
8, 385854, Note_off_c, 6, 52, 64
8, 385854, Note_off_c, 6, 52, 64
8, 385860, Note_on_c, 6, 52, 127
8, 385974, Note_off_c, 6, 52, 64
8, 385980, Note_on_c, 6, 52, 127
8, 386094, Note_off_c, 6, 52, 64
8, 387840, Note_on_c, 6, 52, 81
8, 387960, Note_off_c, 6, 52, 64
8, 388320, Note_on_c, 6, 52, 127
8, 388920, Note_off_c, 6, 52, 64
8, 389280, Note_on_c, 6, 52, 127
8, 389880, Note_off_c, 6, 52, 64
8, 390240, Note_on_c, 6, 52, 127
8, 390840, Note_off_c, 6, 52, 64
8, 391200, Note_on_c, 6, 52, 127
8, 391800, Note_off_c, 6, 52, 64
8, 392160, Note_on_c, 6, 52, 127
8, 392760, Note_off_c, 6, 52, 64
8, 393120, Note_on_c, 6, 52, 127
8, 393720, Note_off_c, 6, 52, 64
8, 394080, Note_on_c, 6, 52, 127
8, 394560, Note_off_c, 6, 52, 64
8, 394560, Note_on_c, 6, 45, 127
8, 394680, Note_off_c, 6, 45, 64
8, 394800, Note_on_c, 6, 45, 127
8, 394914, Note_off_c, 6, 45, 64
8, 394920, Note_on_c, 6, 45, 127
8, 395034, Note_off_c, 6, 45, 64
8, 395040, Note_on_c, 6, 45, 127
8, 395160, Note_off_c, 6, 45, 64
8, 395520, Note_on_c, 6, 52, 81
8, 395640, Note_off_c, 6, 52, 64
8, 396000, Note_on_c, 6, 52, 127
8, 396600, Note_off_c, 6, 52, 64
8, 396960, Note_on_c, 6, 52, 127
8, 397560, Note_off_c, 6, 52, 64
8, 397920, Note_on_c, 6, 52, 127
8, 398520, Note_off_c, 6, 52, 64
8, 398880, Note_on_c, 6, 52, 127
8, 399480, Note_off_c, 6, 52, 64
8, 399840, Note_on_c, 6, 52, 127
8, 400440, Note_off_c, 6, 52, 64
8, 400800, Note_on_c, 6, 52, 127
8, 401400, Note_off_c, 6, 52, 64
8, 401760, Note_on_c, 6, 52, 127
8, 402240, Note_off_c, 6, 52, 64
8, 402240, Note_on_c, 6, 45, 127
8, 402360, Note_off_c, 6, 45, 64
8, 402540, Note_on_c, 6, 45, 127
8, 402654, Note_off_c, 6, 45, 64
8, 402660, Note_on_c, 6, 45, 127
8, 402774, Note_off_c, 6, 45, 64
8, 402780, Note_on_c, 6, 45, 127
8, 402900, Note_off_c, 6, 45, 64
8, 403620, Note_on_c, 6, 45, 127
8, 403734, Note_off_c, 6, 45, 64
8, 403740, Note_on_c, 6, 45, 127
8, 403854, Note_off_c, 6, 45, 64
8, 403860, Note_on_c, 6, 45, 127
8, 403974, Note_off_c, 6, 45, 64
8, 404700, Note_on_c, 6, 52, 127
8, 404814, Note_off_c, 6, 52, 64
8, 404820, Note_on_c, 6, 52, 127
8, 404934, Note_off_c, 6, 52, 64
8, 404940, Note_on_c, 6, 52, 127
8, 405060, Note_off_c, 6, 52, 64
8, 405780, Note_on_c, 6, 52, 127
8, 405894, Note_off_c, 6, 52, 64
8, 405900, Note_on_c, 6, 52, 127
8, 406014, Note_off_c, 6, 52, 64
8, 406020, Note_on_c, 6, 52, 127
8, 406140, Note_off_c, 6, 52, 64
8, 406560, Note_on_c, 6, 45, 72
8, 406944, Note_off_c, 6, 45, 64
8, 407040, Note_on_c, 6, 45, 72
8, 407424, Note_off_c, 6, 45, 64
8, 407520, Note_on_c, 6, 45, 72
8, 407904, Note_off_c, 6, 45, 64
8, 408000, Note_on_c, 6, 45, 72
8, 408384, Note_off_c, 6, 45, 64
8, 408480, Note_on_c, 6, 52, 72
8, 408864, Note_off_c, 6, 52, 64
8, 408960, Note_on_c, 6, 52, 72
8, 409344, Note_off_c, 6, 52, 64
8, 409440, Note_on_c, 6, 52, 72
8, 409824, Note_off_c, 6, 52, 64
8, 409920, Note_on_c, 6, 52, 72
8, 410304, Note_off_c, 6, 52, 64
8, 410400, Note_on_c, 6, 45, 127
8, 410520, Note_off_c, 6, 45, 64
8, 410700, Note_on_c, 6, 45, 127
8, 410814, Note_off_c, 6, 45, 64
8, 410820, Note_on_c, 6, 45, 127
8, 410934, Note_off_c, 6, 45, 64
8, 410940, Note_on_c, 6, 45, 127
8, 411060, Note_off_c, 6, 45, 64
8, 411780, Note_on_c, 6, 45, 127
8, 411894, Note_off_c, 6, 45, 64
8, 411900, Note_on_c, 6, 45, 127
8, 412014, Note_off_c, 6, 45, 64
8, 412020, Note_on_c, 6, 45, 127
8, 412140, Note_off_c, 6, 45, 64
8, 412860, Note_on_c, 6, 52, 127
8, 412974, Note_off_c, 6, 52, 64
8, 412980, Note_on_c, 6, 52, 127
8, 413094, Note_off_c, 6, 52, 64
8, 413100, Note_on_c, 6, 52, 127
8, 413220, Note_off_c, 6, 52, 64
8, 413940, Note_on_c, 6, 52, 127
8, 414054, Note_off_c, 6, 52, 64
8, 414060, Note_on_c, 6, 52, 127
8, 414174, Note_off_c, 6, 52, 64
8, 414180, Note_on_c, 6, 52, 127
8, 414300, Note_off_c, 6, 52, 64
8, 414720, Note_on_c, 6, 45, 80
8, 414912, Note_off_c, 6, 45, 64
8, 415200, Note_on_c, 6, 45, 80
8, 415392, Note_off_c, 6, 45, 64
8, 415680, Note_on_c, 6, 45, 80
8, 415872, Note_off_c, 6, 45, 64
8, 416160, Note_on_c, 6, 45, 80
8, 416352, Note_off_c, 6, 45, 64
8, 416640, Note_on_c, 6, 52, 64
8, 416832, Note_off_c, 6, 52, 64
8, 417120, Note_on_c, 6, 52, 61
8, 417312, Note_off_c, 6, 52, 64
8, 417600, Note_on_c, 6, 52, 57
8, 417792, Note_off_c, 6, 52, 64
8, 418080, Note_on_c, 6, 52, 53
8, 418272, Note_off_c, 6, 52, 64
8, 418560, Note_on_c, 6, 45, 80
8, 418752, Note_off_c, 6, 45, 64
8, 420000, Note_on_c, 6, 52, 80
8, 420384, Note_off_c, 6, 52, 64
8, 420480, Note_on_c, 6, 45, 80
8, 420864, Note_off_c, 6, 45, 64
8, 420960, Note_on_c, 6, 52, 80
8, 421344, Note_off_c, 6, 52, 64
8, 421440, Note_on_c, 6, 45, 80
8, 421824, Note_off_c, 6, 45, 64
8, 421920, Note_on_c, 6, 52, 80
8, 422304, Note_off_c, 6, 52, 64
8, 422400, Note_on_c, 6, 45, 80
8, 422784, Note_off_c, 6, 45, 64
8, 423840, Note_on_c, 6, 52, 80
8, 424224, Note_off_c, 6, 52, 64
8, 424320, Note_on_c, 6, 45, 80
8, 424704, Note_off_c, 6, 45, 64
8, 424800, Note_on_c, 6, 45, 80
8, 425184, Note_off_c, 6, 45, 64
8, 425280, Note_on_c, 6, 45, 80
8, 425664, Note_off_c, 6, 45, 64
8, 425760, Note_on_c, 6, 45, 80
8, 426144, Note_off_c, 6, 45, 64
8, 426240, Note_on_c, 6, 45, 80
8, 426466, Note_off_c, 6, 45, 64
8, 434400, Note_on_c, 6, 45, 80
8, 434784, Note_off_c, 6, 45, 64
8, 434880, Note_on_c, 6, 45, 80
8, 435264, Note_off_c, 6, 45, 64
8, 435360, Note_on_c, 6, 45, 80
8, 435744, Note_off_c, 6, 45, 64
8, 435840, Note_on_c, 6, 45, 80
8, 436224, Note_off_c, 6, 45, 64
8, 436320, Note_on_c, 6, 45, 80
8, 436704, Note_off_c, 6, 45, 64
8, 436800, Note_on_c, 6, 45, 80
8, 437184, Note_off_c, 6, 45, 64
8, 437280, Note_on_c, 6, 45, 80
8, 437664, Note_off_c, 6, 45, 64
8, 437760, Note_on_c, 6, 45, 80
8, 438144, Note_off_c, 6, 45, 64
8, 438240, Note_on_c, 6, 45, 80
8, 438624, Note_off_c, 6, 45, 64
8, 438720, Note_on_c, 6, 45, 80
8, 439104, Note_off_c, 6, 45, 64
8, 439200, Note_on_c, 6, 45, 80
8, 439584, Note_off_c, 6, 45, 64
8, 439680, Note_on_c, 6, 52, 80
8, 440064, Note_off_c, 6, 52, 64
8, 440160, Note_on_c, 6, 52, 80
8, 440544, Note_off_c, 6, 52, 64
8, 440640, Note_on_c, 6, 45, 80
8, 441024, Note_off_c, 6, 45, 64
8, 441120, Note_on_c, 6, 45, 80
8, 441504, Note_off_c, 6, 45, 64
8, 442080, Note_on_c, 6, 45, 80
8, 442464, Note_off_c, 6, 45, 64
8, 442560, Note_on_c, 6, 45, 80
8, 442944, Note_off_c, 6, 45, 64
8, 443040, Note_on_c, 6, 45, 80
8, 443424, Note_off_c, 6, 45, 64
8, 443520, Note_on_c, 6, 52, 80
8, 443904, Note_off_c, 6, 52, 64
8, 444000, Note_on_c, 6, 52, 127
8, 444384, Note_off_c, 6, 52, 64
8, 447840, Note_on_c, 6, 52, 127
8, 448224, Note_off_c, 6, 52, 64
8, 455520, Note_on_c, 6, 45, 80
8, 455904, Note_off_c, 6, 45, 64
8, 456480, Note_on_c, 6, 52, 80
8, 456864, Note_off_c, 6, 52, 64
8, 457440, Note_on_c, 6, 45, 80
8, 457824, Note_off_c, 6, 45, 64
8, 458400, Note_on_c, 6, 52, 80
8, 458784, Note_off_c, 6, 52, 64
8, 465120, Note_on_c, 6, 45, 80
8, 465504, Note_off_c, 6, 45, 64
8, 466080, Note_on_c, 6, 52, 80
8, 466464, Note_off_c, 6, 52, 64
8, 467040, Note_on_c, 6, 45, 80
8, 467424, Note_off_c, 6, 45, 64
8, 468000, Note_on_c, 6, 52, 80
8, 468384, Note_off_c, 6, 52, 64
8, 476160, Note_on_c, 6, 52, 40
8, 476256, Note_off_c, 6, 52, 64
8, 476280, Note_on_c, 6, 52, 40
8, 476376, Note_off_c, 6, 52, 64
8, 476400, Note_on_c, 6, 52, 40
8, 476496, Note_off_c, 6, 52, 64
8, 476520, Note_on_c, 6, 52, 40
8, 476616, Note_off_c, 6, 52, 64
8, 476640, Note_on_c, 6, 52, 40
8, 476736, Note_off_c, 6, 52, 64
8, 476760, Note_on_c, 6, 52, 40
8, 476856, Note_off_c, 6, 52, 64
8, 476880, Note_on_c, 6, 52, 40
8, 476976, Note_off_c, 6, 52, 64
8, 477000, Note_on_c, 6, 52, 40
8, 477096, Note_off_c, 6, 52, 64
8, 477120, Note_on_c, 6, 52, 40
8, 477216, Note_off_c, 6, 52, 64
8, 477240, Note_on_c, 6, 52, 40
8, 477336, Note_off_c, 6, 52, 64
8, 477360, Note_on_c, 6, 52, 40
8, 477456, Note_off_c, 6, 52, 64
8, 477480, Note_on_c, 6, 52, 40
8, 477576, Note_off_c, 6, 52, 64
8, 477600, Note_on_c, 6, 52, 40
8, 477696, Note_off_c, 6, 52, 64
8, 477720, Note_on_c, 6, 52, 40
8, 477816, Note_off_c, 6, 52, 64
8, 477840, Note_on_c, 6, 52, 40
8, 477936, Note_off_c, 6, 52, 64
8, 477960, Note_on_c, 6, 52, 40
8, 478056, Note_off_c, 6, 52, 64
8, 478080, Note_on_c, 6, 52, 40
8, 478176, Note_off_c, 6, 52, 64
8, 478200, Note_on_c, 6, 52, 40
8, 478296, Note_off_c, 6, 52, 64
8, 478320, Note_on_c, 6, 52, 40
8, 478416, Note_off_c, 6, 52, 64
8, 478440, Note_on_c, 6, 52, 40
8, 478536, Note_off_c, 6, 52, 64
8, 478560, Note_on_c, 6, 52, 40
8, 478656, Note_off_c, 6, 52, 64
8, 478680, Note_on_c, 6, 52, 40
8, 478776, Note_off_c, 6, 52, 64
8, 478800, Note_on_c, 6, 52, 40
8, 478896, Note_off_c, 6, 52, 64
8, 478920, Note_on_c, 6, 52, 40
8, 479016, Note_off_c, 6, 52, 64
8, 479040, Note_on_c, 6, 52, 31
8, 479136, Note_off_c, 6, 52, 64
8, 479160, Note_on_c, 6, 52, 33
8, 479256, Note_off_c, 6, 52, 64
8, 479280, Note_on_c, 6, 52, 34
8, 479376, Note_off_c, 6, 52, 64
8, 479400, Note_on_c, 6, 52, 35
8, 479496, Note_off_c, 6, 52, 64
8, 479520, Note_on_c, 6, 52, 36
8, 479616, Note_off_c, 6, 52, 64
8, 479640, Note_on_c, 6, 52, 37
8, 479736, Note_off_c, 6, 52, 64
8, 479760, Note_on_c, 6, 52, 39
8, 479856, Note_off_c, 6, 52, 64
8, 479880, Note_on_c, 6, 52, 40
8, 479976, Note_off_c, 6, 52, 64
8, 480000, Note_on_c, 6, 52, 41
8, 480096, Note_off_c, 6, 52, 64
8, 480120, Note_on_c, 6, 52, 42
8, 480216, Note_off_c, 6, 52, 64
8, 480240, Note_on_c, 6, 52, 43
8, 480336, Note_off_c, 6, 52, 64
8, 480360, Note_on_c, 6, 52, 45
8, 480456, Note_off_c, 6, 52, 64
8, 480480, Note_on_c, 6, 52, 46
8, 480576, Note_off_c, 6, 52, 64
8, 480600, Note_on_c, 6, 52, 47
8, 480696, Note_off_c, 6, 52, 64
8, 480720, Note_on_c, 6, 52, 48
8, 480816, Note_off_c, 6, 52, 64
8, 480840, Note_on_c, 6, 52, 49
8, 480936, Note_off_c, 6, 52, 64
8, 480960, Note_on_c, 6, 52, 50
8, 481056, Note_off_c, 6, 52, 64
8, 481080, Note_on_c, 6, 52, 52
8, 481176, Note_off_c, 6, 52, 64
8, 481200, Note_on_c, 6, 52, 53
8, 481296, Note_off_c, 6, 52, 64
8, 481320, Note_on_c, 6, 52, 54
8, 481416, Note_off_c, 6, 52, 64
8, 481440, Note_on_c, 6, 52, 55
8, 481536, Note_off_c, 6, 52, 64
8, 481560, Note_on_c, 6, 52, 56
8, 481656, Note_off_c, 6, 52, 64
8, 481680, Note_on_c, 6, 52, 58
8, 481776, Note_off_c, 6, 52, 64
8, 481800, Note_on_c, 6, 52, 59
8, 481896, Note_off_c, 6, 52, 64
8, 481920, Note_on_c, 6, 52, 60
8, 482016, Note_off_c, 6, 52, 64
8, 482040, Note_on_c, 6, 52, 61
8, 482136, Note_off_c, 6, 52, 64
8, 482160, Note_on_c, 6, 52, 62
8, 482256, Note_off_c, 6, 52, 64
8, 482280, Note_on_c, 6, 52, 62
8, 482376, Note_off_c, 6, 52, 64
8, 482400, Note_on_c, 6, 52, 63
8, 482496, Note_off_c, 6, 52, 64
8, 482520, Note_on_c, 6, 52, 64
8, 482616, Note_off_c, 6, 52, 64
8, 482640, Note_on_c, 6, 52, 65
8, 482736, Note_off_c, 6, 52, 64
8, 482760, Note_on_c, 6, 52, 66
8, 482856, Note_off_c, 6, 52, 64
8, 482880, Note_on_c, 6, 52, 67
8, 482976, Note_off_c, 6, 52, 64
8, 483000, Note_on_c, 6, 52, 67
8, 483096, Note_off_c, 6, 52, 64
8, 483120, Note_on_c, 6, 52, 68
8, 483216, Note_off_c, 6, 52, 64
8, 483240, Note_on_c, 6, 52, 69
8, 483336, Note_off_c, 6, 52, 64
8, 483360, Note_on_c, 6, 52, 70
8, 483456, Note_off_c, 6, 52, 64
8, 483480, Note_on_c, 6, 52, 71
8, 483576, Note_off_c, 6, 52, 64
8, 483600, Note_on_c, 6, 52, 72
8, 483696, Note_off_c, 6, 52, 64
8, 483720, Note_on_c, 6, 52, 72
8, 483816, Note_off_c, 6, 52, 64
8, 483840, Note_on_c, 6, 52, 73
8, 483936, Note_off_c, 6, 52, 64
8, 483960, Note_on_c, 6, 52, 74
8, 484056, Note_off_c, 6, 52, 64
8, 484080, Note_on_c, 6, 52, 75
8, 484176, Note_off_c, 6, 52, 64
8, 484200, Note_on_c, 6, 52, 76
8, 484296, Note_off_c, 6, 52, 64
8, 484320, Note_on_c, 6, 52, 77
8, 484416, Note_off_c, 6, 52, 64
8, 484440, Note_on_c, 6, 52, 77
8, 484536, Note_off_c, 6, 52, 64
8, 484560, Note_on_c, 6, 52, 78
8, 484656, Note_off_c, 6, 52, 64
8, 484680, Note_on_c, 6, 52, 79
8, 484776, Note_off_c, 6, 52, 64
8, 484800, Note_on_c, 6, 52, 80
8, 484896, Note_off_c, 6, 52, 64
8, 484920, Note_on_c, 6, 52, 81
8, 485016, Note_off_c, 6, 52, 64
8, 485040, Note_on_c, 6, 52, 82
8, 485136, Note_off_c, 6, 52, 64
8, 485160, Note_on_c, 6, 52, 82
8, 485256, Note_off_c, 6, 52, 64
8, 485280, Note_on_c, 6, 52, 83
8, 485376, Note_off_c, 6, 52, 64
8, 485400, Note_on_c, 6, 52, 84
8, 485496, Note_off_c, 6, 52, 64
8, 485520, Note_on_c, 6, 52, 85
8, 485616, Note_off_c, 6, 52, 64
8, 485640, Note_on_c, 6, 52, 86
8, 485736, Note_off_c, 6, 52, 64
8, 485760, Note_on_c, 6, 52, 62
8, 485856, Note_off_c, 6, 52, 64
8, 485880, Note_on_c, 6, 52, 67
8, 485976, Note_off_c, 6, 52, 64
8, 486000, Note_on_c, 6, 52, 71
8, 486096, Note_off_c, 6, 52, 64
8, 486120, Note_on_c, 6, 52, 75
8, 486216, Note_off_c, 6, 52, 64
8, 486240, Note_on_c, 6, 52, 79
8, 486336, Note_off_c, 6, 52, 64
8, 486360, Note_on_c, 6, 52, 83
8, 486456, Note_off_c, 6, 52, 64
8, 486480, Note_on_c, 6, 52, 87
8, 486576, Note_off_c, 6, 52, 64
8, 486600, Note_on_c, 6, 52, 91
8, 486600, Control_c, 6, 7, 110
8, 486696, Note_off_c, 6, 52, 64
8, 486720, Note_on_c, 6, 52, 95
8, 486816, Note_off_c, 6, 52, 64
8, 486840, Note_on_c, 6, 52, 99
8, 486936, Note_off_c, 6, 52, 64
8, 486960, Note_on_c, 6, 52, 104
8, 487056, Note_off_c, 6, 52, 64
8, 487080, Note_on_c, 6, 52, 108
8, 487176, Note_off_c, 6, 52, 64
8, 487200, Note_on_c, 6, 52, 112
8, 487296, Note_off_c, 6, 52, 64
8, 487320, Note_on_c, 6, 52, 116
8, 487416, Note_off_c, 6, 52, 64
8, 487440, Note_on_c, 6, 52, 120
8, 487536, Note_off_c, 6, 52, 64
8, 487560, Note_on_c, 6, 52, 124
8, 487656, Note_off_c, 6, 52, 64
8, 487680, Note_on_c, 6, 52, 110
8, 487776, Note_off_c, 6, 52, 64
8, 487800, Note_on_c, 6, 52, 110
8, 487896, Note_off_c, 6, 52, 64
8, 487920, Note_on_c, 6, 52, 110
8, 488016, Note_off_c, 6, 52, 64
8, 488040, Note_on_c, 6, 52, 110
8, 488136, Note_off_c, 6, 52, 64
8, 488160, Note_on_c, 6, 52, 110
8, 488256, Note_off_c, 6, 52, 64
8, 488280, Note_on_c, 6, 52, 110
8, 488376, Note_off_c, 6, 52, 64
8, 488400, Note_on_c, 6, 52, 110
8, 488496, Note_off_c, 6, 52, 64
8, 488520, Note_on_c, 6, 52, 110
8, 488616, Note_off_c, 6, 52, 64
8, 488640, Note_on_c, 6, 52, 110
8, 488736, Note_off_c, 6, 52, 64
8, 488760, Note_on_c, 6, 52, 110
8, 488856, Note_off_c, 6, 52, 64
8, 488880, Note_on_c, 6, 52, 110
8, 488976, Note_off_c, 6, 52, 64
8, 489000, Note_on_c, 6, 52, 110
8, 489096, Note_off_c, 6, 52, 64
8, 489120, Note_on_c, 6, 52, 110
8, 489216, Note_off_c, 6, 52, 64
8, 489240, Note_on_c, 6, 52, 110
8, 489336, Note_off_c, 6, 52, 64
8, 489360, Note_on_c, 6, 52, 110
8, 489456, Note_off_c, 6, 52, 64
8, 489480, Note_on_c, 6, 52, 110
8, 489576, Note_off_c, 6, 52, 64
8, 489600, Note_on_c, 6, 45, 127
8, 489696, Note_off_c, 6, 45, 64
8, 489720, Note_on_c, 6, 45, 110
8, 489816, Note_off_c, 6, 45, 64
8, 489840, Note_on_c, 6, 45, 110
8, 489936, Note_off_c, 6, 45, 64
8, 489960, Note_on_c, 6, 45, 110
8, 490056, Note_off_c, 6, 45, 64
8, 490080, Note_on_c, 6, 45, 110
8, 490176, Note_off_c, 6, 45, 64
8, 490200, Note_on_c, 6, 45, 110
8, 490296, Note_off_c, 6, 45, 64
8, 490320, Note_on_c, 6, 45, 110
8, 490416, Note_off_c, 6, 45, 64
8, 490440, Note_on_c, 6, 45, 110
8, 490536, Note_off_c, 6, 45, 64
8, 490560, Note_on_c, 6, 52, 110
8, 490656, Note_off_c, 6, 52, 64
8, 490680, Note_on_c, 6, 52, 110
8, 490776, Note_off_c, 6, 52, 64
8, 490800, Note_on_c, 6, 52, 110
8, 490896, Note_off_c, 6, 52, 64
8, 490920, Note_on_c, 6, 52, 110
8, 491016, Note_off_c, 6, 52, 64
8, 491040, Note_on_c, 6, 52, 110
8, 491136, Note_off_c, 6, 52, 64
8, 491160, Note_on_c, 6, 52, 110
8, 491256, Note_off_c, 6, 52, 64
8, 491280, Note_on_c, 6, 52, 110
8, 491376, Note_off_c, 6, 52, 64
8, 491400, Note_on_c, 6, 52, 110
8, 491496, Note_off_c, 6, 52, 64
8, 491520, Note_on_c, 6, 45, 127
8, 491616, Note_off_c, 6, 45, 64
8, 491640, Note_on_c, 6, 45, 110
8, 491736, Note_off_c, 6, 45, 64
8, 491760, Note_on_c, 6, 45, 110
8, 491856, Note_off_c, 6, 45, 64
8, 491880, Note_on_c, 6, 45, 110
8, 491976, Note_off_c, 6, 45, 64
8, 492000, Note_on_c, 6, 45, 110
8, 492096, Note_off_c, 6, 45, 64
8, 492120, Note_on_c, 6, 45, 110
8, 492216, Note_off_c, 6, 45, 64
8, 492240, Note_on_c, 6, 45, 110
8, 492336, Note_off_c, 6, 45, 64
8, 492360, Note_on_c, 6, 45, 110
8, 492456, Note_off_c, 6, 45, 64
8, 492480, Note_on_c, 6, 52, 110
8, 492576, Note_off_c, 6, 52, 64
8, 492600, Note_on_c, 6, 52, 110
8, 492696, Note_off_c, 6, 52, 64
8, 492720, Note_on_c, 6, 52, 110
8, 492816, Note_off_c, 6, 52, 64
8, 492840, Note_on_c, 6, 52, 110
8, 492936, Note_off_c, 6, 52, 64
8, 492960, Note_on_c, 6, 52, 110
8, 493056, Note_off_c, 6, 52, 64
8, 493080, Note_on_c, 6, 52, 110
8, 493176, Note_off_c, 6, 52, 64
8, 493200, Note_on_c, 6, 52, 110
8, 493296, Note_off_c, 6, 52, 64
8, 493320, Note_on_c, 6, 52, 110
8, 493416, Note_off_c, 6, 52, 64
8, 493440, Control_c, 6, 7, 110
8, 493440, Note_on_c, 6, 52, 127
8, 493536, Note_off_c, 6, 52, 64
8, 493560, Note_on_c, 6, 52, 127
8, 493656, Note_off_c, 6, 52, 64
8, 493680, Note_on_c, 6, 52, 127
8, 493776, Note_off_c, 6, 52, 64
8, 493800, Note_on_c, 6, 52, 127
8, 493896, Note_off_c, 6, 52, 64
8, 493920, Note_on_c, 6, 52, 127
8, 494016, Note_off_c, 6, 52, 64
8, 494040, Note_on_c, 6, 52, 127
8, 494136, Note_off_c, 6, 52, 64
8, 494160, Note_on_c, 6, 52, 127
8, 494256, Note_off_c, 6, 52, 64
8, 494280, Note_on_c, 6, 52, 127
8, 494376, Note_off_c, 6, 52, 64
8, 494400, Note_on_c, 6, 52, 127
8, 494496, Note_off_c, 6, 52, 64
8, 494520, Note_on_c, 6, 52, 127
8, 494616, Note_off_c, 6, 52, 64
8, 494640, Note_on_c, 6, 52, 127
8, 494736, Note_off_c, 6, 52, 64
8, 494760, Note_on_c, 6, 52, 127
8, 494856, Note_off_c, 6, 52, 64
8, 494880, Note_on_c, 6, 52, 127
8, 494976, Note_off_c, 6, 52, 64
8, 495000, Note_on_c, 6, 52, 127
8, 495096, Note_off_c, 6, 52, 64
8, 495120, Note_on_c, 6, 52, 127
8, 495216, Note_off_c, 6, 52, 64
8, 495240, Note_on_c, 6, 52, 127
8, 495336, Note_off_c, 6, 52, 64
8, 495360, Control_c, 6, 7, 90
8, 495360, Note_on_c, 6, 45, 127
8, 495456, Note_off_c, 6, 45, 64
8, 495480, Note_on_c, 6, 45, 110
8, 495576, Note_off_c, 6, 45, 64
8, 495600, Note_on_c, 6, 45, 110
8, 495696, Note_off_c, 6, 45, 64
8, 495720, Note_on_c, 6, 45, 110
8, 495816, Note_off_c, 6, 45, 64
8, 495840, Note_on_c, 6, 45, 110
8, 495936, Note_off_c, 6, 45, 64
8, 495960, Note_on_c, 6, 45, 110
8, 496056, Note_off_c, 6, 45, 64
8, 496080, Note_on_c, 6, 45, 110
8, 496176, Note_off_c, 6, 45, 64
8, 496200, Note_on_c, 6, 45, 110
8, 496296, Note_off_c, 6, 45, 64
8, 496320, Note_on_c, 6, 52, 110
8, 496416, Note_off_c, 6, 52, 64
8, 496440, Note_on_c, 6, 52, 110
8, 496536, Note_off_c, 6, 52, 64
8, 496560, Note_on_c, 6, 52, 110
8, 496656, Note_off_c, 6, 52, 64
8, 496680, Note_on_c, 6, 52, 110
8, 496776, Note_off_c, 6, 52, 64
8, 496800, Note_on_c, 6, 52, 110
8, 496896, Note_off_c, 6, 52, 64
8, 496920, Note_on_c, 6, 52, 110
8, 497016, Note_off_c, 6, 52, 64
8, 497040, Note_on_c, 6, 52, 110
8, 497136, Note_off_c, 6, 52, 64
8, 497160, Note_on_c, 6, 52, 110
8, 497256, Note_off_c, 6, 52, 64
8, 497280, Note_on_c, 6, 45, 127
8, 497376, Note_off_c, 6, 45, 64
8, 497400, Note_on_c, 6, 45, 110
8, 497496, Note_off_c, 6, 45, 64
8, 497520, Note_on_c, 6, 45, 110
8, 497616, Note_off_c, 6, 45, 64
8, 497640, Note_on_c, 6, 45, 110
8, 497736, Note_off_c, 6, 45, 64
8, 497760, Note_on_c, 6, 45, 110
8, 497856, Note_off_c, 6, 45, 64
8, 497880, Note_on_c, 6, 45, 110
8, 497976, Note_off_c, 6, 45, 64
8, 498000, Note_on_c, 6, 45, 110
8, 498096, Note_off_c, 6, 45, 64
8, 498120, Note_on_c, 6, 45, 110
8, 498216, Note_off_c, 6, 45, 64
8, 498240, Note_on_c, 6, 45, 127
8, 498336, Note_off_c, 6, 45, 64
8, 498360, Note_on_c, 6, 45, 110
8, 498456, Note_off_c, 6, 45, 64
8, 498480, Note_on_c, 6, 45, 110
8, 498576, Note_off_c, 6, 45, 64
8, 498600, Note_on_c, 6, 45, 110
8, 498696, Note_off_c, 6, 45, 64
8, 498720, Note_on_c, 6, 45, 110
8, 498816, Note_off_c, 6, 45, 64
8, 498840, Note_on_c, 6, 45, 110
8, 498936, Note_off_c, 6, 45, 64
8, 498960, Note_on_c, 6, 45, 110
8, 499056, Note_off_c, 6, 45, 64
8, 499080, Note_on_c, 6, 45, 110
8, 499176, Note_off_c, 6, 45, 64
8, 499200, Note_on_c, 6, 52, 127
8, 499296, Note_off_c, 6, 52, 64
8, 499320, Note_on_c, 6, 52, 110
8, 499416, Note_off_c, 6, 52, 64
8, 499440, Note_on_c, 6, 52, 110
8, 499536, Note_off_c, 6, 52, 64
8, 499560, Note_on_c, 6, 52, 110
8, 499656, Note_off_c, 6, 52, 64
8, 499680, Note_on_c, 6, 52, 110
8, 499776, Note_off_c, 6, 52, 64
8, 499800, Note_on_c, 6, 52, 110
8, 499896, Note_off_c, 6, 52, 64
8, 499920, Note_on_c, 6, 52, 110
8, 500016, Note_off_c, 6, 52, 64
8, 500040, Note_on_c, 6, 52, 110
8, 500136, Note_off_c, 6, 52, 64
8, 500160, Note_on_c, 6, 52, 127
8, 500256, Note_off_c, 6, 52, 64
8, 500280, Note_on_c, 6, 52, 110
8, 500376, Note_off_c, 6, 52, 64
8, 500400, Note_on_c, 6, 52, 110
8, 500496, Note_off_c, 6, 52, 64
8, 500520, Note_on_c, 6, 52, 110
8, 500616, Note_off_c, 6, 52, 64
8, 500640, Note_on_c, 6, 52, 110
8, 500736, Note_off_c, 6, 52, 64
8, 500760, Note_on_c, 6, 52, 110
8, 500856, Note_off_c, 6, 52, 64
8, 500880, Note_on_c, 6, 52, 110
8, 500976, Note_off_c, 6, 52, 64
8, 501000, Note_on_c, 6, 52, 110
8, 501096, Note_off_c, 6, 52, 64
8, 501120, Note_on_c, 6, 45, 110
8, 501216, Note_off_c, 6, 45, 64
8, 501240, Note_on_c, 6, 45, 110
8, 501336, Note_off_c, 6, 45, 64
8, 501360, Note_on_c, 6, 45, 110
8, 501456, Note_off_c, 6, 45, 64
8, 501480, Note_on_c, 6, 45, 110
8, 501576, Note_off_c, 6, 45, 64
8, 501600, Note_on_c, 6, 45, 127
8, 501696, Note_off_c, 6, 45, 64
8, 501720, Note_on_c, 6, 45, 110
8, 501816, Note_off_c, 6, 45, 64
8, 501840, Note_on_c, 6, 45, 110
8, 501936, Note_off_c, 6, 45, 64
8, 501960, Note_on_c, 6, 45, 110
8, 502056, Note_off_c, 6, 45, 64
8, 502080, Note_on_c, 6, 45, 110
8, 502176, Note_off_c, 6, 45, 64
8, 502200, Note_on_c, 6, 45, 110
8, 502296, Note_off_c, 6, 45, 64
8, 502320, Note_on_c, 6, 45, 110
8, 502416, Note_off_c, 6, 45, 64
8, 502440, Note_on_c, 6, 45, 110
8, 502536, Note_off_c, 6, 45, 64
8, 502560, Note_on_c, 6, 45, 110
8, 502656, Note_off_c, 6, 45, 64
8, 502680, Note_on_c, 6, 45, 110
8, 502776, Note_off_c, 6, 45, 64
8, 502800, Note_on_c, 6, 45, 110
8, 502896, Note_off_c, 6, 45, 64
8, 502920, Note_on_c, 6, 45, 110
8, 503016, Note_off_c, 6, 45, 64
8, 503040, Note_on_c, 6, 45, 110
8, 503136, Note_off_c, 6, 45, 64
8, 503160, Note_on_c, 6, 45, 110
8, 503256, Note_off_c, 6, 45, 64
8, 503280, Note_on_c, 6, 45, 110
8, 503376, Note_off_c, 6, 45, 64
8, 503400, Note_on_c, 6, 45, 110
8, 503496, Note_off_c, 6, 45, 64
8, 503520, Note_on_c, 6, 45, 127
8, 503616, Note_off_c, 6, 45, 64
8, 503640, Note_on_c, 6, 45, 110
8, 503736, Note_off_c, 6, 45, 64
8, 503760, Note_on_c, 6, 45, 110
8, 503856, Note_off_c, 6, 45, 64
8, 503880, Note_on_c, 6, 45, 110
8, 503976, Note_off_c, 6, 45, 64
8, 504000, Note_on_c, 6, 45, 110
8, 504096, Note_off_c, 6, 45, 64
8, 504120, Note_on_c, 6, 45, 110
8, 504216, Note_off_c, 6, 45, 64
8, 504240, Note_on_c, 6, 45, 110
8, 504336, Note_off_c, 6, 45, 64
8, 504360, Note_on_c, 6, 45, 110
8, 504456, Note_off_c, 6, 45, 64
8, 504480, Note_on_c, 6, 45, 110
8, 504576, Note_off_c, 6, 45, 64
8, 504600, Note_on_c, 6, 45, 110
8, 504696, Note_off_c, 6, 45, 64
8, 504720, Note_on_c, 6, 45, 110
8, 504816, Note_off_c, 6, 45, 64
8, 504840, Note_on_c, 6, 45, 110
8, 504936, Note_off_c, 6, 45, 64
8, 504960, Note_on_c, 6, 45, 110
8, 505056, Note_off_c, 6, 45, 64
8, 505080, Note_on_c, 6, 45, 110
8, 505176, Note_off_c, 6, 45, 64
8, 505200, Note_on_c, 6, 45, 110
8, 505296, Note_off_c, 6, 45, 64
8, 505320, Note_on_c, 6, 45, 110
8, 505416, Note_off_c, 6, 45, 64
8, 505440, Note_on_c, 6, 45, 127
8, 505536, Note_off_c, 6, 45, 64
8, 505560, Note_on_c, 6, 45, 110
8, 505656, Note_off_c, 6, 45, 64
8, 505680, Note_on_c, 6, 45, 110
8, 505776, Note_off_c, 6, 45, 64
8, 505800, Note_on_c, 6, 45, 110
8, 505896, Note_off_c, 6, 45, 64
8, 505920, Note_on_c, 6, 45, 110
8, 506016, Note_off_c, 6, 45, 64
8, 506040, Note_on_c, 6, 45, 110
8, 506136, Note_off_c, 6, 45, 64
8, 506160, Note_on_c, 6, 45, 110
8, 506256, Note_off_c, 6, 45, 64
8, 506280, Note_on_c, 6, 45, 110
8, 506376, Note_off_c, 6, 45, 64
8, 506400, Note_on_c, 6, 45, 127
8, 506496, Note_off_c, 6, 45, 64
8, 506520, Note_on_c, 6, 45, 110
8, 506616, Note_off_c, 6, 45, 64
8, 506640, Note_on_c, 6, 45, 110
8, 506736, Note_off_c, 6, 45, 64
8, 506760, Note_on_c, 6, 45, 110
8, 506856, Note_off_c, 6, 45, 64
8, 506880, Note_on_c, 6, 45, 110
8, 506976, Note_off_c, 6, 45, 64
8, 507000, Note_on_c, 6, 45, 110
8, 507096, Note_off_c, 6, 45, 64
8, 507120, Note_on_c, 6, 45, 110
8, 507216, Note_off_c, 6, 45, 64
8, 507240, Note_on_c, 6, 45, 110
8, 507336, Note_off_c, 6, 45, 64
8, 507360, Note_on_c, 6, 45, 127
8, 507456, Note_off_c, 6, 45, 64
8, 507480, Note_on_c, 6, 45, 110
8, 507576, Note_off_c, 6, 45, 64
8, 507600, Note_on_c, 6, 45, 110
8, 507696, Note_off_c, 6, 45, 64
8, 507720, Note_on_c, 6, 45, 110
8, 507816, Note_off_c, 6, 45, 64
8, 507840, Note_on_c, 6, 45, 110
8, 507936, Note_off_c, 6, 45, 64
8, 507960, Note_on_c, 6, 45, 110
8, 508056, Note_off_c, 6, 45, 64
8, 508080, Note_on_c, 6, 45, 110
8, 508176, Note_off_c, 6, 45, 64
8, 508200, Note_on_c, 6, 45, 110
8, 508296, Note_off_c, 6, 45, 64
8, 508320, Note_on_c, 6, 45, 110
8, 508416, Note_off_c, 6, 45, 64
8, 508440, Note_on_c, 6, 45, 110
8, 508536, Note_off_c, 6, 45, 64
8, 508560, Note_on_c, 6, 45, 110
8, 508656, Note_off_c, 6, 45, 64
8, 508680, Note_on_c, 6, 45, 110
8, 508776, Note_off_c, 6, 45, 64
8, 508800, Note_on_c, 6, 45, 110
8, 509026, Note_off_c, 6, 45, 64
8, 509100, Note_on_c, 6, 45, 127
8, 509100, Note_on_c, 6, 45, 127
8, 509214, Note_off_c, 6, 45, 64
8, 509214, Note_off_c, 6, 45, 64
8, 509220, Note_on_c, 6, 45, 127
8, 509334, Note_off_c, 6, 45, 64
8, 509340, Note_on_c, 6, 45, 127
8, 509454, Note_off_c, 6, 45, 64
8, 511380, Note_on_c, 6, 45, 127
8, 511380, Note_on_c, 6, 45, 127
8, 511494, Note_off_c, 6, 45, 64
8, 511494, Note_off_c, 6, 45, 64
8, 511500, Note_on_c, 6, 45, 127
8, 511614, Note_off_c, 6, 45, 64
8, 511620, Note_on_c, 6, 45, 127
8, 511734, Note_off_c, 6, 45, 64
8, 513660, Note_on_c, 6, 45, 127
8, 513660, Note_on_c, 6, 45, 127
8, 513774, Note_off_c, 6, 45, 64
8, 513774, Note_off_c, 6, 45, 64
8, 513780, Note_on_c, 6, 45, 127
8, 513894, Note_off_c, 6, 45, 64
8, 513900, Note_on_c, 6, 45, 127
8, 514014, Note_off_c, 6, 45, 64
8, 514740, Note_on_c, 6, 45, 127
8, 514740, Note_on_c, 6, 45, 127
8, 514854, Note_off_c, 6, 45, 64
8, 514854, Note_off_c, 6, 45, 64
8, 514860, Note_on_c, 6, 45, 127
8, 514974, Note_off_c, 6, 45, 64
8, 514980, Note_on_c, 6, 45, 127
8, 515094, Note_off_c, 6, 45, 64
8, 515820, Note_on_c, 6, 45, 127
8, 515820, Note_on_c, 6, 45, 127
8, 515934, Note_off_c, 6, 45, 64
8, 515934, Note_off_c, 6, 45, 64
8, 515940, Note_on_c, 6, 45, 127
8, 516054, Note_off_c, 6, 45, 64
8, 516060, Note_on_c, 6, 45, 127
8, 516174, Note_off_c, 6, 45, 64
8, 516900, Note_on_c, 6, 45, 127
8, 516900, Note_on_c, 6, 45, 127
8, 517014, Note_off_c, 6, 45, 64
8, 517014, Note_off_c, 6, 45, 64
8, 517020, Note_on_c, 6, 45, 127
8, 517134, Note_off_c, 6, 45, 64
8, 517140, Note_on_c, 6, 45, 127
8, 517254, Note_off_c, 6, 45, 64
8, 529320, Note_on_c, 6, 45, 80
8, 529512, Note_off_c, 6, 45, 64
8, 532200, Note_on_c, 6, 45, 80
8, 532392, Note_off_c, 6, 45, 64
8, 545640, Note_on_c, 6, 45, 80
8, 545832, Note_off_c, 6, 45, 64
8, 551400, Note_on_c, 6, 45, 80
8, 551592, Note_off_c, 6, 45, 64
8, 553320, Note_on_c, 6, 52, 80
8, 553512, Note_off_c, 6, 52, 64
8, 555240, Note_on_c, 6, 52, 80
8, 555432, Note_off_c, 6, 52, 64
8, 557160, Note_on_c, 6, 52, 80
8, 557352, Note_off_c, 6, 52, 64
8, 559080, Note_on_c, 6, 52, 80
8, 559272, Note_off_c, 6, 52, 64
8, 561000, Note_on_c, 6, 52, 80
8, 561192, Note_off_c, 6, 52, 64
8, 562920, Note_on_c, 6, 52, 80
8, 563112, Note_off_c, 6, 52, 64
8, 564840, Note_on_c, 6, 52, 80
8, 565032, Note_off_c, 6, 52, 64
8, 566760, Note_on_c, 6, 52, 80
8, 566952, Note_off_c, 6, 52, 64
8, 568680, Note_on_c, 6, 52, 65
8, 568794, Note_off_c, 6, 52, 64
8, 568800, Note_on_c, 6, 52, 67
8, 568896, Note_off_c, 6, 52, 64
8, 568920, Note_on_c, 6, 52, 70
8, 569016, Note_off_c, 6, 52, 64
8, 569040, Note_on_c, 6, 52, 72
8, 569136, Note_off_c, 6, 52, 64
8, 569160, Note_on_c, 6, 52, 74
8, 569256, Note_off_c, 6, 52, 64
8, 569280, Note_on_c, 6, 52, 76
8, 569376, Note_off_c, 6, 52, 64
8, 569400, Note_on_c, 6, 52, 79
8, 569496, Note_off_c, 6, 52, 64
8, 569520, Note_on_c, 6, 52, 81
8, 569616, Note_off_c, 6, 52, 64
8, 569640, Note_on_c, 6, 52, 83
8, 569736, Note_off_c, 6, 52, 64
8, 569760, Note_on_c, 6, 52, 86
8, 569856, Note_off_c, 6, 52, 64
8, 569880, Note_on_c, 6, 52, 88
8, 569976, Note_off_c, 6, 52, 64
8, 570000, Note_on_c, 6, 52, 90
8, 570096, Note_off_c, 6, 52, 64
8, 570120, Note_on_c, 6, 52, 93
8, 570216, Note_off_c, 6, 52, 64
8, 570240, Note_on_c, 6, 52, 95
8, 570336, Note_off_c, 6, 52, 64
8, 570360, Note_on_c, 6, 52, 97
8, 570456, Note_off_c, 6, 52, 64
8, 570480, Note_on_c, 6, 52, 99
8, 570576, Note_off_c, 6, 52, 64
8, 570600, Note_on_c, 6, 52, 102
8, 570696, Note_off_c, 6, 52, 64
8, 570720, Note_on_c, 6, 52, 104
8, 570816, Note_off_c, 6, 52, 64
8, 570840, Note_on_c, 6, 52, 106
8, 570936, Note_off_c, 6, 52, 64
8, 570960, Note_on_c, 6, 52, 109
8, 571056, Note_off_c, 6, 52, 64
8, 571080, Note_on_c, 6, 52, 111
8, 571176, Note_off_c, 6, 52, 64
8, 571200, Note_on_c, 6, 52, 113
8, 571296, Note_off_c, 6, 52, 64
8, 571320, Note_on_c, 6, 52, 115
8, 571416, Note_off_c, 6, 52, 64
8, 571440, Note_on_c, 6, 52, 118
8, 571536, Note_off_c, 6, 52, 64
8, 571560, Note_on_c, 6, 45, 127
8, 571680, Note_off_c, 6, 45, 64
8, 571860, Note_on_c, 6, 45, 127
8, 571974, Note_off_c, 6, 45, 64
8, 571980, Note_on_c, 6, 45, 127
8, 572094, Note_off_c, 6, 45, 64
8, 572100, Note_on_c, 6, 45, 127
8, 572220, Note_off_c, 6, 45, 64
8, 572940, Note_on_c, 6, 45, 127
8, 573054, Note_off_c, 6, 45, 64
8, 573060, Note_on_c, 6, 45, 127
8, 573174, Note_off_c, 6, 45, 64
8, 573180, Note_on_c, 6, 45, 127
8, 573294, Note_off_c, 6, 45, 64
8, 574020, Note_on_c, 6, 52, 127
8, 574134, Note_off_c, 6, 52, 64
8, 574140, Note_on_c, 6, 52, 127
8, 574254, Note_off_c, 6, 52, 64
8, 574260, Note_on_c, 6, 52, 127
8, 574380, Note_off_c, 6, 52, 64
8, 575100, Note_on_c, 6, 52, 127
8, 575214, Note_off_c, 6, 52, 64
8, 575220, Note_on_c, 6, 52, 127
8, 575334, Note_off_c, 6, 52, 64
8, 575340, Note_on_c, 6, 52, 127
8, 575460, Note_off_c, 6, 52, 64
8, 575880, Note_on_c, 6, 45, 72
8, 576264, Note_off_c, 6, 45, 64
8, 576360, Note_on_c, 6, 45, 72
8, 576744, Note_off_c, 6, 45, 64
8, 576840, Note_on_c, 6, 45, 72
8, 577224, Note_off_c, 6, 45, 64
8, 577320, Note_on_c, 6, 45, 72
8, 577704, Note_off_c, 6, 45, 64
8, 577800, Note_on_c, 6, 52, 72
8, 578184, Note_off_c, 6, 52, 64
8, 578280, Note_on_c, 6, 52, 72
8, 578664, Note_off_c, 6, 52, 64
8, 578760, Note_on_c, 6, 52, 72
8, 579144, Note_off_c, 6, 52, 64
8, 579240, Note_on_c, 6, 52, 72
8, 579624, Note_off_c, 6, 52, 64
8, 579720, Note_on_c, 6, 45, 127
8, 579840, Note_off_c, 6, 45, 64
8, 580020, Note_on_c, 6, 45, 127
8, 580134, Note_off_c, 6, 45, 64
8, 580140, Note_on_c, 6, 45, 127
8, 580254, Note_off_c, 6, 45, 64
8, 580260, Note_on_c, 6, 45, 127
8, 580380, Note_off_c, 6, 45, 64
8, 581100, Note_on_c, 6, 45, 127
8, 581214, Note_off_c, 6, 45, 64
8, 581220, Note_on_c, 6, 45, 127
8, 581334, Note_off_c, 6, 45, 64
8, 581340, Note_on_c, 6, 45, 127
8, 581454, Note_off_c, 6, 45, 64
8, 582180, Note_on_c, 6, 52, 127
8, 582294, Note_off_c, 6, 52, 64
8, 582300, Note_on_c, 6, 52, 127
8, 582414, Note_off_c, 6, 52, 64
8, 582420, Note_on_c, 6, 52, 127
8, 582540, Note_off_c, 6, 52, 64
8, 583260, Note_on_c, 6, 52, 127
8, 583374, Note_off_c, 6, 52, 64
8, 583380, Note_on_c, 6, 52, 127
8, 583494, Note_off_c, 6, 52, 64
8, 583500, Note_on_c, 6, 52, 127
8, 583620, Note_off_c, 6, 52, 64
8, 584040, Note_on_c, 6, 45, 80
8, 584232, Note_off_c, 6, 45, 64
8, 584520, Note_on_c, 6, 45, 80
8, 584712, Note_off_c, 6, 45, 64
8, 585000, Note_on_c, 6, 45, 80
8, 585192, Note_off_c, 6, 45, 64
8, 585480, Note_on_c, 6, 45, 80
8, 585672, Note_off_c, 6, 45, 64
8, 585960, Note_on_c, 6, 52, 64
8, 586152, Note_off_c, 6, 52, 64
8, 586440, Note_on_c, 6, 52, 61
8, 586632, Note_off_c, 6, 52, 64
8, 586920, Note_on_c, 6, 52, 57
8, 587112, Note_off_c, 6, 52, 64
8, 587400, Note_on_c, 6, 52, 53
8, 587592, Note_off_c, 6, 52, 64
8, 587880, Note_on_c, 6, 52, 64
8, 588072, Note_off_c, 6, 52, 64
8, 588360, Note_on_c, 6, 52, 61
8, 588552, Note_off_c, 6, 52, 64
8, 588840, Note_on_c, 6, 52, 57
8, 589032, Note_off_c, 6, 52, 64
8, 589320, Note_on_c, 6, 52, 53
8, 589512, Note_off_c, 6, 52, 64
8, 589800, Note_on_c, 6, 52, 64
8, 589992, Note_off_c, 6, 52, 64
8, 590280, Note_on_c, 6, 52, 61
8, 590472, Note_off_c, 6, 52, 64
8, 590760, Note_on_c, 6, 52, 57
8, 590952, Note_off_c, 6, 52, 64
8, 591240, Note_on_c, 6, 52, 53
8, 591432, Note_off_c, 6, 52, 64
8, 591720, Note_on_c, 6, 52, 64
8, 591912, Note_off_c, 6, 52, 64
8, 592200, Note_on_c, 6, 52, 61
8, 592392, Note_off_c, 6, 52, 64
8, 592680, Note_on_c, 6, 52, 57
8, 592872, Note_off_c, 6, 52, 64
8, 593160, Control_c, 6, 7, 120
8, 593160, Note_on_c, 6, 52, 53
8, 593352, Note_off_c, 6, 52, 64
8, 593640, Note_on_c, 6, 45, 102
8, 593736, Note_off_c, 6, 45, 64
8, 593760, Note_on_c, 6, 45, 102
8, 593856, Note_off_c, 6, 45, 64
8, 593880, Note_on_c, 6, 45, 102
8, 593976, Note_off_c, 6, 45, 64
8, 594000, Note_on_c, 6, 45, 102
8, 594096, Note_off_c, 6, 45, 64
8, 594120, Note_on_c, 6, 45, 102
8, 594216, Note_off_c, 6, 45, 64
8, 594240, Note_on_c, 6, 45, 102
8, 594336, Note_off_c, 6, 45, 64
8, 594360, Note_on_c, 6, 45, 102
8, 594456, Note_off_c, 6, 45, 64
8, 594480, Note_on_c, 6, 45, 102
8, 594576, Note_off_c, 6, 45, 64
8, 594600, Note_on_c, 6, 45, 102
8, 594696, Note_off_c, 6, 45, 64
8, 594720, Note_on_c, 6, 45, 102
8, 594816, Note_off_c, 6, 45, 64
8, 594840, Note_on_c, 6, 45, 102
8, 594936, Note_off_c, 6, 45, 64
8, 594960, Note_on_c, 6, 45, 102
8, 595056, Note_off_c, 6, 45, 64
8, 595080, Note_on_c, 6, 45, 102
8, 595176, Note_off_c, 6, 45, 64
8, 595200, Note_on_c, 6, 45, 102
8, 595296, Note_off_c, 6, 45, 64
8, 595320, Note_on_c, 6, 45, 102
8, 595416, Note_off_c, 6, 45, 64
8, 595440, Note_on_c, 6, 45, 102
8, 595536, Note_off_c, 6, 45, 64
8, 595560, Note_on_c, 6, 45, 102
8, 595656, Note_off_c, 6, 45, 64
8, 595680, Note_on_c, 6, 45, 102
8, 595776, Note_off_c, 6, 45, 64
8, 595800, Note_on_c, 6, 45, 102
8, 595896, Note_off_c, 6, 45, 64
8, 595920, Note_on_c, 6, 45, 102
8, 596016, Note_off_c, 6, 45, 64
8, 596040, Note_on_c, 6, 45, 102
8, 596136, Note_off_c, 6, 45, 64
8, 596160, Note_on_c, 6, 45, 102
8, 596256, Note_off_c, 6, 45, 64
8, 596280, Note_on_c, 6, 45, 102
8, 596376, Note_off_c, 6, 45, 64
8, 596400, Note_on_c, 6, 45, 102
8, 596496, Note_off_c, 6, 45, 64
8, 596520, Note_on_c, 6, 45, 102
8, 596616, Note_off_c, 6, 45, 64
8, 596640, Note_on_c, 6, 45, 102
8, 596736, Note_off_c, 6, 45, 64
8, 596760, Note_on_c, 6, 45, 102
8, 596856, Note_off_c, 6, 45, 64
8, 596880, Note_on_c, 6, 45, 102
8, 596976, Note_off_c, 6, 45, 64
8, 597000, Note_on_c, 6, 45, 102
8, 597096, Note_off_c, 6, 45, 64
8, 597120, Note_on_c, 6, 45, 102
8, 597216, Note_off_c, 6, 45, 64
8, 597240, Note_on_c, 6, 45, 102
8, 597336, Note_off_c, 6, 45, 64
8, 597360, Note_on_c, 6, 45, 102
8, 597456, Note_off_c, 6, 45, 64
8, 597480, Note_on_c, 6, 45, 127
8, 597576, Note_off_c, 6, 45, 64
8, 597600, Note_on_c, 6, 45, 82
8, 597696, Note_off_c, 6, 45, 64
8, 597720, Note_on_c, 6, 45, 82
8, 597816, Note_off_c, 6, 45, 64
8, 597840, Note_on_c, 6, 45, 82
8, 597936, Note_off_c, 6, 45, 64
8, 597960, Note_on_c, 6, 45, 82
8, 598056, Note_off_c, 6, 45, 64
8, 598080, Note_on_c, 6, 45, 82
8, 598176, Note_off_c, 6, 45, 64
8, 598200, Note_on_c, 6, 45, 82
8, 598296, Note_off_c, 6, 45, 64
8, 598320, Note_on_c, 6, 45, 82
8, 598416, Note_off_c, 6, 45, 64
8, 598440, Note_on_c, 6, 45, 127
8, 598536, Note_off_c, 6, 45, 64
8, 598560, Note_on_c, 6, 45, 82
8, 598656, Note_off_c, 6, 45, 64
8, 598680, Note_on_c, 6, 45, 82
8, 598776, Note_off_c, 6, 45, 64
8, 598800, Note_on_c, 6, 45, 82
8, 598896, Note_off_c, 6, 45, 64
8, 598920, Note_on_c, 6, 45, 82
8, 599016, Note_off_c, 6, 45, 64
8, 599040, Note_on_c, 6, 45, 82
8, 599136, Note_off_c, 6, 45, 64
8, 599160, Note_on_c, 6, 45, 82
8, 599256, Note_off_c, 6, 45, 64
8, 599280, Note_on_c, 6, 45, 82
8, 599376, Note_off_c, 6, 45, 64
8, 599400, Note_on_c, 6, 52, 127
8, 599496, Note_off_c, 6, 52, 64
8, 599520, Note_on_c, 6, 52, 82
8, 599616, Note_off_c, 6, 52, 64
8, 599640, Note_on_c, 6, 52, 82
8, 599736, Note_off_c, 6, 52, 64
8, 599760, Note_on_c, 6, 52, 82
8, 599856, Note_off_c, 6, 52, 64
8, 599880, Note_on_c, 6, 52, 82
8, 599976, Note_off_c, 6, 52, 64
8, 600000, Note_on_c, 6, 52, 82
8, 600096, Note_off_c, 6, 52, 64
8, 600120, Note_on_c, 6, 52, 82
8, 600216, Note_off_c, 6, 52, 64
8, 600240, Note_on_c, 6, 52, 82
8, 600336, Note_off_c, 6, 52, 64
8, 600360, Note_on_c, 6, 52, 127
8, 600456, Note_off_c, 6, 52, 64
8, 600480, Note_on_c, 6, 52, 82
8, 600576, Note_off_c, 6, 52, 64
8, 600600, Note_on_c, 6, 52, 82
8, 600696, Note_off_c, 6, 52, 64
8, 600720, Note_on_c, 6, 52, 82
8, 600816, Note_off_c, 6, 52, 64
8, 600840, Note_on_c, 6, 52, 82
8, 600936, Note_off_c, 6, 52, 64
8, 600960, Note_on_c, 6, 52, 82
8, 601056, Note_off_c, 6, 52, 64
8, 601080, Note_on_c, 6, 52, 82
8, 601176, Note_off_c, 6, 52, 64
8, 601200, Note_on_c, 6, 52, 82
8, 601296, Note_off_c, 6, 52, 64
8, 601320, Note_on_c, 6, 52, 64
8, 601512, Note_off_c, 6, 52, 64
8, 601800, Note_on_c, 6, 52, 61
8, 601992, Note_off_c, 6, 52, 64
8, 602280, Note_on_c, 6, 52, 57
8, 602472, Note_off_c, 6, 52, 64
8, 602760, Note_on_c, 6, 52, 53
8, 602952, Note_off_c, 6, 52, 64
8, 603240, Note_on_c, 6, 52, 64
8, 603432, Note_off_c, 6, 52, 64
8, 603720, Note_on_c, 6, 52, 61
8, 603912, Note_off_c, 6, 52, 64
8, 604200, Note_on_c, 6, 52, 57
8, 604392, Note_off_c, 6, 52, 64
8, 604680, Note_on_c, 6, 52, 53
8, 604872, Note_off_c, 6, 52, 64
8, 605160, Note_on_c, 6, 52, 64
8, 605352, Note_off_c, 6, 52, 64
8, 605640, Note_on_c, 6, 52, 61
8, 605832, Note_off_c, 6, 52, 64
8, 606120, Note_on_c, 6, 52, 57
8, 606312, Note_off_c, 6, 52, 64
8, 606600, Note_on_c, 6, 52, 53
8, 606792, Note_off_c, 6, 52, 64
8, 607080, Note_on_c, 6, 52, 63
8, 607272, Note_off_c, 6, 52, 64
8, 607560, Note_on_c, 6, 52, 77
8, 607752, Note_off_c, 6, 52, 64
8, 608040, Note_on_c, 6, 52, 92
8, 608232, Note_off_c, 6, 52, 64
8, 608520, Note_on_c, 6, 52, 106
8, 608712, Note_off_c, 6, 52, 64
8, 609000, Note_on_c, 6, 45, 102
8, 609096, Note_off_c, 6, 45, 64
8, 609120, Note_on_c, 6, 45, 102
8, 609216, Note_off_c, 6, 45, 64
8, 609240, Note_on_c, 6, 45, 102
8, 609336, Note_off_c, 6, 45, 64
8, 609360, Note_on_c, 6, 45, 102
8, 609456, Note_off_c, 6, 45, 64
8, 609480, Note_on_c, 6, 45, 102
8, 609576, Note_off_c, 6, 45, 64
8, 609600, Note_on_c, 6, 45, 102
8, 609696, Note_off_c, 6, 45, 64
8, 609720, Note_on_c, 6, 45, 102
8, 609816, Note_off_c, 6, 45, 64
8, 609840, Note_on_c, 6, 45, 102
8, 609936, Note_off_c, 6, 45, 64
8, 609960, Note_on_c, 6, 45, 102
8, 610056, Note_off_c, 6, 45, 64
8, 610080, Note_on_c, 6, 45, 102
8, 610176, Note_off_c, 6, 45, 64
8, 610200, Note_on_c, 6, 45, 102
8, 610296, Note_off_c, 6, 45, 64
8, 610320, Note_on_c, 6, 45, 102
8, 610416, Note_off_c, 6, 45, 64
8, 610440, Note_on_c, 6, 45, 102
8, 610536, Note_off_c, 6, 45, 64
8, 610560, Note_on_c, 6, 45, 102
8, 610656, Note_off_c, 6, 45, 64
8, 610680, Note_on_c, 6, 45, 102
8, 610776, Note_off_c, 6, 45, 64
8, 610800, Note_on_c, 6, 45, 102
8, 610896, Note_off_c, 6, 45, 64
8, 610920, Note_on_c, 6, 45, 102
8, 611016, Note_off_c, 6, 45, 64
8, 611040, Note_on_c, 6, 45, 102
8, 611136, Note_off_c, 6, 45, 64
8, 611160, Note_on_c, 6, 45, 102
8, 611256, Note_off_c, 6, 45, 64
8, 611280, Note_on_c, 6, 45, 102
8, 611376, Note_off_c, 6, 45, 64
8, 611400, Note_on_c, 6, 45, 102
8, 611496, Note_off_c, 6, 45, 64
8, 611520, Note_on_c, 6, 45, 102
8, 611616, Note_off_c, 6, 45, 64
8, 611640, Note_on_c, 6, 45, 102
8, 611736, Note_off_c, 6, 45, 64
8, 611760, Note_on_c, 6, 45, 102
8, 611856, Note_off_c, 6, 45, 64
8, 611880, Note_on_c, 6, 45, 102
8, 611976, Note_off_c, 6, 45, 64
8, 612000, Note_on_c, 6, 45, 102
8, 612096, Note_off_c, 6, 45, 64
8, 612120, Note_on_c, 6, 45, 102
8, 612216, Note_off_c, 6, 45, 64
8, 612240, Note_on_c, 6, 45, 102
8, 612336, Note_off_c, 6, 45, 64
8, 612360, Note_on_c, 6, 45, 102
8, 612456, Note_off_c, 6, 45, 64
8, 612480, Note_on_c, 6, 45, 102
8, 612576, Note_off_c, 6, 45, 64
8, 612600, Note_on_c, 6, 45, 102
8, 612696, Note_off_c, 6, 45, 64
8, 612720, Note_on_c, 6, 45, 102
8, 612816, Note_off_c, 6, 45, 64
8, 612840, Note_on_c, 6, 45, 127
8, 612936, Note_off_c, 6, 45, 64
8, 612960, Note_on_c, 6, 45, 82
8, 613056, Note_off_c, 6, 45, 64
8, 613080, Note_on_c, 6, 45, 82
8, 613176, Note_off_c, 6, 45, 64
8, 613200, Note_on_c, 6, 45, 82
8, 613296, Note_off_c, 6, 45, 64
8, 613320, Note_on_c, 6, 45, 82
8, 613416, Note_off_c, 6, 45, 64
8, 613440, Note_on_c, 6, 45, 82
8, 613536, Note_off_c, 6, 45, 64
8, 613560, Note_on_c, 6, 45, 82
8, 613656, Note_off_c, 6, 45, 64
8, 613680, Note_on_c, 6, 45, 82
8, 613776, Note_off_c, 6, 45, 64
8, 613800, Note_on_c, 6, 45, 127
8, 613896, Note_off_c, 6, 45, 64
8, 613920, Note_on_c, 6, 45, 82
8, 614016, Note_off_c, 6, 45, 64
8, 614040, Note_on_c, 6, 45, 82
8, 614136, Note_off_c, 6, 45, 64
8, 614160, Note_on_c, 6, 45, 82
8, 614256, Note_off_c, 6, 45, 64
8, 614280, Note_on_c, 6, 45, 82
8, 614376, Note_off_c, 6, 45, 64
8, 614400, Note_on_c, 6, 45, 82
8, 614496, Note_off_c, 6, 45, 64
8, 614520, Note_on_c, 6, 45, 82
8, 614616, Note_off_c, 6, 45, 64
8, 614640, Note_on_c, 6, 45, 82
8, 614736, Note_off_c, 6, 45, 64
8, 614760, Note_on_c, 6, 52, 127
8, 614856, Note_off_c, 6, 52, 64
8, 614880, Note_on_c, 6, 52, 82
8, 614976, Note_off_c, 6, 52, 64
8, 615000, Note_on_c, 6, 52, 82
8, 615096, Note_off_c, 6, 52, 64
8, 615120, Note_on_c, 6, 52, 82
8, 615216, Note_off_c, 6, 52, 64
8, 615240, Note_on_c, 6, 52, 82
8, 615336, Note_off_c, 6, 52, 64
8, 615360, Note_on_c, 6, 52, 82
8, 615456, Note_off_c, 6, 52, 64
8, 615480, Note_on_c, 6, 52, 82
8, 615576, Note_off_c, 6, 52, 64
8, 615600, Note_on_c, 6, 52, 82
8, 615696, Note_off_c, 6, 52, 64
8, 615720, Note_on_c, 6, 52, 127
8, 615816, Note_off_c, 6, 52, 64
8, 615840, Note_on_c, 6, 52, 82
8, 615936, Note_off_c, 6, 52, 64
8, 615960, Note_on_c, 6, 52, 82
8, 616056, Note_off_c, 6, 52, 64
8, 616080, Note_on_c, 6, 52, 82
8, 616176, Note_off_c, 6, 52, 64
8, 616200, Note_on_c, 6, 52, 82
8, 616296, Note_off_c, 6, 52, 64
8, 616320, Note_on_c, 6, 52, 82
8, 616416, Note_off_c, 6, 52, 64
8, 616440, Note_on_c, 6, 52, 82
8, 616536, Note_off_c, 6, 52, 64
8, 616560, Note_on_c, 6, 52, 82
8, 616656, Note_off_c, 6, 52, 64
8, 616680, Note_on_c, 6, 45, 127
8, 616800, Note_off_c, 6, 45, 64
8, 618120, Note_on_c, 6, 52, 112
8, 618216, Note_off_c, 6, 52, 64
8, 618240, Note_on_c, 6, 52, 112
8, 618336, Note_off_c, 6, 52, 64
8, 618360, Note_on_c, 6, 52, 112
8, 618456, Note_off_c, 6, 52, 64
8, 618480, Note_on_c, 6, 52, 112
8, 618576, Note_off_c, 6, 52, 64
8, 618600, Note_on_c, 6, 45, 112
8, 618696, Note_off_c, 6, 45, 64
8, 618720, Note_on_c, 6, 45, 112
8, 618816, Note_off_c, 6, 45, 64
8, 618840, Note_on_c, 6, 45, 112
8, 618840, Note_on_c, 6, 45, 112
8, 618936, Note_off_c, 6, 45, 64
8, 618936, Note_off_c, 6, 45, 64
8, 618960, Note_on_c, 6, 45, 112
8, 619056, Note_off_c, 6, 45, 64
8, 619080, Note_on_c, 6, 52, 112
8, 619176, Note_off_c, 6, 52, 64
8, 619200, Note_on_c, 6, 52, 112
8, 619296, Note_off_c, 6, 52, 64
8, 619320, Note_on_c, 6, 52, 112
8, 619416, Note_off_c, 6, 52, 64
8, 619440, Note_on_c, 6, 52, 112
8, 619536, Note_off_c, 6, 52, 64
8, 619560, Note_on_c, 6, 45, 112
8, 619656, Note_off_c, 6, 45, 64
8, 619680, Note_on_c, 6, 45, 112
8, 619776, Note_off_c, 6, 45, 64
8, 619800, Note_on_c, 6, 45, 112
8, 619896, Note_off_c, 6, 45, 64
8, 619920, Note_on_c, 6, 45, 112
8, 620016, Note_off_c, 6, 45, 64
8, 620040, Note_on_c, 6, 52, 112
8, 620136, Note_off_c, 6, 52, 64
8, 620160, Note_on_c, 6, 52, 112
8, 620256, Note_off_c, 6, 52, 64
8, 620280, Note_on_c, 6, 52, 112
8, 620376, Note_off_c, 6, 52, 64
8, 620400, Note_on_c, 6, 52, 112
8, 620496, Note_off_c, 6, 52, 64
8, 620520, Note_on_c, 6, 45, 127
8, 620640, Note_off_c, 6, 45, 64
8, 621960, Note_on_c, 6, 52, 112
8, 622056, Note_off_c, 6, 52, 64
8, 622080, Note_on_c, 6, 52, 112
8, 622176, Note_off_c, 6, 52, 64
8, 622200, Note_on_c, 6, 52, 112
8, 622296, Note_off_c, 6, 52, 64
8, 622320, Note_on_c, 6, 52, 112
8, 622416, Note_off_c, 6, 52, 64
8, 622440, Note_on_c, 6, 45, 112
8, 622536, Note_off_c, 6, 45, 64
8, 622560, Note_on_c, 6, 45, 112
8, 622656, Note_off_c, 6, 45, 64
8, 622680, Note_on_c, 6, 45, 112
8, 622680, Note_on_c, 6, 45, 112
8, 622776, Note_off_c, 6, 45, 64
8, 622776, Note_off_c, 6, 45, 64
8, 622800, Note_on_c, 6, 45, 112
8, 622896, Note_off_c, 6, 45, 64
8, 622920, Note_on_c, 6, 52, 112
8, 623016, Note_off_c, 6, 52, 64
8, 623040, Note_on_c, 6, 52, 112
8, 623136, Note_off_c, 6, 52, 64
8, 623160, Note_on_c, 6, 52, 112
8, 623256, Note_off_c, 6, 52, 64
8, 623280, Note_on_c, 6, 52, 112
8, 623376, Note_off_c, 6, 52, 64
8, 623400, Note_on_c, 6, 45, 112
8, 623496, Note_off_c, 6, 45, 64
8, 623520, Note_on_c, 6, 45, 112
8, 623616, Note_off_c, 6, 45, 64
8, 623640, Note_on_c, 6, 45, 112
8, 623736, Note_off_c, 6, 45, 64
8, 623760, Note_on_c, 6, 45, 112
8, 623856, Note_off_c, 6, 45, 64
8, 623880, Note_on_c, 6, 52, 112
8, 623976, Note_off_c, 6, 52, 64
8, 624000, Note_on_c, 6, 52, 112
8, 624096, Note_off_c, 6, 52, 64
8, 624120, Note_on_c, 6, 52, 112
8, 624216, Note_off_c, 6, 52, 64
8, 624240, Note_on_c, 6, 52, 112
8, 624336, Note_off_c, 6, 52, 64
8, 624360, Note_on_c, 6, 52, 127
8, 624456, Note_off_c, 6, 52, 64
8, 624480, Note_on_c, 6, 52, 112
8, 624576, Note_off_c, 6, 52, 64
8, 624600, Note_on_c, 6, 52, 112
8, 624696, Note_off_c, 6, 52, 64
8, 624720, Note_on_c, 6, 52, 112
8, 624816, Note_off_c, 6, 52, 64
8, 624840, Note_on_c, 6, 52, 127
8, 624936, Note_off_c, 6, 52, 64
8, 624960, Note_on_c, 6, 52, 112
8, 625056, Note_off_c, 6, 52, 64
8, 625080, Note_on_c, 6, 52, 112
8, 625176, Note_off_c, 6, 52, 64
8, 625200, Note_on_c, 6, 52, 112
8, 625296, Note_off_c, 6, 52, 64
8, 625320, Note_on_c, 6, 52, 127
8, 625416, Note_off_c, 6, 52, 64
8, 625440, Note_on_c, 6, 52, 112
8, 625536, Note_off_c, 6, 52, 64
8, 625560, Note_on_c, 6, 52, 112
8, 625656, Note_off_c, 6, 52, 64
8, 625680, Note_on_c, 6, 52, 112
8, 625776, Note_off_c, 6, 52, 64
8, 625800, Note_on_c, 6, 52, 127
8, 625896, Note_off_c, 6, 52, 64
8, 625920, Note_on_c, 6, 52, 112
8, 626016, Note_off_c, 6, 52, 64
8, 626040, Note_on_c, 6, 52, 112
8, 626136, Note_off_c, 6, 52, 64
8, 626160, Note_on_c, 6, 52, 112
8, 626256, Note_off_c, 6, 52, 64
8, 626280, Note_on_c, 6, 52, 127
8, 626376, Note_off_c, 6, 52, 64
8, 626400, Note_on_c, 6, 52, 112
8, 626496, Note_off_c, 6, 52, 64
8, 626520, Note_on_c, 6, 52, 112
8, 626616, Note_off_c, 6, 52, 64
8, 626640, Note_on_c, 6, 52, 112
8, 626736, Note_off_c, 6, 52, 64
8, 626760, Note_on_c, 6, 52, 127
8, 626856, Note_off_c, 6, 52, 64
8, 626880, Note_on_c, 6, 52, 112
8, 626976, Note_off_c, 6, 52, 64
8, 627000, Note_on_c, 6, 52, 112
8, 627096, Note_off_c, 6, 52, 64
8, 627120, Note_on_c, 6, 52, 112
8, 627216, Note_off_c, 6, 52, 64
8, 627240, Note_on_c, 6, 52, 127
8, 627336, Note_off_c, 6, 52, 64
8, 627360, Note_on_c, 6, 52, 112
8, 627456, Note_off_c, 6, 52, 64
8, 627480, Note_on_c, 6, 52, 112
8, 627576, Note_off_c, 6, 52, 64
8, 627600, Note_on_c, 6, 52, 112
8, 627696, Note_off_c, 6, 52, 64
8, 627720, Note_on_c, 6, 52, 127
8, 627816, Note_off_c, 6, 52, 64
8, 627840, Note_on_c, 6, 52, 112
8, 627936, Note_off_c, 6, 52, 64
8, 627960, Note_on_c, 6, 52, 112
8, 628056, Note_off_c, 6, 52, 64
8, 628080, Note_on_c, 6, 52, 112
8, 628176, Note_off_c, 6, 52, 64
8, 628200, Note_on_c, 6, 45, 127
8, 628426, Note_off_c, 6, 45, 64
8, 629040, Note_on_c, 6, 45, 80
8, 629136, Note_off_c, 6, 45, 64
8, 629160, Note_on_c, 6, 45, 80
8, 629256, Note_off_c, 6, 45, 64
8, 629280, Note_on_c, 6, 45, 127
8, 629506, Note_off_c, 6, 45, 64
8, 630240, Note_on_c, 6, 45, 80
8, 630336, Note_off_c, 6, 45, 64
8, 630360, Note_on_c, 6, 45, 80
8, 630456, Note_off_c, 6, 45, 64
8, 630480, Note_on_c, 6, 45, 127
8, 630706, Note_off_c, 6, 45, 64
8, 630706, End_track
9, 0, Start_track
9, 0, Title_t, "Color"
9, 0, MIDI_port, 0
9, 0, Channel_prefix, 7
9, 0, Control_c, 7, 7, 90
9, 0, Control_c, 7, 10, 63
9, 0, Program_c, 7, 66
9, 0, Control_c, 7, 91, 66
9, 480, Control_c, 7, 10, 60
9, 129600, Control_c, 7, 10, 35
9, 129600, Program_c, 7, 65
9, 131520, Note_on_c, 7, 80, 64
9, 131520, Note_on_c, 7, 68, 64
9, 131616, Note_off_c, 7, 68, 64
9, 131616, Note_off_c, 7, 80, 64
9, 131640, Note_on_c, 7, 76, 64
9, 131640, Note_on_c, 7, 64, 64
9, 131736, Note_off_c, 7, 64, 64
9, 131736, Note_off_c, 7, 76, 64
9, 131760, Note_on_c, 7, 78, 64
9, 131760, Note_on_c, 7, 66, 64
9, 131856, Note_off_c, 7, 66, 64
9, 131856, Note_off_c, 7, 78, 64
9, 131880, Note_on_c, 7, 68, 64
9, 131880, Note_on_c, 7, 80, 64
9, 131976, Note_off_c, 7, 80, 64
9, 131976, Note_off_c, 7, 68, 64
9, 132000, Note_on_c, 7, 83, 124
9, 132000, Note_on_c, 7, 71, 124
9, 132096, Note_off_c, 7, 71, 64
9, 132096, Note_off_c, 7, 83, 64
9, 132120, Note_on_c, 7, 69, 64
9, 132120, Note_on_c, 7, 81, 64
9, 132216, Note_off_c, 7, 81, 64
9, 132216, Note_off_c, 7, 69, 64
9, 132240, Note_on_c, 7, 80, 64
9, 132240, Note_on_c, 7, 68, 64
9, 132336, Note_off_c, 7, 68, 64
9, 132336, Note_off_c, 7, 80, 64
9, 132360, Note_on_c, 7, 66, 64
9, 132360, Note_on_c, 7, 78, 64
9, 132456, Note_off_c, 7, 78, 64
9, 132456, Note_off_c, 7, 66, 64
9, 132480, Note_on_c, 7, 83, 64
9, 132480, Note_on_c, 7, 71, 64
9, 132576, Note_off_c, 7, 71, 64
9, 132576, Note_off_c, 7, 83, 64
9, 132600, Note_on_c, 7, 81, 64
9, 132600, Note_on_c, 7, 69, 64
9, 132696, Note_off_c, 7, 69, 64
9, 132696, Note_off_c, 7, 81, 64
9, 132720, Note_on_c, 7, 80, 64
9, 132720, Note_on_c, 7, 68, 64
9, 132816, Note_off_c, 7, 68, 64
9, 132816, Note_off_c, 7, 80, 64
9, 132840, Note_on_c, 7, 66, 64
9, 132840, Note_on_c, 7, 78, 64
9, 132936, Note_off_c, 7, 78, 64
9, 132936, Note_off_c, 7, 66, 64
9, 132960, Note_on_c, 7, 83, 64
9, 132960, Note_on_c, 7, 71, 64
9, 133056, Note_off_c, 7, 71, 64
9, 133056, Note_off_c, 7, 83, 64
9, 133080, Note_on_c, 7, 69, 64
9, 133080, Note_on_c, 7, 81, 64
9, 133176, Note_off_c, 7, 81, 64
9, 133176, Note_off_c, 7, 69, 64
9, 133200, Note_on_c, 7, 80, 64
9, 133200, Note_on_c, 7, 68, 64
9, 133296, Note_off_c, 7, 68, 64
9, 133296, Note_off_c, 7, 80, 64
9, 133320, Note_on_c, 7, 66, 64
9, 133320, Note_on_c, 7, 78, 64
9, 133416, Note_off_c, 7, 78, 64
9, 133416, Note_off_c, 7, 66, 64
9, 133440, Note_on_c, 7, 80, 64
9, 133440, Note_on_c, 7, 68, 64
9, 133536, Note_off_c, 7, 68, 64
9, 133536, Note_off_c, 7, 80, 64
9, 133560, Note_on_c, 7, 76, 64
9, 133560, Note_on_c, 7, 64, 64
9, 133656, Note_off_c, 7, 64, 64
9, 133656, Note_off_c, 7, 76, 64
9, 133680, Note_on_c, 7, 78, 64
9, 133680, Note_on_c, 7, 66, 64
9, 133776, Note_off_c, 7, 66, 64
9, 133776, Note_off_c, 7, 78, 64
9, 133800, Note_on_c, 7, 68, 64
9, 133800, Note_on_c, 7, 80, 64
9, 133896, Note_off_c, 7, 80, 64
9, 133896, Note_off_c, 7, 68, 64
9, 133920, Note_on_c, 7, 83, 124
9, 133920, Note_on_c, 7, 71, 124
9, 134016, Note_off_c, 7, 71, 64
9, 134016, Note_off_c, 7, 83, 64
9, 134040, Note_on_c, 7, 69, 64
9, 134040, Note_on_c, 7, 81, 64
9, 134136, Note_off_c, 7, 81, 64
9, 134136, Note_off_c, 7, 69, 64
9, 134160, Note_on_c, 7, 80, 64
9, 134160, Note_on_c, 7, 68, 64
9, 134256, Note_off_c, 7, 68, 64
9, 134256, Note_off_c, 7, 80, 64
9, 134280, Note_on_c, 7, 66, 64
9, 134280, Note_on_c, 7, 78, 64
9, 134376, Note_off_c, 7, 78, 64
9, 134376, Note_off_c, 7, 66, 64
9, 134400, Note_on_c, 7, 83, 64
9, 134400, Note_on_c, 7, 71, 64
9, 134496, Note_off_c, 7, 71, 64
9, 134496, Note_off_c, 7, 83, 64
9, 134520, Note_on_c, 7, 81, 64
9, 134520, Note_on_c, 7, 69, 64
9, 134616, Note_off_c, 7, 69, 64
9, 134616, Note_off_c, 7, 81, 64
9, 134640, Note_on_c, 7, 80, 64
9, 134640, Note_on_c, 7, 68, 64
9, 134736, Note_off_c, 7, 68, 64
9, 134736, Note_off_c, 7, 80, 64
9, 134760, Note_on_c, 7, 66, 64
9, 134760, Note_on_c, 7, 78, 64
9, 134856, Note_off_c, 7, 78, 64
9, 134856, Note_off_c, 7, 66, 64
9, 134880, Note_on_c, 7, 83, 64
9, 134880, Note_on_c, 7, 71, 64
9, 134976, Note_off_c, 7, 71, 64
9, 134976, Note_off_c, 7, 83, 64
9, 135000, Note_on_c, 7, 69, 64
9, 135000, Note_on_c, 7, 81, 64
9, 135096, Note_off_c, 7, 81, 64
9, 135096, Note_off_c, 7, 69, 64
9, 135120, Note_on_c, 7, 80, 64
9, 135120, Note_on_c, 7, 68, 64
9, 135216, Note_off_c, 7, 68, 64
9, 135216, Note_off_c, 7, 80, 64
9, 135240, Note_on_c, 7, 66, 64
9, 135240, Note_on_c, 7, 78, 64
9, 135336, Note_off_c, 7, 78, 64
9, 135336, Note_off_c, 7, 66, 64
9, 135360, Note_on_c, 7, 76, 64
9, 135360, Note_on_c, 7, 64, 64
9, 135456, Note_off_c, 7, 64, 64
9, 135456, Note_off_c, 7, 76, 64
9, 135480, Note_on_c, 7, 76, 64
9, 135480, Note_on_c, 7, 64, 64
9, 135576, Note_off_c, 7, 64, 64
9, 135576, Note_off_c, 7, 76, 64
9, 135600, Note_on_c, 7, 78, 64
9, 135600, Note_on_c, 7, 66, 64
9, 135696, Note_off_c, 7, 66, 64
9, 135696, Note_off_c, 7, 78, 64
9, 135720, Note_on_c, 7, 68, 64
9, 135720, Note_on_c, 7, 80, 64
9, 135816, Note_off_c, 7, 80, 64
9, 135816, Note_off_c, 7, 68, 64
9, 135840, Note_on_c, 7, 83, 124
9, 135840, Note_on_c, 7, 71, 124
9, 135936, Note_off_c, 7, 71, 64
9, 135936, Note_off_c, 7, 83, 64
9, 135960, Note_on_c, 7, 69, 64
9, 135960, Note_on_c, 7, 81, 64
9, 136056, Note_off_c, 7, 81, 64
9, 136056, Note_off_c, 7, 69, 64
9, 136080, Note_on_c, 7, 80, 64
9, 136080, Note_on_c, 7, 68, 64
9, 136176, Note_off_c, 7, 68, 64
9, 136176, Note_off_c, 7, 80, 64
9, 136200, Note_on_c, 7, 66, 64
9, 136200, Note_on_c, 7, 78, 64
9, 136296, Note_off_c, 7, 78, 64
9, 136296, Note_off_c, 7, 66, 64
9, 136320, Note_on_c, 7, 76, 64
9, 136320, Note_on_c, 7, 64, 64
9, 136416, Note_off_c, 7, 64, 64
9, 136416, Note_off_c, 7, 76, 64
9, 136440, Note_on_c, 7, 76, 64
9, 136440, Note_on_c, 7, 64, 64
9, 136536, Note_off_c, 7, 64, 64
9, 136536, Note_off_c, 7, 76, 64
9, 136560, Note_on_c, 7, 78, 64
9, 136560, Note_on_c, 7, 66, 64
9, 136656, Note_off_c, 7, 66, 64
9, 136656, Note_off_c, 7, 78, 64
9, 136680, Note_on_c, 7, 68, 64
9, 136680, Note_on_c, 7, 80, 64
9, 136776, Note_off_c, 7, 80, 64
9, 136776, Note_off_c, 7, 68, 64
9, 136800, Note_on_c, 7, 83, 124
9, 136800, Note_on_c, 7, 71, 124
9, 136896, Note_off_c, 7, 71, 64
9, 136896, Note_off_c, 7, 83, 64
9, 136920, Note_on_c, 7, 69, 64
9, 136920, Note_on_c, 7, 81, 64
9, 137016, Note_off_c, 7, 81, 64
9, 137016, Note_off_c, 7, 69, 64
9, 137040, Note_on_c, 7, 80, 64
9, 137040, Note_on_c, 7, 68, 64
9, 137136, Note_off_c, 7, 68, 64
9, 137136, Note_off_c, 7, 80, 64
9, 137160, Note_on_c, 7, 66, 64
9, 137160, Note_on_c, 7, 78, 64
9, 137256, Note_off_c, 7, 78, 64
9, 137256, Note_off_c, 7, 66, 64
9, 137280, Note_on_c, 7, 76, 64
9, 137280, Note_on_c, 7, 64, 64
9, 137376, Note_off_c, 7, 64, 64
9, 137376, Note_off_c, 7, 76, 64
9, 137400, Note_on_c, 7, 76, 64
9, 137400, Note_on_c, 7, 64, 64
9, 137496, Note_off_c, 7, 64, 64
9, 137496, Note_off_c, 7, 76, 64
9, 137520, Note_on_c, 7, 78, 64
9, 137520, Note_on_c, 7, 66, 64
9, 137616, Note_off_c, 7, 66, 64
9, 137616, Note_off_c, 7, 78, 64
9, 137640, Note_on_c, 7, 68, 64
9, 137640, Note_on_c, 7, 80, 64
9, 137736, Note_off_c, 7, 80, 64
9, 137736, Note_off_c, 7, 68, 64
9, 137760, Note_on_c, 7, 83, 124
9, 137760, Note_on_c, 7, 71, 124
9, 137856, Note_off_c, 7, 71, 64
9, 137856, Note_off_c, 7, 83, 64
9, 137880, Note_on_c, 7, 69, 64
9, 137880, Note_on_c, 7, 81, 64
9, 137976, Note_off_c, 7, 81, 64
9, 137976, Note_off_c, 7, 69, 64
9, 138000, Note_on_c, 7, 80, 64
9, 138000, Note_on_c, 7, 68, 64
9, 138096, Note_off_c, 7, 68, 64
9, 138096, Note_off_c, 7, 80, 64
9, 138120, Note_on_c, 7, 66, 64
9, 138120, Note_on_c, 7, 78, 64
9, 138216, Note_off_c, 7, 78, 64
9, 138216, Note_off_c, 7, 66, 64
9, 138240, Note_on_c, 7, 76, 64
9, 138240, Note_on_c, 7, 64, 64
9, 138336, Note_off_c, 7, 64, 64
9, 138336, Note_off_c, 7, 76, 64
9, 263040, Control_c, 7, 10, 35
9, 263040, Program_c, 7, 65
9, 264960, Note_on_c, 7, 80, 64
9, 264960, Note_on_c, 7, 68, 64
9, 265056, Note_off_c, 7, 68, 64
9, 265056, Note_off_c, 7, 80, 64
9, 265080, Note_on_c, 7, 76, 64
9, 265080, Note_on_c, 7, 64, 64
9, 265176, Note_off_c, 7, 64, 64
9, 265176, Note_off_c, 7, 76, 64
9, 265200, Note_on_c, 7, 78, 64
9, 265200, Note_on_c, 7, 66, 64
9, 265296, Note_off_c, 7, 66, 64
9, 265296, Note_off_c, 7, 78, 64
9, 265320, Note_on_c, 7, 68, 64
9, 265320, Note_on_c, 7, 80, 64
9, 265416, Note_off_c, 7, 80, 64
9, 265416, Note_off_c, 7, 68, 64
9, 265440, Note_on_c, 7, 83, 124
9, 265440, Note_on_c, 7, 71, 124
9, 265536, Note_off_c, 7, 71, 64
9, 265536, Note_off_c, 7, 83, 64
9, 265560, Note_on_c, 7, 69, 64
9, 265560, Note_on_c, 7, 81, 64
9, 265656, Note_off_c, 7, 81, 64
9, 265656, Note_off_c, 7, 69, 64
9, 265680, Note_on_c, 7, 80, 64
9, 265680, Note_on_c, 7, 68, 64
9, 265776, Note_off_c, 7, 68, 64
9, 265776, Note_off_c, 7, 80, 64
9, 265800, Note_on_c, 7, 66, 64
9, 265800, Note_on_c, 7, 78, 64
9, 265896, Note_off_c, 7, 78, 64
9, 265896, Note_off_c, 7, 66, 64
9, 265920, Note_on_c, 7, 83, 64
9, 265920, Note_on_c, 7, 71, 64
9, 266016, Note_off_c, 7, 71, 64
9, 266016, Note_off_c, 7, 83, 64
9, 266040, Note_on_c, 7, 81, 64
9, 266040, Note_on_c, 7, 69, 64
9, 266136, Note_off_c, 7, 69, 64
9, 266136, Note_off_c, 7, 81, 64
9, 266160, Note_on_c, 7, 80, 64
9, 266160, Note_on_c, 7, 68, 64
9, 266256, Note_off_c, 7, 68, 64
9, 266256, Note_off_c, 7, 80, 64
9, 266280, Note_on_c, 7, 66, 64
9, 266280, Note_on_c, 7, 78, 64
9, 266376, Note_off_c, 7, 78, 64
9, 266376, Note_off_c, 7, 66, 64
9, 266400, Note_on_c, 7, 83, 64
9, 266400, Note_on_c, 7, 71, 64
9, 266496, Note_off_c, 7, 71, 64
9, 266496, Note_off_c, 7, 83, 64
9, 266520, Note_on_c, 7, 69, 64
9, 266520, Note_on_c, 7, 81, 64
9, 266616, Note_off_c, 7, 81, 64
9, 266616, Note_off_c, 7, 69, 64
9, 266640, Note_on_c, 7, 80, 64
9, 266640, Note_on_c, 7, 68, 64
9, 266736, Note_off_c, 7, 68, 64
9, 266736, Note_off_c, 7, 80, 64
9, 266760, Note_on_c, 7, 66, 64
9, 266760, Note_on_c, 7, 78, 64
9, 266856, Note_off_c, 7, 78, 64
9, 266856, Note_off_c, 7, 66, 64
9, 266880, Note_on_c, 7, 80, 64
9, 266880, Note_on_c, 7, 68, 64
9, 266976, Note_off_c, 7, 68, 64
9, 266976, Note_off_c, 7, 80, 64
9, 267000, Note_on_c, 7, 76, 64
9, 267000, Note_on_c, 7, 64, 64
9, 267096, Note_off_c, 7, 64, 64
9, 267096, Note_off_c, 7, 76, 64
9, 267120, Note_on_c, 7, 78, 64
9, 267120, Note_on_c, 7, 66, 64
9, 267216, Note_off_c, 7, 66, 64
9, 267216, Note_off_c, 7, 78, 64
9, 267240, Note_on_c, 7, 68, 64
9, 267240, Note_on_c, 7, 80, 64
9, 267336, Note_off_c, 7, 80, 64
9, 267336, Note_off_c, 7, 68, 64
9, 267360, Note_on_c, 7, 83, 124
9, 267360, Note_on_c, 7, 71, 124
9, 267456, Note_off_c, 7, 71, 64
9, 267456, Note_off_c, 7, 83, 64
9, 267480, Note_on_c, 7, 69, 64
9, 267480, Note_on_c, 7, 81, 64
9, 267576, Note_off_c, 7, 81, 64
9, 267576, Note_off_c, 7, 69, 64
9, 267600, Note_on_c, 7, 80, 64
9, 267600, Note_on_c, 7, 68, 64
9, 267696, Note_off_c, 7, 68, 64
9, 267696, Note_off_c, 7, 80, 64
9, 267720, Note_on_c, 7, 66, 64
9, 267720, Note_on_c, 7, 78, 64
9, 267816, Note_off_c, 7, 78, 64
9, 267816, Note_off_c, 7, 66, 64
9, 267840, Note_on_c, 7, 83, 64
9, 267840, Note_on_c, 7, 71, 64
9, 267936, Note_off_c, 7, 71, 64
9, 267936, Note_off_c, 7, 83, 64
9, 267960, Note_on_c, 7, 81, 64
9, 267960, Note_on_c, 7, 69, 64
9, 268056, Note_off_c, 7, 69, 64
9, 268056, Note_off_c, 7, 81, 64
9, 268080, Note_on_c, 7, 80, 64
9, 268080, Note_on_c, 7, 68, 64
9, 268176, Note_off_c, 7, 68, 64
9, 268176, Note_off_c, 7, 80, 64
9, 268200, Note_on_c, 7, 66, 64
9, 268200, Note_on_c, 7, 78, 64
9, 268296, Note_off_c, 7, 78, 64
9, 268296, Note_off_c, 7, 66, 64
9, 268320, Note_on_c, 7, 83, 64
9, 268320, Note_on_c, 7, 71, 64
9, 268416, Note_off_c, 7, 71, 64
9, 268416, Note_off_c, 7, 83, 64
9, 268440, Note_on_c, 7, 69, 64
9, 268440, Note_on_c, 7, 81, 64
9, 268536, Note_off_c, 7, 81, 64
9, 268536, Note_off_c, 7, 69, 64
9, 268560, Note_on_c, 7, 80, 64
9, 268560, Note_on_c, 7, 68, 64
9, 268656, Note_off_c, 7, 68, 64
9, 268656, Note_off_c, 7, 80, 64
9, 268680, Note_on_c, 7, 66, 64
9, 268680, Note_on_c, 7, 78, 64
9, 268776, Note_off_c, 7, 78, 64
9, 268776, Note_off_c, 7, 66, 64
9, 268800, Note_on_c, 7, 76, 64
9, 268800, Note_on_c, 7, 64, 64
9, 268896, Note_off_c, 7, 64, 64
9, 268896, Note_off_c, 7, 76, 64
9, 268920, Note_on_c, 7, 76, 64
9, 268920, Note_on_c, 7, 64, 64
9, 269016, Note_off_c, 7, 64, 64
9, 269016, Note_off_c, 7, 76, 64
9, 269040, Note_on_c, 7, 78, 64
9, 269040, Note_on_c, 7, 66, 64
9, 269136, Note_off_c, 7, 66, 64
9, 269136, Note_off_c, 7, 78, 64
9, 269160, Note_on_c, 7, 68, 64
9, 269160, Note_on_c, 7, 80, 64
9, 269256, Note_off_c, 7, 80, 64
9, 269256, Note_off_c, 7, 68, 64
9, 269280, Note_on_c, 7, 83, 124
9, 269280, Note_on_c, 7, 71, 124
9, 269376, Note_off_c, 7, 71, 64
9, 269376, Note_off_c, 7, 83, 64
9, 269400, Note_on_c, 7, 69, 64
9, 269400, Note_on_c, 7, 81, 64
9, 269496, Note_off_c, 7, 81, 64
9, 269496, Note_off_c, 7, 69, 64
9, 269520, Note_on_c, 7, 80, 64
9, 269520, Note_on_c, 7, 68, 64
9, 269616, Note_off_c, 7, 68, 64
9, 269616, Note_off_c, 7, 80, 64
9, 269640, Note_on_c, 7, 66, 64
9, 269640, Note_on_c, 7, 78, 64
9, 269736, Note_off_c, 7, 78, 64
9, 269736, Note_off_c, 7, 66, 64
9, 269760, Note_on_c, 7, 76, 64
9, 269760, Note_on_c, 7, 64, 64
9, 269856, Note_off_c, 7, 64, 64
9, 269856, Note_off_c, 7, 76, 64
9, 269880, Note_on_c, 7, 76, 64
9, 269880, Note_on_c, 7, 64, 64
9, 269976, Note_off_c, 7, 64, 64
9, 269976, Note_off_c, 7, 76, 64
9, 270000, Note_on_c, 7, 78, 64
9, 270000, Note_on_c, 7, 66, 64
9, 270096, Note_off_c, 7, 66, 64
9, 270096, Note_off_c, 7, 78, 64
9, 270120, Note_on_c, 7, 68, 64
9, 270120, Note_on_c, 7, 80, 64
9, 270216, Note_off_c, 7, 80, 64
9, 270216, Note_off_c, 7, 68, 64
9, 270240, Note_on_c, 7, 83, 124
9, 270240, Note_on_c, 7, 71, 124
9, 270336, Note_off_c, 7, 71, 64
9, 270336, Note_off_c, 7, 83, 64
9, 270360, Note_on_c, 7, 69, 64
9, 270360, Note_on_c, 7, 81, 64
9, 270456, Note_off_c, 7, 81, 64
9, 270456, Note_off_c, 7, 69, 64
9, 270480, Note_on_c, 7, 80, 64
9, 270480, Note_on_c, 7, 68, 64
9, 270576, Note_off_c, 7, 68, 64
9, 270576, Note_off_c, 7, 80, 64
9, 270600, Note_on_c, 7, 66, 64
9, 270600, Note_on_c, 7, 78, 64
9, 270696, Note_off_c, 7, 78, 64
9, 270696, Note_off_c, 7, 66, 64
9, 270720, Note_on_c, 7, 76, 64
9, 270720, Note_on_c, 7, 64, 64
9, 270816, Note_off_c, 7, 64, 64
9, 270816, Note_off_c, 7, 76, 64
9, 270840, Note_on_c, 7, 76, 64
9, 270840, Note_on_c, 7, 64, 64
9, 270936, Note_off_c, 7, 64, 64
9, 270936, Note_off_c, 7, 76, 64
9, 270960, Note_on_c, 7, 78, 64
9, 270960, Note_on_c, 7, 66, 64
9, 271056, Note_off_c, 7, 66, 64
9, 271056, Note_off_c, 7, 78, 64
9, 271080, Note_on_c, 7, 68, 64
9, 271080, Note_on_c, 7, 80, 64
9, 271176, Note_off_c, 7, 80, 64
9, 271176, Note_off_c, 7, 68, 64
9, 271200, Note_on_c, 7, 83, 124
9, 271200, Note_on_c, 7, 71, 124
9, 271296, Note_off_c, 7, 71, 64
9, 271296, Note_off_c, 7, 83, 64
9, 271320, Note_on_c, 7, 69, 64
9, 271320, Note_on_c, 7, 81, 64
9, 271416, Note_off_c, 7, 81, 64
9, 271416, Note_off_c, 7, 69, 64
9, 271440, Note_on_c, 7, 80, 64
9, 271440, Note_on_c, 7, 68, 64
9, 271536, Note_off_c, 7, 68, 64
9, 271536, Note_off_c, 7, 80, 64
9, 271560, Note_on_c, 7, 66, 64
9, 271560, Note_on_c, 7, 78, 64
9, 271656, Note_off_c, 7, 78, 64
9, 271656, Note_off_c, 7, 66, 64
9, 271680, Note_on_c, 7, 64, 64
9, 271680, Note_on_c, 7, 76, 64
9, 271776, Note_off_c, 7, 76, 64
9, 271776, Note_off_c, 7, 64, 64
9, 271776, End_track
10, 0, Start_track
10, 0, Title_t, "Violin 1"
10, 0, MIDI_port, 0
10, 0, Channel_prefix, 8
10, 0, Control_c, 8, 7, 90
10, 0, Control_c, 8, 10, 45
10, 0, Program_c, 8, 48
10, 0, Program_c, 8, 48
10, 0, Control_c, 8, 91, 66
10, 480, Control_c, 8, 93, 90
10, 480, Control_c, 8, 10, 34
10, 1920, Control_c, 8, 7, 110
10, 5760, Note_on_c, 8, 80, 127
10, 5760, Note_on_c, 8, 76, 127
10, 5760, Note_on_c, 8, 88, 127
10, 5904, Note_off_c, 8, 88, 64
10, 5904, Note_off_c, 8, 76, 64
10, 5904, Note_off_c, 8, 80, 64
10, 8160, Note_on_c, 8, 86, 127
10, 8160, Note_on_c, 8, 76, 127
10, 8160, Note_on_c, 8, 83, 127
10, 8304, Note_off_c, 8, 83, 64
10, 8304, Note_off_c, 8, 76, 64
10, 8304, Note_off_c, 8, 86, 64
10, 10560, Note_on_c, 8, 71, 127
10, 10680, Note_off_c, 8, 71, 64
10, 10800, Note_on_c, 8, 71, 127
10, 10920, Note_off_c, 8, 71, 64
10, 10920, Note_on_c, 8, 73, 127
10, 11040, Note_off_c, 8, 73, 64
10, 11040, Note_on_c, 8, 76, 127
10, 11160, Note_off_c, 8, 76, 64
10, 11160, Note_on_c, 8, 74, 127
10, 11280, Note_off_c, 8, 74, 64
10, 11280, Note_on_c, 8, 73, 127
10, 11400, Note_off_c, 8, 73, 64
10, 11400, Note_on_c, 8, 71, 127
10, 11520, Note_off_c, 8, 71, 64
10, 11520, Note_on_c, 8, 73, 127
10, 11640, Note_off_c, 8, 73, 64
10, 11760, Note_on_c, 8, 73, 127
10, 11880, Note_off_c, 8, 73, 64
10, 11880, Note_on_c, 8, 74, 127
10, 12000, Note_off_c, 8, 74, 64
10, 12000, Note_on_c, 8, 78, 127
10, 12120, Note_off_c, 8, 78, 64
10, 12120, Note_on_c, 8, 76, 127
10, 12240, Note_off_c, 8, 76, 64
10, 12240, Note_on_c, 8, 74, 127
10, 12360, Note_off_c, 8, 74, 64
10, 12360, Note_on_c, 8, 73, 127
10, 12480, Note_off_c, 8, 73, 64
10, 12480, Note_on_c, 8, 71, 127
10, 12600, Note_off_c, 8, 71, 64
10, 12720, Note_on_c, 8, 71, 127
10, 12840, Note_off_c, 8, 71, 64
10, 12840, Note_on_c, 8, 73, 127
10, 12960, Note_off_c, 8, 73, 64
10, 12960, Note_on_c, 8, 76, 127
10, 13080, Note_off_c, 8, 76, 64
10, 13080, Note_on_c, 8, 74, 127
10, 13200, Note_off_c, 8, 74, 64
10, 13200, Note_on_c, 8, 73, 127
10, 13320, Note_off_c, 8, 73, 64
10, 13320, Note_on_c, 8, 71, 127
10, 13440, Note_off_c, 8, 71, 64
10, 13440, Note_on_c, 8, 73, 127
10, 13800, Note_off_c, 8, 73, 64
10, 13800, Note_on_c, 8, 81, 127
10, 13896, Note_off_c, 8, 81, 64
10, 13920, Note_on_c, 8, 81, 127
10, 14496, Note_off_c, 8, 81, 64
10, 14640, Note_on_c, 8, 71, 127
10, 14760, Note_off_c, 8, 71, 64
10, 14760, Note_on_c, 8, 73, 127
10, 14880, Note_off_c, 8, 73, 64
10, 14880, Note_on_c, 8, 76, 127
10, 15000, Note_off_c, 8, 76, 64
10, 15000, Note_on_c, 8, 74, 127
10, 15120, Note_off_c, 8, 74, 64
10, 15120, Note_on_c, 8, 73, 127
10, 15240, Note_off_c, 8, 73, 64
10, 15240, Note_on_c, 8, 71, 127
10, 15360, Note_off_c, 8, 71, 64
10, 15360, Note_on_c, 8, 73, 127
10, 15480, Note_off_c, 8, 73, 64
10, 15600, Note_on_c, 8, 73, 127
10, 15720, Note_off_c, 8, 73, 64
10, 15720, Note_on_c, 8, 74, 127
10, 15840, Note_off_c, 8, 74, 64
10, 15840, Note_on_c, 8, 78, 127
10, 15960, Note_off_c, 8, 78, 64
10, 15960, Note_on_c, 8, 76, 127
10, 16080, Note_off_c, 8, 76, 64
10, 16080, Note_on_c, 8, 74, 127
10, 16200, Note_off_c, 8, 74, 64
10, 16200, Note_on_c, 8, 73, 127
10, 16320, Note_off_c, 8, 73, 64
10, 16320, Note_on_c, 8, 71, 127
10, 16440, Note_off_c, 8, 71, 64
10, 16560, Note_on_c, 8, 71, 127
10, 16680, Note_off_c, 8, 71, 64
10, 16680, Note_on_c, 8, 73, 127
10, 16800, Note_off_c, 8, 73, 64
10, 16800, Note_on_c, 8, 76, 127
10, 16920, Note_off_c, 8, 76, 64
10, 16920, Note_on_c, 8, 74, 127
10, 17040, Note_off_c, 8, 74, 64
10, 17040, Note_on_c, 8, 73, 127
10, 17160, Note_off_c, 8, 73, 64
10, 17160, Note_on_c, 8, 71, 127
10, 17280, Note_off_c, 8, 71, 64
10, 17280, Note_on_c, 8, 73, 127
10, 17280, Note_on_c, 8, 64, 127
10, 17280, Note_on_c, 8, 81, 127
10, 17400, Note_off_c, 8, 81, 64
10, 17400, Note_off_c, 8, 64, 64
10, 17400, Note_off_c, 8, 73, 64
10, 18240, Note_on_c, 8, 71, 127
10, 18360, Note_off_c, 8, 71, 64
10, 18480, Note_on_c, 8, 71, 127
10, 18600, Note_off_c, 8, 71, 64
10, 18600, Note_on_c, 8, 73, 127
10, 18720, Note_off_c, 8, 73, 64
10, 18720, Note_on_c, 8, 76, 127
10, 18840, Note_off_c, 8, 76, 64
10, 18840, Note_on_c, 8, 74, 127
10, 18960, Note_off_c, 8, 74, 64
10, 18960, Note_on_c, 8, 73, 127
10, 19080, Note_off_c, 8, 73, 64
10, 19080, Note_on_c, 8, 71, 127
10, 19200, Note_off_c, 8, 71, 64
10, 19200, Note_on_c, 8, 73, 127
10, 19320, Note_off_c, 8, 73, 64
10, 19440, Note_on_c, 8, 73, 127
10, 19560, Note_off_c, 8, 73, 64
10, 19560, Note_on_c, 8, 74, 127
10, 19680, Note_off_c, 8, 74, 64
10, 19680, Note_on_c, 8, 78, 127
10, 19800, Note_off_c, 8, 78, 64
10, 19800, Note_on_c, 8, 76, 127
10, 19920, Note_off_c, 8, 76, 64
10, 19920, Note_on_c, 8, 74, 127
10, 20040, Note_off_c, 8, 74, 64
10, 20040, Note_on_c, 8, 73, 127
10, 20160, Note_off_c, 8, 73, 64
10, 20160, Note_on_c, 8, 71, 127
10, 20280, Note_off_c, 8, 71, 64
10, 20400, Note_on_c, 8, 71, 127
10, 20520, Note_off_c, 8, 71, 64
10, 20520, Note_on_c, 8, 73, 127
10, 20640, Note_off_c, 8, 73, 64
10, 20640, Note_on_c, 8, 76, 127
10, 20760, Note_off_c, 8, 76, 64
10, 20760, Note_on_c, 8, 74, 127
10, 20880, Note_off_c, 8, 74, 64
10, 20880, Note_on_c, 8, 73, 127
10, 21000, Note_off_c, 8, 73, 64
10, 21000, Note_on_c, 8, 71, 127
10, 21120, Note_off_c, 8, 71, 64
10, 21120, Note_on_c, 8, 73, 127
10, 21480, Note_off_c, 8, 73, 64
10, 21480, Note_on_c, 8, 81, 127
10, 21576, Note_off_c, 8, 81, 64
10, 21600, Note_on_c, 8, 81, 127
10, 22176, Note_off_c, 8, 81, 64
10, 22320, Note_on_c, 8, 71, 127
10, 22440, Note_off_c, 8, 71, 64
10, 22440, Note_on_c, 8, 73, 127
10, 22560, Note_off_c, 8, 73, 64
10, 22560, Note_on_c, 8, 76, 127
10, 22680, Note_off_c, 8, 76, 64
10, 22680, Note_on_c, 8, 74, 127
10, 22800, Note_off_c, 8, 74, 64
10, 22800, Note_on_c, 8, 73, 127
10, 22920, Note_off_c, 8, 73, 64
10, 22920, Note_on_c, 8, 71, 127
10, 23040, Note_off_c, 8, 71, 64
10, 23040, Note_on_c, 8, 73, 127
10, 23160, Note_off_c, 8, 73, 64
10, 23280, Note_on_c, 8, 73, 127
10, 23400, Note_off_c, 8, 73, 64
10, 23400, Note_on_c, 8, 74, 127
10, 23520, Note_off_c, 8, 74, 64
10, 23520, Note_on_c, 8, 78, 127
10, 23640, Note_off_c, 8, 78, 64
10, 23640, Note_on_c, 8, 76, 127
10, 23760, Note_off_c, 8, 76, 64
10, 23760, Note_on_c, 8, 74, 127
10, 23880, Note_off_c, 8, 74, 64
10, 23880, Note_on_c, 8, 73, 127
10, 24000, Note_off_c, 8, 73, 64
10, 24000, Note_on_c, 8, 71, 127
10, 24120, Note_off_c, 8, 71, 64
10, 24240, Note_on_c, 8, 71, 127
10, 24360, Note_off_c, 8, 71, 64
10, 24360, Note_on_c, 8, 73, 127
10, 24480, Note_off_c, 8, 73, 64
10, 24480, Note_on_c, 8, 76, 127
10, 24600, Note_off_c, 8, 76, 64
10, 24600, Note_on_c, 8, 74, 127
10, 24720, Note_off_c, 8, 74, 64
10, 24720, Note_on_c, 8, 73, 127
10, 24840, Note_off_c, 8, 73, 64
10, 24840, Note_on_c, 8, 71, 127
10, 24960, Note_off_c, 8, 71, 64
10, 24960, Note_on_c, 8, 81, 127
10, 24960, Note_on_c, 8, 73, 127
10, 24960, Note_on_c, 8, 64, 127
10, 25080, Note_off_c, 8, 64, 64
10, 25080, Note_off_c, 8, 73, 64
10, 25080, Note_off_c, 8, 81, 64
10, 25920, Note_on_c, 8, 78, 127
10, 26040, Note_off_c, 8, 78, 64
10, 26160, Note_on_c, 8, 78, 127
10, 26280, Note_off_c, 8, 78, 64
10, 26280, Note_on_c, 8, 79, 127
10, 26400, Note_off_c, 8, 79, 64
10, 26400, Note_on_c, 8, 83, 127
10, 26520, Note_off_c, 8, 83, 64
10, 26520, Note_on_c, 8, 81, 127
10, 26640, Note_off_c, 8, 81, 64
10, 26640, Note_on_c, 8, 79, 127
10, 26760, Note_off_c, 8, 79, 64
10, 26760, Note_on_c, 8, 78, 127
10, 26880, Note_off_c, 8, 78, 64
10, 26880, Note_on_c, 8, 76, 127
10, 27000, Note_off_c, 8, 76, 64
10, 27120, Note_on_c, 8, 76, 127
10, 27240, Note_off_c, 8, 76, 64
10, 27240, Note_on_c, 8, 78, 127
10, 27360, Note_off_c, 8, 78, 64
10, 27360, Note_on_c, 8, 81, 127
10, 27480, Note_off_c, 8, 81, 64
10, 27480, Note_on_c, 8, 79, 127
10, 27600, Note_off_c, 8, 79, 64
10, 27600, Note_on_c, 8, 78, 127
10, 27720, Note_off_c, 8, 78, 64
10, 27720, Note_on_c, 8, 76, 127
10, 27840, Note_off_c, 8, 76, 64
10, 27840, Note_on_c, 8, 78, 127
10, 27960, Note_off_c, 8, 78, 64
10, 28080, Note_on_c, 8, 78, 127
10, 28200, Note_off_c, 8, 78, 64
10, 28200, Note_on_c, 8, 79, 127
10, 28320, Note_off_c, 8, 79, 64
10, 28320, Note_on_c, 8, 83, 127
10, 28440, Note_off_c, 8, 83, 64
10, 28440, Note_on_c, 8, 81, 127
10, 28560, Note_off_c, 8, 81, 64
10, 28560, Note_on_c, 8, 79, 127
10, 28680, Note_off_c, 8, 79, 64
10, 28680, Note_on_c, 8, 78, 127
10, 28800, Note_off_c, 8, 78, 64
10, 28800, Note_on_c, 8, 78, 127
10, 29040, Note_off_c, 8, 78, 64
10, 29040, Note_on_c, 8, 77, 127
10, 29232, Note_off_c, 8, 77, 64
10, 29280, Note_on_c, 8, 76, 127
10, 29760, Note_off_c, 8, 76, 64
10, 29760, Note_on_c, 8, 75, 127
10, 29880, Note_off_c, 8, 75, 64
10, 30000, Note_on_c, 8, 74, 127
10, 30120, Note_off_c, 8, 74, 64
10, 30120, Note_on_c, 8, 76, 127
10, 30240, Note_off_c, 8, 76, 64
10, 30240, Note_on_c, 8, 80, 127
10, 30360, Note_off_c, 8, 80, 64
10, 30360, Note_on_c, 8, 78, 127
10, 30480, Note_off_c, 8, 78, 64
10, 30480, Note_on_c, 8, 76, 127
10, 30600, Note_off_c, 8, 76, 64
10, 30600, Note_on_c, 8, 74, 127
10, 30720, Note_off_c, 8, 74, 64
10, 30720, Note_on_c, 8, 73, 127
10, 30840, Note_off_c, 8, 73, 64
10, 30960, Note_on_c, 8, 73, 127
10, 31080, Note_off_c, 8, 73, 64
10, 31080, Note_on_c, 8, 74, 127
10, 31200, Note_off_c, 8, 74, 64
10, 31200, Note_on_c, 8, 78, 127
10, 31320, Note_off_c, 8, 78, 64
10, 31320, Note_on_c, 8, 76, 127
10, 31440, Note_off_c, 8, 76, 64
10, 31440, Note_on_c, 8, 74, 127
10, 31560, Note_off_c, 8, 74, 64
10, 31560, Note_on_c, 8, 73, 127
10, 31680, Note_off_c, 8, 73, 64
10, 31680, Note_on_c, 8, 71, 127
10, 31800, Note_off_c, 8, 71, 64
10, 31920, Note_on_c, 8, 71, 127
10, 32040, Note_off_c, 8, 71, 64
10, 32040, Note_on_c, 8, 73, 127
10, 32160, Note_off_c, 8, 73, 64
10, 32160, Note_on_c, 8, 76, 127
10, 32280, Note_off_c, 8, 76, 64
10, 32280, Note_on_c, 8, 74, 127
10, 32400, Note_off_c, 8, 74, 64
10, 32400, Note_on_c, 8, 73, 127
10, 32520, Note_off_c, 8, 73, 64
10, 32520, Note_on_c, 8, 71, 127
10, 32640, Note_off_c, 8, 71, 64
10, 32640, Note_on_c, 8, 73, 127
10, 32640, Note_on_c, 8, 64, 127
10, 32640, Note_on_c, 8, 81, 127
10, 32760, Note_off_c, 8, 81, 64
10, 32760, Note_off_c, 8, 64, 64
10, 32760, Note_off_c, 8, 73, 64
10, 33600, Note_on_c, 8, 78, 127
10, 33720, Note_off_c, 8, 78, 64
10, 33840, Note_on_c, 8, 78, 127
10, 33960, Note_off_c, 8, 78, 64
10, 33960, Note_on_c, 8, 79, 127
10, 34080, Note_off_c, 8, 79, 64
10, 34080, Note_on_c, 8, 83, 127
10, 34200, Note_off_c, 8, 83, 64
10, 34200, Note_on_c, 8, 81, 127
10, 34320, Note_off_c, 8, 81, 64
10, 34320, Note_on_c, 8, 79, 127
10, 34440, Note_off_c, 8, 79, 64
10, 34440, Note_on_c, 8, 78, 127
10, 34560, Note_off_c, 8, 78, 64
10, 34560, Note_on_c, 8, 76, 127
10, 34680, Note_off_c, 8, 76, 64
10, 34800, Note_on_c, 8, 76, 127
10, 34920, Note_off_c, 8, 76, 64
10, 34920, Note_on_c, 8, 78, 127
10, 35040, Note_off_c, 8, 78, 64
10, 35040, Note_on_c, 8, 81, 127
10, 35160, Note_off_c, 8, 81, 64
10, 35160, Note_on_c, 8, 79, 127
10, 35280, Note_off_c, 8, 79, 64
10, 35280, Note_on_c, 8, 78, 127
10, 35400, Note_off_c, 8, 78, 64
10, 35400, Note_on_c, 8, 76, 127
10, 35520, Note_off_c, 8, 76, 64
10, 35520, Note_on_c, 8, 78, 127
10, 35640, Note_off_c, 8, 78, 64
10, 35760, Note_on_c, 8, 78, 127
10, 35880, Note_off_c, 8, 78, 64
10, 35880, Note_on_c, 8, 79, 127
10, 36000, Note_off_c, 8, 79, 64
10, 36000, Note_on_c, 8, 83, 127
10, 36120, Note_off_c, 8, 83, 64
10, 36120, Note_on_c, 8, 81, 127
10, 36240, Note_off_c, 8, 81, 64
10, 36240, Note_on_c, 8, 79, 127
10, 36360, Note_off_c, 8, 79, 64
10, 36360, Note_on_c, 8, 78, 127
10, 36480, Note_off_c, 8, 78, 64
10, 36480, Note_on_c, 8, 78, 127
10, 36720, Note_off_c, 8, 78, 64
10, 36720, Note_on_c, 8, 77, 127
10, 36912, Note_off_c, 8, 77, 64
10, 36960, Note_on_c, 8, 76, 127
10, 37440, Note_off_c, 8, 76, 64
10, 37440, Note_on_c, 8, 75, 127
10, 37560, Note_off_c, 8, 75, 64
10, 37680, Note_on_c, 8, 74, 127
10, 37800, Note_off_c, 8, 74, 64
10, 37800, Note_on_c, 8, 76, 127
10, 37920, Note_off_c, 8, 76, 64
10, 37920, Note_on_c, 8, 80, 127
10, 38040, Note_off_c, 8, 80, 64
10, 38040, Note_on_c, 8, 78, 127
10, 38160, Note_off_c, 8, 78, 64
10, 38160, Note_on_c, 8, 76, 127
10, 38280, Note_off_c, 8, 76, 64
10, 38280, Note_on_c, 8, 74, 127
10, 38400, Note_off_c, 8, 74, 64
10, 38400, Note_on_c, 8, 73, 127
10, 38520, Note_off_c, 8, 73, 64
10, 38640, Note_on_c, 8, 73, 127
10, 38760, Note_off_c, 8, 73, 64
10, 38760, Note_on_c, 8, 74, 127
10, 38880, Note_off_c, 8, 74, 64
10, 38880, Note_on_c, 8, 78, 127
10, 39000, Note_off_c, 8, 78, 64
10, 39000, Note_on_c, 8, 76, 127
10, 39120, Note_off_c, 8, 76, 64
10, 39120, Note_on_c, 8, 74, 127
10, 39240, Note_off_c, 8, 74, 64
10, 39240, Note_on_c, 8, 73, 127
10, 39360, Note_off_c, 8, 73, 64
10, 39360, Note_on_c, 8, 71, 127
10, 39480, Note_off_c, 8, 71, 64
10, 39600, Note_on_c, 8, 71, 127
10, 39720, Note_off_c, 8, 71, 64
10, 39720, Note_on_c, 8, 73, 127
10, 39840, Note_off_c, 8, 73, 64
10, 39840, Note_on_c, 8, 76, 127
10, 39960, Note_off_c, 8, 76, 64
10, 39960, Note_on_c, 8, 74, 127
10, 40080, Note_off_c, 8, 74, 64
10, 40080, Note_on_c, 8, 73, 127
10, 40200, Note_off_c, 8, 73, 64
10, 40200, Note_on_c, 8, 71, 127
10, 40320, Note_off_c, 8, 71, 64
10, 40320, Note_on_c, 8, 64, 127
10, 40320, Note_on_c, 8, 81, 127
10, 40320, Note_on_c, 8, 73, 127
10, 40440, Note_off_c, 8, 73, 64
10, 40440, Note_off_c, 8, 81, 64
10, 40440, Note_off_c, 8, 64, 64
10, 41400, Note_on_c, 8, 64, 127
10, 41400, Note_on_c, 8, 81, 127
10, 41400, Note_on_c, 8, 73, 127
10, 41520, Note_off_c, 8, 73, 64
10, 41520, Note_off_c, 8, 81, 64
10, 41520, Note_off_c, 8, 64, 64
10, 42480, Note_on_c, 8, 64, 127
10, 42480, Note_on_c, 8, 88, 127
10, 42480, Note_on_c, 8, 76, 127
10, 42600, Note_off_c, 8, 76, 64
10, 42600, Note_off_c, 8, 88, 64
10, 42600, Note_off_c, 8, 64, 64
10, 43560, Note_on_c, 8, 64, 127
10, 43560, Note_on_c, 8, 88, 127
10, 43560, Note_on_c, 8, 76, 127
10, 43680, Note_off_c, 8, 76, 64
10, 43680, Note_off_c, 8, 88, 64
10, 43680, Note_off_c, 8, 64, 64
10, 44640, Note_on_c, 8, 64, 127
10, 44640, Note_on_c, 8, 76, 127
10, 44640, Note_on_c, 8, 85, 127
10, 44760, Note_off_c, 8, 85, 64
10, 44760, Note_off_c, 8, 76, 64
10, 44760, Note_off_c, 8, 64, 64
10, 45120, Note_on_c, 8, 76, 127
10, 45120, Note_on_c, 8, 85, 127
10, 45120, Note_on_c, 8, 64, 127
10, 45240, Note_off_c, 8, 64, 64
10, 45240, Note_off_c, 8, 85, 64
10, 45240, Note_off_c, 8, 76, 64
10, 45600, Note_on_c, 8, 76, 127
10, 45600, Note_on_c, 8, 64, 127
10, 45600, Note_on_c, 8, 85, 127
10, 45720, Note_off_c, 8, 85, 64
10, 45720, Note_off_c, 8, 64, 64
10, 45720, Note_off_c, 8, 76, 64
10, 46080, Note_on_c, 8, 76, 127
10, 46080, Note_on_c, 8, 64, 127
10, 46080, Note_on_c, 8, 85, 127
10, 46200, Note_off_c, 8, 85, 64
10, 46200, Note_off_c, 8, 64, 64
10, 46200, Note_off_c, 8, 76, 64
10, 46560, Note_on_c, 8, 76, 127
10, 46560, Note_on_c, 8, 68, 127
10, 46560, Note_on_c, 8, 83, 127
10, 46680, Note_off_c, 8, 83, 64
10, 46680, Note_off_c, 8, 68, 64
10, 46680, Note_off_c, 8, 76, 64
10, 47040, Note_on_c, 8, 76, 127
10, 47040, Note_on_c, 8, 68, 127
10, 47040, Note_on_c, 8, 83, 127
10, 47160, Note_off_c, 8, 83, 64
10, 47160, Note_off_c, 8, 68, 64
10, 47160, Note_off_c, 8, 76, 64
10, 47520, Note_on_c, 8, 76, 127
10, 47520, Note_on_c, 8, 68, 127
10, 47520, Note_on_c, 8, 83, 127
10, 47640, Note_off_c, 8, 83, 64
10, 47640, Note_off_c, 8, 68, 64
10, 47640, Note_off_c, 8, 76, 64
10, 48000, Note_on_c, 8, 76, 127
10, 48000, Note_on_c, 8, 68, 127
10, 48000, Note_on_c, 8, 83, 127
10, 48120, Note_off_c, 8, 83, 64
10, 48120, Note_off_c, 8, 68, 64
10, 48120, Note_off_c, 8, 76, 64
10, 48480, Note_on_c, 8, 73, 127
10, 48480, Note_on_c, 8, 81, 127
10, 48480, Note_on_c, 8, 64, 127
10, 48600, Note_off_c, 8, 64, 64
10, 48600, Note_off_c, 8, 81, 64
10, 48600, Note_off_c, 8, 73, 64
10, 49560, Note_on_c, 8, 64, 127
10, 49560, Note_on_c, 8, 81, 127
10, 49560, Note_on_c, 8, 73, 127
10, 49680, Note_off_c, 8, 73, 64
10, 49680, Note_off_c, 8, 81, 64
10, 49680, Note_off_c, 8, 64, 64
10, 50640, Note_on_c, 8, 64, 127
10, 50640, Note_on_c, 8, 88, 127
10, 50640, Note_on_c, 8, 76, 127
10, 50760, Note_off_c, 8, 76, 64
10, 50760, Note_off_c, 8, 88, 64
10, 50760, Note_off_c, 8, 64, 64
10, 51720, Note_on_c, 8, 64, 127
10, 51720, Note_on_c, 8, 88, 127
10, 51720, Note_on_c, 8, 76, 127
10, 51840, Note_off_c, 8, 76, 64
10, 51840, Note_off_c, 8, 88, 64
10, 51840, Note_off_c, 8, 64, 64
10, 52800, Note_on_c, 8, 85, 100
10, 52896, Note_off_c, 8, 85, 64
10, 52920, Note_on_c, 8, 85, 100
10, 53016, Note_off_c, 8, 85, 64
10, 53040, Note_on_c, 8, 85, 100
10, 53136, Note_off_c, 8, 85, 64
10, 53160, Note_on_c, 8, 85, 100
10, 53256, Note_off_c, 8, 85, 64
10, 53280, Note_on_c, 8, 85, 100
10, 53376, Note_off_c, 8, 85, 64
10, 53400, Note_on_c, 8, 85, 100
10, 53496, Note_off_c, 8, 85, 64
10, 53520, Note_on_c, 8, 83, 100
10, 53616, Note_off_c, 8, 83, 64
10, 53640, Note_on_c, 8, 83, 100
10, 53736, Note_off_c, 8, 83, 64
10, 53760, Note_on_c, 8, 81, 100
10, 53856, Note_off_c, 8, 81, 64
10, 53880, Note_on_c, 8, 81, 100
10, 53976, Note_off_c, 8, 81, 64
10, 54000, Note_on_c, 8, 85, 100
10, 54096, Note_off_c, 8, 85, 64
10, 54120, Note_on_c, 8, 85, 100
10, 54216, Note_off_c, 8, 85, 64
10, 54240, Note_on_c, 8, 83, 100
10, 54336, Note_off_c, 8, 83, 64
10, 54360, Note_on_c, 8, 83, 100
10, 54456, Note_off_c, 8, 83, 64
10, 54480, Note_on_c, 8, 81, 100
10, 54576, Note_off_c, 8, 81, 64
10, 54600, Note_on_c, 8, 81, 100
10, 54696, Note_off_c, 8, 81, 64
10, 54720, Note_on_c, 8, 83, 100
10, 54816, Note_off_c, 8, 83, 64
10, 54840, Note_on_c, 8, 83, 100
10, 54936, Note_off_c, 8, 83, 64
10, 54960, Note_on_c, 8, 81, 100
10, 55056, Note_off_c, 8, 81, 64
10, 55080, Note_on_c, 8, 81, 100
10, 55176, Note_off_c, 8, 81, 64
10, 55200, Note_on_c, 8, 80, 100
10, 55296, Note_off_c, 8, 80, 64
10, 55320, Note_on_c, 8, 80, 100
10, 55416, Note_off_c, 8, 80, 64
10, 55440, Note_on_c, 8, 78, 100
10, 55536, Note_off_c, 8, 78, 64
10, 55560, Note_on_c, 8, 78, 100
10, 55656, Note_off_c, 8, 78, 64
10, 55680, Note_on_c, 8, 76, 100
10, 55776, Note_off_c, 8, 76, 64
10, 55800, Note_on_c, 8, 76, 100
10, 55896, Note_off_c, 8, 76, 64
10, 55920, Note_on_c, 8, 74, 100
10, 56016, Note_off_c, 8, 74, 64
10, 56040, Note_on_c, 8, 74, 100
10, 56136, Note_off_c, 8, 74, 64
10, 56160, Note_on_c, 8, 73, 100
10, 56256, Note_off_c, 8, 73, 64
10, 56280, Note_on_c, 8, 73, 100
10, 56376, Note_off_c, 8, 73, 64
10, 56400, Note_on_c, 8, 71, 100
10, 56496, Note_off_c, 8, 71, 64
10, 56520, Note_on_c, 8, 71, 100
10, 56616, Note_off_c, 8, 71, 64
10, 56640, Note_on_c, 8, 69, 80
10, 56736, Note_off_c, 8, 69, 64
10, 56880, Note_on_c, 8, 69, 80
10, 57000, Note_off_c, 8, 69, 64
10, 57000, Note_on_c, 8, 71, 80
10, 57120, Note_off_c, 8, 71, 64
10, 57120, Note_on_c, 8, 74, 80
10, 57240, Note_off_c, 8, 74, 64
10, 57240, Note_on_c, 8, 73, 80
10, 57360, Note_off_c, 8, 73, 64
10, 57360, Note_on_c, 8, 71, 80
10, 57480, Note_off_c, 8, 71, 64
10, 57480, Note_on_c, 8, 69, 80
10, 57600, Note_off_c, 8, 69, 64
10, 57600, Note_on_c, 8, 76, 80
10, 58080, Note_off_c, 8, 76, 64
10, 58080, Note_on_c, 8, 74, 80
10, 58560, Note_off_c, 8, 74, 64
10, 58560, Note_on_c, 8, 73, 80
10, 59040, Note_off_c, 8, 73, 64
10, 59040, Note_on_c, 8, 71, 80
10, 59520, Note_off_c, 8, 71, 64
10, 59520, Note_on_c, 8, 69, 80
10, 60000, Note_off_c, 8, 69, 64
10, 60000, Note_on_c, 8, 71, 80
10, 60480, Note_off_c, 8, 71, 64
10, 60480, Note_on_c, 8, 73, 80
10, 60576, Note_off_c, 8, 73, 64
10, 60720, Note_on_c, 8, 69, 80
10, 60840, Note_off_c, 8, 69, 64
10, 60840, Note_on_c, 8, 71, 80
10, 60960, Note_off_c, 8, 71, 64
10, 60960, Note_on_c, 8, 74, 80
10, 61080, Note_off_c, 8, 74, 64
10, 61080, Note_on_c, 8, 73, 80
10, 61200, Note_off_c, 8, 73, 64
10, 61200, Note_on_c, 8, 71, 80
10, 61320, Note_off_c, 8, 71, 64
10, 61320, Note_on_c, 8, 69, 80
10, 61440, Note_off_c, 8, 69, 64
10, 61440, Note_on_c, 8, 76, 80
10, 61920, Note_off_c, 8, 76, 64
10, 61920, Note_on_c, 8, 74, 80
10, 62400, Note_off_c, 8, 74, 64
10, 62400, Note_on_c, 8, 73, 80
10, 62880, Note_off_c, 8, 73, 64
10, 62880, Note_on_c, 8, 71, 80
10, 63360, Note_off_c, 8, 71, 64
10, 63360, Note_on_c, 8, 69, 80
10, 63840, Note_off_c, 8, 69, 64
10, 63840, Note_on_c, 8, 68, 80
10, 64320, Note_off_c, 8, 68, 64
10, 64320, Note_on_c, 8, 69, 110
10, 64416, Note_off_c, 8, 69, 64
10, 64560, Note_on_c, 8, 78, 80
10, 64680, Note_off_c, 8, 78, 64
10, 64680, Note_on_c, 8, 80, 80
10, 64800, Note_off_c, 8, 80, 64
10, 64800, Note_on_c, 8, 83, 80
10, 64920, Note_off_c, 8, 83, 64
10, 64920, Note_on_c, 8, 81, 80
10, 65040, Note_off_c, 8, 81, 64
10, 65040, Note_on_c, 8, 80, 80
10, 65160, Note_off_c, 8, 80, 64
10, 65160, Note_on_c, 8, 78, 80
10, 65280, Note_off_c, 8, 78, 64
10, 65280, Note_on_c, 8, 85, 80
10, 65760, Note_off_c, 8, 85, 64
10, 65760, Note_on_c, 8, 83, 80
10, 66240, Note_off_c, 8, 83, 64
10, 66240, Note_on_c, 8, 81, 80
10, 66720, Note_off_c, 8, 81, 64
10, 66720, Note_on_c, 8, 80, 80
10, 67200, Note_off_c, 8, 80, 64
10, 67200, Note_on_c, 8, 78, 80
10, 67680, Note_off_c, 8, 78, 64
10, 67680, Note_on_c, 8, 80, 80
10, 68160, Note_off_c, 8, 80, 64
10, 68160, Note_on_c, 8, 81, 110
10, 68256, Note_off_c, 8, 81, 64
10, 68400, Note_on_c, 8, 78, 80
10, 68520, Note_off_c, 8, 78, 64
10, 68520, Note_on_c, 8, 80, 80
10, 68640, Note_off_c, 8, 80, 64
10, 68640, Note_on_c, 8, 83, 80
10, 68760, Note_off_c, 8, 83, 64
10, 68760, Note_on_c, 8, 81, 80
10, 68880, Note_off_c, 8, 81, 64
10, 68880, Note_on_c, 8, 80, 80
10, 69000, Note_off_c, 8, 80, 64
10, 69000, Note_on_c, 8, 78, 80
10, 69120, Note_off_c, 8, 78, 64
10, 69120, Note_on_c, 8, 85, 80
10, 69600, Note_off_c, 8, 85, 64
10, 69600, Note_on_c, 8, 83, 80
10, 70080, Note_off_c, 8, 83, 64
10, 70080, Note_on_c, 8, 81, 80
10, 70560, Note_off_c, 8, 81, 64
10, 70560, Note_on_c, 8, 80, 80
10, 71040, Note_off_c, 8, 80, 64
10, 71040, Note_on_c, 8, 78, 80
10, 71520, Note_off_c, 8, 78, 64
10, 71520, Note_on_c, 8, 80, 80
10, 72000, Note_off_c, 8, 80, 64
10, 72000, Note_on_c, 8, 69, 110
10, 72000, Note_on_c, 8, 81, 110
10, 72114, Note_off_c, 8, 81, 64
10, 72114, Note_off_c, 8, 69, 64
10, 72360, Note_on_c, 8, 81, 80
10, 72360, Note_on_c, 8, 69, 80
10, 72474, Note_off_c, 8, 69, 64
10, 72474, Note_off_c, 8, 81, 64
10, 72480, Note_on_c, 8, 81, 80
10, 72480, Note_on_c, 8, 69, 80
10, 72594, Note_off_c, 8, 69, 64
10, 72594, Note_off_c, 8, 81, 64
10, 72840, Note_on_c, 8, 69, 80
10, 72840, Note_on_c, 8, 81, 80
10, 72954, Note_off_c, 8, 81, 64
10, 72954, Note_off_c, 8, 69, 64
10, 72960, Note_on_c, 8, 69, 80
10, 72960, Note_on_c, 8, 81, 80
10, 73074, Note_off_c, 8, 81, 64
10, 73074, Note_off_c, 8, 69, 64
10, 73320, Note_on_c, 8, 69, 80
10, 73320, Note_on_c, 8, 81, 80
10, 73434, Note_off_c, 8, 81, 64
10, 73434, Note_off_c, 8, 69, 64
10, 73440, Note_on_c, 8, 69, 80
10, 73440, Note_on_c, 8, 81, 80
10, 73554, Note_off_c, 8, 81, 64
10, 73554, Note_off_c, 8, 69, 64
10, 73800, Note_on_c, 8, 69, 80
10, 73800, Note_on_c, 8, 81, 80
10, 73914, Note_off_c, 8, 81, 64
10, 73914, Note_off_c, 8, 69, 64
10, 73920, Note_on_c, 8, 71, 80
10, 73920, Note_on_c, 8, 83, 80
10, 74034, Note_off_c, 8, 83, 64
10, 74034, Note_off_c, 8, 71, 64
10, 74280, Note_on_c, 8, 71, 80
10, 74280, Note_on_c, 8, 83, 80
10, 74394, Note_off_c, 8, 83, 64
10, 74394, Note_off_c, 8, 71, 64
10, 74400, Note_on_c, 8, 71, 80
10, 74400, Note_on_c, 8, 83, 80
10, 74514, Note_off_c, 8, 83, 64
10, 74514, Note_off_c, 8, 71, 64
10, 74760, Note_on_c, 8, 83, 80
10, 74760, Note_on_c, 8, 71, 80
10, 74874, Note_off_c, 8, 71, 64
10, 74874, Note_off_c, 8, 83, 64
10, 74880, Note_on_c, 8, 71, 80
10, 74880, Note_on_c, 8, 83, 80
10, 74994, Note_off_c, 8, 83, 64
10, 74994, Note_off_c, 8, 71, 64
10, 75240, Note_on_c, 8, 71, 80
10, 75240, Note_on_c, 8, 83, 80
10, 75354, Note_off_c, 8, 83, 64
10, 75354, Note_off_c, 8, 71, 64
10, 75360, Note_on_c, 8, 71, 80
10, 75360, Note_on_c, 8, 83, 80
10, 75474, Note_off_c, 8, 83, 64
10, 75474, Note_off_c, 8, 71, 64
10, 75720, Note_on_c, 8, 83, 80
10, 75720, Note_on_c, 8, 71, 80
10, 75834, Note_off_c, 8, 71, 64
10, 75834, Note_off_c, 8, 83, 64
10, 75840, Note_on_c, 8, 81, 110
10, 75840, Note_on_c, 8, 69, 80
10, 75954, Note_off_c, 8, 69, 64
10, 75954, Note_off_c, 8, 81, 64
10, 76200, Note_on_c, 8, 81, 80
10, 76200, Note_on_c, 8, 69, 80
10, 76314, Note_off_c, 8, 69, 64
10, 76314, Note_off_c, 8, 81, 64
10, 76320, Note_on_c, 8, 81, 80
10, 76320, Note_on_c, 8, 69, 80
10, 76434, Note_off_c, 8, 69, 64
10, 76434, Note_off_c, 8, 81, 64
10, 76680, Note_on_c, 8, 69, 80
10, 76680, Note_on_c, 8, 81, 80
10, 76794, Note_off_c, 8, 81, 64
10, 76794, Note_off_c, 8, 69, 64
10, 76800, Note_on_c, 8, 82, 110
10, 76800, Note_on_c, 8, 70, 80
10, 76914, Note_off_c, 8, 70, 64
10, 76914, Note_off_c, 8, 82, 64
10, 77160, Note_on_c, 8, 70, 80
10, 77160, Note_on_c, 8, 82, 80
10, 77274, Note_off_c, 8, 82, 64
10, 77274, Note_off_c, 8, 70, 64
10, 77280, Note_on_c, 8, 70, 80
10, 77280, Note_on_c, 8, 82, 80
10, 77394, Note_off_c, 8, 82, 64
10, 77394, Note_off_c, 8, 70, 64
10, 77640, Note_on_c, 8, 82, 80
10, 77640, Note_on_c, 8, 70, 80
10, 77754, Note_off_c, 8, 70, 64
10, 77754, Note_off_c, 8, 82, 64
10, 77760, Note_on_c, 8, 84, 110
10, 77760, Note_on_c, 8, 72, 80
10, 77874, Note_off_c, 8, 72, 64
10, 77874, Note_off_c, 8, 84, 64
10, 78120, Note_on_c, 8, 72, 80
10, 78120, Note_on_c, 8, 84, 80
10, 78234, Note_off_c, 8, 84, 64
10, 78234, Note_off_c, 8, 72, 64
10, 78240, Note_on_c, 8, 72, 80
10, 78240, Note_on_c, 8, 84, 80
10, 78354, Note_off_c, 8, 84, 64
10, 78354, Note_off_c, 8, 72, 64
10, 78600, Note_on_c, 8, 84, 80
10, 78600, Note_on_c, 8, 72, 80
10, 78714, Note_off_c, 8, 72, 64
10, 78714, Note_off_c, 8, 84, 64
10, 78720, Note_on_c, 8, 85, 110
10, 78720, Note_on_c, 8, 73, 80
10, 78834, Note_off_c, 8, 73, 64
10, 78834, Note_off_c, 8, 85, 64
10, 79080, Note_on_c, 8, 73, 80
10, 79080, Note_on_c, 8, 85, 80
10, 79194, Note_off_c, 8, 85, 64
10, 79194, Note_off_c, 8, 73, 64
10, 79200, Note_on_c, 8, 73, 80
10, 79200, Note_on_c, 8, 85, 80
10, 79314, Note_off_c, 8, 85, 64
10, 79314, Note_off_c, 8, 73, 64
10, 79560, Note_on_c, 8, 85, 80
10, 79560, Note_on_c, 8, 73, 80
10, 79674, Note_off_c, 8, 73, 64
10, 79674, Note_off_c, 8, 85, 64
10, 79680, Note_on_c, 8, 87, 110
10, 79680, Note_on_c, 8, 75, 80
10, 79794, Note_off_c, 8, 75, 64
10, 79794, Note_off_c, 8, 87, 64
10, 80040, Note_on_c, 8, 76, 80
10, 80040, Note_on_c, 8, 88, 80
10, 80154, Note_off_c, 8, 88, 64
10, 80154, Note_off_c, 8, 76, 64
10, 80160, Note_on_c, 8, 90, 80
10, 80160, Note_on_c, 8, 78, 80
10, 80274, Note_off_c, 8, 78, 64
10, 80274, Note_off_c, 8, 90, 64
10, 80520, Note_on_c, 8, 90, 80
10, 80520, Note_on_c, 8, 78, 80
10, 80634, Note_off_c, 8, 78, 64
10, 80634, Note_off_c, 8, 90, 64
10, 80640, Note_on_c, 8, 90, 80
10, 80640, Note_on_c, 8, 78, 80
10, 80754, Note_off_c, 8, 78, 64
10, 80754, Note_off_c, 8, 90, 64
10, 81000, Note_on_c, 8, 78, 80
10, 81000, Note_on_c, 8, 90, 80
10, 81114, Note_off_c, 8, 90, 64
10, 81114, Note_off_c, 8, 78, 64
10, 81120, Note_on_c, 8, 90, 80
10, 81120, Note_on_c, 8, 78, 80
10, 81234, Note_off_c, 8, 78, 64
10, 81234, Note_off_c, 8, 90, 64
10, 81480, Note_on_c, 8, 90, 80
10, 81480, Note_on_c, 8, 78, 80
10, 81594, Note_off_c, 8, 78, 64
10, 81594, Note_off_c, 8, 90, 64
10, 81600, Note_on_c, 8, 78, 127
10, 81600, Note_on_c, 8, 90, 127
10, 81714, Note_off_c, 8, 90, 64
10, 81714, Note_off_c, 8, 78, 64
10, 82920, Note_on_c, 8, 78, 64
10, 83040, Note_off_c, 8, 78, 64
10, 83040, Note_on_c, 8, 81, 64
10, 83112, Note_off_c, 8, 81, 64
10, 83400, Note_on_c, 8, 78, 64
10, 83520, Note_off_c, 8, 78, 64
10, 83520, Note_on_c, 8, 75, 64
10, 83592, Note_off_c, 8, 75, 64
10, 83880, Note_on_c, 8, 75, 64
10, 84000, Note_off_c, 8, 75, 64
10, 84000, Note_on_c, 8, 78, 64
10, 84072, Note_off_c, 8, 78, 64
10, 84360, Note_on_c, 8, 75, 64
10, 84480, Note_off_c, 8, 75, 64
10, 84480, Note_on_c, 8, 72, 64
10, 84552, Note_off_c, 8, 72, 64
10, 84840, Note_on_c, 8, 75, 64
10, 84960, Note_off_c, 8, 75, 64
10, 84960, Note_on_c, 8, 76, 64
10, 85032, Note_off_c, 8, 76, 64
10, 85320, Note_on_c, 8, 73, 64
10, 85440, Note_off_c, 8, 73, 64
10, 85440, Note_on_c, 8, 72, 56
10, 85512, Note_off_c, 8, 72, 64
10, 86760, Note_on_c, 8, 78, 64
10, 86880, Note_off_c, 8, 78, 64
10, 86880, Note_on_c, 8, 81, 64
10, 86952, Note_off_c, 8, 81, 64
10, 87240, Note_on_c, 8, 78, 64
10, 87360, Note_off_c, 8, 78, 64
10, 87360, Note_on_c, 8, 75, 64
10, 87432, Note_off_c, 8, 75, 64
10, 87720, Note_on_c, 8, 75, 64
10, 87840, Note_off_c, 8, 75, 64
10, 87840, Note_on_c, 8, 78, 64
10, 87912, Note_off_c, 8, 78, 64
10, 88200, Note_on_c, 8, 75, 64
10, 88320, Note_off_c, 8, 75, 64
10, 88320, Note_on_c, 8, 72, 64
10, 88392, Note_off_c, 8, 72, 64
10, 88680, Note_on_c, 8, 75, 64
10, 88800, Note_off_c, 8, 75, 64
10, 88800, Note_on_c, 8, 76, 64
10, 88872, Note_off_c, 8, 76, 64
10, 89160, Note_on_c, 8, 73, 64
10, 89280, Note_off_c, 8, 73, 64
10, 89280, Note_on_c, 8, 72, 64
10, 89352, Note_off_c, 8, 72, 64
10, 89640, Note_on_c, 8, 75, 64
10, 89760, Note_off_c, 8, 75, 64
10, 89760, Note_on_c, 8, 78, 64
10, 89832, Note_off_c, 8, 78, 64
10, 90120, Note_on_c, 8, 75, 64
10, 90240, Note_off_c, 8, 75, 64
10, 90240, Note_on_c, 8, 72, 64
10, 90312, Note_off_c, 8, 72, 64
10, 90600, Note_on_c, 8, 75, 64
10, 90720, Note_off_c, 8, 75, 64
10, 90720, Note_on_c, 8, 76, 64
10, 90792, Note_off_c, 8, 76, 64
10, 91080, Note_on_c, 8, 73, 64
10, 91200, Note_off_c, 8, 73, 64
10, 91200, Note_on_c, 8, 72, 64
10, 91272, Note_off_c, 8, 72, 64
10, 91560, Note_on_c, 8, 75, 64
10, 91680, Note_off_c, 8, 75, 64
10, 91680, Note_on_c, 8, 78, 64
10, 91752, Note_off_c, 8, 78, 64
10, 92040, Note_on_c, 8, 75, 64
10, 92160, Note_off_c, 8, 75, 64
10, 92160, Note_on_c, 8, 72, 64
10, 92232, Note_off_c, 8, 72, 64
10, 92520, Note_on_c, 8, 75, 64
10, 92640, Note_off_c, 8, 75, 64
10, 92640, Note_on_c, 8, 80, 64
10, 92712, Note_off_c, 8, 80, 64
10, 93000, Note_on_c, 8, 78, 64
10, 93120, Note_off_c, 8, 78, 64
10, 93120, Note_on_c, 8, 76, 74
10, 93192, Note_off_c, 8, 76, 64
10, 93480, Note_on_c, 8, 75, 74
10, 93600, Note_off_c, 8, 75, 64
10, 93600, Note_on_c, 8, 76, 110
10, 94050, Note_off_c, 8, 76, 64
10, 94080, Note_on_c, 8, 75, 89
10, 94152, Note_off_c, 8, 75, 64
10, 94440, Note_on_c, 8, 73, 74
10, 94560, Note_off_c, 8, 73, 64
10, 94560, Note_on_c, 8, 75, 110
10, 95010, Note_off_c, 8, 75, 64
10, 95040, Note_on_c, 8, 73, 89
10, 95112, Note_off_c, 8, 73, 64
10, 95400, Note_on_c, 8, 72, 74
10, 95520, Note_off_c, 8, 72, 64
10, 95520, Note_on_c, 8, 73, 110
10, 95970, Note_off_c, 8, 73, 64
10, 96000, Note_on_c, 8, 75, 89
10, 96072, Note_off_c, 8, 75, 64
10, 96360, Note_on_c, 8, 73, 74
10, 96480, Note_off_c, 8, 73, 64
10, 96480, Note_on_c, 8, 75, 110
10, 96930, Note_off_c, 8, 75, 64
10, 96960, Note_on_c, 8, 76, 74
10, 97186, Note_off_c, 8, 76, 64
10, 101760, Note_on_c, 8, 75, 64
10, 101832, Note_off_c, 8, 75, 64
10, 102120, Note_on_c, 8, 76, 64
10, 102240, Note_off_c, 8, 76, 64
10, 102240, Note_on_c, 8, 78, 64
10, 102312, Note_off_c, 8, 78, 64
10, 102600, Note_on_c, 8, 75, 64
10, 102720, Note_off_c, 8, 75, 64
10, 102720, Note_on_c, 8, 76, 74
10, 102792, Note_off_c, 8, 76, 64
10, 103080, Note_on_c, 8, 75, 74
10, 103200, Note_off_c, 8, 75, 64
10, 103200, Note_on_c, 8, 76, 110
10, 103650, Note_off_c, 8, 76, 64
10, 103680, Note_on_c, 8, 75, 89
10, 103752, Note_off_c, 8, 75, 64
10, 104040, Note_on_c, 8, 73, 74
10, 104160, Note_off_c, 8, 73, 64
10, 104160, Note_on_c, 8, 75, 110
10, 104610, Note_off_c, 8, 75, 64
10, 104640, Note_on_c, 8, 73, 89
10, 104712, Note_off_c, 8, 73, 64
10, 105000, Note_on_c, 8, 72, 74
10, 105120, Note_off_c, 8, 72, 64
10, 105120, Note_on_c, 8, 73, 110
10, 105570, Note_off_c, 8, 73, 64
10, 105600, Note_on_c, 8, 75, 89
10, 105672, Note_off_c, 8, 75, 64
10, 105960, Note_on_c, 8, 73, 74
10, 106080, Note_off_c, 8, 73, 64
10, 106080, Note_on_c, 8, 75, 110
10, 106530, Note_off_c, 8, 75, 64
10, 106560, Note_on_c, 8, 76, 74
10, 106786, Note_off_c, 8, 76, 64
10, 110760, Note_on_c, 8, 79, 80
10, 110880, Note_off_c, 8, 79, 64
10, 110880, Note_on_c, 8, 76, 80
10, 110976, Note_off_c, 8, 76, 64
10, 111240, Note_on_c, 8, 73, 80
10, 111360, Note_off_c, 8, 73, 64
10, 111360, Note_on_c, 8, 69, 80
10, 111456, Note_off_c, 8, 69, 64
10, 115560, Note_on_c, 8, 81, 80
10, 115680, Note_off_c, 8, 81, 64
10, 115680, Note_on_c, 8, 86, 80
10, 115776, Note_off_c, 8, 86, 64
10, 116040, Note_on_c, 8, 81, 80
10, 116160, Note_off_c, 8, 81, 64
10, 116160, Note_on_c, 8, 79, 96
10, 116256, Note_off_c, 8, 79, 64
10, 116520, Note_on_c, 8, 79, 96
10, 116640, Note_off_c, 8, 79, 64
10, 116640, Note_on_c, 8, 76, 96
10, 116736, Note_off_c, 8, 76, 64
10, 117000, Note_on_c, 8, 73, 96
10, 117120, Note_off_c, 8, 73, 64
10, 117120, Note_on_c, 8, 69, 96
10, 117216, Note_off_c, 8, 69, 64
10, 121320, Note_on_c, 8, 81, 83
10, 121440, Note_off_c, 8, 81, 64
10, 121440, Note_on_c, 8, 86, 83
10, 121536, Note_off_c, 8, 86, 64
10, 121800, Note_on_c, 8, 90, 125
10, 121920, Note_off_c, 8, 90, 64
10, 121920, Note_on_c, 8, 90, 99
10, 122016, Note_off_c, 8, 90, 64
10, 122040, Note_on_c, 8, 90, 99
10, 122136, Note_off_c, 8, 90, 64
10, 122160, Note_on_c, 8, 90, 99
10, 122256, Note_off_c, 8, 90, 64
10, 122280, Note_on_c, 8, 90, 99
10, 122376, Note_off_c, 8, 90, 64
10, 122400, Note_on_c, 8, 90, 99
10, 122496, Note_off_c, 8, 90, 64
10, 122520, Note_on_c, 8, 90, 99
10, 122616, Note_off_c, 8, 90, 64
10, 122640, Note_on_c, 8, 90, 99
10, 122736, Note_off_c, 8, 90, 64
10, 122760, Note_on_c, 8, 90, 99
10, 122856, Note_off_c, 8, 90, 64
10, 122880, Note_on_c, 8, 90, 99
10, 122976, Note_off_c, 8, 90, 64
10, 123000, Note_on_c, 8, 90, 99
10, 123096, Note_off_c, 8, 90, 64
10, 123120, Note_on_c, 8, 90, 99
10, 123216, Note_off_c, 8, 90, 64
10, 123240, Note_on_c, 8, 90, 99
10, 123336, Note_off_c, 8, 90, 64
10, 123360, Note_on_c, 8, 90, 99
10, 123456, Note_off_c, 8, 90, 64
10, 123480, Note_on_c, 8, 90, 99
10, 123576, Note_off_c, 8, 90, 64
10, 123600, Note_on_c, 8, 90, 99
10, 123696, Note_off_c, 8, 90, 64
10, 123720, Note_on_c, 8, 90, 99
10, 123816, Note_off_c, 8, 90, 64
10, 123840, Note_on_c, 8, 88, 127
10, 123936, Note_off_c, 8, 88, 64
10, 123960, Note_on_c, 8, 88, 99
10, 124056, Note_off_c, 8, 88, 64
10, 124080, Note_on_c, 8, 88, 99
10, 124176, Note_off_c, 8, 88, 64
10, 124200, Note_on_c, 8, 88, 99
10, 124296, Note_off_c, 8, 88, 64
10, 124320, Note_on_c, 8, 88, 99
10, 124416, Note_off_c, 8, 88, 64
10, 124440, Note_on_c, 8, 88, 99
10, 124536, Note_off_c, 8, 88, 64
10, 124560, Note_on_c, 8, 88, 99
10, 124656, Note_off_c, 8, 88, 64
10, 124680, Note_on_c, 8, 88, 99
10, 124776, Note_off_c, 8, 88, 64
10, 124800, Note_on_c, 8, 90, 127
10, 124896, Note_off_c, 8, 90, 64
10, 124920, Note_on_c, 8, 90, 99
10, 125016, Note_off_c, 8, 90, 64
10, 125040, Note_on_c, 8, 90, 99
10, 125136, Note_off_c, 8, 90, 64
10, 125160, Note_on_c, 8, 90, 99
10, 125256, Note_off_c, 8, 90, 64
10, 125280, Note_on_c, 8, 90, 99
10, 125376, Note_off_c, 8, 90, 64
10, 125400, Note_on_c, 8, 90, 99
10, 125496, Note_off_c, 8, 90, 64
10, 125520, Note_on_c, 8, 90, 99
10, 125616, Note_off_c, 8, 90, 64
10, 125640, Note_on_c, 8, 90, 99
10, 125736, Note_off_c, 8, 90, 64
10, 125760, Note_on_c, 8, 88, 127
10, 125856, Note_off_c, 8, 88, 64
10, 125880, Note_on_c, 8, 88, 99
10, 125976, Note_off_c, 8, 88, 64
10, 126000, Note_on_c, 8, 88, 99
10, 126096, Note_off_c, 8, 88, 64
10, 126120, Note_on_c, 8, 88, 99
10, 126216, Note_off_c, 8, 88, 64
10, 126240, Note_on_c, 8, 88, 99
10, 126336, Note_off_c, 8, 88, 64
10, 126360, Note_on_c, 8, 88, 99
10, 126456, Note_off_c, 8, 88, 64
10, 126480, Note_on_c, 8, 88, 99
10, 126576, Note_off_c, 8, 88, 64
10, 126600, Note_on_c, 8, 88, 99
10, 126696, Note_off_c, 8, 88, 64
10, 126720, Note_on_c, 8, 90, 127
10, 126816, Note_off_c, 8, 90, 64
10, 126840, Note_on_c, 8, 90, 99
10, 126936, Note_off_c, 8, 90, 64
10, 126960, Note_on_c, 8, 90, 99
10, 127056, Note_off_c, 8, 90, 64
10, 127080, Note_on_c, 8, 90, 99
10, 127176, Note_off_c, 8, 90, 64
10, 127200, Note_on_c, 8, 90, 99
10, 127296, Note_off_c, 8, 90, 64
10, 127320, Note_on_c, 8, 90, 99
10, 127416, Note_off_c, 8, 90, 64
10, 127440, Note_on_c, 8, 90, 99
10, 127536, Note_off_c, 8, 90, 64
10, 127560, Note_on_c, 8, 90, 99
10, 127656, Note_off_c, 8, 90, 64
10, 127680, Note_on_c, 8, 88, 127
10, 127776, Note_off_c, 8, 88, 64
10, 127800, Note_on_c, 8, 88, 99
10, 127896, Note_off_c, 8, 88, 64
10, 127920, Note_on_c, 8, 88, 99
10, 128016, Note_off_c, 8, 88, 64
10, 128040, Note_on_c, 8, 88, 99
10, 128136, Note_off_c, 8, 88, 64
10, 128160, Note_on_c, 8, 88, 99
10, 128256, Note_off_c, 8, 88, 64
10, 128280, Note_on_c, 8, 88, 99
10, 128376, Note_off_c, 8, 88, 64
10, 128400, Note_on_c, 8, 88, 99
10, 128496, Note_off_c, 8, 88, 64
10, 128520, Note_on_c, 8, 88, 99
10, 128616, Note_off_c, 8, 88, 64
10, 128640, Note_on_c, 8, 90, 127
10, 128736, Note_off_c, 8, 90, 64
10, 128760, Note_on_c, 8, 90, 99
10, 128856, Note_off_c, 8, 90, 64
10, 128880, Note_on_c, 8, 90, 99
10, 128976, Note_off_c, 8, 90, 64
10, 129000, Note_on_c, 8, 90, 99
10, 129096, Note_off_c, 8, 90, 64
10, 129120, Note_on_c, 8, 90, 99
10, 129216, Note_off_c, 8, 90, 64
10, 129240, Note_on_c, 8, 90, 99
10, 129336, Note_off_c, 8, 90, 64
10, 129360, Note_on_c, 8, 90, 99
10, 129456, Note_off_c, 8, 90, 64
10, 129480, Note_on_c, 8, 90, 99
10, 129576, Note_off_c, 8, 90, 64
10, 129600, Note_on_c, 8, 88, 127
10, 129696, Note_off_c, 8, 88, 64
10, 129720, Note_on_c, 8, 88, 99
10, 129816, Note_off_c, 8, 88, 64
10, 129840, Note_on_c, 8, 88, 99
10, 129936, Note_off_c, 8, 88, 64
10, 129960, Note_on_c, 8, 88, 99
10, 130056, Note_off_c, 8, 88, 64
10, 130080, Note_on_c, 8, 88, 99
10, 130176, Note_off_c, 8, 88, 64
10, 130200, Note_on_c, 8, 88, 99
10, 130296, Note_off_c, 8, 88, 64
10, 130320, Note_on_c, 8, 88, 99
10, 130416, Note_off_c, 8, 88, 64
10, 130440, Note_on_c, 8, 88, 99
10, 130536, Note_off_c, 8, 88, 64
10, 130560, Note_on_c, 8, 87, 127
10, 130656, Note_off_c, 8, 87, 64
10, 130680, Note_on_c, 8, 87, 99
10, 130776, Note_off_c, 8, 87, 64
10, 130800, Note_on_c, 8, 87, 99
10, 130896, Note_off_c, 8, 87, 64
10, 130920, Note_on_c, 8, 87, 99
10, 131016, Note_off_c, 8, 87, 64
10, 131040, Note_on_c, 8, 87, 99
10, 131136, Note_off_c, 8, 87, 64
10, 131160, Note_on_c, 8, 87, 99
10, 131256, Note_off_c, 8, 87, 64
10, 131280, Note_on_c, 8, 87, 99
10, 131376, Note_off_c, 8, 87, 64
10, 131400, Note_on_c, 8, 87, 99
10, 131496, Note_off_c, 8, 87, 64
10, 131520, Note_on_c, 8, 88, 99
10, 131616, Note_off_c, 8, 88, 64
10, 131640, Note_on_c, 8, 88, 99
10, 131736, Note_off_c, 8, 88, 64
10, 131760, Note_on_c, 8, 88, 99
10, 131856, Note_off_c, 8, 88, 64
10, 131880, Note_on_c, 8, 88, 99
10, 131976, Note_off_c, 8, 88, 64
10, 132000, Note_on_c, 8, 87, 127
10, 132096, Note_off_c, 8, 87, 64
10, 132120, Note_on_c, 8, 87, 99
10, 132216, Note_off_c, 8, 87, 64
10, 132240, Note_on_c, 8, 87, 99
10, 132336, Note_off_c, 8, 87, 64
10, 132360, Note_on_c, 8, 87, 99
10, 132456, Note_off_c, 8, 87, 64
10, 132480, Note_on_c, 8, 87, 99
10, 132576, Note_off_c, 8, 87, 64
10, 132600, Note_on_c, 8, 87, 99
10, 132696, Note_off_c, 8, 87, 64
10, 132720, Note_on_c, 8, 87, 99
10, 132816, Note_off_c, 8, 87, 64
10, 132840, Note_on_c, 8, 87, 99
10, 132936, Note_off_c, 8, 87, 64
10, 132960, Note_on_c, 8, 87, 99
10, 133056, Note_off_c, 8, 87, 64
10, 133080, Note_on_c, 8, 87, 99
10, 133176, Note_off_c, 8, 87, 64
10, 133200, Note_on_c, 8, 87, 99
10, 133296, Note_off_c, 8, 87, 64
10, 133320, Note_on_c, 8, 87, 99
10, 133416, Note_off_c, 8, 87, 64
10, 133440, Note_on_c, 8, 88, 99
10, 133536, Note_off_c, 8, 88, 64
10, 133560, Note_on_c, 8, 88, 99
10, 133656, Note_off_c, 8, 88, 64
10, 133680, Note_on_c, 8, 88, 99
10, 133776, Note_off_c, 8, 88, 64
10, 133800, Note_on_c, 8, 88, 99
10, 133896, Note_off_c, 8, 88, 64
10, 133920, Note_on_c, 8, 87, 127
10, 134016, Note_off_c, 8, 87, 64
10, 134040, Note_on_c, 8, 87, 99
10, 134136, Note_off_c, 8, 87, 64
10, 134160, Note_on_c, 8, 87, 99
10, 134256, Note_off_c, 8, 87, 64
10, 134280, Note_on_c, 8, 87, 99
10, 134376, Note_off_c, 8, 87, 64
10, 134400, Note_on_c, 8, 87, 99
10, 134496, Note_off_c, 8, 87, 64
10, 134520, Note_on_c, 8, 87, 99
10, 134616, Note_off_c, 8, 87, 64
10, 134640, Note_on_c, 8, 87, 99
10, 134736, Note_off_c, 8, 87, 64
10, 134760, Note_on_c, 8, 87, 99
10, 134856, Note_off_c, 8, 87, 64
10, 134880, Note_on_c, 8, 87, 99
10, 134976, Note_off_c, 8, 87, 64
10, 135000, Note_on_c, 8, 87, 99
10, 135096, Note_off_c, 8, 87, 64
10, 135120, Note_on_c, 8, 87, 99
10, 135216, Note_off_c, 8, 87, 64
10, 135240, Note_on_c, 8, 87, 99
10, 135336, Note_off_c, 8, 87, 64
10, 135360, Note_on_c, 8, 88, 99
10, 135456, Note_off_c, 8, 88, 64
10, 135480, Note_on_c, 8, 88, 99
10, 135576, Note_off_c, 8, 88, 64
10, 135600, Note_on_c, 8, 88, 99
10, 135696, Note_off_c, 8, 88, 64
10, 135720, Note_on_c, 8, 88, 99
10, 135816, Note_off_c, 8, 88, 64
10, 135840, Note_on_c, 8, 87, 127
10, 135936, Note_off_c, 8, 87, 64
10, 135960, Note_on_c, 8, 87, 99
10, 136056, Note_off_c, 8, 87, 64
10, 136080, Note_on_c, 8, 87, 99
10, 136176, Note_off_c, 8, 87, 64
10, 136200, Note_on_c, 8, 87, 99
10, 136296, Note_off_c, 8, 87, 64
10, 136320, Note_on_c, 8, 88, 99
10, 136416, Note_off_c, 8, 88, 64
10, 136440, Note_on_c, 8, 88, 99
10, 136536, Note_off_c, 8, 88, 64
10, 136560, Note_on_c, 8, 88, 99
10, 136656, Note_off_c, 8, 88, 64
10, 136680, Note_on_c, 8, 88, 99
10, 136776, Note_off_c, 8, 88, 64
10, 136800, Note_on_c, 8, 87, 127
10, 136896, Note_off_c, 8, 87, 64
10, 136920, Note_on_c, 8, 87, 99
10, 137016, Note_off_c, 8, 87, 64
10, 137040, Note_on_c, 8, 87, 99
10, 137136, Note_off_c, 8, 87, 64
10, 137160, Note_on_c, 8, 87, 99
10, 137256, Note_off_c, 8, 87, 64
10, 137280, Note_on_c, 8, 88, 99
10, 137376, Note_off_c, 8, 88, 64
10, 137400, Note_on_c, 8, 88, 99
10, 137496, Note_off_c, 8, 88, 64
10, 137520, Note_on_c, 8, 88, 99
10, 137616, Note_off_c, 8, 88, 64
10, 137640, Note_on_c, 8, 88, 99
10, 137736, Note_off_c, 8, 88, 64
10, 137760, Note_on_c, 8, 87, 127
10, 137856, Note_off_c, 8, 87, 64
10, 137880, Note_on_c, 8, 87, 99
10, 137976, Note_off_c, 8, 87, 64
10, 138000, Note_on_c, 8, 87, 99
10, 138096, Note_off_c, 8, 87, 64
10, 138120, Note_on_c, 8, 87, 99
10, 138216, Note_off_c, 8, 87, 64
10, 138240, Note_on_c, 8, 88, 99
10, 138336, Note_off_c, 8, 88, 64
10, 138360, Note_on_c, 8, 88, 99
10, 138456, Note_off_c, 8, 88, 64
10, 138480, Note_on_c, 8, 88, 99
10, 138576, Note_off_c, 8, 88, 64
10, 138600, Note_on_c, 8, 88, 99
10, 138696, Note_off_c, 8, 88, 64
10, 138720, Note_on_c, 8, 90, 99
10, 138816, Note_off_c, 8, 90, 64
10, 138840, Note_on_c, 8, 90, 99
10, 138936, Note_off_c, 8, 90, 64
10, 138960, Note_on_c, 8, 90, 99
10, 139056, Note_off_c, 8, 90, 64
10, 139080, Note_on_c, 8, 90, 99
10, 139176, Note_off_c, 8, 90, 64
10, 139200, Note_on_c, 8, 80, 127
10, 139200, Note_on_c, 8, 76, 127
10, 139200, Note_on_c, 8, 88, 127
10, 139344, Note_off_c, 8, 88, 64
10, 139344, Note_off_c, 8, 76, 64
10, 139344, Note_off_c, 8, 80, 64
10, 141600, Note_on_c, 8, 86, 127
10, 141600, Note_on_c, 8, 76, 127
10, 141600, Note_on_c, 8, 83, 127
10, 141744, Note_off_c, 8, 83, 64
10, 141744, Note_off_c, 8, 76, 64
10, 141744, Note_off_c, 8, 86, 64
10, 144000, Note_on_c, 8, 71, 127
10, 144120, Note_off_c, 8, 71, 64
10, 144240, Note_on_c, 8, 71, 127
10, 144360, Note_off_c, 8, 71, 64
10, 144360, Note_on_c, 8, 73, 127
10, 144480, Note_off_c, 8, 73, 64
10, 144480, Note_on_c, 8, 76, 127
10, 144600, Note_off_c, 8, 76, 64
10, 144600, Note_on_c, 8, 74, 127
10, 144720, Note_off_c, 8, 74, 64
10, 144720, Note_on_c, 8, 73, 127
10, 144840, Note_off_c, 8, 73, 64
10, 144840, Note_on_c, 8, 71, 127
10, 144960, Note_off_c, 8, 71, 64
10, 144960, Note_on_c, 8, 73, 127
10, 145080, Note_off_c, 8, 73, 64
10, 145200, Note_on_c, 8, 73, 127
10, 145320, Note_off_c, 8, 73, 64
10, 145320, Note_on_c, 8, 74, 127
10, 145440, Note_off_c, 8, 74, 64
10, 145440, Note_on_c, 8, 78, 127
10, 145560, Note_off_c, 8, 78, 64
10, 145560, Note_on_c, 8, 76, 127
10, 145680, Note_off_c, 8, 76, 64
10, 145680, Note_on_c, 8, 74, 127
10, 145800, Note_off_c, 8, 74, 64
10, 145800, Note_on_c, 8, 73, 127
10, 145920, Note_off_c, 8, 73, 64
10, 145920, Note_on_c, 8, 71, 127
10, 146040, Note_off_c, 8, 71, 64
10, 146160, Note_on_c, 8, 71, 127
10, 146280, Note_off_c, 8, 71, 64
10, 146280, Note_on_c, 8, 73, 127
10, 146400, Note_off_c, 8, 73, 64
10, 146400, Note_on_c, 8, 76, 127
10, 146520, Note_off_c, 8, 76, 64
10, 146520, Note_on_c, 8, 74, 127
10, 146640, Note_off_c, 8, 74, 64
10, 146640, Note_on_c, 8, 73, 127
10, 146760, Note_off_c, 8, 73, 64
10, 146760, Note_on_c, 8, 71, 127
10, 146880, Note_off_c, 8, 71, 64
10, 146880, Note_on_c, 8, 73, 127
10, 147240, Note_off_c, 8, 73, 64
10, 147240, Note_on_c, 8, 81, 127
10, 147336, Note_off_c, 8, 81, 64
10, 147360, Note_on_c, 8, 81, 127
10, 147936, Note_off_c, 8, 81, 64
10, 148080, Note_on_c, 8, 71, 127
10, 148200, Note_off_c, 8, 71, 64
10, 148200, Note_on_c, 8, 73, 127
10, 148320, Note_off_c, 8, 73, 64
10, 148320, Note_on_c, 8, 76, 127
10, 148440, Note_off_c, 8, 76, 64
10, 148440, Note_on_c, 8, 74, 127
10, 148560, Note_off_c, 8, 74, 64
10, 148560, Note_on_c, 8, 73, 127
10, 148680, Note_off_c, 8, 73, 64
10, 148680, Note_on_c, 8, 71, 127
10, 148800, Note_off_c, 8, 71, 64
10, 148800, Note_on_c, 8, 73, 127
10, 148920, Note_off_c, 8, 73, 64
10, 149040, Note_on_c, 8, 73, 127
10, 149160, Note_off_c, 8, 73, 64
10, 149160, Note_on_c, 8, 74, 127
10, 149280, Note_off_c, 8, 74, 64
10, 149280, Note_on_c, 8, 78, 127
10, 149400, Note_off_c, 8, 78, 64
10, 149400, Note_on_c, 8, 76, 127
10, 149520, Note_off_c, 8, 76, 64
10, 149520, Note_on_c, 8, 74, 127
10, 149640, Note_off_c, 8, 74, 64
10, 149640, Note_on_c, 8, 73, 127
10, 149760, Note_off_c, 8, 73, 64
10, 149760, Note_on_c, 8, 71, 127
10, 149880, Note_off_c, 8, 71, 64
10, 150000, Note_on_c, 8, 71, 127
10, 150120, Note_off_c, 8, 71, 64
10, 150120, Note_on_c, 8, 73, 127
10, 150240, Note_off_c, 8, 73, 64
10, 150240, Note_on_c, 8, 76, 127
10, 150360, Note_off_c, 8, 76, 64
10, 150360, Note_on_c, 8, 74, 127
10, 150480, Note_off_c, 8, 74, 64
10, 150480, Note_on_c, 8, 73, 127
10, 150600, Note_off_c, 8, 73, 64
10, 150600, Note_on_c, 8, 71, 127
10, 150720, Note_off_c, 8, 71, 64
10, 150720, Note_on_c, 8, 73, 127
10, 150720, Note_on_c, 8, 64, 127
10, 150720, Note_on_c, 8, 81, 127
10, 150840, Note_off_c, 8, 81, 64
10, 150840, Note_off_c, 8, 64, 64
10, 150840, Note_off_c, 8, 73, 64
10, 151680, Note_on_c, 8, 71, 127
10, 151800, Note_off_c, 8, 71, 64
10, 151920, Note_on_c, 8, 71, 127
10, 152040, Note_off_c, 8, 71, 64
10, 152040, Note_on_c, 8, 73, 127
10, 152160, Note_off_c, 8, 73, 64
10, 152160, Note_on_c, 8, 76, 127
10, 152280, Note_off_c, 8, 76, 64
10, 152280, Note_on_c, 8, 74, 127
10, 152400, Note_off_c, 8, 74, 64
10, 152400, Note_on_c, 8, 73, 127
10, 152520, Note_off_c, 8, 73, 64
10, 152520, Note_on_c, 8, 71, 127
10, 152640, Note_off_c, 8, 71, 64
10, 152640, Note_on_c, 8, 73, 127
10, 152760, Note_off_c, 8, 73, 64
10, 152880, Note_on_c, 8, 73, 127
10, 153000, Note_off_c, 8, 73, 64
10, 153000, Note_on_c, 8, 74, 127
10, 153120, Note_off_c, 8, 74, 64
10, 153120, Note_on_c, 8, 78, 127
10, 153240, Note_off_c, 8, 78, 64
10, 153240, Note_on_c, 8, 76, 127
10, 153360, Note_off_c, 8, 76, 64
10, 153360, Note_on_c, 8, 74, 127
10, 153480, Note_off_c, 8, 74, 64
10, 153480, Note_on_c, 8, 73, 127
10, 153600, Note_off_c, 8, 73, 64
10, 153600, Note_on_c, 8, 71, 127
10, 153720, Note_off_c, 8, 71, 64
10, 153840, Note_on_c, 8, 71, 127
10, 153960, Note_off_c, 8, 71, 64
10, 153960, Note_on_c, 8, 73, 127
10, 154080, Note_off_c, 8, 73, 64
10, 154080, Note_on_c, 8, 76, 127
10, 154200, Note_off_c, 8, 76, 64
10, 154200, Note_on_c, 8, 74, 127
10, 154320, Note_off_c, 8, 74, 64
10, 154320, Note_on_c, 8, 73, 127
10, 154440, Note_off_c, 8, 73, 64
10, 154440, Note_on_c, 8, 71, 127
10, 154560, Note_off_c, 8, 71, 64
10, 154560, Note_on_c, 8, 73, 127
10, 154920, Note_off_c, 8, 73, 64
10, 154920, Note_on_c, 8, 81, 127
10, 155016, Note_off_c, 8, 81, 64
10, 155040, Note_on_c, 8, 81, 127
10, 155616, Note_off_c, 8, 81, 64
10, 155760, Note_on_c, 8, 71, 127
10, 155880, Note_off_c, 8, 71, 64
10, 155880, Note_on_c, 8, 73, 127
10, 156000, Note_off_c, 8, 73, 64
10, 156000, Note_on_c, 8, 76, 127
10, 156120, Note_off_c, 8, 76, 64
10, 156120, Note_on_c, 8, 74, 127
10, 156240, Note_off_c, 8, 74, 64
10, 156240, Note_on_c, 8, 73, 127
10, 156360, Note_off_c, 8, 73, 64
10, 156360, Note_on_c, 8, 71, 127
10, 156480, Note_off_c, 8, 71, 64
10, 156480, Note_on_c, 8, 73, 127
10, 156600, Note_off_c, 8, 73, 64
10, 156720, Note_on_c, 8, 73, 127
10, 156840, Note_off_c, 8, 73, 64
10, 156840, Note_on_c, 8, 74, 127
10, 156960, Note_off_c, 8, 74, 64
10, 156960, Note_on_c, 8, 78, 127
10, 157080, Note_off_c, 8, 78, 64
10, 157080, Note_on_c, 8, 76, 127
10, 157200, Note_off_c, 8, 76, 64
10, 157200, Note_on_c, 8, 74, 127
10, 157320, Note_off_c, 8, 74, 64
10, 157320, Note_on_c, 8, 73, 127
10, 157440, Note_off_c, 8, 73, 64
10, 157440, Note_on_c, 8, 71, 127
10, 157560, Note_off_c, 8, 71, 64
10, 157680, Note_on_c, 8, 71, 127
10, 157800, Note_off_c, 8, 71, 64
10, 157800, Note_on_c, 8, 73, 127
10, 157920, Note_off_c, 8, 73, 64
10, 157920, Note_on_c, 8, 76, 127
10, 158040, Note_off_c, 8, 76, 64
10, 158040, Note_on_c, 8, 74, 127
10, 158160, Note_off_c, 8, 74, 64
10, 158160, Note_on_c, 8, 73, 127
10, 158280, Note_off_c, 8, 73, 64
10, 158280, Note_on_c, 8, 71, 127
10, 158400, Note_off_c, 8, 71, 64
10, 158400, Note_on_c, 8, 81, 127
10, 158400, Note_on_c, 8, 73, 127
10, 158400, Note_on_c, 8, 64, 127
10, 158520, Note_off_c, 8, 64, 64
10, 158520, Note_off_c, 8, 73, 64
10, 158520, Note_off_c, 8, 81, 64
10, 159360, Note_on_c, 8, 78, 127
10, 159480, Note_off_c, 8, 78, 64
10, 159600, Note_on_c, 8, 78, 127
10, 159720, Note_off_c, 8, 78, 64
10, 159720, Note_on_c, 8, 79, 127
10, 159840, Note_off_c, 8, 79, 64
10, 159840, Note_on_c, 8, 83, 127
10, 159960, Note_off_c, 8, 83, 64
10, 159960, Note_on_c, 8, 81, 127
10, 160080, Note_off_c, 8, 81, 64
10, 160080, Note_on_c, 8, 79, 127
10, 160200, Note_off_c, 8, 79, 64
10, 160200, Note_on_c, 8, 78, 127
10, 160320, Note_off_c, 8, 78, 64
10, 160320, Note_on_c, 8, 76, 127
10, 160440, Note_off_c, 8, 76, 64
10, 160560, Note_on_c, 8, 76, 127
10, 160680, Note_off_c, 8, 76, 64
10, 160680, Note_on_c, 8, 78, 127
10, 160800, Note_off_c, 8, 78, 64
10, 160800, Note_on_c, 8, 81, 127
10, 160920, Note_off_c, 8, 81, 64
10, 160920, Note_on_c, 8, 79, 127
10, 161040, Note_off_c, 8, 79, 64
10, 161040, Note_on_c, 8, 78, 127
10, 161160, Note_off_c, 8, 78, 64
10, 161160, Note_on_c, 8, 76, 127
10, 161280, Note_off_c, 8, 76, 64
10, 161280, Note_on_c, 8, 78, 127
10, 161400, Note_off_c, 8, 78, 64
10, 161520, Note_on_c, 8, 78, 127
10, 161640, Note_off_c, 8, 78, 64
10, 161640, Note_on_c, 8, 79, 127
10, 161760, Note_off_c, 8, 79, 64
10, 161760, Note_on_c, 8, 83, 127
10, 161880, Note_off_c, 8, 83, 64
10, 161880, Note_on_c, 8, 81, 127
10, 162000, Note_off_c, 8, 81, 64
10, 162000, Note_on_c, 8, 79, 127
10, 162120, Note_off_c, 8, 79, 64
10, 162120, Note_on_c, 8, 78, 127
10, 162240, Note_off_c, 8, 78, 64
10, 162240, Note_on_c, 8, 78, 127
10, 162480, Note_off_c, 8, 78, 64
10, 162480, Note_on_c, 8, 77, 127
10, 162672, Note_off_c, 8, 77, 64
10, 162720, Note_on_c, 8, 76, 127
10, 163200, Note_off_c, 8, 76, 64
10, 163200, Note_on_c, 8, 75, 127
10, 163320, Note_off_c, 8, 75, 64
10, 163440, Note_on_c, 8, 74, 127
10, 163560, Note_off_c, 8, 74, 64
10, 163560, Note_on_c, 8, 76, 127
10, 163680, Note_off_c, 8, 76, 64
10, 163680, Note_on_c, 8, 80, 127
10, 163800, Note_off_c, 8, 80, 64
10, 163800, Note_on_c, 8, 78, 127
10, 163920, Note_off_c, 8, 78, 64
10, 163920, Note_on_c, 8, 76, 127
10, 164040, Note_off_c, 8, 76, 64
10, 164040, Note_on_c, 8, 74, 127
10, 164160, Note_off_c, 8, 74, 64
10, 164160, Note_on_c, 8, 73, 127
10, 164280, Note_off_c, 8, 73, 64
10, 164400, Note_on_c, 8, 73, 127
10, 164520, Note_off_c, 8, 73, 64
10, 164520, Note_on_c, 8, 74, 127
10, 164640, Note_off_c, 8, 74, 64
10, 164640, Note_on_c, 8, 78, 127
10, 164760, Note_off_c, 8, 78, 64
10, 164760, Note_on_c, 8, 76, 127
10, 164880, Note_off_c, 8, 76, 64
10, 164880, Note_on_c, 8, 74, 127
10, 165000, Note_off_c, 8, 74, 64
10, 165000, Note_on_c, 8, 73, 127
10, 165120, Note_off_c, 8, 73, 64
10, 165120, Note_on_c, 8, 71, 127
10, 165240, Note_off_c, 8, 71, 64
10, 165360, Note_on_c, 8, 71, 127
10, 165480, Note_off_c, 8, 71, 64
10, 165480, Note_on_c, 8, 73, 127
10, 165600, Note_off_c, 8, 73, 64
10, 165600, Note_on_c, 8, 76, 127
10, 165720, Note_off_c, 8, 76, 64
10, 165720, Note_on_c, 8, 74, 127
10, 165840, Note_off_c, 8, 74, 64
10, 165840, Note_on_c, 8, 73, 127
10, 165960, Note_off_c, 8, 73, 64
10, 165960, Note_on_c, 8, 71, 127
10, 166080, Note_off_c, 8, 71, 64
10, 166080, Note_on_c, 8, 73, 127
10, 166080, Note_on_c, 8, 64, 127
10, 166080, Note_on_c, 8, 81, 127
10, 166200, Note_off_c, 8, 81, 64
10, 166200, Note_off_c, 8, 64, 64
10, 166200, Note_off_c, 8, 73, 64
10, 167040, Note_on_c, 8, 78, 127
10, 167160, Note_off_c, 8, 78, 64
10, 167280, Note_on_c, 8, 78, 127
10, 167400, Note_off_c, 8, 78, 64
10, 167400, Note_on_c, 8, 79, 127
10, 167520, Note_off_c, 8, 79, 64
10, 167520, Note_on_c, 8, 83, 127
10, 167640, Note_off_c, 8, 83, 64
10, 167640, Note_on_c, 8, 81, 127
10, 167760, Note_off_c, 8, 81, 64
10, 167760, Note_on_c, 8, 79, 127
10, 167880, Note_off_c, 8, 79, 64
10, 167880, Note_on_c, 8, 78, 127
10, 168000, Note_off_c, 8, 78, 64
10, 168000, Note_on_c, 8, 76, 127
10, 168120, Note_off_c, 8, 76, 64
10, 168240, Note_on_c, 8, 76, 127
10, 168360, Note_off_c, 8, 76, 64
10, 168360, Note_on_c, 8, 78, 127
10, 168480, Note_off_c, 8, 78, 64
10, 168480, Note_on_c, 8, 81, 127
10, 168600, Note_off_c, 8, 81, 64
10, 168600, Note_on_c, 8, 79, 127
10, 168720, Note_off_c, 8, 79, 64
10, 168720, Note_on_c, 8, 78, 127
10, 168840, Note_off_c, 8, 78, 64
10, 168840, Note_on_c, 8, 76, 127
10, 168960, Note_off_c, 8, 76, 64
10, 168960, Note_on_c, 8, 78, 127
10, 169080, Note_off_c, 8, 78, 64
10, 169200, Note_on_c, 8, 78, 127
10, 169320, Note_off_c, 8, 78, 64
10, 169320, Note_on_c, 8, 79, 127
10, 169440, Note_off_c, 8, 79, 64
10, 169440, Note_on_c, 8, 83, 127
10, 169560, Note_off_c, 8, 83, 64
10, 169560, Note_on_c, 8, 81, 127
10, 169680, Note_off_c, 8, 81, 64
10, 169680, Note_on_c, 8, 79, 127
10, 169800, Note_off_c, 8, 79, 64
10, 169800, Note_on_c, 8, 78, 127
10, 169920, Note_off_c, 8, 78, 64
10, 169920, Note_on_c, 8, 78, 127
10, 170160, Note_off_c, 8, 78, 64
10, 170160, Note_on_c, 8, 77, 127
10, 170352, Note_off_c, 8, 77, 64
10, 170400, Note_on_c, 8, 76, 127
10, 170880, Note_off_c, 8, 76, 64
10, 170880, Note_on_c, 8, 75, 127
10, 171000, Note_off_c, 8, 75, 64
10, 171120, Note_on_c, 8, 74, 127
10, 171240, Note_off_c, 8, 74, 64
10, 171240, Note_on_c, 8, 76, 127
10, 171360, Note_off_c, 8, 76, 64
10, 171360, Note_on_c, 8, 80, 127
10, 171480, Note_off_c, 8, 80, 64
10, 171480, Note_on_c, 8, 78, 127
10, 171600, Note_off_c, 8, 78, 64
10, 171600, Note_on_c, 8, 76, 127
10, 171720, Note_off_c, 8, 76, 64
10, 171720, Note_on_c, 8, 74, 127
10, 171840, Note_off_c, 8, 74, 64
10, 171840, Note_on_c, 8, 73, 127
10, 171960, Note_off_c, 8, 73, 64
10, 172080, Note_on_c, 8, 73, 127
10, 172200, Note_off_c, 8, 73, 64
10, 172200, Note_on_c, 8, 74, 127
10, 172320, Note_off_c, 8, 74, 64
10, 172320, Note_on_c, 8, 78, 127
10, 172440, Note_off_c, 8, 78, 64
10, 172440, Note_on_c, 8, 76, 127
10, 172560, Note_off_c, 8, 76, 64
10, 172560, Note_on_c, 8, 74, 127
10, 172680, Note_off_c, 8, 74, 64
10, 172680, Note_on_c, 8, 73, 127
10, 172800, Note_off_c, 8, 73, 64
10, 172800, Note_on_c, 8, 71, 127
10, 172920, Note_off_c, 8, 71, 64
10, 173040, Note_on_c, 8, 71, 127
10, 173160, Note_off_c, 8, 71, 64
10, 173160, Note_on_c, 8, 73, 127
10, 173280, Note_off_c, 8, 73, 64
10, 173280, Note_on_c, 8, 76, 127
10, 173400, Note_off_c, 8, 76, 64
10, 173400, Note_on_c, 8, 74, 127
10, 173520, Note_off_c, 8, 74, 64
10, 173520, Note_on_c, 8, 73, 127
10, 173640, Note_off_c, 8, 73, 64
10, 173640, Note_on_c, 8, 71, 127
10, 173760, Note_off_c, 8, 71, 64
10, 173760, Note_on_c, 8, 64, 127
10, 173760, Note_on_c, 8, 81, 127
10, 173760, Note_on_c, 8, 73, 127
10, 173880, Note_off_c, 8, 73, 64
10, 173880, Note_off_c, 8, 81, 64
10, 173880, Note_off_c, 8, 64, 64
10, 174840, Note_on_c, 8, 64, 127
10, 174840, Note_on_c, 8, 81, 127
10, 174840, Note_on_c, 8, 73, 127
10, 174960, Note_off_c, 8, 73, 64
10, 174960, Note_off_c, 8, 81, 64
10, 174960, Note_off_c, 8, 64, 64
10, 175920, Note_on_c, 8, 64, 127
10, 175920, Note_on_c, 8, 88, 127
10, 175920, Note_on_c, 8, 76, 127
10, 176040, Note_off_c, 8, 76, 64
10, 176040, Note_off_c, 8, 88, 64
10, 176040, Note_off_c, 8, 64, 64
10, 177000, Note_on_c, 8, 64, 127
10, 177000, Note_on_c, 8, 88, 127
10, 177000, Note_on_c, 8, 76, 127
10, 177120, Note_off_c, 8, 76, 64
10, 177120, Note_off_c, 8, 88, 64
10, 177120, Note_off_c, 8, 64, 64
10, 178080, Note_on_c, 8, 64, 127
10, 178080, Note_on_c, 8, 76, 127
10, 178080, Note_on_c, 8, 85, 127
10, 178200, Note_off_c, 8, 85, 64
10, 178200, Note_off_c, 8, 76, 64
10, 178200, Note_off_c, 8, 64, 64
10, 178560, Note_on_c, 8, 76, 127
10, 178560, Note_on_c, 8, 85, 127
10, 178560, Note_on_c, 8, 64, 127
10, 178680, Note_off_c, 8, 64, 64
10, 178680, Note_off_c, 8, 85, 64
10, 178680, Note_off_c, 8, 76, 64
10, 179040, Note_on_c, 8, 76, 127
10, 179040, Note_on_c, 8, 64, 127
10, 179040, Note_on_c, 8, 85, 127
10, 179160, Note_off_c, 8, 85, 64
10, 179160, Note_off_c, 8, 64, 64
10, 179160, Note_off_c, 8, 76, 64
10, 179520, Note_on_c, 8, 76, 127
10, 179520, Note_on_c, 8, 64, 127
10, 179520, Note_on_c, 8, 85, 127
10, 179640, Note_off_c, 8, 85, 64
10, 179640, Note_off_c, 8, 64, 64
10, 179640, Note_off_c, 8, 76, 64
10, 180000, Note_on_c, 8, 76, 127
10, 180000, Note_on_c, 8, 68, 127
10, 180000, Note_on_c, 8, 83, 127
10, 180120, Note_off_c, 8, 83, 64
10, 180120, Note_off_c, 8, 68, 64
10, 180120, Note_off_c, 8, 76, 64
10, 180480, Note_on_c, 8, 76, 127
10, 180480, Note_on_c, 8, 68, 127
10, 180480, Note_on_c, 8, 83, 127
10, 180600, Note_off_c, 8, 83, 64
10, 180600, Note_off_c, 8, 68, 64
10, 180600, Note_off_c, 8, 76, 64
10, 180960, Note_on_c, 8, 76, 127
10, 180960, Note_on_c, 8, 68, 127
10, 180960, Note_on_c, 8, 83, 127
10, 181080, Note_off_c, 8, 83, 64
10, 181080, Note_off_c, 8, 68, 64
10, 181080, Note_off_c, 8, 76, 64
10, 181440, Note_on_c, 8, 76, 127
10, 181440, Note_on_c, 8, 68, 127
10, 181440, Note_on_c, 8, 83, 127
10, 181560, Note_off_c, 8, 83, 64
10, 181560, Note_off_c, 8, 68, 64
10, 181560, Note_off_c, 8, 76, 64
10, 181920, Note_on_c, 8, 73, 127
10, 181920, Note_on_c, 8, 81, 127
10, 181920, Note_on_c, 8, 64, 127
10, 182040, Note_off_c, 8, 64, 64
10, 182040, Note_off_c, 8, 81, 64
10, 182040, Note_off_c, 8, 73, 64
10, 183000, Note_on_c, 8, 64, 127
10, 183000, Note_on_c, 8, 81, 127
10, 183000, Note_on_c, 8, 73, 127
10, 183120, Note_off_c, 8, 73, 64
10, 183120, Note_off_c, 8, 81, 64
10, 183120, Note_off_c, 8, 64, 64
10, 184080, Note_on_c, 8, 64, 127
10, 184080, Note_on_c, 8, 88, 127
10, 184080, Note_on_c, 8, 76, 127
10, 184200, Note_off_c, 8, 76, 64
10, 184200, Note_off_c, 8, 88, 64
10, 184200, Note_off_c, 8, 64, 64
10, 185160, Note_on_c, 8, 64, 127
10, 185160, Note_on_c, 8, 88, 127
10, 185160, Note_on_c, 8, 76, 127
10, 185280, Note_off_c, 8, 76, 64
10, 185280, Note_off_c, 8, 88, 64
10, 185280, Note_off_c, 8, 64, 64
10, 186240, Note_on_c, 8, 85, 100
10, 186336, Note_off_c, 8, 85, 64
10, 186360, Note_on_c, 8, 85, 100
10, 186456, Note_off_c, 8, 85, 64
10, 186480, Note_on_c, 8, 85, 100
10, 186576, Note_off_c, 8, 85, 64
10, 186600, Note_on_c, 8, 85, 100
10, 186696, Note_off_c, 8, 85, 64
10, 186720, Note_on_c, 8, 85, 100
10, 186816, Note_off_c, 8, 85, 64
10, 186840, Note_on_c, 8, 85, 100
10, 186936, Note_off_c, 8, 85, 64
10, 186960, Note_on_c, 8, 83, 100
10, 187056, Note_off_c, 8, 83, 64
10, 187080, Note_on_c, 8, 83, 100
10, 187176, Note_off_c, 8, 83, 64
10, 187200, Note_on_c, 8, 81, 100
10, 187296, Note_off_c, 8, 81, 64
10, 187320, Note_on_c, 8, 81, 100
10, 187416, Note_off_c, 8, 81, 64
10, 187440, Note_on_c, 8, 85, 100
10, 187536, Note_off_c, 8, 85, 64
10, 187560, Note_on_c, 8, 85, 100
10, 187656, Note_off_c, 8, 85, 64
10, 187680, Note_on_c, 8, 83, 100
10, 187776, Note_off_c, 8, 83, 64
10, 187800, Note_on_c, 8, 83, 100
10, 187896, Note_off_c, 8, 83, 64
10, 187920, Note_on_c, 8, 81, 100
10, 188016, Note_off_c, 8, 81, 64
10, 188040, Note_on_c, 8, 81, 100
10, 188136, Note_off_c, 8, 81, 64
10, 188160, Note_on_c, 8, 83, 100
10, 188256, Note_off_c, 8, 83, 64
10, 188280, Note_on_c, 8, 83, 100
10, 188376, Note_off_c, 8, 83, 64
10, 188400, Note_on_c, 8, 81, 100
10, 188496, Note_off_c, 8, 81, 64
10, 188520, Note_on_c, 8, 81, 100
10, 188616, Note_off_c, 8, 81, 64
10, 188640, Note_on_c, 8, 80, 100
10, 188736, Note_off_c, 8, 80, 64
10, 188760, Note_on_c, 8, 80, 100
10, 188856, Note_off_c, 8, 80, 64
10, 188880, Note_on_c, 8, 78, 100
10, 188976, Note_off_c, 8, 78, 64
10, 189000, Note_on_c, 8, 78, 100
10, 189096, Note_off_c, 8, 78, 64
10, 189120, Note_on_c, 8, 76, 100
10, 189216, Note_off_c, 8, 76, 64
10, 189240, Note_on_c, 8, 76, 100
10, 189336, Note_off_c, 8, 76, 64
10, 189360, Note_on_c, 8, 74, 100
10, 189456, Note_off_c, 8, 74, 64
10, 189480, Note_on_c, 8, 74, 100
10, 189576, Note_off_c, 8, 74, 64
10, 189600, Note_on_c, 8, 73, 100
10, 189696, Note_off_c, 8, 73, 64
10, 189720, Note_on_c, 8, 73, 100
10, 189816, Note_off_c, 8, 73, 64
10, 189840, Note_on_c, 8, 71, 100
10, 189936, Note_off_c, 8, 71, 64
10, 189960, Note_on_c, 8, 71, 100
10, 190056, Note_off_c, 8, 71, 64
10, 190080, Note_on_c, 8, 69, 80
10, 190176, Note_off_c, 8, 69, 64
10, 190320, Note_on_c, 8, 69, 80
10, 190440, Note_off_c, 8, 69, 64
10, 190440, Note_on_c, 8, 71, 80
10, 190560, Note_off_c, 8, 71, 64
10, 190560, Note_on_c, 8, 74, 80
10, 190680, Note_off_c, 8, 74, 64
10, 190680, Note_on_c, 8, 73, 80
10, 190800, Note_off_c, 8, 73, 64
10, 190800, Note_on_c, 8, 71, 80
10, 190920, Note_off_c, 8, 71, 64
10, 190920, Note_on_c, 8, 69, 80
10, 191040, Note_off_c, 8, 69, 64
10, 191040, Note_on_c, 8, 76, 80
10, 191520, Note_off_c, 8, 76, 64
10, 191520, Note_on_c, 8, 74, 80
10, 192000, Note_off_c, 8, 74, 64
10, 192000, Note_on_c, 8, 73, 80
10, 192480, Note_off_c, 8, 73, 64
10, 192480, Note_on_c, 8, 71, 80
10, 192960, Note_off_c, 8, 71, 64
10, 192960, Note_on_c, 8, 69, 80
10, 193440, Note_off_c, 8, 69, 64
10, 193440, Note_on_c, 8, 71, 80
10, 193920, Note_off_c, 8, 71, 64
10, 193920, Note_on_c, 8, 73, 80
10, 194016, Note_off_c, 8, 73, 64
10, 194160, Note_on_c, 8, 69, 80
10, 194280, Note_off_c, 8, 69, 64
10, 194280, Note_on_c, 8, 71, 80
10, 194400, Note_off_c, 8, 71, 64
10, 194400, Note_on_c, 8, 74, 80
10, 194520, Note_off_c, 8, 74, 64
10, 194520, Note_on_c, 8, 73, 80
10, 194640, Note_off_c, 8, 73, 64
10, 194640, Note_on_c, 8, 71, 80
10, 194760, Note_off_c, 8, 71, 64
10, 194760, Note_on_c, 8, 69, 80
10, 194880, Note_off_c, 8, 69, 64
10, 194880, Note_on_c, 8, 76, 80
10, 195360, Note_off_c, 8, 76, 64
10, 195360, Note_on_c, 8, 74, 80
10, 195840, Note_off_c, 8, 74, 64
10, 195840, Note_on_c, 8, 73, 80
10, 196320, Note_off_c, 8, 73, 64
10, 196320, Note_on_c, 8, 71, 80
10, 196800, Note_off_c, 8, 71, 64
10, 196800, Note_on_c, 8, 69, 80
10, 197280, Note_off_c, 8, 69, 64
10, 197280, Note_on_c, 8, 68, 80
10, 197760, Note_off_c, 8, 68, 64
10, 197760, Note_on_c, 8, 69, 110
10, 197856, Note_off_c, 8, 69, 64
10, 198000, Note_on_c, 8, 78, 80
10, 198120, Note_off_c, 8, 78, 64
10, 198120, Note_on_c, 8, 80, 80
10, 198240, Note_off_c, 8, 80, 64
10, 198240, Note_on_c, 8, 83, 80
10, 198360, Note_off_c, 8, 83, 64
10, 198360, Note_on_c, 8, 81, 80
10, 198480, Note_off_c, 8, 81, 64
10, 198480, Note_on_c, 8, 80, 80
10, 198600, Note_off_c, 8, 80, 64
10, 198600, Note_on_c, 8, 78, 80
10, 198720, Note_off_c, 8, 78, 64
10, 198720, Note_on_c, 8, 85, 80
10, 199200, Note_off_c, 8, 85, 64
10, 199200, Note_on_c, 8, 83, 80
10, 199680, Note_off_c, 8, 83, 64
10, 199680, Note_on_c, 8, 81, 80
10, 200160, Note_off_c, 8, 81, 64
10, 200160, Note_on_c, 8, 80, 80
10, 200640, Note_off_c, 8, 80, 64
10, 200640, Note_on_c, 8, 78, 80
10, 201120, Note_off_c, 8, 78, 64
10, 201120, Note_on_c, 8, 80, 80
10, 201600, Note_off_c, 8, 80, 64
10, 201600, Note_on_c, 8, 81, 110
10, 201696, Note_off_c, 8, 81, 64
10, 201840, Note_on_c, 8, 78, 80
10, 201960, Note_off_c, 8, 78, 64
10, 201960, Note_on_c, 8, 80, 80
10, 202080, Note_off_c, 8, 80, 64
10, 202080, Note_on_c, 8, 83, 80
10, 202200, Note_off_c, 8, 83, 64
10, 202200, Note_on_c, 8, 81, 80
10, 202320, Note_off_c, 8, 81, 64
10, 202320, Note_on_c, 8, 80, 80
10, 202440, Note_off_c, 8, 80, 64
10, 202440, Note_on_c, 8, 78, 80
10, 202560, Note_off_c, 8, 78, 64
10, 202560, Note_on_c, 8, 85, 80
10, 203040, Note_off_c, 8, 85, 64
10, 203040, Note_on_c, 8, 83, 80
10, 203520, Note_off_c, 8, 83, 64
10, 203520, Note_on_c, 8, 81, 80
10, 204000, Note_off_c, 8, 81, 64
10, 204000, Note_on_c, 8, 80, 80
10, 204480, Note_off_c, 8, 80, 64
10, 204480, Note_on_c, 8, 78, 80
10, 204960, Note_off_c, 8, 78, 64
10, 204960, Note_on_c, 8, 80, 80
10, 205440, Note_off_c, 8, 80, 64
10, 205440, Note_on_c, 8, 69, 110
10, 205440, Note_on_c, 8, 81, 110
10, 205554, Note_off_c, 8, 81, 64
10, 205554, Note_off_c, 8, 69, 64
10, 205800, Note_on_c, 8, 81, 80
10, 205800, Note_on_c, 8, 69, 80
10, 205914, Note_off_c, 8, 69, 64
10, 205914, Note_off_c, 8, 81, 64
10, 205920, Note_on_c, 8, 81, 80
10, 205920, Note_on_c, 8, 69, 80
10, 206034, Note_off_c, 8, 69, 64
10, 206034, Note_off_c, 8, 81, 64
10, 206280, Note_on_c, 8, 69, 80
10, 206280, Note_on_c, 8, 81, 80
10, 206394, Note_off_c, 8, 81, 64
10, 206394, Note_off_c, 8, 69, 64
10, 206400, Note_on_c, 8, 69, 80
10, 206400, Note_on_c, 8, 81, 80
10, 206514, Note_off_c, 8, 81, 64
10, 206514, Note_off_c, 8, 69, 64
10, 206760, Note_on_c, 8, 69, 80
10, 206760, Note_on_c, 8, 81, 80
10, 206874, Note_off_c, 8, 81, 64
10, 206874, Note_off_c, 8, 69, 64
10, 206880, Note_on_c, 8, 69, 80
10, 206880, Note_on_c, 8, 81, 80
10, 206994, Note_off_c, 8, 81, 64
10, 206994, Note_off_c, 8, 69, 64
10, 207240, Note_on_c, 8, 69, 80
10, 207240, Note_on_c, 8, 81, 80
10, 207354, Note_off_c, 8, 81, 64
10, 207354, Note_off_c, 8, 69, 64
10, 207360, Note_on_c, 8, 71, 80
10, 207360, Note_on_c, 8, 83, 80
10, 207474, Note_off_c, 8, 83, 64
10, 207474, Note_off_c, 8, 71, 64
10, 207720, Note_on_c, 8, 71, 80
10, 207720, Note_on_c, 8, 83, 80
10, 207834, Note_off_c, 8, 83, 64
10, 207834, Note_off_c, 8, 71, 64
10, 207840, Note_on_c, 8, 71, 80
10, 207840, Note_on_c, 8, 83, 80
10, 207954, Note_off_c, 8, 83, 64
10, 207954, Note_off_c, 8, 71, 64
10, 208200, Note_on_c, 8, 83, 80
10, 208200, Note_on_c, 8, 71, 80
10, 208314, Note_off_c, 8, 71, 64
10, 208314, Note_off_c, 8, 83, 64
10, 208320, Note_on_c, 8, 71, 80
10, 208320, Note_on_c, 8, 83, 80
10, 208434, Note_off_c, 8, 83, 64
10, 208434, Note_off_c, 8, 71, 64
10, 208680, Note_on_c, 8, 71, 80
10, 208680, Note_on_c, 8, 83, 80
10, 208794, Note_off_c, 8, 83, 64
10, 208794, Note_off_c, 8, 71, 64
10, 208800, Note_on_c, 8, 71, 80
10, 208800, Note_on_c, 8, 83, 80
10, 208914, Note_off_c, 8, 83, 64
10, 208914, Note_off_c, 8, 71, 64
10, 209160, Note_on_c, 8, 83, 80
10, 209160, Note_on_c, 8, 71, 80
10, 209274, Note_off_c, 8, 71, 64
10, 209274, Note_off_c, 8, 83, 64
10, 209280, Note_on_c, 8, 81, 110
10, 209280, Note_on_c, 8, 69, 80
10, 209394, Note_off_c, 8, 69, 64
10, 209394, Note_off_c, 8, 81, 64
10, 209640, Note_on_c, 8, 81, 80
10, 209640, Note_on_c, 8, 69, 80
10, 209754, Note_off_c, 8, 69, 64
10, 209754, Note_off_c, 8, 81, 64
10, 209760, Note_on_c, 8, 81, 80
10, 209760, Note_on_c, 8, 69, 80
10, 209874, Note_off_c, 8, 69, 64
10, 209874, Note_off_c, 8, 81, 64
10, 210120, Note_on_c, 8, 69, 80
10, 210120, Note_on_c, 8, 81, 80
10, 210234, Note_off_c, 8, 81, 64
10, 210234, Note_off_c, 8, 69, 64
10, 210240, Note_on_c, 8, 82, 110
10, 210240, Note_on_c, 8, 70, 80
10, 210354, Note_off_c, 8, 70, 64
10, 210354, Note_off_c, 8, 82, 64
10, 210600, Note_on_c, 8, 70, 80
10, 210600, Note_on_c, 8, 82, 80
10, 210714, Note_off_c, 8, 82, 64
10, 210714, Note_off_c, 8, 70, 64
10, 210720, Note_on_c, 8, 70, 80
10, 210720, Note_on_c, 8, 82, 80
10, 210834, Note_off_c, 8, 82, 64
10, 210834, Note_off_c, 8, 70, 64
10, 211080, Note_on_c, 8, 82, 80
10, 211080, Note_on_c, 8, 70, 80
10, 211194, Note_off_c, 8, 70, 64
10, 211194, Note_off_c, 8, 82, 64
10, 211200, Note_on_c, 8, 84, 110
10, 211200, Note_on_c, 8, 72, 80
10, 211314, Note_off_c, 8, 72, 64
10, 211314, Note_off_c, 8, 84, 64
10, 211560, Note_on_c, 8, 72, 80
10, 211560, Note_on_c, 8, 84, 80
10, 211674, Note_off_c, 8, 84, 64
10, 211674, Note_off_c, 8, 72, 64
10, 211680, Note_on_c, 8, 72, 80
10, 211680, Note_on_c, 8, 84, 80
10, 211794, Note_off_c, 8, 84, 64
10, 211794, Note_off_c, 8, 72, 64
10, 212040, Note_on_c, 8, 84, 80
10, 212040, Note_on_c, 8, 72, 80
10, 212154, Note_off_c, 8, 72, 64
10, 212154, Note_off_c, 8, 84, 64
10, 212160, Note_on_c, 8, 85, 110
10, 212160, Note_on_c, 8, 73, 80
10, 212274, Note_off_c, 8, 73, 64
10, 212274, Note_off_c, 8, 85, 64
10, 212520, Note_on_c, 8, 73, 80
10, 212520, Note_on_c, 8, 85, 80
10, 212634, Note_off_c, 8, 85, 64
10, 212634, Note_off_c, 8, 73, 64
10, 212640, Note_on_c, 8, 73, 80
10, 212640, Note_on_c, 8, 85, 80
10, 212754, Note_off_c, 8, 85, 64
10, 212754, Note_off_c, 8, 73, 64
10, 213000, Note_on_c, 8, 85, 80
10, 213000, Note_on_c, 8, 73, 80
10, 213114, Note_off_c, 8, 73, 64
10, 213114, Note_off_c, 8, 85, 64
10, 213120, Note_on_c, 8, 87, 110
10, 213120, Note_on_c, 8, 75, 80
10, 213234, Note_off_c, 8, 75, 64
10, 213234, Note_off_c, 8, 87, 64
10, 213480, Note_on_c, 8, 76, 80
10, 213480, Note_on_c, 8, 88, 80
10, 213594, Note_off_c, 8, 88, 64
10, 213594, Note_off_c, 8, 76, 64
10, 213600, Note_on_c, 8, 90, 80
10, 213600, Note_on_c, 8, 78, 80
10, 213714, Note_off_c, 8, 78, 64
10, 213714, Note_off_c, 8, 90, 64
10, 213960, Note_on_c, 8, 90, 80
10, 213960, Note_on_c, 8, 78, 80
10, 214074, Note_off_c, 8, 78, 64
10, 214074, Note_off_c, 8, 90, 64
10, 214080, Note_on_c, 8, 90, 80
10, 214080, Note_on_c, 8, 78, 80
10, 214194, Note_off_c, 8, 78, 64
10, 214194, Note_off_c, 8, 90, 64
10, 214440, Note_on_c, 8, 78, 80
10, 214440, Note_on_c, 8, 90, 80
10, 214554, Note_off_c, 8, 90, 64
10, 214554, Note_off_c, 8, 78, 64
10, 214560, Note_on_c, 8, 90, 80
10, 214560, Note_on_c, 8, 78, 80
10, 214674, Note_off_c, 8, 78, 64
10, 214674, Note_off_c, 8, 90, 64
10, 214920, Note_on_c, 8, 90, 80
10, 214920, Note_on_c, 8, 78, 80
10, 215034, Note_off_c, 8, 78, 64
10, 215034, Note_off_c, 8, 90, 64
10, 215040, Note_on_c, 8, 78, 127
10, 215040, Note_on_c, 8, 90, 127
10, 215154, Note_off_c, 8, 90, 64
10, 215154, Note_off_c, 8, 78, 64
10, 216360, Note_on_c, 8, 78, 64
10, 216480, Note_off_c, 8, 78, 64
10, 216480, Note_on_c, 8, 81, 64
10, 216552, Note_off_c, 8, 81, 64
10, 216840, Note_on_c, 8, 78, 64
10, 216960, Note_off_c, 8, 78, 64
10, 216960, Note_on_c, 8, 75, 64
10, 217032, Note_off_c, 8, 75, 64
10, 217320, Note_on_c, 8, 75, 64
10, 217440, Note_off_c, 8, 75, 64
10, 217440, Note_on_c, 8, 78, 64
10, 217512, Note_off_c, 8, 78, 64
10, 217800, Note_on_c, 8, 75, 64
10, 217920, Note_off_c, 8, 75, 64
10, 217920, Note_on_c, 8, 72, 64
10, 217992, Note_off_c, 8, 72, 64
10, 218280, Note_on_c, 8, 75, 64
10, 218400, Note_off_c, 8, 75, 64
10, 218400, Note_on_c, 8, 76, 64
10, 218472, Note_off_c, 8, 76, 64
10, 218760, Note_on_c, 8, 73, 64
10, 218880, Note_off_c, 8, 73, 64
10, 218880, Note_on_c, 8, 72, 56
10, 218952, Note_off_c, 8, 72, 64
10, 220200, Note_on_c, 8, 78, 64
10, 220320, Note_off_c, 8, 78, 64
10, 220320, Note_on_c, 8, 81, 64
10, 220392, Note_off_c, 8, 81, 64
10, 220680, Note_on_c, 8, 78, 64
10, 220800, Note_off_c, 8, 78, 64
10, 220800, Note_on_c, 8, 75, 64
10, 220872, Note_off_c, 8, 75, 64
10, 221160, Note_on_c, 8, 75, 64
10, 221280, Note_off_c, 8, 75, 64
10, 221280, Note_on_c, 8, 78, 64
10, 221352, Note_off_c, 8, 78, 64
10, 221640, Note_on_c, 8, 75, 64
10, 221760, Note_off_c, 8, 75, 64
10, 221760, Note_on_c, 8, 72, 64
10, 221832, Note_off_c, 8, 72, 64
10, 222120, Note_on_c, 8, 75, 64
10, 222240, Note_off_c, 8, 75, 64
10, 222240, Note_on_c, 8, 76, 64
10, 222312, Note_off_c, 8, 76, 64
10, 222600, Note_on_c, 8, 73, 64
10, 222720, Note_off_c, 8, 73, 64
10, 222720, Note_on_c, 8, 72, 64
10, 222792, Note_off_c, 8, 72, 64
10, 223080, Note_on_c, 8, 75, 64
10, 223200, Note_off_c, 8, 75, 64
10, 223200, Note_on_c, 8, 78, 64
10, 223272, Note_off_c, 8, 78, 64
10, 223560, Note_on_c, 8, 75, 64
10, 223680, Note_off_c, 8, 75, 64
10, 223680, Note_on_c, 8, 72, 64
10, 223752, Note_off_c, 8, 72, 64
10, 224040, Note_on_c, 8, 75, 64
10, 224160, Note_off_c, 8, 75, 64
10, 224160, Note_on_c, 8, 76, 64
10, 224232, Note_off_c, 8, 76, 64
10, 224520, Note_on_c, 8, 73, 64
10, 224640, Note_off_c, 8, 73, 64
10, 224640, Note_on_c, 8, 72, 64
10, 224712, Note_off_c, 8, 72, 64
10, 225000, Note_on_c, 8, 75, 64
10, 225120, Note_off_c, 8, 75, 64
10, 225120, Note_on_c, 8, 78, 64
10, 225192, Note_off_c, 8, 78, 64
10, 225480, Note_on_c, 8, 75, 64
10, 225600, Note_off_c, 8, 75, 64
10, 225600, Note_on_c, 8, 72, 64
10, 225672, Note_off_c, 8, 72, 64
10, 225960, Note_on_c, 8, 75, 64
10, 226080, Note_off_c, 8, 75, 64
10, 226080, Note_on_c, 8, 80, 64
10, 226152, Note_off_c, 8, 80, 64
10, 226440, Note_on_c, 8, 78, 64
10, 226560, Note_off_c, 8, 78, 64
10, 226560, Note_on_c, 8, 76, 74
10, 226632, Note_off_c, 8, 76, 64
10, 226920, Note_on_c, 8, 75, 74
10, 227040, Note_off_c, 8, 75, 64
10, 227040, Note_on_c, 8, 76, 110
10, 227490, Note_off_c, 8, 76, 64
10, 227520, Note_on_c, 8, 75, 89
10, 227592, Note_off_c, 8, 75, 64
10, 227880, Note_on_c, 8, 73, 74
10, 228000, Note_off_c, 8, 73, 64
10, 228000, Note_on_c, 8, 75, 110
10, 228450, Note_off_c, 8, 75, 64
10, 228480, Note_on_c, 8, 73, 89
10, 228552, Note_off_c, 8, 73, 64
10, 228840, Note_on_c, 8, 72, 74
10, 228960, Note_off_c, 8, 72, 64
10, 228960, Note_on_c, 8, 73, 110
10, 229410, Note_off_c, 8, 73, 64
10, 229440, Note_on_c, 8, 75, 89
10, 229512, Note_off_c, 8, 75, 64
10, 229800, Note_on_c, 8, 73, 74
10, 229920, Note_off_c, 8, 73, 64
10, 229920, Note_on_c, 8, 75, 110
10, 230370, Note_off_c, 8, 75, 64
10, 230400, Note_on_c, 8, 76, 74
10, 230626, Note_off_c, 8, 76, 64
10, 235200, Note_on_c, 8, 75, 64
10, 235272, Note_off_c, 8, 75, 64
10, 235560, Note_on_c, 8, 76, 64
10, 235680, Note_off_c, 8, 76, 64
10, 235680, Note_on_c, 8, 78, 64
10, 235752, Note_off_c, 8, 78, 64
10, 236040, Note_on_c, 8, 75, 64
10, 236160, Note_off_c, 8, 75, 64
10, 236160, Note_on_c, 8, 76, 74
10, 236232, Note_off_c, 8, 76, 64
10, 236520, Note_on_c, 8, 75, 74
10, 236640, Note_off_c, 8, 75, 64
10, 236640, Note_on_c, 8, 76, 110
10, 237090, Note_off_c, 8, 76, 64
10, 237120, Note_on_c, 8, 75, 89
10, 237192, Note_off_c, 8, 75, 64
10, 237480, Note_on_c, 8, 73, 74
10, 237600, Note_off_c, 8, 73, 64
10, 237600, Note_on_c, 8, 75, 110
10, 238050, Note_off_c, 8, 75, 64
10, 238080, Note_on_c, 8, 73, 89
10, 238152, Note_off_c, 8, 73, 64
10, 238440, Note_on_c, 8, 72, 74
10, 238560, Note_off_c, 8, 72, 64
10, 238560, Note_on_c, 8, 73, 110
10, 239010, Note_off_c, 8, 73, 64
10, 239040, Note_on_c, 8, 75, 89
10, 239112, Note_off_c, 8, 75, 64
10, 239400, Note_on_c, 8, 73, 74
10, 239520, Note_off_c, 8, 73, 64
10, 239520, Note_on_c, 8, 75, 110
10, 239970, Note_off_c, 8, 75, 64
10, 240000, Note_on_c, 8, 76, 74
10, 240226, Note_off_c, 8, 76, 64
10, 244200, Note_on_c, 8, 79, 80
10, 244320, Note_off_c, 8, 79, 64
10, 244320, Note_on_c, 8, 76, 80
10, 244416, Note_off_c, 8, 76, 64
10, 244680, Note_on_c, 8, 73, 80
10, 244800, Note_off_c, 8, 73, 64
10, 244800, Note_on_c, 8, 69, 80
10, 244896, Note_off_c, 8, 69, 64
10, 249000, Note_on_c, 8, 81, 80
10, 249120, Note_off_c, 8, 81, 64
10, 249120, Note_on_c, 8, 86, 80
10, 249216, Note_off_c, 8, 86, 64
10, 249480, Note_on_c, 8, 81, 80
10, 249600, Note_off_c, 8, 81, 64
10, 249600, Note_on_c, 8, 79, 96
10, 249696, Note_off_c, 8, 79, 64
10, 249960, Note_on_c, 8, 79, 96
10, 250080, Note_off_c, 8, 79, 64
10, 250080, Note_on_c, 8, 76, 96
10, 250176, Note_off_c, 8, 76, 64
10, 250440, Note_on_c, 8, 73, 96
10, 250560, Note_off_c, 8, 73, 64
10, 250560, Note_on_c, 8, 69, 96
10, 250656, Note_off_c, 8, 69, 64
10, 254760, Note_on_c, 8, 81, 83
10, 254880, Note_off_c, 8, 81, 64
10, 254880, Note_on_c, 8, 86, 83
10, 254976, Note_off_c, 8, 86, 64
10, 255240, Note_on_c, 8, 90, 125
10, 255360, Note_off_c, 8, 90, 64
10, 255360, Note_on_c, 8, 90, 99
10, 255456, Note_off_c, 8, 90, 64
10, 255480, Note_on_c, 8, 90, 99
10, 255576, Note_off_c, 8, 90, 64
10, 255600, Note_on_c, 8, 90, 99
10, 255696, Note_off_c, 8, 90, 64
10, 255720, Note_on_c, 8, 90, 99
10, 255816, Note_off_c, 8, 90, 64
10, 255840, Note_on_c, 8, 90, 99
10, 255936, Note_off_c, 8, 90, 64
10, 255960, Note_on_c, 8, 90, 99
10, 256056, Note_off_c, 8, 90, 64
10, 256080, Note_on_c, 8, 90, 99
10, 256176, Note_off_c, 8, 90, 64
10, 256200, Note_on_c, 8, 90, 99
10, 256296, Note_off_c, 8, 90, 64
10, 256320, Note_on_c, 8, 90, 99
10, 256416, Note_off_c, 8, 90, 64
10, 256440, Note_on_c, 8, 90, 99
10, 256536, Note_off_c, 8, 90, 64
10, 256560, Note_on_c, 8, 90, 99
10, 256656, Note_off_c, 8, 90, 64
10, 256680, Note_on_c, 8, 90, 99
10, 256776, Note_off_c, 8, 90, 64
10, 256800, Note_on_c, 8, 90, 99
10, 256896, Note_off_c, 8, 90, 64
10, 256920, Note_on_c, 8, 90, 99
10, 257016, Note_off_c, 8, 90, 64
10, 257040, Note_on_c, 8, 90, 99
10, 257136, Note_off_c, 8, 90, 64
10, 257160, Note_on_c, 8, 90, 99
10, 257256, Note_off_c, 8, 90, 64
10, 257280, Note_on_c, 8, 88, 127
10, 257376, Note_off_c, 8, 88, 64
10, 257400, Note_on_c, 8, 88, 99
10, 257496, Note_off_c, 8, 88, 64
10, 257520, Note_on_c, 8, 88, 99
10, 257616, Note_off_c, 8, 88, 64
10, 257640, Note_on_c, 8, 88, 99
10, 257736, Note_off_c, 8, 88, 64
10, 257760, Note_on_c, 8, 88, 99
10, 257856, Note_off_c, 8, 88, 64
10, 257880, Note_on_c, 8, 88, 99
10, 257976, Note_off_c, 8, 88, 64
10, 258000, Note_on_c, 8, 88, 99
10, 258096, Note_off_c, 8, 88, 64
10, 258120, Note_on_c, 8, 88, 99
10, 258216, Note_off_c, 8, 88, 64
10, 258240, Note_on_c, 8, 90, 127
10, 258336, Note_off_c, 8, 90, 64
10, 258360, Note_on_c, 8, 90, 99
10, 258456, Note_off_c, 8, 90, 64
10, 258480, Note_on_c, 8, 90, 99
10, 258576, Note_off_c, 8, 90, 64
10, 258600, Note_on_c, 8, 90, 99
10, 258696, Note_off_c, 8, 90, 64
10, 258720, Note_on_c, 8, 90, 99
10, 258816, Note_off_c, 8, 90, 64
10, 258840, Note_on_c, 8, 90, 99
10, 258936, Note_off_c, 8, 90, 64
10, 258960, Note_on_c, 8, 90, 99
10, 259056, Note_off_c, 8, 90, 64
10, 259080, Note_on_c, 8, 90, 99
10, 259176, Note_off_c, 8, 90, 64
10, 259200, Note_on_c, 8, 88, 127
10, 259296, Note_off_c, 8, 88, 64
10, 259320, Note_on_c, 8, 88, 99
10, 259416, Note_off_c, 8, 88, 64
10, 259440, Note_on_c, 8, 88, 99
10, 259536, Note_off_c, 8, 88, 64
10, 259560, Note_on_c, 8, 88, 99
10, 259656, Note_off_c, 8, 88, 64
10, 259680, Note_on_c, 8, 88, 99
10, 259776, Note_off_c, 8, 88, 64
10, 259800, Note_on_c, 8, 88, 99
10, 259896, Note_off_c, 8, 88, 64
10, 259920, Note_on_c, 8, 88, 99
10, 260016, Note_off_c, 8, 88, 64
10, 260040, Note_on_c, 8, 88, 99
10, 260136, Note_off_c, 8, 88, 64
10, 260160, Note_on_c, 8, 90, 127
10, 260256, Note_off_c, 8, 90, 64
10, 260280, Note_on_c, 8, 90, 99
10, 260376, Note_off_c, 8, 90, 64
10, 260400, Note_on_c, 8, 90, 99
10, 260496, Note_off_c, 8, 90, 64
10, 260520, Note_on_c, 8, 90, 99
10, 260616, Note_off_c, 8, 90, 64
10, 260640, Note_on_c, 8, 90, 99
10, 260736, Note_off_c, 8, 90, 64
10, 260760, Note_on_c, 8, 90, 99
10, 260856, Note_off_c, 8, 90, 64
10, 260880, Note_on_c, 8, 90, 99
10, 260976, Note_off_c, 8, 90, 64
10, 261000, Note_on_c, 8, 90, 99
10, 261096, Note_off_c, 8, 90, 64
10, 261120, Note_on_c, 8, 88, 127
10, 261216, Note_off_c, 8, 88, 64
10, 261240, Note_on_c, 8, 88, 99
10, 261336, Note_off_c, 8, 88, 64
10, 261360, Note_on_c, 8, 88, 99
10, 261456, Note_off_c, 8, 88, 64
10, 261480, Note_on_c, 8, 88, 99
10, 261576, Note_off_c, 8, 88, 64
10, 261600, Note_on_c, 8, 88, 99
10, 261696, Note_off_c, 8, 88, 64
10, 261720, Note_on_c, 8, 88, 99
10, 261816, Note_off_c, 8, 88, 64
10, 261840, Note_on_c, 8, 88, 99
10, 261936, Note_off_c, 8, 88, 64
10, 261960, Note_on_c, 8, 88, 99
10, 262056, Note_off_c, 8, 88, 64
10, 262080, Note_on_c, 8, 90, 127
10, 262176, Note_off_c, 8, 90, 64
10, 262200, Note_on_c, 8, 90, 99
10, 262296, Note_off_c, 8, 90, 64
10, 262320, Note_on_c, 8, 90, 99
10, 262416, Note_off_c, 8, 90, 64
10, 262440, Note_on_c, 8, 90, 99
10, 262536, Note_off_c, 8, 90, 64
10, 262560, Note_on_c, 8, 90, 99
10, 262656, Note_off_c, 8, 90, 64
10, 262680, Note_on_c, 8, 90, 99
10, 262776, Note_off_c, 8, 90, 64
10, 262800, Note_on_c, 8, 90, 99
10, 262896, Note_off_c, 8, 90, 64
10, 262920, Note_on_c, 8, 90, 99
10, 263016, Note_off_c, 8, 90, 64
10, 263040, Note_on_c, 8, 88, 127
10, 263136, Note_off_c, 8, 88, 64
10, 263160, Note_on_c, 8, 88, 99
10, 263256, Note_off_c, 8, 88, 64
10, 263280, Note_on_c, 8, 88, 99
10, 263376, Note_off_c, 8, 88, 64
10, 263400, Note_on_c, 8, 88, 99
10, 263496, Note_off_c, 8, 88, 64
10, 263520, Note_on_c, 8, 88, 99
10, 263616, Note_off_c, 8, 88, 64
10, 263640, Note_on_c, 8, 88, 99
10, 263736, Note_off_c, 8, 88, 64
10, 263760, Note_on_c, 8, 88, 99
10, 263856, Note_off_c, 8, 88, 64
10, 263880, Note_on_c, 8, 88, 99
10, 263976, Note_off_c, 8, 88, 64
10, 264000, Note_on_c, 8, 87, 127
10, 264096, Note_off_c, 8, 87, 64
10, 264120, Note_on_c, 8, 87, 99
10, 264216, Note_off_c, 8, 87, 64
10, 264240, Note_on_c, 8, 87, 99
10, 264336, Note_off_c, 8, 87, 64
10, 264360, Note_on_c, 8, 87, 99
10, 264456, Note_off_c, 8, 87, 64
10, 264480, Note_on_c, 8, 87, 99
10, 264576, Note_off_c, 8, 87, 64
10, 264600, Note_on_c, 8, 87, 99
10, 264696, Note_off_c, 8, 87, 64
10, 264720, Note_on_c, 8, 87, 99
10, 264816, Note_off_c, 8, 87, 64
10, 264840, Note_on_c, 8, 87, 99
10, 264936, Note_off_c, 8, 87, 64
10, 264960, Note_on_c, 8, 88, 99
10, 265056, Note_off_c, 8, 88, 64
10, 265080, Note_on_c, 8, 88, 99
10, 265176, Note_off_c, 8, 88, 64
10, 265200, Note_on_c, 8, 88, 99
10, 265296, Note_off_c, 8, 88, 64
10, 265320, Note_on_c, 8, 88, 99
10, 265416, Note_off_c, 8, 88, 64
10, 265440, Note_on_c, 8, 87, 127
10, 265536, Note_off_c, 8, 87, 64
10, 265560, Note_on_c, 8, 87, 99
10, 265656, Note_off_c, 8, 87, 64
10, 265680, Note_on_c, 8, 87, 99
10, 265776, Note_off_c, 8, 87, 64
10, 265800, Note_on_c, 8, 87, 99
10, 265896, Note_off_c, 8, 87, 64
10, 265920, Note_on_c, 8, 87, 99
10, 266016, Note_off_c, 8, 87, 64
10, 266040, Note_on_c, 8, 87, 99
10, 266136, Note_off_c, 8, 87, 64
10, 266160, Note_on_c, 8, 87, 99
10, 266256, Note_off_c, 8, 87, 64
10, 266280, Note_on_c, 8, 87, 99
10, 266376, Note_off_c, 8, 87, 64
10, 266400, Note_on_c, 8, 87, 99
10, 266496, Note_off_c, 8, 87, 64
10, 266520, Note_on_c, 8, 87, 99
10, 266616, Note_off_c, 8, 87, 64
10, 266640, Note_on_c, 8, 87, 99
10, 266736, Note_off_c, 8, 87, 64
10, 266760, Note_on_c, 8, 87, 99
10, 266856, Note_off_c, 8, 87, 64
10, 266880, Note_on_c, 8, 88, 99
10, 266976, Note_off_c, 8, 88, 64
10, 267000, Note_on_c, 8, 88, 99
10, 267096, Note_off_c, 8, 88, 64
10, 267120, Note_on_c, 8, 88, 99
10, 267216, Note_off_c, 8, 88, 64
10, 267240, Note_on_c, 8, 88, 99
10, 267336, Note_off_c, 8, 88, 64
10, 267360, Note_on_c, 8, 87, 127
10, 267456, Note_off_c, 8, 87, 64
10, 267480, Note_on_c, 8, 87, 99
10, 267576, Note_off_c, 8, 87, 64
10, 267600, Note_on_c, 8, 87, 99
10, 267696, Note_off_c, 8, 87, 64
10, 267720, Note_on_c, 8, 87, 99
10, 267816, Note_off_c, 8, 87, 64
10, 267840, Note_on_c, 8, 87, 99
10, 267936, Note_off_c, 8, 87, 64
10, 267960, Note_on_c, 8, 87, 99
10, 268056, Note_off_c, 8, 87, 64
10, 268080, Note_on_c, 8, 87, 99
10, 268176, Note_off_c, 8, 87, 64
10, 268200, Note_on_c, 8, 87, 99
10, 268296, Note_off_c, 8, 87, 64
10, 268320, Note_on_c, 8, 87, 99
10, 268416, Note_off_c, 8, 87, 64
10, 268440, Note_on_c, 8, 87, 99
10, 268536, Note_off_c, 8, 87, 64
10, 268560, Note_on_c, 8, 87, 99
10, 268656, Note_off_c, 8, 87, 64
10, 268680, Note_on_c, 8, 87, 99
10, 268776, Note_off_c, 8, 87, 64
10, 268800, Note_on_c, 8, 88, 99
10, 268896, Note_off_c, 8, 88, 64
10, 268920, Note_on_c, 8, 88, 99
10, 269016, Note_off_c, 8, 88, 64
10, 269040, Note_on_c, 8, 88, 99
10, 269136, Note_off_c, 8, 88, 64
10, 269160, Note_on_c, 8, 88, 99
10, 269256, Note_off_c, 8, 88, 64
10, 269280, Note_on_c, 8, 87, 127
10, 269376, Note_off_c, 8, 87, 64
10, 269400, Note_on_c, 8, 87, 99
10, 269496, Note_off_c, 8, 87, 64
10, 269520, Note_on_c, 8, 87, 99
10, 269616, Note_off_c, 8, 87, 64
10, 269640, Note_on_c, 8, 87, 99
10, 269736, Note_off_c, 8, 87, 64
10, 269760, Note_on_c, 8, 88, 99
10, 269856, Note_off_c, 8, 88, 64
10, 269880, Note_on_c, 8, 88, 99
10, 269976, Note_off_c, 8, 88, 64
10, 270000, Note_on_c, 8, 88, 99
10, 270096, Note_off_c, 8, 88, 64
10, 270120, Note_on_c, 8, 88, 99
10, 270216, Note_off_c, 8, 88, 64
10, 270240, Note_on_c, 8, 87, 127
10, 270336, Note_off_c, 8, 87, 64
10, 270360, Note_on_c, 8, 87, 99
10, 270456, Note_off_c, 8, 87, 64
10, 270480, Note_on_c, 8, 87, 99
10, 270576, Note_off_c, 8, 87, 64
10, 270600, Note_on_c, 8, 87, 99
10, 270696, Note_off_c, 8, 87, 64
10, 270720, Note_on_c, 8, 88, 99
10, 270816, Note_off_c, 8, 88, 64
10, 270840, Note_on_c, 8, 88, 99
10, 270936, Note_off_c, 8, 88, 64
10, 270960, Note_on_c, 8, 88, 99
10, 271056, Note_off_c, 8, 88, 64
10, 271080, Note_on_c, 8, 88, 99
10, 271176, Note_off_c, 8, 88, 64
10, 271200, Note_on_c, 8, 87, 127
10, 271296, Note_off_c, 8, 87, 64
10, 271320, Note_on_c, 8, 87, 99
10, 271416, Note_off_c, 8, 87, 64
10, 271440, Note_on_c, 8, 87, 99
10, 271536, Note_off_c, 8, 87, 64
10, 271560, Note_on_c, 8, 87, 99
10, 271656, Note_off_c, 8, 87, 64
10, 271680, Note_on_c, 8, 88, 99
10, 271776, Note_off_c, 8, 88, 64
10, 271800, Note_on_c, 8, 88, 99
10, 271896, Note_off_c, 8, 88, 64
10, 271920, Note_on_c, 8, 88, 99
10, 272016, Note_off_c, 8, 88, 64
10, 272040, Note_on_c, 8, 88, 99
10, 272136, Note_off_c, 8, 88, 64
10, 272160, Note_on_c, 8, 88, 99
10, 272256, Note_off_c, 8, 88, 64
10, 272280, Note_on_c, 8, 88, 99
10, 272376, Note_off_c, 8, 88, 64
10, 272400, Note_on_c, 8, 88, 99
10, 272496, Note_off_c, 8, 88, 64
10, 272520, Note_on_c, 8, 88, 99
10, 272616, Note_off_c, 8, 88, 64
10, 272640, Note_on_c, 8, 76, 127
10, 272640, Note_on_c, 8, 88, 127
10, 272640, Note_on_c, 8, 82, 127
10, 272784, Note_off_c, 8, 82, 64
10, 272784, Note_off_c, 8, 88, 64
10, 272784, Note_off_c, 8, 76, 64
10, 275040, Note_on_c, 8, 76, 127
10, 275040, Note_on_c, 8, 88, 127
10, 275040, Note_on_c, 8, 82, 127
10, 275184, Note_off_c, 8, 82, 64
10, 275184, Note_off_c, 8, 88, 64
10, 275184, Note_off_c, 8, 76, 64
10, 277440, Note_on_c, 8, 67, 127
10, 277560, Note_off_c, 8, 67, 64
10, 277680, Note_on_c, 8, 67, 114
10, 277800, Note_off_c, 8, 67, 64
10, 277800, Note_on_c, 8, 69, 114
10, 277920, Note_off_c, 8, 69, 64
10, 277920, Note_on_c, 8, 72, 127
10, 278040, Note_off_c, 8, 72, 64
10, 278040, Note_on_c, 8, 70, 114
10, 278160, Note_off_c, 8, 70, 64
10, 278160, Note_on_c, 8, 69, 114
10, 278280, Note_off_c, 8, 69, 64
10, 278280, Note_on_c, 8, 67, 114
10, 278400, Note_off_c, 8, 67, 64
10, 278400, Note_on_c, 8, 69, 114
10, 278520, Note_off_c, 8, 69, 64
10, 278640, Note_on_c, 8, 69, 114
10, 278760, Note_off_c, 8, 69, 64
10, 278760, Note_on_c, 8, 70, 114
10, 278880, Note_off_c, 8, 70, 64
10, 278880, Note_on_c, 8, 74, 127
10, 279000, Note_off_c, 8, 74, 64
10, 279000, Note_on_c, 8, 72, 114
10, 279120, Note_off_c, 8, 72, 64
10, 279120, Note_on_c, 8, 70, 114
10, 279240, Note_off_c, 8, 70, 64
10, 279240, Note_on_c, 8, 69, 114
10, 279360, Note_off_c, 8, 69, 64
10, 279360, Note_on_c, 8, 67, 114
10, 279480, Note_off_c, 8, 67, 64
10, 279600, Note_on_c, 8, 67, 114
10, 279720, Note_off_c, 8, 67, 64
10, 279720, Note_on_c, 8, 69, 114
10, 279840, Note_off_c, 8, 69, 64
10, 279840, Note_on_c, 8, 72, 127
10, 279960, Note_off_c, 8, 72, 64
10, 279960, Note_on_c, 8, 70, 114
10, 280080, Note_off_c, 8, 70, 64
10, 280080, Note_on_c, 8, 69, 114
10, 280200, Note_off_c, 8, 69, 64
10, 280200, Note_on_c, 8, 67, 114
10, 280320, Note_off_c, 8, 67, 64
10, 280320, Note_on_c, 8, 69, 127
10, 280680, Note_off_c, 8, 69, 64
10, 280680, Note_on_c, 8, 77, 127
10, 280776, Note_off_c, 8, 77, 64
10, 280800, Note_on_c, 8, 77, 127
10, 282192, Note_off_c, 8, 77, 64
10, 282240, Note_on_c, 8, 76, 127
10, 282360, Note_off_c, 8, 76, 64
10, 284160, Note_on_c, 8, 71, 127
10, 284280, Note_off_c, 8, 71, 64
10, 284400, Note_on_c, 8, 71, 114
10, 284520, Note_off_c, 8, 71, 64
10, 284520, Note_on_c, 8, 72, 114
10, 284640, Note_off_c, 8, 72, 64
10, 284640, Note_on_c, 8, 76, 127
10, 284760, Note_off_c, 8, 76, 64
10, 284760, Note_on_c, 8, 74, 114
10, 284880, Note_off_c, 8, 74, 64
10, 284880, Note_on_c, 8, 72, 114
10, 285000, Note_off_c, 8, 72, 64
10, 285000, Note_on_c, 8, 71, 114
10, 285120, Note_off_c, 8, 71, 64
10, 285120, Note_on_c, 8, 72, 114
10, 285240, Note_off_c, 8, 72, 64
10, 285360, Note_on_c, 8, 72, 114
10, 285480, Note_off_c, 8, 72, 64
10, 285480, Note_on_c, 8, 74, 114
10, 285600, Note_off_c, 8, 74, 64
10, 285600, Note_on_c, 8, 77, 127
10, 285720, Note_off_c, 8, 77, 64
10, 285720, Note_on_c, 8, 76, 114
10, 285840, Note_off_c, 8, 76, 64
10, 285840, Note_on_c, 8, 74, 114
10, 285960, Note_off_c, 8, 74, 64
10, 285960, Note_on_c, 8, 72, 114
10, 286080, Note_off_c, 8, 72, 64
10, 286080, Note_on_c, 8, 71, 114
10, 286200, Note_off_c, 8, 71, 64
10, 286320, Note_on_c, 8, 71, 114
10, 286440, Note_off_c, 8, 71, 64
10, 286440, Note_on_c, 8, 72, 114
10, 286560, Note_off_c, 8, 72, 64
10, 286560, Note_on_c, 8, 76, 127
10, 286680, Note_off_c, 8, 76, 64
10, 286680, Note_on_c, 8, 74, 114
10, 286800, Note_off_c, 8, 74, 64
10, 286800, Note_on_c, 8, 72, 114
10, 286920, Note_off_c, 8, 72, 64
10, 286920, Note_on_c, 8, 71, 114
10, 287040, Note_off_c, 8, 71, 64
10, 287040, Note_on_c, 8, 72, 127
10, 287400, Note_off_c, 8, 72, 64
10, 287400, Note_on_c, 8, 81, 127
10, 287496, Note_off_c, 8, 81, 64
10, 287520, Note_on_c, 8, 81, 127
10, 288912, Note_off_c, 8, 81, 64
10, 288960, Note_on_c, 8, 78, 127
10, 289080, Note_off_c, 8, 78, 64
10, 290880, Note_on_c, 8, 70, 127
10, 291240, Note_off_c, 8, 70, 64
10, 291240, Note_on_c, 8, 79, 127
10, 291336, Note_off_c, 8, 79, 64
10, 291360, Note_on_c, 8, 79, 127
10, 292752, Note_off_c, 8, 79, 64
10, 292800, Note_on_c, 8, 76, 127
10, 292920, Note_off_c, 8, 76, 64
10, 294720, Note_on_c, 8, 68, 127
10, 295080, Note_off_c, 8, 68, 64
10, 295080, Note_on_c, 8, 77, 127
10, 295176, Note_off_c, 8, 77, 64
10, 295200, Note_on_c, 8, 77, 127
10, 296760, Note_off_c, 8, 77, 64
10, 296880, Note_on_c, 8, 74, 127
10, 297000, Note_off_c, 8, 74, 64
10, 297000, Note_on_c, 8, 76, 127
10, 297120, Note_off_c, 8, 76, 64
10, 297120, Note_on_c, 8, 79, 127
10, 297240, Note_off_c, 8, 79, 64
10, 297240, Note_on_c, 8, 77, 127
10, 297360, Note_off_c, 8, 77, 64
10, 297360, Note_on_c, 8, 76, 127
10, 297480, Note_off_c, 8, 76, 64
10, 297480, Note_on_c, 8, 74, 127
10, 297600, Note_off_c, 8, 74, 64
10, 297600, Note_on_c, 8, 76, 127
10, 297720, Note_off_c, 8, 76, 64
10, 297840, Note_on_c, 8, 76, 127
10, 297960, Note_off_c, 8, 76, 64
10, 297960, Note_on_c, 8, 77, 127
10, 298080, Note_off_c, 8, 77, 64
10, 298080, Note_on_c, 8, 81, 127
10, 298200, Note_off_c, 8, 81, 64
10, 298200, Note_on_c, 8, 79, 127
10, 298320, Note_off_c, 8, 79, 64
10, 298320, Note_on_c, 8, 77, 127
10, 298440, Note_off_c, 8, 77, 64
10, 298440, Note_on_c, 8, 76, 127
10, 298560, Note_off_c, 8, 76, 64
10, 298560, Note_on_c, 8, 74, 127
10, 298680, Note_off_c, 8, 74, 64
10, 298800, Note_on_c, 8, 74, 127
10, 298920, Note_off_c, 8, 74, 64
10, 298920, Note_on_c, 8, 76, 127
10, 299040, Note_off_c, 8, 76, 64
10, 299040, Note_on_c, 8, 79, 127
10, 299160, Note_off_c, 8, 79, 64
10, 299160, Note_on_c, 8, 77, 127
10, 299280, Note_off_c, 8, 77, 64
10, 299280, Note_on_c, 8, 76, 127
10, 299400, Note_off_c, 8, 76, 64
10, 299400, Note_on_c, 8, 74, 127
10, 299520, Note_off_c, 8, 74, 64
10, 299520, Note_on_c, 8, 76, 127
10, 299880, Note_off_c, 8, 76, 64
10, 299880, Note_on_c, 8, 84, 127
10, 299976, Note_off_c, 8, 84, 64
10, 300000, Note_on_c, 8, 84, 127
10, 300576, Note_off_c, 8, 84, 64
10, 300720, Note_on_c, 8, 74, 127
10, 300840, Note_off_c, 8, 74, 64
10, 300840, Note_on_c, 8, 76, 127
10, 300960, Note_off_c, 8, 76, 64
10, 300960, Note_on_c, 8, 79, 127
10, 301080, Note_off_c, 8, 79, 64
10, 301080, Note_on_c, 8, 77, 127
10, 301200, Note_off_c, 8, 77, 64
10, 301200, Note_on_c, 8, 76, 127
10, 301320, Note_off_c, 8, 76, 64
10, 301320, Note_on_c, 8, 74, 127
10, 301440, Note_off_c, 8, 74, 64
10, 301440, Note_on_c, 8, 76, 127
10, 301560, Note_off_c, 8, 76, 64
10, 301680, Note_on_c, 8, 76, 127
10, 301800, Note_off_c, 8, 76, 64
10, 301800, Note_on_c, 8, 77, 127
10, 301920, Note_off_c, 8, 77, 64
10, 301920, Note_on_c, 8, 81, 127
10, 302040, Note_off_c, 8, 81, 64
10, 302040, Note_on_c, 8, 79, 127
10, 302160, Note_off_c, 8, 79, 64
10, 302160, Note_on_c, 8, 77, 127
10, 302280, Note_off_c, 8, 77, 64
10, 302280, Note_on_c, 8, 76, 127
10, 302400, Note_off_c, 8, 76, 64
10, 302400, Note_on_c, 8, 74, 127
10, 302520, Note_off_c, 8, 74, 64
10, 302640, Note_on_c, 8, 74, 127
10, 302760, Note_off_c, 8, 74, 64
10, 302760, Note_on_c, 8, 76, 127
10, 302880, Note_off_c, 8, 76, 64
10, 302880, Note_on_c, 8, 79, 127
10, 303000, Note_off_c, 8, 79, 64
10, 303000, Note_on_c, 8, 77, 127
10, 303120, Note_off_c, 8, 77, 64
10, 303120, Note_on_c, 8, 76, 127
10, 303240, Note_off_c, 8, 76, 64
10, 303240, Note_on_c, 8, 74, 127
10, 303360, Note_off_c, 8, 74, 64
10, 303360, Note_on_c, 8, 84, 127
10, 303360, Note_on_c, 8, 76, 127
10, 303360, Note_on_c, 8, 67, 127
10, 303480, Note_off_c, 8, 67, 64
10, 303480, Note_off_c, 8, 76, 64
10, 303480, Note_off_c, 8, 84, 64
10, 304320, Note_on_c, 8, 74, 127
10, 304440, Note_off_c, 8, 74, 64
10, 304560, Note_on_c, 8, 74, 127
10, 304680, Note_off_c, 8, 74, 64
10, 304680, Note_on_c, 8, 76, 127
10, 304800, Note_off_c, 8, 76, 64
10, 304800, Note_on_c, 8, 79, 127
10, 304920, Note_off_c, 8, 79, 64
10, 304920, Note_on_c, 8, 77, 127
10, 305040, Note_off_c, 8, 77, 64
10, 305040, Note_on_c, 8, 76, 127
10, 305160, Note_off_c, 8, 76, 64
10, 305160, Note_on_c, 8, 74, 127
10, 305280, Note_off_c, 8, 74, 64
10, 305280, Note_on_c, 8, 76, 127
10, 305400, Note_off_c, 8, 76, 64
10, 305520, Note_on_c, 8, 76, 127
10, 305640, Note_off_c, 8, 76, 64
10, 305640, Note_on_c, 8, 77, 127
10, 305760, Note_off_c, 8, 77, 64
10, 305760, Note_on_c, 8, 81, 127
10, 305880, Note_off_c, 8, 81, 64
10, 305880, Note_on_c, 8, 79, 127
10, 306000, Note_off_c, 8, 79, 64
10, 306000, Note_on_c, 8, 77, 127
10, 306120, Note_off_c, 8, 77, 64
10, 306120, Note_on_c, 8, 76, 127
10, 306240, Note_off_c, 8, 76, 64
10, 306240, Note_on_c, 8, 74, 127
10, 306360, Note_off_c, 8, 74, 64
10, 306480, Note_on_c, 8, 74, 127
10, 306600, Note_off_c, 8, 74, 64
10, 306600, Note_on_c, 8, 76, 127
10, 306720, Note_off_c, 8, 76, 64
10, 306720, Note_on_c, 8, 79, 127
10, 306840, Note_off_c, 8, 79, 64
10, 306840, Note_on_c, 8, 77, 127
10, 306960, Note_off_c, 8, 77, 64
10, 306960, Note_on_c, 8, 76, 127
10, 307080, Note_off_c, 8, 76, 64
10, 307080, Note_on_c, 8, 74, 127
10, 307200, Note_off_c, 8, 74, 64
10, 307200, Note_on_c, 8, 76, 127
10, 307560, Note_off_c, 8, 76, 64
10, 307560, Note_on_c, 8, 84, 127
10, 307656, Note_off_c, 8, 84, 64
10, 307680, Note_on_c, 8, 84, 127
10, 308256, Note_off_c, 8, 84, 64
10, 308400, Note_on_c, 8, 74, 127
10, 308520, Note_off_c, 8, 74, 64
10, 308520, Note_on_c, 8, 76, 127
10, 308640, Note_off_c, 8, 76, 64
10, 308640, Note_on_c, 8, 79, 127
10, 308760, Note_off_c, 8, 79, 64
10, 308760, Note_on_c, 8, 77, 127
10, 308880, Note_off_c, 8, 77, 64
10, 308880, Note_on_c, 8, 76, 127
10, 309000, Note_off_c, 8, 76, 64
10, 309000, Note_on_c, 8, 74, 127
10, 309120, Note_off_c, 8, 74, 64
10, 309120, Note_on_c, 8, 76, 127
10, 309240, Note_off_c, 8, 76, 64
10, 309360, Note_on_c, 8, 76, 127
10, 309480, Note_off_c, 8, 76, 64
10, 309480, Note_on_c, 8, 77, 127
10, 309600, Note_off_c, 8, 77, 64
10, 309600, Note_on_c, 8, 81, 127
10, 309720, Note_off_c, 8, 81, 64
10, 309720, Note_on_c, 8, 79, 127
10, 309840, Note_off_c, 8, 79, 64
10, 309840, Note_on_c, 8, 77, 127
10, 309960, Note_off_c, 8, 77, 64
10, 309960, Note_on_c, 8, 76, 127
10, 310080, Note_off_c, 8, 76, 64
10, 310080, Note_on_c, 8, 74, 127
10, 310200, Note_off_c, 8, 74, 64
10, 310320, Note_on_c, 8, 74, 127
10, 310440, Note_off_c, 8, 74, 64
10, 310440, Note_on_c, 8, 76, 127
10, 310560, Note_off_c, 8, 76, 64
10, 310560, Note_on_c, 8, 79, 127
10, 310680, Note_off_c, 8, 79, 64
10, 310680, Note_on_c, 8, 77, 127
10, 310800, Note_off_c, 8, 77, 64
10, 310800, Note_on_c, 8, 76, 127
10, 310920, Note_off_c, 8, 76, 64
10, 310920, Note_on_c, 8, 74, 127
10, 311040, Note_off_c, 8, 74, 64
10, 311040, Note_on_c, 8, 84, 127
10, 311040, Note_on_c, 8, 76, 127
10, 311040, Note_on_c, 8, 67, 127
10, 311160, Note_off_c, 8, 67, 64
10, 311160, Note_off_c, 8, 76, 64
10, 311160, Note_off_c, 8, 84, 64
10, 312000, Note_on_c, 8, 81, 127
10, 312120, Note_off_c, 8, 81, 64
10, 312240, Note_on_c, 8, 81, 127
10, 312360, Note_off_c, 8, 81, 64
10, 312360, Note_on_c, 8, 83, 127
10, 312480, Note_off_c, 8, 83, 64
10, 312480, Note_on_c, 8, 86, 127
10, 312600, Note_off_c, 8, 86, 64
10, 312600, Note_on_c, 8, 84, 127
10, 312720, Note_off_c, 8, 84, 64
10, 312720, Note_on_c, 8, 83, 127
10, 312840, Note_off_c, 8, 83, 64
10, 312840, Note_on_c, 8, 81, 127
10, 312960, Note_off_c, 8, 81, 64
10, 312960, Note_on_c, 8, 79, 127
10, 313080, Note_off_c, 8, 79, 64
10, 313200, Note_on_c, 8, 79, 127
10, 313320, Note_off_c, 8, 79, 64
10, 313320, Note_on_c, 8, 81, 127
10, 313440, Note_off_c, 8, 81, 64
10, 313440, Note_on_c, 8, 84, 127
10, 313560, Note_off_c, 8, 84, 64
10, 313560, Note_on_c, 8, 83, 127
10, 313680, Note_off_c, 8, 83, 64
10, 313680, Note_on_c, 8, 81, 127
10, 313800, Note_off_c, 8, 81, 64
10, 313800, Note_on_c, 8, 79, 127
10, 313920, Note_off_c, 8, 79, 64
10, 313920, Note_on_c, 8, 81, 127
10, 314040, Note_off_c, 8, 81, 64
10, 314160, Note_on_c, 8, 81, 127
10, 314280, Note_off_c, 8, 81, 64
10, 314280, Note_on_c, 8, 83, 127
10, 314400, Note_off_c, 8, 83, 64
10, 314400, Note_on_c, 8, 86, 127
10, 314520, Note_off_c, 8, 86, 64
10, 314520, Note_on_c, 8, 84, 127
10, 314640, Note_off_c, 8, 84, 64
10, 314640, Note_on_c, 8, 83, 127
10, 314760, Note_off_c, 8, 83, 64
10, 314760, Note_on_c, 8, 81, 127
10, 314880, Note_off_c, 8, 81, 64
10, 314880, Note_on_c, 8, 81, 127
10, 315120, Note_off_c, 8, 81, 64
10, 315120, Note_on_c, 8, 80, 127
10, 315312, Note_off_c, 8, 80, 64
10, 315360, Note_on_c, 8, 79, 127
10, 315840, Note_off_c, 8, 79, 64
10, 315840, Note_on_c, 8, 78, 127
10, 315960, Note_off_c, 8, 78, 64
10, 316080, Note_on_c, 8, 77, 127
10, 316200, Note_off_c, 8, 77, 64
10, 316200, Note_on_c, 8, 79, 127
10, 316320, Note_off_c, 8, 79, 64
10, 316320, Note_on_c, 8, 83, 127
10, 316440, Note_off_c, 8, 83, 64
10, 316440, Note_on_c, 8, 81, 127
10, 316560, Note_off_c, 8, 81, 64
10, 316560, Note_on_c, 8, 79, 127
10, 316680, Note_off_c, 8, 79, 64
10, 316680, Note_on_c, 8, 77, 127
10, 316800, Note_off_c, 8, 77, 64
10, 316800, Note_on_c, 8, 76, 127
10, 316920, Note_off_c, 8, 76, 64
10, 317040, Note_on_c, 8, 76, 127
10, 317160, Note_off_c, 8, 76, 64
10, 317160, Note_on_c, 8, 77, 127
10, 317280, Note_off_c, 8, 77, 64
10, 317280, Note_on_c, 8, 81, 127
10, 317400, Note_off_c, 8, 81, 64
10, 317400, Note_on_c, 8, 79, 127
10, 317520, Note_off_c, 8, 79, 64
10, 317520, Note_on_c, 8, 77, 127
10, 317640, Note_off_c, 8, 77, 64
10, 317640, Note_on_c, 8, 76, 127
10, 317760, Note_off_c, 8, 76, 64
10, 317760, Note_on_c, 8, 74, 127
10, 317880, Note_off_c, 8, 74, 64
10, 318000, Note_on_c, 8, 74, 127
10, 318120, Note_off_c, 8, 74, 64
10, 318120, Note_on_c, 8, 76, 127
10, 318240, Note_off_c, 8, 76, 64
10, 318240, Note_on_c, 8, 79, 127
10, 318360, Note_off_c, 8, 79, 64
10, 318360, Note_on_c, 8, 77, 127
10, 318480, Note_off_c, 8, 77, 64
10, 318480, Note_on_c, 8, 76, 127
10, 318600, Note_off_c, 8, 76, 64
10, 318600, Note_on_c, 8, 74, 127
10, 318720, Note_off_c, 8, 74, 64
10, 318720, Note_on_c, 8, 84, 127
10, 318720, Note_on_c, 8, 67, 127
10, 318720, Note_on_c, 8, 76, 127
10, 318840, Note_off_c, 8, 76, 64
10, 318840, Note_off_c, 8, 67, 64
10, 318840, Note_off_c, 8, 84, 64
10, 319680, Note_on_c, 8, 81, 127
10, 319800, Note_off_c, 8, 81, 64
10, 319920, Note_on_c, 8, 81, 127
10, 320040, Note_off_c, 8, 81, 64
10, 320040, Note_on_c, 8, 83, 127
10, 320160, Note_off_c, 8, 83, 64
10, 320160, Note_on_c, 8, 86, 127
10, 320280, Note_off_c, 8, 86, 64
10, 320280, Note_on_c, 8, 84, 127
10, 320400, Note_off_c, 8, 84, 64
10, 320400, Note_on_c, 8, 83, 127
10, 320520, Note_off_c, 8, 83, 64
10, 320520, Note_on_c, 8, 81, 127
10, 320640, Note_off_c, 8, 81, 64
10, 320640, Note_on_c, 8, 79, 127
10, 320760, Note_off_c, 8, 79, 64
10, 320880, Note_on_c, 8, 79, 127
10, 321000, Note_off_c, 8, 79, 64
10, 321000, Note_on_c, 8, 81, 127
10, 321120, Note_off_c, 8, 81, 64
10, 321120, Note_on_c, 8, 84, 127
10, 321240, Note_off_c, 8, 84, 64
10, 321240, Note_on_c, 8, 83, 127
10, 321360, Note_off_c, 8, 83, 64
10, 321360, Note_on_c, 8, 81, 127
10, 321480, Note_off_c, 8, 81, 64
10, 321480, Note_on_c, 8, 79, 127
10, 321600, Note_off_c, 8, 79, 64
10, 321600, Note_on_c, 8, 81, 127
10, 321720, Note_off_c, 8, 81, 64
10, 321840, Note_on_c, 8, 81, 127
10, 321960, Note_off_c, 8, 81, 64
10, 321960, Note_on_c, 8, 83, 127
10, 322080, Note_off_c, 8, 83, 64
10, 322080, Note_on_c, 8, 86, 127
10, 322200, Note_off_c, 8, 86, 64
10, 322200, Note_on_c, 8, 84, 127
10, 322320, Note_off_c, 8, 84, 64
10, 322320, Note_on_c, 8, 83, 127
10, 322440, Note_off_c, 8, 83, 64
10, 322440, Note_on_c, 8, 81, 127
10, 322560, Note_off_c, 8, 81, 64
10, 322560, Note_on_c, 8, 81, 127
10, 322800, Note_off_c, 8, 81, 64
10, 322800, Note_on_c, 8, 80, 127
10, 322992, Note_off_c, 8, 80, 64
10, 323040, Note_on_c, 8, 79, 127
10, 323520, Note_off_c, 8, 79, 64
10, 323520, Note_on_c, 8, 78, 127
10, 323640, Note_off_c, 8, 78, 64
10, 323760, Note_on_c, 8, 77, 127
10, 323880, Note_off_c, 8, 77, 64
10, 323880, Note_on_c, 8, 79, 127
10, 324000, Note_off_c, 8, 79, 64
10, 324000, Note_on_c, 8, 83, 127
10, 324120, Note_off_c, 8, 83, 64
10, 324120, Note_on_c, 8, 81, 127
10, 324240, Note_off_c, 8, 81, 64
10, 324240, Note_on_c, 8, 79, 127
10, 324360, Note_off_c, 8, 79, 64
10, 324360, Note_on_c, 8, 77, 127
10, 324480, Note_off_c, 8, 77, 64
10, 324480, Note_on_c, 8, 76, 127
10, 324600, Note_off_c, 8, 76, 64
10, 324720, Note_on_c, 8, 76, 127
10, 324840, Note_off_c, 8, 76, 64
10, 324840, Note_on_c, 8, 77, 127
10, 324960, Note_off_c, 8, 77, 64
10, 324960, Note_on_c, 8, 81, 127
10, 325080, Note_off_c, 8, 81, 64
10, 325080, Note_on_c, 8, 79, 127
10, 325200, Note_off_c, 8, 79, 64
10, 325200, Note_on_c, 8, 77, 127
10, 325320, Note_off_c, 8, 77, 64
10, 325320, Note_on_c, 8, 76, 127
10, 325440, Note_off_c, 8, 76, 64
10, 325440, Note_on_c, 8, 74, 127
10, 325560, Note_off_c, 8, 74, 64
10, 325680, Note_on_c, 8, 74, 127
10, 325800, Note_off_c, 8, 74, 64
10, 325800, Note_on_c, 8, 76, 127
10, 325920, Note_off_c, 8, 76, 64
10, 325920, Note_on_c, 8, 79, 127
10, 326040, Note_off_c, 8, 79, 64
10, 326040, Note_on_c, 8, 77, 127
10, 326160, Note_off_c, 8, 77, 64
10, 326160, Note_on_c, 8, 76, 127
10, 326280, Note_off_c, 8, 76, 64
10, 326280, Note_on_c, 8, 74, 127
10, 326400, Note_off_c, 8, 74, 64
10, 326400, Note_on_c, 8, 76, 127
10, 326400, Note_on_c, 8, 84, 127
10, 326400, Note_on_c, 8, 67, 127
10, 326520, Note_off_c, 8, 67, 64
10, 326520, Note_off_c, 8, 84, 64
10, 326520, Note_off_c, 8, 76, 64
10, 326880, Note_on_c, 8, 81, 120
10, 327360, Note_off_c, 8, 81, 64
10, 327360, Note_on_c, 8, 86, 120
10, 327480, Note_off_c, 8, 86, 64
10, 327840, Note_on_c, 8, 79, 120
10, 328320, Note_off_c, 8, 79, 64
10, 328320, Note_on_c, 8, 84, 120
10, 328440, Note_off_c, 8, 84, 64
10, 328800, Note_on_c, 8, 76, 120
10, 329280, Note_off_c, 8, 76, 64
10, 329280, Note_on_c, 8, 79, 120
10, 329400, Note_off_c, 8, 79, 64
10, 329760, Note_on_c, 8, 71, 120
10, 330240, Note_off_c, 8, 71, 64
10, 330240, Note_on_c, 8, 72, 120
10, 330360, Note_off_c, 8, 72, 64
10, 330480, Note_on_c, 8, 84, 64
10, 330540, Note_off_c, 8, 84, 64
10, 330600, Note_on_c, 8, 84, 64
10, 330660, Note_off_c, 8, 84, 64
10, 330720, Note_on_c, 8, 84, 94
10, 330780, Note_off_c, 8, 84, 64
10, 331440, Note_on_c, 8, 77, 64
10, 331500, Note_off_c, 8, 77, 64
10, 331560, Note_on_c, 8, 77, 64
10, 331620, Note_off_c, 8, 77, 64
10, 331680, Note_on_c, 8, 77, 94
10, 331740, Note_off_c, 8, 77, 64
10, 332400, Note_on_c, 8, 74, 64
10, 332460, Note_off_c, 8, 74, 64
10, 332520, Note_on_c, 8, 74, 64
10, 332580, Note_off_c, 8, 74, 64
10, 332640, Note_on_c, 8, 74, 94
10, 332700, Note_off_c, 8, 74, 64
10, 333360, Note_on_c, 8, 72, 64
10, 333420, Note_off_c, 8, 72, 64
10, 333480, Note_on_c, 8, 72, 64
10, 333540, Note_off_c, 8, 72, 64
10, 333600, Note_on_c, 8, 72, 94
10, 333660, Note_off_c, 8, 72, 64
10, 334080, Note_on_c, 8, 69, 94
10, 334140, Note_off_c, 8, 69, 64
10, 334560, Note_on_c, 8, 81, 120
10, 335040, Note_off_c, 8, 81, 64
10, 335040, Note_on_c, 8, 86, 120
10, 335160, Note_off_c, 8, 86, 64
10, 335520, Note_on_c, 8, 77, 120
10, 336000, Note_off_c, 8, 77, 64
10, 336000, Note_on_c, 8, 82, 120
10, 336120, Note_off_c, 8, 82, 64
10, 336480, Note_on_c, 8, 76, 120
10, 336960, Note_off_c, 8, 76, 64
10, 336960, Note_on_c, 8, 79, 120
10, 337080, Note_off_c, 8, 79, 64
10, 337440, Note_on_c, 8, 73, 120
10, 337920, Note_off_c, 8, 73, 64
10, 337920, Note_on_c, 8, 74, 120
10, 338040, Note_off_c, 8, 74, 64
10, 338160, Note_on_c, 8, 86, 64
10, 338160, Note_on_c, 8, 74, 64
10, 338220, Note_off_c, 8, 74, 64
10, 338220, Note_off_c, 8, 86, 64
10, 338280, Note_on_c, 8, 74, 64
10, 338280, Note_on_c, 8, 86, 64
10, 338340, Note_off_c, 8, 86, 64
10, 338340, Note_off_c, 8, 74, 64
10, 338400, Note_on_c, 8, 74, 64
10, 338400, Note_on_c, 8, 86, 94
10, 338460, Note_off_c, 8, 86, 64
10, 338460, Note_off_c, 8, 74, 64
10, 339120, Note_on_c, 8, 74, 64
10, 339120, Note_on_c, 8, 86, 64
10, 339180, Note_off_c, 8, 86, 64
10, 339180, Note_off_c, 8, 74, 64
10, 339240, Note_on_c, 8, 86, 64
10, 339240, Note_on_c, 8, 74, 64
10, 339300, Note_off_c, 8, 74, 64
10, 339300, Note_off_c, 8, 86, 64
10, 339360, Note_on_c, 8, 74, 64
10, 339360, Note_on_c, 8, 86, 94
10, 339420, Note_off_c, 8, 86, 64
10, 339420, Note_off_c, 8, 74, 64
10, 340080, Note_on_c, 8, 74, 64
10, 340080, Note_on_c, 8, 86, 64
10, 340140, Note_off_c, 8, 86, 64
10, 340140, Note_off_c, 8, 74, 64
10, 340200, Note_on_c, 8, 86, 64
10, 340200, Note_on_c, 8, 74, 64
10, 340260, Note_off_c, 8, 74, 64
10, 340260, Note_off_c, 8, 86, 64
10, 340320, Note_on_c, 8, 74, 64
10, 340320, Note_on_c, 8, 86, 94
10, 340380, Note_off_c, 8, 86, 64
10, 340380, Note_off_c, 8, 74, 64
10, 341040, Note_on_c, 8, 74, 64
10, 341040, Note_on_c, 8, 86, 64
10, 341100, Note_off_c, 8, 86, 64
10, 341100, Note_off_c, 8, 74, 64
10, 341160, Note_on_c, 8, 86, 64
10, 341160, Note_on_c, 8, 74, 64
10, 341220, Note_off_c, 8, 74, 64
10, 341220, Note_off_c, 8, 86, 64
10, 341280, Note_on_c, 8, 74, 64
10, 341280, Note_on_c, 8, 86, 94
10, 341340, Note_off_c, 8, 86, 64
10, 341340, Note_off_c, 8, 74, 64
10, 342000, Note_on_c, 8, 86, 64
10, 342000, Note_on_c, 8, 74, 64
10, 342060, Note_off_c, 8, 74, 64
10, 342060, Note_off_c, 8, 86, 64
10, 342120, Note_on_c, 8, 74, 64
10, 342120, Note_on_c, 8, 86, 64
10, 342180, Note_off_c, 8, 86, 64
10, 342180, Note_off_c, 8, 74, 64
10, 342240, Note_on_c, 8, 74, 64
10, 342240, Note_on_c, 8, 86, 94
10, 342300, Note_off_c, 8, 86, 64
10, 342300, Note_off_c, 8, 74, 64
10, 342960, Note_on_c, 8, 74, 64
10, 342960, Note_on_c, 8, 86, 64
10, 343020, Note_off_c, 8, 86, 64
10, 343020, Note_off_c, 8, 74, 64
10, 343080, Note_on_c, 8, 74, 64
10, 343080, Note_on_c, 8, 86, 64
10, 343140, Note_off_c, 8, 86, 64
10, 343140, Note_off_c, 8, 74, 64
10, 343200, Note_on_c, 8, 74, 64
10, 343200, Note_on_c, 8, 86, 94
10, 343260, Note_off_c, 8, 86, 64
10, 343260, Note_off_c, 8, 74, 64
10, 343920, Note_on_c, 8, 86, 64
10, 343920, Note_on_c, 8, 74, 64
10, 343980, Note_off_c, 8, 74, 64
10, 343980, Note_off_c, 8, 86, 64
10, 344040, Note_on_c, 8, 86, 64
10, 344040, Note_on_c, 8, 74, 64
10, 344100, Note_off_c, 8, 74, 64
10, 344100, Note_off_c, 8, 86, 64
10, 344160, Note_on_c, 8, 74, 64
10, 344160, Note_on_c, 8, 86, 94
10, 344220, Note_off_c, 8, 86, 64
10, 344220, Note_off_c, 8, 74, 64
10, 344880, Note_on_c, 8, 74, 64
10, 344880, Note_on_c, 8, 86, 64
10, 344940, Note_off_c, 8, 86, 64
10, 344940, Note_off_c, 8, 74, 64
10, 345000, Note_on_c, 8, 74, 64
10, 345000, Note_on_c, 8, 86, 64
10, 345060, Note_off_c, 8, 86, 64
10, 345060, Note_off_c, 8, 74, 64
10, 345120, Note_on_c, 8, 86, 94
10, 345120, Note_on_c, 8, 74, 64
10, 345180, Note_off_c, 8, 74, 64
10, 345180, Note_off_c, 8, 86, 64
10, 345840, Note_on_c, 8, 74, 64
10, 345840, Note_on_c, 8, 86, 64
10, 345900, Note_off_c, 8, 86, 64
10, 345900, Note_off_c, 8, 74, 64
10, 345960, Note_on_c, 8, 86, 64
10, 345960, Note_on_c, 8, 74, 64
10, 346020, Note_off_c, 8, 74, 64
10, 346020, Note_off_c, 8, 86, 64
10, 346080, Note_on_c, 8, 86, 94
10, 346080, Note_on_c, 8, 74, 64
10, 346140, Note_off_c, 8, 74, 64
10, 346140, Note_off_c, 8, 86, 64
10, 346800, Note_on_c, 8, 74, 64
10, 346800, Note_on_c, 8, 86, 64
10, 346860, Note_off_c, 8, 86, 64
10, 346860, Note_off_c, 8, 74, 64
10, 346920, Note_on_c, 8, 86, 64
10, 346920, Note_on_c, 8, 74, 64
10, 346980, Note_off_c, 8, 74, 64
10, 346980, Note_off_c, 8, 86, 64
10, 347040, Note_on_c, 8, 74, 64
10, 347040, Note_on_c, 8, 86, 94
10, 347100, Note_off_c, 8, 86, 64
10, 347100, Note_off_c, 8, 74, 64
10, 347760, Note_on_c, 8, 86, 64
10, 347760, Note_on_c, 8, 74, 64
10, 347820, Note_off_c, 8, 74, 64
10, 347820, Note_off_c, 8, 86, 64
10, 347880, Note_on_c, 8, 74, 64
10, 347880, Note_on_c, 8, 86, 64
10, 347940, Note_off_c, 8, 86, 64
10, 347940, Note_off_c, 8, 74, 64
10, 348000, Note_on_c, 8, 86, 94
10, 348000, Note_on_c, 8, 74, 64
10, 348060, Note_off_c, 8, 74, 64
10, 348060, Note_off_c, 8, 86, 64
10, 348720, Note_on_c, 8, 74, 64
10, 348720, Note_on_c, 8, 62, 64
10, 348780, Note_off_c, 8, 62, 64
10, 348780, Note_off_c, 8, 74, 64
10, 348840, Note_on_c, 8, 74, 64
10, 348840, Note_on_c, 8, 62, 64
10, 348900, Note_off_c, 8, 62, 64
10, 348900, Note_off_c, 8, 74, 64
10, 348960, Note_on_c, 8, 64, 64
10, 348960, Note_on_c, 8, 76, 94
10, 349020, Note_off_c, 8, 76, 64
10, 349020, Note_off_c, 8, 64, 64
10, 349680, Note_on_c, 8, 64, 64
10, 349680, Note_on_c, 8, 76, 64
10, 349740, Note_off_c, 8, 76, 64
10, 349740, Note_off_c, 8, 64, 64
10, 349800, Note_on_c, 8, 76, 64
10, 349800, Note_on_c, 8, 64, 64
10, 349860, Note_off_c, 8, 64, 64
10, 349860, Note_off_c, 8, 76, 64
10, 349920, Note_on_c, 8, 64, 64
10, 349920, Note_on_c, 8, 76, 94
10, 349980, Note_off_c, 8, 76, 64
10, 349980, Note_off_c, 8, 64, 64
10, 350640, Note_on_c, 8, 76, 64
10, 350640, Note_on_c, 8, 64, 64
10, 350700, Note_off_c, 8, 64, 64
10, 350700, Note_off_c, 8, 76, 64
10, 350760, Note_on_c, 8, 76, 64
10, 350760, Note_on_c, 8, 64, 64
10, 350820, Note_off_c, 8, 64, 64
10, 350820, Note_off_c, 8, 76, 64
10, 350880, Note_on_c, 8, 76, 94
10, 350880, Note_on_c, 8, 64, 64
10, 350940, Note_off_c, 8, 64, 64
10, 350940, Note_off_c, 8, 76, 64
10, 351600, Note_on_c, 8, 76, 64
10, 351600, Note_on_c, 8, 64, 64
10, 351660, Note_off_c, 8, 64, 64
10, 351660, Note_off_c, 8, 76, 64
10, 351720, Note_on_c, 8, 76, 64
10, 351720, Note_on_c, 8, 64, 64
10, 351780, Note_off_c, 8, 64, 64
10, 351780, Note_off_c, 8, 76, 64
10, 351840, Note_on_c, 8, 76, 94
10, 351840, Note_on_c, 8, 64, 64
10, 351900, Note_off_c, 8, 64, 64
10, 351900, Note_off_c, 8, 76, 64
10, 352560, Note_on_c, 8, 76, 64
10, 352560, Note_on_c, 8, 64, 64
10, 352620, Note_off_c, 8, 64, 64
10, 352620, Note_off_c, 8, 76, 64
10, 352680, Note_on_c, 8, 76, 64
10, 352680, Note_on_c, 8, 64, 64
10, 352740, Note_off_c, 8, 64, 64
10, 352740, Note_off_c, 8, 76, 64
10, 352800, Note_on_c, 8, 76, 94
10, 352800, Note_on_c, 8, 64, 64
10, 352860, Note_off_c, 8, 64, 64
10, 352860, Note_off_c, 8, 76, 64
10, 353520, Note_on_c, 8, 76, 64
10, 353520, Note_on_c, 8, 64, 64
10, 353580, Note_off_c, 8, 64, 64
10, 353580, Note_off_c, 8, 76, 64
10, 353640, Note_on_c, 8, 64, 64
10, 353640, Note_on_c, 8, 76, 64
10, 353700, Note_off_c, 8, 76, 64
10, 353700, Note_off_c, 8, 64, 64
10, 353760, Note_on_c, 8, 76, 94
10, 353760, Note_on_c, 8, 64, 64
10, 353820, Note_off_c, 8, 64, 64
10, 353820, Note_off_c, 8, 76, 64
10, 354480, Note_on_c, 8, 76, 64
10, 354480, Note_on_c, 8, 64, 64
10, 354540, Note_off_c, 8, 64, 64
10, 354540, Note_off_c, 8, 76, 64
10, 354600, Note_on_c, 8, 76, 64
10, 354600, Note_on_c, 8, 64, 64
10, 354660, Note_off_c, 8, 64, 64
10, 354660, Note_off_c, 8, 76, 64
10, 354720, Note_on_c, 8, 76, 94
10, 354720, Note_on_c, 8, 64, 64
10, 354780, Note_off_c, 8, 64, 64
10, 354780, Note_off_c, 8, 76, 64
10, 355440, Note_on_c, 8, 76, 64
10, 355440, Note_on_c, 8, 64, 64
10, 355500, Note_off_c, 8, 64, 64
10, 355500, Note_off_c, 8, 76, 64
10, 355560, Note_on_c, 8, 76, 64
10, 355560, Note_on_c, 8, 64, 64
10, 355620, Note_off_c, 8, 64, 64
10, 355620, Note_off_c, 8, 76, 64
10, 355680, Note_on_c, 8, 76, 94
10, 355680, Note_on_c, 8, 64, 64
10, 355740, Note_off_c, 8, 64, 64
10, 355740, Note_off_c, 8, 76, 64
10, 356400, Note_on_c, 8, 76, 64
10, 356400, Note_on_c, 8, 64, 64
10, 356460, Note_off_c, 8, 64, 64
10, 356460, Note_off_c, 8, 76, 64
10, 356520, Note_on_c, 8, 76, 64
10, 356520, Note_on_c, 8, 64, 64
10, 356580, Note_off_c, 8, 64, 64
10, 356580, Note_off_c, 8, 76, 64
10, 356640, Note_on_c, 8, 76, 94
10, 356640, Note_on_c, 8, 64, 64
10, 356700, Note_off_c, 8, 64, 64
10, 356700, Note_off_c, 8, 76, 64
10, 357360, Note_on_c, 8, 76, 64
10, 357360, Note_on_c, 8, 64, 64
10, 357420, Note_off_c, 8, 64, 64
10, 357420, Note_off_c, 8, 76, 64
10, 357480, Note_on_c, 8, 76, 64
10, 357480, Note_on_c, 8, 64, 64
10, 357540, Note_off_c, 8, 64, 64
10, 357540, Note_off_c, 8, 76, 64
10, 357600, Note_on_c, 8, 76, 94
10, 357600, Note_on_c, 8, 64, 64
10, 357660, Note_off_c, 8, 64, 64
10, 357660, Note_off_c, 8, 76, 64
10, 358320, Note_on_c, 8, 64, 64
10, 358380, Note_off_c, 8, 64, 64
10, 358440, Note_on_c, 8, 64, 64
10, 358500, Note_off_c, 8, 64, 64
10, 358560, Note_on_c, 8, 64, 64
10, 358620, Note_off_c, 8, 64, 64
10, 359280, Note_on_c, 8, 64, 64
10, 359340, Note_off_c, 8, 64, 64
10, 359400, Note_on_c, 8, 64, 64
10, 359460, Note_off_c, 8, 64, 64
10, 359520, Note_on_c, 8, 64, 64
10, 359580, Note_off_c, 8, 64, 64
10, 360240, Note_on_c, 8, 64, 64
10, 360300, Note_off_c, 8, 64, 64
10, 360360, Note_on_c, 8, 64, 64
10, 360420, Note_off_c, 8, 64, 64
10, 360480, Note_on_c, 8, 64, 64
10, 360540, Note_off_c, 8, 64, 64
10, 361200, Note_on_c, 8, 64, 64
10, 361260, Note_off_c, 8, 64, 64
10, 361320, Note_on_c, 8, 64, 64
10, 361380, Note_off_c, 8, 64, 64
10, 361440, Note_on_c, 8, 64, 64
10, 361500, Note_off_c, 8, 64, 64
10, 361920, Note_on_c, 8, 65, 40
10, 361980, Note_off_c, 8, 65, 64
10, 362160, Note_on_c, 8, 65, 40
10, 362220, Note_off_c, 8, 65, 64
10, 362280, Note_on_c, 8, 65, 40
10, 362340, Note_off_c, 8, 65, 64
10, 362400, Note_on_c, 8, 65, 40
10, 362520, Note_off_c, 8, 65, 64
10, 363840, Note_on_c, 8, 63, 40
10, 363900, Note_off_c, 8, 63, 64
10, 364080, Note_on_c, 8, 63, 40
10, 364140, Note_off_c, 8, 63, 64
10, 364200, Note_on_c, 8, 63, 40
10, 364260, Note_off_c, 8, 63, 64
10, 364320, Note_on_c, 8, 63, 40
10, 364440, Note_off_c, 8, 63, 64
10, 370080, Note_on_c, 8, 74, 48
10, 370440, Note_off_c, 8, 74, 64
10, 370440, Note_on_c, 8, 82, 48
10, 370536, Note_off_c, 8, 82, 64
10, 370560, Note_on_c, 8, 74, 48
10, 370920, Note_off_c, 8, 74, 64
10, 370920, Note_on_c, 8, 82, 48
10, 371016, Note_off_c, 8, 82, 64
10, 372480, Note_on_c, 8, 65, 40
10, 372540, Note_off_c, 8, 65, 64
10, 372720, Note_on_c, 8, 65, 40
10, 372780, Note_off_c, 8, 65, 64
10, 372840, Note_on_c, 8, 65, 40
10, 372900, Note_off_c, 8, 65, 64
10, 372960, Note_on_c, 8, 65, 40
10, 373080, Note_off_c, 8, 65, 64
10, 374400, Note_on_c, 8, 63, 40
10, 374460, Note_off_c, 8, 63, 64
10, 374640, Note_on_c, 8, 63, 40
10, 374700, Note_off_c, 8, 63, 64
10, 374760, Note_on_c, 8, 63, 40
10, 374820, Note_off_c, 8, 63, 64
10, 374880, Note_on_c, 8, 63, 40
10, 375000, Note_off_c, 8, 63, 64
10, 380640, Note_on_c, 8, 74, 62
10, 381000, Note_off_c, 8, 74, 64
10, 381000, Note_on_c, 8, 83, 62
10, 381096, Note_off_c, 8, 83, 64
10, 381120, Note_on_c, 8, 74, 62
10, 381480, Note_off_c, 8, 74, 64
10, 381480, Note_on_c, 8, 83, 62
10, 381576, Note_off_c, 8, 83, 64
10, 383040, Note_on_c, 8, 80, 127
10, 383040, Note_on_c, 8, 76, 127
10, 383040, Note_on_c, 8, 88, 127
10, 383208, Note_off_c, 8, 88, 64
10, 383208, Note_off_c, 8, 76, 64
10, 383208, Note_off_c, 8, 80, 64
10, 385440, Note_on_c, 8, 86, 127
10, 385440, Note_on_c, 8, 76, 127
10, 385440, Note_on_c, 8, 83, 127
10, 385608, Note_off_c, 8, 83, 64
10, 385608, Note_off_c, 8, 76, 64
10, 385608, Note_off_c, 8, 86, 64
10, 387840, Note_on_c, 8, 71, 127
10, 387960, Note_off_c, 8, 71, 64
10, 388080, Note_on_c, 8, 71, 127
10, 388200, Note_off_c, 8, 71, 64
10, 388200, Note_on_c, 8, 73, 127
10, 388320, Note_off_c, 8, 73, 64
10, 388320, Note_on_c, 8, 76, 127
10, 388440, Note_off_c, 8, 76, 64
10, 388440, Note_on_c, 8, 74, 127
10, 388560, Note_off_c, 8, 74, 64
10, 388560, Note_on_c, 8, 73, 127
10, 388680, Note_off_c, 8, 73, 64
10, 388680, Note_on_c, 8, 71, 127
10, 388800, Note_off_c, 8, 71, 64
10, 388800, Note_on_c, 8, 73, 127
10, 388920, Note_off_c, 8, 73, 64
10, 389040, Note_on_c, 8, 73, 127
10, 389160, Note_off_c, 8, 73, 64
10, 389160, Note_on_c, 8, 74, 127
10, 389280, Note_off_c, 8, 74, 64
10, 389280, Note_on_c, 8, 78, 127
10, 389400, Note_off_c, 8, 78, 64
10, 389400, Note_on_c, 8, 76, 127
10, 389520, Note_off_c, 8, 76, 64
10, 389520, Note_on_c, 8, 74, 127
10, 389640, Note_off_c, 8, 74, 64
10, 389640, Note_on_c, 8, 73, 127
10, 389760, Note_off_c, 8, 73, 64
10, 389760, Note_on_c, 8, 71, 127
10, 389880, Note_off_c, 8, 71, 64
10, 390000, Note_on_c, 8, 71, 127
10, 390120, Note_off_c, 8, 71, 64
10, 390120, Note_on_c, 8, 73, 127
10, 390240, Note_off_c, 8, 73, 64
10, 390240, Note_on_c, 8, 76, 127
10, 390360, Note_off_c, 8, 76, 64
10, 390360, Note_on_c, 8, 74, 127
10, 390480, Note_off_c, 8, 74, 64
10, 390480, Note_on_c, 8, 73, 127
10, 390600, Note_off_c, 8, 73, 64
10, 390600, Note_on_c, 8, 71, 127
10, 390720, Note_off_c, 8, 71, 64
10, 390720, Note_on_c, 8, 73, 127
10, 391080, Note_off_c, 8, 73, 64
10, 391080, Note_on_c, 8, 81, 127
10, 391176, Note_off_c, 8, 81, 64
10, 391200, Note_on_c, 8, 81, 127
10, 391776, Note_off_c, 8, 81, 64
10, 391920, Note_on_c, 8, 71, 127
10, 392040, Note_off_c, 8, 71, 64
10, 392040, Note_on_c, 8, 73, 127
10, 392160, Note_off_c, 8, 73, 64
10, 392160, Note_on_c, 8, 76, 127
10, 392280, Note_off_c, 8, 76, 64
10, 392280, Note_on_c, 8, 74, 127
10, 392400, Note_off_c, 8, 74, 64
10, 392400, Note_on_c, 8, 73, 127
10, 392520, Note_off_c, 8, 73, 64
10, 392520, Note_on_c, 8, 71, 127
10, 392640, Note_off_c, 8, 71, 64
10, 392640, Note_on_c, 8, 73, 127
10, 392760, Note_off_c, 8, 73, 64
10, 392880, Note_on_c, 8, 73, 127
10, 393000, Note_off_c, 8, 73, 64
10, 393000, Note_on_c, 8, 74, 127
10, 393120, Note_off_c, 8, 74, 64
10, 393120, Note_on_c, 8, 78, 127
10, 393240, Note_off_c, 8, 78, 64
10, 393240, Note_on_c, 8, 76, 127
10, 393360, Note_off_c, 8, 76, 64
10, 393360, Note_on_c, 8, 74, 127
10, 393480, Note_off_c, 8, 74, 64
10, 393480, Note_on_c, 8, 73, 127
10, 393600, Note_off_c, 8, 73, 64
10, 393600, Note_on_c, 8, 71, 127
10, 393720, Note_off_c, 8, 71, 64
10, 393840, Note_on_c, 8, 71, 127
10, 393960, Note_off_c, 8, 71, 64
10, 393960, Note_on_c, 8, 73, 127
10, 394080, Note_off_c, 8, 73, 64
10, 394080, Note_on_c, 8, 76, 127
10, 394200, Note_off_c, 8, 76, 64
10, 394200, Note_on_c, 8, 74, 127
10, 394320, Note_off_c, 8, 74, 64
10, 394320, Note_on_c, 8, 73, 127
10, 394440, Note_off_c, 8, 73, 64
10, 394440, Note_on_c, 8, 71, 127
10, 394560, Note_off_c, 8, 71, 64
10, 394560, Note_on_c, 8, 73, 127
10, 394560, Note_on_c, 8, 81, 127
10, 394560, Note_on_c, 8, 64, 127
10, 394680, Note_off_c, 8, 64, 64
10, 394680, Note_off_c, 8, 81, 64
10, 394680, Note_off_c, 8, 73, 64
10, 395520, Note_on_c, 8, 71, 127
10, 395640, Note_off_c, 8, 71, 64
10, 395760, Note_on_c, 8, 71, 127
10, 395880, Note_off_c, 8, 71, 64
10, 395880, Note_on_c, 8, 73, 127
10, 396000, Note_off_c, 8, 73, 64
10, 396000, Note_on_c, 8, 76, 127
10, 396120, Note_off_c, 8, 76, 64
10, 396120, Note_on_c, 8, 74, 127
10, 396240, Note_off_c, 8, 74, 64
10, 396240, Note_on_c, 8, 73, 127
10, 396360, Note_off_c, 8, 73, 64
10, 396360, Note_on_c, 8, 71, 127
10, 396480, Note_off_c, 8, 71, 64
10, 396480, Note_on_c, 8, 73, 127
10, 396600, Note_off_c, 8, 73, 64
10, 396720, Note_on_c, 8, 73, 127
10, 396840, Note_off_c, 8, 73, 64
10, 396840, Note_on_c, 8, 74, 127
10, 396960, Note_off_c, 8, 74, 64
10, 396960, Note_on_c, 8, 78, 127
10, 397080, Note_off_c, 8, 78, 64
10, 397080, Note_on_c, 8, 76, 127
10, 397200, Note_off_c, 8, 76, 64
10, 397200, Note_on_c, 8, 74, 127
10, 397320, Note_off_c, 8, 74, 64
10, 397320, Note_on_c, 8, 73, 127
10, 397440, Note_off_c, 8, 73, 64
10, 397440, Note_on_c, 8, 71, 127
10, 397560, Note_off_c, 8, 71, 64
10, 397680, Note_on_c, 8, 71, 127
10, 397800, Note_off_c, 8, 71, 64
10, 397800, Note_on_c, 8, 73, 127
10, 397920, Note_off_c, 8, 73, 64
10, 397920, Note_on_c, 8, 76, 127
10, 398040, Note_off_c, 8, 76, 64
10, 398040, Note_on_c, 8, 74, 127
10, 398160, Note_off_c, 8, 74, 64
10, 398160, Note_on_c, 8, 73, 127
10, 398280, Note_off_c, 8, 73, 64
10, 398280, Note_on_c, 8, 71, 127
10, 398400, Note_off_c, 8, 71, 64
10, 398400, Note_on_c, 8, 73, 127
10, 398760, Note_off_c, 8, 73, 64
10, 398760, Note_on_c, 8, 81, 127
10, 398856, Note_off_c, 8, 81, 64
10, 398880, Note_on_c, 8, 81, 127
10, 399456, Note_off_c, 8, 81, 64
10, 399600, Note_on_c, 8, 71, 127
10, 399720, Note_off_c, 8, 71, 64
10, 399720, Note_on_c, 8, 73, 127
10, 399840, Note_off_c, 8, 73, 64
10, 399840, Note_on_c, 8, 76, 127
10, 399960, Note_off_c, 8, 76, 64
10, 399960, Note_on_c, 8, 74, 127
10, 400080, Note_off_c, 8, 74, 64
10, 400080, Note_on_c, 8, 73, 127
10, 400200, Note_off_c, 8, 73, 64
10, 400200, Note_on_c, 8, 71, 127
10, 400320, Note_off_c, 8, 71, 64
10, 400320, Note_on_c, 8, 73, 127
10, 400440, Note_off_c, 8, 73, 64
10, 400560, Note_on_c, 8, 73, 127
10, 400680, Note_off_c, 8, 73, 64
10, 400680, Note_on_c, 8, 74, 127
10, 400800, Note_off_c, 8, 74, 64
10, 400800, Note_on_c, 8, 78, 127
10, 400920, Note_off_c, 8, 78, 64
10, 400920, Note_on_c, 8, 76, 127
10, 401040, Note_off_c, 8, 76, 64
10, 401040, Note_on_c, 8, 74, 127
10, 401160, Note_off_c, 8, 74, 64
10, 401160, Note_on_c, 8, 73, 127
10, 401280, Note_off_c, 8, 73, 64
10, 401280, Note_on_c, 8, 71, 127
10, 401400, Note_off_c, 8, 71, 64
10, 401520, Note_on_c, 8, 71, 127
10, 401640, Note_off_c, 8, 71, 64
10, 401640, Note_on_c, 8, 73, 127
10, 401760, Note_off_c, 8, 73, 64
10, 401760, Note_on_c, 8, 76, 127
10, 401880, Note_off_c, 8, 76, 64
10, 401880, Note_on_c, 8, 74, 127
10, 402000, Note_off_c, 8, 74, 64
10, 402000, Note_on_c, 8, 73, 127
10, 402120, Note_off_c, 8, 73, 64
10, 402120, Note_on_c, 8, 71, 127
10, 402240, Note_off_c, 8, 71, 64
10, 402240, Note_on_c, 8, 64, 127
10, 402240, Note_on_c, 8, 81, 127
10, 402240, Note_on_c, 8, 73, 127
10, 402360, Note_off_c, 8, 73, 64
10, 402360, Note_off_c, 8, 81, 64
10, 402360, Note_off_c, 8, 64, 64
10, 403320, Note_on_c, 8, 64, 127
10, 403320, Note_on_c, 8, 81, 127
10, 403320, Note_on_c, 8, 73, 127
10, 403440, Note_off_c, 8, 73, 64
10, 403440, Note_off_c, 8, 81, 64
10, 403440, Note_off_c, 8, 64, 64
10, 404400, Note_on_c, 8, 64, 127
10, 404400, Note_on_c, 8, 88, 127
10, 404400, Note_on_c, 8, 76, 127
10, 404520, Note_off_c, 8, 76, 64
10, 404520, Note_off_c, 8, 88, 64
10, 404520, Note_off_c, 8, 64, 64
10, 405480, Note_on_c, 8, 64, 127
10, 405480, Note_on_c, 8, 88, 127
10, 405480, Note_on_c, 8, 76, 127
10, 405600, Note_off_c, 8, 76, 64
10, 405600, Note_off_c, 8, 88, 64
10, 405600, Note_off_c, 8, 64, 64
10, 406560, Note_on_c, 8, 64, 127
10, 406560, Note_on_c, 8, 85, 127
10, 406560, Note_on_c, 8, 76, 127
10, 406680, Note_off_c, 8, 76, 64
10, 406680, Note_off_c, 8, 85, 64
10, 406680, Note_off_c, 8, 64, 64
10, 407040, Note_on_c, 8, 64, 127
10, 407040, Note_on_c, 8, 85, 127
10, 407040, Note_on_c, 8, 76, 127
10, 407160, Note_off_c, 8, 76, 64
10, 407160, Note_off_c, 8, 85, 64
10, 407160, Note_off_c, 8, 64, 64
10, 407520, Note_on_c, 8, 76, 127
10, 407520, Note_on_c, 8, 64, 127
10, 407520, Note_on_c, 8, 85, 127
10, 407640, Note_off_c, 8, 85, 64
10, 407640, Note_off_c, 8, 64, 64
10, 407640, Note_off_c, 8, 76, 64
10, 408000, Note_on_c, 8, 85, 127
10, 408000, Note_on_c, 8, 64, 127
10, 408000, Note_on_c, 8, 76, 127
10, 408120, Note_off_c, 8, 76, 64
10, 408120, Note_off_c, 8, 64, 64
10, 408120, Note_off_c, 8, 85, 64
10, 408480, Note_on_c, 8, 76, 127
10, 408480, Note_on_c, 8, 68, 127
10, 408480, Note_on_c, 8, 83, 127
10, 408600, Note_off_c, 8, 83, 64
10, 408600, Note_off_c, 8, 68, 64
10, 408600, Note_off_c, 8, 76, 64
10, 408960, Note_on_c, 8, 83, 127
10, 408960, Note_on_c, 8, 68, 127
10, 408960, Note_on_c, 8, 76, 127
10, 409080, Note_off_c, 8, 76, 64
10, 409080, Note_off_c, 8, 68, 64
10, 409080, Note_off_c, 8, 83, 64
10, 409440, Note_on_c, 8, 76, 127
10, 409440, Note_on_c, 8, 68, 127
10, 409440, Note_on_c, 8, 83, 127
10, 409560, Note_off_c, 8, 83, 64
10, 409560, Note_off_c, 8, 68, 64
10, 409560, Note_off_c, 8, 76, 64
10, 409920, Note_on_c, 8, 83, 127
10, 409920, Note_on_c, 8, 68, 127
10, 409920, Note_on_c, 8, 76, 127
10, 410040, Note_off_c, 8, 76, 64
10, 410040, Note_off_c, 8, 68, 64
10, 410040, Note_off_c, 8, 83, 64
10, 410400, Note_on_c, 8, 73, 127
10, 410400, Note_on_c, 8, 81, 127
10, 410400, Note_on_c, 8, 64, 127
10, 410520, Note_off_c, 8, 64, 64
10, 410520, Note_off_c, 8, 81, 64
10, 410520, Note_off_c, 8, 73, 64
10, 411480, Note_on_c, 8, 73, 127
10, 411480, Note_on_c, 8, 81, 127
10, 411480, Note_on_c, 8, 64, 127
10, 411600, Note_off_c, 8, 64, 64
10, 411600, Note_off_c, 8, 81, 64
10, 411600, Note_off_c, 8, 73, 64
10, 412560, Note_on_c, 8, 64, 127
10, 412560, Note_on_c, 8, 88, 127
10, 412560, Note_on_c, 8, 76, 127
10, 412680, Note_off_c, 8, 76, 64
10, 412680, Note_off_c, 8, 88, 64
10, 412680, Note_off_c, 8, 64, 64
10, 413640, Note_on_c, 8, 76, 127
10, 413640, Note_on_c, 8, 88, 127
10, 413640, Note_on_c, 8, 64, 127
10, 413760, Note_off_c, 8, 64, 64
10, 413760, Note_off_c, 8, 88, 64
10, 413760, Note_off_c, 8, 76, 64
10, 414720, Note_on_c, 8, 85, 100
10, 414816, Note_off_c, 8, 85, 64
10, 414840, Note_on_c, 8, 85, 100
10, 414936, Note_off_c, 8, 85, 64
10, 414960, Note_on_c, 8, 85, 100
10, 415056, Note_off_c, 8, 85, 64
10, 415080, Note_on_c, 8, 85, 100
10, 415176, Note_off_c, 8, 85, 64
10, 415200, Note_on_c, 8, 85, 100
10, 415296, Note_off_c, 8, 85, 64
10, 415320, Note_on_c, 8, 85, 100
10, 415416, Note_off_c, 8, 85, 64
10, 415440, Note_on_c, 8, 83, 100
10, 415536, Note_off_c, 8, 83, 64
10, 415560, Note_on_c, 8, 83, 100
10, 415656, Note_off_c, 8, 83, 64
10, 415680, Note_on_c, 8, 81, 100
10, 415776, Note_off_c, 8, 81, 64
10, 415800, Note_on_c, 8, 81, 100
10, 415896, Note_off_c, 8, 81, 64
10, 415920, Note_on_c, 8, 85, 100
10, 416016, Note_off_c, 8, 85, 64
10, 416040, Note_on_c, 8, 85, 100
10, 416136, Note_off_c, 8, 85, 64
10, 416160, Note_on_c, 8, 83, 100
10, 416256, Note_off_c, 8, 83, 64
10, 416280, Note_on_c, 8, 83, 100
10, 416376, Note_off_c, 8, 83, 64
10, 416400, Note_on_c, 8, 81, 100
10, 416496, Note_off_c, 8, 81, 64
10, 416520, Note_on_c, 8, 81, 100
10, 416616, Note_off_c, 8, 81, 64
10, 416640, Note_on_c, 8, 83, 100
10, 416736, Note_off_c, 8, 83, 64
10, 416760, Note_on_c, 8, 83, 100
10, 416856, Note_off_c, 8, 83, 64
10, 416880, Note_on_c, 8, 81, 100
10, 416976, Note_off_c, 8, 81, 64
10, 417000, Note_on_c, 8, 81, 100
10, 417096, Note_off_c, 8, 81, 64
10, 417120, Note_on_c, 8, 80, 100
10, 417216, Note_off_c, 8, 80, 64
10, 417240, Note_on_c, 8, 80, 100
10, 417336, Note_off_c, 8, 80, 64
10, 417360, Note_on_c, 8, 78, 100
10, 417456, Note_off_c, 8, 78, 64
10, 417480, Note_on_c, 8, 78, 100
10, 417576, Note_off_c, 8, 78, 64
10, 417600, Note_on_c, 8, 76, 100
10, 417696, Note_off_c, 8, 76, 64
10, 417720, Note_on_c, 8, 76, 100
10, 417816, Note_off_c, 8, 76, 64
10, 417840, Note_on_c, 8, 74, 100
10, 417936, Note_off_c, 8, 74, 64
10, 417960, Note_on_c, 8, 74, 100
10, 418056, Note_off_c, 8, 74, 64
10, 418080, Note_on_c, 8, 73, 100
10, 418176, Note_off_c, 8, 73, 64
10, 418200, Note_on_c, 8, 73, 100
10, 418296, Note_off_c, 8, 73, 64
10, 418320, Note_on_c, 8, 71, 100
10, 418416, Note_off_c, 8, 71, 64
10, 418440, Note_on_c, 8, 71, 100
10, 418536, Note_off_c, 8, 71, 64
10, 418560, Note_on_c, 8, 69, 80
10, 418656, Note_off_c, 8, 69, 64
10, 418800, Note_on_c, 8, 69, 80
10, 418920, Note_off_c, 8, 69, 64
10, 418920, Note_on_c, 8, 71, 80
10, 419040, Note_off_c, 8, 71, 64
10, 419040, Note_on_c, 8, 74, 80
10, 419160, Note_off_c, 8, 74, 64
10, 419160, Note_on_c, 8, 73, 80
10, 419280, Note_off_c, 8, 73, 64
10, 419280, Note_on_c, 8, 71, 80
10, 419400, Note_off_c, 8, 71, 64
10, 419400, Note_on_c, 8, 69, 80
10, 419520, Note_off_c, 8, 69, 64
10, 419520, Note_on_c, 8, 76, 80
10, 420000, Note_off_c, 8, 76, 64
10, 420000, Note_on_c, 8, 74, 80
10, 420480, Note_off_c, 8, 74, 64
10, 420480, Note_on_c, 8, 73, 80
10, 420960, Note_off_c, 8, 73, 64
10, 420960, Note_on_c, 8, 71, 80
10, 421440, Note_off_c, 8, 71, 64
10, 421440, Note_on_c, 8, 69, 80
10, 421920, Note_off_c, 8, 69, 64
10, 421920, Note_on_c, 8, 71, 80
10, 422400, Note_off_c, 8, 71, 64
10, 422400, Note_on_c, 8, 73, 80
10, 422496, Note_off_c, 8, 73, 64
10, 422640, Note_on_c, 8, 69, 80
10, 422760, Note_off_c, 8, 69, 64
10, 422760, Note_on_c, 8, 71, 80
10, 422880, Note_off_c, 8, 71, 64
10, 422880, Note_on_c, 8, 74, 80
10, 423000, Note_off_c, 8, 74, 64
10, 423000, Note_on_c, 8, 73, 80
10, 423120, Note_off_c, 8, 73, 64
10, 423120, Note_on_c, 8, 71, 80
10, 423240, Note_off_c, 8, 71, 64
10, 423240, Note_on_c, 8, 69, 80
10, 423360, Note_off_c, 8, 69, 64
10, 423360, Note_on_c, 8, 76, 80
10, 423840, Note_off_c, 8, 76, 64
10, 423840, Note_on_c, 8, 74, 80
10, 424320, Note_off_c, 8, 74, 64
10, 424320, Note_on_c, 8, 73, 80
10, 424800, Note_off_c, 8, 73, 64
10, 424800, Note_on_c, 8, 70, 80
10, 425280, Note_off_c, 8, 70, 64
10, 425280, Note_on_c, 8, 69, 80
10, 425760, Note_off_c, 8, 69, 64
10, 425760, Note_on_c, 8, 73, 80
10, 426240, Note_off_c, 8, 73, 64
10, 426240, Note_on_c, 8, 69, 110
10, 426336, Note_off_c, 8, 69, 64
10, 426480, Note_on_c, 8, 74, 80
10, 426600, Note_off_c, 8, 74, 64
10, 426600, Note_on_c, 8, 76, 80
10, 426720, Note_off_c, 8, 76, 64
10, 426720, Note_on_c, 8, 79, 80
10, 426840, Note_off_c, 8, 79, 64
10, 426840, Note_on_c, 8, 77, 80
10, 426960, Note_off_c, 8, 77, 64
10, 426960, Note_on_c, 8, 76, 80
10, 427080, Note_off_c, 8, 76, 64
10, 427080, Note_on_c, 8, 74, 80
10, 427200, Note_off_c, 8, 74, 64
10, 427200, Note_on_c, 8, 81, 80
10, 427680, Note_off_c, 8, 81, 64
10, 427680, Note_on_c, 8, 79, 80
10, 428160, Note_off_c, 8, 79, 64
10, 428160, Note_on_c, 8, 77, 80
10, 428640, Note_off_c, 8, 77, 64
10, 428640, Note_on_c, 8, 76, 80
10, 429120, Note_off_c, 8, 76, 64
10, 429120, Note_on_c, 8, 74, 80
10, 429600, Note_off_c, 8, 74, 64
10, 429600, Note_on_c, 8, 76, 80
10, 430080, Note_off_c, 8, 76, 64
10, 430080, Note_on_c, 8, 77, 110
10, 430176, Note_off_c, 8, 77, 64
10, 430320, Note_on_c, 8, 74, 80
10, 430440, Note_off_c, 8, 74, 64
10, 430440, Note_on_c, 8, 76, 80
10, 430560, Note_off_c, 8, 76, 64
10, 430560, Note_on_c, 8, 79, 80
10, 430680, Note_off_c, 8, 79, 64
10, 430680, Note_on_c, 8, 77, 80
10, 430800, Note_off_c, 8, 77, 64
10, 430800, Note_on_c, 8, 76, 80
10, 430920, Note_off_c, 8, 76, 64
10, 430920, Note_on_c, 8, 74, 80
10, 431040, Note_off_c, 8, 74, 64
10, 431040, Note_on_c, 8, 81, 80
10, 431520, Note_off_c, 8, 81, 64
10, 431520, Note_on_c, 8, 79, 80
10, 432000, Note_off_c, 8, 79, 64
10, 432000, Note_on_c, 8, 77, 80
10, 432480, Note_off_c, 8, 77, 64
10, 432480, Note_on_c, 8, 76, 80
10, 432960, Note_off_c, 8, 76, 64
10, 432960, Note_on_c, 8, 74, 80
10, 433440, Note_off_c, 8, 74, 64
10, 433440, Note_on_c, 8, 76, 80
10, 433920, Note_off_c, 8, 76, 64
10, 433920, Note_on_c, 8, 65, 110
10, 433920, Note_on_c, 8, 77, 110
10, 434034, Note_off_c, 8, 77, 64
10, 434034, Note_off_c, 8, 65, 64
10, 434280, Note_on_c, 8, 77, 80
10, 434280, Note_on_c, 8, 65, 80
10, 434394, Note_off_c, 8, 65, 64
10, 434394, Note_off_c, 8, 77, 64
10, 434400, Note_on_c, 8, 65, 80
10, 434400, Note_on_c, 8, 77, 80
10, 434514, Note_off_c, 8, 77, 64
10, 434514, Note_off_c, 8, 65, 64
10, 434760, Note_on_c, 8, 77, 80
10, 434760, Note_on_c, 8, 65, 80
10, 434874, Note_off_c, 8, 65, 64
10, 434874, Note_off_c, 8, 77, 64
10, 434880, Note_on_c, 8, 65, 80
10, 434880, Note_on_c, 8, 77, 80
10, 434994, Note_off_c, 8, 77, 64
10, 434994, Note_off_c, 8, 65, 64
10, 435240, Note_on_c, 8, 77, 80
10, 435240, Note_on_c, 8, 65, 80
10, 435354, Note_off_c, 8, 65, 64
10, 435354, Note_off_c, 8, 77, 64
10, 435360, Note_on_c, 8, 77, 80
10, 435360, Note_on_c, 8, 65, 80
10, 435474, Note_off_c, 8, 65, 64
10, 435474, Note_off_c, 8, 77, 64
10, 435720, Note_on_c, 8, 77, 80
10, 435720, Note_on_c, 8, 65, 80
10, 435834, Note_off_c, 8, 65, 64
10, 435834, Note_off_c, 8, 77, 64
10, 435840, Note_on_c, 8, 67, 80
10, 435840, Note_on_c, 8, 79, 80
10, 435954, Note_off_c, 8, 79, 64
10, 435954, Note_off_c, 8, 67, 64
10, 436200, Note_on_c, 8, 79, 80
10, 436200, Note_on_c, 8, 67, 80
10, 436314, Note_off_c, 8, 67, 64
10, 436314, Note_off_c, 8, 79, 64
10, 436320, Note_on_c, 8, 67, 80
10, 436320, Note_on_c, 8, 79, 80
10, 436434, Note_off_c, 8, 79, 64
10, 436434, Note_off_c, 8, 67, 64
10, 436680, Note_on_c, 8, 67, 80
10, 436680, Note_on_c, 8, 79, 80
10, 436794, Note_off_c, 8, 79, 64
10, 436794, Note_off_c, 8, 67, 64
10, 436800, Note_on_c, 8, 67, 80
10, 436800, Note_on_c, 8, 79, 80
10, 436914, Note_off_c, 8, 79, 64
10, 436914, Note_off_c, 8, 67, 64
10, 437160, Note_on_c, 8, 79, 80
10, 437160, Note_on_c, 8, 67, 80
10, 437274, Note_off_c, 8, 67, 64
10, 437274, Note_off_c, 8, 79, 64
10, 437280, Note_on_c, 8, 67, 80
10, 437280, Note_on_c, 8, 79, 80
10, 437394, Note_off_c, 8, 79, 64
10, 437394, Note_off_c, 8, 67, 64
10, 437640, Note_on_c, 8, 67, 80
10, 437640, Note_on_c, 8, 79, 80
10, 437754, Note_off_c, 8, 79, 64
10, 437754, Note_off_c, 8, 67, 64
10, 437760, Note_on_c, 8, 77, 110
10, 437760, Note_on_c, 8, 65, 80
10, 437874, Note_off_c, 8, 65, 64
10, 437874, Note_off_c, 8, 77, 64
10, 438120, Note_on_c, 8, 65, 80
10, 438120, Note_on_c, 8, 77, 80
10, 438234, Note_off_c, 8, 77, 64
10, 438234, Note_off_c, 8, 65, 64
10, 438240, Note_on_c, 8, 65, 80
10, 438240, Note_on_c, 8, 77, 80
10, 438354, Note_off_c, 8, 77, 64
10, 438354, Note_off_c, 8, 65, 64
10, 438600, Note_on_c, 8, 65, 80
10, 438600, Note_on_c, 8, 77, 80
10, 438714, Note_off_c, 8, 77, 64
10, 438714, Note_off_c, 8, 65, 64
10, 438720, Note_on_c, 8, 78, 110
10, 438720, Note_on_c, 8, 66, 80
10, 438834, Note_off_c, 8, 66, 64
10, 438834, Note_off_c, 8, 78, 64
10, 439080, Note_on_c, 8, 78, 80
10, 439080, Note_on_c, 8, 66, 80
10, 439194, Note_off_c, 8, 66, 64
10, 439194, Note_off_c, 8, 78, 64
10, 439200, Note_on_c, 8, 78, 80
10, 439200, Note_on_c, 8, 66, 80
10, 439314, Note_off_c, 8, 66, 64
10, 439314, Note_off_c, 8, 78, 64
10, 439560, Note_on_c, 8, 66, 80
10, 439560, Note_on_c, 8, 78, 80
10, 439674, Note_off_c, 8, 78, 64
10, 439674, Note_off_c, 8, 66, 64
10, 439680, Note_on_c, 8, 80, 110
10, 439680, Note_on_c, 8, 68, 80
10, 439794, Note_off_c, 8, 68, 64
10, 439794, Note_off_c, 8, 80, 64
10, 440040, Note_on_c, 8, 68, 80
10, 440040, Note_on_c, 8, 80, 80
10, 440154, Note_off_c, 8, 80, 64
10, 440154, Note_off_c, 8, 68, 64
10, 440160, Note_on_c, 8, 80, 80
10, 440160, Note_on_c, 8, 68, 80
10, 440274, Note_off_c, 8, 68, 64
10, 440274, Note_off_c, 8, 80, 64
10, 440520, Note_on_c, 8, 80, 80
10, 440520, Note_on_c, 8, 68, 80
10, 440634, Note_off_c, 8, 68, 64
10, 440634, Note_off_c, 8, 80, 64
10, 440640, Note_on_c, 8, 81, 110
10, 440640, Note_on_c, 8, 69, 80
10, 440754, Note_off_c, 8, 69, 64
10, 440754, Note_off_c, 8, 81, 64
10, 441000, Note_on_c, 8, 69, 80
10, 441000, Note_on_c, 8, 81, 80
10, 441114, Note_off_c, 8, 81, 64
10, 441114, Note_off_c, 8, 69, 64
10, 441120, Note_on_c, 8, 81, 80
10, 441120, Note_on_c, 8, 69, 80
10, 441234, Note_off_c, 8, 69, 64
10, 441234, Note_off_c, 8, 81, 64
10, 441480, Note_on_c, 8, 69, 80
10, 441480, Note_on_c, 8, 81, 80
10, 441594, Note_off_c, 8, 81, 64
10, 441594, Note_off_c, 8, 69, 64
10, 441600, Note_on_c, 8, 83, 110
10, 441600, Note_on_c, 8, 71, 80
10, 441714, Note_off_c, 8, 71, 64
10, 441714, Note_off_c, 8, 83, 64
10, 441960, Note_on_c, 8, 72, 80
10, 441960, Note_on_c, 8, 84, 80
10, 442074, Note_off_c, 8, 84, 64
10, 442074, Note_off_c, 8, 72, 64
10, 442080, Note_on_c, 8, 74, 80
10, 442080, Note_on_c, 8, 86, 80
10, 442194, Note_off_c, 8, 86, 64
10, 442194, Note_off_c, 8, 74, 64
10, 442440, Note_on_c, 8, 74, 80
10, 442440, Note_on_c, 8, 86, 80
10, 442554, Note_off_c, 8, 86, 64
10, 442554, Note_off_c, 8, 74, 64
10, 442560, Note_on_c, 8, 86, 80
10, 442560, Note_on_c, 8, 74, 80
10, 442674, Note_off_c, 8, 74, 64
10, 442674, Note_off_c, 8, 86, 64
10, 442920, Note_on_c, 8, 74, 80
10, 442920, Note_on_c, 8, 86, 80
10, 443034, Note_off_c, 8, 86, 64
10, 443034, Note_off_c, 8, 74, 64
10, 443040, Note_on_c, 8, 74, 80
10, 443040, Note_on_c, 8, 86, 80
10, 443154, Note_off_c, 8, 86, 64
10, 443154, Note_off_c, 8, 74, 64
10, 443400, Note_on_c, 8, 74, 80
10, 443400, Note_on_c, 8, 86, 80
10, 443514, Note_off_c, 8, 86, 64
10, 443514, Note_off_c, 8, 74, 64
10, 443520, Note_on_c, 8, 74, 127
10, 443520, Note_on_c, 8, 86, 127
10, 443634, Note_off_c, 8, 86, 64
10, 443634, Note_off_c, 8, 74, 64
10, 444840, Note_on_c, 8, 74, 64
10, 444960, Note_off_c, 8, 74, 64
10, 444960, Note_on_c, 8, 77, 64
10, 445032, Note_off_c, 8, 77, 64
10, 445320, Note_on_c, 8, 74, 64
10, 445440, Note_off_c, 8, 74, 64
10, 445440, Note_on_c, 8, 71, 64
10, 445512, Note_off_c, 8, 71, 64
10, 445800, Note_on_c, 8, 71, 64
10, 445920, Note_off_c, 8, 71, 64
10, 445920, Note_on_c, 8, 74, 64
10, 445992, Note_off_c, 8, 74, 64
10, 446280, Note_on_c, 8, 71, 64
10, 446400, Note_off_c, 8, 71, 64
10, 446400, Note_on_c, 8, 68, 64
10, 446472, Note_off_c, 8, 68, 64
10, 446760, Note_on_c, 8, 71, 64
10, 446880, Note_off_c, 8, 71, 64
10, 446880, Note_on_c, 8, 72, 64
10, 446952, Note_off_c, 8, 72, 64
10, 447240, Note_on_c, 8, 69, 64
10, 447360, Note_off_c, 8, 69, 64
10, 447360, Note_on_c, 8, 68, 56
10, 447432, Note_off_c, 8, 68, 64
10, 448680, Note_on_c, 8, 74, 64
10, 448800, Note_off_c, 8, 74, 64
10, 448800, Note_on_c, 8, 77, 64
10, 448872, Note_off_c, 8, 77, 64
10, 449160, Note_on_c, 8, 74, 64
10, 449280, Note_off_c, 8, 74, 64
10, 449280, Note_on_c, 8, 71, 64
10, 449352, Note_off_c, 8, 71, 64
10, 449640, Note_on_c, 8, 71, 64
10, 449760, Note_off_c, 8, 71, 64
10, 449760, Note_on_c, 8, 74, 64
10, 449832, Note_off_c, 8, 74, 64
10, 450120, Note_on_c, 8, 71, 64
10, 450240, Note_off_c, 8, 71, 64
10, 450240, Note_on_c, 8, 68, 64
10, 450312, Note_off_c, 8, 68, 64
10, 450600, Note_on_c, 8, 71, 64
10, 450720, Note_off_c, 8, 71, 64
10, 450720, Note_on_c, 8, 72, 64
10, 450792, Note_off_c, 8, 72, 64
10, 451080, Note_on_c, 8, 69, 64
10, 451200, Note_off_c, 8, 69, 64
10, 451200, Note_on_c, 8, 68, 64
10, 451272, Note_off_c, 8, 68, 64
10, 451560, Note_on_c, 8, 71, 64
10, 451680, Note_off_c, 8, 71, 64
10, 451680, Note_on_c, 8, 74, 64
10, 451752, Note_off_c, 8, 74, 64
10, 452040, Note_on_c, 8, 71, 64
10, 452160, Note_off_c, 8, 71, 64
10, 452160, Note_on_c, 8, 68, 64
10, 452232, Note_off_c, 8, 68, 64
10, 452520, Note_on_c, 8, 71, 64
10, 452640, Note_off_c, 8, 71, 64
10, 452640, Note_on_c, 8, 72, 64
10, 452712, Note_off_c, 8, 72, 64
10, 453000, Note_on_c, 8, 69, 64
10, 453120, Note_off_c, 8, 69, 64
10, 453120, Note_on_c, 8, 68, 64
10, 453192, Note_off_c, 8, 68, 64
10, 453480, Note_on_c, 8, 71, 64
10, 453600, Note_off_c, 8, 71, 64
10, 453600, Note_on_c, 8, 74, 64
10, 453672, Note_off_c, 8, 74, 64
10, 453960, Note_on_c, 8, 71, 64
10, 454080, Note_off_c, 8, 71, 64
10, 454080, Note_on_c, 8, 68, 64
10, 454152, Note_off_c, 8, 68, 64
10, 454440, Note_on_c, 8, 71, 64
10, 454560, Note_off_c, 8, 71, 64
10, 454560, Note_on_c, 8, 76, 64
10, 454632, Note_off_c, 8, 76, 64
10, 454920, Note_on_c, 8, 74, 64
10, 455040, Note_off_c, 8, 74, 64
10, 455040, Note_on_c, 8, 73, 74
10, 455112, Note_off_c, 8, 73, 64
10, 455400, Note_on_c, 8, 71, 74
10, 455520, Note_off_c, 8, 71, 64
10, 455520, Note_on_c, 8, 73, 110
10, 455970, Note_off_c, 8, 73, 64
10, 456000, Note_on_c, 8, 71, 89
10, 456072, Note_off_c, 8, 71, 64
10, 456360, Note_on_c, 8, 69, 74
10, 456480, Note_off_c, 8, 69, 64
10, 456480, Note_on_c, 8, 71, 110
10, 456930, Note_off_c, 8, 71, 64
10, 456960, Note_on_c, 8, 69, 89
10, 457032, Note_off_c, 8, 69, 64
10, 457320, Note_on_c, 8, 68, 74
10, 457440, Note_off_c, 8, 68, 64
10, 457440, Note_on_c, 8, 69, 110
10, 457890, Note_off_c, 8, 69, 64
10, 457920, Note_on_c, 8, 71, 89
10, 457992, Note_off_c, 8, 71, 64
10, 458280, Note_on_c, 8, 69, 74
10, 458400, Note_off_c, 8, 69, 64
10, 458400, Note_on_c, 8, 71, 110
10, 458850, Note_off_c, 8, 71, 64
10, 459840, Note_on_c, 8, 75, 64
10, 459912, Note_off_c, 8, 75, 64
10, 460200, Note_on_c, 8, 76, 64
10, 460320, Note_off_c, 8, 76, 64
10, 460320, Note_on_c, 8, 78, 64
10, 460392, Note_off_c, 8, 78, 64
10, 460680, Note_on_c, 8, 75, 64
10, 460800, Note_off_c, 8, 75, 64
10, 460800, Note_on_c, 8, 76, 64
10, 460872, Note_off_c, 8, 76, 64
10, 461160, Note_on_c, 8, 75, 64
10, 461280, Note_off_c, 8, 75, 64
10, 461280, Note_on_c, 8, 73, 64
10, 461352, Note_off_c, 8, 73, 64
10, 461640, Note_on_c, 8, 76, 64
10, 461760, Note_off_c, 8, 76, 64
10, 461760, Note_on_c, 8, 75, 64
10, 461832, Note_off_c, 8, 75, 64
10, 462120, Note_on_c, 8, 76, 64
10, 462240, Note_off_c, 8, 76, 64
10, 462240, Note_on_c, 8, 78, 64
10, 462312, Note_off_c, 8, 78, 64
10, 462600, Note_on_c, 8, 75, 64
10, 462720, Note_off_c, 8, 75, 64
10, 462720, Note_on_c, 8, 76, 64
10, 462792, Note_off_c, 8, 76, 64
10, 463080, Note_on_c, 8, 75, 64
10, 463200, Note_off_c, 8, 75, 64
10, 463200, Note_on_c, 8, 73, 64
10, 463272, Note_off_c, 8, 73, 64
10, 463560, Note_on_c, 8, 76, 64
10, 463680, Note_off_c, 8, 76, 64
10, 463680, Note_on_c, 8, 74, 64
10, 463800, Note_off_c, 8, 74, 64
10, 465120, Note_on_c, 8, 73, 110
10, 465570, Note_off_c, 8, 73, 64
10, 466080, Note_on_c, 8, 71, 110
10, 466530, Note_off_c, 8, 71, 64
10, 467040, Note_on_c, 8, 69, 110
10, 467490, Note_off_c, 8, 69, 64
10, 468000, Note_on_c, 8, 71, 110
10, 468450, Note_off_c, 8, 71, 64
10, 469440, Note_on_c, 8, 75, 64
10, 469512, Note_off_c, 8, 75, 64
10, 469800, Note_on_c, 8, 76, 64
10, 469920, Note_off_c, 8, 76, 64
10, 469920, Note_on_c, 8, 78, 64
10, 469992, Note_off_c, 8, 78, 64
10, 470280, Note_on_c, 8, 75, 64
10, 470400, Note_off_c, 8, 75, 64
10, 470400, Note_on_c, 8, 76, 64
10, 470472, Note_off_c, 8, 76, 64
10, 470760, Note_on_c, 8, 75, 64
10, 470880, Note_off_c, 8, 75, 64
10, 470880, Note_on_c, 8, 73, 64
10, 470952, Note_off_c, 8, 73, 64
10, 471240, Note_on_c, 8, 76, 64
10, 471360, Note_off_c, 8, 76, 64
10, 471360, Note_on_c, 8, 74, 38
10, 471586, Note_off_c, 8, 74, 64
10, 472320, Note_on_c, 8, 73, 38
10, 472546, Note_off_c, 8, 73, 64
10, 473280, Note_on_c, 8, 74, 38
10, 473506, Note_off_c, 8, 74, 64
10, 474240, Note_on_c, 8, 73, 38
10, 474466, Note_off_c, 8, 73, 64
10, 475200, Note_on_c, 8, 74, 38
10, 475426, Note_off_c, 8, 74, 64
10, 476160, Note_on_c, 8, 74, 64
10, 476256, Note_off_c, 8, 74, 64
10, 476520, Note_on_c, 8, 86, 64
10, 476640, Note_off_c, 8, 86, 64
10, 476640, Note_on_c, 8, 83, 64
10, 476736, Note_off_c, 8, 83, 64
10, 477000, Note_on_c, 8, 80, 64
10, 477120, Note_off_c, 8, 80, 64
10, 477120, Note_on_c, 8, 76, 64
10, 477216, Note_off_c, 8, 76, 64
10, 481320, Note_on_c, 8, 76, 64
10, 481440, Note_off_c, 8, 76, 64
10, 481440, Note_on_c, 8, 81, 64
10, 481536, Note_off_c, 8, 81, 64
10, 481800, Note_on_c, 8, 76, 64
10, 481920, Note_off_c, 8, 76, 64
10, 481920, Note_on_c, 8, 86, 77
10, 482016, Note_off_c, 8, 86, 64
10, 482280, Note_on_c, 8, 86, 77
10, 482400, Note_off_c, 8, 86, 64
10, 482400, Note_on_c, 8, 83, 77
10, 482496, Note_off_c, 8, 83, 64
10, 482760, Note_on_c, 8, 80, 77
10, 482880, Note_off_c, 8, 80, 64
10, 482880, Note_on_c, 8, 76, 77
10, 482976, Note_off_c, 8, 76, 64
10, 487080, Note_on_c, 8, 76, 100
10, 487200, Note_off_c, 8, 76, 64
10, 487200, Note_on_c, 8, 81, 102
10, 487296, Note_off_c, 8, 81, 64
10, 487560, Note_on_c, 8, 88, 108
10, 487680, Note_off_c, 8, 88, 64
10, 487680, Note_on_c, 8, 88, 99
10, 487776, Note_off_c, 8, 88, 64
10, 487800, Note_on_c, 8, 88, 99
10, 487896, Note_off_c, 8, 88, 64
10, 487920, Note_on_c, 8, 88, 99
10, 488016, Note_off_c, 8, 88, 64
10, 488040, Note_on_c, 8, 88, 99
10, 488136, Note_off_c, 8, 88, 64
10, 488160, Note_on_c, 8, 88, 99
10, 488256, Note_off_c, 8, 88, 64
10, 488280, Note_on_c, 8, 88, 99
10, 488376, Note_off_c, 8, 88, 64
10, 488400, Note_on_c, 8, 88, 99
10, 488496, Note_off_c, 8, 88, 64
10, 488520, Note_on_c, 8, 88, 99
10, 488616, Note_off_c, 8, 88, 64
10, 488640, Note_on_c, 8, 88, 99
10, 488736, Note_off_c, 8, 88, 64
10, 488760, Note_on_c, 8, 88, 99
10, 488856, Note_off_c, 8, 88, 64
10, 488880, Note_on_c, 8, 88, 99
10, 488976, Note_off_c, 8, 88, 64
10, 489000, Note_on_c, 8, 88, 99
10, 489096, Note_off_c, 8, 88, 64
10, 489120, Note_on_c, 8, 88, 99
10, 489216, Note_off_c, 8, 88, 64
10, 489240, Note_on_c, 8, 88, 99
10, 489336, Note_off_c, 8, 88, 64
10, 489360, Note_on_c, 8, 88, 99
10, 489456, Note_off_c, 8, 88, 64
10, 489480, Note_on_c, 8, 88, 99
10, 489576, Note_off_c, 8, 88, 64
10, 489600, Note_on_c, 8, 89, 127
10, 489696, Note_off_c, 8, 89, 64
10, 489720, Note_on_c, 8, 89, 99
10, 489816, Note_off_c, 8, 89, 64
10, 489840, Note_on_c, 8, 89, 99
10, 489936, Note_off_c, 8, 89, 64
10, 489960, Note_on_c, 8, 89, 99
10, 490056, Note_off_c, 8, 89, 64
10, 490080, Note_on_c, 8, 89, 99
10, 490176, Note_off_c, 8, 89, 64
10, 490200, Note_on_c, 8, 89, 99
10, 490296, Note_off_c, 8, 89, 64
10, 490320, Note_on_c, 8, 89, 99
10, 490416, Note_off_c, 8, 89, 64
10, 490440, Note_on_c, 8, 89, 99
10, 490536, Note_off_c, 8, 89, 64
10, 490560, Note_on_c, 8, 88, 99
10, 490656, Note_off_c, 8, 88, 64
10, 490680, Note_on_c, 8, 88, 99
10, 490776, Note_off_c, 8, 88, 64
10, 490800, Note_on_c, 8, 88, 99
10, 490896, Note_off_c, 8, 88, 64
10, 490920, Note_on_c, 8, 88, 99
10, 491016, Note_off_c, 8, 88, 64
10, 491040, Note_on_c, 8, 88, 99
10, 491136, Note_off_c, 8, 88, 64
10, 491160, Note_on_c, 8, 88, 99
10, 491256, Note_off_c, 8, 88, 64
10, 491280, Note_on_c, 8, 88, 99
10, 491376, Note_off_c, 8, 88, 64
10, 491400, Note_on_c, 8, 88, 99
10, 491496, Note_off_c, 8, 88, 64
10, 491520, Note_on_c, 8, 89, 127
10, 491616, Note_off_c, 8, 89, 64
10, 491640, Note_on_c, 8, 89, 99
10, 491736, Note_off_c, 8, 89, 64
10, 491760, Note_on_c, 8, 89, 99
10, 491856, Note_off_c, 8, 89, 64
10, 491880, Note_on_c, 8, 89, 99
10, 491976, Note_off_c, 8, 89, 64
10, 492000, Note_on_c, 8, 89, 99
10, 492096, Note_off_c, 8, 89, 64
10, 492120, Note_on_c, 8, 89, 99
10, 492216, Note_off_c, 8, 89, 64
10, 492240, Note_on_c, 8, 89, 99
10, 492336, Note_off_c, 8, 89, 64
10, 492360, Note_on_c, 8, 89, 99
10, 492456, Note_off_c, 8, 89, 64
10, 492480, Note_on_c, 8, 88, 99
10, 492576, Note_off_c, 8, 88, 64
10, 492600, Note_on_c, 8, 88, 99
10, 492696, Note_off_c, 8, 88, 64
10, 492720, Note_on_c, 8, 88, 99
10, 492816, Note_off_c, 8, 88, 64
10, 492840, Note_on_c, 8, 88, 99
10, 492936, Note_off_c, 8, 88, 64
10, 492960, Note_on_c, 8, 88, 99
10, 493056, Note_off_c, 8, 88, 64
10, 493080, Note_on_c, 8, 88, 99
10, 493176, Note_off_c, 8, 88, 64
10, 493200, Note_on_c, 8, 88, 99
10, 493296, Note_off_c, 8, 88, 64
10, 493320, Note_on_c, 8, 88, 99
10, 493416, Note_off_c, 8, 88, 64
10, 493440, Note_on_c, 8, 88, 127
10, 493536, Note_off_c, 8, 88, 64
10, 493560, Note_on_c, 8, 88, 127
10, 493656, Note_off_c, 8, 88, 64
10, 493680, Note_on_c, 8, 88, 127
10, 493776, Note_off_c, 8, 88, 64
10, 493800, Note_on_c, 8, 88, 127
10, 493896, Note_off_c, 8, 88, 64
10, 493920, Note_on_c, 8, 88, 127
10, 494016, Note_off_c, 8, 88, 64
10, 494040, Note_on_c, 8, 88, 127
10, 494136, Note_off_c, 8, 88, 64
10, 494160, Note_on_c, 8, 88, 127
10, 494256, Note_off_c, 8, 88, 64
10, 494280, Note_on_c, 8, 88, 127
10, 494376, Note_off_c, 8, 88, 64
10, 494400, Note_on_c, 8, 88, 127
10, 494496, Note_off_c, 8, 88, 64
10, 494520, Note_on_c, 8, 88, 127
10, 494616, Note_off_c, 8, 88, 64
10, 494640, Note_on_c, 8, 88, 127
10, 494736, Note_off_c, 8, 88, 64
10, 494760, Note_on_c, 8, 88, 127
10, 494856, Note_off_c, 8, 88, 64
10, 494880, Note_on_c, 8, 88, 127
10, 494976, Note_off_c, 8, 88, 64
10, 495000, Note_on_c, 8, 88, 127
10, 495096, Note_off_c, 8, 88, 64
10, 495120, Note_on_c, 8, 88, 127
10, 495216, Note_off_c, 8, 88, 64
10, 495240, Note_on_c, 8, 88, 127
10, 495336, Note_off_c, 8, 88, 64
10, 495360, Note_on_c, 8, 89, 127
10, 495456, Note_off_c, 8, 89, 64
10, 495480, Note_on_c, 8, 89, 99
10, 495576, Note_off_c, 8, 89, 64
10, 495600, Note_on_c, 8, 89, 99
10, 495696, Note_off_c, 8, 89, 64
10, 495720, Note_on_c, 8, 89, 99
10, 495816, Note_off_c, 8, 89, 64
10, 495840, Note_on_c, 8, 89, 99
10, 495936, Note_off_c, 8, 89, 64
10, 495960, Note_on_c, 8, 89, 99
10, 496056, Note_off_c, 8, 89, 64
10, 496080, Note_on_c, 8, 89, 99
10, 496176, Note_off_c, 8, 89, 64
10, 496200, Note_on_c, 8, 89, 99
10, 496296, Note_off_c, 8, 89, 64
10, 496320, Note_on_c, 8, 88, 99
10, 496416, Note_off_c, 8, 88, 64
10, 496440, Note_on_c, 8, 88, 99
10, 496536, Note_off_c, 8, 88, 64
10, 496560, Note_on_c, 8, 88, 99
10, 496656, Note_off_c, 8, 88, 64
10, 496680, Note_on_c, 8, 88, 99
10, 496776, Note_off_c, 8, 88, 64
10, 496800, Note_on_c, 8, 88, 99
10, 496896, Note_off_c, 8, 88, 64
10, 496920, Note_on_c, 8, 88, 99
10, 497016, Note_off_c, 8, 88, 64
10, 497040, Note_on_c, 8, 88, 99
10, 497136, Note_off_c, 8, 88, 64
10, 497160, Note_on_c, 8, 88, 99
10, 497256, Note_off_c, 8, 88, 64
10, 497280, Note_on_c, 8, 89, 127
10, 497376, Note_off_c, 8, 89, 64
10, 497400, Note_on_c, 8, 89, 99
10, 497496, Note_off_c, 8, 89, 64
10, 497520, Note_on_c, 8, 89, 99
10, 497616, Note_off_c, 8, 89, 64
10, 497640, Note_on_c, 8, 89, 99
10, 497736, Note_off_c, 8, 89, 64
10, 497760, Note_on_c, 8, 89, 99
10, 497856, Note_off_c, 8, 89, 64
10, 497880, Note_on_c, 8, 89, 99
10, 497976, Note_off_c, 8, 89, 64
10, 498000, Note_on_c, 8, 89, 99
10, 498096, Note_off_c, 8, 89, 64
10, 498120, Note_on_c, 8, 89, 99
10, 498216, Note_off_c, 8, 89, 64
10, 498240, Note_on_c, 8, 87, 127
10, 498336, Note_off_c, 8, 87, 64
10, 498360, Note_on_c, 8, 87, 99
10, 498456, Note_off_c, 8, 87, 64
10, 498480, Note_on_c, 8, 87, 99
10, 498576, Note_off_c, 8, 87, 64
10, 498600, Note_on_c, 8, 87, 99
10, 498696, Note_off_c, 8, 87, 64
10, 498720, Note_on_c, 8, 87, 99
10, 498816, Note_off_c, 8, 87, 64
10, 498840, Note_on_c, 8, 87, 99
10, 498936, Note_off_c, 8, 87, 64
10, 498960, Note_on_c, 8, 87, 99
10, 499056, Note_off_c, 8, 87, 64
10, 499080, Note_on_c, 8, 87, 99
10, 499176, Note_off_c, 8, 87, 64
10, 499200, Note_on_c, 8, 88, 127
10, 499296, Note_off_c, 8, 88, 64
10, 499320, Note_on_c, 8, 88, 99
10, 499416, Note_off_c, 8, 88, 64
10, 499440, Note_on_c, 8, 88, 99
10, 499536, Note_off_c, 8, 88, 64
10, 499560, Note_on_c, 8, 88, 99
10, 499656, Note_off_c, 8, 88, 64
10, 499680, Note_on_c, 8, 88, 99
10, 499776, Note_off_c, 8, 88, 64
10, 499800, Note_on_c, 8, 88, 99
10, 499896, Note_off_c, 8, 88, 64
10, 499920, Note_on_c, 8, 88, 99
10, 500016, Note_off_c, 8, 88, 64
10, 500040, Note_on_c, 8, 88, 99
10, 500136, Note_off_c, 8, 88, 64
10, 500160, Note_on_c, 8, 88, 127
10, 500256, Note_off_c, 8, 88, 64
10, 500280, Note_on_c, 8, 88, 99
10, 500376, Note_off_c, 8, 88, 64
10, 500400, Note_on_c, 8, 88, 99
10, 500496, Note_off_c, 8, 88, 64
10, 500520, Note_on_c, 8, 88, 99
10, 500616, Note_off_c, 8, 88, 64
10, 500640, Note_on_c, 8, 88, 99
10, 500736, Note_off_c, 8, 88, 64
10, 500760, Note_on_c, 8, 88, 99
10, 500856, Note_off_c, 8, 88, 64
10, 500880, Note_on_c, 8, 88, 99
10, 500976, Note_off_c, 8, 88, 64
10, 501000, Note_on_c, 8, 88, 99
10, 501096, Note_off_c, 8, 88, 64
10, 501120, Note_on_c, 8, 88, 99
10, 501216, Note_off_c, 8, 88, 64
10, 501240, Note_on_c, 8, 88, 99
10, 501336, Note_off_c, 8, 88, 64
10, 501360, Note_on_c, 8, 88, 99
10, 501456, Note_off_c, 8, 88, 64
10, 501480, Note_on_c, 8, 88, 99
10, 501576, Note_off_c, 8, 88, 64
10, 501600, Note_on_c, 8, 89, 127
10, 501696, Note_off_c, 8, 89, 64
10, 501720, Note_on_c, 8, 89, 99
10, 501816, Note_off_c, 8, 89, 64
10, 501840, Note_on_c, 8, 89, 99
10, 501936, Note_off_c, 8, 89, 64
10, 501960, Note_on_c, 8, 89, 99
10, 502056, Note_off_c, 8, 89, 64
10, 502080, Note_on_c, 8, 89, 99
10, 502176, Note_off_c, 8, 89, 64
10, 502200, Note_on_c, 8, 89, 99
10, 502296, Note_off_c, 8, 89, 64
10, 502320, Note_on_c, 8, 89, 99
10, 502416, Note_off_c, 8, 89, 64
10, 502440, Note_on_c, 8, 89, 99
10, 502536, Note_off_c, 8, 89, 64
10, 502560, Note_on_c, 8, 89, 99
10, 502656, Note_off_c, 8, 89, 64
10, 502680, Note_on_c, 8, 89, 99
10, 502776, Note_off_c, 8, 89, 64
10, 502800, Note_on_c, 8, 89, 99
10, 502896, Note_off_c, 8, 89, 64
10, 502920, Note_on_c, 8, 89, 99
10, 503016, Note_off_c, 8, 89, 64
10, 503040, Note_on_c, 8, 88, 99
10, 503136, Note_off_c, 8, 88, 64
10, 503160, Note_on_c, 8, 88, 99
10, 503256, Note_off_c, 8, 88, 64
10, 503280, Note_on_c, 8, 88, 99
10, 503376, Note_off_c, 8, 88, 64
10, 503400, Note_on_c, 8, 88, 99
10, 503496, Note_off_c, 8, 88, 64
10, 503520, Note_on_c, 8, 89, 127
10, 503616, Note_off_c, 8, 89, 64
10, 503640, Note_on_c, 8, 89, 99
10, 503736, Note_off_c, 8, 89, 64
10, 503760, Note_on_c, 8, 89, 99
10, 503856, Note_off_c, 8, 89, 64
10, 503880, Note_on_c, 8, 89, 99
10, 503976, Note_off_c, 8, 89, 64
10, 504000, Note_on_c, 8, 89, 99
10, 504096, Note_off_c, 8, 89, 64
10, 504120, Note_on_c, 8, 89, 99
10, 504216, Note_off_c, 8, 89, 64
10, 504240, Note_on_c, 8, 89, 99
10, 504336, Note_off_c, 8, 89, 64
10, 504360, Note_on_c, 8, 89, 99
10, 504456, Note_off_c, 8, 89, 64
10, 504480, Note_on_c, 8, 89, 99
10, 504576, Note_off_c, 8, 89, 64
10, 504600, Note_on_c, 8, 89, 99
10, 504696, Note_off_c, 8, 89, 64
10, 504720, Note_on_c, 8, 89, 99
10, 504816, Note_off_c, 8, 89, 64
10, 504840, Note_on_c, 8, 89, 99
10, 504936, Note_off_c, 8, 89, 64
10, 504960, Note_on_c, 8, 88, 99
10, 505056, Note_off_c, 8, 88, 64
10, 505080, Note_on_c, 8, 88, 99
10, 505176, Note_off_c, 8, 88, 64
10, 505200, Note_on_c, 8, 88, 99
10, 505296, Note_off_c, 8, 88, 64
10, 505320, Note_on_c, 8, 88, 99
10, 505416, Note_off_c, 8, 88, 64
10, 505440, Note_on_c, 8, 89, 127
10, 505536, Note_off_c, 8, 89, 64
10, 505560, Note_on_c, 8, 89, 99
10, 505656, Note_off_c, 8, 89, 64
10, 505680, Note_on_c, 8, 89, 99
10, 505776, Note_off_c, 8, 89, 64
10, 505800, Note_on_c, 8, 89, 99
10, 505896, Note_off_c, 8, 89, 64
10, 505920, Note_on_c, 8, 88, 99
10, 506016, Note_off_c, 8, 88, 64
10, 506040, Note_on_c, 8, 88, 99
10, 506136, Note_off_c, 8, 88, 64
10, 506160, Note_on_c, 8, 88, 99
10, 506256, Note_off_c, 8, 88, 64
10, 506280, Note_on_c, 8, 88, 99
10, 506376, Note_off_c, 8, 88, 64
10, 506400, Note_on_c, 8, 89, 127
10, 506496, Note_off_c, 8, 89, 64
10, 506520, Note_on_c, 8, 89, 99
10, 506616, Note_off_c, 8, 89, 64
10, 506640, Note_on_c, 8, 89, 99
10, 506736, Note_off_c, 8, 89, 64
10, 506760, Note_on_c, 8, 89, 99
10, 506856, Note_off_c, 8, 89, 64
10, 506880, Note_on_c, 8, 88, 99
10, 506976, Note_off_c, 8, 88, 64
10, 507000, Note_on_c, 8, 88, 99
10, 507096, Note_off_c, 8, 88, 64
10, 507120, Note_on_c, 8, 88, 99
10, 507216, Note_off_c, 8, 88, 64
10, 507240, Note_on_c, 8, 88, 99
10, 507336, Note_off_c, 8, 88, 64
10, 507360, Note_on_c, 8, 89, 127
10, 507456, Note_off_c, 8, 89, 64
10, 507480, Note_on_c, 8, 89, 99
10, 507576, Note_off_c, 8, 89, 64
10, 507600, Note_on_c, 8, 89, 99
10, 507696, Note_off_c, 8, 89, 64
10, 507720, Note_on_c, 8, 89, 99
10, 507816, Note_off_c, 8, 89, 64
10, 507840, Note_on_c, 8, 88, 99
10, 507936, Note_off_c, 8, 88, 64
10, 507960, Note_on_c, 8, 88, 99
10, 508056, Note_off_c, 8, 88, 64
10, 508080, Note_on_c, 8, 88, 99
10, 508176, Note_off_c, 8, 88, 64
10, 508200, Note_on_c, 8, 88, 99
10, 508296, Note_off_c, 8, 88, 64
10, 508320, Note_on_c, 8, 88, 127
10, 508416, Note_off_c, 8, 88, 64
10, 508440, Note_on_c, 8, 88, 99
10, 508536, Note_off_c, 8, 88, 64
10, 508560, Note_on_c, 8, 88, 99
10, 508656, Note_off_c, 8, 88, 64
10, 508680, Note_on_c, 8, 88, 99
10, 508776, Note_off_c, 8, 88, 64
10, 508800, Note_on_c, 8, 73, 127
10, 508800, Note_on_c, 8, 69, 127
10, 508800, Note_on_c, 8, 88, 127
10, 508944, Note_off_c, 8, 88, 64
10, 508944, Note_off_c, 8, 69, 64
10, 508944, Note_off_c, 8, 73, 64
10, 511080, Note_on_c, 8, 69, 127
10, 511080, Note_on_c, 8, 76, 127
10, 511080, Note_on_c, 8, 91, 127
10, 511224, Note_off_c, 8, 91, 64
10, 511224, Note_off_c, 8, 76, 64
10, 511224, Note_off_c, 8, 69, 64
10, 513360, Note_on_c, 8, 69, 127
10, 513360, Note_on_c, 8, 76, 127
10, 513360, Note_on_c, 8, 91, 127
10, 513504, Note_off_c, 8, 91, 64
10, 513504, Note_off_c, 8, 76, 64
10, 513504, Note_off_c, 8, 69, 64
10, 514440, Note_on_c, 8, 69, 127
10, 514440, Note_on_c, 8, 76, 127
10, 514440, Note_on_c, 8, 91, 127
10, 514584, Note_off_c, 8, 91, 64
10, 514584, Note_off_c, 8, 76, 64
10, 514584, Note_off_c, 8, 69, 64
10, 515520, Note_on_c, 8, 69, 127
10, 515520, Note_on_c, 8, 76, 127
10, 515520, Note_on_c, 8, 91, 127
10, 515664, Note_off_c, 8, 91, 64
10, 515664, Note_off_c, 8, 76, 64
10, 515664, Note_off_c, 8, 69, 64
10, 516600, Note_on_c, 8, 69, 127
10, 516600, Note_on_c, 8, 76, 127
10, 516600, Note_on_c, 8, 91, 127
10, 516744, Note_off_c, 8, 91, 64
10, 516744, Note_off_c, 8, 76, 64
10, 516744, Note_off_c, 8, 69, 64
10, 517680, Note_on_c, 8, 90, 127
10, 517680, Note_on_c, 8, 73, 127
10, 517680, Note_on_c, 8, 66, 127
10, 517800, Note_off_c, 8, 66, 64
10, 517800, Note_off_c, 8, 73, 64
10, 517800, Note_off_c, 8, 90, 64
10, 518040, Note_on_c, 8, 73, 80
10, 518160, Note_off_c, 8, 73, 64
10, 518160, Note_on_c, 8, 74, 80
10, 518280, Note_off_c, 8, 74, 64
10, 518280, Note_on_c, 8, 78, 80
10, 518400, Note_off_c, 8, 78, 64
10, 518400, Note_on_c, 8, 76, 80
10, 518520, Note_off_c, 8, 76, 64
10, 518520, Note_on_c, 8, 74, 80
10, 518640, Note_off_c, 8, 74, 64
10, 518640, Note_on_c, 8, 73, 80
10, 518760, Note_off_c, 8, 73, 64
10, 518760, Note_on_c, 8, 78, 80
10, 519240, Note_off_c, 8, 78, 64
10, 519240, Note_on_c, 8, 76, 80
10, 519720, Note_off_c, 8, 76, 64
10, 519720, Note_on_c, 8, 74, 80
10, 520200, Note_off_c, 8, 74, 64
10, 520200, Note_on_c, 8, 73, 80
10, 520680, Note_off_c, 8, 73, 64
10, 520680, Note_on_c, 8, 71, 80
10, 521160, Note_off_c, 8, 71, 64
10, 521160, Note_on_c, 8, 73, 80
10, 521640, Note_off_c, 8, 73, 64
10, 521640, Note_on_c, 8, 74, 80
10, 521736, Note_off_c, 8, 74, 64
10, 521880, Note_on_c, 8, 71, 80
10, 522000, Note_off_c, 8, 71, 64
10, 522000, Note_on_c, 8, 73, 80
10, 522120, Note_off_c, 8, 73, 64
10, 522120, Note_on_c, 8, 76, 80
10, 522240, Note_off_c, 8, 76, 64
10, 522240, Note_on_c, 8, 74, 80
10, 522360, Note_off_c, 8, 74, 64
10, 522360, Note_on_c, 8, 73, 80
10, 522480, Note_off_c, 8, 73, 64
10, 522480, Note_on_c, 8, 71, 80
10, 522600, Note_off_c, 8, 71, 64
10, 522600, Note_on_c, 8, 78, 80
10, 523080, Note_off_c, 8, 78, 64
10, 523080, Note_on_c, 8, 76, 80
10, 523560, Note_off_c, 8, 76, 64
10, 523560, Note_on_c, 8, 74, 80
10, 524040, Note_off_c, 8, 74, 64
10, 524040, Note_on_c, 8, 73, 80
10, 524520, Note_off_c, 8, 73, 64
10, 524520, Note_on_c, 8, 71, 80
10, 525000, Note_off_c, 8, 71, 64
10, 525000, Note_on_c, 8, 73, 80
10, 525480, Note_off_c, 8, 73, 64
10, 525480, Note_on_c, 8, 74, 80
10, 525576, Note_off_c, 8, 74, 64
10, 528600, Note_on_c, 8, 76, 80
10, 528720, Note_off_c, 8, 76, 64
10, 528720, Note_on_c, 8, 78, 80
10, 528840, Note_off_c, 8, 78, 64
10, 528840, Note_on_c, 8, 81, 80
10, 528960, Note_off_c, 8, 81, 64
10, 528960, Note_on_c, 8, 80, 80
10, 529080, Note_off_c, 8, 80, 64
10, 529080, Note_on_c, 8, 78, 80
10, 529200, Note_off_c, 8, 78, 64
10, 529200, Note_on_c, 8, 76, 80
10, 529320, Note_off_c, 8, 76, 64
10, 529320, Note_on_c, 8, 81, 80
10, 529560, Note_off_c, 8, 81, 64
10, 532440, Note_on_c, 8, 76, 80
10, 532560, Note_off_c, 8, 76, 64
10, 532560, Note_on_c, 8, 78, 80
10, 532680, Note_off_c, 8, 78, 64
10, 532680, Note_on_c, 8, 81, 80
10, 532800, Note_off_c, 8, 81, 64
10, 532800, Note_on_c, 8, 79, 80
10, 532920, Note_off_c, 8, 79, 64
10, 532920, Note_on_c, 8, 78, 80
10, 533040, Note_off_c, 8, 78, 64
10, 533040, Note_on_c, 8, 76, 80
10, 533160, Note_off_c, 8, 76, 64
10, 533160, Note_on_c, 8, 81, 60
10, 533640, Note_off_c, 8, 81, 64
10, 533640, Note_on_c, 8, 79, 60
10, 534120, Note_off_c, 8, 79, 64
10, 534120, Note_on_c, 8, 78, 60
10, 534600, Note_off_c, 8, 78, 64
10, 534600, Note_on_c, 8, 76, 60
10, 535080, Note_off_c, 8, 76, 64
10, 535080, Note_on_c, 8, 74, 60
10, 535200, Note_off_c, 8, 74, 64
10, 535320, Note_on_c, 8, 74, 69
10, 535440, Note_off_c, 8, 74, 64
10, 535440, Note_on_c, 8, 76, 69
10, 535560, Note_off_c, 8, 76, 64
10, 535560, Note_on_c, 8, 78, 69
10, 535680, Note_off_c, 8, 78, 64
10, 535680, Note_on_c, 8, 76, 69
10, 535800, Note_off_c, 8, 76, 64
10, 535800, Note_on_c, 8, 74, 69
10, 535920, Note_off_c, 8, 74, 64
10, 535920, Note_on_c, 8, 73, 69
10, 536040, Note_off_c, 8, 73, 64
10, 536040, Note_on_c, 8, 71, 60
10, 536280, Note_off_c, 8, 71, 64
10, 537240, Note_on_c, 8, 74, 69
10, 537360, Note_off_c, 8, 74, 64
10, 537360, Note_on_c, 8, 76, 69
10, 537480, Note_off_c, 8, 76, 64
10, 537480, Note_on_c, 8, 78, 69
10, 537600, Note_off_c, 8, 78, 64
10, 537600, Note_on_c, 8, 76, 69
10, 537720, Note_off_c, 8, 76, 64
10, 537720, Note_on_c, 8, 74, 69
10, 537840, Note_off_c, 8, 74, 64
10, 537840, Note_on_c, 8, 73, 69
10, 537960, Note_off_c, 8, 73, 64
10, 537960, Note_on_c, 8, 71, 60
10, 538200, Note_off_c, 8, 71, 64
10, 539160, Note_on_c, 8, 74, 79
10, 539280, Note_off_c, 8, 74, 64
10, 539280, Note_on_c, 8, 76, 79
10, 539400, Note_off_c, 8, 76, 64
10, 539400, Note_on_c, 8, 77, 79
10, 539520, Note_off_c, 8, 77, 64
10, 539520, Note_on_c, 8, 76, 79
10, 539640, Note_off_c, 8, 76, 64
10, 539640, Note_on_c, 8, 74, 79
10, 539760, Note_off_c, 8, 74, 64
10, 539760, Note_on_c, 8, 72, 79
10, 539880, Note_off_c, 8, 72, 64
10, 539880, Note_on_c, 8, 71, 69
10, 540120, Note_off_c, 8, 71, 64
10, 543960, Note_on_c, 8, 72, 79
10, 544080, Note_off_c, 8, 72, 64
10, 544080, Note_on_c, 8, 74, 79
10, 544200, Note_off_c, 8, 74, 64
10, 544200, Note_on_c, 8, 77, 79
10, 544320, Note_off_c, 8, 77, 64
10, 544320, Note_on_c, 8, 75, 79
10, 544440, Note_off_c, 8, 75, 64
10, 544440, Note_on_c, 8, 74, 79
10, 544560, Note_off_c, 8, 74, 64
10, 544560, Note_on_c, 8, 72, 79
10, 544680, Note_off_c, 8, 72, 64
10, 544680, Note_on_c, 8, 79, 69
10, 544800, Note_off_c, 8, 79, 64
10, 545880, Note_on_c, 8, 72, 79
10, 546000, Note_off_c, 8, 72, 64
10, 546000, Note_on_c, 8, 74, 79
10, 546120, Note_off_c, 8, 74, 64
10, 546120, Note_on_c, 8, 75, 79
10, 546240, Note_off_c, 8, 75, 64
10, 546240, Note_on_c, 8, 74, 79
10, 546360, Note_off_c, 8, 74, 64
10, 546360, Note_on_c, 8, 72, 79
10, 546480, Note_off_c, 8, 72, 64
10, 546480, Note_on_c, 8, 70, 79
10, 546600, Note_off_c, 8, 70, 64
10, 546600, Note_on_c, 8, 69, 69
10, 546720, Note_off_c, 8, 69, 64
10, 549720, Note_on_c, 8, 70, 79
10, 549840, Note_off_c, 8, 70, 64
10, 549840, Note_on_c, 8, 72, 79
10, 549960, Note_off_c, 8, 72, 64
10, 549960, Note_on_c, 8, 75, 79
10, 550080, Note_off_c, 8, 75, 64
10, 550080, Note_on_c, 8, 73, 79
10, 550200, Note_off_c, 8, 73, 64
10, 550200, Note_on_c, 8, 72, 79
10, 550320, Note_off_c, 8, 72, 64
10, 550320, Note_on_c, 8, 70, 79
10, 550440, Note_off_c, 8, 70, 64
10, 550440, Note_on_c, 8, 77, 69
10, 550560, Note_off_c, 8, 77, 64
10, 551640, Note_on_c, 8, 69, 79
10, 551760, Note_off_c, 8, 69, 64
10, 551760, Note_on_c, 8, 70, 79
10, 551880, Note_off_c, 8, 70, 64
10, 551880, Note_on_c, 8, 74, 79
10, 552000, Note_off_c, 8, 74, 64
10, 552000, Note_on_c, 8, 72, 79
10, 552120, Note_off_c, 8, 72, 64
10, 552120, Note_on_c, 8, 70, 79
10, 552240, Note_off_c, 8, 70, 64
10, 552240, Note_on_c, 8, 69, 79
10, 552300, Note_off_c, 8, 69, 64
10, 552360, Note_on_c, 8, 69, 69
10, 552480, Note_off_c, 8, 69, 64
10, 555480, Note_on_c, 8, 69, 79
10, 555600, Note_off_c, 8, 69, 64
10, 555600, Note_on_c, 8, 71, 79
10, 555720, Note_off_c, 8, 71, 64
10, 555720, Note_on_c, 8, 74, 79
10, 555840, Note_off_c, 8, 74, 64
10, 555840, Note_on_c, 8, 72, 79
10, 555960, Note_off_c, 8, 72, 64
10, 555960, Note_on_c, 8, 71, 79
10, 556080, Note_off_c, 8, 71, 64
10, 556080, Note_on_c, 8, 69, 79
10, 556200, Note_off_c, 8, 69, 64
10, 556200, Note_on_c, 8, 76, 69
10, 556320, Note_off_c, 8, 76, 64
10, 556440, Note_on_c, 8, 69, 79
10, 556560, Note_off_c, 8, 69, 64
10, 556560, Note_on_c, 8, 71, 79
10, 556680, Note_off_c, 8, 71, 64
10, 556680, Note_on_c, 8, 74, 79
10, 556800, Note_off_c, 8, 74, 64
10, 556800, Note_on_c, 8, 72, 79
10, 556920, Note_off_c, 8, 72, 64
10, 556920, Note_on_c, 8, 71, 79
10, 557040, Note_off_c, 8, 71, 64
10, 557040, Note_on_c, 8, 69, 79
10, 557160, Note_off_c, 8, 69, 64
10, 557160, Note_on_c, 8, 76, 69
10, 557280, Note_off_c, 8, 76, 64
10, 557400, Note_on_c, 8, 69, 79
10, 557520, Note_off_c, 8, 69, 64
10, 557520, Note_on_c, 8, 71, 79
10, 557640, Note_off_c, 8, 71, 64
10, 557640, Note_on_c, 8, 74, 79
10, 557760, Note_off_c, 8, 74, 64
10, 557760, Note_on_c, 8, 72, 79
10, 557880, Note_off_c, 8, 72, 64
10, 557880, Note_on_c, 8, 71, 79
10, 558000, Note_off_c, 8, 71, 64
10, 558000, Note_on_c, 8, 69, 79
10, 558120, Note_off_c, 8, 69, 64
10, 558120, Note_on_c, 8, 76, 69
10, 558240, Note_off_c, 8, 76, 64
10, 558360, Note_on_c, 8, 71, 79
10, 558480, Note_off_c, 8, 71, 64
10, 558480, Note_on_c, 8, 72, 79
10, 558600, Note_off_c, 8, 72, 64
10, 558600, Note_on_c, 8, 76, 79
10, 558720, Note_off_c, 8, 76, 64
10, 558720, Note_on_c, 8, 74, 79
10, 558840, Note_off_c, 8, 74, 64
10, 558840, Note_on_c, 8, 72, 79
10, 558960, Note_off_c, 8, 72, 64
10, 558960, Note_on_c, 8, 71, 79
10, 559080, Note_off_c, 8, 71, 64
10, 559080, Note_on_c, 8, 76, 69
10, 559200, Note_off_c, 8, 76, 64
10, 559320, Note_on_c, 8, 71, 79
10, 559440, Note_off_c, 8, 71, 64
10, 559440, Note_on_c, 8, 72, 79
10, 559560, Note_off_c, 8, 72, 64
10, 559560, Note_on_c, 8, 76, 79
10, 559680, Note_off_c, 8, 76, 64
10, 559680, Note_on_c, 8, 74, 79
10, 559800, Note_off_c, 8, 74, 64
10, 559800, Note_on_c, 8, 72, 79
10, 559920, Note_off_c, 8, 72, 64
10, 559920, Note_on_c, 8, 71, 79
10, 560040, Note_off_c, 8, 71, 64
10, 560040, Note_on_c, 8, 76, 69
10, 560160, Note_off_c, 8, 76, 64
10, 564120, Note_on_c, 8, 73, 82
10, 564240, Note_off_c, 8, 73, 64
10, 564240, Note_on_c, 8, 74, 82
10, 564360, Note_off_c, 8, 74, 64
10, 564360, Note_on_c, 8, 78, 82
10, 564480, Note_off_c, 8, 78, 64
10, 564480, Note_on_c, 8, 76, 82
10, 564600, Note_off_c, 8, 76, 64
10, 564600, Note_on_c, 8, 74, 82
10, 564720, Note_off_c, 8, 74, 64
10, 564720, Note_on_c, 8, 73, 82
10, 564840, Note_off_c, 8, 73, 64
10, 564840, Note_on_c, 8, 78, 82
10, 564960, Note_off_c, 8, 78, 64
10, 566040, Note_on_c, 8, 76, 108
10, 566160, Note_off_c, 8, 76, 64
10, 566160, Note_on_c, 8, 78, 108
10, 566280, Note_off_c, 8, 78, 64
10, 566280, Note_on_c, 8, 81, 108
10, 566400, Note_off_c, 8, 81, 64
10, 566400, Note_on_c, 8, 80, 108
10, 566520, Note_off_c, 8, 80, 64
10, 566520, Note_on_c, 8, 78, 108
10, 566640, Note_off_c, 8, 78, 64
10, 566640, Note_on_c, 8, 76, 108
10, 566760, Note_off_c, 8, 76, 64
10, 566760, Note_on_c, 8, 81, 108
10, 566880, Note_off_c, 8, 81, 64
10, 567960, Note_on_c, 8, 80, 127
10, 568080, Note_off_c, 8, 80, 64
10, 568080, Note_on_c, 8, 81, 127
10, 568200, Note_off_c, 8, 81, 64
10, 568200, Note_on_c, 8, 85, 127
10, 568320, Note_off_c, 8, 85, 64
10, 568320, Note_on_c, 8, 83, 127
10, 568440, Note_off_c, 8, 83, 64
10, 568440, Note_on_c, 8, 81, 127
10, 568560, Note_off_c, 8, 81, 64
10, 568560, Note_on_c, 8, 80, 127
10, 568680, Note_off_c, 8, 80, 64
10, 568680, Note_on_c, 8, 85, 127
10, 568800, Note_off_c, 8, 85, 64
10, 569880, Note_on_c, 8, 83, 127
10, 570000, Note_off_c, 8, 83, 64
10, 570000, Note_on_c, 8, 85, 127
10, 570120, Note_off_c, 8, 85, 64
10, 570120, Note_on_c, 8, 88, 127
10, 570240, Note_off_c, 8, 88, 64
10, 570240, Note_on_c, 8, 86, 127
10, 570360, Note_off_c, 8, 86, 64
10, 570360, Note_on_c, 8, 85, 127
10, 570480, Note_off_c, 8, 85, 64
10, 570480, Note_on_c, 8, 83, 127
10, 570600, Note_off_c, 8, 83, 64
10, 570600, Note_on_c, 8, 86, 127
10, 570720, Note_off_c, 8, 86, 64
10, 570840, Note_on_c, 8, 83, 127
10, 570960, Note_off_c, 8, 83, 64
10, 570960, Note_on_c, 8, 85, 127
10, 571080, Note_off_c, 8, 85, 64
10, 571080, Note_on_c, 8, 88, 127
10, 571200, Note_off_c, 8, 88, 64
10, 571200, Note_on_c, 8, 86, 127
10, 571320, Note_off_c, 8, 86, 64
10, 571320, Note_on_c, 8, 85, 127
10, 571440, Note_off_c, 8, 85, 64
10, 571440, Note_on_c, 8, 83, 127
10, 571560, Note_off_c, 8, 83, 64
10, 571560, Note_on_c, 8, 76, 127
10, 571560, Note_on_c, 8, 81, 127
10, 571560, Note_on_c, 8, 64, 127
10, 571560, Note_on_c, 8, 85, 127
10, 571560, Note_on_c, 8, 73, 127
10, 571680, Note_off_c, 8, 73, 64
10, 571680, Note_off_c, 8, 85, 64
10, 571680, Note_off_c, 8, 64, 64
10, 571680, Note_off_c, 8, 81, 64
10, 571680, Note_off_c, 8, 76, 64
10, 572640, Note_on_c, 8, 76, 127
10, 572640, Note_on_c, 8, 81, 127
10, 572640, Note_on_c, 8, 64, 127
10, 572640, Note_on_c, 8, 85, 127
10, 572640, Note_on_c, 8, 73, 127
10, 572760, Note_off_c, 8, 73, 64
10, 572760, Note_off_c, 8, 85, 64
10, 572760, Note_off_c, 8, 64, 64
10, 572760, Note_off_c, 8, 81, 64
10, 572760, Note_off_c, 8, 76, 64
10, 573720, Note_on_c, 8, 83, 127
10, 573720, Note_on_c, 8, 64, 127
10, 573720, Note_on_c, 8, 86, 127
10, 573720, Note_on_c, 8, 76, 127
10, 573840, Note_off_c, 8, 76, 64
10, 573840, Note_off_c, 8, 86, 64
10, 573840, Note_off_c, 8, 64, 64
10, 573840, Note_off_c, 8, 83, 64
10, 574800, Note_on_c, 8, 83, 127
10, 574800, Note_on_c, 8, 64, 127
10, 574800, Note_on_c, 8, 86, 127
10, 574800, Note_on_c, 8, 76, 127
10, 574920, Note_off_c, 8, 76, 64
10, 574920, Note_off_c, 8, 86, 64
10, 574920, Note_off_c, 8, 64, 64
10, 574920, Note_off_c, 8, 83, 64
10, 575880, Note_on_c, 8, 64, 127
10, 575880, Note_on_c, 8, 76, 127
10, 575880, Note_on_c, 8, 85, 127
10, 576000, Note_off_c, 8, 85, 64
10, 576000, Note_off_c, 8, 76, 64
10, 576000, Note_off_c, 8, 64, 64
10, 576360, Note_on_c, 8, 76, 127
10, 576360, Note_on_c, 8, 85, 127
10, 576360, Note_on_c, 8, 64, 127
10, 576480, Note_off_c, 8, 64, 64
10, 576480, Note_off_c, 8, 85, 64
10, 576480, Note_off_c, 8, 76, 64
10, 576840, Note_on_c, 8, 76, 127
10, 576840, Note_on_c, 8, 64, 127
10, 576840, Note_on_c, 8, 85, 127
10, 576960, Note_off_c, 8, 85, 64
10, 576960, Note_off_c, 8, 64, 64
10, 576960, Note_off_c, 8, 76, 64
10, 577320, Note_on_c, 8, 85, 127
10, 577320, Note_on_c, 8, 64, 127
10, 577320, Note_on_c, 8, 76, 127
10, 577440, Note_off_c, 8, 76, 64
10, 577440, Note_off_c, 8, 64, 64
10, 577440, Note_off_c, 8, 85, 64
10, 577800, Note_on_c, 8, 76, 127
10, 577800, Note_on_c, 8, 68, 127
10, 577800, Note_on_c, 8, 83, 127
10, 577920, Note_off_c, 8, 83, 64
10, 577920, Note_off_c, 8, 68, 64
10, 577920, Note_off_c, 8, 76, 64
10, 578280, Note_on_c, 8, 83, 127
10, 578280, Note_on_c, 8, 68, 127
10, 578280, Note_on_c, 8, 76, 127
10, 578400, Note_off_c, 8, 76, 64
10, 578400, Note_off_c, 8, 68, 64
10, 578400, Note_off_c, 8, 83, 64
10, 578760, Note_on_c, 8, 76, 127
10, 578760, Note_on_c, 8, 68, 127
10, 578760, Note_on_c, 8, 83, 127
10, 578880, Note_off_c, 8, 83, 64
10, 578880, Note_off_c, 8, 68, 64
10, 578880, Note_off_c, 8, 76, 64
10, 579240, Note_on_c, 8, 83, 127
10, 579240, Note_on_c, 8, 68, 127
10, 579240, Note_on_c, 8, 76, 127
10, 579360, Note_off_c, 8, 76, 64
10, 579360, Note_off_c, 8, 68, 64
10, 579360, Note_off_c, 8, 83, 64
10, 579720, Note_on_c, 8, 64, 127
10, 579720, Note_on_c, 8, 73, 127
10, 579720, Note_on_c, 8, 85, 127
10, 579720, Note_on_c, 8, 81, 127
10, 579720, Note_on_c, 8, 76, 127
10, 579840, Note_off_c, 8, 76, 64
10, 579840, Note_off_c, 8, 81, 64
10, 579840, Note_off_c, 8, 85, 64
10, 579840, Note_off_c, 8, 73, 64
10, 579840, Note_off_c, 8, 64, 64
10, 580800, Note_on_c, 8, 73, 127
10, 580800, Note_on_c, 8, 85, 127
10, 580800, Note_on_c, 8, 64, 127
10, 580800, Note_on_c, 8, 81, 127
10, 580800, Note_on_c, 8, 76, 127
10, 580920, Note_off_c, 8, 76, 64
10, 580920, Note_off_c, 8, 81, 64
10, 580920, Note_off_c, 8, 64, 64
10, 580920, Note_off_c, 8, 85, 64
10, 580920, Note_off_c, 8, 73, 64
10, 581880, Note_on_c, 8, 64, 127
10, 581880, Note_on_c, 8, 76, 127
10, 581880, Note_on_c, 8, 86, 127
10, 581880, Note_on_c, 8, 83, 127
10, 582000, Note_off_c, 8, 83, 64
10, 582000, Note_off_c, 8, 86, 64
10, 582000, Note_off_c, 8, 76, 64
10, 582000, Note_off_c, 8, 64, 64
10, 582960, Note_on_c, 8, 76, 127
10, 582960, Note_on_c, 8, 83, 127
10, 582960, Note_on_c, 8, 64, 127
10, 582960, Note_on_c, 8, 86, 127
10, 583080, Note_off_c, 8, 86, 64
10, 583080, Note_off_c, 8, 64, 64
10, 583080, Note_off_c, 8, 83, 64
10, 583080, Note_off_c, 8, 76, 64
10, 584040, Note_on_c, 8, 85, 100
10, 584136, Note_off_c, 8, 85, 64
10, 584160, Note_on_c, 8, 85, 100
10, 584256, Note_off_c, 8, 85, 64
10, 584280, Note_on_c, 8, 85, 100
10, 584376, Note_off_c, 8, 85, 64
10, 584400, Note_on_c, 8, 85, 100
10, 584496, Note_off_c, 8, 85, 64
10, 584520, Note_on_c, 8, 85, 100
10, 584616, Note_off_c, 8, 85, 64
10, 584640, Note_on_c, 8, 85, 100
10, 584736, Note_off_c, 8, 85, 64
10, 584760, Note_on_c, 8, 83, 100
10, 584856, Note_off_c, 8, 83, 64
10, 584880, Note_on_c, 8, 83, 100
10, 584976, Note_off_c, 8, 83, 64
10, 585000, Note_on_c, 8, 81, 100
10, 585096, Note_off_c, 8, 81, 64
10, 585120, Note_on_c, 8, 81, 100
10, 585216, Note_off_c, 8, 81, 64
10, 585240, Note_on_c, 8, 85, 100
10, 585336, Note_off_c, 8, 85, 64
10, 585360, Note_on_c, 8, 85, 100
10, 585456, Note_off_c, 8, 85, 64
10, 585480, Note_on_c, 8, 83, 100
10, 585576, Note_off_c, 8, 83, 64
10, 585600, Note_on_c, 8, 83, 100
10, 585696, Note_off_c, 8, 83, 64
10, 585720, Note_on_c, 8, 81, 100
10, 585816, Note_off_c, 8, 81, 64
10, 585840, Note_on_c, 8, 81, 100
10, 585936, Note_off_c, 8, 81, 64
10, 585960, Note_on_c, 8, 83, 100
10, 586056, Note_off_c, 8, 83, 64
10, 586080, Note_on_c, 8, 83, 100
10, 586176, Note_off_c, 8, 83, 64
10, 586200, Note_on_c, 8, 81, 100
10, 586296, Note_off_c, 8, 81, 64
10, 586320, Note_on_c, 8, 81, 100
10, 586416, Note_off_c, 8, 81, 64
10, 586440, Note_on_c, 8, 80, 100
10, 586536, Note_off_c, 8, 80, 64
10, 586560, Note_on_c, 8, 80, 100
10, 586656, Note_off_c, 8, 80, 64
10, 586680, Note_on_c, 8, 78, 100
10, 586776, Note_off_c, 8, 78, 64
10, 586800, Note_on_c, 8, 78, 100
10, 586896, Note_off_c, 8, 78, 64
10, 586920, Note_on_c, 8, 76, 100
10, 587016, Note_off_c, 8, 76, 64
10, 587040, Note_on_c, 8, 76, 100
10, 587136, Note_off_c, 8, 76, 64
10, 587160, Note_on_c, 8, 74, 100
10, 587256, Note_off_c, 8, 74, 64
10, 587280, Note_on_c, 8, 74, 100
10, 587376, Note_off_c, 8, 74, 64
10, 587400, Note_on_c, 8, 73, 100
10, 587496, Note_off_c, 8, 73, 64
10, 587520, Note_on_c, 8, 73, 100
10, 587616, Note_off_c, 8, 73, 64
10, 587640, Note_on_c, 8, 71, 100
10, 587736, Note_off_c, 8, 71, 64
10, 587760, Note_on_c, 8, 71, 100
10, 587856, Note_off_c, 8, 71, 64
10, 587880, Note_on_c, 8, 85, 127
10, 587976, Note_off_c, 8, 85, 64
10, 588000, Note_on_c, 8, 85, 100
10, 588096, Note_off_c, 8, 85, 64
10, 588120, Note_on_c, 8, 83, 100
10, 588216, Note_off_c, 8, 83, 64
10, 588240, Note_on_c, 8, 83, 100
10, 588336, Note_off_c, 8, 83, 64
10, 588360, Note_on_c, 8, 81, 100
10, 588456, Note_off_c, 8, 81, 64
10, 588480, Note_on_c, 8, 81, 100
10, 588576, Note_off_c, 8, 81, 64
10, 588600, Note_on_c, 8, 80, 100
10, 588696, Note_off_c, 8, 80, 64
10, 588720, Note_on_c, 8, 80, 100
10, 588816, Note_off_c, 8, 80, 64
10, 588840, Note_on_c, 8, 78, 100
10, 588936, Note_off_c, 8, 78, 64
10, 588960, Note_on_c, 8, 78, 100
10, 589056, Note_off_c, 8, 78, 64
10, 589080, Note_on_c, 8, 76, 100
10, 589176, Note_off_c, 8, 76, 64
10, 589200, Note_on_c, 8, 76, 100
10, 589296, Note_off_c, 8, 76, 64
10, 589320, Note_on_c, 8, 74, 100
10, 589416, Note_off_c, 8, 74, 64
10, 589440, Note_on_c, 8, 74, 100
10, 589536, Note_off_c, 8, 74, 64
10, 589560, Note_on_c, 8, 73, 100
10, 589656, Note_off_c, 8, 73, 64
10, 589680, Note_on_c, 8, 73, 100
10, 589776, Note_off_c, 8, 73, 64
10, 589800, Note_on_c, 8, 86, 127
10, 589896, Note_off_c, 8, 86, 64
10, 589920, Note_on_c, 8, 86, 100
10, 590016, Note_off_c, 8, 86, 64
10, 590040, Note_on_c, 8, 85, 100
10, 590136, Note_off_c, 8, 85, 64
10, 590160, Note_on_c, 8, 85, 100
10, 590256, Note_off_c, 8, 85, 64
10, 590280, Note_on_c, 8, 83, 100
10, 590376, Note_off_c, 8, 83, 64
10, 590400, Note_on_c, 8, 83, 100
10, 590496, Note_off_c, 8, 83, 64
10, 590520, Note_on_c, 8, 81, 100
10, 590616, Note_off_c, 8, 81, 64
10, 590640, Note_on_c, 8, 81, 100
10, 590736, Note_off_c, 8, 81, 64
10, 590760, Note_on_c, 8, 80, 100
10, 590856, Note_off_c, 8, 80, 64
10, 590880, Note_on_c, 8, 80, 100
10, 590976, Note_off_c, 8, 80, 64
10, 591000, Note_on_c, 8, 78, 100
10, 591096, Note_off_c, 8, 78, 64
10, 591120, Note_on_c, 8, 78, 100
10, 591216, Note_off_c, 8, 78, 64
10, 591240, Note_on_c, 8, 76, 100
10, 591336, Note_off_c, 8, 76, 64
10, 591360, Note_on_c, 8, 76, 100
10, 591456, Note_off_c, 8, 76, 64
10, 591480, Note_on_c, 8, 74, 100
10, 591576, Note_off_c, 8, 74, 64
10, 591600, Note_on_c, 8, 74, 100
10, 591696, Note_off_c, 8, 74, 64
10, 591720, Note_on_c, 8, 88, 127
10, 591816, Note_off_c, 8, 88, 64
10, 591840, Note_on_c, 8, 88, 100
10, 591936, Note_off_c, 8, 88, 64
10, 591960, Note_on_c, 8, 86, 100
10, 592056, Note_off_c, 8, 86, 64
10, 592080, Note_on_c, 8, 86, 100
10, 592176, Note_off_c, 8, 86, 64
10, 592200, Note_on_c, 8, 85, 100
10, 592296, Note_off_c, 8, 85, 64
10, 592320, Note_on_c, 8, 85, 100
10, 592416, Note_off_c, 8, 85, 64
10, 592440, Note_on_c, 8, 83, 100
10, 592536, Note_off_c, 8, 83, 64
10, 592560, Note_on_c, 8, 83, 100
10, 592656, Note_off_c, 8, 83, 64
10, 592680, Note_on_c, 8, 81, 100
10, 592776, Note_off_c, 8, 81, 64
10, 592800, Note_on_c, 8, 81, 100
10, 592896, Note_off_c, 8, 81, 64
10, 592920, Note_on_c, 8, 80, 100
10, 593016, Note_off_c, 8, 80, 64
10, 593040, Note_on_c, 8, 80, 100
10, 593136, Note_off_c, 8, 80, 64
10, 593160, Note_on_c, 8, 78, 100
10, 593256, Note_off_c, 8, 78, 64
10, 593280, Note_on_c, 8, 78, 100
10, 593376, Note_off_c, 8, 78, 64
10, 593400, Note_on_c, 8, 76, 100
10, 593496, Note_off_c, 8, 76, 64
10, 593520, Note_on_c, 8, 76, 100
10, 593616, Note_off_c, 8, 76, 64
10, 593640, Note_on_c, 8, 64, 120
10, 593736, Note_off_c, 8, 64, 64
10, 593760, Note_on_c, 8, 64, 120
10, 593856, Note_off_c, 8, 64, 64
10, 593880, Note_on_c, 8, 66, 120
10, 593976, Note_off_c, 8, 66, 64
10, 594000, Note_on_c, 8, 66, 120
10, 594096, Note_off_c, 8, 66, 64
10, 594120, Note_on_c, 8, 67, 120
10, 594216, Note_off_c, 8, 67, 64
10, 594240, Note_on_c, 8, 67, 120
10, 594336, Note_off_c, 8, 67, 64
10, 594360, Note_on_c, 8, 69, 120
10, 594456, Note_off_c, 8, 69, 64
10, 594480, Note_on_c, 8, 69, 120
10, 594576, Note_off_c, 8, 69, 64
10, 594600, Note_on_c, 8, 71, 120
10, 594696, Note_off_c, 8, 71, 64
10, 594720, Note_on_c, 8, 71, 120
10, 594816, Note_off_c, 8, 71, 64
10, 594840, Note_on_c, 8, 73, 120
10, 594936, Note_off_c, 8, 73, 64
10, 594960, Note_on_c, 8, 73, 120
10, 595056, Note_off_c, 8, 73, 64
10, 595080, Note_on_c, 8, 74, 120
10, 595176, Note_off_c, 8, 74, 64
10, 595200, Note_on_c, 8, 74, 120
10, 595296, Note_off_c, 8, 74, 64
10, 595320, Note_on_c, 8, 76, 120
10, 595416, Note_off_c, 8, 76, 64
10, 595440, Note_on_c, 8, 76, 120
10, 595536, Note_off_c, 8, 76, 64
10, 595560, Note_on_c, 8, 78, 120
10, 595656, Note_off_c, 8, 78, 64
10, 595680, Note_on_c, 8, 78, 120
10, 595776, Note_off_c, 8, 78, 64
10, 595800, Note_on_c, 8, 79, 120
10, 595896, Note_off_c, 8, 79, 64
10, 595920, Note_on_c, 8, 79, 120
10, 596016, Note_off_c, 8, 79, 64
10, 596040, Note_on_c, 8, 81, 120
10, 596136, Note_off_c, 8, 81, 64
10, 596160, Note_on_c, 8, 81, 120
10, 596256, Note_off_c, 8, 81, 64
10, 596280, Note_on_c, 8, 83, 120
10, 596376, Note_off_c, 8, 83, 64
10, 596400, Note_on_c, 8, 83, 120
10, 596496, Note_off_c, 8, 83, 64
10, 596520, Note_on_c, 8, 85, 120
10, 596616, Note_off_c, 8, 85, 64
10, 596640, Note_on_c, 8, 85, 120
10, 596736, Note_off_c, 8, 85, 64
10, 596760, Note_on_c, 8, 86, 120
10, 596856, Note_off_c, 8, 86, 64
10, 596880, Note_on_c, 8, 86, 120
10, 596976, Note_off_c, 8, 86, 64
10, 597000, Note_on_c, 8, 88, 120
10, 597096, Note_off_c, 8, 88, 64
10, 597120, Note_on_c, 8, 88, 120
10, 597216, Note_off_c, 8, 88, 64
10, 597240, Note_on_c, 8, 90, 120
10, 597336, Note_off_c, 8, 90, 64
10, 597360, Note_on_c, 8, 90, 120
10, 597456, Note_off_c, 8, 90, 64
10, 597480, Note_on_c, 8, 88, 127
10, 597576, Note_off_c, 8, 88, 64
10, 597600, Note_on_c, 8, 88, 127
10, 597696, Note_off_c, 8, 88, 64
10, 597720, Note_on_c, 8, 76, 127
10, 597816, Note_off_c, 8, 76, 64
10, 597840, Note_on_c, 8, 76, 127
10, 597936, Note_off_c, 8, 76, 64
10, 597960, Note_on_c, 8, 88, 127
10, 598056, Note_off_c, 8, 88, 64
10, 598080, Note_on_c, 8, 88, 127
10, 598176, Note_off_c, 8, 88, 64
10, 598200, Note_on_c, 8, 88, 127
10, 598296, Note_off_c, 8, 88, 64
10, 598320, Note_on_c, 8, 88, 127
10, 598416, Note_off_c, 8, 88, 64
10, 598440, Note_on_c, 8, 90, 127
10, 598536, Note_off_c, 8, 90, 64
10, 598560, Note_on_c, 8, 90, 127
10, 598656, Note_off_c, 8, 90, 64
10, 598680, Note_on_c, 8, 78, 127
10, 598776, Note_off_c, 8, 78, 64
10, 598800, Note_on_c, 8, 78, 127
10, 598896, Note_off_c, 8, 78, 64
10, 598920, Note_on_c, 8, 90, 127
10, 599016, Note_off_c, 8, 90, 64
10, 599040, Note_on_c, 8, 90, 127
10, 599136, Note_off_c, 8, 90, 64
10, 599160, Note_on_c, 8, 90, 127
10, 599256, Note_off_c, 8, 90, 64
10, 599280, Note_on_c, 8, 90, 127
10, 599376, Note_off_c, 8, 90, 64
10, 599400, Note_on_c, 8, 88, 127
10, 599496, Note_off_c, 8, 88, 64
10, 599520, Note_on_c, 8, 88, 127
10, 599616, Note_off_c, 8, 88, 64
10, 599640, Note_on_c, 8, 76, 127
10, 599736, Note_off_c, 8, 76, 64
10, 599760, Note_on_c, 8, 76, 127
10, 599856, Note_off_c, 8, 76, 64
10, 599880, Note_on_c, 8, 88, 127
10, 599976, Note_off_c, 8, 88, 64
10, 600000, Note_on_c, 8, 88, 127
10, 600096, Note_off_c, 8, 88, 64
10, 600120, Note_on_c, 8, 88, 127
10, 600216, Note_off_c, 8, 88, 64
10, 600240, Note_on_c, 8, 88, 127
10, 600336, Note_off_c, 8, 88, 64
10, 600360, Note_on_c, 8, 88, 127
10, 600456, Note_off_c, 8, 88, 64
10, 600480, Note_on_c, 8, 88, 127
10, 600576, Note_off_c, 8, 88, 64
10, 600600, Note_on_c, 8, 76, 127
10, 600696, Note_off_c, 8, 76, 64
10, 600720, Note_on_c, 8, 76, 127
10, 600816, Note_off_c, 8, 76, 64
10, 600840, Note_on_c, 8, 88, 127
10, 600936, Note_off_c, 8, 88, 64
10, 600960, Note_on_c, 8, 88, 127
10, 601056, Note_off_c, 8, 88, 64
10, 601080, Note_on_c, 8, 88, 127
10, 601176, Note_off_c, 8, 88, 64
10, 601200, Note_on_c, 8, 88, 127
10, 601296, Note_off_c, 8, 88, 64
10, 603240, Note_on_c, 8, 85, 50
10, 603336, Note_off_c, 8, 85, 64
10, 603360, Note_on_c, 8, 85, 50
10, 603456, Note_off_c, 8, 85, 64
10, 603480, Note_on_c, 8, 83, 50
10, 603576, Note_off_c, 8, 83, 64
10, 603600, Note_on_c, 8, 83, 50
10, 603696, Note_off_c, 8, 83, 64
10, 603720, Note_on_c, 8, 81, 50
10, 603816, Note_off_c, 8, 81, 64
10, 603840, Note_on_c, 8, 81, 50
10, 603936, Note_off_c, 8, 81, 64
10, 603960, Note_on_c, 8, 80, 50
10, 604056, Note_off_c, 8, 80, 64
10, 604080, Note_on_c, 8, 80, 50
10, 604176, Note_off_c, 8, 80, 64
10, 604200, Note_on_c, 8, 78, 50
10, 604296, Note_off_c, 8, 78, 64
10, 604320, Note_on_c, 8, 78, 50
10, 604416, Note_off_c, 8, 78, 64
10, 604440, Note_on_c, 8, 76, 50
10, 604536, Note_off_c, 8, 76, 64
10, 604560, Note_on_c, 8, 76, 50
10, 604656, Note_off_c, 8, 76, 64
10, 604680, Note_on_c, 8, 74, 50
10, 604776, Note_off_c, 8, 74, 64
10, 604800, Note_on_c, 8, 74, 50
10, 604896, Note_off_c, 8, 74, 64
10, 604920, Note_on_c, 8, 73, 50
10, 605016, Note_off_c, 8, 73, 64
10, 605040, Note_on_c, 8, 73, 50
10, 605136, Note_off_c, 8, 73, 64
10, 605160, Note_on_c, 8, 74, 64
10, 605256, Note_off_c, 8, 74, 64
10, 605280, Note_on_c, 8, 74, 66
10, 605376, Note_off_c, 8, 74, 64
10, 605400, Note_on_c, 8, 76, 67
10, 605496, Note_off_c, 8, 76, 64
10, 605520, Note_on_c, 8, 76, 69
10, 605616, Note_off_c, 8, 76, 64
10, 605640, Note_on_c, 8, 78, 70
10, 605736, Note_off_c, 8, 78, 64
10, 605760, Note_on_c, 8, 78, 72
10, 605856, Note_off_c, 8, 78, 64
10, 605880, Note_on_c, 8, 80, 74
10, 605976, Note_off_c, 8, 80, 64
10, 606000, Note_on_c, 8, 80, 75
10, 606096, Note_off_c, 8, 80, 64
10, 606120, Note_on_c, 8, 81, 77
10, 606216, Note_off_c, 8, 81, 64
10, 606240, Note_on_c, 8, 81, 78
10, 606336, Note_off_c, 8, 81, 64
10, 606360, Note_on_c, 8, 83, 80
10, 606456, Note_off_c, 8, 83, 64
10, 606480, Note_on_c, 8, 83, 82
10, 606576, Note_off_c, 8, 83, 64
10, 606600, Note_on_c, 8, 85, 83
10, 606696, Note_off_c, 8, 85, 64
10, 606720, Note_on_c, 8, 85, 85
10, 606816, Note_off_c, 8, 85, 64
10, 606840, Note_on_c, 8, 86, 86
10, 606936, Note_off_c, 8, 86, 64
10, 606960, Note_on_c, 8, 86, 88
10, 607056, Note_off_c, 8, 86, 64
10, 607080, Note_on_c, 8, 88, 127
10, 607176, Note_off_c, 8, 88, 64
10, 607200, Note_on_c, 8, 88, 91
10, 607296, Note_off_c, 8, 88, 64
10, 607320, Note_on_c, 8, 86, 93
10, 607416, Note_off_c, 8, 86, 64
10, 607440, Note_on_c, 8, 86, 94
10, 607536, Note_off_c, 8, 86, 64
10, 607560, Note_on_c, 8, 85, 96
10, 607656, Note_off_c, 8, 85, 64
10, 607680, Note_on_c, 8, 85, 97
10, 607776, Note_off_c, 8, 85, 64
10, 607800, Note_on_c, 8, 83, 99
10, 607896, Note_off_c, 8, 83, 64
10, 607920, Note_on_c, 8, 83, 101
10, 608016, Note_off_c, 8, 83, 64
10, 608040, Note_on_c, 8, 81, 102
10, 608136, Note_off_c, 8, 81, 64
10, 608160, Note_on_c, 8, 81, 104
10, 608256, Note_off_c, 8, 81, 64
10, 608280, Note_on_c, 8, 80, 105
10, 608376, Note_off_c, 8, 80, 64
10, 608400, Note_on_c, 8, 80, 107
10, 608496, Note_off_c, 8, 80, 64
10, 608520, Note_on_c, 8, 78, 109
10, 608616, Note_off_c, 8, 78, 64
10, 608640, Note_on_c, 8, 78, 110
10, 608736, Note_off_c, 8, 78, 64
10, 608760, Note_on_c, 8, 76, 112
10, 608856, Note_off_c, 8, 76, 64
10, 608880, Note_on_c, 8, 76, 113
10, 608976, Note_off_c, 8, 76, 64
10, 609000, Note_on_c, 8, 64, 120
10, 609096, Note_off_c, 8, 64, 64
10, 609120, Note_on_c, 8, 64, 120
10, 609216, Note_off_c, 8, 64, 64
10, 609240, Note_on_c, 8, 66, 120
10, 609336, Note_off_c, 8, 66, 64
10, 609360, Note_on_c, 8, 66, 120
10, 609456, Note_off_c, 8, 66, 64
10, 609480, Note_on_c, 8, 67, 120
10, 609576, Note_off_c, 8, 67, 64
10, 609600, Note_on_c, 8, 67, 120
10, 609696, Note_off_c, 8, 67, 64
10, 609720, Note_on_c, 8, 69, 120
10, 609816, Note_off_c, 8, 69, 64
10, 609840, Note_on_c, 8, 69, 120
10, 609936, Note_off_c, 8, 69, 64
10, 609960, Note_on_c, 8, 71, 120
10, 610056, Note_off_c, 8, 71, 64
10, 610080, Note_on_c, 8, 71, 120
10, 610176, Note_off_c, 8, 71, 64
10, 610200, Note_on_c, 8, 73, 120
10, 610296, Note_off_c, 8, 73, 64
10, 610320, Note_on_c, 8, 73, 120
10, 610416, Note_off_c, 8, 73, 64
10, 610440, Note_on_c, 8, 74, 120
10, 610536, Note_off_c, 8, 74, 64
10, 610560, Note_on_c, 8, 74, 120
10, 610656, Note_off_c, 8, 74, 64
10, 610680, Note_on_c, 8, 76, 120
10, 610776, Note_off_c, 8, 76, 64
10, 610800, Note_on_c, 8, 76, 120
10, 610896, Note_off_c, 8, 76, 64
10, 610920, Note_on_c, 8, 78, 120
10, 611016, Note_off_c, 8, 78, 64
10, 611040, Note_on_c, 8, 78, 120
10, 611136, Note_off_c, 8, 78, 64
10, 611160, Note_on_c, 8, 79, 120
10, 611256, Note_off_c, 8, 79, 64
10, 611280, Note_on_c, 8, 79, 120
10, 611376, Note_off_c, 8, 79, 64
10, 611400, Note_on_c, 8, 81, 120
10, 611496, Note_off_c, 8, 81, 64
10, 611520, Note_on_c, 8, 81, 120
10, 611616, Note_off_c, 8, 81, 64
10, 611640, Note_on_c, 8, 83, 120
10, 611736, Note_off_c, 8, 83, 64
10, 611760, Note_on_c, 8, 83, 120
10, 611856, Note_off_c, 8, 83, 64
10, 611880, Note_on_c, 8, 85, 120
10, 611976, Note_off_c, 8, 85, 64
10, 612000, Note_on_c, 8, 85, 120
10, 612096, Note_off_c, 8, 85, 64
10, 612120, Note_on_c, 8, 86, 120
10, 612216, Note_off_c, 8, 86, 64
10, 612240, Note_on_c, 8, 86, 120
10, 612336, Note_off_c, 8, 86, 64
10, 612360, Note_on_c, 8, 88, 120
10, 612456, Note_off_c, 8, 88, 64
10, 612480, Note_on_c, 8, 88, 120
10, 612576, Note_off_c, 8, 88, 64
10, 612600, Note_on_c, 8, 90, 120
10, 612696, Note_off_c, 8, 90, 64
10, 612720, Note_on_c, 8, 90, 120
10, 612816, Note_off_c, 8, 90, 64
10, 612840, Note_on_c, 8, 88, 127
10, 612936, Note_off_c, 8, 88, 64
10, 612960, Note_on_c, 8, 88, 127
10, 613056, Note_off_c, 8, 88, 64
10, 613080, Note_on_c, 8, 76, 127
10, 613176, Note_off_c, 8, 76, 64
10, 613200, Note_on_c, 8, 76, 127
10, 613296, Note_off_c, 8, 76, 64
10, 613320, Note_on_c, 8, 88, 127
10, 613416, Note_off_c, 8, 88, 64
10, 613440, Note_on_c, 8, 88, 127
10, 613536, Note_off_c, 8, 88, 64
10, 613560, Note_on_c, 8, 88, 127
10, 613656, Note_off_c, 8, 88, 64
10, 613680, Note_on_c, 8, 88, 127
10, 613776, Note_off_c, 8, 88, 64
10, 613800, Note_on_c, 8, 90, 127
10, 613896, Note_off_c, 8, 90, 64
10, 613920, Note_on_c, 8, 90, 127
10, 614016, Note_off_c, 8, 90, 64
10, 614040, Note_on_c, 8, 78, 127
10, 614136, Note_off_c, 8, 78, 64
10, 614160, Note_on_c, 8, 78, 127
10, 614256, Note_off_c, 8, 78, 64
10, 614280, Note_on_c, 8, 90, 127
10, 614376, Note_off_c, 8, 90, 64
10, 614400, Note_on_c, 8, 90, 127
10, 614496, Note_off_c, 8, 90, 64
10, 614520, Note_on_c, 8, 90, 127
10, 614616, Note_off_c, 8, 90, 64
10, 614640, Note_on_c, 8, 90, 127
10, 614736, Note_off_c, 8, 90, 64
10, 614760, Note_on_c, 8, 88, 127
10, 614856, Note_off_c, 8, 88, 64
10, 614880, Note_on_c, 8, 88, 127
10, 614976, Note_off_c, 8, 88, 64
10, 615000, Note_on_c, 8, 76, 127
10, 615096, Note_off_c, 8, 76, 64
10, 615120, Note_on_c, 8, 76, 127
10, 615216, Note_off_c, 8, 76, 64
10, 615240, Note_on_c, 8, 88, 127
10, 615336, Note_off_c, 8, 88, 64
10, 615360, Note_on_c, 8, 88, 127
10, 615456, Note_off_c, 8, 88, 64
10, 615480, Note_on_c, 8, 88, 127
10, 615576, Note_off_c, 8, 88, 64
10, 615600, Note_on_c, 8, 88, 127
10, 615696, Note_off_c, 8, 88, 64
10, 615720, Note_on_c, 8, 88, 127
10, 615816, Note_off_c, 8, 88, 64
10, 615840, Note_on_c, 8, 88, 127
10, 615936, Note_off_c, 8, 88, 64
10, 615960, Note_on_c, 8, 76, 127
10, 616056, Note_off_c, 8, 76, 64
10, 616080, Note_on_c, 8, 76, 127
10, 616176, Note_off_c, 8, 76, 64
10, 616200, Note_on_c, 8, 88, 127
10, 616296, Note_off_c, 8, 88, 64
10, 616320, Note_on_c, 8, 88, 127
10, 616416, Note_off_c, 8, 88, 64
10, 616440, Note_on_c, 8, 88, 127
10, 616536, Note_off_c, 8, 88, 64
10, 616560, Note_on_c, 8, 88, 127
10, 616656, Note_off_c, 8, 88, 64
10, 616680, Note_on_c, 8, 81, 127
10, 616776, Note_off_c, 8, 81, 64
10, 616920, Note_on_c, 8, 81, 127
10, 617040, Note_off_c, 8, 81, 64
10, 617040, Note_on_c, 8, 83, 127
10, 617160, Note_off_c, 8, 83, 64
10, 617160, Note_on_c, 8, 86, 127
10, 617280, Note_off_c, 8, 86, 64
10, 617280, Note_on_c, 8, 85, 127
10, 617400, Note_off_c, 8, 85, 64
10, 617400, Note_on_c, 8, 83, 127
10, 617520, Note_off_c, 8, 83, 64
10, 617520, Note_on_c, 8, 81, 127
10, 617640, Note_off_c, 8, 81, 64
10, 617640, Note_on_c, 8, 88, 127
10, 618720, Note_off_c, 8, 88, 64
10, 618840, Note_on_c, 8, 83, 127
10, 618960, Note_off_c, 8, 83, 64
10, 618960, Note_on_c, 8, 85, 127
10, 619080, Note_off_c, 8, 85, 64
10, 619080, Note_on_c, 8, 88, 127
10, 619200, Note_off_c, 8, 88, 64
10, 619200, Note_on_c, 8, 86, 127
10, 619320, Note_off_c, 8, 86, 64
10, 619320, Note_on_c, 8, 85, 127
10, 619440, Note_off_c, 8, 85, 64
10, 619440, Note_on_c, 8, 83, 127
10, 619560, Note_off_c, 8, 83, 64
10, 619560, Note_on_c, 8, 81, 127
10, 619680, Note_off_c, 8, 81, 64
10, 619800, Note_on_c, 8, 83, 127
10, 619920, Note_off_c, 8, 83, 64
10, 619920, Note_on_c, 8, 85, 127
10, 620040, Note_off_c, 8, 85, 64
10, 620040, Note_on_c, 8, 88, 127
10, 620160, Note_off_c, 8, 88, 64
10, 620160, Note_on_c, 8, 86, 127
10, 620280, Note_off_c, 8, 86, 64
10, 620280, Note_on_c, 8, 85, 127
10, 620400, Note_off_c, 8, 85, 64
10, 620400, Note_on_c, 8, 83, 127
10, 620520, Note_off_c, 8, 83, 64
10, 620520, Note_on_c, 8, 81, 127
10, 620616, Note_off_c, 8, 81, 64
10, 620760, Note_on_c, 8, 81, 127
10, 620880, Note_off_c, 8, 81, 64
10, 620880, Note_on_c, 8, 83, 127
10, 621000, Note_off_c, 8, 83, 64
10, 621000, Note_on_c, 8, 86, 127
10, 621120, Note_off_c, 8, 86, 64
10, 621120, Note_on_c, 8, 85, 127
10, 621240, Note_off_c, 8, 85, 64
10, 621240, Note_on_c, 8, 83, 127
10, 621360, Note_off_c, 8, 83, 64
10, 621360, Note_on_c, 8, 81, 127
10, 621480, Note_off_c, 8, 81, 64
10, 621480, Note_on_c, 8, 88, 127
10, 622560, Note_off_c, 8, 88, 64
10, 622680, Note_on_c, 8, 83, 127
10, 622800, Note_off_c, 8, 83, 64
10, 622800, Note_on_c, 8, 85, 127
10, 622920, Note_off_c, 8, 85, 64
10, 622920, Note_on_c, 8, 88, 127
10, 623040, Note_off_c, 8, 88, 64
10, 623040, Note_on_c, 8, 86, 127
10, 623160, Note_off_c, 8, 86, 64
10, 623160, Note_on_c, 8, 85, 127
10, 623280, Note_off_c, 8, 85, 64
10, 623280, Note_on_c, 8, 83, 127
10, 623400, Note_off_c, 8, 83, 64
10, 623400, Note_on_c, 8, 81, 127
10, 623520, Note_off_c, 8, 81, 64
10, 623640, Note_on_c, 8, 83, 127
10, 623760, Note_off_c, 8, 83, 64
10, 623760, Note_on_c, 8, 85, 127
10, 623880, Note_off_c, 8, 85, 64
10, 623880, Note_on_c, 8, 88, 127
10, 624000, Note_off_c, 8, 88, 64
10, 624000, Note_on_c, 8, 86, 127
10, 624120, Note_off_c, 8, 86, 64
10, 624120, Note_on_c, 8, 85, 127
10, 624240, Note_off_c, 8, 85, 64
10, 624240, Note_on_c, 8, 83, 127
10, 624360, Note_off_c, 8, 83, 64
10, 624360, Note_on_c, 8, 88, 127
10, 624480, Note_off_c, 8, 88, 64
10, 624480, Note_on_c, 8, 86, 102
10, 624600, Note_off_c, 8, 86, 64
10, 624600, Note_on_c, 8, 85, 102
10, 624720, Note_off_c, 8, 85, 64
10, 624720, Note_on_c, 8, 83, 102
10, 624840, Note_off_c, 8, 83, 64
10, 624840, Note_on_c, 8, 88, 127
10, 624960, Note_off_c, 8, 88, 64
10, 624960, Note_on_c, 8, 86, 102
10, 625080, Note_off_c, 8, 86, 64
10, 625080, Note_on_c, 8, 85, 102
10, 625200, Note_off_c, 8, 85, 64
10, 625200, Note_on_c, 8, 83, 102
10, 625320, Note_off_c, 8, 83, 64
10, 625320, Note_on_c, 8, 88, 127
10, 625440, Note_off_c, 8, 88, 64
10, 625440, Note_on_c, 8, 86, 102
10, 625560, Note_off_c, 8, 86, 64
10, 625560, Note_on_c, 8, 85, 102
10, 625680, Note_off_c, 8, 85, 64
10, 625680, Note_on_c, 8, 83, 102
10, 625800, Note_off_c, 8, 83, 64
10, 625800, Note_on_c, 8, 88, 127
10, 625920, Note_off_c, 8, 88, 64
10, 625920, Note_on_c, 8, 86, 102
10, 626040, Note_off_c, 8, 86, 64
10, 626040, Note_on_c, 8, 85, 102
10, 626160, Note_off_c, 8, 85, 64
10, 626160, Note_on_c, 8, 83, 102
10, 626280, Note_off_c, 8, 83, 64
10, 626280, Note_on_c, 8, 88, 127
10, 626400, Note_off_c, 8, 88, 64
10, 626400, Note_on_c, 8, 86, 127
10, 626520, Note_off_c, 8, 86, 64
10, 626520, Note_on_c, 8, 85, 127
10, 626640, Note_off_c, 8, 85, 64
10, 626640, Note_on_c, 8, 83, 127
10, 626760, Note_off_c, 8, 83, 64
10, 626760, Note_on_c, 8, 81, 127
10, 626880, Note_off_c, 8, 81, 64
10, 626880, Note_on_c, 8, 80, 127
10, 627000, Note_off_c, 8, 80, 64
10, 627000, Note_on_c, 8, 78, 127
10, 627120, Note_off_c, 8, 78, 64
10, 627120, Note_on_c, 8, 76, 127
10, 627240, Note_off_c, 8, 76, 64
10, 627240, Note_on_c, 8, 74, 127
10, 627360, Note_off_c, 8, 74, 64
10, 627360, Note_on_c, 8, 73, 127
10, 627480, Note_off_c, 8, 73, 64
10, 627480, Note_on_c, 8, 71, 127
10, 627600, Note_off_c, 8, 71, 64
10, 627600, Note_on_c, 8, 69, 127
10, 627720, Note_off_c, 8, 69, 64
10, 627720, Note_on_c, 8, 68, 127
10, 627800, Note_off_c, 8, 68, 64
10, 627800, Note_on_c, 8, 66, 127
10, 627880, Note_off_c, 8, 66, 64
10, 627880, Note_on_c, 8, 64, 127
10, 627960, Note_off_c, 8, 64, 64
10, 627960, Note_on_c, 8, 62, 127
10, 628040, Note_off_c, 8, 62, 64
10, 628040, Note_on_c, 8, 61, 127
10, 628120, Note_off_c, 8, 61, 64
10, 628120, Note_on_c, 8, 59, 127
10, 628200, Note_off_c, 8, 59, 64
10, 628200, Note_on_c, 8, 57, 127
10, 628320, Note_off_c, 8, 57, 64
10, 628440, Control_c, 8, 7, 126
10, 629280, Note_on_c, 8, 81, 127
10, 629280, Note_on_c, 8, 73, 127
10, 629400, Note_off_c, 8, 73, 64
10, 629400, Note_off_c, 8, 81, 64
10, 630480, Note_on_c, 8, 57, 127
10, 630600, Note_off_c, 8, 57, 64
10, 630600, End_track
11, 0, Start_track
11, 0, Title_t, "Violin 2"
11, 0, MIDI_port, 0
11, 0, Channel_prefix, 10
11, 0, Control_c, 10, 7, 90
11, 0, Control_c, 10, 10, 45
11, 0, Program_c, 10, 48
11, 0, Control_c, 10, 91, 66
11, 0, Program_c, 10, 48
11, 480, Control_c, 10, 93, 90
11, 480, Control_c, 10, 10, 34
11, 1920, Control_c, 10, 7, 110
11, 5760, Note_on_c, 10, 64, 114
11, 5760, Note_on_c, 10, 71, 114
11, 5904, Note_off_c, 10, 71, 64
11, 5904, Note_off_c, 10, 64, 64
11, 8160, Note_on_c, 10, 64, 114
11, 8160, Note_on_c, 10, 74, 114
11, 8304, Note_off_c, 10, 74, 64
11, 8304, Note_off_c, 10, 64, 64
11, 10560, Note_on_c, 10, 64, 127
11, 10560, Note_on_c, 10, 59, 72
11, 10656, Note_off_c, 10, 59, 64
11, 10656, Note_off_c, 10, 64, 64
11, 10680, Note_on_c, 10, 64, 72
11, 10680, Note_on_c, 10, 59, 72
11, 10776, Note_off_c, 10, 59, 64
11, 10776, Note_off_c, 10, 64, 64
11, 10800, Note_on_c, 10, 59, 72
11, 10800, Note_on_c, 10, 64, 72
11, 10896, Note_off_c, 10, 64, 64
11, 10896, Note_off_c, 10, 59, 64
11, 10920, Note_on_c, 10, 64, 72
11, 10920, Note_on_c, 10, 59, 72
11, 11016, Note_off_c, 10, 59, 64
11, 11016, Note_off_c, 10, 64, 64
11, 11040, Note_on_c, 10, 57, 127
11, 11040, Note_on_c, 10, 64, 127
11, 11136, Note_off_c, 10, 64, 64
11, 11136, Note_off_c, 10, 57, 64
11, 11160, Note_on_c, 10, 64, 72
11, 11160, Note_on_c, 10, 57, 72
11, 11256, Note_off_c, 10, 57, 64
11, 11256, Note_off_c, 10, 64, 64
11, 11280, Note_on_c, 10, 59, 72
11, 11280, Note_on_c, 10, 64, 72
11, 11376, Note_off_c, 10, 64, 64
11, 11376, Note_off_c, 10, 59, 64
11, 11400, Note_on_c, 10, 64, 72
11, 11400, Note_on_c, 10, 59, 72
11, 11496, Note_off_c, 10, 59, 64
11, 11496, Note_off_c, 10, 64, 64
11, 11520, Note_on_c, 10, 64, 72
11, 11520, Note_on_c, 10, 61, 72
11, 11616, Note_off_c, 10, 61, 64
11, 11616, Note_off_c, 10, 64, 64
11, 11640, Note_on_c, 10, 64, 72
11, 11640, Note_on_c, 10, 61, 72
11, 11736, Note_off_c, 10, 61, 64
11, 11736, Note_off_c, 10, 64, 64
11, 11760, Note_on_c, 10, 64, 72
11, 11760, Note_on_c, 10, 61, 72
11, 11856, Note_off_c, 10, 61, 64
11, 11856, Note_off_c, 10, 64, 64
11, 11880, Note_on_c, 10, 61, 72
11, 11880, Note_on_c, 10, 64, 72
11, 11976, Note_off_c, 10, 64, 64
11, 11976, Note_off_c, 10, 61, 64
11, 12000, Note_on_c, 10, 64, 127
11, 12000, Note_on_c, 10, 59, 127
11, 12096, Note_off_c, 10, 59, 64
11, 12096, Note_off_c, 10, 64, 64
11, 12120, Note_on_c, 10, 59, 72
11, 12120, Note_on_c, 10, 64, 72
11, 12216, Note_off_c, 10, 64, 64
11, 12216, Note_off_c, 10, 59, 64
11, 12240, Note_on_c, 10, 61, 72
11, 12240, Note_on_c, 10, 64, 72
11, 12336, Note_off_c, 10, 64, 64
11, 12336, Note_off_c, 10, 61, 64
11, 12360, Note_on_c, 10, 64, 72
11, 12360, Note_on_c, 10, 61, 72
11, 12456, Note_off_c, 10, 61, 64
11, 12456, Note_off_c, 10, 64, 64
11, 12480, Note_on_c, 10, 64, 72
11, 12480, Note_on_c, 10, 59, 72
11, 12576, Note_off_c, 10, 59, 64
11, 12576, Note_off_c, 10, 64, 64
11, 12600, Note_on_c, 10, 64, 72
11, 12600, Note_on_c, 10, 59, 72
11, 12696, Note_off_c, 10, 59, 64
11, 12696, Note_off_c, 10, 64, 64
11, 12720, Note_on_c, 10, 64, 72
11, 12720, Note_on_c, 10, 59, 72
11, 12816, Note_off_c, 10, 59, 64
11, 12816, Note_off_c, 10, 64, 64
11, 12840, Note_on_c, 10, 59, 72
11, 12840, Note_on_c, 10, 64, 72
11, 12936, Note_off_c, 10, 64, 64
11, 12936, Note_off_c, 10, 59, 64
11, 12960, Note_on_c, 10, 57, 72
11, 12960, Note_on_c, 10, 64, 72
11, 13056, Note_off_c, 10, 64, 64
11, 13056, Note_off_c, 10, 57, 64
11, 13080, Note_on_c, 10, 57, 72
11, 13080, Note_on_c, 10, 64, 72
11, 13176, Note_off_c, 10, 64, 64
11, 13176, Note_off_c, 10, 57, 64
11, 13200, Note_on_c, 10, 64, 72
11, 13200, Note_on_c, 10, 59, 72
11, 13296, Note_off_c, 10, 59, 64
11, 13296, Note_off_c, 10, 64, 64
11, 13320, Note_on_c, 10, 59, 72
11, 13320, Note_on_c, 10, 64, 72
11, 13416, Note_off_c, 10, 64, 64
11, 13416, Note_off_c, 10, 59, 64
11, 13440, Note_on_c, 10, 61, 72
11, 13536, Note_off_c, 10, 61, 64
11, 13560, Note_on_c, 10, 61, 72
11, 13656, Note_off_c, 10, 61, 64
11, 13680, Note_on_c, 10, 62, 72
11, 13776, Note_off_c, 10, 62, 64
11, 13800, Note_on_c, 10, 64, 72
11, 13896, Note_off_c, 10, 64, 64
11, 13920, Note_on_c, 10, 66, 127
11, 14016, Note_off_c, 10, 66, 64
11, 14040, Note_on_c, 10, 64, 72
11, 14136, Note_off_c, 10, 64, 64
11, 14160, Note_on_c, 10, 62, 72
11, 14256, Note_off_c, 10, 62, 64
11, 14280, Note_on_c, 10, 61, 72
11, 14376, Note_off_c, 10, 61, 64
11, 14400, Note_on_c, 10, 64, 72
11, 14400, Note_on_c, 10, 59, 72
11, 14496, Note_off_c, 10, 59, 64
11, 14496, Note_off_c, 10, 64, 64
11, 14520, Note_on_c, 10, 64, 72
11, 14520, Note_on_c, 10, 59, 72
11, 14616, Note_off_c, 10, 59, 64
11, 14616, Note_off_c, 10, 64, 64
11, 14640, Note_on_c, 10, 59, 72
11, 14640, Note_on_c, 10, 64, 72
11, 14736, Note_off_c, 10, 64, 64
11, 14736, Note_off_c, 10, 59, 64
11, 14760, Note_on_c, 10, 64, 72
11, 14760, Note_on_c, 10, 59, 72
11, 14856, Note_off_c, 10, 59, 64
11, 14856, Note_off_c, 10, 64, 64
11, 14880, Note_on_c, 10, 64, 127
11, 14880, Note_on_c, 10, 57, 127
11, 14976, Note_off_c, 10, 57, 64
11, 14976, Note_off_c, 10, 64, 64
11, 15000, Note_on_c, 10, 57, 72
11, 15000, Note_on_c, 10, 64, 72
11, 15096, Note_off_c, 10, 64, 64
11, 15096, Note_off_c, 10, 57, 64
11, 15120, Note_on_c, 10, 59, 72
11, 15120, Note_on_c, 10, 64, 72
11, 15216, Note_off_c, 10, 64, 64
11, 15216, Note_off_c, 10, 59, 64
11, 15240, Note_on_c, 10, 64, 72
11, 15240, Note_on_c, 10, 59, 72
11, 15336, Note_off_c, 10, 59, 64
11, 15336, Note_off_c, 10, 64, 64
11, 15360, Note_on_c, 10, 64, 72
11, 15360, Note_on_c, 10, 61, 72
11, 15456, Note_off_c, 10, 61, 64
11, 15456, Note_off_c, 10, 64, 64
11, 15480, Note_on_c, 10, 61, 72
11, 15480, Note_on_c, 10, 64, 72
11, 15576, Note_off_c, 10, 64, 64
11, 15576, Note_off_c, 10, 61, 64
11, 15600, Note_on_c, 10, 64, 72
11, 15600, Note_on_c, 10, 61, 72
11, 15696, Note_off_c, 10, 61, 64
11, 15696, Note_off_c, 10, 64, 64
11, 15720, Note_on_c, 10, 64, 72
11, 15720, Note_on_c, 10, 61, 72
11, 15816, Note_off_c, 10, 61, 64
11, 15816, Note_off_c, 10, 64, 64
11, 15840, Note_on_c, 10, 64, 127
11, 15840, Note_on_c, 10, 59, 127
11, 15936, Note_off_c, 10, 59, 64
11, 15936, Note_off_c, 10, 64, 64
11, 15960, Note_on_c, 10, 64, 72
11, 15960, Note_on_c, 10, 59, 72
11, 16056, Note_off_c, 10, 59, 64
11, 16056, Note_off_c, 10, 64, 64
11, 16080, Note_on_c, 10, 61, 72
11, 16080, Note_on_c, 10, 64, 72
11, 16176, Note_off_c, 10, 64, 64
11, 16176, Note_off_c, 10, 61, 64
11, 16200, Note_on_c, 10, 64, 72
11, 16200, Note_on_c, 10, 61, 72
11, 16296, Note_off_c, 10, 61, 64
11, 16296, Note_off_c, 10, 64, 64
11, 16320, Note_on_c, 10, 59, 72
11, 16320, Note_on_c, 10, 64, 72
11, 16416, Note_off_c, 10, 64, 64
11, 16416, Note_off_c, 10, 59, 64
11, 16440, Note_on_c, 10, 59, 72
11, 16440, Note_on_c, 10, 64, 72
11, 16536, Note_off_c, 10, 64, 64
11, 16536, Note_off_c, 10, 59, 64
11, 16560, Note_on_c, 10, 64, 72
11, 16560, Note_on_c, 10, 59, 72
11, 16656, Note_off_c, 10, 59, 64
11, 16656, Note_off_c, 10, 64, 64
11, 16680, Note_on_c, 10, 59, 72
11, 16680, Note_on_c, 10, 64, 72
11, 16776, Note_off_c, 10, 64, 64
11, 16776, Note_off_c, 10, 59, 64
11, 16800, Note_on_c, 10, 64, 72
11, 16800, Note_on_c, 10, 57, 72
11, 16896, Note_off_c, 10, 57, 64
11, 16896, Note_off_c, 10, 64, 64
11, 16920, Note_on_c, 10, 64, 72
11, 16920, Note_on_c, 10, 57, 72
11, 17016, Note_off_c, 10, 57, 64
11, 17016, Note_off_c, 10, 64, 64
11, 17040, Note_on_c, 10, 64, 72
11, 17040, Note_on_c, 10, 59, 72
11, 17136, Note_off_c, 10, 59, 64
11, 17136, Note_off_c, 10, 64, 64
11, 17160, Note_on_c, 10, 64, 72
11, 17160, Note_on_c, 10, 59, 72
11, 17256, Note_off_c, 10, 59, 64
11, 17256, Note_off_c, 10, 64, 64
11, 17280, Note_on_c, 10, 61, 72
11, 17376, Note_off_c, 10, 61, 64
11, 17400, Note_on_c, 10, 62, 72
11, 17496, Note_off_c, 10, 62, 64
11, 17520, Note_on_c, 10, 64, 72
11, 17616, Note_off_c, 10, 64, 64
11, 17640, Note_on_c, 10, 66, 72
11, 17736, Note_off_c, 10, 66, 64
11, 17760, Note_on_c, 10, 68, 72
11, 17856, Note_off_c, 10, 68, 64
11, 17880, Note_on_c, 10, 69, 72
11, 17976, Note_off_c, 10, 69, 64
11, 18000, Note_on_c, 10, 71, 72
11, 18096, Note_off_c, 10, 71, 64
11, 18120, Note_on_c, 10, 73, 72
11, 18216, Note_off_c, 10, 73, 64
11, 18240, Note_on_c, 10, 64, 127
11, 18240, Note_on_c, 10, 59, 72
11, 18336, Note_off_c, 10, 59, 64
11, 18336, Note_off_c, 10, 64, 64
11, 18360, Note_on_c, 10, 64, 72
11, 18360, Note_on_c, 10, 59, 72
11, 18456, Note_off_c, 10, 59, 64
11, 18456, Note_off_c, 10, 64, 64
11, 18480, Note_on_c, 10, 59, 72
11, 18480, Note_on_c, 10, 64, 72
11, 18576, Note_off_c, 10, 64, 64
11, 18576, Note_off_c, 10, 59, 64
11, 18600, Note_on_c, 10, 64, 72
11, 18600, Note_on_c, 10, 59, 72
11, 18696, Note_off_c, 10, 59, 64
11, 18696, Note_off_c, 10, 64, 64
11, 18720, Note_on_c, 10, 57, 127
11, 18720, Note_on_c, 10, 64, 127
11, 18816, Note_off_c, 10, 64, 64
11, 18816, Note_off_c, 10, 57, 64
11, 18840, Note_on_c, 10, 64, 72
11, 18840, Note_on_c, 10, 57, 72
11, 18936, Note_off_c, 10, 57, 64
11, 18936, Note_off_c, 10, 64, 64
11, 18960, Note_on_c, 10, 59, 72
11, 18960, Note_on_c, 10, 64, 72
11, 19056, Note_off_c, 10, 64, 64
11, 19056, Note_off_c, 10, 59, 64
11, 19080, Note_on_c, 10, 64, 72
11, 19080, Note_on_c, 10, 59, 72
11, 19176, Note_off_c, 10, 59, 64
11, 19176, Note_off_c, 10, 64, 64
11, 19200, Note_on_c, 10, 64, 72
11, 19200, Note_on_c, 10, 61, 72
11, 19296, Note_off_c, 10, 61, 64
11, 19296, Note_off_c, 10, 64, 64
11, 19320, Note_on_c, 10, 64, 72
11, 19320, Note_on_c, 10, 61, 72
11, 19416, Note_off_c, 10, 61, 64
11, 19416, Note_off_c, 10, 64, 64
11, 19440, Note_on_c, 10, 64, 72
11, 19440, Note_on_c, 10, 61, 72
11, 19536, Note_off_c, 10, 61, 64
11, 19536, Note_off_c, 10, 64, 64
11, 19560, Note_on_c, 10, 61, 72
11, 19560, Note_on_c, 10, 64, 72
11, 19656, Note_off_c, 10, 64, 64
11, 19656, Note_off_c, 10, 61, 64
11, 19680, Note_on_c, 10, 64, 127
11, 19680, Note_on_c, 10, 59, 127
11, 19776, Note_off_c, 10, 59, 64
11, 19776, Note_off_c, 10, 64, 64
11, 19800, Note_on_c, 10, 59, 72
11, 19800, Note_on_c, 10, 64, 72
11, 19896, Note_off_c, 10, 64, 64
11, 19896, Note_off_c, 10, 59, 64
11, 19920, Note_on_c, 10, 61, 72
11, 19920, Note_on_c, 10, 64, 72
11, 20016, Note_off_c, 10, 64, 64
11, 20016, Note_off_c, 10, 61, 64
11, 20040, Note_on_c, 10, 64, 72
11, 20040, Note_on_c, 10, 61, 72
11, 20136, Note_off_c, 10, 61, 64
11, 20136, Note_off_c, 10, 64, 64
11, 20160, Note_on_c, 10, 64, 72
11, 20160, Note_on_c, 10, 59, 72
11, 20256, Note_off_c, 10, 59, 64
11, 20256, Note_off_c, 10, 64, 64
11, 20280, Note_on_c, 10, 64, 72
11, 20280, Note_on_c, 10, 59, 72
11, 20376, Note_off_c, 10, 59, 64
11, 20376, Note_off_c, 10, 64, 64
11, 20400, Note_on_c, 10, 64, 72
11, 20400, Note_on_c, 10, 59, 72
11, 20496, Note_off_c, 10, 59, 64
11, 20496, Note_off_c, 10, 64, 64
11, 20520, Note_on_c, 10, 59, 72
11, 20520, Note_on_c, 10, 64, 72
11, 20616, Note_off_c, 10, 64, 64
11, 20616, Note_off_c, 10, 59, 64
11, 20640, Note_on_c, 10, 57, 72
11, 20640, Note_on_c, 10, 64, 72
11, 20736, Note_off_c, 10, 64, 64
11, 20736, Note_off_c, 10, 57, 64
11, 20760, Note_on_c, 10, 57, 72
11, 20760, Note_on_c, 10, 64, 72
11, 20856, Note_off_c, 10, 64, 64
11, 20856, Note_off_c, 10, 57, 64
11, 20880, Note_on_c, 10, 64, 72
11, 20880, Note_on_c, 10, 59, 72
11, 20976, Note_off_c, 10, 59, 64
11, 20976, Note_off_c, 10, 64, 64
11, 21000, Note_on_c, 10, 59, 72
11, 21000, Note_on_c, 10, 64, 72
11, 21096, Note_off_c, 10, 64, 64
11, 21096, Note_off_c, 10, 59, 64
11, 21120, Note_on_c, 10, 61, 72
11, 21216, Note_off_c, 10, 61, 64
11, 21240, Note_on_c, 10, 61, 72
11, 21336, Note_off_c, 10, 61, 64
11, 21360, Note_on_c, 10, 62, 72
11, 21456, Note_off_c, 10, 62, 64
11, 21480, Note_on_c, 10, 64, 72
11, 21576, Note_off_c, 10, 64, 64
11, 21600, Note_on_c, 10, 66, 127
11, 21696, Note_off_c, 10, 66, 64
11, 21720, Note_on_c, 10, 64, 72
11, 21816, Note_off_c, 10, 64, 64
11, 21840, Note_on_c, 10, 62, 72
11, 21936, Note_off_c, 10, 62, 64
11, 21960, Note_on_c, 10, 61, 72
11, 22056, Note_off_c, 10, 61, 64
11, 22080, Note_on_c, 10, 64, 72
11, 22080, Note_on_c, 10, 59, 72
11, 22176, Note_off_c, 10, 59, 64
11, 22176, Note_off_c, 10, 64, 64
11, 22200, Note_on_c, 10, 64, 72
11, 22200, Note_on_c, 10, 59, 72
11, 22296, Note_off_c, 10, 59, 64
11, 22296, Note_off_c, 10, 64, 64
11, 22320, Note_on_c, 10, 59, 72
11, 22320, Note_on_c, 10, 64, 72
11, 22416, Note_off_c, 10, 64, 64
11, 22416, Note_off_c, 10, 59, 64
11, 22440, Note_on_c, 10, 64, 72
11, 22440, Note_on_c, 10, 59, 72
11, 22536, Note_off_c, 10, 59, 64
11, 22536, Note_off_c, 10, 64, 64
11, 22560, Note_on_c, 10, 64, 127
11, 22560, Note_on_c, 10, 57, 127
11, 22656, Note_off_c, 10, 57, 64
11, 22656, Note_off_c, 10, 64, 64
11, 22680, Note_on_c, 10, 57, 72
11, 22680, Note_on_c, 10, 64, 72
11, 22776, Note_off_c, 10, 64, 64
11, 22776, Note_off_c, 10, 57, 64
11, 22800, Note_on_c, 10, 59, 72
11, 22800, Note_on_c, 10, 64, 72
11, 22896, Note_off_c, 10, 64, 64
11, 22896, Note_off_c, 10, 59, 64
11, 22920, Note_on_c, 10, 64, 72
11, 22920, Note_on_c, 10, 59, 72
11, 23016, Note_off_c, 10, 59, 64
11, 23016, Note_off_c, 10, 64, 64
11, 23040, Note_on_c, 10, 64, 72
11, 23040, Note_on_c, 10, 61, 72
11, 23136, Note_off_c, 10, 61, 64
11, 23136, Note_off_c, 10, 64, 64
11, 23160, Note_on_c, 10, 61, 72
11, 23160, Note_on_c, 10, 64, 72
11, 23256, Note_off_c, 10, 64, 64
11, 23256, Note_off_c, 10, 61, 64
11, 23280, Note_on_c, 10, 64, 72
11, 23280, Note_on_c, 10, 61, 72
11, 23376, Note_off_c, 10, 61, 64
11, 23376, Note_off_c, 10, 64, 64
11, 23400, Note_on_c, 10, 64, 72
11, 23400, Note_on_c, 10, 61, 72
11, 23496, Note_off_c, 10, 61, 64
11, 23496, Note_off_c, 10, 64, 64
11, 23520, Note_on_c, 10, 64, 127
11, 23520, Note_on_c, 10, 59, 127
11, 23616, Note_off_c, 10, 59, 64
11, 23616, Note_off_c, 10, 64, 64
11, 23640, Note_on_c, 10, 64, 72
11, 23640, Note_on_c, 10, 59, 72
11, 23736, Note_off_c, 10, 59, 64
11, 23736, Note_off_c, 10, 64, 64
11, 23760, Note_on_c, 10, 61, 72
11, 23760, Note_on_c, 10, 64, 72
11, 23856, Note_off_c, 10, 64, 64
11, 23856, Note_off_c, 10, 61, 64
11, 23880, Note_on_c, 10, 64, 72
11, 23880, Note_on_c, 10, 61, 72
11, 23976, Note_off_c, 10, 61, 64
11, 23976, Note_off_c, 10, 64, 64
11, 24000, Note_on_c, 10, 59, 72
11, 24000, Note_on_c, 10, 64, 72
11, 24096, Note_off_c, 10, 64, 64
11, 24096, Note_off_c, 10, 59, 64
11, 24120, Note_on_c, 10, 59, 72
11, 24120, Note_on_c, 10, 64, 72
11, 24216, Note_off_c, 10, 64, 64
11, 24216, Note_off_c, 10, 59, 64
11, 24240, Note_on_c, 10, 64, 72
11, 24240, Note_on_c, 10, 59, 72
11, 24336, Note_off_c, 10, 59, 64
11, 24336, Note_off_c, 10, 64, 64
11, 24360, Note_on_c, 10, 59, 72
11, 24360, Note_on_c, 10, 64, 72
11, 24456, Note_off_c, 10, 64, 64
11, 24456, Note_off_c, 10, 59, 64
11, 24480, Note_on_c, 10, 64, 72
11, 24480, Note_on_c, 10, 57, 72
11, 24576, Note_off_c, 10, 57, 64
11, 24576, Note_off_c, 10, 64, 64
11, 24600, Note_on_c, 10, 64, 72
11, 24600, Note_on_c, 10, 57, 72
11, 24696, Note_off_c, 10, 57, 64
11, 24696, Note_off_c, 10, 64, 64
11, 24720, Note_on_c, 10, 64, 72
11, 24720, Note_on_c, 10, 59, 72
11, 24816, Note_off_c, 10, 59, 64
11, 24816, Note_off_c, 10, 64, 64
11, 24840, Note_on_c, 10, 64, 72
11, 24840, Note_on_c, 10, 59, 72
11, 24936, Note_off_c, 10, 59, 64
11, 24936, Note_off_c, 10, 64, 64
11, 24960, Note_on_c, 10, 61, 72
11, 25056, Note_off_c, 10, 61, 64
11, 25080, Note_on_c, 10, 62, 72
11, 25176, Note_off_c, 10, 62, 64
11, 25200, Note_on_c, 10, 64, 72
11, 25296, Note_off_c, 10, 64, 64
11, 25320, Note_on_c, 10, 66, 72
11, 25416, Note_off_c, 10, 66, 64
11, 25440, Note_on_c, 10, 67, 72
11, 25536, Note_off_c, 10, 67, 64
11, 25560, Note_on_c, 10, 66, 72
11, 25656, Note_off_c, 10, 66, 64
11, 25680, Note_on_c, 10, 67, 72
11, 25776, Note_off_c, 10, 67, 64
11, 25800, Note_on_c, 10, 64, 72
11, 25896, Note_off_c, 10, 64, 64
11, 25920, Note_on_c, 10, 66, 72
11, 26016, Note_off_c, 10, 66, 64
11, 26040, Note_on_c, 10, 57, 72
11, 26136, Note_off_c, 10, 57, 64
11, 26160, Note_on_c, 10, 57, 72
11, 26256, Note_off_c, 10, 57, 64
11, 26280, Note_on_c, 10, 57, 72
11, 26376, Note_off_c, 10, 57, 64
11, 26400, Note_on_c, 10, 57, 127
11, 26496, Note_off_c, 10, 57, 64
11, 26520, Note_on_c, 10, 57, 72
11, 26616, Note_off_c, 10, 57, 64
11, 26640, Note_on_c, 10, 57, 72
11, 26736, Note_off_c, 10, 57, 64
11, 26760, Note_on_c, 10, 57, 72
11, 26856, Note_off_c, 10, 57, 64
11, 26880, Note_on_c, 10, 57, 72
11, 26976, Note_off_c, 10, 57, 64
11, 27000, Note_on_c, 10, 64, 72
11, 27096, Note_off_c, 10, 64, 64
11, 27120, Note_on_c, 10, 64, 72
11, 27216, Note_off_c, 10, 64, 64
11, 27240, Note_on_c, 10, 64, 72
11, 27336, Note_off_c, 10, 64, 64
11, 27360, Note_on_c, 10, 63, 127
11, 27456, Note_off_c, 10, 63, 64
11, 27480, Note_on_c, 10, 63, 72
11, 27576, Note_off_c, 10, 63, 64
11, 27600, Note_on_c, 10, 64, 72
11, 27696, Note_off_c, 10, 64, 64
11, 27720, Note_on_c, 10, 64, 72
11, 27816, Note_off_c, 10, 64, 64
11, 27840, Note_on_c, 10, 66, 72
11, 27936, Note_off_c, 10, 66, 64
11, 27960, Note_on_c, 10, 57, 72
11, 28056, Note_off_c, 10, 57, 64
11, 28080, Note_on_c, 10, 57, 72
11, 28176, Note_off_c, 10, 57, 64
11, 28200, Note_on_c, 10, 57, 72
11, 28296, Note_off_c, 10, 57, 64
11, 28320, Note_on_c, 10, 57, 127
11, 28416, Note_off_c, 10, 57, 64
11, 28440, Note_on_c, 10, 57, 72
11, 28536, Note_off_c, 10, 57, 64
11, 28560, Note_on_c, 10, 57, 72
11, 28656, Note_off_c, 10, 57, 64
11, 28680, Note_on_c, 10, 57, 72
11, 28776, Note_off_c, 10, 57, 64
11, 28800, Note_on_c, 10, 57, 72
11, 28896, Note_off_c, 10, 57, 64
11, 28920, Note_on_c, 10, 61, 72
11, 29016, Note_off_c, 10, 61, 64
11, 29040, Note_on_c, 10, 61, 72
11, 29136, Note_off_c, 10, 61, 64
11, 29160, Note_on_c, 10, 61, 72
11, 29256, Note_off_c, 10, 61, 64
11, 29280, Note_on_c, 10, 58, 127
11, 29376, Note_off_c, 10, 58, 64
11, 29400, Note_on_c, 10, 61, 72
11, 29496, Note_off_c, 10, 61, 64
11, 29520, Note_on_c, 10, 61, 72
11, 29616, Note_off_c, 10, 61, 64
11, 29640, Note_on_c, 10, 61, 72
11, 29736, Note_off_c, 10, 61, 64
11, 29760, Note_on_c, 10, 57, 72
11, 29856, Note_off_c, 10, 57, 64
11, 29880, Note_on_c, 10, 59, 72
11, 29976, Note_off_c, 10, 59, 64
11, 30000, Note_on_c, 10, 59, 72
11, 30096, Note_off_c, 10, 59, 64
11, 30120, Note_on_c, 10, 59, 72
11, 30216, Note_off_c, 10, 59, 64
11, 30240, Note_on_c, 10, 56, 127
11, 30336, Note_off_c, 10, 56, 64
11, 30360, Note_on_c, 10, 59, 72
11, 30456, Note_off_c, 10, 59, 64
11, 30480, Note_on_c, 10, 59, 72
11, 30576, Note_off_c, 10, 59, 64
11, 30600, Note_on_c, 10, 59, 72
11, 30696, Note_off_c, 10, 59, 64
11, 30720, Note_on_c, 10, 57, 72
11, 30816, Note_off_c, 10, 57, 64
11, 30840, Note_on_c, 10, 61, 72
11, 30936, Note_off_c, 10, 61, 64
11, 30960, Note_on_c, 10, 61, 72
11, 31056, Note_off_c, 10, 61, 64
11, 31080, Note_on_c, 10, 61, 72
11, 31176, Note_off_c, 10, 61, 64
11, 31200, Note_on_c, 10, 57, 127
11, 31296, Note_off_c, 10, 57, 64
11, 31320, Note_on_c, 10, 61, 72
11, 31416, Note_off_c, 10, 61, 64
11, 31440, Note_on_c, 10, 61, 72
11, 31536, Note_off_c, 10, 61, 64
11, 31560, Note_on_c, 10, 61, 72
11, 31656, Note_off_c, 10, 61, 64
11, 31680, Note_on_c, 10, 56, 72
11, 31776, Note_off_c, 10, 56, 64
11, 31800, Note_on_c, 10, 59, 72
11, 31896, Note_off_c, 10, 59, 64
11, 31920, Note_on_c, 10, 59, 72
11, 32016, Note_off_c, 10, 59, 64
11, 32040, Note_on_c, 10, 59, 72
11, 32136, Note_off_c, 10, 59, 64
11, 32160, Note_on_c, 10, 59, 127
11, 32256, Note_off_c, 10, 59, 64
11, 32280, Note_on_c, 10, 68, 72
11, 32376, Note_off_c, 10, 68, 64
11, 32400, Note_on_c, 10, 68, 72
11, 32496, Note_off_c, 10, 68, 64
11, 32520, Note_on_c, 10, 68, 72
11, 32616, Note_off_c, 10, 68, 64
11, 32640, Note_on_c, 10, 69, 72
11, 32736, Note_off_c, 10, 69, 64
11, 32760, Note_on_c, 10, 61, 72
11, 32856, Note_off_c, 10, 61, 64
11, 32880, Note_on_c, 10, 62, 72
11, 32976, Note_off_c, 10, 62, 64
11, 33000, Note_on_c, 10, 64, 72
11, 33096, Note_off_c, 10, 64, 64
11, 33120, Note_on_c, 10, 66, 72
11, 33216, Note_off_c, 10, 66, 64
11, 33240, Note_on_c, 10, 67, 72
11, 33336, Note_off_c, 10, 67, 64
11, 33360, Note_on_c, 10, 69, 72
11, 33456, Note_off_c, 10, 69, 64
11, 33480, Note_on_c, 10, 67, 72
11, 33576, Note_off_c, 10, 67, 64
11, 33600, Note_on_c, 10, 66, 72
11, 33696, Note_off_c, 10, 66, 64
11, 33720, Note_on_c, 10, 57, 72
11, 33816, Note_off_c, 10, 57, 64
11, 33840, Note_on_c, 10, 57, 72
11, 33936, Note_off_c, 10, 57, 64
11, 33960, Note_on_c, 10, 57, 72
11, 34056, Note_off_c, 10, 57, 64
11, 34080, Note_on_c, 10, 57, 127
11, 34176, Note_off_c, 10, 57, 64
11, 34200, Note_on_c, 10, 57, 72
11, 34296, Note_off_c, 10, 57, 64
11, 34320, Note_on_c, 10, 57, 72
11, 34416, Note_off_c, 10, 57, 64
11, 34440, Note_on_c, 10, 57, 72
11, 34536, Note_off_c, 10, 57, 64
11, 34560, Note_on_c, 10, 57, 72
11, 34656, Note_off_c, 10, 57, 64
11, 34680, Note_on_c, 10, 64, 72
11, 34776, Note_off_c, 10, 64, 64
11, 34800, Note_on_c, 10, 64, 72
11, 34896, Note_off_c, 10, 64, 64
11, 34920, Note_on_c, 10, 64, 72
11, 35016, Note_off_c, 10, 64, 64
11, 35040, Note_on_c, 10, 63, 127
11, 35136, Note_off_c, 10, 63, 64
11, 35160, Note_on_c, 10, 63, 72
11, 35256, Note_off_c, 10, 63, 64
11, 35280, Note_on_c, 10, 64, 72
11, 35376, Note_off_c, 10, 64, 64
11, 35400, Note_on_c, 10, 64, 72
11, 35496, Note_off_c, 10, 64, 64
11, 35520, Note_on_c, 10, 66, 72
11, 35616, Note_off_c, 10, 66, 64
11, 35640, Note_on_c, 10, 57, 72
11, 35736, Note_off_c, 10, 57, 64
11, 35760, Note_on_c, 10, 57, 72
11, 35856, Note_off_c, 10, 57, 64
11, 35880, Note_on_c, 10, 57, 72
11, 35976, Note_off_c, 10, 57, 64
11, 36000, Note_on_c, 10, 57, 127
11, 36096, Note_off_c, 10, 57, 64
11, 36120, Note_on_c, 10, 57, 72
11, 36216, Note_off_c, 10, 57, 64
11, 36240, Note_on_c, 10, 57, 72
11, 36336, Note_off_c, 10, 57, 64
11, 36360, Note_on_c, 10, 57, 72
11, 36456, Note_off_c, 10, 57, 64
11, 36480, Note_on_c, 10, 57, 72
11, 36576, Note_off_c, 10, 57, 64
11, 36600, Note_on_c, 10, 61, 72
11, 36696, Note_off_c, 10, 61, 64
11, 36720, Note_on_c, 10, 61, 72
11, 36816, Note_off_c, 10, 61, 64
11, 36840, Note_on_c, 10, 61, 72
11, 36936, Note_off_c, 10, 61, 64
11, 36960, Note_on_c, 10, 58, 127
11, 37056, Note_off_c, 10, 58, 64
11, 37080, Note_on_c, 10, 61, 72
11, 37176, Note_off_c, 10, 61, 64
11, 37200, Note_on_c, 10, 61, 72
11, 37296, Note_off_c, 10, 61, 64
11, 37320, Note_on_c, 10, 61, 72
11, 37416, Note_off_c, 10, 61, 64
11, 37440, Note_on_c, 10, 57, 72
11, 37536, Note_off_c, 10, 57, 64
11, 37560, Note_on_c, 10, 59, 72
11, 37656, Note_off_c, 10, 59, 64
11, 37680, Note_on_c, 10, 59, 72
11, 37776, Note_off_c, 10, 59, 64
11, 37800, Note_on_c, 10, 59, 72
11, 37896, Note_off_c, 10, 59, 64
11, 37920, Note_on_c, 10, 56, 127
11, 38016, Note_off_c, 10, 56, 64
11, 38040, Note_on_c, 10, 59, 72
11, 38136, Note_off_c, 10, 59, 64
11, 38160, Note_on_c, 10, 59, 72
11, 38256, Note_off_c, 10, 59, 64
11, 38280, Note_on_c, 10, 59, 72
11, 38376, Note_off_c, 10, 59, 64
11, 38400, Note_on_c, 10, 57, 72
11, 38496, Note_off_c, 10, 57, 64
11, 38520, Note_on_c, 10, 61, 72
11, 38616, Note_off_c, 10, 61, 64
11, 38640, Note_on_c, 10, 61, 72
11, 38736, Note_off_c, 10, 61, 64
11, 38760, Note_on_c, 10, 61, 72
11, 38856, Note_off_c, 10, 61, 64
11, 38880, Note_on_c, 10, 57, 127
11, 38976, Note_off_c, 10, 57, 64
11, 39000, Note_on_c, 10, 61, 72
11, 39096, Note_off_c, 10, 61, 64
11, 39120, Note_on_c, 10, 61, 72
11, 39216, Note_off_c, 10, 61, 64
11, 39240, Note_on_c, 10, 61, 72
11, 39336, Note_off_c, 10, 61, 64
11, 39360, Note_on_c, 10, 56, 72
11, 39456, Note_off_c, 10, 56, 64
11, 39480, Note_on_c, 10, 59, 72
11, 39576, Note_off_c, 10, 59, 64
11, 39600, Note_on_c, 10, 59, 72
11, 39696, Note_off_c, 10, 59, 64
11, 39720, Note_on_c, 10, 59, 72
11, 39816, Note_off_c, 10, 59, 64
11, 39840, Note_on_c, 10, 59, 127
11, 39936, Note_off_c, 10, 59, 64
11, 39960, Note_on_c, 10, 68, 72
11, 40056, Note_off_c, 10, 68, 64
11, 40080, Note_on_c, 10, 68, 72
11, 40176, Note_off_c, 10, 68, 64
11, 40200, Note_on_c, 10, 68, 72
11, 40296, Note_off_c, 10, 68, 64
11, 40320, Note_on_c, 10, 69, 108
11, 40320, Note_on_c, 10, 57, 127
11, 40320, Note_on_c, 10, 61, 108
11, 40440, Note_off_c, 10, 61, 64
11, 40440, Note_off_c, 10, 57, 64
11, 40440, Note_off_c, 10, 69, 64
11, 41400, Note_on_c, 10, 69, 108
11, 41400, Note_on_c, 10, 57, 127
11, 41400, Note_on_c, 10, 61, 108
11, 41520, Note_off_c, 10, 61, 64
11, 41520, Note_off_c, 10, 57, 64
11, 41520, Note_off_c, 10, 69, 64
11, 42480, Note_on_c, 10, 80, 108
11, 42480, Note_on_c, 10, 64, 127
11, 42480, Note_on_c, 10, 71, 108
11, 42600, Note_off_c, 10, 71, 64
11, 42600, Note_off_c, 10, 64, 64
11, 42600, Note_off_c, 10, 80, 64
11, 43560, Note_on_c, 10, 80, 108
11, 43560, Note_on_c, 10, 64, 127
11, 43560, Note_on_c, 10, 71, 108
11, 43680, Note_off_c, 10, 71, 64
11, 43680, Note_off_c, 10, 64, 64
11, 43680, Note_off_c, 10, 80, 64
11, 44640, Note_on_c, 10, 69, 127
11, 44640, Note_on_c, 10, 73, 108
11, 44640, Note_on_c, 10, 81, 108
11, 44760, Note_off_c, 10, 81, 64
11, 44760, Note_off_c, 10, 73, 64
11, 44760, Note_off_c, 10, 69, 64
11, 45120, Note_on_c, 10, 81, 108
11, 45120, Note_on_c, 10, 73, 108
11, 45120, Note_on_c, 10, 69, 127
11, 45240, Note_off_c, 10, 69, 64
11, 45240, Note_off_c, 10, 73, 64
11, 45240, Note_off_c, 10, 81, 64
11, 45600, Note_on_c, 10, 69, 127
11, 45600, Note_on_c, 10, 73, 108
11, 45600, Note_on_c, 10, 81, 108
11, 45720, Note_off_c, 10, 81, 64
11, 45720, Note_off_c, 10, 73, 64
11, 45720, Note_off_c, 10, 69, 64
11, 46080, Note_on_c, 10, 69, 127
11, 46080, Note_on_c, 10, 73, 108
11, 46080, Note_on_c, 10, 81, 108
11, 46200, Note_off_c, 10, 81, 64
11, 46200, Note_off_c, 10, 73, 64
11, 46200, Note_off_c, 10, 69, 64
11, 46560, Note_on_c, 10, 71, 108
11, 46560, Note_on_c, 10, 80, 108
11, 46680, Note_off_c, 10, 80, 64
11, 46680, Note_off_c, 10, 71, 64
11, 47040, Note_on_c, 10, 71, 108
11, 47040, Note_on_c, 10, 80, 108
11, 47160, Note_off_c, 10, 80, 64
11, 47160, Note_off_c, 10, 71, 64
11, 47520, Note_on_c, 10, 71, 108
11, 47520, Note_on_c, 10, 80, 108
11, 47640, Note_off_c, 10, 80, 64
11, 47640, Note_off_c, 10, 71, 64
11, 48000, Note_on_c, 10, 71, 108
11, 48000, Note_on_c, 10, 80, 108
11, 48120, Note_off_c, 10, 80, 64
11, 48120, Note_off_c, 10, 71, 64
11, 48480, Note_on_c, 10, 69, 108
11, 48480, Note_on_c, 10, 57, 127
11, 48480, Note_on_c, 10, 61, 108
11, 48600, Note_off_c, 10, 61, 64
11, 48600, Note_off_c, 10, 57, 64
11, 48600, Note_off_c, 10, 69, 64
11, 49560, Note_on_c, 10, 69, 108
11, 49560, Note_on_c, 10, 57, 127
11, 49560, Note_on_c, 10, 61, 108
11, 49680, Note_off_c, 10, 61, 64
11, 49680, Note_off_c, 10, 57, 64
11, 49680, Note_off_c, 10, 69, 64
11, 50640, Note_on_c, 10, 80, 108
11, 50640, Note_on_c, 10, 64, 127
11, 50640, Note_on_c, 10, 71, 108
11, 50760, Note_off_c, 10, 71, 64
11, 50760, Note_off_c, 10, 64, 64
11, 50760, Note_off_c, 10, 80, 64
11, 51720, Note_on_c, 10, 80, 108
11, 51720, Note_on_c, 10, 64, 127
11, 51720, Note_on_c, 10, 71, 108
11, 51840, Note_off_c, 10, 71, 64
11, 51840, Note_off_c, 10, 64, 64
11, 51840, Note_off_c, 10, 80, 64
11, 52800, Note_on_c, 10, 73, 100
11, 52896, Note_off_c, 10, 73, 64
11, 52920, Note_on_c, 10, 73, 100
11, 53016, Note_off_c, 10, 73, 64
11, 53040, Note_on_c, 10, 76, 100
11, 53136, Note_off_c, 10, 76, 64
11, 53160, Note_on_c, 10, 76, 100
11, 53256, Note_off_c, 10, 76, 64
11, 53280, Note_on_c, 10, 76, 100
11, 53376, Note_off_c, 10, 76, 64
11, 53400, Note_on_c, 10, 76, 100
11, 53496, Note_off_c, 10, 76, 64
11, 53520, Note_on_c, 10, 74, 100
11, 53616, Note_off_c, 10, 74, 64
11, 53640, Note_on_c, 10, 74, 100
11, 53736, Note_off_c, 10, 74, 64
11, 53760, Note_on_c, 10, 73, 100
11, 53856, Note_off_c, 10, 73, 64
11, 53880, Note_on_c, 10, 73, 100
11, 53976, Note_off_c, 10, 73, 64
11, 54000, Note_on_c, 10, 76, 100
11, 54096, Note_off_c, 10, 76, 64
11, 54120, Note_on_c, 10, 76, 100
11, 54216, Note_off_c, 10, 76, 64
11, 54240, Note_on_c, 10, 74, 100
11, 54336, Note_off_c, 10, 74, 64
11, 54360, Note_on_c, 10, 74, 100
11, 54456, Note_off_c, 10, 74, 64
11, 54480, Note_on_c, 10, 73, 100
11, 54576, Note_off_c, 10, 73, 64
11, 54600, Note_on_c, 10, 73, 100
11, 54696, Note_off_c, 10, 73, 64
11, 54720, Note_on_c, 10, 74, 100
11, 54816, Note_off_c, 10, 74, 64
11, 54840, Note_on_c, 10, 74, 100
11, 54936, Note_off_c, 10, 74, 64
11, 54960, Note_on_c, 10, 73, 100
11, 55056, Note_off_c, 10, 73, 64
11, 55080, Note_on_c, 10, 73, 100
11, 55176, Note_off_c, 10, 73, 64
11, 55200, Note_on_c, 10, 71, 100
11, 55296, Note_off_c, 10, 71, 64
11, 55320, Note_on_c, 10, 71, 100
11, 55416, Note_off_c, 10, 71, 64
11, 55440, Note_on_c, 10, 69, 100
11, 55536, Note_off_c, 10, 69, 64
11, 55560, Note_on_c, 10, 69, 100
11, 55656, Note_off_c, 10, 69, 64
11, 55680, Note_on_c, 10, 68, 100
11, 55776, Note_off_c, 10, 68, 64
11, 55800, Note_on_c, 10, 68, 100
11, 55896, Note_off_c, 10, 68, 64
11, 55920, Note_on_c, 10, 66, 100
11, 56016, Note_off_c, 10, 66, 64
11, 56040, Note_on_c, 10, 66, 100
11, 56136, Note_off_c, 10, 66, 64
11, 56160, Note_on_c, 10, 64, 100
11, 56256, Note_off_c, 10, 64, 64
11, 56280, Note_on_c, 10, 64, 100
11, 56376, Note_off_c, 10, 64, 64
11, 56400, Note_on_c, 10, 62, 100
11, 56496, Note_off_c, 10, 62, 64
11, 56520, Note_on_c, 10, 62, 100
11, 56616, Note_off_c, 10, 62, 64
11, 57840, Note_on_c, 10, 64, 100
11, 57960, Note_off_c, 10, 64, 64
11, 57960, Note_on_c, 10, 66, 97
11, 58080, Note_off_c, 10, 66, 64
11, 58080, Note_on_c, 10, 69, 95
11, 58200, Note_off_c, 10, 69, 64
11, 58200, Note_on_c, 10, 68, 92
11, 58320, Note_off_c, 10, 68, 64
11, 58320, Note_on_c, 10, 66, 89
11, 58440, Note_off_c, 10, 66, 64
11, 58440, Note_on_c, 10, 68, 87
11, 58560, Note_off_c, 10, 68, 64
11, 58560, Note_on_c, 10, 69, 80
11, 59040, Note_off_c, 10, 69, 64
11, 59040, Note_on_c, 10, 62, 80
11, 59520, Note_off_c, 10, 62, 64
11, 59520, Note_on_c, 10, 61, 80
11, 60000, Note_off_c, 10, 61, 64
11, 60000, Note_on_c, 10, 62, 80
11, 60480, Note_off_c, 10, 62, 64
11, 60480, Note_on_c, 10, 61, 80
11, 60720, Note_off_c, 10, 61, 64
11, 61680, Note_on_c, 10, 64, 100
11, 61800, Note_off_c, 10, 64, 64
11, 61800, Note_on_c, 10, 66, 97
11, 61920, Note_off_c, 10, 66, 64
11, 61920, Note_on_c, 10, 69, 95
11, 62040, Note_off_c, 10, 69, 64
11, 62040, Note_on_c, 10, 68, 92
11, 62160, Note_off_c, 10, 68, 64
11, 62160, Note_on_c, 10, 66, 89
11, 62280, Note_off_c, 10, 66, 64
11, 62280, Note_on_c, 10, 68, 87
11, 62400, Note_off_c, 10, 68, 64
11, 62400, Note_on_c, 10, 69, 80
11, 62880, Note_off_c, 10, 69, 64
11, 62880, Note_on_c, 10, 62, 80
11, 63360, Note_off_c, 10, 62, 64
11, 63360, Note_on_c, 10, 61, 80
11, 63840, Note_off_c, 10, 61, 64
11, 63840, Note_on_c, 10, 61, 80
11, 64320, Note_off_c, 10, 61, 64
11, 64320, Note_on_c, 10, 61, 80
11, 64434, Note_off_c, 10, 61, 64
11, 64560, Note_on_c, 10, 66, 80
11, 64680, Note_off_c, 10, 66, 64
11, 64680, Note_on_c, 10, 68, 80
11, 64800, Note_off_c, 10, 68, 64
11, 64800, Note_on_c, 10, 71, 80
11, 64920, Note_off_c, 10, 71, 64
11, 64920, Note_on_c, 10, 69, 80
11, 65040, Note_off_c, 10, 69, 64
11, 65040, Note_on_c, 10, 68, 80
11, 65160, Note_off_c, 10, 68, 64
11, 65280, Note_on_c, 10, 73, 80
11, 65760, Note_off_c, 10, 73, 64
11, 65760, Note_on_c, 10, 71, 80
11, 66240, Note_off_c, 10, 71, 64
11, 66240, Note_on_c, 10, 69, 80
11, 66720, Note_off_c, 10, 69, 64
11, 66720, Note_on_c, 10, 68, 80
11, 67200, Note_off_c, 10, 68, 64
11, 67200, Note_on_c, 10, 66, 80
11, 67680, Note_off_c, 10, 66, 64
11, 67680, Note_on_c, 10, 68, 80
11, 68160, Note_off_c, 10, 68, 64
11, 68160, Note_on_c, 10, 69, 110
11, 68256, Note_off_c, 10, 69, 64
11, 68400, Note_on_c, 10, 66, 80
11, 68520, Note_off_c, 10, 66, 64
11, 68520, Note_on_c, 10, 68, 80
11, 68640, Note_off_c, 10, 68, 64
11, 68640, Note_on_c, 10, 71, 80
11, 68760, Note_off_c, 10, 71, 64
11, 68760, Note_on_c, 10, 69, 80
11, 68880, Note_off_c, 10, 69, 64
11, 68880, Note_on_c, 10, 68, 80
11, 69000, Note_off_c, 10, 68, 64
11, 69000, Note_on_c, 10, 66, 80
11, 69120, Note_off_c, 10, 66, 64
11, 69120, Note_on_c, 10, 73, 80
11, 69600, Note_off_c, 10, 73, 64
11, 69600, Note_on_c, 10, 71, 80
11, 70080, Note_off_c, 10, 71, 64
11, 70080, Note_on_c, 10, 69, 80
11, 70560, Note_off_c, 10, 69, 64
11, 70560, Note_on_c, 10, 68, 80
11, 71040, Note_off_c, 10, 68, 64
11, 71040, Note_on_c, 10, 69, 80
11, 71520, Note_off_c, 10, 69, 64
11, 71520, Note_on_c, 10, 65, 80
11, 72000, Note_off_c, 10, 65, 64
11, 72000, Note_on_c, 10, 66, 110
11, 72114, Note_off_c, 10, 66, 64
11, 72360, Note_on_c, 10, 66, 80
11, 72474, Note_off_c, 10, 66, 64
11, 72480, Note_on_c, 10, 66, 80
11, 72594, Note_off_c, 10, 66, 64
11, 72840, Note_on_c, 10, 66, 80
11, 72954, Note_off_c, 10, 66, 64
11, 72960, Note_on_c, 10, 66, 80
11, 73074, Note_off_c, 10, 66, 64
11, 73320, Note_on_c, 10, 66, 80
11, 73434, Note_off_c, 10, 66, 64
11, 73440, Note_on_c, 10, 66, 80
11, 73554, Note_off_c, 10, 66, 64
11, 73800, Note_on_c, 10, 66, 80
11, 73914, Note_off_c, 10, 66, 64
11, 73920, Note_on_c, 10, 68, 80
11, 74034, Note_off_c, 10, 68, 64
11, 74280, Note_on_c, 10, 68, 80
11, 74394, Note_off_c, 10, 68, 64
11, 74400, Note_on_c, 10, 68, 80
11, 74514, Note_off_c, 10, 68, 64
11, 74760, Note_on_c, 10, 68, 80
11, 74874, Note_off_c, 10, 68, 64
11, 74880, Note_on_c, 10, 68, 80
11, 74994, Note_off_c, 10, 68, 64
11, 75240, Note_on_c, 10, 68, 80
11, 75354, Note_off_c, 10, 68, 64
11, 75360, Note_on_c, 10, 68, 80
11, 75474, Note_off_c, 10, 68, 64
11, 75720, Note_on_c, 10, 68, 80
11, 75834, Note_off_c, 10, 68, 64
11, 75840, Note_on_c, 10, 66, 110
11, 75954, Note_off_c, 10, 66, 64
11, 76200, Note_on_c, 10, 66, 80
11, 76314, Note_off_c, 10, 66, 64
11, 76320, Note_on_c, 10, 66, 80
11, 76434, Note_off_c, 10, 66, 64
11, 76680, Note_on_c, 10, 66, 80
11, 76794, Note_off_c, 10, 66, 64
11, 76800, Note_on_c, 10, 66, 110
11, 76914, Note_off_c, 10, 66, 64
11, 77160, Note_on_c, 10, 66, 80
11, 77274, Note_off_c, 10, 66, 64
11, 77280, Note_on_c, 10, 66, 80
11, 77394, Note_off_c, 10, 66, 64
11, 77640, Note_on_c, 10, 66, 80
11, 77754, Note_off_c, 10, 66, 64
11, 77760, Note_on_c, 10, 66, 110
11, 77874, Note_off_c, 10, 66, 64
11, 78120, Note_on_c, 10, 66, 80
11, 78234, Note_off_c, 10, 66, 64
11, 78240, Note_on_c, 10, 66, 80
11, 78354, Note_off_c, 10, 66, 64
11, 78600, Note_on_c, 10, 66, 80
11, 78714, Note_off_c, 10, 66, 64
11, 78720, Note_on_c, 10, 66, 110
11, 78834, Note_off_c, 10, 66, 64
11, 79080, Note_on_c, 10, 66, 80
11, 79194, Note_off_c, 10, 66, 64
11, 79200, Note_on_c, 10, 66, 80
11, 79314, Note_off_c, 10, 66, 64
11, 79560, Note_on_c, 10, 66, 80
11, 79674, Note_off_c, 10, 66, 64
11, 79680, Note_on_c, 10, 66, 110
11, 79794, Note_off_c, 10, 66, 64
11, 80040, Note_on_c, 10, 66, 80
11, 80154, Note_off_c, 10, 66, 64
11, 80160, Note_on_c, 10, 66, 80
11, 80274, Note_off_c, 10, 66, 64
11, 80520, Note_on_c, 10, 66, 80
11, 80634, Note_off_c, 10, 66, 64
11, 80640, Note_on_c, 10, 66, 80
11, 80754, Note_off_c, 10, 66, 64
11, 81000, Note_on_c, 10, 66, 80
11, 81114, Note_off_c, 10, 66, 64
11, 81120, Note_on_c, 10, 66, 80
11, 81234, Note_off_c, 10, 66, 64
11, 81480, Note_on_c, 10, 66, 80
11, 81594, Note_off_c, 10, 66, 64
11, 81600, Note_on_c, 10, 66, 127
11, 81714, Note_off_c, 10, 66, 64
11, 81720, Note_on_c, 10, 68, 99
11, 81816, Note_off_c, 10, 68, 64
11, 81840, Note_on_c, 10, 68, 99
11, 81936, Note_off_c, 10, 68, 64
11, 81960, Note_on_c, 10, 68, 99
11, 82056, Note_off_c, 10, 68, 64
11, 82080, Note_on_c, 10, 68, 99
11, 82176, Note_off_c, 10, 68, 64
11, 82200, Note_on_c, 10, 68, 99
11, 82296, Note_off_c, 10, 68, 64
11, 82320, Note_on_c, 10, 68, 99
11, 82416, Note_off_c, 10, 68, 64
11, 82440, Note_on_c, 10, 68, 99
11, 82536, Note_off_c, 10, 68, 64
11, 82560, Note_on_c, 10, 66, 45
11, 82656, Note_off_c, 10, 66, 64
11, 82680, Note_on_c, 10, 66, 45
11, 82776, Note_off_c, 10, 66, 64
11, 82800, Note_on_c, 10, 66, 45
11, 82896, Note_off_c, 10, 66, 64
11, 82920, Note_on_c, 10, 66, 45
11, 83016, Note_off_c, 10, 66, 64
11, 83040, Note_on_c, 10, 66, 45
11, 83136, Note_off_c, 10, 66, 64
11, 83160, Note_on_c, 10, 66, 45
11, 83256, Note_off_c, 10, 66, 64
11, 83280, Note_on_c, 10, 66, 45
11, 83376, Note_off_c, 10, 66, 64
11, 83400, Note_on_c, 10, 66, 45
11, 83496, Note_off_c, 10, 66, 64
11, 83520, Note_on_c, 10, 66, 45
11, 83616, Note_off_c, 10, 66, 64
11, 83640, Note_on_c, 10, 68, 45
11, 83736, Note_off_c, 10, 68, 64
11, 83760, Note_on_c, 10, 68, 45
11, 83856, Note_off_c, 10, 68, 64
11, 83880, Note_on_c, 10, 68, 45
11, 83976, Note_off_c, 10, 68, 64
11, 84000, Note_on_c, 10, 68, 45
11, 84096, Note_off_c, 10, 68, 64
11, 84120, Note_on_c, 10, 68, 45
11, 84216, Note_off_c, 10, 68, 64
11, 84240, Note_on_c, 10, 68, 45
11, 84336, Note_off_c, 10, 68, 64
11, 84360, Note_on_c, 10, 68, 45
11, 84456, Note_off_c, 10, 68, 64
11, 84480, Note_on_c, 10, 68, 45
11, 84576, Note_off_c, 10, 68, 64
11, 84600, Note_on_c, 10, 68, 45
11, 84696, Note_off_c, 10, 68, 64
11, 84720, Note_on_c, 10, 68, 45
11, 84816, Note_off_c, 10, 68, 64
11, 84840, Note_on_c, 10, 68, 45
11, 84936, Note_off_c, 10, 68, 64
11, 84960, Note_on_c, 10, 68, 45
11, 85056, Note_off_c, 10, 68, 64
11, 85080, Note_on_c, 10, 68, 45
11, 85176, Note_off_c, 10, 68, 64
11, 85200, Note_on_c, 10, 68, 45
11, 85296, Note_off_c, 10, 68, 64
11, 85320, Note_on_c, 10, 68, 45
11, 85416, Note_off_c, 10, 68, 64
11, 85440, Note_on_c, 10, 68, 50
11, 85536, Note_off_c, 10, 68, 64
11, 85560, Note_on_c, 10, 68, 50
11, 85656, Note_off_c, 10, 68, 64
11, 85680, Note_on_c, 10, 68, 50
11, 85776, Note_off_c, 10, 68, 64
11, 85800, Note_on_c, 10, 68, 50
11, 85896, Note_off_c, 10, 68, 64
11, 85920, Note_on_c, 10, 68, 99
11, 86016, Note_off_c, 10, 68, 64
11, 86040, Note_on_c, 10, 68, 99
11, 86136, Note_off_c, 10, 68, 64
11, 86160, Note_on_c, 10, 68, 99
11, 86256, Note_off_c, 10, 68, 64
11, 86280, Note_on_c, 10, 68, 99
11, 86376, Note_off_c, 10, 68, 64
11, 86400, Note_on_c, 10, 66, 40
11, 86496, Note_off_c, 10, 66, 64
11, 86520, Note_on_c, 10, 66, 40
11, 86616, Note_off_c, 10, 66, 64
11, 86640, Note_on_c, 10, 66, 40
11, 86736, Note_off_c, 10, 66, 64
11, 86760, Note_on_c, 10, 66, 40
11, 86856, Note_off_c, 10, 66, 64
11, 86880, Note_on_c, 10, 66, 40
11, 86976, Note_off_c, 10, 66, 64
11, 87000, Note_on_c, 10, 66, 40
11, 87096, Note_off_c, 10, 66, 64
11, 87120, Note_on_c, 10, 66, 40
11, 87216, Note_off_c, 10, 66, 64
11, 87240, Note_on_c, 10, 66, 40
11, 87336, Note_off_c, 10, 66, 64
11, 87360, Note_on_c, 10, 66, 40
11, 87456, Note_off_c, 10, 66, 64
11, 87480, Note_on_c, 10, 68, 40
11, 87576, Note_off_c, 10, 68, 64
11, 87600, Note_on_c, 10, 68, 40
11, 87696, Note_off_c, 10, 68, 64
11, 87720, Note_on_c, 10, 68, 40
11, 87816, Note_off_c, 10, 68, 64
11, 87840, Note_on_c, 10, 68, 40
11, 87936, Note_off_c, 10, 68, 64
11, 87960, Note_on_c, 10, 68, 40
11, 88056, Note_off_c, 10, 68, 64
11, 88080, Note_on_c, 10, 68, 40
11, 88176, Note_off_c, 10, 68, 64
11, 88200, Note_on_c, 10, 68, 40
11, 88296, Note_off_c, 10, 68, 64
11, 88320, Note_on_c, 10, 68, 40
11, 88416, Note_off_c, 10, 68, 64
11, 88440, Note_on_c, 10, 68, 40
11, 88536, Note_off_c, 10, 68, 64
11, 88560, Note_on_c, 10, 68, 40
11, 88656, Note_off_c, 10, 68, 64
11, 88680, Note_on_c, 10, 68, 40
11, 88776, Note_off_c, 10, 68, 64
11, 88800, Note_on_c, 10, 68, 40
11, 88896, Note_off_c, 10, 68, 64
11, 88920, Note_on_c, 10, 68, 40
11, 89016, Note_off_c, 10, 68, 64
11, 89040, Note_on_c, 10, 68, 40
11, 89136, Note_off_c, 10, 68, 64
11, 89160, Note_on_c, 10, 68, 40
11, 89256, Note_off_c, 10, 68, 64
11, 89280, Note_on_c, 10, 68, 51
11, 89376, Note_off_c, 10, 68, 64
11, 89400, Note_on_c, 10, 68, 50
11, 89496, Note_off_c, 10, 68, 64
11, 89520, Note_on_c, 10, 68, 50
11, 89616, Note_off_c, 10, 68, 64
11, 89640, Note_on_c, 10, 68, 49
11, 89736, Note_off_c, 10, 68, 64
11, 89760, Note_on_c, 10, 68, 48
11, 89856, Note_off_c, 10, 68, 64
11, 89880, Note_on_c, 10, 68, 47
11, 89976, Note_off_c, 10, 68, 64
11, 90000, Note_on_c, 10, 68, 46
11, 90096, Note_off_c, 10, 68, 64
11, 90120, Note_on_c, 10, 68, 46
11, 90216, Note_off_c, 10, 68, 64
11, 90240, Note_on_c, 10, 68, 46
11, 90336, Note_off_c, 10, 68, 64
11, 90360, Note_on_c, 10, 68, 45
11, 90456, Note_off_c, 10, 68, 64
11, 90480, Note_on_c, 10, 68, 44
11, 90576, Note_off_c, 10, 68, 64
11, 90600, Note_on_c, 10, 68, 43
11, 90696, Note_off_c, 10, 68, 64
11, 90720, Note_on_c, 10, 68, 42
11, 90816, Note_off_c, 10, 68, 64
11, 90840, Note_on_c, 10, 68, 42
11, 90936, Note_off_c, 10, 68, 64
11, 90960, Note_on_c, 10, 68, 41
11, 91056, Note_off_c, 10, 68, 64
11, 91080, Note_on_c, 10, 68, 40
11, 91176, Note_off_c, 10, 68, 64
11, 91200, Note_on_c, 10, 68, 39
11, 91296, Note_off_c, 10, 68, 64
11, 91320, Note_on_c, 10, 68, 38
11, 91416, Note_off_c, 10, 68, 64
11, 91440, Note_on_c, 10, 68, 38
11, 91536, Note_off_c, 10, 68, 64
11, 91560, Note_on_c, 10, 68, 38
11, 91656, Note_off_c, 10, 68, 64
11, 91680, Note_on_c, 10, 68, 37
11, 91776, Note_off_c, 10, 68, 64
11, 91800, Note_on_c, 10, 68, 36
11, 91896, Note_off_c, 10, 68, 64
11, 91920, Note_on_c, 10, 68, 35
11, 92016, Note_off_c, 10, 68, 64
11, 92040, Note_on_c, 10, 68, 34
11, 92136, Note_off_c, 10, 68, 64
11, 92160, Note_on_c, 10, 68, 34
11, 92256, Note_off_c, 10, 68, 64
11, 92280, Note_on_c, 10, 63, 33
11, 92376, Note_off_c, 10, 63, 64
11, 92400, Note_on_c, 10, 63, 32
11, 92496, Note_off_c, 10, 63, 64
11, 92520, Note_on_c, 10, 63, 31
11, 92616, Note_off_c, 10, 63, 64
11, 92640, Note_on_c, 10, 63, 51
11, 92736, Note_off_c, 10, 63, 64
11, 92760, Note_on_c, 10, 63, 58
11, 92856, Note_off_c, 10, 63, 64
11, 92880, Note_on_c, 10, 63, 66
11, 92976, Note_off_c, 10, 63, 64
11, 93000, Note_on_c, 10, 63, 73
11, 93096, Note_off_c, 10, 63, 64
11, 93120, Note_on_c, 10, 64, 64
11, 93192, Note_off_c, 10, 64, 64
11, 93480, Note_on_c, 10, 66, 64
11, 93600, Note_off_c, 10, 66, 64
11, 93600, Note_on_c, 10, 68, 96
11, 94050, Note_off_c, 10, 68, 64
11, 94080, Note_on_c, 10, 66, 77
11, 94152, Note_off_c, 10, 66, 64
11, 94440, Note_on_c, 10, 64, 64
11, 94560, Note_off_c, 10, 64, 64
11, 94560, Note_on_c, 10, 66, 96
11, 95010, Note_off_c, 10, 66, 64
11, 95040, Note_on_c, 10, 64, 77
11, 95112, Note_off_c, 10, 64, 64
11, 95400, Note_on_c, 10, 63, 64
11, 95520, Note_off_c, 10, 63, 64
11, 95520, Note_on_c, 10, 64, 96
11, 95970, Note_off_c, 10, 64, 64
11, 96000, Note_on_c, 10, 66, 77
11, 96072, Note_off_c, 10, 66, 64
11, 96360, Note_on_c, 10, 64, 64
11, 96480, Note_off_c, 10, 64, 64
11, 96480, Note_on_c, 10, 66, 96
11, 96930, Note_off_c, 10, 66, 64
11, 96960, Note_on_c, 10, 64, 64
11, 97186, Note_off_c, 10, 64, 64
11, 101760, Note_on_c, 10, 56, 40
11, 101760, Note_on_c, 10, 66, 40
11, 102144, Note_off_c, 10, 66, 64
11, 102144, Note_off_c, 10, 56, 64
11, 102240, Note_on_c, 10, 66, 40
11, 102240, Note_on_c, 10, 56, 40
11, 102624, Note_off_c, 10, 56, 64
11, 102624, Note_off_c, 10, 66, 64
11, 102720, Note_on_c, 10, 64, 64
11, 102792, Note_off_c, 10, 64, 64
11, 103080, Note_on_c, 10, 66, 64
11, 103200, Note_off_c, 10, 66, 64
11, 103200, Note_on_c, 10, 68, 96
11, 103650, Note_off_c, 10, 68, 64
11, 103680, Note_on_c, 10, 66, 77
11, 103752, Note_off_c, 10, 66, 64
11, 104040, Note_on_c, 10, 64, 64
11, 104160, Note_off_c, 10, 64, 64
11, 104160, Note_on_c, 10, 66, 96
11, 104610, Note_off_c, 10, 66, 64
11, 104640, Note_on_c, 10, 64, 77
11, 104712, Note_off_c, 10, 64, 64
11, 105000, Note_on_c, 10, 63, 64
11, 105120, Note_off_c, 10, 63, 64
11, 105120, Note_on_c, 10, 64, 96
11, 105570, Note_off_c, 10, 64, 64
11, 105600, Note_on_c, 10, 66, 77
11, 105672, Note_off_c, 10, 66, 64
11, 105960, Note_on_c, 10, 64, 64
11, 106080, Note_off_c, 10, 64, 64
11, 106080, Note_on_c, 10, 66, 96
11, 106530, Note_off_c, 10, 66, 64
11, 106560, Note_on_c, 10, 64, 64
11, 106786, Note_off_c, 10, 64, 64
11, 111720, Note_on_c, 10, 67, 92
11, 111840, Note_off_c, 10, 67, 64
11, 111840, Note_on_c, 10, 64, 92
11, 111936, Note_off_c, 10, 64, 64
11, 112200, Note_on_c, 10, 61, 92
11, 112320, Note_off_c, 10, 61, 64
11, 112320, Note_on_c, 10, 57, 92
11, 112416, Note_off_c, 10, 57, 64
11, 114240, Note_on_c, 10, 67, 96
11, 114336, Note_off_c, 10, 67, 64
11, 114600, Note_on_c, 10, 69, 96
11, 114720, Note_off_c, 10, 69, 64
11, 114720, Note_on_c, 10, 73, 96
11, 114816, Note_off_c, 10, 73, 64
11, 115080, Note_on_c, 10, 76, 96
11, 115200, Note_off_c, 10, 76, 64
11, 115200, Note_on_c, 10, 78, 96
11, 115296, Note_off_c, 10, 78, 64
11, 117480, Note_on_c, 10, 67, 115
11, 117600, Note_off_c, 10, 67, 64
11, 117600, Note_on_c, 10, 64, 115
11, 117696, Note_off_c, 10, 64, 64
11, 117960, Note_on_c, 10, 61, 115
11, 118080, Note_off_c, 10, 61, 64
11, 118080, Note_on_c, 10, 57, 115
11, 118176, Note_off_c, 10, 57, 64
11, 120000, Note_on_c, 10, 67, 95
11, 120096, Note_off_c, 10, 67, 64
11, 120360, Note_on_c, 10, 69, 95
11, 120480, Note_off_c, 10, 69, 64
11, 120480, Note_on_c, 10, 73, 95
11, 120576, Note_off_c, 10, 73, 64
11, 120840, Note_on_c, 10, 76, 95
11, 120960, Note_off_c, 10, 76, 64
11, 120960, Note_on_c, 10, 78, 72
11, 121056, Note_off_c, 10, 78, 64
11, 121920, Note_on_c, 10, 69, 99
11, 121920, Note_on_c, 10, 81, 99
11, 122016, Note_off_c, 10, 81, 64
11, 122016, Note_off_c, 10, 69, 64
11, 122040, Note_on_c, 10, 69, 99
11, 122040, Note_on_c, 10, 81, 99
11, 122136, Note_off_c, 10, 81, 64
11, 122136, Note_off_c, 10, 69, 64
11, 122160, Note_on_c, 10, 81, 99
11, 122160, Note_on_c, 10, 69, 99
11, 122256, Note_off_c, 10, 69, 64
11, 122256, Note_off_c, 10, 81, 64
11, 122280, Note_on_c, 10, 81, 99
11, 122280, Note_on_c, 10, 69, 99
11, 122376, Note_off_c, 10, 69, 64
11, 122376, Note_off_c, 10, 81, 64
11, 122400, Note_on_c, 10, 69, 99
11, 122400, Note_on_c, 10, 81, 99
11, 122496, Note_off_c, 10, 81, 64
11, 122496, Note_off_c, 10, 69, 64
11, 122520, Note_on_c, 10, 69, 99
11, 122520, Note_on_c, 10, 81, 99
11, 122616, Note_off_c, 10, 81, 64
11, 122616, Note_off_c, 10, 69, 64
11, 122640, Note_on_c, 10, 81, 99
11, 122640, Note_on_c, 10, 69, 99
11, 122736, Note_off_c, 10, 69, 64
11, 122736, Note_off_c, 10, 81, 64
11, 122760, Note_on_c, 10, 69, 99
11, 122760, Note_on_c, 10, 81, 99
11, 122856, Note_off_c, 10, 81, 64
11, 122856, Note_off_c, 10, 69, 64
11, 122880, Note_on_c, 10, 69, 99
11, 122880, Note_on_c, 10, 81, 99
11, 122976, Note_off_c, 10, 81, 64
11, 122976, Note_off_c, 10, 69, 64
11, 123000, Note_on_c, 10, 69, 99
11, 123000, Note_on_c, 10, 81, 99
11, 123096, Note_off_c, 10, 81, 64
11, 123096, Note_off_c, 10, 69, 64
11, 123120, Note_on_c, 10, 69, 99
11, 123120, Note_on_c, 10, 81, 99
11, 123216, Note_off_c, 10, 81, 64
11, 123216, Note_off_c, 10, 69, 64
11, 123240, Note_on_c, 10, 69, 99
11, 123240, Note_on_c, 10, 81, 99
11, 123336, Note_off_c, 10, 81, 64
11, 123336, Note_off_c, 10, 69, 64
11, 123360, Note_on_c, 10, 81, 99
11, 123360, Note_on_c, 10, 69, 99
11, 123456, Note_off_c, 10, 69, 64
11, 123456, Note_off_c, 10, 81, 64
11, 123480, Note_on_c, 10, 69, 99
11, 123480, Note_on_c, 10, 81, 99
11, 123576, Note_off_c, 10, 81, 64
11, 123576, Note_off_c, 10, 69, 64
11, 123600, Note_on_c, 10, 81, 99
11, 123600, Note_on_c, 10, 69, 99
11, 123696, Note_off_c, 10, 69, 64
11, 123696, Note_off_c, 10, 81, 64
11, 123720, Note_on_c, 10, 81, 99
11, 123720, Note_on_c, 10, 69, 99
11, 123816, Note_off_c, 10, 69, 64
11, 123816, Note_off_c, 10, 81, 64
11, 123840, Note_on_c, 10, 80, 127
11, 123936, Note_off_c, 10, 80, 64
11, 123960, Note_on_c, 10, 80, 99
11, 124056, Note_off_c, 10, 80, 64
11, 124080, Note_on_c, 10, 80, 99
11, 124176, Note_off_c, 10, 80, 64
11, 124200, Note_on_c, 10, 80, 99
11, 124296, Note_off_c, 10, 80, 64
11, 124320, Note_on_c, 10, 80, 99
11, 124416, Note_off_c, 10, 80, 64
11, 124440, Note_on_c, 10, 80, 99
11, 124536, Note_off_c, 10, 80, 64
11, 124560, Note_on_c, 10, 80, 99
11, 124656, Note_off_c, 10, 80, 64
11, 124680, Note_on_c, 10, 80, 99
11, 124776, Note_off_c, 10, 80, 64
11, 124800, Note_on_c, 10, 81, 127
11, 124896, Note_off_c, 10, 81, 64
11, 124920, Note_on_c, 10, 81, 99
11, 125016, Note_off_c, 10, 81, 64
11, 125040, Note_on_c, 10, 81, 99
11, 125136, Note_off_c, 10, 81, 64
11, 125160, Note_on_c, 10, 81, 99
11, 125256, Note_off_c, 10, 81, 64
11, 125280, Note_on_c, 10, 81, 99
11, 125376, Note_off_c, 10, 81, 64
11, 125400, Note_on_c, 10, 81, 99
11, 125496, Note_off_c, 10, 81, 64
11, 125520, Note_on_c, 10, 81, 99
11, 125616, Note_off_c, 10, 81, 64
11, 125640, Note_on_c, 10, 81, 99
11, 125736, Note_off_c, 10, 81, 64
11, 125760, Note_on_c, 10, 80, 127
11, 125856, Note_off_c, 10, 80, 64
11, 125880, Note_on_c, 10, 80, 99
11, 125976, Note_off_c, 10, 80, 64
11, 126000, Note_on_c, 10, 80, 99
11, 126096, Note_off_c, 10, 80, 64
11, 126120, Note_on_c, 10, 80, 99
11, 126216, Note_off_c, 10, 80, 64
11, 126240, Note_on_c, 10, 80, 99
11, 126336, Note_off_c, 10, 80, 64
11, 126360, Note_on_c, 10, 80, 99
11, 126456, Note_off_c, 10, 80, 64
11, 126480, Note_on_c, 10, 80, 99
11, 126576, Note_off_c, 10, 80, 64
11, 126600, Note_on_c, 10, 80, 99
11, 126696, Note_off_c, 10, 80, 64
11, 126720, Note_on_c, 10, 81, 127
11, 126816, Note_off_c, 10, 81, 64
11, 126840, Note_on_c, 10, 81, 99
11, 126936, Note_off_c, 10, 81, 64
11, 126960, Note_on_c, 10, 81, 99
11, 127056, Note_off_c, 10, 81, 64
11, 127080, Note_on_c, 10, 81, 99
11, 127176, Note_off_c, 10, 81, 64
11, 127200, Note_on_c, 10, 81, 99
11, 127296, Note_off_c, 10, 81, 64
11, 127320, Note_on_c, 10, 81, 99
11, 127416, Note_off_c, 10, 81, 64
11, 127440, Note_on_c, 10, 81, 99
11, 127536, Note_off_c, 10, 81, 64
11, 127560, Note_on_c, 10, 81, 99
11, 127656, Note_off_c, 10, 81, 64
11, 127680, Note_on_c, 10, 80, 127
11, 127776, Note_off_c, 10, 80, 64
11, 127800, Note_on_c, 10, 80, 99
11, 127896, Note_off_c, 10, 80, 64
11, 127920, Note_on_c, 10, 80, 99
11, 128016, Note_off_c, 10, 80, 64
11, 128040, Note_on_c, 10, 80, 99
11, 128136, Note_off_c, 10, 80, 64
11, 128160, Note_on_c, 10, 80, 99
11, 128256, Note_off_c, 10, 80, 64
11, 128280, Note_on_c, 10, 80, 99
11, 128376, Note_off_c, 10, 80, 64
11, 128400, Note_on_c, 10, 80, 99
11, 128496, Note_off_c, 10, 80, 64
11, 128520, Note_on_c, 10, 80, 99
11, 128616, Note_off_c, 10, 80, 64
11, 128640, Note_on_c, 10, 81, 127
11, 128640, Note_on_c, 10, 69, 127
11, 128736, Note_off_c, 10, 69, 64
11, 128736, Note_off_c, 10, 81, 64
11, 128760, Note_on_c, 10, 81, 99
11, 128760, Note_on_c, 10, 69, 99
11, 128856, Note_off_c, 10, 69, 64
11, 128856, Note_off_c, 10, 81, 64
11, 128880, Note_on_c, 10, 69, 99
11, 128880, Note_on_c, 10, 81, 99
11, 128976, Note_off_c, 10, 81, 64
11, 128976, Note_off_c, 10, 69, 64
11, 129000, Note_on_c, 10, 81, 99
11, 129000, Note_on_c, 10, 69, 99
11, 129096, Note_off_c, 10, 69, 64
11, 129096, Note_off_c, 10, 81, 64
11, 129120, Note_on_c, 10, 69, 99
11, 129120, Note_on_c, 10, 81, 99
11, 129216, Note_off_c, 10, 81, 64
11, 129216, Note_off_c, 10, 69, 64
11, 129240, Note_on_c, 10, 81, 99
11, 129240, Note_on_c, 10, 69, 99
11, 129336, Note_off_c, 10, 69, 64
11, 129336, Note_off_c, 10, 81, 64
11, 129360, Note_on_c, 10, 69, 99
11, 129360, Note_on_c, 10, 81, 99
11, 129456, Note_off_c, 10, 81, 64
11, 129456, Note_off_c, 10, 69, 64
11, 129480, Note_on_c, 10, 69, 99
11, 129480, Note_on_c, 10, 81, 99
11, 129576, Note_off_c, 10, 81, 64
11, 129576, Note_off_c, 10, 69, 64
11, 129600, Note_on_c, 10, 80, 127
11, 129696, Note_off_c, 10, 80, 64
11, 129720, Note_on_c, 10, 80, 99
11, 129816, Note_off_c, 10, 80, 64
11, 129840, Note_on_c, 10, 80, 99
11, 129936, Note_off_c, 10, 80, 64
11, 129960, Note_on_c, 10, 80, 99
11, 130056, Note_off_c, 10, 80, 64
11, 130080, Note_on_c, 10, 80, 99
11, 130176, Note_off_c, 10, 80, 64
11, 130200, Note_on_c, 10, 80, 99
11, 130296, Note_off_c, 10, 80, 64
11, 130320, Note_on_c, 10, 80, 99
11, 130416, Note_off_c, 10, 80, 64
11, 130440, Note_on_c, 10, 80, 99
11, 130536, Note_off_c, 10, 80, 64
11, 130560, Note_on_c, 10, 80, 127
11, 130656, Note_off_c, 10, 80, 64
11, 130680, Note_on_c, 10, 80, 99
11, 130776, Note_off_c, 10, 80, 64
11, 130800, Note_on_c, 10, 80, 99
11, 130896, Note_off_c, 10, 80, 64
11, 130920, Note_on_c, 10, 80, 99
11, 131016, Note_off_c, 10, 80, 64
11, 131040, Note_on_c, 10, 80, 99
11, 131136, Note_off_c, 10, 80, 64
11, 131160, Note_on_c, 10, 80, 99
11, 131256, Note_off_c, 10, 80, 64
11, 131280, Note_on_c, 10, 80, 99
11, 131376, Note_off_c, 10, 80, 64
11, 131400, Note_on_c, 10, 80, 99
11, 131496, Note_off_c, 10, 80, 64
11, 131520, Note_on_c, 10, 80, 127
11, 131616, Note_off_c, 10, 80, 64
11, 131640, Note_on_c, 10, 76, 127
11, 131736, Note_off_c, 10, 76, 64
11, 131760, Note_on_c, 10, 78, 127
11, 131856, Note_off_c, 10, 78, 64
11, 131880, Note_on_c, 10, 80, 127
11, 131976, Note_off_c, 10, 80, 64
11, 132000, Note_on_c, 10, 83, 127
11, 132096, Note_off_c, 10, 83, 64
11, 132120, Note_on_c, 10, 81, 127
11, 132216, Note_off_c, 10, 81, 64
11, 132240, Note_on_c, 10, 80, 127
11, 132336, Note_off_c, 10, 80, 64
11, 132360, Note_on_c, 10, 78, 127
11, 132456, Note_off_c, 10, 78, 64
11, 132480, Note_on_c, 10, 83, 127
11, 132576, Note_off_c, 10, 83, 64
11, 132600, Note_on_c, 10, 81, 127
11, 132696, Note_off_c, 10, 81, 64
11, 132720, Note_on_c, 10, 80, 127
11, 132816, Note_off_c, 10, 80, 64
11, 132840, Note_on_c, 10, 78, 127
11, 132936, Note_off_c, 10, 78, 64
11, 132960, Note_on_c, 10, 83, 127
11, 133056, Note_off_c, 10, 83, 64
11, 133080, Note_on_c, 10, 81, 127
11, 133176, Note_off_c, 10, 81, 64
11, 133200, Note_on_c, 10, 80, 127
11, 133296, Note_off_c, 10, 80, 64
11, 133320, Note_on_c, 10, 78, 127
11, 133416, Note_off_c, 10, 78, 64
11, 133440, Note_on_c, 10, 80, 127
11, 133536, Note_off_c, 10, 80, 64
11, 133560, Note_on_c, 10, 76, 127
11, 133656, Note_off_c, 10, 76, 64
11, 133680, Note_on_c, 10, 78, 127
11, 133776, Note_off_c, 10, 78, 64
11, 133800, Note_on_c, 10, 80, 127
11, 133896, Note_off_c, 10, 80, 64
11, 133920, Note_on_c, 10, 83, 127
11, 134016, Note_off_c, 10, 83, 64
11, 134040, Note_on_c, 10, 81, 127
11, 134136, Note_off_c, 10, 81, 64
11, 134160, Note_on_c, 10, 80, 127
11, 134256, Note_off_c, 10, 80, 64
11, 134280, Note_on_c, 10, 78, 127
11, 134376, Note_off_c, 10, 78, 64
11, 134400, Note_on_c, 10, 83, 127
11, 134496, Note_off_c, 10, 83, 64
11, 134520, Note_on_c, 10, 81, 127
11, 134616, Note_off_c, 10, 81, 64
11, 134640, Note_on_c, 10, 80, 127
11, 134736, Note_off_c, 10, 80, 64
11, 134760, Note_on_c, 10, 78, 127
11, 134856, Note_off_c, 10, 78, 64
11, 134880, Note_on_c, 10, 83, 127
11, 134976, Note_off_c, 10, 83, 64
11, 135000, Note_on_c, 10, 81, 127
11, 135096, Note_off_c, 10, 81, 64
11, 135120, Note_on_c, 10, 80, 127
11, 135216, Note_off_c, 10, 80, 64
11, 135240, Note_on_c, 10, 78, 127
11, 135336, Note_off_c, 10, 78, 64
11, 135360, Note_on_c, 10, 76, 127
11, 135456, Note_off_c, 10, 76, 64
11, 135480, Note_on_c, 10, 76, 127
11, 135576, Note_off_c, 10, 76, 64
11, 135600, Note_on_c, 10, 78, 127
11, 135696, Note_off_c, 10, 78, 64
11, 135720, Note_on_c, 10, 80, 127
11, 135816, Note_off_c, 10, 80, 64
11, 135840, Note_on_c, 10, 83, 127
11, 135936, Note_off_c, 10, 83, 64
11, 135960, Note_on_c, 10, 81, 127
11, 136056, Note_off_c, 10, 81, 64
11, 136080, Note_on_c, 10, 80, 127
11, 136176, Note_off_c, 10, 80, 64
11, 136200, Note_on_c, 10, 78, 127
11, 136296, Note_off_c, 10, 78, 64
11, 136320, Note_on_c, 10, 76, 127
11, 136416, Note_off_c, 10, 76, 64
11, 136440, Note_on_c, 10, 76, 127
11, 136536, Note_off_c, 10, 76, 64
11, 136560, Note_on_c, 10, 78, 127
11, 136656, Note_off_c, 10, 78, 64
11, 136680, Note_on_c, 10, 80, 127
11, 136776, Note_off_c, 10, 80, 64
11, 136800, Note_on_c, 10, 83, 127
11, 136896, Note_off_c, 10, 83, 64
11, 136920, Note_on_c, 10, 81, 127
11, 137016, Note_off_c, 10, 81, 64
11, 137040, Note_on_c, 10, 80, 127
11, 137136, Note_off_c, 10, 80, 64
11, 137160, Note_on_c, 10, 78, 127
11, 137256, Note_off_c, 10, 78, 64
11, 137280, Note_on_c, 10, 76, 127
11, 137376, Note_off_c, 10, 76, 64
11, 137400, Note_on_c, 10, 76, 127
11, 137496, Note_off_c, 10, 76, 64
11, 137520, Note_on_c, 10, 78, 127
11, 137616, Note_off_c, 10, 78, 64
11, 137640, Note_on_c, 10, 80, 127
11, 137736, Note_off_c, 10, 80, 64
11, 137760, Note_on_c, 10, 83, 127
11, 137856, Note_off_c, 10, 83, 64
11, 137880, Note_on_c, 10, 81, 127
11, 137976, Note_off_c, 10, 81, 64
11, 138000, Note_on_c, 10, 80, 127
11, 138096, Note_off_c, 10, 80, 64
11, 138120, Note_on_c, 10, 78, 127
11, 138216, Note_off_c, 10, 78, 64
11, 138240, Note_on_c, 10, 76, 127
11, 138336, Note_off_c, 10, 76, 64
11, 138360, Note_on_c, 10, 81, 127
11, 138456, Note_off_c, 10, 81, 64
11, 138480, Note_on_c, 10, 81, 127
11, 138576, Note_off_c, 10, 81, 64
11, 138600, Note_on_c, 10, 81, 127
11, 138696, Note_off_c, 10, 81, 64
11, 138720, Note_on_c, 10, 81, 127
11, 138816, Note_off_c, 10, 81, 64
11, 138840, Note_on_c, 10, 81, 127
11, 138936, Note_off_c, 10, 81, 64
11, 138960, Note_on_c, 10, 81, 127
11, 139056, Note_off_c, 10, 81, 64
11, 139080, Note_on_c, 10, 81, 127
11, 139176, Note_off_c, 10, 81, 64
11, 139200, Note_on_c, 10, 64, 127
11, 139200, Note_on_c, 10, 71, 127
11, 139344, Note_off_c, 10, 71, 64
11, 139344, Note_off_c, 10, 64, 64
11, 141600, Note_on_c, 10, 64, 127
11, 141600, Note_on_c, 10, 74, 127
11, 141744, Note_off_c, 10, 74, 64
11, 141744, Note_off_c, 10, 64, 64
11, 144000, Note_on_c, 10, 64, 127
11, 144000, Note_on_c, 10, 59, 72
11, 144096, Note_off_c, 10, 59, 64
11, 144096, Note_off_c, 10, 64, 64
11, 144120, Note_on_c, 10, 64, 72
11, 144120, Note_on_c, 10, 59, 72
11, 144216, Note_off_c, 10, 59, 64
11, 144216, Note_off_c, 10, 64, 64
11, 144240, Note_on_c, 10, 59, 72
11, 144240, Note_on_c, 10, 64, 72
11, 144336, Note_off_c, 10, 64, 64
11, 144336, Note_off_c, 10, 59, 64
11, 144360, Note_on_c, 10, 64, 72
11, 144360, Note_on_c, 10, 59, 72
11, 144456, Note_off_c, 10, 59, 64
11, 144456, Note_off_c, 10, 64, 64
11, 144480, Note_on_c, 10, 57, 127
11, 144480, Note_on_c, 10, 64, 127
11, 144576, Note_off_c, 10, 64, 64
11, 144576, Note_off_c, 10, 57, 64
11, 144600, Note_on_c, 10, 64, 72
11, 144600, Note_on_c, 10, 57, 72
11, 144696, Note_off_c, 10, 57, 64
11, 144696, Note_off_c, 10, 64, 64
11, 144720, Note_on_c, 10, 59, 72
11, 144720, Note_on_c, 10, 64, 72
11, 144816, Note_off_c, 10, 64, 64
11, 144816, Note_off_c, 10, 59, 64
11, 144840, Note_on_c, 10, 64, 72
11, 144840, Note_on_c, 10, 59, 72
11, 144936, Note_off_c, 10, 59, 64
11, 144936, Note_off_c, 10, 64, 64
11, 144960, Note_on_c, 10, 64, 72
11, 144960, Note_on_c, 10, 61, 72
11, 145056, Note_off_c, 10, 61, 64
11, 145056, Note_off_c, 10, 64, 64
11, 145080, Note_on_c, 10, 64, 72
11, 145080, Note_on_c, 10, 61, 72
11, 145176, Note_off_c, 10, 61, 64
11, 145176, Note_off_c, 10, 64, 64
11, 145200, Note_on_c, 10, 64, 72
11, 145200, Note_on_c, 10, 61, 72
11, 145296, Note_off_c, 10, 61, 64
11, 145296, Note_off_c, 10, 64, 64
11, 145320, Note_on_c, 10, 61, 72
11, 145320, Note_on_c, 10, 64, 72
11, 145416, Note_off_c, 10, 64, 64
11, 145416, Note_off_c, 10, 61, 64
11, 145440, Note_on_c, 10, 64, 127
11, 145440, Note_on_c, 10, 59, 127
11, 145536, Note_off_c, 10, 59, 64
11, 145536, Note_off_c, 10, 64, 64
11, 145560, Note_on_c, 10, 59, 72
11, 145560, Note_on_c, 10, 64, 72
11, 145656, Note_off_c, 10, 64, 64
11, 145656, Note_off_c, 10, 59, 64
11, 145680, Note_on_c, 10, 61, 72
11, 145680, Note_on_c, 10, 64, 72
11, 145776, Note_off_c, 10, 64, 64
11, 145776, Note_off_c, 10, 61, 64
11, 145800, Note_on_c, 10, 64, 72
11, 145800, Note_on_c, 10, 61, 72
11, 145896, Note_off_c, 10, 61, 64
11, 145896, Note_off_c, 10, 64, 64
11, 145920, Note_on_c, 10, 64, 72
11, 145920, Note_on_c, 10, 59, 72
11, 146016, Note_off_c, 10, 59, 64
11, 146016, Note_off_c, 10, 64, 64
11, 146040, Note_on_c, 10, 64, 72
11, 146040, Note_on_c, 10, 59, 72
11, 146136, Note_off_c, 10, 59, 64
11, 146136, Note_off_c, 10, 64, 64
11, 146160, Note_on_c, 10, 64, 72
11, 146160, Note_on_c, 10, 59, 72
11, 146256, Note_off_c, 10, 59, 64
11, 146256, Note_off_c, 10, 64, 64
11, 146280, Note_on_c, 10, 59, 72
11, 146280, Note_on_c, 10, 64, 72
11, 146376, Note_off_c, 10, 64, 64
11, 146376, Note_off_c, 10, 59, 64
11, 146400, Note_on_c, 10, 57, 72
11, 146400, Note_on_c, 10, 64, 72
11, 146496, Note_off_c, 10, 64, 64
11, 146496, Note_off_c, 10, 57, 64
11, 146520, Note_on_c, 10, 57, 72
11, 146520, Note_on_c, 10, 64, 72
11, 146616, Note_off_c, 10, 64, 64
11, 146616, Note_off_c, 10, 57, 64
11, 146640, Note_on_c, 10, 64, 72
11, 146640, Note_on_c, 10, 59, 72
11, 146736, Note_off_c, 10, 59, 64
11, 146736, Note_off_c, 10, 64, 64
11, 146760, Note_on_c, 10, 59, 72
11, 146760, Note_on_c, 10, 64, 72
11, 146856, Note_off_c, 10, 64, 64
11, 146856, Note_off_c, 10, 59, 64
11, 146880, Note_on_c, 10, 61, 72
11, 146976, Note_off_c, 10, 61, 64
11, 147000, Note_on_c, 10, 61, 72
11, 147096, Note_off_c, 10, 61, 64
11, 147120, Note_on_c, 10, 62, 72
11, 147216, Note_off_c, 10, 62, 64
11, 147240, Note_on_c, 10, 64, 72
11, 147336, Note_off_c, 10, 64, 64
11, 147360, Note_on_c, 10, 66, 127
11, 147456, Note_off_c, 10, 66, 64
11, 147480, Note_on_c, 10, 64, 72
11, 147576, Note_off_c, 10, 64, 64
11, 147600, Note_on_c, 10, 62, 72
11, 147696, Note_off_c, 10, 62, 64
11, 147720, Note_on_c, 10, 61, 72
11, 147816, Note_off_c, 10, 61, 64
11, 147840, Note_on_c, 10, 64, 72
11, 147840, Note_on_c, 10, 59, 72
11, 147936, Note_off_c, 10, 59, 64
11, 147936, Note_off_c, 10, 64, 64
11, 147960, Note_on_c, 10, 64, 72
11, 147960, Note_on_c, 10, 59, 72
11, 148056, Note_off_c, 10, 59, 64
11, 148056, Note_off_c, 10, 64, 64
11, 148080, Note_on_c, 10, 59, 72
11, 148080, Note_on_c, 10, 64, 72
11, 148176, Note_off_c, 10, 64, 64
11, 148176, Note_off_c, 10, 59, 64
11, 148200, Note_on_c, 10, 64, 72
11, 148200, Note_on_c, 10, 59, 72
11, 148296, Note_off_c, 10, 59, 64
11, 148296, Note_off_c, 10, 64, 64
11, 148320, Note_on_c, 10, 64, 127
11, 148320, Note_on_c, 10, 57, 127
11, 148416, Note_off_c, 10, 57, 64
11, 148416, Note_off_c, 10, 64, 64
11, 148440, Note_on_c, 10, 57, 72
11, 148440, Note_on_c, 10, 64, 72
11, 148536, Note_off_c, 10, 64, 64
11, 148536, Note_off_c, 10, 57, 64
11, 148560, Note_on_c, 10, 59, 72
11, 148560, Note_on_c, 10, 64, 72
11, 148656, Note_off_c, 10, 64, 64
11, 148656, Note_off_c, 10, 59, 64
11, 148680, Note_on_c, 10, 64, 72
11, 148680, Note_on_c, 10, 59, 72
11, 148776, Note_off_c, 10, 59, 64
11, 148776, Note_off_c, 10, 64, 64
11, 148800, Note_on_c, 10, 64, 72
11, 148800, Note_on_c, 10, 61, 72
11, 148896, Note_off_c, 10, 61, 64
11, 148896, Note_off_c, 10, 64, 64
11, 148920, Note_on_c, 10, 61, 72
11, 148920, Note_on_c, 10, 64, 72
11, 149016, Note_off_c, 10, 64, 64
11, 149016, Note_off_c, 10, 61, 64
11, 149040, Note_on_c, 10, 64, 72
11, 149040, Note_on_c, 10, 61, 72
11, 149136, Note_off_c, 10, 61, 64
11, 149136, Note_off_c, 10, 64, 64
11, 149160, Note_on_c, 10, 64, 72
11, 149160, Note_on_c, 10, 61, 72
11, 149256, Note_off_c, 10, 61, 64
11, 149256, Note_off_c, 10, 64, 64
11, 149280, Note_on_c, 10, 64, 127
11, 149280, Note_on_c, 10, 59, 127
11, 149376, Note_off_c, 10, 59, 64
11, 149376, Note_off_c, 10, 64, 64
11, 149400, Note_on_c, 10, 64, 72
11, 149400, Note_on_c, 10, 59, 72
11, 149496, Note_off_c, 10, 59, 64
11, 149496, Note_off_c, 10, 64, 64
11, 149520, Note_on_c, 10, 61, 72
11, 149520, Note_on_c, 10, 64, 72
11, 149616, Note_off_c, 10, 64, 64
11, 149616, Note_off_c, 10, 61, 64
11, 149640, Note_on_c, 10, 64, 72
11, 149640, Note_on_c, 10, 61, 72
11, 149736, Note_off_c, 10, 61, 64
11, 149736, Note_off_c, 10, 64, 64
11, 149760, Note_on_c, 10, 59, 72
11, 149760, Note_on_c, 10, 64, 72
11, 149856, Note_off_c, 10, 64, 64
11, 149856, Note_off_c, 10, 59, 64
11, 149880, Note_on_c, 10, 59, 72
11, 149880, Note_on_c, 10, 64, 72
11, 149976, Note_off_c, 10, 64, 64
11, 149976, Note_off_c, 10, 59, 64
11, 150000, Note_on_c, 10, 64, 72
11, 150000, Note_on_c, 10, 59, 72
11, 150096, Note_off_c, 10, 59, 64
11, 150096, Note_off_c, 10, 64, 64
11, 150120, Note_on_c, 10, 59, 72
11, 150120, Note_on_c, 10, 64, 72
11, 150216, Note_off_c, 10, 64, 64
11, 150216, Note_off_c, 10, 59, 64
11, 150240, Note_on_c, 10, 64, 72
11, 150240, Note_on_c, 10, 57, 72
11, 150336, Note_off_c, 10, 57, 64
11, 150336, Note_off_c, 10, 64, 64
11, 150360, Note_on_c, 10, 64, 72
11, 150360, Note_on_c, 10, 57, 72
11, 150456, Note_off_c, 10, 57, 64
11, 150456, Note_off_c, 10, 64, 64
11, 150480, Note_on_c, 10, 64, 72
11, 150480, Note_on_c, 10, 59, 72
11, 150576, Note_off_c, 10, 59, 64
11, 150576, Note_off_c, 10, 64, 64
11, 150600, Note_on_c, 10, 64, 72
11, 150600, Note_on_c, 10, 59, 72
11, 150696, Note_off_c, 10, 59, 64
11, 150696, Note_off_c, 10, 64, 64
11, 150720, Note_on_c, 10, 61, 72
11, 150816, Note_off_c, 10, 61, 64
11, 150840, Note_on_c, 10, 62, 72
11, 150936, Note_off_c, 10, 62, 64
11, 150960, Note_on_c, 10, 64, 72
11, 151056, Note_off_c, 10, 64, 64
11, 151080, Note_on_c, 10, 66, 72
11, 151176, Note_off_c, 10, 66, 64
11, 151200, Note_on_c, 10, 68, 72
11, 151296, Note_off_c, 10, 68, 64
11, 151320, Note_on_c, 10, 69, 72
11, 151416, Note_off_c, 10, 69, 64
11, 151440, Note_on_c, 10, 71, 72
11, 151536, Note_off_c, 10, 71, 64
11, 151560, Note_on_c, 10, 73, 72
11, 151656, Note_off_c, 10, 73, 64
11, 151680, Note_on_c, 10, 64, 127
11, 151680, Note_on_c, 10, 59, 72
11, 151776, Note_off_c, 10, 59, 64
11, 151776, Note_off_c, 10, 64, 64
11, 151800, Note_on_c, 10, 64, 72
11, 151800, Note_on_c, 10, 59, 72
11, 151896, Note_off_c, 10, 59, 64
11, 151896, Note_off_c, 10, 64, 64
11, 151920, Note_on_c, 10, 59, 72
11, 151920, Note_on_c, 10, 64, 72
11, 152016, Note_off_c, 10, 64, 64
11, 152016, Note_off_c, 10, 59, 64
11, 152040, Note_on_c, 10, 64, 72
11, 152040, Note_on_c, 10, 59, 72
11, 152136, Note_off_c, 10, 59, 64
11, 152136, Note_off_c, 10, 64, 64
11, 152160, Note_on_c, 10, 57, 127
11, 152160, Note_on_c, 10, 64, 127
11, 152256, Note_off_c, 10, 64, 64
11, 152256, Note_off_c, 10, 57, 64
11, 152280, Note_on_c, 10, 64, 72
11, 152280, Note_on_c, 10, 57, 72
11, 152376, Note_off_c, 10, 57, 64
11, 152376, Note_off_c, 10, 64, 64
11, 152400, Note_on_c, 10, 59, 72
11, 152400, Note_on_c, 10, 64, 72
11, 152496, Note_off_c, 10, 64, 64
11, 152496, Note_off_c, 10, 59, 64
11, 152520, Note_on_c, 10, 64, 72
11, 152520, Note_on_c, 10, 59, 72
11, 152616, Note_off_c, 10, 59, 64
11, 152616, Note_off_c, 10, 64, 64
11, 152640, Note_on_c, 10, 64, 72
11, 152640, Note_on_c, 10, 61, 72
11, 152736, Note_off_c, 10, 61, 64
11, 152736, Note_off_c, 10, 64, 64
11, 152760, Note_on_c, 10, 64, 72
11, 152760, Note_on_c, 10, 61, 72
11, 152856, Note_off_c, 10, 61, 64
11, 152856, Note_off_c, 10, 64, 64
11, 152880, Note_on_c, 10, 64, 72
11, 152880, Note_on_c, 10, 61, 72
11, 152976, Note_off_c, 10, 61, 64
11, 152976, Note_off_c, 10, 64, 64
11, 153000, Note_on_c, 10, 61, 72
11, 153000, Note_on_c, 10, 64, 72
11, 153096, Note_off_c, 10, 64, 64
11, 153096, Note_off_c, 10, 61, 64
11, 153120, Note_on_c, 10, 64, 127
11, 153120, Note_on_c, 10, 59, 127
11, 153216, Note_off_c, 10, 59, 64
11, 153216, Note_off_c, 10, 64, 64
11, 153240, Note_on_c, 10, 59, 72
11, 153240, Note_on_c, 10, 64, 72
11, 153336, Note_off_c, 10, 64, 64
11, 153336, Note_off_c, 10, 59, 64
11, 153360, Note_on_c, 10, 61, 72
11, 153360, Note_on_c, 10, 64, 72
11, 153456, Note_off_c, 10, 64, 64
11, 153456, Note_off_c, 10, 61, 64
11, 153480, Note_on_c, 10, 64, 72
11, 153480, Note_on_c, 10, 61, 72
11, 153576, Note_off_c, 10, 61, 64
11, 153576, Note_off_c, 10, 64, 64
11, 153600, Note_on_c, 10, 64, 72
11, 153600, Note_on_c, 10, 59, 72
11, 153696, Note_off_c, 10, 59, 64
11, 153696, Note_off_c, 10, 64, 64
11, 153720, Note_on_c, 10, 64, 72
11, 153720, Note_on_c, 10, 59, 72
11, 153816, Note_off_c, 10, 59, 64
11, 153816, Note_off_c, 10, 64, 64
11, 153840, Note_on_c, 10, 64, 72
11, 153840, Note_on_c, 10, 59, 72
11, 153936, Note_off_c, 10, 59, 64
11, 153936, Note_off_c, 10, 64, 64
11, 153960, Note_on_c, 10, 59, 72
11, 153960, Note_on_c, 10, 64, 72
11, 154056, Note_off_c, 10, 64, 64
11, 154056, Note_off_c, 10, 59, 64
11, 154080, Note_on_c, 10, 57, 72
11, 154080, Note_on_c, 10, 64, 72
11, 154176, Note_off_c, 10, 64, 64
11, 154176, Note_off_c, 10, 57, 64
11, 154200, Note_on_c, 10, 57, 72
11, 154200, Note_on_c, 10, 64, 72
11, 154296, Note_off_c, 10, 64, 64
11, 154296, Note_off_c, 10, 57, 64
11, 154320, Note_on_c, 10, 64, 72
11, 154320, Note_on_c, 10, 59, 72
11, 154416, Note_off_c, 10, 59, 64
11, 154416, Note_off_c, 10, 64, 64
11, 154440, Note_on_c, 10, 59, 72
11, 154440, Note_on_c, 10, 64, 72
11, 154536, Note_off_c, 10, 64, 64
11, 154536, Note_off_c, 10, 59, 64
11, 154560, Note_on_c, 10, 61, 72
11, 154656, Note_off_c, 10, 61, 64
11, 154680, Note_on_c, 10, 61, 72
11, 154776, Note_off_c, 10, 61, 64
11, 154800, Note_on_c, 10, 62, 72
11, 154896, Note_off_c, 10, 62, 64
11, 154920, Note_on_c, 10, 64, 72
11, 155016, Note_off_c, 10, 64, 64
11, 155040, Note_on_c, 10, 66, 127
11, 155136, Note_off_c, 10, 66, 64
11, 155160, Note_on_c, 10, 64, 72
11, 155256, Note_off_c, 10, 64, 64
11, 155280, Note_on_c, 10, 62, 72
11, 155376, Note_off_c, 10, 62, 64
11, 155400, Note_on_c, 10, 61, 72
11, 155496, Note_off_c, 10, 61, 64
11, 155520, Note_on_c, 10, 64, 72
11, 155520, Note_on_c, 10, 59, 72
11, 155616, Note_off_c, 10, 59, 64
11, 155616, Note_off_c, 10, 64, 64
11, 155640, Note_on_c, 10, 64, 72
11, 155640, Note_on_c, 10, 59, 72
11, 155736, Note_off_c, 10, 59, 64
11, 155736, Note_off_c, 10, 64, 64
11, 155760, Note_on_c, 10, 59, 72
11, 155760, Note_on_c, 10, 64, 72
11, 155856, Note_off_c, 10, 64, 64
11, 155856, Note_off_c, 10, 59, 64
11, 155880, Note_on_c, 10, 64, 72
11, 155880, Note_on_c, 10, 59, 72
11, 155976, Note_off_c, 10, 59, 64
11, 155976, Note_off_c, 10, 64, 64
11, 156000, Note_on_c, 10, 64, 127
11, 156000, Note_on_c, 10, 57, 127
11, 156096, Note_off_c, 10, 57, 64
11, 156096, Note_off_c, 10, 64, 64
11, 156120, Note_on_c, 10, 57, 72
11, 156120, Note_on_c, 10, 64, 72
11, 156216, Note_off_c, 10, 64, 64
11, 156216, Note_off_c, 10, 57, 64
11, 156240, Note_on_c, 10, 59, 72
11, 156240, Note_on_c, 10, 64, 72
11, 156336, Note_off_c, 10, 64, 64
11, 156336, Note_off_c, 10, 59, 64
11, 156360, Note_on_c, 10, 64, 72
11, 156360, Note_on_c, 10, 59, 72
11, 156456, Note_off_c, 10, 59, 64
11, 156456, Note_off_c, 10, 64, 64
11, 156480, Note_on_c, 10, 64, 72
11, 156480, Note_on_c, 10, 61, 72
11, 156576, Note_off_c, 10, 61, 64
11, 156576, Note_off_c, 10, 64, 64
11, 156600, Note_on_c, 10, 61, 72
11, 156600, Note_on_c, 10, 64, 72
11, 156696, Note_off_c, 10, 64, 64
11, 156696, Note_off_c, 10, 61, 64
11, 156720, Note_on_c, 10, 64, 72
11, 156720, Note_on_c, 10, 61, 72
11, 156816, Note_off_c, 10, 61, 64
11, 156816, Note_off_c, 10, 64, 64
11, 156840, Note_on_c, 10, 64, 72
11, 156840, Note_on_c, 10, 61, 72
11, 156936, Note_off_c, 10, 61, 64
11, 156936, Note_off_c, 10, 64, 64
11, 156960, Note_on_c, 10, 64, 127
11, 156960, Note_on_c, 10, 59, 127
11, 157056, Note_off_c, 10, 59, 64
11, 157056, Note_off_c, 10, 64, 64
11, 157080, Note_on_c, 10, 64, 72
11, 157080, Note_on_c, 10, 59, 72
11, 157176, Note_off_c, 10, 59, 64
11, 157176, Note_off_c, 10, 64, 64
11, 157200, Note_on_c, 10, 61, 72
11, 157200, Note_on_c, 10, 64, 72
11, 157296, Note_off_c, 10, 64, 64
11, 157296, Note_off_c, 10, 61, 64
11, 157320, Note_on_c, 10, 64, 72
11, 157320, Note_on_c, 10, 61, 72
11, 157416, Note_off_c, 10, 61, 64
11, 157416, Note_off_c, 10, 64, 64
11, 157440, Note_on_c, 10, 59, 72
11, 157440, Note_on_c, 10, 64, 72
11, 157536, Note_off_c, 10, 64, 64
11, 157536, Note_off_c, 10, 59, 64
11, 157560, Note_on_c, 10, 59, 72
11, 157560, Note_on_c, 10, 64, 72
11, 157656, Note_off_c, 10, 64, 64
11, 157656, Note_off_c, 10, 59, 64
11, 157680, Note_on_c, 10, 64, 72
11, 157680, Note_on_c, 10, 59, 72
11, 157776, Note_off_c, 10, 59, 64
11, 157776, Note_off_c, 10, 64, 64
11, 157800, Note_on_c, 10, 59, 72
11, 157800, Note_on_c, 10, 64, 72
11, 157896, Note_off_c, 10, 64, 64
11, 157896, Note_off_c, 10, 59, 64
11, 157920, Note_on_c, 10, 64, 72
11, 157920, Note_on_c, 10, 57, 72
11, 158016, Note_off_c, 10, 57, 64
11, 158016, Note_off_c, 10, 64, 64
11, 158040, Note_on_c, 10, 64, 72
11, 158040, Note_on_c, 10, 57, 72
11, 158136, Note_off_c, 10, 57, 64
11, 158136, Note_off_c, 10, 64, 64
11, 158160, Note_on_c, 10, 64, 72
11, 158160, Note_on_c, 10, 59, 72
11, 158256, Note_off_c, 10, 59, 64
11, 158256, Note_off_c, 10, 64, 64
11, 158280, Note_on_c, 10, 64, 72
11, 158280, Note_on_c, 10, 59, 72
11, 158376, Note_off_c, 10, 59, 64
11, 158376, Note_off_c, 10, 64, 64
11, 158400, Note_on_c, 10, 61, 72
11, 158496, Note_off_c, 10, 61, 64
11, 158520, Note_on_c, 10, 62, 72
11, 158616, Note_off_c, 10, 62, 64
11, 158640, Note_on_c, 10, 64, 72
11, 158736, Note_off_c, 10, 64, 64
11, 158760, Note_on_c, 10, 66, 72
11, 158856, Note_off_c, 10, 66, 64
11, 158880, Note_on_c, 10, 67, 72
11, 158976, Note_off_c, 10, 67, 64
11, 159000, Note_on_c, 10, 66, 72
11, 159096, Note_off_c, 10, 66, 64
11, 159120, Note_on_c, 10, 67, 72
11, 159216, Note_off_c, 10, 67, 64
11, 159240, Note_on_c, 10, 64, 72
11, 159336, Note_off_c, 10, 64, 64
11, 159360, Note_on_c, 10, 66, 72
11, 159456, Note_off_c, 10, 66, 64
11, 159480, Note_on_c, 10, 57, 72
11, 159576, Note_off_c, 10, 57, 64
11, 159600, Note_on_c, 10, 57, 72
11, 159696, Note_off_c, 10, 57, 64
11, 159720, Note_on_c, 10, 57, 72
11, 159816, Note_off_c, 10, 57, 64
11, 159840, Note_on_c, 10, 57, 127
11, 159936, Note_off_c, 10, 57, 64
11, 159960, Note_on_c, 10, 57, 72
11, 160056, Note_off_c, 10, 57, 64
11, 160080, Note_on_c, 10, 57, 72
11, 160176, Note_off_c, 10, 57, 64
11, 160200, Note_on_c, 10, 57, 72
11, 160296, Note_off_c, 10, 57, 64
11, 160320, Note_on_c, 10, 57, 72
11, 160416, Note_off_c, 10, 57, 64
11, 160440, Note_on_c, 10, 64, 72
11, 160536, Note_off_c, 10, 64, 64
11, 160560, Note_on_c, 10, 64, 72
11, 160656, Note_off_c, 10, 64, 64
11, 160680, Note_on_c, 10, 64, 72
11, 160776, Note_off_c, 10, 64, 64
11, 160800, Note_on_c, 10, 63, 127
11, 160896, Note_off_c, 10, 63, 64
11, 160920, Note_on_c, 10, 63, 72
11, 161016, Note_off_c, 10, 63, 64
11, 161040, Note_on_c, 10, 64, 72
11, 161136, Note_off_c, 10, 64, 64
11, 161160, Note_on_c, 10, 64, 72
11, 161256, Note_off_c, 10, 64, 64
11, 161280, Note_on_c, 10, 66, 72
11, 161376, Note_off_c, 10, 66, 64
11, 161400, Note_on_c, 10, 57, 72
11, 161496, Note_off_c, 10, 57, 64
11, 161520, Note_on_c, 10, 57, 72
11, 161616, Note_off_c, 10, 57, 64
11, 161640, Note_on_c, 10, 57, 72
11, 161736, Note_off_c, 10, 57, 64
11, 161760, Note_on_c, 10, 57, 127
11, 161856, Note_off_c, 10, 57, 64
11, 161880, Note_on_c, 10, 57, 72
11, 161976, Note_off_c, 10, 57, 64
11, 162000, Note_on_c, 10, 57, 72
11, 162096, Note_off_c, 10, 57, 64
11, 162120, Note_on_c, 10, 57, 72
11, 162216, Note_off_c, 10, 57, 64
11, 162240, Note_on_c, 10, 57, 72
11, 162336, Note_off_c, 10, 57, 64
11, 162360, Note_on_c, 10, 61, 72
11, 162456, Note_off_c, 10, 61, 64
11, 162480, Note_on_c, 10, 61, 72
11, 162576, Note_off_c, 10, 61, 64
11, 162600, Note_on_c, 10, 61, 72
11, 162696, Note_off_c, 10, 61, 64
11, 162720, Note_on_c, 10, 58, 127
11, 162816, Note_off_c, 10, 58, 64
11, 162840, Note_on_c, 10, 61, 72
11, 162936, Note_off_c, 10, 61, 64
11, 162960, Note_on_c, 10, 61, 72
11, 163056, Note_off_c, 10, 61, 64
11, 163080, Note_on_c, 10, 61, 72
11, 163176, Note_off_c, 10, 61, 64
11, 163200, Note_on_c, 10, 57, 72
11, 163296, Note_off_c, 10, 57, 64
11, 163320, Note_on_c, 10, 59, 72
11, 163416, Note_off_c, 10, 59, 64
11, 163440, Note_on_c, 10, 59, 72
11, 163536, Note_off_c, 10, 59, 64
11, 163560, Note_on_c, 10, 59, 72
11, 163656, Note_off_c, 10, 59, 64
11, 163680, Note_on_c, 10, 56, 127
11, 163776, Note_off_c, 10, 56, 64
11, 163800, Note_on_c, 10, 59, 72
11, 163896, Note_off_c, 10, 59, 64
11, 163920, Note_on_c, 10, 59, 72
11, 164016, Note_off_c, 10, 59, 64
11, 164040, Note_on_c, 10, 59, 72
11, 164136, Note_off_c, 10, 59, 64
11, 164160, Note_on_c, 10, 57, 72
11, 164256, Note_off_c, 10, 57, 64
11, 164280, Note_on_c, 10, 61, 72
11, 164376, Note_off_c, 10, 61, 64
11, 164400, Note_on_c, 10, 61, 72
11, 164496, Note_off_c, 10, 61, 64
11, 164520, Note_on_c, 10, 61, 72
11, 164616, Note_off_c, 10, 61, 64
11, 164640, Note_on_c, 10, 57, 127
11, 164736, Note_off_c, 10, 57, 64
11, 164760, Note_on_c, 10, 61, 72
11, 164856, Note_off_c, 10, 61, 64
11, 164880, Note_on_c, 10, 61, 72
11, 164976, Note_off_c, 10, 61, 64
11, 165000, Note_on_c, 10, 61, 72
11, 165096, Note_off_c, 10, 61, 64
11, 165120, Note_on_c, 10, 56, 72
11, 165216, Note_off_c, 10, 56, 64
11, 165240, Note_on_c, 10, 59, 72
11, 165336, Note_off_c, 10, 59, 64
11, 165360, Note_on_c, 10, 59, 72
11, 165456, Note_off_c, 10, 59, 64
11, 165480, Note_on_c, 10, 59, 72
11, 165576, Note_off_c, 10, 59, 64
11, 165600, Note_on_c, 10, 59, 127
11, 165696, Note_off_c, 10, 59, 64
11, 165720, Note_on_c, 10, 68, 72
11, 165816, Note_off_c, 10, 68, 64
11, 165840, Note_on_c, 10, 68, 72
11, 165936, Note_off_c, 10, 68, 64
11, 165960, Note_on_c, 10, 68, 72
11, 166056, Note_off_c, 10, 68, 64
11, 166080, Note_on_c, 10, 69, 72
11, 166176, Note_off_c, 10, 69, 64
11, 166200, Note_on_c, 10, 61, 72
11, 166296, Note_off_c, 10, 61, 64
11, 166320, Note_on_c, 10, 62, 72
11, 166416, Note_off_c, 10, 62, 64
11, 166440, Note_on_c, 10, 64, 72
11, 166536, Note_off_c, 10, 64, 64
11, 166560, Note_on_c, 10, 66, 72
11, 166656, Note_off_c, 10, 66, 64
11, 166680, Note_on_c, 10, 67, 72
11, 166776, Note_off_c, 10, 67, 64
11, 166800, Note_on_c, 10, 69, 72
11, 166896, Note_off_c, 10, 69, 64
11, 166920, Note_on_c, 10, 67, 72
11, 167016, Note_off_c, 10, 67, 64
11, 167040, Note_on_c, 10, 66, 72
11, 167136, Note_off_c, 10, 66, 64
11, 167160, Note_on_c, 10, 57, 72
11, 167256, Note_off_c, 10, 57, 64
11, 167280, Note_on_c, 10, 57, 72
11, 167376, Note_off_c, 10, 57, 64
11, 167400, Note_on_c, 10, 57, 72
11, 167496, Note_off_c, 10, 57, 64
11, 167520, Note_on_c, 10, 57, 127
11, 167616, Note_off_c, 10, 57, 64
11, 167640, Note_on_c, 10, 57, 72
11, 167736, Note_off_c, 10, 57, 64
11, 167760, Note_on_c, 10, 57, 72
11, 167856, Note_off_c, 10, 57, 64
11, 167880, Note_on_c, 10, 57, 72
11, 167976, Note_off_c, 10, 57, 64
11, 168000, Note_on_c, 10, 57, 72
11, 168096, Note_off_c, 10, 57, 64
11, 168120, Note_on_c, 10, 64, 72
11, 168216, Note_off_c, 10, 64, 64
11, 168240, Note_on_c, 10, 64, 72
11, 168336, Note_off_c, 10, 64, 64
11, 168360, Note_on_c, 10, 64, 72
11, 168456, Note_off_c, 10, 64, 64
11, 168480, Note_on_c, 10, 63, 127
11, 168576, Note_off_c, 10, 63, 64
11, 168600, Note_on_c, 10, 63, 72
11, 168696, Note_off_c, 10, 63, 64
11, 168720, Note_on_c, 10, 64, 72
11, 168816, Note_off_c, 10, 64, 64
11, 168840, Note_on_c, 10, 64, 72
11, 168936, Note_off_c, 10, 64, 64
11, 168960, Note_on_c, 10, 66, 72
11, 169056, Note_off_c, 10, 66, 64
11, 169080, Note_on_c, 10, 57, 72
11, 169176, Note_off_c, 10, 57, 64
11, 169200, Note_on_c, 10, 57, 72
11, 169296, Note_off_c, 10, 57, 64
11, 169320, Note_on_c, 10, 57, 72
11, 169416, Note_off_c, 10, 57, 64
11, 169440, Note_on_c, 10, 57, 127
11, 169536, Note_off_c, 10, 57, 64
11, 169560, Note_on_c, 10, 57, 72
11, 169656, Note_off_c, 10, 57, 64
11, 169680, Note_on_c, 10, 57, 72
11, 169776, Note_off_c, 10, 57, 64
11, 169800, Note_on_c, 10, 57, 72
11, 169896, Note_off_c, 10, 57, 64
11, 169920, Note_on_c, 10, 57, 72
11, 170016, Note_off_c, 10, 57, 64
11, 170040, Note_on_c, 10, 61, 72
11, 170136, Note_off_c, 10, 61, 64
11, 170160, Note_on_c, 10, 61, 72
11, 170256, Note_off_c, 10, 61, 64
11, 170280, Note_on_c, 10, 61, 72
11, 170376, Note_off_c, 10, 61, 64
11, 170400, Note_on_c, 10, 58, 127
11, 170496, Note_off_c, 10, 58, 64
11, 170520, Note_on_c, 10, 61, 72
11, 170616, Note_off_c, 10, 61, 64
11, 170640, Note_on_c, 10, 61, 72
11, 170736, Note_off_c, 10, 61, 64
11, 170760, Note_on_c, 10, 61, 72
11, 170856, Note_off_c, 10, 61, 64
11, 170880, Note_on_c, 10, 57, 72
11, 170976, Note_off_c, 10, 57, 64
11, 171000, Note_on_c, 10, 59, 72
11, 171096, Note_off_c, 10, 59, 64
11, 171120, Note_on_c, 10, 59, 72
11, 171216, Note_off_c, 10, 59, 64
11, 171240, Note_on_c, 10, 59, 72
11, 171336, Note_off_c, 10, 59, 64
11, 171360, Note_on_c, 10, 56, 127
11, 171456, Note_off_c, 10, 56, 64
11, 171480, Note_on_c, 10, 59, 72
11, 171576, Note_off_c, 10, 59, 64
11, 171600, Note_on_c, 10, 59, 72
11, 171696, Note_off_c, 10, 59, 64
11, 171720, Note_on_c, 10, 59, 72
11, 171816, Note_off_c, 10, 59, 64
11, 171840, Note_on_c, 10, 57, 72
11, 171936, Note_off_c, 10, 57, 64
11, 171960, Note_on_c, 10, 61, 72
11, 172056, Note_off_c, 10, 61, 64
11, 172080, Note_on_c, 10, 61, 72
11, 172176, Note_off_c, 10, 61, 64
11, 172200, Note_on_c, 10, 61, 72
11, 172296, Note_off_c, 10, 61, 64
11, 172320, Note_on_c, 10, 57, 127
11, 172416, Note_off_c, 10, 57, 64
11, 172440, Note_on_c, 10, 61, 72
11, 172536, Note_off_c, 10, 61, 64
11, 172560, Note_on_c, 10, 61, 72
11, 172656, Note_off_c, 10, 61, 64
11, 172680, Note_on_c, 10, 61, 72
11, 172776, Note_off_c, 10, 61, 64
11, 172800, Note_on_c, 10, 56, 72
11, 172896, Note_off_c, 10, 56, 64
11, 172920, Note_on_c, 10, 59, 72
11, 173016, Note_off_c, 10, 59, 64
11, 173040, Note_on_c, 10, 59, 72
11, 173136, Note_off_c, 10, 59, 64
11, 173160, Note_on_c, 10, 59, 72
11, 173256, Note_off_c, 10, 59, 64
11, 173280, Note_on_c, 10, 59, 127
11, 173376, Note_off_c, 10, 59, 64
11, 173400, Note_on_c, 10, 68, 72
11, 173496, Note_off_c, 10, 68, 64
11, 173520, Note_on_c, 10, 68, 72
11, 173616, Note_off_c, 10, 68, 64
11, 173640, Note_on_c, 10, 68, 72
11, 173736, Note_off_c, 10, 68, 64
11, 173760, Note_on_c, 10, 69, 108
11, 173760, Note_on_c, 10, 57, 127
11, 173760, Note_on_c, 10, 61, 108
11, 173880, Note_off_c, 10, 61, 64
11, 173880, Note_off_c, 10, 57, 64
11, 173880, Note_off_c, 10, 69, 64
11, 174840, Note_on_c, 10, 69, 108
11, 174840, Note_on_c, 10, 57, 127
11, 174840, Note_on_c, 10, 61, 108
11, 174960, Note_off_c, 10, 61, 64
11, 174960, Note_off_c, 10, 57, 64
11, 174960, Note_off_c, 10, 69, 64
11, 175920, Note_on_c, 10, 80, 108
11, 175920, Note_on_c, 10, 64, 127
11, 175920, Note_on_c, 10, 71, 108
11, 176040, Note_off_c, 10, 71, 64
11, 176040, Note_off_c, 10, 64, 64
11, 176040, Note_off_c, 10, 80, 64
11, 177000, Note_on_c, 10, 80, 108
11, 177000, Note_on_c, 10, 64, 127
11, 177000, Note_on_c, 10, 71, 108
11, 177120, Note_off_c, 10, 71, 64
11, 177120, Note_off_c, 10, 64, 64
11, 177120, Note_off_c, 10, 80, 64
11, 178080, Note_on_c, 10, 69, 127
11, 178080, Note_on_c, 10, 73, 108
11, 178080, Note_on_c, 10, 81, 108
11, 178200, Note_off_c, 10, 81, 64
11, 178200, Note_off_c, 10, 73, 64
11, 178200, Note_off_c, 10, 69, 64
11, 178560, Note_on_c, 10, 81, 108
11, 178560, Note_on_c, 10, 73, 108
11, 178560, Note_on_c, 10, 69, 127
11, 178680, Note_off_c, 10, 69, 64
11, 178680, Note_off_c, 10, 73, 64
11, 178680, Note_off_c, 10, 81, 64
11, 179040, Note_on_c, 10, 69, 127
11, 179040, Note_on_c, 10, 73, 108
11, 179040, Note_on_c, 10, 81, 108
11, 179160, Note_off_c, 10, 81, 64
11, 179160, Note_off_c, 10, 73, 64
11, 179160, Note_off_c, 10, 69, 64
11, 179520, Note_on_c, 10, 69, 127
11, 179520, Note_on_c, 10, 73, 108
11, 179520, Note_on_c, 10, 81, 108
11, 179640, Note_off_c, 10, 81, 64
11, 179640, Note_off_c, 10, 73, 64
11, 179640, Note_off_c, 10, 69, 64
11, 180000, Note_on_c, 10, 71, 108
11, 180000, Note_on_c, 10, 80, 108
11, 180120, Note_off_c, 10, 80, 64
11, 180120, Note_off_c, 10, 71, 64
11, 180480, Note_on_c, 10, 71, 108
11, 180480, Note_on_c, 10, 80, 108
11, 180600, Note_off_c, 10, 80, 64
11, 180600, Note_off_c, 10, 71, 64
11, 180960, Note_on_c, 10, 71, 108
11, 180960, Note_on_c, 10, 80, 108
11, 181080, Note_off_c, 10, 80, 64
11, 181080, Note_off_c, 10, 71, 64
11, 181440, Note_on_c, 10, 71, 108
11, 181440, Note_on_c, 10, 80, 108
11, 181560, Note_off_c, 10, 80, 64
11, 181560, Note_off_c, 10, 71, 64
11, 181920, Note_on_c, 10, 69, 108
11, 181920, Note_on_c, 10, 57, 127
11, 181920, Note_on_c, 10, 61, 108
11, 182040, Note_off_c, 10, 61, 64
11, 182040, Note_off_c, 10, 57, 64
11, 182040, Note_off_c, 10, 69, 64
11, 183000, Note_on_c, 10, 69, 108
11, 183000, Note_on_c, 10, 57, 127
11, 183000, Note_on_c, 10, 61, 108
11, 183120, Note_off_c, 10, 61, 64
11, 183120, Note_off_c, 10, 57, 64
11, 183120, Note_off_c, 10, 69, 64
11, 184080, Note_on_c, 10, 80, 108
11, 184080, Note_on_c, 10, 64, 127
11, 184080, Note_on_c, 10, 71, 108
11, 184200, Note_off_c, 10, 71, 64
11, 184200, Note_off_c, 10, 64, 64
11, 184200, Note_off_c, 10, 80, 64
11, 185160, Note_on_c, 10, 80, 108
11, 185160, Note_on_c, 10, 64, 127
11, 185160, Note_on_c, 10, 71, 108
11, 185280, Note_off_c, 10, 71, 64
11, 185280, Note_off_c, 10, 64, 64
11, 185280, Note_off_c, 10, 80, 64
11, 186240, Note_on_c, 10, 73, 100
11, 186336, Note_off_c, 10, 73, 64
11, 186360, Note_on_c, 10, 73, 100
11, 186456, Note_off_c, 10, 73, 64
11, 186480, Note_on_c, 10, 76, 100
11, 186576, Note_off_c, 10, 76, 64
11, 186600, Note_on_c, 10, 76, 100
11, 186696, Note_off_c, 10, 76, 64
11, 186720, Note_on_c, 10, 76, 100
11, 186816, Note_off_c, 10, 76, 64
11, 186840, Note_on_c, 10, 76, 100
11, 186936, Note_off_c, 10, 76, 64
11, 186960, Note_on_c, 10, 74, 100
11, 187056, Note_off_c, 10, 74, 64
11, 187080, Note_on_c, 10, 74, 100
11, 187176, Note_off_c, 10, 74, 64
11, 187200, Note_on_c, 10, 73, 100
11, 187296, Note_off_c, 10, 73, 64
11, 187320, Note_on_c, 10, 73, 100
11, 187416, Note_off_c, 10, 73, 64
11, 187440, Note_on_c, 10, 76, 100
11, 187536, Note_off_c, 10, 76, 64
11, 187560, Note_on_c, 10, 76, 100
11, 187656, Note_off_c, 10, 76, 64
11, 187680, Note_on_c, 10, 74, 100
11, 187776, Note_off_c, 10, 74, 64
11, 187800, Note_on_c, 10, 74, 100
11, 187896, Note_off_c, 10, 74, 64
11, 187920, Note_on_c, 10, 73, 100
11, 188016, Note_off_c, 10, 73, 64
11, 188040, Note_on_c, 10, 73, 100
11, 188136, Note_off_c, 10, 73, 64
11, 188160, Note_on_c, 10, 74, 100
11, 188256, Note_off_c, 10, 74, 64
11, 188280, Note_on_c, 10, 74, 100
11, 188376, Note_off_c, 10, 74, 64
11, 188400, Note_on_c, 10, 73, 100
11, 188496, Note_off_c, 10, 73, 64
11, 188520, Note_on_c, 10, 73, 100
11, 188616, Note_off_c, 10, 73, 64
11, 188640, Note_on_c, 10, 71, 100
11, 188736, Note_off_c, 10, 71, 64
11, 188760, Note_on_c, 10, 71, 100
11, 188856, Note_off_c, 10, 71, 64
11, 188880, Note_on_c, 10, 69, 100
11, 188976, Note_off_c, 10, 69, 64
11, 189000, Note_on_c, 10, 69, 100
11, 189096, Note_off_c, 10, 69, 64
11, 189120, Note_on_c, 10, 68, 100
11, 189216, Note_off_c, 10, 68, 64
11, 189240, Note_on_c, 10, 68, 100
11, 189336, Note_off_c, 10, 68, 64
11, 189360, Note_on_c, 10, 66, 100
11, 189456, Note_off_c, 10, 66, 64
11, 189480, Note_on_c, 10, 66, 100
11, 189576, Note_off_c, 10, 66, 64
11, 189600, Note_on_c, 10, 64, 100
11, 189696, Note_off_c, 10, 64, 64
11, 189720, Note_on_c, 10, 64, 100
11, 189816, Note_off_c, 10, 64, 64
11, 189840, Note_on_c, 10, 62, 100
11, 189936, Note_off_c, 10, 62, 64
11, 189960, Note_on_c, 10, 62, 100
11, 190056, Note_off_c, 10, 62, 64
11, 191280, Note_on_c, 10, 64, 100
11, 191400, Note_off_c, 10, 64, 64
11, 191400, Note_on_c, 10, 66, 97
11, 191520, Note_off_c, 10, 66, 64
11, 191520, Note_on_c, 10, 69, 95
11, 191640, Note_off_c, 10, 69, 64
11, 191640, Note_on_c, 10, 68, 92
11, 191760, Note_off_c, 10, 68, 64
11, 191760, Note_on_c, 10, 66, 89
11, 191880, Note_off_c, 10, 66, 64
11, 191880, Note_on_c, 10, 68, 87
11, 192000, Note_off_c, 10, 68, 64
11, 192000, Note_on_c, 10, 69, 80
11, 192480, Note_off_c, 10, 69, 64
11, 192480, Note_on_c, 10, 62, 80
11, 192960, Note_off_c, 10, 62, 64
11, 192960, Note_on_c, 10, 61, 80
11, 193440, Note_off_c, 10, 61, 64
11, 193440, Note_on_c, 10, 62, 80
11, 193920, Note_off_c, 10, 62, 64
11, 193920, Note_on_c, 10, 61, 80
11, 194160, Note_off_c, 10, 61, 64
11, 195120, Note_on_c, 10, 64, 100
11, 195240, Note_off_c, 10, 64, 64
11, 195240, Note_on_c, 10, 66, 97
11, 195360, Note_off_c, 10, 66, 64
11, 195360, Note_on_c, 10, 69, 95
11, 195480, Note_off_c, 10, 69, 64
11, 195480, Note_on_c, 10, 68, 92
11, 195600, Note_off_c, 10, 68, 64
11, 195600, Note_on_c, 10, 66, 89
11, 195720, Note_off_c, 10, 66, 64
11, 195720, Note_on_c, 10, 68, 87
11, 195840, Note_off_c, 10, 68, 64
11, 195840, Note_on_c, 10, 69, 80
11, 196320, Note_off_c, 10, 69, 64
11, 196320, Note_on_c, 10, 62, 80
11, 196800, Note_off_c, 10, 62, 64
11, 196800, Note_on_c, 10, 61, 80
11, 197280, Note_off_c, 10, 61, 64
11, 197280, Note_on_c, 10, 61, 80
11, 197760, Note_off_c, 10, 61, 64
11, 197760, Note_on_c, 10, 61, 80
11, 197874, Note_off_c, 10, 61, 64
11, 198000, Note_on_c, 10, 66, 80
11, 198120, Note_off_c, 10, 66, 64
11, 198120, Note_on_c, 10, 68, 80
11, 198240, Note_off_c, 10, 68, 64
11, 198240, Note_on_c, 10, 71, 80
11, 198360, Note_off_c, 10, 71, 64
11, 198360, Note_on_c, 10, 69, 80
11, 198480, Note_off_c, 10, 69, 64
11, 198480, Note_on_c, 10, 68, 80
11, 198600, Note_off_c, 10, 68, 64
11, 198720, Note_on_c, 10, 73, 80
11, 199200, Note_off_c, 10, 73, 64
11, 199200, Note_on_c, 10, 71, 80
11, 199680, Note_off_c, 10, 71, 64
11, 199680, Note_on_c, 10, 69, 80
11, 200160, Note_off_c, 10, 69, 64
11, 200160, Note_on_c, 10, 68, 80
11, 200640, Note_off_c, 10, 68, 64
11, 200640, Note_on_c, 10, 66, 80
11, 201120, Note_off_c, 10, 66, 64
11, 201120, Note_on_c, 10, 68, 80
11, 201600, Note_off_c, 10, 68, 64
11, 201600, Note_on_c, 10, 69, 110
11, 201696, Note_off_c, 10, 69, 64
11, 201840, Note_on_c, 10, 66, 80
11, 201960, Note_off_c, 10, 66, 64
11, 201960, Note_on_c, 10, 68, 80
11, 202080, Note_off_c, 10, 68, 64
11, 202080, Note_on_c, 10, 71, 80
11, 202200, Note_off_c, 10, 71, 64
11, 202200, Note_on_c, 10, 69, 80
11, 202320, Note_off_c, 10, 69, 64
11, 202320, Note_on_c, 10, 68, 80
11, 202440, Note_off_c, 10, 68, 64
11, 202440, Note_on_c, 10, 66, 80
11, 202560, Note_off_c, 10, 66, 64
11, 202560, Note_on_c, 10, 73, 80
11, 203040, Note_off_c, 10, 73, 64
11, 203040, Note_on_c, 10, 71, 80
11, 203520, Note_off_c, 10, 71, 64
11, 203520, Note_on_c, 10, 69, 80
11, 204000, Note_off_c, 10, 69, 64
11, 204000, Note_on_c, 10, 68, 80
11, 204480, Note_off_c, 10, 68, 64
11, 204480, Note_on_c, 10, 69, 80
11, 204960, Note_off_c, 10, 69, 64
11, 204960, Note_on_c, 10, 65, 80
11, 205440, Note_off_c, 10, 65, 64
11, 205440, Note_on_c, 10, 66, 110
11, 205554, Note_off_c, 10, 66, 64
11, 205800, Note_on_c, 10, 66, 80
11, 205914, Note_off_c, 10, 66, 64
11, 205920, Note_on_c, 10, 66, 80
11, 206034, Note_off_c, 10, 66, 64
11, 206280, Note_on_c, 10, 66, 80
11, 206394, Note_off_c, 10, 66, 64
11, 206400, Note_on_c, 10, 66, 80
11, 206514, Note_off_c, 10, 66, 64
11, 206760, Note_on_c, 10, 66, 80
11, 206874, Note_off_c, 10, 66, 64
11, 206880, Note_on_c, 10, 66, 80
11, 206994, Note_off_c, 10, 66, 64
11, 207240, Note_on_c, 10, 66, 80
11, 207354, Note_off_c, 10, 66, 64
11, 207360, Note_on_c, 10, 68, 80
11, 207474, Note_off_c, 10, 68, 64
11, 207720, Note_on_c, 10, 68, 80
11, 207834, Note_off_c, 10, 68, 64
11, 207840, Note_on_c, 10, 68, 80
11, 207954, Note_off_c, 10, 68, 64
11, 208200, Note_on_c, 10, 68, 80
11, 208314, Note_off_c, 10, 68, 64
11, 208320, Note_on_c, 10, 68, 80
11, 208434, Note_off_c, 10, 68, 64
11, 208680, Note_on_c, 10, 68, 80
11, 208794, Note_off_c, 10, 68, 64
11, 208800, Note_on_c, 10, 68, 80
11, 208914, Note_off_c, 10, 68, 64
11, 209160, Note_on_c, 10, 68, 80
11, 209274, Note_off_c, 10, 68, 64
11, 209280, Note_on_c, 10, 66, 110
11, 209394, Note_off_c, 10, 66, 64
11, 209640, Note_on_c, 10, 66, 80
11, 209754, Note_off_c, 10, 66, 64
11, 209760, Note_on_c, 10, 66, 80
11, 209874, Note_off_c, 10, 66, 64
11, 210120, Note_on_c, 10, 66, 80
11, 210234, Note_off_c, 10, 66, 64
11, 210240, Note_on_c, 10, 66, 110
11, 210354, Note_off_c, 10, 66, 64
11, 210600, Note_on_c, 10, 66, 80
11, 210714, Note_off_c, 10, 66, 64
11, 210720, Note_on_c, 10, 66, 80
11, 210834, Note_off_c, 10, 66, 64
11, 211080, Note_on_c, 10, 66, 80
11, 211194, Note_off_c, 10, 66, 64
11, 211200, Note_on_c, 10, 66, 110
11, 211314, Note_off_c, 10, 66, 64
11, 211560, Note_on_c, 10, 66, 80
11, 211674, Note_off_c, 10, 66, 64
11, 211680, Note_on_c, 10, 66, 80
11, 211794, Note_off_c, 10, 66, 64
11, 212040, Note_on_c, 10, 66, 80
11, 212154, Note_off_c, 10, 66, 64
11, 212160, Note_on_c, 10, 66, 110
11, 212274, Note_off_c, 10, 66, 64
11, 212520, Note_on_c, 10, 66, 80
11, 212634, Note_off_c, 10, 66, 64
11, 212640, Note_on_c, 10, 66, 80
11, 212754, Note_off_c, 10, 66, 64
11, 213000, Note_on_c, 10, 66, 80
11, 213114, Note_off_c, 10, 66, 64
11, 213120, Note_on_c, 10, 66, 110
11, 213234, Note_off_c, 10, 66, 64
11, 213480, Note_on_c, 10, 66, 80
11, 213594, Note_off_c, 10, 66, 64
11, 213600, Note_on_c, 10, 66, 80
11, 213714, Note_off_c, 10, 66, 64
11, 213960, Note_on_c, 10, 66, 80
11, 214074, Note_off_c, 10, 66, 64
11, 214080, Note_on_c, 10, 66, 80
11, 214194, Note_off_c, 10, 66, 64
11, 214440, Note_on_c, 10, 66, 80
11, 214554, Note_off_c, 10, 66, 64
11, 214560, Note_on_c, 10, 66, 80
11, 214674, Note_off_c, 10, 66, 64
11, 214920, Note_on_c, 10, 66, 80
11, 215034, Note_off_c, 10, 66, 64
11, 215040, Note_on_c, 10, 66, 127
11, 215154, Note_off_c, 10, 66, 64
11, 215160, Note_on_c, 10, 68, 99
11, 215256, Note_off_c, 10, 68, 64
11, 215280, Note_on_c, 10, 68, 99
11, 215376, Note_off_c, 10, 68, 64
11, 215400, Note_on_c, 10, 68, 99
11, 215496, Note_off_c, 10, 68, 64
11, 215520, Note_on_c, 10, 68, 99
11, 215616, Note_off_c, 10, 68, 64
11, 215640, Note_on_c, 10, 68, 99
11, 215736, Note_off_c, 10, 68, 64
11, 215760, Note_on_c, 10, 68, 99
11, 215856, Note_off_c, 10, 68, 64
11, 215880, Note_on_c, 10, 68, 99
11, 215976, Note_off_c, 10, 68, 64
11, 216000, Note_on_c, 10, 66, 45
11, 216096, Note_off_c, 10, 66, 64
11, 216120, Note_on_c, 10, 66, 45
11, 216216, Note_off_c, 10, 66, 64
11, 216240, Note_on_c, 10, 66, 45
11, 216336, Note_off_c, 10, 66, 64
11, 216360, Note_on_c, 10, 66, 45
11, 216456, Note_off_c, 10, 66, 64
11, 216480, Note_on_c, 10, 66, 45
11, 216576, Note_off_c, 10, 66, 64
11, 216600, Note_on_c, 10, 66, 45
11, 216696, Note_off_c, 10, 66, 64
11, 216720, Note_on_c, 10, 66, 45
11, 216816, Note_off_c, 10, 66, 64
11, 216840, Note_on_c, 10, 66, 45
11, 216936, Note_off_c, 10, 66, 64
11, 216960, Note_on_c, 10, 66, 45
11, 217056, Note_off_c, 10, 66, 64
11, 217080, Note_on_c, 10, 68, 45
11, 217176, Note_off_c, 10, 68, 64
11, 217200, Note_on_c, 10, 68, 45
11, 217296, Note_off_c, 10, 68, 64
11, 217320, Note_on_c, 10, 68, 45
11, 217416, Note_off_c, 10, 68, 64
11, 217440, Note_on_c, 10, 68, 45
11, 217536, Note_off_c, 10, 68, 64
11, 217560, Note_on_c, 10, 68, 45
11, 217656, Note_off_c, 10, 68, 64
11, 217680, Note_on_c, 10, 68, 45
11, 217776, Note_off_c, 10, 68, 64
11, 217800, Note_on_c, 10, 68, 45
11, 217896, Note_off_c, 10, 68, 64
11, 217920, Note_on_c, 10, 68, 45
11, 218016, Note_off_c, 10, 68, 64
11, 218040, Note_on_c, 10, 68, 45
11, 218136, Note_off_c, 10, 68, 64
11, 218160, Note_on_c, 10, 68, 45
11, 218256, Note_off_c, 10, 68, 64
11, 218280, Note_on_c, 10, 68, 45
11, 218376, Note_off_c, 10, 68, 64
11, 218400, Note_on_c, 10, 68, 45
11, 218496, Note_off_c, 10, 68, 64
11, 218520, Note_on_c, 10, 68, 45
11, 218616, Note_off_c, 10, 68, 64
11, 218640, Note_on_c, 10, 68, 45
11, 218736, Note_off_c, 10, 68, 64
11, 218760, Note_on_c, 10, 68, 45
11, 218856, Note_off_c, 10, 68, 64
11, 218880, Note_on_c, 10, 68, 50
11, 218976, Note_off_c, 10, 68, 64
11, 219000, Note_on_c, 10, 68, 50
11, 219096, Note_off_c, 10, 68, 64
11, 219120, Note_on_c, 10, 68, 50
11, 219216, Note_off_c, 10, 68, 64
11, 219240, Note_on_c, 10, 68, 50
11, 219336, Note_off_c, 10, 68, 64
11, 219360, Note_on_c, 10, 68, 99
11, 219456, Note_off_c, 10, 68, 64
11, 219480, Note_on_c, 10, 68, 99
11, 219576, Note_off_c, 10, 68, 64
11, 219600, Note_on_c, 10, 68, 99
11, 219696, Note_off_c, 10, 68, 64
11, 219720, Note_on_c, 10, 68, 99
11, 219816, Note_off_c, 10, 68, 64
11, 219840, Note_on_c, 10, 66, 40
11, 219936, Note_off_c, 10, 66, 64
11, 219960, Note_on_c, 10, 66, 40
11, 220056, Note_off_c, 10, 66, 64
11, 220080, Note_on_c, 10, 66, 40
11, 220176, Note_off_c, 10, 66, 64
11, 220200, Note_on_c, 10, 66, 40
11, 220296, Note_off_c, 10, 66, 64
11, 220320, Note_on_c, 10, 66, 40
11, 220416, Note_off_c, 10, 66, 64
11, 220440, Note_on_c, 10, 66, 40
11, 220536, Note_off_c, 10, 66, 64
11, 220560, Note_on_c, 10, 66, 40
11, 220656, Note_off_c, 10, 66, 64
11, 220680, Note_on_c, 10, 66, 40
11, 220776, Note_off_c, 10, 66, 64
11, 220800, Note_on_c, 10, 66, 40
11, 220896, Note_off_c, 10, 66, 64
11, 220920, Note_on_c, 10, 68, 40
11, 221016, Note_off_c, 10, 68, 64
11, 221040, Note_on_c, 10, 68, 40
11, 221136, Note_off_c, 10, 68, 64
11, 221160, Note_on_c, 10, 68, 40
11, 221256, Note_off_c, 10, 68, 64
11, 221280, Note_on_c, 10, 68, 40
11, 221376, Note_off_c, 10, 68, 64
11, 221400, Note_on_c, 10, 68, 40
11, 221496, Note_off_c, 10, 68, 64
11, 221520, Note_on_c, 10, 68, 40
11, 221616, Note_off_c, 10, 68, 64
11, 221640, Note_on_c, 10, 68, 40
11, 221736, Note_off_c, 10, 68, 64
11, 221760, Note_on_c, 10, 68, 40
11, 221856, Note_off_c, 10, 68, 64
11, 221880, Note_on_c, 10, 68, 40
11, 221976, Note_off_c, 10, 68, 64
11, 222000, Note_on_c, 10, 68, 40
11, 222096, Note_off_c, 10, 68, 64
11, 222120, Note_on_c, 10, 68, 40
11, 222216, Note_off_c, 10, 68, 64
11, 222240, Note_on_c, 10, 68, 40
11, 222336, Note_off_c, 10, 68, 64
11, 222360, Note_on_c, 10, 68, 40
11, 222456, Note_off_c, 10, 68, 64
11, 222480, Note_on_c, 10, 68, 40
11, 222576, Note_off_c, 10, 68, 64
11, 222600, Note_on_c, 10, 68, 40
11, 222696, Note_off_c, 10, 68, 64
11, 222720, Note_on_c, 10, 68, 51
11, 222816, Note_off_c, 10, 68, 64
11, 222840, Note_on_c, 10, 68, 50
11, 222936, Note_off_c, 10, 68, 64
11, 222960, Note_on_c, 10, 68, 50
11, 223056, Note_off_c, 10, 68, 64
11, 223080, Note_on_c, 10, 68, 49
11, 223176, Note_off_c, 10, 68, 64
11, 223200, Note_on_c, 10, 68, 48
11, 223296, Note_off_c, 10, 68, 64
11, 223320, Note_on_c, 10, 68, 47
11, 223416, Note_off_c, 10, 68, 64
11, 223440, Note_on_c, 10, 68, 46
11, 223536, Note_off_c, 10, 68, 64
11, 223560, Note_on_c, 10, 68, 46
11, 223656, Note_off_c, 10, 68, 64
11, 223680, Note_on_c, 10, 68, 46
11, 223776, Note_off_c, 10, 68, 64
11, 223800, Note_on_c, 10, 68, 45
11, 223896, Note_off_c, 10, 68, 64
11, 223920, Note_on_c, 10, 68, 44
11, 224016, Note_off_c, 10, 68, 64
11, 224040, Note_on_c, 10, 68, 43
11, 224136, Note_off_c, 10, 68, 64
11, 224160, Note_on_c, 10, 68, 42
11, 224256, Note_off_c, 10, 68, 64
11, 224280, Note_on_c, 10, 68, 42
11, 224376, Note_off_c, 10, 68, 64
11, 224400, Note_on_c, 10, 68, 41
11, 224496, Note_off_c, 10, 68, 64
11, 224520, Note_on_c, 10, 68, 40
11, 224616, Note_off_c, 10, 68, 64
11, 224640, Note_on_c, 10, 68, 39
11, 224736, Note_off_c, 10, 68, 64
11, 224760, Note_on_c, 10, 68, 38
11, 224856, Note_off_c, 10, 68, 64
11, 224880, Note_on_c, 10, 68, 38
11, 224976, Note_off_c, 10, 68, 64
11, 225000, Note_on_c, 10, 68, 38
11, 225096, Note_off_c, 10, 68, 64
11, 225120, Note_on_c, 10, 68, 37
11, 225216, Note_off_c, 10, 68, 64
11, 225240, Note_on_c, 10, 68, 36
11, 225336, Note_off_c, 10, 68, 64
11, 225360, Note_on_c, 10, 68, 35
11, 225456, Note_off_c, 10, 68, 64
11, 225480, Note_on_c, 10, 68, 34
11, 225576, Note_off_c, 10, 68, 64
11, 225600, Note_on_c, 10, 68, 34
11, 225696, Note_off_c, 10, 68, 64
11, 225720, Note_on_c, 10, 63, 33
11, 225816, Note_off_c, 10, 63, 64
11, 225840, Note_on_c, 10, 63, 32
11, 225936, Note_off_c, 10, 63, 64
11, 225960, Note_on_c, 10, 63, 31
11, 226056, Note_off_c, 10, 63, 64
11, 226080, Note_on_c, 10, 63, 51
11, 226176, Note_off_c, 10, 63, 64
11, 226200, Note_on_c, 10, 63, 58
11, 226296, Note_off_c, 10, 63, 64
11, 226320, Note_on_c, 10, 63, 66
11, 226416, Note_off_c, 10, 63, 64
11, 226440, Note_on_c, 10, 63, 73
11, 226536, Note_off_c, 10, 63, 64
11, 226560, Note_on_c, 10, 64, 64
11, 226632, Note_off_c, 10, 64, 64
11, 226920, Note_on_c, 10, 66, 64
11, 227040, Note_off_c, 10, 66, 64
11, 227040, Note_on_c, 10, 68, 96
11, 227490, Note_off_c, 10, 68, 64
11, 227520, Note_on_c, 10, 66, 77
11, 227592, Note_off_c, 10, 66, 64
11, 227880, Note_on_c, 10, 64, 64
11, 228000, Note_off_c, 10, 64, 64
11, 228000, Note_on_c, 10, 66, 96
11, 228450, Note_off_c, 10, 66, 64
11, 228480, Note_on_c, 10, 64, 77
11, 228552, Note_off_c, 10, 64, 64
11, 228840, Note_on_c, 10, 63, 64
11, 228960, Note_off_c, 10, 63, 64
11, 228960, Note_on_c, 10, 64, 96
11, 229410, Note_off_c, 10, 64, 64
11, 229440, Note_on_c, 10, 66, 77
11, 229512, Note_off_c, 10, 66, 64
11, 229800, Note_on_c, 10, 64, 64
11, 229920, Note_off_c, 10, 64, 64
11, 229920, Note_on_c, 10, 66, 96
11, 230370, Note_off_c, 10, 66, 64
11, 230400, Note_on_c, 10, 64, 64
11, 230626, Note_off_c, 10, 64, 64
11, 235200, Note_on_c, 10, 56, 40
11, 235200, Note_on_c, 10, 66, 40
11, 235584, Note_off_c, 10, 66, 64
11, 235584, Note_off_c, 10, 56, 64
11, 235680, Note_on_c, 10, 66, 40
11, 235680, Note_on_c, 10, 56, 40
11, 236064, Note_off_c, 10, 56, 64
11, 236064, Note_off_c, 10, 66, 64
11, 236160, Note_on_c, 10, 64, 64
11, 236232, Note_off_c, 10, 64, 64
11, 236520, Note_on_c, 10, 66, 64
11, 236640, Note_off_c, 10, 66, 64
11, 236640, Note_on_c, 10, 68, 96
11, 237090, Note_off_c, 10, 68, 64
11, 237120, Note_on_c, 10, 66, 77
11, 237192, Note_off_c, 10, 66, 64
11, 237480, Note_on_c, 10, 64, 64
11, 237600, Note_off_c, 10, 64, 64
11, 237600, Note_on_c, 10, 66, 96
11, 238050, Note_off_c, 10, 66, 64
11, 238080, Note_on_c, 10, 64, 77
11, 238152, Note_off_c, 10, 64, 64
11, 238440, Note_on_c, 10, 63, 64
11, 238560, Note_off_c, 10, 63, 64
11, 238560, Note_on_c, 10, 64, 96
11, 239010, Note_off_c, 10, 64, 64
11, 239040, Note_on_c, 10, 66, 77
11, 239112, Note_off_c, 10, 66, 64
11, 239400, Note_on_c, 10, 64, 64
11, 239520, Note_off_c, 10, 64, 64
11, 239520, Note_on_c, 10, 66, 96
11, 239970, Note_off_c, 10, 66, 64
11, 240000, Note_on_c, 10, 64, 64
11, 240226, Note_off_c, 10, 64, 64
11, 245160, Note_on_c, 10, 67, 92
11, 245280, Note_off_c, 10, 67, 64
11, 245280, Note_on_c, 10, 64, 92
11, 245376, Note_off_c, 10, 64, 64
11, 245640, Note_on_c, 10, 61, 92
11, 245760, Note_off_c, 10, 61, 64
11, 245760, Note_on_c, 10, 57, 92
11, 245856, Note_off_c, 10, 57, 64
11, 247680, Note_on_c, 10, 67, 96
11, 247776, Note_off_c, 10, 67, 64
11, 248040, Note_on_c, 10, 69, 96
11, 248160, Note_off_c, 10, 69, 64
11, 248160, Note_on_c, 10, 73, 96
11, 248256, Note_off_c, 10, 73, 64
11, 248520, Note_on_c, 10, 76, 96
11, 248640, Note_off_c, 10, 76, 64
11, 248640, Note_on_c, 10, 78, 96
11, 248736, Note_off_c, 10, 78, 64
11, 250920, Note_on_c, 10, 67, 115
11, 251040, Note_off_c, 10, 67, 64
11, 251040, Note_on_c, 10, 64, 115
11, 251136, Note_off_c, 10, 64, 64
11, 251400, Note_on_c, 10, 61, 115
11, 251520, Note_off_c, 10, 61, 64
11, 251520, Note_on_c, 10, 57, 115
11, 251616, Note_off_c, 10, 57, 64
11, 253440, Note_on_c, 10, 67, 95
11, 253536, Note_off_c, 10, 67, 64
11, 253800, Note_on_c, 10, 69, 95
11, 253920, Note_off_c, 10, 69, 64
11, 253920, Note_on_c, 10, 73, 95
11, 254016, Note_off_c, 10, 73, 64
11, 254280, Note_on_c, 10, 76, 95
11, 254400, Note_off_c, 10, 76, 64
11, 254400, Note_on_c, 10, 78, 72
11, 254496, Note_off_c, 10, 78, 64
11, 255360, Note_on_c, 10, 69, 99
11, 255360, Note_on_c, 10, 81, 99
11, 255456, Note_off_c, 10, 81, 64
11, 255456, Note_off_c, 10, 69, 64
11, 255480, Note_on_c, 10, 69, 99
11, 255480, Note_on_c, 10, 81, 99
11, 255576, Note_off_c, 10, 81, 64
11, 255576, Note_off_c, 10, 69, 64
11, 255600, Note_on_c, 10, 81, 99
11, 255600, Note_on_c, 10, 69, 99
11, 255696, Note_off_c, 10, 69, 64
11, 255696, Note_off_c, 10, 81, 64
11, 255720, Note_on_c, 10, 81, 99
11, 255720, Note_on_c, 10, 69, 99
11, 255816, Note_off_c, 10, 69, 64
11, 255816, Note_off_c, 10, 81, 64
11, 255840, Note_on_c, 10, 69, 99
11, 255840, Note_on_c, 10, 81, 99
11, 255936, Note_off_c, 10, 81, 64
11, 255936, Note_off_c, 10, 69, 64
11, 255960, Note_on_c, 10, 69, 99
11, 255960, Note_on_c, 10, 81, 99
11, 256056, Note_off_c, 10, 81, 64
11, 256056, Note_off_c, 10, 69, 64
11, 256080, Note_on_c, 10, 81, 99
11, 256080, Note_on_c, 10, 69, 99
11, 256176, Note_off_c, 10, 69, 64
11, 256176, Note_off_c, 10, 81, 64
11, 256200, Note_on_c, 10, 69, 99
11, 256200, Note_on_c, 10, 81, 99
11, 256296, Note_off_c, 10, 81, 64
11, 256296, Note_off_c, 10, 69, 64
11, 256320, Note_on_c, 10, 69, 99
11, 256320, Note_on_c, 10, 81, 99
11, 256416, Note_off_c, 10, 81, 64
11, 256416, Note_off_c, 10, 69, 64
11, 256440, Note_on_c, 10, 69, 99
11, 256440, Note_on_c, 10, 81, 99
11, 256536, Note_off_c, 10, 81, 64
11, 256536, Note_off_c, 10, 69, 64
11, 256560, Note_on_c, 10, 69, 99
11, 256560, Note_on_c, 10, 81, 99
11, 256656, Note_off_c, 10, 81, 64
11, 256656, Note_off_c, 10, 69, 64
11, 256680, Note_on_c, 10, 69, 99
11, 256680, Note_on_c, 10, 81, 99
11, 256776, Note_off_c, 10, 81, 64
11, 256776, Note_off_c, 10, 69, 64
11, 256800, Note_on_c, 10, 81, 99
11, 256800, Note_on_c, 10, 69, 99
11, 256896, Note_off_c, 10, 69, 64
11, 256896, Note_off_c, 10, 81, 64
11, 256920, Note_on_c, 10, 69, 99
11, 256920, Note_on_c, 10, 81, 99
11, 257016, Note_off_c, 10, 81, 64
11, 257016, Note_off_c, 10, 69, 64
11, 257040, Note_on_c, 10, 81, 99
11, 257040, Note_on_c, 10, 69, 99
11, 257136, Note_off_c, 10, 69, 64
11, 257136, Note_off_c, 10, 81, 64
11, 257160, Note_on_c, 10, 81, 99
11, 257160, Note_on_c, 10, 69, 99
11, 257256, Note_off_c, 10, 69, 64
11, 257256, Note_off_c, 10, 81, 64
11, 257280, Note_on_c, 10, 80, 127
11, 257376, Note_off_c, 10, 80, 64
11, 257400, Note_on_c, 10, 80, 99
11, 257496, Note_off_c, 10, 80, 64
11, 257520, Note_on_c, 10, 80, 99
11, 257616, Note_off_c, 10, 80, 64
11, 257640, Note_on_c, 10, 80, 99
11, 257736, Note_off_c, 10, 80, 64
11, 257760, Note_on_c, 10, 80, 99
11, 257856, Note_off_c, 10, 80, 64
11, 257880, Note_on_c, 10, 80, 99
11, 257976, Note_off_c, 10, 80, 64
11, 258000, Note_on_c, 10, 80, 99
11, 258096, Note_off_c, 10, 80, 64
11, 258120, Note_on_c, 10, 80, 99
11, 258216, Note_off_c, 10, 80, 64
11, 258240, Note_on_c, 10, 81, 127
11, 258336, Note_off_c, 10, 81, 64
11, 258360, Note_on_c, 10, 81, 99
11, 258456, Note_off_c, 10, 81, 64
11, 258480, Note_on_c, 10, 81, 99
11, 258576, Note_off_c, 10, 81, 64
11, 258600, Note_on_c, 10, 81, 99
11, 258696, Note_off_c, 10, 81, 64
11, 258720, Note_on_c, 10, 81, 99
11, 258816, Note_off_c, 10, 81, 64
11, 258840, Note_on_c, 10, 81, 99
11, 258936, Note_off_c, 10, 81, 64
11, 258960, Note_on_c, 10, 81, 99
11, 259056, Note_off_c, 10, 81, 64
11, 259080, Note_on_c, 10, 81, 99
11, 259176, Note_off_c, 10, 81, 64
11, 259200, Note_on_c, 10, 80, 127
11, 259296, Note_off_c, 10, 80, 64
11, 259320, Note_on_c, 10, 80, 99
11, 259416, Note_off_c, 10, 80, 64
11, 259440, Note_on_c, 10, 80, 99
11, 259536, Note_off_c, 10, 80, 64
11, 259560, Note_on_c, 10, 80, 99
11, 259656, Note_off_c, 10, 80, 64
11, 259680, Note_on_c, 10, 80, 99
11, 259776, Note_off_c, 10, 80, 64
11, 259800, Note_on_c, 10, 80, 99
11, 259896, Note_off_c, 10, 80, 64
11, 259920, Note_on_c, 10, 80, 99
11, 260016, Note_off_c, 10, 80, 64
11, 260040, Note_on_c, 10, 80, 99
11, 260136, Note_off_c, 10, 80, 64
11, 260160, Note_on_c, 10, 81, 127
11, 260256, Note_off_c, 10, 81, 64
11, 260280, Note_on_c, 10, 81, 99
11, 260376, Note_off_c, 10, 81, 64
11, 260400, Note_on_c, 10, 81, 99
11, 260496, Note_off_c, 10, 81, 64
11, 260520, Note_on_c, 10, 81, 99
11, 260616, Note_off_c, 10, 81, 64
11, 260640, Note_on_c, 10, 81, 99
11, 260736, Note_off_c, 10, 81, 64
11, 260760, Note_on_c, 10, 81, 99
11, 260856, Note_off_c, 10, 81, 64
11, 260880, Note_on_c, 10, 81, 99
11, 260976, Note_off_c, 10, 81, 64
11, 261000, Note_on_c, 10, 81, 99
11, 261096, Note_off_c, 10, 81, 64
11, 261120, Note_on_c, 10, 80, 127
11, 261216, Note_off_c, 10, 80, 64
11, 261240, Note_on_c, 10, 80, 99
11, 261336, Note_off_c, 10, 80, 64
11, 261360, Note_on_c, 10, 80, 99
11, 261456, Note_off_c, 10, 80, 64
11, 261480, Note_on_c, 10, 80, 99
11, 261576, Note_off_c, 10, 80, 64
11, 261600, Note_on_c, 10, 80, 99
11, 261696, Note_off_c, 10, 80, 64
11, 261720, Note_on_c, 10, 80, 99
11, 261816, Note_off_c, 10, 80, 64
11, 261840, Note_on_c, 10, 80, 99
11, 261936, Note_off_c, 10, 80, 64
11, 261960, Note_on_c, 10, 80, 99
11, 262056, Note_off_c, 10, 80, 64
11, 262080, Note_on_c, 10, 81, 127
11, 262080, Note_on_c, 10, 69, 127
11, 262176, Note_off_c, 10, 69, 64
11, 262176, Note_off_c, 10, 81, 64
11, 262200, Note_on_c, 10, 81, 99
11, 262200, Note_on_c, 10, 69, 99
11, 262296, Note_off_c, 10, 69, 64
11, 262296, Note_off_c, 10, 81, 64
11, 262320, Note_on_c, 10, 69, 99
11, 262320, Note_on_c, 10, 81, 99
11, 262416, Note_off_c, 10, 81, 64
11, 262416, Note_off_c, 10, 69, 64
11, 262440, Note_on_c, 10, 81, 99
11, 262440, Note_on_c, 10, 69, 99
11, 262536, Note_off_c, 10, 69, 64
11, 262536, Note_off_c, 10, 81, 64
11, 262560, Note_on_c, 10, 69, 99
11, 262560, Note_on_c, 10, 81, 99
11, 262656, Note_off_c, 10, 81, 64
11, 262656, Note_off_c, 10, 69, 64
11, 262680, Note_on_c, 10, 81, 99
11, 262680, Note_on_c, 10, 69, 99
11, 262776, Note_off_c, 10, 69, 64
11, 262776, Note_off_c, 10, 81, 64
11, 262800, Note_on_c, 10, 69, 99
11, 262800, Note_on_c, 10, 81, 99
11, 262896, Note_off_c, 10, 81, 64
11, 262896, Note_off_c, 10, 69, 64
11, 262920, Note_on_c, 10, 69, 99
11, 262920, Note_on_c, 10, 81, 99
11, 263016, Note_off_c, 10, 81, 64
11, 263016, Note_off_c, 10, 69, 64
11, 263040, Note_on_c, 10, 80, 127
11, 263136, Note_off_c, 10, 80, 64
11, 263160, Note_on_c, 10, 80, 99
11, 263256, Note_off_c, 10, 80, 64
11, 263280, Note_on_c, 10, 80, 99
11, 263376, Note_off_c, 10, 80, 64
11, 263400, Note_on_c, 10, 80, 99
11, 263496, Note_off_c, 10, 80, 64
11, 263520, Note_on_c, 10, 80, 99
11, 263616, Note_off_c, 10, 80, 64
11, 263640, Note_on_c, 10, 80, 99
11, 263736, Note_off_c, 10, 80, 64
11, 263760, Note_on_c, 10, 80, 99
11, 263856, Note_off_c, 10, 80, 64
11, 263880, Note_on_c, 10, 80, 99
11, 263976, Note_off_c, 10, 80, 64
11, 264000, Note_on_c, 10, 80, 127
11, 264096, Note_off_c, 10, 80, 64
11, 264120, Note_on_c, 10, 80, 99
11, 264216, Note_off_c, 10, 80, 64
11, 264240, Note_on_c, 10, 80, 99
11, 264336, Note_off_c, 10, 80, 64
11, 264360, Note_on_c, 10, 80, 99
11, 264456, Note_off_c, 10, 80, 64
11, 264480, Note_on_c, 10, 80, 99
11, 264576, Note_off_c, 10, 80, 64
11, 264600, Note_on_c, 10, 80, 99
11, 264696, Note_off_c, 10, 80, 64
11, 264720, Note_on_c, 10, 80, 99
11, 264816, Note_off_c, 10, 80, 64
11, 264840, Note_on_c, 10, 80, 99
11, 264936, Note_off_c, 10, 80, 64
11, 264960, Note_on_c, 10, 80, 127
11, 265056, Note_off_c, 10, 80, 64
11, 265080, Note_on_c, 10, 76, 127
11, 265176, Note_off_c, 10, 76, 64
11, 265200, Note_on_c, 10, 78, 127
11, 265296, Note_off_c, 10, 78, 64
11, 265320, Note_on_c, 10, 80, 127
11, 265416, Note_off_c, 10, 80, 64
11, 265440, Note_on_c, 10, 83, 127
11, 265536, Note_off_c, 10, 83, 64
11, 265560, Note_on_c, 10, 81, 127
11, 265656, Note_off_c, 10, 81, 64
11, 265680, Note_on_c, 10, 80, 127
11, 265776, Note_off_c, 10, 80, 64
11, 265800, Note_on_c, 10, 78, 127
11, 265896, Note_off_c, 10, 78, 64
11, 265920, Note_on_c, 10, 83, 127
11, 266016, Note_off_c, 10, 83, 64
11, 266040, Note_on_c, 10, 81, 127
11, 266136, Note_off_c, 10, 81, 64
11, 266160, Note_on_c, 10, 80, 127
11, 266256, Note_off_c, 10, 80, 64
11, 266280, Note_on_c, 10, 78, 127
11, 266376, Note_off_c, 10, 78, 64
11, 266400, Note_on_c, 10, 83, 127
11, 266496, Note_off_c, 10, 83, 64
11, 266520, Note_on_c, 10, 81, 127
11, 266616, Note_off_c, 10, 81, 64
11, 266640, Note_on_c, 10, 80, 127
11, 266736, Note_off_c, 10, 80, 64
11, 266760, Note_on_c, 10, 78, 127
11, 266856, Note_off_c, 10, 78, 64
11, 266880, Note_on_c, 10, 80, 127
11, 266976, Note_off_c, 10, 80, 64
11, 267000, Note_on_c, 10, 76, 127
11, 267096, Note_off_c, 10, 76, 64
11, 267120, Note_on_c, 10, 78, 127
11, 267216, Note_off_c, 10, 78, 64
11, 267240, Note_on_c, 10, 80, 127
11, 267336, Note_off_c, 10, 80, 64
11, 267360, Note_on_c, 10, 83, 127
11, 267456, Note_off_c, 10, 83, 64
11, 267480, Note_on_c, 10, 81, 127
11, 267576, Note_off_c, 10, 81, 64
11, 267600, Note_on_c, 10, 80, 127
11, 267696, Note_off_c, 10, 80, 64
11, 267720, Note_on_c, 10, 78, 127
11, 267816, Note_off_c, 10, 78, 64
11, 267840, Note_on_c, 10, 83, 127
11, 267936, Note_off_c, 10, 83, 64
11, 267960, Note_on_c, 10, 81, 127
11, 268056, Note_off_c, 10, 81, 64
11, 268080, Note_on_c, 10, 80, 127
11, 268176, Note_off_c, 10, 80, 64
11, 268200, Note_on_c, 10, 78, 127
11, 268296, Note_off_c, 10, 78, 64
11, 268320, Note_on_c, 10, 83, 127
11, 268416, Note_off_c, 10, 83, 64
11, 268440, Note_on_c, 10, 81, 127
11, 268536, Note_off_c, 10, 81, 64
11, 268560, Note_on_c, 10, 80, 127
11, 268656, Note_off_c, 10, 80, 64
11, 268680, Note_on_c, 10, 78, 127
11, 268776, Note_off_c, 10, 78, 64
11, 268800, Note_on_c, 10, 76, 127
11, 268896, Note_off_c, 10, 76, 64
11, 268920, Note_on_c, 10, 76, 127
11, 269016, Note_off_c, 10, 76, 64
11, 269040, Note_on_c, 10, 78, 127
11, 269136, Note_off_c, 10, 78, 64
11, 269160, Note_on_c, 10, 80, 127
11, 269256, Note_off_c, 10, 80, 64
11, 269280, Note_on_c, 10, 83, 127
11, 269376, Note_off_c, 10, 83, 64
11, 269400, Note_on_c, 10, 81, 127
11, 269496, Note_off_c, 10, 81, 64
11, 269520, Note_on_c, 10, 80, 127
11, 269616, Note_off_c, 10, 80, 64
11, 269640, Note_on_c, 10, 78, 127
11, 269736, Note_off_c, 10, 78, 64
11, 269760, Note_on_c, 10, 76, 127
11, 269856, Note_off_c, 10, 76, 64
11, 269880, Note_on_c, 10, 76, 127
11, 269976, Note_off_c, 10, 76, 64
11, 270000, Note_on_c, 10, 78, 127
11, 270096, Note_off_c, 10, 78, 64
11, 270120, Note_on_c, 10, 80, 127
11, 270216, Note_off_c, 10, 80, 64
11, 270240, Note_on_c, 10, 83, 127
11, 270336, Note_off_c, 10, 83, 64
11, 270360, Note_on_c, 10, 81, 127
11, 270456, Note_off_c, 10, 81, 64
11, 270480, Note_on_c, 10, 80, 127
11, 270576, Note_off_c, 10, 80, 64
11, 270600, Note_on_c, 10, 78, 127
11, 270696, Note_off_c, 10, 78, 64
11, 270720, Note_on_c, 10, 76, 127
11, 270816, Note_off_c, 10, 76, 64
11, 270840, Note_on_c, 10, 76, 127
11, 270936, Note_off_c, 10, 76, 64
11, 270960, Note_on_c, 10, 78, 127
11, 271056, Note_off_c, 10, 78, 64
11, 271080, Note_on_c, 10, 80, 127
11, 271176, Note_off_c, 10, 80, 64
11, 271200, Note_on_c, 10, 83, 127
11, 271296, Note_off_c, 10, 83, 64
11, 271320, Note_on_c, 10, 81, 127
11, 271416, Note_off_c, 10, 81, 64
11, 271440, Note_on_c, 10, 80, 127
11, 271536, Note_off_c, 10, 80, 64
11, 271560, Note_on_c, 10, 78, 127
11, 271656, Note_off_c, 10, 78, 64
11, 271680, Note_on_c, 10, 76, 127
11, 271776, Note_off_c, 10, 76, 64
11, 271800, Note_on_c, 10, 81, 127
11, 271896, Note_off_c, 10, 81, 64
11, 271920, Note_on_c, 10, 81, 127
11, 272016, Note_off_c, 10, 81, 64
11, 272040, Note_on_c, 10, 81, 127
11, 272136, Note_off_c, 10, 81, 64
11, 272160, Note_on_c, 10, 82, 127
11, 272256, Note_off_c, 10, 82, 64
11, 272280, Note_on_c, 10, 82, 127
11, 272376, Note_off_c, 10, 82, 64
11, 272400, Note_on_c, 10, 82, 127
11, 272496, Note_off_c, 10, 82, 64
11, 272520, Note_on_c, 10, 82, 127
11, 272616, Note_off_c, 10, 82, 64
11, 272640, Note_on_c, 10, 64, 127
11, 272640, Note_on_c, 10, 70, 127
11, 272784, Note_off_c, 10, 70, 64
11, 272784, Note_off_c, 10, 64, 64
11, 275040, Note_on_c, 10, 70, 127
11, 275040, Note_on_c, 10, 64, 127
11, 275184, Note_off_c, 10, 64, 64
11, 275184, Note_off_c, 10, 70, 64
11, 277440, Note_on_c, 10, 60, 125
11, 277440, Note_on_c, 10, 55, 65
11, 277536, Note_off_c, 10, 55, 64
11, 277536, Note_off_c, 10, 60, 64
11, 277560, Note_on_c, 10, 60, 65
11, 277560, Note_on_c, 10, 55, 65
11, 277656, Note_off_c, 10, 55, 64
11, 277656, Note_off_c, 10, 60, 64
11, 277680, Note_on_c, 10, 55, 65
11, 277680, Note_on_c, 10, 60, 65
11, 277776, Note_off_c, 10, 60, 64
11, 277776, Note_off_c, 10, 55, 64
11, 277800, Note_on_c, 10, 60, 65
11, 277800, Note_on_c, 10, 55, 65
11, 277896, Note_off_c, 10, 55, 64
11, 277896, Note_off_c, 10, 60, 64
11, 277920, Note_on_c, 10, 53, 125
11, 277920, Note_on_c, 10, 60, 125
11, 278016, Note_off_c, 10, 60, 64
11, 278016, Note_off_c, 10, 53, 64
11, 278040, Note_on_c, 10, 60, 65
11, 278040, Note_on_c, 10, 53, 65
11, 278136, Note_off_c, 10, 53, 64
11, 278136, Note_off_c, 10, 60, 64
11, 278160, Note_on_c, 10, 55, 65
11, 278160, Note_on_c, 10, 60, 65
11, 278256, Note_off_c, 10, 60, 64
11, 278256, Note_off_c, 10, 55, 64
11, 278280, Note_on_c, 10, 55, 65
11, 278280, Note_on_c, 10, 60, 65
11, 278376, Note_off_c, 10, 60, 64
11, 278376, Note_off_c, 10, 55, 64
11, 278400, Note_on_c, 10, 60, 65
11, 278400, Note_on_c, 10, 57, 65
11, 278496, Note_off_c, 10, 57, 64
11, 278496, Note_off_c, 10, 60, 64
11, 278520, Note_on_c, 10, 60, 65
11, 278520, Note_on_c, 10, 57, 65
11, 278616, Note_off_c, 10, 57, 64
11, 278616, Note_off_c, 10, 60, 64
11, 278640, Note_on_c, 10, 60, 65
11, 278640, Note_on_c, 10, 57, 65
11, 278736, Note_off_c, 10, 57, 64
11, 278736, Note_off_c, 10, 60, 64
11, 278760, Note_on_c, 10, 57, 65
11, 278760, Note_on_c, 10, 60, 65
11, 278856, Note_off_c, 10, 60, 64
11, 278856, Note_off_c, 10, 57, 64
11, 278880, Note_on_c, 10, 60, 125
11, 278880, Note_on_c, 10, 55, 125
11, 278976, Note_off_c, 10, 55, 64
11, 278976, Note_off_c, 10, 60, 64
11, 279000, Note_on_c, 10, 55, 65
11, 279000, Note_on_c, 10, 60, 65
11, 279096, Note_off_c, 10, 60, 64
11, 279096, Note_off_c, 10, 55, 64
11, 279120, Note_on_c, 10, 57, 65
11, 279120, Note_on_c, 10, 60, 65
11, 279216, Note_off_c, 10, 60, 64
11, 279216, Note_off_c, 10, 57, 64
11, 279240, Note_on_c, 10, 60, 65
11, 279240, Note_on_c, 10, 57, 65
11, 279336, Note_off_c, 10, 57, 64
11, 279336, Note_off_c, 10, 60, 64
11, 279360, Note_on_c, 10, 60, 65
11, 279360, Note_on_c, 10, 55, 65
11, 279456, Note_off_c, 10, 55, 64
11, 279456, Note_off_c, 10, 60, 64
11, 279480, Note_on_c, 10, 60, 65
11, 279480, Note_on_c, 10, 55, 65
11, 279576, Note_off_c, 10, 55, 64
11, 279576, Note_off_c, 10, 60, 64
11, 279600, Note_on_c, 10, 60, 65
11, 279600, Note_on_c, 10, 55, 65
11, 279696, Note_off_c, 10, 55, 64
11, 279696, Note_off_c, 10, 60, 64
11, 279720, Note_on_c, 10, 55, 65
11, 279720, Note_on_c, 10, 60, 65
11, 279816, Note_off_c, 10, 60, 64
11, 279816, Note_off_c, 10, 55, 64
11, 279840, Note_on_c, 10, 53, 65
11, 279840, Note_on_c, 10, 60, 65
11, 279936, Note_off_c, 10, 60, 64
11, 279936, Note_off_c, 10, 53, 64
11, 279960, Note_on_c, 10, 53, 65
11, 279960, Note_on_c, 10, 60, 65
11, 280056, Note_off_c, 10, 60, 64
11, 280056, Note_off_c, 10, 53, 64
11, 280080, Note_on_c, 10, 60, 65
11, 280080, Note_on_c, 10, 55, 65
11, 280176, Note_off_c, 10, 55, 64
11, 280176, Note_off_c, 10, 60, 64
11, 280200, Note_on_c, 10, 55, 65
11, 280200, Note_on_c, 10, 60, 65
11, 280296, Note_off_c, 10, 60, 64
11, 280296, Note_off_c, 10, 55, 64
11, 280320, Note_on_c, 10, 57, 127
11, 280680, Note_off_c, 10, 57, 64
11, 280680, Note_on_c, 10, 65, 127
11, 280776, Note_off_c, 10, 65, 64
11, 280800, Note_on_c, 10, 65, 127
11, 282192, Note_off_c, 10, 65, 64
11, 282240, Note_on_c, 10, 64, 127
11, 282360, Note_off_c, 10, 64, 64
11, 284160, Note_on_c, 10, 64, 125
11, 284160, Note_on_c, 10, 59, 65
11, 284256, Note_off_c, 10, 59, 64
11, 284256, Note_off_c, 10, 64, 64
11, 284280, Note_on_c, 10, 64, 65
11, 284280, Note_on_c, 10, 59, 65
11, 284376, Note_off_c, 10, 59, 64
11, 284376, Note_off_c, 10, 64, 64
11, 284400, Note_on_c, 10, 64, 65
11, 284400, Note_on_c, 10, 59, 65
11, 284496, Note_off_c, 10, 59, 64
11, 284496, Note_off_c, 10, 64, 64
11, 284520, Note_on_c, 10, 64, 65
11, 284520, Note_on_c, 10, 59, 65
11, 284616, Note_off_c, 10, 59, 64
11, 284616, Note_off_c, 10, 64, 64
11, 284640, Note_on_c, 10, 57, 125
11, 284640, Note_on_c, 10, 64, 125
11, 284736, Note_off_c, 10, 64, 64
11, 284736, Note_off_c, 10, 57, 64
11, 284760, Note_on_c, 10, 57, 65
11, 284760, Note_on_c, 10, 64, 65
11, 284856, Note_off_c, 10, 64, 64
11, 284856, Note_off_c, 10, 57, 64
11, 284880, Note_on_c, 10, 64, 65
11, 284880, Note_on_c, 10, 59, 65
11, 284976, Note_off_c, 10, 59, 64
11, 284976, Note_off_c, 10, 64, 64
11, 285000, Note_on_c, 10, 59, 65
11, 285000, Note_on_c, 10, 64, 65
11, 285096, Note_off_c, 10, 64, 64
11, 285096, Note_off_c, 10, 59, 64
11, 285120, Note_on_c, 10, 64, 65
11, 285120, Note_on_c, 10, 60, 65
11, 285216, Note_off_c, 10, 60, 64
11, 285216, Note_off_c, 10, 64, 64
11, 285240, Note_on_c, 10, 60, 65
11, 285240, Note_on_c, 10, 64, 65
11, 285336, Note_off_c, 10, 64, 64
11, 285336, Note_off_c, 10, 60, 64
11, 285360, Note_on_c, 10, 60, 65
11, 285360, Note_on_c, 10, 64, 65
11, 285456, Note_off_c, 10, 64, 64
11, 285456, Note_off_c, 10, 60, 64
11, 285480, Note_on_c, 10, 64, 65
11, 285480, Note_on_c, 10, 60, 65
11, 285576, Note_off_c, 10, 60, 64
11, 285576, Note_off_c, 10, 64, 64
11, 285600, Note_on_c, 10, 59, 125
11, 285600, Note_on_c, 10, 64, 125
11, 285696, Note_off_c, 10, 64, 64
11, 285696, Note_off_c, 10, 59, 64
11, 285720, Note_on_c, 10, 59, 65
11, 285720, Note_on_c, 10, 64, 65
11, 285816, Note_off_c, 10, 64, 64
11, 285816, Note_off_c, 10, 59, 64
11, 285840, Note_on_c, 10, 64, 65
11, 285840, Note_on_c, 10, 60, 65
11, 285936, Note_off_c, 10, 60, 64
11, 285936, Note_off_c, 10, 64, 64
11, 285960, Note_on_c, 10, 64, 65
11, 285960, Note_on_c, 10, 60, 65
11, 286056, Note_off_c, 10, 60, 64
11, 286056, Note_off_c, 10, 64, 64
11, 286080, Note_on_c, 10, 64, 65
11, 286080, Note_on_c, 10, 59, 65
11, 286176, Note_off_c, 10, 59, 64
11, 286176, Note_off_c, 10, 64, 64
11, 286200, Note_on_c, 10, 59, 65
11, 286200, Note_on_c, 10, 64, 65
11, 286296, Note_off_c, 10, 64, 64
11, 286296, Note_off_c, 10, 59, 64
11, 286320, Note_on_c, 10, 59, 65
11, 286320, Note_on_c, 10, 64, 65
11, 286416, Note_off_c, 10, 64, 64
11, 286416, Note_off_c, 10, 59, 64
11, 286440, Note_on_c, 10, 59, 65
11, 286440, Note_on_c, 10, 64, 65
11, 286536, Note_off_c, 10, 64, 64
11, 286536, Note_off_c, 10, 59, 64
11, 286560, Note_on_c, 10, 57, 65
11, 286560, Note_on_c, 10, 64, 65
11, 286656, Note_off_c, 10, 64, 64
11, 286656, Note_off_c, 10, 57, 64
11, 286680, Note_on_c, 10, 57, 65
11, 286680, Note_on_c, 10, 64, 65
11, 286776, Note_off_c, 10, 64, 64
11, 286776, Note_off_c, 10, 57, 64
11, 286800, Note_on_c, 10, 64, 65
11, 286800, Note_on_c, 10, 59, 65
11, 286896, Note_off_c, 10, 59, 64
11, 286896, Note_off_c, 10, 64, 64
11, 286920, Note_on_c, 10, 59, 65
11, 286920, Note_on_c, 10, 64, 65
11, 287016, Note_off_c, 10, 64, 64
11, 287016, Note_off_c, 10, 59, 64
11, 287040, Note_on_c, 10, 60, 127
11, 287400, Note_off_c, 10, 60, 64
11, 287400, Note_on_c, 10, 69, 127
11, 287496, Note_off_c, 10, 69, 64
11, 287520, Note_on_c, 10, 69, 127
11, 288912, Note_off_c, 10, 69, 64
11, 288960, Note_on_c, 10, 66, 127
11, 289080, Note_off_c, 10, 66, 64
11, 290880, Note_on_c, 10, 58, 127
11, 291240, Note_off_c, 10, 58, 64
11, 291240, Note_on_c, 10, 67, 127
11, 291336, Note_off_c, 10, 67, 64
11, 291360, Note_on_c, 10, 67, 127
11, 292752, Note_off_c, 10, 67, 64
11, 292800, Note_on_c, 10, 64, 127
11, 292920, Note_off_c, 10, 64, 64
11, 294720, Note_on_c, 10, 56, 127
11, 295080, Note_off_c, 10, 56, 64
11, 295080, Note_on_c, 10, 65, 127
11, 295176, Note_off_c, 10, 65, 64
11, 295200, Note_on_c, 10, 65, 127
11, 296592, Note_off_c, 10, 65, 64
11, 296640, Note_on_c, 10, 67, 127
11, 296640, Note_on_c, 10, 62, 72
11, 296736, Note_off_c, 10, 62, 64
11, 296736, Note_off_c, 10, 67, 64
11, 296760, Note_on_c, 10, 67, 72
11, 296760, Note_on_c, 10, 62, 72
11, 296856, Note_off_c, 10, 62, 64
11, 296856, Note_off_c, 10, 67, 64
11, 296880, Note_on_c, 10, 62, 72
11, 296880, Note_on_c, 10, 67, 72
11, 296976, Note_off_c, 10, 67, 64
11, 296976, Note_off_c, 10, 62, 64
11, 297000, Note_on_c, 10, 62, 72
11, 297000, Note_on_c, 10, 67, 72
11, 297096, Note_off_c, 10, 67, 64
11, 297096, Note_off_c, 10, 62, 64
11, 297120, Note_on_c, 10, 67, 127
11, 297120, Note_on_c, 10, 60, 127
11, 297216, Note_off_c, 10, 60, 64
11, 297216, Note_off_c, 10, 67, 64
11, 297240, Note_on_c, 10, 67, 72
11, 297240, Note_on_c, 10, 60, 72
11, 297336, Note_off_c, 10, 60, 64
11, 297336, Note_off_c, 10, 67, 64
11, 297360, Note_on_c, 10, 67, 72
11, 297360, Note_on_c, 10, 62, 72
11, 297456, Note_off_c, 10, 62, 64
11, 297456, Note_off_c, 10, 67, 64
11, 297480, Note_on_c, 10, 62, 72
11, 297480, Note_on_c, 10, 67, 72
11, 297576, Note_off_c, 10, 67, 64
11, 297576, Note_off_c, 10, 62, 64
11, 297600, Note_on_c, 10, 64, 72
11, 297600, Note_on_c, 10, 67, 72
11, 297696, Note_off_c, 10, 67, 64
11, 297696, Note_off_c, 10, 64, 64
11, 297720, Note_on_c, 10, 64, 72
11, 297720, Note_on_c, 10, 67, 72
11, 297816, Note_off_c, 10, 67, 64
11, 297816, Note_off_c, 10, 64, 64
11, 297840, Note_on_c, 10, 67, 72
11, 297840, Note_on_c, 10, 64, 72
11, 297936, Note_off_c, 10, 64, 64
11, 297936, Note_off_c, 10, 67, 64
11, 297960, Note_on_c, 10, 67, 72
11, 297960, Note_on_c, 10, 64, 72
11, 298056, Note_off_c, 10, 64, 64
11, 298056, Note_off_c, 10, 67, 64
11, 298080, Note_on_c, 10, 67, 127
11, 298080, Note_on_c, 10, 62, 127
11, 298176, Note_off_c, 10, 62, 64
11, 298176, Note_off_c, 10, 67, 64
11, 298200, Note_on_c, 10, 67, 72
11, 298200, Note_on_c, 10, 62, 72
11, 298296, Note_off_c, 10, 62, 64
11, 298296, Note_off_c, 10, 67, 64
11, 298320, Note_on_c, 10, 67, 72
11, 298320, Note_on_c, 10, 64, 72
11, 298416, Note_off_c, 10, 64, 64
11, 298416, Note_off_c, 10, 67, 64
11, 298440, Note_on_c, 10, 67, 72
11, 298440, Note_on_c, 10, 64, 72
11, 298536, Note_off_c, 10, 64, 64
11, 298536, Note_off_c, 10, 67, 64
11, 298560, Note_on_c, 10, 62, 72
11, 298560, Note_on_c, 10, 67, 72
11, 298656, Note_off_c, 10, 67, 64
11, 298656, Note_off_c, 10, 62, 64
11, 298680, Note_on_c, 10, 62, 72
11, 298680, Note_on_c, 10, 67, 72
11, 298776, Note_off_c, 10, 67, 64
11, 298776, Note_off_c, 10, 62, 64
11, 298800, Note_on_c, 10, 67, 72
11, 298800, Note_on_c, 10, 62, 72
11, 298896, Note_off_c, 10, 62, 64
11, 298896, Note_off_c, 10, 67, 64
11, 298920, Note_on_c, 10, 62, 72
11, 298920, Note_on_c, 10, 67, 72
11, 299016, Note_off_c, 10, 67, 64
11, 299016, Note_off_c, 10, 62, 64
11, 299040, Note_on_c, 10, 60, 72
11, 299040, Note_on_c, 10, 67, 72
11, 299136, Note_off_c, 10, 67, 64
11, 299136, Note_off_c, 10, 60, 64
11, 299160, Note_on_c, 10, 67, 72
11, 299160, Note_on_c, 10, 60, 72
11, 299256, Note_off_c, 10, 60, 64
11, 299256, Note_off_c, 10, 67, 64
11, 299280, Note_on_c, 10, 67, 72
11, 299280, Note_on_c, 10, 62, 72
11, 299376, Note_off_c, 10, 62, 64
11, 299376, Note_off_c, 10, 67, 64
11, 299400, Note_on_c, 10, 62, 72
11, 299400, Note_on_c, 10, 67, 72
11, 299496, Note_off_c, 10, 67, 64
11, 299496, Note_off_c, 10, 62, 64
11, 299520, Note_on_c, 10, 64, 72
11, 299616, Note_off_c, 10, 64, 64
11, 299640, Note_on_c, 10, 64, 72
11, 299736, Note_off_c, 10, 64, 64
11, 299760, Note_on_c, 10, 65, 72
11, 299856, Note_off_c, 10, 65, 64
11, 299880, Note_on_c, 10, 67, 72
11, 299976, Note_off_c, 10, 67, 64
11, 300000, Note_on_c, 10, 69, 127
11, 300096, Note_off_c, 10, 69, 64
11, 300120, Note_on_c, 10, 67, 72
11, 300216, Note_off_c, 10, 67, 64
11, 300240, Note_on_c, 10, 65, 72
11, 300336, Note_off_c, 10, 65, 64
11, 300360, Note_on_c, 10, 64, 72
11, 300456, Note_off_c, 10, 64, 64
11, 300480, Note_on_c, 10, 67, 72
11, 300480, Note_on_c, 10, 62, 72
11, 300576, Note_off_c, 10, 62, 64
11, 300576, Note_off_c, 10, 67, 64
11, 300600, Note_on_c, 10, 62, 72
11, 300600, Note_on_c, 10, 67, 72
11, 300696, Note_off_c, 10, 67, 64
11, 300696, Note_off_c, 10, 62, 64
11, 300720, Note_on_c, 10, 62, 72
11, 300720, Note_on_c, 10, 67, 72
11, 300816, Note_off_c, 10, 67, 64
11, 300816, Note_off_c, 10, 62, 64
11, 300840, Note_on_c, 10, 62, 72
11, 300840, Note_on_c, 10, 67, 72
11, 300936, Note_off_c, 10, 67, 64
11, 300936, Note_off_c, 10, 62, 64
11, 300960, Note_on_c, 10, 60, 127
11, 300960, Note_on_c, 10, 67, 127
11, 301056, Note_off_c, 10, 67, 64
11, 301056, Note_off_c, 10, 60, 64
11, 301080, Note_on_c, 10, 67, 72
11, 301080, Note_on_c, 10, 60, 72
11, 301176, Note_off_c, 10, 60, 64
11, 301176, Note_off_c, 10, 67, 64
11, 301200, Note_on_c, 10, 62, 72
11, 301200, Note_on_c, 10, 67, 72
11, 301296, Note_off_c, 10, 67, 64
11, 301296, Note_off_c, 10, 62, 64
11, 301320, Note_on_c, 10, 62, 72
11, 301320, Note_on_c, 10, 67, 72
11, 301416, Note_off_c, 10, 67, 64
11, 301416, Note_off_c, 10, 62, 64
11, 301440, Note_on_c, 10, 67, 72
11, 301440, Note_on_c, 10, 64, 72
11, 301536, Note_off_c, 10, 64, 64
11, 301536, Note_off_c, 10, 67, 64
11, 301560, Note_on_c, 10, 64, 72
11, 301560, Note_on_c, 10, 67, 72
11, 301656, Note_off_c, 10, 67, 64
11, 301656, Note_off_c, 10, 64, 64
11, 301680, Note_on_c, 10, 64, 72
11, 301680, Note_on_c, 10, 67, 72
11, 301776, Note_off_c, 10, 67, 64
11, 301776, Note_off_c, 10, 64, 64
11, 301800, Note_on_c, 10, 67, 72
11, 301800, Note_on_c, 10, 64, 72
11, 301896, Note_off_c, 10, 64, 64
11, 301896, Note_off_c, 10, 67, 64
11, 301920, Note_on_c, 10, 62, 127
11, 301920, Note_on_c, 10, 67, 127
11, 302016, Note_off_c, 10, 67, 64
11, 302016, Note_off_c, 10, 62, 64
11, 302040, Note_on_c, 10, 67, 72
11, 302040, Note_on_c, 10, 62, 72
11, 302136, Note_off_c, 10, 62, 64
11, 302136, Note_off_c, 10, 67, 64
11, 302160, Note_on_c, 10, 67, 72
11, 302160, Note_on_c, 10, 64, 72
11, 302256, Note_off_c, 10, 64, 64
11, 302256, Note_off_c, 10, 67, 64
11, 302280, Note_on_c, 10, 67, 72
11, 302280, Note_on_c, 10, 64, 72
11, 302376, Note_off_c, 10, 64, 64
11, 302376, Note_off_c, 10, 67, 64
11, 302400, Note_on_c, 10, 62, 72
11, 302400, Note_on_c, 10, 67, 72
11, 302496, Note_off_c, 10, 67, 64
11, 302496, Note_off_c, 10, 62, 64
11, 302520, Note_on_c, 10, 62, 72
11, 302520, Note_on_c, 10, 67, 72
11, 302616, Note_off_c, 10, 67, 64
11, 302616, Note_off_c, 10, 62, 64
11, 302640, Note_on_c, 10, 62, 72
11, 302640, Note_on_c, 10, 67, 72
11, 302736, Note_off_c, 10, 67, 64
11, 302736, Note_off_c, 10, 62, 64
11, 302760, Note_on_c, 10, 62, 72
11, 302760, Note_on_c, 10, 67, 72
11, 302856, Note_off_c, 10, 67, 64
11, 302856, Note_off_c, 10, 62, 64
11, 302880, Note_on_c, 10, 60, 72
11, 302880, Note_on_c, 10, 67, 72
11, 302976, Note_off_c, 10, 67, 64
11, 302976, Note_off_c, 10, 60, 64
11, 303000, Note_on_c, 10, 67, 72
11, 303000, Note_on_c, 10, 60, 72
11, 303096, Note_off_c, 10, 60, 64
11, 303096, Note_off_c, 10, 67, 64
11, 303120, Note_on_c, 10, 62, 72
11, 303120, Note_on_c, 10, 67, 72
11, 303216, Note_off_c, 10, 67, 64
11, 303216, Note_off_c, 10, 62, 64
11, 303240, Note_on_c, 10, 67, 72
11, 303240, Note_on_c, 10, 62, 72
11, 303336, Note_off_c, 10, 62, 64
11, 303336, Note_off_c, 10, 67, 64
11, 303360, Note_on_c, 10, 64, 72
11, 303456, Note_off_c, 10, 64, 64
11, 303480, Note_on_c, 10, 65, 72
11, 303576, Note_off_c, 10, 65, 64
11, 303600, Note_on_c, 10, 67, 72
11, 303696, Note_off_c, 10, 67, 64
11, 303720, Note_on_c, 10, 69, 72
11, 303816, Note_off_c, 10, 69, 64
11, 303840, Note_on_c, 10, 71, 72
11, 303936, Note_off_c, 10, 71, 64
11, 303960, Note_on_c, 10, 72, 72
11, 304056, Note_off_c, 10, 72, 64
11, 304080, Note_on_c, 10, 74, 72
11, 304176, Note_off_c, 10, 74, 64
11, 304200, Note_on_c, 10, 76, 72
11, 304296, Note_off_c, 10, 76, 64
11, 304320, Note_on_c, 10, 67, 72
11, 304320, Note_on_c, 10, 62, 72
11, 304416, Note_off_c, 10, 62, 64
11, 304416, Note_off_c, 10, 67, 64
11, 304440, Note_on_c, 10, 67, 72
11, 304440, Note_on_c, 10, 62, 72
11, 304536, Note_off_c, 10, 62, 64
11, 304536, Note_off_c, 10, 67, 64
11, 304560, Note_on_c, 10, 67, 72
11, 304560, Note_on_c, 10, 62, 72
11, 304656, Note_off_c, 10, 62, 64
11, 304656, Note_off_c, 10, 67, 64
11, 304680, Note_on_c, 10, 62, 72
11, 304680, Note_on_c, 10, 67, 72
11, 304776, Note_off_c, 10, 67, 64
11, 304776, Note_off_c, 10, 62, 64
11, 304800, Note_on_c, 10, 60, 72
11, 304800, Note_on_c, 10, 67, 72
11, 304896, Note_off_c, 10, 67, 64
11, 304896, Note_off_c, 10, 60, 64
11, 304920, Note_on_c, 10, 60, 72
11, 304920, Note_on_c, 10, 67, 72
11, 305016, Note_off_c, 10, 67, 64
11, 305016, Note_off_c, 10, 60, 64
11, 305040, Note_on_c, 10, 67, 72
11, 305040, Note_on_c, 10, 62, 72
11, 305136, Note_off_c, 10, 62, 64
11, 305136, Note_off_c, 10, 67, 64
11, 305160, Note_on_c, 10, 67, 72
11, 305160, Note_on_c, 10, 62, 72
11, 305256, Note_off_c, 10, 62, 64
11, 305256, Note_off_c, 10, 67, 64
11, 305280, Note_on_c, 10, 64, 72
11, 305280, Note_on_c, 10, 67, 72
11, 305376, Note_off_c, 10, 67, 64
11, 305376, Note_off_c, 10, 64, 64
11, 305400, Note_on_c, 10, 64, 72
11, 305400, Note_on_c, 10, 67, 72
11, 305496, Note_off_c, 10, 67, 64
11, 305496, Note_off_c, 10, 64, 64
11, 305520, Note_on_c, 10, 67, 72
11, 305520, Note_on_c, 10, 64, 72
11, 305616, Note_off_c, 10, 64, 64
11, 305616, Note_off_c, 10, 67, 64
11, 305640, Note_on_c, 10, 67, 72
11, 305640, Note_on_c, 10, 64, 72
11, 305736, Note_off_c, 10, 64, 64
11, 305736, Note_off_c, 10, 67, 64
11, 305760, Note_on_c, 10, 67, 127
11, 305760, Note_on_c, 10, 62, 127
11, 305856, Note_off_c, 10, 62, 64
11, 305856, Note_off_c, 10, 67, 64
11, 305880, Note_on_c, 10, 67, 72
11, 305880, Note_on_c, 10, 62, 72
11, 305976, Note_off_c, 10, 62, 64
11, 305976, Note_off_c, 10, 67, 64
11, 306000, Note_on_c, 10, 67, 72
11, 306000, Note_on_c, 10, 64, 72
11, 306096, Note_off_c, 10, 64, 64
11, 306096, Note_off_c, 10, 67, 64
11, 306120, Note_on_c, 10, 67, 72
11, 306120, Note_on_c, 10, 64, 72
11, 306216, Note_off_c, 10, 64, 64
11, 306216, Note_off_c, 10, 67, 64
11, 306240, Note_on_c, 10, 62, 72
11, 306240, Note_on_c, 10, 67, 72
11, 306336, Note_off_c, 10, 67, 64
11, 306336, Note_off_c, 10, 62, 64
11, 306360, Note_on_c, 10, 62, 72
11, 306360, Note_on_c, 10, 67, 72
11, 306456, Note_off_c, 10, 67, 64
11, 306456, Note_off_c, 10, 62, 64
11, 306480, Note_on_c, 10, 67, 72
11, 306480, Note_on_c, 10, 62, 72
11, 306576, Note_off_c, 10, 62, 64
11, 306576, Note_off_c, 10, 67, 64
11, 306600, Note_on_c, 10, 62, 72
11, 306600, Note_on_c, 10, 67, 72
11, 306696, Note_off_c, 10, 67, 64
11, 306696, Note_off_c, 10, 62, 64
11, 306720, Note_on_c, 10, 60, 72
11, 306720, Note_on_c, 10, 67, 72
11, 306816, Note_off_c, 10, 67, 64
11, 306816, Note_off_c, 10, 60, 64
11, 306840, Note_on_c, 10, 67, 72
11, 306840, Note_on_c, 10, 60, 72
11, 306936, Note_off_c, 10, 60, 64
11, 306936, Note_off_c, 10, 67, 64
11, 306960, Note_on_c, 10, 67, 72
11, 306960, Note_on_c, 10, 62, 72
11, 307056, Note_off_c, 10, 62, 64
11, 307056, Note_off_c, 10, 67, 64
11, 307080, Note_on_c, 10, 62, 72
11, 307080, Note_on_c, 10, 67, 72
11, 307176, Note_off_c, 10, 67, 64
11, 307176, Note_off_c, 10, 62, 64
11, 307200, Note_on_c, 10, 64, 72
11, 307296, Note_off_c, 10, 64, 64
11, 307320, Note_on_c, 10, 64, 72
11, 307416, Note_off_c, 10, 64, 64
11, 307440, Note_on_c, 10, 65, 72
11, 307536, Note_off_c, 10, 65, 64
11, 307560, Note_on_c, 10, 67, 72
11, 307656, Note_off_c, 10, 67, 64
11, 307680, Note_on_c, 10, 69, 127
11, 307776, Note_off_c, 10, 69, 64
11, 307800, Note_on_c, 10, 67, 72
11, 307896, Note_off_c, 10, 67, 64
11, 307920, Note_on_c, 10, 65, 72
11, 308016, Note_off_c, 10, 65, 64
11, 308040, Note_on_c, 10, 64, 72
11, 308136, Note_off_c, 10, 64, 64
11, 308160, Note_on_c, 10, 67, 72
11, 308160, Note_on_c, 10, 62, 72
11, 308256, Note_off_c, 10, 62, 64
11, 308256, Note_off_c, 10, 67, 64
11, 308280, Note_on_c, 10, 62, 72
11, 308280, Note_on_c, 10, 67, 72
11, 308376, Note_off_c, 10, 67, 64
11, 308376, Note_off_c, 10, 62, 64
11, 308400, Note_on_c, 10, 62, 72
11, 308400, Note_on_c, 10, 67, 72
11, 308496, Note_off_c, 10, 67, 64
11, 308496, Note_off_c, 10, 62, 64
11, 308520, Note_on_c, 10, 62, 72
11, 308520, Note_on_c, 10, 67, 72
11, 308616, Note_off_c, 10, 67, 64
11, 308616, Note_off_c, 10, 62, 64
11, 308640, Note_on_c, 10, 60, 127
11, 308640, Note_on_c, 10, 67, 127
11, 308736, Note_off_c, 10, 67, 64
11, 308736, Note_off_c, 10, 60, 64
11, 308760, Note_on_c, 10, 67, 72
11, 308760, Note_on_c, 10, 60, 72
11, 308856, Note_off_c, 10, 60, 64
11, 308856, Note_off_c, 10, 67, 64
11, 308880, Note_on_c, 10, 62, 72
11, 308880, Note_on_c, 10, 67, 72
11, 308976, Note_off_c, 10, 67, 64
11, 308976, Note_off_c, 10, 62, 64
11, 309000, Note_on_c, 10, 62, 72
11, 309000, Note_on_c, 10, 67, 72
11, 309096, Note_off_c, 10, 67, 64
11, 309096, Note_off_c, 10, 62, 64
11, 309120, Note_on_c, 10, 67, 72
11, 309120, Note_on_c, 10, 64, 72
11, 309216, Note_off_c, 10, 64, 64
11, 309216, Note_off_c, 10, 67, 64
11, 309240, Note_on_c, 10, 64, 72
11, 309240, Note_on_c, 10, 67, 72
11, 309336, Note_off_c, 10, 67, 64
11, 309336, Note_off_c, 10, 64, 64
11, 309360, Note_on_c, 10, 64, 72
11, 309360, Note_on_c, 10, 67, 72
11, 309456, Note_off_c, 10, 67, 64
11, 309456, Note_off_c, 10, 64, 64
11, 309480, Note_on_c, 10, 67, 72
11, 309480, Note_on_c, 10, 64, 72
11, 309576, Note_off_c, 10, 64, 64
11, 309576, Note_off_c, 10, 67, 64
11, 309600, Note_on_c, 10, 62, 127
11, 309600, Note_on_c, 10, 67, 127
11, 309696, Note_off_c, 10, 67, 64
11, 309696, Note_off_c, 10, 62, 64
11, 309720, Note_on_c, 10, 67, 72
11, 309720, Note_on_c, 10, 62, 72
11, 309816, Note_off_c, 10, 62, 64
11, 309816, Note_off_c, 10, 67, 64
11, 309840, Note_on_c, 10, 67, 72
11, 309840, Note_on_c, 10, 64, 72
11, 309936, Note_off_c, 10, 64, 64
11, 309936, Note_off_c, 10, 67, 64
11, 309960, Note_on_c, 10, 67, 72
11, 309960, Note_on_c, 10, 64, 72
11, 310056, Note_off_c, 10, 64, 64
11, 310056, Note_off_c, 10, 67, 64
11, 310080, Note_on_c, 10, 62, 72
11, 310080, Note_on_c, 10, 67, 72
11, 310176, Note_off_c, 10, 67, 64
11, 310176, Note_off_c, 10, 62, 64
11, 310200, Note_on_c, 10, 62, 72
11, 310200, Note_on_c, 10, 67, 72
11, 310296, Note_off_c, 10, 67, 64
11, 310296, Note_off_c, 10, 62, 64
11, 310320, Note_on_c, 10, 62, 72
11, 310320, Note_on_c, 10, 67, 72
11, 310416, Note_off_c, 10, 67, 64
11, 310416, Note_off_c, 10, 62, 64
11, 310440, Note_on_c, 10, 62, 72
11, 310440, Note_on_c, 10, 67, 72
11, 310536, Note_off_c, 10, 67, 64
11, 310536, Note_off_c, 10, 62, 64
11, 310560, Note_on_c, 10, 60, 72
11, 310560, Note_on_c, 10, 67, 72
11, 310656, Note_off_c, 10, 67, 64
11, 310656, Note_off_c, 10, 60, 64
11, 310680, Note_on_c, 10, 67, 72
11, 310680, Note_on_c, 10, 60, 72
11, 310776, Note_off_c, 10, 60, 64
11, 310776, Note_off_c, 10, 67, 64
11, 310800, Note_on_c, 10, 62, 72
11, 310800, Note_on_c, 10, 67, 72
11, 310896, Note_off_c, 10, 67, 64
11, 310896, Note_off_c, 10, 62, 64
11, 310920, Note_on_c, 10, 67, 72
11, 310920, Note_on_c, 10, 62, 72
11, 311016, Note_off_c, 10, 62, 64
11, 311016, Note_off_c, 10, 67, 64
11, 311040, Note_on_c, 10, 64, 72
11, 311136, Note_off_c, 10, 64, 64
11, 311160, Note_on_c, 10, 65, 72
11, 311256, Note_off_c, 10, 65, 64
11, 311280, Note_on_c, 10, 67, 72
11, 311376, Note_off_c, 10, 67, 64
11, 311400, Note_on_c, 10, 69, 72
11, 311496, Note_off_c, 10, 69, 64
11, 311520, Note_on_c, 10, 70, 72
11, 311616, Note_off_c, 10, 70, 64
11, 311640, Note_on_c, 10, 69, 72
11, 311736, Note_off_c, 10, 69, 64
11, 311760, Note_on_c, 10, 70, 72
11, 311856, Note_off_c, 10, 70, 64
11, 311880, Note_on_c, 10, 67, 72
11, 311976, Note_off_c, 10, 67, 64
11, 312000, Note_on_c, 10, 69, 72
11, 312096, Note_off_c, 10, 69, 64
11, 312120, Note_on_c, 10, 60, 72
11, 312216, Note_off_c, 10, 60, 64
11, 312240, Note_on_c, 10, 60, 72
11, 312336, Note_off_c, 10, 60, 64
11, 312360, Note_on_c, 10, 60, 72
11, 312456, Note_off_c, 10, 60, 64
11, 312480, Note_on_c, 10, 60, 127
11, 312576, Note_off_c, 10, 60, 64
11, 312600, Note_on_c, 10, 60, 72
11, 312696, Note_off_c, 10, 60, 64
11, 312720, Note_on_c, 10, 60, 72
11, 312816, Note_off_c, 10, 60, 64
11, 312840, Note_on_c, 10, 60, 72
11, 312936, Note_off_c, 10, 60, 64
11, 312960, Note_on_c, 10, 60, 72
11, 313056, Note_off_c, 10, 60, 64
11, 313080, Note_on_c, 10, 67, 72
11, 313176, Note_off_c, 10, 67, 64
11, 313200, Note_on_c, 10, 67, 72
11, 313296, Note_off_c, 10, 67, 64
11, 313320, Note_on_c, 10, 67, 72
11, 313416, Note_off_c, 10, 67, 64
11, 313440, Note_on_c, 10, 66, 127
11, 313536, Note_off_c, 10, 66, 64
11, 313560, Note_on_c, 10, 66, 72
11, 313656, Note_off_c, 10, 66, 64
11, 313680, Note_on_c, 10, 67, 72
11, 313776, Note_off_c, 10, 67, 64
11, 313800, Note_on_c, 10, 67, 72
11, 313896, Note_off_c, 10, 67, 64
11, 313920, Note_on_c, 10, 69, 72
11, 314016, Note_off_c, 10, 69, 64
11, 314040, Note_on_c, 10, 60, 72
11, 314136, Note_off_c, 10, 60, 64
11, 314160, Note_on_c, 10, 60, 72
11, 314256, Note_off_c, 10, 60, 64
11, 314280, Note_on_c, 10, 60, 72
11, 314376, Note_off_c, 10, 60, 64
11, 314400, Note_on_c, 10, 60, 127
11, 314496, Note_off_c, 10, 60, 64
11, 314520, Note_on_c, 10, 60, 72
11, 314616, Note_off_c, 10, 60, 64
11, 314640, Note_on_c, 10, 60, 72
11, 314736, Note_off_c, 10, 60, 64
11, 314760, Note_on_c, 10, 60, 72
11, 314856, Note_off_c, 10, 60, 64
11, 314880, Note_on_c, 10, 62, 72
11, 314976, Note_off_c, 10, 62, 64
11, 315000, Note_on_c, 10, 62, 72
11, 315096, Note_off_c, 10, 62, 64
11, 315120, Note_on_c, 10, 64, 72
11, 315216, Note_off_c, 10, 64, 64
11, 315240, Note_on_c, 10, 64, 72
11, 315336, Note_off_c, 10, 64, 64
11, 315360, Note_on_c, 10, 61, 127
11, 315456, Note_off_c, 10, 61, 64
11, 315480, Note_on_c, 10, 61, 72
11, 315576, Note_off_c, 10, 61, 64
11, 315600, Note_on_c, 10, 64, 72
11, 315696, Note_off_c, 10, 64, 64
11, 315720, Note_on_c, 10, 64, 72
11, 315816, Note_off_c, 10, 64, 64
11, 315840, Note_on_c, 10, 60, 72
11, 315936, Note_off_c, 10, 60, 64
11, 315960, Note_on_c, 10, 60, 72
11, 316056, Note_off_c, 10, 60, 64
11, 316080, Note_on_c, 10, 62, 72
11, 316080, Note_on_c, 10, 60, 72
11, 316176, Note_off_c, 10, 60, 64
11, 316176, Note_off_c, 10, 62, 64
11, 316200, Note_on_c, 10, 60, 72
11, 316200, Note_on_c, 10, 62, 72
11, 316296, Note_off_c, 10, 62, 64
11, 316296, Note_off_c, 10, 60, 64
11, 316320, Note_on_c, 10, 59, 127
11, 316416, Note_off_c, 10, 59, 64
11, 316440, Note_on_c, 10, 59, 72
11, 316536, Note_off_c, 10, 59, 64
11, 316560, Note_on_c, 10, 62, 72
11, 316656, Note_off_c, 10, 62, 64
11, 316680, Note_on_c, 10, 62, 72
11, 316776, Note_off_c, 10, 62, 64
11, 316800, Note_on_c, 10, 60, 72
11, 316896, Note_off_c, 10, 60, 64
11, 316920, Note_on_c, 10, 64, 72
11, 317016, Note_off_c, 10, 64, 64
11, 317040, Note_on_c, 10, 64, 72
11, 317136, Note_off_c, 10, 64, 64
11, 317160, Note_on_c, 10, 64, 72
11, 317256, Note_off_c, 10, 64, 64
11, 317280, Note_on_c, 10, 60, 127
11, 317376, Note_off_c, 10, 60, 64
11, 317400, Note_on_c, 10, 64, 72
11, 317496, Note_off_c, 10, 64, 64
11, 317520, Note_on_c, 10, 64, 72
11, 317616, Note_off_c, 10, 64, 64
11, 317640, Note_on_c, 10, 64, 72
11, 317736, Note_off_c, 10, 64, 64
11, 317760, Note_on_c, 10, 59, 72
11, 317856, Note_off_c, 10, 59, 64
11, 317880, Note_on_c, 10, 62, 72
11, 317976, Note_off_c, 10, 62, 64
11, 318000, Note_on_c, 10, 62, 72
11, 318096, Note_off_c, 10, 62, 64
11, 318120, Note_on_c, 10, 62, 72
11, 318216, Note_off_c, 10, 62, 64
11, 318240, Note_on_c, 10, 62, 127
11, 318336, Note_off_c, 10, 62, 64
11, 318360, Note_on_c, 10, 71, 72
11, 318456, Note_off_c, 10, 71, 64
11, 318480, Note_on_c, 10, 71, 72
11, 318576, Note_off_c, 10, 71, 64
11, 318600, Note_on_c, 10, 71, 72
11, 318696, Note_off_c, 10, 71, 64
11, 318720, Note_on_c, 10, 72, 72
11, 318816, Note_off_c, 10, 72, 64
11, 318840, Note_on_c, 10, 64, 72
11, 318936, Note_off_c, 10, 64, 64
11, 318960, Note_on_c, 10, 65, 72
11, 319056, Note_off_c, 10, 65, 64
11, 319080, Note_on_c, 10, 67, 72
11, 319176, Note_off_c, 10, 67, 64
11, 319200, Note_on_c, 10, 69, 72
11, 319296, Note_off_c, 10, 69, 64
11, 319320, Note_on_c, 10, 70, 72
11, 319416, Note_off_c, 10, 70, 64
11, 319440, Note_on_c, 10, 72, 72
11, 319536, Note_off_c, 10, 72, 64
11, 319560, Note_on_c, 10, 70, 72
11, 319656, Note_off_c, 10, 70, 64
11, 319680, Note_on_c, 10, 69, 72
11, 319776, Note_off_c, 10, 69, 64
11, 319800, Note_on_c, 10, 60, 72
11, 319896, Note_off_c, 10, 60, 64
11, 319920, Note_on_c, 10, 60, 72
11, 320016, Note_off_c, 10, 60, 64
11, 320040, Note_on_c, 10, 60, 72
11, 320136, Note_off_c, 10, 60, 64
11, 320160, Note_on_c, 10, 60, 127
11, 320256, Note_off_c, 10, 60, 64
11, 320280, Note_on_c, 10, 60, 72
11, 320376, Note_off_c, 10, 60, 64
11, 320400, Note_on_c, 10, 60, 72
11, 320496, Note_off_c, 10, 60, 64
11, 320520, Note_on_c, 10, 60, 72
11, 320616, Note_off_c, 10, 60, 64
11, 320640, Note_on_c, 10, 60, 72
11, 320736, Note_off_c, 10, 60, 64
11, 320760, Note_on_c, 10, 67, 72
11, 320856, Note_off_c, 10, 67, 64
11, 320880, Note_on_c, 10, 67, 72
11, 320976, Note_off_c, 10, 67, 64
11, 321000, Note_on_c, 10, 67, 72
11, 321096, Note_off_c, 10, 67, 64
11, 321120, Note_on_c, 10, 66, 127
11, 321216, Note_off_c, 10, 66, 64
11, 321240, Note_on_c, 10, 66, 72
11, 321336, Note_off_c, 10, 66, 64
11, 321360, Note_on_c, 10, 67, 72
11, 321456, Note_off_c, 10, 67, 64
11, 321480, Note_on_c, 10, 67, 72
11, 321576, Note_off_c, 10, 67, 64
11, 321600, Note_on_c, 10, 69, 72
11, 321696, Note_off_c, 10, 69, 64
11, 321720, Note_on_c, 10, 60, 72
11, 321816, Note_off_c, 10, 60, 64
11, 321840, Note_on_c, 10, 60, 72
11, 321936, Note_off_c, 10, 60, 64
11, 321960, Note_on_c, 10, 60, 72
11, 322056, Note_off_c, 10, 60, 64
11, 322080, Note_on_c, 10, 60, 127
11, 322176, Note_off_c, 10, 60, 64
11, 322200, Note_on_c, 10, 60, 72
11, 322296, Note_off_c, 10, 60, 64
11, 322320, Note_on_c, 10, 60, 72
11, 322416, Note_off_c, 10, 60, 64
11, 322440, Note_on_c, 10, 60, 72
11, 322536, Note_off_c, 10, 60, 64
11, 322560, Note_on_c, 10, 62, 72
11, 322656, Note_off_c, 10, 62, 64
11, 322680, Note_on_c, 10, 62, 72
11, 322776, Note_off_c, 10, 62, 64
11, 322800, Note_on_c, 10, 64, 72
11, 322896, Note_off_c, 10, 64, 64
11, 322920, Note_on_c, 10, 64, 72
11, 323016, Note_off_c, 10, 64, 64
11, 323040, Note_on_c, 10, 61, 127
11, 323136, Note_off_c, 10, 61, 64
11, 323160, Note_on_c, 10, 61, 72
11, 323256, Note_off_c, 10, 61, 64
11, 323280, Note_on_c, 10, 64, 72
11, 323376, Note_off_c, 10, 64, 64
11, 323400, Note_on_c, 10, 64, 72
11, 323496, Note_off_c, 10, 64, 64
11, 323520, Note_on_c, 10, 60, 72
11, 323616, Note_off_c, 10, 60, 64
11, 323640, Note_on_c, 10, 60, 72
11, 323736, Note_off_c, 10, 60, 64
11, 323760, Note_on_c, 10, 62, 72
11, 323760, Note_on_c, 10, 60, 72
11, 323856, Note_off_c, 10, 60, 64
11, 323856, Note_off_c, 10, 62, 64
11, 323880, Note_on_c, 10, 60, 72
11, 323880, Note_on_c, 10, 62, 72
11, 323976, Note_off_c, 10, 62, 64
11, 323976, Note_off_c, 10, 60, 64
11, 324000, Note_on_c, 10, 59, 127
11, 324096, Note_off_c, 10, 59, 64
11, 324120, Note_on_c, 10, 59, 72
11, 324216, Note_off_c, 10, 59, 64
11, 324240, Note_on_c, 10, 62, 72
11, 324336, Note_off_c, 10, 62, 64
11, 324360, Note_on_c, 10, 62, 72
11, 324456, Note_off_c, 10, 62, 64
11, 324480, Note_on_c, 10, 60, 72
11, 324576, Note_off_c, 10, 60, 64
11, 324600, Note_on_c, 10, 64, 72
11, 324696, Note_off_c, 10, 64, 64
11, 324720, Note_on_c, 10, 64, 72
11, 324816, Note_off_c, 10, 64, 64
11, 324840, Note_on_c, 10, 64, 72
11, 324936, Note_off_c, 10, 64, 64
11, 324960, Note_on_c, 10, 60, 127
11, 325056, Note_off_c, 10, 60, 64
11, 325080, Note_on_c, 10, 64, 72
11, 325176, Note_off_c, 10, 64, 64
11, 325200, Note_on_c, 10, 64, 72
11, 325296, Note_off_c, 10, 64, 64
11, 325320, Note_on_c, 10, 64, 72
11, 325416, Note_off_c, 10, 64, 64
11, 325440, Note_on_c, 10, 59, 72
11, 325536, Note_off_c, 10, 59, 64
11, 325560, Note_on_c, 10, 62, 72
11, 325656, Note_off_c, 10, 62, 64
11, 325680, Note_on_c, 10, 62, 72
11, 325776, Note_off_c, 10, 62, 64
11, 325800, Note_on_c, 10, 62, 72
11, 325896, Note_off_c, 10, 62, 64
11, 325920, Note_on_c, 10, 62, 127
11, 326016, Note_off_c, 10, 62, 64
11, 326040, Note_on_c, 10, 71, 72
11, 326136, Note_off_c, 10, 71, 64
11, 326160, Note_on_c, 10, 71, 72
11, 326256, Note_off_c, 10, 71, 64
11, 326280, Note_on_c, 10, 71, 72
11, 326376, Note_off_c, 10, 71, 64
11, 326400, Note_on_c, 10, 72, 108
11, 326400, Note_on_c, 10, 60, 127
11, 326400, Note_on_c, 10, 64, 108
11, 326514, Note_off_c, 10, 64, 64
11, 326514, Note_off_c, 10, 60, 64
11, 326514, Note_off_c, 10, 72, 64
11, 326520, Note_on_c, 10, 64, 80
11, 326616, Note_off_c, 10, 64, 64
11, 326640, Note_on_c, 10, 67, 80
11, 326736, Note_off_c, 10, 67, 64
11, 326760, Note_on_c, 10, 67, 80
11, 326856, Note_off_c, 10, 67, 64
11, 326880, Note_on_c, 10, 64, 80
11, 326976, Note_off_c, 10, 64, 64
11, 327000, Note_on_c, 10, 64, 80
11, 327096, Note_off_c, 10, 64, 64
11, 327120, Note_on_c, 10, 69, 80
11, 327216, Note_off_c, 10, 69, 64
11, 327240, Note_on_c, 10, 69, 80
11, 327336, Note_off_c, 10, 69, 64
11, 327360, Note_on_c, 10, 65, 80
11, 327456, Note_off_c, 10, 65, 64
11, 327480, Note_on_c, 10, 65, 80
11, 327576, Note_off_c, 10, 65, 64
11, 327600, Note_on_c, 10, 69, 80
11, 327696, Note_off_c, 10, 69, 64
11, 327720, Note_on_c, 10, 69, 80
11, 327816, Note_off_c, 10, 69, 64
11, 327840, Note_on_c, 10, 62, 80
11, 327936, Note_off_c, 10, 62, 64
11, 327960, Note_on_c, 10, 62, 80
11, 328056, Note_off_c, 10, 62, 64
11, 328080, Note_on_c, 10, 67, 80
11, 328176, Note_off_c, 10, 67, 64
11, 328200, Note_on_c, 10, 67, 80
11, 328296, Note_off_c, 10, 67, 64
11, 328320, Note_on_c, 10, 64, 99
11, 328416, Note_off_c, 10, 64, 64
11, 328440, Note_on_c, 10, 64, 99
11, 328536, Note_off_c, 10, 64, 64
11, 328560, Note_on_c, 10, 67, 99
11, 328656, Note_off_c, 10, 67, 64
11, 328680, Note_on_c, 10, 67, 99
11, 328776, Note_off_c, 10, 67, 64
11, 328800, Note_on_c, 10, 64, 99
11, 328896, Note_off_c, 10, 64, 64
11, 328920, Note_on_c, 10, 64, 99
11, 329016, Note_off_c, 10, 64, 64
11, 329040, Note_on_c, 10, 72, 99
11, 329136, Note_off_c, 10, 72, 64
11, 329160, Note_on_c, 10, 72, 99
11, 329256, Note_off_c, 10, 72, 64
11, 329280, Note_on_c, 10, 64, 99
11, 329376, Note_off_c, 10, 64, 64
11, 329400, Note_on_c, 10, 64, 99
11, 329496, Note_off_c, 10, 64, 64
11, 329520, Note_on_c, 10, 67, 99
11, 329616, Note_off_c, 10, 67, 64
11, 329640, Note_on_c, 10, 67, 99
11, 329736, Note_off_c, 10, 67, 64
11, 329760, Note_on_c, 10, 65, 99
11, 329856, Note_off_c, 10, 65, 64
11, 329880, Note_on_c, 10, 65, 99
11, 329976, Note_off_c, 10, 65, 64
11, 330000, Note_on_c, 10, 67, 99
11, 330096, Note_off_c, 10, 67, 64
11, 330120, Note_on_c, 10, 67, 99
11, 330216, Note_off_c, 10, 67, 64
11, 330240, Note_on_c, 10, 64, 99
11, 330336, Note_off_c, 10, 64, 64
11, 330360, Note_on_c, 10, 64, 99
11, 330456, Note_off_c, 10, 64, 64
11, 330480, Note_on_c, 10, 67, 99
11, 330576, Note_off_c, 10, 67, 64
11, 330600, Note_on_c, 10, 67, 99
11, 330696, Note_off_c, 10, 67, 64
11, 330720, Note_on_c, 10, 64, 99
11, 330816, Note_off_c, 10, 64, 64
11, 330840, Note_on_c, 10, 64, 99
11, 330936, Note_off_c, 10, 64, 64
11, 330960, Note_on_c, 10, 67, 99
11, 331056, Note_off_c, 10, 67, 64
11, 331080, Note_on_c, 10, 67, 99
11, 331176, Note_off_c, 10, 67, 64
11, 331200, Note_on_c, 10, 65, 99
11, 331296, Note_off_c, 10, 65, 64
11, 331320, Note_on_c, 10, 65, 99
11, 331416, Note_off_c, 10, 65, 64
11, 331440, Note_on_c, 10, 69, 99
11, 331536, Note_off_c, 10, 69, 64
11, 331560, Note_on_c, 10, 69, 99
11, 331656, Note_off_c, 10, 69, 64
11, 331680, Note_on_c, 10, 65, 99
11, 331776, Note_off_c, 10, 65, 64
11, 331800, Note_on_c, 10, 65, 99
11, 331896, Note_off_c, 10, 65, 64
11, 331920, Note_on_c, 10, 69, 99
11, 332016, Note_off_c, 10, 69, 64
11, 332040, Note_on_c, 10, 69, 99
11, 332136, Note_off_c, 10, 69, 64
11, 332160, Note_on_c, 10, 65, 99
11, 332256, Note_off_c, 10, 65, 64
11, 332280, Note_on_c, 10, 65, 99
11, 332376, Note_off_c, 10, 65, 64
11, 332400, Note_on_c, 10, 67, 99
11, 332496, Note_off_c, 10, 67, 64
11, 332520, Note_on_c, 10, 67, 99
11, 332616, Note_off_c, 10, 67, 64
11, 332640, Note_on_c, 10, 62, 99
11, 332736, Note_off_c, 10, 62, 64
11, 332760, Note_on_c, 10, 62, 99
11, 332856, Note_off_c, 10, 62, 64
11, 332880, Note_on_c, 10, 67, 99
11, 332976, Note_off_c, 10, 67, 64
11, 333000, Note_on_c, 10, 67, 99
11, 333096, Note_off_c, 10, 67, 64
11, 333120, Note_on_c, 10, 64, 99
11, 333216, Note_off_c, 10, 64, 64
11, 333240, Note_on_c, 10, 64, 99
11, 333336, Note_off_c, 10, 64, 64
11, 333360, Note_on_c, 10, 67, 99
11, 333456, Note_off_c, 10, 67, 64
11, 333480, Note_on_c, 10, 67, 99
11, 333576, Note_off_c, 10, 67, 64
11, 333600, Note_on_c, 10, 64, 99
11, 333696, Note_off_c, 10, 64, 64
11, 333720, Note_on_c, 10, 64, 99
11, 333816, Note_off_c, 10, 64, 64
11, 333840, Note_on_c, 10, 67, 99
11, 333936, Note_off_c, 10, 67, 64
11, 333960, Note_on_c, 10, 67, 99
11, 334056, Note_off_c, 10, 67, 64
11, 334080, Note_on_c, 10, 65, 99
11, 334176, Note_off_c, 10, 65, 64
11, 334200, Note_on_c, 10, 65, 99
11, 334296, Note_off_c, 10, 65, 64
11, 334320, Note_on_c, 10, 69, 99
11, 334416, Note_off_c, 10, 69, 64
11, 334440, Note_on_c, 10, 69, 99
11, 334536, Note_off_c, 10, 69, 64
11, 334560, Note_on_c, 10, 65, 99
11, 334656, Note_off_c, 10, 65, 64
11, 334680, Note_on_c, 10, 65, 99
11, 334776, Note_off_c, 10, 65, 64
11, 334800, Note_on_c, 10, 69, 99
11, 334896, Note_off_c, 10, 69, 64
11, 334920, Note_on_c, 10, 69, 99
11, 335016, Note_off_c, 10, 69, 64
11, 335040, Note_on_c, 10, 65, 99
11, 335136, Note_off_c, 10, 65, 64
11, 335160, Note_on_c, 10, 65, 99
11, 335256, Note_off_c, 10, 65, 64
11, 335280, Note_on_c, 10, 69, 99
11, 335376, Note_off_c, 10, 69, 64
11, 335400, Note_on_c, 10, 69, 99
11, 335496, Note_off_c, 10, 69, 64
11, 335520, Note_on_c, 10, 65, 99
11, 335616, Note_off_c, 10, 65, 64
11, 335640, Note_on_c, 10, 65, 99
11, 335736, Note_off_c, 10, 65, 64
11, 335760, Note_on_c, 10, 69, 99
11, 335856, Note_off_c, 10, 69, 64
11, 335880, Note_on_c, 10, 69, 99
11, 335976, Note_off_c, 10, 69, 64
11, 336000, Note_on_c, 10, 64, 99
11, 336096, Note_off_c, 10, 64, 64
11, 336120, Note_on_c, 10, 64, 99
11, 336216, Note_off_c, 10, 64, 64
11, 336240, Note_on_c, 10, 70, 99
11, 336336, Note_off_c, 10, 70, 64
11, 336360, Note_on_c, 10, 70, 99
11, 336456, Note_off_c, 10, 70, 64
11, 336480, Note_on_c, 10, 58, 99
11, 336576, Note_off_c, 10, 58, 64
11, 336600, Note_on_c, 10, 58, 99
11, 336696, Note_off_c, 10, 58, 64
11, 336720, Note_on_c, 10, 64, 99
11, 336816, Note_off_c, 10, 64, 64
11, 336840, Note_on_c, 10, 64, 99
11, 336936, Note_off_c, 10, 64, 64
11, 336960, Note_on_c, 10, 61, 99
11, 337056, Note_off_c, 10, 61, 64
11, 337080, Note_on_c, 10, 61, 99
11, 337176, Note_off_c, 10, 61, 64
11, 337200, Note_on_c, 10, 64, 99
11, 337296, Note_off_c, 10, 64, 64
11, 337320, Note_on_c, 10, 64, 99
11, 337416, Note_off_c, 10, 64, 64
11, 337440, Note_on_c, 10, 64, 99
11, 337536, Note_off_c, 10, 64, 64
11, 337560, Note_on_c, 10, 64, 99
11, 337656, Note_off_c, 10, 64, 64
11, 337680, Note_on_c, 10, 67, 99
11, 337776, Note_off_c, 10, 67, 64
11, 337800, Note_on_c, 10, 67, 99
11, 337896, Note_off_c, 10, 67, 64
11, 337920, Note_on_c, 10, 62, 80
11, 338016, Note_off_c, 10, 62, 64
11, 338040, Note_on_c, 10, 62, 79
11, 338136, Note_off_c, 10, 62, 64
11, 338160, Note_on_c, 10, 65, 79
11, 338256, Note_off_c, 10, 65, 64
11, 338280, Note_on_c, 10, 65, 78
11, 338376, Note_off_c, 10, 65, 64
11, 338400, Note_on_c, 10, 62, 77
11, 338496, Note_off_c, 10, 62, 64
11, 338520, Note_on_c, 10, 62, 76
11, 338616, Note_off_c, 10, 62, 64
11, 338640, Note_on_c, 10, 65, 76
11, 338736, Note_off_c, 10, 65, 64
11, 338760, Note_on_c, 10, 65, 75
11, 338856, Note_off_c, 10, 65, 64
11, 338880, Note_on_c, 10, 62, 74
11, 338976, Note_off_c, 10, 62, 64
11, 339000, Note_on_c, 10, 62, 74
11, 339096, Note_off_c, 10, 62, 64
11, 339120, Note_on_c, 10, 65, 73
11, 339216, Note_off_c, 10, 65, 64
11, 339240, Note_on_c, 10, 65, 72
11, 339336, Note_off_c, 10, 65, 64
11, 339360, Note_on_c, 10, 62, 71
11, 339456, Note_off_c, 10, 62, 64
11, 339480, Note_on_c, 10, 62, 71
11, 339576, Note_off_c, 10, 62, 64
11, 339600, Note_on_c, 10, 65, 70
11, 339696, Note_off_c, 10, 65, 64
11, 339720, Note_on_c, 10, 65, 69
11, 339816, Note_off_c, 10, 65, 64
11, 339840, Note_on_c, 10, 62, 69
11, 339936, Note_off_c, 10, 62, 64
11, 339960, Note_on_c, 10, 62, 68
11, 340056, Note_off_c, 10, 62, 64
11, 340080, Note_on_c, 10, 65, 67
11, 340176, Note_off_c, 10, 65, 64
11, 340200, Note_on_c, 10, 65, 66
11, 340296, Note_off_c, 10, 65, 64
11, 340320, Note_on_c, 10, 62, 66
11, 340416, Note_off_c, 10, 62, 64
11, 340440, Note_on_c, 10, 62, 65
11, 340536, Note_off_c, 10, 62, 64
11, 340560, Note_on_c, 10, 65, 64
11, 340656, Note_off_c, 10, 65, 64
11, 340680, Note_on_c, 10, 65, 64
11, 340776, Note_off_c, 10, 65, 64
11, 340800, Note_on_c, 10, 62, 63
11, 340896, Note_off_c, 10, 62, 64
11, 340920, Note_on_c, 10, 62, 62
11, 341016, Note_off_c, 10, 62, 64
11, 341040, Note_on_c, 10, 65, 61
11, 341136, Note_off_c, 10, 65, 64
11, 341160, Note_on_c, 10, 65, 61
11, 341256, Note_off_c, 10, 65, 64
11, 341280, Note_on_c, 10, 62, 60
11, 341376, Note_off_c, 10, 62, 64
11, 341400, Note_on_c, 10, 62, 59
11, 341496, Note_off_c, 10, 62, 64
11, 341520, Note_on_c, 10, 65, 59
11, 341616, Note_off_c, 10, 65, 64
11, 341640, Note_on_c, 10, 65, 58
11, 341736, Note_off_c, 10, 65, 64
11, 341760, Note_on_c, 10, 62, 57
11, 341856, Note_off_c, 10, 62, 64
11, 341880, Note_on_c, 10, 62, 56
11, 341976, Note_off_c, 10, 62, 64
11, 342000, Note_on_c, 10, 65, 56
11, 342096, Note_off_c, 10, 65, 64
11, 342120, Note_on_c, 10, 65, 55
11, 342216, Note_off_c, 10, 65, 64
11, 342240, Note_on_c, 10, 62, 54
11, 342336, Note_off_c, 10, 62, 64
11, 342360, Note_on_c, 10, 62, 54
11, 342456, Note_off_c, 10, 62, 64
11, 342480, Note_on_c, 10, 65, 53
11, 342576, Note_off_c, 10, 65, 64
11, 342600, Note_on_c, 10, 65, 52
11, 342696, Note_off_c, 10, 65, 64
11, 342720, Note_on_c, 10, 62, 51
11, 342816, Note_off_c, 10, 62, 64
11, 342840, Note_on_c, 10, 62, 51
11, 342936, Note_off_c, 10, 62, 64
11, 342960, Note_on_c, 10, 65, 50
11, 343056, Note_off_c, 10, 65, 64
11, 343080, Note_on_c, 10, 65, 49
11, 343176, Note_off_c, 10, 65, 64
11, 343200, Note_on_c, 10, 65, 49
11, 343296, Note_off_c, 10, 65, 64
11, 343320, Note_on_c, 10, 65, 48
11, 343416, Note_off_c, 10, 65, 64
11, 343440, Note_on_c, 10, 69, 47
11, 343536, Note_off_c, 10, 69, 64
11, 343560, Note_on_c, 10, 69, 46
11, 343656, Note_off_c, 10, 69, 64
11, 343680, Note_on_c, 10, 69, 46
11, 343776, Note_off_c, 10, 69, 64
11, 343800, Note_on_c, 10, 69, 45
11, 343896, Note_off_c, 10, 69, 64
11, 343920, Note_on_c, 10, 69, 44
11, 344016, Note_off_c, 10, 69, 64
11, 344040, Note_on_c, 10, 69, 44
11, 344136, Note_off_c, 10, 69, 64
11, 344160, Note_on_c, 10, 65, 43
11, 344256, Note_off_c, 10, 65, 64
11, 344280, Note_on_c, 10, 65, 42
11, 344376, Note_off_c, 10, 65, 64
11, 344400, Note_on_c, 10, 69, 41
11, 344496, Note_off_c, 10, 69, 64
11, 344520, Note_on_c, 10, 69, 41
11, 344616, Note_off_c, 10, 69, 64
11, 344640, Note_on_c, 10, 69, 60
11, 344736, Note_off_c, 10, 69, 64
11, 344760, Note_on_c, 10, 69, 60
11, 344856, Note_off_c, 10, 69, 64
11, 344880, Note_on_c, 10, 69, 60
11, 344976, Note_off_c, 10, 69, 64
11, 345000, Note_on_c, 10, 69, 60
11, 345096, Note_off_c, 10, 69, 64
11, 345120, Note_on_c, 10, 66, 60
11, 345216, Note_off_c, 10, 66, 64
11, 345240, Note_on_c, 10, 66, 60
11, 345336, Note_off_c, 10, 66, 64
11, 345360, Note_on_c, 10, 69, 60
11, 345456, Note_off_c, 10, 69, 64
11, 345480, Note_on_c, 10, 69, 60
11, 345576, Note_off_c, 10, 69, 64
11, 345600, Note_on_c, 10, 69, 60
11, 345696, Note_off_c, 10, 69, 64
11, 345720, Note_on_c, 10, 69, 60
11, 345816, Note_off_c, 10, 69, 64
11, 345840, Note_on_c, 10, 69, 60
11, 345936, Note_off_c, 10, 69, 64
11, 345960, Note_on_c, 10, 69, 60
11, 346056, Note_off_c, 10, 69, 64
11, 346080, Note_on_c, 10, 66, 60
11, 346176, Note_off_c, 10, 66, 64
11, 346200, Note_on_c, 10, 66, 60
11, 346296, Note_off_c, 10, 66, 64
11, 346320, Note_on_c, 10, 70, 60
11, 346416, Note_off_c, 10, 70, 64
11, 346440, Note_on_c, 10, 70, 60
11, 346536, Note_off_c, 10, 70, 64
11, 346560, Note_on_c, 10, 70, 60
11, 346656, Note_off_c, 10, 70, 64
11, 346680, Note_on_c, 10, 70, 60
11, 346776, Note_off_c, 10, 70, 64
11, 346800, Note_on_c, 10, 70, 60
11, 346896, Note_off_c, 10, 70, 64
11, 346920, Note_on_c, 10, 70, 60
11, 347016, Note_off_c, 10, 70, 64
11, 347040, Note_on_c, 10, 67, 60
11, 347136, Note_off_c, 10, 67, 64
11, 347160, Note_on_c, 10, 67, 60
11, 347256, Note_off_c, 10, 67, 64
11, 347280, Note_on_c, 10, 70, 60
11, 347376, Note_off_c, 10, 70, 64
11, 347400, Note_on_c, 10, 70, 60
11, 347496, Note_off_c, 10, 70, 64
11, 347520, Note_on_c, 10, 70, 60
11, 347616, Note_off_c, 10, 70, 64
11, 347640, Note_on_c, 10, 70, 60
11, 347736, Note_off_c, 10, 70, 64
11, 347760, Note_on_c, 10, 70, 60
11, 347856, Note_off_c, 10, 70, 64
11, 347880, Note_on_c, 10, 70, 60
11, 347976, Note_off_c, 10, 70, 64
11, 348000, Note_on_c, 10, 67, 60
11, 348096, Note_off_c, 10, 67, 64
11, 348120, Note_on_c, 10, 67, 60
11, 348216, Note_off_c, 10, 67, 64
11, 348240, Note_on_c, 10, 71, 60
11, 348336, Note_off_c, 10, 71, 64
11, 348360, Note_on_c, 10, 71, 60
11, 348456, Note_off_c, 10, 71, 64
11, 348480, Note_on_c, 10, 71, 60
11, 348576, Note_off_c, 10, 71, 64
11, 348600, Note_on_c, 10, 71, 60
11, 348696, Note_off_c, 10, 71, 64
11, 348720, Note_on_c, 10, 71, 60
11, 348816, Note_off_c, 10, 71, 64
11, 348840, Note_on_c, 10, 71, 60
11, 348936, Note_off_c, 10, 71, 64
11, 348960, Note_on_c, 10, 68, 60
11, 349056, Note_off_c, 10, 68, 64
11, 349080, Note_on_c, 10, 68, 60
11, 349176, Note_off_c, 10, 68, 64
11, 349200, Note_on_c, 10, 71, 60
11, 349296, Note_off_c, 10, 71, 64
11, 349320, Note_on_c, 10, 71, 60
11, 349416, Note_off_c, 10, 71, 64
11, 349440, Note_on_c, 10, 71, 60
11, 349536, Note_off_c, 10, 71, 64
11, 349560, Note_on_c, 10, 71, 60
11, 349656, Note_off_c, 10, 71, 64
11, 349680, Note_on_c, 10, 71, 60
11, 349776, Note_off_c, 10, 71, 64
11, 349800, Note_on_c, 10, 71, 60
11, 349896, Note_off_c, 10, 71, 64
11, 349920, Note_on_c, 10, 68, 60
11, 350016, Note_off_c, 10, 68, 64
11, 350040, Note_on_c, 10, 68, 60
11, 350136, Note_off_c, 10, 68, 64
11, 350160, Note_on_c, 10, 72, 60
11, 350256, Note_off_c, 10, 72, 64
11, 350280, Note_on_c, 10, 72, 60
11, 350376, Note_off_c, 10, 72, 64
11, 350400, Note_on_c, 10, 72, 60
11, 350496, Note_off_c, 10, 72, 64
11, 350520, Note_on_c, 10, 72, 60
11, 350616, Note_off_c, 10, 72, 64
11, 350640, Note_on_c, 10, 72, 60
11, 350736, Note_off_c, 10, 72, 64
11, 350760, Note_on_c, 10, 72, 60
11, 350856, Note_off_c, 10, 72, 64
11, 350880, Note_on_c, 10, 69, 60
11, 350976, Note_off_c, 10, 69, 64
11, 351000, Note_on_c, 10, 69, 60
11, 351096, Note_off_c, 10, 69, 64
11, 351120, Note_on_c, 10, 73, 60
11, 351216, Note_off_c, 10, 73, 64
11, 351240, Note_on_c, 10, 73, 60
11, 351336, Note_off_c, 10, 73, 64
11, 351360, Note_on_c, 10, 73, 60
11, 351456, Note_off_c, 10, 73, 64
11, 351480, Note_on_c, 10, 73, 60
11, 351576, Note_off_c, 10, 73, 64
11, 351600, Note_on_c, 10, 73, 60
11, 351696, Note_off_c, 10, 73, 64
11, 351720, Note_on_c, 10, 73, 60
11, 351816, Note_off_c, 10, 73, 64
11, 351840, Note_on_c, 10, 70, 60
11, 351936, Note_off_c, 10, 70, 64
11, 351960, Note_on_c, 10, 70, 60
11, 352056, Note_off_c, 10, 70, 64
11, 352080, Note_on_c, 10, 74, 60
11, 352176, Note_off_c, 10, 74, 64
11, 352200, Note_on_c, 10, 74, 60
11, 352296, Note_off_c, 10, 74, 64
11, 352320, Note_on_c, 10, 74, 60
11, 352416, Note_off_c, 10, 74, 64
11, 352440, Note_on_c, 10, 74, 60
11, 352536, Note_off_c, 10, 74, 64
11, 352560, Note_on_c, 10, 74, 60
11, 352656, Note_off_c, 10, 74, 64
11, 352680, Note_on_c, 10, 74, 60
11, 352776, Note_off_c, 10, 74, 64
11, 352800, Note_on_c, 10, 71, 60
11, 352896, Note_off_c, 10, 71, 64
11, 352920, Note_on_c, 10, 71, 60
11, 353016, Note_off_c, 10, 71, 64
11, 353040, Note_on_c, 10, 75, 60
11, 353136, Note_off_c, 10, 75, 64
11, 353160, Note_on_c, 10, 75, 60
11, 353256, Note_off_c, 10, 75, 64
11, 353280, Note_on_c, 10, 75, 60
11, 353376, Note_off_c, 10, 75, 64
11, 353400, Note_on_c, 10, 75, 60
11, 353496, Note_off_c, 10, 75, 64
11, 353520, Note_on_c, 10, 75, 60
11, 353616, Note_off_c, 10, 75, 64
11, 353640, Note_on_c, 10, 75, 60
11, 353736, Note_off_c, 10, 75, 64
11, 353760, Note_on_c, 10, 72, 60
11, 353856, Note_off_c, 10, 72, 64
11, 353880, Note_on_c, 10, 72, 60
11, 353976, Note_off_c, 10, 72, 64
11, 354000, Note_on_c, 10, 76, 60
11, 354096, Note_off_c, 10, 76, 64
11, 354120, Note_on_c, 10, 76, 60
11, 354216, Note_off_c, 10, 76, 64
11, 354240, Note_on_c, 10, 76, 64
11, 354336, Note_off_c, 10, 76, 64
11, 354360, Note_on_c, 10, 76, 64
11, 354456, Note_off_c, 10, 76, 64
11, 354480, Note_on_c, 10, 76, 64
11, 354576, Note_off_c, 10, 76, 64
11, 354600, Note_on_c, 10, 76, 64
11, 354696, Note_off_c, 10, 76, 64
11, 354720, Note_on_c, 10, 73, 64
11, 354816, Note_off_c, 10, 73, 64
11, 354840, Note_on_c, 10, 73, 64
11, 354936, Note_off_c, 10, 73, 64
11, 354960, Note_on_c, 10, 76, 64
11, 355056, Note_off_c, 10, 76, 64
11, 355080, Note_on_c, 10, 76, 64
11, 355176, Note_off_c, 10, 76, 64
11, 355200, Note_on_c, 10, 76, 64
11, 355296, Note_off_c, 10, 76, 64
11, 355320, Note_on_c, 10, 76, 64
11, 355416, Note_off_c, 10, 76, 64
11, 355440, Note_on_c, 10, 76, 64
11, 355536, Note_off_c, 10, 76, 64
11, 355560, Note_on_c, 10, 76, 64
11, 355656, Note_off_c, 10, 76, 64
11, 355680, Note_on_c, 10, 74, 64
11, 355776, Note_off_c, 10, 74, 64
11, 355800, Note_on_c, 10, 74, 64
11, 355896, Note_off_c, 10, 74, 64
11, 355920, Note_on_c, 10, 76, 64
11, 356016, Note_off_c, 10, 76, 64
11, 356040, Note_on_c, 10, 76, 64
11, 356136, Note_off_c, 10, 76, 64
11, 356160, Note_on_c, 10, 76, 64
11, 356256, Note_off_c, 10, 76, 64
11, 356280, Note_on_c, 10, 76, 64
11, 356376, Note_off_c, 10, 76, 64
11, 356400, Note_on_c, 10, 76, 64
11, 356496, Note_off_c, 10, 76, 64
11, 356520, Note_on_c, 10, 76, 64
11, 356616, Note_off_c, 10, 76, 64
11, 356640, Note_on_c, 10, 75, 64
11, 356736, Note_off_c, 10, 75, 64
11, 356760, Note_on_c, 10, 75, 64
11, 356856, Note_off_c, 10, 75, 64
11, 356880, Note_on_c, 10, 76, 64
11, 356976, Note_off_c, 10, 76, 64
11, 357000, Note_on_c, 10, 76, 64
11, 357096, Note_off_c, 10, 76, 64
11, 357120, Note_on_c, 10, 76, 64
11, 357216, Note_off_c, 10, 76, 64
11, 357240, Note_on_c, 10, 76, 64
11, 357336, Note_off_c, 10, 76, 64
11, 357360, Note_on_c, 10, 76, 64
11, 357456, Note_off_c, 10, 76, 64
11, 357480, Note_on_c, 10, 76, 64
11, 357576, Note_off_c, 10, 76, 64
11, 357600, Note_on_c, 10, 75, 64
11, 357696, Note_off_c, 10, 75, 64
11, 357720, Note_on_c, 10, 75, 64
11, 357816, Note_off_c, 10, 75, 64
11, 357840, Note_on_c, 10, 76, 64
11, 357936, Note_off_c, 10, 76, 64
11, 357960, Note_on_c, 10, 76, 64
11, 358056, Note_off_c, 10, 76, 64
11, 358080, Note_on_c, 10, 76, 64
11, 358176, Note_off_c, 10, 76, 64
11, 358200, Note_on_c, 10, 64, 51
11, 358296, Note_off_c, 10, 64, 64
11, 358320, Note_on_c, 10, 64, 51
11, 358416, Note_off_c, 10, 64, 64
11, 358440, Note_on_c, 10, 64, 51
11, 358536, Note_off_c, 10, 64, 64
11, 358560, Note_on_c, 10, 63, 51
11, 358656, Note_off_c, 10, 63, 64
11, 358680, Note_on_c, 10, 63, 51
11, 358776, Note_off_c, 10, 63, 64
11, 358800, Note_on_c, 10, 64, 51
11, 358896, Note_off_c, 10, 64, 64
11, 358920, Note_on_c, 10, 64, 51
11, 359016, Note_off_c, 10, 64, 64
11, 359040, Note_on_c, 10, 64, 51
11, 359136, Note_off_c, 10, 64, 64
11, 359160, Note_on_c, 10, 64, 51
11, 359256, Note_off_c, 10, 64, 64
11, 359280, Note_on_c, 10, 64, 51
11, 359376, Note_off_c, 10, 64, 64
11, 359400, Note_on_c, 10, 64, 51
11, 359496, Note_off_c, 10, 64, 64
11, 359520, Note_on_c, 10, 63, 51
11, 359616, Note_off_c, 10, 63, 64
11, 359640, Note_on_c, 10, 63, 51
11, 359736, Note_off_c, 10, 63, 64
11, 359760, Note_on_c, 10, 64, 51
11, 359856, Note_off_c, 10, 64, 64
11, 359880, Note_on_c, 10, 64, 51
11, 359976, Note_off_c, 10, 64, 64
11, 360000, Note_on_c, 10, 64, 51
11, 360096, Note_off_c, 10, 64, 64
11, 360120, Note_on_c, 10, 64, 51
11, 360216, Note_off_c, 10, 64, 64
11, 360240, Note_on_c, 10, 64, 51
11, 360336, Note_off_c, 10, 64, 64
11, 360360, Note_on_c, 10, 64, 51
11, 360456, Note_off_c, 10, 64, 64
11, 360480, Note_on_c, 10, 63, 51
11, 360576, Note_off_c, 10, 63, 64
11, 360600, Note_on_c, 10, 63, 51
11, 360696, Note_off_c, 10, 63, 64
11, 360720, Note_on_c, 10, 64, 51
11, 360816, Note_off_c, 10, 64, 64
11, 360840, Note_on_c, 10, 64, 51
11, 360936, Note_off_c, 10, 64, 64
11, 360960, Note_on_c, 10, 64, 51
11, 361056, Note_off_c, 10, 64, 64
11, 361080, Note_on_c, 10, 64, 51
11, 361176, Note_off_c, 10, 64, 64
11, 361200, Note_on_c, 10, 64, 51
11, 361296, Note_off_c, 10, 64, 64
11, 361320, Note_on_c, 10, 64, 51
11, 361416, Note_off_c, 10, 64, 64
11, 361440, Note_on_c, 10, 63, 51
11, 361536, Note_off_c, 10, 63, 64
11, 361560, Note_on_c, 10, 63, 51
11, 361656, Note_off_c, 10, 63, 64
11, 361680, Note_on_c, 10, 64, 51
11, 361776, Note_off_c, 10, 64, 64
11, 361800, Note_on_c, 10, 64, 51
11, 361896, Note_off_c, 10, 64, 64
11, 361920, Note_on_c, 10, 65, 40
11, 361980, Note_off_c, 10, 65, 64
11, 362160, Note_on_c, 10, 57, 40
11, 362220, Note_off_c, 10, 57, 64
11, 362280, Note_on_c, 10, 57, 40
11, 362340, Note_off_c, 10, 57, 64
11, 362400, Note_on_c, 10, 57, 40
11, 362520, Note_off_c, 10, 57, 64
11, 363840, Note_on_c, 10, 57, 40
11, 363960, Note_off_c, 10, 57, 64
11, 364080, Note_on_c, 10, 57, 40
11, 364140, Note_off_c, 10, 57, 64
11, 364200, Note_on_c, 10, 57, 40
11, 364260, Note_off_c, 10, 57, 64
11, 364320, Note_on_c, 10, 57, 40
11, 364440, Note_off_c, 10, 57, 64
11, 372480, Note_on_c, 10, 65, 40
11, 372540, Note_off_c, 10, 65, 64
11, 372720, Note_on_c, 10, 57, 40
11, 372780, Note_off_c, 10, 57, 64
11, 372840, Note_on_c, 10, 57, 40
11, 372900, Note_off_c, 10, 57, 64
11, 372960, Note_on_c, 10, 57, 40
11, 373080, Note_off_c, 10, 57, 64
11, 374400, Note_on_c, 10, 57, 40
11, 374520, Note_off_c, 10, 57, 64
11, 374640, Note_on_c, 10, 57, 40
11, 374700, Note_off_c, 10, 57, 64
11, 374760, Note_on_c, 10, 57, 40
11, 374820, Note_off_c, 10, 57, 64
11, 374880, Note_on_c, 10, 57, 40
11, 375000, Note_off_c, 10, 57, 64
11, 383040, Note_on_c, 10, 64, 114
11, 383040, Note_on_c, 10, 71, 114
11, 383208, Note_off_c, 10, 71, 64
11, 383208, Note_off_c, 10, 64, 64
11, 385440, Note_on_c, 10, 64, 114
11, 385440, Note_on_c, 10, 74, 114
11, 385608, Note_off_c, 10, 74, 64
11, 385608, Note_off_c, 10, 64, 64
11, 387840, Note_on_c, 10, 64, 127
11, 387840, Note_on_c, 10, 59, 72
11, 387936, Note_off_c, 10, 59, 64
11, 387936, Note_off_c, 10, 64, 64
11, 387960, Note_on_c, 10, 64, 72
11, 387960, Note_on_c, 10, 59, 72
11, 388056, Note_off_c, 10, 59, 64
11, 388056, Note_off_c, 10, 64, 64
11, 388080, Note_on_c, 10, 59, 72
11, 388080, Note_on_c, 10, 64, 72
11, 388176, Note_off_c, 10, 64, 64
11, 388176, Note_off_c, 10, 59, 64
11, 388200, Note_on_c, 10, 64, 72
11, 388200, Note_on_c, 10, 59, 72
11, 388296, Note_off_c, 10, 59, 64
11, 388296, Note_off_c, 10, 64, 64
11, 388320, Note_on_c, 10, 64, 127
11, 388320, Note_on_c, 10, 57, 127
11, 388416, Note_off_c, 10, 57, 64
11, 388416, Note_off_c, 10, 64, 64
11, 388440, Note_on_c, 10, 57, 72
11, 388440, Note_on_c, 10, 64, 72
11, 388536, Note_off_c, 10, 64, 64
11, 388536, Note_off_c, 10, 57, 64
11, 388560, Note_on_c, 10, 59, 72
11, 388560, Note_on_c, 10, 64, 72
11, 388656, Note_off_c, 10, 64, 64
11, 388656, Note_off_c, 10, 59, 64
11, 388680, Note_on_c, 10, 64, 72
11, 388680, Note_on_c, 10, 59, 72
11, 388776, Note_off_c, 10, 59, 64
11, 388776, Note_off_c, 10, 64, 64
11, 388800, Note_on_c, 10, 61, 72
11, 388800, Note_on_c, 10, 64, 72
11, 388896, Note_off_c, 10, 64, 64
11, 388896, Note_off_c, 10, 61, 64
11, 388920, Note_on_c, 10, 64, 72
11, 388920, Note_on_c, 10, 61, 72
11, 389016, Note_off_c, 10, 61, 64
11, 389016, Note_off_c, 10, 64, 64
11, 389040, Note_on_c, 10, 61, 72
11, 389040, Note_on_c, 10, 64, 72
11, 389136, Note_off_c, 10, 64, 64
11, 389136, Note_off_c, 10, 61, 64
11, 389160, Note_on_c, 10, 61, 72
11, 389160, Note_on_c, 10, 64, 72
11, 389256, Note_off_c, 10, 64, 64
11, 389256, Note_off_c, 10, 61, 64
11, 389280, Note_on_c, 10, 59, 127
11, 389280, Note_on_c, 10, 64, 127
11, 389376, Note_off_c, 10, 64, 64
11, 389376, Note_off_c, 10, 59, 64
11, 389400, Note_on_c, 10, 64, 72
11, 389400, Note_on_c, 10, 59, 72
11, 389496, Note_off_c, 10, 59, 64
11, 389496, Note_off_c, 10, 64, 64
11, 389520, Note_on_c, 10, 61, 72
11, 389520, Note_on_c, 10, 64, 72
11, 389616, Note_off_c, 10, 64, 64
11, 389616, Note_off_c, 10, 61, 64
11, 389640, Note_on_c, 10, 61, 72
11, 389640, Note_on_c, 10, 64, 72
11, 389736, Note_off_c, 10, 64, 64
11, 389736, Note_off_c, 10, 61, 64
11, 389760, Note_on_c, 10, 59, 72
11, 389760, Note_on_c, 10, 64, 72
11, 389856, Note_off_c, 10, 64, 64
11, 389856, Note_off_c, 10, 59, 64
11, 389880, Note_on_c, 10, 64, 72
11, 389880, Note_on_c, 10, 59, 72
11, 389976, Note_off_c, 10, 59, 64
11, 389976, Note_off_c, 10, 64, 64
11, 390000, Note_on_c, 10, 59, 72
11, 390000, Note_on_c, 10, 64, 72
11, 390096, Note_off_c, 10, 64, 64
11, 390096, Note_off_c, 10, 59, 64
11, 390120, Note_on_c, 10, 59, 72
11, 390120, Note_on_c, 10, 64, 72
11, 390216, Note_off_c, 10, 64, 64
11, 390216, Note_off_c, 10, 59, 64
11, 390240, Note_on_c, 10, 64, 72
11, 390240, Note_on_c, 10, 57, 72
11, 390336, Note_off_c, 10, 57, 64
11, 390336, Note_off_c, 10, 64, 64
11, 390360, Note_on_c, 10, 64, 72
11, 390360, Note_on_c, 10, 57, 72
11, 390456, Note_off_c, 10, 57, 64
11, 390456, Note_off_c, 10, 64, 64
11, 390480, Note_on_c, 10, 64, 72
11, 390480, Note_on_c, 10, 59, 72
11, 390576, Note_off_c, 10, 59, 64
11, 390576, Note_off_c, 10, 64, 64
11, 390600, Note_on_c, 10, 59, 72
11, 390600, Note_on_c, 10, 64, 72
11, 390696, Note_off_c, 10, 64, 64
11, 390696, Note_off_c, 10, 59, 64
11, 390720, Note_on_c, 10, 61, 72
11, 390816, Note_off_c, 10, 61, 64
11, 390840, Note_on_c, 10, 61, 72
11, 390936, Note_off_c, 10, 61, 64
11, 390960, Note_on_c, 10, 62, 72
11, 391056, Note_off_c, 10, 62, 64
11, 391080, Note_on_c, 10, 64, 72
11, 391176, Note_off_c, 10, 64, 64
11, 391200, Note_on_c, 10, 66, 127
11, 391296, Note_off_c, 10, 66, 64
11, 391320, Note_on_c, 10, 64, 72
11, 391416, Note_off_c, 10, 64, 64
11, 391440, Note_on_c, 10, 62, 72
11, 391536, Note_off_c, 10, 62, 64
11, 391560, Note_on_c, 10, 61, 72
11, 391656, Note_off_c, 10, 61, 64
11, 391680, Note_on_c, 10, 64, 72
11, 391680, Note_on_c, 10, 59, 72
11, 391776, Note_off_c, 10, 59, 64
11, 391776, Note_off_c, 10, 64, 64
11, 391800, Note_on_c, 10, 59, 72
11, 391800, Note_on_c, 10, 64, 72
11, 391896, Note_off_c, 10, 64, 64
11, 391896, Note_off_c, 10, 59, 64
11, 391920, Note_on_c, 10, 64, 72
11, 391920, Note_on_c, 10, 59, 72
11, 392016, Note_off_c, 10, 59, 64
11, 392016, Note_off_c, 10, 64, 64
11, 392040, Note_on_c, 10, 64, 72
11, 392040, Note_on_c, 10, 59, 72
11, 392136, Note_off_c, 10, 59, 64
11, 392136, Note_off_c, 10, 64, 64
11, 392160, Note_on_c, 10, 57, 127
11, 392160, Note_on_c, 10, 64, 127
11, 392256, Note_off_c, 10, 64, 64
11, 392256, Note_off_c, 10, 57, 64
11, 392280, Note_on_c, 10, 57, 72
11, 392280, Note_on_c, 10, 64, 72
11, 392376, Note_off_c, 10, 64, 64
11, 392376, Note_off_c, 10, 57, 64
11, 392400, Note_on_c, 10, 59, 72
11, 392400, Note_on_c, 10, 64, 72
11, 392496, Note_off_c, 10, 64, 64
11, 392496, Note_off_c, 10, 59, 64
11, 392520, Note_on_c, 10, 59, 72
11, 392520, Note_on_c, 10, 64, 72
11, 392616, Note_off_c, 10, 64, 64
11, 392616, Note_off_c, 10, 59, 64
11, 392640, Note_on_c, 10, 64, 72
11, 392640, Note_on_c, 10, 61, 72
11, 392736, Note_off_c, 10, 61, 64
11, 392736, Note_off_c, 10, 64, 64
11, 392760, Note_on_c, 10, 64, 72
11, 392760, Note_on_c, 10, 61, 72
11, 392856, Note_off_c, 10, 61, 64
11, 392856, Note_off_c, 10, 64, 64
11, 392880, Note_on_c, 10, 61, 72
11, 392880, Note_on_c, 10, 64, 72
11, 392976, Note_off_c, 10, 64, 64
11, 392976, Note_off_c, 10, 61, 64
11, 393000, Note_on_c, 10, 64, 72
11, 393000, Note_on_c, 10, 61, 72
11, 393096, Note_off_c, 10, 61, 64
11, 393096, Note_off_c, 10, 64, 64
11, 393120, Note_on_c, 10, 64, 127
11, 393120, Note_on_c, 10, 59, 127
11, 393216, Note_off_c, 10, 59, 64
11, 393216, Note_off_c, 10, 64, 64
11, 393240, Note_on_c, 10, 64, 72
11, 393240, Note_on_c, 10, 59, 72
11, 393336, Note_off_c, 10, 59, 64
11, 393336, Note_off_c, 10, 64, 64
11, 393360, Note_on_c, 10, 61, 72
11, 393360, Note_on_c, 10, 64, 72
11, 393456, Note_off_c, 10, 64, 64
11, 393456, Note_off_c, 10, 61, 64
11, 393480, Note_on_c, 10, 61, 72
11, 393480, Note_on_c, 10, 64, 72
11, 393576, Note_off_c, 10, 64, 64
11, 393576, Note_off_c, 10, 61, 64
11, 393600, Note_on_c, 10, 59, 72
11, 393600, Note_on_c, 10, 64, 72
11, 393696, Note_off_c, 10, 64, 64
11, 393696, Note_off_c, 10, 59, 64
11, 393720, Note_on_c, 10, 64, 72
11, 393720, Note_on_c, 10, 59, 72
11, 393816, Note_off_c, 10, 59, 64
11, 393816, Note_off_c, 10, 64, 64
11, 393840, Note_on_c, 10, 64, 72
11, 393840, Note_on_c, 10, 59, 72
11, 393936, Note_off_c, 10, 59, 64
11, 393936, Note_off_c, 10, 64, 64
11, 393960, Note_on_c, 10, 64, 72
11, 393960, Note_on_c, 10, 59, 72
11, 394056, Note_off_c, 10, 59, 64
11, 394056, Note_off_c, 10, 64, 64
11, 394080, Note_on_c, 10, 57, 72
11, 394080, Note_on_c, 10, 64, 72
11, 394176, Note_off_c, 10, 64, 64
11, 394176, Note_off_c, 10, 57, 64
11, 394200, Note_on_c, 10, 57, 72
11, 394200, Note_on_c, 10, 64, 72
11, 394296, Note_off_c, 10, 64, 64
11, 394296, Note_off_c, 10, 57, 64
11, 394320, Note_on_c, 10, 64, 72
11, 394320, Note_on_c, 10, 59, 72
11, 394416, Note_off_c, 10, 59, 64
11, 394416, Note_off_c, 10, 64, 64
11, 394440, Note_on_c, 10, 59, 72
11, 394440, Note_on_c, 10, 64, 72
11, 394536, Note_off_c, 10, 64, 64
11, 394536, Note_off_c, 10, 59, 64
11, 394560, Note_on_c, 10, 61, 72
11, 394656, Note_off_c, 10, 61, 64
11, 394680, Note_on_c, 10, 62, 72
11, 394776, Note_off_c, 10, 62, 64
11, 394800, Note_on_c, 10, 64, 72
11, 394896, Note_off_c, 10, 64, 64
11, 394920, Note_on_c, 10, 66, 72
11, 395016, Note_off_c, 10, 66, 64
11, 395040, Note_on_c, 10, 68, 72
11, 395136, Note_off_c, 10, 68, 64
11, 395160, Note_on_c, 10, 69, 72
11, 395256, Note_off_c, 10, 69, 64
11, 395280, Note_on_c, 10, 71, 72
11, 395376, Note_off_c, 10, 71, 64
11, 395400, Note_on_c, 10, 73, 72
11, 395496, Note_off_c, 10, 73, 64
11, 395520, Note_on_c, 10, 64, 127
11, 395520, Note_on_c, 10, 59, 72
11, 395616, Note_off_c, 10, 59, 64
11, 395616, Note_off_c, 10, 64, 64
11, 395640, Note_on_c, 10, 64, 72
11, 395640, Note_on_c, 10, 59, 72
11, 395736, Note_off_c, 10, 59, 64
11, 395736, Note_off_c, 10, 64, 64
11, 395760, Note_on_c, 10, 59, 72
11, 395760, Note_on_c, 10, 64, 72
11, 395856, Note_off_c, 10, 64, 64
11, 395856, Note_off_c, 10, 59, 64
11, 395880, Note_on_c, 10, 64, 72
11, 395880, Note_on_c, 10, 59, 72
11, 395976, Note_off_c, 10, 59, 64
11, 395976, Note_off_c, 10, 64, 64
11, 396000, Note_on_c, 10, 64, 127
11, 396000, Note_on_c, 10, 57, 127
11, 396096, Note_off_c, 10, 57, 64
11, 396096, Note_off_c, 10, 64, 64
11, 396120, Note_on_c, 10, 57, 72
11, 396120, Note_on_c, 10, 64, 72
11, 396216, Note_off_c, 10, 64, 64
11, 396216, Note_off_c, 10, 57, 64
11, 396240, Note_on_c, 10, 59, 72
11, 396240, Note_on_c, 10, 64, 72
11, 396336, Note_off_c, 10, 64, 64
11, 396336, Note_off_c, 10, 59, 64
11, 396360, Note_on_c, 10, 64, 72
11, 396360, Note_on_c, 10, 59, 72
11, 396456, Note_off_c, 10, 59, 64
11, 396456, Note_off_c, 10, 64, 64
11, 396480, Note_on_c, 10, 61, 72
11, 396480, Note_on_c, 10, 64, 72
11, 396576, Note_off_c, 10, 64, 64
11, 396576, Note_off_c, 10, 61, 64
11, 396600, Note_on_c, 10, 64, 72
11, 396600, Note_on_c, 10, 61, 72
11, 396696, Note_off_c, 10, 61, 64
11, 396696, Note_off_c, 10, 64, 64
11, 396720, Note_on_c, 10, 61, 72
11, 396720, Note_on_c, 10, 64, 72
11, 396816, Note_off_c, 10, 64, 64
11, 396816, Note_off_c, 10, 61, 64
11, 396840, Note_on_c, 10, 61, 72
11, 396840, Note_on_c, 10, 64, 72
11, 396936, Note_off_c, 10, 64, 64
11, 396936, Note_off_c, 10, 61, 64
11, 396960, Note_on_c, 10, 59, 127
11, 396960, Note_on_c, 10, 64, 127
11, 397056, Note_off_c, 10, 64, 64
11, 397056, Note_off_c, 10, 59, 64
11, 397080, Note_on_c, 10, 64, 72
11, 397080, Note_on_c, 10, 59, 72
11, 397176, Note_off_c, 10, 59, 64
11, 397176, Note_off_c, 10, 64, 64
11, 397200, Note_on_c, 10, 61, 72
11, 397200, Note_on_c, 10, 64, 72
11, 397296, Note_off_c, 10, 64, 64
11, 397296, Note_off_c, 10, 61, 64
11, 397320, Note_on_c, 10, 61, 72
11, 397320, Note_on_c, 10, 64, 72
11, 397416, Note_off_c, 10, 64, 64
11, 397416, Note_off_c, 10, 61, 64
11, 397440, Note_on_c, 10, 59, 72
11, 397440, Note_on_c, 10, 64, 72
11, 397536, Note_off_c, 10, 64, 64
11, 397536, Note_off_c, 10, 59, 64
11, 397560, Note_on_c, 10, 64, 72
11, 397560, Note_on_c, 10, 59, 72
11, 397656, Note_off_c, 10, 59, 64
11, 397656, Note_off_c, 10, 64, 64
11, 397680, Note_on_c, 10, 59, 72
11, 397680, Note_on_c, 10, 64, 72
11, 397776, Note_off_c, 10, 64, 64
11, 397776, Note_off_c, 10, 59, 64
11, 397800, Note_on_c, 10, 59, 72
11, 397800, Note_on_c, 10, 64, 72
11, 397896, Note_off_c, 10, 64, 64
11, 397896, Note_off_c, 10, 59, 64
11, 397920, Note_on_c, 10, 64, 72
11, 397920, Note_on_c, 10, 57, 72
11, 398016, Note_off_c, 10, 57, 64
11, 398016, Note_off_c, 10, 64, 64
11, 398040, Note_on_c, 10, 64, 72
11, 398040, Note_on_c, 10, 57, 72
11, 398136, Note_off_c, 10, 57, 64
11, 398136, Note_off_c, 10, 64, 64
11, 398160, Note_on_c, 10, 64, 72
11, 398160, Note_on_c, 10, 59, 72
11, 398256, Note_off_c, 10, 59, 64
11, 398256, Note_off_c, 10, 64, 64
11, 398280, Note_on_c, 10, 59, 72
11, 398280, Note_on_c, 10, 64, 72
11, 398376, Note_off_c, 10, 64, 64
11, 398376, Note_off_c, 10, 59, 64
11, 398400, Note_on_c, 10, 61, 72
11, 398496, Note_off_c, 10, 61, 64
11, 398520, Note_on_c, 10, 61, 72
11, 398616, Note_off_c, 10, 61, 64
11, 398640, Note_on_c, 10, 62, 72
11, 398736, Note_off_c, 10, 62, 64
11, 398760, Note_on_c, 10, 64, 72
11, 398856, Note_off_c, 10, 64, 64
11, 398880, Note_on_c, 10, 66, 127
11, 398976, Note_off_c, 10, 66, 64
11, 399000, Note_on_c, 10, 64, 72
11, 399096, Note_off_c, 10, 64, 64
11, 399120, Note_on_c, 10, 62, 72
11, 399216, Note_off_c, 10, 62, 64
11, 399240, Note_on_c, 10, 61, 72
11, 399336, Note_off_c, 10, 61, 64
11, 399360, Note_on_c, 10, 64, 72
11, 399360, Note_on_c, 10, 59, 72
11, 399456, Note_off_c, 10, 59, 64
11, 399456, Note_off_c, 10, 64, 64
11, 399480, Note_on_c, 10, 59, 72
11, 399480, Note_on_c, 10, 64, 72
11, 399576, Note_off_c, 10, 64, 64
11, 399576, Note_off_c, 10, 59, 64
11, 399600, Note_on_c, 10, 64, 72
11, 399600, Note_on_c, 10, 59, 72
11, 399696, Note_off_c, 10, 59, 64
11, 399696, Note_off_c, 10, 64, 64
11, 399720, Note_on_c, 10, 64, 72
11, 399720, Note_on_c, 10, 59, 72
11, 399816, Note_off_c, 10, 59, 64
11, 399816, Note_off_c, 10, 64, 64
11, 399840, Note_on_c, 10, 57, 127
11, 399840, Note_on_c, 10, 64, 127
11, 399936, Note_off_c, 10, 64, 64
11, 399936, Note_off_c, 10, 57, 64
11, 399960, Note_on_c, 10, 57, 72
11, 399960, Note_on_c, 10, 64, 72
11, 400056, Note_off_c, 10, 64, 64
11, 400056, Note_off_c, 10, 57, 64
11, 400080, Note_on_c, 10, 59, 72
11, 400080, Note_on_c, 10, 64, 72
11, 400176, Note_off_c, 10, 64, 64
11, 400176, Note_off_c, 10, 59, 64
11, 400200, Note_on_c, 10, 59, 72
11, 400200, Note_on_c, 10, 64, 72
11, 400296, Note_off_c, 10, 64, 64
11, 400296, Note_off_c, 10, 59, 64
11, 400320, Note_on_c, 10, 64, 72
11, 400320, Note_on_c, 10, 61, 72
11, 400416, Note_off_c, 10, 61, 64
11, 400416, Note_off_c, 10, 64, 64
11, 400440, Note_on_c, 10, 64, 72
11, 400440, Note_on_c, 10, 61, 72
11, 400536, Note_off_c, 10, 61, 64
11, 400536, Note_off_c, 10, 64, 64
11, 400560, Note_on_c, 10, 61, 72
11, 400560, Note_on_c, 10, 64, 72
11, 400656, Note_off_c, 10, 64, 64
11, 400656, Note_off_c, 10, 61, 64
11, 400680, Note_on_c, 10, 64, 72
11, 400680, Note_on_c, 10, 61, 72
11, 400776, Note_off_c, 10, 61, 64
11, 400776, Note_off_c, 10, 64, 64
11, 400800, Note_on_c, 10, 64, 127
11, 400800, Note_on_c, 10, 59, 127
11, 400896, Note_off_c, 10, 59, 64
11, 400896, Note_off_c, 10, 64, 64
11, 400920, Note_on_c, 10, 64, 72
11, 400920, Note_on_c, 10, 59, 72
11, 401016, Note_off_c, 10, 59, 64
11, 401016, Note_off_c, 10, 64, 64
11, 401040, Note_on_c, 10, 61, 72
11, 401040, Note_on_c, 10, 64, 72
11, 401136, Note_off_c, 10, 64, 64
11, 401136, Note_off_c, 10, 61, 64
11, 401160, Note_on_c, 10, 61, 72
11, 401160, Note_on_c, 10, 64, 72
11, 401256, Note_off_c, 10, 64, 64
11, 401256, Note_off_c, 10, 61, 64
11, 401280, Note_on_c, 10, 59, 72
11, 401280, Note_on_c, 10, 64, 72
11, 401376, Note_off_c, 10, 64, 64
11, 401376, Note_off_c, 10, 59, 64
11, 401400, Note_on_c, 10, 64, 72
11, 401400, Note_on_c, 10, 59, 72
11, 401496, Note_off_c, 10, 59, 64
11, 401496, Note_off_c, 10, 64, 64
11, 401520, Note_on_c, 10, 64, 72
11, 401520, Note_on_c, 10, 59, 72
11, 401616, Note_off_c, 10, 59, 64
11, 401616, Note_off_c, 10, 64, 64
11, 401640, Note_on_c, 10, 64, 72
11, 401640, Note_on_c, 10, 59, 72
11, 401736, Note_off_c, 10, 59, 64
11, 401736, Note_off_c, 10, 64, 64
11, 401760, Note_on_c, 10, 57, 72
11, 401760, Note_on_c, 10, 64, 72
11, 401856, Note_off_c, 10, 64, 64
11, 401856, Note_off_c, 10, 57, 64
11, 401880, Note_on_c, 10, 57, 72
11, 401880, Note_on_c, 10, 64, 72
11, 401976, Note_off_c, 10, 64, 64
11, 401976, Note_off_c, 10, 57, 64
11, 402000, Note_on_c, 10, 64, 72
11, 402000, Note_on_c, 10, 59, 72
11, 402096, Note_off_c, 10, 59, 64
11, 402096, Note_off_c, 10, 64, 64
11, 402120, Note_on_c, 10, 59, 72
11, 402120, Note_on_c, 10, 64, 72
11, 402216, Note_off_c, 10, 64, 64
11, 402216, Note_off_c, 10, 59, 64
11, 402240, Note_on_c, 10, 69, 108
11, 402240, Note_on_c, 10, 57, 127
11, 402240, Note_on_c, 10, 61, 108
11, 402360, Note_off_c, 10, 61, 64
11, 402360, Note_off_c, 10, 57, 64
11, 402360, Note_off_c, 10, 69, 64
11, 403320, Note_on_c, 10, 69, 108
11, 403320, Note_on_c, 10, 57, 127
11, 403320, Note_on_c, 10, 61, 108
11, 403440, Note_off_c, 10, 61, 64
11, 403440, Note_off_c, 10, 57, 64
11, 403440, Note_off_c, 10, 69, 64
11, 404400, Note_on_c, 10, 80, 108
11, 404400, Note_on_c, 10, 64, 127
11, 404400, Note_on_c, 10, 71, 108
11, 404520, Note_off_c, 10, 71, 64
11, 404520, Note_off_c, 10, 64, 64
11, 404520, Note_off_c, 10, 80, 64
11, 405480, Note_on_c, 10, 80, 108
11, 405480, Note_on_c, 10, 64, 127
11, 405480, Note_on_c, 10, 71, 108
11, 405600, Note_off_c, 10, 71, 64
11, 405600, Note_off_c, 10, 64, 64
11, 405600, Note_off_c, 10, 80, 64
11, 406560, Note_on_c, 10, 69, 127
11, 406560, Note_on_c, 10, 73, 108
11, 406560, Note_on_c, 10, 81, 108
11, 406680, Note_off_c, 10, 81, 64
11, 406680, Note_off_c, 10, 73, 64
11, 406680, Note_off_c, 10, 69, 64
11, 407040, Note_on_c, 10, 81, 108
11, 407040, Note_on_c, 10, 73, 108
11, 407040, Note_on_c, 10, 69, 127
11, 407160, Note_off_c, 10, 69, 64
11, 407160, Note_off_c, 10, 73, 64
11, 407160, Note_off_c, 10, 81, 64
11, 407520, Note_on_c, 10, 69, 127
11, 407520, Note_on_c, 10, 73, 108
11, 407520, Note_on_c, 10, 81, 108
11, 407640, Note_off_c, 10, 81, 64
11, 407640, Note_off_c, 10, 73, 64
11, 407640, Note_off_c, 10, 69, 64
11, 408000, Note_on_c, 10, 81, 108
11, 408000, Note_on_c, 10, 73, 108
11, 408000, Note_on_c, 10, 69, 127
11, 408120, Note_off_c, 10, 69, 64
11, 408120, Note_off_c, 10, 73, 64
11, 408120, Note_off_c, 10, 81, 64
11, 408480, Note_on_c, 10, 71, 108
11, 408480, Note_on_c, 10, 80, 108
11, 408600, Note_off_c, 10, 80, 64
11, 408600, Note_off_c, 10, 71, 64
11, 408960, Note_on_c, 10, 71, 108
11, 408960, Note_on_c, 10, 80, 108
11, 409080, Note_off_c, 10, 80, 64
11, 409080, Note_off_c, 10, 71, 64
11, 409440, Note_on_c, 10, 71, 108
11, 409440, Note_on_c, 10, 80, 108
11, 409560, Note_off_c, 10, 80, 64
11, 409560, Note_off_c, 10, 71, 64
11, 409920, Note_on_c, 10, 71, 108
11, 409920, Note_on_c, 10, 80, 108
11, 410040, Note_off_c, 10, 80, 64
11, 410040, Note_off_c, 10, 71, 64
11, 410400, Note_on_c, 10, 61, 108
11, 410400, Note_on_c, 10, 57, 127
11, 410400, Note_on_c, 10, 69, 108
11, 410520, Note_off_c, 10, 69, 64
11, 410520, Note_off_c, 10, 57, 64
11, 410520, Note_off_c, 10, 61, 64
11, 411480, Note_on_c, 10, 69, 108
11, 411480, Note_on_c, 10, 57, 127
11, 411480, Note_on_c, 10, 61, 108
11, 411600, Note_off_c, 10, 61, 64
11, 411600, Note_off_c, 10, 57, 64
11, 411600, Note_off_c, 10, 69, 64
11, 412560, Note_on_c, 10, 80, 108
11, 412560, Note_on_c, 10, 64, 127
11, 412560, Note_on_c, 10, 71, 108
11, 412680, Note_off_c, 10, 71, 64
11, 412680, Note_off_c, 10, 64, 64
11, 412680, Note_off_c, 10, 80, 64
11, 413640, Note_on_c, 10, 80, 108
11, 413640, Note_on_c, 10, 71, 108
11, 413640, Note_on_c, 10, 64, 127
11, 413760, Note_off_c, 10, 64, 64
11, 413760, Note_off_c, 10, 71, 64
11, 413760, Note_off_c, 10, 80, 64
11, 414720, Note_on_c, 10, 73, 100
11, 414816, Note_off_c, 10, 73, 64
11, 414840, Note_on_c, 10, 73, 100
11, 414936, Note_off_c, 10, 73, 64
11, 414960, Note_on_c, 10, 76, 100
11, 415056, Note_off_c, 10, 76, 64
11, 415080, Note_on_c, 10, 76, 100
11, 415176, Note_off_c, 10, 76, 64
11, 415200, Note_on_c, 10, 76, 100
11, 415296, Note_off_c, 10, 76, 64
11, 415320, Note_on_c, 10, 76, 100
11, 415416, Note_off_c, 10, 76, 64
11, 415440, Note_on_c, 10, 74, 100
11, 415536, Note_off_c, 10, 74, 64
11, 415560, Note_on_c, 10, 74, 100
11, 415656, Note_off_c, 10, 74, 64
11, 415680, Note_on_c, 10, 73, 100
11, 415776, Note_off_c, 10, 73, 64
11, 415800, Note_on_c, 10, 73, 100
11, 415896, Note_off_c, 10, 73, 64
11, 415920, Note_on_c, 10, 76, 100
11, 416016, Note_off_c, 10, 76, 64
11, 416040, Note_on_c, 10, 76, 100
11, 416136, Note_off_c, 10, 76, 64
11, 416160, Note_on_c, 10, 74, 100
11, 416256, Note_off_c, 10, 74, 64
11, 416280, Note_on_c, 10, 74, 100
11, 416376, Note_off_c, 10, 74, 64
11, 416400, Note_on_c, 10, 73, 100
11, 416496, Note_off_c, 10, 73, 64
11, 416520, Note_on_c, 10, 73, 100
11, 416616, Note_off_c, 10, 73, 64
11, 416640, Note_on_c, 10, 74, 100
11, 416736, Note_off_c, 10, 74, 64
11, 416760, Note_on_c, 10, 74, 100
11, 416856, Note_off_c, 10, 74, 64
11, 416880, Note_on_c, 10, 73, 100
11, 416976, Note_off_c, 10, 73, 64
11, 417000, Note_on_c, 10, 73, 100
11, 417096, Note_off_c, 10, 73, 64
11, 417120, Note_on_c, 10, 71, 100
11, 417216, Note_off_c, 10, 71, 64
11, 417240, Note_on_c, 10, 71, 100
11, 417336, Note_off_c, 10, 71, 64
11, 417360, Note_on_c, 10, 69, 100
11, 417456, Note_off_c, 10, 69, 64
11, 417480, Note_on_c, 10, 69, 100
11, 417576, Note_off_c, 10, 69, 64
11, 417600, Note_on_c, 10, 68, 100
11, 417696, Note_off_c, 10, 68, 64
11, 417720, Note_on_c, 10, 68, 100
11, 417816, Note_off_c, 10, 68, 64
11, 417840, Note_on_c, 10, 66, 100
11, 417936, Note_off_c, 10, 66, 64
11, 417960, Note_on_c, 10, 66, 100
11, 418056, Note_off_c, 10, 66, 64
11, 418080, Note_on_c, 10, 64, 100
11, 418176, Note_off_c, 10, 64, 64
11, 418200, Note_on_c, 10, 64, 100
11, 418296, Note_off_c, 10, 64, 64
11, 418320, Note_on_c, 10, 62, 100
11, 418416, Note_off_c, 10, 62, 64
11, 418440, Note_on_c, 10, 62, 100
11, 418536, Note_off_c, 10, 62, 64
11, 419760, Note_on_c, 10, 64, 100
11, 419880, Note_off_c, 10, 64, 64
11, 419880, Note_on_c, 10, 66, 97
11, 420000, Note_off_c, 10, 66, 64
11, 420000, Note_on_c, 10, 69, 95
11, 420120, Note_off_c, 10, 69, 64
11, 420120, Note_on_c, 10, 68, 92
11, 420240, Note_off_c, 10, 68, 64
11, 420240, Note_on_c, 10, 66, 89
11, 420360, Note_off_c, 10, 66, 64
11, 420360, Note_on_c, 10, 68, 87
11, 420480, Note_off_c, 10, 68, 64
11, 420480, Note_on_c, 10, 69, 80
11, 420960, Note_off_c, 10, 69, 64
11, 420960, Note_on_c, 10, 62, 80
11, 421440, Note_off_c, 10, 62, 64
11, 421440, Note_on_c, 10, 61, 80
11, 421920, Note_off_c, 10, 61, 64
11, 421920, Note_on_c, 10, 62, 80
11, 422400, Note_off_c, 10, 62, 64
11, 422400, Note_on_c, 10, 61, 80
11, 422640, Note_off_c, 10, 61, 64
11, 423600, Note_on_c, 10, 64, 100
11, 423720, Note_off_c, 10, 64, 64
11, 423720, Note_on_c, 10, 66, 97
11, 423840, Note_off_c, 10, 66, 64
11, 423840, Note_on_c, 10, 69, 95
11, 423960, Note_off_c, 10, 69, 64
11, 423960, Note_on_c, 10, 68, 92
11, 424080, Note_off_c, 10, 68, 64
11, 424080, Note_on_c, 10, 66, 89
11, 424200, Note_off_c, 10, 66, 64
11, 424200, Note_on_c, 10, 68, 87
11, 424320, Note_off_c, 10, 68, 64
11, 424320, Note_on_c, 10, 69, 80
11, 424800, Note_off_c, 10, 69, 64
11, 424800, Note_on_c, 10, 62, 80
11, 425280, Note_off_c, 10, 62, 64
11, 425280, Note_on_c, 10, 61, 80
11, 425760, Note_off_c, 10, 61, 64
11, 425760, Note_on_c, 10, 64, 80
11, 426240, Note_off_c, 10, 64, 64
11, 426240, Note_on_c, 10, 61, 80
11, 426354, Note_off_c, 10, 61, 64
11, 427440, Note_on_c, 10, 69, 110
11, 427560, Note_off_c, 10, 69, 64
11, 427560, Note_on_c, 10, 71, 110
11, 427680, Note_off_c, 10, 71, 64
11, 427680, Note_on_c, 10, 74, 110
11, 427800, Note_off_c, 10, 74, 64
11, 427800, Note_on_c, 10, 73, 110
11, 427920, Note_off_c, 10, 73, 64
11, 427920, Note_on_c, 10, 71, 110
11, 428040, Note_off_c, 10, 71, 64
11, 428040, Note_on_c, 10, 73, 110
11, 428160, Note_off_c, 10, 73, 64
11, 428160, Note_on_c, 10, 74, 110
11, 428640, Note_off_c, 10, 74, 64
11, 428640, Note_on_c, 10, 67, 80
11, 429120, Note_off_c, 10, 67, 64
11, 429120, Note_on_c, 10, 65, 80
11, 429600, Note_off_c, 10, 65, 64
11, 429600, Note_on_c, 10, 67, 80
11, 430080, Note_off_c, 10, 67, 64
11, 431280, Note_on_c, 10, 69, 119
11, 431400, Note_off_c, 10, 69, 64
11, 431400, Note_on_c, 10, 71, 114
11, 431520, Note_off_c, 10, 71, 64
11, 431520, Note_on_c, 10, 74, 111
11, 431640, Note_off_c, 10, 74, 64
11, 431640, Note_on_c, 10, 73, 107
11, 431760, Note_off_c, 10, 73, 64
11, 431760, Note_on_c, 10, 71, 102
11, 431880, Note_off_c, 10, 71, 64
11, 431880, Note_on_c, 10, 73, 99
11, 432000, Note_off_c, 10, 73, 64
11, 432000, Note_on_c, 10, 74, 80
11, 432480, Note_off_c, 10, 74, 64
11, 432480, Note_on_c, 10, 67, 80
11, 432960, Note_off_c, 10, 67, 64
11, 432960, Note_on_c, 10, 65, 80
11, 433440, Note_off_c, 10, 65, 64
11, 433440, Note_on_c, 10, 67, 80
11, 433920, Note_off_c, 10, 67, 64
11, 433920, Note_on_c, 10, 62, 110
11, 434034, Note_off_c, 10, 62, 64
11, 434280, Note_on_c, 10, 62, 80
11, 434394, Note_off_c, 10, 62, 64
11, 434400, Note_on_c, 10, 62, 80
11, 434514, Note_off_c, 10, 62, 64
11, 434760, Note_on_c, 10, 62, 80
11, 434874, Note_off_c, 10, 62, 64
11, 434880, Note_on_c, 10, 62, 80
11, 434994, Note_off_c, 10, 62, 64
11, 435240, Note_on_c, 10, 62, 80
11, 435354, Note_off_c, 10, 62, 64
11, 435360, Note_on_c, 10, 62, 80
11, 435474, Note_off_c, 10, 62, 64
11, 435720, Note_on_c, 10, 62, 80
11, 435834, Note_off_c, 10, 62, 64
11, 435840, Note_on_c, 10, 64, 80
11, 435954, Note_off_c, 10, 64, 64
11, 436200, Note_on_c, 10, 64, 80
11, 436314, Note_off_c, 10, 64, 64
11, 436320, Note_on_c, 10, 64, 80
11, 436434, Note_off_c, 10, 64, 64
11, 436680, Note_on_c, 10, 64, 80
11, 436794, Note_off_c, 10, 64, 64
11, 436800, Note_on_c, 10, 64, 80
11, 436914, Note_off_c, 10, 64, 64
11, 437160, Note_on_c, 10, 64, 80
11, 437274, Note_off_c, 10, 64, 64
11, 437280, Note_on_c, 10, 64, 80
11, 437394, Note_off_c, 10, 64, 64
11, 437640, Note_on_c, 10, 64, 80
11, 437754, Note_off_c, 10, 64, 64
11, 437760, Note_on_c, 10, 62, 110
11, 437874, Note_off_c, 10, 62, 64
11, 438120, Note_on_c, 10, 62, 80
11, 438234, Note_off_c, 10, 62, 64
11, 438240, Note_on_c, 10, 62, 80
11, 438354, Note_off_c, 10, 62, 64
11, 438600, Note_on_c, 10, 62, 80
11, 438714, Note_off_c, 10, 62, 64
11, 438720, Note_on_c, 10, 62, 110
11, 438834, Note_off_c, 10, 62, 64
11, 439080, Note_on_c, 10, 62, 80
11, 439194, Note_off_c, 10, 62, 64
11, 439200, Note_on_c, 10, 62, 80
11, 439314, Note_off_c, 10, 62, 64
11, 439560, Note_on_c, 10, 62, 80
11, 439674, Note_off_c, 10, 62, 64
11, 439680, Note_on_c, 10, 62, 110
11, 439794, Note_off_c, 10, 62, 64
11, 440040, Note_on_c, 10, 62, 80
11, 440154, Note_off_c, 10, 62, 64
11, 440160, Note_on_c, 10, 62, 80
11, 440274, Note_off_c, 10, 62, 64
11, 440520, Note_on_c, 10, 62, 80
11, 440634, Note_off_c, 10, 62, 64
11, 440640, Note_on_c, 10, 62, 110
11, 440754, Note_off_c, 10, 62, 64
11, 441000, Note_on_c, 10, 62, 80
11, 441114, Note_off_c, 10, 62, 64
11, 441120, Note_on_c, 10, 62, 80
11, 441234, Note_off_c, 10, 62, 64
11, 441480, Note_on_c, 10, 62, 80
11, 441594, Note_off_c, 10, 62, 64
11, 441600, Note_on_c, 10, 62, 110
11, 441714, Note_off_c, 10, 62, 64
11, 441960, Note_on_c, 10, 62, 80
11, 442074, Note_off_c, 10, 62, 64
11, 442080, Note_on_c, 10, 62, 80
11, 442194, Note_off_c, 10, 62, 64
11, 442440, Note_on_c, 10, 62, 80
11, 442554, Note_off_c, 10, 62, 64
11, 442560, Note_on_c, 10, 62, 80
11, 442674, Note_off_c, 10, 62, 64
11, 442920, Note_on_c, 10, 62, 80
11, 443034, Note_off_c, 10, 62, 64
11, 443040, Note_on_c, 10, 62, 80
11, 443154, Note_off_c, 10, 62, 64
11, 443400, Note_on_c, 10, 62, 80
11, 443514, Note_off_c, 10, 62, 64
11, 443520, Note_on_c, 10, 62, 127
11, 443634, Note_off_c, 10, 62, 64
11, 443640, Note_on_c, 10, 64, 99
11, 443736, Note_off_c, 10, 64, 64
11, 443760, Note_on_c, 10, 64, 99
11, 443856, Note_off_c, 10, 64, 64
11, 443880, Note_on_c, 10, 64, 99
11, 443976, Note_off_c, 10, 64, 64
11, 444000, Note_on_c, 10, 64, 99
11, 444096, Note_off_c, 10, 64, 64
11, 444120, Note_on_c, 10, 64, 99
11, 444216, Note_off_c, 10, 64, 64
11, 444240, Note_on_c, 10, 64, 99
11, 444336, Note_off_c, 10, 64, 64
11, 444360, Note_on_c, 10, 64, 99
11, 444456, Note_off_c, 10, 64, 64
11, 444480, Note_on_c, 10, 62, 50
11, 444576, Note_off_c, 10, 62, 64
11, 444600, Note_on_c, 10, 62, 50
11, 444696, Note_off_c, 10, 62, 64
11, 444720, Note_on_c, 10, 62, 50
11, 444816, Note_off_c, 10, 62, 64
11, 444840, Note_on_c, 10, 62, 50
11, 444936, Note_off_c, 10, 62, 64
11, 444960, Note_on_c, 10, 62, 50
11, 445056, Note_off_c, 10, 62, 64
11, 445080, Note_on_c, 10, 62, 50
11, 445176, Note_off_c, 10, 62, 64
11, 445200, Note_on_c, 10, 62, 50
11, 445296, Note_off_c, 10, 62, 64
11, 445320, Note_on_c, 10, 62, 50
11, 445416, Note_off_c, 10, 62, 64
11, 445440, Note_on_c, 10, 62, 50
11, 445536, Note_off_c, 10, 62, 64
11, 445560, Note_on_c, 10, 64, 50
11, 445656, Note_off_c, 10, 64, 64
11, 445680, Note_on_c, 10, 64, 50
11, 445776, Note_off_c, 10, 64, 64
11, 445800, Note_on_c, 10, 64, 50
11, 445896, Note_off_c, 10, 64, 64
11, 445920, Note_on_c, 10, 64, 50
11, 446016, Note_off_c, 10, 64, 64
11, 446040, Note_on_c, 10, 64, 50
11, 446136, Note_off_c, 10, 64, 64
11, 446160, Note_on_c, 10, 64, 50
11, 446256, Note_off_c, 10, 64, 64
11, 446280, Note_on_c, 10, 64, 50
11, 446376, Note_off_c, 10, 64, 64
11, 446400, Note_on_c, 10, 64, 50
11, 446496, Note_off_c, 10, 64, 64
11, 446520, Note_on_c, 10, 64, 50
11, 446616, Note_off_c, 10, 64, 64
11, 446640, Note_on_c, 10, 64, 50
11, 446736, Note_off_c, 10, 64, 64
11, 446760, Note_on_c, 10, 64, 50
11, 446856, Note_off_c, 10, 64, 64
11, 446880, Note_on_c, 10, 64, 50
11, 446976, Note_off_c, 10, 64, 64
11, 447000, Note_on_c, 10, 64, 50
11, 447096, Note_off_c, 10, 64, 64
11, 447120, Note_on_c, 10, 64, 50
11, 447216, Note_off_c, 10, 64, 64
11, 447240, Note_on_c, 10, 64, 50
11, 447336, Note_off_c, 10, 64, 64
11, 447360, Note_on_c, 10, 64, 50
11, 447456, Note_off_c, 10, 64, 64
11, 447480, Note_on_c, 10, 64, 50
11, 447576, Note_off_c, 10, 64, 64
11, 447600, Note_on_c, 10, 64, 50
11, 447696, Note_off_c, 10, 64, 64
11, 447720, Note_on_c, 10, 64, 50
11, 447816, Note_off_c, 10, 64, 64
11, 447840, Note_on_c, 10, 64, 99
11, 447936, Note_off_c, 10, 64, 64
11, 447960, Note_on_c, 10, 64, 99
11, 448056, Note_off_c, 10, 64, 64
11, 448080, Note_on_c, 10, 64, 99
11, 448176, Note_off_c, 10, 64, 64
11, 448200, Note_on_c, 10, 64, 99
11, 448296, Note_off_c, 10, 64, 64
11, 448320, Note_on_c, 10, 62, 50
11, 448416, Note_off_c, 10, 62, 64
11, 448440, Note_on_c, 10, 62, 50
11, 448536, Note_off_c, 10, 62, 64
11, 448560, Note_on_c, 10, 62, 50
11, 448656, Note_off_c, 10, 62, 64
11, 448680, Note_on_c, 10, 62, 50
11, 448776, Note_off_c, 10, 62, 64
11, 448800, Note_on_c, 10, 62, 50
11, 448896, Note_off_c, 10, 62, 64
11, 448920, Note_on_c, 10, 62, 50
11, 449016, Note_off_c, 10, 62, 64
11, 449040, Note_on_c, 10, 62, 50
11, 449136, Note_off_c, 10, 62, 64
11, 449160, Note_on_c, 10, 62, 50
11, 449256, Note_off_c, 10, 62, 64
11, 449280, Note_on_c, 10, 62, 50
11, 449376, Note_off_c, 10, 62, 64
11, 449400, Note_on_c, 10, 64, 50
11, 449496, Note_off_c, 10, 64, 64
11, 449520, Note_on_c, 10, 64, 50
11, 449616, Note_off_c, 10, 64, 64
11, 449640, Note_on_c, 10, 64, 50
11, 449736, Note_off_c, 10, 64, 64
11, 449760, Note_on_c, 10, 64, 50
11, 449856, Note_off_c, 10, 64, 64
11, 449880, Note_on_c, 10, 64, 50
11, 449976, Note_off_c, 10, 64, 64
11, 450000, Note_on_c, 10, 64, 50
11, 450096, Note_off_c, 10, 64, 64
11, 450120, Note_on_c, 10, 64, 50
11, 450216, Note_off_c, 10, 64, 64
11, 450240, Note_on_c, 10, 64, 50
11, 450336, Note_off_c, 10, 64, 64
11, 450360, Note_on_c, 10, 64, 50
11, 450456, Note_off_c, 10, 64, 64
11, 450480, Note_on_c, 10, 64, 50
11, 450576, Note_off_c, 10, 64, 64
11, 450600, Note_on_c, 10, 64, 50
11, 450696, Note_off_c, 10, 64, 64
11, 450720, Note_on_c, 10, 64, 50
11, 450816, Note_off_c, 10, 64, 64
11, 450840, Note_on_c, 10, 64, 50
11, 450936, Note_off_c, 10, 64, 64
11, 450960, Note_on_c, 10, 64, 50
11, 451056, Note_off_c, 10, 64, 64
11, 451080, Note_on_c, 10, 64, 50
11, 451176, Note_off_c, 10, 64, 64
11, 451200, Note_on_c, 10, 64, 64
11, 451296, Note_off_c, 10, 64, 64
11, 451320, Note_on_c, 10, 64, 63
11, 451416, Note_off_c, 10, 64, 64
11, 451440, Note_on_c, 10, 64, 62
11, 451536, Note_off_c, 10, 64, 64
11, 451560, Note_on_c, 10, 64, 61
11, 451656, Note_off_c, 10, 64, 64
11, 451680, Note_on_c, 10, 64, 60
11, 451776, Note_off_c, 10, 64, 64
11, 451800, Note_on_c, 10, 64, 59
11, 451896, Note_off_c, 10, 64, 64
11, 451920, Note_on_c, 10, 64, 58
11, 452016, Note_off_c, 10, 64, 64
11, 452040, Note_on_c, 10, 64, 58
11, 452136, Note_off_c, 10, 64, 64
11, 452160, Note_on_c, 10, 64, 57
11, 452256, Note_off_c, 10, 64, 64
11, 452280, Note_on_c, 10, 64, 56
11, 452376, Note_off_c, 10, 64, 64
11, 452400, Note_on_c, 10, 64, 55
11, 452496, Note_off_c, 10, 64, 64
11, 452520, Note_on_c, 10, 64, 54
11, 452616, Note_off_c, 10, 64, 64
11, 452640, Note_on_c, 10, 64, 53
11, 452736, Note_off_c, 10, 64, 64
11, 452760, Note_on_c, 10, 64, 52
11, 452856, Note_off_c, 10, 64, 64
11, 452880, Note_on_c, 10, 64, 51
11, 452976, Note_off_c, 10, 64, 64
11, 453000, Note_on_c, 10, 64, 50
11, 453096, Note_off_c, 10, 64, 64
11, 453120, Note_on_c, 10, 64, 49
11, 453216, Note_off_c, 10, 64, 64
11, 453240, Note_on_c, 10, 64, 48
11, 453336, Note_off_c, 10, 64, 64
11, 453360, Note_on_c, 10, 64, 47
11, 453456, Note_off_c, 10, 64, 64
11, 453480, Note_on_c, 10, 64, 47
11, 453576, Note_off_c, 10, 64, 64
11, 453600, Note_on_c, 10, 64, 46
11, 453696, Note_off_c, 10, 64, 64
11, 453720, Note_on_c, 10, 64, 45
11, 453816, Note_off_c, 10, 64, 64
11, 453840, Note_on_c, 10, 64, 44
11, 453936, Note_off_c, 10, 64, 64
11, 453960, Note_on_c, 10, 64, 43
11, 454056, Note_off_c, 10, 64, 64
11, 454080, Note_on_c, 10, 64, 42
11, 454176, Note_off_c, 10, 64, 64
11, 454200, Note_on_c, 10, 64, 41
11, 454296, Note_off_c, 10, 64, 64
11, 454320, Note_on_c, 10, 59, 40
11, 454416, Note_off_c, 10, 59, 64
11, 454440, Note_on_c, 10, 59, 39
11, 454536, Note_off_c, 10, 59, 64
11, 454560, Note_on_c, 10, 62, 38
11, 454656, Note_off_c, 10, 62, 64
11, 454680, Note_on_c, 10, 62, 37
11, 454776, Note_off_c, 10, 62, 64
11, 454800, Note_on_c, 10, 59, 36
11, 454896, Note_off_c, 10, 59, 64
11, 454920, Note_on_c, 10, 59, 36
11, 455016, Note_off_c, 10, 59, 64
11, 455040, Note_on_c, 10, 61, 64
11, 455112, Note_off_c, 10, 61, 64
11, 455400, Note_on_c, 10, 62, 64
11, 455520, Note_off_c, 10, 62, 64
11, 455520, Note_on_c, 10, 64, 96
11, 455970, Note_off_c, 10, 64, 64
11, 456000, Note_on_c, 10, 62, 77
11, 456072, Note_off_c, 10, 62, 64
11, 456360, Note_on_c, 10, 61, 64
11, 456480, Note_off_c, 10, 61, 64
11, 456480, Note_on_c, 10, 62, 96
11, 456930, Note_off_c, 10, 62, 64
11, 456960, Note_on_c, 10, 61, 77
11, 457032, Note_off_c, 10, 61, 64
11, 457320, Note_on_c, 10, 59, 64
11, 457440, Note_off_c, 10, 59, 64
11, 457440, Note_on_c, 10, 61, 96
11, 457890, Note_off_c, 10, 61, 64
11, 457920, Note_on_c, 10, 62, 77
11, 457992, Note_off_c, 10, 62, 64
11, 458280, Note_on_c, 10, 61, 64
11, 458400, Note_off_c, 10, 61, 64
11, 458400, Note_on_c, 10, 62, 96
11, 458850, Note_off_c, 10, 62, 64
11, 458880, Note_on_c, 10, 61, 38
11, 459360, Note_off_c, 10, 61, 64
11, 459360, Note_on_c, 10, 64, 48
11, 459744, Note_off_c, 10, 64, 64
11, 459840, Note_on_c, 10, 66, 48
11, 459840, Note_on_c, 10, 56, 48
11, 460224, Note_off_c, 10, 56, 64
11, 460224, Note_off_c, 10, 66, 64
11, 460320, Note_on_c, 10, 66, 48
11, 460320, Note_on_c, 10, 56, 48
11, 460704, Note_off_c, 10, 56, 64
11, 460704, Note_off_c, 10, 66, 64
11, 460800, Note_on_c, 10, 64, 48
11, 460800, Note_on_c, 10, 56, 48
11, 461184, Note_off_c, 10, 56, 64
11, 461184, Note_off_c, 10, 64, 64
11, 461280, Note_on_c, 10, 64, 48
11, 461280, Note_on_c, 10, 56, 48
11, 461664, Note_off_c, 10, 56, 64
11, 461664, Note_off_c, 10, 64, 64
11, 461760, Note_on_c, 10, 66, 48
11, 461760, Note_on_c, 10, 56, 48
11, 462144, Note_off_c, 10, 56, 64
11, 462144, Note_off_c, 10, 66, 64
11, 462240, Note_on_c, 10, 56, 48
11, 462240, Note_on_c, 10, 66, 48
11, 462624, Note_off_c, 10, 66, 64
11, 462624, Note_off_c, 10, 56, 64
11, 462720, Note_on_c, 10, 64, 48
11, 462720, Note_on_c, 10, 56, 48
11, 463104, Note_off_c, 10, 56, 64
11, 463104, Note_off_c, 10, 64, 64
11, 463200, Note_on_c, 10, 64, 48
11, 463200, Note_on_c, 10, 56, 48
11, 463584, Note_off_c, 10, 56, 64
11, 463584, Note_off_c, 10, 64, 64
11, 463680, Note_on_c, 10, 62, 64
11, 463800, Note_off_c, 10, 62, 64
11, 465120, Note_on_c, 10, 64, 96
11, 465570, Note_off_c, 10, 64, 64
11, 466080, Note_on_c, 10, 62, 96
11, 466530, Note_off_c, 10, 62, 64
11, 467040, Note_on_c, 10, 61, 96
11, 467490, Note_off_c, 10, 61, 64
11, 468000, Note_on_c, 10, 62, 96
11, 468450, Note_off_c, 10, 62, 64
11, 468480, Note_on_c, 10, 61, 38
11, 468960, Note_off_c, 10, 61, 64
11, 468960, Note_on_c, 10, 64, 48
11, 469344, Note_off_c, 10, 64, 64
11, 469440, Note_on_c, 10, 66, 48
11, 469440, Note_on_c, 10, 56, 48
11, 469824, Note_off_c, 10, 56, 64
11, 469824, Note_off_c, 10, 66, 64
11, 469920, Note_on_c, 10, 66, 48
11, 469920, Note_on_c, 10, 56, 48
11, 470304, Note_off_c, 10, 56, 64
11, 470304, Note_off_c, 10, 66, 64
11, 470400, Note_on_c, 10, 64, 48
11, 470400, Note_on_c, 10, 56, 48
11, 470784, Note_off_c, 10, 56, 64
11, 470784, Note_off_c, 10, 64, 64
11, 470880, Note_on_c, 10, 64, 48
11, 470880, Note_on_c, 10, 56, 48
11, 471264, Note_off_c, 10, 56, 64
11, 471264, Note_off_c, 10, 64, 64
11, 471360, Note_on_c, 10, 62, 38
11, 471586, Note_off_c, 10, 62, 64
11, 472320, Note_on_c, 10, 61, 38
11, 472546, Note_off_c, 10, 61, 64
11, 473280, Note_on_c, 10, 62, 38
11, 473506, Note_off_c, 10, 62, 64
11, 474240, Note_on_c, 10, 61, 38
11, 474466, Note_off_c, 10, 61, 64
11, 475200, Note_on_c, 10, 62, 38
11, 475426, Note_off_c, 10, 62, 64
11, 476160, Note_on_c, 10, 62, 38
11, 476386, Note_off_c, 10, 62, 64
11, 477480, Note_on_c, 10, 74, 74
11, 477600, Note_off_c, 10, 74, 64
11, 477600, Note_on_c, 10, 71, 74
11, 477696, Note_off_c, 10, 71, 64
11, 477960, Note_on_c, 10, 68, 74
11, 478080, Note_off_c, 10, 68, 64
11, 478080, Note_on_c, 10, 64, 74
11, 478176, Note_off_c, 10, 64, 64
11, 480000, Note_on_c, 10, 74, 77
11, 480096, Note_off_c, 10, 74, 64
11, 480360, Note_on_c, 10, 76, 77
11, 480480, Note_off_c, 10, 76, 64
11, 480480, Note_on_c, 10, 80, 77
11, 480576, Note_off_c, 10, 80, 64
11, 480840, Note_on_c, 10, 83, 77
11, 480960, Note_off_c, 10, 83, 64
11, 480960, Note_on_c, 10, 73, 77
11, 480960, Note_on_c, 10, 85, 77
11, 481056, Note_off_c, 10, 85, 64
11, 481056, Note_off_c, 10, 73, 64
11, 483240, Note_on_c, 10, 74, 92
11, 483360, Note_off_c, 10, 74, 64
11, 483360, Note_on_c, 10, 71, 92
11, 483456, Note_off_c, 10, 71, 64
11, 483720, Note_on_c, 10, 68, 92
11, 483840, Note_off_c, 10, 68, 64
11, 483840, Note_on_c, 10, 64, 92
11, 483936, Note_off_c, 10, 64, 64
11, 485760, Note_on_c, 10, 74, 79
11, 485856, Note_off_c, 10, 74, 64
11, 486120, Note_on_c, 10, 76, 85
11, 486240, Note_off_c, 10, 76, 64
11, 486240, Note_on_c, 10, 80, 87
11, 486336, Note_off_c, 10, 80, 64
11, 486600, Note_on_c, 10, 83, 93
11, 486720, Note_off_c, 10, 83, 64
11, 486720, Note_on_c, 10, 85, 95
11, 486720, Note_on_c, 10, 73, 95
11, 486816, Note_off_c, 10, 73, 64
11, 486816, Note_off_c, 10, 85, 64
11, 487200, Note_on_c, 10, 81, 102
11, 487344, Note_off_c, 10, 81, 64
11, 487680, Note_on_c, 10, 82, 99
11, 487680, Note_on_c, 10, 70, 99
11, 487776, Note_off_c, 10, 70, 64
11, 487776, Note_off_c, 10, 82, 64
11, 487800, Note_on_c, 10, 70, 99
11, 487800, Note_on_c, 10, 82, 99
11, 487896, Note_off_c, 10, 82, 64
11, 487896, Note_off_c, 10, 70, 64
11, 487920, Note_on_c, 10, 70, 99
11, 487920, Note_on_c, 10, 82, 99
11, 488016, Note_off_c, 10, 82, 64
11, 488016, Note_off_c, 10, 70, 64
11, 488040, Note_on_c, 10, 70, 99
11, 488040, Note_on_c, 10, 82, 99
11, 488136, Note_off_c, 10, 82, 64
11, 488136, Note_off_c, 10, 70, 64
11, 488160, Note_on_c, 10, 82, 99
11, 488160, Note_on_c, 10, 70, 99
11, 488256, Note_off_c, 10, 70, 64
11, 488256, Note_off_c, 10, 82, 64
11, 488280, Note_on_c, 10, 70, 99
11, 488280, Note_on_c, 10, 82, 99
11, 488376, Note_off_c, 10, 82, 64
11, 488376, Note_off_c, 10, 70, 64
11, 488400, Note_on_c, 10, 82, 99
11, 488400, Note_on_c, 10, 70, 99
11, 488496, Note_off_c, 10, 70, 64
11, 488496, Note_off_c, 10, 82, 64
11, 488520, Note_on_c, 10, 70, 99
11, 488520, Note_on_c, 10, 82, 99
11, 488616, Note_off_c, 10, 82, 64
11, 488616, Note_off_c, 10, 70, 64
11, 488640, Note_on_c, 10, 82, 99
11, 488640, Note_on_c, 10, 70, 99
11, 488736, Note_off_c, 10, 70, 64
11, 488736, Note_off_c, 10, 82, 64
11, 488760, Note_on_c, 10, 82, 99
11, 488760, Note_on_c, 10, 70, 99
11, 488856, Note_off_c, 10, 70, 64
11, 488856, Note_off_c, 10, 82, 64
11, 488880, Note_on_c, 10, 82, 99
11, 488880, Note_on_c, 10, 70, 99
11, 488976, Note_off_c, 10, 70, 64
11, 488976, Note_off_c, 10, 82, 64
11, 489000, Note_on_c, 10, 82, 99
11, 489000, Note_on_c, 10, 70, 99
11, 489096, Note_off_c, 10, 70, 64
11, 489096, Note_off_c, 10, 82, 64
11, 489120, Note_on_c, 10, 82, 99
11, 489120, Note_on_c, 10, 70, 99
11, 489216, Note_off_c, 10, 70, 64
11, 489216, Note_off_c, 10, 82, 64
11, 489240, Note_on_c, 10, 82, 99
11, 489240, Note_on_c, 10, 70, 99
11, 489336, Note_off_c, 10, 70, 64
11, 489336, Note_off_c, 10, 82, 64
11, 489360, Note_on_c, 10, 70, 99
11, 489360, Note_on_c, 10, 82, 99
11, 489456, Note_off_c, 10, 82, 64
11, 489456, Note_off_c, 10, 70, 64
11, 489480, Note_on_c, 10, 70, 99
11, 489480, Note_on_c, 10, 82, 99
11, 489576, Note_off_c, 10, 82, 64
11, 489576, Note_off_c, 10, 70, 64
11, 489600, Note_on_c, 10, 69, 127
11, 489600, Note_on_c, 10, 81, 127
11, 489696, Note_off_c, 10, 81, 64
11, 489696, Note_off_c, 10, 69, 64
11, 489720, Note_on_c, 10, 69, 99
11, 489720, Note_on_c, 10, 81, 99
11, 489816, Note_off_c, 10, 81, 64
11, 489816, Note_off_c, 10, 69, 64
11, 489840, Note_on_c, 10, 69, 99
11, 489840, Note_on_c, 10, 81, 99
11, 489936, Note_off_c, 10, 81, 64
11, 489936, Note_off_c, 10, 69, 64
11, 489960, Note_on_c, 10, 69, 99
11, 489960, Note_on_c, 10, 81, 99
11, 490056, Note_off_c, 10, 81, 64
11, 490056, Note_off_c, 10, 69, 64
11, 490080, Note_on_c, 10, 69, 99
11, 490080, Note_on_c, 10, 81, 99
11, 490176, Note_off_c, 10, 81, 64
11, 490176, Note_off_c, 10, 69, 64
11, 490200, Note_on_c, 10, 69, 99
11, 490200, Note_on_c, 10, 81, 99
11, 490296, Note_off_c, 10, 81, 64
11, 490296, Note_off_c, 10, 69, 64
11, 490320, Note_on_c, 10, 81, 99
11, 490320, Note_on_c, 10, 69, 99
11, 490416, Note_off_c, 10, 69, 64
11, 490416, Note_off_c, 10, 81, 64
11, 490440, Note_on_c, 10, 81, 99
11, 490440, Note_on_c, 10, 69, 99
11, 490536, Note_off_c, 10, 69, 64
11, 490536, Note_off_c, 10, 81, 64
11, 490560, Note_on_c, 10, 70, 99
11, 490560, Note_on_c, 10, 82, 99
11, 490656, Note_off_c, 10, 82, 64
11, 490656, Note_off_c, 10, 70, 64
11, 490680, Note_on_c, 10, 82, 99
11, 490680, Note_on_c, 10, 70, 99
11, 490776, Note_off_c, 10, 70, 64
11, 490776, Note_off_c, 10, 82, 64
11, 490800, Note_on_c, 10, 82, 99
11, 490800, Note_on_c, 10, 70, 99
11, 490896, Note_off_c, 10, 70, 64
11, 490896, Note_off_c, 10, 82, 64
11, 490920, Note_on_c, 10, 70, 99
11, 490920, Note_on_c, 10, 82, 99
11, 491016, Note_off_c, 10, 82, 64
11, 491016, Note_off_c, 10, 70, 64
11, 491040, Note_on_c, 10, 70, 99
11, 491040, Note_on_c, 10, 82, 99
11, 491136, Note_off_c, 10, 82, 64
11, 491136, Note_off_c, 10, 70, 64
11, 491160, Note_on_c, 10, 82, 99
11, 491160, Note_on_c, 10, 70, 99
11, 491256, Note_off_c, 10, 70, 64
11, 491256, Note_off_c, 10, 82, 64
11, 491280, Note_on_c, 10, 82, 99
11, 491280, Note_on_c, 10, 70, 99
11, 491376, Note_off_c, 10, 70, 64
11, 491376, Note_off_c, 10, 82, 64
11, 491400, Note_on_c, 10, 70, 99
11, 491400, Note_on_c, 10, 82, 99
11, 491496, Note_off_c, 10, 82, 64
11, 491496, Note_off_c, 10, 70, 64
11, 491520, Note_on_c, 10, 81, 127
11, 491520, Note_on_c, 10, 69, 127
11, 491616, Note_off_c, 10, 69, 64
11, 491616, Note_off_c, 10, 81, 64
11, 491640, Note_on_c, 10, 69, 99
11, 491640, Note_on_c, 10, 81, 99
11, 491736, Note_off_c, 10, 81, 64
11, 491736, Note_off_c, 10, 69, 64
11, 491760, Note_on_c, 10, 81, 99
11, 491760, Note_on_c, 10, 69, 99
11, 491856, Note_off_c, 10, 69, 64
11, 491856, Note_off_c, 10, 81, 64
11, 491880, Note_on_c, 10, 69, 99
11, 491880, Note_on_c, 10, 81, 99
11, 491976, Note_off_c, 10, 81, 64
11, 491976, Note_off_c, 10, 69, 64
11, 492000, Note_on_c, 10, 69, 99
11, 492000, Note_on_c, 10, 81, 99
11, 492096, Note_off_c, 10, 81, 64
11, 492096, Note_off_c, 10, 69, 64
11, 492120, Note_on_c, 10, 69, 99
11, 492120, Note_on_c, 10, 81, 99
11, 492216, Note_off_c, 10, 81, 64
11, 492216, Note_off_c, 10, 69, 64
11, 492240, Note_on_c, 10, 69, 99
11, 492240, Note_on_c, 10, 81, 99
11, 492336, Note_off_c, 10, 81, 64
11, 492336, Note_off_c, 10, 69, 64
11, 492360, Note_on_c, 10, 69, 99
11, 492360, Note_on_c, 10, 81, 99
11, 492456, Note_off_c, 10, 81, 64
11, 492456, Note_off_c, 10, 69, 64
11, 492480, Note_on_c, 10, 70, 99
11, 492480, Note_on_c, 10, 82, 99
11, 492576, Note_off_c, 10, 82, 64
11, 492576, Note_off_c, 10, 70, 64
11, 492600, Note_on_c, 10, 82, 99
11, 492600, Note_on_c, 10, 70, 99
11, 492696, Note_off_c, 10, 70, 64
11, 492696, Note_off_c, 10, 82, 64
11, 492720, Note_on_c, 10, 70, 99
11, 492720, Note_on_c, 10, 82, 99
11, 492816, Note_off_c, 10, 82, 64
11, 492816, Note_off_c, 10, 70, 64
11, 492840, Note_on_c, 10, 82, 99
11, 492840, Note_on_c, 10, 70, 99
11, 492936, Note_off_c, 10, 70, 64
11, 492936, Note_off_c, 10, 82, 64
11, 492960, Note_on_c, 10, 82, 99
11, 492960, Note_on_c, 10, 70, 99
11, 493056, Note_off_c, 10, 70, 64
11, 493056, Note_off_c, 10, 82, 64
11, 493080, Note_on_c, 10, 70, 99
11, 493080, Note_on_c, 10, 82, 99
11, 493176, Note_off_c, 10, 82, 64
11, 493176, Note_off_c, 10, 70, 64
11, 493200, Note_on_c, 10, 70, 99
11, 493200, Note_on_c, 10, 82, 99
11, 493296, Note_off_c, 10, 82, 64
11, 493296, Note_off_c, 10, 70, 64
11, 493320, Note_on_c, 10, 82, 99
11, 493320, Note_on_c, 10, 70, 99
11, 493416, Note_off_c, 10, 70, 64
11, 493416, Note_off_c, 10, 82, 64
11, 493440, Note_on_c, 10, 70, 127
11, 493440, Note_on_c, 10, 82, 127
11, 493536, Note_off_c, 10, 82, 64
11, 493536, Note_off_c, 10, 70, 64
11, 493560, Note_on_c, 10, 82, 127
11, 493560, Note_on_c, 10, 70, 127
11, 493656, Note_off_c, 10, 70, 64
11, 493656, Note_off_c, 10, 82, 64
11, 493680, Note_on_c, 10, 70, 127
11, 493680, Note_on_c, 10, 82, 127
11, 493776, Note_off_c, 10, 82, 64
11, 493776, Note_off_c, 10, 70, 64
11, 493800, Note_on_c, 10, 82, 127
11, 493800, Note_on_c, 10, 70, 127
11, 493896, Note_off_c, 10, 70, 64
11, 493896, Note_off_c, 10, 82, 64
11, 493920, Note_on_c, 10, 82, 127
11, 493920, Note_on_c, 10, 70, 127
11, 494016, Note_off_c, 10, 70, 64
11, 494016, Note_off_c, 10, 82, 64
11, 494040, Note_on_c, 10, 70, 127
11, 494040, Note_on_c, 10, 82, 127
11, 494136, Note_off_c, 10, 82, 64
11, 494136, Note_off_c, 10, 70, 64
11, 494160, Note_on_c, 10, 70, 127
11, 494160, Note_on_c, 10, 82, 127
11, 494256, Note_off_c, 10, 82, 64
11, 494256, Note_off_c, 10, 70, 64
11, 494280, Note_on_c, 10, 82, 127
11, 494280, Note_on_c, 10, 70, 127
11, 494376, Note_off_c, 10, 70, 64
11, 494376, Note_off_c, 10, 82, 64
11, 494400, Note_on_c, 10, 70, 127
11, 494400, Note_on_c, 10, 82, 127
11, 494496, Note_off_c, 10, 82, 64
11, 494496, Note_off_c, 10, 70, 64
11, 494520, Note_on_c, 10, 82, 127
11, 494520, Note_on_c, 10, 70, 127
11, 494616, Note_off_c, 10, 70, 64
11, 494616, Note_off_c, 10, 82, 64
11, 494640, Note_on_c, 10, 70, 127
11, 494640, Note_on_c, 10, 82, 127
11, 494736, Note_off_c, 10, 82, 64
11, 494736, Note_off_c, 10, 70, 64
11, 494760, Note_on_c, 10, 82, 127
11, 494760, Note_on_c, 10, 70, 127
11, 494856, Note_off_c, 10, 70, 64
11, 494856, Note_off_c, 10, 82, 64
11, 494880, Note_on_c, 10, 82, 127
11, 494880, Note_on_c, 10, 70, 127
11, 494976, Note_off_c, 10, 70, 64
11, 494976, Note_off_c, 10, 82, 64
11, 495000, Note_on_c, 10, 70, 127
11, 495000, Note_on_c, 10, 82, 127
11, 495096, Note_off_c, 10, 82, 64
11, 495096, Note_off_c, 10, 70, 64
11, 495120, Note_on_c, 10, 70, 127
11, 495120, Note_on_c, 10, 82, 127
11, 495216, Note_off_c, 10, 82, 64
11, 495216, Note_off_c, 10, 70, 64
11, 495240, Note_on_c, 10, 82, 127
11, 495240, Note_on_c, 10, 70, 127
11, 495336, Note_off_c, 10, 70, 64
11, 495336, Note_off_c, 10, 82, 64
11, 495360, Note_on_c, 10, 81, 127
11, 495360, Note_on_c, 10, 69, 127
11, 495456, Note_off_c, 10, 69, 64
11, 495456, Note_off_c, 10, 81, 64
11, 495480, Note_on_c, 10, 69, 99
11, 495480, Note_on_c, 10, 81, 99
11, 495576, Note_off_c, 10, 81, 64
11, 495576, Note_off_c, 10, 69, 64
11, 495600, Note_on_c, 10, 81, 99
11, 495600, Note_on_c, 10, 69, 99
11, 495696, Note_off_c, 10, 69, 64
11, 495696, Note_off_c, 10, 81, 64
11, 495720, Note_on_c, 10, 69, 99
11, 495720, Note_on_c, 10, 81, 99
11, 495816, Note_off_c, 10, 81, 64
11, 495816, Note_off_c, 10, 69, 64
11, 495840, Note_on_c, 10, 69, 99
11, 495840, Note_on_c, 10, 81, 99
11, 495936, Note_off_c, 10, 81, 64
11, 495936, Note_off_c, 10, 69, 64
11, 495960, Note_on_c, 10, 69, 99
11, 495960, Note_on_c, 10, 81, 99
11, 496056, Note_off_c, 10, 81, 64
11, 496056, Note_off_c, 10, 69, 64
11, 496080, Note_on_c, 10, 69, 99
11, 496080, Note_on_c, 10, 81, 99
11, 496176, Note_off_c, 10, 81, 64
11, 496176, Note_off_c, 10, 69, 64
11, 496200, Note_on_c, 10, 69, 99
11, 496200, Note_on_c, 10, 81, 99
11, 496296, Note_off_c, 10, 81, 64
11, 496296, Note_off_c, 10, 69, 64
11, 496320, Note_on_c, 10, 70, 99
11, 496320, Note_on_c, 10, 82, 99
11, 496416, Note_off_c, 10, 82, 64
11, 496416, Note_off_c, 10, 70, 64
11, 496440, Note_on_c, 10, 82, 99
11, 496440, Note_on_c, 10, 70, 99
11, 496536, Note_off_c, 10, 70, 64
11, 496536, Note_off_c, 10, 82, 64
11, 496560, Note_on_c, 10, 70, 99
11, 496560, Note_on_c, 10, 82, 99
11, 496656, Note_off_c, 10, 82, 64
11, 496656, Note_off_c, 10, 70, 64
11, 496680, Note_on_c, 10, 82, 99
11, 496680, Note_on_c, 10, 70, 99
11, 496776, Note_off_c, 10, 70, 64
11, 496776, Note_off_c, 10, 82, 64
11, 496800, Note_on_c, 10, 70, 99
11, 496800, Note_on_c, 10, 82, 99
11, 496896, Note_off_c, 10, 82, 64
11, 496896, Note_off_c, 10, 70, 64
11, 496920, Note_on_c, 10, 82, 99
11, 496920, Note_on_c, 10, 70, 99
11, 497016, Note_off_c, 10, 70, 64
11, 497016, Note_off_c, 10, 82, 64
11, 497040, Note_on_c, 10, 70, 99
11, 497040, Note_on_c, 10, 82, 99
11, 497136, Note_off_c, 10, 82, 64
11, 497136, Note_off_c, 10, 70, 64
11, 497160, Note_on_c, 10, 70, 99
11, 497160, Note_on_c, 10, 82, 99
11, 497256, Note_off_c, 10, 82, 64
11, 497256, Note_off_c, 10, 70, 64
11, 497280, Note_on_c, 10, 81, 127
11, 497280, Note_on_c, 10, 69, 127
11, 497376, Note_off_c, 10, 69, 64
11, 497376, Note_off_c, 10, 81, 64
11, 497400, Note_on_c, 10, 69, 99
11, 497400, Note_on_c, 10, 81, 99
11, 497496, Note_off_c, 10, 81, 64
11, 497496, Note_off_c, 10, 69, 64
11, 497520, Note_on_c, 10, 69, 99
11, 497520, Note_on_c, 10, 81, 99
11, 497616, Note_off_c, 10, 81, 64
11, 497616, Note_off_c, 10, 69, 64
11, 497640, Note_on_c, 10, 69, 99
11, 497640, Note_on_c, 10, 81, 99
11, 497736, Note_off_c, 10, 81, 64
11, 497736, Note_off_c, 10, 69, 64
11, 497760, Note_on_c, 10, 81, 99
11, 497760, Note_on_c, 10, 69, 99
11, 497856, Note_off_c, 10, 69, 64
11, 497856, Note_off_c, 10, 81, 64
11, 497880, Note_on_c, 10, 69, 99
11, 497880, Note_on_c, 10, 81, 99
11, 497976, Note_off_c, 10, 81, 64
11, 497976, Note_off_c, 10, 69, 64
11, 498000, Note_on_c, 10, 69, 99
11, 498000, Note_on_c, 10, 81, 99
11, 498096, Note_off_c, 10, 81, 64
11, 498096, Note_off_c, 10, 69, 64
11, 498120, Note_on_c, 10, 69, 99
11, 498120, Note_on_c, 10, 81, 99
11, 498216, Note_off_c, 10, 81, 64
11, 498216, Note_off_c, 10, 69, 64
11, 498240, Note_on_c, 10, 69, 127
11, 498240, Note_on_c, 10, 81, 127
11, 498336, Note_off_c, 10, 81, 64
11, 498336, Note_off_c, 10, 69, 64
11, 498360, Note_on_c, 10, 81, 99
11, 498360, Note_on_c, 10, 69, 99
11, 498456, Note_off_c, 10, 69, 64
11, 498456, Note_off_c, 10, 81, 64
11, 498480, Note_on_c, 10, 69, 99
11, 498480, Note_on_c, 10, 81, 99
11, 498576, Note_off_c, 10, 81, 64
11, 498576, Note_off_c, 10, 69, 64
11, 498600, Note_on_c, 10, 69, 99
11, 498600, Note_on_c, 10, 81, 99
11, 498696, Note_off_c, 10, 81, 64
11, 498696, Note_off_c, 10, 69, 64
11, 498720, Note_on_c, 10, 81, 99
11, 498720, Note_on_c, 10, 69, 99
11, 498816, Note_off_c, 10, 69, 64
11, 498816, Note_off_c, 10, 81, 64
11, 498840, Note_on_c, 10, 69, 99
11, 498840, Note_on_c, 10, 81, 99
11, 498936, Note_off_c, 10, 81, 64
11, 498936, Note_off_c, 10, 69, 64
11, 498960, Note_on_c, 10, 81, 99
11, 498960, Note_on_c, 10, 69, 99
11, 499056, Note_off_c, 10, 69, 64
11, 499056, Note_off_c, 10, 81, 64
11, 499080, Note_on_c, 10, 81, 99
11, 499080, Note_on_c, 10, 69, 99
11, 499176, Note_off_c, 10, 69, 64
11, 499176, Note_off_c, 10, 81, 64
11, 499200, Note_on_c, 10, 69, 127
11, 499200, Note_on_c, 10, 81, 127
11, 499296, Note_off_c, 10, 81, 64
11, 499296, Note_off_c, 10, 69, 64
11, 499320, Note_on_c, 10, 69, 99
11, 499320, Note_on_c, 10, 81, 99
11, 499416, Note_off_c, 10, 81, 64
11, 499416, Note_off_c, 10, 69, 64
11, 499440, Note_on_c, 10, 81, 99
11, 499440, Note_on_c, 10, 69, 99
11, 499536, Note_off_c, 10, 69, 64
11, 499536, Note_off_c, 10, 81, 64
11, 499560, Note_on_c, 10, 81, 99
11, 499560, Note_on_c, 10, 69, 99
11, 499656, Note_off_c, 10, 69, 64
11, 499656, Note_off_c, 10, 81, 64
11, 499680, Note_on_c, 10, 69, 99
11, 499680, Note_on_c, 10, 81, 99
11, 499776, Note_off_c, 10, 81, 64
11, 499776, Note_off_c, 10, 69, 64
11, 499800, Note_on_c, 10, 81, 99
11, 499800, Note_on_c, 10, 69, 99
11, 499896, Note_off_c, 10, 69, 64
11, 499896, Note_off_c, 10, 81, 64
11, 499920, Note_on_c, 10, 69, 99
11, 499920, Note_on_c, 10, 81, 99
11, 500016, Note_off_c, 10, 81, 64
11, 500016, Note_off_c, 10, 69, 64
11, 500040, Note_on_c, 10, 69, 99
11, 500040, Note_on_c, 10, 81, 99
11, 500136, Note_off_c, 10, 81, 64
11, 500136, Note_off_c, 10, 69, 64
11, 500160, Note_on_c, 10, 71, 127
11, 500160, Note_on_c, 10, 80, 127
11, 500256, Note_off_c, 10, 80, 64
11, 500256, Note_off_c, 10, 71, 64
11, 500280, Note_on_c, 10, 71, 99
11, 500280, Note_on_c, 10, 80, 99
11, 500376, Note_off_c, 10, 80, 64
11, 500376, Note_off_c, 10, 71, 64
11, 500400, Note_on_c, 10, 80, 99
11, 500400, Note_on_c, 10, 71, 99
11, 500496, Note_off_c, 10, 71, 64
11, 500496, Note_off_c, 10, 80, 64
11, 500520, Note_on_c, 10, 80, 99
11, 500520, Note_on_c, 10, 71, 99
11, 500616, Note_off_c, 10, 71, 64
11, 500616, Note_off_c, 10, 80, 64
11, 500640, Note_on_c, 10, 71, 99
11, 500640, Note_on_c, 10, 80, 99
11, 500736, Note_off_c, 10, 80, 64
11, 500736, Note_off_c, 10, 71, 64
11, 500760, Note_on_c, 10, 80, 99
11, 500760, Note_on_c, 10, 71, 99
11, 500856, Note_off_c, 10, 71, 64
11, 500856, Note_off_c, 10, 80, 64
11, 500880, Note_on_c, 10, 71, 99
11, 500880, Note_on_c, 10, 80, 99
11, 500976, Note_off_c, 10, 80, 64
11, 500976, Note_off_c, 10, 71, 64
11, 501000, Note_on_c, 10, 71, 99
11, 501000, Note_on_c, 10, 80, 99
11, 501096, Note_off_c, 10, 80, 64
11, 501096, Note_off_c, 10, 71, 64
11, 501120, Note_on_c, 10, 73, 127
11, 501120, Note_on_c, 10, 81, 127
11, 501216, Note_off_c, 10, 81, 64
11, 501216, Note_off_c, 10, 73, 64
11, 501240, Note_on_c, 10, 73, 127
11, 501336, Note_off_c, 10, 73, 64
11, 501360, Note_on_c, 10, 74, 127
11, 501456, Note_off_c, 10, 74, 64
11, 501480, Note_on_c, 10, 76, 127
11, 501576, Note_off_c, 10, 76, 64
11, 501600, Note_on_c, 10, 79, 127
11, 501696, Note_off_c, 10, 79, 64
11, 501720, Note_on_c, 10, 77, 127
11, 501816, Note_off_c, 10, 77, 64
11, 501840, Control_c, 10, 7, 110
11, 501840, Note_on_c, 10, 76, 127
11, 501936, Note_off_c, 10, 76, 64
11, 501960, Note_on_c, 10, 74, 127
11, 502056, Note_off_c, 10, 74, 64
11, 502080, Note_on_c, 10, 79, 127
11, 502176, Note_off_c, 10, 79, 64
11, 502200, Note_on_c, 10, 77, 127
11, 502296, Note_off_c, 10, 77, 64
11, 502320, Note_on_c, 10, 76, 127
11, 502416, Note_off_c, 10, 76, 64
11, 502440, Note_on_c, 10, 74, 127
11, 502536, Note_off_c, 10, 74, 64
11, 502560, Note_on_c, 10, 79, 127
11, 502656, Note_off_c, 10, 79, 64
11, 502680, Note_on_c, 10, 77, 127
11, 502776, Note_off_c, 10, 77, 64
11, 502800, Note_on_c, 10, 76, 127
11, 502896, Note_off_c, 10, 76, 64
11, 502920, Note_on_c, 10, 74, 127
11, 503016, Note_off_c, 10, 74, 64
11, 503040, Note_on_c, 10, 73, 127
11, 503040, Note_on_c, 10, 81, 127
11, 503136, Note_off_c, 10, 81, 64
11, 503136, Note_off_c, 10, 73, 64
11, 503160, Note_on_c, 10, 73, 127
11, 503256, Note_off_c, 10, 73, 64
11, 503280, Note_on_c, 10, 74, 127
11, 503376, Note_off_c, 10, 74, 64
11, 503400, Note_on_c, 10, 76, 127
11, 503496, Note_off_c, 10, 76, 64
11, 503520, Note_on_c, 10, 79, 127
11, 503616, Note_off_c, 10, 79, 64
11, 503640, Note_on_c, 10, 77, 127
11, 503736, Note_off_c, 10, 77, 64
11, 503760, Note_on_c, 10, 76, 127
11, 503856, Note_off_c, 10, 76, 64
11, 503880, Note_on_c, 10, 74, 127
11, 503976, Note_off_c, 10, 74, 64
11, 504000, Note_on_c, 10, 79, 127
11, 504096, Note_off_c, 10, 79, 64
11, 504120, Note_on_c, 10, 77, 127
11, 504216, Note_off_c, 10, 77, 64
11, 504240, Note_on_c, 10, 76, 127
11, 504336, Note_off_c, 10, 76, 64
11, 504360, Note_on_c, 10, 74, 127
11, 504456, Note_off_c, 10, 74, 64
11, 504480, Note_on_c, 10, 79, 127
11, 504576, Note_off_c, 10, 79, 64
11, 504600, Note_on_c, 10, 77, 127
11, 504696, Note_off_c, 10, 77, 64
11, 504720, Note_on_c, 10, 76, 127
11, 504816, Note_off_c, 10, 76, 64
11, 504840, Note_on_c, 10, 74, 127
11, 504936, Note_off_c, 10, 74, 64
11, 504960, Note_on_c, 10, 81, 127
11, 504960, Note_on_c, 10, 73, 127
11, 505056, Note_off_c, 10, 73, 64
11, 505056, Note_off_c, 10, 81, 64
11, 505080, Note_on_c, 10, 73, 127
11, 505176, Note_off_c, 10, 73, 64
11, 505200, Note_on_c, 10, 74, 127
11, 505296, Note_off_c, 10, 74, 64
11, 505320, Note_on_c, 10, 76, 127
11, 505416, Note_off_c, 10, 76, 64
11, 505440, Note_on_c, 10, 79, 127
11, 505536, Note_off_c, 10, 79, 64
11, 505560, Note_on_c, 10, 77, 127
11, 505656, Note_off_c, 10, 77, 64
11, 505680, Note_on_c, 10, 76, 127
11, 505776, Note_off_c, 10, 76, 64
11, 505800, Note_on_c, 10, 74, 127
11, 505896, Note_off_c, 10, 74, 64
11, 505920, Note_on_c, 10, 73, 127
11, 505920, Note_on_c, 10, 81, 127
11, 506016, Note_off_c, 10, 81, 64
11, 506016, Note_off_c, 10, 73, 64
11, 506040, Note_on_c, 10, 73, 127
11, 506136, Note_off_c, 10, 73, 64
11, 506160, Note_on_c, 10, 74, 127
11, 506256, Note_off_c, 10, 74, 64
11, 506280, Note_on_c, 10, 76, 127
11, 506376, Note_off_c, 10, 76, 64
11, 506400, Note_on_c, 10, 79, 127
11, 506496, Note_off_c, 10, 79, 64
11, 506520, Note_on_c, 10, 77, 127
11, 506616, Note_off_c, 10, 77, 64
11, 506640, Note_on_c, 10, 76, 127
11, 506736, Note_off_c, 10, 76, 64
11, 506760, Note_on_c, 10, 74, 127
11, 506856, Note_off_c, 10, 74, 64
11, 506880, Note_on_c, 10, 81, 127
11, 506880, Note_on_c, 10, 73, 127
11, 506976, Note_off_c, 10, 73, 64
11, 506976, Note_off_c, 10, 81, 64
11, 507000, Note_on_c, 10, 73, 127
11, 507096, Note_off_c, 10, 73, 64
11, 507120, Note_on_c, 10, 74, 127
11, 507216, Note_off_c, 10, 74, 64
11, 507240, Note_on_c, 10, 76, 127
11, 507336, Note_off_c, 10, 76, 64
11, 507360, Note_on_c, 10, 79, 127
11, 507456, Note_off_c, 10, 79, 64
11, 507480, Note_on_c, 10, 77, 127
11, 507576, Note_off_c, 10, 77, 64
11, 507600, Note_on_c, 10, 76, 127
11, 507696, Note_off_c, 10, 76, 64
11, 507720, Note_on_c, 10, 74, 127
11, 507816, Note_off_c, 10, 74, 64
11, 507840, Note_on_c, 10, 73, 127
11, 507840, Note_on_c, 10, 81, 127
11, 507936, Note_off_c, 10, 81, 64
11, 507936, Note_off_c, 10, 73, 64
11, 507960, Note_on_c, 10, 76, 127
11, 507960, Note_on_c, 10, 73, 127
11, 508056, Note_off_c, 10, 73, 64
11, 508056, Note_off_c, 10, 76, 64
11, 508080, Note_on_c, 10, 73, 127
11, 508080, Note_on_c, 10, 76, 127
11, 508176, Note_off_c, 10, 76, 64
11, 508176, Note_off_c, 10, 73, 64
11, 508200, Note_on_c, 10, 76, 127
11, 508200, Note_on_c, 10, 73, 127
11, 508296, Note_off_c, 10, 73, 64
11, 508296, Note_off_c, 10, 76, 64
11, 508320, Note_on_c, 10, 73, 127
11, 508320, Note_on_c, 10, 76, 127
11, 508416, Note_off_c, 10, 76, 64
11, 508416, Note_off_c, 10, 73, 64
11, 508440, Note_on_c, 10, 73, 127
11, 508440, Note_on_c, 10, 76, 127
11, 508536, Note_off_c, 10, 76, 64
11, 508536, Note_off_c, 10, 73, 64
11, 508560, Note_on_c, 10, 76, 127
11, 508560, Note_on_c, 10, 73, 127
11, 508656, Note_off_c, 10, 73, 64
11, 508656, Note_off_c, 10, 76, 64
11, 508680, Note_on_c, 10, 76, 127
11, 508680, Note_on_c, 10, 73, 127
11, 508776, Note_off_c, 10, 73, 64
11, 508776, Note_off_c, 10, 76, 64
11, 508800, Note_on_c, 10, 64, 127
11, 508800, Note_on_c, 10, 76, 127
11, 508944, Note_off_c, 10, 76, 64
11, 508944, Note_off_c, 10, 64, 64
11, 511080, Note_on_c, 10, 69, 127
11, 511080, Note_on_c, 10, 79, 127
11, 511224, Note_off_c, 10, 79, 64
11, 511224, Note_off_c, 10, 69, 64
11, 513360, Note_on_c, 10, 79, 127
11, 513360, Note_on_c, 10, 69, 127
11, 513504, Note_off_c, 10, 69, 64
11, 513504, Note_off_c, 10, 79, 64
11, 514440, Note_on_c, 10, 79, 127
11, 514440, Note_on_c, 10, 69, 127
11, 514584, Note_off_c, 10, 69, 64
11, 514584, Note_off_c, 10, 79, 64
11, 515520, Note_on_c, 10, 79, 127
11, 515520, Note_on_c, 10, 69, 127
11, 515664, Note_off_c, 10, 69, 64
11, 515664, Note_off_c, 10, 79, 64
11, 516600, Note_on_c, 10, 79, 127
11, 516600, Note_on_c, 10, 69, 127
11, 516744, Note_off_c, 10, 69, 64
11, 516744, Note_off_c, 10, 79, 64
11, 517680, Note_on_c, 10, 78, 127
11, 517680, Note_on_c, 10, 66, 127
11, 517800, Note_off_c, 10, 66, 64
11, 517800, Note_off_c, 10, 78, 64
11, 519000, Note_on_c, 10, 66, 100
11, 519120, Note_off_c, 10, 66, 64
11, 519120, Note_on_c, 10, 68, 97
11, 519240, Note_off_c, 10, 68, 64
11, 519240, Note_on_c, 10, 71, 95
11, 519360, Note_off_c, 10, 71, 64
11, 519360, Note_on_c, 10, 70, 92
11, 519480, Note_off_c, 10, 70, 64
11, 519480, Note_on_c, 10, 68, 89
11, 519600, Note_off_c, 10, 68, 64
11, 519600, Note_on_c, 10, 70, 87
11, 519720, Note_off_c, 10, 70, 64
11, 519720, Note_on_c, 10, 71, 80
11, 520200, Note_off_c, 10, 71, 64
11, 520200, Note_on_c, 10, 64, 80
11, 520680, Note_off_c, 10, 64, 64
11, 520680, Note_on_c, 10, 62, 80
11, 521160, Note_off_c, 10, 62, 64
11, 521160, Note_on_c, 10, 66, 80
11, 521640, Note_off_c, 10, 66, 64
11, 521640, Note_on_c, 10, 66, 80
11, 521880, Note_off_c, 10, 66, 64
11, 522840, Note_on_c, 10, 66, 100
11, 522960, Note_off_c, 10, 66, 64
11, 522960, Note_on_c, 10, 68, 97
11, 523080, Note_off_c, 10, 68, 64
11, 523080, Note_on_c, 10, 71, 95
11, 523200, Note_off_c, 10, 71, 64
11, 523200, Note_on_c, 10, 70, 92
11, 523320, Note_off_c, 10, 70, 64
11, 523320, Note_on_c, 10, 68, 89
11, 523440, Note_off_c, 10, 68, 64
11, 523440, Note_on_c, 10, 70, 87
11, 523560, Note_off_c, 10, 70, 64
11, 523560, Note_on_c, 10, 71, 80
11, 524040, Note_off_c, 10, 71, 64
11, 524040, Note_on_c, 10, 64, 80
11, 524520, Note_off_c, 10, 64, 64
11, 524520, Note_on_c, 10, 62, 80
11, 525000, Note_off_c, 10, 62, 64
11, 525000, Note_on_c, 10, 66, 80
11, 525480, Note_off_c, 10, 66, 64
11, 525480, Note_on_c, 10, 66, 80
11, 525720, Note_off_c, 10, 66, 64
11, 527640, Note_on_c, 10, 71, 80
11, 527760, Note_off_c, 10, 71, 64
11, 527760, Note_on_c, 10, 73, 80
11, 527880, Note_off_c, 10, 73, 64
11, 527880, Note_on_c, 10, 76, 80
11, 528000, Note_off_c, 10, 76, 64
11, 528000, Note_on_c, 10, 74, 80
11, 528120, Note_off_c, 10, 74, 64
11, 528120, Note_on_c, 10, 73, 80
11, 528240, Note_off_c, 10, 73, 64
11, 528240, Note_on_c, 10, 71, 80
11, 528360, Note_off_c, 10, 71, 64
11, 528360, Note_on_c, 10, 76, 80
11, 528840, Note_off_c, 10, 76, 64
11, 528840, Note_on_c, 10, 74, 80
11, 529320, Note_off_c, 10, 74, 64
11, 529320, Note_on_c, 10, 73, 80
11, 529440, Note_off_c, 10, 73, 64
11, 531480, Note_on_c, 10, 71, 80
11, 531600, Note_off_c, 10, 71, 64
11, 531600, Note_on_c, 10, 73, 80
11, 531720, Note_off_c, 10, 73, 64
11, 531720, Note_on_c, 10, 76, 80
11, 531840, Note_off_c, 10, 76, 64
11, 531840, Note_on_c, 10, 74, 80
11, 531960, Note_off_c, 10, 74, 64
11, 531960, Note_on_c, 10, 73, 80
11, 532080, Note_off_c, 10, 73, 64
11, 532080, Note_on_c, 10, 71, 80
11, 532200, Note_off_c, 10, 71, 64
11, 532200, Note_on_c, 10, 76, 67
11, 532680, Note_off_c, 10, 76, 64
11, 532680, Note_on_c, 10, 73, 54
11, 533160, Note_off_c, 10, 73, 64
11, 533160, Note_on_c, 10, 74, 54
11, 533640, Note_off_c, 10, 74, 64
11, 533640, Note_on_c, 10, 76, 54
11, 534120, Note_off_c, 10, 76, 64
11, 534120, Note_on_c, 10, 78, 54
11, 534240, Note_off_c, 10, 78, 64
11, 534360, Note_on_c, 10, 66, 69
11, 534480, Note_off_c, 10, 66, 64
11, 534480, Note_on_c, 10, 67, 69
11, 534600, Note_off_c, 10, 67, 64
11, 534600, Note_on_c, 10, 69, 69
11, 534720, Note_off_c, 10, 69, 64
11, 534720, Note_on_c, 10, 67, 69
11, 534840, Note_off_c, 10, 67, 64
11, 534840, Note_on_c, 10, 66, 69
11, 534960, Note_off_c, 10, 66, 64
11, 534960, Note_on_c, 10, 64, 69
11, 535080, Note_off_c, 10, 64, 64
11, 535080, Note_on_c, 10, 62, 60
11, 535320, Note_off_c, 10, 62, 64
11, 536280, Note_on_c, 10, 62, 79
11, 536400, Note_off_c, 10, 62, 64
11, 536400, Note_on_c, 10, 64, 79
11, 536520, Note_off_c, 10, 64, 64
11, 536520, Note_on_c, 10, 66, 79
11, 536640, Note_off_c, 10, 66, 64
11, 536640, Note_on_c, 10, 64, 79
11, 536760, Note_off_c, 10, 64, 64
11, 536760, Note_on_c, 10, 62, 79
11, 536880, Note_off_c, 10, 62, 64
11, 536880, Note_on_c, 10, 61, 79
11, 537000, Note_off_c, 10, 61, 64
11, 537000, Note_on_c, 10, 59, 69
11, 537240, Note_off_c, 10, 59, 64
11, 538200, Note_on_c, 10, 62, 79
11, 538320, Note_off_c, 10, 62, 64
11, 538320, Note_on_c, 10, 64, 79
11, 538440, Note_off_c, 10, 64, 64
11, 538440, Note_on_c, 10, 66, 79
11, 538560, Note_off_c, 10, 66, 64
11, 538560, Note_on_c, 10, 64, 79
11, 538680, Note_off_c, 10, 64, 64
11, 538680, Note_on_c, 10, 62, 79
11, 538800, Note_off_c, 10, 62, 64
11, 538800, Note_on_c, 10, 61, 79
11, 538920, Note_off_c, 10, 61, 64
11, 538920, Note_on_c, 10, 59, 69
11, 539160, Note_off_c, 10, 59, 64
11, 540120, Note_on_c, 10, 62, 79
11, 540240, Note_off_c, 10, 62, 64
11, 540240, Note_on_c, 10, 64, 79
11, 540360, Note_off_c, 10, 64, 64
11, 540360, Note_on_c, 10, 65, 79
11, 540480, Note_off_c, 10, 65, 64
11, 540480, Note_on_c, 10, 64, 79
11, 540600, Note_off_c, 10, 64, 64
11, 540600, Note_on_c, 10, 62, 79
11, 540720, Note_off_c, 10, 62, 64
11, 540720, Note_on_c, 10, 60, 79
11, 540840, Note_off_c, 10, 60, 64
11, 540840, Note_on_c, 10, 59, 69
11, 541080, Note_off_c, 10, 59, 64
11, 542040, Note_on_c, 10, 60, 79
11, 542160, Note_off_c, 10, 60, 64
11, 542160, Note_on_c, 10, 62, 79
11, 542280, Note_off_c, 10, 62, 64
11, 542280, Note_on_c, 10, 65, 79
11, 542400, Note_off_c, 10, 65, 64
11, 542400, Note_on_c, 10, 63, 79
11, 542520, Note_off_c, 10, 63, 64
11, 542520, Note_on_c, 10, 62, 79
11, 542640, Note_off_c, 10, 62, 64
11, 542640, Note_on_c, 10, 60, 79
11, 542760, Note_off_c, 10, 60, 64
11, 542760, Note_on_c, 10, 67, 69
11, 543000, Note_off_c, 10, 67, 64
11, 544920, Note_on_c, 10, 60, 79
11, 545040, Note_off_c, 10, 60, 64
11, 545040, Note_on_c, 10, 62, 79
11, 545160, Note_off_c, 10, 62, 64
11, 545160, Note_on_c, 10, 63, 79
11, 545280, Note_off_c, 10, 63, 64
11, 545280, Note_on_c, 10, 62, 79
11, 545400, Note_off_c, 10, 62, 64
11, 545400, Note_on_c, 10, 60, 79
11, 545520, Note_off_c, 10, 60, 64
11, 545520, Note_on_c, 10, 58, 79
11, 545640, Note_off_c, 10, 58, 64
11, 545640, Note_on_c, 10, 57, 69
11, 545760, Note_off_c, 10, 57, 64
11, 547800, Note_on_c, 10, 58, 79
11, 547920, Note_off_c, 10, 58, 64
11, 547920, Note_on_c, 10, 60, 79
11, 548040, Note_off_c, 10, 60, 64
11, 548040, Note_on_c, 10, 63, 79
11, 548160, Note_off_c, 10, 63, 64
11, 548160, Note_on_c, 10, 61, 79
11, 548280, Note_off_c, 10, 61, 64
11, 548280, Note_on_c, 10, 60, 79
11, 548400, Note_off_c, 10, 60, 64
11, 548400, Note_on_c, 10, 58, 79
11, 548520, Note_off_c, 10, 58, 64
11, 548520, Note_on_c, 10, 65, 69
11, 548640, Note_off_c, 10, 65, 64
11, 550680, Note_on_c, 10, 57, 79
11, 550800, Note_off_c, 10, 57, 64
11, 550800, Note_on_c, 10, 58, 79
11, 550920, Note_off_c, 10, 58, 64
11, 550920, Note_on_c, 10, 62, 79
11, 551040, Note_off_c, 10, 62, 64
11, 551040, Note_on_c, 10, 60, 79
11, 551160, Note_off_c, 10, 60, 64
11, 551160, Note_on_c, 10, 58, 79
11, 551280, Note_off_c, 10, 58, 64
11, 551280, Note_on_c, 10, 57, 79
11, 551340, Note_off_c, 10, 57, 64
11, 551400, Note_on_c, 10, 57, 69
11, 551520, Note_off_c, 10, 57, 64
11, 553560, Note_on_c, 10, 57, 79
11, 553680, Note_off_c, 10, 57, 64
11, 553680, Note_on_c, 10, 59, 79
11, 553800, Note_off_c, 10, 59, 64
11, 553800, Note_on_c, 10, 62, 79
11, 553920, Note_off_c, 10, 62, 64
11, 553920, Note_on_c, 10, 60, 79
11, 554040, Note_off_c, 10, 60, 64
11, 554040, Note_on_c, 10, 59, 79
11, 554160, Note_off_c, 10, 59, 64
11, 554160, Note_on_c, 10, 57, 79
11, 554280, Note_off_c, 10, 57, 64
11, 554280, Note_on_c, 10, 64, 69
11, 554400, Note_off_c, 10, 64, 64
11, 560280, Note_on_c, 10, 69, 91
11, 560400, Note_off_c, 10, 69, 64
11, 560400, Note_on_c, 10, 71, 91
11, 560520, Note_off_c, 10, 71, 64
11, 560520, Note_on_c, 10, 74, 91
11, 560640, Note_off_c, 10, 74, 64
11, 560640, Note_on_c, 10, 73, 91
11, 560760, Note_off_c, 10, 73, 64
11, 560760, Note_on_c, 10, 71, 91
11, 560880, Note_off_c, 10, 71, 64
11, 560880, Note_on_c, 10, 69, 91
11, 561000, Note_off_c, 10, 69, 64
11, 561000, Note_on_c, 10, 76, 79
11, 561120, Note_off_c, 10, 76, 64
11, 561240, Note_on_c, 10, 69, 91
11, 561360, Note_off_c, 10, 69, 64
11, 561360, Note_on_c, 10, 71, 91
11, 561480, Note_off_c, 10, 71, 64
11, 561480, Note_on_c, 10, 74, 91
11, 561600, Note_off_c, 10, 74, 64
11, 561600, Note_on_c, 10, 73, 91
11, 561720, Note_off_c, 10, 73, 64
11, 561720, Note_on_c, 10, 71, 91
11, 561840, Note_off_c, 10, 71, 64
11, 561840, Note_on_c, 10, 69, 91
11, 561960, Note_off_c, 10, 69, 64
11, 561960, Note_on_c, 10, 76, 79
11, 562080, Note_off_c, 10, 76, 64
11, 562200, Note_on_c, 10, 71, 91
11, 562320, Note_off_c, 10, 71, 64
11, 562320, Note_on_c, 10, 73, 91
11, 562440, Note_off_c, 10, 73, 64
11, 562440, Note_on_c, 10, 76, 91
11, 562560, Note_off_c, 10, 76, 64
11, 562560, Note_on_c, 10, 74, 91
11, 562680, Note_off_c, 10, 74, 64
11, 562680, Note_on_c, 10, 73, 91
11, 562800, Note_off_c, 10, 73, 64
11, 562800, Note_on_c, 10, 71, 91
11, 562920, Note_off_c, 10, 71, 64
11, 562920, Note_on_c, 10, 76, 79
11, 563040, Note_off_c, 10, 76, 64
11, 563160, Note_on_c, 10, 71, 91
11, 563280, Note_off_c, 10, 71, 64
11, 563280, Note_on_c, 10, 73, 91
11, 563400, Note_off_c, 10, 73, 64
11, 563400, Note_on_c, 10, 76, 91
11, 563520, Note_off_c, 10, 76, 64
11, 563520, Note_on_c, 10, 74, 91
11, 563640, Note_off_c, 10, 74, 64
11, 563640, Note_on_c, 10, 73, 91
11, 563760, Note_off_c, 10, 73, 64
11, 563760, Note_on_c, 10, 71, 91
11, 563880, Note_off_c, 10, 71, 64
11, 563880, Note_on_c, 10, 76, 69
11, 564000, Note_off_c, 10, 76, 64
11, 565080, Note_on_c, 10, 74, 94
11, 565200, Note_off_c, 10, 74, 64
11, 565200, Note_on_c, 10, 76, 94
11, 565320, Note_off_c, 10, 76, 64
11, 565320, Note_on_c, 10, 80, 94
11, 565440, Note_off_c, 10, 80, 64
11, 565440, Note_on_c, 10, 78, 94
11, 565560, Note_off_c, 10, 78, 64
11, 565560, Note_on_c, 10, 76, 94
11, 565680, Note_off_c, 10, 76, 64
11, 565680, Note_on_c, 10, 74, 94
11, 565800, Note_off_c, 10, 74, 64
11, 565800, Note_on_c, 10, 80, 94
11, 565920, Note_off_c, 10, 80, 64
11, 567000, Note_on_c, 10, 78, 127
11, 567120, Note_off_c, 10, 78, 64
11, 567120, Note_on_c, 10, 80, 127
11, 567240, Note_off_c, 10, 80, 64
11, 567240, Note_on_c, 10, 83, 127
11, 567360, Note_off_c, 10, 83, 64
11, 567360, Note_on_c, 10, 81, 127
11, 567480, Note_off_c, 10, 81, 64
11, 567480, Note_on_c, 10, 80, 127
11, 567600, Note_off_c, 10, 80, 64
11, 567600, Note_on_c, 10, 78, 127
11, 567720, Note_off_c, 10, 78, 64
11, 567720, Note_on_c, 10, 83, 127
11, 567840, Note_off_c, 10, 83, 64
11, 568920, Note_on_c, 10, 81, 127
11, 569040, Note_off_c, 10, 81, 64
11, 569040, Note_on_c, 10, 83, 127
11, 569160, Note_off_c, 10, 83, 64
11, 569160, Note_on_c, 10, 86, 127
11, 569280, Note_off_c, 10, 86, 64
11, 569280, Note_on_c, 10, 85, 127
11, 569400, Note_off_c, 10, 85, 64
11, 569400, Note_on_c, 10, 83, 127
11, 569520, Note_off_c, 10, 83, 64
11, 569520, Note_on_c, 10, 81, 127
11, 569640, Note_off_c, 10, 81, 64
11, 569640, Note_on_c, 10, 86, 127
11, 569760, Note_off_c, 10, 86, 64
11, 570840, Note_on_c, 10, 80, 127
11, 570960, Note_off_c, 10, 80, 64
11, 570960, Note_on_c, 10, 81, 127
11, 571080, Note_off_c, 10, 81, 64
11, 571080, Note_on_c, 10, 85, 127
11, 571200, Note_off_c, 10, 85, 64
11, 571200, Note_on_c, 10, 83, 127
11, 571320, Note_off_c, 10, 83, 64
11, 571320, Note_on_c, 10, 81, 127
11, 571440, Note_off_c, 10, 81, 64
11, 571440, Note_on_c, 10, 80, 127
11, 571560, Note_off_c, 10, 80, 64
11, 571560, Note_on_c, 10, 69, 108
11, 571560, Note_on_c, 10, 57, 127
11, 571560, Note_on_c, 10, 61, 108
11, 571680, Note_off_c, 10, 61, 64
11, 571680, Note_off_c, 10, 57, 64
11, 571680, Note_off_c, 10, 69, 64
11, 572640, Note_on_c, 10, 69, 108
11, 572640, Note_on_c, 10, 57, 127
11, 572640, Note_on_c, 10, 61, 108
11, 572760, Note_off_c, 10, 61, 64
11, 572760, Note_off_c, 10, 57, 64
11, 572760, Note_off_c, 10, 69, 64
11, 573720, Note_on_c, 10, 80, 108
11, 573720, Note_on_c, 10, 64, 127
11, 573720, Note_on_c, 10, 71, 108
11, 573840, Note_off_c, 10, 71, 64
11, 573840, Note_off_c, 10, 64, 64
11, 573840, Note_off_c, 10, 80, 64
11, 574800, Note_on_c, 10, 80, 108
11, 574800, Note_on_c, 10, 71, 108
11, 574800, Note_on_c, 10, 64, 127
11, 574920, Note_off_c, 10, 64, 64
11, 574920, Note_off_c, 10, 71, 64
11, 574920, Note_off_c, 10, 80, 64
11, 575880, Note_on_c, 10, 69, 127
11, 575880, Note_on_c, 10, 73, 108
11, 575880, Note_on_c, 10, 81, 108
11, 576000, Note_off_c, 10, 81, 64
11, 576000, Note_off_c, 10, 73, 64
11, 576000, Note_off_c, 10, 69, 64
11, 576360, Note_on_c, 10, 81, 108
11, 576360, Note_on_c, 10, 73, 108
11, 576360, Note_on_c, 10, 69, 127
11, 576480, Note_off_c, 10, 69, 64
11, 576480, Note_off_c, 10, 73, 64
11, 576480, Note_off_c, 10, 81, 64
11, 576840, Note_on_c, 10, 69, 127
11, 576840, Note_on_c, 10, 73, 108
11, 576840, Note_on_c, 10, 81, 108
11, 576960, Note_off_c, 10, 81, 64
11, 576960, Note_off_c, 10, 73, 64
11, 576960, Note_off_c, 10, 69, 64
11, 577320, Note_on_c, 10, 81, 108
11, 577320, Note_on_c, 10, 73, 108
11, 577320, Note_on_c, 10, 69, 127
11, 577440, Note_off_c, 10, 69, 64
11, 577440, Note_off_c, 10, 73, 64
11, 577440, Note_off_c, 10, 81, 64
11, 577800, Note_on_c, 10, 71, 108
11, 577800, Note_on_c, 10, 80, 108
11, 577920, Note_off_c, 10, 80, 64
11, 577920, Note_off_c, 10, 71, 64
11, 578280, Note_on_c, 10, 80, 108
11, 578280, Note_on_c, 10, 71, 108
11, 578400, Note_off_c, 10, 71, 64
11, 578400, Note_off_c, 10, 80, 64
11, 578760, Note_on_c, 10, 71, 108
11, 578760, Note_on_c, 10, 80, 108
11, 578880, Note_off_c, 10, 80, 64
11, 578880, Note_off_c, 10, 71, 64
11, 579240, Note_on_c, 10, 80, 108
11, 579240, Note_on_c, 10, 71, 108
11, 579360, Note_off_c, 10, 71, 64
11, 579360, Note_off_c, 10, 80, 64
11, 579720, Note_on_c, 10, 61, 108
11, 579720, Note_on_c, 10, 69, 108
11, 579720, Note_on_c, 10, 57, 127
11, 579840, Note_off_c, 10, 57, 64
11, 579840, Note_off_c, 10, 69, 64
11, 579840, Note_off_c, 10, 61, 64
11, 580800, Note_on_c, 10, 61, 108
11, 580800, Note_on_c, 10, 69, 108
11, 580800, Note_on_c, 10, 57, 127
11, 580920, Note_off_c, 10, 57, 64
11, 580920, Note_off_c, 10, 69, 64
11, 580920, Note_off_c, 10, 61, 64
11, 581880, Note_on_c, 10, 71, 108
11, 581880, Note_on_c, 10, 64, 127
11, 581880, Note_on_c, 10, 80, 108
11, 582000, Note_off_c, 10, 80, 64
11, 582000, Note_off_c, 10, 64, 64
11, 582000, Note_off_c, 10, 71, 64
11, 582960, Note_on_c, 10, 64, 127
11, 582960, Note_on_c, 10, 71, 108
11, 582960, Note_on_c, 10, 80, 108
11, 583080, Note_off_c, 10, 80, 64
11, 583080, Note_off_c, 10, 71, 64
11, 583080, Note_off_c, 10, 64, 64
11, 584040, Note_on_c, 10, 73, 100
11, 584136, Note_off_c, 10, 73, 64
11, 584160, Note_on_c, 10, 73, 100
11, 584256, Note_off_c, 10, 73, 64
11, 584280, Note_on_c, 10, 76, 100
11, 584376, Note_off_c, 10, 76, 64
11, 584400, Note_on_c, 10, 76, 100
11, 584496, Note_off_c, 10, 76, 64
11, 584520, Note_on_c, 10, 76, 100
11, 584616, Note_off_c, 10, 76, 64
11, 584640, Note_on_c, 10, 76, 100
11, 584736, Note_off_c, 10, 76, 64
11, 584760, Note_on_c, 10, 74, 100
11, 584856, Note_off_c, 10, 74, 64
11, 584880, Note_on_c, 10, 74, 100
11, 584976, Note_off_c, 10, 74, 64
11, 585000, Note_on_c, 10, 73, 100
11, 585096, Note_off_c, 10, 73, 64
11, 585120, Note_on_c, 10, 73, 100
11, 585216, Note_off_c, 10, 73, 64
11, 585240, Note_on_c, 10, 76, 100
11, 585336, Note_off_c, 10, 76, 64
11, 585360, Note_on_c, 10, 76, 100
11, 585456, Note_off_c, 10, 76, 64
11, 585480, Note_on_c, 10, 74, 100
11, 585576, Note_off_c, 10, 74, 64
11, 585600, Note_on_c, 10, 74, 100
11, 585696, Note_off_c, 10, 74, 64
11, 585720, Note_on_c, 10, 73, 100
11, 585816, Note_off_c, 10, 73, 64
11, 585840, Note_on_c, 10, 73, 100
11, 585936, Note_off_c, 10, 73, 64
11, 585960, Note_on_c, 10, 80, 100
11, 586056, Note_off_c, 10, 80, 64
11, 586080, Note_on_c, 10, 80, 100
11, 586176, Note_off_c, 10, 80, 64
11, 586200, Note_on_c, 10, 78, 100
11, 586296, Note_off_c, 10, 78, 64
11, 586320, Note_on_c, 10, 78, 100
11, 586416, Note_off_c, 10, 78, 64
11, 586440, Note_on_c, 10, 76, 100
11, 586536, Note_off_c, 10, 76, 64
11, 586560, Note_on_c, 10, 76, 100
11, 586656, Note_off_c, 10, 76, 64
11, 586680, Note_on_c, 10, 74, 100
11, 586776, Note_off_c, 10, 74, 64
11, 586800, Note_on_c, 10, 74, 100
11, 586896, Note_off_c, 10, 74, 64
11, 586920, Note_on_c, 10, 73, 100
11, 587016, Note_off_c, 10, 73, 64
11, 587040, Note_on_c, 10, 73, 100
11, 587136, Note_off_c, 10, 73, 64
11, 587160, Note_on_c, 10, 71, 100
11, 587256, Note_off_c, 10, 71, 64
11, 587280, Note_on_c, 10, 71, 100
11, 587376, Note_off_c, 10, 71, 64
11, 587400, Note_on_c, 10, 69, 100
11, 587496, Note_off_c, 10, 69, 64
11, 587520, Note_on_c, 10, 69, 100
11, 587616, Note_off_c, 10, 69, 64
11, 587640, Note_on_c, 10, 68, 100
11, 587736, Note_off_c, 10, 68, 64
11, 587760, Note_on_c, 10, 68, 100
11, 587856, Note_off_c, 10, 68, 64
11, 587880, Note_on_c, 10, 81, 127
11, 587976, Note_off_c, 10, 81, 64
11, 588000, Note_on_c, 10, 81, 100
11, 588096, Note_off_c, 10, 81, 64
11, 588120, Note_on_c, 10, 80, 100
11, 588216, Note_off_c, 10, 80, 64
11, 588240, Note_on_c, 10, 80, 100
11, 588336, Note_off_c, 10, 80, 64
11, 588360, Note_on_c, 10, 78, 100
11, 588456, Note_off_c, 10, 78, 64
11, 588480, Note_on_c, 10, 78, 100
11, 588576, Note_off_c, 10, 78, 64
11, 588600, Note_on_c, 10, 76, 100
11, 588696, Note_off_c, 10, 76, 64
11, 588720, Note_on_c, 10, 76, 100
11, 588816, Note_off_c, 10, 76, 64
11, 588840, Note_on_c, 10, 74, 100
11, 588936, Note_off_c, 10, 74, 64
11, 588960, Note_on_c, 10, 74, 100
11, 589056, Note_off_c, 10, 74, 64
11, 589080, Note_on_c, 10, 73, 100
11, 589176, Note_off_c, 10, 73, 64
11, 589200, Note_on_c, 10, 73, 100
11, 589296, Note_off_c, 10, 73, 64
11, 589320, Note_on_c, 10, 71, 100
11, 589416, Note_off_c, 10, 71, 64
11, 589440, Note_on_c, 10, 71, 100
11, 589536, Note_off_c, 10, 71, 64
11, 589560, Note_on_c, 10, 69, 100
11, 589656, Note_off_c, 10, 69, 64
11, 589680, Note_on_c, 10, 69, 100
11, 589776, Note_off_c, 10, 69, 64
11, 589800, Note_on_c, 10, 83, 127
11, 589896, Note_off_c, 10, 83, 64
11, 589920, Note_on_c, 10, 83, 100
11, 590016, Note_off_c, 10, 83, 64
11, 590040, Note_on_c, 10, 81, 100
11, 590136, Note_off_c, 10, 81, 64
11, 590160, Note_on_c, 10, 81, 100
11, 590256, Note_off_c, 10, 81, 64
11, 590280, Note_on_c, 10, 80, 100
11, 590376, Note_off_c, 10, 80, 64
11, 590400, Note_on_c, 10, 80, 100
11, 590496, Note_off_c, 10, 80, 64
11, 590520, Note_on_c, 10, 78, 100
11, 590616, Note_off_c, 10, 78, 64
11, 590640, Note_on_c, 10, 78, 100
11, 590736, Note_off_c, 10, 78, 64
11, 590760, Note_on_c, 10, 76, 100
11, 590856, Note_off_c, 10, 76, 64
11, 590880, Note_on_c, 10, 76, 100
11, 590976, Note_off_c, 10, 76, 64
11, 591000, Note_on_c, 10, 74, 100
11, 591096, Note_off_c, 10, 74, 64
11, 591120, Note_on_c, 10, 74, 100
11, 591216, Note_off_c, 10, 74, 64
11, 591240, Note_on_c, 10, 73, 100
11, 591336, Note_off_c, 10, 73, 64
11, 591360, Note_on_c, 10, 73, 100
11, 591456, Note_off_c, 10, 73, 64
11, 591480, Note_on_c, 10, 71, 100
11, 591576, Note_off_c, 10, 71, 64
11, 591600, Note_on_c, 10, 71, 100
11, 591696, Note_off_c, 10, 71, 64
11, 591720, Note_on_c, 10, 85, 127
11, 591816, Note_off_c, 10, 85, 64
11, 591840, Note_on_c, 10, 85, 100
11, 591936, Note_off_c, 10, 85, 64
11, 591960, Note_on_c, 10, 83, 100
11, 592056, Note_off_c, 10, 83, 64
11, 592080, Note_on_c, 10, 83, 100
11, 592176, Note_off_c, 10, 83, 64
11, 592200, Note_on_c, 10, 81, 100
11, 592296, Note_off_c, 10, 81, 64
11, 592320, Note_on_c, 10, 81, 100
11, 592416, Note_off_c, 10, 81, 64
11, 592440, Note_on_c, 10, 80, 100
11, 592536, Note_off_c, 10, 80, 64
11, 592560, Note_on_c, 10, 80, 100
11, 592656, Note_off_c, 10, 80, 64
11, 592680, Note_on_c, 10, 78, 100
11, 592776, Note_off_c, 10, 78, 64
11, 592800, Note_on_c, 10, 78, 100
11, 592896, Note_off_c, 10, 78, 64
11, 592920, Note_on_c, 10, 76, 100
11, 593016, Note_off_c, 10, 76, 64
11, 593040, Note_on_c, 10, 76, 100
11, 593136, Note_off_c, 10, 76, 64
11, 593160, Note_on_c, 10, 74, 100
11, 593256, Note_off_c, 10, 74, 64
11, 593280, Note_on_c, 10, 74, 100
11, 593376, Note_off_c, 10, 74, 64
11, 593400, Note_on_c, 10, 73, 100
11, 593496, Note_off_c, 10, 73, 64
11, 593520, Note_on_c, 10, 73, 100
11, 593616, Note_off_c, 10, 73, 64
11, 593640, Note_on_c, 10, 61, 120
11, 593736, Note_off_c, 10, 61, 64
11, 593760, Note_on_c, 10, 61, 120
11, 593856, Note_off_c, 10, 61, 64
11, 593880, Note_on_c, 10, 62, 120
11, 593976, Note_off_c, 10, 62, 64
11, 594000, Note_on_c, 10, 62, 120
11, 594096, Note_off_c, 10, 62, 64
11, 594120, Note_on_c, 10, 64, 120
11, 594216, Note_off_c, 10, 64, 64
11, 594240, Note_on_c, 10, 64, 120
11, 594336, Note_off_c, 10, 64, 64
11, 594360, Note_on_c, 10, 66, 120
11, 594456, Note_off_c, 10, 66, 64
11, 594480, Note_on_c, 10, 66, 120
11, 594576, Note_off_c, 10, 66, 64
11, 594600, Note_on_c, 10, 67, 120
11, 594696, Note_off_c, 10, 67, 64
11, 594720, Note_on_c, 10, 67, 120
11, 594816, Note_off_c, 10, 67, 64
11, 594840, Note_on_c, 10, 69, 120
11, 594936, Note_off_c, 10, 69, 64
11, 594960, Note_on_c, 10, 69, 120
11, 595056, Note_off_c, 10, 69, 64
11, 595080, Note_on_c, 10, 71, 120
11, 595176, Note_off_c, 10, 71, 64
11, 595200, Note_on_c, 10, 71, 120
11, 595296, Note_off_c, 10, 71, 64
11, 595320, Note_on_c, 10, 73, 120
11, 595416, Note_off_c, 10, 73, 64
11, 595440, Note_on_c, 10, 73, 120
11, 595536, Note_off_c, 10, 73, 64
11, 595560, Note_on_c, 10, 74, 120
11, 595656, Note_off_c, 10, 74, 64
11, 595680, Note_on_c, 10, 74, 120
11, 595776, Note_off_c, 10, 74, 64
11, 595800, Note_on_c, 10, 76, 120
11, 595896, Note_off_c, 10, 76, 64
11, 595920, Note_on_c, 10, 76, 120
11, 596016, Note_off_c, 10, 76, 64
11, 596040, Note_on_c, 10, 78, 120
11, 596136, Note_off_c, 10, 78, 64
11, 596160, Note_on_c, 10, 78, 120
11, 596256, Note_off_c, 10, 78, 64
11, 596280, Note_on_c, 10, 79, 120
11, 596376, Note_off_c, 10, 79, 64
11, 596400, Note_on_c, 10, 79, 120
11, 596496, Note_off_c, 10, 79, 64
11, 596520, Note_on_c, 10, 81, 120
11, 596616, Note_off_c, 10, 81, 64
11, 596640, Note_on_c, 10, 81, 120
11, 596736, Note_off_c, 10, 81, 64
11, 596760, Note_on_c, 10, 83, 120
11, 596856, Note_off_c, 10, 83, 64
11, 596880, Note_on_c, 10, 83, 120
11, 596976, Note_off_c, 10, 83, 64
11, 597000, Note_on_c, 10, 85, 120
11, 597096, Note_off_c, 10, 85, 64
11, 597120, Note_on_c, 10, 85, 120
11, 597216, Note_off_c, 10, 85, 64
11, 597240, Note_on_c, 10, 86, 120
11, 597336, Note_off_c, 10, 86, 64
11, 597360, Note_on_c, 10, 86, 120
11, 597456, Note_off_c, 10, 86, 64
11, 597480, Note_on_c, 10, 81, 127
11, 597576, Note_off_c, 10, 81, 64
11, 597600, Note_on_c, 10, 81, 127
11, 597696, Note_off_c, 10, 81, 64
11, 597720, Note_on_c, 10, 69, 127
11, 597816, Note_off_c, 10, 69, 64
11, 597840, Note_on_c, 10, 69, 127
11, 597936, Note_off_c, 10, 69, 64
11, 597960, Note_on_c, 10, 81, 127
11, 598056, Note_off_c, 10, 81, 64
11, 598080, Note_on_c, 10, 81, 127
11, 598176, Note_off_c, 10, 81, 64
11, 598200, Note_on_c, 10, 81, 127
11, 598296, Note_off_c, 10, 81, 64
11, 598320, Note_on_c, 10, 81, 127
11, 598416, Note_off_c, 10, 81, 64
11, 598440, Note_on_c, 10, 81, 127
11, 598536, Note_off_c, 10, 81, 64
11, 598560, Note_on_c, 10, 81, 127
11, 598656, Note_off_c, 10, 81, 64
11, 598680, Note_on_c, 10, 69, 127
11, 598776, Note_off_c, 10, 69, 64
11, 598800, Note_on_c, 10, 69, 127
11, 598896, Note_off_c, 10, 69, 64
11, 598920, Note_on_c, 10, 81, 127
11, 599016, Note_off_c, 10, 81, 64
11, 599040, Note_on_c, 10, 81, 127
11, 599136, Note_off_c, 10, 81, 64
11, 599160, Note_on_c, 10, 81, 127
11, 599256, Note_off_c, 10, 81, 64
11, 599280, Note_on_c, 10, 81, 127
11, 599376, Note_off_c, 10, 81, 64
11, 599400, Note_on_c, 10, 81, 127
11, 599496, Note_off_c, 10, 81, 64
11, 599520, Note_on_c, 10, 81, 127
11, 599616, Note_off_c, 10, 81, 64
11, 599640, Note_on_c, 10, 69, 127
11, 599736, Note_off_c, 10, 69, 64
11, 599760, Note_on_c, 10, 69, 127
11, 599856, Note_off_c, 10, 69, 64
11, 599880, Note_on_c, 10, 81, 127
11, 599976, Note_off_c, 10, 81, 64
11, 600000, Note_on_c, 10, 81, 127
11, 600096, Note_off_c, 10, 81, 64
11, 600120, Note_on_c, 10, 81, 127
11, 600216, Note_off_c, 10, 81, 64
11, 600240, Note_on_c, 10, 81, 127
11, 600336, Note_off_c, 10, 81, 64
11, 600360, Note_on_c, 10, 80, 127
11, 600456, Note_off_c, 10, 80, 64
11, 600480, Note_on_c, 10, 80, 127
11, 600576, Note_off_c, 10, 80, 64
11, 600600, Note_on_c, 10, 68, 127
11, 600696, Note_off_c, 10, 68, 64
11, 600720, Note_on_c, 10, 68, 127
11, 600816, Note_off_c, 10, 68, 64
11, 600840, Note_on_c, 10, 80, 127
11, 600936, Note_off_c, 10, 80, 64
11, 600960, Note_on_c, 10, 80, 127
11, 601056, Note_off_c, 10, 80, 64
11, 601080, Note_on_c, 10, 80, 127
11, 601176, Note_off_c, 10, 80, 64
11, 601200, Note_on_c, 10, 80, 127
11, 601296, Note_off_c, 10, 80, 64
11, 603240, Note_on_c, 10, 81, 50
11, 603336, Note_off_c, 10, 81, 64
11, 603360, Note_on_c, 10, 81, 50
11, 603456, Note_off_c, 10, 81, 64
11, 603480, Note_on_c, 10, 80, 50
11, 603576, Note_off_c, 10, 80, 64
11, 603600, Note_on_c, 10, 80, 50
11, 603696, Note_off_c, 10, 80, 64
11, 603720, Note_on_c, 10, 78, 50
11, 603816, Note_off_c, 10, 78, 64
11, 603840, Note_on_c, 10, 78, 50
11, 603936, Note_off_c, 10, 78, 64
11, 603960, Note_on_c, 10, 76, 50
11, 604056, Note_off_c, 10, 76, 64
11, 604080, Note_on_c, 10, 76, 50
11, 604176, Note_off_c, 10, 76, 64
11, 604200, Note_on_c, 10, 74, 50
11, 604296, Note_off_c, 10, 74, 64
11, 604320, Note_on_c, 10, 74, 50
11, 604416, Note_off_c, 10, 74, 64
11, 604440, Note_on_c, 10, 73, 50
11, 604536, Note_off_c, 10, 73, 64
11, 604560, Note_on_c, 10, 73, 50
11, 604656, Note_off_c, 10, 73, 64
11, 604680, Note_on_c, 10, 71, 50
11, 604776, Note_off_c, 10, 71, 64
11, 604800, Note_on_c, 10, 71, 50
11, 604896, Note_off_c, 10, 71, 64
11, 604920, Note_on_c, 10, 69, 50
11, 605016, Note_off_c, 10, 69, 64
11, 605040, Note_on_c, 10, 69, 50
11, 605136, Note_off_c, 10, 69, 64
11, 605160, Note_on_c, 10, 71, 64
11, 605256, Note_off_c, 10, 71, 64
11, 605280, Note_on_c, 10, 71, 66
11, 605376, Note_off_c, 10, 71, 64
11, 605400, Note_on_c, 10, 73, 67
11, 605496, Note_off_c, 10, 73, 64
11, 605520, Note_on_c, 10, 73, 69
11, 605616, Note_off_c, 10, 73, 64
11, 605640, Note_on_c, 10, 74, 70
11, 605736, Note_off_c, 10, 74, 64
11, 605760, Note_on_c, 10, 74, 72
11, 605856, Note_off_c, 10, 74, 64
11, 605880, Note_on_c, 10, 76, 74
11, 605976, Note_off_c, 10, 76, 64
11, 606000, Note_on_c, 10, 76, 75
11, 606096, Note_off_c, 10, 76, 64
11, 606120, Note_on_c, 10, 78, 77
11, 606216, Note_off_c, 10, 78, 64
11, 606240, Note_on_c, 10, 78, 78
11, 606336, Note_off_c, 10, 78, 64
11, 606360, Note_on_c, 10, 80, 80
11, 606456, Note_off_c, 10, 80, 64
11, 606480, Note_on_c, 10, 80, 82
11, 606576, Note_off_c, 10, 80, 64
11, 606600, Note_on_c, 10, 81, 83
11, 606696, Note_off_c, 10, 81, 64
11, 606720, Note_on_c, 10, 81, 85
11, 606816, Note_off_c, 10, 81, 64
11, 606840, Note_on_c, 10, 83, 86
11, 606936, Note_off_c, 10, 83, 64
11, 606960, Note_on_c, 10, 83, 88
11, 607056, Note_off_c, 10, 83, 64
11, 607080, Note_on_c, 10, 85, 127
11, 607176, Note_off_c, 10, 85, 64
11, 607200, Note_on_c, 10, 85, 91
11, 607296, Note_off_c, 10, 85, 64
11, 607320, Note_on_c, 10, 83, 93
11, 607416, Note_off_c, 10, 83, 64
11, 607440, Note_on_c, 10, 83, 94
11, 607536, Note_off_c, 10, 83, 64
11, 607560, Note_on_c, 10, 81, 96
11, 607656, Note_off_c, 10, 81, 64
11, 607680, Note_on_c, 10, 81, 97
11, 607776, Note_off_c, 10, 81, 64
11, 607800, Note_on_c, 10, 80, 99
11, 607896, Note_off_c, 10, 80, 64
11, 607920, Note_on_c, 10, 80, 101
11, 608016, Note_off_c, 10, 80, 64
11, 608040, Note_on_c, 10, 78, 102
11, 608136, Note_off_c, 10, 78, 64
11, 608160, Note_on_c, 10, 78, 104
11, 608256, Note_off_c, 10, 78, 64
11, 608280, Note_on_c, 10, 76, 105
11, 608376, Note_off_c, 10, 76, 64
11, 608400, Note_on_c, 10, 76, 107
11, 608496, Note_off_c, 10, 76, 64
11, 608520, Note_on_c, 10, 74, 109
11, 608616, Note_off_c, 10, 74, 64
11, 608640, Note_on_c, 10, 74, 110
11, 608736, Note_off_c, 10, 74, 64
11, 608760, Note_on_c, 10, 73, 112
11, 608856, Note_off_c, 10, 73, 64
11, 608880, Note_on_c, 10, 73, 113
11, 608976, Note_off_c, 10, 73, 64
11, 609000, Note_on_c, 10, 61, 120
11, 609096, Note_off_c, 10, 61, 64
11, 609120, Note_on_c, 10, 61, 120
11, 609216, Note_off_c, 10, 61, 64
11, 609240, Note_on_c, 10, 62, 120
11, 609336, Note_off_c, 10, 62, 64
11, 609360, Note_on_c, 10, 62, 120
11, 609456, Note_off_c, 10, 62, 64
11, 609480, Note_on_c, 10, 64, 120
11, 609576, Note_off_c, 10, 64, 64
11, 609600, Note_on_c, 10, 64, 120
11, 609696, Note_off_c, 10, 64, 64
11, 609720, Note_on_c, 10, 66, 120
11, 609816, Note_off_c, 10, 66, 64
11, 609840, Note_on_c, 10, 66, 120
11, 609936, Note_off_c, 10, 66, 64
11, 609960, Note_on_c, 10, 67, 120
11, 610056, Note_off_c, 10, 67, 64
11, 610080, Note_on_c, 10, 67, 120
11, 610176, Note_off_c, 10, 67, 64
11, 610200, Note_on_c, 10, 69, 120
11, 610296, Note_off_c, 10, 69, 64
11, 610320, Note_on_c, 10, 69, 120
11, 610416, Note_off_c, 10, 69, 64
11, 610440, Note_on_c, 10, 71, 120
11, 610536, Note_off_c, 10, 71, 64
11, 610560, Note_on_c, 10, 71, 120
11, 610656, Note_off_c, 10, 71, 64
11, 610680, Note_on_c, 10, 73, 120
11, 610776, Note_off_c, 10, 73, 64
11, 610800, Note_on_c, 10, 73, 120
11, 610896, Note_off_c, 10, 73, 64
11, 610920, Note_on_c, 10, 74, 120
11, 611016, Note_off_c, 10, 74, 64
11, 611040, Note_on_c, 10, 74, 120
11, 611136, Note_off_c, 10, 74, 64
11, 611160, Note_on_c, 10, 76, 120
11, 611256, Note_off_c, 10, 76, 64
11, 611280, Note_on_c, 10, 76, 120
11, 611376, Note_off_c, 10, 76, 64
11, 611400, Note_on_c, 10, 78, 120
11, 611496, Note_off_c, 10, 78, 64
11, 611520, Note_on_c, 10, 78, 120
11, 611616, Note_off_c, 10, 78, 64
11, 611640, Note_on_c, 10, 79, 120
11, 611736, Note_off_c, 10, 79, 64
11, 611760, Note_on_c, 10, 79, 120
11, 611856, Note_off_c, 10, 79, 64
11, 611880, Note_on_c, 10, 81, 120
11, 611976, Note_off_c, 10, 81, 64
11, 612000, Note_on_c, 10, 81, 120
11, 612096, Note_off_c, 10, 81, 64
11, 612120, Note_on_c, 10, 83, 120
11, 612216, Note_off_c, 10, 83, 64
11, 612240, Note_on_c, 10, 83, 120
11, 612336, Note_off_c, 10, 83, 64
11, 612360, Note_on_c, 10, 85, 120
11, 612456, Note_off_c, 10, 85, 64
11, 612480, Note_on_c, 10, 85, 120
11, 612576, Note_off_c, 10, 85, 64
11, 612600, Note_on_c, 10, 86, 120
11, 612696, Note_off_c, 10, 86, 64
11, 612720, Note_on_c, 10, 86, 120
11, 612816, Note_off_c, 10, 86, 64
11, 612840, Note_on_c, 10, 81, 127
11, 612936, Note_off_c, 10, 81, 64
11, 612960, Note_on_c, 10, 81, 127
11, 613056, Note_off_c, 10, 81, 64
11, 613080, Note_on_c, 10, 69, 127
11, 613176, Note_off_c, 10, 69, 64
11, 613200, Note_on_c, 10, 69, 127
11, 613296, Note_off_c, 10, 69, 64
11, 613320, Note_on_c, 10, 81, 127
11, 613416, Note_off_c, 10, 81, 64
11, 613440, Note_on_c, 10, 81, 127
11, 613536, Note_off_c, 10, 81, 64
11, 613560, Note_on_c, 10, 81, 127
11, 613656, Note_off_c, 10, 81, 64
11, 613680, Note_on_c, 10, 81, 127
11, 613776, Note_off_c, 10, 81, 64
11, 613800, Note_on_c, 10, 81, 127
11, 613896, Note_off_c, 10, 81, 64
11, 613920, Note_on_c, 10, 81, 127
11, 614016, Note_off_c, 10, 81, 64
11, 614040, Note_on_c, 10, 69, 127
11, 614136, Note_off_c, 10, 69, 64
11, 614160, Note_on_c, 10, 69, 127
11, 614256, Note_off_c, 10, 69, 64
11, 614280, Note_on_c, 10, 81, 127
11, 614376, Note_off_c, 10, 81, 64
11, 614400, Note_on_c, 10, 81, 127
11, 614496, Note_off_c, 10, 81, 64
11, 614520, Note_on_c, 10, 81, 127
11, 614616, Note_off_c, 10, 81, 64
11, 614640, Note_on_c, 10, 81, 127
11, 614736, Note_off_c, 10, 81, 64
11, 614760, Note_on_c, 10, 81, 127
11, 614856, Note_off_c, 10, 81, 64
11, 614880, Note_on_c, 10, 81, 127
11, 614976, Note_off_c, 10, 81, 64
11, 615000, Note_on_c, 10, 69, 127
11, 615096, Note_off_c, 10, 69, 64
11, 615120, Note_on_c, 10, 69, 127
11, 615216, Note_off_c, 10, 69, 64
11, 615240, Note_on_c, 10, 81, 127
11, 615336, Note_off_c, 10, 81, 64
11, 615360, Note_on_c, 10, 81, 127
11, 615456, Note_off_c, 10, 81, 64
11, 615480, Note_on_c, 10, 81, 127
11, 615576, Note_off_c, 10, 81, 64
11, 615600, Note_on_c, 10, 81, 127
11, 615696, Note_off_c, 10, 81, 64
11, 615720, Note_on_c, 10, 80, 127
11, 615816, Note_off_c, 10, 80, 64
11, 615840, Note_on_c, 10, 80, 127
11, 615936, Note_off_c, 10, 80, 64
11, 615960, Note_on_c, 10, 68, 127
11, 616056, Note_off_c, 10, 68, 64
11, 616080, Note_on_c, 10, 68, 127
11, 616176, Note_off_c, 10, 68, 64
11, 616200, Note_on_c, 10, 80, 127
11, 616296, Note_off_c, 10, 80, 64
11, 616320, Note_on_c, 10, 80, 127
11, 616416, Note_off_c, 10, 80, 64
11, 616440, Note_on_c, 10, 80, 127
11, 616536, Note_off_c, 10, 80, 64
11, 616560, Note_on_c, 10, 80, 127
11, 616656, Note_off_c, 10, 80, 64
11, 616680, Note_on_c, 10, 69, 127
11, 616776, Note_off_c, 10, 69, 64
11, 616920, Note_on_c, 10, 69, 127
11, 617040, Note_off_c, 10, 69, 64
11, 617040, Note_on_c, 10, 71, 127
11, 617160, Note_off_c, 10, 71, 64
11, 617160, Note_on_c, 10, 74, 127
11, 617280, Note_off_c, 10, 74, 64
11, 617280, Note_on_c, 10, 73, 127
11, 617400, Note_off_c, 10, 73, 64
11, 617400, Note_on_c, 10, 71, 127
11, 617520, Note_off_c, 10, 71, 64
11, 617520, Note_on_c, 10, 69, 127
11, 617640, Note_off_c, 10, 69, 64
11, 617640, Note_on_c, 10, 76, 127
11, 618720, Note_off_c, 10, 76, 64
11, 618840, Note_on_c, 10, 71, 127
11, 618960, Note_off_c, 10, 71, 64
11, 618960, Note_on_c, 10, 73, 127
11, 619080, Note_off_c, 10, 73, 64
11, 619080, Note_on_c, 10, 76, 127
11, 619200, Note_off_c, 10, 76, 64
11, 619200, Note_on_c, 10, 74, 127
11, 619320, Note_off_c, 10, 74, 64
11, 619320, Note_on_c, 10, 73, 127
11, 619440, Note_off_c, 10, 73, 64
11, 619440, Note_on_c, 10, 71, 127
11, 619560, Note_off_c, 10, 71, 64
11, 619560, Note_on_c, 10, 69, 127
11, 619680, Note_off_c, 10, 69, 64
11, 619800, Note_on_c, 10, 71, 127
11, 619920, Note_off_c, 10, 71, 64
11, 619920, Note_on_c, 10, 73, 127
11, 620040, Note_off_c, 10, 73, 64
11, 620040, Note_on_c, 10, 76, 127
11, 620160, Note_off_c, 10, 76, 64
11, 620160, Note_on_c, 10, 74, 127
11, 620280, Note_off_c, 10, 74, 64
11, 620280, Note_on_c, 10, 73, 127
11, 620400, Note_off_c, 10, 73, 64
11, 620400, Note_on_c, 10, 71, 127
11, 620520, Note_off_c, 10, 71, 64
11, 620520, Note_on_c, 10, 69, 127
11, 620616, Note_off_c, 10, 69, 64
11, 620760, Note_on_c, 10, 69, 127
11, 620880, Note_off_c, 10, 69, 64
11, 620880, Note_on_c, 10, 71, 127
11, 621000, Note_off_c, 10, 71, 64
11, 621000, Note_on_c, 10, 74, 127
11, 621120, Note_off_c, 10, 74, 64
11, 621120, Note_on_c, 10, 73, 127
11, 621240, Note_off_c, 10, 73, 64
11, 621240, Note_on_c, 10, 71, 127
11, 621360, Note_off_c, 10, 71, 64
11, 621360, Note_on_c, 10, 69, 127
11, 621480, Note_off_c, 10, 69, 64
11, 621480, Note_on_c, 10, 76, 127
11, 622560, Note_off_c, 10, 76, 64
11, 622680, Note_on_c, 10, 71, 127
11, 622800, Note_off_c, 10, 71, 64
11, 622800, Note_on_c, 10, 73, 127
11, 622920, Note_off_c, 10, 73, 64
11, 622920, Note_on_c, 10, 76, 127
11, 623040, Note_off_c, 10, 76, 64
11, 623040, Note_on_c, 10, 74, 127
11, 623160, Note_off_c, 10, 74, 64
11, 623160, Note_on_c, 10, 73, 127
11, 623280, Note_off_c, 10, 73, 64
11, 623280, Note_on_c, 10, 71, 127
11, 623400, Note_off_c, 10, 71, 64
11, 623400, Note_on_c, 10, 69, 127
11, 623520, Note_off_c, 10, 69, 64
11, 623640, Note_on_c, 10, 71, 127
11, 623760, Note_off_c, 10, 71, 64
11, 623760, Note_on_c, 10, 73, 127
11, 623880, Note_off_c, 10, 73, 64
11, 623880, Note_on_c, 10, 76, 127
11, 624000, Note_off_c, 10, 76, 64
11, 624000, Note_on_c, 10, 74, 127
11, 624120, Note_off_c, 10, 74, 64
11, 624120, Note_on_c, 10, 73, 127
11, 624240, Note_off_c, 10, 73, 64
11, 624240, Note_on_c, 10, 71, 127
11, 624360, Note_off_c, 10, 71, 64
11, 624360, Note_on_c, 10, 76, 127
11, 624480, Note_off_c, 10, 76, 64
11, 624480, Note_on_c, 10, 74, 102
11, 624600, Note_off_c, 10, 74, 64
11, 624600, Note_on_c, 10, 73, 102
11, 624720, Note_off_c, 10, 73, 64
11, 624720, Note_on_c, 10, 71, 102
11, 624840, Note_off_c, 10, 71, 64
11, 624840, Note_on_c, 10, 76, 127
11, 624960, Note_off_c, 10, 76, 64
11, 624960, Note_on_c, 10, 74, 102
11, 625080, Note_off_c, 10, 74, 64
11, 625080, Note_on_c, 10, 73, 102
11, 625200, Note_off_c, 10, 73, 64
11, 625200, Note_on_c, 10, 71, 102
11, 625320, Note_off_c, 10, 71, 64
11, 625320, Note_on_c, 10, 76, 127
11, 625440, Note_off_c, 10, 76, 64
11, 625440, Note_on_c, 10, 74, 102
11, 625560, Note_off_c, 10, 74, 64
11, 625560, Note_on_c, 10, 73, 102
11, 625680, Note_off_c, 10, 73, 64
11, 625680, Note_on_c, 10, 71, 102
11, 625800, Note_off_c, 10, 71, 64
11, 625800, Note_on_c, 10, 76, 127
11, 625920, Note_off_c, 10, 76, 64
11, 625920, Note_on_c, 10, 74, 102
11, 626040, Note_off_c, 10, 74, 64
11, 626040, Note_on_c, 10, 73, 102
11, 626160, Note_off_c, 10, 73, 64
11, 626160, Note_on_c, 10, 71, 102
11, 626280, Note_off_c, 10, 71, 64
11, 626280, Note_on_c, 10, 76, 127
11, 626400, Note_off_c, 10, 76, 64
11, 626400, Note_on_c, 10, 74, 127
11, 626520, Note_off_c, 10, 74, 64
11, 626520, Note_on_c, 10, 73, 127
11, 626640, Note_off_c, 10, 73, 64
11, 626640, Note_on_c, 10, 71, 127
11, 626760, Note_off_c, 10, 71, 64
11, 626760, Note_on_c, 10, 69, 127
11, 626880, Note_off_c, 10, 69, 64
11, 626880, Note_on_c, 10, 68, 127
11, 627000, Note_off_c, 10, 68, 64
11, 627000, Note_on_c, 10, 66, 127
11, 627120, Note_off_c, 10, 66, 64
11, 627120, Note_on_c, 10, 64, 127
11, 627240, Note_off_c, 10, 64, 64
11, 628200, Note_on_c, 10, 57, 127
11, 628320, Note_off_c, 10, 57, 64
11, 628440, Control_c, 10, 7, 126
11, 629280, Note_on_c, 10, 64, 127
11, 629280, Note_on_c, 10, 57, 127
11, 629400, Note_off_c, 10, 57, 64
11, 629400, Note_off_c, 10, 64, 64
11, 630480, Note_on_c, 10, 57, 127
11, 630600, Note_off_c, 10, 57, 64
11, 630600, End_track
12, 0, Start_track
12, 0, Title_t, "Viola"
12, 0, MIDI_port, 0
12, 0, Channel_prefix, 11
12, 0, Control_c, 11, 7, 90
12, 0, Control_c, 11, 10, 86
12, 0, Program_c, 11, 48
12, 0, Control_c, 11, 91, 66
12, 0, Program_c, 11, 48
12, 480, Control_c, 11, 93, 90
12, 480, Control_c, 11, 10, 70
12, 1920, Control_c, 11, 7, 110
12, 5760, Note_on_c, 11, 52, 114
12, 5760, Note_on_c, 11, 64, 114
12, 5760, Note_on_c, 11, 59, 114
12, 5904, Note_off_c, 11, 59, 64
12, 5904, Note_off_c, 11, 64, 64
12, 5904, Note_off_c, 11, 52, 64
12, 8160, Note_on_c, 11, 62, 114
12, 8160, Note_on_c, 11, 59, 114
12, 8160, Note_on_c, 11, 52, 114
12, 8304, Note_off_c, 11, 52, 64
12, 8304, Note_off_c, 11, 59, 64
12, 8304, Note_off_c, 11, 62, 64
12, 10560, Note_on_c, 11, 56, 127
12, 10656, Note_off_c, 11, 56, 64
12, 10680, Note_on_c, 11, 56, 72
12, 10776, Note_off_c, 11, 56, 64
12, 10800, Note_on_c, 11, 56, 72
12, 10896, Note_off_c, 11, 56, 64
12, 10920, Note_on_c, 11, 56, 72
12, 11016, Note_off_c, 11, 56, 64
12, 11040, Note_on_c, 11, 54, 127
12, 11136, Note_off_c, 11, 54, 64
12, 11160, Note_on_c, 11, 54, 72
12, 11256, Note_off_c, 11, 54, 64
12, 11280, Note_on_c, 11, 56, 72
12, 11376, Note_off_c, 11, 56, 64
12, 11400, Note_on_c, 11, 56, 72
12, 11496, Note_off_c, 11, 56, 64
12, 11520, Note_on_c, 11, 57, 72
12, 11616, Note_off_c, 11, 57, 64
12, 11640, Note_on_c, 11, 57, 72
12, 11736, Note_off_c, 11, 57, 64
12, 11760, Note_on_c, 11, 57, 72
12, 11760, Note_on_c, 11, 57, 72
12, 11856, Note_off_c, 11, 57, 64
12, 11856, Note_off_c, 11, 57, 64
12, 11880, Note_on_c, 11, 57, 72
12, 11976, Note_off_c, 11, 57, 64
12, 12000, Note_on_c, 11, 56, 127
12, 12096, Note_off_c, 11, 56, 64
12, 12120, Note_on_c, 11, 56, 72
12, 12216, Note_off_c, 11, 56, 64
12, 12240, Note_on_c, 11, 57, 72
12, 12336, Note_off_c, 11, 57, 64
12, 12360, Note_on_c, 11, 57, 72
12, 12456, Note_off_c, 11, 57, 64
12, 12480, Note_on_c, 11, 56, 72
12, 12576, Note_off_c, 11, 56, 64
12, 12600, Note_on_c, 11, 56, 72
12, 12696, Note_off_c, 11, 56, 64
12, 12720, Note_on_c, 11, 56, 72
12, 12816, Note_off_c, 11, 56, 64
12, 12840, Note_on_c, 11, 56, 72
12, 12936, Note_off_c, 11, 56, 64
12, 12960, Note_on_c, 11, 54, 127
12, 13056, Note_off_c, 11, 54, 64
12, 13080, Note_on_c, 11, 54, 72
12, 13176, Note_off_c, 11, 54, 64
12, 13200, Note_on_c, 11, 56, 72
12, 13296, Note_off_c, 11, 56, 64
12, 13320, Note_on_c, 11, 56, 72
12, 13416, Note_off_c, 11, 56, 64
12, 13440, Note_on_c, 11, 57, 72
12, 13536, Note_off_c, 11, 57, 64
12, 13560, Note_on_c, 11, 57, 72
12, 13656, Note_off_c, 11, 57, 64
12, 13680, Note_on_c, 11, 59, 72
12, 13776, Note_off_c, 11, 59, 64
12, 13800, Note_on_c, 11, 61, 72
12, 13896, Note_off_c, 11, 61, 64
12, 13920, Note_on_c, 11, 62, 127
12, 14016, Note_off_c, 11, 62, 64
12, 14040, Note_on_c, 11, 61, 72
12, 14136, Note_off_c, 11, 61, 64
12, 14160, Note_on_c, 11, 59, 72
12, 14256, Note_off_c, 11, 59, 64
12, 14280, Note_on_c, 11, 57, 72
12, 14376, Note_off_c, 11, 57, 64
12, 14400, Note_on_c, 11, 56, 72
12, 14496, Note_off_c, 11, 56, 64
12, 14520, Note_on_c, 11, 56, 72
12, 14616, Note_off_c, 11, 56, 64
12, 14640, Note_on_c, 11, 56, 72
12, 14736, Note_off_c, 11, 56, 64
12, 14760, Note_on_c, 11, 56, 72
12, 14856, Note_off_c, 11, 56, 64
12, 14880, Note_on_c, 11, 54, 127
12, 14976, Note_off_c, 11, 54, 64
12, 15000, Note_on_c, 11, 54, 72
12, 15096, Note_off_c, 11, 54, 64
12, 15120, Note_on_c, 11, 56, 72
12, 15216, Note_off_c, 11, 56, 64
12, 15240, Note_on_c, 11, 56, 72
12, 15336, Note_off_c, 11, 56, 64
12, 15360, Note_on_c, 11, 57, 72
12, 15456, Note_off_c, 11, 57, 64
12, 15480, Note_on_c, 11, 57, 72
12, 15576, Note_off_c, 11, 57, 64
12, 15600, Note_on_c, 11, 57, 72
12, 15600, Note_on_c, 11, 57, 72
12, 15696, Note_off_c, 11, 57, 64
12, 15696, Note_off_c, 11, 57, 64
12, 15720, Note_on_c, 11, 57, 72
12, 15816, Note_off_c, 11, 57, 64
12, 15840, Note_on_c, 11, 56, 127
12, 15936, Note_off_c, 11, 56, 64
12, 15960, Note_on_c, 11, 56, 72
12, 16056, Note_off_c, 11, 56, 64
12, 16080, Note_on_c, 11, 57, 72
12, 16176, Note_off_c, 11, 57, 64
12, 16200, Note_on_c, 11, 57, 72
12, 16296, Note_off_c, 11, 57, 64
12, 16320, Note_on_c, 11, 56, 72
12, 16416, Note_off_c, 11, 56, 64
12, 16440, Note_on_c, 11, 56, 72
12, 16536, Note_off_c, 11, 56, 64
12, 16560, Note_on_c, 11, 56, 72
12, 16656, Note_off_c, 11, 56, 64
12, 16680, Note_on_c, 11, 56, 72
12, 16776, Note_off_c, 11, 56, 64
12, 16800, Note_on_c, 11, 54, 127
12, 16896, Note_off_c, 11, 54, 64
12, 16920, Note_on_c, 11, 54, 72
12, 17016, Note_off_c, 11, 54, 64
12, 17040, Note_on_c, 11, 56, 72
12, 17136, Note_off_c, 11, 56, 64
12, 17160, Note_on_c, 11, 56, 72
12, 17256, Note_off_c, 11, 56, 64
12, 17280, Note_on_c, 11, 57, 72
12, 17376, Note_off_c, 11, 57, 64
12, 17400, Note_on_c, 11, 59, 72
12, 17496, Note_off_c, 11, 59, 64
12, 17520, Note_on_c, 11, 61, 72
12, 17616, Note_off_c, 11, 61, 64
12, 17640, Note_on_c, 11, 62, 72
12, 17736, Note_off_c, 11, 62, 64
12, 17760, Note_on_c, 11, 64, 72
12, 17856, Note_off_c, 11, 64, 64
12, 17880, Note_on_c, 11, 66, 72
12, 17976, Note_off_c, 11, 66, 64
12, 18000, Note_on_c, 11, 68, 72
12, 18096, Note_off_c, 11, 68, 64
12, 18120, Note_on_c, 11, 69, 72
12, 18216, Note_off_c, 11, 69, 64
12, 18240, Note_on_c, 11, 56, 127
12, 18336, Note_off_c, 11, 56, 64
12, 18360, Note_on_c, 11, 56, 72
12, 18456, Note_off_c, 11, 56, 64
12, 18480, Note_on_c, 11, 56, 72
12, 18576, Note_off_c, 11, 56, 64
12, 18600, Note_on_c, 11, 56, 72
12, 18696, Note_off_c, 11, 56, 64
12, 18720, Note_on_c, 11, 54, 127
12, 18816, Note_off_c, 11, 54, 64
12, 18840, Note_on_c, 11, 54, 72
12, 18936, Note_off_c, 11, 54, 64
12, 18960, Note_on_c, 11, 56, 72
12, 19056, Note_off_c, 11, 56, 64
12, 19080, Note_on_c, 11, 56, 72
12, 19176, Note_off_c, 11, 56, 64
12, 19200, Note_on_c, 11, 57, 72
12, 19296, Note_off_c, 11, 57, 64
12, 19320, Note_on_c, 11, 57, 72
12, 19416, Note_off_c, 11, 57, 64
12, 19440, Note_on_c, 11, 57, 72
12, 19440, Note_on_c, 11, 57, 72
12, 19536, Note_off_c, 11, 57, 64
12, 19536, Note_off_c, 11, 57, 64
12, 19560, Note_on_c, 11, 57, 72
12, 19656, Note_off_c, 11, 57, 64
12, 19680, Note_on_c, 11, 56, 127
12, 19776, Note_off_c, 11, 56, 64
12, 19800, Note_on_c, 11, 56, 72
12, 19896, Note_off_c, 11, 56, 64
12, 19920, Note_on_c, 11, 57, 72
12, 20016, Note_off_c, 11, 57, 64
12, 20040, Note_on_c, 11, 57, 72
12, 20136, Note_off_c, 11, 57, 64
12, 20160, Note_on_c, 11, 56, 72
12, 20256, Note_off_c, 11, 56, 64
12, 20280, Note_on_c, 11, 56, 72
12, 20376, Note_off_c, 11, 56, 64
12, 20400, Note_on_c, 11, 56, 72
12, 20496, Note_off_c, 11, 56, 64
12, 20520, Note_on_c, 11, 56, 72
12, 20616, Note_off_c, 11, 56, 64
12, 20640, Note_on_c, 11, 54, 127
12, 20736, Note_off_c, 11, 54, 64
12, 20760, Note_on_c, 11, 54, 72
12, 20856, Note_off_c, 11, 54, 64
12, 20880, Note_on_c, 11, 56, 72
12, 20976, Note_off_c, 11, 56, 64
12, 21000, Note_on_c, 11, 56, 72
12, 21096, Note_off_c, 11, 56, 64
12, 21120, Note_on_c, 11, 57, 72
12, 21216, Note_off_c, 11, 57, 64
12, 21240, Note_on_c, 11, 57, 72
12, 21336, Note_off_c, 11, 57, 64
12, 21360, Note_on_c, 11, 59, 72
12, 21456, Note_off_c, 11, 59, 64
12, 21480, Note_on_c, 11, 61, 72
12, 21576, Note_off_c, 11, 61, 64
12, 21600, Note_on_c, 11, 62, 127
12, 21696, Note_off_c, 11, 62, 64
12, 21720, Note_on_c, 11, 61, 72
12, 21816, Note_off_c, 11, 61, 64
12, 21840, Note_on_c, 11, 59, 72
12, 21936, Note_off_c, 11, 59, 64
12, 21960, Note_on_c, 11, 57, 72
12, 22056, Note_off_c, 11, 57, 64
12, 22080, Note_on_c, 11, 56, 72
12, 22176, Note_off_c, 11, 56, 64
12, 22200, Note_on_c, 11, 56, 72
12, 22296, Note_off_c, 11, 56, 64
12, 22320, Note_on_c, 11, 56, 72
12, 22416, Note_off_c, 11, 56, 64
12, 22440, Note_on_c, 11, 56, 72
12, 22536, Note_off_c, 11, 56, 64
12, 22560, Note_on_c, 11, 54, 127
12, 22656, Note_off_c, 11, 54, 64
12, 22680, Note_on_c, 11, 54, 72
12, 22776, Note_off_c, 11, 54, 64
12, 22800, Note_on_c, 11, 56, 72
12, 22896, Note_off_c, 11, 56, 64
12, 22920, Note_on_c, 11, 56, 72
12, 23016, Note_off_c, 11, 56, 64
12, 23040, Note_on_c, 11, 57, 72
12, 23136, Note_off_c, 11, 57, 64
12, 23160, Note_on_c, 11, 57, 72
12, 23256, Note_off_c, 11, 57, 64
12, 23280, Note_on_c, 11, 57, 72
12, 23280, Note_on_c, 11, 57, 72
12, 23376, Note_off_c, 11, 57, 64
12, 23376, Note_off_c, 11, 57, 64
12, 23400, Note_on_c, 11, 57, 72
12, 23496, Note_off_c, 11, 57, 64
12, 23520, Note_on_c, 11, 56, 127
12, 23616, Note_off_c, 11, 56, 64
12, 23640, Note_on_c, 11, 56, 72
12, 23736, Note_off_c, 11, 56, 64
12, 23760, Note_on_c, 11, 57, 72
12, 23856, Note_off_c, 11, 57, 64
12, 23880, Note_on_c, 11, 57, 72
12, 23976, Note_off_c, 11, 57, 64
12, 24000, Note_on_c, 11, 56, 72
12, 24096, Note_off_c, 11, 56, 64
12, 24120, Note_on_c, 11, 56, 72
12, 24216, Note_off_c, 11, 56, 64
12, 24240, Note_on_c, 11, 56, 72
12, 24336, Note_off_c, 11, 56, 64
12, 24360, Note_on_c, 11, 56, 72
12, 24456, Note_off_c, 11, 56, 64
12, 24480, Note_on_c, 11, 54, 127
12, 24576, Note_off_c, 11, 54, 64
12, 24600, Note_on_c, 11, 54, 72
12, 24696, Note_off_c, 11, 54, 64
12, 24720, Note_on_c, 11, 56, 72
12, 24816, Note_off_c, 11, 56, 64
12, 24840, Note_on_c, 11, 56, 72
12, 24936, Note_off_c, 11, 56, 64
12, 24960, Note_on_c, 11, 57, 72
12, 25056, Note_off_c, 11, 57, 64
12, 25080, Note_on_c, 11, 59, 72
12, 25176, Note_off_c, 11, 59, 64
12, 25200, Note_on_c, 11, 61, 72
12, 25296, Note_off_c, 11, 61, 64
12, 25320, Note_on_c, 11, 62, 72
12, 25416, Note_off_c, 11, 62, 64
12, 25440, Note_on_c, 11, 64, 72
12, 25536, Note_off_c, 11, 64, 64
12, 25560, Note_on_c, 11, 62, 72
12, 25656, Note_off_c, 11, 62, 64
12, 25680, Note_on_c, 11, 64, 72
12, 25776, Note_off_c, 11, 64, 64
12, 25800, Note_on_c, 11, 61, 72
12, 25896, Note_off_c, 11, 61, 64
12, 25920, Note_on_c, 11, 57, 127
12, 26016, Note_off_c, 11, 57, 64
12, 26040, Note_on_c, 11, 54, 72
12, 26136, Note_off_c, 11, 54, 64
12, 26160, Note_on_c, 11, 54, 72
12, 26256, Note_off_c, 11, 54, 64
12, 26280, Note_on_c, 11, 54, 72
12, 26376, Note_off_c, 11, 54, 64
12, 26400, Note_on_c, 11, 53, 127
12, 26496, Note_off_c, 11, 53, 64
12, 26520, Note_on_c, 11, 53, 72
12, 26616, Note_off_c, 11, 53, 64
12, 26640, Note_on_c, 11, 54, 72
12, 26736, Note_off_c, 11, 54, 64
12, 26760, Note_on_c, 11, 54, 72
12, 26856, Note_off_c, 11, 54, 64
12, 26880, Note_on_c, 11, 52, 72
12, 26976, Note_off_c, 11, 52, 64
12, 27000, Note_on_c, 11, 57, 72
12, 27096, Note_off_c, 11, 57, 64
12, 27120, Note_on_c, 11, 57, 72
12, 27216, Note_off_c, 11, 57, 64
12, 27240, Note_on_c, 11, 57, 72
12, 27336, Note_off_c, 11, 57, 64
12, 27360, Note_on_c, 11, 57, 127
12, 27456, Note_off_c, 11, 57, 64
12, 27480, Note_on_c, 11, 57, 72
12, 27576, Note_off_c, 11, 57, 64
12, 27600, Note_on_c, 11, 57, 72
12, 27696, Note_off_c, 11, 57, 64
12, 27720, Note_on_c, 11, 57, 72
12, 27816, Note_off_c, 11, 57, 64
12, 27840, Note_on_c, 11, 57, 72
12, 27936, Note_off_c, 11, 57, 64
12, 27960, Note_on_c, 11, 54, 72
12, 28056, Note_off_c, 11, 54, 64
12, 28080, Note_on_c, 11, 54, 72
12, 28176, Note_off_c, 11, 54, 64
12, 28200, Note_on_c, 11, 54, 72
12, 28296, Note_off_c, 11, 54, 64
12, 28320, Note_on_c, 11, 53, 127
12, 28416, Note_off_c, 11, 53, 64
12, 28440, Note_on_c, 11, 53, 72
12, 28536, Note_off_c, 11, 53, 64
12, 28560, Note_on_c, 11, 54, 72
12, 28656, Note_off_c, 11, 54, 64
12, 28680, Note_on_c, 11, 54, 72
12, 28776, Note_off_c, 11, 54, 64
12, 28800, Note_on_c, 11, 52, 72
12, 28896, Note_off_c, 11, 52, 64
12, 28920, Note_on_c, 11, 57, 72
12, 29016, Note_off_c, 11, 57, 64
12, 29040, Note_on_c, 11, 57, 72
12, 29136, Note_off_c, 11, 57, 64
12, 29160, Note_on_c, 11, 57, 72
12, 29256, Note_off_c, 11, 57, 64
12, 29280, Note_on_c, 11, 54, 127
12, 29376, Note_off_c, 11, 54, 64
12, 29400, Note_on_c, 11, 58, 72
12, 29496, Note_off_c, 11, 58, 64
12, 29520, Note_on_c, 11, 58, 72
12, 29616, Note_off_c, 11, 58, 64
12, 29640, Note_on_c, 11, 58, 72
12, 29736, Note_off_c, 11, 58, 64
12, 29760, Note_on_c, 11, 54, 72
12, 29856, Note_off_c, 11, 54, 64
12, 29880, Note_on_c, 11, 57, 72
12, 29976, Note_off_c, 11, 57, 64
12, 30000, Note_on_c, 11, 57, 72
12, 30096, Note_off_c, 11, 57, 64
12, 30120, Note_on_c, 11, 57, 72
12, 30216, Note_off_c, 11, 57, 64
12, 30240, Note_on_c, 11, 52, 127
12, 30336, Note_off_c, 11, 52, 64
12, 30360, Note_on_c, 11, 56, 72
12, 30456, Note_off_c, 11, 56, 64
12, 30480, Note_on_c, 11, 56, 72
12, 30576, Note_off_c, 11, 56, 64
12, 30600, Note_on_c, 11, 56, 72
12, 30696, Note_off_c, 11, 56, 64
12, 30720, Note_on_c, 11, 52, 72
12, 30816, Note_off_c, 11, 52, 64
12, 30840, Note_on_c, 11, 57, 72
12, 30936, Note_off_c, 11, 57, 64
12, 30960, Note_on_c, 11, 57, 72
12, 31056, Note_off_c, 11, 57, 64
12, 31080, Note_on_c, 11, 57, 72
12, 31176, Note_off_c, 11, 57, 64
12, 31200, Note_on_c, 11, 52, 127
12, 31296, Note_off_c, 11, 52, 64
12, 31320, Note_on_c, 11, 57, 72
12, 31416, Note_off_c, 11, 57, 64
12, 31440, Note_on_c, 11, 57, 72
12, 31536, Note_off_c, 11, 57, 64
12, 31560, Note_on_c, 11, 57, 72
12, 31656, Note_off_c, 11, 57, 64
12, 31680, Note_on_c, 11, 52, 72
12, 31776, Note_off_c, 11, 52, 64
12, 31800, Note_on_c, 11, 56, 72
12, 31896, Note_off_c, 11, 56, 64
12, 31920, Note_on_c, 11, 56, 72
12, 32016, Note_off_c, 11, 56, 64
12, 32040, Note_on_c, 11, 56, 72
12, 32136, Note_off_c, 11, 56, 64
12, 32160, Note_on_c, 11, 52, 127
12, 32256, Note_off_c, 11, 52, 64
12, 32280, Note_on_c, 11, 59, 72
12, 32376, Note_off_c, 11, 59, 64
12, 32400, Note_on_c, 11, 59, 72
12, 32496, Note_off_c, 11, 59, 64
12, 32520, Note_on_c, 11, 59, 72
12, 32616, Note_off_c, 11, 59, 64
12, 32640, Note_on_c, 11, 61, 72
12, 32736, Note_off_c, 11, 61, 64
12, 32760, Note_on_c, 11, 57, 72
12, 32856, Note_off_c, 11, 57, 64
12, 32880, Note_on_c, 11, 59, 72
12, 32976, Note_off_c, 11, 59, 64
12, 33000, Note_on_c, 11, 61, 72
12, 33096, Note_off_c, 11, 61, 64
12, 33120, Note_on_c, 11, 62, 72
12, 33216, Note_off_c, 11, 62, 64
12, 33240, Note_on_c, 11, 64, 72
12, 33336, Note_off_c, 11, 64, 64
12, 33360, Note_on_c, 11, 66, 72
12, 33456, Note_off_c, 11, 66, 64
12, 33480, Note_on_c, 11, 64, 72
12, 33576, Note_off_c, 11, 64, 64
12, 33600, Note_on_c, 11, 57, 127
12, 33696, Note_off_c, 11, 57, 64
12, 33720, Note_on_c, 11, 54, 72
12, 33816, Note_off_c, 11, 54, 64
12, 33840, Note_on_c, 11, 54, 72
12, 33936, Note_off_c, 11, 54, 64
12, 33960, Note_on_c, 11, 54, 72
12, 34056, Note_off_c, 11, 54, 64
12, 34080, Note_on_c, 11, 53, 127
12, 34176, Note_off_c, 11, 53, 64
12, 34200, Note_on_c, 11, 53, 72
12, 34296, Note_off_c, 11, 53, 64
12, 34320, Note_on_c, 11, 54, 72
12, 34416, Note_off_c, 11, 54, 64
12, 34440, Note_on_c, 11, 54, 72
12, 34536, Note_off_c, 11, 54, 64
12, 34560, Note_on_c, 11, 52, 72
12, 34656, Note_off_c, 11, 52, 64
12, 34680, Note_on_c, 11, 57, 72
12, 34776, Note_off_c, 11, 57, 64
12, 34800, Note_on_c, 11, 57, 72
12, 34896, Note_off_c, 11, 57, 64
12, 34920, Note_on_c, 11, 57, 72
12, 35016, Note_off_c, 11, 57, 64
12, 35040, Note_on_c, 11, 57, 127
12, 35136, Note_off_c, 11, 57, 64
12, 35160, Note_on_c, 11, 57, 72
12, 35256, Note_off_c, 11, 57, 64
12, 35280, Note_on_c, 11, 57, 72
12, 35376, Note_off_c, 11, 57, 64
12, 35400, Note_on_c, 11, 57, 72
12, 35496, Note_off_c, 11, 57, 64
12, 35520, Note_on_c, 11, 57, 72
12, 35616, Note_off_c, 11, 57, 64
12, 35640, Note_on_c, 11, 54, 72
12, 35736, Note_off_c, 11, 54, 64
12, 35760, Note_on_c, 11, 54, 72
12, 35856, Note_off_c, 11, 54, 64
12, 35880, Note_on_c, 11, 54, 72
12, 35976, Note_off_c, 11, 54, 64
12, 36000, Note_on_c, 11, 53, 127
12, 36096, Note_off_c, 11, 53, 64
12, 36120, Note_on_c, 11, 53, 72
12, 36216, Note_off_c, 11, 53, 64
12, 36240, Note_on_c, 11, 54, 72
12, 36336, Note_off_c, 11, 54, 64
12, 36360, Note_on_c, 11, 54, 72
12, 36456, Note_off_c, 11, 54, 64
12, 36480, Note_on_c, 11, 52, 72
12, 36576, Note_off_c, 11, 52, 64
12, 36600, Note_on_c, 11, 57, 72
12, 36696, Note_off_c, 11, 57, 64
12, 36720, Note_on_c, 11, 57, 72
12, 36816, Note_off_c, 11, 57, 64
12, 36840, Note_on_c, 11, 57, 72
12, 36936, Note_off_c, 11, 57, 64
12, 36960, Note_on_c, 11, 54, 127
12, 37056, Note_off_c, 11, 54, 64
12, 37080, Note_on_c, 11, 58, 72
12, 37176, Note_off_c, 11, 58, 64
12, 37200, Note_on_c, 11, 58, 72
12, 37296, Note_off_c, 11, 58, 64
12, 37320, Note_on_c, 11, 58, 72
12, 37416, Note_off_c, 11, 58, 64
12, 37440, Note_on_c, 11, 54, 72
12, 37536, Note_off_c, 11, 54, 64
12, 37560, Note_on_c, 11, 57, 72
12, 37656, Note_off_c, 11, 57, 64
12, 37680, Note_on_c, 11, 57, 72
12, 37776, Note_off_c, 11, 57, 64
12, 37800, Note_on_c, 11, 57, 72
12, 37896, Note_off_c, 11, 57, 64
12, 37920, Note_on_c, 11, 52, 127
12, 38016, Note_off_c, 11, 52, 64
12, 38040, Note_on_c, 11, 56, 72
12, 38136, Note_off_c, 11, 56, 64
12, 38160, Note_on_c, 11, 56, 72
12, 38256, Note_off_c, 11, 56, 64
12, 38280, Note_on_c, 11, 56, 72
12, 38376, Note_off_c, 11, 56, 64
12, 38400, Note_on_c, 11, 52, 72
12, 38496, Note_off_c, 11, 52, 64
12, 38520, Note_on_c, 11, 57, 72
12, 38616, Note_off_c, 11, 57, 64
12, 38640, Note_on_c, 11, 57, 72
12, 38736, Note_off_c, 11, 57, 64
12, 38760, Note_on_c, 11, 57, 72
12, 38856, Note_off_c, 11, 57, 64
12, 38880, Note_on_c, 11, 52, 127
12, 38976, Note_off_c, 11, 52, 64
12, 39000, Note_on_c, 11, 57, 72
12, 39096, Note_off_c, 11, 57, 64
12, 39120, Note_on_c, 11, 57, 72
12, 39216, Note_off_c, 11, 57, 64
12, 39240, Note_on_c, 11, 57, 72
12, 39336, Note_off_c, 11, 57, 64
12, 39360, Note_on_c, 11, 52, 72
12, 39456, Note_off_c, 11, 52, 64
12, 39480, Note_on_c, 11, 56, 72
12, 39576, Note_off_c, 11, 56, 64
12, 39600, Note_on_c, 11, 56, 72
12, 39696, Note_off_c, 11, 56, 64
12, 39720, Note_on_c, 11, 56, 72
12, 39816, Note_off_c, 11, 56, 64
12, 39840, Note_on_c, 11, 52, 127
12, 39936, Note_off_c, 11, 52, 64
12, 39960, Note_on_c, 11, 59, 72
12, 40056, Note_off_c, 11, 59, 64
12, 40080, Note_on_c, 11, 59, 72
12, 40176, Note_off_c, 11, 59, 64
12, 40200, Note_on_c, 11, 59, 72
12, 40296, Note_off_c, 11, 59, 64
12, 40320, Note_on_c, 11, 57, 127
12, 40320, Note_on_c, 11, 52, 108
12, 40440, Note_off_c, 11, 52, 64
12, 40440, Note_off_c, 11, 57, 64
12, 41400, Note_on_c, 11, 57, 127
12, 41400, Note_on_c, 11, 52, 108
12, 41520, Note_off_c, 11, 52, 64
12, 41520, Note_off_c, 11, 57, 64
12, 42480, Note_on_c, 11, 68, 108
12, 42480, Note_on_c, 11, 59, 127
12, 42480, Note_on_c, 11, 52, 108
12, 42600, Note_off_c, 11, 52, 64
12, 42600, Note_off_c, 11, 59, 64
12, 42600, Note_off_c, 11, 68, 64
12, 43560, Note_on_c, 11, 68, 108
12, 43560, Note_on_c, 11, 59, 127
12, 43560, Note_on_c, 11, 52, 108
12, 43680, Note_off_c, 11, 52, 64
12, 43680, Note_off_c, 11, 59, 64
12, 43680, Note_off_c, 11, 68, 64
12, 44640, Note_on_c, 11, 57, 127
12, 44640, Note_on_c, 11, 52, 108
12, 44760, Note_off_c, 11, 52, 64
12, 44760, Note_off_c, 11, 57, 64
12, 45120, Note_on_c, 11, 57, 127
12, 45120, Note_on_c, 11, 52, 108
12, 45240, Note_off_c, 11, 52, 64
12, 45240, Note_off_c, 11, 57, 64
12, 45600, Note_on_c, 11, 52, 108
12, 45600, Note_on_c, 11, 57, 127
12, 45720, Note_off_c, 11, 57, 64
12, 45720, Note_off_c, 11, 52, 64
12, 46080, Note_on_c, 11, 52, 108
12, 46080, Note_on_c, 11, 57, 127
12, 46200, Note_off_c, 11, 57, 64
12, 46200, Note_off_c, 11, 52, 64
12, 46560, Note_on_c, 11, 52, 108
12, 46560, Note_on_c, 11, 59, 127
12, 46560, Note_on_c, 11, 64, 108
12, 46680, Note_off_c, 11, 64, 64
12, 46680, Note_off_c, 11, 59, 64
12, 46680, Note_off_c, 11, 52, 64
12, 47040, Note_on_c, 11, 52, 108
12, 47040, Note_on_c, 11, 59, 127
12, 47040, Note_on_c, 11, 64, 108
12, 47160, Note_off_c, 11, 64, 64
12, 47160, Note_off_c, 11, 59, 64
12, 47160, Note_off_c, 11, 52, 64
12, 47520, Note_on_c, 11, 52, 108
12, 47520, Note_on_c, 11, 59, 127
12, 47520, Note_on_c, 11, 64, 108
12, 47640, Note_off_c, 11, 64, 64
12, 47640, Note_off_c, 11, 59, 64
12, 47640, Note_off_c, 11, 52, 64
12, 48000, Note_on_c, 11, 52, 108
12, 48000, Note_on_c, 11, 59, 127
12, 48000, Note_on_c, 11, 64, 108
12, 48120, Note_off_c, 11, 64, 64
12, 48120, Note_off_c, 11, 59, 64
12, 48120, Note_off_c, 11, 52, 64
12, 48480, Note_on_c, 11, 57, 127
12, 48480, Note_on_c, 11, 52, 108
12, 48600, Note_off_c, 11, 52, 64
12, 48600, Note_off_c, 11, 57, 64
12, 49560, Note_on_c, 11, 57, 127
12, 49560, Note_on_c, 11, 52, 108
12, 49680, Note_off_c, 11, 52, 64
12, 49680, Note_off_c, 11, 57, 64
12, 50640, Note_on_c, 11, 68, 108
12, 50640, Note_on_c, 11, 59, 127
12, 50640, Note_on_c, 11, 52, 108
12, 50760, Note_off_c, 11, 52, 64
12, 50760, Note_off_c, 11, 59, 64
12, 50760, Note_off_c, 11, 68, 64
12, 51720, Note_on_c, 11, 68, 108
12, 51720, Note_on_c, 11, 59, 127
12, 51720, Note_on_c, 11, 52, 108
12, 51840, Note_off_c, 11, 52, 64
12, 51840, Note_off_c, 11, 59, 64
12, 51840, Note_off_c, 11, 68, 64
12, 52800, Note_on_c, 11, 57, 100
12, 52896, Note_off_c, 11, 57, 64
12, 52920, Note_on_c, 11, 57, 100
12, 53016, Note_off_c, 11, 57, 64
12, 53040, Note_on_c, 11, 57, 100
12, 53136, Note_off_c, 11, 57, 64
12, 53160, Note_on_c, 11, 57, 100
12, 53256, Note_off_c, 11, 57, 64
12, 53280, Note_on_c, 11, 57, 100
12, 53376, Note_off_c, 11, 57, 64
12, 53400, Note_on_c, 11, 57, 100
12, 53496, Note_off_c, 11, 57, 64
12, 53520, Note_on_c, 11, 59, 100
12, 53616, Note_off_c, 11, 59, 64
12, 53640, Note_on_c, 11, 59, 100
12, 53736, Note_off_c, 11, 59, 64
12, 53760, Note_on_c, 11, 61, 100
12, 53856, Note_off_c, 11, 61, 64
12, 53880, Note_on_c, 11, 61, 100
12, 53976, Note_off_c, 11, 61, 64
12, 54000, Note_on_c, 11, 57, 100
12, 54096, Note_off_c, 11, 57, 64
12, 54120, Note_on_c, 11, 57, 100
12, 54216, Note_off_c, 11, 57, 64
12, 54240, Note_on_c, 11, 59, 100
12, 54336, Note_off_c, 11, 59, 64
12, 54360, Note_on_c, 11, 59, 100
12, 54456, Note_off_c, 11, 59, 64
12, 54480, Note_on_c, 11, 61, 100
12, 54576, Note_off_c, 11, 61, 64
12, 54600, Note_on_c, 11, 61, 100
12, 54696, Note_off_c, 11, 61, 64
12, 54720, Note_on_c, 11, 59, 100
12, 54816, Note_off_c, 11, 59, 64
12, 54840, Note_on_c, 11, 59, 100
12, 54936, Note_off_c, 11, 59, 64
12, 54960, Note_on_c, 11, 61, 100
12, 55056, Note_off_c, 11, 61, 64
12, 55080, Note_on_c, 11, 61, 100
12, 55176, Note_off_c, 11, 61, 64
12, 55200, Note_on_c, 11, 62, 100
12, 55296, Note_off_c, 11, 62, 64
12, 55320, Note_on_c, 11, 62, 100
12, 55416, Note_off_c, 11, 62, 64
12, 55440, Note_on_c, 11, 63, 100
12, 55536, Note_off_c, 11, 63, 64
12, 55560, Note_on_c, 11, 63, 100
12, 55656, Note_off_c, 11, 63, 64
12, 55680, Note_on_c, 11, 64, 100
12, 55776, Note_off_c, 11, 64, 64
12, 55800, Note_on_c, 11, 64, 100
12, 55896, Note_off_c, 11, 64, 64
12, 55920, Note_on_c, 11, 66, 100
12, 56016, Note_off_c, 11, 66, 64
12, 56040, Note_on_c, 11, 66, 100
12, 56136, Note_off_c, 11, 66, 64
12, 56160, Note_on_c, 11, 67, 100
12, 56256, Note_off_c, 11, 67, 64
12, 56280, Note_on_c, 11, 67, 100
12, 56376, Note_off_c, 11, 67, 64
12, 56400, Note_on_c, 11, 68, 100
12, 56496, Note_off_c, 11, 68, 64
12, 56520, Note_on_c, 11, 68, 100
12, 56616, Note_off_c, 11, 68, 64
12, 56640, Note_on_c, 11, 57, 80
12, 56736, Note_off_c, 11, 57, 64
12, 58800, Note_on_c, 11, 52, 79
12, 58920, Note_off_c, 11, 52, 64
12, 58920, Note_on_c, 11, 54, 76
12, 59040, Note_off_c, 11, 54, 64
12, 59040, Note_on_c, 11, 57, 74
12, 59160, Note_off_c, 11, 57, 64
12, 59160, Note_on_c, 11, 56, 71
12, 59280, Note_off_c, 11, 56, 64
12, 59280, Note_on_c, 11, 54, 68
12, 59400, Note_off_c, 11, 54, 64
12, 59400, Note_on_c, 11, 56, 66
12, 59520, Note_off_c, 11, 56, 64
12, 59520, Note_on_c, 11, 57, 80
12, 60000, Note_off_c, 11, 57, 64
12, 60000, Note_on_c, 11, 56, 80
12, 60480, Note_off_c, 11, 56, 64
12, 60480, Note_on_c, 11, 57, 80
12, 60672, Note_off_c, 11, 57, 64
12, 62640, Note_on_c, 11, 52, 79
12, 62760, Note_off_c, 11, 52, 64
12, 62760, Note_on_c, 11, 54, 76
12, 62880, Note_off_c, 11, 54, 64
12, 62880, Note_on_c, 11, 57, 74
12, 63000, Note_off_c, 11, 57, 64
12, 63000, Note_on_c, 11, 56, 71
12, 63120, Note_off_c, 11, 56, 64
12, 63120, Note_on_c, 11, 54, 68
12, 63240, Note_off_c, 11, 54, 64
12, 63240, Note_on_c, 11, 56, 66
12, 63360, Note_off_c, 11, 56, 64
12, 63360, Note_on_c, 11, 57, 80
12, 63840, Note_off_c, 11, 57, 64
12, 63840, Note_on_c, 11, 61, 80
12, 64320, Note_off_c, 11, 61, 64
12, 64320, Note_on_c, 11, 54, 80
12, 64512, Note_off_c, 11, 54, 64
12, 65520, Note_on_c, 11, 61, 119
12, 65640, Note_off_c, 11, 61, 64
12, 65640, Note_on_c, 11, 63, 114
12, 65760, Note_off_c, 11, 63, 64
12, 65760, Note_on_c, 11, 66, 111
12, 65880, Note_off_c, 11, 66, 64
12, 65880, Note_on_c, 11, 65, 107
12, 66000, Note_off_c, 11, 65, 64
12, 66000, Note_on_c, 11, 63, 102
12, 66120, Note_off_c, 11, 63, 64
12, 66120, Note_on_c, 11, 65, 99
12, 66240, Note_off_c, 11, 65, 64
12, 66240, Note_on_c, 11, 66, 120
12, 66720, Note_off_c, 11, 66, 64
12, 66720, Note_on_c, 11, 65, 120
12, 67200, Note_off_c, 11, 65, 64
12, 67200, Note_on_c, 11, 66, 120
12, 67680, Note_off_c, 11, 66, 64
12, 67680, Note_on_c, 11, 65, 120
12, 68160, Note_off_c, 11, 65, 64
12, 68160, Note_on_c, 11, 66, 120
12, 68352, Note_off_c, 11, 66, 64
12, 69360, Note_on_c, 11, 61, 119
12, 69480, Note_off_c, 11, 61, 64
12, 69480, Note_on_c, 11, 63, 114
12, 69600, Note_off_c, 11, 63, 64
12, 69600, Note_on_c, 11, 66, 111
12, 69720, Note_off_c, 11, 66, 64
12, 69720, Note_on_c, 11, 65, 107
12, 69840, Note_off_c, 11, 65, 64
12, 69840, Note_on_c, 11, 63, 102
12, 69960, Note_off_c, 11, 63, 64
12, 69960, Note_on_c, 11, 65, 99
12, 70080, Note_off_c, 11, 65, 64
12, 70080, Note_on_c, 11, 66, 120
12, 70560, Note_off_c, 11, 66, 64
12, 70560, Note_on_c, 11, 65, 120
12, 71040, Note_off_c, 11, 65, 64
12, 71040, Note_on_c, 11, 66, 120
12, 71520, Note_off_c, 11, 66, 64
12, 71520, Note_on_c, 11, 61, 120
12, 72000, Note_off_c, 11, 61, 64
12, 72000, Note_on_c, 11, 61, 127
12, 72114, Note_off_c, 11, 61, 64
12, 72360, Note_on_c, 11, 61, 120
12, 72474, Note_off_c, 11, 61, 64
12, 72480, Note_on_c, 11, 61, 120
12, 72594, Note_off_c, 11, 61, 64
12, 72840, Note_on_c, 11, 61, 120
12, 72954, Note_off_c, 11, 61, 64
12, 72960, Note_on_c, 11, 61, 120
12, 73074, Note_off_c, 11, 61, 64
12, 73320, Note_on_c, 11, 61, 120
12, 73434, Note_off_c, 11, 61, 64
12, 73440, Note_on_c, 11, 61, 120
12, 73554, Note_off_c, 11, 61, 64
12, 73800, Note_on_c, 11, 61, 120
12, 73914, Note_off_c, 11, 61, 64
12, 73920, Note_on_c, 11, 61, 120
12, 74034, Note_off_c, 11, 61, 64
12, 74280, Note_on_c, 11, 61, 120
12, 74394, Note_off_c, 11, 61, 64
12, 74400, Note_on_c, 11, 61, 120
12, 74514, Note_off_c, 11, 61, 64
12, 74760, Note_on_c, 11, 61, 120
12, 74874, Note_off_c, 11, 61, 64
12, 74880, Note_on_c, 11, 61, 120
12, 74994, Note_off_c, 11, 61, 64
12, 75240, Note_on_c, 11, 61, 120
12, 75354, Note_off_c, 11, 61, 64
12, 75360, Note_on_c, 11, 61, 120
12, 75474, Note_off_c, 11, 61, 64
12, 75720, Note_on_c, 11, 61, 120
12, 75834, Note_off_c, 11, 61, 64
12, 75840, Note_on_c, 11, 61, 127
12, 75954, Note_off_c, 11, 61, 64
12, 76200, Note_on_c, 11, 61, 120
12, 76314, Note_off_c, 11, 61, 64
12, 76320, Note_on_c, 11, 61, 120
12, 76434, Note_off_c, 11, 61, 64
12, 76680, Note_on_c, 11, 61, 120
12, 76794, Note_off_c, 11, 61, 64
12, 76800, Note_on_c, 11, 66, 127
12, 76914, Note_off_c, 11, 66, 64
12, 77160, Note_on_c, 11, 66, 120
12, 77274, Note_off_c, 11, 66, 64
12, 77280, Note_on_c, 11, 66, 120
12, 77394, Note_off_c, 11, 66, 64
12, 77640, Note_on_c, 11, 66, 120
12, 77754, Note_off_c, 11, 66, 64
12, 77760, Note_on_c, 11, 69, 127
12, 77874, Note_off_c, 11, 69, 64
12, 78120, Note_on_c, 11, 69, 120
12, 78234, Note_off_c, 11, 69, 64
12, 78240, Note_on_c, 11, 69, 120
12, 78354, Note_off_c, 11, 69, 64
12, 78600, Note_on_c, 11, 69, 120
12, 78714, Note_off_c, 11, 69, 64
12, 78720, Note_on_c, 11, 69, 127
12, 78834, Note_off_c, 11, 69, 64
12, 79080, Note_on_c, 11, 69, 120
12, 79194, Note_off_c, 11, 69, 64
12, 79200, Note_on_c, 11, 69, 120
12, 79314, Note_off_c, 11, 69, 64
12, 79560, Note_on_c, 11, 69, 120
12, 79674, Note_off_c, 11, 69, 64
12, 79680, Note_on_c, 11, 69, 127
12, 79794, Note_off_c, 11, 69, 64
12, 80040, Note_on_c, 11, 60, 120
12, 80154, Note_off_c, 11, 60, 64
12, 80160, Note_on_c, 11, 60, 120
12, 80274, Note_off_c, 11, 60, 64
12, 80520, Note_on_c, 11, 60, 120
12, 80634, Note_off_c, 11, 60, 64
12, 80640, Note_on_c, 11, 60, 120
12, 80754, Note_off_c, 11, 60, 64
12, 81000, Note_on_c, 11, 60, 120
12, 81114, Note_off_c, 11, 60, 64
12, 81120, Note_on_c, 11, 60, 120
12, 81234, Note_off_c, 11, 60, 64
12, 81480, Note_on_c, 11, 60, 120
12, 81594, Note_off_c, 11, 60, 64
12, 81600, Note_on_c, 11, 60, 127
12, 81714, Note_off_c, 11, 60, 64
12, 82080, Note_on_c, 11, 69, 99
12, 82176, Note_off_c, 11, 69, 64
12, 82200, Note_on_c, 11, 69, 99
12, 82296, Note_off_c, 11, 69, 64
12, 82320, Note_on_c, 11, 69, 99
12, 82416, Note_off_c, 11, 69, 64
12, 82440, Note_on_c, 11, 69, 99
12, 82536, Note_off_c, 11, 69, 64
12, 82560, Note_on_c, 11, 69, 45
12, 82656, Note_off_c, 11, 69, 64
12, 82680, Note_on_c, 11, 69, 45
12, 82776, Note_off_c, 11, 69, 64
12, 82800, Note_on_c, 11, 69, 45
12, 82896, Note_off_c, 11, 69, 64
12, 82920, Note_on_c, 11, 69, 45
12, 83016, Note_off_c, 11, 69, 64
12, 83040, Note_on_c, 11, 69, 45
12, 83136, Note_off_c, 11, 69, 64
12, 83160, Note_on_c, 11, 69, 45
12, 83256, Note_off_c, 11, 69, 64
12, 83280, Note_on_c, 11, 69, 45
12, 83376, Note_off_c, 11, 69, 64
12, 83400, Note_on_c, 11, 69, 45
12, 83496, Note_off_c, 11, 69, 64
12, 83520, Note_on_c, 11, 68, 45
12, 83616, Note_off_c, 11, 68, 64
12, 83640, Note_on_c, 11, 66, 45
12, 83736, Note_off_c, 11, 66, 64
12, 83760, Note_on_c, 11, 66, 45
12, 83856, Note_off_c, 11, 66, 64
12, 83880, Note_on_c, 11, 66, 45
12, 83976, Note_off_c, 11, 66, 64
12, 84000, Note_on_c, 11, 66, 45
12, 84096, Note_off_c, 11, 66, 64
12, 84120, Note_on_c, 11, 66, 45
12, 84216, Note_off_c, 11, 66, 64
12, 84240, Note_on_c, 11, 66, 45
12, 84336, Note_off_c, 11, 66, 64
12, 84360, Note_on_c, 11, 66, 45
12, 84456, Note_off_c, 11, 66, 64
12, 84480, Note_on_c, 11, 66, 45
12, 84576, Note_off_c, 11, 66, 64
12, 84600, Note_on_c, 11, 66, 45
12, 84696, Note_off_c, 11, 66, 64
12, 84720, Note_on_c, 11, 66, 45
12, 84816, Note_off_c, 11, 66, 64
12, 84840, Note_on_c, 11, 66, 45
12, 84936, Note_off_c, 11, 66, 64
12, 84960, Note_on_c, 11, 64, 45
12, 85056, Note_off_c, 11, 64, 64
12, 85080, Note_on_c, 11, 64, 45
12, 85176, Note_off_c, 11, 64, 64
12, 85200, Note_on_c, 11, 64, 45
12, 85296, Note_off_c, 11, 64, 64
12, 85320, Note_on_c, 11, 64, 45
12, 85416, Note_off_c, 11, 64, 64
12, 85440, Note_on_c, 11, 56, 50
12, 85536, Note_off_c, 11, 56, 64
12, 85920, Note_on_c, 11, 69, 99
12, 86016, Note_off_c, 11, 69, 64
12, 86040, Note_on_c, 11, 69, 99
12, 86136, Note_off_c, 11, 69, 64
12, 86160, Note_on_c, 11, 69, 99
12, 86256, Note_off_c, 11, 69, 64
12, 86280, Note_on_c, 11, 69, 99
12, 86376, Note_off_c, 11, 69, 64
12, 86400, Note_on_c, 11, 69, 40
12, 86496, Note_off_c, 11, 69, 64
12, 86520, Note_on_c, 11, 69, 40
12, 86616, Note_off_c, 11, 69, 64
12, 86640, Note_on_c, 11, 69, 40
12, 86736, Note_off_c, 11, 69, 64
12, 86760, Note_on_c, 11, 69, 40
12, 86856, Note_off_c, 11, 69, 64
12, 86880, Note_on_c, 11, 68, 40
12, 86976, Note_off_c, 11, 68, 64
12, 87000, Note_on_c, 11, 68, 40
12, 87096, Note_off_c, 11, 68, 64
12, 87120, Note_on_c, 11, 68, 40
12, 87216, Note_off_c, 11, 68, 64
12, 87240, Note_on_c, 11, 68, 40
12, 87336, Note_off_c, 11, 68, 64
12, 87360, Note_on_c, 11, 68, 40
12, 87456, Note_off_c, 11, 68, 64
12, 87480, Note_on_c, 11, 66, 40
12, 87576, Note_off_c, 11, 66, 64
12, 87600, Note_on_c, 11, 66, 40
12, 87696, Note_off_c, 11, 66, 64
12, 87720, Note_on_c, 11, 66, 40
12, 87816, Note_off_c, 11, 66, 64
12, 87840, Note_on_c, 11, 66, 40
12, 87936, Note_off_c, 11, 66, 64
12, 87960, Note_on_c, 11, 66, 40
12, 88056, Note_off_c, 11, 66, 64
12, 88080, Note_on_c, 11, 66, 40
12, 88176, Note_off_c, 11, 66, 64
12, 88200, Note_on_c, 11, 66, 40
12, 88296, Note_off_c, 11, 66, 64
12, 88320, Note_on_c, 11, 66, 40
12, 88416, Note_off_c, 11, 66, 64
12, 88440, Note_on_c, 11, 66, 40
12, 88536, Note_off_c, 11, 66, 64
12, 88560, Note_on_c, 11, 66, 40
12, 88656, Note_off_c, 11, 66, 64
12, 88680, Note_on_c, 11, 66, 40
12, 88776, Note_off_c, 11, 66, 64
12, 88800, Note_on_c, 11, 64, 40
12, 88896, Note_off_c, 11, 64, 64
12, 88920, Note_on_c, 11, 64, 40
12, 89016, Note_off_c, 11, 64, 64
12, 89040, Note_on_c, 11, 64, 40
12, 89136, Note_off_c, 11, 64, 64
12, 89160, Note_on_c, 11, 64, 40
12, 89256, Note_off_c, 11, 64, 64
12, 89280, Note_on_c, 11, 66, 51
12, 89376, Note_off_c, 11, 66, 64
12, 89400, Note_on_c, 11, 66, 50
12, 89496, Note_off_c, 11, 66, 64
12, 89520, Note_on_c, 11, 66, 50
12, 89616, Note_off_c, 11, 66, 64
12, 89640, Note_on_c, 11, 66, 49
12, 89736, Note_off_c, 11, 66, 64
12, 89760, Note_on_c, 11, 66, 48
12, 89856, Note_off_c, 11, 66, 64
12, 89880, Note_on_c, 11, 66, 47
12, 89976, Note_off_c, 11, 66, 64
12, 90000, Note_on_c, 11, 66, 46
12, 90096, Note_off_c, 11, 66, 64
12, 90120, Note_on_c, 11, 66, 46
12, 90216, Note_off_c, 11, 66, 64
12, 90240, Note_on_c, 11, 66, 46
12, 90336, Note_off_c, 11, 66, 64
12, 90360, Note_on_c, 11, 66, 45
12, 90456, Note_off_c, 11, 66, 64
12, 90480, Note_on_c, 11, 66, 44
12, 90576, Note_off_c, 11, 66, 64
12, 90600, Note_on_c, 11, 66, 43
12, 90696, Note_off_c, 11, 66, 64
12, 90720, Note_on_c, 11, 64, 42
12, 90816, Note_off_c, 11, 64, 64
12, 90840, Note_on_c, 11, 64, 42
12, 90936, Note_off_c, 11, 64, 64
12, 90960, Note_on_c, 11, 64, 41
12, 91056, Note_off_c, 11, 64, 64
12, 91080, Note_on_c, 11, 64, 40
12, 91176, Note_off_c, 11, 64, 64
12, 91200, Note_on_c, 11, 66, 39
12, 91296, Note_off_c, 11, 66, 64
12, 91320, Note_on_c, 11, 66, 38
12, 91416, Note_off_c, 11, 66, 64
12, 91440, Note_on_c, 11, 66, 38
12, 91536, Note_off_c, 11, 66, 64
12, 91560, Note_on_c, 11, 66, 38
12, 91656, Note_off_c, 11, 66, 64
12, 91680, Note_on_c, 11, 66, 37
12, 91776, Note_off_c, 11, 66, 64
12, 91800, Note_on_c, 11, 66, 36
12, 91896, Note_off_c, 11, 66, 64
12, 91920, Note_on_c, 11, 66, 35
12, 92016, Note_off_c, 11, 66, 64
12, 92040, Note_on_c, 11, 66, 34
12, 92136, Note_off_c, 11, 66, 64
12, 92160, Note_on_c, 11, 66, 34
12, 92256, Note_off_c, 11, 66, 64
12, 92280, Note_on_c, 11, 60, 33
12, 92376, Note_off_c, 11, 60, 64
12, 92400, Note_on_c, 11, 60, 32
12, 92496, Note_off_c, 11, 60, 64
12, 92520, Note_on_c, 11, 60, 31
12, 92616, Note_off_c, 11, 60, 64
12, 92640, Note_on_c, 11, 60, 51
12, 92736, Note_off_c, 11, 60, 64
12, 92760, Note_on_c, 11, 60, 58
12, 92856, Note_off_c, 11, 60, 64
12, 92880, Note_on_c, 11, 60, 66
12, 92976, Note_off_c, 11, 60, 64
12, 93000, Note_on_c, 11, 60, 73
12, 93096, Note_off_c, 11, 60, 64
12, 93120, Note_on_c, 11, 61, 64
12, 93192, Note_off_c, 11, 61, 64
12, 93480, Note_on_c, 11, 56, 64
12, 93600, Note_off_c, 11, 56, 64
12, 93600, Note_on_c, 11, 56, 96
12, 94050, Note_off_c, 11, 56, 64
12, 94080, Note_on_c, 11, 56, 77
12, 94152, Note_off_c, 11, 56, 64
12, 94440, Note_on_c, 11, 56, 64
12, 94560, Note_off_c, 11, 56, 64
12, 94560, Note_on_c, 11, 56, 96
12, 95010, Note_off_c, 11, 56, 64
12, 95040, Note_on_c, 11, 56, 77
12, 95112, Note_off_c, 11, 56, 64
12, 95400, Note_on_c, 11, 56, 64
12, 95520, Note_off_c, 11, 56, 64
12, 95520, Note_on_c, 11, 56, 96
12, 95970, Note_off_c, 11, 56, 64
12, 96000, Note_on_c, 11, 56, 77
12, 96072, Note_off_c, 11, 56, 64
12, 96360, Note_on_c, 11, 56, 64
12, 96480, Note_off_c, 11, 56, 64
12, 96480, Note_on_c, 11, 56, 96
12, 96930, Note_off_c, 11, 56, 64
12, 96960, Note_on_c, 11, 61, 64
12, 97186, Note_off_c, 11, 61, 64
12, 101760, Note_on_c, 11, 60, 40
12, 102144, Note_off_c, 11, 60, 64
12, 102240, Note_on_c, 11, 60, 40
12, 102624, Note_off_c, 11, 60, 64
12, 102720, Note_on_c, 11, 61, 64
12, 102792, Note_off_c, 11, 61, 64
12, 103080, Note_on_c, 11, 56, 64
12, 103200, Note_off_c, 11, 56, 64
12, 103200, Note_on_c, 11, 56, 96
12, 103650, Note_off_c, 11, 56, 64
12, 103680, Note_on_c, 11, 56, 77
12, 103752, Note_off_c, 11, 56, 64
12, 104040, Note_on_c, 11, 56, 64
12, 104160, Note_off_c, 11, 56, 64
12, 104160, Note_on_c, 11, 56, 96
12, 104610, Note_off_c, 11, 56, 64
12, 104640, Note_on_c, 11, 56, 77
12, 104712, Note_off_c, 11, 56, 64
12, 105000, Note_on_c, 11, 56, 64
12, 105120, Note_off_c, 11, 56, 64
12, 105120, Note_on_c, 11, 56, 96
12, 105570, Note_off_c, 11, 56, 64
12, 105600, Note_on_c, 11, 56, 77
12, 105672, Note_off_c, 11, 56, 64
12, 105960, Note_on_c, 11, 56, 64
12, 106080, Note_off_c, 11, 56, 64
12, 106080, Note_on_c, 11, 56, 96
12, 106530, Note_off_c, 11, 56, 64
12, 106560, Note_on_c, 11, 61, 64
12, 106786, Note_off_c, 11, 61, 64
12, 112680, Note_on_c, 11, 55, 60
12, 112800, Note_off_c, 11, 55, 64
12, 112800, Note_on_c, 11, 52, 60
12, 112896, Note_off_c, 11, 52, 64
12, 113160, Note_on_c, 11, 49, 60
12, 113280, Note_off_c, 11, 49, 64
12, 113280, Note_on_c, 11, 52, 60
12, 113376, Note_off_c, 11, 52, 64
12, 113640, Note_on_c, 11, 55, 60
12, 113760, Note_off_c, 11, 55, 64
12, 113760, Note_on_c, 11, 57, 60
12, 113856, Note_off_c, 11, 57, 64
12, 114120, Note_on_c, 11, 61, 60
12, 114240, Note_off_c, 11, 61, 64
12, 114240, Note_on_c, 11, 64, 60
12, 114336, Note_off_c, 11, 64, 64
12, 118440, Note_on_c, 11, 55, 86
12, 118560, Note_off_c, 11, 55, 64
12, 118560, Note_on_c, 11, 52, 86
12, 118656, Note_off_c, 11, 52, 64
12, 118920, Note_on_c, 11, 49, 86
12, 119040, Note_off_c, 11, 49, 64
12, 119040, Note_on_c, 11, 52, 86
12, 119136, Note_off_c, 11, 52, 64
12, 119400, Note_on_c, 11, 55, 86
12, 119520, Note_off_c, 11, 55, 64
12, 119520, Note_on_c, 11, 57, 86
12, 119616, Note_off_c, 11, 57, 64
12, 119880, Note_on_c, 11, 61, 86
12, 120000, Note_off_c, 11, 61, 64
12, 120000, Note_on_c, 11, 64, 71
12, 120096, Note_off_c, 11, 64, 64
12, 121920, Note_on_c, 11, 63, 99
12, 122016, Note_off_c, 11, 63, 64
12, 122040, Note_on_c, 11, 63, 99
12, 122136, Note_off_c, 11, 63, 64
12, 122160, Note_on_c, 11, 63, 99
12, 122256, Note_off_c, 11, 63, 64
12, 122280, Note_on_c, 11, 63, 99
12, 122376, Note_off_c, 11, 63, 64
12, 122400, Note_on_c, 11, 63, 99
12, 122496, Note_off_c, 11, 63, 64
12, 122520, Note_on_c, 11, 63, 99
12, 122616, Note_off_c, 11, 63, 64
12, 122640, Note_on_c, 11, 63, 99
12, 122736, Note_off_c, 11, 63, 64
12, 122760, Note_on_c, 11, 63, 99
12, 122856, Note_off_c, 11, 63, 64
12, 122880, Note_on_c, 11, 63, 99
12, 122976, Note_off_c, 11, 63, 64
12, 123000, Note_on_c, 11, 63, 99
12, 123096, Note_off_c, 11, 63, 64
12, 123120, Note_on_c, 11, 63, 99
12, 123216, Note_off_c, 11, 63, 64
12, 123240, Note_on_c, 11, 63, 99
12, 123336, Note_off_c, 11, 63, 64
12, 123360, Note_on_c, 11, 63, 99
12, 123456, Note_off_c, 11, 63, 64
12, 123480, Note_on_c, 11, 63, 99
12, 123576, Note_off_c, 11, 63, 64
12, 123600, Note_on_c, 11, 63, 99
12, 123696, Note_off_c, 11, 63, 64
12, 123720, Note_on_c, 11, 63, 99
12, 123816, Note_off_c, 11, 63, 64
12, 123840, Note_on_c, 11, 64, 127
12, 123936, Note_off_c, 11, 64, 64
12, 123960, Note_on_c, 11, 64, 99
12, 124056, Note_off_c, 11, 64, 64
12, 124080, Note_on_c, 11, 64, 99
12, 124176, Note_off_c, 11, 64, 64
12, 124200, Note_on_c, 11, 64, 99
12, 124296, Note_off_c, 11, 64, 64
12, 124320, Note_on_c, 11, 64, 99
12, 124416, Note_off_c, 11, 64, 64
12, 124440, Note_on_c, 11, 64, 99
12, 124536, Note_off_c, 11, 64, 64
12, 124560, Note_on_c, 11, 64, 99
12, 124656, Note_off_c, 11, 64, 64
12, 124680, Note_on_c, 11, 64, 99
12, 124776, Note_off_c, 11, 64, 64
12, 124800, Note_on_c, 11, 63, 127
12, 124896, Note_off_c, 11, 63, 64
12, 124920, Note_on_c, 11, 63, 99
12, 125016, Note_off_c, 11, 63, 64
12, 125040, Note_on_c, 11, 63, 99
12, 125136, Note_off_c, 11, 63, 64
12, 125160, Note_on_c, 11, 63, 99
12, 125256, Note_off_c, 11, 63, 64
12, 125280, Note_on_c, 11, 63, 99
12, 125376, Note_off_c, 11, 63, 64
12, 125400, Note_on_c, 11, 63, 99
12, 125496, Note_off_c, 11, 63, 64
12, 125520, Note_on_c, 11, 63, 99
12, 125616, Note_off_c, 11, 63, 64
12, 125640, Note_on_c, 11, 63, 99
12, 125736, Note_off_c, 11, 63, 64
12, 125760, Note_on_c, 11, 64, 127
12, 125856, Note_off_c, 11, 64, 64
12, 125880, Note_on_c, 11, 64, 99
12, 125976, Note_off_c, 11, 64, 64
12, 126000, Note_on_c, 11, 64, 99
12, 126096, Note_off_c, 11, 64, 64
12, 126120, Note_on_c, 11, 64, 99
12, 126216, Note_off_c, 11, 64, 64
12, 126240, Note_on_c, 11, 64, 99
12, 126336, Note_off_c, 11, 64, 64
12, 126360, Note_on_c, 11, 64, 99
12, 126456, Note_off_c, 11, 64, 64
12, 126480, Note_on_c, 11, 64, 99
12, 126576, Note_off_c, 11, 64, 64
12, 126600, Note_on_c, 11, 64, 99
12, 126696, Note_off_c, 11, 64, 64
12, 126720, Note_on_c, 11, 63, 127
12, 126816, Note_off_c, 11, 63, 64
12, 126840, Note_on_c, 11, 63, 99
12, 126936, Note_off_c, 11, 63, 64
12, 126960, Note_on_c, 11, 63, 99
12, 127056, Note_off_c, 11, 63, 64
12, 127080, Note_on_c, 11, 63, 99
12, 127176, Note_off_c, 11, 63, 64
12, 127200, Note_on_c, 11, 63, 99
12, 127296, Note_off_c, 11, 63, 64
12, 127320, Note_on_c, 11, 63, 99
12, 127416, Note_off_c, 11, 63, 64
12, 127440, Note_on_c, 11, 63, 99
12, 127536, Note_off_c, 11, 63, 64
12, 127560, Note_on_c, 11, 63, 99
12, 127656, Note_off_c, 11, 63, 64
12, 127680, Note_on_c, 11, 64, 127
12, 127776, Note_off_c, 11, 64, 64
12, 127800, Note_on_c, 11, 61, 99
12, 127896, Note_off_c, 11, 61, 64
12, 127920, Note_on_c, 11, 73, 99
12, 128016, Note_off_c, 11, 73, 64
12, 128040, Note_on_c, 11, 73, 99
12, 128136, Note_off_c, 11, 73, 64
12, 128160, Note_on_c, 11, 73, 99
12, 128256, Note_off_c, 11, 73, 64
12, 128280, Note_on_c, 11, 73, 99
12, 128376, Note_off_c, 11, 73, 64
12, 128400, Note_on_c, 11, 73, 99
12, 128496, Note_off_c, 11, 73, 64
12, 128520, Note_on_c, 11, 73, 99
12, 128616, Note_off_c, 11, 73, 64
12, 128640, Note_on_c, 11, 73, 127
12, 128736, Note_off_c, 11, 73, 64
12, 128760, Note_on_c, 11, 73, 99
12, 128856, Note_off_c, 11, 73, 64
12, 128880, Note_on_c, 11, 73, 99
12, 128976, Note_off_c, 11, 73, 64
12, 129000, Note_on_c, 11, 73, 99
12, 129096, Note_off_c, 11, 73, 64
12, 129120, Note_on_c, 11, 73, 99
12, 129216, Note_off_c, 11, 73, 64
12, 129240, Note_on_c, 11, 73, 99
12, 129336, Note_off_c, 11, 73, 64
12, 129360, Note_on_c, 11, 73, 99
12, 129456, Note_off_c, 11, 73, 64
12, 129480, Note_on_c, 11, 73, 99
12, 129576, Note_off_c, 11, 73, 64
12, 129600, Note_on_c, 11, 73, 127
12, 129696, Note_off_c, 11, 73, 64
12, 129720, Note_on_c, 11, 61, 99
12, 129816, Note_off_c, 11, 61, 64
12, 129840, Note_on_c, 11, 61, 99
12, 129936, Note_off_c, 11, 61, 64
12, 129960, Note_on_c, 11, 61, 99
12, 130056, Note_off_c, 11, 61, 64
12, 130080, Note_on_c, 11, 61, 99
12, 130176, Note_off_c, 11, 61, 64
12, 130200, Note_on_c, 11, 61, 99
12, 130296, Note_off_c, 11, 61, 64
12, 130320, Note_on_c, 11, 61, 99
12, 130416, Note_off_c, 11, 61, 64
12, 130440, Note_on_c, 11, 61, 99
12, 130536, Note_off_c, 11, 61, 64
12, 130560, Note_on_c, 11, 60, 127
12, 130656, Note_off_c, 11, 60, 64
12, 130680, Note_on_c, 11, 60, 99
12, 130776, Note_off_c, 11, 60, 64
12, 130800, Note_on_c, 11, 60, 99
12, 130896, Note_off_c, 11, 60, 64
12, 130920, Note_on_c, 11, 60, 99
12, 131016, Note_off_c, 11, 60, 64
12, 131040, Note_on_c, 11, 60, 99
12, 131136, Note_off_c, 11, 60, 64
12, 131160, Note_on_c, 11, 60, 99
12, 131256, Note_off_c, 11, 60, 64
12, 131280, Note_on_c, 11, 60, 99
12, 131376, Note_off_c, 11, 60, 64
12, 131400, Note_on_c, 11, 60, 99
12, 131496, Note_off_c, 11, 60, 64
12, 131520, Note_on_c, 11, 61, 127
12, 131616, Note_off_c, 11, 61, 64
12, 131640, Note_on_c, 11, 64, 127
12, 131736, Note_off_c, 11, 64, 64
12, 131760, Note_on_c, 11, 66, 127
12, 131856, Note_off_c, 11, 66, 64
12, 131880, Note_on_c, 11, 68, 127
12, 131976, Note_off_c, 11, 68, 64
12, 132000, Note_on_c, 11, 71, 127
12, 132096, Note_off_c, 11, 71, 64
12, 132120, Note_on_c, 11, 69, 127
12, 132216, Note_off_c, 11, 69, 64
12, 132240, Note_on_c, 11, 68, 127
12, 132336, Note_off_c, 11, 68, 64
12, 132360, Note_on_c, 11, 66, 127
12, 132456, Note_off_c, 11, 66, 64
12, 132480, Note_on_c, 11, 71, 127
12, 132576, Note_off_c, 11, 71, 64
12, 132600, Note_on_c, 11, 69, 127
12, 132696, Note_off_c, 11, 69, 64
12, 132720, Note_on_c, 11, 68, 127
12, 132816, Note_off_c, 11, 68, 64
12, 132840, Note_on_c, 11, 66, 127
12, 132936, Note_off_c, 11, 66, 64
12, 132960, Note_on_c, 11, 71, 127
12, 133056, Note_off_c, 11, 71, 64
12, 133080, Note_on_c, 11, 69, 127
12, 133176, Note_off_c, 11, 69, 64
12, 133200, Note_on_c, 11, 68, 127
12, 133296, Note_off_c, 11, 68, 64
12, 133320, Note_on_c, 11, 66, 127
12, 133416, Note_off_c, 11, 66, 64
12, 133440, Note_on_c, 11, 68, 127
12, 133536, Note_off_c, 11, 68, 64
12, 133560, Note_on_c, 11, 64, 127
12, 133656, Note_off_c, 11, 64, 64
12, 133680, Note_on_c, 11, 66, 127
12, 133776, Note_off_c, 11, 66, 64
12, 133800, Note_on_c, 11, 68, 127
12, 133896, Note_off_c, 11, 68, 64
12, 133920, Note_on_c, 11, 71, 127
12, 134016, Note_off_c, 11, 71, 64
12, 134040, Note_on_c, 11, 69, 127
12, 134136, Note_off_c, 11, 69, 64
12, 134160, Note_on_c, 11, 68, 127
12, 134256, Note_off_c, 11, 68, 64
12, 134280, Note_on_c, 11, 66, 127
12, 134376, Note_off_c, 11, 66, 64
12, 134400, Note_on_c, 11, 71, 127
12, 134496, Note_off_c, 11, 71, 64
12, 134520, Note_on_c, 11, 69, 127
12, 134616, Note_off_c, 11, 69, 64
12, 134640, Note_on_c, 11, 68, 127
12, 134736, Note_off_c, 11, 68, 64
12, 134760, Note_on_c, 11, 66, 127
12, 134856, Note_off_c, 11, 66, 64
12, 134880, Note_on_c, 11, 71, 127
12, 134976, Note_off_c, 11, 71, 64
12, 135000, Note_on_c, 11, 69, 127
12, 135096, Note_off_c, 11, 69, 64
12, 135120, Note_on_c, 11, 68, 127
12, 135216, Note_off_c, 11, 68, 64
12, 135240, Note_on_c, 11, 66, 127
12, 135336, Note_off_c, 11, 66, 64
12, 135360, Note_on_c, 11, 68, 127
12, 135456, Note_off_c, 11, 68, 64
12, 135480, Note_on_c, 11, 64, 127
12, 135576, Note_off_c, 11, 64, 64
12, 135600, Note_on_c, 11, 66, 127
12, 135696, Note_off_c, 11, 66, 64
12, 135720, Note_on_c, 11, 68, 127
12, 135816, Note_off_c, 11, 68, 64
12, 135840, Note_on_c, 11, 71, 127
12, 135936, Note_off_c, 11, 71, 64
12, 135960, Note_on_c, 11, 69, 127
12, 136056, Note_off_c, 11, 69, 64
12, 136080, Note_on_c, 11, 68, 127
12, 136176, Note_off_c, 11, 68, 64
12, 136200, Note_on_c, 11, 66, 127
12, 136296, Note_off_c, 11, 66, 64
12, 136320, Note_on_c, 11, 64, 127
12, 136416, Note_off_c, 11, 64, 64
12, 136440, Note_on_c, 11, 64, 127
12, 136536, Note_off_c, 11, 64, 64
12, 136560, Note_on_c, 11, 66, 127
12, 136656, Note_off_c, 11, 66, 64
12, 136680, Note_on_c, 11, 68, 127
12, 136776, Note_off_c, 11, 68, 64
12, 136800, Note_on_c, 11, 71, 127
12, 136896, Note_off_c, 11, 71, 64
12, 136920, Note_on_c, 11, 69, 127
12, 137016, Note_off_c, 11, 69, 64
12, 137040, Note_on_c, 11, 68, 127
12, 137136, Note_off_c, 11, 68, 64
12, 137160, Note_on_c, 11, 66, 127
12, 137256, Note_off_c, 11, 66, 64
12, 137280, Note_on_c, 11, 64, 127
12, 137376, Note_off_c, 11, 64, 64
12, 137400, Note_on_c, 11, 64, 127
12, 137496, Note_off_c, 11, 64, 64
12, 137520, Note_on_c, 11, 66, 127
12, 137616, Note_off_c, 11, 66, 64
12, 137640, Note_on_c, 11, 68, 127
12, 137736, Note_off_c, 11, 68, 64
12, 137760, Note_on_c, 11, 71, 127
12, 137856, Note_off_c, 11, 71, 64
12, 137880, Note_on_c, 11, 69, 127
12, 137976, Note_off_c, 11, 69, 64
12, 138000, Note_on_c, 11, 68, 127
12, 138096, Note_off_c, 11, 68, 64
12, 138120, Note_on_c, 11, 66, 127
12, 138216, Note_off_c, 11, 66, 64
12, 138240, Note_on_c, 11, 64, 127
12, 138336, Note_off_c, 11, 64, 64
12, 138360, Note_on_c, 11, 49, 127
12, 138456, Note_off_c, 11, 49, 64
12, 138480, Note_on_c, 11, 61, 127
12, 138576, Note_off_c, 11, 61, 64
12, 138600, Note_on_c, 11, 61, 127
12, 138696, Note_off_c, 11, 61, 64
12, 138720, Note_on_c, 11, 59, 127
12, 138816, Note_off_c, 11, 59, 64
12, 138840, Note_on_c, 11, 59, 127
12, 138936, Note_off_c, 11, 59, 64
12, 138960, Note_on_c, 11, 59, 127
12, 139056, Note_off_c, 11, 59, 64
12, 139080, Note_on_c, 11, 59, 127
12, 139176, Note_off_c, 11, 59, 64
12, 139200, Note_on_c, 11, 52, 127
12, 139200, Note_on_c, 11, 59, 127
12, 139200, Note_on_c, 11, 64, 127
12, 139344, Note_off_c, 11, 64, 64
12, 139344, Note_off_c, 11, 59, 64
12, 139344, Note_off_c, 11, 52, 64
12, 141600, Note_on_c, 11, 52, 127
12, 141600, Note_on_c, 11, 59, 127
12, 141600, Note_on_c, 11, 62, 127
12, 141744, Note_off_c, 11, 62, 64
12, 141744, Note_off_c, 11, 59, 64
12, 141744, Note_off_c, 11, 52, 64
12, 144000, Note_on_c, 11, 56, 127
12, 144096, Note_off_c, 11, 56, 64
12, 144120, Note_on_c, 11, 56, 72
12, 144216, Note_off_c, 11, 56, 64
12, 144240, Note_on_c, 11, 56, 72
12, 144336, Note_off_c, 11, 56, 64
12, 144360, Note_on_c, 11, 56, 72
12, 144456, Note_off_c, 11, 56, 64
12, 144480, Note_on_c, 11, 54, 127
12, 144576, Note_off_c, 11, 54, 64
12, 144600, Note_on_c, 11, 54, 72
12, 144696, Note_off_c, 11, 54, 64
12, 144720, Note_on_c, 11, 56, 72
12, 144816, Note_off_c, 11, 56, 64
12, 144840, Note_on_c, 11, 56, 72
12, 144936, Note_off_c, 11, 56, 64
12, 144960, Note_on_c, 11, 57, 72
12, 145056, Note_off_c, 11, 57, 64
12, 145080, Note_on_c, 11, 57, 72
12, 145176, Note_off_c, 11, 57, 64
12, 145200, Note_on_c, 11, 57, 72
12, 145200, Note_on_c, 11, 57, 72
12, 145296, Note_off_c, 11, 57, 64
12, 145296, Note_off_c, 11, 57, 64
12, 145320, Note_on_c, 11, 57, 72
12, 145416, Note_off_c, 11, 57, 64
12, 145440, Note_on_c, 11, 56, 127
12, 145536, Note_off_c, 11, 56, 64
12, 145560, Note_on_c, 11, 56, 72
12, 145656, Note_off_c, 11, 56, 64
12, 145680, Note_on_c, 11, 57, 72
12, 145776, Note_off_c, 11, 57, 64
12, 145800, Note_on_c, 11, 57, 72
12, 145896, Note_off_c, 11, 57, 64
12, 145920, Note_on_c, 11, 56, 72
12, 146016, Note_off_c, 11, 56, 64
12, 146040, Note_on_c, 11, 56, 72
12, 146136, Note_off_c, 11, 56, 64
12, 146160, Note_on_c, 11, 56, 72
12, 146256, Note_off_c, 11, 56, 64
12, 146280, Note_on_c, 11, 56, 72
12, 146376, Note_off_c, 11, 56, 64
12, 146400, Note_on_c, 11, 54, 127
12, 146496, Note_off_c, 11, 54, 64
12, 146520, Note_on_c, 11, 54, 72
12, 146616, Note_off_c, 11, 54, 64
12, 146640, Note_on_c, 11, 56, 72
12, 146736, Note_off_c, 11, 56, 64
12, 146760, Note_on_c, 11, 56, 72
12, 146856, Note_off_c, 11, 56, 64
12, 146880, Note_on_c, 11, 57, 72
12, 146976, Note_off_c, 11, 57, 64
12, 147000, Note_on_c, 11, 57, 72
12, 147096, Note_off_c, 11, 57, 64
12, 147120, Note_on_c, 11, 59, 72
12, 147216, Note_off_c, 11, 59, 64
12, 147240, Note_on_c, 11, 61, 72
12, 147336, Note_off_c, 11, 61, 64
12, 147360, Note_on_c, 11, 62, 127
12, 147456, Note_off_c, 11, 62, 64
12, 147480, Note_on_c, 11, 61, 72
12, 147576, Note_off_c, 11, 61, 64
12, 147600, Note_on_c, 11, 59, 72
12, 147696, Note_off_c, 11, 59, 64
12, 147720, Note_on_c, 11, 57, 72
12, 147816, Note_off_c, 11, 57, 64
12, 147840, Note_on_c, 11, 56, 72
12, 147936, Note_off_c, 11, 56, 64
12, 147960, Note_on_c, 11, 56, 72
12, 148056, Note_off_c, 11, 56, 64
12, 148080, Note_on_c, 11, 56, 72
12, 148176, Note_off_c, 11, 56, 64
12, 148200, Note_on_c, 11, 56, 72
12, 148296, Note_off_c, 11, 56, 64
12, 148320, Note_on_c, 11, 54, 127
12, 148416, Note_off_c, 11, 54, 64
12, 148440, Note_on_c, 11, 54, 72
12, 148536, Note_off_c, 11, 54, 64
12, 148560, Note_on_c, 11, 56, 72
12, 148656, Note_off_c, 11, 56, 64
12, 148680, Note_on_c, 11, 56, 72
12, 148776, Note_off_c, 11, 56, 64
12, 148800, Note_on_c, 11, 57, 72
12, 148896, Note_off_c, 11, 57, 64
12, 148920, Note_on_c, 11, 57, 72
12, 149016, Note_off_c, 11, 57, 64
12, 149040, Note_on_c, 11, 57, 72
12, 149040, Note_on_c, 11, 57, 72
12, 149136, Note_off_c, 11, 57, 64
12, 149136, Note_off_c, 11, 57, 64
12, 149160, Note_on_c, 11, 57, 72
12, 149256, Note_off_c, 11, 57, 64
12, 149280, Note_on_c, 11, 56, 127
12, 149376, Note_off_c, 11, 56, 64
12, 149400, Note_on_c, 11, 56, 72
12, 149496, Note_off_c, 11, 56, 64
12, 149520, Note_on_c, 11, 57, 72
12, 149616, Note_off_c, 11, 57, 64
12, 149640, Note_on_c, 11, 57, 72
12, 149736, Note_off_c, 11, 57, 64
12, 149760, Note_on_c, 11, 56, 72
12, 149856, Note_off_c, 11, 56, 64
12, 149880, Note_on_c, 11, 56, 72
12, 149976, Note_off_c, 11, 56, 64
12, 150000, Note_on_c, 11, 56, 72
12, 150096, Note_off_c, 11, 56, 64
12, 150120, Note_on_c, 11, 56, 72
12, 150216, Note_off_c, 11, 56, 64
12, 150240, Note_on_c, 11, 54, 127
12, 150336, Note_off_c, 11, 54, 64
12, 150360, Note_on_c, 11, 54, 72
12, 150456, Note_off_c, 11, 54, 64
12, 150480, Note_on_c, 11, 56, 72
12, 150576, Note_off_c, 11, 56, 64
12, 150600, Note_on_c, 11, 56, 72
12, 150696, Note_off_c, 11, 56, 64
12, 150720, Note_on_c, 11, 57, 72
12, 150816, Note_off_c, 11, 57, 64
12, 150840, Note_on_c, 11, 59, 72
12, 150936, Note_off_c, 11, 59, 64
12, 150960, Note_on_c, 11, 61, 72
12, 151056, Note_off_c, 11, 61, 64
12, 151080, Note_on_c, 11, 62, 72
12, 151176, Note_off_c, 11, 62, 64
12, 151200, Note_on_c, 11, 64, 72
12, 151296, Note_off_c, 11, 64, 64
12, 151320, Note_on_c, 11, 66, 72
12, 151416, Note_off_c, 11, 66, 64
12, 151440, Note_on_c, 11, 68, 72
12, 151536, Note_off_c, 11, 68, 64
12, 151560, Note_on_c, 11, 69, 72
12, 151656, Note_off_c, 11, 69, 64
12, 151680, Note_on_c, 11, 56, 127
12, 151776, Note_off_c, 11, 56, 64
12, 151800, Note_on_c, 11, 56, 72
12, 151896, Note_off_c, 11, 56, 64
12, 151920, Note_on_c, 11, 56, 72
12, 152016, Note_off_c, 11, 56, 64
12, 152040, Note_on_c, 11, 56, 72
12, 152136, Note_off_c, 11, 56, 64
12, 152160, Note_on_c, 11, 54, 127
12, 152256, Note_off_c, 11, 54, 64
12, 152280, Note_on_c, 11, 54, 72
12, 152376, Note_off_c, 11, 54, 64
12, 152400, Note_on_c, 11, 56, 72
12, 152496, Note_off_c, 11, 56, 64
12, 152520, Note_on_c, 11, 56, 72
12, 152616, Note_off_c, 11, 56, 64
12, 152640, Note_on_c, 11, 57, 72
12, 152736, Note_off_c, 11, 57, 64
12, 152760, Note_on_c, 11, 57, 72
12, 152856, Note_off_c, 11, 57, 64
12, 152880, Note_on_c, 11, 57, 72
12, 152880, Note_on_c, 11, 57, 72
12, 152976, Note_off_c, 11, 57, 64
12, 152976, Note_off_c, 11, 57, 64
12, 153000, Note_on_c, 11, 57, 72
12, 153096, Note_off_c, 11, 57, 64
12, 153120, Note_on_c, 11, 56, 127
12, 153216, Note_off_c, 11, 56, 64
12, 153240, Note_on_c, 11, 56, 72
12, 153336, Note_off_c, 11, 56, 64
12, 153360, Note_on_c, 11, 57, 72
12, 153456, Note_off_c, 11, 57, 64
12, 153480, Note_on_c, 11, 57, 72
12, 153576, Note_off_c, 11, 57, 64
12, 153600, Note_on_c, 11, 56, 72
12, 153696, Note_off_c, 11, 56, 64
12, 153720, Note_on_c, 11, 56, 72
12, 153816, Note_off_c, 11, 56, 64
12, 153840, Note_on_c, 11, 56, 72
12, 153936, Note_off_c, 11, 56, 64
12, 153960, Note_on_c, 11, 56, 72
12, 154056, Note_off_c, 11, 56, 64
12, 154080, Note_on_c, 11, 54, 127
12, 154176, Note_off_c, 11, 54, 64
12, 154200, Note_on_c, 11, 54, 72
12, 154296, Note_off_c, 11, 54, 64
12, 154320, Note_on_c, 11, 56, 72
12, 154416, Note_off_c, 11, 56, 64
12, 154440, Note_on_c, 11, 56, 72
12, 154536, Note_off_c, 11, 56, 64
12, 154560, Note_on_c, 11, 57, 72
12, 154656, Note_off_c, 11, 57, 64
12, 154680, Note_on_c, 11, 57, 72
12, 154776, Note_off_c, 11, 57, 64
12, 154800, Note_on_c, 11, 59, 72
12, 154896, Note_off_c, 11, 59, 64
12, 154920, Note_on_c, 11, 61, 72
12, 155016, Note_off_c, 11, 61, 64
12, 155040, Note_on_c, 11, 62, 127
12, 155136, Note_off_c, 11, 62, 64
12, 155160, Note_on_c, 11, 61, 72
12, 155256, Note_off_c, 11, 61, 64
12, 155280, Note_on_c, 11, 59, 72
12, 155376, Note_off_c, 11, 59, 64
12, 155400, Note_on_c, 11, 57, 72
12, 155496, Note_off_c, 11, 57, 64
12, 155520, Note_on_c, 11, 56, 72
12, 155616, Note_off_c, 11, 56, 64
12, 155640, Note_on_c, 11, 56, 72
12, 155736, Note_off_c, 11, 56, 64
12, 155760, Note_on_c, 11, 56, 72
12, 155856, Note_off_c, 11, 56, 64
12, 155880, Note_on_c, 11, 56, 72
12, 155976, Note_off_c, 11, 56, 64
12, 156000, Note_on_c, 11, 54, 127
12, 156096, Note_off_c, 11, 54, 64
12, 156120, Note_on_c, 11, 54, 72
12, 156216, Note_off_c, 11, 54, 64
12, 156240, Note_on_c, 11, 56, 72
12, 156336, Note_off_c, 11, 56, 64
12, 156360, Note_on_c, 11, 56, 72
12, 156456, Note_off_c, 11, 56, 64
12, 156480, Note_on_c, 11, 57, 72
12, 156576, Note_off_c, 11, 57, 64
12, 156600, Note_on_c, 11, 57, 72
12, 156696, Note_off_c, 11, 57, 64
12, 156720, Note_on_c, 11, 57, 72
12, 156720, Note_on_c, 11, 57, 72
12, 156816, Note_off_c, 11, 57, 64
12, 156816, Note_off_c, 11, 57, 64
12, 156840, Note_on_c, 11, 57, 72
12, 156936, Note_off_c, 11, 57, 64
12, 156960, Note_on_c, 11, 56, 127
12, 157056, Note_off_c, 11, 56, 64
12, 157080, Note_on_c, 11, 56, 72
12, 157176, Note_off_c, 11, 56, 64
12, 157200, Note_on_c, 11, 57, 72
12, 157296, Note_off_c, 11, 57, 64
12, 157320, Note_on_c, 11, 57, 72
12, 157416, Note_off_c, 11, 57, 64
12, 157440, Note_on_c, 11, 56, 72
12, 157536, Note_off_c, 11, 56, 64
12, 157560, Note_on_c, 11, 56, 72
12, 157656, Note_off_c, 11, 56, 64
12, 157680, Note_on_c, 11, 56, 72
12, 157776, Note_off_c, 11, 56, 64
12, 157800, Note_on_c, 11, 56, 72
12, 157896, Note_off_c, 11, 56, 64
12, 157920, Note_on_c, 11, 54, 127
12, 158016, Note_off_c, 11, 54, 64
12, 158040, Note_on_c, 11, 54, 72
12, 158136, Note_off_c, 11, 54, 64
12, 158160, Note_on_c, 11, 56, 72
12, 158256, Note_off_c, 11, 56, 64
12, 158280, Note_on_c, 11, 56, 72
12, 158376, Note_off_c, 11, 56, 64
12, 158400, Note_on_c, 11, 57, 72
12, 158496, Note_off_c, 11, 57, 64
12, 158520, Note_on_c, 11, 59, 72
12, 158616, Note_off_c, 11, 59, 64
12, 158640, Note_on_c, 11, 61, 72
12, 158736, Note_off_c, 11, 61, 64
12, 158760, Note_on_c, 11, 62, 72
12, 158856, Note_off_c, 11, 62, 64
12, 158880, Note_on_c, 11, 64, 72
12, 158976, Note_off_c, 11, 64, 64
12, 159000, Note_on_c, 11, 62, 72
12, 159096, Note_off_c, 11, 62, 64
12, 159120, Note_on_c, 11, 64, 72
12, 159216, Note_off_c, 11, 64, 64
12, 159240, Note_on_c, 11, 61, 72
12, 159336, Note_off_c, 11, 61, 64
12, 159360, Note_on_c, 11, 57, 127
12, 159456, Note_off_c, 11, 57, 64
12, 159480, Note_on_c, 11, 54, 72
12, 159576, Note_off_c, 11, 54, 64
12, 159600, Note_on_c, 11, 54, 72
12, 159696, Note_off_c, 11, 54, 64
12, 159720, Note_on_c, 11, 54, 72
12, 159816, Note_off_c, 11, 54, 64
12, 159840, Note_on_c, 11, 53, 127
12, 159936, Note_off_c, 11, 53, 64
12, 159960, Note_on_c, 11, 53, 72
12, 160056, Note_off_c, 11, 53, 64
12, 160080, Note_on_c, 11, 54, 72
12, 160176, Note_off_c, 11, 54, 64
12, 160200, Note_on_c, 11, 54, 72
12, 160296, Note_off_c, 11, 54, 64
12, 160320, Note_on_c, 11, 52, 72
12, 160416, Note_off_c, 11, 52, 64
12, 160440, Note_on_c, 11, 57, 72
12, 160536, Note_off_c, 11, 57, 64
12, 160560, Note_on_c, 11, 57, 72
12, 160656, Note_off_c, 11, 57, 64
12, 160680, Note_on_c, 11, 57, 72
12, 160776, Note_off_c, 11, 57, 64
12, 160800, Note_on_c, 11, 57, 127
12, 160896, Note_off_c, 11, 57, 64
12, 160920, Note_on_c, 11, 57, 72
12, 161016, Note_off_c, 11, 57, 64
12, 161040, Note_on_c, 11, 57, 72
12, 161136, Note_off_c, 11, 57, 64
12, 161160, Note_on_c, 11, 57, 72
12, 161256, Note_off_c, 11, 57, 64
12, 161280, Note_on_c, 11, 57, 72
12, 161376, Note_off_c, 11, 57, 64
12, 161400, Note_on_c, 11, 54, 72
12, 161496, Note_off_c, 11, 54, 64
12, 161520, Note_on_c, 11, 54, 72
12, 161616, Note_off_c, 11, 54, 64
12, 161640, Note_on_c, 11, 54, 72
12, 161736, Note_off_c, 11, 54, 64
12, 161760, Note_on_c, 11, 53, 127
12, 161856, Note_off_c, 11, 53, 64
12, 161880, Note_on_c, 11, 53, 72
12, 161976, Note_off_c, 11, 53, 64
12, 162000, Note_on_c, 11, 54, 72
12, 162096, Note_off_c, 11, 54, 64
12, 162120, Note_on_c, 11, 54, 72
12, 162216, Note_off_c, 11, 54, 64
12, 162240, Note_on_c, 11, 52, 72
12, 162336, Note_off_c, 11, 52, 64
12, 162360, Note_on_c, 11, 57, 72
12, 162456, Note_off_c, 11, 57, 64
12, 162480, Note_on_c, 11, 57, 72
12, 162576, Note_off_c, 11, 57, 64
12, 162600, Note_on_c, 11, 57, 72
12, 162696, Note_off_c, 11, 57, 64
12, 162720, Note_on_c, 11, 54, 127
12, 162816, Note_off_c, 11, 54, 64
12, 162840, Note_on_c, 11, 58, 72
12, 162936, Note_off_c, 11, 58, 64
12, 162960, Note_on_c, 11, 58, 72
12, 163056, Note_off_c, 11, 58, 64
12, 163080, Note_on_c, 11, 58, 72
12, 163176, Note_off_c, 11, 58, 64
12, 163200, Note_on_c, 11, 54, 72
12, 163296, Note_off_c, 11, 54, 64
12, 163320, Note_on_c, 11, 57, 72
12, 163416, Note_off_c, 11, 57, 64
12, 163440, Note_on_c, 11, 57, 72
12, 163536, Note_off_c, 11, 57, 64
12, 163560, Note_on_c, 11, 57, 72
12, 163656, Note_off_c, 11, 57, 64
12, 163680, Note_on_c, 11, 52, 127
12, 163776, Note_off_c, 11, 52, 64
12, 163800, Note_on_c, 11, 56, 72
12, 163896, Note_off_c, 11, 56, 64
12, 163920, Note_on_c, 11, 56, 72
12, 164016, Note_off_c, 11, 56, 64
12, 164040, Note_on_c, 11, 56, 72
12, 164136, Note_off_c, 11, 56, 64
12, 164160, Note_on_c, 11, 52, 72
12, 164256, Note_off_c, 11, 52, 64
12, 164280, Note_on_c, 11, 57, 72
12, 164376, Note_off_c, 11, 57, 64
12, 164400, Note_on_c, 11, 57, 72
12, 164496, Note_off_c, 11, 57, 64
12, 164520, Note_on_c, 11, 57, 72
12, 164616, Note_off_c, 11, 57, 64
12, 164640, Note_on_c, 11, 52, 127
12, 164736, Note_off_c, 11, 52, 64
12, 164760, Note_on_c, 11, 57, 72
12, 164856, Note_off_c, 11, 57, 64
12, 164880, Note_on_c, 11, 57, 72
12, 164976, Note_off_c, 11, 57, 64
12, 165000, Note_on_c, 11, 57, 72
12, 165096, Note_off_c, 11, 57, 64
12, 165120, Note_on_c, 11, 52, 72
12, 165216, Note_off_c, 11, 52, 64
12, 165240, Note_on_c, 11, 56, 72
12, 165336, Note_off_c, 11, 56, 64
12, 165360, Note_on_c, 11, 56, 72
12, 165456, Note_off_c, 11, 56, 64
12, 165480, Note_on_c, 11, 56, 72
12, 165576, Note_off_c, 11, 56, 64
12, 165600, Note_on_c, 11, 52, 127
12, 165696, Note_off_c, 11, 52, 64
12, 165720, Note_on_c, 11, 59, 72
12, 165816, Note_off_c, 11, 59, 64
12, 165840, Note_on_c, 11, 59, 72
12, 165936, Note_off_c, 11, 59, 64
12, 165960, Note_on_c, 11, 59, 72
12, 166056, Note_off_c, 11, 59, 64
12, 166080, Note_on_c, 11, 61, 72
12, 166176, Note_off_c, 11, 61, 64
12, 166200, Note_on_c, 11, 57, 72
12, 166296, Note_off_c, 11, 57, 64
12, 166320, Note_on_c, 11, 59, 72
12, 166416, Note_off_c, 11, 59, 64
12, 166440, Note_on_c, 11, 61, 72
12, 166536, Note_off_c, 11, 61, 64
12, 166560, Note_on_c, 11, 62, 72
12, 166656, Note_off_c, 11, 62, 64
12, 166680, Note_on_c, 11, 64, 72
12, 166776, Note_off_c, 11, 64, 64
12, 166800, Note_on_c, 11, 66, 72
12, 166896, Note_off_c, 11, 66, 64
12, 166920, Note_on_c, 11, 64, 72
12, 167016, Note_off_c, 11, 64, 64
12, 167040, Note_on_c, 11, 57, 127
12, 167136, Note_off_c, 11, 57, 64
12, 167160, Note_on_c, 11, 54, 72
12, 167256, Note_off_c, 11, 54, 64
12, 167280, Note_on_c, 11, 54, 72
12, 167376, Note_off_c, 11, 54, 64
12, 167400, Note_on_c, 11, 54, 72
12, 167496, Note_off_c, 11, 54, 64
12, 167520, Note_on_c, 11, 53, 127
12, 167616, Note_off_c, 11, 53, 64
12, 167640, Note_on_c, 11, 53, 72
12, 167736, Note_off_c, 11, 53, 64
12, 167760, Note_on_c, 11, 54, 72
12, 167856, Note_off_c, 11, 54, 64
12, 167880, Note_on_c, 11, 54, 72
12, 167976, Note_off_c, 11, 54, 64
12, 168000, Note_on_c, 11, 52, 72
12, 168096, Note_off_c, 11, 52, 64
12, 168120, Note_on_c, 11, 57, 72
12, 168216, Note_off_c, 11, 57, 64
12, 168240, Note_on_c, 11, 57, 72
12, 168336, Note_off_c, 11, 57, 64
12, 168360, Note_on_c, 11, 57, 72
12, 168456, Note_off_c, 11, 57, 64
12, 168480, Note_on_c, 11, 57, 127
12, 168576, Note_off_c, 11, 57, 64
12, 168600, Note_on_c, 11, 57, 72
12, 168696, Note_off_c, 11, 57, 64
12, 168720, Note_on_c, 11, 57, 72
12, 168816, Note_off_c, 11, 57, 64
12, 168840, Note_on_c, 11, 57, 72
12, 168936, Note_off_c, 11, 57, 64
12, 168960, Note_on_c, 11, 57, 72
12, 169056, Note_off_c, 11, 57, 64
12, 169080, Note_on_c, 11, 54, 72
12, 169176, Note_off_c, 11, 54, 64
12, 169200, Note_on_c, 11, 54, 72
12, 169296, Note_off_c, 11, 54, 64
12, 169320, Note_on_c, 11, 54, 72
12, 169416, Note_off_c, 11, 54, 64
12, 169440, Note_on_c, 11, 53, 127
12, 169536, Note_off_c, 11, 53, 64
12, 169560, Note_on_c, 11, 53, 72
12, 169656, Note_off_c, 11, 53, 64
12, 169680, Note_on_c, 11, 54, 72
12, 169776, Note_off_c, 11, 54, 64
12, 169800, Note_on_c, 11, 54, 72
12, 169896, Note_off_c, 11, 54, 64
12, 169920, Note_on_c, 11, 52, 72
12, 170016, Note_off_c, 11, 52, 64
12, 170040, Note_on_c, 11, 57, 72
12, 170136, Note_off_c, 11, 57, 64
12, 170160, Note_on_c, 11, 57, 72
12, 170256, Note_off_c, 11, 57, 64
12, 170280, Note_on_c, 11, 57, 72
12, 170376, Note_off_c, 11, 57, 64
12, 170400, Note_on_c, 11, 54, 127
12, 170496, Note_off_c, 11, 54, 64
12, 170520, Note_on_c, 11, 58, 72
12, 170616, Note_off_c, 11, 58, 64
12, 170640, Note_on_c, 11, 58, 72
12, 170736, Note_off_c, 11, 58, 64
12, 170760, Note_on_c, 11, 58, 72
12, 170856, Note_off_c, 11, 58, 64
12, 170880, Note_on_c, 11, 54, 72
12, 170976, Note_off_c, 11, 54, 64
12, 171000, Note_on_c, 11, 57, 72
12, 171096, Note_off_c, 11, 57, 64
12, 171120, Note_on_c, 11, 57, 72
12, 171216, Note_off_c, 11, 57, 64
12, 171240, Note_on_c, 11, 57, 72
12, 171336, Note_off_c, 11, 57, 64
12, 171360, Note_on_c, 11, 52, 127
12, 171456, Note_off_c, 11, 52, 64
12, 171480, Note_on_c, 11, 56, 72
12, 171576, Note_off_c, 11, 56, 64
12, 171600, Note_on_c, 11, 56, 72
12, 171696, Note_off_c, 11, 56, 64
12, 171720, Note_on_c, 11, 56, 72
12, 171816, Note_off_c, 11, 56, 64
12, 171840, Note_on_c, 11, 52, 72
12, 171936, Note_off_c, 11, 52, 64
12, 171960, Note_on_c, 11, 57, 72
12, 172056, Note_off_c, 11, 57, 64
12, 172080, Note_on_c, 11, 57, 72
12, 172176, Note_off_c, 11, 57, 64
12, 172200, Note_on_c, 11, 57, 72
12, 172296, Note_off_c, 11, 57, 64
12, 172320, Note_on_c, 11, 52, 127
12, 172416, Note_off_c, 11, 52, 64
12, 172440, Note_on_c, 11, 57, 72
12, 172536, Note_off_c, 11, 57, 64
12, 172560, Note_on_c, 11, 57, 72
12, 172656, Note_off_c, 11, 57, 64
12, 172680, Note_on_c, 11, 57, 72
12, 172776, Note_off_c, 11, 57, 64
12, 172800, Note_on_c, 11, 52, 72
12, 172896, Note_off_c, 11, 52, 64
12, 172920, Note_on_c, 11, 56, 72
12, 173016, Note_off_c, 11, 56, 64
12, 173040, Note_on_c, 11, 56, 72
12, 173136, Note_off_c, 11, 56, 64
12, 173160, Note_on_c, 11, 56, 72
12, 173256, Note_off_c, 11, 56, 64
12, 173280, Note_on_c, 11, 52, 127
12, 173376, Note_off_c, 11, 52, 64
12, 173400, Note_on_c, 11, 59, 72
12, 173496, Note_off_c, 11, 59, 64
12, 173520, Note_on_c, 11, 59, 72
12, 173616, Note_off_c, 11, 59, 64
12, 173640, Note_on_c, 11, 59, 72
12, 173736, Note_off_c, 11, 59, 64
12, 173760, Note_on_c, 11, 57, 127
12, 173760, Note_on_c, 11, 52, 108
12, 173880, Note_off_c, 11, 52, 64
12, 173880, Note_off_c, 11, 57, 64
12, 174840, Note_on_c, 11, 57, 127
12, 174840, Note_on_c, 11, 52, 108
12, 174960, Note_off_c, 11, 52, 64
12, 174960, Note_off_c, 11, 57, 64
12, 175920, Note_on_c, 11, 68, 108
12, 175920, Note_on_c, 11, 59, 127
12, 175920, Note_on_c, 11, 52, 108
12, 176040, Note_off_c, 11, 52, 64
12, 176040, Note_off_c, 11, 59, 64
12, 176040, Note_off_c, 11, 68, 64
12, 177000, Note_on_c, 11, 68, 108
12, 177000, Note_on_c, 11, 59, 127
12, 177000, Note_on_c, 11, 52, 108
12, 177120, Note_off_c, 11, 52, 64
12, 177120, Note_off_c, 11, 59, 64
12, 177120, Note_off_c, 11, 68, 64
12, 178080, Note_on_c, 11, 57, 127
12, 178080, Note_on_c, 11, 52, 108
12, 178200, Note_off_c, 11, 52, 64
12, 178200, Note_off_c, 11, 57, 64
12, 178560, Note_on_c, 11, 57, 127
12, 178560, Note_on_c, 11, 52, 108
12, 178680, Note_off_c, 11, 52, 64
12, 178680, Note_off_c, 11, 57, 64
12, 179040, Note_on_c, 11, 52, 108
12, 179040, Note_on_c, 11, 57, 127
12, 179160, Note_off_c, 11, 57, 64
12, 179160, Note_off_c, 11, 52, 64
12, 179520, Note_on_c, 11, 52, 108
12, 179520, Note_on_c, 11, 57, 127
12, 179640, Note_off_c, 11, 57, 64
12, 179640, Note_off_c, 11, 52, 64
12, 180000, Note_on_c, 11, 52, 108
12, 180000, Note_on_c, 11, 59, 127
12, 180000, Note_on_c, 11, 64, 108
12, 180120, Note_off_c, 11, 64, 64
12, 180120, Note_off_c, 11, 59, 64
12, 180120, Note_off_c, 11, 52, 64
12, 180480, Note_on_c, 11, 52, 108
12, 180480, Note_on_c, 11, 59, 127
12, 180480, Note_on_c, 11, 64, 108
12, 180600, Note_off_c, 11, 64, 64
12, 180600, Note_off_c, 11, 59, 64
12, 180600, Note_off_c, 11, 52, 64
12, 180960, Note_on_c, 11, 52, 108
12, 180960, Note_on_c, 11, 59, 127
12, 180960, Note_on_c, 11, 64, 108
12, 181080, Note_off_c, 11, 64, 64
12, 181080, Note_off_c, 11, 59, 64
12, 181080, Note_off_c, 11, 52, 64
12, 181440, Note_on_c, 11, 52, 108
12, 181440, Note_on_c, 11, 59, 127
12, 181440, Note_on_c, 11, 64, 108
12, 181560, Note_off_c, 11, 64, 64
12, 181560, Note_off_c, 11, 59, 64
12, 181560, Note_off_c, 11, 52, 64
12, 181920, Note_on_c, 11, 57, 127
12, 181920, Note_on_c, 11, 52, 108
12, 182040, Note_off_c, 11, 52, 64
12, 182040, Note_off_c, 11, 57, 64
12, 183000, Note_on_c, 11, 57, 127
12, 183000, Note_on_c, 11, 52, 108
12, 183120, Note_off_c, 11, 52, 64
12, 183120, Note_off_c, 11, 57, 64
12, 184080, Note_on_c, 11, 68, 108
12, 184080, Note_on_c, 11, 59, 127
12, 184080, Note_on_c, 11, 52, 108
12, 184200, Note_off_c, 11, 52, 64
12, 184200, Note_off_c, 11, 59, 64
12, 184200, Note_off_c, 11, 68, 64
12, 185160, Note_on_c, 11, 68, 108
12, 185160, Note_on_c, 11, 59, 127
12, 185160, Note_on_c, 11, 52, 108
12, 185280, Note_off_c, 11, 52, 64
12, 185280, Note_off_c, 11, 59, 64
12, 185280, Note_off_c, 11, 68, 64
12, 186240, Note_on_c, 11, 57, 100
12, 186336, Note_off_c, 11, 57, 64
12, 186360, Note_on_c, 11, 57, 100
12, 186456, Note_off_c, 11, 57, 64
12, 186480, Note_on_c, 11, 57, 100
12, 186576, Note_off_c, 11, 57, 64
12, 186600, Note_on_c, 11, 57, 100
12, 186696, Note_off_c, 11, 57, 64
12, 186720, Note_on_c, 11, 57, 100
12, 186816, Note_off_c, 11, 57, 64
12, 186840, Note_on_c, 11, 57, 100
12, 186936, Note_off_c, 11, 57, 64
12, 186960, Note_on_c, 11, 59, 100
12, 187056, Note_off_c, 11, 59, 64
12, 187080, Note_on_c, 11, 59, 100
12, 187176, Note_off_c, 11, 59, 64
12, 187200, Note_on_c, 11, 61, 100
12, 187296, Note_off_c, 11, 61, 64
12, 187320, Note_on_c, 11, 61, 100
12, 187416, Note_off_c, 11, 61, 64
12, 187440, Note_on_c, 11, 57, 100
12, 187536, Note_off_c, 11, 57, 64
12, 187560, Note_on_c, 11, 57, 100
12, 187656, Note_off_c, 11, 57, 64
12, 187680, Note_on_c, 11, 59, 100
12, 187776, Note_off_c, 11, 59, 64
12, 187800, Note_on_c, 11, 59, 100
12, 187896, Note_off_c, 11, 59, 64
12, 187920, Note_on_c, 11, 61, 100
12, 188016, Note_off_c, 11, 61, 64
12, 188040, Note_on_c, 11, 61, 100
12, 188136, Note_off_c, 11, 61, 64
12, 188160, Note_on_c, 11, 59, 100
12, 188256, Note_off_c, 11, 59, 64
12, 188280, Note_on_c, 11, 59, 100
12, 188376, Note_off_c, 11, 59, 64
12, 188400, Note_on_c, 11, 61, 100
12, 188496, Note_off_c, 11, 61, 64
12, 188520, Note_on_c, 11, 61, 100
12, 188616, Note_off_c, 11, 61, 64
12, 188640, Note_on_c, 11, 62, 100
12, 188736, Note_off_c, 11, 62, 64
12, 188760, Note_on_c, 11, 62, 100
12, 188856, Note_off_c, 11, 62, 64
12, 188880, Note_on_c, 11, 63, 100
12, 188976, Note_off_c, 11, 63, 64
12, 189000, Note_on_c, 11, 63, 100
12, 189096, Note_off_c, 11, 63, 64
12, 189120, Note_on_c, 11, 64, 100
12, 189216, Note_off_c, 11, 64, 64
12, 189240, Note_on_c, 11, 64, 100
12, 189336, Note_off_c, 11, 64, 64
12, 189360, Note_on_c, 11, 66, 100
12, 189456, Note_off_c, 11, 66, 64
12, 189480, Note_on_c, 11, 66, 100
12, 189576, Note_off_c, 11, 66, 64
12, 189600, Note_on_c, 11, 67, 100
12, 189696, Note_off_c, 11, 67, 64
12, 189720, Note_on_c, 11, 67, 100
12, 189816, Note_off_c, 11, 67, 64
12, 189840, Note_on_c, 11, 68, 100
12, 189936, Note_off_c, 11, 68, 64
12, 189960, Note_on_c, 11, 68, 100
12, 190056, Note_off_c, 11, 68, 64
12, 190080, Note_on_c, 11, 57, 80
12, 190176, Note_off_c, 11, 57, 64
12, 192240, Note_on_c, 11, 52, 79
12, 192360, Note_off_c, 11, 52, 64
12, 192360, Note_on_c, 11, 54, 76
12, 192480, Note_off_c, 11, 54, 64
12, 192480, Note_on_c, 11, 57, 74
12, 192600, Note_off_c, 11, 57, 64
12, 192600, Note_on_c, 11, 56, 71
12, 192720, Note_off_c, 11, 56, 64
12, 192720, Note_on_c, 11, 54, 68
12, 192840, Note_off_c, 11, 54, 64
12, 192840, Note_on_c, 11, 56, 66
12, 192960, Note_off_c, 11, 56, 64
12, 192960, Note_on_c, 11, 57, 80
12, 193440, Note_off_c, 11, 57, 64
12, 193440, Note_on_c, 11, 56, 80
12, 193920, Note_off_c, 11, 56, 64
12, 193920, Note_on_c, 11, 57, 80
12, 194112, Note_off_c, 11, 57, 64
12, 196080, Note_on_c, 11, 52, 79
12, 196200, Note_off_c, 11, 52, 64
12, 196200, Note_on_c, 11, 54, 76
12, 196320, Note_off_c, 11, 54, 64
12, 196320, Note_on_c, 11, 57, 74
12, 196440, Note_off_c, 11, 57, 64
12, 196440, Note_on_c, 11, 56, 71
12, 196560, Note_off_c, 11, 56, 64
12, 196560, Note_on_c, 11, 54, 68
12, 196680, Note_off_c, 11, 54, 64
12, 196680, Note_on_c, 11, 56, 66
12, 196800, Note_off_c, 11, 56, 64
12, 196800, Note_on_c, 11, 57, 80
12, 197280, Note_off_c, 11, 57, 64
12, 197280, Note_on_c, 11, 61, 80
12, 197760, Note_off_c, 11, 61, 64
12, 197760, Note_on_c, 11, 54, 80
12, 197952, Note_off_c, 11, 54, 64
12, 198960, Note_on_c, 11, 61, 119
12, 199080, Note_off_c, 11, 61, 64
12, 199080, Note_on_c, 11, 63, 114
12, 199200, Note_off_c, 11, 63, 64
12, 199200, Note_on_c, 11, 66, 111
12, 199320, Note_off_c, 11, 66, 64
12, 199320, Note_on_c, 11, 65, 107
12, 199440, Note_off_c, 11, 65, 64
12, 199440, Note_on_c, 11, 63, 102
12, 199560, Note_off_c, 11, 63, 64
12, 199560, Note_on_c, 11, 65, 99
12, 199680, Note_off_c, 11, 65, 64
12, 199680, Note_on_c, 11, 66, 120
12, 200160, Note_off_c, 11, 66, 64
12, 200160, Note_on_c, 11, 65, 120
12, 200640, Note_off_c, 11, 65, 64
12, 200640, Note_on_c, 11, 66, 120
12, 201120, Note_off_c, 11, 66, 64
12, 201120, Note_on_c, 11, 65, 120
12, 201600, Note_off_c, 11, 65, 64
12, 201600, Note_on_c, 11, 66, 120
12, 201792, Note_off_c, 11, 66, 64
12, 202800, Note_on_c, 11, 61, 119
12, 202920, Note_off_c, 11, 61, 64
12, 202920, Note_on_c, 11, 63, 114
12, 203040, Note_off_c, 11, 63, 64
12, 203040, Note_on_c, 11, 66, 111
12, 203160, Note_off_c, 11, 66, 64
12, 203160, Note_on_c, 11, 65, 107
12, 203280, Note_off_c, 11, 65, 64
12, 203280, Note_on_c, 11, 63, 102
12, 203400, Note_off_c, 11, 63, 64
12, 203400, Note_on_c, 11, 65, 99
12, 203520, Note_off_c, 11, 65, 64
12, 203520, Note_on_c, 11, 66, 120
12, 204000, Note_off_c, 11, 66, 64
12, 204000, Note_on_c, 11, 65, 120
12, 204480, Note_off_c, 11, 65, 64
12, 204480, Note_on_c, 11, 66, 120
12, 204960, Note_off_c, 11, 66, 64
12, 204960, Note_on_c, 11, 61, 120
12, 205440, Note_off_c, 11, 61, 64
12, 205440, Note_on_c, 11, 61, 127
12, 205554, Note_off_c, 11, 61, 64
12, 205800, Note_on_c, 11, 61, 120
12, 205914, Note_off_c, 11, 61, 64
12, 205920, Note_on_c, 11, 61, 120
12, 206034, Note_off_c, 11, 61, 64
12, 206280, Note_on_c, 11, 61, 120
12, 206394, Note_off_c, 11, 61, 64
12, 206400, Note_on_c, 11, 61, 120
12, 206514, Note_off_c, 11, 61, 64
12, 206760, Note_on_c, 11, 61, 120
12, 206874, Note_off_c, 11, 61, 64
12, 206880, Note_on_c, 11, 61, 120
12, 206994, Note_off_c, 11, 61, 64
12, 207240, Note_on_c, 11, 61, 120
12, 207354, Note_off_c, 11, 61, 64
12, 207360, Note_on_c, 11, 61, 120
12, 207474, Note_off_c, 11, 61, 64
12, 207720, Note_on_c, 11, 61, 120
12, 207834, Note_off_c, 11, 61, 64
12, 207840, Note_on_c, 11, 61, 120
12, 207954, Note_off_c, 11, 61, 64
12, 208200, Note_on_c, 11, 61, 120
12, 208314, Note_off_c, 11, 61, 64
12, 208320, Note_on_c, 11, 61, 120
12, 208434, Note_off_c, 11, 61, 64
12, 208680, Note_on_c, 11, 61, 120
12, 208794, Note_off_c, 11, 61, 64
12, 208800, Note_on_c, 11, 61, 120
12, 208914, Note_off_c, 11, 61, 64
12, 209160, Note_on_c, 11, 61, 120
12, 209274, Note_off_c, 11, 61, 64
12, 209280, Note_on_c, 11, 61, 127
12, 209394, Note_off_c, 11, 61, 64
12, 209640, Note_on_c, 11, 61, 120
12, 209754, Note_off_c, 11, 61, 64
12, 209760, Note_on_c, 11, 61, 120
12, 209874, Note_off_c, 11, 61, 64
12, 210120, Note_on_c, 11, 61, 120
12, 210234, Note_off_c, 11, 61, 64
12, 210240, Note_on_c, 11, 66, 127
12, 210354, Note_off_c, 11, 66, 64
12, 210600, Note_on_c, 11, 66, 120
12, 210714, Note_off_c, 11, 66, 64
12, 210720, Note_on_c, 11, 66, 120
12, 210834, Note_off_c, 11, 66, 64
12, 211080, Note_on_c, 11, 66, 120
12, 211194, Note_off_c, 11, 66, 64
12, 211200, Note_on_c, 11, 69, 127
12, 211314, Note_off_c, 11, 69, 64
12, 211560, Note_on_c, 11, 69, 120
12, 211674, Note_off_c, 11, 69, 64
12, 211680, Note_on_c, 11, 69, 120
12, 211794, Note_off_c, 11, 69, 64
12, 212040, Note_on_c, 11, 69, 120
12, 212154, Note_off_c, 11, 69, 64
12, 212160, Note_on_c, 11, 69, 127
12, 212274, Note_off_c, 11, 69, 64
12, 212520, Note_on_c, 11, 69, 120
12, 212634, Note_off_c, 11, 69, 64
12, 212640, Note_on_c, 11, 69, 120
12, 212754, Note_off_c, 11, 69, 64
12, 213000, Note_on_c, 11, 69, 120
12, 213114, Note_off_c, 11, 69, 64
12, 213120, Note_on_c, 11, 69, 127
12, 213234, Note_off_c, 11, 69, 64
12, 213480, Note_on_c, 11, 60, 120
12, 213594, Note_off_c, 11, 60, 64
12, 213600, Note_on_c, 11, 60, 120
12, 213714, Note_off_c, 11, 60, 64
12, 213960, Note_on_c, 11, 60, 120
12, 214074, Note_off_c, 11, 60, 64
12, 214080, Note_on_c, 11, 60, 120
12, 214194, Note_off_c, 11, 60, 64
12, 214440, Note_on_c, 11, 60, 120
12, 214554, Note_off_c, 11, 60, 64
12, 214560, Note_on_c, 11, 60, 120
12, 214674, Note_off_c, 11, 60, 64
12, 214920, Note_on_c, 11, 60, 120
12, 215034, Note_off_c, 11, 60, 64
12, 215040, Note_on_c, 11, 60, 127
12, 215154, Note_off_c, 11, 60, 64
12, 215520, Note_on_c, 11, 69, 99
12, 215616, Note_off_c, 11, 69, 64
12, 215640, Note_on_c, 11, 69, 99
12, 215736, Note_off_c, 11, 69, 64
12, 215760, Note_on_c, 11, 69, 99
12, 215856, Note_off_c, 11, 69, 64
12, 215880, Note_on_c, 11, 69, 99
12, 215976, Note_off_c, 11, 69, 64
12, 216000, Note_on_c, 11, 69, 45
12, 216096, Note_off_c, 11, 69, 64
12, 216120, Note_on_c, 11, 69, 45
12, 216216, Note_off_c, 11, 69, 64
12, 216240, Note_on_c, 11, 69, 45
12, 216336, Note_off_c, 11, 69, 64
12, 216360, Note_on_c, 11, 69, 45
12, 216456, Note_off_c, 11, 69, 64
12, 216480, Note_on_c, 11, 69, 45
12, 216576, Note_off_c, 11, 69, 64
12, 216600, Note_on_c, 11, 69, 45
12, 216696, Note_off_c, 11, 69, 64
12, 216720, Note_on_c, 11, 69, 45
12, 216816, Note_off_c, 11, 69, 64
12, 216840, Note_on_c, 11, 69, 45
12, 216936, Note_off_c, 11, 69, 64
12, 216960, Note_on_c, 11, 68, 45
12, 217056, Note_off_c, 11, 68, 64
12, 217080, Note_on_c, 11, 66, 45
12, 217176, Note_off_c, 11, 66, 64
12, 217200, Note_on_c, 11, 66, 45
12, 217296, Note_off_c, 11, 66, 64
12, 217320, Note_on_c, 11, 66, 45
12, 217416, Note_off_c, 11, 66, 64
12, 217440, Note_on_c, 11, 66, 45
12, 217536, Note_off_c, 11, 66, 64
12, 217560, Note_on_c, 11, 66, 45
12, 217656, Note_off_c, 11, 66, 64
12, 217680, Note_on_c, 11, 66, 45
12, 217776, Note_off_c, 11, 66, 64
12, 217800, Note_on_c, 11, 66, 45
12, 217896, Note_off_c, 11, 66, 64
12, 217920, Note_on_c, 11, 66, 45
12, 218016, Note_off_c, 11, 66, 64
12, 218040, Note_on_c, 11, 66, 45
12, 218136, Note_off_c, 11, 66, 64
12, 218160, Note_on_c, 11, 66, 45
12, 218256, Note_off_c, 11, 66, 64
12, 218280, Note_on_c, 11, 66, 45
12, 218376, Note_off_c, 11, 66, 64
12, 218400, Note_on_c, 11, 64, 45
12, 218496, Note_off_c, 11, 64, 64
12, 218520, Note_on_c, 11, 64, 45
12, 218616, Note_off_c, 11, 64, 64
12, 218640, Note_on_c, 11, 64, 45
12, 218736, Note_off_c, 11, 64, 64
12, 218760, Note_on_c, 11, 64, 45
12, 218856, Note_off_c, 11, 64, 64
12, 218880, Note_on_c, 11, 56, 50
12, 218976, Note_off_c, 11, 56, 64
12, 219360, Note_on_c, 11, 69, 99
12, 219456, Note_off_c, 11, 69, 64
12, 219480, Note_on_c, 11, 69, 99
12, 219576, Note_off_c, 11, 69, 64
12, 219600, Note_on_c, 11, 69, 99
12, 219696, Note_off_c, 11, 69, 64
12, 219720, Note_on_c, 11, 69, 99
12, 219816, Note_off_c, 11, 69, 64
12, 219840, Note_on_c, 11, 69, 40
12, 219936, Note_off_c, 11, 69, 64
12, 219960, Note_on_c, 11, 69, 40
12, 220056, Note_off_c, 11, 69, 64
12, 220080, Note_on_c, 11, 69, 40
12, 220176, Note_off_c, 11, 69, 64
12, 220200, Note_on_c, 11, 69, 40
12, 220296, Note_off_c, 11, 69, 64
12, 220320, Note_on_c, 11, 68, 40
12, 220416, Note_off_c, 11, 68, 64
12, 220440, Note_on_c, 11, 68, 40
12, 220536, Note_off_c, 11, 68, 64
12, 220560, Note_on_c, 11, 68, 40
12, 220656, Note_off_c, 11, 68, 64
12, 220680, Note_on_c, 11, 68, 40
12, 220776, Note_off_c, 11, 68, 64
12, 220800, Note_on_c, 11, 68, 40
12, 220896, Note_off_c, 11, 68, 64
12, 220920, Note_on_c, 11, 66, 40
12, 221016, Note_off_c, 11, 66, 64
12, 221040, Note_on_c, 11, 66, 40
12, 221136, Note_off_c, 11, 66, 64
12, 221160, Note_on_c, 11, 66, 40
12, 221256, Note_off_c, 11, 66, 64
12, 221280, Note_on_c, 11, 66, 40
12, 221376, Note_off_c, 11, 66, 64
12, 221400, Note_on_c, 11, 66, 40
12, 221496, Note_off_c, 11, 66, 64
12, 221520, Note_on_c, 11, 66, 40
12, 221616, Note_off_c, 11, 66, 64
12, 221640, Note_on_c, 11, 66, 40
12, 221736, Note_off_c, 11, 66, 64
12, 221760, Note_on_c, 11, 66, 40
12, 221856, Note_off_c, 11, 66, 64
12, 221880, Note_on_c, 11, 66, 40
12, 221976, Note_off_c, 11, 66, 64
12, 222000, Note_on_c, 11, 66, 40
12, 222096, Note_off_c, 11, 66, 64
12, 222120, Note_on_c, 11, 66, 40
12, 222216, Note_off_c, 11, 66, 64
12, 222240, Note_on_c, 11, 64, 40
12, 222336, Note_off_c, 11, 64, 64
12, 222360, Note_on_c, 11, 64, 40
12, 222456, Note_off_c, 11, 64, 64
12, 222480, Note_on_c, 11, 64, 40
12, 222576, Note_off_c, 11, 64, 64
12, 222600, Note_on_c, 11, 64, 40
12, 222696, Note_off_c, 11, 64, 64
12, 222720, Note_on_c, 11, 66, 51
12, 222816, Note_off_c, 11, 66, 64
12, 222840, Note_on_c, 11, 66, 50
12, 222936, Note_off_c, 11, 66, 64
12, 222960, Note_on_c, 11, 66, 50
12, 223056, Note_off_c, 11, 66, 64
12, 223080, Note_on_c, 11, 66, 49
12, 223176, Note_off_c, 11, 66, 64
12, 223200, Note_on_c, 11, 66, 48
12, 223296, Note_off_c, 11, 66, 64
12, 223320, Note_on_c, 11, 66, 47
12, 223416, Note_off_c, 11, 66, 64
12, 223440, Note_on_c, 11, 66, 46
12, 223536, Note_off_c, 11, 66, 64
12, 223560, Note_on_c, 11, 66, 46
12, 223656, Note_off_c, 11, 66, 64
12, 223680, Note_on_c, 11, 66, 46
12, 223776, Note_off_c, 11, 66, 64
12, 223800, Note_on_c, 11, 66, 45
12, 223896, Note_off_c, 11, 66, 64
12, 223920, Note_on_c, 11, 66, 44
12, 224016, Note_off_c, 11, 66, 64
12, 224040, Note_on_c, 11, 66, 43
12, 224136, Note_off_c, 11, 66, 64
12, 224160, Note_on_c, 11, 64, 42
12, 224256, Note_off_c, 11, 64, 64
12, 224280, Note_on_c, 11, 64, 42
12, 224376, Note_off_c, 11, 64, 64
12, 224400, Note_on_c, 11, 64, 41
12, 224496, Note_off_c, 11, 64, 64
12, 224520, Note_on_c, 11, 64, 40
12, 224616, Note_off_c, 11, 64, 64
12, 224640, Note_on_c, 11, 66, 39
12, 224736, Note_off_c, 11, 66, 64
12, 224760, Note_on_c, 11, 66, 38
12, 224856, Note_off_c, 11, 66, 64
12, 224880, Note_on_c, 11, 66, 38
12, 224976, Note_off_c, 11, 66, 64
12, 225000, Note_on_c, 11, 66, 38
12, 225096, Note_off_c, 11, 66, 64
12, 225120, Note_on_c, 11, 66, 37
12, 225216, Note_off_c, 11, 66, 64
12, 225240, Note_on_c, 11, 66, 36
12, 225336, Note_off_c, 11, 66, 64
12, 225360, Note_on_c, 11, 66, 35
12, 225456, Note_off_c, 11, 66, 64
12, 225480, Note_on_c, 11, 66, 34
12, 225576, Note_off_c, 11, 66, 64
12, 225600, Note_on_c, 11, 66, 34
12, 225696, Note_off_c, 11, 66, 64
12, 225720, Note_on_c, 11, 60, 33
12, 225816, Note_off_c, 11, 60, 64
12, 225840, Note_on_c, 11, 60, 32
12, 225936, Note_off_c, 11, 60, 64
12, 225960, Note_on_c, 11, 60, 31
12, 226056, Note_off_c, 11, 60, 64
12, 226080, Note_on_c, 11, 60, 51
12, 226176, Note_off_c, 11, 60, 64
12, 226200, Note_on_c, 11, 60, 58
12, 226296, Note_off_c, 11, 60, 64
12, 226320, Note_on_c, 11, 60, 66
12, 226416, Note_off_c, 11, 60, 64
12, 226440, Note_on_c, 11, 60, 73
12, 226536, Note_off_c, 11, 60, 64
12, 226560, Note_on_c, 11, 61, 64
12, 226632, Note_off_c, 11, 61, 64
12, 226920, Note_on_c, 11, 56, 64
12, 227040, Note_off_c, 11, 56, 64
12, 227040, Note_on_c, 11, 56, 96
12, 227490, Note_off_c, 11, 56, 64
12, 227520, Note_on_c, 11, 56, 77
12, 227592, Note_off_c, 11, 56, 64
12, 227880, Note_on_c, 11, 56, 64
12, 228000, Note_off_c, 11, 56, 64
12, 228000, Note_on_c, 11, 56, 96
12, 228450, Note_off_c, 11, 56, 64
12, 228480, Note_on_c, 11, 56, 77
12, 228552, Note_off_c, 11, 56, 64
12, 228840, Note_on_c, 11, 56, 64
12, 228960, Note_off_c, 11, 56, 64
12, 228960, Note_on_c, 11, 56, 96
12, 229410, Note_off_c, 11, 56, 64
12, 229440, Note_on_c, 11, 56, 77
12, 229512, Note_off_c, 11, 56, 64
12, 229800, Note_on_c, 11, 56, 64
12, 229920, Note_off_c, 11, 56, 64
12, 229920, Note_on_c, 11, 56, 96
12, 230370, Note_off_c, 11, 56, 64
12, 230400, Note_on_c, 11, 61, 64
12, 230626, Note_off_c, 11, 61, 64
12, 235200, Note_on_c, 11, 60, 40
12, 235584, Note_off_c, 11, 60, 64
12, 235680, Note_on_c, 11, 60, 40
12, 236064, Note_off_c, 11, 60, 64
12, 236160, Note_on_c, 11, 61, 64
12, 236232, Note_off_c, 11, 61, 64
12, 236520, Note_on_c, 11, 56, 64
12, 236640, Note_off_c, 11, 56, 64
12, 236640, Note_on_c, 11, 56, 96
12, 237090, Note_off_c, 11, 56, 64
12, 237120, Note_on_c, 11, 56, 77
12, 237192, Note_off_c, 11, 56, 64
12, 237480, Note_on_c, 11, 56, 64
12, 237600, Note_off_c, 11, 56, 64
12, 237600, Note_on_c, 11, 56, 96
12, 238050, Note_off_c, 11, 56, 64
12, 238080, Note_on_c, 11, 56, 77
12, 238152, Note_off_c, 11, 56, 64
12, 238440, Note_on_c, 11, 56, 64
12, 238560, Note_off_c, 11, 56, 64
12, 238560, Note_on_c, 11, 56, 96
12, 239010, Note_off_c, 11, 56, 64
12, 239040, Note_on_c, 11, 56, 77
12, 239112, Note_off_c, 11, 56, 64
12, 239400, Note_on_c, 11, 56, 64
12, 239520, Note_off_c, 11, 56, 64
12, 239520, Note_on_c, 11, 56, 96
12, 239970, Note_off_c, 11, 56, 64
12, 240000, Note_on_c, 11, 61, 64
12, 240226, Note_off_c, 11, 61, 64
12, 246120, Note_on_c, 11, 55, 60
12, 246240, Note_off_c, 11, 55, 64
12, 246240, Note_on_c, 11, 52, 60
12, 246336, Note_off_c, 11, 52, 64
12, 246600, Note_on_c, 11, 49, 60
12, 246720, Note_off_c, 11, 49, 64
12, 246720, Note_on_c, 11, 52, 60
12, 246816, Note_off_c, 11, 52, 64
12, 247080, Note_on_c, 11, 55, 60
12, 247200, Note_off_c, 11, 55, 64
12, 247200, Note_on_c, 11, 57, 60
12, 247296, Note_off_c, 11, 57, 64
12, 247560, Note_on_c, 11, 61, 60
12, 247680, Note_off_c, 11, 61, 64
12, 247680, Note_on_c, 11, 64, 60
12, 247776, Note_off_c, 11, 64, 64
12, 251880, Note_on_c, 11, 55, 86
12, 252000, Note_off_c, 11, 55, 64
12, 252000, Note_on_c, 11, 52, 86
12, 252096, Note_off_c, 11, 52, 64
12, 252360, Note_on_c, 11, 49, 86
12, 252480, Note_off_c, 11, 49, 64
12, 252480, Note_on_c, 11, 52, 86
12, 252576, Note_off_c, 11, 52, 64
12, 252840, Note_on_c, 11, 55, 86
12, 252960, Note_off_c, 11, 55, 64
12, 252960, Note_on_c, 11, 57, 86
12, 253056, Note_off_c, 11, 57, 64
12, 253320, Note_on_c, 11, 61, 86
12, 253440, Note_off_c, 11, 61, 64
12, 253440, Note_on_c, 11, 64, 71
12, 253536, Note_off_c, 11, 64, 64
12, 255360, Note_on_c, 11, 63, 99
12, 255456, Note_off_c, 11, 63, 64
12, 255480, Note_on_c, 11, 63, 99
12, 255576, Note_off_c, 11, 63, 64
12, 255600, Note_on_c, 11, 63, 99
12, 255696, Note_off_c, 11, 63, 64
12, 255720, Note_on_c, 11, 63, 99
12, 255816, Note_off_c, 11, 63, 64
12, 255840, Note_on_c, 11, 63, 99
12, 255936, Note_off_c, 11, 63, 64
12, 255960, Note_on_c, 11, 63, 99
12, 256056, Note_off_c, 11, 63, 64
12, 256080, Note_on_c, 11, 63, 99
12, 256176, Note_off_c, 11, 63, 64
12, 256200, Note_on_c, 11, 63, 99
12, 256296, Note_off_c, 11, 63, 64
12, 256320, Note_on_c, 11, 63, 99
12, 256416, Note_off_c, 11, 63, 64
12, 256440, Note_on_c, 11, 63, 99
12, 256536, Note_off_c, 11, 63, 64
12, 256560, Note_on_c, 11, 63, 99
12, 256656, Note_off_c, 11, 63, 64
12, 256680, Note_on_c, 11, 63, 99
12, 256776, Note_off_c, 11, 63, 64
12, 256800, Note_on_c, 11, 63, 99
12, 256896, Note_off_c, 11, 63, 64
12, 256920, Note_on_c, 11, 63, 99
12, 257016, Note_off_c, 11, 63, 64
12, 257040, Note_on_c, 11, 63, 99
12, 257136, Note_off_c, 11, 63, 64
12, 257160, Note_on_c, 11, 63, 99
12, 257256, Note_off_c, 11, 63, 64
12, 257280, Note_on_c, 11, 64, 127
12, 257376, Note_off_c, 11, 64, 64
12, 257400, Note_on_c, 11, 64, 99
12, 257496, Note_off_c, 11, 64, 64
12, 257520, Note_on_c, 11, 64, 99
12, 257616, Note_off_c, 11, 64, 64
12, 257640, Note_on_c, 11, 64, 99
12, 257736, Note_off_c, 11, 64, 64
12, 257760, Note_on_c, 11, 64, 99
12, 257856, Note_off_c, 11, 64, 64
12, 257880, Note_on_c, 11, 64, 99
12, 257976, Note_off_c, 11, 64, 64
12, 258000, Note_on_c, 11, 64, 99
12, 258096, Note_off_c, 11, 64, 64
12, 258120, Note_on_c, 11, 64, 99
12, 258216, Note_off_c, 11, 64, 64
12, 258240, Note_on_c, 11, 63, 127
12, 258336, Note_off_c, 11, 63, 64
12, 258360, Note_on_c, 11, 63, 99
12, 258456, Note_off_c, 11, 63, 64
12, 258480, Note_on_c, 11, 63, 99
12, 258576, Note_off_c, 11, 63, 64
12, 258600, Note_on_c, 11, 63, 99
12, 258696, Note_off_c, 11, 63, 64
12, 258720, Note_on_c, 11, 63, 99
12, 258816, Note_off_c, 11, 63, 64
12, 258840, Note_on_c, 11, 63, 99
12, 258936, Note_off_c, 11, 63, 64
12, 258960, Note_on_c, 11, 63, 99
12, 259056, Note_off_c, 11, 63, 64
12, 259080, Note_on_c, 11, 63, 99
12, 259176, Note_off_c, 11, 63, 64
12, 259200, Note_on_c, 11, 64, 127
12, 259296, Note_off_c, 11, 64, 64
12, 259320, Note_on_c, 11, 64, 99
12, 259416, Note_off_c, 11, 64, 64
12, 259440, Note_on_c, 11, 64, 99
12, 259536, Note_off_c, 11, 64, 64
12, 259560, Note_on_c, 11, 64, 99
12, 259656, Note_off_c, 11, 64, 64
12, 259680, Note_on_c, 11, 64, 99
12, 259776, Note_off_c, 11, 64, 64
12, 259800, Note_on_c, 11, 64, 99
12, 259896, Note_off_c, 11, 64, 64
12, 259920, Note_on_c, 11, 64, 99
12, 260016, Note_off_c, 11, 64, 64
12, 260040, Note_on_c, 11, 64, 99
12, 260136, Note_off_c, 11, 64, 64
12, 260160, Note_on_c, 11, 63, 127
12, 260256, Note_off_c, 11, 63, 64
12, 260280, Note_on_c, 11, 63, 99
12, 260376, Note_off_c, 11, 63, 64
12, 260400, Note_on_c, 11, 63, 99
12, 260496, Note_off_c, 11, 63, 64
12, 260520, Note_on_c, 11, 63, 99
12, 260616, Note_off_c, 11, 63, 64
12, 260640, Note_on_c, 11, 63, 99
12, 260736, Note_off_c, 11, 63, 64
12, 260760, Note_on_c, 11, 63, 99
12, 260856, Note_off_c, 11, 63, 64
12, 260880, Note_on_c, 11, 63, 99
12, 260976, Note_off_c, 11, 63, 64
12, 261000, Note_on_c, 11, 63, 99
12, 261096, Note_off_c, 11, 63, 64
12, 261120, Note_on_c, 11, 64, 127
12, 261216, Note_off_c, 11, 64, 64
12, 261240, Note_on_c, 11, 61, 99
12, 261336, Note_off_c, 11, 61, 64
12, 261360, Note_on_c, 11, 73, 99
12, 261456, Note_off_c, 11, 73, 64
12, 261480, Note_on_c, 11, 73, 99
12, 261576, Note_off_c, 11, 73, 64
12, 261600, Note_on_c, 11, 73, 99
12, 261696, Note_off_c, 11, 73, 64
12, 261720, Note_on_c, 11, 73, 99
12, 261816, Note_off_c, 11, 73, 64
12, 261840, Note_on_c, 11, 73, 99
12, 261936, Note_off_c, 11, 73, 64
12, 261960, Note_on_c, 11, 73, 99
12, 262056, Note_off_c, 11, 73, 64
12, 262080, Note_on_c, 11, 73, 127
12, 262176, Note_off_c, 11, 73, 64
12, 262200, Note_on_c, 11, 73, 99
12, 262296, Note_off_c, 11, 73, 64
12, 262320, Note_on_c, 11, 73, 99
12, 262416, Note_off_c, 11, 73, 64
12, 262440, Note_on_c, 11, 73, 99
12, 262536, Note_off_c, 11, 73, 64
12, 262560, Note_on_c, 11, 73, 99
12, 262656, Note_off_c, 11, 73, 64
12, 262680, Note_on_c, 11, 73, 99
12, 262776, Note_off_c, 11, 73, 64
12, 262800, Note_on_c, 11, 73, 99
12, 262896, Note_off_c, 11, 73, 64
12, 262920, Note_on_c, 11, 73, 99
12, 263016, Note_off_c, 11, 73, 64
12, 263040, Note_on_c, 11, 73, 127
12, 263136, Note_off_c, 11, 73, 64
12, 263160, Note_on_c, 11, 61, 99
12, 263256, Note_off_c, 11, 61, 64
12, 263280, Note_on_c, 11, 61, 99
12, 263376, Note_off_c, 11, 61, 64
12, 263400, Note_on_c, 11, 61, 99
12, 263496, Note_off_c, 11, 61, 64
12, 263520, Note_on_c, 11, 61, 99
12, 263616, Note_off_c, 11, 61, 64
12, 263640, Note_on_c, 11, 61, 99
12, 263736, Note_off_c, 11, 61, 64
12, 263760, Note_on_c, 11, 61, 99
12, 263856, Note_off_c, 11, 61, 64
12, 263880, Note_on_c, 11, 61, 99
12, 263976, Note_off_c, 11, 61, 64
12, 264000, Note_on_c, 11, 60, 127
12, 264096, Note_off_c, 11, 60, 64
12, 264120, Note_on_c, 11, 60, 99
12, 264216, Note_off_c, 11, 60, 64
12, 264240, Note_on_c, 11, 60, 99
12, 264336, Note_off_c, 11, 60, 64
12, 264360, Note_on_c, 11, 60, 99
12, 264456, Note_off_c, 11, 60, 64
12, 264480, Note_on_c, 11, 60, 99
12, 264576, Note_off_c, 11, 60, 64
12, 264600, Note_on_c, 11, 60, 99
12, 264696, Note_off_c, 11, 60, 64
12, 264720, Note_on_c, 11, 60, 99
12, 264816, Note_off_c, 11, 60, 64
12, 264840, Note_on_c, 11, 60, 99
12, 264936, Note_off_c, 11, 60, 64
12, 264960, Note_on_c, 11, 61, 127
12, 265056, Note_off_c, 11, 61, 64
12, 265080, Note_on_c, 11, 64, 127
12, 265176, Note_off_c, 11, 64, 64
12, 265200, Note_on_c, 11, 66, 127
12, 265296, Note_off_c, 11, 66, 64
12, 265320, Note_on_c, 11, 68, 127
12, 265416, Note_off_c, 11, 68, 64
12, 265440, Note_on_c, 11, 71, 127
12, 265536, Note_off_c, 11, 71, 64
12, 265560, Note_on_c, 11, 69, 127
12, 265656, Note_off_c, 11, 69, 64
12, 265680, Note_on_c, 11, 68, 127
12, 265776, Note_off_c, 11, 68, 64
12, 265800, Note_on_c, 11, 66, 127
12, 265896, Note_off_c, 11, 66, 64
12, 265920, Note_on_c, 11, 71, 127
12, 266016, Note_off_c, 11, 71, 64
12, 266040, Note_on_c, 11, 69, 127
12, 266136, Note_off_c, 11, 69, 64
12, 266160, Note_on_c, 11, 68, 127
12, 266256, Note_off_c, 11, 68, 64
12, 266280, Note_on_c, 11, 66, 127
12, 266376, Note_off_c, 11, 66, 64
12, 266400, Note_on_c, 11, 71, 127
12, 266496, Note_off_c, 11, 71, 64
12, 266520, Note_on_c, 11, 69, 127
12, 266616, Note_off_c, 11, 69, 64
12, 266640, Note_on_c, 11, 68, 127
12, 266736, Note_off_c, 11, 68, 64
12, 266760, Note_on_c, 11, 66, 127
12, 266856, Note_off_c, 11, 66, 64
12, 266880, Note_on_c, 11, 68, 127
12, 266976, Note_off_c, 11, 68, 64
12, 267000, Note_on_c, 11, 64, 127
12, 267096, Note_off_c, 11, 64, 64
12, 267120, Note_on_c, 11, 66, 127
12, 267216, Note_off_c, 11, 66, 64
12, 267240, Note_on_c, 11, 68, 127
12, 267336, Note_off_c, 11, 68, 64
12, 267360, Note_on_c, 11, 71, 127
12, 267456, Note_off_c, 11, 71, 64
12, 267480, Note_on_c, 11, 69, 127
12, 267576, Note_off_c, 11, 69, 64
12, 267600, Note_on_c, 11, 68, 127
12, 267696, Note_off_c, 11, 68, 64
12, 267720, Note_on_c, 11, 66, 127
12, 267816, Note_off_c, 11, 66, 64
12, 267840, Note_on_c, 11, 71, 127
12, 267936, Note_off_c, 11, 71, 64
12, 267960, Note_on_c, 11, 69, 127
12, 268056, Note_off_c, 11, 69, 64
12, 268080, Note_on_c, 11, 68, 127
12, 268176, Note_off_c, 11, 68, 64
12, 268200, Note_on_c, 11, 66, 127
12, 268296, Note_off_c, 11, 66, 64
12, 268320, Note_on_c, 11, 71, 127
12, 268416, Note_off_c, 11, 71, 64
12, 268440, Note_on_c, 11, 69, 127
12, 268536, Note_off_c, 11, 69, 64
12, 268560, Note_on_c, 11, 68, 127
12, 268656, Note_off_c, 11, 68, 64
12, 268680, Note_on_c, 11, 66, 127
12, 268776, Note_off_c, 11, 66, 64
12, 268800, Note_on_c, 11, 68, 127
12, 268896, Note_off_c, 11, 68, 64
12, 268920, Note_on_c, 11, 64, 127
12, 269016, Note_off_c, 11, 64, 64
12, 269040, Note_on_c, 11, 66, 127
12, 269136, Note_off_c, 11, 66, 64
12, 269160, Note_on_c, 11, 68, 127
12, 269256, Note_off_c, 11, 68, 64
12, 269280, Note_on_c, 11, 71, 127
12, 269376, Note_off_c, 11, 71, 64
12, 269400, Note_on_c, 11, 69, 127
12, 269496, Note_off_c, 11, 69, 64
12, 269520, Note_on_c, 11, 68, 127
12, 269616, Note_off_c, 11, 68, 64
12, 269640, Note_on_c, 11, 66, 127
12, 269736, Note_off_c, 11, 66, 64
12, 269760, Note_on_c, 11, 64, 127
12, 269856, Note_off_c, 11, 64, 64
12, 269880, Note_on_c, 11, 64, 127
12, 269976, Note_off_c, 11, 64, 64
12, 270000, Note_on_c, 11, 66, 127
12, 270096, Note_off_c, 11, 66, 64
12, 270120, Note_on_c, 11, 68, 127
12, 270216, Note_off_c, 11, 68, 64
12, 270240, Note_on_c, 11, 71, 127
12, 270336, Note_off_c, 11, 71, 64
12, 270360, Note_on_c, 11, 69, 127
12, 270456, Note_off_c, 11, 69, 64
12, 270480, Note_on_c, 11, 68, 127
12, 270576, Note_off_c, 11, 68, 64
12, 270600, Note_on_c, 11, 66, 127
12, 270696, Note_off_c, 11, 66, 64
12, 270720, Note_on_c, 11, 64, 127
12, 270816, Note_off_c, 11, 64, 64
12, 270840, Note_on_c, 11, 64, 127
12, 270936, Note_off_c, 11, 64, 64
12, 270960, Note_on_c, 11, 66, 127
12, 271056, Note_off_c, 11, 66, 64
12, 271080, Note_on_c, 11, 68, 127
12, 271176, Note_off_c, 11, 68, 64
12, 271200, Note_on_c, 11, 71, 127
12, 271296, Note_off_c, 11, 71, 64
12, 271320, Note_on_c, 11, 69, 127
12, 271416, Note_off_c, 11, 69, 64
12, 271440, Note_on_c, 11, 68, 127
12, 271536, Note_off_c, 11, 68, 64
12, 271560, Note_on_c, 11, 66, 127
12, 271656, Note_off_c, 11, 66, 64
12, 271680, Note_on_c, 11, 64, 127
12, 271776, Note_off_c, 11, 64, 64
12, 271800, Note_on_c, 11, 57, 127
12, 271896, Note_off_c, 11, 57, 64
12, 271920, Note_on_c, 11, 57, 127
12, 272016, Note_off_c, 11, 57, 64
12, 272040, Note_on_c, 11, 57, 127
12, 272136, Note_off_c, 11, 57, 64
12, 272160, Note_on_c, 11, 58, 127
12, 272256, Note_off_c, 11, 58, 64
12, 272280, Note_on_c, 11, 58, 127
12, 272376, Note_off_c, 11, 58, 64
12, 272400, Note_on_c, 11, 58, 127
12, 272496, Note_off_c, 11, 58, 64
12, 272520, Note_on_c, 11, 58, 127
12, 272616, Note_off_c, 11, 58, 64
12, 272640, Note_on_c, 11, 52, 127
12, 272640, Note_on_c, 11, 58, 127
12, 272640, Note_on_c, 11, 64, 127
12, 272784, Note_off_c, 11, 64, 64
12, 272784, Note_off_c, 11, 58, 64
12, 272784, Note_off_c, 11, 52, 64
12, 275040, Note_on_c, 11, 58, 127
12, 275040, Note_on_c, 11, 64, 127
12, 275040, Note_on_c, 11, 52, 127
12, 275184, Note_off_c, 11, 52, 64
12, 275184, Note_off_c, 11, 64, 64
12, 275184, Note_off_c, 11, 58, 64
12, 277440, Note_on_c, 11, 52, 125
12, 277536, Note_off_c, 11, 52, 64
12, 277560, Note_on_c, 11, 52, 65
12, 277656, Note_off_c, 11, 52, 64
12, 277680, Note_on_c, 11, 52, 65
12, 277776, Note_off_c, 11, 52, 64
12, 277800, Note_on_c, 11, 52, 65
12, 277896, Note_off_c, 11, 52, 64
12, 277920, Note_on_c, 11, 50, 125
12, 278016, Note_off_c, 11, 50, 64
12, 278040, Note_on_c, 11, 50, 65
12, 278136, Note_off_c, 11, 50, 64
12, 278160, Note_on_c, 11, 52, 65
12, 278256, Note_off_c, 11, 52, 64
12, 278280, Note_on_c, 11, 52, 65
12, 278376, Note_off_c, 11, 52, 64
12, 278400, Note_on_c, 11, 53, 65
12, 278496, Note_off_c, 11, 53, 64
12, 278520, Note_on_c, 11, 53, 65
12, 278616, Note_off_c, 11, 53, 64
12, 278640, Note_on_c, 11, 53, 65
12, 278640, Note_on_c, 11, 53, 65
12, 278736, Note_off_c, 11, 53, 64
12, 278736, Note_off_c, 11, 53, 64
12, 278760, Note_on_c, 11, 53, 65
12, 278856, Note_off_c, 11, 53, 64
12, 278880, Note_on_c, 11, 52, 125
12, 278976, Note_off_c, 11, 52, 64
12, 279000, Note_on_c, 11, 52, 65
12, 279096, Note_off_c, 11, 52, 64
12, 279120, Note_on_c, 11, 53, 65
12, 279216, Note_off_c, 11, 53, 64
12, 279240, Note_on_c, 11, 53, 65
12, 279336, Note_off_c, 11, 53, 64
12, 279360, Note_on_c, 11, 52, 65
12, 279456, Note_off_c, 11, 52, 64
12, 279480, Note_on_c, 11, 52, 65
12, 279576, Note_off_c, 11, 52, 64
12, 279600, Note_on_c, 11, 52, 65
12, 279696, Note_off_c, 11, 52, 64
12, 279720, Note_on_c, 11, 52, 65
12, 279816, Note_off_c, 11, 52, 64
12, 279840, Note_on_c, 11, 50, 125
12, 279936, Note_off_c, 11, 50, 64
12, 279960, Note_on_c, 11, 50, 65
12, 280056, Note_off_c, 11, 50, 64
12, 280080, Note_on_c, 11, 52, 65
12, 280176, Note_off_c, 11, 52, 64
12, 280200, Note_on_c, 11, 52, 65
12, 280296, Note_off_c, 11, 52, 64
12, 280320, Note_on_c, 11, 53, 127
12, 280416, Note_off_c, 11, 53, 64
12, 282240, Note_on_c, 11, 56, 127
12, 282600, Note_off_c, 11, 56, 64
12, 282600, Note_on_c, 11, 64, 127
12, 282696, Note_off_c, 11, 64, 64
12, 282720, Note_on_c, 11, 64, 127
12, 284112, Note_off_c, 11, 64, 64
12, 284160, Note_on_c, 11, 56, 125
12, 284256, Note_off_c, 11, 56, 64
12, 284280, Note_on_c, 11, 56, 65
12, 284376, Note_off_c, 11, 56, 64
12, 284400, Note_on_c, 11, 56, 65
12, 284496, Note_off_c, 11, 56, 64
12, 284520, Note_on_c, 11, 56, 65
12, 284616, Note_off_c, 11, 56, 64
12, 284640, Note_on_c, 11, 54, 125
12, 284736, Note_off_c, 11, 54, 64
12, 284760, Note_on_c, 11, 54, 65
12, 284856, Note_off_c, 11, 54, 64
12, 284880, Note_on_c, 11, 56, 65
12, 284976, Note_off_c, 11, 56, 64
12, 285000, Note_on_c, 11, 56, 65
12, 285096, Note_off_c, 11, 56, 64
12, 285120, Note_on_c, 11, 57, 65
12, 285216, Note_off_c, 11, 57, 64
12, 285240, Note_on_c, 11, 57, 65
12, 285336, Note_off_c, 11, 57, 64
12, 285360, Note_on_c, 11, 57, 65
12, 285360, Note_on_c, 11, 57, 65
12, 285456, Note_off_c, 11, 57, 64
12, 285456, Note_off_c, 11, 57, 64
12, 285480, Note_on_c, 11, 57, 65
12, 285576, Note_off_c, 11, 57, 64
12, 285600, Note_on_c, 11, 56, 125
12, 285696, Note_off_c, 11, 56, 64
12, 285720, Note_on_c, 11, 56, 65
12, 285816, Note_off_c, 11, 56, 64
12, 285840, Note_on_c, 11, 57, 65
12, 285936, Note_off_c, 11, 57, 64
12, 285960, Note_on_c, 11, 57, 65
12, 286056, Note_off_c, 11, 57, 64
12, 286080, Note_on_c, 11, 56, 65
12, 286176, Note_off_c, 11, 56, 64
12, 286200, Note_on_c, 11, 56, 65
12, 286296, Note_off_c, 11, 56, 64
12, 286320, Note_on_c, 11, 56, 65
12, 286416, Note_off_c, 11, 56, 64
12, 286440, Note_on_c, 11, 56, 65
12, 286536, Note_off_c, 11, 56, 64
12, 286560, Note_on_c, 11, 54, 125
12, 286656, Note_off_c, 11, 54, 64
12, 286680, Note_on_c, 11, 54, 65
12, 286776, Note_off_c, 11, 54, 64
12, 286800, Note_on_c, 11, 56, 65
12, 286896, Note_off_c, 11, 56, 64
12, 286920, Note_on_c, 11, 56, 65
12, 287016, Note_off_c, 11, 56, 64
12, 287040, Note_on_c, 11, 57, 127
12, 287136, Note_off_c, 11, 57, 64
12, 288960, Note_on_c, 11, 51, 127
12, 289320, Note_off_c, 11, 51, 64
12, 289320, Note_on_c, 11, 59, 127
12, 289416, Note_off_c, 11, 59, 64
12, 289440, Note_on_c, 11, 59, 127
12, 290832, Note_off_c, 11, 59, 64
12, 290880, Note_on_c, 11, 55, 127
12, 290976, Note_off_c, 11, 55, 64
12, 292800, Note_on_c, 11, 49, 127
12, 293160, Note_off_c, 11, 49, 64
12, 293160, Note_on_c, 11, 57, 127
12, 293256, Note_off_c, 11, 57, 64
12, 293280, Note_on_c, 11, 57, 127
12, 294672, Note_off_c, 11, 57, 64
12, 294720, Note_on_c, 11, 53, 127
12, 294816, Note_off_c, 11, 53, 64
12, 295680, Note_on_c, 11, 48, 127
12, 296040, Note_off_c, 11, 48, 64
12, 296040, Note_on_c, 11, 56, 127
12, 296136, Note_off_c, 11, 56, 64
12, 296160, Note_on_c, 11, 56, 127
12, 296640, Note_off_c, 11, 56, 64
12, 296640, Note_on_c, 11, 59, 127
12, 296736, Note_off_c, 11, 59, 64
12, 296760, Note_on_c, 11, 59, 72
12, 296856, Note_off_c, 11, 59, 64
12, 296880, Note_on_c, 11, 59, 72
12, 296976, Note_off_c, 11, 59, 64
12, 297000, Note_on_c, 11, 59, 72
12, 297096, Note_off_c, 11, 59, 64
12, 297120, Note_on_c, 11, 57, 127
12, 297216, Note_off_c, 11, 57, 64
12, 297240, Note_on_c, 11, 57, 72
12, 297336, Note_off_c, 11, 57, 64
12, 297360, Note_on_c, 11, 59, 72
12, 297456, Note_off_c, 11, 59, 64
12, 297480, Note_on_c, 11, 59, 72
12, 297576, Note_off_c, 11, 59, 64
12, 297600, Note_on_c, 11, 60, 72
12, 297696, Note_off_c, 11, 60, 64
12, 297720, Note_on_c, 11, 60, 72
12, 297816, Note_off_c, 11, 60, 64
12, 297840, Note_on_c, 11, 60, 72
12, 297840, Note_on_c, 11, 60, 72
12, 297936, Note_off_c, 11, 60, 64
12, 297936, Note_off_c, 11, 60, 64
12, 297960, Note_on_c, 11, 60, 72
12, 298056, Note_off_c, 11, 60, 64
12, 298080, Note_on_c, 11, 59, 127
12, 298176, Note_off_c, 11, 59, 64
12, 298200, Note_on_c, 11, 59, 72
12, 298296, Note_off_c, 11, 59, 64
12, 298320, Note_on_c, 11, 60, 72
12, 298416, Note_off_c, 11, 60, 64
12, 298440, Note_on_c, 11, 60, 72
12, 298536, Note_off_c, 11, 60, 64
12, 298560, Note_on_c, 11, 59, 72
12, 298656, Note_off_c, 11, 59, 64
12, 298680, Note_on_c, 11, 59, 72
12, 298776, Note_off_c, 11, 59, 64
12, 298800, Note_on_c, 11, 59, 72
12, 298896, Note_off_c, 11, 59, 64
12, 298920, Note_on_c, 11, 59, 72
12, 299016, Note_off_c, 11, 59, 64
12, 299040, Note_on_c, 11, 57, 127
12, 299136, Note_off_c, 11, 57, 64
12, 299160, Note_on_c, 11, 57, 72
12, 299256, Note_off_c, 11, 57, 64
12, 299280, Note_on_c, 11, 59, 72
12, 299376, Note_off_c, 11, 59, 64
12, 299400, Note_on_c, 11, 59, 72
12, 299496, Note_off_c, 11, 59, 64
12, 299520, Note_on_c, 11, 60, 72
12, 299616, Note_off_c, 11, 60, 64
12, 299640, Note_on_c, 11, 60, 72
12, 299736, Note_off_c, 11, 60, 64
12, 299760, Note_on_c, 11, 62, 72
12, 299856, Note_off_c, 11, 62, 64
12, 299880, Note_on_c, 11, 64, 72
12, 299976, Note_off_c, 11, 64, 64
12, 300000, Note_on_c, 11, 65, 127
12, 300096, Note_off_c, 11, 65, 64
12, 300120, Note_on_c, 11, 64, 72
12, 300216, Note_off_c, 11, 64, 64
12, 300240, Note_on_c, 11, 62, 72
12, 300336, Note_off_c, 11, 62, 64
12, 300360, Note_on_c, 11, 60, 72
12, 300456, Note_off_c, 11, 60, 64
12, 300480, Note_on_c, 11, 59, 72
12, 300576, Note_off_c, 11, 59, 64
12, 300600, Note_on_c, 11, 59, 72
12, 300696, Note_off_c, 11, 59, 64
12, 300720, Note_on_c, 11, 59, 72
12, 300816, Note_off_c, 11, 59, 64
12, 300840, Note_on_c, 11, 59, 72
12, 300936, Note_off_c, 11, 59, 64
12, 300960, Note_on_c, 11, 57, 127
12, 301056, Note_off_c, 11, 57, 64
12, 301080, Note_on_c, 11, 57, 72
12, 301176, Note_off_c, 11, 57, 64
12, 301200, Note_on_c, 11, 59, 72
12, 301296, Note_off_c, 11, 59, 64
12, 301320, Note_on_c, 11, 59, 72
12, 301416, Note_off_c, 11, 59, 64
12, 301440, Note_on_c, 11, 60, 72
12, 301536, Note_off_c, 11, 60, 64
12, 301560, Note_on_c, 11, 60, 72
12, 301656, Note_off_c, 11, 60, 64
12, 301680, Note_on_c, 11, 60, 72
12, 301680, Note_on_c, 11, 60, 72
12, 301776, Note_off_c, 11, 60, 64
12, 301776, Note_off_c, 11, 60, 64
12, 301800, Note_on_c, 11, 60, 72
12, 301896, Note_off_c, 11, 60, 64
12, 301920, Note_on_c, 11, 59, 127
12, 302016, Note_off_c, 11, 59, 64
12, 302040, Note_on_c, 11, 59, 72
12, 302136, Note_off_c, 11, 59, 64
12, 302160, Note_on_c, 11, 60, 72
12, 302256, Note_off_c, 11, 60, 64
12, 302280, Note_on_c, 11, 60, 72
12, 302376, Note_off_c, 11, 60, 64
12, 302400, Note_on_c, 11, 59, 72
12, 302496, Note_off_c, 11, 59, 64
12, 302520, Note_on_c, 11, 59, 72
12, 302616, Note_off_c, 11, 59, 64
12, 302640, Note_on_c, 11, 59, 72
12, 302736, Note_off_c, 11, 59, 64
12, 302760, Note_on_c, 11, 59, 72
12, 302856, Note_off_c, 11, 59, 64
12, 302880, Note_on_c, 11, 57, 127
12, 302976, Note_off_c, 11, 57, 64
12, 303000, Note_on_c, 11, 57, 72
12, 303096, Note_off_c, 11, 57, 64
12, 303120, Note_on_c, 11, 59, 72
12, 303216, Note_off_c, 11, 59, 64
12, 303240, Note_on_c, 11, 59, 72
12, 303336, Note_off_c, 11, 59, 64
12, 303360, Note_on_c, 11, 60, 72
12, 303456, Note_off_c, 11, 60, 64
12, 303480, Note_on_c, 11, 62, 72
12, 303576, Note_off_c, 11, 62, 64
12, 303600, Note_on_c, 11, 64, 72
12, 303696, Note_off_c, 11, 64, 64
12, 303720, Note_on_c, 11, 65, 72
12, 303816, Note_off_c, 11, 65, 64
12, 303840, Note_on_c, 11, 67, 72
12, 303936, Note_off_c, 11, 67, 64
12, 303960, Note_on_c, 11, 69, 72
12, 304056, Note_off_c, 11, 69, 64
12, 304080, Note_on_c, 11, 71, 72
12, 304176, Note_off_c, 11, 71, 64
12, 304200, Note_on_c, 11, 72, 72
12, 304296, Note_off_c, 11, 72, 64
12, 304320, Note_on_c, 11, 59, 72
12, 304416, Note_off_c, 11, 59, 64
12, 304440, Note_on_c, 11, 59, 72
12, 304536, Note_off_c, 11, 59, 64
12, 304560, Note_on_c, 11, 59, 72
12, 304656, Note_off_c, 11, 59, 64
12, 304680, Note_on_c, 11, 59, 72
12, 304776, Note_off_c, 11, 59, 64
12, 304800, Note_on_c, 11, 57, 127
12, 304896, Note_off_c, 11, 57, 64
12, 304920, Note_on_c, 11, 57, 72
12, 305016, Note_off_c, 11, 57, 64
12, 305040, Note_on_c, 11, 59, 72
12, 305136, Note_off_c, 11, 59, 64
12, 305160, Note_on_c, 11, 59, 72
12, 305256, Note_off_c, 11, 59, 64
12, 305280, Note_on_c, 11, 60, 72
12, 305376, Note_off_c, 11, 60, 64
12, 305400, Note_on_c, 11, 60, 72
12, 305496, Note_off_c, 11, 60, 64
12, 305520, Note_on_c, 11, 60, 72
12, 305520, Note_on_c, 11, 60, 72
12, 305616, Note_off_c, 11, 60, 64
12, 305616, Note_off_c, 11, 60, 64
12, 305640, Note_on_c, 11, 60, 72
12, 305736, Note_off_c, 11, 60, 64
12, 305760, Note_on_c, 11, 59, 127
12, 305856, Note_off_c, 11, 59, 64
12, 305880, Note_on_c, 11, 59, 72
12, 305976, Note_off_c, 11, 59, 64
12, 306000, Note_on_c, 11, 60, 72
12, 306096, Note_off_c, 11, 60, 64
12, 306120, Note_on_c, 11, 60, 72
12, 306216, Note_off_c, 11, 60, 64
12, 306240, Note_on_c, 11, 59, 72
12, 306336, Note_off_c, 11, 59, 64
12, 306360, Note_on_c, 11, 59, 72
12, 306456, Note_off_c, 11, 59, 64
12, 306480, Note_on_c, 11, 59, 72
12, 306576, Note_off_c, 11, 59, 64
12, 306600, Note_on_c, 11, 59, 72
12, 306696, Note_off_c, 11, 59, 64
12, 306720, Note_on_c, 11, 57, 127
12, 306816, Note_off_c, 11, 57, 64
12, 306840, Note_on_c, 11, 57, 72
12, 306936, Note_off_c, 11, 57, 64
12, 306960, Note_on_c, 11, 59, 72
12, 307056, Note_off_c, 11, 59, 64
12, 307080, Note_on_c, 11, 59, 72
12, 307176, Note_off_c, 11, 59, 64
12, 307200, Note_on_c, 11, 60, 72
12, 307296, Note_off_c, 11, 60, 64
12, 307320, Note_on_c, 11, 60, 72
12, 307416, Note_off_c, 11, 60, 64
12, 307440, Note_on_c, 11, 62, 72
12, 307536, Note_off_c, 11, 62, 64
12, 307560, Note_on_c, 11, 64, 72
12, 307656, Note_off_c, 11, 64, 64
12, 307680, Note_on_c, 11, 65, 127
12, 307776, Note_off_c, 11, 65, 64
12, 307800, Note_on_c, 11, 64, 72
12, 307896, Note_off_c, 11, 64, 64
12, 307920, Note_on_c, 11, 62, 72
12, 308016, Note_off_c, 11, 62, 64
12, 308040, Note_on_c, 11, 60, 72
12, 308136, Note_off_c, 11, 60, 64
12, 308160, Note_on_c, 11, 59, 72
12, 308256, Note_off_c, 11, 59, 64
12, 308280, Note_on_c, 11, 59, 72
12, 308376, Note_off_c, 11, 59, 64
12, 308400, Note_on_c, 11, 59, 72
12, 308496, Note_off_c, 11, 59, 64
12, 308520, Note_on_c, 11, 59, 72
12, 308616, Note_off_c, 11, 59, 64
12, 308640, Note_on_c, 11, 57, 127
12, 308736, Note_off_c, 11, 57, 64
12, 308760, Note_on_c, 11, 57, 72
12, 308856, Note_off_c, 11, 57, 64
12, 308880, Note_on_c, 11, 59, 72
12, 308976, Note_off_c, 11, 59, 64
12, 309000, Note_on_c, 11, 59, 72
12, 309096, Note_off_c, 11, 59, 64
12, 309120, Note_on_c, 11, 60, 72
12, 309216, Note_off_c, 11, 60, 64
12, 309240, Note_on_c, 11, 60, 72
12, 309336, Note_off_c, 11, 60, 64
12, 309360, Note_on_c, 11, 60, 72
12, 309360, Note_on_c, 11, 60, 72
12, 309456, Note_off_c, 11, 60, 64
12, 309456, Note_off_c, 11, 60, 64
12, 309480, Note_on_c, 11, 60, 72
12, 309576, Note_off_c, 11, 60, 64
12, 309600, Note_on_c, 11, 59, 127
12, 309696, Note_off_c, 11, 59, 64
12, 309720, Note_on_c, 11, 59, 72
12, 309816, Note_off_c, 11, 59, 64
12, 309840, Note_on_c, 11, 60, 72
12, 309936, Note_off_c, 11, 60, 64
12, 309960, Note_on_c, 11, 60, 72
12, 310056, Note_off_c, 11, 60, 64
12, 310080, Note_on_c, 11, 59, 72
12, 310176, Note_off_c, 11, 59, 64
12, 310200, Note_on_c, 11, 59, 72
12, 310296, Note_off_c, 11, 59, 64
12, 310320, Note_on_c, 11, 59, 72
12, 310416, Note_off_c, 11, 59, 64
12, 310440, Note_on_c, 11, 59, 72
12, 310536, Note_off_c, 11, 59, 64
12, 310560, Note_on_c, 11, 57, 127
12, 310656, Note_off_c, 11, 57, 64
12, 310680, Note_on_c, 11, 57, 72
12, 310776, Note_off_c, 11, 57, 64
12, 310800, Note_on_c, 11, 59, 72
12, 310896, Note_off_c, 11, 59, 64
12, 310920, Note_on_c, 11, 59, 72
12, 311016, Note_off_c, 11, 59, 64
12, 311040, Note_on_c, 11, 60, 72
12, 311136, Note_off_c, 11, 60, 64
12, 311160, Note_on_c, 11, 62, 72
12, 311256, Note_off_c, 11, 62, 64
12, 311280, Note_on_c, 11, 64, 72
12, 311376, Note_off_c, 11, 64, 64
12, 311400, Note_on_c, 11, 65, 72
12, 311496, Note_off_c, 11, 65, 64
12, 311520, Note_on_c, 11, 67, 72
12, 311616, Note_off_c, 11, 67, 64
12, 311640, Note_on_c, 11, 65, 72
12, 311736, Note_off_c, 11, 65, 64
12, 311760, Note_on_c, 11, 67, 72
12, 311856, Note_off_c, 11, 67, 64
12, 311880, Note_on_c, 11, 64, 72
12, 311976, Note_off_c, 11, 64, 64
12, 312000, Note_on_c, 11, 60, 127
12, 312096, Note_off_c, 11, 60, 64
12, 312120, Note_on_c, 11, 57, 72
12, 312216, Note_off_c, 11, 57, 64
12, 312240, Note_on_c, 11, 57, 72
12, 312336, Note_off_c, 11, 57, 64
12, 312360, Note_on_c, 11, 57, 72
12, 312456, Note_off_c, 11, 57, 64
12, 312480, Note_on_c, 11, 56, 127
12, 312576, Note_off_c, 11, 56, 64
12, 312600, Note_on_c, 11, 56, 72
12, 312696, Note_off_c, 11, 56, 64
12, 312720, Note_on_c, 11, 57, 72
12, 312816, Note_off_c, 11, 57, 64
12, 312840, Note_on_c, 11, 57, 72
12, 312936, Note_off_c, 11, 57, 64
12, 312960, Note_on_c, 11, 55, 72
12, 313056, Note_off_c, 11, 55, 64
12, 313080, Note_on_c, 11, 60, 72
12, 313176, Note_off_c, 11, 60, 64
12, 313200, Note_on_c, 11, 60, 72
12, 313296, Note_off_c, 11, 60, 64
12, 313320, Note_on_c, 11, 60, 72
12, 313416, Note_off_c, 11, 60, 64
12, 313440, Note_on_c, 11, 60, 127
12, 313536, Note_off_c, 11, 60, 64
12, 313560, Note_on_c, 11, 60, 72
12, 313656, Note_off_c, 11, 60, 64
12, 313680, Note_on_c, 11, 60, 72
12, 313776, Note_off_c, 11, 60, 64
12, 313800, Note_on_c, 11, 60, 72
12, 313896, Note_off_c, 11, 60, 64
12, 313920, Note_on_c, 11, 60, 72
12, 314016, Note_off_c, 11, 60, 64
12, 314040, Note_on_c, 11, 57, 72
12, 314136, Note_off_c, 11, 57, 64
12, 314160, Note_on_c, 11, 57, 72
12, 314256, Note_off_c, 11, 57, 64
12, 314280, Note_on_c, 11, 57, 72
12, 314376, Note_off_c, 11, 57, 64
12, 314400, Note_on_c, 11, 56, 127
12, 314496, Note_off_c, 11, 56, 64
12, 314520, Note_on_c, 11, 56, 72
12, 314616, Note_off_c, 11, 56, 64
12, 314640, Note_on_c, 11, 57, 72
12, 314736, Note_off_c, 11, 57, 64
12, 314760, Note_on_c, 11, 57, 72
12, 314856, Note_off_c, 11, 57, 64
12, 314880, Note_on_c, 11, 59, 72
12, 314976, Note_off_c, 11, 59, 64
12, 315000, Note_on_c, 11, 59, 72
12, 315096, Note_off_c, 11, 59, 64
12, 315120, Note_on_c, 11, 62, 72
12, 315216, Note_off_c, 11, 62, 64
12, 315240, Note_on_c, 11, 62, 72
12, 315336, Note_off_c, 11, 62, 64
12, 315360, Note_on_c, 11, 57, 127
12, 315456, Note_off_c, 11, 57, 64
12, 315480, Note_on_c, 11, 57, 72
12, 315576, Note_off_c, 11, 57, 64
12, 315600, Note_on_c, 11, 61, 72
12, 315696, Note_off_c, 11, 61, 64
12, 315720, Note_on_c, 11, 61, 72
12, 315816, Note_off_c, 11, 61, 64
12, 315840, Note_on_c, 11, 57, 72
12, 315936, Note_off_c, 11, 57, 64
12, 315960, Note_on_c, 11, 57, 72
12, 316056, Note_off_c, 11, 57, 64
12, 316080, Note_on_c, 11, 56, 72
12, 316176, Note_off_c, 11, 56, 64
12, 316200, Note_on_c, 11, 56, 72
12, 316296, Note_off_c, 11, 56, 64
12, 316320, Note_on_c, 11, 55, 127
12, 316416, Note_off_c, 11, 55, 64
12, 316440, Note_on_c, 11, 55, 72
12, 316536, Note_off_c, 11, 55, 64
12, 316560, Note_on_c, 11, 59, 72
12, 316656, Note_off_c, 11, 59, 64
12, 316680, Note_on_c, 11, 59, 72
12, 316776, Note_off_c, 11, 59, 64
12, 316800, Note_on_c, 11, 55, 72
12, 316896, Note_off_c, 11, 55, 64
12, 316920, Note_on_c, 11, 60, 72
12, 317016, Note_off_c, 11, 60, 64
12, 317040, Note_on_c, 11, 60, 72
12, 317136, Note_off_c, 11, 60, 64
12, 317160, Note_on_c, 11, 60, 72
12, 317256, Note_off_c, 11, 60, 64
12, 317280, Note_on_c, 11, 55, 127
12, 317376, Note_off_c, 11, 55, 64
12, 317400, Note_on_c, 11, 60, 72
12, 317496, Note_off_c, 11, 60, 64
12, 317520, Note_on_c, 11, 60, 72
12, 317616, Note_off_c, 11, 60, 64
12, 317640, Note_on_c, 11, 60, 72
12, 317736, Note_off_c, 11, 60, 64
12, 317760, Note_on_c, 11, 55, 72
12, 317856, Note_off_c, 11, 55, 64
12, 317880, Note_on_c, 11, 59, 72
12, 317976, Note_off_c, 11, 59, 64
12, 318000, Note_on_c, 11, 59, 72
12, 318096, Note_off_c, 11, 59, 64
12, 318120, Note_on_c, 11, 59, 72
12, 318216, Note_off_c, 11, 59, 64
12, 318240, Note_on_c, 11, 55, 127
12, 318336, Note_off_c, 11, 55, 64
12, 318360, Note_on_c, 11, 62, 72
12, 318456, Note_off_c, 11, 62, 64
12, 318480, Note_on_c, 11, 62, 72
12, 318576, Note_off_c, 11, 62, 64
12, 318600, Note_on_c, 11, 62, 72
12, 318696, Note_off_c, 11, 62, 64
12, 318720, Note_on_c, 11, 64, 72
12, 318816, Note_off_c, 11, 64, 64
12, 318840, Note_on_c, 11, 60, 72
12, 318936, Note_off_c, 11, 60, 64
12, 318960, Note_on_c, 11, 62, 72
12, 319056, Note_off_c, 11, 62, 64
12, 319080, Note_on_c, 11, 64, 72
12, 319176, Note_off_c, 11, 64, 64
12, 319200, Note_on_c, 11, 65, 72
12, 319296, Note_off_c, 11, 65, 64
12, 319320, Note_on_c, 11, 67, 72
12, 319416, Note_off_c, 11, 67, 64
12, 319440, Note_on_c, 11, 69, 72
12, 319536, Note_off_c, 11, 69, 64
12, 319560, Note_on_c, 11, 67, 72
12, 319656, Note_off_c, 11, 67, 64
12, 319680, Note_on_c, 11, 60, 127
12, 319776, Note_off_c, 11, 60, 64
12, 319800, Note_on_c, 11, 57, 72
12, 319896, Note_off_c, 11, 57, 64
12, 319920, Note_on_c, 11, 57, 72
12, 320016, Note_off_c, 11, 57, 64
12, 320040, Note_on_c, 11, 57, 72
12, 320136, Note_off_c, 11, 57, 64
12, 320160, Note_on_c, 11, 56, 127
12, 320256, Note_off_c, 11, 56, 64
12, 320280, Note_on_c, 11, 56, 72
12, 320376, Note_off_c, 11, 56, 64
12, 320400, Note_on_c, 11, 57, 72
12, 320496, Note_off_c, 11, 57, 64
12, 320520, Note_on_c, 11, 57, 72
12, 320616, Note_off_c, 11, 57, 64
12, 320640, Note_on_c, 11, 55, 72
12, 320736, Note_off_c, 11, 55, 64
12, 320760, Note_on_c, 11, 60, 72
12, 320856, Note_off_c, 11, 60, 64
12, 320880, Note_on_c, 11, 60, 72
12, 320976, Note_off_c, 11, 60, 64
12, 321000, Note_on_c, 11, 60, 72
12, 321096, Note_off_c, 11, 60, 64
12, 321120, Note_on_c, 11, 60, 127
12, 321216, Note_off_c, 11, 60, 64
12, 321240, Note_on_c, 11, 60, 72
12, 321336, Note_off_c, 11, 60, 64
12, 321360, Note_on_c, 11, 60, 72
12, 321456, Note_off_c, 11, 60, 64
12, 321480, Note_on_c, 11, 60, 72
12, 321576, Note_off_c, 11, 60, 64
12, 321600, Note_on_c, 11, 60, 72
12, 321696, Note_off_c, 11, 60, 64
12, 321720, Note_on_c, 11, 57, 72
12, 321816, Note_off_c, 11, 57, 64
12, 321840, Note_on_c, 11, 57, 72
12, 321936, Note_off_c, 11, 57, 64
12, 321960, Note_on_c, 11, 57, 72
12, 322056, Note_off_c, 11, 57, 64
12, 322080, Note_on_c, 11, 56, 127
12, 322176, Note_off_c, 11, 56, 64
12, 322200, Note_on_c, 11, 56, 72
12, 322296, Note_off_c, 11, 56, 64
12, 322320, Note_on_c, 11, 57, 72
12, 322416, Note_off_c, 11, 57, 64
12, 322440, Note_on_c, 11, 57, 72
12, 322536, Note_off_c, 11, 57, 64
12, 322560, Note_on_c, 11, 59, 72
12, 322656, Note_off_c, 11, 59, 64
12, 322680, Note_on_c, 11, 59, 72
12, 322776, Note_off_c, 11, 59, 64
12, 322800, Note_on_c, 11, 62, 72
12, 322896, Note_off_c, 11, 62, 64
12, 322920, Note_on_c, 11, 62, 72
12, 323016, Note_off_c, 11, 62, 64
12, 323040, Note_on_c, 11, 57, 127
12, 323136, Note_off_c, 11, 57, 64
12, 323160, Note_on_c, 11, 57, 72
12, 323256, Note_off_c, 11, 57, 64
12, 323280, Note_on_c, 11, 61, 72
12, 323376, Note_off_c, 11, 61, 64
12, 323400, Note_on_c, 11, 61, 72
12, 323496, Note_off_c, 11, 61, 64
12, 323520, Note_on_c, 11, 57, 72
12, 323616, Note_off_c, 11, 57, 64
12, 323640, Note_on_c, 11, 57, 72
12, 323736, Note_off_c, 11, 57, 64
12, 323760, Note_on_c, 11, 56, 72
12, 323856, Note_off_c, 11, 56, 64
12, 323880, Note_on_c, 11, 56, 72
12, 323976, Note_off_c, 11, 56, 64
12, 324000, Note_on_c, 11, 55, 127
12, 324096, Note_off_c, 11, 55, 64
12, 324120, Note_on_c, 11, 55, 72
12, 324216, Note_off_c, 11, 55, 64
12, 324240, Note_on_c, 11, 59, 72
12, 324336, Note_off_c, 11, 59, 64
12, 324360, Note_on_c, 11, 59, 72
12, 324456, Note_off_c, 11, 59, 64
12, 324480, Note_on_c, 11, 55, 72
12, 324576, Note_off_c, 11, 55, 64
12, 324600, Note_on_c, 11, 60, 72
12, 324696, Note_off_c, 11, 60, 64
12, 324720, Note_on_c, 11, 60, 72
12, 324816, Note_off_c, 11, 60, 64
12, 324840, Note_on_c, 11, 60, 72
12, 324936, Note_off_c, 11, 60, 64
12, 324960, Note_on_c, 11, 55, 127
12, 325056, Note_off_c, 11, 55, 64
12, 325080, Note_on_c, 11, 60, 72
12, 325176, Note_off_c, 11, 60, 64
12, 325200, Note_on_c, 11, 60, 72
12, 325296, Note_off_c, 11, 60, 64
12, 325320, Note_on_c, 11, 60, 72
12, 325416, Note_off_c, 11, 60, 64
12, 325440, Note_on_c, 11, 55, 72
12, 325536, Note_off_c, 11, 55, 64
12, 325560, Note_on_c, 11, 59, 72
12, 325656, Note_off_c, 11, 59, 64
12, 325680, Note_on_c, 11, 59, 72
12, 325776, Note_off_c, 11, 59, 64
12, 325800, Note_on_c, 11, 59, 72
12, 325896, Note_off_c, 11, 59, 64
12, 325920, Note_on_c, 11, 55, 127
12, 326016, Note_off_c, 11, 55, 64
12, 326040, Note_on_c, 11, 62, 72
12, 326136, Note_off_c, 11, 62, 64
12, 326160, Note_on_c, 11, 62, 72
12, 326256, Note_off_c, 11, 62, 64
12, 326280, Note_on_c, 11, 62, 72
12, 326376, Note_off_c, 11, 62, 64
12, 326400, Note_on_c, 11, 60, 127
12, 326400, Note_on_c, 11, 55, 108
12, 326514, Note_off_c, 11, 55, 64
12, 326514, Note_off_c, 11, 60, 64
12, 326520, Note_on_c, 11, 60, 80
12, 326616, Note_off_c, 11, 60, 64
12, 326640, Note_on_c, 11, 64, 80
12, 326640, Note_on_c, 11, 64, 80
12, 326736, Note_off_c, 11, 64, 64
12, 326736, Note_off_c, 11, 64, 64
12, 326760, Note_on_c, 11, 64, 80
12, 326856, Note_off_c, 11, 64, 64
12, 326880, Note_on_c, 11, 61, 99
12, 326976, Note_off_c, 11, 61, 64
12, 327000, Note_on_c, 11, 61, 99
12, 327096, Note_off_c, 11, 61, 64
12, 327120, Note_on_c, 11, 64, 99
12, 327216, Note_off_c, 11, 64, 64
12, 327240, Note_on_c, 11, 64, 99
12, 327336, Note_off_c, 11, 64, 64
12, 327360, Note_on_c, 11, 62, 99
12, 327456, Note_off_c, 11, 62, 64
12, 327480, Note_on_c, 11, 62, 99
12, 327576, Note_off_c, 11, 62, 64
12, 327600, Note_on_c, 11, 65, 99
12, 327696, Note_off_c, 11, 65, 64
12, 327720, Note_on_c, 11, 65, 99
12, 327816, Note_off_c, 11, 65, 64
12, 327840, Note_on_c, 11, 59, 99
12, 327936, Note_off_c, 11, 59, 64
12, 327960, Note_on_c, 11, 59, 99
12, 328056, Note_off_c, 11, 59, 64
12, 328080, Note_on_c, 11, 62, 99
12, 328176, Note_off_c, 11, 62, 64
12, 328200, Note_on_c, 11, 62, 99
12, 328296, Note_off_c, 11, 62, 64
12, 328320, Note_on_c, 11, 60, 99
12, 328416, Note_off_c, 11, 60, 64
12, 328440, Note_on_c, 11, 60, 99
12, 328536, Note_off_c, 11, 60, 64
12, 328560, Note_on_c, 11, 64, 99
12, 328656, Note_off_c, 11, 64, 64
12, 328680, Note_on_c, 11, 64, 99
12, 328776, Note_off_c, 11, 64, 64
12, 328800, Note_on_c, 11, 60, 99
12, 328896, Note_off_c, 11, 60, 64
12, 328920, Note_on_c, 11, 60, 99
12, 329016, Note_off_c, 11, 60, 64
12, 329040, Note_on_c, 11, 64, 99
12, 329136, Note_off_c, 11, 64, 64
12, 329160, Note_on_c, 11, 64, 99
12, 329256, Note_off_c, 11, 64, 64
12, 329280, Note_on_c, 11, 60, 99
12, 329376, Note_off_c, 11, 60, 64
12, 329400, Note_on_c, 11, 60, 99
12, 329496, Note_off_c, 11, 60, 64
12, 329520, Note_on_c, 11, 64, 99
12, 329616, Note_off_c, 11, 64, 64
12, 329640, Note_on_c, 11, 64, 99
12, 329736, Note_off_c, 11, 64, 64
12, 329760, Note_on_c, 11, 62, 99
12, 329856, Note_off_c, 11, 62, 64
12, 329880, Note_on_c, 11, 62, 99
12, 329976, Note_off_c, 11, 62, 64
12, 330000, Note_on_c, 11, 65, 99
12, 330096, Note_off_c, 11, 65, 64
12, 330120, Note_on_c, 11, 65, 99
12, 330216, Note_off_c, 11, 65, 64
12, 330240, Note_on_c, 11, 60, 99
12, 330336, Note_off_c, 11, 60, 64
12, 330360, Note_on_c, 11, 60, 99
12, 330456, Note_off_c, 11, 60, 64
12, 330480, Note_on_c, 11, 64, 99
12, 330576, Note_off_c, 11, 64, 64
12, 330600, Note_on_c, 11, 64, 99
12, 330696, Note_off_c, 11, 64, 64
12, 330720, Note_on_c, 11, 58, 99
12, 330816, Note_off_c, 11, 58, 64
12, 330840, Note_on_c, 11, 58, 99
12, 330936, Note_off_c, 11, 58, 64
12, 330960, Note_on_c, 11, 64, 99
12, 331056, Note_off_c, 11, 64, 64
12, 331080, Note_on_c, 11, 64, 99
12, 331176, Note_off_c, 11, 64, 64
12, 331200, Note_on_c, 11, 57, 99
12, 331296, Note_off_c, 11, 57, 64
12, 331320, Note_on_c, 11, 57, 99
12, 331416, Note_off_c, 11, 57, 64
12, 331440, Note_on_c, 11, 65, 99
12, 331536, Note_off_c, 11, 65, 64
12, 331560, Note_on_c, 11, 65, 99
12, 331656, Note_off_c, 11, 65, 64
12, 331680, Note_on_c, 11, 62, 99
12, 331776, Note_off_c, 11, 62, 64
12, 331800, Note_on_c, 11, 62, 99
12, 331896, Note_off_c, 11, 62, 64
12, 331920, Note_on_c, 11, 65, 99
12, 332016, Note_off_c, 11, 65, 64
12, 332040, Note_on_c, 11, 65, 99
12, 332136, Note_off_c, 11, 65, 64
12, 332160, Note_on_c, 11, 62, 99
12, 332256, Note_off_c, 11, 62, 64
12, 332280, Note_on_c, 11, 62, 99
12, 332376, Note_off_c, 11, 62, 64
12, 332400, Note_on_c, 11, 65, 99
12, 332496, Note_off_c, 11, 65, 64
12, 332520, Note_on_c, 11, 65, 99
12, 332616, Note_off_c, 11, 65, 64
12, 332640, Note_on_c, 11, 58, 99
12, 332736, Note_off_c, 11, 58, 64
12, 332760, Note_on_c, 11, 58, 99
12, 332856, Note_off_c, 11, 58, 64
12, 332880, Note_on_c, 11, 62, 99
12, 332976, Note_off_c, 11, 62, 64
12, 333000, Note_on_c, 11, 62, 99
12, 333096, Note_off_c, 11, 62, 64
12, 333120, Note_on_c, 11, 58, 99
12, 333216, Note_off_c, 11, 58, 64
12, 333240, Note_on_c, 11, 58, 99
12, 333336, Note_off_c, 11, 58, 64
12, 333360, Note_on_c, 11, 64, 99
12, 333456, Note_off_c, 11, 64, 64
12, 333480, Note_on_c, 11, 64, 99
12, 333576, Note_off_c, 11, 64, 64
12, 333600, Note_on_c, 11, 60, 99
12, 333696, Note_off_c, 11, 60, 64
12, 333720, Note_on_c, 11, 60, 99
12, 333816, Note_off_c, 11, 60, 64
12, 333840, Note_on_c, 11, 64, 99
12, 333936, Note_off_c, 11, 64, 64
12, 333960, Note_on_c, 11, 64, 99
12, 334056, Note_off_c, 11, 64, 64
12, 334080, Note_on_c, 11, 60, 99
12, 334176, Note_off_c, 11, 60, 64
12, 334200, Note_on_c, 11, 60, 99
12, 334296, Note_off_c, 11, 60, 64
12, 334320, Note_on_c, 11, 65, 99
12, 334416, Note_off_c, 11, 65, 64
12, 334440, Note_on_c, 11, 65, 99
12, 334536, Note_off_c, 11, 65, 64
12, 334560, Note_on_c, 11, 60, 99
12, 334656, Note_off_c, 11, 60, 64
12, 334680, Note_on_c, 11, 60, 99
12, 334776, Note_off_c, 11, 60, 64
12, 334800, Note_on_c, 11, 65, 99
12, 334896, Note_off_c, 11, 65, 64
12, 334920, Note_on_c, 11, 65, 99
12, 335016, Note_off_c, 11, 65, 64
12, 335040, Note_on_c, 11, 62, 99
12, 335136, Note_off_c, 11, 62, 64
12, 335160, Note_on_c, 11, 62, 99
12, 335256, Note_off_c, 11, 62, 64
12, 335280, Note_on_c, 11, 65, 99
12, 335376, Note_off_c, 11, 65, 64
12, 335400, Note_on_c, 11, 65, 99
12, 335496, Note_off_c, 11, 65, 64
12, 335520, Note_on_c, 11, 62, 99
12, 335616, Note_off_c, 11, 62, 64
12, 335640, Note_on_c, 11, 62, 99
12, 335736, Note_off_c, 11, 62, 64
12, 335760, Note_on_c, 11, 65, 99
12, 335856, Note_off_c, 11, 65, 64
12, 335880, Note_on_c, 11, 65, 99
12, 335976, Note_off_c, 11, 65, 64
12, 336000, Note_on_c, 11, 62, 99
12, 336096, Note_off_c, 11, 62, 64
12, 336120, Note_on_c, 11, 62, 99
12, 336216, Note_off_c, 11, 62, 64
12, 336240, Note_on_c, 11, 64, 99
12, 336336, Note_off_c, 11, 64, 64
12, 336360, Note_on_c, 11, 64, 99
12, 336456, Note_off_c, 11, 64, 64
12, 336480, Note_on_c, 11, 55, 99
12, 336576, Note_off_c, 11, 55, 64
12, 336600, Note_on_c, 11, 55, 99
12, 336696, Note_off_c, 11, 55, 64
12, 336720, Note_on_c, 11, 58, 99
12, 336816, Note_off_c, 11, 58, 64
12, 336840, Note_on_c, 11, 58, 99
12, 336936, Note_off_c, 11, 58, 64
12, 336960, Note_on_c, 11, 57, 99
12, 337056, Note_off_c, 11, 57, 64
12, 337080, Note_on_c, 11, 57, 99
12, 337176, Note_off_c, 11, 57, 64
12, 337200, Note_on_c, 11, 61, 99
12, 337296, Note_off_c, 11, 61, 64
12, 337320, Note_on_c, 11, 61, 99
12, 337416, Note_off_c, 11, 61, 64
12, 337440, Note_on_c, 11, 57, 99
12, 337536, Note_off_c, 11, 57, 64
12, 337560, Note_on_c, 11, 57, 99
12, 337656, Note_off_c, 11, 57, 64
12, 337680, Note_on_c, 11, 64, 99
12, 337776, Note_off_c, 11, 64, 64
12, 337800, Note_on_c, 11, 64, 99
12, 337896, Note_off_c, 11, 64, 64
12, 337920, Note_on_c, 11, 57, 80
12, 338016, Note_off_c, 11, 57, 64
12, 338040, Note_on_c, 11, 57, 79
12, 338136, Note_off_c, 11, 57, 64
12, 338160, Note_on_c, 11, 62, 79
12, 338256, Note_off_c, 11, 62, 64
12, 338280, Note_on_c, 11, 62, 78
12, 338376, Note_off_c, 11, 62, 64
12, 338400, Note_on_c, 11, 57, 77
12, 338496, Note_off_c, 11, 57, 64
12, 338520, Note_on_c, 11, 57, 76
12, 338616, Note_off_c, 11, 57, 64
12, 338640, Note_on_c, 11, 62, 76
12, 338736, Note_off_c, 11, 62, 64
12, 338760, Note_on_c, 11, 62, 75
12, 338856, Note_off_c, 11, 62, 64
12, 338880, Note_on_c, 11, 57, 74
12, 338976, Note_off_c, 11, 57, 64
12, 339000, Note_on_c, 11, 57, 74
12, 339096, Note_off_c, 11, 57, 64
12, 339120, Note_on_c, 11, 62, 73
12, 339216, Note_off_c, 11, 62, 64
12, 339240, Note_on_c, 11, 62, 72
12, 339336, Note_off_c, 11, 62, 64
12, 339360, Note_on_c, 11, 57, 71
12, 339456, Note_off_c, 11, 57, 64
12, 339480, Note_on_c, 11, 57, 71
12, 339576, Note_off_c, 11, 57, 64
12, 339600, Note_on_c, 11, 62, 70
12, 339696, Note_off_c, 11, 62, 64
12, 339720, Note_on_c, 11, 62, 69
12, 339816, Note_off_c, 11, 62, 64
12, 339840, Note_on_c, 11, 57, 69
12, 339936, Note_off_c, 11, 57, 64
12, 339960, Note_on_c, 11, 57, 68
12, 340056, Note_off_c, 11, 57, 64
12, 340080, Note_on_c, 11, 62, 67
12, 340176, Note_off_c, 11, 62, 64
12, 340200, Note_on_c, 11, 62, 66
12, 340296, Note_off_c, 11, 62, 64
12, 340320, Note_on_c, 11, 57, 66
12, 340416, Note_off_c, 11, 57, 64
12, 340440, Note_on_c, 11, 57, 65
12, 340536, Note_off_c, 11, 57, 64
12, 340560, Note_on_c, 11, 62, 64
12, 340656, Note_off_c, 11, 62, 64
12, 340680, Note_on_c, 11, 62, 64
12, 340776, Note_off_c, 11, 62, 64
12, 340800, Note_on_c, 11, 57, 63
12, 340896, Note_off_c, 11, 57, 64
12, 340920, Note_on_c, 11, 57, 62
12, 341016, Note_off_c, 11, 57, 64
12, 341040, Note_on_c, 11, 62, 61
12, 341136, Note_off_c, 11, 62, 64
12, 341160, Note_on_c, 11, 62, 61
12, 341256, Note_off_c, 11, 62, 64
12, 341280, Note_on_c, 11, 57, 60
12, 341376, Note_off_c, 11, 57, 64
12, 341400, Note_on_c, 11, 57, 59
12, 341496, Note_off_c, 11, 57, 64
12, 341520, Note_on_c, 11, 62, 59
12, 341616, Note_off_c, 11, 62, 64
12, 341640, Note_on_c, 11, 62, 58
12, 341736, Note_off_c, 11, 62, 64
12, 341760, Note_on_c, 11, 57, 57
12, 341856, Note_off_c, 11, 57, 64
12, 341880, Note_on_c, 11, 57, 56
12, 341976, Note_off_c, 11, 57, 64
12, 342000, Note_on_c, 11, 62, 56
12, 342096, Note_off_c, 11, 62, 64
12, 342120, Note_on_c, 11, 62, 55
12, 342216, Note_off_c, 11, 62, 64
12, 342240, Note_on_c, 11, 57, 54
12, 342336, Note_off_c, 11, 57, 64
12, 342360, Note_on_c, 11, 57, 54
12, 342456, Note_off_c, 11, 57, 64
12, 342480, Note_on_c, 11, 62, 53
12, 342576, Note_off_c, 11, 62, 64
12, 342600, Note_on_c, 11, 62, 52
12, 342696, Note_off_c, 11, 62, 64
12, 342720, Note_on_c, 11, 57, 51
12, 342816, Note_off_c, 11, 57, 64
12, 342840, Note_on_c, 11, 57, 51
12, 342936, Note_off_c, 11, 57, 64
12, 342960, Note_on_c, 11, 62, 50
12, 343056, Note_off_c, 11, 62, 64
12, 343080, Note_on_c, 11, 62, 49
12, 343176, Note_off_c, 11, 62, 64
12, 343200, Note_on_c, 11, 53, 49
12, 343296, Note_off_c, 11, 53, 64
12, 343320, Note_on_c, 11, 53, 48
12, 343416, Note_off_c, 11, 53, 64
12, 343440, Note_on_c, 11, 57, 47
12, 343536, Note_off_c, 11, 57, 64
12, 343560, Note_on_c, 11, 57, 46
12, 343656, Note_off_c, 11, 57, 64
12, 343680, Note_on_c, 11, 57, 46
12, 343776, Note_off_c, 11, 57, 64
12, 343800, Note_on_c, 11, 57, 45
12, 343896, Note_off_c, 11, 57, 64
12, 343920, Note_on_c, 11, 57, 44
12, 344016, Note_off_c, 11, 57, 64
12, 344040, Note_on_c, 11, 57, 44
12, 344136, Note_off_c, 11, 57, 64
12, 344160, Note_on_c, 11, 53, 43
12, 344256, Note_off_c, 11, 53, 64
12, 344280, Note_on_c, 11, 53, 42
12, 344376, Note_off_c, 11, 53, 64
12, 344400, Note_on_c, 11, 57, 41
12, 344496, Note_off_c, 11, 57, 64
12, 344520, Note_on_c, 11, 57, 41
12, 344616, Note_off_c, 11, 57, 64
12, 344640, Note_on_c, 11, 57, 60
12, 344736, Note_off_c, 11, 57, 64
12, 344760, Note_on_c, 11, 57, 60
12, 344856, Note_off_c, 11, 57, 64
12, 344880, Note_on_c, 11, 57, 60
12, 344976, Note_off_c, 11, 57, 64
12, 345000, Note_on_c, 11, 57, 60
12, 345096, Note_off_c, 11, 57, 64
12, 345120, Note_on_c, 11, 54, 60
12, 345216, Note_off_c, 11, 54, 64
12, 345240, Note_on_c, 11, 54, 60
12, 345336, Note_off_c, 11, 54, 64
12, 345360, Note_on_c, 11, 57, 60
12, 345456, Note_off_c, 11, 57, 64
12, 345480, Note_on_c, 11, 57, 60
12, 345576, Note_off_c, 11, 57, 64
12, 345600, Note_on_c, 11, 57, 60
12, 345696, Note_off_c, 11, 57, 64
12, 345720, Note_on_c, 11, 57, 60
12, 345816, Note_off_c, 11, 57, 64
12, 345840, Note_on_c, 11, 57, 60
12, 345936, Note_off_c, 11, 57, 64
12, 345960, Note_on_c, 11, 57, 60
12, 346056, Note_off_c, 11, 57, 64
12, 346080, Note_on_c, 11, 54, 60
12, 346176, Note_off_c, 11, 54, 64
12, 346200, Note_on_c, 11, 54, 60
12, 346296, Note_off_c, 11, 54, 64
12, 346320, Note_on_c, 11, 58, 60
12, 346416, Note_off_c, 11, 58, 64
12, 346440, Note_on_c, 11, 58, 60
12, 346536, Note_off_c, 11, 58, 64
12, 346560, Note_on_c, 11, 58, 60
12, 346656, Note_off_c, 11, 58, 64
12, 346680, Note_on_c, 11, 58, 60
12, 346776, Note_off_c, 11, 58, 64
12, 346800, Note_on_c, 11, 58, 60
12, 346896, Note_off_c, 11, 58, 64
12, 346920, Note_on_c, 11, 58, 60
12, 347016, Note_off_c, 11, 58, 64
12, 347040, Note_on_c, 11, 55, 60
12, 347136, Note_off_c, 11, 55, 64
12, 347160, Note_on_c, 11, 55, 60
12, 347256, Note_off_c, 11, 55, 64
12, 347280, Note_on_c, 11, 58, 60
12, 347376, Note_off_c, 11, 58, 64
12, 347400, Note_on_c, 11, 58, 60
12, 347496, Note_off_c, 11, 58, 64
12, 347520, Note_on_c, 11, 58, 60
12, 347616, Note_off_c, 11, 58, 64
12, 347640, Note_on_c, 11, 58, 60
12, 347736, Note_off_c, 11, 58, 64
12, 347760, Note_on_c, 11, 58, 60
12, 347856, Note_off_c, 11, 58, 64
12, 347880, Note_on_c, 11, 58, 60
12, 347976, Note_off_c, 11, 58, 64
12, 348000, Note_on_c, 11, 55, 60
12, 348096, Note_off_c, 11, 55, 64
12, 348120, Note_on_c, 11, 55, 60
12, 348216, Note_off_c, 11, 55, 64
12, 348240, Note_on_c, 11, 59, 60
12, 348336, Note_off_c, 11, 59, 64
12, 348360, Note_on_c, 11, 59, 60
12, 348456, Note_off_c, 11, 59, 64
12, 348480, Note_on_c, 11, 59, 60
12, 348576, Note_off_c, 11, 59, 64
12, 348600, Note_on_c, 11, 59, 60
12, 348696, Note_off_c, 11, 59, 64
12, 348720, Note_on_c, 11, 59, 60
12, 348816, Note_off_c, 11, 59, 64
12, 348840, Note_on_c, 11, 59, 60
12, 348936, Note_off_c, 11, 59, 64
12, 348960, Note_on_c, 11, 56, 60
12, 349056, Note_off_c, 11, 56, 64
12, 349080, Note_on_c, 11, 56, 60
12, 349176, Note_off_c, 11, 56, 64
12, 349200, Note_on_c, 11, 59, 60
12, 349296, Note_off_c, 11, 59, 64
12, 349320, Note_on_c, 11, 59, 60
12, 349416, Note_off_c, 11, 59, 64
12, 349440, Note_on_c, 11, 59, 60
12, 349536, Note_off_c, 11, 59, 64
12, 349560, Note_on_c, 11, 59, 60
12, 349656, Note_off_c, 11, 59, 64
12, 349680, Note_on_c, 11, 59, 60
12, 349776, Note_off_c, 11, 59, 64
12, 349800, Note_on_c, 11, 59, 60
12, 349896, Note_off_c, 11, 59, 64
12, 349920, Note_on_c, 11, 56, 60
12, 350016, Note_off_c, 11, 56, 64
12, 350040, Note_on_c, 11, 56, 60
12, 350136, Note_off_c, 11, 56, 64
12, 350160, Note_on_c, 11, 60, 60
12, 350256, Note_off_c, 11, 60, 64
12, 350280, Note_on_c, 11, 60, 60
12, 350376, Note_off_c, 11, 60, 64
12, 350400, Note_on_c, 11, 60, 60
12, 350496, Note_off_c, 11, 60, 64
12, 350520, Note_on_c, 11, 60, 60
12, 350616, Note_off_c, 11, 60, 64
12, 350640, Note_on_c, 11, 60, 60
12, 350736, Note_off_c, 11, 60, 64
12, 350760, Note_on_c, 11, 60, 60
12, 350856, Note_off_c, 11, 60, 64
12, 350880, Note_on_c, 11, 57, 60
12, 350976, Note_off_c, 11, 57, 64
12, 351000, Note_on_c, 11, 57, 60
12, 351096, Note_off_c, 11, 57, 64
12, 351120, Note_on_c, 11, 61, 60
12, 351216, Note_off_c, 11, 61, 64
12, 351240, Note_on_c, 11, 61, 60
12, 351336, Note_off_c, 11, 61, 64
12, 351360, Note_on_c, 11, 61, 60
12, 351456, Note_off_c, 11, 61, 64
12, 351480, Note_on_c, 11, 61, 60
12, 351576, Note_off_c, 11, 61, 64
12, 351600, Note_on_c, 11, 61, 60
12, 351696, Note_off_c, 11, 61, 64
12, 351720, Note_on_c, 11, 61, 60
12, 351816, Note_off_c, 11, 61, 64
12, 351840, Note_on_c, 11, 58, 60
12, 351936, Note_off_c, 11, 58, 64
12, 351960, Note_on_c, 11, 58, 60
12, 352056, Note_off_c, 11, 58, 64
12, 352080, Note_on_c, 11, 62, 60
12, 352176, Note_off_c, 11, 62, 64
12, 352200, Note_on_c, 11, 62, 60
12, 352296, Note_off_c, 11, 62, 64
12, 352320, Note_on_c, 11, 62, 60
12, 352416, Note_off_c, 11, 62, 64
12, 352440, Note_on_c, 11, 62, 60
12, 352536, Note_off_c, 11, 62, 64
12, 352560, Note_on_c, 11, 62, 60
12, 352656, Note_off_c, 11, 62, 64
12, 352680, Note_on_c, 11, 62, 60
12, 352776, Note_off_c, 11, 62, 64
12, 352800, Note_on_c, 11, 59, 60
12, 352896, Note_off_c, 11, 59, 64
12, 352920, Note_on_c, 11, 59, 60
12, 353016, Note_off_c, 11, 59, 64
12, 353040, Note_on_c, 11, 63, 60
12, 353136, Note_off_c, 11, 63, 64
12, 353160, Note_on_c, 11, 63, 60
12, 353256, Note_off_c, 11, 63, 64
12, 353280, Note_on_c, 11, 63, 60
12, 353376, Note_off_c, 11, 63, 64
12, 353400, Note_on_c, 11, 63, 60
12, 353496, Note_off_c, 11, 63, 64
12, 353520, Note_on_c, 11, 63, 60
12, 353616, Note_off_c, 11, 63, 64
12, 353640, Note_on_c, 11, 63, 60
12, 353736, Note_off_c, 11, 63, 64
12, 353760, Note_on_c, 11, 60, 60
12, 353856, Note_off_c, 11, 60, 64
12, 353880, Note_on_c, 11, 60, 60
12, 353976, Note_off_c, 11, 60, 64
12, 354000, Note_on_c, 11, 64, 60
12, 354096, Note_off_c, 11, 64, 64
12, 354120, Note_on_c, 11, 64, 60
12, 354216, Note_off_c, 11, 64, 64
12, 354240, Note_on_c, 11, 64, 64
12, 354336, Note_off_c, 11, 64, 64
12, 354360, Note_on_c, 11, 64, 64
12, 354456, Note_off_c, 11, 64, 64
12, 354480, Note_on_c, 11, 64, 64
12, 354576, Note_off_c, 11, 64, 64
12, 354600, Note_on_c, 11, 64, 64
12, 354696, Note_off_c, 11, 64, 64
12, 354720, Note_on_c, 11, 61, 64
12, 354816, Note_off_c, 11, 61, 64
12, 354840, Note_on_c, 11, 61, 64
12, 354936, Note_off_c, 11, 61, 64
12, 354960, Note_on_c, 11, 64, 64
12, 355056, Note_off_c, 11, 64, 64
12, 355080, Note_on_c, 11, 64, 64
12, 355176, Note_off_c, 11, 64, 64
12, 355200, Note_on_c, 11, 64, 64
12, 355296, Note_off_c, 11, 64, 64
12, 355320, Note_on_c, 11, 64, 64
12, 355416, Note_off_c, 11, 64, 64
12, 355440, Note_on_c, 11, 64, 64
12, 355536, Note_off_c, 11, 64, 64
12, 355560, Note_on_c, 11, 64, 64
12, 355656, Note_off_c, 11, 64, 64
12, 355680, Note_on_c, 11, 62, 64
12, 355776, Note_off_c, 11, 62, 64
12, 355800, Note_on_c, 11, 62, 64
12, 355896, Note_off_c, 11, 62, 64
12, 355920, Note_on_c, 11, 64, 64
12, 356016, Note_off_c, 11, 64, 64
12, 356040, Note_on_c, 11, 64, 64
12, 356136, Note_off_c, 11, 64, 64
12, 356160, Note_on_c, 11, 64, 64
12, 356256, Note_off_c, 11, 64, 64
12, 356280, Note_on_c, 11, 64, 64
12, 356376, Note_off_c, 11, 64, 64
12, 356400, Note_on_c, 11, 64, 64
12, 356496, Note_off_c, 11, 64, 64
12, 356520, Note_on_c, 11, 64, 64
12, 356616, Note_off_c, 11, 64, 64
12, 356640, Note_on_c, 11, 63, 64
12, 356736, Note_off_c, 11, 63, 64
12, 356760, Note_on_c, 11, 63, 64
12, 356856, Note_off_c, 11, 63, 64
12, 356880, Note_on_c, 11, 64, 64
12, 356976, Note_off_c, 11, 64, 64
12, 357000, Note_on_c, 11, 64, 64
12, 357096, Note_off_c, 11, 64, 64
12, 357120, Note_on_c, 11, 64, 64
12, 357216, Note_off_c, 11, 64, 64
12, 357240, Note_on_c, 11, 64, 64
12, 357336, Note_off_c, 11, 64, 64
12, 357360, Note_on_c, 11, 64, 64
12, 357456, Note_off_c, 11, 64, 64
12, 357480, Note_on_c, 11, 64, 64
12, 357576, Note_off_c, 11, 64, 64
12, 357600, Note_on_c, 11, 63, 64
12, 357696, Note_off_c, 11, 63, 64
12, 357720, Note_on_c, 11, 63, 64
12, 357816, Note_off_c, 11, 63, 64
12, 357840, Note_on_c, 11, 64, 64
12, 357936, Note_off_c, 11, 64, 64
12, 357960, Note_on_c, 11, 64, 64
12, 358056, Note_off_c, 11, 64, 64
12, 358080, Note_on_c, 11, 64, 64
12, 358176, Note_off_c, 11, 64, 64
12, 358200, Note_on_c, 11, 52, 51
12, 358296, Note_off_c, 11, 52, 64
12, 358320, Note_on_c, 11, 52, 51
12, 358416, Note_off_c, 11, 52, 64
12, 358440, Note_on_c, 11, 52, 51
12, 358536, Note_off_c, 11, 52, 64
12, 358560, Note_on_c, 11, 51, 51
12, 358656, Note_off_c, 11, 51, 64
12, 358680, Note_on_c, 11, 51, 51
12, 358776, Note_off_c, 11, 51, 64
12, 358800, Note_on_c, 11, 52, 51
12, 358896, Note_off_c, 11, 52, 64
12, 358920, Note_on_c, 11, 52, 51
12, 359016, Note_off_c, 11, 52, 64
12, 359040, Note_on_c, 11, 52, 51
12, 359136, Note_off_c, 11, 52, 64
12, 359160, Note_on_c, 11, 52, 51
12, 359256, Note_off_c, 11, 52, 64
12, 359280, Note_on_c, 11, 52, 51
12, 359376, Note_off_c, 11, 52, 64
12, 359400, Note_on_c, 11, 52, 51
12, 359496, Note_off_c, 11, 52, 64
12, 359520, Note_on_c, 11, 51, 51
12, 359616, Note_off_c, 11, 51, 64
12, 359640, Note_on_c, 11, 51, 51
12, 359736, Note_off_c, 11, 51, 64
12, 359760, Note_on_c, 11, 52, 51
12, 359856, Note_off_c, 11, 52, 64
12, 359880, Note_on_c, 11, 52, 51
12, 359976, Note_off_c, 11, 52, 64
12, 360000, Note_on_c, 11, 52, 51
12, 360096, Note_off_c, 11, 52, 64
12, 360120, Note_on_c, 11, 52, 51
12, 360216, Note_off_c, 11, 52, 64
12, 360240, Note_on_c, 11, 52, 51
12, 360336, Note_off_c, 11, 52, 64
12, 360360, Note_on_c, 11, 52, 51
12, 360456, Note_off_c, 11, 52, 64
12, 360480, Note_on_c, 11, 51, 51
12, 360576, Note_off_c, 11, 51, 64
12, 360600, Note_on_c, 11, 51, 51
12, 360696, Note_off_c, 11, 51, 64
12, 360720, Note_on_c, 11, 52, 51
12, 360816, Note_off_c, 11, 52, 64
12, 360840, Note_on_c, 11, 52, 51
12, 360936, Note_off_c, 11, 52, 64
12, 360960, Note_on_c, 11, 52, 51
12, 361056, Note_off_c, 11, 52, 64
12, 361080, Note_on_c, 11, 52, 51
12, 361176, Note_off_c, 11, 52, 64
12, 361200, Note_on_c, 11, 52, 51
12, 361296, Note_off_c, 11, 52, 64
12, 361320, Note_on_c, 11, 52, 51
12, 361416, Note_off_c, 11, 52, 64
12, 361440, Note_on_c, 11, 51, 51
12, 361536, Note_off_c, 11, 51, 64
12, 361560, Note_on_c, 11, 51, 51
12, 361656, Note_off_c, 11, 51, 64
12, 361680, Note_on_c, 11, 52, 51
12, 361776, Note_off_c, 11, 52, 64
12, 361800, Note_on_c, 11, 52, 51
12, 361896, Note_off_c, 11, 52, 64
12, 361920, Note_on_c, 11, 53, 40
12, 361980, Note_off_c, 11, 53, 64
12, 362160, Note_on_c, 11, 60, 40
12, 362220, Note_off_c, 11, 60, 64
12, 362280, Note_on_c, 11, 60, 40
12, 362340, Note_off_c, 11, 60, 64
12, 362400, Note_on_c, 11, 60, 40
12, 362520, Note_off_c, 11, 60, 64
12, 363840, Note_on_c, 11, 60, 40
12, 363960, Note_off_c, 11, 60, 64
12, 364080, Note_on_c, 11, 60, 40
12, 364140, Note_off_c, 11, 60, 64
12, 364200, Note_on_c, 11, 60, 40
12, 364260, Note_off_c, 11, 60, 64
12, 364320, Note_on_c, 11, 60, 40
12, 364440, Note_off_c, 11, 60, 64
12, 371040, Note_on_c, 11, 62, 48
12, 371400, Note_off_c, 11, 62, 64
12, 371400, Note_on_c, 11, 70, 48
12, 371496, Note_off_c, 11, 70, 64
12, 371520, Note_on_c, 11, 62, 48
12, 371880, Note_off_c, 11, 62, 64
12, 371880, Note_on_c, 11, 70, 48
12, 371976, Note_off_c, 11, 70, 64
12, 372480, Note_on_c, 11, 53, 40
12, 372540, Note_off_c, 11, 53, 64
12, 372720, Note_on_c, 11, 60, 40
12, 372780, Note_off_c, 11, 60, 64
12, 372840, Note_on_c, 11, 60, 40
12, 372900, Note_off_c, 11, 60, 64
12, 372960, Note_on_c, 11, 60, 40
12, 373080, Note_off_c, 11, 60, 64
12, 374400, Note_on_c, 11, 60, 40
12, 374520, Note_off_c, 11, 60, 64
12, 374640, Note_on_c, 11, 60, 40
12, 374700, Note_off_c, 11, 60, 64
12, 374760, Note_on_c, 11, 60, 40
12, 374820, Note_off_c, 11, 60, 64
12, 374880, Note_on_c, 11, 60, 40
12, 375000, Note_off_c, 11, 60, 64
12, 381600, Note_on_c, 11, 62, 81
12, 381960, Note_off_c, 11, 62, 64
12, 381960, Note_on_c, 11, 71, 81
12, 382056, Note_off_c, 11, 71, 64
12, 382080, Note_on_c, 11, 62, 81
12, 382440, Note_off_c, 11, 62, 64
12, 382440, Note_on_c, 11, 71, 81
12, 382536, Note_off_c, 11, 71, 64
12, 383040, Note_on_c, 11, 59, 114
12, 383040, Note_on_c, 11, 52, 114
12, 383040, Note_on_c, 11, 64, 114
12, 383208, Note_off_c, 11, 64, 64
12, 383208, Note_off_c, 11, 52, 64
12, 383208, Note_off_c, 11, 59, 64
12, 385440, Note_on_c, 11, 52, 114
12, 385440, Note_on_c, 11, 62, 114
12, 385440, Note_on_c, 11, 59, 114
12, 385608, Note_off_c, 11, 59, 64
12, 385608, Note_off_c, 11, 62, 64
12, 385608, Note_off_c, 11, 52, 64
12, 387840, Note_on_c, 11, 56, 127
12, 387936, Note_off_c, 11, 56, 64
12, 387960, Note_on_c, 11, 56, 72
12, 388056, Note_off_c, 11, 56, 64
12, 388080, Note_on_c, 11, 56, 72
12, 388176, Note_off_c, 11, 56, 64
12, 388200, Note_on_c, 11, 56, 72
12, 388296, Note_off_c, 11, 56, 64
12, 388320, Note_on_c, 11, 54, 127
12, 388416, Note_off_c, 11, 54, 64
12, 388440, Note_on_c, 11, 54, 72
12, 388536, Note_off_c, 11, 54, 64
12, 388560, Note_on_c, 11, 56, 72
12, 388656, Note_off_c, 11, 56, 64
12, 388680, Note_on_c, 11, 56, 72
12, 388776, Note_off_c, 11, 56, 64
12, 388800, Note_on_c, 11, 57, 72
12, 388896, Note_off_c, 11, 57, 64
12, 388920, Note_on_c, 11, 57, 72
12, 389016, Note_off_c, 11, 57, 64
12, 389040, Note_on_c, 11, 57, 72
12, 389040, Note_on_c, 11, 57, 72
12, 389136, Note_off_c, 11, 57, 64
12, 389136, Note_off_c, 11, 57, 64
12, 389160, Note_on_c, 11, 57, 72
12, 389256, Note_off_c, 11, 57, 64
12, 389280, Note_on_c, 11, 56, 127
12, 389376, Note_off_c, 11, 56, 64
12, 389400, Note_on_c, 11, 56, 72
12, 389496, Note_off_c, 11, 56, 64
12, 389520, Note_on_c, 11, 57, 72
12, 389616, Note_off_c, 11, 57, 64
12, 389640, Note_on_c, 11, 57, 72
12, 389736, Note_off_c, 11, 57, 64
12, 389760, Note_on_c, 11, 56, 72
12, 389856, Note_off_c, 11, 56, 64
12, 389880, Note_on_c, 11, 56, 72
12, 389976, Note_off_c, 11, 56, 64
12, 390000, Note_on_c, 11, 56, 72
12, 390096, Note_off_c, 11, 56, 64
12, 390120, Note_on_c, 11, 56, 72
12, 390216, Note_off_c, 11, 56, 64
12, 390240, Note_on_c, 11, 54, 127
12, 390336, Note_off_c, 11, 54, 64
12, 390360, Note_on_c, 11, 54, 72
12, 390456, Note_off_c, 11, 54, 64
12, 390480, Note_on_c, 11, 56, 72
12, 390576, Note_off_c, 11, 56, 64
12, 390600, Note_on_c, 11, 56, 72
12, 390696, Note_off_c, 11, 56, 64
12, 390720, Note_on_c, 11, 57, 72
12, 390816, Note_off_c, 11, 57, 64
12, 390840, Note_on_c, 11, 57, 72
12, 390936, Note_off_c, 11, 57, 64
12, 390960, Note_on_c, 11, 59, 72
12, 391056, Note_off_c, 11, 59, 64
12, 391080, Note_on_c, 11, 61, 72
12, 391176, Note_off_c, 11, 61, 64
12, 391200, Note_on_c, 11, 62, 127
12, 391296, Note_off_c, 11, 62, 64
12, 391320, Note_on_c, 11, 61, 72
12, 391416, Note_off_c, 11, 61, 64
12, 391440, Note_on_c, 11, 59, 72
12, 391536, Note_off_c, 11, 59, 64
12, 391560, Note_on_c, 11, 57, 72
12, 391656, Note_off_c, 11, 57, 64
12, 391680, Note_on_c, 11, 56, 72
12, 391776, Note_off_c, 11, 56, 64
12, 391800, Note_on_c, 11, 56, 72
12, 391896, Note_off_c, 11, 56, 64
12, 391920, Note_on_c, 11, 56, 72
12, 392016, Note_off_c, 11, 56, 64
12, 392040, Note_on_c, 11, 56, 72
12, 392136, Note_off_c, 11, 56, 64
12, 392160, Note_on_c, 11, 54, 127
12, 392256, Note_off_c, 11, 54, 64
12, 392280, Note_on_c, 11, 54, 72
12, 392376, Note_off_c, 11, 54, 64
12, 392400, Note_on_c, 11, 56, 72
12, 392496, Note_off_c, 11, 56, 64
12, 392520, Note_on_c, 11, 56, 72
12, 392616, Note_off_c, 11, 56, 64
12, 392640, Note_on_c, 11, 57, 72
12, 392736, Note_off_c, 11, 57, 64
12, 392760, Note_on_c, 11, 57, 72
12, 392856, Note_off_c, 11, 57, 64
12, 392880, Note_on_c, 11, 57, 72
12, 392880, Note_on_c, 11, 57, 72
12, 392976, Note_off_c, 11, 57, 64
12, 392976, Note_off_c, 11, 57, 64
12, 393000, Note_on_c, 11, 57, 72
12, 393096, Note_off_c, 11, 57, 64
12, 393120, Note_on_c, 11, 56, 127
12, 393216, Note_off_c, 11, 56, 64
12, 393240, Note_on_c, 11, 56, 72
12, 393336, Note_off_c, 11, 56, 64
12, 393360, Note_on_c, 11, 57, 72
12, 393456, Note_off_c, 11, 57, 64
12, 393480, Note_on_c, 11, 57, 72
12, 393576, Note_off_c, 11, 57, 64
12, 393600, Note_on_c, 11, 56, 72
12, 393696, Note_off_c, 11, 56, 64
12, 393720, Note_on_c, 11, 56, 72
12, 393816, Note_off_c, 11, 56, 64
12, 393840, Note_on_c, 11, 56, 72
12, 393936, Note_off_c, 11, 56, 64
12, 393960, Note_on_c, 11, 56, 72
12, 394056, Note_off_c, 11, 56, 64
12, 394080, Note_on_c, 11, 54, 127
12, 394176, Note_off_c, 11, 54, 64
12, 394200, Note_on_c, 11, 54, 72
12, 394296, Note_off_c, 11, 54, 64
12, 394320, Note_on_c, 11, 56, 72
12, 394416, Note_off_c, 11, 56, 64
12, 394440, Note_on_c, 11, 56, 72
12, 394536, Note_off_c, 11, 56, 64
12, 394560, Note_on_c, 11, 57, 72
12, 394656, Note_off_c, 11, 57, 64
12, 394680, Note_on_c, 11, 59, 72
12, 394776, Note_off_c, 11, 59, 64
12, 394800, Note_on_c, 11, 61, 72
12, 394896, Note_off_c, 11, 61, 64
12, 394920, Note_on_c, 11, 62, 72
12, 395016, Note_off_c, 11, 62, 64
12, 395040, Note_on_c, 11, 64, 72
12, 395136, Note_off_c, 11, 64, 64
12, 395160, Note_on_c, 11, 66, 72
12, 395256, Note_off_c, 11, 66, 64
12, 395280, Note_on_c, 11, 68, 72
12, 395376, Note_off_c, 11, 68, 64
12, 395400, Note_on_c, 11, 69, 72
12, 395496, Note_off_c, 11, 69, 64
12, 395520, Note_on_c, 11, 56, 127
12, 395616, Note_off_c, 11, 56, 64
12, 395640, Note_on_c, 11, 56, 72
12, 395736, Note_off_c, 11, 56, 64
12, 395760, Note_on_c, 11, 56, 72
12, 395856, Note_off_c, 11, 56, 64
12, 395880, Note_on_c, 11, 56, 72
12, 395976, Note_off_c, 11, 56, 64
12, 396000, Note_on_c, 11, 54, 127
12, 396096, Note_off_c, 11, 54, 64
12, 396120, Note_on_c, 11, 54, 72
12, 396216, Note_off_c, 11, 54, 64
12, 396240, Note_on_c, 11, 56, 72
12, 396336, Note_off_c, 11, 56, 64
12, 396360, Note_on_c, 11, 56, 72
12, 396456, Note_off_c, 11, 56, 64
12, 396480, Note_on_c, 11, 57, 72
12, 396576, Note_off_c, 11, 57, 64
12, 396600, Note_on_c, 11, 57, 72
12, 396696, Note_off_c, 11, 57, 64
12, 396720, Note_on_c, 11, 57, 72
12, 396720, Note_on_c, 11, 57, 72
12, 396816, Note_off_c, 11, 57, 64
12, 396816, Note_off_c, 11, 57, 64
12, 396840, Note_on_c, 11, 57, 72
12, 396936, Note_off_c, 11, 57, 64
12, 396960, Note_on_c, 11, 56, 127
12, 397056, Note_off_c, 11, 56, 64
12, 397080, Note_on_c, 11, 56, 72
12, 397176, Note_off_c, 11, 56, 64
12, 397200, Note_on_c, 11, 57, 72
12, 397296, Note_off_c, 11, 57, 64
12, 397320, Note_on_c, 11, 57, 72
12, 397416, Note_off_c, 11, 57, 64
12, 397440, Note_on_c, 11, 56, 72
12, 397536, Note_off_c, 11, 56, 64
12, 397560, Note_on_c, 11, 56, 72
12, 397656, Note_off_c, 11, 56, 64
12, 397680, Note_on_c, 11, 56, 72
12, 397776, Note_off_c, 11, 56, 64
12, 397800, Note_on_c, 11, 56, 72
12, 397896, Note_off_c, 11, 56, 64
12, 397920, Note_on_c, 11, 54, 127
12, 398016, Note_off_c, 11, 54, 64
12, 398040, Note_on_c, 11, 54, 72
12, 398136, Note_off_c, 11, 54, 64
12, 398160, Note_on_c, 11, 56, 72
12, 398256, Note_off_c, 11, 56, 64
12, 398280, Note_on_c, 11, 56, 72
12, 398376, Note_off_c, 11, 56, 64
12, 398400, Note_on_c, 11, 57, 72
12, 398496, Note_off_c, 11, 57, 64
12, 398520, Note_on_c, 11, 57, 72
12, 398616, Note_off_c, 11, 57, 64
12, 398640, Note_on_c, 11, 59, 72
12, 398736, Note_off_c, 11, 59, 64
12, 398760, Note_on_c, 11, 61, 72
12, 398856, Note_off_c, 11, 61, 64
12, 398880, Note_on_c, 11, 62, 127
12, 398976, Note_off_c, 11, 62, 64
12, 399000, Note_on_c, 11, 61, 72
12, 399096, Note_off_c, 11, 61, 64
12, 399120, Note_on_c, 11, 59, 72
12, 399216, Note_off_c, 11, 59, 64
12, 399240, Note_on_c, 11, 57, 72
12, 399336, Note_off_c, 11, 57, 64
12, 399360, Note_on_c, 11, 56, 72
12, 399456, Note_off_c, 11, 56, 64
12, 399480, Note_on_c, 11, 56, 72
12, 399576, Note_off_c, 11, 56, 64
12, 399600, Note_on_c, 11, 56, 72
12, 399696, Note_off_c, 11, 56, 64
12, 399720, Note_on_c, 11, 56, 72
12, 399816, Note_off_c, 11, 56, 64
12, 399840, Note_on_c, 11, 54, 127
12, 399936, Note_off_c, 11, 54, 64
12, 399960, Note_on_c, 11, 54, 72
12, 400056, Note_off_c, 11, 54, 64
12, 400080, Note_on_c, 11, 56, 72
12, 400176, Note_off_c, 11, 56, 64
12, 400200, Note_on_c, 11, 56, 72
12, 400296, Note_off_c, 11, 56, 64
12, 400320, Note_on_c, 11, 57, 72
12, 400416, Note_off_c, 11, 57, 64
12, 400440, Note_on_c, 11, 57, 72
12, 400536, Note_off_c, 11, 57, 64
12, 400560, Note_on_c, 11, 57, 72
12, 400560, Note_on_c, 11, 57, 72
12, 400656, Note_off_c, 11, 57, 64
12, 400656, Note_off_c, 11, 57, 64
12, 400680, Note_on_c, 11, 57, 72
12, 400776, Note_off_c, 11, 57, 64
12, 400800, Note_on_c, 11, 56, 127
12, 400896, Note_off_c, 11, 56, 64
12, 400920, Note_on_c, 11, 56, 72
12, 401016, Note_off_c, 11, 56, 64
12, 401040, Note_on_c, 11, 57, 72
12, 401136, Note_off_c, 11, 57, 64
12, 401160, Note_on_c, 11, 57, 72
12, 401256, Note_off_c, 11, 57, 64
12, 401280, Note_on_c, 11, 56, 72
12, 401376, Note_off_c, 11, 56, 64
12, 401400, Note_on_c, 11, 56, 72
12, 401496, Note_off_c, 11, 56, 64
12, 401520, Note_on_c, 11, 56, 72
12, 401616, Note_off_c, 11, 56, 64
12, 401640, Note_on_c, 11, 56, 72
12, 401736, Note_off_c, 11, 56, 64
12, 401760, Note_on_c, 11, 54, 127
12, 401856, Note_off_c, 11, 54, 64
12, 401880, Note_on_c, 11, 54, 72
12, 401976, Note_off_c, 11, 54, 64
12, 402000, Note_on_c, 11, 56, 72
12, 402096, Note_off_c, 11, 56, 64
12, 402120, Note_on_c, 11, 56, 72
12, 402216, Note_off_c, 11, 56, 64
12, 402240, Note_on_c, 11, 57, 127
12, 402240, Note_on_c, 11, 52, 108
12, 402360, Note_off_c, 11, 52, 64
12, 402360, Note_off_c, 11, 57, 64
12, 403320, Note_on_c, 11, 57, 127
12, 403320, Note_on_c, 11, 52, 108
12, 403440, Note_off_c, 11, 52, 64
12, 403440, Note_off_c, 11, 57, 64
12, 404400, Note_on_c, 11, 68, 108
12, 404400, Note_on_c, 11, 59, 127
12, 404400, Note_on_c, 11, 52, 108
12, 404520, Note_off_c, 11, 52, 64
12, 404520, Note_off_c, 11, 59, 64
12, 404520, Note_off_c, 11, 68, 64
12, 405480, Note_on_c, 11, 68, 108
12, 405480, Note_on_c, 11, 59, 127
12, 405480, Note_on_c, 11, 52, 108
12, 405600, Note_off_c, 11, 52, 64
12, 405600, Note_off_c, 11, 59, 64
12, 405600, Note_off_c, 11, 68, 64
12, 406560, Note_on_c, 11, 52, 108
12, 406560, Note_on_c, 11, 57, 127
12, 406680, Note_off_c, 11, 57, 64
12, 406680, Note_off_c, 11, 52, 64
12, 407040, Note_on_c, 11, 57, 127
12, 407040, Note_on_c, 11, 52, 108
12, 407160, Note_off_c, 11, 52, 64
12, 407160, Note_off_c, 11, 57, 64
12, 407520, Note_on_c, 11, 52, 108
12, 407520, Note_on_c, 11, 57, 127
12, 407640, Note_off_c, 11, 57, 64
12, 407640, Note_off_c, 11, 52, 64
12, 408000, Note_on_c, 11, 52, 108
12, 408000, Note_on_c, 11, 57, 127
12, 408120, Note_off_c, 11, 57, 64
12, 408120, Note_off_c, 11, 52, 64
12, 408480, Note_on_c, 11, 52, 108
12, 408480, Note_on_c, 11, 59, 127
12, 408480, Note_on_c, 11, 64, 108
12, 408600, Note_off_c, 11, 64, 64
12, 408600, Note_off_c, 11, 59, 64
12, 408600, Note_off_c, 11, 52, 64
12, 408960, Note_on_c, 11, 64, 108
12, 408960, Note_on_c, 11, 52, 108
12, 408960, Note_on_c, 11, 59, 127
12, 409080, Note_off_c, 11, 59, 64
12, 409080, Note_off_c, 11, 52, 64
12, 409080, Note_off_c, 11, 64, 64
12, 409440, Note_on_c, 11, 52, 108
12, 409440, Note_on_c, 11, 59, 127
12, 409440, Note_on_c, 11, 64, 108
12, 409560, Note_off_c, 11, 64, 64
12, 409560, Note_off_c, 11, 59, 64
12, 409560, Note_off_c, 11, 52, 64
12, 409920, Note_on_c, 11, 64, 108
12, 409920, Note_on_c, 11, 52, 108
12, 409920, Note_on_c, 11, 59, 127
12, 410040, Note_off_c, 11, 59, 64
12, 410040, Note_off_c, 11, 52, 64
12, 410040, Note_off_c, 11, 64, 64
12, 410400, Note_on_c, 11, 52, 108
12, 410400, Note_on_c, 11, 57, 127
12, 410520, Note_off_c, 11, 57, 64
12, 410520, Note_off_c, 11, 52, 64
12, 411480, Note_on_c, 11, 57, 127
12, 411480, Note_on_c, 11, 52, 108
12, 411600, Note_off_c, 11, 52, 64
12, 411600, Note_off_c, 11, 57, 64
12, 412560, Note_on_c, 11, 52, 108
12, 412560, Note_on_c, 11, 59, 127
12, 412560, Note_on_c, 11, 68, 108
12, 412680, Note_off_c, 11, 68, 64
12, 412680, Note_off_c, 11, 59, 64
12, 412680, Note_off_c, 11, 52, 64
12, 413640, Note_on_c, 11, 52, 108
12, 413640, Note_on_c, 11, 59, 127
12, 413640, Note_on_c, 11, 68, 108
12, 413760, Note_off_c, 11, 68, 64
12, 413760, Note_off_c, 11, 59, 64
12, 413760, Note_off_c, 11, 52, 64
12, 414720, Note_on_c, 11, 57, 100
12, 414816, Note_off_c, 11, 57, 64
12, 414840, Note_on_c, 11, 57, 100
12, 414936, Note_off_c, 11, 57, 64
12, 414960, Note_on_c, 11, 57, 100
12, 415056, Note_off_c, 11, 57, 64
12, 415080, Note_on_c, 11, 57, 100
12, 415176, Note_off_c, 11, 57, 64
12, 415200, Note_on_c, 11, 57, 100
12, 415296, Note_off_c, 11, 57, 64
12, 415320, Note_on_c, 11, 57, 100
12, 415416, Note_off_c, 11, 57, 64
12, 415440, Note_on_c, 11, 59, 100
12, 415536, Note_off_c, 11, 59, 64
12, 415560, Note_on_c, 11, 59, 100
12, 415656, Note_off_c, 11, 59, 64
12, 415680, Note_on_c, 11, 61, 100
12, 415776, Note_off_c, 11, 61, 64
12, 415800, Note_on_c, 11, 61, 100
12, 415896, Note_off_c, 11, 61, 64
12, 415920, Note_on_c, 11, 57, 100
12, 416016, Note_off_c, 11, 57, 64
12, 416040, Note_on_c, 11, 57, 100
12, 416136, Note_off_c, 11, 57, 64
12, 416160, Note_on_c, 11, 59, 100
12, 416256, Note_off_c, 11, 59, 64
12, 416280, Note_on_c, 11, 59, 100
12, 416376, Note_off_c, 11, 59, 64
12, 416400, Note_on_c, 11, 61, 100
12, 416496, Note_off_c, 11, 61, 64
12, 416520, Note_on_c, 11, 61, 100
12, 416616, Note_off_c, 11, 61, 64
12, 416640, Note_on_c, 11, 59, 100
12, 416736, Note_off_c, 11, 59, 64
12, 416760, Note_on_c, 11, 59, 100
12, 416856, Note_off_c, 11, 59, 64
12, 416880, Note_on_c, 11, 61, 100
12, 416976, Note_off_c, 11, 61, 64
12, 417000, Note_on_c, 11, 61, 100
12, 417096, Note_off_c, 11, 61, 64
12, 417120, Note_on_c, 11, 62, 100
12, 417216, Note_off_c, 11, 62, 64
12, 417240, Note_on_c, 11, 62, 100
12, 417336, Note_off_c, 11, 62, 64
12, 417360, Note_on_c, 11, 63, 100
12, 417456, Note_off_c, 11, 63, 64
12, 417480, Note_on_c, 11, 63, 100
12, 417576, Note_off_c, 11, 63, 64
12, 417600, Note_on_c, 11, 64, 100
12, 417696, Note_off_c, 11, 64, 64
12, 417720, Note_on_c, 11, 64, 100
12, 417816, Note_off_c, 11, 64, 64
12, 417840, Note_on_c, 11, 66, 100
12, 417936, Note_off_c, 11, 66, 64
12, 417960, Note_on_c, 11, 66, 100
12, 418056, Note_off_c, 11, 66, 64
12, 418080, Note_on_c, 11, 67, 100
12, 418176, Note_off_c, 11, 67, 64
12, 418200, Note_on_c, 11, 67, 100
12, 418296, Note_off_c, 11, 67, 64
12, 418320, Note_on_c, 11, 68, 100
12, 418416, Note_off_c, 11, 68, 64
12, 418440, Note_on_c, 11, 68, 100
12, 418536, Note_off_c, 11, 68, 64
12, 418560, Note_on_c, 11, 57, 80
12, 418656, Note_off_c, 11, 57, 64
12, 420720, Note_on_c, 11, 52, 79
12, 420840, Note_off_c, 11, 52, 64
12, 420840, Note_on_c, 11, 54, 76
12, 420960, Note_off_c, 11, 54, 64
12, 420960, Note_on_c, 11, 57, 74
12, 421080, Note_off_c, 11, 57, 64
12, 421080, Note_on_c, 11, 56, 71
12, 421200, Note_off_c, 11, 56, 64
12, 421200, Note_on_c, 11, 54, 68
12, 421320, Note_off_c, 11, 54, 64
12, 421320, Note_on_c, 11, 56, 66
12, 421440, Note_off_c, 11, 56, 64
12, 421440, Note_on_c, 11, 57, 80
12, 421920, Note_off_c, 11, 57, 64
12, 421920, Note_on_c, 11, 56, 80
12, 422400, Note_off_c, 11, 56, 64
12, 422400, Note_on_c, 11, 57, 80
12, 422592, Note_off_c, 11, 57, 64
12, 424560, Note_on_c, 11, 52, 79
12, 424680, Note_off_c, 11, 52, 64
12, 424680, Note_on_c, 11, 54, 76
12, 424800, Note_off_c, 11, 54, 64
12, 424800, Note_on_c, 11, 57, 74
12, 424920, Note_off_c, 11, 57, 64
12, 424920, Note_on_c, 11, 56, 71
12, 425040, Note_off_c, 11, 56, 64
12, 425040, Note_on_c, 11, 54, 68
12, 425160, Note_off_c, 11, 54, 64
12, 425160, Note_on_c, 11, 56, 66
12, 425280, Note_off_c, 11, 56, 64
12, 425280, Note_on_c, 11, 57, 80
12, 425760, Note_off_c, 11, 57, 64
12, 425760, Note_on_c, 11, 55, 80
12, 426240, Note_off_c, 11, 55, 64
12, 426240, Note_on_c, 11, 54, 80
12, 426432, Note_off_c, 11, 54, 64
12, 428400, Note_on_c, 11, 57, 110
12, 428520, Note_off_c, 11, 57, 64
12, 428520, Note_on_c, 11, 59, 110
12, 428640, Note_off_c, 11, 59, 64
12, 428640, Note_on_c, 11, 62, 110
12, 428760, Note_off_c, 11, 62, 64
12, 428760, Note_on_c, 11, 61, 110
12, 428880, Note_off_c, 11, 61, 64
12, 428880, Note_on_c, 11, 59, 110
12, 429000, Note_off_c, 11, 59, 64
12, 429000, Note_on_c, 11, 61, 110
12, 429120, Note_off_c, 11, 61, 64
12, 429120, Note_on_c, 11, 62, 110
12, 429600, Note_off_c, 11, 62, 64
12, 429600, Note_on_c, 11, 57, 80
12, 430080, Note_off_c, 11, 57, 64
12, 430080, Note_on_c, 11, 50, 120
12, 430272, Note_off_c, 11, 50, 64
12, 432240, Note_on_c, 11, 57, 119
12, 432360, Note_off_c, 11, 57, 64
12, 432360, Note_on_c, 11, 59, 114
12, 432480, Note_off_c, 11, 59, 64
12, 432480, Note_on_c, 11, 62, 111
12, 432600, Note_off_c, 11, 62, 64
12, 432600, Note_on_c, 11, 61, 107
12, 432720, Note_off_c, 11, 61, 64
12, 432720, Note_on_c, 11, 59, 102
12, 432840, Note_off_c, 11, 59, 64
12, 432840, Note_on_c, 11, 61, 99
12, 432960, Note_off_c, 11, 61, 64
12, 432960, Note_on_c, 11, 62, 80
12, 433440, Note_off_c, 11, 62, 64
12, 433440, Note_on_c, 11, 57, 80
12, 433920, Note_off_c, 11, 57, 64
12, 433920, Note_on_c, 11, 57, 127
12, 434034, Note_off_c, 11, 57, 64
12, 434280, Note_on_c, 11, 57, 120
12, 434394, Note_off_c, 11, 57, 64
12, 434400, Note_on_c, 11, 57, 120
12, 434514, Note_off_c, 11, 57, 64
12, 434760, Note_on_c, 11, 57, 120
12, 434874, Note_off_c, 11, 57, 64
12, 434880, Note_on_c, 11, 57, 120
12, 434994, Note_off_c, 11, 57, 64
12, 435240, Note_on_c, 11, 57, 120
12, 435354, Note_off_c, 11, 57, 64
12, 435360, Note_on_c, 11, 57, 120
12, 435474, Note_off_c, 11, 57, 64
12, 435720, Note_on_c, 11, 57, 120
12, 435834, Note_off_c, 11, 57, 64
12, 435840, Note_on_c, 11, 57, 120
12, 435954, Note_off_c, 11, 57, 64
12, 436200, Note_on_c, 11, 57, 120
12, 436314, Note_off_c, 11, 57, 64
12, 436320, Note_on_c, 11, 57, 120
12, 436434, Note_off_c, 11, 57, 64
12, 436680, Note_on_c, 11, 57, 120
12, 436794, Note_off_c, 11, 57, 64
12, 436800, Note_on_c, 11, 57, 120
12, 436914, Note_off_c, 11, 57, 64
12, 437160, Note_on_c, 11, 57, 120
12, 437274, Note_off_c, 11, 57, 64
12, 437280, Note_on_c, 11, 57, 120
12, 437394, Note_off_c, 11, 57, 64
12, 437640, Note_on_c, 11, 57, 120
12, 437754, Note_off_c, 11, 57, 64
12, 437760, Note_on_c, 11, 57, 127
12, 437874, Note_off_c, 11, 57, 64
12, 438120, Note_on_c, 11, 57, 120
12, 438234, Note_off_c, 11, 57, 64
12, 438240, Note_on_c, 11, 57, 120
12, 438354, Note_off_c, 11, 57, 64
12, 438600, Note_on_c, 11, 57, 120
12, 438714, Note_off_c, 11, 57, 64
12, 438720, Note_on_c, 11, 62, 127
12, 438834, Note_off_c, 11, 62, 64
12, 439080, Note_on_c, 11, 62, 120
12, 439194, Note_off_c, 11, 62, 64
12, 439200, Note_on_c, 11, 62, 120
12, 439314, Note_off_c, 11, 62, 64
12, 439560, Note_on_c, 11, 62, 120
12, 439674, Note_off_c, 11, 62, 64
12, 439680, Note_on_c, 11, 65, 127
12, 439794, Note_off_c, 11, 65, 64
12, 440040, Note_on_c, 11, 65, 120
12, 440154, Note_off_c, 11, 65, 64
12, 440160, Note_on_c, 11, 65, 120
12, 440274, Note_off_c, 11, 65, 64
12, 440520, Note_on_c, 11, 65, 120
12, 440634, Note_off_c, 11, 65, 64
12, 440640, Note_on_c, 11, 65, 127
12, 440754, Note_off_c, 11, 65, 64
12, 441000, Note_on_c, 11, 65, 120
12, 441114, Note_off_c, 11, 65, 64
12, 441120, Note_on_c, 11, 65, 120
12, 441234, Note_off_c, 11, 65, 64
12, 441480, Note_on_c, 11, 65, 120
12, 441594, Note_off_c, 11, 65, 64
12, 441600, Note_on_c, 11, 65, 127
12, 441714, Note_off_c, 11, 65, 64
12, 441960, Note_on_c, 11, 57, 120
12, 442074, Note_off_c, 11, 57, 64
12, 442080, Note_on_c, 11, 57, 120
12, 442194, Note_off_c, 11, 57, 64
12, 442440, Note_on_c, 11, 57, 120
12, 442554, Note_off_c, 11, 57, 64
12, 442560, Note_on_c, 11, 57, 120
12, 442674, Note_off_c, 11, 57, 64
12, 442920, Note_on_c, 11, 57, 120
12, 443034, Note_off_c, 11, 57, 64
12, 443040, Note_on_c, 11, 57, 120
12, 443154, Note_off_c, 11, 57, 64
12, 443400, Note_on_c, 11, 57, 120
12, 443514, Note_off_c, 11, 57, 64
12, 443520, Note_on_c, 11, 56, 127
12, 443634, Note_off_c, 11, 56, 64
12, 444000, Note_on_c, 11, 65, 99
12, 444096, Note_off_c, 11, 65, 64
12, 444120, Note_on_c, 11, 65, 99
12, 444216, Note_off_c, 11, 65, 64
12, 444240, Note_on_c, 11, 65, 99
12, 444336, Note_off_c, 11, 65, 64
12, 444360, Note_on_c, 11, 65, 99
12, 444456, Note_off_c, 11, 65, 64
12, 444480, Note_on_c, 11, 65, 50
12, 444576, Note_off_c, 11, 65, 64
12, 444600, Note_on_c, 11, 65, 50
12, 444696, Note_off_c, 11, 65, 64
12, 444720, Note_on_c, 11, 65, 50
12, 444816, Note_off_c, 11, 65, 64
12, 444840, Note_on_c, 11, 65, 50
12, 444936, Note_off_c, 11, 65, 64
12, 444960, Note_on_c, 11, 65, 50
12, 445056, Note_off_c, 11, 65, 64
12, 445080, Note_on_c, 11, 65, 50
12, 445176, Note_off_c, 11, 65, 64
12, 445200, Note_on_c, 11, 65, 50
12, 445296, Note_off_c, 11, 65, 64
12, 445320, Note_on_c, 11, 65, 50
12, 445416, Note_off_c, 11, 65, 64
12, 445440, Note_on_c, 11, 64, 50
12, 445536, Note_off_c, 11, 64, 64
12, 445560, Note_on_c, 11, 62, 50
12, 445656, Note_off_c, 11, 62, 64
12, 445680, Note_on_c, 11, 62, 50
12, 445776, Note_off_c, 11, 62, 64
12, 445800, Note_on_c, 11, 62, 50
12, 445896, Note_off_c, 11, 62, 64
12, 445920, Note_on_c, 11, 62, 50
12, 446016, Note_off_c, 11, 62, 64
12, 446040, Note_on_c, 11, 62, 50
12, 446136, Note_off_c, 11, 62, 64
12, 446160, Note_on_c, 11, 62, 50
12, 446256, Note_off_c, 11, 62, 64
12, 446280, Note_on_c, 11, 62, 50
12, 446376, Note_off_c, 11, 62, 64
12, 446400, Note_on_c, 11, 62, 50
12, 446496, Note_off_c, 11, 62, 64
12, 446520, Note_on_c, 11, 62, 50
12, 446616, Note_off_c, 11, 62, 64
12, 446640, Note_on_c, 11, 62, 50
12, 446736, Note_off_c, 11, 62, 64
12, 446760, Note_on_c, 11, 62, 50
12, 446856, Note_off_c, 11, 62, 64
12, 446880, Note_on_c, 11, 60, 50
12, 446976, Note_off_c, 11, 60, 64
12, 447000, Note_on_c, 11, 60, 50
12, 447096, Note_off_c, 11, 60, 64
12, 447120, Note_on_c, 11, 60, 50
12, 447216, Note_off_c, 11, 60, 64
12, 447240, Note_on_c, 11, 60, 50
12, 447336, Note_off_c, 11, 60, 64
12, 447360, Note_on_c, 11, 52, 50
12, 447456, Note_off_c, 11, 52, 64
12, 447840, Note_on_c, 11, 65, 99
12, 447936, Note_off_c, 11, 65, 64
12, 447960, Note_on_c, 11, 65, 99
12, 448056, Note_off_c, 11, 65, 64
12, 448080, Note_on_c, 11, 65, 99
12, 448176, Note_off_c, 11, 65, 64
12, 448200, Note_on_c, 11, 65, 99
12, 448296, Note_off_c, 11, 65, 64
12, 448320, Note_on_c, 11, 65, 50
12, 448416, Note_off_c, 11, 65, 64
12, 448440, Note_on_c, 11, 65, 50
12, 448536, Note_off_c, 11, 65, 64
12, 448560, Note_on_c, 11, 65, 50
12, 448656, Note_off_c, 11, 65, 64
12, 448680, Note_on_c, 11, 65, 50
12, 448776, Note_off_c, 11, 65, 64
12, 448800, Note_on_c, 11, 64, 50
12, 448896, Note_off_c, 11, 64, 64
12, 448920, Note_on_c, 11, 64, 50
12, 449016, Note_off_c, 11, 64, 64
12, 449040, Note_on_c, 11, 64, 50
12, 449136, Note_off_c, 11, 64, 64
12, 449160, Note_on_c, 11, 64, 50
12, 449256, Note_off_c, 11, 64, 64
12, 449280, Note_on_c, 11, 64, 50
12, 449376, Note_off_c, 11, 64, 64
12, 449400, Note_on_c, 11, 62, 50
12, 449496, Note_off_c, 11, 62, 64
12, 449520, Note_on_c, 11, 62, 50
12, 449616, Note_off_c, 11, 62, 64
12, 449640, Note_on_c, 11, 62, 50
12, 449736, Note_off_c, 11, 62, 64
12, 449760, Note_on_c, 11, 62, 50
12, 449856, Note_off_c, 11, 62, 64
12, 449880, Note_on_c, 11, 62, 50
12, 449976, Note_off_c, 11, 62, 64
12, 450000, Note_on_c, 11, 62, 50
12, 450096, Note_off_c, 11, 62, 64
12, 450120, Note_on_c, 11, 62, 50
12, 450216, Note_off_c, 11, 62, 64
12, 450240, Note_on_c, 11, 62, 50
12, 450336, Note_off_c, 11, 62, 64
12, 450360, Note_on_c, 11, 62, 50
12, 450456, Note_off_c, 11, 62, 64
12, 450480, Note_on_c, 11, 62, 50
12, 450576, Note_off_c, 11, 62, 64
12, 450600, Note_on_c, 11, 62, 50
12, 450696, Note_off_c, 11, 62, 64
12, 450720, Note_on_c, 11, 60, 50
12, 450816, Note_off_c, 11, 60, 64
12, 450840, Note_on_c, 11, 60, 50
12, 450936, Note_off_c, 11, 60, 64
12, 450960, Note_on_c, 11, 60, 50
12, 451056, Note_off_c, 11, 60, 64
12, 451080, Note_on_c, 11, 60, 50
12, 451176, Note_off_c, 11, 60, 64
12, 451200, Note_on_c, 11, 62, 64
12, 451296, Note_off_c, 11, 62, 64
12, 451320, Note_on_c, 11, 62, 63
12, 451416, Note_off_c, 11, 62, 64
12, 451440, Note_on_c, 11, 62, 62
12, 451536, Note_off_c, 11, 62, 64
12, 451560, Note_on_c, 11, 62, 61
12, 451656, Note_off_c, 11, 62, 64
12, 451680, Note_on_c, 11, 62, 60
12, 451776, Note_off_c, 11, 62, 64
12, 451800, Note_on_c, 11, 62, 59
12, 451896, Note_off_c, 11, 62, 64
12, 451920, Note_on_c, 11, 62, 58
12, 452016, Note_off_c, 11, 62, 64
12, 452040, Note_on_c, 11, 62, 58
12, 452136, Note_off_c, 11, 62, 64
12, 452160, Note_on_c, 11, 62, 57
12, 452256, Note_off_c, 11, 62, 64
12, 452280, Note_on_c, 11, 62, 56
12, 452376, Note_off_c, 11, 62, 64
12, 452400, Note_on_c, 11, 62, 55
12, 452496, Note_off_c, 11, 62, 64
12, 452520, Note_on_c, 11, 62, 54
12, 452616, Note_off_c, 11, 62, 64
12, 452640, Note_on_c, 11, 60, 53
12, 452736, Note_off_c, 11, 60, 64
12, 452760, Note_on_c, 11, 60, 52
12, 452856, Note_off_c, 11, 60, 64
12, 452880, Note_on_c, 11, 60, 51
12, 452976, Note_off_c, 11, 60, 64
12, 453000, Note_on_c, 11, 60, 50
12, 453096, Note_off_c, 11, 60, 64
12, 453120, Note_on_c, 11, 62, 49
12, 453216, Note_off_c, 11, 62, 64
12, 453240, Note_on_c, 11, 62, 48
12, 453336, Note_off_c, 11, 62, 64
12, 453360, Note_on_c, 11, 62, 47
12, 453456, Note_off_c, 11, 62, 64
12, 453480, Note_on_c, 11, 62, 47
12, 453576, Note_off_c, 11, 62, 64
12, 453600, Note_on_c, 11, 62, 46
12, 453696, Note_off_c, 11, 62, 64
12, 453720, Note_on_c, 11, 62, 45
12, 453816, Note_off_c, 11, 62, 64
12, 453840, Note_on_c, 11, 62, 44
12, 453936, Note_off_c, 11, 62, 64
12, 453960, Note_on_c, 11, 62, 43
12, 454056, Note_off_c, 11, 62, 64
12, 454080, Note_on_c, 11, 62, 42
12, 454176, Note_off_c, 11, 62, 64
12, 454200, Note_on_c, 11, 62, 41
12, 454296, Note_off_c, 11, 62, 64
12, 454320, Note_on_c, 11, 56, 40
12, 454416, Note_off_c, 11, 56, 64
12, 454440, Note_on_c, 11, 56, 39
12, 454536, Note_off_c, 11, 56, 64
12, 454560, Note_on_c, 11, 59, 38
12, 454656, Note_off_c, 11, 59, 64
12, 454680, Note_on_c, 11, 59, 37
12, 454776, Note_off_c, 11, 59, 64
12, 454800, Note_on_c, 11, 56, 36
12, 454896, Note_off_c, 11, 56, 64
12, 454920, Note_on_c, 11, 56, 36
12, 455016, Note_off_c, 11, 56, 64
12, 455040, Note_on_c, 11, 57, 64
12, 455112, Note_off_c, 11, 57, 64
12, 455400, Note_on_c, 11, 52, 64
12, 455520, Note_off_c, 11, 52, 64
12, 455520, Note_on_c, 11, 52, 96
12, 455970, Note_off_c, 11, 52, 64
12, 456000, Note_on_c, 11, 52, 77
12, 456072, Note_off_c, 11, 52, 64
12, 456360, Note_on_c, 11, 52, 64
12, 456480, Note_off_c, 11, 52, 64
12, 456480, Note_on_c, 11, 52, 96
12, 456930, Note_off_c, 11, 52, 64
12, 456960, Note_on_c, 11, 52, 77
12, 457032, Note_off_c, 11, 52, 64
12, 457320, Note_on_c, 11, 52, 64
12, 457440, Note_off_c, 11, 52, 64
12, 457440, Note_on_c, 11, 52, 96
12, 457890, Note_off_c, 11, 52, 64
12, 457920, Note_on_c, 11, 52, 77
12, 457992, Note_off_c, 11, 52, 64
12, 458280, Note_on_c, 11, 52, 64
12, 458400, Note_off_c, 11, 52, 64
12, 458400, Note_on_c, 11, 52, 96
12, 458850, Note_off_c, 11, 52, 64
12, 458880, Note_on_c, 11, 57, 38
12, 459360, Note_off_c, 11, 57, 64
12, 459360, Note_on_c, 11, 61, 48
12, 459744, Note_off_c, 11, 61, 64
12, 459840, Note_on_c, 11, 60, 48
12, 460224, Note_off_c, 11, 60, 64
12, 460320, Note_on_c, 11, 60, 48
12, 460704, Note_off_c, 11, 60, 64
12, 460800, Note_on_c, 11, 61, 48
12, 461184, Note_off_c, 11, 61, 64
12, 461280, Note_on_c, 11, 61, 48
12, 461664, Note_off_c, 11, 61, 64
12, 461760, Note_on_c, 11, 60, 48
12, 462144, Note_off_c, 11, 60, 64
12, 462240, Note_on_c, 11, 60, 48
12, 462624, Note_off_c, 11, 60, 64
12, 462720, Note_on_c, 11, 61, 48
12, 463104, Note_off_c, 11, 61, 64
12, 463200, Note_on_c, 11, 61, 48
12, 463584, Note_off_c, 11, 61, 64
12, 463680, Note_on_c, 11, 59, 64
12, 463800, Note_off_c, 11, 59, 64
12, 465120, Note_on_c, 11, 52, 96
12, 465570, Note_off_c, 11, 52, 64
12, 466080, Note_on_c, 11, 52, 96
12, 466530, Note_off_c, 11, 52, 64
12, 467040, Note_on_c, 11, 52, 96
12, 467490, Note_off_c, 11, 52, 64
12, 468000, Note_on_c, 11, 52, 96
12, 468450, Note_off_c, 11, 52, 64
12, 468480, Note_on_c, 11, 57, 38
12, 468960, Note_off_c, 11, 57, 64
12, 468960, Note_on_c, 11, 61, 48
12, 469344, Note_off_c, 11, 61, 64
12, 469440, Note_on_c, 11, 60, 48
12, 469824, Note_off_c, 11, 60, 64
12, 469920, Note_on_c, 11, 60, 48
12, 470304, Note_off_c, 11, 60, 64
12, 470400, Note_on_c, 11, 61, 48
12, 470784, Note_off_c, 11, 61, 64
12, 470880, Note_on_c, 11, 61, 48
12, 471264, Note_off_c, 11, 61, 64
12, 471360, Note_on_c, 11, 59, 38
12, 471586, Note_off_c, 11, 59, 64
12, 472320, Note_on_c, 11, 57, 38
12, 472546, Note_off_c, 11, 57, 64
12, 473280, Note_on_c, 11, 59, 38
12, 473506, Note_off_c, 11, 59, 64
12, 474240, Note_on_c, 11, 57, 38
12, 474466, Note_off_c, 11, 57, 64
12, 475200, Note_on_c, 11, 59, 38
12, 475426, Note_off_c, 11, 59, 64
12, 476160, Note_on_c, 11, 59, 38
12, 476386, Note_off_c, 11, 59, 64
12, 478440, Note_on_c, 11, 62, 64
12, 478560, Note_off_c, 11, 62, 64
12, 478560, Note_on_c, 11, 59, 64
12, 478656, Note_off_c, 11, 59, 64
12, 478920, Note_on_c, 11, 56, 64
12, 479040, Note_off_c, 11, 56, 64
12, 479040, Note_on_c, 11, 59, 64
12, 479136, Note_off_c, 11, 59, 64
12, 479400, Note_on_c, 11, 62, 64
12, 479520, Note_off_c, 11, 62, 64
12, 479520, Note_on_c, 11, 64, 64
12, 479616, Note_off_c, 11, 64, 64
12, 479880, Note_on_c, 11, 68, 64
12, 480000, Note_off_c, 11, 68, 64
12, 480000, Note_on_c, 11, 71, 64
12, 480096, Note_off_c, 11, 71, 64
12, 484200, Note_on_c, 11, 62, 74
12, 484320, Note_off_c, 11, 62, 64
12, 484320, Note_on_c, 11, 59, 74
12, 484416, Note_off_c, 11, 59, 64
12, 484680, Note_on_c, 11, 56, 74
12, 484800, Note_off_c, 11, 56, 64
12, 484800, Note_on_c, 11, 59, 74
12, 484896, Note_off_c, 11, 59, 64
12, 485160, Note_on_c, 11, 62, 74
12, 485280, Note_off_c, 11, 62, 64
12, 485280, Note_on_c, 11, 64, 74
12, 485376, Note_off_c, 11, 64, 64
12, 485640, Note_on_c, 11, 68, 74
12, 485760, Note_off_c, 11, 68, 64
12, 485760, Note_on_c, 11, 71, 79
12, 485856, Note_off_c, 11, 71, 64
12, 487200, Note_on_c, 11, 64, 102
12, 487344, Note_off_c, 11, 64, 64
12, 487680, Note_on_c, 11, 55, 99
12, 487680, Note_on_c, 11, 67, 99
12, 487776, Note_off_c, 11, 67, 64
12, 487776, Note_off_c, 11, 55, 64
12, 487800, Note_on_c, 11, 67, 99
12, 487800, Note_on_c, 11, 55, 99
12, 487896, Note_off_c, 11, 55, 64
12, 487896, Note_off_c, 11, 67, 64
12, 487920, Note_on_c, 11, 55, 99
12, 487920, Note_on_c, 11, 67, 99
12, 488016, Note_off_c, 11, 67, 64
12, 488016, Note_off_c, 11, 55, 64
12, 488040, Note_on_c, 11, 67, 99
12, 488040, Note_on_c, 11, 55, 99
12, 488136, Note_off_c, 11, 55, 64
12, 488136, Note_off_c, 11, 67, 64
12, 488160, Note_on_c, 11, 67, 99
12, 488160, Note_on_c, 11, 55, 99
12, 488256, Note_off_c, 11, 55, 64
12, 488256, Note_off_c, 11, 67, 64
12, 488280, Note_on_c, 11, 67, 99
12, 488280, Note_on_c, 11, 55, 99
12, 488376, Note_off_c, 11, 55, 64
12, 488376, Note_off_c, 11, 67, 64
12, 488400, Note_on_c, 11, 55, 99
12, 488400, Note_on_c, 11, 67, 99
12, 488496, Note_off_c, 11, 67, 64
12, 488496, Note_off_c, 11, 55, 64
12, 488520, Note_on_c, 11, 67, 99
12, 488520, Note_on_c, 11, 55, 99
12, 488616, Note_off_c, 11, 55, 64
12, 488616, Note_off_c, 11, 67, 64
12, 488640, Note_on_c, 11, 67, 99
12, 488640, Note_on_c, 11, 55, 99
12, 488736, Note_off_c, 11, 55, 64
12, 488736, Note_off_c, 11, 67, 64
12, 488760, Note_on_c, 11, 55, 99
12, 488760, Note_on_c, 11, 67, 99
12, 488856, Note_off_c, 11, 67, 64
12, 488856, Note_off_c, 11, 55, 64
12, 488880, Note_on_c, 11, 55, 99
12, 488880, Note_on_c, 11, 67, 99
12, 488976, Note_off_c, 11, 67, 64
12, 488976, Note_off_c, 11, 55, 64
12, 489000, Note_on_c, 11, 67, 99
12, 489000, Note_on_c, 11, 55, 99
12, 489096, Note_off_c, 11, 55, 64
12, 489096, Note_off_c, 11, 67, 64
12, 489120, Note_on_c, 11, 67, 99
12, 489120, Note_on_c, 11, 55, 99
12, 489216, Note_off_c, 11, 55, 64
12, 489216, Note_off_c, 11, 67, 64
12, 489240, Note_on_c, 11, 55, 99
12, 489240, Note_on_c, 11, 67, 99
12, 489336, Note_off_c, 11, 67, 64
12, 489336, Note_off_c, 11, 55, 64
12, 489360, Note_on_c, 11, 67, 99
12, 489360, Note_on_c, 11, 55, 99
12, 489456, Note_off_c, 11, 55, 64
12, 489456, Note_off_c, 11, 67, 64
12, 489480, Note_on_c, 11, 55, 99
12, 489480, Note_on_c, 11, 67, 99
12, 489576, Note_off_c, 11, 67, 64
12, 489576, Note_off_c, 11, 55, 64
12, 489600, Note_on_c, 11, 60, 127
12, 489600, Note_on_c, 11, 72, 127
12, 489696, Note_off_c, 11, 72, 64
12, 489696, Note_off_c, 11, 60, 64
12, 489720, Note_on_c, 11, 72, 99
12, 489720, Note_on_c, 11, 60, 99
12, 489816, Note_off_c, 11, 60, 64
12, 489816, Note_off_c, 11, 72, 64
12, 489840, Note_on_c, 11, 60, 99
12, 489840, Note_on_c, 11, 72, 99
12, 489936, Note_off_c, 11, 72, 64
12, 489936, Note_off_c, 11, 60, 64
12, 489960, Note_on_c, 11, 60, 99
12, 489960, Note_on_c, 11, 72, 99
12, 490056, Note_off_c, 11, 72, 64
12, 490056, Note_off_c, 11, 60, 64
12, 490080, Note_on_c, 11, 72, 99
12, 490080, Note_on_c, 11, 60, 99
12, 490176, Note_off_c, 11, 60, 64
12, 490176, Note_off_c, 11, 72, 64
12, 490200, Note_on_c, 11, 72, 99
12, 490200, Note_on_c, 11, 60, 99
12, 490296, Note_off_c, 11, 60, 64
12, 490296, Note_off_c, 11, 72, 64
12, 490320, Note_on_c, 11, 60, 99
12, 490320, Note_on_c, 11, 72, 99
12, 490416, Note_off_c, 11, 72, 64
12, 490416, Note_off_c, 11, 60, 64
12, 490440, Note_on_c, 11, 60, 99
12, 490440, Note_on_c, 11, 72, 99
12, 490536, Note_off_c, 11, 72, 64
12, 490536, Note_off_c, 11, 60, 64
12, 490560, Note_on_c, 11, 55, 99
12, 490560, Note_on_c, 11, 67, 99
12, 490656, Note_off_c, 11, 67, 64
12, 490656, Note_off_c, 11, 55, 64
12, 490680, Note_on_c, 11, 55, 99
12, 490680, Note_on_c, 11, 67, 99
12, 490776, Note_off_c, 11, 67, 64
12, 490776, Note_off_c, 11, 55, 64
12, 490800, Note_on_c, 11, 67, 99
12, 490800, Note_on_c, 11, 55, 99
12, 490896, Note_off_c, 11, 55, 64
12, 490896, Note_off_c, 11, 67, 64
12, 490920, Note_on_c, 11, 67, 99
12, 490920, Note_on_c, 11, 55, 99
12, 491016, Note_off_c, 11, 55, 64
12, 491016, Note_off_c, 11, 67, 64
12, 491040, Note_on_c, 11, 67, 99
12, 491040, Note_on_c, 11, 55, 99
12, 491136, Note_off_c, 11, 55, 64
12, 491136, Note_off_c, 11, 67, 64
12, 491160, Note_on_c, 11, 55, 99
12, 491160, Note_on_c, 11, 67, 99
12, 491256, Note_off_c, 11, 67, 64
12, 491256, Note_off_c, 11, 55, 64
12, 491280, Note_on_c, 11, 55, 99
12, 491280, Note_on_c, 11, 67, 99
12, 491376, Note_off_c, 11, 67, 64
12, 491376, Note_off_c, 11, 55, 64
12, 491400, Note_on_c, 11, 55, 99
12, 491400, Note_on_c, 11, 67, 99
12, 491496, Note_off_c, 11, 67, 64
12, 491496, Note_off_c, 11, 55, 64
12, 491520, Note_on_c, 11, 60, 127
12, 491520, Note_on_c, 11, 72, 127
12, 491616, Note_off_c, 11, 72, 64
12, 491616, Note_off_c, 11, 60, 64
12, 491640, Note_on_c, 11, 72, 99
12, 491640, Note_on_c, 11, 60, 99
12, 491736, Note_off_c, 11, 60, 64
12, 491736, Note_off_c, 11, 72, 64
12, 491760, Note_on_c, 11, 72, 99
12, 491760, Note_on_c, 11, 60, 99
12, 491856, Note_off_c, 11, 60, 64
12, 491856, Note_off_c, 11, 72, 64
12, 491880, Note_on_c, 11, 60, 99
12, 491880, Note_on_c, 11, 72, 99
12, 491976, Note_off_c, 11, 72, 64
12, 491976, Note_off_c, 11, 60, 64
12, 492000, Note_on_c, 11, 72, 99
12, 492000, Note_on_c, 11, 60, 99
12, 492096, Note_off_c, 11, 60, 64
12, 492096, Note_off_c, 11, 72, 64
12, 492120, Note_on_c, 11, 72, 99
12, 492120, Note_on_c, 11, 60, 99
12, 492216, Note_off_c, 11, 60, 64
12, 492216, Note_off_c, 11, 72, 64
12, 492240, Note_on_c, 11, 72, 99
12, 492240, Note_on_c, 11, 60, 99
12, 492336, Note_off_c, 11, 60, 64
12, 492336, Note_off_c, 11, 72, 64
12, 492360, Note_on_c, 11, 72, 99
12, 492360, Note_on_c, 11, 60, 99
12, 492456, Note_off_c, 11, 60, 64
12, 492456, Note_off_c, 11, 72, 64
12, 492480, Note_on_c, 11, 55, 99
12, 492480, Note_on_c, 11, 67, 99
12, 492576, Note_off_c, 11, 67, 64
12, 492576, Note_off_c, 11, 55, 64
12, 492600, Note_on_c, 11, 55, 99
12, 492600, Note_on_c, 11, 67, 99
12, 492696, Note_off_c, 11, 67, 64
12, 492696, Note_off_c, 11, 55, 64
12, 492720, Note_on_c, 11, 67, 99
12, 492720, Note_on_c, 11, 55, 99
12, 492816, Note_off_c, 11, 55, 64
12, 492816, Note_off_c, 11, 67, 64
12, 492840, Note_on_c, 11, 67, 99
12, 492840, Note_on_c, 11, 55, 99
12, 492936, Note_off_c, 11, 55, 64
12, 492936, Note_off_c, 11, 67, 64
12, 492960, Note_on_c, 11, 67, 99
12, 492960, Note_on_c, 11, 55, 99
12, 493056, Note_off_c, 11, 55, 64
12, 493056, Note_off_c, 11, 67, 64
12, 493080, Note_on_c, 11, 55, 99
12, 493080, Note_on_c, 11, 67, 99
12, 493176, Note_off_c, 11, 67, 64
12, 493176, Note_off_c, 11, 55, 64
12, 493200, Note_on_c, 11, 67, 99
12, 493200, Note_on_c, 11, 55, 99
12, 493296, Note_off_c, 11, 55, 64
12, 493296, Note_off_c, 11, 67, 64
12, 493320, Note_on_c, 11, 55, 99
12, 493320, Note_on_c, 11, 67, 99
12, 493416, Note_off_c, 11, 67, 64
12, 493416, Note_off_c, 11, 55, 64
12, 493440, Note_on_c, 11, 55, 127
12, 493440, Note_on_c, 11, 67, 127
12, 493536, Note_off_c, 11, 67, 64
12, 493536, Note_off_c, 11, 55, 64
12, 493560, Note_on_c, 11, 55, 127
12, 493560, Note_on_c, 11, 67, 127
12, 493656, Note_off_c, 11, 67, 64
12, 493656, Note_off_c, 11, 55, 64
12, 493680, Note_on_c, 11, 67, 127
12, 493680, Note_on_c, 11, 55, 127
12, 493776, Note_off_c, 11, 55, 64
12, 493776, Note_off_c, 11, 67, 64
12, 493800, Note_on_c, 11, 67, 127
12, 493800, Note_on_c, 11, 55, 127
12, 493896, Note_off_c, 11, 55, 64
12, 493896, Note_off_c, 11, 67, 64
12, 493920, Note_on_c, 11, 55, 127
12, 493920, Note_on_c, 11, 67, 127
12, 494016, Note_off_c, 11, 67, 64
12, 494016, Note_off_c, 11, 55, 64
12, 494040, Note_on_c, 11, 55, 127
12, 494040, Note_on_c, 11, 67, 127
12, 494136, Note_off_c, 11, 67, 64
12, 494136, Note_off_c, 11, 55, 64
12, 494160, Note_on_c, 11, 67, 127
12, 494160, Note_on_c, 11, 55, 127
12, 494256, Note_off_c, 11, 55, 64
12, 494256, Note_off_c, 11, 67, 64
12, 494280, Note_on_c, 11, 55, 127
12, 494280, Note_on_c, 11, 67, 127
12, 494376, Note_off_c, 11, 67, 64
12, 494376, Note_off_c, 11, 55, 64
12, 494400, Note_on_c, 11, 67, 127
12, 494400, Note_on_c, 11, 55, 127
12, 494496, Note_off_c, 11, 55, 64
12, 494496, Note_off_c, 11, 67, 64
12, 494520, Note_on_c, 11, 67, 127
12, 494520, Note_on_c, 11, 55, 127
12, 494616, Note_off_c, 11, 55, 64
12, 494616, Note_off_c, 11, 67, 64
12, 494640, Note_on_c, 11, 55, 127
12, 494640, Note_on_c, 11, 67, 127
12, 494736, Note_off_c, 11, 67, 64
12, 494736, Note_off_c, 11, 55, 64
12, 494760, Note_on_c, 11, 55, 127
12, 494760, Note_on_c, 11, 67, 127
12, 494856, Note_off_c, 11, 67, 64
12, 494856, Note_off_c, 11, 55, 64
12, 494880, Note_on_c, 11, 55, 127
12, 494880, Note_on_c, 11, 67, 127
12, 494976, Note_off_c, 11, 67, 64
12, 494976, Note_off_c, 11, 55, 64
12, 495000, Note_on_c, 11, 55, 127
12, 495000, Note_on_c, 11, 67, 127
12, 495096, Note_off_c, 11, 67, 64
12, 495096, Note_off_c, 11, 55, 64
12, 495120, Note_on_c, 11, 67, 127
12, 495120, Note_on_c, 11, 55, 127
12, 495216, Note_off_c, 11, 55, 64
12, 495216, Note_off_c, 11, 67, 64
12, 495240, Note_on_c, 11, 55, 127
12, 495240, Note_on_c, 11, 67, 127
12, 495336, Note_off_c, 11, 67, 64
12, 495336, Note_off_c, 11, 55, 64
12, 495360, Note_on_c, 11, 60, 127
12, 495360, Note_on_c, 11, 72, 127
12, 495456, Note_off_c, 11, 72, 64
12, 495456, Note_off_c, 11, 60, 64
12, 495480, Note_on_c, 11, 72, 99
12, 495480, Note_on_c, 11, 60, 99
12, 495576, Note_off_c, 11, 60, 64
12, 495576, Note_off_c, 11, 72, 64
12, 495600, Note_on_c, 11, 72, 99
12, 495600, Note_on_c, 11, 60, 99
12, 495696, Note_off_c, 11, 60, 64
12, 495696, Note_off_c, 11, 72, 64
12, 495720, Note_on_c, 11, 60, 99
12, 495720, Note_on_c, 11, 72, 99
12, 495816, Note_off_c, 11, 72, 64
12, 495816, Note_off_c, 11, 60, 64
12, 495840, Note_on_c, 11, 72, 99
12, 495840, Note_on_c, 11, 60, 99
12, 495936, Note_off_c, 11, 60, 64
12, 495936, Note_off_c, 11, 72, 64
12, 495960, Note_on_c, 11, 72, 99
12, 495960, Note_on_c, 11, 60, 99
12, 496056, Note_off_c, 11, 60, 64
12, 496056, Note_off_c, 11, 72, 64
12, 496080, Note_on_c, 11, 72, 99
12, 496080, Note_on_c, 11, 60, 99
12, 496176, Note_off_c, 11, 60, 64
12, 496176, Note_off_c, 11, 72, 64
12, 496200, Note_on_c, 11, 72, 99
12, 496200, Note_on_c, 11, 60, 99
12, 496296, Note_off_c, 11, 60, 64
12, 496296, Note_off_c, 11, 72, 64
12, 496320, Note_on_c, 11, 55, 99
12, 496320, Note_on_c, 11, 67, 99
12, 496416, Note_off_c, 11, 67, 64
12, 496416, Note_off_c, 11, 55, 64
12, 496440, Note_on_c, 11, 55, 99
12, 496440, Note_on_c, 11, 67, 99
12, 496536, Note_off_c, 11, 67, 64
12, 496536, Note_off_c, 11, 55, 64
12, 496560, Note_on_c, 11, 55, 99
12, 496560, Note_on_c, 11, 67, 99
12, 496656, Note_off_c, 11, 67, 64
12, 496656, Note_off_c, 11, 55, 64
12, 496680, Note_on_c, 11, 55, 99
12, 496680, Note_on_c, 11, 67, 99
12, 496776, Note_off_c, 11, 67, 64
12, 496776, Note_off_c, 11, 55, 64
12, 496800, Note_on_c, 11, 67, 99
12, 496800, Note_on_c, 11, 55, 99
12, 496896, Note_off_c, 11, 55, 64
12, 496896, Note_off_c, 11, 67, 64
12, 496920, Note_on_c, 11, 55, 99
12, 496920, Note_on_c, 11, 67, 99
12, 497016, Note_off_c, 11, 67, 64
12, 497016, Note_off_c, 11, 55, 64
12, 497040, Note_on_c, 11, 67, 99
12, 497040, Note_on_c, 11, 55, 99
12, 497136, Note_off_c, 11, 55, 64
12, 497136, Note_off_c, 11, 67, 64
12, 497160, Note_on_c, 11, 55, 99
12, 497160, Note_on_c, 11, 67, 99
12, 497256, Note_off_c, 11, 67, 64
12, 497256, Note_off_c, 11, 55, 64
12, 497280, Note_on_c, 11, 72, 127
12, 497280, Note_on_c, 11, 60, 127
12, 497376, Note_off_c, 11, 60, 64
12, 497376, Note_off_c, 11, 72, 64
12, 497400, Note_on_c, 11, 60, 99
12, 497400, Note_on_c, 11, 72, 99
12, 497496, Note_off_c, 11, 72, 64
12, 497496, Note_off_c, 11, 60, 64
12, 497520, Note_on_c, 11, 72, 99
12, 497520, Note_on_c, 11, 60, 99
12, 497616, Note_off_c, 11, 60, 64
12, 497616, Note_off_c, 11, 72, 64
12, 497640, Note_on_c, 11, 72, 99
12, 497640, Note_on_c, 11, 60, 99
12, 497736, Note_off_c, 11, 60, 64
12, 497736, Note_off_c, 11, 72, 64
12, 497760, Note_on_c, 11, 72, 99
12, 497760, Note_on_c, 11, 60, 99
12, 497856, Note_off_c, 11, 60, 64
12, 497856, Note_off_c, 11, 72, 64
12, 497880, Note_on_c, 11, 72, 99
12, 497880, Note_on_c, 11, 60, 99
12, 497976, Note_off_c, 11, 60, 64
12, 497976, Note_off_c, 11, 72, 64
12, 498000, Note_on_c, 11, 72, 99
12, 498000, Note_on_c, 11, 60, 99
12, 498096, Note_off_c, 11, 60, 64
12, 498096, Note_off_c, 11, 72, 64
12, 498120, Note_on_c, 11, 72, 99
12, 498120, Note_on_c, 11, 60, 99
12, 498216, Note_off_c, 11, 60, 64
12, 498216, Note_off_c, 11, 72, 64
12, 498240, Note_on_c, 11, 48, 127
12, 498240, Note_on_c, 11, 60, 127
12, 498336, Note_off_c, 11, 60, 64
12, 498336, Note_off_c, 11, 48, 64
12, 498360, Note_on_c, 11, 48, 99
12, 498360, Note_on_c, 11, 60, 99
12, 498456, Note_off_c, 11, 60, 64
12, 498456, Note_off_c, 11, 48, 64
12, 498480, Note_on_c, 11, 60, 99
12, 498480, Note_on_c, 11, 48, 99
12, 498576, Note_off_c, 11, 48, 64
12, 498576, Note_off_c, 11, 60, 64
12, 498600, Note_on_c, 11, 60, 99
12, 498600, Note_on_c, 11, 48, 99
12, 498696, Note_off_c, 11, 48, 64
12, 498696, Note_off_c, 11, 60, 64
12, 498720, Note_on_c, 11, 48, 99
12, 498720, Note_on_c, 11, 60, 99
12, 498816, Note_off_c, 11, 60, 64
12, 498816, Note_off_c, 11, 48, 64
12, 498840, Note_on_c, 11, 60, 99
12, 498840, Note_on_c, 11, 48, 99
12, 498936, Note_off_c, 11, 48, 64
12, 498936, Note_off_c, 11, 60, 64
12, 498960, Note_on_c, 11, 48, 99
12, 498960, Note_on_c, 11, 60, 99
12, 499056, Note_off_c, 11, 60, 64
12, 499056, Note_off_c, 11, 48, 64
12, 499080, Note_on_c, 11, 48, 99
12, 499080, Note_on_c, 11, 60, 99
12, 499176, Note_off_c, 11, 60, 64
12, 499176, Note_off_c, 11, 48, 64
12, 499200, Note_on_c, 11, 52, 127
12, 499200, Note_on_c, 11, 64, 127
12, 499296, Note_off_c, 11, 64, 64
12, 499296, Note_off_c, 11, 52, 64
12, 499320, Note_on_c, 11, 64, 99
12, 499320, Note_on_c, 11, 52, 99
12, 499416, Note_off_c, 11, 52, 64
12, 499416, Note_off_c, 11, 64, 64
12, 499440, Note_on_c, 11, 52, 99
12, 499440, Note_on_c, 11, 64, 99
12, 499536, Note_off_c, 11, 64, 64
12, 499536, Note_off_c, 11, 52, 64
12, 499560, Note_on_c, 11, 52, 99
12, 499560, Note_on_c, 11, 64, 99
12, 499656, Note_off_c, 11, 64, 64
12, 499656, Note_off_c, 11, 52, 64
12, 499680, Note_on_c, 11, 52, 99
12, 499680, Note_on_c, 11, 64, 99
12, 499776, Note_off_c, 11, 64, 64
12, 499776, Note_off_c, 11, 52, 64
12, 499800, Note_on_c, 11, 64, 99
12, 499800, Note_on_c, 11, 52, 99
12, 499896, Note_off_c, 11, 52, 64
12, 499896, Note_off_c, 11, 64, 64
12, 499920, Note_on_c, 11, 52, 99
12, 499920, Note_on_c, 11, 64, 99
12, 500016, Note_off_c, 11, 64, 64
12, 500016, Note_off_c, 11, 52, 64
12, 500040, Note_on_c, 11, 52, 99
12, 500040, Note_on_c, 11, 64, 99
12, 500136, Note_off_c, 11, 64, 64
12, 500136, Note_off_c, 11, 52, 64
12, 500160, Note_on_c, 11, 52, 127
12, 500160, Note_on_c, 11, 64, 127
12, 500256, Note_off_c, 11, 64, 64
12, 500256, Note_off_c, 11, 52, 64
12, 500280, Note_on_c, 11, 64, 99
12, 500280, Note_on_c, 11, 52, 99
12, 500376, Note_off_c, 11, 52, 64
12, 500376, Note_off_c, 11, 64, 64
12, 500400, Note_on_c, 11, 52, 99
12, 500400, Note_on_c, 11, 64, 99
12, 500496, Note_off_c, 11, 64, 64
12, 500496, Note_off_c, 11, 52, 64
12, 500520, Note_on_c, 11, 52, 99
12, 500520, Note_on_c, 11, 64, 99
12, 500616, Note_off_c, 11, 64, 64
12, 500616, Note_off_c, 11, 52, 64
12, 500640, Note_on_c, 11, 52, 99
12, 500640, Note_on_c, 11, 64, 99
12, 500736, Note_off_c, 11, 64, 64
12, 500736, Note_off_c, 11, 52, 64
12, 500760, Note_on_c, 11, 64, 99
12, 500760, Note_on_c, 11, 52, 99
12, 500856, Note_off_c, 11, 52, 64
12, 500856, Note_off_c, 11, 64, 64
12, 500880, Note_on_c, 11, 52, 99
12, 500880, Note_on_c, 11, 64, 99
12, 500976, Note_off_c, 11, 64, 64
12, 500976, Note_off_c, 11, 52, 64
12, 501000, Note_on_c, 11, 52, 99
12, 501000, Note_on_c, 11, 64, 99
12, 501096, Note_off_c, 11, 64, 64
12, 501096, Note_off_c, 11, 52, 64
12, 501120, Note_on_c, 11, 61, 127
12, 501216, Note_off_c, 11, 61, 64
12, 501240, Note_on_c, 11, 61, 127
12, 501336, Note_off_c, 11, 61, 64
12, 501360, Note_on_c, 11, 62, 127
12, 501456, Note_off_c, 11, 62, 64
12, 501480, Note_on_c, 11, 64, 127
12, 501576, Note_off_c, 11, 64, 64
12, 501600, Note_on_c, 11, 67, 127
12, 501696, Note_off_c, 11, 67, 64
12, 501720, Note_on_c, 11, 65, 127
12, 501816, Note_off_c, 11, 65, 64
12, 501840, Control_c, 11, 7, 110
12, 501840, Note_on_c, 11, 64, 127
12, 501936, Note_off_c, 11, 64, 64
12, 501960, Note_on_c, 11, 62, 127
12, 502056, Note_off_c, 11, 62, 64
12, 502080, Note_on_c, 11, 67, 127
12, 502176, Note_off_c, 11, 67, 64
12, 502200, Note_on_c, 11, 65, 127
12, 502296, Note_off_c, 11, 65, 64
12, 502320, Note_on_c, 11, 64, 127
12, 502416, Note_off_c, 11, 64, 64
12, 502440, Note_on_c, 11, 62, 127
12, 502536, Note_off_c, 11, 62, 64
12, 502560, Note_on_c, 11, 67, 127
12, 502656, Note_off_c, 11, 67, 64
12, 502680, Note_on_c, 11, 65, 127
12, 502776, Note_off_c, 11, 65, 64
12, 502800, Note_on_c, 11, 64, 127
12, 502896, Note_off_c, 11, 64, 64
12, 502920, Note_on_c, 11, 62, 127
12, 503016, Note_off_c, 11, 62, 64
12, 503040, Note_on_c, 11, 61, 127
12, 503136, Note_off_c, 11, 61, 64
12, 503160, Note_on_c, 11, 61, 127
12, 503256, Note_off_c, 11, 61, 64
12, 503280, Note_on_c, 11, 62, 127
12, 503376, Note_off_c, 11, 62, 64
12, 503400, Note_on_c, 11, 64, 127
12, 503496, Note_off_c, 11, 64, 64
12, 503520, Note_on_c, 11, 67, 127
12, 503616, Note_off_c, 11, 67, 64
12, 503640, Note_on_c, 11, 65, 127
12, 503736, Note_off_c, 11, 65, 64
12, 503760, Note_on_c, 11, 64, 127
12, 503856, Note_off_c, 11, 64, 64
12, 503880, Note_on_c, 11, 62, 127
12, 503976, Note_off_c, 11, 62, 64
12, 504000, Note_on_c, 11, 67, 127
12, 504096, Note_off_c, 11, 67, 64
12, 504120, Note_on_c, 11, 65, 127
12, 504216, Note_off_c, 11, 65, 64
12, 504240, Note_on_c, 11, 64, 127
12, 504336, Note_off_c, 11, 64, 64
12, 504360, Note_on_c, 11, 62, 127
12, 504456, Note_off_c, 11, 62, 64
12, 504480, Note_on_c, 11, 67, 127
12, 504576, Note_off_c, 11, 67, 64
12, 504600, Note_on_c, 11, 65, 127
12, 504696, Note_off_c, 11, 65, 64
12, 504720, Note_on_c, 11, 64, 127
12, 504816, Note_off_c, 11, 64, 64
12, 504840, Note_on_c, 11, 62, 127
12, 504936, Note_off_c, 11, 62, 64
12, 504960, Note_on_c, 11, 61, 127
12, 505056, Note_off_c, 11, 61, 64
12, 505080, Note_on_c, 11, 61, 127
12, 505176, Note_off_c, 11, 61, 64
12, 505200, Note_on_c, 11, 62, 127
12, 505296, Note_off_c, 11, 62, 64
12, 505320, Note_on_c, 11, 64, 127
12, 505416, Note_off_c, 11, 64, 64
12, 505440, Note_on_c, 11, 67, 127
12, 505536, Note_off_c, 11, 67, 64
12, 505560, Note_on_c, 11, 65, 127
12, 505656, Note_off_c, 11, 65, 64
12, 505680, Note_on_c, 11, 64, 127
12, 505776, Note_off_c, 11, 64, 64
12, 505800, Note_on_c, 11, 62, 127
12, 505896, Note_off_c, 11, 62, 64
12, 505920, Note_on_c, 11, 61, 127
12, 506016, Note_off_c, 11, 61, 64
12, 506040, Note_on_c, 11, 61, 127
12, 506136, Note_off_c, 11, 61, 64
12, 506160, Note_on_c, 11, 62, 127
12, 506256, Note_off_c, 11, 62, 64
12, 506280, Note_on_c, 11, 64, 127
12, 506376, Note_off_c, 11, 64, 64
12, 506400, Note_on_c, 11, 67, 127
12, 506496, Note_off_c, 11, 67, 64
12, 506520, Note_on_c, 11, 65, 127
12, 506616, Note_off_c, 11, 65, 64
12, 506640, Note_on_c, 11, 64, 127
12, 506736, Note_off_c, 11, 64, 64
12, 506760, Note_on_c, 11, 62, 127
12, 506856, Note_off_c, 11, 62, 64
12, 506880, Note_on_c, 11, 61, 127
12, 506976, Note_off_c, 11, 61, 64
12, 507000, Note_on_c, 11, 61, 127
12, 507096, Note_off_c, 11, 61, 64
12, 507120, Note_on_c, 11, 62, 127
12, 507216, Note_off_c, 11, 62, 64
12, 507240, Note_on_c, 11, 64, 127
12, 507336, Note_off_c, 11, 64, 64
12, 507360, Note_on_c, 11, 67, 127
12, 507456, Note_off_c, 11, 67, 64
12, 507480, Note_on_c, 11, 65, 127
12, 507576, Note_off_c, 11, 65, 64
12, 507600, Note_on_c, 11, 64, 127
12, 507696, Note_off_c, 11, 64, 64
12, 507720, Note_on_c, 11, 62, 127
12, 507816, Note_off_c, 11, 62, 64
12, 507840, Note_on_c, 11, 61, 127
12, 507936, Note_off_c, 11, 61, 64
12, 507960, Note_on_c, 11, 64, 127
12, 507960, Note_on_c, 11, 61, 127
12, 508056, Note_off_c, 11, 61, 64
12, 508056, Note_off_c, 11, 64, 64
12, 508080, Note_on_c, 11, 64, 127
12, 508080, Note_on_c, 11, 61, 127
12, 508176, Note_off_c, 11, 61, 64
12, 508176, Note_off_c, 11, 64, 64
12, 508200, Note_on_c, 11, 64, 127
12, 508200, Note_on_c, 11, 61, 127
12, 508296, Note_off_c, 11, 61, 64
12, 508296, Note_off_c, 11, 64, 64
12, 508320, Note_on_c, 11, 64, 127
12, 508320, Note_on_c, 11, 61, 127
12, 508416, Note_off_c, 11, 61, 64
12, 508416, Note_off_c, 11, 64, 64
12, 508440, Note_on_c, 11, 61, 127
12, 508440, Note_on_c, 11, 64, 127
12, 508536, Note_off_c, 11, 64, 64
12, 508536, Note_off_c, 11, 61, 64
12, 508560, Note_on_c, 11, 61, 127
12, 508560, Note_on_c, 11, 64, 127
12, 508656, Note_off_c, 11, 64, 64
12, 508656, Note_off_c, 11, 61, 64
12, 508680, Note_on_c, 11, 64, 127
12, 508680, Note_on_c, 11, 61, 127
12, 508776, Note_off_c, 11, 61, 64
12, 508776, Note_off_c, 11, 64, 64
12, 508800, Note_on_c, 11, 52, 127
12, 508800, Note_on_c, 11, 61, 127
12, 508800, Note_on_c, 11, 64, 127
12, 508944, Note_off_c, 11, 64, 64
12, 508944, Note_off_c, 11, 61, 64
12, 508944, Note_off_c, 11, 52, 64
12, 511080, Note_on_c, 11, 57, 127
12, 511080, Note_on_c, 11, 64, 127
12, 511080, Note_on_c, 11, 73, 127
12, 511224, Note_off_c, 11, 73, 64
12, 511224, Note_off_c, 11, 64, 64
12, 511224, Note_off_c, 11, 57, 64
12, 513360, Note_on_c, 11, 57, 127
12, 513360, Note_on_c, 11, 64, 127
12, 513360, Note_on_c, 11, 73, 127
12, 513504, Note_off_c, 11, 73, 64
12, 513504, Note_off_c, 11, 64, 64
12, 513504, Note_off_c, 11, 57, 64
12, 514440, Note_on_c, 11, 57, 127
12, 514440, Note_on_c, 11, 64, 127
12, 514440, Note_on_c, 11, 73, 127
12, 514584, Note_off_c, 11, 73, 64
12, 514584, Note_off_c, 11, 64, 64
12, 514584, Note_off_c, 11, 57, 64
12, 515520, Note_on_c, 11, 57, 127
12, 515520, Note_on_c, 11, 64, 127
12, 515520, Note_on_c, 11, 73, 127
12, 515664, Note_off_c, 11, 73, 64
12, 515664, Note_off_c, 11, 64, 64
12, 515664, Note_off_c, 11, 57, 64
12, 516600, Note_on_c, 11, 57, 127
12, 516600, Note_on_c, 11, 64, 127
12, 516600, Note_on_c, 11, 73, 127
12, 516744, Note_off_c, 11, 73, 64
12, 516744, Note_off_c, 11, 64, 64
12, 516744, Note_off_c, 11, 57, 64
12, 517680, Note_on_c, 11, 73, 127
12, 517680, Note_on_c, 11, 66, 127
12, 517680, Note_on_c, 11, 58, 127
12, 517800, Note_off_c, 11, 58, 64
12, 517800, Note_off_c, 11, 66, 64
12, 517800, Note_off_c, 11, 73, 64
12, 519960, Note_on_c, 11, 54, 79
12, 520080, Note_off_c, 11, 54, 64
12, 520080, Note_on_c, 11, 56, 76
12, 520200, Note_off_c, 11, 56, 64
12, 520200, Note_on_c, 11, 59, 74
12, 520320, Note_off_c, 11, 59, 64
12, 520320, Note_on_c, 11, 58, 71
12, 520440, Note_off_c, 11, 58, 64
12, 520440, Note_on_c, 11, 56, 68
12, 520560, Note_off_c, 11, 56, 64
12, 520560, Note_on_c, 11, 58, 66
12, 520680, Note_off_c, 11, 58, 64
12, 520680, Note_on_c, 11, 59, 80
12, 521160, Note_off_c, 11, 59, 64
12, 521160, Note_on_c, 11, 54, 80
12, 521640, Note_off_c, 11, 54, 64
12, 521640, Note_on_c, 11, 54, 80
12, 521832, Note_off_c, 11, 54, 64
12, 523800, Note_on_c, 11, 54, 79
12, 523920, Note_off_c, 11, 54, 64
12, 523920, Note_on_c, 11, 56, 76
12, 524040, Note_off_c, 11, 56, 64
12, 524040, Note_on_c, 11, 59, 74
12, 524160, Note_off_c, 11, 59, 64
12, 524160, Note_on_c, 11, 58, 71
12, 524280, Note_off_c, 11, 58, 64
12, 524280, Note_on_c, 11, 56, 68
12, 524400, Note_off_c, 11, 56, 64
12, 524400, Note_on_c, 11, 58, 66
12, 524520, Note_off_c, 11, 58, 64
12, 524520, Note_on_c, 11, 59, 80
12, 525000, Note_off_c, 11, 59, 64
12, 525000, Note_on_c, 11, 54, 80
12, 525480, Note_off_c, 11, 54, 64
12, 525480, Note_on_c, 11, 54, 80
12, 525672, Note_off_c, 11, 54, 64
12, 526680, Note_on_c, 11, 59, 110
12, 526800, Note_off_c, 11, 59, 64
12, 526800, Note_on_c, 11, 61, 110
12, 526920, Note_off_c, 11, 61, 64
12, 526920, Note_on_c, 11, 64, 110
12, 527040, Note_off_c, 11, 64, 64
12, 527040, Note_on_c, 11, 62, 110
12, 527160, Note_off_c, 11, 62, 64
12, 527160, Note_on_c, 11, 61, 110
12, 527280, Note_off_c, 11, 61, 64
12, 527280, Note_on_c, 11, 59, 80
12, 527400, Note_off_c, 11, 59, 64
12, 527400, Note_on_c, 11, 64, 80
12, 527880, Note_off_c, 11, 64, 64
12, 527880, Note_on_c, 11, 62, 80
12, 528360, Note_off_c, 11, 62, 64
12, 528360, Note_on_c, 11, 61, 80
12, 528840, Note_off_c, 11, 61, 64
12, 528840, Note_on_c, 11, 62, 80
12, 529320, Note_off_c, 11, 62, 64
12, 529320, Note_on_c, 11, 64, 80
12, 529440, Note_off_c, 11, 64, 64
12, 530520, Note_on_c, 11, 59, 80
12, 530640, Note_off_c, 11, 59, 64
12, 530640, Note_on_c, 11, 61, 80
12, 530760, Note_off_c, 11, 61, 64
12, 530760, Note_on_c, 11, 64, 80
12, 530880, Note_off_c, 11, 64, 64
12, 530880, Note_on_c, 11, 62, 110
12, 531000, Note_off_c, 11, 62, 64
12, 531000, Note_on_c, 11, 61, 80
12, 531120, Note_off_c, 11, 61, 64
12, 531120, Note_on_c, 11, 59, 80
12, 531240, Note_off_c, 11, 59, 64
12, 531240, Note_on_c, 11, 64, 80
12, 531720, Note_off_c, 11, 64, 64
12, 531720, Note_on_c, 11, 62, 80
12, 532200, Note_off_c, 11, 62, 64
12, 532200, Note_on_c, 11, 61, 67
12, 532680, Note_off_c, 11, 61, 64
12, 532680, Note_on_c, 11, 64, 54
12, 533160, Note_off_c, 11, 64, 64
12, 533160, Note_on_c, 11, 69, 54
12, 533280, Note_off_c, 11, 69, 64
12, 533400, Note_on_c, 11, 57, 69
12, 533520, Note_off_c, 11, 57, 64
12, 533520, Note_on_c, 11, 59, 69
12, 533640, Note_off_c, 11, 59, 64
12, 533640, Note_on_c, 11, 62, 69
12, 533760, Note_off_c, 11, 62, 64
12, 533760, Note_on_c, 11, 61, 69
12, 533880, Note_off_c, 11, 61, 64
12, 533880, Note_on_c, 11, 59, 69
12, 534000, Note_off_c, 11, 59, 64
12, 534000, Note_on_c, 11, 57, 69
12, 534120, Note_off_c, 11, 57, 64
12, 534120, Note_on_c, 11, 62, 60
12, 534360, Note_off_c, 11, 62, 64
12, 541080, Note_on_c, 11, 48, 79
12, 541200, Note_off_c, 11, 48, 64
12, 541200, Note_on_c, 11, 50, 79
12, 541320, Note_off_c, 11, 50, 64
12, 541320, Note_on_c, 11, 53, 79
12, 541440, Note_off_c, 11, 53, 64
12, 541440, Note_on_c, 11, 51, 79
12, 541560, Note_off_c, 11, 51, 64
12, 541560, Note_on_c, 11, 50, 79
12, 541680, Note_off_c, 11, 50, 64
12, 541680, Note_on_c, 11, 48, 79
12, 541800, Note_off_c, 11, 48, 64
12, 541800, Note_on_c, 11, 55, 69
12, 542040, Note_off_c, 11, 55, 64
12, 543000, Note_on_c, 11, 48, 79
12, 543120, Note_off_c, 11, 48, 64
12, 543120, Note_on_c, 11, 50, 79
12, 543240, Note_off_c, 11, 50, 64
12, 543240, Note_on_c, 11, 53, 79
12, 543360, Note_off_c, 11, 53, 64
12, 543360, Note_on_c, 11, 51, 79
12, 543480, Note_off_c, 11, 51, 64
12, 543480, Note_on_c, 11, 50, 79
12, 543600, Note_off_c, 11, 50, 64
12, 543600, Note_on_c, 11, 48, 79
12, 543720, Note_off_c, 11, 48, 64
12, 543720, Note_on_c, 11, 55, 69
12, 543960, Note_off_c, 11, 55, 64
12, 546840, Note_on_c, 11, 58, 79
12, 546960, Note_off_c, 11, 58, 64
12, 546960, Note_on_c, 11, 60, 79
12, 547080, Note_off_c, 11, 60, 64
12, 547080, Note_on_c, 11, 63, 79
12, 547200, Note_off_c, 11, 63, 64
12, 547200, Note_on_c, 11, 61, 79
12, 547320, Note_off_c, 11, 61, 64
12, 547320, Note_on_c, 11, 60, 79
12, 547440, Note_off_c, 11, 60, 64
12, 547440, Note_on_c, 11, 58, 79
12, 547560, Note_off_c, 11, 58, 64
12, 547560, Note_on_c, 11, 53, 69
12, 547680, Note_off_c, 11, 53, 64
12, 548760, Note_on_c, 11, 58, 79
12, 548880, Note_off_c, 11, 58, 64
12, 548880, Note_on_c, 11, 60, 79
12, 549000, Note_off_c, 11, 60, 64
12, 549000, Note_on_c, 11, 63, 79
12, 549120, Note_off_c, 11, 63, 64
12, 549120, Note_on_c, 11, 61, 79
12, 549240, Note_off_c, 11, 61, 64
12, 549240, Note_on_c, 11, 60, 79
12, 549360, Note_off_c, 11, 60, 64
12, 549360, Note_on_c, 11, 58, 79
12, 549480, Note_off_c, 11, 58, 64
12, 549480, Note_on_c, 11, 65, 69
12, 549600, Note_off_c, 11, 65, 64
12, 552600, Note_on_c, 11, 57, 79
12, 552720, Note_off_c, 11, 57, 64
12, 552720, Note_on_c, 11, 59, 79
12, 552840, Note_off_c, 11, 59, 64
12, 552840, Note_on_c, 11, 62, 79
12, 552960, Note_off_c, 11, 62, 64
12, 552960, Note_on_c, 11, 60, 79
12, 553080, Note_off_c, 11, 60, 64
12, 553080, Note_on_c, 11, 59, 79
12, 553200, Note_off_c, 11, 59, 64
12, 553200, Note_on_c, 11, 57, 79
12, 553320, Note_off_c, 11, 57, 64
12, 553320, Note_on_c, 11, 52, 69
12, 553440, Note_off_c, 11, 52, 64
12, 554520, Note_on_c, 11, 57, 79
12, 554640, Note_off_c, 11, 57, 64
12, 554640, Note_on_c, 11, 59, 79
12, 554760, Note_off_c, 11, 59, 64
12, 554760, Note_on_c, 11, 62, 79
12, 554880, Note_off_c, 11, 62, 64
12, 554880, Note_on_c, 11, 60, 79
12, 555000, Note_off_c, 11, 60, 64
12, 555000, Note_on_c, 11, 59, 79
12, 555120, Note_off_c, 11, 59, 64
12, 555120, Note_on_c, 11, 57, 79
12, 555240, Note_off_c, 11, 57, 64
12, 555240, Note_on_c, 11, 52, 69
12, 555360, Note_off_c, 11, 52, 64
12, 556200, Note_on_c, 11, 52, 80
12, 556680, Note_off_c, 11, 52, 64
12, 556680, Note_on_c, 11, 51, 80
12, 557160, Note_off_c, 11, 51, 64
12, 557160, Note_on_c, 11, 52, 80
12, 557640, Note_off_c, 11, 52, 64
12, 557640, Note_on_c, 11, 51, 80
12, 558120, Note_off_c, 11, 51, 64
12, 558120, Note_on_c, 11, 52, 80
12, 558600, Note_off_c, 11, 52, 64
12, 558600, Note_on_c, 11, 51, 80
12, 559080, Note_off_c, 11, 51, 64
12, 559080, Note_on_c, 11, 52, 80
12, 559560, Note_off_c, 11, 52, 64
12, 559560, Note_on_c, 11, 51, 80
12, 560040, Note_off_c, 11, 51, 64
12, 560040, Note_on_c, 11, 52, 80
12, 560520, Note_off_c, 11, 52, 64
12, 560520, Note_on_c, 11, 51, 80
12, 561000, Note_off_c, 11, 51, 64
12, 561000, Note_on_c, 11, 52, 80
12, 561480, Note_off_c, 11, 52, 64
12, 561480, Note_on_c, 11, 51, 80
12, 561960, Note_off_c, 11, 51, 64
12, 561960, Note_on_c, 11, 52, 80
12, 562440, Note_off_c, 11, 52, 64
12, 562440, Note_on_c, 11, 51, 80
12, 562920, Note_off_c, 11, 51, 64
12, 562920, Note_on_c, 11, 52, 80
12, 563400, Note_off_c, 11, 52, 64
12, 563400, Note_on_c, 11, 51, 80
12, 563880, Note_off_c, 11, 51, 64
12, 563880, Note_on_c, 11, 52, 80
12, 564360, Note_off_c, 11, 52, 64
12, 564360, Note_on_c, 11, 51, 80
12, 564840, Note_off_c, 11, 51, 64
12, 564840, Note_on_c, 11, 52, 80
12, 565320, Note_off_c, 11, 52, 64
12, 565320, Note_on_c, 11, 51, 80
12, 565800, Note_off_c, 11, 51, 64
12, 565800, Note_on_c, 11, 52, 80
12, 566280, Note_off_c, 11, 52, 64
12, 566280, Note_on_c, 11, 51, 80
12, 566760, Note_off_c, 11, 51, 64
12, 566760, Note_on_c, 11, 52, 80
12, 567240, Note_off_c, 11, 52, 64
12, 567240, Note_on_c, 11, 51, 80
12, 567720, Note_off_c, 11, 51, 64
12, 567720, Note_on_c, 11, 52, 80
12, 568200, Note_off_c, 11, 52, 64
12, 568200, Note_on_c, 11, 51, 80
12, 568680, Note_off_c, 11, 51, 64
12, 568680, Note_on_c, 11, 52, 80
12, 569160, Note_off_c, 11, 52, 64
12, 569160, Note_on_c, 11, 51, 80
12, 569640, Note_off_c, 11, 51, 64
12, 569640, Note_on_c, 11, 52, 80
12, 570120, Note_off_c, 11, 52, 64
12, 570120, Note_on_c, 11, 51, 80
12, 570600, Note_off_c, 11, 51, 64
12, 570600, Note_on_c, 11, 52, 80
12, 571080, Note_off_c, 11, 52, 64
12, 571080, Note_on_c, 11, 51, 80
12, 571560, Note_off_c, 11, 51, 64
12, 571560, Note_on_c, 11, 52, 80
12, 572160, Note_off_c, 11, 52, 64
12, 572160, Note_on_c, 11, 51, 80
12, 572640, Note_off_c, 11, 51, 64
12, 572640, Note_on_c, 11, 52, 80
12, 573240, Note_off_c, 11, 52, 64
12, 573240, Note_on_c, 11, 51, 80
12, 573720, Note_off_c, 11, 51, 64
12, 573720, Note_on_c, 11, 52, 80
12, 574320, Note_off_c, 11, 52, 64
12, 574320, Note_on_c, 11, 51, 80
12, 574800, Note_off_c, 11, 51, 64
12, 574800, Note_on_c, 11, 52, 80
12, 575400, Note_off_c, 11, 52, 64
12, 575400, Note_on_c, 11, 51, 80
12, 575880, Note_off_c, 11, 51, 64
12, 575880, Note_on_c, 11, 52, 80
12, 576360, Note_off_c, 11, 52, 64
12, 576360, Note_on_c, 11, 52, 80
12, 576840, Note_off_c, 11, 52, 64
12, 576840, Note_on_c, 11, 64, 80
12, 577320, Note_off_c, 11, 64, 64
12, 577320, Note_on_c, 11, 52, 80
12, 577800, Note_off_c, 11, 52, 64
12, 577800, Note_on_c, 11, 64, 80
12, 578280, Note_off_c, 11, 64, 64
12, 578280, Note_on_c, 11, 52, 80
12, 578760, Note_off_c, 11, 52, 64
12, 578760, Note_on_c, 11, 64, 80
12, 579240, Note_off_c, 11, 64, 64
12, 579240, Note_on_c, 11, 52, 80
12, 579720, Note_off_c, 11, 52, 64
12, 579720, Note_on_c, 11, 52, 80
12, 580320, Note_off_c, 11, 52, 64
12, 580320, Note_on_c, 11, 51, 80
12, 580800, Note_off_c, 11, 51, 64
12, 580800, Note_on_c, 11, 52, 80
12, 581400, Note_off_c, 11, 52, 64
12, 581400, Note_on_c, 11, 51, 80
12, 581880, Note_off_c, 11, 51, 64
12, 581880, Note_on_c, 11, 52, 80
12, 582480, Note_off_c, 11, 52, 64
12, 582480, Note_on_c, 11, 51, 80
12, 582960, Note_off_c, 11, 51, 64
12, 582960, Note_on_c, 11, 52, 80
12, 583560, Note_off_c, 11, 52, 64
12, 583560, Note_on_c, 11, 51, 80
12, 584040, Note_off_c, 11, 51, 64
12, 584040, Note_on_c, 11, 52, 100
12, 584136, Note_off_c, 11, 52, 64
12, 584160, Note_on_c, 11, 57, 100
12, 584160, Note_on_c, 11, 61, 100
12, 584256, Note_off_c, 11, 61, 64
12, 584256, Note_off_c, 11, 57, 64
12, 584280, Note_on_c, 11, 57, 100
12, 584280, Note_on_c, 11, 61, 100
12, 584376, Note_off_c, 11, 61, 64
12, 584376, Note_off_c, 11, 57, 64
12, 584400, Note_on_c, 11, 57, 100
12, 584400, Note_on_c, 11, 61, 100
12, 584496, Note_off_c, 11, 61, 64
12, 584496, Note_off_c, 11, 57, 64
12, 584520, Note_on_c, 11, 57, 100
12, 584520, Note_on_c, 11, 61, 100
12, 584616, Note_off_c, 11, 61, 64
12, 584616, Note_off_c, 11, 57, 64
12, 584640, Note_on_c, 11, 61, 100
12, 584640, Note_on_c, 11, 57, 100
12, 584736, Note_off_c, 11, 57, 64
12, 584736, Note_off_c, 11, 61, 64
12, 584760, Note_on_c, 11, 59, 100
12, 584760, Note_on_c, 11, 62, 100
12, 584856, Note_off_c, 11, 62, 64
12, 584856, Note_off_c, 11, 59, 64
12, 584880, Note_on_c, 11, 59, 100
12, 584880, Note_on_c, 11, 62, 100
12, 584976, Note_off_c, 11, 62, 64
12, 584976, Note_off_c, 11, 59, 64
12, 585000, Note_on_c, 11, 64, 100
12, 585000, Note_on_c, 11, 61, 100
12, 585096, Note_off_c, 11, 61, 64
12, 585096, Note_off_c, 11, 64, 64
12, 585120, Note_on_c, 11, 61, 100
12, 585120, Note_on_c, 11, 64, 100
12, 585216, Note_off_c, 11, 64, 64
12, 585216, Note_off_c, 11, 61, 64
12, 585240, Note_on_c, 11, 61, 100
12, 585240, Note_on_c, 11, 57, 100
12, 585336, Note_off_c, 11, 57, 64
12, 585336, Note_off_c, 11, 61, 64
12, 585360, Note_on_c, 11, 57, 100
12, 585360, Note_on_c, 11, 61, 100
12, 585456, Note_off_c, 11, 61, 64
12, 585456, Note_off_c, 11, 57, 64
12, 585480, Note_on_c, 11, 62, 100
12, 585480, Note_on_c, 11, 59, 100
12, 585576, Note_off_c, 11, 59, 64
12, 585576, Note_off_c, 11, 62, 64
12, 585600, Note_on_c, 11, 59, 100
12, 585600, Note_on_c, 11, 62, 100
12, 585696, Note_off_c, 11, 62, 64
12, 585696, Note_off_c, 11, 59, 64
12, 585720, Note_on_c, 11, 64, 100
12, 585720, Note_on_c, 11, 61, 100
12, 585816, Note_off_c, 11, 61, 64
12, 585816, Note_off_c, 11, 64, 64
12, 585840, Note_on_c, 11, 64, 100
12, 585840, Note_on_c, 11, 61, 100
12, 585936, Note_off_c, 11, 61, 64
12, 585936, Note_off_c, 11, 64, 64
12, 585960, Note_on_c, 11, 56, 100
12, 585960, Note_on_c, 11, 59, 100
12, 586056, Note_off_c, 11, 59, 64
12, 586056, Note_off_c, 11, 56, 64
12, 586080, Note_on_c, 11, 59, 100
12, 586080, Note_on_c, 11, 56, 100
12, 586176, Note_off_c, 11, 56, 64
12, 586176, Note_off_c, 11, 59, 64
12, 586200, Note_on_c, 11, 57, 100
12, 586200, Note_on_c, 11, 61, 100
12, 586296, Note_off_c, 11, 61, 64
12, 586296, Note_off_c, 11, 57, 64
12, 586320, Note_on_c, 11, 57, 100
12, 586320, Note_on_c, 11, 61, 100
12, 586416, Note_off_c, 11, 61, 64
12, 586416, Note_off_c, 11, 57, 64
12, 586440, Note_on_c, 11, 59, 100
12, 586440, Note_on_c, 11, 62, 100
12, 586536, Note_off_c, 11, 62, 64
12, 586536, Note_off_c, 11, 59, 64
12, 586560, Note_on_c, 11, 62, 100
12, 586560, Note_on_c, 11, 59, 100
12, 586656, Note_off_c, 11, 59, 64
12, 586656, Note_off_c, 11, 62, 64
12, 586680, Note_on_c, 11, 61, 100
12, 586680, Note_on_c, 11, 64, 100
12, 586776, Note_off_c, 11, 64, 64
12, 586776, Note_off_c, 11, 61, 64
12, 586800, Note_on_c, 11, 64, 100
12, 586800, Note_on_c, 11, 61, 100
12, 586896, Note_off_c, 11, 61, 64
12, 586896, Note_off_c, 11, 64, 64
12, 586920, Note_on_c, 11, 62, 100
12, 586920, Note_on_c, 11, 66, 100
12, 587016, Note_off_c, 11, 66, 64
12, 587016, Note_off_c, 11, 62, 64
12, 587040, Note_on_c, 11, 66, 100
12, 587040, Note_on_c, 11, 62, 100
12, 587136, Note_off_c, 11, 62, 64
12, 587136, Note_off_c, 11, 66, 64
12, 587160, Note_on_c, 11, 64, 100
12, 587160, Note_on_c, 11, 68, 100
12, 587256, Note_off_c, 11, 68, 64
12, 587256, Note_off_c, 11, 64, 64
12, 587280, Note_on_c, 11, 68, 100
12, 587280, Note_on_c, 11, 64, 100
12, 587376, Note_off_c, 11, 64, 64
12, 587376, Note_off_c, 11, 68, 64
12, 587400, Note_on_c, 11, 69, 100
12, 587400, Note_on_c, 11, 66, 100
12, 587496, Note_off_c, 11, 66, 64
12, 587496, Note_off_c, 11, 69, 64
12, 587520, Note_on_c, 11, 69, 100
12, 587520, Note_on_c, 11, 66, 100
12, 587616, Note_off_c, 11, 66, 64
12, 587616, Note_off_c, 11, 69, 64
12, 587640, Note_on_c, 11, 68, 100
12, 587640, Note_on_c, 11, 71, 100
12, 587736, Note_off_c, 11, 71, 64
12, 587736, Note_off_c, 11, 68, 64
12, 587760, Note_on_c, 11, 68, 100
12, 587760, Note_on_c, 11, 71, 100
12, 587856, Note_off_c, 11, 71, 64
12, 587856, Note_off_c, 11, 68, 64
12, 587880, Note_on_c, 11, 57, 127
12, 587880, Note_on_c, 11, 61, 127
12, 587976, Note_off_c, 11, 61, 64
12, 587976, Note_off_c, 11, 57, 64
12, 588000, Note_on_c, 11, 61, 100
12, 588000, Note_on_c, 11, 57, 100
12, 588096, Note_off_c, 11, 57, 64
12, 588096, Note_off_c, 11, 61, 64
12, 588120, Note_on_c, 11, 59, 100
12, 588120, Note_on_c, 11, 62, 100
12, 588216, Note_off_c, 11, 62, 64
12, 588216, Note_off_c, 11, 59, 64
12, 588240, Note_on_c, 11, 59, 100
12, 588240, Note_on_c, 11, 62, 100
12, 588336, Note_off_c, 11, 62, 64
12, 588336, Note_off_c, 11, 59, 64
12, 588360, Note_on_c, 11, 64, 100
12, 588360, Note_on_c, 11, 61, 100
12, 588456, Note_off_c, 11, 61, 64
12, 588456, Note_off_c, 11, 64, 64
12, 588480, Note_on_c, 11, 64, 100
12, 588480, Note_on_c, 11, 61, 100
12, 588576, Note_off_c, 11, 61, 64
12, 588576, Note_off_c, 11, 64, 64
12, 588600, Note_on_c, 11, 66, 100
12, 588600, Note_on_c, 11, 62, 100
12, 588696, Note_off_c, 11, 62, 64
12, 588696, Note_off_c, 11, 66, 64
12, 588720, Note_on_c, 11, 66, 100
12, 588720, Note_on_c, 11, 62, 100
12, 588816, Note_off_c, 11, 62, 64
12, 588816, Note_off_c, 11, 66, 64
12, 588840, Note_on_c, 11, 64, 100
12, 588840, Note_on_c, 11, 68, 100
12, 588936, Note_off_c, 11, 68, 64
12, 588936, Note_off_c, 11, 64, 64
12, 588960, Note_on_c, 11, 64, 100
12, 588960, Note_on_c, 11, 68, 100
12, 589056, Note_off_c, 11, 68, 64
12, 589056, Note_off_c, 11, 64, 64
12, 589080, Note_on_c, 11, 66, 100
12, 589080, Note_on_c, 11, 69, 100
12, 589176, Note_off_c, 11, 69, 64
12, 589176, Note_off_c, 11, 66, 64
12, 589200, Note_on_c, 11, 69, 100
12, 589200, Note_on_c, 11, 66, 100
12, 589296, Note_off_c, 11, 66, 64
12, 589296, Note_off_c, 11, 69, 64
12, 589320, Note_on_c, 11, 71, 100
12, 589320, Note_on_c, 11, 68, 100
12, 589416, Note_off_c, 11, 68, 64
12, 589416, Note_off_c, 11, 71, 64
12, 589440, Note_on_c, 11, 71, 100
12, 589440, Note_on_c, 11, 68, 100
12, 589536, Note_off_c, 11, 68, 64
12, 589536, Note_off_c, 11, 71, 64
12, 589560, Note_on_c, 11, 69, 100
12, 589560, Note_on_c, 11, 73, 100
12, 589656, Note_off_c, 11, 73, 64
12, 589656, Note_off_c, 11, 69, 64
12, 589680, Note_on_c, 11, 69, 100
12, 589680, Note_on_c, 11, 73, 100
12, 589776, Note_off_c, 11, 73, 64
12, 589776, Note_off_c, 11, 69, 64
12, 589800, Note_on_c, 11, 59, 127
12, 589800, Note_on_c, 11, 62, 127
12, 589896, Note_off_c, 11, 62, 64
12, 589896, Note_off_c, 11, 59, 64
12, 589920, Note_on_c, 11, 62, 100
12, 589920, Note_on_c, 11, 59, 100
12, 590016, Note_off_c, 11, 59, 64
12, 590016, Note_off_c, 11, 62, 64
12, 590040, Note_on_c, 11, 61, 100
12, 590040, Note_on_c, 11, 64, 100
12, 590136, Note_off_c, 11, 64, 64
12, 590136, Note_off_c, 11, 61, 64
12, 590160, Note_on_c, 11, 61, 100
12, 590160, Note_on_c, 11, 64, 100
12, 590256, Note_off_c, 11, 64, 64
12, 590256, Note_off_c, 11, 61, 64
12, 590280, Note_on_c, 11, 66, 100
12, 590280, Note_on_c, 11, 62, 100
12, 590376, Note_off_c, 11, 62, 64
12, 590376, Note_off_c, 11, 66, 64
12, 590400, Note_on_c, 11, 66, 100
12, 590400, Note_on_c, 11, 62, 100
12, 590496, Note_off_c, 11, 62, 64
12, 590496, Note_off_c, 11, 66, 64
12, 590520, Note_on_c, 11, 68, 100
12, 590520, Note_on_c, 11, 64, 100
12, 590616, Note_off_c, 11, 64, 64
12, 590616, Note_off_c, 11, 68, 64
12, 590640, Note_on_c, 11, 68, 100
12, 590640, Note_on_c, 11, 64, 100
12, 590736, Note_off_c, 11, 64, 64
12, 590736, Note_off_c, 11, 68, 64
12, 590760, Note_on_c, 11, 66, 100
12, 590760, Note_on_c, 11, 69, 100
12, 590856, Note_off_c, 11, 69, 64
12, 590856, Note_off_c, 11, 66, 64
12, 590880, Note_on_c, 11, 69, 100
12, 590880, Note_on_c, 11, 66, 100
12, 590976, Note_off_c, 11, 66, 64
12, 590976, Note_off_c, 11, 69, 64
12, 591000, Note_on_c, 11, 68, 100
12, 591000, Note_on_c, 11, 71, 100
12, 591096, Note_off_c, 11, 71, 64
12, 591096, Note_off_c, 11, 68, 64
12, 591120, Note_on_c, 11, 71, 100
12, 591120, Note_on_c, 11, 68, 100
12, 591216, Note_off_c, 11, 68, 64
12, 591216, Note_off_c, 11, 71, 64
12, 591240, Note_on_c, 11, 73, 100
12, 591240, Note_on_c, 11, 69, 100
12, 591336, Note_off_c, 11, 69, 64
12, 591336, Note_off_c, 11, 73, 64
12, 591360, Note_on_c, 11, 73, 100
12, 591360, Note_on_c, 11, 69, 100
12, 591456, Note_off_c, 11, 69, 64
12, 591456, Note_off_c, 11, 73, 64
12, 591480, Note_on_c, 11, 74, 100
12, 591480, Note_on_c, 11, 71, 100
12, 591576, Note_off_c, 11, 71, 64
12, 591576, Note_off_c, 11, 74, 64
12, 591600, Note_on_c, 11, 71, 100
12, 591600, Note_on_c, 11, 74, 100
12, 591696, Note_off_c, 11, 74, 64
12, 591696, Note_off_c, 11, 71, 64
12, 591720, Note_on_c, 11, 61, 127
12, 591720, Note_on_c, 11, 64, 127
12, 591816, Note_off_c, 11, 64, 64
12, 591816, Note_off_c, 11, 61, 64
12, 591840, Note_on_c, 11, 61, 100
12, 591840, Note_on_c, 11, 64, 100
12, 591936, Note_off_c, 11, 64, 64
12, 591936, Note_off_c, 11, 61, 64
12, 591960, Note_on_c, 11, 62, 100
12, 591960, Note_on_c, 11, 66, 100
12, 592056, Note_off_c, 11, 66, 64
12, 592056, Note_off_c, 11, 62, 64
12, 592080, Note_on_c, 11, 62, 100
12, 592080, Note_on_c, 11, 66, 100
12, 592176, Note_off_c, 11, 66, 64
12, 592176, Note_off_c, 11, 62, 64
12, 592200, Note_on_c, 11, 64, 100
12, 592200, Note_on_c, 11, 68, 100
12, 592296, Note_off_c, 11, 68, 64
12, 592296, Note_off_c, 11, 64, 64
12, 592320, Note_on_c, 11, 68, 100
12, 592320, Note_on_c, 11, 64, 100
12, 592416, Note_off_c, 11, 64, 64
12, 592416, Note_off_c, 11, 68, 64
12, 592440, Note_on_c, 11, 66, 100
12, 592440, Note_on_c, 11, 69, 100
12, 592536, Note_off_c, 11, 69, 64
12, 592536, Note_off_c, 11, 66, 64
12, 592560, Note_on_c, 11, 66, 100
12, 592560, Note_on_c, 11, 69, 100
12, 592656, Note_off_c, 11, 69, 64
12, 592656, Note_off_c, 11, 66, 64
12, 592680, Note_on_c, 11, 71, 100
12, 592680, Note_on_c, 11, 68, 100
12, 592776, Note_off_c, 11, 68, 64
12, 592776, Note_off_c, 11, 71, 64
12, 592800, Note_on_c, 11, 68, 100
12, 592800, Note_on_c, 11, 71, 100
12, 592896, Note_off_c, 11, 71, 64
12, 592896, Note_off_c, 11, 68, 64
12, 592920, Note_on_c, 11, 69, 100
12, 592920, Note_on_c, 11, 73, 100
12, 593016, Note_off_c, 11, 73, 64
12, 593016, Note_off_c, 11, 69, 64
12, 593040, Note_on_c, 11, 73, 100
12, 593040, Note_on_c, 11, 69, 100
12, 593136, Note_off_c, 11, 69, 64
12, 593136, Note_off_c, 11, 73, 64
12, 593160, Note_on_c, 11, 71, 100
12, 593160, Note_on_c, 11, 74, 100
12, 593256, Note_off_c, 11, 74, 64
12, 593256, Note_off_c, 11, 71, 64
12, 593280, Note_on_c, 11, 74, 100
12, 593280, Note_on_c, 11, 71, 100
12, 593376, Note_off_c, 11, 71, 64
12, 593376, Note_off_c, 11, 74, 64
12, 593400, Note_on_c, 11, 73, 100
12, 593400, Note_on_c, 11, 76, 100
12, 593496, Note_off_c, 11, 76, 64
12, 593496, Note_off_c, 11, 73, 64
12, 593520, Note_on_c, 11, 76, 100
12, 593520, Note_on_c, 11, 73, 100
12, 593616, Note_off_c, 11, 73, 64
12, 593616, Note_off_c, 11, 76, 64
12, 593640, Note_on_c, 11, 76, 120
12, 593736, Note_off_c, 11, 76, 64
12, 593760, Note_on_c, 11, 76, 120
12, 593856, Note_off_c, 11, 76, 64
12, 593880, Note_on_c, 11, 74, 120
12, 593976, Note_off_c, 11, 74, 64
12, 594000, Note_on_c, 11, 74, 120
12, 594096, Note_off_c, 11, 74, 64
12, 594120, Note_on_c, 11, 73, 120
12, 594216, Note_off_c, 11, 73, 64
12, 594240, Note_on_c, 11, 73, 120
12, 594336, Note_off_c, 11, 73, 64
12, 594360, Note_on_c, 11, 71, 120
12, 594456, Note_off_c, 11, 71, 64
12, 594480, Note_on_c, 11, 71, 120
12, 594576, Note_off_c, 11, 71, 64
12, 594600, Note_on_c, 11, 69, 120
12, 594696, Note_off_c, 11, 69, 64
12, 594720, Note_on_c, 11, 69, 120
12, 594816, Note_off_c, 11, 69, 64
12, 594840, Note_on_c, 11, 67, 120
12, 594936, Note_off_c, 11, 67, 64
12, 594960, Note_on_c, 11, 67, 120
12, 595056, Note_off_c, 11, 67, 64
12, 595080, Note_on_c, 11, 66, 120
12, 595176, Note_off_c, 11, 66, 64
12, 595200, Note_on_c, 11, 66, 120
12, 595296, Note_off_c, 11, 66, 64
12, 595320, Note_on_c, 11, 64, 120
12, 595416, Note_off_c, 11, 64, 64
12, 595440, Note_on_c, 11, 64, 120
12, 595536, Note_off_c, 11, 64, 64
12, 595560, Note_on_c, 11, 62, 120
12, 595656, Note_off_c, 11, 62, 64
12, 595680, Note_on_c, 11, 62, 120
12, 595776, Note_off_c, 11, 62, 64
12, 595800, Note_on_c, 11, 61, 120
12, 595896, Note_off_c, 11, 61, 64
12, 595920, Note_on_c, 11, 61, 120
12, 596016, Note_off_c, 11, 61, 64
12, 596040, Note_on_c, 11, 59, 120
12, 596136, Note_off_c, 11, 59, 64
12, 596160, Note_on_c, 11, 59, 120
12, 596256, Note_off_c, 11, 59, 64
12, 596280, Note_on_c, 11, 57, 120
12, 596376, Note_off_c, 11, 57, 64
12, 596400, Note_on_c, 11, 57, 120
12, 596496, Note_off_c, 11, 57, 64
12, 596520, Note_on_c, 11, 55, 120
12, 596616, Note_off_c, 11, 55, 64
12, 596640, Note_on_c, 11, 55, 120
12, 596736, Note_off_c, 11, 55, 64
12, 596760, Note_on_c, 11, 54, 120
12, 596856, Note_off_c, 11, 54, 64
12, 596880, Note_on_c, 11, 54, 120
12, 596976, Note_off_c, 11, 54, 64
12, 597000, Note_on_c, 11, 52, 120
12, 597096, Note_off_c, 11, 52, 64
12, 597120, Note_on_c, 11, 52, 120
12, 597216, Note_off_c, 11, 52, 64
12, 597240, Note_on_c, 11, 50, 120
12, 597336, Note_off_c, 11, 50, 64
12, 597360, Note_on_c, 11, 50, 120
12, 597456, Note_off_c, 11, 50, 64
12, 597480, Note_on_c, 11, 49, 127
12, 597576, Note_off_c, 11, 49, 64
12, 597600, Note_on_c, 11, 49, 127
12, 597696, Note_off_c, 11, 49, 64
12, 597720, Note_on_c, 11, 61, 127
12, 597816, Note_off_c, 11, 61, 64
12, 597840, Note_on_c, 11, 61, 127
12, 597936, Note_off_c, 11, 61, 64
12, 597960, Note_on_c, 11, 61, 127
12, 598056, Note_off_c, 11, 61, 64
12, 598080, Note_on_c, 11, 61, 127
12, 598176, Note_off_c, 11, 61, 64
12, 598200, Note_on_c, 11, 61, 127
12, 598296, Note_off_c, 11, 61, 64
12, 598320, Note_on_c, 11, 61, 127
12, 598416, Note_off_c, 11, 61, 64
12, 598440, Note_on_c, 11, 62, 127
12, 598536, Note_off_c, 11, 62, 64
12, 598560, Note_on_c, 11, 62, 127
12, 598656, Note_off_c, 11, 62, 64
12, 598680, Note_on_c, 11, 50, 127
12, 598776, Note_off_c, 11, 50, 64
12, 598800, Note_on_c, 11, 50, 127
12, 598896, Note_off_c, 11, 50, 64
12, 598920, Note_on_c, 11, 62, 127
12, 599016, Note_off_c, 11, 62, 64
12, 599040, Note_on_c, 11, 62, 127
12, 599136, Note_off_c, 11, 62, 64
12, 599160, Note_on_c, 11, 62, 127
12, 599256, Note_off_c, 11, 62, 64
12, 599280, Note_on_c, 11, 62, 127
12, 599376, Note_off_c, 11, 62, 64
12, 599400, Note_on_c, 11, 61, 127
12, 599496, Note_off_c, 11, 61, 64
12, 599520, Note_on_c, 11, 73, 127
12, 599616, Note_off_c, 11, 73, 64
12, 599640, Note_on_c, 11, 73, 127
12, 599736, Note_off_c, 11, 73, 64
12, 599760, Note_on_c, 11, 73, 127
12, 599856, Note_off_c, 11, 73, 64
12, 599880, Note_on_c, 11, 73, 127
12, 599976, Note_off_c, 11, 73, 64
12, 600000, Note_on_c, 11, 73, 127
12, 600096, Note_off_c, 11, 73, 64
12, 600120, Note_on_c, 11, 73, 127
12, 600216, Note_off_c, 11, 73, 64
12, 600240, Note_on_c, 11, 73, 127
12, 600336, Note_off_c, 11, 73, 64
12, 600360, Note_on_c, 11, 71, 127
12, 600456, Note_off_c, 11, 71, 64
12, 600480, Note_on_c, 11, 71, 127
12, 600576, Note_off_c, 11, 71, 64
12, 600600, Note_on_c, 11, 59, 127
12, 600696, Note_off_c, 11, 59, 64
12, 600720, Note_on_c, 11, 59, 127
12, 600816, Note_off_c, 11, 59, 64
12, 600840, Note_on_c, 11, 71, 127
12, 600936, Note_off_c, 11, 71, 64
12, 600960, Note_on_c, 11, 71, 127
12, 601056, Note_off_c, 11, 71, 64
12, 601080, Note_on_c, 11, 71, 127
12, 601176, Note_off_c, 11, 71, 64
12, 601200, Note_on_c, 11, 71, 127
12, 601296, Note_off_c, 11, 71, 64
12, 601320, Note_on_c, 11, 64, 59
12, 601416, Note_off_c, 11, 64, 64
12, 601440, Note_on_c, 11, 64, 59
12, 601536, Note_off_c, 11, 64, 64
12, 601560, Note_on_c, 11, 52, 59
12, 601656, Note_off_c, 11, 52, 64
12, 601680, Note_on_c, 11, 52, 59
12, 601776, Note_off_c, 11, 52, 64
12, 601800, Note_on_c, 11, 64, 59
12, 601896, Note_off_c, 11, 64, 64
12, 601920, Note_on_c, 11, 64, 59
12, 602016, Note_off_c, 11, 64, 64
12, 602040, Note_on_c, 11, 52, 59
12, 602136, Note_off_c, 11, 52, 64
12, 602160, Note_on_c, 11, 52, 59
12, 602256, Note_off_c, 11, 52, 64
12, 602280, Note_on_c, 11, 64, 59
12, 602376, Note_off_c, 11, 64, 64
12, 602400, Note_on_c, 11, 64, 59
12, 602496, Note_off_c, 11, 64, 64
12, 602520, Note_on_c, 11, 52, 59
12, 602616, Note_off_c, 11, 52, 64
12, 602640, Note_on_c, 11, 52, 59
12, 602736, Note_off_c, 11, 52, 64
12, 602760, Note_on_c, 11, 64, 59
12, 602856, Note_off_c, 11, 64, 64
12, 602880, Note_on_c, 11, 64, 59
12, 602976, Note_off_c, 11, 64, 64
12, 603000, Note_on_c, 11, 52, 59
12, 603096, Note_off_c, 11, 52, 64
12, 603120, Note_on_c, 11, 52, 59
12, 603216, Note_off_c, 11, 52, 64
12, 603240, Note_on_c, 11, 64, 59
12, 603336, Note_off_c, 11, 64, 64
12, 603360, Note_on_c, 11, 64, 59
12, 603456, Note_off_c, 11, 64, 64
12, 603480, Note_on_c, 11, 52, 59
12, 603576, Note_off_c, 11, 52, 64
12, 603600, Note_on_c, 11, 52, 59
12, 603696, Note_off_c, 11, 52, 64
12, 603720, Note_on_c, 11, 64, 59
12, 603816, Note_off_c, 11, 64, 64
12, 603840, Note_on_c, 11, 64, 59
12, 603936, Note_off_c, 11, 64, 64
12, 603960, Note_on_c, 11, 52, 59
12, 604056, Note_off_c, 11, 52, 64
12, 604080, Note_on_c, 11, 52, 59
12, 604176, Note_off_c, 11, 52, 64
12, 604200, Note_on_c, 11, 64, 59
12, 604296, Note_off_c, 11, 64, 64
12, 604320, Note_on_c, 11, 64, 59
12, 604416, Note_off_c, 11, 64, 64
12, 604440, Note_on_c, 11, 52, 59
12, 604536, Note_off_c, 11, 52, 64
12, 604560, Note_on_c, 11, 52, 59
12, 604656, Note_off_c, 11, 52, 64
12, 604680, Note_on_c, 11, 64, 59
12, 604776, Note_off_c, 11, 64, 64
12, 604800, Note_on_c, 11, 64, 59
12, 604896, Note_off_c, 11, 64, 64
12, 604920, Note_on_c, 11, 52, 59
12, 605016, Note_off_c, 11, 52, 64
12, 605040, Note_on_c, 11, 52, 59
12, 605136, Note_off_c, 11, 52, 64
12, 605160, Note_on_c, 11, 64, 64
12, 605256, Note_off_c, 11, 64, 64
12, 605280, Note_on_c, 11, 64, 66
12, 605376, Note_off_c, 11, 64, 64
12, 605400, Note_on_c, 11, 52, 67
12, 605496, Note_off_c, 11, 52, 64
12, 605520, Note_on_c, 11, 52, 69
12, 605616, Note_off_c, 11, 52, 64
12, 605640, Note_on_c, 11, 64, 70
12, 605736, Note_off_c, 11, 64, 64
12, 605760, Note_on_c, 11, 64, 72
12, 605856, Note_off_c, 11, 64, 64
12, 605880, Note_on_c, 11, 52, 74
12, 605976, Note_off_c, 11, 52, 64
12, 606000, Note_on_c, 11, 52, 75
12, 606096, Note_off_c, 11, 52, 64
12, 606120, Note_on_c, 11, 64, 77
12, 606216, Note_off_c, 11, 64, 64
12, 606240, Note_on_c, 11, 64, 78
12, 606336, Note_off_c, 11, 64, 64
12, 606360, Note_on_c, 11, 52, 80
12, 606456, Note_off_c, 11, 52, 64
12, 606480, Note_on_c, 11, 52, 82
12, 606576, Note_off_c, 11, 52, 64
12, 606600, Note_on_c, 11, 64, 83
12, 606696, Note_off_c, 11, 64, 64
12, 606720, Note_on_c, 11, 64, 85
12, 606816, Note_off_c, 11, 64, 64
12, 606840, Note_on_c, 11, 52, 86
12, 606936, Note_off_c, 11, 52, 64
12, 606960, Note_on_c, 11, 52, 88
12, 607056, Note_off_c, 11, 52, 64
12, 607080, Note_on_c, 11, 64, 90
12, 607176, Note_off_c, 11, 64, 64
12, 607200, Note_on_c, 11, 64, 91
12, 607296, Note_off_c, 11, 64, 64
12, 607320, Note_on_c, 11, 52, 93
12, 607416, Note_off_c, 11, 52, 64
12, 607440, Note_on_c, 11, 52, 94
12, 607536, Note_off_c, 11, 52, 64
12, 607560, Note_on_c, 11, 64, 96
12, 607656, Note_off_c, 11, 64, 64
12, 607680, Note_on_c, 11, 64, 97
12, 607776, Note_off_c, 11, 64, 64
12, 607800, Note_on_c, 11, 52, 99
12, 607896, Note_off_c, 11, 52, 64
12, 607920, Note_on_c, 11, 52, 101
12, 608016, Note_off_c, 11, 52, 64
12, 608040, Note_on_c, 11, 64, 102
12, 608136, Note_off_c, 11, 64, 64
12, 608160, Note_on_c, 11, 64, 104
12, 608256, Note_off_c, 11, 64, 64
12, 608280, Note_on_c, 11, 52, 105
12, 608376, Note_off_c, 11, 52, 64
12, 608400, Note_on_c, 11, 52, 107
12, 608496, Note_off_c, 11, 52, 64
12, 608520, Note_on_c, 11, 64, 109
12, 608616, Note_off_c, 11, 64, 64
12, 608640, Note_on_c, 11, 64, 110
12, 608736, Note_off_c, 11, 64, 64
12, 608760, Note_on_c, 11, 52, 112
12, 608856, Note_off_c, 11, 52, 64
12, 608880, Note_on_c, 11, 52, 113
12, 608976, Note_off_c, 11, 52, 64
12, 609000, Note_on_c, 11, 76, 120
12, 609096, Note_off_c, 11, 76, 64
12, 609120, Note_on_c, 11, 76, 120
12, 609216, Note_off_c, 11, 76, 64
12, 609240, Note_on_c, 11, 74, 120
12, 609336, Note_off_c, 11, 74, 64
12, 609360, Note_on_c, 11, 74, 120
12, 609456, Note_off_c, 11, 74, 64
12, 609480, Note_on_c, 11, 73, 120
12, 609576, Note_off_c, 11, 73, 64
12, 609600, Note_on_c, 11, 73, 120
12, 609696, Note_off_c, 11, 73, 64
12, 609720, Note_on_c, 11, 71, 120
12, 609816, Note_off_c, 11, 71, 64
12, 609840, Note_on_c, 11, 71, 120
12, 609936, Note_off_c, 11, 71, 64
12, 609960, Note_on_c, 11, 69, 120
12, 610056, Note_off_c, 11, 69, 64
12, 610080, Note_on_c, 11, 69, 120
12, 610176, Note_off_c, 11, 69, 64
12, 610200, Note_on_c, 11, 67, 120
12, 610296, Note_off_c, 11, 67, 64
12, 610320, Note_on_c, 11, 67, 120
12, 610416, Note_off_c, 11, 67, 64
12, 610440, Note_on_c, 11, 66, 120
12, 610536, Note_off_c, 11, 66, 64
12, 610560, Note_on_c, 11, 66, 120
12, 610656, Note_off_c, 11, 66, 64
12, 610680, Note_on_c, 11, 64, 120
12, 610776, Note_off_c, 11, 64, 64
12, 610800, Note_on_c, 11, 64, 120
12, 610896, Note_off_c, 11, 64, 64
12, 610920, Note_on_c, 11, 62, 120
12, 611016, Note_off_c, 11, 62, 64
12, 611040, Note_on_c, 11, 62, 120
12, 611136, Note_off_c, 11, 62, 64
12, 611160, Note_on_c, 11, 61, 120
12, 611256, Note_off_c, 11, 61, 64
12, 611280, Note_on_c, 11, 61, 120
12, 611376, Note_off_c, 11, 61, 64
12, 611400, Note_on_c, 11, 59, 120
12, 611496, Note_off_c, 11, 59, 64
12, 611520, Note_on_c, 11, 59, 120
12, 611616, Note_off_c, 11, 59, 64
12, 611640, Note_on_c, 11, 57, 120
12, 611736, Note_off_c, 11, 57, 64
12, 611760, Note_on_c, 11, 57, 120
12, 611856, Note_off_c, 11, 57, 64
12, 611880, Note_on_c, 11, 55, 120
12, 611976, Note_off_c, 11, 55, 64
12, 612000, Note_on_c, 11, 55, 120
12, 612096, Note_off_c, 11, 55, 64
12, 612120, Note_on_c, 11, 54, 120
12, 612216, Note_off_c, 11, 54, 64
12, 612240, Note_on_c, 11, 54, 120
12, 612336, Note_off_c, 11, 54, 64
12, 612360, Note_on_c, 11, 52, 120
12, 612456, Note_off_c, 11, 52, 64
12, 612480, Note_on_c, 11, 52, 120
12, 612576, Note_off_c, 11, 52, 64
12, 612600, Note_on_c, 11, 50, 120
12, 612696, Note_off_c, 11, 50, 64
12, 612720, Note_on_c, 11, 50, 120
12, 612816, Note_off_c, 11, 50, 64
12, 612840, Note_on_c, 11, 49, 127
12, 612936, Note_off_c, 11, 49, 64
12, 612960, Note_on_c, 11, 49, 127
12, 613056, Note_off_c, 11, 49, 64
12, 613080, Note_on_c, 11, 61, 127
12, 613176, Note_off_c, 11, 61, 64
12, 613200, Note_on_c, 11, 61, 127
12, 613296, Note_off_c, 11, 61, 64
12, 613320, Note_on_c, 11, 61, 127
12, 613416, Note_off_c, 11, 61, 64
12, 613440, Note_on_c, 11, 61, 127
12, 613536, Note_off_c, 11, 61, 64
12, 613560, Note_on_c, 11, 61, 127
12, 613656, Note_off_c, 11, 61, 64
12, 613680, Note_on_c, 11, 61, 127
12, 613776, Note_off_c, 11, 61, 64
12, 613800, Note_on_c, 11, 62, 127
12, 613896, Note_off_c, 11, 62, 64
12, 613920, Note_on_c, 11, 62, 127
12, 614016, Note_off_c, 11, 62, 64
12, 614040, Note_on_c, 11, 50, 127
12, 614136, Note_off_c, 11, 50, 64
12, 614160, Note_on_c, 11, 50, 127
12, 614256, Note_off_c, 11, 50, 64
12, 614280, Note_on_c, 11, 62, 127
12, 614376, Note_off_c, 11, 62, 64
12, 614400, Note_on_c, 11, 62, 127
12, 614496, Note_off_c, 11, 62, 64
12, 614520, Note_on_c, 11, 62, 127
12, 614616, Note_off_c, 11, 62, 64
12, 614640, Note_on_c, 11, 62, 127
12, 614736, Note_off_c, 11, 62, 64
12, 614760, Note_on_c, 11, 61, 127
12, 614856, Note_off_c, 11, 61, 64
12, 614880, Note_on_c, 11, 73, 127
12, 614976, Note_off_c, 11, 73, 64
12, 615000, Note_on_c, 11, 73, 127
12, 615096, Note_off_c, 11, 73, 64
12, 615120, Note_on_c, 11, 73, 127
12, 615216, Note_off_c, 11, 73, 64
12, 615240, Note_on_c, 11, 73, 127
12, 615336, Note_off_c, 11, 73, 64
12, 615360, Note_on_c, 11, 73, 127
12, 615456, Note_off_c, 11, 73, 64
12, 615480, Note_on_c, 11, 73, 127
12, 615576, Note_off_c, 11, 73, 64
12, 615600, Note_on_c, 11, 73, 127
12, 615696, Note_off_c, 11, 73, 64
12, 615720, Note_on_c, 11, 71, 127
12, 615816, Note_off_c, 11, 71, 64
12, 615840, Note_on_c, 11, 71, 127
12, 615936, Note_off_c, 11, 71, 64
12, 615960, Note_on_c, 11, 59, 127
12, 616056, Note_off_c, 11, 59, 64
12, 616080, Note_on_c, 11, 59, 127
12, 616176, Note_off_c, 11, 59, 64
12, 616200, Note_on_c, 11, 71, 127
12, 616296, Note_off_c, 11, 71, 64
12, 616320, Note_on_c, 11, 71, 127
12, 616416, Note_off_c, 11, 71, 64
12, 616440, Note_on_c, 11, 71, 127
12, 616536, Note_off_c, 11, 71, 64
12, 616560, Note_on_c, 11, 71, 127
12, 616656, Note_off_c, 11, 71, 64
12, 616680, Note_on_c, 11, 69, 80
12, 616776, Note_off_c, 11, 69, 64
12, 616800, Note_on_c, 11, 57, 80
12, 616896, Note_off_c, 11, 57, 64
12, 616920, Note_on_c, 11, 57, 80
12, 617016, Note_off_c, 11, 57, 64
12, 617040, Note_on_c, 11, 57, 80
12, 617136, Note_off_c, 11, 57, 64
12, 617160, Note_on_c, 11, 57, 80
12, 617256, Note_off_c, 11, 57, 64
12, 617280, Note_on_c, 11, 57, 80
12, 617376, Note_off_c, 11, 57, 64
12, 617400, Note_on_c, 11, 57, 80
12, 617496, Note_off_c, 11, 57, 64
12, 617520, Note_on_c, 11, 57, 80
12, 617616, Note_off_c, 11, 57, 64
12, 617640, Note_on_c, 11, 56, 80
12, 617736, Note_off_c, 11, 56, 64
12, 617760, Note_on_c, 11, 57, 80
12, 617856, Note_off_c, 11, 57, 64
12, 617880, Note_on_c, 11, 59, 80
12, 617976, Note_off_c, 11, 59, 64
12, 618000, Note_on_c, 11, 61, 80
12, 618096, Note_off_c, 11, 61, 64
12, 618120, Note_on_c, 11, 62, 80
12, 618216, Note_off_c, 11, 62, 64
12, 618240, Note_on_c, 11, 64, 80
12, 618336, Note_off_c, 11, 64, 64
12, 618360, Note_on_c, 11, 66, 80
12, 618456, Note_off_c, 11, 66, 64
12, 618480, Note_on_c, 11, 68, 80
12, 618576, Note_off_c, 11, 68, 64
12, 618600, Note_on_c, 11, 69, 99
12, 618696, Note_off_c, 11, 69, 64
12, 618720, Note_on_c, 11, 64, 99
12, 618816, Note_off_c, 11, 64, 64
12, 618840, Note_on_c, 11, 64, 99
12, 618936, Note_off_c, 11, 64, 64
12, 618960, Note_on_c, 11, 64, 99
12, 619056, Note_off_c, 11, 64, 64
12, 619080, Note_on_c, 11, 68, 99
12, 619176, Note_off_c, 11, 68, 64
12, 619200, Note_on_c, 11, 64, 99
12, 619296, Note_off_c, 11, 64, 64
12, 619320, Note_on_c, 11, 64, 99
12, 619416, Note_off_c, 11, 64, 64
12, 619440, Note_on_c, 11, 64, 99
12, 619536, Note_off_c, 11, 64, 64
12, 619560, Note_on_c, 11, 69, 99
12, 619656, Note_off_c, 11, 69, 64
12, 619680, Note_on_c, 11, 64, 99
12, 619776, Note_off_c, 11, 64, 64
12, 619800, Note_on_c, 11, 64, 99
12, 619896, Note_off_c, 11, 64, 64
12, 619920, Note_on_c, 11, 64, 99
12, 620016, Note_off_c, 11, 64, 64
12, 620040, Note_on_c, 11, 68, 99
12, 620136, Note_off_c, 11, 68, 64
12, 620160, Note_on_c, 11, 64, 99
12, 620256, Note_off_c, 11, 64, 64
12, 620280, Note_on_c, 11, 64, 99
12, 620376, Note_off_c, 11, 64, 64
12, 620400, Note_on_c, 11, 64, 99
12, 620496, Note_off_c, 11, 64, 64
12, 620520, Note_on_c, 11, 69, 80
12, 620616, Note_off_c, 11, 69, 64
12, 620640, Note_on_c, 11, 57, 80
12, 620736, Note_off_c, 11, 57, 64
12, 620760, Note_on_c, 11, 57, 80
12, 620856, Note_off_c, 11, 57, 64
12, 620880, Note_on_c, 11, 57, 80
12, 620976, Note_off_c, 11, 57, 64
12, 621000, Note_on_c, 11, 57, 80
12, 621096, Note_off_c, 11, 57, 64
12, 621120, Note_on_c, 11, 57, 80
12, 621216, Note_off_c, 11, 57, 64
12, 621240, Note_on_c, 11, 57, 80
12, 621336, Note_off_c, 11, 57, 64
12, 621360, Note_on_c, 11, 57, 80
12, 621456, Note_off_c, 11, 57, 64
12, 621480, Note_on_c, 11, 56, 80
12, 621576, Note_off_c, 11, 56, 64
12, 621600, Note_on_c, 11, 57, 80
12, 621696, Note_off_c, 11, 57, 64
12, 621720, Note_on_c, 11, 59, 80
12, 621816, Note_off_c, 11, 59, 64
12, 621840, Note_on_c, 11, 61, 80
12, 621936, Note_off_c, 11, 61, 64
12, 621960, Note_on_c, 11, 62, 80
12, 622056, Note_off_c, 11, 62, 64
12, 622080, Note_on_c, 11, 64, 80
12, 622176, Note_off_c, 11, 64, 64
12, 622200, Note_on_c, 11, 66, 80
12, 622296, Note_off_c, 11, 66, 64
12, 622320, Note_on_c, 11, 68, 80
12, 622416, Note_off_c, 11, 68, 64
12, 622440, Note_on_c, 11, 69, 99
12, 622536, Note_off_c, 11, 69, 64
12, 622560, Note_on_c, 11, 64, 99
12, 622656, Note_off_c, 11, 64, 64
12, 622680, Note_on_c, 11, 64, 99
12, 622776, Note_off_c, 11, 64, 64
12, 622800, Note_on_c, 11, 64, 99
12, 622896, Note_off_c, 11, 64, 64
12, 622920, Note_on_c, 11, 68, 99
12, 623016, Note_off_c, 11, 68, 64
12, 623040, Note_on_c, 11, 64, 99
12, 623136, Note_off_c, 11, 64, 64
12, 623160, Note_on_c, 11, 64, 99
12, 623256, Note_off_c, 11, 64, 64
12, 623280, Note_on_c, 11, 64, 99
12, 623376, Note_off_c, 11, 64, 64
12, 623400, Note_on_c, 11, 69, 99
12, 623496, Note_off_c, 11, 69, 64
12, 623520, Note_on_c, 11, 64, 99
12, 623616, Note_off_c, 11, 64, 64
12, 623640, Note_on_c, 11, 64, 99
12, 623736, Note_off_c, 11, 64, 64
12, 623760, Note_on_c, 11, 64, 99
12, 623856, Note_off_c, 11, 64, 64
12, 623880, Note_on_c, 11, 68, 99
12, 623976, Note_off_c, 11, 68, 64
12, 624000, Note_on_c, 11, 64, 99
12, 624096, Note_off_c, 11, 64, 64
12, 624120, Note_on_c, 11, 64, 99
12, 624216, Note_off_c, 11, 64, 64
12, 624240, Note_on_c, 11, 64, 99
12, 624336, Note_off_c, 11, 64, 64
12, 624360, Note_on_c, 11, 52, 127
12, 624456, Note_off_c, 11, 52, 64
12, 624480, Note_on_c, 11, 52, 99
12, 624576, Note_off_c, 11, 52, 64
12, 624600, Note_on_c, 11, 52, 99
12, 624696, Note_off_c, 11, 52, 64
12, 624720, Note_on_c, 11, 52, 99
12, 624816, Note_off_c, 11, 52, 64
12, 624840, Note_on_c, 11, 52, 127
12, 624936, Note_off_c, 11, 52, 64
12, 624960, Note_on_c, 11, 52, 99
12, 625056, Note_off_c, 11, 52, 64
12, 625080, Note_on_c, 11, 52, 99
12, 625176, Note_off_c, 11, 52, 64
12, 625200, Note_on_c, 11, 52, 99
12, 625296, Note_off_c, 11, 52, 64
12, 625320, Note_on_c, 11, 52, 127
12, 625416, Note_off_c, 11, 52, 64
12, 625440, Note_on_c, 11, 52, 99
12, 625536, Note_off_c, 11, 52, 64
12, 625560, Note_on_c, 11, 52, 99
12, 625656, Note_off_c, 11, 52, 64
12, 625680, Note_on_c, 11, 52, 99
12, 625776, Note_off_c, 11, 52, 64
12, 625800, Note_on_c, 11, 52, 127
12, 625896, Note_off_c, 11, 52, 64
12, 625920, Note_on_c, 11, 52, 99
12, 626016, Note_off_c, 11, 52, 64
12, 626040, Note_on_c, 11, 52, 99
12, 626136, Note_off_c, 11, 52, 64
12, 626160, Note_on_c, 11, 52, 99
12, 626256, Note_off_c, 11, 52, 64
12, 626280, Note_on_c, 11, 52, 127
12, 626376, Note_off_c, 11, 52, 64
12, 626400, Note_on_c, 11, 52, 127
12, 626496, Note_off_c, 11, 52, 64
12, 626520, Note_on_c, 11, 52, 127
12, 626616, Note_off_c, 11, 52, 64
12, 626640, Note_on_c, 11, 52, 127
12, 626736, Note_off_c, 11, 52, 64
12, 626760, Note_on_c, 11, 52, 127
12, 626856, Note_off_c, 11, 52, 64
12, 626880, Note_on_c, 11, 52, 127
12, 626976, Note_off_c, 11, 52, 64
12, 627000, Note_on_c, 11, 52, 127
12, 627096, Note_off_c, 11, 52, 64
12, 627120, Note_on_c, 11, 52, 127
12, 627216, Note_off_c, 11, 52, 64
12, 627240, Note_on_c, 11, 52, 127
12, 627336, Note_off_c, 11, 52, 64
12, 627360, Note_on_c, 11, 52, 127
12, 627456, Note_off_c, 11, 52, 64
12, 627480, Note_on_c, 11, 52, 127
12, 627576, Note_off_c, 11, 52, 64
12, 627600, Note_on_c, 11, 52, 127
12, 627696, Note_off_c, 11, 52, 64
12, 627720, Note_on_c, 11, 52, 127
12, 627816, Note_off_c, 11, 52, 64
12, 627840, Note_on_c, 11, 52, 127
12, 627936, Note_off_c, 11, 52, 64
12, 627960, Note_on_c, 11, 52, 127
12, 628056, Note_off_c, 11, 52, 64
12, 628080, Note_on_c, 11, 52, 127
12, 628176, Note_off_c, 11, 52, 64
12, 628200, Note_on_c, 11, 57, 127
12, 628320, Note_off_c, 11, 57, 64
12, 628440, Control_c, 11, 7, 126
12, 629280, Note_on_c, 11, 69, 127
12, 629280, Note_on_c, 11, 61, 127
12, 629280, Note_on_c, 11, 57, 127
12, 629400, Note_off_c, 11, 57, 64
12, 629400, Note_off_c, 11, 61, 64
12, 629400, Note_off_c, 11, 69, 64
12, 630480, Note_on_c, 11, 57, 127
12, 630600, Note_off_c, 11, 57, 64
12, 630600, End_track
13, 0, Start_track
13, 0, Title_t, "Celli"
13, 0, MIDI_port, 0
13, 0, Channel_prefix, 12
13, 0, Control_c, 12, 7, 90
13, 0, Control_c, 12, 10, 97
13, 0, Program_c, 12, 48
13, 0, Control_c, 12, 91, 66
13, 0, Program_c, 12, 48
13, 480, Control_c, 12, 93, 90
13, 480, Control_c, 12, 10, 88
13, 1920, Control_c, 12, 7, 110
13, 5760, Note_on_c, 12, 40, 114
13, 5904, Note_off_c, 12, 40, 64
13, 8160, Note_on_c, 12, 40, 114
13, 8304, Note_off_c, 12, 40, 64
13, 10560, Note_on_c, 12, 40, 127
13, 10680, Note_off_c, 12, 40, 64
13, 11040, Note_on_c, 12, 40, 127
13, 11640, Note_off_c, 12, 40, 64
13, 12000, Note_on_c, 12, 40, 127
13, 12600, Note_off_c, 12, 40, 64
13, 12960, Note_on_c, 12, 40, 127
13, 13560, Note_off_c, 12, 40, 64
13, 13920, Note_on_c, 12, 40, 127
13, 14520, Note_off_c, 12, 40, 64
13, 14880, Note_on_c, 12, 40, 127
13, 15480, Note_off_c, 12, 40, 64
13, 15840, Note_on_c, 12, 40, 127
13, 16440, Note_off_c, 12, 40, 64
13, 16800, Note_on_c, 12, 40, 127
13, 17280, Note_off_c, 12, 40, 64
13, 17280, Note_on_c, 12, 45, 127
13, 17400, Note_off_c, 12, 45, 64
13, 18240, Note_on_c, 12, 40, 127
13, 18360, Note_off_c, 12, 40, 64
13, 18720, Note_on_c, 12, 40, 127
13, 19320, Note_off_c, 12, 40, 64
13, 19680, Note_on_c, 12, 40, 127
13, 20280, Note_off_c, 12, 40, 64
13, 20640, Note_on_c, 12, 40, 127
13, 21240, Note_off_c, 12, 40, 64
13, 21600, Note_on_c, 12, 40, 127
13, 22200, Note_off_c, 12, 40, 64
13, 22560, Note_on_c, 12, 40, 127
13, 23160, Note_off_c, 12, 40, 64
13, 23520, Note_on_c, 12, 40, 127
13, 24120, Note_off_c, 12, 40, 64
13, 24480, Note_on_c, 12, 40, 127
13, 24960, Note_off_c, 12, 40, 64
13, 24960, Note_on_c, 12, 45, 127
13, 25080, Note_off_c, 12, 45, 64
13, 25920, Note_on_c, 12, 38, 127
13, 26040, Note_off_c, 12, 38, 64
13, 26400, Note_on_c, 12, 38, 127
13, 26880, Note_off_c, 12, 38, 64
13, 26880, Note_on_c, 12, 37, 108
13, 27000, Note_off_c, 12, 37, 64
13, 27360, Note_on_c, 12, 37, 127
13, 27840, Note_off_c, 12, 37, 64
13, 27840, Note_on_c, 12, 38, 108
13, 27960, Note_off_c, 12, 38, 64
13, 28320, Note_on_c, 12, 38, 127
13, 28800, Note_off_c, 12, 38, 64
13, 28800, Note_on_c, 12, 37, 108
13, 28920, Note_off_c, 12, 37, 64
13, 29280, Note_on_c, 12, 42, 127
13, 29760, Note_off_c, 12, 42, 64
13, 29760, Note_on_c, 12, 47, 108
13, 29880, Note_off_c, 12, 47, 64
13, 30240, Note_on_c, 12, 40, 127
13, 30720, Note_off_c, 12, 40, 64
13, 30720, Note_on_c, 12, 45, 108
13, 30840, Note_off_c, 12, 45, 64
13, 31200, Note_on_c, 12, 37, 127
13, 31680, Note_off_c, 12, 37, 64
13, 31680, Note_on_c, 12, 40, 108
13, 31800, Note_off_c, 12, 40, 64
13, 32160, Note_on_c, 12, 40, 127
13, 32640, Note_off_c, 12, 40, 64
13, 32640, Note_on_c, 12, 45, 127
13, 32760, Note_off_c, 12, 45, 64
13, 33600, Note_on_c, 12, 38, 127
13, 33720, Note_off_c, 12, 38, 64
13, 34080, Note_on_c, 12, 38, 127
13, 34560, Note_off_c, 12, 38, 64
13, 34560, Note_on_c, 12, 37, 108
13, 34680, Note_off_c, 12, 37, 64
13, 35040, Note_on_c, 12, 37, 127
13, 35520, Note_off_c, 12, 37, 64
13, 35520, Note_on_c, 12, 38, 108
13, 35640, Note_off_c, 12, 38, 64
13, 36000, Note_on_c, 12, 38, 127
13, 36480, Note_off_c, 12, 38, 64
13, 36480, Note_on_c, 12, 37, 108
13, 36600, Note_off_c, 12, 37, 64
13, 36960, Note_on_c, 12, 42, 127
13, 37440, Note_off_c, 12, 42, 64
13, 37440, Note_on_c, 12, 47, 108
13, 37560, Note_off_c, 12, 47, 64
13, 37920, Note_on_c, 12, 40, 127
13, 38400, Note_off_c, 12, 40, 64
13, 38400, Note_on_c, 12, 45, 108
13, 38520, Note_off_c, 12, 45, 64
13, 38880, Note_on_c, 12, 37, 127
13, 39360, Note_off_c, 12, 37, 64
13, 39360, Note_on_c, 12, 40, 108
13, 39480, Note_off_c, 12, 40, 64
13, 39840, Note_on_c, 12, 40, 127
13, 40320, Note_off_c, 12, 40, 64
13, 40320, Note_on_c, 12, 45, 127
13, 40440, Note_off_c, 12, 45, 64
13, 41400, Note_on_c, 12, 45, 127
13, 41520, Note_off_c, 12, 45, 64
13, 42480, Note_on_c, 12, 40, 127
13, 42600, Note_off_c, 12, 40, 64
13, 43560, Note_on_c, 12, 40, 127
13, 43680, Note_off_c, 12, 40, 64
13, 44640, Note_on_c, 12, 45, 127
13, 44760, Note_off_c, 12, 45, 64
13, 45120, Note_on_c, 12, 45, 127
13, 45240, Note_off_c, 12, 45, 64
13, 45600, Note_on_c, 12, 45, 127
13, 45720, Note_off_c, 12, 45, 64
13, 46080, Note_on_c, 12, 45, 127
13, 46200, Note_off_c, 12, 45, 64
13, 46560, Note_on_c, 12, 40, 127
13, 46680, Note_off_c, 12, 40, 64
13, 47040, Note_on_c, 12, 40, 127
13, 47160, Note_off_c, 12, 40, 64
13, 47520, Note_on_c, 12, 40, 127
13, 47640, Note_off_c, 12, 40, 64
13, 48000, Note_on_c, 12, 40, 127
13, 48120, Note_off_c, 12, 40, 64
13, 48480, Note_on_c, 12, 45, 127
13, 48600, Note_off_c, 12, 45, 64
13, 49560, Note_on_c, 12, 45, 127
13, 49680, Note_off_c, 12, 45, 64
13, 50640, Note_on_c, 12, 40, 127
13, 50760, Note_off_c, 12, 40, 64
13, 51720, Note_on_c, 12, 40, 127
13, 51840, Note_off_c, 12, 40, 64
13, 52800, Note_on_c, 12, 45, 100
13, 52920, Note_off_c, 12, 45, 64
13, 53040, Note_on_c, 12, 45, 100
13, 53160, Note_off_c, 12, 45, 64
13, 53280, Note_on_c, 12, 45, 100
13, 53400, Note_off_c, 12, 45, 64
13, 53520, Note_on_c, 12, 45, 100
13, 53640, Note_off_c, 12, 45, 64
13, 53760, Note_on_c, 12, 45, 100
13, 53880, Note_off_c, 12, 45, 64
13, 54000, Note_on_c, 12, 45, 100
13, 54120, Note_off_c, 12, 45, 64
13, 54240, Note_on_c, 12, 45, 100
13, 54360, Note_off_c, 12, 45, 64
13, 54480, Note_on_c, 12, 45, 100
13, 54600, Note_off_c, 12, 45, 64
13, 54720, Note_on_c, 12, 40, 100
13, 54840, Note_off_c, 12, 40, 64
13, 54960, Note_on_c, 12, 40, 100
13, 55080, Note_off_c, 12, 40, 64
13, 55200, Note_on_c, 12, 40, 100
13, 55320, Note_off_c, 12, 40, 64
13, 55440, Note_on_c, 12, 40, 100
13, 55560, Note_off_c, 12, 40, 64
13, 55680, Note_on_c, 12, 40, 100
13, 55800, Note_off_c, 12, 40, 64
13, 55920, Note_on_c, 12, 40, 100
13, 56040, Note_off_c, 12, 40, 64
13, 56160, Note_on_c, 12, 40, 100
13, 56280, Note_off_c, 12, 40, 64
13, 56400, Note_on_c, 12, 40, 100
13, 56520, Note_off_c, 12, 40, 64
13, 56640, Note_on_c, 12, 45, 80
13, 56832, Note_off_c, 12, 45, 64
13, 58080, Note_on_c, 12, 64, 80
13, 58560, Note_off_c, 12, 64, 64
13, 58560, Note_on_c, 12, 57, 80
13, 59040, Note_off_c, 12, 57, 64
13, 59040, Note_on_c, 12, 52, 80
13, 59520, Note_off_c, 12, 52, 64
13, 59520, Note_on_c, 12, 45, 80
13, 60000, Note_off_c, 12, 45, 64
13, 60000, Note_on_c, 12, 40, 80
13, 60480, Note_off_c, 12, 40, 64
13, 60480, Note_on_c, 12, 45, 80
13, 60720, Note_off_c, 12, 45, 64
13, 61920, Note_on_c, 12, 64, 80
13, 62400, Note_off_c, 12, 64, 64
13, 62400, Note_on_c, 12, 57, 80
13, 62880, Note_off_c, 12, 57, 64
13, 62880, Note_on_c, 12, 52, 80
13, 63360, Note_off_c, 12, 52, 64
13, 63360, Note_on_c, 12, 45, 80
13, 63840, Note_off_c, 12, 45, 64
13, 63840, Note_on_c, 12, 49, 80
13, 64320, Note_off_c, 12, 49, 64
13, 64320, Note_on_c, 12, 42, 80
13, 64560, Note_off_c, 12, 42, 64
13, 65760, Note_on_c, 12, 61, 80
13, 66240, Note_off_c, 12, 61, 64
13, 66240, Note_on_c, 12, 66, 80
13, 66720, Note_off_c, 12, 66, 64
13, 66720, Note_on_c, 12, 61, 80
13, 67200, Note_off_c, 12, 61, 64
13, 67200, Note_on_c, 12, 54, 80
13, 67680, Note_off_c, 12, 54, 64
13, 67680, Note_on_c, 12, 49, 80
13, 68160, Note_off_c, 12, 49, 64
13, 68160, Note_on_c, 12, 42, 80
13, 68400, Note_off_c, 12, 42, 64
13, 69600, Note_on_c, 12, 61, 80
13, 70080, Note_off_c, 12, 61, 64
13, 70080, Note_on_c, 12, 66, 80
13, 70560, Note_off_c, 12, 66, 64
13, 70560, Note_on_c, 12, 61, 80
13, 71040, Note_off_c, 12, 61, 64
13, 71040, Note_on_c, 12, 54, 80
13, 71520, Note_off_c, 12, 54, 64
13, 71520, Note_on_c, 12, 49, 80
13, 72000, Note_off_c, 12, 49, 64
13, 72000, Note_on_c, 12, 42, 110
13, 72114, Note_off_c, 12, 42, 64
13, 72360, Note_on_c, 12, 54, 80
13, 72474, Note_off_c, 12, 54, 64
13, 72480, Note_on_c, 12, 54, 80
13, 72594, Note_off_c, 12, 54, 64
13, 72840, Note_on_c, 12, 54, 80
13, 72954, Note_off_c, 12, 54, 64
13, 72960, Note_on_c, 12, 54, 80
13, 73074, Note_off_c, 12, 54, 64
13, 73320, Note_on_c, 12, 54, 80
13, 73434, Note_off_c, 12, 54, 64
13, 73440, Note_on_c, 12, 54, 80
13, 73554, Note_off_c, 12, 54, 64
13, 73800, Note_on_c, 12, 54, 80
13, 73914, Note_off_c, 12, 54, 64
13, 73920, Note_on_c, 12, 53, 80
13, 74034, Note_off_c, 12, 53, 64
13, 74280, Note_on_c, 12, 53, 80
13, 74394, Note_off_c, 12, 53, 64
13, 74400, Note_on_c, 12, 53, 80
13, 74514, Note_off_c, 12, 53, 64
13, 74760, Note_on_c, 12, 53, 80
13, 74874, Note_off_c, 12, 53, 64
13, 74880, Note_on_c, 12, 53, 80
13, 74994, Note_off_c, 12, 53, 64
13, 75240, Note_on_c, 12, 53, 80
13, 75354, Note_off_c, 12, 53, 64
13, 75360, Note_on_c, 12, 53, 80
13, 75474, Note_off_c, 12, 53, 64
13, 75720, Note_on_c, 12, 53, 80
13, 75834, Note_off_c, 12, 53, 64
13, 75840, Note_on_c, 12, 54, 110
13, 75954, Note_off_c, 12, 54, 64
13, 76200, Note_on_c, 12, 54, 80
13, 76314, Note_off_c, 12, 54, 64
13, 76320, Note_on_c, 12, 54, 80
13, 76434, Note_off_c, 12, 54, 64
13, 76680, Note_on_c, 12, 54, 80
13, 76794, Note_off_c, 12, 54, 64
13, 76800, Note_on_c, 12, 52, 110
13, 76914, Note_off_c, 12, 52, 64
13, 77160, Note_on_c, 12, 52, 80
13, 77274, Note_off_c, 12, 52, 64
13, 77280, Note_on_c, 12, 52, 80
13, 77394, Note_off_c, 12, 52, 64
13, 77640, Note_on_c, 12, 52, 80
13, 77754, Note_off_c, 12, 52, 64
13, 77760, Note_on_c, 12, 51, 110
13, 77874, Note_off_c, 12, 51, 64
13, 78120, Note_on_c, 12, 51, 80
13, 78234, Note_off_c, 12, 51, 64
13, 78240, Note_on_c, 12, 51, 80
13, 78354, Note_off_c, 12, 51, 64
13, 78600, Note_on_c, 12, 51, 80
13, 78714, Note_off_c, 12, 51, 64
13, 78720, Note_on_c, 12, 49, 110
13, 78834, Note_off_c, 12, 49, 64
13, 79080, Note_on_c, 12, 49, 80
13, 79194, Note_off_c, 12, 49, 64
13, 79200, Note_on_c, 12, 49, 80
13, 79314, Note_off_c, 12, 49, 64
13, 79560, Note_on_c, 12, 49, 80
13, 79674, Note_off_c, 12, 49, 64
13, 79680, Note_on_c, 12, 48, 110
13, 79794, Note_off_c, 12, 48, 64
13, 80040, Note_on_c, 12, 45, 80
13, 80154, Note_off_c, 12, 45, 64
13, 80160, Note_on_c, 12, 45, 80
13, 80274, Note_off_c, 12, 45, 64
13, 80520, Note_on_c, 12, 45, 80
13, 80634, Note_off_c, 12, 45, 64
13, 80640, Note_on_c, 12, 45, 80
13, 80754, Note_off_c, 12, 45, 64
13, 81000, Note_on_c, 12, 45, 80
13, 81114, Note_off_c, 12, 45, 64
13, 81120, Note_on_c, 12, 45, 80
13, 81234, Note_off_c, 12, 45, 64
13, 81480, Note_on_c, 12, 45, 80
13, 81594, Note_off_c, 12, 45, 64
13, 81600, Note_on_c, 12, 44, 127
13, 81714, Note_off_c, 12, 44, 64
13, 82080, Note_on_c, 12, 44, 127
13, 82194, Note_off_c, 12, 44, 64
13, 85920, Note_on_c, 12, 44, 127
13, 86034, Note_off_c, 12, 44, 64
13, 93120, Note_on_c, 12, 49, 64
13, 93192, Note_off_c, 12, 49, 64
13, 93480, Note_on_c, 12, 61, 64
13, 93600, Note_off_c, 12, 61, 64
13, 93600, Note_on_c, 12, 61, 96
13, 94050, Note_off_c, 12, 61, 64
13, 94080, Note_on_c, 12, 44, 77
13, 94152, Note_off_c, 12, 44, 64
13, 94440, Note_on_c, 12, 56, 64
13, 94560, Note_off_c, 12, 56, 64
13, 94560, Note_on_c, 12, 56, 96
13, 95010, Note_off_c, 12, 56, 64
13, 95040, Note_on_c, 12, 49, 77
13, 95112, Note_off_c, 12, 49, 64
13, 95400, Note_on_c, 12, 61, 64
13, 95520, Note_off_c, 12, 61, 64
13, 95520, Note_on_c, 12, 61, 96
13, 95970, Note_off_c, 12, 61, 64
13, 96000, Note_on_c, 12, 44, 77
13, 96072, Note_off_c, 12, 44, 64
13, 96360, Note_on_c, 12, 56, 64
13, 96480, Note_off_c, 12, 56, 64
13, 96480, Note_on_c, 12, 56, 96
13, 96930, Note_off_c, 12, 56, 64
13, 96960, Note_on_c, 12, 49, 64
13, 97186, Note_off_c, 12, 49, 64
13, 97920, Note_on_c, 12, 45, 46
13, 98880, Note_off_c, 12, 45, 64
13, 98880, Note_on_c, 12, 50, 46
13, 99840, Note_off_c, 12, 50, 64
13, 99840, Note_on_c, 12, 45, 46
13, 100800, Note_off_c, 12, 45, 64
13, 100800, Note_on_c, 12, 50, 46
13, 101760, Note_off_c, 12, 50, 64
13, 101760, Note_on_c, 12, 44, 46
13, 102720, Note_off_c, 12, 44, 64
13, 102720, Note_on_c, 12, 49, 64
13, 102792, Note_off_c, 12, 49, 64
13, 103080, Note_on_c, 12, 61, 64
13, 103200, Note_off_c, 12, 61, 64
13, 103200, Note_on_c, 12, 61, 96
13, 103650, Note_off_c, 12, 61, 64
13, 103680, Note_on_c, 12, 44, 77
13, 103752, Note_off_c, 12, 44, 64
13, 104040, Note_on_c, 12, 56, 64
13, 104160, Note_off_c, 12, 56, 64
13, 104160, Note_on_c, 12, 56, 96
13, 104610, Note_off_c, 12, 56, 64
13, 104640, Note_on_c, 12, 49, 77
13, 104712, Note_off_c, 12, 49, 64
13, 105000, Note_on_c, 12, 61, 64
13, 105120, Note_off_c, 12, 61, 64
13, 105120, Note_on_c, 12, 61, 96
13, 105570, Note_off_c, 12, 61, 64
13, 105600, Note_on_c, 12, 44, 77
13, 105672, Note_off_c, 12, 44, 64
13, 105960, Note_on_c, 12, 56, 64
13, 106080, Note_off_c, 12, 56, 64
13, 106080, Note_on_c, 12, 56, 96
13, 106530, Note_off_c, 12, 56, 64
13, 106560, Note_on_c, 12, 49, 64
13, 106786, Note_off_c, 12, 49, 64
13, 107520, Note_on_c, 12, 45, 46
13, 108480, Note_off_c, 12, 45, 64
13, 108480, Note_on_c, 12, 50, 46
13, 109440, Note_off_c, 12, 50, 64
13, 109440, Note_on_c, 12, 45, 46
13, 110400, Note_off_c, 12, 45, 64
13, 112680, Note_on_c, 12, 55, 60
13, 112800, Note_off_c, 12, 55, 64
13, 112800, Note_on_c, 12, 52, 60
13, 112896, Note_off_c, 12, 52, 64
13, 113160, Note_on_c, 12, 49, 60
13, 113280, Note_off_c, 12, 49, 64
13, 113280, Note_on_c, 12, 52, 60
13, 113376, Note_off_c, 12, 52, 64
13, 113640, Note_on_c, 12, 55, 60
13, 113760, Note_off_c, 12, 55, 64
13, 113760, Note_on_c, 12, 57, 60
13, 113856, Note_off_c, 12, 57, 64
13, 114120, Note_on_c, 12, 61, 60
13, 114240, Note_off_c, 12, 61, 64
13, 114240, Note_on_c, 12, 64, 60
13, 114336, Note_off_c, 12, 64, 64
13, 114720, Note_on_c, 12, 49, 80
13, 114912, Note_off_c, 12, 49, 64
13, 115680, Note_on_c, 12, 50, 80
13, 115872, Note_off_c, 12, 50, 64
13, 116640, Note_on_c, 12, 45, 96
13, 116832, Note_off_c, 12, 45, 64
13, 117600, Note_on_c, 12, 45, 96
13, 117792, Note_off_c, 12, 45, 64
13, 118440, Note_on_c, 12, 55, 86
13, 118560, Note_off_c, 12, 55, 64
13, 118560, Note_on_c, 12, 52, 86
13, 118656, Note_off_c, 12, 52, 64
13, 118920, Note_on_c, 12, 49, 86
13, 119040, Note_off_c, 12, 49, 64
13, 119040, Note_on_c, 12, 52, 86
13, 119136, Note_off_c, 12, 52, 64
13, 119400, Note_on_c, 12, 55, 86
13, 119520, Note_off_c, 12, 55, 64
13, 119520, Note_on_c, 12, 57, 86
13, 119616, Note_off_c, 12, 57, 64
13, 119880, Note_on_c, 12, 61, 86
13, 120000, Note_off_c, 12, 61, 64
13, 120000, Note_on_c, 12, 64, 71
13, 120096, Note_off_c, 12, 64, 64
13, 120480, Note_on_c, 12, 49, 95
13, 120672, Note_off_c, 12, 49, 64
13, 121440, Note_on_c, 12, 50, 72
13, 121632, Note_off_c, 12, 50, 64
13, 121920, Note_on_c, 12, 48, 99
13, 122016, Note_off_c, 12, 48, 64
13, 122040, Note_on_c, 12, 48, 99
13, 122136, Note_off_c, 12, 48, 64
13, 122160, Note_on_c, 12, 48, 99
13, 122256, Note_off_c, 12, 48, 64
13, 122280, Note_on_c, 12, 48, 99
13, 122376, Note_off_c, 12, 48, 64
13, 122400, Note_on_c, 12, 48, 99
13, 122496, Note_off_c, 12, 48, 64
13, 122520, Note_on_c, 12, 48, 99
13, 122616, Note_off_c, 12, 48, 64
13, 122640, Note_on_c, 12, 48, 99
13, 122736, Note_off_c, 12, 48, 64
13, 122760, Note_on_c, 12, 48, 99
13, 122856, Note_off_c, 12, 48, 64
13, 122880, Note_on_c, 12, 48, 99
13, 122976, Note_off_c, 12, 48, 64
13, 123000, Note_on_c, 12, 48, 99
13, 123096, Note_off_c, 12, 48, 64
13, 123120, Note_on_c, 12, 48, 99
13, 123216, Note_off_c, 12, 48, 64
13, 123240, Note_on_c, 12, 48, 99
13, 123336, Note_off_c, 12, 48, 64
13, 123360, Note_on_c, 12, 48, 99
13, 123456, Note_off_c, 12, 48, 64
13, 123480, Note_on_c, 12, 48, 99
13, 123576, Note_off_c, 12, 48, 64
13, 123600, Note_on_c, 12, 48, 99
13, 123696, Note_off_c, 12, 48, 64
13, 123720, Note_on_c, 12, 48, 99
13, 123816, Note_off_c, 12, 48, 64
13, 123840, Note_on_c, 12, 49, 127
13, 123936, Note_off_c, 12, 49, 64
13, 123960, Note_on_c, 12, 49, 99
13, 124056, Note_off_c, 12, 49, 64
13, 124080, Note_on_c, 12, 49, 99
13, 124176, Note_off_c, 12, 49, 64
13, 124200, Note_on_c, 12, 49, 99
13, 124296, Note_off_c, 12, 49, 64
13, 124320, Note_on_c, 12, 49, 99
13, 124416, Note_off_c, 12, 49, 64
13, 124440, Note_on_c, 12, 49, 99
13, 124536, Note_off_c, 12, 49, 64
13, 124560, Note_on_c, 12, 49, 99
13, 124656, Note_off_c, 12, 49, 64
13, 124680, Note_on_c, 12, 49, 99
13, 124776, Note_off_c, 12, 49, 64
13, 124800, Note_on_c, 12, 48, 127
13, 124896, Note_off_c, 12, 48, 64
13, 124920, Note_on_c, 12, 48, 99
13, 125016, Note_off_c, 12, 48, 64
13, 125040, Note_on_c, 12, 48, 99
13, 125136, Note_off_c, 12, 48, 64
13, 125160, Note_on_c, 12, 48, 99
13, 125256, Note_off_c, 12, 48, 64
13, 125280, Note_on_c, 12, 48, 99
13, 125376, Note_off_c, 12, 48, 64
13, 125400, Note_on_c, 12, 48, 99
13, 125496, Note_off_c, 12, 48, 64
13, 125520, Note_on_c, 12, 48, 99
13, 125616, Note_off_c, 12, 48, 64
13, 125640, Note_on_c, 12, 48, 99
13, 125736, Note_off_c, 12, 48, 64
13, 125760, Note_on_c, 12, 49, 127
13, 125856, Note_off_c, 12, 49, 64
13, 125880, Note_on_c, 12, 49, 99
13, 125976, Note_off_c, 12, 49, 64
13, 126000, Note_on_c, 12, 49, 99
13, 126096, Note_off_c, 12, 49, 64
13, 126120, Note_on_c, 12, 49, 99
13, 126216, Note_off_c, 12, 49, 64
13, 126240, Note_on_c, 12, 49, 99
13, 126336, Note_off_c, 12, 49, 64
13, 126360, Note_on_c, 12, 49, 99
13, 126456, Note_off_c, 12, 49, 64
13, 126480, Note_on_c, 12, 49, 99
13, 126576, Note_off_c, 12, 49, 64
13, 126600, Note_on_c, 12, 49, 99
13, 126696, Note_off_c, 12, 49, 64
13, 126720, Note_on_c, 12, 48, 127
13, 126816, Note_off_c, 12, 48, 64
13, 126840, Note_on_c, 12, 48, 99
13, 126936, Note_off_c, 12, 48, 64
13, 126960, Note_on_c, 12, 48, 99
13, 127056, Note_off_c, 12, 48, 64
13, 127080, Note_on_c, 12, 48, 99
13, 127176, Note_off_c, 12, 48, 64
13, 127200, Note_on_c, 12, 48, 99
13, 127296, Note_off_c, 12, 48, 64
13, 127320, Note_on_c, 12, 48, 99
13, 127416, Note_off_c, 12, 48, 64
13, 127440, Note_on_c, 12, 48, 99
13, 127536, Note_off_c, 12, 48, 64
13, 127560, Note_on_c, 12, 48, 99
13, 127656, Note_off_c, 12, 48, 64
13, 127680, Note_on_c, 12, 49, 127
13, 127776, Note_off_c, 12, 49, 64
13, 127800, Note_on_c, 12, 49, 99
13, 127896, Note_off_c, 12, 49, 64
13, 127920, Note_on_c, 12, 49, 99
13, 128016, Note_off_c, 12, 49, 64
13, 128040, Note_on_c, 12, 49, 99
13, 128136, Note_off_c, 12, 49, 64
13, 128160, Note_on_c, 12, 49, 99
13, 128256, Note_off_c, 12, 49, 64
13, 128280, Note_on_c, 12, 49, 99
13, 128376, Note_off_c, 12, 49, 64
13, 128400, Note_on_c, 12, 49, 99
13, 128496, Note_off_c, 12, 49, 64
13, 128520, Note_on_c, 12, 49, 99
13, 128616, Note_off_c, 12, 49, 64
13, 128640, Note_on_c, 12, 42, 127
13, 128736, Note_off_c, 12, 42, 64
13, 128760, Note_on_c, 12, 42, 99
13, 128856, Note_off_c, 12, 42, 64
13, 128880, Note_on_c, 12, 42, 99
13, 128976, Note_off_c, 12, 42, 64
13, 129000, Note_on_c, 12, 42, 99
13, 129096, Note_off_c, 12, 42, 64
13, 129120, Note_on_c, 12, 42, 99
13, 129216, Note_off_c, 12, 42, 64
13, 129240, Note_on_c, 12, 42, 99
13, 129336, Note_off_c, 12, 42, 64
13, 129360, Note_on_c, 12, 42, 99
13, 129456, Note_off_c, 12, 42, 64
13, 129480, Note_on_c, 12, 42, 99
13, 129576, Note_off_c, 12, 42, 64
13, 129600, Note_on_c, 12, 44, 99
13, 129696, Note_off_c, 12, 44, 64
13, 129720, Note_on_c, 12, 44, 99
13, 129816, Note_off_c, 12, 44, 64
13, 129840, Note_on_c, 12, 44, 99
13, 129936, Note_off_c, 12, 44, 64
13, 129960, Note_on_c, 12, 44, 99
13, 130056, Note_off_c, 12, 44, 64
13, 130080, Note_on_c, 12, 44, 99
13, 130176, Note_off_c, 12, 44, 64
13, 130200, Note_on_c, 12, 44, 99
13, 130296, Note_off_c, 12, 44, 64
13, 130320, Note_on_c, 12, 44, 99
13, 130416, Note_off_c, 12, 44, 64
13, 130440, Note_on_c, 12, 44, 99
13, 130536, Note_off_c, 12, 44, 64
13, 130560, Note_on_c, 12, 44, 127
13, 130656, Note_off_c, 12, 44, 64
13, 130680, Note_on_c, 12, 44, 99
13, 130776, Note_off_c, 12, 44, 64
13, 130800, Note_on_c, 12, 44, 99
13, 130896, Note_off_c, 12, 44, 64
13, 130920, Note_on_c, 12, 44, 99
13, 131016, Note_off_c, 12, 44, 64
13, 131040, Note_on_c, 12, 44, 99
13, 131136, Note_off_c, 12, 44, 64
13, 131160, Note_on_c, 12, 44, 99
13, 131256, Note_off_c, 12, 44, 64
13, 131280, Note_on_c, 12, 44, 99
13, 131376, Note_off_c, 12, 44, 64
13, 131400, Note_on_c, 12, 44, 99
13, 131496, Note_off_c, 12, 44, 64
13, 131520, Note_on_c, 12, 49, 99
13, 131616, Note_off_c, 12, 49, 64
13, 131640, Note_on_c, 12, 49, 99
13, 131736, Note_off_c, 12, 49, 64
13, 131760, Note_on_c, 12, 49, 99
13, 131856, Note_off_c, 12, 49, 64
13, 131880, Note_on_c, 12, 49, 99
13, 131976, Note_off_c, 12, 49, 64
13, 132000, Note_on_c, 12, 49, 127
13, 132096, Note_off_c, 12, 49, 64
13, 132120, Note_on_c, 12, 49, 99
13, 132216, Note_off_c, 12, 49, 64
13, 132240, Note_on_c, 12, 49, 99
13, 132336, Note_off_c, 12, 49, 64
13, 132360, Note_on_c, 12, 49, 99
13, 132456, Note_off_c, 12, 49, 64
13, 132480, Note_on_c, 12, 49, 99
13, 132576, Note_off_c, 12, 49, 64
13, 132600, Note_on_c, 12, 49, 99
13, 132696, Note_off_c, 12, 49, 64
13, 132720, Note_on_c, 12, 49, 99
13, 132816, Note_off_c, 12, 49, 64
13, 132840, Note_on_c, 12, 49, 99
13, 132936, Note_off_c, 12, 49, 64
13, 132960, Note_on_c, 12, 49, 99
13, 133056, Note_off_c, 12, 49, 64
13, 133080, Note_on_c, 12, 49, 99
13, 133176, Note_off_c, 12, 49, 64
13, 133200, Note_on_c, 12, 49, 99
13, 133296, Note_off_c, 12, 49, 64
13, 133320, Note_on_c, 12, 49, 99
13, 133416, Note_off_c, 12, 49, 64
13, 133440, Note_on_c, 12, 49, 99
13, 133536, Note_off_c, 12, 49, 64
13, 133560, Note_on_c, 12, 49, 99
13, 133656, Note_off_c, 12, 49, 64
13, 133680, Note_on_c, 12, 49, 99
13, 133776, Note_off_c, 12, 49, 64
13, 133800, Note_on_c, 12, 49, 99
13, 133896, Note_off_c, 12, 49, 64
13, 133920, Note_on_c, 12, 49, 127
13, 134016, Note_off_c, 12, 49, 64
13, 134040, Note_on_c, 12, 49, 99
13, 134136, Note_off_c, 12, 49, 64
13, 134160, Note_on_c, 12, 49, 99
13, 134256, Note_off_c, 12, 49, 64
13, 134280, Note_on_c, 12, 49, 99
13, 134376, Note_off_c, 12, 49, 64
13, 134400, Note_on_c, 12, 49, 99
13, 134496, Note_off_c, 12, 49, 64
13, 134520, Note_on_c, 12, 49, 99
13, 134616, Note_off_c, 12, 49, 64
13, 134640, Note_on_c, 12, 49, 99
13, 134736, Note_off_c, 12, 49, 64
13, 134760, Note_on_c, 12, 49, 99
13, 134856, Note_off_c, 12, 49, 64
13, 134880, Note_on_c, 12, 49, 99
13, 134976, Note_off_c, 12, 49, 64
13, 135000, Note_on_c, 12, 49, 99
13, 135096, Note_off_c, 12, 49, 64
13, 135120, Note_on_c, 12, 49, 99
13, 135216, Note_off_c, 12, 49, 64
13, 135240, Note_on_c, 12, 49, 99
13, 135336, Note_off_c, 12, 49, 64
13, 135360, Note_on_c, 12, 49, 99
13, 135456, Note_off_c, 12, 49, 64
13, 135480, Note_on_c, 12, 49, 99
13, 135576, Note_off_c, 12, 49, 64
13, 135600, Note_on_c, 12, 49, 99
13, 135696, Note_off_c, 12, 49, 64
13, 135720, Note_on_c, 12, 49, 99
13, 135816, Note_off_c, 12, 49, 64
13, 135840, Note_on_c, 12, 49, 127
13, 135936, Note_off_c, 12, 49, 64
13, 135960, Note_on_c, 12, 49, 99
13, 136056, Note_off_c, 12, 49, 64
13, 136080, Note_on_c, 12, 49, 99
13, 136176, Note_off_c, 12, 49, 64
13, 136200, Note_on_c, 12, 49, 99
13, 136296, Note_off_c, 12, 49, 64
13, 136320, Note_on_c, 12, 49, 99
13, 136416, Note_off_c, 12, 49, 64
13, 136440, Note_on_c, 12, 49, 99
13, 136536, Note_off_c, 12, 49, 64
13, 136560, Note_on_c, 12, 49, 99
13, 136656, Note_off_c, 12, 49, 64
13, 136680, Note_on_c, 12, 49, 99
13, 136776, Note_off_c, 12, 49, 64
13, 136800, Note_on_c, 12, 49, 127
13, 136896, Note_off_c, 12, 49, 64
13, 136920, Note_on_c, 12, 49, 99
13, 137016, Note_off_c, 12, 49, 64
13, 137040, Note_on_c, 12, 49, 99
13, 137136, Note_off_c, 12, 49, 64
13, 137160, Note_on_c, 12, 49, 99
13, 137256, Note_off_c, 12, 49, 64
13, 137280, Note_on_c, 12, 49, 99
13, 137376, Note_off_c, 12, 49, 64
13, 137400, Note_on_c, 12, 49, 99
13, 137496, Note_off_c, 12, 49, 64
13, 137520, Note_on_c, 12, 49, 99
13, 137616, Note_off_c, 12, 49, 64
13, 137640, Note_on_c, 12, 49, 99
13, 137736, Note_off_c, 12, 49, 64
13, 137760, Note_on_c, 12, 49, 127
13, 137856, Note_off_c, 12, 49, 64
13, 137880, Note_on_c, 12, 49, 99
13, 137976, Note_off_c, 12, 49, 64
13, 138000, Note_on_c, 12, 49, 99
13, 138096, Note_off_c, 12, 49, 64
13, 138120, Note_on_c, 12, 49, 99
13, 138216, Note_off_c, 12, 49, 64
13, 138240, Note_on_c, 12, 49, 99
13, 138336, Note_off_c, 12, 49, 64
13, 138360, Note_on_c, 12, 49, 99
13, 138456, Note_off_c, 12, 49, 64
13, 138480, Note_on_c, 12, 49, 99
13, 138576, Note_off_c, 12, 49, 64
13, 138600, Note_on_c, 12, 49, 99
13, 138696, Note_off_c, 12, 49, 64
13, 138720, Note_on_c, 12, 51, 99
13, 138816, Note_off_c, 12, 51, 64
13, 138840, Note_on_c, 12, 51, 99
13, 138936, Note_off_c, 12, 51, 64
13, 138960, Note_on_c, 12, 51, 99
13, 139056, Note_off_c, 12, 51, 64
13, 139080, Note_on_c, 12, 51, 99
13, 139176, Note_off_c, 12, 51, 64
13, 139200, Note_on_c, 12, 40, 127
13, 139344, Note_off_c, 12, 40, 64
13, 141600, Note_on_c, 12, 40, 127
13, 141744, Note_off_c, 12, 40, 64
13, 144000, Note_on_c, 12, 40, 127
13, 144120, Note_off_c, 12, 40, 64
13, 144480, Note_on_c, 12, 40, 127
13, 145080, Note_off_c, 12, 40, 64
13, 145440, Note_on_c, 12, 40, 127
13, 146040, Note_off_c, 12, 40, 64
13, 146400, Note_on_c, 12, 40, 127
13, 147000, Note_off_c, 12, 40, 64
13, 147360, Note_on_c, 12, 40, 127
13, 147960, Note_off_c, 12, 40, 64
13, 148320, Note_on_c, 12, 40, 127
13, 148920, Note_off_c, 12, 40, 64
13, 149280, Note_on_c, 12, 40, 127
13, 149880, Note_off_c, 12, 40, 64
13, 150240, Note_on_c, 12, 40, 127
13, 150720, Note_off_c, 12, 40, 64
13, 150720, Note_on_c, 12, 45, 127
13, 150840, Note_off_c, 12, 45, 64
13, 151680, Note_on_c, 12, 40, 127
13, 151800, Note_off_c, 12, 40, 64
13, 152160, Note_on_c, 12, 40, 127
13, 152760, Note_off_c, 12, 40, 64
13, 153120, Note_on_c, 12, 40, 127
13, 153720, Note_off_c, 12, 40, 64
13, 154080, Note_on_c, 12, 40, 127
13, 154680, Note_off_c, 12, 40, 64
13, 155040, Note_on_c, 12, 40, 127
13, 155640, Note_off_c, 12, 40, 64
13, 156000, Note_on_c, 12, 40, 127
13, 156600, Note_off_c, 12, 40, 64
13, 156960, Note_on_c, 12, 40, 127
13, 157560, Note_off_c, 12, 40, 64
13, 157920, Note_on_c, 12, 40, 127
13, 158400, Note_off_c, 12, 40, 64
13, 158400, Note_on_c, 12, 45, 127
13, 158520, Note_off_c, 12, 45, 64
13, 159360, Note_on_c, 12, 38, 127
13, 159480, Note_off_c, 12, 38, 64
13, 159840, Note_on_c, 12, 38, 127
13, 160320, Note_off_c, 12, 38, 64
13, 160320, Note_on_c, 12, 37, 108
13, 160440, Note_off_c, 12, 37, 64
13, 160800, Note_on_c, 12, 37, 127
13, 161280, Note_off_c, 12, 37, 64
13, 161280, Note_on_c, 12, 38, 108
13, 161400, Note_off_c, 12, 38, 64
13, 161760, Note_on_c, 12, 38, 127
13, 162240, Note_off_c, 12, 38, 64
13, 162240, Note_on_c, 12, 37, 108
13, 162360, Note_off_c, 12, 37, 64
13, 162720, Note_on_c, 12, 42, 127
13, 163200, Note_off_c, 12, 42, 64
13, 163200, Note_on_c, 12, 47, 108
13, 163320, Note_off_c, 12, 47, 64
13, 163680, Note_on_c, 12, 40, 127
13, 164160, Note_off_c, 12, 40, 64
13, 164160, Note_on_c, 12, 45, 108
13, 164280, Note_off_c, 12, 45, 64
13, 164640, Note_on_c, 12, 37, 127
13, 165120, Note_off_c, 12, 37, 64
13, 165120, Note_on_c, 12, 40, 108
13, 165240, Note_off_c, 12, 40, 64
13, 165600, Note_on_c, 12, 40, 127
13, 166080, Note_off_c, 12, 40, 64
13, 166080, Note_on_c, 12, 45, 127
13, 166200, Note_off_c, 12, 45, 64
13, 167040, Note_on_c, 12, 38, 127
13, 167160, Note_off_c, 12, 38, 64
13, 167520, Note_on_c, 12, 38, 127
13, 168000, Note_off_c, 12, 38, 64
13, 168000, Note_on_c, 12, 37, 108
13, 168120, Note_off_c, 12, 37, 64
13, 168480, Note_on_c, 12, 37, 127
13, 168960, Note_off_c, 12, 37, 64
13, 168960, Note_on_c, 12, 38, 108
13, 169080, Note_off_c, 12, 38, 64
13, 169440, Note_on_c, 12, 38, 127
13, 169920, Note_off_c, 12, 38, 64
13, 169920, Note_on_c, 12, 37, 108
13, 170040, Note_off_c, 12, 37, 64
13, 170400, Note_on_c, 12, 42, 127
13, 170880, Note_off_c, 12, 42, 64
13, 170880, Note_on_c, 12, 47, 108
13, 171000, Note_off_c, 12, 47, 64
13, 171360, Note_on_c, 12, 40, 127
13, 171840, Note_off_c, 12, 40, 64
13, 171840, Note_on_c, 12, 45, 108
13, 171960, Note_off_c, 12, 45, 64
13, 172320, Note_on_c, 12, 37, 127
13, 172800, Note_off_c, 12, 37, 64
13, 172800, Note_on_c, 12, 40, 108
13, 172920, Note_off_c, 12, 40, 64
13, 173280, Note_on_c, 12, 40, 127
13, 173760, Note_off_c, 12, 40, 64
13, 173760, Note_on_c, 12, 45, 127
13, 173880, Note_off_c, 12, 45, 64
13, 174840, Note_on_c, 12, 45, 127
13, 174960, Note_off_c, 12, 45, 64
13, 175920, Note_on_c, 12, 40, 127
13, 176040, Note_off_c, 12, 40, 64
13, 177000, Note_on_c, 12, 40, 127
13, 177120, Note_off_c, 12, 40, 64
13, 178080, Note_on_c, 12, 45, 127
13, 178200, Note_off_c, 12, 45, 64
13, 178560, Note_on_c, 12, 45, 127
13, 178680, Note_off_c, 12, 45, 64
13, 179040, Note_on_c, 12, 45, 127
13, 179160, Note_off_c, 12, 45, 64
13, 179520, Note_on_c, 12, 45, 127
13, 179640, Note_off_c, 12, 45, 64
13, 180000, Note_on_c, 12, 40, 127
13, 180120, Note_off_c, 12, 40, 64
13, 180480, Note_on_c, 12, 40, 127
13, 180600, Note_off_c, 12, 40, 64
13, 180960, Note_on_c, 12, 40, 127
13, 181080, Note_off_c, 12, 40, 64
13, 181440, Note_on_c, 12, 40, 127
13, 181560, Note_off_c, 12, 40, 64
13, 181920, Note_on_c, 12, 45, 127
13, 182040, Note_off_c, 12, 45, 64
13, 183000, Note_on_c, 12, 45, 127
13, 183120, Note_off_c, 12, 45, 64
13, 184080, Note_on_c, 12, 40, 127
13, 184200, Note_off_c, 12, 40, 64
13, 185160, Note_on_c, 12, 40, 127
13, 185280, Note_off_c, 12, 40, 64
13, 186240, Note_on_c, 12, 45, 100
13, 186360, Note_off_c, 12, 45, 64
13, 186480, Note_on_c, 12, 45, 100
13, 186600, Note_off_c, 12, 45, 64
13, 186720, Note_on_c, 12, 45, 100
13, 186840, Note_off_c, 12, 45, 64
13, 186960, Note_on_c, 12, 45, 100
13, 187080, Note_off_c, 12, 45, 64
13, 187200, Note_on_c, 12, 45, 100
13, 187320, Note_off_c, 12, 45, 64
13, 187440, Note_on_c, 12, 45, 100
13, 187560, Note_off_c, 12, 45, 64
13, 187680, Note_on_c, 12, 45, 100
13, 187800, Note_off_c, 12, 45, 64
13, 187920, Note_on_c, 12, 45, 100
13, 188040, Note_off_c, 12, 45, 64
13, 188160, Note_on_c, 12, 40, 100
13, 188280, Note_off_c, 12, 40, 64
13, 188400, Note_on_c, 12, 40, 100
13, 188520, Note_off_c, 12, 40, 64
13, 188640, Note_on_c, 12, 40, 100
13, 188760, Note_off_c, 12, 40, 64
13, 188880, Note_on_c, 12, 40, 100
13, 189000, Note_off_c, 12, 40, 64
13, 189120, Note_on_c, 12, 40, 100
13, 189240, Note_off_c, 12, 40, 64
13, 189360, Note_on_c, 12, 40, 100
13, 189480, Note_off_c, 12, 40, 64
13, 189600, Note_on_c, 12, 40, 100
13, 189720, Note_off_c, 12, 40, 64
13, 189840, Note_on_c, 12, 40, 100
13, 189960, Note_off_c, 12, 40, 64
13, 190080, Note_on_c, 12, 45, 80
13, 190272, Note_off_c, 12, 45, 64
13, 191520, Note_on_c, 12, 64, 80
13, 192000, Note_off_c, 12, 64, 64
13, 192000, Note_on_c, 12, 57, 80
13, 192480, Note_off_c, 12, 57, 64
13, 192480, Note_on_c, 12, 52, 80
13, 192960, Note_off_c, 12, 52, 64
13, 192960, Note_on_c, 12, 45, 80
13, 193440, Note_off_c, 12, 45, 64
13, 193440, Note_on_c, 12, 40, 80
13, 193920, Note_off_c, 12, 40, 64
13, 193920, Note_on_c, 12, 45, 80
13, 194160, Note_off_c, 12, 45, 64
13, 195360, Note_on_c, 12, 64, 80
13, 195840, Note_off_c, 12, 64, 64
13, 195840, Note_on_c, 12, 57, 80
13, 196320, Note_off_c, 12, 57, 64
13, 196320, Note_on_c, 12, 52, 80
13, 196800, Note_off_c, 12, 52, 64
13, 196800, Note_on_c, 12, 45, 80
13, 197280, Note_off_c, 12, 45, 64
13, 197280, Note_on_c, 12, 49, 80
13, 197760, Note_off_c, 12, 49, 64
13, 197760, Note_on_c, 12, 42, 80
13, 198000, Note_off_c, 12, 42, 64
13, 199200, Note_on_c, 12, 61, 80
13, 199680, Note_off_c, 12, 61, 64
13, 199680, Note_on_c, 12, 66, 80
13, 200160, Note_off_c, 12, 66, 64
13, 200160, Note_on_c, 12, 61, 80
13, 200640, Note_off_c, 12, 61, 64
13, 200640, Note_on_c, 12, 54, 80
13, 201120, Note_off_c, 12, 54, 64
13, 201120, Note_on_c, 12, 49, 80
13, 201600, Note_off_c, 12, 49, 64
13, 201600, Note_on_c, 12, 42, 80
13, 201840, Note_off_c, 12, 42, 64
13, 203040, Note_on_c, 12, 61, 80
13, 203520, Note_off_c, 12, 61, 64
13, 203520, Note_on_c, 12, 66, 80
13, 204000, Note_off_c, 12, 66, 64
13, 204000, Note_on_c, 12, 61, 80
13, 204480, Note_off_c, 12, 61, 64
13, 204480, Note_on_c, 12, 54, 80
13, 204960, Note_off_c, 12, 54, 64
13, 204960, Note_on_c, 12, 49, 80
13, 205440, Note_off_c, 12, 49, 64
13, 205440, Note_on_c, 12, 42, 110
13, 205554, Note_off_c, 12, 42, 64
13, 205800, Note_on_c, 12, 54, 80
13, 205914, Note_off_c, 12, 54, 64
13, 205920, Note_on_c, 12, 54, 80
13, 206034, Note_off_c, 12, 54, 64
13, 206280, Note_on_c, 12, 54, 80
13, 206394, Note_off_c, 12, 54, 64
13, 206400, Note_on_c, 12, 54, 80
13, 206514, Note_off_c, 12, 54, 64
13, 206760, Note_on_c, 12, 54, 80
13, 206874, Note_off_c, 12, 54, 64
13, 206880, Note_on_c, 12, 54, 80
13, 206994, Note_off_c, 12, 54, 64
13, 207240, Note_on_c, 12, 54, 80
13, 207354, Note_off_c, 12, 54, 64
13, 207360, Note_on_c, 12, 53, 80
13, 207474, Note_off_c, 12, 53, 64
13, 207720, Note_on_c, 12, 53, 80
13, 207834, Note_off_c, 12, 53, 64
13, 207840, Note_on_c, 12, 53, 80
13, 207954, Note_off_c, 12, 53, 64
13, 208200, Note_on_c, 12, 53, 80
13, 208314, Note_off_c, 12, 53, 64
13, 208320, Note_on_c, 12, 53, 80
13, 208434, Note_off_c, 12, 53, 64
13, 208680, Note_on_c, 12, 53, 80
13, 208794, Note_off_c, 12, 53, 64
13, 208800, Note_on_c, 12, 53, 80
13, 208914, Note_off_c, 12, 53, 64
13, 209160, Note_on_c, 12, 53, 80
13, 209274, Note_off_c, 12, 53, 64
13, 209280, Note_on_c, 12, 54, 110
13, 209394, Note_off_c, 12, 54, 64
13, 209640, Note_on_c, 12, 54, 80
13, 209754, Note_off_c, 12, 54, 64
13, 209760, Note_on_c, 12, 54, 80
13, 209874, Note_off_c, 12, 54, 64
13, 210120, Note_on_c, 12, 54, 80
13, 210234, Note_off_c, 12, 54, 64
13, 210240, Note_on_c, 12, 52, 110
13, 210354, Note_off_c, 12, 52, 64
13, 210600, Note_on_c, 12, 52, 80
13, 210714, Note_off_c, 12, 52, 64
13, 210720, Note_on_c, 12, 52, 80
13, 210834, Note_off_c, 12, 52, 64
13, 211080, Note_on_c, 12, 52, 80
13, 211194, Note_off_c, 12, 52, 64
13, 211200, Note_on_c, 12, 51, 110
13, 211314, Note_off_c, 12, 51, 64
13, 211560, Note_on_c, 12, 51, 80
13, 211674, Note_off_c, 12, 51, 64
13, 211680, Note_on_c, 12, 51, 80
13, 211794, Note_off_c, 12, 51, 64
13, 212040, Note_on_c, 12, 51, 80
13, 212154, Note_off_c, 12, 51, 64
13, 212160, Note_on_c, 12, 49, 110
13, 212274, Note_off_c, 12, 49, 64
13, 212520, Note_on_c, 12, 49, 80
13, 212634, Note_off_c, 12, 49, 64
13, 212640, Note_on_c, 12, 49, 80
13, 212754, Note_off_c, 12, 49, 64
13, 213000, Note_on_c, 12, 49, 80
13, 213114, Note_off_c, 12, 49, 64
13, 213120, Note_on_c, 12, 48, 110
13, 213234, Note_off_c, 12, 48, 64
13, 213480, Note_on_c, 12, 45, 80
13, 213594, Note_off_c, 12, 45, 64
13, 213600, Note_on_c, 12, 45, 80
13, 213714, Note_off_c, 12, 45, 64
13, 213960, Note_on_c, 12, 45, 80
13, 214074, Note_off_c, 12, 45, 64
13, 214080, Note_on_c, 12, 45, 80
13, 214194, Note_off_c, 12, 45, 64
13, 214440, Note_on_c, 12, 45, 80
13, 214554, Note_off_c, 12, 45, 64
13, 214560, Note_on_c, 12, 45, 80
13, 214674, Note_off_c, 12, 45, 64
13, 214920, Note_on_c, 12, 45, 80
13, 215034, Note_off_c, 12, 45, 64
13, 215040, Note_on_c, 12, 44, 127
13, 215154, Note_off_c, 12, 44, 64
13, 215520, Note_on_c, 12, 44, 127
13, 215634, Note_off_c, 12, 44, 64
13, 219360, Note_on_c, 12, 44, 127
13, 219474, Note_off_c, 12, 44, 64
13, 226560, Note_on_c, 12, 49, 64
13, 226632, Note_off_c, 12, 49, 64
13, 226920, Note_on_c, 12, 61, 64
13, 227040, Note_off_c, 12, 61, 64
13, 227040, Note_on_c, 12, 61, 96
13, 227490, Note_off_c, 12, 61, 64
13, 227520, Note_on_c, 12, 44, 77
13, 227592, Note_off_c, 12, 44, 64
13, 227880, Note_on_c, 12, 56, 64
13, 228000, Note_off_c, 12, 56, 64
13, 228000, Note_on_c, 12, 56, 96
13, 228450, Note_off_c, 12, 56, 64
13, 228480, Note_on_c, 12, 49, 77
13, 228552, Note_off_c, 12, 49, 64
13, 228840, Note_on_c, 12, 61, 64
13, 228960, Note_off_c, 12, 61, 64
13, 228960, Note_on_c, 12, 61, 96
13, 229410, Note_off_c, 12, 61, 64
13, 229440, Note_on_c, 12, 44, 77
13, 229512, Note_off_c, 12, 44, 64
13, 229800, Note_on_c, 12, 56, 64
13, 229920, Note_off_c, 12, 56, 64
13, 229920, Note_on_c, 12, 56, 96
13, 230370, Note_off_c, 12, 56, 64
13, 230400, Note_on_c, 12, 49, 64
13, 230626, Note_off_c, 12, 49, 64
13, 231360, Note_on_c, 12, 45, 46
13, 232320, Note_off_c, 12, 45, 64
13, 232320, Note_on_c, 12, 50, 46
13, 233280, Note_off_c, 12, 50, 64
13, 233280, Note_on_c, 12, 45, 46
13, 234240, Note_off_c, 12, 45, 64
13, 234240, Note_on_c, 12, 50, 46
13, 235200, Note_off_c, 12, 50, 64
13, 235200, Note_on_c, 12, 44, 46
13, 236160, Note_off_c, 12, 44, 64
13, 236160, Note_on_c, 12, 49, 64
13, 236232, Note_off_c, 12, 49, 64
13, 236520, Note_on_c, 12, 61, 64
13, 236640, Note_off_c, 12, 61, 64
13, 236640, Note_on_c, 12, 61, 96
13, 237090, Note_off_c, 12, 61, 64
13, 237120, Note_on_c, 12, 44, 77
13, 237192, Note_off_c, 12, 44, 64
13, 237480, Note_on_c, 12, 56, 64
13, 237600, Note_off_c, 12, 56, 64
13, 237600, Note_on_c, 12, 56, 96
13, 238050, Note_off_c, 12, 56, 64
13, 238080, Note_on_c, 12, 49, 77
13, 238152, Note_off_c, 12, 49, 64
13, 238440, Note_on_c, 12, 61, 64
13, 238560, Note_off_c, 12, 61, 64
13, 238560, Note_on_c, 12, 61, 96
13, 239010, Note_off_c, 12, 61, 64
13, 239040, Note_on_c, 12, 44, 77
13, 239112, Note_off_c, 12, 44, 64
13, 239400, Note_on_c, 12, 56, 64
13, 239520, Note_off_c, 12, 56, 64
13, 239520, Note_on_c, 12, 56, 96
13, 239970, Note_off_c, 12, 56, 64
13, 240000, Note_on_c, 12, 49, 64
13, 240226, Note_off_c, 12, 49, 64
13, 240960, Note_on_c, 12, 45, 46
13, 241920, Note_off_c, 12, 45, 64
13, 241920, Note_on_c, 12, 50, 46
13, 242880, Note_off_c, 12, 50, 64
13, 242880, Note_on_c, 12, 45, 46
13, 243840, Note_off_c, 12, 45, 64
13, 246120, Note_on_c, 12, 55, 60
13, 246240, Note_off_c, 12, 55, 64
13, 246240, Note_on_c, 12, 52, 60
13, 246336, Note_off_c, 12, 52, 64
13, 246600, Note_on_c, 12, 49, 60
13, 246720, Note_off_c, 12, 49, 64
13, 246720, Note_on_c, 12, 52, 60
13, 246816, Note_off_c, 12, 52, 64
13, 247080, Note_on_c, 12, 55, 60
13, 247200, Note_off_c, 12, 55, 64
13, 247200, Note_on_c, 12, 57, 60
13, 247296, Note_off_c, 12, 57, 64
13, 247560, Note_on_c, 12, 61, 60
13, 247680, Note_off_c, 12, 61, 64
13, 247680, Note_on_c, 12, 64, 60
13, 247776, Note_off_c, 12, 64, 64
13, 248160, Note_on_c, 12, 49, 80
13, 248352, Note_off_c, 12, 49, 64
13, 249120, Note_on_c, 12, 50, 80
13, 249312, Note_off_c, 12, 50, 64
13, 250080, Note_on_c, 12, 45, 96
13, 250272, Note_off_c, 12, 45, 64
13, 251040, Note_on_c, 12, 45, 96
13, 251232, Note_off_c, 12, 45, 64
13, 251880, Note_on_c, 12, 55, 86
13, 252000, Note_off_c, 12, 55, 64
13, 252000, Note_on_c, 12, 52, 86
13, 252096, Note_off_c, 12, 52, 64
13, 252360, Note_on_c, 12, 49, 86
13, 252480, Note_off_c, 12, 49, 64
13, 252480, Note_on_c, 12, 52, 86
13, 252576, Note_off_c, 12, 52, 64
13, 252840, Note_on_c, 12, 55, 86
13, 252960, Note_off_c, 12, 55, 64
13, 252960, Note_on_c, 12, 57, 86
13, 253056, Note_off_c, 12, 57, 64
13, 253320, Note_on_c, 12, 61, 86
13, 253440, Note_off_c, 12, 61, 64
13, 253440, Note_on_c, 12, 64, 71
13, 253536, Note_off_c, 12, 64, 64
13, 253920, Note_on_c, 12, 49, 95
13, 254112, Note_off_c, 12, 49, 64
13, 254880, Note_on_c, 12, 50, 72
13, 255072, Note_off_c, 12, 50, 64
13, 255360, Note_on_c, 12, 48, 99
13, 255456, Note_off_c, 12, 48, 64
13, 255480, Note_on_c, 12, 48, 99
13, 255576, Note_off_c, 12, 48, 64
13, 255600, Note_on_c, 12, 48, 99
13, 255696, Note_off_c, 12, 48, 64
13, 255720, Note_on_c, 12, 48, 99
13, 255816, Note_off_c, 12, 48, 64
13, 255840, Note_on_c, 12, 48, 99
13, 255936, Note_off_c, 12, 48, 64
13, 255960, Note_on_c, 12, 48, 99
13, 256056, Note_off_c, 12, 48, 64
13, 256080, Note_on_c, 12, 48, 99
13, 256176, Note_off_c, 12, 48, 64
13, 256200, Note_on_c, 12, 48, 99
13, 256296, Note_off_c, 12, 48, 64
13, 256320, Note_on_c, 12, 48, 99
13, 256416, Note_off_c, 12, 48, 64
13, 256440, Note_on_c, 12, 48, 99
13, 256536, Note_off_c, 12, 48, 64
13, 256560, Note_on_c, 12, 48, 99
13, 256656, Note_off_c, 12, 48, 64
13, 256680, Note_on_c, 12, 48, 99
13, 256776, Note_off_c, 12, 48, 64
13, 256800, Note_on_c, 12, 48, 99
13, 256896, Note_off_c, 12, 48, 64
13, 256920, Note_on_c, 12, 48, 99
13, 257016, Note_off_c, 12, 48, 64
13, 257040, Note_on_c, 12, 48, 99
13, 257136, Note_off_c, 12, 48, 64
13, 257160, Note_on_c, 12, 48, 99
13, 257256, Note_off_c, 12, 48, 64
13, 257280, Note_on_c, 12, 49, 127
13, 257376, Note_off_c, 12, 49, 64
13, 257400, Note_on_c, 12, 49, 99
13, 257496, Note_off_c, 12, 49, 64
13, 257520, Note_on_c, 12, 49, 99
13, 257616, Note_off_c, 12, 49, 64
13, 257640, Note_on_c, 12, 49, 99
13, 257736, Note_off_c, 12, 49, 64
13, 257760, Note_on_c, 12, 49, 99
13, 257856, Note_off_c, 12, 49, 64
13, 257880, Note_on_c, 12, 49, 99
13, 257976, Note_off_c, 12, 49, 64
13, 258000, Note_on_c, 12, 49, 99
13, 258096, Note_off_c, 12, 49, 64
13, 258120, Note_on_c, 12, 49, 99
13, 258216, Note_off_c, 12, 49, 64
13, 258240, Note_on_c, 12, 48, 127
13, 258336, Note_off_c, 12, 48, 64
13, 258360, Note_on_c, 12, 48, 99
13, 258456, Note_off_c, 12, 48, 64
13, 258480, Note_on_c, 12, 48, 99
13, 258576, Note_off_c, 12, 48, 64
13, 258600, Note_on_c, 12, 48, 99
13, 258696, Note_off_c, 12, 48, 64
13, 258720, Note_on_c, 12, 48, 99
13, 258816, Note_off_c, 12, 48, 64
13, 258840, Note_on_c, 12, 48, 99
13, 258936, Note_off_c, 12, 48, 64
13, 258960, Note_on_c, 12, 48, 99
13, 259056, Note_off_c, 12, 48, 64
13, 259080, Note_on_c, 12, 48, 99
13, 259176, Note_off_c, 12, 48, 64
13, 259200, Note_on_c, 12, 49, 127
13, 259296, Note_off_c, 12, 49, 64
13, 259320, Note_on_c, 12, 49, 99
13, 259416, Note_off_c, 12, 49, 64
13, 259440, Note_on_c, 12, 49, 99
13, 259536, Note_off_c, 12, 49, 64
13, 259560, Note_on_c, 12, 49, 99
13, 259656, Note_off_c, 12, 49, 64
13, 259680, Note_on_c, 12, 49, 99
13, 259776, Note_off_c, 12, 49, 64
13, 259800, Note_on_c, 12, 49, 99
13, 259896, Note_off_c, 12, 49, 64
13, 259920, Note_on_c, 12, 49, 99
13, 260016, Note_off_c, 12, 49, 64
13, 260040, Note_on_c, 12, 49, 99
13, 260136, Note_off_c, 12, 49, 64
13, 260160, Note_on_c, 12, 48, 127
13, 260256, Note_off_c, 12, 48, 64
13, 260280, Note_on_c, 12, 48, 99
13, 260376, Note_off_c, 12, 48, 64
13, 260400, Note_on_c, 12, 48, 99
13, 260496, Note_off_c, 12, 48, 64
13, 260520, Note_on_c, 12, 48, 99
13, 260616, Note_off_c, 12, 48, 64
13, 260640, Note_on_c, 12, 48, 99
13, 260736, Note_off_c, 12, 48, 64
13, 260760, Note_on_c, 12, 48, 99
13, 260856, Note_off_c, 12, 48, 64
13, 260880, Note_on_c, 12, 48, 99
13, 260976, Note_off_c, 12, 48, 64
13, 261000, Note_on_c, 12, 48, 99
13, 261096, Note_off_c, 12, 48, 64
13, 261120, Note_on_c, 12, 49, 127
13, 261216, Note_off_c, 12, 49, 64
13, 261240, Note_on_c, 12, 49, 99
13, 261336, Note_off_c, 12, 49, 64
13, 261360, Note_on_c, 12, 49, 99
13, 261456, Note_off_c, 12, 49, 64
13, 261480, Note_on_c, 12, 49, 99
13, 261576, Note_off_c, 12, 49, 64
13, 261600, Note_on_c, 12, 49, 99
13, 261696, Note_off_c, 12, 49, 64
13, 261720, Note_on_c, 12, 49, 99
13, 261816, Note_off_c, 12, 49, 64
13, 261840, Note_on_c, 12, 49, 99
13, 261936, Note_off_c, 12, 49, 64
13, 261960, Note_on_c, 12, 49, 99
13, 262056, Note_off_c, 12, 49, 64
13, 262080, Note_on_c, 12, 42, 127
13, 262176, Note_off_c, 12, 42, 64
13, 262200, Note_on_c, 12, 42, 99
13, 262296, Note_off_c, 12, 42, 64
13, 262320, Note_on_c, 12, 42, 99
13, 262416, Note_off_c, 12, 42, 64
13, 262440, Note_on_c, 12, 42, 99
13, 262536, Note_off_c, 12, 42, 64
13, 262560, Note_on_c, 12, 42, 99
13, 262656, Note_off_c, 12, 42, 64
13, 262680, Note_on_c, 12, 42, 99
13, 262776, Note_off_c, 12, 42, 64
13, 262800, Note_on_c, 12, 42, 99
13, 262896, Note_off_c, 12, 42, 64
13, 262920, Note_on_c, 12, 42, 99
13, 263016, Note_off_c, 12, 42, 64
13, 263040, Note_on_c, 12, 44, 99
13, 263136, Note_off_c, 12, 44, 64
13, 263160, Note_on_c, 12, 44, 99
13, 263256, Note_off_c, 12, 44, 64
13, 263280, Note_on_c, 12, 44, 99
13, 263376, Note_off_c, 12, 44, 64
13, 263400, Note_on_c, 12, 44, 99
13, 263496, Note_off_c, 12, 44, 64
13, 263520, Note_on_c, 12, 44, 99
13, 263616, Note_off_c, 12, 44, 64
13, 263640, Note_on_c, 12, 44, 99
13, 263736, Note_off_c, 12, 44, 64
13, 263760, Note_on_c, 12, 44, 99
13, 263856, Note_off_c, 12, 44, 64
13, 263880, Note_on_c, 12, 44, 99
13, 263976, Note_off_c, 12, 44, 64
13, 264000, Note_on_c, 12, 44, 127
13, 264096, Note_off_c, 12, 44, 64
13, 264120, Note_on_c, 12, 44, 99
13, 264216, Note_off_c, 12, 44, 64
13, 264240, Note_on_c, 12, 44, 99
13, 264336, Note_off_c, 12, 44, 64
13, 264360, Note_on_c, 12, 44, 99
13, 264456, Note_off_c, 12, 44, 64
13, 264480, Note_on_c, 12, 44, 99
13, 264576, Note_off_c, 12, 44, 64
13, 264600, Note_on_c, 12, 44, 99
13, 264696, Note_off_c, 12, 44, 64
13, 264720, Note_on_c, 12, 44, 99
13, 264816, Note_off_c, 12, 44, 64
13, 264840, Note_on_c, 12, 44, 99
13, 264936, Note_off_c, 12, 44, 64
13, 264960, Note_on_c, 12, 49, 99
13, 265056, Note_off_c, 12, 49, 64
13, 265080, Note_on_c, 12, 49, 99
13, 265176, Note_off_c, 12, 49, 64
13, 265200, Note_on_c, 12, 49, 99
13, 265296, Note_off_c, 12, 49, 64
13, 265320, Note_on_c, 12, 49, 99
13, 265416, Note_off_c, 12, 49, 64
13, 265440, Note_on_c, 12, 49, 127
13, 265536, Note_off_c, 12, 49, 64
13, 265560, Note_on_c, 12, 49, 99
13, 265656, Note_off_c, 12, 49, 64
13, 265680, Note_on_c, 12, 49, 99
13, 265776, Note_off_c, 12, 49, 64
13, 265800, Note_on_c, 12, 49, 99
13, 265896, Note_off_c, 12, 49, 64
13, 265920, Note_on_c, 12, 49, 99
13, 266016, Note_off_c, 12, 49, 64
13, 266040, Note_on_c, 12, 49, 99
13, 266136, Note_off_c, 12, 49, 64
13, 266160, Note_on_c, 12, 49, 99
13, 266256, Note_off_c, 12, 49, 64
13, 266280, Note_on_c, 12, 49, 99
13, 266376, Note_off_c, 12, 49, 64
13, 266400, Note_on_c, 12, 49, 99
13, 266496, Note_off_c, 12, 49, 64
13, 266520, Note_on_c, 12, 49, 99
13, 266616, Note_off_c, 12, 49, 64
13, 266640, Note_on_c, 12, 49, 99
13, 266736, Note_off_c, 12, 49, 64
13, 266760, Note_on_c, 12, 49, 99
13, 266856, Note_off_c, 12, 49, 64
13, 266880, Note_on_c, 12, 49, 99
13, 266976, Note_off_c, 12, 49, 64
13, 267000, Note_on_c, 12, 49, 99
13, 267096, Note_off_c, 12, 49, 64
13, 267120, Note_on_c, 12, 49, 99
13, 267216, Note_off_c, 12, 49, 64
13, 267240, Note_on_c, 12, 49, 99
13, 267336, Note_off_c, 12, 49, 64
13, 267360, Note_on_c, 12, 49, 127
13, 267456, Note_off_c, 12, 49, 64
13, 267480, Note_on_c, 12, 49, 99
13, 267576, Note_off_c, 12, 49, 64
13, 267600, Note_on_c, 12, 49, 99
13, 267696, Note_off_c, 12, 49, 64
13, 267720, Note_on_c, 12, 49, 99
13, 267816, Note_off_c, 12, 49, 64
13, 267840, Note_on_c, 12, 49, 99
13, 267936, Note_off_c, 12, 49, 64
13, 267960, Note_on_c, 12, 49, 99
13, 268056, Note_off_c, 12, 49, 64
13, 268080, Note_on_c, 12, 49, 99
13, 268176, Note_off_c, 12, 49, 64
13, 268200, Note_on_c, 12, 49, 99
13, 268296, Note_off_c, 12, 49, 64
13, 268320, Note_on_c, 12, 49, 99
13, 268416, Note_off_c, 12, 49, 64
13, 268440, Note_on_c, 12, 49, 99
13, 268536, Note_off_c, 12, 49, 64
13, 268560, Note_on_c, 12, 49, 99
13, 268656, Note_off_c, 12, 49, 64
13, 268680, Note_on_c, 12, 49, 99
13, 268776, Note_off_c, 12, 49, 64
13, 268800, Note_on_c, 12, 49, 99
13, 268896, Note_off_c, 12, 49, 64
13, 268920, Note_on_c, 12, 49, 99
13, 269016, Note_off_c, 12, 49, 64
13, 269040, Note_on_c, 12, 49, 99
13, 269136, Note_off_c, 12, 49, 64
13, 269160, Note_on_c, 12, 49, 99
13, 269256, Note_off_c, 12, 49, 64
13, 269280, Note_on_c, 12, 49, 127
13, 269376, Note_off_c, 12, 49, 64
13, 269400, Note_on_c, 12, 49, 99
13, 269496, Note_off_c, 12, 49, 64
13, 269520, Note_on_c, 12, 49, 99
13, 269616, Note_off_c, 12, 49, 64
13, 269640, Note_on_c, 12, 49, 99
13, 269736, Note_off_c, 12, 49, 64
13, 269760, Note_on_c, 12, 49, 99
13, 269856, Note_off_c, 12, 49, 64
13, 269880, Note_on_c, 12, 49, 99
13, 269976, Note_off_c, 12, 49, 64
13, 270000, Note_on_c, 12, 49, 99
13, 270096, Note_off_c, 12, 49, 64
13, 270120, Note_on_c, 12, 49, 99
13, 270216, Note_off_c, 12, 49, 64
13, 270240, Note_on_c, 12, 49, 127
13, 270336, Note_off_c, 12, 49, 64
13, 270360, Note_on_c, 12, 49, 99
13, 270456, Note_off_c, 12, 49, 64
13, 270480, Note_on_c, 12, 49, 99
13, 270576, Note_off_c, 12, 49, 64
13, 270600, Note_on_c, 12, 49, 99
13, 270696, Note_off_c, 12, 49, 64
13, 270720, Note_on_c, 12, 49, 99
13, 270816, Note_off_c, 12, 49, 64
13, 270840, Note_on_c, 12, 49, 99
13, 270936, Note_off_c, 12, 49, 64
13, 270960, Note_on_c, 12, 49, 99
13, 271056, Note_off_c, 12, 49, 64
13, 271080, Note_on_c, 12, 49, 99
13, 271176, Note_off_c, 12, 49, 64
13, 271200, Note_on_c, 12, 49, 127
13, 271296, Note_off_c, 12, 49, 64
13, 271320, Note_on_c, 12, 49, 99
13, 271416, Note_off_c, 12, 49, 64
13, 271440, Note_on_c, 12, 49, 99
13, 271536, Note_off_c, 12, 49, 64
13, 271560, Note_on_c, 12, 49, 99
13, 271656, Note_off_c, 12, 49, 64
13, 271680, Note_on_c, 12, 49, 99
13, 271776, Note_off_c, 12, 49, 64
13, 271800, Note_on_c, 12, 49, 99
13, 271896, Note_off_c, 12, 49, 64
13, 271920, Note_on_c, 12, 49, 99
13, 272016, Note_off_c, 12, 49, 64
13, 272040, Note_on_c, 12, 49, 99
13, 272136, Note_off_c, 12, 49, 64
13, 272160, Note_on_c, 12, 49, 99
13, 272256, Note_off_c, 12, 49, 64
13, 272280, Note_on_c, 12, 49, 99
13, 272376, Note_off_c, 12, 49, 64
13, 272400, Note_on_c, 12, 49, 99
13, 272496, Note_off_c, 12, 49, 64
13, 272520, Note_on_c, 12, 49, 99
13, 272616, Note_off_c, 12, 49, 64
13, 272640, Note_on_c, 12, 49, 127
13, 272784, Note_off_c, 12, 49, 64
13, 275040, Note_on_c, 12, 48, 127
13, 275184, Note_off_c, 12, 48, 64
13, 277440, Note_on_c, 12, 36, 127
13, 277560, Note_off_c, 12, 36, 64
13, 277920, Note_on_c, 12, 36, 127
13, 278520, Note_off_c, 12, 36, 64
13, 278880, Note_on_c, 12, 36, 127
13, 279480, Note_off_c, 12, 36, 64
13, 279840, Note_on_c, 12, 36, 127
13, 280080, Note_off_c, 12, 36, 64
13, 280320, Note_on_c, 12, 41, 127
13, 280440, Note_off_c, 12, 41, 64
13, 282240, Note_on_c, 12, 44, 127
13, 282600, Note_off_c, 12, 44, 64
13, 282600, Note_on_c, 12, 52, 127
13, 282696, Note_off_c, 12, 52, 64
13, 282720, Note_on_c, 12, 52, 127
13, 284112, Note_off_c, 12, 52, 64
13, 284160, Note_on_c, 12, 40, 127
13, 284280, Note_off_c, 12, 40, 64
13, 284640, Note_on_c, 12, 40, 127
13, 285240, Note_off_c, 12, 40, 64
13, 285600, Note_on_c, 12, 40, 127
13, 286200, Note_off_c, 12, 40, 64
13, 286560, Note_on_c, 12, 40, 127
13, 286800, Note_off_c, 12, 40, 64
13, 287040, Note_on_c, 12, 45, 127
13, 287160, Note_off_c, 12, 45, 64
13, 288960, Note_on_c, 12, 39, 127
13, 289320, Note_off_c, 12, 39, 64
13, 289320, Note_on_c, 12, 47, 127
13, 289416, Note_off_c, 12, 47, 64
13, 289440, Note_on_c, 12, 47, 127
13, 290832, Note_off_c, 12, 47, 64
13, 290880, Note_on_c, 12, 38, 127
13, 291000, Note_off_c, 12, 38, 64
13, 292800, Note_on_c, 12, 37, 127
13, 293160, Note_off_c, 12, 37, 64
13, 293160, Note_on_c, 12, 45, 127
13, 293256, Note_off_c, 12, 45, 64
13, 293280, Note_on_c, 12, 45, 127
13, 294672, Note_off_c, 12, 45, 64
13, 294720, Note_on_c, 12, 36, 127
13, 294840, Note_off_c, 12, 36, 64
13, 295680, Note_on_c, 12, 36, 127
13, 296040, Note_off_c, 12, 36, 64
13, 296040, Note_on_c, 12, 44, 127
13, 296136, Note_off_c, 12, 44, 64
13, 296160, Note_on_c, 12, 44, 127
13, 296640, Note_off_c, 12, 44, 64
13, 296640, Note_on_c, 12, 43, 127
13, 296760, Note_off_c, 12, 43, 64
13, 297120, Note_on_c, 12, 43, 127
13, 297720, Note_off_c, 12, 43, 64
13, 298080, Note_on_c, 12, 43, 127
13, 298680, Note_off_c, 12, 43, 64
13, 299040, Note_on_c, 12, 43, 127
13, 299640, Note_off_c, 12, 43, 64
13, 300000, Note_on_c, 12, 43, 127
13, 300600, Note_off_c, 12, 43, 64
13, 300960, Note_on_c, 12, 43, 127
13, 301560, Note_off_c, 12, 43, 64
13, 301920, Note_on_c, 12, 43, 127
13, 302520, Note_off_c, 12, 43, 64
13, 302880, Note_on_c, 12, 43, 127
13, 303360, Note_off_c, 12, 43, 64
13, 303360, Note_on_c, 12, 48, 127
13, 303480, Note_off_c, 12, 48, 64
13, 304320, Note_on_c, 12, 43, 80
13, 304512, Note_off_c, 12, 43, 64
13, 304800, Note_on_c, 12, 43, 127
13, 305280, Note_off_c, 12, 43, 64
13, 305760, Note_on_c, 12, 43, 127
13, 306360, Note_off_c, 12, 43, 64
13, 306720, Note_on_c, 12, 43, 127
13, 307320, Note_off_c, 12, 43, 64
13, 307680, Note_on_c, 12, 43, 127
13, 308280, Note_off_c, 12, 43, 64
13, 308640, Note_on_c, 12, 43, 127
13, 309240, Note_off_c, 12, 43, 64
13, 309600, Note_on_c, 12, 43, 127
13, 310200, Note_off_c, 12, 43, 64
13, 310560, Note_on_c, 12, 43, 127
13, 311040, Note_off_c, 12, 43, 64
13, 311040, Note_on_c, 12, 48, 127
13, 311160, Note_off_c, 12, 48, 64
13, 312000, Note_on_c, 12, 41, 127
13, 312120, Note_off_c, 12, 41, 64
13, 312480, Note_on_c, 12, 41, 127
13, 312960, Note_off_c, 12, 41, 64
13, 312960, Note_on_c, 12, 40, 108
13, 313080, Note_off_c, 12, 40, 64
13, 313440, Note_on_c, 12, 40, 127
13, 313920, Note_off_c, 12, 40, 64
13, 313920, Note_on_c, 12, 41, 108
13, 314040, Note_off_c, 12, 41, 64
13, 314400, Note_on_c, 12, 41, 127
13, 314880, Note_off_c, 12, 41, 64
13, 314880, Note_on_c, 12, 40, 108
13, 315000, Note_off_c, 12, 40, 64
13, 315360, Note_on_c, 12, 45, 127
13, 315840, Note_off_c, 12, 45, 64
13, 315840, Note_on_c, 12, 50, 108
13, 315960, Note_off_c, 12, 50, 64
13, 316320, Note_on_c, 12, 43, 127
13, 316800, Note_off_c, 12, 43, 64
13, 316800, Note_on_c, 12, 48, 108
13, 316920, Note_off_c, 12, 48, 64
13, 317280, Note_on_c, 12, 40, 127
13, 317760, Note_off_c, 12, 40, 64
13, 317760, Note_on_c, 12, 43, 108
13, 317880, Note_off_c, 12, 43, 64
13, 318240, Note_on_c, 12, 43, 127
13, 318720, Note_off_c, 12, 43, 64
13, 318720, Note_on_c, 12, 48, 127
13, 318840, Note_off_c, 12, 48, 64
13, 319680, Note_on_c, 12, 41, 127
13, 319800, Note_off_c, 12, 41, 64
13, 320160, Note_on_c, 12, 41, 127
13, 320640, Note_off_c, 12, 41, 64
13, 320640, Note_on_c, 12, 40, 108
13, 320760, Note_off_c, 12, 40, 64
13, 321120, Note_on_c, 12, 40, 127
13, 321600, Note_off_c, 12, 40, 64
13, 321600, Note_on_c, 12, 41, 108
13, 321720, Note_off_c, 12, 41, 64
13, 322080, Note_on_c, 12, 41, 127
13, 322560, Note_off_c, 12, 41, 64
13, 322560, Note_on_c, 12, 40, 108
13, 322680, Note_off_c, 12, 40, 64
13, 323040, Note_on_c, 12, 45, 127
13, 323520, Note_off_c, 12, 45, 64
13, 323520, Note_on_c, 12, 50, 108
13, 323640, Note_off_c, 12, 50, 64
13, 324000, Note_on_c, 12, 43, 127
13, 324480, Note_off_c, 12, 43, 64
13, 324480, Note_on_c, 12, 48, 108
13, 324600, Note_off_c, 12, 48, 64
13, 324960, Note_on_c, 12, 40, 127
13, 325440, Note_off_c, 12, 40, 64
13, 325440, Note_on_c, 12, 43, 108
13, 325560, Note_off_c, 12, 43, 64
13, 325920, Note_on_c, 12, 43, 127
13, 326400, Note_off_c, 12, 43, 64
13, 326400, Note_on_c, 12, 48, 127
13, 326520, Note_off_c, 12, 48, 64
13, 327120, Note_on_c, 12, 61, 127
13, 327312, Note_off_c, 12, 61, 64
13, 327360, Note_on_c, 12, 62, 80
13, 327744, Note_off_c, 12, 62, 64
13, 328080, Note_on_c, 12, 59, 127
13, 328272, Note_off_c, 12, 59, 64
13, 328320, Note_on_c, 12, 60, 80
13, 328704, Note_off_c, 12, 60, 64
13, 329040, Note_on_c, 12, 57, 127
13, 329232, Note_off_c, 12, 57, 64
13, 329280, Note_on_c, 12, 55, 80
13, 329664, Note_off_c, 12, 55, 64
13, 330000, Note_on_c, 12, 55, 127
13, 330192, Note_off_c, 12, 55, 64
13, 330240, Note_on_c, 12, 48, 80
13, 330624, Note_off_c, 12, 48, 64
13, 330960, Note_on_c, 12, 58, 80
13, 331152, Note_off_c, 12, 58, 64
13, 331200, Note_on_c, 12, 57, 80
13, 331584, Note_off_c, 12, 57, 64
13, 331920, Note_on_c, 12, 62, 80
13, 332112, Note_off_c, 12, 62, 64
13, 332160, Note_on_c, 12, 58, 80
13, 332544, Note_off_c, 12, 58, 64
13, 332880, Note_on_c, 12, 58, 80
13, 333072, Note_off_c, 12, 58, 64
13, 333120, Note_on_c, 12, 60, 80
13, 333504, Note_off_c, 12, 60, 64
13, 333840, Note_on_c, 12, 60, 127
13, 334032, Note_off_c, 12, 60, 64
13, 334080, Note_on_c, 12, 53, 80
13, 334464, Note_off_c, 12, 53, 64
13, 334800, Note_on_c, 12, 65, 127
13, 334992, Note_off_c, 12, 65, 64
13, 335040, Note_on_c, 12, 62, 80
13, 335424, Note_off_c, 12, 62, 64
13, 335760, Note_on_c, 12, 62, 127
13, 335952, Note_off_c, 12, 62, 64
13, 336000, Note_on_c, 12, 55, 80
13, 336384, Note_off_c, 12, 55, 64
13, 336720, Note_on_c, 12, 55, 127
13, 336912, Note_off_c, 12, 55, 64
13, 336960, Note_on_c, 12, 57, 80
13, 337344, Note_off_c, 12, 57, 64
13, 337680, Note_on_c, 12, 57, 127
13, 337872, Note_off_c, 12, 57, 64
13, 337920, Note_on_c, 12, 50, 60
13, 338146, Note_off_c, 12, 50, 64
13, 338400, Note_on_c, 12, 62, 104
13, 338850, Note_off_c, 12, 62, 64
13, 338880, Note_on_c, 12, 65, 98
13, 339106, Note_off_c, 12, 65, 64
13, 339360, Note_on_c, 12, 57, 92
13, 339810, Note_off_c, 12, 57, 64
13, 339840, Note_on_c, 12, 62, 90
13, 340066, Note_off_c, 12, 62, 64
13, 340320, Note_on_c, 12, 53, 84
13, 340770, Note_off_c, 12, 53, 64
13, 340800, Note_on_c, 12, 57, 78
13, 341026, Note_off_c, 12, 57, 64
13, 341280, Note_on_c, 12, 50, 73
13, 341730, Note_off_c, 12, 50, 64
13, 341760, Note_on_c, 12, 53, 67
13, 341986, Note_off_c, 12, 53, 64
13, 342240, Note_on_c, 12, 45, 62
13, 342690, Note_off_c, 12, 45, 64
13, 342720, Note_on_c, 12, 50, 56
13, 342946, Note_off_c, 12, 50, 64
13, 343200, Note_on_c, 12, 41, 41
13, 343650, Note_off_c, 12, 41, 64
13, 343680, Note_on_c, 12, 45, 36
13, 343906, Note_off_c, 12, 45, 64
13, 344160, Note_on_c, 12, 41, 32
13, 344610, Note_off_c, 12, 41, 64
13, 344640, Note_on_c, 12, 45, 60
13, 344866, Note_off_c, 12, 45, 64
13, 345120, Note_on_c, 12, 42, 60
13, 345570, Note_off_c, 12, 42, 64
13, 345600, Note_on_c, 12, 45, 60
13, 345826, Note_off_c, 12, 45, 64
13, 346080, Note_on_c, 12, 42, 60
13, 346530, Note_off_c, 12, 42, 64
13, 346560, Note_on_c, 12, 46, 60
13, 346786, Note_off_c, 12, 46, 64
13, 347040, Note_on_c, 12, 43, 60
13, 347490, Note_off_c, 12, 43, 64
13, 347520, Note_on_c, 12, 46, 60
13, 347746, Note_off_c, 12, 46, 64
13, 348000, Note_on_c, 12, 43, 60
13, 348450, Note_off_c, 12, 43, 64
13, 348480, Note_on_c, 12, 47, 60
13, 348706, Note_off_c, 12, 47, 64
13, 348960, Note_on_c, 12, 44, 127
13, 349410, Note_off_c, 12, 44, 64
13, 349440, Note_on_c, 12, 47, 72
13, 349666, Note_off_c, 12, 47, 64
13, 349920, Note_on_c, 12, 44, 72
13, 350370, Note_off_c, 12, 44, 64
13, 350400, Note_on_c, 12, 48, 72
13, 350626, Note_off_c, 12, 48, 64
13, 350880, Note_on_c, 12, 45, 127
13, 351330, Note_off_c, 12, 45, 64
13, 351360, Note_on_c, 12, 49, 72
13, 351586, Note_off_c, 12, 49, 64
13, 351840, Note_on_c, 12, 46, 72
13, 352290, Note_off_c, 12, 46, 64
13, 352320, Note_on_c, 12, 50, 60
13, 352546, Note_off_c, 12, 50, 64
13, 352800, Note_on_c, 12, 47, 60
13, 353250, Note_off_c, 12, 47, 64
13, 353280, Note_on_c, 12, 51, 60
13, 353506, Note_off_c, 12, 51, 64
13, 353760, Note_on_c, 12, 48, 60
13, 354210, Note_off_c, 12, 48, 64
13, 354240, Note_on_c, 12, 52, 50
13, 354466, Note_off_c, 12, 52, 64
13, 354720, Note_on_c, 12, 49, 50
13, 355170, Note_off_c, 12, 49, 64
13, 355200, Note_on_c, 12, 52, 50
13, 355426, Note_off_c, 12, 52, 64
13, 355680, Note_on_c, 12, 50, 50
13, 356130, Note_off_c, 12, 50, 64
13, 356160, Note_on_c, 12, 52, 50
13, 356386, Note_off_c, 12, 52, 64
13, 356640, Note_on_c, 12, 51, 50
13, 357090, Note_off_c, 12, 51, 64
13, 357120, Note_on_c, 12, 52, 50
13, 357346, Note_off_c, 12, 52, 64
13, 357600, Note_on_c, 12, 51, 50
13, 358050, Note_off_c, 12, 51, 64
13, 358080, Note_on_c, 12, 52, 50
13, 358306, Note_off_c, 12, 52, 64
13, 358560, Note_on_c, 12, 51, 50
13, 359010, Note_off_c, 12, 51, 64
13, 359040, Note_on_c, 12, 52, 50
13, 359266, Note_off_c, 12, 52, 64
13, 359520, Note_on_c, 12, 51, 50
13, 359970, Note_off_c, 12, 51, 64
13, 360000, Note_on_c, 12, 52, 50
13, 360226, Note_off_c, 12, 52, 64
13, 360480, Note_on_c, 12, 51, 50
13, 360930, Note_off_c, 12, 51, 64
13, 360960, Note_on_c, 12, 52, 50
13, 361186, Note_off_c, 12, 52, 64
13, 361440, Note_on_c, 12, 52, 50
13, 361920, Note_off_c, 12, 52, 64
13, 361920, Note_on_c, 12, 53, 40
13, 361980, Note_off_c, 12, 53, 64
13, 362160, Note_on_c, 12, 53, 40
13, 362220, Note_off_c, 12, 53, 64
13, 362280, Note_on_c, 12, 53, 40
13, 362340, Note_off_c, 12, 53, 64
13, 362400, Note_on_c, 12, 53, 40
13, 362520, Note_off_c, 12, 53, 64
13, 363840, Note_on_c, 12, 53, 40
13, 363900, Note_off_c, 12, 53, 64
13, 364080, Note_on_c, 12, 53, 40
13, 364140, Note_off_c, 12, 53, 64
13, 364200, Note_on_c, 12, 53, 40
13, 364260, Note_off_c, 12, 53, 64
13, 364320, Note_on_c, 12, 53, 40
13, 364440, Note_off_c, 12, 53, 64
13, 371520, Note_on_c, 12, 50, 48
13, 371880, Note_off_c, 12, 50, 64
13, 371880, Note_on_c, 12, 58, 48
13, 371976, Note_off_c, 12, 58, 64
13, 372000, Note_on_c, 12, 50, 48
13, 372360, Note_off_c, 12, 50, 64
13, 372360, Note_on_c, 12, 58, 48
13, 372456, Note_off_c, 12, 58, 64
13, 372480, Note_on_c, 12, 53, 40
13, 372540, Note_off_c, 12, 53, 64
13, 372720, Note_on_c, 12, 53, 40
13, 372780, Note_off_c, 12, 53, 64
13, 372840, Note_on_c, 12, 53, 40
13, 372900, Note_off_c, 12, 53, 64
13, 372960, Note_on_c, 12, 53, 40
13, 373080, Note_off_c, 12, 53, 64
13, 374400, Note_on_c, 12, 53, 40
13, 374460, Note_off_c, 12, 53, 64
13, 374640, Note_on_c, 12, 53, 40
13, 374700, Note_off_c, 12, 53, 64
13, 374760, Note_on_c, 12, 53, 40
13, 374820, Note_off_c, 12, 53, 64
13, 374880, Note_on_c, 12, 53, 40
13, 375000, Note_off_c, 12, 53, 64
13, 382080, Note_on_c, 12, 50, 81
13, 382440, Note_off_c, 12, 50, 64
13, 382440, Note_on_c, 12, 59, 81
13, 382536, Note_off_c, 12, 59, 64
13, 382560, Note_on_c, 12, 50, 105
13, 382920, Note_off_c, 12, 50, 64
13, 382920, Note_on_c, 12, 59, 105
13, 383016, Note_off_c, 12, 59, 64
13, 383040, Note_on_c, 12, 40, 127
13, 383208, Note_off_c, 12, 40, 64
13, 385440, Note_on_c, 12, 40, 127
13, 385608, Note_off_c, 12, 40, 64
13, 387840, Note_on_c, 12, 40, 127
13, 387960, Note_off_c, 12, 40, 64
13, 388320, Note_on_c, 12, 40, 127
13, 388920, Note_off_c, 12, 40, 64
13, 389280, Note_on_c, 12, 40, 127
13, 389880, Note_off_c, 12, 40, 64
13, 390240, Note_on_c, 12, 40, 127
13, 390840, Note_off_c, 12, 40, 64
13, 391200, Note_on_c, 12, 40, 127
13, 391800, Note_off_c, 12, 40, 64
13, 392160, Note_on_c, 12, 40, 127
13, 392760, Note_off_c, 12, 40, 64
13, 393120, Note_on_c, 12, 40, 127
13, 393720, Note_off_c, 12, 40, 64
13, 394080, Note_on_c, 12, 40, 127
13, 394560, Note_off_c, 12, 40, 64
13, 394560, Note_on_c, 12, 45, 127
13, 394680, Note_off_c, 12, 45, 64
13, 395520, Note_on_c, 12, 40, 127
13, 395640, Note_off_c, 12, 40, 64
13, 396000, Note_on_c, 12, 40, 127
13, 396600, Note_off_c, 12, 40, 64
13, 396960, Note_on_c, 12, 40, 127
13, 397560, Note_off_c, 12, 40, 64
13, 397920, Note_on_c, 12, 40, 127
13, 398520, Note_off_c, 12, 40, 64
13, 398880, Note_on_c, 12, 40, 127
13, 399480, Note_off_c, 12, 40, 64
13, 399840, Note_on_c, 12, 40, 127
13, 400440, Note_off_c, 12, 40, 64
13, 400800, Note_on_c, 12, 40, 127
13, 401400, Note_off_c, 12, 40, 64
13, 401760, Note_on_c, 12, 40, 127
13, 402240, Note_off_c, 12, 40, 64
13, 402240, Note_on_c, 12, 45, 127
13, 402360, Note_off_c, 12, 45, 64
13, 403320, Note_on_c, 12, 45, 127
13, 403440, Note_off_c, 12, 45, 64
13, 404400, Note_on_c, 12, 40, 127
13, 404520, Note_off_c, 12, 40, 64
13, 405480, Note_on_c, 12, 40, 127
13, 405600, Note_off_c, 12, 40, 64
13, 406560, Note_on_c, 12, 45, 127
13, 406680, Note_off_c, 12, 45, 64
13, 407040, Note_on_c, 12, 45, 127
13, 407160, Note_off_c, 12, 45, 64
13, 407520, Note_on_c, 12, 45, 127
13, 407640, Note_off_c, 12, 45, 64
13, 408000, Note_on_c, 12, 45, 127
13, 408120, Note_off_c, 12, 45, 64
13, 408480, Note_on_c, 12, 40, 127
13, 408600, Note_off_c, 12, 40, 64
13, 408960, Note_on_c, 12, 40, 127
13, 409080, Note_off_c, 12, 40, 64
13, 409440, Note_on_c, 12, 40, 127
13, 409560, Note_off_c, 12, 40, 64
13, 409920, Note_on_c, 12, 40, 127
13, 410040, Note_off_c, 12, 40, 64
13, 410400, Note_on_c, 12, 45, 127
13, 410520, Note_off_c, 12, 45, 64
13, 411480, Note_on_c, 12, 45, 127
13, 411600, Note_off_c, 12, 45, 64
13, 412560, Note_on_c, 12, 40, 127
13, 412680, Note_off_c, 12, 40, 64
13, 413640, Note_on_c, 12, 40, 127
13, 413760, Note_off_c, 12, 40, 64
13, 414720, Note_on_c, 12, 45, 100
13, 414840, Note_off_c, 12, 45, 64
13, 414960, Note_on_c, 12, 45, 100
13, 415080, Note_off_c, 12, 45, 64
13, 415200, Note_on_c, 12, 45, 100
13, 415320, Note_off_c, 12, 45, 64
13, 415440, Note_on_c, 12, 45, 100
13, 415560, Note_off_c, 12, 45, 64
13, 415680, Note_on_c, 12, 45, 100
13, 415800, Note_off_c, 12, 45, 64
13, 415920, Note_on_c, 12, 45, 100
13, 416040, Note_off_c, 12, 45, 64
13, 416160, Note_on_c, 12, 45, 100
13, 416280, Note_off_c, 12, 45, 64
13, 416400, Note_on_c, 12, 45, 100
13, 416520, Note_off_c, 12, 45, 64
13, 416640, Note_on_c, 12, 40, 100
13, 416760, Note_off_c, 12, 40, 64
13, 416880, Note_on_c, 12, 40, 100
13, 417000, Note_off_c, 12, 40, 64
13, 417120, Note_on_c, 12, 40, 100
13, 417240, Note_off_c, 12, 40, 64
13, 417360, Note_on_c, 12, 40, 100
13, 417480, Note_off_c, 12, 40, 64
13, 417600, Note_on_c, 12, 40, 100
13, 417720, Note_off_c, 12, 40, 64
13, 417840, Note_on_c, 12, 40, 100
13, 417960, Note_off_c, 12, 40, 64
13, 418080, Note_on_c, 12, 40, 100
13, 418200, Note_off_c, 12, 40, 64
13, 418320, Note_on_c, 12, 40, 100
13, 418440, Note_off_c, 12, 40, 64
13, 418560, Note_on_c, 12, 45, 80
13, 418752, Note_off_c, 12, 45, 64
13, 420000, Note_on_c, 12, 64, 80
13, 420480, Note_off_c, 12, 64, 64
13, 420480, Note_on_c, 12, 57, 80
13, 420960, Note_off_c, 12, 57, 64
13, 420960, Note_on_c, 12, 52, 80
13, 421440, Note_off_c, 12, 52, 64
13, 421440, Note_on_c, 12, 45, 80
13, 421920, Note_off_c, 12, 45, 64
13, 421920, Note_on_c, 12, 40, 80
13, 422400, Note_off_c, 12, 40, 64
13, 422400, Note_on_c, 12, 45, 80
13, 422640, Note_off_c, 12, 45, 64
13, 423840, Note_on_c, 12, 64, 80
13, 424320, Note_off_c, 12, 64, 64
13, 424320, Note_on_c, 12, 57, 80
13, 424800, Note_off_c, 12, 57, 64
13, 424800, Note_on_c, 12, 45, 80
13, 425280, Note_off_c, 12, 45, 64
13, 425280, Note_on_c, 12, 57, 80
13, 425760, Note_off_c, 12, 57, 64
13, 425760, Note_on_c, 12, 45, 80
13, 426240, Note_off_c, 12, 45, 64
13, 426240, Note_on_c, 12, 50, 80
13, 426480, Note_off_c, 12, 50, 64
13, 427680, Note_on_c, 12, 57, 80
13, 428160, Note_off_c, 12, 57, 64
13, 428160, Note_on_c, 12, 57, 80
13, 428640, Note_off_c, 12, 57, 64
13, 429120, Note_on_c, 12, 50, 80
13, 429600, Note_off_c, 12, 50, 64
13, 429600, Note_on_c, 12, 45, 80
13, 430080, Note_off_c, 12, 45, 64
13, 430080, Note_on_c, 12, 38, 80
13, 430320, Note_off_c, 12, 38, 64
13, 431520, Note_on_c, 12, 57, 80
13, 432000, Note_off_c, 12, 57, 64
13, 432000, Note_on_c, 12, 62, 80
13, 432480, Note_off_c, 12, 62, 64
13, 432480, Note_on_c, 12, 57, 80
13, 432960, Note_off_c, 12, 57, 64
13, 432960, Note_on_c, 12, 50, 80
13, 433440, Note_off_c, 12, 50, 64
13, 433440, Note_on_c, 12, 45, 80
13, 433920, Note_off_c, 12, 45, 64
13, 433920, Note_on_c, 12, 38, 110
13, 434034, Note_off_c, 12, 38, 64
13, 434280, Note_on_c, 12, 50, 80
13, 434394, Note_off_c, 12, 50, 64
13, 434400, Note_on_c, 12, 50, 80
13, 434514, Note_off_c, 12, 50, 64
13, 434760, Note_on_c, 12, 50, 80
13, 434874, Note_off_c, 12, 50, 64
13, 434880, Note_on_c, 12, 50, 80
13, 434994, Note_off_c, 12, 50, 64
13, 435240, Note_on_c, 12, 50, 80
13, 435354, Note_off_c, 12, 50, 64
13, 435360, Note_on_c, 12, 50, 80
13, 435474, Note_off_c, 12, 50, 64
13, 435720, Note_on_c, 12, 50, 80
13, 435834, Note_off_c, 12, 50, 64
13, 435840, Note_on_c, 12, 49, 80
13, 435954, Note_off_c, 12, 49, 64
13, 436200, Note_on_c, 12, 49, 80
13, 436314, Note_off_c, 12, 49, 64
13, 436320, Note_on_c, 12, 49, 80
13, 436434, Note_off_c, 12, 49, 64
13, 436680, Note_on_c, 12, 49, 80
13, 436794, Note_off_c, 12, 49, 64
13, 436800, Note_on_c, 12, 49, 80
13, 436914, Note_off_c, 12, 49, 64
13, 437160, Note_on_c, 12, 49, 80
13, 437274, Note_off_c, 12, 49, 64
13, 437280, Note_on_c, 12, 49, 80
13, 437394, Note_off_c, 12, 49, 64
13, 437640, Note_on_c, 12, 49, 80
13, 437754, Note_off_c, 12, 49, 64
13, 437760, Note_on_c, 12, 50, 110
13, 437874, Note_off_c, 12, 50, 64
13, 438120, Note_on_c, 12, 50, 80
13, 438234, Note_off_c, 12, 50, 64
13, 438240, Note_on_c, 12, 50, 80
13, 438354, Note_off_c, 12, 50, 64
13, 438600, Note_on_c, 12, 50, 80
13, 438714, Note_off_c, 12, 50, 64
13, 438720, Note_on_c, 12, 48, 110
13, 438834, Note_off_c, 12, 48, 64
13, 439080, Note_on_c, 12, 48, 80
13, 439194, Note_off_c, 12, 48, 64
13, 439200, Note_on_c, 12, 48, 80
13, 439314, Note_off_c, 12, 48, 64
13, 439560, Note_on_c, 12, 48, 80
13, 439674, Note_off_c, 12, 48, 64
13, 439680, Note_on_c, 12, 47, 110
13, 439794, Note_off_c, 12, 47, 64
13, 440040, Note_on_c, 12, 47, 80
13, 440154, Note_off_c, 12, 47, 64
13, 440160, Note_on_c, 12, 47, 80
13, 440274, Note_off_c, 12, 47, 64
13, 440520, Note_on_c, 12, 47, 80
13, 440634, Note_off_c, 12, 47, 64
13, 440640, Note_on_c, 12, 45, 110
13, 440754, Note_off_c, 12, 45, 64
13, 441000, Note_on_c, 12, 45, 80
13, 441114, Note_off_c, 12, 45, 64
13, 441120, Note_on_c, 12, 45, 80
13, 441234, Note_off_c, 12, 45, 64
13, 441480, Note_on_c, 12, 45, 80
13, 441594, Note_off_c, 12, 45, 64
13, 441600, Note_on_c, 12, 44, 110
13, 441714, Note_off_c, 12, 44, 64
13, 441960, Note_on_c, 12, 41, 80
13, 442074, Note_off_c, 12, 41, 64
13, 442080, Note_on_c, 12, 41, 80
13, 442194, Note_off_c, 12, 41, 64
13, 442440, Note_on_c, 12, 41, 80
13, 442554, Note_off_c, 12, 41, 64
13, 442560, Note_on_c, 12, 41, 80
13, 442674, Note_off_c, 12, 41, 64
13, 442920, Note_on_c, 12, 41, 80
13, 443034, Note_off_c, 12, 41, 64
13, 443040, Note_on_c, 12, 41, 80
13, 443154, Note_off_c, 12, 41, 64
13, 443400, Note_on_c, 12, 41, 80
13, 443514, Note_off_c, 12, 41, 64
13, 443520, Note_on_c, 12, 40, 127
13, 443634, Note_off_c, 12, 40, 64
13, 444000, Note_on_c, 12, 40, 127
13, 444114, Note_off_c, 12, 40, 64
13, 447840, Note_on_c, 12, 40, 127
13, 447954, Note_off_c, 12, 40, 64
13, 455040, Note_on_c, 12, 45, 64
13, 455112, Note_off_c, 12, 45, 64
13, 455400, Note_on_c, 12, 57, 64
13, 455520, Note_off_c, 12, 57, 64
13, 455520, Note_on_c, 12, 57, 96
13, 455970, Note_off_c, 12, 57, 64
13, 456000, Note_on_c, 12, 40, 77
13, 456072, Note_off_c, 12, 40, 64
13, 456360, Note_on_c, 12, 52, 64
13, 456480, Note_off_c, 12, 52, 64
13, 456480, Note_on_c, 12, 52, 96
13, 456930, Note_off_c, 12, 52, 64
13, 456960, Note_on_c, 12, 45, 77
13, 457032, Note_off_c, 12, 45, 64
13, 457320, Note_on_c, 12, 57, 64
13, 457440, Note_off_c, 12, 57, 64
13, 457440, Note_on_c, 12, 57, 96
13, 457890, Note_off_c, 12, 57, 64
13, 457920, Note_on_c, 12, 40, 77
13, 457992, Note_off_c, 12, 40, 64
13, 458280, Note_on_c, 12, 52, 64
13, 458400, Note_off_c, 12, 52, 64
13, 458400, Note_on_c, 12, 52, 96
13, 458850, Note_off_c, 12, 52, 64
13, 458880, Note_on_c, 12, 57, 38
13, 459360, Note_off_c, 12, 57, 64
13, 459360, Note_on_c, 12, 45, 48
13, 459744, Note_off_c, 12, 45, 64
13, 459840, Note_on_c, 12, 44, 46
13, 460800, Note_off_c, 12, 44, 64
13, 460800, Note_on_c, 12, 49, 46
13, 461760, Note_off_c, 12, 49, 64
13, 461760, Note_on_c, 12, 44, 46
13, 462720, Note_off_c, 12, 44, 64
13, 462720, Note_on_c, 12, 49, 46
13, 463680, Note_off_c, 12, 49, 64
13, 463680, Note_on_c, 12, 52, 64
13, 463800, Note_off_c, 12, 52, 64
13, 465120, Note_on_c, 12, 57, 96
13, 465570, Note_off_c, 12, 57, 64
13, 466080, Note_on_c, 12, 52, 96
13, 466530, Note_off_c, 12, 52, 64
13, 467040, Note_on_c, 12, 57, 96
13, 467490, Note_off_c, 12, 57, 64
13, 468000, Note_on_c, 12, 52, 96
13, 468450, Note_off_c, 12, 52, 64
13, 468480, Note_on_c, 12, 57, 38
13, 468960, Note_off_c, 12, 57, 64
13, 468960, Note_on_c, 12, 45, 48
13, 469344, Note_off_c, 12, 45, 64
13, 469440, Note_on_c, 12, 44, 46
13, 470400, Note_off_c, 12, 44, 64
13, 470400, Note_on_c, 12, 49, 46
13, 471360, Note_off_c, 12, 49, 64
13, 471360, Note_on_c, 12, 52, 38
13, 471586, Note_off_c, 12, 52, 64
13, 472320, Note_on_c, 12, 57, 38
13, 472546, Note_off_c, 12, 57, 64
13, 473280, Note_on_c, 12, 52, 38
13, 473506, Note_off_c, 12, 52, 64
13, 474240, Note_on_c, 12, 57, 38
13, 474466, Note_off_c, 12, 57, 64
13, 475200, Note_on_c, 12, 52, 38
13, 475426, Note_off_c, 12, 52, 64
13, 476160, Note_on_c, 12, 52, 38
13, 476386, Note_off_c, 12, 52, 64
13, 478440, Note_on_c, 12, 50, 64
13, 478560, Note_off_c, 12, 50, 64
13, 478560, Note_on_c, 12, 47, 64
13, 478656, Note_off_c, 12, 47, 64
13, 478920, Note_on_c, 12, 44, 64
13, 479040, Note_off_c, 12, 44, 64
13, 479040, Note_on_c, 12, 47, 64
13, 479136, Note_off_c, 12, 47, 64
13, 479400, Note_on_c, 12, 50, 64
13, 479520, Note_off_c, 12, 50, 64
13, 479520, Note_on_c, 12, 52, 64
13, 479616, Note_off_c, 12, 52, 64
13, 479880, Note_on_c, 12, 56, 64
13, 480000, Note_off_c, 12, 56, 64
13, 480000, Note_on_c, 12, 59, 64
13, 480096, Note_off_c, 12, 59, 64
13, 480480, Note_on_c, 12, 44, 64
13, 480672, Note_off_c, 12, 44, 64
13, 481440, Note_on_c, 12, 45, 64
13, 481632, Note_off_c, 12, 45, 64
13, 482400, Note_on_c, 12, 40, 77
13, 482592, Note_off_c, 12, 40, 64
13, 483360, Note_on_c, 12, 40, 77
13, 483552, Note_off_c, 12, 40, 64
13, 484200, Note_on_c, 12, 50, 74
13, 484320, Note_off_c, 12, 50, 64
13, 484320, Note_on_c, 12, 47, 74
13, 484416, Note_off_c, 12, 47, 64
13, 484680, Note_on_c, 12, 44, 74
13, 484800, Note_off_c, 12, 44, 64
13, 484800, Note_on_c, 12, 47, 74
13, 484896, Note_off_c, 12, 47, 64
13, 485160, Note_on_c, 12, 50, 74
13, 485280, Note_off_c, 12, 50, 64
13, 485280, Note_on_c, 12, 52, 74
13, 485376, Note_off_c, 12, 52, 64
13, 485640, Note_on_c, 12, 56, 74
13, 485760, Note_off_c, 12, 56, 64
13, 485760, Note_on_c, 12, 59, 79
13, 485856, Note_off_c, 12, 59, 64
13, 486240, Note_on_c, 12, 44, 87
13, 486432, Note_off_c, 12, 44, 64
13, 486720, Note_on_c, 12, 45, 95
13, 486912, Note_off_c, 12, 45, 64
13, 487200, Note_on_c, 12, 37, 102
13, 487392, Note_off_c, 12, 37, 64
13, 487680, Note_on_c, 12, 36, 99
13, 487776, Note_off_c, 12, 36, 64
13, 487800, Note_on_c, 12, 36, 99
13, 487896, Note_off_c, 12, 36, 64
13, 487920, Note_on_c, 12, 36, 99
13, 488016, Note_off_c, 12, 36, 64
13, 488040, Note_on_c, 12, 36, 99
13, 488136, Note_off_c, 12, 36, 64
13, 488160, Note_on_c, 12, 36, 99
13, 488256, Note_off_c, 12, 36, 64
13, 488280, Note_on_c, 12, 36, 99
13, 488376, Note_off_c, 12, 36, 64
13, 488400, Note_on_c, 12, 36, 99
13, 488496, Note_off_c, 12, 36, 64
13, 488520, Note_on_c, 12, 36, 99
13, 488616, Note_off_c, 12, 36, 64
13, 488640, Note_on_c, 12, 36, 99
13, 488736, Note_off_c, 12, 36, 64
13, 488760, Note_on_c, 12, 36, 99
13, 488856, Note_off_c, 12, 36, 64
13, 488880, Note_on_c, 12, 36, 99
13, 488976, Note_off_c, 12, 36, 64
13, 489000, Note_on_c, 12, 36, 99
13, 489096, Note_off_c, 12, 36, 64
13, 489120, Note_on_c, 12, 36, 99
13, 489216, Note_off_c, 12, 36, 64
13, 489240, Note_on_c, 12, 36, 99
13, 489336, Note_off_c, 12, 36, 64
13, 489360, Note_on_c, 12, 36, 99
13, 489456, Note_off_c, 12, 36, 64
13, 489480, Note_on_c, 12, 36, 99
13, 489576, Note_off_c, 12, 36, 64
13, 489600, Note_on_c, 12, 41, 127
13, 489696, Note_off_c, 12, 41, 64
13, 489720, Note_on_c, 12, 41, 99
13, 489816, Note_off_c, 12, 41, 64
13, 489840, Note_on_c, 12, 41, 99
13, 489936, Note_off_c, 12, 41, 64
13, 489960, Note_on_c, 12, 41, 99
13, 490056, Note_off_c, 12, 41, 64
13, 490080, Note_on_c, 12, 41, 99
13, 490176, Note_off_c, 12, 41, 64
13, 490200, Note_on_c, 12, 41, 99
13, 490296, Note_off_c, 12, 41, 64
13, 490320, Note_on_c, 12, 41, 99
13, 490416, Note_off_c, 12, 41, 64
13, 490440, Note_on_c, 12, 41, 99
13, 490536, Note_off_c, 12, 41, 64
13, 490560, Note_on_c, 12, 36, 99
13, 490656, Note_off_c, 12, 36, 64
13, 490680, Note_on_c, 12, 36, 99
13, 490776, Note_off_c, 12, 36, 64
13, 490800, Note_on_c, 12, 36, 99
13, 490896, Note_off_c, 12, 36, 64
13, 490920, Note_on_c, 12, 36, 99
13, 491016, Note_off_c, 12, 36, 64
13, 491040, Note_on_c, 12, 36, 99
13, 491136, Note_off_c, 12, 36, 64
13, 491160, Note_on_c, 12, 36, 99
13, 491256, Note_off_c, 12, 36, 64
13, 491280, Note_on_c, 12, 36, 99
13, 491376, Note_off_c, 12, 36, 64
13, 491400, Note_on_c, 12, 36, 99
13, 491496, Note_off_c, 12, 36, 64
13, 491520, Note_on_c, 12, 41, 127
13, 491616, Note_off_c, 12, 41, 64
13, 491640, Note_on_c, 12, 41, 99
13, 491736, Note_off_c, 12, 41, 64
13, 491760, Note_on_c, 12, 41, 99
13, 491856, Note_off_c, 12, 41, 64
13, 491880, Note_on_c, 12, 41, 99
13, 491976, Note_off_c, 12, 41, 64
13, 492000, Note_on_c, 12, 41, 99
13, 492096, Note_off_c, 12, 41, 64
13, 492120, Note_on_c, 12, 41, 99
13, 492216, Note_off_c, 12, 41, 64
13, 492240, Note_on_c, 12, 41, 99
13, 492336, Note_off_c, 12, 41, 64
13, 492360, Note_on_c, 12, 41, 99
13, 492456, Note_off_c, 12, 41, 64
13, 492480, Note_on_c, 12, 36, 99
13, 492576, Note_off_c, 12, 36, 64
13, 492600, Note_on_c, 12, 36, 99
13, 492696, Note_off_c, 12, 36, 64
13, 492720, Note_on_c, 12, 36, 99
13, 492816, Note_off_c, 12, 36, 64
13, 492840, Note_on_c, 12, 36, 99
13, 492936, Note_off_c, 12, 36, 64
13, 492960, Note_on_c, 12, 36, 99
13, 493056, Note_off_c, 12, 36, 64
13, 493080, Note_on_c, 12, 36, 99
13, 493176, Note_off_c, 12, 36, 64
13, 493200, Note_on_c, 12, 36, 99
13, 493296, Note_off_c, 12, 36, 64
13, 493320, Note_on_c, 12, 36, 99
13, 493416, Note_off_c, 12, 36, 64
13, 493440, Note_on_c, 12, 36, 127
13, 493536, Note_off_c, 12, 36, 64
13, 493560, Note_on_c, 12, 36, 127
13, 493656, Note_off_c, 12, 36, 64
13, 493680, Note_on_c, 12, 36, 127
13, 493776, Note_off_c, 12, 36, 64
13, 493800, Note_on_c, 12, 36, 127
13, 493896, Note_off_c, 12, 36, 64
13, 493920, Note_on_c, 12, 36, 127
13, 494016, Note_off_c, 12, 36, 64
13, 494040, Note_on_c, 12, 36, 127
13, 494136, Note_off_c, 12, 36, 64
13, 494160, Note_on_c, 12, 36, 127
13, 494256, Note_off_c, 12, 36, 64
13, 494280, Note_on_c, 12, 36, 127
13, 494376, Note_off_c, 12, 36, 64
13, 494400, Note_on_c, 12, 36, 127
13, 494496, Note_off_c, 12, 36, 64
13, 494520, Note_on_c, 12, 36, 127
13, 494616, Note_off_c, 12, 36, 64
13, 494640, Note_on_c, 12, 36, 127
13, 494736, Note_off_c, 12, 36, 64
13, 494760, Note_on_c, 12, 36, 127
13, 494856, Note_off_c, 12, 36, 64
13, 494880, Note_on_c, 12, 36, 127
13, 494976, Note_off_c, 12, 36, 64
13, 495000, Note_on_c, 12, 36, 127
13, 495096, Note_off_c, 12, 36, 64
13, 495120, Note_on_c, 12, 36, 127
13, 495216, Note_off_c, 12, 36, 64
13, 495240, Note_on_c, 12, 36, 127
13, 495336, Note_off_c, 12, 36, 64
13, 495360, Note_on_c, 12, 41, 127
13, 495456, Note_off_c, 12, 41, 64
13, 495480, Note_on_c, 12, 41, 99
13, 495576, Note_off_c, 12, 41, 64
13, 495600, Note_on_c, 12, 41, 99
13, 495696, Note_off_c, 12, 41, 64
13, 495720, Note_on_c, 12, 41, 99
13, 495816, Note_off_c, 12, 41, 64
13, 495840, Note_on_c, 12, 41, 99
13, 495936, Note_off_c, 12, 41, 64
13, 495960, Note_on_c, 12, 41, 99
13, 496056, Note_off_c, 12, 41, 64
13, 496080, Note_on_c, 12, 41, 99
13, 496176, Note_off_c, 12, 41, 64
13, 496200, Note_on_c, 12, 41, 99
13, 496296, Note_off_c, 12, 41, 64
13, 496320, Note_on_c, 12, 36, 99
13, 496416, Note_off_c, 12, 36, 64
13, 496440, Note_on_c, 12, 36, 99
13, 496536, Note_off_c, 12, 36, 64
13, 496560, Note_on_c, 12, 36, 99
13, 496656, Note_off_c, 12, 36, 64
13, 496680, Note_on_c, 12, 36, 99
13, 496776, Note_off_c, 12, 36, 64
13, 496800, Note_on_c, 12, 36, 99
13, 496896, Note_off_c, 12, 36, 64
13, 496920, Note_on_c, 12, 36, 99
13, 497016, Note_off_c, 12, 36, 64
13, 497040, Note_on_c, 12, 36, 99
13, 497136, Note_off_c, 12, 36, 64
13, 497160, Note_on_c, 12, 36, 99
13, 497256, Note_off_c, 12, 36, 64
13, 497280, Note_on_c, 12, 41, 127
13, 497376, Note_off_c, 12, 41, 64
13, 497400, Note_on_c, 12, 41, 99
13, 497496, Note_off_c, 12, 41, 64
13, 497520, Note_on_c, 12, 41, 99
13, 497616, Note_off_c, 12, 41, 64
13, 497640, Note_on_c, 12, 41, 99
13, 497736, Note_off_c, 12, 41, 64
13, 497760, Note_on_c, 12, 41, 99
13, 497856, Note_off_c, 12, 41, 64
13, 497880, Note_on_c, 12, 41, 99
13, 497976, Note_off_c, 12, 41, 64
13, 498000, Note_on_c, 12, 41, 99
13, 498096, Note_off_c, 12, 41, 64
13, 498120, Note_on_c, 12, 41, 99
13, 498216, Note_off_c, 12, 41, 64
13, 498240, Note_on_c, 12, 41, 127
13, 498336, Note_off_c, 12, 41, 64
13, 498360, Note_on_c, 12, 41, 127
13, 498456, Note_off_c, 12, 41, 64
13, 498480, Note_on_c, 12, 41, 127
13, 498576, Note_off_c, 12, 41, 64
13, 498600, Note_on_c, 12, 41, 127
13, 498696, Note_off_c, 12, 41, 64
13, 498720, Note_on_c, 12, 41, 127
13, 498816, Note_off_c, 12, 41, 64
13, 498840, Note_on_c, 12, 41, 127
13, 498936, Note_off_c, 12, 41, 64
13, 498960, Note_on_c, 12, 41, 127
13, 499056, Note_off_c, 12, 41, 64
13, 499080, Note_on_c, 12, 41, 127
13, 499176, Note_off_c, 12, 41, 64
13, 499200, Note_on_c, 12, 40, 127
13, 499296, Note_off_c, 12, 40, 64
13, 499320, Note_on_c, 12, 40, 127
13, 499416, Note_off_c, 12, 40, 64
13, 499440, Note_on_c, 12, 40, 127
13, 499536, Note_off_c, 12, 40, 64
13, 499560, Note_on_c, 12, 40, 127
13, 499656, Note_off_c, 12, 40, 64
13, 499680, Note_on_c, 12, 40, 127
13, 499776, Note_off_c, 12, 40, 64
13, 499800, Note_on_c, 12, 40, 127
13, 499896, Note_off_c, 12, 40, 64
13, 499920, Note_on_c, 12, 40, 127
13, 500016, Note_off_c, 12, 40, 64
13, 500040, Note_on_c, 12, 40, 127
13, 500136, Note_off_c, 12, 40, 64
13, 500160, Note_on_c, 12, 40, 127
13, 500256, Note_off_c, 12, 40, 64
13, 500280, Note_on_c, 12, 40, 127
13, 500376, Note_off_c, 12, 40, 64
13, 500400, Note_on_c, 12, 40, 127
13, 500496, Note_off_c, 12, 40, 64
13, 500520, Note_on_c, 12, 40, 127
13, 500616, Note_off_c, 12, 40, 64
13, 500640, Note_on_c, 12, 40, 127
13, 500736, Note_off_c, 12, 40, 64
13, 500760, Note_on_c, 12, 40, 127
13, 500856, Note_off_c, 12, 40, 64
13, 500880, Note_on_c, 12, 40, 127
13, 500976, Note_off_c, 12, 40, 64
13, 501000, Note_on_c, 12, 40, 127
13, 501096, Note_off_c, 12, 40, 64
13, 501120, Note_on_c, 12, 49, 127
13, 501216, Note_off_c, 12, 49, 64
13, 501240, Note_on_c, 12, 49, 127
13, 501336, Note_off_c, 12, 49, 64
13, 501360, Note_on_c, 12, 50, 127
13, 501456, Note_off_c, 12, 50, 64
13, 501480, Note_on_c, 12, 52, 127
13, 501576, Note_off_c, 12, 52, 64
13, 501600, Note_on_c, 12, 55, 127
13, 501696, Note_off_c, 12, 55, 64
13, 501720, Note_on_c, 12, 53, 127
13, 501816, Note_off_c, 12, 53, 64
13, 501840, Note_on_c, 12, 52, 127
13, 501936, Note_off_c, 12, 52, 64
13, 501960, Note_on_c, 12, 50, 127
13, 502056, Note_off_c, 12, 50, 64
13, 502080, Note_on_c, 12, 55, 127
13, 502176, Note_off_c, 12, 55, 64
13, 502200, Note_on_c, 12, 53, 127
13, 502296, Note_off_c, 12, 53, 64
13, 502320, Note_on_c, 12, 52, 127
13, 502416, Note_off_c, 12, 52, 64
13, 502440, Note_on_c, 12, 50, 127
13, 502536, Note_off_c, 12, 50, 64
13, 502560, Note_on_c, 12, 55, 127
13, 502656, Note_off_c, 12, 55, 64
13, 502680, Note_on_c, 12, 53, 127
13, 502776, Note_off_c, 12, 53, 64
13, 502800, Note_on_c, 12, 52, 127
13, 502896, Note_off_c, 12, 52, 64
13, 502920, Note_on_c, 12, 50, 127
13, 503016, Note_off_c, 12, 50, 64
13, 503040, Note_on_c, 12, 49, 127
13, 503136, Note_off_c, 12, 49, 64
13, 503160, Note_on_c, 12, 49, 127
13, 503256, Note_off_c, 12, 49, 64
13, 503280, Note_on_c, 12, 50, 127
13, 503376, Note_off_c, 12, 50, 64
13, 503400, Note_on_c, 12, 52, 127
13, 503496, Note_off_c, 12, 52, 64
13, 503520, Note_on_c, 12, 55, 127
13, 503616, Note_off_c, 12, 55, 64
13, 503640, Note_on_c, 12, 53, 127
13, 503736, Note_off_c, 12, 53, 64
13, 503760, Note_on_c, 12, 52, 127
13, 503856, Note_off_c, 12, 52, 64
13, 503880, Note_on_c, 12, 50, 127
13, 503976, Note_off_c, 12, 50, 64
13, 504000, Note_on_c, 12, 55, 127
13, 504096, Note_off_c, 12, 55, 64
13, 504120, Note_on_c, 12, 53, 127
13, 504216, Note_off_c, 12, 53, 64
13, 504240, Note_on_c, 12, 52, 127
13, 504336, Note_off_c, 12, 52, 64
13, 504360, Note_on_c, 12, 50, 127
13, 504456, Note_off_c, 12, 50, 64
13, 504480, Note_on_c, 12, 55, 127
13, 504576, Note_off_c, 12, 55, 64
13, 504600, Note_on_c, 12, 53, 127
13, 504696, Note_off_c, 12, 53, 64
13, 504720, Note_on_c, 12, 52, 127
13, 504816, Note_off_c, 12, 52, 64
13, 504840, Note_on_c, 12, 50, 127
13, 504936, Note_off_c, 12, 50, 64
13, 504960, Note_on_c, 12, 49, 127
13, 505056, Note_off_c, 12, 49, 64
13, 505080, Note_on_c, 12, 49, 127
13, 505176, Note_off_c, 12, 49, 64
13, 505200, Note_on_c, 12, 50, 127
13, 505296, Note_off_c, 12, 50, 64
13, 505320, Note_on_c, 12, 52, 127
13, 505416, Note_off_c, 12, 52, 64
13, 505440, Note_on_c, 12, 55, 127
13, 505536, Note_off_c, 12, 55, 64
13, 505560, Note_on_c, 12, 53, 127
13, 505656, Note_off_c, 12, 53, 64
13, 505680, Note_on_c, 12, 52, 127
13, 505776, Note_off_c, 12, 52, 64
13, 505800, Note_on_c, 12, 50, 127
13, 505896, Note_off_c, 12, 50, 64
13, 505920, Note_on_c, 12, 49, 127
13, 506016, Note_off_c, 12, 49, 64
13, 506040, Note_on_c, 12, 49, 127
13, 506136, Note_off_c, 12, 49, 64
13, 506160, Note_on_c, 12, 50, 127
13, 506256, Note_off_c, 12, 50, 64
13, 506280, Note_on_c, 12, 52, 127
13, 506376, Note_off_c, 12, 52, 64
13, 506400, Note_on_c, 12, 55, 127
13, 506496, Note_off_c, 12, 55, 64
13, 506520, Note_on_c, 12, 53, 127
13, 506616, Note_off_c, 12, 53, 64
13, 506640, Note_on_c, 12, 52, 127
13, 506736, Note_off_c, 12, 52, 64
13, 506760, Note_on_c, 12, 50, 127
13, 506856, Note_off_c, 12, 50, 64
13, 506880, Note_on_c, 12, 49, 127
13, 506976, Note_off_c, 12, 49, 64
13, 507000, Note_on_c, 12, 49, 127
13, 507096, Note_off_c, 12, 49, 64
13, 507120, Note_on_c, 12, 50, 127
13, 507216, Note_off_c, 12, 50, 64
13, 507240, Note_on_c, 12, 52, 127
13, 507336, Note_off_c, 12, 52, 64
13, 507360, Note_on_c, 12, 55, 127
13, 507456, Note_off_c, 12, 55, 64
13, 507480, Note_on_c, 12, 53, 127
13, 507576, Note_off_c, 12, 53, 64
13, 507600, Note_on_c, 12, 52, 127
13, 507696, Note_off_c, 12, 52, 64
13, 507720, Note_on_c, 12, 50, 127
13, 507816, Note_off_c, 12, 50, 64
13, 507840, Note_on_c, 12, 49, 127
13, 507936, Note_off_c, 12, 49, 64
13, 507960, Note_on_c, 12, 45, 127
13, 508056, Note_off_c, 12, 45, 64
13, 508080, Note_on_c, 12, 45, 127
13, 508176, Note_off_c, 12, 45, 64
13, 508200, Note_on_c, 12, 45, 127
13, 508296, Note_off_c, 12, 45, 64
13, 508320, Note_on_c, 12, 45, 127
13, 508416, Note_off_c, 12, 45, 64
13, 508440, Note_on_c, 12, 45, 127
13, 508536, Note_off_c, 12, 45, 64
13, 508560, Note_on_c, 12, 45, 127
13, 508656, Note_off_c, 12, 45, 64
13, 508680, Note_on_c, 12, 45, 127
13, 508776, Note_off_c, 12, 45, 64
13, 508800, Note_on_c, 12, 45, 127
13, 508944, Note_off_c, 12, 45, 64
13, 511080, Note_on_c, 12, 45, 127
13, 511224, Note_off_c, 12, 45, 64
13, 513360, Note_on_c, 12, 45, 127
13, 513504, Note_off_c, 12, 45, 64
13, 514440, Note_on_c, 12, 45, 127
13, 514584, Note_off_c, 12, 45, 64
13, 515520, Note_on_c, 12, 45, 127
13, 515664, Note_off_c, 12, 45, 64
13, 516600, Note_on_c, 12, 45, 127
13, 516744, Note_off_c, 12, 45, 64
13, 517680, Note_on_c, 12, 46, 127
13, 517800, Note_off_c, 12, 46, 64
13, 519240, Note_on_c, 12, 66, 80
13, 519720, Note_off_c, 12, 66, 64
13, 519720, Note_on_c, 12, 59, 80
13, 520200, Note_off_c, 12, 59, 64
13, 520200, Note_on_c, 12, 54, 80
13, 520680, Note_off_c, 12, 54, 64
13, 520680, Note_on_c, 12, 47, 80
13, 521160, Note_off_c, 12, 47, 64
13, 521160, Note_on_c, 12, 42, 80
13, 521640, Note_off_c, 12, 42, 64
13, 521640, Note_on_c, 12, 47, 80
13, 521880, Note_off_c, 12, 47, 64
13, 523080, Note_on_c, 12, 66, 80
13, 523560, Note_off_c, 12, 66, 64
13, 523560, Note_on_c, 12, 59, 80
13, 524040, Note_off_c, 12, 59, 64
13, 524040, Note_on_c, 12, 54, 80
13, 524520, Note_off_c, 12, 54, 64
13, 524520, Note_on_c, 12, 47, 80
13, 525000, Note_off_c, 12, 47, 64
13, 525000, Note_on_c, 12, 42, 80
13, 525480, Note_off_c, 12, 42, 64
13, 525480, Note_on_c, 12, 47, 80
13, 525720, Note_off_c, 12, 47, 64
13, 525720, Note_on_c, 12, 59, 80
13, 525804, Note_off_c, 12, 59, 64
13, 525840, Note_on_c, 12, 61, 80
13, 525924, Note_off_c, 12, 61, 64
13, 525960, Note_on_c, 12, 64, 80
13, 526044, Note_off_c, 12, 64, 64
13, 526080, Note_on_c, 12, 62, 80
13, 526164, Note_off_c, 12, 62, 64
13, 526200, Note_on_c, 12, 61, 80
13, 526284, Note_off_c, 12, 61, 64
13, 526320, Note_on_c, 12, 59, 80
13, 526404, Note_off_c, 12, 59, 64
13, 526440, Note_on_c, 12, 64, 80
13, 526920, Note_off_c, 12, 64, 64
13, 526920, Note_on_c, 12, 62, 80
13, 527400, Note_off_c, 12, 62, 64
13, 527400, Note_on_c, 12, 61, 80
13, 527880, Note_off_c, 12, 61, 64
13, 527880, Note_on_c, 12, 59, 80
13, 528360, Note_off_c, 12, 59, 64
13, 528360, Note_on_c, 12, 57, 80
13, 528840, Note_off_c, 12, 57, 64
13, 528840, Note_on_c, 12, 59, 80
13, 529320, Note_off_c, 12, 59, 64
13, 529320, Note_on_c, 12, 61, 80
13, 529416, Note_off_c, 12, 61, 64
13, 529560, Note_on_c, 12, 59, 80
13, 529644, Note_off_c, 12, 59, 64
13, 529680, Note_on_c, 12, 61, 80
13, 529764, Note_off_c, 12, 61, 64
13, 529800, Note_on_c, 12, 64, 80
13, 529884, Note_off_c, 12, 64, 64
13, 529920, Note_on_c, 12, 62, 80
13, 530004, Note_off_c, 12, 62, 64
13, 530040, Note_on_c, 12, 61, 80
13, 530124, Note_off_c, 12, 61, 64
13, 530160, Note_on_c, 12, 59, 80
13, 530244, Note_off_c, 12, 59, 64
13, 530280, Note_on_c, 12, 64, 80
13, 530760, Note_off_c, 12, 64, 64
13, 530760, Note_on_c, 12, 62, 80
13, 531240, Note_off_c, 12, 62, 64
13, 531240, Note_on_c, 12, 61, 81
13, 531720, Note_off_c, 12, 61, 64
13, 531720, Note_on_c, 12, 59, 72
13, 532200, Note_off_c, 12, 59, 64
13, 532200, Note_on_c, 12, 57, 63
13, 532680, Note_off_c, 12, 57, 64
13, 532680, Note_on_c, 12, 55, 54
13, 533160, Note_off_c, 12, 55, 64
13, 533160, Note_on_c, 12, 54, 54
13, 533640, Note_off_c, 12, 54, 64
13, 533640, Note_on_c, 12, 52, 54
13, 534120, Note_off_c, 12, 52, 64
13, 534120, Note_on_c, 12, 50, 54
13, 534600, Note_off_c, 12, 50, 64
13, 534600, Note_on_c, 12, 49, 54
13, 535080, Note_off_c, 12, 49, 64
13, 535080, Note_on_c, 12, 47, 54
13, 535560, Note_off_c, 12, 47, 64
13, 535560, Note_on_c, 12, 45, 54
13, 536040, Note_off_c, 12, 45, 64
13, 536040, Note_on_c, 12, 44, 54
13, 536520, Note_off_c, 12, 44, 64
13, 536520, Note_on_c, 12, 45, 54
13, 537000, Note_off_c, 12, 45, 64
13, 537000, Note_on_c, 12, 44, 54
13, 537480, Note_off_c, 12, 44, 64
13, 537480, Note_on_c, 12, 45, 54
13, 537960, Note_off_c, 12, 45, 64
13, 537960, Note_on_c, 12, 44, 54
13, 538440, Note_off_c, 12, 44, 64
13, 538440, Note_on_c, 12, 45, 54
13, 538920, Note_off_c, 12, 45, 64
13, 538920, Note_on_c, 12, 44, 54
13, 539400, Note_off_c, 12, 44, 64
13, 539400, Note_on_c, 12, 45, 54
13, 539880, Note_off_c, 12, 45, 64
13, 539880, Note_on_c, 12, 44, 54
13, 540360, Note_off_c, 12, 44, 64
13, 540360, Note_on_c, 12, 44, 54
13, 540840, Note_off_c, 12, 44, 64
13, 540840, Note_on_c, 12, 43, 54
13, 541320, Note_off_c, 12, 43, 64
13, 541320, Note_on_c, 12, 44, 54
13, 541800, Note_off_c, 12, 44, 64
13, 541800, Note_on_c, 12, 43, 54
13, 542280, Note_off_c, 12, 43, 64
13, 542280, Note_on_c, 12, 42, 54
13, 542760, Note_off_c, 12, 42, 64
13, 542760, Note_on_c, 12, 43, 54
13, 543240, Note_off_c, 12, 43, 64
13, 543240, Note_on_c, 12, 44, 54
13, 543720, Note_off_c, 12, 44, 64
13, 543720, Note_on_c, 12, 43, 54
13, 544200, Note_off_c, 12, 43, 64
13, 544200, Note_on_c, 12, 42, 54
13, 544680, Note_off_c, 12, 42, 64
13, 544680, Note_on_c, 12, 43, 54
13, 545160, Note_off_c, 12, 43, 64
13, 545160, Note_on_c, 12, 42, 54
13, 545640, Note_off_c, 12, 42, 64
13, 545640, Note_on_c, 12, 41, 54
13, 546120, Note_off_c, 12, 41, 64
13, 546120, Note_on_c, 12, 42, 54
13, 546600, Note_off_c, 12, 42, 64
13, 546600, Note_on_c, 12, 41, 54
13, 547080, Note_off_c, 12, 41, 64
13, 547080, Note_on_c, 12, 42, 54
13, 547560, Note_off_c, 12, 42, 64
13, 547560, Note_on_c, 12, 41, 54
13, 548040, Note_off_c, 12, 41, 64
13, 548040, Note_on_c, 12, 40, 54
13, 548520, Note_off_c, 12, 40, 64
13, 548520, Note_on_c, 12, 41, 54
13, 549000, Note_off_c, 12, 41, 64
13, 549000, Note_on_c, 12, 42, 54
13, 549480, Note_off_c, 12, 42, 64
13, 549480, Note_on_c, 12, 41, 54
13, 549960, Note_off_c, 12, 41, 64
13, 549960, Note_on_c, 12, 40, 54
13, 550440, Note_off_c, 12, 40, 64
13, 550440, Note_on_c, 12, 41, 54
13, 550920, Note_off_c, 12, 41, 64
13, 550920, Note_on_c, 12, 41, 54
13, 551400, Note_off_c, 12, 41, 64
13, 551400, Note_on_c, 12, 40, 54
13, 551880, Note_off_c, 12, 40, 64
13, 551880, Note_on_c, 12, 41, 54
13, 552360, Note_off_c, 12, 41, 64
13, 552360, Note_on_c, 12, 40, 54
13, 552840, Note_off_c, 12, 40, 64
13, 552840, Note_on_c, 12, 41, 54
13, 553320, Note_off_c, 12, 41, 64
13, 553320, Note_on_c, 12, 40, 54
13, 553800, Note_off_c, 12, 40, 64
13, 553800, Note_on_c, 12, 39, 54
13, 554280, Note_off_c, 12, 39, 64
13, 554280, Note_on_c, 12, 40, 54
13, 554760, Note_off_c, 12, 40, 64
13, 554760, Note_on_c, 12, 41, 54
13, 555240, Note_off_c, 12, 41, 64
13, 555240, Note_on_c, 12, 40, 54
13, 555720, Note_off_c, 12, 40, 64
13, 555720, Note_on_c, 12, 39, 54
13, 556200, Note_off_c, 12, 39, 64
13, 556200, Note_on_c, 12, 40, 62
13, 556680, Note_off_c, 12, 40, 64
13, 556680, Note_on_c, 12, 39, 62
13, 557160, Note_off_c, 12, 39, 64
13, 557160, Note_on_c, 12, 40, 62
13, 557640, Note_off_c, 12, 40, 64
13, 557640, Note_on_c, 12, 39, 62
13, 558120, Note_off_c, 12, 39, 64
13, 558120, Note_on_c, 12, 40, 62
13, 558600, Note_off_c, 12, 40, 64
13, 558600, Note_on_c, 12, 39, 62
13, 559080, Note_off_c, 12, 39, 64
13, 559080, Note_on_c, 12, 40, 62
13, 559560, Note_off_c, 12, 40, 64
13, 559560, Note_on_c, 12, 39, 62
13, 560040, Note_off_c, 12, 39, 64
13, 560040, Note_on_c, 12, 40, 62
13, 560520, Note_off_c, 12, 40, 64
13, 560520, Note_on_c, 12, 39, 62
13, 561000, Note_off_c, 12, 39, 64
13, 561000, Note_on_c, 12, 40, 62
13, 561480, Note_off_c, 12, 40, 64
13, 561480, Note_on_c, 12, 39, 62
13, 561960, Note_off_c, 12, 39, 64
13, 561960, Note_on_c, 12, 40, 62
13, 562440, Note_off_c, 12, 40, 64
13, 562440, Note_on_c, 12, 39, 62
13, 562920, Note_off_c, 12, 39, 64
13, 562920, Note_on_c, 12, 40, 62
13, 563400, Note_off_c, 12, 40, 64
13, 563400, Note_on_c, 12, 39, 62
13, 563880, Note_off_c, 12, 39, 64
13, 563880, Note_on_c, 12, 40, 62
13, 564360, Note_off_c, 12, 40, 64
13, 564360, Note_on_c, 12, 39, 62
13, 564840, Note_off_c, 12, 39, 64
13, 564840, Note_on_c, 12, 40, 62
13, 565320, Note_off_c, 12, 40, 64
13, 565320, Note_on_c, 12, 39, 62
13, 565800, Note_off_c, 12, 39, 64
13, 565800, Note_on_c, 12, 40, 62
13, 566280, Note_off_c, 12, 40, 64
13, 566280, Note_on_c, 12, 39, 62
13, 566760, Note_off_c, 12, 39, 64
13, 566760, Note_on_c, 12, 40, 80
13, 567240, Note_off_c, 12, 40, 64
13, 567240, Note_on_c, 12, 39, 80
13, 567720, Note_off_c, 12, 39, 64
13, 567720, Note_on_c, 12, 40, 80
13, 568200, Note_off_c, 12, 40, 64
13, 568200, Note_on_c, 12, 39, 80
13, 568680, Note_off_c, 12, 39, 64
13, 568680, Note_on_c, 12, 40, 80
13, 569160, Note_off_c, 12, 40, 64
13, 569160, Note_on_c, 12, 39, 80
13, 569640, Note_off_c, 12, 39, 64
13, 569640, Note_on_c, 12, 40, 80
13, 570120, Note_off_c, 12, 40, 64
13, 570120, Note_on_c, 12, 39, 80
13, 570600, Note_off_c, 12, 39, 64
13, 570600, Note_on_c, 12, 40, 80
13, 571080, Note_off_c, 12, 40, 64
13, 571080, Note_on_c, 12, 39, 80
13, 571560, Note_off_c, 12, 39, 64
13, 571560, Note_on_c, 12, 40, 80
13, 572160, Note_off_c, 12, 40, 64
13, 572160, Note_on_c, 12, 39, 80
13, 572640, Note_off_c, 12, 39, 64
13, 572640, Note_on_c, 12, 40, 80
13, 573240, Note_off_c, 12, 40, 64
13, 573240, Note_on_c, 12, 39, 80
13, 573720, Note_off_c, 12, 39, 64
13, 573720, Note_on_c, 12, 40, 80
13, 574320, Note_off_c, 12, 40, 64
13, 574320, Note_on_c, 12, 39, 80
13, 574800, Note_off_c, 12, 39, 64
13, 574800, Note_on_c, 12, 40, 80
13, 575400, Note_off_c, 12, 40, 64
13, 575400, Note_on_c, 12, 39, 80
13, 575880, Note_off_c, 12, 39, 64
13, 575880, Note_on_c, 12, 40, 80
13, 576360, Note_off_c, 12, 40, 64
13, 576360, Note_on_c, 12, 40, 80
13, 576840, Note_off_c, 12, 40, 64
13, 576840, Note_on_c, 12, 52, 80
13, 577320, Note_off_c, 12, 52, 64
13, 577320, Note_on_c, 12, 40, 80
13, 577800, Note_off_c, 12, 40, 64
13, 577800, Note_on_c, 12, 52, 80
13, 578280, Note_off_c, 12, 52, 64
13, 578280, Note_on_c, 12, 40, 80
13, 578760, Note_off_c, 12, 40, 64
13, 578760, Note_on_c, 12, 52, 80
13, 579240, Note_off_c, 12, 52, 64
13, 579240, Note_on_c, 12, 40, 80
13, 579720, Note_off_c, 12, 40, 64
13, 579720, Note_on_c, 12, 40, 80
13, 580320, Note_off_c, 12, 40, 64
13, 580320, Note_on_c, 12, 39, 80
13, 580800, Note_off_c, 12, 39, 64
13, 580800, Note_on_c, 12, 40, 80
13, 581400, Note_off_c, 12, 40, 64
13, 581400, Note_on_c, 12, 39, 80
13, 581880, Note_off_c, 12, 39, 64
13, 581880, Note_on_c, 12, 40, 80
13, 582480, Note_off_c, 12, 40, 64
13, 582480, Note_on_c, 12, 39, 80
13, 582960, Note_off_c, 12, 39, 64
13, 582960, Note_on_c, 12, 40, 80
13, 583560, Note_off_c, 12, 40, 64
13, 583560, Note_on_c, 12, 39, 80
13, 584040, Note_off_c, 12, 39, 64
13, 584040, Note_on_c, 12, 40, 80
13, 584520, Note_off_c, 12, 40, 64
13, 584520, Note_on_c, 12, 40, 80
13, 585000, Note_off_c, 12, 40, 64
13, 585000, Note_on_c, 12, 52, 80
13, 585480, Note_off_c, 12, 52, 64
13, 585480, Note_on_c, 12, 40, 80
13, 585960, Note_off_c, 12, 40, 64
13, 585960, Note_on_c, 12, 52, 80
13, 586440, Note_off_c, 12, 52, 64
13, 586440, Note_on_c, 12, 40, 80
13, 586920, Note_off_c, 12, 40, 64
13, 586920, Note_on_c, 12, 52, 80
13, 587400, Note_off_c, 12, 52, 64
13, 587400, Note_on_c, 12, 40, 80
13, 587880, Note_off_c, 12, 40, 64
13, 587880, Note_on_c, 12, 52, 80
13, 588360, Note_off_c, 12, 52, 64
13, 588360, Note_on_c, 12, 40, 80
13, 588840, Note_off_c, 12, 40, 64
13, 588840, Note_on_c, 12, 52, 80
13, 589320, Note_off_c, 12, 52, 64
13, 589320, Note_on_c, 12, 40, 80
13, 589800, Note_off_c, 12, 40, 64
13, 589800, Note_on_c, 12, 52, 80
13, 590280, Note_off_c, 12, 52, 64
13, 590280, Note_on_c, 12, 40, 80
13, 590760, Note_off_c, 12, 40, 64
13, 590760, Note_on_c, 12, 52, 80
13, 591240, Note_off_c, 12, 52, 64
13, 591240, Note_on_c, 12, 40, 80
13, 591720, Note_off_c, 12, 40, 64
13, 591720, Note_on_c, 12, 52, 80
13, 592200, Note_off_c, 12, 52, 64
13, 592200, Note_on_c, 12, 40, 80
13, 592680, Note_off_c, 12, 40, 64
13, 592680, Note_on_c, 12, 52, 80
13, 593160, Note_off_c, 12, 52, 64
13, 593160, Note_on_c, 12, 40, 80
13, 593640, Note_off_c, 12, 40, 64
13, 593640, Note_on_c, 12, 64, 120
13, 593760, Note_off_c, 12, 64, 64
13, 593880, Note_on_c, 12, 62, 120
13, 594000, Note_off_c, 12, 62, 64
13, 594120, Note_on_c, 12, 61, 120
13, 594240, Note_off_c, 12, 61, 64
13, 594360, Note_on_c, 12, 59, 120
13, 594480, Note_off_c, 12, 59, 64
13, 594600, Note_on_c, 12, 57, 120
13, 594720, Note_off_c, 12, 57, 64
13, 594840, Note_on_c, 12, 55, 120
13, 594960, Note_off_c, 12, 55, 64
13, 595080, Note_on_c, 12, 54, 120
13, 595200, Note_off_c, 12, 54, 64
13, 595320, Note_on_c, 12, 52, 120
13, 595440, Note_off_c, 12, 52, 64
13, 595560, Note_on_c, 12, 50, 120
13, 595680, Note_off_c, 12, 50, 64
13, 595800, Note_on_c, 12, 49, 120
13, 595920, Note_off_c, 12, 49, 64
13, 596040, Note_on_c, 12, 47, 120
13, 596160, Note_off_c, 12, 47, 64
13, 596280, Note_on_c, 12, 45, 120
13, 596400, Note_off_c, 12, 45, 64
13, 596520, Note_on_c, 12, 43, 120
13, 596640, Note_off_c, 12, 43, 64
13, 596760, Note_on_c, 12, 42, 120
13, 596880, Note_off_c, 12, 42, 64
13, 597000, Note_on_c, 12, 40, 120
13, 597120, Note_off_c, 12, 40, 64
13, 597240, Note_on_c, 12, 38, 120
13, 597360, Note_off_c, 12, 38, 64
13, 597480, Note_on_c, 12, 37, 127
13, 597576, Note_off_c, 12, 37, 64
13, 597600, Note_on_c, 12, 37, 127
13, 597696, Note_off_c, 12, 37, 64
13, 597720, Note_on_c, 12, 37, 127
13, 597816, Note_off_c, 12, 37, 64
13, 597840, Note_on_c, 12, 37, 127
13, 597936, Note_off_c, 12, 37, 64
13, 597960, Note_on_c, 12, 37, 127
13, 598056, Note_off_c, 12, 37, 64
13, 598080, Note_on_c, 12, 37, 127
13, 598176, Note_off_c, 12, 37, 64
13, 598200, Note_on_c, 12, 37, 127
13, 598296, Note_off_c, 12, 37, 64
13, 598320, Note_on_c, 12, 37, 127
13, 598416, Note_off_c, 12, 37, 64
13, 598440, Note_on_c, 12, 38, 127
13, 598536, Note_off_c, 12, 38, 64
13, 598560, Note_on_c, 12, 38, 127
13, 598656, Note_off_c, 12, 38, 64
13, 598680, Note_on_c, 12, 38, 127
13, 598776, Note_off_c, 12, 38, 64
13, 598800, Note_on_c, 12, 38, 127
13, 598896, Note_off_c, 12, 38, 64
13, 598920, Note_on_c, 12, 38, 127
13, 599016, Note_off_c, 12, 38, 64
13, 599040, Note_on_c, 12, 38, 127
13, 599136, Note_off_c, 12, 38, 64
13, 599160, Note_on_c, 12, 38, 127
13, 599256, Note_off_c, 12, 38, 64
13, 599280, Note_on_c, 12, 38, 127
13, 599376, Note_off_c, 12, 38, 64
13, 599400, Note_on_c, 12, 40, 127
13, 599496, Note_off_c, 12, 40, 64
13, 599520, Note_on_c, 12, 40, 127
13, 599616, Note_off_c, 12, 40, 64
13, 599640, Note_on_c, 12, 40, 127
13, 599736, Note_off_c, 12, 40, 64
13, 599760, Note_on_c, 12, 40, 127
13, 599856, Note_off_c, 12, 40, 64
13, 599880, Note_on_c, 12, 40, 127
13, 599976, Note_off_c, 12, 40, 64
13, 600000, Note_on_c, 12, 40, 127
13, 600096, Note_off_c, 12, 40, 64
13, 600120, Note_on_c, 12, 40, 127
13, 600216, Note_off_c, 12, 40, 64
13, 600240, Note_on_c, 12, 40, 127
13, 600336, Note_off_c, 12, 40, 64
13, 600360, Note_on_c, 12, 40, 127
13, 600456, Note_off_c, 12, 40, 64
13, 600480, Note_on_c, 12, 40, 127
13, 600576, Note_off_c, 12, 40, 64
13, 600600, Note_on_c, 12, 40, 127
13, 600696, Note_off_c, 12, 40, 64
13, 600720, Note_on_c, 12, 40, 127
13, 600816, Note_off_c, 12, 40, 64
13, 600840, Note_on_c, 12, 40, 127
13, 600936, Note_off_c, 12, 40, 64
13, 600960, Note_on_c, 12, 40, 127
13, 601056, Note_off_c, 12, 40, 64
13, 601080, Note_on_c, 12, 40, 127
13, 601176, Note_off_c, 12, 40, 64
13, 601200, Note_on_c, 12, 40, 127
13, 601296, Note_off_c, 12, 40, 64
13, 601320, Note_on_c, 12, 56, 59
13, 601440, Note_off_c, 12, 56, 64
13, 601560, Note_on_c, 12, 54, 59
13, 601680, Note_off_c, 12, 54, 64
13, 601800, Note_on_c, 12, 52, 59
13, 601920, Note_off_c, 12, 52, 64
13, 602040, Note_on_c, 12, 50, 59
13, 602160, Note_off_c, 12, 50, 64
13, 602280, Note_on_c, 12, 49, 59
13, 602400, Note_off_c, 12, 49, 64
13, 602520, Note_on_c, 12, 47, 59
13, 602640, Note_off_c, 12, 47, 64
13, 602760, Note_on_c, 12, 45, 59
13, 602880, Note_off_c, 12, 45, 64
13, 603000, Note_on_c, 12, 44, 59
13, 603120, Note_off_c, 12, 44, 64
13, 603240, Note_on_c, 12, 45, 59
13, 603360, Note_off_c, 12, 45, 64
13, 603480, Note_on_c, 12, 47, 59
13, 603600, Note_off_c, 12, 47, 64
13, 603720, Note_on_c, 12, 49, 59
13, 603840, Note_off_c, 12, 49, 64
13, 603960, Note_on_c, 12, 50, 59
13, 604080, Note_off_c, 12, 50, 64
13, 604200, Note_on_c, 12, 52, 59
13, 604320, Note_off_c, 12, 52, 64
13, 604440, Note_on_c, 12, 54, 59
13, 604560, Note_off_c, 12, 54, 64
13, 604680, Note_on_c, 12, 56, 59
13, 604800, Note_off_c, 12, 56, 64
13, 604920, Note_on_c, 12, 57, 59
13, 605040, Note_off_c, 12, 57, 64
13, 605160, Note_on_c, 12, 59, 64
13, 605280, Note_off_c, 12, 59, 64
13, 605400, Note_on_c, 12, 57, 67
13, 605520, Note_off_c, 12, 57, 64
13, 605640, Note_on_c, 12, 56, 70
13, 605760, Note_off_c, 12, 56, 64
13, 605880, Note_on_c, 12, 54, 74
13, 606000, Note_off_c, 12, 54, 64
13, 606120, Note_on_c, 12, 52, 77
13, 606240, Note_off_c, 12, 52, 64
13, 606360, Note_on_c, 12, 50, 80
13, 606480, Note_off_c, 12, 50, 64
13, 606600, Note_on_c, 12, 49, 83
13, 606720, Note_off_c, 12, 49, 64
13, 606840, Note_on_c, 12, 47, 86
13, 606960, Note_off_c, 12, 47, 64
13, 607080, Note_on_c, 12, 49, 90
13, 607200, Note_off_c, 12, 49, 64
13, 607320, Note_on_c, 12, 50, 93
13, 607440, Note_off_c, 12, 50, 64
13, 607560, Note_on_c, 12, 52, 96
13, 607680, Note_off_c, 12, 52, 64
13, 607800, Note_on_c, 12, 54, 99
13, 607920, Note_off_c, 12, 54, 64
13, 608040, Note_on_c, 12, 56, 102
13, 608160, Note_off_c, 12, 56, 64
13, 608280, Note_on_c, 12, 57, 105
13, 608400, Note_off_c, 12, 57, 64
13, 608520, Note_on_c, 12, 59, 109
13, 608640, Note_off_c, 12, 59, 64
13, 608760, Note_on_c, 12, 61, 112
13, 608880, Note_off_c, 12, 61, 64
13, 609000, Note_on_c, 12, 64, 120
13, 609120, Note_off_c, 12, 64, 64
13, 609240, Note_on_c, 12, 62, 120
13, 609360, Note_off_c, 12, 62, 64
13, 609480, Note_on_c, 12, 61, 120
13, 609600, Note_off_c, 12, 61, 64
13, 609720, Note_on_c, 12, 59, 120
13, 609840, Note_off_c, 12, 59, 64
13, 609960, Note_on_c, 12, 57, 120
13, 610080, Note_off_c, 12, 57, 64
13, 610200, Note_on_c, 12, 55, 120
13, 610320, Note_off_c, 12, 55, 64
13, 610440, Note_on_c, 12, 54, 120
13, 610560, Note_off_c, 12, 54, 64
13, 610680, Note_on_c, 12, 52, 120
13, 610800, Note_off_c, 12, 52, 64
13, 610920, Note_on_c, 12, 50, 120
13, 611040, Note_off_c, 12, 50, 64
13, 611160, Note_on_c, 12, 49, 120
13, 611280, Note_off_c, 12, 49, 64
13, 611400, Note_on_c, 12, 47, 120
13, 611520, Note_off_c, 12, 47, 64
13, 611640, Note_on_c, 12, 45, 120
13, 611760, Note_off_c, 12, 45, 64
13, 611880, Note_on_c, 12, 43, 120
13, 612000, Note_off_c, 12, 43, 64
13, 612120, Note_on_c, 12, 42, 120
13, 612240, Note_off_c, 12, 42, 64
13, 612360, Note_on_c, 12, 40, 120
13, 612480, Note_off_c, 12, 40, 64
13, 612600, Note_on_c, 12, 38, 120
13, 612720, Note_off_c, 12, 38, 64
13, 612840, Note_on_c, 12, 37, 127
13, 612936, Note_off_c, 12, 37, 64
13, 612960, Note_on_c, 12, 37, 127
13, 613056, Note_off_c, 12, 37, 64
13, 613080, Note_on_c, 12, 37, 127
13, 613176, Note_off_c, 12, 37, 64
13, 613200, Note_on_c, 12, 37, 127
13, 613296, Note_off_c, 12, 37, 64
13, 613320, Note_on_c, 12, 37, 127
13, 613416, Note_off_c, 12, 37, 64
13, 613440, Note_on_c, 12, 37, 127
13, 613536, Note_off_c, 12, 37, 64
13, 613560, Note_on_c, 12, 37, 127
13, 613656, Note_off_c, 12, 37, 64
13, 613680, Note_on_c, 12, 37, 127
13, 613776, Note_off_c, 12, 37, 64
13, 613800, Note_on_c, 12, 38, 127
13, 613896, Note_off_c, 12, 38, 64
13, 613920, Note_on_c, 12, 38, 127
13, 614016, Note_off_c, 12, 38, 64
13, 614040, Note_on_c, 12, 38, 127
13, 614136, Note_off_c, 12, 38, 64
13, 614160, Note_on_c, 12, 38, 127
13, 614256, Note_off_c, 12, 38, 64
13, 614280, Note_on_c, 12, 38, 127
13, 614376, Note_off_c, 12, 38, 64
13, 614400, Note_on_c, 12, 38, 127
13, 614496, Note_off_c, 12, 38, 64
13, 614520, Note_on_c, 12, 38, 127
13, 614616, Note_off_c, 12, 38, 64
13, 614640, Note_on_c, 12, 38, 127
13, 614736, Note_off_c, 12, 38, 64
13, 614760, Note_on_c, 12, 40, 127
13, 614856, Note_off_c, 12, 40, 64
13, 614880, Note_on_c, 12, 40, 127
13, 614976, Note_off_c, 12, 40, 64
13, 615000, Note_on_c, 12, 40, 127
13, 615096, Note_off_c, 12, 40, 64
13, 615120, Note_on_c, 12, 40, 127
13, 615216, Note_off_c, 12, 40, 64
13, 615240, Note_on_c, 12, 40, 127
13, 615336, Note_off_c, 12, 40, 64
13, 615360, Note_on_c, 12, 40, 127
13, 615456, Note_off_c, 12, 40, 64
13, 615480, Note_on_c, 12, 40, 127
13, 615576, Note_off_c, 12, 40, 64
13, 615600, Note_on_c, 12, 40, 127
13, 615696, Note_off_c, 12, 40, 64
13, 615720, Note_on_c, 12, 40, 127
13, 615816, Note_off_c, 12, 40, 64
13, 615840, Note_on_c, 12, 40, 127
13, 615936, Note_off_c, 12, 40, 64
13, 615960, Note_on_c, 12, 40, 127
13, 616056, Note_off_c, 12, 40, 64
13, 616080, Note_on_c, 12, 40, 127
13, 616176, Note_off_c, 12, 40, 64
13, 616200, Note_on_c, 12, 40, 127
13, 616296, Note_off_c, 12, 40, 64
13, 616320, Note_on_c, 12, 40, 127
13, 616416, Note_off_c, 12, 40, 64
13, 616440, Note_on_c, 12, 40, 127
13, 616536, Note_off_c, 12, 40, 64
13, 616560, Note_on_c, 12, 40, 127
13, 616656, Note_off_c, 12, 40, 64
13, 616680, Note_on_c, 12, 45, 127
13, 616872, Note_off_c, 12, 45, 64
13, 618120, Note_on_c, 12, 64, 127
13, 618600, Note_off_c, 12, 64, 64
13, 618600, Note_on_c, 12, 57, 127
13, 619080, Note_off_c, 12, 57, 64
13, 619080, Note_on_c, 12, 52, 127
13, 619560, Note_off_c, 12, 52, 64
13, 619560, Note_on_c, 12, 45, 127
13, 620040, Note_off_c, 12, 45, 64
13, 620040, Note_on_c, 12, 40, 127
13, 620520, Note_off_c, 12, 40, 64
13, 620520, Note_on_c, 12, 45, 127
13, 620712, Note_off_c, 12, 45, 64
13, 621960, Note_on_c, 12, 64, 127
13, 622440, Note_off_c, 12, 64, 64
13, 622440, Note_on_c, 12, 57, 127
13, 622920, Note_off_c, 12, 57, 64
13, 622920, Note_on_c, 12, 52, 127
13, 623400, Note_off_c, 12, 52, 64
13, 623400, Note_on_c, 12, 45, 127
13, 623880, Note_off_c, 12, 45, 64
13, 623880, Note_on_c, 12, 40, 127
13, 624360, Note_off_c, 12, 40, 64
13, 624360, Note_on_c, 12, 40, 127
13, 624456, Note_off_c, 12, 40, 64
13, 624480, Note_on_c, 12, 40, 99
13, 624576, Note_off_c, 12, 40, 64
13, 624600, Note_on_c, 12, 40, 99
13, 624696, Note_off_c, 12, 40, 64
13, 624720, Note_on_c, 12, 40, 99
13, 624816, Note_off_c, 12, 40, 64
13, 624840, Note_on_c, 12, 40, 127
13, 624936, Note_off_c, 12, 40, 64
13, 624960, Note_on_c, 12, 40, 99
13, 625056, Note_off_c, 12, 40, 64
13, 625080, Note_on_c, 12, 40, 99
13, 625176, Note_off_c, 12, 40, 64
13, 625200, Note_on_c, 12, 40, 99
13, 625296, Note_off_c, 12, 40, 64
13, 625320, Note_on_c, 12, 40, 127
13, 625416, Note_off_c, 12, 40, 64
13, 625440, Note_on_c, 12, 40, 99
13, 625536, Note_off_c, 12, 40, 64
13, 625560, Note_on_c, 12, 40, 99
13, 625656, Note_off_c, 12, 40, 64
13, 625680, Note_on_c, 12, 40, 99
13, 625776, Note_off_c, 12, 40, 64
13, 625800, Note_on_c, 12, 40, 127
13, 625896, Note_off_c, 12, 40, 64
13, 625920, Note_on_c, 12, 40, 99
13, 626016, Note_off_c, 12, 40, 64
13, 626040, Note_on_c, 12, 40, 99
13, 626136, Note_off_c, 12, 40, 64
13, 626160, Note_on_c, 12, 40, 99
13, 626256, Note_off_c, 12, 40, 64
13, 626280, Note_on_c, 12, 40, 127
13, 626376, Note_off_c, 12, 40, 64
13, 626400, Note_on_c, 12, 40, 127
13, 626496, Note_off_c, 12, 40, 64
13, 626520, Note_on_c, 12, 40, 127
13, 626616, Note_off_c, 12, 40, 64
13, 626640, Note_on_c, 12, 40, 127
13, 626736, Note_off_c, 12, 40, 64
13, 626760, Note_on_c, 12, 40, 127
13, 626856, Note_off_c, 12, 40, 64
13, 626880, Note_on_c, 12, 40, 127
13, 626976, Note_off_c, 12, 40, 64
13, 627000, Note_on_c, 12, 40, 127
13, 627096, Note_off_c, 12, 40, 64
13, 627120, Note_on_c, 12, 40, 127
13, 627216, Note_off_c, 12, 40, 64
13, 627240, Note_on_c, 12, 40, 127
13, 627336, Note_off_c, 12, 40, 64
13, 627360, Note_on_c, 12, 40, 127
13, 627456, Note_off_c, 12, 40, 64
13, 627480, Note_on_c, 12, 40, 127
13, 627576, Note_off_c, 12, 40, 64
13, 627600, Note_on_c, 12, 40, 127
13, 627696, Note_off_c, 12, 40, 64
13, 627720, Note_on_c, 12, 40, 127
13, 627816, Note_off_c, 12, 40, 64
13, 627840, Note_on_c, 12, 40, 127
13, 627936, Note_off_c, 12, 40, 64
13, 627960, Note_on_c, 12, 40, 127
13, 628056, Note_off_c, 12, 40, 64
13, 628080, Note_on_c, 12, 40, 127
13, 628176, Note_off_c, 12, 40, 64
13, 628200, Note_on_c, 12, 45, 127
13, 628320, Note_off_c, 12, 45, 64
13, 628440, Control_c, 12, 7, 126
13, 629280, Note_on_c, 12, 45, 127
13, 629400, Note_off_c, 12, 45, 64
13, 630480, Note_on_c, 12, 45, 127
13, 630600, Note_off_c, 12, 45, 64
13, 630600, End_track
14, 0, Start_track
14, 0, Title_t, "Bass"
14, 0, MIDI_port, 0
14, 0, Channel_prefix, 13
14, 0, Control_c, 13, 7, 90
14, 0, Control_c, 13, 10, 102
14, 0, Program_c, 13, 48
14, 0, Control_c, 13, 91, 66
14, 0, Program_c, 13, 48
14, 480, Control_c, 13, 93, 90
14, 480, Control_c, 13, 10, 85
14, 1920, Control_c, 13, 7, 110
14, 5760, Note_on_c, 13, 28, 114
14, 5904, Note_off_c, 13, 28, 64
14, 8160, Note_on_c, 13, 28, 114
14, 8304, Note_off_c, 13, 28, 64
14, 10560, Note_on_c, 13, 28, 127
14, 10680, Note_off_c, 13, 28, 64
14, 11040, Note_on_c, 13, 28, 127
14, 11640, Note_off_c, 13, 28, 64
14, 12000, Note_on_c, 13, 28, 127
14, 12600, Note_off_c, 13, 28, 64
14, 12960, Note_on_c, 13, 28, 127
14, 13560, Note_off_c, 13, 28, 64
14, 13920, Note_on_c, 13, 28, 127
14, 14520, Note_off_c, 13, 28, 64
14, 14880, Note_on_c, 13, 28, 127
14, 15480, Note_off_c, 13, 28, 64
14, 15840, Note_on_c, 13, 28, 127
14, 16440, Note_off_c, 13, 28, 64
14, 16800, Note_on_c, 13, 28, 127
14, 17280, Note_off_c, 13, 28, 64
14, 17280, Note_on_c, 13, 33, 127
14, 17400, Note_off_c, 13, 33, 64
14, 18240, Note_on_c, 13, 28, 127
14, 18360, Note_off_c, 13, 28, 64
14, 18720, Note_on_c, 13, 28, 127
14, 19320, Note_off_c, 13, 28, 64
14, 19680, Note_on_c, 13, 28, 127
14, 20280, Note_off_c, 13, 28, 64
14, 20640, Note_on_c, 13, 28, 127
14, 21240, Note_off_c, 13, 28, 64
14, 21600, Note_on_c, 13, 28, 127
14, 22200, Note_off_c, 13, 28, 64
14, 22560, Note_on_c, 13, 28, 127
14, 23160, Note_off_c, 13, 28, 64
14, 23520, Note_on_c, 13, 28, 127
14, 24120, Note_off_c, 13, 28, 64
14, 24480, Note_on_c, 13, 28, 127
14, 24960, Note_off_c, 13, 28, 64
14, 24960, Note_on_c, 13, 33, 127
14, 25080, Note_off_c, 13, 33, 64
14, 25920, Note_on_c, 13, 26, 127
14, 26040, Note_off_c, 13, 26, 64
14, 26400, Note_on_c, 13, 26, 127
14, 26880, Note_off_c, 13, 26, 64
14, 26880, Note_on_c, 13, 25, 108
14, 27000, Note_off_c, 13, 25, 64
14, 27360, Note_on_c, 13, 25, 127
14, 27840, Note_off_c, 13, 25, 64
14, 27840, Note_on_c, 13, 26, 108
14, 27960, Note_off_c, 13, 26, 64
14, 28320, Note_on_c, 13, 26, 127
14, 28800, Note_off_c, 13, 26, 64
14, 28800, Note_on_c, 13, 25, 108
14, 28920, Note_off_c, 13, 25, 64
14, 29280, Note_on_c, 13, 30, 127
14, 29760, Note_off_c, 13, 30, 64
14, 29760, Note_on_c, 13, 35, 108
14, 29880, Note_off_c, 13, 35, 64
14, 30240, Note_on_c, 13, 28, 127
14, 30720, Note_off_c, 13, 28, 64
14, 30720, Note_on_c, 13, 33, 108
14, 30840, Note_off_c, 13, 33, 64
14, 31200, Note_on_c, 13, 25, 127
14, 31680, Note_off_c, 13, 25, 64
14, 31680, Note_on_c, 13, 28, 108
14, 31800, Note_off_c, 13, 28, 64
14, 32160, Note_on_c, 13, 28, 127
14, 32640, Note_off_c, 13, 28, 64
14, 32640, Note_on_c, 13, 33, 127
14, 32760, Note_off_c, 13, 33, 64
14, 33600, Note_on_c, 13, 26, 127
14, 33720, Note_off_c, 13, 26, 64
14, 34080, Note_on_c, 13, 26, 127
14, 34560, Note_off_c, 13, 26, 64
14, 34560, Note_on_c, 13, 25, 108
14, 34680, Note_off_c, 13, 25, 64
14, 35040, Note_on_c, 13, 25, 127
14, 35520, Note_off_c, 13, 25, 64
14, 35520, Note_on_c, 13, 26, 108
14, 35640, Note_off_c, 13, 26, 64
14, 36000, Note_on_c, 13, 26, 127
14, 36480, Note_off_c, 13, 26, 64
14, 36480, Note_on_c, 13, 25, 108
14, 36600, Note_off_c, 13, 25, 64
14, 36960, Note_on_c, 13, 30, 127
14, 37440, Note_off_c, 13, 30, 64
14, 37440, Note_on_c, 13, 35, 108
14, 37560, Note_off_c, 13, 35, 64
14, 37920, Note_on_c, 13, 28, 127
14, 38400, Note_off_c, 13, 28, 64
14, 38400, Note_on_c, 13, 33, 108
14, 38520, Note_off_c, 13, 33, 64
14, 38880, Note_on_c, 13, 25, 127
14, 39360, Note_off_c, 13, 25, 64
14, 39360, Note_on_c, 13, 28, 108
14, 39480, Note_off_c, 13, 28, 64
14, 39840, Note_on_c, 13, 28, 127
14, 40320, Note_off_c, 13, 28, 64
14, 40320, Note_on_c, 13, 33, 127
14, 40440, Note_off_c, 13, 33, 64
14, 41400, Note_on_c, 13, 33, 127
14, 41520, Note_off_c, 13, 33, 64
14, 42480, Note_on_c, 13, 28, 127
14, 42600, Note_off_c, 13, 28, 64
14, 43560, Note_on_c, 13, 28, 127
14, 43680, Note_off_c, 13, 28, 64
14, 44640, Note_on_c, 13, 33, 127
14, 44760, Note_off_c, 13, 33, 64
14, 45120, Note_on_c, 13, 33, 127
14, 45240, Note_off_c, 13, 33, 64
14, 45600, Note_on_c, 13, 33, 127
14, 45720, Note_off_c, 13, 33, 64
14, 46080, Note_on_c, 13, 33, 127
14, 46200, Note_off_c, 13, 33, 64
14, 46560, Note_on_c, 13, 28, 127
14, 46680, Note_off_c, 13, 28, 64
14, 47040, Note_on_c, 13, 28, 127
14, 47160, Note_off_c, 13, 28, 64
14, 47520, Note_on_c, 13, 28, 127
14, 47640, Note_off_c, 13, 28, 64
14, 48000, Note_on_c, 13, 28, 127
14, 48120, Note_off_c, 13, 28, 64
14, 48480, Note_on_c, 13, 33, 127
14, 48600, Note_off_c, 13, 33, 64
14, 49560, Note_on_c, 13, 33, 127
14, 49680, Note_off_c, 13, 33, 64
14, 50640, Note_on_c, 13, 28, 127
14, 50760, Note_off_c, 13, 28, 64
14, 51720, Note_on_c, 13, 28, 127
14, 51840, Note_off_c, 13, 28, 64
14, 52800, Note_on_c, 13, 33, 100
14, 52920, Note_off_c, 13, 33, 64
14, 53040, Note_on_c, 13, 33, 100
14, 53160, Note_off_c, 13, 33, 64
14, 53280, Note_on_c, 13, 33, 100
14, 53400, Note_off_c, 13, 33, 64
14, 53520, Note_on_c, 13, 33, 100
14, 53640, Note_off_c, 13, 33, 64
14, 53760, Note_on_c, 13, 33, 100
14, 53880, Note_off_c, 13, 33, 64
14, 54000, Note_on_c, 13, 33, 100
14, 54120, Note_off_c, 13, 33, 64
14, 54240, Note_on_c, 13, 33, 100
14, 54360, Note_off_c, 13, 33, 64
14, 54480, Note_on_c, 13, 33, 100
14, 54600, Note_off_c, 13, 33, 64
14, 54720, Note_on_c, 13, 28, 100
14, 54840, Note_off_c, 13, 28, 64
14, 54960, Note_on_c, 13, 28, 100
14, 55080, Note_off_c, 13, 28, 64
14, 55200, Note_on_c, 13, 28, 100
14, 55320, Note_off_c, 13, 28, 64
14, 55440, Note_on_c, 13, 28, 100
14, 55560, Note_off_c, 13, 28, 64
14, 55680, Note_on_c, 13, 28, 100
14, 55800, Note_off_c, 13, 28, 64
14, 55920, Note_on_c, 13, 28, 100
14, 56040, Note_off_c, 13, 28, 64
14, 56160, Note_on_c, 13, 28, 100
14, 56280, Note_off_c, 13, 28, 64
14, 56400, Note_on_c, 13, 28, 100
14, 56520, Note_off_c, 13, 28, 64
14, 56640, Note_on_c, 13, 33, 80
14, 56832, Note_off_c, 13, 33, 64
14, 58080, Note_on_c, 13, 52, 80
14, 58560, Note_off_c, 13, 52, 64
14, 58560, Note_on_c, 13, 45, 80
14, 59040, Note_off_c, 13, 45, 64
14, 59040, Note_on_c, 13, 40, 80
14, 59520, Note_off_c, 13, 40, 64
14, 59520, Note_on_c, 13, 33, 80
14, 60000, Note_off_c, 13, 33, 64
14, 60000, Note_on_c, 13, 28, 80
14, 60480, Note_off_c, 13, 28, 64
14, 60480, Note_on_c, 13, 33, 80
14, 60720, Note_off_c, 13, 33, 64
14, 61920, Note_on_c, 13, 52, 80
14, 62400, Note_off_c, 13, 52, 64
14, 62400, Note_on_c, 13, 45, 80
14, 62880, Note_off_c, 13, 45, 64
14, 62880, Note_on_c, 13, 40, 80
14, 63360, Note_off_c, 13, 40, 64
14, 63360, Note_on_c, 13, 33, 80
14, 63840, Note_off_c, 13, 33, 64
14, 63840, Note_on_c, 13, 37, 80
14, 64320, Note_off_c, 13, 37, 64
14, 64320, Note_on_c, 13, 30, 80
14, 64560, Note_off_c, 13, 30, 64
14, 65760, Note_on_c, 13, 49, 80
14, 66240, Note_off_c, 13, 49, 64
14, 66240, Note_on_c, 13, 54, 80
14, 66720, Note_off_c, 13, 54, 64
14, 66720, Note_on_c, 13, 49, 80
14, 67200, Note_off_c, 13, 49, 64
14, 67200, Note_on_c, 13, 42, 80
14, 67680, Note_off_c, 13, 42, 64
14, 67680, Note_on_c, 13, 37, 80
14, 68160, Note_off_c, 13, 37, 64
14, 68160, Note_on_c, 13, 30, 80
14, 68400, Note_off_c, 13, 30, 64
14, 69600, Note_on_c, 13, 49, 80
14, 70080, Note_off_c, 13, 49, 64
14, 70080, Note_on_c, 13, 54, 80
14, 70560, Note_off_c, 13, 54, 64
14, 70560, Note_on_c, 13, 49, 80
14, 71040, Note_off_c, 13, 49, 64
14, 71040, Note_on_c, 13, 42, 80
14, 71520, Note_off_c, 13, 42, 64
14, 71520, Note_on_c, 13, 37, 80
14, 72000, Note_off_c, 13, 37, 64
14, 72000, Note_on_c, 13, 30, 110
14, 72114, Note_off_c, 13, 30, 64
14, 72360, Note_on_c, 13, 42, 80
14, 72474, Note_off_c, 13, 42, 64
14, 72480, Note_on_c, 13, 42, 80
14, 72594, Note_off_c, 13, 42, 64
14, 72840, Note_on_c, 13, 42, 80
14, 72954, Note_off_c, 13, 42, 64
14, 72960, Note_on_c, 13, 42, 80
14, 73074, Note_off_c, 13, 42, 64
14, 73320, Note_on_c, 13, 42, 80
14, 73434, Note_off_c, 13, 42, 64
14, 73440, Note_on_c, 13, 42, 80
14, 73554, Note_off_c, 13, 42, 64
14, 73800, Note_on_c, 13, 42, 80
14, 73914, Note_off_c, 13, 42, 64
14, 73920, Note_on_c, 13, 41, 80
14, 74034, Note_off_c, 13, 41, 64
14, 74280, Note_on_c, 13, 41, 80
14, 74394, Note_off_c, 13, 41, 64
14, 74400, Note_on_c, 13, 41, 80
14, 74514, Note_off_c, 13, 41, 64
14, 74760, Note_on_c, 13, 41, 80
14, 74874, Note_off_c, 13, 41, 64
14, 74880, Note_on_c, 13, 41, 80
14, 74994, Note_off_c, 13, 41, 64
14, 75240, Note_on_c, 13, 41, 80
14, 75354, Note_off_c, 13, 41, 64
14, 75360, Note_on_c, 13, 41, 80
14, 75474, Note_off_c, 13, 41, 64
14, 75720, Note_on_c, 13, 41, 80
14, 75834, Note_off_c, 13, 41, 64
14, 75840, Note_on_c, 13, 42, 80
14, 75954, Note_off_c, 13, 42, 64
14, 76200, Note_on_c, 13, 42, 80
14, 76314, Note_off_c, 13, 42, 64
14, 76320, Note_on_c, 13, 42, 80
14, 76434, Note_off_c, 13, 42, 64
14, 76680, Note_on_c, 13, 42, 80
14, 76794, Note_off_c, 13, 42, 64
14, 76800, Note_on_c, 13, 40, 110
14, 76914, Note_off_c, 13, 40, 64
14, 77160, Note_on_c, 13, 40, 80
14, 77274, Note_off_c, 13, 40, 64
14, 77280, Note_on_c, 13, 40, 80
14, 77394, Note_off_c, 13, 40, 64
14, 77640, Note_on_c, 13, 40, 80
14, 77754, Note_off_c, 13, 40, 64
14, 77760, Note_on_c, 13, 39, 110
14, 77874, Note_off_c, 13, 39, 64
14, 78120, Note_on_c, 13, 39, 80
14, 78234, Note_off_c, 13, 39, 64
14, 78240, Note_on_c, 13, 39, 80
14, 78354, Note_off_c, 13, 39, 64
14, 78600, Note_on_c, 13, 39, 80
14, 78714, Note_off_c, 13, 39, 64
14, 78720, Note_on_c, 13, 37, 110
14, 78834, Note_off_c, 13, 37, 64
14, 79080, Note_on_c, 13, 37, 80
14, 79194, Note_off_c, 13, 37, 64
14, 79200, Note_on_c, 13, 37, 80
14, 79314, Note_off_c, 13, 37, 64
14, 79560, Note_on_c, 13, 37, 80
14, 79674, Note_off_c, 13, 37, 64
14, 79680, Note_on_c, 13, 36, 110
14, 79794, Note_off_c, 13, 36, 64
14, 80040, Note_on_c, 13, 33, 80
14, 80154, Note_off_c, 13, 33, 64
14, 80160, Note_on_c, 13, 33, 80
14, 80274, Note_off_c, 13, 33, 64
14, 80520, Note_on_c, 13, 33, 80
14, 80634, Note_off_c, 13, 33, 64
14, 80640, Note_on_c, 13, 33, 80
14, 80754, Note_off_c, 13, 33, 64
14, 81000, Note_on_c, 13, 33, 80
14, 81114, Note_off_c, 13, 33, 64
14, 81120, Note_on_c, 13, 33, 80
14, 81234, Note_off_c, 13, 33, 64
14, 81480, Note_on_c, 13, 33, 80
14, 81594, Note_off_c, 13, 33, 64
14, 81600, Note_on_c, 13, 32, 127
14, 81714, Note_off_c, 13, 32, 64
14, 82080, Note_on_c, 13, 32, 127
14, 82194, Note_off_c, 13, 32, 64
14, 85920, Note_on_c, 13, 32, 127
14, 86034, Note_off_c, 13, 32, 64
14, 93120, Note_on_c, 13, 37, 64
14, 93192, Note_off_c, 13, 37, 64
14, 93480, Note_on_c, 13, 49, 64
14, 93600, Note_off_c, 13, 49, 64
14, 93600, Note_on_c, 13, 49, 96
14, 94050, Note_off_c, 13, 49, 64
14, 94080, Note_on_c, 13, 32, 77
14, 94152, Note_off_c, 13, 32, 64
14, 94440, Note_on_c, 13, 44, 64
14, 94560, Note_off_c, 13, 44, 64
14, 94560, Note_on_c, 13, 44, 96
14, 95010, Note_off_c, 13, 44, 64
14, 95040, Note_on_c, 13, 37, 77
14, 95112, Note_off_c, 13, 37, 64
14, 95400, Note_on_c, 13, 49, 64
14, 95520, Note_off_c, 13, 49, 64
14, 95520, Note_on_c, 13, 49, 96
14, 95970, Note_off_c, 13, 49, 64
14, 96000, Note_on_c, 13, 32, 77
14, 96072, Note_off_c, 13, 32, 64
14, 96360, Note_on_c, 13, 44, 64
14, 96480, Note_off_c, 13, 44, 64
14, 96480, Note_on_c, 13, 44, 96
14, 96930, Note_off_c, 13, 44, 64
14, 96960, Note_on_c, 13, 37, 64
14, 97186, Note_off_c, 13, 37, 64
14, 101760, Note_on_c, 13, 32, 46
14, 102720, Note_off_c, 13, 32, 64
14, 102720, Note_on_c, 13, 37, 64
14, 102792, Note_off_c, 13, 37, 64
14, 103080, Note_on_c, 13, 49, 64
14, 103200, Note_off_c, 13, 49, 64
14, 103200, Note_on_c, 13, 49, 96
14, 103650, Note_off_c, 13, 49, 64
14, 103680, Note_on_c, 13, 32, 77
14, 103752, Note_off_c, 13, 32, 64
14, 104040, Note_on_c, 13, 44, 64
14, 104160, Note_off_c, 13, 44, 64
14, 104160, Note_on_c, 13, 44, 96
14, 104610, Note_off_c, 13, 44, 64
14, 104640, Note_on_c, 13, 37, 77
14, 104712, Note_off_c, 13, 37, 64
14, 105000, Note_on_c, 13, 49, 64
14, 105120, Note_off_c, 13, 49, 64
14, 105120, Note_on_c, 13, 49, 96
14, 105570, Note_off_c, 13, 49, 64
14, 105600, Note_on_c, 13, 32, 77
14, 105672, Note_off_c, 13, 32, 64
14, 105960, Note_on_c, 13, 44, 64
14, 106080, Note_off_c, 13, 44, 64
14, 106080, Note_on_c, 13, 44, 96
14, 106530, Note_off_c, 13, 44, 64
14, 106560, Note_on_c, 13, 37, 64
14, 106786, Note_off_c, 13, 37, 64
14, 114720, Note_on_c, 13, 37, 80
14, 114912, Note_off_c, 13, 37, 64
14, 115680, Note_on_c, 13, 38, 80
14, 115872, Note_off_c, 13, 38, 64
14, 116640, Note_on_c, 13, 33, 96
14, 116832, Note_off_c, 13, 33, 64
14, 117600, Note_on_c, 13, 33, 96
14, 117792, Note_off_c, 13, 33, 64
14, 118560, Note_on_c, 13, 33, 115
14, 118752, Note_off_c, 13, 33, 64
14, 119520, Note_on_c, 13, 33, 115
14, 119712, Note_off_c, 13, 33, 64
14, 120480, Note_on_c, 13, 37, 95
14, 120672, Note_off_c, 13, 37, 64
14, 121440, Note_on_c, 13, 38, 72
14, 121632, Note_off_c, 13, 38, 64
14, 121920, Note_on_c, 13, 36, 99
14, 122016, Note_off_c, 13, 36, 64
14, 122040, Note_on_c, 13, 36, 99
14, 122136, Note_off_c, 13, 36, 64
14, 122160, Note_on_c, 13, 36, 99
14, 122256, Note_off_c, 13, 36, 64
14, 122280, Note_on_c, 13, 36, 99
14, 122376, Note_off_c, 13, 36, 64
14, 122400, Note_on_c, 13, 36, 99
14, 122496, Note_off_c, 13, 36, 64
14, 122520, Note_on_c, 13, 36, 99
14, 122616, Note_off_c, 13, 36, 64
14, 122640, Note_on_c, 13, 36, 99
14, 122736, Note_off_c, 13, 36, 64
14, 122760, Note_on_c, 13, 36, 99
14, 122856, Note_off_c, 13, 36, 64
14, 122880, Note_on_c, 13, 36, 99
14, 122976, Note_off_c, 13, 36, 64
14, 123000, Note_on_c, 13, 36, 99
14, 123096, Note_off_c, 13, 36, 64
14, 123120, Note_on_c, 13, 36, 99
14, 123216, Note_off_c, 13, 36, 64
14, 123240, Note_on_c, 13, 36, 99
14, 123336, Note_off_c, 13, 36, 64
14, 123360, Note_on_c, 13, 36, 99
14, 123456, Note_off_c, 13, 36, 64
14, 123480, Note_on_c, 13, 36, 99
14, 123576, Note_off_c, 13, 36, 64
14, 123600, Note_on_c, 13, 36, 99
14, 123696, Note_off_c, 13, 36, 64
14, 123720, Note_on_c, 13, 36, 99
14, 123816, Note_off_c, 13, 36, 64
14, 123840, Note_on_c, 13, 37, 127
14, 123936, Note_off_c, 13, 37, 64
14, 123960, Note_on_c, 13, 37, 99
14, 124056, Note_off_c, 13, 37, 64
14, 124080, Note_on_c, 13, 37, 99
14, 124176, Note_off_c, 13, 37, 64
14, 124200, Note_on_c, 13, 37, 99
14, 124296, Note_off_c, 13, 37, 64
14, 124320, Note_on_c, 13, 37, 99
14, 124416, Note_off_c, 13, 37, 64
14, 124440, Note_on_c, 13, 37, 99
14, 124536, Note_off_c, 13, 37, 64
14, 124560, Note_on_c, 13, 37, 99
14, 124656, Note_off_c, 13, 37, 64
14, 124680, Note_on_c, 13, 37, 99
14, 124776, Note_off_c, 13, 37, 64
14, 124800, Note_on_c, 13, 36, 127
14, 124896, Note_off_c, 13, 36, 64
14, 124920, Note_on_c, 13, 36, 99
14, 125016, Note_off_c, 13, 36, 64
14, 125040, Note_on_c, 13, 36, 99
14, 125136, Note_off_c, 13, 36, 64
14, 125160, Note_on_c, 13, 36, 99
14, 125256, Note_off_c, 13, 36, 64
14, 125280, Note_on_c, 13, 36, 99
14, 125376, Note_off_c, 13, 36, 64
14, 125400, Note_on_c, 13, 36, 99
14, 125496, Note_off_c, 13, 36, 64
14, 125520, Note_on_c, 13, 36, 99
14, 125616, Note_off_c, 13, 36, 64
14, 125640, Note_on_c, 13, 36, 99
14, 125736, Note_off_c, 13, 36, 64
14, 125760, Note_on_c, 13, 37, 127
14, 125856, Note_off_c, 13, 37, 64
14, 125880, Note_on_c, 13, 37, 99
14, 125976, Note_off_c, 13, 37, 64
14, 126000, Note_on_c, 13, 37, 99
14, 126096, Note_off_c, 13, 37, 64
14, 126120, Note_on_c, 13, 37, 99
14, 126216, Note_off_c, 13, 37, 64
14, 126240, Note_on_c, 13, 37, 99
14, 126336, Note_off_c, 13, 37, 64
14, 126360, Note_on_c, 13, 37, 99
14, 126456, Note_off_c, 13, 37, 64
14, 126480, Note_on_c, 13, 37, 99
14, 126576, Note_off_c, 13, 37, 64
14, 126600, Note_on_c, 13, 37, 99
14, 126696, Note_off_c, 13, 37, 64
14, 126720, Note_on_c, 13, 36, 127
14, 126816, Note_off_c, 13, 36, 64
14, 126840, Note_on_c, 13, 36, 99
14, 126936, Note_off_c, 13, 36, 64
14, 126960, Note_on_c, 13, 36, 99
14, 127056, Note_off_c, 13, 36, 64
14, 127080, Note_on_c, 13, 36, 99
14, 127176, Note_off_c, 13, 36, 64
14, 127200, Note_on_c, 13, 36, 99
14, 127296, Note_off_c, 13, 36, 64
14, 127320, Note_on_c, 13, 36, 99
14, 127416, Note_off_c, 13, 36, 64
14, 127440, Note_on_c, 13, 36, 99
14, 127536, Note_off_c, 13, 36, 64
14, 127560, Note_on_c, 13, 36, 99
14, 127656, Note_off_c, 13, 36, 64
14, 127680, Note_on_c, 13, 37, 127
14, 127776, Note_off_c, 13, 37, 64
14, 127800, Note_on_c, 13, 37, 99
14, 127896, Note_off_c, 13, 37, 64
14, 127920, Note_on_c, 13, 37, 99
14, 128016, Note_off_c, 13, 37, 64
14, 128040, Note_on_c, 13, 37, 99
14, 128136, Note_off_c, 13, 37, 64
14, 128160, Note_on_c, 13, 37, 99
14, 128256, Note_off_c, 13, 37, 64
14, 128280, Note_on_c, 13, 37, 99
14, 128376, Note_off_c, 13, 37, 64
14, 128400, Note_on_c, 13, 37, 99
14, 128496, Note_off_c, 13, 37, 64
14, 128520, Note_on_c, 13, 37, 99
14, 128616, Note_off_c, 13, 37, 64
14, 128640, Note_on_c, 13, 30, 127
14, 128736, Note_off_c, 13, 30, 64
14, 128760, Note_on_c, 13, 30, 99
14, 128856, Note_off_c, 13, 30, 64
14, 128880, Note_on_c, 13, 30, 99
14, 128976, Note_off_c, 13, 30, 64
14, 129000, Note_on_c, 13, 30, 99
14, 129096, Note_off_c, 13, 30, 64
14, 129120, Note_on_c, 13, 30, 99
14, 129216, Note_off_c, 13, 30, 64
14, 129240, Note_on_c, 13, 30, 99
14, 129336, Note_off_c, 13, 30, 64
14, 129360, Note_on_c, 13, 30, 99
14, 129456, Note_off_c, 13, 30, 64
14, 129480, Note_on_c, 13, 30, 99
14, 129576, Note_off_c, 13, 30, 64
14, 129600, Note_on_c, 13, 32, 127
14, 129696, Note_off_c, 13, 32, 64
14, 129720, Note_on_c, 13, 32, 99
14, 129816, Note_off_c, 13, 32, 64
14, 129840, Note_on_c, 13, 32, 99
14, 129936, Note_off_c, 13, 32, 64
14, 129960, Note_on_c, 13, 32, 99
14, 130056, Note_off_c, 13, 32, 64
14, 130080, Note_on_c, 13, 32, 99
14, 130176, Note_off_c, 13, 32, 64
14, 130200, Note_on_c, 13, 32, 99
14, 130296, Note_off_c, 13, 32, 64
14, 130320, Note_on_c, 13, 32, 99
14, 130416, Note_off_c, 13, 32, 64
14, 130440, Note_on_c, 13, 32, 99
14, 130536, Note_off_c, 13, 32, 64
14, 130560, Note_on_c, 13, 32, 127
14, 130656, Note_off_c, 13, 32, 64
14, 130680, Note_on_c, 13, 32, 99
14, 130776, Note_off_c, 13, 32, 64
14, 130800, Note_on_c, 13, 32, 99
14, 130896, Note_off_c, 13, 32, 64
14, 130920, Note_on_c, 13, 32, 99
14, 131016, Note_off_c, 13, 32, 64
14, 131040, Note_on_c, 13, 32, 99
14, 131136, Note_off_c, 13, 32, 64
14, 131160, Note_on_c, 13, 32, 99
14, 131256, Note_off_c, 13, 32, 64
14, 131280, Note_on_c, 13, 32, 99
14, 131376, Note_off_c, 13, 32, 64
14, 131400, Note_on_c, 13, 32, 99
14, 131496, Note_off_c, 13, 32, 64
14, 131520, Note_on_c, 13, 37, 99
14, 131616, Note_off_c, 13, 37, 64
14, 131640, Note_on_c, 13, 37, 99
14, 131736, Note_off_c, 13, 37, 64
14, 131760, Note_on_c, 13, 37, 99
14, 131856, Note_off_c, 13, 37, 64
14, 131880, Note_on_c, 13, 37, 99
14, 131976, Note_off_c, 13, 37, 64
14, 132000, Note_on_c, 13, 37, 127
14, 132096, Note_off_c, 13, 37, 64
14, 132120, Note_on_c, 13, 37, 99
14, 132216, Note_off_c, 13, 37, 64
14, 132240, Note_on_c, 13, 37, 99
14, 132336, Note_off_c, 13, 37, 64
14, 132360, Note_on_c, 13, 37, 99
14, 132456, Note_off_c, 13, 37, 64
14, 132480, Note_on_c, 13, 37, 99
14, 132576, Note_off_c, 13, 37, 64
14, 132600, Note_on_c, 13, 37, 99
14, 132696, Note_off_c, 13, 37, 64
14, 132720, Note_on_c, 13, 37, 99
14, 132816, Note_off_c, 13, 37, 64
14, 132840, Note_on_c, 13, 37, 99
14, 132936, Note_off_c, 13, 37, 64
14, 132960, Note_on_c, 13, 37, 99
14, 133056, Note_off_c, 13, 37, 64
14, 133080, Note_on_c, 13, 37, 99
14, 133176, Note_off_c, 13, 37, 64
14, 133200, Note_on_c, 13, 37, 99
14, 133296, Note_off_c, 13, 37, 64
14, 133320, Note_on_c, 13, 37, 99
14, 133416, Note_off_c, 13, 37, 64
14, 133440, Note_on_c, 13, 37, 99
14, 133536, Note_off_c, 13, 37, 64
14, 133560, Note_on_c, 13, 37, 99
14, 133656, Note_off_c, 13, 37, 64
14, 133680, Note_on_c, 13, 37, 99
14, 133776, Note_off_c, 13, 37, 64
14, 133800, Note_on_c, 13, 37, 99
14, 133896, Note_off_c, 13, 37, 64
14, 133920, Note_on_c, 13, 37, 127
14, 134016, Note_off_c, 13, 37, 64
14, 134040, Note_on_c, 13, 37, 99
14, 134136, Note_off_c, 13, 37, 64
14, 134160, Note_on_c, 13, 37, 99
14, 134256, Note_off_c, 13, 37, 64
14, 134280, Note_on_c, 13, 37, 99
14, 134376, Note_off_c, 13, 37, 64
14, 134400, Note_on_c, 13, 37, 99
14, 134496, Note_off_c, 13, 37, 64
14, 134520, Note_on_c, 13, 37, 99
14, 134616, Note_off_c, 13, 37, 64
14, 134640, Note_on_c, 13, 37, 99
14, 134736, Note_off_c, 13, 37, 64
14, 134760, Note_on_c, 13, 37, 99
14, 134856, Note_off_c, 13, 37, 64
14, 134880, Note_on_c, 13, 37, 99
14, 134976, Note_off_c, 13, 37, 64
14, 135000, Note_on_c, 13, 37, 99
14, 135096, Note_off_c, 13, 37, 64
14, 135120, Note_on_c, 13, 37, 99
14, 135216, Note_off_c, 13, 37, 64
14, 135240, Note_on_c, 13, 37, 99
14, 135336, Note_off_c, 13, 37, 64
14, 135360, Note_on_c, 13, 37, 99
14, 135456, Note_off_c, 13, 37, 64
14, 135480, Note_on_c, 13, 37, 99
14, 135576, Note_off_c, 13, 37, 64
14, 135600, Note_on_c, 13, 37, 99
14, 135696, Note_off_c, 13, 37, 64
14, 135720, Note_on_c, 13, 37, 99
14, 135816, Note_off_c, 13, 37, 64
14, 135840, Note_on_c, 13, 37, 127
14, 135936, Note_off_c, 13, 37, 64
14, 135960, Note_on_c, 13, 37, 99
14, 136056, Note_off_c, 13, 37, 64
14, 136080, Note_on_c, 13, 37, 99
14, 136176, Note_off_c, 13, 37, 64
14, 136200, Note_on_c, 13, 37, 99
14, 136296, Note_off_c, 13, 37, 64
14, 136320, Note_on_c, 13, 37, 99
14, 136416, Note_off_c, 13, 37, 64
14, 136440, Note_on_c, 13, 37, 99
14, 136536, Note_off_c, 13, 37, 64
14, 136560, Note_on_c, 13, 37, 99
14, 136656, Note_off_c, 13, 37, 64
14, 136680, Note_on_c, 13, 37, 99
14, 136776, Note_off_c, 13, 37, 64
14, 136800, Note_on_c, 13, 37, 127
14, 136896, Note_off_c, 13, 37, 64
14, 136920, Note_on_c, 13, 37, 99
14, 137016, Note_off_c, 13, 37, 64
14, 137040, Note_on_c, 13, 37, 99
14, 137136, Note_off_c, 13, 37, 64
14, 137160, Note_on_c, 13, 37, 99
14, 137256, Note_off_c, 13, 37, 64
14, 137280, Note_on_c, 13, 37, 99
14, 137376, Note_off_c, 13, 37, 64
14, 137400, Note_on_c, 13, 37, 99
14, 137496, Note_off_c, 13, 37, 64
14, 137520, Note_on_c, 13, 37, 99
14, 137616, Note_off_c, 13, 37, 64
14, 137640, Note_on_c, 13, 37, 99
14, 137736, Note_off_c, 13, 37, 64
14, 137760, Note_on_c, 13, 37, 127
14, 137856, Note_off_c, 13, 37, 64
14, 137880, Note_on_c, 13, 37, 99
14, 137976, Note_off_c, 13, 37, 64
14, 138000, Note_on_c, 13, 37, 99
14, 138096, Note_off_c, 13, 37, 64
14, 138120, Note_on_c, 13, 37, 99
14, 138216, Note_off_c, 13, 37, 64
14, 138240, Note_on_c, 13, 37, 99
14, 138336, Note_off_c, 13, 37, 64
14, 138360, Note_on_c, 13, 37, 99
14, 138456, Note_off_c, 13, 37, 64
14, 138480, Note_on_c, 13, 37, 99
14, 138576, Note_off_c, 13, 37, 64
14, 138600, Note_on_c, 13, 37, 99
14, 138696, Note_off_c, 13, 37, 64
14, 138720, Note_on_c, 13, 39, 99
14, 138816, Note_off_c, 13, 39, 64
14, 138840, Note_on_c, 13, 39, 99
14, 138936, Note_off_c, 13, 39, 64
14, 138960, Note_on_c, 13, 39, 99
14, 139056, Note_off_c, 13, 39, 64
14, 139080, Note_on_c, 13, 39, 99
14, 139176, Note_off_c, 13, 39, 64
14, 139200, Note_on_c, 13, 28, 127
14, 139344, Note_off_c, 13, 28, 64
14, 141600, Note_on_c, 13, 28, 127
14, 141744, Note_off_c, 13, 28, 64
14, 144000, Note_on_c, 13, 28, 127
14, 144120, Note_off_c, 13, 28, 64
14, 144480, Note_on_c, 13, 28, 127
14, 145080, Note_off_c, 13, 28, 64
14, 145440, Note_on_c, 13, 28, 127
14, 146040, Note_off_c, 13, 28, 64
14, 146400, Note_on_c, 13, 28, 127
14, 147000, Note_off_c, 13, 28, 64
14, 147360, Note_on_c, 13, 28, 127
14, 147960, Note_off_c, 13, 28, 64
14, 148320, Note_on_c, 13, 28, 127
14, 148920, Note_off_c, 13, 28, 64
14, 149280, Note_on_c, 13, 28, 127
14, 149880, Note_off_c, 13, 28, 64
14, 150240, Note_on_c, 13, 28, 127
14, 150720, Note_off_c, 13, 28, 64
14, 150720, Note_on_c, 13, 33, 127
14, 150840, Note_off_c, 13, 33, 64
14, 151680, Note_on_c, 13, 28, 127
14, 151800, Note_off_c, 13, 28, 64
14, 152160, Note_on_c, 13, 28, 127
14, 152760, Note_off_c, 13, 28, 64
14, 153120, Note_on_c, 13, 28, 127
14, 153720, Note_off_c, 13, 28, 64
14, 154080, Note_on_c, 13, 28, 127
14, 154680, Note_off_c, 13, 28, 64
14, 155040, Note_on_c, 13, 28, 127
14, 155640, Note_off_c, 13, 28, 64
14, 156000, Note_on_c, 13, 28, 127
14, 156600, Note_off_c, 13, 28, 64
14, 156960, Note_on_c, 13, 28, 127
14, 157560, Note_off_c, 13, 28, 64
14, 157920, Note_on_c, 13, 28, 127
14, 158400, Note_off_c, 13, 28, 64
14, 158400, Note_on_c, 13, 33, 127
14, 158520, Note_off_c, 13, 33, 64
14, 159360, Note_on_c, 13, 26, 127
14, 159480, Note_off_c, 13, 26, 64
14, 159840, Note_on_c, 13, 26, 127
14, 160320, Note_off_c, 13, 26, 64
14, 160320, Note_on_c, 13, 25, 108
14, 160440, Note_off_c, 13, 25, 64
14, 160800, Note_on_c, 13, 25, 127
14, 161280, Note_off_c, 13, 25, 64
14, 161280, Note_on_c, 13, 26, 108
14, 161400, Note_off_c, 13, 26, 64
14, 161760, Note_on_c, 13, 26, 127
14, 162240, Note_off_c, 13, 26, 64
14, 162240, Note_on_c, 13, 25, 108
14, 162360, Note_off_c, 13, 25, 64
14, 162720, Note_on_c, 13, 30, 127
14, 163200, Note_off_c, 13, 30, 64
14, 163200, Note_on_c, 13, 35, 108
14, 163320, Note_off_c, 13, 35, 64
14, 163680, Note_on_c, 13, 28, 127
14, 164160, Note_off_c, 13, 28, 64
14, 164160, Note_on_c, 13, 33, 108
14, 164280, Note_off_c, 13, 33, 64
14, 164640, Note_on_c, 13, 25, 127
14, 165120, Note_off_c, 13, 25, 64
14, 165120, Note_on_c, 13, 28, 108
14, 165240, Note_off_c, 13, 28, 64
14, 165600, Note_on_c, 13, 28, 127
14, 166080, Note_off_c, 13, 28, 64
14, 166080, Note_on_c, 13, 33, 127
14, 166200, Note_off_c, 13, 33, 64
14, 167040, Note_on_c, 13, 26, 127
14, 167160, Note_off_c, 13, 26, 64
14, 167520, Note_on_c, 13, 26, 127
14, 168000, Note_off_c, 13, 26, 64
14, 168000, Note_on_c, 13, 25, 108
14, 168120, Note_off_c, 13, 25, 64
14, 168480, Note_on_c, 13, 25, 127
14, 168960, Note_off_c, 13, 25, 64
14, 168960, Note_on_c, 13, 26, 108
14, 169080, Note_off_c, 13, 26, 64
14, 169440, Note_on_c, 13, 26, 127
14, 169920, Note_off_c, 13, 26, 64
14, 169920, Note_on_c, 13, 25, 108
14, 170040, Note_off_c, 13, 25, 64
14, 170400, Note_on_c, 13, 30, 127
14, 170880, Note_off_c, 13, 30, 64
14, 170880, Note_on_c, 13, 35, 108
14, 171000, Note_off_c, 13, 35, 64
14, 171360, Note_on_c, 13, 28, 127
14, 171840, Note_off_c, 13, 28, 64
14, 171840, Note_on_c, 13, 33, 108
14, 171960, Note_off_c, 13, 33, 64
14, 172320, Note_on_c, 13, 25, 127
14, 172800, Note_off_c, 13, 25, 64
14, 172800, Note_on_c, 13, 28, 108
14, 172920, Note_off_c, 13, 28, 64
14, 173280, Note_on_c, 13, 28, 127
14, 173760, Note_off_c, 13, 28, 64
14, 173760, Note_on_c, 13, 33, 127
14, 173880, Note_off_c, 13, 33, 64
14, 174840, Note_on_c, 13, 33, 127
14, 174960, Note_off_c, 13, 33, 64
14, 175920, Note_on_c, 13, 28, 127
14, 176040, Note_off_c, 13, 28, 64
14, 177000, Note_on_c, 13, 28, 127
14, 177120, Note_off_c, 13, 28, 64
14, 178080, Note_on_c, 13, 33, 127
14, 178200, Note_off_c, 13, 33, 64
14, 178560, Note_on_c, 13, 33, 127
14, 178680, Note_off_c, 13, 33, 64
14, 179040, Note_on_c, 13, 33, 127
14, 179160, Note_off_c, 13, 33, 64
14, 179520, Note_on_c, 13, 33, 127
14, 179640, Note_off_c, 13, 33, 64
14, 180000, Note_on_c, 13, 28, 127
14, 180120, Note_off_c, 13, 28, 64
14, 180480, Note_on_c, 13, 28, 127
14, 180600, Note_off_c, 13, 28, 64
14, 180960, Note_on_c, 13, 28, 127
14, 181080, Note_off_c, 13, 28, 64
14, 181440, Note_on_c, 13, 28, 127
14, 181560, Note_off_c, 13, 28, 64
14, 181920, Note_on_c, 13, 33, 127
14, 182040, Note_off_c, 13, 33, 64
14, 183000, Note_on_c, 13, 33, 127
14, 183120, Note_off_c, 13, 33, 64
14, 184080, Note_on_c, 13, 28, 127
14, 184200, Note_off_c, 13, 28, 64
14, 185160, Note_on_c, 13, 28, 127
14, 185280, Note_off_c, 13, 28, 64
14, 186240, Note_on_c, 13, 33, 100
14, 186360, Note_off_c, 13, 33, 64
14, 186480, Note_on_c, 13, 33, 100
14, 186600, Note_off_c, 13, 33, 64
14, 186720, Note_on_c, 13, 33, 100
14, 186840, Note_off_c, 13, 33, 64
14, 186960, Note_on_c, 13, 33, 100
14, 187080, Note_off_c, 13, 33, 64
14, 187200, Note_on_c, 13, 33, 100
14, 187320, Note_off_c, 13, 33, 64
14, 187440, Note_on_c, 13, 33, 100
14, 187560, Note_off_c, 13, 33, 64
14, 187680, Note_on_c, 13, 33, 100
14, 187800, Note_off_c, 13, 33, 64
14, 187920, Note_on_c, 13, 33, 100
14, 188040, Note_off_c, 13, 33, 64
14, 188160, Note_on_c, 13, 28, 100
14, 188280, Note_off_c, 13, 28, 64
14, 188400, Note_on_c, 13, 28, 100
14, 188520, Note_off_c, 13, 28, 64
14, 188640, Note_on_c, 13, 28, 100
14, 188760, Note_off_c, 13, 28, 64
14, 188880, Note_on_c, 13, 28, 100
14, 189000, Note_off_c, 13, 28, 64
14, 189120, Note_on_c, 13, 28, 100
14, 189240, Note_off_c, 13, 28, 64
14, 189360, Note_on_c, 13, 28, 100
14, 189480, Note_off_c, 13, 28, 64
14, 189600, Note_on_c, 13, 28, 100
14, 189720, Note_off_c, 13, 28, 64
14, 189840, Note_on_c, 13, 28, 100
14, 189960, Note_off_c, 13, 28, 64
14, 190080, Note_on_c, 13, 33, 80
14, 190272, Note_off_c, 13, 33, 64
14, 191520, Note_on_c, 13, 52, 80
14, 192000, Note_off_c, 13, 52, 64
14, 192000, Note_on_c, 13, 45, 80
14, 192480, Note_off_c, 13, 45, 64
14, 192480, Note_on_c, 13, 40, 80
14, 192960, Note_off_c, 13, 40, 64
14, 192960, Note_on_c, 13, 33, 80
14, 193440, Note_off_c, 13, 33, 64
14, 193440, Note_on_c, 13, 28, 80
14, 193920, Note_off_c, 13, 28, 64
14, 193920, Note_on_c, 13, 33, 80
14, 194160, Note_off_c, 13, 33, 64
14, 195360, Note_on_c, 13, 52, 80
14, 195840, Note_off_c, 13, 52, 64
14, 195840, Note_on_c, 13, 45, 80
14, 196320, Note_off_c, 13, 45, 64
14, 196320, Note_on_c, 13, 40, 80
14, 196800, Note_off_c, 13, 40, 64
14, 196800, Note_on_c, 13, 33, 80
14, 197280, Note_off_c, 13, 33, 64
14, 197280, Note_on_c, 13, 37, 80
14, 197760, Note_off_c, 13, 37, 64
14, 197760, Note_on_c, 13, 30, 80
14, 198000, Note_off_c, 13, 30, 64
14, 199200, Note_on_c, 13, 49, 80
14, 199680, Note_off_c, 13, 49, 64
14, 199680, Note_on_c, 13, 54, 80
14, 200160, Note_off_c, 13, 54, 64
14, 200160, Note_on_c, 13, 49, 80
14, 200640, Note_off_c, 13, 49, 64
14, 200640, Note_on_c, 13, 42, 80
14, 201120, Note_off_c, 13, 42, 64
14, 201120, Note_on_c, 13, 37, 80
14, 201600, Note_off_c, 13, 37, 64
14, 201600, Note_on_c, 13, 30, 80
14, 201840, Note_off_c, 13, 30, 64
14, 203040, Note_on_c, 13, 49, 80
14, 203520, Note_off_c, 13, 49, 64
14, 203520, Note_on_c, 13, 54, 80
14, 204000, Note_off_c, 13, 54, 64
14, 204000, Note_on_c, 13, 49, 80
14, 204480, Note_off_c, 13, 49, 64
14, 204480, Note_on_c, 13, 42, 80
14, 204960, Note_off_c, 13, 42, 64
14, 204960, Note_on_c, 13, 37, 80
14, 205440, Note_off_c, 13, 37, 64
14, 205440, Note_on_c, 13, 30, 110
14, 205554, Note_off_c, 13, 30, 64
14, 205800, Note_on_c, 13, 42, 80
14, 205914, Note_off_c, 13, 42, 64
14, 205920, Note_on_c, 13, 42, 80
14, 206034, Note_off_c, 13, 42, 64
14, 206280, Note_on_c, 13, 42, 80
14, 206394, Note_off_c, 13, 42, 64
14, 206400, Note_on_c, 13, 42, 80
14, 206514, Note_off_c, 13, 42, 64
14, 206760, Note_on_c, 13, 42, 80
14, 206874, Note_off_c, 13, 42, 64
14, 206880, Note_on_c, 13, 42, 80
14, 206994, Note_off_c, 13, 42, 64
14, 207240, Note_on_c, 13, 42, 80
14, 207354, Note_off_c, 13, 42, 64
14, 207360, Note_on_c, 13, 41, 80
14, 207474, Note_off_c, 13, 41, 64
14, 207720, Note_on_c, 13, 41, 80
14, 207834, Note_off_c, 13, 41, 64
14, 207840, Note_on_c, 13, 41, 80
14, 207954, Note_off_c, 13, 41, 64
14, 208200, Note_on_c, 13, 41, 80
14, 208314, Note_off_c, 13, 41, 64
14, 208320, Note_on_c, 13, 41, 80
14, 208434, Note_off_c, 13, 41, 64
14, 208680, Note_on_c, 13, 41, 80
14, 208794, Note_off_c, 13, 41, 64
14, 208800, Note_on_c, 13, 41, 80
14, 208914, Note_off_c, 13, 41, 64
14, 209160, Note_on_c, 13, 41, 80
14, 209274, Note_off_c, 13, 41, 64
14, 209280, Note_on_c, 13, 42, 80
14, 209394, Note_off_c, 13, 42, 64
14, 209640, Note_on_c, 13, 42, 80
14, 209754, Note_off_c, 13, 42, 64
14, 209760, Note_on_c, 13, 42, 80
14, 209874, Note_off_c, 13, 42, 64
14, 210120, Note_on_c, 13, 42, 80
14, 210234, Note_off_c, 13, 42, 64
14, 210240, Note_on_c, 13, 40, 110
14, 210354, Note_off_c, 13, 40, 64
14, 210600, Note_on_c, 13, 40, 80
14, 210714, Note_off_c, 13, 40, 64
14, 210720, Note_on_c, 13, 40, 80
14, 210834, Note_off_c, 13, 40, 64
14, 211080, Note_on_c, 13, 40, 80
14, 211194, Note_off_c, 13, 40, 64
14, 211200, Note_on_c, 13, 39, 110
14, 211314, Note_off_c, 13, 39, 64
14, 211560, Note_on_c, 13, 39, 80
14, 211674, Note_off_c, 13, 39, 64
14, 211680, Note_on_c, 13, 39, 80
14, 211794, Note_off_c, 13, 39, 64
14, 212040, Note_on_c, 13, 39, 80
14, 212154, Note_off_c, 13, 39, 64
14, 212160, Note_on_c, 13, 37, 110
14, 212274, Note_off_c, 13, 37, 64
14, 212520, Note_on_c, 13, 37, 80
14, 212634, Note_off_c, 13, 37, 64
14, 212640, Note_on_c, 13, 37, 80
14, 212754, Note_off_c, 13, 37, 64
14, 213000, Note_on_c, 13, 37, 80
14, 213114, Note_off_c, 13, 37, 64
14, 213120, Note_on_c, 13, 36, 110
14, 213234, Note_off_c, 13, 36, 64
14, 213480, Note_on_c, 13, 33, 80
14, 213594, Note_off_c, 13, 33, 64
14, 213600, Note_on_c, 13, 33, 80
14, 213714, Note_off_c, 13, 33, 64
14, 213960, Note_on_c, 13, 33, 80
14, 214074, Note_off_c, 13, 33, 64
14, 214080, Note_on_c, 13, 33, 80
14, 214194, Note_off_c, 13, 33, 64
14, 214440, Note_on_c, 13, 33, 80
14, 214554, Note_off_c, 13, 33, 64
14, 214560, Note_on_c, 13, 33, 80
14, 214674, Note_off_c, 13, 33, 64
14, 214920, Note_on_c, 13, 33, 80
14, 215034, Note_off_c, 13, 33, 64
14, 215040, Note_on_c, 13, 32, 127
14, 215154, Note_off_c, 13, 32, 64
14, 215520, Note_on_c, 13, 32, 127
14, 215634, Note_off_c, 13, 32, 64
14, 219360, Note_on_c, 13, 32, 127
14, 219474, Note_off_c, 13, 32, 64
14, 226560, Note_on_c, 13, 37, 64
14, 226632, Note_off_c, 13, 37, 64
14, 226920, Note_on_c, 13, 49, 64
14, 227040, Note_off_c, 13, 49, 64
14, 227040, Note_on_c, 13, 49, 96
14, 227490, Note_off_c, 13, 49, 64
14, 227520, Note_on_c, 13, 32, 77
14, 227592, Note_off_c, 13, 32, 64
14, 227880, Note_on_c, 13, 44, 64
14, 228000, Note_off_c, 13, 44, 64
14, 228000, Note_on_c, 13, 44, 96
14, 228450, Note_off_c, 13, 44, 64
14, 228480, Note_on_c, 13, 37, 77
14, 228552, Note_off_c, 13, 37, 64
14, 228840, Note_on_c, 13, 49, 64
14, 228960, Note_off_c, 13, 49, 64
14, 228960, Note_on_c, 13, 49, 96
14, 229410, Note_off_c, 13, 49, 64
14, 229440, Note_on_c, 13, 32, 77
14, 229512, Note_off_c, 13, 32, 64
14, 229800, Note_on_c, 13, 44, 64
14, 229920, Note_off_c, 13, 44, 64
14, 229920, Note_on_c, 13, 44, 96
14, 230370, Note_off_c, 13, 44, 64
14, 230400, Note_on_c, 13, 37, 64
14, 230626, Note_off_c, 13, 37, 64
14, 235200, Note_on_c, 13, 32, 46
14, 236160, Note_off_c, 13, 32, 64
14, 236160, Note_on_c, 13, 37, 64
14, 236232, Note_off_c, 13, 37, 64
14, 236520, Note_on_c, 13, 49, 64
14, 236640, Note_off_c, 13, 49, 64
14, 236640, Note_on_c, 13, 49, 96
14, 237090, Note_off_c, 13, 49, 64
14, 237120, Note_on_c, 13, 32, 77
14, 237192, Note_off_c, 13, 32, 64
14, 237480, Note_on_c, 13, 44, 64
14, 237600, Note_off_c, 13, 44, 64
14, 237600, Note_on_c, 13, 44, 96
14, 238050, Note_off_c, 13, 44, 64
14, 238080, Note_on_c, 13, 37, 77
14, 238152, Note_off_c, 13, 37, 64
14, 238440, Note_on_c, 13, 49, 64
14, 238560, Note_off_c, 13, 49, 64
14, 238560, Note_on_c, 13, 49, 96
14, 239010, Note_off_c, 13, 49, 64
14, 239040, Note_on_c, 13, 32, 77
14, 239112, Note_off_c, 13, 32, 64
14, 239400, Note_on_c, 13, 44, 64
14, 239520, Note_off_c, 13, 44, 64
14, 239520, Note_on_c, 13, 44, 96
14, 239970, Note_off_c, 13, 44, 64
14, 240000, Note_on_c, 13, 37, 64
14, 240226, Note_off_c, 13, 37, 64
14, 248160, Note_on_c, 13, 37, 80
14, 248352, Note_off_c, 13, 37, 64
14, 249120, Note_on_c, 13, 38, 80
14, 249312, Note_off_c, 13, 38, 64
14, 250080, Note_on_c, 13, 33, 96
14, 250272, Note_off_c, 13, 33, 64
14, 251040, Note_on_c, 13, 33, 96
14, 251232, Note_off_c, 13, 33, 64
14, 252000, Note_on_c, 13, 33, 115
14, 252192, Note_off_c, 13, 33, 64
14, 252960, Note_on_c, 13, 33, 115
14, 253152, Note_off_c, 13, 33, 64
14, 253920, Note_on_c, 13, 37, 95
14, 254112, Note_off_c, 13, 37, 64
14, 254880, Note_on_c, 13, 38, 72
14, 255072, Note_off_c, 13, 38, 64
14, 255360, Note_on_c, 13, 36, 99
14, 255456, Note_off_c, 13, 36, 64
14, 255480, Note_on_c, 13, 36, 99
14, 255576, Note_off_c, 13, 36, 64
14, 255600, Note_on_c, 13, 36, 99
14, 255696, Note_off_c, 13, 36, 64
14, 255720, Note_on_c, 13, 36, 99
14, 255816, Note_off_c, 13, 36, 64
14, 255840, Note_on_c, 13, 36, 99
14, 255936, Note_off_c, 13, 36, 64
14, 255960, Note_on_c, 13, 36, 99
14, 256056, Note_off_c, 13, 36, 64
14, 256080, Note_on_c, 13, 36, 99
14, 256176, Note_off_c, 13, 36, 64
14, 256200, Note_on_c, 13, 36, 99
14, 256296, Note_off_c, 13, 36, 64
14, 256320, Note_on_c, 13, 36, 99
14, 256416, Note_off_c, 13, 36, 64
14, 256440, Note_on_c, 13, 36, 99
14, 256536, Note_off_c, 13, 36, 64
14, 256560, Note_on_c, 13, 36, 99
14, 256656, Note_off_c, 13, 36, 64
14, 256680, Note_on_c, 13, 36, 99
14, 256776, Note_off_c, 13, 36, 64
14, 256800, Note_on_c, 13, 36, 99
14, 256896, Note_off_c, 13, 36, 64
14, 256920, Note_on_c, 13, 36, 99
14, 257016, Note_off_c, 13, 36, 64
14, 257040, Note_on_c, 13, 36, 99
14, 257136, Note_off_c, 13, 36, 64
14, 257160, Note_on_c, 13, 36, 99
14, 257256, Note_off_c, 13, 36, 64
14, 257280, Note_on_c, 13, 37, 127
14, 257376, Note_off_c, 13, 37, 64
14, 257400, Note_on_c, 13, 37, 99
14, 257496, Note_off_c, 13, 37, 64
14, 257520, Note_on_c, 13, 37, 99
14, 257616, Note_off_c, 13, 37, 64
14, 257640, Note_on_c, 13, 37, 99
14, 257736, Note_off_c, 13, 37, 64
14, 257760, Note_on_c, 13, 37, 99
14, 257856, Note_off_c, 13, 37, 64
14, 257880, Note_on_c, 13, 37, 99
14, 257976, Note_off_c, 13, 37, 64
14, 258000, Note_on_c, 13, 37, 99
14, 258096, Note_off_c, 13, 37, 64
14, 258120, Note_on_c, 13, 37, 99
14, 258216, Note_off_c, 13, 37, 64
14, 258240, Note_on_c, 13, 36, 127
14, 258336, Note_off_c, 13, 36, 64
14, 258360, Note_on_c, 13, 36, 99
14, 258456, Note_off_c, 13, 36, 64
14, 258480, Note_on_c, 13, 36, 99
14, 258576, Note_off_c, 13, 36, 64
14, 258600, Note_on_c, 13, 36, 99
14, 258696, Note_off_c, 13, 36, 64
14, 258720, Note_on_c, 13, 36, 99
14, 258816, Note_off_c, 13, 36, 64
14, 258840, Note_on_c, 13, 36, 99
14, 258936, Note_off_c, 13, 36, 64
14, 258960, Note_on_c, 13, 36, 99
14, 259056, Note_off_c, 13, 36, 64
14, 259080, Note_on_c, 13, 36, 99
14, 259176, Note_off_c, 13, 36, 64
14, 259200, Note_on_c, 13, 37, 127
14, 259296, Note_off_c, 13, 37, 64
14, 259320, Note_on_c, 13, 37, 99
14, 259416, Note_off_c, 13, 37, 64
14, 259440, Note_on_c, 13, 37, 99
14, 259536, Note_off_c, 13, 37, 64
14, 259560, Note_on_c, 13, 37, 99
14, 259656, Note_off_c, 13, 37, 64
14, 259680, Note_on_c, 13, 37, 99
14, 259776, Note_off_c, 13, 37, 64
14, 259800, Note_on_c, 13, 37, 99
14, 259896, Note_off_c, 13, 37, 64
14, 259920, Note_on_c, 13, 37, 99
14, 260016, Note_off_c, 13, 37, 64
14, 260040, Note_on_c, 13, 37, 99
14, 260136, Note_off_c, 13, 37, 64
14, 260160, Note_on_c, 13, 36, 127
14, 260256, Note_off_c, 13, 36, 64
14, 260280, Note_on_c, 13, 36, 99
14, 260376, Note_off_c, 13, 36, 64
14, 260400, Note_on_c, 13, 36, 99
14, 260496, Note_off_c, 13, 36, 64
14, 260520, Note_on_c, 13, 36, 99
14, 260616, Note_off_c, 13, 36, 64
14, 260640, Note_on_c, 13, 36, 99
14, 260736, Note_off_c, 13, 36, 64
14, 260760, Note_on_c, 13, 36, 99
14, 260856, Note_off_c, 13, 36, 64
14, 260880, Note_on_c, 13, 36, 99
14, 260976, Note_off_c, 13, 36, 64
14, 261000, Note_on_c, 13, 36, 99
14, 261096, Note_off_c, 13, 36, 64
14, 261120, Note_on_c, 13, 37, 127
14, 261216, Note_off_c, 13, 37, 64
14, 261240, Note_on_c, 13, 37, 99
14, 261336, Note_off_c, 13, 37, 64
14, 261360, Note_on_c, 13, 37, 99
14, 261456, Note_off_c, 13, 37, 64
14, 261480, Note_on_c, 13, 37, 99
14, 261576, Note_off_c, 13, 37, 64
14, 261600, Note_on_c, 13, 37, 99
14, 261696, Note_off_c, 13, 37, 64
14, 261720, Note_on_c, 13, 37, 99
14, 261816, Note_off_c, 13, 37, 64
14, 261840, Note_on_c, 13, 37, 99
14, 261936, Note_off_c, 13, 37, 64
14, 261960, Note_on_c, 13, 37, 99
14, 262056, Note_off_c, 13, 37, 64
14, 262080, Note_on_c, 13, 30, 127
14, 262176, Note_off_c, 13, 30, 64
14, 262200, Note_on_c, 13, 30, 99
14, 262296, Note_off_c, 13, 30, 64
14, 262320, Note_on_c, 13, 30, 99
14, 262416, Note_off_c, 13, 30, 64
14, 262440, Note_on_c, 13, 30, 99
14, 262536, Note_off_c, 13, 30, 64
14, 262560, Note_on_c, 13, 30, 99
14, 262656, Note_off_c, 13, 30, 64
14, 262680, Note_on_c, 13, 30, 99
14, 262776, Note_off_c, 13, 30, 64
14, 262800, Note_on_c, 13, 30, 99
14, 262896, Note_off_c, 13, 30, 64
14, 262920, Note_on_c, 13, 30, 99
14, 263016, Note_off_c, 13, 30, 64
14, 263040, Note_on_c, 13, 32, 127
14, 263136, Note_off_c, 13, 32, 64
14, 263160, Note_on_c, 13, 32, 99
14, 263256, Note_off_c, 13, 32, 64
14, 263280, Note_on_c, 13, 32, 99
14, 263376, Note_off_c, 13, 32, 64
14, 263400, Note_on_c, 13, 32, 99
14, 263496, Note_off_c, 13, 32, 64
14, 263520, Note_on_c, 13, 32, 99
14, 263616, Note_off_c, 13, 32, 64
14, 263640, Note_on_c, 13, 32, 99
14, 263736, Note_off_c, 13, 32, 64
14, 263760, Note_on_c, 13, 32, 99
14, 263856, Note_off_c, 13, 32, 64
14, 263880, Note_on_c, 13, 32, 99
14, 263976, Note_off_c, 13, 32, 64
14, 264000, Note_on_c, 13, 32, 127
14, 264096, Note_off_c, 13, 32, 64
14, 264120, Note_on_c, 13, 32, 99
14, 264216, Note_off_c, 13, 32, 64
14, 264240, Note_on_c, 13, 32, 99
14, 264336, Note_off_c, 13, 32, 64
14, 264360, Note_on_c, 13, 32, 99
14, 264456, Note_off_c, 13, 32, 64
14, 264480, Note_on_c, 13, 32, 99
14, 264576, Note_off_c, 13, 32, 64
14, 264600, Note_on_c, 13, 32, 99
14, 264696, Note_off_c, 13, 32, 64
14, 264720, Note_on_c, 13, 32, 99
14, 264816, Note_off_c, 13, 32, 64
14, 264840, Note_on_c, 13, 32, 99
14, 264936, Note_off_c, 13, 32, 64
14, 264960, Note_on_c, 13, 37, 99
14, 265056, Note_off_c, 13, 37, 64
14, 265080, Note_on_c, 13, 37, 99
14, 265176, Note_off_c, 13, 37, 64
14, 265200, Note_on_c, 13, 37, 99
14, 265296, Note_off_c, 13, 37, 64
14, 265320, Note_on_c, 13, 37, 99
14, 265416, Note_off_c, 13, 37, 64
14, 265440, Note_on_c, 13, 37, 127
14, 265536, Note_off_c, 13, 37, 64
14, 265560, Note_on_c, 13, 37, 99
14, 265656, Note_off_c, 13, 37, 64
14, 265680, Note_on_c, 13, 37, 99
14, 265776, Note_off_c, 13, 37, 64
14, 265800, Note_on_c, 13, 37, 99
14, 265896, Note_off_c, 13, 37, 64
14, 265920, Note_on_c, 13, 37, 99
14, 266016, Note_off_c, 13, 37, 64
14, 266040, Note_on_c, 13, 37, 99
14, 266136, Note_off_c, 13, 37, 64
14, 266160, Note_on_c, 13, 37, 99
14, 266256, Note_off_c, 13, 37, 64
14, 266280, Note_on_c, 13, 37, 99
14, 266376, Note_off_c, 13, 37, 64
14, 266400, Note_on_c, 13, 37, 99
14, 266496, Note_off_c, 13, 37, 64
14, 266520, Note_on_c, 13, 37, 99
14, 266616, Note_off_c, 13, 37, 64
14, 266640, Note_on_c, 13, 37, 99
14, 266736, Note_off_c, 13, 37, 64
14, 266760, Note_on_c, 13, 37, 99
14, 266856, Note_off_c, 13, 37, 64
14, 266880, Note_on_c, 13, 37, 99
14, 266976, Note_off_c, 13, 37, 64
14, 267000, Note_on_c, 13, 37, 99
14, 267096, Note_off_c, 13, 37, 64
14, 267120, Note_on_c, 13, 37, 99
14, 267216, Note_off_c, 13, 37, 64
14, 267240, Note_on_c, 13, 37, 99
14, 267336, Note_off_c, 13, 37, 64
14, 267360, Note_on_c, 13, 37, 127
14, 267456, Note_off_c, 13, 37, 64
14, 267480, Note_on_c, 13, 37, 99
14, 267576, Note_off_c, 13, 37, 64
14, 267600, Note_on_c, 13, 37, 99
14, 267696, Note_off_c, 13, 37, 64
14, 267720, Note_on_c, 13, 37, 99
14, 267816, Note_off_c, 13, 37, 64
14, 267840, Note_on_c, 13, 37, 99
14, 267936, Note_off_c, 13, 37, 64
14, 267960, Note_on_c, 13, 37, 99
14, 268056, Note_off_c, 13, 37, 64
14, 268080, Note_on_c, 13, 37, 99
14, 268176, Note_off_c, 13, 37, 64
14, 268200, Note_on_c, 13, 37, 99
14, 268296, Note_off_c, 13, 37, 64
14, 268320, Note_on_c, 13, 37, 99
14, 268416, Note_off_c, 13, 37, 64
14, 268440, Note_on_c, 13, 37, 99
14, 268536, Note_off_c, 13, 37, 64
14, 268560, Note_on_c, 13, 37, 99
14, 268656, Note_off_c, 13, 37, 64
14, 268680, Note_on_c, 13, 37, 99
14, 268776, Note_off_c, 13, 37, 64
14, 268800, Note_on_c, 13, 37, 99
14, 268896, Note_off_c, 13, 37, 64
14, 268920, Note_on_c, 13, 37, 99
14, 269016, Note_off_c, 13, 37, 64
14, 269040, Note_on_c, 13, 37, 99
14, 269136, Note_off_c, 13, 37, 64
14, 269160, Note_on_c, 13, 37, 99
14, 269256, Note_off_c, 13, 37, 64
14, 269280, Note_on_c, 13, 37, 127
14, 269376, Note_off_c, 13, 37, 64
14, 269400, Note_on_c, 13, 37, 99
14, 269496, Note_off_c, 13, 37, 64
14, 269520, Note_on_c, 13, 37, 99
14, 269616, Note_off_c, 13, 37, 64
14, 269640, Note_on_c, 13, 37, 99
14, 269736, Note_off_c, 13, 37, 64
14, 269760, Note_on_c, 13, 37, 99
14, 269856, Note_off_c, 13, 37, 64
14, 269880, Note_on_c, 13, 37, 99
14, 269976, Note_off_c, 13, 37, 64
14, 270000, Note_on_c, 13, 37, 99
14, 270096, Note_off_c, 13, 37, 64
14, 270120, Note_on_c, 13, 37, 99
14, 270216, Note_off_c, 13, 37, 64
14, 270240, Note_on_c, 13, 37, 127
14, 270336, Note_off_c, 13, 37, 64
14, 270360, Note_on_c, 13, 37, 99
14, 270456, Note_off_c, 13, 37, 64
14, 270480, Note_on_c, 13, 37, 99
14, 270576, Note_off_c, 13, 37, 64
14, 270600, Note_on_c, 13, 37, 99
14, 270696, Note_off_c, 13, 37, 64
14, 270720, Note_on_c, 13, 37, 99
14, 270816, Note_off_c, 13, 37, 64
14, 270840, Note_on_c, 13, 37, 99
14, 270936, Note_off_c, 13, 37, 64
14, 270960, Note_on_c, 13, 37, 99
14, 271056, Note_off_c, 13, 37, 64
14, 271080, Note_on_c, 13, 37, 99
14, 271176, Note_off_c, 13, 37, 64
14, 271200, Note_on_c, 13, 37, 127
14, 271296, Note_off_c, 13, 37, 64
14, 271320, Note_on_c, 13, 37, 99
14, 271416, Note_off_c, 13, 37, 64
14, 271440, Note_on_c, 13, 37, 99
14, 271536, Note_off_c, 13, 37, 64
14, 271560, Note_on_c, 13, 37, 99
14, 271656, Note_off_c, 13, 37, 64
14, 271680, Note_on_c, 13, 37, 99
14, 271776, Note_off_c, 13, 37, 64
14, 271800, Note_on_c, 13, 37, 99
14, 271896, Note_off_c, 13, 37, 64
14, 271920, Note_on_c, 13, 37, 99
14, 272016, Note_off_c, 13, 37, 64
14, 272040, Note_on_c, 13, 37, 99
14, 272136, Note_off_c, 13, 37, 64
14, 272160, Note_on_c, 13, 37, 99
14, 272256, Note_off_c, 13, 37, 64
14, 272280, Note_on_c, 13, 37, 99
14, 272376, Note_off_c, 13, 37, 64
14, 272400, Note_on_c, 13, 37, 99
14, 272496, Note_off_c, 13, 37, 64
14, 272520, Note_on_c, 13, 37, 99
14, 272616, Note_off_c, 13, 37, 64
14, 272640, Note_on_c, 13, 37, 127
14, 272784, Note_off_c, 13, 37, 64
14, 275040, Note_on_c, 13, 36, 127
14, 275184, Note_off_c, 13, 36, 64
14, 277440, Note_on_c, 13, 24, 127
14, 277560, Note_off_c, 13, 24, 64
14, 277920, Note_on_c, 13, 24, 127
14, 278520, Note_off_c, 13, 24, 64
14, 278880, Note_on_c, 13, 24, 127
14, 279480, Note_off_c, 13, 24, 64
14, 279840, Note_on_c, 13, 24, 127
14, 280080, Note_off_c, 13, 24, 64
14, 280320, Note_on_c, 13, 29, 127
14, 280440, Note_off_c, 13, 29, 64
14, 282240, Note_on_c, 13, 32, 127
14, 282600, Note_off_c, 13, 32, 64
14, 282600, Note_on_c, 13, 40, 127
14, 282696, Note_off_c, 13, 40, 64
14, 282720, Note_on_c, 13, 40, 127
14, 284112, Note_off_c, 13, 40, 64
14, 284160, Note_on_c, 13, 28, 127
14, 284280, Note_off_c, 13, 28, 64
14, 284640, Note_on_c, 13, 28, 127
14, 285240, Note_off_c, 13, 28, 64
14, 285600, Note_on_c, 13, 28, 127
14, 286200, Note_off_c, 13, 28, 64
14, 286560, Note_on_c, 13, 28, 127
14, 286800, Note_off_c, 13, 28, 64
14, 287040, Note_on_c, 13, 33, 127
14, 287160, Note_off_c, 13, 33, 64
14, 288960, Note_on_c, 13, 27, 127
14, 289320, Note_off_c, 13, 27, 64
14, 289320, Note_on_c, 13, 35, 127
14, 289416, Note_off_c, 13, 35, 64
14, 289440, Note_on_c, 13, 35, 127
14, 290832, Note_off_c, 13, 35, 64
14, 290880, Note_on_c, 13, 26, 127
14, 291000, Note_off_c, 13, 26, 64
14, 292800, Note_on_c, 13, 25, 127
14, 293160, Note_off_c, 13, 25, 64
14, 293160, Note_on_c, 13, 33, 127
14, 293256, Note_off_c, 13, 33, 64
14, 293280, Note_on_c, 13, 33, 127
14, 294672, Note_off_c, 13, 33, 64
14, 294720, Note_on_c, 13, 24, 127
14, 294840, Note_off_c, 13, 24, 64
14, 295680, Note_on_c, 13, 24, 127
14, 296040, Note_off_c, 13, 24, 64
14, 296040, Note_on_c, 13, 32, 127
14, 296136, Note_off_c, 13, 32, 64
14, 296160, Note_on_c, 13, 32, 127
14, 296640, Note_off_c, 13, 32, 64
14, 296640, Note_on_c, 13, 31, 127
14, 296760, Note_off_c, 13, 31, 64
14, 297120, Note_on_c, 13, 31, 127
14, 297720, Note_off_c, 13, 31, 64
14, 298080, Note_on_c, 13, 31, 127
14, 298680, Note_off_c, 13, 31, 64
14, 299040, Note_on_c, 13, 31, 127
14, 299640, Note_off_c, 13, 31, 64
14, 300000, Note_on_c, 13, 31, 127
14, 300600, Note_off_c, 13, 31, 64
14, 300960, Note_on_c, 13, 31, 127
14, 301560, Note_off_c, 13, 31, 64
14, 301920, Note_on_c, 13, 31, 127
14, 302520, Note_off_c, 13, 31, 64
14, 302880, Note_on_c, 13, 31, 127
14, 303360, Note_off_c, 13, 31, 64
14, 303360, Note_on_c, 13, 36, 127
14, 303480, Note_off_c, 13, 36, 64
14, 304320, Note_on_c, 13, 31, 80
14, 304512, Note_off_c, 13, 31, 64
14, 304800, Note_on_c, 13, 31, 127
14, 305280, Note_off_c, 13, 31, 64
14, 305760, Note_on_c, 13, 31, 127
14, 306360, Note_off_c, 13, 31, 64
14, 306720, Note_on_c, 13, 31, 127
14, 307320, Note_off_c, 13, 31, 64
14, 307680, Note_on_c, 13, 31, 127
14, 308280, Note_off_c, 13, 31, 64
14, 308640, Note_on_c, 13, 31, 127
14, 309240, Note_off_c, 13, 31, 64
14, 309600, Note_on_c, 13, 31, 127
14, 310200, Note_off_c, 13, 31, 64
14, 310560, Note_on_c, 13, 31, 127
14, 311040, Note_off_c, 13, 31, 64
14, 311040, Note_on_c, 13, 36, 127
14, 311160, Note_off_c, 13, 36, 64
14, 312000, Note_on_c, 13, 29, 127
14, 312120, Note_off_c, 13, 29, 64
14, 312480, Note_on_c, 13, 29, 127
14, 312960, Note_off_c, 13, 29, 64
14, 312960, Note_on_c, 13, 28, 108
14, 313080, Note_off_c, 13, 28, 64
14, 313440, Note_on_c, 13, 28, 127
14, 313920, Note_off_c, 13, 28, 64
14, 313920, Note_on_c, 13, 29, 108
14, 314040, Note_off_c, 13, 29, 64
14, 314400, Note_on_c, 13, 29, 127
14, 314880, Note_off_c, 13, 29, 64
14, 314880, Note_on_c, 13, 28, 108
14, 315000, Note_off_c, 13, 28, 64
14, 315360, Note_on_c, 13, 33, 127
14, 315840, Note_off_c, 13, 33, 64
14, 315840, Note_on_c, 13, 38, 108
14, 315960, Note_off_c, 13, 38, 64
14, 316320, Note_on_c, 13, 31, 127
14, 316800, Note_off_c, 13, 31, 64
14, 316800, Note_on_c, 13, 36, 108
14, 316920, Note_off_c, 13, 36, 64
14, 317280, Note_on_c, 13, 28, 127
14, 317760, Note_off_c, 13, 28, 64
14, 317760, Note_on_c, 13, 31, 108
14, 317880, Note_off_c, 13, 31, 64
14, 318240, Note_on_c, 13, 31, 127
14, 318720, Note_off_c, 13, 31, 64
14, 318720, Note_on_c, 13, 36, 127
14, 318840, Note_off_c, 13, 36, 64
14, 319680, Note_on_c, 13, 29, 127
14, 319800, Note_off_c, 13, 29, 64
14, 320160, Note_on_c, 13, 29, 127
14, 320640, Note_off_c, 13, 29, 64
14, 320640, Note_on_c, 13, 28, 108
14, 320760, Note_off_c, 13, 28, 64
14, 321120, Note_on_c, 13, 28, 127
14, 321600, Note_off_c, 13, 28, 64
14, 321600, Note_on_c, 13, 29, 108
14, 321720, Note_off_c, 13, 29, 64
14, 322080, Note_on_c, 13, 29, 127
14, 322560, Note_off_c, 13, 29, 64
14, 322560, Note_on_c, 13, 28, 108
14, 322680, Note_off_c, 13, 28, 64
14, 323040, Note_on_c, 13, 33, 127
14, 323520, Note_off_c, 13, 33, 64
14, 323520, Note_on_c, 13, 38, 108
14, 323640, Note_off_c, 13, 38, 64
14, 324000, Note_on_c, 13, 31, 127
14, 324480, Note_off_c, 13, 31, 64
14, 324480, Note_on_c, 13, 36, 108
14, 324600, Note_off_c, 13, 36, 64
14, 324960, Note_on_c, 13, 28, 127
14, 325440, Note_off_c, 13, 28, 64
14, 325440, Note_on_c, 13, 31, 108
14, 325560, Note_off_c, 13, 31, 64
14, 325920, Note_on_c, 13, 31, 127
14, 326400, Note_off_c, 13, 31, 64
14, 326400, Note_on_c, 13, 36, 127
14, 326520, Note_off_c, 13, 36, 64
14, 327120, Note_on_c, 13, 49, 127
14, 327312, Note_off_c, 13, 49, 64
14, 327360, Note_on_c, 13, 50, 80
14, 327744, Note_off_c, 13, 50, 64
14, 328080, Note_on_c, 13, 47, 127
14, 328272, Note_off_c, 13, 47, 64
14, 328320, Note_on_c, 13, 48, 80
14, 328704, Note_off_c, 13, 48, 64
14, 329040, Note_on_c, 13, 45, 127
14, 329232, Note_off_c, 13, 45, 64
14, 329280, Note_on_c, 13, 43, 80
14, 329664, Note_off_c, 13, 43, 64
14, 330000, Note_on_c, 13, 43, 127
14, 330192, Note_off_c, 13, 43, 64
14, 330240, Note_on_c, 13, 36, 80
14, 330624, Note_off_c, 13, 36, 64
14, 330960, Note_on_c, 13, 46, 80
14, 331152, Note_off_c, 13, 46, 64
14, 331200, Note_on_c, 13, 45, 80
14, 331584, Note_off_c, 13, 45, 64
14, 331920, Note_on_c, 13, 50, 80
14, 332112, Note_off_c, 13, 50, 64
14, 332160, Note_on_c, 13, 46, 80
14, 332544, Note_off_c, 13, 46, 64
14, 332880, Note_on_c, 13, 46, 80
14, 333072, Note_off_c, 13, 46, 64
14, 333120, Note_on_c, 13, 48, 80
14, 333504, Note_off_c, 13, 48, 64
14, 333840, Note_on_c, 13, 48, 127
14, 334032, Note_off_c, 13, 48, 64
14, 334080, Note_on_c, 13, 41, 80
14, 334464, Note_off_c, 13, 41, 64
14, 334800, Note_on_c, 13, 53, 127
14, 334992, Note_off_c, 13, 53, 64
14, 335040, Note_on_c, 13, 50, 80
14, 335424, Note_off_c, 13, 50, 64
14, 335760, Note_on_c, 13, 50, 127
14, 335952, Note_off_c, 13, 50, 64
14, 336000, Note_on_c, 13, 43, 80
14, 336384, Note_off_c, 13, 43, 64
14, 336720, Note_on_c, 13, 43, 127
14, 336912, Note_off_c, 13, 43, 64
14, 336960, Note_on_c, 13, 45, 80
14, 337344, Note_off_c, 13, 45, 64
14, 337680, Note_on_c, 13, 45, 127
14, 337872, Note_off_c, 13, 45, 64
14, 337920, Note_on_c, 13, 38, 60
14, 338146, Note_off_c, 13, 38, 64
14, 338400, Note_on_c, 13, 50, 104
14, 338850, Note_off_c, 13, 50, 64
14, 338880, Note_on_c, 13, 53, 98
14, 339106, Note_off_c, 13, 53, 64
14, 339360, Note_on_c, 13, 45, 92
14, 339810, Note_off_c, 13, 45, 64
14, 339840, Note_on_c, 13, 50, 90
14, 340066, Note_off_c, 13, 50, 64
14, 340320, Note_on_c, 13, 41, 84
14, 340770, Note_off_c, 13, 41, 64
14, 340800, Note_on_c, 13, 45, 78
14, 341026, Note_off_c, 13, 45, 64
14, 341280, Note_on_c, 13, 38, 73
14, 341730, Note_off_c, 13, 38, 64
14, 341760, Note_on_c, 13, 41, 67
14, 341986, Note_off_c, 13, 41, 64
14, 342240, Note_on_c, 13, 33, 62
14, 342690, Note_off_c, 13, 33, 64
14, 342720, Note_on_c, 13, 38, 56
14, 342946, Note_off_c, 13, 38, 64
14, 343200, Note_on_c, 13, 29, 41
14, 343650, Note_off_c, 13, 29, 64
14, 343680, Note_on_c, 13, 33, 36
14, 343906, Note_off_c, 13, 33, 64
14, 344160, Note_on_c, 13, 29, 32
14, 344610, Note_off_c, 13, 29, 64
14, 344640, Note_on_c, 13, 33, 60
14, 344866, Note_off_c, 13, 33, 64
14, 345120, Note_on_c, 13, 30, 60
14, 345570, Note_off_c, 13, 30, 64
14, 345600, Note_on_c, 13, 33, 60
14, 345826, Note_off_c, 13, 33, 64
14, 346080, Note_on_c, 13, 30, 60
14, 346530, Note_off_c, 13, 30, 64
14, 346560, Note_on_c, 13, 34, 60
14, 346786, Note_off_c, 13, 34, 64
14, 347040, Note_on_c, 13, 31, 60
14, 347490, Note_off_c, 13, 31, 64
14, 347520, Note_on_c, 13, 34, 60
14, 347746, Note_off_c, 13, 34, 64
14, 348000, Note_on_c, 13, 31, 60
14, 348450, Note_off_c, 13, 31, 64
14, 348480, Note_on_c, 13, 35, 60
14, 348706, Note_off_c, 13, 35, 64
14, 348960, Note_on_c, 13, 32, 72
14, 349410, Note_off_c, 13, 32, 64
14, 349440, Note_on_c, 13, 35, 72
14, 349666, Note_off_c, 13, 35, 64
14, 349920, Note_on_c, 13, 32, 72
14, 350370, Note_off_c, 13, 32, 64
14, 350400, Note_on_c, 13, 36, 72
14, 350626, Note_off_c, 13, 36, 64
14, 350880, Note_on_c, 13, 33, 72
14, 351330, Note_off_c, 13, 33, 64
14, 351360, Note_on_c, 13, 37, 72
14, 351586, Note_off_c, 13, 37, 64
14, 351840, Note_on_c, 13, 34, 72
14, 352290, Note_off_c, 13, 34, 64
14, 352320, Note_on_c, 13, 38, 60
14, 352546, Note_off_c, 13, 38, 64
14, 352800, Note_on_c, 13, 35, 60
14, 353250, Note_off_c, 13, 35, 64
14, 353280, Note_on_c, 13, 39, 60
14, 353506, Note_off_c, 13, 39, 64
14, 353760, Note_on_c, 13, 36, 60
14, 354210, Note_off_c, 13, 36, 64
14, 354240, Note_on_c, 13, 40, 50
14, 354466, Note_off_c, 13, 40, 64
14, 354720, Note_on_c, 13, 37, 50
14, 355170, Note_off_c, 13, 37, 64
14, 355200, Note_on_c, 13, 40, 50
14, 355426, Note_off_c, 13, 40, 64
14, 355680, Note_on_c, 13, 38, 50
14, 356130, Note_off_c, 13, 38, 64
14, 356160, Note_on_c, 13, 40, 50
14, 356386, Note_off_c, 13, 40, 64
14, 356640, Note_on_c, 13, 39, 50
14, 357090, Note_off_c, 13, 39, 64
14, 357120, Note_on_c, 13, 40, 50
14, 357346, Note_off_c, 13, 40, 64
14, 357600, Note_on_c, 13, 39, 50
14, 358050, Note_off_c, 13, 39, 64
14, 358080, Note_on_c, 13, 40, 50
14, 358306, Note_off_c, 13, 40, 64
14, 358560, Note_on_c, 13, 39, 50
14, 359010, Note_off_c, 13, 39, 64
14, 359040, Note_on_c, 13, 40, 50
14, 359266, Note_off_c, 13, 40, 64
14, 359520, Note_on_c, 13, 39, 50
14, 359970, Note_off_c, 13, 39, 64
14, 360000, Note_on_c, 13, 40, 50
14, 360226, Note_off_c, 13, 40, 64
14, 360480, Note_on_c, 13, 39, 50
14, 360930, Note_off_c, 13, 39, 64
14, 360960, Note_on_c, 13, 40, 50
14, 361186, Note_off_c, 13, 40, 64
14, 361440, Note_on_c, 13, 40, 50
14, 361920, Note_off_c, 13, 40, 64
14, 361920, Note_on_c, 13, 41, 40
14, 361980, Note_off_c, 13, 41, 64
14, 362160, Note_on_c, 13, 41, 40
14, 362220, Note_off_c, 13, 41, 64
14, 362280, Note_on_c, 13, 41, 40
14, 362340, Note_off_c, 13, 41, 64
14, 362400, Note_on_c, 13, 41, 40
14, 362520, Note_off_c, 13, 41, 64
14, 363840, Note_on_c, 13, 41, 40
14, 363900, Note_off_c, 13, 41, 64
14, 364080, Note_on_c, 13, 41, 40
14, 364140, Note_off_c, 13, 41, 64
14, 364200, Note_on_c, 13, 41, 40
14, 364260, Note_off_c, 13, 41, 64
14, 364320, Note_on_c, 13, 41, 40
14, 364440, Note_off_c, 13, 41, 64
14, 372000, Note_on_c, 13, 38, 48
14, 372360, Note_off_c, 13, 38, 64
14, 372360, Note_on_c, 13, 46, 48
14, 372456, Note_off_c, 13, 46, 64
14, 372480, Note_on_c, 13, 41, 40
14, 372540, Note_off_c, 13, 41, 64
14, 372720, Note_on_c, 13, 41, 40
14, 372780, Note_off_c, 13, 41, 64
14, 372840, Note_on_c, 13, 41, 40
14, 372900, Note_off_c, 13, 41, 64
14, 372960, Note_on_c, 13, 41, 40
14, 373080, Note_off_c, 13, 41, 64
14, 374400, Note_on_c, 13, 41, 40
14, 374460, Note_off_c, 13, 41, 64
14, 374640, Note_on_c, 13, 41, 40
14, 374700, Note_off_c, 13, 41, 64
14, 374760, Note_on_c, 13, 41, 40
14, 374820, Note_off_c, 13, 41, 64
14, 374880, Note_on_c, 13, 41, 40
14, 375000, Note_off_c, 13, 41, 64
14, 382560, Note_on_c, 13, 38, 105
14, 382920, Note_off_c, 13, 38, 64
14, 382920, Note_on_c, 13, 47, 105
14, 383016, Note_off_c, 13, 47, 64
14, 383040, Note_on_c, 13, 28, 127
14, 383208, Note_off_c, 13, 28, 64
14, 385440, Note_on_c, 13, 28, 127
14, 385608, Note_off_c, 13, 28, 64
14, 387840, Note_on_c, 13, 28, 127
14, 387960, Note_off_c, 13, 28, 64
14, 388320, Note_on_c, 13, 28, 127
14, 388920, Note_off_c, 13, 28, 64
14, 389280, Note_on_c, 13, 28, 127
14, 389880, Note_off_c, 13, 28, 64
14, 390240, Note_on_c, 13, 28, 127
14, 390840, Note_off_c, 13, 28, 64
14, 391200, Note_on_c, 13, 28, 127
14, 391800, Note_off_c, 13, 28, 64
14, 392160, Note_on_c, 13, 28, 127
14, 392760, Note_off_c, 13, 28, 64
14, 393120, Note_on_c, 13, 28, 127
14, 393720, Note_off_c, 13, 28, 64
14, 394080, Note_on_c, 13, 28, 127
14, 394560, Note_off_c, 13, 28, 64
14, 394560, Note_on_c, 13, 33, 127
14, 394680, Note_off_c, 13, 33, 64
14, 395520, Note_on_c, 13, 28, 127
14, 395640, Note_off_c, 13, 28, 64
14, 396000, Note_on_c, 13, 28, 127
14, 396600, Note_off_c, 13, 28, 64
14, 396960, Note_on_c, 13, 28, 127
14, 397560, Note_off_c, 13, 28, 64
14, 397920, Note_on_c, 13, 28, 127
14, 398520, Note_off_c, 13, 28, 64
14, 398880, Note_on_c, 13, 28, 127
14, 399480, Note_off_c, 13, 28, 64
14, 399840, Note_on_c, 13, 28, 127
14, 400440, Note_off_c, 13, 28, 64
14, 400800, Note_on_c, 13, 28, 127
14, 401400, Note_off_c, 13, 28, 64
14, 401760, Note_on_c, 13, 28, 127
14, 402240, Note_off_c, 13, 28, 64
14, 402240, Note_on_c, 13, 33, 127
14, 402360, Note_off_c, 13, 33, 64
14, 403320, Note_on_c, 13, 33, 127
14, 403440, Note_off_c, 13, 33, 64
14, 404400, Note_on_c, 13, 28, 127
14, 404520, Note_off_c, 13, 28, 64
14, 405480, Note_on_c, 13, 28, 127
14, 405600, Note_off_c, 13, 28, 64
14, 406560, Note_on_c, 13, 33, 127
14, 406680, Note_off_c, 13, 33, 64
14, 407040, Note_on_c, 13, 33, 127
14, 407160, Note_off_c, 13, 33, 64
14, 407520, Note_on_c, 13, 33, 127
14, 407640, Note_off_c, 13, 33, 64
14, 408000, Note_on_c, 13, 33, 127
14, 408120, Note_off_c, 13, 33, 64
14, 408480, Note_on_c, 13, 28, 127
14, 408600, Note_off_c, 13, 28, 64
14, 408960, Note_on_c, 13, 28, 127
14, 409080, Note_off_c, 13, 28, 64
14, 409440, Note_on_c, 13, 28, 127
14, 409560, Note_off_c, 13, 28, 64
14, 409920, Note_on_c, 13, 28, 127
14, 410040, Note_off_c, 13, 28, 64
14, 410400, Note_on_c, 13, 33, 127
14, 410520, Note_off_c, 13, 33, 64
14, 411480, Note_on_c, 13, 33, 127
14, 411600, Note_off_c, 13, 33, 64
14, 412560, Note_on_c, 13, 28, 127
14, 412680, Note_off_c, 13, 28, 64
14, 413640, Note_on_c, 13, 28, 127
14, 413760, Note_off_c, 13, 28, 64
14, 414720, Note_on_c, 13, 33, 100
14, 414840, Note_off_c, 13, 33, 64
14, 414960, Note_on_c, 13, 33, 100
14, 415080, Note_off_c, 13, 33, 64
14, 415200, Note_on_c, 13, 33, 100
14, 415320, Note_off_c, 13, 33, 64
14, 415440, Note_on_c, 13, 33, 100
14, 415560, Note_off_c, 13, 33, 64
14, 415680, Note_on_c, 13, 33, 100
14, 415800, Note_off_c, 13, 33, 64
14, 415920, Note_on_c, 13, 33, 100
14, 416040, Note_off_c, 13, 33, 64
14, 416160, Note_on_c, 13, 33, 100
14, 416280, Note_off_c, 13, 33, 64
14, 416400, Note_on_c, 13, 33, 100
14, 416520, Note_off_c, 13, 33, 64
14, 416640, Note_on_c, 13, 28, 100
14, 416760, Note_off_c, 13, 28, 64
14, 416880, Note_on_c, 13, 28, 100
14, 417000, Note_off_c, 13, 28, 64
14, 417120, Note_on_c, 13, 28, 100
14, 417240, Note_off_c, 13, 28, 64
14, 417360, Note_on_c, 13, 28, 100
14, 417480, Note_off_c, 13, 28, 64
14, 417600, Note_on_c, 13, 28, 100
14, 417720, Note_off_c, 13, 28, 64
14, 417840, Note_on_c, 13, 28, 100
14, 417960, Note_off_c, 13, 28, 64
14, 418080, Note_on_c, 13, 28, 100
14, 418200, Note_off_c, 13, 28, 64
14, 418320, Note_on_c, 13, 28, 100
14, 418440, Note_off_c, 13, 28, 64
14, 418560, Note_on_c, 13, 33, 80
14, 418752, Note_off_c, 13, 33, 64
14, 420000, Note_on_c, 13, 52, 80
14, 420480, Note_off_c, 13, 52, 64
14, 420480, Note_on_c, 13, 45, 80
14, 420960, Note_off_c, 13, 45, 64
14, 420960, Note_on_c, 13, 40, 80
14, 421440, Note_off_c, 13, 40, 64
14, 421440, Note_on_c, 13, 33, 80
14, 421920, Note_off_c, 13, 33, 64
14, 421920, Note_on_c, 13, 28, 80
14, 422400, Note_off_c, 13, 28, 64
14, 422400, Note_on_c, 13, 33, 80
14, 422640, Note_off_c, 13, 33, 64
14, 423840, Note_on_c, 13, 52, 80
14, 424320, Note_off_c, 13, 52, 64
14, 424320, Note_on_c, 13, 45, 80
14, 424800, Note_off_c, 13, 45, 64
14, 424800, Note_on_c, 13, 33, 80
14, 425280, Note_off_c, 13, 33, 64
14, 425280, Note_on_c, 13, 45, 80
14, 425760, Note_off_c, 13, 45, 64
14, 425760, Note_on_c, 13, 33, 80
14, 426240, Note_off_c, 13, 33, 64
14, 426240, Note_on_c, 13, 38, 80
14, 426480, Note_off_c, 13, 38, 64
14, 427680, Note_on_c, 13, 45, 80
14, 428160, Note_off_c, 13, 45, 64
14, 428160, Note_on_c, 13, 50, 80
14, 428640, Note_off_c, 13, 50, 64
14, 428640, Note_on_c, 13, 45, 80
14, 429120, Note_off_c, 13, 45, 64
14, 429120, Note_on_c, 13, 38, 80
14, 429600, Note_off_c, 13, 38, 64
14, 429600, Note_on_c, 13, 33, 80
14, 430080, Note_off_c, 13, 33, 64
14, 430080, Note_on_c, 13, 26, 80
14, 430320, Note_off_c, 13, 26, 64
14, 431520, Note_on_c, 13, 45, 80
14, 432000, Note_off_c, 13, 45, 64
14, 432000, Note_on_c, 13, 50, 80
14, 432480, Note_off_c, 13, 50, 64
14, 432480, Note_on_c, 13, 45, 80
14, 432960, Note_off_c, 13, 45, 64
14, 432960, Note_on_c, 13, 38, 80
14, 433440, Note_off_c, 13, 38, 64
14, 433440, Note_on_c, 13, 33, 80
14, 433920, Note_off_c, 13, 33, 64
14, 433920, Note_on_c, 13, 26, 110
14, 434034, Note_off_c, 13, 26, 64
14, 434280, Note_on_c, 13, 38, 80
14, 434394, Note_off_c, 13, 38, 64
14, 434400, Note_on_c, 13, 38, 80
14, 434514, Note_off_c, 13, 38, 64
14, 434760, Note_on_c, 13, 38, 80
14, 434874, Note_off_c, 13, 38, 64
14, 434880, Note_on_c, 13, 38, 80
14, 434994, Note_off_c, 13, 38, 64
14, 435240, Note_on_c, 13, 38, 80
14, 435354, Note_off_c, 13, 38, 64
14, 435360, Note_on_c, 13, 38, 80
14, 435474, Note_off_c, 13, 38, 64
14, 435720, Note_on_c, 13, 38, 80
14, 435834, Note_off_c, 13, 38, 64
14, 435840, Note_on_c, 13, 37, 80
14, 435954, Note_off_c, 13, 37, 64
14, 436200, Note_on_c, 13, 37, 80
14, 436314, Note_off_c, 13, 37, 64
14, 436320, Note_on_c, 13, 37, 80
14, 436434, Note_off_c, 13, 37, 64
14, 436680, Note_on_c, 13, 37, 80
14, 436794, Note_off_c, 13, 37, 64
14, 436800, Note_on_c, 13, 37, 80
14, 436914, Note_off_c, 13, 37, 64
14, 437160, Note_on_c, 13, 37, 80
14, 437274, Note_off_c, 13, 37, 64
14, 437280, Note_on_c, 13, 37, 80
14, 437394, Note_off_c, 13, 37, 64
14, 437640, Note_on_c, 13, 37, 80
14, 437754, Note_off_c, 13, 37, 64
14, 437760, Note_on_c, 13, 38, 80
14, 437874, Note_off_c, 13, 38, 64
14, 438120, Note_on_c, 13, 38, 80
14, 438234, Note_off_c, 13, 38, 64
14, 438240, Note_on_c, 13, 38, 80
14, 438354, Note_off_c, 13, 38, 64
14, 438600, Note_on_c, 13, 38, 80
14, 438714, Note_off_c, 13, 38, 64
14, 438720, Note_on_c, 13, 36, 110
14, 438834, Note_off_c, 13, 36, 64
14, 439080, Note_on_c, 13, 36, 80
14, 439194, Note_off_c, 13, 36, 64
14, 439200, Note_on_c, 13, 36, 80
14, 439314, Note_off_c, 13, 36, 64
14, 439560, Note_on_c, 13, 36, 80
14, 439674, Note_off_c, 13, 36, 64
14, 439680, Note_on_c, 13, 35, 110
14, 439794, Note_off_c, 13, 35, 64
14, 440040, Note_on_c, 13, 35, 80
14, 440154, Note_off_c, 13, 35, 64
14, 440160, Note_on_c, 13, 35, 80
14, 440274, Note_off_c, 13, 35, 64
14, 440520, Note_on_c, 13, 35, 80
14, 440634, Note_off_c, 13, 35, 64
14, 440640, Note_on_c, 13, 33, 110
14, 440754, Note_off_c, 13, 33, 64
14, 441000, Note_on_c, 13, 33, 80
14, 441114, Note_off_c, 13, 33, 64
14, 441120, Note_on_c, 13, 33, 80
14, 441234, Note_off_c, 13, 33, 64
14, 441480, Note_on_c, 13, 33, 80
14, 441594, Note_off_c, 13, 33, 64
14, 441600, Note_on_c, 13, 32, 110
14, 441714, Note_off_c, 13, 32, 64
14, 441960, Note_on_c, 13, 29, 80
14, 442074, Note_off_c, 13, 29, 64
14, 442080, Note_on_c, 13, 29, 80
14, 442194, Note_off_c, 13, 29, 64
14, 442440, Note_on_c, 13, 29, 80
14, 442554, Note_off_c, 13, 29, 64
14, 442560, Note_on_c, 13, 29, 80
14, 442674, Note_off_c, 13, 29, 64
14, 442920, Note_on_c, 13, 29, 80
14, 443034, Note_off_c, 13, 29, 64
14, 443040, Note_on_c, 13, 29, 80
14, 443154, Note_off_c, 13, 29, 64
14, 443400, Note_on_c, 13, 29, 80
14, 443514, Note_off_c, 13, 29, 64
14, 443520, Note_on_c, 13, 28, 127
14, 443634, Note_off_c, 13, 28, 64
14, 444000, Note_on_c, 13, 28, 127
14, 444114, Note_off_c, 13, 28, 64
14, 447840, Note_on_c, 13, 28, 127
14, 447954, Note_off_c, 13, 28, 64
14, 455040, Note_on_c, 13, 33, 64
14, 455112, Note_off_c, 13, 33, 64
14, 455400, Note_on_c, 13, 45, 64
14, 455520, Note_off_c, 13, 45, 64
14, 455520, Note_on_c, 13, 45, 96
14, 455970, Note_off_c, 13, 45, 64
14, 456000, Note_on_c, 13, 28, 77
14, 456072, Note_off_c, 13, 28, 64
14, 456360, Note_on_c, 13, 40, 64
14, 456480, Note_off_c, 13, 40, 64
14, 456480, Note_on_c, 13, 40, 96
14, 456930, Note_off_c, 13, 40, 64
14, 456960, Note_on_c, 13, 33, 77
14, 457032, Note_off_c, 13, 33, 64
14, 457320, Note_on_c, 13, 45, 64
14, 457440, Note_off_c, 13, 45, 64
14, 457440, Note_on_c, 13, 45, 96
14, 457890, Note_off_c, 13, 45, 64
14, 457920, Note_on_c, 13, 28, 77
14, 457992, Note_off_c, 13, 28, 64
14, 458280, Note_on_c, 13, 40, 64
14, 458400, Note_off_c, 13, 40, 64
14, 458400, Note_on_c, 13, 40, 96
14, 458850, Note_off_c, 13, 40, 64
14, 458880, Note_on_c, 13, 45, 38
14, 459360, Note_off_c, 13, 45, 64
14, 465120, Note_on_c, 13, 45, 96
14, 465570, Note_off_c, 13, 45, 64
14, 466080, Note_on_c, 13, 40, 96
14, 466530, Note_off_c, 13, 40, 64
14, 467040, Note_on_c, 13, 45, 96
14, 467490, Note_off_c, 13, 45, 64
14, 468000, Note_on_c, 13, 40, 96
14, 468450, Note_off_c, 13, 40, 64
14, 468480, Note_on_c, 13, 45, 38
14, 468960, Note_off_c, 13, 45, 64
14, 480480, Note_on_c, 13, 32, 64
14, 480672, Note_off_c, 13, 32, 64
14, 481440, Note_on_c, 13, 33, 64
14, 481632, Note_off_c, 13, 33, 64
14, 482400, Note_on_c, 13, 28, 77
14, 482592, Note_off_c, 13, 28, 64
14, 483360, Note_on_c, 13, 28, 77
14, 483552, Note_off_c, 13, 28, 64
14, 484320, Note_on_c, 13, 28, 92
14, 484512, Note_off_c, 13, 28, 64
14, 485280, Note_on_c, 13, 28, 92
14, 485472, Note_off_c, 13, 28, 64
14, 486240, Note_on_c, 13, 32, 87
14, 486432, Note_off_c, 13, 32, 64
14, 486720, Note_on_c, 13, 33, 95
14, 486912, Note_off_c, 13, 33, 64
14, 487200, Note_on_c, 13, 25, 102
14, 487392, Note_off_c, 13, 25, 64
14, 487680, Note_on_c, 13, 24, 99
14, 487776, Note_off_c, 13, 24, 64
14, 487800, Note_on_c, 13, 24, 99
14, 487896, Note_off_c, 13, 24, 64
14, 487920, Note_on_c, 13, 24, 99
14, 488016, Note_off_c, 13, 24, 64
14, 488040, Note_on_c, 13, 24, 99
14, 488136, Note_off_c, 13, 24, 64
14, 488160, Note_on_c, 13, 24, 99
14, 488256, Note_off_c, 13, 24, 64
14, 488280, Note_on_c, 13, 24, 99
14, 488376, Note_off_c, 13, 24, 64
14, 488400, Note_on_c, 13, 24, 99
14, 488496, Note_off_c, 13, 24, 64
14, 488520, Note_on_c, 13, 24, 99
14, 488616, Note_off_c, 13, 24, 64
14, 488640, Note_on_c, 13, 24, 99
14, 488736, Note_off_c, 13, 24, 64
14, 488760, Note_on_c, 13, 24, 99
14, 488856, Note_off_c, 13, 24, 64
14, 488880, Note_on_c, 13, 24, 99
14, 488976, Note_off_c, 13, 24, 64
14, 489000, Note_on_c, 13, 24, 99
14, 489096, Note_off_c, 13, 24, 64
14, 489120, Note_on_c, 13, 24, 99
14, 489216, Note_off_c, 13, 24, 64
14, 489240, Note_on_c, 13, 24, 99
14, 489336, Note_off_c, 13, 24, 64
14, 489360, Note_on_c, 13, 24, 99
14, 489456, Note_off_c, 13, 24, 64
14, 489480, Note_on_c, 13, 24, 99
14, 489576, Note_off_c, 13, 24, 64
14, 489600, Note_on_c, 13, 29, 127
14, 489696, Note_off_c, 13, 29, 64
14, 489720, Note_on_c, 13, 29, 99
14, 489816, Note_off_c, 13, 29, 64
14, 489840, Note_on_c, 13, 29, 99
14, 489936, Note_off_c, 13, 29, 64
14, 489960, Note_on_c, 13, 29, 99
14, 490056, Note_off_c, 13, 29, 64
14, 490080, Note_on_c, 13, 29, 99
14, 490176, Note_off_c, 13, 29, 64
14, 490200, Note_on_c, 13, 29, 99
14, 490296, Note_off_c, 13, 29, 64
14, 490320, Note_on_c, 13, 29, 99
14, 490416, Note_off_c, 13, 29, 64
14, 490440, Note_on_c, 13, 29, 99
14, 490536, Note_off_c, 13, 29, 64
14, 490560, Note_on_c, 13, 24, 99
14, 490656, Note_off_c, 13, 24, 64
14, 490680, Note_on_c, 13, 24, 99
14, 490776, Note_off_c, 13, 24, 64
14, 490800, Note_on_c, 13, 24, 99
14, 490896, Note_off_c, 13, 24, 64
14, 490920, Note_on_c, 13, 24, 99
14, 491016, Note_off_c, 13, 24, 64
14, 491040, Note_on_c, 13, 24, 99
14, 491136, Note_off_c, 13, 24, 64
14, 491160, Note_on_c, 13, 24, 99
14, 491256, Note_off_c, 13, 24, 64
14, 491280, Note_on_c, 13, 24, 99
14, 491376, Note_off_c, 13, 24, 64
14, 491400, Note_on_c, 13, 24, 99
14, 491496, Note_off_c, 13, 24, 64
14, 491520, Note_on_c, 13, 29, 127
14, 491616, Note_off_c, 13, 29, 64
14, 491640, Note_on_c, 13, 29, 99
14, 491736, Note_off_c, 13, 29, 64
14, 491760, Note_on_c, 13, 29, 99
14, 491856, Note_off_c, 13, 29, 64
14, 491880, Note_on_c, 13, 29, 99
14, 491976, Note_off_c, 13, 29, 64
14, 492000, Note_on_c, 13, 29, 99
14, 492096, Note_off_c, 13, 29, 64
14, 492120, Note_on_c, 13, 29, 99
14, 492216, Note_off_c, 13, 29, 64
14, 492240, Note_on_c, 13, 29, 99
14, 492336, Note_off_c, 13, 29, 64
14, 492360, Note_on_c, 13, 29, 99
14, 492456, Note_off_c, 13, 29, 64
14, 492480, Note_on_c, 13, 24, 99
14, 492576, Note_off_c, 13, 24, 64
14, 492600, Note_on_c, 13, 24, 99
14, 492696, Note_off_c, 13, 24, 64
14, 492720, Note_on_c, 13, 24, 99
14, 492816, Note_off_c, 13, 24, 64
14, 492840, Note_on_c, 13, 24, 99
14, 492936, Note_off_c, 13, 24, 64
14, 492960, Note_on_c, 13, 24, 99
14, 493056, Note_off_c, 13, 24, 64
14, 493080, Note_on_c, 13, 24, 99
14, 493176, Note_off_c, 13, 24, 64
14, 493200, Note_on_c, 13, 24, 99
14, 493296, Note_off_c, 13, 24, 64
14, 493320, Note_on_c, 13, 24, 99
14, 493416, Note_off_c, 13, 24, 64
14, 493440, Note_on_c, 13, 24, 127
14, 493536, Note_off_c, 13, 24, 64
14, 493560, Note_on_c, 13, 24, 127
14, 493656, Note_off_c, 13, 24, 64
14, 493680, Note_on_c, 13, 24, 127
14, 493776, Note_off_c, 13, 24, 64
14, 493800, Note_on_c, 13, 24, 127
14, 493896, Note_off_c, 13, 24, 64
14, 493920, Note_on_c, 13, 24, 127
14, 494016, Note_off_c, 13, 24, 64
14, 494040, Note_on_c, 13, 24, 127
14, 494136, Note_off_c, 13, 24, 64
14, 494160, Note_on_c, 13, 24, 127
14, 494256, Note_off_c, 13, 24, 64
14, 494280, Note_on_c, 13, 24, 127
14, 494376, Note_off_c, 13, 24, 64
14, 494400, Note_on_c, 13, 24, 127
14, 494496, Note_off_c, 13, 24, 64
14, 494520, Note_on_c, 13, 24, 127
14, 494616, Note_off_c, 13, 24, 64
14, 494640, Note_on_c, 13, 24, 127
14, 494736, Note_off_c, 13, 24, 64
14, 494760, Note_on_c, 13, 24, 127
14, 494856, Note_off_c, 13, 24, 64
14, 494880, Note_on_c, 13, 24, 127
14, 494976, Note_off_c, 13, 24, 64
14, 495000, Note_on_c, 13, 24, 127
14, 495096, Note_off_c, 13, 24, 64
14, 495120, Note_on_c, 13, 24, 127
14, 495216, Note_off_c, 13, 24, 64
14, 495240, Note_on_c, 13, 24, 127
14, 495336, Note_off_c, 13, 24, 64
14, 495360, Note_on_c, 13, 29, 127
14, 495456, Note_off_c, 13, 29, 64
14, 495480, Note_on_c, 13, 29, 99
14, 495576, Note_off_c, 13, 29, 64
14, 495600, Note_on_c, 13, 29, 99
14, 495696, Note_off_c, 13, 29, 64
14, 495720, Note_on_c, 13, 29, 99
14, 495816, Note_off_c, 13, 29, 64
14, 495840, Note_on_c, 13, 29, 99
14, 495936, Note_off_c, 13, 29, 64
14, 495960, Note_on_c, 13, 29, 99
14, 496056, Note_off_c, 13, 29, 64
14, 496080, Note_on_c, 13, 29, 99
14, 496176, Note_off_c, 13, 29, 64
14, 496200, Note_on_c, 13, 29, 99
14, 496296, Note_off_c, 13, 29, 64
14, 496320, Note_on_c, 13, 24, 99
14, 496416, Note_off_c, 13, 24, 64
14, 496440, Note_on_c, 13, 24, 99
14, 496536, Note_off_c, 13, 24, 64
14, 496560, Note_on_c, 13, 24, 99
14, 496656, Note_off_c, 13, 24, 64
14, 496680, Note_on_c, 13, 24, 99
14, 496776, Note_off_c, 13, 24, 64
14, 496800, Note_on_c, 13, 24, 99
14, 496896, Note_off_c, 13, 24, 64
14, 496920, Note_on_c, 13, 24, 99
14, 497016, Note_off_c, 13, 24, 64
14, 497040, Note_on_c, 13, 24, 99
14, 497136, Note_off_c, 13, 24, 64
14, 497160, Note_on_c, 13, 24, 99
14, 497256, Note_off_c, 13, 24, 64
14, 497280, Note_on_c, 13, 29, 127
14, 497376, Note_off_c, 13, 29, 64
14, 497400, Note_on_c, 13, 29, 99
14, 497496, Note_off_c, 13, 29, 64
14, 497520, Note_on_c, 13, 29, 99
14, 497616, Note_off_c, 13, 29, 64
14, 497640, Note_on_c, 13, 29, 99
14, 497736, Note_off_c, 13, 29, 64
14, 497760, Note_on_c, 13, 29, 99
14, 497856, Note_off_c, 13, 29, 64
14, 497880, Note_on_c, 13, 29, 99
14, 497976, Note_off_c, 13, 29, 64
14, 498000, Note_on_c, 13, 29, 99
14, 498096, Note_off_c, 13, 29, 64
14, 498120, Note_on_c, 13, 29, 99
14, 498216, Note_off_c, 13, 29, 64
14, 498240, Note_on_c, 13, 29, 127
14, 498336, Note_off_c, 13, 29, 64
14, 498360, Note_on_c, 13, 29, 127
14, 498456, Note_off_c, 13, 29, 64
14, 498480, Note_on_c, 13, 29, 127
14, 498576, Note_off_c, 13, 29, 64
14, 498600, Note_on_c, 13, 29, 127
14, 498696, Note_off_c, 13, 29, 64
14, 498720, Note_on_c, 13, 29, 127
14, 498816, Note_off_c, 13, 29, 64
14, 498840, Note_on_c, 13, 29, 127
14, 498936, Note_off_c, 13, 29, 64
14, 498960, Note_on_c, 13, 29, 127
14, 499056, Note_off_c, 13, 29, 64
14, 499080, Note_on_c, 13, 29, 127
14, 499176, Note_off_c, 13, 29, 64
14, 499200, Note_on_c, 13, 28, 127
14, 499296, Note_off_c, 13, 28, 64
14, 499320, Note_on_c, 13, 28, 127
14, 499416, Note_off_c, 13, 28, 64
14, 499440, Note_on_c, 13, 28, 127
14, 499536, Note_off_c, 13, 28, 64
14, 499560, Note_on_c, 13, 28, 127
14, 499656, Note_off_c, 13, 28, 64
14, 499680, Note_on_c, 13, 28, 127
14, 499776, Note_off_c, 13, 28, 64
14, 499800, Note_on_c, 13, 28, 127
14, 499896, Note_off_c, 13, 28, 64
14, 499920, Note_on_c, 13, 28, 127
14, 500016, Note_off_c, 13, 28, 64
14, 500040, Note_on_c, 13, 28, 127
14, 500136, Note_off_c, 13, 28, 64
14, 500160, Note_on_c, 13, 28, 127
14, 500256, Note_off_c, 13, 28, 64
14, 500280, Note_on_c, 13, 28, 127
14, 500376, Note_off_c, 13, 28, 64
14, 500400, Note_on_c, 13, 28, 127
14, 500496, Note_off_c, 13, 28, 64
14, 500520, Note_on_c, 13, 28, 127
14, 500616, Note_off_c, 13, 28, 64
14, 500640, Note_on_c, 13, 28, 127
14, 500736, Note_off_c, 13, 28, 64
14, 500760, Note_on_c, 13, 28, 127
14, 500856, Note_off_c, 13, 28, 64
14, 500880, Note_on_c, 13, 28, 127
14, 500976, Note_off_c, 13, 28, 64
14, 501000, Note_on_c, 13, 28, 127
14, 501096, Note_off_c, 13, 28, 64
14, 501120, Note_on_c, 13, 33, 99
14, 501216, Note_off_c, 13, 33, 64
14, 501240, Note_on_c, 13, 33, 99
14, 501336, Note_off_c, 13, 33, 64
14, 501360, Note_on_c, 13, 33, 99
14, 501456, Note_off_c, 13, 33, 64
14, 501480, Note_on_c, 13, 33, 99
14, 501576, Note_off_c, 13, 33, 64
14, 501600, Note_on_c, 13, 33, 127
14, 501696, Note_off_c, 13, 33, 64
14, 501720, Note_on_c, 13, 33, 99
14, 501816, Note_off_c, 13, 33, 64
14, 501840, Note_on_c, 13, 33, 99
14, 501936, Note_off_c, 13, 33, 64
14, 501960, Note_on_c, 13, 33, 99
14, 502056, Note_off_c, 13, 33, 64
14, 502080, Note_on_c, 13, 33, 99
14, 502176, Note_off_c, 13, 33, 64
14, 502200, Note_on_c, 13, 33, 99
14, 502296, Note_off_c, 13, 33, 64
14, 502320, Note_on_c, 13, 33, 99
14, 502416, Note_off_c, 13, 33, 64
14, 502440, Note_on_c, 13, 33, 99
14, 502536, Note_off_c, 13, 33, 64
14, 502560, Note_on_c, 13, 33, 99
14, 502656, Note_off_c, 13, 33, 64
14, 502680, Note_on_c, 13, 33, 99
14, 502776, Note_off_c, 13, 33, 64
14, 502800, Note_on_c, 13, 33, 99
14, 502896, Note_off_c, 13, 33, 64
14, 502920, Note_on_c, 13, 33, 99
14, 503016, Note_off_c, 13, 33, 64
14, 503040, Note_on_c, 13, 33, 99
14, 503136, Note_off_c, 13, 33, 64
14, 503160, Note_on_c, 13, 33, 99
14, 503256, Note_off_c, 13, 33, 64
14, 503280, Note_on_c, 13, 33, 99
14, 503376, Note_off_c, 13, 33, 64
14, 503400, Note_on_c, 13, 33, 99
14, 503496, Note_off_c, 13, 33, 64
14, 503520, Note_on_c, 13, 33, 127
14, 503616, Note_off_c, 13, 33, 64
14, 503640, Note_on_c, 13, 33, 99
14, 503736, Note_off_c, 13, 33, 64
14, 503760, Note_on_c, 13, 33, 99
14, 503856, Note_off_c, 13, 33, 64
14, 503880, Note_on_c, 13, 33, 99
14, 503976, Note_off_c, 13, 33, 64
14, 504000, Note_on_c, 13, 33, 99
14, 504096, Note_off_c, 13, 33, 64
14, 504120, Note_on_c, 13, 33, 99
14, 504216, Note_off_c, 13, 33, 64
14, 504240, Note_on_c, 13, 33, 99
14, 504336, Note_off_c, 13, 33, 64
14, 504360, Note_on_c, 13, 33, 99
14, 504456, Note_off_c, 13, 33, 64
14, 504480, Note_on_c, 13, 33, 99
14, 504576, Note_off_c, 13, 33, 64
14, 504600, Note_on_c, 13, 33, 99
14, 504696, Note_off_c, 13, 33, 64
14, 504720, Note_on_c, 13, 33, 99
14, 504816, Note_off_c, 13, 33, 64
14, 504840, Note_on_c, 13, 33, 99
14, 504936, Note_off_c, 13, 33, 64
14, 504960, Note_on_c, 13, 33, 99
14, 505056, Note_off_c, 13, 33, 64
14, 505080, Note_on_c, 13, 33, 99
14, 505176, Note_off_c, 13, 33, 64
14, 505200, Note_on_c, 13, 33, 99
14, 505296, Note_off_c, 13, 33, 64
14, 505320, Note_on_c, 13, 33, 99
14, 505416, Note_off_c, 13, 33, 64
14, 505440, Note_on_c, 13, 33, 127
14, 505536, Note_off_c, 13, 33, 64
14, 505560, Note_on_c, 13, 33, 99
14, 505656, Note_off_c, 13, 33, 64
14, 505680, Note_on_c, 13, 33, 99
14, 505776, Note_off_c, 13, 33, 64
14, 505800, Note_on_c, 13, 33, 99
14, 505896, Note_off_c, 13, 33, 64
14, 505920, Note_on_c, 13, 33, 99
14, 506016, Note_off_c, 13, 33, 64
14, 506040, Note_on_c, 13, 33, 99
14, 506136, Note_off_c, 13, 33, 64
14, 506160, Note_on_c, 13, 33, 99
14, 506256, Note_off_c, 13, 33, 64
14, 506280, Note_on_c, 13, 33, 99
14, 506376, Note_off_c, 13, 33, 64
14, 506400, Note_on_c, 13, 33, 127
14, 506496, Note_off_c, 13, 33, 64
14, 506520, Note_on_c, 13, 33, 99
14, 506616, Note_off_c, 13, 33, 64
14, 506640, Note_on_c, 13, 33, 99
14, 506736, Note_off_c, 13, 33, 64
14, 506760, Note_on_c, 13, 33, 99
14, 506856, Note_off_c, 13, 33, 64
14, 506880, Note_on_c, 13, 33, 99
14, 506976, Note_off_c, 13, 33, 64
14, 507000, Note_on_c, 13, 33, 99
14, 507096, Note_off_c, 13, 33, 64
14, 507120, Note_on_c, 13, 33, 99
14, 507216, Note_off_c, 13, 33, 64
14, 507240, Note_on_c, 13, 33, 99
14, 507336, Note_off_c, 13, 33, 64
14, 507360, Note_on_c, 13, 33, 127
14, 507456, Note_off_c, 13, 33, 64
14, 507480, Note_on_c, 13, 33, 99
14, 507576, Note_off_c, 13, 33, 64
14, 507600, Note_on_c, 13, 33, 99
14, 507696, Note_off_c, 13, 33, 64
14, 507720, Note_on_c, 13, 33, 99
14, 507816, Note_off_c, 13, 33, 64
14, 507840, Note_on_c, 13, 33, 99
14, 507936, Note_off_c, 13, 33, 64
14, 507960, Note_on_c, 13, 33, 99
14, 508056, Note_off_c, 13, 33, 64
14, 508080, Note_on_c, 13, 33, 99
14, 508176, Note_off_c, 13, 33, 64
14, 508200, Note_on_c, 13, 33, 99
14, 508296, Note_off_c, 13, 33, 64
14, 508320, Note_on_c, 13, 33, 127
14, 508416, Note_off_c, 13, 33, 64
14, 508440, Note_on_c, 13, 33, 99
14, 508536, Note_off_c, 13, 33, 64
14, 508560, Note_on_c, 13, 33, 99
14, 508656, Note_off_c, 13, 33, 64
14, 508680, Note_on_c, 13, 33, 99
14, 508776, Note_off_c, 13, 33, 64
14, 508800, Note_on_c, 13, 33, 127
14, 508944, Note_off_c, 13, 33, 64
14, 511080, Note_on_c, 13, 33, 127
14, 511224, Note_off_c, 13, 33, 64
14, 513360, Note_on_c, 13, 33, 127
14, 513504, Note_off_c, 13, 33, 64
14, 514440, Note_on_c, 13, 33, 127
14, 514584, Note_off_c, 13, 33, 64
14, 515520, Note_on_c, 13, 33, 127
14, 515664, Note_off_c, 13, 33, 64
14, 516600, Note_on_c, 13, 33, 127
14, 516744, Note_off_c, 13, 33, 64
14, 517680, Note_on_c, 13, 34, 127
14, 517800, Note_off_c, 13, 34, 64
14, 519240, Note_on_c, 13, 54, 80
14, 519720, Note_off_c, 13, 54, 64
14, 519720, Note_on_c, 13, 47, 80
14, 520200, Note_off_c, 13, 47, 64
14, 520200, Note_on_c, 13, 42, 80
14, 520680, Note_off_c, 13, 42, 64
14, 520680, Note_on_c, 13, 35, 80
14, 521160, Note_off_c, 13, 35, 64
14, 521160, Note_on_c, 13, 30, 80
14, 521640, Note_off_c, 13, 30, 64
14, 521640, Note_on_c, 13, 35, 80
14, 521880, Note_off_c, 13, 35, 64
14, 523080, Note_on_c, 13, 54, 80
14, 523560, Note_off_c, 13, 54, 64
14, 523560, Note_on_c, 13, 47, 80
14, 524040, Note_off_c, 13, 47, 64
14, 524040, Note_on_c, 13, 42, 80
14, 524520, Note_off_c, 13, 42, 64
14, 524520, Note_on_c, 13, 35, 80
14, 525000, Note_off_c, 13, 35, 64
14, 525000, Note_on_c, 13, 30, 80
14, 525480, Note_off_c, 13, 30, 64
14, 525480, Note_on_c, 13, 35, 80
14, 525720, Note_off_c, 13, 35, 64
14, 525720, Note_on_c, 13, 47, 80
14, 525804, Note_off_c, 13, 47, 64
14, 525840, Note_on_c, 13, 49, 80
14, 525924, Note_off_c, 13, 49, 64
14, 525960, Note_on_c, 13, 52, 80
14, 526044, Note_off_c, 13, 52, 64
14, 526080, Note_on_c, 13, 50, 80
14, 526164, Note_off_c, 13, 50, 64
14, 526200, Note_on_c, 13, 49, 80
14, 526284, Note_off_c, 13, 49, 64
14, 526320, Note_on_c, 13, 47, 80
14, 526404, Note_off_c, 13, 47, 64
14, 526440, Note_on_c, 13, 52, 80
14, 526920, Note_off_c, 13, 52, 64
14, 526920, Note_on_c, 13, 50, 80
14, 527400, Note_off_c, 13, 50, 64
14, 527400, Note_on_c, 13, 49, 80
14, 527880, Note_off_c, 13, 49, 64
14, 527880, Note_on_c, 13, 47, 80
14, 528360, Note_off_c, 13, 47, 64
14, 528360, Note_on_c, 13, 45, 80
14, 528840, Note_off_c, 13, 45, 64
14, 528840, Note_on_c, 13, 47, 80
14, 529320, Note_off_c, 13, 47, 64
14, 529320, Note_on_c, 13, 49, 80
14, 529416, Note_off_c, 13, 49, 64
14, 529560, Note_on_c, 13, 47, 80
14, 529644, Note_off_c, 13, 47, 64
14, 529680, Note_on_c, 13, 49, 80
14, 529764, Note_off_c, 13, 49, 64
14, 529800, Note_on_c, 13, 52, 80
14, 529884, Note_off_c, 13, 52, 64
14, 529920, Note_on_c, 13, 50, 80
14, 530004, Note_off_c, 13, 50, 64
14, 530040, Note_on_c, 13, 49, 80
14, 530124, Note_off_c, 13, 49, 64
14, 530160, Note_on_c, 13, 47, 80
14, 530244, Note_off_c, 13, 47, 64
14, 530280, Note_on_c, 13, 52, 80
14, 530760, Note_off_c, 13, 52, 64
14, 530760, Note_on_c, 13, 50, 80
14, 531240, Note_off_c, 13, 50, 64
14, 531240, Note_on_c, 13, 49, 81
14, 531720, Note_off_c, 13, 49, 64
14, 531720, Note_on_c, 13, 47, 72
14, 532200, Note_off_c, 13, 47, 64
14, 532200, Note_on_c, 13, 45, 63
14, 532680, Note_off_c, 13, 45, 64
14, 532680, Note_on_c, 13, 43, 54
14, 533160, Note_off_c, 13, 43, 64
14, 533160, Note_on_c, 13, 42, 54
14, 533640, Note_off_c, 13, 42, 64
14, 533640, Note_on_c, 13, 40, 54
14, 534120, Note_off_c, 13, 40, 64
14, 534120, Note_on_c, 13, 38, 54
14, 534600, Note_off_c, 13, 38, 64
14, 534600, Note_on_c, 13, 37, 54
14, 535080, Note_off_c, 13, 37, 64
14, 535080, Note_on_c, 13, 35, 54
14, 535560, Note_off_c, 13, 35, 64
14, 535560, Note_on_c, 13, 33, 54
14, 536040, Note_off_c, 13, 33, 64
14, 536040, Note_on_c, 13, 32, 54
14, 536520, Note_off_c, 13, 32, 64
14, 536520, Note_on_c, 13, 33, 54
14, 537000, Note_off_c, 13, 33, 64
14, 537000, Note_on_c, 13, 32, 54
14, 537480, Note_off_c, 13, 32, 64
14, 537480, Note_on_c, 13, 33, 54
14, 537960, Note_off_c, 13, 33, 64
14, 537960, Note_on_c, 13, 32, 54
14, 538440, Note_off_c, 13, 32, 64
14, 538440, Note_on_c, 13, 33, 54
14, 538920, Note_off_c, 13, 33, 64
14, 538920, Note_on_c, 13, 32, 54
14, 539400, Note_off_c, 13, 32, 64
14, 539400, Note_on_c, 13, 33, 54
14, 539880, Note_off_c, 13, 33, 64
14, 539880, Note_on_c, 13, 32, 54
14, 540360, Note_off_c, 13, 32, 64
14, 540360, Note_on_c, 13, 32, 54
14, 540840, Note_off_c, 13, 32, 64
14, 540840, Note_on_c, 13, 31, 54
14, 541320, Note_off_c, 13, 31, 64
14, 541320, Note_on_c, 13, 32, 54
14, 541800, Note_off_c, 13, 32, 64
14, 541800, Note_on_c, 13, 31, 54
14, 542280, Note_off_c, 13, 31, 64
14, 542280, Note_on_c, 13, 30, 54
14, 542760, Note_off_c, 13, 30, 64
14, 542760, Note_on_c, 13, 31, 54
14, 543240, Note_off_c, 13, 31, 64
14, 543240, Note_on_c, 13, 32, 54
14, 543720, Note_off_c, 13, 32, 64
14, 543720, Note_on_c, 13, 31, 54
14, 544200, Note_off_c, 13, 31, 64
14, 544200, Note_on_c, 13, 30, 54
14, 544680, Note_off_c, 13, 30, 64
14, 544680, Note_on_c, 13, 31, 54
14, 545160, Note_off_c, 13, 31, 64
14, 545160, Note_on_c, 13, 30, 54
14, 545640, Note_off_c, 13, 30, 64
14, 545640, Note_on_c, 13, 29, 54
14, 546120, Note_off_c, 13, 29, 64
14, 546120, Note_on_c, 13, 30, 54
14, 546600, Note_off_c, 13, 30, 64
14, 546600, Note_on_c, 13, 29, 54
14, 547080, Note_off_c, 13, 29, 64
14, 547080, Note_on_c, 13, 30, 54
14, 547560, Note_off_c, 13, 30, 64
14, 547560, Note_on_c, 13, 29, 54
14, 548040, Note_off_c, 13, 29, 64
14, 548040, Note_on_c, 13, 28, 54
14, 548520, Note_off_c, 13, 28, 64
14, 548520, Note_on_c, 13, 29, 54
14, 549000, Note_off_c, 13, 29, 64
14, 549000, Note_on_c, 13, 30, 54
14, 549480, Note_off_c, 13, 30, 64
14, 549480, Note_on_c, 13, 29, 54
14, 549960, Note_off_c, 13, 29, 64
14, 549960, Note_on_c, 13, 28, 54
14, 550440, Note_off_c, 13, 28, 64
14, 550440, Note_on_c, 13, 29, 54
14, 550920, Note_off_c, 13, 29, 64
14, 550920, Note_on_c, 13, 29, 54
14, 551400, Note_off_c, 13, 29, 64
14, 551400, Note_on_c, 13, 28, 54
14, 551880, Note_off_c, 13, 28, 64
14, 551880, Note_on_c, 13, 29, 54
14, 552360, Note_off_c, 13, 29, 64
14, 552360, Note_on_c, 13, 28, 54
14, 552840, Note_off_c, 13, 28, 64
14, 552840, Note_on_c, 13, 29, 54
14, 553320, Note_off_c, 13, 29, 64
14, 553320, Note_on_c, 13, 28, 54
14, 553800, Note_off_c, 13, 28, 64
14, 553800, Note_on_c, 13, 27, 54
14, 554280, Note_off_c, 13, 27, 64
14, 554280, Note_on_c, 13, 28, 54
14, 554760, Note_off_c, 13, 28, 64
14, 554760, Note_on_c, 13, 29, 54
14, 555240, Note_off_c, 13, 29, 64
14, 555240, Note_on_c, 13, 28, 54
14, 555720, Note_off_c, 13, 28, 64
14, 555720, Note_on_c, 13, 27, 54
14, 556200, Note_off_c, 13, 27, 64
14, 556200, Note_on_c, 13, 28, 62
14, 556680, Note_off_c, 13, 28, 64
14, 556680, Note_on_c, 13, 27, 62
14, 557160, Note_off_c, 13, 27, 64
14, 557160, Note_on_c, 13, 28, 62
14, 557640, Note_off_c, 13, 28, 64
14, 557640, Note_on_c, 13, 27, 62
14, 558120, Note_off_c, 13, 27, 64
14, 558120, Note_on_c, 13, 28, 62
14, 558600, Note_off_c, 13, 28, 64
14, 558600, Note_on_c, 13, 27, 62
14, 559080, Note_off_c, 13, 27, 64
14, 559080, Note_on_c, 13, 28, 62
14, 559560, Note_off_c, 13, 28, 64
14, 559560, Note_on_c, 13, 27, 62
14, 560040, Note_off_c, 13, 27, 64
14, 560040, Note_on_c, 13, 28, 62
14, 560520, Note_off_c, 13, 28, 64
14, 560520, Note_on_c, 13, 27, 62
14, 561000, Note_off_c, 13, 27, 64
14, 561000, Note_on_c, 13, 28, 62
14, 561480, Note_off_c, 13, 28, 64
14, 561480, Note_on_c, 13, 27, 62
14, 561960, Note_off_c, 13, 27, 64
14, 561960, Note_on_c, 13, 28, 62
14, 562440, Note_off_c, 13, 28, 64
14, 562440, Note_on_c, 13, 27, 62
14, 562920, Note_off_c, 13, 27, 64
14, 562920, Note_on_c, 13, 28, 62
14, 563400, Note_off_c, 13, 28, 64
14, 563400, Note_on_c, 13, 27, 62
14, 563880, Note_off_c, 13, 27, 64
14, 563880, Note_on_c, 13, 28, 62
14, 564360, Note_off_c, 13, 28, 64
14, 564360, Note_on_c, 13, 27, 62
14, 564840, Note_off_c, 13, 27, 64
14, 564840, Note_on_c, 13, 28, 62
14, 565320, Note_off_c, 13, 28, 64
14, 565320, Note_on_c, 13, 27, 62
14, 565800, Note_off_c, 13, 27, 64
14, 565800, Note_on_c, 13, 28, 62
14, 566280, Note_off_c, 13, 28, 64
14, 566280, Note_on_c, 13, 27, 62
14, 566760, Note_off_c, 13, 27, 64
14, 566760, Note_on_c, 13, 28, 80
14, 567240, Note_off_c, 13, 28, 64
14, 567240, Note_on_c, 13, 27, 80
14, 567720, Note_off_c, 13, 27, 64
14, 567720, Note_on_c, 13, 28, 80
14, 568200, Note_off_c, 13, 28, 64
14, 568200, Note_on_c, 13, 27, 80
14, 568680, Note_off_c, 13, 27, 64
14, 568680, Note_on_c, 13, 28, 80
14, 569160, Note_off_c, 13, 28, 64
14, 569160, Note_on_c, 13, 27, 80
14, 569640, Note_off_c, 13, 27, 64
14, 569640, Note_on_c, 13, 28, 80
14, 570120, Note_off_c, 13, 28, 64
14, 570120, Note_on_c, 13, 27, 80
14, 570600, Note_off_c, 13, 27, 64
14, 570600, Note_on_c, 13, 28, 80
14, 571080, Note_off_c, 13, 28, 64
14, 571080, Note_on_c, 13, 27, 80
14, 571560, Note_off_c, 13, 27, 64
14, 571560, Note_on_c, 13, 28, 80
14, 572160, Note_off_c, 13, 28, 64
14, 572160, Note_on_c, 13, 27, 80
14, 572640, Note_off_c, 13, 27, 64
14, 572640, Note_on_c, 13, 28, 80
14, 573240, Note_off_c, 13, 28, 64
14, 573240, Note_on_c, 13, 27, 80
14, 573720, Note_off_c, 13, 27, 64
14, 573720, Note_on_c, 13, 28, 80
14, 574320, Note_off_c, 13, 28, 64
14, 574320, Note_on_c, 13, 27, 80
14, 574800, Note_off_c, 13, 27, 64
14, 574800, Note_on_c, 13, 28, 80
14, 575400, Note_off_c, 13, 28, 64
14, 575400, Note_on_c, 13, 27, 80
14, 575880, Note_off_c, 13, 27, 64
14, 575880, Note_on_c, 13, 28, 80
14, 576360, Note_off_c, 13, 28, 64
14, 576360, Note_on_c, 13, 28, 80
14, 576840, Note_off_c, 13, 28, 64
14, 576840, Note_on_c, 13, 40, 80
14, 577320, Note_off_c, 13, 40, 64
14, 577320, Note_on_c, 13, 28, 80
14, 577800, Note_off_c, 13, 28, 64
14, 577800, Note_on_c, 13, 40, 80
14, 578280, Note_off_c, 13, 40, 64
14, 578280, Note_on_c, 13, 28, 80
14, 578760, Note_off_c, 13, 28, 64
14, 578760, Note_on_c, 13, 40, 80
14, 579240, Note_off_c, 13, 40, 64
14, 579240, Note_on_c, 13, 28, 80
14, 579720, Note_off_c, 13, 28, 64
14, 579720, Note_on_c, 13, 28, 80
14, 580320, Note_off_c, 13, 28, 64
14, 580320, Note_on_c, 13, 27, 80
14, 580800, Note_off_c, 13, 27, 64
14, 580800, Note_on_c, 13, 28, 80
14, 581400, Note_off_c, 13, 28, 64
14, 581400, Note_on_c, 13, 27, 80
14, 581880, Note_off_c, 13, 27, 64
14, 581880, Note_on_c, 13, 28, 80
14, 582480, Note_off_c, 13, 28, 64
14, 582480, Note_on_c, 13, 27, 80
14, 582960, Note_off_c, 13, 27, 64
14, 582960, Note_on_c, 13, 28, 80
14, 583560, Note_off_c, 13, 28, 64
14, 583560, Note_on_c, 13, 27, 80
14, 584040, Note_off_c, 13, 27, 64
14, 584040, Note_on_c, 13, 28, 80
14, 584520, Note_off_c, 13, 28, 64
14, 584520, Note_on_c, 13, 28, 80
14, 585000, Note_off_c, 13, 28, 64
14, 585000, Note_on_c, 13, 40, 80
14, 585480, Note_off_c, 13, 40, 64
14, 585480, Note_on_c, 13, 28, 80
14, 585960, Note_off_c, 13, 28, 64
14, 585960, Note_on_c, 13, 40, 80
14, 586440, Note_off_c, 13, 40, 64
14, 586440, Note_on_c, 13, 28, 80
14, 586920, Note_off_c, 13, 28, 64
14, 586920, Note_on_c, 13, 40, 80
14, 587400, Note_off_c, 13, 40, 64
14, 587400, Note_on_c, 13, 28, 80
14, 587880, Note_off_c, 13, 28, 64
14, 587880, Note_on_c, 13, 40, 80
14, 588360, Note_off_c, 13, 40, 64
14, 588360, Note_on_c, 13, 28, 80
14, 588840, Note_off_c, 13, 28, 64
14, 588840, Note_on_c, 13, 40, 80
14, 589320, Note_off_c, 13, 40, 64
14, 589320, Note_on_c, 13, 28, 80
14, 589800, Note_off_c, 13, 28, 64
14, 589800, Note_on_c, 13, 40, 80
14, 590280, Note_off_c, 13, 40, 64
14, 590280, Note_on_c, 13, 28, 80
14, 590760, Note_off_c, 13, 28, 64
14, 590760, Note_on_c, 13, 40, 80
14, 591240, Note_off_c, 13, 40, 64
14, 591240, Note_on_c, 13, 28, 80
14, 591720, Note_off_c, 13, 28, 64
14, 591720, Note_on_c, 13, 40, 80
14, 592200, Note_off_c, 13, 40, 64
14, 592200, Note_on_c, 13, 28, 80
14, 592680, Note_off_c, 13, 28, 64
14, 592680, Note_on_c, 13, 40, 80
14, 593160, Note_off_c, 13, 40, 64
14, 593160, Note_on_c, 13, 28, 80
14, 593640, Note_off_c, 13, 28, 64
14, 593640, Note_on_c, 13, 52, 120
14, 593760, Note_off_c, 13, 52, 64
14, 593880, Note_on_c, 13, 50, 120
14, 594000, Note_off_c, 13, 50, 64
14, 594120, Note_on_c, 13, 49, 120
14, 594240, Note_off_c, 13, 49, 64
14, 594360, Note_on_c, 13, 47, 120
14, 594480, Note_off_c, 13, 47, 64
14, 594600, Note_on_c, 13, 45, 120
14, 594720, Note_off_c, 13, 45, 64
14, 594840, Note_on_c, 13, 43, 120
14, 594960, Note_off_c, 13, 43, 64
14, 595080, Note_on_c, 13, 42, 120
14, 595200, Note_off_c, 13, 42, 64
14, 595320, Note_on_c, 13, 40, 120
14, 595440, Note_off_c, 13, 40, 64
14, 595560, Note_on_c, 13, 38, 120
14, 595680, Note_off_c, 13, 38, 64
14, 595800, Note_on_c, 13, 37, 120
14, 595920, Note_off_c, 13, 37, 64
14, 596040, Note_on_c, 13, 35, 120
14, 596160, Note_off_c, 13, 35, 64
14, 596280, Note_on_c, 13, 33, 120
14, 596400, Note_off_c, 13, 33, 64
14, 596520, Note_on_c, 13, 31, 120
14, 596640, Note_off_c, 13, 31, 64
14, 596760, Note_on_c, 13, 30, 120
14, 596880, Note_off_c, 13, 30, 64
14, 597000, Note_on_c, 13, 28, 120
14, 597120, Note_off_c, 13, 28, 64
14, 597240, Note_on_c, 13, 26, 120
14, 597360, Note_off_c, 13, 26, 64
14, 597480, Note_on_c, 13, 25, 127
14, 597576, Note_off_c, 13, 25, 64
14, 597600, Note_on_c, 13, 25, 127
14, 597696, Note_off_c, 13, 25, 64
14, 597720, Note_on_c, 13, 25, 127
14, 597816, Note_off_c, 13, 25, 64
14, 597840, Note_on_c, 13, 25, 127
14, 597936, Note_off_c, 13, 25, 64
14, 597960, Note_on_c, 13, 25, 127
14, 598056, Note_off_c, 13, 25, 64
14, 598080, Note_on_c, 13, 25, 127
14, 598176, Note_off_c, 13, 25, 64
14, 598200, Note_on_c, 13, 25, 127
14, 598296, Note_off_c, 13, 25, 64
14, 598320, Note_on_c, 13, 25, 127
14, 598416, Note_off_c, 13, 25, 64
14, 598440, Note_on_c, 13, 26, 127
14, 598536, Note_off_c, 13, 26, 64
14, 598560, Note_on_c, 13, 26, 127
14, 598656, Note_off_c, 13, 26, 64
14, 598680, Note_on_c, 13, 26, 127
14, 598776, Note_off_c, 13, 26, 64
14, 598800, Note_on_c, 13, 26, 127
14, 598896, Note_off_c, 13, 26, 64
14, 598920, Note_on_c, 13, 26, 127
14, 599016, Note_off_c, 13, 26, 64
14, 599040, Note_on_c, 13, 26, 127
14, 599136, Note_off_c, 13, 26, 64
14, 599160, Note_on_c, 13, 26, 127
14, 599256, Note_off_c, 13, 26, 64
14, 599280, Note_on_c, 13, 26, 127
14, 599376, Note_off_c, 13, 26, 64
14, 599400, Note_on_c, 13, 28, 127
14, 599496, Note_off_c, 13, 28, 64
14, 599520, Note_on_c, 13, 28, 127
14, 599616, Note_off_c, 13, 28, 64
14, 599640, Note_on_c, 13, 28, 127
14, 599736, Note_off_c, 13, 28, 64
14, 599760, Note_on_c, 13, 28, 127
14, 599856, Note_off_c, 13, 28, 64
14, 599880, Note_on_c, 13, 28, 127
14, 599976, Note_off_c, 13, 28, 64
14, 600000, Note_on_c, 13, 28, 127
14, 600096, Note_off_c, 13, 28, 64
14, 600120, Note_on_c, 13, 28, 127
14, 600216, Note_off_c, 13, 28, 64
14, 600240, Note_on_c, 13, 28, 127
14, 600336, Note_off_c, 13, 28, 64
14, 600360, Note_on_c, 13, 28, 127
14, 600456, Note_off_c, 13, 28, 64
14, 600480, Note_on_c, 13, 28, 127
14, 600576, Note_off_c, 13, 28, 64
14, 600600, Note_on_c, 13, 28, 127
14, 600696, Note_off_c, 13, 28, 64
14, 600720, Note_on_c, 13, 28, 127
14, 600816, Note_off_c, 13, 28, 64
14, 600840, Note_on_c, 13, 28, 127
14, 600936, Note_off_c, 13, 28, 64
14, 600960, Note_on_c, 13, 28, 127
14, 601056, Note_off_c, 13, 28, 64
14, 601080, Note_on_c, 13, 28, 127
14, 601176, Note_off_c, 13, 28, 64
14, 601200, Note_on_c, 13, 28, 127
14, 601296, Note_off_c, 13, 28, 64
14, 601320, Note_on_c, 13, 44, 59
14, 601440, Note_off_c, 13, 44, 64
14, 601560, Note_on_c, 13, 42, 59
14, 601680, Note_off_c, 13, 42, 64
14, 601800, Note_on_c, 13, 40, 59
14, 601920, Note_off_c, 13, 40, 64
14, 602040, Note_on_c, 13, 38, 59
14, 602160, Note_off_c, 13, 38, 64
14, 602280, Note_on_c, 13, 37, 59
14, 602400, Note_off_c, 13, 37, 64
14, 602520, Note_on_c, 13, 35, 59
14, 602640, Note_off_c, 13, 35, 64
14, 602760, Note_on_c, 13, 33, 59
14, 602880, Note_off_c, 13, 33, 64
14, 603000, Note_on_c, 13, 32, 59
14, 603120, Note_off_c, 13, 32, 64
14, 603240, Note_on_c, 13, 33, 59
14, 603360, Note_off_c, 13, 33, 64
14, 603480, Note_on_c, 13, 35, 59
14, 603600, Note_off_c, 13, 35, 64
14, 603720, Note_on_c, 13, 37, 59
14, 603840, Note_off_c, 13, 37, 64
14, 603960, Note_on_c, 13, 38, 59
14, 604080, Note_off_c, 13, 38, 64
14, 604200, Note_on_c, 13, 40, 59
14, 604320, Note_off_c, 13, 40, 64
14, 604440, Note_on_c, 13, 42, 59
14, 604560, Note_off_c, 13, 42, 64
14, 604680, Note_on_c, 13, 44, 59
14, 604800, Note_off_c, 13, 44, 64
14, 604920, Note_on_c, 13, 45, 59
14, 605040, Note_off_c, 13, 45, 64
14, 605160, Note_on_c, 13, 47, 64
14, 605280, Note_off_c, 13, 47, 64
14, 605400, Note_on_c, 13, 45, 67
14, 605520, Note_off_c, 13, 45, 64
14, 605640, Note_on_c, 13, 44, 70
14, 605760, Note_off_c, 13, 44, 64
14, 605880, Note_on_c, 13, 42, 74
14, 606000, Note_off_c, 13, 42, 64
14, 606120, Note_on_c, 13, 40, 77
14, 606240, Note_off_c, 13, 40, 64
14, 606360, Note_on_c, 13, 38, 80
14, 606480, Note_off_c, 13, 38, 64
14, 606600, Note_on_c, 13, 37, 83
14, 606720, Note_off_c, 13, 37, 64
14, 606840, Note_on_c, 13, 35, 86
14, 606960, Note_off_c, 13, 35, 64
14, 607080, Note_on_c, 13, 37, 90
14, 607200, Note_off_c, 13, 37, 64
14, 607320, Note_on_c, 13, 38, 93
14, 607440, Note_off_c, 13, 38, 64
14, 607560, Note_on_c, 13, 40, 96
14, 607680, Note_off_c, 13, 40, 64
14, 607800, Note_on_c, 13, 42, 99
14, 607920, Note_off_c, 13, 42, 64
14, 608040, Note_on_c, 13, 44, 102
14, 608160, Note_off_c, 13, 44, 64
14, 608280, Note_on_c, 13, 45, 105
14, 608400, Note_off_c, 13, 45, 64
14, 608520, Note_on_c, 13, 47, 109
14, 608640, Note_off_c, 13, 47, 64
14, 608760, Note_on_c, 13, 49, 112
14, 608880, Note_off_c, 13, 49, 64
14, 609000, Note_on_c, 13, 52, 120
14, 609120, Note_off_c, 13, 52, 64
14, 609240, Note_on_c, 13, 50, 120
14, 609360, Note_off_c, 13, 50, 64
14, 609480, Note_on_c, 13, 49, 120
14, 609600, Note_off_c, 13, 49, 64
14, 609720, Note_on_c, 13, 47, 120
14, 609840, Note_off_c, 13, 47, 64
14, 609960, Note_on_c, 13, 45, 120
14, 610080, Note_off_c, 13, 45, 64
14, 610200, Note_on_c, 13, 43, 120
14, 610320, Note_off_c, 13, 43, 64
14, 610440, Note_on_c, 13, 42, 120
14, 610560, Note_off_c, 13, 42, 64
14, 610680, Note_on_c, 13, 40, 120
14, 610800, Note_off_c, 13, 40, 64
14, 610920, Note_on_c, 13, 38, 120
14, 611040, Note_off_c, 13, 38, 64
14, 611160, Note_on_c, 13, 37, 120
14, 611280, Note_off_c, 13, 37, 64
14, 611400, Note_on_c, 13, 35, 120
14, 611520, Note_off_c, 13, 35, 64
14, 611640, Note_on_c, 13, 33, 120
14, 611760, Note_off_c, 13, 33, 64
14, 611880, Note_on_c, 13, 31, 120
14, 612000, Note_off_c, 13, 31, 64
14, 612120, Note_on_c, 13, 30, 120
14, 612240, Note_off_c, 13, 30, 64
14, 612360, Note_on_c, 13, 28, 120
14, 612480, Note_off_c, 13, 28, 64
14, 612600, Note_on_c, 13, 26, 120
14, 612720, Note_off_c, 13, 26, 64
14, 612840, Note_on_c, 13, 25, 127
14, 612936, Note_off_c, 13, 25, 64
14, 612960, Note_on_c, 13, 25, 127
14, 613056, Note_off_c, 13, 25, 64
14, 613080, Note_on_c, 13, 25, 127
14, 613176, Note_off_c, 13, 25, 64
14, 613200, Note_on_c, 13, 25, 127
14, 613296, Note_off_c, 13, 25, 64
14, 613320, Note_on_c, 13, 25, 127
14, 613416, Note_off_c, 13, 25, 64
14, 613440, Note_on_c, 13, 25, 127
14, 613536, Note_off_c, 13, 25, 64
14, 613560, Note_on_c, 13, 25, 127
14, 613656, Note_off_c, 13, 25, 64
14, 613680, Note_on_c, 13, 25, 127
14, 613776, Note_off_c, 13, 25, 64
14, 613800, Note_on_c, 13, 26, 127
14, 613896, Note_off_c, 13, 26, 64
14, 613920, Note_on_c, 13, 26, 127
14, 614016, Note_off_c, 13, 26, 64
14, 614040, Note_on_c, 13, 26, 127
14, 614136, Note_off_c, 13, 26, 64
14, 614160, Note_on_c, 13, 26, 127
14, 614256, Note_off_c, 13, 26, 64
14, 614280, Note_on_c, 13, 26, 127
14, 614376, Note_off_c, 13, 26, 64
14, 614400, Note_on_c, 13, 26, 127
14, 614496, Note_off_c, 13, 26, 64
14, 614520, Note_on_c, 13, 26, 127
14, 614616, Note_off_c, 13, 26, 64
14, 614640, Note_on_c, 13, 26, 127
14, 614736, Note_off_c, 13, 26, 64
14, 614760, Note_on_c, 13, 28, 127
14, 614856, Note_off_c, 13, 28, 64
14, 614880, Note_on_c, 13, 28, 127
14, 614976, Note_off_c, 13, 28, 64
14, 615000, Note_on_c, 13, 28, 127
14, 615096, Note_off_c, 13, 28, 64
14, 615120, Note_on_c, 13, 28, 127
14, 615216, Note_off_c, 13, 28, 64
14, 615240, Note_on_c, 13, 28, 127
14, 615336, Note_off_c, 13, 28, 64
14, 615360, Note_on_c, 13, 28, 127
14, 615456, Note_off_c, 13, 28, 64
14, 615480, Note_on_c, 13, 28, 127
14, 615576, Note_off_c, 13, 28, 64
14, 615600, Note_on_c, 13, 28, 127
14, 615696, Note_off_c, 13, 28, 64
14, 615720, Note_on_c, 13, 28, 127
14, 615816, Note_off_c, 13, 28, 64
14, 615840, Note_on_c, 13, 28, 127
14, 615936, Note_off_c, 13, 28, 64
14, 615960, Note_on_c, 13, 28, 127
14, 616056, Note_off_c, 13, 28, 64
14, 616080, Note_on_c, 13, 28, 127
14, 616176, Note_off_c, 13, 28, 64
14, 616200, Note_on_c, 13, 28, 127
14, 616296, Note_off_c, 13, 28, 64
14, 616320, Note_on_c, 13, 28, 127
14, 616416, Note_off_c, 13, 28, 64
14, 616440, Note_on_c, 13, 28, 127
14, 616536, Note_off_c, 13, 28, 64
14, 616560, Note_on_c, 13, 28, 127
14, 616656, Note_off_c, 13, 28, 64
14, 616680, Note_on_c, 13, 33, 127
14, 616872, Note_off_c, 13, 33, 64
14, 618120, Note_on_c, 13, 52, 127
14, 618600, Note_off_c, 13, 52, 64
14, 618600, Note_on_c, 13, 45, 127
14, 619080, Note_off_c, 13, 45, 64
14, 619080, Note_on_c, 13, 40, 127
14, 619560, Note_off_c, 13, 40, 64
14, 619560, Note_on_c, 13, 33, 127
14, 620040, Note_off_c, 13, 33, 64
14, 620040, Note_on_c, 13, 28, 127
14, 620520, Note_off_c, 13, 28, 64
14, 620520, Note_on_c, 13, 33, 127
14, 620712, Note_off_c, 13, 33, 64
14, 621960, Note_on_c, 13, 52, 127
14, 622440, Note_off_c, 13, 52, 64
14, 622440, Note_on_c, 13, 45, 127
14, 622920, Note_off_c, 13, 45, 64
14, 622920, Note_on_c, 13, 40, 127
14, 623400, Note_off_c, 13, 40, 64
14, 623400, Note_on_c, 13, 33, 127
14, 623880, Note_off_c, 13, 33, 64
14, 623880, Note_on_c, 13, 28, 127
14, 624360, Note_off_c, 13, 28, 64
14, 624360, Note_on_c, 13, 28, 127
14, 624456, Note_off_c, 13, 28, 64
14, 624480, Note_on_c, 13, 28, 99
14, 624576, Note_off_c, 13, 28, 64
14, 624600, Note_on_c, 13, 28, 99
14, 624696, Note_off_c, 13, 28, 64
14, 624720, Note_on_c, 13, 28, 99
14, 624816, Note_off_c, 13, 28, 64
14, 624840, Note_on_c, 13, 28, 127
14, 624936, Note_off_c, 13, 28, 64
14, 624960, Note_on_c, 13, 28, 99
14, 625056, Note_off_c, 13, 28, 64
14, 625080, Note_on_c, 13, 28, 99
14, 625176, Note_off_c, 13, 28, 64
14, 625200, Note_on_c, 13, 28, 99
14, 625296, Note_off_c, 13, 28, 64
14, 625320, Note_on_c, 13, 28, 127
14, 625416, Note_off_c, 13, 28, 64
14, 625440, Note_on_c, 13, 28, 99
14, 625536, Note_off_c, 13, 28, 64
14, 625560, Note_on_c, 13, 28, 99
14, 625656, Note_off_c, 13, 28, 64
14, 625680, Note_on_c, 13, 28, 99
14, 625776, Note_off_c, 13, 28, 64
14, 625800, Note_on_c, 13, 28, 127
14, 625896, Note_off_c, 13, 28, 64
14, 625920, Note_on_c, 13, 28, 99
14, 626016, Note_off_c, 13, 28, 64
14, 626040, Note_on_c, 13, 28, 99
14, 626136, Note_off_c, 13, 28, 64
14, 626160, Note_on_c, 13, 28, 99
14, 626256, Note_off_c, 13, 28, 64
14, 626280, Note_on_c, 13, 28, 127
14, 626376, Note_off_c, 13, 28, 64
14, 626400, Note_on_c, 13, 28, 127
14, 626496, Note_off_c, 13, 28, 64
14, 626520, Note_on_c, 13, 28, 127
14, 626616, Note_off_c, 13, 28, 64
14, 626640, Note_on_c, 13, 28, 127
14, 626736, Note_off_c, 13, 28, 64
14, 626760, Note_on_c, 13, 28, 127
14, 626856, Note_off_c, 13, 28, 64
14, 626880, Note_on_c, 13, 28, 127
14, 626976, Note_off_c, 13, 28, 64
14, 627000, Note_on_c, 13, 28, 127
14, 627096, Note_off_c, 13, 28, 64
14, 627120, Note_on_c, 13, 28, 127
14, 627216, Note_off_c, 13, 28, 64
14, 627240, Note_on_c, 13, 28, 127
14, 627336, Note_off_c, 13, 28, 64
14, 627360, Note_on_c, 13, 28, 127
14, 627456, Note_off_c, 13, 28, 64
14, 627480, Note_on_c, 13, 28, 127
14, 627576, Note_off_c, 13, 28, 64
14, 627600, Note_on_c, 13, 28, 127
14, 627696, Note_off_c, 13, 28, 64
14, 627720, Note_on_c, 13, 28, 127
14, 627816, Note_off_c, 13, 28, 64
14, 627840, Note_on_c, 13, 28, 127
14, 627936, Note_off_c, 13, 28, 64
14, 627960, Note_on_c, 13, 28, 127
14, 628056, Note_off_c, 13, 28, 64
14, 628080, Note_on_c, 13, 28, 127
14, 628176, Note_off_c, 13, 28, 64
14, 628200, Note_on_c, 13, 33, 127
14, 628320, Note_off_c, 13, 33, 64
14, 628440, Control_c, 13, 7, 126
14, 629280, Note_on_c, 13, 33, 127
14, 629400, Note_off_c, 13, 33, 64
14, 630480, Note_on_c, 13, 33, 127
14, 630600, Note_off_c, 13, 33, 64
14, 630600, End_track
15, 0, Start_track
15, 0, Title_t, "Pizz Violins"
15, 0, MIDI_port, 0
15, 0, Channel_prefix, 14
15, 0, Control_c, 14, 7, 90
15, 0, Control_c, 14, 10, 45
15, 0, Program_c, 14, 45
15, 0, Control_c, 14, 91, 66
15, 0, Program_c, 14, 45
15, 480, Control_c, 14, 93, 90
15, 480, Control_c, 14, 10, 34
15, 455040, Program_c, 14, 49
15, 458820, Note_on_c, 14, 73, 112
15, 459888, Note_off_c, 14, 73, 64
15, 468420, Note_on_c, 14, 73, 112
15, 469488, Note_off_c, 14, 73, 64
15, 469488, End_track
16, 0, Start_track
16, 0, Title_t, "Pizz Bass"
16, 0, MIDI_port, 0
16, 0, Channel_prefix, 15
16, 0, Control_c, 15, 7, 90
16, 0, Control_c, 15, 10, 90
16, 0, Program_c, 15, 45
16, 0, Control_c, 15, 91, 66
16, 0, Program_c, 15, 45
16, 480, Control_c, 15, 93, 90
16, 480, Control_c, 15, 10, 95
16, 84000, Note_on_c, 15, 44, 48
16, 84000, Note_on_c, 15, 56, 48
16, 84384, Note_off_c, 15, 56, 64
16, 84384, Note_off_c, 15, 44, 64
16, 84480, Note_on_c, 15, 32, 48
16, 84480, Note_on_c, 15, 44, 48
16, 84864, Note_off_c, 15, 44, 64
16, 84864, Note_off_c, 15, 32, 64
16, 84960, Note_on_c, 15, 37, 48
16, 84960, Note_on_c, 15, 49, 48
16, 85344, Note_off_c, 15, 49, 64
16, 85344, Note_off_c, 15, 37, 64
16, 85440, Note_on_c, 15, 32, 64
16, 85440, Note_on_c, 15, 44, 64
16, 85824, Note_off_c, 15, 44, 64
16, 85824, Note_off_c, 15, 32, 64
16, 87840, Note_on_c, 15, 44, 64
16, 87840, Note_on_c, 15, 56, 64
16, 88224, Note_off_c, 15, 56, 64
16, 88224, Note_off_c, 15, 44, 64
16, 88320, Note_on_c, 15, 44, 64
16, 88320, Note_on_c, 15, 32, 64
16, 88704, Note_off_c, 15, 32, 64
16, 88704, Note_off_c, 15, 44, 64
16, 88800, Note_on_c, 15, 49, 51
16, 88800, Note_on_c, 15, 37, 51
16, 89184, Note_off_c, 15, 37, 64
16, 89184, Note_off_c, 15, 49, 64
16, 89760, Note_on_c, 15, 44, 50
16, 89760, Note_on_c, 15, 56, 50
16, 90144, Note_off_c, 15, 56, 64
16, 90144, Note_off_c, 15, 44, 64
16, 90240, Note_on_c, 15, 44, 45
16, 90240, Note_on_c, 15, 32, 45
16, 90624, Note_off_c, 15, 32, 64
16, 90624, Note_off_c, 15, 44, 64
16, 90720, Note_on_c, 15, 49, 43
16, 90720, Note_on_c, 15, 37, 43
16, 91104, Note_off_c, 15, 37, 64
16, 91104, Note_off_c, 15, 49, 64
16, 91680, Note_on_c, 15, 56, 33
16, 91680, Note_on_c, 15, 44, 33
16, 92064, Note_off_c, 15, 44, 64
16, 92064, Note_off_c, 15, 56, 64
16, 92160, Note_on_c, 15, 44, 29
16, 92160, Note_on_c, 15, 32, 29
16, 92544, Note_off_c, 15, 32, 64
16, 92544, Note_off_c, 15, 44, 64
16, 92640, Note_on_c, 15, 56, 27
16, 92640, Note_on_c, 15, 44, 27
16, 93024, Note_off_c, 15, 44, 64
16, 93024, Note_off_c, 15, 56, 64
16, 121920, Note_on_c, 15, 48, 1
16, 122016, Note_off_c, 15, 48, 64
16, 122040, Note_on_c, 15, 47, 1
16, 122136, Note_off_c, 15, 47, 64
16, 122160, Note_on_c, 15, 57, 1
16, 122256, Note_off_c, 15, 57, 64
16, 122280, Note_on_c, 15, 52, 1
16, 122376, Note_off_c, 15, 52, 64
16, 122400, Note_on_c, 15, 57, 1
16, 122496, Note_off_c, 15, 57, 64
16, 122520, Note_on_c, 15, 59, 1
16, 122616, Note_off_c, 15, 59, 64
16, 122640, Note_on_c, 15, 52, 1
16, 122736, Note_off_c, 15, 52, 64
16, 217440, Note_on_c, 15, 44, 48
16, 217440, Note_on_c, 15, 56, 48
16, 217824, Note_off_c, 15, 56, 64
16, 217824, Note_off_c, 15, 44, 64
16, 217920, Note_on_c, 15, 32, 48
16, 217920, Note_on_c, 15, 44, 48
16, 218304, Note_off_c, 15, 44, 64
16, 218304, Note_off_c, 15, 32, 64
16, 218400, Note_on_c, 15, 37, 48
16, 218400, Note_on_c, 15, 49, 48
16, 218784, Note_off_c, 15, 49, 64
16, 218784, Note_off_c, 15, 37, 64
16, 218880, Note_on_c, 15, 32, 64
16, 218880, Note_on_c, 15, 44, 64
16, 219264, Note_off_c, 15, 44, 64
16, 219264, Note_off_c, 15, 32, 64
16, 221280, Note_on_c, 15, 44, 64
16, 221280, Note_on_c, 15, 56, 64
16, 221664, Note_off_c, 15, 56, 64
16, 221664, Note_off_c, 15, 44, 64
16, 221760, Note_on_c, 15, 44, 64
16, 221760, Note_on_c, 15, 32, 64
16, 222144, Note_off_c, 15, 32, 64
16, 222144, Note_off_c, 15, 44, 64
16, 222240, Note_on_c, 15, 49, 51
16, 222240, Note_on_c, 15, 37, 51
16, 222624, Note_off_c, 15, 37, 64
16, 222624, Note_off_c, 15, 49, 64
16, 223200, Note_on_c, 15, 44, 50
16, 223200, Note_on_c, 15, 56, 50
16, 223584, Note_off_c, 15, 56, 64
16, 223584, Note_off_c, 15, 44, 64
16, 223680, Note_on_c, 15, 44, 45
16, 223680, Note_on_c, 15, 32, 45
16, 224064, Note_off_c, 15, 32, 64
16, 224064, Note_off_c, 15, 44, 64
16, 224160, Note_on_c, 15, 49, 43
16, 224160, Note_on_c, 15, 37, 43
16, 224544, Note_off_c, 15, 37, 64
16, 224544, Note_off_c, 15, 49, 64
16, 225120, Note_on_c, 15, 56, 33
16, 225120, Note_on_c, 15, 44, 33
16, 225504, Note_off_c, 15, 44, 64
16, 225504, Note_off_c, 15, 56, 64
16, 225600, Note_on_c, 15, 44, 29
16, 225600, Note_on_c, 15, 32, 29
16, 225984, Note_off_c, 15, 32, 64
16, 225984, Note_off_c, 15, 44, 64
16, 226080, Note_on_c, 15, 56, 27
16, 226080, Note_on_c, 15, 44, 27
16, 226464, Note_off_c, 15, 44, 64
16, 226464, Note_off_c, 15, 56, 64
16, 255360, Note_on_c, 15, 48, 1
16, 255456, Note_off_c, 15, 48, 64
16, 255480, Note_on_c, 15, 47, 1
16, 255576, Note_off_c, 15, 47, 64
16, 255600, Note_on_c, 15, 57, 1
16, 255696, Note_off_c, 15, 57, 64
16, 255720, Note_on_c, 15, 52, 1
16, 255816, Note_off_c, 15, 52, 64
16, 255840, Note_on_c, 15, 57, 1
16, 255936, Note_off_c, 15, 57, 64
16, 255960, Note_on_c, 15, 59, 1
16, 256056, Note_off_c, 15, 59, 64
16, 256080, Note_on_c, 15, 52, 1
16, 256176, Note_off_c, 15, 52, 64
16, 445920, Note_on_c, 15, 64, 48
16, 445920, Note_on_c, 15, 52, 48
16, 446304, Note_off_c, 15, 52, 64
16, 446304, Note_off_c, 15, 64, 64
16, 446400, Note_on_c, 15, 40, 48
16, 446400, Note_on_c, 15, 52, 48
16, 446784, Note_off_c, 15, 52, 64
16, 446784, Note_off_c, 15, 40, 64
16, 446880, Note_on_c, 15, 57, 48
16, 446880, Note_on_c, 15, 45, 48
16, 447264, Note_off_c, 15, 45, 64
16, 447264, Note_off_c, 15, 57, 64
16, 447360, Note_on_c, 15, 40, 64
16, 447360, Note_on_c, 15, 52, 64
16, 447744, Note_off_c, 15, 52, 64
16, 447744, Note_off_c, 15, 40, 64
16, 449760, Note_on_c, 15, 64, 64
16, 449760, Note_on_c, 15, 52, 64
16, 450144, Note_off_c, 15, 52, 64
16, 450144, Note_off_c, 15, 64, 64
16, 450240, Note_on_c, 15, 40, 64
16, 450240, Note_on_c, 15, 52, 64
16, 450624, Note_off_c, 15, 52, 64
16, 450624, Note_off_c, 15, 40, 64
16, 450720, Note_on_c, 15, 45, 51
16, 450720, Note_on_c, 15, 57, 51
16, 451104, Note_off_c, 15, 57, 64
16, 451104, Note_off_c, 15, 45, 64
16, 451680, Note_on_c, 15, 64, 50
16, 451680, Note_on_c, 15, 52, 50
16, 452064, Note_off_c, 15, 52, 64
16, 452064, Note_off_c, 15, 64, 64
16, 452160, Note_on_c, 15, 40, 45
16, 452160, Note_on_c, 15, 52, 45
16, 452544, Note_off_c, 15, 52, 64
16, 452544, Note_off_c, 15, 40, 64
16, 452640, Note_on_c, 15, 45, 43
16, 452640, Note_on_c, 15, 57, 43
16, 453024, Note_off_c, 15, 57, 64
16, 453024, Note_off_c, 15, 45, 64
16, 453600, Note_on_c, 15, 52, 43
16, 453600, Note_on_c, 15, 64, 43
16, 453984, Note_off_c, 15, 64, 64
16, 453984, Note_off_c, 15, 52, 64
16, 454080, Note_on_c, 15, 52, 49
16, 454080, Note_on_c, 15, 40, 49
16, 454464, Note_off_c, 15, 40, 64
16, 454464, Note_off_c, 15, 52, 64
16, 454560, Note_on_c, 15, 40, 60
16, 454560, Note_on_c, 15, 52, 60
16, 454944, Note_off_c, 15, 52, 64
16, 454944, Note_off_c, 15, 40, 64
16, 454944, End_track
17, 0, Start_track
17, 0, Title_t, "Michael A. Abelson"
17, 0, MIDI_port, 0
17, 0, Channel_prefix, 0
17, 0, Control_c, 0, 7, 90
17, 0, Control_c, 0, 10, 55
17, 0, Program_c, 0, 73
17, 0, End_track
18, 0, Start_track
18, 0, Title_t, "5/23/97"
18, 0, MIDI_port, 0
18, 0, End_track
19, 0, Start_track
19, 0, Title_t, "AWE-32 optimized"
19, 0, MIDI_port, 0
19, 0, End_track
0, 0, End_of_file