0, 0, Header, 1, 4, 120
1, 0, Start_track
1, 0, Title_t, "Bagatella op.119/12 per pianoforte"
1, 0, Title_t, "Hess Anhang 21"
1, 0, Copyright_t, "forellaearmando@panet.it"
1, 0, Text_t, "LVANBEEETH ??\012"
1, 0, Text_t, "W. Hess 9\252 fascicolo Suppl. zu GA\012"
1, 0, Sequencer_specific, 03, 00, 00, 41
1, 0, Time_signature, 6, 3, 12, 8
1, 0, Key_signature, 0, "major"
1, 0, Tempo, 705882
1, 23, Tempo, 697674
1, 1513, Tempo, 705882
1, 2056, Tempo, 722892
1, 2936, Tempo, 714286
1, 2936, End_track
2, 0, Start_track
2, 0, Title_t, "BAGATELLA OP.119/12"
2, 0, Control_c, 0, 0, 0
2, 0, Control_c, 0, 32, 0
2, 0, Program_c, 0, 0
2, 0, Control_c, 0, 7, 127
2, 0, Control_c, 0, 10, 44
2, 0, Note_on_c, 0, 74, 100
2, 177, Note_on_c, 0, 74, 0
2, 180, Note_on_c, 0, 74, 89
2, 239, Note_on_c, 0, 74, 0
2, 240, Note_on_c, 0, 67, 86
2, 299, Note_on_c, 0, 67, 0
2, 300, Note_on_c, 0, 79, 85
2, 359, Note_on_c, 0, 79, 0
2, 360, Note_on_c, 0, 74, 85
2, 537, Note_on_c, 0, 74, 0
2, 540, Note_on_c, 0, 74, 101
2, 599, Note_on_c, 0, 74, 0
2, 600, Note_on_c, 0, 62, 105
2, 659, Note_on_c, 0, 62, 0
2, 660, Note_on_c, 0, 74, 111
2, 719, Note_on_c, 0, 74, 0
2, 720, Note_on_c, 0, 72, 116
2, 897, Note_on_c, 0, 72, 0
2, 900, Note_on_c, 0, 72, 114
2, 959, Note_on_c, 0, 72, 0
2, 960, Note_on_c, 0, 62, 112
2, 1019, Note_on_c, 0, 62, 0
2, 1020, Note_on_c, 0, 74, 103
2, 1079, Note_on_c, 0, 74, 0
2, 1080, Note_on_c, 0, 72, 93
2, 1139, Note_on_c, 0, 72, 0
2, 1140, Note_on_c, 0, 71, 89
2, 1199, Note_on_c, 0, 71, 0
2, 1320, Note_on_c, 0, 67, 112
2, 1349, Note_on_c, 0, 67, 0
2, 1350, Note_on_c, 0, 69, 117
2, 1379, Note_on_c, 0, 69, 0
2, 1380, Note_on_c, 0, 71, 117
2, 1409, Note_on_c, 0, 71, 0
2, 1410, Note_on_c, 0, 72, 117
2, 1439, Note_on_c, 0, 72, 0
2, 1440, Note_on_c, 0, 74, 115
2, 1617, Note_on_c, 0, 74, 0
2, 1620, Note_on_c, 0, 74, 100
2, 1679, Note_on_c, 0, 74, 0
2, 1680, Note_on_c, 0, 67, 100
2, 1739, Note_on_c, 0, 67, 0
2, 1740, Note_on_c, 0, 79, 100
2, 1799, Note_on_c, 0, 79, 0
2, 1800, Note_on_c, 0, 74, 100
2, 1977, Note_on_c, 0, 74, 0
2, 1980, Note_on_c, 0, 74, 100
2, 2039, Note_on_c, 0, 74, 0
2, 2040, Note_on_c, 0, 62, 100
2, 2099, Note_on_c, 0, 62, 0
2, 2100, Note_on_c, 0, 74, 100
2, 2159, Note_on_c, 0, 74, 0
2, 2160, Note_on_c, 0, 72, 100
2, 2337, Note_on_c, 0, 72, 0
2, 2340, Note_on_c, 0, 72, 100
2, 2399, Note_on_c, 0, 72, 0
2, 2400, Note_on_c, 0, 62, 100
2, 2459, Note_on_c, 0, 62, 0
2, 2460, Note_on_c, 0, 74, 100
2, 2519, Note_on_c, 0, 74, 0
2, 2520, Note_on_c, 0, 72, 100
2, 2579, Note_on_c, 0, 72, 0
2, 2580, Note_on_c, 0, 71, 100
2, 2639, Note_on_c, 0, 71, 0
2, 2760, Note_on_c, 0, 67, 99
2, 2819, Note_on_c, 0, 67, 0
2, 2820, Note_on_c, 0, 69, 99
2, 2879, Note_on_c, 0, 69, 0
2, 2880, Note_on_c, 0, 71, 99
2, 2996, Note_on_c, 0, 71, 0
2, 3000, Note_on_c, 0, 63, 107
2, 3000, Note_on_c, 0, 71, 107
2, 3059, Note_on_c, 0, 71, 0
2, 3059, Note_on_c, 0, 63, 0
2, 3060, Note_on_c, 0, 64, 112
2, 3060, Note_on_c, 0, 71, 112
2, 3119, Note_on_c, 0, 71, 0
2, 3119, Note_on_c, 0, 64, 0
2, 3120, Note_on_c, 0, 76, 117
2, 3179, Note_on_c, 0, 76, 0
2, 3180, Note_on_c, 0, 78, 118
2, 3239, Note_on_c, 0, 78, 0
2, 3240, Note_on_c, 0, 67, 118
2, 3240, Note_on_c, 0, 79, 118
2, 3356, Note_on_c, 0, 79, 0
2, 3360, Note_on_c, 0, 78, 125
2, 3389, Note_on_c, 0, 78, 0
2, 3390, Note_on_c, 0, 76, 125
2, 3419, Note_on_c, 0, 76, 0
2, 3420, Note_on_c, 0, 74, 125
2, 3474, Note_on_c, 0, 67, 0
2, 3479, Note_on_c, 0, 74, 0
2, 3480, Note_on_c, 0, 73, 125
2, 3539, Note_on_c, 0, 73, 0
2, 3540, Note_on_c, 0, 71, 125
2, 3569, Note_on_c, 0, 71, 0
2, 3570, Note_on_c, 0, 69, 125
2, 3599, Note_on_c, 0, 69, 0
2, 3600, Note_on_c, 0, 64, 125
2, 3600, Note_on_c, 0, 67, 125
2, 3659, Note_on_c, 0, 67, 0
2, 3659, Note_on_c, 0, 64, 0
2, 3660, Note_on_c, 0, 62, 125
2, 3660, Note_on_c, 0, 66, 125
2, 3719, Note_on_c, 0, 66, 0
2, 3719, Note_on_c, 0, 62, 0
2, 3840, Note_on_c, 0, 78, 100
2, 3899, Note_on_c, 0, 78, 0
2, 3900, Note_on_c, 0, 74, 100
2, 3959, Note_on_c, 0, 74, 0
2, 3960, Note_on_c, 0, 73, 100
2, 4019, Note_on_c, 0, 73, 0
2, 4020, Note_on_c, 0, 69, 100
2, 4079, Note_on_c, 0, 69, 0
2, 4080, Note_on_c, 0, 76, 100
2, 4139, Note_on_c, 0, 76, 0
2, 4140, Note_on_c, 0, 74, 100
2, 4199, Note_on_c, 0, 74, 0
2, 4200, Note_on_c, 0, 73, 100
2, 4259, Note_on_c, 0, 73, 0
2, 4260, Note_on_c, 0, 81, 100
2, 4289, Note_on_c, 0, 81, 0
2, 4290, Note_on_c, 0, 74, 100
2, 4319, Note_on_c, 0, 74, 0
2, 4320, Note_on_c, 0, 73, 100
2, 4379, Note_on_c, 0, 73, 0
2, 4380, Note_on_c, 0, 69, 100
2, 4439, Note_on_c, 0, 69, 0
2, 4440, Note_on_c, 0, 76, 100
2, 4499, Note_on_c, 0, 76, 0
2, 4500, Note_on_c, 0, 74, 100
2, 4559, Note_on_c, 0, 74, 0
2, 4560, Note_on_c, 0, 73, 121
2, 4619, Note_on_c, 0, 73, 0
2, 4620, Note_on_c, 0, 78, 127
2, 4649, Note_on_c, 0, 78, 0
2, 4650, Note_on_c, 0, 74, 127
2, 4679, Note_on_c, 0, 74, 0
2, 4680, Note_on_c, 0, 74, 127
2, 4740, Note_on_c, 0, 67, 127
2, 4796, Note_on_c, 0, 74, 0
2, 4799, Note_on_c, 0, 67, 0
2, 4800, Note_on_c, 0, 73, 127
2, 4800, Note_on_c, 0, 67, 127
2, 4859, Note_on_c, 0, 67, 0
2, 4859, Note_on_c, 0, 73, 0
2, 4860, Note_on_c, 0, 72, 127
2, 4860, Note_on_c, 0, 66, 127
2, 5037, Note_on_c, 0, 66, 0
2, 5037, Note_on_c, 0, 72, 0
2, 5040, Note_on_c, 0, 69, 100
2, 5040, Note_on_c, 0, 72, 100
2, 5099, Note_on_c, 0, 72, 0
2, 5099, Note_on_c, 0, 69, 0
2, 5100, Note_on_c, 0, 67, 100
2, 5100, Note_on_c, 0, 71, 100
2, 5159, Note_on_c, 0, 71, 0
2, 5159, Note_on_c, 0, 67, 0
2, 5160, Note_on_c, 0, 66, 117
2, 5160, Note_on_c, 0, 69, 117
2, 5219, Note_on_c, 0, 69, 0
2, 5219, Note_on_c, 0, 66, 0
2, 5220, Note_on_c, 0, 76, 114
2, 5220, Note_on_c, 0, 66, 114
2, 5279, Note_on_c, 0, 66, 0
2, 5279, Note_on_c, 0, 76, 0
2, 5280, Note_on_c, 0, 67, 110
2, 5280, Note_on_c, 0, 74, 110
2, 5339, Note_on_c, 0, 74, 0
2, 5339, Note_on_c, 0, 67, 0
2, 5340, Note_on_c, 0, 69, 106
2, 5340, Note_on_c, 0, 72, 106
2, 5399, Note_on_c, 0, 72, 0
2, 5399, Note_on_c, 0, 69, 0
2, 5400, Note_on_c, 0, 69, 102
2, 5400, Note_on_c, 0, 72, 102
2, 5459, Note_on_c, 0, 72, 0
2, 5459, Note_on_c, 0, 69, 0
2, 5460, Note_on_c, 0, 67, 98
2, 5460, Note_on_c, 0, 71, 98
2, 5519, Note_on_c, 0, 71, 0
2, 5519, Note_on_c, 0, 67, 0
2, 5520, Note_on_c, 0, 66, 97
2, 5520, Note_on_c, 0, 69, 97
2, 5579, Note_on_c, 0, 69, 0
2, 5579, Note_on_c, 0, 66, 0
2, 5580, Note_on_c, 0, 76, 94
2, 5580, Note_on_c, 0, 66, 94
2, 5639, Note_on_c, 0, 66, 0
2, 5639, Note_on_c, 0, 76, 0
2, 5640, Note_on_c, 0, 67, 90
2, 5640, Note_on_c, 0, 74, 90
2, 5699, Note_on_c, 0, 74, 0
2, 5699, Note_on_c, 0, 67, 0
2, 5700, Note_on_c, 0, 69, 86
2, 5700, Note_on_c, 0, 72, 86
2, 5759, Note_on_c, 0, 72, 0
2, 5759, Note_on_c, 0, 69, 0
2, 5760, Note_on_c, 0, 71, 85
2, 5760, Note_on_c, 0, 67, 85
2, 5876, Note_on_c, 0, 67, 0
2, 5876, Note_on_c, 0, 71, 0
2, 5880, Note_on_c, 0, 69, 81
2, 5880, Note_on_c, 0, 64, 81
2, 5939, Note_on_c, 0, 64, 0
2, 5939, Note_on_c, 0, 69, 0
2, 5940, Note_on_c, 0, 69, 79
2, 5940, Note_on_c, 0, 62, 79
2, 6117, Note_on_c, 0, 62, 0
2, 6117, Note_on_c, 0, 69, 0
2, 6120, Note_on_c, 0, 71, 100
2, 6120, Note_on_c, 0, 67, 100
2, 6236, Note_on_c, 0, 67, 0
2, 6236, Note_on_c, 0, 71, 0
2, 6240, Note_on_c, 0, 69, 100
2, 6240, Note_on_c, 0, 64, 100
2, 6299, Note_on_c, 0, 64, 0
2, 6299, Note_on_c, 0, 69, 0
2, 6300, Note_on_c, 0, 62, 100
2, 6300, Note_on_c, 0, 69, 100
2, 6359, Note_on_c, 0, 69, 0
2, 6359, Note_on_c, 0, 62, 0
2, 6360, Note_on_c, 0, 70, 113
2, 6389, Note_on_c, 0, 70, 0
2, 6390, Note_on_c, 0, 71, 127
2, 6419, Note_on_c, 0, 71, 0
2, 6420, Note_on_c, 0, 72, 127
2, 6449, Note_on_c, 0, 72, 0
2, 6450, Note_on_c, 0, 73, 127
2, 6479, Note_on_c, 0, 73, 0
2, 6480, Note_on_c, 0, 74, 124
2, 6657, Note_on_c, 0, 74, 0
2, 6660, Note_on_c, 0, 74, 100
2, 6719, Note_on_c, 0, 74, 0
2, 6720, Note_on_c, 0, 67, 100
2, 6779, Note_on_c, 0, 67, 0
2, 6780, Note_on_c, 0, 79, 100
2, 6839, Note_on_c, 0, 79, 0
2, 6840, Note_on_c, 0, 71, 100
2, 7017, Note_on_c, 0, 71, 0
2, 7020, Note_on_c, 0, 71, 98
2, 7079, Note_on_c, 0, 71, 0
2, 7080, Note_on_c, 0, 64, 92
2, 7139, Note_on_c, 0, 64, 0
2, 7140, Note_on_c, 0, 76, 92
2, 7199, Note_on_c, 0, 76, 0
2, 7200, Note_on_c, 0, 69, 92
2, 7316, Note_on_c, 0, 69, 0
2, 7320, Note_on_c, 0, 71, 106
2, 7320, Note_on_c, 0, 67, 106
2, 7379, Note_on_c, 0, 67, 0
2, 7379, Note_on_c, 0, 71, 0
2, 7380, Note_on_c, 0, 64, 115
2, 7380, Note_on_c, 0, 74, 115
2, 7439, Note_on_c, 0, 74, 0
2, 7440, Note_on_c, 0, 72, 120
2, 7496, Note_on_c, 0, 64, 0
2, 7499, Note_on_c, 0, 72, 0
2, 7500, Note_on_c, 0, 69, 123
2, 7500, Note_on_c, 0, 66, 123
2, 7559, Note_on_c, 0, 66, 0
2, 7559, Note_on_c, 0, 69, 0
2, 7560, Note_on_c, 0, 71, 121
2, 7560, Note_on_c, 0, 67, 121
2, 7589, Note_on_c, 0, 67, 0
2, 7589, Note_on_c, 0, 71, 0
2, 7590, Note_on_c, 0, 62, 116
2, 7619, Note_on_c, 0, 62, 0
2, 7620, Note_on_c, 0, 64, 112
2, 7649, Note_on_c, 0, 64, 0
2, 7650, Note_on_c, 0, 62, 104
2, 7679, Note_on_c, 0, 62, 0
2, 7680, Note_on_c, 0, 67, 95
2, 7709, Note_on_c, 0, 67, 0
2, 7710, Note_on_c, 0, 66, 89
2, 7739, Note_on_c, 0, 66, 0
2, 7740, Note_on_c, 0, 69, 87
2, 7769, Note_on_c, 0, 69, 0
2, 7770, Note_on_c, 0, 67, 87
2, 7799, Note_on_c, 0, 67, 0
2, 7800, Note_on_c, 0, 72, 87
2, 7829, Note_on_c, 0, 72, 0
2, 7830, Note_on_c, 0, 71, 92
2, 7859, Note_on_c, 0, 71, 0
2, 7860, Note_on_c, 0, 76, 92
2, 7889, Note_on_c, 0, 76, 0
2, 7890, Note_on_c, 0, 74, 92
2, 7919, Note_on_c, 0, 74, 0
2, 7920, Note_on_c, 0, 74, 92
2, 8097, Note_on_c, 0, 74, 0
2, 8100, Note_on_c, 0, 74, 92
2, 8159, Note_on_c, 0, 74, 0
2, 8160, Note_on_c, 0, 67, 92
2, 8219, Note_on_c, 0, 67, 0
2, 8220, Note_on_c, 0, 79, 92
2, 8279, Note_on_c, 0, 79, 0
2, 8280, Note_on_c, 0, 71, 92
2, 8457, Note_on_c, 0, 71, 0
2, 8460, Note_on_c, 0, 71, 92
2, 8519, Note_on_c, 0, 71, 0
2, 8520, Note_on_c, 0, 64, 92
2, 8579, Note_on_c, 0, 64, 0
2, 8580, Note_on_c, 0, 76, 92
2, 8639, Note_on_c, 0, 76, 0
2, 8640, Note_on_c, 0, 69, 92
2, 8756, Note_on_c, 0, 69, 0
2, 8760, Note_on_c, 0, 71, 94
2, 8760, Note_on_c, 0, 67, 94
2, 8819, Note_on_c, 0, 67, 0
2, 8819, Note_on_c, 0, 71, 0
2, 8820, Note_on_c, 0, 64, 95
2, 8820, Note_on_c, 0, 74, 95
2, 8879, Note_on_c, 0, 74, 0
2, 8880, Note_on_c, 0, 72, 100
2, 8936, Note_on_c, 0, 64, 0
2, 8939, Note_on_c, 0, 72, 0
2, 8940, Note_on_c, 0, 60, 101
2, 8940, Note_on_c, 0, 69, 101
2, 8999, Note_on_c, 0, 69, 0
2, 8999, Note_on_c, 0, 60, 0
2, 9000, Note_on_c, 0, 59, 104
2, 9000, Note_on_c, 0, 67, 104
2, 9116, Note_on_c, 0, 67, 0
2, 9116, Note_on_c, 0, 59, 0
2, 9120, Note_on_c, 0, 86, 109
2, 9179, Note_on_c, 0, 86, 0
2, 9180, Note_on_c, 0, 88, 106
2, 9209, Note_on_c, 0, 88, 0
2, 9210, Note_on_c, 0, 86, 106
2, 9239, Note_on_c, 0, 86, 0
2, 9240, Note_on_c, 0, 85, 106
2, 9269, Note_on_c, 0, 85, 0
2, 9270, Note_on_c, 0, 86, 104
2, 9299, Note_on_c, 0, 86, 0
2, 9300, Note_on_c, 0, 74, 103
2, 9329, Note_on_c, 0, 74, 0
2, 9330, Note_on_c, 0, 76, 101
2, 9359, Note_on_c, 0, 76, 0
2, 9360, Note_on_c, 0, 74, 100
2, 9389, Note_on_c, 0, 74, 0
2, 9390, Note_on_c, 0, 73, 100
2, 9419, Note_on_c, 0, 73, 0
2, 9420, Note_on_c, 0, 74, 98
2, 9449, Note_on_c, 0, 74, 0
2, 9450, Note_on_c, 0, 62, 93
2, 9479, Note_on_c, 0, 62, 0
2, 9480, Note_on_c, 0, 64, 90
2, 9509, Note_on_c, 0, 64, 0
2, 9510, Note_on_c, 0, 62, 89
2, 9539, Note_on_c, 0, 62, 0
2, 9540, Note_on_c, 0, 61, 88
2, 9569, Note_on_c, 0, 61, 0
2, 9570, Note_on_c, 0, 62, 83
2, 9599, Note_on_c, 0, 62, 0
2, 9600, Note_on_c, 0, 66, 79
2, 9629, Note_on_c, 0, 66, 0
2, 9630, Note_on_c, 0, 69, 72
2, 9659, Note_on_c, 0, 69, 0
2, 9660, Note_on_c, 0, 74, 68
2, 9689, Note_on_c, 0, 74, 0
2, 9690, Note_on_c, 0, 78, 64
2, 9719, Note_on_c, 0, 78, 0
2, 9720, Note_on_c, 0, 79, 64
2, 9749, Note_on_c, 0, 79, 0
2, 9750, Note_on_c, 0, 81, 64
2, 9779, Note_on_c, 0, 81, 0
2, 9780, Note_on_c, 0, 83, 64
2, 9809, Note_on_c, 0, 83, 0
2, 9810, Note_on_c, 0, 84, 64
2, 9839, Note_on_c, 0, 84, 0
2, 9840, Note_on_c, 0, 85, 64
2, 9869, Note_on_c, 0, 85, 0
2, 9870, Note_on_c, 0, 86, 64
2, 9899, Note_on_c, 0, 86, 0
2, 9900, Note_on_c, 0, 88, 64
2, 9929, Note_on_c, 0, 88, 0
2, 9930, Note_on_c, 0, 86, 64
2, 9959, Note_on_c, 0, 86, 0
2, 9960, Note_on_c, 0, 85, 64
2, 9989, Note_on_c, 0, 85, 0
2, 9990, Note_on_c, 0, 86, 64
2, 10019, Note_on_c, 0, 86, 0
2, 10020, Note_on_c, 0, 74, 64
2, 10049, Note_on_c, 0, 74, 0
2, 10050, Note_on_c, 0, 76, 66
2, 10079, Note_on_c, 0, 76, 0
2, 10080, Note_on_c, 0, 74, 68
2, 10109, Note_on_c, 0, 74, 0
2, 10110, Note_on_c, 0, 73, 71
2, 10139, Note_on_c, 0, 73, 0
2, 10140, Note_on_c, 0, 74, 74
2, 10169, Note_on_c, 0, 74, 0
2, 10170, Note_on_c, 0, 62, 75
2, 10199, Note_on_c, 0, 62, 0
2, 10200, Note_on_c, 0, 64, 76
2, 10229, Note_on_c, 0, 64, 0
2, 10230, Note_on_c, 0, 62, 81
2, 10259, Note_on_c, 0, 62, 0
2, 10260, Note_on_c, 0, 61, 83
2, 10289, Note_on_c, 0, 61, 0
2, 10290, Note_on_c, 0, 62, 88
2, 10319, Note_on_c, 0, 62, 0
2, 10320, Note_on_c, 0, 66, 94
2, 10349, Note_on_c, 0, 66, 0
2, 10350, Note_on_c, 0, 69, 101
2, 10379, Note_on_c, 0, 69, 0
2, 10380, Note_on_c, 0, 74, 107
2, 10409, Note_on_c, 0, 74, 0
2, 10410, Note_on_c, 0, 78, 113
2, 10439, Note_on_c, 0, 78, 0
2, 10440, Note_on_c, 0, 79, 122
2, 10556, Note_on_c, 0, 79, 0
2, 10620, Note_on_c, 0, 79, 82
2, 10620, Note_on_c, 0, 83, 82
2, 10620, Note_on_c, 0, 91, 82
2, 10736, Note_on_c, 0, 91, 0
2, 10736, Note_on_c, 0, 83, 0
2, 10736, Note_on_c, 0, 79, 0
2, 10736, End_track
3, 0, Start_track
3, 0, Title_t, "HESS ANH.21"
3, 0, Control_c, 1, 0, 0
3, 0, Control_c, 1, 7, 127
3, 0, Control_c, 1, 10, 83
3, 0, Control_c, 1, 32, 0
3, 0, Program_c, 1, 0
3, 60, Note_on_c, 1, 59, 100
3, 60, Note_on_c, 1, 55, 100
3, 119, Note_on_c, 1, 55, 0
3, 119, Note_on_c, 1, 59, 0
3, 120, Note_on_c, 1, 57, 100
3, 120, Note_on_c, 1, 60, 100
3, 179, Note_on_c, 1, 60, 0
3, 179, Note_on_c, 1, 57, 0
3, 180, Note_on_c, 1, 62, 100
3, 180, Note_on_c, 1, 59, 100
3, 296, Note_on_c, 1, 59, 0
3, 296, Note_on_c, 1, 62, 0
3, 420, Note_on_c, 1, 59, 100
3, 420, Note_on_c, 1, 55, 100
3, 479, Note_on_c, 1, 55, 0
3, 479, Note_on_c, 1, 59, 0
3, 480, Note_on_c, 1, 60, 100
3, 480, Note_on_c, 1, 57, 100
3, 539, Note_on_c, 1, 57, 0
3, 539, Note_on_c, 1, 60, 0
3, 540, Note_on_c, 1, 62, 100
3, 540, Note_on_c, 1, 59, 100
3, 656, Note_on_c, 1, 59, 0
3, 656, Note_on_c, 1, 62, 0
3, 780, Note_on_c, 1, 50, 100
3, 780, Note_on_c, 1, 54, 100
3, 839, Note_on_c, 1, 54, 0
3, 839, Note_on_c, 1, 50, 0
3, 840, Note_on_c, 1, 55, 100
3, 840, Note_on_c, 1, 52, 100
3, 899, Note_on_c, 1, 52, 0
3, 899, Note_on_c, 1, 55, 0
3, 900, Note_on_c, 1, 57, 100
3, 900, Note_on_c, 1, 54, 100
3, 1016, Note_on_c, 1, 54, 0
3, 1016, Note_on_c, 1, 57, 0
3, 1140, Note_on_c, 1, 59, 100
3, 1140, Note_on_c, 1, 55, 100
3, 1199, Note_on_c, 1, 55, 0
3, 1199, Note_on_c, 1, 59, 0
3, 1200, Note_on_c, 1, 60, 100
3, 1200, Note_on_c, 1, 57, 100
3, 1259, Note_on_c, 1, 57, 0
3, 1259, Note_on_c, 1, 60, 0
3, 1260, Note_on_c, 1, 62, 100
3, 1260, Note_on_c, 1, 59, 100
3, 1376, Note_on_c, 1, 59, 0
3, 1376, Note_on_c, 1, 62, 0
3, 1500, Note_on_c, 1, 59, 100
3, 1500, Note_on_c, 1, 55, 100
3, 1559, Note_on_c, 1, 55, 0
3, 1559, Note_on_c, 1, 59, 0
3, 1560, Note_on_c, 1, 57, 100
3, 1560, Note_on_c, 1, 60, 100
3, 1619, Note_on_c, 1, 60, 0
3, 1619, Note_on_c, 1, 57, 0
3, 1620, Note_on_c, 1, 62, 100
3, 1620, Note_on_c, 1, 59, 100
3, 1736, Note_on_c, 1, 59, 0
3, 1736, Note_on_c, 1, 62, 0
3, 1860, Note_on_c, 1, 59, 100
3, 1860, Note_on_c, 1, 55, 100
3, 1919, Note_on_c, 1, 55, 0
3, 1919, Note_on_c, 1, 59, 0
3, 1920, Note_on_c, 1, 60, 100
3, 1920, Note_on_c, 1, 57, 100
3, 1979, Note_on_c, 1, 57, 0
3, 1979, Note_on_c, 1, 60, 0
3, 1980, Note_on_c, 1, 62, 100
3, 1980, Note_on_c, 1, 59, 100
3, 2096, Note_on_c, 1, 59, 0
3, 2096, Note_on_c, 1, 62, 0
3, 2220, Note_on_c, 1, 50, 100
3, 2220, Note_on_c, 1, 54, 100
3, 2279, Note_on_c, 1, 54, 0
3, 2279, Note_on_c, 1, 50, 0
3, 2280, Note_on_c, 1, 55, 100
3, 2280, Note_on_c, 1, 52, 100
3, 2339, Note_on_c, 1, 52, 0
3, 2339, Note_on_c, 1, 55, 0
3, 2340, Note_on_c, 1, 57, 100
3, 2340, Note_on_c, 1, 54, 100
3, 2456, Note_on_c, 1, 54, 0
3, 2456, Note_on_c, 1, 57, 0
3, 2580, Note_on_c, 1, 59, 100
3, 2580, Note_on_c, 1, 55, 100
3, 2639, Note_on_c, 1, 55, 0
3, 2639, Note_on_c, 1, 59, 0
3, 2640, Note_on_c, 1, 60, 100
3, 2640, Note_on_c, 1, 57, 100
3, 2699, Note_on_c, 1, 57, 0
3, 2699, Note_on_c, 1, 60, 0
3, 2700, Note_on_c, 1, 62, 100
3, 2700, Note_on_c, 1, 59, 100
3, 2816, Note_on_c, 1, 59, 0
3, 2816, Note_on_c, 1, 62, 0
3, 2940, Note_on_c, 1, 55, 100
3, 2940, Note_on_c, 1, 59, 100
3, 2999, Note_on_c, 1, 59, 0
3, 2999, Note_on_c, 1, 55, 0
3, 3000, Note_on_c, 1, 54, 100
3, 3000, Note_on_c, 1, 57, 100
3, 3059, Note_on_c, 1, 57, 0
3, 3059, Note_on_c, 1, 54, 0
3, 3180, Note_on_c, 1, 50, 100
3, 3180, Note_on_c, 1, 54, 100
3, 3239, Note_on_c, 1, 54, 0
3, 3239, Note_on_c, 1, 50, 0
3, 3240, Note_on_c, 1, 49, 100
3, 3240, Note_on_c, 1, 52, 100
3, 3299, Note_on_c, 1, 52, 0
3, 3299, Note_on_c, 1, 49, 0
3, 3300, Note_on_c, 1, 47, 100
3, 3300, Note_on_c, 1, 50, 100
3, 3359, Note_on_c, 1, 50, 0
3, 3359, Note_on_c, 1, 47, 0
3, 3360, Note_on_c, 1, 45, 100
3, 3360, Note_on_c, 1, 49, 100
3, 3419, Note_on_c, 1, 49, 0
3, 3419, Note_on_c, 1, 45, 0
3, 3480, Note_on_c, 1, 52, 100
3, 3539, Note_on_c, 1, 52, 0
3, 3540, Note_on_c, 1, 49, 100
3, 3540, Note_on_c, 1, 57, 100
3, 3599, Note_on_c, 1, 57, 0
3, 3599, Note_on_c, 1, 49, 0
3, 3600, Note_on_c, 1, 50, 100
3, 3600, Note_on_c, 1, 57, 100
3, 3716, Note_on_c, 1, 57, 0
3, 3716, Note_on_c, 1, 50, 0
3, 3780, Note_on_c, 1, 45, 100
3, 3839, Note_on_c, 1, 45, 0
3, 3840, Note_on_c, 1, 42, 100
3, 3899, Note_on_c, 1, 42, 0
3, 3900, Note_on_c, 1, 38, 100
3, 3959, Note_on_c, 1, 38, 0
3, 3960, Note_on_c, 1, 55, 100
3, 3960, Note_on_c, 1, 57, 100
3, 4137, Note_on_c, 1, 57, 0
3, 4137, Note_on_c, 1, 55, 0
3, 4140, Note_on_c, 1, 55, 100
3, 4140, Note_on_c, 1, 57, 100
3, 4199, Note_on_c, 1, 57, 0
3, 4200, Note_on_c, 1, 64, 100
3, 4256, Note_on_c, 1, 55, 0
3, 4259, Note_on_c, 1, 64, 0
3, 4260, Note_on_c, 1, 54, 100
3, 4260, Note_on_c, 1, 62, 100
3, 4319, Note_on_c, 1, 62, 0
3, 4319, Note_on_c, 1, 54, 0
3, 4320, Note_on_c, 1, 55, 100
3, 4320, Note_on_c, 1, 57, 100
3, 4497, Note_on_c, 1, 57, 0
3, 4497, Note_on_c, 1, 55, 0
3, 4500, Note_on_c, 1, 55, 100
3, 4500, Note_on_c, 1, 57, 100
3, 4559, Note_on_c, 1, 57, 0
3, 4560, Note_on_c, 1, 64, 100
3, 4616, Note_on_c, 1, 55, 0
3, 4619, Note_on_c, 1, 64, 0
3, 4620, Note_on_c, 1, 54, 100
3, 4620, Note_on_c, 1, 62, 100
3, 4679, Note_on_c, 1, 62, 0
3, 4679, Note_on_c, 1, 54, 0
3, 4740, Note_on_c, 1, 50, 100
3, 4740, Note_on_c, 1, 57, 100
3, 4799, Note_on_c, 1, 57, 0
3, 4799, Note_on_c, 1, 50, 0
3, 4800, Note_on_c, 1, 50, 100
3, 4800, Note_on_c, 1, 57, 100
3, 4859, Note_on_c, 1, 57, 0
3, 4859, Note_on_c, 1, 50, 0
3, 4860, Note_on_c, 1, 50, 100
3, 4860, Note_on_c, 1, 57, 100
3, 5037, Note_on_c, 1, 57, 0
3, 5037, Note_on_c, 1, 50, 0
3, 5040, Note_on_c, 1, 62, 100
3, 5040, Note_on_c, 1, 54, 100
3, 5099, Note_on_c, 1, 54, 0
3, 5100, Note_on_c, 1, 55, 100
3, 5156, Note_on_c, 1, 62, 0
3, 5159, Note_on_c, 1, 55, 0
3, 5160, Note_on_c, 1, 60, 100
3, 5219, Note_on_c, 1, 60, 0
3, 5220, Note_on_c, 1, 60, 100
3, 5279, Note_on_c, 1, 60, 0
3, 5280, Note_on_c, 1, 59, 100
3, 5339, Note_on_c, 1, 59, 0
3, 5340, Note_on_c, 1, 54, 100
3, 5399, Note_on_c, 1, 54, 0
3, 5400, Note_on_c, 1, 62, 100
3, 5400, Note_on_c, 1, 54, 100
3, 5459, Note_on_c, 1, 54, 0
3, 5460, Note_on_c, 1, 55, 100
3, 5516, Note_on_c, 1, 62, 0
3, 5519, Note_on_c, 1, 55, 0
3, 5520, Note_on_c, 1, 60, 100
3, 5579, Note_on_c, 1, 60, 0
3, 5580, Note_on_c, 1, 60, 100
3, 5639, Note_on_c, 1, 60, 0
3, 5640, Note_on_c, 1, 59, 100
3, 5699, Note_on_c, 1, 59, 0
3, 5700, Note_on_c, 1, 54, 100
3, 5759, Note_on_c, 1, 54, 0
3, 5760, Note_on_c, 1, 55, 100
3, 5819, Note_on_c, 1, 55, 0
3, 5820, Note_on_c, 1, 52, 100
3, 5879, Note_on_c, 1, 52, 0
3, 5880, Note_on_c, 1, 49, 100
3, 5880, Note_on_c, 1, 55, 100
3, 5939, Note_on_c, 1, 55, 0
3, 5939, Note_on_c, 1, 49, 0
3, 5940, Note_on_c, 1, 50, 100
3, 5940, Note_on_c, 1, 54, 100
3, 5999, Note_on_c, 1, 54, 0
3, 5999, Note_on_c, 1, 50, 0
3, 6000, Note_on_c, 1, 50, 100
3, 6029, Note_on_c, 1, 50, 0
3, 6030, Note_on_c, 1, 52, 100
3, 6059, Note_on_c, 1, 52, 0
3, 6060, Note_on_c, 1, 53, 100
3, 6089, Note_on_c, 1, 53, 0
3, 6090, Note_on_c, 1, 54, 100
3, 6119, Note_on_c, 1, 54, 0
3, 6120, Note_on_c, 1, 55, 100
3, 6179, Note_on_c, 1, 55, 0
3, 6180, Note_on_c, 1, 52, 100
3, 6239, Note_on_c, 1, 52, 0
3, 6240, Note_on_c, 1, 49, 100
3, 6240, Note_on_c, 1, 55, 100
3, 6299, Note_on_c, 1, 55, 0
3, 6299, Note_on_c, 1, 49, 0
3, 6300, Note_on_c, 1, 50, 100
3, 6300, Note_on_c, 1, 54, 100
3, 6359, Note_on_c, 1, 54, 0
3, 6359, Note_on_c, 1, 50, 0
3, 6360, Note_on_c, 1, 50, 100
3, 6360, Note_on_c, 1, 54, 100
3, 6476, Note_on_c, 1, 54, 0
3, 6476, Note_on_c, 1, 50, 0
3, 6540, Note_on_c, 1, 59, 100
3, 6540, Note_on_c, 1, 55, 100
3, 6599, Note_on_c, 1, 55, 0
3, 6599, Note_on_c, 1, 59, 0
3, 6600, Note_on_c, 1, 57, 100
3, 6600, Note_on_c, 1, 60, 100
3, 6659, Note_on_c, 1, 60, 0
3, 6659, Note_on_c, 1, 57, 0
3, 6660, Note_on_c, 1, 62, 100
3, 6660, Note_on_c, 1, 59, 100
3, 6776, Note_on_c, 1, 59, 0
3, 6776, Note_on_c, 1, 62, 0
3, 6900, Note_on_c, 1, 59, 100
3, 6900, Note_on_c, 1, 55, 100
3, 6959, Note_on_c, 1, 55, 0
3, 6959, Note_on_c, 1, 59, 0
3, 6960, Note_on_c, 1, 60, 100
3, 6960, Note_on_c, 1, 57, 100
3, 7019, Note_on_c, 1, 57, 0
3, 7019, Note_on_c, 1, 60, 0
3, 7020, Note_on_c, 1, 62, 100
3, 7020, Note_on_c, 1, 59, 100
3, 7136, Note_on_c, 1, 59, 0
3, 7136, Note_on_c, 1, 62, 0
3, 7260, Note_on_c, 1, 64, 100
3, 7260, Note_on_c, 1, 60, 100
3, 7319, Note_on_c, 1, 60, 0
3, 7319, Note_on_c, 1, 64, 0
3, 7320, Note_on_c, 1, 62, 100
3, 7320, Note_on_c, 1, 59, 100
3, 7379, Note_on_c, 1, 59, 0
3, 7379, Note_on_c, 1, 62, 0
3, 7380, Note_on_c, 1, 57, 100
3, 7380, Note_on_c, 1, 60, 100
3, 7496, Note_on_c, 1, 60, 0
3, 7496, Note_on_c, 1, 57, 0
3, 7500, Note_on_c, 1, 50, 100
3, 7500, Note_on_c, 1, 62, 100
3, 7559, Note_on_c, 1, 62, 0
3, 7559, Note_on_c, 1, 50, 0
3, 7560, Note_on_c, 1, 59, 100
3, 7560, Note_on_c, 1, 55, 100
3, 7676, Note_on_c, 1, 55, 0
3, 7676, Note_on_c, 1, 59, 0
3, 7980, Note_on_c, 1, 59, 100
3, 7980, Note_on_c, 1, 55, 100
3, 8039, Note_on_c, 1, 55, 0
3, 8039, Note_on_c, 1, 59, 0
3, 8040, Note_on_c, 1, 57, 100
3, 8040, Note_on_c, 1, 60, 100
3, 8099, Note_on_c, 1, 60, 0
3, 8099, Note_on_c, 1, 57, 0
3, 8100, Note_on_c, 1, 62, 100
3, 8100, Note_on_c, 1, 59, 100
3, 8216, Note_on_c, 1, 59, 0
3, 8216, Note_on_c, 1, 62, 0
3, 8340, Note_on_c, 1, 59, 100
3, 8340, Note_on_c, 1, 55, 100
3, 8399, Note_on_c, 1, 55, 0
3, 8399, Note_on_c, 1, 59, 0
3, 8400, Note_on_c, 1, 60, 100
3, 8400, Note_on_c, 1, 57, 100
3, 8459, Note_on_c, 1, 57, 0
3, 8459, Note_on_c, 1, 60, 0
3, 8460, Note_on_c, 1, 62, 100
3, 8460, Note_on_c, 1, 59, 100
3, 8576, Note_on_c, 1, 59, 0
3, 8576, Note_on_c, 1, 62, 0
3, 8700, Note_on_c, 1, 64, 100
3, 8700, Note_on_c, 1, 60, 100
3, 8759, Note_on_c, 1, 60, 0
3, 8759, Note_on_c, 1, 64, 0
3, 8760, Note_on_c, 1, 62, 100
3, 8760, Note_on_c, 1, 59, 100
3, 8819, Note_on_c, 1, 59, 0
3, 8819, Note_on_c, 1, 62, 0
3, 8820, Note_on_c, 1, 57, 100
3, 8820, Note_on_c, 1, 60, 100
3, 8936, Note_on_c, 1, 60, 0
3, 8936, Note_on_c, 1, 57, 0
3, 8940, Note_on_c, 1, 57, 100
3, 8940, Note_on_c, 1, 50, 100
3, 8999, Note_on_c, 1, 50, 0
3, 8999, Note_on_c, 1, 57, 0
3, 9000, Note_on_c, 1, 43, 100
3, 9000, Note_on_c, 1, 55, 100
3, 9177, Note_on_c, 1, 55, 0
3, 9177, Note_on_c, 1, 43, 0
3, 9180, Note_on_c, 1, 48, 100
3, 9180, Note_on_c, 1, 54, 100
3, 9357, Note_on_c, 1, 54, 0
3, 9357, Note_on_c, 1, 48, 0
3, 9360, Note_on_c, 1, 47, 100
3, 9360, Note_on_c, 1, 55, 100
3, 9537, Note_on_c, 1, 55, 0
3, 9537, Note_on_c, 1, 47, 0
3, 9540, Note_on_c, 1, 48, 100
3, 9540, Note_on_c, 1, 50, 100
3, 9717, Note_on_c, 1, 50, 0
3, 9717, Note_on_c, 1, 48, 0
3, 9720, Note_on_c, 1, 47, 100
3, 9720, Note_on_c, 1, 55, 100
3, 9897, Note_on_c, 1, 55, 0
3, 9897, Note_on_c, 1, 47, 0
3, 9900, Note_on_c, 1, 54, 100
3, 9900, Note_on_c, 1, 48, 100
3, 10077, Note_on_c, 1, 48, 0
3, 10077, Note_on_c, 1, 54, 0
3, 10080, Note_on_c, 1, 47, 100
3, 10080, Note_on_c, 1, 55, 100
3, 10257, Note_on_c, 1, 55, 0
3, 10257, Note_on_c, 1, 47, 0
3, 10260, Note_on_c, 1, 48, 100
3, 10260, Note_on_c, 1, 50, 100
3, 10437, Note_on_c, 1, 50, 0
3, 10437, Note_on_c, 1, 48, 0
3, 10440, Note_on_c, 1, 43, 100
3, 10440, Note_on_c, 1, 47, 100
3, 10440, Note_on_c, 1, 55, 100
3, 10556, Note_on_c, 1, 55, 0
3, 10556, Note_on_c, 1, 47, 0
3, 10556, Note_on_c, 1, 43, 0
3, 10620, Note_on_c, 1, 31, 100
3, 10620, Note_on_c, 1, 38, 100
3, 10620, Note_on_c, 1, 43, 100
3, 10736, Note_on_c, 1, 43, 0
3, 10736, Note_on_c, 1, 38, 0
3, 10736, Note_on_c, 1, 31, 0
3, 10736, End_track
4, 0, Start_track
4, 0, End_track
0, 0, End_of_file