0, 0, Header, 1, 4, 480
1, 0, Start_track
1, 0, Title_t, "Untitled"
1, 0, Time_signature, 4, 2, 24, 8
1, 0, Key_signature, 0, "major"
1, 0, Tempo, 500000
1, 0, Marker_t, "Paino Sonata No.26"
1, 1920, Tempo, 967741
1, 1920, Marker_t, "Beethoven"
1, 3630, Tempo, 1000000
1, 3840, Marker_t, "SC77VL Roland"
1, 5280, Tempo, 952380
1, 5760, Tempo, 952380
1, 5760, Marker_t, "Bunji Hisamori"
1, 6240, Tempo, 923076
1, 6727, Tempo, 923076
1, 7190, Tempo, 895522
1, 7567, Tempo, 923076
1, 7680, Tempo, 1000000
1, 7680, Marker_t, "hisamori@bekkoame.or.jp"
1, 8640, Tempo, 1111111
1, 9120, Tempo, 967741
1, 9585, Tempo, 1000000
1, 9600, Tempo, 1000000
1, 9600, Marker_t, "Mail in English only!"
1, 10460, Tempo, 1034482
1, 11040, Tempo, 1071428
1, 11520, Marker_t, "Thank you!"
1, 12920, Tempo, 1132075
1, 13080, Tempo, 1224489
1, 13320, Tempo, 1276595
1, 13400, Tempo, 2727272
1, 13440, Tempo, 967741
1, 14880, Tempo, 1000000
1, 16800, Tempo, 952380
1, 17280, Tempo, 952380
1, 17740, Tempo, 923076
1, 18227, Tempo, 923076
1, 18690, Tempo, 895522
1, 19067, Tempo, 923076
1, 19200, Tempo, 967741
1, 20120, Tempo, 1000000
1, 20640, Tempo, 967741
1, 21010, Tempo, 1034482
1, 21120, Tempo, 1000000
1, 22040, Tempo, 1000000
1, 22560, Tempo, 1111111
1, 23040, Tempo, 1363636
1, 23520, Tempo, 1071428
1, 24240, Tempo, 1111111
1, 24840, Tempo, 1132075
1, 26775, Tempo, 1176470
1, 28680, Tempo, 1224489
1, 29760, Tempo, 1333333
1, 30600, Tempo, 1428571
1, 31185, Marker_t, "2"
1, 32160, Tempo, 2727272
1, 32640, Tempo, 248962
1, 36240, Tempo, 251046
1, 39840, Tempo, 253164
1, 40320, Tempo, 248962
1, 42120, Tempo, 251046
1, 42240, Tempo, 248962
1, 47595, Tempo, 251046
1, 48000, Tempo, 248962
1, 49800, Tempo, 251046
1, 49920, Tempo, 248962
1, 55260, Tempo, 256410
1, 55680, Tempo, 248962
1, 61800, Tempo, 251046
1, 65175, Tempo, 256410
1, 65280, Tempo, 271493
1, 66720, Tempo, 408163
1, 67200, Tempo, 248962
1, 70770, Tempo, 253164
1, 71040, Tempo, 248962
1, 74820, Tempo, 253164
1, 74880, Tempo, 248962
1, 78600, Tempo, 251046
1, 78720, Tempo, 248962
1, 82350, Tempo, 251046
1, 82560, Tempo, 248962
1, 86280, Tempo, 251046
1, 86400, Tempo, 248962
1, 89175, Tempo, 251046
1, 91440, Tempo, 253164
1, 93465, Tempo, 269058
1, 95415, Tempo, 280373
1, 96000, Tempo, 252100
1, 99585, Tempo, 253164
1, 101640, Tempo, 254237
1, 103455, Tempo, 260869
1, 103680, Tempo, 252100
1, 107430, Tempo, 253164
1, 109320, Tempo, 254237
1, 110760, Tempo, 258620
1, 111270, Tempo, 265486
1, 111360, Tempo, 254237
1, 113160, Tempo, 256410
1, 115140, Tempo, 258620
1, 115200, Tempo, 254237
1, 117000, Tempo, 256410
1, 118680, Tempo, 260869
1, 119000, Tempo, 263157
1, 119040, Tempo, 256410
1, 120840, Tempo, 258620
1, 122820, Tempo, 260869
1, 124680, Tempo, 263157
1, 126120, Tempo, 319148
1, 126480, Tempo, 394736
1, 126720, Tempo, 276497
1, 128640, Tempo, 289855
1, 130560, Tempo, 277777
1, 132480, Tempo, 295566
1, 134400, Tempo, 248962
1, 140070, Tempo, 256410
1, 142080, Tempo, 263157
1, 144000, Tempo, 251046
1, 147720, Tempo, 256410
1, 149760, Tempo, 263157
1, 151680, Tempo, 251046
1, 155480, Tempo, 256410
1, 157440, Tempo, 263157
1, 159360, Tempo, 251046
1, 163065, Tempo, 256410
1, 165120, Tempo, 263157
1, 167040, Tempo, 253164
1, 170670, Tempo, 256410
1, 170880, Tempo, 251046
1, 172740, Tempo, 254237
1, 174000, Tempo, 256410
1, 174480, Tempo, 319148
1, 174720, Tempo, 248962
1, 178440, Tempo, 251046
1, 180255, Tempo, 254237
1, 180480, Tempo, 256410
1, 188100, Tempo, 258620
1, 195720, Tempo, 260869
1, 199620, Tempo, 263157
1, 203400, Tempo, 265486
1, 207240, Tempo, 269058
1, 207360, Tempo, 253164
1, 210840, Tempo, 258620
1, 210970, Tempo, 379746
1, 211200, Tempo, 248962
1, 214785, Tempo, 251046
1, 215040, Tempo, 251046
1, 218400, Tempo, 253164
1, 218880, Tempo, 248962
1, 220680, Tempo, 251046
1, 220800, Tempo, 248962
1, 226110, Tempo, 253164
1, 226560, Tempo, 248962
1, 228390, Tempo, 251046
1, 228480, Tempo, 248962
1, 233910, Tempo, 256410
1, 234240, Tempo, 251046
1, 237000, Tempo, 253164
1, 237120, Tempo, 251046
1, 238520, Tempo, 253164
1, 241800, Tempo, 319148
1, 241920, Tempo, 271493
1, 243360, Tempo, 400000
1, 243840, Tempo, 248962
1, 247425, Tempo, 258620
1, 247680, Tempo, 248962
1, 251460, Tempo, 253164
1, 251520, Tempo, 248962
1, 255240, Tempo, 251046
1, 255360, Tempo, 248962
1, 259080, Tempo, 253164
1, 259200, Tempo, 248962
1, 262920, Tempo, 251046
1, 263040, Tempo, 248962
1, 265815, Tempo, 251046
1, 268080, Tempo, 253164
1, 270105, Tempo, 266666
1, 272085, Tempo, 283018
1, 272640, Tempo, 252100
1, 276360, Tempo, 253164
1, 278280, Tempo, 254237
1, 280080, Tempo, 260869
1, 280320, Tempo, 252100
1, 284040, Tempo, 253164
1, 285960, Tempo, 254237
1, 287400, Tempo, 258620
1, 287730, Tempo, 263157
1, 288000, Tempo, 254237
1, 289800, Tempo, 256410
1, 291780, Tempo, 258620
1, 291840, Tempo, 254237
1, 293640, Tempo, 256410
1, 295640, Tempo, 260869
1, 295680, Tempo, 256410
1, 297480, Tempo, 258620
1, 299400, Tempo, 260869
1, 301320, Tempo, 263157
1, 302820, Tempo, 304568
1, 303120, Tempo, 377358
1, 303360, Tempo, 276497
1, 305280, Tempo, 289855
1, 307200, Tempo, 277777
1, 309120, Tempo, 292682
1, 311040, Tempo, 248962
1, 316590, Tempo, 254237
1, 316800, Tempo, 251046
1, 320190, Tempo, 253164
1, 320640, Tempo, 248962
1, 322440, Tempo, 251046
1, 322560, Tempo, 248962
1, 327870, Tempo, 253164
1, 328320, Tempo, 248962
1, 330120, Tempo, 251046
1, 330240, Tempo, 248962
1, 335565, Tempo, 254237
1, 336000, Tempo, 248962
1, 337800, Tempo, 251046
1, 337920, Tempo, 248962
1, 343260, Tempo, 254237
1, 343680, Tempo, 248962
1, 345560, Tempo, 251046
1, 347040, Tempo, 331491
1, 347400, Tempo, 394736
1, 347520, Tempo, 260869
1, 351320, Tempo, 263157
1, 351360, Tempo, 260869
1, 355160, Tempo, 263157
1, 355200, Tempo, 260869
1, 359000, Tempo, 263157
1, 359040, Tempo, 260869
1, 362840, Tempo, 263157
1, 362880, Tempo, 260869
1, 366680, Tempo, 263157
1, 366720, Tempo, 260869
1, 370440, Tempo, 263157
1, 370560, Tempo, 260869
1, 374360, Tempo, 263157
1, 376260, Tempo, 265486
1, 377220, Tempo, 271493
1, 377775, Tempo, 324324
1, 378240, Tempo, 248962
1, 381960, Tempo, 251046
1, 383880, Tempo, 253164
1, 385665, Tempo, 256410
1, 385920, Tempo, 248962
1, 389700, Tempo, 251046
1, 389760, Tempo, 248962
1, 393540, Tempo, 251046
1, 393600, Tempo, 248962
1, 397380, Tempo, 251046
1, 397440, Tempo, 251046
1, 400920, Tempo, 263157
1, 401130, Tempo, 254237
1, 401280, Tempo, 248962
1, 405000, Tempo, 251046
1, 406920, Tempo, 253164
1, 408855, Tempo, 258620
1, 408960, Tempo, 248962
1, 416580, Tempo, 251046
1, 416640, Tempo, 248962
1, 420420, Tempo, 251046
1, 420510, Tempo, 248962
1, 424260, Tempo, 251046
1, 426180, Tempo, 253164
1, 427140, Tempo, 260869
1, 427570, Tempo, 269058
1, 427920, Tempo, 461538
1, 428160, Tempo, 266666
1, 431960, Tempo, 269058
1, 432000, Tempo, 266666
1, 435800, Tempo, 269058
1, 435840, Tempo, 266666
1, 439620, Tempo, 269058
1, 439680, Tempo, 266666
1, 443460, Tempo, 269058
1, 451080, Tempo, 271493
1, 458400, Tempo, 276497
1, 458880, Tempo, 273972
1, 464580, Tempo, 276497
1, 465840, Tempo, 283018
1, 466080, Tempo, 320855
1, 466560, Tempo, 269058
1, 469920, Tempo, 271493
1, 470400, Tempo, 266666
1, 476120, Tempo, 269058
1, 477600, Tempo, 273972
1, 478080, Tempo, 271493
1, 479960, Tempo, 276497
1, 481440, Tempo, 277777
1, 481920, Tempo, 280373
1, 483800, Tempo, 283018
1, 485760, Tempo, 301507
1, 487680, Tempo, 309278
1, 489600, Tempo, 379746
1, 491520, Tempo, 1176470
1, 493440, Tempo, 1333333
1, 493440, Marker_t, "3"
1, 495300, Tempo, 1363636
1, 495360, Tempo, 1333333
1, 497220, Tempo, 1363636
1, 497280, Tempo, 1333333
1, 498180, Tempo, 1363636
1, 498240, Tempo, 1333333
1, 499140, Tempo, 1363636
1, 500400, Tempo, 1363636
1, 501000, Tempo, 1666666
1, 501120, Tempo, 1333333
1, 502980, Tempo, 1363636
1, 503040, Tempo, 1333333
1, 504900, Tempo, 1363636
1, 504960, Tempo, 1333333
1, 505860, Tempo, 1363636
1, 505920, Tempo, 1333333
1, 506820, Tempo, 1363636
1, 508020, Tempo, 1428571
1, 508080, Tempo, 1333333
1, 508740, Tempo, 1363636
1, 508800, Tempo, 1276595
1, 509700, Tempo, 1333333
1, 509760, Tempo, 1276595
1, 510240, Tempo, 1333333
1, 510585, Tempo, 1428571
1, 511080, Tempo, 1578947
1, 512100, Tempo, 1500000
1, 512160, Tempo, 1363636
1, 512580, Tempo, 1428571
1, 512640, Tempo, 1333333
1, 514020, Tempo, 1363636
1, 514080, Tempo, 1333333
1, 514500, Tempo, 1363636
1, 514560, Tempo, 1333333
1, 514980, Tempo, 1363636
1, 515040, Tempo, 1363636
1, 515460, Tempo, 1578947
1, 515520, Tempo, 1666666
1, 515925, Tempo, 1363636
1, 516900, Tempo, 1428571
1, 516960, Tempo, 1363636
1, 517800, Tempo, 1500000
1, 517920, Tempo, 1363636
1, 518350, Tempo, 1428571
1, 518820, Tempo, 1500000
1, 519240, Tempo, 1578947
1, 519720, Tempo, 1666666
1, 520020, Tempo, 1714285
1, 520140, Tempo, 1764705
1, 520260, Tempo, 2727272
1, 520320, Tempo, 1333333
1, 522180, Tempo, 1363636
1, 522240, Tempo, 1333333
1, 524100, Tempo, 1428571
1, 524160, Tempo, 1333333
1, 525560, Tempo, 1363636
1, 525936, Tempo, 1395348
1, 526020, Tempo, 1500000
1, 526080, Tempo, 1333333
1, 527940, Tempo, 1428571
1, 528000, Tempo, 1304347
1, 528920, Tempo, 1333333
1, 529740, Tempo, 1363636
1, 529815, Tempo, 1578947
1, 529920, Tempo, 1304347
1, 530850, Tempo, 1333333
1, 531320, Tempo, 1363636
1, 531660, Tempo, 1764705
1, 531735, Tempo, 2500000
1, 531840, Tempo, 1333333
1, 533700, Tempo, 1363636
1, 533760, Tempo, 1333333
1, 535620, Tempo, 1363636
1, 535680, Tempo, 1333333
1, 536580, Tempo, 1363636
1, 536640, Tempo, 1333333
1, 537540, Tempo, 1363636
1, 538740, Tempo, 1428571
1, 538800, Tempo, 1333333
1, 539460, Tempo, 1363636
1, 539520, Tempo, 1276595
1, 540960, Tempo, 1333333
1, 541380, Tempo, 1428571
1, 541860, Tempo, 1578947
1, 542820, Tempo, 1428571
1, 543300, Tempo, 1500000
1, 543360, Tempo, 1333333
1, 543780, Tempo, 1363636
1, 543840, Tempo, 1333333
1, 544740, Tempo, 1363636
1, 544800, Tempo, 1333333
1, 545220, Tempo, 1363636
1, 545280, Tempo, 1333333
1, 545700, Tempo, 1363636
1, 545760, Tempo, 1363636
1, 546180, Tempo, 1578947
1, 546240, Tempo, 1666666
1, 546600, Tempo, 1363636
1, 547620, Tempo, 1428571
1, 547680, Tempo, 1363636
1, 548580, Tempo, 1500000
1, 548640, Tempo, 1363636
1, 549080, Tempo, 1428571
1, 549540, Tempo, 1500000
1, 549600, Tempo, 1428571
1, 550040, Tempo, 1500000
1, 550480, Tempo, 1666666
1, 550740, Tempo, 1714285
1, 550860, Tempo, 1666666
1, 550980, Tempo, 2727272
1, 551040, Tempo, 1333333
1, 552900, Tempo, 1363636
1, 552960, Tempo, 1333333
1, 554820, Tempo, 1428571
1, 554880, Tempo, 1333333
1, 556280, Tempo, 1363636
1, 556650, Tempo, 1395348
1, 556740, Tempo, 1500000
1, 556800, Tempo, 1333333
1, 558660, Tempo, 1428571
1, 558770, Tempo, 1304347
1, 559630, Tempo, 1333333
1, 560460, Tempo, 1333333
1, 560535, Tempo, 1363636
1, 560700, Tempo, 1304347
1, 561540, Tempo, 1333333
1, 562380, Tempo, 1764705
1, 562455, Tempo, 2500000
1, 562560, Tempo, 1333333
1, 564420, Tempo, 1428571
1, 564480, Tempo, 1363636
1, 566280, Tempo, 1500000
1, 566400, Tempo, 1363636
1, 568260, Tempo, 1428571
1, 568320, Tempo, 1363636
1, 569760, Tempo, 1428571
1, 569820, Tempo, 1363636
1, 570180, Tempo, 1428571
1, 570240, Tempo, 1363636
1, 571620, Tempo, 1428571
1, 572580, Tempo, 1500000
1, 573540, Tempo, 2400000
1, 573600, Tempo, 2727272
1, 574080, Time_signature, 6, 3, 24, 8
1, 574080, Tempo, 500000
1, 574080, Marker_t, "4"
1, 574320, Tempo, 384615
1, 576900, Tempo, 389610
1, 576960, Tempo, 384615
1, 579780, Tempo, 389610
1, 579840, Tempo, 384615
1, 580500, Tempo, 389610
1, 580560, Tempo, 384615
1, 581940, Tempo, 389610
1, 582000, Tempo, 384615
1, 583380, Tempo, 389610
1, 583440, Tempo, 384615
1, 584820, Tempo, 389610
1, 584880, Tempo, 384615
1, 585540, Tempo, 408163
1, 585600, Tempo, 465116
1, 585840, Tempo, 389610
1, 588120, Tempo, 394736
1, 588240, Tempo, 447761
1, 588360, Tempo, 722891
1, 588480, Tempo, 402684
1, 591300, Tempo, 408163
1, 591360, Tempo, 400000
1, 594180, Tempo, 402684
1, 596985, Tempo, 419580
1, 597120, Tempo, 402684
1, 599940, Tempo, 408163
1, 600000, Tempo, 400000
1, 602820, Tempo, 402684
1, 605625, Tempo, 425531
1, 605760, Tempo, 400000
1, 607140, Tempo, 402684
1, 607200, Tempo, 400000
1, 608580, Tempo, 402684
1, 608640, Tempo, 400000
1, 610020, Tempo, 402684
1, 610080, Tempo, 400000
1, 611460, Tempo, 402684
1, 611520, Tempo, 400000
1, 612180, Tempo, 402684
1, 612240, Tempo, 400000
1, 612900, Tempo, 402684
1, 612960, Tempo, 400000
1, 613620, Tempo, 402684
1, 613680, Tempo, 400000
1, 614160, Tempo, 413793
1, 614340, Tempo, 465116
1, 614400, Tempo, 400000
1, 617220, Tempo, 402684
1, 617280, Tempo, 400000
1, 619920, Tempo, 408163
1, 620025, Tempo, 413793
1, 620190, Tempo, 400000
1, 622980, Tempo, 402684
1, 623040, Tempo, 400000
1, 625740, Tempo, 425531
1, 625860, Tempo, 571428
1, 625920, Tempo, 454545
1, 626640, Tempo, 419580
1, 631185, Tempo, 447761
1, 632400, Tempo, 419580
1, 636975, Tempo, 447761
1, 637440, Tempo, 400000
1, 643140, Tempo, 413793
1, 643200, Tempo, 400000
1, 648900, Tempo, 413793
1, 648960, Tempo, 400000
1, 651780, Tempo, 402684
1, 651840, Tempo, 400000
1, 654585, Tempo, 408163
1, 654720, Tempo, 400000
1, 657540, Tempo, 402684
1, 657600, Tempo, 400000
1, 658980, Tempo, 402684
1, 660420, Tempo, 419580
1, 660480, Tempo, 400000
1, 663300, Tempo, 402684
1, 663360, Tempo, 400000
1, 666150, Tempo, 413793
1, 666240, Tempo, 400000
1, 669060, Tempo, 402684
1, 669120, Tempo, 400000
1, 670500, Tempo, 402684
1, 671865, Tempo, 419580
1, 672000, Tempo, 400000
1, 674820, Tempo, 402684
1, 674880, Tempo, 400000
1, 677700, Tempo, 408163
1, 677760, Tempo, 400000
1, 680580, Tempo, 402684
1, 680640, Tempo, 400000
1, 683280, Tempo, 419580
1, 683385, Tempo, 425531
1, 683520, Tempo, 400000
1, 684960, Tempo, 400000
1, 687780, Tempo, 419580
1, 689040, Tempo, 425531
1, 689280, Tempo, 500000
1, 690480, Tempo, 400000
1, 693030, Tempo, 540540
1, 693360, Tempo, 400000
1, 696420, Tempo, 408163
1, 696480, Tempo, 400000
1, 698745, Tempo, 500000
1, 699120, Tempo, 400000
1, 705080, Tempo, 402684
1, 707730, Tempo, 425531
1, 707880, Tempo, 500000
1, 708000, Tempo, 400000
1, 710820, Tempo, 402684
1, 710880, Tempo, 400000
1, 713700, Tempo, 402684
1, 713760, Tempo, 402684
1, 716505, Tempo, 428571
1, 716640, Tempo, 400000
1, 719460, Tempo, 408163
1, 719520, Tempo, 400000
1, 722340, Tempo, 408163
1, 722400, Tempo, 402684
1, 725220, Tempo, 408163
1, 725280, Tempo, 402684
1, 728100, Tempo, 408163
1, 728160, Tempo, 408163
1, 729540, Tempo, 413793
1, 730695, Tempo, 419580
1, 731040, Tempo, 402684
1, 733890, Tempo, 408163
1, 733920, Tempo, 400000
1, 736770, Tempo, 402684
1, 736800, Tempo, 400000
1, 738230, Tempo, 402684
1, 739660, Tempo, 419580
1, 739680, Tempo, 402684
1, 742550, Tempo, 402684
1, 742560, Tempo, 400000
1, 745410, Tempo, 402684
1, 745440, Tempo, 400000
1, 746850, Tempo, 402684
1, 748140, Tempo, 419580
1, 748260, Tempo, 413793
1, 748320, Tempo, 400000
1, 751140, Tempo, 402684
1, 751200, Tempo, 400000
1, 753840, Tempo, 408163
1, 753930, Tempo, 419580
1, 754080, Tempo, 400000
1, 756900, Tempo, 402684
1, 756960, Tempo, 400000
1, 759660, Tempo, 428571
1, 759780, Tempo, 447761
1, 759840, Tempo, 454545
1, 760320, Tempo, 419580
1, 765120, Tempo, 447761
1, 766080, Tempo, 419580
1, 770895, Tempo, 447761
1, 771360, Tempo, 400000
1, 777060, Tempo, 408163
1, 777120, Tempo, 400000
1, 782820, Tempo, 419580
1, 782880, Tempo, 400000
1, 785700, Tempo, 402684
1, 785760, Tempo, 400000
1, 788580, Tempo, 408163
1, 788640, Tempo, 400000
1, 790020, Tempo, 402684
1, 790080, Tempo, 400000
1, 791460, Tempo, 402684
1, 791520, Tempo, 400000
1, 792900, Tempo, 402684
1, 794340, Tempo, 419580
1, 794400, Tempo, 400000
1, 797220, Tempo, 402684
1, 797280, Tempo, 400000
1, 800100, Tempo, 413793
1, 800160, Tempo, 400000
1, 801540, Tempo, 402684
1, 801600, Tempo, 400000
1, 802980, Tempo, 402684
1, 803040, Tempo, 400000
1, 804420, Tempo, 402684
1, 805860, Tempo, 419580
1, 805920, Tempo, 400000
1, 808740, Tempo, 402684
1, 808800, Tempo, 400000
1, 811620, Tempo, 408163
1, 811680, Tempo, 400000
1, 814500, Tempo, 402684
1, 814560, Tempo, 400000
1, 817200, Tempo, 402684
1, 817380, Tempo, 408163
1, 817440, Tempo, 400000
1, 818820, Tempo, 402684
1, 820080, Tempo, 413793
1, 820260, Tempo, 419580
1, 820320, Tempo, 400000
1, 820980, Tempo, 402684
1, 821040, Tempo, 400000
1, 822420, Tempo, 402684
1, 822480, Tempo, 400000
1, 823860, Tempo, 402684
1, 823920, Tempo, 400000
1, 824580, Tempo, 419580
1, 825345, Tempo, 447761
1, 826560, Tempo, 500000
1, 826800, Tempo, 550458
1, 827250, Tempo, 550458
1, 827520, Tempo, 500000
1, 828920, Tempo, 508474
1, 828960, Tempo, 500000
1, 830360, Tempo, 526315
1, 830400, Tempo, 500000
1, 831800, Tempo, 526315
1, 831840, Tempo, 500000
1, 832980, Tempo, 517241
1, 833240, Tempo, 625000
1, 833280, Tempo, 517241
1, 834680, Tempo, 535714
1, 834720, Tempo, 517241
1, 835800, Tempo, 526315
1, 836120, Tempo, 582524
1, 836160, Tempo, 517241
1, 837570, Tempo, 535714
1, 837600, Tempo, 517241
1, 838200, Tempo, 560747
1, 838440, Tempo, 588235
1, 838815, Tempo, 895522
1, 839040, Tempo, 540540
1, 839640, Tempo, 550458
1, 840440, Tempo, 560747
1, 840480, Tempo, 535714
1, 841080, Tempo, 540540
1, 841860, Tempo, 612244
1, 841920, Tempo, 550458
1, 842520, Tempo, 560747
1, 843300, Tempo, 571428
1, 843960, Tempo, 582524
1, 844215, Tempo, 689655
1, 844575, Tempo, 1132075
1, 844800, Tempo, 638297
1, 846120, Tempo, 652173
1, 846920, Tempo, 659340
1, 847140, Tempo, 674157
1, 847380, Tempo, 689655
1, 847440, Tempo, 750000
1, 847605, Tempo, 1500000
1, 847680, Tempo, 625000
1, 848160, Tempo, 335195
1, 850980, Tempo, 352941
1, 851040, Tempo, 337078
1, 853860, Tempo, 408163
1, 854640, Tempo, 465116
1, 855240, Tempo, 413793
1, 855240, End_track
2, 0, Start_track
2, 0, Title_t, "No Name"
2, 0, Control_c, 0, 0, 0
2, 0, Control_c, 0, 32, 0
2, 0, Program_c, 0, 0
2, 0, Control_c, 0, 7, 117
2, 0, Pitch_bend_c, 0, 8192
2, 0, Control_c, 0, 1, 0
2, 0, Control_c, 0, 64, 0
2, 0, Control_c, 0, 93, 28
2, 0, Control_c, 0, 91, 91
2, 0, Control_c, 0, 10, 73
2, 1920, Note_on_c, 0, 67, 59
2, 2880, Note_off_c, 0, 67, 0
2, 2880, Note_on_c, 0, 65, 56
2, 3840, Note_off_c, 0, 65, 0
2, 3840, Note_on_c, 0, 63, 58
2, 5220, Note_off_c, 0, 63, 0
2, 5280, Note_on_c, 0, 63, 53
2, 5640, Note_off_c, 0, 63, 0
2, 5640, Note_on_c, 0, 68, 55
2, 5760, Note_off_c, 0, 68, 0
2, 5760, Note_on_c, 0, 67, 55
2, 6187, Note_off_c, 0, 67, 0
2, 6240, Note_on_c, 0, 67, 57
2, 6600, Note_off_c, 0, 67, 0
2, 6600, Note_on_c, 0, 73, 59
2, 6720, Note_off_c, 0, 73, 0
2, 6720, Note_on_c, 0, 72, 59
2, 7185, Note_off_c, 0, 72, 0
2, 7200, Note_on_c, 0, 72, 58
2, 7320, Note_on_c, 0, 74, 61
2, 7325, Note_off_c, 0, 72, 0
2, 7360, Note_on_c, 0, 72, 62
2, 7370, Note_off_c, 0, 74, 0
2, 7400, Note_on_c, 0, 71, 62
2, 7410, Note_off_c, 0, 72, 0
2, 7440, Note_on_c, 0, 72, 63
2, 7455, Note_off_c, 0, 71, 0
2, 7560, Note_on_c, 0, 74, 65
2, 7565, Note_off_c, 0, 72, 0
2, 7680, Note_off_c, 0, 74, 0
2, 7680, Note_on_c, 0, 75, 68
2, 8400, Note_off_c, 0, 75, 0
2, 8400, Note_on_c, 0, 72, 59
2, 8640, Note_off_c, 0, 72, 0
2, 8640, Note_on_c, 0, 71, 57
2, 9060, Note_off_c, 0, 71, 0
2, 9120, Note_on_c, 0, 79, 59
2, 9360, Note_off_c, 0, 79, 0
2, 9360, Note_on_c, 0, 87, 63
2, 9600, Note_off_c, 0, 87, 0
2, 9600, Note_on_c, 0, 87, 67
2, 10320, Note_off_c, 0, 87, 0
2, 10320, Note_on_c, 0, 84, 63
2, 10560, Note_off_c, 0, 84, 0
2, 10560, Note_on_c, 0, 83, 61
2, 10980, Note_off_c, 0, 83, 0
2, 11040, Note_on_c, 0, 82, 72
2, 11460, Note_off_c, 0, 82, 0
2, 11520, Note_on_c, 0, 82, 80
2, 12610, Note_off_c, 0, 82, 0
2, 12640, Note_on_c, 0, 70, 67
2, 12800, Note_off_c, 0, 70, 0
2, 12800, Note_on_c, 0, 72, 66
2, 12907, Note_off_c, 0, 72, 0
2, 12960, Note_on_c, 0, 69, 66
2, 13087, Note_off_c, 0, 69, 0
2, 13120, Note_on_c, 0, 70, 65
2, 13222, Note_off_c, 0, 70, 0
2, 13280, Note_on_c, 0, 68, 65
2, 13404, Note_off_c, 0, 68, 0
2, 13440, Note_on_c, 0, 67, 64
2, 14400, Note_off_c, 0, 67, 0
2, 14400, Note_on_c, 0, 65, 58
2, 15360, Note_off_c, 0, 65, 0
2, 15360, Note_on_c, 0, 63, 59
2, 16740, Note_off_c, 0, 63, 0
2, 16800, Note_on_c, 0, 66, 55
2, 17160, Note_off_c, 0, 66, 0
2, 17160, Note_on_c, 0, 71, 56
2, 17280, Note_off_c, 0, 71, 0
2, 17280, Note_on_c, 0, 71, 57
2, 17707, Note_off_c, 0, 71, 0
2, 17760, Note_on_c, 0, 70, 59
2, 18120, Note_off_c, 0, 70, 0
2, 18120, Note_on_c, 0, 76, 61
2, 18240, Note_off_c, 0, 76, 0
2, 18240, Note_on_c, 0, 75, 62
2, 18667, Note_off_c, 0, 75, 0
2, 18720, Note_on_c, 0, 75, 57
2, 18840, Note_off_c, 0, 75, 0
2, 18840, Note_on_c, 0, 77, 59
2, 18880, Note_on_c, 0, 75, 60
2, 18890, Note_off_c, 0, 77, 0
2, 18920, Note_on_c, 0, 74, 60
2, 18930, Note_off_c, 0, 75, 0
2, 18960, Note_on_c, 0, 75, 61
2, 18980, Note_off_c, 0, 74, 0
2, 19080, Note_on_c, 0, 77, 63
2, 19085, Note_off_c, 0, 75, 0
2, 19200, Note_off_c, 0, 77, 0
2, 19200, Note_on_c, 0, 78, 69
2, 19920, Note_off_c, 0, 78, 0
2, 19920, Note_on_c, 0, 75, 61
2, 20160, Note_off_c, 0, 75, 0
2, 20160, Note_on_c, 0, 74, 57
2, 20587, Note_off_c, 0, 74, 0
2, 20640, Note_on_c, 0, 73, 57
2, 20760, Note_on_c, 0, 75, 59
2, 20765, Note_off_c, 0, 73, 0
2, 20800, Note_on_c, 0, 73, 59
2, 20820, Note_off_c, 0, 75, 0
2, 20840, Note_on_c, 0, 72, 60
2, 20855, Note_off_c, 0, 73, 0
2, 20880, Note_on_c, 0, 73, 61
2, 20895, Note_off_c, 0, 72, 0
2, 21000, Note_off_c, 0, 73, 0
2, 21000, Note_on_c, 0, 75, 63
2, 21120, Note_on_c, 0, 76, 65
2, 21135, Note_off_c, 0, 75, 0
2, 21840, Note_off_c, 0, 76, 0
2, 21840, Note_on_c, 0, 75, 61
2, 21960, Note_off_c, 0, 75, 0
2, 21960, Note_on_c, 0, 73, 60
2, 22080, Note_off_c, 0, 73, 0
2, 22080, Note_on_c, 0, 71, 59
2, 22507, Note_off_c, 0, 71, 0
2, 22560, Note_on_c, 0, 75, 72
2, 22987, Note_off_c, 0, 75, 0
2, 23040, Note_on_c, 0, 74, 69
2, 23575, Note_off_c, 0, 74, 0
2, 24240, Note_on_c, 0, 74, 59
2, 24480, Note_off_c, 0, 74, 0
2, 24480, Note_on_c, 0, 75, 65
2, 24720, Note_off_c, 0, 75, 0
2, 24720, Note_on_c, 0, 75, 58
2, 24960, Note_off_c, 0, 75, 0
2, 24960, Note_on_c, 0, 77, 51
2, 25440, Note_off_c, 0, 77, 0
2, 26160, Note_on_c, 0, 74, 55
2, 26400, Note_off_c, 0, 74, 0
2, 26400, Note_on_c, 0, 75, 60
2, 26640, Note_off_c, 0, 75, 0
2, 26640, Note_on_c, 0, 75, 54
2, 26880, Note_off_c, 0, 75, 0
2, 26880, Note_on_c, 0, 77, 47
2, 27360, Note_off_c, 0, 77, 0
2, 28080, Note_on_c, 0, 77, 68
2, 28320, Note_off_c, 0, 77, 0
2, 28320, Note_on_c, 0, 79, 74
2, 28560, Note_off_c, 0, 79, 0
2, 28560, Note_on_c, 0, 80, 66
2, 28800, Note_off_c, 0, 80, 0
2, 28800, Note_on_c, 0, 80, 57
2, 29280, Note_off_c, 0, 80, 0
2, 30000, Note_on_c, 0, 77, 55
2, 30240, Note_off_c, 0, 77, 0
2, 30240, Note_on_c, 0, 79, 61
2, 30480, Note_off_c, 0, 79, 0
2, 30480, Note_on_c, 0, 80, 55
2, 30720, Note_off_c, 0, 80, 0
2, 31200, Note_on_c, 0, 80, 48
2, 31200, Note_on_c, 0, 68, 48
2, 31680, Note_off_c, 0, 68, 0
2, 31680, Note_off_c, 0, 80, 0
2, 32160, Note_on_c, 0, 80, 36
2, 32160, Note_on_c, 0, 68, 36
2, 32640, Control_c, 0, 7, 127
2, 32640, Note_off_c, 0, 68, 0
2, 32640, Note_off_c, 0, 80, 0
2, 32640, Note_on_c, 0, 80, 88
2, 34080, Note_off_c, 0, 80, 0
2, 34080, Note_on_c, 0, 74, 78
2, 34320, Note_off_c, 0, 74, 0
2, 34320, Note_on_c, 0, 79, 78
2, 34560, Note_off_c, 0, 79, 0
2, 34560, Note_on_c, 0, 79, 77
2, 35040, Note_off_c, 0, 79, 0
2, 35040, Note_on_c, 0, 72, 76
2, 35280, Note_off_c, 0, 72, 0
2, 35280, Note_on_c, 0, 77, 75
2, 35520, Note_off_c, 0, 77, 0
2, 35520, Note_on_c, 0, 77, 74
2, 36000, Note_off_c, 0, 77, 0
2, 36000, Note_on_c, 0, 70, 73
2, 36240, Note_off_c, 0, 70, 0
2, 36240, Note_on_c, 0, 75, 72
2, 36480, Note_off_c, 0, 75, 0
2, 36480, Note_on_c, 0, 75, 80
2, 37440, Note_off_c, 0, 75, 0
2, 37440, Note_on_c, 0, 74, 67
2, 37920, Note_off_c, 0, 74, 0
2, 37920, Note_on_c, 0, 75, 65
2, 38400, Note_off_c, 0, 75, 0
2, 38400, Note_on_c, 0, 77, 63
2, 38880, Note_off_c, 0, 77, 0
2, 38880, Note_on_c, 0, 79, 62
2, 39360, Note_off_c, 0, 79, 0
2, 39360, Note_on_c, 0, 80, 60
2, 39840, Note_off_c, 0, 80, 0
2, 39840, Note_on_c, 0, 82, 58
2, 40320, Note_off_c, 0, 82, 0
2, 40320, Note_on_c, 0, 79, 66
2, 40560, Note_off_c, 0, 79, 0
2, 41280, Note_on_c, 0, 82, 80
2, 41520, Note_off_c, 0, 82, 0
2, 42240, Note_on_c, 0, 94, 95
2, 43680, Note_off_c, 0, 94, 0
2, 43680, Note_on_c, 0, 82, 95
2, 45600, Note_off_c, 0, 82, 0
2, 45600, Note_on_c, 0, 79, 86
2, 46080, Note_off_c, 0, 79, 0
2, 46080, Note_on_c, 0, 77, 84
2, 46560, Note_off_c, 0, 77, 0
2, 46560, Note_on_c, 0, 74, 82
2, 47040, Note_off_c, 0, 74, 0
2, 47040, Note_on_c, 0, 71, 80
2, 47520, Note_off_c, 0, 71, 0
2, 47520, Note_on_c, 0, 70, 78
2, 48000, Note_off_c, 0, 70, 0
2, 48000, Note_on_c, 0, 70, 76
2, 48240, Note_off_c, 0, 70, 0
2, 48960, Note_on_c, 0, 82, 85
2, 49200, Note_off_c, 0, 82, 0
2, 49920, Note_on_c, 0, 94, 94
2, 51360, Note_off_c, 0, 94, 0
2, 51360, Note_on_c, 0, 82, 95
2, 53280, Note_off_c, 0, 82, 0
2, 53280, Note_on_c, 0, 79, 90
2, 53760, Note_off_c, 0, 79, 0
2, 53760, Note_on_c, 0, 76, 87
2, 54240, Note_off_c, 0, 76, 0
2, 54240, Note_on_c, 0, 77, 83
2, 54720, Note_off_c, 0, 77, 0
2, 54720, Note_on_c, 0, 72, 80
2, 55200, Note_off_c, 0, 72, 0
2, 55200, Note_on_c, 0, 75, 77
2, 55680, Note_off_c, 0, 75, 0
2, 55680, Note_on_c, 0, 74, 72
2, 55920, Note_off_c, 0, 74, 0
2, 55920, Note_on_c, 0, 70, 66
2, 56160, Note_off_c, 0, 70, 0
2, 56160, Note_on_c, 0, 69, 66
2, 56400, Note_off_c, 0, 69, 0
2, 56400, Note_on_c, 0, 70, 67
2, 56640, Note_off_c, 0, 70, 0
2, 56640, Note_on_c, 0, 72, 67
2, 56880, Note_off_c, 0, 72, 0
2, 56880, Note_on_c, 0, 74, 67
2, 57120, Note_off_c, 0, 74, 0
2, 57120, Note_on_c, 0, 75, 68
2, 57360, Note_off_c, 0, 75, 0
2, 57360, Note_on_c, 0, 77, 68
2, 57600, Note_off_c, 0, 77, 0
2, 57600, Note_on_c, 0, 79, 69
2, 58560, Note_off_c, 0, 79, 0
2, 58560, Note_on_c, 0, 84, 71
2, 58800, Note_off_c, 0, 84, 0
2, 58800, Note_on_c, 0, 82, 71
2, 59040, Note_off_c, 0, 82, 0
2, 59040, Note_on_c, 0, 80, 71
2, 59280, Note_off_c, 0, 80, 0
2, 59280, Note_on_c, 0, 79, 72
2, 59520, Note_off_c, 0, 79, 0
2, 59520, Note_on_c, 0, 77, 72
2, 60000, Note_off_c, 0, 77, 0
2, 60480, Note_on_c, 0, 96, 74
2, 60720, Note_off_c, 0, 96, 0
2, 60720, Note_on_c, 0, 94, 75
2, 60960, Note_off_c, 0, 94, 0
2, 60960, Note_on_c, 0, 92, 75
2, 61200, Note_off_c, 0, 92, 0
2, 61200, Note_on_c, 0, 91, 75
2, 61440, Note_off_c, 0, 91, 0
2, 61440, Note_on_c, 0, 89, 76
2, 61920, Note_off_c, 0, 89, 0
2, 61920, Note_on_c, 0, 84, 77
2, 62160, Note_off_c, 0, 84, 0
2, 62160, Note_on_c, 0, 82, 77
2, 62400, Note_off_c, 0, 82, 0
2, 62400, Note_on_c, 0, 80, 78
2, 62640, Note_off_c, 0, 80, 0
2, 62640, Note_on_c, 0, 79, 78
2, 62795, Note_off_c, 0, 79, 0
2, 62880, Note_on_c, 0, 77, 78
2, 63035, Note_off_c, 0, 77, 0
2, 63120, Note_on_c, 0, 78, 79
2, 63275, Note_off_c, 0, 78, 0
2, 63360, Note_on_c, 0, 79, 78
2, 63515, Note_off_c, 0, 79, 0
2, 63600, Note_on_c, 0, 81, 81
2, 63755, Note_off_c, 0, 81, 0
2, 63840, Note_on_c, 0, 83, 85
2, 63995, Note_off_c, 0, 83, 0
2, 64080, Note_on_c, 0, 83, 88
2, 64235, Note_off_c, 0, 83, 0
2, 64320, Note_on_c, 0, 84, 92
2, 64475, Note_off_c, 0, 84, 0
2, 64560, Note_on_c, 0, 86, 95
2, 64715, Note_off_c, 0, 86, 0
2, 64800, Note_on_c, 0, 87, 98
2, 64955, Note_off_c, 0, 87, 0
2, 65040, Note_on_c, 0, 88, 102
2, 65195, Note_off_c, 0, 88, 0
2, 65280, Note_on_c, 0, 88, 105
2, 65640, Note_off_c, 0, 88, 0
2, 66240, Note_on_c, 0, 89, 104
2, 66600, Note_off_c, 0, 89, 0
2, 67200, Note_on_c, 0, 75, 97
2, 68640, Note_off_c, 0, 75, 0
2, 68640, Note_on_c, 0, 77, 87
2, 68950, Note_off_c, 0, 77, 0
2, 69120, Note_on_c, 0, 78, 95
2, 70370, Note_off_c, 0, 78, 0
2, 71040, Note_on_c, 0, 75, 87
2, 72480, Note_off_c, 0, 75, 0
2, 72480, Note_on_c, 0, 77, 78
2, 72790, Note_off_c, 0, 77, 0
2, 72960, Note_on_c, 0, 79, 84
2, 74880, Note_off_c, 0, 79, 0
2, 74880, Note_on_c, 0, 78, 65
2, 75247, Note_off_c, 0, 78, 0
2, 76800, Note_on_c, 0, 77, 64
2, 77160, Note_off_c, 0, 77, 0
2, 78720, Note_on_c, 0, 77, 63
2, 79080, Note_off_c, 0, 77, 0
2, 79680, Note_on_c, 0, 77, 63
2, 80040, Note_off_c, 0, 77, 0
2, 80640, Note_on_c, 0, 77, 62
2, 81000, Note_off_c, 0, 77, 0
2, 81600, Note_on_c, 0, 77, 62
2, 81960, Note_off_c, 0, 77, 0
2, 82560, Note_on_c, 0, 78, 61
2, 82920, Note_off_c, 0, 78, 0
2, 84480, Note_on_c, 0, 77, 60
2, 84840, Note_off_c, 0, 77, 0
2, 86400, Note_on_c, 0, 77, 59
2, 86760, Note_off_c, 0, 77, 0
2, 87360, Note_on_c, 0, 77, 59
2, 87720, Note_off_c, 0, 77, 0
2, 88320, Note_on_c, 0, 77, 58
2, 88680, Note_off_c, 0, 77, 0
2, 89280, Note_on_c, 0, 77, 58
2, 89760, Note_off_c, 0, 77, 0
2, 89760, Note_on_c, 0, 75, 57
2, 90720, Note_off_c, 0, 75, 0
2, 90720, Note_on_c, 0, 74, 57
2, 91200, Note_off_c, 0, 74, 0
2, 91200, Note_on_c, 0, 72, 57
2, 91585, Note_off_c, 0, 72, 0
2, 91680, Note_on_c, 0, 87, 68
2, 92640, Note_off_c, 0, 87, 0
2, 92640, Note_on_c, 0, 86, 61
2, 93120, Note_off_c, 0, 86, 0
2, 93120, Note_on_c, 0, 84, 60
2, 93505, Note_off_c, 0, 84, 0
2, 93600, Note_on_c, 0, 91, 80
2, 94560, Note_off_c, 0, 91, 0
2, 94560, Note_on_c, 0, 89, 75
2, 95520, Note_off_c, 0, 89, 0
2, 95520, Note_on_c, 0, 87, 74
2, 96000, Note_off_c, 0, 87, 0
2, 96000, Note_on_c, 0, 86, 73
2, 97920, Note_off_c, 0, 86, 0
2, 97920, Note_on_c, 0, 84, 72
2, 99840, Note_off_c, 0, 84, 0
2, 99840, Note_on_c, 0, 82, 70
2, 100800, Note_off_c, 0, 82, 0
2, 100800, Note_on_c, 0, 79, 69
2, 101280, Note_off_c, 0, 79, 0
2, 101280, Note_on_c, 0, 77, 69
2, 101760, Note_off_c, 0, 77, 0
2, 101760, Note_on_c, 0, 77, 69
2, 102240, Note_off_c, 0, 77, 0
2, 102240, Note_on_c, 0, 75, 68
2, 102720, Note_off_c, 0, 75, 0
2, 102720, Note_on_c, 0, 74, 68
2, 103200, Note_off_c, 0, 74, 0
2, 103200, Note_on_c, 0, 72, 67
2, 103680, Note_off_c, 0, 72, 0
2, 103680, Note_on_c, 0, 74, 67
2, 105600, Note_off_c, 0, 74, 0
2, 105600, Note_on_c, 0, 72, 65
2, 107520, Note_off_c, 0, 72, 0
2, 107520, Note_on_c, 0, 70, 64
2, 108480, Note_off_c, 0, 70, 0
2, 108480, Note_on_c, 0, 67, 63
2, 108960, Note_off_c, 0, 67, 0
2, 108960, Note_on_c, 0, 65, 63
2, 109440, Note_off_c, 0, 65, 0
2, 109440, Note_on_c, 0, 65, 62
2, 109920, Note_off_c, 0, 65, 0
2, 109920, Note_on_c, 0, 63, 62
2, 110400, Note_off_c, 0, 63, 0
2, 110400, Note_on_c, 0, 62, 61
2, 110880, Note_off_c, 0, 62, 0
2, 110880, Note_on_c, 0, 60, 61
2, 111360, Note_off_c, 0, 60, 0
2, 111360, Note_on_c, 0, 58, 60
2, 112560, Note_off_c, 0, 58, 0
2, 112560, Note_on_c, 0, 53, 59
2, 112800, Note_off_c, 0, 53, 0
2, 112800, Note_on_c, 0, 50, 59
2, 113040, Note_off_c, 0, 50, 0
2, 113040, Note_on_c, 0, 58, 59
2, 113520, Note_off_c, 0, 58, 0
2, 113520, Note_on_c, 0, 58, 59
2, 113760, Note_off_c, 0, 58, 0
2, 113760, Note_on_c, 0, 57, 58
2, 114000, Note_off_c, 0, 57, 0
2, 114000, Note_on_c, 0, 58, 58
2, 114240, Note_off_c, 0, 58, 0
2, 114240, Note_on_c, 0, 60, 58
2, 114480, Note_off_c, 0, 60, 0
2, 114480, Note_on_c, 0, 62, 58
2, 114720, Note_off_c, 0, 62, 0
2, 114720, Note_on_c, 0, 63, 58
2, 114960, Note_off_c, 0, 63, 0
2, 114960, Note_on_c, 0, 60, 57
2, 115200, Note_off_c, 0, 60, 0
2, 115200, Note_on_c, 0, 70, 57
2, 116400, Note_off_c, 0, 70, 0
2, 116400, Note_on_c, 0, 65, 56
2, 116640, Note_off_c, 0, 65, 0
2, 116640, Note_on_c, 0, 62, 56
2, 116880, Note_off_c, 0, 62, 0
2, 116880, Note_on_c, 0, 70, 56
2, 117360, Note_off_c, 0, 70, 0
2, 117360, Note_on_c, 0, 70, 55
2, 117600, Note_off_c, 0, 70, 0
2, 117600, Note_on_c, 0, 69, 55
2, 117840, Note_off_c, 0, 69, 0
2, 117840, Note_on_c, 0, 70, 55
2, 118080, Note_off_c, 0, 70, 0
2, 118080, Note_on_c, 0, 72, 55
2, 118320, Note_off_c, 0, 72, 0
2, 118320, Note_on_c, 0, 74, 55
2, 118560, Note_off_c, 0, 74, 0
2, 118560, Note_on_c, 0, 75, 54
2, 118800, Note_off_c, 0, 75, 0
2, 118800, Note_on_c, 0, 72, 54
2, 119040, Note_off_c, 0, 72, 0
2, 119040, Note_on_c, 0, 74, 54
2, 119280, Note_off_c, 0, 74, 0
2, 119280, Note_on_c, 0, 72, 54
2, 119520, Note_off_c, 0, 72, 0
2, 119520, Note_on_c, 0, 70, 54
2, 120240, Note_off_c, 0, 70, 0
2, 120240, Note_on_c, 0, 67, 53
2, 120480, Note_off_c, 0, 67, 0
2, 120480, Note_on_c, 0, 65, 53
2, 121200, Note_off_c, 0, 65, 0
2, 121200, Note_on_c, 0, 63, 52
2, 121440, Note_off_c, 0, 63, 0
2, 121440, Note_on_c, 0, 62, 52
2, 122160, Note_off_c, 0, 62, 0
2, 122160, Note_on_c, 0, 60, 51
2, 122400, Note_off_c, 0, 60, 0
2, 122400, Note_on_c, 0, 58, 51
2, 123120, Note_off_c, 0, 58, 0
2, 123120, Note_on_c, 0, 55, 51
2, 123360, Note_off_c, 0, 55, 0
2, 123360, Note_on_c, 0, 53, 50
2, 124080, Note_off_c, 0, 53, 0
2, 124080, Note_on_c, 0, 51, 50
2, 124320, Note_off_c, 0, 51, 0
2, 124320, Note_on_c, 0, 50, 50
2, 125040, Note_off_c, 0, 50, 0
2, 125040, Note_on_c, 0, 48, 49
2, 125280, Note_off_c, 0, 48, 0
2, 125280, Note_on_c, 0, 46, 49
2, 126000, Note_off_c, 0, 46, 0
2, 126000, Note_on_c, 0, 48, 48
2, 126240, Note_off_c, 0, 48, 0
2, 126240, Note_on_c, 0, 46, 48
2, 127200, Note_off_c, 0, 46, 0
2, 130560, Note_on_c, 0, 77, 48
2, 132480, Note_off_c, 0, 77, 0
2, 132480, Note_on_c, 0, 80, 46
2, 134400, Note_off_c, 0, 80, 0
2, 134400, Note_on_c, 0, 79, 88
2, 135840, Note_off_c, 0, 79, 0
2, 135840, Note_on_c, 0, 74, 82
2, 136080, Note_off_c, 0, 74, 0
2, 136080, Note_on_c, 0, 79, 81
2, 136320, Note_off_c, 0, 79, 0
2, 136320, Note_on_c, 0, 79, 81
2, 136680, Note_off_c, 0, 79, 0
2, 136800, Note_on_c, 0, 72, 80
2, 137040, Note_off_c, 0, 72, 0
2, 137040, Note_on_c, 0, 77, 79
2, 137280, Note_off_c, 0, 77, 0
2, 137280, Note_on_c, 0, 77, 79
2, 137640, Note_off_c, 0, 77, 0
2, 137760, Note_on_c, 0, 72, 78
2, 138000, Note_off_c, 0, 72, 0
2, 138000, Note_on_c, 0, 75, 77
2, 138240, Note_off_c, 0, 75, 0
2, 138240, Note_on_c, 0, 75, 77
2, 138600, Note_off_c, 0, 75, 0
2, 138720, Note_on_c, 0, 69, 76
2, 138960, Note_off_c, 0, 69, 0
2, 138960, Note_on_c, 0, 74, 76
2, 139200, Note_off_c, 0, 74, 0
2, 139200, Note_on_c, 0, 74, 75
2, 139560, Note_off_c, 0, 74, 0
2, 139680, Note_on_c, 0, 79, 74
2, 139920, Note_off_c, 0, 79, 0
2, 139920, Note_on_c, 0, 84, 74
2, 140160, Note_off_c, 0, 84, 0
2, 140160, Note_on_c, 0, 65, 65
2, 142080, Note_off_c, 0, 65, 0
2, 142080, Note_on_c, 0, 63, 65
2, 144000, Note_off_c, 0, 63, 0
2, 144000, Note_on_c, 0, 75, 64
2, 147360, Note_off_c, 0, 75, 0
2, 147360, Note_on_c, 0, 73, 63
2, 147720, Note_off_c, 0, 73, 0
2, 147840, Note_on_c, 0, 73, 63
2, 149760, Note_off_c, 0, 73, 0
2, 149760, Note_on_c, 0, 72, 63
2, 151680, Note_off_c, 0, 72, 0
2, 151680, Note_on_c, 0, 81, 62
2, 155520, Note_off_c, 0, 81, 0
2, 155520, Note_on_c, 0, 72, 61
2, 157440, Note_off_c, 0, 72, 0
2, 157440, Note_on_c, 0, 71, 60
2, 159360, Note_off_c, 0, 71, 0
2, 159360, Note_on_c, 0, 81, 60
2, 163200, Note_off_c, 0, 81, 0
2, 163200, Note_on_c, 0, 71, 59
2, 165120, Note_off_c, 0, 71, 0
2, 165120, Note_on_c, 0, 70, 58
2, 167040, Note_off_c, 0, 70, 0
2, 167040, Note_on_c, 0, 80, 57
2, 169320, Note_off_c, 0, 80, 0
2, 169440, Note_on_c, 0, 82, 63
2, 169920, Note_off_c, 0, 82, 0
2, 169920, Note_on_c, 0, 83, 75
2, 170400, Note_off_c, 0, 83, 0
2, 170400, Note_on_c, 0, 82, 69
2, 170880, Note_off_c, 0, 82, 0
2, 170880, Note_on_c, 0, 80, 64
2, 173160, Note_off_c, 0, 80, 0
2, 173280, Note_on_c, 0, 82, 77
2, 173760, Note_off_c, 0, 82, 0
2, 173760, Note_on_c, 0, 83, 81
2, 174240, Note_off_c, 0, 83, 0
2, 174240, Note_on_c, 0, 82, 86
2, 174720, Note_off_c, 0, 82, 0
2, 174720, Note_on_c, 0, 87, 93
2, 176160, Note_off_c, 0, 87, 0
2, 176160, Note_on_c, 0, 80, 90
2, 176400, Note_off_c, 0, 80, 0
2, 176400, Note_on_c, 0, 85, 88
2, 176640, Note_off_c, 0, 85, 0
2, 176640, Note_on_c, 0, 85, 87
2, 177000, Note_off_c, 0, 85, 0
2, 177120, Note_on_c, 0, 77, 85
2, 177360, Note_off_c, 0, 77, 0
2, 177360, Note_on_c, 0, 83, 83
2, 177600, Note_off_c, 0, 83, 0
2, 177600, Note_on_c, 0, 83, 81
2, 178080, Note_off_c, 0, 83, 0
2, 178080, Note_on_c, 0, 82, 78
2, 178560, Note_off_c, 0, 82, 0
2, 178560, Note_on_c, 0, 80, 75
2, 179040, Note_off_c, 0, 80, 0
2, 179040, Note_on_c, 0, 78, 72
2, 179520, Note_off_c, 0, 78, 0
2, 179520, Note_on_c, 0, 77, 69
2, 180000, Note_off_c, 0, 77, 0
2, 180000, Note_on_c, 0, 78, 66
2, 180480, Note_off_c, 0, 78, 0
2, 180480, Note_on_c, 0, 80, 63
2, 182400, Note_off_c, 0, 80, 0
2, 182400, Note_on_c, 0, 80, 62
2, 184320, Note_off_c, 0, 80, 0
2, 184320, Note_on_c, 0, 79, 61
2, 186240, Note_off_c, 0, 79, 0
2, 186240, Note_on_c, 0, 77, 59
2, 188160, Note_off_c, 0, 77, 0
2, 188160, Note_on_c, 0, 75, 58
2, 190080, Note_off_c, 0, 75, 0
2, 190080, Note_on_c, 0, 74, 57
2, 192000, Note_off_c, 0, 74, 0
2, 192000, Note_on_c, 0, 72, 55
2, 193920, Note_off_c, 0, 72, 0
2, 193920, Note_on_c, 0, 68, 54
2, 195840, Note_off_c, 0, 68, 0
2, 195840, Note_on_c, 0, 67, 52
2, 197760, Note_off_c, 0, 67, 0
2, 197760, Note_on_c, 0, 68, 51
2, 199680, Note_off_c, 0, 68, 0
2, 199680, Note_on_c, 0, 68, 50
2, 201600, Note_off_c, 0, 68, 0
2, 201600, Note_on_c, 0, 68, 48
2, 203520, Note_off_c, 0, 68, 0
2, 203520, Note_on_c, 0, 68, 47
2, 205440, Note_off_c, 0, 68, 0
2, 205440, Note_on_c, 0, 68, 45
2, 207360, Note_off_c, 0, 68, 0
2, 207360, Note_on_c, 0, 68, 44
2, 208800, Note_off_c, 0, 68, 0
2, 208800, Note_on_c, 0, 56, 58
2, 209040, Note_off_c, 0, 56, 0
2, 209040, Note_on_c, 0, 68, 61
2, 209280, Note_off_c, 0, 68, 0
2, 209280, Note_on_c, 0, 56, 65
2, 209520, Note_off_c, 0, 56, 0
2, 209520, Note_on_c, 0, 68, 68
2, 209760, Note_off_c, 0, 68, 0
2, 209760, Note_on_c, 0, 68, 71
2, 210000, Note_off_c, 0, 68, 0
2, 210000, Note_on_c, 0, 80, 74
2, 210240, Note_off_c, 0, 80, 0
2, 210240, Note_on_c, 0, 68, 78
2, 210480, Note_off_c, 0, 68, 0
2, 210480, Note_on_c, 0, 80, 81
2, 210720, Note_off_c, 0, 80, 0
2, 210720, Note_on_c, 0, 68, 84
2, 210960, Note_off_c, 0, 68, 0
2, 210960, Note_on_c, 0, 80, 88
2, 211200, Note_off_c, 0, 80, 0
2, 211200, Note_on_c, 0, 80, 91
2, 212640, Note_off_c, 0, 80, 0
2, 212640, Note_on_c, 0, 74, 82
2, 212880, Note_off_c, 0, 74, 0
2, 212880, Note_on_c, 0, 79, 81
2, 213120, Note_off_c, 0, 79, 0
2, 213120, Note_on_c, 0, 79, 80
2, 213600, Note_off_c, 0, 79, 0
2, 213600, Note_on_c, 0, 72, 77
2, 213840, Note_off_c, 0, 72, 0
2, 213840, Note_on_c, 0, 77, 76
2, 214080, Note_off_c, 0, 77, 0
2, 214080, Note_on_c, 0, 77, 75
2, 214560, Note_off_c, 0, 77, 0
2, 214560, Note_on_c, 0, 70, 72
2, 214800, Note_off_c, 0, 70, 0
2, 214800, Note_on_c, 0, 75, 71
2, 215040, Note_off_c, 0, 75, 0
2, 215040, Note_on_c, 0, 75, 70
2, 216000, Note_off_c, 0, 75, 0
2, 216000, Note_on_c, 0, 74, 67
2, 216480, Note_off_c, 0, 74, 0
2, 216480, Note_on_c, 0, 75, 67
2, 216960, Note_off_c, 0, 75, 0
2, 216960, Note_on_c, 0, 77, 67
2, 217440, Note_off_c, 0, 77, 0
2, 217440, Note_on_c, 0, 79, 67
2, 217920, Note_off_c, 0, 79, 0
2, 217920, Note_on_c, 0, 80, 67
2, 218400, Note_off_c, 0, 80, 0
2, 218400, Note_on_c, 0, 82, 67
2, 218880, Note_off_c, 0, 82, 0
2, 218880, Note_on_c, 0, 79, 68
2, 219120, Note_off_c, 0, 79, 0
2, 219840, Note_on_c, 0, 82, 81
2, 220080, Note_off_c, 0, 82, 0
2, 220800, Note_on_c, 0, 94, 95
2, 222240, Note_off_c, 0, 94, 0
2, 222240, Note_on_c, 0, 82, 95
2, 224160, Note_off_c, 0, 82, 0
2, 224160, Note_on_c, 0, 79, 83
2, 224640, Note_off_c, 0, 79, 0
2, 224640, Note_on_c, 0, 77, 80
2, 225120, Note_off_c, 0, 77, 0
2, 225120, Note_on_c, 0, 74, 78
2, 225600, Note_off_c, 0, 74, 0
2, 225600, Note_on_c, 0, 71, 75
2, 226080, Note_off_c, 0, 71, 0
2, 226080, Note_on_c, 0, 70, 73
2, 226560, Note_off_c, 0, 70, 0
2, 226560, Note_on_c, 0, 70, 70
2, 226800, Note_off_c, 0, 70, 0
2, 227520, Note_on_c, 0, 82, 80
2, 227760, Note_off_c, 0, 82, 0
2, 228480, Note_on_c, 0, 94, 95
2, 229920, Note_off_c, 0, 94, 0
2, 229920, Note_on_c, 0, 82, 95
2, 231840, Note_off_c, 0, 82, 0
2, 231840, Note_on_c, 0, 79, 86
2, 232320, Note_off_c, 0, 79, 0
2, 232320, Note_on_c, 0, 76, 84
2, 232800, Note_off_c, 0, 76, 0
2, 232800, Note_on_c, 0, 77, 83
2, 233280, Note_off_c, 0, 77, 0
2, 233280, Note_on_c, 0, 72, 81
2, 233760, Note_off_c, 0, 72, 0
2, 233760, Note_on_c, 0, 75, 79
2, 234240, Note_off_c, 0, 75, 0
2, 234240, Note_on_c, 0, 74, 76
2, 234480, Note_off_c, 0, 74, 0
2, 234480, Note_on_c, 0, 70, 76
2, 234720, Note_off_c, 0, 70, 0
2, 234720, Note_on_c, 0, 69, 76
2, 234960, Note_off_c, 0, 69, 0
2, 234960, Note_on_c, 0, 70, 77
2, 235200, Note_off_c, 0, 70, 0
2, 235200, Note_on_c, 0, 72, 77
2, 235440, Note_off_c, 0, 72, 0
2, 235440, Note_on_c, 0, 74, 77
2, 235680, Note_off_c, 0, 74, 0
2, 235680, Note_on_c, 0, 75, 78
2, 235920, Note_off_c, 0, 75, 0
2, 235920, Note_on_c, 0, 77, 78
2, 236160, Note_off_c, 0, 77, 0
2, 236160, Note_on_c, 0, 79, 78
2, 237120, Note_off_c, 0, 79, 0
2, 237120, Note_on_c, 0, 84, 80
2, 237360, Note_off_c, 0, 84, 0
2, 237360, Note_on_c, 0, 82, 80
2, 237600, Note_off_c, 0, 82, 0
2, 237600, Note_on_c, 0, 80, 80
2, 237840, Note_off_c, 0, 80, 0
2, 237840, Note_on_c, 0, 79, 81
2, 238080, Note_off_c, 0, 79, 0
2, 238080, Note_on_c, 0, 77, 81
2, 238560, Note_off_c, 0, 77, 0
2, 238560, Note_on_c, 0, 80, 81
2, 238800, Note_off_c, 0, 80, 0
2, 238800, Note_on_c, 0, 79, 82
2, 239040, Note_off_c, 0, 79, 0
2, 239040, Note_on_c, 0, 77, 82
2, 239195, Note_off_c, 0, 77, 0
2, 239280, Note_on_c, 0, 78, 82
2, 239435, Note_off_c, 0, 78, 0
2, 239520, Note_on_c, 0, 79, 83
2, 239675, Note_off_c, 0, 79, 0
2, 239760, Note_on_c, 0, 81, 82
2, 239915, Note_off_c, 0, 81, 0
2, 240000, Note_on_c, 0, 83, 84
2, 240155, Note_off_c, 0, 83, 0
2, 240240, Note_on_c, 0, 83, 86
2, 240395, Note_off_c, 0, 83, 0
2, 240480, Note_on_c, 0, 84, 88
2, 240635, Note_off_c, 0, 84, 0
2, 240720, Note_on_c, 0, 86, 90
2, 240875, Note_off_c, 0, 86, 0
2, 240960, Note_on_c, 0, 87, 92
2, 240960, Note_on_c, 0, 84, 92
2, 241115, Note_off_c, 0, 84, 0
2, 241115, Note_off_c, 0, 87, 0
2, 241200, Note_on_c, 0, 88, 93
2, 241355, Note_off_c, 0, 88, 0
2, 241440, Note_on_c, 0, 89, 95
2, 241595, Note_off_c, 0, 89, 0
2, 241680, Note_on_c, 0, 89, 97
2, 241835, Note_off_c, 0, 89, 0
2, 241920, Note_on_c, 0, 86, 99
2, 242287, Note_off_c, 0, 86, 0
2, 242880, Note_on_c, 0, 87, 101
2, 243240, Note_off_c, 0, 87, 0
2, 243840, Note_on_c, 0, 68, 95
2, 245280, Note_off_c, 0, 68, 0
2, 245280, Note_on_c, 0, 70, 79
2, 245590, Note_off_c, 0, 70, 0
2, 245760, Note_on_c, 0, 71, 95
2, 247010, Note_off_c, 0, 71, 0
2, 247680, Note_on_c, 0, 68, 88
2, 249120, Note_off_c, 0, 68, 0
2, 249120, Note_on_c, 0, 70, 79
2, 249430, Note_off_c, 0, 70, 0
2, 249600, Note_on_c, 0, 72, 90
2, 251520, Note_off_c, 0, 72, 0
2, 251520, Note_on_c, 0, 71, 71
2, 251880, Note_off_c, 0, 71, 0
2, 253440, Note_on_c, 0, 70, 69
2, 253800, Note_off_c, 0, 70, 0
2, 255360, Note_on_c, 0, 70, 67
2, 255720, Note_off_c, 0, 70, 0
2, 256320, Note_on_c, 0, 70, 67
2, 256680, Note_off_c, 0, 70, 0
2, 257280, Note_on_c, 0, 70, 66
2, 257640, Note_off_c, 0, 70, 0
2, 258240, Note_on_c, 0, 70, 65
2, 258600, Note_off_c, 0, 70, 0
2, 259200, Note_on_c, 0, 83, 69
2, 259560, Note_off_c, 0, 83, 0
2, 261120, Note_on_c, 0, 82, 66
2, 261480, Note_off_c, 0, 82, 0
2, 263040, Note_on_c, 0, 82, 63
2, 263400, Note_off_c, 0, 82, 0
2, 264000, Note_on_c, 0, 82, 62
2, 264360, Note_off_c, 0, 82, 0
2, 264960, Note_on_c, 0, 82, 60
2, 265320, Note_off_c, 0, 82, 0
2, 265920, Note_on_c, 0, 82, 59
2, 266400, Note_off_c, 0, 82, 0
2, 266400, Note_on_c, 0, 80, 58
2, 267360, Note_off_c, 0, 80, 0
2, 267360, Note_on_c, 0, 79, 56
2, 267840, Note_off_c, 0, 79, 0
2, 267840, Note_on_c, 0, 77, 63
2, 268225, Note_off_c, 0, 77, 0
2, 268320, Note_on_c, 0, 92, 62
2, 269280, Note_off_c, 0, 92, 0
2, 269280, Note_on_c, 0, 91, 59
2, 269760, Note_off_c, 0, 91, 0
2, 269760, Note_on_c, 0, 89, 58
2, 270145, Note_off_c, 0, 89, 0
2, 270240, Note_on_c, 0, 96, 73
2, 271200, Note_off_c, 0, 96, 0
2, 271200, Note_on_c, 0, 94, 71
2, 272160, Note_off_c, 0, 94, 0
2, 272160, Note_on_c, 0, 92, 68
2, 272640, Note_off_c, 0, 92, 0
2, 272640, Note_on_c, 0, 91, 68
2, 274560, Note_off_c, 0, 91, 0
2, 274560, Note_on_c, 0, 89, 68
2, 276480, Note_off_c, 0, 89, 0
2, 276480, Note_on_c, 0, 87, 67
2, 277440, Note_off_c, 0, 87, 0
2, 277440, Note_on_c, 0, 84, 66
2, 277920, Note_off_c, 0, 84, 0
2, 277920, Note_on_c, 0, 82, 66
2, 278400, Note_off_c, 0, 82, 0
2, 278400, Note_on_c, 0, 82, 66
2, 278880, Note_off_c, 0, 82, 0
2, 278880, Note_on_c, 0, 80, 66
2, 279360, Note_off_c, 0, 80, 0
2, 279360, Note_on_c, 0, 79, 65
2, 279840, Note_off_c, 0, 79, 0
2, 279840, Note_on_c, 0, 77, 65
2, 280320, Note_off_c, 0, 77, 0
2, 280320, Note_on_c, 0, 79, 65
2, 282240, Note_off_c, 0, 79, 0
2, 282240, Note_on_c, 0, 77, 64
2, 284160, Note_off_c, 0, 77, 0
2, 284160, Note_on_c, 0, 75, 63
2, 285120, Note_off_c, 0, 75, 0
2, 285120, Note_on_c, 0, 72, 63
2, 285600, Note_off_c, 0, 72, 0
2, 285600, Note_on_c, 0, 70, 63
2, 286080, Note_off_c, 0, 70, 0
2, 286080, Note_on_c, 0, 70, 62
2, 286560, Note_off_c, 0, 70, 0
2, 286560, Note_on_c, 0, 68, 62
2, 287040, Note_off_c, 0, 68, 0
2, 287040, Note_on_c, 0, 67, 62
2, 287520, Note_off_c, 0, 67, 0
2, 287520, Note_on_c, 0, 65, 62
2, 288000, Note_off_c, 0, 65, 0
2, 288000, Note_on_c, 0, 63, 62
2, 289200, Note_off_c, 0, 63, 0
2, 289200, Note_on_c, 0, 58, 61
2, 289440, Note_off_c, 0, 58, 0
2, 289440, Note_on_c, 0, 55, 61
2, 289680, Note_off_c, 0, 55, 0
2, 289680, Note_on_c, 0, 63, 61
2, 290160, Note_off_c, 0, 63, 0
2, 290160, Note_on_c, 0, 63, 61
2, 290400, Note_off_c, 0, 63, 0
2, 290400, Note_on_c, 0, 62, 60
2, 290640, Note_off_c, 0, 62, 0
2, 290640, Note_on_c, 0, 63, 60
2, 290880, Note_off_c, 0, 63, 0
2, 290880, Note_on_c, 0, 65, 60
2, 291120, Note_off_c, 0, 65, 0
2, 291120, Note_on_c, 0, 67, 60
2, 291360, Note_off_c, 0, 67, 0
2, 291360, Note_on_c, 0, 68, 60
2, 291600, Note_off_c, 0, 68, 0
2, 291600, Note_on_c, 0, 65, 60
2, 291840, Note_off_c, 0, 65, 0
2, 291840, Note_on_c, 0, 75, 60
2, 293040, Note_off_c, 0, 75, 0
2, 293040, Note_on_c, 0, 70, 59
2, 293280, Note_off_c, 0, 70, 0
2, 293280, Note_on_c, 0, 67, 59
2, 293520, Note_off_c, 0, 67, 0
2, 293520, Note_on_c, 0, 75, 59
2, 294000, Note_off_c, 0, 75, 0
2, 294000, Note_on_c, 0, 75, 59
2, 294240, Note_off_c, 0, 75, 0
2, 294240, Note_on_c, 0, 74, 59
2, 294480, Note_off_c, 0, 74, 0
2, 294480, Note_on_c, 0, 75, 59
2, 294720, Note_off_c, 0, 75, 0
2, 294720, Note_on_c, 0, 77, 59
2, 294960, Note_off_c, 0, 77, 0
2, 294960, Note_on_c, 0, 79, 58
2, 295200, Note_off_c, 0, 79, 0
2, 295200, Note_on_c, 0, 80, 58
2, 295440, Note_off_c, 0, 80, 0
2, 295440, Note_on_c, 0, 77, 58
2, 295680, Note_off_c, 0, 77, 0
2, 295680, Note_on_c, 0, 79, 58
2, 295920, Note_off_c, 0, 79, 0
2, 295920, Note_on_c, 0, 77, 59
2, 296160, Note_off_c, 0, 77, 0
2, 296160, Note_on_c, 0, 75, 59
2, 296880, Note_off_c, 0, 75, 0
2, 296880, Note_on_c, 0, 72, 58
2, 297120, Note_off_c, 0, 72, 0
2, 297120, Note_on_c, 0, 70, 58
2, 297840, Note_off_c, 0, 70, 0
2, 297840, Note_on_c, 0, 68, 57
2, 298080, Note_off_c, 0, 68, 0
2, 298080, Note_on_c, 0, 67, 57
2, 298800, Note_off_c, 0, 67, 0
2, 298800, Note_on_c, 0, 65, 56
2, 299040, Note_off_c, 0, 65, 0
2, 299040, Note_on_c, 0, 63, 56
2, 299760, Note_off_c, 0, 63, 0
2, 299760, Note_on_c, 0, 60, 55
2, 300000, Note_off_c, 0, 60, 0
2, 300000, Note_on_c, 0, 58, 55
2, 300720, Note_off_c, 0, 58, 0
2, 300720, Note_on_c, 0, 56, 54
2, 300960, Note_off_c, 0, 56, 0
2, 300960, Note_on_c, 0, 55, 54
2, 301680, Note_off_c, 0, 55, 0
2, 301680, Note_on_c, 0, 53, 53
2, 301920, Note_off_c, 0, 53, 0
2, 301920, Note_on_c, 0, 51, 52
2, 302640, Note_off_c, 0, 51, 0
2, 302640, Note_on_c, 0, 53, 52
2, 302880, Note_off_c, 0, 53, 0
2, 302880, Note_on_c, 0, 51, 51
2, 303840, Note_off_c, 0, 51, 0
2, 307200, Note_on_c, 0, 82, 46
2, 309120, Note_off_c, 0, 82, 0
2, 309120, Note_on_c, 0, 85, 44
2, 311040, Note_off_c, 0, 85, 0
2, 311040, Note_on_c, 0, 84, 85
2, 312480, Note_off_c, 0, 84, 0
2, 312480, Note_on_c, 0, 77, 78
2, 312720, Note_off_c, 0, 77, 0
2, 312720, Note_on_c, 0, 82, 78
2, 312960, Note_off_c, 0, 82, 0
2, 312960, Note_on_c, 0, 82, 78
2, 313320, Note_off_c, 0, 82, 0
2, 313440, Note_on_c, 0, 75, 77
2, 313680, Note_off_c, 0, 75, 0
2, 313680, Note_on_c, 0, 80, 77
2, 313920, Note_off_c, 0, 80, 0
2, 313920, Note_on_c, 0, 80, 76
2, 314280, Note_off_c, 0, 80, 0
2, 314400, Note_on_c, 0, 73, 76
2, 314640, Note_off_c, 0, 73, 0
2, 314640, Note_on_c, 0, 79, 75
2, 314880, Note_off_c, 0, 79, 0
2, 314880, Note_on_c, 0, 79, 75
2, 315240, Note_off_c, 0, 79, 0
2, 315360, Note_on_c, 0, 72, 74
2, 315600, Note_off_c, 0, 72, 0
2, 315600, Note_on_c, 0, 77, 74
2, 315840, Note_off_c, 0, 77, 0
2, 315840, Note_on_c, 0, 77, 73
2, 316200, Note_off_c, 0, 77, 0
2, 316320, Note_on_c, 0, 77, 73
2, 316800, Note_off_c, 0, 77, 0
2, 316800, Note_on_c, 0, 77, 79
2, 317760, Note_off_c, 0, 77, 0
2, 317760, Note_on_c, 0, 76, 64
2, 318240, Note_off_c, 0, 76, 0
2, 318240, Note_on_c, 0, 77, 63
2, 318720, Note_off_c, 0, 77, 0
2, 318720, Note_on_c, 0, 79, 63
2, 319200, Note_off_c, 0, 79, 0
2, 319200, Note_on_c, 0, 80, 63
2, 319680, Note_off_c, 0, 80, 0
2, 319680, Note_on_c, 0, 82, 63
2, 320160, Note_off_c, 0, 82, 0
2, 320160, Note_on_c, 0, 79, 63
2, 320640, Note_off_c, 0, 79, 0
2, 320640, Note_on_c, 0, 80, 64
2, 321000, Note_off_c, 0, 80, 0
2, 321600, Note_on_c, 0, 84, 79
2, 321960, Note_off_c, 0, 84, 0
2, 322560, Note_on_c, 0, 96, 95
2, 324000, Note_off_c, 0, 96, 0
2, 324000, Note_on_c, 0, 84, 95
2, 325920, Note_off_c, 0, 84, 0
2, 325920, Note_on_c, 0, 80, 86
2, 326400, Note_off_c, 0, 80, 0
2, 326400, Note_on_c, 0, 79, 85
2, 326880, Note_off_c, 0, 79, 0
2, 326880, Note_on_c, 0, 76, 83
2, 327360, Note_off_c, 0, 76, 0
2, 327360, Note_on_c, 0, 73, 82
2, 327840, Note_off_c, 0, 73, 0
2, 327840, Note_on_c, 0, 72, 80
2, 328320, Note_off_c, 0, 72, 0
2, 328320, Note_on_c, 0, 72, 79
2, 328705, Note_off_c, 0, 72, 0
2, 329280, Note_on_c, 0, 84, 86
2, 329665, Note_off_c, 0, 84, 0
2, 330240, Note_on_c, 0, 96, 94
2, 331390, Note_off_c, 0, 96, 0
2, 331680, Note_on_c, 0, 84, 94
2, 333215, Note_off_c, 0, 84, 0
2, 333600, Note_on_c, 0, 80, 88
2, 334080, Note_off_c, 0, 80, 0
2, 334080, Note_on_c, 0, 77, 86
2, 334560, Note_off_c, 0, 77, 0
2, 334560, Note_on_c, 0, 74, 85
2, 335040, Note_off_c, 0, 74, 0
2, 335040, Note_on_c, 0, 71, 83
2, 335520, Note_off_c, 0, 71, 0
2, 335520, Note_on_c, 0, 70, 81
2, 336000, Note_off_c, 0, 70, 0
2, 336000, Note_on_c, 0, 70, 80
2, 336360, Note_off_c, 0, 70, 0
2, 336960, Note_on_c, 0, 82, 87
2, 337320, Note_off_c, 0, 82, 0
2, 337920, Note_on_c, 0, 94, 95
2, 339360, Note_off_c, 0, 94, 0
2, 339360, Note_on_c, 0, 82, 95
2, 341280, Note_off_c, 0, 82, 0
2, 341280, Note_on_c, 0, 78, 87
2, 341760, Note_off_c, 0, 78, 0
2, 341760, Note_on_c, 0, 77, 85
2, 342240, Note_off_c, 0, 77, 0
2, 342240, Note_on_c, 0, 74, 83
2, 342720, Note_off_c, 0, 74, 0
2, 342720, Note_on_c, 0, 71, 82
2, 343200, Note_off_c, 0, 71, 0
2, 343200, Note_on_c, 0, 70, 80
2, 343680, Note_off_c, 0, 70, 0
2, 343680, Note_on_c, 0, 70, 80
2, 344040, Note_off_c, 0, 70, 0
2, 344640, Note_on_c, 0, 82, 87
2, 345000, Note_off_c, 0, 82, 0
2, 345600, Note_on_c, 0, 94, 96
2, 345960, Note_off_c, 0, 94, 0
2, 346560, Note_on_c, 0, 95, 96
2, 346920, Note_off_c, 0, 95, 0
2, 347520, Note_on_c, 0, 71, 69
2, 349440, Note_off_c, 0, 71, 0
2, 349440, Note_on_c, 0, 70, 67
2, 351360, Note_off_c, 0, 70, 0
2, 351360, Note_on_c, 0, 68, 60
2, 352800, Note_off_c, 0, 68, 0
2, 355200, Note_on_c, 0, 72, 61
2, 357120, Note_off_c, 0, 72, 0
2, 357120, Note_on_c, 0, 70, 59
2, 359040, Note_off_c, 0, 70, 0
2, 359040, Note_on_c, 0, 69, 57
2, 360480, Note_off_c, 0, 69, 0
2, 362880, Note_on_c, 0, 77, 53
2, 364800, Note_off_c, 0, 77, 0
2, 364800, Note_on_c, 0, 75, 51
2, 366720, Note_off_c, 0, 75, 0
2, 366720, Note_on_c, 0, 74, 48
2, 368160, Note_off_c, 0, 74, 0
2, 370560, Note_on_c, 0, 82, 59
2, 372480, Note_off_c, 0, 82, 0
2, 372480, Note_on_c, 0, 80, 68
2, 374400, Note_off_c, 0, 80, 0
2, 374400, Note_on_c, 0, 79, 79
2, 377280, Note_off_c, 0, 79, 0
2, 377280, Note_on_c, 0, 80, 70
2, 377760, Note_off_c, 0, 80, 0
2, 377760, Note_on_c, 0, 77, 66
2, 378240, Note_off_c, 0, 77, 0
2, 378240, Note_on_c, 0, 79, 62
2, 380160, Note_off_c, 0, 79, 0
2, 380160, Note_on_c, 0, 77, 63
2, 382080, Note_off_c, 0, 77, 0
2, 382080, Note_on_c, 0, 75, 63
2, 383040, Note_off_c, 0, 75, 0
2, 383040, Note_on_c, 0, 72, 63
2, 383520, Note_off_c, 0, 72, 0
2, 383520, Note_on_c, 0, 70, 63
2, 384000, Note_off_c, 0, 70, 0
2, 384000, Note_on_c, 0, 70, 63
2, 384480, Note_off_c, 0, 70, 0
2, 384480, Note_on_c, 0, 68, 63
2, 384960, Note_off_c, 0, 68, 0
2, 384960, Note_on_c, 0, 67, 63
2, 385440, Note_off_c, 0, 67, 0
2, 385440, Note_on_c, 0, 65, 63
2, 385920, Note_off_c, 0, 65, 0
2, 385920, Note_on_c, 0, 63, 63
2, 386160, Note_off_c, 0, 63, 0
2, 386160, Note_on_c, 0, 58, 63
2, 386400, Note_off_c, 0, 58, 0
2, 386400, Note_on_c, 0, 60, 63
2, 386640, Note_off_c, 0, 60, 0
2, 386640, Note_on_c, 0, 58, 63
2, 386880, Note_off_c, 0, 58, 0
2, 386880, Note_on_c, 0, 57, 63
2, 387120, Note_off_c, 0, 57, 0
2, 387120, Note_on_c, 0, 58, 63
2, 387360, Note_off_c, 0, 58, 0
2, 387360, Note_on_c, 0, 67, 63
2, 387600, Note_off_c, 0, 67, 0
2, 387600, Note_on_c, 0, 63, 63
2, 387840, Note_off_c, 0, 63, 0
2, 387840, Note_on_c, 0, 62, 62
2, 388080, Note_off_c, 0, 62, 0
2, 388080, Note_on_c, 0, 63, 64
2, 388320, Note_off_c, 0, 63, 0
2, 388320, Note_on_c, 0, 65, 66
2, 388560, Note_off_c, 0, 65, 0
2, 388560, Note_on_c, 0, 67, 68
2, 388800, Note_off_c, 0, 67, 0
2, 388800, Note_on_c, 0, 68, 70
2, 389040, Note_off_c, 0, 68, 0
2, 389040, Note_on_c, 0, 69, 69
2, 389280, Note_off_c, 0, 69, 0
2, 389280, Note_on_c, 0, 72, 68
2, 389520, Note_off_c, 0, 72, 0
2, 389520, Note_on_c, 0, 70, 66
2, 389760, Note_off_c, 0, 70, 0
2, 389760, Note_on_c, 0, 69, 65
2, 390000, Note_off_c, 0, 69, 0
2, 390000, Note_on_c, 0, 70, 63
2, 390240, Note_off_c, 0, 70, 0
2, 390240, Note_on_c, 0, 72, 63
2, 390480, Note_off_c, 0, 72, 0
2, 390480, Note_on_c, 0, 70, 63
2, 390720, Note_off_c, 0, 70, 0
2, 390720, Note_on_c, 0, 69, 63
2, 390960, Note_off_c, 0, 69, 0
2, 390960, Note_on_c, 0, 70, 63
2, 391200, Note_off_c, 0, 70, 0
2, 391200, Note_on_c, 0, 79, 63
2, 391440, Note_off_c, 0, 79, 0
2, 391440, Note_on_c, 0, 75, 63
2, 391680, Note_off_c, 0, 75, 0
2, 391680, Note_on_c, 0, 74, 64
2, 391920, Note_off_c, 0, 74, 0
2, 391920, Note_on_c, 0, 75, 65
2, 392160, Note_off_c, 0, 75, 0
2, 392160, Note_on_c, 0, 77, 67
2, 392400, Note_off_c, 0, 77, 0
2, 392400, Note_on_c, 0, 79, 68
2, 392640, Note_off_c, 0, 79, 0
2, 392640, Note_on_c, 0, 80, 73
2, 392880, Note_off_c, 0, 80, 0
2, 392880, Note_on_c, 0, 81, 71
2, 393120, Note_off_c, 0, 81, 0
2, 393120, Note_on_c, 0, 84, 69
2, 393360, Note_off_c, 0, 84, 0
2, 393360, Note_on_c, 0, 82, 67
2, 393600, Note_off_c, 0, 82, 0
2, 393600, Note_on_c, 0, 81, 62
2, 393840, Note_off_c, 0, 81, 0
2, 393840, Note_on_c, 0, 82, 62
2, 394080, Note_off_c, 0, 82, 0
2, 394080, Note_on_c, 0, 84, 63
2, 394320, Note_off_c, 0, 84, 0
2, 394320, Note_on_c, 0, 82, 63
2, 394560, Note_off_c, 0, 82, 0
2, 394560, Note_on_c, 0, 81, 64
2, 394800, Note_off_c, 0, 81, 0
2, 394800, Note_on_c, 0, 82, 65
2, 395040, Note_off_c, 0, 82, 0
2, 395040, Note_on_c, 0, 91, 64
2, 395280, Note_off_c, 0, 91, 0
2, 395280, Note_on_c, 0, 87, 65
2, 395520, Note_off_c, 0, 87, 0
2, 395520, Note_on_c, 0, 86, 66
2, 395760, Note_off_c, 0, 86, 0
2, 395760, Note_on_c, 0, 87, 68
2, 396000, Note_off_c, 0, 87, 0
2, 396000, Note_on_c, 0, 89, 70
2, 396240, Note_off_c, 0, 89, 0
2, 396240, Note_on_c, 0, 91, 73
2, 396480, Note_off_c, 0, 91, 0
2, 396480, Note_on_c, 0, 92, 73
2, 396720, Note_off_c, 0, 92, 0
2, 396720, Note_on_c, 0, 93, 73
2, 396960, Note_off_c, 0, 93, 0
2, 396960, Note_on_c, 0, 96, 72
2, 397200, Note_off_c, 0, 96, 0
2, 397200, Note_on_c, 0, 94, 72
2, 397440, Note_off_c, 0, 94, 0
2, 397440, Note_on_c, 0, 93, 72
2, 397680, Note_off_c, 0, 93, 0
2, 397680, Note_on_c, 0, 94, 73
2, 397920, Note_off_c, 0, 94, 0
2, 397920, Note_on_c, 0, 92, 74
2, 398160, Note_off_c, 0, 92, 0
2, 398160, Note_on_c, 0, 91, 74
2, 398400, Note_off_c, 0, 91, 0
2, 398400, Note_on_c, 0, 89, 75
2, 398640, Note_off_c, 0, 89, 0
2, 398640, Note_on_c, 0, 87, 76
2, 398880, Note_off_c, 0, 87, 0
2, 398880, Note_on_c, 0, 86, 77
2, 399120, Note_off_c, 0, 86, 0
2, 399120, Note_on_c, 0, 84, 77
2, 399360, Note_off_c, 0, 84, 0
2, 399360, Note_on_c, 0, 82, 78
2, 399600, Note_off_c, 0, 82, 0
2, 399600, Note_on_c, 0, 80, 79
2, 399840, Note_off_c, 0, 80, 0
2, 399840, Note_on_c, 0, 79, 80
2, 400080, Note_off_c, 0, 79, 0
2, 400080, Note_on_c, 0, 77, 81
2, 400320, Note_off_c, 0, 77, 0
2, 400320, Note_on_c, 0, 75, 81
2, 400560, Note_off_c, 0, 75, 0
2, 400560, Note_on_c, 0, 74, 79
2, 400800, Note_off_c, 0, 74, 0
2, 400800, Note_on_c, 0, 77, 76
2, 401040, Note_off_c, 0, 77, 0
2, 401040, Note_on_c, 0, 80, 73
2, 401280, Note_off_c, 0, 80, 0
2, 401280, Note_on_c, 0, 79, 70
2, 403200, Note_off_c, 0, 79, 0
2, 403200, Note_on_c, 0, 77, 63
2, 405120, Note_off_c, 0, 77, 0
2, 405120, Note_on_c, 0, 75, 63
2, 406080, Note_off_c, 0, 75, 0
2, 406080, Note_on_c, 0, 72, 63
2, 406560, Note_off_c, 0, 72, 0
2, 406560, Note_on_c, 0, 70, 63
2, 407040, Note_off_c, 0, 70, 0
2, 407040, Note_on_c, 0, 70, 63
2, 407520, Note_off_c, 0, 70, 0
2, 407520, Note_on_c, 0, 68, 63
2, 408000, Note_off_c, 0, 68, 0
2, 408000, Note_on_c, 0, 67, 63
2, 408480, Note_off_c, 0, 67, 0
2, 408480, Note_on_c, 0, 65, 63
2, 408960, Note_off_c, 0, 65, 0
2, 408960, Note_on_c, 0, 63, 63
2, 409200, Note_off_c, 0, 63, 0
2, 409200, Note_on_c, 0, 58, 63
2, 409440, Note_off_c, 0, 58, 0
2, 409440, Note_on_c, 0, 60, 63
2, 409680, Note_off_c, 0, 60, 0
2, 409680, Note_on_c, 0, 58, 63
2, 409920, Note_off_c, 0, 58, 0
2, 409920, Note_on_c, 0, 57, 63
2, 410160, Note_off_c, 0, 57, 0
2, 410160, Note_on_c, 0, 58, 63
2, 410400, Note_off_c, 0, 58, 0
2, 410400, Note_on_c, 0, 67, 63
2, 410640, Note_off_c, 0, 67, 0
2, 410640, Note_on_c, 0, 63, 63
2, 410880, Note_off_c, 0, 63, 0
2, 410880, Note_on_c, 0, 62, 66
2, 411120, Note_off_c, 0, 62, 0
2, 411120, Note_on_c, 0, 63, 68
2, 411360, Note_off_c, 0, 63, 0
2, 411360, Note_on_c, 0, 65, 70
2, 411600, Note_off_c, 0, 65, 0
2, 411600, Note_on_c, 0, 67, 71
2, 411840, Note_off_c, 0, 67, 0
2, 411840, Note_on_c, 0, 68, 73
2, 412080, Note_off_c, 0, 68, 0
2, 412080, Note_on_c, 0, 69, 69
2, 412320, Note_off_c, 0, 69, 0
2, 412320, Note_on_c, 0, 72, 67
2, 412560, Note_off_c, 0, 72, 0
2, 412560, Note_on_c, 0, 70, 66
2, 412800, Note_off_c, 0, 70, 0
2, 412800, Note_on_c, 0, 69, 64
2, 413040, Note_off_c, 0, 69, 0
2, 413040, Note_on_c, 0, 70, 63
2, 413280, Note_off_c, 0, 70, 0
2, 413280, Note_on_c, 0, 72, 63
2, 413520, Note_off_c, 0, 72, 0
2, 413520, Note_on_c, 0, 70, 63
2, 413760, Note_off_c, 0, 70, 0
2, 413760, Note_on_c, 0, 69, 63
2, 414000, Note_off_c, 0, 69, 0
2, 414000, Note_on_c, 0, 70, 63
2, 414240, Note_off_c, 0, 70, 0
2, 414240, Note_on_c, 0, 79, 63
2, 414480, Note_off_c, 0, 79, 0
2, 414480, Note_on_c, 0, 75, 63
2, 414720, Note_off_c, 0, 75, 0
2, 414720, Note_on_c, 0, 74, 66
2, 414960, Note_off_c, 0, 74, 0
2, 414960, Note_on_c, 0, 75, 69
2, 415200, Note_off_c, 0, 75, 0
2, 415200, Note_on_c, 0, 77, 71
2, 415440, Note_off_c, 0, 77, 0
2, 415440, Note_on_c, 0, 79, 73
2, 415680, Note_off_c, 0, 79, 0
2, 415680, Note_on_c, 0, 80, 75
2, 415920, Note_off_c, 0, 80, 0
2, 415920, Note_on_c, 0, 81, 73
2, 416160, Note_off_c, 0, 81, 0
2, 416160, Note_on_c, 0, 84, 71
2, 416400, Note_off_c, 0, 84, 0
2, 416400, Note_on_c, 0, 82, 68
2, 416640, Note_off_c, 0, 82, 0
2, 416640, Note_on_c, 0, 81, 66
2, 416880, Note_off_c, 0, 81, 0
2, 416880, Note_on_c, 0, 82, 63
2, 417120, Note_off_c, 0, 82, 0
2, 417120, Note_on_c, 0, 84, 63
2, 417360, Note_off_c, 0, 84, 0
2, 417360, Note_on_c, 0, 82, 63
2, 417600, Note_off_c, 0, 82, 0
2, 417600, Note_on_c, 0, 81, 63
2, 417840, Note_off_c, 0, 81, 0
2, 417840, Note_on_c, 0, 82, 63
2, 418080, Note_off_c, 0, 82, 0
2, 418080, Note_on_c, 0, 91, 63
2, 418320, Note_off_c, 0, 91, 0
2, 418320, Note_on_c, 0, 87, 63
2, 418560, Note_off_c, 0, 87, 0
2, 418560, Note_on_c, 0, 86, 66
2, 418800, Note_off_c, 0, 86, 0
2, 418800, Note_on_c, 0, 87, 67
2, 419040, Note_off_c, 0, 87, 0
2, 419040, Note_on_c, 0, 89, 69
2, 419280, Note_off_c, 0, 89, 0
2, 419280, Note_on_c, 0, 91, 71
2, 419520, Note_off_c, 0, 91, 0
2, 419520, Note_on_c, 0, 92, 74
2, 419760, Note_off_c, 0, 92, 0
2, 419760, Note_on_c, 0, 93, 72
2, 420000, Note_off_c, 0, 93, 0
2, 420000, Note_on_c, 0, 96, 69
2, 420240, Note_off_c, 0, 96, 0
2, 420240, Note_on_c, 0, 94, 67
2, 420480, Note_off_c, 0, 94, 0
2, 420480, Note_on_c, 0, 94, 64
2, 420720, Note_off_c, 0, 94, 0
2, 420720, Note_on_c, 0, 70, 62
2, 420960, Note_off_c, 0, 70, 0
2, 420960, Note_on_c, 0, 72, 64
2, 421200, Note_off_c, 0, 72, 0
2, 421200, Note_on_c, 0, 70, 64
2, 421440, Note_off_c, 0, 70, 0
2, 421440, Note_on_c, 0, 69, 65
2, 421680, Note_off_c, 0, 69, 0
2, 421680, Note_on_c, 0, 70, 66
2, 421920, Note_off_c, 0, 70, 0
2, 421920, Note_on_c, 0, 79, 67
2, 422160, Note_off_c, 0, 79, 0
2, 422160, Note_on_c, 0, 75, 68
2, 422400, Note_off_c, 0, 75, 0
2, 422400, Note_on_c, 0, 74, 70
2, 422640, Note_off_c, 0, 74, 0
2, 422640, Note_on_c, 0, 75, 72
2, 422880, Note_off_c, 0, 75, 0
2, 422880, Note_on_c, 0, 77, 74
2, 423120, Note_off_c, 0, 77, 0
2, 423120, Note_on_c, 0, 79, 77
2, 423360, Note_off_c, 0, 79, 0
2, 423360, Note_on_c, 0, 80, 79
2, 423600, Note_off_c, 0, 80, 0
2, 423600, Note_on_c, 0, 81, 78
2, 423840, Note_off_c, 0, 81, 0
2, 423840, Note_on_c, 0, 84, 76
2, 424080, Note_off_c, 0, 84, 0
2, 424080, Note_on_c, 0, 82, 75
2, 424320, Note_off_c, 0, 82, 0
2, 424320, Note_on_c, 0, 82, 75
2, 424560, Note_off_c, 0, 82, 0
2, 424560, Note_on_c, 0, 58, 75
2, 424800, Note_off_c, 0, 58, 0
2, 424800, Note_on_c, 0, 60, 76
2, 425040, Note_off_c, 0, 60, 0
2, 425040, Note_on_c, 0, 58, 77
2, 425280, Note_off_c, 0, 58, 0
2, 425280, Note_on_c, 0, 57, 78
2, 425520, Note_off_c, 0, 57, 0
2, 425520, Note_on_c, 0, 58, 79
2, 425760, Note_off_c, 0, 58, 0
2, 425760, Note_on_c, 0, 67, 79
2, 426000, Note_off_c, 0, 67, 0
2, 426000, Note_on_c, 0, 63, 80
2, 426240, Note_off_c, 0, 63, 0
2, 426240, Note_on_c, 0, 57, 81
2, 426480, Note_off_c, 0, 57, 0
2, 426480, Note_on_c, 0, 58, 80
2, 426720, Note_off_c, 0, 58, 0
2, 426720, Note_on_c, 0, 68, 78
2, 426960, Note_off_c, 0, 68, 0
2, 426960, Note_on_c, 0, 65, 76
2, 427200, Note_off_c, 0, 65, 0
2, 427200, Note_on_c, 0, 62, 75
2, 427440, Note_off_c, 0, 62, 0
2, 427440, Note_on_c, 0, 72, 73
2, 427680, Note_off_c, 0, 72, 0
2, 427680, Note_on_c, 0, 70, 72
2, 427920, Note_off_c, 0, 70, 0
2, 427920, Note_on_c, 0, 62, 67
2, 428160, Note_off_c, 0, 62, 0
2, 428160, Note_on_c, 0, 63, 62
2, 430080, Note_off_c, 0, 63, 0
2, 430080, Note_on_c, 0, 58, 56
2, 432000, Note_off_c, 0, 58, 0
2, 432000, Note_on_c, 0, 55, 53
2, 433440, Note_off_c, 0, 55, 0
2, 435840, Note_on_c, 0, 67, 53
2, 437760, Note_off_c, 0, 67, 0
2, 437760, Note_on_c, 0, 65, 51
2, 439680, Note_off_c, 0, 65, 0
2, 439680, Note_on_c, 0, 63, 48
2, 441120, Note_off_c, 0, 63, 0
2, 443040, Note_on_c, 0, 67, 48
2, 443520, Note_off_c, 0, 67, 0
2, 443520, Note_on_c, 0, 65, 48
2, 445440, Note_off_c, 0, 65, 0
2, 445440, Note_on_c, 0, 63, 46
2, 445920, Note_off_c, 0, 63, 0
2, 446880, Note_on_c, 0, 79, 46
2, 447360, Note_off_c, 0, 79, 0
2, 447360, Note_on_c, 0, 77, 45
2, 449280, Note_off_c, 0, 77, 0
2, 449280, Note_on_c, 0, 75, 44
2, 449760, Note_off_c, 0, 75, 0
2, 450720, Note_on_c, 0, 91, 43
2, 451200, Note_off_c, 0, 91, 0
2, 451680, Note_on_c, 0, 91, 42
2, 452160, Note_off_c, 0, 91, 0
2, 452160, Note_on_c, 0, 89, 42
2, 452640, Note_off_c, 0, 89, 0
2, 452640, Note_on_c, 0, 87, 42
2, 453120, Note_off_c, 0, 87, 0
2, 453120, Note_on_c, 0, 87, 42
2, 453600, Note_off_c, 0, 87, 0
2, 455520, Note_on_c, 0, 67, 40
2, 456000, Note_off_c, 0, 67, 0
2, 456000, Note_on_c, 0, 65, 40
2, 456480, Note_off_c, 0, 65, 0
2, 456480, Note_on_c, 0, 63, 39
2, 456960, Note_off_c, 0, 63, 0
2, 456960, Note_on_c, 0, 63, 39
2, 457440, Note_off_c, 0, 63, 0
2, 458880, Note_on_c, 0, 58, 38
2, 460320, Note_off_c, 0, 58, 0
2, 460320, Note_on_c, 0, 55, 41
2, 460680, Note_off_c, 0, 55, 0
2, 460800, Note_on_c, 0, 58, 42
2, 462240, Note_off_c, 0, 58, 0
2, 462240, Note_on_c, 0, 55, 44
2, 462600, Note_off_c, 0, 55, 0
2, 462720, Note_on_c, 0, 58, 45
2, 464160, Note_off_c, 0, 58, 0
2, 464160, Note_on_c, 0, 55, 48
2, 464520, Note_off_c, 0, 55, 0
2, 464640, Note_on_c, 0, 58, 49
2, 466080, Note_off_c, 0, 58, 0
2, 466080, Note_on_c, 0, 62, 73
2, 466440, Note_off_c, 0, 62, 0
2, 466560, Note_on_c, 0, 63, 70
2, 467040, Note_off_c, 0, 63, 0
2, 470400, Note_on_c, 0, 63, 44
2, 470640, Note_off_c, 0, 63, 0
2, 470640, Note_on_c, 0, 65, 45
2, 470880, Note_off_c, 0, 65, 0
2, 470880, Note_on_c, 0, 63, 45
2, 471120, Note_off_c, 0, 63, 0
2, 471120, Note_on_c, 0, 62, 46
2, 471360, Note_off_c, 0, 62, 0
2, 471360, Note_on_c, 0, 63, 46
2, 471600, Note_off_c, 0, 63, 0
2, 471600, Note_on_c, 0, 65, 46
2, 471840, Note_off_c, 0, 65, 0
2, 471840, Note_on_c, 0, 67, 47
2, 472080, Note_off_c, 0, 67, 0
2, 472080, Note_on_c, 0, 68, 47
2, 472320, Note_off_c, 0, 68, 0
2, 472320, Note_on_c, 0, 70, 48
2, 472560, Note_off_c, 0, 70, 0
2, 472560, Note_on_c, 0, 72, 48
2, 472800, Note_off_c, 0, 72, 0
2, 472800, Note_on_c, 0, 74, 49
2, 473040, Note_off_c, 0, 74, 0
2, 473040, Note_on_c, 0, 75, 49
2, 473280, Note_off_c, 0, 75, 0
2, 473280, Note_on_c, 0, 77, 49
2, 473520, Note_off_c, 0, 77, 0
2, 473520, Note_on_c, 0, 79, 50
2, 473760, Note_off_c, 0, 79, 0
2, 473760, Note_on_c, 0, 80, 50
2, 474000, Note_off_c, 0, 80, 0
2, 474000, Note_on_c, 0, 82, 51
2, 474240, Note_off_c, 0, 82, 0
2, 474240, Note_on_c, 0, 84, 51
2, 474560, Note_off_c, 0, 84, 0
2, 474560, Note_on_c, 0, 86, 52
2, 474880, Note_off_c, 0, 86, 0
2, 474880, Note_on_c, 0, 87, 52
2, 475200, Note_off_c, 0, 87, 0
2, 475200, Note_on_c, 0, 89, 53
2, 475440, Note_off_c, 0, 89, 0
2, 475440, Note_on_c, 0, 91, 53
2, 475680, Note_off_c, 0, 91, 0
2, 475680, Note_on_c, 0, 92, 54
2, 475920, Note_off_c, 0, 92, 0
2, 475920, Note_on_c, 0, 94, 54
2, 476160, Note_off_c, 0, 94, 0
2, 476160, Note_on_c, 0, 96, 55
2, 477120, Note_off_c, 0, 96, 0
2, 477120, Note_on_c, 0, 94, 49
2, 477600, Note_off_c, 0, 94, 0
2, 478080, Note_on_c, 0, 87, 38
2, 478320, Note_off_c, 0, 87, 0
2, 478320, Note_on_c, 0, 89, 39
2, 478560, Note_off_c, 0, 89, 0
2, 478560, Note_on_c, 0, 87, 40
2, 478800, Note_off_c, 0, 87, 0
2, 478800, Note_on_c, 0, 86, 41
2, 479040, Note_off_c, 0, 86, 0
2, 479040, Note_on_c, 0, 87, 42
2, 479280, Note_off_c, 0, 87, 0
2, 479280, Note_on_c, 0, 89, 43
2, 479520, Note_off_c, 0, 89, 0
2, 479520, Note_on_c, 0, 91, 44
2, 479680, Note_off_c, 0, 91, 0
2, 479680, Note_on_c, 0, 92, 45
2, 479840, Note_off_c, 0, 92, 0
2, 479840, Note_on_c, 0, 94, 45
2, 480000, Note_off_c, 0, 94, 0
2, 480000, Note_on_c, 0, 96, 46
2, 480960, Note_off_c, 0, 96, 0
2, 480960, Note_on_c, 0, 94, 40
2, 481440, Note_off_c, 0, 94, 0
2, 481920, Note_on_c, 0, 87, 31
2, 482160, Note_off_c, 0, 87, 0
2, 482160, Note_on_c, 0, 89, 32
2, 482400, Note_off_c, 0, 89, 0
2, 482400, Note_on_c, 0, 87, 33
2, 482640, Note_off_c, 0, 87, 0
2, 482640, Note_on_c, 0, 86, 34
2, 482880, Note_off_c, 0, 86, 0
2, 482880, Note_on_c, 0, 87, 35
2, 483120, Note_off_c, 0, 87, 0
2, 483120, Note_on_c, 0, 89, 36
2, 483360, Note_off_c, 0, 89, 0
2, 483360, Note_on_c, 0, 91, 37
2, 483520, Note_off_c, 0, 91, 0
2, 483520, Note_on_c, 0, 92, 38
2, 483680, Note_off_c, 0, 92, 0
2, 483680, Note_on_c, 0, 94, 39
2, 483840, Note_off_c, 0, 94, 0
2, 483840, Note_on_c, 0, 96, 39
2, 483840, Note_on_c, 0, 84, 39
2, 485760, Note_off_c, 0, 84, 0
2, 485760, Note_off_c, 0, 96, 0
2, 485760, Note_on_c, 0, 94, 38
2, 485760, Note_on_c, 0, 82, 38
2, 486240, Note_off_c, 0, 82, 0
2, 486240, Note_off_c, 0, 94, 0
2, 487680, Note_on_c, 0, 62, 90
2, 488040, Note_off_c, 0, 62, 0
2, 489600, Note_on_c, 0, 63, 90
2, 489960, Note_off_c, 0, 63, 0
2, 493440, Control_c, 0, 7, 117
2, 493440, Note_on_c, 0, 67, 65
2, 493800, Note_off_c, 0, 67, 0
2, 493800, Note_on_c, 0, 66, 59
2, 493920, Note_off_c, 0, 66, 0
2, 493920, Note_on_c, 0, 69, 57
2, 495360, Note_off_c, 0, 69, 0
2, 495360, Note_on_c, 0, 67, 59
2, 495720, Note_off_c, 0, 67, 0
2, 495720, Note_on_c, 0, 66, 56
2, 495840, Note_off_c, 0, 66, 0
2, 495840, Note_on_c, 0, 69, 55
2, 496800, Note_off_c, 0, 69, 0
2, 496800, Note_on_c, 0, 69, 63
2, 497160, Note_off_c, 0, 69, 0
2, 497160, Note_on_c, 0, 75, 63
2, 497280, Note_off_c, 0, 75, 0
2, 497280, Note_on_c, 0, 75, 61
2, 497760, Note_off_c, 0, 75, 0
2, 497760, Note_on_c, 0, 74, 63
2, 498120, Note_off_c, 0, 74, 0
2, 498120, Note_on_c, 0, 67, 63
2, 498240, Note_off_c, 0, 67, 0
2, 498240, Note_on_c, 0, 67, 61
2, 498720, Note_off_c, 0, 67, 0
2, 498720, Note_on_c, 0, 66, 63
2, 499080, Note_off_c, 0, 66, 0
2, 499080, Note_on_c, 0, 69, 63
2, 499200, Note_off_c, 0, 69, 0
2, 499200, Note_on_c, 0, 69, 62
2, 499440, Note_off_c, 0, 69, 0
2, 499440, Note_on_c, 0, 71, 60
2, 500460, Note_on_c, 0, 72, 56
2, 500467, Note_off_c, 0, 71, 0
2, 500520, Note_off_c, 0, 72, 0
2, 500520, Note_on_c, 0, 71, 58
2, 500580, Note_off_c, 0, 71, 0
2, 500580, Note_on_c, 0, 69, 60
2, 500640, Note_off_c, 0, 69, 0
2, 500640, Note_on_c, 0, 71, 64
2, 500880, Note_off_c, 0, 71, 0
2, 500880, Note_on_c, 0, 72, 66
2, 501120, Note_off_c, 0, 72, 0
2, 501120, Note_on_c, 0, 75, 68
2, 501480, Note_off_c, 0, 75, 0
2, 501480, Note_on_c, 0, 74, 62
2, 501600, Note_off_c, 0, 74, 0
2, 501600, Note_on_c, 0, 77, 61
2, 502905, Note_off_c, 0, 77, 0
2, 502920, Note_on_c, 0, 74, 60
2, 502980, Note_off_c, 0, 74, 0
2, 502980, Note_on_c, 0, 77, 62
2, 503040, Note_off_c, 0, 77, 0
2, 503040, Note_on_c, 0, 75, 64
2, 503400, Note_off_c, 0, 75, 0
2, 503400, Note_on_c, 0, 74, 58
2, 503520, Note_off_c, 0, 74, 0
2, 503520, Note_on_c, 0, 77, 57
2, 504480, Note_off_c, 0, 77, 0
2, 504480, Note_on_c, 0, 74, 63
2, 504840, Note_off_c, 0, 74, 0
2, 504840, Note_on_c, 0, 80, 63
2, 504960, Note_off_c, 0, 80, 0
2, 504960, Note_on_c, 0, 80, 62
2, 505440, Note_off_c, 0, 80, 0
2, 505440, Note_on_c, 0, 79, 64
2, 505800, Note_off_c, 0, 79, 0
2, 505800, Note_on_c, 0, 72, 61
2, 505920, Note_off_c, 0, 72, 0
2, 505920, Note_on_c, 0, 72, 58
2, 506400, Note_off_c, 0, 72, 0
2, 506400, Note_on_c, 0, 71, 60
2, 506760, Note_off_c, 0, 71, 0
2, 506760, Note_on_c, 0, 74, 59
2, 506880, Note_off_c, 0, 74, 0
2, 506880, Note_on_c, 0, 74, 58
2, 507120, Note_off_c, 0, 74, 0
2, 507120, Note_on_c, 0, 75, 56
2, 508057, Note_off_c, 0, 75, 0
2, 508080, Note_on_c, 0, 68, 58
2, 508320, Note_off_c, 0, 68, 0
2, 508320, Note_on_c, 0, 67, 59
2, 508560, Note_off_c, 0, 67, 0
2, 508560, Note_on_c, 0, 68, 61
2, 508800, Note_off_c, 0, 68, 0
2, 508800, Note_on_c, 0, 72, 61
2, 509040, Note_off_c, 0, 72, 0
2, 509040, Note_on_c, 0, 70, 59
2, 509100, Note_off_c, 0, 70, 0
2, 509100, Note_on_c, 0, 72, 60
2, 509160, Note_off_c, 0, 72, 0
2, 509160, Note_on_c, 0, 70, 62
2, 509220, Note_off_c, 0, 70, 0
2, 509220, Note_on_c, 0, 69, 63
2, 509280, Note_off_c, 0, 69, 0
2, 509280, Note_on_c, 0, 70, 64
2, 509640, Note_off_c, 0, 70, 0
2, 509640, Note_on_c, 0, 72, 63
2, 509760, Note_off_c, 0, 72, 0
2, 509760, Note_on_c, 0, 73, 63
2, 510360, Note_off_c, 0, 73, 0
2, 510360, Note_on_c, 0, 72, 66
2, 510480, Note_off_c, 0, 72, 0
2, 510480, Note_on_c, 0, 82, 68
2, 510600, Note_off_c, 0, 82, 0
2, 510600, Note_on_c, 0, 79, 71
2, 510720, Note_off_c, 0, 79, 0
2, 510720, Note_on_c, 0, 79, 74
2, 511440, Note_off_c, 0, 79, 0
2, 511440, Note_on_c, 0, 82, 62
2, 511560, Note_off_c, 0, 82, 0
2, 511560, Note_on_c, 0, 80, 61
2, 511710, Note_off_c, 0, 80, 0
2, 512160, Note_on_c, 0, 68, 59
2, 512400, Note_off_c, 0, 68, 0
2, 512400, Note_on_c, 0, 67, 59
2, 512640, Note_off_c, 0, 67, 0
2, 512640, Note_on_c, 0, 67, 59
2, 513000, Note_off_c, 0, 67, 0
2, 513000, Note_on_c, 0, 66, 55
2, 513120, Note_off_c, 0, 66, 0
2, 513120, Note_on_c, 0, 69, 54
2, 514080, Note_off_c, 0, 69, 0
2, 514080, Note_on_c, 0, 69, 70
2, 514440, Note_off_c, 0, 69, 0
2, 514440, Note_on_c, 0, 67, 64
2, 514560, Note_off_c, 0, 67, 0
2, 514560, Note_on_c, 0, 67, 74
2, 514920, Note_off_c, 0, 67, 0
2, 514920, Note_on_c, 0, 66, 71
2, 515040, Note_off_c, 0, 66, 0
2, 515040, Note_on_c, 0, 69, 80
2, 515400, Note_off_c, 0, 69, 0
2, 515400, Note_on_c, 0, 67, 76
2, 515520, Note_off_c, 0, 67, 0
2, 515520, Note_on_c, 0, 70, 85
2, 515880, Note_off_c, 0, 70, 0
2, 515880, Note_on_c, 0, 69, 76
2, 516000, Note_off_c, 0, 69, 0
2, 516000, Note_on_c, 0, 66, 73
2, 516120, Note_off_c, 0, 66, 0
2, 516120, Note_on_c, 0, 69, 70
2, 516240, Note_off_c, 0, 69, 0
2, 516240, Note_on_c, 0, 72, 67
2, 516360, Note_off_c, 0, 72, 0
2, 516360, Note_on_c, 0, 75, 64
2, 516480, Note_off_c, 0, 75, 0
2, 516480, Note_on_c, 0, 74, 64
2, 516600, Note_off_c, 0, 74, 0
2, 516600, Note_on_c, 0, 72, 61
2, 516720, Note_off_c, 0, 72, 0
2, 516720, Note_on_c, 0, 70, 61
2, 516840, Note_off_c, 0, 70, 0
2, 516840, Note_on_c, 0, 69, 61
2, 516960, Note_off_c, 0, 69, 0
2, 516960, Note_on_c, 0, 72, 62
2, 517080, Note_off_c, 0, 72, 0
2, 517080, Note_on_c, 0, 78, 62
2, 517200, Note_off_c, 0, 78, 0
2, 517200, Note_on_c, 0, 81, 62
2, 517320, Note_off_c, 0, 81, 0
2, 517320, Note_on_c, 0, 84, 63
2, 517440, Note_off_c, 0, 84, 0
2, 517440, Note_on_c, 0, 82, 63
2, 517560, Note_off_c, 0, 82, 0
2, 517560, Note_on_c, 0, 81, 63
2, 517680, Note_off_c, 0, 81, 0
2, 517680, Note_on_c, 0, 79, 64
2, 517800, Note_off_c, 0, 79, 0
2, 517800, Note_on_c, 0, 78, 64
2, 517920, Note_off_c, 0, 78, 0
2, 517920, Note_on_c, 0, 81, 64
2, 518040, Note_off_c, 0, 81, 0
2, 518040, Note_on_c, 0, 84, 64
2, 518160, Note_off_c, 0, 84, 0
2, 518160, Note_on_c, 0, 86, 65
2, 518280, Note_off_c, 0, 86, 0
2, 518280, Note_on_c, 0, 87, 65
2, 518400, Note_off_c, 0, 87, 0
2, 518400, Note_on_c, 0, 86, 67
2, 518520, Note_off_c, 0, 86, 0
2, 518520, Note_on_c, 0, 84, 66
2, 518640, Note_off_c, 0, 84, 0
2, 518640, Note_on_c, 0, 82, 65
2, 518760, Note_off_c, 0, 82, 0
2, 518760, Note_on_c, 0, 81, 64
2, 518880, Note_off_c, 0, 81, 0
2, 518880, Note_on_c, 0, 84, 63
2, 519000, Note_off_c, 0, 84, 0
2, 519000, Note_on_c, 0, 81, 62
2, 519120, Note_off_c, 0, 81, 0
2, 519120, Note_on_c, 0, 79, 62
2, 519240, Note_off_c, 0, 79, 0
2, 519240, Note_on_c, 0, 78, 61
2, 519360, Note_off_c, 0, 78, 0
2, 519360, Note_on_c, 0, 84, 60
2, 519480, Note_off_c, 0, 84, 0
2, 519480, Note_on_c, 0, 81, 59
2, 519600, Note_off_c, 0, 81, 0
2, 519600, Note_on_c, 0, 79, 58
2, 519720, Note_off_c, 0, 79, 0
2, 519720, Note_on_c, 0, 78, 57
2, 519840, Note_off_c, 0, 78, 0
2, 519840, Note_on_c, 0, 81, 56
2, 519918, Note_off_c, 0, 81, 0
2, 519960, Note_on_c, 0, 78, 59
2, 520038, Note_off_c, 0, 78, 0
2, 520080, Note_on_c, 0, 75, 61
2, 520158, Note_off_c, 0, 75, 0
2, 520200, Note_on_c, 0, 74, 62
2, 520278, Note_off_c, 0, 74, 0
2, 520320, Note_on_c, 0, 74, 67
2, 520800, Note_off_c, 0, 74, 0
2, 520800, Note_on_c, 0, 69, 65
2, 521760, Note_off_c, 0, 69, 0
2, 521760, Note_on_c, 0, 71, 62
2, 522000, Note_off_c, 0, 71, 0
2, 522000, Note_on_c, 0, 67, 61
2, 522240, Note_off_c, 0, 67, 0
2, 522240, Note_on_c, 0, 67, 60
2, 522480, Note_off_c, 0, 67, 0
2, 522480, Note_on_c, 0, 66, 59
2, 522540, Note_off_c, 0, 66, 0
2, 522540, Note_on_c, 0, 67, 59
2, 522600, Note_off_c, 0, 67, 0
2, 522600, Note_on_c, 0, 66, 59
2, 522660, Note_off_c, 0, 66, 0
2, 522660, Note_on_c, 0, 64, 58
2, 522720, Note_off_c, 0, 64, 0
2, 522720, Note_on_c, 0, 66, 58
2, 522960, Note_off_c, 0, 66, 0
2, 522960, Note_on_c, 0, 67, 61
2, 523200, Note_off_c, 0, 67, 0
2, 523200, Note_on_c, 0, 69, 65
2, 523392, Note_off_c, 0, 69, 0
2, 523440, Note_on_c, 0, 71, 68
2, 523632, Note_off_c, 0, 71, 0
2, 523680, Note_on_c, 0, 72, 72
2, 523800, Note_off_c, 0, 72, 0
2, 523800, Note_on_c, 0, 73, 73
2, 523896, Note_off_c, 0, 73, 0
2, 523920, Note_on_c, 0, 73, 75
2, 524040, Note_off_c, 0, 73, 0
2, 524040, Note_on_c, 0, 74, 77
2, 524136, Note_off_c, 0, 74, 0
2, 524160, Note_on_c, 0, 73, 82
2, 524280, Note_off_c, 0, 73, 0
2, 524280, Note_on_c, 0, 74, 77
2, 524400, Note_off_c, 0, 74, 0
2, 524400, Note_on_c, 0, 76, 72
2, 524520, Note_off_c, 0, 76, 0
2, 524520, Note_on_c, 0, 74, 68
2, 524640, Note_off_c, 0, 74, 0
2, 524640, Note_on_c, 0, 69, 63
2, 525120, Note_off_c, 0, 69, 0
2, 525240, Note_on_c, 0, 71, 65
2, 525300, Note_off_c, 0, 71, 0
2, 525300, Note_on_c, 0, 69, 64
2, 525360, Note_off_c, 0, 69, 0
2, 525360, Note_on_c, 0, 71, 64
2, 525420, Note_off_c, 0, 71, 0
2, 525420, Note_on_c, 0, 69, 64
2, 525468, Note_off_c, 0, 69, 0
2, 525480, Note_on_c, 0, 72, 64
2, 525540, Note_off_c, 0, 72, 0
2, 525540, Note_on_c, 0, 71, 63
2, 525588, Note_off_c, 0, 71, 0
2, 525600, Note_on_c, 0, 72, 63
2, 525660, Note_off_c, 0, 72, 0
2, 525660, Note_on_c, 0, 71, 63
2, 525708, Note_off_c, 0, 71, 0
2, 525720, Note_on_c, 0, 74, 63
2, 525780, Note_off_c, 0, 74, 0
2, 525780, Note_on_c, 0, 73, 62
2, 525828, Note_off_c, 0, 73, 0
2, 525840, Note_on_c, 0, 74, 62
2, 525870, Note_on_c, 0, 73, 62
2, 525888, Note_off_c, 0, 74, 0
2, 525900, Note_on_c, 0, 76, 62
2, 525918, Note_off_c, 0, 73, 0
2, 525930, Note_on_c, 0, 74, 62
2, 525948, Note_off_c, 0, 76, 0
2, 525960, Note_on_c, 0, 67, 61
2, 525978, Note_off_c, 0, 74, 0
2, 526080, Note_off_c, 0, 67, 0
2, 526080, Note_on_c, 0, 67, 61
2, 526560, Note_off_c, 0, 67, 0
2, 526560, Note_on_c, 0, 66, 59
2, 526600, Note_off_c, 0, 66, 0
2, 526600, Note_on_c, 0, 67, 59
2, 526640, Note_off_c, 0, 67, 0
2, 526640, Note_on_c, 0, 66, 59
2, 526680, Note_off_c, 0, 66, 0
2, 526680, Note_on_c, 0, 64, 58
2, 526740, Note_off_c, 0, 64, 0
2, 526740, Note_on_c, 0, 66, 56
2, 526800, Note_off_c, 0, 66, 0
2, 526800, Note_on_c, 0, 67, 57
2, 527040, Note_off_c, 0, 67, 0
2, 527040, Note_on_c, 0, 69, 61
2, 527280, Note_off_c, 0, 69, 0
2, 527280, Note_on_c, 0, 70, 66
2, 527520, Note_off_c, 0, 70, 0
2, 527520, Note_on_c, 0, 72, 71
2, 527640, Note_off_c, 0, 72, 0
2, 527640, Note_on_c, 0, 73, 75
2, 527736, Note_off_c, 0, 73, 0
2, 527760, Note_on_c, 0, 73, 78
2, 527880, Note_off_c, 0, 73, 0
2, 527880, Note_on_c, 0, 74, 83
2, 527976, Note_off_c, 0, 74, 0
2, 528000, Note_on_c, 0, 74, 87
2, 528240, Note_off_c, 0, 74, 0
2, 528240, Note_on_c, 0, 82, 80
2, 528424, Note_off_c, 0, 82, 0
2, 528720, Note_on_c, 0, 82, 72
2, 528904, Note_off_c, 0, 82, 0
2, 529200, Note_on_c, 0, 81, 65
2, 529384, Note_off_c, 0, 81, 0
2, 529680, Note_on_c, 0, 79, 58
2, 529864, Note_off_c, 0, 79, 0
2, 530160, Note_on_c, 0, 79, 81
2, 530344, Note_off_c, 0, 79, 0
2, 530640, Note_on_c, 0, 79, 72
2, 530824, Note_off_c, 0, 79, 0
2, 531120, Note_on_c, 0, 77, 66
2, 531304, Note_off_c, 0, 77, 0
2, 531600, Note_on_c, 0, 75, 60
2, 531784, Note_off_c, 0, 75, 0
2, 531840, Note_on_c, 0, 77, 62
2, 532200, Note_off_c, 0, 77, 0
2, 532200, Note_on_c, 0, 76, 60
2, 532320, Note_off_c, 0, 76, 0
2, 532320, Note_on_c, 0, 79, 60
2, 533760, Note_off_c, 0, 79, 0
2, 533760, Note_on_c, 0, 77, 62
2, 534120, Note_off_c, 0, 77, 0
2, 534120, Note_on_c, 0, 76, 61
2, 534240, Note_off_c, 0, 76, 0
2, 534240, Note_on_c, 0, 79, 61
2, 535200, Note_off_c, 0, 79, 0
2, 535200, Note_on_c, 0, 79, 63
2, 535560, Note_off_c, 0, 79, 0
2, 535560, Note_on_c, 0, 85, 63
2, 535680, Note_off_c, 0, 85, 0
2, 535680, Note_on_c, 0, 85, 63
2, 536160, Note_off_c, 0, 85, 0
2, 536160, Note_on_c, 0, 84, 63
2, 536520, Note_off_c, 0, 84, 0
2, 536520, Note_on_c, 0, 77, 60
2, 536640, Note_off_c, 0, 77, 0
2, 536640, Note_on_c, 0, 77, 60
2, 537120, Note_off_c, 0, 77, 0
2, 537120, Note_on_c, 0, 76, 63
2, 537480, Note_off_c, 0, 76, 0
2, 537480, Note_on_c, 0, 79, 63
2, 537600, Note_off_c, 0, 79, 0
2, 537600, Note_on_c, 0, 79, 63
2, 537840, Note_off_c, 0, 79, 0
2, 537840, Note_on_c, 0, 80, 59
2, 538777, Note_off_c, 0, 80, 0
2, 538800, Note_on_c, 0, 73, 56
2, 539040, Note_off_c, 0, 73, 0
2, 539040, Note_on_c, 0, 72, 57
2, 539280, Note_off_c, 0, 72, 0
2, 539280, Note_on_c, 0, 73, 58
2, 539520, Note_off_c, 0, 73, 0
2, 539520, Note_on_c, 0, 77, 58
2, 539760, Note_off_c, 0, 77, 0
2, 539760, Note_on_c, 0, 75, 55
2, 539820, Note_off_c, 0, 75, 0
2, 539820, Note_on_c, 0, 77, 57
2, 539880, Note_off_c, 0, 77, 0
2, 539880, Note_on_c, 0, 75, 58
2, 539940, Note_off_c, 0, 75, 0
2, 539940, Note_on_c, 0, 74, 59
2, 540000, Note_off_c, 0, 74, 0
2, 540000, Note_on_c, 0, 75, 61
2, 540360, Note_off_c, 0, 75, 0
2, 540360, Note_on_c, 0, 77, 61
2, 540480, Note_off_c, 0, 77, 0
2, 540480, Note_on_c, 0, 78, 62
2, 541080, Note_off_c, 0, 78, 0
2, 541080, Note_on_c, 0, 77, 65
2, 541200, Note_off_c, 0, 77, 0
2, 541200, Note_on_c, 0, 87, 68
2, 541320, Note_off_c, 0, 87, 0
2, 541320, Note_on_c, 0, 84, 71
2, 541440, Note_off_c, 0, 84, 0
2, 541440, Note_on_c, 0, 84, 74
2, 542160, Note_off_c, 0, 84, 0
2, 542160, Note_on_c, 0, 87, 59
2, 542280, Note_off_c, 0, 87, 0
2, 542280, Note_on_c, 0, 85, 55
2, 542437, Note_off_c, 0, 85, 0
2, 542880, Note_on_c, 0, 66, 59
2, 543120, Note_off_c, 0, 66, 0
2, 543120, Note_on_c, 0, 65, 58
2, 543360, Note_off_c, 0, 65, 0
2, 543360, Note_on_c, 0, 65, 56
2, 543720, Note_off_c, 0, 65, 0
2, 543720, Note_on_c, 0, 64, 55
2, 543840, Note_off_c, 0, 64, 0
2, 543840, Note_on_c, 0, 67, 54
2, 544800, Note_off_c, 0, 67, 0
2, 544800, Note_on_c, 0, 67, 70
2, 545160, Note_off_c, 0, 67, 0
2, 545160, Note_on_c, 0, 65, 65
2, 545280, Note_off_c, 0, 65, 0
2, 545280, Note_on_c, 0, 65, 72
2, 545640, Note_off_c, 0, 65, 0
2, 545640, Note_on_c, 0, 64, 69
2, 545760, Note_off_c, 0, 64, 0
2, 545760, Note_on_c, 0, 67, 77
2, 546120, Note_off_c, 0, 67, 0
2, 546120, Note_on_c, 0, 65, 73
2, 546240, Note_off_c, 0, 65, 0
2, 546240, Note_on_c, 0, 68, 81
2, 546600, Note_off_c, 0, 68, 0
2, 546600, Note_on_c, 0, 67, 69
2, 546720, Note_off_c, 0, 67, 0
2, 546720, Note_on_c, 0, 64, 64
2, 546840, Note_off_c, 0, 64, 0
2, 546840, Note_on_c, 0, 67, 63
2, 546960, Note_off_c, 0, 67, 0
2, 546960, Note_on_c, 0, 70, 62
2, 547080, Note_off_c, 0, 70, 0
2, 547080, Note_on_c, 0, 73, 61
2, 547200, Note_off_c, 0, 73, 0
2, 547200, Note_on_c, 0, 72, 60
2, 547320, Note_off_c, 0, 72, 0
2, 547320, Note_on_c, 0, 70, 59
2, 547440, Note_off_c, 0, 70, 0
2, 547440, Note_on_c, 0, 68, 60
2, 547560, Note_off_c, 0, 68, 0
2, 547560, Note_on_c, 0, 67, 60
2, 547680, Note_off_c, 0, 67, 0
2, 547680, Note_on_c, 0, 70, 60
2, 547800, Note_off_c, 0, 70, 0
2, 547800, Note_on_c, 0, 76, 60
2, 547920, Note_off_c, 0, 76, 0
2, 547920, Note_on_c, 0, 79, 60
2, 548040, Note_off_c, 0, 79, 0
2, 548040, Note_on_c, 0, 82, 61
2, 548160, Note_off_c, 0, 82, 0
2, 548160, Note_on_c, 0, 80, 61
2, 548280, Note_off_c, 0, 80, 0
2, 548280, Note_on_c, 0, 79, 61
2, 548400, Note_off_c, 0, 79, 0
2, 548400, Note_on_c, 0, 77, 61
2, 548520, Note_off_c, 0, 77, 0
2, 548520, Note_on_c, 0, 76, 61
2, 548640, Note_off_c, 0, 76, 0
2, 548640, Note_on_c, 0, 79, 62
2, 548760, Note_off_c, 0, 79, 0
2, 548760, Note_on_c, 0, 82, 62
2, 548880, Note_off_c, 0, 82, 0
2, 548880, Note_on_c, 0, 84, 62
2, 549000, Note_off_c, 0, 84, 0
2, 549000, Note_on_c, 0, 85, 62
2, 549120, Note_off_c, 0, 85, 0
2, 549120, Note_on_c, 0, 84, 65
2, 549240, Note_off_c, 0, 84, 0
2, 549240, Note_on_c, 0, 82, 65
2, 549360, Note_off_c, 0, 82, 0
2, 549360, Note_on_c, 0, 80, 64
2, 549480, Note_off_c, 0, 80, 0
2, 549480, Note_on_c, 0, 79, 63
2, 549600, Note_off_c, 0, 79, 0
2, 549600, Note_on_c, 0, 82, 62
2, 549720, Note_off_c, 0, 82, 0
2, 549720, Note_on_c, 0, 79, 61
2, 549840, Note_off_c, 0, 79, 0
2, 549840, Note_on_c, 0, 77, 61
2, 549960, Note_off_c, 0, 77, 0
2, 549960, Note_on_c, 0, 76, 60
2, 550080, Note_off_c, 0, 76, 0
2, 550080, Note_on_c, 0, 82, 59
2, 550200, Note_off_c, 0, 82, 0
2, 550200, Note_on_c, 0, 79, 58
2, 550320, Note_off_c, 0, 79, 0
2, 550320, Note_on_c, 0, 77, 57
2, 550440, Note_off_c, 0, 77, 0
2, 550440, Note_on_c, 0, 76, 57
2, 550560, Note_off_c, 0, 76, 0
2, 550560, Note_on_c, 0, 91, 56
2, 550638, Note_off_c, 0, 91, 0
2, 550680, Note_on_c, 0, 88, 61
2, 550758, Note_off_c, 0, 88, 0
2, 550800, Note_on_c, 0, 85, 63
2, 550878, Note_off_c, 0, 85, 0
2, 550920, Note_on_c, 0, 84, 66
2, 550998, Note_off_c, 0, 84, 0
2, 551040, Note_on_c, 0, 84, 71
2, 551520, Note_off_c, 0, 84, 0
2, 551520, Note_on_c, 0, 79, 69
2, 552480, Note_off_c, 0, 79, 0
2, 552480, Note_on_c, 0, 81, 63
2, 552720, Note_off_c, 0, 81, 0
2, 552720, Note_on_c, 0, 77, 62
2, 552960, Note_off_c, 0, 77, 0
2, 552960, Note_on_c, 0, 77, 61
2, 553200, Note_off_c, 0, 77, 0
2, 553200, Note_on_c, 0, 76, 60
2, 553260, Note_off_c, 0, 76, 0
2, 553260, Note_on_c, 0, 77, 59
2, 553320, Note_off_c, 0, 77, 0
2, 553320, Note_on_c, 0, 76, 59
2, 553380, Note_off_c, 0, 76, 0
2, 553380, Note_on_c, 0, 74, 56
2, 553440, Note_off_c, 0, 74, 0
2, 553440, Note_on_c, 0, 76, 56
2, 553680, Note_off_c, 0, 76, 0
2, 553680, Note_on_c, 0, 77, 59
2, 553920, Note_off_c, 0, 77, 0
2, 553920, Note_on_c, 0, 79, 62
2, 554112, Note_off_c, 0, 79, 0
2, 554160, Note_on_c, 0, 81, 64
2, 554352, Note_off_c, 0, 81, 0
2, 554400, Note_on_c, 0, 82, 65
2, 554520, Note_off_c, 0, 82, 0
2, 554520, Note_on_c, 0, 83, 68
2, 554616, Note_off_c, 0, 83, 0
2, 554640, Note_on_c, 0, 83, 71
2, 554760, Note_off_c, 0, 83, 0
2, 554760, Note_on_c, 0, 84, 74
2, 554856, Note_off_c, 0, 84, 0
2, 554880, Note_on_c, 0, 83, 79
2, 554976, Note_off_c, 0, 83, 0
2, 555000, Note_on_c, 0, 84, 75
2, 555096, Note_off_c, 0, 84, 0
2, 555120, Note_on_c, 0, 86, 71
2, 555216, Note_off_c, 0, 86, 0
2, 555240, Note_on_c, 0, 84, 67
2, 555336, Note_off_c, 0, 84, 0
2, 555360, Note_on_c, 0, 79, 64
2, 555960, Note_on_c, 0, 81, 64
2, 555967, Note_off_c, 0, 79, 0
2, 556008, Note_off_c, 0, 81, 0
2, 556020, Note_on_c, 0, 79, 64
2, 556068, Note_off_c, 0, 79, 0
2, 556080, Note_on_c, 0, 81, 64
2, 556128, Note_off_c, 0, 81, 0
2, 556140, Note_on_c, 0, 79, 64
2, 556188, Note_off_c, 0, 79, 0
2, 556200, Note_on_c, 0, 82, 63
2, 556260, Note_off_c, 0, 82, 0
2, 556260, Note_on_c, 0, 81, 63
2, 556308, Note_off_c, 0, 81, 0
2, 556320, Note_on_c, 0, 82, 63
2, 556380, Note_off_c, 0, 82, 0
2, 556380, Note_on_c, 0, 81, 63
2, 556428, Note_off_c, 0, 81, 0
2, 556440, Note_on_c, 0, 84, 63
2, 556500, Note_off_c, 0, 84, 0
2, 556500, Note_on_c, 0, 83, 62
2, 556548, Note_off_c, 0, 83, 0
2, 556560, Note_on_c, 0, 84, 62
2, 556590, Note_on_c, 0, 83, 62
2, 556608, Note_off_c, 0, 84, 0
2, 556620, Note_on_c, 0, 86, 62
2, 556638, Note_off_c, 0, 83, 0
2, 556650, Note_on_c, 0, 84, 62
2, 556668, Note_off_c, 0, 86, 0
2, 556680, Note_on_c, 0, 89, 62
2, 556700, Note_off_c, 0, 84, 0
2, 556730, Note_off_c, 0, 89, 0
2, 556740, Note_on_c, 0, 77, 62
2, 556790, Note_off_c, 0, 77, 0
2, 556800, Note_on_c, 0, 77, 61
2, 557040, Note_off_c, 0, 77, 0
2, 557040, Note_on_c, 0, 76, 61
2, 557088, Note_off_c, 0, 76, 0
2, 557100, Note_on_c, 0, 77, 60
2, 557148, Note_off_c, 0, 77, 0
2, 557160, Note_on_c, 0, 76, 60
2, 557208, Note_off_c, 0, 76, 0
2, 557220, Note_on_c, 0, 74, 60
2, 557268, Note_off_c, 0, 74, 0
2, 557280, Note_on_c, 0, 76, 60
2, 557520, Note_off_c, 0, 76, 0
2, 557520, Note_on_c, 0, 77, 62
2, 557760, Note_off_c, 0, 77, 0
2, 557760, Note_on_c, 0, 79, 65
2, 557952, Note_off_c, 0, 79, 0
2, 558000, Note_on_c, 0, 80, 67
2, 558192, Note_off_c, 0, 80, 0
2, 558240, Note_on_c, 0, 82, 71
2, 558360, Note_off_c, 0, 82, 0
2, 558360, Note_on_c, 0, 83, 72
2, 558456, Note_off_c, 0, 83, 0
2, 558480, Note_on_c, 0, 83, 74
2, 558600, Note_off_c, 0, 83, 0
2, 558600, Note_on_c, 0, 84, 80
2, 558696, Note_off_c, 0, 84, 0
2, 558720, Note_on_c, 0, 84, 90
2, 558912, Note_off_c, 0, 84, 0
2, 558960, Note_on_c, 0, 92, 81
2, 559152, Note_off_c, 0, 92, 0
2, 559440, Note_on_c, 0, 80, 72
2, 559632, Note_off_c, 0, 80, 0
2, 559920, Note_on_c, 0, 79, 68
2, 560112, Note_off_c, 0, 79, 0
2, 560400, Note_on_c, 0, 77, 64
2, 560592, Note_off_c, 0, 77, 0
2, 560640, Note_on_c, 0, 77, 86
2, 560832, Note_off_c, 0, 77, 0
2, 560880, Note_on_c, 0, 89, 79
2, 561072, Note_off_c, 0, 89, 0
2, 561360, Note_on_c, 0, 77, 71
2, 561552, Note_off_c, 0, 77, 0
2, 561840, Note_on_c, 0, 75, 66
2, 562032, Note_off_c, 0, 75, 0
2, 562320, Note_on_c, 0, 73, 61
2, 562512, Note_off_c, 0, 73, 0
2, 562560, Note_on_c, 0, 72, 65
2, 562848, Note_off_c, 0, 72, 0
2, 562920, Note_on_c, 0, 71, 64
2, 563016, Note_off_c, 0, 71, 0
2, 563040, Note_on_c, 0, 74, 64
2, 564480, Note_off_c, 0, 74, 0
2, 564480, Note_on_c, 0, 72, 60
2, 564840, Note_off_c, 0, 72, 0
2, 564840, Note_on_c, 0, 71, 59
2, 564960, Note_on_c, 0, 74, 57
2, 565000, Note_off_c, 0, 71, 0
2, 565248, Note_off_c, 0, 74, 0
2, 565440, Note_on_c, 0, 74, 58
2, 565800, Note_off_c, 0, 74, 0
2, 565800, Note_on_c, 0, 72, 57
2, 565920, Note_on_c, 0, 75, 56
2, 565980, Note_off_c, 0, 72, 0
2, 566160, Note_off_c, 0, 75, 0
2, 566400, Note_on_c, 0, 75, 55
2, 566760, Note_off_c, 0, 75, 0
2, 566760, Note_on_c, 0, 74, 54
2, 566880, Note_off_c, 0, 74, 0
2, 566880, Note_on_c, 0, 77, 54
2, 568320, Note_off_c, 0, 77, 0
2, 568320, Note_on_c, 0, 75, 50
2, 568680, Note_off_c, 0, 75, 0
2, 568680, Note_on_c, 0, 74, 49
2, 568800, Note_off_c, 0, 74, 0
2, 568800, Note_on_c, 0, 77, 49
2, 569040, Note_off_c, 0, 77, 0
2, 569280, Note_on_c, 0, 77, 48
2, 569640, Note_off_c, 0, 77, 0
2, 569640, Note_on_c, 0, 75, 47
2, 569760, Note_off_c, 0, 75, 0
2, 569760, Note_on_c, 0, 79, 46
2, 570000, Note_off_c, 0, 79, 0
2, 570240, Control_c, 0, 64, 127
2, 570240, Note_on_c, 0, 74, 45
2, 570240, Note_on_c, 0, 79, 45
2, 570240, Note_on_c, 0, 68, 45
2, 570600, Note_off_c, 0, 68, 0
2, 570600, Note_off_c, 0, 79, 0
2, 570600, Note_off_c, 0, 74, 0
2, 570600, Note_on_c, 0, 77, 44
2, 570720, Note_off_c, 0, 77, 0
2, 570720, Note_on_c, 0, 80, 44
2, 571560, Note_off_c, 0, 80, 0
2, 571560, Note_on_c, 0, 77, 42
2, 571680, Note_off_c, 0, 77, 0
2, 571680, Note_on_c, 0, 86, 41
2, 572520, Note_off_c, 0, 86, 0
2, 572520, Note_on_c, 0, 80, 39
2, 572640, Note_off_c, 0, 80, 0
2, 572640, Note_on_c, 0, 89, 39
2, 573480, Note_off_c, 0, 89, 0
2, 573480, Note_on_c, 0, 86, 37
2, 573600, Note_off_c, 0, 86, 0
2, 573600, Note_on_c, 0, 92, 36
2, 574080, Control_c, 0, 64, 0
2, 574080, Control_c, 0, 7, 127
2, 574080, Note_off_c, 0, 92, 0
2, 574080, Note_on_c, 0, 92, 95
2, 574080, Note_on_c, 0, 86, 95
2, 574080, Note_on_c, 0, 89, 95
2, 574080, Note_on_c, 0, 80, 95
2, 574320, Note_on_c, 0, 58, 76
2, 574416, Note_off_c, 0, 58, 0
2, 574420, Note_off_c, 0, 80, 0
2, 574420, Note_off_c, 0, 89, 0
2, 574420, Note_off_c, 0, 86, 0
2, 574420, Note_off_c, 0, 92, 0
2, 574440, Note_on_c, 0, 57, 77
2, 574536, Note_off_c, 0, 57, 0
2, 574560, Note_on_c, 0, 58, 78
2, 574656, Note_off_c, 0, 58, 0
2, 574680, Note_on_c, 0, 62, 79
2, 574776, Note_off_c, 0, 62, 0
2, 574800, Note_on_c, 0, 65, 79
2, 574896, Note_off_c, 0, 65, 0
2, 574920, Note_on_c, 0, 62, 80
2, 575016, Note_off_c, 0, 62, 0
2, 575040, Note_on_c, 0, 65, 81
2, 575136, Note_off_c, 0, 65, 0
2, 575160, Note_on_c, 0, 68, 82
2, 575256, Note_off_c, 0, 68, 0
2, 575280, Note_on_c, 0, 65, 83
2, 575376, Note_off_c, 0, 65, 0
2, 575400, Note_on_c, 0, 62, 84
2, 575496, Note_off_c, 0, 62, 0
2, 575520, Note_on_c, 0, 68, 84
2, 575616, Note_off_c, 0, 68, 0
2, 575640, Note_on_c, 0, 65, 85
2, 575736, Note_off_c, 0, 65, 0
2, 575760, Note_on_c, 0, 68, 86
2, 575856, Note_off_c, 0, 68, 0
2, 575880, Note_on_c, 0, 70, 87
2, 575976, Note_off_c, 0, 70, 0
2, 576000, Note_on_c, 0, 68, 88
2, 576096, Note_off_c, 0, 68, 0
2, 576120, Note_on_c, 0, 65, 88
2, 576216, Note_off_c, 0, 65, 0
2, 576240, Note_on_c, 0, 70, 89
2, 576336, Note_off_c, 0, 70, 0
2, 576360, Note_on_c, 0, 68, 90
2, 576456, Note_off_c, 0, 68, 0
2, 576480, Note_on_c, 0, 70, 91
2, 576576, Note_off_c, 0, 70, 0
2, 576600, Note_on_c, 0, 74, 92
2, 576696, Note_off_c, 0, 74, 0
2, 576720, Note_on_c, 0, 70, 93
2, 576816, Note_off_c, 0, 70, 0
2, 576840, Note_on_c, 0, 68, 93
2, 576936, Note_off_c, 0, 68, 0
2, 576960, Note_on_c, 0, 77, 94
2, 577056, Note_off_c, 0, 77, 0
2, 577080, Note_on_c, 0, 74, 95
2, 577176, Note_off_c, 0, 74, 0
2, 577200, Note_on_c, 0, 77, 96
2, 577296, Note_off_c, 0, 77, 0
2, 577320, Note_on_c, 0, 80, 97
2, 577416, Note_off_c, 0, 80, 0
2, 577440, Note_on_c, 0, 77, 97
2, 577536, Note_off_c, 0, 77, 0
2, 577560, Note_on_c, 0, 74, 98
2, 577656, Note_off_c, 0, 74, 0
2, 577680, Note_on_c, 0, 80, 99
2, 577776, Note_off_c, 0, 80, 0
2, 577800, Note_on_c, 0, 77, 100
2, 577896, Note_off_c, 0, 77, 0
2, 577920, Note_on_c, 0, 80, 101
2, 578016, Note_off_c, 0, 80, 0
2, 578040, Note_on_c, 0, 82, 102
2, 578136, Note_off_c, 0, 82, 0
2, 578160, Note_on_c, 0, 80, 102
2, 578256, Note_off_c, 0, 80, 0
2, 578280, Note_on_c, 0, 77, 103
2, 578376, Note_off_c, 0, 77, 0
2, 578400, Note_on_c, 0, 82, 104
2, 578496, Note_off_c, 0, 82, 0
2, 578520, Note_on_c, 0, 80, 105
2, 578616, Note_off_c, 0, 80, 0
2, 578640, Note_on_c, 0, 82, 106
2, 578736, Note_off_c, 0, 82, 0
2, 578760, Note_on_c, 0, 86, 106
2, 578856, Note_off_c, 0, 86, 0
2, 578880, Note_on_c, 0, 82, 107
2, 578976, Note_off_c, 0, 82, 0
2, 579000, Note_on_c, 0, 80, 108
2, 579096, Note_off_c, 0, 80, 0
2, 579120, Note_on_c, 0, 86, 109
2, 579216, Note_off_c, 0, 86, 0
2, 579240, Note_on_c, 0, 82, 110
2, 579336, Note_off_c, 0, 82, 0
2, 579360, Note_on_c, 0, 86, 111
2, 579456, Note_off_c, 0, 86, 0
2, 579480, Note_on_c, 0, 89, 111
2, 579576, Note_off_c, 0, 89, 0
2, 579600, Note_on_c, 0, 86, 112
2, 579696, Note_off_c, 0, 86, 0
2, 579720, Note_on_c, 0, 82, 113
2, 579816, Note_off_c, 0, 82, 0
2, 579840, Note_on_c, 0, 89, 117
2, 579936, Note_off_c, 0, 89, 0
2, 579960, Note_on_c, 0, 86, 116
2, 580056, Note_off_c, 0, 86, 0
2, 580080, Note_on_c, 0, 89, 115
2, 580176, Note_off_c, 0, 89, 0
2, 580200, Note_on_c, 0, 92, 115
2, 580296, Note_off_c, 0, 92, 0
2, 580320, Note_on_c, 0, 89, 114
2, 580416, Note_off_c, 0, 89, 0
2, 580440, Note_on_c, 0, 86, 113
2, 580536, Note_off_c, 0, 86, 0
2, 580560, Note_on_c, 0, 82, 112
2, 580656, Note_off_c, 0, 82, 0
2, 580680, Note_on_c, 0, 81, 111
2, 580776, Note_off_c, 0, 81, 0
2, 580800, Note_on_c, 0, 82, 110
2, 580896, Note_off_c, 0, 82, 0
2, 580920, Note_on_c, 0, 86, 109
2, 581016, Note_off_c, 0, 86, 0
2, 581040, Note_on_c, 0, 89, 108
2, 581136, Note_off_c, 0, 89, 0
2, 581160, Note_on_c, 0, 86, 108
2, 581256, Note_off_c, 0, 86, 0
2, 581280, Note_on_c, 0, 89, 107
2, 581376, Note_off_c, 0, 89, 0
2, 581400, Note_on_c, 0, 86, 106
2, 581496, Note_off_c, 0, 86, 0
2, 581520, Note_on_c, 0, 89, 105
2, 581616, Note_off_c, 0, 89, 0
2, 581640, Note_on_c, 0, 92, 104
2, 581736, Note_off_c, 0, 92, 0
2, 581760, Note_on_c, 0, 89, 103
2, 581856, Note_off_c, 0, 89, 0
2, 581880, Note_on_c, 0, 86, 102
2, 581976, Note_off_c, 0, 86, 0
2, 582000, Note_on_c, 0, 82, 101
2, 582096, Note_off_c, 0, 82, 0
2, 582120, Note_on_c, 0, 81, 100
2, 582216, Note_off_c, 0, 81, 0
2, 582240, Note_on_c, 0, 82, 100
2, 582336, Note_off_c, 0, 82, 0
2, 582360, Note_on_c, 0, 86, 99
2, 582456, Note_off_c, 0, 86, 0
2, 582480, Note_on_c, 0, 89, 98
2, 582576, Note_off_c, 0, 89, 0
2, 582600, Note_on_c, 0, 86, 97
2, 582696, Note_off_c, 0, 86, 0
2, 582720, Note_on_c, 0, 77, 96
2, 582816, Note_off_c, 0, 77, 0
2, 582840, Note_on_c, 0, 74, 95
2, 582936, Note_off_c, 0, 74, 0
2, 582960, Note_on_c, 0, 77, 94
2, 583056, Note_off_c, 0, 77, 0
2, 583080, Note_on_c, 0, 80, 93
2, 583176, Note_off_c, 0, 80, 0
2, 583200, Note_on_c, 0, 77, 93
2, 583296, Note_off_c, 0, 77, 0
2, 583320, Note_on_c, 0, 74, 92
2, 583416, Note_off_c, 0, 74, 0
2, 583440, Note_on_c, 0, 70, 91
2, 583536, Note_off_c, 0, 70, 0
2, 583560, Note_on_c, 0, 69, 90
2, 583656, Note_off_c, 0, 69, 0
2, 583680, Note_on_c, 0, 70, 89
2, 583776, Note_off_c, 0, 70, 0
2, 583800, Note_on_c, 0, 74, 88
2, 583896, Note_off_c, 0, 74, 0
2, 583920, Note_on_c, 0, 77, 87
2, 584016, Note_off_c, 0, 77, 0
2, 584040, Note_on_c, 0, 74, 86
2, 584136, Note_off_c, 0, 74, 0
2, 584160, Note_on_c, 0, 77, 85
2, 584256, Note_off_c, 0, 77, 0
2, 584280, Note_on_c, 0, 74, 85
2, 584376, Note_off_c, 0, 74, 0
2, 584400, Note_on_c, 0, 77, 84
2, 584496, Note_off_c, 0, 77, 0
2, 584520, Note_on_c, 0, 80, 83
2, 584616, Note_off_c, 0, 80, 0
2, 584640, Note_on_c, 0, 77, 82
2, 584736, Note_off_c, 0, 77, 0
2, 584760, Note_on_c, 0, 74, 81
2, 584856, Note_off_c, 0, 74, 0
2, 584880, Note_on_c, 0, 70, 80
2, 584976, Note_off_c, 0, 70, 0
2, 585000, Note_on_c, 0, 69, 79
2, 585096, Note_off_c, 0, 69, 0
2, 585120, Note_on_c, 0, 70, 78
2, 585216, Note_off_c, 0, 70, 0
2, 585240, Note_on_c, 0, 74, 78
2, 585336, Note_off_c, 0, 74, 0
2, 585360, Note_on_c, 0, 77, 77
2, 585456, Note_off_c, 0, 77, 0
2, 585480, Note_on_c, 0, 74, 76
2, 585577, Note_off_c, 0, 74, 0
2, 585600, Note_on_c, 0, 74, 79
2, 585600, Note_on_c, 0, 68, 95
2, 585600, Note_on_c, 0, 80, 95
2, 585600, Note_on_c, 0, 77, 95
2, 585840, Note_off_c, 0, 77, 0
2, 585840, Note_off_c, 0, 80, 0
2, 585840, Note_off_c, 0, 68, 0
2, 585840, Note_on_c, 0, 58, 90
2, 585862, Note_off_c, 0, 74, 0
2, 585960, Note_off_c, 0, 58, 0
2, 585960, Note_on_c, 0, 57, 89
2, 586056, Note_off_c, 0, 57, 0
2, 586080, Note_on_c, 0, 58, 87
2, 586200, Note_off_c, 0, 58, 0
2, 586200, Note_on_c, 0, 57, 86
2, 586296, Note_off_c, 0, 57, 0
2, 586320, Note_on_c, 0, 60, 84
2, 586440, Note_off_c, 0, 60, 0
2, 586440, Note_on_c, 0, 58, 83
2, 586536, Note_off_c, 0, 58, 0
2, 586560, Note_on_c, 0, 63, 82
2, 586680, Note_off_c, 0, 63, 0
2, 586680, Note_on_c, 0, 62, 80
2, 586776, Note_off_c, 0, 62, 0
2, 586800, Note_on_c, 0, 67, 79
2, 586920, Note_off_c, 0, 67, 0
2, 586920, Note_on_c, 0, 65, 77
2, 587016, Note_off_c, 0, 65, 0
2, 587040, Note_on_c, 0, 70, 76
2, 587160, Note_off_c, 0, 70, 0
2, 587160, Note_on_c, 0, 69, 74
2, 587256, Note_off_c, 0, 69, 0
2, 587280, Note_on_c, 0, 72, 73
2, 587400, Note_off_c, 0, 72, 0
2, 587400, Note_on_c, 0, 70, 72
2, 587496, Note_off_c, 0, 70, 0
2, 587520, Note_on_c, 0, 75, 70
2, 587640, Note_off_c, 0, 75, 0
2, 587640, Note_on_c, 0, 74, 69
2, 587736, Note_off_c, 0, 74, 0
2, 587760, Note_on_c, 0, 79, 67
2, 587880, Note_off_c, 0, 79, 0
2, 587880, Note_on_c, 0, 77, 66
2, 587976, Note_off_c, 0, 77, 0
2, 588000, Note_on_c, 0, 82, 64
2, 588120, Note_off_c, 0, 82, 0
2, 588120, Note_on_c, 0, 81, 63
2, 588216, Note_off_c, 0, 81, 0
2, 588240, Note_on_c, 0, 84, 62
2, 588360, Note_off_c, 0, 84, 0
2, 588360, Note_on_c, 0, 82, 60
2, 588456, Note_off_c, 0, 82, 0
2, 588480, Note_on_c, 0, 82, 60
2, 588720, Note_off_c, 0, 82, 0
2, 588720, Note_on_c, 0, 79, 60
2, 588960, Note_off_c, 0, 79, 0
2, 588960, Note_on_c, 0, 75, 61
2, 589200, Note_off_c, 0, 75, 0
2, 589200, Note_on_c, 0, 74, 62
2, 589440, Note_off_c, 0, 74, 0
2, 589440, Note_on_c, 0, 77, 62
2, 589680, Note_off_c, 0, 77, 0
2, 589680, Note_on_c, 0, 82, 63
2, 589920, Note_off_c, 0, 82, 0
2, 589920, Note_on_c, 0, 82, 64
2, 590160, Note_off_c, 0, 82, 0
2, 590160, Note_on_c, 0, 79, 65
2, 590400, Note_off_c, 0, 79, 0
2, 590400, Note_on_c, 0, 75, 65
2, 590640, Note_off_c, 0, 75, 0
2, 590640, Note_on_c, 0, 75, 66
2, 590880, Note_off_c, 0, 75, 0
2, 590880, Note_on_c, 0, 79, 67
2, 591120, Note_off_c, 0, 79, 0
2, 591120, Note_on_c, 0, 84, 68
2, 591360, Note_off_c, 0, 84, 0
2, 591360, Note_on_c, 0, 84, 68
2, 591600, Note_off_c, 0, 84, 0
2, 591600, Note_on_c, 0, 80, 69
2, 591840, Note_off_c, 0, 80, 0
2, 591840, Note_on_c, 0, 77, 70
2, 592080, Note_off_c, 0, 77, 0
2, 592080, Note_on_c, 0, 76, 70
2, 592320, Note_off_c, 0, 76, 0
2, 592320, Note_on_c, 0, 79, 71
2, 592560, Note_off_c, 0, 79, 0
2, 592560, Note_on_c, 0, 84, 72
2, 592800, Note_off_c, 0, 84, 0
2, 592800, Note_on_c, 0, 84, 75
2, 593040, Note_off_c, 0, 84, 0
2, 593040, Note_on_c, 0, 80, 74
2, 593280, Note_off_c, 0, 80, 0
2, 593280, Note_on_c, 0, 77, 73
2, 593520, Note_off_c, 0, 77, 0
2, 593520, Note_on_c, 0, 74, 72
2, 593760, Note_off_c, 0, 74, 0
2, 593760, Note_on_c, 0, 77, 71
2, 594000, Note_off_c, 0, 77, 0
2, 594000, Note_on_c, 0, 82, 71
2, 594240, Note_off_c, 0, 82, 0
2, 594240, Note_on_c, 0, 82, 70
2, 594480, Note_off_c, 0, 82, 0
2, 594480, Note_on_c, 0, 79, 69
2, 594720, Note_off_c, 0, 79, 0
2, 594720, Note_on_c, 0, 75, 68
2, 594960, Note_off_c, 0, 75, 0
2, 594960, Note_on_c, 0, 72, 67
2, 595200, Note_off_c, 0, 72, 0
2, 595200, Note_on_c, 0, 77, 66
2, 595440, Note_off_c, 0, 77, 0
2, 595440, Note_on_c, 0, 80, 65
2, 595680, Note_off_c, 0, 80, 0
2, 595680, Note_on_c, 0, 70, 64
2, 595920, Note_off_c, 0, 70, 0
2, 595920, Note_on_c, 0, 75, 63
2, 596160, Note_off_c, 0, 75, 0
2, 596160, Note_on_c, 0, 79, 62
2, 596400, Note_off_c, 0, 79, 0
2, 596400, Note_on_c, 0, 70, 61
2, 596640, Note_off_c, 0, 70, 0
2, 596640, Note_on_c, 0, 74, 60
2, 596880, Note_off_c, 0, 74, 0
2, 596880, Note_on_c, 0, 68, 59
2, 596880, Note_on_c, 0, 77, 59
2, 597120, Note_off_c, 0, 77, 0
2, 597120, Note_off_c, 0, 68, 0
2, 597120, Note_on_c, 0, 75, 59
2, 597120, Note_on_c, 0, 67, 59
2, 597360, Note_off_c, 0, 67, 0
2, 597360, Note_off_c, 0, 75, 0
2, 597600, Note_on_c, 0, 79, 52
2, 597840, Note_off_c, 0, 79, 0
2, 597840, Note_on_c, 0, 80, 53
2, 597960, Note_off_c, 0, 80, 0
2, 597960, Note_on_c, 0, 79, 53
2, 598080, Note_off_c, 0, 79, 0
2, 598080, Note_on_c, 0, 80, 54
2, 598200, Note_off_c, 0, 80, 0
2, 598200, Note_on_c, 0, 77, 54
2, 598320, Note_off_c, 0, 77, 0
2, 598320, Note_on_c, 0, 82, 54
2, 598440, Note_off_c, 0, 82, 0
2, 598440, Note_on_c, 0, 80, 54
2, 598560, Note_off_c, 0, 80, 0
2, 598560, Note_on_c, 0, 79, 55
2, 598740, Note_off_c, 0, 79, 0
2, 598800, Note_on_c, 0, 94, 55
2, 598980, Note_off_c, 0, 94, 0
2, 599760, Note_on_c, 0, 67, 57
2, 600000, Note_off_c, 0, 67, 0
2, 600480, Note_on_c, 0, 68, 59
2, 600720, Note_off_c, 0, 68, 0
2, 600720, Note_on_c, 0, 70, 60
2, 600840, Note_off_c, 0, 70, 0
2, 600840, Note_on_c, 0, 68, 60
2, 600960, Note_off_c, 0, 68, 0
2, 600960, Note_on_c, 0, 70, 60
2, 601080, Note_off_c, 0, 70, 0
2, 601080, Note_on_c, 0, 67, 60
2, 601200, Note_off_c, 0, 67, 0
2, 601200, Note_on_c, 0, 72, 61
2, 601320, Note_off_c, 0, 72, 0
2, 601320, Note_on_c, 0, 70, 61
2, 601440, Note_off_c, 0, 70, 0
2, 601440, Note_on_c, 0, 68, 61
2, 601620, Note_off_c, 0, 68, 0
2, 601680, Note_on_c, 0, 84, 62
2, 601860, Note_off_c, 0, 84, 0
2, 602640, Note_on_c, 0, 77, 64
2, 602880, Note_off_c, 0, 77, 0
2, 603360, Note_on_c, 0, 79, 66
2, 603600, Note_off_c, 0, 79, 0
2, 603600, Note_on_c, 0, 80, 66
2, 603720, Note_off_c, 0, 80, 0
2, 603720, Note_on_c, 0, 79, 67
2, 603840, Note_off_c, 0, 79, 0
2, 603840, Note_on_c, 0, 80, 67
2, 603960, Note_off_c, 0, 80, 0
2, 603960, Note_on_c, 0, 77, 67
2, 604080, Note_off_c, 0, 77, 0
2, 604080, Note_on_c, 0, 92, 67
2, 604260, Note_off_c, 0, 92, 0
2, 604800, Note_on_c, 0, 75, 69
2, 605040, Note_off_c, 0, 75, 0
2, 605040, Note_on_c, 0, 77, 70
2, 605160, Note_off_c, 0, 77, 0
2, 605160, Note_on_c, 0, 75, 70
2, 605280, Note_off_c, 0, 75, 0
2, 605280, Note_on_c, 0, 77, 70
2, 605400, Note_off_c, 0, 77, 0
2, 605400, Note_on_c, 0, 74, 71
2, 605520, Note_off_c, 0, 74, 0
2, 605520, Note_on_c, 0, 89, 71
2, 605700, Note_off_c, 0, 89, 0
2, 605760, Note_on_c, 0, 67, 71
2, 605880, Note_on_c, 0, 79, 72
2, 605978, Note_off_c, 0, 67, 0
2, 606000, Note_off_c, 0, 79, 0
2, 606000, Note_on_c, 0, 67, 72
2, 606120, Note_on_c, 0, 79, 72
2, 606218, Note_off_c, 0, 67, 0
2, 606240, Note_off_c, 0, 79, 0
2, 606240, Note_on_c, 0, 70, 72
2, 606360, Note_on_c, 0, 82, 73
2, 606458, Note_off_c, 0, 70, 0
2, 606480, Note_off_c, 0, 82, 0
2, 606480, Note_on_c, 0, 70, 73
2, 606600, Note_on_c, 0, 82, 73
2, 606698, Note_off_c, 0, 70, 0
2, 606720, Note_off_c, 0, 82, 0
2, 606720, Note_on_c, 0, 70, 74
2, 606840, Note_on_c, 0, 82, 74
2, 606938, Note_off_c, 0, 70, 0
2, 606960, Note_off_c, 0, 82, 0
2, 606960, Note_on_c, 0, 68, 74
2, 607080, Note_on_c, 0, 80, 74
2, 607178, Note_off_c, 0, 68, 0
2, 607200, Note_off_c, 0, 80, 0
2, 607200, Note_on_c, 0, 67, 75
2, 607320, Note_on_c, 0, 79, 75
2, 607418, Note_off_c, 0, 67, 0
2, 607440, Note_off_c, 0, 79, 0
2, 607440, Note_on_c, 0, 67, 75
2, 607560, Note_on_c, 0, 79, 76
2, 607658, Note_off_c, 0, 67, 0
2, 607680, Note_off_c, 0, 79, 0
2, 607680, Note_on_c, 0, 70, 76
2, 607800, Note_on_c, 0, 82, 76
2, 607898, Note_off_c, 0, 70, 0
2, 607920, Note_off_c, 0, 82, 0
2, 607920, Note_on_c, 0, 70, 76
2, 608040, Note_on_c, 0, 82, 77
2, 608138, Note_off_c, 0, 70, 0
2, 608160, Note_off_c, 0, 82, 0
2, 608160, Note_on_c, 0, 70, 77
2, 608280, Note_on_c, 0, 82, 77
2, 608378, Note_off_c, 0, 70, 0
2, 608400, Note_off_c, 0, 82, 0
2, 608400, Note_on_c, 0, 67, 92
2, 608520, Note_on_c, 0, 79, 78
2, 608618, Note_off_c, 0, 67, 0
2, 608640, Note_off_c, 0, 79, 0
2, 608640, Note_on_c, 0, 68, 78
2, 608760, Note_on_c, 0, 80, 78
2, 608858, Note_off_c, 0, 68, 0
2, 608880, Note_off_c, 0, 80, 0
2, 608880, Note_on_c, 0, 68, 79
2, 609000, Note_on_c, 0, 80, 79
2, 609098, Note_off_c, 0, 68, 0
2, 609120, Note_off_c, 0, 80, 0
2, 609120, Note_on_c, 0, 72, 79
2, 609240, Note_on_c, 0, 84, 79
2, 609338, Note_off_c, 0, 72, 0
2, 609360, Note_off_c, 0, 84, 0
2, 609360, Note_on_c, 0, 72, 80
2, 609480, Note_on_c, 0, 84, 80
2, 609578, Note_off_c, 0, 72, 0
2, 609600, Note_off_c, 0, 84, 0
2, 609600, Note_on_c, 0, 72, 80
2, 609720, Note_on_c, 0, 84, 81
2, 609818, Note_off_c, 0, 72, 0
2, 609840, Note_off_c, 0, 84, 0
2, 609840, Note_on_c, 0, 70, 81
2, 609960, Note_on_c, 0, 82, 81
2, 610058, Note_off_c, 0, 70, 0
2, 610080, Note_off_c, 0, 82, 0
2, 610080, Note_on_c, 0, 68, 81
2, 610200, Note_on_c, 0, 80, 82
2, 610298, Note_off_c, 0, 68, 0
2, 610320, Note_off_c, 0, 80, 0
2, 610320, Note_on_c, 0, 68, 82
2, 610440, Note_on_c, 0, 80, 82
2, 610538, Note_off_c, 0, 68, 0
2, 610560, Note_off_c, 0, 80, 0
2, 610560, Note_on_c, 0, 72, 83
2, 610680, Note_on_c, 0, 84, 83
2, 610778, Note_off_c, 0, 72, 0
2, 610800, Note_off_c, 0, 84, 0
2, 610800, Note_on_c, 0, 72, 83
2, 610920, Note_on_c, 0, 84, 83
2, 611018, Note_off_c, 0, 72, 0
2, 611040, Note_off_c, 0, 84, 0
2, 611040, Note_on_c, 0, 70, 84
2, 611160, Note_on_c, 0, 82, 84
2, 611258, Note_off_c, 0, 70, 0
2, 611280, Note_off_c, 0, 82, 0
2, 611280, Note_on_c, 0, 68, 100
2, 611400, Note_on_c, 0, 80, 87
2, 611498, Note_off_c, 0, 68, 0
2, 611520, Note_off_c, 0, 80, 0
2, 611520, Note_on_c, 0, 67, 102
2, 611640, Note_on_c, 0, 79, 86
2, 611738, Note_off_c, 0, 67, 0
2, 611760, Note_off_c, 0, 79, 0
2, 611760, Note_on_c, 0, 70, 85
2, 611880, Note_on_c, 0, 82, 86
2, 611978, Note_off_c, 0, 70, 0
2, 612000, Note_off_c, 0, 82, 0
2, 612000, Note_on_c, 0, 75, 86
2, 612120, Note_on_c, 0, 87, 86
2, 612218, Note_off_c, 0, 75, 0
2, 612240, Note_off_c, 0, 87, 0
2, 612240, Note_on_c, 0, 75, 102
2, 612360, Note_on_c, 0, 87, 87
2, 612458, Note_off_c, 0, 75, 0
2, 612480, Note_off_c, 0, 87, 0
2, 612480, Note_on_c, 0, 72, 87
2, 612600, Note_on_c, 0, 84, 87
2, 612698, Note_off_c, 0, 72, 0
2, 612720, Note_off_c, 0, 84, 0
2, 612720, Note_on_c, 0, 68, 88
2, 612840, Note_on_c, 0, 80, 88
2, 612938, Note_off_c, 0, 68, 0
2, 612960, Note_off_c, 0, 80, 0
2, 612960, Note_on_c, 0, 75, 108
2, 613080, Note_on_c, 0, 87, 88
2, 613178, Note_off_c, 0, 75, 0
2, 613200, Note_off_c, 0, 87, 0
2, 613200, Note_on_c, 0, 70, 89
2, 613320, Note_on_c, 0, 82, 89
2, 613418, Note_off_c, 0, 70, 0
2, 613440, Note_off_c, 0, 82, 0
2, 613440, Note_on_c, 0, 67, 89
2, 613560, Note_on_c, 0, 79, 90
2, 613658, Note_off_c, 0, 67, 0
2, 613680, Note_off_c, 0, 79, 0
2, 613680, Note_on_c, 0, 70, 106
2, 613800, Note_on_c, 0, 82, 90
2, 613898, Note_off_c, 0, 70, 0
2, 613920, Note_off_c, 0, 82, 0
2, 613920, Note_on_c, 0, 68, 90
2, 614040, Note_on_c, 0, 80, 91
2, 614138, Note_off_c, 0, 68, 0
2, 614160, Note_off_c, 0, 80, 0
2, 614160, Note_on_c, 0, 65, 91
2, 614280, Note_on_c, 0, 77, 91
2, 614378, Note_off_c, 0, 65, 0
2, 614400, Note_off_c, 0, 77, 0
2, 614400, Note_on_c, 0, 55, 102
2, 614520, Note_on_c, 0, 63, 102
2, 614618, Note_off_c, 0, 55, 0
2, 614640, Note_on_c, 0, 58, 103
2, 614738, Note_off_c, 0, 63, 0
2, 614760, Note_on_c, 0, 67, 103
2, 614858, Note_off_c, 0, 58, 0
2, 614880, Note_on_c, 0, 63, 104
2, 614978, Note_off_c, 0, 67, 0
2, 615000, Note_on_c, 0, 70, 104
2, 615098, Note_off_c, 0, 63, 0
2, 615120, Note_on_c, 0, 67, 105
2, 615218, Note_off_c, 0, 70, 0
2, 615240, Note_on_c, 0, 75, 106
2, 615338, Note_off_c, 0, 67, 0
2, 615360, Note_on_c, 0, 70, 106
2, 615458, Note_off_c, 0, 75, 0
2, 615480, Note_on_c, 0, 79, 107
2, 615578, Note_off_c, 0, 70, 0
2, 615600, Note_on_c, 0, 75, 107
2, 615698, Note_off_c, 0, 79, 0
2, 615720, Note_on_c, 0, 82, 108
2, 615818, Note_off_c, 0, 75, 0
2, 615840, Note_on_c, 0, 79, 108
2, 615938, Note_off_c, 0, 82, 0
2, 615960, Note_on_c, 0, 87, 109
2, 616058, Note_off_c, 0, 79, 0
2, 616080, Note_on_c, 0, 82, 109
2, 616178, Note_off_c, 0, 87, 0
2, 616200, Note_on_c, 0, 91, 110
2, 616298, Note_off_c, 0, 82, 0
2, 616320, Note_on_c, 0, 87, 111
2, 616418, Note_off_c, 0, 91, 0
2, 616440, Note_on_c, 0, 94, 111
2, 616538, Note_off_c, 0, 87, 0
2, 616560, Note_on_c, 0, 93, 112
2, 616570, Note_off_c, 0, 94, 0
2, 616678, Note_off_c, 0, 93, 0
2, 616680, Note_on_c, 0, 94, 112
2, 616800, Note_off_c, 0, 94, 0
2, 616800, Note_on_c, 0, 93, 113
2, 616920, Note_off_c, 0, 93, 0
2, 616920, Note_on_c, 0, 94, 113
2, 617040, Note_off_c, 0, 94, 0
2, 617040, Note_on_c, 0, 93, 114
2, 617160, Note_off_c, 0, 93, 0
2, 617160, Note_on_c, 0, 94, 114
2, 617280, Note_off_c, 0, 94, 0
2, 617280, Note_on_c, 0, 96, 116
2, 617400, Note_off_c, 0, 96, 0
2, 617400, Note_on_c, 0, 94, 115
2, 617520, Note_off_c, 0, 94, 0
2, 617520, Note_on_c, 0, 92, 114
2, 617640, Note_off_c, 0, 92, 0
2, 617640, Note_on_c, 0, 91, 114
2, 617760, Note_off_c, 0, 91, 0
2, 617760, Note_on_c, 0, 89, 113
2, 617880, Note_off_c, 0, 89, 0
2, 617880, Note_on_c, 0, 87, 113
2, 618000, Note_off_c, 0, 87, 0
2, 618000, Note_on_c, 0, 86, 112
2, 618120, Note_off_c, 0, 86, 0
2, 618120, Note_on_c, 0, 84, 111
2, 618240, Note_off_c, 0, 84, 0
2, 618240, Note_on_c, 0, 82, 111
2, 618360, Note_off_c, 0, 82, 0
2, 618360, Note_on_c, 0, 80, 110
2, 618480, Note_off_c, 0, 80, 0
2, 618480, Note_on_c, 0, 79, 110
2, 618600, Note_off_c, 0, 79, 0
2, 618600, Note_on_c, 0, 77, 109
2, 618720, Note_off_c, 0, 77, 0
2, 618720, Note_on_c, 0, 75, 109
2, 618840, Note_off_c, 0, 75, 0
2, 618840, Note_on_c, 0, 74, 108
2, 618960, Note_off_c, 0, 74, 0
2, 618960, Note_on_c, 0, 72, 107
2, 619080, Note_off_c, 0, 72, 0
2, 619080, Note_on_c, 0, 70, 107
2, 619200, Note_off_c, 0, 70, 0
2, 619200, Note_on_c, 0, 68, 106
2, 619320, Note_off_c, 0, 68, 0
2, 619320, Note_on_c, 0, 67, 106
2, 619440, Note_off_c, 0, 67, 0
2, 619440, Note_on_c, 0, 65, 105
2, 619560, Note_off_c, 0, 65, 0
2, 619560, Note_on_c, 0, 62, 105
2, 619680, Note_off_c, 0, 62, 0
2, 619680, Note_on_c, 0, 58, 104
2, 619800, Note_off_c, 0, 58, 0
2, 619800, Note_on_c, 0, 62, 103
2, 619920, Note_off_c, 0, 62, 0
2, 619920, Note_on_c, 0, 68, 103
2, 620040, Note_off_c, 0, 68, 0
2, 620040, Note_on_c, 0, 62, 102
2, 620160, Note_off_c, 0, 62, 0
2, 620160, Note_on_c, 0, 55, 102
2, 620280, Note_on_c, 0, 63, 102
2, 620376, Note_off_c, 0, 55, 0
2, 620400, Note_on_c, 0, 58, 103
2, 620496, Note_off_c, 0, 63, 0
2, 620520, Note_on_c, 0, 67, 103
2, 620616, Note_off_c, 0, 58, 0
2, 620640, Note_on_c, 0, 63, 104
2, 620736, Note_off_c, 0, 67, 0
2, 620760, Note_on_c, 0, 70, 105
2, 620856, Note_off_c, 0, 63, 0
2, 620880, Note_on_c, 0, 67, 105
2, 620976, Note_off_c, 0, 70, 0
2, 621000, Note_on_c, 0, 75, 106
2, 621096, Note_off_c, 0, 67, 0
2, 621120, Note_on_c, 0, 70, 106
2, 621216, Note_off_c, 0, 75, 0
2, 621240, Note_on_c, 0, 79, 107
2, 621336, Note_off_c, 0, 70, 0
2, 621360, Note_on_c, 0, 75, 107
2, 621456, Note_off_c, 0, 79, 0
2, 621480, Note_on_c, 0, 82, 108
2, 621576, Note_off_c, 0, 75, 0
2, 621600, Note_on_c, 0, 79, 108
2, 621696, Note_off_c, 0, 82, 0
2, 621720, Note_on_c, 0, 87, 109
2, 621816, Note_off_c, 0, 79, 0
2, 621840, Note_on_c, 0, 82, 109
2, 621936, Note_off_c, 0, 87, 0
2, 621960, Note_on_c, 0, 91, 110
2, 622056, Note_off_c, 0, 82, 0
2, 622080, Note_on_c, 0, 87, 111
2, 622176, Note_off_c, 0, 91, 0
2, 622200, Note_on_c, 0, 94, 111
2, 622296, Note_off_c, 0, 87, 0
2, 622320, Control_c, 0, 64, 0
2, 622320, Note_off_c, 0, 94, 0
2, 622320, Note_on_c, 0, 93, 112
2, 622440, Note_off_c, 0, 93, 0
2, 622440, Note_on_c, 0, 94, 112
2, 622560, Note_off_c, 0, 94, 0
2, 622560, Note_on_c, 0, 93, 113
2, 622680, Note_off_c, 0, 93, 0
2, 622680, Note_on_c, 0, 94, 113
2, 622800, Note_off_c, 0, 94, 0
2, 622800, Note_on_c, 0, 93, 114
2, 622920, Note_off_c, 0, 93, 0
2, 622920, Note_on_c, 0, 94, 114
2, 623040, Note_off_c, 0, 94, 0
2, 623040, Note_on_c, 0, 96, 118
2, 623160, Note_off_c, 0, 96, 0
2, 623160, Note_on_c, 0, 94, 117
2, 623280, Note_off_c, 0, 94, 0
2, 623280, Note_on_c, 0, 92, 116
2, 623400, Note_off_c, 0, 92, 0
2, 623400, Note_on_c, 0, 91, 116
2, 623520, Note_off_c, 0, 91, 0
2, 623520, Note_on_c, 0, 89, 115
2, 623640, Note_off_c, 0, 89, 0
2, 623640, Note_on_c, 0, 87, 115
2, 623760, Note_off_c, 0, 87, 0
2, 623760, Note_on_c, 0, 86, 114
2, 623880, Note_off_c, 0, 86, 0
2, 623880, Note_on_c, 0, 84, 114
2, 624000, Note_off_c, 0, 84, 0
2, 624000, Note_on_c, 0, 82, 113
2, 624120, Note_off_c, 0, 82, 0
2, 624120, Note_on_c, 0, 80, 113
2, 624240, Note_off_c, 0, 80, 0
2, 624240, Note_on_c, 0, 79, 112
2, 624360, Note_off_c, 0, 79, 0
2, 624360, Note_on_c, 0, 77, 112
2, 624480, Note_off_c, 0, 77, 0
2, 624480, Note_on_c, 0, 75, 111
2, 624560, Note_off_c, 0, 75, 0
2, 624560, Note_on_c, 0, 74, 111
2, 624640, Note_off_c, 0, 74, 0
2, 624640, Note_on_c, 0, 72, 111
2, 624720, Note_off_c, 0, 72, 0
2, 624720, Note_on_c, 0, 70, 110
2, 624800, Note_off_c, 0, 70, 0
2, 624800, Note_on_c, 0, 68, 110
2, 624880, Note_off_c, 0, 68, 0
2, 624880, Note_on_c, 0, 67, 110
2, 624960, Note_off_c, 0, 67, 0
2, 624960, Note_on_c, 0, 65, 109
2, 625040, Note_off_c, 0, 65, 0
2, 625040, Note_on_c, 0, 63, 109
2, 625120, Note_off_c, 0, 63, 0
2, 625120, Note_on_c, 0, 62, 109
2, 625200, Note_off_c, 0, 62, 0
2, 625200, Note_on_c, 0, 60, 108
2, 625320, Note_off_c, 0, 60, 0
2, 625320, Note_on_c, 0, 58, 108
2, 625440, Note_off_c, 0, 58, 0
2, 625440, Note_on_c, 0, 57, 107
2, 625560, Note_off_c, 0, 57, 0
2, 625560, Note_on_c, 0, 60, 107
2, 625680, Note_off_c, 0, 60, 0
2, 625680, Note_on_c, 0, 63, 106
2, 625800, Note_off_c, 0, 63, 0
2, 625800, Note_on_c, 0, 57, 106
2, 625920, Control_c, 0, 64, 0
2, 625920, Control_c, 0, 64, 0
2, 625920, Control_c, 0, 64, 0
2, 625920, Control_c, 0, 64, 0
2, 625920, Note_off_c, 0, 57, 0
2, 625920, Note_on_c, 0, 58, 118
2, 625980, Control_c, 0, 64, 127
2, 625980, Control_c, 0, 64, 127
2, 625980, Control_c, 0, 64, 127
2, 625980, Control_c, 0, 64, 127
2, 626400, Note_off_c, 0, 58, 0
2, 626640, Note_on_c, 0, 70, 115
2, 627120, Note_off_c, 0, 70, 0
2, 627360, Note_on_c, 0, 73, 113
2, 627840, Note_off_c, 0, 73, 0
2, 628080, Note_on_c, 0, 78, 111
2, 628560, Note_off_c, 0, 78, 0
2, 628800, Note_on_c, 0, 73, 110
2, 629280, Note_off_c, 0, 73, 0
2, 629520, Note_on_c, 0, 70, 108
2, 630000, Note_off_c, 0, 70, 0
2, 630240, Note_on_c, 0, 66, 106
2, 630720, Note_off_c, 0, 66, 0
2, 630960, Note_on_c, 0, 61, 104
2, 631440, Note_off_c, 0, 61, 0
2, 631620, Control_c, 0, 64, 0
2, 631680, Control_c, 0, 64, 127
2, 631680, Note_on_c, 0, 57, 118
2, 632160, Note_off_c, 0, 57, 0
2, 632400, Note_on_c, 0, 69, 113
2, 632880, Note_off_c, 0, 69, 0
2, 633120, Note_on_c, 0, 72, 111
2, 633600, Note_off_c, 0, 72, 0
2, 633840, Note_on_c, 0, 77, 109
2, 634320, Note_off_c, 0, 77, 0
2, 634560, Note_on_c, 0, 72, 108
2, 635040, Note_off_c, 0, 72, 0
2, 635280, Note_on_c, 0, 69, 106
2, 635760, Note_off_c, 0, 69, 0
2, 636000, Note_on_c, 0, 65, 104
2, 636480, Note_off_c, 0, 65, 0
2, 636720, Note_on_c, 0, 60, 102
2, 637200, Note_off_c, 0, 60, 0
2, 637380, Control_c, 0, 64, 0
2, 637440, Note_on_c, 0, 73, 62
2, 637680, Note_off_c, 0, 73, 0
2, 637860, Note_on_c, 0, 84, 65
2, 637920, Note_off_c, 0, 84, 0
2, 637920, Note_on_c, 0, 82, 65
2, 638040, Note_off_c, 0, 82, 0
2, 638040, Note_on_c, 0, 81, 66
2, 638160, Note_off_c, 0, 81, 0
2, 638160, Note_on_c, 0, 82, 66
2, 638340, Note_off_c, 0, 82, 0
2, 638580, Note_on_c, 0, 87, 69
2, 638640, Note_off_c, 0, 87, 0
2, 638640, Note_on_c, 0, 85, 69
2, 638760, Note_off_c, 0, 85, 0
2, 638760, Note_on_c, 0, 84, 69
2, 638880, Note_off_c, 0, 84, 0
2, 638880, Note_on_c, 0, 85, 70
2, 639060, Note_off_c, 0, 85, 0
2, 639300, Note_on_c, 0, 92, 72
2, 639360, Note_off_c, 0, 92, 0
2, 639360, Note_on_c, 0, 90, 73
2, 639480, Note_off_c, 0, 90, 0
2, 639480, Note_on_c, 0, 89, 73
2, 639600, Note_off_c, 0, 89, 0
2, 639600, Note_on_c, 0, 90, 73
2, 639780, Note_off_c, 0, 90, 0
2, 640020, Note_on_c, 0, 87, 72
2, 640080, Note_off_c, 0, 87, 0
2, 640080, Note_on_c, 0, 85, 72
2, 640200, Note_off_c, 0, 85, 0
2, 640200, Note_on_c, 0, 84, 72
2, 640320, Note_off_c, 0, 84, 0
2, 640320, Note_on_c, 0, 85, 71
2, 640500, Note_off_c, 0, 85, 0
2, 640740, Note_on_c, 0, 84, 70
2, 640800, Note_off_c, 0, 84, 0
2, 640800, Note_on_c, 0, 82, 70
2, 640920, Note_off_c, 0, 82, 0
2, 640920, Note_on_c, 0, 81, 70
2, 641040, Note_off_c, 0, 81, 0
2, 641040, Note_on_c, 0, 82, 69
2, 641220, Note_off_c, 0, 82, 0
2, 641460, Note_on_c, 0, 80, 68
2, 641520, Note_off_c, 0, 80, 0
2, 641520, Note_on_c, 0, 78, 68
2, 641640, Note_off_c, 0, 78, 0
2, 641640, Note_on_c, 0, 77, 68
2, 641760, Note_off_c, 0, 77, 0
2, 641760, Note_on_c, 0, 78, 67
2, 641940, Note_off_c, 0, 78, 0
2, 642180, Note_on_c, 0, 75, 66
2, 642240, Note_off_c, 0, 75, 0
2, 642240, Note_on_c, 0, 73, 66
2, 642360, Note_off_c, 0, 73, 0
2, 642360, Note_on_c, 0, 72, 66
2, 642480, Note_off_c, 0, 72, 0
2, 642480, Note_on_c, 0, 73, 66
2, 642960, Note_off_c, 0, 73, 0
2, 643200, Note_on_c, 0, 72, 64
2, 643440, Note_off_c, 0, 72, 0
2, 643620, Note_on_c, 0, 82, 66
2, 643680, Note_off_c, 0, 82, 0
2, 643680, Note_on_c, 0, 81, 66
2, 643800, Note_off_c, 0, 81, 0
2, 643800, Note_on_c, 0, 79, 67
2, 643920, Note_off_c, 0, 79, 0
2, 643920, Note_on_c, 0, 81, 67
2, 644100, Note_off_c, 0, 81, 0
2, 644340, Note_on_c, 0, 85, 70
2, 644400, Note_off_c, 0, 85, 0
2, 644400, Note_on_c, 0, 84, 70
2, 644520, Note_off_c, 0, 84, 0
2, 644520, Note_on_c, 0, 83, 71
2, 644640, Note_off_c, 0, 83, 0
2, 644640, Note_on_c, 0, 84, 71
2, 644820, Note_off_c, 0, 84, 0
2, 645060, Note_on_c, 0, 90, 73
2, 645120, Note_off_c, 0, 90, 0
2, 645120, Note_on_c, 0, 89, 74
2, 645240, Note_off_c, 0, 89, 0
2, 645240, Note_on_c, 0, 88, 74
2, 645360, Note_off_c, 0, 88, 0
2, 645360, Note_on_c, 0, 89, 75
2, 645540, Note_off_c, 0, 89, 0
2, 645780, Note_on_c, 0, 85, 74
2, 645840, Note_off_c, 0, 85, 0
2, 645840, Note_on_c, 0, 84, 74
2, 645960, Note_off_c, 0, 84, 0
2, 645960, Note_on_c, 0, 83, 73
2, 646080, Note_off_c, 0, 83, 0
2, 646080, Note_on_c, 0, 84, 73
2, 646260, Note_off_c, 0, 84, 0
2, 646500, Note_on_c, 0, 82, 72
2, 646560, Note_off_c, 0, 82, 0
2, 646560, Note_on_c, 0, 81, 72
2, 646680, Note_off_c, 0, 81, 0
2, 646680, Note_on_c, 0, 79, 71
2, 646800, Note_off_c, 0, 79, 0
2, 646800, Note_on_c, 0, 81, 71
2, 646980, Note_off_c, 0, 81, 0
2, 647220, Note_on_c, 0, 78, 70
2, 647280, Note_off_c, 0, 78, 0
2, 647280, Note_on_c, 0, 77, 69
2, 647400, Note_off_c, 0, 77, 0
2, 647400, Note_on_c, 0, 76, 69
2, 647520, Note_off_c, 0, 76, 0
2, 647520, Note_on_c, 0, 77, 69
2, 647700, Note_off_c, 0, 77, 0
2, 647940, Note_on_c, 0, 73, 67
2, 648000, Note_off_c, 0, 73, 0
2, 648000, Note_on_c, 0, 72, 67
2, 648120, Note_off_c, 0, 72, 0
2, 648120, Note_on_c, 0, 71, 67
2, 648240, Note_off_c, 0, 71, 0
2, 648240, Note_on_c, 0, 72, 67
2, 648420, Note_off_c, 0, 72, 0
2, 648720, Note_on_c, 0, 73, 59
2, 648960, Note_off_c, 0, 73, 0
2, 648960, Note_on_c, 0, 74, 60
2, 649680, Note_off_c, 0, 74, 0
2, 649680, Note_on_c, 0, 70, 63
2, 650400, Note_off_c, 0, 70, 0
2, 650400, Note_on_c, 0, 69, 65
2, 651120, Note_off_c, 0, 69, 0
2, 651120, Note_on_c, 0, 75, 68
2, 651840, Note_off_c, 0, 75, 0
2, 651840, Note_on_c, 0, 74, 75
2, 652560, Note_off_c, 0, 74, 0
2, 652560, Note_on_c, 0, 70, 70
2, 653280, Note_off_c, 0, 70, 0
2, 653280, Note_on_c, 0, 69, 65
2, 654000, Note_off_c, 0, 69, 0
2, 654000, Note_on_c, 0, 75, 59
2, 654720, Note_off_c, 0, 75, 0
2, 654720, Note_on_c, 0, 74, 60
2, 654840, Note_off_c, 0, 74, 0
2, 654840, Note_on_c, 0, 77, 61
2, 654960, Note_off_c, 0, 77, 0
2, 654960, Note_on_c, 0, 79, 62
2, 655040, Note_off_c, 0, 79, 0
2, 655040, Note_on_c, 0, 81, 63
2, 655120, Note_off_c, 0, 81, 0
2, 655120, Note_on_c, 0, 82, 63
2, 655200, Note_off_c, 0, 82, 0
2, 655200, Note_on_c, 0, 84, 64
2, 655280, Note_off_c, 0, 84, 0
2, 655280, Note_on_c, 0, 86, 64
2, 655360, Note_off_c, 0, 86, 0
2, 655360, Note_on_c, 0, 87, 65
2, 655440, Note_off_c, 0, 87, 0
2, 655440, Note_on_c, 0, 89, 65
2, 655560, Note_off_c, 0, 89, 0
2, 655560, Note_on_c, 0, 87, 66
2, 655680, Note_off_c, 0, 87, 0
2, 655680, Note_on_c, 0, 86, 67
2, 655800, Note_off_c, 0, 86, 0
2, 655800, Note_on_c, 0, 84, 68
2, 655920, Note_off_c, 0, 84, 0
2, 655920, Note_on_c, 0, 82, 69
2, 656040, Note_off_c, 0, 82, 0
2, 656040, Note_on_c, 0, 81, 69
2, 656160, Note_off_c, 0, 81, 0
2, 656160, Note_on_c, 0, 79, 70
2, 656280, Note_off_c, 0, 79, 0
2, 656280, Note_on_c, 0, 81, 71
2, 656400, Note_off_c, 0, 81, 0
2, 656400, Note_on_c, 0, 82, 72
2, 656520, Note_off_c, 0, 82, 0
2, 656520, Note_on_c, 0, 84, 73
2, 656640, Note_off_c, 0, 84, 0
2, 656640, Note_on_c, 0, 86, 73
2, 656720, Note_off_c, 0, 86, 0
2, 656720, Note_on_c, 0, 87, 74
2, 656800, Note_off_c, 0, 87, 0
2, 656800, Note_on_c, 0, 89, 74
2, 656880, Note_off_c, 0, 89, 0
2, 656880, Note_on_c, 0, 91, 75
2, 657000, Note_off_c, 0, 91, 0
2, 657000, Note_on_c, 0, 89, 76
2, 657120, Note_off_c, 0, 89, 0
2, 657120, Note_on_c, 0, 87, 77
2, 657200, Note_off_c, 0, 87, 0
2, 657200, Note_on_c, 0, 86, 77
2, 657280, Note_off_c, 0, 86, 0
2, 657280, Note_on_c, 0, 84, 78
2, 657360, Note_off_c, 0, 84, 0
2, 657360, Note_on_c, 0, 82, 78
2, 657440, Note_off_c, 0, 82, 0
2, 657440, Note_on_c, 0, 81, 79
2, 657520, Note_off_c, 0, 81, 0
2, 657520, Note_on_c, 0, 79, 79
2, 657600, Control_c, 0, 64, 127
2, 657600, Note_off_c, 0, 79, 0
2, 657600, Note_on_c, 0, 77, 80
2, 657720, Note_off_c, 0, 77, 0
2, 657720, Note_on_c, 0, 86, 82
2, 657840, Note_off_c, 0, 86, 0
2, 657840, Note_on_c, 0, 82, 84
2, 657960, Note_off_c, 0, 82, 0
2, 657960, Note_on_c, 0, 89, 86
2, 658080, Note_off_c, 0, 89, 0
2, 658080, Note_on_c, 0, 86, 88
2, 658200, Note_off_c, 0, 86, 0
2, 658200, Note_on_c, 0, 94, 90
2, 658320, Note_off_c, 0, 94, 0
2, 658320, Note_on_c, 0, 89, 90
2, 658400, Note_off_c, 0, 89, 0
2, 658400, Note_on_c, 0, 98, 89
2, 658480, Note_off_c, 0, 98, 0
2, 658480, Note_on_c, 0, 94, 87
2, 658560, Note_off_c, 0, 94, 0
2, 658560, Note_on_c, 0, 101, 86
2, 658640, Note_off_c, 0, 101, 0
2, 658640, Note_on_c, 0, 98, 84
2, 658720, Note_off_c, 0, 98, 0
2, 658720, Note_on_c, 0, 94, 83
2, 658800, Note_off_c, 0, 94, 0
2, 658800, Note_on_c, 0, 89, 81
2, 658880, Note_off_c, 0, 89, 0
2, 658880, Note_on_c, 0, 86, 80
2, 658960, Note_off_c, 0, 86, 0
2, 658960, Note_on_c, 0, 82, 78
2, 659040, Note_off_c, 0, 82, 0
2, 659040, Note_on_c, 0, 77, 77
2, 659360, Note_off_c, 0, 77, 0
2, 659760, Control_c, 0, 64, 0
2, 659760, Note_on_c, 0, 84, 69
2, 659840, Note_on_c, 0, 86, 68
2, 659902, Note_off_c, 0, 84, 0
2, 659920, Note_on_c, 0, 84, 67
2, 659985, Note_off_c, 0, 86, 0
2, 660000, Note_on_c, 0, 86, 66
2, 660075, Note_off_c, 0, 84, 0
2, 660080, Note_on_c, 0, 84, 65
2, 660135, Note_off_c, 0, 86, 0
2, 660160, Note_on_c, 0, 86, 64
2, 660217, Note_off_c, 0, 84, 0
2, 660240, Note_on_c, 0, 84, 63
2, 660300, Note_off_c, 0, 86, 0
2, 660320, Note_on_c, 0, 82, 62
2, 660375, Note_off_c, 0, 84, 0
2, 660400, Note_on_c, 0, 84, 61
2, 660457, Note_off_c, 0, 82, 0
2, 660480, Note_off_c, 0, 84, 0
2, 660480, Note_on_c, 0, 86, 60
2, 661200, Note_off_c, 0, 86, 0
2, 661200, Note_on_c, 0, 82, 59
2, 661920, Note_off_c, 0, 82, 0
2, 661920, Note_on_c, 0, 81, 61
2, 662640, Note_off_c, 0, 81, 0
2, 662640, Note_on_c, 0, 87, 63
2, 663360, Note_off_c, 0, 87, 0
2, 663360, Note_on_c, 0, 86, 65
2, 664080, Note_off_c, 0, 86, 0
2, 664080, Note_on_c, 0, 82, 63
2, 664800, Note_off_c, 0, 82, 0
2, 664800, Note_on_c, 0, 81, 60
2, 665520, Note_off_c, 0, 81, 0
2, 665520, Note_on_c, 0, 87, 58
2, 666240, Note_off_c, 0, 87, 0
2, 666480, Note_on_c, 0, 82, 55
2, 666480, Note_on_c, 0, 86, 55
2, 666720, Note_off_c, 0, 86, 0
2, 666720, Note_off_c, 0, 82, 0
2, 666720, Note_on_c, 0, 82, 56
2, 666720, Note_on_c, 0, 86, 56
2, 666960, Note_off_c, 0, 86, 0
2, 666960, Note_off_c, 0, 82, 0
2, 666960, Note_on_c, 0, 82, 57
2, 666960, Note_on_c, 0, 86, 57
2, 667200, Note_off_c, 0, 86, 0
2, 667200, Note_off_c, 0, 82, 0
2, 667200, Note_on_c, 0, 82, 58
2, 667200, Note_on_c, 0, 86, 58
2, 667440, Note_off_c, 0, 86, 0
2, 667440, Note_off_c, 0, 82, 0
2, 667440, Note_on_c, 0, 82, 59
2, 667440, Note_on_c, 0, 86, 59
2, 667680, Note_off_c, 0, 86, 0
2, 667680, Note_off_c, 0, 82, 0
2, 667920, Note_on_c, 0, 82, 61
2, 667920, Note_on_c, 0, 84, 61
2, 668160, Note_off_c, 0, 84, 0
2, 668160, Note_off_c, 0, 82, 0
2, 668160, Note_on_c, 0, 82, 62
2, 668160, Note_on_c, 0, 84, 62
2, 668400, Note_off_c, 0, 84, 0
2, 668400, Note_off_c, 0, 82, 0
2, 668400, Note_on_c, 0, 82, 63
2, 668400, Note_on_c, 0, 84, 63
2, 668640, Note_off_c, 0, 84, 0
2, 668640, Note_off_c, 0, 82, 0
2, 668640, Note_on_c, 0, 82, 64
2, 668640, Note_on_c, 0, 84, 64
2, 668880, Note_off_c, 0, 84, 0
2, 668880, Note_off_c, 0, 82, 0
2, 668880, Note_on_c, 0, 84, 65
2, 668880, Note_on_c, 0, 82, 65
2, 669120, Note_off_c, 0, 82, 0
2, 669120, Note_off_c, 0, 84, 0
2, 669360, Note_on_c, 0, 82, 72
2, 669360, Note_on_c, 0, 86, 72
2, 669600, Note_off_c, 0, 86, 0
2, 669600, Note_off_c, 0, 82, 0
2, 669600, Note_on_c, 0, 82, 78
2, 669600, Note_on_c, 0, 86, 78
2, 669840, Note_off_c, 0, 86, 0
2, 669840, Note_off_c, 0, 82, 0
2, 669840, Note_on_c, 0, 86, 85
2, 669840, Note_on_c, 0, 82, 85
2, 670080, Note_off_c, 0, 82, 0
2, 670080, Note_off_c, 0, 86, 0
2, 670080, Note_on_c, 0, 86, 81
2, 670080, Note_on_c, 0, 82, 81
2, 670320, Note_off_c, 0, 82, 0
2, 670320, Note_off_c, 0, 86, 0
2, 670320, Note_on_c, 0, 82, 78
2, 670320, Note_on_c, 0, 86, 78
2, 670320, Note_on_c, 0, 89, 78
2, 670560, Note_off_c, 0, 89, 0
2, 670560, Note_off_c, 0, 86, 0
2, 670560, Note_off_c, 0, 82, 0
2, 670560, Note_on_c, 0, 81, 74
2, 670560, Note_on_c, 0, 87, 74
2, 670560, Note_on_c, 0, 89, 74
2, 670800, Note_off_c, 0, 89, 0
2, 670800, Note_off_c, 0, 87, 0
2, 670800, Note_off_c, 0, 81, 0
2, 670800, Note_on_c, 0, 81, 70
2, 670800, Note_on_c, 0, 89, 70
2, 670800, Note_on_c, 0, 87, 70
2, 671040, Note_off_c, 0, 87, 0
2, 671040, Note_off_c, 0, 89, 0
2, 671040, Note_off_c, 0, 81, 0
2, 671040, Note_on_c, 0, 81, 66
2, 671040, Note_on_c, 0, 89, 66
2, 671040, Note_on_c, 0, 87, 66
2, 671280, Note_off_c, 0, 87, 0
2, 671280, Note_off_c, 0, 89, 0
2, 671280, Note_off_c, 0, 81, 0
2, 671280, Note_on_c, 0, 81, 62
2, 671280, Note_on_c, 0, 87, 62
2, 671280, Note_on_c, 0, 89, 62
2, 671520, Note_off_c, 0, 89, 0
2, 671520, Note_off_c, 0, 87, 0
2, 671520, Note_off_c, 0, 81, 0
2, 671520, Note_on_c, 0, 81, 58
2, 671520, Note_on_c, 0, 87, 58
2, 671520, Note_on_c, 0, 89, 58
2, 671760, Note_off_c, 0, 89, 0
2, 671760, Note_off_c, 0, 87, 0
2, 671760, Note_off_c, 0, 81, 0
2, 671760, Note_on_c, 0, 81, 54
2, 671760, Note_on_c, 0, 87, 54
2, 671760, Note_on_c, 0, 89, 54
2, 672000, Note_off_c, 0, 89, 0
2, 672000, Note_off_c, 0, 87, 0
2, 672000, Note_off_c, 0, 81, 0
2, 672480, Note_on_c, 0, 80, 61
2, 672480, Note_on_c, 0, 92, 61
2, 673200, Note_off_c, 0, 92, 0
2, 673200, Note_off_c, 0, 80, 0
2, 673200, Note_on_c, 0, 79, 59
2, 673200, Note_on_c, 0, 91, 59
2, 673440, Note_off_c, 0, 91, 0
2, 673440, Note_off_c, 0, 79, 0
2, 673920, Note_on_c, 0, 78, 65
2, 673920, Note_on_c, 0, 90, 65
2, 674640, Note_off_c, 0, 90, 0
2, 674640, Note_off_c, 0, 78, 0
2, 674640, Note_on_c, 0, 89, 64
2, 674640, Note_on_c, 0, 77, 64
2, 674880, Note_off_c, 0, 77, 0
2, 674880, Note_off_c, 0, 89, 0
2, 675360, Note_on_c, 0, 68, 69
2, 675360, Note_on_c, 0, 80, 69
2, 676080, Note_off_c, 0, 80, 0
2, 676080, Note_off_c, 0, 68, 0
2, 676080, Note_on_c, 0, 67, 67
2, 676080, Note_on_c, 0, 79, 67
2, 676320, Note_off_c, 0, 79, 0
2, 676320, Note_off_c, 0, 67, 0
2, 676800, Note_on_c, 0, 66, 73
2, 676800, Note_on_c, 0, 78, 73
2, 677520, Note_off_c, 0, 78, 0
2, 677520, Note_off_c, 0, 66, 0
2, 677520, Note_on_c, 0, 77, 71
2, 677520, Note_on_c, 0, 65, 71
2, 677760, Note_off_c, 0, 65, 0
2, 677760, Note_off_c, 0, 77, 0
2, 678000, Note_on_c, 0, 65, 77
2, 678000, Note_on_c, 0, 70, 77
2, 678000, Note_on_c, 0, 77, 77
2, 678192, Note_off_c, 0, 77, 0
2, 678192, Note_off_c, 0, 70, 0
2, 678192, Note_off_c, 0, 65, 0
2, 678240, Note_on_c, 0, 70, 78
2, 678240, Note_on_c, 0, 77, 78
2, 678240, Note_on_c, 0, 65, 78
2, 678432, Note_off_c, 0, 65, 0
2, 678432, Note_off_c, 0, 77, 0
2, 678432, Note_off_c, 0, 70, 0
2, 678720, Note_on_c, 0, 75, 80
2, 678720, Note_on_c, 0, 67, 80
2, 678720, Note_on_c, 0, 70, 80
2, 678912, Note_off_c, 0, 70, 0
2, 678912, Note_off_c, 0, 67, 0
2, 678912, Note_off_c, 0, 75, 0
2, 678960, Note_on_c, 0, 70, 80
2, 678960, Note_on_c, 0, 67, 80
2, 678960, Note_on_c, 0, 74, 80
2, 679152, Note_off_c, 0, 74, 0
2, 679152, Note_off_c, 0, 67, 0
2, 679152, Note_off_c, 0, 70, 0
2, 679440, Note_on_c, 0, 63, 82
2, 679440, Note_on_c, 0, 74, 82
2, 679440, Note_on_c, 0, 67, 82
2, 679632, Note_off_c, 0, 67, 0
2, 679632, Note_off_c, 0, 74, 0
2, 679632, Note_off_c, 0, 63, 0
2, 679680, Note_on_c, 0, 63, 83
2, 679680, Note_on_c, 0, 72, 83
2, 679680, Note_on_c, 0, 67, 83
2, 679872, Note_off_c, 0, 67, 0
2, 679872, Note_off_c, 0, 72, 0
2, 679872, Note_off_c, 0, 63, 0
2, 680160, Note_on_c, 0, 70, 85
2, 680160, Note_on_c, 0, 60, 85
2, 680160, Note_on_c, 0, 63, 85
2, 680352, Note_off_c, 0, 63, 0
2, 680352, Note_off_c, 0, 60, 0
2, 680352, Note_off_c, 0, 70, 0
2, 680400, Note_on_c, 0, 63, 86
2, 680400, Note_on_c, 0, 60, 86
2, 680400, Note_on_c, 0, 69, 86
2, 680592, Note_off_c, 0, 69, 0
2, 680592, Note_off_c, 0, 60, 0
2, 680592, Note_off_c, 0, 63, 0
2, 680880, Note_on_c, 0, 58, 88
2, 680880, Note_on_c, 0, 70, 88
2, 680880, Note_on_c, 0, 65, 88
2, 681072, Note_off_c, 0, 65, 0
2, 681072, Note_off_c, 0, 70, 0
2, 681072, Note_off_c, 0, 58, 0
2, 681120, Note_on_c, 0, 58, 89
2, 681120, Note_on_c, 0, 62, 89
2, 681120, Note_on_c, 0, 65, 89
2, 681312, Note_off_c, 0, 65, 0
2, 681312, Note_off_c, 0, 62, 0
2, 681312, Note_off_c, 0, 58, 0
2, 681600, Note_on_c, 0, 63, 91
2, 681600, Note_on_c, 0, 58, 91
2, 681600, Note_on_c, 0, 55, 91
2, 681792, Note_off_c, 0, 55, 0
2, 681792, Note_off_c, 0, 58, 0
2, 681792, Note_off_c, 0, 63, 0
2, 681840, Note_on_c, 0, 58, 91
2, 681840, Note_on_c, 0, 62, 91
2, 681840, Note_on_c, 0, 55, 91
2, 682032, Note_off_c, 0, 55, 0
2, 682032, Note_off_c, 0, 62, 0
2, 682032, Note_off_c, 0, 58, 0
2, 682320, Note_on_c, 0, 55, 93
2, 682320, Note_on_c, 0, 62, 93
2, 682320, Note_on_c, 0, 51, 93
2, 682512, Note_off_c, 0, 51, 0
2, 682512, Note_off_c, 0, 62, 0
2, 682512, Note_off_c, 0, 55, 0
2, 682560, Note_on_c, 0, 55, 94
2, 682560, Note_on_c, 0, 60, 94
2, 682560, Note_on_c, 0, 51, 94
2, 682752, Note_off_c, 0, 51, 0
2, 682752, Note_off_c, 0, 60, 0
2, 682752, Note_off_c, 0, 55, 0
2, 683040, Note_on_c, 0, 58, 96
2, 683040, Note_on_c, 0, 48, 96
2, 683040, Note_on_c, 0, 51, 96
2, 683232, Note_off_c, 0, 51, 0
2, 683232, Note_off_c, 0, 48, 0
2, 683232, Note_off_c, 0, 58, 0
2, 683280, Note_on_c, 0, 51, 97
2, 683280, Note_on_c, 0, 57, 97
2, 683280, Note_on_c, 0, 48, 97
2, 683472, Note_off_c, 0, 48, 0
2, 683472, Note_off_c, 0, 57, 0
2, 683472, Note_off_c, 0, 51, 0
2, 683520, Note_on_c, 0, 58, 96
2, 683640, Note_off_c, 0, 58, 0
2, 683640, Note_on_c, 0, 60, 96
2, 683760, Note_off_c, 0, 60, 0
2, 683760, Note_on_c, 0, 62, 96
2, 683880, Note_off_c, 0, 62, 0
2, 683880, Note_on_c, 0, 63, 97
2, 684000, Note_off_c, 0, 63, 0
2, 684000, Note_on_c, 0, 65, 97
2, 684080, Note_off_c, 0, 65, 0
2, 684080, Note_on_c, 0, 67, 97
2, 684160, Note_off_c, 0, 67, 0
2, 684160, Note_on_c, 0, 69, 97
2, 684240, Note_off_c, 0, 69, 0
2, 684240, Note_on_c, 0, 70, 110
2, 684320, Note_off_c, 0, 70, 0
2, 684320, Note_on_c, 0, 72, 98
2, 684400, Note_off_c, 0, 72, 0
2, 684400, Note_on_c, 0, 74, 98
2, 684480, Note_off_c, 0, 74, 0
2, 684480, Note_on_c, 0, 75, 99
2, 684560, Note_off_c, 0, 75, 0
2, 684560, Note_on_c, 0, 77, 99
2, 684640, Note_off_c, 0, 77, 0
2, 684640, Note_on_c, 0, 79, 99
2, 684720, Note_off_c, 0, 79, 0
2, 684720, Note_on_c, 0, 81, 99
2, 684840, Note_off_c, 0, 81, 0
2, 684840, Note_on_c, 0, 69, 99
2, 684960, Note_off_c, 0, 69, 0
2, 684960, Note_on_c, 0, 70, 99
2, 685080, Note_off_c, 0, 70, 0
2, 685080, Note_on_c, 0, 72, 99
2, 685200, Note_off_c, 0, 72, 0
2, 685200, Note_on_c, 0, 74, 100
2, 685320, Note_off_c, 0, 74, 0
2, 685320, Note_on_c, 0, 75, 100
2, 685440, Note_off_c, 0, 75, 0
2, 685440, Note_on_c, 0, 77, 101
2, 685520, Note_off_c, 0, 77, 0
2, 685520, Note_on_c, 0, 79, 101
2, 685600, Note_off_c, 0, 79, 0
2, 685600, Note_on_c, 0, 81, 101
2, 685680, Note_off_c, 0, 81, 0
2, 685680, Note_on_c, 0, 82, 116
2, 685760, Note_off_c, 0, 82, 0
2, 685760, Note_on_c, 0, 84, 102
2, 685840, Note_off_c, 0, 84, 0
2, 685840, Note_on_c, 0, 86, 102
2, 685920, Note_off_c, 0, 86, 0
2, 685920, Note_on_c, 0, 87, 102
2, 686000, Note_off_c, 0, 87, 0
2, 686000, Note_on_c, 0, 89, 102
2, 686080, Note_off_c, 0, 89, 0
2, 686080, Note_on_c, 0, 91, 102
2, 686160, Note_off_c, 0, 91, 0
2, 686160, Note_on_c, 0, 93, 103
2, 686280, Note_off_c, 0, 93, 0
2, 686280, Note_on_c, 0, 81, 103
2, 686400, Note_off_c, 0, 81, 0
2, 686400, Note_on_c, 0, 70, 104
2, 686520, Note_off_c, 0, 70, 0
2, 686520, Note_on_c, 0, 72, 104
2, 686640, Note_off_c, 0, 72, 0
2, 686640, Note_on_c, 0, 74, 104
2, 686760, Note_off_c, 0, 74, 0
2, 686760, Note_on_c, 0, 75, 105
2, 686880, Note_off_c, 0, 75, 0
2, 686880, Note_on_c, 0, 77, 105
2, 686960, Note_off_c, 0, 77, 0
2, 686960, Note_on_c, 0, 79, 106
2, 687040, Note_off_c, 0, 79, 0
2, 687040, Note_on_c, 0, 81, 106
2, 687120, Note_off_c, 0, 81, 0
2, 687120, Note_on_c, 0, 82, 125
2, 687240, Note_off_c, 0, 82, 0
2, 687240, Note_on_c, 0, 84, 106
2, 687360, Note_off_c, 0, 84, 0
2, 687360, Note_on_c, 0, 86, 107
2, 687440, Note_off_c, 0, 86, 0
2, 687440, Note_on_c, 0, 87, 107
2, 687520, Note_off_c, 0, 87, 0
2, 687520, Note_on_c, 0, 89, 107
2, 687600, Note_off_c, 0, 89, 0
2, 687600, Note_on_c, 0, 91, 108
2, 687680, Note_off_c, 0, 91, 0
2, 687680, Note_on_c, 0, 93, 108
2, 687760, Note_off_c, 0, 93, 0
2, 687760, Note_on_c, 0, 81, 108
2, 687840, Note_off_c, 0, 81, 0
2, 687840, Note_on_c, 0, 82, 124
2, 687840, Note_on_c, 0, 94, 124
2, 688207, Note_off_c, 0, 82, 0
2, 688320, Note_off_c, 0, 94, 0
2, 688560, Note_on_c, 0, 82, 121
2, 688920, Note_off_c, 0, 82, 0
2, 689280, Note_on_c, 0, 70, 120
2, 689640, Note_off_c, 0, 70, 0
2, 690480, Note_on_c, 0, 70, 67
2, 690672, Note_off_c, 0, 70, 0
2, 690720, Note_on_c, 0, 70, 65
2, 691080, Note_off_c, 0, 70, 0
2, 691440, Note_on_c, 0, 58, 60
2, 691800, Note_off_c, 0, 58, 0
2, 692160, Note_on_c, 0, 46, 54
2, 692520, Note_off_c, 0, 46, 0
2, 693360, Note_on_c, 0, 70, 56
2, 693360, Note_on_c, 0, 82, 56
2, 693552, Note_off_c, 0, 82, 0
2, 693552, Note_off_c, 0, 70, 0
2, 693600, Note_on_c, 0, 70, 57
2, 693600, Note_on_c, 0, 82, 57
2, 694320, Note_off_c, 0, 82, 0
2, 694320, Note_off_c, 0, 70, 0
2, 694320, Note_on_c, 0, 71, 61
2, 694320, Note_on_c, 0, 83, 61
2, 695040, Note_off_c, 0, 83, 0
2, 695040, Note_off_c, 0, 71, 0
2, 695040, Note_on_c, 0, 72, 64
2, 695040, Note_on_c, 0, 84, 64
2, 695520, Note_on_c, 0, 73, 67
2, 695520, Note_on_c, 0, 85, 67
2, 695527, Note_off_c, 0, 72, 0
2, 695535, Note_off_c, 0, 84, 0
2, 696000, Note_off_c, 0, 85, 0
2, 696000, Note_off_c, 0, 73, 0
2, 696240, Note_on_c, 0, 73, 65
2, 696432, Note_off_c, 0, 73, 0
2, 696480, Note_on_c, 0, 73, 64
2, 696840, Note_off_c, 0, 73, 0
2, 697200, Note_on_c, 0, 61, 61
2, 697560, Note_off_c, 0, 61, 0
2, 697920, Note_on_c, 0, 49, 58
2, 698280, Note_off_c, 0, 49, 0
2, 699120, Note_on_c, 0, 73, 56
2, 699120, Note_on_c, 0, 85, 56
2, 699312, Note_off_c, 0, 85, 0
2, 699312, Note_off_c, 0, 73, 0
2, 699360, Note_on_c, 0, 73, 56
2, 699360, Note_on_c, 0, 85, 56
2, 700080, Note_off_c, 0, 85, 0
2, 700080, Note_off_c, 0, 73, 0
2, 700080, Note_on_c, 0, 75, 58
2, 700080, Note_on_c, 0, 87, 58
2, 701520, Note_off_c, 0, 87, 0
2, 701520, Note_off_c, 0, 75, 0
2, 701520, Note_on_c, 0, 76, 61
2, 701520, Note_on_c, 0, 88, 61
2, 702960, Note_off_c, 0, 88, 0
2, 702960, Note_off_c, 0, 76, 0
2, 702960, Note_on_c, 0, 78, 64
2, 702960, Note_on_c, 0, 90, 64
2, 703680, Note_off_c, 0, 90, 0
2, 703680, Note_off_c, 0, 78, 0
2, 703680, Note_on_c, 0, 79, 66
2, 703680, Note_on_c, 0, 91, 66
2, 704400, Note_off_c, 0, 91, 0
2, 704400, Note_off_c, 0, 79, 0
2, 704400, Note_on_c, 0, 80, 68
2, 704400, Note_on_c, 0, 92, 68
2, 705840, Note_off_c, 0, 92, 0
2, 705840, Note_off_c, 0, 80, 0
2, 705840, Note_on_c, 0, 78, 65
2, 705840, Note_on_c, 0, 90, 65
2, 706560, Note_off_c, 0, 90, 0
2, 706560, Note_off_c, 0, 78, 0
2, 706560, Note_on_c, 0, 76, 62
2, 706560, Note_on_c, 0, 88, 62
2, 707280, Note_off_c, 0, 88, 0
2, 707280, Note_off_c, 0, 76, 0
2, 707280, Note_on_c, 0, 73, 58
2, 707280, Note_on_c, 0, 85, 58
2, 708000, Note_off_c, 0, 85, 0
2, 708000, Note_off_c, 0, 73, 0
2, 708000, Note_on_c, 0, 87, 54
2, 708000, Note_on_c, 0, 75, 54
2, 708480, Note_off_c, 0, 75, 0
2, 708480, Note_on_c, 0, 80, 56
2, 708720, Note_off_c, 0, 80, 0
2, 708720, Note_on_c, 0, 78, 57
2, 709200, Note_off_c, 0, 78, 0
2, 709200, Note_on_c, 0, 75, 59
2, 709440, Note_off_c, 0, 75, 0
2, 709440, Note_off_c, 0, 87, 0
2, 709440, Note_on_c, 0, 85, 61
2, 709440, Note_on_c, 0, 73, 61
2, 709920, Note_off_c, 0, 73, 0
2, 709920, Note_on_c, 0, 80, 59
2, 710160, Note_off_c, 0, 80, 0
2, 710160, Note_on_c, 0, 78, 58
2, 710640, Note_off_c, 0, 78, 0
2, 710640, Note_on_c, 0, 73, 55
2, 710880, Note_off_c, 0, 73, 0
2, 710880, Note_off_c, 0, 85, 0
2, 710880, Note_on_c, 0, 87, 54
2, 711600, Note_off_c, 0, 87, 0
2, 711600, Note_on_c, 0, 83, 57
2, 712320, Note_off_c, 0, 83, 0
2, 712320, Note_on_c, 0, 82, 61
2, 713040, Note_off_c, 0, 82, 0
2, 713040, Note_on_c, 0, 90, 57
2, 713760, Note_off_c, 0, 90, 0
2, 713760, Note_on_c, 0, 78, 53
2, 713760, Note_on_c, 0, 90, 53
2, 714480, Note_off_c, 0, 90, 0
2, 714480, Note_off_c, 0, 78, 0
2, 714480, Note_on_c, 0, 66, 44
2, 714480, Note_on_c, 0, 78, 44
2, 715200, Note_off_c, 0, 78, 0
2, 715200, Note_off_c, 0, 66, 0
2, 715200, Note_on_c, 0, 74, 42
2, 715200, Note_on_c, 0, 66, 42
2, 715200, Note_on_c, 0, 78, 42
2, 715680, Note_off_c, 0, 78, 0
2, 715680, Note_off_c, 0, 66, 0
2, 715680, Note_off_c, 0, 74, 0
2, 715920, Note_on_c, 0, 74, 48
2, 715920, Note_on_c, 0, 79, 48
2, 715920, Note_on_c, 0, 67, 48
2, 716400, Note_off_c, 0, 67, 0
2, 716400, Note_off_c, 0, 79, 0
2, 716400, Note_off_c, 0, 74, 0
2, 716400, Note_on_c, 0, 74, 51
2, 716400, Note_on_c, 0, 81, 51
2, 716400, Note_on_c, 0, 69, 51
2, 716640, Note_off_c, 0, 69, 0
2, 716640, Note_off_c, 0, 81, 0
2, 716640, Note_off_c, 0, 74, 0
2, 716640, Note_on_c, 0, 83, 45
2, 716640, Note_on_c, 0, 74, 45
2, 716640, Note_on_c, 0, 71, 45
2, 717120, Note_off_c, 0, 71, 0
2, 717120, Note_off_c, 0, 74, 0
2, 717120, Note_off_c, 0, 83, 0
2, 717120, Note_on_c, 0, 88, 47
2, 717120, Note_on_c, 0, 76, 47
2, 717360, Note_off_c, 0, 76, 0
2, 717360, Note_off_c, 0, 88, 0
2, 717360, Note_on_c, 0, 74, 48
2, 717360, Note_on_c, 0, 86, 48
2, 717840, Note_off_c, 0, 86, 0
2, 717840, Note_off_c, 0, 74, 0
2, 717840, Note_on_c, 0, 71, 50
2, 717840, Note_on_c, 0, 83, 50
2, 718080, Note_off_c, 0, 83, 0
2, 718080, Note_off_c, 0, 71, 0
2, 718080, Note_on_c, 0, 69, 53
2, 718080, Note_on_c, 0, 81, 53
2, 718560, Note_off_c, 0, 81, 0
2, 718560, Note_off_c, 0, 69, 0
2, 718560, Note_on_c, 0, 76, 50
2, 718560, Note_on_c, 0, 88, 50
2, 718800, Note_off_c, 0, 88, 0
2, 718800, Note_off_c, 0, 76, 0
2, 718800, Note_on_c, 0, 74, 48
2, 718800, Note_on_c, 0, 86, 48
2, 719280, Note_off_c, 0, 86, 0
2, 719280, Note_off_c, 0, 74, 0
2, 719280, Note_on_c, 0, 81, 45
2, 719280, Note_on_c, 0, 69, 45
2, 719520, Note_off_c, 0, 69, 0
2, 719520, Note_off_c, 0, 81, 0
2, 719520, Note_on_c, 0, 83, 44
2, 720240, Note_off_c, 0, 83, 0
2, 720240, Note_on_c, 0, 79, 46
2, 720960, Note_off_c, 0, 79, 0
2, 720960, Note_on_c, 0, 78, 51
2, 721680, Note_off_c, 0, 78, 0
2, 721680, Note_on_c, 0, 84, 48
2, 722400, Note_off_c, 0, 84, 0
2, 722400, Note_on_c, 0, 83, 44
2, 722640, Note_off_c, 0, 83, 0
2, 722880, Note_on_c, 0, 86, 45
2, 723120, Note_off_c, 0, 86, 0
2, 723120, Note_on_c, 0, 86, 58
2, 723360, Note_off_c, 0, 86, 0
2, 723360, Note_on_c, 0, 83, 63
2, 723600, Note_off_c, 0, 83, 0
2, 723600, Note_on_c, 0, 79, 61
2, 723840, Note_off_c, 0, 79, 0
2, 724080, Note_on_c, 0, 71, 57
2, 724320, Note_off_c, 0, 71, 0
2, 724320, Note_on_c, 0, 74, 53
2, 724560, Note_off_c, 0, 74, 0
2, 724560, Note_on_c, 0, 79, 51
2, 724800, Note_off_c, 0, 79, 0
2, 724800, Note_on_c, 0, 83, 49
2, 725040, Note_off_c, 0, 83, 0
2, 725040, Note_on_c, 0, 86, 48
2, 725280, Note_off_c, 0, 86, 0
2, 725280, Note_on_c, 0, 88, 46
2, 725520, Note_off_c, 0, 88, 0
2, 726960, Note_on_c, 0, 79, 58
2, 727200, Note_off_c, 0, 79, 0
2, 727200, Note_on_c, 0, 84, 60
2, 727440, Note_off_c, 0, 84, 0
2, 727440, Note_on_c, 0, 76, 62
2, 727440, Note_on_c, 0, 88, 62
2, 727920, Note_off_c, 0, 88, 0
2, 727920, Note_off_c, 0, 76, 0
2, 727920, Note_on_c, 0, 75, 68
2, 727920, Note_on_c, 0, 87, 68
2, 728160, Note_off_c, 0, 87, 0
2, 728160, Note_off_c, 0, 75, 0
2, 728160, Note_on_c, 0, 87, 71
2, 728400, Note_off_c, 0, 87, 0
2, 728400, Note_on_c, 0, 84, 68
2, 728640, Note_off_c, 0, 84, 0
2, 728640, Note_on_c, 0, 80, 66
2, 728880, Note_off_c, 0, 80, 0
2, 728880, Note_on_c, 0, 79, 64
2, 729120, Note_off_c, 0, 79, 0
2, 729120, Note_on_c, 0, 82, 62
2, 729360, Note_off_c, 0, 82, 0
2, 729360, Note_on_c, 0, 87, 61
2, 729600, Note_off_c, 0, 87, 0
2, 730800, Note_on_c, 0, 70, 75
2, 730800, Note_on_c, 0, 82, 75
2, 730992, Note_off_c, 0, 82, 0
2, 730992, Note_off_c, 0, 70, 0
2, 731040, Note_on_c, 0, 70, 81
2, 731040, Note_on_c, 0, 82, 81
2, 731280, Note_off_c, 0, 82, 0
2, 731280, Note_off_c, 0, 70, 0
2, 731280, Note_on_c, 0, 67, 77
2, 731280, Note_on_c, 0, 79, 77
2, 731520, Note_off_c, 0, 79, 0
2, 731520, Note_off_c, 0, 67, 0
2, 731520, Note_on_c, 0, 75, 73
2, 731520, Note_on_c, 0, 63, 73
2, 731760, Note_off_c, 0, 63, 0
2, 731760, Note_off_c, 0, 75, 0
2, 731760, Note_on_c, 0, 74, 70
2, 731760, Note_on_c, 0, 62, 70
2, 732000, Note_off_c, 0, 62, 0
2, 732000, Note_off_c, 0, 74, 0
2, 732000, Note_on_c, 0, 65, 71
2, 732000, Note_on_c, 0, 77, 71
2, 732192, Note_off_c, 0, 77, 0
2, 732192, Note_off_c, 0, 65, 0
2, 732240, Note_on_c, 0, 70, 72
2, 732240, Note_on_c, 0, 82, 72
2, 732432, Note_off_c, 0, 82, 0
2, 732432, Note_off_c, 0, 70, 0
2, 732480, Note_on_c, 0, 82, 73
2, 732480, Note_on_c, 0, 70, 73
2, 732720, Note_off_c, 0, 70, 0
2, 732720, Note_off_c, 0, 82, 0
2, 732720, Note_on_c, 0, 79, 74
2, 732720, Note_on_c, 0, 67, 74
2, 732960, Note_off_c, 0, 67, 0
2, 732960, Note_off_c, 0, 79, 0
2, 732960, Note_on_c, 0, 63, 76
2, 732960, Note_on_c, 0, 75, 76
2, 733200, Note_off_c, 0, 75, 0
2, 733200, Note_off_c, 0, 63, 0
2, 733200, Note_on_c, 0, 63, 77
2, 733200, Note_on_c, 0, 75, 77
2, 733440, Note_off_c, 0, 75, 0
2, 733440, Note_off_c, 0, 63, 0
2, 733440, Note_on_c, 0, 79, 78
2, 733440, Note_on_c, 0, 67, 78
2, 733632, Note_off_c, 0, 67, 0
2, 733632, Note_off_c, 0, 79, 0
2, 733680, Note_on_c, 0, 84, 79
2, 733680, Note_on_c, 0, 72, 79
2, 733872, Note_off_c, 0, 72, 0
2, 733872, Note_off_c, 0, 84, 0
2, 733920, Note_on_c, 0, 84, 82
2, 733920, Note_on_c, 0, 72, 82
2, 734160, Note_off_c, 0, 72, 0
2, 734160, Note_off_c, 0, 84, 0
2, 734160, Note_on_c, 0, 80, 79
2, 734160, Note_on_c, 0, 68, 79
2, 734400, Note_off_c, 0, 68, 0
2, 734400, Note_off_c, 0, 80, 0
2, 734400, Note_on_c, 0, 65, 80
2, 734400, Note_on_c, 0, 77, 80
2, 734640, Note_off_c, 0, 77, 0
2, 734640, Note_off_c, 0, 65, 0
2, 734640, Note_on_c, 0, 64, 81
2, 734640, Note_on_c, 0, 76, 81
2, 734880, Note_off_c, 0, 76, 0
2, 734880, Note_off_c, 0, 64, 0
2, 734880, Note_on_c, 0, 79, 83
2, 734880, Note_on_c, 0, 67, 83
2, 735072, Note_off_c, 0, 67, 0
2, 735072, Note_off_c, 0, 79, 0
2, 735120, Note_on_c, 0, 84, 84
2, 735120, Note_on_c, 0, 72, 84
2, 735312, Note_off_c, 0, 72, 0
2, 735312, Note_off_c, 0, 84, 0
2, 735360, Note_on_c, 0, 72, 85
2, 735360, Note_on_c, 0, 84, 85
2, 735600, Note_off_c, 0, 84, 0
2, 735600, Note_off_c, 0, 72, 0
2, 735600, Note_on_c, 0, 68, 86
2, 735600, Note_on_c, 0, 80, 86
2, 735840, Note_off_c, 0, 80, 0
2, 735840, Note_off_c, 0, 68, 0
2, 735840, Note_on_c, 0, 77, 87
2, 735840, Note_on_c, 0, 65, 87
2, 736080, Note_off_c, 0, 65, 0
2, 736080, Note_off_c, 0, 77, 0
2, 736080, Note_on_c, 0, 62, 89
2, 736080, Note_on_c, 0, 74, 89
2, 736320, Note_off_c, 0, 74, 0
2, 736320, Note_off_c, 0, 62, 0
2, 736320, Note_on_c, 0, 77, 90
2, 736320, Note_on_c, 0, 65, 90
2, 736512, Note_off_c, 0, 65, 0
2, 736512, Note_off_c, 0, 77, 0
2, 736560, Note_on_c, 0, 82, 91
2, 736560, Note_on_c, 0, 70, 91
2, 736752, Note_off_c, 0, 70, 0
2, 736752, Note_off_c, 0, 82, 0
2, 736800, Note_on_c, 0, 82, 90
2, 736800, Note_on_c, 0, 70, 90
2, 737040, Note_off_c, 0, 70, 0
2, 737040, Note_off_c, 0, 82, 0
2, 737040, Note_on_c, 0, 79, 86
2, 737040, Note_on_c, 0, 67, 86
2, 737280, Note_off_c, 0, 67, 0
2, 737280, Note_off_c, 0, 79, 0
2, 737280, Note_on_c, 0, 75, 82
2, 737280, Note_on_c, 0, 63, 82
2, 737520, Note_off_c, 0, 63, 0
2, 737520, Note_off_c, 0, 75, 0
2, 737520, Note_on_c, 0, 72, 78
2, 737520, Note_on_c, 0, 60, 78
2, 737760, Note_off_c, 0, 60, 0
2, 737760, Note_off_c, 0, 72, 0
2, 737760, Note_on_c, 0, 65, 76
2, 737760, Note_on_c, 0, 77, 76
2, 737952, Note_off_c, 0, 77, 0
2, 737952, Note_off_c, 0, 65, 0
2, 738000, Note_on_c, 0, 80, 75
2, 738000, Note_on_c, 0, 68, 75
2, 738192, Note_off_c, 0, 68, 0
2, 738192, Note_off_c, 0, 80, 0
2, 738240, Note_on_c, 0, 58, 73
2, 738240, Note_on_c, 0, 70, 73
2, 738480, Note_off_c, 0, 70, 0
2, 738480, Note_off_c, 0, 58, 0
2, 738480, Note_on_c, 0, 63, 72
2, 738480, Note_on_c, 0, 75, 72
2, 738672, Note_off_c, 0, 75, 0
2, 738672, Note_off_c, 0, 63, 0
2, 738720, Note_on_c, 0, 79, 70
2, 738720, Note_on_c, 0, 67, 70
2, 738912, Note_off_c, 0, 67, 0
2, 738912, Note_off_c, 0, 79, 0
2, 738960, Note_on_c, 0, 70, 68
2, 738960, Note_on_c, 0, 58, 68
2, 739200, Note_off_c, 0, 58, 0
2, 739200, Note_off_c, 0, 70, 0
2, 739200, Note_on_c, 0, 62, 67
2, 739200, Note_on_c, 0, 74, 67
2, 739392, Note_off_c, 0, 74, 0
2, 739392, Note_off_c, 0, 62, 0
2, 739440, Note_on_c, 0, 68, 65
2, 739560, Note_on_c, 0, 77, 64
2, 739680, Note_off_c, 0, 77, 0
2, 739680, Note_off_c, 0, 68, 0
2, 739800, Note_on_c, 0, 79, 63
2, 739920, Note_on_c, 0, 82, 63
2, 739985, Note_off_c, 0, 79, 0
2, 740040, Note_on_c, 0, 87, 64
2, 740105, Note_off_c, 0, 82, 0
2, 740160, Note_on_c, 0, 91, 64
2, 740225, Note_off_c, 0, 87, 0
2, 740280, Note_on_c, 0, 79, 65
2, 740345, Note_off_c, 0, 91, 0
2, 740465, Note_off_c, 0, 79, 0
2, 740520, Note_on_c, 0, 80, 65
2, 740640, Note_on_c, 0, 82, 66
2, 740705, Note_off_c, 0, 80, 0
2, 740760, Note_on_c, 0, 89, 66
2, 740825, Note_off_c, 0, 82, 0
2, 740880, Note_on_c, 0, 92, 67
2, 740945, Note_off_c, 0, 89, 0
2, 741000, Note_on_c, 0, 80, 67
2, 741065, Note_off_c, 0, 92, 0
2, 741135, Note_off_c, 0, 80, 0
2, 741240, Note_on_c, 0, 79, 68
2, 741360, Note_on_c, 0, 82, 68
2, 741425, Note_off_c, 0, 79, 0
2, 741480, Note_on_c, 0, 87, 69
2, 741545, Note_off_c, 0, 82, 0
2, 741600, Note_on_c, 0, 91, 69
2, 741665, Note_off_c, 0, 87, 0
2, 741720, Note_on_c, 0, 79, 70
2, 741785, Note_off_c, 0, 91, 0
2, 741905, Note_off_c, 0, 79, 0
2, 741960, Note_on_c, 0, 79, 71
2, 742080, Note_on_c, 0, 82, 71
2, 742145, Note_off_c, 0, 79, 0
2, 742200, Note_on_c, 0, 87, 71
2, 742265, Note_off_c, 0, 82, 0
2, 742320, Note_on_c, 0, 91, 72
2, 742385, Note_off_c, 0, 87, 0
2, 742440, Note_on_c, 0, 88, 72
2, 742505, Note_off_c, 0, 91, 0
2, 742575, Note_off_c, 0, 88, 0
2, 742680, Note_on_c, 0, 80, 73
2, 742800, Note_on_c, 0, 84, 74
2, 742865, Note_off_c, 0, 80, 0
2, 742920, Note_on_c, 0, 89, 74
2, 742985, Note_off_c, 0, 84, 0
2, 743040, Note_on_c, 0, 92, 74
2, 743105, Note_off_c, 0, 89, 0
2, 743160, Note_on_c, 0, 80, 75
2, 743225, Note_off_c, 0, 92, 0
2, 743345, Note_off_c, 0, 80, 0
2, 743400, Note_on_c, 0, 82, 76
2, 743520, Note_on_c, 0, 84, 76
2, 743585, Note_off_c, 0, 82, 0
2, 743640, Note_on_c, 0, 91, 77
2, 743705, Note_off_c, 0, 84, 0
2, 743760, Note_on_c, 0, 94, 77
2, 743825, Note_off_c, 0, 91, 0
2, 743880, Note_on_c, 0, 82, 77
2, 743945, Note_off_c, 0, 94, 0
2, 744065, Note_off_c, 0, 82, 0
2, 744120, Note_on_c, 0, 80, 78
2, 744240, Note_on_c, 0, 84, 79
2, 744305, Note_off_c, 0, 80, 0
2, 744360, Note_on_c, 0, 89, 79
2, 744425, Note_off_c, 0, 84, 0
2, 744480, Note_on_c, 0, 92, 80
2, 744545, Note_off_c, 0, 89, 0
2, 744600, Note_on_c, 0, 80, 80
2, 744665, Note_off_c, 0, 92, 0
2, 744785, Note_off_c, 0, 80, 0
2, 744840, Note_on_c, 0, 80, 81
2, 744960, Note_on_c, 0, 82, 81
2, 745025, Note_off_c, 0, 80, 0
2, 745080, Note_on_c, 0, 89, 82
2, 745145, Note_off_c, 0, 82, 0
2, 745200, Note_on_c, 0, 92, 82
2, 745265, Note_off_c, 0, 89, 0
2, 745320, Note_on_c, 0, 80, 83
2, 745385, Note_off_c, 0, 92, 0
2, 745455, Note_off_c, 0, 80, 0
2, 745560, Note_on_c, 0, 79, 84
2, 745680, Note_on_c, 0, 82, 84
2, 745745, Note_off_c, 0, 79, 0
2, 745800, Note_on_c, 0, 87, 84
2, 745865, Note_off_c, 0, 82, 0
2, 745920, Note_on_c, 0, 91, 85
2, 745985, Note_off_c, 0, 87, 0
2, 746040, Note_on_c, 0, 79, 85
2, 746105, Note_off_c, 0, 91, 0
2, 746225, Note_off_c, 0, 79, 0
2, 746280, Note_on_c, 0, 92, 86
2, 746400, Note_on_c, 0, 89, 87
2, 746465, Note_off_c, 0, 92, 0
2, 746520, Note_on_c, 0, 84, 87
2, 746585, Note_off_c, 0, 89, 0
2, 746640, Note_on_c, 0, 80, 87
2, 746705, Note_off_c, 0, 84, 0
2, 746760, Note_on_c, 0, 92, 88
2, 746825, Note_off_c, 0, 80, 0
2, 746945, Note_off_c, 0, 92, 0
2, 747000, Note_on_c, 0, 94, 89
2, 747120, Note_on_c, 0, 91, 89
2, 747185, Note_off_c, 0, 94, 0
2, 747240, Note_on_c, 0, 87, 90
2, 747305, Note_off_c, 0, 91, 0
2, 747360, Note_on_c, 0, 82, 90
2, 747425, Note_off_c, 0, 87, 0
2, 747480, Note_on_c, 0, 94, 90
2, 747545, Note_off_c, 0, 82, 0
2, 747665, Note_off_c, 0, 94, 0
2, 747720, Note_on_c, 0, 94, 91
2, 747840, Note_on_c, 0, 89, 92
2, 747905, Note_off_c, 0, 94, 0
2, 747960, Note_on_c, 0, 86, 92
2, 748025, Note_off_c, 0, 89, 0
2, 748080, Note_on_c, 0, 82, 93
2, 748145, Note_off_c, 0, 86, 0
2, 748200, Note_on_c, 0, 94, 93
2, 748265, Note_off_c, 0, 82, 0
2, 748320, Note_off_c, 0, 94, 0
2, 748320, Note_on_c, 0, 55, 102
2, 748440, Note_on_c, 0, 63, 102
2, 748560, Note_on_c, 0, 58, 103
2, 748656, Note_off_c, 0, 55, 0
2, 748664, Note_off_c, 0, 63, 0
2, 748680, Note_on_c, 0, 67, 103
2, 748784, Note_off_c, 0, 58, 0
2, 748800, Note_on_c, 0, 63, 104
2, 748904, Note_off_c, 0, 67, 0
2, 748920, Note_on_c, 0, 70, 104
2, 749024, Note_off_c, 0, 63, 0
2, 749040, Note_on_c, 0, 67, 105
2, 749144, Note_off_c, 0, 70, 0
2, 749160, Note_on_c, 0, 75, 105
2, 749264, Note_off_c, 0, 67, 0
2, 749280, Note_on_c, 0, 70, 105
2, 749384, Note_off_c, 0, 75, 0
2, 749400, Note_on_c, 0, 79, 106
2, 749504, Note_off_c, 0, 70, 0
2, 749520, Note_on_c, 0, 75, 106
2, 749624, Note_off_c, 0, 79, 0
2, 749640, Note_on_c, 0, 82, 107
2, 749744, Note_off_c, 0, 75, 0
2, 749760, Note_on_c, 0, 79, 107
2, 749864, Note_off_c, 0, 82, 0
2, 749880, Note_on_c, 0, 87, 108
2, 749984, Note_off_c, 0, 79, 0
2, 750000, Note_on_c, 0, 82, 108
2, 750104, Note_off_c, 0, 87, 0
2, 750120, Note_on_c, 0, 91, 109
2, 750224, Note_off_c, 0, 82, 0
2, 750240, Note_on_c, 0, 87, 109
2, 750344, Note_off_c, 0, 91, 0
2, 750360, Note_on_c, 0, 94, 110
2, 750464, Note_off_c, 0, 87, 0
2, 750480, Note_off_c, 0, 94, 0
2, 750480, Note_on_c, 0, 93, 110
2, 750600, Note_off_c, 0, 93, 0
2, 750600, Note_on_c, 0, 94, 111
2, 750720, Note_off_c, 0, 94, 0
2, 750720, Note_on_c, 0, 93, 111
2, 750840, Note_off_c, 0, 93, 0
2, 750840, Note_on_c, 0, 94, 112
2, 750960, Note_off_c, 0, 94, 0
2, 750960, Note_on_c, 0, 93, 112
2, 751080, Note_off_c, 0, 93, 0
2, 751080, Note_on_c, 0, 94, 113
2, 751200, Note_off_c, 0, 94, 0
2, 751200, Note_on_c, 0, 96, 113
2, 751320, Note_off_c, 0, 96, 0
2, 751320, Note_on_c, 0, 94, 113
2, 751440, Note_off_c, 0, 94, 0
2, 751440, Note_on_c, 0, 92, 113
2, 751560, Note_off_c, 0, 92, 0
2, 751560, Note_on_c, 0, 91, 112
2, 751680, Note_off_c, 0, 91, 0
2, 751680, Note_on_c, 0, 89, 112
2, 751800, Note_off_c, 0, 89, 0
2, 751800, Note_on_c, 0, 87, 112
2, 751920, Note_off_c, 0, 87, 0
2, 751920, Note_on_c, 0, 86, 112
2, 752040, Note_off_c, 0, 86, 0
2, 752040, Note_on_c, 0, 84, 111
2, 752160, Note_off_c, 0, 84, 0
2, 752160, Note_on_c, 0, 82, 111
2, 752280, Note_off_c, 0, 82, 0
2, 752280, Note_on_c, 0, 80, 111
2, 752400, Note_off_c, 0, 80, 0
2, 752400, Note_on_c, 0, 79, 110
2, 752520, Note_off_c, 0, 79, 0
2, 752520, Note_on_c, 0, 77, 110
2, 752640, Note_off_c, 0, 77, 0
2, 752640, Note_on_c, 0, 75, 110
2, 752760, Note_off_c, 0, 75, 0
2, 752760, Note_on_c, 0, 74, 109
2, 752880, Note_off_c, 0, 74, 0
2, 752880, Note_on_c, 0, 72, 109
2, 753000, Note_off_c, 0, 72, 0
2, 753000, Note_on_c, 0, 70, 109
2, 753120, Note_off_c, 0, 70, 0
2, 753120, Note_on_c, 0, 68, 108
2, 753240, Note_off_c, 0, 68, 0
2, 753240, Note_on_c, 0, 67, 108
2, 753360, Note_off_c, 0, 67, 0
2, 753360, Note_on_c, 0, 65, 108
2, 753480, Note_off_c, 0, 65, 0
2, 753480, Note_on_c, 0, 63, 107
2, 753600, Note_off_c, 0, 63, 0
2, 753600, Note_on_c, 0, 62, 107
2, 753720, Note_off_c, 0, 62, 0
2, 753720, Note_on_c, 0, 65, 107
2, 753840, Note_off_c, 0, 65, 0
2, 753840, Note_on_c, 0, 68, 106
2, 753960, Note_off_c, 0, 68, 0
2, 753960, Note_on_c, 0, 62, 106
2, 754080, Note_off_c, 0, 62, 0
2, 754080, Note_on_c, 0, 55, 108
2, 754200, Note_on_c, 0, 63, 108
2, 754320, Note_on_c, 0, 58, 108
2, 754416, Note_off_c, 0, 55, 0
2, 754424, Note_off_c, 0, 63, 0
2, 754440, Note_on_c, 0, 67, 109
2, 754544, Note_off_c, 0, 58, 0
2, 754560, Note_on_c, 0, 63, 109
2, 754664, Note_off_c, 0, 67, 0
2, 754680, Note_on_c, 0, 70, 110
2, 754784, Note_off_c, 0, 63, 0
2, 754800, Note_on_c, 0, 67, 110
2, 754904, Note_off_c, 0, 70, 0
2, 754920, Note_on_c, 0, 75, 110
2, 755024, Note_off_c, 0, 67, 0
2, 755040, Note_on_c, 0, 70, 111
2, 755144, Note_off_c, 0, 75, 0
2, 755160, Note_on_c, 0, 79, 111
2, 755264, Note_off_c, 0, 70, 0
2, 755280, Note_on_c, 0, 75, 112
2, 755384, Note_off_c, 0, 79, 0
2, 755400, Note_on_c, 0, 82, 112
2, 755504, Note_off_c, 0, 75, 0
2, 755520, Note_on_c, 0, 79, 112
2, 755624, Note_off_c, 0, 82, 0
2, 755640, Note_on_c, 0, 87, 113
2, 755744, Note_off_c, 0, 79, 0
2, 755760, Note_on_c, 0, 82, 113
2, 755864, Note_off_c, 0, 87, 0
2, 755880, Note_on_c, 0, 91, 114
2, 755984, Note_off_c, 0, 82, 0
2, 756000, Note_on_c, 0, 87, 114
2, 756104, Note_off_c, 0, 91, 0
2, 756120, Note_on_c, 0, 94, 114
2, 756224, Note_off_c, 0, 87, 0
2, 756240, Note_off_c, 0, 94, 0
2, 756240, Note_on_c, 0, 93, 115
2, 756360, Note_off_c, 0, 93, 0
2, 756360, Note_on_c, 0, 94, 115
2, 756480, Note_off_c, 0, 94, 0
2, 756480, Note_on_c, 0, 93, 116
2, 756600, Note_off_c, 0, 93, 0
2, 756600, Note_on_c, 0, 94, 116
2, 756720, Note_off_c, 0, 94, 0
2, 756720, Note_on_c, 0, 93, 116
2, 756840, Note_off_c, 0, 93, 0
2, 756840, Note_on_c, 0, 94, 117
2, 756960, Note_off_c, 0, 94, 0
2, 756960, Note_on_c, 0, 96, 117
2, 757080, Note_off_c, 0, 96, 0
2, 757080, Note_on_c, 0, 94, 117
2, 757200, Note_off_c, 0, 94, 0
2, 757200, Note_on_c, 0, 92, 117
2, 757320, Note_off_c, 0, 92, 0
2, 757320, Note_on_c, 0, 91, 116
2, 757440, Note_off_c, 0, 91, 0
2, 757440, Note_on_c, 0, 89, 116
2, 757560, Note_off_c, 0, 89, 0
2, 757560, Note_on_c, 0, 87, 116
2, 757680, Note_off_c, 0, 87, 0
2, 757680, Note_on_c, 0, 86, 115
2, 757800, Note_off_c, 0, 86, 0
2, 757800, Note_on_c, 0, 84, 115
2, 757920, Note_off_c, 0, 84, 0
2, 757920, Note_on_c, 0, 82, 115
2, 758040, Note_off_c, 0, 82, 0
2, 758040, Note_on_c, 0, 80, 114
2, 758160, Note_off_c, 0, 80, 0
2, 758160, Note_on_c, 0, 79, 114
2, 758280, Note_off_c, 0, 79, 0
2, 758280, Note_on_c, 0, 77, 114
2, 758400, Note_off_c, 0, 77, 0
2, 758400, Note_on_c, 0, 75, 113
2, 758520, Note_off_c, 0, 75, 0
2, 758520, Note_on_c, 0, 74, 113
2, 758640, Note_off_c, 0, 74, 0
2, 758640, Note_on_c, 0, 72, 113
2, 758760, Note_off_c, 0, 72, 0
2, 758760, Note_on_c, 0, 70, 112
2, 758880, Note_off_c, 0, 70, 0
2, 758880, Note_on_c, 0, 68, 112
2, 759000, Note_off_c, 0, 68, 0
2, 759000, Note_on_c, 0, 67, 112
2, 759120, Note_off_c, 0, 67, 0
2, 759120, Note_on_c, 0, 65, 111
2, 759240, Note_off_c, 0, 65, 0
2, 759240, Note_on_c, 0, 63, 111
2, 759360, Note_off_c, 0, 63, 0
2, 759360, Note_on_c, 0, 62, 111
2, 759480, Note_off_c, 0, 62, 0
2, 759480, Note_on_c, 0, 65, 110
2, 759600, Note_off_c, 0, 65, 0
2, 759600, Note_on_c, 0, 68, 110
2, 759720, Note_off_c, 0, 68, 0
2, 759720, Note_on_c, 0, 62, 110
2, 759840, Control_c, 0, 64, 0
2, 759840, Note_off_c, 0, 62, 0
2, 759840, Note_on_c, 0, 63, 120
2, 759900, Control_c, 0, 64, 127
2, 760560, Note_off_c, 0, 63, 0
2, 760560, Note_on_c, 0, 75, 112
2, 761280, Note_off_c, 0, 75, 0
2, 761280, Note_on_c, 0, 78, 111
2, 762000, Note_off_c, 0, 78, 0
2, 762000, Note_on_c, 0, 83, 110
2, 762720, Note_off_c, 0, 83, 0
2, 762720, Note_on_c, 0, 78, 109
2, 763440, Note_off_c, 0, 78, 0
2, 763440, Note_on_c, 0, 75, 107
2, 764160, Note_off_c, 0, 75, 0
2, 764160, Note_on_c, 0, 71, 106
2, 764880, Note_off_c, 0, 71, 0
2, 764880, Note_on_c, 0, 66, 105
2, 765540, Control_c, 0, 64, 0
2, 765600, Control_c, 0, 64, 127
2, 765600, Note_off_c, 0, 66, 0
2, 765600, Note_on_c, 0, 62, 121
2, 766320, Note_off_c, 0, 62, 0
2, 766320, Note_on_c, 0, 74, 113
2, 767040, Note_off_c, 0, 74, 0
2, 767040, Note_on_c, 0, 77, 111
2, 767760, Note_off_c, 0, 77, 0
2, 767760, Note_on_c, 0, 82, 109
2, 768480, Note_off_c, 0, 82, 0
2, 768480, Note_on_c, 0, 77, 108
2, 769200, Note_off_c, 0, 77, 0
2, 769200, Note_on_c, 0, 74, 106
2, 769920, Note_off_c, 0, 74, 0
2, 769920, Note_on_c, 0, 70, 104
2, 770640, Note_off_c, 0, 70, 0
2, 770640, Note_on_c, 0, 65, 102
2, 771300, Control_c, 0, 64, 0
2, 771360, Note_off_c, 0, 65, 0
2, 771360, Note_on_c, 0, 78, 64
2, 771600, Note_off_c, 0, 78, 0
2, 771780, Note_on_c, 0, 89, 65
2, 771840, Note_off_c, 0, 89, 0
2, 771840, Note_on_c, 0, 87, 66
2, 771960, Note_off_c, 0, 87, 0
2, 771960, Note_on_c, 0, 86, 66
2, 772080, Note_off_c, 0, 86, 0
2, 772080, Note_on_c, 0, 87, 66
2, 772200, Note_off_c, 0, 87, 0
2, 772500, Note_on_c, 0, 92, 68
2, 772560, Note_off_c, 0, 92, 0
2, 772560, Note_on_c, 0, 90, 68
2, 772680, Note_off_c, 0, 90, 0
2, 772680, Note_on_c, 0, 89, 68
2, 772800, Note_off_c, 0, 89, 0
2, 772800, Note_on_c, 0, 90, 68
2, 772920, Note_off_c, 0, 90, 0
2, 773220, Note_on_c, 0, 96, 70
2, 773280, Note_off_c, 0, 96, 0
2, 773280, Note_on_c, 0, 95, 70
2, 773400, Note_off_c, 0, 95, 0
2, 773400, Note_on_c, 0, 94, 70
2, 773520, Note_off_c, 0, 94, 0
2, 773520, Note_on_c, 0, 95, 70
2, 773640, Note_off_c, 0, 95, 0
2, 773940, Note_on_c, 0, 92, 73
2, 774000, Note_off_c, 0, 92, 0
2, 774000, Note_on_c, 0, 90, 73
2, 774120, Note_off_c, 0, 90, 0
2, 774120, Note_on_c, 0, 89, 72
2, 774240, Note_off_c, 0, 89, 0
2, 774240, Note_on_c, 0, 90, 72
2, 774360, Note_off_c, 0, 90, 0
2, 774660, Note_on_c, 0, 89, 71
2, 774720, Note_off_c, 0, 89, 0
2, 774720, Note_on_c, 0, 87, 71
2, 774840, Note_off_c, 0, 87, 0
2, 774840, Note_on_c, 0, 86, 70
2, 774960, Note_off_c, 0, 86, 0
2, 774960, Note_on_c, 0, 87, 70
2, 775080, Note_off_c, 0, 87, 0
2, 775380, Note_on_c, 0, 85, 69
2, 775440, Note_off_c, 0, 85, 0
2, 775440, Note_on_c, 0, 83, 69
2, 775560, Note_off_c, 0, 83, 0
2, 775560, Note_on_c, 0, 82, 68
2, 775680, Note_off_c, 0, 82, 0
2, 775680, Note_on_c, 0, 83, 68
2, 775800, Note_off_c, 0, 83, 0
2, 776100, Note_on_c, 0, 80, 67
2, 776160, Note_off_c, 0, 80, 0
2, 776160, Note_on_c, 0, 78, 67
2, 776280, Note_off_c, 0, 78, 0
2, 776280, Note_on_c, 0, 77, 66
2, 776400, Note_off_c, 0, 77, 0
2, 776400, Note_on_c, 0, 78, 66
2, 776880, Note_off_c, 0, 78, 0
2, 777120, Note_on_c, 0, 77, 64
2, 777360, Note_off_c, 0, 77, 0
2, 777540, Note_on_c, 0, 87, 63
2, 777600, Note_off_c, 0, 87, 0
2, 777600, Note_on_c, 0, 86, 63
2, 777720, Note_off_c, 0, 86, 0
2, 777720, Note_on_c, 0, 84, 64
2, 777840, Note_off_c, 0, 84, 0
2, 777840, Note_on_c, 0, 86, 64
2, 777960, Note_off_c, 0, 86, 0
2, 778260, Note_on_c, 0, 90, 64
2, 778320, Note_off_c, 0, 90, 0
2, 778320, Note_on_c, 0, 89, 65
2, 778440, Note_off_c, 0, 89, 0
2, 778440, Note_on_c, 0, 88, 65
2, 778560, Note_off_c, 0, 88, 0
2, 778560, Note_on_c, 0, 89, 65
2, 778680, Note_off_c, 0, 89, 0
2, 778980, Note_on_c, 0, 95, 66
2, 779040, Note_off_c, 0, 95, 0
2, 779040, Note_on_c, 0, 94, 66
2, 779160, Note_off_c, 0, 94, 0
2, 779160, Note_on_c, 0, 93, 66
2, 779280, Note_off_c, 0, 93, 0
2, 779280, Note_on_c, 0, 94, 67
2, 779400, Note_off_c, 0, 94, 0
2, 779700, Note_on_c, 0, 90, 67
2, 779760, Note_off_c, 0, 90, 0
2, 779760, Note_on_c, 0, 89, 67
2, 779880, Note_off_c, 0, 89, 0
2, 779880, Note_on_c, 0, 88, 67
2, 780000, Note_off_c, 0, 88, 0
2, 780000, Note_on_c, 0, 89, 67
2, 780120, Note_off_c, 0, 89, 0
2, 780420, Note_on_c, 0, 87, 66
2, 780480, Note_off_c, 0, 87, 0
2, 780480, Note_on_c, 0, 86, 66
2, 780600, Note_off_c, 0, 86, 0
2, 780600, Note_on_c, 0, 84, 66
2, 780720, Note_off_c, 0, 84, 0
2, 780720, Note_on_c, 0, 86, 66
2, 780840, Note_off_c, 0, 86, 0
2, 781140, Note_on_c, 0, 83, 65
2, 781200, Note_off_c, 0, 83, 0
2, 781200, Note_on_c, 0, 82, 65
2, 781320, Note_off_c, 0, 82, 0
2, 781320, Note_on_c, 0, 81, 65
2, 781440, Note_off_c, 0, 81, 0
2, 781440, Note_on_c, 0, 82, 65
2, 781560, Note_off_c, 0, 82, 0
2, 781860, Note_on_c, 0, 78, 64
2, 781920, Note_off_c, 0, 78, 0
2, 781920, Note_on_c, 0, 77, 64
2, 782040, Note_off_c, 0, 77, 0
2, 782040, Note_on_c, 0, 76, 64
2, 782160, Note_off_c, 0, 76, 0
2, 782160, Note_on_c, 0, 77, 64
2, 782280, Note_off_c, 0, 77, 0
2, 782640, Note_on_c, 0, 78, 52
2, 782880, Note_off_c, 0, 78, 0
2, 782880, Note_on_c, 0, 79, 52
2, 783600, Note_off_c, 0, 79, 0
2, 783600, Note_on_c, 0, 75, 55
2, 784320, Note_off_c, 0, 75, 0
2, 784320, Note_on_c, 0, 74, 57
2, 785040, Note_off_c, 0, 74, 0
2, 785040, Note_on_c, 0, 80, 59
2, 785760, Note_off_c, 0, 80, 0
2, 785760, Note_on_c, 0, 79, 59
2, 786480, Note_off_c, 0, 79, 0
2, 786480, Note_on_c, 0, 75, 57
2, 787200, Note_off_c, 0, 75, 0
2, 787200, Note_on_c, 0, 74, 55
2, 787920, Note_off_c, 0, 74, 0
2, 787920, Note_on_c, 0, 80, 53
2, 788640, Note_off_c, 0, 80, 0
2, 788640, Note_on_c, 0, 70, 56
2, 788640, Note_on_c, 0, 79, 56
2, 788760, Note_off_c, 0, 79, 0
2, 788760, Note_off_c, 0, 70, 0
2, 788760, Note_on_c, 0, 72, 57
2, 788880, Note_off_c, 0, 72, 0
2, 788880, Note_on_c, 0, 74, 58
2, 789000, Note_off_c, 0, 74, 0
2, 789000, Note_on_c, 0, 75, 58
2, 789120, Note_off_c, 0, 75, 0
2, 789120, Note_on_c, 0, 77, 59
2, 789200, Note_off_c, 0, 77, 0
2, 789200, Note_on_c, 0, 79, 60
2, 789280, Note_off_c, 0, 79, 0
2, 789280, Note_on_c, 0, 80, 60
2, 789360, Note_off_c, 0, 80, 0
2, 789360, Note_on_c, 0, 82, 60
2, 789480, Note_off_c, 0, 82, 0
2, 789480, Note_on_c, 0, 80, 61
2, 789600, Note_off_c, 0, 80, 0
2, 789600, Note_on_c, 0, 79, 62
2, 789680, Note_off_c, 0, 79, 0
2, 789680, Note_on_c, 0, 77, 62
2, 789760, Note_off_c, 0, 77, 0
2, 789760, Note_on_c, 0, 75, 63
2, 789840, Note_off_c, 0, 75, 0
2, 789840, Note_on_c, 0, 74, 63
2, 789920, Note_off_c, 0, 74, 0
2, 789920, Note_on_c, 0, 72, 64
2, 790000, Note_off_c, 0, 72, 0
2, 790000, Note_on_c, 0, 71, 64
2, 790080, Note_off_c, 0, 71, 0
2, 790080, Note_on_c, 0, 72, 65
2, 790200, Note_off_c, 0, 72, 0
2, 790200, Note_on_c, 0, 75, 65
2, 790320, Note_off_c, 0, 75, 0
2, 790320, Note_on_c, 0, 77, 66
2, 790440, Note_off_c, 0, 77, 0
2, 790440, Note_on_c, 0, 79, 67
2, 790560, Note_off_c, 0, 79, 0
2, 790560, Note_on_c, 0, 80, 67
2, 790680, Note_off_c, 0, 80, 0
2, 790680, Note_on_c, 0, 82, 68
2, 790800, Note_off_c, 0, 82, 0
2, 790800, Note_on_c, 0, 84, 69
2, 790920, Note_off_c, 0, 84, 0
2, 790920, Note_on_c, 0, 82, 69
2, 791040, Note_off_c, 0, 82, 0
2, 791040, Note_on_c, 0, 80, 70
2, 791120, Note_off_c, 0, 80, 0
2, 791120, Note_on_c, 0, 79, 71
2, 791200, Note_off_c, 0, 79, 0
2, 791200, Note_on_c, 0, 77, 71
2, 791280, Note_off_c, 0, 77, 0
2, 791280, Note_on_c, 0, 75, 71
2, 791360, Note_off_c, 0, 75, 0
2, 791360, Note_on_c, 0, 74, 73
2, 791440, Note_off_c, 0, 74, 0
2, 791440, Note_on_c, 0, 72, 74
2, 791520, Control_c, 0, 64, 127
2, 791520, Note_off_c, 0, 72, 0
2, 791520, Note_on_c, 0, 70, 76
2, 791640, Note_off_c, 0, 70, 0
2, 791640, Note_on_c, 0, 79, 78
2, 791760, Note_off_c, 0, 79, 0
2, 791760, Note_on_c, 0, 75, 81
2, 791880, Note_off_c, 0, 75, 0
2, 791880, Note_on_c, 0, 82, 83
2, 792000, Note_off_c, 0, 82, 0
2, 792000, Note_on_c, 0, 79, 86
2, 792120, Note_off_c, 0, 79, 0
2, 792120, Note_on_c, 0, 87, 88
2, 792240, Note_off_c, 0, 87, 0
2, 792240, Note_on_c, 0, 82, 90
2, 792360, Note_off_c, 0, 82, 0
2, 792360, Note_on_c, 0, 91, 88
2, 792480, Note_off_c, 0, 91, 0
2, 792480, Note_on_c, 0, 87, 86
2, 792600, Note_off_c, 0, 87, 0
2, 792600, Note_on_c, 0, 94, 85
2, 792720, Note_off_c, 0, 94, 0
2, 792720, Note_on_c, 0, 91, 83
2, 792840, Note_off_c, 0, 91, 0
2, 792840, Note_on_c, 0, 87, 82
2, 792960, Note_off_c, 0, 87, 0
2, 792960, Note_on_c, 0, 82, 80
2, 793440, Note_off_c, 0, 82, 0
2, 793620, Control_c, 0, 64, 0
2, 793680, Note_on_c, 0, 89, 70
2, 793760, Note_on_c, 0, 91, 69
2, 793822, Note_off_c, 0, 89, 0
2, 793840, Note_on_c, 0, 89, 68
2, 793897, Note_off_c, 0, 91, 0
2, 793920, Note_on_c, 0, 91, 67
2, 793987, Note_off_c, 0, 89, 0
2, 794000, Note_on_c, 0, 89, 66
2, 794055, Note_off_c, 0, 91, 0
2, 794080, Note_on_c, 0, 91, 65
2, 794152, Note_off_c, 0, 89, 0
2, 794160, Note_on_c, 0, 89, 64
2, 794227, Note_off_c, 0, 91, 0
2, 794240, Note_on_c, 0, 87, 63
2, 794295, Note_off_c, 0, 89, 0
2, 794320, Note_on_c, 0, 89, 62
2, 794377, Note_off_c, 0, 87, 0
2, 794400, Note_off_c, 0, 89, 0
2, 794400, Note_on_c, 0, 91, 61
2, 795120, Note_off_c, 0, 91, 0
2, 795120, Note_on_c, 0, 87, 53
2, 795840, Note_off_c, 0, 87, 0
2, 795840, Note_on_c, 0, 86, 56
2, 796560, Note_off_c, 0, 86, 0
2, 796560, Note_on_c, 0, 92, 58
2, 797280, Note_off_c, 0, 92, 0
2, 797280, Note_on_c, 0, 91, 63
2, 798000, Note_off_c, 0, 91, 0
2, 798000, Note_on_c, 0, 87, 60
2, 798720, Note_off_c, 0, 87, 0
2, 798720, Note_on_c, 0, 86, 58
2, 799440, Note_off_c, 0, 86, 0
2, 799440, Note_on_c, 0, 92, 55
2, 800160, Note_off_c, 0, 92, 0
2, 800400, Note_on_c, 0, 87, 62
2, 800400, Note_on_c, 0, 91, 62
2, 800592, Note_off_c, 0, 91, 0
2, 800592, Note_off_c, 0, 87, 0
2, 800640, Note_on_c, 0, 87, 63
2, 800640, Note_on_c, 0, 91, 63
2, 800832, Note_off_c, 0, 91, 0
2, 800832, Note_off_c, 0, 87, 0
2, 800880, Note_on_c, 0, 87, 64
2, 800880, Note_on_c, 0, 91, 64
2, 801072, Note_off_c, 0, 91, 0
2, 801072, Note_off_c, 0, 87, 0
2, 801120, Note_on_c, 0, 87, 65
2, 801120, Note_on_c, 0, 91, 65
2, 801312, Note_off_c, 0, 91, 0
2, 801312, Note_off_c, 0, 87, 0
2, 801360, Note_on_c, 0, 87, 66
2, 801360, Note_on_c, 0, 91, 66
2, 801552, Note_off_c, 0, 91, 0
2, 801552, Note_off_c, 0, 87, 0
2, 801840, Note_on_c, 0, 87, 68
2, 801840, Note_on_c, 0, 89, 68
2, 802032, Note_off_c, 0, 89, 0
2, 802032, Note_off_c, 0, 87, 0
2, 802080, Note_on_c, 0, 87, 69
2, 802080, Note_on_c, 0, 89, 69
2, 802272, Note_off_c, 0, 89, 0
2, 802272, Note_off_c, 0, 87, 0
2, 802320, Note_on_c, 0, 87, 70
2, 802320, Note_on_c, 0, 89, 70
2, 802512, Note_off_c, 0, 89, 0
2, 802512, Note_off_c, 0, 87, 0
2, 802560, Note_on_c, 0, 87, 71
2, 802560, Note_on_c, 0, 89, 71
2, 802752, Note_off_c, 0, 89, 0
2, 802752, Note_off_c, 0, 87, 0
2, 802800, Note_on_c, 0, 89, 72
2, 802800, Note_on_c, 0, 87, 72
2, 802992, Note_off_c, 0, 87, 0
2, 802992, Note_off_c, 0, 89, 0
2, 803280, Note_on_c, 0, 87, 75
2, 803280, Note_on_c, 0, 91, 75
2, 803472, Note_off_c, 0, 91, 0
2, 803472, Note_off_c, 0, 87, 0
2, 803520, Note_on_c, 0, 87, 80
2, 803520, Note_on_c, 0, 91, 80
2, 803712, Note_off_c, 0, 91, 0
2, 803712, Note_off_c, 0, 87, 0
2, 803760, Note_on_c, 0, 87, 86
2, 803760, Note_on_c, 0, 91, 86
2, 803952, Note_off_c, 0, 91, 0
2, 803952, Note_off_c, 0, 87, 0
2, 804000, Note_on_c, 0, 87, 81
2, 804000, Note_on_c, 0, 91, 81
2, 804192, Note_off_c, 0, 91, 0
2, 804192, Note_off_c, 0, 87, 0
2, 804240, Note_on_c, 0, 91, 77
2, 804240, Note_on_c, 0, 87, 77
2, 804432, Note_off_c, 0, 87, 0
2, 804432, Note_off_c, 0, 91, 0
2, 804480, Note_on_c, 0, 89, 73
2, 804480, Note_on_c, 0, 86, 73
2, 804672, Note_off_c, 0, 86, 0
2, 804672, Note_off_c, 0, 89, 0
2, 804720, Note_on_c, 0, 89, 70
2, 804720, Note_on_c, 0, 86, 70
2, 804912, Note_off_c, 0, 86, 0
2, 804912, Note_off_c, 0, 89, 0
2, 804960, Note_on_c, 0, 86, 66
2, 804960, Note_on_c, 0, 89, 66
2, 805152, Note_off_c, 0, 89, 0
2, 805152, Note_off_c, 0, 86, 0
2, 805200, Note_on_c, 0, 86, 62
2, 805200, Note_on_c, 0, 89, 62
2, 805392, Note_off_c, 0, 89, 0
2, 805392, Note_off_c, 0, 86, 0
2, 805440, Note_on_c, 0, 89, 58
2, 805440, Note_on_c, 0, 86, 58
2, 805632, Note_off_c, 0, 86, 0
2, 805632, Note_off_c, 0, 89, 0
2, 805680, Note_on_c, 0, 86, 55
2, 805680, Note_on_c, 0, 89, 55
2, 805872, Note_off_c, 0, 89, 0
2, 805872, Note_off_c, 0, 86, 0
2, 806400, Note_on_c, 0, 85, 54
2, 806400, Note_on_c, 0, 97, 54
2, 807120, Note_off_c, 0, 97, 0
2, 807120, Note_off_c, 0, 85, 0
2, 807120, Note_on_c, 0, 84, 56
2, 807120, Note_on_c, 0, 96, 56
2, 807360, Note_off_c, 0, 96, 0
2, 807360, Note_off_c, 0, 84, 0
2, 807840, Note_on_c, 0, 83, 59
2, 807840, Note_on_c, 0, 95, 59
2, 808560, Note_off_c, 0, 95, 0
2, 808560, Note_off_c, 0, 83, 0
2, 808560, Note_on_c, 0, 82, 61
2, 808560, Note_on_c, 0, 94, 61
2, 808800, Note_off_c, 0, 94, 0
2, 808800, Note_off_c, 0, 82, 0
2, 809280, Note_on_c, 0, 73, 63
2, 809280, Note_on_c, 0, 61, 63
2, 810000, Note_off_c, 0, 61, 0
2, 810000, Note_off_c, 0, 73, 0
2, 810000, Note_on_c, 0, 60, 65
2, 810000, Note_on_c, 0, 72, 65
2, 810240, Note_off_c, 0, 72, 0
2, 810240, Note_off_c, 0, 60, 0
2, 810720, Note_on_c, 0, 47, 68
2, 810720, Note_on_c, 0, 59, 68
2, 811440, Note_off_c, 0, 59, 0
2, 811440, Note_off_c, 0, 47, 0
2, 811440, Note_on_c, 0, 46, 70
2, 811440, Note_on_c, 0, 58, 70
2, 811680, Note_off_c, 0, 58, 0
2, 811680, Note_off_c, 0, 46, 0
2, 811920, Note_on_c, 0, 58, 71
2, 811920, Note_on_c, 0, 70, 71
2, 812112, Note_off_c, 0, 70, 0
2, 812112, Note_off_c, 0, 58, 0
2, 812160, Note_on_c, 0, 58, 72
2, 812160, Note_on_c, 0, 70, 72
2, 812352, Note_off_c, 0, 70, 0
2, 812352, Note_off_c, 0, 58, 0
2, 812640, Note_on_c, 0, 56, 74
2, 812640, Note_on_c, 0, 68, 74
2, 812832, Note_off_c, 0, 68, 0
2, 812832, Note_off_c, 0, 56, 0
2, 812880, Note_on_c, 0, 55, 75
2, 812880, Note_on_c, 0, 67, 75
2, 813072, Note_off_c, 0, 67, 0
2, 813072, Note_off_c, 0, 55, 0
2, 813360, Note_on_c, 0, 55, 76
2, 813360, Note_on_c, 0, 67, 76
2, 813552, Note_off_c, 0, 67, 0
2, 813552, Note_off_c, 0, 55, 0
2, 813600, Note_on_c, 0, 53, 77
2, 813600, Note_on_c, 0, 65, 77
2, 813792, Note_off_c, 0, 65, 0
2, 813792, Note_off_c, 0, 53, 0
2, 814080, Note_on_c, 0, 51, 78
2, 814080, Note_on_c, 0, 63, 78
2, 814272, Note_off_c, 0, 63, 0
2, 814272, Note_off_c, 0, 51, 0
2, 814320, Note_on_c, 0, 50, 79
2, 814320, Note_on_c, 0, 62, 79
2, 814512, Note_off_c, 0, 62, 0
2, 814512, Note_off_c, 0, 50, 0
2, 814800, Note_on_c, 0, 50, 81
2, 814800, Note_on_c, 0, 62, 81
2, 814992, Note_off_c, 0, 62, 0
2, 814992, Note_off_c, 0, 50, 0
2, 815040, Note_on_c, 0, 62, 81
2, 815040, Note_on_c, 0, 50, 81
2, 815232, Note_off_c, 0, 50, 0
2, 815232, Note_off_c, 0, 62, 0
2, 815520, Note_on_c, 0, 48, 83
2, 815520, Note_on_c, 0, 60, 83
2, 815712, Note_off_c, 0, 60, 0
2, 815712, Note_off_c, 0, 48, 0
2, 815760, Note_on_c, 0, 58, 84
2, 815760, Note_on_c, 0, 46, 84
2, 815952, Note_off_c, 0, 46, 0
2, 815952, Note_off_c, 0, 58, 0
2, 816240, Note_on_c, 0, 46, 85
2, 816240, Note_on_c, 0, 58, 85
2, 816432, Note_off_c, 0, 58, 0
2, 816432, Note_off_c, 0, 46, 0
2, 816480, Note_on_c, 0, 44, 86
2, 816480, Note_on_c, 0, 56, 86
2, 816672, Note_off_c, 0, 56, 0
2, 816672, Note_off_c, 0, 44, 0
2, 816960, Note_on_c, 0, 43, 87
2, 816960, Note_on_c, 0, 55, 87
2, 817152, Note_off_c, 0, 55, 0
2, 817152, Note_off_c, 0, 43, 0
2, 817200, Note_on_c, 0, 41, 88
2, 817200, Note_on_c, 0, 53, 88
2, 817392, Note_off_c, 0, 53, 0
2, 817392, Note_off_c, 0, 41, 0
2, 817680, Note_on_c, 0, 75, 90
2, 817680, Note_on_c, 0, 63, 90
2, 817680, Note_on_c, 0, 67, 90
2, 817872, Note_off_c, 0, 67, 0
2, 817872, Note_off_c, 0, 63, 0
2, 817872, Note_off_c, 0, 75, 0
2, 817920, Note_on_c, 0, 70, 91
2, 817920, Note_on_c, 0, 63, 91
2, 817920, Note_on_c, 0, 67, 91
2, 818112, Note_off_c, 0, 67, 0
2, 818112, Note_off_c, 0, 63, 0
2, 818112, Note_off_c, 0, 70, 0
2, 818400, Note_on_c, 0, 68, 92
2, 818400, Note_on_c, 0, 63, 92
2, 818400, Note_on_c, 0, 60, 92
2, 818592, Note_off_c, 0, 60, 0
2, 818592, Note_off_c, 0, 63, 0
2, 818592, Note_off_c, 0, 68, 0
2, 818640, Note_on_c, 0, 63, 93
2, 818640, Note_on_c, 0, 67, 93
2, 818640, Note_on_c, 0, 60, 93
2, 818832, Note_off_c, 0, 60, 0
2, 818832, Note_off_c, 0, 67, 0
2, 818832, Note_off_c, 0, 63, 0
2, 819120, Note_on_c, 0, 56, 94
2, 819120, Note_on_c, 0, 67, 94
2, 819120, Note_on_c, 0, 60, 94
2, 819312, Note_off_c, 0, 60, 0
2, 819312, Note_off_c, 0, 67, 0
2, 819312, Note_off_c, 0, 56, 0
2, 819360, Note_on_c, 0, 56, 95
2, 819360, Note_on_c, 0, 65, 95
2, 819360, Note_on_c, 0, 60, 95
2, 819552, Note_off_c, 0, 60, 0
2, 819552, Note_off_c, 0, 65, 0
2, 819552, Note_off_c, 0, 56, 0
2, 819840, Note_on_c, 0, 63, 97
2, 819840, Note_on_c, 0, 53, 97
2, 819840, Note_on_c, 0, 56, 97
2, 820032, Note_off_c, 0, 56, 0
2, 820032, Note_off_c, 0, 53, 0
2, 820032, Note_off_c, 0, 63, 0
2, 820080, Note_on_c, 0, 56, 97
2, 820080, Note_on_c, 0, 53, 97
2, 820080, Note_on_c, 0, 62, 97
2, 820272, Note_off_c, 0, 62, 0
2, 820272, Note_off_c, 0, 53, 0
2, 820272, Note_off_c, 0, 56, 0
2, 820320, Note_on_c, 0, 51, 102
2, 820440, Note_off_c, 0, 51, 0
2, 820440, Note_on_c, 0, 53, 93
2, 820560, Note_off_c, 0, 53, 0
2, 820560, Note_on_c, 0, 55, 93
2, 820680, Note_off_c, 0, 55, 0
2, 820680, Note_on_c, 0, 56, 93
2, 820800, Note_off_c, 0, 56, 0
2, 820800, Note_on_c, 0, 58, 93
2, 820880, Note_off_c, 0, 58, 0
2, 820880, Note_on_c, 0, 60, 93
2, 820960, Note_off_c, 0, 60, 0
2, 820960, Note_on_c, 0, 62, 93
2, 821040, Note_off_c, 0, 62, 0
2, 821040, Note_on_c, 0, 63, 103
2, 821120, Note_off_c, 0, 63, 0
2, 821120, Note_on_c, 0, 65, 94
2, 821200, Note_off_c, 0, 65, 0
2, 821200, Note_on_c, 0, 67, 94
2, 821280, Note_off_c, 0, 67, 0
2, 821280, Note_on_c, 0, 68, 94
2, 821360, Note_off_c, 0, 68, 0
2, 821360, Note_on_c, 0, 70, 94
2, 821440, Note_off_c, 0, 70, 0
2, 821440, Note_on_c, 0, 72, 94
2, 821520, Note_off_c, 0, 72, 0
2, 821520, Note_on_c, 0, 74, 94
2, 821640, Note_off_c, 0, 74, 0
2, 821640, Note_on_c, 0, 62, 95
2, 821760, Note_off_c, 0, 62, 0
2, 821760, Note_on_c, 0, 63, 95
2, 821880, Note_off_c, 0, 63, 0
2, 821880, Note_on_c, 0, 65, 95
2, 822000, Note_off_c, 0, 65, 0
2, 822000, Note_on_c, 0, 67, 95
2, 822120, Note_off_c, 0, 67, 0
2, 822120, Note_on_c, 0, 68, 95
2, 822240, Note_off_c, 0, 68, 0
2, 822240, Note_on_c, 0, 70, 96
2, 822320, Note_off_c, 0, 70, 0
2, 822320, Note_on_c, 0, 72, 96
2, 822400, Note_off_c, 0, 72, 0
2, 822400, Note_on_c, 0, 74, 96
2, 822480, Note_off_c, 0, 74, 0
2, 822480, Note_on_c, 0, 75, 108
2, 822560, Note_off_c, 0, 75, 0
2, 822560, Note_on_c, 0, 77, 96
2, 822640, Note_off_c, 0, 77, 0
2, 822640, Note_on_c, 0, 79, 96
2, 822720, Note_off_c, 0, 79, 0
2, 822720, Note_on_c, 0, 80, 96
2, 822800, Note_off_c, 0, 80, 0
2, 822800, Note_on_c, 0, 82, 96
2, 822880, Note_off_c, 0, 82, 0
2, 822880, Note_on_c, 0, 84, 96
2, 822960, Note_off_c, 0, 84, 0
2, 822960, Note_on_c, 0, 86, 97
2, 823080, Note_off_c, 0, 86, 0
2, 823080, Note_on_c, 0, 74, 97
2, 823200, Note_off_c, 0, 74, 0
2, 823200, Note_on_c, 0, 75, 97
2, 823320, Note_off_c, 0, 75, 0
2, 823320, Note_on_c, 0, 77, 97
2, 823440, Note_off_c, 0, 77, 0
2, 823440, Note_on_c, 0, 79, 97
2, 823560, Note_off_c, 0, 79, 0
2, 823560, Note_on_c, 0, 80, 98
2, 823680, Note_off_c, 0, 80, 0
2, 823680, Note_on_c, 0, 82, 98
2, 823760, Note_off_c, 0, 82, 0
2, 823760, Note_on_c, 0, 84, 98
2, 823840, Note_off_c, 0, 84, 0
2, 823840, Note_on_c, 0, 86, 98
2, 823920, Note_off_c, 0, 86, 0
2, 823920, Note_on_c, 0, 87, 110
2, 824040, Note_off_c, 0, 87, 0
2, 824040, Note_on_c, 0, 89, 98
2, 824160, Note_off_c, 0, 89, 0
2, 824160, Note_on_c, 0, 91, 99
2, 824280, Note_off_c, 0, 91, 0
2, 824280, Note_on_c, 0, 92, 99
2, 824400, Note_off_c, 0, 92, 0
2, 824400, Note_on_c, 0, 94, 99
2, 824480, Note_off_c, 0, 94, 0
2, 824480, Note_on_c, 0, 96, 99
2, 824560, Note_off_c, 0, 96, 0
2, 824560, Note_on_c, 0, 98, 99
2, 824640, Note_off_c, 0, 98, 0
2, 824640, Note_on_c, 0, 99, 99
2, 825120, Note_off_c, 0, 99, 0
2, 825360, Note_on_c, 0, 75, 108
2, 825840, Note_off_c, 0, 75, 0
2, 826080, Note_on_c, 0, 63, 104
2, 826560, Note_off_c, 0, 63, 0
2, 826800, Note_on_c, 0, 70, 90
2, 827280, Note_off_c, 0, 70, 0
2, 827280, Note_on_c, 0, 70, 69
2, 827472, Note_off_c, 0, 70, 0
2, 827520, Note_on_c, 0, 70, 60
2, 827760, Note_off_c, 0, 70, 0
2, 827760, Note_on_c, 0, 67, 56
2, 828000, Note_off_c, 0, 67, 0
2, 828000, Note_on_c, 0, 63, 57
2, 828240, Note_off_c, 0, 63, 0
2, 828240, Note_on_c, 0, 62, 57
2, 828480, Note_off_c, 0, 62, 0
2, 828480, Note_on_c, 0, 65, 58
2, 828720, Note_off_c, 0, 65, 0
2, 828720, Note_on_c, 0, 70, 58
2, 828960, Note_off_c, 0, 70, 0
2, 828960, Note_on_c, 0, 70, 62
2, 829200, Note_off_c, 0, 70, 0
2, 829200, Note_on_c, 0, 67, 59
2, 829440, Note_off_c, 0, 67, 0
2, 829440, Note_on_c, 0, 63, 59
2, 829680, Note_off_c, 0, 63, 0
2, 829680, Note_on_c, 0, 64, 60
2, 829920, Note_off_c, 0, 64, 0
2, 829920, Note_on_c, 0, 67, 60
2, 830160, Note_off_c, 0, 67, 0
2, 830160, Note_on_c, 0, 72, 61
2, 830400, Note_off_c, 0, 72, 0
2, 830400, Note_on_c, 0, 72, 66
2, 830640, Note_off_c, 0, 72, 0
2, 830640, Note_on_c, 0, 68, 62
2, 830880, Note_off_c, 0, 68, 0
2, 830880, Note_on_c, 0, 65, 62
2, 831120, Note_off_c, 0, 65, 0
2, 831120, Note_on_c, 0, 66, 63
2, 831360, Note_off_c, 0, 66, 0
2, 831360, Note_on_c, 0, 69, 63
2, 831600, Note_off_c, 0, 69, 0
2, 831600, Note_on_c, 0, 74, 64
2, 831840, Note_off_c, 0, 74, 0
2, 831840, Note_on_c, 0, 74, 68
2, 832080, Note_off_c, 0, 74, 0
2, 832080, Note_on_c, 0, 70, 63
2, 832320, Note_off_c, 0, 70, 0
2, 832320, Note_on_c, 0, 67, 61
2, 832560, Note_off_c, 0, 67, 0
2, 832560, Note_on_c, 0, 68, 59
2, 832800, Note_off_c, 0, 68, 0
2, 832800, Note_on_c, 0, 70, 57
2, 833040, Note_off_c, 0, 70, 0
2, 833040, Note_on_c, 0, 74, 55
2, 833280, Note_off_c, 0, 74, 0
2, 833280, Note_on_c, 0, 75, 55
2, 833520, Note_off_c, 0, 75, 0
2, 833520, Note_on_c, 0, 70, 51
2, 833760, Note_off_c, 0, 70, 0
2, 833760, Note_on_c, 0, 67, 52
2, 834000, Note_off_c, 0, 67, 0
2, 834000, Note_on_c, 0, 67, 54
2, 834240, Note_off_c, 0, 67, 0
2, 834240, Note_on_c, 0, 70, 55
2, 834480, Note_off_c, 0, 70, 0
2, 834480, Note_on_c, 0, 75, 56
2, 834720, Note_off_c, 0, 75, 0
2, 834720, Note_on_c, 0, 79, 58
2, 834960, Note_off_c, 0, 79, 0
2, 834960, Note_on_c, 0, 75, 59
2, 835200, Note_off_c, 0, 75, 0
2, 835200, Note_on_c, 0, 70, 60
2, 835440, Note_off_c, 0, 70, 0
2, 835440, Note_on_c, 0, 70, 61
2, 835680, Note_off_c, 0, 70, 0
2, 835680, Note_on_c, 0, 75, 63
2, 835920, Note_off_c, 0, 75, 0
2, 835920, Note_on_c, 0, 79, 65
2, 836160, Note_off_c, 0, 79, 0
2, 836160, Note_on_c, 0, 82, 69
2, 836160, Note_on_c, 0, 79, 69
2, 836400, Note_off_c, 0, 79, 0
2, 836400, Note_off_c, 0, 82, 0
2, 836400, Note_on_c, 0, 75, 67
2, 836400, Note_on_c, 0, 79, 67
2, 836640, Note_off_c, 0, 79, 0
2, 836640, Note_off_c, 0, 75, 0
2, 836640, Note_on_c, 0, 70, 66
2, 836640, Note_on_c, 0, 75, 66
2, 836880, Note_off_c, 0, 75, 0
2, 836880, Note_off_c, 0, 70, 0
2, 836880, Note_on_c, 0, 79, 64
2, 836880, Note_on_c, 0, 75, 64
2, 837120, Note_off_c, 0, 75, 0
2, 837120, Note_off_c, 0, 79, 0
2, 837120, Note_on_c, 0, 70, 62
2, 837120, Note_on_c, 0, 75, 62
2, 837360, Note_off_c, 0, 75, 0
2, 837360, Note_off_c, 0, 70, 0
2, 837360, Note_on_c, 0, 70, 60
2, 837360, Note_on_c, 0, 67, 60
2, 837600, Note_off_c, 0, 67, 0
2, 837600, Note_off_c, 0, 70, 0
2, 837600, Note_on_c, 0, 70, 58
2, 837600, Note_on_c, 0, 75, 58
2, 837840, Note_off_c, 0, 75, 0
2, 837840, Note_off_c, 0, 70, 0
2, 837840, Note_on_c, 0, 67, 57
2, 837840, Note_on_c, 0, 70, 57
2, 838080, Note_off_c, 0, 70, 0
2, 838080, Note_off_c, 0, 67, 0
2, 838080, Note_on_c, 0, 63, 55
2, 838080, Note_on_c, 0, 67, 55
2, 838320, Note_off_c, 0, 67, 0
2, 838320, Note_off_c, 0, 63, 0
2, 838320, Note_on_c, 0, 70, 53
2, 838560, Note_off_c, 0, 70, 0
2, 838560, Note_on_c, 0, 68, 51
2, 838560, Note_on_c, 0, 60, 51
2, 838800, Note_off_c, 0, 60, 0
2, 838800, Note_off_c, 0, 68, 0
2, 838800, Note_on_c, 0, 65, 50
2, 838800, Note_on_c, 0, 62, 50
2, 838992, Note_off_c, 0, 62, 0
2, 838992, Note_off_c, 0, 65, 0
2, 839040, Note_on_c, 0, 75, 50
2, 839160, Note_off_c, 0, 75, 0
2, 839160, Note_on_c, 0, 74, 51
2, 839280, Note_off_c, 0, 74, 0
2, 839280, Note_on_c, 0, 75, 51
2, 839400, Note_off_c, 0, 75, 0
2, 839400, Note_on_c, 0, 70, 52
2, 839520, Note_off_c, 0, 70, 0
2, 839520, Note_on_c, 0, 67, 52
2, 839700, Note_off_c, 0, 67, 0
2, 839700, Note_on_c, 0, 68, 53
2, 839760, Note_off_c, 0, 68, 0
2, 839760, Note_on_c, 0, 67, 53
2, 839880, Note_off_c, 0, 67, 0
2, 839880, Note_on_c, 0, 66, 53
2, 840000, Note_off_c, 0, 66, 0
2, 840000, Note_on_c, 0, 67, 54
2, 840120, Note_off_c, 0, 67, 0
2, 840120, Note_on_c, 0, 70, 54
2, 840240, Note_off_c, 0, 70, 0
2, 840240, Note_on_c, 0, 75, 55
2, 840420, Note_off_c, 0, 75, 0
2, 840480, Note_on_c, 0, 79, 56
2, 840600, Note_off_c, 0, 79, 0
2, 840600, Note_on_c, 0, 78, 56
2, 840720, Note_off_c, 0, 78, 0
2, 840720, Note_on_c, 0, 79, 57
2, 840840, Note_off_c, 0, 79, 0
2, 840840, Note_on_c, 0, 75, 57
2, 840960, Note_off_c, 0, 75, 0
2, 840960, Note_on_c, 0, 70, 58
2, 841140, Note_off_c, 0, 70, 0
2, 841140, Note_on_c, 0, 72, 58
2, 841200, Note_off_c, 0, 72, 0
2, 841200, Note_on_c, 0, 70, 59
2, 841320, Note_off_c, 0, 70, 0
2, 841320, Note_on_c, 0, 69, 59
2, 841440, Note_off_c, 0, 69, 0
2, 841440, Note_on_c, 0, 70, 60
2, 841560, Note_off_c, 0, 70, 0
2, 841560, Note_on_c, 0, 75, 60
2, 841680, Note_off_c, 0, 75, 0
2, 841680, Note_on_c, 0, 79, 60
2, 841860, Note_off_c, 0, 79, 0
2, 841920, Note_on_c, 0, 82, 61
2, 841920, Note_on_c, 0, 79, 61
2, 842040, Note_off_c, 0, 79, 0
2, 842040, Note_off_c, 0, 82, 0
2, 842040, Note_on_c, 0, 80, 62
2, 842040, Note_on_c, 0, 84, 62
2, 842160, Note_off_c, 0, 84, 0
2, 842160, Note_off_c, 0, 80, 0
2, 842160, Note_on_c, 0, 79, 62
2, 842160, Note_on_c, 0, 82, 62
2, 842280, Note_off_c, 0, 82, 0
2, 842280, Note_off_c, 0, 79, 0
2, 842280, Note_on_c, 0, 75, 63
2, 842280, Note_on_c, 0, 79, 63
2, 842400, Note_off_c, 0, 79, 0
2, 842400, Note_off_c, 0, 75, 0
2, 842400, Note_on_c, 0, 75, 63
2, 842400, Note_on_c, 0, 67, 63
2, 842640, Note_off_c, 0, 67, 0
2, 842640, Note_off_c, 0, 75, 0
2, 842640, Note_on_c, 0, 75, 64
2, 842640, Note_on_c, 0, 79, 64
2, 842760, Note_off_c, 0, 79, 0
2, 842760, Note_off_c, 0, 75, 0
2, 842760, Note_on_c, 0, 80, 65
2, 842880, Note_off_c, 0, 80, 0
2, 842880, Note_on_c, 0, 75, 65
2, 842880, Note_on_c, 0, 79, 65
2, 843000, Note_off_c, 0, 79, 0
2, 843000, Note_off_c, 0, 75, 0
2, 843000, Note_on_c, 0, 70, 66
2, 843000, Note_on_c, 0, 75, 66
2, 843120, Note_off_c, 0, 75, 0
2, 843120, Note_off_c, 0, 70, 0
2, 843120, Note_on_c, 0, 67, 66
2, 843120, Note_on_c, 0, 70, 66
2, 843360, Note_off_c, 0, 70, 0
2, 843360, Note_off_c, 0, 67, 0
2, 843360, Note_on_c, 0, 67, 69
2, 843360, Note_on_c, 0, 75, 69
2, 843480, Note_off_c, 0, 75, 0
2, 843480, Note_off_c, 0, 67, 0
2, 843480, Note_on_c, 0, 77, 67
2, 843600, Note_off_c, 0, 77, 0
2, 843600, Note_on_c, 0, 67, 65
2, 843600, Note_on_c, 0, 75, 65
2, 843720, Note_off_c, 0, 75, 0
2, 843720, Note_off_c, 0, 67, 0
2, 843720, Note_on_c, 0, 67, 63
2, 843720, Note_on_c, 0, 70, 63
2, 843840, Note_off_c, 0, 70, 0
2, 843840, Note_off_c, 0, 67, 0
2, 843840, Note_on_c, 0, 63, 61
2, 843840, Note_on_c, 0, 67, 61
2, 844080, Note_off_c, 0, 67, 0
2, 844080, Note_off_c, 0, 63, 0
2, 844080, Note_on_c, 0, 70, 56
2, 844320, Note_off_c, 0, 70, 0
2, 844320, Note_on_c, 0, 60, 52
2, 844320, Note_on_c, 0, 68, 52
2, 844560, Note_off_c, 0, 68, 0
2, 844560, Note_off_c, 0, 60, 0
2, 844560, Note_on_c, 0, 65, 48
2, 844560, Note_on_c, 0, 62, 48
2, 844752, Note_off_c, 0, 62, 0
2, 844752, Note_off_c, 0, 65, 0
2, 844920, Note_on_c, 0, 82, 48
2, 844920, Note_on_c, 0, 79, 48
2, 845160, Note_off_c, 0, 79, 0
2, 845160, Note_off_c, 0, 82, 0
2, 845160, Note_on_c, 0, 75, 51
2, 845160, Note_on_c, 0, 79, 51
2, 845400, Note_off_c, 0, 79, 0
2, 845400, Note_off_c, 0, 75, 0
2, 845400, Note_on_c, 0, 70, 53
2, 845400, Note_on_c, 0, 75, 53
2, 845640, Note_off_c, 0, 75, 0
2, 845640, Note_off_c, 0, 70, 0
2, 845640, Note_on_c, 0, 79, 55
2, 845640, Note_on_c, 0, 75, 55
2, 845880, Note_off_c, 0, 75, 0
2, 845880, Note_off_c, 0, 79, 0
2, 845880, Note_on_c, 0, 70, 57
2, 845880, Note_on_c, 0, 75, 57
2, 846120, Note_off_c, 0, 75, 0
2, 846120, Note_off_c, 0, 70, 0
2, 846120, Note_on_c, 0, 70, 61
2, 846120, Note_on_c, 0, 67, 61
2, 846360, Note_off_c, 0, 67, 0
2, 846360, Note_off_c, 0, 70, 0
2, 846360, Note_on_c, 0, 75, 57
2, 846360, Note_on_c, 0, 70, 57
2, 846600, Note_off_c, 0, 70, 0
2, 846600, Note_off_c, 0, 75, 0
2, 846600, Note_on_c, 0, 70, 53
2, 846600, Note_on_c, 0, 67, 53
2, 846840, Note_off_c, 0, 67, 0
2, 846840, Note_off_c, 0, 70, 0
2, 846840, Note_on_c, 0, 67, 49
2, 847080, Note_off_c, 0, 67, 0
2, 847080, Note_on_c, 0, 62, 46
2, 847080, Note_on_c, 0, 70, 46
2, 847320, Note_off_c, 0, 70, 0
2, 847320, Note_off_c, 0, 62, 0
2, 847320, Note_on_c, 0, 68, 42
2, 847320, Note_on_c, 0, 62, 42
2, 847560, Control_c, 0, 64, 127
2, 847560, Note_off_c, 0, 62, 0
2, 847560, Note_off_c, 0, 68, 0
2, 847560, Note_on_c, 0, 62, 38
2, 847560, Note_on_c, 0, 65, 38
2, 847680, Note_off_c, 0, 65, 0
2, 847680, Note_off_c, 0, 62, 0
2, 847800, Control_c, 0, 64, 0
2, 848160, Note_on_c, 0, 82, 93
2, 848280, Note_on_c, 0, 94, 93
2, 848380, Note_off_c, 0, 82, 0
2, 848400, Note_off_c, 0, 94, 0
2, 848400, Note_on_c, 0, 79, 92
2, 848520, Note_on_c, 0, 91, 92
2, 848620, Note_off_c, 0, 79, 0
2, 848640, Note_off_c, 0, 91, 0
2, 848640, Note_on_c, 0, 75, 91
2, 848760, Note_on_c, 0, 87, 90
2, 848860, Note_off_c, 0, 75, 0
2, 848880, Note_off_c, 0, 87, 0
2, 848880, Note_on_c, 0, 79, 90
2, 849000, Note_on_c, 0, 91, 89
2, 849100, Note_off_c, 0, 79, 0
2, 849120, Note_off_c, 0, 91, 0
2, 849120, Note_on_c, 0, 75, 89
2, 849240, Note_on_c, 0, 87, 88
2, 849340, Note_off_c, 0, 75, 0
2, 849360, Note_off_c, 0, 87, 0
2, 849360, Note_on_c, 0, 70, 88
2, 849480, Note_on_c, 0, 82, 87
2, 849580, Note_off_c, 0, 70, 0
2, 849600, Note_off_c, 0, 82, 0
2, 849600, Note_on_c, 0, 75, 86
2, 849720, Note_on_c, 0, 87, 86
2, 849820, Note_off_c, 0, 75, 0
2, 849840, Note_off_c, 0, 87, 0
2, 849840, Note_on_c, 0, 70, 85
2, 849960, Note_on_c, 0, 82, 85
2, 850060, Note_off_c, 0, 70, 0
2, 850080, Note_off_c, 0, 82, 0
2, 850080, Note_on_c, 0, 67, 84
2, 850200, Note_on_c, 0, 79, 84
2, 850300, Note_off_c, 0, 67, 0
2, 850320, Note_off_c, 0, 79, 0
2, 850320, Note_on_c, 0, 70, 83
2, 850440, Note_on_c, 0, 82, 82
2, 850540, Note_off_c, 0, 70, 0
2, 850560, Note_off_c, 0, 82, 0
2, 850560, Note_on_c, 0, 68, 82
2, 850680, Note_on_c, 0, 80, 81
2, 850780, Note_off_c, 0, 68, 0
2, 850800, Note_off_c, 0, 80, 0
2, 850800, Note_on_c, 0, 65, 81
2, 850920, Note_on_c, 0, 77, 80
2, 851040, Note_off_c, 0, 77, 0
2, 851040, Note_off_c, 0, 65, 0
2, 851040, Note_on_c, 0, 63, 82
2, 851160, Note_on_c, 0, 75, 84
2, 851280, Note_off_c, 0, 75, 0
2, 851280, Note_off_c, 0, 63, 0
2, 851280, Note_on_c, 0, 67, 87
2, 851400, Note_on_c, 0, 79, 89
2, 851520, Note_off_c, 0, 79, 0
2, 851520, Note_off_c, 0, 67, 0
2, 851520, Note_on_c, 0, 67, 91
2, 851640, Note_on_c, 0, 79, 92
2, 851760, Note_off_c, 0, 79, 0
2, 851760, Note_off_c, 0, 67, 0
2, 851760, Note_on_c, 0, 67, 94
2, 851880, Note_on_c, 0, 79, 95
2, 852000, Note_off_c, 0, 79, 0
2, 852000, Note_off_c, 0, 67, 0
2, 852000, Note_on_c, 0, 70, 97
2, 852120, Note_on_c, 0, 82, 99
2, 852240, Note_off_c, 0, 82, 0
2, 852240, Note_off_c, 0, 70, 0
2, 852240, Note_on_c, 0, 70, 100
2, 852360, Note_on_c, 0, 82, 102
2, 852480, Note_off_c, 0, 82, 0
2, 852480, Note_off_c, 0, 70, 0
2, 852480, Note_on_c, 0, 70, 104
2, 852600, Note_on_c, 0, 82, 105
2, 852720, Note_off_c, 0, 82, 0
2, 852720, Note_off_c, 0, 70, 0
2, 852720, Note_on_c, 0, 75, 107
2, 852840, Note_on_c, 0, 87, 109
2, 852960, Note_off_c, 0, 87, 0
2, 852960, Note_off_c, 0, 75, 0
2, 852960, Note_on_c, 0, 75, 110
2, 853080, Note_on_c, 0, 87, 112
2, 853200, Note_off_c, 0, 87, 0
2, 853200, Note_off_c, 0, 75, 0
2, 853200, Note_on_c, 0, 75, 114
2, 853320, Note_on_c, 0, 87, 115
2, 853440, Note_off_c, 0, 87, 0
2, 853440, Note_off_c, 0, 75, 0
2, 853440, Note_on_c, 0, 79, 117
2, 853560, Note_on_c, 0, 91, 119
2, 853680, Note_off_c, 0, 91, 0
2, 853680, Note_off_c, 0, 79, 0
2, 853680, Note_on_c, 0, 82, 120
2, 853800, Note_on_c, 0, 94, 122
2, 853920, Note_off_c, 0, 94, 0
2, 853920, Note_off_c, 0, 82, 0
2, 853920, Note_on_c, 0, 87, 125
2, 853920, Note_on_c, 0, 99, 125
2, 854400, Note_off_c, 0, 99, 0
2, 854400, Note_off_c, 0, 87, 0
2, 854640, Note_on_c, 0, 74, 125
2, 855120, Note_off_c, 0, 74, 0
2, 855360, Note_on_c, 0, 75, 127
2, 855840, Note_off_c, 0, 75, 0
2, 855840, End_track
3, 0, Start_track
3, 0, Title_t, "No Name"
3, 0, Control_c, 1, 0, 0
3, 0, Control_c, 1, 32, 0
3, 0, Program_c, 1, 0
3, 0, Control_c, 1, 7, 107
3, 0, Pitch_bend_c, 1, 8192
3, 0, Control_c, 1, 1, 0
3, 0, Control_c, 1, 64, 0
3, 0, Control_c, 1, 93, 28
3, 0, Control_c, 1, 91, 91
3, 0, Control_c, 1, 10, 65
3, 1920, Note_on_c, 1, 63, 61
3, 2880, Note_off_c, 1, 63, 0
3, 2880, Note_on_c, 1, 58, 57
3, 3840, Note_off_c, 1, 58, 0
3, 3840, Note_on_c, 1, 55, 52
3, 5220, Note_off_c, 1, 55, 0
3, 7680, Note_on_c, 1, 63, 62
3, 8160, Note_off_c, 1, 63, 0
3, 8160, Note_on_c, 1, 63, 57
3, 8160, Note_on_c, 1, 66, 57
3, 8640, Note_off_c, 1, 66, 0
3, 8640, Note_off_c, 1, 63, 0
3, 8640, Note_on_c, 1, 62, 49
3, 8640, Note_on_c, 1, 67, 49
3, 9060, Note_off_c, 1, 62, 0
3, 9067, Note_off_c, 1, 67, 0
3, 9600, Note_on_c, 1, 75, 60
3, 10080, Note_off_c, 1, 75, 0
3, 10080, Note_on_c, 1, 78, 59
3, 10080, Note_on_c, 1, 75, 59
3, 10560, Note_off_c, 1, 75, 0
3, 10560, Note_off_c, 1, 78, 0
3, 10560, Note_on_c, 1, 74, 54
3, 10560, Note_on_c, 1, 79, 54
3, 10987, Note_off_c, 1, 79, 0
3, 10987, Note_off_c, 1, 74, 0
3, 11040, Note_on_c, 1, 74, 61
3, 11040, Note_on_c, 1, 79, 61
3, 11520, Note_off_c, 1, 79, 0
3, 11520, Note_off_c, 1, 74, 0
3, 11520, Note_on_c, 1, 74, 71
3, 12000, Note_off_c, 1, 74, 0
3, 12000, Note_on_c, 1, 75, 60
3, 12480, Note_off_c, 1, 75, 0
3, 12480, Note_on_c, 1, 77, 54
3, 12610, Note_off_c, 1, 77, 0
3, 13440, Note_on_c, 1, 61, 59
3, 13440, Note_on_c, 1, 64, 59
3, 13440, Note_on_c, 1, 58, 59
3, 14400, Note_off_c, 1, 58, 0
3, 14400, Note_off_c, 1, 64, 0
3, 14400, Note_off_c, 1, 61, 0
3, 14400, Note_on_c, 1, 62, 56
3, 14400, Note_on_c, 1, 56, 56
3, 15360, Note_off_c, 1, 56, 0
3, 15360, Note_off_c, 1, 62, 0
3, 15360, Note_on_c, 1, 51, 54
3, 15360, Note_on_c, 1, 54, 54
3, 16740, Note_off_c, 1, 54, 0
3, 16740, Note_off_c, 1, 51, 0
3, 16800, Note_on_c, 1, 63, 52
3, 17280, Note_off_c, 1, 63, 0
3, 17280, Note_on_c, 1, 64, 54
3, 17707, Note_off_c, 1, 64, 0
3, 17760, Note_on_c, 1, 64, 56
3, 18240, Note_off_c, 1, 64, 0
3, 18240, Note_on_c, 1, 63, 58
3, 18667, Note_off_c, 1, 63, 0
3, 19200, Note_on_c, 1, 72, 63
3, 19680, Note_off_c, 1, 72, 0
3, 19680, Note_on_c, 1, 72, 59
3, 20160, Note_off_c, 1, 72, 0
3, 20160, Note_on_c, 1, 70, 55
3, 20580, Note_off_c, 1, 70, 0
3, 20640, Note_on_c, 1, 70, 58
3, 21600, Note_off_c, 1, 70, 0
3, 21600, Note_on_c, 1, 70, 60
3, 22080, Note_off_c, 1, 70, 0
3, 22080, Note_on_c, 1, 68, 56
3, 22507, Note_off_c, 1, 68, 0
3, 22560, Note_on_c, 1, 63, 68
3, 22560, Note_on_c, 1, 70, 68
3, 22995, Note_off_c, 1, 70, 0
3, 23002, Note_off_c, 1, 63, 0
3, 23040, Note_on_c, 1, 62, 59
3, 23040, Note_on_c, 1, 68, 59
3, 23040, Note_on_c, 1, 70, 59
3, 23550, Note_off_c, 1, 70, 0
3, 23557, Note_off_c, 1, 68, 0
3, 23557, Note_off_c, 1, 62, 0
3, 24240, Note_on_c, 1, 62, 59
3, 24240, Note_on_c, 1, 68, 59
3, 24240, Note_on_c, 1, 70, 59
3, 24480, Note_off_c, 1, 70, 0
3, 24480, Note_off_c, 1, 68, 0
3, 24480, Note_off_c, 1, 62, 0
3, 24480, Note_on_c, 1, 63, 65
3, 24480, Note_on_c, 1, 66, 65
3, 24480, Note_on_c, 1, 70, 65
3, 24720, Note_off_c, 1, 70, 0
3, 24720, Note_off_c, 1, 66, 0
3, 24720, Note_off_c, 1, 63, 0
3, 24720, Note_on_c, 1, 63, 58
3, 24720, Note_on_c, 1, 66, 58
3, 24720, Note_on_c, 1, 70, 58
3, 24960, Note_off_c, 1, 70, 0
3, 24960, Note_off_c, 1, 66, 0
3, 24960, Note_off_c, 1, 63, 0
3, 24960, Note_on_c, 1, 65, 51
3, 24960, Note_on_c, 1, 70, 51
3, 25440, Note_off_c, 1, 70, 0
3, 25440, Note_off_c, 1, 65, 0
3, 26160, Note_on_c, 1, 70, 55
3, 26400, Note_off_c, 1, 70, 0
3, 26400, Note_on_c, 1, 70, 64
3, 26640, Note_off_c, 1, 70, 0
3, 26640, Note_on_c, 1, 70, 57
3, 26880, Note_off_c, 1, 70, 0
3, 26880, Note_on_c, 1, 70, 50
3, 27360, Note_off_c, 1, 70, 0
3, 28080, Note_on_c, 1, 70, 66
3, 28320, Note_off_c, 1, 70, 0
3, 28320, Note_on_c, 1, 70, 72
3, 28560, Note_off_c, 1, 70, 0
3, 28560, Note_on_c, 1, 68, 65
3, 28800, Note_off_c, 1, 68, 0
3, 28800, Note_on_c, 1, 68, 57
3, 29280, Note_off_c, 1, 68, 0
3, 30000, Note_on_c, 1, 70, 54
3, 30240, Note_off_c, 1, 70, 0
3, 30240, Note_on_c, 1, 70, 60
3, 30480, Note_off_c, 1, 70, 0
3, 30480, Note_on_c, 1, 68, 53
3, 30720, Note_off_c, 1, 68, 0
3, 32640, Control_c, 1, 7, 117
3, 32640, Note_on_c, 1, 68, 88
3, 34080, Note_off_c, 1, 68, 0
3, 34080, Note_on_c, 1, 67, 78
3, 34560, Note_off_c, 1, 67, 0
3, 34560, Note_on_c, 1, 67, 77
3, 35040, Note_off_c, 1, 67, 0
3, 35040, Note_on_c, 1, 65, 76
3, 35520, Note_off_c, 1, 65, 0
3, 35520, Note_on_c, 1, 65, 74
3, 36000, Note_off_c, 1, 65, 0
3, 36000, Note_on_c, 1, 63, 73
3, 36480, Note_off_c, 1, 63, 0
3, 36480, Note_on_c, 1, 68, 80
3, 36480, Note_on_c, 1, 63, 80
3, 36480, Note_on_c, 1, 70, 80
3, 37440, Note_off_c, 1, 63, 0
3, 37440, Note_on_c, 1, 62, 67
3, 37920, Note_off_c, 1, 62, 0
3, 37920, Note_off_c, 1, 70, 0
3, 37920, Note_off_c, 1, 68, 0
3, 37920, Note_on_c, 1, 70, 65
3, 37920, Note_on_c, 1, 63, 65
3, 38400, Note_off_c, 1, 63, 0
3, 38400, Note_off_c, 1, 70, 0
3, 38400, Note_on_c, 1, 70, 63
3, 38400, Note_on_c, 1, 65, 63
3, 38880, Note_off_c, 1, 65, 0
3, 38880, Note_off_c, 1, 70, 0
3, 38880, Note_on_c, 1, 67, 62
3, 38880, Note_on_c, 1, 70, 62
3, 39360, Note_off_c, 1, 70, 0
3, 39360, Note_off_c, 1, 67, 0
3, 39360, Note_on_c, 1, 68, 60
3, 39360, Note_on_c, 1, 70, 60
3, 39840, Note_off_c, 1, 70, 0
3, 39840, Note_off_c, 1, 68, 0
3, 39840, Note_on_c, 1, 70, 58
3, 40320, Note_off_c, 1, 70, 0
3, 40320, Note_on_c, 1, 70, 66
3, 40320, Note_on_c, 1, 67, 66
3, 40560, Note_off_c, 1, 67, 0
3, 40560, Note_off_c, 1, 70, 0
3, 41280, Note_on_c, 1, 70, 80
3, 41520, Note_off_c, 1, 70, 0
3, 42240, Note_on_c, 1, 82, 95
3, 43680, Note_off_c, 1, 82, 0
3, 43680, Note_on_c, 1, 70, 95
3, 45600, Note_off_c, 1, 70, 0
3, 45600, Note_on_c, 1, 67, 86
3, 46080, Note_off_c, 1, 67, 0
3, 46080, Note_on_c, 1, 65, 84
3, 46560, Note_off_c, 1, 65, 0
3, 46560, Note_on_c, 1, 62, 82
3, 47040, Note_off_c, 1, 62, 0
3, 47040, Note_on_c, 1, 59, 80
3, 47520, Note_off_c, 1, 59, 0
3, 47520, Note_on_c, 1, 58, 78
3, 48000, Note_off_c, 1, 58, 0
3, 48000, Note_on_c, 1, 58, 76
3, 48240, Note_off_c, 1, 58, 0
3, 48960, Note_on_c, 1, 70, 85
3, 49200, Note_off_c, 1, 70, 0
3, 49920, Note_on_c, 1, 82, 94
3, 51360, Note_off_c, 1, 82, 0
3, 51360, Note_on_c, 1, 70, 95
3, 53280, Note_off_c, 1, 70, 0
3, 53280, Note_on_c, 1, 67, 90
3, 53760, Note_off_c, 1, 67, 0
3, 53760, Note_on_c, 1, 64, 87
3, 54240, Note_off_c, 1, 64, 0
3, 54240, Note_on_c, 1, 65, 83
3, 54720, Note_off_c, 1, 65, 0
3, 54720, Note_on_c, 1, 60, 80
3, 55200, Note_off_c, 1, 60, 0
3, 55200, Note_on_c, 1, 63, 77
3, 55680, Note_off_c, 1, 63, 0
3, 55680, Note_on_c, 1, 62, 72
3, 55920, Note_off_c, 1, 62, 0
3, 56640, Note_on_c, 1, 69, 67
3, 56880, Note_off_c, 1, 69, 0
3, 56880, Note_on_c, 1, 70, 67
3, 57120, Note_off_c, 1, 70, 0
3, 57120, Note_on_c, 1, 72, 68
3, 57360, Note_off_c, 1, 72, 0
3, 57360, Note_on_c, 1, 74, 68
3, 57600, Note_off_c, 1, 74, 0
3, 57600, Note_on_c, 1, 75, 69
3, 58560, Note_off_c, 1, 75, 0
3, 58560, Note_on_c, 1, 80, 71
3, 58800, Note_off_c, 1, 80, 0
3, 58800, Note_on_c, 1, 79, 71
3, 59040, Note_off_c, 1, 79, 0
3, 59040, Note_on_c, 1, 77, 71
3, 59280, Note_off_c, 1, 77, 0
3, 59280, Note_on_c, 1, 75, 72
3, 59520, Note_off_c, 1, 75, 0
3, 59520, Note_on_c, 1, 74, 72
3, 60000, Note_off_c, 1, 74, 0
3, 60480, Note_on_c, 1, 92, 74
3, 60720, Note_off_c, 1, 92, 0
3, 60720, Note_on_c, 1, 91, 75
3, 60960, Note_off_c, 1, 91, 0
3, 60960, Note_on_c, 1, 89, 75
3, 61200, Note_off_c, 1, 89, 0
3, 61200, Note_on_c, 1, 87, 75
3, 61440, Note_off_c, 1, 87, 0
3, 61440, Note_on_c, 1, 86, 76
3, 61440, Note_on_c, 1, 84, 76
3, 61920, Note_off_c, 1, 84, 0
3, 61920, Note_off_c, 1, 86, 0
3, 61920, Note_on_c, 1, 74, 77
3, 62160, Note_off_c, 1, 74, 0
3, 62160, Note_on_c, 1, 75, 77
3, 62400, Note_off_c, 1, 75, 0
3, 62400, Note_on_c, 1, 71, 78
3, 62640, Note_off_c, 1, 71, 0
3, 62640, Note_on_c, 1, 72, 78
3, 62795, Note_off_c, 1, 72, 0
3, 62880, Note_on_c, 1, 67, 78
3, 63035, Note_off_c, 1, 67, 0
3, 63120, Note_on_c, 1, 75, 79
3, 63275, Note_off_c, 1, 75, 0
3, 63360, Note_on_c, 1, 74, 78
3, 63515, Note_off_c, 1, 74, 0
3, 63600, Note_on_c, 1, 74, 81
3, 63600, Note_on_c, 1, 78, 81
3, 63755, Note_off_c, 1, 78, 0
3, 63755, Note_off_c, 1, 74, 0
3, 63840, Note_on_c, 1, 79, 84
3, 63840, Note_on_c, 1, 74, 84
3, 63995, Note_off_c, 1, 74, 0
3, 63995, Note_off_c, 1, 79, 0
3, 64080, Note_on_c, 1, 79, 86
3, 64080, Note_on_c, 1, 74, 86
3, 64235, Note_off_c, 1, 74, 0
3, 64235, Note_off_c, 1, 79, 0
3, 64320, Note_on_c, 1, 75, 89
3, 64320, Note_on_c, 1, 79, 89
3, 64475, Note_off_c, 1, 79, 0
3, 64475, Note_off_c, 1, 75, 0
3, 64560, Note_on_c, 1, 83, 92
3, 64560, Note_on_c, 1, 77, 92
3, 64715, Note_off_c, 1, 77, 0
3, 64715, Note_off_c, 1, 83, 0
3, 64800, Note_on_c, 1, 84, 95
3, 64800, Note_on_c, 1, 79, 95
3, 64955, Note_off_c, 1, 79, 0
3, 64955, Note_off_c, 1, 84, 0
3, 65040, Note_on_c, 1, 84, 97
3, 65040, Note_on_c, 1, 79, 97
3, 65195, Note_off_c, 1, 79, 0
3, 65195, Note_off_c, 1, 84, 0
3, 65280, Note_on_c, 1, 79, 100
3, 65280, Note_on_c, 1, 84, 100
3, 65640, Note_off_c, 1, 84, 0
3, 65640, Note_off_c, 1, 79, 0
3, 66240, Note_on_c, 1, 77, 104
3, 66240, Note_on_c, 1, 84, 104
3, 66600, Note_off_c, 1, 84, 0
3, 66600, Note_off_c, 1, 77, 0
3, 67200, Note_on_c, 1, 70, 96
3, 69600, Note_off_c, 1, 70, 0
3, 69600, Note_on_c, 1, 70, 83
3, 69840, Note_off_c, 1, 70, 0
3, 69840, Note_on_c, 1, 69, 81
3, 70080, Note_off_c, 1, 69, 0
3, 70080, Note_on_c, 1, 70, 78
3, 70320, Note_off_c, 1, 70, 0
3, 70320, Note_on_c, 1, 69, 76
3, 70560, Note_off_c, 1, 69, 0
3, 70560, Note_on_c, 1, 70, 73
3, 70800, Note_off_c, 1, 70, 0
3, 70800, Note_on_c, 1, 69, 70
3, 71040, Note_off_c, 1, 69, 0
3, 71040, Note_on_c, 1, 70, 87
3, 73440, Note_off_c, 1, 70, 0
3, 73440, Note_on_c, 1, 70, 70
3, 73680, Note_off_c, 1, 70, 0
3, 73680, Note_on_c, 1, 69, 68
3, 73920, Note_off_c, 1, 69, 0
3, 73920, Note_on_c, 1, 70, 66
3, 74160, Note_off_c, 1, 70, 0
3, 74160, Note_on_c, 1, 69, 64
3, 74400, Note_off_c, 1, 69, 0
3, 74400, Note_on_c, 1, 70, 62
3, 74640, Note_off_c, 1, 70, 0
3, 74640, Note_on_c, 1, 69, 60
3, 74880, Note_off_c, 1, 69, 0
3, 75360, Note_on_c, 1, 70, 63
3, 75600, Note_off_c, 1, 70, 0
3, 75600, Note_on_c, 1, 69, 62
3, 75840, Note_off_c, 1, 69, 0
3, 75840, Note_on_c, 1, 70, 60
3, 76080, Note_off_c, 1, 70, 0
3, 76080, Note_on_c, 1, 69, 58
3, 76320, Note_off_c, 1, 69, 0
3, 76320, Note_on_c, 1, 70, 57
3, 76560, Note_off_c, 1, 70, 0
3, 76560, Note_on_c, 1, 69, 55
3, 76800, Note_off_c, 1, 69, 0
3, 77280, Note_on_c, 1, 72, 59
3, 77520, Note_off_c, 1, 72, 0
3, 77520, Note_on_c, 1, 71, 57
3, 77760, Note_off_c, 1, 71, 0
3, 77760, Note_on_c, 1, 72, 56
3, 78000, Note_off_c, 1, 72, 0
3, 78000, Note_on_c, 1, 71, 54
3, 78240, Note_off_c, 1, 71, 0
3, 78240, Note_on_c, 1, 72, 52
3, 78480, Note_off_c, 1, 72, 0
3, 78480, Note_on_c, 1, 71, 50
3, 78720, Note_off_c, 1, 71, 0
3, 79200, Note_on_c, 1, 74, 58
3, 79440, Note_off_c, 1, 74, 0
3, 79440, Note_on_c, 1, 72, 56
3, 79680, Note_off_c, 1, 72, 0
3, 80160, Note_on_c, 1, 72, 58
3, 80400, Note_off_c, 1, 72, 0
3, 80400, Note_on_c, 1, 70, 56
3, 80640, Note_off_c, 1, 70, 0
3, 81120, Note_on_c, 1, 70, 58
3, 81360, Note_off_c, 1, 70, 0
3, 81360, Note_on_c, 1, 69, 56
3, 81600, Note_off_c, 1, 69, 0
3, 82080, Note_on_c, 1, 72, 57
3, 82320, Note_off_c, 1, 72, 0
3, 82320, Note_on_c, 1, 70, 53
3, 82560, Note_off_c, 1, 70, 0
3, 83040, Note_on_c, 1, 70, 57
3, 83280, Note_off_c, 1, 70, 0
3, 83280, Note_on_c, 1, 69, 55
3, 83520, Note_off_c, 1, 69, 0
3, 83520, Note_on_c, 1, 70, 53
3, 83760, Note_off_c, 1, 70, 0
3, 83760, Note_on_c, 1, 69, 52
3, 84000, Note_off_c, 1, 69, 0
3, 84000, Note_on_c, 1, 70, 50
3, 84240, Note_off_c, 1, 70, 0
3, 84240, Note_on_c, 1, 69, 49
3, 84480, Note_off_c, 1, 69, 0
3, 84960, Note_on_c, 1, 72, 57
3, 85200, Note_off_c, 1, 72, 0
3, 85200, Note_on_c, 1, 71, 55
3, 85440, Note_off_c, 1, 71, 0
3, 85440, Note_on_c, 1, 72, 53
3, 85680, Note_off_c, 1, 72, 0
3, 85680, Note_on_c, 1, 71, 52
3, 85920, Note_off_c, 1, 71, 0
3, 85920, Note_on_c, 1, 72, 50
3, 86160, Note_off_c, 1, 72, 0
3, 86160, Note_on_c, 1, 71, 48
3, 86400, Note_off_c, 1, 71, 0
3, 86880, Note_on_c, 1, 74, 53
3, 87120, Note_off_c, 1, 74, 0
3, 87120, Note_on_c, 1, 72, 50
3, 87360, Note_off_c, 1, 72, 0
3, 87840, Note_on_c, 1, 72, 53
3, 88080, Note_off_c, 1, 72, 0
3, 88080, Note_on_c, 1, 71, 52
3, 88320, Note_off_c, 1, 71, 0
3, 88800, Note_on_c, 1, 74, 54
3, 89040, Note_off_c, 1, 74, 0
3, 89040, Note_on_c, 1, 72, 53
3, 89280, Note_off_c, 1, 72, 0
3, 89760, Note_on_c, 1, 72, 57
3, 90240, Note_on_c, 1, 65, 57
3, 90720, Note_off_c, 1, 72, 0
3, 90720, Note_on_c, 1, 70, 57
3, 91200, Note_off_c, 1, 70, 0
3, 91200, Note_off_c, 1, 65, 0
3, 91200, Note_on_c, 1, 69, 57
3, 91585, Note_off_c, 1, 69, 0
3, 91680, Note_on_c, 1, 84, 69
3, 92160, Note_on_c, 1, 77, 62
3, 92640, Note_off_c, 1, 84, 0
3, 92640, Note_on_c, 1, 82, 61
3, 93120, Note_off_c, 1, 82, 0
3, 93120, Note_off_c, 1, 77, 0
3, 93120, Note_on_c, 1, 81, 60
3, 93505, Note_off_c, 1, 81, 0
3, 93600, Note_on_c, 1, 80, 78
3, 93600, Note_on_c, 1, 84, 78
3, 94080, Note_off_c, 1, 84, 0
3, 94080, Note_off_c, 1, 80, 0
3, 94080, Note_on_c, 1, 82, 73
3, 94080, Note_on_c, 1, 77, 73
3, 94560, Note_off_c, 1, 77, 0
3, 94560, Note_off_c, 1, 82, 0
3, 94560, Note_on_c, 1, 77, 72
3, 94560, Note_on_c, 1, 82, 72
3, 95040, Note_off_c, 1, 82, 0
3, 95040, Note_off_c, 1, 77, 0
3, 95040, Note_on_c, 1, 79, 70
3, 95040, Note_on_c, 1, 82, 70
3, 95520, Note_off_c, 1, 82, 0
3, 95520, Note_off_c, 1, 79, 0
3, 95520, Note_on_c, 1, 81, 68
3, 95520, Note_on_c, 1, 84, 68
3, 96000, Note_off_c, 1, 84, 0
3, 96000, Note_off_c, 1, 81, 0
3, 96240, Note_on_c, 1, 77, 75
3, 96480, Note_off_c, 1, 77, 0
3, 96480, Note_on_c, 1, 79, 73
3, 96720, Note_off_c, 1, 79, 0
3, 96720, Note_on_c, 1, 77, 71
3, 96960, Note_off_c, 1, 77, 0
3, 96960, Note_on_c, 1, 79, 69
3, 97200, Note_off_c, 1, 79, 0
3, 97200, Note_on_c, 1, 77, 67
3, 97440, Note_off_c, 1, 77, 0
3, 97440, Note_on_c, 1, 79, 65
3, 97680, Note_off_c, 1, 79, 0
3, 97680, Note_on_c, 1, 77, 63
3, 97920, Note_off_c, 1, 77, 0
3, 98160, Note_on_c, 1, 75, 69
3, 98400, Note_off_c, 1, 75, 0
3, 98400, Note_on_c, 1, 77, 68
3, 98640, Note_off_c, 1, 77, 0
3, 98640, Note_on_c, 1, 75, 67
3, 98880, Note_off_c, 1, 75, 0
3, 98880, Note_on_c, 1, 77, 65
3, 99120, Note_off_c, 1, 77, 0
3, 99120, Note_on_c, 1, 75, 64
3, 99360, Note_off_c, 1, 75, 0
3, 99360, Note_on_c, 1, 77, 63
3, 99600, Note_off_c, 1, 77, 0
3, 99600, Note_on_c, 1, 75, 61
3, 99840, Note_off_c, 1, 75, 0
3, 99840, Note_on_c, 1, 74, 60
3, 100080, Note_off_c, 1, 74, 0
3, 100080, Note_on_c, 1, 70, 68
3, 100320, Note_off_c, 1, 70, 0
3, 100320, Note_on_c, 1, 72, 68
3, 100560, Note_off_c, 1, 72, 0
3, 100560, Note_on_c, 1, 70, 68
3, 100800, Note_off_c, 1, 70, 0
3, 101040, Note_on_c, 1, 70, 68
3, 101280, Note_off_c, 1, 70, 0
3, 101520, Note_on_c, 1, 70, 67
3, 101760, Note_off_c, 1, 70, 0
3, 101760, Note_on_c, 1, 70, 67
3, 102000, Note_off_c, 1, 70, 0
3, 102000, Note_on_c, 1, 65, 67
3, 102240, Note_off_c, 1, 65, 0
3, 102240, Note_on_c, 1, 69, 67
3, 102480, Note_off_c, 1, 69, 0
3, 102480, Note_on_c, 1, 65, 65
3, 102720, Note_off_c, 1, 65, 0
3, 102720, Note_on_c, 1, 70, 65
3, 102960, Note_off_c, 1, 70, 0
3, 102960, Note_on_c, 1, 65, 65
3, 103200, Note_off_c, 1, 65, 0
3, 103440, Note_on_c, 1, 65, 65
3, 103680, Note_off_c, 1, 65, 0
3, 103920, Note_on_c, 1, 65, 67
3, 104160, Note_off_c, 1, 65, 0
3, 104160, Note_on_c, 1, 67, 66
3, 104400, Note_off_c, 1, 67, 0
3, 104400, Note_on_c, 1, 65, 65
3, 104640, Note_off_c, 1, 65, 0
3, 104640, Note_on_c, 1, 67, 64
3, 104880, Note_off_c, 1, 67, 0
3, 104880, Note_on_c, 1, 65, 62
3, 105120, Note_off_c, 1, 65, 0
3, 105120, Note_on_c, 1, 67, 61
3, 105360, Note_off_c, 1, 67, 0
3, 105360, Note_on_c, 1, 65, 60
3, 105600, Note_off_c, 1, 65, 0
3, 105840, Note_on_c, 1, 63, 65
3, 106080, Note_off_c, 1, 63, 0
3, 106080, Note_on_c, 1, 65, 64
3, 106320, Note_off_c, 1, 65, 0
3, 106320, Note_on_c, 1, 63, 63
3, 106560, Note_off_c, 1, 63, 0
3, 106560, Note_on_c, 1, 65, 61
3, 106800, Note_off_c, 1, 65, 0
3, 106800, Note_on_c, 1, 63, 60
3, 107040, Note_off_c, 1, 63, 0
3, 107040, Note_on_c, 1, 65, 59
3, 107280, Note_off_c, 1, 65, 0
3, 107280, Note_on_c, 1, 63, 58
3, 107520, Note_off_c, 1, 63, 0
3, 107520, Note_on_c, 1, 62, 63
3, 107760, Note_off_c, 1, 62, 0
3, 107760, Note_on_c, 1, 58, 63
3, 108000, Note_off_c, 1, 58, 0
3, 108000, Note_on_c, 1, 60, 63
3, 108240, Note_off_c, 1, 60, 0
3, 108240, Note_on_c, 1, 58, 63
3, 108480, Note_off_c, 1, 58, 0
3, 108720, Note_on_c, 1, 58, 62
3, 108960, Note_off_c, 1, 58, 0
3, 109200, Note_on_c, 1, 58, 62
3, 109440, Note_off_c, 1, 58, 0
3, 109440, Note_on_c, 1, 58, 62
3, 109680, Note_off_c, 1, 58, 0
3, 109680, Note_on_c, 1, 53, 62
3, 109920, Note_off_c, 1, 53, 0
3, 109920, Note_on_c, 1, 57, 62
3, 110160, Note_off_c, 1, 57, 0
3, 110160, Note_on_c, 1, 53, 62
3, 110400, Note_off_c, 1, 53, 0
3, 110400, Note_on_c, 1, 58, 61
3, 110640, Note_off_c, 1, 58, 0
3, 110640, Note_on_c, 1, 53, 61
3, 110880, Note_off_c, 1, 53, 0
3, 111120, Note_on_c, 1, 51, 61
3, 111360, Note_off_c, 1, 51, 0
3, 111600, Note_on_c, 1, 54, 61
3, 111840, Note_on_c, 1, 50, 61
3, 112560, Note_off_c, 1, 50, 0
3, 112560, Note_off_c, 1, 54, 0
3, 113280, Note_on_c, 1, 53, 60
3, 114240, Note_off_c, 1, 53, 0
3, 115440, Note_on_c, 1, 66, 59
3, 115680, Note_on_c, 1, 62, 59
3, 116400, Note_off_c, 1, 62, 0
3, 116400, Note_off_c, 1, 66, 0
3, 117120, Note_on_c, 1, 65, 58
3, 118080, Note_off_c, 1, 65, 0
3, 130560, Note_on_c, 1, 70, 56
3, 132480, Note_off_c, 1, 70, 0
3, 132480, Note_on_c, 1, 68, 54
3, 134400, Note_off_c, 1, 68, 0
3, 134400, Note_on_c, 1, 67, 88
3, 135840, Note_off_c, 1, 67, 0
3, 136320, Note_on_c, 1, 67, 81
3, 136680, Note_off_c, 1, 67, 0
3, 137280, Note_on_c, 1, 65, 79
3, 137640, Note_off_c, 1, 65, 0
3, 138240, Note_on_c, 1, 63, 77
3, 138600, Note_off_c, 1, 63, 0
3, 139200, Note_on_c, 1, 67, 75
3, 139200, Note_on_c, 1, 62, 75
3, 139560, Note_off_c, 1, 62, 0
3, 139560, Note_off_c, 1, 67, 0
3, 139680, Note_on_c, 1, 72, 74
3, 140160, Note_off_c, 1, 72, 0
3, 144000, Note_on_c, 1, 66, 64
3, 144000, Note_on_c, 1, 69, 64
3, 147360, Note_off_c, 1, 69, 0
3, 147360, Note_off_c, 1, 66, 0
3, 147360, Note_on_c, 1, 65, 63
3, 147360, Note_on_c, 1, 70, 63
3, 147720, Note_off_c, 1, 70, 0
3, 147720, Note_off_c, 1, 65, 0
3, 151680, Note_on_c, 1, 75, 62
3, 151680, Note_on_c, 1, 78, 62
3, 151680, Note_on_c, 1, 72, 62
3, 155520, Note_off_c, 1, 72, 0
3, 155520, Note_off_c, 1, 78, 0
3, 155520, Note_off_c, 1, 75, 0
3, 159360, Note_on_c, 1, 78, 60
3, 159360, Note_on_c, 1, 71, 60
3, 159360, Note_on_c, 1, 75, 60
3, 163200, Note_off_c, 1, 75, 0
3, 163200, Note_off_c, 1, 71, 0
3, 163200, Note_off_c, 1, 78, 0
3, 167040, Note_on_c, 1, 77, 57
3, 167040, Note_on_c, 1, 74, 57
3, 167040, Note_on_c, 1, 70, 57
3, 169320, Note_off_c, 1, 70, 0
3, 169320, Note_off_c, 1, 74, 0
3, 169320, Note_off_c, 1, 77, 0
3, 170880, Note_on_c, 1, 77, 62
3, 170880, Note_on_c, 1, 74, 62
3, 170880, Note_on_c, 1, 70, 62
3, 173160, Note_off_c, 1, 70, 0
3, 173160, Note_off_c, 1, 74, 0
3, 173160, Note_off_c, 1, 77, 0
3, 173280, Note_on_c, 1, 77, 77
3, 173760, Note_off_c, 1, 77, 0
3, 173760, Note_on_c, 1, 78, 81
3, 174240, Note_off_c, 1, 78, 0
3, 174240, Note_on_c, 1, 77, 86
3, 174720, Note_off_c, 1, 77, 0
3, 174720, Note_on_c, 1, 75, 93
3, 174720, Note_on_c, 1, 79, 93
3, 174720, Note_on_c, 1, 82, 93
3, 176160, Note_off_c, 1, 82, 0
3, 176160, Note_off_c, 1, 79, 0
3, 176160, Note_off_c, 1, 75, 0
3, 176160, Note_on_c, 1, 77, 88
3, 176640, Note_off_c, 1, 77, 0
3, 176640, Note_on_c, 1, 78, 86
3, 177000, Note_off_c, 1, 78, 0
3, 177120, Note_on_c, 1, 71, 83
3, 177600, Note_off_c, 1, 71, 0
3, 177600, Note_on_c, 1, 71, 81
3, 177600, Note_on_c, 1, 80, 81
3, 178080, Note_off_c, 1, 80, 0
3, 178080, Note_off_c, 1, 71, 0
3, 178080, Note_on_c, 1, 70, 79
3, 178080, Note_on_c, 1, 78, 79
3, 178560, Note_off_c, 1, 78, 0
3, 178560, Note_off_c, 1, 70, 0
3, 178560, Note_on_c, 1, 68, 77
3, 179040, Note_off_c, 1, 68, 0
3, 179040, Note_on_c, 1, 66, 75
3, 179520, Note_off_c, 1, 66, 0
3, 179520, Note_on_c, 1, 65, 72
3, 180000, Note_off_c, 1, 65, 0
3, 180000, Note_on_c, 1, 66, 70
3, 180480, Note_off_c, 1, 66, 0
3, 180480, Note_on_c, 1, 71, 63
3, 180480, Note_on_c, 1, 68, 63
3, 182400, Note_off_c, 1, 68, 0
3, 182400, Note_off_c, 1, 71, 0
3, 182400, Note_on_c, 1, 71, 62
3, 182400, Note_on_c, 1, 68, 62
3, 184320, Note_off_c, 1, 68, 0
3, 184320, Note_off_c, 1, 71, 0
3, 184320, Note_on_c, 1, 67, 61
3, 184320, Note_on_c, 1, 72, 61
3, 186240, Note_off_c, 1, 72, 0
3, 186240, Note_off_c, 1, 67, 0
3, 186240, Note_on_c, 1, 71, 59
3, 186240, Note_on_c, 1, 67, 59
3, 186240, Note_on_c, 1, 65, 59
3, 188160, Note_off_c, 1, 65, 0
3, 188160, Note_off_c, 1, 67, 0
3, 188160, Note_off_c, 1, 71, 0
3, 188160, Note_on_c, 1, 67, 58
3, 188160, Note_on_c, 1, 72, 58
3, 188160, Note_on_c, 1, 63, 58
3, 190080, Note_off_c, 1, 63, 0
3, 190080, Note_off_c, 1, 72, 0
3, 190080, Note_off_c, 1, 67, 0
3, 190080, Note_on_c, 1, 65, 57
3, 190080, Note_on_c, 1, 68, 57
3, 190080, Note_on_c, 1, 71, 57
3, 192000, Note_off_c, 1, 71, 0
3, 192000, Note_off_c, 1, 68, 0
3, 192000, Note_off_c, 1, 65, 0
3, 192000, Note_on_c, 1, 63, 55
3, 192000, Note_on_c, 1, 67, 55
3, 193920, Note_off_c, 1, 67, 0
3, 193920, Note_off_c, 1, 63, 0
3, 193920, Note_on_c, 1, 62, 54
3, 193920, Note_on_c, 1, 65, 54
3, 195840, Note_off_c, 1, 65, 0
3, 195840, Note_off_c, 1, 62, 0
3, 195840, Note_on_c, 1, 63, 52
3, 195840, Note_on_c, 1, 60, 52
3, 197760, Note_off_c, 1, 60, 0
3, 197760, Note_off_c, 1, 63, 0
3, 197760, Note_on_c, 1, 63, 51
3, 197760, Note_on_c, 1, 60, 51
3, 199680, Note_off_c, 1, 60, 0
3, 199680, Note_off_c, 1, 63, 0
3, 199680, Note_on_c, 1, 63, 50
3, 201600, Note_off_c, 1, 63, 0
3, 201600, Note_on_c, 1, 62, 48
3, 203520, Note_off_c, 1, 62, 0
3, 203520, Note_on_c, 1, 63, 47
3, 205440, Note_off_c, 1, 63, 0
3, 205440, Note_on_c, 1, 63, 45
3, 207360, Note_off_c, 1, 63, 0
3, 207360, Note_on_c, 1, 63, 44
3, 208800, Note_off_c, 1, 63, 0
3, 211200, Note_on_c, 1, 68, 91
3, 212640, Note_off_c, 1, 68, 0
3, 212640, Note_on_c, 1, 67, 82
3, 213120, Note_off_c, 1, 67, 0
3, 213120, Note_on_c, 1, 67, 80
3, 213600, Note_off_c, 1, 67, 0
3, 213600, Note_on_c, 1, 65, 77
3, 214080, Note_off_c, 1, 65, 0
3, 214080, Note_on_c, 1, 65, 75
3, 214560, Note_off_c, 1, 65, 0
3, 214560, Note_on_c, 1, 70, 72
3, 214560, Note_on_c, 1, 63, 72
3, 214800, Note_off_c, 1, 70, 0
3, 215040, Note_off_c, 1, 63, 0
3, 215040, Note_on_c, 1, 70, 70
3, 215040, Note_on_c, 1, 63, 70
3, 215040, Note_on_c, 1, 68, 70
3, 216000, Note_off_c, 1, 63, 0
3, 216000, Note_on_c, 1, 62, 67
3, 216480, Note_off_c, 1, 62, 0
3, 216480, Note_off_c, 1, 68, 0
3, 216480, Note_off_c, 1, 70, 0
3, 216480, Note_on_c, 1, 63, 67
3, 216480, Note_on_c, 1, 70, 67
3, 216960, Note_off_c, 1, 70, 0
3, 216960, Note_off_c, 1, 63, 0
3, 216960, Note_on_c, 1, 65, 67
3, 216960, Note_on_c, 1, 70, 67
3, 217440, Note_off_c, 1, 70, 0
3, 217440, Note_off_c, 1, 65, 0
3, 217440, Note_on_c, 1, 70, 67
3, 217440, Note_on_c, 1, 67, 67
3, 217920, Note_off_c, 1, 67, 0
3, 217920, Note_off_c, 1, 70, 0
3, 217920, Note_on_c, 1, 70, 67
3, 217920, Note_on_c, 1, 68, 67
3, 218400, Note_off_c, 1, 68, 0
3, 218400, Note_off_c, 1, 70, 0
3, 218400, Note_on_c, 1, 70, 67
3, 218880, Note_off_c, 1, 70, 0
3, 218880, Note_on_c, 1, 67, 68
3, 218880, Note_on_c, 1, 70, 68
3, 219120, Note_off_c, 1, 70, 0
3, 219120, Note_off_c, 1, 67, 0
3, 219840, Note_on_c, 1, 70, 81
3, 220080, Note_off_c, 1, 70, 0
3, 220800, Note_on_c, 1, 82, 95
3, 222240, Note_off_c, 1, 82, 0
3, 222240, Note_on_c, 1, 70, 95
3, 224160, Note_off_c, 1, 70, 0
3, 224160, Note_on_c, 1, 67, 83
3, 224640, Note_off_c, 1, 67, 0
3, 224640, Note_on_c, 1, 65, 80
3, 225120, Note_off_c, 1, 65, 0
3, 225120, Note_on_c, 1, 62, 78
3, 225600, Note_off_c, 1, 62, 0
3, 225600, Note_on_c, 1, 59, 75
3, 226080, Note_off_c, 1, 59, 0
3, 226080, Note_on_c, 1, 58, 73
3, 226560, Note_off_c, 1, 58, 0
3, 226560, Note_on_c, 1, 58, 70
3, 226800, Note_off_c, 1, 58, 0
3, 227520, Note_on_c, 1, 70, 80
3, 227760, Note_off_c, 1, 70, 0
3, 228480, Note_on_c, 1, 82, 95
3, 229920, Note_off_c, 1, 82, 0
3, 229920, Note_on_c, 1, 70, 95
3, 231840, Note_off_c, 1, 70, 0
3, 231840, Note_on_c, 1, 67, 86
3, 232320, Note_off_c, 1, 67, 0
3, 232320, Note_on_c, 1, 64, 84
3, 232800, Note_off_c, 1, 64, 0
3, 232800, Note_on_c, 1, 65, 83
3, 233280, Note_off_c, 1, 65, 0
3, 233280, Note_on_c, 1, 60, 81
3, 233760, Note_off_c, 1, 60, 0
3, 233760, Note_on_c, 1, 63, 79
3, 234240, Note_off_c, 1, 63, 0
3, 234240, Note_on_c, 1, 62, 76
3, 234480, Note_off_c, 1, 62, 0
3, 235200, Note_on_c, 1, 69, 77
3, 235440, Note_off_c, 1, 69, 0
3, 235440, Note_on_c, 1, 70, 77
3, 235680, Note_off_c, 1, 70, 0
3, 235680, Note_on_c, 1, 72, 78
3, 235920, Note_off_c, 1, 72, 0
3, 235920, Note_on_c, 1, 74, 78
3, 236160, Note_off_c, 1, 74, 0
3, 236160, Note_on_c, 1, 75, 78
3, 237120, Note_off_c, 1, 75, 0
3, 237120, Note_on_c, 1, 80, 80
3, 237360, Note_off_c, 1, 80, 0
3, 237360, Note_on_c, 1, 79, 80
3, 237600, Note_off_c, 1, 79, 0
3, 237600, Note_on_c, 1, 77, 80
3, 237840, Note_off_c, 1, 77, 0
3, 237840, Note_on_c, 1, 75, 81
3, 238080, Note_off_c, 1, 75, 0
3, 238080, Note_on_c, 1, 74, 81
3, 238560, Note_off_c, 1, 74, 0
3, 238560, Note_on_c, 1, 71, 81
3, 238800, Note_off_c, 1, 71, 0
3, 238800, Note_on_c, 1, 72, 82
3, 239040, Note_off_c, 1, 72, 0
3, 239040, Note_on_c, 1, 67, 82
3, 239195, Note_off_c, 1, 67, 0
3, 239280, Note_on_c, 1, 75, 82
3, 239435, Note_off_c, 1, 75, 0
3, 239520, Note_on_c, 1, 74, 83
3, 239675, Note_off_c, 1, 74, 0
3, 239760, Note_on_c, 1, 74, 82
3, 239760, Note_on_c, 1, 78, 82
3, 239915, Note_off_c, 1, 78, 0
3, 239915, Note_off_c, 1, 74, 0
3, 240000, Note_on_c, 1, 79, 83
3, 240000, Note_on_c, 1, 74, 83
3, 240155, Note_off_c, 1, 79, 0
3, 240156, Note_off_c, 1, 74, 0
3, 240240, Note_on_c, 1, 79, 85
3, 240240, Note_on_c, 1, 74, 85
3, 240395, Note_off_c, 1, 74, 0
3, 240395, Note_off_c, 1, 79, 0
3, 240480, Note_on_c, 1, 79, 87
3, 240480, Note_on_c, 1, 75, 87
3, 240635, Note_off_c, 1, 75, 0
3, 240635, Note_off_c, 1, 79, 0
3, 240720, Note_on_c, 1, 83, 89
3, 240720, Note_on_c, 1, 77, 89
3, 240875, Note_off_c, 1, 77, 0
3, 240875, Note_off_c, 1, 83, 0
3, 240960, Note_on_c, 1, 79, 91
3, 240960, Note_on_c, 1, 84, 91
3, 241115, Note_off_c, 1, 84, 0
3, 241115, Note_off_c, 1, 79, 0
3, 241200, Note_on_c, 1, 84, 92
3, 241200, Note_on_c, 1, 79, 92
3, 241355, Note_off_c, 1, 79, 0
3, 241355, Note_off_c, 1, 84, 0
3, 241440, Note_on_c, 1, 77, 94
3, 241440, Note_on_c, 1, 84, 94
3, 241595, Note_off_c, 1, 84, 0
3, 241595, Note_off_c, 1, 77, 0
3, 241680, Note_on_c, 1, 84, 96
3, 241680, Note_on_c, 1, 77, 96
3, 241835, Note_off_c, 1, 77, 0
3, 241835, Note_off_c, 1, 84, 0
3, 241920, Note_on_c, 1, 82, 98
3, 241920, Note_on_c, 1, 77, 98
3, 242280, Note_off_c, 1, 82, 0
3, 242287, Note_off_c, 1, 77, 0
3, 242880, Note_on_c, 1, 82, 99
3, 242880, Note_on_c, 1, 75, 99
3, 243240, Note_off_c, 1, 75, 0
3, 243240, Note_off_c, 1, 82, 0
3, 243840, Note_on_c, 1, 63, 95
3, 246240, Note_off_c, 1, 63, 0
3, 246240, Note_on_c, 1, 63, 79
3, 246480, Note_off_c, 1, 63, 0
3, 246480, Note_on_c, 1, 62, 78
3, 246720, Note_off_c, 1, 62, 0
3, 246720, Note_on_c, 1, 63, 77
3, 246960, Note_off_c, 1, 63, 0
3, 246960, Note_on_c, 1, 62, 76
3, 247200, Note_off_c, 1, 62, 0
3, 247200, Note_on_c, 1, 63, 75
3, 247440, Note_off_c, 1, 63, 0
3, 247440, Note_on_c, 1, 62, 74
3, 247680, Note_off_c, 1, 62, 0
3, 247680, Note_on_c, 1, 63, 88
3, 250080, Note_off_c, 1, 63, 0
3, 250080, Note_on_c, 1, 63, 75
3, 250320, Note_off_c, 1, 63, 0
3, 250320, Note_on_c, 1, 62, 73
3, 250560, Note_off_c, 1, 62, 0
3, 250560, Note_on_c, 1, 63, 72
3, 250800, Note_off_c, 1, 63, 0
3, 250800, Note_on_c, 1, 62, 71
3, 251040, Note_off_c, 1, 62, 0
3, 251040, Note_on_c, 1, 63, 70
3, 251280, Note_off_c, 1, 63, 0
3, 251280, Note_on_c, 1, 62, 68
3, 251520, Note_off_c, 1, 62, 0
3, 252000, Note_on_c, 1, 63, 65
3, 252240, Note_off_c, 1, 63, 0
3, 252240, Note_on_c, 1, 62, 64
3, 252480, Note_off_c, 1, 62, 0
3, 252480, Note_on_c, 1, 63, 63
3, 252720, Note_off_c, 1, 63, 0
3, 252720, Note_on_c, 1, 62, 61
3, 252960, Note_off_c, 1, 62, 0
3, 252960, Note_on_c, 1, 63, 60
3, 253200, Note_off_c, 1, 63, 0
3, 253200, Note_on_c, 1, 62, 59
3, 253440, Note_off_c, 1, 62, 0
3, 253920, Note_on_c, 1, 65, 65
3, 254160, Note_off_c, 1, 65, 0
3, 254160, Note_on_c, 1, 64, 63
3, 254400, Note_off_c, 1, 64, 0
3, 254400, Note_on_c, 1, 65, 62
3, 254640, Note_off_c, 1, 65, 0
3, 254640, Note_on_c, 1, 64, 60
3, 254880, Note_off_c, 1, 64, 0
3, 254880, Note_on_c, 1, 65, 59
3, 255120, Note_off_c, 1, 65, 0
3, 255120, Note_on_c, 1, 64, 57
3, 255360, Note_off_c, 1, 64, 0
3, 255840, Note_on_c, 1, 67, 59
3, 256080, Note_off_c, 1, 67, 0
3, 256080, Note_on_c, 1, 65, 56
3, 256320, Note_off_c, 1, 65, 0
3, 256800, Note_on_c, 1, 65, 57
3, 257040, Note_off_c, 1, 65, 0
3, 257040, Note_on_c, 1, 63, 52
3, 257280, Note_off_c, 1, 63, 0
3, 257760, Note_on_c, 1, 63, 59
3, 258000, Note_off_c, 1, 63, 0
3, 258000, Note_on_c, 1, 62, 55
3, 258240, Note_off_c, 1, 62, 0
3, 258720, Note_on_c, 1, 65, 58
3, 258960, Note_off_c, 1, 65, 0
3, 258960, Note_on_c, 1, 63, 57
3, 259200, Note_off_c, 1, 63, 0
3, 259680, Note_on_c, 1, 75, 63
3, 259920, Note_off_c, 1, 75, 0
3, 259920, Note_on_c, 1, 74, 62
3, 260160, Note_off_c, 1, 74, 0
3, 260160, Note_on_c, 1, 75, 61
3, 260400, Note_off_c, 1, 75, 0
3, 260400, Note_on_c, 1, 74, 60
3, 260640, Note_off_c, 1, 74, 0
3, 260640, Note_on_c, 1, 75, 58
3, 260880, Note_off_c, 1, 75, 0
3, 260880, Note_on_c, 1, 74, 57
3, 261120, Note_off_c, 1, 74, 0
3, 261600, Note_on_c, 1, 77, 61
3, 261840, Note_off_c, 1, 77, 0
3, 261840, Note_on_c, 1, 76, 60
3, 262080, Note_off_c, 1, 76, 0
3, 262080, Note_on_c, 1, 77, 59
3, 262320, Note_off_c, 1, 77, 0
3, 262320, Note_on_c, 1, 76, 58
3, 262560, Note_off_c, 1, 76, 0
3, 262560, Note_on_c, 1, 77, 57
3, 262800, Note_off_c, 1, 77, 0
3, 262800, Note_on_c, 1, 76, 56
3, 263040, Note_off_c, 1, 76, 0
3, 263520, Note_on_c, 1, 79, 59
3, 263760, Note_off_c, 1, 79, 0
3, 263760, Note_on_c, 1, 77, 56
3, 264000, Note_off_c, 1, 77, 0
3, 264480, Note_on_c, 1, 77, 58
3, 264720, Note_off_c, 1, 77, 0
3, 264720, Note_on_c, 1, 76, 55
3, 264960, Note_off_c, 1, 76, 0
3, 265440, Note_on_c, 1, 79, 54
3, 265680, Note_off_c, 1, 79, 0
3, 265680, Note_on_c, 1, 77, 52
3, 265920, Note_off_c, 1, 77, 0
3, 266400, Note_on_c, 1, 77, 58
3, 266880, Note_on_c, 1, 70, 56
3, 267360, Note_off_c, 1, 77, 0
3, 267360, Note_on_c, 1, 75, 56
3, 267840, Note_off_c, 1, 75, 0
3, 267840, Note_off_c, 1, 70, 0
3, 267840, Note_on_c, 1, 74, 63
3, 268225, Note_off_c, 1, 74, 0
3, 268320, Note_on_c, 1, 89, 62
3, 268800, Note_on_c, 1, 82, 61
3, 269280, Note_off_c, 1, 89, 0
3, 269280, Note_on_c, 1, 87, 59
3, 269760, Note_off_c, 1, 87, 0
3, 269760, Note_off_c, 1, 82, 0
3, 269760, Note_on_c, 1, 86, 58
3, 270145, Note_off_c, 1, 86, 0
3, 270240, Note_on_c, 1, 89, 73
3, 270240, Note_on_c, 1, 85, 73
3, 270720, Note_off_c, 1, 85, 0
3, 270720, Note_off_c, 1, 89, 0
3, 270720, Note_on_c, 1, 82, 72
3, 270720, Note_on_c, 1, 87, 72
3, 271200, Note_off_c, 1, 87, 0
3, 271200, Note_off_c, 1, 82, 0
3, 271200, Note_on_c, 1, 87, 71
3, 271200, Note_on_c, 1, 82, 71
3, 271680, Note_off_c, 1, 82, 0
3, 271680, Note_off_c, 1, 87, 0
3, 271680, Note_on_c, 1, 87, 69
3, 271680, Note_on_c, 1, 84, 69
3, 272160, Note_off_c, 1, 84, 0
3, 272160, Note_off_c, 1, 87, 0
3, 272160, Note_on_c, 1, 89, 68
3, 272160, Note_on_c, 1, 86, 68
3, 272640, Note_off_c, 1, 86, 0
3, 272640, Note_off_c, 1, 89, 0
3, 272640, Note_on_c, 1, 79, 68
3, 272880, Note_on_c, 1, 82, 68
3, 273120, Note_off_c, 1, 82, 0
3, 273120, Note_on_c, 1, 84, 68
3, 273360, Note_off_c, 1, 84, 0
3, 273360, Note_on_c, 1, 82, 68
3, 273600, Note_off_c, 1, 82, 0
3, 273600, Note_on_c, 1, 84, 68
3, 273840, Note_off_c, 1, 84, 0
3, 273840, Note_on_c, 1, 82, 68
3, 274080, Note_off_c, 1, 82, 0
3, 274080, Note_on_c, 1, 84, 68
3, 274320, Note_off_c, 1, 84, 0
3, 274320, Note_on_c, 1, 82, 68
3, 274560, Note_off_c, 1, 82, 0
3, 274560, Note_off_c, 1, 79, 0
3, 274560, Note_on_c, 1, 77, 68
3, 274800, Note_on_c, 1, 80, 67
3, 275040, Note_off_c, 1, 80, 0
3, 275040, Note_on_c, 1, 82, 67
3, 275280, Note_off_c, 1, 82, 0
3, 275280, Note_on_c, 1, 80, 67
3, 275520, Note_off_c, 1, 80, 0
3, 275520, Note_on_c, 1, 82, 67
3, 275760, Note_off_c, 1, 82, 0
3, 275760, Note_on_c, 1, 80, 67
3, 276000, Note_off_c, 1, 80, 0
3, 276000, Note_on_c, 1, 82, 67
3, 276240, Note_off_c, 1, 82, 0
3, 276240, Note_on_c, 1, 80, 67
3, 276480, Note_off_c, 1, 80, 0
3, 276480, Note_off_c, 1, 77, 0
3, 276480, Note_on_c, 1, 79, 67
3, 276720, Note_off_c, 1, 79, 0
3, 276720, Note_on_c, 1, 75, 67
3, 276960, Note_off_c, 1, 75, 0
3, 276960, Note_on_c, 1, 77, 66
3, 277200, Note_off_c, 1, 77, 0
3, 277200, Note_on_c, 1, 75, 66
3, 277440, Note_off_c, 1, 75, 0
3, 277680, Note_on_c, 1, 75, 66
3, 277920, Note_off_c, 1, 75, 0
3, 278160, Note_on_c, 1, 75, 66
3, 278400, Note_off_c, 1, 75, 0
3, 278640, Note_on_c, 1, 70, 66
3, 278880, Note_off_c, 1, 70, 0
3, 278880, Note_on_c, 1, 74, 66
3, 279120, Note_off_c, 1, 74, 0
3, 279120, Note_on_c, 1, 68, 65
3, 279360, Note_off_c, 1, 68, 0
3, 279360, Note_on_c, 1, 75, 65
3, 279600, Note_off_c, 1, 75, 0
3, 279600, Note_on_c, 1, 70, 65
3, 279840, Note_off_c, 1, 70, 0
3, 279840, Note_on_c, 1, 68, 65
3, 280080, Note_off_c, 1, 68, 0
3, 280080, Note_on_c, 1, 70, 65
3, 280320, Note_off_c, 1, 70, 0
3, 280320, Note_on_c, 1, 67, 65
3, 280560, Note_on_c, 1, 70, 65
3, 280800, Note_off_c, 1, 70, 0
3, 280800, Note_on_c, 1, 72, 65
3, 281040, Note_off_c, 1, 72, 0
3, 281040, Note_on_c, 1, 70, 65
3, 281280, Note_off_c, 1, 70, 0
3, 281280, Note_on_c, 1, 72, 65
3, 281520, Note_off_c, 1, 72, 0
3, 281520, Note_on_c, 1, 70, 64
3, 281760, Note_off_c, 1, 70, 0
3, 281760, Note_on_c, 1, 72, 64
3, 282000, Note_off_c, 1, 72, 0
3, 282000, Note_on_c, 1, 70, 64
3, 282240, Note_off_c, 1, 70, 0
3, 282240, Note_off_c, 1, 67, 0
3, 282240, Note_on_c, 1, 65, 64
3, 282480, Note_on_c, 1, 68, 64
3, 282720, Note_off_c, 1, 68, 0
3, 282720, Note_on_c, 1, 70, 64
3, 282960, Note_off_c, 1, 70, 0
3, 282960, Note_on_c, 1, 68, 64
3, 283200, Note_off_c, 1, 68, 0
3, 283200, Note_on_c, 1, 70, 64
3, 283440, Note_off_c, 1, 70, 0
3, 283440, Note_on_c, 1, 68, 64
3, 283680, Note_off_c, 1, 68, 0
3, 283680, Note_on_c, 1, 70, 63
3, 283920, Note_off_c, 1, 70, 0
3, 283920, Note_on_c, 1, 68, 63
3, 284160, Note_off_c, 1, 68, 0
3, 284160, Note_off_c, 1, 65, 0
3, 284160, Note_on_c, 1, 67, 63
3, 284400, Note_off_c, 1, 67, 0
3, 284400, Note_on_c, 1, 63, 63
3, 284640, Note_off_c, 1, 63, 0
3, 284640, Note_on_c, 1, 65, 63
3, 284880, Note_off_c, 1, 65, 0
3, 284880, Note_on_c, 1, 63, 63
3, 285120, Note_off_c, 1, 63, 0
3, 285120, Note_on_c, 1, 60, 63
3, 285120, Note_on_c, 1, 68, 63
3, 285360, Note_off_c, 1, 60, 0
3, 285360, Note_on_c, 1, 63, 63
3, 285600, Note_off_c, 1, 63, 0
3, 285600, Note_off_c, 1, 68, 0
3, 285600, Note_on_c, 1, 58, 63
3, 285600, Note_on_c, 1, 67, 63
3, 285840, Note_off_c, 1, 58, 0
3, 285840, Note_on_c, 1, 63, 63
3, 286080, Note_off_c, 1, 63, 0
3, 286080, Note_off_c, 1, 67, 0
3, 286080, Note_on_c, 1, 67, 62
3, 286320, Note_off_c, 1, 67, 0
3, 286320, Note_on_c, 1, 58, 62
3, 286560, Note_off_c, 1, 58, 0
3, 286560, Note_on_c, 1, 65, 62
3, 286800, Note_off_c, 1, 65, 0
3, 286800, Note_on_c, 1, 56, 62
3, 287040, Note_off_c, 1, 56, 0
3, 287040, Note_on_c, 1, 63, 62
3, 287280, Note_off_c, 1, 63, 0
3, 287280, Note_on_c, 1, 55, 62
3, 287520, Note_off_c, 1, 55, 0
3, 287520, Note_on_c, 1, 62, 62
3, 287760, Note_off_c, 1, 62, 0
3, 287760, Note_on_c, 1, 53, 62
3, 288000, Note_off_c, 1, 53, 0
3, 288240, Note_on_c, 1, 59, 61
3, 288480, Note_on_c, 1, 55, 61
3, 289200, Note_off_c, 1, 55, 0
3, 289200, Note_off_c, 1, 59, 0
3, 289920, Note_on_c, 1, 58, 61
3, 290880, Note_off_c, 1, 58, 0
3, 292080, Note_on_c, 1, 71, 60
3, 292320, Note_on_c, 1, 67, 60
3, 293040, Note_off_c, 1, 67, 0
3, 293040, Note_off_c, 1, 71, 0
3, 293760, Note_on_c, 1, 70, 59
3, 294720, Note_off_c, 1, 70, 0
3, 307200, Note_on_c, 1, 75, 53
3, 309120, Note_off_c, 1, 75, 0
3, 309120, Note_on_c, 1, 73, 52
3, 311040, Note_off_c, 1, 73, 0
3, 311040, Note_on_c, 1, 72, 85
3, 312480, Note_off_c, 1, 72, 0
3, 312480, Note_on_c, 1, 72, 78
3, 312720, Note_off_c, 1, 72, 0
3, 312720, Note_on_c, 1, 73, 78
3, 312960, Note_off_c, 1, 73, 0
3, 312960, Note_on_c, 1, 73, 78
3, 313320, Note_off_c, 1, 73, 0
3, 313440, Note_on_c, 1, 70, 77
3, 313680, Note_off_c, 1, 70, 0
3, 313680, Note_on_c, 1, 72, 77
3, 313920, Note_off_c, 1, 72, 0
3, 313920, Note_on_c, 1, 72, 76
3, 314280, Note_off_c, 1, 72, 0
3, 314400, Note_on_c, 1, 68, 76
3, 314640, Note_off_c, 1, 68, 0
3, 314640, Note_on_c, 1, 70, 75
3, 314880, Note_off_c, 1, 70, 0
3, 314880, Note_on_c, 1, 70, 75
3, 315240, Note_off_c, 1, 70, 0
3, 315360, Note_on_c, 1, 67, 74
3, 315600, Note_off_c, 1, 67, 0
3, 315600, Note_on_c, 1, 68, 74
3, 315840, Note_off_c, 1, 68, 0
3, 315840, Note_on_c, 1, 68, 73
3, 316200, Note_off_c, 1, 68, 0
3, 316320, Note_on_c, 1, 65, 73
3, 316800, Note_off_c, 1, 65, 0
3, 316800, Note_on_c, 1, 65, 79
3, 317760, Note_off_c, 1, 65, 0
3, 317760, Note_on_c, 1, 64, 64
3, 318240, Note_off_c, 1, 64, 0
3, 318240, Note_on_c, 1, 65, 63
3, 318240, Note_on_c, 1, 72, 63
3, 318720, Note_off_c, 1, 72, 0
3, 318720, Note_off_c, 1, 65, 0
3, 318720, Note_on_c, 1, 67, 63
3, 318720, Note_on_c, 1, 72, 63
3, 319200, Note_off_c, 1, 72, 0
3, 319200, Note_off_c, 1, 67, 0
3, 319200, Note_on_c, 1, 68, 63
3, 319200, Note_on_c, 1, 72, 63
3, 319680, Note_off_c, 1, 72, 0
3, 319680, Note_off_c, 1, 68, 0
3, 319680, Note_on_c, 1, 70, 63
3, 320160, Note_off_c, 1, 70, 0
3, 320160, Note_on_c, 1, 76, 63
3, 320160, Note_on_c, 1, 67, 63
3, 320160, Note_on_c, 1, 72, 63
3, 320640, Note_off_c, 1, 72, 0
3, 320640, Note_off_c, 1, 67, 0
3, 320640, Note_off_c, 1, 76, 0
3, 320640, Note_on_c, 1, 68, 64
3, 320640, Note_on_c, 1, 72, 64
3, 320640, Note_on_c, 1, 77, 64
3, 321000, Note_off_c, 1, 77, 0
3, 321000, Note_off_c, 1, 72, 0
3, 321000, Note_off_c, 1, 68, 0
3, 321600, Note_on_c, 1, 72, 79
3, 321960, Note_off_c, 1, 72, 0
3, 322560, Note_on_c, 1, 84, 95
3, 324000, Note_off_c, 1, 84, 0
3, 324000, Note_on_c, 1, 72, 95
3, 325920, Note_off_c, 1, 72, 0
3, 325920, Note_on_c, 1, 68, 86
3, 326400, Note_off_c, 1, 68, 0
3, 326400, Note_on_c, 1, 67, 85
3, 326880, Note_off_c, 1, 67, 0
3, 326880, Note_on_c, 1, 64, 83
3, 327360, Note_off_c, 1, 64, 0
3, 327360, Note_on_c, 1, 61, 82
3, 327840, Note_off_c, 1, 61, 0
3, 327840, Note_on_c, 1, 60, 80
3, 328320, Note_off_c, 1, 60, 0
3, 328320, Note_on_c, 1, 60, 79
3, 328705, Note_off_c, 1, 60, 0
3, 329280, Note_on_c, 1, 72, 86
3, 329665, Note_off_c, 1, 72, 0
3, 330240, Note_on_c, 1, 84, 94
3, 331390, Note_off_c, 1, 84, 0
3, 331680, Note_on_c, 1, 72, 94
3, 333215, Note_off_c, 1, 72, 0
3, 333600, Note_on_c, 1, 68, 88
3, 334080, Note_off_c, 1, 68, 0
3, 334080, Note_on_c, 1, 65, 86
3, 334560, Note_off_c, 1, 65, 0
3, 334560, Note_on_c, 1, 62, 85
3, 335040, Note_off_c, 1, 62, 0
3, 335040, Note_on_c, 1, 59, 83
3, 335520, Note_off_c, 1, 59, 0
3, 335520, Note_on_c, 1, 58, 81
3, 336000, Note_off_c, 1, 58, 0
3, 336000, Note_on_c, 1, 58, 80
3, 336360, Note_off_c, 1, 58, 0
3, 336960, Note_on_c, 1, 70, 87
3, 337320, Note_off_c, 1, 70, 0
3, 337920, Note_on_c, 1, 82, 95
3, 339360, Note_off_c, 1, 82, 0
3, 339360, Note_on_c, 1, 70, 95
3, 341280, Note_off_c, 1, 70, 0
3, 341280, Note_on_c, 1, 66, 87
3, 341760, Note_off_c, 1, 66, 0
3, 341760, Note_on_c, 1, 65, 85
3, 342240, Note_off_c, 1, 65, 0
3, 342240, Note_on_c, 1, 62, 83
3, 342720, Note_off_c, 1, 62, 0
3, 342720, Note_on_c, 1, 59, 82
3, 343200, Note_off_c, 1, 59, 0
3, 343200, Note_on_c, 1, 58, 80
3, 343680, Note_off_c, 1, 58, 0
3, 343680, Note_on_c, 1, 58, 80
3, 344040, Note_off_c, 1, 58, 0
3, 344640, Note_on_c, 1, 70, 87
3, 345000, Note_off_c, 1, 70, 0
3, 345600, Note_on_c, 1, 82, 96
3, 345960, Note_off_c, 1, 82, 0
3, 346560, Note_on_c, 1, 83, 96
3, 346920, Note_off_c, 1, 83, 0
3, 370560, Note_on_c, 1, 70, 57
3, 372480, Note_off_c, 1, 70, 0
3, 372480, Note_on_c, 1, 68, 66
3, 374400, Note_off_c, 1, 68, 0
3, 374400, Note_on_c, 1, 67, 75
3, 377280, Note_off_c, 1, 67, 0
3, 377280, Note_on_c, 1, 68, 70
3, 377760, Note_off_c, 1, 68, 0
3, 377760, Note_on_c, 1, 65, 66
3, 378240, Note_off_c, 1, 65, 0
3, 378240, Note_on_c, 1, 75, 62
3, 380160, Note_off_c, 1, 75, 0
3, 380160, Note_on_c, 1, 70, 63
3, 382080, Note_off_c, 1, 70, 0
3, 382080, Note_on_c, 1, 67, 63
3, 383040, Note_off_c, 1, 67, 0
3, 383040, Note_on_c, 1, 68, 63
3, 383520, Note_off_c, 1, 68, 0
3, 383520, Note_on_c, 1, 67, 63
3, 384000, Note_off_c, 1, 67, 0
3, 384000, Note_on_c, 1, 67, 63
3, 384480, Note_off_c, 1, 67, 0
3, 384480, Note_on_c, 1, 65, 63
3, 384960, Note_off_c, 1, 65, 0
3, 384960, Note_on_c, 1, 63, 63
3, 385440, Note_off_c, 1, 63, 0
3, 385440, Note_on_c, 1, 58, 63
3, 385920, Note_off_c, 1, 58, 0
3, 401280, Note_on_c, 1, 75, 67
3, 403200, Note_off_c, 1, 75, 0
3, 403200, Note_on_c, 1, 70, 63
3, 405120, Note_off_c, 1, 70, 0
3, 405120, Note_on_c, 1, 67, 63
3, 406080, Note_off_c, 1, 67, 0
3, 406080, Note_on_c, 1, 68, 63
3, 406560, Note_off_c, 1, 68, 0
3, 406560, Note_on_c, 1, 67, 63
3, 407040, Note_off_c, 1, 67, 0
3, 407040, Note_on_c, 1, 67, 63
3, 407520, Note_off_c, 1, 67, 0
3, 407520, Note_on_c, 1, 65, 63
3, 408000, Note_off_c, 1, 65, 0
3, 408000, Note_on_c, 1, 63, 63
3, 408480, Note_off_c, 1, 63, 0
3, 408480, Note_on_c, 1, 58, 63
3, 408960, Note_off_c, 1, 58, 0
3, 435840, Note_on_c, 1, 63, 53
3, 437760, Note_off_c, 1, 63, 0
3, 437760, Note_on_c, 1, 58, 51
3, 439680, Note_off_c, 1, 58, 0
3, 439680, Note_on_c, 1, 55, 50
3, 441120, Note_off_c, 1, 55, 0
3, 443040, Note_on_c, 1, 63, 48
3, 443520, Note_off_c, 1, 63, 0
3, 443520, Note_on_c, 1, 58, 48
3, 445440, Note_off_c, 1, 58, 0
3, 445440, Note_on_c, 1, 55, 46
3, 445920, Note_off_c, 1, 55, 0
3, 446880, Note_on_c, 1, 75, 46
3, 447360, Note_off_c, 1, 75, 0
3, 447360, Note_on_c, 1, 70, 45
3, 449280, Note_off_c, 1, 70, 0
3, 449280, Note_on_c, 1, 67, 44
3, 449760, Note_off_c, 1, 67, 0
3, 450720, Note_on_c, 1, 91, 43
3, 450720, Note_on_c, 1, 87, 43
3, 451200, Note_off_c, 1, 87, 0
3, 451200, Note_off_c, 1, 91, 0
3, 451680, Note_on_c, 1, 87, 42
3, 452160, Note_off_c, 1, 87, 0
3, 452160, Note_on_c, 1, 82, 42
3, 452640, Note_off_c, 1, 82, 0
3, 452640, Note_on_c, 1, 79, 42
3, 453120, Note_off_c, 1, 79, 0
3, 453120, Note_on_c, 1, 79, 42
3, 453600, Note_off_c, 1, 79, 0
3, 455520, Note_on_c, 1, 63, 40
3, 456000, Note_off_c, 1, 63, 0
3, 456000, Note_on_c, 1, 58, 40
3, 456480, Note_off_c, 1, 58, 0
3, 456480, Note_on_c, 1, 55, 39
3, 456960, Note_off_c, 1, 55, 0
3, 456960, Note_on_c, 1, 55, 39
3, 457440, Note_off_c, 1, 55, 0
3, 458880, Note_on_c, 1, 53, 38
3, 460320, Note_off_c, 1, 53, 0
3, 460320, Note_on_c, 1, 51, 41
3, 460680, Note_off_c, 1, 51, 0
3, 460800, Note_on_c, 1, 53, 42
3, 462240, Note_off_c, 1, 53, 0
3, 462240, Note_on_c, 1, 51, 44
3, 462600, Note_off_c, 1, 51, 0
3, 462720, Note_on_c, 1, 53, 45
3, 464160, Note_off_c, 1, 53, 0
3, 464160, Note_on_c, 1, 51, 48
3, 464520, Note_off_c, 1, 51, 0
3, 464640, Note_on_c, 1, 50, 49
3, 464640, Note_on_c, 1, 53, 49
3, 466080, Note_off_c, 1, 53, 0
3, 466080, Note_off_c, 1, 50, 0
3, 466080, Note_on_c, 1, 53, 73
3, 466080, Note_on_c, 1, 56, 73
3, 466440, Note_off_c, 1, 56, 0
3, 466440, Note_off_c, 1, 53, 0
3, 466560, Note_on_c, 1, 55, 70
3, 467040, Note_off_c, 1, 55, 0
3, 468480, Note_on_c, 1, 39, 55
3, 470400, Note_off_c, 1, 39, 0
3, 470400, Note_on_c, 1, 39, 54
3, 472320, Note_off_c, 1, 39, 0
3, 472320, Note_on_c, 1, 39, 52
3, 474240, Note_off_c, 1, 39, 0
3, 474240, Note_on_c, 1, 39, 51
3, 476160, Note_off_c, 1, 39, 0
3, 476160, Note_on_c, 1, 39, 50
3, 478080, Note_off_c, 1, 39, 0
3, 478080, Note_on_c, 1, 39, 48
3, 480000, Note_off_c, 1, 39, 0
3, 480000, Note_on_c, 1, 39, 47
3, 481920, Note_off_c, 1, 39, 0
3, 481920, Note_on_c, 1, 39, 45
3, 483840, Note_off_c, 1, 39, 0
3, 483840, Note_on_c, 1, 39, 44
3, 484800, Note_off_c, 1, 39, 0
3, 487680, Note_on_c, 1, 53, 90
3, 487680, Note_on_c, 1, 58, 90
3, 487680, Note_on_c, 1, 56, 90
3, 488040, Note_off_c, 1, 56, 0
3, 488040, Note_off_c, 1, 58, 0
3, 488040, Note_off_c, 1, 53, 0
3, 489600, Note_on_c, 1, 55, 90
3, 489600, Note_on_c, 1, 58, 90
3, 489960, Note_off_c, 1, 58, 0
3, 489960, Note_off_c, 1, 55, 0
3, 493440, Control_c, 1, 7, 107
3, 528240, Note_on_c, 1, 74, 80
3, 528480, Note_off_c, 1, 74, 0
3, 528720, Note_on_c, 1, 74, 72
3, 528960, Note_off_c, 1, 74, 0
3, 529200, Note_on_c, 1, 72, 65
3, 529440, Note_off_c, 1, 72, 0
3, 529680, Note_on_c, 1, 70, 58
3, 529920, Note_off_c, 1, 70, 0
3, 530160, Note_on_c, 1, 67, 81
3, 530160, Note_on_c, 1, 70, 81
3, 530400, Note_off_c, 1, 70, 0
3, 530400, Note_off_c, 1, 67, 0
3, 530640, Note_on_c, 1, 67, 74
3, 530640, Note_on_c, 1, 75, 74
3, 530880, Note_off_c, 1, 75, 0
3, 530880, Note_off_c, 1, 67, 0
3, 531120, Note_on_c, 1, 67, 67
3, 531120, Note_on_c, 1, 74, 67
3, 531360, Note_off_c, 1, 74, 0
3, 531360, Note_off_c, 1, 67, 0
3, 531600, Note_on_c, 1, 67, 60
3, 531600, Note_on_c, 1, 72, 60
3, 531840, Note_off_c, 1, 72, 0
3, 531840, Note_off_c, 1, 67, 0
3, 550560, Note_on_c, 1, 79, 59
3, 550638, Note_off_c, 1, 79, 0
3, 550680, Note_on_c, 1, 76, 61
3, 550758, Note_off_c, 1, 76, 0
3, 550800, Note_on_c, 1, 73, 63
3, 550878, Note_off_c, 1, 73, 0
3, 550920, Note_on_c, 1, 72, 66
3, 550998, Note_off_c, 1, 72, 0
3, 551040, Note_on_c, 1, 72, 71
3, 551520, Note_off_c, 1, 72, 0
3, 551520, Note_on_c, 1, 67, 69
3, 552480, Note_off_c, 1, 67, 0
3, 552480, Note_on_c, 1, 69, 63
3, 552720, Note_off_c, 1, 69, 0
3, 552720, Note_on_c, 1, 65, 62
3, 552960, Note_off_c, 1, 65, 0
3, 552960, Note_on_c, 1, 65, 61
3, 553200, Note_off_c, 1, 65, 0
3, 553440, Note_on_c, 1, 64, 56
3, 553680, Note_off_c, 1, 64, 0
3, 553680, Note_on_c, 1, 65, 59
3, 553920, Note_off_c, 1, 65, 0
3, 553920, Note_on_c, 1, 67, 62
3, 554112, Note_off_c, 1, 67, 0
3, 554160, Note_on_c, 1, 69, 64
3, 554352, Note_off_c, 1, 69, 0
3, 554400, Note_on_c, 1, 70, 67
3, 554520, Note_off_c, 1, 70, 0
3, 554520, Note_on_c, 1, 71, 68
3, 554616, Note_off_c, 1, 71, 0
3, 554640, Note_on_c, 1, 71, 70
3, 554760, Note_off_c, 1, 71, 0
3, 554760, Note_on_c, 1, 72, 71
3, 554856, Note_off_c, 1, 72, 0
3, 554880, Note_on_c, 1, 71, 75
3, 554976, Note_off_c, 1, 71, 0
3, 556800, Note_on_c, 1, 65, 61
3, 557280, Note_off_c, 1, 65, 0
3, 557280, Note_on_c, 1, 64, 60
3, 557520, Note_off_c, 1, 64, 0
3, 557520, Note_on_c, 1, 65, 62
3, 557760, Note_off_c, 1, 65, 0
3, 557760, Note_on_c, 1, 67, 65
3, 557952, Note_off_c, 1, 67, 0
3, 558000, Note_on_c, 1, 68, 67
3, 558192, Note_off_c, 1, 68, 0
3, 558240, Note_on_c, 1, 70, 71
3, 558360, Note_off_c, 1, 70, 0
3, 558360, Note_on_c, 1, 71, 72
3, 558456, Note_off_c, 1, 71, 0
3, 558480, Note_on_c, 1, 71, 74
3, 558600, Note_off_c, 1, 71, 0
3, 558600, Note_on_c, 1, 72, 76
3, 558696, Note_off_c, 1, 72, 0
3, 558720, Note_on_c, 1, 72, 86
3, 558720, Note_on_c, 1, 80, 86
3, 558912, Note_off_c, 1, 80, 0
3, 558912, Note_off_c, 1, 72, 0
3, 558960, Note_on_c, 1, 80, 81
3, 558960, Note_on_c, 1, 84, 81
3, 559152, Note_off_c, 1, 84, 0
3, 559152, Note_off_c, 1, 80, 0
3, 559440, Note_on_c, 1, 72, 72
3, 559632, Note_off_c, 1, 72, 0
3, 559920, Note_on_c, 1, 70, 68
3, 560112, Note_off_c, 1, 70, 0
3, 560400, Note_on_c, 1, 68, 64
3, 560592, Note_off_c, 1, 68, 0
3, 560640, Note_on_c, 1, 68, 86
3, 560832, Note_off_c, 1, 68, 0
3, 560880, Note_on_c, 1, 77, 79
3, 560880, Note_on_c, 1, 80, 79
3, 561072, Note_off_c, 1, 80, 0
3, 561072, Note_off_c, 1, 77, 0
3, 561360, Note_on_c, 1, 65, 70
3, 561360, Note_on_c, 1, 68, 70
3, 561552, Note_off_c, 1, 68, 0
3, 561552, Note_off_c, 1, 65, 0
3, 561840, Note_on_c, 1, 72, 68
3, 561840, Note_on_c, 1, 63, 68
3, 562032, Note_off_c, 1, 63, 0
3, 562032, Note_off_c, 1, 72, 0
3, 562320, Note_on_c, 1, 70, 65
3, 562320, Note_on_c, 1, 65, 65
3, 562512, Note_off_c, 1, 65, 0
3, 562512, Note_off_c, 1, 70, 0
3, 574080, Control_c, 1, 7, 117
3, 648960, Note_on_c, 1, 65, 52
3, 649080, Note_off_c, 1, 65, 0
3, 649080, Note_on_c, 1, 67, 52
3, 649200, Note_off_c, 1, 67, 0
3, 649200, Note_on_c, 1, 65, 53
3, 649320, Note_off_c, 1, 65, 0
3, 649320, Note_on_c, 1, 67, 53
3, 649440, Note_off_c, 1, 67, 0
3, 649440, Note_on_c, 1, 65, 54
3, 649560, Note_off_c, 1, 65, 0
3, 649560, Note_on_c, 1, 67, 54
3, 649680, Note_off_c, 1, 67, 0
3, 649680, Note_on_c, 1, 65, 54
3, 649800, Note_off_c, 1, 65, 0
3, 649800, Note_on_c, 1, 67, 55
3, 649920, Note_off_c, 1, 67, 0
3, 649920, Note_on_c, 1, 65, 55
3, 650040, Note_off_c, 1, 65, 0
3, 650040, Note_on_c, 1, 67, 55
3, 650160, Note_off_c, 1, 67, 0
3, 650160, Note_on_c, 1, 65, 56
3, 650280, Note_off_c, 1, 65, 0
3, 650280, Note_on_c, 1, 67, 56
3, 650400, Note_off_c, 1, 67, 0
3, 650400, Note_on_c, 1, 65, 57
3, 650520, Note_off_c, 1, 65, 0
3, 650520, Note_on_c, 1, 67, 57
3, 650640, Note_off_c, 1, 67, 0
3, 650640, Note_on_c, 1, 65, 57
3, 650760, Note_off_c, 1, 65, 0
3, 650760, Note_on_c, 1, 67, 58
3, 650880, Note_off_c, 1, 67, 0
3, 650880, Note_on_c, 1, 65, 58
3, 651000, Note_off_c, 1, 65, 0
3, 651000, Note_on_c, 1, 67, 58
3, 651120, Note_off_c, 1, 67, 0
3, 651120, Note_on_c, 1, 65, 59
3, 651240, Note_off_c, 1, 65, 0
3, 651240, Note_on_c, 1, 67, 59
3, 651360, Note_off_c, 1, 67, 0
3, 651360, Note_on_c, 1, 65, 60
3, 651480, Note_off_c, 1, 65, 0
3, 651480, Note_on_c, 1, 67, 60
3, 651600, Note_off_c, 1, 67, 0
3, 651600, Note_on_c, 1, 65, 60
3, 651720, Note_off_c, 1, 65, 0
3, 651720, Note_on_c, 1, 67, 61
3, 651840, Note_off_c, 1, 67, 0
3, 651840, Note_on_c, 1, 65, 61
3, 651960, Note_off_c, 1, 65, 0
3, 651960, Note_on_c, 1, 67, 61
3, 652080, Note_off_c, 1, 67, 0
3, 652080, Note_on_c, 1, 65, 60
3, 652200, Note_off_c, 1, 65, 0
3, 652200, Note_on_c, 1, 67, 60
3, 652320, Note_off_c, 1, 67, 0
3, 652320, Note_on_c, 1, 65, 59
3, 652440, Note_off_c, 1, 65, 0
3, 652440, Note_on_c, 1, 67, 59
3, 652560, Note_off_c, 1, 67, 0
3, 652560, Note_on_c, 1, 65, 58
3, 652680, Note_off_c, 1, 65, 0
3, 652680, Note_on_c, 1, 67, 58
3, 652800, Note_off_c, 1, 67, 0
3, 652800, Note_on_c, 1, 65, 57
3, 652920, Note_off_c, 1, 65, 0
3, 652920, Note_on_c, 1, 67, 56
3, 653040, Note_off_c, 1, 67, 0
3, 653040, Note_on_c, 1, 65, 56
3, 653160, Note_off_c, 1, 65, 0
3, 653160, Note_on_c, 1, 67, 55
3, 653280, Note_off_c, 1, 67, 0
3, 653280, Note_on_c, 1, 65, 55
3, 653400, Note_off_c, 1, 65, 0
3, 653400, Note_on_c, 1, 67, 54
3, 653520, Note_off_c, 1, 67, 0
3, 653520, Note_on_c, 1, 65, 54
3, 653640, Note_off_c, 1, 65, 0
3, 653640, Note_on_c, 1, 67, 53
3, 653760, Note_off_c, 1, 67, 0
3, 653760, Note_on_c, 1, 65, 53
3, 653880, Note_off_c, 1, 65, 0
3, 653880, Note_on_c, 1, 67, 52
3, 654000, Note_off_c, 1, 67, 0
3, 654000, Note_on_c, 1, 65, 52
3, 654120, Note_off_c, 1, 65, 0
3, 654120, Note_on_c, 1, 67, 51
3, 654240, Note_off_c, 1, 67, 0
3, 654240, Note_on_c, 1, 65, 51
3, 654360, Note_off_c, 1, 65, 0
3, 654360, Note_on_c, 1, 67, 50
3, 654480, Note_off_c, 1, 67, 0
3, 654480, Note_on_c, 1, 65, 50
3, 654600, Note_off_c, 1, 65, 0
3, 654600, Note_on_c, 1, 67, 49
3, 654720, Note_off_c, 1, 67, 0
3, 660480, Note_on_c, 1, 77, 50
3, 660600, Note_off_c, 1, 77, 0
3, 660600, Note_on_c, 1, 79, 50
3, 660720, Note_off_c, 1, 79, 0
3, 660720, Note_on_c, 1, 77, 51
3, 660840, Note_off_c, 1, 77, 0
3, 660840, Note_on_c, 1, 79, 51
3, 660960, Note_off_c, 1, 79, 0
3, 660960, Note_on_c, 1, 77, 52
3, 661080, Note_off_c, 1, 77, 0
3, 661080, Note_on_c, 1, 79, 52
3, 661200, Note_off_c, 1, 79, 0
3, 661200, Note_on_c, 1, 77, 53
3, 661320, Note_off_c, 1, 77, 0
3, 661320, Note_on_c, 1, 79, 53
3, 661440, Note_off_c, 1, 79, 0
3, 661440, Note_on_c, 1, 77, 53
3, 661560, Note_off_c, 1, 77, 0
3, 661560, Note_on_c, 1, 79, 54
3, 661680, Note_off_c, 1, 79, 0
3, 661680, Note_on_c, 1, 77, 54
3, 661800, Note_off_c, 1, 77, 0
3, 661800, Note_on_c, 1, 79, 55
3, 661920, Note_off_c, 1, 79, 0
3, 661920, Note_on_c, 1, 77, 55
3, 662040, Note_off_c, 1, 77, 0
3, 662040, Note_on_c, 1, 79, 56
3, 662160, Note_off_c, 1, 79, 0
3, 662160, Note_on_c, 1, 77, 56
3, 662280, Note_off_c, 1, 77, 0
3, 662280, Note_on_c, 1, 79, 57
3, 662400, Note_off_c, 1, 79, 0
3, 662400, Note_on_c, 1, 77, 57
3, 662520, Note_off_c, 1, 77, 0
3, 662520, Note_on_c, 1, 79, 57
3, 662640, Note_off_c, 1, 79, 0
3, 662640, Note_on_c, 1, 77, 58
3, 662760, Note_off_c, 1, 77, 0
3, 662760, Note_on_c, 1, 79, 58
3, 662880, Note_off_c, 1, 79, 0
3, 662880, Note_on_c, 1, 77, 59
3, 663000, Note_off_c, 1, 77, 0
3, 663000, Note_on_c, 1, 79, 59
3, 663120, Note_off_c, 1, 79, 0
3, 663120, Note_on_c, 1, 77, 60
3, 663240, Note_off_c, 1, 77, 0
3, 663240, Note_on_c, 1, 79, 60
3, 663360, Note_off_c, 1, 79, 0
3, 663360, Note_on_c, 1, 77, 61
3, 663480, Note_off_c, 1, 77, 0
3, 663480, Note_on_c, 1, 79, 60
3, 663600, Note_off_c, 1, 79, 0
3, 663600, Note_on_c, 1, 77, 60
3, 663720, Note_off_c, 1, 77, 0
3, 663720, Note_on_c, 1, 79, 59
3, 663840, Note_off_c, 1, 79, 0
3, 663840, Note_on_c, 1, 77, 58
3, 663960, Note_off_c, 1, 77, 0
3, 663960, Note_on_c, 1, 79, 58
3, 664080, Note_off_c, 1, 79, 0
3, 664080, Note_on_c, 1, 77, 57
3, 664200, Note_off_c, 1, 77, 0
3, 664200, Note_on_c, 1, 79, 57
3, 664320, Note_off_c, 1, 79, 0
3, 664320, Note_on_c, 1, 77, 56
3, 664440, Note_off_c, 1, 77, 0
3, 664440, Note_on_c, 1, 79, 55
3, 664560, Note_off_c, 1, 79, 0
3, 664560, Note_on_c, 1, 77, 55
3, 664680, Note_off_c, 1, 77, 0
3, 664680, Note_on_c, 1, 79, 54
3, 664800, Note_off_c, 1, 79, 0
3, 664800, Note_on_c, 1, 77, 54
3, 664920, Note_off_c, 1, 77, 0
3, 664920, Note_on_c, 1, 79, 53
3, 665040, Note_off_c, 1, 79, 0
3, 665040, Note_on_c, 1, 77, 52
3, 665160, Note_off_c, 1, 77, 0
3, 665160, Note_on_c, 1, 79, 52
3, 665280, Note_off_c, 1, 79, 0
3, 665280, Note_on_c, 1, 77, 51
3, 665400, Note_off_c, 1, 77, 0
3, 665400, Note_on_c, 1, 79, 50
3, 665520, Note_off_c, 1, 79, 0
3, 665520, Note_on_c, 1, 77, 50
3, 665640, Note_off_c, 1, 77, 0
3, 665640, Note_on_c, 1, 79, 49
3, 665760, Note_off_c, 1, 79, 0
3, 665760, Note_on_c, 1, 77, 49
3, 665880, Note_off_c, 1, 77, 0
3, 665880, Note_on_c, 1, 79, 48
3, 666000, Note_off_c, 1, 79, 0
3, 666000, Note_on_c, 1, 77, 47
3, 666120, Note_off_c, 1, 77, 0
3, 666120, Note_on_c, 1, 79, 47
3, 666240, Note_off_c, 1, 79, 0
3, 688560, Note_on_c, 1, 77, 121
3, 688560, Note_on_c, 1, 74, 121
3, 688927, Note_off_c, 1, 74, 0
3, 688927, Note_off_c, 1, 77, 0
3, 689280, Note_on_c, 1, 65, 115
3, 689280, Note_on_c, 1, 62, 115
3, 689647, Note_off_c, 1, 65, 0
3, 689655, Note_off_c, 1, 62, 0
3, 708000, Note_on_c, 1, 66, 48
3, 708120, Note_off_c, 1, 66, 0
3, 708120, Note_on_c, 1, 68, 49
3, 708240, Note_off_c, 1, 68, 0
3, 708240, Note_on_c, 1, 66, 50
3, 708360, Note_off_c, 1, 66, 0
3, 708360, Note_on_c, 1, 68, 51
3, 708480, Note_off_c, 1, 68, 0
3, 708480, Note_on_c, 1, 66, 51
3, 708600, Note_off_c, 1, 66, 0
3, 708600, Note_on_c, 1, 68, 52
3, 708720, Note_off_c, 1, 68, 0
3, 708720, Note_on_c, 1, 66, 53
3, 708840, Note_off_c, 1, 66, 0
3, 708840, Note_on_c, 1, 68, 53
3, 708960, Note_off_c, 1, 68, 0
3, 708960, Note_on_c, 1, 66, 54
3, 709080, Note_off_c, 1, 66, 0
3, 709080, Note_on_c, 1, 68, 55
3, 709200, Note_off_c, 1, 68, 0
3, 709200, Note_on_c, 1, 66, 56
3, 709320, Note_off_c, 1, 66, 0
3, 709320, Note_on_c, 1, 68, 56
3, 709440, Note_off_c, 1, 68, 0
3, 709440, Note_on_c, 1, 66, 57
3, 709560, Note_off_c, 1, 66, 0
3, 709560, Note_on_c, 1, 68, 56
3, 709680, Note_off_c, 1, 68, 0
3, 709680, Note_on_c, 1, 66, 55
3, 709800, Note_off_c, 1, 66, 0
3, 709800, Note_on_c, 1, 68, 55
3, 709920, Note_off_c, 1, 68, 0
3, 709920, Note_on_c, 1, 66, 54
3, 710040, Note_off_c, 1, 66, 0
3, 710040, Note_on_c, 1, 68, 53
3, 710160, Note_off_c, 1, 68, 0
3, 710160, Note_on_c, 1, 66, 52
3, 710280, Note_off_c, 1, 66, 0
3, 710280, Note_on_c, 1, 68, 52
3, 710400, Note_off_c, 1, 68, 0
3, 710400, Note_on_c, 1, 66, 51
3, 710520, Note_off_c, 1, 66, 0
3, 710520, Note_on_c, 1, 68, 50
3, 710640, Note_off_c, 1, 68, 0
3, 710640, Note_on_c, 1, 66, 49
3, 710760, Note_off_c, 1, 66, 0
3, 710760, Note_on_c, 1, 68, 46
3, 710880, Note_off_c, 1, 68, 0
3, 710880, Note_on_c, 1, 78, 47
3, 711000, Note_off_c, 1, 78, 0
3, 711000, Note_on_c, 1, 80, 47
3, 711120, Note_off_c, 1, 80, 0
3, 711120, Note_on_c, 1, 78, 48
3, 711240, Note_off_c, 1, 78, 0
3, 711240, Note_on_c, 1, 80, 49
3, 711360, Note_off_c, 1, 80, 0
3, 711360, Note_on_c, 1, 78, 50
3, 711480, Note_off_c, 1, 78, 0
3, 711480, Note_on_c, 1, 80, 51
3, 711600, Note_off_c, 1, 80, 0
3, 711600, Note_on_c, 1, 78, 51
3, 711720, Note_off_c, 1, 78, 0
3, 711720, Note_on_c, 1, 80, 52
3, 711840, Note_off_c, 1, 80, 0
3, 711840, Note_on_c, 1, 78, 53
3, 711960, Note_off_c, 1, 78, 0
3, 711960, Note_on_c, 1, 80, 54
3, 712080, Note_off_c, 1, 80, 0
3, 712080, Note_on_c, 1, 78, 55
3, 712200, Note_off_c, 1, 78, 0
3, 712200, Note_on_c, 1, 80, 55
3, 712320, Note_off_c, 1, 80, 0
3, 712320, Note_on_c, 1, 78, 55
3, 712440, Note_off_c, 1, 78, 0
3, 712440, Note_on_c, 1, 80, 55
3, 712560, Note_off_c, 1, 80, 0
3, 712560, Note_on_c, 1, 78, 54
3, 712680, Note_off_c, 1, 78, 0
3, 712680, Note_on_c, 1, 80, 53
3, 712800, Note_off_c, 1, 80, 0
3, 712800, Note_on_c, 1, 78, 53
3, 712920, Note_off_c, 1, 78, 0
3, 712920, Note_on_c, 1, 80, 52
3, 713040, Note_off_c, 1, 80, 0
3, 713040, Note_on_c, 1, 78, 51
3, 713160, Note_off_c, 1, 78, 0
3, 713160, Note_on_c, 1, 80, 51
3, 713280, Note_off_c, 1, 80, 0
3, 713280, Note_on_c, 1, 78, 50
3, 713400, Note_off_c, 1, 78, 0
3, 713400, Note_on_c, 1, 80, 49
3, 713520, Note_off_c, 1, 80, 0
3, 713520, Note_on_c, 1, 78, 49
3, 713640, Note_off_c, 1, 78, 0
3, 713640, Note_on_c, 1, 80, 48
3, 713760, Note_off_c, 1, 80, 0
3, 719520, Note_on_c, 1, 74, 41
3, 719640, Note_off_c, 1, 74, 0
3, 719640, Note_on_c, 1, 76, 41
3, 719760, Note_off_c, 1, 76, 0
3, 719760, Note_on_c, 1, 74, 42
3, 719880, Note_off_c, 1, 74, 0
3, 719880, Note_on_c, 1, 76, 43
3, 720000, Note_off_c, 1, 76, 0
3, 720000, Note_on_c, 1, 74, 43
3, 720120, Note_off_c, 1, 74, 0
3, 720120, Note_on_c, 1, 76, 44
3, 720240, Note_off_c, 1, 76, 0
3, 720240, Note_on_c, 1, 74, 45
3, 720360, Note_off_c, 1, 74, 0
3, 720360, Note_on_c, 1, 76, 45
3, 720480, Note_off_c, 1, 76, 0
3, 720480, Note_on_c, 1, 74, 46
3, 720600, Note_off_c, 1, 74, 0
3, 720600, Note_on_c, 1, 76, 47
3, 720720, Note_off_c, 1, 76, 0
3, 720720, Note_on_c, 1, 74, 47
3, 720840, Note_off_c, 1, 74, 0
3, 720840, Note_on_c, 1, 76, 48
3, 720960, Note_off_c, 1, 76, 0
3, 720960, Note_on_c, 1, 74, 49
3, 721080, Note_off_c, 1, 74, 0
3, 721080, Note_on_c, 1, 76, 49
3, 721200, Note_off_c, 1, 76, 0
3, 721200, Note_on_c, 1, 74, 48
3, 721320, Note_off_c, 1, 74, 0
3, 721320, Note_on_c, 1, 76, 47
3, 721440, Note_off_c, 1, 76, 0
3, 721440, Note_on_c, 1, 74, 47
3, 721560, Note_off_c, 1, 74, 0
3, 721560, Note_on_c, 1, 76, 46
3, 721680, Note_off_c, 1, 76, 0
3, 721680, Note_on_c, 1, 74, 45
3, 721800, Note_off_c, 1, 74, 0
3, 721800, Note_on_c, 1, 76, 44
3, 721920, Note_off_c, 1, 76, 0
3, 721920, Note_on_c, 1, 74, 44
3, 722040, Note_off_c, 1, 74, 0
3, 722040, Note_on_c, 1, 76, 43
3, 722160, Note_off_c, 1, 76, 0
3, 722160, Note_on_c, 1, 74, 42
3, 722280, Note_off_c, 1, 74, 0
3, 722280, Note_on_c, 1, 76, 42
3, 722400, Note_off_c, 1, 76, 0
3, 722400, Note_on_c, 1, 74, 49
3, 722640, Note_off_c, 1, 74, 0
3, 722640, Note_on_c, 1, 71, 57
3, 722880, Note_off_c, 1, 71, 0
3, 722880, Note_on_c, 1, 67, 54
3, 723120, Note_off_c, 1, 67, 0
3, 723120, Note_on_c, 1, 66, 51
3, 723360, Note_off_c, 1, 66, 0
3, 723360, Note_on_c, 1, 67, 48
3, 723600, Note_off_c, 1, 67, 0
3, 723600, Note_on_c, 1, 71, 45
3, 723840, Note_off_c, 1, 71, 0
3, 725040, Note_on_c, 1, 79, 61
3, 725280, Note_off_c, 1, 79, 0
3, 725280, Note_on_c, 1, 79, 69
3, 725520, Note_off_c, 1, 79, 0
3, 725520, Note_on_c, 1, 76, 66
3, 725760, Note_off_c, 1, 76, 0
3, 725760, Note_on_c, 1, 72, 64
3, 726000, Note_off_c, 1, 72, 0
3, 726000, Note_on_c, 1, 71, 61
3, 726240, Note_off_c, 1, 71, 0
3, 726240, Note_on_c, 1, 72, 58
3, 726480, Note_off_c, 1, 72, 0
3, 726480, Note_on_c, 1, 76, 56
3, 726720, Note_off_c, 1, 76, 0
3, 729360, Note_on_c, 1, 75, 73
3, 729600, Note_off_c, 1, 75, 0
3, 729600, Note_on_c, 1, 75, 79
3, 729840, Note_off_c, 1, 75, 0
3, 729840, Note_on_c, 1, 72, 76
3, 730080, Note_off_c, 1, 72, 0
3, 730080, Note_on_c, 1, 68, 73
3, 730320, Note_off_c, 1, 68, 0
3, 730320, Note_on_c, 1, 75, 70
3, 730560, Note_off_c, 1, 75, 0
3, 730560, Note_on_c, 1, 70, 67
3, 730800, Note_off_c, 1, 70, 0
3, 782880, Note_on_c, 1, 70, 49
3, 783000, Note_off_c, 1, 70, 0
3, 783000, Note_on_c, 1, 72, 49
3, 783120, Note_off_c, 1, 72, 0
3, 783120, Note_on_c, 1, 70, 50
3, 783240, Note_off_c, 1, 70, 0
3, 783240, Note_on_c, 1, 72, 50
3, 783360, Note_off_c, 1, 72, 0
3, 783360, Note_on_c, 1, 70, 51
3, 783480, Note_off_c, 1, 70, 0
3, 783480, Note_on_c, 1, 72, 51
3, 783600, Note_off_c, 1, 72, 0
3, 783600, Note_on_c, 1, 70, 52
3, 783720, Note_off_c, 1, 70, 0
3, 783720, Note_on_c, 1, 72, 52
3, 783840, Note_off_c, 1, 72, 0
3, 783840, Note_on_c, 1, 70, 53
3, 783960, Note_off_c, 1, 70, 0
3, 783960, Note_on_c, 1, 72, 53
3, 784080, Note_off_c, 1, 72, 0
3, 784080, Note_on_c, 1, 70, 54
3, 784200, Note_off_c, 1, 70, 0
3, 784200, Note_on_c, 1, 72, 54
3, 784320, Note_off_c, 1, 72, 0
3, 784320, Note_on_c, 1, 70, 55
3, 784440, Note_off_c, 1, 70, 0
3, 784440, Note_on_c, 1, 72, 56
3, 784560, Note_off_c, 1, 72, 0
3, 784560, Note_on_c, 1, 70, 56
3, 784680, Note_off_c, 1, 70, 0
3, 784680, Note_on_c, 1, 72, 57
3, 784800, Note_off_c, 1, 72, 0
3, 784800, Note_on_c, 1, 70, 57
3, 784920, Note_off_c, 1, 70, 0
3, 784920, Note_on_c, 1, 72, 58
3, 785040, Note_off_c, 1, 72, 0
3, 785040, Note_on_c, 1, 70, 58
3, 785160, Note_off_c, 1, 70, 0
3, 785160, Note_on_c, 1, 72, 59
3, 785280, Note_off_c, 1, 72, 0
3, 785280, Note_on_c, 1, 70, 59
3, 785400, Note_off_c, 1, 70, 0
3, 785400, Note_on_c, 1, 72, 60
3, 785520, Note_off_c, 1, 72, 0
3, 785520, Note_on_c, 1, 70, 60
3, 785640, Note_off_c, 1, 70, 0
3, 785640, Note_on_c, 1, 72, 61
3, 785760, Note_off_c, 1, 72, 0
3, 785760, Note_on_c, 1, 70, 61
3, 785880, Note_off_c, 1, 70, 0
3, 785880, Note_on_c, 1, 72, 61
3, 786000, Note_off_c, 1, 72, 0
3, 786000, Note_on_c, 1, 70, 61
3, 786120, Note_off_c, 1, 70, 0
3, 786120, Note_on_c, 1, 72, 60
3, 786240, Note_off_c, 1, 72, 0
3, 786240, Note_on_c, 1, 70, 60
3, 786360, Note_off_c, 1, 70, 0
3, 786360, Note_on_c, 1, 72, 59
3, 786480, Note_off_c, 1, 72, 0
3, 786480, Note_on_c, 1, 70, 59
3, 786600, Note_off_c, 1, 70, 0
3, 786600, Note_on_c, 1, 72, 58
3, 786720, Note_off_c, 1, 72, 0
3, 786720, Note_on_c, 1, 70, 58
3, 786840, Note_off_c, 1, 70, 0
3, 786840, Note_on_c, 1, 72, 57
3, 786960, Note_off_c, 1, 72, 0
3, 786960, Note_on_c, 1, 70, 57
3, 787080, Note_off_c, 1, 70, 0
3, 787080, Note_on_c, 1, 72, 56
3, 787200, Note_off_c, 1, 72, 0
3, 787200, Note_on_c, 1, 70, 56
3, 787320, Note_off_c, 1, 70, 0
3, 787320, Note_on_c, 1, 72, 55
3, 787440, Note_off_c, 1, 72, 0
3, 787440, Note_on_c, 1, 70, 55
3, 787560, Note_off_c, 1, 70, 0
3, 787560, Note_on_c, 1, 72, 54
3, 787680, Note_off_c, 1, 72, 0
3, 787680, Note_on_c, 1, 70, 54
3, 787800, Note_off_c, 1, 70, 0
3, 787800, Note_on_c, 1, 72, 53
3, 787920, Note_off_c, 1, 72, 0
3, 787920, Note_on_c, 1, 70, 53
3, 788040, Note_off_c, 1, 70, 0
3, 788040, Note_on_c, 1, 72, 52
3, 788160, Note_off_c, 1, 72, 0
3, 788160, Note_on_c, 1, 70, 52
3, 788280, Note_off_c, 1, 70, 0
3, 788280, Note_on_c, 1, 72, 51
3, 788400, Note_off_c, 1, 72, 0
3, 788400, Note_on_c, 1, 70, 51
3, 788520, Note_off_c, 1, 70, 0
3, 788520, Note_on_c, 1, 72, 51
3, 788640, Note_off_c, 1, 72, 0
3, 794400, Note_on_c, 1, 82, 48
3, 794520, Note_off_c, 1, 82, 0
3, 794520, Note_on_c, 1, 84, 49
3, 794640, Note_off_c, 1, 84, 0
3, 794640, Note_on_c, 1, 82, 49
3, 794760, Note_off_c, 1, 82, 0
3, 794760, Note_on_c, 1, 84, 50
3, 794880, Note_off_c, 1, 84, 0
3, 794880, Note_on_c, 1, 82, 50
3, 795000, Note_off_c, 1, 82, 0
3, 795000, Note_on_c, 1, 84, 50
3, 795120, Note_off_c, 1, 84, 0
3, 795120, Note_on_c, 1, 82, 51
3, 795240, Note_off_c, 1, 82, 0
3, 795240, Note_on_c, 1, 84, 51
3, 795360, Note_off_c, 1, 84, 0
3, 795360, Note_on_c, 1, 82, 52
3, 795480, Note_off_c, 1, 82, 0
3, 795480, Note_on_c, 1, 84, 52
3, 795600, Note_off_c, 1, 84, 0
3, 795600, Note_on_c, 1, 82, 53
3, 795720, Note_off_c, 1, 82, 0
3, 795720, Note_on_c, 1, 84, 53
3, 795840, Note_off_c, 1, 84, 0
3, 795840, Note_on_c, 1, 82, 54
3, 795960, Note_off_c, 1, 82, 0
3, 795960, Note_on_c, 1, 84, 54
3, 796080, Note_off_c, 1, 84, 0
3, 796080, Note_on_c, 1, 82, 55
3, 796200, Note_off_c, 1, 82, 0
3, 796200, Note_on_c, 1, 84, 55
3, 796320, Note_off_c, 1, 84, 0
3, 796320, Note_on_c, 1, 82, 55
3, 796440, Note_off_c, 1, 82, 0
3, 796440, Note_on_c, 1, 84, 56
3, 796560, Note_off_c, 1, 84, 0
3, 796560, Note_on_c, 1, 82, 56
3, 796680, Note_off_c, 1, 82, 0
3, 796680, Note_on_c, 1, 84, 57
3, 796800, Note_off_c, 1, 84, 0
3, 796800, Note_on_c, 1, 82, 57
3, 796920, Note_off_c, 1, 82, 0
3, 796920, Note_on_c, 1, 84, 58
3, 797040, Note_off_c, 1, 84, 0
3, 797040, Note_on_c, 1, 82, 58
3, 797160, Note_off_c, 1, 82, 0
3, 797160, Note_on_c, 1, 84, 59
3, 797280, Note_off_c, 1, 84, 0
3, 797280, Note_on_c, 1, 82, 59
3, 797400, Note_off_c, 1, 82, 0
3, 797400, Note_on_c, 1, 84, 59
3, 797520, Note_off_c, 1, 84, 0
3, 797520, Note_on_c, 1, 82, 58
3, 797640, Note_off_c, 1, 82, 0
3, 797640, Note_on_c, 1, 84, 58
3, 797760, Note_off_c, 1, 84, 0
3, 797760, Note_on_c, 1, 82, 58
3, 797880, Note_off_c, 1, 82, 0
3, 797880, Note_on_c, 1, 84, 57
3, 798000, Note_off_c, 1, 84, 0
3, 798000, Note_on_c, 1, 82, 57
3, 798120, Note_off_c, 1, 82, 0
3, 798120, Note_on_c, 1, 84, 56
3, 798240, Note_off_c, 1, 84, 0
3, 798240, Note_on_c, 1, 82, 56
3, 798360, Note_off_c, 1, 82, 0
3, 798360, Note_on_c, 1, 84, 55
3, 798480, Note_off_c, 1, 84, 0
3, 798480, Note_on_c, 1, 82, 55
3, 798600, Note_off_c, 1, 82, 0
3, 798600, Note_on_c, 1, 84, 54
3, 798720, Note_off_c, 1, 84, 0
3, 798720, Note_on_c, 1, 82, 54
3, 798840, Note_off_c, 1, 82, 0
3, 798840, Note_on_c, 1, 84, 54
3, 798960, Note_off_c, 1, 84, 0
3, 798960, Note_on_c, 1, 82, 53
3, 799080, Note_off_c, 1, 82, 0
3, 799080, Note_on_c, 1, 84, 53
3, 799200, Note_off_c, 1, 84, 0
3, 799200, Note_on_c, 1, 82, 52
3, 799320, Note_off_c, 1, 82, 0
3, 799320, Note_on_c, 1, 84, 52
3, 799440, Note_off_c, 1, 84, 0
3, 799440, Note_on_c, 1, 82, 51
3, 799560, Note_off_c, 1, 82, 0
3, 799560, Note_on_c, 1, 84, 51
3, 799680, Note_off_c, 1, 84, 0
3, 799680, Note_on_c, 1, 82, 50
3, 799800, Note_off_c, 1, 82, 0
3, 799800, Note_on_c, 1, 84, 50
3, 799920, Note_off_c, 1, 84, 0
3, 799920, Note_on_c, 1, 82, 49
3, 800040, Note_off_c, 1, 82, 0
3, 800040, Note_on_c, 1, 84, 49
3, 800160, Note_off_c, 1, 84, 0
3, 825360, Note_on_c, 1, 67, 108
3, 825360, Note_on_c, 1, 70, 108
3, 825840, Note_off_c, 1, 70, 0
3, 825840, Note_off_c, 1, 67, 0
3, 826080, Note_on_c, 1, 58, 104
3, 826080, Note_on_c, 1, 55, 104
3, 826080, Note_on_c, 1, 51, 104
3, 826560, Note_off_c, 1, 51, 0
3, 826560, Note_off_c, 1, 55, 0
3, 826560, Note_off_c, 1, 58, 0
3, 854640, Note_on_c, 1, 68, 125
3, 854640, Note_on_c, 1, 65, 125
3, 854640, Note_on_c, 1, 70, 125
3, 855120, Note_off_c, 1, 70, 0
3, 855120, Note_off_c, 1, 65, 0
3, 855120, Note_off_c, 1, 68, 0
3, 855360, Note_on_c, 1, 70, 124
3, 855360, Note_on_c, 1, 67, 124
3, 855840, Note_off_c, 1, 67, 0
3, 855840, Note_off_c, 1, 70, 0
3, 855840, End_track
4, 0, Start_track
4, 0, Title_t, "No Name"
4, 0, Control_c, 2, 0, 0
4, 0, Control_c, 2, 32, 0
4, 0, Program_c, 2, 0
4, 0, Control_c, 2, 7, 107
4, 0, Pitch_bend_c, 2, 8192
4, 0, Control_c, 2, 1, 0
4, 0, Control_c, 2, 64, 0
4, 0, Control_c, 2, 93, 28
4, 0, Control_c, 2, 91, 91
4, 0, Control_c, 2, 10, 55
4, 3840, Note_on_c, 2, 48, 47
4, 3840, Note_on_c, 2, 36, 47
4, 5227, Note_off_c, 2, 36, 0
4, 5227, Note_off_c, 2, 48, 0
4, 5280, Note_on_c, 2, 51, 46
4, 5280, Note_on_c, 2, 48, 46
4, 5760, Note_off_c, 2, 48, 0
4, 5760, Note_off_c, 2, 51, 0
4, 5760, Note_on_c, 2, 46, 49
4, 5760, Note_on_c, 2, 52, 49
4, 6187, Note_off_c, 2, 52, 0
4, 6187, Note_off_c, 2, 46, 0
4, 6240, Note_on_c, 2, 46, 52
4, 6240, Note_on_c, 2, 52, 52
4, 6720, Note_off_c, 2, 52, 0
4, 6720, Note_off_c, 2, 46, 0
4, 6720, Note_on_c, 2, 45, 55
4, 6720, Note_on_c, 2, 53, 55
4, 7140, Note_off_c, 2, 53, 0
4, 7147, Note_off_c, 2, 45, 0
4, 7200, Note_on_c, 2, 44, 58
4, 7200, Note_on_c, 2, 54, 58
4, 7680, Note_off_c, 2, 54, 0
4, 7680, Note_off_c, 2, 44, 0
4, 7680, Note_on_c, 2, 43, 64
4, 7680, Note_on_c, 2, 55, 64
4, 8160, Note_off_c, 2, 55, 0
4, 8160, Note_on_c, 2, 57, 53
4, 8640, Note_off_c, 2, 57, 0
4, 8640, Note_on_c, 2, 59, 46
4, 9060, Note_off_c, 2, 59, 0
4, 9067, Note_off_c, 2, 43, 0
4, 9600, Note_on_c, 2, 55, 60
4, 9600, Note_on_c, 2, 67, 60
4, 10080, Note_off_c, 2, 67, 0
4, 10080, Note_on_c, 2, 69, 57
4, 10560, Note_off_c, 2, 69, 0
4, 10560, Note_on_c, 2, 71, 50
4, 10987, Note_off_c, 2, 71, 0
4, 10987, Note_off_c, 2, 55, 0
4, 11040, Note_on_c, 2, 70, 63
4, 11040, Note_on_c, 2, 67, 63
4, 11520, Note_off_c, 2, 67, 0
4, 11520, Note_off_c, 2, 70, 0
4, 11520, Note_on_c, 2, 70, 75
4, 11520, Note_on_c, 2, 68, 75
4, 11520, Note_on_c, 2, 65, 75
4, 12000, Note_off_c, 2, 65, 0
4, 12000, Note_off_c, 2, 68, 0
4, 12000, Note_on_c, 2, 67, 63
4, 12000, Note_on_c, 2, 63, 63
4, 12480, Note_off_c, 2, 63, 0
4, 12480, Note_off_c, 2, 67, 0
4, 12480, Note_on_c, 2, 62, 56
4, 12480, Note_on_c, 2, 65, 56
4, 12907, Note_off_c, 2, 65, 0
4, 12907, Note_off_c, 2, 62, 0
4, 12907, Note_off_c, 2, 70, 0
4, 12960, Note_on_c, 2, 58, 49
4, 12960, Note_on_c, 2, 62, 49
4, 13440, Note_off_c, 2, 62, 0
4, 13440, Note_off_c, 2, 58, 0
4, 14400, Note_on_c, 2, 34, 50
4, 14400, Note_on_c, 2, 46, 50
4, 15360, Note_off_c, 2, 46, 0
4, 15360, Note_off_c, 2, 34, 0
4, 15360, Note_on_c, 2, 35, 50
4, 15360, Note_on_c, 2, 47, 50
4, 16740, Note_off_c, 2, 35, 0
4, 16747, Note_off_c, 2, 47, 0
4, 16800, Note_on_c, 2, 47, 48
4, 16800, Note_on_c, 2, 54, 48
4, 17280, Note_off_c, 2, 54, 0
4, 17280, Note_off_c, 2, 47, 0
4, 17280, Note_on_c, 2, 49, 50
4, 17280, Note_on_c, 2, 54, 50
4, 17700, Note_off_c, 2, 54, 0
4, 17700, Note_off_c, 2, 49, 0
4, 17760, Note_on_c, 2, 54, 52
4, 17760, Note_on_c, 2, 49, 52
4, 18240, Note_off_c, 2, 49, 0
4, 18240, Note_off_c, 2, 54, 0
4, 18240, Note_on_c, 2, 47, 55
4, 18240, Note_on_c, 2, 54, 55
4, 18667, Note_off_c, 2, 54, 0
4, 18667, Note_off_c, 2, 47, 0
4, 18720, Note_on_c, 2, 46, 57
4, 18720, Note_on_c, 2, 54, 57
4, 19200, Note_off_c, 2, 46, 0
4, 19200, Note_on_c, 2, 45, 57
4, 19680, Note_off_c, 2, 54, 0
4, 19680, Note_on_c, 2, 53, 55
4, 20160, Note_off_c, 2, 53, 0
4, 20160, Note_off_c, 2, 45, 0
4, 20160, Note_on_c, 2, 46, 52
4, 20160, Note_on_c, 2, 53, 52
4, 20587, Note_off_c, 2, 53, 0
4, 20587, Note_off_c, 2, 46, 0
4, 20640, Note_on_c, 2, 44, 55
4, 20640, Note_on_c, 2, 52, 55
4, 21120, Note_off_c, 2, 52, 0
4, 21120, Note_off_c, 2, 44, 0
4, 21120, Note_on_c, 2, 43, 61
4, 21120, Note_on_c, 2, 52, 61
4, 21600, Note_off_c, 2, 52, 0
4, 21600, Note_on_c, 2, 51, 57
4, 22080, Note_off_c, 2, 51, 0
4, 22080, Note_off_c, 2, 43, 0
4, 22080, Note_on_c, 2, 44, 54
4, 22080, Note_on_c, 2, 51, 54
4, 22500, Note_off_c, 2, 44, 0
4, 22507, Note_off_c, 2, 51, 0
4, 22560, Note_on_c, 2, 42, 62
4, 22560, Note_on_c, 2, 46, 62
4, 22560, Note_on_c, 2, 54, 62
4, 23002, Note_off_c, 2, 54, 0
4, 23002, Note_off_c, 2, 46, 0
4, 23002, Note_off_c, 2, 42, 0
4, 23040, Note_on_c, 2, 41, 52
4, 23040, Note_on_c, 2, 46, 52
4, 23040, Note_on_c, 2, 53, 52
4, 23582, Note_off_c, 2, 53, 0
4, 23582, Note_off_c, 2, 46, 0
4, 23590, Note_off_c, 2, 41, 0
4, 24240, Note_on_c, 2, 53, 56
4, 24240, Note_on_c, 2, 41, 56
4, 24240, Note_on_c, 2, 46, 56
4, 24480, Note_off_c, 2, 46, 0
4, 24480, Note_off_c, 2, 41, 0
4, 24480, Note_off_c, 2, 53, 0
4, 24480, Note_on_c, 2, 51, 62
4, 24480, Note_on_c, 2, 39, 62
4, 24480, Note_on_c, 2, 46, 62
4, 24720, Note_off_c, 2, 46, 0
4, 24720, Note_off_c, 2, 39, 0
4, 24720, Note_off_c, 2, 51, 0
4, 24720, Note_on_c, 2, 46, 54
4, 24720, Note_on_c, 2, 39, 54
4, 24720, Note_on_c, 2, 51, 54
4, 24960, Note_off_c, 2, 51, 0
4, 24960, Note_off_c, 2, 39, 0
4, 24960, Note_off_c, 2, 46, 0
4, 24960, Note_on_c, 2, 46, 47
4, 24960, Note_on_c, 2, 50, 47
4, 24960, Note_on_c, 2, 38, 47
4, 25440, Note_off_c, 2, 38, 0
4, 25440, Note_off_c, 2, 50, 0
4, 25440, Note_off_c, 2, 46, 0
4, 26160, Note_on_c, 2, 68, 54
4, 26160, Note_on_c, 2, 65, 54
4, 26400, Note_off_c, 2, 65, 0
4, 26400, Note_off_c, 2, 68, 0
4, 26400, Note_on_c, 2, 66, 60
4, 26400, Note_on_c, 2, 63, 60
4, 26640, Note_off_c, 2, 63, 0
4, 26640, Note_off_c, 2, 66, 0
4, 26640, Note_on_c, 2, 66, 54
4, 26640, Note_on_c, 2, 63, 54
4, 26880, Note_off_c, 2, 63, 0
4, 26880, Note_off_c, 2, 66, 0
4, 26880, Note_on_c, 2, 62, 47
4, 26880, Note_on_c, 2, 65, 47
4, 27360, Note_off_c, 2, 65, 0
4, 27360, Note_off_c, 2, 62, 0
4, 28080, Note_on_c, 2, 62, 68
4, 28080, Note_on_c, 2, 65, 68
4, 28320, Note_off_c, 2, 65, 0
4, 28320, Note_off_c, 2, 62, 0
4, 28320, Note_on_c, 2, 63, 74
4, 28320, Note_on_c, 2, 61, 74
4, 28560, Note_off_c, 2, 61, 0
4, 28560, Note_off_c, 2, 63, 0
4, 28560, Note_on_c, 2, 63, 67
4, 28560, Note_on_c, 2, 59, 67
4, 28800, Note_off_c, 2, 59, 0
4, 28800, Note_off_c, 2, 63, 0
4, 28800, Note_on_c, 2, 59, 59
4, 28800, Note_on_c, 2, 63, 59
4, 29280, Note_off_c, 2, 63, 0
4, 29280, Note_off_c, 2, 59, 0
4, 30000, Note_on_c, 2, 62, 54
4, 30000, Note_on_c, 2, 65, 54
4, 30240, Note_off_c, 2, 65, 0
4, 30240, Note_off_c, 2, 62, 0
4, 30240, Note_on_c, 2, 61, 60
4, 30240, Note_on_c, 2, 63, 60
4, 30480, Note_off_c, 2, 63, 0
4, 30480, Note_off_c, 2, 61, 0
4, 30480, Note_on_c, 2, 60, 54
4, 30480, Note_on_c, 2, 63, 54
4, 30720, Note_off_c, 2, 63, 0
4, 30720, Note_off_c, 2, 60, 0
4, 31200, Note_on_c, 2, 60, 45
4, 31200, Note_on_c, 2, 63, 45
4, 31680, Note_off_c, 2, 63, 0
4, 31680, Note_off_c, 2, 60, 0
4, 32160, Note_on_c, 2, 63, 32
4, 32160, Note_on_c, 2, 60, 32
4, 32640, Control_c, 2, 7, 117
4, 32640, Note_off_c, 2, 60, 0
4, 32640, Note_off_c, 2, 63, 0
4, 32640, Note_on_c, 2, 60, 88
4, 32640, Note_on_c, 2, 63, 88
4, 34080, Note_off_c, 2, 63, 0
4, 34080, Note_off_c, 2, 60, 0
4, 34080, Note_on_c, 2, 59, 77
4, 34080, Note_on_c, 2, 62, 77
4, 34320, Note_off_c, 2, 62, 0
4, 34320, Note_off_c, 2, 59, 0
4, 34320, Note_on_c, 2, 61, 77
4, 34320, Note_on_c, 2, 58, 77
4, 34560, Note_off_c, 2, 58, 0
4, 34560, Note_off_c, 2, 61, 0
4, 34560, Note_on_c, 2, 61, 76
4, 34560, Note_on_c, 2, 58, 76
4, 34920, Note_off_c, 2, 58, 0
4, 34920, Note_off_c, 2, 61, 0
4, 35040, Note_on_c, 2, 57, 74
4, 35040, Note_on_c, 2, 60, 74
4, 35280, Note_off_c, 2, 60, 0
4, 35280, Note_off_c, 2, 57, 0
4, 35280, Note_on_c, 2, 59, 73
4, 35280, Note_on_c, 2, 56, 73
4, 35520, Note_off_c, 2, 56, 0
4, 35520, Note_off_c, 2, 59, 0
4, 35520, Note_on_c, 2, 59, 72
4, 35520, Note_on_c, 2, 56, 72
4, 35880, Note_off_c, 2, 56, 0
4, 35880, Note_off_c, 2, 59, 0
4, 36000, Note_on_c, 2, 58, 71
4, 36000, Note_on_c, 2, 55, 71
4, 36240, Note_off_c, 2, 55, 0
4, 36240, Note_off_c, 2, 58, 0
4, 36240, Note_on_c, 2, 57, 70
4, 36240, Note_on_c, 2, 54, 70
4, 36480, Note_off_c, 2, 54, 0
4, 36480, Note_off_c, 2, 57, 0
4, 36480, Note_on_c, 2, 56, 79
4, 36480, Note_on_c, 2, 53, 79
4, 37920, Note_off_c, 2, 53, 0
4, 37920, Note_off_c, 2, 56, 0
4, 37920, Note_on_c, 2, 55, 68
4, 37920, Note_on_c, 2, 51, 68
4, 38400, Note_off_c, 2, 51, 0
4, 38400, Note_off_c, 2, 55, 0
4, 38400, Note_on_c, 2, 50, 66
4, 38400, Note_on_c, 2, 53, 66
4, 38880, Note_off_c, 2, 53, 0
4, 38880, Note_off_c, 2, 50, 0
4, 38880, Note_on_c, 2, 48, 64
4, 38880, Note_on_c, 2, 51, 64
4, 39360, Note_off_c, 2, 51, 0
4, 39360, Note_off_c, 2, 48, 0
4, 39360, Note_on_c, 2, 50, 63
4, 39360, Note_on_c, 2, 46, 63
4, 39840, Note_off_c, 2, 46, 0
4, 39840, Note_off_c, 2, 50, 0
4, 39840, Note_on_c, 2, 46, 61
4, 39840, Note_on_c, 2, 53, 61
4, 39840, Note_on_c, 2, 50, 61
4, 40320, Note_off_c, 2, 50, 0
4, 40320, Note_off_c, 2, 53, 0
4, 40320, Note_off_c, 2, 46, 0
4, 40320, Note_on_c, 2, 39, 52
4, 40560, Note_on_c, 2, 46, 53
4, 40728, Note_off_c, 2, 39, 0
4, 40800, Note_on_c, 2, 55, 54
4, 40968, Note_off_c, 2, 46, 0
4, 41040, Note_on_c, 2, 46, 55
4, 41208, Note_off_c, 2, 55, 0
4, 41280, Note_on_c, 2, 39, 56
4, 41448, Note_off_c, 2, 46, 0
4, 41520, Note_on_c, 2, 46, 56
4, 41688, Note_off_c, 2, 39, 0
4, 41760, Note_on_c, 2, 55, 57
4, 41928, Note_off_c, 2, 46, 0
4, 42000, Note_on_c, 2, 46, 58
4, 42168, Note_off_c, 2, 55, 0
4, 42240, Note_off_c, 2, 46, 0
4, 42240, Note_on_c, 2, 41, 59
4, 42480, Note_on_c, 2, 46, 60
4, 42648, Note_off_c, 2, 41, 0
4, 42720, Note_on_c, 2, 56, 61
4, 42888, Note_off_c, 2, 46, 0
4, 42960, Note_on_c, 2, 46, 62
4, 43128, Note_off_c, 2, 56, 0
4, 43200, Note_on_c, 2, 41, 62
4, 43368, Note_off_c, 2, 46, 0
4, 43440, Note_on_c, 2, 46, 63
4, 43608, Note_off_c, 2, 41, 0
4, 43680, Note_on_c, 2, 56, 64
4, 43848, Note_off_c, 2, 46, 0
4, 43920, Note_on_c, 2, 46, 65
4, 44088, Note_off_c, 2, 56, 0
4, 44160, Note_off_c, 2, 46, 0
4, 44160, Note_on_c, 2, 43, 66
4, 44400, Note_on_c, 2, 46, 67
4, 44624, Note_off_c, 2, 43, 0
4, 44640, Note_on_c, 2, 58, 66
4, 44808, Note_off_c, 2, 46, 0
4, 44880, Note_on_c, 2, 46, 65
4, 45048, Note_off_c, 2, 58, 0
4, 45120, Note_on_c, 2, 43, 64
4, 45288, Note_off_c, 2, 46, 0
4, 45360, Note_on_c, 2, 46, 63
4, 45528, Note_off_c, 2, 43, 0
4, 45600, Note_on_c, 2, 58, 61
4, 45768, Note_off_c, 2, 46, 0
4, 45840, Note_on_c, 2, 46, 60
4, 46008, Note_off_c, 2, 58, 0
4, 46080, Note_off_c, 2, 46, 0
4, 46080, Note_on_c, 2, 44, 59
4, 46320, Note_on_c, 2, 46, 58
4, 46516, Note_off_c, 2, 44, 0
4, 46560, Note_on_c, 2, 56, 57
4, 46756, Note_off_c, 2, 46, 0
4, 46800, Note_on_c, 2, 46, 56
4, 46996, Note_off_c, 2, 56, 0
4, 47040, Note_on_c, 2, 34, 55
4, 47236, Note_off_c, 2, 46, 0
4, 47280, Note_on_c, 2, 46, 53
4, 47476, Note_off_c, 2, 34, 0
4, 47520, Note_on_c, 2, 53, 52
4, 47716, Note_off_c, 2, 46, 0
4, 47760, Note_on_c, 2, 46, 51
4, 47956, Note_off_c, 2, 53, 0
4, 48000, Note_off_c, 2, 46, 0
4, 48000, Note_on_c, 2, 39, 50
4, 48240, Note_on_c, 2, 46, 51
4, 48436, Note_off_c, 2, 39, 0
4, 48480, Note_on_c, 2, 55, 52
4, 48648, Note_off_c, 2, 46, 0
4, 48720, Note_on_c, 2, 46, 53
4, 48888, Note_off_c, 2, 55, 0
4, 48960, Note_on_c, 2, 39, 53
4, 49128, Note_off_c, 2, 46, 0
4, 49200, Note_on_c, 2, 46, 54
4, 49368, Note_off_c, 2, 39, 0
4, 49440, Note_on_c, 2, 55, 55
4, 49608, Note_off_c, 2, 46, 0
4, 49680, Note_on_c, 2, 46, 56
4, 49848, Note_off_c, 2, 55, 0
4, 49920, Note_off_c, 2, 46, 0
4, 49920, Note_on_c, 2, 41, 57
4, 50160, Note_on_c, 2, 46, 58
4, 50356, Note_off_c, 2, 41, 0
4, 50400, Note_on_c, 2, 56, 59
4, 50568, Note_off_c, 2, 46, 0
4, 50640, Note_on_c, 2, 46, 60
4, 50808, Note_off_c, 2, 56, 0
4, 50880, Note_on_c, 2, 41, 61
4, 51048, Note_off_c, 2, 46, 0
4, 51120, Note_on_c, 2, 46, 62
4, 51288, Note_off_c, 2, 41, 0
4, 51360, Note_on_c, 2, 56, 63
4, 51528, Note_off_c, 2, 46, 0
4, 51600, Note_on_c, 2, 46, 64
4, 51768, Note_off_c, 2, 56, 0
4, 51840, Note_on_c, 2, 43, 64
4, 51868, Note_off_c, 2, 46, 0
4, 52080, Note_on_c, 2, 51, 65
4, 52276, Note_off_c, 2, 43, 0
4, 52320, Note_on_c, 2, 58, 65
4, 52488, Note_off_c, 2, 51, 0
4, 52560, Note_on_c, 2, 51, 64
4, 52728, Note_off_c, 2, 58, 0
4, 52800, Note_on_c, 2, 43, 63
4, 52968, Note_off_c, 2, 51, 0
4, 53040, Note_on_c, 2, 51, 62
4, 53208, Note_off_c, 2, 43, 0
4, 53280, Note_on_c, 2, 58, 61
4, 53448, Note_off_c, 2, 51, 0
4, 53520, Note_on_c, 2, 51, 61
4, 53688, Note_off_c, 2, 58, 0
4, 53760, Note_off_c, 2, 51, 0
4, 53760, Note_on_c, 2, 44, 60
4, 54000, Note_on_c, 2, 51, 59
4, 54240, Note_on_c, 2, 60, 58
4, 54252, Note_off_c, 2, 44, 0
4, 54380, Note_off_c, 2, 51, 0
4, 54480, Note_on_c, 2, 51, 58
4, 54620, Note_off_c, 2, 60, 0
4, 54720, Note_on_c, 2, 45, 57
4, 54860, Note_off_c, 2, 51, 0
4, 54960, Note_on_c, 2, 53, 56
4, 55100, Note_off_c, 2, 45, 0
4, 55200, Note_on_c, 2, 60, 55
4, 55340, Note_off_c, 2, 53, 0
4, 55440, Note_on_c, 2, 53, 55
4, 55580, Note_off_c, 2, 60, 0
4, 55680, Note_off_c, 2, 53, 0
4, 55680, Note_on_c, 2, 58, 54
4, 55680, Note_on_c, 2, 46, 54
4, 56040, Note_off_c, 2, 46, 0
4, 56040, Note_off_c, 2, 58, 0
4, 56160, Note_on_c, 2, 63, 58
4, 56400, Note_off_c, 2, 63, 0
4, 56400, Note_on_c, 2, 62, 59
4, 56640, Note_off_c, 2, 62, 0
4, 56640, Note_on_c, 2, 60, 60
4, 56880, Note_off_c, 2, 60, 0
4, 56880, Note_on_c, 2, 58, 61
4, 57120, Note_off_c, 2, 58, 0
4, 57120, Note_on_c, 2, 57, 61
4, 57360, Note_off_c, 2, 57, 0
4, 57360, Note_on_c, 2, 56, 62
4, 57600, Note_off_c, 2, 56, 0
4, 57600, Note_on_c, 2, 55, 63
4, 57840, Note_off_c, 2, 55, 0
4, 57840, Note_on_c, 2, 53, 64
4, 58080, Note_off_c, 2, 53, 0
4, 58080, Note_on_c, 2, 51, 65
4, 58320, Note_off_c, 2, 51, 0
4, 58320, Note_on_c, 2, 50, 65
4, 58560, Note_off_c, 2, 50, 0
4, 58560, Note_on_c, 2, 51, 66
4, 58800, Note_off_c, 2, 51, 0
4, 58800, Note_on_c, 2, 53, 67
4, 59040, Note_off_c, 2, 53, 0
4, 59040, Note_on_c, 2, 55, 68
4, 59280, Note_off_c, 2, 55, 0
4, 59280, Note_on_c, 2, 56, 68
4, 59520, Note_off_c, 2, 56, 0
4, 59520, Note_on_c, 2, 58, 69
4, 60000, Note_off_c, 2, 58, 0
4, 60000, Note_on_c, 2, 60, 71
4, 60240, Note_off_c, 2, 60, 0
4, 60240, Note_on_c, 2, 62, 72
4, 60480, Note_off_c, 2, 62, 0
4, 60480, Note_on_c, 2, 63, 72
4, 60720, Note_off_c, 2, 63, 0
4, 60720, Note_on_c, 2, 65, 73
4, 60960, Note_off_c, 2, 65, 0
4, 60960, Note_on_c, 2, 67, 74
4, 61200, Note_off_c, 2, 67, 0
4, 61200, Note_on_c, 2, 68, 75
4, 61440, Note_off_c, 2, 68, 0
4, 61440, Note_on_c, 2, 70, 75
4, 61920, Note_off_c, 2, 70, 0
4, 61920, Note_on_c, 2, 68, 77
4, 62160, Note_off_c, 2, 68, 0
4, 62160, Note_on_c, 2, 67, 78
4, 62400, Note_off_c, 2, 67, 0
4, 62400, Note_on_c, 2, 65, 79
4, 62640, Note_off_c, 2, 65, 0
4, 62640, Note_on_c, 2, 63, 79
4, 62795, Note_off_c, 2, 63, 0
4, 62880, Note_on_c, 2, 62, 80
4, 63035, Note_off_c, 2, 62, 0
4, 63120, Note_on_c, 2, 60, 81
4, 63275, Note_off_c, 2, 60, 0
4, 63360, Note_on_c, 2, 59, 84
4, 63515, Note_off_c, 2, 59, 0
4, 63600, Note_on_c, 2, 57, 86
4, 63755, Note_off_c, 2, 57, 0
4, 63840, Note_on_c, 2, 55, 88
4, 63995, Note_off_c, 2, 55, 0
4, 64080, Note_on_c, 2, 53, 90
4, 64235, Note_off_c, 2, 53, 0
4, 64320, Note_on_c, 2, 51, 92
4, 64475, Note_off_c, 2, 51, 0
4, 64560, Note_on_c, 2, 50, 95
4, 64715, Note_off_c, 2, 50, 0
4, 64800, Note_on_c, 2, 48, 97
4, 64955, Note_off_c, 2, 48, 0
4, 65040, Note_on_c, 2, 48, 99
4, 65040, Note_on_c, 2, 46, 99
4, 65195, Note_off_c, 2, 46, 0
4, 65195, Note_off_c, 2, 48, 0
4, 65280, Note_on_c, 2, 46, 101
4, 65280, Note_on_c, 2, 48, 101
4, 65640, Note_off_c, 2, 48, 0
4, 65640, Note_off_c, 2, 46, 0
4, 66240, Note_on_c, 2, 45, 100
4, 66240, Note_on_c, 2, 48, 100
4, 66600, Note_off_c, 2, 48, 0
4, 66600, Note_off_c, 2, 45, 0
4, 67200, Note_on_c, 2, 48, 98
4, 67200, Note_on_c, 2, 42, 98
4, 68640, Note_off_c, 2, 42, 0
4, 68640, Note_on_c, 2, 41, 85
4, 69025, Note_off_c, 2, 41, 0
4, 69120, Note_on_c, 2, 39, 81
4, 71040, Note_off_c, 2, 39, 0
4, 71040, Note_off_c, 2, 48, 0
4, 71040, Note_on_c, 2, 48, 89
4, 71040, Note_on_c, 2, 42, 89
4, 72480, Note_off_c, 2, 42, 0
4, 72480, Note_on_c, 2, 41, 76
4, 72865, Note_off_c, 2, 41, 0
4, 72960, Note_on_c, 2, 40, 72
4, 74880, Note_off_c, 2, 40, 0
4, 74880, Note_off_c, 2, 48, 0
4, 74880, Note_on_c, 2, 41, 65
4, 74880, Note_on_c, 2, 48, 65
4, 75240, Note_off_c, 2, 48, 0
4, 75240, Note_off_c, 2, 41, 0
4, 76800, Note_on_c, 2, 50, 63
4, 76800, Note_on_c, 2, 41, 63
4, 77160, Note_off_c, 2, 41, 0
4, 77160, Note_off_c, 2, 50, 0
4, 78720, Note_on_c, 2, 51, 61
4, 78720, Note_on_c, 2, 41, 61
4, 79080, Note_off_c, 2, 41, 0
4, 79080, Note_off_c, 2, 51, 0
4, 79680, Note_on_c, 2, 41, 59
4, 79680, Note_on_c, 2, 50, 59
4, 80040, Note_off_c, 2, 50, 0
4, 80040, Note_off_c, 2, 41, 0
4, 80640, Note_on_c, 2, 41, 58
4, 80640, Note_on_c, 2, 48, 58
4, 81000, Note_off_c, 2, 48, 0
4, 81000, Note_off_c, 2, 41, 0
4, 81600, Note_on_c, 2, 41, 57
4, 81600, Note_on_c, 2, 50, 57
4, 81960, Note_off_c, 2, 50, 0
4, 81960, Note_off_c, 2, 41, 0
4, 82560, Note_on_c, 2, 48, 56
4, 82560, Note_on_c, 2, 41, 56
4, 82920, Note_off_c, 2, 41, 0
4, 82920, Note_off_c, 2, 48, 0
4, 84480, Note_on_c, 2, 41, 54
4, 84480, Note_on_c, 2, 50, 54
4, 84840, Note_off_c, 2, 50, 0
4, 84840, Note_off_c, 2, 41, 0
4, 86400, Note_on_c, 2, 41, 52
4, 86400, Note_on_c, 2, 51, 52
4, 86760, Note_off_c, 2, 51, 0
4, 86760, Note_off_c, 2, 41, 0
4, 87360, Note_on_c, 2, 41, 51
4, 87360, Note_on_c, 2, 50, 51
4, 87720, Note_off_c, 2, 50, 0
4, 87720, Note_off_c, 2, 41, 0
4, 88320, Note_on_c, 2, 41, 50
4, 88320, Note_on_c, 2, 51, 50
4, 88680, Note_off_c, 2, 51, 0
4, 88680, Note_off_c, 2, 41, 0
4, 89280, Note_on_c, 2, 53, 54
4, 89760, Note_off_c, 2, 53, 0
4, 89760, Note_on_c, 2, 55, 56
4, 90000, Note_off_c, 2, 55, 0
4, 90000, Note_on_c, 2, 57, 57
4, 90240, Note_off_c, 2, 57, 0
4, 90240, Note_on_c, 2, 58, 58
4, 90480, Note_off_c, 2, 58, 0
4, 90480, Note_on_c, 2, 60, 59
4, 90720, Note_off_c, 2, 60, 0
4, 90720, Note_on_c, 2, 62, 60
4, 90960, Note_off_c, 2, 62, 0
4, 90960, Note_on_c, 2, 63, 61
4, 91200, Note_off_c, 2, 63, 0
4, 91200, Note_on_c, 2, 65, 64
4, 91680, Note_off_c, 2, 65, 0
4, 91680, Note_on_c, 2, 67, 67
4, 91920, Note_off_c, 2, 67, 0
4, 91920, Note_on_c, 2, 69, 68
4, 92160, Note_off_c, 2, 69, 0
4, 92160, Note_on_c, 2, 70, 70
4, 92400, Note_off_c, 2, 70, 0
4, 92400, Note_on_c, 2, 72, 72
4, 92640, Note_off_c, 2, 72, 0
4, 92640, Note_on_c, 2, 74, 73
4, 92880, Note_off_c, 2, 74, 0
4, 92880, Note_on_c, 2, 75, 75
4, 93120, Note_off_c, 2, 75, 0
4, 93120, Note_on_c, 2, 77, 80
4, 93505, Note_off_c, 2, 77, 0
4, 93600, Note_on_c, 2, 75, 77
4, 94080, Note_off_c, 2, 75, 0
4, 94080, Note_on_c, 2, 74, 75
4, 94465, Note_off_c, 2, 74, 0
4, 94560, Note_on_c, 2, 73, 74
4, 94945, Note_off_c, 2, 73, 0
4, 95040, Note_on_c, 2, 72, 72
4, 95425, Note_off_c, 2, 72, 0
4, 95520, Note_on_c, 2, 65, 69
4, 95905, Note_off_c, 2, 65, 0
4, 96000, Note_on_c, 2, 58, 69
4, 96480, Note_on_c, 2, 64, 69
4, 96480, Note_on_c, 2, 61, 69
4, 97440, Note_off_c, 2, 61, 0
4, 97440, Note_off_c, 2, 64, 0
4, 97440, Note_on_c, 2, 62, 62
4, 97440, Note_on_c, 2, 65, 62
4, 97920, Note_off_c, 2, 65, 0
4, 97920, Note_off_c, 2, 62, 0
4, 97920, Note_off_c, 2, 58, 0
4, 97920, Note_on_c, 2, 58, 68
4, 98400, Note_on_c, 2, 69, 68
4, 98400, Note_on_c, 2, 66, 68
4, 99360, Note_off_c, 2, 66, 0
4, 99360, Note_on_c, 2, 65, 62
4, 99840, Note_off_c, 2, 65, 0
4, 99840, Note_off_c, 2, 69, 0
4, 99840, Note_off_c, 2, 58, 0
4, 99840, Note_on_c, 2, 58, 67
4, 100320, Note_on_c, 2, 65, 66
4, 100320, Note_on_c, 2, 62, 66
4, 100800, Note_off_c, 2, 62, 0
4, 100800, Note_off_c, 2, 65, 0
4, 100800, Note_on_c, 2, 67, 66
4, 100800, Note_on_c, 2, 63, 66
4, 101280, Note_off_c, 2, 63, 0
4, 101280, Note_off_c, 2, 67, 0
4, 101280, Note_on_c, 2, 65, 66
4, 101280, Note_on_c, 2, 62, 66
4, 101760, Note_off_c, 2, 62, 0
4, 101760, Note_off_c, 2, 65, 0
4, 101760, Note_off_c, 2, 58, 0
4, 101760, Note_on_c, 2, 62, 65
4, 101760, Note_on_c, 2, 53, 65
4, 102240, Note_off_c, 2, 62, 0
4, 102240, Note_on_c, 2, 60, 65
4, 102240, Note_on_c, 2, 63, 65
4, 102720, Note_off_c, 2, 63, 0
4, 102720, Note_off_c, 2, 60, 0
4, 102720, Note_on_c, 2, 62, 65
4, 102720, Note_on_c, 2, 58, 65
4, 103200, Note_off_c, 2, 58, 0
4, 103200, Note_off_c, 2, 62, 0
4, 103200, Note_on_c, 2, 57, 64
4, 103200, Note_on_c, 2, 60, 64
4, 103680, Note_off_c, 2, 60, 0
4, 103680, Note_off_c, 2, 57, 0
4, 103680, Note_off_c, 2, 53, 0
4, 103680, Note_on_c, 2, 46, 64
4, 104160, Note_on_c, 2, 52, 66
4, 104160, Note_on_c, 2, 49, 66
4, 105120, Note_off_c, 2, 49, 0
4, 105120, Note_off_c, 2, 52, 0
4, 105120, Note_on_c, 2, 53, 60
4, 105120, Note_on_c, 2, 50, 60
4, 105600, Note_off_c, 2, 50, 0
4, 105600, Note_off_c, 2, 53, 0
4, 105600, Note_off_c, 2, 46, 0
4, 105600, Note_on_c, 2, 46, 63
4, 106080, Note_on_c, 2, 57, 66
4, 106080, Note_on_c, 2, 54, 66
4, 107040, Note_off_c, 2, 54, 0
4, 107040, Note_on_c, 2, 53, 61
4, 107520, Note_off_c, 2, 53, 0
4, 107520, Note_off_c, 2, 57, 0
4, 107520, Note_off_c, 2, 46, 0
4, 107520, Note_on_c, 2, 46, 62
4, 108000, Note_on_c, 2, 53, 61
4, 108000, Note_on_c, 2, 50, 61
4, 108480, Note_off_c, 2, 50, 0
4, 108480, Note_off_c, 2, 53, 0
4, 108480, Note_on_c, 2, 55, 61
4, 108480, Note_on_c, 2, 51, 61
4, 108960, Note_off_c, 2, 51, 0
4, 108960, Note_off_c, 2, 55, 0
4, 108960, Note_on_c, 2, 53, 61
4, 108960, Note_on_c, 2, 50, 61
4, 109440, Note_off_c, 2, 50, 0
4, 109440, Note_off_c, 2, 53, 0
4, 109440, Note_off_c, 2, 46, 0
4, 109440, Note_on_c, 2, 50, 60
4, 109440, Note_on_c, 2, 41, 60
4, 109920, Note_off_c, 2, 50, 0
4, 109920, Note_on_c, 2, 48, 60
4, 109920, Note_on_c, 2, 51, 60
4, 110400, Note_off_c, 2, 51, 0
4, 110400, Note_off_c, 2, 48, 0
4, 110400, Note_on_c, 2, 50, 60
4, 110400, Note_on_c, 2, 46, 60
4, 110880, Note_off_c, 2, 46, 0
4, 110880, Note_off_c, 2, 50, 0
4, 110880, Note_on_c, 2, 45, 60
4, 110880, Note_on_c, 2, 48, 60
4, 111360, Note_off_c, 2, 48, 0
4, 111360, Note_off_c, 2, 45, 0
4, 111360, Note_off_c, 2, 41, 0
4, 111360, Note_on_c, 2, 46, 59
4, 111360, Note_on_c, 2, 34, 59
4, 112080, Note_off_c, 2, 34, 0
4, 112080, Note_off_c, 2, 46, 0
4, 112080, Note_on_c, 2, 42, 59
4, 112320, Note_off_c, 2, 42, 0
4, 112320, Note_on_c, 2, 41, 59
4, 112800, Note_off_c, 2, 41, 0
4, 112800, Note_on_c, 2, 34, 58
4, 113280, Note_off_c, 2, 34, 0
4, 113280, Note_on_c, 2, 29, 58
4, 113760, Note_off_c, 2, 29, 0
4, 113760, Note_on_c, 2, 51, 58
4, 114000, Note_off_c, 2, 51, 0
4, 114000, Note_on_c, 2, 50, 58
4, 114240, Note_off_c, 2, 50, 0
4, 114240, Note_on_c, 2, 48, 58
4, 114480, Note_off_c, 2, 48, 0
4, 114480, Note_on_c, 2, 46, 58
4, 114720, Note_off_c, 2, 46, 0
4, 114720, Note_on_c, 2, 41, 58
4, 114720, Note_on_c, 2, 45, 58
4, 114960, Note_off_c, 2, 45, 0
4, 114960, Note_off_c, 2, 41, 0
4, 114960, Note_on_c, 2, 53, 57
4, 115200, Note_off_c, 2, 53, 0
4, 115200, Note_on_c, 2, 46, 57
4, 115920, Note_off_c, 2, 46, 0
4, 115920, Note_on_c, 2, 54, 57
4, 116160, Note_off_c, 2, 54, 0
4, 116160, Note_on_c, 2, 53, 56
4, 116640, Note_off_c, 2, 53, 0
4, 116640, Note_on_c, 2, 46, 56
4, 117120, Note_off_c, 2, 46, 0
4, 117120, Note_on_c, 2, 41, 55
4, 117600, Note_off_c, 2, 41, 0
4, 117600, Note_on_c, 2, 63, 55
4, 117840, Note_off_c, 2, 63, 0
4, 117840, Note_on_c, 2, 62, 55
4, 118080, Note_off_c, 2, 62, 0
4, 118080, Note_on_c, 2, 60, 55
4, 118320, Note_off_c, 2, 60, 0
4, 118320, Note_on_c, 2, 58, 54
4, 118560, Note_off_c, 2, 58, 0
4, 118560, Note_on_c, 2, 53, 54
4, 118560, Note_on_c, 2, 57, 54
4, 118800, Note_off_c, 2, 57, 0
4, 118800, Note_on_c, 2, 60, 54
4, 119040, Note_off_c, 2, 60, 0
4, 119040, Note_off_c, 2, 53, 0
4, 119040, Note_on_c, 2, 58, 54
4, 119040, Note_on_c, 2, 62, 54
4, 119760, Note_off_c, 2, 62, 0
4, 119760, Note_off_c, 2, 58, 0
4, 119760, Note_on_c, 2, 60, 53
4, 120000, Note_off_c, 2, 60, 0
4, 120000, Note_on_c, 2, 58, 53
4, 120720, Note_off_c, 2, 58, 0
4, 120720, Note_on_c, 2, 55, 52
4, 120960, Note_off_c, 2, 55, 0
4, 120960, Note_on_c, 2, 53, 52
4, 121680, Note_off_c, 2, 53, 0
4, 121680, Note_on_c, 2, 51, 52
4, 121920, Note_off_c, 2, 51, 0
4, 121920, Note_on_c, 2, 50, 51
4, 122640, Note_off_c, 2, 50, 0
4, 122640, Note_on_c, 2, 48, 51
4, 122880, Note_off_c, 2, 48, 0
4, 122880, Note_on_c, 2, 46, 51
4, 123600, Note_off_c, 2, 46, 0
4, 123600, Note_on_c, 2, 43, 50
4, 123840, Note_off_c, 2, 43, 0
4, 123840, Note_on_c, 2, 41, 50
4, 124560, Note_off_c, 2, 41, 0
4, 124560, Note_on_c, 2, 39, 49
4, 124800, Note_off_c, 2, 39, 0
4, 124800, Note_on_c, 2, 38, 49
4, 125520, Note_off_c, 2, 38, 0
4, 125520, Note_on_c, 2, 36, 48
4, 125760, Note_off_c, 2, 36, 0
4, 125760, Note_on_c, 2, 34, 48
4, 126480, Note_off_c, 2, 34, 0
4, 126480, Note_on_c, 2, 65, 48
4, 126480, Note_on_c, 2, 68, 48
4, 126720, Note_off_c, 2, 68, 0
4, 126720, Note_off_c, 2, 65, 0
4, 126720, Note_on_c, 2, 65, 47
4, 126720, Note_on_c, 2, 68, 47
4, 128640, Note_off_c, 2, 68, 0
4, 128640, Note_off_c, 2, 65, 0
4, 128640, Note_on_c, 2, 67, 46
4, 128640, Note_on_c, 2, 63, 46
4, 130560, Note_off_c, 2, 63, 0
4, 130560, Note_off_c, 2, 67, 0
4, 130560, Note_on_c, 2, 65, 44
4, 130560, Note_on_c, 2, 62, 44
4, 132480, Note_off_c, 2, 62, 0
4, 132480, Note_off_c, 2, 65, 0
4, 132480, Note_on_c, 2, 63, 46
4, 132480, Note_on_c, 2, 60, 46
4, 134400, Note_off_c, 2, 60, 0
4, 134400, Note_off_c, 2, 63, 0
4, 134400, Note_on_c, 2, 62, 85
4, 134400, Note_on_c, 2, 59, 85
4, 135840, Note_off_c, 2, 59, 0
4, 135840, Note_off_c, 2, 62, 0
4, 135840, Note_on_c, 2, 62, 82
4, 135840, Note_on_c, 2, 58, 82
4, 136225, Note_off_c, 2, 58, 0
4, 136225, Note_off_c, 2, 62, 0
4, 136320, Note_on_c, 2, 57, 82
4, 136320, Note_on_c, 2, 60, 82
4, 136705, Note_off_c, 2, 60, 0
4, 136705, Note_off_c, 2, 57, 0
4, 137280, Note_on_c, 2, 60, 80
4, 137280, Note_on_c, 2, 56, 80
4, 137665, Note_off_c, 2, 56, 0
4, 137665, Note_off_c, 2, 60, 0
4, 138240, Note_on_c, 2, 55, 79
4, 138240, Note_on_c, 2, 60, 79
4, 138625, Note_off_c, 2, 60, 0
4, 138625, Note_off_c, 2, 55, 0
4, 138720, Note_on_c, 2, 60, 78
4, 138720, Note_on_c, 2, 54, 78
4, 139105, Note_off_c, 2, 54, 0
4, 139105, Note_off_c, 2, 60, 0
4, 139200, Note_on_c, 2, 59, 77
4, 139200, Note_on_c, 2, 55, 77
4, 139200, Note_on_c, 2, 53, 77
4, 139585, Note_off_c, 2, 53, 0
4, 139585, Note_off_c, 2, 55, 0
4, 139585, Note_off_c, 2, 59, 0
4, 139680, Note_on_c, 2, 55, 76
4, 139680, Note_on_c, 2, 60, 76
4, 139680, Note_on_c, 2, 51, 76
4, 140065, Note_off_c, 2, 51, 0
4, 140065, Note_off_c, 2, 60, 0
4, 140065, Note_off_c, 2, 55, 0
4, 144480, Note_on_c, 2, 48, 55
4, 144720, Note_off_c, 2, 48, 0
4, 144720, Note_on_c, 2, 54, 55
4, 144960, Note_off_c, 2, 54, 0
4, 144960, Note_on_c, 2, 54, 55
4, 145320, Note_off_c, 2, 54, 0
4, 145440, Note_on_c, 2, 45, 54
4, 145680, Note_off_c, 2, 45, 0
4, 145680, Note_on_c, 2, 51, 54
4, 145920, Note_off_c, 2, 51, 0
4, 145920, Note_on_c, 2, 51, 54
4, 146280, Note_off_c, 2, 51, 0
4, 146400, Note_on_c, 2, 41, 53
4, 146640, Note_off_c, 2, 41, 0
4, 146640, Note_on_c, 2, 48, 53
4, 146880, Note_off_c, 2, 48, 0
4, 146880, Note_on_c, 2, 48, 53
4, 147240, Note_off_c, 2, 48, 0
4, 147360, Note_on_c, 2, 49, 52
4, 147720, Note_off_c, 2, 49, 0
4, 152160, Note_on_c, 2, 62, 53
4, 152400, Note_off_c, 2, 62, 0
4, 152400, Note_on_c, 2, 69, 53
4, 152640, Note_off_c, 2, 69, 0
4, 152640, Note_on_c, 2, 69, 53
4, 153000, Note_off_c, 2, 69, 0
4, 153120, Note_on_c, 2, 54, 52
4, 153360, Note_off_c, 2, 54, 0
4, 153360, Note_on_c, 2, 60, 52
4, 153600, Note_off_c, 2, 60, 0
4, 153600, Note_on_c, 2, 60, 52
4, 153960, Note_off_c, 2, 60, 0
4, 154080, Note_on_c, 2, 50, 51
4, 154320, Note_off_c, 2, 50, 0
4, 154320, Note_on_c, 2, 57, 51
4, 154560, Note_off_c, 2, 57, 0
4, 154560, Note_on_c, 2, 57, 51
4, 154920, Note_off_c, 2, 57, 0
4, 155040, Note_on_c, 2, 38, 50
4, 155280, Note_off_c, 2, 38, 0
4, 155280, Note_on_c, 2, 50, 50
4, 155520, Note_off_c, 2, 50, 0
4, 159840, Note_on_c, 2, 54, 49
4, 160080, Note_off_c, 2, 54, 0
4, 160080, Note_on_c, 2, 63, 49
4, 160320, Note_off_c, 2, 63, 0
4, 160320, Note_on_c, 2, 63, 49
4, 160680, Note_off_c, 2, 63, 0
4, 160800, Note_on_c, 2, 51, 49
4, 161040, Note_off_c, 2, 51, 0
4, 161040, Note_on_c, 2, 59, 49
4, 161280, Note_off_c, 2, 59, 0
4, 161280, Note_on_c, 2, 59, 49
4, 161640, Note_off_c, 2, 59, 0
4, 161760, Note_on_c, 2, 47, 48
4, 162000, Note_off_c, 2, 47, 0
4, 162000, Note_on_c, 2, 54, 48
4, 162240, Note_off_c, 2, 54, 0
4, 162240, Note_on_c, 2, 54, 48
4, 162600, Note_off_c, 2, 54, 0
4, 162720, Note_on_c, 2, 42, 48
4, 162960, Note_off_c, 2, 42, 0
4, 162960, Note_on_c, 2, 51, 48
4, 163200, Note_off_c, 2, 51, 0
4, 167520, Note_on_c, 2, 56, 54
4, 167760, Note_off_c, 2, 56, 0
4, 167760, Note_on_c, 2, 65, 54
4, 168000, Note_off_c, 2, 65, 0
4, 168000, Note_on_c, 2, 65, 54
4, 168360, Note_off_c, 2, 65, 0
4, 168480, Note_on_c, 2, 53, 54
4, 168720, Note_off_c, 2, 53, 0
4, 168720, Note_on_c, 2, 62, 54
4, 168960, Note_off_c, 2, 62, 0
4, 168960, Note_on_c, 2, 62, 54
4, 169320, Note_off_c, 2, 62, 0
4, 169440, Note_on_c, 2, 50, 54
4, 169440, Note_on_c, 2, 53, 54
4, 169680, Note_off_c, 2, 53, 0
4, 169680, Note_off_c, 2, 50, 0
4, 169680, Note_on_c, 2, 53, 54
4, 169680, Note_on_c, 2, 56, 54
4, 169920, Note_off_c, 2, 56, 0
4, 169920, Note_off_c, 2, 53, 0
4, 169920, Note_on_c, 2, 56, 54
4, 169920, Note_on_c, 2, 53, 54
4, 170280, Note_off_c, 2, 53, 0
4, 170280, Note_off_c, 2, 56, 0
4, 170400, Note_on_c, 2, 53, 55
4, 170400, Note_on_c, 2, 50, 55
4, 170640, Note_off_c, 2, 50, 0
4, 170640, Note_off_c, 2, 53, 0
4, 170640, Note_on_c, 2, 56, 55
4, 170640, Note_on_c, 2, 53, 55
4, 170880, Note_off_c, 2, 53, 0
4, 170880, Note_off_c, 2, 56, 0
4, 171360, Note_on_c, 2, 56, 55
4, 171600, Note_off_c, 2, 56, 0
4, 171600, Note_on_c, 2, 65, 55
4, 171840, Note_off_c, 2, 65, 0
4, 171840, Note_on_c, 2, 65, 55
4, 172200, Note_off_c, 2, 65, 0
4, 172320, Note_on_c, 2, 53, 55
4, 172560, Note_off_c, 2, 53, 0
4, 172560, Note_on_c, 2, 62, 55
4, 172800, Note_off_c, 2, 62, 0
4, 172800, Note_on_c, 2, 62, 55
4, 173160, Note_off_c, 2, 62, 0
4, 173280, Note_on_c, 2, 74, 65
4, 173760, Note_off_c, 2, 74, 0
4, 173760, Note_on_c, 2, 75, 75
4, 174240, Note_off_c, 2, 75, 0
4, 174240, Note_on_c, 2, 74, 84
4, 174720, Note_off_c, 2, 74, 0
4, 174720, Note_on_c, 2, 67, 93
4, 174720, Note_on_c, 2, 70, 93
4, 174720, Note_on_c, 2, 61, 93
4, 176160, Note_off_c, 2, 61, 0
4, 176160, Note_off_c, 2, 70, 0
4, 176160, Note_off_c, 2, 67, 0
4, 176160, Note_on_c, 2, 65, 87
4, 176160, Note_on_c, 2, 59, 87
4, 176160, Note_on_c, 2, 68, 87
4, 176545, Note_off_c, 2, 68, 0
4, 176545, Note_off_c, 2, 59, 0
4, 176545, Note_off_c, 2, 65, 0
4, 176640, Note_on_c, 2, 61, 85
4, 176640, Note_on_c, 2, 58, 85
4, 176640, Note_on_c, 2, 66, 85
4, 177025, Note_off_c, 2, 66, 0
4, 177025, Note_off_c, 2, 58, 0
4, 177025, Note_off_c, 2, 61, 0
4, 177120, Note_on_c, 2, 56, 83
4, 177120, Note_on_c, 2, 61, 83
4, 177505, Note_off_c, 2, 61, 0
4, 177505, Note_off_c, 2, 56, 0
4, 177600, Note_on_c, 2, 61, 81
4, 177600, Note_on_c, 2, 53, 81
4, 177985, Note_off_c, 2, 53, 0
4, 177985, Note_off_c, 2, 61, 0
4, 178080, Note_on_c, 2, 61, 79
4, 178080, Note_on_c, 2, 54, 79
4, 178465, Note_off_c, 2, 54, 0
4, 178465, Note_off_c, 2, 61, 0
4, 178560, Note_on_c, 2, 59, 77
4, 178560, Note_on_c, 2, 63, 77
4, 178945, Note_off_c, 2, 63, 0
4, 178945, Note_off_c, 2, 59, 0
4, 179040, Note_on_c, 2, 61, 75
4, 179040, Note_on_c, 2, 58, 75
4, 179425, Note_off_c, 2, 58, 0
4, 179425, Note_off_c, 2, 61, 0
4, 179520, Note_on_c, 2, 59, 73
4, 179520, Note_on_c, 2, 56, 73
4, 179905, Note_off_c, 2, 56, 0
4, 179905, Note_off_c, 2, 59, 0
4, 180000, Note_on_c, 2, 54, 71
4, 180000, Note_on_c, 2, 58, 71
4, 180385, Note_off_c, 2, 58, 0
4, 180385, Note_off_c, 2, 54, 0
4, 180960, Note_on_c, 2, 41, 59
4, 181200, Note_off_c, 2, 41, 0
4, 181200, Note_on_c, 2, 49, 59
4, 181440, Note_off_c, 2, 49, 0
4, 181440, Note_on_c, 2, 49, 59
4, 181800, Note_off_c, 2, 49, 0
4, 181920, Note_on_c, 2, 53, 58
4, 182160, Note_off_c, 2, 53, 0
4, 182160, Note_on_c, 2, 61, 58
4, 182400, Note_off_c, 2, 61, 0
4, 182880, Note_on_c, 2, 41, 58
4, 183120, Note_off_c, 2, 41, 0
4, 183120, Note_on_c, 2, 50, 57
4, 183360, Note_off_c, 2, 50, 0
4, 183360, Note_on_c, 2, 50, 57
4, 183720, Note_off_c, 2, 50, 0
4, 183840, Note_on_c, 2, 53, 57
4, 184080, Note_off_c, 2, 53, 0
4, 184080, Note_on_c, 2, 62, 57
4, 184320, Note_off_c, 2, 62, 0
4, 184800, Note_on_c, 2, 39, 56
4, 185040, Note_off_c, 2, 39, 0
4, 185040, Note_on_c, 2, 48, 56
4, 185280, Note_off_c, 2, 48, 0
4, 185280, Note_on_c, 2, 48, 56
4, 185640, Note_off_c, 2, 48, 0
4, 185760, Note_on_c, 2, 51, 55
4, 186000, Note_off_c, 2, 51, 0
4, 186000, Note_on_c, 2, 60, 55
4, 186240, Note_off_c, 2, 60, 0
4, 186720, Note_on_c, 2, 38, 54
4, 186960, Note_off_c, 2, 38, 0
4, 186960, Note_on_c, 2, 47, 54
4, 187200, Note_off_c, 2, 47, 0
4, 187200, Note_on_c, 2, 47, 54
4, 187560, Note_off_c, 2, 47, 0
4, 187680, Note_on_c, 2, 50, 54
4, 187920, Note_off_c, 2, 50, 0
4, 187920, Note_on_c, 2, 59, 53
4, 188160, Note_off_c, 2, 59, 0
4, 188640, Note_on_c, 2, 36, 53
4, 188880, Note_off_c, 2, 36, 0
4, 188880, Note_on_c, 2, 48, 53
4, 189120, Note_off_c, 2, 48, 0
4, 189120, Note_on_c, 2, 48, 52
4, 189480, Note_off_c, 2, 48, 0
4, 189600, Note_on_c, 2, 48, 52
4, 189840, Note_off_c, 2, 48, 0
4, 189840, Note_on_c, 2, 60, 52
4, 190080, Note_off_c, 2, 60, 0
4, 190560, Note_on_c, 2, 36, 51
4, 190800, Note_off_c, 2, 36, 0
4, 190800, Note_on_c, 2, 48, 51
4, 191040, Note_off_c, 2, 48, 0
4, 191040, Note_on_c, 2, 48, 51
4, 191400, Note_off_c, 2, 48, 0
4, 191520, Note_on_c, 2, 48, 50
4, 191760, Note_off_c, 2, 48, 0
4, 191760, Note_on_c, 2, 60, 50
4, 192000, Note_off_c, 2, 60, 0
4, 192480, Note_on_c, 2, 36, 50
4, 192720, Note_off_c, 2, 36, 0
4, 192720, Note_on_c, 2, 48, 49
4, 192960, Note_off_c, 2, 48, 0
4, 192960, Note_on_c, 2, 48, 49
4, 193320, Note_off_c, 2, 48, 0
4, 193440, Note_on_c, 2, 48, 49
4, 193680, Note_off_c, 2, 48, 0
4, 193680, Note_on_c, 2, 60, 49
4, 193920, Note_off_c, 2, 60, 0
4, 194400, Note_on_c, 2, 36, 48
4, 194640, Note_off_c, 2, 36, 0
4, 194640, Note_on_c, 2, 48, 48
4, 194880, Note_off_c, 2, 48, 0
4, 194880, Note_on_c, 2, 48, 48
4, 195240, Note_off_c, 2, 48, 0
4, 195360, Note_on_c, 2, 48, 47
4, 195600, Note_off_c, 2, 48, 0
4, 195600, Note_on_c, 2, 60, 47
4, 195840, Note_off_c, 2, 60, 0
4, 196320, Note_on_c, 2, 36, 46
4, 196560, Note_off_c, 2, 36, 0
4, 196560, Note_on_c, 2, 48, 46
4, 196800, Note_off_c, 2, 48, 0
4, 196800, Note_on_c, 2, 48, 46
4, 197160, Note_off_c, 2, 48, 0
4, 197280, Note_on_c, 2, 48, 46
4, 197520, Note_off_c, 2, 48, 0
4, 197520, Note_on_c, 2, 60, 45
4, 197760, Note_off_c, 2, 60, 0
4, 198240, Note_on_c, 2, 36, 45
4, 198480, Note_off_c, 2, 36, 0
4, 198480, Note_on_c, 2, 48, 45
4, 198720, Note_off_c, 2, 48, 0
4, 198720, Note_on_c, 2, 48, 44
4, 199080, Note_off_c, 2, 48, 0
4, 199200, Note_on_c, 2, 48, 44
4, 199440, Note_off_c, 2, 48, 0
4, 199440, Note_on_c, 2, 60, 44
4, 199680, Note_off_c, 2, 60, 0
4, 200160, Note_on_c, 2, 48, 43
4, 200400, Note_off_c, 2, 48, 0
4, 200400, Note_on_c, 2, 60, 43
4, 200640, Note_off_c, 2, 60, 0
4, 200640, Note_on_c, 2, 48, 43
4, 200880, Note_off_c, 2, 48, 0
4, 200880, Note_on_c, 2, 60, 43
4, 201120, Note_off_c, 2, 60, 0
4, 202080, Note_on_c, 2, 47, 42
4, 202320, Note_off_c, 2, 47, 0
4, 202320, Note_on_c, 2, 59, 41
4, 202560, Note_off_c, 2, 59, 0
4, 202560, Note_on_c, 2, 47, 41
4, 202800, Note_off_c, 2, 47, 0
4, 202800, Note_on_c, 2, 59, 41
4, 203040, Note_off_c, 2, 59, 0
4, 204000, Note_on_c, 2, 48, 40
4, 204240, Note_off_c, 2, 48, 0
4, 204240, Note_on_c, 2, 60, 40
4, 204480, Note_off_c, 2, 60, 0
4, 204480, Note_on_c, 2, 48, 40
4, 204720, Note_off_c, 2, 48, 0
4, 204720, Note_on_c, 2, 60, 39
4, 204960, Note_off_c, 2, 60, 0
4, 205920, Note_on_c, 2, 48, 38
4, 206160, Note_off_c, 2, 48, 0
4, 206160, Note_on_c, 2, 60, 38
4, 206400, Note_off_c, 2, 60, 0
4, 206400, Note_on_c, 2, 48, 38
4, 206640, Note_off_c, 2, 48, 0
4, 206640, Note_on_c, 2, 60, 38
4, 206880, Note_off_c, 2, 60, 0
4, 207840, Note_on_c, 2, 48, 45
4, 208080, Note_off_c, 2, 48, 0
4, 208080, Note_on_c, 2, 60, 48
4, 208320, Note_off_c, 2, 60, 0
4, 208320, Note_on_c, 2, 48, 50
4, 208560, Note_off_c, 2, 48, 0
4, 208560, Note_on_c, 2, 60, 53
4, 208800, Note_off_c, 2, 60, 0
4, 208800, Note_on_c, 2, 48, 55
4, 209040, Note_off_c, 2, 48, 0
4, 209040, Note_on_c, 2, 60, 58
4, 209280, Note_off_c, 2, 60, 0
4, 209280, Note_on_c, 2, 48, 62
4, 209520, Note_off_c, 2, 48, 0
4, 209520, Note_on_c, 2, 60, 66
4, 209760, Note_off_c, 2, 60, 0
4, 209760, Note_on_c, 2, 60, 70
4, 210000, Note_off_c, 2, 60, 0
4, 210000, Note_on_c, 2, 63, 74
4, 210240, Note_off_c, 2, 63, 0
4, 210240, Note_on_c, 2, 60, 78
4, 210480, Note_off_c, 2, 60, 0
4, 210480, Note_on_c, 2, 63, 82
4, 210720, Note_off_c, 2, 63, 0
4, 210720, Note_on_c, 2, 60, 86
4, 210960, Note_off_c, 2, 60, 0
4, 210960, Note_on_c, 2, 63, 90
4, 211200, Note_off_c, 2, 63, 0
4, 211200, Note_on_c, 2, 63, 95
4, 211200, Note_on_c, 2, 60, 95
4, 212640, Note_off_c, 2, 60, 0
4, 212640, Note_off_c, 2, 63, 0
4, 212640, Note_on_c, 2, 62, 85
4, 212640, Note_on_c, 2, 59, 85
4, 212880, Note_off_c, 2, 59, 0
4, 212880, Note_off_c, 2, 62, 0
4, 212880, Note_on_c, 2, 58, 85
4, 212880, Note_on_c, 2, 61, 85
4, 213120, Note_off_c, 2, 61, 0
4, 213120, Note_off_c, 2, 58, 0
4, 213120, Note_on_c, 2, 58, 84
4, 213120, Note_on_c, 2, 61, 84
4, 213480, Note_off_c, 2, 61, 0
4, 213480, Note_off_c, 2, 58, 0
4, 213600, Note_on_c, 2, 60, 83
4, 213600, Note_on_c, 2, 57, 83
4, 213840, Note_off_c, 2, 57, 0
4, 213840, Note_off_c, 2, 60, 0
4, 213840, Note_on_c, 2, 56, 82
4, 213840, Note_on_c, 2, 59, 82
4, 214080, Note_off_c, 2, 59, 0
4, 214080, Note_off_c, 2, 56, 0
4, 214080, Note_on_c, 2, 56, 81
4, 214080, Note_on_c, 2, 59, 81
4, 214440, Note_off_c, 2, 59, 0
4, 214440, Note_off_c, 2, 56, 0
4, 214560, Note_on_c, 2, 55, 80
4, 214560, Note_on_c, 2, 58, 80
4, 214800, Note_off_c, 2, 58, 0
4, 214800, Note_off_c, 2, 55, 0
4, 214800, Note_on_c, 2, 54, 79
4, 214800, Note_on_c, 2, 57, 79
4, 215040, Note_off_c, 2, 57, 0
4, 215040, Note_off_c, 2, 54, 0
4, 215040, Note_on_c, 2, 53, 79
4, 215040, Note_on_c, 2, 56, 79
4, 216480, Note_off_c, 2, 56, 0
4, 216480, Note_off_c, 2, 53, 0
4, 216480, Note_on_c, 2, 51, 75
4, 216480, Note_on_c, 2, 55, 75
4, 216960, Note_off_c, 2, 55, 0
4, 216960, Note_off_c, 2, 51, 0
4, 216960, Note_on_c, 2, 53, 73
4, 216960, Note_on_c, 2, 50, 73
4, 217440, Note_off_c, 2, 50, 0
4, 217440, Note_off_c, 2, 53, 0
4, 217440, Note_on_c, 2, 51, 72
4, 217440, Note_on_c, 2, 48, 72
4, 217920, Note_off_c, 2, 48, 0
4, 217920, Note_off_c, 2, 51, 0
4, 217920, Note_on_c, 2, 46, 71
4, 217920, Note_on_c, 2, 50, 71
4, 218400, Note_off_c, 2, 50, 0
4, 218400, Note_off_c, 2, 46, 0
4, 218400, Note_on_c, 2, 50, 68
4, 218400, Note_on_c, 2, 53, 68
4, 218400, Note_on_c, 2, 46, 68
4, 218880, Note_off_c, 2, 46, 0
4, 218880, Note_off_c, 2, 53, 0
4, 218880, Note_off_c, 2, 50, 0
4, 218880, Note_on_c, 2, 39, 54
4, 219120, Note_on_c, 2, 46, 55
4, 219354, Note_off_c, 2, 39, 0
4, 219360, Note_on_c, 2, 55, 56
4, 219516, Note_off_c, 2, 46, 0
4, 219600, Note_on_c, 2, 46, 56
4, 219756, Note_off_c, 2, 55, 0
4, 219840, Note_on_c, 2, 39, 57
4, 219996, Note_off_c, 2, 46, 0
4, 220080, Note_on_c, 2, 46, 58
4, 220314, Note_off_c, 2, 39, 0
4, 220320, Note_on_c, 2, 55, 59
4, 220476, Note_off_c, 2, 46, 0
4, 220560, Note_on_c, 2, 46, 59
4, 220716, Note_off_c, 2, 55, 0
4, 220800, Note_on_c, 2, 41, 60
4, 220956, Note_off_c, 2, 46, 0
4, 221040, Note_on_c, 2, 46, 61
4, 221274, Note_off_c, 2, 41, 0
4, 221280, Note_on_c, 2, 56, 62
4, 221436, Note_off_c, 2, 46, 0
4, 221520, Note_on_c, 2, 46, 63
4, 221676, Note_off_c, 2, 56, 0
4, 221760, Note_on_c, 2, 41, 63
4, 221916, Note_off_c, 2, 46, 0
4, 222000, Note_on_c, 2, 46, 64
4, 222234, Note_off_c, 2, 41, 0
4, 222240, Note_on_c, 2, 56, 65
4, 222396, Note_off_c, 2, 46, 0
4, 222480, Note_on_c, 2, 46, 66
4, 222636, Note_off_c, 2, 56, 0
4, 222720, Note_off_c, 2, 46, 0
4, 222720, Note_on_c, 2, 43, 66
4, 222960, Note_on_c, 2, 46, 67
4, 223194, Note_off_c, 2, 43, 0
4, 223200, Note_on_c, 2, 58, 66
4, 223356, Note_off_c, 2, 46, 0
4, 223440, Note_on_c, 2, 46, 65
4, 223596, Note_off_c, 2, 58, 0
4, 223680, Note_on_c, 2, 43, 64
4, 223836, Note_off_c, 2, 46, 0
4, 223920, Note_on_c, 2, 46, 63
4, 224154, Note_off_c, 2, 43, 0
4, 224160, Note_on_c, 2, 58, 62
4, 224316, Note_off_c, 2, 46, 0
4, 224400, Note_on_c, 2, 46, 61
4, 224556, Note_off_c, 2, 58, 0
4, 224640, Note_on_c, 2, 44, 60
4, 224796, Note_off_c, 2, 46, 0
4, 224880, Note_on_c, 2, 46, 59
4, 225114, Note_off_c, 2, 44, 0
4, 225120, Note_on_c, 2, 56, 57
4, 225276, Note_off_c, 2, 46, 0
4, 225360, Note_on_c, 2, 46, 56
4, 225516, Note_off_c, 2, 56, 0
4, 225600, Note_on_c, 2, 34, 55
4, 225756, Note_off_c, 2, 46, 0
4, 225840, Note_on_c, 2, 46, 54
4, 226080, Note_on_c, 2, 53, 53
4, 226130, Note_off_c, 2, 34, 0
4, 226236, Note_off_c, 2, 46, 0
4, 226320, Note_on_c, 2, 46, 52
4, 226476, Note_off_c, 2, 53, 0
4, 226560, Note_off_c, 2, 46, 0
4, 226560, Note_on_c, 2, 39, 50
4, 226800, Note_on_c, 2, 46, 51
4, 227034, Note_off_c, 2, 39, 0
4, 227040, Note_on_c, 2, 55, 52
4, 227235, Note_off_c, 2, 46, 0
4, 227280, Note_on_c, 2, 46, 53
4, 227475, Note_off_c, 2, 55, 0
4, 227520, Note_on_c, 2, 39, 54
4, 227715, Note_off_c, 2, 46, 0
4, 227760, Note_on_c, 2, 46, 55
4, 227994, Note_off_c, 2, 39, 0
4, 228000, Note_on_c, 2, 55, 56
4, 228195, Note_off_c, 2, 46, 0
4, 228240, Note_on_c, 2, 46, 57
4, 228435, Note_off_c, 2, 55, 0
4, 228480, Note_on_c, 2, 41, 57
4, 228675, Note_off_c, 2, 46, 0
4, 228720, Note_on_c, 2, 46, 58
4, 228954, Note_off_c, 2, 41, 0
4, 228960, Note_on_c, 2, 56, 59
4, 229155, Note_off_c, 2, 46, 0
4, 229200, Note_on_c, 2, 46, 60
4, 229395, Note_off_c, 2, 56, 0
4, 229440, Note_on_c, 2, 41, 61
4, 229635, Note_off_c, 2, 46, 0
4, 229680, Note_on_c, 2, 46, 62
4, 229914, Note_off_c, 2, 41, 0
4, 229920, Note_on_c, 2, 56, 63
4, 230115, Note_off_c, 2, 46, 0
4, 230160, Note_on_c, 2, 46, 64
4, 230355, Note_off_c, 2, 56, 0
4, 230400, Note_off_c, 2, 46, 0
4, 230400, Note_on_c, 2, 43, 65
4, 230640, Note_on_c, 2, 51, 65
4, 230874, Note_off_c, 2, 43, 0
4, 230880, Note_on_c, 2, 58, 64
4, 231036, Note_off_c, 2, 51, 0
4, 231120, Note_on_c, 2, 51, 63
4, 231276, Note_off_c, 2, 58, 0
4, 231360, Note_on_c, 2, 43, 62
4, 231516, Note_off_c, 2, 51, 0
4, 231600, Note_on_c, 2, 51, 62
4, 231834, Note_off_c, 2, 43, 0
4, 231840, Note_on_c, 2, 58, 61
4, 231996, Note_off_c, 2, 51, 0
4, 232080, Note_on_c, 2, 51, 60
4, 232236, Note_off_c, 2, 58, 0
4, 232320, Note_on_c, 2, 44, 59
4, 232476, Note_off_c, 2, 51, 0
4, 232560, Note_on_c, 2, 51, 58
4, 232794, Note_off_c, 2, 44, 0
4, 232800, Note_on_c, 2, 60, 58
4, 232956, Note_off_c, 2, 51, 0
4, 233040, Note_on_c, 2, 51, 57
4, 233196, Note_off_c, 2, 60, 0
4, 233280, Note_on_c, 2, 45, 56
4, 233436, Note_off_c, 2, 51, 0
4, 233520, Note_on_c, 2, 53, 55
4, 233754, Note_off_c, 2, 45, 0
4, 233760, Note_on_c, 2, 60, 54
4, 233916, Note_off_c, 2, 53, 0
4, 234000, Note_on_c, 2, 53, 53
4, 234156, Note_off_c, 2, 60, 0
4, 234240, Note_off_c, 2, 53, 0
4, 234240, Note_on_c, 2, 46, 53
4, 234240, Note_on_c, 2, 58, 53
4, 234600, Note_off_c, 2, 58, 0
4, 234600, Note_off_c, 2, 46, 0
4, 234720, Note_on_c, 2, 63, 57
4, 234960, Note_off_c, 2, 63, 0
4, 234960, Note_on_c, 2, 62, 58
4, 235200, Note_off_c, 2, 62, 0
4, 235200, Note_on_c, 2, 60, 59
4, 235440, Note_off_c, 2, 60, 0
4, 235440, Note_on_c, 2, 58, 60
4, 235680, Note_off_c, 2, 58, 0
4, 235680, Note_on_c, 2, 57, 61
4, 235920, Note_off_c, 2, 57, 0
4, 235920, Note_on_c, 2, 56, 62
4, 236160, Note_off_c, 2, 56, 0
4, 236160, Note_on_c, 2, 55, 63
4, 236400, Note_off_c, 2, 55, 0
4, 236400, Note_on_c, 2, 53, 64
4, 236640, Note_off_c, 2, 53, 0
4, 236640, Note_on_c, 2, 51, 65
4, 236880, Note_off_c, 2, 51, 0
4, 236880, Note_on_c, 2, 50, 66
4, 237120, Note_off_c, 2, 50, 0
4, 237120, Note_on_c, 2, 51, 67
4, 237360, Note_off_c, 2, 51, 0
4, 237360, Note_on_c, 2, 53, 68
4, 237600, Note_off_c, 2, 53, 0
4, 237600, Note_on_c, 2, 55, 69
4, 237840, Note_off_c, 2, 55, 0
4, 237840, Note_on_c, 2, 56, 70
4, 238080, Note_off_c, 2, 56, 0
4, 238080, Note_on_c, 2, 58, 71
4, 238560, Note_off_c, 2, 58, 0
4, 238560, Note_on_c, 2, 65, 73
4, 238800, Note_off_c, 2, 65, 0
4, 238800, Note_on_c, 2, 63, 74
4, 239040, Note_off_c, 2, 63, 0
4, 239040, Note_on_c, 2, 62, 75
4, 239280, Note_off_c, 2, 62, 0
4, 239280, Note_on_c, 2, 60, 77
4, 239435, Note_off_c, 2, 60, 0
4, 239520, Note_on_c, 2, 59, 78
4, 239675, Note_off_c, 2, 59, 0
4, 239760, Note_on_c, 2, 57, 79
4, 239915, Note_off_c, 2, 57, 0
4, 240000, Note_on_c, 2, 55, 80
4, 240155, Note_off_c, 2, 55, 0
4, 240240, Note_on_c, 2, 53, 82
4, 240395, Note_off_c, 2, 53, 0
4, 240480, Note_on_c, 2, 51, 84
4, 240635, Note_off_c, 2, 51, 0
4, 240720, Note_on_c, 2, 50, 87
4, 240875, Note_off_c, 2, 50, 0
4, 240960, Note_on_c, 2, 48, 89
4, 241115, Note_off_c, 2, 48, 0
4, 241200, Note_on_c, 2, 46, 91
4, 241355, Note_off_c, 2, 46, 0
4, 241440, Note_on_c, 2, 45, 94
4, 241440, Note_on_c, 2, 48, 94
4, 241595, Note_off_c, 2, 48, 0
4, 241595, Note_off_c, 2, 45, 0
4, 241680, Note_on_c, 2, 48, 96
4, 241680, Note_on_c, 2, 45, 96
4, 241835, Note_off_c, 2, 45, 0
4, 241835, Note_off_c, 2, 48, 0
4, 241920, Note_on_c, 2, 44, 98
4, 241920, Note_on_c, 2, 46, 98
4, 242280, Note_off_c, 2, 46, 0
4, 242280, Note_off_c, 2, 44, 0
4, 242880, Note_on_c, 2, 46, 102
4, 242880, Note_on_c, 2, 43, 102
4, 243240, Note_off_c, 2, 43, 0
4, 243240, Note_off_c, 2, 46, 0
4, 243840, Note_on_c, 2, 47, 95
4, 243840, Note_on_c, 2, 53, 95
4, 245280, Note_off_c, 2, 47, 0
4, 245280, Note_on_c, 2, 46, 83
4, 245665, Note_off_c, 2, 46, 0
4, 245760, Note_on_c, 2, 44, 80
4, 247680, Note_off_c, 2, 44, 0
4, 247680, Note_off_c, 2, 53, 0
4, 247680, Note_on_c, 2, 47, 86
4, 247680, Note_on_c, 2, 53, 86
4, 249120, Note_off_c, 2, 47, 0
4, 249120, Note_on_c, 2, 46, 77
4, 249505, Note_off_c, 2, 46, 0
4, 249600, Note_on_c, 2, 45, 74
4, 251520, Note_off_c, 2, 45, 0
4, 251520, Note_off_c, 2, 53, 0
4, 251520, Note_on_c, 2, 53, 67
4, 251520, Note_on_c, 2, 46, 67
4, 251880, Note_off_c, 2, 46, 0
4, 251880, Note_off_c, 2, 53, 0
4, 253440, Note_on_c, 2, 46, 65
4, 253440, Note_on_c, 2, 55, 65
4, 253800, Note_off_c, 2, 55, 0
4, 253800, Note_off_c, 2, 46, 0
4, 255360, Note_on_c, 2, 46, 63
4, 255360, Note_on_c, 2, 56, 63
4, 255720, Note_off_c, 2, 56, 0
4, 255720, Note_off_c, 2, 46, 0
4, 256320, Note_on_c, 2, 55, 62
4, 256320, Note_on_c, 2, 46, 62
4, 256680, Note_off_c, 2, 46, 0
4, 256680, Note_off_c, 2, 55, 0
4, 257280, Note_on_c, 2, 53, 61
4, 257280, Note_on_c, 2, 46, 61
4, 257640, Note_off_c, 2, 46, 0
4, 257640, Note_off_c, 2, 53, 0
4, 258240, Note_on_c, 2, 55, 60
4, 258240, Note_on_c, 2, 46, 60
4, 258600, Note_off_c, 2, 46, 0
4, 258600, Note_off_c, 2, 55, 0
4, 259200, Note_on_c, 2, 58, 58
4, 259200, Note_on_c, 2, 65, 58
4, 259560, Note_off_c, 2, 65, 0
4, 259560, Note_off_c, 2, 58, 0
4, 261120, Note_on_c, 2, 67, 56
4, 261120, Note_on_c, 2, 58, 56
4, 261480, Note_off_c, 2, 58, 0
4, 261480, Note_off_c, 2, 67, 0
4, 263040, Note_on_c, 2, 68, 54
4, 263040, Note_on_c, 2, 58, 54
4, 263400, Note_off_c, 2, 58, 0
4, 263400, Note_off_c, 2, 68, 0
4, 264000, Note_on_c, 2, 67, 53
4, 264000, Note_on_c, 2, 58, 53
4, 264360, Note_off_c, 2, 58, 0
4, 264360, Note_off_c, 2, 67, 0
4, 264960, Note_on_c, 2, 56, 52
4, 264960, Note_on_c, 2, 46, 52
4, 265320, Note_off_c, 2, 46, 0
4, 265320, Note_off_c, 2, 56, 0
4, 265920, Note_on_c, 2, 58, 54
4, 266400, Note_off_c, 2, 58, 0
4, 266400, Note_on_c, 2, 60, 56
4, 266640, Note_off_c, 2, 60, 0
4, 266640, Note_on_c, 2, 62, 57
4, 266880, Note_off_c, 2, 62, 0
4, 266880, Note_on_c, 2, 63, 58
4, 267120, Note_off_c, 2, 63, 0
4, 267120, Note_on_c, 2, 65, 60
4, 267360, Note_off_c, 2, 65, 0
4, 267360, Note_on_c, 2, 67, 61
4, 267600, Note_off_c, 2, 67, 0
4, 267600, Note_on_c, 2, 68, 62
4, 267840, Note_off_c, 2, 68, 0
4, 267840, Note_on_c, 2, 70, 63
4, 268320, Note_off_c, 2, 70, 0
4, 268320, Note_on_c, 2, 72, 65
4, 268560, Note_off_c, 2, 72, 0
4, 268560, Note_on_c, 2, 74, 67
4, 268800, Note_off_c, 2, 74, 0
4, 268800, Note_on_c, 2, 75, 68
4, 269040, Note_off_c, 2, 75, 0
4, 269040, Note_on_c, 2, 77, 69
4, 269280, Note_off_c, 2, 77, 0
4, 269280, Note_on_c, 2, 79, 70
4, 269520, Note_off_c, 2, 79, 0
4, 269520, Note_on_c, 2, 80, 71
4, 269760, Note_off_c, 2, 80, 0
4, 269760, Note_on_c, 2, 82, 72
4, 270145, Note_off_c, 2, 82, 0
4, 270240, Note_on_c, 2, 80, 75
4, 270720, Note_off_c, 2, 80, 0
4, 270720, Note_on_c, 2, 79, 75
4, 271105, Note_off_c, 2, 79, 0
4, 271200, Note_on_c, 2, 78, 75
4, 271585, Note_off_c, 2, 78, 0
4, 271680, Note_on_c, 2, 77, 74
4, 272065, Note_off_c, 2, 77, 0
4, 272160, Note_on_c, 2, 70, 74
4, 272545, Note_off_c, 2, 70, 0
4, 272640, Note_on_c, 2, 63, 74
4, 273120, Note_on_c, 2, 66, 72
4, 273120, Note_on_c, 2, 69, 72
4, 274080, Note_off_c, 2, 69, 0
4, 274080, Note_off_c, 2, 66, 0
4, 274080, Note_on_c, 2, 67, 68
4, 274080, Note_on_c, 2, 70, 68
4, 274560, Note_off_c, 2, 70, 0
4, 274560, Note_off_c, 2, 67, 0
4, 274560, Note_off_c, 2, 63, 0
4, 274560, Note_on_c, 2, 63, 72
4, 275040, Note_on_c, 2, 71, 72
4, 275040, Note_on_c, 2, 74, 72
4, 276000, Note_off_c, 2, 74, 0
4, 276000, Note_on_c, 2, 70, 67
4, 276480, Note_off_c, 2, 70, 0
4, 276480, Note_off_c, 2, 71, 0
4, 276480, Note_off_c, 2, 63, 0
4, 276480, Note_on_c, 2, 63, 71
4, 276960, Note_on_c, 2, 67, 71
4, 276960, Note_on_c, 2, 70, 71
4, 277440, Note_off_c, 2, 70, 0
4, 277440, Note_off_c, 2, 67, 0
4, 277440, Note_on_c, 2, 68, 70
4, 277440, Note_on_c, 2, 72, 70
4, 277920, Note_off_c, 2, 72, 0
4, 277920, Note_off_c, 2, 68, 0
4, 277920, Note_on_c, 2, 67, 70
4, 277920, Note_on_c, 2, 70, 70
4, 278400, Note_off_c, 2, 70, 0
4, 278400, Note_off_c, 2, 67, 0
4, 278400, Note_off_c, 2, 63, 0
4, 278400, Note_on_c, 2, 58, 70
4, 278400, Note_on_c, 2, 67, 70
4, 278880, Note_off_c, 2, 67, 0
4, 278880, Note_on_c, 2, 68, 69
4, 278880, Note_on_c, 2, 65, 69
4, 279360, Note_off_c, 2, 65, 0
4, 279360, Note_off_c, 2, 68, 0
4, 279360, Note_on_c, 2, 63, 69
4, 279360, Note_on_c, 2, 67, 69
4, 279840, Note_off_c, 2, 67, 0
4, 279840, Note_off_c, 2, 63, 0
4, 279840, Note_on_c, 2, 65, 69
4, 279840, Note_on_c, 2, 62, 69
4, 280320, Note_off_c, 2, 62, 0
4, 280320, Note_off_c, 2, 65, 0
4, 280320, Note_off_c, 2, 58, 0
4, 280320, Note_on_c, 2, 51, 68
4, 280800, Note_on_c, 2, 57, 65
4, 280800, Note_on_c, 2, 54, 65
4, 281760, Note_off_c, 2, 54, 0
4, 281760, Note_off_c, 2, 57, 0
4, 281760, Note_on_c, 2, 55, 60
4, 281760, Note_on_c, 2, 58, 60
4, 282240, Note_off_c, 2, 58, 0
4, 282240, Note_off_c, 2, 55, 0
4, 282240, Note_off_c, 2, 51, 0
4, 282240, Note_on_c, 2, 51, 67
4, 282720, Note_on_c, 2, 62, 68
4, 282720, Note_on_c, 2, 59, 68
4, 283680, Note_off_c, 2, 62, 0
4, 283680, Note_on_c, 2, 58, 58
4, 284160, Note_off_c, 2, 58, 0
4, 284160, Note_off_c, 2, 59, 0
4, 284160, Note_off_c, 2, 51, 0
4, 284160, Note_on_c, 2, 51, 66
4, 284160, Note_on_c, 2, 55, 66
4, 284160, Note_on_c, 2, 58, 66
4, 285120, Note_off_c, 2, 58, 0
4, 285120, Note_off_c, 2, 55, 0
4, 285120, Note_off_c, 2, 51, 0
4, 285120, Note_on_c, 2, 51, 65
4, 285120, Note_on_c, 2, 56, 65
4, 285120, Note_on_c, 2, 44, 65
4, 285505, Note_off_c, 2, 44, 0
4, 285505, Note_off_c, 2, 56, 0
4, 285505, Note_off_c, 2, 51, 0
4, 285600, Note_on_c, 2, 51, 65
4, 285600, Note_on_c, 2, 39, 65
4, 285985, Note_off_c, 2, 39, 0
4, 285985, Note_off_c, 2, 51, 0
4, 286080, Note_on_c, 2, 34, 64
4, 286465, Note_off_c, 2, 34, 0
4, 286560, Note_on_c, 2, 46, 64
4, 286945, Note_off_c, 2, 46, 0
4, 287040, Note_on_c, 2, 34, 64
4, 287425, Note_off_c, 2, 34, 0
4, 287520, Note_on_c, 2, 46, 63
4, 287905, Note_off_c, 2, 46, 0
4, 288000, Note_on_c, 2, 39, 63
4, 288720, Note_off_c, 2, 39, 0
4, 288720, Note_on_c, 2, 47, 62
4, 288960, Note_off_c, 2, 47, 0
4, 288960, Note_on_c, 2, 46, 62
4, 289440, Note_off_c, 2, 46, 0
4, 289440, Note_on_c, 2, 39, 62
4, 289920, Note_off_c, 2, 39, 0
4, 289920, Note_on_c, 2, 34, 62
4, 290400, Note_off_c, 2, 34, 0
4, 290400, Note_on_c, 2, 56, 61
4, 290640, Note_off_c, 2, 56, 0
4, 290640, Note_on_c, 2, 55, 61
4, 290880, Note_off_c, 2, 55, 0
4, 290880, Note_on_c, 2, 53, 61
4, 291120, Note_off_c, 2, 53, 0
4, 291120, Note_on_c, 2, 51, 61
4, 291360, Note_off_c, 2, 51, 0
4, 291360, Note_on_c, 2, 50, 61
4, 291360, Note_on_c, 2, 46, 61
4, 291600, Note_off_c, 2, 50, 0
4, 291600, Note_on_c, 2, 58, 60
4, 291840, Note_off_c, 2, 58, 0
4, 291840, Note_off_c, 2, 46, 0
4, 291840, Note_on_c, 2, 51, 60
4, 292560, Note_off_c, 2, 51, 0
4, 292560, Note_on_c, 2, 59, 60
4, 292800, Note_off_c, 2, 59, 0
4, 292800, Note_on_c, 2, 58, 60
4, 293280, Note_off_c, 2, 58, 0
4, 293280, Note_on_c, 2, 51, 59
4, 293760, Note_off_c, 2, 51, 0
4, 293760, Note_on_c, 2, 46, 59
4, 294240, Note_off_c, 2, 46, 0
4, 294240, Note_on_c, 2, 68, 59
4, 294480, Note_off_c, 2, 68, 0
4, 294480, Note_on_c, 2, 67, 58
4, 294720, Note_off_c, 2, 67, 0
4, 294720, Note_on_c, 2, 65, 58
4, 294960, Note_off_c, 2, 65, 0
4, 294960, Note_on_c, 2, 63, 58
4, 295200, Note_off_c, 2, 63, 0
4, 295200, Note_on_c, 2, 62, 58
4, 295200, Note_on_c, 2, 58, 58
4, 295440, Note_off_c, 2, 62, 0
4, 295440, Note_on_c, 2, 65, 58
4, 295680, Note_off_c, 2, 65, 0
4, 295680, Note_off_c, 2, 58, 0
4, 295680, Note_on_c, 2, 67, 61
4, 295680, Note_on_c, 2, 63, 61
4, 296400, Note_off_c, 2, 63, 0
4, 296400, Note_off_c, 2, 67, 0
4, 296400, Note_on_c, 2, 62, 60
4, 296400, Note_on_c, 2, 65, 60
4, 296640, Note_off_c, 2, 65, 0
4, 296640, Note_off_c, 2, 62, 0
4, 296640, Note_on_c, 2, 63, 60
4, 297360, Note_off_c, 2, 63, 0
4, 297360, Note_on_c, 2, 60, 58
4, 297600, Note_off_c, 2, 60, 0
4, 297600, Note_on_c, 2, 58, 58
4, 298320, Note_off_c, 2, 58, 0
4, 298320, Note_on_c, 2, 56, 57
4, 298560, Note_off_c, 2, 56, 0
4, 298560, Note_on_c, 2, 55, 56
4, 299280, Note_off_c, 2, 55, 0
4, 299280, Note_on_c, 2, 53, 55
4, 299520, Note_off_c, 2, 53, 0
4, 299520, Note_on_c, 2, 51, 55
4, 300240, Note_off_c, 2, 51, 0
4, 300240, Note_on_c, 2, 48, 54
4, 300480, Note_off_c, 2, 48, 0
4, 300480, Note_on_c, 2, 46, 53
4, 301200, Note_off_c, 2, 46, 0
4, 301200, Note_on_c, 2, 44, 52
4, 301440, Note_off_c, 2, 44, 0
4, 301440, Note_on_c, 2, 43, 51
4, 302160, Note_off_c, 2, 43, 0
4, 302160, Note_on_c, 2, 41, 50
4, 302400, Note_off_c, 2, 41, 0
4, 302400, Note_on_c, 2, 39, 50
4, 303120, Note_off_c, 2, 39, 0
4, 303120, Note_on_c, 2, 73, 49
4, 303120, Note_on_c, 2, 70, 49
4, 303360, Note_off_c, 2, 70, 0
4, 303360, Note_off_c, 2, 73, 0
4, 303360, Note_on_c, 2, 73, 48
4, 303360, Note_on_c, 2, 70, 48
4, 305280, Note_off_c, 2, 70, 0
4, 305280, Note_off_c, 2, 73, 0
4, 305280, Note_on_c, 2, 68, 45
4, 305280, Note_on_c, 2, 72, 45
4, 307200, Note_off_c, 2, 72, 0
4, 307200, Note_off_c, 2, 68, 0
4, 307200, Note_on_c, 2, 67, 42
4, 307200, Note_on_c, 2, 70, 42
4, 309120, Note_off_c, 2, 70, 0
4, 309120, Note_off_c, 2, 67, 0
4, 309120, Note_on_c, 2, 65, 38
4, 309120, Note_on_c, 2, 68, 38
4, 311040, Note_off_c, 2, 68, 0
4, 311040, Note_off_c, 2, 65, 0
4, 311040, Note_on_c, 2, 67, 85
4, 311040, Note_on_c, 2, 64, 85
4, 312480, Note_off_c, 2, 64, 0
4, 312480, Note_off_c, 2, 67, 0
4, 312480, Note_on_c, 2, 69, 77
4, 312480, Note_on_c, 2, 63, 77
4, 312720, Note_off_c, 2, 63, 0
4, 312720, Note_off_c, 2, 69, 0
4, 312720, Note_on_c, 2, 65, 77
4, 312720, Note_on_c, 2, 61, 77
4, 312960, Note_off_c, 2, 61, 0
4, 312960, Note_off_c, 2, 65, 0
4, 312960, Note_on_c, 2, 65, 76
4, 312960, Note_on_c, 2, 61, 76
4, 313320, Note_off_c, 2, 61, 0
4, 313320, Note_off_c, 2, 65, 0
4, 313440, Note_on_c, 2, 67, 76
4, 313440, Note_on_c, 2, 61, 76
4, 313680, Note_off_c, 2, 61, 0
4, 313680, Note_off_c, 2, 67, 0
4, 313680, Note_on_c, 2, 60, 75
4, 313680, Note_on_c, 2, 63, 75
4, 313920, Note_off_c, 2, 63, 0
4, 313920, Note_off_c, 2, 60, 0
4, 313920, Note_on_c, 2, 60, 75
4, 313920, Note_on_c, 2, 63, 75
4, 314280, Note_off_c, 2, 63, 0
4, 314280, Note_off_c, 2, 60, 0
4, 314400, Note_on_c, 2, 60, 74
4, 314400, Note_on_c, 2, 65, 74
4, 314640, Note_off_c, 2, 65, 0
4, 314640, Note_off_c, 2, 60, 0
4, 314640, Note_on_c, 2, 61, 74
4, 314640, Note_on_c, 2, 58, 74
4, 314880, Note_off_c, 2, 58, 0
4, 314880, Note_off_c, 2, 61, 0
4, 314880, Note_on_c, 2, 61, 73
4, 314880, Note_on_c, 2, 58, 73
4, 315240, Note_off_c, 2, 58, 0
4, 315240, Note_off_c, 2, 61, 0
4, 315360, Note_on_c, 2, 58, 72
4, 315360, Note_on_c, 2, 64, 72
4, 315600, Note_off_c, 2, 64, 0
4, 315600, Note_off_c, 2, 58, 0
4, 315600, Note_on_c, 2, 56, 72
4, 315600, Note_on_c, 2, 60, 72
4, 315840, Note_off_c, 2, 60, 0
4, 315840, Note_off_c, 2, 56, 0
4, 315840, Note_on_c, 2, 56, 72
4, 315840, Note_on_c, 2, 60, 72
4, 316200, Note_off_c, 2, 60, 0
4, 316200, Note_off_c, 2, 56, 0
4, 316320, Note_on_c, 2, 59, 71
4, 316320, Note_on_c, 2, 56, 71
4, 316800, Note_off_c, 2, 56, 0
4, 316800, Note_off_c, 2, 59, 0
4, 316800, Note_on_c, 2, 55, 79
4, 316800, Note_on_c, 2, 58, 79
4, 318240, Note_off_c, 2, 58, 0
4, 318240, Note_off_c, 2, 55, 0
4, 318240, Note_on_c, 2, 56, 63
4, 318240, Note_on_c, 2, 53, 63
4, 318720, Note_off_c, 2, 53, 0
4, 318720, Note_off_c, 2, 56, 0
4, 318720, Note_on_c, 2, 52, 63
4, 318720, Note_on_c, 2, 55, 63
4, 319200, Note_off_c, 2, 55, 0
4, 319200, Note_off_c, 2, 52, 0
4, 319200, Note_on_c, 2, 53, 63
4, 319200, Note_on_c, 2, 50, 63
4, 319680, Note_off_c, 2, 50, 0
4, 319680, Note_off_c, 2, 53, 0
4, 319680, Note_on_c, 2, 48, 63
4, 319680, Note_on_c, 2, 52, 63
4, 320065, Note_off_c, 2, 52, 0
4, 320065, Note_off_c, 2, 48, 0
4, 320160, Note_on_c, 2, 48, 63
4, 320160, Note_on_c, 2, 55, 63
4, 320160, Note_on_c, 2, 52, 63
4, 320160, Note_on_c, 2, 58, 63
4, 320545, Note_off_c, 2, 58, 0
4, 320545, Note_off_c, 2, 52, 0
4, 320545, Note_off_c, 2, 55, 0
4, 320545, Note_off_c, 2, 48, 0
4, 320640, Note_on_c, 2, 41, 52
4, 320880, Note_on_c, 2, 48, 53
4, 321120, Note_off_c, 2, 41, 0
4, 321120, Note_on_c, 2, 56, 54
4, 321315, Note_off_c, 2, 48, 0
4, 321360, Note_on_c, 2, 48, 54
4, 321555, Note_off_c, 2, 56, 0
4, 321600, Note_on_c, 2, 41, 55
4, 321795, Note_off_c, 2, 48, 0
4, 321840, Note_on_c, 2, 48, 56
4, 322035, Note_off_c, 2, 41, 0
4, 322080, Note_on_c, 2, 56, 57
4, 322275, Note_off_c, 2, 48, 0
4, 322320, Note_on_c, 2, 48, 58
4, 322515, Note_off_c, 2, 56, 0
4, 322560, Note_on_c, 2, 43, 59
4, 322755, Note_off_c, 2, 48, 0
4, 322800, Note_on_c, 2, 48, 59
4, 322995, Note_off_c, 2, 43, 0
4, 323040, Note_on_c, 2, 58, 60
4, 323235, Note_off_c, 2, 48, 0
4, 323280, Note_on_c, 2, 48, 61
4, 323475, Note_off_c, 2, 58, 0
4, 323520, Note_on_c, 2, 43, 62
4, 323715, Note_off_c, 2, 48, 0
4, 323760, Note_on_c, 2, 48, 63
4, 323955, Note_off_c, 2, 43, 0
4, 324000, Note_on_c, 2, 58, 64
4, 324195, Note_off_c, 2, 48, 0
4, 324240, Note_on_c, 2, 48, 64
4, 324435, Note_off_c, 2, 58, 0
4, 324480, Note_on_c, 2, 44, 61
4, 324675, Note_off_c, 2, 48, 0
4, 324720, Note_on_c, 2, 48, 61
4, 324915, Note_off_c, 2, 44, 0
4, 324960, Note_on_c, 2, 60, 60
4, 325155, Note_off_c, 2, 48, 0
4, 325200, Note_on_c, 2, 48, 60
4, 325395, Note_off_c, 2, 60, 0
4, 325440, Note_on_c, 2, 44, 59
4, 325635, Note_off_c, 2, 48, 0
4, 325680, Note_on_c, 2, 48, 59
4, 325875, Note_off_c, 2, 44, 0
4, 325920, Note_on_c, 2, 60, 58
4, 326115, Note_off_c, 2, 48, 0
4, 326160, Note_on_c, 2, 48, 57
4, 326355, Note_off_c, 2, 60, 0
4, 326400, Note_on_c, 2, 46, 57
4, 326595, Note_off_c, 2, 48, 0
4, 326640, Note_on_c, 2, 48, 56
4, 326835, Note_off_c, 2, 46, 0
4, 326880, Note_on_c, 2, 58, 56
4, 327075, Note_off_c, 2, 48, 0
4, 327120, Note_on_c, 2, 48, 55
4, 327315, Note_off_c, 2, 58, 0
4, 327360, Note_on_c, 2, 36, 55
4, 327555, Note_off_c, 2, 48, 0
4, 327600, Note_on_c, 2, 48, 54
4, 327795, Note_off_c, 2, 36, 0
4, 327840, Note_on_c, 2, 55, 54
4, 328035, Note_off_c, 2, 48, 0
4, 328080, Note_on_c, 2, 48, 53
4, 328275, Note_off_c, 2, 55, 0
4, 328320, Note_on_c, 2, 41, 52
4, 328515, Note_off_c, 2, 48, 0
4, 328560, Note_on_c, 2, 48, 50
4, 328755, Note_off_c, 2, 41, 0
4, 328800, Note_on_c, 2, 56, 51
4, 328995, Note_off_c, 2, 48, 0
4, 329040, Note_on_c, 2, 48, 51
4, 329235, Note_off_c, 2, 56, 0
4, 329280, Note_on_c, 2, 41, 52
4, 329475, Note_off_c, 2, 48, 0
4, 329520, Note_on_c, 2, 48, 53
4, 329715, Note_off_c, 2, 41, 0
4, 329760, Note_on_c, 2, 56, 54
4, 329955, Note_off_c, 2, 48, 0
4, 330000, Note_on_c, 2, 48, 55
4, 330195, Note_off_c, 2, 56, 0
4, 330240, Note_on_c, 2, 43, 56
4, 330435, Note_off_c, 2, 48, 0
4, 330480, Note_on_c, 2, 48, 56
4, 330675, Note_off_c, 2, 43, 0
4, 330720, Note_on_c, 2, 58, 57
4, 330915, Note_off_c, 2, 48, 0
4, 330960, Note_on_c, 2, 48, 58
4, 331155, Note_off_c, 2, 58, 0
4, 331200, Note_on_c, 2, 43, 59
4, 331395, Note_off_c, 2, 48, 0
4, 331440, Note_on_c, 2, 48, 60
4, 331635, Note_off_c, 2, 43, 0
4, 331680, Note_on_c, 2, 58, 61
4, 331875, Note_off_c, 2, 48, 0
4, 331920, Note_on_c, 2, 48, 62
4, 332115, Note_off_c, 2, 58, 0
4, 332160, Note_on_c, 2, 44, 62
4, 332355, Note_off_c, 2, 48, 0
4, 332400, Note_on_c, 2, 48, 63
4, 332595, Note_off_c, 2, 44, 0
4, 332640, Note_on_c, 2, 60, 62
4, 332835, Note_off_c, 2, 48, 0
4, 332880, Note_on_c, 2, 48, 62
4, 333075, Note_off_c, 2, 60, 0
4, 333120, Note_on_c, 2, 41, 61
4, 333315, Note_off_c, 2, 48, 0
4, 333360, Note_on_c, 2, 48, 60
4, 333555, Note_off_c, 2, 41, 0
4, 333600, Note_on_c, 2, 56, 59
4, 333795, Note_off_c, 2, 48, 0
4, 333840, Note_on_c, 2, 48, 59
4, 334035, Note_off_c, 2, 56, 0
4, 334080, Note_on_c, 2, 38, 58
4, 334275, Note_off_c, 2, 48, 0
4, 334320, Note_on_c, 2, 46, 57
4, 334515, Note_off_c, 2, 38, 0
4, 334560, Note_on_c, 2, 53, 56
4, 334755, Note_off_c, 2, 46, 0
4, 334800, Note_on_c, 2, 46, 56
4, 334995, Note_off_c, 2, 53, 0
4, 335040, Note_on_c, 2, 38, 55
4, 335235, Note_off_c, 2, 46, 0
4, 335280, Note_on_c, 2, 46, 54
4, 335475, Note_off_c, 2, 38, 0
4, 335520, Note_on_c, 2, 53, 53
4, 335715, Note_off_c, 2, 46, 0
4, 335760, Note_on_c, 2, 46, 53
4, 335955, Note_off_c, 2, 53, 0
4, 336000, Note_on_c, 2, 39, 54
4, 336195, Note_off_c, 2, 46, 0
4, 336240, Note_on_c, 2, 46, 54
4, 336435, Note_off_c, 2, 39, 0
4, 336480, Note_on_c, 2, 54, 55
4, 336675, Note_off_c, 2, 46, 0
4, 336720, Note_on_c, 2, 46, 56
4, 336915, Note_off_c, 2, 54, 0
4, 336960, Note_on_c, 2, 39, 56
4, 337155, Note_off_c, 2, 46, 0
4, 337200, Note_on_c, 2, 46, 57
4, 337395, Note_off_c, 2, 39, 0
4, 337440, Note_on_c, 2, 54, 57
4, 337635, Note_off_c, 2, 46, 0
4, 337680, Note_on_c, 2, 46, 58
4, 337875, Note_off_c, 2, 54, 0
4, 337920, Note_on_c, 2, 41, 59
4, 338115, Note_off_c, 2, 46, 0
4, 338160, Note_on_c, 2, 46, 59
4, 338355, Note_off_c, 2, 41, 0
4, 338400, Note_on_c, 2, 56, 60
4, 338595, Note_off_c, 2, 46, 0
4, 338640, Note_on_c, 2, 46, 60
4, 338835, Note_off_c, 2, 56, 0
4, 338880, Note_on_c, 2, 41, 61
4, 339075, Note_off_c, 2, 46, 0
4, 339120, Note_on_c, 2, 46, 61
4, 339315, Note_off_c, 2, 41, 0
4, 339360, Note_on_c, 2, 56, 62
4, 339555, Note_off_c, 2, 46, 0
4, 339600, Note_on_c, 2, 46, 63
4, 339795, Note_off_c, 2, 56, 0
4, 339840, Note_on_c, 2, 42, 65
4, 340035, Note_off_c, 2, 46, 0
4, 340080, Note_on_c, 2, 46, 64
4, 340275, Note_off_c, 2, 42, 0
4, 340320, Note_on_c, 2, 58, 64
4, 340515, Note_off_c, 2, 46, 0
4, 340560, Note_on_c, 2, 46, 63
4, 340755, Note_off_c, 2, 58, 0
4, 340800, Note_on_c, 2, 42, 62
4, 340995, Note_off_c, 2, 46, 0
4, 341040, Note_on_c, 2, 46, 62
4, 341235, Note_off_c, 2, 42, 0
4, 341280, Note_on_c, 2, 58, 61
4, 341475, Note_off_c, 2, 46, 0
4, 341520, Note_on_c, 2, 46, 60
4, 341715, Note_off_c, 2, 58, 0
4, 341760, Note_on_c, 2, 44, 60
4, 341955, Note_off_c, 2, 46, 0
4, 342000, Note_on_c, 2, 46, 59
4, 342195, Note_off_c, 2, 44, 0
4, 342240, Note_on_c, 2, 56, 58
4, 342435, Note_off_c, 2, 46, 0
4, 342480, Note_on_c, 2, 46, 58
4, 342675, Note_off_c, 2, 56, 0
4, 342720, Note_on_c, 2, 38, 57
4, 342915, Note_off_c, 2, 46, 0
4, 342960, Note_on_c, 2, 46, 56
4, 343155, Note_off_c, 2, 38, 0
4, 343200, Note_on_c, 2, 53, 56
4, 343395, Note_off_c, 2, 46, 0
4, 343440, Note_on_c, 2, 46, 55
4, 343635, Note_off_c, 2, 53, 0
4, 343680, Note_on_c, 2, 39, 54
4, 343875, Note_off_c, 2, 46, 0
4, 343920, Note_on_c, 2, 46, 54
4, 344115, Note_off_c, 2, 39, 0
4, 344160, Note_on_c, 2, 54, 58
4, 344355, Note_off_c, 2, 46, 0
4, 344400, Note_on_c, 2, 46, 59
4, 344595, Note_off_c, 2, 54, 0
4, 344640, Note_on_c, 2, 41, 60
4, 344835, Note_off_c, 2, 46, 0
4, 344880, Note_on_c, 2, 46, 61
4, 345075, Note_off_c, 2, 41, 0
4, 345120, Note_on_c, 2, 56, 62
4, 345315, Note_off_c, 2, 46, 0
4, 345360, Note_on_c, 2, 46, 63
4, 345555, Note_off_c, 2, 56, 0
4, 345600, Note_on_c, 2, 43, 64
4, 345795, Note_off_c, 2, 46, 0
4, 345840, Note_on_c, 2, 51, 65
4, 346035, Note_off_c, 2, 43, 0
4, 346080, Note_on_c, 2, 58, 66
4, 346275, Note_off_c, 2, 51, 0
4, 346320, Note_on_c, 2, 51, 67
4, 346515, Note_off_c, 2, 58, 0
4, 346560, Note_on_c, 2, 44, 68
4, 346755, Note_off_c, 2, 51, 0
4, 346800, Note_on_c, 2, 51, 69
4, 346995, Note_off_c, 2, 44, 0
4, 347040, Note_on_c, 2, 59, 70
4, 347235, Note_off_c, 2, 51, 0
4, 347280, Note_on_c, 2, 51, 71
4, 347475, Note_off_c, 2, 59, 0
4, 347555, Note_off_c, 2, 51, 0
4, 351360, Note_on_c, 2, 59, 56
4, 353280, Note_off_c, 2, 59, 0
4, 353280, Note_on_c, 2, 58, 54
4, 355200, Note_off_c, 2, 58, 0
4, 355200, Note_on_c, 2, 57, 52
4, 356640, Note_off_c, 2, 57, 0
4, 359040, Note_on_c, 2, 60, 47
4, 360960, Note_off_c, 2, 60, 0
4, 360960, Note_on_c, 2, 58, 45
4, 362880, Note_off_c, 2, 58, 0
4, 362880, Note_on_c, 2, 56, 43
4, 364320, Note_off_c, 2, 56, 0
4, 366720, Note_on_c, 2, 68, 50
4, 366720, Note_on_c, 2, 65, 50
4, 368640, Note_off_c, 2, 65, 0
4, 368640, Note_off_c, 2, 68, 0
4, 368640, Note_on_c, 2, 67, 58
4, 368640, Note_on_c, 2, 63, 58
4, 370560, Note_off_c, 2, 63, 0
4, 370560, Note_off_c, 2, 67, 0
4, 370560, Note_on_c, 2, 65, 65
4, 370560, Note_on_c, 2, 62, 65
4, 372480, Note_off_c, 2, 62, 0
4, 372480, Note_off_c, 2, 65, 0
4, 372480, Note_on_c, 2, 60, 73
4, 372480, Note_on_c, 2, 63, 73
4, 374400, Note_off_c, 2, 63, 0
4, 374400, Note_off_c, 2, 60, 0
4, 374400, Note_on_c, 2, 59, 79
4, 374400, Note_on_c, 2, 62, 79
4, 376320, Note_off_c, 2, 62, 0
4, 376320, Note_off_c, 2, 59, 0
4, 376320, Note_on_c, 2, 63, 70
4, 376320, Note_on_c, 2, 58, 70
4, 377280, Note_off_c, 2, 63, 0
4, 377280, Note_on_c, 2, 65, 66
4, 377760, Note_off_c, 2, 65, 0
4, 377760, Note_on_c, 2, 62, 64
4, 378240, Note_off_c, 2, 62, 0
4, 378240, Note_off_c, 2, 58, 0
4, 378480, Note_on_c, 2, 58, 60
4, 378720, Note_off_c, 2, 58, 0
4, 378720, Note_on_c, 2, 60, 61
4, 378960, Note_off_c, 2, 60, 0
4, 378960, Note_on_c, 2, 58, 61
4, 379200, Note_off_c, 2, 58, 0
4, 379200, Note_on_c, 2, 57, 62
4, 379440, Note_off_c, 2, 57, 0
4, 379440, Note_on_c, 2, 58, 62
4, 379680, Note_off_c, 2, 58, 0
4, 379680, Note_on_c, 2, 55, 63
4, 379920, Note_off_c, 2, 55, 0
4, 379920, Note_on_c, 2, 51, 64
4, 380160, Note_off_c, 2, 51, 0
4, 380160, Note_on_c, 2, 56, 64
4, 380400, Note_off_c, 2, 56, 0
4, 380400, Note_on_c, 2, 53, 65
4, 380640, Note_off_c, 2, 53, 0
4, 380640, Note_on_c, 2, 50, 65
4, 380880, Note_off_c, 2, 50, 0
4, 380880, Note_on_c, 2, 46, 66
4, 381120, Note_off_c, 2, 46, 0
4, 381120, Note_on_c, 2, 44, 66
4, 381360, Note_off_c, 2, 44, 0
4, 381360, Note_on_c, 2, 41, 67
4, 381600, Note_off_c, 2, 41, 0
4, 381600, Note_on_c, 2, 38, 67
4, 381840, Note_off_c, 2, 38, 0
4, 381840, Note_on_c, 2, 34, 68
4, 382080, Note_off_c, 2, 34, 0
4, 382080, Note_on_c, 2, 39, 69
4, 382320, Note_off_c, 2, 39, 0
4, 382320, Note_on_c, 2, 41, 68
4, 382560, Note_off_c, 2, 41, 0
4, 382560, Note_on_c, 2, 43, 68
4, 382800, Note_off_c, 2, 43, 0
4, 382800, Note_on_c, 2, 44, 67
4, 383040, Note_off_c, 2, 44, 0
4, 383040, Note_on_c, 2, 46, 66
4, 383280, Note_off_c, 2, 46, 0
4, 383280, Note_on_c, 2, 48, 65
4, 383520, Note_off_c, 2, 48, 0
4, 383520, Note_on_c, 2, 50, 65
4, 383760, Note_off_c, 2, 50, 0
4, 383760, Note_on_c, 2, 51, 64
4, 384000, Note_off_c, 2, 51, 0
4, 384000, Note_on_c, 2, 46, 63
4, 384000, Note_on_c, 2, 53, 63
4, 384240, Note_off_c, 2, 53, 0
4, 384240, Note_on_c, 2, 55, 62
4, 384480, Note_off_c, 2, 55, 0
4, 384480, Note_on_c, 2, 56, 61
4, 384720, Note_off_c, 2, 56, 0
4, 384720, Note_on_c, 2, 57, 61
4, 384960, Note_off_c, 2, 57, 0
4, 384960, Note_on_c, 2, 58, 60
4, 385440, Note_off_c, 2, 58, 0
4, 385440, Note_on_c, 2, 56, 63
4, 385920, Note_off_c, 2, 56, 0
4, 385920, Note_off_c, 2, 46, 0
4, 385920, Note_on_c, 2, 51, 68
4, 385920, Note_on_c, 2, 55, 68
4, 387840, Note_off_c, 2, 55, 0
4, 387840, Note_off_c, 2, 51, 0
4, 387840, Note_on_c, 2, 53, 58
4, 387840, Note_on_c, 2, 46, 58
4, 389205, Note_off_c, 2, 46, 0
4, 389205, Note_off_c, 2, 53, 0
4, 389760, Note_on_c, 2, 63, 64
4, 389760, Note_on_c, 2, 67, 64
4, 391680, Note_off_c, 2, 67, 0
4, 391680, Note_off_c, 2, 63, 0
4, 391680, Note_on_c, 2, 65, 60
4, 391680, Note_on_c, 2, 58, 60
4, 393193, Note_off_c, 2, 65, 0
4, 393230, Note_off_c, 2, 58, 0
4, 393600, Note_on_c, 2, 79, 66
4, 393600, Note_on_c, 2, 75, 66
4, 395520, Note_off_c, 2, 75, 0
4, 395520, Note_off_c, 2, 79, 0
4, 395520, Note_on_c, 2, 70, 61
4, 395520, Note_on_c, 2, 77, 61
4, 396272, Note_off_c, 2, 70, 0
4, 396279, Note_off_c, 2, 77, 0
4, 396480, Note_on_c, 2, 68, 71
4, 396480, Note_on_c, 2, 70, 71
4, 396480, Note_on_c, 2, 77, 71
4, 396480, Note_on_c, 2, 74, 71
4, 397440, Note_off_c, 2, 74, 0
4, 397440, Note_off_c, 2, 77, 0
4, 397440, Note_off_c, 2, 70, 0
4, 397440, Note_off_c, 2, 68, 0
4, 397440, Note_on_c, 2, 67, 68
4, 397440, Note_on_c, 2, 70, 68
4, 398229, Note_off_c, 2, 70, 0
4, 398229, Note_off_c, 2, 67, 0
4, 398400, Note_on_c, 2, 67, 75
4, 398400, Note_on_c, 2, 63, 75
4, 399360, Note_off_c, 2, 63, 0
4, 399360, Note_off_c, 2, 67, 0
4, 399360, Note_on_c, 2, 58, 66
4, 399360, Note_on_c, 2, 65, 66
4, 399360, Note_on_c, 2, 68, 66
4, 400112, Note_off_c, 2, 58, 0
4, 400119, Note_off_c, 2, 68, 0
4, 400119, Note_off_c, 2, 65, 0
4, 400320, Note_on_c, 2, 65, 76
4, 400320, Note_on_c, 2, 58, 76
4, 400320, Note_on_c, 2, 68, 76
4, 401280, Note_off_c, 2, 68, 0
4, 401280, Note_off_c, 2, 58, 0
4, 401280, Note_off_c, 2, 65, 0
4, 401520, Note_on_c, 2, 58, 61
4, 401760, Note_off_c, 2, 58, 0
4, 401760, Note_on_c, 2, 60, 61
4, 402000, Note_off_c, 2, 60, 0
4, 402000, Note_on_c, 2, 58, 62
4, 402240, Note_off_c, 2, 58, 0
4, 402240, Note_on_c, 2, 57, 62
4, 402480, Note_off_c, 2, 57, 0
4, 402480, Note_on_c, 2, 58, 63
4, 402720, Note_off_c, 2, 58, 0
4, 402720, Note_on_c, 2, 55, 63
4, 402960, Note_off_c, 2, 55, 0
4, 402960, Note_on_c, 2, 51, 64
4, 403200, Note_off_c, 2, 51, 0
4, 403200, Note_on_c, 2, 56, 64
4, 403440, Note_off_c, 2, 56, 0
4, 403440, Note_on_c, 2, 53, 65
4, 403680, Note_off_c, 2, 53, 0
4, 403680, Note_on_c, 2, 50, 65
4, 403920, Note_off_c, 2, 50, 0
4, 403920, Note_on_c, 2, 46, 66
4, 404160, Note_off_c, 2, 46, 0
4, 404160, Note_on_c, 2, 44, 66
4, 404400, Note_off_c, 2, 44, 0
4, 404400, Note_on_c, 2, 41, 67
4, 404640, Note_off_c, 2, 41, 0
4, 404640, Note_on_c, 2, 38, 68
4, 404880, Note_off_c, 2, 38, 0
4, 404880, Note_on_c, 2, 34, 68
4, 405120, Note_off_c, 2, 34, 0
4, 405120, Note_on_c, 2, 39, 69
4, 405360, Note_off_c, 2, 39, 0
4, 405360, Note_on_c, 2, 41, 69
4, 405600, Note_off_c, 2, 41, 0
4, 405600, Note_on_c, 2, 43, 68
4, 405840, Note_off_c, 2, 43, 0
4, 405840, Note_on_c, 2, 44, 68
4, 406080, Note_off_c, 2, 44, 0
4, 406080, Note_on_c, 2, 46, 67
4, 406320, Note_off_c, 2, 46, 0
4, 406320, Note_on_c, 2, 48, 67
4, 406560, Note_off_c, 2, 48, 0
4, 406560, Note_on_c, 2, 50, 66
4, 406800, Note_off_c, 2, 50, 0
4, 406800, Note_on_c, 2, 51, 66
4, 407040, Note_off_c, 2, 51, 0
4, 407040, Note_on_c, 2, 46, 65
4, 407040, Note_on_c, 2, 53, 65
4, 407280, Note_off_c, 2, 53, 0
4, 407280, Note_on_c, 2, 55, 65
4, 407520, Note_off_c, 2, 55, 0
4, 407520, Note_on_c, 2, 56, 64
4, 407760, Note_off_c, 2, 56, 0
4, 407760, Note_on_c, 2, 57, 63
4, 408000, Note_off_c, 2, 57, 0
4, 408000, Note_on_c, 2, 58, 63
4, 408480, Note_off_c, 2, 58, 0
4, 408480, Note_on_c, 2, 56, 62
4, 408960, Note_off_c, 2, 56, 0
4, 408960, Note_off_c, 2, 46, 0
4, 408960, Note_on_c, 2, 51, 69
4, 408960, Note_on_c, 2, 55, 69
4, 410880, Note_off_c, 2, 55, 0
4, 410880, Note_off_c, 2, 51, 0
4, 410880, Note_on_c, 2, 53, 58
4, 410880, Note_on_c, 2, 46, 58
4, 412541, Note_off_c, 2, 46, 0
4, 412541, Note_off_c, 2, 53, 0
4, 412800, Note_on_c, 2, 63, 70
4, 412800, Note_on_c, 2, 67, 70
4, 414720, Note_off_c, 2, 67, 0
4, 414720, Note_off_c, 2, 63, 0
4, 414720, Note_on_c, 2, 65, 60
4, 414720, Note_on_c, 2, 58, 60
4, 416344, Note_off_c, 2, 58, 0
4, 416344, Note_off_c, 2, 65, 0
4, 416640, Note_on_c, 2, 79, 71
4, 416640, Note_on_c, 2, 75, 71
4, 418560, Note_off_c, 2, 75, 0
4, 418560, Note_off_c, 2, 79, 0
4, 418560, Note_on_c, 2, 70, 58
4, 418560, Note_on_c, 2, 77, 58
4, 419319, Note_off_c, 2, 77, 0
4, 419319, Note_off_c, 2, 70, 0
4, 419520, Note_on_c, 2, 68, 71
4, 419520, Note_on_c, 2, 77, 71
4, 419520, Note_on_c, 2, 70, 71
4, 420480, Note_off_c, 2, 70, 0
4, 420480, Note_off_c, 2, 77, 0
4, 420480, Note_off_c, 2, 68, 0
4, 420480, Note_on_c, 2, 67, 64
4, 420480, Note_on_c, 2, 70, 64
4, 420900, Note_off_c, 2, 67, 0
4, 420907, Note_off_c, 2, 70, 0
4, 420960, Note_on_c, 2, 63, 68
4, 420960, Note_on_c, 2, 67, 68
4, 421675, Note_off_c, 2, 67, 0
4, 421682, Note_off_c, 2, 63, 0
4, 421920, Note_on_c, 2, 67, 74
4, 421920, Note_on_c, 2, 63, 74
4, 422400, Note_off_c, 2, 63, 0
4, 422400, Note_off_c, 2, 67, 0
4, 422400, Note_on_c, 2, 58, 73
4, 422400, Note_on_c, 2, 65, 73
4, 423307, Note_off_c, 2, 65, 0
4, 423307, Note_off_c, 2, 58, 0
4, 423360, Note_on_c, 2, 65, 76
4, 423360, Note_on_c, 2, 56, 76
4, 423360, Note_on_c, 2, 58, 76
4, 424320, Note_off_c, 2, 58, 0
4, 424320, Note_off_c, 2, 56, 0
4, 424320, Note_off_c, 2, 65, 0
4, 424320, Note_on_c, 2, 55, 75
4, 424320, Note_on_c, 2, 58, 75
4, 424747, Note_off_c, 2, 58, 0
4, 424747, Note_off_c, 2, 55, 0
4, 424800, Note_on_c, 2, 51, 69
4, 424800, Note_on_c, 2, 55, 69
4, 425700, Note_off_c, 2, 55, 0
4, 425700, Note_off_c, 2, 51, 0
4, 425760, Note_on_c, 2, 55, 81
4, 425760, Note_on_c, 2, 51, 81
4, 426240, Note_off_c, 2, 51, 0
4, 426240, Note_off_c, 2, 55, 0
4, 426240, Note_on_c, 2, 53, 74
4, 426240, Note_on_c, 2, 56, 74
4, 426240, Note_on_c, 2, 46, 74
4, 427052, Note_off_c, 2, 46, 0
4, 427052, Note_off_c, 2, 56, 0
4, 427052, Note_off_c, 2, 53, 0
4, 427200, Note_on_c, 2, 53, 79
4, 427200, Note_on_c, 2, 56, 79
4, 427200, Note_on_c, 2, 46, 79
4, 428160, Note_off_c, 2, 46, 0
4, 428160, Note_off_c, 2, 56, 0
4, 428160, Note_off_c, 2, 53, 0
4, 432000, Note_on_c, 2, 51, 46
4, 433920, Note_off_c, 2, 51, 0
4, 433920, Note_on_c, 2, 46, 45
4, 435840, Note_off_c, 2, 46, 0
4, 435840, Note_on_c, 2, 43, 41
4, 436800, Note_off_c, 2, 43, 0
4, 439680, Note_on_c, 2, 51, 42
4, 439680, Note_on_c, 2, 55, 42
4, 441600, Note_off_c, 2, 55, 0
4, 441600, Note_off_c, 2, 51, 0
4, 441600, Note_on_c, 2, 53, 41
4, 441600, Note_on_c, 2, 46, 41
4, 443520, Note_off_c, 2, 46, 0
4, 443520, Note_off_c, 2, 53, 0
4, 443520, Note_on_c, 2, 43, 38
4, 443520, Note_on_c, 2, 51, 38
4, 444480, Note_off_c, 2, 51, 0
4, 444480, Note_off_c, 2, 43, 0
4, 444960, Note_on_c, 2, 55, 40
4, 444960, Note_on_c, 2, 51, 40
4, 445440, Note_off_c, 2, 51, 0
4, 445440, Note_off_c, 2, 55, 0
4, 445440, Note_on_c, 2, 53, 40
4, 445440, Note_on_c, 2, 46, 40
4, 447360, Note_off_c, 2, 46, 0
4, 447360, Note_off_c, 2, 53, 0
4, 447360, Note_on_c, 2, 51, 39
4, 447360, Note_on_c, 2, 43, 39
4, 447840, Note_off_c, 2, 43, 0
4, 447840, Note_off_c, 2, 51, 0
4, 448800, Note_on_c, 2, 63, 38
4, 448800, Note_on_c, 2, 67, 38
4, 449280, Note_off_c, 2, 67, 0
4, 449280, Note_off_c, 2, 63, 0
4, 449280, Note_on_c, 2, 65, 38
4, 449280, Note_on_c, 2, 58, 38
4, 451200, Note_off_c, 2, 58, 0
4, 451200, Note_off_c, 2, 65, 0
4, 451200, Note_on_c, 2, 55, 37
4, 451200, Note_on_c, 2, 63, 37
4, 451680, Note_off_c, 2, 63, 0
4, 451680, Note_off_c, 2, 55, 0
4, 453600, Note_on_c, 2, 55, 36
4, 453600, Note_on_c, 2, 58, 36
4, 454080, Note_off_c, 2, 58, 0
4, 454080, Note_off_c, 2, 55, 0
4, 454080, Note_on_c, 2, 50, 36
4, 454080, Note_on_c, 2, 56, 36
4, 454560, Note_off_c, 2, 56, 0
4, 454560, Note_off_c, 2, 50, 0
4, 454560, Note_on_c, 2, 55, 36
4, 454560, Note_on_c, 2, 46, 36
4, 455040, Note_off_c, 2, 46, 0
4, 455040, Note_off_c, 2, 55, 0
4, 455040, Note_on_c, 2, 55, 36
4, 455040, Note_on_c, 2, 46, 36
4, 455520, Note_off_c, 2, 46, 0
4, 455520, Note_off_c, 2, 55, 0
4, 457440, Note_on_c, 2, 55, 34
4, 457440, Note_on_c, 2, 51, 34
4, 457920, Note_off_c, 2, 51, 0
4, 457920, Note_off_c, 2, 55, 0
4, 457920, Note_on_c, 2, 53, 34
4, 457920, Note_on_c, 2, 46, 34
4, 458400, Note_off_c, 2, 46, 0
4, 458400, Note_off_c, 2, 53, 0
4, 458400, Note_on_c, 2, 51, 34
4, 458400, Note_on_c, 2, 43, 34
4, 458880, Note_off_c, 2, 43, 0
4, 458880, Note_off_c, 2, 51, 0
4, 459360, Note_on_c, 2, 50, 35
4, 459360, Note_on_c, 2, 46, 35
4, 459720, Note_off_c, 2, 46, 0
4, 459720, Note_off_c, 2, 50, 0
4, 459840, Note_on_c, 2, 39, 36
4, 460200, Note_off_c, 2, 39, 0
4, 461280, Note_on_c, 2, 50, 40
4, 461280, Note_on_c, 2, 46, 40
4, 461640, Note_off_c, 2, 46, 0
4, 461640, Note_off_c, 2, 50, 0
4, 461760, Note_on_c, 2, 39, 41
4, 462120, Note_off_c, 2, 39, 0
4, 463200, Note_on_c, 2, 46, 45
4, 463200, Note_on_c, 2, 50, 45
4, 463560, Note_off_c, 2, 50, 0
4, 463560, Note_off_c, 2, 46, 0
4, 463680, Note_on_c, 2, 39, 46
4, 464040, Note_off_c, 2, 39, 0
4, 465120, Note_on_c, 2, 46, 61
4, 465480, Note_off_c, 2, 46, 0
4, 465600, Note_on_c, 2, 39, 70
4, 465960, Note_off_c, 2, 39, 0
4, 466080, Note_on_c, 2, 46, 81
4, 466440, Note_off_c, 2, 46, 0
4, 466560, Note_on_c, 2, 39, 68
4, 468480, Note_off_c, 2, 39, 0
4, 468480, Note_on_c, 2, 38, 56
4, 470400, Note_off_c, 2, 38, 0
4, 470400, Note_on_c, 2, 36, 53
4, 472320, Note_off_c, 2, 36, 0
4, 472320, Note_on_c, 2, 34, 50
4, 474240, Note_off_c, 2, 34, 0
4, 474240, Note_on_c, 2, 32, 48
4, 476160, Note_off_c, 2, 32, 0
4, 476160, Note_on_c, 2, 31, 45
4, 478080, Note_off_c, 2, 31, 0
4, 478080, Note_on_c, 2, 32, 42
4, 480000, Note_off_c, 2, 32, 0
4, 480000, Note_on_c, 2, 31, 39
4, 481920, Note_off_c, 2, 31, 0
4, 481920, Note_on_c, 2, 32, 37
4, 483840, Note_off_c, 2, 32, 0
4, 483840, Note_on_c, 2, 31, 34
4, 484800, Note_off_c, 2, 31, 0
4, 487680, Note_on_c, 2, 34, 90
4, 487680, Note_on_c, 2, 41, 90
4, 487680, Note_on_c, 2, 38, 90
4, 487680, Note_on_c, 2, 46, 90
4, 488160, Note_off_c, 2, 46, 0
4, 488160, Note_off_c, 2, 38, 0
4, 488160, Note_off_c, 2, 41, 0
4, 488160, Note_off_c, 2, 34, 0
4, 489600, Note_on_c, 2, 43, 90
4, 489600, Note_on_c, 2, 51, 90
4, 489600, Note_on_c, 2, 46, 90
4, 489600, Note_on_c, 2, 39, 90
4, 490080, Note_off_c, 2, 39, 0
4, 490080, Note_off_c, 2, 46, 0
4, 490080, Note_off_c, 2, 51, 0
4, 490080, Note_off_c, 2, 43, 0
4, 493440, Control_c, 2, 64, 0
4, 493440, Control_c, 2, 7, 107
4, 493440, Note_on_c, 2, 48, 57
4, 493440, Note_on_c, 2, 63, 57
4, 493500, Control_c, 2, 64, 127
4, 493920, Note_on_c, 2, 54, 53
4, 494400, Note_off_c, 2, 54, 0
4, 494400, Note_on_c, 2, 57, 49
4, 494880, Note_off_c, 2, 57, 0
4, 494880, Note_on_c, 2, 54, 45
4, 495360, Control_c, 2, 64, 0
4, 495360, Note_off_c, 2, 54, 0
4, 495360, Note_off_c, 2, 63, 0
4, 495360, Note_off_c, 2, 48, 0
4, 495360, Note_on_c, 2, 63, 48
4, 495360, Note_on_c, 2, 48, 48
4, 495420, Control_c, 2, 64, 127
4, 495840, Note_on_c, 2, 54, 45
4, 496320, Note_off_c, 2, 54, 0
4, 496320, Note_on_c, 2, 57, 41
4, 496800, Note_off_c, 2, 57, 0
4, 496800, Note_on_c, 2, 54, 37
4, 497280, Control_c, 2, 64, 0
4, 497280, Note_off_c, 2, 54, 0
4, 497280, Note_off_c, 2, 48, 0
4, 497280, Note_off_c, 2, 63, 0
4, 497760, Note_on_c, 2, 62, 53
4, 497760, Note_on_c, 2, 47, 53
4, 497760, Note_on_c, 2, 55, 53
4, 498240, Note_off_c, 2, 55, 0
4, 498240, Note_off_c, 2, 47, 0
4, 498240, Note_off_c, 2, 62, 0
4, 498720, Note_on_c, 2, 60, 48
4, 498720, Note_on_c, 2, 50, 48
4, 498720, Note_on_c, 2, 57, 48
4, 499200, Note_off_c, 2, 57, 0
4, 499200, Note_off_c, 2, 50, 0
4, 499200, Note_off_c, 2, 60, 0
4, 499680, Note_on_c, 2, 43, 40
4, 499680, Note_on_c, 2, 55, 40
4, 499680, Note_on_c, 2, 59, 40
4, 499680, Note_on_c, 2, 62, 40
4, 500040, Note_off_c, 2, 62, 0
4, 500040, Note_off_c, 2, 59, 0
4, 500040, Note_off_c, 2, 55, 0
4, 500040, Note_off_c, 2, 43, 0
4, 500160, Note_on_c, 2, 59, 38
4, 500160, Note_on_c, 2, 62, 38
4, 500160, Note_on_c, 2, 43, 38
4, 500160, Note_on_c, 2, 55, 38
4, 500520, Note_off_c, 2, 55, 0
4, 500520, Note_off_c, 2, 43, 0
4, 500520, Note_off_c, 2, 62, 0
4, 500520, Note_off_c, 2, 59, 0
4, 501120, Control_c, 2, 64, 0
4, 501120, Note_on_c, 2, 68, 59
4, 501120, Note_on_c, 2, 53, 59
4, 501180, Control_c, 2, 64, 127
4, 501600, Note_on_c, 2, 59, 54
4, 502080, Note_off_c, 2, 59, 0
4, 502080, Note_on_c, 2, 62, 50
4, 502560, Note_off_c, 2, 62, 0
4, 502560, Note_on_c, 2, 59, 46
4, 502920, Note_off_c, 2, 53, 0
4, 502927, Note_off_c, 2, 59, 0
4, 502927, Note_off_c, 2, 68, 0
4, 503040, Control_c, 2, 64, 0
4, 503040, Note_on_c, 2, 53, 55
4, 503040, Note_on_c, 2, 68, 55
4, 503100, Control_c, 2, 64, 127
4, 503520, Note_on_c, 2, 59, 51
4, 504000, Note_off_c, 2, 59, 0
4, 504000, Note_on_c, 2, 62, 46
4, 504480, Note_off_c, 2, 62, 0
4, 504480, Note_on_c, 2, 59, 42
4, 504960, Control_c, 2, 64, 0
4, 504960, Note_off_c, 2, 59, 0
4, 504960, Note_off_c, 2, 68, 0
4, 504960, Note_off_c, 2, 53, 0
4, 505440, Note_on_c, 2, 51, 47
4, 505440, Note_on_c, 2, 60, 47
4, 505440, Note_on_c, 2, 67, 47
4, 505920, Note_off_c, 2, 67, 0
4, 505920, Note_off_c, 2, 60, 0
4, 505920, Note_off_c, 2, 51, 0
4, 506400, Note_on_c, 2, 55, 44
4, 506400, Note_on_c, 2, 62, 44
4, 506400, Note_on_c, 2, 65, 44
4, 506880, Note_off_c, 2, 65, 0
4, 506880, Note_off_c, 2, 62, 0
4, 506880, Note_off_c, 2, 55, 0
4, 507360, Note_on_c, 2, 48, 43
4, 507360, Note_on_c, 2, 60, 43
4, 507360, Note_on_c, 2, 63, 43
4, 507694, Note_off_c, 2, 63, 0
4, 507694, Note_off_c, 2, 60, 0
4, 507694, Note_off_c, 2, 48, 0
4, 507840, Note_on_c, 2, 63, 44
4, 507840, Note_on_c, 2, 48, 44
4, 507840, Note_on_c, 2, 60, 44
4, 508009, Note_off_c, 2, 60, 0
4, 508009, Note_off_c, 2, 48, 0
4, 508009, Note_off_c, 2, 63, 0
4, 508080, Note_on_c, 2, 60, 50
4, 508080, Note_on_c, 2, 63, 50
4, 508320, Note_off_c, 2, 63, 0
4, 508320, Note_off_c, 2, 60, 0
4, 508320, Note_on_c, 2, 58, 54
4, 508320, Note_on_c, 2, 61, 54
4, 508320, Note_on_c, 2, 63, 54
4, 508560, Note_off_c, 2, 63, 0
4, 508560, Note_off_c, 2, 61, 0
4, 508560, Note_off_c, 2, 58, 0
4, 508560, Note_on_c, 2, 63, 57
4, 508560, Note_on_c, 2, 60, 57
4, 508560, Note_on_c, 2, 56, 57
4, 508800, Note_off_c, 2, 56, 0
4, 508800, Note_off_c, 2, 60, 0
4, 508800, Note_off_c, 2, 63, 0
4, 508800, Note_on_c, 2, 63, 60
4, 508800, Note_on_c, 2, 58, 60
4, 508800, Note_on_c, 2, 55, 60
4, 509280, Note_off_c, 2, 55, 0
4, 509280, Note_off_c, 2, 58, 0
4, 509280, Note_off_c, 2, 63, 0
4, 509280, Note_on_c, 2, 64, 60
4, 509280, Note_on_c, 2, 58, 60
4, 509280, Note_on_c, 2, 55, 60
4, 510000, Note_off_c, 2, 55, 0
4, 510000, Note_off_c, 2, 58, 0
4, 510000, Note_off_c, 2, 64, 0
4, 510000, Note_on_c, 2, 61, 59
4, 510000, Note_on_c, 2, 53, 59
4, 510000, Note_on_c, 2, 56, 59
4, 510240, Note_off_c, 2, 56, 0
4, 510240, Note_off_c, 2, 53, 0
4, 510240, Note_off_c, 2, 61, 0
4, 510240, Note_on_c, 2, 52, 61
4, 510240, Note_on_c, 2, 55, 61
4, 510240, Note_on_c, 2, 60, 61
4, 510480, Note_off_c, 2, 60, 0
4, 510480, Note_off_c, 2, 55, 0
4, 510480, Note_off_c, 2, 52, 0
4, 510480, Note_on_c, 2, 55, 63
4, 510480, Note_on_c, 2, 60, 63
4, 510480, Note_on_c, 2, 52, 63
4, 510720, Note_off_c, 2, 52, 0
4, 510720, Note_off_c, 2, 60, 0
4, 510720, Note_off_c, 2, 55, 0
4, 510720, Note_on_c, 2, 55, 65
4, 510720, Note_on_c, 2, 52, 65
4, 510720, Note_on_c, 2, 60, 65
4, 511200, Note_off_c, 2, 60, 0
4, 511200, Note_off_c, 2, 52, 0
4, 511200, Note_off_c, 2, 55, 0
4, 511200, Note_on_c, 2, 56, 55
4, 511200, Note_on_c, 2, 53, 55
4, 511200, Note_on_c, 2, 60, 55
4, 511680, Note_off_c, 2, 60, 0
4, 511680, Note_off_c, 2, 53, 0
4, 511680, Note_off_c, 2, 56, 0
4, 512640, Control_c, 2, 64, 127
4, 512640, Note_on_c, 2, 38, 59
4, 512640, Note_on_c, 2, 51, 59
4, 513120, Note_off_c, 2, 51, 0
4, 513120, Note_on_c, 2, 42, 56
4, 513600, Note_off_c, 2, 42, 0
4, 513600, Note_on_c, 2, 45, 53
4, 514080, Control_c, 2, 64, 0
4, 514080, Note_off_c, 2, 45, 0
4, 514080, Note_off_c, 2, 38, 0
4, 514080, Note_on_c, 2, 58, 57
4, 514080, Note_on_c, 2, 50, 57
4, 514080, Note_on_c, 2, 46, 57
4, 514560, Note_off_c, 2, 46, 0
4, 514560, Note_off_c, 2, 50, 0
4, 514560, Note_off_c, 2, 58, 0
4, 514560, Note_on_c, 2, 57, 60
4, 514560, Note_on_c, 2, 45, 60
4, 514560, Note_on_c, 2, 50, 60
4, 515040, Note_off_c, 2, 50, 0
4, 515040, Note_off_c, 2, 45, 0
4, 515040, Note_off_c, 2, 57, 0
4, 515040, Note_on_c, 2, 43, 63
4, 515040, Note_on_c, 2, 55, 63
4, 515040, Note_on_c, 2, 50, 63
4, 515520, Note_off_c, 2, 50, 0
4, 515520, Note_off_c, 2, 55, 0
4, 515520, Note_off_c, 2, 43, 0
4, 515520, Note_on_c, 2, 42, 68
4, 515520, Note_on_c, 2, 54, 68
4, 515520, Note_on_c, 2, 50, 68
4, 516000, Note_off_c, 2, 50, 0
4, 516000, Note_off_c, 2, 54, 0
4, 516000, Note_off_c, 2, 42, 0
4, 520320, Note_on_c, 2, 57, 43
4, 520320, Note_on_c, 2, 54, 43
4, 520440, Note_on_c, 2, 62, 43
4, 520554, Note_off_c, 2, 54, 0
4, 520554, Note_off_c, 2, 57, 0
4, 520560, Note_on_c, 2, 57, 43
4, 520560, Note_on_c, 2, 54, 43
4, 520569, Note_off_c, 2, 62, 0
4, 520680, Note_on_c, 2, 62, 43
4, 520794, Note_off_c, 2, 54, 0
4, 520794, Note_off_c, 2, 57, 0
4, 520800, Note_on_c, 2, 57, 42
4, 520800, Note_on_c, 2, 54, 42
4, 520809, Note_off_c, 2, 62, 0
4, 520920, Note_on_c, 2, 62, 42
4, 521034, Note_off_c, 2, 54, 0
4, 521034, Note_off_c, 2, 57, 0
4, 521040, Note_on_c, 2, 54, 42
4, 521040, Note_on_c, 2, 57, 42
4, 521049, Note_off_c, 2, 62, 0
4, 521160, Note_on_c, 2, 62, 42
4, 521274, Note_off_c, 2, 57, 0
4, 521274, Note_off_c, 2, 54, 0
4, 521280, Note_on_c, 2, 54, 41
4, 521280, Note_on_c, 2, 57, 41
4, 521289, Note_off_c, 2, 62, 0
4, 521400, Note_on_c, 2, 62, 41
4, 521514, Note_off_c, 2, 57, 0
4, 521514, Note_off_c, 2, 54, 0
4, 521520, Note_on_c, 2, 57, 41
4, 521520, Note_on_c, 2, 54, 41
4, 521529, Note_off_c, 2, 62, 0
4, 521640, Note_on_c, 2, 62, 41
4, 521754, Note_off_c, 2, 54, 0
4, 521754, Note_off_c, 2, 57, 0
4, 521760, Note_on_c, 2, 59, 40
4, 521760, Note_on_c, 2, 55, 40
4, 521769, Note_off_c, 2, 62, 0
4, 521880, Note_on_c, 2, 62, 40
4, 521994, Note_off_c, 2, 55, 0
4, 521994, Note_off_c, 2, 59, 0
4, 522000, Note_on_c, 2, 59, 40
4, 522000, Note_on_c, 2, 55, 40
4, 522009, Note_off_c, 2, 62, 0
4, 522120, Note_on_c, 2, 62, 40
4, 522234, Note_off_c, 2, 55, 0
4, 522234, Note_off_c, 2, 59, 0
4, 522240, Note_on_c, 2, 57, 39
4, 522240, Note_on_c, 2, 60, 39
4, 522249, Note_off_c, 2, 62, 0
4, 522360, Note_on_c, 2, 62, 39
4, 522474, Note_off_c, 2, 60, 0
4, 522474, Note_off_c, 2, 57, 0
4, 522480, Note_on_c, 2, 57, 39
4, 522480, Note_on_c, 2, 60, 39
4, 522489, Note_off_c, 2, 62, 0
4, 522600, Note_on_c, 2, 62, 39
4, 522714, Note_off_c, 2, 60, 0
4, 522714, Note_off_c, 2, 57, 0
4, 522720, Note_on_c, 2, 57, 38
4, 522720, Note_on_c, 2, 60, 38
4, 522729, Note_off_c, 2, 62, 0
4, 522840, Note_on_c, 2, 62, 38
4, 522954, Note_off_c, 2, 60, 0
4, 522954, Note_off_c, 2, 57, 0
4, 522960, Note_on_c, 2, 57, 38
4, 522960, Note_on_c, 2, 60, 38
4, 522969, Note_off_c, 2, 62, 0
4, 523080, Note_on_c, 2, 62, 38
4, 523194, Note_off_c, 2, 60, 0
4, 523194, Note_off_c, 2, 57, 0
4, 523200, Note_on_c, 2, 57, 38
4, 523200, Note_on_c, 2, 60, 38
4, 523209, Note_off_c, 2, 62, 0
4, 523320, Note_on_c, 2, 62, 43
4, 523434, Note_off_c, 2, 60, 0
4, 523434, Note_off_c, 2, 57, 0
4, 523440, Note_on_c, 2, 59, 45
4, 523440, Note_on_c, 2, 55, 45
4, 523449, Note_off_c, 2, 62, 0
4, 523560, Note_on_c, 2, 62, 46
4, 523674, Note_off_c, 2, 55, 0
4, 523674, Note_off_c, 2, 59, 0
4, 523680, Note_on_c, 2, 57, 48
4, 523680, Note_on_c, 2, 54, 48
4, 523689, Note_off_c, 2, 62, 0
4, 523800, Note_on_c, 2, 62, 49
4, 523914, Note_off_c, 2, 54, 0
4, 523914, Note_off_c, 2, 57, 0
4, 523920, Note_on_c, 2, 57, 50
4, 523920, Note_on_c, 2, 54, 50
4, 523929, Note_off_c, 2, 62, 0
4, 524040, Note_on_c, 2, 62, 52
4, 524154, Note_off_c, 2, 54, 0
4, 524154, Note_off_c, 2, 57, 0
4, 524160, Note_on_c, 2, 57, 51
4, 524160, Note_on_c, 2, 54, 51
4, 524169, Note_off_c, 2, 62, 0
4, 524280, Note_on_c, 2, 62, 48
4, 524394, Note_off_c, 2, 54, 0
4, 524394, Note_off_c, 2, 57, 0
4, 524400, Note_on_c, 2, 57, 45
4, 524400, Note_on_c, 2, 54, 45
4, 524409, Note_off_c, 2, 62, 0
4, 524520, Note_on_c, 2, 62, 43
4, 524634, Note_off_c, 2, 54, 0
4, 524634, Note_off_c, 2, 57, 0
4, 524640, Note_on_c, 2, 54, 43
4, 524640, Note_on_c, 2, 57, 43
4, 524649, Note_off_c, 2, 62, 0
4, 524760, Note_on_c, 2, 62, 43
4, 524874, Note_off_c, 2, 57, 0
4, 524874, Note_off_c, 2, 54, 0
4, 524880, Note_on_c, 2, 57, 42
4, 524880, Note_on_c, 2, 54, 42
4, 524889, Note_off_c, 2, 62, 0
4, 525000, Note_on_c, 2, 62, 42
4, 525114, Note_off_c, 2, 54, 0
4, 525114, Note_off_c, 2, 57, 0
4, 525120, Note_on_c, 2, 57, 42
4, 525120, Note_on_c, 2, 54, 42
4, 525129, Note_off_c, 2, 62, 0
4, 525240, Note_on_c, 2, 62, 41
4, 525354, Note_off_c, 2, 54, 0
4, 525354, Note_off_c, 2, 57, 0
4, 525360, Note_on_c, 2, 57, 41
4, 525360, Note_on_c, 2, 54, 41
4, 525369, Note_off_c, 2, 62, 0
4, 525480, Note_on_c, 2, 62, 41
4, 525594, Note_off_c, 2, 54, 0
4, 525594, Note_off_c, 2, 57, 0
4, 525600, Note_on_c, 2, 55, 41
4, 525600, Note_on_c, 2, 59, 41
4, 525609, Note_off_c, 2, 62, 0
4, 525720, Note_on_c, 2, 62, 40
4, 525834, Note_off_c, 2, 59, 0
4, 525834, Note_off_c, 2, 55, 0
4, 525840, Note_on_c, 2, 55, 40
4, 525840, Note_on_c, 2, 59, 40
4, 525849, Note_off_c, 2, 62, 0
4, 525960, Note_on_c, 2, 62, 40
4, 526074, Note_off_c, 2, 59, 0
4, 526074, Note_off_c, 2, 55, 0
4, 526080, Note_on_c, 2, 57, 40
4, 526080, Note_on_c, 2, 60, 40
4, 526089, Note_off_c, 2, 62, 0
4, 526200, Note_on_c, 2, 62, 39
4, 526314, Note_off_c, 2, 60, 0
4, 526314, Note_off_c, 2, 57, 0
4, 526320, Note_on_c, 2, 57, 39
4, 526320, Note_on_c, 2, 60, 39
4, 526329, Note_off_c, 2, 62, 0
4, 526440, Note_on_c, 2, 62, 39
4, 526554, Note_off_c, 2, 60, 0
4, 526554, Note_off_c, 2, 57, 0
4, 526560, Note_on_c, 2, 57, 39
4, 526560, Note_on_c, 2, 60, 39
4, 526569, Note_off_c, 2, 62, 0
4, 526680, Note_on_c, 2, 62, 38
4, 526794, Note_off_c, 2, 60, 0
4, 526794, Note_off_c, 2, 57, 0
4, 526800, Note_on_c, 2, 57, 38
4, 526800, Note_on_c, 2, 60, 38
4, 526809, Note_off_c, 2, 62, 0
4, 526920, Note_on_c, 2, 62, 38
4, 527034, Note_off_c, 2, 60, 0
4, 527034, Note_off_c, 2, 57, 0
4, 527040, Note_on_c, 2, 60, 38
4, 527040, Note_on_c, 2, 57, 38
4, 527049, Note_off_c, 2, 62, 0
4, 527160, Note_on_c, 2, 62, 44
4, 527274, Note_off_c, 2, 57, 0
4, 527274, Note_off_c, 2, 60, 0
4, 527280, Note_on_c, 2, 55, 47
4, 527280, Note_on_c, 2, 58, 47
4, 527289, Note_off_c, 2, 62, 0
4, 527400, Note_on_c, 2, 62, 51
4, 527514, Note_off_c, 2, 58, 0
4, 527514, Note_off_c, 2, 55, 0
4, 527520, Note_on_c, 2, 54, 54
4, 527520, Note_on_c, 2, 57, 54
4, 527529, Note_off_c, 2, 62, 0
4, 527640, Note_on_c, 2, 62, 58
4, 527754, Note_off_c, 2, 57, 0
4, 527754, Note_off_c, 2, 54, 0
4, 527760, Note_on_c, 2, 54, 66
4, 527760, Note_on_c, 2, 57, 66
4, 527769, Note_off_c, 2, 62, 0
4, 527880, Note_on_c, 2, 62, 72
4, 527994, Note_off_c, 2, 57, 0
4, 527994, Note_off_c, 2, 54, 0
4, 528000, Note_on_c, 2, 58, 86
4, 528000, Note_on_c, 2, 55, 86
4, 528009, Note_off_c, 2, 62, 0
4, 528078, Note_off_c, 2, 55, 0
4, 528078, Note_off_c, 2, 58, 0
4, 528120, Note_on_c, 2, 62, 81
4, 528198, Note_off_c, 2, 62, 0
4, 528240, Note_on_c, 2, 66, 77
4, 528318, Note_off_c, 2, 66, 0
4, 528360, Note_on_c, 2, 67, 72
4, 528438, Note_off_c, 2, 67, 0
4, 528480, Note_on_c, 2, 62, 69
4, 528558, Note_off_c, 2, 62, 0
4, 528600, Note_on_c, 2, 58, 65
4, 528678, Note_off_c, 2, 58, 0
4, 528720, Note_on_c, 2, 57, 64
4, 528798, Note_off_c, 2, 57, 0
4, 528840, Note_on_c, 2, 55, 63
4, 528918, Note_off_c, 2, 55, 0
4, 528960, Note_on_c, 2, 54, 61
4, 528960, Note_on_c, 2, 50, 61
4, 529038, Note_off_c, 2, 50, 0
4, 529038, Note_off_c, 2, 54, 0
4, 529080, Note_on_c, 2, 57, 60
4, 529158, Note_off_c, 2, 57, 0
4, 529200, Note_on_c, 2, 60, 58
4, 529278, Note_off_c, 2, 60, 0
4, 529320, Note_on_c, 2, 50, 57
4, 529398, Note_off_c, 2, 50, 0
4, 529440, Note_on_c, 2, 51, 56
4, 529518, Note_off_c, 2, 51, 0
4, 529560, Note_on_c, 2, 55, 54
4, 529638, Note_off_c, 2, 55, 0
4, 529680, Note_on_c, 2, 58, 53
4, 529758, Note_off_c, 2, 58, 0
4, 529800, Note_on_c, 2, 51, 52
4, 529878, Note_off_c, 2, 51, 0
4, 529920, Note_on_c, 2, 51, 87
4, 529920, Note_on_c, 2, 55, 87
4, 529998, Note_off_c, 2, 55, 0
4, 529998, Note_off_c, 2, 51, 0
4, 530040, Note_on_c, 2, 58, 83
4, 530118, Note_off_c, 2, 58, 0
4, 530160, Note_on_c, 2, 62, 79
4, 530238, Note_off_c, 2, 62, 0
4, 530280, Note_on_c, 2, 63, 75
4, 530358, Note_off_c, 2, 63, 0
4, 530400, Note_on_c, 2, 58, 72
4, 530478, Note_off_c, 2, 58, 0
4, 530520, Note_on_c, 2, 55, 65
4, 530598, Note_off_c, 2, 55, 0
4, 530640, Note_on_c, 2, 53, 64
4, 530718, Note_off_c, 2, 53, 0
4, 530760, Note_on_c, 2, 51, 62
4, 530838, Note_off_c, 2, 51, 0
4, 530880, Note_on_c, 2, 47, 61
4, 530880, Note_on_c, 2, 43, 61
4, 530958, Note_off_c, 2, 43, 0
4, 530958, Note_off_c, 2, 47, 0
4, 531000, Note_on_c, 2, 50, 59
4, 531078, Note_off_c, 2, 50, 0
4, 531120, Note_on_c, 2, 55, 58
4, 531198, Note_off_c, 2, 55, 0
4, 531240, Note_on_c, 2, 47, 56
4, 531318, Note_off_c, 2, 47, 0
4, 531360, Note_on_c, 2, 48, 55
4, 531438, Note_off_c, 2, 48, 0
4, 531480, Note_on_c, 2, 51, 53
4, 531558, Note_off_c, 2, 51, 0
4, 531600, Note_on_c, 2, 55, 51
4, 531678, Note_off_c, 2, 55, 0
4, 531720, Note_on_c, 2, 48, 50
4, 531798, Note_off_c, 2, 48, 0
4, 531840, Control_c, 2, 64, 0
4, 531840, Note_on_c, 2, 46, 64
4, 531840, Note_on_c, 2, 61, 64
4, 531840, Note_on_c, 2, 73, 64
4, 531840, Note_on_c, 2, 70, 64
4, 531840, Note_on_c, 2, 67, 64
4, 531900, Control_c, 2, 64, 127
4, 532320, Note_on_c, 2, 52, 56
4, 532800, Note_off_c, 2, 52, 0
4, 532800, Note_on_c, 2, 55, 51
4, 533280, Note_off_c, 2, 55, 0
4, 533280, Note_on_c, 2, 52, 45
4, 533760, Control_c, 2, 64, 0
4, 533760, Note_off_c, 2, 52, 0
4, 533760, Note_off_c, 2, 67, 0
4, 533760, Note_off_c, 2, 70, 0
4, 533760, Note_off_c, 2, 73, 0
4, 533760, Note_off_c, 2, 61, 0
4, 533760, Note_off_c, 2, 46, 0
4, 533760, Note_on_c, 2, 70, 59
4, 533760, Note_on_c, 2, 67, 59
4, 533760, Note_on_c, 2, 61, 59
4, 533760, Note_on_c, 2, 46, 59
4, 533760, Note_on_c, 2, 73, 59
4, 533820, Control_c, 2, 64, 127
4, 534240, Note_on_c, 2, 52, 53
4, 534720, Note_off_c, 2, 52, 0
4, 534720, Note_on_c, 2, 55, 49
4, 535200, Note_off_c, 2, 55, 0
4, 535200, Note_off_c, 2, 73, 0
4, 535200, Note_off_c, 2, 46, 0
4, 535200, Note_off_c, 2, 67, 0
4, 535200, Note_off_c, 2, 70, 0
4, 535200, Note_on_c, 2, 46, 46
4, 535200, Note_on_c, 2, 52, 46
4, 535200, Note_on_c, 2, 73, 46
4, 535680, Control_c, 2, 64, 0
4, 535680, Note_off_c, 2, 73, 0
4, 535680, Note_off_c, 2, 52, 0
4, 535680, Note_off_c, 2, 46, 0
4, 535680, Note_off_c, 2, 61, 0
4, 536160, Note_on_c, 2, 44, 47
4, 536160, Note_on_c, 2, 72, 47
4, 536160, Note_on_c, 2, 53, 47
4, 536160, Note_on_c, 2, 48, 47
4, 536574, Note_off_c, 2, 48, 0
4, 536574, Note_off_c, 2, 53, 0
4, 536574, Note_off_c, 2, 72, 0
4, 536574, Note_off_c, 2, 44, 0
4, 537120, Note_on_c, 2, 70, 44
4, 537120, Note_on_c, 2, 64, 44
4, 537120, Note_on_c, 2, 48, 44
4, 537120, Note_on_c, 2, 55, 44
4, 537534, Note_off_c, 2, 55, 0
4, 537534, Note_off_c, 2, 48, 0
4, 537534, Note_off_c, 2, 64, 0
4, 537534, Note_off_c, 2, 70, 0
4, 538080, Note_on_c, 2, 53, 42
4, 538080, Note_on_c, 2, 65, 42
4, 538080, Note_on_c, 2, 68, 42
4, 538411, Note_off_c, 2, 68, 0
4, 538411, Note_off_c, 2, 65, 0
4, 538411, Note_off_c, 2, 53, 0
4, 538560, Note_on_c, 2, 68, 40
4, 538560, Note_on_c, 2, 53, 40
4, 538560, Note_on_c, 2, 65, 40
4, 538752, Note_off_c, 2, 65, 0
4, 538752, Note_off_c, 2, 53, 0
4, 538752, Note_off_c, 2, 68, 0
4, 538800, Note_on_c, 2, 65, 51
4, 538800, Note_on_c, 2, 68, 51
4, 539040, Note_off_c, 2, 68, 0
4, 539040, Note_off_c, 2, 65, 0
4, 539040, Note_on_c, 2, 63, 54
4, 539040, Note_on_c, 2, 66, 54
4, 539040, Note_on_c, 2, 68, 54
4, 539280, Note_off_c, 2, 68, 0
4, 539280, Note_off_c, 2, 66, 0
4, 539280, Note_off_c, 2, 63, 0
4, 539280, Note_on_c, 2, 68, 58
4, 539280, Note_on_c, 2, 61, 58
4, 539280, Note_on_c, 2, 65, 58
4, 539520, Note_off_c, 2, 65, 0
4, 539520, Note_off_c, 2, 61, 0
4, 539520, Note_off_c, 2, 68, 0
4, 539520, Note_on_c, 2, 68, 56
4, 539520, Note_on_c, 2, 63, 56
4, 539520, Note_on_c, 2, 60, 56
4, 540000, Note_off_c, 2, 60, 0
4, 540000, Note_off_c, 2, 63, 0
4, 540000, Note_off_c, 2, 68, 0
4, 540000, Note_on_c, 2, 63, 58
4, 540000, Note_on_c, 2, 69, 58
4, 540000, Note_on_c, 2, 60, 58
4, 540720, Note_off_c, 2, 60, 0
4, 540720, Note_off_c, 2, 69, 0
4, 540720, Note_off_c, 2, 63, 0
4, 540720, Note_on_c, 2, 58, 60
4, 540720, Note_on_c, 2, 66, 60
4, 540720, Note_on_c, 2, 61, 60
4, 540960, Note_off_c, 2, 58, 0
4, 540960, Note_off_c, 2, 61, 0
4, 540960, Note_off_c, 2, 66, 0
4, 540960, Note_on_c, 2, 57, 61
4, 540960, Note_on_c, 2, 65, 61
4, 540960, Note_on_c, 2, 60, 61
4, 541200, Note_off_c, 2, 60, 0
4, 541200, Note_off_c, 2, 65, 0
4, 541200, Note_off_c, 2, 57, 0
4, 541200, Note_on_c, 2, 65, 62
4, 541200, Note_on_c, 2, 57, 62
4, 541200, Note_on_c, 2, 60, 62
4, 541440, Note_off_c, 2, 60, 0
4, 541440, Note_off_c, 2, 57, 0
4, 541440, Note_off_c, 2, 65, 0
4, 541440, Note_on_c, 2, 60, 64
4, 541440, Note_on_c, 2, 57, 64
4, 541440, Note_on_c, 2, 65, 64
4, 541920, Note_off_c, 2, 65, 0
4, 541920, Note_off_c, 2, 57, 0
4, 541920, Note_off_c, 2, 60, 0
4, 541920, Note_on_c, 2, 58, 54
4, 541920, Note_on_c, 2, 65, 54
4, 541920, Note_on_c, 2, 61, 54
4, 542400, Note_off_c, 2, 61, 0
4, 542400, Note_off_c, 2, 65, 0
4, 542400, Note_off_c, 2, 58, 0
4, 543360, Control_c, 2, 64, 127
4, 543360, Note_on_c, 2, 36, 58
4, 543360, Note_on_c, 2, 49, 58
4, 543840, Note_off_c, 2, 49, 0
4, 543840, Note_on_c, 2, 40, 56
4, 544320, Note_off_c, 2, 40, 0
4, 544320, Note_on_c, 2, 43, 53
4, 544800, Control_c, 2, 64, 0
4, 544800, Note_off_c, 2, 43, 0
4, 544800, Note_off_c, 2, 36, 0
4, 544800, Note_on_c, 2, 44, 57
4, 544800, Note_on_c, 2, 36, 57
4, 544800, Note_on_c, 2, 32, 57
4, 544800, Note_on_c, 2, 56, 57
4, 544800, Note_on_c, 2, 60, 57
4, 545280, Note_off_c, 2, 60, 0
4, 545280, Note_off_c, 2, 56, 0
4, 545280, Note_off_c, 2, 32, 0
4, 545280, Note_off_c, 2, 36, 0
4, 545280, Note_off_c, 2, 44, 0
4, 545280, Note_on_c, 2, 43, 60
4, 545280, Note_on_c, 2, 31, 60
4, 545280, Note_on_c, 2, 36, 60
4, 545280, Note_on_c, 2, 58, 60
4, 545280, Note_on_c, 2, 60, 60
4, 545760, Note_off_c, 2, 60, 0
4, 545760, Note_off_c, 2, 58, 0
4, 545760, Note_off_c, 2, 36, 0
4, 545760, Note_off_c, 2, 31, 0
4, 545760, Note_off_c, 2, 43, 0
4, 545760, Note_on_c, 2, 29, 63
4, 545760, Note_on_c, 2, 41, 63
4, 545760, Note_on_c, 2, 36, 63
4, 545760, Note_on_c, 2, 56, 63
4, 545760, Note_on_c, 2, 60, 63
4, 546240, Note_off_c, 2, 60, 0
4, 546240, Note_off_c, 2, 56, 0
4, 546240, Note_off_c, 2, 36, 0
4, 546240, Note_off_c, 2, 41, 0
4, 546240, Note_off_c, 2, 29, 0
4, 546240, Note_on_c, 2, 40, 68
4, 546240, Note_on_c, 2, 36, 68
4, 546240, Note_on_c, 2, 28, 68
4, 546240, Note_on_c, 2, 55, 68
4, 546240, Note_on_c, 2, 60, 68
4, 546720, Note_off_c, 2, 60, 0
4, 546720, Note_off_c, 2, 55, 0
4, 546720, Note_off_c, 2, 28, 0
4, 546720, Note_off_c, 2, 36, 0
4, 546720, Note_off_c, 2, 40, 0
4, 551040, Note_on_c, 2, 55, 41
4, 551040, Note_on_c, 2, 52, 41
4, 551160, Note_on_c, 2, 60, 41
4, 551270, Note_off_c, 2, 52, 0
4, 551270, Note_off_c, 2, 55, 0
4, 551280, Note_off_c, 2, 60, 0
4, 551280, Note_on_c, 2, 55, 41
4, 551280, Note_on_c, 2, 52, 41
4, 551400, Note_on_c, 2, 60, 41
4, 551510, Note_off_c, 2, 52, 0
4, 551510, Note_off_c, 2, 55, 0
4, 551520, Note_off_c, 2, 60, 0
4, 551520, Note_on_c, 2, 55, 41
4, 551520, Note_on_c, 2, 52, 41
4, 551640, Note_on_c, 2, 60, 41
4, 551750, Note_off_c, 2, 52, 0
4, 551750, Note_off_c, 2, 55, 0
4, 551760, Note_off_c, 2, 60, 0
4, 551760, Note_on_c, 2, 55, 40
4, 551760, Note_on_c, 2, 52, 40
4, 551880, Note_on_c, 2, 60, 40
4, 551990, Note_off_c, 2, 52, 0
4, 551990, Note_off_c, 2, 55, 0
4, 552000, Note_off_c, 2, 60, 0
4, 552000, Note_on_c, 2, 55, 40
4, 552000, Note_on_c, 2, 52, 40
4, 552120, Note_on_c, 2, 60, 40
4, 552230, Note_off_c, 2, 52, 0
4, 552230, Note_off_c, 2, 55, 0
4, 552240, Note_off_c, 2, 60, 0
4, 552240, Note_on_c, 2, 55, 40
4, 552240, Note_on_c, 2, 52, 40
4, 552360, Note_on_c, 2, 60, 40
4, 552470, Note_off_c, 2, 52, 0
4, 552470, Note_off_c, 2, 55, 0
4, 552480, Note_off_c, 2, 60, 0
4, 552480, Note_on_c, 2, 53, 39
4, 552480, Note_on_c, 2, 57, 39
4, 552600, Note_on_c, 2, 60, 39
4, 552710, Note_off_c, 2, 57, 0
4, 552710, Note_off_c, 2, 53, 0
4, 552720, Note_off_c, 2, 60, 0
4, 552720, Note_on_c, 2, 57, 39
4, 552720, Note_on_c, 2, 53, 39
4, 552840, Note_on_c, 2, 60, 39
4, 552950, Note_off_c, 2, 53, 0
4, 552950, Note_off_c, 2, 57, 0
4, 552960, Note_off_c, 2, 60, 0
4, 552960, Note_on_c, 2, 55, 39
4, 552960, Note_on_c, 2, 58, 39
4, 553080, Note_on_c, 2, 60, 39
4, 553190, Note_off_c, 2, 58, 0
4, 553190, Note_off_c, 2, 55, 0
4, 553200, Note_off_c, 2, 60, 0
4, 553200, Note_on_c, 2, 55, 38
4, 553200, Note_on_c, 2, 58, 38
4, 553320, Note_on_c, 2, 60, 38
4, 553430, Note_off_c, 2, 58, 0
4, 553430, Note_off_c, 2, 55, 0
4, 553440, Note_off_c, 2, 60, 0
4, 553440, Note_on_c, 2, 58, 38
4, 553440, Note_on_c, 2, 55, 38
4, 553560, Note_on_c, 2, 60, 38
4, 553670, Note_off_c, 2, 55, 0
4, 553670, Note_off_c, 2, 58, 0
4, 553680, Note_off_c, 2, 60, 0
4, 553680, Note_on_c, 2, 55, 38
4, 553680, Note_on_c, 2, 58, 38
4, 553800, Note_on_c, 2, 60, 38
4, 553910, Note_off_c, 2, 58, 0
4, 553910, Note_off_c, 2, 55, 0
4, 553920, Note_off_c, 2, 60, 0
4, 553920, Note_on_c, 2, 58, 40
4, 553920, Note_on_c, 2, 55, 40
4, 554040, Note_on_c, 2, 60, 41
4, 554150, Note_off_c, 2, 55, 0
4, 554150, Note_off_c, 2, 58, 0
4, 554160, Note_off_c, 2, 60, 0
4, 554160, Note_on_c, 2, 57, 43
4, 554160, Note_on_c, 2, 53, 43
4, 554280, Note_on_c, 2, 60, 44
4, 554390, Note_off_c, 2, 53, 0
4, 554390, Note_off_c, 2, 57, 0
4, 554400, Note_off_c, 2, 60, 0
4, 554400, Note_on_c, 2, 52, 46
4, 554400, Note_on_c, 2, 55, 46
4, 554520, Note_on_c, 2, 60, 47
4, 554630, Note_off_c, 2, 55, 0
4, 554630, Note_off_c, 2, 52, 0
4, 554640, Note_off_c, 2, 60, 0
4, 554640, Note_on_c, 2, 55, 49
4, 554640, Note_on_c, 2, 52, 49
4, 554760, Note_on_c, 2, 60, 50
4, 554870, Note_off_c, 2, 52, 0
4, 554870, Note_off_c, 2, 55, 0
4, 554880, Note_off_c, 2, 60, 0
4, 554880, Note_on_c, 2, 55, 53
4, 554880, Note_on_c, 2, 52, 53
4, 555000, Note_on_c, 2, 60, 50
4, 555110, Note_off_c, 2, 52, 0
4, 555110, Note_off_c, 2, 55, 0
4, 555120, Note_off_c, 2, 60, 0
4, 555120, Note_on_c, 2, 55, 47
4, 555120, Note_on_c, 2, 52, 47
4, 555240, Note_on_c, 2, 60, 45
4, 555350, Note_off_c, 2, 52, 0
4, 555350, Note_off_c, 2, 55, 0
4, 555360, Note_off_c, 2, 60, 0
4, 555360, Note_on_c, 2, 55, 45
4, 555360, Note_on_c, 2, 52, 45
4, 555480, Note_on_c, 2, 60, 44
4, 555590, Note_off_c, 2, 52, 0
4, 555590, Note_off_c, 2, 55, 0
4, 555600, Note_off_c, 2, 60, 0
4, 555600, Note_on_c, 2, 55, 44
4, 555600, Note_on_c, 2, 52, 44
4, 555720, Note_on_c, 2, 60, 44
4, 555830, Note_off_c, 2, 52, 0
4, 555830, Note_off_c, 2, 55, 0
4, 555840, Note_off_c, 2, 60, 0
4, 555840, Note_on_c, 2, 55, 43
4, 555840, Note_on_c, 2, 52, 43
4, 555960, Note_on_c, 2, 60, 43
4, 556070, Note_off_c, 2, 52, 0
4, 556070, Note_off_c, 2, 55, 0
4, 556080, Note_off_c, 2, 60, 0
4, 556080, Note_on_c, 2, 55, 42
4, 556080, Note_on_c, 2, 52, 42
4, 556200, Note_on_c, 2, 60, 42
4, 556310, Note_off_c, 2, 52, 0
4, 556310, Note_off_c, 2, 55, 0
4, 556320, Note_off_c, 2, 60, 0
4, 556320, Note_on_c, 2, 53, 42
4, 556320, Note_on_c, 2, 57, 42
4, 556440, Note_on_c, 2, 60, 41
4, 556550, Note_off_c, 2, 57, 0
4, 556550, Note_off_c, 2, 53, 0
4, 556560, Note_off_c, 2, 60, 0
4, 556560, Note_on_c, 2, 57, 41
4, 556560, Note_on_c, 2, 53, 41
4, 556680, Note_on_c, 2, 60, 41
4, 556790, Note_off_c, 2, 53, 0
4, 556790, Note_off_c, 2, 57, 0
4, 556800, Note_off_c, 2, 60, 0
4, 556800, Note_on_c, 2, 58, 40
4, 556800, Note_on_c, 2, 55, 40
4, 556920, Note_on_c, 2, 60, 40
4, 557030, Note_off_c, 2, 55, 0
4, 557030, Note_off_c, 2, 58, 0
4, 557040, Note_off_c, 2, 60, 0
4, 557040, Note_on_c, 2, 58, 39
4, 557040, Note_on_c, 2, 55, 39
4, 557160, Note_on_c, 2, 60, 39
4, 557270, Note_off_c, 2, 55, 0
4, 557270, Note_off_c, 2, 58, 0
4, 557280, Note_off_c, 2, 60, 0
4, 557280, Note_on_c, 2, 58, 39
4, 557280, Note_on_c, 2, 55, 39
4, 557400, Note_on_c, 2, 60, 38
4, 557510, Note_off_c, 2, 55, 0
4, 557510, Note_off_c, 2, 58, 0
4, 557520, Note_off_c, 2, 60, 0
4, 557520, Note_on_c, 2, 58, 38
4, 557520, Note_on_c, 2, 55, 38
4, 557640, Note_on_c, 2, 60, 38
4, 557750, Note_off_c, 2, 55, 0
4, 557750, Note_off_c, 2, 58, 0
4, 557760, Note_off_c, 2, 60, 0
4, 557760, Note_on_c, 2, 58, 44
4, 557760, Note_on_c, 2, 55, 44
4, 557880, Note_on_c, 2, 60, 47
4, 557990, Note_off_c, 2, 55, 0
4, 557990, Note_off_c, 2, 58, 0
4, 558000, Note_off_c, 2, 60, 0
4, 558000, Note_on_c, 2, 56, 50
4, 558000, Note_on_c, 2, 53, 50
4, 558120, Note_on_c, 2, 60, 53
4, 558230, Note_off_c, 2, 53, 0
4, 558230, Note_off_c, 2, 56, 0
4, 558240, Note_off_c, 2, 60, 0
4, 558240, Note_on_c, 2, 55, 56
4, 558240, Note_on_c, 2, 52, 56
4, 558360, Note_on_c, 2, 60, 60
4, 558470, Note_off_c, 2, 52, 0
4, 558470, Note_off_c, 2, 55, 0
4, 558480, Note_off_c, 2, 60, 0
4, 558480, Note_on_c, 2, 55, 63
4, 558480, Note_on_c, 2, 52, 63
4, 558600, Note_on_c, 2, 60, 66
4, 558710, Note_off_c, 2, 52, 0
4, 558710, Note_off_c, 2, 55, 0
4, 558720, Note_off_c, 2, 60, 0
4, 558720, Note_on_c, 2, 56, 81
4, 558720, Note_on_c, 2, 53, 81
4, 558798, Note_off_c, 2, 53, 0
4, 558798, Note_off_c, 2, 56, 0
4, 558840, Note_on_c, 2, 60, 78
4, 558918, Note_off_c, 2, 60, 0
4, 558960, Note_on_c, 2, 64, 75
4, 559038, Note_off_c, 2, 64, 0
4, 559080, Note_on_c, 2, 65, 72
4, 559158, Note_off_c, 2, 65, 0
4, 559200, Note_on_c, 2, 60, 69
4, 559278, Note_off_c, 2, 60, 0
4, 559320, Note_on_c, 2, 56, 67
4, 559398, Note_off_c, 2, 56, 0
4, 559440, Note_on_c, 2, 55, 66
4, 559518, Note_off_c, 2, 55, 0
4, 559560, Note_on_c, 2, 53, 65
4, 559638, Note_off_c, 2, 53, 0
4, 559680, Note_on_c, 2, 48, 64
4, 559680, Note_on_c, 2, 52, 64
4, 559758, Note_off_c, 2, 52, 0
4, 559758, Note_off_c, 2, 48, 0
4, 559800, Note_on_c, 2, 55, 62
4, 559878, Note_off_c, 2, 55, 0
4, 559920, Note_on_c, 2, 58, 61
4, 559998, Note_off_c, 2, 58, 0
4, 560040, Note_on_c, 2, 48, 60
4, 560118, Note_off_c, 2, 48, 0
4, 560160, Note_on_c, 2, 49, 58
4, 560238, Note_off_c, 2, 49, 0
4, 560280, Note_on_c, 2, 53, 57
4, 560358, Note_off_c, 2, 53, 0
4, 560400, Note_on_c, 2, 56, 56
4, 560478, Note_off_c, 2, 56, 0
4, 560520, Note_on_c, 2, 49, 54
4, 560598, Note_off_c, 2, 49, 0
4, 560640, Note_on_c, 2, 49, 81
4, 560640, Note_on_c, 2, 53, 81
4, 560718, Note_off_c, 2, 53, 0
4, 560718, Note_off_c, 2, 49, 0
4, 560760, Note_on_c, 2, 56, 77
4, 560838, Note_off_c, 2, 56, 0
4, 560880, Note_on_c, 2, 60, 73
4, 560958, Note_off_c, 2, 60, 0
4, 561000, Note_on_c, 2, 61, 69
4, 561078, Note_off_c, 2, 61, 0
4, 561120, Note_on_c, 2, 56, 65
4, 561198, Note_off_c, 2, 56, 0
4, 561240, Note_on_c, 2, 53, 64
4, 561318, Note_off_c, 2, 53, 0
4, 561360, Note_on_c, 2, 51, 63
4, 561438, Note_off_c, 2, 51, 0
4, 561480, Note_on_c, 2, 49, 61
4, 561558, Note_off_c, 2, 49, 0
4, 561600, Note_on_c, 2, 45, 60
4, 561600, Note_on_c, 2, 41, 60
4, 561678, Note_off_c, 2, 41, 0
4, 561678, Note_off_c, 2, 45, 0
4, 561720, Note_on_c, 2, 48, 59
4, 561798, Note_off_c, 2, 48, 0
4, 561840, Note_on_c, 2, 53, 58
4, 561918, Note_off_c, 2, 53, 0
4, 561960, Note_on_c, 2, 45, 57
4, 562038, Note_off_c, 2, 45, 0
4, 562080, Note_on_c, 2, 46, 55
4, 562158, Note_off_c, 2, 46, 0
4, 562200, Note_on_c, 2, 49, 54
4, 562278, Note_off_c, 2, 49, 0
4, 562320, Note_on_c, 2, 53, 53
4, 562398, Note_off_c, 2, 53, 0
4, 562440, Note_on_c, 2, 46, 52
4, 562518, Note_off_c, 2, 46, 0
4, 562560, Control_c, 2, 64, 127
4, 562560, Note_on_c, 2, 43, 61
4, 562560, Note_on_c, 2, 56, 61
4, 562560, Note_on_c, 2, 68, 61
4, 562560, Note_on_c, 2, 65, 61
4, 562560, Note_on_c, 2, 62, 61
4, 563040, Note_off_c, 2, 56, 0
4, 563040, Note_on_c, 2, 47, 56
4, 563520, Note_off_c, 2, 47, 0
4, 563520, Note_on_c, 2, 50, 51
4, 564000, Note_off_c, 2, 50, 0
4, 564000, Note_on_c, 2, 47, 46
4, 564480, Control_c, 2, 64, 0
4, 564480, Note_off_c, 2, 47, 0
4, 564480, Note_off_c, 2, 62, 0
4, 564480, Note_off_c, 2, 65, 0
4, 564480, Note_off_c, 2, 68, 0
4, 564480, Note_off_c, 2, 43, 0
4, 566340, Note_on_c, 2, 47, 50
4, 566400, Control_c, 2, 64, 127
4, 566400, Note_on_c, 2, 62, 50
4, 566400, Note_on_c, 2, 68, 50
4, 566400, Note_on_c, 2, 65, 50
4, 566880, Note_off_c, 2, 62, 0
4, 566880, Note_on_c, 2, 53, 46
4, 567360, Note_off_c, 2, 53, 0
4, 567360, Note_on_c, 2, 56, 41
4, 567840, Note_off_c, 2, 56, 0
4, 567840, Note_on_c, 2, 53, 37
4, 568320, Control_c, 2, 64, 0
4, 568320, Note_off_c, 2, 53, 0
4, 568320, Note_off_c, 2, 65, 0
4, 568320, Note_off_c, 2, 68, 0
4, 568320, Note_off_c, 2, 47, 0
4, 570120, Control_c, 2, 64, 127
4, 570120, Note_on_c, 2, 46, 51
4, 570240, Note_on_c, 2, 62, 49
4, 570720, Note_off_c, 2, 62, 0
4, 570720, Note_on_c, 2, 50, 47
4, 571200, Note_off_c, 2, 50, 0
4, 571200, Note_on_c, 2, 62, 45
4, 571680, Note_off_c, 2, 62, 0
4, 571680, Note_on_c, 2, 56, 43
4, 572160, Note_off_c, 2, 56, 0
4, 572160, Note_on_c, 2, 65, 41
4, 572640, Note_off_c, 2, 65, 0
4, 572640, Note_on_c, 2, 62, 39
4, 573120, Note_off_c, 2, 62, 0
4, 573120, Note_on_c, 2, 68, 37
4, 573600, Note_off_c, 2, 68, 0
4, 573600, Note_off_c, 2, 46, 0
4, 573600, Note_on_c, 2, 65, 35
4, 574080, Control_c, 2, 64, 0
4, 574080, Control_c, 2, 7, 117
4, 574080, Note_off_c, 2, 65, 0
4, 574080, Note_on_c, 2, 58, 95
4, 574080, Note_on_c, 2, 68, 95
4, 574080, Note_on_c, 2, 65, 95
4, 574080, Note_on_c, 2, 62, 95
4, 574320, Note_on_c, 2, 46, 80
4, 574416, Note_off_c, 2, 46, 0
4, 574440, Note_off_c, 2, 62, 0
4, 574440, Note_off_c, 2, 65, 0
4, 574440, Note_off_c, 2, 68, 0
4, 574440, Note_off_c, 2, 58, 0
4, 574440, Note_on_c, 2, 50, 81
4, 574536, Note_off_c, 2, 50, 0
4, 574560, Note_on_c, 2, 46, 81
4, 574656, Note_off_c, 2, 46, 0
4, 574680, Note_on_c, 2, 50, 82
4, 574776, Note_off_c, 2, 50, 0
4, 574800, Note_on_c, 2, 50, 83
4, 574896, Note_off_c, 2, 50, 0
4, 574920, Note_on_c, 2, 53, 83
4, 575016, Note_off_c, 2, 53, 0
4, 575040, Note_on_c, 2, 50, 84
4, 575136, Note_off_c, 2, 50, 0
4, 575160, Note_on_c, 2, 53, 85
4, 575256, Note_off_c, 2, 53, 0
4, 575280, Note_on_c, 2, 50, 85
4, 575376, Note_off_c, 2, 50, 0
4, 575400, Note_on_c, 2, 53, 86
4, 575496, Note_off_c, 2, 53, 0
4, 575520, Note_on_c, 2, 53, 87
4, 575616, Note_off_c, 2, 53, 0
4, 575640, Note_on_c, 2, 56, 87
4, 575736, Note_off_c, 2, 56, 0
4, 575760, Note_on_c, 2, 53, 88
4, 575856, Note_off_c, 2, 53, 0
4, 575880, Note_on_c, 2, 56, 89
4, 575976, Note_off_c, 2, 56, 0
4, 576000, Note_on_c, 2, 53, 90
4, 576096, Note_off_c, 2, 53, 0
4, 576120, Note_on_c, 2, 56, 90
4, 576216, Note_off_c, 2, 56, 0
4, 576240, Note_on_c, 2, 58, 91
4, 576336, Note_off_c, 2, 58, 0
4, 576360, Note_on_c, 2, 62, 92
4, 576456, Note_off_c, 2, 62, 0
4, 576480, Note_on_c, 2, 58, 92
4, 576576, Note_off_c, 2, 58, 0
4, 576600, Note_on_c, 2, 62, 93
4, 576696, Note_off_c, 2, 62, 0
4, 576720, Note_on_c, 2, 58, 94
4, 576816, Note_off_c, 2, 58, 0
4, 576840, Note_on_c, 2, 62, 94
4, 576936, Note_off_c, 2, 62, 0
4, 576960, Note_on_c, 2, 62, 95
4, 577056, Note_off_c, 2, 62, 0
4, 577080, Note_on_c, 2, 65, 96
4, 577176, Note_off_c, 2, 65, 0
4, 577200, Note_on_c, 2, 62, 96
4, 577296, Note_off_c, 2, 62, 0
4, 577320, Note_on_c, 2, 65, 97
4, 577416, Note_off_c, 2, 65, 0
4, 577440, Note_on_c, 2, 62, 98
4, 577536, Note_off_c, 2, 62, 0
4, 577560, Note_on_c, 2, 65, 98
4, 577656, Note_off_c, 2, 65, 0
4, 577680, Note_on_c, 2, 65, 99
4, 577776, Note_off_c, 2, 65, 0
4, 577800, Note_on_c, 2, 68, 100
4, 577896, Note_off_c, 2, 68, 0
4, 577920, Note_on_c, 2, 65, 101
4, 578016, Note_off_c, 2, 65, 0
4, 578040, Note_on_c, 2, 68, 101
4, 578136, Note_off_c, 2, 68, 0
4, 578160, Note_on_c, 2, 65, 102
4, 578256, Note_off_c, 2, 65, 0
4, 578280, Note_on_c, 2, 68, 103
4, 578376, Note_off_c, 2, 68, 0
4, 578400, Note_on_c, 2, 74, 103
4, 578496, Note_off_c, 2, 74, 0
4, 578520, Note_on_c, 2, 77, 104
4, 578616, Note_off_c, 2, 77, 0
4, 578640, Note_on_c, 2, 74, 105
4, 578736, Note_off_c, 2, 74, 0
4, 578760, Note_on_c, 2, 77, 105
4, 578856, Note_off_c, 2, 77, 0
4, 578880, Note_on_c, 2, 74, 106
4, 578976, Note_off_c, 2, 74, 0
4, 579000, Note_on_c, 2, 77, 107
4, 579096, Note_off_c, 2, 77, 0
4, 579120, Note_on_c, 2, 77, 107
4, 579216, Note_off_c, 2, 77, 0
4, 579240, Note_on_c, 2, 80, 108
4, 579336, Note_off_c, 2, 80, 0
4, 579360, Note_on_c, 2, 77, 109
4, 579456, Note_off_c, 2, 77, 0
4, 579480, Note_on_c, 2, 80, 109
4, 579576, Note_off_c, 2, 80, 0
4, 579600, Note_on_c, 2, 77, 110
4, 579696, Note_off_c, 2, 77, 0
4, 579720, Note_on_c, 2, 80, 111
4, 579816, Note_off_c, 2, 80, 0
4, 580320, Note_on_c, 2, 77, 104
4, 580320, Note_on_c, 2, 80, 104
4, 580560, Note_off_c, 2, 80, 0
4, 580560, Note_off_c, 2, 77, 0
4, 580560, Note_on_c, 2, 77, 102
4, 580560, Note_on_c, 2, 74, 102
4, 581040, Note_off_c, 2, 74, 0
4, 581040, Note_off_c, 2, 77, 0
4, 581760, Note_on_c, 2, 77, 95
4, 581760, Note_on_c, 2, 80, 95
4, 582000, Note_off_c, 2, 80, 0
4, 582000, Note_off_c, 2, 77, 0
4, 582000, Note_on_c, 2, 74, 94
4, 582000, Note_on_c, 2, 77, 94
4, 582480, Note_off_c, 2, 77, 0
4, 582480, Note_off_c, 2, 74, 0
4, 583200, Note_on_c, 2, 68, 86
4, 583200, Note_on_c, 2, 65, 86
4, 583440, Note_off_c, 2, 65, 0
4, 583440, Note_off_c, 2, 68, 0
4, 583440, Note_on_c, 2, 65, 85
4, 583440, Note_on_c, 2, 62, 85
4, 583920, Note_off_c, 2, 62, 0
4, 583920, Note_off_c, 2, 65, 0
4, 584640, Note_on_c, 2, 65, 78
4, 584640, Note_on_c, 2, 68, 78
4, 584880, Note_off_c, 2, 68, 0
4, 584880, Note_off_c, 2, 65, 0
4, 584880, Note_on_c, 2, 62, 76
4, 584880, Note_on_c, 2, 65, 76
4, 585360, Note_off_c, 2, 65, 0
4, 585360, Note_off_c, 2, 62, 0
4, 585600, Note_on_c, 2, 46, 95
4, 585600, Note_on_c, 2, 50, 95
4, 585600, Note_on_c, 2, 53, 95
4, 585600, Note_on_c, 2, 56, 95
4, 585825, Note_off_c, 2, 50, 0
4, 585825, Note_off_c, 2, 46, 0
4, 585832, Note_off_c, 2, 56, 0
4, 585832, Note_off_c, 2, 53, 0
4, 585840, Note_on_c, 2, 46, 89
4, 585996, Note_off_c, 2, 46, 0
4, 586080, Note_on_c, 2, 46, 86
4, 586236, Note_off_c, 2, 46, 0
4, 586320, Note_on_c, 2, 50, 83
4, 586476, Note_off_c, 2, 50, 0
4, 586560, Note_on_c, 2, 53, 80
4, 586716, Note_off_c, 2, 53, 0
4, 586800, Note_on_c, 2, 58, 77
4, 586956, Note_off_c, 2, 58, 0
4, 587040, Note_on_c, 2, 62, 74
4, 587196, Note_off_c, 2, 62, 0
4, 587280, Note_on_c, 2, 65, 71
4, 587436, Note_off_c, 2, 65, 0
4, 587520, Note_on_c, 2, 68, 68
4, 587520, Note_on_c, 2, 70, 68
4, 587676, Note_off_c, 2, 70, 0
4, 587676, Note_off_c, 2, 68, 0
4, 587760, Note_on_c, 2, 70, 65
4, 587760, Note_on_c, 2, 68, 65
4, 587916, Note_off_c, 2, 68, 0
4, 587916, Note_off_c, 2, 70, 0
4, 588000, Note_on_c, 2, 68, 62
4, 588000, Note_on_c, 2, 70, 62
4, 588156, Note_off_c, 2, 70, 0
4, 588156, Note_off_c, 2, 68, 0
4, 588240, Note_on_c, 2, 70, 59
4, 588240, Note_on_c, 2, 68, 59
4, 588396, Note_off_c, 2, 68, 0
4, 588396, Note_off_c, 2, 70, 0
4, 588480, Note_on_c, 2, 63, 52
4, 588480, Note_on_c, 2, 70, 52
4, 588480, Note_on_c, 2, 67, 52
4, 588960, Note_off_c, 2, 67, 0
4, 588960, Note_off_c, 2, 70, 0
4, 588960, Note_off_c, 2, 63, 0
4, 589200, Note_on_c, 2, 70, 53
4, 589200, Note_on_c, 2, 62, 53
4, 589200, Note_on_c, 2, 65, 53
4, 589200, Note_on_c, 2, 68, 53
4, 589680, Note_off_c, 2, 68, 0
4, 589680, Note_off_c, 2, 65, 0
4, 589680, Note_off_c, 2, 62, 0
4, 589680, Note_off_c, 2, 70, 0
4, 589920, Note_on_c, 2, 70, 55
4, 589920, Note_on_c, 2, 63, 55
4, 589920, Note_on_c, 2, 67, 55
4, 590400, Note_off_c, 2, 67, 0
4, 590400, Note_off_c, 2, 63, 0
4, 590400, Note_off_c, 2, 70, 0
4, 591120, Note_on_c, 2, 70, 57
4, 591120, Note_on_c, 2, 67, 57
4, 591120, Note_on_c, 2, 72, 57
4, 591120, Note_on_c, 2, 64, 57
4, 591360, Note_off_c, 2, 64, 0
4, 591360, Note_off_c, 2, 72, 0
4, 591360, Note_off_c, 2, 67, 0
4, 591360, Note_off_c, 2, 70, 0
4, 591360, Note_on_c, 2, 68, 58
4, 591360, Note_on_c, 2, 72, 58
4, 591360, Note_on_c, 2, 65, 58
4, 591840, Note_off_c, 2, 65, 0
4, 591840, Note_off_c, 2, 72, 0
4, 591840, Note_off_c, 2, 68, 0
4, 592080, Note_on_c, 2, 70, 59
4, 592080, Note_on_c, 2, 67, 59
4, 592080, Note_on_c, 2, 60, 59
4, 592080, Note_on_c, 2, 72, 59
4, 592560, Note_off_c, 2, 72, 0
4, 592560, Note_off_c, 2, 60, 0
4, 592560, Note_off_c, 2, 67, 0
4, 592560, Note_off_c, 2, 70, 0
4, 592800, Note_on_c, 2, 68, 61
4, 592800, Note_on_c, 2, 72, 61
4, 592800, Note_on_c, 2, 65, 61
4, 593280, Note_off_c, 2, 65, 0
4, 593280, Note_off_c, 2, 72, 0
4, 593280, Note_off_c, 2, 68, 0
4, 594000, Note_on_c, 2, 70, 61
4, 594000, Note_on_c, 2, 62, 61
4, 594000, Note_on_c, 2, 68, 61
4, 594000, Note_on_c, 2, 65, 61
4, 594240, Note_off_c, 2, 65, 0
4, 594240, Note_off_c, 2, 68, 0
4, 594240, Note_off_c, 2, 62, 0
4, 594240, Note_off_c, 2, 70, 0
4, 594240, Note_on_c, 2, 70, 60
4, 594240, Note_on_c, 2, 63, 60
4, 594240, Note_on_c, 2, 67, 60
4, 594720, Note_off_c, 2, 67, 0
4, 594720, Note_off_c, 2, 63, 0
4, 594720, Note_off_c, 2, 70, 0
4, 594960, Note_on_c, 2, 60, 58
4, 594960, Note_on_c, 2, 56, 58
4, 594960, Note_on_c, 2, 65, 58
4, 595440, Note_off_c, 2, 65, 0
4, 595440, Note_off_c, 2, 56, 0
4, 595440, Note_off_c, 2, 60, 0
4, 595680, Note_on_c, 2, 58, 56
4, 595680, Note_on_c, 2, 63, 56
4, 595680, Note_on_c, 2, 67, 56
4, 596160, Note_off_c, 2, 67, 0
4, 596160, Note_off_c, 2, 63, 0
4, 596160, Note_off_c, 2, 58, 0
4, 596400, Note_on_c, 2, 62, 54
4, 596400, Note_on_c, 2, 58, 54
4, 596400, Note_on_c, 2, 65, 54
4, 596880, Note_off_c, 2, 65, 0
4, 596880, Note_off_c, 2, 58, 0
4, 596880, Note_off_c, 2, 62, 0
4, 596880, Note_on_c, 2, 58, 52
4, 597120, Note_off_c, 2, 58, 0
4, 597120, Note_on_c, 2, 58, 52
4, 597360, Note_off_c, 2, 58, 0
4, 597360, Note_on_c, 2, 55, 50
4, 597600, Note_off_c, 2, 55, 0
4, 597600, Note_on_c, 2, 51, 51
4, 597840, Note_off_c, 2, 51, 0
4, 597840, Note_on_c, 2, 50, 51
4, 598080, Note_off_c, 2, 50, 0
4, 598080, Note_on_c, 2, 53, 52
4, 598320, Note_off_c, 2, 53, 0
4, 598320, Note_on_c, 2, 58, 53
4, 598560, Note_off_c, 2, 58, 0
4, 598560, Note_on_c, 2, 58, 53
4, 598800, Note_off_c, 2, 58, 0
4, 598800, Note_on_c, 2, 55, 54
4, 599040, Note_off_c, 2, 55, 0
4, 599040, Note_on_c, 2, 51, 54
4, 599280, Note_off_c, 2, 51, 0
4, 599280, Note_on_c, 2, 51, 55
4, 599520, Note_off_c, 2, 51, 0
4, 599520, Note_on_c, 2, 55, 56
4, 599760, Note_off_c, 2, 55, 0
4, 599760, Note_on_c, 2, 60, 56
4, 599760, Note_on_c, 2, 52, 56
4, 600000, Note_off_c, 2, 52, 0
4, 600000, Note_off_c, 2, 60, 0
4, 600000, Note_on_c, 2, 60, 57
4, 600000, Note_on_c, 2, 53, 57
4, 600240, Note_off_c, 2, 53, 0
4, 600240, Note_off_c, 2, 60, 0
4, 600240, Note_on_c, 2, 56, 58
4, 600480, Note_off_c, 2, 56, 0
4, 600480, Note_on_c, 2, 53, 58
4, 600720, Note_off_c, 2, 53, 0
4, 600720, Note_on_c, 2, 52, 59
4, 600960, Note_off_c, 2, 52, 0
4, 600960, Note_on_c, 2, 55, 60
4, 601200, Note_off_c, 2, 55, 0
4, 601200, Note_on_c, 2, 60, 60
4, 601440, Note_off_c, 2, 60, 0
4, 601440, Note_on_c, 2, 60, 61
4, 601680, Note_off_c, 2, 60, 0
4, 601680, Note_on_c, 2, 56, 62
4, 601920, Note_off_c, 2, 56, 0
4, 601920, Note_on_c, 2, 53, 62
4, 602160, Note_off_c, 2, 53, 0
4, 602160, Note_on_c, 2, 50, 63
4, 602400, Note_off_c, 2, 50, 0
4, 602400, Note_on_c, 2, 53, 64
4, 602640, Note_off_c, 2, 53, 0
4, 602640, Note_on_c, 2, 50, 64
4, 602640, Note_on_c, 2, 58, 64
4, 602880, Note_off_c, 2, 58, 0
4, 602880, Note_off_c, 2, 50, 0
4, 602880, Note_on_c, 2, 58, 65
4, 602880, Note_on_c, 2, 51, 65
4, 603120, Note_off_c, 2, 51, 0
4, 603120, Note_off_c, 2, 58, 0
4, 603120, Note_on_c, 2, 55, 66
4, 603360, Note_off_c, 2, 55, 0
4, 603360, Note_on_c, 2, 51, 66
4, 603600, Note_off_c, 2, 51, 0
4, 603600, Note_on_c, 2, 48, 67
4, 603600, Note_on_c, 2, 44, 67
4, 603840, Note_off_c, 2, 44, 0
4, 603840, Note_off_c, 2, 48, 0
4, 603840, Note_on_c, 2, 53, 67
4, 604080, Note_off_c, 2, 53, 0
4, 604080, Note_on_c, 2, 56, 68
4, 604320, Note_off_c, 2, 56, 0
4, 604320, Note_on_c, 2, 46, 69
4, 604560, Note_off_c, 2, 46, 0
4, 604560, Note_on_c, 2, 51, 69
4, 604800, Note_off_c, 2, 51, 0
4, 604800, Note_on_c, 2, 55, 70
4, 605040, Note_off_c, 2, 55, 0
4, 605040, Note_on_c, 2, 46, 71
4, 605280, Note_off_c, 2, 46, 0
4, 605280, Note_on_c, 2, 50, 71
4, 605520, Note_off_c, 2, 50, 0
4, 605520, Note_on_c, 2, 46, 72
4, 605520, Note_on_c, 2, 58, 72
4, 605760, Note_off_c, 2, 58, 0
4, 605760, Note_off_c, 2, 46, 0
4, 605760, Note_on_c, 2, 46, 73
4, 606000, Note_off_c, 2, 46, 0
4, 606000, Note_on_c, 2, 43, 73
4, 606240, Note_off_c, 2, 43, 0
4, 606240, Note_on_c, 2, 39, 74
4, 606480, Note_off_c, 2, 39, 0
4, 606480, Note_on_c, 2, 38, 75
4, 606720, Note_off_c, 2, 38, 0
4, 606720, Note_on_c, 2, 41, 75
4, 606960, Note_off_c, 2, 41, 0
4, 606960, Note_on_c, 2, 46, 76
4, 607200, Note_off_c, 2, 46, 0
4, 607200, Note_on_c, 2, 46, 77
4, 607440, Note_off_c, 2, 46, 0
4, 607440, Note_on_c, 2, 43, 77
4, 607680, Note_off_c, 2, 43, 0
4, 607680, Note_on_c, 2, 39, 78
4, 607920, Note_off_c, 2, 39, 0
4, 607920, Note_on_c, 2, 39, 78
4, 608160, Note_off_c, 2, 39, 0
4, 608160, Note_on_c, 2, 43, 79
4, 608400, Note_off_c, 2, 43, 0
4, 608400, Note_on_c, 2, 40, 94
4, 608400, Note_on_c, 2, 48, 94
4, 608640, Note_off_c, 2, 48, 0
4, 608640, Note_off_c, 2, 40, 0
4, 608640, Note_on_c, 2, 48, 80
4, 608640, Note_on_c, 2, 41, 80
4, 608880, Note_off_c, 2, 41, 0
4, 608880, Note_off_c, 2, 48, 0
4, 608880, Note_on_c, 2, 44, 81
4, 609120, Note_off_c, 2, 44, 0
4, 609120, Note_on_c, 2, 41, 82
4, 609360, Note_off_c, 2, 41, 0
4, 609360, Note_on_c, 2, 40, 82
4, 609600, Note_off_c, 2, 40, 0
4, 609600, Note_on_c, 2, 43, 83
4, 609840, Note_off_c, 2, 43, 0
4, 609840, Note_on_c, 2, 48, 84
4, 610080, Note_off_c, 2, 48, 0
4, 610080, Note_on_c, 2, 48, 84
4, 610320, Note_off_c, 2, 48, 0
4, 610320, Note_on_c, 2, 44, 85
4, 610560, Note_off_c, 2, 44, 0
4, 610560, Note_on_c, 2, 41, 86
4, 610800, Note_off_c, 2, 41, 0
4, 610800, Note_on_c, 2, 38, 86
4, 611040, Note_off_c, 2, 38, 0
4, 611040, Note_on_c, 2, 41, 87
4, 611280, Note_off_c, 2, 41, 0
4, 611280, Note_on_c, 2, 46, 108
4, 611280, Note_on_c, 2, 38, 108
4, 611520, Note_off_c, 2, 38, 0
4, 611520, Note_off_c, 2, 46, 0
4, 611520, Note_on_c, 2, 46, 110
4, 611520, Note_on_c, 2, 39, 110
4, 611760, Note_off_c, 2, 39, 0
4, 611760, Note_off_c, 2, 46, 0
4, 611760, Note_on_c, 2, 43, 89
4, 612000, Note_off_c, 2, 43, 0
4, 612000, Note_on_c, 2, 39, 89
4, 612240, Note_off_c, 2, 39, 0
4, 612240, Note_on_c, 2, 36, 112
4, 612240, Note_on_c, 2, 32, 112
4, 612480, Note_off_c, 2, 32, 0
4, 612480, Note_off_c, 2, 36, 0
4, 612480, Note_on_c, 2, 41, 91
4, 612720, Note_off_c, 2, 41, 0
4, 612720, Note_on_c, 2, 44, 91
4, 612960, Note_off_c, 2, 44, 0
4, 612960, Note_on_c, 2, 34, 116
4, 613200, Note_off_c, 2, 34, 0
4, 613200, Note_on_c, 2, 39, 93
4, 613440, Note_off_c, 2, 39, 0
4, 613440, Note_on_c, 2, 43, 93
4, 613680, Note_off_c, 2, 43, 0
4, 613680, Note_on_c, 2, 34, 119
4, 613920, Note_off_c, 2, 34, 0
4, 613920, Note_on_c, 2, 41, 95
4, 614160, Note_off_c, 2, 41, 0
4, 614160, Note_on_c, 2, 46, 95
4, 614400, Note_off_c, 2, 46, 0
4, 614400, Note_on_c, 2, 39, 120
4, 614640, Note_on_c, 2, 51, 90
4, 614640, Note_on_c, 2, 55, 90
4, 614880, Note_off_c, 2, 55, 0
4, 614880, Note_off_c, 2, 51, 0
4, 614880, Note_on_c, 2, 58, 90
4, 614880, Note_on_c, 2, 55, 90
4, 614880, Note_on_c, 2, 51, 90
4, 615120, Note_off_c, 2, 51, 0
4, 615120, Note_off_c, 2, 55, 0
4, 615120, Note_off_c, 2, 58, 0
4, 615120, Note_on_c, 2, 51, 91
4, 615120, Note_on_c, 2, 58, 91
4, 615120, Note_on_c, 2, 63, 91
4, 615120, Note_on_c, 2, 55, 91
4, 615360, Note_off_c, 2, 55, 0
4, 615360, Note_off_c, 2, 63, 0
4, 615360, Note_off_c, 2, 58, 0
4, 615360, Note_off_c, 2, 51, 0
4, 615360, Note_on_c, 2, 63, 92
4, 615360, Note_on_c, 2, 58, 92
4, 615360, Note_on_c, 2, 51, 92
4, 615360, Note_on_c, 2, 55, 92
4, 615600, Note_off_c, 2, 55, 0
4, 615600, Note_off_c, 2, 51, 0
4, 615600, Note_off_c, 2, 58, 0
4, 615600, Note_off_c, 2, 63, 0
4, 615600, Note_on_c, 2, 63, 93
4, 615600, Note_on_c, 2, 51, 93
4, 615600, Note_on_c, 2, 58, 93
4, 615600, Note_on_c, 2, 55, 93
4, 615840, Note_off_c, 2, 55, 0
4, 615840, Note_off_c, 2, 58, 0
4, 615840, Note_off_c, 2, 51, 0
4, 615840, Note_off_c, 2, 63, 0
4, 615840, Note_on_c, 2, 51, 94
4, 615840, Note_on_c, 2, 63, 94
4, 615840, Note_on_c, 2, 58, 94
4, 615840, Note_on_c, 2, 55, 94
4, 616080, Note_off_c, 2, 55, 0
4, 616080, Note_off_c, 2, 58, 0
4, 616080, Note_off_c, 2, 63, 0
4, 616080, Note_off_c, 2, 51, 0
4, 616080, Note_on_c, 2, 51, 94
4, 616080, Note_on_c, 2, 63, 94
4, 616080, Note_on_c, 2, 58, 94
4, 616080, Note_on_c, 2, 55, 94
4, 616320, Note_off_c, 2, 55, 0
4, 616320, Note_off_c, 2, 58, 0
4, 616320, Note_off_c, 2, 63, 0
4, 616320, Note_off_c, 2, 51, 0
4, 616320, Note_on_c, 2, 51, 95
4, 616320, Note_on_c, 2, 63, 95
4, 616320, Note_on_c, 2, 58, 95
4, 616320, Note_on_c, 2, 55, 95
4, 616560, Control_c, 2, 64, 0
4, 616560, Note_off_c, 2, 55, 0
4, 616560, Note_off_c, 2, 58, 0
4, 616560, Note_off_c, 2, 63, 0
4, 616560, Note_off_c, 2, 51, 0
4, 616560, Note_on_c, 2, 56, 96
4, 616560, Note_on_c, 2, 51, 96
4, 616560, Note_on_c, 2, 53, 96
4, 616560, Note_on_c, 2, 58, 96
4, 616560, Note_on_c, 2, 62, 96
4, 616800, Note_off_c, 2, 62, 0
4, 616800, Note_off_c, 2, 58, 0
4, 616800, Note_off_c, 2, 53, 0
4, 616800, Note_off_c, 2, 51, 0
4, 616800, Note_off_c, 2, 56, 0
4, 616800, Note_on_c, 2, 56, 97
4, 616800, Note_on_c, 2, 58, 97
4, 616800, Note_on_c, 2, 53, 97
4, 616800, Note_on_c, 2, 51, 97
4, 616800, Note_on_c, 2, 62, 97
4, 617040, Note_off_c, 2, 62, 0
4, 617040, Note_off_c, 2, 51, 0
4, 617040, Note_off_c, 2, 53, 0
4, 617040, Note_off_c, 2, 58, 0
4, 617040, Note_off_c, 2, 56, 0
4, 617040, Note_on_c, 2, 58, 97
4, 617040, Note_on_c, 2, 56, 97
4, 617040, Note_on_c, 2, 51, 97
4, 617040, Note_on_c, 2, 53, 97
4, 617040, Note_on_c, 2, 62, 97
4, 617280, Note_off_c, 2, 62, 0
4, 617280, Note_off_c, 2, 53, 0
4, 617280, Note_off_c, 2, 51, 0
4, 617280, Note_off_c, 2, 56, 0
4, 617280, Note_off_c, 2, 58, 0
4, 617280, Note_on_c, 2, 51, 99
4, 617280, Note_on_c, 2, 58, 99
4, 617280, Note_on_c, 2, 63, 99
4, 617280, Note_on_c, 2, 55, 99
4, 617520, Note_off_c, 2, 55, 0
4, 617520, Note_off_c, 2, 63, 0
4, 617520, Note_off_c, 2, 58, 0
4, 617520, Note_off_c, 2, 51, 0
4, 617520, Note_on_c, 2, 51, 99
4, 617520, Note_on_c, 2, 55, 99
4, 617520, Note_on_c, 2, 58, 99
4, 617520, Note_on_c, 2, 63, 99
4, 617760, Note_off_c, 2, 63, 0
4, 617760, Note_off_c, 2, 58, 0
4, 617760, Note_off_c, 2, 55, 0
4, 617760, Note_off_c, 2, 51, 0
4, 617760, Note_on_c, 2, 63, 98
4, 617760, Note_on_c, 2, 51, 98
4, 617760, Note_on_c, 2, 55, 98
4, 617760, Note_on_c, 2, 58, 98
4, 618000, Note_off_c, 2, 58, 0
4, 618000, Note_off_c, 2, 55, 0
4, 618000, Note_off_c, 2, 51, 0
4, 618000, Note_off_c, 2, 63, 0
4, 618000, Note_on_c, 2, 51, 97
4, 618000, Note_on_c, 2, 63, 97
4, 618000, Note_on_c, 2, 55, 97
4, 618000, Note_on_c, 2, 58, 97
4, 618240, Note_off_c, 2, 58, 0
4, 618240, Note_off_c, 2, 55, 0
4, 618240, Note_off_c, 2, 63, 0
4, 618240, Note_off_c, 2, 51, 0
4, 618240, Note_on_c, 2, 51, 97
4, 618240, Note_on_c, 2, 63, 97
4, 618240, Note_on_c, 2, 58, 97
4, 618240, Note_on_c, 2, 55, 97
4, 618480, Note_off_c, 2, 55, 0
4, 618480, Note_off_c, 2, 58, 0
4, 618480, Note_off_c, 2, 63, 0
4, 618480, Note_off_c, 2, 51, 0
4, 618480, Note_on_c, 2, 51, 96
4, 618480, Note_on_c, 2, 63, 96
4, 618480, Note_on_c, 2, 55, 96
4, 618480, Note_on_c, 2, 58, 96
4, 618720, Note_off_c, 2, 58, 0
4, 618720, Note_off_c, 2, 55, 0
4, 618720, Note_off_c, 2, 63, 0
4, 618720, Note_off_c, 2, 51, 0
4, 618720, Note_on_c, 2, 63, 95
4, 618720, Note_on_c, 2, 51, 95
4, 618720, Note_on_c, 2, 58, 95
4, 618720, Note_on_c, 2, 55, 95
4, 618960, Note_off_c, 2, 55, 0
4, 618960, Note_off_c, 2, 58, 0
4, 618960, Note_off_c, 2, 51, 0
4, 618960, Note_off_c, 2, 63, 0
4, 618960, Note_on_c, 2, 63, 94
4, 618960, Note_on_c, 2, 58, 94
4, 618960, Note_on_c, 2, 51, 94
4, 618960, Note_on_c, 2, 55, 94
4, 619200, Note_off_c, 2, 55, 0
4, 619200, Note_off_c, 2, 51, 0
4, 619200, Note_off_c, 2, 58, 0
4, 619200, Note_off_c, 2, 63, 0
4, 619200, Note_on_c, 2, 63, 94
4, 619200, Note_on_c, 2, 55, 94
4, 619200, Note_on_c, 2, 58, 94
4, 619200, Note_on_c, 2, 51, 94
4, 619440, Note_off_c, 2, 51, 0
4, 619440, Note_off_c, 2, 58, 0
4, 619440, Note_off_c, 2, 55, 0
4, 619440, Note_off_c, 2, 63, 0
4, 619440, Note_on_c, 2, 51, 93
4, 619440, Note_on_c, 2, 58, 93
4, 619440, Note_on_c, 2, 53, 93
4, 619440, Note_on_c, 2, 56, 93
4, 619600, Note_off_c, 2, 39, 0
4, 619680, Note_off_c, 2, 56, 0
4, 619680, Note_off_c, 2, 53, 0
4, 619680, Note_off_c, 2, 58, 0
4, 619680, Note_off_c, 2, 51, 0
4, 619680, Note_on_c, 2, 51, 92
4, 619680, Note_on_c, 2, 53, 92
4, 619680, Note_on_c, 2, 58, 92
4, 619680, Note_on_c, 2, 56, 92
4, 619920, Note_off_c, 2, 56, 0
4, 619920, Note_off_c, 2, 58, 0
4, 619920, Note_off_c, 2, 53, 0
4, 619920, Note_off_c, 2, 51, 0
4, 619920, Note_on_c, 2, 51, 92
4, 619920, Note_on_c, 2, 58, 92
4, 619920, Note_on_c, 2, 53, 92
4, 619920, Note_on_c, 2, 56, 92
4, 620160, Note_off_c, 2, 56, 0
4, 620160, Note_off_c, 2, 53, 0
4, 620160, Note_off_c, 2, 58, 0
4, 620160, Note_off_c, 2, 51, 0
4, 620160, Note_on_c, 2, 39, 120
4, 620400, Note_on_c, 2, 51, 89
4, 620400, Note_on_c, 2, 55, 89
4, 620640, Note_off_c, 2, 55, 0
4, 620640, Note_off_c, 2, 51, 0
4, 620640, Note_on_c, 2, 58, 90
4, 620640, Note_on_c, 2, 51, 90
4, 620640, Note_on_c, 2, 55, 90
4, 620880, Note_off_c, 2, 55, 0
4, 620880, Note_off_c, 2, 51, 0
4, 620880, Note_off_c, 2, 58, 0
4, 620880, Note_on_c, 2, 58, 90
4, 620880, Note_on_c, 2, 55, 90
4, 620880, Note_on_c, 2, 63, 90
4, 620880, Note_on_c, 2, 51, 90
4, 621120, Note_off_c, 2, 51, 0
4, 621120, Note_off_c, 2, 63, 0
4, 621120, Note_off_c, 2, 55, 0
4, 621120, Note_off_c, 2, 58, 0
4, 621120, Note_on_c, 2, 58, 91
4, 621120, Note_on_c, 2, 63, 91
4, 621120, Note_on_c, 2, 55, 91
4, 621120, Note_on_c, 2, 51, 91
4, 621360, Note_off_c, 2, 51, 0
4, 621360, Note_off_c, 2, 55, 0
4, 621360, Note_off_c, 2, 63, 0
4, 621360, Note_off_c, 2, 58, 0
4, 621360, Note_on_c, 2, 51, 92
4, 621360, Note_on_c, 2, 55, 92
4, 621360, Note_on_c, 2, 58, 92
4, 621360, Note_on_c, 2, 63, 92
4, 621600, Note_off_c, 2, 63, 0
4, 621600, Note_off_c, 2, 58, 0
4, 621600, Note_off_c, 2, 55, 0
4, 621600, Note_off_c, 2, 51, 0
4, 621600, Note_on_c, 2, 51, 93
4, 621600, Note_on_c, 2, 63, 93
4, 621600, Note_on_c, 2, 58, 93
4, 621600, Note_on_c, 2, 55, 93
4, 621840, Note_off_c, 2, 55, 0
4, 621840, Note_off_c, 2, 58, 0
4, 621840, Note_off_c, 2, 63, 0
4, 621840, Note_off_c, 2, 51, 0
4, 621840, Note_on_c, 2, 51, 94
4, 621840, Note_on_c, 2, 63, 94
4, 621840, Note_on_c, 2, 58, 94
4, 621840, Note_on_c, 2, 55, 94
4, 622080, Note_off_c, 2, 55, 0
4, 622080, Note_off_c, 2, 58, 0
4, 622080, Note_off_c, 2, 63, 0
4, 622080, Note_off_c, 2, 51, 0
4, 622080, Note_on_c, 2, 63, 95
4, 622080, Note_on_c, 2, 55, 95
4, 622080, Note_on_c, 2, 58, 95
4, 622080, Note_on_c, 2, 51, 95
4, 622320, Control_c, 2, 64, 0
4, 622320, Note_off_c, 2, 51, 0
4, 622320, Note_off_c, 2, 58, 0
4, 622320, Note_off_c, 2, 55, 0
4, 622320, Note_off_c, 2, 63, 0
4, 622320, Note_on_c, 2, 51, 96
4, 622320, Note_on_c, 2, 53, 96
4, 622320, Note_on_c, 2, 58, 96
4, 622320, Note_on_c, 2, 56, 96
4, 622320, Note_on_c, 2, 62, 96
4, 622560, Note_off_c, 2, 62, 0
4, 622560, Note_off_c, 2, 56, 0
4, 622560, Note_off_c, 2, 58, 0
4, 622560, Note_off_c, 2, 53, 0
4, 622560, Note_off_c, 2, 51, 0
4, 622560, Note_on_c, 2, 58, 96
4, 622560, Note_on_c, 2, 51, 96
4, 622560, Note_on_c, 2, 53, 96
4, 622560, Note_on_c, 2, 56, 96
4, 622560, Note_on_c, 2, 62, 96
4, 622800, Note_off_c, 2, 62, 0
4, 622800, Note_off_c, 2, 56, 0
4, 622800, Note_off_c, 2, 53, 0
4, 622800, Note_off_c, 2, 51, 0
4, 622800, Note_off_c, 2, 58, 0
4, 622800, Note_on_c, 2, 58, 97
4, 622800, Note_on_c, 2, 51, 97
4, 622800, Note_on_c, 2, 53, 97
4, 622800, Note_on_c, 2, 56, 97
4, 622800, Note_on_c, 2, 62, 97
4, 623040, Note_off_c, 2, 62, 0
4, 623040, Note_off_c, 2, 56, 0
4, 623040, Note_off_c, 2, 53, 0
4, 623040, Note_off_c, 2, 51, 0
4, 623040, Note_off_c, 2, 58, 0
4, 623040, Note_on_c, 2, 51, 99
4, 623040, Note_on_c, 2, 58, 99
4, 623040, Note_on_c, 2, 63, 99
4, 623040, Note_on_c, 2, 55, 99
4, 623280, Note_off_c, 2, 55, 0
4, 623280, Note_off_c, 2, 63, 0
4, 623280, Note_off_c, 2, 58, 0
4, 623280, Note_off_c, 2, 51, 0
4, 623280, Note_on_c, 2, 51, 98
4, 623280, Note_on_c, 2, 63, 98
4, 623280, Note_on_c, 2, 58, 98
4, 623280, Note_on_c, 2, 55, 98
4, 623520, Note_off_c, 2, 55, 0
4, 623520, Note_off_c, 2, 58, 0
4, 623520, Note_off_c, 2, 63, 0
4, 623520, Note_off_c, 2, 51, 0
4, 623520, Note_on_c, 2, 51, 97
4, 623520, Note_on_c, 2, 63, 97
4, 623520, Note_on_c, 2, 58, 97
4, 623520, Note_on_c, 2, 55, 97
4, 623760, Note_off_c, 2, 55, 0
4, 623760, Note_off_c, 2, 58, 0
4, 623760, Note_off_c, 2, 63, 0
4, 623760, Note_off_c, 2, 51, 0
4, 623760, Note_on_c, 2, 63, 96
4, 623760, Note_on_c, 2, 51, 96
4, 623760, Note_on_c, 2, 58, 96
4, 623760, Note_on_c, 2, 55, 96
4, 624000, Note_off_c, 2, 55, 0
4, 624000, Note_off_c, 2, 58, 0
4, 624000, Note_off_c, 2, 51, 0
4, 624000, Note_off_c, 2, 63, 0
4, 624000, Note_on_c, 2, 63, 96
4, 624000, Note_on_c, 2, 58, 96
4, 624000, Note_on_c, 2, 51, 96
4, 624000, Note_on_c, 2, 55, 96
4, 624240, Note_off_c, 2, 55, 0
4, 624240, Note_off_c, 2, 51, 0
4, 624240, Note_off_c, 2, 58, 0
4, 624240, Note_off_c, 2, 63, 0
4, 624240, Note_on_c, 2, 63, 95
4, 624240, Note_on_c, 2, 51, 95
4, 624240, Note_on_c, 2, 58, 95
4, 624240, Note_on_c, 2, 55, 95
4, 624480, Note_off_c, 2, 55, 0
4, 624480, Note_off_c, 2, 58, 0
4, 624480, Note_off_c, 2, 51, 0
4, 624480, Note_off_c, 2, 63, 0
4, 624480, Note_on_c, 2, 51, 94
4, 624480, Note_on_c, 2, 58, 94
4, 624480, Note_on_c, 2, 55, 94
4, 624720, Note_off_c, 2, 55, 0
4, 624720, Note_off_c, 2, 58, 0
4, 624720, Note_off_c, 2, 51, 0
4, 624720, Note_on_c, 2, 51, 93
4, 624720, Note_on_c, 2, 58, 93
4, 624720, Note_on_c, 2, 55, 93
4, 624960, Note_off_c, 2, 55, 0
4, 624960, Note_off_c, 2, 58, 0
4, 624960, Note_off_c, 2, 51, 0
4, 624960, Note_on_c, 2, 58, 92
4, 624960, Note_on_c, 2, 51, 92
4, 624960, Note_on_c, 2, 55, 92
4, 625200, Note_off_c, 2, 55, 0
4, 625200, Note_off_c, 2, 51, 0
4, 625200, Note_off_c, 2, 58, 0
4, 625200, Note_on_c, 2, 51, 91
4, 625200, Note_on_c, 2, 53, 91
4, 625360, Note_off_c, 2, 39, 0
4, 625440, Note_off_c, 2, 53, 0
4, 625440, Note_off_c, 2, 51, 0
4, 625440, Note_on_c, 2, 41, 90
4, 625440, Note_on_c, 2, 51, 90
4, 625440, Note_on_c, 2, 53, 90
4, 625680, Note_off_c, 2, 53, 0
4, 625680, Note_off_c, 2, 51, 0
4, 625680, Note_off_c, 2, 41, 0
4, 625680, Note_on_c, 2, 51, 89
4, 625680, Note_on_c, 2, 53, 89
4, 625680, Note_on_c, 2, 41, 89
4, 625920, Control_c, 2, 64, 0
4, 625920, Note_off_c, 2, 41, 0
4, 625920, Note_off_c, 2, 53, 0
4, 625920, Note_off_c, 2, 51, 0
4, 625920, Note_on_c, 2, 34, 120
4, 625920, Note_on_c, 2, 46, 120
4, 625980, Control_c, 2, 64, 127
4, 626400, Note_off_c, 2, 46, 0
4, 626400, Note_off_c, 2, 34, 0
4, 626640, Note_on_c, 2, 58, 116
4, 627120, Note_off_c, 2, 58, 0
4, 627360, Note_on_c, 2, 61, 113
4, 627840, Note_off_c, 2, 61, 0
4, 628080, Note_on_c, 2, 66, 110
4, 628560, Note_off_c, 2, 66, 0
4, 628800, Note_on_c, 2, 61, 108
4, 629280, Note_off_c, 2, 61, 0
4, 629520, Note_on_c, 2, 58, 105
4, 630000, Note_off_c, 2, 58, 0
4, 630240, Note_on_c, 2, 54, 102
4, 630720, Note_off_c, 2, 54, 0
4, 630960, Note_on_c, 2, 49, 99
4, 631440, Note_off_c, 2, 49, 0
4, 631620, Control_c, 2, 64, 0
4, 631680, Control_c, 2, 64, 127
4, 631680, Note_on_c, 2, 45, 120
4, 631680, Note_on_c, 2, 33, 120
4, 632160, Note_off_c, 2, 33, 0
4, 632160, Note_off_c, 2, 45, 0
4, 632400, Note_on_c, 2, 57, 114
4, 632880, Note_off_c, 2, 57, 0
4, 633120, Note_on_c, 2, 60, 111
4, 633600, Note_off_c, 2, 60, 0
4, 633840, Note_on_c, 2, 65, 108
4, 634320, Note_off_c, 2, 65, 0
4, 634560, Note_on_c, 2, 60, 105
4, 635040, Note_off_c, 2, 60, 0
4, 635280, Note_on_c, 2, 57, 101
4, 635760, Note_off_c, 2, 57, 0
4, 636000, Note_on_c, 2, 53, 98
4, 636480, Note_off_c, 2, 53, 0
4, 636720, Note_on_c, 2, 48, 95
4, 637200, Note_off_c, 2, 48, 0
4, 637380, Control_c, 2, 64, 0
4, 637440, Note_on_c, 2, 66, 40
4, 637440, Note_on_c, 2, 61, 40
4, 637440, Note_on_c, 2, 58, 40
4, 637680, Note_off_c, 2, 58, 0
4, 637680, Note_off_c, 2, 61, 0
4, 637680, Note_off_c, 2, 66, 0
4, 637680, Note_on_c, 2, 58, 41
4, 637680, Note_on_c, 2, 66, 41
4, 637680, Note_on_c, 2, 61, 41
4, 637920, Note_off_c, 2, 61, 0
4, 637920, Note_off_c, 2, 66, 0
4, 637920, Note_off_c, 2, 58, 0
4, 637920, Note_on_c, 2, 66, 42
4, 637920, Note_on_c, 2, 58, 42
4, 637920, Note_on_c, 2, 61, 42
4, 638160, Note_off_c, 2, 61, 0
4, 638160, Note_off_c, 2, 58, 0
4, 638160, Note_off_c, 2, 66, 0
4, 638160, Note_on_c, 2, 66, 43
4, 638160, Note_on_c, 2, 58, 43
4, 638160, Note_on_c, 2, 61, 43
4, 638400, Note_off_c, 2, 61, 0
4, 638400, Note_off_c, 2, 58, 0
4, 638400, Note_off_c, 2, 66, 0
4, 638400, Note_on_c, 2, 66, 44
4, 638400, Note_on_c, 2, 58, 44
4, 638400, Note_on_c, 2, 61, 44
4, 638640, Note_off_c, 2, 61, 0
4, 638640, Note_off_c, 2, 58, 0
4, 638640, Note_off_c, 2, 66, 0
4, 638640, Note_on_c, 2, 58, 44
4, 638640, Note_on_c, 2, 66, 44
4, 638640, Note_on_c, 2, 61, 44
4, 638880, Note_off_c, 2, 61, 0
4, 638880, Note_off_c, 2, 66, 0
4, 638880, Note_off_c, 2, 58, 0
4, 638880, Note_on_c, 2, 66, 45
4, 638880, Note_on_c, 2, 58, 45
4, 638880, Note_on_c, 2, 61, 45
4, 639120, Note_off_c, 2, 61, 0
4, 639120, Note_off_c, 2, 58, 0
4, 639120, Note_off_c, 2, 66, 0
4, 639120, Note_on_c, 2, 58, 46
4, 639120, Note_on_c, 2, 66, 46
4, 639120, Note_on_c, 2, 61, 46
4, 639360, Note_off_c, 2, 61, 0
4, 639360, Note_off_c, 2, 66, 0
4, 639360, Note_off_c, 2, 58, 0
4, 639360, Note_on_c, 2, 58, 47
4, 639360, Note_on_c, 2, 61, 47
4, 639360, Note_on_c, 2, 66, 47
4, 639600, Note_off_c, 2, 66, 0
4, 639600, Note_off_c, 2, 61, 0
4, 639600, Note_off_c, 2, 58, 0
4, 639600, Note_on_c, 2, 66, 48
4, 639600, Note_on_c, 2, 58, 48
4, 639600, Note_on_c, 2, 61, 48
4, 639840, Note_off_c, 2, 61, 0
4, 639840, Note_off_c, 2, 58, 0
4, 639840, Note_off_c, 2, 66, 0
4, 639840, Note_on_c, 2, 66, 49
4, 639840, Note_on_c, 2, 58, 49
4, 639840, Note_on_c, 2, 61, 49
4, 640080, Note_off_c, 2, 61, 0
4, 640080, Note_off_c, 2, 58, 0
4, 640080, Note_off_c, 2, 66, 0
4, 640080, Note_on_c, 2, 66, 50
4, 640080, Note_on_c, 2, 58, 50
4, 640080, Note_on_c, 2, 61, 50
4, 640320, Note_off_c, 2, 61, 0
4, 640320, Note_off_c, 2, 58, 0
4, 640320, Note_off_c, 2, 66, 0
4, 640320, Note_on_c, 2, 58, 51
4, 640320, Note_on_c, 2, 66, 51
4, 640320, Note_on_c, 2, 61, 51
4, 640560, Note_off_c, 2, 61, 0
4, 640560, Note_off_c, 2, 66, 0
4, 640560, Note_off_c, 2, 58, 0
4, 640560, Note_on_c, 2, 66, 50
4, 640560, Note_on_c, 2, 58, 50
4, 640560, Note_on_c, 2, 61, 50
4, 640800, Note_off_c, 2, 61, 0
4, 640800, Note_off_c, 2, 58, 0
4, 640800, Note_off_c, 2, 66, 0
4, 640800, Note_on_c, 2, 66, 49
4, 640800, Note_on_c, 2, 61, 49
4, 640800, Note_on_c, 2, 58, 49
4, 641040, Note_off_c, 2, 58, 0
4, 641040, Note_off_c, 2, 61, 0
4, 641040, Note_off_c, 2, 66, 0
4, 641040, Note_on_c, 2, 58, 48
4, 641040, Note_on_c, 2, 66, 48
4, 641040, Note_on_c, 2, 61, 48
4, 641280, Note_off_c, 2, 61, 0
4, 641280, Note_off_c, 2, 66, 0
4, 641280, Note_off_c, 2, 58, 0
4, 641280, Note_on_c, 2, 66, 48
4, 641280, Note_on_c, 2, 58, 48
4, 641280, Note_on_c, 2, 61, 48
4, 641520, Note_off_c, 2, 61, 0
4, 641520, Note_off_c, 2, 58, 0
4, 641520, Note_off_c, 2, 66, 0
4, 641520, Note_on_c, 2, 66, 47
4, 641520, Note_on_c, 2, 58, 47
4, 641520, Note_on_c, 2, 61, 47
4, 641760, Note_off_c, 2, 61, 0
4, 641760, Note_off_c, 2, 58, 0
4, 641760, Note_off_c, 2, 66, 0
4, 641760, Note_on_c, 2, 66, 46
4, 641760, Note_on_c, 2, 58, 46
4, 641760, Note_on_c, 2, 61, 46
4, 642000, Note_off_c, 2, 61, 0
4, 642000, Note_off_c, 2, 58, 0
4, 642000, Note_off_c, 2, 66, 0
4, 642000, Note_on_c, 2, 66, 45
4, 642000, Note_on_c, 2, 58, 45
4, 642000, Note_on_c, 2, 61, 45
4, 642240, Note_off_c, 2, 61, 0
4, 642240, Note_off_c, 2, 58, 0
4, 642240, Note_off_c, 2, 66, 0
4, 642240, Note_on_c, 2, 66, 44
4, 642240, Note_on_c, 2, 61, 44
4, 642240, Note_on_c, 2, 58, 44
4, 642480, Note_off_c, 2, 58, 0
4, 642480, Note_off_c, 2, 61, 0
4, 642480, Note_off_c, 2, 66, 0
4, 642480, Note_on_c, 2, 66, 43
4, 642480, Note_on_c, 2, 58, 43
4, 642480, Note_on_c, 2, 61, 43
4, 642720, Note_off_c, 2, 61, 0
4, 642720, Note_off_c, 2, 58, 0
4, 642720, Note_off_c, 2, 66, 0
4, 642720, Note_on_c, 2, 66, 42
4, 642720, Note_on_c, 2, 58, 42
4, 642720, Note_on_c, 2, 61, 42
4, 642960, Note_off_c, 2, 61, 0
4, 642960, Note_off_c, 2, 58, 0
4, 642960, Note_off_c, 2, 66, 0
4, 642960, Note_on_c, 2, 58, 41
4, 642960, Note_on_c, 2, 61, 41
4, 642960, Note_on_c, 2, 64, 41
4, 643200, Note_off_c, 2, 64, 0
4, 643200, Note_off_c, 2, 61, 0
4, 643200, Note_off_c, 2, 58, 0
4, 643200, Note_on_c, 2, 57, 40
4, 643200, Note_on_c, 2, 60, 40
4, 643200, Note_on_c, 2, 65, 40
4, 643440, Note_off_c, 2, 65, 0
4, 643440, Note_off_c, 2, 60, 0
4, 643440, Note_off_c, 2, 57, 0
4, 643440, Note_on_c, 2, 57, 41
4, 643440, Note_on_c, 2, 60, 41
4, 643440, Note_on_c, 2, 65, 41
4, 643680, Note_off_c, 2, 65, 0
4, 643680, Note_off_c, 2, 60, 0
4, 643680, Note_off_c, 2, 57, 0
4, 643680, Note_on_c, 2, 57, 42
4, 643680, Note_on_c, 2, 60, 42
4, 643680, Note_on_c, 2, 65, 42
4, 643920, Note_off_c, 2, 65, 0
4, 643920, Note_off_c, 2, 60, 0
4, 643920, Note_off_c, 2, 57, 0
4, 643920, Note_on_c, 2, 57, 43
4, 643920, Note_on_c, 2, 60, 43
4, 643920, Note_on_c, 2, 65, 43
4, 644160, Note_off_c, 2, 65, 0
4, 644160, Note_off_c, 2, 60, 0
4, 644160, Note_off_c, 2, 57, 0
4, 644160, Note_on_c, 2, 57, 44
4, 644160, Note_on_c, 2, 65, 44
4, 644160, Note_on_c, 2, 60, 44
4, 644400, Note_off_c, 2, 60, 0
4, 644400, Note_off_c, 2, 65, 0
4, 644400, Note_off_c, 2, 57, 0
4, 644400, Note_on_c, 2, 57, 45
4, 644400, Note_on_c, 2, 60, 45
4, 644400, Note_on_c, 2, 65, 45
4, 644640, Note_off_c, 2, 65, 0
4, 644640, Note_off_c, 2, 60, 0
4, 644640, Note_off_c, 2, 57, 0
4, 644640, Note_on_c, 2, 57, 46
4, 644640, Note_on_c, 2, 60, 46
4, 644640, Note_on_c, 2, 65, 46
4, 644880, Note_off_c, 2, 65, 0
4, 644880, Note_off_c, 2, 60, 0
4, 644880, Note_off_c, 2, 57, 0
4, 644880, Note_on_c, 2, 60, 47
4, 644880, Note_on_c, 2, 57, 47
4, 644880, Note_on_c, 2, 65, 47
4, 645120, Note_off_c, 2, 65, 0
4, 645120, Note_off_c, 2, 57, 0
4, 645120, Note_off_c, 2, 60, 0
4, 645120, Note_on_c, 2, 57, 49
4, 645120, Note_on_c, 2, 60, 49
4, 645120, Note_on_c, 2, 65, 49
4, 645360, Note_off_c, 2, 65, 0
4, 645360, Note_off_c, 2, 60, 0
4, 645360, Note_off_c, 2, 57, 0
4, 645360, Note_on_c, 2, 57, 50
4, 645360, Note_on_c, 2, 60, 50
4, 645360, Note_on_c, 2, 65, 50
4, 645600, Note_off_c, 2, 65, 0
4, 645600, Note_off_c, 2, 60, 0
4, 645600, Note_off_c, 2, 57, 0
4, 645600, Note_on_c, 2, 57, 51
4, 645600, Note_on_c, 2, 60, 51
4, 645600, Note_on_c, 2, 65, 51
4, 645840, Note_off_c, 2, 65, 0
4, 645840, Note_off_c, 2, 60, 0
4, 645840, Note_off_c, 2, 57, 0
4, 645840, Note_on_c, 2, 57, 52
4, 645840, Note_on_c, 2, 60, 52
4, 645840, Note_on_c, 2, 65, 52
4, 646080, Note_off_c, 2, 65, 0
4, 646080, Note_off_c, 2, 60, 0
4, 646080, Note_off_c, 2, 57, 0
4, 646080, Note_on_c, 2, 57, 54
4, 646080, Note_on_c, 2, 60, 54
4, 646080, Note_on_c, 2, 65, 54
4, 646320, Note_off_c, 2, 65, 0
4, 646320, Note_off_c, 2, 60, 0
4, 646320, Note_off_c, 2, 57, 0
4, 646320, Note_on_c, 2, 57, 53
4, 646320, Note_on_c, 2, 60, 53
4, 646320, Note_on_c, 2, 65, 53
4, 646560, Note_off_c, 2, 65, 0
4, 646560, Note_off_c, 2, 60, 0
4, 646560, Note_off_c, 2, 57, 0
4, 646560, Note_on_c, 2, 60, 52
4, 646560, Note_on_c, 2, 57, 52
4, 646560, Note_on_c, 2, 65, 52
4, 646800, Note_off_c, 2, 65, 0
4, 646800, Note_off_c, 2, 57, 0
4, 646800, Note_off_c, 2, 60, 0
4, 646800, Note_on_c, 2, 57, 50
4, 646800, Note_on_c, 2, 60, 50
4, 646800, Note_on_c, 2, 65, 50
4, 647040, Note_off_c, 2, 65, 0
4, 647040, Note_off_c, 2, 60, 0
4, 647040, Note_off_c, 2, 57, 0
4, 647040, Note_on_c, 2, 57, 49
4, 647040, Note_on_c, 2, 60, 49
4, 647040, Note_on_c, 2, 65, 49
4, 647280, Note_off_c, 2, 65, 0
4, 647280, Note_off_c, 2, 60, 0
4, 647280, Note_off_c, 2, 57, 0
4, 647280, Note_on_c, 2, 57, 48
4, 647280, Note_on_c, 2, 60, 48
4, 647280, Note_on_c, 2, 65, 48
4, 647520, Note_off_c, 2, 65, 0
4, 647520, Note_off_c, 2, 60, 0
4, 647520, Note_off_c, 2, 57, 0
4, 647520, Note_on_c, 2, 57, 46
4, 647520, Note_on_c, 2, 60, 46
4, 647520, Note_on_c, 2, 65, 46
4, 647760, Note_off_c, 2, 65, 0
4, 647760, Note_off_c, 2, 60, 0
4, 647760, Note_off_c, 2, 57, 0
4, 647760, Note_on_c, 2, 65, 45
4, 647760, Note_on_c, 2, 60, 45
4, 647760, Note_on_c, 2, 57, 45
4, 648000, Note_off_c, 2, 57, 0
4, 648000, Note_off_c, 2, 60, 0
4, 648000, Note_off_c, 2, 65, 0
4, 648000, Note_on_c, 2, 60, 44
4, 648000, Note_on_c, 2, 65, 44
4, 648000, Note_on_c, 2, 57, 44
4, 648240, Note_off_c, 2, 57, 0
4, 648240, Note_off_c, 2, 65, 0
4, 648240, Note_off_c, 2, 60, 0
4, 648240, Note_on_c, 2, 57, 42
4, 648240, Note_on_c, 2, 60, 42
4, 648240, Note_on_c, 2, 65, 42
4, 648480, Note_off_c, 2, 65, 0
4, 648480, Note_off_c, 2, 60, 0
4, 648480, Note_off_c, 2, 57, 0
4, 648480, Note_on_c, 2, 53, 61
4, 648720, Note_off_c, 2, 53, 0
4, 648720, Note_on_c, 2, 51, 58
4, 648960, Note_off_c, 2, 51, 0
4, 648960, Note_on_c, 2, 50, 55
4, 648960, Note_on_c, 2, 46, 55
4, 649440, Note_off_c, 2, 50, 0
4, 649440, Note_on_c, 2, 55, 51
4, 649680, Note_off_c, 2, 55, 0
4, 649680, Note_on_c, 2, 53, 52
4, 650160, Note_off_c, 2, 53, 0
4, 650160, Note_on_c, 2, 50, 54
4, 650400, Note_off_c, 2, 50, 0
4, 650400, Note_off_c, 2, 46, 0
4, 650400, Note_on_c, 2, 48, 55
4, 650400, Note_on_c, 2, 41, 55
4, 650880, Note_off_c, 2, 48, 0
4, 650880, Note_on_c, 2, 55, 57
4, 651120, Note_off_c, 2, 55, 0
4, 651120, Note_on_c, 2, 53, 58
4, 651600, Note_off_c, 2, 53, 0
4, 651600, Note_on_c, 2, 48, 60
4, 651840, Note_off_c, 2, 48, 0
4, 651840, Note_off_c, 2, 41, 0
4, 651840, Note_on_c, 2, 50, 61
4, 651840, Note_on_c, 2, 46, 61
4, 652320, Note_off_c, 2, 50, 0
4, 652320, Note_on_c, 2, 55, 60
4, 652560, Note_off_c, 2, 55, 0
4, 652560, Note_on_c, 2, 53, 60
4, 653040, Note_off_c, 2, 53, 0
4, 653040, Note_on_c, 2, 50, 59
4, 653280, Note_off_c, 2, 50, 0
4, 653280, Note_off_c, 2, 46, 0
4, 653280, Note_on_c, 2, 48, 59
4, 653280, Note_on_c, 2, 41, 59
4, 653760, Note_off_c, 2, 48, 0
4, 653760, Note_on_c, 2, 55, 58
4, 654000, Note_off_c, 2, 55, 0
4, 654000, Note_on_c, 2, 53, 57
4, 654480, Note_off_c, 2, 53, 0
4, 654480, Note_on_c, 2, 48, 56
4, 654720, Note_off_c, 2, 48, 0
4, 654720, Note_off_c, 2, 41, 0
4, 654720, Note_on_c, 2, 46, 48
4, 654720, Note_on_c, 2, 50, 48
4, 654960, Note_off_c, 2, 50, 0
4, 654960, Note_off_c, 2, 46, 0
4, 654960, Note_on_c, 2, 58, 49
4, 654960, Note_on_c, 2, 50, 49
4, 654960, Note_on_c, 2, 53, 49
4, 655200, Note_off_c, 2, 53, 0
4, 655200, Note_off_c, 2, 50, 0
4, 655200, Note_off_c, 2, 58, 0
4, 655200, Note_on_c, 2, 58, 50
4, 655200, Note_on_c, 2, 53, 50
4, 655200, Note_on_c, 2, 50, 50
4, 655440, Note_off_c, 2, 50, 0
4, 655440, Note_off_c, 2, 53, 0
4, 655440, Note_off_c, 2, 58, 0
4, 655440, Note_on_c, 2, 58, 51
4, 655440, Note_on_c, 2, 50, 51
4, 655440, Note_on_c, 2, 53, 51
4, 655680, Note_off_c, 2, 53, 0
4, 655680, Note_off_c, 2, 50, 0
4, 655680, Note_off_c, 2, 58, 0
4, 655680, Note_on_c, 2, 58, 52
4, 655680, Note_on_c, 2, 53, 52
4, 655680, Note_on_c, 2, 50, 52
4, 655920, Note_off_c, 2, 50, 0
4, 655920, Note_off_c, 2, 53, 0
4, 655920, Note_off_c, 2, 58, 0
4, 655920, Note_on_c, 2, 58, 53
4, 655920, Note_on_c, 2, 50, 53
4, 655920, Note_on_c, 2, 53, 53
4, 656160, Note_off_c, 2, 53, 0
4, 656160, Note_off_c, 2, 50, 0
4, 656160, Note_off_c, 2, 58, 0
4, 656400, Note_on_c, 2, 58, 55
4, 656400, Note_on_c, 2, 51, 55
4, 656400, Note_on_c, 2, 55, 55
4, 656640, Note_off_c, 2, 55, 0
4, 656640, Note_off_c, 2, 51, 0
4, 656640, Note_off_c, 2, 58, 0
4, 656640, Note_on_c, 2, 58, 56
4, 656640, Note_on_c, 2, 51, 56
4, 656640, Note_on_c, 2, 55, 56
4, 656880, Note_off_c, 2, 55, 0
4, 656880, Note_off_c, 2, 51, 0
4, 656880, Note_off_c, 2, 58, 0
4, 656880, Note_on_c, 2, 58, 57
4, 656880, Note_on_c, 2, 51, 57
4, 656880, Note_on_c, 2, 55, 57
4, 657120, Note_off_c, 2, 55, 0
4, 657120, Note_off_c, 2, 51, 0
4, 657120, Note_off_c, 2, 58, 0
4, 657120, Note_on_c, 2, 58, 58
4, 657120, Note_on_c, 2, 51, 58
4, 657120, Note_on_c, 2, 55, 58
4, 657360, Note_off_c, 2, 55, 0
4, 657360, Note_off_c, 2, 51, 0
4, 657360, Note_off_c, 2, 58, 0
4, 657360, Note_on_c, 2, 60, 59
4, 657360, Note_on_c, 2, 51, 59
4, 657360, Note_on_c, 2, 55, 59
4, 657600, Note_off_c, 2, 55, 0
4, 657600, Note_off_c, 2, 51, 0
4, 657600, Note_off_c, 2, 60, 0
4, 657840, Note_on_c, 2, 53, 70
4, 657840, Note_on_c, 2, 62, 70
4, 657840, Note_on_c, 2, 58, 70
4, 658080, Note_off_c, 2, 58, 0
4, 658080, Note_off_c, 2, 62, 0
4, 658080, Note_off_c, 2, 53, 0
4, 658080, Note_on_c, 2, 62, 76
4, 658080, Note_on_c, 2, 53, 76
4, 658080, Note_on_c, 2, 58, 76
4, 658320, Note_off_c, 2, 58, 0
4, 658320, Note_off_c, 2, 53, 0
4, 658320, Note_off_c, 2, 62, 0
4, 658320, Note_on_c, 2, 62, 80
4, 658320, Note_on_c, 2, 53, 80
4, 658320, Note_on_c, 2, 58, 80
4, 658560, Note_off_c, 2, 58, 0
4, 658560, Note_off_c, 2, 53, 0
4, 658560, Note_off_c, 2, 62, 0
4, 658560, Note_on_c, 2, 62, 77
4, 658560, Note_on_c, 2, 53, 77
4, 658560, Note_on_c, 2, 58, 77
4, 658800, Note_off_c, 2, 58, 0
4, 658800, Note_off_c, 2, 53, 0
4, 658800, Note_off_c, 2, 62, 0
4, 658800, Note_on_c, 2, 62, 74
4, 658800, Note_on_c, 2, 53, 74
4, 658800, Note_on_c, 2, 58, 74
4, 659040, Control_c, 2, 64, 0
4, 659040, Note_off_c, 2, 58, 0
4, 659040, Note_off_c, 2, 53, 0
4, 659040, Note_off_c, 2, 62, 0
4, 659040, Note_on_c, 2, 53, 70
4, 659040, Note_on_c, 2, 62, 70
4, 659040, Note_on_c, 2, 58, 70
4, 659280, Note_off_c, 2, 58, 0
4, 659280, Note_off_c, 2, 62, 0
4, 659280, Note_off_c, 2, 53, 0
4, 659280, Note_on_c, 2, 53, 67
4, 659280, Note_on_c, 2, 62, 67
4, 659280, Note_on_c, 2, 58, 67
4, 659520, Note_off_c, 2, 58, 0
4, 659520, Note_off_c, 2, 62, 0
4, 659520, Note_off_c, 2, 53, 0
4, 659520, Note_on_c, 2, 53, 64
4, 659520, Note_on_c, 2, 62, 64
4, 659520, Note_on_c, 2, 58, 64
4, 659760, Note_off_c, 2, 58, 0
4, 659760, Note_off_c, 2, 62, 0
4, 659760, Note_off_c, 2, 53, 0
4, 659760, Note_on_c, 2, 63, 60
4, 659760, Note_on_c, 2, 57, 60
4, 659760, Note_on_c, 2, 53, 60
4, 660000, Note_off_c, 2, 53, 0
4, 660000, Note_off_c, 2, 57, 0
4, 660000, Note_off_c, 2, 63, 0
4, 660000, Note_on_c, 2, 63, 57
4, 660000, Note_on_c, 2, 53, 57
4, 660000, Note_on_c, 2, 57, 57
4, 660240, Note_off_c, 2, 57, 0
4, 660240, Note_off_c, 2, 53, 0
4, 660240, Note_off_c, 2, 63, 0
4, 660240, Note_on_c, 2, 63, 54
4, 660240, Note_on_c, 2, 57, 54
4, 660240, Note_on_c, 2, 53, 54
4, 660480, Note_off_c, 2, 53, 0
4, 660480, Note_off_c, 2, 57, 0
4, 660480, Note_off_c, 2, 63, 0
4, 660480, Note_on_c, 2, 58, 52
4, 660480, Note_on_c, 2, 62, 52
4, 660960, Note_off_c, 2, 62, 0
4, 660960, Note_on_c, 2, 67, 53
4, 661200, Note_off_c, 2, 67, 0
4, 661200, Note_on_c, 2, 65, 54
4, 661680, Note_off_c, 2, 65, 0
4, 661680, Note_on_c, 2, 62, 56
4, 661920, Note_off_c, 2, 62, 0
4, 661920, Note_off_c, 2, 58, 0
4, 661920, Note_on_c, 2, 53, 57
4, 661920, Note_on_c, 2, 60, 57
4, 662400, Note_off_c, 2, 60, 0
4, 662400, Note_on_c, 2, 67, 59
4, 662640, Note_off_c, 2, 67, 0
4, 662640, Note_on_c, 2, 65, 60
4, 663120, Note_off_c, 2, 65, 0
4, 663120, Note_on_c, 2, 60, 62
4, 663360, Note_off_c, 2, 60, 0
4, 663360, Note_off_c, 2, 53, 0
4, 663360, Note_on_c, 2, 58, 65
4, 663360, Note_on_c, 2, 62, 65
4, 663840, Note_off_c, 2, 62, 0
4, 663840, Note_on_c, 2, 67, 64
4, 664080, Note_off_c, 2, 67, 0
4, 664080, Note_on_c, 2, 65, 63
4, 664560, Note_off_c, 2, 65, 0
4, 664560, Note_on_c, 2, 62, 61
4, 664800, Note_off_c, 2, 62, 0
4, 664800, Note_off_c, 2, 58, 0
4, 664800, Note_on_c, 2, 53, 60
4, 664800, Note_on_c, 2, 60, 60
4, 665280, Note_off_c, 2, 60, 0
4, 665280, Note_on_c, 2, 67, 59
4, 665520, Note_off_c, 2, 67, 0
4, 665520, Note_on_c, 2, 65, 58
4, 666000, Note_off_c, 2, 65, 0
4, 666000, Note_on_c, 2, 60, 56
4, 666240, Note_off_c, 2, 60, 0
4, 666240, Note_off_c, 2, 53, 0
4, 666240, Note_on_c, 2, 62, 57
4, 666240, Note_on_c, 2, 65, 57
4, 666360, Note_off_c, 2, 65, 0
4, 666360, Note_on_c, 2, 67, 57
4, 666480, Note_off_c, 2, 67, 0
4, 666480, Note_on_c, 2, 69, 58
4, 666600, Note_off_c, 2, 69, 0
4, 666600, Note_on_c, 2, 70, 59
4, 666720, Note_off_c, 2, 70, 0
4, 666720, Note_off_c, 2, 62, 0
4, 666720, Note_on_c, 2, 72, 59
4, 666800, Note_off_c, 2, 72, 0
4, 666800, Note_on_c, 2, 74, 60
4, 666880, Note_off_c, 2, 74, 0
4, 666880, Note_on_c, 2, 75, 60
4, 666960, Note_off_c, 2, 75, 0
4, 666960, Note_on_c, 2, 77, 61
4, 667080, Note_off_c, 2, 77, 0
4, 667080, Note_on_c, 2, 75, 61
4, 667200, Note_off_c, 2, 75, 0
4, 667200, Note_on_c, 2, 74, 62
4, 667320, Note_off_c, 2, 74, 0
4, 667320, Note_on_c, 2, 72, 63
4, 667440, Note_off_c, 2, 72, 0
4, 667440, Note_on_c, 2, 70, 64
4, 667560, Note_off_c, 2, 70, 0
4, 667560, Note_on_c, 2, 69, 64
4, 667680, Note_off_c, 2, 69, 0
4, 667680, Note_on_c, 2, 63, 65
4, 667680, Note_on_c, 2, 67, 65
4, 667800, Note_off_c, 2, 67, 0
4, 667800, Note_on_c, 2, 69, 66
4, 667920, Note_off_c, 2, 69, 0
4, 667920, Note_on_c, 2, 70, 66
4, 668040, Note_off_c, 2, 70, 0
4, 668040, Note_on_c, 2, 72, 67
4, 668160, Note_off_c, 2, 72, 0
4, 668160, Note_on_c, 2, 74, 68
4, 668167, Note_off_c, 2, 63, 0
4, 668240, Note_off_c, 2, 74, 0
4, 668240, Note_on_c, 2, 75, 68
4, 668320, Note_off_c, 2, 75, 0
4, 668320, Note_on_c, 2, 77, 69
4, 668400, Note_off_c, 2, 77, 0
4, 668400, Note_on_c, 2, 79, 69
4, 668520, Note_off_c, 2, 79, 0
4, 668520, Note_on_c, 2, 77, 70
4, 668640, Note_off_c, 2, 77, 0
4, 668640, Note_on_c, 2, 75, 71
4, 668720, Note_off_c, 2, 75, 0
4, 668720, Note_on_c, 2, 74, 71
4, 668800, Note_off_c, 2, 74, 0
4, 668800, Note_on_c, 2, 72, 72
4, 668880, Note_off_c, 2, 72, 0
4, 668880, Note_on_c, 2, 70, 72
4, 668960, Note_off_c, 2, 70, 0
4, 668960, Note_on_c, 2, 69, 73
4, 669040, Note_off_c, 2, 69, 0
4, 669040, Note_on_c, 2, 67, 73
4, 669120, Control_c, 2, 64, 127
4, 669120, Note_off_c, 2, 67, 0
4, 669120, Note_on_c, 2, 65, 74
4, 669240, Note_off_c, 2, 65, 0
4, 669240, Note_on_c, 2, 53, 76
4, 669360, Note_off_c, 2, 53, 0
4, 669360, Note_on_c, 2, 58, 78
4, 669480, Note_off_c, 2, 58, 0
4, 669480, Note_on_c, 2, 62, 80
4, 669600, Note_off_c, 2, 62, 0
4, 669600, Note_on_c, 2, 65, 82
4, 669720, Note_off_c, 2, 65, 0
4, 669720, Note_on_c, 2, 70, 85
4, 669840, Note_off_c, 2, 70, 0
4, 669840, Note_on_c, 2, 74, 87
4, 669960, Note_off_c, 2, 74, 0
4, 669960, Note_on_c, 2, 70, 84
4, 670080, Note_off_c, 2, 70, 0
4, 670080, Note_on_c, 2, 77, 82
4, 670200, Note_off_c, 2, 77, 0
4, 670200, Note_on_c, 2, 74, 81
4, 670320, Note_off_c, 2, 74, 0
4, 670320, Note_on_c, 2, 70, 80
4, 670440, Note_off_c, 2, 70, 0
4, 670440, Note_on_c, 2, 74, 79
4, 670560, Control_c, 2, 64, 0
4, 670560, Note_off_c, 2, 74, 0
4, 670560, Note_on_c, 2, 72, 77
4, 670560, Note_on_c, 2, 65, 77
4, 670640, Note_on_c, 2, 74, 76
4, 670695, Note_off_c, 2, 72, 0
4, 670720, Note_on_c, 2, 72, 76
4, 670785, Note_off_c, 2, 74, 0
4, 670800, Note_on_c, 2, 74, 75
4, 670867, Note_off_c, 2, 72, 0
4, 670880, Note_on_c, 2, 72, 74
4, 670935, Note_off_c, 2, 74, 0
4, 670960, Note_on_c, 2, 74, 73
4, 671025, Note_off_c, 2, 72, 0
4, 671040, Note_on_c, 2, 72, 72
4, 671107, Note_off_c, 2, 74, 0
4, 671120, Note_on_c, 2, 74, 71
4, 671190, Note_off_c, 2, 72, 0
4, 671200, Note_on_c, 2, 72, 71
4, 671265, Note_off_c, 2, 74, 0
4, 671280, Note_on_c, 2, 74, 70
4, 671347, Note_off_c, 2, 72, 0
4, 671360, Note_on_c, 2, 72, 69
4, 671422, Note_off_c, 2, 74, 0
4, 671440, Note_on_c, 2, 74, 68
4, 671512, Note_off_c, 2, 72, 0
4, 671520, Note_on_c, 2, 72, 67
4, 671580, Note_off_c, 2, 74, 0
4, 671600, Note_on_c, 2, 74, 66
4, 671670, Note_off_c, 2, 72, 0
4, 671680, Note_on_c, 2, 72, 66
4, 671745, Note_off_c, 2, 74, 0
4, 671760, Note_on_c, 2, 70, 65
4, 671850, Note_off_c, 2, 72, 0
4, 671880, Note_on_c, 2, 72, 63
4, 671970, Note_off_c, 2, 70, 0
4, 671977, Note_off_c, 2, 65, 0
4, 672000, Note_off_c, 2, 72, 0
4, 672000, Note_on_c, 2, 65, 62
4, 672120, Note_on_c, 2, 71, 63
4, 672240, Note_off_c, 2, 71, 0
4, 672240, Note_on_c, 2, 72, 63
4, 672247, Note_off_c, 2, 65, 0
4, 672360, Note_off_c, 2, 72, 0
4, 672360, Note_on_c, 2, 74, 63
4, 672480, Note_off_c, 2, 74, 0
4, 672480, Note_on_c, 2, 72, 64
4, 672600, Note_off_c, 2, 72, 0
4, 672600, Note_on_c, 2, 71, 64
4, 672720, Note_off_c, 2, 71, 0
4, 672720, Note_on_c, 2, 63, 64
4, 672840, Note_on_c, 2, 72, 65
4, 672960, Note_off_c, 2, 72, 0
4, 672960, Note_on_c, 2, 74, 65
4, 672975, Note_off_c, 2, 63, 0
4, 673080, Note_off_c, 2, 74, 0
4, 673080, Note_on_c, 2, 75, 65
4, 673200, Note_off_c, 2, 75, 0
4, 673200, Note_on_c, 2, 74, 66
4, 673320, Note_off_c, 2, 74, 0
4, 673320, Note_on_c, 2, 72, 66
4, 673440, Note_off_c, 2, 72, 0
4, 673440, Note_on_c, 2, 63, 66
4, 673560, Note_on_c, 2, 69, 67
4, 673680, Note_off_c, 2, 69, 0
4, 673680, Note_on_c, 2, 70, 67
4, 673702, Note_off_c, 2, 63, 0
4, 673800, Note_off_c, 2, 70, 0
4, 673800, Note_on_c, 2, 72, 67
4, 673920, Note_off_c, 2, 72, 0
4, 673920, Note_on_c, 2, 70, 68
4, 674040, Note_off_c, 2, 70, 0
4, 674040, Note_on_c, 2, 69, 68
4, 674160, Note_off_c, 2, 69, 0
4, 674160, Note_on_c, 2, 62, 68
4, 674280, Note_on_c, 2, 70, 69
4, 674400, Note_off_c, 2, 70, 0
4, 674400, Note_on_c, 2, 72, 69
4, 674422, Note_off_c, 2, 62, 0
4, 674520, Note_off_c, 2, 72, 0
4, 674520, Note_on_c, 2, 74, 69
4, 674640, Note_off_c, 2, 74, 0
4, 674640, Note_on_c, 2, 72, 70
4, 674760, Note_off_c, 2, 72, 0
4, 674760, Note_on_c, 2, 70, 70
4, 674880, Note_off_c, 2, 70, 0
4, 674880, Note_on_c, 2, 53, 70
4, 675000, Note_on_c, 2, 59, 71
4, 675120, Note_off_c, 2, 59, 0
4, 675120, Note_off_c, 2, 53, 0
4, 675120, Note_on_c, 2, 60, 71
4, 675240, Note_off_c, 2, 60, 0
4, 675240, Note_on_c, 2, 62, 71
4, 675360, Note_off_c, 2, 62, 0
4, 675360, Note_on_c, 2, 60, 72
4, 675480, Note_off_c, 2, 60, 0
4, 675480, Note_on_c, 2, 59, 72
4, 675600, Note_off_c, 2, 59, 0
4, 675600, Note_on_c, 2, 51, 72
4, 675720, Note_on_c, 2, 60, 73
4, 675840, Note_off_c, 2, 60, 0
4, 675840, Note_on_c, 2, 62, 73
4, 675847, Note_off_c, 2, 51, 0
4, 675960, Note_off_c, 2, 62, 0
4, 675960, Note_on_c, 2, 63, 73
4, 676080, Note_off_c, 2, 63, 0
4, 676080, Note_on_c, 2, 62, 73
4, 676200, Note_off_c, 2, 62, 0
4, 676200, Note_on_c, 2, 60, 74
4, 676320, Note_off_c, 2, 60, 0
4, 676320, Note_on_c, 2, 51, 74
4, 676440, Note_on_c, 2, 57, 74
4, 676560, Note_off_c, 2, 57, 0
4, 676560, Note_on_c, 2, 58, 75
4, 676575, Note_off_c, 2, 51, 0
4, 676680, Note_off_c, 2, 58, 0
4, 676680, Note_on_c, 2, 60, 75
4, 676800, Note_off_c, 2, 60, 0
4, 676800, Note_on_c, 2, 58, 75
4, 676920, Note_off_c, 2, 58, 0
4, 676920, Note_on_c, 2, 57, 76
4, 677040, Note_off_c, 2, 57, 0
4, 677040, Note_on_c, 2, 50, 76
4, 677160, Note_on_c, 2, 58, 76
4, 677280, Note_off_c, 2, 58, 0
4, 677280, Note_on_c, 2, 60, 77
4, 677287, Note_off_c, 2, 50, 0
4, 677400, Note_off_c, 2, 60, 0
4, 677400, Note_on_c, 2, 62, 77
4, 677520, Note_off_c, 2, 62, 0
4, 677520, Note_on_c, 2, 60, 77
4, 677640, Note_off_c, 2, 60, 0
4, 677640, Note_on_c, 2, 58, 78
4, 677760, Note_off_c, 2, 58, 0
4, 677760, Note_on_c, 2, 50, 78
4, 677880, Note_on_c, 2, 53, 78
4, 678000, Note_off_c, 2, 53, 0
4, 678000, Note_off_c, 2, 50, 0
4, 678000, Note_on_c, 2, 58, 79
4, 678120, Note_off_c, 2, 58, 0
4, 678120, Note_on_c, 2, 62, 79
4, 678240, Note_off_c, 2, 62, 0
4, 678240, Note_on_c, 2, 58, 79
4, 678360, Note_off_c, 2, 58, 0
4, 678360, Note_on_c, 2, 53, 80
4, 678480, Note_off_c, 2, 53, 0
4, 678480, Note_on_c, 2, 43, 80
4, 678600, Note_on_c, 2, 46, 80
4, 678720, Note_off_c, 2, 46, 0
4, 678720, Note_on_c, 2, 50, 81
4, 678727, Note_off_c, 2, 43, 0
4, 678840, Note_off_c, 2, 50, 0
4, 678840, Note_on_c, 2, 55, 81
4, 678960, Note_off_c, 2, 55, 0
4, 678960, Note_on_c, 2, 50, 81
4, 679080, Note_off_c, 2, 50, 0
4, 679080, Note_on_c, 2, 46, 82
4, 679200, Note_off_c, 2, 46, 0
4, 679200, Note_on_c, 2, 39, 82
4, 679320, Note_on_c, 2, 43, 82
4, 679440, Note_off_c, 2, 43, 0
4, 679440, Note_off_c, 2, 39, 0
4, 679440, Note_on_c, 2, 48, 83
4, 679560, Note_off_c, 2, 48, 0
4, 679560, Note_on_c, 2, 51, 83
4, 679680, Note_off_c, 2, 51, 0
4, 679680, Note_on_c, 2, 48, 83
4, 679800, Note_off_c, 2, 48, 0
4, 679800, Note_on_c, 2, 43, 84
4, 679920, Note_off_c, 2, 43, 0
4, 679920, Note_on_c, 2, 41, 84
4, 680040, Note_on_c, 2, 48, 84
4, 680160, Note_off_c, 2, 48, 0
4, 680160, Note_on_c, 2, 51, 84
4, 680167, Note_off_c, 2, 41, 0
4, 680280, Note_off_c, 2, 51, 0
4, 680280, Note_on_c, 2, 53, 85
4, 680400, Note_off_c, 2, 53, 0
4, 680400, Note_on_c, 2, 51, 85
4, 680520, Note_off_c, 2, 51, 0
4, 680520, Note_on_c, 2, 48, 85
4, 680640, Note_off_c, 2, 48, 0
4, 680640, Note_on_c, 2, 38, 86
4, 680760, Note_on_c, 2, 41, 86
4, 680880, Note_off_c, 2, 41, 0
4, 680880, Note_on_c, 2, 46, 86
4, 680887, Note_off_c, 2, 38, 0
4, 681000, Note_off_c, 2, 46, 0
4, 681000, Note_on_c, 2, 50, 87
4, 681120, Note_off_c, 2, 50, 0
4, 681120, Note_on_c, 2, 46, 87
4, 681240, Note_off_c, 2, 46, 0
4, 681240, Note_on_c, 2, 41, 87
4, 681360, Note_off_c, 2, 41, 0
4, 681360, Note_on_c, 2, 31, 88
4, 681480, Note_on_c, 2, 34, 88
4, 681600, Note_off_c, 2, 34, 0
4, 681600, Note_on_c, 2, 38, 88
4, 681607, Note_off_c, 2, 31, 0
4, 681720, Note_off_c, 2, 38, 0
4, 681720, Note_on_c, 2, 43, 89
4, 681840, Note_off_c, 2, 43, 0
4, 681840, Note_on_c, 2, 38, 89
4, 681960, Note_off_c, 2, 38, 0
4, 681960, Note_on_c, 2, 34, 89
4, 682080, Note_off_c, 2, 34, 0
4, 682080, Note_on_c, 2, 27, 90
4, 682200, Note_on_c, 2, 31, 90
4, 682312, Note_off_c, 2, 27, 0
4, 682320, Note_off_c, 2, 31, 0
4, 682320, Note_on_c, 2, 36, 90
4, 682440, Note_off_c, 2, 36, 0
4, 682440, Note_on_c, 2, 39, 91
4, 682560, Note_off_c, 2, 39, 0
4, 682560, Note_on_c, 2, 36, 91
4, 682680, Note_off_c, 2, 36, 0
4, 682680, Note_on_c, 2, 31, 91
4, 682800, Note_off_c, 2, 31, 0
4, 682800, Note_on_c, 2, 29, 92
4, 682920, Note_on_c, 2, 36, 92
4, 683040, Note_off_c, 2, 36, 0
4, 683040, Note_off_c, 2, 29, 0
4, 683040, Note_on_c, 2, 39, 92
4, 683160, Note_off_c, 2, 39, 0
4, 683160, Note_on_c, 2, 41, 93
4, 683280, Note_off_c, 2, 41, 0
4, 683280, Note_on_c, 2, 29, 93
4, 683400, Note_on_c, 2, 41, 93
4, 683520, Note_off_c, 2, 41, 0
4, 683520, Note_on_c, 2, 34, 109
4, 683535, Note_off_c, 2, 29, 0
4, 683760, Note_off_c, 2, 34, 0
4, 683760, Note_on_c, 2, 46, 95
4, 684000, Note_off_c, 2, 46, 0
4, 684000, Note_on_c, 2, 50, 95
4, 684000, Note_on_c, 2, 46, 95
4, 684240, Note_off_c, 2, 46, 0
4, 684240, Note_off_c, 2, 50, 0
4, 684240, Note_on_c, 2, 53, 111
4, 684240, Note_on_c, 2, 50, 111
4, 684240, Note_on_c, 2, 46, 111
4, 684720, Note_off_c, 2, 46, 0
4, 684720, Note_off_c, 2, 50, 0
4, 684720, Note_off_c, 2, 53, 0
4, 684720, Note_on_c, 2, 41, 95
4, 684720, Note_on_c, 2, 48, 95
4, 684720, Note_on_c, 2, 53, 95
4, 684960, Note_off_c, 2, 53, 0
4, 684960, Note_off_c, 2, 48, 0
4, 684960, Note_off_c, 2, 41, 0
4, 684960, Note_on_c, 2, 46, 95
4, 684960, Note_on_c, 2, 53, 95
4, 684960, Note_on_c, 2, 50, 95
4, 685200, Note_off_c, 2, 50, 0
4, 685200, Note_off_c, 2, 53, 0
4, 685200, Note_off_c, 2, 46, 0
4, 685200, Note_on_c, 2, 46, 95
4, 685200, Note_on_c, 2, 50, 95
4, 685200, Note_on_c, 2, 53, 95
4, 685440, Note_off_c, 2, 53, 0
4, 685440, Note_off_c, 2, 50, 0
4, 685440, Note_off_c, 2, 46, 0
4, 685440, Note_on_c, 2, 46, 95
4, 685440, Note_on_c, 2, 50, 95
4, 685440, Note_on_c, 2, 53, 95
4, 685680, Note_off_c, 2, 53, 0
4, 685680, Note_off_c, 2, 50, 0
4, 685680, Note_off_c, 2, 46, 0
4, 685680, Note_on_c, 2, 46, 111
4, 685680, Note_on_c, 2, 50, 111
4, 685680, Note_on_c, 2, 53, 111
4, 686160, Note_off_c, 2, 53, 0
4, 686160, Note_off_c, 2, 50, 0
4, 686160, Note_off_c, 2, 46, 0
4, 686160, Note_on_c, 2, 41, 95
4, 686160, Note_on_c, 2, 53, 95
4, 686160, Note_on_c, 2, 48, 95
4, 686400, Note_off_c, 2, 48, 0
4, 686400, Note_off_c, 2, 53, 0
4, 686400, Note_off_c, 2, 41, 0
4, 686400, Note_on_c, 2, 46, 95
4, 686400, Note_on_c, 2, 50, 95
4, 686400, Note_on_c, 2, 53, 95
4, 686640, Note_off_c, 2, 53, 0
4, 686640, Note_off_c, 2, 50, 0
4, 686640, Note_off_c, 2, 46, 0
4, 686640, Note_on_c, 2, 46, 95
4, 686640, Note_on_c, 2, 53, 95
4, 686640, Note_on_c, 2, 50, 95
4, 686880, Note_off_c, 2, 50, 0
4, 686880, Note_off_c, 2, 53, 0
4, 686880, Note_off_c, 2, 46, 0
4, 686880, Note_on_c, 2, 46, 95
4, 686880, Note_on_c, 2, 50, 95
4, 686880, Note_on_c, 2, 53, 95
4, 687120, Note_off_c, 2, 53, 0
4, 687120, Note_off_c, 2, 50, 0
4, 687120, Note_off_c, 2, 46, 0
4, 687120, Note_on_c, 2, 46, 111
4, 687120, Note_on_c, 2, 53, 111
4, 687120, Note_on_c, 2, 50, 111
4, 687600, Note_off_c, 2, 50, 0
4, 687600, Note_off_c, 2, 53, 0
4, 687600, Note_off_c, 2, 46, 0
4, 687600, Note_on_c, 2, 41, 95
4, 687600, Note_on_c, 2, 53, 95
4, 687600, Note_on_c, 2, 48, 95
4, 687840, Note_off_c, 2, 48, 0
4, 687840, Note_off_c, 2, 53, 0
4, 687840, Note_off_c, 2, 41, 0
4, 687840, Note_on_c, 2, 46, 108
4, 687840, Note_on_c, 2, 50, 108
4, 687840, Note_on_c, 2, 53, 108
4, 687840, Note_on_c, 2, 58, 108
4, 688200, Note_off_c, 2, 58, 0
4, 688207, Note_off_c, 2, 53, 0
4, 688207, Note_off_c, 2, 50, 0
4, 688207, Note_off_c, 2, 46, 0
4, 688560, Note_on_c, 2, 46, 105
4, 688560, Note_on_c, 2, 50, 105
4, 688560, Note_on_c, 2, 53, 105
4, 688560, Note_on_c, 2, 58, 105
4, 688920, Note_off_c, 2, 46, 0
4, 688927, Note_off_c, 2, 58, 0
4, 688927, Note_off_c, 2, 53, 0
4, 688927, Note_off_c, 2, 50, 0
4, 689280, Note_on_c, 2, 46, 101
4, 689280, Note_on_c, 2, 50, 101
4, 689280, Note_on_c, 2, 53, 101
4, 689280, Note_on_c, 2, 58, 101
4, 689640, Note_off_c, 2, 53, 0
4, 689640, Note_off_c, 2, 46, 0
4, 689647, Note_off_c, 2, 50, 0
4, 689662, Note_off_c, 2, 58, 0
4, 690960, Note_on_c, 2, 66, 69
4, 691152, Note_off_c, 2, 66, 0
4, 691200, Note_on_c, 2, 63, 67
4, 691392, Note_off_c, 2, 63, 0
4, 691680, Note_on_c, 2, 54, 62
4, 691872, Note_off_c, 2, 54, 0
4, 691920, Note_on_c, 2, 51, 59
4, 692112, Note_off_c, 2, 51, 0
4, 692400, Note_on_c, 2, 42, 54
4, 692592, Note_off_c, 2, 42, 0
4, 692640, Note_on_c, 2, 39, 52
4, 692832, Note_off_c, 2, 39, 0
4, 693840, Note_on_c, 2, 63, 54
4, 693840, Note_on_c, 2, 66, 54
4, 694032, Note_off_c, 2, 66, 0
4, 694032, Note_off_c, 2, 63, 0
4, 694080, Note_on_c, 2, 66, 56
4, 694080, Note_on_c, 2, 63, 56
4, 694272, Note_off_c, 2, 63, 0
4, 694272, Note_off_c, 2, 66, 0
4, 694320, Note_on_c, 2, 66, 58
4, 694320, Note_on_c, 2, 63, 58
4, 694512, Note_off_c, 2, 63, 0
4, 694512, Note_off_c, 2, 66, 0
4, 694560, Note_on_c, 2, 66, 59
4, 694560, Note_on_c, 2, 63, 59
4, 694752, Note_off_c, 2, 63, 0
4, 694752, Note_off_c, 2, 66, 0
4, 694800, Note_on_c, 2, 66, 61
4, 694800, Note_on_c, 2, 63, 61
4, 694992, Note_off_c, 2, 63, 0
4, 694992, Note_off_c, 2, 66, 0
4, 695040, Note_on_c, 2, 66, 62
4, 695040, Note_on_c, 2, 63, 62
4, 695040, Note_on_c, 2, 68, 62
4, 695232, Note_off_c, 2, 68, 0
4, 695232, Note_off_c, 2, 63, 0
4, 695232, Note_off_c, 2, 66, 0
4, 695280, Note_on_c, 2, 68, 64
4, 695280, Note_on_c, 2, 66, 64
4, 695280, Note_on_c, 2, 63, 64
4, 695472, Note_off_c, 2, 63, 0
4, 695472, Note_off_c, 2, 66, 0
4, 695472, Note_off_c, 2, 68, 0
4, 695520, Note_on_c, 2, 66, 66
4, 695520, Note_on_c, 2, 63, 66
4, 695520, Note_on_c, 2, 68, 66
4, 695712, Note_off_c, 2, 68, 0
4, 695712, Note_off_c, 2, 63, 0
4, 695712, Note_off_c, 2, 66, 0
4, 695760, Note_on_c, 2, 68, 62
4, 695760, Note_on_c, 2, 65, 62
4, 695760, Note_on_c, 2, 61, 62
4, 695952, Note_off_c, 2, 61, 0
4, 695952, Note_off_c, 2, 65, 0
4, 695952, Note_off_c, 2, 68, 0
4, 696000, Note_on_c, 2, 68, 56
4, 696000, Note_on_c, 2, 61, 56
4, 696000, Note_on_c, 2, 65, 56
4, 696192, Note_off_c, 2, 65, 0
4, 696192, Note_off_c, 2, 61, 0
4, 696192, Note_off_c, 2, 68, 0
4, 696240, Note_on_c, 2, 68, 51
4, 696240, Note_on_c, 2, 61, 51
4, 696240, Note_on_c, 2, 65, 51
4, 696432, Note_off_c, 2, 65, 0
4, 696432, Note_off_c, 2, 61, 0
4, 696432, Note_off_c, 2, 68, 0
4, 696720, Note_on_c, 2, 70, 65
4, 696912, Note_off_c, 2, 70, 0
4, 696960, Note_on_c, 2, 66, 64
4, 697152, Note_off_c, 2, 66, 0
4, 697440, Note_on_c, 2, 58, 60
4, 697632, Note_off_c, 2, 58, 0
4, 697680, Note_on_c, 2, 54, 58
4, 697872, Note_off_c, 2, 54, 0
4, 698160, Note_on_c, 2, 46, 55
4, 698352, Note_off_c, 2, 46, 0
4, 698400, Note_on_c, 2, 42, 53
4, 698592, Note_off_c, 2, 42, 0
4, 699600, Note_on_c, 2, 66, 48
4, 699600, Note_on_c, 2, 70, 48
4, 699792, Note_off_c, 2, 70, 0
4, 699792, Note_off_c, 2, 66, 0
4, 699840, Note_on_c, 2, 70, 48
4, 699840, Note_on_c, 2, 66, 48
4, 700032, Note_off_c, 2, 66, 0
4, 700032, Note_off_c, 2, 70, 0
4, 700080, Note_on_c, 2, 71, 49
4, 700080, Note_on_c, 2, 66, 49
4, 700272, Note_off_c, 2, 66, 0
4, 700272, Note_off_c, 2, 71, 0
4, 700320, Note_on_c, 2, 71, 50
4, 700320, Note_on_c, 2, 66, 50
4, 700512, Note_off_c, 2, 66, 0
4, 700512, Note_off_c, 2, 71, 0
4, 700560, Note_on_c, 2, 71, 50
4, 700560, Note_on_c, 2, 66, 50
4, 700752, Note_off_c, 2, 66, 0
4, 700752, Note_off_c, 2, 71, 0
4, 700800, Note_on_c, 2, 72, 51
4, 700800, Note_on_c, 2, 66, 51
4, 700992, Note_off_c, 2, 66, 0
4, 700992, Note_off_c, 2, 72, 0
4, 701040, Note_on_c, 2, 72, 51
4, 701040, Note_on_c, 2, 66, 51
4, 701232, Note_off_c, 2, 66, 0
4, 701232, Note_off_c, 2, 72, 0
4, 701280, Note_on_c, 2, 72, 52
4, 701280, Note_on_c, 2, 66, 52
4, 701472, Note_off_c, 2, 66, 0
4, 701472, Note_off_c, 2, 72, 0
4, 701520, Note_on_c, 2, 66, 52
4, 701520, Note_on_c, 2, 73, 52
4, 701712, Note_off_c, 2, 73, 0
4, 701712, Note_off_c, 2, 66, 0
4, 701760, Note_on_c, 2, 73, 53
4, 701760, Note_on_c, 2, 66, 53
4, 701952, Note_off_c, 2, 66, 0
4, 701952, Note_off_c, 2, 73, 0
4, 702000, Note_on_c, 2, 66, 54
4, 702000, Note_on_c, 2, 73, 54
4, 702192, Note_off_c, 2, 73, 0
4, 702192, Note_off_c, 2, 66, 0
4, 702240, Note_on_c, 2, 66, 54
4, 702240, Note_on_c, 2, 73, 54
4, 702432, Note_off_c, 2, 73, 0
4, 702432, Note_off_c, 2, 66, 0
4, 702480, Note_on_c, 2, 66, 55
4, 702480, Note_on_c, 2, 73, 55
4, 702672, Note_off_c, 2, 73, 0
4, 702672, Note_off_c, 2, 66, 0
4, 702720, Note_on_c, 2, 66, 55
4, 702720, Note_on_c, 2, 73, 55
4, 702912, Note_off_c, 2, 73, 0
4, 702912, Note_off_c, 2, 66, 0
4, 702960, Note_on_c, 2, 75, 56
4, 702960, Note_on_c, 2, 66, 56
4, 703152, Note_off_c, 2, 66, 0
4, 703152, Note_off_c, 2, 75, 0
4, 703200, Note_on_c, 2, 75, 56
4, 703200, Note_on_c, 2, 66, 56
4, 703392, Note_off_c, 2, 66, 0
4, 703392, Note_off_c, 2, 75, 0
4, 703440, Note_on_c, 2, 75, 57
4, 703440, Note_on_c, 2, 66, 57
4, 703632, Note_off_c, 2, 66, 0
4, 703632, Note_off_c, 2, 75, 0
4, 703680, Note_on_c, 2, 76, 58
4, 703680, Note_on_c, 2, 66, 58
4, 703872, Note_off_c, 2, 66, 0
4, 703872, Note_off_c, 2, 76, 0
4, 703920, Note_on_c, 2, 76, 58
4, 703920, Note_on_c, 2, 66, 58
4, 704112, Note_off_c, 2, 66, 0
4, 704112, Note_off_c, 2, 76, 0
4, 704160, Note_on_c, 2, 76, 59
4, 704160, Note_on_c, 2, 66, 59
4, 704352, Note_off_c, 2, 66, 0
4, 704352, Note_off_c, 2, 76, 0
4, 704400, Note_on_c, 2, 76, 59
4, 704400, Note_on_c, 2, 66, 59
4, 704592, Note_off_c, 2, 66, 0
4, 704592, Note_off_c, 2, 76, 0
4, 704640, Note_on_c, 2, 76, 60
4, 704640, Note_on_c, 2, 66, 60
4, 704832, Note_off_c, 2, 66, 0
4, 704832, Note_off_c, 2, 76, 0
4, 704880, Note_on_c, 2, 76, 61
4, 704880, Note_on_c, 2, 66, 61
4, 705072, Note_off_c, 2, 66, 0
4, 705072, Note_off_c, 2, 76, 0
4, 705120, Note_on_c, 2, 76, 61
4, 705120, Note_on_c, 2, 66, 61
4, 705312, Note_off_c, 2, 66, 0
4, 705312, Note_off_c, 2, 76, 0
4, 705360, Note_on_c, 2, 76, 60
4, 705360, Note_on_c, 2, 66, 60
4, 705552, Note_off_c, 2, 66, 0
4, 705552, Note_off_c, 2, 76, 0
4, 705600, Note_on_c, 2, 76, 58
4, 705600, Note_on_c, 2, 66, 58
4, 705792, Note_off_c, 2, 66, 0
4, 705792, Note_off_c, 2, 76, 0
4, 705840, Note_on_c, 2, 66, 57
4, 705840, Note_on_c, 2, 75, 57
4, 706032, Note_off_c, 2, 75, 0
4, 706032, Note_off_c, 2, 66, 0
4, 706080, Note_on_c, 2, 75, 56
4, 706080, Note_on_c, 2, 66, 56
4, 706272, Note_off_c, 2, 66, 0
4, 706272, Note_off_c, 2, 75, 0
4, 706320, Note_on_c, 2, 66, 54
4, 706320, Note_on_c, 2, 75, 54
4, 706512, Note_off_c, 2, 75, 0
4, 706512, Note_off_c, 2, 66, 0
4, 706560, Note_on_c, 2, 73, 53
4, 706560, Note_on_c, 2, 66, 53
4, 706752, Note_off_c, 2, 66, 0
4, 706752, Note_off_c, 2, 73, 0
4, 706800, Note_on_c, 2, 66, 53
4, 706800, Note_on_c, 2, 73, 53
4, 706992, Note_off_c, 2, 73, 0
4, 706992, Note_off_c, 2, 66, 0
4, 707040, Note_on_c, 2, 73, 51
4, 707040, Note_on_c, 2, 66, 51
4, 707232, Note_off_c, 2, 66, 0
4, 707232, Note_off_c, 2, 73, 0
4, 707280, Note_on_c, 2, 64, 48
4, 707280, Note_on_c, 2, 66, 48
4, 707280, Note_on_c, 2, 70, 48
4, 707472, Note_off_c, 2, 70, 0
4, 707472, Note_off_c, 2, 66, 0
4, 707472, Note_off_c, 2, 64, 0
4, 707520, Note_on_c, 2, 64, 45
4, 707520, Note_on_c, 2, 66, 45
4, 707520, Note_on_c, 2, 70, 45
4, 707712, Note_off_c, 2, 70, 0
4, 707712, Note_off_c, 2, 66, 0
4, 707712, Note_off_c, 2, 64, 0
4, 707760, Note_on_c, 2, 64, 42
4, 707760, Note_on_c, 2, 70, 42
4, 707760, Note_on_c, 2, 66, 42
4, 707952, Note_off_c, 2, 66, 0
4, 707952, Note_off_c, 2, 70, 0
4, 707952, Note_off_c, 2, 64, 0
4, 708000, Note_on_c, 2, 63, 50
4, 708720, Note_off_c, 2, 63, 0
4, 708720, Note_on_c, 2, 59, 55
4, 709440, Note_off_c, 2, 59, 0
4, 709440, Note_on_c, 2, 58, 60
4, 710160, Note_off_c, 2, 58, 0
4, 710160, Note_on_c, 2, 64, 56
4, 710880, Note_off_c, 2, 64, 0
4, 710880, Note_on_c, 2, 59, 52
4, 710880, Note_on_c, 2, 63, 52
4, 711360, Note_off_c, 2, 63, 0
4, 711360, Note_on_c, 2, 68, 56
4, 711600, Note_off_c, 2, 68, 0
4, 711600, Note_on_c, 2, 66, 58
4, 712080, Note_off_c, 2, 66, 0
4, 712080, Note_on_c, 2, 63, 61
4, 712320, Note_off_c, 2, 63, 0
4, 712320, Note_off_c, 2, 59, 0
4, 712320, Note_on_c, 2, 54, 65
4, 712320, Note_on_c, 2, 61, 65
4, 712800, Note_off_c, 2, 61, 0
4, 712800, Note_on_c, 2, 68, 61
4, 713040, Note_off_c, 2, 68, 0
4, 713040, Note_off_c, 2, 54, 0
4, 713040, Note_on_c, 2, 52, 59
4, 713040, Note_on_c, 2, 66, 59
4, 713520, Note_off_c, 2, 66, 0
4, 713520, Note_on_c, 2, 61, 55
4, 713760, Note_off_c, 2, 61, 0
4, 713760, Note_off_c, 2, 52, 0
4, 713760, Note_on_c, 2, 51, 38
4, 713880, Note_on_c, 2, 59, 38
4, 713970, Note_off_c, 2, 51, 0
4, 714000, Note_off_c, 2, 59, 0
4, 714000, Note_on_c, 2, 51, 38
4, 714120, Note_on_c, 2, 59, 39
4, 714228, Note_off_c, 2, 51, 0
4, 714240, Note_off_c, 2, 59, 0
4, 714240, Note_on_c, 2, 51, 39
4, 714360, Note_on_c, 2, 59, 39
4, 714468, Note_off_c, 2, 51, 0
4, 714480, Note_off_c, 2, 59, 0
4, 714480, Note_on_c, 2, 50, 40
4, 714600, Note_on_c, 2, 60, 40
4, 714708, Note_off_c, 2, 50, 0
4, 714720, Note_off_c, 2, 60, 0
4, 714720, Note_on_c, 2, 50, 40
4, 714840, Note_on_c, 2, 60, 40
4, 714948, Note_off_c, 2, 50, 0
4, 714960, Note_off_c, 2, 60, 0
4, 714960, Note_on_c, 2, 50, 41
4, 715080, Note_on_c, 2, 60, 41
4, 715188, Note_off_c, 2, 50, 0
4, 715200, Note_off_c, 2, 60, 0
4, 715200, Note_on_c, 2, 48, 41
4, 715320, Note_on_c, 2, 57, 42
4, 715428, Note_off_c, 2, 48, 0
4, 715440, Note_off_c, 2, 57, 0
4, 715440, Note_on_c, 2, 48, 42
4, 715560, Note_on_c, 2, 57, 42
4, 715668, Note_off_c, 2, 48, 0
4, 715680, Note_off_c, 2, 57, 0
4, 715680, Note_on_c, 2, 48, 43
4, 715800, Note_on_c, 2, 57, 43
4, 715908, Note_off_c, 2, 48, 0
4, 715920, Note_off_c, 2, 57, 0
4, 715920, Note_on_c, 2, 47, 43
4, 716040, Note_on_c, 2, 55, 44
4, 716148, Note_off_c, 2, 47, 0
4, 716160, Note_off_c, 2, 55, 0
4, 716160, Note_on_c, 2, 47, 44
4, 716280, Note_on_c, 2, 55, 44
4, 716388, Note_off_c, 2, 47, 0
4, 716400, Note_off_c, 2, 55, 0
4, 716400, Note_on_c, 2, 45, 45
4, 716520, Note_on_c, 2, 54, 45
4, 716628, Note_off_c, 2, 45, 0
4, 716640, Note_off_c, 2, 54, 0
4, 716640, Note_on_c, 2, 43, 45
4, 716640, Note_on_c, 2, 55, 45
4, 716880, Note_off_c, 2, 55, 0
4, 716880, Note_off_c, 2, 43, 0
4, 716880, Note_on_c, 2, 59, 45
4, 716880, Note_on_c, 2, 55, 45
4, 717000, Note_on_c, 2, 62, 46
4, 717099, Note_off_c, 2, 55, 0
4, 717099, Note_off_c, 2, 59, 0
4, 717120, Note_off_c, 2, 62, 0
4, 717120, Note_on_c, 2, 55, 47
4, 717120, Note_on_c, 2, 59, 47
4, 717240, Note_on_c, 2, 62, 47
4, 717330, Note_off_c, 2, 59, 0
4, 717330, Note_off_c, 2, 55, 0
4, 717360, Note_off_c, 2, 62, 0
4, 717360, Note_on_c, 2, 59, 48
4, 717360, Note_on_c, 2, 55, 48
4, 717480, Note_on_c, 2, 62, 48
4, 717570, Note_off_c, 2, 55, 0
4, 717570, Note_off_c, 2, 59, 0
4, 717600, Note_off_c, 2, 62, 0
4, 717600, Note_on_c, 2, 59, 49
4, 717600, Note_on_c, 2, 55, 49
4, 717720, Note_on_c, 2, 62, 50
4, 717810, Note_off_c, 2, 55, 0
4, 717810, Note_off_c, 2, 59, 0
4, 717840, Note_off_c, 2, 62, 0
4, 717840, Note_on_c, 2, 55, 50
4, 717840, Note_on_c, 2, 59, 50
4, 717960, Note_on_c, 2, 62, 51
4, 718050, Note_off_c, 2, 59, 0
4, 718050, Note_off_c, 2, 55, 0
4, 718080, Note_off_c, 2, 62, 0
4, 718080, Note_on_c, 2, 54, 51
4, 718080, Note_on_c, 2, 60, 51
4, 718200, Note_on_c, 2, 62, 51
4, 718290, Note_off_c, 2, 60, 0
4, 718290, Note_off_c, 2, 54, 0
4, 718320, Note_off_c, 2, 62, 0
4, 718320, Note_on_c, 2, 54, 50
4, 718320, Note_on_c, 2, 60, 50
4, 718440, Note_on_c, 2, 62, 49
4, 718530, Note_off_c, 2, 60, 0
4, 718530, Note_off_c, 2, 54, 0
4, 718560, Note_off_c, 2, 62, 0
4, 718560, Note_on_c, 2, 54, 49
4, 718560, Note_on_c, 2, 60, 49
4, 718680, Note_on_c, 2, 62, 48
4, 718770, Note_off_c, 2, 60, 0
4, 718770, Note_off_c, 2, 54, 0
4, 718800, Note_off_c, 2, 62, 0
4, 718800, Note_on_c, 2, 54, 47
4, 718800, Note_on_c, 2, 60, 47
4, 718920, Note_on_c, 2, 62, 47
4, 719010, Note_off_c, 2, 60, 0
4, 719010, Note_off_c, 2, 54, 0
4, 719040, Note_off_c, 2, 62, 0
4, 719040, Note_on_c, 2, 54, 46
4, 719040, Note_on_c, 2, 60, 46
4, 719160, Note_on_c, 2, 62, 45
4, 719250, Note_off_c, 2, 60, 0
4, 719250, Note_off_c, 2, 54, 0
4, 719280, Note_off_c, 2, 62, 0
4, 719280, Note_on_c, 2, 54, 45
4, 719280, Note_on_c, 2, 60, 45
4, 719400, Note_on_c, 2, 62, 44
4, 719490, Note_off_c, 2, 60, 0
4, 719490, Note_off_c, 2, 54, 0
4, 719520, Note_off_c, 2, 62, 0
4, 719520, Note_on_c, 2, 55, 43
4, 719520, Note_on_c, 2, 59, 43
4, 720000, Note_off_c, 2, 59, 0
4, 720000, Note_on_c, 2, 64, 51
4, 720240, Note_off_c, 2, 64, 0
4, 720240, Note_on_c, 2, 62, 53
4, 720720, Note_off_c, 2, 62, 0
4, 720720, Note_on_c, 2, 59, 56
4, 720960, Note_off_c, 2, 59, 0
4, 720960, Note_off_c, 2, 55, 0
4, 720960, Note_on_c, 2, 50, 59
4, 720960, Note_on_c, 2, 57, 59
4, 721440, Note_off_c, 2, 57, 0
4, 721440, Note_on_c, 2, 64, 57
4, 721680, Note_off_c, 2, 64, 0
4, 721680, Note_on_c, 2, 62, 56
4, 722160, Note_off_c, 2, 62, 0
4, 722160, Note_on_c, 2, 57, 53
4, 722400, Note_off_c, 2, 57, 0
4, 722400, Note_off_c, 2, 50, 0
4, 722400, Note_on_c, 2, 55, 52
4, 722400, Note_on_c, 2, 62, 52
4, 722400, Note_on_c, 2, 59, 52
4, 722880, Note_off_c, 2, 59, 0
4, 722880, Note_off_c, 2, 62, 0
4, 722880, Note_off_c, 2, 55, 0
4, 723600, Note_on_c, 2, 62, 53
4, 723840, Note_off_c, 2, 62, 0
4, 723840, Note_on_c, 2, 62, 57
4, 724080, Note_off_c, 2, 62, 0
4, 724080, Note_on_c, 2, 59, 55
4, 724320, Note_off_c, 2, 59, 0
4, 724320, Note_on_c, 2, 55, 53
4, 724560, Note_off_c, 2, 55, 0
4, 724560, Note_on_c, 2, 53, 51
4, 724800, Note_off_c, 2, 53, 0
4, 724800, Note_on_c, 2, 50, 49
4, 725040, Note_off_c, 2, 50, 0
4, 725040, Note_on_c, 2, 47, 47
4, 725280, Note_off_c, 2, 47, 0
4, 725280, Note_on_c, 2, 48, 45
4, 725760, Note_off_c, 2, 48, 0
4, 725760, Note_on_c, 2, 67, 61
4, 726240, Note_off_c, 2, 67, 0
4, 726240, Note_on_c, 2, 64, 60
4, 726480, Note_off_c, 2, 64, 0
4, 726480, Note_on_c, 2, 55, 59
4, 726480, Note_on_c, 2, 60, 59
4, 726720, Note_off_c, 2, 60, 0
4, 726720, Note_off_c, 2, 55, 0
4, 726720, Note_on_c, 2, 55, 58
4, 726960, Note_off_c, 2, 55, 0
4, 726960, Note_on_c, 2, 52, 58
4, 727200, Note_off_c, 2, 52, 0
4, 727200, Note_on_c, 2, 48, 57
4, 727440, Note_off_c, 2, 48, 0
4, 727440, Note_on_c, 2, 43, 56
4, 727680, Note_off_c, 2, 43, 0
4, 727680, Note_on_c, 2, 36, 55
4, 727920, Note_off_c, 2, 36, 0
4, 727920, Note_on_c, 2, 48, 55
4, 728160, Note_off_c, 2, 48, 0
4, 728160, Note_on_c, 2, 48, 54
4, 728280, Note_on_c, 2, 51, 52
4, 728400, Note_on_c, 2, 56, 52
4, 728472, Note_off_c, 2, 51, 0
4, 728520, Note_on_c, 2, 51, 52
4, 728542, Note_off_c, 2, 48, 0
4, 728592, Note_off_c, 2, 56, 0
4, 728640, Note_on_c, 2, 56, 52
4, 728712, Note_off_c, 2, 51, 0
4, 728760, Note_on_c, 2, 51, 52
4, 728832, Note_off_c, 2, 56, 0
4, 728880, Note_on_c, 2, 49, 53
4, 728898, Note_off_c, 2, 51, 0
4, 729000, Note_on_c, 2, 51, 53
4, 729120, Note_on_c, 2, 55, 53
4, 729192, Note_off_c, 2, 51, 0
4, 729240, Note_on_c, 2, 58, 53
4, 729270, Note_off_c, 2, 49, 0
4, 729312, Note_off_c, 2, 55, 0
4, 729360, Note_on_c, 2, 61, 54
4, 729432, Note_off_c, 2, 58, 0
4, 729480, Note_on_c, 2, 55, 54
4, 729552, Note_off_c, 2, 61, 0
4, 729600, Note_off_c, 2, 55, 0
4, 729600, Note_on_c, 2, 56, 54
4, 729720, Note_on_c, 2, 60, 54
4, 729840, Note_on_c, 2, 63, 54
4, 729912, Note_off_c, 2, 60, 0
4, 729960, Note_on_c, 2, 60, 55
4, 730002, Note_off_c, 2, 56, 0
4, 730032, Note_off_c, 2, 63, 0
4, 730080, Note_on_c, 2, 63, 55
4, 730152, Note_off_c, 2, 60, 0
4, 730200, Note_on_c, 2, 60, 55
4, 730272, Note_off_c, 2, 63, 0
4, 730320, Note_off_c, 2, 60, 0
4, 730320, Note_on_c, 2, 55, 55
4, 730440, Note_on_c, 2, 58, 56
4, 730560, Note_on_c, 2, 63, 56
4, 730614, Note_off_c, 2, 58, 0
4, 730680, Note_on_c, 2, 58, 56
4, 730700, Note_off_c, 2, 55, 0
4, 730734, Note_off_c, 2, 63, 0
4, 730800, Note_on_c, 2, 55, 56
4, 730854, Note_off_c, 2, 58, 0
4, 730920, Note_on_c, 2, 58, 56
4, 731028, Note_off_c, 2, 55, 0
4, 731040, Note_off_c, 2, 58, 0
4, 731040, Note_on_c, 2, 51, 57
4, 731160, Note_on_c, 2, 55, 57
4, 731280, Note_on_c, 2, 58, 57
4, 731370, Note_off_c, 2, 55, 0
4, 731400, Note_off_c, 2, 51, 0
4, 731400, Note_on_c, 2, 55, 57
4, 731490, Note_off_c, 2, 58, 0
4, 731520, Note_on_c, 2, 58, 58
4, 731610, Note_off_c, 2, 55, 0
4, 731640, Note_on_c, 2, 55, 58
4, 731730, Note_off_c, 2, 58, 0
4, 731760, Note_off_c, 2, 55, 0
4, 731760, Note_on_c, 2, 46, 58
4, 731880, Note_on_c, 2, 56, 58
4, 732000, Note_on_c, 2, 58, 58
4, 732072, Note_off_c, 2, 56, 0
4, 732120, Note_off_c, 2, 46, 0
4, 732120, Note_on_c, 2, 56, 59
4, 732210, Note_off_c, 2, 58, 0
4, 732240, Note_on_c, 2, 58, 59
4, 732330, Note_off_c, 2, 56, 0
4, 732360, Note_on_c, 2, 56, 59
4, 732450, Note_off_c, 2, 58, 0
4, 732480, Note_off_c, 2, 56, 0
4, 732480, Note_on_c, 2, 51, 59
4, 732600, Note_on_c, 2, 55, 60
4, 732720, Note_on_c, 2, 58, 60
4, 732801, Note_off_c, 2, 55, 0
4, 732840, Note_off_c, 2, 51, 0
4, 732840, Note_on_c, 2, 55, 60
4, 732921, Note_off_c, 2, 58, 0
4, 732960, Note_on_c, 2, 58, 60
4, 733041, Note_off_c, 2, 55, 0
4, 733080, Note_on_c, 2, 55, 60
4, 733161, Note_off_c, 2, 58, 0
4, 733200, Note_on_c, 2, 58, 61
4, 733281, Note_off_c, 2, 55, 0
4, 733320, Note_on_c, 2, 55, 61
4, 733401, Note_off_c, 2, 58, 0
4, 733440, Note_on_c, 2, 58, 61
4, 733521, Note_off_c, 2, 55, 0
4, 733560, Note_on_c, 2, 55, 61
4, 733641, Note_off_c, 2, 58, 0
4, 733680, Note_on_c, 2, 52, 62
4, 733752, Note_off_c, 2, 55, 0
4, 733800, Note_on_c, 2, 55, 62
4, 733912, Note_off_c, 2, 52, 0
4, 733920, Note_off_c, 2, 55, 0
4, 733920, Note_on_c, 2, 53, 62
4, 734040, Note_on_c, 2, 56, 62
4, 734160, Note_on_c, 2, 60, 62
4, 734259, Note_off_c, 2, 56, 0
4, 734265, Note_off_c, 2, 53, 0
4, 734280, Note_on_c, 2, 56, 63
4, 734379, Note_off_c, 2, 60, 0
4, 734400, Note_on_c, 2, 60, 63
4, 734499, Note_off_c, 2, 56, 0
4, 734520, Note_on_c, 2, 56, 63
4, 734619, Note_off_c, 2, 60, 0
4, 734640, Note_off_c, 2, 56, 0
4, 734640, Note_on_c, 2, 48, 63
4, 734760, Note_on_c, 2, 58, 64
4, 734880, Note_on_c, 2, 60, 64
4, 734952, Note_off_c, 2, 58, 0
4, 734992, Note_off_c, 2, 48, 0
4, 735000, Note_on_c, 2, 58, 64
4, 735072, Note_off_c, 2, 60, 0
4, 735120, Note_on_c, 2, 60, 64
4, 735192, Note_off_c, 2, 58, 0
4, 735240, Note_on_c, 2, 58, 64
4, 735312, Note_off_c, 2, 60, 0
4, 735360, Note_off_c, 2, 58, 0
4, 735360, Note_on_c, 2, 53, 65
4, 735480, Note_on_c, 2, 56, 65
4, 735600, Note_on_c, 2, 60, 65
4, 735690, Note_off_c, 2, 56, 0
4, 735720, Note_off_c, 2, 53, 0
4, 735720, Note_on_c, 2, 56, 65
4, 735810, Note_off_c, 2, 60, 0
4, 735840, Note_on_c, 2, 60, 66
4, 735930, Note_off_c, 2, 56, 0
4, 735960, Note_on_c, 2, 56, 66
4, 736050, Note_off_c, 2, 60, 0
4, 736080, Note_on_c, 2, 58, 66
4, 736170, Note_off_c, 2, 56, 0
4, 736200, Note_on_c, 2, 56, 66
4, 736281, Note_off_c, 2, 58, 0
4, 736320, Note_on_c, 2, 58, 66
4, 736401, Note_off_c, 2, 56, 0
4, 736440, Note_on_c, 2, 56, 67
4, 736521, Note_off_c, 2, 58, 0
4, 736560, Note_on_c, 2, 50, 67
4, 736641, Note_off_c, 2, 56, 0
4, 736680, Note_on_c, 2, 56, 67
4, 736800, Note_off_c, 2, 56, 0
4, 736800, Note_off_c, 2, 50, 0
4, 736800, Note_on_c, 2, 51, 65
4, 736920, Note_on_c, 2, 55, 65
4, 737040, Note_on_c, 2, 58, 64
4, 737130, Note_off_c, 2, 55, 0
4, 737160, Note_off_c, 2, 51, 0
4, 737160, Note_on_c, 2, 55, 64
4, 737250, Note_off_c, 2, 58, 0
4, 737280, Note_on_c, 2, 58, 64
4, 737370, Note_off_c, 2, 55, 0
4, 737400, Note_on_c, 2, 55, 63
4, 737490, Note_off_c, 2, 58, 0
4, 737520, Note_off_c, 2, 55, 0
4, 737520, Note_on_c, 2, 44, 63
4, 737640, Note_on_c, 2, 53, 62
4, 737760, Note_on_c, 2, 56, 62
4, 737850, Note_off_c, 2, 53, 0
4, 737880, Note_on_c, 2, 53, 62
4, 737940, Note_off_c, 2, 44, 0
4, 737970, Note_off_c, 2, 56, 0
4, 738000, Note_on_c, 2, 56, 61
4, 738090, Note_off_c, 2, 53, 0
4, 738120, Note_on_c, 2, 53, 61
4, 738210, Note_off_c, 2, 56, 0
4, 738240, Note_off_c, 2, 53, 0
4, 738240, Note_on_c, 2, 46, 60
4, 738360, Note_on_c, 2, 51, 60
4, 738480, Note_on_c, 2, 55, 59
4, 738570, Note_off_c, 2, 51, 0
4, 738600, Note_on_c, 2, 51, 59
4, 738615, Note_off_c, 2, 46, 0
4, 738690, Note_off_c, 2, 55, 0
4, 738720, Note_on_c, 2, 55, 59
4, 738810, Note_off_c, 2, 51, 0
4, 738840, Note_on_c, 2, 51, 58
4, 738930, Note_off_c, 2, 55, 0
4, 738960, Note_on_c, 2, 46, 58
4, 738987, Note_off_c, 2, 51, 0
4, 739080, Note_on_c, 2, 50, 57
4, 739200, Note_on_c, 2, 53, 57
4, 739207, Note_off_c, 2, 46, 0
4, 739410, Note_off_c, 2, 53, 0
4, 739440, Note_off_c, 2, 50, 0
4, 739440, Note_on_c, 2, 46, 56
4, 739440, Note_on_c, 2, 58, 56
4, 739596, Note_off_c, 2, 58, 0
4, 739596, Note_off_c, 2, 46, 0
4, 739680, Note_on_c, 2, 46, 58
4, 739680, Note_on_c, 2, 58, 58
4, 739836, Note_off_c, 2, 58, 0
4, 739836, Note_off_c, 2, 46, 0
4, 739920, Note_on_c, 2, 43, 60
4, 739920, Note_on_c, 2, 55, 60
4, 740076, Note_off_c, 2, 55, 0
4, 740076, Note_off_c, 2, 43, 0
4, 740160, Note_on_c, 2, 39, 61
4, 740160, Note_on_c, 2, 51, 61
4, 740316, Note_off_c, 2, 51, 0
4, 740316, Note_off_c, 2, 39, 0
4, 740400, Note_on_c, 2, 38, 62
4, 740400, Note_on_c, 2, 50, 62
4, 740556, Note_off_c, 2, 50, 0
4, 740556, Note_off_c, 2, 38, 0
4, 740640, Note_on_c, 2, 41, 64
4, 740640, Note_on_c, 2, 53, 64
4, 740796, Note_off_c, 2, 53, 0
4, 740796, Note_off_c, 2, 41, 0
4, 740880, Note_on_c, 2, 46, 65
4, 740880, Note_on_c, 2, 58, 65
4, 741036, Note_off_c, 2, 58, 0
4, 741036, Note_off_c, 2, 46, 0
4, 741120, Note_on_c, 2, 58, 67
4, 741120, Note_on_c, 2, 46, 67
4, 741276, Note_off_c, 2, 46, 0
4, 741276, Note_off_c, 2, 58, 0
4, 741360, Note_on_c, 2, 43, 68
4, 741360, Note_on_c, 2, 55, 68
4, 741516, Note_off_c, 2, 55, 0
4, 741516, Note_off_c, 2, 43, 0
4, 741600, Note_on_c, 2, 39, 69
4, 741600, Note_on_c, 2, 51, 69
4, 741756, Note_off_c, 2, 51, 0
4, 741756, Note_off_c, 2, 39, 0
4, 741840, Note_on_c, 2, 39, 71
4, 741840, Note_on_c, 2, 51, 71
4, 741996, Note_off_c, 2, 51, 0
4, 741996, Note_off_c, 2, 39, 0
4, 742080, Note_on_c, 2, 43, 72
4, 742080, Note_on_c, 2, 55, 72
4, 742236, Note_off_c, 2, 55, 0
4, 742236, Note_off_c, 2, 43, 0
4, 742320, Note_on_c, 2, 48, 74
4, 742320, Note_on_c, 2, 60, 74
4, 742476, Note_off_c, 2, 60, 0
4, 742476, Note_off_c, 2, 48, 0
4, 742560, Note_on_c, 2, 60, 75
4, 742560, Note_on_c, 2, 48, 75
4, 742716, Note_off_c, 2, 48, 0
4, 742716, Note_off_c, 2, 60, 0
4, 742800, Note_on_c, 2, 44, 76
4, 742800, Note_on_c, 2, 56, 76
4, 742956, Note_off_c, 2, 56, 0
4, 742956, Note_off_c, 2, 44, 0
4, 743040, Note_on_c, 2, 53, 78
4, 743040, Note_on_c, 2, 41, 78
4, 743196, Note_off_c, 2, 41, 0
4, 743196, Note_off_c, 2, 53, 0
4, 743280, Note_on_c, 2, 40, 79
4, 743280, Note_on_c, 2, 52, 79
4, 743436, Note_off_c, 2, 52, 0
4, 743436, Note_off_c, 2, 40, 0
4, 743520, Note_on_c, 2, 55, 80
4, 743520, Note_on_c, 2, 43, 80
4, 743676, Note_off_c, 2, 43, 0
4, 743676, Note_off_c, 2, 55, 0
4, 743760, Note_on_c, 2, 60, 82
4, 743760, Note_on_c, 2, 48, 82
4, 743916, Note_off_c, 2, 48, 0
4, 743916, Note_off_c, 2, 60, 0
4, 744000, Note_on_c, 2, 60, 83
4, 744000, Note_on_c, 2, 48, 83
4, 744156, Note_off_c, 2, 48, 0
4, 744156, Note_off_c, 2, 60, 0
4, 744240, Note_on_c, 2, 44, 85
4, 744240, Note_on_c, 2, 56, 85
4, 744396, Note_off_c, 2, 56, 0
4, 744396, Note_off_c, 2, 44, 0
4, 744480, Note_on_c, 2, 41, 86
4, 744480, Note_on_c, 2, 53, 86
4, 744636, Note_off_c, 2, 53, 0
4, 744636, Note_off_c, 2, 41, 0
4, 744720, Note_on_c, 2, 38, 87
4, 744720, Note_on_c, 2, 50, 87
4, 744876, Note_off_c, 2, 50, 0
4, 744876, Note_off_c, 2, 38, 0
4, 744960, Note_on_c, 2, 41, 89
4, 744960, Note_on_c, 2, 53, 89
4, 745116, Note_off_c, 2, 53, 0
4, 745116, Note_off_c, 2, 41, 0
4, 745200, Note_on_c, 2, 46, 90
4, 745200, Note_on_c, 2, 58, 90
4, 745356, Note_off_c, 2, 58, 0
4, 745356, Note_off_c, 2, 46, 0
4, 745440, Note_on_c, 2, 46, 92
4, 745440, Note_on_c, 2, 58, 92
4, 745596, Note_off_c, 2, 58, 0
4, 745596, Note_off_c, 2, 46, 0
4, 745680, Note_on_c, 2, 43, 93
4, 745680, Note_on_c, 2, 55, 93
4, 745836, Note_off_c, 2, 55, 0
4, 745836, Note_off_c, 2, 43, 0
4, 745920, Note_on_c, 2, 39, 94
4, 745920, Note_on_c, 2, 51, 94
4, 746076, Note_off_c, 2, 51, 0
4, 746076, Note_off_c, 2, 39, 0
4, 746160, Note_on_c, 2, 36, 96
4, 746160, Note_on_c, 2, 48, 96
4, 746316, Note_off_c, 2, 48, 0
4, 746316, Note_off_c, 2, 36, 0
4, 746400, Note_on_c, 2, 41, 97
4, 746400, Note_on_c, 2, 53, 97
4, 746556, Note_off_c, 2, 53, 0
4, 746556, Note_off_c, 2, 41, 0
4, 746640, Note_on_c, 2, 44, 99
4, 746640, Note_on_c, 2, 56, 99
4, 746796, Note_off_c, 2, 56, 0
4, 746796, Note_off_c, 2, 44, 0
4, 746880, Note_on_c, 2, 34, 100
4, 746880, Note_on_c, 2, 46, 100
4, 747036, Note_off_c, 2, 46, 0
4, 747036, Note_off_c, 2, 34, 0
4, 747120, Note_on_c, 2, 39, 101
4, 747120, Note_on_c, 2, 51, 101
4, 747276, Note_off_c, 2, 51, 0
4, 747276, Note_off_c, 2, 39, 0
4, 747360, Note_on_c, 2, 43, 103
4, 747360, Note_on_c, 2, 55, 103
4, 747516, Note_off_c, 2, 55, 0
4, 747516, Note_off_c, 2, 43, 0
4, 747600, Note_on_c, 2, 46, 104
4, 747600, Note_on_c, 2, 34, 104
4, 747756, Note_off_c, 2, 34, 0
4, 747756, Note_off_c, 2, 46, 0
4, 747840, Note_on_c, 2, 53, 105
4, 747840, Note_on_c, 2, 41, 105
4, 747996, Note_off_c, 2, 41, 0
4, 747996, Note_off_c, 2, 53, 0
4, 748080, Note_on_c, 2, 58, 107
4, 748080, Note_on_c, 2, 46, 107
4, 748236, Note_off_c, 2, 46, 0
4, 748236, Note_off_c, 2, 58, 0
4, 748320, Note_on_c, 2, 39, 120
4, 748560, Note_on_c, 2, 51, 93
4, 748560, Note_on_c, 2, 55, 93
4, 748800, Note_off_c, 2, 55, 0
4, 748800, Note_off_c, 2, 51, 0
4, 748800, Note_on_c, 2, 58, 94
4, 748800, Note_on_c, 2, 51, 94
4, 748800, Note_on_c, 2, 55, 94
4, 749040, Note_off_c, 2, 55, 0
4, 749040, Note_off_c, 2, 51, 0
4, 749040, Note_off_c, 2, 58, 0
4, 749040, Note_on_c, 2, 51, 94
4, 749040, Note_on_c, 2, 63, 94
4, 749040, Note_on_c, 2, 58, 94
4, 749040, Note_on_c, 2, 55, 94
4, 749280, Note_off_c, 2, 55, 0
4, 749280, Note_off_c, 2, 58, 0
4, 749280, Note_off_c, 2, 63, 0
4, 749280, Note_off_c, 2, 51, 0
4, 749280, Note_on_c, 2, 51, 95
4, 749280, Note_on_c, 2, 63, 95
4, 749280, Note_on_c, 2, 58, 95
4, 749280, Note_on_c, 2, 55, 95
4, 749520, Note_off_c, 2, 55, 0
4, 749520, Note_off_c, 2, 58, 0
4, 749520, Note_off_c, 2, 63, 0
4, 749520, Note_off_c, 2, 51, 0
4, 749520, Note_on_c, 2, 51, 95
4, 749520, Note_on_c, 2, 63, 95
4, 749520, Note_on_c, 2, 58, 95
4, 749520, Note_on_c, 2, 55, 95
4, 749760, Note_off_c, 2, 55, 0
4, 749760, Note_off_c, 2, 58, 0
4, 749760, Note_off_c, 2, 63, 0
4, 749760, Note_off_c, 2, 51, 0
4, 749760, Note_on_c, 2, 51, 96
4, 749760, Note_on_c, 2, 63, 96
4, 749760, Note_on_c, 2, 58, 96
4, 749760, Note_on_c, 2, 55, 96
4, 750000, Note_off_c, 2, 55, 0
4, 750000, Note_off_c, 2, 58, 0
4, 750000, Note_off_c, 2, 63, 0
4, 750000, Note_off_c, 2, 51, 0
4, 750000, Note_on_c, 2, 51, 96
4, 750000, Note_on_c, 2, 63, 96
4, 750000, Note_on_c, 2, 58, 96
4, 750000, Note_on_c, 2, 55, 96
4, 750240, Note_off_c, 2, 55, 0
4, 750240, Note_off_c, 2, 58, 0
4, 750240, Note_off_c, 2, 63, 0
4, 750240, Note_off_c, 2, 51, 0
4, 750240, Note_on_c, 2, 63, 97
4, 750240, Note_on_c, 2, 51, 97
4, 750240, Note_on_c, 2, 58, 97
4, 750240, Note_on_c, 2, 55, 97
4, 750480, Note_off_c, 2, 55, 0
4, 750480, Note_off_c, 2, 58, 0
4, 750480, Note_off_c, 2, 51, 0
4, 750480, Note_off_c, 2, 63, 0
4, 750480, Note_on_c, 2, 51, 97
4, 750480, Note_on_c, 2, 53, 97
4, 750480, Note_on_c, 2, 58, 97
4, 750480, Note_on_c, 2, 56, 97
4, 750480, Note_on_c, 2, 62, 97
4, 750720, Note_off_c, 2, 62, 0
4, 750720, Note_off_c, 2, 56, 0
4, 750720, Note_off_c, 2, 58, 0
4, 750720, Note_off_c, 2, 53, 0
4, 750720, Note_off_c, 2, 51, 0
4, 750720, Note_on_c, 2, 58, 98
4, 750720, Note_on_c, 2, 51, 98
4, 750720, Note_on_c, 2, 62, 98
4, 750720, Note_on_c, 2, 53, 98
4, 750720, Note_on_c, 2, 56, 98
4, 750960, Note_off_c, 2, 56, 0
4, 750960, Note_off_c, 2, 53, 0
4, 750960, Note_off_c, 2, 62, 0
4, 750960, Note_off_c, 2, 51, 0
4, 750960, Note_off_c, 2, 58, 0
4, 750960, Note_on_c, 2, 58, 98
4, 750960, Note_on_c, 2, 62, 98
4, 750960, Note_on_c, 2, 51, 98
4, 750960, Note_on_c, 2, 56, 98
4, 750960, Note_on_c, 2, 53, 98
4, 751200, Note_off_c, 2, 53, 0
4, 751200, Note_off_c, 2, 56, 0
4, 751200, Note_off_c, 2, 51, 0
4, 751200, Note_off_c, 2, 62, 0
4, 751200, Note_off_c, 2, 58, 0
4, 751200, Note_on_c, 2, 51, 100
4, 751200, Note_on_c, 2, 58, 100
4, 751200, Note_on_c, 2, 63, 100
4, 751200, Note_on_c, 2, 55, 100
4, 751440, Note_off_c, 2, 55, 0
4, 751440, Note_off_c, 2, 63, 0
4, 751440, Note_off_c, 2, 58, 0
4, 751440, Note_off_c, 2, 51, 0
4, 751440, Note_on_c, 2, 51, 100
4, 751440, Note_on_c, 2, 63, 100
4, 751440, Note_on_c, 2, 58, 100
4, 751440, Note_on_c, 2, 55, 100
4, 751680, Note_off_c, 2, 55, 0
4, 751680, Note_off_c, 2, 58, 0
4, 751680, Note_off_c, 2, 63, 0
4, 751680, Note_off_c, 2, 51, 0
4, 751680, Note_on_c, 2, 51, 100
4, 751680, Note_on_c, 2, 63, 100
4, 751680, Note_on_c, 2, 58, 100
4, 751680, Note_on_c, 2, 55, 100
4, 751920, Note_off_c, 2, 55, 0
4, 751920, Note_off_c, 2, 58, 0
4, 751920, Note_off_c, 2, 63, 0
4, 751920, Note_off_c, 2, 51, 0
4, 751920, Note_on_c, 2, 51, 99
4, 751920, Note_on_c, 2, 63, 99
4, 751920, Note_on_c, 2, 58, 99
4, 751920, Note_on_c, 2, 55, 99
4, 752160, Note_off_c, 2, 55, 0
4, 752160, Note_off_c, 2, 58, 0
4, 752160, Note_off_c, 2, 63, 0
4, 752160, Note_off_c, 2, 51, 0
4, 752160, Note_on_c, 2, 51, 99
4, 752160, Note_on_c, 2, 63, 99
4, 752160, Note_on_c, 2, 58, 99
4, 752160, Note_on_c, 2, 55, 99
4, 752400, Note_off_c, 2, 55, 0
4, 752400, Note_off_c, 2, 58, 0
4, 752400, Note_off_c, 2, 63, 0
4, 752400, Note_off_c, 2, 51, 0
4, 752400, Note_on_c, 2, 63, 98
4, 752400, Note_on_c, 2, 51, 98
4, 752400, Note_on_c, 2, 58, 98
4, 752400, Note_on_c, 2, 55, 98
4, 752640, Note_off_c, 2, 55, 0
4, 752640, Note_off_c, 2, 58, 0
4, 752640, Note_off_c, 2, 51, 0
4, 752640, Note_off_c, 2, 63, 0
4, 752640, Note_on_c, 2, 51, 98
4, 752640, Note_on_c, 2, 63, 98
4, 752640, Note_on_c, 2, 58, 98
4, 752640, Note_on_c, 2, 55, 98
4, 752880, Note_off_c, 2, 55, 0
4, 752880, Note_off_c, 2, 58, 0
4, 752880, Note_off_c, 2, 63, 0
4, 752880, Note_off_c, 2, 51, 0
4, 752880, Note_on_c, 2, 63, 97
4, 752880, Note_on_c, 2, 51, 97
4, 752880, Note_on_c, 2, 58, 97
4, 752880, Note_on_c, 2, 55, 97
4, 753120, Note_off_c, 2, 55, 0
4, 753120, Note_off_c, 2, 58, 0
4, 753120, Note_off_c, 2, 51, 0
4, 753120, Note_off_c, 2, 63, 0
4, 753120, Note_on_c, 2, 51, 97
4, 753120, Note_on_c, 2, 63, 97
4, 753120, Note_on_c, 2, 58, 97
4, 753120, Note_on_c, 2, 55, 97
4, 753360, Note_off_c, 2, 55, 0
4, 753360, Note_off_c, 2, 58, 0
4, 753360, Note_off_c, 2, 63, 0
4, 753360, Note_off_c, 2, 51, 0
4, 753360, Note_on_c, 2, 51, 96
4, 753360, Note_on_c, 2, 53, 96
4, 753360, Note_on_c, 2, 58, 96
4, 753360, Note_on_c, 2, 56, 96
4, 753600, Note_off_c, 2, 56, 0
4, 753600, Note_off_c, 2, 58, 0
4, 753600, Note_off_c, 2, 53, 0
4, 753600, Note_off_c, 2, 51, 0
4, 753600, Note_on_c, 2, 51, 96
4, 753600, Note_on_c, 2, 58, 96
4, 753600, Note_on_c, 2, 53, 96
4, 753600, Note_on_c, 2, 56, 96
4, 753660, Note_off_c, 2, 39, 0
4, 753840, Note_off_c, 2, 56, 0
4, 753840, Note_off_c, 2, 53, 0
4, 753840, Note_off_c, 2, 58, 0
4, 753840, Note_off_c, 2, 51, 0
4, 753840, Note_on_c, 2, 58, 95
4, 753840, Note_on_c, 2, 51, 95
4, 753840, Note_on_c, 2, 56, 95
4, 753840, Note_on_c, 2, 53, 95
4, 754080, Note_off_c, 2, 53, 0
4, 754080, Note_off_c, 2, 56, 0
4, 754080, Note_off_c, 2, 51, 0
4, 754080, Note_off_c, 2, 58, 0
4, 754080, Note_on_c, 2, 39, 120
4, 754320, Note_on_c, 2, 51, 93
4, 754320, Note_on_c, 2, 55, 93
4, 754560, Note_off_c, 2, 55, 0
4, 754560, Note_off_c, 2, 51, 0
4, 754560, Note_on_c, 2, 55, 94
4, 754560, Note_on_c, 2, 58, 94
4, 754560, Note_on_c, 2, 51, 94
4, 754800, Note_off_c, 2, 51, 0
4, 754800, Note_off_c, 2, 58, 0
4, 754800, Note_off_c, 2, 55, 0
4, 754800, Note_on_c, 2, 63, 94
4, 754800, Note_on_c, 2, 58, 94
4, 754800, Note_on_c, 2, 51, 94
4, 754800, Note_on_c, 2, 55, 94
4, 755040, Note_off_c, 2, 55, 0
4, 755040, Note_off_c, 2, 51, 0
4, 755040, Note_off_c, 2, 58, 0
4, 755040, Note_off_c, 2, 63, 0
4, 755040, Note_on_c, 2, 63, 95
4, 755040, Note_on_c, 2, 58, 95
4, 755040, Note_on_c, 2, 55, 95
4, 755040, Note_on_c, 2, 51, 95
4, 755280, Note_off_c, 2, 51, 0
4, 755280, Note_off_c, 2, 55, 0
4, 755280, Note_off_c, 2, 58, 0
4, 755280, Note_off_c, 2, 63, 0
4, 755280, Note_on_c, 2, 63, 96
4, 755280, Note_on_c, 2, 58, 96
4, 755280, Note_on_c, 2, 55, 96
4, 755280, Note_on_c, 2, 51, 96
4, 755520, Note_off_c, 2, 51, 0
4, 755520, Note_off_c, 2, 55, 0
4, 755520, Note_off_c, 2, 58, 0
4, 755520, Note_off_c, 2, 63, 0
4, 755520, Note_on_c, 2, 63, 96
4, 755520, Note_on_c, 2, 51, 96
4, 755520, Note_on_c, 2, 58, 96
4, 755520, Note_on_c, 2, 55, 96
4, 755760, Note_off_c, 2, 55, 0
4, 755760, Note_off_c, 2, 58, 0
4, 755760, Note_off_c, 2, 51, 0
4, 755760, Note_off_c, 2, 63, 0
4, 755760, Note_on_c, 2, 51, 97
4, 755760, Note_on_c, 2, 63, 97
4, 755760, Note_on_c, 2, 58, 97
4, 755760, Note_on_c, 2, 55, 97
4, 756000, Note_off_c, 2, 55, 0
4, 756000, Note_off_c, 2, 58, 0
4, 756000, Note_off_c, 2, 63, 0
4, 756000, Note_off_c, 2, 51, 0
4, 756000, Note_on_c, 2, 63, 98
4, 756000, Note_on_c, 2, 51, 98
4, 756000, Note_on_c, 2, 58, 98
4, 756000, Note_on_c, 2, 55, 98
4, 756240, Note_off_c, 2, 55, 0
4, 756240, Note_off_c, 2, 58, 0
4, 756240, Note_off_c, 2, 51, 0
4, 756240, Note_off_c, 2, 63, 0
4, 756240, Note_on_c, 2, 51, 98
4, 756240, Note_on_c, 2, 61, 98
4, 756240, Note_on_c, 2, 58, 98
4, 756240, Note_on_c, 2, 55, 98
4, 756480, Note_off_c, 2, 55, 0
4, 756480, Note_off_c, 2, 58, 0
4, 756480, Note_off_c, 2, 61, 0
4, 756480, Note_off_c, 2, 51, 0
4, 756480, Note_on_c, 2, 51, 99
4, 756480, Note_on_c, 2, 61, 99
4, 756480, Note_on_c, 2, 58, 99
4, 756480, Note_on_c, 2, 55, 99
4, 756720, Note_off_c, 2, 55, 0
4, 756720, Note_off_c, 2, 58, 0
4, 756720, Note_off_c, 2, 61, 0
4, 756720, Note_off_c, 2, 51, 0
4, 756720, Note_on_c, 2, 51, 100
4, 756720, Note_on_c, 2, 61, 100
4, 756720, Note_on_c, 2, 58, 100
4, 756720, Note_on_c, 2, 55, 100
4, 756960, Note_off_c, 2, 55, 0
4, 756960, Note_off_c, 2, 58, 0
4, 756960, Note_off_c, 2, 61, 0
4, 756960, Note_off_c, 2, 51, 0
4, 756960, Note_on_c, 2, 51, 100
4, 756960, Note_on_c, 2, 61, 100
4, 756960, Note_on_c, 2, 58, 100
4, 756960, Note_on_c, 2, 55, 100
4, 757200, Note_off_c, 2, 55, 0
4, 757200, Note_off_c, 2, 58, 0
4, 757200, Note_off_c, 2, 61, 0
4, 757200, Note_off_c, 2, 51, 0
4, 757200, Note_on_c, 2, 55, 100
4, 757200, Note_on_c, 2, 58, 100
4, 757200, Note_on_c, 2, 61, 100
4, 757200, Note_on_c, 2, 51, 100
4, 757440, Note_off_c, 2, 51, 0
4, 757440, Note_off_c, 2, 61, 0
4, 757440, Note_off_c, 2, 58, 0
4, 757440, Note_off_c, 2, 55, 0
4, 757440, Note_on_c, 2, 51, 100
4, 757440, Note_on_c, 2, 55, 100
4, 757440, Note_on_c, 2, 58, 100
4, 757440, Note_on_c, 2, 61, 100
4, 757680, Note_off_c, 2, 61, 0
4, 757680, Note_off_c, 2, 58, 0
4, 757680, Note_off_c, 2, 55, 0
4, 757680, Note_off_c, 2, 51, 0
4, 757680, Note_on_c, 2, 61, 99
4, 757680, Note_on_c, 2, 51, 99
4, 757680, Note_on_c, 2, 58, 99
4, 757680, Note_on_c, 2, 55, 99
4, 757920, Note_off_c, 2, 55, 0
4, 757920, Note_off_c, 2, 58, 0
4, 757920, Note_off_c, 2, 51, 0
4, 757920, Note_off_c, 2, 61, 0
4, 757920, Note_on_c, 2, 61, 99
4, 757920, Note_on_c, 2, 51, 99
4, 757920, Note_on_c, 2, 58, 99
4, 757920, Note_on_c, 2, 55, 99
4, 758160, Note_off_c, 2, 55, 0
4, 758160, Note_off_c, 2, 58, 0
4, 758160, Note_off_c, 2, 51, 0
4, 758160, Note_off_c, 2, 61, 0
4, 758160, Note_on_c, 2, 51, 98
4, 758160, Note_on_c, 2, 61, 98
4, 758160, Note_on_c, 2, 58, 98
4, 758160, Note_on_c, 2, 55, 98
4, 758400, Note_off_c, 2, 55, 0
4, 758400, Note_off_c, 2, 58, 0
4, 758400, Note_off_c, 2, 61, 0
4, 758400, Note_off_c, 2, 51, 0
4, 758400, Note_on_c, 2, 61, 98
4, 758400, Note_on_c, 2, 58, 98
4, 758400, Note_on_c, 2, 55, 98
4, 758400, Note_on_c, 2, 51, 98
4, 758640, Note_off_c, 2, 51, 0
4, 758640, Note_off_c, 2, 55, 0
4, 758640, Note_off_c, 2, 58, 0
4, 758640, Note_off_c, 2, 61, 0
4, 758640, Note_on_c, 2, 61, 97
4, 758640, Note_on_c, 2, 55, 97
4, 758640, Note_on_c, 2, 58, 97
4, 758880, Note_off_c, 2, 58, 0
4, 758880, Note_off_c, 2, 55, 0
4, 758880, Note_off_c, 2, 61, 0
4, 758880, Note_on_c, 2, 51, 97
4, 758880, Note_on_c, 2, 60, 97
4, 758880, Note_on_c, 2, 56, 97
4, 759120, Note_off_c, 2, 56, 0
4, 759120, Note_off_c, 2, 60, 0
4, 759120, Note_off_c, 2, 51, 0
4, 759120, Note_on_c, 2, 51, 96
4, 759120, Note_on_c, 2, 56, 96
4, 759120, Note_on_c, 2, 59, 96
4, 759120, Note_on_c, 2, 53, 96
4, 759360, Note_off_c, 2, 53, 0
4, 759360, Note_off_c, 2, 59, 0
4, 759360, Note_off_c, 2, 56, 0
4, 759360, Note_off_c, 2, 51, 0
4, 759360, Note_on_c, 2, 56, 96
4, 759360, Note_on_c, 2, 51, 96
4, 759360, Note_on_c, 2, 53, 96
4, 759360, Note_on_c, 2, 59, 96
4, 759420, Note_off_c, 2, 39, 0
4, 759600, Note_off_c, 2, 59, 0
4, 759600, Note_off_c, 2, 53, 0
4, 759600, Note_off_c, 2, 51, 0
4, 759600, Note_off_c, 2, 56, 0
4, 759600, Note_on_c, 2, 53, 96
4, 759600, Note_on_c, 2, 58, 96
4, 759600, Note_on_c, 2, 51, 96
4, 759600, Note_on_c, 2, 56, 96
4, 759840, Control_c, 2, 64, 0
4, 759840, Note_off_c, 2, 56, 0
4, 759840, Note_off_c, 2, 51, 0
4, 759840, Note_off_c, 2, 58, 0
4, 759840, Note_off_c, 2, 53, 0
4, 759840, Note_on_c, 2, 39, 120
4, 759840, Note_on_c, 2, 51, 120
4, 759900, Control_c, 2, 64, 127
4, 760560, Note_off_c, 2, 51, 0
4, 760560, Note_off_c, 2, 39, 0
4, 760560, Note_on_c, 2, 63, 113
4, 761280, Note_off_c, 2, 63, 0
4, 761280, Note_on_c, 2, 66, 112
4, 762000, Note_off_c, 2, 66, 0
4, 762000, Note_on_c, 2, 71, 111
4, 762720, Note_off_c, 2, 71, 0
4, 762720, Note_on_c, 2, 66, 110
4, 763440, Note_off_c, 2, 66, 0
4, 763440, Note_on_c, 2, 63, 109
4, 764160, Note_off_c, 2, 63, 0
4, 764160, Note_on_c, 2, 59, 108
4, 764880, Note_off_c, 2, 59, 0
4, 764880, Note_on_c, 2, 54, 107
4, 765540, Control_c, 2, 64, 0
4, 765600, Control_c, 2, 64, 127
4, 765600, Note_off_c, 2, 54, 0
4, 765600, Note_on_c, 2, 38, 120
4, 765600, Note_on_c, 2, 50, 120
4, 766320, Note_off_c, 2, 50, 0
4, 766320, Note_off_c, 2, 38, 0
4, 766320, Note_on_c, 2, 62, 115
4, 767040, Note_off_c, 2, 62, 0
4, 767040, Note_on_c, 2, 65, 113
4, 767760, Note_off_c, 2, 65, 0
4, 767760, Note_on_c, 2, 70, 110
4, 768480, Note_off_c, 2, 70, 0
4, 768480, Note_on_c, 2, 65, 108
4, 769200, Note_off_c, 2, 65, 0
4, 769200, Note_on_c, 2, 62, 105
4, 769920, Note_off_c, 2, 62, 0
4, 769920, Note_on_c, 2, 58, 103
4, 770640, Note_off_c, 2, 58, 0
4, 770640, Note_on_c, 2, 53, 100
4, 771300, Control_c, 2, 64, 0
4, 771360, Note_off_c, 2, 53, 0
4, 771360, Note_on_c, 2, 66, 50
4, 771360, Note_on_c, 2, 63, 50
4, 771360, Note_on_c, 2, 71, 50
4, 771600, Note_off_c, 2, 71, 0
4, 771600, Note_off_c, 2, 63, 0
4, 771600, Note_off_c, 2, 66, 0
4, 771600, Note_on_c, 2, 63, 51
4, 771600, Note_on_c, 2, 66, 51
4, 771600, Note_on_c, 2, 71, 51
4, 771840, Note_off_c, 2, 71, 0
4, 771840, Note_off_c, 2, 66, 0
4, 771840, Note_off_c, 2, 63, 0
4, 771840, Note_on_c, 2, 63, 51
4, 771840, Note_on_c, 2, 66, 51
4, 771840, Note_on_c, 2, 71, 51
4, 772080, Note_off_c, 2, 71, 0
4, 772080, Note_off_c, 2, 66, 0
4, 772080, Note_off_c, 2, 63, 0
4, 772080, Note_on_c, 2, 63, 52
4, 772080, Note_on_c, 2, 66, 52
4, 772080, Note_on_c, 2, 71, 52
4, 772320, Note_off_c, 2, 71, 0
4, 772320, Note_off_c, 2, 66, 0
4, 772320, Note_off_c, 2, 63, 0
4, 772320, Note_on_c, 2, 63, 52
4, 772320, Note_on_c, 2, 66, 52
4, 772320, Note_on_c, 2, 71, 52
4, 772560, Note_off_c, 2, 71, 0
4, 772560, Note_off_c, 2, 66, 0
4, 772560, Note_off_c, 2, 63, 0
4, 772560, Note_on_c, 2, 66, 53
4, 772560, Note_on_c, 2, 63, 53
4, 772560, Note_on_c, 2, 71, 53
4, 772800, Note_off_c, 2, 71, 0
4, 772800, Note_off_c, 2, 63, 0
4, 772800, Note_off_c, 2, 66, 0
4, 772800, Note_on_c, 2, 66, 53
4, 772800, Note_on_c, 2, 63, 53
4, 772800, Note_on_c, 2, 71, 53
4, 773040, Note_off_c, 2, 71, 0
4, 773040, Note_off_c, 2, 63, 0
4, 773040, Note_off_c, 2, 66, 0
4, 773040, Note_on_c, 2, 63, 54
4, 773040, Note_on_c, 2, 66, 54
4, 773040, Note_on_c, 2, 71, 54
4, 773280, Note_off_c, 2, 71, 0
4, 773280, Note_off_c, 2, 66, 0
4, 773280, Note_off_c, 2, 63, 0
4, 773280, Note_on_c, 2, 63, 55
4, 773280, Note_on_c, 2, 66, 55
4, 773280, Note_on_c, 2, 71, 55
4, 773520, Note_off_c, 2, 71, 0
4, 773520, Note_off_c, 2, 66, 0
4, 773520, Note_off_c, 2, 63, 0
4, 773520, Note_on_c, 2, 63, 55
4, 773520, Note_on_c, 2, 66, 55
4, 773520, Note_on_c, 2, 71, 55
4, 773760, Note_off_c, 2, 71, 0
4, 773760, Note_off_c, 2, 66, 0
4, 773760, Note_off_c, 2, 63, 0
4, 773760, Note_on_c, 2, 63, 56
4, 773760, Note_on_c, 2, 66, 56
4, 773760, Note_on_c, 2, 71, 56
4, 774000, Note_off_c, 2, 71, 0
4, 774000, Note_off_c, 2, 66, 0
4, 774000, Note_off_c, 2, 63, 0
4, 774000, Note_on_c, 2, 63, 56
4, 774000, Note_on_c, 2, 66, 56
4, 774000, Note_on_c, 2, 71, 56
4, 774240, Note_off_c, 2, 71, 0
4, 774240, Note_off_c, 2, 66, 0
4, 774240, Note_off_c, 2, 63, 0
4, 774240, Note_on_c, 2, 63, 57
4, 774240, Note_on_c, 2, 66, 57
4, 774240, Note_on_c, 2, 71, 57
4, 774480, Note_off_c, 2, 71, 0
4, 774480, Note_off_c, 2, 66, 0
4, 774480, Note_off_c, 2, 63, 0
4, 774480, Note_on_c, 2, 63, 57
4, 774480, Note_on_c, 2, 66, 57
4, 774480, Note_on_c, 2, 71, 57
4, 774720, Note_off_c, 2, 71, 0
4, 774720, Note_off_c, 2, 66, 0
4, 774720, Note_off_c, 2, 63, 0
4, 774720, Note_on_c, 2, 63, 56
4, 774720, Note_on_c, 2, 66, 56
4, 774720, Note_on_c, 2, 71, 56
4, 774960, Note_off_c, 2, 71, 0
4, 774960, Note_off_c, 2, 66, 0
4, 774960, Note_off_c, 2, 63, 0
4, 774960, Note_on_c, 2, 66, 55
4, 774960, Note_on_c, 2, 63, 55
4, 774960, Note_on_c, 2, 71, 55
4, 775200, Note_off_c, 2, 71, 0
4, 775200, Note_off_c, 2, 63, 0
4, 775200, Note_off_c, 2, 66, 0
4, 775200, Note_on_c, 2, 63, 55
4, 775200, Note_on_c, 2, 66, 55
4, 775200, Note_on_c, 2, 71, 55
4, 775440, Note_off_c, 2, 71, 0
4, 775440, Note_off_c, 2, 66, 0
4, 775440, Note_off_c, 2, 63, 0
4, 775440, Note_on_c, 2, 63, 54
4, 775440, Note_on_c, 2, 66, 54
4, 775440, Note_on_c, 2, 71, 54
4, 775680, Note_off_c, 2, 71, 0
4, 775680, Note_off_c, 2, 66, 0
4, 775680, Note_off_c, 2, 63, 0
4, 775680, Note_on_c, 2, 63, 54
4, 775680, Note_on_c, 2, 66, 54
4, 775680, Note_on_c, 2, 71, 54
4, 775920, Note_off_c, 2, 71, 0
4, 775920, Note_off_c, 2, 66, 0
4, 775920, Note_off_c, 2, 63, 0
4, 775920, Note_on_c, 2, 66, 53
4, 775920, Note_on_c, 2, 63, 53
4, 775920, Note_on_c, 2, 71, 53
4, 776160, Note_off_c, 2, 71, 0
4, 776160, Note_off_c, 2, 63, 0
4, 776160, Note_off_c, 2, 66, 0
4, 776160, Note_on_c, 2, 66, 52
4, 776160, Note_on_c, 2, 63, 52
4, 776160, Note_on_c, 2, 71, 52
4, 776400, Note_off_c, 2, 71, 0
4, 776400, Note_off_c, 2, 63, 0
4, 776400, Note_off_c, 2, 66, 0
4, 776400, Note_on_c, 2, 66, 52
4, 776400, Note_on_c, 2, 63, 52
4, 776400, Note_on_c, 2, 71, 52
4, 776640, Note_off_c, 2, 71, 0
4, 776640, Note_off_c, 2, 63, 0
4, 776640, Note_off_c, 2, 66, 0
4, 776640, Note_on_c, 2, 66, 51
4, 776640, Note_on_c, 2, 71, 51
4, 776640, Note_on_c, 2, 63, 51
4, 776880, Note_off_c, 2, 63, 0
4, 776880, Note_off_c, 2, 71, 0
4, 776880, Note_off_c, 2, 66, 0
4, 776880, Note_on_c, 2, 63, 51
4, 776880, Note_on_c, 2, 66, 51
4, 776880, Note_on_c, 2, 69, 51
4, 777120, Note_off_c, 2, 69, 0
4, 777120, Note_off_c, 2, 66, 0
4, 777120, Note_off_c, 2, 63, 0
4, 777120, Note_on_c, 2, 70, 50
4, 777120, Note_on_c, 2, 62, 50
4, 777120, Note_on_c, 2, 65, 50
4, 777360, Note_off_c, 2, 65, 0
4, 777360, Note_off_c, 2, 62, 0
4, 777360, Note_off_c, 2, 70, 0
4, 777360, Note_on_c, 2, 70, 50
4, 777360, Note_on_c, 2, 65, 50
4, 777360, Note_on_c, 2, 62, 50
4, 777600, Note_off_c, 2, 62, 0
4, 777600, Note_off_c, 2, 65, 0
4, 777600, Note_off_c, 2, 70, 0
4, 777600, Note_on_c, 2, 70, 51
4, 777600, Note_on_c, 2, 62, 51
4, 777600, Note_on_c, 2, 65, 51
4, 777840, Note_off_c, 2, 65, 0
4, 777840, Note_off_c, 2, 62, 0
4, 777840, Note_off_c, 2, 70, 0
4, 777840, Note_on_c, 2, 70, 51
4, 777840, Note_on_c, 2, 62, 51
4, 777840, Note_on_c, 2, 65, 51
4, 778080, Note_off_c, 2, 65, 0
4, 778080, Note_off_c, 2, 62, 0
4, 778080, Note_off_c, 2, 70, 0
4, 778080, Note_on_c, 2, 70, 52
4, 778080, Note_on_c, 2, 62, 52
4, 778080, Note_on_c, 2, 65, 52
4, 778320, Note_off_c, 2, 65, 0
4, 778320, Note_off_c, 2, 62, 0
4, 778320, Note_off_c, 2, 70, 0
4, 778320, Note_on_c, 2, 70, 53
4, 778320, Note_on_c, 2, 62, 53
4, 778320, Note_on_c, 2, 65, 53
4, 778560, Note_off_c, 2, 65, 0
4, 778560, Note_off_c, 2, 62, 0
4, 778560, Note_off_c, 2, 70, 0
4, 778560, Note_on_c, 2, 70, 53
4, 778560, Note_on_c, 2, 62, 53
4, 778560, Note_on_c, 2, 65, 53
4, 778800, Note_off_c, 2, 65, 0
4, 778800, Note_off_c, 2, 62, 0
4, 778800, Note_off_c, 2, 70, 0
4, 778800, Note_on_c, 2, 70, 54
4, 778800, Note_on_c, 2, 62, 54
4, 778800, Note_on_c, 2, 65, 54
4, 779040, Note_off_c, 2, 65, 0
4, 779040, Note_off_c, 2, 62, 0
4, 779040, Note_off_c, 2, 70, 0
4, 779040, Note_on_c, 2, 70, 54
4, 779040, Note_on_c, 2, 62, 54
4, 779040, Note_on_c, 2, 65, 54
4, 779280, Note_off_c, 2, 65, 0
4, 779280, Note_off_c, 2, 62, 0
4, 779280, Note_off_c, 2, 70, 0
4, 779280, Note_on_c, 2, 62, 55
4, 779280, Note_on_c, 2, 70, 55
4, 779280, Note_on_c, 2, 65, 55
4, 779520, Note_off_c, 2, 65, 0
4, 779520, Note_off_c, 2, 70, 0
4, 779520, Note_off_c, 2, 62, 0
4, 779520, Note_on_c, 2, 70, 56
4, 779520, Note_on_c, 2, 62, 56
4, 779520, Note_on_c, 2, 65, 56
4, 779760, Note_off_c, 2, 65, 0
4, 779760, Note_off_c, 2, 62, 0
4, 779760, Note_off_c, 2, 70, 0
4, 779760, Note_on_c, 2, 70, 56
4, 779760, Note_on_c, 2, 65, 56
4, 779760, Note_on_c, 2, 62, 56
4, 780000, Note_off_c, 2, 62, 0
4, 780000, Note_off_c, 2, 65, 0
4, 780000, Note_off_c, 2, 70, 0
4, 780000, Note_on_c, 2, 70, 59
4, 780000, Note_on_c, 2, 62, 59
4, 780000, Note_on_c, 2, 65, 59
4, 780240, Note_off_c, 2, 65, 0
4, 780240, Note_off_c, 2, 62, 0
4, 780240, Note_off_c, 2, 70, 0
4, 780240, Note_on_c, 2, 70, 59
4, 780240, Note_on_c, 2, 62, 59
4, 780240, Note_on_c, 2, 65, 59
4, 780480, Note_off_c, 2, 65, 0
4, 780480, Note_off_c, 2, 62, 0
4, 780480, Note_off_c, 2, 70, 0
4, 780480, Note_on_c, 2, 70, 58
4, 780480, Note_on_c, 2, 62, 58
4, 780480, Note_on_c, 2, 65, 58
4, 780720, Note_off_c, 2, 65, 0
4, 780720, Note_off_c, 2, 62, 0
4, 780720, Note_off_c, 2, 70, 0
4, 780720, Note_on_c, 2, 70, 57
4, 780720, Note_on_c, 2, 62, 57
4, 780720, Note_on_c, 2, 65, 57
4, 780960, Note_off_c, 2, 65, 0
4, 780960, Note_off_c, 2, 62, 0
4, 780960, Note_off_c, 2, 70, 0
4, 780960, Note_on_c, 2, 70, 57
4, 780960, Note_on_c, 2, 62, 57
4, 780960, Note_on_c, 2, 65, 57
4, 781200, Note_off_c, 2, 65, 0
4, 781200, Note_off_c, 2, 62, 0
4, 781200, Note_off_c, 2, 70, 0
4, 781200, Note_on_c, 2, 70, 56
4, 781200, Note_on_c, 2, 62, 56
4, 781200, Note_on_c, 2, 65, 56
4, 781440, Note_off_c, 2, 65, 0
4, 781440, Note_off_c, 2, 62, 0
4, 781440, Note_off_c, 2, 70, 0
4, 781440, Note_on_c, 2, 70, 56
4, 781440, Note_on_c, 2, 65, 56
4, 781440, Note_on_c, 2, 62, 56
4, 781680, Note_off_c, 2, 62, 0
4, 781680, Note_off_c, 2, 65, 0
4, 781680, Note_off_c, 2, 70, 0
4, 781680, Note_on_c, 2, 70, 55
4, 781680, Note_on_c, 2, 62, 55
4, 781680, Note_on_c, 2, 65, 55
4, 781920, Note_off_c, 2, 65, 0
4, 781920, Note_off_c, 2, 62, 0
4, 781920, Note_off_c, 2, 70, 0
4, 781920, Note_on_c, 2, 70, 55
4, 781920, Note_on_c, 2, 62, 55
4, 781920, Note_on_c, 2, 65, 55
4, 782160, Note_off_c, 2, 65, 0
4, 782160, Note_off_c, 2, 62, 0
4, 782160, Note_off_c, 2, 70, 0
4, 782160, Note_on_c, 2, 70, 54
4, 782160, Note_on_c, 2, 65, 54
4, 782160, Note_on_c, 2, 62, 54
4, 782400, Note_off_c, 2, 62, 0
4, 782400, Note_off_c, 2, 65, 0
4, 782400, Note_off_c, 2, 70, 0
4, 782400, Note_on_c, 2, 58, 65
4, 782640, Note_off_c, 2, 58, 0
4, 782640, Note_on_c, 2, 56, 62
4, 782880, Note_off_c, 2, 56, 0
4, 782880, Note_on_c, 2, 51, 59
4, 782880, Note_on_c, 2, 55, 59
4, 783360, Note_off_c, 2, 55, 0
4, 783360, Note_on_c, 2, 60, 53
4, 783600, Note_off_c, 2, 60, 0
4, 783600, Note_on_c, 2, 58, 54
4, 784080, Note_off_c, 2, 58, 0
4, 784080, Note_on_c, 2, 55, 55
4, 784320, Note_off_c, 2, 55, 0
4, 784320, Note_off_c, 2, 51, 0
4, 784320, Note_on_c, 2, 46, 56
4, 784320, Note_on_c, 2, 53, 56
4, 784800, Note_off_c, 2, 53, 0
4, 784800, Note_on_c, 2, 60, 58
4, 785040, Note_off_c, 2, 60, 0
4, 785040, Note_on_c, 2, 58, 59
4, 785520, Note_off_c, 2, 58, 0
4, 785520, Note_on_c, 2, 53, 60
4, 785760, Note_off_c, 2, 53, 0
4, 785760, Note_off_c, 2, 46, 0
4, 785760, Note_on_c, 2, 51, 59
4, 785760, Note_on_c, 2, 55, 59
4, 786240, Note_off_c, 2, 55, 0
4, 786240, Note_on_c, 2, 60, 58
4, 786480, Note_off_c, 2, 60, 0
4, 786480, Note_on_c, 2, 58, 57
4, 786960, Note_off_c, 2, 58, 0
4, 786960, Note_on_c, 2, 55, 56
4, 787200, Note_off_c, 2, 55, 0
4, 787200, Note_off_c, 2, 51, 0
4, 787200, Note_on_c, 2, 46, 56
4, 787200, Note_on_c, 2, 53, 56
4, 787680, Note_off_c, 2, 53, 0
4, 787680, Note_on_c, 2, 60, 54
4, 787920, Note_off_c, 2, 60, 0
4, 787920, Note_on_c, 2, 58, 54
4, 788400, Note_off_c, 2, 58, 0
4, 788400, Note_on_c, 2, 53, 54
4, 788640, Note_off_c, 2, 53, 0
4, 788640, Note_off_c, 2, 46, 0
4, 788640, Note_on_c, 2, 51, 55
4, 788640, Note_on_c, 2, 58, 55
4, 788880, Note_off_c, 2, 58, 0
4, 788880, Note_off_c, 2, 51, 0
4, 788880, Note_on_c, 2, 63, 56
4, 788880, Note_on_c, 2, 55, 56
4, 788880, Note_on_c, 2, 58, 56
4, 789120, Note_off_c, 2, 58, 0
4, 789120, Note_off_c, 2, 55, 0
4, 789120, Note_off_c, 2, 63, 0
4, 789120, Note_on_c, 2, 63, 58
4, 789120, Note_on_c, 2, 58, 58
4, 789120, Note_on_c, 2, 55, 58
4, 789360, Note_off_c, 2, 55, 0
4, 789360, Note_off_c, 2, 58, 0
4, 789360, Note_off_c, 2, 63, 0
4, 789360, Note_on_c, 2, 63, 59
4, 789360, Note_on_c, 2, 55, 59
4, 789360, Note_on_c, 2, 58, 59
4, 789600, Note_off_c, 2, 58, 0
4, 789600, Note_off_c, 2, 55, 0
4, 789600, Note_off_c, 2, 63, 0
4, 789600, Note_on_c, 2, 58, 60
4, 789600, Note_on_c, 2, 63, 60
4, 789600, Note_on_c, 2, 55, 60
4, 789840, Note_off_c, 2, 55, 0
4, 789840, Note_off_c, 2, 63, 0
4, 789840, Note_off_c, 2, 58, 0
4, 789840, Note_on_c, 2, 63, 62
4, 789840, Note_on_c, 2, 59, 62
4, 789840, Note_on_c, 2, 55, 62
4, 790080, Note_off_c, 2, 55, 0
4, 790080, Note_off_c, 2, 59, 0
4, 790080, Note_off_c, 2, 63, 0
4, 790320, Note_on_c, 2, 56, 64
4, 790320, Note_on_c, 2, 63, 64
4, 790320, Note_on_c, 2, 60, 64
4, 790560, Note_off_c, 2, 60, 0
4, 790560, Note_off_c, 2, 63, 0
4, 790560, Note_off_c, 2, 56, 0
4, 790560, Note_on_c, 2, 56, 66
4, 790560, Note_on_c, 2, 63, 66
4, 790560, Note_on_c, 2, 60, 66
4, 790800, Note_off_c, 2, 60, 0
4, 790800, Note_off_c, 2, 63, 0
4, 790800, Note_off_c, 2, 56, 0
4, 790800, Note_on_c, 2, 63, 67
4, 790800, Note_on_c, 2, 56, 67
4, 790800, Note_on_c, 2, 60, 67
4, 791040, Note_off_c, 2, 60, 0
4, 791040, Note_off_c, 2, 56, 0
4, 791040, Note_off_c, 2, 63, 0
4, 791040, Note_on_c, 2, 63, 69
4, 791040, Note_on_c, 2, 56, 69
4, 791040, Note_on_c, 2, 60, 69
4, 791280, Note_off_c, 2, 60, 0
4, 791280, Note_off_c, 2, 56, 0
4, 791280, Note_off_c, 2, 63, 0
4, 791280, Note_on_c, 2, 57, 70
4, 791280, Note_on_c, 2, 63, 70
4, 791280, Note_on_c, 2, 65, 70
4, 791520, Note_off_c, 2, 65, 0
4, 791520, Note_off_c, 2, 63, 0
4, 791520, Note_off_c, 2, 57, 0
4, 791760, Note_on_c, 2, 58, 79
4, 791760, Note_on_c, 2, 67, 79
4, 791760, Note_on_c, 2, 63, 79
4, 792000, Note_off_c, 2, 63, 0
4, 792000, Note_off_c, 2, 67, 0
4, 792000, Note_off_c, 2, 58, 0
4, 792000, Note_on_c, 2, 58, 85
4, 792000, Note_on_c, 2, 67, 85
4, 792000, Note_on_c, 2, 63, 85
4, 792240, Note_off_c, 2, 63, 0
4, 792240, Note_off_c, 2, 67, 0
4, 792240, Note_off_c, 2, 58, 0
4, 792240, Note_on_c, 2, 58, 90
4, 792240, Note_on_c, 2, 63, 90
4, 792240, Note_on_c, 2, 67, 90
4, 792480, Note_off_c, 2, 67, 0
4, 792480, Note_off_c, 2, 63, 0
4, 792480, Note_off_c, 2, 58, 0
4, 792480, Note_on_c, 2, 58, 86
4, 792480, Note_on_c, 2, 63, 86
4, 792480, Note_on_c, 2, 67, 86
4, 792720, Note_off_c, 2, 67, 0
4, 792720, Note_off_c, 2, 63, 0
4, 792720, Note_off_c, 2, 58, 0
4, 792720, Note_on_c, 2, 58, 82
4, 792720, Note_on_c, 2, 63, 82
4, 792720, Note_on_c, 2, 67, 82
4, 792960, Note_off_c, 2, 67, 0
4, 792960, Note_off_c, 2, 63, 0
4, 792960, Note_off_c, 2, 58, 0
4, 792960, Note_on_c, 2, 58, 79
4, 792960, Note_on_c, 2, 67, 79
4, 792960, Note_on_c, 2, 63, 79
4, 793200, Note_off_c, 2, 63, 0
4, 793200, Note_off_c, 2, 67, 0
4, 793200, Note_off_c, 2, 58, 0
4, 793200, Note_on_c, 2, 63, 75
4, 793200, Note_on_c, 2, 58, 75
4, 793200, Note_on_c, 2, 67, 75
4, 793440, Note_off_c, 2, 67, 0
4, 793440, Note_off_c, 2, 58, 0
4, 793440, Note_off_c, 2, 63, 0
4, 793440, Note_on_c, 2, 63, 72
4, 793440, Note_on_c, 2, 58, 72
4, 793440, Note_on_c, 2, 67, 72
4, 793680, Note_off_c, 2, 67, 0
4, 793680, Note_off_c, 2, 58, 0
4, 793680, Note_off_c, 2, 63, 0
4, 793680, Note_on_c, 2, 68, 68
4, 793680, Note_on_c, 2, 58, 68
4, 793680, Note_on_c, 2, 62, 68
4, 793920, Note_off_c, 2, 62, 0
4, 793920, Note_off_c, 2, 58, 0
4, 793920, Note_off_c, 2, 68, 0
4, 793920, Note_on_c, 2, 58, 65
4, 793920, Note_on_c, 2, 68, 65
4, 793920, Note_on_c, 2, 62, 65
4, 794160, Note_off_c, 2, 62, 0
4, 794160, Note_off_c, 2, 68, 0
4, 794160, Note_off_c, 2, 58, 0
4, 794160, Note_on_c, 2, 68, 61
4, 794160, Note_on_c, 2, 58, 61
4, 794160, Note_on_c, 2, 62, 61
4, 794400, Note_off_c, 2, 62, 0
4, 794400, Note_off_c, 2, 58, 0
4, 794400, Note_off_c, 2, 68, 0
4, 794400, Note_on_c, 2, 67, 57
4, 794400, Note_on_c, 2, 63, 57
4, 794880, Note_off_c, 2, 67, 0
4, 794880, Note_on_c, 2, 72, 55
4, 795120, Note_off_c, 2, 72, 0
4, 795120, Note_on_c, 2, 70, 56
4, 795600, Note_off_c, 2, 70, 0
4, 795600, Note_on_c, 2, 67, 57
4, 795840, Note_off_c, 2, 67, 0
4, 795840, Note_off_c, 2, 63, 0
4, 795840, Note_on_c, 2, 65, 58
4, 795840, Note_on_c, 2, 58, 58
4, 796320, Note_off_c, 2, 65, 0
4, 796320, Note_on_c, 2, 72, 60
4, 796560, Note_off_c, 2, 72, 0
4, 796560, Note_on_c, 2, 70, 61
4, 797040, Note_off_c, 2, 70, 0
4, 797040, Note_on_c, 2, 65, 62
4, 797280, Note_off_c, 2, 65, 0
4, 797280, Note_off_c, 2, 58, 0
4, 797280, Note_on_c, 2, 67, 63
4, 797280, Note_on_c, 2, 63, 63
4, 797760, Note_off_c, 2, 67, 0
4, 797760, Note_on_c, 2, 72, 62
4, 798000, Note_off_c, 2, 72, 0
4, 798000, Note_on_c, 2, 70, 61
4, 798480, Note_off_c, 2, 70, 0
4, 798480, Note_on_c, 2, 67, 60
4, 798720, Note_off_c, 2, 67, 0
4, 798720, Note_off_c, 2, 63, 0
4, 798720, Note_on_c, 2, 65, 60
4, 798720, Note_on_c, 2, 58, 60
4, 799200, Note_off_c, 2, 65, 0
4, 799200, Note_on_c, 2, 72, 58
4, 799440, Note_off_c, 2, 72, 0
4, 799440, Note_on_c, 2, 70, 58
4, 799920, Note_off_c, 2, 70, 0
4, 799920, Note_on_c, 2, 65, 56
4, 800160, Note_off_c, 2, 65, 0
4, 800160, Note_off_c, 2, 58, 0
4, 800160, Note_on_c, 2, 63, 60
4, 800280, Note_off_c, 2, 63, 0
4, 800280, Note_on_c, 2, 67, 60
4, 800400, Note_off_c, 2, 67, 0
4, 800400, Note_on_c, 2, 68, 61
4, 800520, Note_off_c, 2, 68, 0
4, 800520, Note_on_c, 2, 70, 62
4, 800640, Note_off_c, 2, 70, 0
4, 800640, Note_on_c, 2, 72, 62
4, 800760, Note_off_c, 2, 72, 0
4, 800760, Note_on_c, 2, 74, 63
4, 800880, Note_off_c, 2, 74, 0
4, 800880, Note_on_c, 2, 75, 63
4, 801000, Note_off_c, 2, 75, 0
4, 801000, Note_on_c, 2, 74, 64
4, 801120, Note_off_c, 2, 74, 0
4, 801120, Note_on_c, 2, 72, 64
4, 801240, Note_off_c, 2, 72, 0
4, 801240, Note_on_c, 2, 70, 65
4, 801360, Note_off_c, 2, 70, 0
4, 801360, Note_on_c, 2, 68, 66
4, 801480, Note_off_c, 2, 68, 0
4, 801480, Note_on_c, 2, 67, 66
4, 801600, Note_off_c, 2, 67, 0
4, 801600, Note_on_c, 2, 68, 67
4, 801720, Note_off_c, 2, 68, 0
4, 801720, Note_on_c, 2, 72, 67
4, 801840, Note_off_c, 2, 72, 0
4, 801840, Note_on_c, 2, 74, 68
4, 801960, Note_off_c, 2, 74, 0
4, 801960, Note_on_c, 2, 75, 68
4, 802080, Note_off_c, 2, 75, 0
4, 802080, Note_on_c, 2, 77, 69
4, 802200, Note_off_c, 2, 77, 0
4, 802200, Note_on_c, 2, 79, 69
4, 802320, Note_off_c, 2, 79, 0
4, 802320, Note_on_c, 2, 80, 70
4, 802440, Note_off_c, 2, 80, 0
4, 802440, Note_on_c, 2, 79, 71
4, 802560, Note_off_c, 2, 79, 0
4, 802560, Note_on_c, 2, 77, 71
4, 802680, Note_off_c, 2, 77, 0
4, 802680, Note_on_c, 2, 75, 72
4, 802800, Note_off_c, 2, 75, 0
4, 802800, Note_on_c, 2, 74, 72
4, 802920, Note_off_c, 2, 74, 0
4, 802920, Note_on_c, 2, 72, 73
4, 803040, Control_c, 2, 64, 127
4, 803040, Note_off_c, 2, 72, 0
4, 803040, Note_on_c, 2, 70, 74
4, 803160, Note_off_c, 2, 70, 0
4, 803160, Note_on_c, 2, 58, 76
4, 803280, Note_off_c, 2, 58, 0
4, 803280, Note_on_c, 2, 63, 77
4, 803400, Note_off_c, 2, 63, 0
4, 803400, Note_on_c, 2, 67, 79
4, 803520, Note_off_c, 2, 67, 0
4, 803520, Note_on_c, 2, 70, 81
4, 803640, Note_off_c, 2, 70, 0
4, 803640, Note_on_c, 2, 75, 83
4, 803760, Note_off_c, 2, 75, 0
4, 803760, Note_on_c, 2, 79, 85
4, 803880, Note_off_c, 2, 79, 0
4, 803880, Note_on_c, 2, 75, 83
4, 804000, Note_off_c, 2, 75, 0
4, 804000, Note_on_c, 2, 82, 82
4, 804120, Note_off_c, 2, 82, 0
4, 804120, Note_on_c, 2, 79, 80
4, 804240, Note_off_c, 2, 79, 0
4, 804240, Note_on_c, 2, 75, 79
4, 804360, Note_off_c, 2, 75, 0
4, 804360, Note_on_c, 2, 70, 77
4, 804480, Control_c, 2, 64, 0
4, 804480, Note_off_c, 2, 70, 0
4, 804480, Note_on_c, 2, 77, 76
4, 804480, Note_on_c, 2, 70, 76
4, 804560, Note_on_c, 2, 79, 75
4, 804615, Note_off_c, 2, 77, 0
4, 804640, Note_on_c, 2, 77, 74
4, 804712, Note_off_c, 2, 79, 0
4, 804720, Note_on_c, 2, 79, 73
4, 804780, Note_off_c, 2, 77, 0
4, 804800, Note_on_c, 2, 77, 72
4, 804862, Note_off_c, 2, 79, 0
4, 804880, Note_on_c, 2, 79, 71
4, 804952, Note_off_c, 2, 77, 0
4, 804960, Note_on_c, 2, 77, 70
4, 805035, Note_off_c, 2, 79, 0
4, 805040, Note_on_c, 2, 79, 69
4, 805102, Note_off_c, 2, 77, 0
4, 805120, Note_on_c, 2, 77, 68
4, 805170, Note_off_c, 2, 79, 0
4, 805200, Note_on_c, 2, 79, 67
4, 805267, Note_off_c, 2, 77, 0
4, 805280, Note_on_c, 2, 77, 66
4, 805342, Note_off_c, 2, 79, 0
4, 805360, Note_on_c, 2, 79, 65
4, 805425, Note_off_c, 2, 77, 0
4, 805440, Note_on_c, 2, 77, 64
4, 805507, Note_off_c, 2, 79, 0
4, 805520, Note_on_c, 2, 79, 63
4, 805575, Note_off_c, 2, 77, 0
4, 805600, Note_on_c, 2, 77, 62
4, 805657, Note_off_c, 2, 79, 0
4, 805680, Note_on_c, 2, 75, 61
4, 805770, Note_off_c, 2, 77, 0
4, 805800, Note_on_c, 2, 77, 59
4, 805882, Note_off_c, 2, 75, 0
4, 805897, Note_off_c, 2, 70, 0
4, 805920, Note_off_c, 2, 77, 0
4, 805920, Note_on_c, 2, 70, 58
4, 806040, Note_off_c, 2, 70, 0
4, 806040, Note_on_c, 2, 76, 56
4, 806160, Note_off_c, 2, 76, 0
4, 806160, Note_on_c, 2, 77, 56
4, 806280, Note_off_c, 2, 77, 0
4, 806280, Note_on_c, 2, 79, 56
4, 806400, Note_off_c, 2, 79, 0
4, 806400, Note_on_c, 2, 77, 57
4, 806520, Note_off_c, 2, 77, 0
4, 806520, Note_on_c, 2, 76, 57
4, 806640, Note_off_c, 2, 76, 0
4, 806640, Note_on_c, 2, 68, 57
4, 806760, Note_off_c, 2, 68, 0
4, 806760, Note_on_c, 2, 77, 58
4, 806880, Note_off_c, 2, 77, 0
4, 806880, Note_on_c, 2, 79, 58
4, 807000, Note_off_c, 2, 79, 0
4, 807000, Note_on_c, 2, 80, 58
4, 807120, Note_off_c, 2, 80, 0
4, 807120, Note_on_c, 2, 79, 59
4, 807240, Note_off_c, 2, 79, 0
4, 807240, Note_on_c, 2, 77, 59
4, 807360, Note_off_c, 2, 77, 0
4, 807360, Note_on_c, 2, 56, 59
4, 807480, Note_off_c, 2, 56, 0
4, 807480, Note_on_c, 2, 62, 60
4, 807600, Note_off_c, 2, 62, 0
4, 807600, Note_on_c, 2, 63, 60
4, 807720, Note_off_c, 2, 63, 0
4, 807720, Note_on_c, 2, 65, 60
4, 807840, Note_off_c, 2, 65, 0
4, 807840, Note_on_c, 2, 63, 61
4, 807960, Note_off_c, 2, 63, 0
4, 807960, Note_on_c, 2, 62, 61
4, 808080, Note_off_c, 2, 62, 0
4, 808080, Note_on_c, 2, 55, 61
4, 808200, Note_off_c, 2, 55, 0
4, 808200, Note_on_c, 2, 63, 62
4, 808320, Note_off_c, 2, 63, 0
4, 808320, Note_on_c, 2, 65, 62
4, 808440, Note_off_c, 2, 65, 0
4, 808440, Note_on_c, 2, 67, 62
4, 808560, Note_off_c, 2, 67, 0
4, 808560, Note_on_c, 2, 65, 63
4, 808680, Note_off_c, 2, 65, 0
4, 808680, Note_on_c, 2, 63, 63
4, 808800, Note_off_c, 2, 63, 0
4, 808800, Note_on_c, 2, 46, 63
4, 808920, Note_on_c, 2, 52, 64
4, 809032, Note_off_c, 2, 46, 0
4, 809040, Note_off_c, 2, 52, 0
4, 809040, Note_on_c, 2, 53, 64
4, 809160, Note_off_c, 2, 53, 0
4, 809160, Note_on_c, 2, 55, 64
4, 809280, Note_off_c, 2, 55, 0
4, 809280, Note_on_c, 2, 53, 65
4, 809400, Note_off_c, 2, 53, 0
4, 809400, Note_on_c, 2, 52, 65
4, 809520, Note_off_c, 2, 52, 0
4, 809520, Note_on_c, 2, 44, 66
4, 809640, Note_on_c, 2, 53, 66
4, 809760, Note_off_c, 2, 53, 0
4, 809760, Note_on_c, 2, 55, 66
4, 809767, Note_off_c, 2, 44, 0
4, 809880, Note_off_c, 2, 55, 0
4, 809880, Note_on_c, 2, 56, 67
4, 810000, Note_off_c, 2, 56, 0
4, 810000, Note_on_c, 2, 55, 67
4, 810120, Note_off_c, 2, 55, 0
4, 810120, Note_on_c, 2, 53, 67
4, 810240, Note_off_c, 2, 53, 0
4, 810240, Note_on_c, 2, 32, 68
4, 810360, Note_on_c, 2, 38, 68
4, 810480, Note_off_c, 2, 38, 0
4, 810480, Note_on_c, 2, 39, 68
4, 810487, Note_off_c, 2, 32, 0
4, 810600, Note_off_c, 2, 39, 0
4, 810600, Note_on_c, 2, 41, 69
4, 810720, Note_off_c, 2, 41, 0
4, 810720, Note_on_c, 2, 39, 69
4, 810840, Note_off_c, 2, 39, 0
4, 810840, Note_on_c, 2, 38, 69
4, 810960, Note_off_c, 2, 38, 0
4, 810960, Note_on_c, 2, 31, 70
4, 811080, Note_on_c, 2, 39, 70
4, 811200, Note_off_c, 2, 39, 0
4, 811200, Note_on_c, 2, 41, 70
4, 811222, Note_off_c, 2, 31, 0
4, 811320, Note_off_c, 2, 41, 0
4, 811320, Note_on_c, 2, 43, 71
4, 811440, Note_off_c, 2, 43, 0
4, 811440, Note_on_c, 2, 41, 71
4, 811560, Note_off_c, 2, 41, 0
4, 811560, Note_on_c, 2, 39, 71
4, 811680, Note_off_c, 2, 39, 0
4, 811680, Note_on_c, 2, 31, 72
4, 811800, Note_on_c, 2, 34, 72
4, 811920, Note_off_c, 2, 34, 0
4, 811920, Note_on_c, 2, 39, 72
4, 811935, Note_off_c, 2, 31, 0
4, 812040, Note_off_c, 2, 39, 0
4, 812040, Note_on_c, 2, 43, 73
4, 812160, Note_off_c, 2, 43, 0
4, 812160, Note_on_c, 2, 39, 73
4, 812280, Note_off_c, 2, 39, 0
4, 812280, Note_on_c, 2, 34, 73
4, 812400, Note_on_c, 2, 36, 74
4, 812422, Note_off_c, 2, 34, 0
4, 812520, Note_on_c, 2, 39, 74
4, 812640, Note_off_c, 2, 39, 0
4, 812640, Note_on_c, 2, 43, 74
4, 812647, Note_off_c, 2, 36, 0
4, 812760, Note_off_c, 2, 43, 0
4, 812760, Note_on_c, 2, 48, 75
4, 812880, Note_off_c, 2, 48, 0
4, 812880, Note_on_c, 2, 43, 75
4, 813000, Note_off_c, 2, 43, 0
4, 813000, Note_on_c, 2, 39, 75
4, 813120, Note_off_c, 2, 39, 0
4, 813120, Note_on_c, 2, 32, 76
4, 813240, Note_on_c, 2, 36, 76
4, 813360, Note_off_c, 2, 36, 0
4, 813360, Note_off_c, 2, 32, 0
4, 813360, Note_on_c, 2, 41, 76
4, 813480, Note_off_c, 2, 41, 0
4, 813480, Note_on_c, 2, 44, 77
4, 813600, Note_off_c, 2, 44, 0
4, 813600, Note_on_c, 2, 41, 77
4, 813720, Note_off_c, 2, 41, 0
4, 813720, Note_on_c, 2, 36, 77
4, 813840, Note_off_c, 2, 36, 0
4, 813840, Note_on_c, 2, 34, 78
4, 813960, Note_on_c, 2, 41, 78
4, 814080, Note_off_c, 2, 41, 0
4, 814080, Note_off_c, 2, 34, 0
4, 814080, Note_on_c, 2, 44, 78
4, 814200, Note_off_c, 2, 44, 0
4, 814200, Note_on_c, 2, 46, 79
4, 814320, Note_off_c, 2, 46, 0
4, 814320, Note_on_c, 2, 44, 79
4, 814440, Note_off_c, 2, 44, 0
4, 814440, Note_on_c, 2, 41, 79
4, 814560, Note_off_c, 2, 41, 0
4, 814560, Note_on_c, 2, 43, 80
4, 814680, Note_on_c, 2, 46, 80
4, 814800, Note_off_c, 2, 46, 0
4, 814800, Note_on_c, 2, 51, 80
4, 814807, Note_off_c, 2, 43, 0
4, 814920, Note_off_c, 2, 51, 0
4, 814920, Note_on_c, 2, 55, 81
4, 815040, Note_off_c, 2, 55, 0
4, 815040, Note_on_c, 2, 51, 81
4, 815160, Note_off_c, 2, 51, 0
4, 815160, Note_on_c, 2, 46, 81
4, 815280, Note_off_c, 2, 46, 0
4, 815280, Note_on_c, 2, 48, 82
4, 815400, Note_on_c, 2, 51, 82
4, 815512, Note_off_c, 2, 48, 0
4, 815520, Note_off_c, 2, 51, 0
4, 815520, Note_on_c, 2, 55, 82
4, 815640, Note_off_c, 2, 55, 0
4, 815640, Note_on_c, 2, 60, 83
4, 815760, Note_off_c, 2, 60, 0
4, 815760, Note_on_c, 2, 55, 83
4, 815880, Note_off_c, 2, 55, 0
4, 815880, Note_on_c, 2, 51, 83
4, 816000, Note_off_c, 2, 51, 0
4, 816000, Note_on_c, 2, 44, 84
4, 816120, Note_on_c, 2, 48, 84
4, 816240, Note_off_c, 2, 48, 0
4, 816240, Note_off_c, 2, 44, 0
4, 816240, Note_on_c, 2, 53, 84
4, 816360, Note_off_c, 2, 53, 0
4, 816360, Note_on_c, 2, 56, 85
4, 816480, Note_off_c, 2, 56, 0
4, 816480, Note_on_c, 2, 53, 85
4, 816600, Note_off_c, 2, 53, 0
4, 816600, Note_on_c, 2, 48, 85
4, 816720, Note_off_c, 2, 48, 0
4, 816720, Note_on_c, 2, 34, 86
4, 816840, Note_on_c, 2, 41, 86
4, 816952, Note_off_c, 2, 34, 0
4, 816960, Note_off_c, 2, 41, 0
4, 816960, Note_on_c, 2, 44, 86
4, 817080, Note_off_c, 2, 44, 0
4, 817080, Note_on_c, 2, 46, 87
4, 817200, Note_off_c, 2, 46, 0
4, 817200, Note_on_c, 2, 44, 87
4, 817320, Note_off_c, 2, 44, 0
4, 817320, Note_on_c, 2, 41, 87
4, 817440, Note_off_c, 2, 41, 0
4, 817440, Note_on_c, 2, 31, 88
4, 817560, Note_on_c, 2, 34, 88
4, 817680, Note_off_c, 2, 34, 0
4, 817680, Note_on_c, 2, 39, 88
4, 817687, Note_off_c, 2, 31, 0
4, 817800, Note_off_c, 2, 39, 0
4, 817800, Note_on_c, 2, 43, 89
4, 817920, Note_off_c, 2, 43, 0
4, 817920, Note_on_c, 2, 39, 89
4, 818040, Note_off_c, 2, 39, 0
4, 818040, Note_on_c, 2, 34, 89
4, 818160, Note_off_c, 2, 34, 0
4, 818160, Note_on_c, 2, 36, 90
4, 818280, Note_on_c, 2, 39, 90
4, 818400, Note_off_c, 2, 39, 0
4, 818400, Note_on_c, 2, 43, 90
4, 818415, Note_off_c, 2, 36, 0
4, 818520, Note_off_c, 2, 43, 0
4, 818520, Note_on_c, 2, 48, 91
4, 818640, Note_off_c, 2, 48, 0
4, 818640, Note_on_c, 2, 43, 91
4, 818760, Note_off_c, 2, 43, 0
4, 818760, Note_on_c, 2, 39, 91
4, 818880, Note_off_c, 2, 39, 0
4, 818880, Note_on_c, 2, 32, 92
4, 819000, Note_on_c, 2, 36, 92
4, 819120, Note_off_c, 2, 36, 0
4, 819120, Note_on_c, 2, 41, 92
4, 819135, Note_off_c, 2, 32, 0
4, 819240, Note_off_c, 2, 41, 0
4, 819240, Note_on_c, 2, 44, 93
4, 819360, Note_off_c, 2, 44, 0
4, 819360, Note_on_c, 2, 41, 93
4, 819480, Note_off_c, 2, 41, 0
4, 819480, Note_on_c, 2, 36, 93
4, 819600, Note_off_c, 2, 36, 0
4, 819600, Note_on_c, 2, 34, 94
4, 819720, Note_on_c, 2, 41, 94
4, 819825, Note_off_c, 2, 34, 0
4, 819840, Note_off_c, 2, 41, 0
4, 819840, Note_on_c, 2, 44, 94
4, 819960, Note_off_c, 2, 44, 0
4, 819960, Note_on_c, 2, 46, 95
4, 820080, Note_off_c, 2, 46, 0
4, 820080, Note_on_c, 2, 34, 95
4, 820200, Note_on_c, 2, 46, 95
4, 820305, Note_off_c, 2, 34, 0
4, 820320, Note_off_c, 2, 46, 0
4, 820320, Note_on_c, 2, 39, 114
4, 820560, Note_off_c, 2, 39, 0
4, 820560, Note_on_c, 2, 51, 95
4, 820800, Note_off_c, 2, 51, 0
4, 820800, Note_on_c, 2, 55, 95
4, 820800, Note_on_c, 2, 51, 95
4, 821040, Note_off_c, 2, 51, 0
4, 821040, Note_off_c, 2, 55, 0
4, 821040, Note_on_c, 2, 58, 118
4, 821040, Note_on_c, 2, 55, 118
4, 821040, Note_on_c, 2, 51, 118
4, 821520, Note_off_c, 2, 51, 0
4, 821520, Note_off_c, 2, 55, 0
4, 821520, Note_off_c, 2, 58, 0
4, 821520, Note_on_c, 2, 46, 95
4, 821520, Note_on_c, 2, 53, 95
4, 821520, Note_on_c, 2, 58, 95
4, 821760, Note_off_c, 2, 58, 0
4, 821760, Note_off_c, 2, 53, 0
4, 821760, Note_off_c, 2, 46, 0
4, 821760, Note_on_c, 2, 58, 95
4, 821760, Note_on_c, 2, 51, 95
4, 821760, Note_on_c, 2, 55, 95
4, 822000, Note_off_c, 2, 55, 0
4, 822000, Note_off_c, 2, 51, 0
4, 822000, Note_off_c, 2, 58, 0
4, 822000, Note_on_c, 2, 51, 95
4, 822000, Note_on_c, 2, 58, 95
4, 822000, Note_on_c, 2, 55, 95
4, 822240, Note_off_c, 2, 55, 0
4, 822240, Note_off_c, 2, 58, 0
4, 822240, Note_off_c, 2, 51, 0
4, 822240, Note_on_c, 2, 51, 95
4, 822240, Note_on_c, 2, 58, 95
4, 822240, Note_on_c, 2, 55, 95
4, 822480, Note_off_c, 2, 55, 0
4, 822480, Note_off_c, 2, 58, 0
4, 822480, Note_off_c, 2, 51, 0
4, 822480, Note_on_c, 2, 58, 118
4, 822480, Note_on_c, 2, 51, 118
4, 822480, Note_on_c, 2, 55, 118
4, 822960, Note_off_c, 2, 55, 0
4, 822960, Note_off_c, 2, 51, 0
4, 822960, Note_off_c, 2, 58, 0
4, 822960, Note_on_c, 2, 46, 95
4, 822960, Note_on_c, 2, 58, 95
4, 822960, Note_on_c, 2, 53, 95
4, 823200, Note_off_c, 2, 53, 0
4, 823200, Note_off_c, 2, 58, 0
4, 823200, Note_off_c, 2, 46, 0
4, 823200, Note_on_c, 2, 51, 95
4, 823200, Note_on_c, 2, 58, 95
4, 823200, Note_on_c, 2, 55, 95
4, 823440, Note_off_c, 2, 55, 0
4, 823440, Note_off_c, 2, 58, 0
4, 823440, Note_off_c, 2, 51, 0
4, 823440, Note_on_c, 2, 51, 95
4, 823440, Note_on_c, 2, 58, 95
4, 823440, Note_on_c, 2, 55, 95
4, 823680, Note_off_c, 2, 55, 0
4, 823680, Note_off_c, 2, 58, 0
4, 823680, Note_off_c, 2, 51, 0
4, 823680, Note_on_c, 2, 51, 95
4, 823680, Note_on_c, 2, 58, 95
4, 823680, Note_on_c, 2, 55, 95
4, 823920, Note_off_c, 2, 55, 0
4, 823920, Note_off_c, 2, 58, 0
4, 823920, Note_off_c, 2, 51, 0
4, 823920, Note_on_c, 2, 51, 118
4, 823920, Note_on_c, 2, 55, 118
4, 823920, Note_on_c, 2, 58, 118
4, 824400, Note_off_c, 2, 58, 0
4, 824400, Note_off_c, 2, 55, 0
4, 824400, Note_off_c, 2, 51, 0
4, 824400, Note_on_c, 2, 46, 122
4, 824400, Note_on_c, 2, 58, 122
4, 824400, Note_on_c, 2, 53, 122
4, 824640, Note_off_c, 2, 53, 0
4, 824640, Note_off_c, 2, 58, 0
4, 824640, Note_off_c, 2, 46, 0
4, 824640, Note_on_c, 2, 58, 125
4, 824640, Note_on_c, 2, 51, 125
4, 824640, Note_on_c, 2, 55, 125
4, 825120, Note_off_c, 2, 55, 0
4, 825120, Note_off_c, 2, 51, 0
4, 825120, Note_off_c, 2, 58, 0
4, 825360, Note_on_c, 2, 39, 120
4, 825360, Note_on_c, 2, 51, 120
4, 825840, Note_off_c, 2, 51, 0
4, 825840, Note_off_c, 2, 39, 0
4, 826080, Note_on_c, 2, 39, 116
4, 826080, Note_on_c, 2, 51, 116
4, 826560, Note_off_c, 2, 51, 0
4, 826560, Note_off_c, 2, 39, 0
4, 827520, Note_on_c, 2, 51, 42
4, 827520, Note_on_c, 2, 58, 42
4, 827520, Note_on_c, 2, 55, 42
4, 827880, Note_off_c, 2, 55, 0
4, 827880, Note_off_c, 2, 58, 0
4, 827880, Note_off_c, 2, 51, 0
4, 828240, Note_on_c, 2, 46, 44
4, 828240, Note_on_c, 2, 53, 44
4, 828240, Note_on_c, 2, 58, 44
4, 828240, Note_on_c, 2, 56, 44
4, 828600, Note_off_c, 2, 56, 0
4, 828600, Note_off_c, 2, 58, 0
4, 828600, Note_off_c, 2, 53, 0
4, 828600, Note_off_c, 2, 46, 0
4, 828960, Note_on_c, 2, 51, 46
4, 828960, Note_on_c, 2, 58, 46
4, 828960, Note_on_c, 2, 55, 46
4, 829320, Note_off_c, 2, 55, 0
4, 829320, Note_off_c, 2, 58, 0
4, 829320, Note_off_c, 2, 51, 0
4, 829680, Note_on_c, 2, 48, 47
4, 829680, Note_on_c, 2, 55, 47
4, 829680, Note_on_c, 2, 60, 47
4, 829836, Note_off_c, 2, 60, 0
4, 829836, Note_off_c, 2, 55, 0
4, 829836, Note_off_c, 2, 48, 0
4, 830160, Note_on_c, 2, 52, 49
4, 830160, Note_on_c, 2, 60, 49
4, 830160, Note_on_c, 2, 58, 49
4, 830160, Note_on_c, 2, 55, 49
4, 830316, Note_off_c, 2, 55, 0
4, 830316, Note_off_c, 2, 58, 0
4, 830316, Note_off_c, 2, 60, 0
4, 830316, Note_off_c, 2, 52, 0
4, 830400, Note_on_c, 2, 56, 49
4, 830400, Note_on_c, 2, 60, 49
4, 830400, Note_on_c, 2, 53, 49
4, 830760, Note_off_c, 2, 53, 0
4, 830760, Note_off_c, 2, 60, 0
4, 830760, Note_off_c, 2, 56, 0
4, 831120, Note_on_c, 2, 57, 51
4, 831120, Note_on_c, 2, 50, 51
4, 831120, Note_on_c, 2, 62, 51
4, 831276, Note_off_c, 2, 62, 0
4, 831276, Note_off_c, 2, 50, 0
4, 831276, Note_off_c, 2, 57, 0
4, 831600, Note_on_c, 2, 54, 52
4, 831600, Note_on_c, 2, 57, 52
4, 831600, Note_on_c, 2, 62, 52
4, 831756, Note_off_c, 2, 62, 0
4, 831756, Note_off_c, 2, 57, 0
4, 831756, Note_off_c, 2, 54, 0
4, 831840, Note_on_c, 2, 58, 53
4, 831840, Note_on_c, 2, 55, 53
4, 831840, Note_on_c, 2, 62, 53
4, 832200, Note_off_c, 2, 62, 0
4, 832200, Note_off_c, 2, 55, 0
4, 832200, Note_off_c, 2, 58, 0
4, 833280, Note_on_c, 2, 51, 57
4, 833280, Note_on_c, 2, 55, 57
4, 833280, Note_on_c, 2, 58, 57
4, 833280, Note_on_c, 2, 63, 57
4, 833760, Note_off_c, 2, 63, 0
4, 833760, Note_off_c, 2, 58, 0
4, 833760, Note_off_c, 2, 55, 0
4, 833760, Note_off_c, 2, 51, 0
4, 834720, Note_on_c, 2, 63, 46
4, 834960, Note_off_c, 2, 63, 0
4, 834960, Note_on_c, 2, 58, 47
4, 835200, Note_off_c, 2, 58, 0
4, 835200, Note_on_c, 2, 55, 49
4, 835440, Note_off_c, 2, 55, 0
4, 835440, Note_on_c, 2, 55, 50
4, 835680, Note_off_c, 2, 55, 0
4, 835680, Note_on_c, 2, 58, 51
4, 835920, Note_off_c, 2, 58, 0
4, 835920, Note_on_c, 2, 63, 52
4, 836160, Note_off_c, 2, 63, 0
4, 836160, Note_on_c, 2, 39, 48
4, 836160, Note_on_c, 2, 43, 48
4, 836400, Note_off_c, 2, 43, 0
4, 836400, Note_off_c, 2, 39, 0
4, 836400, Note_on_c, 2, 43, 49
4, 836400, Note_on_c, 2, 46, 49
4, 836640, Note_off_c, 2, 46, 0
4, 836640, Note_off_c, 2, 43, 0
4, 836640, Note_on_c, 2, 46, 50
4, 836640, Note_on_c, 2, 51, 50
4, 836880, Note_off_c, 2, 51, 0
4, 836880, Note_off_c, 2, 46, 0
4, 836880, Note_on_c, 2, 46, 51
4, 836880, Note_on_c, 2, 43, 51
4, 837120, Note_off_c, 2, 43, 0
4, 837120, Note_off_c, 2, 46, 0
4, 837120, Note_on_c, 2, 46, 53
4, 837120, Note_on_c, 2, 51, 53
4, 837360, Note_off_c, 2, 51, 0
4, 837360, Note_off_c, 2, 46, 0
4, 837360, Note_on_c, 2, 51, 54
4, 837360, Note_on_c, 2, 55, 54
4, 837600, Note_off_c, 2, 55, 0
4, 837600, Note_off_c, 2, 51, 0
4, 837600, Note_on_c, 2, 51, 58
4, 837600, Note_on_c, 2, 46, 58
4, 837840, Note_off_c, 2, 46, 0
4, 837840, Note_off_c, 2, 51, 0
4, 837840, Note_on_c, 2, 51, 56
4, 837840, Note_on_c, 2, 55, 56
4, 838080, Note_off_c, 2, 55, 0
4, 838080, Note_off_c, 2, 51, 0
4, 838080, Note_on_c, 2, 58, 54
4, 838080, Note_on_c, 2, 55, 54
4, 838320, Note_off_c, 2, 55, 0
4, 838320, Note_off_c, 2, 58, 0
4, 838560, Note_on_c, 2, 46, 50
4, 838560, Note_on_c, 2, 53, 50
4, 838800, Note_off_c, 2, 53, 0
4, 838800, Note_off_c, 2, 46, 0
4, 838800, Note_on_c, 2, 46, 48
4, 838800, Note_on_c, 2, 58, 48
4, 838992, Note_off_c, 2, 58, 0
4, 838992, Note_off_c, 2, 46, 0
4, 839040, Note_on_c, 2, 51, 47
4, 839040, Note_on_c, 2, 58, 47
4, 839040, Note_on_c, 2, 55, 47
4, 839520, Note_off_c, 2, 55, 0
4, 839520, Note_off_c, 2, 58, 0
4, 839520, Note_off_c, 2, 51, 0
4, 840480, Note_on_c, 2, 63, 46
4, 840480, Note_on_c, 2, 51, 46
4, 840600, Note_off_c, 2, 63, 0
4, 840600, Note_on_c, 2, 62, 46
4, 840720, Note_off_c, 2, 62, 0
4, 840720, Note_on_c, 2, 63, 47
4, 840840, Note_off_c, 2, 63, 0
4, 840840, Note_on_c, 2, 58, 47
4, 840960, Note_off_c, 2, 58, 0
4, 840960, Note_on_c, 2, 55, 48
4, 841087, Note_off_c, 2, 55, 0
4, 841102, Note_off_c, 2, 51, 0
4, 841140, Note_on_c, 2, 56, 48
4, 841200, Note_off_c, 2, 56, 0
4, 841200, Note_on_c, 2, 55, 49
4, 841320, Note_off_c, 2, 55, 0
4, 841320, Note_on_c, 2, 54, 49
4, 841440, Note_off_c, 2, 54, 0
4, 841440, Note_on_c, 2, 55, 50
4, 841560, Note_off_c, 2, 55, 0
4, 841560, Note_on_c, 2, 58, 50
4, 841680, Note_off_c, 2, 58, 0
4, 841680, Note_on_c, 2, 63, 50
4, 841920, Note_on_c, 2, 39, 51
4, 842040, Note_off_c, 2, 39, 0
4, 842040, Note_off_c, 2, 63, 0
4, 842040, Note_on_c, 2, 38, 52
4, 842160, Note_off_c, 2, 38, 0
4, 842160, Note_on_c, 2, 39, 52
4, 842280, Note_off_c, 2, 39, 0
4, 842280, Note_on_c, 2, 43, 53
4, 842400, Note_off_c, 2, 43, 0
4, 842400, Note_on_c, 2, 46, 53
4, 842580, Note_off_c, 2, 46, 0
4, 842640, Note_on_c, 2, 43, 54
4, 842760, Note_off_c, 2, 43, 0
4, 842760, Note_on_c, 2, 41, 55
4, 842880, Note_off_c, 2, 41, 0
4, 842880, Note_on_c, 2, 43, 55
4, 843000, Note_off_c, 2, 43, 0
4, 843000, Note_on_c, 2, 46, 56
4, 843120, Note_off_c, 2, 46, 0
4, 843120, Note_on_c, 2, 51, 56
4, 843300, Note_off_c, 2, 51, 0
4, 843360, Note_on_c, 2, 46, 57
4, 843480, Note_off_c, 2, 46, 0
4, 843480, Note_on_c, 2, 45, 56
4, 843600, Note_off_c, 2, 45, 0
4, 843600, Note_on_c, 2, 46, 54
4, 843720, Note_off_c, 2, 46, 0
4, 843720, Note_on_c, 2, 51, 53
4, 843840, Note_off_c, 2, 51, 0
4, 843840, Note_on_c, 2, 55, 51
4, 844020, Note_off_c, 2, 55, 0
4, 844320, Note_on_c, 2, 46, 45
4, 844320, Note_on_c, 2, 53, 45
4, 844560, Note_off_c, 2, 53, 0
4, 844560, Note_off_c, 2, 46, 0
4, 844560, Note_on_c, 2, 46, 43
4, 844560, Note_on_c, 2, 58, 43
4, 844752, Note_off_c, 2, 58, 0
4, 844752, Note_off_c, 2, 46, 0
4, 844800, Note_on_c, 2, 39, 40
4, 844800, Note_on_c, 2, 43, 40
4, 845040, Note_off_c, 2, 43, 0
4, 845040, Note_off_c, 2, 39, 0
4, 845040, Note_on_c, 2, 46, 41
4, 845040, Note_on_c, 2, 43, 41
4, 845280, Note_off_c, 2, 43, 0
4, 845280, Note_off_c, 2, 46, 0
4, 845280, Note_on_c, 2, 46, 44
4, 845280, Note_on_c, 2, 51, 44
4, 845520, Note_off_c, 2, 51, 0
4, 845520, Note_off_c, 2, 46, 0
4, 845520, Note_on_c, 2, 43, 46
4, 845520, Note_on_c, 2, 46, 46
4, 845760, Note_off_c, 2, 46, 0
4, 845760, Note_off_c, 2, 43, 0
4, 845760, Note_on_c, 2, 51, 48
4, 845760, Note_on_c, 2, 46, 48
4, 846000, Note_off_c, 2, 46, 0
4, 846000, Note_off_c, 2, 51, 0
4, 846000, Note_on_c, 2, 51, 50
4, 846000, Note_on_c, 2, 55, 50
4, 846240, Note_off_c, 2, 55, 0
4, 846240, Note_off_c, 2, 51, 0
4, 846240, Note_on_c, 2, 46, 47
4, 846240, Note_on_c, 2, 51, 47
4, 846480, Note_off_c, 2, 51, 0
4, 846480, Note_off_c, 2, 46, 0
4, 846480, Note_on_c, 2, 51, 44
4, 846480, Note_on_c, 2, 55, 44
4, 846720, Note_off_c, 2, 55, 0
4, 846720, Note_off_c, 2, 51, 0
4, 846720, Note_on_c, 2, 46, 41
4, 846720, Note_on_c, 2, 58, 41
4, 846720, Note_on_c, 2, 51, 41
4, 846960, Note_off_c, 2, 51, 0
4, 846960, Note_off_c, 2, 58, 0
4, 846960, Note_off_c, 2, 46, 0
4, 846960, Note_on_c, 2, 58, 38
4, 846960, Note_on_c, 2, 46, 38
4, 846960, Note_on_c, 2, 53, 38
4, 847152, Note_off_c, 2, 53, 0
4, 847152, Note_off_c, 2, 46, 0
4, 847152, Note_off_c, 2, 58, 0
4, 847200, Note_on_c, 2, 46, 35
4, 847200, Note_on_c, 2, 58, 35
4, 847200, Note_on_c, 2, 53, 35
4, 847392, Note_off_c, 2, 53, 0
4, 847392, Note_off_c, 2, 58, 0
4, 847392, Note_off_c, 2, 46, 0
4, 847440, Note_on_c, 2, 46, 32
4, 847440, Note_on_c, 2, 58, 32
4, 847440, Note_on_c, 2, 56, 32
4, 847560, Control_c, 2, 64, 127
4, 847632, Note_off_c, 2, 56, 0
4, 847632, Note_off_c, 2, 58, 0
4, 847632, Note_off_c, 2, 46, 0
4, 847800, Control_c, 2, 64, 0
4, 847920, Control_c, 2, 64, 0
4, 848160, Control_c, 2, 64, 0
4, 848160, Note_on_c, 2, 70, 88
4, 848316, Note_off_c, 2, 70, 0
4, 848400, Note_on_c, 2, 67, 88
4, 848556, Note_off_c, 2, 67, 0
4, 848640, Note_on_c, 2, 63, 87
4, 848796, Note_off_c, 2, 63, 0
4, 848880, Note_on_c, 2, 67, 86
4, 849036, Note_off_c, 2, 67, 0
4, 849120, Note_on_c, 2, 63, 85
4, 849276, Note_off_c, 2, 63, 0
4, 849360, Note_on_c, 2, 58, 84
4, 849516, Note_off_c, 2, 58, 0
4, 849600, Note_on_c, 2, 63, 83
4, 849756, Note_off_c, 2, 63, 0
4, 849840, Note_on_c, 2, 58, 82
4, 849996, Note_off_c, 2, 58, 0
4, 850080, Note_on_c, 2, 55, 82
4, 850236, Note_off_c, 2, 55, 0
4, 850320, Note_on_c, 2, 58, 81
4, 850560, Note_off_c, 2, 58, 0
4, 850560, Note_on_c, 2, 56, 80
4, 850716, Note_off_c, 2, 56, 0
4, 850800, Note_on_c, 2, 46, 80
4, 850800, Note_on_c, 2, 53, 80
4, 850956, Note_off_c, 2, 53, 0
4, 850956, Note_off_c, 2, 46, 0
4, 851040, Control_c, 2, 64, 127
4, 851040, Note_on_c, 2, 39, 82
4, 851040, Note_on_c, 2, 51, 82
4, 851280, Note_off_c, 2, 51, 0
4, 851280, Note_off_c, 2, 39, 0
4, 851280, Note_on_c, 2, 51, 84
4, 851280, Note_on_c, 2, 58, 84
4, 851280, Note_on_c, 2, 63, 84
4, 851280, Note_on_c, 2, 55, 84
4, 851520, Note_off_c, 2, 55, 0
4, 851520, Note_off_c, 2, 63, 0
4, 851520, Note_off_c, 2, 58, 0
4, 851520, Note_off_c, 2, 51, 0
4, 851520, Note_on_c, 2, 51, 86
4, 851520, Note_on_c, 2, 63, 86
4, 851520, Note_on_c, 2, 58, 86
4, 851520, Note_on_c, 2, 55, 86
4, 851760, Note_off_c, 2, 55, 0
4, 851760, Note_off_c, 2, 58, 0
4, 851760, Note_off_c, 2, 63, 0
4, 851760, Note_off_c, 2, 51, 0
4, 851760, Note_on_c, 2, 51, 89
4, 851760, Note_on_c, 2, 63, 89
4, 851760, Note_on_c, 2, 55, 89
4, 851760, Note_on_c, 2, 58, 89
4, 852000, Note_off_c, 2, 58, 0
4, 852000, Note_off_c, 2, 55, 0
4, 852000, Note_off_c, 2, 63, 0
4, 852000, Note_off_c, 2, 51, 0
4, 852000, Note_on_c, 2, 51, 91
4, 852000, Note_on_c, 2, 58, 91
4, 852000, Note_on_c, 2, 55, 91
4, 852000, Note_on_c, 2, 63, 91
4, 852240, Note_off_c, 2, 63, 0
4, 852240, Note_off_c, 2, 55, 0
4, 852240, Note_off_c, 2, 58, 0
4, 852240, Note_off_c, 2, 51, 0
4, 852240, Note_on_c, 2, 51, 93
4, 852240, Note_on_c, 2, 58, 93
4, 852240, Note_on_c, 2, 55, 93
4, 852240, Note_on_c, 2, 63, 93
4, 852480, Note_off_c, 2, 63, 0
4, 852480, Note_off_c, 2, 55, 0
4, 852480, Note_off_c, 2, 58, 0
4, 852480, Note_off_c, 2, 51, 0
4, 852480, Note_on_c, 2, 51, 95
4, 852480, Note_on_c, 2, 63, 95
4, 852480, Note_on_c, 2, 58, 95
4, 852480, Note_on_c, 2, 55, 95
4, 852720, Note_off_c, 2, 55, 0
4, 852720, Note_off_c, 2, 58, 0
4, 852720, Note_off_c, 2, 63, 0
4, 852720, Note_off_c, 2, 51, 0
4, 852720, Note_on_c, 2, 51, 97
4, 852720, Note_on_c, 2, 63, 97
4, 852720, Note_on_c, 2, 58, 97
4, 852720, Note_on_c, 2, 55, 97
4, 852960, Note_off_c, 2, 55, 0
4, 852960, Note_off_c, 2, 58, 0
4, 852960, Note_off_c, 2, 63, 0
4, 852960, Note_off_c, 2, 51, 0
4, 852960, Note_on_c, 2, 51, 100
4, 852960, Note_on_c, 2, 63, 100
4, 852960, Note_on_c, 2, 58, 100
4, 852960, Note_on_c, 2, 55, 100
4, 853200, Note_off_c, 2, 55, 0
4, 853200, Note_off_c, 2, 58, 0
4, 853200, Note_off_c, 2, 63, 0
4, 853200, Note_off_c, 2, 51, 0
4, 853200, Note_on_c, 2, 51, 102
4, 853200, Note_on_c, 2, 63, 102
4, 853200, Note_on_c, 2, 58, 102
4, 853200, Note_on_c, 2, 55, 102
4, 853440, Note_off_c, 2, 55, 0
4, 853440, Note_off_c, 2, 58, 0
4, 853440, Note_off_c, 2, 63, 0
4, 853440, Note_off_c, 2, 51, 0
4, 853440, Note_on_c, 2, 51, 104
4, 853440, Note_on_c, 2, 63, 104
4, 853440, Note_on_c, 2, 58, 104
4, 853440, Note_on_c, 2, 55, 104
4, 853680, Note_off_c, 2, 55, 0
4, 853680, Note_off_c, 2, 58, 0
4, 853680, Note_off_c, 2, 63, 0
4, 853680, Note_off_c, 2, 51, 0
4, 853680, Note_on_c, 2, 51, 106
4, 853680, Note_on_c, 2, 63, 106
4, 853680, Note_on_c, 2, 58, 106
4, 853680, Note_on_c, 2, 55, 106
4, 853920, Note_off_c, 2, 55, 0
4, 853920, Note_off_c, 2, 58, 0
4, 853920, Note_off_c, 2, 63, 0
4, 853920, Note_off_c, 2, 51, 0
4, 853920, Note_on_c, 2, 63, 109
4, 853920, Note_on_c, 2, 58, 109
4, 853920, Note_on_c, 2, 55, 109
4, 853920, Note_on_c, 2, 51, 109
4, 854400, Control_c, 2, 64, 0
4, 854400, Note_off_c, 2, 51, 0
4, 854400, Note_off_c, 2, 55, 0
4, 854400, Note_off_c, 2, 58, 0
4, 854400, Note_off_c, 2, 63, 0
4, 854640, Note_on_c, 2, 46, 110
4, 854640, Note_on_c, 2, 58, 110
4, 855120, Note_off_c, 2, 58, 0
4, 855120, Note_off_c, 2, 46, 0
4, 855360, Note_on_c, 2, 51, 105
4, 855360, Note_on_c, 2, 39, 105
4, 855840, Note_off_c, 2, 39, 0
4, 855840, Note_off_c, 2, 51, 0
4, 855840, End_track
0, 0, End_of_file