0, 0, Header, 1, 3, 384
1, 0, Start_track
1, 0, Time_signature, 3, 2, 24, 8
1, 0, Tempo, 615362
1, 3744, Tempo, 612644
1, 3936, Tempo, 612644
1, 4416, Tempo, 609844
1, 4512, Tempo, 609844
1, 4608, Time_signature, 5, 2, 24, 8
1, 4608, Tempo, 1114200
1, 4704, Tempo, 1125678
1, 4800, Tempo, 1137198
1, 4896, Tempo, 1149166
1, 4992, Tempo, 1161187
1, 5088, Tempo, 1173459
1, 5184, Tempo, 1186195
1, 5280, Tempo, 1199029
1, 5376, Tempo, 1212120
1, 5472, Tempo, 1225728
1, 5568, Tempo, 1239398
1, 5664, Tempo, 1253613
1, 5760, Tempo, 1267948
1, 5856, Tempo, 1282578
1, 6528, Time_signature, 4, 2, 24, 8
1, 7296, Tempo, 1977561
1, 7392, Tempo, 1977561
1, 7680, Tempo, 912531
1, 9216, Tempo, 2000000
1, 9408, Tempo, 912531
1, 10368, Tempo, 1951210
1, 10656, Tempo, 1159420
1, 10752, Tempo, 1159420
1, 10848, Tempo, 1176470
1, 11136, Time_signature, 1, 2, 24, 8
1, 11136, Tempo, 2000000
1, 11232, Tempo, 2000000
1, 11520, Time_signature, 3, 2, 24, 8
1, 11520, Tempo, 585343
1, 12672, Tempo, 585343
1, 14784, Tempo, 583935
1, 14880, Tempo, 585349
1, 14976, Time_signature, 3, 2, 24, 8
1, 14976, Tempo, 579710
1, 15552, Tempo, 602992
1, 15744, Tempo, 601482
1, 35711, Tempo, 585349
1, 35718, Tempo, 585349
1, 36096, Tempo, 1311457
1, 36192, Tempo, 1311457
1, 36288, Tempo, 1333330
1, 36576, Tempo, 579710
1, 57702, Tempo, 583935
1, 57984, Tempo, 588219
1, 57990, Tempo, 583935
1, 58086, Tempo, 588219
1, 58566, Tempo, 596993
1, 88704, Tempo, 631066
1, 89088, Tempo, 1088709
1, 89184, Tempo, 1091679
1, 89280, Tempo, 1094669
1, 89376, Tempo, 1100677
1, 89472, Tempo, 1100677
1, 89568, Tempo, 595357
1, 96768, Tempo, 641596
1, 103680, Tempo, 671763
1, 104832, Tempo, 639546
1, 117504, Tempo, 649935
1, 117888, Tempo, 671763
1, 118272, Tempo, 784581
1, 118368, Tempo, 810000
1, 118464, Tempo, 810000
1, 118656, Tempo, 599299
1, 147840, Tempo, 729069
1, 148320, Tempo, 598207
1, 163872, Tempo, 942772
1, 163968, Tempo, 942772
1, 164064, Tempo, 936152
1, 164256, Tempo, 936152
1, 164736, Tempo, 596439
1, 193536, Tempo, 646575
1, 193536, Time_signature, 4, 2, 24, 8
1, 195072, Tempo, 700961
1, 195072, Time_signature, 4, 2, 24, 8
1, 196032, Tempo, 2000000
1, 196224, Tempo, 1257565
1, 196416, Tempo, 822898
1, 196608, Tempo, 588823
1, 196608, Time_signature, 3, 2, 24, 8
1, 196800, Tempo, 589970
1, 196992, Tempo, 590595
1, 202368, End_track
2, 0, Start_track
2, 0, Title_t, "soprano"
2, 0, Control_c, 0, 10, 112
2, 0, Control_c, 0, 121, 0
2, 0, Control_c, 0, 91, 40
2, 0, Note_on_c, 0, 72, 92
2, 0, Note_on_c, 0, 76, 92
2, 0, Note_on_c, 0, 79, 92
2, 0, Note_on_c, 0, 84, 92
2, 192, Note_off_c, 0, 84, 64
2, 192, Note_off_c, 0, 79, 64
2, 192, Note_off_c, 0, 76, 64
2, 192, Note_off_c, 0, 72, 64
2, 480, Note_on_c, 0, 48, 51
2, 576, Note_off_c, 0, 48, 64
2, 576, Note_on_c, 0, 50, 51
2, 672, Note_off_c, 0, 50, 64
2, 672, Note_on_c, 0, 52, 51
2, 768, Note_off_c, 0, 52, 64
2, 768, Note_on_c, 0, 53, 61
2, 800, Note_on_c, 0, 52, 51
2, 830, Note_off_c, 0, 53, 64
2, 832, Note_on_c, 0, 53, 59
2, 862, Note_off_c, 0, 52, 64
2, 864, Note_on_c, 0, 52, 51
2, 894, Note_off_c, 0, 53, 64
2, 960, Note_on_c, 0, 53, 51
2, 990, Note_off_c, 0, 52, 64
2, 1056, Note_off_c, 0, 53, 64
2, 1056, Note_on_c, 0, 55, 51
2, 1152, Note_off_c, 0, 55, 64
2, 1152, Note_on_c, 0, 52, 69
2, 1248, Note_off_c, 0, 52, 64
2, 1248, Note_on_c, 0, 60, 59
2, 1344, Note_off_c, 0, 60, 64
2, 1344, Note_on_c, 0, 62, 60
2, 1440, Note_off_c, 0, 62, 64
2, 1440, Note_on_c, 0, 64, 61
2, 1536, Note_off_c, 0, 64, 64
2, 1536, Note_on_c, 0, 65, 76
2, 1568, Note_on_c, 0, 64, 69
2, 1598, Note_off_c, 0, 65, 64
2, 1600, Note_on_c, 0, 65, 76
2, 1630, Note_off_c, 0, 64, 64
2, 1632, Note_on_c, 0, 64, 63
2, 1662, Note_off_c, 0, 65, 64
2, 1728, Note_on_c, 0, 65, 64
2, 1758, Note_off_c, 0, 64, 64
2, 1824, Note_off_c, 0, 65, 64
2, 1824, Note_on_c, 0, 67, 65
2, 1920, Note_off_c, 0, 67, 64
2, 1920, Note_on_c, 0, 64, 80
2, 2016, Note_off_c, 0, 64, 64
2, 2016, Note_on_c, 0, 72, 67
2, 2112, Note_off_c, 0, 72, 64
2, 2112, Note_on_c, 0, 74, 68
2, 2208, Note_off_c, 0, 74, 64
2, 2208, Note_on_c, 0, 76, 69
2, 2304, Note_off_c, 0, 76, 64
2, 2304, Note_on_c, 0, 77, 80
2, 2336, Note_on_c, 0, 76, 70
2, 2366, Note_off_c, 0, 77, 64
2, 2368, Note_on_c, 0, 77, 71
2, 2398, Note_off_c, 0, 76, 64
2, 2400, Note_on_c, 0, 76, 71
2, 2430, Note_off_c, 0, 77, 64
2, 2496, Note_on_c, 0, 77, 72
2, 2526, Note_off_c, 0, 76, 64
2, 2592, Note_off_c, 0, 77, 64
2, 2592, Note_on_c, 0, 79, 73
2, 2688, Note_off_c, 0, 79, 64
2, 2688, Note_on_c, 0, 76, 84
2, 2784, Note_off_c, 0, 76, 64
2, 2784, Note_on_c, 0, 79, 75
2, 2880, Note_off_c, 0, 79, 64
2, 2880, Note_on_c, 0, 81, 76
2, 2976, Note_off_c, 0, 81, 64
2, 2976, Note_on_c, 0, 83, 77
2, 3072, Note_off_c, 0, 83, 64
2, 3072, Note_on_c, 0, 84, 88
2, 3104, Note_on_c, 0, 83, 78
2, 3134, Note_off_c, 0, 84, 64
2, 3136, Note_on_c, 0, 84, 84
2, 3166, Note_off_c, 0, 83, 64
2, 3168, Note_on_c, 0, 83, 79
2, 3198, Note_off_c, 0, 84, 64
2, 3264, Note_on_c, 0, 84, 80
2, 3294, Note_off_c, 0, 83, 64
2, 3360, Note_off_c, 0, 84, 64
2, 3360, Note_on_c, 0, 86, 81
2, 3456, Note_off_c, 0, 86, 64
2, 3456, Note_on_c, 0, 88, 92
2, 3552, Note_off_c, 0, 88, 64
2, 3552, Note_on_c, 0, 86, 83
2, 3648, Note_off_c, 0, 86, 64
2, 3648, Note_on_c, 0, 88, 84
2, 3744, Note_off_c, 0, 88, 64
2, 3744, Note_on_c, 0, 89, 85
2, 3840, Note_off_c, 0, 89, 64
2, 3840, Note_on_c, 0, 91, 96
2, 3936, Note_on_c, 0, 90, 87
2, 3971, Note_off_c, 0, 91, 64
2, 4032, Note_on_c, 0, 91, 88
2, 4067, Note_off_c, 0, 90, 64
2, 4128, Note_on_c, 0, 90, 89
2, 4163, Note_off_c, 0, 91, 64
2, 4224, Note_on_c, 0, 91, 98
2, 4259, Note_off_c, 0, 90, 64
2, 4320, Note_on_c, 0, 90, 91
2, 4355, Note_off_c, 0, 91, 64
2, 4416, Note_on_c, 0, 91, 92
2, 4451, Note_off_c, 0, 90, 64
2, 4512, Note_on_c, 0, 90, 93
2, 4547, Note_off_c, 0, 91, 64
2, 4608, Note_on_c, 0, 91, 86
2, 4632, Note_on_c, 0, 93, 92
2, 4643, Note_off_c, 0, 90, 64
2, 4647, Note_off_c, 0, 91, 64
2, 4656, Note_on_c, 0, 91, 84
2, 4671, Note_off_c, 0, 93, 64
2, 4680, Note_on_c, 0, 93, 90
2, 4695, Note_off_c, 0, 91, 64
2, 4704, Note_on_c, 0, 91, 82
2, 4719, Note_off_c, 0, 93, 64
2, 4728, Note_on_c, 0, 93, 88
2, 4743, Note_off_c, 0, 91, 64
2, 4752, Note_on_c, 0, 91, 80
2, 4767, Note_off_c, 0, 93, 64
2, 4776, Note_on_c, 0, 93, 86
2, 4791, Note_off_c, 0, 91, 64
2, 4800, Note_on_c, 0, 91, 78
2, 4815, Note_off_c, 0, 93, 64
2, 4824, Note_on_c, 0, 93, 84
2, 4839, Note_off_c, 0, 91, 64
2, 4848, Note_on_c, 0, 91, 76
2, 4863, Note_off_c, 0, 93, 64
2, 4872, Note_on_c, 0, 93, 82
2, 4887, Note_off_c, 0, 91, 64
2, 4896, Note_on_c, 0, 91, 74
2, 4911, Note_off_c, 0, 93, 64
2, 4920, Note_on_c, 0, 93, 80
2, 4935, Note_off_c, 0, 91, 64
2, 4944, Note_on_c, 0, 91, 72
2, 4959, Note_off_c, 0, 93, 64
2, 4968, Note_on_c, 0, 93, 78
2, 4983, Note_off_c, 0, 91, 64
2, 4992, Note_on_c, 0, 91, 70
2, 5007, Note_off_c, 0, 93, 64
2, 5016, Note_on_c, 0, 93, 76
2, 5031, Note_off_c, 0, 91, 64
2, 5040, Note_on_c, 0, 91, 68
2, 5055, Note_off_c, 0, 93, 64
2, 5064, Note_on_c, 0, 93, 74
2, 5079, Note_off_c, 0, 91, 64
2, 5088, Note_on_c, 0, 91, 66
2, 5103, Note_off_c, 0, 93, 64
2, 5112, Note_on_c, 0, 93, 72
2, 5127, Note_off_c, 0, 91, 64
2, 5136, Note_on_c, 0, 91, 64
2, 5151, Note_off_c, 0, 93, 64
2, 5160, Note_on_c, 0, 93, 70
2, 5175, Note_off_c, 0, 91, 64
2, 5184, Note_on_c, 0, 91, 62
2, 5199, Note_off_c, 0, 93, 64
2, 5208, Note_on_c, 0, 93, 68
2, 5223, Note_off_c, 0, 91, 64
2, 5232, Note_on_c, 0, 91, 60
2, 5247, Note_off_c, 0, 93, 64
2, 5256, Note_on_c, 0, 93, 66
2, 5271, Note_off_c, 0, 91, 64
2, 5280, Note_on_c, 0, 91, 58
2, 5295, Note_off_c, 0, 93, 64
2, 5304, Note_on_c, 0, 93, 64
2, 5319, Note_off_c, 0, 91, 64
2, 5328, Note_on_c, 0, 91, 56
2, 5343, Note_off_c, 0, 93, 64
2, 5352, Note_on_c, 0, 93, 62
2, 5367, Note_off_c, 0, 91, 64
2, 5376, Note_on_c, 0, 91, 48
2, 5391, Note_off_c, 0, 93, 64
2, 5400, Note_on_c, 0, 93, 54
2, 5415, Note_off_c, 0, 91, 64
2, 5424, Note_on_c, 0, 91, 46
2, 5439, Note_off_c, 0, 93, 64
2, 5448, Note_on_c, 0, 93, 52
2, 5463, Note_off_c, 0, 91, 64
2, 5472, Note_on_c, 0, 91, 44
2, 5487, Note_off_c, 0, 93, 64
2, 5496, Note_on_c, 0, 93, 50
2, 5511, Note_off_c, 0, 91, 64
2, 5520, Note_on_c, 0, 91, 42
2, 5535, Note_off_c, 0, 93, 64
2, 5544, Note_on_c, 0, 93, 48
2, 5559, Note_off_c, 0, 91, 64
2, 5568, Note_on_c, 0, 91, 40
2, 5583, Note_off_c, 0, 93, 64
2, 5592, Note_on_c, 0, 93, 46
2, 5607, Note_off_c, 0, 91, 64
2, 5616, Note_on_c, 0, 91, 38
2, 5631, Note_off_c, 0, 93, 64
2, 5640, Note_on_c, 0, 93, 44
2, 5655, Note_off_c, 0, 91, 64
2, 5664, Note_on_c, 0, 91, 36
2, 5679, Note_off_c, 0, 93, 64
2, 5688, Note_on_c, 0, 93, 42
2, 5703, Note_off_c, 0, 91, 64
2, 5712, Note_on_c, 0, 91, 34
2, 5727, Note_off_c, 0, 93, 64
2, 5736, Note_on_c, 0, 93, 40
2, 5751, Note_off_c, 0, 91, 64
2, 5760, Note_on_c, 0, 90, 38
2, 5775, Note_off_c, 0, 93, 64
2, 5808, Note_on_c, 0, 89, 35
2, 5843, Note_off_c, 0, 90, 64
2, 5856, Note_on_c, 0, 88, 35
2, 5891, Note_off_c, 0, 89, 64
2, 5904, Note_on_c, 0, 87, 35
2, 5939, Note_off_c, 0, 88, 64
2, 5952, Note_on_c, 0, 86, 35
2, 5987, Note_off_c, 0, 87, 64
2, 6000, Note_on_c, 0, 85, 35
2, 6035, Note_off_c, 0, 86, 64
2, 6048, Note_on_c, 0, 84, 35
2, 6083, Note_off_c, 0, 85, 64
2, 6096, Note_on_c, 0, 83, 35
2, 6131, Note_off_c, 0, 84, 64
2, 6144, Note_on_c, 0, 82, 38
2, 6179, Note_off_c, 0, 83, 64
2, 6192, Note_on_c, 0, 81, 40
2, 6227, Note_off_c, 0, 82, 64
2, 6240, Note_on_c, 0, 80, 43
2, 6275, Note_off_c, 0, 81, 64
2, 6288, Note_on_c, 0, 79, 51
2, 6308, Note_off_c, 0, 80, 64
2, 6480, Note_on_c, 0, 80, 49
2, 6524, Note_off_c, 0, 79, 64
2, 6672, Note_on_c, 0, 81, 46
2, 6716, Note_off_c, 0, 80, 64
2, 6864, Note_on_c, 0, 76, 46
2, 6908, Note_off_c, 0, 81, 64
2, 7056, Note_off_c, 0, 76, 64
2, 7056, Note_on_c, 0, 79, 49
2, 7248, Note_on_c, 0, 78, 46
2, 7292, Note_off_c, 0, 79, 64
2, 7440, Note_on_c, 0, 77, 43
2, 7484, Note_off_c, 0, 78, 64
2, 7824, Note_off_c, 0, 77, 64
2, 8064, Note_on_c, 0, 77, 68
2, 8112, Note_off_c, 0, 77, 64
2, 8112, Note_on_c, 0, 74, 56
2, 8160, Note_off_c, 0, 74, 64
2, 8160, Note_on_c, 0, 71, 48
2, 8208, Note_off_c, 0, 71, 64
2, 8208, Note_on_c, 0, 67, 57
2, 8256, Note_off_c, 0, 67, 64
2, 8256, Note_on_c, 0, 65, 65
2, 8304, Note_off_c, 0, 65, 64
2, 8304, Note_on_c, 0, 62, 51
2, 8352, Note_off_c, 0, 62, 64
2, 8352, Note_on_c, 0, 59, 55
2, 8400, Note_off_c, 0, 59, 64
2, 8400, Note_on_c, 0, 55, 58
2, 8448, Note_off_c, 0, 55, 64
2, 8448, Note_on_c, 0, 53, 76
2, 8496, Note_off_c, 0, 53, 64
2, 8496, Note_on_c, 0, 50, 65
2, 8544, Note_off_c, 0, 50, 64
2, 8544, Note_on_c, 0, 47, 68
2, 8592, Note_off_c, 0, 47, 64
2, 8592, Note_on_c, 0, 43, 70
2, 8640, Note_off_c, 0, 43, 64
2, 8640, Note_on_c, 0, 41, 81
2, 8672, Note_off_c, 0, 41, 64
2, 8672, Note_on_c, 0, 38, 70
2, 8704, Note_off_c, 0, 38, 64
2, 8704, Note_on_c, 0, 35, 76
2, 8736, Note_off_c, 0, 35, 64
2, 8736, Note_on_c, 0, 31, 89
2, 8768, Note_off_c, 0, 31, 64
2, 8768, Note_on_c, 0, 35, 84
2, 8800, Note_off_c, 0, 35, 64
2, 8800, Note_on_c, 0, 38, 81
2, 8832, Note_off_c, 0, 38, 64
2, 8832, Note_on_c, 0, 43, 95
2, 8864, Note_off_c, 0, 43, 64
2, 8864, Note_on_c, 0, 47, 87
2, 8896, Note_off_c, 0, 47, 64
2, 8896, Note_on_c, 0, 50, 89
2, 8928, Note_off_c, 0, 50, 64
2, 8928, Note_on_c, 0, 55, 98
2, 8960, Note_off_c, 0, 55, 64
2, 8960, Note_on_c, 0, 59, 89
2, 8992, Note_off_c, 0, 59, 64
2, 8992, Note_on_c, 0, 62, 89
2, 9024, Note_off_c, 0, 62, 64
2, 9024, Note_on_c, 0, 67, 100
2, 9056, Note_off_c, 0, 67, 64
2, 9056, Note_on_c, 0, 71, 92
2, 9088, Note_off_c, 0, 71, 64
2, 9088, Note_on_c, 0, 74, 92
2, 9120, Note_off_c, 0, 74, 64
2, 9120, Note_on_c, 0, 77, 108
2, 9248, Note_off_c, 0, 77, 64
2, 9408, Note_on_c, 0, 79, 51
2, 9456, Note_off_c, 0, 79, 64
2, 9456, Note_on_c, 0, 76, 43
2, 9504, Note_off_c, 0, 76, 64
2, 9504, Note_on_c, 0, 72, 49
2, 9552, Note_off_c, 0, 72, 64
2, 9552, Note_on_c, 0, 67, 49
2, 9600, Note_off_c, 0, 67, 64
2, 9600, Note_on_c, 0, 64, 62
2, 9648, Note_off_c, 0, 64, 64
2, 9648, Note_on_c, 0, 60, 49
2, 9696, Note_off_c, 0, 60, 64
2, 9696, Note_on_c, 0, 55, 51
2, 9744, Note_off_c, 0, 55, 64
2, 9744, Note_on_c, 0, 52, 51
2, 9792, Note_off_c, 0, 52, 64
2, 9792, Note_on_c, 0, 55, 68
2, 9840, Note_off_c, 0, 55, 64
2, 9840, Note_on_c, 0, 52, 54
2, 9888, Note_off_c, 0, 52, 64
2, 9888, Note_on_c, 0, 48, 51
2, 9936, Note_off_c, 0, 48, 64
2, 9936, Note_on_c, 0, 43, 51
2, 9984, Note_off_c, 0, 43, 64
2, 9984, Note_on_c, 0, 40, 68
2, 10032, Note_off_c, 0, 40, 64
2, 10032, Note_on_c, 0, 43, 59
2, 10080, Note_off_c, 0, 43, 64
2, 10080, Note_on_c, 0, 48, 59
2, 10128, Note_off_c, 0, 48, 64
2, 10128, Note_on_c, 0, 52, 68
2, 10176, Note_off_c, 0, 52, 64
2, 10176, Note_on_c, 0, 55, 81
2, 10208, Note_off_c, 0, 55, 64
2, 10208, Note_on_c, 0, 60, 73
2, 10240, Note_off_c, 0, 60, 64
2, 10240, Note_on_c, 0, 64, 76
2, 10272, Note_off_c, 0, 64, 64
2, 10272, Note_on_c, 0, 67, 87
2, 10304, Note_off_c, 0, 67, 64
2, 10304, Note_on_c, 0, 72, 73
2, 10336, Note_off_c, 0, 72, 64
2, 10336, Note_on_c, 0, 76, 78
2, 10368, Note_off_c, 0, 76, 64
2, 10368, Note_on_c, 0, 79, 111
2, 10624, Note_off_c, 0, 79, 64
2, 10752, Note_on_c, 0, 79, 87
2, 10848, Note_off_c, 0, 79, 64
2, 10848, Note_on_c, 0, 84, 87
2, 10944, Note_off_c, 0, 84, 64
2, 10944, Note_on_c, 0, 88, 84
2, 11040, Note_off_c, 0, 88, 64
2, 11040, Note_on_c, 0, 91, 114
2, 11424, Note_off_c, 0, 91, 64
2, 11520, Note_on_c, 0, 91, 80
2, 11596, Note_off_c, 0, 91, 64
2, 11596, Note_on_c, 0, 89, 68
2, 11672, Note_off_c, 0, 89, 64
2, 11673, Note_on_c, 0, 88, 63
2, 11749, Note_off_c, 0, 88, 64
2, 11750, Note_on_c, 0, 86, 60
2, 11826, Note_off_c, 0, 86, 64
2, 11827, Note_on_c, 0, 84, 66
2, 11903, Note_off_c, 0, 84, 64
2, 11904, Note_on_c, 0, 88, 76
2, 11968, Note_off_c, 0, 88, 64
2, 11968, Note_on_c, 0, 86, 66
2, 12032, Note_off_c, 0, 86, 64
2, 12032, Note_on_c, 0, 84, 65
2, 12096, Note_off_c, 0, 84, 64
2, 12096, Note_on_c, 0, 83, 76
2, 12160, Note_off_c, 0, 83, 64
2, 12160, Note_on_c, 0, 81, 63
2, 12224, Note_off_c, 0, 81, 64
2, 12224, Note_on_c, 0, 79, 61
2, 12288, Note_off_c, 0, 79, 64
2, 12288, Note_on_c, 0, 84, 80
2, 12364, Note_off_c, 0, 84, 64
2, 12364, Note_on_c, 0, 83, 70
2, 12440, Note_off_c, 0, 83, 64
2, 12441, Note_on_c, 0, 81, 72
2, 12517, Note_off_c, 0, 81, 64
2, 12518, Note_on_c, 0, 79, 70
2, 12594, Note_off_c, 0, 79, 64
2, 12595, Note_on_c, 0, 78, 68
2, 12671, Note_off_c, 0, 78, 64
2, 12672, Note_on_c, 0, 81, 74
2, 12736, Note_on_c, 0, 79, 68
2, 12800, Note_on_c, 0, 78, 65
2, 12803, Note_off_c, 0, 81, 64
2, 12863, Note_off_c, 0, 79, 64
2, 12864, Note_on_c, 0, 81, 81
2, 12928, Note_on_c, 0, 79, 76
2, 12929, Note_off_c, 0, 78, 64
2, 12992, Note_on_c, 0, 78, 76
2, 12995, Note_off_c, 0, 81, 64
2, 13055, Note_off_c, 0, 79, 64
2, 13056, Note_on_c, 0, 81, 95
2, 13120, Note_on_c, 0, 79, 78
2, 13121, Note_off_c, 0, 78, 64
2, 13184, Note_on_c, 0, 78, 81
2, 13187, Note_off_c, 0, 81, 64
2, 13247, Note_off_c, 0, 79, 64
2, 13248, Note_on_c, 0, 81, 100
2, 13312, Note_on_c, 0, 79, 87
2, 13313, Note_off_c, 0, 78, 64
2, 13376, Note_on_c, 0, 78, 87
2, 13379, Note_off_c, 0, 81, 64
2, 13439, Note_off_c, 0, 79, 64
2, 13440, Note_on_c, 0, 81, 100
2, 13504, Note_on_c, 0, 79, 89
2, 13505, Note_off_c, 0, 78, 64
2, 13568, Note_on_c, 0, 78, 87
2, 13571, Note_off_c, 0, 81, 64
2, 13631, Note_off_c, 0, 79, 64
2, 13632, Note_on_c, 0, 79, 95
2, 13667, Note_off_c, 0, 78, 64
2, 13740, Note_off_c, 0, 79, 64
2, 13824, Note_on_c, 0, 84, 73
2, 14208, Note_off_c, 0, 84, 64
2, 14208, Note_on_c, 0, 79, 71
2, 14784, Note_off_c, 0, 79, 64
2, 14784, Note_on_c, 0, 76, 66
2, 14976, Note_off_c, 0, 76, 64
2, 14976, Note_on_c, 0, 77, 70
2, 15012, Note_on_c, 0, 79, 66
2, 15030, Note_off_c, 0, 77, 64
2, 15048, Note_on_c, 0, 77, 70
2, 15072, Note_off_c, 0, 79, 64
2, 15084, Note_on_c, 0, 76, 66
2, 15096, Note_off_c, 0, 77, 64
2, 15120, Note_on_c, 0, 77, 74
2, 15168, Note_off_c, 0, 76, 64
2, 15168, Note_on_c, 0, 79, 73
2, 15198, Note_off_c, 0, 77, 64
2, 15264, Note_off_c, 0, 79, 64
2, 15264, Note_on_c, 0, 81, 67
2, 15360, Note_off_c, 0, 81, 64
2, 15360, Note_on_c, 0, 78, 64
2, 15552, Note_off_c, 0, 78, 64
2, 15552, Note_on_c, 0, 79, 89
2, 15936, Note_off_c, 0, 79, 64
2, 15936, Note_on_c, 0, 76, 71
2, 16128, Note_off_c, 0, 76, 64
2, 16128, Note_on_c, 0, 79, 81
2, 16224, Note_on_c, 0, 77, 68
2, 16288, Note_off_c, 0, 79, 64
2, 16320, Note_off_c, 0, 77, 64
2, 16416, Note_on_c, 0, 76, 71
2, 16500, Note_off_c, 0, 76, 64
2, 16512, Note_on_c, 0, 76, 81
2, 16608, Note_on_c, 0, 74, 68
2, 16688, Note_off_c, 0, 76, 64
2, 16704, Note_off_c, 0, 74, 64
2, 16800, Note_on_c, 0, 72, 70
2, 16878, Note_off_c, 0, 72, 64
2, 16896, Note_on_c, 0, 72, 84
2, 16992, Note_on_c, 0, 71, 69
2, 17056, Note_off_c, 0, 72, 64
2, 17088, Note_off_c, 0, 71, 64
2, 17184, Note_on_c, 0, 69, 63
2, 17262, Note_off_c, 0, 69, 64
2, 17280, Note_on_c, 0, 66, 63
2, 17280, Note_on_c, 0, 69, 67
2, 17472, Note_on_c, 0, 67, 75
2, 17568, Note_off_c, 0, 69, 64
2, 17584, Note_off_c, 0, 66, 64
2, 17838, Note_off_c, 0, 67, 64
2, 17856, Note_on_c, 0, 67, 75
2, 17928, Note_off_c, 0, 67, 64
2, 17952, Note_on_c, 0, 69, 65
2, 18024, Note_off_c, 0, 69, 64
2, 18048, Note_on_c, 0, 71, 68
2, 18120, Note_off_c, 0, 71, 64
2, 18144, Note_on_c, 0, 72, 68
2, 18216, Note_off_c, 0, 72, 64
2, 18240, Note_on_c, 0, 74, 71
2, 18312, Note_off_c, 0, 74, 64
2, 18336, Note_on_c, 0, 76, 75
2, 18400, Note_on_c, 0, 67, 85
2, 18408, Note_off_c, 0, 76, 64
2, 18432, Note_on_c, 0, 77, 103
2, 18512, Note_off_c, 0, 67, 64
2, 18816, Note_on_c, 0, 74, 75
2, 19008, Note_off_c, 0, 77, 64
2, 19392, Note_on_c, 0, 76, 70
2, 19472, Note_off_c, 0, 74, 64
2, 19488, Note_on_c, 0, 77, 85
2, 19536, Note_off_c, 0, 76, 64
2, 19552, Note_on_c, 0, 67, 88
2, 19584, Note_off_c, 0, 77, 64
2, 19584, Note_on_c, 0, 79, 102
2, 19648, Note_off_c, 0, 67, 64
2, 19872, Note_off_c, 0, 79, 64
2, 19872, Note_on_c, 0, 76, 94
2, 19968, Note_off_c, 0, 76, 64
2, 19968, Note_on_c, 0, 84, 98
2, 20544, Note_off_c, 0, 84, 64
2, 20544, Note_on_c, 0, 79, 86
2, 20640, Note_on_c, 0, 76, 78
2, 20704, Note_off_c, 0, 79, 64
2, 20736, Note_on_c, 0, 81, 105
2, 20800, Note_off_c, 0, 76, 64
2, 20832, Note_off_c, 0, 81, 64
2, 20928, Note_on_c, 0, 77, 73
2, 21024, Note_on_c, 0, 74, 76
2, 21056, Note_off_c, 0, 77, 64
2, 21120, Note_on_c, 0, 79, 107
2, 21184, Note_off_c, 0, 74, 64
2, 21216, Note_off_c, 0, 79, 64
2, 21312, Note_on_c, 0, 76, 75
2, 21408, Note_on_c, 0, 72, 71
2, 21472, Note_off_c, 0, 76, 64
2, 21504, Note_on_c, 0, 79, 107
2, 21568, Note_off_c, 0, 72, 64
2, 21600, Note_off_c, 0, 79, 64
2, 21696, Note_on_c, 0, 74, 73
2, 21792, Note_on_c, 0, 71, 78
2, 21856, Note_off_c, 0, 74, 64
2, 21888, Note_on_c, 0, 79, 107
2, 21952, Note_off_c, 0, 71, 64
2, 21984, Note_off_c, 0, 79, 64
2, 22080, Note_on_c, 0, 74, 78
2, 22176, Note_on_c, 0, 71, 79
2, 22240, Note_off_c, 0, 74, 64
2, 22272, Note_off_c, 0, 71, 64
2, 22272, Note_on_c, 0, 71, 96
2, 22272, Note_on_c, 0, 74, 96
2, 22272, Note_on_c, 0, 79, 96
2, 22656, Note_on_c, 0, 72, 69
2, 22752, Note_off_c, 0, 79, 64
2, 22752, Note_off_c, 0, 74, 64
2, 22752, Note_off_c, 0, 71, 64
2, 22784, Note_off_c, 0, 72, 64
2, 23232, Note_on_c, 0, 71, 64
2, 23232, Note_on_c, 0, 74, 70
2, 23232, Note_on_c, 0, 79, 66
2, 23328, Note_off_c, 0, 79, 64
2, 23328, Note_off_c, 0, 74, 64
2, 23328, Note_off_c, 0, 71, 64
2, 23328, Note_on_c, 0, 71, 55
2, 23328, Note_on_c, 0, 74, 68
2, 23328, Note_on_c, 0, 79, 71
2, 23424, Note_off_c, 0, 79, 64
2, 23424, Note_off_c, 0, 74, 64
2, 23424, Note_off_c, 0, 71, 64
2, 23424, Note_on_c, 0, 71, 86
2, 23424, Note_on_c, 0, 74, 86
2, 23424, Note_on_c, 0, 79, 86
2, 23520, Note_off_c, 0, 79, 64
2, 23520, Note_off_c, 0, 74, 64
2, 23520, Note_off_c, 0, 71, 64
2, 23616, Note_on_c, 0, 71, 90
2, 23616, Note_on_c, 0, 79, 90
2, 23616, Note_on_c, 0, 83, 90
2, 23712, Note_off_c, 0, 83, 64
2, 23712, Note_off_c, 0, 79, 64
2, 23712, Note_off_c, 0, 71, 64
2, 23808, Note_on_c, 0, 72, 92
2, 23808, Note_on_c, 0, 79, 92
2, 23808, Note_on_c, 0, 84, 92
2, 23904, Note_off_c, 0, 84, 64
2, 23904, Note_off_c, 0, 79, 64
2, 23904, Note_off_c, 0, 72, 64
2, 24000, Note_on_c, 0, 76, 96
2, 24000, Note_on_c, 0, 79, 96
2, 24000, Note_on_c, 0, 88, 96
2, 24096, Note_off_c, 0, 88, 64
2, 24096, Note_off_c, 0, 79, 64
2, 24096, Note_off_c, 0, 76, 64
2, 24384, Note_on_c, 0, 79, 72
2, 24384, Note_on_c, 0, 86, 72
2, 24384, Note_on_c, 0, 91, 60
2, 24468, Note_off_c, 0, 91, 64
2, 24468, Note_off_c, 0, 86, 64
2, 24468, Note_off_c, 0, 79, 64
2, 24480, Note_on_c, 0, 79, 75
2, 24480, Note_on_c, 0, 86, 77
2, 24480, Note_on_c, 0, 91, 68
2, 24558, Note_off_c, 0, 91, 64
2, 24564, Note_off_c, 0, 86, 64
2, 24564, Note_off_c, 0, 79, 64
2, 24576, Note_on_c, 0, 79, 78
2, 24576, Note_on_c, 0, 86, 76
2, 24576, Note_on_c, 0, 91, 71
2, 24756, Note_off_c, 0, 86, 64
2, 24768, Note_off_c, 0, 91, 64
2, 24768, Note_off_c, 0, 79, 64
2, 24768, Note_on_c, 0, 77, 71
2, 24768, Note_on_c, 0, 86, 70
2, 24768, Note_on_c, 0, 89, 63
2, 24960, Note_off_c, 0, 89, 64
2, 24960, Note_off_c, 0, 86, 64
2, 24960, Note_off_c, 0, 77, 64
2, 24960, Note_on_c, 0, 76, 75
2, 24960, Note_on_c, 0, 84, 76
2, 24960, Note_on_c, 0, 88, 65
2, 25152, Note_off_c, 0, 88, 64
2, 25152, Note_off_c, 0, 84, 64
2, 25152, Note_off_c, 0, 76, 64
2, 25152, Note_on_c, 0, 72, 73
2, 25152, Note_on_c, 0, 76, 79
2, 25152, Note_on_c, 0, 84, 74
2, 25344, Note_off_c, 0, 84, 64
2, 25344, Note_off_c, 0, 76, 64
2, 25344, Note_off_c, 0, 72, 64
2, 25536, Note_on_c, 0, 71, 64
2, 25536, Note_on_c, 0, 74, 66
2, 25536, Note_on_c, 0, 79, 69
2, 25614, Note_off_c, 0, 79, 64
2, 25614, Note_off_c, 0, 74, 64
2, 25614, Note_off_c, 0, 71, 64
2, 25632, Note_on_c, 0, 71, 61
2, 25632, Note_on_c, 0, 74, 61
2, 25632, Note_on_c, 0, 79, 61
2, 25710, Note_off_c, 0, 79, 64
2, 25710, Note_off_c, 0, 71, 64
2, 25716, Note_off_c, 0, 74, 64
2, 25728, Note_on_c, 0, 71, 57
2, 25728, Note_on_c, 0, 74, 57
2, 25728, Note_on_c, 0, 79, 57
2, 25902, Note_off_c, 0, 79, 64
2, 25902, Note_off_c, 0, 71, 64
2, 25920, Note_off_c, 0, 74, 64
2, 25920, Note_on_c, 0, 71, 53
2, 25920, Note_on_c, 0, 79, 53
2, 25920, Note_on_c, 0, 83, 53
2, 26100, Note_off_c, 0, 79, 64
2, 26112, Note_off_c, 0, 83, 64
2, 26112, Note_off_c, 0, 71, 64
2, 26112, Note_on_c, 0, 72, 55
2, 26112, Note_on_c, 0, 79, 55
2, 26112, Note_on_c, 0, 84, 55
2, 26286, Note_off_c, 0, 79, 64
2, 26304, Note_off_c, 0, 84, 64
2, 26304, Note_off_c, 0, 72, 0
2, 26304, Note_on_c, 0, 76, 53
2, 26304, Note_on_c, 0, 79, 53
2, 26304, Note_on_c, 0, 88, 53
2, 26496, Note_off_c, 0, 88, 64
2, 26496, Note_off_c, 0, 79, 64
2, 26496, Note_off_c, 0, 76, 64
2, 26496, Note_on_c, 0, 74, 59
2, 26496, Note_on_c, 0, 78, 59
2, 26496, Note_on_c, 0, 81, 59
2, 26670, Note_off_c, 0, 78, 64
2, 26676, Note_off_c, 0, 74, 64
2, 26688, Note_off_c, 0, 81, 64
2, 26688, Note_on_c, 0, 74, 49
2, 26688, Note_on_c, 0, 78, 49
2, 26688, Note_on_c, 0, 86, 49
2, 26816, Note_off_c, 0, 86, 64
2, 26816, Note_off_c, 0, 78, 64
2, 26816, Note_off_c, 0, 74, 64
2, 26880, Note_on_c, 0, 74, 64
2, 26880, Note_on_c, 0, 79, 64
2, 26880, Note_on_c, 0, 83, 64
2, 27054, Note_off_c, 0, 79, 64
2, 27054, Note_off_c, 0, 74, 64
2, 27072, Note_off_c, 0, 83, 64
2, 27072, Note_on_c, 0, 74, 49
2, 27072, Note_on_c, 0, 79, 49
2, 27072, Note_on_c, 0, 86, 49
2, 27200, Note_off_c, 0, 86, 64
2, 27200, Note_off_c, 0, 79, 64
2, 27200, Note_off_c, 0, 74, 64
2, 27264, Note_on_c, 0, 72, 59
2, 27264, Note_on_c, 0, 76, 59
2, 27264, Note_on_c, 0, 79, 59
2, 27438, Note_off_c, 0, 76, 64
2, 27444, Note_off_c, 0, 72, 64
2, 27456, Note_off_c, 0, 79, 64
2, 27456, Note_on_c, 0, 72, 49
2, 27456, Note_on_c, 0, 76, 49
2, 27456, Note_on_c, 0, 84, 49
2, 27584, Note_off_c, 0, 84, 64
2, 27584, Note_off_c, 0, 76, 64
2, 27584, Note_off_c, 0, 72, 64
2, 27648, Note_on_c, 0, 72, 59
2, 27648, Note_on_c, 0, 77, 59
2, 27648, Note_on_c, 0, 81, 59
2, 27776, Note_off_c, 0, 81, 64
2, 27776, Note_off_c, 0, 77, 64
2, 27776, Note_off_c, 0, 72, 64
2, 27840, Note_on_c, 0, 72, 57
2, 27840, Note_on_c, 0, 77, 57
2, 27840, Note_on_c, 0, 84, 57
2, 27968, Note_off_c, 0, 84, 64
2, 27968, Note_off_c, 0, 77, 64
2, 27968, Note_off_c, 0, 72, 64
2, 28032, Note_on_c, 0, 71, 61
2, 28032, Note_on_c, 0, 75, 61
2, 28032, Note_on_c, 0, 78, 61
2, 28160, Note_off_c, 0, 78, 64
2, 28160, Note_off_c, 0, 75, 64
2, 28160, Note_off_c, 0, 71, 64
2, 28224, Note_on_c, 0, 71, 64
2, 28224, Note_on_c, 0, 75, 64
2, 28224, Note_on_c, 0, 83, 64
2, 28352, Note_off_c, 0, 83, 64
2, 28352, Note_off_c, 0, 75, 64
2, 28352, Note_off_c, 0, 71, 64
2, 28416, Note_on_c, 0, 71, 57
2, 28416, Note_on_c, 0, 76, 57
2, 28416, Note_on_c, 0, 79, 57
2, 28544, Note_off_c, 0, 79, 64
2, 28544, Note_off_c, 0, 76, 64
2, 28544, Note_off_c, 0, 71, 64
2, 28608, Note_on_c, 0, 71, 61
2, 28608, Note_on_c, 0, 76, 61
2, 28608, Note_on_c, 0, 83, 61
2, 28736, Note_off_c, 0, 83, 64
2, 28736, Note_off_c, 0, 76, 64
2, 28736, Note_off_c, 0, 71, 64
2, 28800, Note_on_c, 0, 69, 55
2, 28800, Note_on_c, 0, 73, 55
2, 28800, Note_on_c, 0, 76, 55
2, 28992, Note_off_c, 0, 76, 64
2, 28992, Note_off_c, 0, 73, 64
2, 28992, Note_off_c, 0, 69, 64
2, 28992, Note_on_c, 0, 69, 51
2, 28992, Note_on_c, 0, 73, 51
2, 28992, Note_on_c, 0, 81, 51
2, 29184, Note_off_c, 0, 81, 64
2, 29184, Note_off_c, 0, 73, 64
2, 29184, Note_off_c, 0, 69, 64
2, 29184, Note_on_c, 0, 69, 51
2, 29184, Note_on_c, 0, 74, 51
2, 29184, Note_on_c, 0, 77, 51
2, 29376, Note_off_c, 0, 77, 64
2, 29376, Note_off_c, 0, 74, 64
2, 29376, Note_off_c, 0, 69, 64
2, 29376, Note_on_c, 0, 69, 51
2, 29376, Note_on_c, 0, 74, 51
2, 29376, Note_on_c, 0, 81, 51
2, 29568, Note_off_c, 0, 81, 64
2, 29568, Note_off_c, 0, 74, 64
2, 29568, Note_off_c, 0, 69, 64
2, 29568, Note_on_c, 0, 67, 51
2, 29568, Note_on_c, 0, 71, 51
2, 29568, Note_on_c, 0, 74, 51
2, 29760, Note_off_c, 0, 74, 64
2, 29760, Note_off_c, 0, 71, 64
2, 29760, Note_off_c, 0, 67, 64
2, 29760, Note_on_c, 0, 71, 51
2, 29760, Note_on_c, 0, 74, 51
2, 29760, Note_on_c, 0, 79, 51
2, 29952, Note_off_c, 0, 79, 64
2, 29952, Note_off_c, 0, 74, 64
2, 29952, Note_off_c, 0, 71, 64
2, 29952, Note_on_c, 0, 72, 64
2, 29952, Note_on_c, 0, 76, 64
2, 29952, Note_on_c, 0, 79, 64
2, 30144, Note_off_c, 0, 79, 64
2, 30144, Note_on_c, 0, 84, 68
2, 30336, Note_off_c, 0, 84, 64
2, 30336, Note_off_c, 0, 76, 64
2, 30336, Note_off_c, 0, 72, 64
2, 30336, Note_on_c, 0, 79, 72
2, 30912, Note_off_c, 0, 79, 64
2, 30912, Note_on_c, 0, 76, 75
2, 31104, Note_off_c, 0, 76, 64
2, 31104, Note_on_c, 0, 77, 78
2, 31140, Note_on_c, 0, 79, 74
2, 31158, Note_off_c, 0, 77, 64
2, 31176, Note_on_c, 0, 77, 78
2, 31200, Note_off_c, 0, 79, 64
2, 31212, Note_on_c, 0, 76, 74
2, 31224, Note_off_c, 0, 77, 64
2, 31248, Note_on_c, 0, 77, 82
2, 31296, Note_off_c, 0, 76, 64
2, 31296, Note_on_c, 0, 79, 81
2, 31326, Note_off_c, 0, 77, 64
2, 31392, Note_off_c, 0, 79, 64
2, 31392, Note_on_c, 0, 81, 75
2, 31488, Note_off_c, 0, 81, 64
2, 31488, Note_on_c, 0, 78, 72
2, 31680, Note_off_c, 0, 78, 64
2, 31680, Note_on_c, 0, 79, 97
2, 32064, Note_off_c, 0, 79, 64
2, 32064, Note_on_c, 0, 76, 79
2, 32256, Note_off_c, 0, 76, 64
2, 32256, Note_on_c, 0, 79, 89
2, 32352, Note_on_c, 0, 77, 76
2, 32416, Note_off_c, 0, 79, 64
2, 32448, Note_off_c, 0, 77, 64
2, 32544, Note_on_c, 0, 76, 79
2, 32628, Note_off_c, 0, 76, 64
2, 32640, Note_on_c, 0, 76, 89
2, 32736, Note_on_c, 0, 74, 76
2, 32816, Note_off_c, 0, 76, 64
2, 32832, Note_off_c, 0, 74, 64
2, 32928, Note_on_c, 0, 72, 78
2, 33006, Note_off_c, 0, 72, 64
2, 33024, Note_on_c, 0, 72, 92
2, 33120, Note_on_c, 0, 71, 77
2, 33184, Note_off_c, 0, 72, 64
2, 33216, Note_off_c, 0, 71, 64
2, 33312, Note_on_c, 0, 69, 71
2, 33390, Note_off_c, 0, 69, 64
2, 33408, Note_on_c, 0, 66, 71
2, 33408, Note_on_c, 0, 69, 75
2, 33600, Note_on_c, 0, 67, 83
2, 33696, Note_off_c, 0, 69, 64
2, 33712, Note_off_c, 0, 66, 64
2, 33966, Note_off_c, 0, 67, 64
2, 33984, Note_on_c, 0, 67, 83
2, 34056, Note_off_c, 0, 67, 64
2, 34080, Note_on_c, 0, 69, 73
2, 34152, Note_off_c, 0, 69, 64
2, 34176, Note_on_c, 0, 71, 76
2, 34248, Note_off_c, 0, 71, 64
2, 34272, Note_on_c, 0, 72, 76
2, 34344, Note_off_c, 0, 72, 64
2, 34368, Note_on_c, 0, 74, 79
2, 34440, Note_off_c, 0, 74, 64
2, 34464, Note_on_c, 0, 76, 83
2, 34528, Note_on_c, 0, 67, 81
2, 34536, Note_off_c, 0, 76, 64
2, 34560, Note_on_c, 0, 77, 111
2, 34624, Note_off_c, 0, 67, 64
2, 34944, Note_on_c, 0, 74, 83
2, 35136, Note_off_c, 0, 77, 64
2, 35520, Note_on_c, 0, 76, 78
2, 35600, Note_off_c, 0, 74, 64
2, 35616, Note_on_c, 0, 77, 93
2, 35664, Note_off_c, 0, 76, 64
2, 35680, Note_on_c, 0, 67, 96
2, 35712, Note_off_c, 0, 77, 64
2, 35712, Note_on_c, 0, 79, 105
2, 35776, Note_off_c, 0, 67, 64
2, 36000, Note_off_c, 0, 79, 64
2, 36000, Note_on_c, 0, 76, 107
2, 36096, Note_off_c, 0, 76, 64
2, 36096, Note_on_c, 0, 84, 115
2, 36576, Note_off_c, 0, 84, 64
2, 36576, Note_on_c, 0, 83, 72
2, 36672, Note_on_c, 0, 88, 72
2, 36704, Note_off_c, 0, 83, 64
2, 36768, Note_on_c, 0, 86, 72
2, 36800, Note_off_c, 0, 88, 64
2, 36864, Note_on_c, 0, 84, 78
2, 36896, Note_off_c, 0, 86, 64
2, 36960, Note_on_c, 0, 83, 80
2, 36992, Note_off_c, 0, 84, 64
2, 37056, Note_on_c, 0, 88, 72
2, 37088, Note_off_c, 0, 83, 64
2, 37152, Note_on_c, 0, 86, 64
2, 37184, Note_off_c, 0, 88, 64
2, 37248, Note_on_c, 0, 84, 73
2, 37280, Note_off_c, 0, 86, 64
2, 37344, Note_on_c, 0, 83, 71
2, 37376, Note_off_c, 0, 84, 64
2, 37440, Note_on_c, 0, 88, 75
2, 37472, Note_off_c, 0, 83, 64
2, 37536, Note_on_c, 0, 86, 72
2, 37568, Note_off_c, 0, 88, 64
2, 37632, Note_on_c, 0, 84, 74
2, 37664, Note_off_c, 0, 86, 64
2, 37728, Note_on_c, 0, 83, 78
2, 37760, Note_off_c, 0, 84, 64
2, 37824, Note_on_c, 0, 86, 76
2, 37856, Note_off_c, 0, 83, 64
2, 37920, Note_on_c, 0, 83, 82
2, 37952, Note_off_c, 0, 86, 64
2, 38016, Note_on_c, 0, 84, 84
2, 38048, Note_off_c, 0, 83, 64
2, 38112, Note_off_c, 0, 84, 64
2, 38112, Note_on_c, 0, 83, 84
2, 38208, Note_on_c, 0, 88, 84
2, 38272, Note_off_c, 0, 83, 64
2, 38304, Note_off_c, 0, 88, 64
2, 38304, Note_on_c, 0, 86, 84
2, 38400, Note_on_c, 0, 84, 88
2, 38432, Note_off_c, 0, 86, 64
2, 38496, Note_off_c, 0, 84, 64
2, 38496, Note_on_c, 0, 83, 90
2, 38592, Note_on_c, 0, 88, 90
2, 38656, Note_off_c, 0, 83, 64
2, 38688, Note_off_c, 0, 88, 64
2, 38688, Note_on_c, 0, 86, 90
2, 38784, Note_on_c, 0, 84, 90
2, 38848, Note_off_c, 0, 86, 64
2, 38880, Note_off_c, 0, 84, 64
2, 38880, Note_on_c, 0, 83, 90
2, 38976, Note_on_c, 0, 84, 98
2, 39008, Note_off_c, 0, 83, 64
2, 39072, Note_off_c, 0, 84, 64
2, 39072, Note_on_c, 0, 82, 105
2, 39168, Note_on_c, 0, 81, 113
2, 39264, Note_off_c, 0, 82, 64
2, 39296, Note_off_c, 0, 81, 64
2, 39360, Note_on_c, 0, 77, 94
2, 39456, Note_on_c, 0, 74, 90
2, 39520, Note_off_c, 0, 77, 64
2, 39552, Note_on_c, 0, 79, 102
2, 39648, Note_off_c, 0, 79, 64
2, 39648, Note_off_c, 0, 74, 64
2, 39744, Note_on_c, 0, 76, 90
2, 39840, Note_on_c, 0, 72, 86
2, 39904, Note_off_c, 0, 76, 64
2, 39936, Note_on_c, 0, 79, 102
2, 40000, Note_off_c, 0, 72, 64
2, 40032, Note_off_c, 0, 79, 64
2, 40128, Note_on_c, 0, 74, 88
2, 40224, Note_on_c, 0, 71, 86
2, 40288, Note_off_c, 0, 74, 64
2, 40320, Note_on_c, 0, 79, 102
2, 40384, Note_off_c, 0, 71, 64
2, 40416, Note_off_c, 0, 79, 64
2, 40512, Note_on_c, 0, 74, 90
2, 40608, Note_off_c, 0, 74, 64
2, 40608, Note_on_c, 0, 71, 88
2, 40704, Note_off_c, 0, 71, 64
2, 40704, Note_on_c, 0, 71, 98
2, 40704, Note_on_c, 0, 74, 98
2, 40704, Note_on_c, 0, 79, 98
2, 41088, Note_on_c, 0, 72, 77
2, 41184, Note_off_c, 0, 79, 64
2, 41184, Note_off_c, 0, 74, 64
2, 41184, Note_off_c, 0, 71, 64
2, 41280, Note_off_c, 0, 72, 64
2, 41664, Note_on_c, 0, 64, 94
2, 41664, Note_on_c, 0, 76, 94
2, 42048, Note_off_c, 0, 76, 64
2, 42048, Note_off_c, 0, 64, 64
2, 42048, Note_on_c, 0, 62, 70
2, 42048, Note_on_c, 0, 74, 75
2, 42144, Note_off_c, 0, 74, 64
2, 42240, Note_off_c, 0, 62, 64
2, 42240, Note_on_c, 0, 64, 75
2, 42240, Note_on_c, 0, 76, 80
2, 42336, Note_off_c, 0, 76, 64
2, 42336, Note_off_c, 0, 64, 64
2, 42432, Note_on_c, 0, 65, 70
2, 42432, Note_on_c, 0, 77, 75
2, 42528, Note_off_c, 0, 77, 64
2, 42528, Note_off_c, 0, 65, 64
2, 42624, Note_on_c, 0, 67, 79
2, 42624, Note_on_c, 0, 79, 84
2, 42720, Note_off_c, 0, 79, 64
2, 42720, Note_off_c, 0, 67, 64
2, 42816, Note_on_c, 0, 69, 70
2, 42816, Note_on_c, 0, 81, 75
2, 42912, Note_off_c, 0, 81, 64
2, 42912, Note_off_c, 0, 69, 64
2, 43008, Note_on_c, 0, 71, 73
2, 43008, Note_on_c, 0, 83, 78
2, 43104, Note_off_c, 0, 83, 64
2, 43104, Note_off_c, 0, 71, 64
2, 43200, Note_on_c, 0, 72, 68
2, 43200, Note_on_c, 0, 84, 73
2, 43296, Note_off_c, 0, 84, 64
2, 43296, Note_off_c, 0, 72, 64
2, 43392, Note_on_c, 0, 74, 73
2, 43392, Note_on_c, 0, 86, 78
2, 43488, Note_off_c, 0, 86, 64
2, 43488, Note_off_c, 0, 74, 64
2, 43584, Note_on_c, 0, 76, 62
2, 43584, Note_on_c, 0, 88, 67
2, 43680, Note_off_c, 0, 88, 64
2, 43680, Note_off_c, 0, 76, 64
2, 43776, Note_on_c, 0, 77, 70
2, 43776, Note_on_c, 0, 89, 75
2, 43968, Note_off_c, 0, 89, 64
2, 43968, Note_off_c, 0, 77, 64
2, 43968, Note_on_c, 0, 79, 62
2, 43968, Note_on_c, 0, 91, 67
2, 44160, Note_off_c, 0, 91, 64
2, 44160, Note_off_c, 0, 79, 64
2, 44160, Note_on_c, 0, 81, 62
2, 44160, Note_on_c, 0, 93, 67
2, 44352, Note_off_c, 0, 93, 64
2, 44352, Note_off_c, 0, 81, 64
2, 44352, Note_on_c, 0, 71, 62
2, 44352, Note_on_c, 0, 83, 67
2, 44544, Note_off_c, 0, 83, 64
2, 44544, Note_off_c, 0, 71, 64
2, 44544, Note_on_c, 0, 72, 62
2, 44544, Note_on_c, 0, 84, 67
2, 44736, Note_off_c, 0, 84, 64
2, 44736, Note_off_c, 0, 72, 64
2, 44736, Note_on_c, 0, 74, 62
2, 44736, Note_on_c, 0, 86, 67
2, 44928, Note_off_c, 0, 86, 64
2, 44928, Note_off_c, 0, 74, 64
2, 44928, Note_on_c, 0, 76, 70
2, 44928, Note_on_c, 0, 88, 75
2, 45120, Note_off_c, 0, 88, 64
2, 45120, Note_off_c, 0, 76, 64
2, 45120, Note_on_c, 0, 72, 62
2, 45120, Note_on_c, 0, 84, 67
2, 45312, Note_off_c, 0, 84, 64
2, 45312, Note_off_c, 0, 72, 64
2, 45312, Note_on_c, 0, 76, 62
2, 45312, Note_on_c, 0, 88, 67
2, 45504, Note_off_c, 0, 88, 64
2, 45504, Note_off_c, 0, 76, 64
2, 45504, Note_on_c, 0, 78, 62
2, 45504, Note_on_c, 0, 90, 67
2, 45696, Note_off_c, 0, 90, 64
2, 45696, Note_off_c, 0, 78, 64
2, 45696, Note_on_c, 0, 79, 62
2, 45696, Note_on_c, 0, 91, 67
2, 45888, Note_off_c, 0, 91, 64
2, 45888, Note_off_c, 0, 79, 64
2, 45888, Note_on_c, 0, 77, 62
2, 45888, Note_on_c, 0, 89, 67
2, 46080, Note_off_c, 0, 89, 64
2, 46080, Note_off_c, 0, 77, 64
2, 46080, Note_on_c, 0, 76, 86
2, 46080, Note_on_c, 0, 88, 86
2, 46272, Note_off_c, 0, 88, 64
2, 46272, Note_off_c, 0, 76, 64
2, 46272, Note_on_c, 0, 64, 82
2, 46272, Note_on_c, 0, 76, 82
2, 46590, Control_c, 0, 64, 0
2, 46656, Note_off_c, 0, 76, 64
2, 46656, Note_off_c, 0, 64, 64
2, 46656, Note_on_c, 0, 74, 67
2, 46752, Note_off_c, 0, 74, 64
2, 46848, Note_on_c, 0, 64, 62
2, 46848, Note_on_c, 0, 76, 67
2, 46944, Note_off_c, 0, 76, 64
2, 46944, Note_off_c, 0, 64, 64
2, 47040, Note_on_c, 0, 65, 62
2, 47040, Note_on_c, 0, 77, 67
2, 47136, Note_off_c, 0, 77, 64
2, 47136, Note_off_c, 0, 65, 64
2, 47232, Note_on_c, 0, 67, 78
2, 47232, Note_on_c, 0, 79, 78
2, 47424, Note_off_c, 0, 79, 64
2, 47424, Note_off_c, 0, 67, 64
2, 47424, Note_on_c, 0, 69, 68
2, 47424, Note_on_c, 0, 81, 68
2, 47616, Note_off_c, 0, 81, 64
2, 47616, Note_off_c, 0, 69, 64
2, 47616, Note_on_c, 0, 71, 62
2, 47616, Note_on_c, 0, 83, 67
2, 47808, Note_off_c, 0, 83, 64
2, 47808, Note_off_c, 0, 71, 64
2, 47808, Note_on_c, 0, 72, 62
2, 47808, Note_on_c, 0, 84, 67
2, 48000, Note_off_c, 0, 84, 64
2, 48000, Note_off_c, 0, 72, 64
2, 48000, Note_on_c, 0, 74, 62
2, 48000, Note_on_c, 0, 86, 67
2, 48192, Note_off_c, 0, 86, 64
2, 48192, Note_off_c, 0, 74, 64
2, 48192, Note_on_c, 0, 76, 62
2, 48192, Note_on_c, 0, 88, 67
2, 48384, Note_off_c, 0, 88, 64
2, 48384, Note_off_c, 0, 76, 64
2, 48384, Note_on_c, 0, 77, 80
2, 48384, Note_on_c, 0, 89, 80
2, 48576, Note_off_c, 0, 89, 64
2, 48576, Note_off_c, 0, 77, 64
2, 48576, Note_on_c, 0, 79, 62
2, 48576, Note_on_c, 0, 91, 67
2, 48768, Note_off_c, 0, 91, 64
2, 48768, Note_off_c, 0, 79, 64
2, 48768, Note_on_c, 0, 81, 62
2, 48768, Note_on_c, 0, 93, 67
2, 48960, Note_off_c, 0, 93, 0
2, 48960, Note_off_c, 0, 81, 64
2, 48960, Note_on_c, 0, 71, 62
2, 48960, Note_on_c, 0, 83, 67
2, 49152, Note_off_c, 0, 83, 64
2, 49152, Note_off_c, 0, 71, 64
2, 49152, Note_on_c, 0, 72, 62
2, 49152, Note_on_c, 0, 84, 67
2, 49344, Note_off_c, 0, 84, 64
2, 49344, Note_off_c, 0, 72, 64
2, 49344, Note_on_c, 0, 73, 62
2, 49344, Note_on_c, 0, 85, 67
2, 49536, Note_off_c, 0, 85, 64
2, 49536, Note_off_c, 0, 73, 64
2, 49536, Note_on_c, 0, 74, 80
2, 49536, Note_on_c, 0, 86, 80
2, 49728, Note_off_c, 0, 86, 64
2, 49728, Note_off_c, 0, 74, 64
2, 49728, Note_on_c, 0, 76, 62
2, 49728, Note_on_c, 0, 88, 67
2, 49920, Note_off_c, 0, 88, 64
2, 49920, Note_off_c, 0, 76, 64
2, 49920, Note_on_c, 0, 77, 62
2, 49920, Note_on_c, 0, 89, 67
2, 50112, Note_off_c, 0, 89, 64
2, 50112, Note_off_c, 0, 77, 64
2, 50112, Note_on_c, 0, 71, 62
2, 50112, Note_on_c, 0, 83, 67
2, 50304, Note_off_c, 0, 83, 64
2, 50304, Note_off_c, 0, 71, 64
2, 50304, Note_on_c, 0, 72, 62
2, 50304, Note_on_c, 0, 84, 67
2, 50496, Note_off_c, 0, 84, 64
2, 50496, Note_off_c, 0, 72, 64
2, 50496, Note_on_c, 0, 74, 65
2, 50496, Note_on_c, 0, 86, 65
2, 50688, Note_off_c, 0, 86, 64
2, 50688, Note_off_c, 0, 74, 64
2, 50688, Note_on_c, 0, 76, 76
2, 50688, Note_on_c, 0, 88, 76
2, 50880, Note_off_c, 0, 88, 64
2, 50880, Note_off_c, 0, 76, 64
2, 50880, Note_on_c, 0, 88, 74
2, 51264, Note_off_c, 0, 88, 64
2, 51264, Note_on_c, 0, 83, 67
2, 51360, Note_off_c, 0, 83, 64
2, 51360, Note_on_c, 0, 88, 67
2, 51456, Note_off_c, 0, 88, 64
2, 51456, Note_on_c, 0, 84, 67
2, 51552, Note_off_c, 0, 84, 64
2, 51552, Note_on_c, 0, 83, 73
2, 51648, Note_off_c, 0, 83, 64
2, 51648, Note_on_c, 0, 51, 66
2, 51648, Note_on_c, 0, 84, 71
2, 51744, Note_off_c, 0, 84, 64
2, 51744, Note_off_c, 0, 51, 64
2, 51744, Note_on_c, 0, 81, 67
2, 51840, Note_off_c, 0, 81, 64
2, 52032, Note_on_c, 0, 76, 88
2, 52416, Note_off_c, 0, 76, 64
2, 52416, Note_on_c, 0, 71, 67
2, 52512, Note_off_c, 0, 71, 64
2, 52512, Note_on_c, 0, 76, 67
2, 52608, Note_off_c, 0, 76, 64
2, 52608, Note_on_c, 0, 72, 67
2, 52704, Note_off_c, 0, 72, 64
2, 52704, Note_on_c, 0, 71, 67
2, 52800, Note_off_c, 0, 71, 64
2, 52800, Note_on_c, 0, 72, 67
2, 52896, Note_off_c, 0, 72, 64
2, 52896, Note_on_c, 0, 69, 67
2, 52992, Note_off_c, 0, 69, 64
2, 53184, Note_on_c, 0, 88, 84
2, 53568, Note_off_c, 0, 88, 64
2, 53568, Note_on_c, 0, 83, 67
2, 53664, Note_off_c, 0, 83, 64
2, 53664, Note_on_c, 0, 88, 67
2, 53760, Note_off_c, 0, 88, 64
2, 53760, Note_on_c, 0, 80, 78
2, 53856, Note_off_c, 0, 80, 64
2, 53856, Note_on_c, 0, 83, 67
2, 53952, Note_off_c, 0, 83, 64
2, 53952, Note_on_c, 0, 76, 67
2, 54048, Note_off_c, 0, 76, 64
2, 54048, Note_on_c, 0, 79, 67
2, 54144, Note_off_c, 0, 79, 64
2, 54144, Note_on_c, 0, 71, 76
2, 54240, Note_off_c, 0, 71, 64
2, 54240, Note_on_c, 0, 76, 67
2, 54336, Note_off_c, 0, 76, 64
2, 54336, Note_on_c, 0, 68, 66
2, 54432, Note_off_c, 0, 68, 64
2, 54432, Note_on_c, 0, 71, 66
2, 54528, Note_off_c, 0, 71, 64
2, 54528, Note_on_c, 0, 64, 70
2, 54624, Note_off_c, 0, 64, 64
2, 54624, Note_on_c, 0, 68, 65
2, 54720, Note_off_c, 0, 68, 64
2, 54720, Note_on_c, 0, 71, 64
2, 54816, Note_off_c, 0, 71, 64
2, 54816, Note_on_c, 0, 75, 64
2, 54912, Note_off_c, 0, 75, 64
2, 54912, Note_on_c, 0, 76, 72
2, 55008, Note_off_c, 0, 76, 64
2, 55008, Note_on_c, 0, 64, 58
2, 55104, Note_off_c, 0, 64, 64
2, 55104, Note_on_c, 0, 68, 62
2, 55200, Note_off_c, 0, 68, 64
2, 55200, Note_on_c, 0, 71, 62
2, 55296, Note_off_c, 0, 71, 64
2, 55296, Note_on_c, 0, 75, 72
2, 55392, Note_off_c, 0, 75, 64
2, 55392, Note_on_c, 0, 76, 60
2, 55488, Note_off_c, 0, 76, 64
2, 55488, Note_on_c, 0, 64, 55
2, 55584, Note_off_c, 0, 64, 64
2, 55584, Note_on_c, 0, 68, 59
2, 55680, Note_off_c, 0, 68, 64
2, 55680, Note_on_c, 0, 71, 68
2, 55776, Note_off_c, 0, 71, 64
2, 55776, Note_on_c, 0, 75, 58
2, 55872, Note_off_c, 0, 75, 64
2, 55872, Note_on_c, 0, 76, 58
2, 55968, Note_off_c, 0, 76, 64
2, 55968, Note_on_c, 0, 64, 52
2, 56064, Note_off_c, 0, 64, 64
2, 56064, Note_on_c, 0, 68, 66
2, 56160, Note_off_c, 0, 68, 64
2, 56160, Note_on_c, 0, 71, 56
2, 56256, Note_off_c, 0, 71, 64
2, 56256, Note_on_c, 0, 75, 56
2, 56352, Note_off_c, 0, 75, 64
2, 56352, Note_on_c, 0, 76, 55
2, 56448, Note_off_c, 0, 76, 64
2, 56448, Note_on_c, 0, 64, 64
2, 56544, Note_off_c, 0, 64, 64
2, 56544, Note_on_c, 0, 75, 56
2, 56640, Note_off_c, 0, 75, 64
2, 56640, Note_on_c, 0, 76, 56
2, 56736, Note_off_c, 0, 76, 64
2, 56736, Note_on_c, 0, 64, 51
2, 56832, Note_off_c, 0, 64, 64
2, 56832, Note_on_c, 0, 75, 61
2, 56928, Note_off_c, 0, 75, 64
2, 56928, Note_on_c, 0, 76, 56
2, 57024, Note_off_c, 0, 76, 64
2, 57024, Note_on_c, 0, 64, 51
2, 57120, Note_off_c, 0, 64, 64
2, 57120, Note_on_c, 0, 75, 56
2, 57216, Note_off_c, 0, 75, 64
2, 57216, Note_on_c, 0, 76, 66
2, 57312, Note_off_c, 0, 76, 64
2, 57312, Note_on_c, 0, 64, 51
2, 57408, Note_off_c, 0, 64, 64
2, 57408, Note_on_c, 0, 75, 56
2, 57504, Note_off_c, 0, 75, 64
2, 57504, Note_on_c, 0, 76, 56
2, 57600, Note_off_c, 0, 76, 64
2, 57600, Note_on_c, 0, 76, 80
2, 57600, Note_on_c, 0, 88, 80
2, 57792, Note_off_c, 0, 88, 64
2, 57792, Note_off_c, 0, 76, 64
2, 57792, Note_on_c, 0, 64, 80
2, 57792, Note_on_c, 0, 76, 80
2, 58176, Note_off_c, 0, 76, 64
2, 58176, Note_off_c, 0, 64, 64
2, 58176, Note_on_c, 0, 62, 51
2, 58176, Note_on_c, 0, 74, 56
2, 58272, Note_off_c, 0, 74, 64
2, 58272, Note_off_c, 0, 62, 64
2, 58368, Note_on_c, 0, 64, 51
2, 58368, Note_on_c, 0, 76, 56
2, 58464, Note_off_c, 0, 76, 64
2, 58464, Note_off_c, 0, 64, 64
2, 58560, Note_on_c, 0, 65, 51
2, 58560, Note_on_c, 0, 77, 56
2, 58656, Note_off_c, 0, 77, 64
2, 58656, Note_off_c, 0, 65, 64
2, 58752, Note_on_c, 0, 67, 72
2, 58752, Note_on_c, 0, 79, 72
2, 58848, Note_off_c, 0, 79, 64
2, 58848, Note_off_c, 0, 67, 64
2, 58944, Note_on_c, 0, 69, 51
2, 58944, Note_on_c, 0, 81, 56
2, 59040, Note_off_c, 0, 81, 64
2, 59040, Note_off_c, 0, 69, 64
2, 59136, Note_on_c, 0, 71, 51
2, 59136, Note_on_c, 0, 83, 56
2, 59232, Note_off_c, 0, 83, 64
2, 59232, Note_off_c, 0, 71, 64
2, 59328, Note_on_c, 0, 72, 51
2, 59328, Note_on_c, 0, 84, 56
2, 59424, Note_off_c, 0, 84, 0
2, 59424, Note_off_c, 0, 72, 0
2, 59520, Note_on_c, 0, 74, 51
2, 59520, Note_on_c, 0, 86, 56
2, 59616, Note_off_c, 0, 86, 64
2, 59616, Note_off_c, 0, 74, 0
2, 59712, Note_on_c, 0, 76, 51
2, 59712, Note_on_c, 0, 88, 56
2, 59808, Note_off_c, 0, 88, 64
2, 59808, Note_off_c, 0, 76, 64
2, 59904, Note_on_c, 0, 77, 68
2, 59904, Note_on_c, 0, 89, 68
2, 60000, Note_off_c, 0, 89, 64
2, 60000, Note_off_c, 0, 77, 64
2, 60096, Note_on_c, 0, 79, 53
2, 60096, Note_on_c, 0, 91, 58
2, 60192, Note_off_c, 0, 91, 64
2, 60192, Note_off_c, 0, 79, 64
2, 60288, Note_on_c, 0, 81, 57
2, 60288, Note_on_c, 0, 93, 62
2, 60384, Note_off_c, 0, 93, 64
2, 60384, Note_off_c, 0, 81, 64
2, 60480, Note_on_c, 0, 71, 61
2, 60480, Note_on_c, 0, 83, 66
2, 60576, Note_off_c, 0, 83, 64
2, 60576, Note_off_c, 0, 71, 64
2, 60672, Note_on_c, 0, 72, 65
2, 60672, Note_on_c, 0, 84, 70
2, 60768, Note_off_c, 0, 84, 64
2, 60768, Note_off_c, 0, 72, 64
2, 60864, Note_on_c, 0, 73, 68
2, 60864, Note_on_c, 0, 85, 73
2, 60960, Note_off_c, 0, 85, 64
2, 60960, Note_off_c, 0, 73, 64
2, 61056, Note_on_c, 0, 74, 88
2, 61056, Note_on_c, 0, 86, 88
2, 61248, Note_off_c, 0, 86, 64
2, 61248, Note_off_c, 0, 74, 64
2, 61248, Note_on_c, 0, 75, 76
2, 61248, Note_on_c, 0, 87, 81
2, 61440, Note_off_c, 0, 87, 64
2, 61440, Note_off_c, 0, 75, 64
2, 61440, Note_on_c, 0, 76, 80
2, 61440, Note_on_c, 0, 88, 85
2, 61632, Note_off_c, 0, 88, 64
2, 61632, Note_off_c, 0, 76, 64
2, 61632, Note_on_c, 0, 77, 83
2, 61632, Note_on_c, 0, 89, 88
2, 61824, Note_off_c, 0, 89, 64
2, 61824, Note_off_c, 0, 77, 64
2, 61824, Note_on_c, 0, 78, 87
2, 61824, Note_on_c, 0, 90, 92
2, 62016, Note_off_c, 0, 90, 64
2, 62016, Note_off_c, 0, 78, 64
2, 62016, Note_on_c, 0, 79, 91
2, 62016, Note_on_c, 0, 91, 96
2, 62208, Note_off_c, 0, 91, 64
2, 62208, Note_off_c, 0, 79, 64
2, 62208, Note_on_c, 0, 79, 113
2, 62208, Note_on_c, 0, 91, 113
2, 62268, Note_off_c, 0, 91, 64
2, 62268, Note_off_c, 0, 79, 64
2, 62304, Note_on_c, 0, 90, 105
2, 62364, Note_off_c, 0, 90, 64
2, 62400, Note_on_c, 0, 91, 105
2, 62460, Note_off_c, 0, 91, 64
2, 62688, Note_on_c, 0, 78, 113
2, 62784, Note_off_c, 0, 78, 64
2, 62784, Note_on_c, 0, 79, 106
2, 62880, Note_off_c, 0, 79, 64
2, 63072, Note_on_c, 0, 66, 109
2, 63168, Note_off_c, 0, 66, 64
2, 63168, Note_on_c, 0, 67, 103
2, 63264, Note_off_c, 0, 67, 64
2, 63456, Note_on_c, 0, 54, 105
2, 63552, Note_off_c, 0, 54, 64
2, 63552, Note_on_c, 0, 55, 101
2, 63648, Note_off_c, 0, 55, 64
2, 63840, Note_on_c, 0, 42, 108
2, 63936, Note_off_c, 0, 42, 64
2, 63936, Note_on_c, 0, 43, 101
2, 64032, Note_off_c, 0, 43, 64
2, 64224, Note_on_c, 0, 54, 114
2, 64320, Note_off_c, 0, 54, 64
2, 64320, Note_on_c, 0, 55, 107
2, 64416, Note_off_c, 0, 55, 64
2, 64608, Note_on_c, 0, 66, 112
2, 64704, Note_off_c, 0, 66, 64
2, 64704, Note_on_c, 0, 67, 107
2, 64800, Note_off_c, 0, 67, 64
2, 64992, Note_on_c, 0, 78, 114
2, 65088, Note_off_c, 0, 78, 64
2, 65088, Note_on_c, 0, 79, 107
2, 65184, Note_off_c, 0, 79, 64
2, 65376, Note_on_c, 0, 78, 112
2, 65472, Note_off_c, 0, 78, 64
2, 65472, Note_on_c, 0, 79, 109
2, 65568, Note_off_c, 0, 79, 64
2, 65664, Note_on_c, 0, 79, 72
2, 65712, Note_off_c, 0, 79, 64
2, 65712, Note_on_c, 0, 81, 64
2, 65760, Note_off_c, 0, 81, 64
2, 65760, Note_on_c, 0, 79, 71
2, 65808, Note_off_c, 0, 79, 64
2, 65808, Note_on_c, 0, 81, 64
2, 65856, Note_off_c, 0, 81, 64
2, 65856, Note_on_c, 0, 79, 76
2, 65904, Note_off_c, 0, 79, 64
2, 65904, Note_on_c, 0, 81, 65
2, 65952, Note_off_c, 0, 81, 64
2, 65952, Note_on_c, 0, 79, 78
2, 66000, Note_off_c, 0, 79, 64
2, 66000, Note_on_c, 0, 81, 64
2, 66048, Note_off_c, 0, 81, 64
2, 66048, Note_on_c, 0, 79, 80
2, 66096, Note_off_c, 0, 79, 64
2, 66096, Note_on_c, 0, 81, 74
2, 66144, Note_off_c, 0, 81, 64
2, 66144, Note_on_c, 0, 79, 80
2, 66192, Note_off_c, 0, 79, 64
2, 66192, Note_on_c, 0, 81, 76
2, 66240, Note_off_c, 0, 81, 64
2, 66240, Note_on_c, 0, 79, 82
2, 66288, Note_off_c, 0, 79, 64
2, 66288, Note_on_c, 0, 81, 76
2, 66336, Note_off_c, 0, 81, 64
2, 66336, Note_on_c, 0, 79, 84
2, 66384, Note_off_c, 0, 79, 64
2, 66384, Note_on_c, 0, 81, 78
2, 66432, Note_off_c, 0, 81, 64
2, 66432, Note_on_c, 0, 79, 84
2, 66480, Note_off_c, 0, 79, 64
2, 66480, Note_on_c, 0, 81, 80
2, 66528, Note_off_c, 0, 81, 64
2, 66528, Note_on_c, 0, 78, 86
2, 66576, Note_off_c, 0, 78, 64
2, 66576, Note_on_c, 0, 79, 92
2, 66624, Note_off_c, 0, 79, 64
2, 66624, Note_on_c, 0, 81, 97
2, 66720, Note_off_c, 0, 81, 64
2, 66720, Note_on_c, 0, 83, 101
2, 66816, Note_off_c, 0, 83, 64
2, 66816, Note_on_c, 0, 84, 109
2, 67200, Note_off_c, 0, 84, 64
2, 67200, Note_on_c, 0, 79, 86
2, 67776, Note_off_c, 0, 79, 64
2, 67776, Note_on_c, 0, 76, 86
2, 67968, Note_off_c, 0, 76, 64
2, 67968, Note_on_c, 0, 77, 78
2, 68004, Note_on_c, 0, 79, 82
2, 68022, Note_off_c, 0, 77, 64
2, 68040, Note_on_c, 0, 77, 78
2, 68064, Note_off_c, 0, 79, 64
2, 68076, Note_on_c, 0, 76, 82
2, 68088, Note_off_c, 0, 77, 64
2, 68112, Note_on_c, 0, 77, 86
2, 68160, Note_off_c, 0, 76, 64
2, 68160, Note_on_c, 0, 79, 86
2, 68190, Note_off_c, 0, 77, 64
2, 68256, Note_on_c, 0, 81, 90
2, 68304, Note_off_c, 0, 79, 64
2, 68352, Note_on_c, 0, 78, 80
2, 68400, Note_off_c, 0, 81, 64
2, 68544, Note_on_c, 0, 79, 86
2, 68640, Note_off_c, 0, 78, 64
2, 68928, Note_on_c, 0, 76, 86
2, 69024, Note_off_c, 0, 79, 64
2, 69120, Note_off_c, 0, 76, 64
2, 69120, Note_on_c, 0, 79, 92
2, 69216, Note_on_c, 0, 77, 86
2, 69280, Note_off_c, 0, 79, 64
2, 69312, Note_off_c, 0, 77, 64
2, 69408, Note_on_c, 0, 76, 86
2, 69492, Note_off_c, 0, 76, 64
2, 69504, Note_on_c, 0, 76, 86
2, 69600, Note_on_c, 0, 74, 80
2, 69680, Note_off_c, 0, 76, 64
2, 69696, Note_off_c, 0, 74, 64
2, 69792, Note_on_c, 0, 72, 80
2, 69870, Note_off_c, 0, 72, 64
2, 69888, Note_on_c, 0, 72, 86
2, 69984, Note_on_c, 0, 71, 76
2, 70048, Note_off_c, 0, 72, 64
2, 70080, Note_off_c, 0, 71, 64
2, 70176, Note_on_c, 0, 69, 78
2, 70254, Note_off_c, 0, 69, 64
2, 70272, Note_on_c, 0, 66, 86
2, 70272, Note_on_c, 0, 69, 86
2, 70464, Note_on_c, 0, 67, 86
2, 70560, Note_off_c, 0, 69, 64
2, 70576, Note_off_c, 0, 66, 64
2, 70830, Note_off_c, 0, 67, 64
2, 70848, Note_on_c, 0, 67, 68
2, 70920, Note_off_c, 0, 67, 64
2, 70944, Note_on_c, 0, 69, 74
2, 71016, Note_off_c, 0, 69, 64
2, 71040, Note_on_c, 0, 71, 76
2, 71112, Note_off_c, 0, 71, 64
2, 71136, Note_on_c, 0, 72, 80
2, 71208, Note_off_c, 0, 72, 64
2, 71232, Note_on_c, 0, 74, 86
2, 71304, Note_off_c, 0, 74, 64
2, 71328, Note_on_c, 0, 76, 90
2, 71392, Note_on_c, 0, 67, 90
2, 71400, Note_off_c, 0, 76, 64
2, 71424, Note_on_c, 0, 77, 92
2, 71504, Note_off_c, 0, 67, 64
2, 71808, Note_on_c, 0, 74, 78
2, 72000, Note_off_c, 0, 77, 64
2, 72384, Note_on_c, 0, 76, 78
2, 72464, Note_off_c, 0, 74, 64
2, 72480, Note_on_c, 0, 77, 80
2, 72528, Note_off_c, 0, 76, 64
2, 72544, Note_on_c, 0, 67, 86
2, 72576, Note_off_c, 0, 77, 64
2, 72576, Note_on_c, 0, 79, 92
2, 72640, Note_off_c, 0, 67, 64
2, 72864, Note_off_c, 0, 79, 64
2, 72864, Note_on_c, 0, 76, 92
2, 72960, Note_off_c, 0, 76, 64
2, 72960, Note_on_c, 0, 84, 101
2, 73536, Note_off_c, 0, 84, 64
2, 73536, Note_on_c, 0, 79, 86
2, 73632, Note_on_c, 0, 76, 78
2, 73696, Note_off_c, 0, 79, 64
2, 73728, Note_on_c, 0, 81, 90
2, 73792, Note_off_c, 0, 76, 64
2, 73824, Note_off_c, 0, 81, 64
2, 73920, Note_on_c, 0, 77, 90
2, 74016, Note_on_c, 0, 74, 76
2, 74048, Note_off_c, 0, 77, 64
2, 74112, Note_on_c, 0, 79, 94
2, 74176, Note_off_c, 0, 74, 64
2, 74208, Note_off_c, 0, 79, 64
2, 74304, Note_on_c, 0, 76, 86
2, 74400, Note_on_c, 0, 72, 74
2, 74464, Note_off_c, 0, 76, 64
2, 74496, Note_on_c, 0, 79, 92
2, 74560, Note_off_c, 0, 72, 64
2, 74592, Note_off_c, 0, 79, 64
2, 74688, Note_on_c, 0, 74, 86
2, 74784, Note_on_c, 0, 71, 76
2, 74848, Note_off_c, 0, 74, 64
2, 74880, Note_on_c, 0, 79, 94
2, 74944, Note_off_c, 0, 71, 64
2, 74976, Note_off_c, 0, 79, 64
2, 75072, Note_on_c, 0, 74, 86
2, 75168, Note_on_c, 0, 71, 74
2, 75232, Note_off_c, 0, 74, 64
2, 75264, Note_off_c, 0, 71, 64
2, 75264, Note_on_c, 0, 71, 88
2, 75264, Note_on_c, 0, 74, 88
2, 75264, Note_on_c, 0, 79, 88
2, 75648, Note_on_c, 0, 72, 78
2, 75744, Note_off_c, 0, 79, 64
2, 75744, Note_off_c, 0, 74, 64
2, 75744, Note_off_c, 0, 71, 64
2, 75776, Note_off_c, 0, 72, 64
2, 76224, Note_on_c, 0, 71, 63
2, 76224, Note_on_c, 0, 74, 63
2, 76224, Note_on_c, 0, 79, 63
2, 76320, Note_off_c, 0, 79, 64
2, 76320, Note_off_c, 0, 74, 64
2, 76320, Note_off_c, 0, 71, 64
2, 76320, Note_on_c, 0, 71, 63
2, 76320, Note_on_c, 0, 74, 63
2, 76320, Note_on_c, 0, 79, 63
2, 76416, Note_off_c, 0, 79, 64
2, 76416, Note_off_c, 0, 74, 64
2, 76416, Note_off_c, 0, 71, 64
2, 76416, Note_on_c, 0, 71, 68
2, 76416, Note_on_c, 0, 74, 68
2, 76416, Note_on_c, 0, 79, 68
2, 76512, Note_off_c, 0, 79, 64
2, 76512, Note_off_c, 0, 74, 64
2, 76512, Note_off_c, 0, 71, 64
2, 76608, Note_on_c, 0, 71, 74
2, 76608, Note_on_c, 0, 79, 74
2, 76608, Note_on_c, 0, 83, 74
2, 76704, Note_off_c, 0, 83, 64
2, 76704, Note_off_c, 0, 79, 64
2, 76704, Note_off_c, 0, 71, 64
2, 76800, Note_on_c, 0, 72, 82
2, 76800, Note_on_c, 0, 79, 82
2, 76800, Note_on_c, 0, 84, 82
2, 76896, Note_off_c, 0, 84, 64
2, 76896, Note_off_c, 0, 79, 64
2, 76896, Note_off_c, 0, 72, 64
2, 76992, Note_on_c, 0, 76, 84
2, 76992, Note_on_c, 0, 79, 84
2, 76992, Note_on_c, 0, 88, 84
2, 77088, Note_off_c, 0, 88, 64
2, 77088, Note_off_c, 0, 79, 64
2, 77088, Note_off_c, 0, 76, 64
2, 77376, Note_on_c, 0, 79, 70
2, 77376, Note_on_c, 0, 86, 70
2, 77376, Note_on_c, 0, 91, 70
2, 77472, Note_off_c, 0, 91, 64
2, 77472, Note_off_c, 0, 86, 64
2, 77472, Note_off_c, 0, 79, 64
2, 77472, Note_on_c, 0, 79, 68
2, 77472, Note_on_c, 0, 86, 68
2, 77472, Note_on_c, 0, 91, 68
2, 77568, Note_off_c, 0, 91, 64
2, 77568, Note_off_c, 0, 86, 64
2, 77568, Note_off_c, 0, 79, 64
2, 77568, Note_on_c, 0, 79, 63
2, 77568, Note_on_c, 0, 86, 63
2, 77568, Note_on_c, 0, 91, 63
2, 77760, Note_off_c, 0, 91, 64
2, 77760, Note_off_c, 0, 86, 64
2, 77760, Note_off_c, 0, 79, 64
2, 77760, Note_on_c, 0, 77, 63
2, 77760, Note_on_c, 0, 86, 63
2, 77760, Note_on_c, 0, 89, 63
2, 77952, Note_off_c, 0, 89, 64
2, 77952, Note_off_c, 0, 86, 64
2, 77952, Note_off_c, 0, 77, 64
2, 77952, Note_on_c, 0, 76, 63
2, 77952, Note_on_c, 0, 84, 63
2, 77952, Note_on_c, 0, 88, 63
2, 78144, Note_off_c, 0, 88, 64
2, 78144, Note_off_c, 0, 84, 64
2, 78144, Note_off_c, 0, 76, 64
2, 78144, Note_on_c, 0, 72, 63
2, 78144, Note_on_c, 0, 76, 63
2, 78144, Note_on_c, 0, 84, 63
2, 78336, Note_off_c, 0, 84, 64
2, 78336, Note_off_c, 0, 76, 64
2, 78336, Note_off_c, 0, 72, 64
2, 78528, Note_on_c, 0, 71, 74
2, 78528, Note_on_c, 0, 74, 74
2, 78528, Note_on_c, 0, 79, 74
2, 78624, Note_off_c, 0, 79, 64
2, 78624, Note_off_c, 0, 74, 64
2, 78624, Note_off_c, 0, 71, 64
2, 78624, Note_on_c, 0, 71, 72
2, 78624, Note_on_c, 0, 74, 72
2, 78624, Note_on_c, 0, 79, 72
2, 78720, Note_off_c, 0, 79, 64
2, 78720, Note_off_c, 0, 74, 64
2, 78720, Note_off_c, 0, 71, 64
2, 78720, Note_on_c, 0, 71, 62
2, 78720, Note_on_c, 0, 74, 62
2, 78720, Note_on_c, 0, 79, 62
2, 78912, Note_off_c, 0, 79, 64
2, 78912, Note_off_c, 0, 74, 64
2, 78912, Note_off_c, 0, 71, 64
2, 78912, Note_on_c, 0, 71, 60
2, 78912, Note_on_c, 0, 79, 60
2, 78912, Note_on_c, 0, 83, 60
2, 79104, Note_off_c, 0, 83, 64
2, 79104, Note_off_c, 0, 79, 64
2, 79104, Note_off_c, 0, 71, 64
2, 79104, Note_on_c, 0, 72, 57
2, 79104, Note_on_c, 0, 79, 57
2, 79104, Note_on_c, 0, 84, 57
2, 79296, Note_off_c, 0, 84, 64
2, 79296, Note_off_c, 0, 79, 64
2, 79296, Note_off_c, 0, 72, 0
2, 79296, Note_on_c, 0, 76, 55
2, 79296, Note_on_c, 0, 79, 55
2, 79296, Note_on_c, 0, 88, 55
2, 79488, Note_off_c, 0, 88, 64
2, 79488, Note_off_c, 0, 79, 64
2, 79488, Note_off_c, 0, 76, 64
2, 79488, Note_on_c, 0, 74, 64
2, 79488, Note_on_c, 0, 78, 64
2, 79488, Note_on_c, 0, 81, 64
2, 79680, Note_off_c, 0, 81, 64
2, 79680, Note_off_c, 0, 78, 64
2, 79680, Note_off_c, 0, 74, 64
2, 79680, Note_on_c, 0, 74, 52
2, 79680, Note_on_c, 0, 78, 52
2, 79680, Note_on_c, 0, 86, 52
2, 79808, Note_off_c, 0, 86, 64
2, 79808, Note_off_c, 0, 78, 64
2, 79808, Note_off_c, 0, 74, 64
2, 79872, Note_on_c, 0, 74, 52
2, 79872, Note_on_c, 0, 79, 52
2, 79872, Note_on_c, 0, 83, 52
2, 80064, Note_off_c, 0, 83, 64
2, 80064, Note_off_c, 0, 79, 64
2, 80064, Note_off_c, 0, 74, 64
2, 80064, Note_on_c, 0, 74, 52
2, 80064, Note_on_c, 0, 79, 52
2, 80064, Note_on_c, 0, 86, 52
2, 80192, Note_off_c, 0, 86, 64
2, 80192, Note_off_c, 0, 79, 64
2, 80192, Note_off_c, 0, 74, 64
2, 80256, Note_on_c, 0, 72, 52
2, 80256, Note_on_c, 0, 76, 52
2, 80256, Note_on_c, 0, 79, 52
2, 80448, Note_off_c, 0, 79, 64
2, 80448, Note_off_c, 0, 76, 64
2, 80448, Note_off_c, 0, 72, 64
2, 80448, Note_on_c, 0, 72, 52
2, 80448, Note_on_c, 0, 76, 52
2, 80448, Note_on_c, 0, 84, 52
2, 80576, Note_off_c, 0, 84, 64
2, 80576, Note_off_c, 0, 76, 64
2, 80576, Note_off_c, 0, 72, 64
2, 80640, Note_on_c, 0, 72, 61
2, 80640, Note_on_c, 0, 77, 61
2, 80640, Note_on_c, 0, 81, 61
2, 80768, Note_off_c, 0, 81, 64
2, 80768, Note_off_c, 0, 77, 64
2, 80768, Note_off_c, 0, 72, 64
2, 80832, Note_on_c, 0, 72, 52
2, 80832, Note_on_c, 0, 77, 52
2, 80832, Note_on_c, 0, 84, 52
2, 80960, Note_off_c, 0, 84, 64
2, 80960, Note_off_c, 0, 77, 64
2, 80960, Note_off_c, 0, 72, 64
2, 81024, Note_on_c, 0, 71, 52
2, 81024, Note_on_c, 0, 75, 52
2, 81024, Note_on_c, 0, 78, 52
2, 81152, Note_off_c, 0, 78, 64
2, 81152, Note_off_c, 0, 75, 64
2, 81152, Note_off_c, 0, 71, 64
2, 81216, Note_on_c, 0, 71, 52
2, 81216, Note_on_c, 0, 75, 52
2, 81216, Note_on_c, 0, 83, 52
2, 81344, Note_off_c, 0, 83, 64
2, 81344, Note_off_c, 0, 75, 64
2, 81344, Note_off_c, 0, 71, 64
2, 81408, Note_on_c, 0, 71, 52
2, 81408, Note_on_c, 0, 76, 52
2, 81408, Note_on_c, 0, 79, 52
2, 81536, Note_off_c, 0, 79, 64
2, 81536, Note_off_c, 0, 76, 64
2, 81536, Note_off_c, 0, 71, 64
2, 81600, Note_on_c, 0, 71, 52
2, 81600, Note_on_c, 0, 76, 52
2, 81600, Note_on_c, 0, 83, 52
2, 81728, Note_off_c, 0, 83, 64
2, 81728, Note_off_c, 0, 76, 64
2, 81728, Note_off_c, 0, 71, 64
2, 81792, Note_on_c, 0, 69, 59
2, 81792, Note_on_c, 0, 73, 59
2, 81792, Note_on_c, 0, 76, 59
2, 81984, Note_off_c, 0, 76, 64
2, 81984, Note_off_c, 0, 73, 64
2, 81984, Note_off_c, 0, 69, 64
2, 81984, Note_on_c, 0, 69, 52
2, 81984, Note_on_c, 0, 73, 52
2, 81984, Note_on_c, 0, 81, 52
2, 82176, Note_off_c, 0, 81, 64
2, 82176, Note_off_c, 0, 73, 64
2, 82176, Note_off_c, 0, 69, 64
2, 82176, Note_on_c, 0, 69, 52
2, 82176, Note_on_c, 0, 74, 52
2, 82176, Note_on_c, 0, 77, 52
2, 82368, Note_off_c, 0, 77, 64
2, 82368, Note_off_c, 0, 74, 64
2, 82368, Note_off_c, 0, 69, 64
2, 82368, Note_on_c, 0, 69, 52
2, 82368, Note_on_c, 0, 74, 52
2, 82368, Note_on_c, 0, 81, 52
2, 82560, Note_off_c, 0, 81, 64
2, 82560, Note_off_c, 0, 74, 64
2, 82560, Note_off_c, 0, 69, 64
2, 82560, Note_on_c, 0, 67, 52
2, 82560, Note_on_c, 0, 71, 52
2, 82560, Note_on_c, 0, 74, 52
2, 82752, Note_off_c, 0, 74, 64
2, 82752, Note_off_c, 0, 71, 64
2, 82752, Note_off_c, 0, 67, 64
2, 82752, Note_on_c, 0, 71, 52
2, 82752, Note_on_c, 0, 74, 52
2, 82752, Note_on_c, 0, 79, 52
2, 82944, Note_off_c, 0, 79, 64
2, 82944, Note_off_c, 0, 74, 64
2, 82944, Note_off_c, 0, 71, 64
2, 82944, Note_on_c, 0, 72, 71
2, 82944, Note_on_c, 0, 76, 71
2, 82944, Note_on_c, 0, 79, 71
2, 83136, Note_off_c, 0, 79, 64
2, 83136, Note_on_c, 0, 84, 62
2, 83328, Note_off_c, 0, 84, 64
2, 83328, Note_off_c, 0, 76, 64
2, 83328, Note_off_c, 0, 72, 64
2, 83328, Note_on_c, 0, 79, 67
2, 83904, Note_off_c, 0, 79, 64
2, 83904, Note_on_c, 0, 76, 55
2, 84096, Note_off_c, 0, 76, 64
2, 84096, Note_on_c, 0, 77, 74
2, 84132, Note_on_c, 0, 79, 62
2, 84150, Note_off_c, 0, 77, 64
2, 84168, Note_on_c, 0, 77, 72
2, 84192, Note_off_c, 0, 79, 64
2, 84204, Note_on_c, 0, 76, 62
2, 84216, Note_off_c, 0, 77, 64
2, 84240, Note_on_c, 0, 77, 68
2, 84288, Note_off_c, 0, 76, 64
2, 84288, Note_on_c, 0, 79, 74
2, 84318, Note_off_c, 0, 77, 64
2, 84384, Note_off_c, 0, 79, 64
2, 84384, Note_on_c, 0, 81, 78
2, 84480, Note_off_c, 0, 81, 64
2, 84480, Note_on_c, 0, 78, 62
2, 84672, Note_off_c, 0, 78, 64
2, 84672, Note_on_c, 0, 79, 62
2, 85056, Note_off_c, 0, 79, 64
2, 85056, Note_on_c, 0, 76, 62
2, 85248, Note_off_c, 0, 76, 64
2, 85248, Note_on_c, 0, 79, 74
2, 85344, Note_on_c, 0, 77, 62
2, 85408, Note_off_c, 0, 79, 64
2, 85440, Note_off_c, 0, 77, 64
2, 85536, Note_on_c, 0, 76, 62
2, 85620, Note_off_c, 0, 76, 64
2, 85632, Note_on_c, 0, 76, 62
2, 85728, Note_on_c, 0, 74, 62
2, 85808, Note_off_c, 0, 76, 64
2, 85824, Note_off_c, 0, 74, 64
2, 85920, Note_on_c, 0, 72, 62
2, 85998, Note_off_c, 0, 72, 64
2, 86016, Note_on_c, 0, 72, 62
2, 86112, Note_on_c, 0, 71, 62
2, 86176, Note_off_c, 0, 72, 64
2, 86208, Note_off_c, 0, 71, 64
2, 86304, Note_on_c, 0, 69, 62
2, 86382, Note_off_c, 0, 69, 64
2, 86400, Note_on_c, 0, 66, 71
2, 86400, Note_on_c, 0, 69, 71
2, 86592, Note_on_c, 0, 67, 62
2, 86688, Note_off_c, 0, 69, 64
2, 86704, Note_off_c, 0, 66, 64
2, 86958, Note_off_c, 0, 67, 64
2, 86976, Note_on_c, 0, 67, 62
2, 87048, Note_off_c, 0, 67, 64
2, 87072, Note_on_c, 0, 69, 70
2, 87144, Note_off_c, 0, 69, 64
2, 87168, Note_on_c, 0, 71, 72
2, 87240, Note_off_c, 0, 71, 64
2, 87264, Note_on_c, 0, 72, 74
2, 87336, Note_off_c, 0, 72, 64
2, 87360, Note_on_c, 0, 74, 74
2, 87432, Note_off_c, 0, 74, 64
2, 87456, Note_on_c, 0, 76, 76
2, 87520, Note_on_c, 0, 67, 84
2, 87528, Note_off_c, 0, 76, 64
2, 87552, Note_on_c, 0, 77, 86
2, 87616, Note_off_c, 0, 67, 64
2, 87936, Note_on_c, 0, 74, 62
2, 88128, Note_off_c, 0, 77, 64
2, 88512, Note_on_c, 0, 76, 62
2, 88592, Note_off_c, 0, 74, 64
2, 88608, Note_on_c, 0, 77, 62
2, 88656, Note_off_c, 0, 76, 64
2, 88672, Note_on_c, 0, 67, 62
2, 88704, Note_off_c, 0, 77, 64
2, 88704, Note_on_c, 0, 79, 78
2, 88768, Note_off_c, 0, 67, 64
2, 88992, Note_off_c, 0, 79, 64
2, 88992, Note_on_c, 0, 76, 82
2, 89088, Note_off_c, 0, 76, 64
2, 89088, Note_on_c, 0, 84, 94
2, 89568, Note_off_c, 0, 84, 64
2, 89568, Note_on_c, 0, 83, 92
2, 89664, Note_on_c, 0, 88, 84
2, 89696, Note_off_c, 0, 83, 64
2, 89760, Note_on_c, 0, 86, 80
2, 89792, Note_off_c, 0, 88, 64
2, 89856, Note_on_c, 0, 84, 82
2, 89888, Note_off_c, 0, 86, 64
2, 89952, Note_on_c, 0, 83, 80
2, 89984, Note_off_c, 0, 84, 64
2, 90048, Note_on_c, 0, 88, 72
2, 90080, Note_off_c, 0, 83, 64
2, 90144, Note_on_c, 0, 86, 64
2, 90176, Note_off_c, 0, 88, 64
2, 90240, Note_on_c, 0, 84, 84
2, 90272, Note_off_c, 0, 86, 64
2, 90336, Note_on_c, 0, 83, 71
2, 90368, Note_off_c, 0, 84, 64
2, 90432, Note_on_c, 0, 88, 75
2, 90464, Note_off_c, 0, 83, 64
2, 90528, Note_on_c, 0, 86, 72
2, 90560, Note_off_c, 0, 88, 64
2, 90624, Note_on_c, 0, 84, 84
2, 90656, Note_off_c, 0, 86, 64
2, 90720, Note_on_c, 0, 83, 78
2, 90752, Note_off_c, 0, 84, 64
2, 90816, Note_on_c, 0, 86, 76
2, 90848, Note_off_c, 0, 83, 64
2, 90912, Note_on_c, 0, 83, 82
2, 90944, Note_off_c, 0, 86, 64
2, 91008, Note_on_c, 0, 84, 92
2, 91040, Note_off_c, 0, 83, 64
2, 91104, Note_off_c, 0, 84, 64
2, 91104, Note_on_c, 0, 83, 84
2, 91200, Note_on_c, 0, 88, 84
2, 91264, Note_off_c, 0, 83, 64
2, 91296, Note_off_c, 0, 88, 64
2, 91296, Note_on_c, 0, 86, 84
2, 91392, Note_on_c, 0, 84, 97
2, 91424, Note_off_c, 0, 86, 64
2, 91488, Note_off_c, 0, 84, 64
2, 91488, Note_on_c, 0, 83, 90
2, 91584, Note_on_c, 0, 88, 90
2, 91648, Note_off_c, 0, 83, 64
2, 91680, Note_off_c, 0, 88, 64
2, 91680, Note_on_c, 0, 86, 90
2, 91776, Note_on_c, 0, 84, 101
2, 91840, Note_off_c, 0, 86, 64
2, 91872, Note_off_c, 0, 84, 64
2, 91872, Note_on_c, 0, 83, 90
2, 91968, Note_on_c, 0, 84, 98
2, 92000, Note_off_c, 0, 83, 64
2, 92064, Note_off_c, 0, 84, 64
2, 92064, Note_on_c, 0, 82, 105
2, 92160, Note_on_c, 0, 81, 94
2, 92256, Note_off_c, 0, 82, 64
2, 92288, Note_off_c, 0, 81, 64
2, 92352, Note_on_c, 0, 77, 86
2, 92448, Note_on_c, 0, 74, 86
2, 92512, Note_off_c, 0, 77, 64
2, 92544, Note_on_c, 0, 79, 99
2, 92640, Note_off_c, 0, 79, 64
2, 92640, Note_off_c, 0, 74, 64
2, 92736, Note_on_c, 0, 76, 86
2, 92832, Note_on_c, 0, 72, 86
2, 92896, Note_off_c, 0, 76, 64
2, 92928, Note_on_c, 0, 79, 99
2, 92992, Note_off_c, 0, 72, 64
2, 93024, Note_off_c, 0, 79, 64
2, 93120, Note_on_c, 0, 74, 86
2, 93216, Note_on_c, 0, 71, 86
2, 93280, Note_off_c, 0, 74, 64
2, 93312, Note_on_c, 0, 79, 101
2, 93376, Note_off_c, 0, 71, 64
2, 93408, Note_off_c, 0, 79, 64
2, 93504, Note_on_c, 0, 74, 97
2, 93600, Note_on_c, 0, 71, 86
2, 93648, Note_off_c, 0, 74, 64
2, 93696, Note_off_c, 0, 71, 64
2, 93696, Note_on_c, 0, 71, 88
2, 93696, Note_on_c, 0, 74, 88
2, 93696, Note_on_c, 0, 79, 88
2, 94080, Note_on_c, 0, 72, 76
2, 94176, Note_off_c, 0, 79, 64
2, 94176, Note_off_c, 0, 74, 64
2, 94176, Note_off_c, 0, 71, 64
2, 94272, Note_off_c, 0, 72, 64
2, 94656, Note_on_c, 0, 60, 68
2, 94848, Note_on_c, 0, 55, 53
2, 94992, Note_off_c, 0, 60, 64
2, 95040, Note_off_c, 0, 55, 64
2, 95424, Note_on_c, 0, 67, 66
2, 95616, Note_on_c, 0, 63, 53
2, 95760, Note_off_c, 0, 67, 64
2, 95808, Note_off_c, 0, 63, 64
2, 96192, Note_on_c, 0, 75, 66
2, 96384, Note_on_c, 0, 72, 53
2, 96480, Note_off_c, 0, 75, 64
2, 96576, Note_off_c, 0, 72, 64
2, 96576, Note_on_c, 0, 75, 72
2, 96768, Note_off_c, 0, 75, 64
2, 96768, Note_on_c, 0, 75, 70
2, 97344, Note_on_c, 0, 74, 67
2, 97422, Note_off_c, 0, 75, 64
2, 97440, Note_on_c, 0, 72, 59
2, 97488, Note_off_c, 0, 74, 64
2, 97536, Note_on_c, 0, 71, 71
2, 97632, Note_off_c, 0, 72, 64
2, 97728, Note_on_c, 0, 72, 68
2, 97824, Note_off_c, 0, 71, 64
2, 97920, Note_off_c, 0, 72, 64
2, 97920, Note_on_c, 0, 75, 76
2, 98112, Note_on_c, 0, 74, 70
2, 98220, Note_off_c, 0, 75, 64
2, 98304, Note_off_c, 0, 74, 64
2, 98304, Note_on_c, 0, 78, 73
2, 98880, Note_on_c, 0, 79, 71
2, 99000, Note_off_c, 0, 78, 64
2, 99072, Note_off_c, 0, 79, 64
2, 99072, Note_on_c, 0, 75, 82
2, 99648, Note_on_c, 0, 74, 69
2, 99720, Note_off_c, 0, 75, 64
2, 99744, Note_on_c, 0, 72, 62
2, 99816, Note_off_c, 0, 74, 64
2, 99840, Note_on_c, 0, 71, 68
2, 99936, Note_off_c, 0, 72, 64
2, 100032, Note_on_c, 0, 72, 70
2, 100134, Note_off_c, 0, 71, 64
2, 100224, Note_off_c, 0, 72, 64
2, 100224, Note_on_c, 0, 75, 82
2, 100800, Note_on_c, 0, 73, 72
2, 100872, Note_off_c, 0, 75, 64
2, 100896, Note_on_c, 0, 72, 76
2, 100944, Note_off_c, 0, 73, 64
2, 100992, Note_on_c, 0, 71, 80
2, 101028, Note_off_c, 0, 72, 64
2, 101088, Note_on_c, 0, 72, 80
2, 101124, Note_off_c, 0, 71, 64
2, 101184, Note_on_c, 0, 80, 84
2, 101268, Note_off_c, 0, 72, 64
2, 101358, Note_off_c, 0, 80, 64
2, 101376, Note_on_c, 0, 80, 94
2, 101952, Note_off_c, 0, 80, 64
2, 101952, Note_on_c, 0, 79, 88
2, 102048, Note_off_c, 0, 79, 64
2, 102048, Note_on_c, 0, 77, 88
2, 102144, Note_off_c, 0, 77, 64
2, 102144, Note_on_c, 0, 76, 97
2, 102240, Note_off_c, 0, 76, 64
2, 102240, Note_on_c, 0, 77, 88
2, 102336, Note_off_c, 0, 77, 64
2, 102336, Note_on_c, 0, 89, 90
2, 102528, Note_off_c, 0, 89, 64
2, 102528, Note_on_c, 0, 89, 101
2, 102624, Note_off_c, 0, 89, 64
2, 102624, Note_on_c, 0, 87, 86
2, 102720, Note_off_c, 0, 87, 64
2, 102720, Note_on_c, 0, 85, 84
2, 102816, Note_off_c, 0, 85, 64
2, 102816, Note_on_c, 0, 84, 82
2, 102912, Note_off_c, 0, 84, 64
2, 102912, Note_on_c, 0, 82, 92
2, 103008, Note_off_c, 0, 82, 64
2, 103008, Note_on_c, 0, 80, 83
2, 103104, Note_off_c, 0, 80, 64
2, 103104, Note_on_c, 0, 79, 84
2, 103200, Note_off_c, 0, 79, 64
2, 103200, Note_on_c, 0, 77, 90
2, 103296, Note_off_c, 0, 77, 64
2, 103296, Note_on_c, 0, 75, 103
2, 103392, Note_off_c, 0, 75, 64
2, 103392, Note_on_c, 0, 84, 99
2, 103488, Note_off_c, 0, 84, 64
2, 103488, Note_on_c, 0, 82, 99
2, 103584, Note_off_c, 0, 82, 64
2, 103584, Note_on_c, 0, 80, 99
2, 103680, Note_off_c, 0, 80, 64
2, 103680, Note_on_c, 0, 79, 107
2, 103776, Note_off_c, 0, 79, 64
2, 103776, Note_on_c, 0, 77, 90
2, 103872, Note_off_c, 0, 77, 64
2, 103872, Note_on_c, 0, 75, 80
2, 103968, Note_off_c, 0, 75, 64
2, 103968, Note_on_c, 0, 73, 76
2, 104064, Note_off_c, 0, 73, 64
2, 104064, Note_on_c, 0, 72, 80
2, 104160, Note_off_c, 0, 72, 64
2, 104160, Note_on_c, 0, 70, 68
2, 104256, Note_off_c, 0, 70, 64
2, 104256, Note_on_c, 0, 68, 64
2, 104352, Note_off_c, 0, 68, 64
2, 104352, Note_on_c, 0, 67, 61
2, 104448, Note_off_c, 0, 67, 64
2, 104448, Note_on_c, 0, 65, 72
2, 104544, Note_off_c, 0, 65, 64
2, 104544, Note_on_c, 0, 63, 53
2, 104640, Note_off_c, 0, 63, 64
2, 104640, Note_on_c, 0, 65, 61
2, 104736, Note_off_c, 0, 65, 64
2, 104736, Note_on_c, 0, 67, 61
2, 104832, Note_off_c, 0, 67, 64
2, 104832, Note_on_c, 0, 68, 74
2, 104928, Note_on_c, 0, 60, 47
2, 104928, Note_on_c, 0, 63, 39
2, 105024, Note_off_c, 0, 63, 64
2, 105024, Note_off_c, 0, 60, 64
2, 105120, Note_on_c, 0, 60, 46
2, 105120, Note_on_c, 0, 63, 39
2, 105216, Note_off_c, 0, 63, 64
2, 105216, Note_off_c, 0, 60, 64
2, 105312, Note_on_c, 0, 60, 48
2, 105312, Note_on_c, 0, 63, 42
2, 105408, Note_off_c, 0, 63, 64
2, 105408, Note_off_c, 0, 60, 64
2, 105504, Note_on_c, 0, 60, 50
2, 105504, Note_on_c, 0, 63, 40
2, 105600, Note_off_c, 0, 63, 64
2, 105600, Note_off_c, 0, 60, 64
2, 105600, Note_on_c, 0, 72, 80
2, 105696, Note_on_c, 0, 60, 53
2, 105696, Note_on_c, 0, 63, 47
2, 105756, Note_off_c, 0, 68, 64
2, 105792, Note_off_c, 0, 63, 64
2, 105792, Note_off_c, 0, 60, 64
2, 105888, Note_on_c, 0, 60, 50
2, 105888, Note_on_c, 0, 63, 45
2, 105984, Note_off_c, 0, 63, 64
2, 105984, Note_off_c, 0, 60, 64
2, 105984, Note_on_c, 0, 73, 84
2, 106080, Note_on_c, 0, 61, 42
2, 106080, Note_on_c, 0, 63, 42
2, 106140, Note_off_c, 0, 72, 64
2, 106176, Note_off_c, 0, 63, 64
2, 106176, Note_off_c, 0, 61, 64
2, 106272, Note_on_c, 0, 61, 45
2, 106272, Note_on_c, 0, 63, 44
2, 106368, Note_off_c, 0, 63, 64
2, 106368, Note_off_c, 0, 61, 64
2, 106464, Note_on_c, 0, 61, 41
2, 106464, Note_on_c, 0, 63, 38
2, 106560, Note_off_c, 0, 63, 64
2, 106560, Note_off_c, 0, 61, 64
2, 106656, Note_on_c, 0, 61, 44
2, 106656, Note_on_c, 0, 63, 43
2, 106752, Note_off_c, 0, 63, 64
2, 106752, Note_off_c, 0, 61, 64
2, 106752, Note_on_c, 0, 70, 70
2, 106848, Note_on_c, 0, 61, 48
2, 106848, Note_on_c, 0, 63, 47
2, 106908, Note_off_c, 0, 73, 64
2, 106944, Note_off_c, 0, 63, 64
2, 106944, Note_off_c, 0, 61, 64
2, 107040, Note_on_c, 0, 61, 45
2, 107040, Note_on_c, 0, 63, 41
2, 107136, Note_off_c, 0, 63, 64
2, 107136, Note_off_c, 0, 61, 64
2, 107136, Note_on_c, 0, 72, 80
2, 107232, Note_on_c, 0, 60, 50
2, 107232, Note_on_c, 0, 63, 46
2, 107292, Note_off_c, 0, 70, 64
2, 107328, Note_off_c, 0, 63, 64
2, 107328, Note_off_c, 0, 60, 64
2, 107424, Note_on_c, 0, 60, 48
2, 107424, Note_on_c, 0, 63, 40
2, 107520, Note_off_c, 0, 63, 64
2, 107520, Note_off_c, 0, 60, 64
2, 107616, Note_on_c, 0, 60, 49
2, 107616, Note_on_c, 0, 63, 41
2, 107712, Note_off_c, 0, 63, 64
2, 107712, Note_off_c, 0, 60, 64
2, 107808, Note_on_c, 0, 60, 50
2, 107808, Note_on_c, 0, 63, 42
2, 107904, Note_off_c, 0, 63, 64
2, 107904, Note_off_c, 0, 60, 64
2, 107904, Note_on_c, 0, 68, 74
2, 108000, Note_on_c, 0, 60, 44
2, 108000, Note_on_c, 0, 63, 48
2, 108060, Note_off_c, 0, 72, 64
2, 108096, Note_off_c, 0, 63, 64
2, 108096, Note_off_c, 0, 60, 64
2, 108192, Note_on_c, 0, 60, 45
2, 108192, Note_on_c, 0, 63, 44
2, 108288, Note_off_c, 0, 63, 64
2, 108288, Note_off_c, 0, 60, 64
2, 108288, Note_on_c, 0, 70, 78
2, 108384, Note_on_c, 0, 61, 42
2, 108384, Note_on_c, 0, 63, 42
2, 108444, Note_off_c, 0, 68, 64
2, 108480, Note_off_c, 0, 63, 64
2, 108480, Note_off_c, 0, 61, 64
2, 108576, Note_on_c, 0, 61, 44
2, 108576, Note_on_c, 0, 63, 40
2, 108672, Note_off_c, 0, 63, 64
2, 108672, Note_off_c, 0, 61, 64
2, 108768, Note_on_c, 0, 61, 43
2, 108768, Note_on_c, 0, 63, 37
2, 108864, Note_off_c, 0, 63, 64
2, 108864, Note_off_c, 0, 61, 64
2, 108864, Note_on_c, 0, 67, 68
2, 108960, Note_on_c, 0, 61, 38
2, 108960, Note_on_c, 0, 63, 39
2, 109020, Note_off_c, 0, 70, 64
2, 109056, Note_off_c, 0, 63, 64
2, 109056, Note_off_c, 0, 61, 64
2, 109056, Note_on_c, 0, 65, 66
2, 109152, Note_on_c, 0, 61, 37
2, 109152, Note_on_c, 0, 63, 48
2, 109212, Note_off_c, 0, 67, 64
2, 109248, Note_off_c, 0, 63, 64
2, 109248, Note_off_c, 0, 61, 64
2, 109248, Note_on_c, 0, 67, 72
2, 109344, Note_on_c, 0, 61, 40
2, 109344, Note_on_c, 0, 63, 46
2, 109404, Note_off_c, 0, 65, 64
2, 109440, Note_off_c, 0, 63, 64
2, 109440, Note_off_c, 0, 61, 64
2, 109440, Note_on_c, 0, 68, 72
2, 109536, Note_on_c, 0, 60, 45
2, 109536, Note_on_c, 0, 63, 47
2, 109596, Note_off_c, 0, 67, 64
2, 109632, Note_off_c, 0, 63, 64
2, 109632, Note_off_c, 0, 60, 64
2, 109632, Note_on_c, 0, 70, 76
2, 109728, Note_on_c, 0, 60, 42
2, 109728, Note_on_c, 0, 63, 42
2, 109788, Note_off_c, 0, 68, 64
2, 109824, Note_off_c, 0, 63, 64
2, 109824, Note_off_c, 0, 60, 64
2, 109824, Note_on_c, 0, 72, 78
2, 109920, Note_on_c, 0, 60, 45
2, 109920, Note_on_c, 0, 63, 43
2, 109980, Note_off_c, 0, 70, 64
2, 110016, Note_off_c, 0, 63, 0
2, 110016, Note_off_c, 0, 60, 0
2, 110016, Note_on_c, 0, 71, 82
2, 110112, Note_on_c, 0, 60, 47
2, 110112, Note_on_c, 0, 63, 41
2, 110172, Note_off_c, 0, 72, 64
2, 110208, Note_off_c, 0, 63, 64
2, 110208, Note_off_c, 0, 60, 64
2, 110208, Note_on_c, 0, 72, 88
2, 110304, Note_on_c, 0, 60, 48
2, 110304, Note_on_c, 0, 63, 47
2, 110364, Note_off_c, 0, 71, 64
2, 110400, Note_off_c, 0, 63, 64
2, 110400, Note_off_c, 0, 60, 64
2, 110400, Note_on_c, 0, 75, 92
2, 110496, Note_on_c, 0, 60, 42
2, 110496, Note_on_c, 0, 63, 48
2, 110556, Note_off_c, 0, 72, 64
2, 110592, Note_off_c, 0, 63, 64
2, 110592, Note_off_c, 0, 60, 64
2, 110592, Note_on_c, 0, 73, 78
2, 110688, Note_on_c, 0, 61, 47
2, 110688, Note_on_c, 0, 63, 45
2, 110748, Note_off_c, 0, 75, 64
2, 110784, Note_off_c, 0, 63, 64
2, 110784, Note_off_c, 0, 61, 64
2, 110880, Note_on_c, 0, 61, 38
2, 110880, Note_on_c, 0, 63, 39
2, 110976, Note_off_c, 0, 63, 64
2, 110976, Note_off_c, 0, 61, 64
2, 111072, Note_on_c, 0, 61, 34
2, 111072, Note_on_c, 0, 63, 36
2, 111168, Note_off_c, 0, 63, 64
2, 111168, Note_off_c, 0, 61, 64
2, 111264, Note_on_c, 0, 61, 39
2, 111264, Note_on_c, 0, 63, 45
2, 111360, Note_off_c, 0, 63, 64
2, 111360, Note_off_c, 0, 61, 64
2, 111360, Note_on_c, 0, 70, 74
2, 111456, Note_on_c, 0, 61, 37
2, 111456, Note_on_c, 0, 63, 41
2, 111516, Note_off_c, 0, 73, 64
2, 111552, Note_off_c, 0, 63, 64
2, 111552, Note_off_c, 0, 61, 64
2, 111648, Note_on_c, 0, 61, 35
2, 111648, Note_on_c, 0, 63, 37
2, 111744, Note_off_c, 0, 63, 64
2, 111744, Note_off_c, 0, 61, 64
2, 111744, Note_on_c, 0, 75, 92
2, 111840, Note_on_c, 0, 63, 55
2, 111840, Note_on_c, 0, 69, 59
2, 111900, Note_off_c, 0, 70, 64
2, 111936, Note_off_c, 0, 69, 64
2, 111936, Note_off_c, 0, 63, 64
2, 112032, Note_on_c, 0, 63, 54
2, 112032, Note_on_c, 0, 69, 50
2, 112128, Note_off_c, 0, 69, 64
2, 112128, Note_off_c, 0, 63, 64
2, 112224, Note_on_c, 0, 63, 53
2, 112224, Note_on_c, 0, 69, 49
2, 112320, Note_off_c, 0, 69, 64
2, 112320, Note_off_c, 0, 63, 64
2, 112416, Note_on_c, 0, 63, 53
2, 112416, Note_on_c, 0, 69, 50
2, 112512, Note_off_c, 0, 69, 64
2, 112512, Note_off_c, 0, 63, 64
2, 112512, Note_on_c, 0, 72, 86
2, 112608, Note_on_c, 0, 63, 50
2, 112608, Note_on_c, 0, 69, 52
2, 112668, Note_off_c, 0, 75, 64
2, 112704, Note_off_c, 0, 69, 64
2, 112704, Note_off_c, 0, 63, 64
2, 112800, Note_on_c, 0, 63, 56
2, 112800, Note_on_c, 0, 69, 47
2, 112896, Note_off_c, 0, 69, 64
2, 112896, Note_off_c, 0, 63, 64
2, 112896, Note_on_c, 0, 81, 101
2, 112992, Note_on_c, 0, 69, 67
2, 112992, Note_on_c, 0, 72, 67
2, 113052, Note_off_c, 0, 72, 64
2, 113088, Note_off_c, 0, 72, 64
2, 113088, Note_off_c, 0, 69, 64
2, 113184, Note_on_c, 0, 69, 57
2, 113184, Note_on_c, 0, 72, 58
2, 113280, Note_off_c, 0, 72, 64
2, 113280, Note_off_c, 0, 69, 64
2, 113376, Note_on_c, 0, 69, 58
2, 113376, Note_on_c, 0, 72, 58
2, 113472, Note_off_c, 0, 72, 64
2, 113472, Note_off_c, 0, 69, 64
2, 113568, Note_on_c, 0, 69, 61
2, 113568, Note_on_c, 0, 72, 64
2, 113664, Note_off_c, 0, 72, 64
2, 113664, Note_off_c, 0, 69, 64
2, 113664, Note_on_c, 0, 75, 89
2, 113760, Note_on_c, 0, 69, 55
2, 113760, Note_on_c, 0, 72, 65
2, 113820, Note_off_c, 0, 81, 64
2, 113856, Note_off_c, 0, 72, 64
2, 113856, Note_off_c, 0, 69, 64
2, 113952, Note_on_c, 0, 69, 54
2, 113952, Note_on_c, 0, 72, 68
2, 114048, Note_off_c, 0, 72, 64
2, 114048, Note_off_c, 0, 69, 64
2, 114048, Note_on_c, 0, 84, 103
2, 114144, Note_on_c, 0, 72, 67
2, 114144, Note_on_c, 0, 76, 67
2, 114204, Note_off_c, 0, 75, 64
2, 114240, Note_off_c, 0, 76, 64
2, 114240, Note_off_c, 0, 72, 64
2, 114336, Note_on_c, 0, 72, 65
2, 114336, Note_on_c, 0, 76, 70
2, 114432, Note_off_c, 0, 76, 64
2, 114432, Note_off_c, 0, 72, 64
2, 114528, Note_on_c, 0, 72, 66
2, 114528, Note_on_c, 0, 76, 65
2, 114624, Note_off_c, 0, 76, 64
2, 114624, Note_off_c, 0, 72, 64
2, 114720, Note_on_c, 0, 72, 66
2, 114720, Note_on_c, 0, 76, 77
2, 114816, Note_off_c, 0, 76, 64
2, 114816, Note_off_c, 0, 72, 64
2, 114816, Note_on_c, 0, 81, 103
2, 114912, Note_on_c, 0, 72, 74
2, 114912, Note_on_c, 0, 76, 78
2, 114972, Note_off_c, 0, 84, 64
2, 115008, Note_off_c, 0, 76, 64
2, 115008, Note_off_c, 0, 72, 64
2, 115104, Note_on_c, 0, 72, 70
2, 115104, Note_on_c, 0, 76, 80
2, 115200, Note_off_c, 0, 76, 64
2, 115200, Note_off_c, 0, 72, 64
2, 115200, Note_on_c, 0, 88, 80
2, 115296, Note_on_c, 0, 76, 53
2, 115356, Note_off_c, 0, 81, 64
2, 115392, Note_off_c, 0, 76, 64
2, 115488, Note_on_c, 0, 76, 47
2, 115584, Note_off_c, 0, 76, 64
2, 115680, Note_on_c, 0, 76, 45
2, 115776, Note_off_c, 0, 76, 64
2, 115872, Note_on_c, 0, 76, 52
2, 115968, Note_off_c, 0, 76, 64
2, 115968, Note_on_c, 0, 87, 78
2, 116064, Note_on_c, 0, 76, 56
2, 116124, Note_off_c, 0, 88, 64
2, 116160, Note_off_c, 0, 76, 64
2, 116256, Note_on_c, 0, 76, 52
2, 116352, Note_off_c, 0, 76, 64
2, 116352, Note_on_c, 0, 86, 78
2, 116448, Note_on_c, 0, 76, 58
2, 116502, Note_off_c, 0, 87, 64
2, 116544, Note_off_c, 0, 76, 64
2, 116640, Note_on_c, 0, 76, 50
2, 116736, Note_off_c, 0, 76, 64
2, 116736, Note_on_c, 0, 85, 76
2, 116832, Note_on_c, 0, 76, 55
2, 116886, Note_off_c, 0, 86, 64
2, 116928, Note_off_c, 0, 76, 64
2, 117024, Note_on_c, 0, 76, 50
2, 117120, Note_off_c, 0, 76, 64
2, 117120, Note_on_c, 0, 84, 78
2, 117216, Note_on_c, 0, 78, 46
2, 117216, Note_on_c, 0, 81, 43
2, 117270, Note_off_c, 0, 85, 64
2, 117312, Note_off_c, 0, 81, 64
2, 117312, Note_off_c, 0, 78, 64
2, 117408, Note_on_c, 0, 78, 41
2, 117408, Note_on_c, 0, 81, 39
2, 117504, Note_off_c, 0, 81, 64
2, 117504, Note_off_c, 0, 78, 64
2, 117504, Note_on_c, 0, 83, 73
2, 117600, Note_on_c, 0, 77, 47
2, 117600, Note_on_c, 0, 80, 43
2, 117654, Note_off_c, 0, 84, 64
2, 117696, Note_off_c, 0, 80, 64
2, 117696, Note_off_c, 0, 77, 64
2, 117792, Note_on_c, 0, 77, 50
2, 117792, Note_on_c, 0, 80, 38
2, 117888, Note_off_c, 0, 80, 64
2, 117888, Note_off_c, 0, 77, 64
2, 117888, Note_on_c, 0, 81, 74
2, 117984, Note_on_c, 0, 76, 52
2, 118038, Note_off_c, 0, 83, 64
2, 118080, Note_off_c, 0, 76, 64
2, 118176, Note_on_c, 0, 76, 53
2, 118272, Note_off_c, 0, 76, 64
2, 118272, Note_on_c, 0, 74, 57
2, 118272, Note_on_c, 0, 76, 62
2, 118272, Note_on_c, 0, 80, 73
2, 118422, Note_off_c, 0, 81, 64
2, 118464, Note_off_c, 0, 76, 64
2, 118464, Note_off_c, 0, 74, 64
2, 118464, Note_on_c, 0, 74, 56
2, 118464, Note_on_c, 0, 76, 63
2, 118656, Note_off_c, 0, 76, 64
2, 118656, Note_off_c, 0, 74, 64
2, 118656, Note_on_c, 0, 73, 50
2, 118656, Note_on_c, 0, 76, 66
2, 118656, Note_on_c, 0, 81, 60
2, 118806, Note_off_c, 0, 80, 64
2, 119040, Note_off_c, 0, 76, 64
2, 119040, Note_off_c, 0, 73, 64
2, 119040, Note_on_c, 0, 76, 66
2, 119190, Note_off_c, 0, 81, 64
2, 119616, Note_on_c, 0, 73, 62
2, 119766, Note_off_c, 0, 76, 64
2, 119808, Note_off_c, 0, 73, 64
2, 119808, Note_on_c, 0, 74, 65
2, 119856, Note_off_c, 0, 74, 64
2, 119856, Note_on_c, 0, 76, 66
2, 119904, Note_off_c, 0, 76, 64
2, 119904, Note_on_c, 0, 74, 65
2, 119952, Note_off_c, 0, 74, 64
2, 119952, Note_on_c, 0, 73, 68
2, 119976, Note_off_c, 0, 73, 64
2, 119976, Note_on_c, 0, 74, 72
2, 120000, Note_off_c, 0, 74, 64
2, 120000, Note_on_c, 0, 76, 78
2, 120096, Note_off_c, 0, 76, 64
2, 120096, Note_on_c, 0, 78, 86
2, 120192, Note_off_c, 0, 78, 64
2, 120192, Note_on_c, 0, 75, 94
2, 120384, Note_off_c, 0, 75, 64
2, 120384, Note_on_c, 0, 76, 67
2, 120768, Note_off_c, 0, 76, 64
2, 120768, Note_on_c, 0, 73, 65
2, 120960, Note_off_c, 0, 73, 64
2, 120960, Note_on_c, 0, 76, 64
2, 121056, Note_off_c, 0, 76, 64
2, 121056, Note_on_c, 0, 74, 54
2, 121152, Note_off_c, 0, 74, 64
2, 121248, Note_on_c, 0, 73, 64
2, 121344, Note_off_c, 0, 73, 64
2, 121344, Note_on_c, 0, 73, 64
2, 121440, Note_off_c, 0, 73, 64
2, 121440, Note_on_c, 0, 71, 62
2, 121536, Note_off_c, 0, 71, 64
2, 121632, Note_on_c, 0, 69, 54
2, 121728, Note_off_c, 0, 69, 64
2, 121728, Note_on_c, 0, 69, 66
2, 121824, Note_off_c, 0, 69, 64
2, 121824, Note_on_c, 0, 68, 68
2, 121920, Note_off_c, 0, 68, 64
2, 122016, Note_on_c, 0, 66, 67
2, 122112, Note_off_c, 0, 66, 64
2, 122112, Note_on_c, 0, 63, 55
2, 122112, Note_on_c, 0, 66, 54
2, 122304, Note_off_c, 0, 66, 64
2, 122304, Note_off_c, 0, 63, 64
2, 122304, Note_on_c, 0, 64, 63
2, 122688, Note_off_c, 0, 64, 64
2, 122688, Note_on_c, 0, 66, 60
2, 122784, Note_off_c, 0, 66, 64
2, 122784, Note_on_c, 0, 68, 57
2, 122880, Note_off_c, 0, 68, 64
2, 122880, Note_on_c, 0, 69, 68
2, 122976, Note_off_c, 0, 69, 64
2, 122976, Note_on_c, 0, 71, 60
2, 123072, Note_off_c, 0, 71, 64
2, 123072, Note_on_c, 0, 73, 66
2, 123168, Note_off_c, 0, 73, 64
2, 123168, Note_on_c, 0, 74, 73
2, 123264, Note_off_c, 0, 74, 64
2, 123264, Note_on_c, 0, 76, 78
2, 123360, Note_off_c, 0, 76, 64
2, 123360, Note_on_c, 0, 78, 82
2, 123456, Note_off_c, 0, 78, 64
2, 123456, Note_on_c, 0, 80, 82
2, 123552, Note_off_c, 0, 80, 64
2, 123552, Note_on_c, 0, 81, 84
2, 123648, Note_off_c, 0, 81, 64
2, 123648, Note_on_c, 0, 76, 80
2, 124224, Note_off_c, 0, 76, 64
2, 124224, Note_on_c, 0, 73, 63
2, 124416, Note_off_c, 0, 73, 64
2, 124416, Note_on_c, 0, 74, 65
2, 124464, Note_on_c, 0, 76, 66
2, 124483, Note_off_c, 0, 74, 64
2, 124512, Note_on_c, 0, 74, 65
2, 124531, Note_off_c, 0, 76, 64
2, 124560, Note_on_c, 0, 73, 72
2, 124579, Note_off_c, 0, 74, 64
2, 124584, Note_on_c, 0, 74, 78
2, 124593, Note_off_c, 0, 73, 64
2, 124608, Note_on_c, 0, 76, 84
2, 124617, Note_off_c, 0, 74, 64
2, 124704, Note_on_c, 0, 78, 86
2, 124742, Note_off_c, 0, 76, 64
2, 124800, Note_on_c, 0, 75, 94
2, 124838, Note_off_c, 0, 78, 64
2, 124992, Note_on_c, 0, 76, 67
2, 125068, Note_off_c, 0, 75, 64
2, 125376, Note_on_c, 0, 73, 65
2, 125529, Note_off_c, 0, 76, 64
2, 125568, Note_off_c, 0, 73, 64
2, 125568, Note_on_c, 0, 74, 70
2, 125616, Note_on_c, 0, 76, 71
2, 125635, Note_off_c, 0, 74, 64
2, 125664, Note_on_c, 0, 74, 70
2, 125683, Note_off_c, 0, 76, 64
2, 125712, Note_on_c, 0, 73, 73
2, 125731, Note_off_c, 0, 74, 64
2, 125736, Note_on_c, 0, 74, 77
2, 125745, Note_off_c, 0, 73, 64
2, 125760, Note_on_c, 0, 76, 85
2, 125769, Note_off_c, 0, 74, 64
2, 125856, Note_on_c, 0, 78, 91
2, 125894, Note_off_c, 0, 76, 64
2, 125952, Note_on_c, 0, 75, 97
2, 125990, Note_off_c, 0, 78, 64
2, 126144, Note_on_c, 0, 76, 72
2, 126220, Note_off_c, 0, 75, 64
2, 126528, Note_on_c, 0, 73, 70
2, 126681, Note_off_c, 0, 76, 64
2, 126720, Note_off_c, 0, 73, 64
2, 126720, Note_on_c, 0, 74, 75
2, 126768, Note_on_c, 0, 76, 76
2, 126787, Note_off_c, 0, 74, 64
2, 126816, Note_on_c, 0, 74, 75
2, 126835, Note_off_c, 0, 76, 64
2, 126864, Note_on_c, 0, 73, 82
2, 126883, Note_off_c, 0, 74, 64
2, 126888, Note_on_c, 0, 74, 86
2, 126897, Note_off_c, 0, 73, 64
2, 126912, Note_on_c, 0, 76, 92
2, 126921, Note_off_c, 0, 74, 64
2, 127008, Note_on_c, 0, 78, 96
2, 127046, Note_off_c, 0, 76, 64
2, 127104, Note_off_c, 0, 78, 64
2, 127104, Note_on_c, 0, 74, 75
2, 127152, Note_on_c, 0, 76, 76
2, 127171, Note_off_c, 0, 74, 64
2, 127200, Note_on_c, 0, 74, 75
2, 127219, Note_off_c, 0, 76, 64
2, 127248, Note_on_c, 0, 73, 84
2, 127267, Note_off_c, 0, 74, 64
2, 127272, Note_on_c, 0, 74, 86
2, 127281, Note_off_c, 0, 73, 64
2, 127296, Note_on_c, 0, 76, 92
2, 127305, Note_off_c, 0, 74, 64
2, 127392, Note_on_c, 0, 78, 96
2, 127430, Note_off_c, 0, 76, 64
2, 127488, Note_off_c, 0, 78, 64
2, 127488, Note_on_c, 0, 74, 75
2, 127536, Note_on_c, 0, 76, 76
2, 127555, Note_off_c, 0, 74, 64
2, 127584, Note_on_c, 0, 74, 75
2, 127603, Note_off_c, 0, 76, 64
2, 127632, Note_on_c, 0, 73, 82
2, 127651, Note_off_c, 0, 74, 64
2, 127656, Note_on_c, 0, 74, 86
2, 127665, Note_off_c, 0, 73, 64
2, 127680, Note_on_c, 0, 76, 90
2, 127689, Note_off_c, 0, 74, 64
2, 127776, Note_on_c, 0, 78, 96
2, 127814, Note_off_c, 0, 76, 64
2, 127872, Note_off_c, 0, 78, 64
2, 127872, Note_on_c, 0, 74, 80
2, 127920, Note_on_c, 0, 76, 81
2, 127939, Note_off_c, 0, 74, 64
2, 127968, Note_on_c, 0, 74, 80
2, 127987, Note_off_c, 0, 76, 64
2, 128016, Note_on_c, 0, 73, 87
2, 128035, Note_off_c, 0, 74, 64
2, 128040, Note_on_c, 0, 74, 91
2, 128049, Note_off_c, 0, 73, 64
2, 128064, Note_on_c, 0, 76, 95
2, 128073, Note_off_c, 0, 74, 64
2, 128160, Note_on_c, 0, 78, 99
2, 128198, Note_off_c, 0, 76, 64
2, 128256, Note_off_c, 0, 78, 64
2, 128256, Note_on_c, 0, 71, 80
2, 128304, Note_on_c, 0, 72, 81
2, 128323, Note_off_c, 0, 71, 64
2, 128352, Note_on_c, 0, 71, 80
2, 128371, Note_off_c, 0, 72, 64
2, 128400, Note_on_c, 0, 69, 89
2, 128419, Note_off_c, 0, 71, 64
2, 128424, Note_on_c, 0, 71, 93
2, 128433, Note_off_c, 0, 69, 64
2, 128448, Note_on_c, 0, 72, 97
2, 128457, Note_off_c, 0, 71, 64
2, 128544, Note_on_c, 0, 74, 101
2, 128582, Note_off_c, 0, 72, 64
2, 128640, Note_off_c, 0, 74, 64
2, 128640, Note_on_c, 0, 67, 80
2, 128688, Note_on_c, 0, 69, 81
2, 128707, Note_off_c, 0, 67, 64
2, 128736, Note_on_c, 0, 67, 80
2, 128755, Note_off_c, 0, 69, 64
2, 128784, Note_on_c, 0, 66, 83
2, 128803, Note_off_c, 0, 67, 64
2, 128808, Note_on_c, 0, 67, 89
2, 128817, Note_off_c, 0, 66, 64
2, 128832, Note_on_c, 0, 71, 97
2, 128841, Note_off_c, 0, 67, 64
2, 128928, Note_off_c, 0, 71, 64
2, 128928, Note_on_c, 0, 76, 97
2, 129024, Note_off_c, 0, 76, 64
2, 129024, Note_on_c, 0, 77, 85
2, 129072, Note_on_c, 0, 76, 86
2, 129091, Note_off_c, 0, 77, 64
2, 129120, Note_on_c, 0, 77, 85
2, 129139, Note_off_c, 0, 76, 64
2, 129168, Note_on_c, 0, 74, 92
2, 129187, Note_off_c, 0, 77, 64
2, 129192, Note_on_c, 0, 76, 94
2, 129201, Note_off_c, 0, 74, 64
2, 129216, Note_on_c, 0, 77, 102
2, 129225, Note_off_c, 0, 76, 64
2, 129312, Note_on_c, 0, 79, 104
2, 129350, Note_off_c, 0, 77, 64
2, 129408, Note_off_c, 0, 79, 64
2, 129408, Note_on_c, 0, 72, 67
2, 129456, Note_on_c, 0, 74, 75
2, 129475, Note_off_c, 0, 72, 64
2, 129504, Note_on_c, 0, 72, 80
2, 129523, Note_off_c, 0, 74, 64
2, 129552, Note_on_c, 0, 71, 90
2, 129571, Note_off_c, 0, 72, 64
2, 129576, Note_on_c, 0, 72, 92
2, 129585, Note_off_c, 0, 71, 64
2, 129600, Note_on_c, 0, 74, 96
2, 129609, Note_off_c, 0, 72, 64
2, 129696, Note_on_c, 0, 76, 102
2, 129734, Note_off_c, 0, 74, 64
2, 129792, Note_off_c, 0, 76, 64
2, 129792, Note_on_c, 0, 67, 85
2, 129840, Note_on_c, 0, 69, 81
2, 129859, Note_off_c, 0, 67, 64
2, 129888, Note_on_c, 0, 67, 90
2, 129907, Note_off_c, 0, 69, 64
2, 129936, Note_on_c, 0, 66, 94
2, 129955, Note_off_c, 0, 67, 64
2, 129960, Note_on_c, 0, 67, 102
2, 129969, Note_off_c, 0, 66, 64
2, 129984, Note_on_c, 0, 72, 106
2, 129993, Note_off_c, 0, 67, 64
2, 130080, Note_on_c, 0, 76, 108
2, 130118, Note_off_c, 0, 72, 64
2, 130176, Note_off_c, 0, 76, 64
2, 130176, Note_on_c, 0, 81, 90
2, 130224, Note_on_c, 0, 83, 96
2, 130243, Note_off_c, 0, 81, 64
2, 130272, Note_on_c, 0, 81, 89
2, 130291, Note_off_c, 0, 83, 64
2, 130320, Note_on_c, 0, 79, 101
2, 130339, Note_off_c, 0, 81, 64
2, 130344, Note_on_c, 0, 81, 105
2, 130353, Note_off_c, 0, 79, 64
2, 130368, Note_on_c, 0, 83, 109
2, 130377, Note_off_c, 0, 81, 64
2, 130464, Note_on_c, 0, 84, 111
2, 130502, Note_off_c, 0, 83, 64
2, 130560, Note_off_c, 0, 84, 64
2, 130560, Note_on_c, 0, 78, 93
2, 130608, Note_on_c, 0, 79, 100
2, 130627, Note_off_c, 0, 78, 64
2, 130656, Note_on_c, 0, 78, 92
2, 130675, Note_off_c, 0, 79, 64
2, 130704, Note_on_c, 0, 76, 99
2, 130723, Note_off_c, 0, 78, 64
2, 130728, Note_on_c, 0, 78, 101
2, 130737, Note_off_c, 0, 76, 64
2, 130752, Note_on_c, 0, 79, 107
2, 130761, Note_off_c, 0, 78, 64
2, 130848, Note_on_c, 0, 81, 109
2, 130886, Note_off_c, 0, 79, 64
2, 130944, Note_off_c, 0, 81, 64
2, 130944, Note_on_c, 0, 78, 89
2, 130992, Note_on_c, 0, 79, 96
2, 131011, Note_off_c, 0, 78, 64
2, 131040, Note_on_c, 0, 78, 89
2, 131059, Note_off_c, 0, 79, 64
2, 131088, Note_on_c, 0, 76, 99
2, 131107, Note_off_c, 0, 78, 64
2, 131112, Note_on_c, 0, 78, 105
2, 131121, Note_off_c, 0, 76, 64
2, 131136, Note_on_c, 0, 81, 109
2, 131145, Note_off_c, 0, 78, 64
2, 131232, Note_on_c, 0, 84, 113
2, 131270, Note_off_c, 0, 81, 64
2, 131328, Note_off_c, 0, 84, 64
2, 131328, Note_on_c, 0, 87, 92
2, 131424, Note_off_c, 0, 87, 64
2, 131520, Note_on_c, 0, 84, 83
2, 131616, Note_on_c, 0, 81, 78
2, 131654, Note_off_c, 0, 84, 64
2, 131712, Note_on_c, 0, 78, 108
2, 131750, Note_off_c, 0, 81, 64
2, 131808, Note_off_c, 0, 78, 64
2, 131904, Note_on_c, 0, 81, 79
2, 132000, Note_on_c, 0, 84, 83
2, 132038, Note_off_c, 0, 81, 64
2, 132096, Note_on_c, 0, 86, 113
2, 132134, Note_off_c, 0, 84, 64
2, 132192, Note_off_c, 0, 86, 64
2, 132288, Note_on_c, 0, 83, 91
2, 132384, Note_on_c, 0, 80, 92
2, 132422, Note_off_c, 0, 83, 64
2, 132480, Note_on_c, 0, 85, 103
2, 132518, Note_off_c, 0, 80, 64
2, 132576, Note_off_c, 0, 85, 64
2, 132672, Note_on_c, 0, 82, 80
2, 132768, Note_on_c, 0, 79, 87
2, 132806, Note_off_c, 0, 82, 64
2, 132864, Note_on_c, 0, 76, 109
2, 132902, Note_off_c, 0, 79, 64
2, 132960, Note_off_c, 0, 76, 64
2, 133056, Note_on_c, 0, 79, 87
2, 133152, Note_on_c, 0, 82, 85
2, 133190, Note_off_c, 0, 79, 64
2, 133248, Note_on_c, 0, 84, 108
2, 133286, Note_off_c, 0, 82, 64
2, 133344, Note_off_c, 0, 84, 64
2, 133440, Note_on_c, 0, 81, 82
2, 133536, Note_on_c, 0, 78, 81
2, 133574, Note_off_c, 0, 81, 64
2, 133632, Note_on_c, 0, 75, 102
2, 133670, Note_off_c, 0, 78, 64
2, 133728, Note_off_c, 0, 75, 64
2, 133824, Note_on_c, 0, 78, 80
2, 133920, Note_on_c, 0, 81, 80
2, 133958, Note_off_c, 0, 78, 64
2, 134016, Note_on_c, 0, 83, 109
2, 134054, Note_off_c, 0, 81, 64
2, 134112, Note_off_c, 0, 83, 64
2, 134208, Note_on_c, 0, 80, 87
2, 134304, Note_on_c, 0, 77, 84
2, 134342, Note_off_c, 0, 80, 64
2, 134400, Note_on_c, 0, 73, 101
2, 134438, Note_off_c, 0, 77, 64
2, 134496, Note_off_c, 0, 73, 64
2, 134592, Note_on_c, 0, 76, 86
2, 134688, Note_on_c, 0, 79, 89
2, 134726, Note_off_c, 0, 76, 64
2, 134784, Note_on_c, 0, 82, 103
2, 134822, Note_off_c, 0, 79, 64
2, 134880, Note_off_c, 0, 82, 64
2, 134976, Note_on_c, 0, 79, 86
2, 135072, Note_on_c, 0, 76, 85
2, 135110, Note_off_c, 0, 79, 64
2, 135168, Note_on_c, 0, 73, 99
2, 135206, Note_off_c, 0, 76, 64
2, 135264, Note_off_c, 0, 73, 64
2, 135360, Note_on_c, 0, 76, 89
2, 135456, Note_on_c, 0, 79, 92
2, 135494, Note_off_c, 0, 76, 64
2, 135552, Note_on_c, 0, 82, 106
2, 135590, Note_off_c, 0, 79, 64
2, 135648, Note_off_c, 0, 82, 64
2, 135744, Note_on_c, 0, 79, 100
2, 135840, Note_on_c, 0, 76, 97
2, 135878, Note_off_c, 0, 79, 64
2, 135936, Note_off_c, 0, 76, 64
2, 135936, Note_on_c, 0, 82, 74
2, 136032, Note_off_c, 0, 82, 64
2, 136128, Note_on_c, 0, 79, 63
2, 136224, Note_on_c, 0, 76, 68
2, 136262, Note_off_c, 0, 79, 64
2, 136320, Note_on_c, 0, 72, 78
2, 136358, Note_off_c, 0, 76, 64
2, 136416, Note_off_c, 0, 72, 64
2, 136512, Note_on_c, 0, 76, 63
2, 136608, Note_on_c, 0, 79, 62
2, 136646, Note_off_c, 0, 76, 64
2, 136704, Note_on_c, 0, 81, 82
2, 136742, Note_off_c, 0, 79, 64
2, 136800, Note_off_c, 0, 81, 64
2, 136896, Note_on_c, 0, 77, 67
2, 136992, Note_on_c, 0, 72, 68
2, 137030, Note_off_c, 0, 77, 64
2, 137088, Note_off_c, 0, 72, 64
2, 137088, Note_on_c, 0, 83, 82
2, 137184, Note_off_c, 0, 83, 64
2, 137280, Note_on_c, 0, 77, 56
2, 137376, Note_on_c, 0, 74, 57
2, 137414, Note_off_c, 0, 77, 64
2, 137472, Note_on_c, 0, 86, 78
2, 137510, Note_off_c, 0, 74, 64
2, 137568, Note_off_c, 0, 86, 64
2, 137664, Note_on_c, 0, 83, 57
2, 137760, Note_on_c, 0, 77, 55
2, 137798, Note_off_c, 0, 83, 64
2, 137856, Note_on_c, 0, 89, 80
2, 137894, Note_off_c, 0, 77, 64
2, 137952, Note_off_c, 0, 89, 64
2, 138048, Note_on_c, 0, 86, 53
2, 138144, Note_on_c, 0, 83, 55
2, 138182, Note_off_c, 0, 86, 64
2, 138240, Note_off_c, 0, 83, 64
2, 138240, Note_on_c, 0, 89, 69
2, 138304, Note_off_c, 0, 89, 64
2, 138304, Note_on_c, 0, 88, 62
2, 138368, Note_off_c, 0, 88, 64
2, 138368, Note_on_c, 0, 87, 59
2, 138432, Note_off_c, 0, 87, 64
2, 138432, Note_on_c, 0, 86, 71
2, 138496, Note_off_c, 0, 86, 64
2, 138496, Note_on_c, 0, 85, 65
2, 138560, Note_off_c, 0, 85, 64
2, 138560, Note_on_c, 0, 84, 70
2, 138624, Note_off_c, 0, 84, 64
2, 138624, Note_on_c, 0, 83, 78
2, 138688, Note_off_c, 0, 83, 64
2, 138688, Note_on_c, 0, 82, 62
2, 138752, Note_off_c, 0, 82, 64
2, 138752, Note_on_c, 0, 81, 64
2, 138816, Note_off_c, 0, 81, 64
2, 138816, Note_on_c, 0, 80, 65
2, 138880, Note_off_c, 0, 80, 64
2, 138880, Note_on_c, 0, 79, 70
2, 138944, Note_off_c, 0, 79, 64
2, 138944, Note_on_c, 0, 78, 68
2, 139008, Note_off_c, 0, 78, 64
2, 139008, Note_on_c, 0, 77, 75
2, 139072, Note_off_c, 0, 77, 64
2, 139072, Note_on_c, 0, 76, 64
2, 139136, Note_off_c, 0, 76, 64
2, 139136, Note_on_c, 0, 75, 65
2, 139200, Note_off_c, 0, 75, 64
2, 139200, Note_on_c, 0, 74, 74
2, 139264, Note_off_c, 0, 74, 64
2, 139264, Note_on_c, 0, 73, 73
2, 139328, Note_off_c, 0, 73, 64
2, 139328, Note_on_c, 0, 72, 71
2, 139392, Note_off_c, 0, 72, 64
2, 139392, Note_on_c, 0, 71, 73
2, 139456, Note_off_c, 0, 71, 64
2, 139456, Note_on_c, 0, 70, 67
2, 139520, Note_off_c, 0, 70, 64
2, 139520, Note_on_c, 0, 69, 65
2, 139584, Note_off_c, 0, 69, 64
2, 139584, Note_on_c, 0, 68, 66
2, 139648, Note_off_c, 0, 68, 64
2, 139648, Note_on_c, 0, 67, 67
2, 139712, Note_off_c, 0, 67, 64
2, 139712, Note_on_c, 0, 69, 64
2, 139776, Note_off_c, 0, 69, 64
2, 139776, Note_on_c, 0, 68, 76
2, 139840, Note_off_c, 0, 68, 64
2, 139840, Note_on_c, 0, 70, 68
2, 139904, Note_off_c, 0, 70, 64
2, 139904, Note_on_c, 0, 69, 75
2, 139968, Note_off_c, 0, 69, 64
2, 139968, Note_on_c, 0, 71, 81
2, 140032, Note_off_c, 0, 71, 64
2, 140032, Note_on_c, 0, 70, 76
2, 140096, Note_off_c, 0, 70, 64
2, 140096, Note_on_c, 0, 72, 72
2, 140160, Note_off_c, 0, 72, 64
2, 140160, Note_on_c, 0, 71, 91
2, 140224, Note_off_c, 0, 71, 64
2, 140224, Note_on_c, 0, 73, 84
2, 140288, Note_off_c, 0, 73, 64
2, 140288, Note_on_c, 0, 72, 89
2, 140352, Note_off_c, 0, 72, 64
2, 140352, Note_on_c, 0, 74, 91
2, 140416, Note_off_c, 0, 74, 64
2, 140416, Note_on_c, 0, 73, 89
2, 140480, Note_off_c, 0, 73, 64
2, 140480, Note_on_c, 0, 75, 84
2, 140544, Note_off_c, 0, 75, 64
2, 140544, Note_on_c, 0, 74, 84
2, 140608, Note_off_c, 0, 74, 64
2, 140608, Note_on_c, 0, 76, 83
2, 140672, Note_off_c, 0, 76, 64
2, 140672, Note_on_c, 0, 75, 85
2, 140736, Note_off_c, 0, 75, 64
2, 140736, Note_on_c, 0, 77, 87
2, 140800, Note_off_c, 0, 77, 64
2, 140800, Note_on_c, 0, 76, 83
2, 140864, Note_off_c, 0, 76, 64
2, 140864, Note_on_c, 0, 78, 84
2, 140928, Note_off_c, 0, 78, 64
2, 140928, Note_on_c, 0, 77, 85
2, 140992, Note_off_c, 0, 77, 64
2, 140992, Note_on_c, 0, 79, 84
2, 141056, Note_off_c, 0, 79, 64
2, 141056, Note_on_c, 0, 78, 78
2, 141120, Note_off_c, 0, 78, 64
2, 141120, Note_on_c, 0, 80, 76
2, 141184, Note_off_c, 0, 80, 64
2, 141184, Note_on_c, 0, 79, 83
2, 141248, Note_off_c, 0, 79, 64
2, 141248, Note_on_c, 0, 81, 78
2, 141312, Note_off_c, 0, 81, 64
2, 141312, Note_on_c, 0, 80, 67
2, 141376, Note_off_c, 0, 80, 64
2, 141376, Note_on_c, 0, 82, 64
2, 141440, Note_off_c, 0, 82, 64
2, 141440, Note_on_c, 0, 81, 67
2, 141504, Note_off_c, 0, 81, 64
2, 141504, Note_on_c, 0, 83, 67
2, 141568, Note_off_c, 0, 83, 64
2, 141568, Note_on_c, 0, 82, 62
2, 141632, Note_off_c, 0, 82, 64
2, 141632, Note_on_c, 0, 84, 64
2, 141696, Note_off_c, 0, 84, 64
2, 141696, Note_on_c, 0, 83, 69
2, 141760, Note_off_c, 0, 83, 64
2, 141760, Note_on_c, 0, 84, 77
2, 141824, Note_off_c, 0, 84, 64
2, 141824, Note_on_c, 0, 86, 73
2, 141888, Note_off_c, 0, 86, 64
2, 141888, Note_on_c, 0, 84, 75
2, 141952, Note_off_c, 0, 84, 64
2, 141952, Note_on_c, 0, 83, 75
2, 142016, Note_off_c, 0, 83, 64
2, 142016, Note_on_c, 0, 84, 81
2, 142080, Note_off_c, 0, 84, 64
2, 142080, Note_on_c, 0, 79, 80
2, 142656, Note_off_c, 0, 79, 64
2, 142656, Note_on_c, 0, 76, 74
2, 142848, Note_off_c, 0, 76, 64
2, 142848, Note_on_c, 0, 77, 74
2, 142884, Note_on_c, 0, 79, 62
2, 142902, Note_off_c, 0, 77, 64
2, 142920, Note_on_c, 0, 77, 72
2, 142944, Note_off_c, 0, 79, 64
2, 142956, Note_on_c, 0, 76, 62
2, 142968, Note_off_c, 0, 77, 64
2, 142992, Note_on_c, 0, 77, 68
2, 143040, Note_off_c, 0, 76, 64
2, 143040, Note_on_c, 0, 79, 74
2, 143070, Note_off_c, 0, 77, 64
2, 143136, Note_off_c, 0, 79, 64
2, 143136, Note_on_c, 0, 81, 78
2, 143232, Note_off_c, 0, 81, 64
2, 143232, Note_on_c, 0, 78, 62
2, 143424, Note_off_c, 0, 78, 64
2, 143424, Note_on_c, 0, 79, 62
2, 143808, Note_off_c, 0, 79, 64
2, 143808, Note_on_c, 0, 76, 62
2, 144000, Note_off_c, 0, 76, 64
2, 144000, Note_on_c, 0, 79, 74
2, 144096, Note_on_c, 0, 77, 62
2, 144160, Note_off_c, 0, 79, 64
2, 144192, Note_off_c, 0, 77, 64
2, 144288, Note_on_c, 0, 76, 62
2, 144372, Note_off_c, 0, 76, 64
2, 144384, Note_on_c, 0, 76, 62
2, 144480, Note_on_c, 0, 74, 62
2, 144560, Note_off_c, 0, 76, 64
2, 144576, Note_off_c, 0, 74, 64
2, 144672, Note_on_c, 0, 72, 62
2, 144750, Note_off_c, 0, 72, 64
2, 144768, Note_on_c, 0, 72, 62
2, 144864, Note_on_c, 0, 71, 62
2, 144928, Note_off_c, 0, 72, 64
2, 144960, Note_off_c, 0, 71, 64
2, 145056, Note_on_c, 0, 69, 62
2, 145134, Note_off_c, 0, 69, 64
2, 145152, Note_on_c, 0, 66, 71
2, 145152, Note_on_c, 0, 69, 71
2, 145344, Note_on_c, 0, 67, 62
2, 145440, Note_off_c, 0, 69, 64
2, 145456, Note_off_c, 0, 66, 64
2, 145710, Note_off_c, 0, 67, 64
2, 145728, Note_on_c, 0, 67, 62
2, 145800, Note_off_c, 0, 67, 64
2, 145824, Note_on_c, 0, 69, 70
2, 145896, Note_off_c, 0, 69, 64
2, 145920, Note_on_c, 0, 71, 72
2, 145992, Note_off_c, 0, 71, 64
2, 146016, Note_on_c, 0, 72, 74
2, 146088, Note_off_c, 0, 72, 64
2, 146112, Note_on_c, 0, 74, 74
2, 146184, Note_off_c, 0, 74, 64
2, 146208, Note_on_c, 0, 76, 76
2, 146272, Note_on_c, 0, 67, 84
2, 146280, Note_off_c, 0, 76, 64
2, 146304, Note_on_c, 0, 77, 86
2, 146368, Note_off_c, 0, 67, 64
2, 146688, Note_on_c, 0, 74, 62
2, 146880, Note_off_c, 0, 77, 64
2, 147264, Note_on_c, 0, 76, 62
2, 147344, Note_off_c, 0, 74, 64
2, 147360, Note_on_c, 0, 77, 62
2, 147408, Note_off_c, 0, 76, 64
2, 147424, Note_on_c, 0, 67, 62
2, 147456, Note_off_c, 0, 77, 64
2, 147456, Note_on_c, 0, 79, 78
2, 147520, Note_off_c, 0, 67, 64
2, 147744, Note_off_c, 0, 79, 64
2, 147744, Note_on_c, 0, 76, 88
2, 147840, Note_off_c, 0, 76, 64
2, 147840, Note_on_c, 0, 84, 99
2, 148320, Note_off_c, 0, 84, 64
2, 148320, Note_on_c, 0, 83, 92
2, 148416, Note_on_c, 0, 88, 84
2, 148448, Note_off_c, 0, 83, 64
2, 148512, Note_on_c, 0, 86, 80
2, 148544, Note_off_c, 0, 88, 64
2, 148608, Note_on_c, 0, 84, 82
2, 148640, Note_off_c, 0, 86, 64
2, 148704, Note_on_c, 0, 83, 80
2, 148736, Note_off_c, 0, 84, 64
2, 148800, Note_on_c, 0, 88, 72
2, 148832, Note_off_c, 0, 83, 64
2, 148896, Note_on_c, 0, 86, 64
2, 148928, Note_off_c, 0, 88, 64
2, 148992, Note_on_c, 0, 84, 84
2, 149024, Note_off_c, 0, 86, 64
2, 149088, Note_on_c, 0, 83, 71
2, 149120, Note_off_c, 0, 84, 64
2, 149184, Note_on_c, 0, 88, 75
2, 149216, Note_off_c, 0, 83, 64
2, 149280, Note_on_c, 0, 86, 72
2, 149312, Note_off_c, 0, 88, 64
2, 149376, Note_on_c, 0, 84, 84
2, 149408, Note_off_c, 0, 86, 64
2, 149472, Note_on_c, 0, 83, 78
2, 149504, Note_off_c, 0, 84, 64
2, 149568, Note_on_c, 0, 86, 76
2, 149600, Note_off_c, 0, 83, 64
2, 149664, Note_on_c, 0, 83, 82
2, 149696, Note_off_c, 0, 86, 64
2, 149760, Note_on_c, 0, 84, 92
2, 149792, Note_off_c, 0, 83, 64
2, 149856, Note_off_c, 0, 84, 64
2, 149856, Note_on_c, 0, 83, 84
2, 149952, Note_on_c, 0, 88, 84
2, 150016, Note_off_c, 0, 83, 64
2, 150048, Note_off_c, 0, 88, 64
2, 150048, Note_on_c, 0, 86, 84
2, 150144, Note_on_c, 0, 84, 97
2, 150176, Note_off_c, 0, 86, 64
2, 150240, Note_off_c, 0, 84, 64
2, 150240, Note_on_c, 0, 83, 90
2, 150336, Note_on_c, 0, 88, 90
2, 150400, Note_off_c, 0, 83, 64
2, 150432, Note_off_c, 0, 88, 64
2, 150432, Note_on_c, 0, 86, 90
2, 150528, Note_on_c, 0, 84, 101
2, 150592, Note_off_c, 0, 86, 64
2, 150624, Note_off_c, 0, 84, 64
2, 150624, Note_on_c, 0, 83, 90
2, 150720, Note_on_c, 0, 84, 98
2, 150752, Note_off_c, 0, 83, 64
2, 150816, Note_off_c, 0, 84, 64
2, 150816, Note_on_c, 0, 82, 105
2, 150912, Note_on_c, 0, 81, 94
2, 151008, Note_off_c, 0, 82, 64
2, 151040, Note_off_c, 0, 81, 64
2, 151104, Note_on_c, 0, 77, 86
2, 151200, Note_on_c, 0, 74, 86
2, 151264, Note_off_c, 0, 77, 64
2, 151296, Note_on_c, 0, 79, 99
2, 151392, Note_off_c, 0, 79, 64
2, 151392, Note_off_c, 0, 74, 64
2, 151488, Note_on_c, 0, 76, 86
2, 151584, Note_on_c, 0, 72, 86
2, 151648, Note_off_c, 0, 76, 64
2, 151680, Note_on_c, 0, 79, 99
2, 151744, Note_off_c, 0, 72, 64
2, 151776, Note_off_c, 0, 79, 64
2, 151872, Note_on_c, 0, 74, 86
2, 151968, Note_on_c, 0, 71, 86
2, 152032, Note_off_c, 0, 74, 64
2, 152128, Note_off_c, 0, 71, 64
2, 152160, Note_on_c, 0, 72, 53
2, 152256, Note_off_c, 0, 72, 64
2, 152256, Note_on_c, 0, 76, 53
2, 152352, Note_off_c, 0, 76, 64
2, 152352, Note_on_c, 0, 74, 53
2, 152448, Note_off_c, 0, 74, 64
2, 152448, Note_on_c, 0, 72, 66
2, 152544, Note_off_c, 0, 72, 64
2, 152544, Note_on_c, 0, 76, 53
2, 152640, Note_off_c, 0, 76, 64
2, 152640, Note_on_c, 0, 79, 53
2, 152736, Note_off_c, 0, 79, 64
2, 152736, Note_on_c, 0, 77, 53
2, 152832, Note_off_c, 0, 77, 64
2, 152832, Note_on_c, 0, 76, 68
2, 152928, Note_off_c, 0, 76, 64
2, 152928, Note_on_c, 0, 79, 53
2, 153024, Note_off_c, 0, 79, 64
2, 153024, Note_on_c, 0, 84, 53
2, 153120, Note_off_c, 0, 84, 64
2, 153120, Note_on_c, 0, 81, 53
2, 153216, Note_off_c, 0, 81, 64
2, 153216, Note_on_c, 0, 79, 68
2, 153600, Note_off_c, 0, 79, 64
2, 153600, Note_on_c, 0, 77, 53
2, 153952, Note_on_c, 0, 76, 71
2, 153984, Note_off_c, 0, 77, 64
2, 153984, Note_on_c, 0, 74, 59
2, 154032, Note_off_c, 0, 76, 64
2, 154080, Note_off_c, 0, 74, 64
2, 154080, Note_on_c, 0, 73, 53
2, 154176, Note_off_c, 0, 73, 64
2, 154176, Note_on_c, 0, 74, 57
2, 154272, Note_off_c, 0, 74, 64
2, 154272, Note_on_c, 0, 76, 59
2, 154368, Note_off_c, 0, 76, 64
2, 154368, Note_on_c, 0, 77, 68
2, 154752, Note_on_c, 0, 76, 53
2, 154896, Note_off_c, 0, 77, 64
2, 155136, Note_on_c, 0, 81, 53
2, 155256, Note_off_c, 0, 76, 64
2, 155502, Note_off_c, 0, 81, 64
2, 155520, Note_on_c, 0, 81, 51
2, 155872, Note_on_c, 0, 83, 74
2, 155886, Note_off_c, 0, 81, 64
2, 155904, Note_on_c, 0, 81, 78
2, 155952, Note_off_c, 0, 83, 64
2, 156000, Note_off_c, 0, 81, 64
2, 156000, Note_on_c, 0, 80, 60
2, 156096, Note_off_c, 0, 80, 64
2, 156096, Note_on_c, 0, 81, 62
2, 156192, Note_off_c, 0, 81, 64
2, 156192, Note_on_c, 0, 83, 63
2, 156256, Note_on_c, 0, 86, 72
2, 156288, Note_off_c, 0, 83, 64
2, 156288, Note_on_c, 0, 84, 78
2, 156336, Note_off_c, 0, 86, 64
2, 156384, Note_off_c, 0, 84, 64
2, 156384, Note_on_c, 0, 83, 67
2, 156480, Note_off_c, 0, 83, 64
2, 156480, Note_on_c, 0, 84, 69
2, 156576, Note_off_c, 0, 84, 64
2, 156576, Note_on_c, 0, 85, 71
2, 156672, Note_off_c, 0, 85, 64
2, 156672, Note_on_c, 0, 86, 66
2, 156768, Note_off_c, 0, 86, 64
2, 156768, Note_on_c, 0, 88, 53
2, 156864, Note_off_c, 0, 88, 64
2, 156864, Note_on_c, 0, 89, 53
2, 156960, Note_off_c, 0, 89, 64
2, 156960, Note_on_c, 0, 91, 53
2, 157056, Note_off_c, 0, 91, 64
2, 157056, Note_on_c, 0, 93, 64
2, 157248, Note_on_c, 0, 91, 53
2, 157344, Note_off_c, 0, 93, 64
2, 157632, Note_off_c, 0, 91, 64
2, 157632, Note_on_c, 0, 83, 53
2, 157824, Note_off_c, 0, 83, 64
2, 157824, Note_on_c, 0, 84, 66
2, 157920, Note_off_c, 0, 84, 64
2, 157920, Note_on_c, 0, 72, 53
2, 158016, Note_off_c, 0, 72, 64
2, 158016, Note_on_c, 0, 76, 53
2, 158112, Note_off_c, 0, 76, 64
2, 158112, Note_on_c, 0, 74, 53
2, 158208, Note_off_c, 0, 74, 64
2, 158208, Note_on_c, 0, 72, 68
2, 158304, Note_off_c, 0, 72, 64
2, 158304, Note_on_c, 0, 76, 53
2, 158400, Note_off_c, 0, 76, 64
2, 158400, Note_on_c, 0, 79, 53
2, 158496, Note_off_c, 0, 79, 64
2, 158496, Note_on_c, 0, 77, 53
2, 158592, Note_off_c, 0, 77, 64
2, 158592, Note_on_c, 0, 76, 68
2, 158688, Note_off_c, 0, 76, 64
2, 158688, Note_on_c, 0, 84, 53
2, 158784, Note_off_c, 0, 84, 64
2, 158784, Note_on_c, 0, 79, 53
2, 158880, Note_off_c, 0, 79, 0
2, 158880, Note_on_c, 0, 81, 53
2, 158976, Note_off_c, 0, 81, 64
2, 158976, Note_on_c, 0, 79, 66
2, 159072, Note_on_c, 0, 73, 53
2, 159168, Note_off_c, 0, 73, 64
2, 159168, Note_on_c, 0, 76, 53
2, 159264, Note_off_c, 0, 76, 64
2, 159264, Note_on_c, 0, 73, 53
2, 159360, Note_off_c, 0, 73, 64
2, 159360, Note_off_c, 0, 79, 64
2, 159360, Note_on_c, 0, 77, 66
2, 159456, Note_on_c, 0, 76, 53
2, 159552, Note_off_c, 0, 76, 64
2, 159552, Note_off_c, 0, 77, 64
2, 159552, Note_on_c, 0, 74, 53
2, 159648, Note_off_c, 0, 74, 64
2, 159648, Note_on_c, 0, 73, 53
2, 159712, Note_on_c, 0, 76, 59
2, 159744, Note_off_c, 0, 73, 64
2, 159744, Note_on_c, 0, 74, 66
2, 159792, Note_off_c, 0, 76, 64
2, 159840, Note_off_c, 0, 74, 64
2, 159840, Note_on_c, 0, 73, 53
2, 159936, Note_off_c, 0, 73, 64
2, 159936, Note_on_c, 0, 74, 53
2, 160032, Note_off_c, 0, 74, 64
2, 160032, Note_on_c, 0, 76, 53
2, 160128, Note_off_c, 0, 76, 64
2, 160128, Note_on_c, 0, 74, 68
2, 160128, Note_on_c, 0, 77, 68
2, 160224, Note_off_c, 0, 74, 64
2, 160224, Note_on_c, 0, 71, 53
2, 160320, Note_off_c, 0, 71, 64
2, 160320, Note_on_c, 0, 72, 53
2, 160416, Note_off_c, 0, 72, 64
2, 160416, Note_off_c, 0, 77, 64
2, 160416, Note_on_c, 0, 74, 53
2, 160512, Note_off_c, 0, 74, 64
2, 160512, Note_on_c, 0, 76, 66
2, 160560, Note_off_c, 0, 76, 64
2, 160560, Note_on_c, 0, 77, 53
2, 160608, Note_off_c, 0, 77, 64
2, 160608, Note_on_c, 0, 76, 53
2, 160656, Note_off_c, 0, 76, 64
2, 160656, Note_on_c, 0, 77, 53
2, 160704, Note_off_c, 0, 77, 64
2, 160704, Note_on_c, 0, 77, 53
2, 160800, Note_off_c, 0, 77, 64
2, 160800, Note_on_c, 0, 79, 53
2, 160896, Note_off_c, 0, 79, 64
2, 160896, Note_on_c, 0, 81, 59
2, 160992, Note_off_c, 0, 81, 64
2, 160992, Note_on_c, 0, 80, 53
2, 161088, Note_off_c, 0, 80, 64
2, 161088, Note_on_c, 0, 81, 53
2, 161184, Note_off_c, 0, 81, 64
2, 161184, Note_on_c, 0, 80, 53
2, 161280, Note_off_c, 0, 80, 64
2, 161280, Note_on_c, 0, 81, 71
2, 161376, Note_off_c, 0, 81, 64
2, 161376, Note_on_c, 0, 80, 66
2, 161472, Note_off_c, 0, 80, 64
2, 161472, Note_on_c, 0, 81, 66
2, 161568, Note_off_c, 0, 81, 64
2, 161568, Note_on_c, 0, 80, 62
2, 161632, Note_on_c, 0, 83, 74
2, 161664, Note_off_c, 0, 80, 64
2, 161664, Note_on_c, 0, 81, 82
2, 161712, Note_off_c, 0, 83, 64
2, 161760, Note_off_c, 0, 81, 64
2, 161760, Note_on_c, 0, 80, 65
2, 161856, Note_off_c, 0, 80, 64
2, 161856, Note_on_c, 0, 81, 67
2, 161952, Note_off_c, 0, 81, 64
2, 161952, Note_on_c, 0, 83, 75
2, 162016, Note_on_c, 0, 86, 74
2, 162048, Note_off_c, 0, 83, 64
2, 162048, Note_on_c, 0, 84, 82
2, 162096, Note_off_c, 0, 86, 64
2, 162144, Note_off_c, 0, 84, 64
2, 162144, Note_on_c, 0, 83, 72
2, 162240, Note_off_c, 0, 83, 64
2, 162240, Note_on_c, 0, 84, 77
2, 162336, Note_off_c, 0, 84, 64
2, 162336, Note_on_c, 0, 85, 74
2, 162400, Note_on_c, 0, 88, 78
2, 162432, Note_off_c, 0, 85, 64
2, 162432, Note_on_c, 0, 86, 86
2, 162480, Note_off_c, 0, 88, 64
2, 162528, Note_off_c, 0, 86, 64
2, 162528, Note_on_c, 0, 85, 72
2, 162624, Note_off_c, 0, 85, 64
2, 162624, Note_on_c, 0, 86, 75
2, 162720, Note_off_c, 0, 86, 64
2, 162720, Note_on_c, 0, 88, 73
2, 162816, Note_off_c, 0, 88, 64
2, 162816, Note_on_c, 0, 79, 84
2, 162816, Note_on_c, 0, 86, 84
2, 162816, Note_on_c, 0, 89, 84
2, 163008, Note_off_c, 0, 89, 64
2, 163008, Note_off_c, 0, 86, 64
2, 163008, Note_off_c, 0, 79, 64
2, 163584, Note_on_c, 0, 55, 101
2, 163584, Note_on_c, 0, 62, 101
2, 163584, Note_on_c, 0, 65, 101
2, 163776, Note_off_c, 0, 65, 64
2, 163776, Note_off_c, 0, 62, 64
2, 163776, Note_off_c, 0, 55, 64
2, 164544, Note_on_c, 0, 79, 86
2, 164736, Note_off_c, 0, 79, 64
2, 164736, Note_on_c, 0, 79, 86
2, 164928, Note_off_c, 0, 79, 64
2, 164928, Note_on_c, 0, 84, 86
2, 165120, Note_off_c, 0, 84, 64
2, 165120, Note_on_c, 0, 79, 86
2, 165696, Note_off_c, 0, 79, 64
2, 165696, Note_on_c, 0, 76, 86
2, 165888, Note_off_c, 0, 76, 64
2, 165888, Note_on_c, 0, 78, 86
2, 165936, Note_off_c, 0, 78, 64
2, 165936, Note_on_c, 0, 79, 86
2, 165984, Note_off_c, 0, 79, 64
2, 165984, Note_on_c, 0, 78, 86
2, 166032, Note_off_c, 0, 78, 64
2, 166032, Note_on_c, 0, 79, 90
2, 166080, Note_off_c, 0, 79, 64
2, 166080, Note_on_c, 0, 79, 97
2, 166176, Note_off_c, 0, 79, 64
2, 166176, Note_on_c, 0, 81, 103
2, 166272, Note_off_c, 0, 81, 64
2, 166272, Note_on_c, 0, 78, 86
2, 166464, Note_off_c, 0, 78, 64
2, 166464, Note_on_c, 0, 79, 86
2, 166848, Note_off_c, 0, 79, 64
2, 166848, Note_on_c, 0, 76, 86
2, 167040, Note_off_c, 0, 76, 64
2, 167040, Note_on_c, 0, 77, 86
2, 167088, Note_off_c, 0, 77, 64
2, 167088, Note_on_c, 0, 79, 86
2, 167136, Note_off_c, 0, 79, 64
2, 167136, Note_on_c, 0, 77, 86
2, 167184, Note_off_c, 0, 77, 64
2, 167184, Note_on_c, 0, 79, 92
2, 167232, Note_off_c, 0, 79, 64
2, 167232, Note_on_c, 0, 79, 97
2, 167328, Note_off_c, 0, 79, 64
2, 167328, Note_on_c, 0, 81, 99
2, 167424, Note_off_c, 0, 81, 64
2, 167424, Note_on_c, 0, 78, 86
2, 167616, Note_off_c, 0, 78, 64
2, 167616, Note_on_c, 0, 79, 86
2, 168000, Note_off_c, 0, 79, 64
2, 168000, Note_on_c, 0, 76, 86
2, 168192, Note_off_c, 0, 76, 64
2, 168192, Note_on_c, 0, 77, 86
2, 168240, Note_off_c, 0, 77, 64
2, 168240, Note_on_c, 0, 79, 86
2, 168288, Note_off_c, 0, 79, 64
2, 168288, Note_on_c, 0, 77, 86
2, 168336, Note_off_c, 0, 77, 64
2, 168336, Note_on_c, 0, 76, 90
2, 168360, Note_off_c, 0, 76, 64
2, 168360, Note_on_c, 0, 77, 97
2, 168384, Note_off_c, 0, 77, 64
2, 168384, Note_on_c, 0, 79, 103
2, 168480, Note_off_c, 0, 79, 64
2, 168480, Note_on_c, 0, 81, 105
2, 168576, Note_off_c, 0, 81, 64
2, 168576, Note_on_c, 0, 74, 87
2, 168624, Note_off_c, 0, 74, 64
2, 168624, Note_on_c, 0, 76, 87
2, 168672, Note_off_c, 0, 76, 64
2, 168672, Note_on_c, 0, 74, 87
2, 168720, Note_off_c, 0, 74, 64
2, 168720, Note_on_c, 0, 73, 94
2, 168744, Note_off_c, 0, 73, 64
2, 168744, Note_on_c, 0, 74, 101
2, 168768, Note_off_c, 0, 74, 64
2, 168768, Note_on_c, 0, 76, 105
2, 168864, Note_off_c, 0, 76, 64
2, 168864, Note_on_c, 0, 77, 103
2, 168960, Note_off_c, 0, 77, 64
2, 168960, Note_on_c, 0, 71, 89
2, 169008, Note_off_c, 0, 71, 64
2, 169008, Note_on_c, 0, 72, 89
2, 169056, Note_off_c, 0, 72, 64
2, 169056, Note_on_c, 0, 71, 89
2, 169104, Note_off_c, 0, 71, 64
2, 169104, Note_on_c, 0, 69, 94
2, 169128, Note_off_c, 0, 69, 64
2, 169128, Note_on_c, 0, 71, 99
2, 169152, Note_off_c, 0, 71, 64
2, 169152, Note_on_c, 0, 72, 103
2, 169248, Note_off_c, 0, 72, 64
2, 169248, Note_on_c, 0, 74, 101
2, 169344, Note_off_c, 0, 74, 64
2, 169344, Note_on_c, 0, 67, 90
2, 169392, Note_off_c, 0, 67, 64
2, 169392, Note_on_c, 0, 69, 90
2, 169440, Note_off_c, 0, 69, 64
2, 169440, Note_on_c, 0, 67, 90
2, 169488, Note_off_c, 0, 67, 64
2, 169488, Note_on_c, 0, 66, 91
2, 169512, Note_off_c, 0, 66, 64
2, 169512, Note_on_c, 0, 67, 97
2, 169536, Note_off_c, 0, 67, 64
2, 169536, Note_on_c, 0, 69, 103
2, 169632, Note_off_c, 0, 69, 64
2, 169632, Note_on_c, 0, 71, 107
2, 169728, Note_off_c, 0, 71, 64
2, 169728, Note_on_c, 0, 72, 92
2, 169776, Note_off_c, 0, 72, 64
2, 169776, Note_on_c, 0, 74, 92
2, 169824, Note_off_c, 0, 74, 64
2, 169824, Note_on_c, 0, 72, 92
2, 169872, Note_off_c, 0, 72, 64
2, 169872, Note_on_c, 0, 71, 92
2, 169896, Note_off_c, 0, 71, 64
2, 169896, Note_on_c, 0, 72, 99
2, 169920, Note_off_c, 0, 72, 64
2, 169920, Note_on_c, 0, 76, 103
2, 170016, Note_off_c, 0, 76, 64
2, 170016, Note_on_c, 0, 79, 107
2, 170112, Note_off_c, 0, 79, 64
2, 170112, Note_on_c, 0, 88, 111
2, 170304, Note_off_c, 0, 88, 64
2, 170304, Note_on_c, 0, 84, 94
2, 170400, Note_off_c, 0, 84, 64
2, 170400, Note_on_c, 0, 82, 94
2, 170496, Note_off_c, 0, 82, 64
2, 170496, Note_on_c, 0, 83, 103
2, 170624, Note_off_c, 0, 83, 64
2, 170688, Note_on_c, 0, 79, 86
2, 170784, Note_on_c, 0, 76, 86
2, 170816, Note_off_c, 0, 79, 64
2, 170880, Note_off_c, 0, 76, 64
2, 170880, Note_on_c, 0, 71, 103
2, 171008, Note_off_c, 0, 71, 64
2, 171072, Note_on_c, 0, 76, 86
2, 171168, Note_off_c, 0, 76, 64
2, 171168, Note_on_c, 0, 79, 86
2, 171264, Note_off_c, 0, 79, 64
2, 171264, Note_on_c, 0, 83, 99
2, 171392, Note_off_c, 0, 83, 64
2, 171456, Note_on_c, 0, 78, 86
2, 171552, Note_on_c, 0, 75, 86
2, 171616, Note_off_c, 0, 78, 64
2, 171648, Note_off_c, 0, 75, 64
2, 171648, Note_on_c, 0, 80, 64
2, 171648, Note_on_c, 0, 83, 64
2, 171744, Note_off_c, 0, 83, 64
2, 171744, Note_off_c, 0, 80, 64
2, 171744, Note_on_c, 0, 88, 53
2, 171840, Note_off_c, 0, 88, 64
2, 171840, Note_on_c, 0, 76, 53
2, 171936, Note_off_c, 0, 76, 64
2, 171936, Note_on_c, 0, 88, 53
2, 172032, Note_off_c, 0, 88, 64
2, 172032, Note_on_c, 0, 76, 66
2, 172128, Note_off_c, 0, 76, 64
2, 172128, Note_on_c, 0, 88, 53
2, 172224, Note_off_c, 0, 88, 64
2, 172224, Note_on_c, 0, 76, 53
2, 172320, Note_off_c, 0, 76, 64
2, 172320, Note_on_c, 0, 88, 53
2, 172416, Note_off_c, 0, 88, 64
2, 172416, Note_on_c, 0, 76, 64
2, 172512, Note_off_c, 0, 76, 64
2, 172512, Note_on_c, 0, 88, 53
2, 172608, Note_off_c, 0, 88, 64
2, 172608, Note_on_c, 0, 76, 53
2, 172704, Note_off_c, 0, 76, 64
2, 172704, Note_on_c, 0, 88, 53
2, 172800, Note_off_c, 0, 88, 64
2, 172800, Note_on_c, 0, 76, 66
2, 172896, Note_off_c, 0, 76, 64
2, 172896, Note_on_c, 0, 88, 53
2, 172992, Note_off_c, 0, 88, 64
2, 172992, Note_on_c, 0, 76, 53
2, 173088, Note_off_c, 0, 76, 64
2, 173088, Note_on_c, 0, 88, 53
2, 173184, Note_off_c, 0, 88, 64
2, 173184, Note_on_c, 0, 76, 64
2, 173280, Note_off_c, 0, 76, 64
2, 173280, Note_on_c, 0, 88, 53
2, 173376, Note_off_c, 0, 88, 64
2, 173376, Note_on_c, 0, 76, 53
2, 173472, Note_off_c, 0, 76, 64
2, 173472, Note_on_c, 0, 88, 53
2, 173568, Note_off_c, 0, 88, 64
2, 173568, Note_on_c, 0, 76, 61
2, 173664, Note_off_c, 0, 76, 64
2, 173664, Note_on_c, 0, 88, 53
2, 173760, Note_off_c, 0, 88, 64
2, 173760, Note_on_c, 0, 76, 53
2, 173856, Note_off_c, 0, 76, 64
2, 173856, Note_on_c, 0, 88, 53
2, 173952, Note_off_c, 0, 88, 64
2, 173952, Note_on_c, 0, 76, 64
2, 174048, Note_off_c, 0, 76, 64
2, 174048, Note_on_c, 0, 79, 59
2, 174144, Note_off_c, 0, 79, 64
2, 174144, Note_on_c, 0, 84, 66
2, 174240, Note_off_c, 0, 84, 64
2, 174240, Note_on_c, 0, 88, 68
2, 174336, Note_off_c, 0, 88, 64
2, 174336, Note_on_c, 0, 77, 70
2, 174432, Note_off_c, 0, 77, 64
2, 174432, Note_on_c, 0, 81, 59
2, 174528, Note_off_c, 0, 81, 64
2, 174528, Note_on_c, 0, 84, 54
2, 174624, Note_off_c, 0, 84, 64
2, 174624, Note_on_c, 0, 89, 54
2, 174720, Note_off_c, 0, 89, 64
2, 174720, Note_on_c, 0, 70, 66
2, 174816, Note_off_c, 0, 70, 64
2, 174816, Note_on_c, 0, 76, 55
2, 174912, Note_off_c, 0, 76, 64
2, 174912, Note_on_c, 0, 79, 56
2, 175008, Note_off_c, 0, 79, 64
2, 175008, Note_on_c, 0, 82, 56
2, 175104, Note_off_c, 0, 82, 64
2, 175104, Note_on_c, 0, 69, 70
2, 175200, Note_off_c, 0, 69, 64
2, 175200, Note_on_c, 0, 72, 57
2, 175296, Note_off_c, 0, 72, 64
2, 175296, Note_on_c, 0, 77, 58
2, 175392, Note_off_c, 0, 77, 64
2, 175392, Note_on_c, 0, 81, 58
2, 175488, Note_off_c, 0, 81, 64
2, 175488, Note_on_c, 0, 73, 70
2, 175584, Note_off_c, 0, 73, 64
2, 175584, Note_on_c, 0, 76, 59
2, 175680, Note_off_c, 0, 76, 64
2, 175680, Note_on_c, 0, 81, 60
2, 175776, Note_off_c, 0, 81, 64
2, 175776, Note_on_c, 0, 85, 60
2, 175872, Note_off_c, 0, 85, 64
2, 175872, Note_on_c, 0, 74, 70
2, 175968, Note_off_c, 0, 74, 64
2, 175968, Note_on_c, 0, 77, 61
2, 176064, Note_off_c, 0, 77, 64
2, 176064, Note_on_c, 0, 81, 62
2, 176160, Note_off_c, 0, 81, 64
2, 176160, Note_on_c, 0, 86, 62
2, 176256, Note_off_c, 0, 86, 64
2, 176256, Note_on_c, 0, 76, 72
2, 176352, Note_off_c, 0, 76, 64
2, 176352, Note_on_c, 0, 79, 63
2, 176448, Note_off_c, 0, 79, 64
2, 176448, Note_on_c, 0, 88, 64
2, 176544, Note_off_c, 0, 88, 64
2, 176544, Note_on_c, 0, 86, 64
2, 176640, Note_off_c, 0, 86, 64
2, 176640, Note_on_c, 0, 85, 74
2, 176736, Note_off_c, 0, 85, 64
2, 176736, Note_on_c, 0, 82, 65
2, 176832, Note_off_c, 0, 82, 64
2, 176832, Note_on_c, 0, 81, 66
2, 176928, Note_off_c, 0, 81, 64
2, 176928, Note_on_c, 0, 79, 66
2, 177024, Note_off_c, 0, 79, 64
2, 177024, Note_on_c, 0, 77, 76
2, 177120, Note_off_c, 0, 77, 64
2, 177120, Note_on_c, 0, 76, 67
2, 177216, Note_off_c, 0, 76, 64
2, 177216, Note_on_c, 0, 77, 68
2, 177312, Note_off_c, 0, 77, 64
2, 177312, Note_on_c, 0, 81, 68
2, 177408, Note_off_c, 0, 81, 64
2, 177408, Note_on_c, 0, 74, 78
2, 177504, Note_off_c, 0, 74, 64
2, 177504, Note_on_c, 0, 79, 69
2, 177600, Note_off_c, 0, 79, 64
2, 177600, Note_on_c, 0, 86, 70
2, 177696, Note_off_c, 0, 86, 64
2, 177696, Note_on_c, 0, 84, 70
2, 177792, Note_off_c, 0, 84, 64
2, 177792, Note_on_c, 0, 83, 78
2, 177888, Note_off_c, 0, 83, 64
2, 177888, Note_on_c, 0, 81, 71
2, 177984, Note_off_c, 0, 81, 64
2, 177984, Note_on_c, 0, 79, 72
2, 178080, Note_off_c, 0, 79, 64
2, 178080, Note_on_c, 0, 77, 72
2, 178176, Note_off_c, 0, 77, 64
2, 178176, Note_on_c, 0, 76, 80
2, 178272, Note_off_c, 0, 76, 64
2, 178272, Note_on_c, 0, 74, 73
2, 178368, Note_off_c, 0, 74, 64
2, 178368, Note_on_c, 0, 76, 74
2, 178464, Note_off_c, 0, 76, 64
2, 178464, Note_on_c, 0, 79, 74
2, 178560, Note_off_c, 0, 79, 64
2, 178560, Note_on_c, 0, 72, 62
2, 178592, Note_on_c, 0, 74, 76
2, 178608, Note_off_c, 0, 74, 64
2, 178608, Note_off_c, 0, 72, 64
2, 178624, Note_on_c, 0, 72, 82
2, 178656, Note_off_c, 0, 72, 64
2, 178656, Note_on_c, 0, 71, 86
2, 178752, Note_off_c, 0, 71, 64
2, 178752, Note_on_c, 0, 72, 84
2, 178848, Note_off_c, 0, 72, 64
2, 178848, Note_on_c, 0, 76, 75
2, 178944, Note_off_c, 0, 76, 64
2, 178944, Note_on_c, 0, 67, 66
2, 178976, Note_on_c, 0, 69, 66
2, 178992, Note_off_c, 0, 69, 64
2, 178992, Note_off_c, 0, 67, 64
2, 179008, Note_on_c, 0, 67, 70
2, 179040, Note_off_c, 0, 67, 64
2, 179040, Note_on_c, 0, 66, 75
2, 179136, Note_off_c, 0, 66, 64
2, 179136, Note_on_c, 0, 67, 75
2, 179232, Note_off_c, 0, 67, 64
2, 179232, Note_on_c, 0, 72, 75
2, 179328, Note_off_c, 0, 72, 64
2, 179328, Note_on_c, 0, 64, 62
2, 179360, Note_on_c, 0, 65, 74
2, 179376, Note_off_c, 0, 65, 64
2, 179376, Note_off_c, 0, 64, 64
2, 179392, Note_on_c, 0, 64, 72
2, 179424, Note_off_c, 0, 64, 64
2, 179424, Note_on_c, 0, 63, 75
2, 179520, Note_off_c, 0, 63, 64
2, 179520, Note_on_c, 0, 64, 75
2, 179616, Note_off_c, 0, 64, 64
2, 179616, Note_on_c, 0, 67, 75
2, 179712, Note_off_c, 0, 67, 64
2, 179712, Note_on_c, 0, 60, 70
2, 179744, Note_on_c, 0, 62, 71
2, 179760, Note_off_c, 0, 62, 64
2, 179760, Note_off_c, 0, 60, 64
2, 179776, Note_on_c, 0, 60, 70
2, 179808, Note_off_c, 0, 60, 64
2, 179808, Note_on_c, 0, 59, 75
2, 179904, Note_off_c, 0, 59, 64
2, 179904, Note_on_c, 0, 60, 75
2, 180000, Note_off_c, 0, 60, 64
2, 180000, Note_on_c, 0, 64, 75
2, 180096, Note_off_c, 0, 64, 64
2, 180096, Note_on_c, 0, 55, 72
2, 180128, Note_on_c, 0, 57, 64
2, 180144, Note_off_c, 0, 57, 64
2, 180144, Note_off_c, 0, 55, 64
2, 180160, Note_on_c, 0, 55, 71
2, 180192, Note_off_c, 0, 55, 64
2, 180192, Note_on_c, 0, 54, 75
2, 180288, Note_off_c, 0, 54, 64
2, 180288, Note_on_c, 0, 55, 75
2, 180384, Note_off_c, 0, 55, 64
2, 180384, Note_on_c, 0, 60, 75
2, 180480, Note_off_c, 0, 60, 64
2, 180480, Note_on_c, 0, 52, 68
2, 180512, Note_on_c, 0, 53, 75
2, 180528, Note_off_c, 0, 53, 64
2, 180528, Note_off_c, 0, 52, 64
2, 180544, Note_on_c, 0, 52, 73
2, 180576, Note_off_c, 0, 52, 64
2, 180576, Note_on_c, 0, 51, 75
2, 180672, Note_off_c, 0, 51, 64
2, 180672, Note_on_c, 0, 52, 75
2, 180768, Note_off_c, 0, 52, 64
2, 180768, Note_on_c, 0, 55, 75
2, 180864, Note_off_c, 0, 55, 64
2, 180864, Note_on_c, 0, 48, 75
2, 180928, Note_off_c, 0, 48, 64
2, 180928, Note_on_c, 0, 50, 75
2, 180992, Note_off_c, 0, 50, 64
2, 180992, Note_on_c, 0, 52, 75
2, 181056, Note_off_c, 0, 52, 64
2, 181056, Note_on_c, 0, 53, 75
2, 181120, Note_off_c, 0, 53, 64
2, 181120, Note_on_c, 0, 55, 75
2, 181184, Note_off_c, 0, 55, 64
2, 181184, Note_on_c, 0, 57, 75
2, 181248, Note_off_c, 0, 57, 64
2, 181248, Note_on_c, 0, 59, 75
2, 181312, Note_off_c, 0, 59, 64
2, 181312, Note_on_c, 0, 60, 75
2, 181376, Note_off_c, 0, 60, 64
2, 181376, Note_on_c, 0, 62, 75
2, 181440, Note_off_c, 0, 62, 64
2, 181440, Note_on_c, 0, 64, 75
2, 181504, Note_off_c, 0, 64, 64
2, 181504, Note_on_c, 0, 65, 75
2, 181568, Note_off_c, 0, 65, 64
2, 181568, Note_on_c, 0, 67, 75
2, 181632, Note_off_c, 0, 67, 64
2, 181632, Note_on_c, 0, 69, 75
2, 181696, Note_off_c, 0, 69, 64
2, 181696, Note_on_c, 0, 71, 80
2, 181760, Note_off_c, 0, 71, 64
2, 181760, Note_on_c, 0, 72, 82
2, 181824, Note_off_c, 0, 72, 64
2, 181824, Note_on_c, 0, 74, 84
2, 181862, Note_off_c, 0, 74, 64
2, 181862, Note_on_c, 0, 76, 86
2, 181900, Note_off_c, 0, 76, 64
2, 181900, Note_on_c, 0, 77, 87
2, 181938, Note_off_c, 0, 77, 64
2, 181939, Note_on_c, 0, 79, 88
2, 181977, Note_off_c, 0, 79, 64
2, 181977, Note_on_c, 0, 81, 89
2, 182015, Note_off_c, 0, 81, 64
2, 182016, Note_on_c, 0, 72, 105
2, 182016, Note_on_c, 0, 79, 105
2, 182016, Note_on_c, 0, 82, 105
2, 182208, Note_off_c, 0, 82, 64
2, 182208, Note_off_c, 0, 79, 64
2, 182208, Note_off_c, 0, 72, 64
2, 182400, Note_on_c, 0, 72, 92
2, 182400, Note_on_c, 0, 77, 92
2, 182400, Note_on_c, 0, 81, 92
2, 182592, Note_off_c, 0, 81, 64
2, 182592, Note_off_c, 0, 77, 64
2, 182592, Note_off_c, 0, 72, 64
2, 183136, Note_on_c, 0, 69, 55
2, 183168, Note_on_c, 0, 81, 53
2, 183264, Note_off_c, 0, 69, 64
2, 183360, Note_off_c, 0, 81, 64
2, 183360, Note_on_c, 0, 77, 53
2, 183456, Note_off_c, 0, 77, 64
2, 183456, Note_on_c, 0, 74, 53
2, 183552, Note_off_c, 0, 74, 64
2, 183552, Note_on_c, 0, 67, 59
2, 183552, Note_on_c, 0, 79, 59
2, 183680, Note_off_c, 0, 67, 64
2, 183744, Note_off_c, 0, 79, 64
2, 183744, Note_on_c, 0, 76, 53
2, 183840, Note_off_c, 0, 76, 64
2, 183840, Note_on_c, 0, 72, 53
2, 183936, Note_off_c, 0, 72, 64
2, 183936, Note_on_c, 0, 67, 57
2, 183936, Note_on_c, 0, 79, 57
2, 184064, Note_off_c, 0, 67, 64
2, 184128, Note_off_c, 0, 79, 64
2, 184128, Note_on_c, 0, 74, 53
2, 184224, Note_off_c, 0, 74, 64
2, 184224, Note_on_c, 0, 71, 53
2, 184320, Note_off_c, 0, 71, 64
2, 184320, Note_on_c, 0, 67, 57
2, 184320, Note_on_c, 0, 79, 57
2, 184448, Note_off_c, 0, 67, 64
2, 184512, Note_off_c, 0, 79, 64
2, 184512, Note_on_c, 0, 74, 53
2, 184608, Note_off_c, 0, 74, 64
2, 184608, Note_on_c, 0, 71, 61
2, 184704, Note_off_c, 0, 71, 64
2, 184704, Note_on_c, 0, 79, 76
2, 184800, Note_on_c, 0, 76, 86
2, 184832, Note_off_c, 0, 79, 64
2, 184896, Note_on_c, 0, 72, 88
2, 184928, Note_off_c, 0, 76, 64
2, 184992, Note_on_c, 0, 84, 84
2, 185024, Note_off_c, 0, 72, 64
2, 185088, Note_on_c, 0, 83, 76
2, 185120, Note_off_c, 0, 84, 64
2, 185184, Note_on_c, 0, 82, 64
2, 185216, Note_off_c, 0, 83, 64
2, 185280, Note_on_c, 0, 79, 61
2, 185312, Note_off_c, 0, 82, 64
2, 185376, Note_on_c, 0, 80, 53
2, 185408, Note_off_c, 0, 79, 64
2, 185472, Note_off_c, 0, 80, 64
2, 185472, Note_on_c, 0, 69, 64
2, 185536, Note_off_c, 0, 69, 64
2, 185536, Note_on_c, 0, 81, 53
2, 185600, Note_off_c, 0, 81, 64
2, 185600, Note_on_c, 0, 80, 53
2, 185664, Note_off_c, 0, 80, 64
2, 185664, Note_on_c, 0, 81, 59
2, 185728, Note_off_c, 0, 81, 64
2, 185728, Note_on_c, 0, 77, 53
2, 185792, Note_off_c, 0, 77, 64
2, 185792, Note_on_c, 0, 74, 53
2, 185856, Note_off_c, 0, 74, 64
2, 185856, Note_on_c, 0, 67, 61
2, 185920, Note_off_c, 0, 67, 64
2, 185920, Note_on_c, 0, 79, 53
2, 185984, Note_off_c, 0, 79, 64
2, 185984, Note_on_c, 0, 78, 53
2, 186048, Note_off_c, 0, 78, 64
2, 186048, Note_on_c, 0, 79, 61
2, 186112, Note_off_c, 0, 79, 64
2, 186112, Note_on_c, 0, 76, 53
2, 186176, Note_off_c, 0, 76, 64
2, 186176, Note_on_c, 0, 72, 53
2, 186240, Note_off_c, 0, 72, 64
2, 186240, Note_on_c, 0, 67, 59
2, 186304, Note_off_c, 0, 67, 64
2, 186304, Note_on_c, 0, 79, 53
2, 186368, Note_off_c, 0, 79, 64
2, 186368, Note_on_c, 0, 78, 53
2, 186432, Note_off_c, 0, 78, 64
2, 186432, Note_on_c, 0, 79, 61
2, 186496, Note_off_c, 0, 79, 64
2, 186496, Note_on_c, 0, 74, 53
2, 186560, Note_off_c, 0, 74, 64
2, 186560, Note_on_c, 0, 71, 53
2, 186624, Note_off_c, 0, 71, 64
2, 186816, Note_on_c, 0, 79, 64
2, 187008, Note_on_c, 0, 72, 53
2, 187168, Note_off_c, 0, 79, 64
2, 187200, Note_off_c, 0, 72, 64
2, 187584, Note_on_c, 0, 55, 64
2, 187776, Note_on_c, 0, 48, 53
2, 187904, Note_off_c, 0, 55, 64
2, 187968, Note_off_c, 0, 48, 64
2, 187968, Note_on_c, 0, 84, 66
2, 188160, Note_on_c, 0, 76, 53
2, 188256, Note_off_c, 0, 84, 64
2, 188352, Note_off_c, 0, 76, 64
2, 188736, Note_on_c, 0, 60, 61
2, 188928, Note_on_c, 0, 52, 53
2, 189024, Note_off_c, 0, 60, 64
2, 189120, Note_off_c, 0, 52, 64
2, 189120, Note_on_c, 0, 88, 68
2, 189312, Note_on_c, 0, 79, 53
2, 189440, Note_off_c, 0, 88, 64
2, 189504, Note_off_c, 0, 79, 64
2, 189888, Note_on_c, 0, 64, 64
2, 190080, Note_on_c, 0, 55, 51
2, 190208, Note_off_c, 0, 64, 64
2, 190272, Note_off_c, 0, 55, 64
2, 192384, Control_c, 0, 10, 112
2, 192576, Note_on_c, 0, 79, 86
2, 192768, Note_on_c, 0, 67, 76
2, 192896, Note_off_c, 0, 79, 64
2, 192960, Note_off_c, 0, 67, 64
2, 192960, Note_on_c, 0, 84, 94
2, 193152, Note_on_c, 0, 72, 86
2, 193248, Note_off_c, 0, 84, 64
2, 193344, Note_off_c, 0, 72, 64
2, 193344, Note_on_c, 0, 88, 94
2, 193344, Note_on_c, 0, 91, 94
2, 193536, Note_off_c, 0, 91, 64
2, 193536, Note_off_c, 0, 88, 64
2, 193536, Note_on_c, 0, 86, 74
2, 193536, Note_on_c, 0, 91, 74
2, 193584, Note_off_c, 0, 91, 64
2, 193584, Note_off_c, 0, 86, 64
2, 193584, Note_on_c, 0, 93, 74
2, 193632, Note_off_c, 0, 93, 64
2, 193632, Note_on_c, 0, 86, 73
2, 193632, Note_on_c, 0, 91, 73
2, 193680, Note_off_c, 0, 91, 64
2, 193680, Note_off_c, 0, 86, 64
2, 193680, Note_on_c, 0, 93, 72
2, 193728, Note_off_c, 0, 93, 64
2, 193728, Note_on_c, 0, 86, 72
2, 193728, Note_on_c, 0, 91, 72
2, 193776, Note_off_c, 0, 91, 64
2, 193776, Note_off_c, 0, 86, 64
2, 193776, Note_on_c, 0, 93, 71
2, 193824, Note_off_c, 0, 93, 64
2, 193824, Note_on_c, 0, 86, 70
2, 193824, Note_on_c, 0, 91, 70
2, 193872, Note_off_c, 0, 91, 64
2, 193872, Note_off_c, 0, 86, 64
2, 193872, Note_on_c, 0, 93, 70
2, 193920, Note_off_c, 0, 93, 64
2, 193920, Note_on_c, 0, 86, 69
2, 193920, Note_on_c, 0, 91, 69
2, 193968, Note_off_c, 0, 91, 64
2, 193968, Note_off_c, 0, 86, 64
2, 193968, Note_on_c, 0, 93, 68
2, 194016, Note_off_c, 0, 93, 64
2, 194016, Note_on_c, 0, 86, 68
2, 194016, Note_on_c, 0, 91, 68
2, 194064, Note_off_c, 0, 91, 64
2, 194064, Note_off_c, 0, 86, 64
2, 194064, Note_on_c, 0, 93, 67
2, 194112, Note_off_c, 0, 93, 64
2, 194112, Note_on_c, 0, 86, 66
2, 194112, Note_on_c, 0, 91, 66
2, 194160, Note_off_c, 0, 91, 64
2, 194160, Note_off_c, 0, 86, 64
2, 194160, Note_on_c, 0, 93, 68
2, 194208, Note_off_c, 0, 93, 64
2, 194208, Note_on_c, 0, 83, 69
2, 194208, Note_on_c, 0, 86, 69
2, 194208, Note_on_c, 0, 91, 69
2, 194256, Note_off_c, 0, 91, 64
2, 194256, Note_off_c, 0, 86, 64
2, 194256, Note_off_c, 0, 83, 64
2, 194256, Note_on_c, 0, 84, 70
2, 194256, Note_on_c, 0, 93, 70
2, 194304, Note_off_c, 0, 93, 64
2, 194304, Note_off_c, 0, 84, 64
2, 194304, Note_on_c, 0, 83, 72
2, 194304, Note_on_c, 0, 86, 72
2, 194304, Note_on_c, 0, 91, 72
2, 194352, Note_off_c, 0, 91, 64
2, 194352, Note_off_c, 0, 86, 64
2, 194352, Note_off_c, 0, 83, 64
2, 194352, Note_on_c, 0, 84, 72
2, 194352, Note_on_c, 0, 93, 72
2, 194400, Note_off_c, 0, 93, 64
2, 194400, Note_off_c, 0, 84, 64
2, 194400, Note_on_c, 0, 83, 72
2, 194400, Note_on_c, 0, 86, 72
2, 194400, Note_on_c, 0, 91, 72
2, 194448, Note_off_c, 0, 91, 64
2, 194448, Note_off_c, 0, 86, 64
2, 194448, Note_off_c, 0, 83, 64
2, 194448, Note_on_c, 0, 84, 72
2, 194448, Note_on_c, 0, 93, 72
2, 194496, Note_off_c, 0, 93, 64
2, 194496, Note_off_c, 0, 84, 64
2, 194496, Note_on_c, 0, 83, 71
2, 194496, Note_on_c, 0, 86, 71
2, 194496, Note_on_c, 0, 91, 71
2, 194544, Note_off_c, 0, 91, 64
2, 194544, Note_off_c, 0, 86, 64
2, 194544, Note_off_c, 0, 83, 64
2, 194544, Note_on_c, 0, 84, 70
2, 194544, Note_on_c, 0, 93, 70
2, 194592, Note_off_c, 0, 93, 64
2, 194592, Note_off_c, 0, 84, 64
2, 194592, Note_on_c, 0, 90, 68
2, 194640, Note_off_c, 0, 90, 64
2, 194640, Note_on_c, 0, 91, 66
2, 194688, Note_off_c, 0, 91, 64
2, 194688, Note_on_c, 0, 88, 64
2, 194688, Note_on_c, 0, 93, 70
2, 194880, Note_on_c, 0, 86, 61
2, 194880, Note_on_c, 0, 91, 67
2, 194958, Note_off_c, 0, 93, 64
2, 194958, Note_off_c, 0, 88, 64
2, 195008, Note_off_c, 0, 91, 64
2, 195008, Note_off_c, 0, 86, 64
2, 195072, Note_on_c, 0, 84, 58
2, 195072, Note_on_c, 0, 89, 64
2, 195200, Note_off_c, 0, 89, 64
2, 195200, Note_off_c, 0, 84, 64
2, 195264, Note_on_c, 0, 83, 56
2, 195264, Note_on_c, 0, 88, 62
2, 195392, Note_off_c, 0, 88, 64
2, 195392, Note_off_c, 0, 83, 64
2, 195456, Note_on_c, 0, 81, 53
2, 195456, Note_on_c, 0, 86, 59
2, 195584, Note_off_c, 0, 86, 64
2, 195584, Note_off_c, 0, 81, 64
2, 195648, Note_on_c, 0, 79, 50
2, 195648, Note_on_c, 0, 84, 56
2, 195776, Note_off_c, 0, 84, 64
2, 195776, Note_off_c, 0, 79, 64
2, 195840, Note_on_c, 0, 77, 48
2, 195840, Note_on_c, 0, 83, 54
2, 195968, Note_off_c, 0, 83, 64
2, 195968, Note_off_c, 0, 77, 64
2, 196032, Note_on_c, 0, 76, 45
2, 196032, Note_on_c, 0, 81, 51
2, 196044, Control_c, 0, 64, 127
2, 196596, Control_c, 0, 64, 0
2, 196608, Note_off_c, 0, 81, 64
2, 196608, Note_off_c, 0, 76, 64
2, 196800, Note_on_c, 0, 71, 35
2, 196800, Note_on_c, 0, 74, 35
2, 196800, Note_on_c, 0, 79, 35
2, 196878, Note_off_c, 0, 79, 64
2, 196878, Note_off_c, 0, 74, 64
2, 196878, Note_off_c, 0, 71, 64
2, 196896, Note_on_c, 0, 71, 35
2, 196896, Note_on_c, 0, 74, 35
2, 196896, Note_on_c, 0, 79, 35
2, 196974, Note_off_c, 0, 79, 64
2, 196974, Note_off_c, 0, 74, 64
2, 196974, Note_off_c, 0, 71, 64
2, 196992, Note_on_c, 0, 71, 35
2, 196992, Note_on_c, 0, 74, 35
2, 196992, Note_on_c, 0, 79, 35
2, 197076, Note_off_c, 0, 79, 64
2, 197088, Note_off_c, 0, 74, 64
2, 197088, Note_off_c, 0, 71, 64
2, 197184, Note_on_c, 0, 74, 35
2, 197184, Note_on_c, 0, 79, 35
2, 197184, Note_on_c, 0, 83, 35
2, 197280, Note_off_c, 0, 74, 64
2, 197286, Note_off_c, 0, 83, 64
2, 197286, Note_off_c, 0, 79, 64
2, 197376, Note_on_c, 0, 76, 35
2, 197376, Note_on_c, 0, 79, 35
2, 197376, Note_on_c, 0, 84, 35
2, 197472, Note_off_c, 0, 76, 64
2, 197478, Note_off_c, 0, 84, 64
2, 197478, Note_off_c, 0, 79, 64
2, 197568, Note_on_c, 0, 76, 35
2, 197568, Note_on_c, 0, 79, 35
2, 197568, Note_on_c, 0, 88, 35
2, 197664, Note_off_c, 0, 76, 64
2, 197670, Note_off_c, 0, 88, 64
2, 197670, Note_off_c, 0, 79, 64
2, 197952, Note_on_c, 0, 79, 35
2, 197952, Note_on_c, 0, 86, 35
2, 197952, Note_on_c, 0, 91, 35
2, 198030, Note_off_c, 0, 91, 64
2, 198030, Note_off_c, 0, 86, 64
2, 198030, Note_off_c, 0, 79, 64
2, 198048, Note_on_c, 0, 79, 35
2, 198048, Note_on_c, 0, 86, 35
2, 198048, Note_on_c, 0, 91, 35
2, 198126, Note_off_c, 0, 91, 64
2, 198126, Note_off_c, 0, 86, 0
2, 198126, Note_off_c, 0, 79, 0
2, 198144, Note_on_c, 0, 79, 35
2, 198144, Note_on_c, 0, 86, 35
2, 198144, Note_on_c, 0, 91, 35
2, 198336, Note_off_c, 0, 91, 64
2, 198336, Note_off_c, 0, 86, 64
2, 198336, Note_off_c, 0, 79, 64
2, 198336, Note_on_c, 0, 77, 35
2, 198336, Note_on_c, 0, 86, 35
2, 198336, Note_on_c, 0, 89, 35
2, 198528, Note_off_c, 0, 89, 64
2, 198528, Note_off_c, 0, 86, 64
2, 198528, Note_off_c, 0, 77, 64
2, 198528, Note_on_c, 0, 76, 35
2, 198528, Note_on_c, 0, 84, 35
2, 198528, Note_on_c, 0, 88, 35
2, 198702, Note_off_c, 0, 84, 64
2, 198702, Note_off_c, 0, 76, 64
2, 198720, Note_off_c, 0, 88, 64
2, 198720, Note_on_c, 0, 72, 35
2, 198720, Note_on_c, 0, 76, 35
2, 198720, Note_on_c, 0, 84, 35
2, 198912, Note_off_c, 0, 84, 64
2, 198912, Note_off_c, 0, 76, 64
2, 198912, Note_off_c, 0, 72, 64
2, 199104, Note_on_c, 0, 71, 46
2, 199104, Note_on_c, 0, 74, 46
2, 199104, Note_on_c, 0, 79, 46
2, 199182, Note_off_c, 0, 79, 64
2, 199182, Note_off_c, 0, 74, 64
2, 199182, Note_off_c, 0, 71, 64
2, 199200, Note_on_c, 0, 71, 55
2, 199200, Note_on_c, 0, 74, 55
2, 199200, Note_on_c, 0, 79, 55
2, 199278, Note_off_c, 0, 79, 64
2, 199278, Note_off_c, 0, 74, 0
2, 199278, Note_off_c, 0, 71, 64
2, 199296, Note_on_c, 0, 71, 57
2, 199296, Note_on_c, 0, 74, 57
2, 199296, Note_on_c, 0, 79, 57
2, 199470, Note_off_c, 0, 79, 64
2, 199470, Note_off_c, 0, 74, 64
2, 199488, Note_off_c, 0, 71, 64
2, 199488, Note_on_c, 0, 74, 68
2, 199488, Note_on_c, 0, 79, 68
2, 199488, Note_on_c, 0, 83, 68
2, 199662, Note_off_c, 0, 79, 64
2, 199680, Note_off_c, 0, 83, 64
2, 199680, Note_off_c, 0, 74, 64
2, 199680, Note_on_c, 0, 76, 74
2, 199680, Note_on_c, 0, 79, 74
2, 199680, Note_on_c, 0, 84, 74
2, 199854, Note_off_c, 0, 84, 64
2, 199854, Note_off_c, 0, 79, 64
2, 199872, Note_off_c, 0, 76, 64
2, 199872, Note_on_c, 0, 76, 80
2, 199872, Note_on_c, 0, 79, 80
2, 199872, Note_on_c, 0, 84, 80
2, 199872, Note_on_c, 0, 88, 80
2, 200046, Note_off_c, 0, 84, 64
2, 200064, Note_off_c, 0, 88, 64
2, 200064, Note_off_c, 0, 79, 64
2, 200064, Note_off_c, 0, 76, 64
2, 200064, Note_on_c, 0, 77, 86
2, 200064, Note_on_c, 0, 84, 86
2, 200064, Note_on_c, 0, 89, 86
2, 200160, Note_off_c, 0, 89, 64
2, 200160, Note_off_c, 0, 84, 64
2, 200160, Note_off_c, 0, 77, 64
2, 200256, Note_on_c, 0, 81, 88
2, 200256, Note_on_c, 0, 84, 88
2, 200256, Note_on_c, 0, 89, 88
2, 200256, Note_on_c, 0, 93, 88
2, 200352, Note_off_c, 0, 93, 64
2, 200352, Note_off_c, 0, 89, 64
2, 200352, Note_off_c, 0, 84, 64
2, 200352, Note_off_c, 0, 81, 64
2, 200448, Note_on_c, 0, 79, 90
2, 200448, Note_on_c, 0, 84, 90
2, 200448, Note_on_c, 0, 88, 90
2, 200448, Note_on_c, 0, 91, 90
2, 200544, Note_off_c, 0, 91, 64
2, 200544, Note_off_c, 0, 88, 64
2, 200544, Note_off_c, 0, 84, 64
2, 200544, Note_off_c, 0, 79, 64
2, 200640, Note_on_c, 0, 71, 106
2, 200640, Note_on_c, 0, 74, 106
2, 200640, Note_on_c, 0, 79, 106
2, 200640, Note_on_c, 0, 83, 106
2, 200736, Note_off_c, 0, 83, 64
2, 200736, Note_off_c, 0, 79, 64
2, 200736, Note_off_c, 0, 74, 64
2, 200736, Note_off_c, 0, 71, 64
2, 200832, Note_on_c, 0, 72, 117
2, 200832, Note_on_c, 0, 76, 117
2, 200832, Note_on_c, 0, 79, 117
2, 200832, Note_on_c, 0, 84, 117
2, 201088, Note_off_c, 0, 84, 64
2, 201088, Note_off_c, 0, 79, 64
2, 201088, Note_off_c, 0, 76, 64
2, 201088, Note_off_c, 0, 72, 64
2, 201216, End_track
3, 0, Start_track
3, 0, Title_t, "bass"
3, 0, Control_c, 0, 10, 18
3, 0, Program_c, 0, 0
3, 0, Control_c, 0, 91, 40
3, 0, Control_c, 0, 121, 0
3, 0, Text_t, "Beethoven.Polonaise Opus 89.Dec.1814.\000\000\000\000\000"
3, 0, Note_on_c, 0, 36, 104
3, 0, Note_on_c, 0, 40, 104
3, 0, Note_on_c, 0, 43, 104
3, 0, Note_on_c, 0, 48, 104
3, 1, Text_t, "Eric Halstead.Copyright 1999.\000\000\000\000\000"
3, 192, Note_off_c, 0, 48, 64
3, 192, Note_off_c, 0, 43, 64
3, 192, Note_off_c, 0, 40, 64
3, 192, Note_off_c, 0, 36, 64
3, 480, Note_on_c, 0, 40, 51
3, 576, Note_off_c, 0, 40, 64
3, 576, Note_on_c, 0, 41, 51
3, 672, Note_off_c, 0, 41, 64
3, 672, Note_on_c, 0, 43, 51
3, 768, Note_off_c, 0, 43, 64
3, 768, Note_on_c, 0, 45, 59
3, 864, Note_off_c, 0, 45, 64
3, 864, Note_on_c, 0, 43, 51
3, 960, Note_off_c, 0, 43, 64
3, 960, Note_on_c, 0, 45, 51
3, 1056, Note_off_c, 0, 45, 64
3, 1056, Note_on_c, 0, 47, 51
3, 1152, Note_off_c, 0, 47, 64
3, 1152, Note_on_c, 0, 48, 59
3, 1248, Note_off_c, 0, 48, 64
3, 1248, Note_on_c, 0, 52, 51
3, 1344, Note_off_c, 0, 52, 64
3, 1344, Note_on_c, 0, 53, 52
3, 1440, Note_off_c, 0, 53, 64
3, 1440, Note_on_c, 0, 55, 53
3, 1536, Note_off_c, 0, 55, 64
3, 1536, Note_on_c, 0, 57, 66
3, 1632, Note_off_c, 0, 57, 64
3, 1632, Note_on_c, 0, 55, 55
3, 1728, Note_off_c, 0, 55, 64
3, 1728, Note_on_c, 0, 57, 56
3, 1824, Note_off_c, 0, 57, 64
3, 1824, Note_on_c, 0, 59, 57
3, 1920, Note_off_c, 0, 59, 64
3, 1920, Note_on_c, 0, 60, 70
3, 2016, Note_off_c, 0, 60, 64
3, 2016, Note_on_c, 0, 64, 59
3, 2112, Note_off_c, 0, 64, 64
3, 2112, Note_on_c, 0, 65, 60
3, 2208, Note_off_c, 0, 65, 64
3, 2208, Note_on_c, 0, 67, 61
3, 2304, Note_off_c, 0, 67, 64
3, 2304, Note_on_c, 0, 69, 72
3, 2400, Note_off_c, 0, 69, 64
3, 2400, Note_on_c, 0, 67, 63
3, 2496, Note_off_c, 0, 67, 0
3, 2496, Note_on_c, 0, 69, 64
3, 2592, Note_off_c, 0, 69, 64
3, 2592, Note_on_c, 0, 71, 65
3, 2688, Note_off_c, 0, 71, 64
3, 2688, Note_on_c, 0, 72, 74
3, 2784, Note_off_c, 0, 72, 64
3, 2784, Note_on_c, 0, 76, 67
3, 2880, Note_off_c, 0, 76, 64
3, 2880, Note_on_c, 0, 77, 68
3, 2976, Note_off_c, 0, 77, 64
3, 2976, Note_on_c, 0, 74, 69
3, 3072, Note_off_c, 0, 74, 64
3, 3072, Note_on_c, 0, 76, 78
3, 3168, Note_off_c, 0, 76, 64
3, 3168, Note_on_c, 0, 74, 71
3, 3264, Note_off_c, 0, 74, 64
3, 3264, Note_on_c, 0, 76, 72
3, 3360, Note_off_c, 0, 76, 64
3, 3360, Note_on_c, 0, 83, 73
3, 3456, Note_off_c, 0, 83, 64
3, 3456, Note_on_c, 0, 84, 80
3, 3552, Note_off_c, 0, 84, 64
3, 3552, Note_on_c, 0, 83, 75
3, 3648, Note_off_c, 0, 83, 64
3, 3648, Note_on_c, 0, 84, 76
3, 3744, Note_off_c, 0, 84, 64
3, 3744, Note_on_c, 0, 86, 77
3, 3840, Note_off_c, 0, 86, 64
3, 3840, Note_on_c, 0, 88, 86
3, 3936, Note_on_c, 0, 87, 79
3, 3971, Note_off_c, 0, 88, 64
3, 4032, Note_on_c, 0, 88, 80
3, 4067, Note_off_c, 0, 87, 64
3, 4128, Note_on_c, 0, 87, 81
3, 4163, Note_off_c, 0, 88, 64
3, 4224, Note_on_c, 0, 88, 88
3, 4259, Note_off_c, 0, 87, 64
3, 4320, Note_on_c, 0, 87, 83
3, 4355, Note_off_c, 0, 88, 64
3, 4416, Note_on_c, 0, 88, 84
3, 4451, Note_off_c, 0, 87, 64
3, 4512, Note_on_c, 0, 87, 85
3, 4547, Note_off_c, 0, 88, 64
3, 4608, Note_on_c, 0, 79, 86
3, 4632, Note_on_c, 0, 81, 99
3, 4643, Note_off_c, 0, 87, 64
3, 4647, Note_off_c, 0, 79, 64
3, 4656, Note_on_c, 0, 79, 84
3, 4671, Note_off_c, 0, 81, 64
3, 4680, Note_on_c, 0, 81, 97
3, 4695, Note_off_c, 0, 79, 64
3, 4704, Note_on_c, 0, 79, 82
3, 4719, Note_off_c, 0, 81, 64
3, 4728, Note_on_c, 0, 81, 88
3, 4743, Note_off_c, 0, 79, 64
3, 4752, Note_on_c, 0, 79, 80
3, 4767, Note_off_c, 0, 81, 64
3, 4776, Note_on_c, 0, 81, 86
3, 4791, Note_off_c, 0, 79, 64
3, 4800, Note_on_c, 0, 79, 78
3, 4815, Note_off_c, 0, 81, 64
3, 4824, Note_on_c, 0, 81, 84
3, 4839, Note_off_c, 0, 79, 64
3, 4848, Note_on_c, 0, 79, 76
3, 4863, Note_off_c, 0, 81, 64
3, 4872, Note_on_c, 0, 81, 82
3, 4887, Note_off_c, 0, 79, 64
3, 4896, Note_on_c, 0, 79, 74
3, 4911, Note_off_c, 0, 81, 64
3, 4920, Note_on_c, 0, 81, 80
3, 4935, Note_off_c, 0, 79, 64
3, 4944, Note_on_c, 0, 79, 72
3, 4959, Note_off_c, 0, 81, 64
3, 4968, Note_on_c, 0, 81, 78
3, 4983, Note_off_c, 0, 79, 64
3, 4992, Note_on_c, 0, 79, 70
3, 5007, Note_off_c, 0, 81, 64
3, 5016, Note_on_c, 0, 81, 76
3, 5031, Note_off_c, 0, 79, 64
3, 5040, Note_on_c, 0, 79, 68
3, 5055, Note_off_c, 0, 81, 64
3, 5064, Note_on_c, 0, 81, 74
3, 5079, Note_off_c, 0, 79, 64
3, 5088, Note_on_c, 0, 79, 66
3, 5103, Note_off_c, 0, 81, 64
3, 5112, Note_on_c, 0, 81, 72
3, 5127, Note_off_c, 0, 79, 64
3, 5136, Note_on_c, 0, 79, 64
3, 5151, Note_off_c, 0, 81, 64
3, 5160, Note_on_c, 0, 81, 70
3, 5175, Note_off_c, 0, 79, 64
3, 5184, Note_on_c, 0, 79, 62
3, 5199, Note_off_c, 0, 81, 64
3, 5208, Note_on_c, 0, 81, 68
3, 5223, Note_off_c, 0, 79, 64
3, 5232, Note_on_c, 0, 79, 60
3, 5247, Note_off_c, 0, 81, 64
3, 5256, Note_on_c, 0, 81, 66
3, 5271, Note_off_c, 0, 79, 64
3, 5280, Note_on_c, 0, 79, 58
3, 5295, Note_off_c, 0, 81, 64
3, 5304, Note_on_c, 0, 81, 64
3, 5319, Note_off_c, 0, 79, 64
3, 5328, Note_on_c, 0, 79, 56
3, 5343, Note_off_c, 0, 81, 64
3, 5352, Note_on_c, 0, 81, 62
3, 5367, Note_off_c, 0, 79, 64
3, 5376, Note_on_c, 0, 79, 48
3, 5391, Note_off_c, 0, 81, 64
3, 5400, Note_on_c, 0, 81, 54
3, 5415, Note_off_c, 0, 79, 64
3, 5424, Note_on_c, 0, 79, 46
3, 5439, Note_off_c, 0, 81, 64
3, 5448, Note_on_c, 0, 81, 52
3, 5463, Note_off_c, 0, 79, 64
3, 5472, Note_on_c, 0, 79, 44
3, 5487, Note_off_c, 0, 81, 64
3, 5496, Note_on_c, 0, 81, 50
3, 5511, Note_off_c, 0, 79, 64
3, 5520, Note_on_c, 0, 79, 42
3, 5535, Note_off_c, 0, 81, 64
3, 5544, Note_on_c, 0, 81, 48
3, 5559, Note_off_c, 0, 79, 64
3, 5568, Note_on_c, 0, 79, 40
3, 5583, Note_off_c, 0, 81, 64
3, 5592, Note_on_c, 0, 81, 46
3, 5607, Note_off_c, 0, 79, 64
3, 5616, Note_on_c, 0, 79, 38
3, 5631, Note_off_c, 0, 81, 64
3, 5640, Note_on_c, 0, 81, 44
3, 5655, Note_off_c, 0, 79, 64
3, 5664, Note_on_c, 0, 79, 36
3, 5679, Note_off_c, 0, 81, 64
3, 5688, Note_on_c, 0, 81, 42
3, 5703, Note_off_c, 0, 79, 64
3, 5712, Note_on_c, 0, 79, 34
3, 5727, Note_off_c, 0, 81, 64
3, 5736, Note_on_c, 0, 81, 40
3, 5751, Note_off_c, 0, 79, 64
3, 5760, Note_on_c, 0, 87, 38
3, 5775, Note_off_c, 0, 81, 64
3, 5808, Note_on_c, 0, 86, 38
3, 5843, Note_off_c, 0, 87, 64
3, 5856, Note_on_c, 0, 85, 38
3, 5891, Note_off_c, 0, 86, 64
3, 5904, Note_on_c, 0, 84, 38
3, 5939, Note_off_c, 0, 85, 64
3, 5952, Note_on_c, 0, 83, 38
3, 5987, Note_off_c, 0, 84, 64
3, 6000, Note_on_c, 0, 82, 38
3, 6035, Note_off_c, 0, 83, 64
3, 6048, Note_on_c, 0, 81, 38
3, 6083, Note_off_c, 0, 82, 64
3, 6096, Note_on_c, 0, 80, 38
3, 6131, Note_off_c, 0, 81, 64
3, 6144, Note_on_c, 0, 79, 38
3, 6179, Note_off_c, 0, 80, 64
3, 6192, Note_on_c, 0, 78, 40
3, 6227, Note_off_c, 0, 79, 64
3, 6240, Note_on_c, 0, 77, 40
3, 6275, Note_off_c, 0, 78, 64
3, 6288, Note_on_c, 0, 76, 43
3, 6308, Note_off_c, 0, 77, 64
3, 6480, Note_off_c, 0, 76, 64
3, 6480, Note_on_c, 0, 76, 49
3, 6672, Note_on_c, 0, 77, 43
3, 6716, Note_off_c, 0, 76, 64
3, 6864, Note_on_c, 0, 73, 46
3, 6908, Note_off_c, 0, 77, 64
3, 7056, Note_on_c, 0, 76, 46
3, 7100, Note_off_c, 0, 73, 64
3, 7248, Note_on_c, 0, 75, 53
3, 7292, Note_off_c, 0, 76, 64
3, 7440, Note_on_c, 0, 74, 53
3, 7484, Note_off_c, 0, 75, 64
3, 7824, Note_off_c, 0, 74, 64
3, 8064, Control_c, 0, 10, 18
3, 8064, Program_c, 0, 0
3, 8064, Control_c, 0, 10, 18
3, 8064, Control_c, 0, 64, 127
3, 9276, Control_c, 0, 64, 0
3, 9372, Control_c, 0, 64, 0
3, 9444, Control_c, 0, 64, 127
3, 12222, Control_c, 0, 64, 0
3, 13758, Control_c, 0, 64, 0
3, 13824, Note_on_c, 0, 48, 68
3, 14016, Note_off_c, 0, 48, 64
3, 14016, Note_on_c, 0, 60, 51
3, 14016, Note_on_c, 0, 64, 51
3, 14016, Note_on_c, 0, 67, 51
3, 14112, Note_off_c, 0, 67, 64
3, 14112, Note_off_c, 0, 64, 64
3, 14112, Note_off_c, 0, 60, 64
3, 14112, Note_on_c, 0, 60, 51
3, 14112, Note_on_c, 0, 64, 51
3, 14112, Note_on_c, 0, 67, 51
3, 14208, Note_off_c, 0, 67, 64
3, 14208, Note_off_c, 0, 64, 0
3, 14208, Note_off_c, 0, 60, 0
3, 14208, Note_on_c, 0, 60, 42
3, 14208, Note_on_c, 0, 64, 41
3, 14208, Note_on_c, 0, 67, 46
3, 14400, Note_off_c, 0, 67, 64
3, 14400, Note_off_c, 0, 64, 0
3, 14400, Note_off_c, 0, 60, 0
3, 14400, Note_on_c, 0, 60, 42
3, 14400, Note_on_c, 0, 64, 43
3, 14400, Note_on_c, 0, 67, 41
3, 14592, Note_off_c, 0, 67, 64
3, 14592, Note_off_c, 0, 64, 64
3, 14592, Note_off_c, 0, 60, 64
3, 14592, Note_on_c, 0, 60, 40
3, 14592, Note_on_c, 0, 64, 39
3, 14592, Note_on_c, 0, 67, 36
3, 14784, Note_off_c, 0, 67, 64
3, 14784, Note_off_c, 0, 64, 64
3, 14784, Note_off_c, 0, 60, 64
3, 14784, Note_on_c, 0, 60, 36
3, 14784, Note_on_c, 0, 64, 42
3, 14784, Note_on_c, 0, 67, 36
3, 14976, Note_off_c, 0, 67, 64
3, 14976, Note_off_c, 0, 64, 64
3, 14976, Note_off_c, 0, 60, 64
3, 14976, Note_on_c, 0, 48, 68
3, 15168, Note_off_c, 0, 48, 64
3, 15168, Note_on_c, 0, 60, 59
3, 15168, Note_on_c, 0, 65, 59
3, 15168, Note_on_c, 0, 69, 59
3, 15264, Note_off_c, 0, 69, 64
3, 15264, Note_off_c, 0, 65, 64
3, 15264, Note_off_c, 0, 60, 64
3, 15264, Note_on_c, 0, 60, 57
3, 15264, Note_on_c, 0, 65, 57
3, 15264, Note_on_c, 0, 69, 57
3, 15360, Note_off_c, 0, 69, 64
3, 15360, Note_off_c, 0, 65, 64
3, 15360, Note_off_c, 0, 60, 64
3, 15360, Note_on_c, 0, 48, 57
3, 15552, Note_off_c, 0, 48, 64
3, 15552, Note_on_c, 0, 60, 57
3, 15552, Note_on_c, 0, 64, 57
3, 15552, Note_on_c, 0, 67, 57
3, 15648, Note_off_c, 0, 67, 64
3, 15648, Note_off_c, 0, 64, 64
3, 15648, Note_off_c, 0, 60, 64
3, 15648, Note_on_c, 0, 60, 57
3, 15648, Note_on_c, 0, 64, 57
3, 15648, Note_on_c, 0, 67, 57
3, 15744, Note_off_c, 0, 67, 64
3, 15744, Note_off_c, 0, 64, 64
3, 15744, Note_off_c, 0, 60, 64
3, 15744, Note_on_c, 0, 60, 42
3, 15744, Note_on_c, 0, 64, 48
3, 15744, Note_on_c, 0, 67, 49
3, 15936, Note_off_c, 0, 67, 64
3, 15936, Note_off_c, 0, 64, 64
3, 15936, Note_off_c, 0, 60, 64
3, 15936, Note_on_c, 0, 61, 48
3, 15936, Note_on_c, 0, 64, 51
3, 16128, Note_off_c, 0, 64, 64
3, 16128, Note_off_c, 0, 61, 64
3, 16128, Note_on_c, 0, 62, 40
3, 16128, Note_on_c, 0, 65, 45
3, 16320, Note_off_c, 0, 65, 64
3, 16320, Note_off_c, 0, 62, 64
3, 16320, Note_on_c, 0, 64, 45
3, 16320, Note_on_c, 0, 67, 48
3, 16512, Note_off_c, 0, 67, 64
3, 16512, Note_off_c, 0, 64, 64
3, 16512, Note_on_c, 0, 65, 53
3, 16512, Note_on_c, 0, 69, 38
3, 16704, Note_off_c, 0, 69, 64
3, 16704, Note_off_c, 0, 65, 64
3, 16704, Note_on_c, 0, 54, 45
3, 16704, Note_on_c, 0, 57, 38
3, 16896, Note_off_c, 0, 57, 64
3, 16896, Note_off_c, 0, 54, 64
3, 16896, Note_on_c, 0, 55, 51
3, 16896, Note_on_c, 0, 59, 48
3, 17088, Note_off_c, 0, 59, 64
3, 17088, Note_off_c, 0, 55, 64
3, 17088, Note_on_c, 0, 50, 55
3, 17088, Note_on_c, 0, 60, 53
3, 17280, Note_off_c, 0, 60, 64
3, 17280, Note_off_c, 0, 50, 64
3, 17472, Note_on_c, 0, 55, 54
3, 17472, Note_on_c, 0, 59, 49
3, 17664, Note_off_c, 0, 59, 64
3, 17664, Note_off_c, 0, 55, 64
3, 17664, Note_on_c, 0, 43, 78
3, 17856, Note_off_c, 0, 43, 64
3, 17856, Note_on_c, 0, 55, 59
3, 17856, Note_on_c, 0, 59, 59
3, 17856, Note_on_c, 0, 62, 59
3, 17952, Note_off_c, 0, 62, 64
3, 17952, Note_off_c, 0, 59, 64
3, 17952, Note_off_c, 0, 55, 64
3, 17952, Note_on_c, 0, 55, 57
3, 17952, Note_on_c, 0, 59, 57
3, 17952, Note_on_c, 0, 62, 57
3, 18048, Note_off_c, 0, 62, 64
3, 18048, Note_off_c, 0, 59, 64
3, 18048, Note_off_c, 0, 55, 64
3, 18048, Note_on_c, 0, 55, 43
3, 18048, Note_on_c, 0, 59, 47
3, 18048, Note_on_c, 0, 62, 46
3, 18240, Note_off_c, 0, 62, 64
3, 18240, Note_off_c, 0, 59, 64
3, 18240, Note_off_c, 0, 55, 64
3, 18240, Note_on_c, 0, 55, 48
3, 18240, Note_on_c, 0, 59, 47
3, 18240, Note_on_c, 0, 62, 41
3, 18432, Note_off_c, 0, 62, 64
3, 18432, Note_off_c, 0, 59, 64
3, 18432, Note_off_c, 0, 55, 64
3, 18432, Note_on_c, 0, 43, 78
3, 18624, Note_off_c, 0, 43, 64
3, 18624, Note_on_c, 0, 53, 59
3, 18624, Note_on_c, 0, 55, 59
3, 18624, Note_on_c, 0, 59, 59
3, 18624, Note_on_c, 0, 62, 59
3, 18720, Note_off_c, 0, 62, 64
3, 18720, Note_off_c, 0, 59, 64
3, 18720, Note_off_c, 0, 55, 64
3, 18720, Note_off_c, 0, 53, 64
3, 18720, Note_on_c, 0, 53, 59
3, 18720, Note_on_c, 0, 55, 59
3, 18720, Note_on_c, 0, 59, 59
3, 18720, Note_on_c, 0, 62, 59
3, 18816, Note_off_c, 0, 62, 64
3, 18816, Note_off_c, 0, 59, 64
3, 18816, Note_off_c, 0, 55, 64
3, 18816, Note_off_c, 0, 53, 64
3, 18816, Note_on_c, 0, 53, 45
3, 18816, Note_on_c, 0, 55, 42
3, 18816, Note_on_c, 0, 59, 42
3, 18816, Note_on_c, 0, 62, 44
3, 19008, Note_off_c, 0, 62, 64
3, 19008, Note_off_c, 0, 59, 64
3, 19008, Note_off_c, 0, 55, 64
3, 19008, Note_off_c, 0, 53, 64
3, 19008, Note_on_c, 0, 53, 49
3, 19008, Note_on_c, 0, 55, 46
3, 19008, Note_on_c, 0, 59, 46
3, 19008, Note_on_c, 0, 62, 42
3, 19200, Note_off_c, 0, 62, 64
3, 19200, Note_off_c, 0, 59, 64
3, 19200, Note_off_c, 0, 55, 64
3, 19200, Note_off_c, 0, 53, 64
3, 19200, Note_on_c, 0, 53, 45
3, 19200, Note_on_c, 0, 55, 43
3, 19200, Note_on_c, 0, 59, 44
3, 19200, Note_on_c, 0, 62, 38
3, 19392, Note_off_c, 0, 62, 64
3, 19392, Note_off_c, 0, 59, 64
3, 19392, Note_off_c, 0, 55, 64
3, 19392, Note_off_c, 0, 53, 64
3, 19392, Note_on_c, 0, 53, 45
3, 19392, Note_on_c, 0, 55, 44
3, 19392, Note_on_c, 0, 59, 45
3, 19392, Note_on_c, 0, 62, 41
3, 19584, Note_off_c, 0, 62, 64
3, 19584, Note_off_c, 0, 59, 64
3, 19584, Note_off_c, 0, 55, 64
3, 19584, Note_off_c, 0, 53, 64
3, 19584, Note_on_c, 0, 52, 68
3, 19584, Note_on_c, 0, 55, 68
3, 19584, Note_on_c, 0, 60, 68
3, 19776, Note_off_c, 0, 60, 64
3, 19776, Note_off_c, 0, 55, 64
3, 19776, Note_off_c, 0, 52, 64
3, 19776, Note_on_c, 0, 64, 60
3, 19776, Note_on_c, 0, 67, 60
3, 19872, Note_off_c, 0, 67, 64
3, 19872, Note_off_c, 0, 64, 64
3, 19872, Note_on_c, 0, 64, 64
3, 19872, Note_on_c, 0, 67, 64
3, 19968, Note_off_c, 0, 67, 64
3, 19968, Note_off_c, 0, 64, 64
3, 19968, Note_on_c, 0, 64, 53
3, 19968, Note_on_c, 0, 67, 53
3, 20160, Note_off_c, 0, 67, 64
3, 20160, Note_off_c, 0, 64, 64
3, 20160, Note_on_c, 0, 64, 46
3, 20160, Note_on_c, 0, 67, 46
3, 20352, Note_off_c, 0, 67, 64
3, 20352, Note_off_c, 0, 64, 64
3, 20352, Note_on_c, 0, 64, 38
3, 20352, Note_on_c, 0, 67, 35
3, 20544, Note_off_c, 0, 67, 64
3, 20544, Note_off_c, 0, 64, 64
3, 20544, Note_on_c, 0, 64, 36
3, 20544, Note_on_c, 0, 67, 35
3, 20736, Note_off_c, 0, 67, 64
3, 20736, Note_off_c, 0, 64, 64
3, 20736, Note_on_c, 0, 53, 76
3, 20928, Note_off_c, 0, 53, 64
3, 20928, Note_on_c, 0, 65, 62
3, 20928, Note_on_c, 0, 69, 62
3, 21024, Note_off_c, 0, 69, 64
3, 21024, Note_off_c, 0, 65, 64
3, 21024, Note_on_c, 0, 65, 62
3, 21024, Note_on_c, 0, 69, 62
3, 21120, Note_off_c, 0, 69, 64
3, 21120, Note_off_c, 0, 65, 64
3, 21120, Note_on_c, 0, 55, 64
3, 21312, Note_off_c, 0, 55, 64
3, 21312, Note_on_c, 0, 64, 62
3, 21312, Note_on_c, 0, 67, 62
3, 21408, Note_off_c, 0, 67, 64
3, 21408, Note_off_c, 0, 64, 64
3, 21408, Note_on_c, 0, 64, 60
3, 21408, Note_on_c, 0, 67, 60
3, 21504, Note_off_c, 0, 67, 64
3, 21504, Note_off_c, 0, 64, 64
3, 21504, Note_on_c, 0, 55, 68
3, 21696, Note_off_c, 0, 55, 64
3, 21696, Note_on_c, 0, 62, 58
3, 21696, Note_on_c, 0, 65, 58
3, 21792, Note_off_c, 0, 65, 64
3, 21792, Note_off_c, 0, 62, 64
3, 21792, Note_on_c, 0, 62, 58
3, 21792, Note_on_c, 0, 65, 58
3, 21888, Note_off_c, 0, 65, 64
3, 21888, Note_off_c, 0, 62, 64
3, 21888, Note_on_c, 0, 48, 72
3, 22080, Note_off_c, 0, 48, 64
3, 22080, Note_on_c, 0, 60, 58
3, 22080, Note_on_c, 0, 62, 58
3, 22080, Note_on_c, 0, 65, 58
3, 22176, Note_off_c, 0, 65, 64
3, 22176, Note_off_c, 0, 62, 64
3, 22176, Note_off_c, 0, 60, 64
3, 22176, Note_on_c, 0, 60, 56
3, 22176, Note_on_c, 0, 62, 56
3, 22176, Note_on_c, 0, 65, 56
3, 22272, Note_off_c, 0, 65, 64
3, 22272, Note_off_c, 0, 62, 64
3, 22272, Note_off_c, 0, 60, 64
3, 22272, Note_on_c, 0, 60, 49
3, 22272, Note_on_c, 0, 62, 46
3, 22272, Note_on_c, 0, 65, 46
3, 22464, Note_off_c, 0, 65, 64
3, 22464, Note_off_c, 0, 62, 64
3, 22464, Note_off_c, 0, 60, 64
3, 22464, Note_on_c, 0, 60, 45
3, 22464, Note_on_c, 0, 62, 45
3, 22464, Note_on_c, 0, 65, 45
3, 22656, Note_off_c, 0, 65, 64
3, 22656, Note_off_c, 0, 62, 64
3, 22656, Note_off_c, 0, 60, 64
3, 22656, Note_on_c, 0, 60, 56
3, 22656, Note_on_c, 0, 64, 52
3, 22848, Note_off_c, 0, 64, 64
3, 22848, Note_off_c, 0, 60, 64
3, 22848, Note_on_c, 0, 55, 68
3, 22944, Note_off_c, 0, 55, 64
3, 22944, Note_on_c, 0, 54, 70
3, 23040, Note_off_c, 0, 54, 64
3, 23040, Note_on_c, 0, 43, 82
3, 23040, Note_on_c, 0, 55, 82
3, 23232, Note_off_c, 0, 55, 64
3, 23232, Note_off_c, 0, 43, 64
3, 23232, Note_on_c, 0, 62, 54
3, 23232, Note_on_c, 0, 65, 54
3, 23232, Note_on_c, 0, 67, 54
3, 23328, Note_off_c, 0, 67, 64
3, 23328, Note_off_c, 0, 65, 64
3, 23328, Note_off_c, 0, 62, 64
3, 23328, Note_on_c, 0, 62, 54
3, 23328, Note_on_c, 0, 65, 54
3, 23328, Note_on_c, 0, 67, 54
3, 23424, Note_off_c, 0, 67, 64
3, 23424, Note_off_c, 0, 65, 64
3, 23424, Note_off_c, 0, 62, 64
3, 23424, Note_on_c, 0, 62, 43
3, 23424, Note_on_c, 0, 65, 46
3, 23424, Note_on_c, 0, 67, 46
3, 23616, Note_off_c, 0, 67, 0
3, 23616, Note_off_c, 0, 65, 0
3, 23616, Note_off_c, 0, 62, 64
3, 23616, Note_on_c, 0, 62, 45
3, 23616, Note_on_c, 0, 65, 45
3, 23616, Note_on_c, 0, 67, 45
3, 23808, Note_off_c, 0, 67, 64
3, 23808, Note_off_c, 0, 65, 64
3, 23808, Note_off_c, 0, 62, 64
3, 23808, Note_on_c, 0, 60, 49
3, 23808, Note_on_c, 0, 64, 49
3, 23808, Note_on_c, 0, 67, 43
3, 24000, Note_off_c, 0, 67, 64
3, 24000, Note_off_c, 0, 64, 64
3, 24000, Note_off_c, 0, 60, 64
3, 24000, Note_on_c, 0, 60, 56
3, 24000, Note_on_c, 0, 64, 56
3, 24000, Note_on_c, 0, 67, 56
3, 24192, Note_off_c, 0, 67, 64
3, 24192, Note_off_c, 0, 64, 64
3, 24192, Note_off_c, 0, 60, 64
3, 24192, Note_on_c, 0, 43, 82
3, 24192, Note_on_c, 0, 55, 82
3, 24384, Note_off_c, 0, 55, 64
3, 24384, Note_off_c, 0, 43, 64
3, 24384, Note_on_c, 0, 59, 50
3, 24384, Note_on_c, 0, 62, 50
3, 24384, Note_on_c, 0, 67, 50
3, 24480, Note_off_c, 0, 67, 64
3, 24480, Note_off_c, 0, 62, 64
3, 24480, Note_off_c, 0, 59, 64
3, 24480, Note_on_c, 0, 59, 52
3, 24480, Note_on_c, 0, 62, 52
3, 24480, Note_on_c, 0, 67, 52
3, 24576, Note_off_c, 0, 67, 64
3, 24576, Note_off_c, 0, 62, 64
3, 24576, Note_off_c, 0, 59, 64
3, 24576, Note_on_c, 0, 59, 47
3, 24576, Note_on_c, 0, 62, 47
3, 24576, Note_on_c, 0, 67, 47
3, 24768, Note_off_c, 0, 67, 64
3, 24768, Note_off_c, 0, 62, 0
3, 24768, Note_off_c, 0, 59, 0
3, 24768, Note_on_c, 0, 59, 36
3, 24768, Note_on_c, 0, 62, 41
3, 24768, Note_on_c, 0, 67, 41
3, 24960, Note_off_c, 0, 67, 64
3, 24960, Note_off_c, 0, 62, 64
3, 24960, Note_off_c, 0, 59, 64
3, 24960, Note_on_c, 0, 60, 41
3, 24960, Note_on_c, 0, 64, 36
3, 24960, Note_on_c, 0, 67, 40
3, 25152, Note_off_c, 0, 67, 64
3, 25152, Note_off_c, 0, 64, 64
3, 25152, Note_off_c, 0, 60, 64
3, 25152, Note_on_c, 0, 60, 48
3, 25152, Note_on_c, 0, 64, 44
3, 25152, Note_on_c, 0, 67, 47
3, 25344, Note_off_c, 0, 67, 0
3, 25344, Note_off_c, 0, 64, 0
3, 25344, Note_off_c, 0, 60, 64
3, 25344, Note_on_c, 0, 43, 86
3, 25344, Note_on_c, 0, 55, 86
3, 25536, Note_off_c, 0, 55, 64
3, 25536, Note_off_c, 0, 43, 64
3, 25536, Note_on_c, 0, 62, 34
3, 25536, Note_on_c, 0, 65, 34
3, 25536, Note_on_c, 0, 67, 42
3, 25632, Note_off_c, 0, 67, 64
3, 25632, Note_off_c, 0, 65, 0
3, 25632, Note_off_c, 0, 62, 64
3, 25632, Note_on_c, 0, 62, 43
3, 25632, Note_on_c, 0, 65, 43
3, 25632, Note_on_c, 0, 67, 43
3, 25728, Note_off_c, 0, 67, 64
3, 25728, Note_off_c, 0, 65, 64
3, 25728, Note_off_c, 0, 62, 64
3, 25728, Note_on_c, 0, 62, 39
3, 25728, Note_on_c, 0, 65, 39
3, 25728, Note_on_c, 0, 67, 39
3, 25920, Note_off_c, 0, 67, 0
3, 25920, Note_off_c, 0, 65, 0
3, 25920, Note_off_c, 0, 62, 64
3, 25920, Note_on_c, 0, 62, 35
3, 25920, Note_on_c, 0, 65, 35
3, 25920, Note_on_c, 0, 67, 35
3, 26112, Note_off_c, 0, 67, 64
3, 26112, Note_off_c, 0, 65, 64
3, 26112, Note_off_c, 0, 62, 64
3, 26112, Note_on_c, 0, 60, 39
3, 26112, Note_on_c, 0, 64, 41
3, 26112, Note_on_c, 0, 67, 43
3, 26304, Note_off_c, 0, 67, 64
3, 26304, Note_off_c, 0, 64, 64
3, 26304, Note_off_c, 0, 60, 64
3, 26304, Note_on_c, 0, 60, 41
3, 26304, Note_on_c, 0, 64, 38
3, 26304, Note_on_c, 0, 67, 42
3, 26496, Note_off_c, 0, 67, 64
3, 26496, Note_off_c, 0, 64, 64
3, 26496, Note_off_c, 0, 60, 64
3, 26496, Note_on_c, 0, 60, 36
3, 26496, Note_on_c, 0, 66, 35
3, 26496, Note_on_c, 0, 69, 33
3, 26688, Note_off_c, 0, 69, 64
3, 26688, Note_off_c, 0, 66, 64
3, 26688, Note_off_c, 0, 60, 64
3, 26688, Note_on_c, 0, 60, 41
3, 26688, Note_on_c, 0, 66, 33
3, 26688, Note_on_c, 0, 69, 32
3, 26880, Note_off_c, 0, 69, 64
3, 26880, Note_off_c, 0, 66, 64
3, 26880, Note_off_c, 0, 60, 64
3, 26880, Note_on_c, 0, 59, 34
3, 26880, Note_on_c, 0, 62, 38
3, 26880, Note_on_c, 0, 67, 37
3, 27072, Note_off_c, 0, 67, 64
3, 27072, Note_off_c, 0, 62, 64
3, 27072, Note_off_c, 0, 59, 64
3, 27072, Note_on_c, 0, 59, 30
3, 27072, Note_on_c, 0, 62, 33
3, 27072, Note_on_c, 0, 67, 27
3, 27264, Note_off_c, 0, 67, 64
3, 27264, Note_off_c, 0, 62, 64
3, 27264, Note_off_c, 0, 59, 64
3, 27264, Note_on_c, 0, 59, 30
3, 27264, Note_on_c, 0, 64, 29
3, 27264, Note_on_c, 0, 67, 28
3, 27456, Note_off_c, 0, 67, 64
3, 27456, Note_off_c, 0, 64, 64
3, 27456, Note_off_c, 0, 59, 64
3, 27456, Note_on_c, 0, 59, 36
3, 27456, Note_on_c, 0, 64, 33
3, 27456, Note_on_c, 0, 67, 31
3, 27648, Note_off_c, 0, 67, 64
3, 27648, Note_off_c, 0, 64, 64
3, 27648, Note_off_c, 0, 59, 64
3, 27648, Note_on_c, 0, 57, 27
3, 27648, Note_on_c, 0, 60, 34
3, 27648, Note_on_c, 0, 65, 30
3, 27840, Note_off_c, 0, 65, 64
3, 27840, Note_off_c, 0, 60, 64
3, 27840, Note_off_c, 0, 57, 64
3, 27840, Note_on_c, 0, 57, 32
3, 27840, Note_on_c, 0, 60, 36
3, 27840, Note_on_c, 0, 65, 28
3, 28032, Note_off_c, 0, 65, 64
3, 28032, Note_off_c, 0, 60, 0
3, 28032, Note_off_c, 0, 57, 64
3, 28032, Note_on_c, 0, 57, 37
3, 28032, Note_on_c, 0, 63, 39
3, 28032, Note_on_c, 0, 66, 29
3, 28224, Note_off_c, 0, 66, 64
3, 28224, Note_off_c, 0, 63, 64
3, 28224, Note_off_c, 0, 57, 64
3, 28224, Note_on_c, 0, 57, 37
3, 28224, Note_on_c, 0, 63, 40
3, 28224, Note_on_c, 0, 66, 28
3, 28416, Note_off_c, 0, 66, 64
3, 28416, Note_off_c, 0, 63, 64
3, 28416, Note_off_c, 0, 57, 64
3, 28416, Note_on_c, 0, 55, 39
3, 28416, Note_on_c, 0, 64, 41
3, 28416, Note_on_c, 0, 67, 31
3, 28608, Note_off_c, 0, 67, 64
3, 28608, Note_off_c, 0, 64, 64
3, 28608, Note_off_c, 0, 55, 64
3, 28608, Note_on_c, 0, 55, 40
3, 28608, Note_on_c, 0, 64, 41
3, 28608, Note_on_c, 0, 67, 39
3, 28800, Note_off_c, 0, 67, 64
3, 28800, Note_off_c, 0, 64, 64
3, 28800, Note_off_c, 0, 55, 64
3, 28800, Note_on_c, 0, 55, 36
3, 28800, Note_on_c, 0, 61, 32
3, 28800, Note_on_c, 0, 64, 32
3, 28992, Note_off_c, 0, 64, 64
3, 28992, Note_off_c, 0, 61, 64
3, 28992, Note_off_c, 0, 55, 64
3, 28992, Note_on_c, 0, 55, 43
3, 28992, Note_on_c, 0, 61, 36
3, 28992, Note_on_c, 0, 64, 39
3, 29184, Note_off_c, 0, 64, 64
3, 29184, Note_off_c, 0, 61, 64
3, 29184, Note_off_c, 0, 55, 64
3, 29184, Note_on_c, 0, 53, 39
3, 29184, Note_on_c, 0, 62, 43
3, 29184, Note_on_c, 0, 65, 39
3, 29376, Note_off_c, 0, 65, 64
3, 29376, Note_off_c, 0, 62, 64
3, 29376, Note_off_c, 0, 53, 64
3, 29376, Note_on_c, 0, 53, 36
3, 29376, Note_on_c, 0, 62, 37
3, 29376, Note_on_c, 0, 65, 24
3, 29568, Note_off_c, 0, 65, 64
3, 29568, Note_off_c, 0, 62, 0
3, 29568, Note_off_c, 0, 53, 0
3, 29568, Note_on_c, 0, 55, 43
3, 29568, Note_on_c, 0, 62, 44
3, 29568, Note_on_c, 0, 65, 42
3, 29760, Note_off_c, 0, 65, 64
3, 29760, Note_off_c, 0, 62, 64
3, 29760, Note_off_c, 0, 55, 64
3, 29760, Note_on_c, 0, 55, 43
3, 29760, Note_on_c, 0, 62, 40
3, 29760, Note_on_c, 0, 65, 40
3, 29952, Note_off_c, 0, 65, 64
3, 29952, Note_off_c, 0, 62, 64
3, 29952, Note_off_c, 0, 55, 64
3, 29952, Note_on_c, 0, 48, 66
3, 30144, Note_off_c, 0, 48, 64
3, 30144, Note_on_c, 0, 60, 33
3, 30144, Note_on_c, 0, 64, 35
3, 30144, Note_on_c, 0, 67, 32
3, 30240, Note_off_c, 0, 67, 64
3, 30240, Note_off_c, 0, 64, 64
3, 30240, Note_off_c, 0, 60, 64
3, 30240, Note_on_c, 0, 60, 37
3, 30240, Note_on_c, 0, 64, 32
3, 30240, Note_on_c, 0, 67, 32
3, 30336, Note_off_c, 0, 67, 64
3, 30336, Note_off_c, 0, 64, 64
3, 30336, Note_off_c, 0, 60, 64
3, 30336, Note_on_c, 0, 60, 34
3, 30336, Note_on_c, 0, 64, 36
3, 30336, Note_on_c, 0, 67, 40
3, 30528, Note_off_c, 0, 67, 0
3, 30528, Note_off_c, 0, 64, 0
3, 30528, Note_off_c, 0, 60, 0
3, 30528, Note_on_c, 0, 60, 31
3, 30528, Note_on_c, 0, 64, 35
3, 30528, Note_on_c, 0, 67, 34
3, 30720, Note_off_c, 0, 67, 64
3, 30720, Note_off_c, 0, 64, 0
3, 30720, Note_off_c, 0, 60, 64
3, 30720, Note_on_c, 0, 60, 36
3, 30720, Note_on_c, 0, 64, 37
3, 30720, Note_on_c, 0, 67, 34
3, 30852, Control_c, 0, 64, 0
3, 30912, Note_off_c, 0, 67, 64
3, 30912, Note_off_c, 0, 64, 0
3, 30912, Note_off_c, 0, 60, 0
3, 30912, Note_on_c, 0, 60, 38
3, 30912, Note_on_c, 0, 64, 39
3, 30912, Note_on_c, 0, 67, 36
3, 31104, Note_off_c, 0, 67, 64
3, 31104, Note_off_c, 0, 64, 64
3, 31104, Note_off_c, 0, 60, 64
3, 31104, Note_on_c, 0, 48, 63
3, 31296, Note_off_c, 0, 48, 64
3, 31296, Note_on_c, 0, 60, 53
3, 31296, Note_on_c, 0, 65, 53
3, 31296, Note_on_c, 0, 69, 53
3, 31392, Note_off_c, 0, 69, 64
3, 31392, Note_off_c, 0, 65, 64
3, 31392, Note_off_c, 0, 60, 64
3, 31392, Note_on_c, 0, 60, 53
3, 31392, Note_on_c, 0, 65, 53
3, 31392, Note_on_c, 0, 69, 53
3, 31488, Note_off_c, 0, 69, 64
3, 31488, Note_off_c, 0, 65, 64
3, 31488, Note_off_c, 0, 60, 64
3, 31488, Note_on_c, 0, 48, 61
3, 31680, Note_off_c, 0, 48, 64
3, 31680, Note_on_c, 0, 60, 51
3, 31680, Note_on_c, 0, 64, 51
3, 31680, Note_on_c, 0, 67, 51
3, 31776, Note_off_c, 0, 67, 64
3, 31776, Note_off_c, 0, 64, 64
3, 31776, Note_off_c, 0, 60, 64
3, 31776, Note_on_c, 0, 60, 49
3, 31776, Note_on_c, 0, 64, 49
3, 31776, Note_on_c, 0, 67, 49
3, 31872, Note_off_c, 0, 67, 64
3, 31872, Note_off_c, 0, 64, 64
3, 31872, Note_off_c, 0, 60, 64
3, 31872, Note_on_c, 0, 60, 37
3, 31872, Note_on_c, 0, 64, 36
3, 31872, Note_on_c, 0, 67, 42
3, 32064, Note_off_c, 0, 67, 0
3, 32064, Note_off_c, 0, 64, 0
3, 32064, Note_off_c, 0, 60, 64
3, 32064, Note_on_c, 0, 61, 41
3, 32064, Note_on_c, 0, 64, 41
3, 32256, Note_off_c, 0, 64, 64
3, 32256, Note_off_c, 0, 61, 64
3, 32256, Note_on_c, 0, 62, 51
3, 32256, Note_on_c, 0, 65, 51
3, 32448, Note_off_c, 0, 65, 64
3, 32448, Note_off_c, 0, 62, 64
3, 32448, Note_on_c, 0, 64, 49
3, 32448, Note_on_c, 0, 67, 49
3, 32640, Note_off_c, 0, 67, 64
3, 32640, Note_off_c, 0, 64, 64
3, 32640, Note_on_c, 0, 65, 49
3, 32640, Note_on_c, 0, 69, 49
3, 32832, Note_off_c, 0, 69, 64
3, 32832, Note_off_c, 0, 65, 64
3, 32832, Note_on_c, 0, 54, 51
3, 32832, Note_on_c, 0, 57, 51
3, 33024, Note_off_c, 0, 57, 64
3, 33024, Note_off_c, 0, 54, 64
3, 33024, Note_on_c, 0, 55, 51
3, 33024, Note_on_c, 0, 59, 51
3, 33216, Note_off_c, 0, 59, 64
3, 33216, Note_off_c, 0, 55, 64
3, 33216, Note_on_c, 0, 50, 55
3, 33216, Note_on_c, 0, 60, 55
3, 33408, Note_off_c, 0, 60, 64
3, 33408, Note_off_c, 0, 50, 64
3, 33408, Note_on_c, 0, 50, 55
3, 33408, Note_on_c, 0, 60, 55
3, 33600, Note_off_c, 0, 60, 64
3, 33600, Note_off_c, 0, 50, 64
3, 33600, Note_on_c, 0, 55, 53
3, 33600, Note_on_c, 0, 59, 53
3, 33792, Note_off_c, 0, 59, 64
3, 33792, Note_off_c, 0, 55, 64
3, 33792, Note_on_c, 0, 43, 84
3, 33984, Note_off_c, 0, 43, 64
3, 33984, Note_on_c, 0, 55, 53
3, 33984, Note_on_c, 0, 59, 53
3, 33984, Note_on_c, 0, 62, 53
3, 34080, Note_off_c, 0, 62, 64
3, 34080, Note_off_c, 0, 59, 64
3, 34080, Note_off_c, 0, 55, 64
3, 34080, Note_on_c, 0, 55, 51
3, 34080, Note_on_c, 0, 59, 51
3, 34080, Note_on_c, 0, 62, 51
3, 34176, Note_off_c, 0, 62, 64
3, 34176, Note_off_c, 0, 59, 0
3, 34176, Note_off_c, 0, 55, 0
3, 34176, Note_on_c, 0, 55, 47
3, 34176, Note_on_c, 0, 59, 47
3, 34176, Note_on_c, 0, 62, 47
3, 34368, Note_off_c, 0, 62, 64
3, 34368, Note_off_c, 0, 59, 0
3, 34368, Note_off_c, 0, 55, 64
3, 34368, Note_on_c, 0, 55, 37
3, 34368, Note_on_c, 0, 59, 40
3, 34368, Note_on_c, 0, 62, 34
3, 34560, Note_off_c, 0, 62, 64
3, 34560, Note_off_c, 0, 59, 64
3, 34560, Note_off_c, 0, 55, 64
3, 34560, Note_on_c, 0, 43, 72
3, 34752, Note_off_c, 0, 43, 64
3, 34752, Note_on_c, 0, 53, 36
3, 34752, Note_on_c, 0, 55, 39
3, 34752, Note_on_c, 0, 59, 37
3, 34752, Note_on_c, 0, 62, 31
3, 34848, Note_off_c, 0, 62, 64
3, 34848, Note_off_c, 0, 59, 64
3, 34848, Note_off_c, 0, 55, 64
3, 34848, Note_off_c, 0, 53, 64
3, 34848, Note_on_c, 0, 53, 34
3, 34848, Note_on_c, 0, 55, 40
3, 34848, Note_on_c, 0, 59, 36
3, 34848, Note_on_c, 0, 62, 31
3, 34944, Note_off_c, 0, 62, 64
3, 34944, Note_off_c, 0, 59, 64
3, 34944, Note_off_c, 0, 55, 64
3, 34944, Note_off_c, 0, 53, 64
3, 34944, Note_on_c, 0, 53, 41
3, 34944, Note_on_c, 0, 55, 43
3, 34944, Note_on_c, 0, 59, 36
3, 34944, Note_on_c, 0, 62, 39
3, 35136, Note_off_c, 0, 62, 0
3, 35136, Note_off_c, 0, 59, 0
3, 35136, Note_off_c, 0, 55, 0
3, 35136, Note_off_c, 0, 53, 0
3, 35136, Note_on_c, 0, 53, 38
3, 35136, Note_on_c, 0, 55, 43
3, 35136, Note_on_c, 0, 59, 37
3, 35136, Note_on_c, 0, 62, 36
3, 35328, Note_off_c, 0, 62, 64
3, 35328, Note_off_c, 0, 59, 64
3, 35328, Note_off_c, 0, 55, 64
3, 35328, Note_off_c, 0, 53, 64
3, 35328, Note_on_c, 0, 53, 35
3, 35328, Note_on_c, 0, 55, 41
3, 35328, Note_on_c, 0, 59, 38
3, 35328, Note_on_c, 0, 62, 35
3, 35520, Note_off_c, 0, 62, 64
3, 35520, Note_off_c, 0, 59, 64
3, 35520, Note_off_c, 0, 55, 64
3, 35520, Note_off_c, 0, 53, 64
3, 35520, Note_on_c, 0, 53, 35
3, 35520, Note_on_c, 0, 55, 44
3, 35520, Note_on_c, 0, 59, 38
3, 35520, Note_on_c, 0, 62, 36
3, 35712, Note_off_c, 0, 62, 64
3, 35712, Note_off_c, 0, 59, 64
3, 35712, Note_off_c, 0, 55, 64
3, 35712, Note_off_c, 0, 53, 64
3, 35712, Note_on_c, 0, 52, 76
3, 35904, Note_off_c, 0, 52, 64
3, 35904, Note_on_c, 0, 64, 45
3, 35904, Note_on_c, 0, 67, 42
3, 36000, Note_off_c, 0, 67, 64
3, 36000, Note_off_c, 0, 64, 64
3, 36000, Note_on_c, 0, 64, 44
3, 36000, Note_on_c, 0, 67, 44
3, 36096, Note_off_c, 0, 67, 64
3, 36096, Note_off_c, 0, 64, 64
3, 36096, Note_on_c, 0, 64, 40
3, 36096, Note_on_c, 0, 67, 52
3, 36096, Note_on_c, 0, 72, 45
3, 36672, Note_off_c, 0, 72, 64
3, 36672, Note_off_c, 0, 67, 64
3, 36672, Note_off_c, 0, 64, 64
3, 36672, Note_on_c, 0, 65, 43
3, 36672, Note_on_c, 0, 67, 46
3, 36672, Note_on_c, 0, 74, 45
3, 36864, Note_off_c, 0, 74, 64
3, 36864, Note_off_c, 0, 67, 64
3, 36864, Note_off_c, 0, 65, 64
3, 36864, Note_on_c, 0, 64, 36
3, 36864, Note_on_c, 0, 67, 49
3, 36864, Note_on_c, 0, 72, 41
3, 37056, Note_off_c, 0, 72, 64
3, 37056, Note_off_c, 0, 67, 64
3, 37056, Note_off_c, 0, 64, 64
3, 37056, Note_on_c, 0, 65, 44
3, 37056, Note_on_c, 0, 67, 45
3, 37056, Note_on_c, 0, 74, 46
3, 37248, Note_off_c, 0, 74, 64
3, 37248, Note_off_c, 0, 67, 64
3, 37248, Note_off_c, 0, 65, 64
3, 37248, Program_c, 0, 0
3, 37248, Note_on_c, 0, 64, 43
3, 37248, Note_on_c, 0, 67, 40
3, 37248, Note_on_c, 0, 72, 43
3, 37440, Note_off_c, 0, 72, 64
3, 37440, Note_off_c, 0, 67, 64
3, 37440, Note_off_c, 0, 64, 64
3, 37440, Note_on_c, 0, 65, 47
3, 37440, Note_on_c, 0, 67, 47
3, 37440, Note_on_c, 0, 74, 50
3, 37632, Note_off_c, 0, 74, 64
3, 37632, Note_off_c, 0, 67, 64
3, 37632, Note_off_c, 0, 65, 64
3, 37632, Note_on_c, 0, 64, 41
3, 37632, Note_on_c, 0, 67, 40
3, 37632, Note_on_c, 0, 72, 44
3, 37824, Note_off_c, 0, 72, 64
3, 37824, Note_off_c, 0, 67, 64
3, 37824, Note_off_c, 0, 64, 64
3, 37824, Note_on_c, 0, 65, 49
3, 37824, Note_on_c, 0, 67, 48
3, 37824, Note_on_c, 0, 74, 47
3, 38016, Note_off_c, 0, 74, 64
3, 38016, Note_off_c, 0, 67, 64
3, 38016, Note_off_c, 0, 65, 64
3, 38016, Note_on_c, 0, 64, 61
3, 38016, Note_on_c, 0, 67, 61
3, 38016, Note_on_c, 0, 72, 61
3, 38112, Note_off_c, 0, 72, 64
3, 38112, Note_off_c, 0, 67, 64
3, 38112, Note_off_c, 0, 64, 64
3, 38208, Note_on_c, 0, 65, 66
3, 38208, Note_on_c, 0, 67, 66
3, 38208, Note_on_c, 0, 74, 66
3, 38304, Note_off_c, 0, 74, 64
3, 38304, Note_off_c, 0, 67, 64
3, 38304, Note_off_c, 0, 65, 64
3, 38400, Note_on_c, 0, 64, 66
3, 38400, Note_on_c, 0, 67, 66
3, 38400, Note_on_c, 0, 72, 66
3, 38496, Note_off_c, 0, 72, 64
3, 38496, Note_off_c, 0, 67, 0
3, 38496, Note_off_c, 0, 64, 0
3, 38592, Note_on_c, 0, 65, 68
3, 38592, Note_on_c, 0, 67, 68
3, 38592, Note_on_c, 0, 74, 68
3, 38688, Note_off_c, 0, 74, 0
3, 38688, Note_off_c, 0, 67, 0
3, 38688, Note_off_c, 0, 65, 64
3, 38784, Note_on_c, 0, 64, 70
3, 38784, Note_on_c, 0, 67, 70
3, 38784, Note_on_c, 0, 72, 70
3, 38880, Note_off_c, 0, 72, 64
3, 38880, Note_off_c, 0, 67, 64
3, 38880, Note_off_c, 0, 64, 64
3, 38976, Note_on_c, 0, 52, 74
3, 38976, Note_on_c, 0, 55, 74
3, 38976, Note_on_c, 0, 60, 74
3, 39072, Note_off_c, 0, 60, 64
3, 39072, Note_off_c, 0, 55, 64
3, 39072, Note_off_c, 0, 52, 64
3, 39168, Note_on_c, 0, 41, 78
3, 39360, Note_off_c, 0, 41, 64
3, 39360, Note_on_c, 0, 53, 72
3, 39360, Note_on_c, 0, 57, 72
3, 39360, Note_on_c, 0, 62, 72
3, 39456, Note_off_c, 0, 62, 64
3, 39456, Note_off_c, 0, 57, 64
3, 39456, Note_off_c, 0, 53, 64
3, 39456, Note_on_c, 0, 53, 70
3, 39456, Note_on_c, 0, 57, 70
3, 39456, Note_on_c, 0, 62, 70
3, 39552, Note_off_c, 0, 62, 64
3, 39552, Note_off_c, 0, 57, 64
3, 39552, Note_off_c, 0, 53, 64
3, 39552, Note_on_c, 0, 43, 59
3, 39744, Note_off_c, 0, 43, 64
3, 39744, Note_on_c, 0, 55, 72
3, 39744, Note_on_c, 0, 60, 72
3, 39744, Note_on_c, 0, 64, 72
3, 39840, Note_off_c, 0, 64, 64
3, 39840, Note_off_c, 0, 60, 64
3, 39840, Note_off_c, 0, 55, 64
3, 39840, Note_on_c, 0, 55, 70
3, 39840, Note_on_c, 0, 60, 70
3, 39840, Note_on_c, 0, 64, 70
3, 39936, Note_off_c, 0, 64, 64
3, 39936, Note_off_c, 0, 60, 64
3, 39936, Note_off_c, 0, 55, 64
3, 39936, Note_on_c, 0, 43, 64
3, 40128, Note_off_c, 0, 43, 64
3, 40128, Note_on_c, 0, 55, 74
3, 40128, Note_on_c, 0, 62, 74
3, 40128, Note_on_c, 0, 65, 74
3, 40224, Note_off_c, 0, 65, 64
3, 40224, Note_off_c, 0, 62, 64
3, 40224, Note_off_c, 0, 55, 64
3, 40224, Note_on_c, 0, 55, 72
3, 40224, Note_on_c, 0, 62, 72
3, 40224, Note_on_c, 0, 65, 72
3, 40320, Note_off_c, 0, 65, 64
3, 40320, Note_off_c, 0, 62, 64
3, 40320, Note_off_c, 0, 55, 64
3, 40320, Note_on_c, 0, 48, 63
3, 40512, Note_off_c, 0, 48, 64
3, 40512, Note_on_c, 0, 60, 72
3, 40512, Note_on_c, 0, 62, 72
3, 40512, Note_on_c, 0, 65, 72
3, 40608, Note_off_c, 0, 65, 64
3, 40608, Note_off_c, 0, 62, 64
3, 40608, Note_off_c, 0, 60, 64
3, 40608, Note_on_c, 0, 60, 70
3, 40608, Note_on_c, 0, 62, 70
3, 40608, Note_on_c, 0, 65, 70
3, 40704, Note_off_c, 0, 65, 64
3, 40704, Note_off_c, 0, 62, 64
3, 40704, Note_off_c, 0, 60, 64
3, 40704, Note_on_c, 0, 60, 80
3, 40704, Note_on_c, 0, 62, 80
3, 40704, Note_on_c, 0, 65, 80
3, 40896, Note_off_c, 0, 65, 64
3, 40896, Note_off_c, 0, 62, 64
3, 40896, Note_off_c, 0, 60, 64
3, 40896, Note_on_c, 0, 60, 78
3, 40896, Note_on_c, 0, 62, 78
3, 40896, Note_on_c, 0, 65, 78
3, 41088, Note_off_c, 0, 65, 64
3, 41088, Note_off_c, 0, 62, 64
3, 41088, Note_off_c, 0, 60, 64
3, 41088, Note_on_c, 0, 60, 80
3, 41088, Note_on_c, 0, 64, 80
3, 41184, Note_off_c, 0, 64, 64
3, 41184, Note_off_c, 0, 60, 64
3, 41184, Note_on_c, 0, 60, 78
3, 41280, Note_off_c, 0, 60, 64
3, 41280, Note_on_c, 0, 55, 86
3, 41376, Note_off_c, 0, 55, 64
3, 41376, Note_on_c, 0, 52, 88
3, 41472, Note_off_c, 0, 52, 64
3, 41472, Note_on_c, 0, 48, 90
3, 41472, Note_on_c, 0, 60, 90
3, 41568, Note_off_c, 0, 60, 64
3, 41568, Note_off_c, 0, 48, 64
3, 41568, Note_on_c, 0, 55, 91
3, 41664, Note_off_c, 0, 55, 64
3, 41664, Note_on_c, 0, 47, 85
3, 41760, Note_off_c, 0, 47, 64
3, 41760, Note_on_c, 0, 55, 64
3, 41856, Note_off_c, 0, 55, 64
3, 41856, Note_on_c, 0, 48, 64
3, 41952, Note_off_c, 0, 48, 64
3, 41952, Note_on_c, 0, 55, 64
3, 42048, Note_off_c, 0, 55, 64
3, 42048, Note_on_c, 0, 47, 64
3, 42144, Note_off_c, 0, 47, 64
3, 42144, Note_on_c, 0, 55, 64
3, 42240, Note_off_c, 0, 55, 64
3, 42240, Note_on_c, 0, 48, 64
3, 42336, Note_off_c, 0, 48, 64
3, 42336, Note_on_c, 0, 55, 64
3, 42432, Note_off_c, 0, 55, 64
3, 42432, Note_on_c, 0, 50, 64
3, 42528, Note_off_c, 0, 50, 64
3, 42528, Note_on_c, 0, 55, 64
3, 42624, Note_off_c, 0, 55, 64
3, 42624, Note_on_c, 0, 52, 64
3, 42720, Note_off_c, 0, 52, 64
3, 42720, Note_on_c, 0, 55, 64
3, 42816, Note_off_c, 0, 55, 64
3, 42816, Note_on_c, 0, 53, 64
3, 42912, Note_off_c, 0, 53, 64
3, 42912, Note_on_c, 0, 55, 64
3, 43008, Note_off_c, 0, 55, 64
3, 43008, Note_on_c, 0, 50, 64
3, 43104, Note_off_c, 0, 50, 64
3, 43104, Note_on_c, 0, 55, 64
3, 43200, Note_off_c, 0, 55, 64
3, 43200, Note_on_c, 0, 48, 64
3, 43296, Note_off_c, 0, 48, 64
3, 43296, Note_on_c, 0, 55, 64
3, 43392, Note_off_c, 0, 55, 64
3, 43392, Note_on_c, 0, 47, 64
3, 43488, Note_off_c, 0, 47, 64
3, 43488, Note_on_c, 0, 55, 64
3, 43584, Note_off_c, 0, 55, 64
3, 43584, Note_on_c, 0, 48, 64
3, 43680, Note_off_c, 0, 48, 64
3, 43680, Note_on_c, 0, 55, 64
3, 43776, Note_off_c, 0, 55, 64
3, 43776, Note_on_c, 0, 50, 64
3, 43872, Note_off_c, 0, 50, 64
3, 43872, Note_on_c, 0, 55, 64
3, 43968, Note_off_c, 0, 55, 64
3, 43968, Note_on_c, 0, 52, 64
3, 44064, Note_off_c, 0, 52, 64
3, 44064, Note_on_c, 0, 55, 64
3, 44160, Note_off_c, 0, 55, 64
3, 44160, Note_on_c, 0, 53, 64
3, 44256, Note_off_c, 0, 53, 64
3, 44256, Note_on_c, 0, 55, 64
3, 44352, Note_off_c, 0, 55, 64
3, 44352, Note_on_c, 0, 54, 64
3, 44448, Note_off_c, 0, 54, 64
3, 44448, Note_on_c, 0, 55, 64
3, 44544, Note_off_c, 0, 55, 64
3, 44544, Note_on_c, 0, 57, 64
3, 44640, Note_off_c, 0, 57, 64
3, 44640, Note_on_c, 0, 55, 64
3, 44736, Note_off_c, 0, 55, 64
3, 44736, Note_on_c, 0, 59, 64
3, 44832, Note_off_c, 0, 59, 64
3, 44832, Note_on_c, 0, 55, 64
3, 44928, Note_off_c, 0, 55, 64
3, 44928, Note_on_c, 0, 60, 64
3, 45024, Note_off_c, 0, 60, 64
3, 45024, Note_on_c, 0, 55, 64
3, 45120, Note_off_c, 0, 55, 64
3, 45120, Note_on_c, 0, 64, 64
3, 45216, Note_off_c, 0, 64, 64
3, 45216, Note_on_c, 0, 55, 64
3, 45312, Note_off_c, 0, 55, 64
3, 45312, Note_on_c, 0, 60, 64
3, 45408, Note_off_c, 0, 60, 64
3, 45408, Note_on_c, 0, 55, 64
3, 45504, Note_off_c, 0, 55, 0
3, 45504, Note_on_c, 0, 62, 64
3, 45600, Note_off_c, 0, 62, 64
3, 45600, Note_on_c, 0, 55, 64
3, 45696, Note_off_c, 0, 55, 64
3, 45696, Note_on_c, 0, 59, 64
3, 45792, Note_off_c, 0, 59, 64
3, 45792, Note_on_c, 0, 55, 64
3, 45888, Note_off_c, 0, 55, 64
3, 45888, Note_on_c, 0, 62, 64
3, 45984, Note_off_c, 0, 62, 64
3, 45984, Note_on_c, 0, 55, 64
3, 46080, Note_off_c, 0, 55, 64
3, 46080, Note_on_c, 0, 48, 86
3, 46080, Note_on_c, 0, 60, 86
3, 46176, Note_off_c, 0, 60, 64
3, 46176, Note_off_c, 0, 48, 64
3, 46176, Note_on_c, 0, 55, 84
3, 46272, Note_off_c, 0, 55, 64
3, 46272, Note_on_c, 0, 47, 75
3, 46368, Note_off_c, 0, 47, 64
3, 46368, Note_on_c, 0, 55, 64
3, 46464, Note_off_c, 0, 55, 64
3, 46464, Note_on_c, 0, 48, 64
3, 46560, Note_off_c, 0, 48, 64
3, 46560, Note_on_c, 0, 55, 64
3, 46656, Note_off_c, 0, 55, 64
3, 46656, Note_on_c, 0, 47, 64
3, 46752, Note_off_c, 0, 47, 64
3, 46752, Note_on_c, 0, 55, 64
3, 46848, Note_off_c, 0, 55, 64
3, 46848, Note_on_c, 0, 48, 64
3, 46944, Note_off_c, 0, 48, 64
3, 46944, Note_on_c, 0, 55, 64
3, 47040, Note_off_c, 0, 55, 64
3, 47040, Note_on_c, 0, 50, 64
3, 47136, Note_off_c, 0, 50, 64
3, 47136, Note_on_c, 0, 55, 64
3, 47232, Note_off_c, 0, 55, 64
3, 47232, Note_on_c, 0, 52, 64
3, 47328, Note_off_c, 0, 52, 64
3, 47328, Note_on_c, 0, 55, 64
3, 47424, Note_off_c, 0, 55, 64
3, 47424, Note_on_c, 0, 53, 64
3, 47520, Note_off_c, 0, 53, 64
3, 47520, Note_on_c, 0, 55, 64
3, 47616, Note_off_c, 0, 55, 64
3, 47616, Note_on_c, 0, 54, 64
3, 47712, Note_off_c, 0, 54, 64
3, 47712, Note_on_c, 0, 55, 64
3, 47808, Note_off_c, 0, 55, 64
3, 47808, Note_on_c, 0, 57, 64
3, 47904, Note_off_c, 0, 57, 64
3, 47904, Note_on_c, 0, 55, 64
3, 48000, Note_off_c, 0, 55, 64
3, 48000, Note_on_c, 0, 59, 64
3, 48096, Note_off_c, 0, 59, 64
3, 48096, Note_on_c, 0, 55, 64
3, 48192, Note_off_c, 0, 55, 64
3, 48192, Note_on_c, 0, 60, 64
3, 48288, Note_off_c, 0, 60, 64
3, 48288, Note_on_c, 0, 55, 64
3, 48384, Note_off_c, 0, 55, 64
3, 48384, Note_on_c, 0, 62, 64
3, 48480, Note_off_c, 0, 62, 64
3, 48480, Note_on_c, 0, 55, 64
3, 48576, Note_off_c, 0, 55, 64
3, 48576, Note_on_c, 0, 64, 64
3, 48672, Note_off_c, 0, 64, 64
3, 48672, Note_on_c, 0, 55, 64
3, 48768, Note_off_c, 0, 55, 64
3, 48768, Note_on_c, 0, 65, 64
3, 48864, Note_off_c, 0, 65, 64
3, 48864, Note_on_c, 0, 55, 64
3, 48960, Note_off_c, 0, 55, 64
3, 48960, Note_on_c, 0, 53, 64
3, 49056, Note_off_c, 0, 53, 64
3, 49056, Note_on_c, 0, 55, 64
3, 49152, Note_off_c, 0, 55, 64
3, 49152, Note_on_c, 0, 52, 64
3, 49248, Note_off_c, 0, 52, 64
3, 49248, Note_on_c, 0, 55, 64
3, 49344, Note_off_c, 0, 55, 64
3, 49344, Note_on_c, 0, 51, 64
3, 49440, Note_off_c, 0, 51, 64
3, 49440, Note_on_c, 0, 55, 64
3, 49536, Note_off_c, 0, 55, 64
3, 49536, Note_on_c, 0, 50, 64
3, 49632, Note_off_c, 0, 50, 64
3, 49632, Note_on_c, 0, 55, 64
3, 49728, Note_off_c, 0, 55, 64
3, 49728, Note_on_c, 0, 49, 64
3, 49824, Note_off_c, 0, 49, 64
3, 49824, Note_on_c, 0, 55, 64
3, 49920, Note_off_c, 0, 55, 64
3, 49920, Note_on_c, 0, 50, 64
3, 50016, Note_off_c, 0, 50, 64
3, 50016, Note_on_c, 0, 55, 64
3, 50112, Note_off_c, 0, 55, 64
3, 50112, Note_on_c, 0, 53, 64
3, 50208, Note_off_c, 0, 53, 64
3, 50208, Note_on_c, 0, 50, 64
3, 50304, Note_off_c, 0, 50, 64
3, 50304, Note_on_c, 0, 48, 64
3, 50400, Note_off_c, 0, 48, 64
3, 50400, Note_on_c, 0, 60, 64
3, 50496, Note_off_c, 0, 60, 64
3, 50496, Note_on_c, 0, 50, 64
3, 50592, Note_off_c, 0, 50, 64
3, 50592, Note_on_c, 0, 62, 64
3, 50688, Note_off_c, 0, 62, 64
3, 50688, Note_on_c, 0, 52, 80
3, 50784, Note_off_c, 0, 52, 64
3, 50784, Note_on_c, 0, 56, 80
3, 50880, Note_off_c, 0, 56, 64
3, 50880, Note_on_c, 0, 59, 75
3, 50976, Note_off_c, 0, 59, 64
3, 50976, Note_on_c, 0, 64, 64
3, 51072, Note_off_c, 0, 64, 64
3, 51072, Note_on_c, 0, 52, 71
3, 51168, Note_off_c, 0, 52, 64
3, 51168, Note_on_c, 0, 56, 64
3, 51264, Note_off_c, 0, 56, 64
3, 51264, Note_on_c, 0, 59, 64
3, 51360, Note_off_c, 0, 59, 64
3, 51360, Note_on_c, 0, 64, 64
3, 51456, Note_off_c, 0, 64, 64
3, 51456, Note_on_c, 0, 52, 73
3, 51552, Note_off_c, 0, 52, 64
3, 51552, Note_on_c, 0, 57, 64
3, 51648, Note_off_c, 0, 57, 64
3, 51648, Note_on_c, 0, 60, 64
3, 51744, Note_off_c, 0, 60, 64
3, 51744, Note_on_c, 0, 64, 64
3, 51840, Note_off_c, 0, 64, 64
3, 51840, Note_on_c, 0, 52, 73
3, 51936, Note_off_c, 0, 52, 64
3, 51936, Note_on_c, 0, 56, 64
3, 52032, Note_off_c, 0, 56, 64
3, 52032, Note_on_c, 0, 59, 64
3, 52128, Note_off_c, 0, 59, 64
3, 52128, Note_on_c, 0, 64, 64
3, 52224, Note_off_c, 0, 64, 64
3, 52224, Note_on_c, 0, 52, 75
3, 52320, Note_off_c, 0, 52, 64
3, 52320, Note_on_c, 0, 56, 64
3, 52416, Note_off_c, 0, 56, 64
3, 52416, Note_on_c, 0, 59, 64
3, 52512, Note_off_c, 0, 59, 64
3, 52512, Note_on_c, 0, 64, 64
3, 52608, Note_off_c, 0, 64, 64
3, 52608, Note_on_c, 0, 52, 73
3, 52704, Note_off_c, 0, 52, 64
3, 52704, Note_on_c, 0, 57, 64
3, 52800, Note_off_c, 0, 57, 64
3, 52800, Note_on_c, 0, 60, 64
3, 52896, Note_off_c, 0, 60, 64
3, 52896, Note_on_c, 0, 64, 64
3, 52992, Note_off_c, 0, 64, 64
3, 52992, Note_on_c, 0, 52, 75
3, 53088, Note_off_c, 0, 52, 64
3, 53088, Note_on_c, 0, 56, 64
3, 53184, Note_off_c, 0, 56, 64
3, 53184, Note_on_c, 0, 59, 64
3, 53280, Note_off_c, 0, 59, 64
3, 53280, Note_on_c, 0, 64, 64
3, 53376, Note_off_c, 0, 64, 64
3, 53376, Note_on_c, 0, 52, 73
3, 53472, Note_off_c, 0, 52, 64
3, 53472, Note_on_c, 0, 56, 64
3, 53568, Note_off_c, 0, 56, 64
3, 53568, Note_on_c, 0, 59, 64
3, 53664, Note_off_c, 0, 59, 64
3, 53664, Note_on_c, 0, 64, 64
3, 53760, Note_off_c, 0, 64, 64
3, 53760, Note_on_c, 0, 52, 73
3, 53856, Note_off_c, 0, 52, 64
3, 53856, Note_on_c, 0, 56, 64
3, 53952, Note_off_c, 0, 56, 64
3, 53952, Note_on_c, 0, 59, 64
3, 54048, Note_off_c, 0, 59, 64
3, 54048, Note_on_c, 0, 64, 64
3, 54144, Note_off_c, 0, 64, 64
3, 54144, Note_on_c, 0, 52, 73
3, 54240, Note_off_c, 0, 52, 64
3, 54240, Note_on_c, 0, 56, 64
3, 54336, Note_off_c, 0, 56, 64
3, 54336, Note_on_c, 0, 59, 63
3, 54432, Note_off_c, 0, 59, 64
3, 54432, Note_on_c, 0, 64, 63
3, 54528, Note_off_c, 0, 64, 64
3, 54528, Note_on_c, 0, 52, 71
3, 54624, Note_off_c, 0, 52, 64
3, 54624, Note_on_c, 0, 56, 62
3, 54720, Note_off_c, 0, 56, 64
3, 54720, Note_on_c, 0, 59, 61
3, 54816, Note_off_c, 0, 59, 64
3, 54816, Note_on_c, 0, 63, 61
3, 54912, Note_off_c, 0, 63, 64
3, 54912, Note_on_c, 0, 64, 69
3, 55008, Note_off_c, 0, 64, 64
3, 55008, Note_on_c, 0, 52, 60
3, 55104, Note_off_c, 0, 52, 64
3, 55104, Note_on_c, 0, 56, 59
3, 55200, Note_off_c, 0, 56, 64
3, 55200, Note_on_c, 0, 59, 59
3, 55296, Note_off_c, 0, 59, 64
3, 55296, Note_on_c, 0, 63, 65
3, 55392, Note_off_c, 0, 63, 64
3, 55392, Note_on_c, 0, 64, 57
3, 55488, Note_off_c, 0, 64, 64
3, 55488, Note_on_c, 0, 52, 57
3, 55584, Note_off_c, 0, 52, 64
3, 55584, Note_on_c, 0, 56, 56
3, 55680, Note_off_c, 0, 56, 64
3, 55680, Note_on_c, 0, 59, 65
3, 55776, Note_off_c, 0, 59, 64
3, 55776, Note_on_c, 0, 63, 55
3, 55872, Note_off_c, 0, 63, 64
3, 55872, Note_on_c, 0, 64, 55
3, 55968, Note_off_c, 0, 64, 64
3, 55968, Note_on_c, 0, 52, 54
3, 56064, Note_off_c, 0, 52, 64
3, 56064, Note_on_c, 0, 56, 63
3, 56160, Note_off_c, 0, 56, 64
3, 56160, Note_on_c, 0, 59, 53
3, 56256, Note_off_c, 0, 59, 64
3, 56256, Note_on_c, 0, 63, 53
3, 56352, Note_off_c, 0, 63, 64
3, 56352, Note_on_c, 0, 64, 52
3, 56448, Note_off_c, 0, 64, 64
3, 56448, Note_on_c, 0, 52, 63
3, 56544, Note_off_c, 0, 52, 64
3, 56544, Note_on_c, 0, 63, 53
3, 56640, Note_off_c, 0, 63, 64
3, 56640, Note_on_c, 0, 64, 53
3, 56736, Note_off_c, 0, 64, 64
3, 56736, Note_on_c, 0, 52, 53
3, 56832, Note_off_c, 0, 52, 64
3, 56832, Note_on_c, 0, 63, 61
3, 56928, Note_off_c, 0, 63, 64
3, 56928, Note_on_c, 0, 64, 53
3, 57024, Note_off_c, 0, 64, 64
3, 57024, Note_on_c, 0, 52, 53
3, 57120, Note_off_c, 0, 52, 64
3, 57120, Note_on_c, 0, 63, 53
3, 57216, Note_off_c, 0, 63, 64
3, 57216, Note_on_c, 0, 64, 63
3, 57312, Note_off_c, 0, 64, 64
3, 57312, Note_on_c, 0, 52, 53
3, 57408, Note_off_c, 0, 52, 64
3, 57408, Note_on_c, 0, 63, 53
3, 57504, Note_off_c, 0, 63, 64
3, 57504, Note_on_c, 0, 64, 53
3, 57600, Note_off_c, 0, 64, 64
3, 57600, Note_on_c, 0, 48, 78
3, 57600, Note_on_c, 0, 60, 78
3, 57696, Note_off_c, 0, 60, 64
3, 57696, Note_off_c, 0, 48, 64
3, 57696, Note_on_c, 0, 55, 78
3, 57792, Note_off_c, 0, 55, 64
3, 57792, Note_on_c, 0, 47, 77
3, 57888, Note_off_c, 0, 47, 64
3, 57888, Note_on_c, 0, 55, 53
3, 57984, Note_off_c, 0, 55, 64
3, 57984, Note_on_c, 0, 48, 63
3, 58080, Note_off_c, 0, 48, 64
3, 58080, Note_on_c, 0, 55, 53
3, 58176, Note_off_c, 0, 55, 64
3, 58176, Note_on_c, 0, 47, 53
3, 58272, Note_off_c, 0, 47, 64
3, 58272, Note_on_c, 0, 55, 53
3, 58368, Note_off_c, 0, 55, 64
3, 58368, Note_on_c, 0, 48, 63
3, 58464, Note_off_c, 0, 48, 64
3, 58464, Note_on_c, 0, 55, 53
3, 58560, Note_off_c, 0, 55, 64
3, 58560, Note_on_c, 0, 50, 53
3, 58656, Note_off_c, 0, 50, 64
3, 58656, Note_on_c, 0, 55, 53
3, 58752, Note_off_c, 0, 55, 64
3, 58752, Note_on_c, 0, 52, 61
3, 58848, Note_off_c, 0, 52, 64
3, 58848, Note_on_c, 0, 55, 53
3, 58944, Note_off_c, 0, 55, 64
3, 58944, Note_on_c, 0, 53, 53
3, 59040, Note_off_c, 0, 53, 64
3, 59040, Note_on_c, 0, 55, 53
3, 59136, Note_off_c, 0, 55, 64
3, 59136, Note_on_c, 0, 50, 59
3, 59232, Note_off_c, 0, 50, 64
3, 59232, Note_on_c, 0, 55, 53
3, 59328, Note_off_c, 0, 55, 64
3, 59328, Note_on_c, 0, 48, 53
3, 59424, Note_off_c, 0, 48, 64
3, 59424, Note_on_c, 0, 55, 53
3, 59520, Note_off_c, 0, 55, 64
3, 59520, Note_on_c, 0, 47, 61
3, 59616, Note_off_c, 0, 47, 64
3, 59616, Note_on_c, 0, 55, 53
3, 59712, Note_off_c, 0, 55, 64
3, 59712, Note_on_c, 0, 46, 53
3, 59808, Note_off_c, 0, 46, 64
3, 59808, Note_on_c, 0, 48, 53
3, 59904, Note_off_c, 0, 48, 64
3, 59904, Note_on_c, 0, 45, 63
3, 60000, Note_off_c, 0, 45, 64
3, 60000, Note_on_c, 0, 48, 53
3, 60096, Note_off_c, 0, 48, 64
3, 60096, Note_on_c, 0, 43, 55
3, 60192, Note_off_c, 0, 43, 64
3, 60192, Note_on_c, 0, 48, 57
3, 60288, Note_off_c, 0, 48, 64
3, 60288, Note_on_c, 0, 41, 67
3, 60384, Note_off_c, 0, 41, 64
3, 60384, Note_on_c, 0, 53, 61
3, 60480, Note_off_c, 0, 53, 64
3, 60480, Note_on_c, 0, 50, 63
3, 60576, Note_off_c, 0, 50, 64
3, 60576, Note_on_c, 0, 55, 65
3, 60672, Note_off_c, 0, 55, 64
3, 60672, Note_on_c, 0, 52, 75
3, 60768, Note_off_c, 0, 52, 64
3, 60768, Note_on_c, 0, 55, 68
3, 60864, Note_off_c, 0, 55, 64
3, 60864, Note_on_c, 0, 51, 70
3, 60960, Note_off_c, 0, 51, 64
3, 60960, Note_on_c, 0, 55, 72
3, 61056, Note_off_c, 0, 55, 64
3, 61056, Note_on_c, 0, 50, 86
3, 61152, Note_off_c, 0, 50, 64
3, 61152, Note_on_c, 0, 55, 76
3, 61248, Note_off_c, 0, 55, 64
3, 61248, Note_on_c, 0, 48, 78
3, 61344, Note_off_c, 0, 48, 64
3, 61344, Note_on_c, 0, 55, 80
3, 61440, Note_off_c, 0, 55, 64
3, 61440, Note_on_c, 0, 47, 90
3, 61536, Note_off_c, 0, 47, 64
3, 61536, Note_on_c, 0, 55, 83
3, 61632, Note_off_c, 0, 55, 64
3, 61632, Note_on_c, 0, 46, 85
3, 61728, Note_off_c, 0, 46, 64
3, 61728, Note_on_c, 0, 55, 87
3, 61824, Note_off_c, 0, 55, 64
3, 61824, Note_on_c, 0, 45, 102
3, 61920, Note_off_c, 0, 45, 64
3, 61920, Note_on_c, 0, 55, 91
3, 62016, Note_off_c, 0, 55, 64
3, 62016, Note_on_c, 0, 44, 93
3, 62112, Note_off_c, 0, 44, 64
3, 62112, Note_on_c, 0, 55, 95
3, 62208, Note_off_c, 0, 55, 64
3, 62208, Note_on_c, 0, 31, 88
3, 62208, Note_on_c, 0, 43, 88
3, 62304, Note_off_c, 0, 43, 64
3, 62304, Note_off_c, 0, 31, 64
3, 62496, Note_on_c, 0, 78, 84
3, 62568, Note_off_c, 0, 78, 64
3, 62592, Note_on_c, 0, 79, 75
3, 62652, Note_off_c, 0, 79, 64
3, 62880, Note_on_c, 0, 66, 84
3, 62976, Note_off_c, 0, 66, 64
3, 62976, Note_on_c, 0, 67, 75
3, 63072, Note_off_c, 0, 67, 64
3, 63264, Note_on_c, 0, 54, 84
3, 63360, Note_off_c, 0, 54, 64
3, 63360, Note_on_c, 0, 55, 75
3, 63456, Note_off_c, 0, 55, 64
3, 63648, Note_on_c, 0, 42, 84
3, 63744, Note_off_c, 0, 42, 64
3, 63744, Note_on_c, 0, 43, 75
3, 63840, Note_off_c, 0, 43, 64
3, 64032, Note_on_c, 0, 54, 84
3, 64128, Note_off_c, 0, 54, 64
3, 64128, Note_on_c, 0, 55, 75
3, 64224, Note_off_c, 0, 55, 64
3, 64416, Note_on_c, 0, 66, 84
3, 64512, Note_off_c, 0, 66, 64
3, 64512, Note_on_c, 0, 67, 75
3, 64608, Note_off_c, 0, 67, 64
3, 64800, Note_on_c, 0, 78, 82
3, 64896, Note_off_c, 0, 78, 64
3, 64896, Note_on_c, 0, 79, 75
3, 64992, Note_off_c, 0, 79, 64
3, 65184, Note_on_c, 0, 73, 75
3, 65184, Note_on_c, 0, 76, 75
3, 65280, Note_off_c, 0, 76, 64
3, 65280, Note_off_c, 0, 73, 64
3, 65280, Note_on_c, 0, 74, 75
3, 65280, Note_on_c, 0, 77, 75
3, 65472, Note_off_c, 0, 77, 64
3, 65472, Note_off_c, 0, 74, 64
3, 65568, Note_on_c, 0, 72, 75
3, 65568, Note_on_c, 0, 76, 75
3, 65664, Note_off_c, 0, 76, 64
3, 65664, Note_off_c, 0, 72, 64
3, 65664, Note_on_c, 0, 71, 64
3, 65664, Note_on_c, 0, 74, 64
3, 65856, Note_off_c, 0, 74, 64
3, 65856, Note_off_c, 0, 71, 64
3, 65856, Note_on_c, 0, 69, 66
3, 65856, Note_on_c, 0, 72, 66
3, 65856, Note_on_c, 0, 77, 66
3, 65952, Note_off_c, 0, 77, 64
3, 65952, Note_off_c, 0, 72, 64
3, 65952, Note_off_c, 0, 69, 64
3, 65952, Note_on_c, 0, 69, 66
3, 65952, Note_on_c, 0, 72, 66
3, 65952, Note_on_c, 0, 77, 66
3, 66048, Note_off_c, 0, 77, 64
3, 66048, Note_off_c, 0, 72, 64
3, 66048, Note_off_c, 0, 69, 64
3, 66048, Note_on_c, 0, 67, 58
3, 66048, Note_on_c, 0, 71, 58
3, 66048, Note_on_c, 0, 76, 58
3, 66240, Note_off_c, 0, 76, 64
3, 66240, Note_off_c, 0, 71, 64
3, 66240, Note_off_c, 0, 67, 64
3, 66240, Note_on_c, 0, 65, 64
3, 66240, Note_on_c, 0, 69, 64
3, 66240, Note_on_c, 0, 74, 64
3, 66336, Note_off_c, 0, 74, 64
3, 66336, Note_off_c, 0, 69, 64
3, 66336, Note_off_c, 0, 65, 64
3, 66336, Note_on_c, 0, 65, 64
3, 66336, Note_on_c, 0, 69, 64
3, 66336, Note_on_c, 0, 74, 64
3, 66432, Note_off_c, 0, 74, 64
3, 66432, Note_off_c, 0, 69, 64
3, 66432, Note_off_c, 0, 65, 64
3, 66432, Note_on_c, 0, 64, 62
3, 66432, Note_on_c, 0, 67, 62
3, 66432, Note_on_c, 0, 72, 62
3, 66624, Note_off_c, 0, 72, 64
3, 66624, Note_off_c, 0, 67, 64
3, 66624, Note_off_c, 0, 64, 64
3, 66624, Note_on_c, 0, 62, 70
3, 66624, Note_on_c, 0, 65, 70
3, 66624, Note_on_c, 0, 71, 70
3, 66720, Note_off_c, 0, 71, 64
3, 66720, Note_off_c, 0, 65, 64
3, 66720, Note_off_c, 0, 62, 64
3, 66720, Note_on_c, 0, 62, 70
3, 66720, Note_on_c, 0, 65, 70
3, 66720, Note_on_c, 0, 71, 70
3, 66816, Note_off_c, 0, 71, 64
3, 66816, Note_off_c, 0, 65, 64
3, 66816, Note_off_c, 0, 62, 64
3, 66816, Note_on_c, 0, 48, 84
3, 67008, Note_off_c, 0, 48, 64
3, 67008, Note_on_c, 0, 60, 70
3, 67008, Note_on_c, 0, 64, 70
3, 67008, Note_on_c, 0, 67, 70
3, 67104, Note_off_c, 0, 67, 64
3, 67104, Note_off_c, 0, 64, 64
3, 67104, Note_off_c, 0, 60, 64
3, 67104, Note_on_c, 0, 60, 70
3, 67104, Note_on_c, 0, 64, 70
3, 67104, Note_on_c, 0, 67, 70
3, 67200, Note_off_c, 0, 67, 64
3, 67200, Note_off_c, 0, 64, 64
3, 67200, Note_off_c, 0, 60, 64
3, 67200, Note_on_c, 0, 60, 61
3, 67200, Note_on_c, 0, 64, 61
3, 67200, Note_on_c, 0, 67, 61
3, 67392, Note_off_c, 0, 67, 64
3, 67392, Note_off_c, 0, 64, 64
3, 67392, Note_off_c, 0, 60, 64
3, 67392, Note_on_c, 0, 60, 59
3, 67392, Note_on_c, 0, 64, 59
3, 67392, Note_on_c, 0, 67, 59
3, 67584, Note_off_c, 0, 67, 64
3, 67584, Note_off_c, 0, 64, 64
3, 67584, Note_off_c, 0, 60, 64
3, 67584, Note_on_c, 0, 60, 61
3, 67584, Note_on_c, 0, 64, 61
3, 67584, Note_on_c, 0, 67, 61
3, 67776, Note_off_c, 0, 67, 64
3, 67776, Note_off_c, 0, 64, 64
3, 67776, Note_off_c, 0, 60, 64
3, 67776, Note_on_c, 0, 60, 59
3, 67776, Note_on_c, 0, 64, 59
3, 67776, Note_on_c, 0, 67, 59
3, 67968, Note_off_c, 0, 67, 64
3, 67968, Note_off_c, 0, 64, 64
3, 67968, Note_off_c, 0, 60, 64
3, 67968, Note_on_c, 0, 48, 82
3, 68160, Note_off_c, 0, 48, 64
3, 68160, Note_on_c, 0, 60, 70
3, 68160, Note_on_c, 0, 65, 70
3, 68160, Note_on_c, 0, 69, 70
3, 68256, Note_off_c, 0, 69, 64
3, 68256, Note_off_c, 0, 65, 64
3, 68256, Note_off_c, 0, 60, 64
3, 68256, Note_on_c, 0, 60, 70
3, 68256, Note_on_c, 0, 65, 70
3, 68256, Note_on_c, 0, 69, 70
3, 68352, Note_off_c, 0, 69, 64
3, 68352, Note_off_c, 0, 65, 64
3, 68352, Note_off_c, 0, 60, 64
3, 68352, Note_on_c, 0, 48, 80
3, 68544, Note_off_c, 0, 48, 64
3, 68544, Note_on_c, 0, 60, 70
3, 68544, Note_on_c, 0, 64, 70
3, 68544, Note_on_c, 0, 67, 70
3, 68640, Note_off_c, 0, 67, 64
3, 68640, Note_off_c, 0, 64, 64
3, 68640, Note_off_c, 0, 60, 64
3, 68640, Note_on_c, 0, 60, 70
3, 68640, Note_on_c, 0, 64, 70
3, 68640, Note_on_c, 0, 67, 70
3, 68736, Note_off_c, 0, 67, 64
3, 68736, Note_off_c, 0, 64, 64
3, 68736, Note_off_c, 0, 60, 64
3, 68736, Note_on_c, 0, 60, 55
3, 68736, Note_on_c, 0, 64, 55
3, 68736, Note_on_c, 0, 67, 55
3, 68928, Note_off_c, 0, 67, 64
3, 68928, Note_off_c, 0, 64, 64
3, 68928, Note_off_c, 0, 60, 64
3, 68928, Note_on_c, 0, 61, 61
3, 68928, Note_on_c, 0, 64, 61
3, 69120, Note_off_c, 0, 64, 64
3, 69120, Note_off_c, 0, 61, 64
3, 69120, Note_on_c, 0, 62, 64
3, 69120, Note_on_c, 0, 65, 64
3, 69312, Note_off_c, 0, 65, 64
3, 69312, Note_off_c, 0, 62, 64
3, 69312, Note_on_c, 0, 64, 70
3, 69312, Note_on_c, 0, 67, 70
3, 69504, Note_off_c, 0, 67, 64
3, 69504, Note_off_c, 0, 64, 64
3, 69504, Note_on_c, 0, 65, 72
3, 69504, Note_on_c, 0, 69, 72
3, 69696, Note_off_c, 0, 69, 64
3, 69696, Note_off_c, 0, 65, 64
3, 69696, Note_on_c, 0, 54, 61
3, 69696, Note_on_c, 0, 57, 61
3, 69888, Note_off_c, 0, 57, 64
3, 69888, Note_off_c, 0, 54, 64
3, 69888, Note_on_c, 0, 55, 64
3, 69888, Note_on_c, 0, 59, 64
3, 70080, Note_off_c, 0, 59, 64
3, 70080, Note_off_c, 0, 55, 64
3, 70080, Note_on_c, 0, 50, 70
3, 70080, Note_on_c, 0, 60, 70
3, 70272, Note_off_c, 0, 60, 64
3, 70272, Note_off_c, 0, 50, 64
3, 70272, Note_on_c, 0, 50, 70
3, 70272, Note_on_c, 0, 60, 70
3, 70464, Note_off_c, 0, 60, 64
3, 70464, Note_off_c, 0, 50, 64
3, 70464, Note_on_c, 0, 55, 70
3, 70464, Note_on_c, 0, 59, 70
3, 70656, Note_off_c, 0, 59, 64
3, 70656, Note_off_c, 0, 55, 64
3, 70656, Note_on_c, 0, 43, 90
3, 70848, Note_off_c, 0, 43, 64
3, 70848, Note_on_c, 0, 55, 70
3, 70848, Note_on_c, 0, 59, 70
3, 70848, Note_on_c, 0, 62, 70
3, 70944, Note_off_c, 0, 62, 64
3, 70944, Note_off_c, 0, 59, 64
3, 70944, Note_off_c, 0, 55, 64
3, 70944, Note_on_c, 0, 55, 70
3, 70944, Note_on_c, 0, 59, 70
3, 70944, Note_on_c, 0, 62, 70
3, 71040, Note_off_c, 0, 62, 64
3, 71040, Note_off_c, 0, 59, 0
3, 71040, Note_off_c, 0, 55, 0
3, 71040, Note_on_c, 0, 55, 61
3, 71040, Note_on_c, 0, 59, 61
3, 71040, Note_on_c, 0, 62, 61
3, 71232, Note_off_c, 0, 62, 64
3, 71232, Note_off_c, 0, 59, 64
3, 71232, Note_off_c, 0, 55, 64
3, 71232, Note_on_c, 0, 55, 70
3, 71232, Note_on_c, 0, 59, 70
3, 71232, Note_on_c, 0, 62, 70
3, 71424, Note_off_c, 0, 62, 64
3, 71424, Note_off_c, 0, 59, 64
3, 71424, Note_off_c, 0, 55, 64
3, 71424, Note_on_c, 0, 43, 90
3, 71616, Note_off_c, 0, 43, 64
3, 71616, Note_on_c, 0, 53, 70
3, 71616, Note_on_c, 0, 55, 70
3, 71616, Note_on_c, 0, 59, 70
3, 71616, Note_on_c, 0, 62, 70
3, 71712, Note_off_c, 0, 62, 64
3, 71712, Note_off_c, 0, 59, 64
3, 71712, Note_off_c, 0, 55, 64
3, 71712, Note_off_c, 0, 53, 64
3, 71712, Note_on_c, 0, 53, 70
3, 71712, Note_on_c, 0, 55, 70
3, 71712, Note_on_c, 0, 59, 70
3, 71712, Note_on_c, 0, 62, 70
3, 71808, Note_off_c, 0, 62, 64
3, 71808, Note_off_c, 0, 59, 64
3, 71808, Note_off_c, 0, 55, 64
3, 71808, Note_off_c, 0, 53, 64
3, 71808, Note_on_c, 0, 53, 64
3, 71808, Note_on_c, 0, 55, 64
3, 71808, Note_on_c, 0, 59, 64
3, 71808, Note_on_c, 0, 62, 64
3, 72000, Note_off_c, 0, 62, 64
3, 72000, Note_off_c, 0, 59, 64
3, 72000, Note_off_c, 0, 55, 64
3, 72000, Note_off_c, 0, 53, 64
3, 72000, Note_on_c, 0, 53, 64
3, 72000, Note_on_c, 0, 55, 64
3, 72000, Note_on_c, 0, 59, 64
3, 72000, Note_on_c, 0, 62, 64
3, 72192, Note_off_c, 0, 62, 64
3, 72192, Note_off_c, 0, 59, 64
3, 72192, Note_off_c, 0, 55, 64
3, 72192, Note_off_c, 0, 53, 64
3, 72192, Note_on_c, 0, 53, 61
3, 72192, Note_on_c, 0, 55, 61
3, 72192, Note_on_c, 0, 59, 61
3, 72192, Note_on_c, 0, 62, 61
3, 72384, Note_off_c, 0, 62, 64
3, 72384, Note_off_c, 0, 59, 64
3, 72384, Note_off_c, 0, 55, 64
3, 72384, Note_off_c, 0, 53, 64
3, 72384, Note_on_c, 0, 53, 61
3, 72384, Note_on_c, 0, 55, 61
3, 72384, Note_on_c, 0, 59, 61
3, 72384, Note_on_c, 0, 62, 61
3, 72576, Note_off_c, 0, 62, 64
3, 72576, Note_off_c, 0, 59, 64
3, 72576, Note_off_c, 0, 55, 64
3, 72576, Note_off_c, 0, 53, 64
3, 72576, Note_on_c, 0, 52, 80
3, 72576, Note_on_c, 0, 55, 80
3, 72576, Note_on_c, 0, 60, 80
3, 72768, Note_off_c, 0, 60, 64
3, 72768, Note_off_c, 0, 55, 64
3, 72768, Note_off_c, 0, 52, 64
3, 72768, Note_on_c, 0, 64, 70
3, 72768, Note_on_c, 0, 67, 70
3, 72864, Note_off_c, 0, 67, 64
3, 72864, Note_off_c, 0, 64, 64
3, 72864, Note_on_c, 0, 64, 70
3, 72864, Note_on_c, 0, 67, 70
3, 72960, Note_off_c, 0, 67, 64
3, 72960, Note_off_c, 0, 64, 64
3, 72960, Note_on_c, 0, 64, 61
3, 72960, Note_on_c, 0, 67, 61
3, 73152, Note_off_c, 0, 67, 64
3, 73152, Note_off_c, 0, 64, 64
3, 73152, Note_on_c, 0, 64, 70
3, 73152, Note_on_c, 0, 67, 70
3, 73344, Note_off_c, 0, 67, 64
3, 73344, Note_off_c, 0, 64, 64
3, 73344, Note_on_c, 0, 64, 70
3, 73344, Note_on_c, 0, 67, 70
3, 73536, Note_off_c, 0, 67, 64
3, 73536, Note_off_c, 0, 64, 64
3, 73536, Note_on_c, 0, 64, 70
3, 73536, Note_on_c, 0, 67, 70
3, 73728, Note_off_c, 0, 67, 64
3, 73728, Note_off_c, 0, 64, 64
3, 73728, Note_on_c, 0, 53, 90
3, 73920, Note_off_c, 0, 53, 64
3, 73920, Note_on_c, 0, 65, 70
3, 73920, Note_on_c, 0, 69, 70
3, 74016, Note_off_c, 0, 69, 64
3, 74016, Note_off_c, 0, 65, 64
3, 74016, Note_on_c, 0, 65, 70
3, 74016, Note_on_c, 0, 69, 70
3, 74112, Note_off_c, 0, 69, 64
3, 74112, Note_off_c, 0, 65, 64
3, 74112, Note_on_c, 0, 55, 94
3, 74304, Note_off_c, 0, 55, 64
3, 74304, Note_on_c, 0, 64, 70
3, 74304, Note_on_c, 0, 67, 70
3, 74400, Note_off_c, 0, 67, 64
3, 74400, Note_off_c, 0, 64, 64
3, 74400, Note_on_c, 0, 64, 70
3, 74400, Note_on_c, 0, 67, 70
3, 74496, Note_off_c, 0, 67, 64
3, 74496, Note_off_c, 0, 64, 64
3, 74496, Note_on_c, 0, 55, 94
3, 74688, Note_off_c, 0, 55, 64
3, 74688, Note_on_c, 0, 62, 70
3, 74688, Note_on_c, 0, 65, 70
3, 74784, Note_off_c, 0, 65, 64
3, 74784, Note_off_c, 0, 62, 64
3, 74784, Note_on_c, 0, 62, 70
3, 74784, Note_on_c, 0, 65, 70
3, 74880, Note_off_c, 0, 65, 64
3, 74880, Note_off_c, 0, 62, 64
3, 74880, Note_on_c, 0, 48, 92
3, 75072, Note_off_c, 0, 48, 64
3, 75072, Note_on_c, 0, 60, 70
3, 75072, Note_on_c, 0, 62, 70
3, 75072, Note_on_c, 0, 65, 70
3, 75168, Note_off_c, 0, 65, 64
3, 75168, Note_off_c, 0, 62, 64
3, 75168, Note_off_c, 0, 60, 64
3, 75168, Note_on_c, 0, 60, 70
3, 75168, Note_on_c, 0, 62, 70
3, 75168, Note_on_c, 0, 65, 70
3, 75264, Note_off_c, 0, 65, 64
3, 75264, Note_off_c, 0, 62, 64
3, 75264, Note_off_c, 0, 60, 64
3, 75264, Note_on_c, 0, 60, 58
3, 75264, Note_on_c, 0, 62, 58
3, 75264, Note_on_c, 0, 65, 58
3, 75456, Note_off_c, 0, 65, 64
3, 75456, Note_off_c, 0, 62, 64
3, 75456, Note_off_c, 0, 60, 64
3, 75456, Note_on_c, 0, 60, 50
3, 75456, Note_on_c, 0, 62, 50
3, 75456, Note_on_c, 0, 65, 50
3, 75648, Note_off_c, 0, 65, 64
3, 75648, Note_off_c, 0, 62, 64
3, 75648, Note_off_c, 0, 60, 64
3, 75648, Note_on_c, 0, 60, 51
3, 75648, Note_on_c, 0, 64, 51
3, 75840, Note_off_c, 0, 64, 64
3, 75840, Note_off_c, 0, 60, 64
3, 75840, Note_on_c, 0, 55, 66
3, 75936, Note_off_c, 0, 55, 64
3, 75936, Note_on_c, 0, 54, 68
3, 76032, Note_off_c, 0, 54, 64
3, 76032, Note_on_c, 0, 43, 82
3, 76032, Note_on_c, 0, 55, 82
3, 76224, Note_off_c, 0, 55, 64
3, 76224, Note_off_c, 0, 43, 64
3, 76224, Note_on_c, 0, 62, 51
3, 76224, Note_on_c, 0, 65, 51
3, 76224, Note_on_c, 0, 67, 51
3, 76320, Note_off_c, 0, 67, 64
3, 76320, Note_off_c, 0, 65, 64
3, 76320, Note_off_c, 0, 62, 64
3, 76320, Note_on_c, 0, 62, 51
3, 76320, Note_on_c, 0, 65, 51
3, 76320, Note_on_c, 0, 67, 51
3, 76416, Note_off_c, 0, 67, 64
3, 76416, Note_off_c, 0, 65, 64
3, 76416, Note_off_c, 0, 62, 64
3, 76416, Note_on_c, 0, 62, 47
3, 76416, Note_on_c, 0, 65, 47
3, 76416, Note_on_c, 0, 67, 47
3, 76608, Note_off_c, 0, 67, 0
3, 76608, Note_off_c, 0, 65, 0
3, 76608, Note_off_c, 0, 62, 64
3, 76608, Note_on_c, 0, 62, 47
3, 76608, Note_on_c, 0, 65, 47
3, 76608, Note_on_c, 0, 67, 47
3, 76800, Note_off_c, 0, 67, 64
3, 76800, Note_off_c, 0, 65, 64
3, 76800, Note_off_c, 0, 62, 64
3, 76800, Note_on_c, 0, 60, 47
3, 76800, Note_on_c, 0, 64, 47
3, 76800, Note_on_c, 0, 67, 47
3, 76992, Note_off_c, 0, 67, 64
3, 76992, Note_off_c, 0, 64, 64
3, 76992, Note_off_c, 0, 60, 64
3, 76992, Note_on_c, 0, 60, 47
3, 76992, Note_on_c, 0, 64, 47
3, 76992, Note_on_c, 0, 67, 47
3, 77184, Note_off_c, 0, 67, 64
3, 77184, Note_off_c, 0, 64, 64
3, 77184, Note_off_c, 0, 60, 64
3, 77184, Note_on_c, 0, 43, 82
3, 77184, Note_on_c, 0, 55, 82
3, 77376, Note_off_c, 0, 55, 64
3, 77376, Note_off_c, 0, 43, 64
3, 77376, Note_on_c, 0, 59, 53
3, 77376, Note_on_c, 0, 62, 53
3, 77376, Note_on_c, 0, 67, 53
3, 77472, Note_off_c, 0, 67, 64
3, 77472, Note_off_c, 0, 62, 64
3, 77472, Note_off_c, 0, 59, 64
3, 77472, Note_on_c, 0, 59, 53
3, 77472, Note_on_c, 0, 62, 53
3, 77472, Note_on_c, 0, 67, 53
3, 77568, Note_off_c, 0, 67, 64
3, 77568, Note_off_c, 0, 62, 64
3, 77568, Note_off_c, 0, 59, 64
3, 77568, Note_on_c, 0, 59, 47
3, 77568, Note_on_c, 0, 62, 47
3, 77568, Note_on_c, 0, 67, 47
3, 77760, Note_off_c, 0, 67, 64
3, 77760, Note_off_c, 0, 62, 0
3, 77760, Note_off_c, 0, 59, 0
3, 77760, Note_on_c, 0, 59, 47
3, 77760, Note_on_c, 0, 62, 47
3, 77760, Note_on_c, 0, 67, 47
3, 77952, Note_off_c, 0, 67, 64
3, 77952, Note_off_c, 0, 62, 64
3, 77952, Note_off_c, 0, 59, 64
3, 77952, Note_on_c, 0, 60, 47
3, 77952, Note_on_c, 0, 64, 47
3, 77952, Note_on_c, 0, 67, 47
3, 78144, Note_off_c, 0, 67, 64
3, 78144, Note_off_c, 0, 64, 64
3, 78144, Note_off_c, 0, 60, 64
3, 78144, Note_on_c, 0, 60, 47
3, 78144, Note_on_c, 0, 64, 47
3, 78144, Note_on_c, 0, 67, 47
3, 78336, Note_off_c, 0, 67, 0
3, 78336, Note_off_c, 0, 64, 0
3, 78336, Note_off_c, 0, 60, 64
3, 78336, Note_on_c, 0, 43, 80
3, 78336, Note_on_c, 0, 55, 80
3, 78528, Note_off_c, 0, 55, 64
3, 78528, Note_off_c, 0, 43, 64
3, 78528, Note_on_c, 0, 62, 55
3, 78528, Note_on_c, 0, 65, 55
3, 78528, Note_on_c, 0, 67, 55
3, 78624, Note_off_c, 0, 67, 64
3, 78624, Note_off_c, 0, 65, 0
3, 78624, Note_off_c, 0, 62, 64
3, 78624, Note_on_c, 0, 62, 55
3, 78624, Note_on_c, 0, 65, 55
3, 78624, Note_on_c, 0, 67, 55
3, 78720, Note_off_c, 0, 67, 64
3, 78720, Note_off_c, 0, 65, 64
3, 78720, Note_off_c, 0, 62, 64
3, 78720, Note_on_c, 0, 62, 46
3, 78720, Note_on_c, 0, 65, 46
3, 78720, Note_on_c, 0, 67, 46
3, 78912, Note_off_c, 0, 67, 0
3, 78912, Note_off_c, 0, 65, 0
3, 78912, Note_off_c, 0, 62, 64
3, 78912, Note_on_c, 0, 62, 44
3, 78912, Note_on_c, 0, 65, 44
3, 78912, Note_on_c, 0, 67, 44
3, 79104, Note_off_c, 0, 67, 64
3, 79104, Note_off_c, 0, 65, 64
3, 79104, Note_off_c, 0, 62, 64
3, 79104, Note_on_c, 0, 60, 41
3, 79104, Note_on_c, 0, 64, 41
3, 79104, Note_on_c, 0, 67, 41
3, 79296, Note_off_c, 0, 67, 64
3, 79296, Note_off_c, 0, 64, 64
3, 79296, Note_off_c, 0, 60, 64
3, 79296, Note_on_c, 0, 60, 39
3, 79296, Note_on_c, 0, 64, 39
3, 79296, Note_on_c, 0, 67, 39
3, 79488, Note_off_c, 0, 67, 64
3, 79488, Note_off_c, 0, 64, 64
3, 79488, Note_off_c, 0, 60, 64
3, 79488, Note_on_c, 0, 60, 47
3, 79488, Note_on_c, 0, 66, 47
3, 79488, Note_on_c, 0, 69, 47
3, 79680, Note_off_c, 0, 69, 64
3, 79680, Note_off_c, 0, 66, 64
3, 79680, Note_off_c, 0, 60, 64
3, 79680, Note_on_c, 0, 60, 36
3, 79680, Note_on_c, 0, 66, 36
3, 79680, Note_on_c, 0, 69, 36
3, 79872, Note_off_c, 0, 69, 64
3, 79872, Note_off_c, 0, 66, 64
3, 79872, Note_off_c, 0, 60, 64
3, 79872, Note_on_c, 0, 59, 36
3, 79872, Note_on_c, 0, 62, 36
3, 79872, Note_on_c, 0, 67, 36
3, 80064, Note_off_c, 0, 67, 64
3, 80064, Note_off_c, 0, 62, 64
3, 80064, Note_off_c, 0, 59, 64
3, 80064, Note_on_c, 0, 59, 36
3, 80064, Note_on_c, 0, 62, 36
3, 80064, Note_on_c, 0, 67, 36
3, 80256, Note_off_c, 0, 67, 64
3, 80256, Note_off_c, 0, 62, 64
3, 80256, Note_off_c, 0, 59, 64
3, 80256, Note_on_c, 0, 59, 36
3, 80256, Note_on_c, 0, 64, 36
3, 80256, Note_on_c, 0, 67, 36
3, 80448, Note_off_c, 0, 67, 64
3, 80448, Note_off_c, 0, 64, 64
3, 80448, Note_off_c, 0, 59, 64
3, 80448, Note_on_c, 0, 59, 36
3, 80448, Note_on_c, 0, 64, 36
3, 80448, Note_on_c, 0, 67, 36
3, 80640, Note_off_c, 0, 67, 64
3, 80640, Note_off_c, 0, 64, 64
3, 80640, Note_off_c, 0, 59, 64
3, 80640, Note_on_c, 0, 57, 47
3, 80640, Note_on_c, 0, 60, 47
3, 80640, Note_on_c, 0, 65, 47
3, 80832, Note_off_c, 0, 65, 64
3, 80832, Note_off_c, 0, 60, 64
3, 80832, Note_off_c, 0, 57, 64
3, 80832, Note_on_c, 0, 57, 36
3, 80832, Note_on_c, 0, 60, 36
3, 80832, Note_on_c, 0, 65, 36
3, 81024, Note_off_c, 0, 65, 64
3, 81024, Note_off_c, 0, 60, 0
3, 81024, Note_off_c, 0, 57, 64
3, 81024, Note_on_c, 0, 57, 36
3, 81024, Note_on_c, 0, 63, 36
3, 81024, Note_on_c, 0, 66, 36
3, 81216, Note_off_c, 0, 66, 64
3, 81216, Note_off_c, 0, 63, 64
3, 81216, Note_off_c, 0, 57, 64
3, 81216, Note_on_c, 0, 57, 36
3, 81216, Note_on_c, 0, 63, 36
3, 81216, Note_on_c, 0, 66, 36
3, 81408, Note_off_c, 0, 66, 64
3, 81408, Note_off_c, 0, 63, 64
3, 81408, Note_off_c, 0, 57, 64
3, 81408, Note_on_c, 0, 55, 36
3, 81408, Note_on_c, 0, 64, 36
3, 81408, Note_on_c, 0, 67, 36
3, 81600, Note_off_c, 0, 67, 64
3, 81600, Note_off_c, 0, 64, 64
3, 81600, Note_off_c, 0, 55, 64
3, 81600, Note_on_c, 0, 55, 36
3, 81600, Note_on_c, 0, 64, 36
3, 81600, Note_on_c, 0, 67, 36
3, 81792, Note_off_c, 0, 67, 64
3, 81792, Note_off_c, 0, 64, 64
3, 81792, Note_off_c, 0, 55, 64
3, 81792, Note_on_c, 0, 55, 47
3, 81792, Note_on_c, 0, 61, 47
3, 81792, Note_on_c, 0, 64, 47
3, 81984, Note_off_c, 0, 64, 64
3, 81984, Note_off_c, 0, 61, 64
3, 81984, Note_off_c, 0, 55, 64
3, 81984, Note_on_c, 0, 55, 36
3, 81984, Note_on_c, 0, 61, 36
3, 81984, Note_on_c, 0, 64, 36
3, 82176, Note_off_c, 0, 64, 64
3, 82176, Note_off_c, 0, 61, 64
3, 82176, Note_off_c, 0, 55, 64
3, 82176, Note_on_c, 0, 53, 36
3, 82176, Note_on_c, 0, 62, 36
3, 82176, Note_on_c, 0, 65, 36
3, 82368, Note_off_c, 0, 65, 64
3, 82368, Note_off_c, 0, 62, 64
3, 82368, Note_off_c, 0, 53, 64
3, 82368, Note_on_c, 0, 53, 36
3, 82368, Note_on_c, 0, 62, 36
3, 82368, Note_on_c, 0, 65, 36
3, 82560, Note_off_c, 0, 65, 64
3, 82560, Note_off_c, 0, 62, 0
3, 82560, Note_off_c, 0, 53, 0
3, 82560, Note_on_c, 0, 55, 36
3, 82560, Note_on_c, 0, 62, 36
3, 82560, Note_on_c, 0, 65, 36
3, 82752, Note_off_c, 0, 65, 64
3, 82752, Note_off_c, 0, 62, 64
3, 82752, Note_off_c, 0, 55, 64
3, 82752, Note_on_c, 0, 55, 36
3, 82752, Note_on_c, 0, 62, 36
3, 82752, Note_on_c, 0, 65, 36
3, 82944, Note_off_c, 0, 65, 64
3, 82944, Note_off_c, 0, 62, 64
3, 82944, Note_off_c, 0, 55, 64
3, 82944, Note_on_c, 0, 48, 84
3, 83136, Note_off_c, 0, 48, 64
3, 83136, Note_on_c, 0, 60, 43
3, 83136, Note_on_c, 0, 64, 43
3, 83136, Note_on_c, 0, 67, 43
3, 83232, Note_off_c, 0, 67, 64
3, 83232, Note_off_c, 0, 64, 64
3, 83232, Note_off_c, 0, 60, 64
3, 83232, Note_on_c, 0, 60, 45
3, 83232, Note_on_c, 0, 64, 45
3, 83232, Note_on_c, 0, 67, 45
3, 83328, Note_off_c, 0, 67, 64
3, 83328, Note_off_c, 0, 64, 64
3, 83328, Note_off_c, 0, 60, 64
3, 83328, Note_on_c, 0, 60, 36
3, 83328, Note_on_c, 0, 64, 36
3, 83328, Note_on_c, 0, 67, 36
3, 83520, Note_off_c, 0, 67, 0
3, 83520, Note_off_c, 0, 64, 0
3, 83520, Note_off_c, 0, 60, 0
3, 83520, Note_on_c, 0, 60, 36
3, 83520, Note_on_c, 0, 64, 36
3, 83520, Note_on_c, 0, 67, 36
3, 83712, Note_off_c, 0, 67, 64
3, 83712, Note_off_c, 0, 64, 0
3, 83712, Note_off_c, 0, 60, 64
3, 83712, Note_on_c, 0, 60, 36
3, 83712, Note_on_c, 0, 64, 36
3, 83712, Note_on_c, 0, 67, 36
3, 83844, Control_c, 0, 64, 0
3, 83904, Note_off_c, 0, 67, 64
3, 83904, Note_off_c, 0, 64, 0
3, 83904, Note_off_c, 0, 60, 0
3, 83904, Note_on_c, 0, 60, 36
3, 83904, Note_on_c, 0, 64, 36
3, 83904, Note_on_c, 0, 67, 36
3, 84096, Note_off_c, 0, 67, 64
3, 84096, Note_off_c, 0, 64, 64
3, 84096, Note_off_c, 0, 60, 64
3, 84096, Note_on_c, 0, 48, 84
3, 84288, Note_off_c, 0, 48, 64
3, 84288, Note_on_c, 0, 60, 36
3, 84288, Note_on_c, 0, 65, 36
3, 84288, Note_on_c, 0, 69, 36
3, 84384, Note_off_c, 0, 69, 64
3, 84384, Note_off_c, 0, 65, 64
3, 84384, Note_off_c, 0, 60, 64
3, 84384, Note_on_c, 0, 60, 36
3, 84384, Note_on_c, 0, 65, 36
3, 84384, Note_on_c, 0, 69, 36
3, 84480, Note_off_c, 0, 69, 64
3, 84480, Note_off_c, 0, 65, 64
3, 84480, Note_off_c, 0, 60, 64
3, 84480, Note_on_c, 0, 48, 84
3, 84672, Note_off_c, 0, 48, 64
3, 84672, Note_on_c, 0, 60, 45
3, 84672, Note_on_c, 0, 64, 45
3, 84672, Note_on_c, 0, 67, 45
3, 84768, Note_off_c, 0, 67, 64
3, 84768, Note_off_c, 0, 64, 64
3, 84768, Note_off_c, 0, 60, 64
3, 84768, Note_on_c, 0, 60, 43
3, 84768, Note_on_c, 0, 64, 43
3, 84768, Note_on_c, 0, 67, 43
3, 84864, Note_off_c, 0, 67, 64
3, 84864, Note_off_c, 0, 64, 64
3, 84864, Note_off_c, 0, 60, 64
3, 84864, Note_on_c, 0, 60, 36
3, 84864, Note_on_c, 0, 64, 36
3, 84864, Note_on_c, 0, 67, 36
3, 85056, Note_off_c, 0, 67, 0
3, 85056, Note_off_c, 0, 64, 0
3, 85056, Note_off_c, 0, 60, 64
3, 85056, Note_on_c, 0, 61, 49
3, 85056, Note_on_c, 0, 64, 49
3, 85248, Note_off_c, 0, 64, 64
3, 85248, Note_off_c, 0, 61, 64
3, 85248, Note_on_c, 0, 62, 49
3, 85248, Note_on_c, 0, 65, 49
3, 85440, Note_off_c, 0, 65, 64
3, 85440, Note_off_c, 0, 62, 64
3, 85440, Note_on_c, 0, 64, 36
3, 85440, Note_on_c, 0, 67, 36
3, 85632, Note_off_c, 0, 67, 64
3, 85632, Note_off_c, 0, 64, 64
3, 85632, Note_on_c, 0, 65, 36
3, 85632, Note_on_c, 0, 69, 36
3, 85824, Note_off_c, 0, 69, 64
3, 85824, Note_off_c, 0, 65, 64
3, 85824, Note_on_c, 0, 54, 36
3, 85824, Note_on_c, 0, 57, 36
3, 86016, Note_off_c, 0, 57, 64
3, 86016, Note_off_c, 0, 54, 64
3, 86016, Note_on_c, 0, 55, 36
3, 86016, Note_on_c, 0, 59, 36
3, 86208, Note_off_c, 0, 59, 64
3, 86208, Note_off_c, 0, 55, 64
3, 86208, Note_on_c, 0, 50, 36
3, 86208, Note_on_c, 0, 60, 36
3, 86400, Note_off_c, 0, 60, 64
3, 86400, Note_off_c, 0, 50, 64
3, 86400, Note_on_c, 0, 50, 47
3, 86400, Note_on_c, 0, 60, 47
3, 86592, Note_off_c, 0, 60, 64
3, 86592, Note_off_c, 0, 50, 64
3, 86592, Note_on_c, 0, 55, 36
3, 86592, Note_on_c, 0, 59, 36
3, 86784, Note_off_c, 0, 59, 64
3, 86784, Note_off_c, 0, 55, 64
3, 86784, Note_on_c, 0, 43, 72
3, 86976, Note_off_c, 0, 43, 64
3, 86976, Note_on_c, 0, 55, 43
3, 86976, Note_on_c, 0, 59, 43
3, 86976, Note_on_c, 0, 62, 43
3, 87072, Note_off_c, 0, 62, 64
3, 87072, Note_off_c, 0, 59, 64
3, 87072, Note_off_c, 0, 55, 64
3, 87072, Note_on_c, 0, 55, 43
3, 87072, Note_on_c, 0, 59, 43
3, 87072, Note_on_c, 0, 62, 43
3, 87168, Note_off_c, 0, 62, 64
3, 87168, Note_off_c, 0, 59, 0
3, 87168, Note_off_c, 0, 55, 0
3, 87168, Note_on_c, 0, 55, 36
3, 87168, Note_on_c, 0, 59, 36
3, 87168, Note_on_c, 0, 62, 36
3, 87360, Note_off_c, 0, 62, 64
3, 87360, Note_off_c, 0, 59, 0
3, 87360, Note_off_c, 0, 55, 64
3, 87360, Note_on_c, 0, 55, 36
3, 87360, Note_on_c, 0, 59, 36
3, 87360, Note_on_c, 0, 62, 36
3, 87552, Note_off_c, 0, 62, 64
3, 87552, Note_off_c, 0, 59, 64
3, 87552, Note_off_c, 0, 55, 64
3, 87552, Note_on_c, 0, 43, 72
3, 87744, Note_off_c, 0, 43, 64
3, 87744, Note_on_c, 0, 53, 45
3, 87744, Note_on_c, 0, 55, 45
3, 87744, Note_on_c, 0, 59, 45
3, 87744, Note_on_c, 0, 62, 45
3, 87840, Note_off_c, 0, 62, 64
3, 87840, Note_off_c, 0, 59, 64
3, 87840, Note_off_c, 0, 55, 64
3, 87840, Note_off_c, 0, 53, 64
3, 87840, Note_on_c, 0, 53, 43
3, 87840, Note_on_c, 0, 55, 43
3, 87840, Note_on_c, 0, 59, 43
3, 87840, Note_on_c, 0, 62, 43
3, 87936, Note_off_c, 0, 62, 64
3, 87936, Note_off_c, 0, 59, 64
3, 87936, Note_off_c, 0, 55, 64
3, 87936, Note_off_c, 0, 53, 64
3, 87936, Note_on_c, 0, 53, 36
3, 87936, Note_on_c, 0, 55, 36
3, 87936, Note_on_c, 0, 59, 36
3, 87936, Note_on_c, 0, 62, 36
3, 88128, Note_off_c, 0, 62, 0
3, 88128, Note_off_c, 0, 59, 0
3, 88128, Note_off_c, 0, 55, 0
3, 88128, Note_off_c, 0, 53, 0
3, 88128, Note_on_c, 0, 53, 36
3, 88128, Note_on_c, 0, 55, 36
3, 88128, Note_on_c, 0, 59, 36
3, 88128, Note_on_c, 0, 62, 36
3, 88320, Note_off_c, 0, 62, 64
3, 88320, Note_off_c, 0, 59, 64
3, 88320, Note_off_c, 0, 55, 64
3, 88320, Note_off_c, 0, 53, 64
3, 88320, Note_on_c, 0, 53, 36
3, 88320, Note_on_c, 0, 55, 36
3, 88320, Note_on_c, 0, 59, 36
3, 88320, Note_on_c, 0, 62, 36
3, 88512, Note_off_c, 0, 62, 64
3, 88512, Note_off_c, 0, 59, 64
3, 88512, Note_off_c, 0, 55, 64
3, 88512, Note_off_c, 0, 53, 64
3, 88512, Note_on_c, 0, 53, 36
3, 88512, Note_on_c, 0, 55, 36
3, 88512, Note_on_c, 0, 59, 36
3, 88512, Note_on_c, 0, 62, 36
3, 88704, Note_off_c, 0, 62, 64
3, 88704, Note_off_c, 0, 59, 64
3, 88704, Note_off_c, 0, 55, 64
3, 88704, Note_off_c, 0, 53, 64
3, 88704, Note_on_c, 0, 52, 72
3, 88896, Note_off_c, 0, 52, 64
3, 88896, Note_on_c, 0, 64, 61
3, 88896, Note_on_c, 0, 67, 61
3, 88992, Note_off_c, 0, 67, 64
3, 88992, Note_off_c, 0, 64, 64
3, 88992, Note_on_c, 0, 64, 64
3, 88992, Note_on_c, 0, 67, 64
3, 89088, Note_off_c, 0, 67, 64
3, 89088, Note_off_c, 0, 64, 64
3, 89088, Note_on_c, 0, 64, 80
3, 89088, Note_on_c, 0, 67, 80
3, 89088, Note_on_c, 0, 72, 80
3, 89664, Note_off_c, 0, 72, 64
3, 89664, Note_off_c, 0, 67, 64
3, 89664, Note_off_c, 0, 64, 64
3, 89664, Note_on_c, 0, 65, 59
3, 89664, Note_on_c, 0, 67, 59
3, 89664, Note_on_c, 0, 74, 59
3, 89856, Note_off_c, 0, 74, 64
3, 89856, Note_off_c, 0, 67, 64
3, 89856, Note_off_c, 0, 65, 64
3, 89856, Note_on_c, 0, 64, 47
3, 89856, Note_on_c, 0, 67, 47
3, 89856, Note_on_c, 0, 72, 47
3, 90048, Note_off_c, 0, 72, 64
3, 90048, Note_off_c, 0, 67, 64
3, 90048, Note_off_c, 0, 64, 64
3, 90048, Note_on_c, 0, 65, 35
3, 90048, Note_on_c, 0, 67, 35
3, 90048, Note_on_c, 0, 74, 35
3, 90240, Note_off_c, 0, 74, 64
3, 90240, Note_off_c, 0, 67, 64
3, 90240, Note_off_c, 0, 65, 64
3, 90240, Note_on_c, 0, 64, 35
3, 90240, Note_on_c, 0, 67, 35
3, 90240, Note_on_c, 0, 72, 35
3, 90432, Note_off_c, 0, 72, 64
3, 90432, Note_off_c, 0, 67, 64
3, 90432, Note_off_c, 0, 64, 64
3, 90432, Note_on_c, 0, 65, 35
3, 90432, Note_on_c, 0, 67, 35
3, 90432, Note_on_c, 0, 74, 35
3, 90624, Note_off_c, 0, 74, 64
3, 90624, Note_off_c, 0, 67, 64
3, 90624, Note_off_c, 0, 65, 64
3, 90624, Note_on_c, 0, 64, 37
3, 90624, Note_on_c, 0, 67, 37
3, 90624, Note_on_c, 0, 72, 37
3, 90816, Note_off_c, 0, 72, 64
3, 90816, Note_off_c, 0, 67, 64
3, 90816, Note_off_c, 0, 64, 64
3, 90816, Note_on_c, 0, 65, 39
3, 90816, Note_on_c, 0, 67, 39
3, 90816, Note_on_c, 0, 74, 39
3, 91008, Note_off_c, 0, 74, 64
3, 91008, Note_off_c, 0, 67, 64
3, 91008, Note_off_c, 0, 65, 64
3, 91008, Note_on_c, 0, 64, 57
3, 91008, Note_on_c, 0, 67, 57
3, 91008, Note_on_c, 0, 72, 57
3, 91140, Note_off_c, 0, 72, 64
3, 91140, Note_off_c, 0, 67, 64
3, 91140, Note_off_c, 0, 64, 64
3, 91200, Note_on_c, 0, 65, 61
3, 91200, Note_on_c, 0, 67, 61
3, 91200, Note_on_c, 0, 74, 61
3, 91332, Note_off_c, 0, 74, 64
3, 91332, Note_off_c, 0, 67, 64
3, 91332, Note_off_c, 0, 65, 64
3, 91392, Note_on_c, 0, 64, 61
3, 91392, Note_on_c, 0, 67, 61
3, 91392, Note_on_c, 0, 72, 61
3, 91524, Note_off_c, 0, 72, 64
3, 91524, Note_off_c, 0, 67, 64
3, 91524, Note_off_c, 0, 64, 64
3, 91584, Note_on_c, 0, 65, 64
3, 91584, Note_on_c, 0, 67, 64
3, 91584, Note_on_c, 0, 74, 64
3, 91716, Note_off_c, 0, 74, 64
3, 91716, Note_off_c, 0, 67, 64
3, 91716, Note_off_c, 0, 65, 64
3, 91776, Note_on_c, 0, 64, 66
3, 91776, Note_on_c, 0, 67, 66
3, 91776, Note_on_c, 0, 72, 66
3, 91908, Note_off_c, 0, 72, 64
3, 91908, Note_off_c, 0, 67, 64
3, 91908, Note_off_c, 0, 64, 64
3, 91968, Note_on_c, 0, 52, 72
3, 91968, Note_on_c, 0, 55, 72
3, 91968, Note_on_c, 0, 60, 72
3, 92064, Note_off_c, 0, 60, 64
3, 92064, Note_off_c, 0, 55, 64
3, 92064, Note_off_c, 0, 52, 64
3, 92160, Note_on_c, 0, 41, 66
3, 92352, Note_off_c, 0, 41, 64
3, 92352, Note_on_c, 0, 53, 55
3, 92352, Note_on_c, 0, 57, 55
3, 92352, Note_on_c, 0, 62, 55
3, 92400, Note_off_c, 0, 62, 64
3, 92400, Note_off_c, 0, 57, 64
3, 92400, Note_off_c, 0, 53, 64
3, 92448, Note_on_c, 0, 53, 55
3, 92448, Note_on_c, 0, 57, 55
3, 92448, Note_on_c, 0, 62, 55
3, 92544, Note_off_c, 0, 62, 64
3, 92544, Note_off_c, 0, 57, 64
3, 92544, Note_off_c, 0, 53, 64
3, 92544, Note_on_c, 0, 43, 70
3, 92736, Note_off_c, 0, 43, 64
3, 92736, Note_on_c, 0, 55, 59
3, 92736, Note_on_c, 0, 60, 59
3, 92736, Note_on_c, 0, 64, 59
3, 92784, Note_off_c, 0, 64, 64
3, 92784, Note_off_c, 0, 60, 64
3, 92784, Note_off_c, 0, 55, 64
3, 92832, Note_on_c, 0, 55, 61
3, 92832, Note_on_c, 0, 60, 61
3, 92832, Note_on_c, 0, 64, 61
3, 92928, Note_off_c, 0, 64, 64
3, 92928, Note_off_c, 0, 60, 64
3, 92928, Note_off_c, 0, 55, 64
3, 92928, Note_on_c, 0, 43, 70
3, 93120, Note_off_c, 0, 43, 64
3, 93120, Note_on_c, 0, 55, 66
3, 93120, Note_on_c, 0, 62, 66
3, 93120, Note_on_c, 0, 65, 66
3, 93168, Note_off_c, 0, 65, 64
3, 93168, Note_off_c, 0, 62, 64
3, 93168, Note_off_c, 0, 55, 64
3, 93216, Note_on_c, 0, 55, 70
3, 93216, Note_on_c, 0, 62, 70
3, 93216, Note_on_c, 0, 65, 70
3, 93312, Note_off_c, 0, 65, 64
3, 93312, Note_off_c, 0, 62, 64
3, 93312, Note_off_c, 0, 55, 64
3, 93312, Note_on_c, 0, 48, 76
3, 93504, Note_off_c, 0, 48, 64
3, 93504, Note_on_c, 0, 60, 70
3, 93504, Note_on_c, 0, 62, 70
3, 93504, Note_on_c, 0, 65, 70
3, 93552, Note_off_c, 0, 65, 64
3, 93552, Note_off_c, 0, 62, 64
3, 93552, Note_off_c, 0, 60, 64
3, 93600, Note_on_c, 0, 60, 70
3, 93600, Note_on_c, 0, 62, 70
3, 93600, Note_on_c, 0, 65, 70
3, 93648, Note_off_c, 0, 65, 64
3, 93648, Note_off_c, 0, 62, 64
3, 93648, Note_off_c, 0, 60, 64
3, 93696, Note_on_c, 0, 60, 61
3, 93696, Note_on_c, 0, 62, 61
3, 93696, Note_on_c, 0, 65, 61
3, 93840, Note_off_c, 0, 65, 64
3, 93840, Note_off_c, 0, 62, 64
3, 93840, Note_off_c, 0, 60, 64
3, 93888, Note_on_c, 0, 60, 70
3, 93888, Note_on_c, 0, 62, 70
3, 93888, Note_on_c, 0, 65, 70
3, 94080, Note_off_c, 0, 65, 64
3, 94080, Note_off_c, 0, 62, 64
3, 94080, Note_off_c, 0, 60, 64
3, 94080, Note_on_c, 0, 60, 70
3, 94080, Note_on_c, 0, 64, 70
3, 94176, Note_off_c, 0, 64, 64
3, 94176, Note_off_c, 0, 60, 64
3, 94272, Note_on_c, 0, 55, 53
3, 94464, Note_on_c, 0, 48, 37
3, 94560, Note_off_c, 0, 55, 64
3, 94656, Note_off_c, 0, 48, 64
3, 95040, Note_on_c, 0, 63, 53
3, 95232, Note_on_c, 0, 60, 37
3, 95328, Note_off_c, 0, 63, 64
3, 95424, Note_off_c, 0, 60, 64
3, 95808, Note_on_c, 0, 72, 53
3, 96000, Note_on_c, 0, 67, 37
3, 96096, Note_off_c, 0, 72, 64
3, 96192, Note_off_c, 0, 67, 64
3, 96768, Note_on_c, 0, 48, 38
3, 96768, Note_on_c, 0, 51, 41
3, 96864, Note_off_c, 0, 51, 64
3, 96864, Note_off_c, 0, 48, 64
3, 96864, Note_on_c, 0, 55, 39
3, 96960, Note_off_c, 0, 55, 64
3, 96960, Note_on_c, 0, 48, 33
3, 96960, Note_on_c, 0, 51, 42
3, 97056, Note_off_c, 0, 51, 64
3, 97056, Note_off_c, 0, 48, 64
3, 97056, Note_on_c, 0, 55, 32
3, 97152, Note_off_c, 0, 55, 64
3, 97152, Note_on_c, 0, 48, 43
3, 97152, Note_on_c, 0, 51, 44
3, 97248, Note_off_c, 0, 51, 64
3, 97248, Note_off_c, 0, 48, 64
3, 97248, Note_on_c, 0, 55, 36
3, 97344, Note_off_c, 0, 55, 64
3, 97344, Note_on_c, 0, 48, 37
3, 97344, Note_on_c, 0, 51, 41
3, 97440, Note_off_c, 0, 51, 64
3, 97440, Note_off_c, 0, 48, 64
3, 97440, Note_on_c, 0, 55, 36
3, 97536, Note_off_c, 0, 55, 64
3, 97536, Note_on_c, 0, 48, 46
3, 97536, Note_on_c, 0, 51, 50
3, 97632, Note_off_c, 0, 51, 64
3, 97632, Note_off_c, 0, 48, 64
3, 97632, Note_on_c, 0, 55, 39
3, 97728, Note_off_c, 0, 55, 64
3, 97728, Note_on_c, 0, 48, 37
3, 97728, Note_on_c, 0, 51, 38
3, 97824, Note_off_c, 0, 51, 64
3, 97824, Note_off_c, 0, 48, 64
3, 97824, Note_on_c, 0, 55, 39
3, 97920, Note_off_c, 0, 55, 64
3, 97920, Note_on_c, 0, 47, 40
3, 97920, Note_on_c, 0, 50, 44
3, 98016, Note_off_c, 0, 50, 64
3, 98016, Note_off_c, 0, 47, 64
3, 98016, Note_on_c, 0, 55, 35
3, 98112, Note_off_c, 0, 55, 64
3, 98112, Note_on_c, 0, 47, 38
3, 98112, Note_on_c, 0, 50, 44
3, 98208, Note_off_c, 0, 50, 64
3, 98208, Note_off_c, 0, 47, 64
3, 98208, Note_on_c, 0, 55, 41
3, 98304, Note_off_c, 0, 55, 64
3, 98304, Note_on_c, 0, 47, 39
3, 98304, Note_on_c, 0, 50, 45
3, 98400, Note_off_c, 0, 50, 64
3, 98400, Note_off_c, 0, 47, 64
3, 98400, Note_on_c, 0, 55, 34
3, 98496, Note_off_c, 0, 55, 64
3, 98496, Note_on_c, 0, 47, 33
3, 98496, Note_on_c, 0, 50, 41
3, 98592, Note_off_c, 0, 50, 64
3, 98592, Note_off_c, 0, 47, 64
3, 98592, Note_on_c, 0, 55, 32
3, 98688, Note_off_c, 0, 55, 64
3, 98688, Note_on_c, 0, 47, 40
3, 98688, Note_on_c, 0, 50, 47
3, 98784, Note_off_c, 0, 50, 64
3, 98784, Note_off_c, 0, 47, 64
3, 98784, Note_on_c, 0, 55, 35
3, 98880, Note_off_c, 0, 55, 64
3, 98880, Note_on_c, 0, 47, 35
3, 98880, Note_on_c, 0, 50, 42
3, 98976, Note_off_c, 0, 50, 64
3, 98976, Note_off_c, 0, 47, 64
3, 98976, Note_on_c, 0, 55, 36
3, 99072, Note_off_c, 0, 55, 64
3, 99072, Note_on_c, 0, 48, 44
3, 99072, Note_on_c, 0, 51, 44
3, 99168, Note_off_c, 0, 51, 64
3, 99168, Note_off_c, 0, 48, 64
3, 99168, Note_on_c, 0, 55, 34
3, 99264, Note_off_c, 0, 55, 64
3, 99264, Note_on_c, 0, 48, 41
3, 99264, Note_on_c, 0, 51, 42
3, 99360, Note_off_c, 0, 51, 64
3, 99360, Note_off_c, 0, 48, 64
3, 99360, Note_on_c, 0, 55, 34
3, 99456, Note_off_c, 0, 55, 64
3, 99456, Note_on_c, 0, 48, 44
3, 99456, Note_on_c, 0, 51, 45
3, 99552, Note_off_c, 0, 51, 64
3, 99552, Note_off_c, 0, 48, 64
3, 99552, Note_on_c, 0, 55, 37
3, 99648, Note_off_c, 0, 55, 64
3, 99648, Note_on_c, 0, 48, 41
3, 99648, Note_on_c, 0, 51, 44
3, 99744, Note_off_c, 0, 51, 64
3, 99744, Note_off_c, 0, 48, 64
3, 99744, Note_on_c, 0, 55, 43
3, 99840, Note_off_c, 0, 55, 64
3, 99840, Note_on_c, 0, 48, 46
3, 99840, Note_on_c, 0, 51, 46
3, 99936, Note_off_c, 0, 51, 64
3, 99936, Note_off_c, 0, 48, 64
3, 99936, Note_on_c, 0, 55, 39
3, 100032, Note_off_c, 0, 55, 64
3, 100032, Note_on_c, 0, 48, 36
3, 100032, Note_on_c, 0, 51, 40
3, 100128, Note_off_c, 0, 51, 64
3, 100128, Note_off_c, 0, 48, 64
3, 100128, Note_on_c, 0, 55, 36
3, 100224, Note_off_c, 0, 55, 64
3, 100224, Note_on_c, 0, 48, 46
3, 100224, Note_on_c, 0, 51, 45
3, 100320, Note_off_c, 0, 51, 64
3, 100320, Note_off_c, 0, 48, 64
3, 100320, Note_on_c, 0, 55, 39
3, 100416, Note_off_c, 0, 55, 64
3, 100416, Note_on_c, 0, 48, 48
3, 100416, Note_on_c, 0, 51, 49
3, 100512, Note_off_c, 0, 51, 64
3, 100512, Note_off_c, 0, 48, 64
3, 100512, Note_on_c, 0, 56, 40
3, 100608, Note_off_c, 0, 56, 64
3, 100608, Note_on_c, 0, 48, 49
3, 100608, Note_on_c, 0, 51, 48
3, 100704, Note_off_c, 0, 51, 64
3, 100704, Note_off_c, 0, 48, 64
3, 100704, Note_on_c, 0, 56, 38
3, 100800, Note_off_c, 0, 56, 64
3, 100800, Note_on_c, 0, 48, 50
3, 100800, Note_on_c, 0, 51, 46
3, 100896, Note_off_c, 0, 51, 64
3, 100896, Note_off_c, 0, 48, 64
3, 100896, Note_on_c, 0, 56, 40
3, 100992, Note_off_c, 0, 56, 64
3, 100992, Note_on_c, 0, 48, 49
3, 100992, Note_on_c, 0, 51, 47
3, 101088, Note_off_c, 0, 51, 64
3, 101088, Note_off_c, 0, 48, 64
3, 101088, Note_on_c, 0, 56, 39
3, 101184, Note_off_c, 0, 56, 64
3, 101184, Note_on_c, 0, 48, 42
3, 101184, Note_on_c, 0, 51, 46
3, 101280, Note_off_c, 0, 51, 64
3, 101280, Note_off_c, 0, 48, 64
3, 101280, Note_on_c, 0, 56, 46
3, 101376, Note_off_c, 0, 56, 64
3, 101376, Note_on_c, 0, 49, 47
3, 101376, Note_on_c, 0, 53, 43
3, 101472, Note_off_c, 0, 53, 64
3, 101472, Note_off_c, 0, 49, 64
3, 101472, Note_on_c, 0, 56, 37
3, 101568, Note_off_c, 0, 56, 64
3, 101568, Note_on_c, 0, 49, 44
3, 101568, Note_on_c, 0, 53, 51
3, 101664, Note_off_c, 0, 53, 64
3, 101664, Note_off_c, 0, 49, 64
3, 101664, Note_on_c, 0, 56, 37
3, 101760, Note_off_c, 0, 56, 64
3, 101760, Note_on_c, 0, 49, 47
3, 101760, Note_on_c, 0, 53, 53
3, 101856, Note_off_c, 0, 53, 64
3, 101856, Note_off_c, 0, 49, 64
3, 101856, Note_on_c, 0, 56, 37
3, 101952, Note_off_c, 0, 56, 64
3, 101952, Note_on_c, 0, 49, 43
3, 101952, Note_on_c, 0, 53, 49
3, 102048, Note_off_c, 0, 53, 64
3, 102048, Note_off_c, 0, 49, 64
3, 102048, Note_on_c, 0, 56, 34
3, 102144, Note_off_c, 0, 56, 64
3, 102144, Note_on_c, 0, 49, 46
3, 102144, Note_on_c, 0, 53, 45
3, 102240, Note_off_c, 0, 53, 64
3, 102240, Note_off_c, 0, 49, 64
3, 102240, Note_on_c, 0, 56, 34
3, 102336, Note_off_c, 0, 56, 64
3, 102336, Note_on_c, 0, 49, 37
3, 102336, Note_on_c, 0, 53, 40
3, 102432, Note_off_c, 0, 53, 64
3, 102432, Note_off_c, 0, 49, 64
3, 102432, Note_on_c, 0, 56, 40
3, 102528, Note_off_c, 0, 56, 64
3, 102528, Note_on_c, 0, 51, 59
3, 102528, Note_on_c, 0, 56, 44
3, 102624, Note_off_c, 0, 56, 64
3, 102624, Note_off_c, 0, 51, 64
3, 102624, Note_on_c, 0, 60, 42
3, 102720, Note_off_c, 0, 60, 64
3, 102720, Note_on_c, 0, 51, 48
3, 102720, Note_on_c, 0, 56, 41
3, 102816, Note_off_c, 0, 56, 64
3, 102816, Note_off_c, 0, 51, 64
3, 102816, Note_on_c, 0, 60, 41
3, 102912, Note_off_c, 0, 60, 64
3, 102912, Note_on_c, 0, 51, 44
3, 102912, Note_on_c, 0, 56, 42
3, 103008, Note_off_c, 0, 56, 64
3, 103008, Note_off_c, 0, 51, 64
3, 103008, Note_on_c, 0, 60, 41
3, 103104, Note_off_c, 0, 60, 64
3, 103104, Note_on_c, 0, 51, 46
3, 103104, Note_on_c, 0, 56, 42
3, 103200, Note_off_c, 0, 56, 64
3, 103200, Note_off_c, 0, 51, 64
3, 103200, Note_on_c, 0, 60, 49
3, 103296, Note_off_c, 0, 60, 64
3, 103296, Note_on_c, 0, 51, 46
3, 103296, Note_on_c, 0, 56, 38
3, 103392, Note_off_c, 0, 56, 64
3, 103392, Note_off_c, 0, 51, 64
3, 103392, Note_on_c, 0, 60, 43
3, 103488, Note_off_c, 0, 60, 64
3, 103488, Note_on_c, 0, 51, 42
3, 103488, Note_on_c, 0, 56, 35
3, 103584, Note_off_c, 0, 56, 64
3, 103584, Note_off_c, 0, 51, 64
3, 103584, Note_on_c, 0, 60, 47
3, 103680, Note_off_c, 0, 60, 64
3, 103680, Note_on_c, 0, 51, 48
3, 103680, Note_on_c, 0, 58, 33
3, 103776, Note_off_c, 0, 58, 64
3, 103776, Note_off_c, 0, 51, 64
3, 103776, Note_on_c, 0, 61, 40
3, 103872, Note_off_c, 0, 61, 64
3, 103872, Note_on_c, 0, 51, 45
3, 103872, Note_on_c, 0, 58, 39
3, 103968, Note_off_c, 0, 58, 64
3, 103968, Note_off_c, 0, 51, 64
3, 103968, Note_on_c, 0, 61, 37
3, 104064, Note_off_c, 0, 61, 64
3, 104064, Note_on_c, 0, 51, 46
3, 104064, Note_on_c, 0, 58, 39
3, 104160, Note_off_c, 0, 58, 64
3, 104160, Note_off_c, 0, 51, 64
3, 104160, Note_on_c, 0, 61, 31
3, 104256, Note_off_c, 0, 61, 64
3, 104256, Note_on_c, 0, 51, 50
3, 104256, Note_on_c, 0, 58, 42
3, 104352, Note_off_c, 0, 58, 64
3, 104352, Note_off_c, 0, 51, 64
3, 104352, Note_on_c, 0, 61, 42
3, 104448, Note_off_c, 0, 61, 64
3, 104448, Note_on_c, 0, 51, 52
3, 104448, Note_on_c, 0, 61, 45
3, 104640, Note_off_c, 0, 61, 64
3, 104640, Note_off_c, 0, 51, 64
3, 104640, Note_on_c, 0, 51, 51
3, 104640, Note_on_c, 0, 61, 45
3, 104832, Note_off_c, 0, 61, 64
3, 104832, Note_off_c, 0, 51, 64
3, 104832, Note_on_c, 0, 44, 55
3, 105024, Note_off_c, 0, 44, 64
3, 105024, Note_on_c, 0, 51, 49
3, 105024, Note_on_c, 0, 56, 40
3, 105216, Note_off_c, 0, 56, 64
3, 105216, Note_off_c, 0, 51, 64
3, 105216, Note_on_c, 0, 51, 45
3, 105216, Note_on_c, 0, 56, 33
3, 105408, Note_off_c, 0, 56, 64
3, 105408, Note_off_c, 0, 51, 64
3, 105408, Note_on_c, 0, 51, 48
3, 105408, Note_on_c, 0, 56, 36
3, 105600, Note_off_c, 0, 56, 64
3, 105600, Note_off_c, 0, 51, 64
3, 105600, Note_on_c, 0, 51, 47
3, 105600, Note_on_c, 0, 56, 33
3, 105792, Note_off_c, 0, 56, 64
3, 105792, Note_off_c, 0, 51, 64
3, 105792, Note_on_c, 0, 51, 49
3, 105792, Note_on_c, 0, 56, 37
3, 105984, Note_off_c, 0, 56, 64
3, 105984, Note_off_c, 0, 51, 64
3, 105984, Note_on_c, 0, 43, 64
3, 106176, Note_off_c, 0, 43, 64
3, 106176, Note_on_c, 0, 51, 49
3, 106176, Note_on_c, 0, 58, 42
3, 106368, Note_off_c, 0, 58, 64
3, 106368, Note_off_c, 0, 51, 64
3, 106368, Note_on_c, 0, 51, 45
3, 106368, Note_on_c, 0, 58, 42
3, 106560, Note_off_c, 0, 58, 64
3, 106560, Note_off_c, 0, 51, 64
3, 106560, Note_on_c, 0, 51, 47
3, 106560, Note_on_c, 0, 58, 43
3, 106752, Note_off_c, 0, 58, 64
3, 106752, Note_off_c, 0, 51, 64
3, 106752, Note_on_c, 0, 51, 47
3, 106752, Note_on_c, 0, 58, 43
3, 106944, Note_off_c, 0, 58, 64
3, 106944, Note_off_c, 0, 51, 64
3, 106944, Note_on_c, 0, 51, 47
3, 106944, Note_on_c, 0, 58, 40
3, 107136, Note_off_c, 0, 58, 64
3, 107136, Note_off_c, 0, 51, 64
3, 107136, Note_on_c, 0, 44, 66
3, 107328, Note_off_c, 0, 44, 64
3, 107328, Note_on_c, 0, 51, 46
3, 107328, Note_on_c, 0, 56, 41
3, 107520, Note_off_c, 0, 56, 64
3, 107520, Note_off_c, 0, 51, 64
3, 107520, Note_on_c, 0, 51, 47
3, 107520, Note_on_c, 0, 56, 40
3, 107712, Note_off_c, 0, 56, 64
3, 107712, Note_off_c, 0, 51, 64
3, 107712, Note_on_c, 0, 51, 46
3, 107712, Note_on_c, 0, 56, 37
3, 107904, Note_off_c, 0, 56, 64
3, 107904, Note_off_c, 0, 51, 64
3, 107904, Note_on_c, 0, 51, 47
3, 107904, Note_on_c, 0, 56, 37
3, 108096, Note_off_c, 0, 56, 64
3, 108096, Note_off_c, 0, 51, 64
3, 108096, Note_on_c, 0, 51, 50
3, 108096, Note_on_c, 0, 56, 41
3, 108288, Note_off_c, 0, 56, 64
3, 108288, Note_off_c, 0, 51, 64
3, 108288, Note_on_c, 0, 39, 61
3, 108480, Note_off_c, 0, 39, 64
3, 108480, Note_on_c, 0, 51, 49
3, 108480, Note_on_c, 0, 58, 36
3, 108672, Note_off_c, 0, 58, 64
3, 108672, Note_off_c, 0, 51, 64
3, 108672, Note_on_c, 0, 51, 47
3, 108672, Note_on_c, 0, 58, 35
3, 108864, Note_off_c, 0, 58, 64
3, 108864, Note_off_c, 0, 51, 64
3, 108864, Note_on_c, 0, 51, 45
3, 108864, Note_on_c, 0, 58, 33
3, 109056, Note_off_c, 0, 58, 64
3, 109056, Note_off_c, 0, 51, 64
3, 109056, Note_on_c, 0, 51, 45
3, 109056, Note_on_c, 0, 58, 32
3, 109248, Note_off_c, 0, 58, 64
3, 109248, Note_off_c, 0, 51, 64
3, 109248, Note_on_c, 0, 51, 47
3, 109248, Note_on_c, 0, 58, 34
3, 109440, Note_off_c, 0, 58, 64
3, 109440, Note_off_c, 0, 51, 64
3, 109440, Note_on_c, 0, 44, 61
3, 109632, Note_off_c, 0, 44, 64
3, 109632, Note_on_c, 0, 51, 45
3, 109632, Note_on_c, 0, 56, 45
3, 109824, Note_off_c, 0, 56, 64
3, 109824, Note_off_c, 0, 51, 64
3, 109824, Note_on_c, 0, 51, 51
3, 109824, Note_on_c, 0, 56, 51
3, 110016, Note_off_c, 0, 56, 64
3, 110016, Note_off_c, 0, 51, 64
3, 110016, Note_on_c, 0, 51, 51
3, 110016, Note_on_c, 0, 56, 51
3, 110208, Note_off_c, 0, 56, 0
3, 110208, Note_off_c, 0, 51, 0
3, 110208, Note_on_c, 0, 51, 53
3, 110208, Note_on_c, 0, 56, 53
3, 110400, Note_off_c, 0, 56, 64
3, 110400, Note_off_c, 0, 51, 64
3, 110400, Note_on_c, 0, 51, 55
3, 110400, Note_on_c, 0, 56, 55
3, 110592, Note_off_c, 0, 56, 64
3, 110592, Note_off_c, 0, 51, 64
3, 110592, Note_on_c, 0, 43, 66
3, 110784, Note_off_c, 0, 43, 64
3, 110784, Note_on_c, 0, 51, 48
3, 110784, Note_on_c, 0, 58, 29
3, 110976, Note_off_c, 0, 58, 64
3, 110976, Note_off_c, 0, 51, 64
3, 110976, Note_on_c, 0, 51, 44
3, 110976, Note_on_c, 0, 58, 35
3, 111168, Note_off_c, 0, 58, 64
3, 111168, Note_off_c, 0, 51, 0
3, 111168, Note_on_c, 0, 51, 48
3, 111168, Note_on_c, 0, 58, 38
3, 111360, Note_off_c, 0, 58, 64
3, 111360, Note_off_c, 0, 51, 64
3, 111360, Note_on_c, 0, 51, 50
3, 111360, Note_on_c, 0, 58, 32
3, 111552, Note_off_c, 0, 58, 64
3, 111552, Note_off_c, 0, 51, 64
3, 111552, Note_on_c, 0, 51, 49
3, 111552, Note_on_c, 0, 58, 33
3, 111744, Note_off_c, 0, 58, 64
3, 111744, Note_off_c, 0, 51, 64
3, 111744, Note_on_c, 0, 42, 74
3, 111936, Note_off_c, 0, 42, 64
3, 111936, Note_on_c, 0, 54, 54
3, 111936, Note_on_c, 0, 57, 51
3, 111936, Note_on_c, 0, 60, 54
3, 112128, Note_off_c, 0, 60, 64
3, 112128, Note_off_c, 0, 57, 64
3, 112128, Note_off_c, 0, 54, 64
3, 112128, Note_on_c, 0, 54, 50
3, 112128, Note_on_c, 0, 57, 49
3, 112128, Note_on_c, 0, 60, 52
3, 112320, Note_off_c, 0, 60, 64
3, 112320, Note_off_c, 0, 57, 64
3, 112320, Note_off_c, 0, 54, 64
3, 112320, Note_on_c, 0, 54, 49
3, 112320, Note_on_c, 0, 57, 45
3, 112320, Note_on_c, 0, 60, 51
3, 112512, Note_off_c, 0, 60, 64
3, 112512, Note_off_c, 0, 57, 64
3, 112512, Note_off_c, 0, 54, 0
3, 112512, Note_on_c, 0, 54, 46
3, 112512, Note_on_c, 0, 57, 46
3, 112512, Note_on_c, 0, 60, 42
3, 112704, Note_off_c, 0, 60, 64
3, 112704, Note_off_c, 0, 57, 64
3, 112704, Note_off_c, 0, 54, 64
3, 112704, Note_on_c, 0, 54, 49
3, 112704, Note_on_c, 0, 57, 51
3, 112704, Note_on_c, 0, 60, 50
3, 112896, Note_off_c, 0, 60, 64
3, 112896, Note_off_c, 0, 57, 64
3, 112896, Note_off_c, 0, 54, 64
3, 112896, Note_on_c, 0, 41, 78
3, 113088, Note_off_c, 0, 41, 64
3, 113088, Note_on_c, 0, 53, 55
3, 113088, Note_on_c, 0, 57, 58
3, 113088, Note_on_c, 0, 60, 51
3, 113280, Note_off_c, 0, 60, 64
3, 113280, Note_off_c, 0, 57, 64
3, 113280, Note_off_c, 0, 53, 64
3, 113280, Note_on_c, 0, 53, 55
3, 113280, Note_on_c, 0, 57, 56
3, 113280, Note_on_c, 0, 60, 52
3, 113472, Note_off_c, 0, 60, 64
3, 113472, Note_off_c, 0, 57, 64
3, 113472, Note_off_c, 0, 53, 64
3, 113472, Note_on_c, 0, 53, 55
3, 113472, Note_on_c, 0, 57, 56
3, 113472, Note_on_c, 0, 60, 48
3, 113664, Note_off_c, 0, 60, 64
3, 113664, Note_off_c, 0, 57, 0
3, 113664, Note_off_c, 0, 53, 64
3, 113664, Note_on_c, 0, 53, 51
3, 113664, Note_on_c, 0, 57, 55
3, 113664, Note_on_c, 0, 60, 43
3, 113856, Note_off_c, 0, 60, 64
3, 113856, Note_off_c, 0, 57, 64
3, 113856, Note_off_c, 0, 53, 64
3, 113856, Note_on_c, 0, 53, 59
3, 113856, Note_on_c, 0, 57, 58
3, 113856, Note_on_c, 0, 60, 52
3, 114048, Note_off_c, 0, 60, 0
3, 114048, Note_off_c, 0, 57, 0
3, 114048, Note_off_c, 0, 53, 64
3, 114048, Note_on_c, 0, 40, 90
3, 114240, Note_off_c, 0, 40, 64
3, 114240, Note_on_c, 0, 52, 71
3, 114240, Note_on_c, 0, 57, 63
3, 114240, Note_on_c, 0, 60, 64
3, 114432, Note_off_c, 0, 60, 64
3, 114432, Note_off_c, 0, 57, 64
3, 114432, Note_off_c, 0, 52, 64
3, 114432, Note_on_c, 0, 52, 51
3, 114432, Note_on_c, 0, 57, 55
3, 114432, Note_on_c, 0, 60, 60
3, 114624, Note_off_c, 0, 60, 64
3, 114624, Note_off_c, 0, 57, 64
3, 114624, Note_off_c, 0, 52, 64
3, 114624, Note_on_c, 0, 52, 69
3, 114624, Note_on_c, 0, 57, 58
3, 114624, Note_on_c, 0, 60, 54
3, 114816, Note_off_c, 0, 60, 64
3, 114816, Note_off_c, 0, 57, 64
3, 114816, Note_off_c, 0, 52, 64
3, 114816, Note_on_c, 0, 52, 64
3, 114816, Note_on_c, 0, 57, 59
3, 114816, Note_on_c, 0, 60, 53
3, 115008, Note_off_c, 0, 60, 64
3, 115008, Note_off_c, 0, 57, 64
3, 115008, Note_off_c, 0, 52, 64
3, 115008, Note_on_c, 0, 52, 67
3, 115008, Note_on_c, 0, 57, 63
3, 115008, Note_on_c, 0, 60, 63
3, 115200, Note_off_c, 0, 60, 64
3, 115200, Note_off_c, 0, 57, 64
3, 115200, Note_off_c, 0, 52, 64
3, 115200, Note_on_c, 0, 52, 59
3, 115200, Note_on_c, 0, 56, 59
3, 115200, Note_on_c, 0, 59, 59
3, 115392, Note_off_c, 0, 59, 64
3, 115392, Note_off_c, 0, 56, 64
3, 115392, Note_off_c, 0, 52, 64
3, 115392, Note_on_c, 0, 64, 47
3, 115392, Note_on_c, 0, 68, 35
3, 115584, Note_off_c, 0, 68, 64
3, 115584, Note_off_c, 0, 64, 64
3, 115584, Note_on_c, 0, 64, 41
3, 115584, Note_on_c, 0, 68, 32
3, 115776, Note_off_c, 0, 68, 64
3, 115776, Note_off_c, 0, 64, 64
3, 115776, Note_on_c, 0, 64, 46
3, 115776, Note_on_c, 0, 68, 35
3, 115968, Note_off_c, 0, 68, 64
3, 115968, Note_off_c, 0, 64, 64
3, 115968, Note_on_c, 0, 64, 38
3, 115968, Note_on_c, 0, 66, 39
3, 115968, Note_on_c, 0, 69, 39
3, 116160, Note_off_c, 0, 69, 64
3, 116160, Note_off_c, 0, 66, 64
3, 116160, Note_off_c, 0, 64, 64
3, 116160, Note_on_c, 0, 64, 40
3, 116160, Note_on_c, 0, 66, 34
3, 116160, Note_on_c, 0, 69, 37
3, 116352, Note_off_c, 0, 69, 64
3, 116352, Note_off_c, 0, 66, 64
3, 116352, Note_off_c, 0, 64, 64
3, 116352, Note_on_c, 0, 64, 57
3, 116352, Note_on_c, 0, 68, 57
3, 116352, Note_on_c, 0, 71, 57
3, 116544, Note_off_c, 0, 71, 64
3, 116544, Note_off_c, 0, 68, 64
3, 116544, Note_off_c, 0, 64, 64
3, 116544, Note_on_c, 0, 64, 46
3, 116544, Note_on_c, 0, 68, 41
3, 116544, Note_on_c, 0, 71, 42
3, 116736, Note_off_c, 0, 71, 64
3, 116736, Note_off_c, 0, 68, 64
3, 116736, Note_off_c, 0, 64, 64
3, 116736, Note_on_c, 0, 64, 41
3, 116736, Note_on_c, 0, 69, 47
3, 116736, Note_on_c, 0, 73, 39
3, 116928, Note_off_c, 0, 73, 64
3, 116928, Note_off_c, 0, 69, 64
3, 116928, Note_off_c, 0, 64, 64
3, 116928, Note_on_c, 0, 64, 42
3, 116928, Note_on_c, 0, 69, 45
3, 116928, Note_on_c, 0, 73, 38
3, 117120, Note_off_c, 0, 73, 64
3, 117120, Note_off_c, 0, 69, 64
3, 117120, Note_off_c, 0, 64, 64
3, 117120, Note_on_c, 0, 64, 53
3, 117120, Note_on_c, 0, 75, 53
3, 117312, Note_off_c, 0, 75, 64
3, 117312, Note_off_c, 0, 64, 64
3, 117312, Note_on_c, 0, 64, 47
3, 117312, Note_on_c, 0, 75, 47
3, 117504, Note_off_c, 0, 75, 64
3, 117504, Note_off_c, 0, 64, 64
3, 117504, Note_on_c, 0, 64, 66
3, 117504, Note_on_c, 0, 74, 66
3, 117696, Note_off_c, 0, 74, 64
3, 117696, Note_off_c, 0, 64, 64
3, 117696, Note_on_c, 0, 64, 44
3, 117696, Note_on_c, 0, 74, 50
3, 117888, Note_off_c, 0, 74, 64
3, 117888, Note_off_c, 0, 64, 64
3, 117888, Note_on_c, 0, 64, 47
3, 117888, Note_on_c, 0, 73, 45
3, 118080, Note_off_c, 0, 73, 64
3, 118080, Note_off_c, 0, 64, 64
3, 118080, Note_on_c, 0, 64, 47
3, 118080, Note_on_c, 0, 73, 41
3, 118272, Note_off_c, 0, 73, 64
3, 118272, Note_off_c, 0, 64, 64
3, 118272, Note_on_c, 0, 71, 50
3, 118320, Note_off_c, 0, 71, 64
3, 118320, Note_on_c, 0, 69, 49
3, 118368, Note_off_c, 0, 69, 64
3, 118368, Note_on_c, 0, 68, 53
3, 118416, Note_off_c, 0, 68, 0
3, 118416, Note_on_c, 0, 66, 55
3, 118464, Note_off_c, 0, 66, 64
3, 118464, Note_on_c, 0, 64, 57
3, 118512, Note_off_c, 0, 64, 64
3, 118512, Note_on_c, 0, 62, 59
3, 118560, Note_off_c, 0, 62, 64
3, 118560, Note_on_c, 0, 61, 59
3, 118608, Note_off_c, 0, 61, 64
3, 118608, Note_on_c, 0, 59, 59
3, 118656, Note_off_c, 0, 59, 64
3, 118662, Note_on_c, 0, 45, 59
3, 118662, Note_on_c, 0, 57, 59
3, 118854, Note_off_c, 0, 57, 64
3, 118854, Note_off_c, 0, 45, 64
3, 118854, Note_on_c, 0, 57, 28
3, 118854, Note_on_c, 0, 61, 38
3, 118854, Note_on_c, 0, 64, 35
3, 118950, Note_off_c, 0, 64, 64
3, 118950, Note_off_c, 0, 61, 64
3, 118950, Note_off_c, 0, 57, 64
3, 118950, Note_on_c, 0, 57, 42
3, 118950, Note_on_c, 0, 61, 41
3, 118950, Note_on_c, 0, 64, 40
3, 119046, Note_off_c, 0, 64, 64
3, 119046, Note_off_c, 0, 61, 64
3, 119046, Note_off_c, 0, 57, 64
3, 119046, Note_on_c, 0, 57, 45
3, 119046, Note_on_c, 0, 61, 45
3, 119046, Note_on_c, 0, 64, 46
3, 119238, Note_off_c, 0, 64, 64
3, 119238, Note_off_c, 0, 61, 0
3, 119238, Note_off_c, 0, 57, 0
3, 119238, Note_on_c, 0, 57, 39
3, 119238, Note_on_c, 0, 61, 40
3, 119238, Note_on_c, 0, 64, 37
3, 119430, Note_off_c, 0, 64, 64
3, 119430, Note_off_c, 0, 61, 64
3, 119430, Note_off_c, 0, 57, 64
3, 119430, Note_on_c, 0, 57, 34
3, 119430, Note_on_c, 0, 61, 36
3, 119430, Note_on_c, 0, 64, 31
3, 119622, Note_off_c, 0, 64, 64
3, 119622, Note_off_c, 0, 61, 64
3, 119622, Note_off_c, 0, 57, 64
3, 119622, Note_on_c, 0, 57, 38
3, 119622, Note_on_c, 0, 61, 37
3, 119622, Note_on_c, 0, 64, 38
3, 119814, Note_off_c, 0, 64, 64
3, 119814, Note_off_c, 0, 61, 64
3, 119814, Note_off_c, 0, 57, 64
3, 119814, Note_on_c, 0, 45, 62
3, 120006, Note_off_c, 0, 45, 64
3, 120006, Note_on_c, 0, 57, 43
3, 120006, Note_on_c, 0, 62, 48
3, 120006, Note_on_c, 0, 66, 42
3, 120102, Note_off_c, 0, 66, 64
3, 120102, Note_off_c, 0, 62, 64
3, 120102, Note_off_c, 0, 57, 64
3, 120102, Note_on_c, 0, 57, 45
3, 120102, Note_on_c, 0, 62, 48
3, 120102, Note_on_c, 0, 66, 43
3, 120198, Note_off_c, 0, 66, 64
3, 120198, Note_off_c, 0, 62, 64
3, 120198, Note_off_c, 0, 57, 64
3, 120198, Note_on_c, 0, 57, 39
3, 120198, Note_on_c, 0, 61, 41
3, 120198, Note_on_c, 0, 64, 45
3, 120390, Note_off_c, 0, 64, 64
3, 120390, Note_off_c, 0, 61, 64
3, 120390, Note_off_c, 0, 57, 64
3, 120390, Note_on_c, 0, 57, 37
3, 120390, Note_on_c, 0, 61, 39
3, 120390, Note_on_c, 0, 64, 36
3, 120582, Note_off_c, 0, 64, 64
3, 120582, Note_off_c, 0, 61, 64
3, 120582, Note_off_c, 0, 57, 64
3, 120582, Note_on_c, 0, 57, 40
3, 120582, Note_on_c, 0, 61, 41
3, 120582, Note_on_c, 0, 64, 39
3, 120774, Note_off_c, 0, 64, 64
3, 120774, Note_off_c, 0, 61, 64
3, 120774, Note_off_c, 0, 57, 64
3, 120774, Note_on_c, 0, 58, 51
3, 120774, Note_on_c, 0, 61, 47
3, 120966, Note_off_c, 0, 61, 64
3, 120966, Note_off_c, 0, 58, 64
3, 120966, Note_on_c, 0, 59, 39
3, 120966, Note_on_c, 0, 62, 44
3, 121158, Note_off_c, 0, 62, 64
3, 121158, Note_off_c, 0, 59, 64
3, 121158, Note_on_c, 0, 61, 43
3, 121158, Note_on_c, 0, 64, 45
3, 121350, Note_off_c, 0, 64, 64
3, 121350, Note_off_c, 0, 61, 64
3, 121350, Note_on_c, 0, 62, 53
3, 121350, Note_on_c, 0, 66, 47
3, 121542, Note_off_c, 0, 66, 64
3, 121542, Note_off_c, 0, 62, 64
3, 121542, Note_on_c, 0, 51, 45
3, 121542, Note_on_c, 0, 54, 40
3, 121734, Note_off_c, 0, 54, 64
3, 121734, Note_off_c, 0, 51, 64
3, 121734, Note_on_c, 0, 52, 45
3, 121734, Note_on_c, 0, 56, 41
3, 121926, Note_off_c, 0, 56, 64
3, 121926, Note_off_c, 0, 52, 64
3, 121926, Note_on_c, 0, 47, 53
3, 121926, Note_on_c, 0, 57, 48
3, 122118, Note_off_c, 0, 57, 64
3, 122118, Note_off_c, 0, 47, 64
3, 122118, Note_on_c, 0, 47, 51
3, 122118, Note_on_c, 0, 57, 46
3, 122310, Note_off_c, 0, 57, 64
3, 122310, Note_off_c, 0, 47, 64
3, 122310, Note_on_c, 0, 52, 47
3, 122310, Note_on_c, 0, 56, 47
3, 122502, Note_off_c, 0, 56, 64
3, 122502, Note_off_c, 0, 52, 64
3, 122502, Note_on_c, 0, 59, 55
3, 122598, Note_off_c, 0, 59, 64
3, 122598, Note_on_c, 0, 57, 52
3, 122694, Note_off_c, 0, 57, 64
3, 122694, Note_on_c, 0, 56, 50
3, 122790, Note_off_c, 0, 56, 64
3, 122790, Note_on_c, 0, 54, 53
3, 122886, Note_off_c, 0, 54, 64
3, 122886, Note_on_c, 0, 52, 58
3, 122982, Note_off_c, 0, 52, 64
3, 122982, Note_on_c, 0, 50, 63
3, 123078, Note_off_c, 0, 50, 64
3, 123078, Note_on_c, 0, 49, 62
3, 123174, Note_off_c, 0, 49, 64
3, 123174, Note_on_c, 0, 47, 53
3, 123270, Note_off_c, 0, 47, 64
3, 123270, Note_on_c, 0, 45, 57
3, 123462, Note_off_c, 0, 45, 64
3, 123462, Note_on_c, 0, 57, 43
3, 123462, Note_on_c, 0, 61, 45
3, 123462, Note_on_c, 0, 64, 44
3, 123558, Note_off_c, 0, 64, 64
3, 123558, Note_off_c, 0, 61, 64
3, 123558, Note_off_c, 0, 57, 64
3, 123558, Note_on_c, 0, 57, 45
3, 123558, Note_on_c, 0, 61, 45
3, 123558, Note_on_c, 0, 64, 42
3, 123654, Note_off_c, 0, 64, 64
3, 123654, Note_off_c, 0, 61, 64
3, 123654, Note_off_c, 0, 57, 64
3, 123654, Note_on_c, 0, 57, 45
3, 123654, Note_on_c, 0, 61, 45
3, 123654, Note_on_c, 0, 64, 44
3, 123846, Note_off_c, 0, 64, 64
3, 123846, Note_off_c, 0, 61, 0
3, 123846, Note_off_c, 0, 57, 64
3, 123846, Note_on_c, 0, 57, 42
3, 123846, Note_on_c, 0, 61, 39
3, 123846, Note_on_c, 0, 64, 40
3, 124038, Note_off_c, 0, 64, 64
3, 124038, Note_off_c, 0, 61, 64
3, 124038, Note_off_c, 0, 57, 64
3, 124038, Note_on_c, 0, 57, 42
3, 124038, Note_on_c, 0, 61, 41
3, 124038, Note_on_c, 0, 64, 38
3, 124230, Note_off_c, 0, 64, 64
3, 124230, Note_off_c, 0, 61, 64
3, 124230, Note_off_c, 0, 57, 64
3, 124230, Note_on_c, 0, 57, 45
3, 124230, Note_on_c, 0, 61, 42
3, 124230, Note_on_c, 0, 64, 43
3, 124422, Note_off_c, 0, 64, 64
3, 124422, Note_off_c, 0, 61, 64
3, 124422, Note_off_c, 0, 57, 64
3, 124422, Note_on_c, 0, 45, 57
3, 124614, Note_off_c, 0, 45, 64
3, 124614, Note_on_c, 0, 57, 45
3, 124614, Note_on_c, 0, 62, 53
3, 124614, Note_on_c, 0, 66, 47
3, 124710, Note_off_c, 0, 66, 64
3, 124710, Note_off_c, 0, 62, 64
3, 124710, Note_off_c, 0, 57, 64
3, 124710, Note_on_c, 0, 57, 45
3, 124710, Note_on_c, 0, 62, 49
3, 124710, Note_on_c, 0, 66, 40
3, 124806, Note_off_c, 0, 66, 64
3, 124806, Note_off_c, 0, 62, 64
3, 124806, Note_off_c, 0, 57, 64
3, 124806, Note_on_c, 0, 57, 41
3, 124806, Note_on_c, 0, 61, 43
3, 124806, Note_on_c, 0, 64, 45
3, 124998, Note_off_c, 0, 64, 64
3, 124998, Note_off_c, 0, 61, 0
3, 124998, Note_off_c, 0, 57, 0
3, 124998, Note_on_c, 0, 57, 40
3, 124998, Note_on_c, 0, 61, 42
3, 124998, Note_on_c, 0, 64, 41
3, 125190, Note_off_c, 0, 64, 64
3, 125190, Note_off_c, 0, 61, 64
3, 125190, Note_off_c, 0, 57, 64
3, 125190, Note_on_c, 0, 57, 42
3, 125190, Note_on_c, 0, 61, 41
3, 125190, Note_on_c, 0, 64, 38
3, 125382, Note_off_c, 0, 64, 64
3, 125382, Note_off_c, 0, 61, 64
3, 125382, Note_off_c, 0, 57, 64
3, 125382, Note_on_c, 0, 57, 45
3, 125382, Note_on_c, 0, 61, 44
3, 125382, Note_on_c, 0, 64, 43
3, 125574, Note_off_c, 0, 64, 0
3, 125574, Note_off_c, 0, 61, 64
3, 125574, Note_off_c, 0, 57, 64
3, 125574, Note_on_c, 0, 45, 71
3, 125766, Note_off_c, 0, 45, 64
3, 125766, Note_on_c, 0, 57, 47
3, 125766, Note_on_c, 0, 62, 51
3, 125766, Note_on_c, 0, 65, 51
3, 125862, Note_off_c, 0, 65, 64
3, 125862, Note_off_c, 0, 62, 64
3, 125862, Note_off_c, 0, 57, 64
3, 125862, Note_on_c, 0, 57, 56
3, 125862, Note_on_c, 0, 62, 56
3, 125862, Note_on_c, 0, 65, 56
3, 125958, Note_off_c, 0, 65, 64
3, 125958, Note_off_c, 0, 62, 64
3, 125958, Note_off_c, 0, 57, 64
3, 125958, Note_on_c, 0, 57, 48
3, 125958, Note_on_c, 0, 61, 49
3, 125958, Note_on_c, 0, 64, 53
3, 126150, Note_off_c, 0, 64, 64
3, 126150, Note_off_c, 0, 61, 64
3, 126150, Note_off_c, 0, 57, 64
3, 126150, Note_on_c, 0, 57, 43
3, 126150, Note_on_c, 0, 61, 47
3, 126150, Note_on_c, 0, 64, 43
3, 126342, Note_off_c, 0, 64, 64
3, 126342, Note_off_c, 0, 61, 64
3, 126342, Note_off_c, 0, 57, 64
3, 126342, Note_on_c, 0, 57, 48
3, 126342, Note_on_c, 0, 61, 49
3, 126342, Note_on_c, 0, 64, 50
3, 126534, Note_off_c, 0, 64, 64
3, 126534, Note_off_c, 0, 61, 64
3, 126534, Note_off_c, 0, 57, 64
3, 126534, Note_on_c, 0, 57, 52
3, 126534, Note_on_c, 0, 61, 53
3, 126534, Note_on_c, 0, 64, 50
3, 126726, Note_off_c, 0, 64, 64
3, 126726, Note_off_c, 0, 61, 64
3, 126726, Note_off_c, 0, 57, 64
3, 126726, Note_on_c, 0, 57, 57
3, 126726, Note_on_c, 0, 62, 62
3, 126726, Note_on_c, 0, 65, 62
3, 126918, Note_off_c, 0, 65, 64
3, 126918, Note_off_c, 0, 62, 64
3, 126918, Note_off_c, 0, 57, 64
3, 127110, Note_on_c, 0, 56, 61
3, 127110, Note_on_c, 0, 62, 65
3, 127110, Note_on_c, 0, 65, 62
3, 127302, Note_off_c, 0, 65, 64
3, 127302, Note_off_c, 0, 62, 64
3, 127302, Note_off_c, 0, 56, 64
3, 127494, Note_on_c, 0, 55, 59
3, 127494, Note_on_c, 0, 59, 62
3, 127494, Note_on_c, 0, 62, 63
3, 127494, Note_on_c, 0, 65, 62
3, 127686, Note_off_c, 0, 65, 64
3, 127686, Note_off_c, 0, 62, 64
3, 127686, Note_off_c, 0, 59, 64
3, 127686, Note_off_c, 0, 55, 64
3, 127878, Note_on_c, 0, 55, 63
3, 127878, Note_on_c, 0, 59, 68
3, 127878, Note_on_c, 0, 62, 67
3, 127878, Note_on_c, 0, 65, 63
3, 128070, Note_off_c, 0, 65, 64
3, 128070, Note_off_c, 0, 62, 64
3, 128070, Note_off_c, 0, 59, 64
3, 128070, Note_off_c, 0, 55, 64
3, 128262, Note_on_c, 0, 55, 62
3, 128262, Note_on_c, 0, 59, 67
3, 128262, Note_on_c, 0, 62, 62
3, 128262, Note_on_c, 0, 65, 62
3, 128454, Note_off_c, 0, 65, 64
3, 128454, Note_off_c, 0, 62, 64
3, 128454, Note_off_c, 0, 59, 64
3, 128454, Note_off_c, 0, 55, 64
3, 128646, Note_on_c, 0, 55, 58
3, 128646, Note_on_c, 0, 59, 65
3, 128646, Note_on_c, 0, 62, 65
3, 128646, Note_on_c, 0, 65, 60
3, 128838, Note_off_c, 0, 65, 64
3, 128838, Note_off_c, 0, 62, 64
3, 128838, Note_off_c, 0, 59, 64
3, 128838, Note_off_c, 0, 55, 64
3, 129030, Note_on_c, 0, 55, 69
3, 129030, Note_on_c, 0, 60, 75
3, 129030, Note_on_c, 0, 64, 63
3, 129222, Note_off_c, 0, 64, 64
3, 129222, Note_off_c, 0, 60, 64
3, 129222, Note_off_c, 0, 55, 64
3, 129414, Note_on_c, 0, 55, 63
3, 129414, Note_on_c, 0, 60, 69
3, 129414, Note_on_c, 0, 64, 57
3, 129606, Note_off_c, 0, 64, 64
3, 129606, Note_off_c, 0, 60, 64
3, 129606, Note_off_c, 0, 55, 64
3, 129798, Note_on_c, 0, 55, 61
3, 129798, Note_on_c, 0, 60, 65
3, 129798, Note_on_c, 0, 64, 55
3, 129990, Note_off_c, 0, 64, 64
3, 129990, Note_off_c, 0, 60, 64
3, 129990, Note_off_c, 0, 55, 64
3, 130182, Note_on_c, 0, 55, 69
3, 130182, Note_on_c, 0, 60, 72
3, 130182, Note_on_c, 0, 63, 68
3, 130182, Note_on_c, 0, 66, 68
3, 130374, Note_off_c, 0, 66, 64
3, 130374, Note_off_c, 0, 63, 64
3, 130374, Note_off_c, 0, 60, 64
3, 130374, Note_off_c, 0, 55, 64
3, 130566, Note_on_c, 0, 55, 73
3, 130566, Note_on_c, 0, 60, 77
3, 130566, Note_on_c, 0, 63, 70
3, 130566, Note_on_c, 0, 66, 69
3, 130758, Note_off_c, 0, 66, 64
3, 130758, Note_off_c, 0, 63, 64
3, 130758, Note_off_c, 0, 60, 64
3, 130758, Note_off_c, 0, 55, 64
3, 130950, Note_on_c, 0, 55, 70
3, 130950, Note_on_c, 0, 60, 75
3, 130950, Note_on_c, 0, 63, 68
3, 130950, Note_on_c, 0, 66, 67
3, 131142, Note_off_c, 0, 66, 64
3, 131142, Note_off_c, 0, 63, 64
3, 131142, Note_off_c, 0, 60, 64
3, 131142, Note_off_c, 0, 55, 64
3, 131334, Note_on_c, 0, 66, 89
3, 131430, Note_off_c, 0, 66, 64
3, 131526, Note_on_c, 0, 69, 59
3, 131622, Note_on_c, 0, 72, 63
3, 131660, Note_off_c, 0, 69, 64
3, 131718, Note_on_c, 0, 75, 85
3, 131756, Note_off_c, 0, 72, 64
3, 131814, Note_off_c, 0, 75, 64
3, 131910, Note_on_c, 0, 72, 71
3, 132006, Note_on_c, 0, 69, 65
3, 132044, Note_off_c, 0, 72, 64
3, 132102, Note_on_c, 0, 65, 97
3, 132140, Note_off_c, 0, 69, 64
3, 132198, Note_off_c, 0, 65, 64
3, 132294, Note_on_c, 0, 68, 77
3, 132390, Note_on_c, 0, 71, 81
3, 132428, Note_off_c, 0, 68, 64
3, 132486, Note_on_c, 0, 64, 87
3, 132524, Note_off_c, 0, 71, 64
3, 132582, Note_off_c, 0, 64, 64
3, 132678, Note_on_c, 0, 67, 71
3, 132774, Note_on_c, 0, 70, 66
3, 132812, Note_off_c, 0, 67, 64
3, 132870, Note_on_c, 0, 73, 88
3, 132908, Note_off_c, 0, 70, 64
3, 132966, Note_off_c, 0, 73, 64
3, 133062, Note_on_c, 0, 70, 69
3, 133158, Note_on_c, 0, 67, 67
3, 133196, Note_off_c, 0, 70, 64
3, 133254, Note_on_c, 0, 63, 95
3, 133292, Note_off_c, 0, 67, 64
3, 133350, Note_off_c, 0, 63, 64
3, 133446, Note_on_c, 0, 66, 68
3, 133542, Note_on_c, 0, 69, 67
3, 133580, Note_off_c, 0, 66, 64
3, 133638, Note_on_c, 0, 72, 93
3, 133676, Note_off_c, 0, 69, 64
3, 133734, Note_off_c, 0, 72, 64
3, 133830, Note_on_c, 0, 69, 67
3, 133926, Note_on_c, 0, 66, 68
3, 133964, Note_off_c, 0, 69, 64
3, 134022, Note_on_c, 0, 62, 96
3, 134060, Note_off_c, 0, 66, 64
3, 134118, Note_off_c, 0, 62, 64
3, 134214, Note_on_c, 0, 65, 70
3, 134310, Note_on_c, 0, 68, 67
3, 134348, Note_off_c, 0, 65, 64
3, 134406, Note_on_c, 0, 70, 94
3, 134444, Note_off_c, 0, 68, 64
3, 134502, Note_off_c, 0, 70, 64
3, 134598, Note_on_c, 0, 67, 76
3, 134694, Note_on_c, 0, 64, 65
3, 134732, Note_off_c, 0, 67, 64
3, 134790, Note_on_c, 0, 61, 90
3, 134828, Note_off_c, 0, 64, 64
3, 134886, Note_off_c, 0, 61, 64
3, 134982, Note_on_c, 0, 64, 60
3, 135078, Note_on_c, 0, 67, 74
3, 135116, Note_off_c, 0, 64, 64
3, 135174, Note_on_c, 0, 70, 88
3, 135212, Note_off_c, 0, 67, 64
3, 135270, Note_off_c, 0, 70, 64
3, 135366, Note_on_c, 0, 67, 75
3, 135462, Note_on_c, 0, 64, 65
3, 135500, Note_off_c, 0, 67, 64
3, 135558, Note_on_c, 0, 62, 93
3, 135596, Note_off_c, 0, 64, 64
3, 135654, Note_off_c, 0, 62, 64
3, 135750, Note_on_c, 0, 64, 78
3, 135846, Note_on_c, 0, 67, 86
3, 135884, Note_off_c, 0, 64, 64
3, 135942, Note_off_c, 0, 67, 64
3, 135942, Note_on_c, 0, 60, 64
3, 136038, Note_off_c, 0, 60, 64
3, 136134, Note_on_c, 0, 64, 44
3, 136230, Note_on_c, 0, 67, 49
3, 136268, Note_off_c, 0, 64, 64
3, 136326, Note_on_c, 0, 70, 51
3, 136364, Note_off_c, 0, 67, 64
3, 136422, Note_off_c, 0, 70, 64
3, 136518, Note_on_c, 0, 67, 48
3, 136614, Note_on_c, 0, 64, 45
3, 136652, Note_off_c, 0, 67, 64
3, 136710, Note_on_c, 0, 60, 61
3, 136748, Note_off_c, 0, 64, 64
3, 136806, Note_off_c, 0, 60, 64
3, 136902, Note_on_c, 0, 65, 46
3, 136998, Note_on_c, 0, 69, 45
3, 137036, Note_off_c, 0, 65, 64
3, 137094, Note_off_c, 0, 69, 64
3, 137094, Note_on_c, 0, 60, 51
3, 137190, Note_off_c, 0, 60, 64
3, 137286, Note_on_c, 0, 62, 38
3, 137382, Note_on_c, 0, 65, 38
3, 137420, Note_off_c, 0, 62, 64
3, 137478, Note_on_c, 0, 71, 45
3, 137516, Note_off_c, 0, 65, 64
3, 137574, Note_off_c, 0, 71, 64
3, 137670, Note_on_c, 0, 65, 37
3, 137766, Note_on_c, 0, 62, 33
3, 137804, Note_off_c, 0, 65, 64
3, 137862, Note_on_c, 0, 60, 46
3, 137900, Note_off_c, 0, 62, 64
3, 137958, Note_off_c, 0, 60, 64
3, 138054, Note_on_c, 0, 62, 35
3, 138150, Note_on_c, 0, 65, 37
3, 138188, Note_off_c, 0, 62, 64
3, 138246, Note_off_c, 0, 65, 64
3, 138246, Note_on_c, 0, 60, 48
3, 138246, Note_on_c, 0, 62, 45
3, 138246, Note_on_c, 0, 65, 41
3, 138438, Note_off_c, 0, 65, 64
3, 138438, Note_off_c, 0, 62, 64
3, 138438, Note_off_c, 0, 60, 64
3, 138438, Note_on_c, 0, 60, 48
3, 138438, Note_on_c, 0, 62, 48
3, 138438, Note_on_c, 0, 65, 45
3, 138630, Note_off_c, 0, 65, 64
3, 138630, Note_off_c, 0, 62, 64
3, 138630, Note_off_c, 0, 60, 64
3, 138630, Note_on_c, 0, 60, 43
3, 138630, Note_on_c, 0, 62, 43
3, 138630, Note_on_c, 0, 65, 39
3, 138822, Note_off_c, 0, 65, 64
3, 138822, Note_off_c, 0, 62, 64
3, 138822, Note_off_c, 0, 60, 64
3, 138822, Note_on_c, 0, 60, 47
3, 138822, Note_on_c, 0, 62, 44
3, 138822, Note_on_c, 0, 65, 40
3, 139014, Note_off_c, 0, 65, 64
3, 139014, Note_off_c, 0, 62, 64
3, 139014, Note_off_c, 0, 60, 64
3, 139014, Note_on_c, 0, 60, 51
3, 139014, Note_on_c, 0, 62, 52
3, 139014, Note_on_c, 0, 65, 51
3, 139014, Note_on_c, 0, 67, 49
3, 139206, Note_off_c, 0, 67, 64
3, 139206, Note_off_c, 0, 65, 64
3, 139206, Note_off_c, 0, 62, 64
3, 139206, Note_off_c, 0, 60, 64
3, 139206, Note_on_c, 0, 60, 47
3, 139206, Note_on_c, 0, 62, 45
3, 139206, Note_on_c, 0, 65, 54
3, 139206, Note_on_c, 0, 67, 54
3, 139398, Note_off_c, 0, 67, 64
3, 139398, Note_off_c, 0, 65, 64
3, 139398, Note_off_c, 0, 62, 64
3, 139398, Note_off_c, 0, 60, 64
3, 139398, Note_on_c, 0, 60, 48
3, 139398, Note_on_c, 0, 62, 49
3, 139398, Note_on_c, 0, 65, 54
3, 139590, Note_off_c, 0, 65, 64
3, 139590, Note_off_c, 0, 62, 64
3, 139590, Note_off_c, 0, 60, 64
3, 139590, Note_on_c, 0, 60, 42
3, 139590, Note_on_c, 0, 62, 46
3, 139590, Note_on_c, 0, 65, 50
3, 139782, Note_off_c, 0, 65, 64
3, 139782, Note_off_c, 0, 62, 64
3, 139782, Note_off_c, 0, 60, 64
3, 139782, Note_on_c, 0, 60, 39
3, 139782, Note_on_c, 0, 62, 42
3, 139782, Note_on_c, 0, 65, 50
3, 139974, Note_off_c, 0, 65, 64
3, 139974, Note_off_c, 0, 62, 64
3, 139974, Note_off_c, 0, 60, 64
3, 139974, Note_on_c, 0, 60, 43
3, 139974, Note_on_c, 0, 62, 44
3, 139974, Note_on_c, 0, 65, 53
3, 140166, Note_off_c, 0, 65, 64
3, 140166, Note_off_c, 0, 62, 64
3, 140166, Note_off_c, 0, 60, 64
3, 140166, Note_on_c, 0, 60, 41
3, 140166, Note_on_c, 0, 62, 41
3, 140166, Note_on_c, 0, 65, 48
3, 140358, Note_off_c, 0, 65, 64
3, 140358, Note_off_c, 0, 62, 64
3, 140358, Note_off_c, 0, 60, 64
3, 140358, Note_on_c, 0, 60, 41
3, 140358, Note_on_c, 0, 62, 42
3, 140358, Note_on_c, 0, 65, 46
3, 140550, Note_off_c, 0, 65, 64
3, 140550, Note_off_c, 0, 62, 64
3, 140550, Note_off_c, 0, 60, 64
3, 140550, Note_on_c, 0, 60, 39
3, 140550, Note_on_c, 0, 62, 40
3, 140550, Note_on_c, 0, 65, 53
3, 140742, Note_off_c, 0, 65, 64
3, 140742, Note_off_c, 0, 62, 64
3, 140742, Note_off_c, 0, 60, 64
3, 140742, Note_on_c, 0, 60, 39
3, 140742, Note_on_c, 0, 62, 41
3, 140742, Note_on_c, 0, 65, 44
3, 140934, Note_off_c, 0, 65, 64
3, 140934, Note_off_c, 0, 62, 64
3, 140934, Note_off_c, 0, 60, 64
3, 140934, Note_on_c, 0, 60, 41
3, 140934, Note_on_c, 0, 62, 41
3, 140934, Note_on_c, 0, 65, 50
3, 141126, Note_off_c, 0, 65, 64
3, 141126, Note_off_c, 0, 62, 64
3, 141126, Note_off_c, 0, 60, 64
3, 141126, Note_on_c, 0, 60, 43
3, 141126, Note_on_c, 0, 62, 41
3, 141126, Note_on_c, 0, 65, 48
3, 141318, Note_off_c, 0, 65, 64
3, 141318, Note_off_c, 0, 62, 64
3, 141318, Note_off_c, 0, 60, 64
3, 141318, Note_on_c, 0, 60, 44
3, 141318, Note_on_c, 0, 62, 44
3, 141318, Note_on_c, 0, 65, 42
3, 141318, Note_on_c, 0, 67, 49
3, 141510, Note_off_c, 0, 67, 64
3, 141510, Note_off_c, 0, 65, 64
3, 141510, Note_off_c, 0, 62, 64
3, 141510, Note_off_c, 0, 60, 64
3, 141510, Note_on_c, 0, 60, 40
3, 141510, Note_on_c, 0, 62, 39
3, 141510, Note_on_c, 0, 65, 44
3, 141510, Note_on_c, 0, 67, 46
3, 141702, Note_off_c, 0, 67, 64
3, 141702, Note_off_c, 0, 65, 64
3, 141702, Note_off_c, 0, 62, 64
3, 141702, Note_off_c, 0, 60, 64
3, 141702, Note_on_c, 0, 48, 66
3, 141894, Note_off_c, 0, 48, 64
3, 141894, Note_on_c, 0, 60, 40
3, 141894, Note_on_c, 0, 64, 45
3, 141894, Note_on_c, 0, 67, 43
3, 141990, Note_off_c, 0, 67, 64
3, 141990, Note_off_c, 0, 64, 64
3, 141990, Note_off_c, 0, 60, 64
3, 141990, Note_on_c, 0, 60, 37
3, 141990, Note_on_c, 0, 64, 44
3, 141990, Note_on_c, 0, 67, 38
3, 142086, Note_off_c, 0, 67, 64
3, 142086, Note_off_c, 0, 64, 64
3, 142086, Note_off_c, 0, 60, 64
3, 142086, Note_on_c, 0, 60, 39
3, 142086, Note_on_c, 0, 64, 44
3, 142086, Note_on_c, 0, 67, 44
3, 142278, Note_off_c, 0, 67, 0
3, 142278, Note_off_c, 0, 64, 0
3, 142278, Note_off_c, 0, 60, 64
3, 142278, Note_on_c, 0, 60, 37
3, 142278, Note_on_c, 0, 64, 41
3, 142278, Note_on_c, 0, 67, 41
3, 142470, Note_off_c, 0, 67, 64
3, 142470, Note_off_c, 0, 64, 64
3, 142470, Note_off_c, 0, 60, 64
3, 142470, Note_on_c, 0, 60, 36
3, 142470, Note_on_c, 0, 64, 43
3, 142470, Note_on_c, 0, 67, 39
3, 142662, Note_off_c, 0, 67, 64
3, 142662, Note_off_c, 0, 64, 64
3, 142662, Note_off_c, 0, 60, 64
3, 142662, Note_on_c, 0, 60, 41
3, 142662, Note_on_c, 0, 64, 46
3, 142662, Note_on_c, 0, 67, 46
3, 142848, Note_on_c, 0, 48, 64
3, 142854, Note_off_c, 0, 67, 64
3, 142854, Note_off_c, 0, 64, 64
3, 142854, Note_off_c, 0, 60, 64
3, 143040, Note_off_c, 0, 48, 64
3, 143040, Note_on_c, 0, 60, 36
3, 143040, Note_on_c, 0, 65, 36
3, 143040, Note_on_c, 0, 69, 36
3, 143136, Note_off_c, 0, 69, 64
3, 143136, Note_off_c, 0, 65, 64
3, 143136, Note_off_c, 0, 60, 64
3, 143136, Note_on_c, 0, 60, 36
3, 143136, Note_on_c, 0, 65, 36
3, 143136, Note_on_c, 0, 69, 36
3, 143232, Note_off_c, 0, 69, 64
3, 143232, Note_off_c, 0, 65, 64
3, 143232, Note_off_c, 0, 60, 64
3, 143232, Note_on_c, 0, 48, 66
3, 143424, Note_off_c, 0, 48, 64
3, 143424, Note_on_c, 0, 60, 45
3, 143424, Note_on_c, 0, 64, 45
3, 143424, Note_on_c, 0, 67, 45
3, 143520, Note_off_c, 0, 67, 64
3, 143520, Note_off_c, 0, 64, 64
3, 143520, Note_off_c, 0, 60, 64
3, 143520, Note_on_c, 0, 60, 43
3, 143520, Note_on_c, 0, 64, 43
3, 143520, Note_on_c, 0, 67, 43
3, 143616, Note_off_c, 0, 67, 64
3, 143616, Note_off_c, 0, 64, 64
3, 143616, Note_off_c, 0, 60, 64
3, 143616, Note_on_c, 0, 60, 36
3, 143616, Note_on_c, 0, 64, 36
3, 143616, Note_on_c, 0, 67, 36
3, 143808, Note_off_c, 0, 67, 0
3, 143808, Note_off_c, 0, 64, 0
3, 143808, Note_off_c, 0, 60, 64
3, 143808, Note_on_c, 0, 61, 49
3, 143808, Note_on_c, 0, 64, 49
3, 144000, Note_off_c, 0, 64, 64
3, 144000, Note_off_c, 0, 61, 64
3, 144000, Note_on_c, 0, 62, 49
3, 144000, Note_on_c, 0, 65, 49
3, 144192, Note_off_c, 0, 65, 64
3, 144192, Note_off_c, 0, 62, 64
3, 144192, Note_on_c, 0, 64, 36
3, 144192, Note_on_c, 0, 67, 36
3, 144384, Note_off_c, 0, 67, 64
3, 144384, Note_off_c, 0, 64, 64
3, 144384, Note_on_c, 0, 65, 36
3, 144384, Note_on_c, 0, 69, 36
3, 144576, Note_off_c, 0, 69, 64
3, 144576, Note_off_c, 0, 65, 64
3, 144576, Note_on_c, 0, 54, 36
3, 144576, Note_on_c, 0, 57, 36
3, 144768, Note_off_c, 0, 57, 64
3, 144768, Note_off_c, 0, 54, 64
3, 144768, Note_on_c, 0, 55, 36
3, 144768, Note_on_c, 0, 59, 36
3, 144960, Note_off_c, 0, 59, 64
3, 144960, Note_off_c, 0, 55, 64
3, 144960, Note_on_c, 0, 50, 36
3, 144960, Note_on_c, 0, 60, 36
3, 145152, Note_off_c, 0, 60, 64
3, 145152, Note_off_c, 0, 50, 64
3, 145152, Note_on_c, 0, 50, 47
3, 145152, Note_on_c, 0, 60, 47
3, 145344, Note_off_c, 0, 60, 64
3, 145344, Note_off_c, 0, 50, 64
3, 145344, Note_on_c, 0, 55, 36
3, 145344, Note_on_c, 0, 59, 36
3, 145536, Note_off_c, 0, 59, 64
3, 145536, Note_off_c, 0, 55, 64
3, 145536, Note_on_c, 0, 43, 72
3, 145728, Note_off_c, 0, 43, 64
3, 145728, Note_on_c, 0, 55, 43
3, 145728, Note_on_c, 0, 59, 43
3, 145728, Note_on_c, 0, 62, 43
3, 145824, Note_off_c, 0, 62, 64
3, 145824, Note_off_c, 0, 59, 64
3, 145824, Note_off_c, 0, 55, 64
3, 145824, Note_on_c, 0, 55, 43
3, 145824, Note_on_c, 0, 59, 43
3, 145824, Note_on_c, 0, 62, 43
3, 145920, Note_off_c, 0, 62, 64
3, 145920, Note_off_c, 0, 59, 0
3, 145920, Note_off_c, 0, 55, 0
3, 145920, Note_on_c, 0, 55, 36
3, 145920, Note_on_c, 0, 59, 36
3, 145920, Note_on_c, 0, 62, 36
3, 146112, Note_off_c, 0, 62, 64
3, 146112, Note_off_c, 0, 59, 0
3, 146112, Note_off_c, 0, 55, 64
3, 146112, Note_on_c, 0, 55, 36
3, 146112, Note_on_c, 0, 59, 36
3, 146112, Note_on_c, 0, 62, 36
3, 146304, Note_off_c, 0, 62, 64
3, 146304, Note_off_c, 0, 59, 64
3, 146304, Note_off_c, 0, 55, 64
3, 146304, Note_on_c, 0, 43, 72
3, 146496, Note_off_c, 0, 43, 64
3, 146496, Note_on_c, 0, 53, 45
3, 146496, Note_on_c, 0, 55, 45
3, 146496, Note_on_c, 0, 59, 45
3, 146496, Note_on_c, 0, 62, 45
3, 146592, Note_off_c, 0, 62, 64
3, 146592, Note_off_c, 0, 59, 64
3, 146592, Note_off_c, 0, 55, 64
3, 146592, Note_off_c, 0, 53, 64
3, 146592, Note_on_c, 0, 53, 43
3, 146592, Note_on_c, 0, 55, 43
3, 146592, Note_on_c, 0, 59, 43
3, 146592, Note_on_c, 0, 62, 43
3, 146688, Note_off_c, 0, 62, 64
3, 146688, Note_off_c, 0, 59, 64
3, 146688, Note_off_c, 0, 55, 64
3, 146688, Note_off_c, 0, 53, 64
3, 146688, Note_on_c, 0, 53, 36
3, 146688, Note_on_c, 0, 55, 36
3, 146688, Note_on_c, 0, 59, 36
3, 146688, Note_on_c, 0, 62, 36
3, 146880, Note_off_c, 0, 62, 0
3, 146880, Note_off_c, 0, 59, 0
3, 146880, Note_off_c, 0, 55, 0
3, 146880, Note_off_c, 0, 53, 0
3, 146880, Note_on_c, 0, 53, 36
3, 146880, Note_on_c, 0, 55, 36
3, 146880, Note_on_c, 0, 59, 36
3, 146880, Note_on_c, 0, 62, 36
3, 147072, Note_off_c, 0, 62, 64
3, 147072, Note_off_c, 0, 59, 64
3, 147072, Note_off_c, 0, 55, 64
3, 147072, Note_off_c, 0, 53, 64
3, 147072, Note_on_c, 0, 53, 36
3, 147072, Note_on_c, 0, 55, 36
3, 147072, Note_on_c, 0, 59, 36
3, 147072, Note_on_c, 0, 62, 36
3, 147264, Note_off_c, 0, 62, 64
3, 147264, Note_off_c, 0, 59, 64
3, 147264, Note_off_c, 0, 55, 64
3, 147264, Note_off_c, 0, 53, 64
3, 147264, Note_on_c, 0, 53, 36
3, 147264, Note_on_c, 0, 55, 36
3, 147264, Note_on_c, 0, 59, 36
3, 147264, Note_on_c, 0, 62, 36
3, 147456, Note_off_c, 0, 62, 64
3, 147456, Note_off_c, 0, 59, 64
3, 147456, Note_off_c, 0, 55, 64
3, 147456, Note_off_c, 0, 53, 64
3, 147456, Note_on_c, 0, 52, 72
3, 147648, Note_off_c, 0, 52, 64
3, 147648, Note_on_c, 0, 64, 70
3, 147648, Note_on_c, 0, 67, 70
3, 147744, Note_off_c, 0, 67, 64
3, 147744, Note_off_c, 0, 64, 64
3, 147744, Note_on_c, 0, 64, 74
3, 147744, Note_on_c, 0, 67, 74
3, 147840, Note_off_c, 0, 67, 64
3, 147840, Note_off_c, 0, 64, 64
3, 147840, Note_on_c, 0, 64, 80
3, 147840, Note_on_c, 0, 67, 80
3, 147840, Note_on_c, 0, 72, 80
3, 148416, Note_off_c, 0, 72, 64
3, 148416, Note_off_c, 0, 67, 64
3, 148416, Note_off_c, 0, 64, 64
3, 148416, Note_on_c, 0, 65, 59
3, 148416, Note_on_c, 0, 67, 59
3, 148416, Note_on_c, 0, 74, 59
3, 148608, Note_off_c, 0, 74, 64
3, 148608, Note_off_c, 0, 67, 64
3, 148608, Note_off_c, 0, 65, 64
3, 148608, Note_on_c, 0, 64, 47
3, 148608, Note_on_c, 0, 67, 47
3, 148608, Note_on_c, 0, 72, 47
3, 148800, Note_off_c, 0, 72, 64
3, 148800, Note_off_c, 0, 67, 64
3, 148800, Note_off_c, 0, 64, 64
3, 148800, Note_on_c, 0, 65, 35
3, 148800, Note_on_c, 0, 67, 35
3, 148800, Note_on_c, 0, 74, 35
3, 148992, Note_off_c, 0, 74, 64
3, 148992, Note_off_c, 0, 67, 64
3, 148992, Note_off_c, 0, 65, 64
3, 148992, Note_on_c, 0, 64, 35
3, 148992, Note_on_c, 0, 67, 35
3, 148992, Note_on_c, 0, 72, 35
3, 149184, Note_off_c, 0, 72, 64
3, 149184, Note_off_c, 0, 67, 64
3, 149184, Note_off_c, 0, 64, 64
3, 149184, Note_on_c, 0, 65, 35
3, 149184, Note_on_c, 0, 67, 35
3, 149184, Note_on_c, 0, 74, 35
3, 149376, Note_off_c, 0, 74, 64
3, 149376, Note_off_c, 0, 67, 64
3, 149376, Note_off_c, 0, 65, 64
3, 149376, Note_on_c, 0, 64, 37
3, 149376, Note_on_c, 0, 67, 37
3, 149376, Note_on_c, 0, 72, 37
3, 149568, Note_off_c, 0, 72, 64
3, 149568, Note_off_c, 0, 67, 64
3, 149568, Note_off_c, 0, 64, 64
3, 149568, Note_on_c, 0, 65, 39
3, 149568, Note_on_c, 0, 67, 39
3, 149568, Note_on_c, 0, 74, 39
3, 149760, Note_off_c, 0, 74, 64
3, 149760, Note_off_c, 0, 67, 64
3, 149760, Note_off_c, 0, 65, 64
3, 149760, Note_on_c, 0, 64, 51
3, 149760, Note_on_c, 0, 67, 51
3, 149760, Note_on_c, 0, 72, 51
3, 149856, Note_off_c, 0, 72, 64
3, 149856, Note_off_c, 0, 67, 64
3, 149856, Note_off_c, 0, 64, 64
3, 149856, Note_on_c, 0, 64, 51
3, 149856, Note_on_c, 0, 67, 51
3, 149856, Note_on_c, 0, 72, 51
3, 149952, Note_off_c, 0, 72, 64
3, 149952, Note_off_c, 0, 67, 64
3, 149952, Note_off_c, 0, 64, 64
3, 149952, Note_on_c, 0, 65, 41
3, 149952, Note_on_c, 0, 67, 41
3, 149952, Note_on_c, 0, 74, 41
3, 150048, Note_off_c, 0, 74, 64
3, 150048, Note_off_c, 0, 67, 64
3, 150048, Note_off_c, 0, 65, 64
3, 150048, Note_on_c, 0, 65, 41
3, 150048, Note_on_c, 0, 67, 41
3, 150048, Note_on_c, 0, 74, 41
3, 150144, Note_off_c, 0, 74, 0
3, 150144, Note_off_c, 0, 67, 0
3, 150144, Note_off_c, 0, 65, 64
3, 150144, Note_on_c, 0, 64, 43
3, 150144, Note_on_c, 0, 67, 43
3, 150144, Note_on_c, 0, 72, 43
3, 150240, Note_off_c, 0, 72, 64
3, 150240, Note_off_c, 0, 67, 0
3, 150240, Note_off_c, 0, 64, 0
3, 150240, Note_on_c, 0, 64, 43
3, 150240, Note_on_c, 0, 67, 51
3, 150240, Note_on_c, 0, 72, 43
3, 150336, Note_off_c, 0, 72, 64
3, 150336, Note_off_c, 0, 67, 64
3, 150336, Note_off_c, 0, 64, 64
3, 150336, Note_on_c, 0, 65, 45
3, 150336, Note_on_c, 0, 67, 45
3, 150336, Note_on_c, 0, 74, 45
3, 150432, Note_off_c, 0, 74, 0
3, 150432, Note_off_c, 0, 67, 0
3, 150432, Note_off_c, 0, 65, 64
3, 150432, Note_on_c, 0, 65, 45
3, 150432, Note_on_c, 0, 67, 45
3, 150432, Note_on_c, 0, 74, 45
3, 150528, Note_off_c, 0, 74, 64
3, 150528, Note_off_c, 0, 67, 64
3, 150528, Note_off_c, 0, 65, 64
3, 150528, Note_on_c, 0, 64, 45
3, 150528, Note_on_c, 0, 67, 45
3, 150528, Note_on_c, 0, 72, 45
3, 150624, Note_off_c, 0, 72, 64
3, 150624, Note_off_c, 0, 67, 64
3, 150624, Note_off_c, 0, 64, 64
3, 150624, Note_on_c, 0, 64, 45
3, 150624, Note_on_c, 0, 67, 45
3, 150624, Note_on_c, 0, 72, 45
3, 150720, Note_off_c, 0, 72, 64
3, 150720, Note_off_c, 0, 67, 64
3, 150720, Note_off_c, 0, 64, 64
3, 150720, Note_on_c, 0, 52, 50
3, 150720, Note_on_c, 0, 55, 50
3, 150720, Note_on_c, 0, 60, 50
3, 150816, Note_off_c, 0, 60, 64
3, 150816, Note_off_c, 0, 55, 64
3, 150816, Note_off_c, 0, 52, 64
3, 150912, Note_on_c, 0, 41, 66
3, 151104, Note_off_c, 0, 41, 64
3, 151104, Note_on_c, 0, 53, 55
3, 151104, Note_on_c, 0, 57, 55
3, 151104, Note_on_c, 0, 62, 55
3, 151152, Note_off_c, 0, 62, 64
3, 151152, Note_off_c, 0, 57, 64
3, 151152, Note_off_c, 0, 53, 64
3, 151200, Note_on_c, 0, 53, 55
3, 151200, Note_on_c, 0, 57, 55
3, 151200, Note_on_c, 0, 62, 55
3, 151296, Note_off_c, 0, 62, 64
3, 151296, Note_off_c, 0, 57, 64
3, 151296, Note_off_c, 0, 53, 64
3, 151296, Note_on_c, 0, 43, 70
3, 151488, Note_off_c, 0, 43, 64
3, 151488, Note_on_c, 0, 55, 59
3, 151488, Note_on_c, 0, 60, 59
3, 151488, Note_on_c, 0, 64, 59
3, 151536, Note_off_c, 0, 64, 64
3, 151536, Note_off_c, 0, 60, 64
3, 151536, Note_off_c, 0, 55, 64
3, 151584, Note_on_c, 0, 55, 61
3, 151584, Note_on_c, 0, 60, 61
3, 151584, Note_on_c, 0, 64, 61
3, 151680, Note_off_c, 0, 64, 64
3, 151680, Note_off_c, 0, 60, 64
3, 151680, Note_off_c, 0, 55, 64
3, 151680, Note_on_c, 0, 43, 70
3, 151872, Note_off_c, 0, 43, 64
3, 151872, Note_on_c, 0, 55, 66
3, 151872, Note_on_c, 0, 62, 66
3, 151872, Note_on_c, 0, 65, 66
3, 151920, Note_off_c, 0, 65, 64
3, 151920, Note_off_c, 0, 62, 64
3, 151920, Note_off_c, 0, 55, 64
3, 151968, Note_on_c, 0, 55, 70
3, 151968, Note_on_c, 0, 62, 70
3, 151968, Note_on_c, 0, 65, 70
3, 152064, Note_off_c, 0, 65, 64
3, 152064, Note_off_c, 0, 62, 64
3, 152064, Note_off_c, 0, 55, 64
3, 152064, Note_on_c, 0, 60, 59
3, 152064, Note_on_c, 0, 64, 58
3, 152256, Note_off_c, 0, 64, 64
3, 152256, Note_off_c, 0, 60, 64
3, 152544, Note_on_c, 0, 60, 46
3, 152640, Note_off_c, 0, 60, 64
3, 152640, Note_on_c, 0, 64, 36
3, 152736, Note_off_c, 0, 64, 64
3, 152736, Note_on_c, 0, 62, 42
3, 152832, Note_off_c, 0, 62, 64
3, 152832, Note_on_c, 0, 60, 53
3, 152928, Note_off_c, 0, 60, 64
3, 152928, Note_on_c, 0, 64, 46
3, 153024, Note_off_c, 0, 64, 64
3, 153024, Note_on_c, 0, 69, 51
3, 153120, Note_off_c, 0, 69, 64
3, 153120, Note_on_c, 0, 65, 56
3, 153216, Note_off_c, 0, 65, 64
3, 153216, Note_on_c, 0, 64, 54
3, 153312, Note_off_c, 0, 64, 64
3, 153312, Note_on_c, 0, 57, 51
3, 153408, Note_off_c, 0, 57, 64
3, 153408, Note_on_c, 0, 64, 50
3, 153504, Note_off_c, 0, 64, 64
3, 153504, Note_on_c, 0, 61, 52
3, 153600, Note_off_c, 0, 61, 64
3, 153600, Note_on_c, 0, 62, 61
3, 153696, Note_off_c, 0, 62, 64
3, 153696, Note_on_c, 0, 57, 48
3, 153792, Note_off_c, 0, 57, 0
3, 153792, Note_on_c, 0, 62, 51
3, 153888, Note_off_c, 0, 62, 64
3, 153888, Note_on_c, 0, 64, 43
3, 153984, Note_off_c, 0, 64, 64
3, 153984, Note_on_c, 0, 65, 62
3, 154080, Note_off_c, 0, 65, 64
3, 154080, Note_on_c, 0, 64, 54
3, 154176, Note_off_c, 0, 64, 64
3, 154176, Note_on_c, 0, 65, 59
3, 154272, Note_off_c, 0, 65, 64
3, 154272, Note_on_c, 0, 60, 54
3, 154368, Note_off_c, 0, 60, 64
3, 154368, Note_on_c, 0, 62, 56
3, 154464, Note_off_c, 0, 62, 64
3, 154464, Note_on_c, 0, 55, 46
3, 154560, Note_off_c, 0, 55, 64
3, 154560, Note_on_c, 0, 62, 41
3, 154656, Note_off_c, 0, 62, 64
3, 154656, Note_on_c, 0, 59, 45
3, 154752, Note_off_c, 0, 59, 64
3, 154752, Note_on_c, 0, 60, 59
3, 154848, Note_off_c, 0, 60, 64
3, 154848, Note_on_c, 0, 58, 49
3, 154944, Note_off_c, 0, 58, 64
3, 154944, Note_on_c, 0, 57, 41
3, 155040, Note_off_c, 0, 57, 64
3, 155040, Note_on_c, 0, 55, 51
3, 155136, Note_off_c, 0, 55, 64
3, 155136, Note_on_c, 0, 53, 56
3, 155232, Note_off_c, 0, 53, 64
3, 155232, Note_on_c, 0, 57, 51
3, 155328, Note_off_c, 0, 57, 64
3, 155328, Note_on_c, 0, 60, 56
3, 155424, Note_off_c, 0, 60, 64
3, 155424, Note_on_c, 0, 64, 56
3, 155520, Note_off_c, 0, 64, 64
3, 155520, Note_on_c, 0, 65, 67
3, 155616, Note_off_c, 0, 65, 64
3, 155616, Note_on_c, 0, 69, 52
3, 155712, Note_off_c, 0, 69, 64
3, 155712, Note_on_c, 0, 65, 58
3, 155808, Note_off_c, 0, 65, 64
3, 155808, Note_on_c, 0, 69, 43
3, 155904, Note_off_c, 0, 69, 64
3, 155904, Note_on_c, 0, 65, 61
3, 156000, Note_off_c, 0, 65, 64
3, 156000, Note_on_c, 0, 69, 46
3, 156096, Note_off_c, 0, 69, 64
3, 156096, Note_on_c, 0, 65, 52
3, 156192, Note_off_c, 0, 65, 64
3, 156192, Note_on_c, 0, 69, 46
3, 156288, Note_off_c, 0, 69, 64
3, 156288, Note_on_c, 0, 65, 59
3, 156384, Note_off_c, 0, 65, 64
3, 156384, Note_on_c, 0, 69, 45
3, 156480, Note_off_c, 0, 69, 64
3, 156480, Note_on_c, 0, 64, 59
3, 156576, Note_off_c, 0, 64, 64
3, 156576, Note_on_c, 0, 67, 53
3, 156672, Note_off_c, 0, 67, 64
3, 156672, Note_on_c, 0, 62, 53
3, 156768, Note_off_c, 0, 62, 64
3, 156768, Note_on_c, 0, 65, 52
3, 156864, Note_off_c, 0, 65, 64
3, 156864, Note_on_c, 0, 60, 55
3, 156960, Note_off_c, 0, 60, 64
3, 156960, Note_on_c, 0, 64, 51
3, 157056, Note_off_c, 0, 64, 64
3, 157056, Note_on_c, 0, 53, 61
3, 157152, Note_off_c, 0, 53, 64
3, 157152, Note_on_c, 0, 65, 51
3, 157248, Note_off_c, 0, 65, 64
3, 157248, Note_on_c, 0, 55, 64
3, 157344, Note_off_c, 0, 55, 64
3, 157344, Note_on_c, 0, 64, 53
3, 157440, Note_off_c, 0, 64, 64
3, 157440, Note_on_c, 0, 55, 61
3, 157536, Note_off_c, 0, 55, 64
3, 157536, Note_on_c, 0, 64, 47
3, 157632, Note_off_c, 0, 64, 64
3, 157632, Note_on_c, 0, 55, 64
3, 157728, Note_off_c, 0, 55, 64
3, 157728, Note_on_c, 0, 65, 58
3, 157824, Note_off_c, 0, 65, 64
3, 157824, Note_on_c, 0, 60, 58
3, 157824, Note_on_c, 0, 64, 55
3, 158016, Note_off_c, 0, 64, 64
3, 158016, Note_off_c, 0, 60, 64
3, 158304, Note_on_c, 0, 60, 43
3, 158400, Note_off_c, 0, 60, 64
3, 158400, Note_on_c, 0, 64, 37
3, 158496, Note_off_c, 0, 64, 64
3, 158496, Note_on_c, 0, 62, 45
3, 158592, Note_off_c, 0, 62, 64
3, 158592, Note_on_c, 0, 60, 53
3, 158688, Note_off_c, 0, 60, 64
3, 158688, Note_on_c, 0, 64, 44
3, 158784, Note_off_c, 0, 64, 64
3, 158784, Note_on_c, 0, 69, 51
3, 158880, Note_off_c, 0, 69, 64
3, 158880, Note_on_c, 0, 65, 50
3, 158976, Note_off_c, 0, 65, 64
3, 158976, Note_on_c, 0, 64, 50
3, 159072, Note_off_c, 0, 64, 64
3, 159072, Note_on_c, 0, 57, 48
3, 159168, Note_off_c, 0, 57, 64
3, 159168, Note_on_c, 0, 61, 52
3, 159264, Note_off_c, 0, 61, 64
3, 159264, Note_on_c, 0, 57, 43
3, 159360, Note_off_c, 0, 57, 64
3, 159360, Note_on_c, 0, 62, 53
3, 159456, Note_off_c, 0, 62, 64
3, 159456, Note_on_c, 0, 64, 49
3, 159552, Note_off_c, 0, 64, 64
3, 159552, Note_on_c, 0, 65, 56
3, 159648, Note_off_c, 0, 65, 64
3, 159648, Note_on_c, 0, 64, 50
3, 159744, Note_off_c, 0, 64, 64
3, 159744, Note_on_c, 0, 65, 64
3, 159840, Note_off_c, 0, 65, 64
3, 159840, Note_on_c, 0, 64, 52
3, 159936, Note_off_c, 0, 64, 0
3, 159936, Note_on_c, 0, 62, 48
3, 160032, Note_off_c, 0, 62, 64
3, 160032, Note_on_c, 0, 60, 56
3, 160128, Note_off_c, 0, 60, 64
3, 160128, Note_on_c, 0, 59, 53
3, 160224, Note_off_c, 0, 59, 64
3, 160224, Note_on_c, 0, 55, 54
3, 160320, Note_off_c, 0, 55, 64
3, 160320, Note_on_c, 0, 57, 45
3, 160416, Note_off_c, 0, 57, 64
3, 160416, Note_on_c, 0, 59, 51
3, 160512, Note_off_c, 0, 59, 64
3, 160512, Note_on_c, 0, 60, 56
3, 160608, Note_off_c, 0, 60, 64
3, 160608, Note_on_c, 0, 58, 52
3, 160704, Note_off_c, 0, 58, 64
3, 160704, Note_on_c, 0, 57, 49
3, 160800, Note_off_c, 0, 57, 64
3, 160800, Note_on_c, 0, 55, 46
3, 160896, Note_off_c, 0, 55, 64
3, 160896, Note_on_c, 0, 53, 61
3, 160992, Note_off_c, 0, 53, 64
3, 160992, Note_on_c, 0, 64, 50
3, 161088, Note_off_c, 0, 64, 64
3, 161088, Note_on_c, 0, 65, 52
3, 161184, Note_off_c, 0, 65, 64
3, 161184, Note_on_c, 0, 64, 49
3, 161280, Note_off_c, 0, 64, 64
3, 161280, Note_on_c, 0, 65, 60
3, 161376, Note_off_c, 0, 65, 64
3, 161376, Note_on_c, 0, 69, 49
3, 161472, Note_off_c, 0, 69, 64
3, 161472, Note_on_c, 0, 65, 54
3, 161568, Note_off_c, 0, 65, 64
3, 161568, Note_on_c, 0, 69, 49
3, 161664, Note_off_c, 0, 69, 64
3, 161664, Note_on_c, 0, 65, 56
3, 161760, Note_off_c, 0, 65, 64
3, 161760, Note_on_c, 0, 69, 46
3, 161856, Note_off_c, 0, 69, 64
3, 161856, Note_on_c, 0, 64, 54
3, 161952, Note_off_c, 0, 64, 64
3, 161952, Note_on_c, 0, 67, 38
3, 162048, Note_off_c, 0, 67, 64
3, 162048, Note_on_c, 0, 62, 56
3, 162144, Note_off_c, 0, 62, 64
3, 162144, Note_on_c, 0, 65, 46
3, 162240, Note_off_c, 0, 65, 64
3, 162240, Note_on_c, 0, 60, 59
3, 162336, Note_off_c, 0, 60, 64
3, 162336, Note_on_c, 0, 64, 46
3, 162432, Note_off_c, 0, 64, 64
3, 162432, Note_on_c, 0, 59, 53
3, 162528, Note_off_c, 0, 59, 64
3, 162528, Note_on_c, 0, 62, 42
3, 162624, Note_off_c, 0, 62, 64
3, 162624, Note_on_c, 0, 57, 51
3, 162720, Note_off_c, 0, 57, 64
3, 162720, Note_on_c, 0, 60, 55
3, 162816, Note_off_c, 0, 60, 64
3, 162816, Note_on_c, 0, 55, 49
3, 162816, Note_on_c, 0, 59, 48
3, 163008, Note_off_c, 0, 59, 64
3, 163008, Note_off_c, 0, 55, 64
3, 163200, Note_on_c, 0, 47, 88
3, 163200, Note_on_c, 0, 53, 88
3, 163200, Note_on_c, 0, 57, 88
3, 163392, Note_off_c, 0, 57, 64
3, 163392, Note_off_c, 0, 53, 64
3, 163392, Note_off_c, 0, 47, 64
3, 163968, Note_on_c, 0, 43, 55
3, 163968, Note_on_c, 0, 50, 55
3, 163968, Note_on_c, 0, 53, 55
3, 164544, Note_off_c, 0, 53, 64
3, 164544, Note_off_c, 0, 50, 64
3, 164544, Note_off_c, 0, 43, 64
3, 164736, Note_on_c, 0, 48, 39
3, 164736, Note_on_c, 0, 52, 40
3, 164832, Note_off_c, 0, 52, 64
3, 164832, Note_off_c, 0, 48, 64
3, 164832, Note_on_c, 0, 43, 37
3, 164928, Note_off_c, 0, 43, 64
3, 164928, Note_on_c, 0, 48, 39
3, 164928, Note_on_c, 0, 52, 32
3, 165024, Note_off_c, 0, 52, 64
3, 165024, Note_off_c, 0, 48, 64
3, 165024, Note_on_c, 0, 43, 36
3, 165120, Note_off_c, 0, 43, 64
3, 165120, Note_on_c, 0, 48, 42
3, 165120, Note_on_c, 0, 52, 35
3, 165216, Note_off_c, 0, 52, 64
3, 165216, Note_off_c, 0, 48, 64
3, 165216, Note_on_c, 0, 43, 40
3, 165312, Note_off_c, 0, 43, 64
3, 165312, Note_on_c, 0, 48, 42
3, 165312, Note_on_c, 0, 52, 37
3, 165408, Note_off_c, 0, 52, 64
3, 165408, Note_off_c, 0, 48, 64
3, 165408, Note_on_c, 0, 43, 41
3, 165504, Note_off_c, 0, 43, 64
3, 165504, Note_on_c, 0, 48, 43
3, 165504, Note_on_c, 0, 52, 40
3, 165600, Note_off_c, 0, 52, 64
3, 165600, Note_off_c, 0, 48, 64
3, 165600, Note_on_c, 0, 43, 40
3, 165696, Note_off_c, 0, 43, 64
3, 165696, Note_on_c, 0, 48, 42
3, 165696, Note_on_c, 0, 52, 37
3, 165792, Note_off_c, 0, 52, 64
3, 165792, Note_off_c, 0, 48, 64
3, 165792, Note_on_c, 0, 43, 43
3, 165888, Note_off_c, 0, 43, 64
3, 165888, Note_on_c, 0, 51, 53
3, 165888, Note_on_c, 0, 54, 31
3, 165984, Note_off_c, 0, 54, 64
3, 165984, Note_off_c, 0, 51, 64
3, 165984, Note_on_c, 0, 43, 41
3, 166080, Note_off_c, 0, 43, 64
3, 166080, Note_on_c, 0, 51, 45
3, 166080, Note_on_c, 0, 54, 30
3, 166176, Note_off_c, 0, 54, 64
3, 166176, Note_off_c, 0, 51, 64
3, 166176, Note_on_c, 0, 43, 41
3, 166272, Note_off_c, 0, 43, 64
3, 166272, Note_on_c, 0, 52, 49
3, 166272, Note_on_c, 0, 55, 39
3, 166368, Note_off_c, 0, 55, 64
3, 166368, Note_off_c, 0, 52, 64
3, 166368, Note_on_c, 0, 43, 36
3, 166464, Note_off_c, 0, 43, 64
3, 166464, Note_on_c, 0, 52, 45
3, 166464, Note_on_c, 0, 55, 38
3, 166560, Note_off_c, 0, 55, 64
3, 166560, Note_off_c, 0, 52, 64
3, 166560, Note_on_c, 0, 43, 34
3, 166656, Note_off_c, 0, 43, 64
3, 166656, Note_on_c, 0, 48, 46
3, 166656, Note_on_c, 0, 52, 42
3, 166752, Note_off_c, 0, 52, 64
3, 166752, Note_off_c, 0, 48, 64
3, 166752, Note_on_c, 0, 43, 43
3, 166848, Note_off_c, 0, 43, 64
3, 166848, Note_on_c, 0, 48, 43
3, 166848, Note_on_c, 0, 52, 40
3, 166944, Note_off_c, 0, 52, 64
3, 166944, Note_off_c, 0, 48, 64
3, 166944, Note_on_c, 0, 43, 42
3, 167040, Note_off_c, 0, 43, 64
3, 167040, Note_on_c, 0, 50, 51
3, 167040, Note_on_c, 0, 53, 49
3, 167136, Note_off_c, 0, 53, 64
3, 167136, Note_off_c, 0, 50, 64
3, 167136, Note_on_c, 0, 43, 46
3, 167232, Note_off_c, 0, 43, 64
3, 167232, Note_on_c, 0, 51, 53
3, 167232, Note_on_c, 0, 54, 43
3, 167328, Note_off_c, 0, 54, 64
3, 167328, Note_off_c, 0, 51, 64
3, 167328, Note_on_c, 0, 43, 45
3, 167424, Note_off_c, 0, 43, 64
3, 167424, Note_on_c, 0, 52, 51
3, 167424, Note_on_c, 0, 55, 48
3, 167520, Note_off_c, 0, 55, 64
3, 167520, Note_off_c, 0, 52, 64
3, 167520, Note_on_c, 0, 43, 39
3, 167616, Note_off_c, 0, 43, 64
3, 167616, Note_on_c, 0, 52, 46
3, 167616, Note_on_c, 0, 55, 42
3, 167712, Note_off_c, 0, 55, 64
3, 167712, Note_off_c, 0, 52, 64
3, 167712, Note_on_c, 0, 43, 33
3, 167808, Note_off_c, 0, 43, 64
3, 167808, Note_on_c, 0, 48, 46
3, 167808, Note_on_c, 0, 52, 43
3, 167904, Note_off_c, 0, 52, 64
3, 167904, Note_off_c, 0, 48, 64
3, 167904, Note_on_c, 0, 43, 36
3, 168000, Note_off_c, 0, 43, 64
3, 168000, Note_on_c, 0, 48, 46
3, 168000, Note_on_c, 0, 52, 37
3, 168096, Note_off_c, 0, 52, 64
3, 168096, Note_off_c, 0, 48, 64
3, 168096, Note_on_c, 0, 43, 43
3, 168192, Note_off_c, 0, 43, 64
3, 168192, Note_on_c, 0, 50, 49
3, 168192, Note_on_c, 0, 53, 45
3, 168288, Note_off_c, 0, 53, 64
3, 168288, Note_off_c, 0, 50, 64
3, 168288, Note_on_c, 0, 43, 38
3, 168384, Note_off_c, 0, 43, 64
3, 168384, Note_on_c, 0, 50, 47
3, 168384, Note_on_c, 0, 53, 43
3, 168480, Note_off_c, 0, 53, 64
3, 168480, Note_off_c, 0, 50, 64
3, 168480, Note_on_c, 0, 43, 41
3, 168576, Note_off_c, 0, 43, 64
3, 168576, Note_on_c, 0, 50, 46
3, 168576, Note_on_c, 0, 53, 40
3, 168672, Note_off_c, 0, 53, 64
3, 168672, Note_off_c, 0, 50, 64
3, 168672, Note_on_c, 0, 43, 39
3, 168768, Note_off_c, 0, 43, 64
3, 168768, Note_on_c, 0, 50, 49
3, 168768, Note_on_c, 0, 53, 43
3, 168864, Note_off_c, 0, 53, 64
3, 168864, Note_off_c, 0, 50, 64
3, 168864, Note_on_c, 0, 43, 44
3, 168960, Note_off_c, 0, 43, 64
3, 168960, Note_on_c, 0, 50, 46
3, 168960, Note_on_c, 0, 53, 41
3, 169056, Note_off_c, 0, 53, 64
3, 169056, Note_off_c, 0, 50, 64
3, 169056, Note_on_c, 0, 43, 43
3, 169152, Note_off_c, 0, 43, 64
3, 169152, Note_on_c, 0, 50, 44
3, 169152, Note_on_c, 0, 53, 40
3, 169248, Note_off_c, 0, 53, 64
3, 169248, Note_off_c, 0, 50, 64
3, 169248, Note_on_c, 0, 43, 43
3, 169344, Note_off_c, 0, 43, 64
3, 169344, Note_on_c, 0, 50, 48
3, 169344, Note_on_c, 0, 53, 43
3, 169440, Note_off_c, 0, 53, 64
3, 169440, Note_off_c, 0, 50, 64
3, 169440, Note_on_c, 0, 43, 41
3, 169536, Note_off_c, 0, 43, 64
3, 169536, Note_on_c, 0, 50, 46
3, 169536, Note_on_c, 0, 53, 41
3, 169632, Note_off_c, 0, 53, 64
3, 169632, Note_off_c, 0, 50, 64
3, 169632, Note_on_c, 0, 43, 42
3, 169728, Note_off_c, 0, 43, 64
3, 169728, Note_on_c, 0, 52, 51
3, 169728, Note_on_c, 0, 55, 41
3, 169824, Note_off_c, 0, 55, 64
3, 169824, Note_off_c, 0, 52, 64
3, 169824, Note_on_c, 0, 48, 50
3, 169920, Note_off_c, 0, 48, 64
3, 169920, Note_on_c, 0, 52, 43
3, 169920, Note_on_c, 0, 55, 36
3, 170016, Note_off_c, 0, 55, 64
3, 170016, Note_off_c, 0, 52, 64
3, 170016, Note_on_c, 0, 48, 44
3, 170112, Note_off_c, 0, 48, 64
3, 170112, Note_on_c, 0, 52, 38
3, 170112, Note_on_c, 0, 55, 35
3, 170208, Note_off_c, 0, 55, 64
3, 170208, Note_off_c, 0, 52, 64
3, 170208, Note_on_c, 0, 48, 46
3, 170304, Note_off_c, 0, 48, 64
3, 170304, Note_on_c, 0, 52, 44
3, 170304, Note_on_c, 0, 55, 38
3, 170400, Note_off_c, 0, 55, 64
3, 170400, Note_off_c, 0, 52, 64
3, 170400, Note_on_c, 0, 48, 48
3, 170496, Note_off_c, 0, 48, 64
3, 170496, Note_on_c, 0, 52, 48
3, 170496, Note_on_c, 0, 55, 41
3, 170592, Note_off_c, 0, 55, 64
3, 170592, Note_off_c, 0, 52, 64
3, 170592, Note_on_c, 0, 47, 46
3, 170688, Note_off_c, 0, 47, 64
3, 170688, Note_on_c, 0, 52, 46
3, 170688, Note_on_c, 0, 55, 39
3, 170784, Note_off_c, 0, 55, 64
3, 170784, Note_off_c, 0, 52, 64
3, 170784, Note_on_c, 0, 47, 46
3, 170880, Note_off_c, 0, 47, 64
3, 170880, Note_on_c, 0, 52, 46
3, 170880, Note_on_c, 0, 55, 34
3, 170976, Note_off_c, 0, 55, 64
3, 170976, Note_off_c, 0, 52, 64
3, 170976, Note_on_c, 0, 47, 48
3, 171072, Note_off_c, 0, 47, 64
3, 171072, Note_on_c, 0, 52, 43
3, 171072, Note_on_c, 0, 55, 43
3, 171168, Note_off_c, 0, 55, 64
3, 171168, Note_off_c, 0, 52, 64
3, 171168, Note_on_c, 0, 47, 46
3, 171264, Note_off_c, 0, 47, 64
3, 171264, Note_on_c, 0, 59, 52
3, 171360, Note_off_c, 0, 59, 64
3, 171360, Note_on_c, 0, 47, 49
3, 171456, Note_off_c, 0, 47, 64
3, 171456, Note_on_c, 0, 59, 47
3, 171552, Note_off_c, 0, 59, 64
3, 171552, Note_on_c, 0, 47, 53
3, 171648, Note_off_c, 0, 47, 64
3, 171648, Note_on_c, 0, 64, 74
3, 172032, Note_off_c, 0, 64, 64
3, 172032, Note_on_c, 0, 56, 70
3, 172032, Note_on_c, 0, 59, 70
3, 172608, Note_off_c, 0, 59, 64
3, 172608, Note_off_c, 0, 56, 64
3, 172608, Note_on_c, 0, 56, 64
3, 172800, Note_off_c, 0, 56, 64
3, 172800, Note_on_c, 0, 57, 59
3, 172848, Note_off_c, 0, 57, 64
3, 172848, Note_on_c, 0, 59, 64
3, 172896, Note_off_c, 0, 59, 64
3, 172896, Note_on_c, 0, 57, 68
3, 172944, Note_off_c, 0, 57, 64
3, 172944, Note_on_c, 0, 56, 72
3, 172968, Note_off_c, 0, 56, 64
3, 172968, Note_on_c, 0, 57, 80
3, 172992, Note_off_c, 0, 57, 64
3, 172992, Note_on_c, 0, 59, 90
3, 173088, Note_off_c, 0, 59, 64
3, 173088, Note_on_c, 0, 61, 84
3, 173184, Note_off_c, 0, 61, 64
3, 173184, Note_on_c, 0, 58, 82
3, 173952, Note_off_c, 0, 58, 64
3, 173952, Note_on_c, 0, 58, 50
3, 174144, Note_off_c, 0, 58, 64
3, 174336, Note_on_c, 0, 57, 53
3, 174528, Note_off_c, 0, 57, 64
3, 174720, Note_on_c, 0, 55, 59
3, 174912, Note_off_c, 0, 55, 64
3, 175104, Note_on_c, 0, 53, 59
3, 175296, Note_off_c, 0, 53, 64
3, 175488, Note_on_c, 0, 52, 64
3, 175488, Note_on_c, 0, 55, 64
3, 175680, Note_off_c, 0, 55, 64
3, 175680, Note_off_c, 0, 52, 64
3, 175872, Note_on_c, 0, 50, 61
3, 175872, Note_on_c, 0, 53, 61
3, 176064, Note_off_c, 0, 53, 64
3, 176064, Note_off_c, 0, 50, 64
3, 176256, Note_on_c, 0, 49, 66
3, 176256, Note_on_c, 0, 52, 66
3, 176640, Note_off_c, 0, 52, 64
3, 176640, Note_off_c, 0, 49, 64
3, 176832, Note_on_c, 0, 61, 61
3, 176832, Note_on_c, 0, 64, 61
3, 176832, Note_on_c, 0, 69, 61
3, 176928, Note_off_c, 0, 69, 64
3, 176928, Note_off_c, 0, 64, 64
3, 176928, Note_off_c, 0, 61, 64
3, 176928, Note_on_c, 0, 61, 59
3, 176928, Note_on_c, 0, 64, 59
3, 176928, Note_on_c, 0, 69, 59
3, 177024, Note_off_c, 0, 69, 64
3, 177024, Note_off_c, 0, 64, 64
3, 177024, Note_off_c, 0, 61, 64
3, 177024, Note_on_c, 0, 62, 55
3, 177024, Note_on_c, 0, 65, 55
3, 177024, Note_on_c, 0, 69, 55
3, 177216, Note_off_c, 0, 69, 64
3, 177216, Note_off_c, 0, 65, 64
3, 177216, Note_off_c, 0, 62, 64
3, 177216, Note_on_c, 0, 62, 53
3, 177216, Note_on_c, 0, 65, 53
3, 177216, Note_on_c, 0, 69, 53
3, 177408, Note_off_c, 0, 69, 64
3, 177408, Note_off_c, 0, 65, 64
3, 177408, Note_off_c, 0, 62, 64
3, 177408, Note_on_c, 0, 59, 64
3, 177408, Note_on_c, 0, 62, 64
3, 177408, Note_on_c, 0, 67, 64
3, 177792, Note_off_c, 0, 67, 64
3, 177792, Note_off_c, 0, 62, 64
3, 177792, Note_off_c, 0, 59, 64
3, 177984, Note_on_c, 0, 59, 59
3, 177984, Note_on_c, 0, 62, 59
3, 177984, Note_on_c, 0, 67, 59
3, 178080, Note_off_c, 0, 67, 64
3, 178080, Note_off_c, 0, 62, 64
3, 178080, Note_off_c, 0, 59, 64
3, 178080, Note_on_c, 0, 59, 59
3, 178080, Note_on_c, 0, 62, 59
3, 178080, Note_on_c, 0, 67, 59
3, 178176, Note_off_c, 0, 67, 64
3, 178176, Note_off_c, 0, 62, 64
3, 178176, Note_off_c, 0, 59, 64
3, 178176, Note_on_c, 0, 60, 55
3, 178176, Note_on_c, 0, 64, 55
3, 178176, Note_on_c, 0, 67, 55
3, 178368, Note_off_c, 0, 67, 64
3, 178368, Note_off_c, 0, 64, 64
3, 178368, Note_off_c, 0, 60, 64
3, 178368, Note_on_c, 0, 64, 53
3, 178464, Note_off_c, 0, 64, 64
3, 178464, Note_on_c, 0, 67, 53
3, 178560, Note_off_c, 0, 67, 64
3, 178560, Note_on_c, 0, 60, 48
3, 178656, Note_off_c, 0, 60, 64
3, 178656, Note_on_c, 0, 59, 53
3, 178752, Note_off_c, 0, 59, 64
3, 178752, Note_on_c, 0, 60, 54
3, 178848, Note_off_c, 0, 60, 64
3, 178848, Note_on_c, 0, 64, 46
3, 178944, Note_off_c, 0, 64, 64
3, 178944, Note_on_c, 0, 55, 58
3, 179040, Note_off_c, 0, 55, 64
3, 179040, Note_on_c, 0, 54, 49
3, 179136, Note_off_c, 0, 54, 64
3, 179136, Note_on_c, 0, 55, 55
3, 179232, Note_off_c, 0, 55, 64
3, 179232, Note_on_c, 0, 60, 58
3, 179328, Note_off_c, 0, 60, 64
3, 179328, Note_on_c, 0, 52, 55
3, 179424, Note_off_c, 0, 52, 64
3, 179424, Note_on_c, 0, 51, 59
3, 179520, Note_off_c, 0, 51, 64
3, 179520, Note_on_c, 0, 52, 56
3, 179616, Note_off_c, 0, 52, 64
3, 179616, Note_on_c, 0, 55, 53
3, 179712, Note_off_c, 0, 55, 64
3, 179712, Note_on_c, 0, 48, 57
3, 179808, Note_off_c, 0, 48, 64
3, 179808, Note_on_c, 0, 47, 53
3, 179904, Note_off_c, 0, 47, 64
3, 179904, Note_on_c, 0, 48, 58
3, 180000, Note_off_c, 0, 48, 64
3, 180000, Note_on_c, 0, 52, 52
3, 180096, Note_off_c, 0, 52, 64
3, 180096, Note_on_c, 0, 43, 57
3, 180192, Note_off_c, 0, 43, 64
3, 180192, Note_on_c, 0, 42, 53
3, 180288, Note_off_c, 0, 42, 64
3, 180288, Note_on_c, 0, 43, 55
3, 180384, Note_off_c, 0, 43, 64
3, 180384, Note_on_c, 0, 48, 56
3, 180480, Note_off_c, 0, 48, 64
3, 180480, Note_on_c, 0, 40, 59
3, 180576, Note_off_c, 0, 40, 64
3, 180576, Note_on_c, 0, 39, 53
3, 180672, Note_off_c, 0, 39, 64
3, 180672, Note_on_c, 0, 40, 60
3, 180768, Note_off_c, 0, 40, 64
3, 180768, Note_on_c, 0, 43, 52
3, 180864, Note_off_c, 0, 43, 64
3, 180864, Note_on_c, 0, 36, 41
3, 180928, Note_off_c, 0, 36, 64
3, 180928, Note_on_c, 0, 47, 49
3, 180992, Note_off_c, 0, 47, 64
3, 180992, Note_on_c, 0, 48, 56
3, 181056, Note_off_c, 0, 48, 64
3, 181056, Note_on_c, 0, 50, 53
3, 181120, Note_off_c, 0, 50, 64
3, 181120, Note_on_c, 0, 52, 51
3, 181184, Note_off_c, 0, 52, 64
3, 181184, Note_on_c, 0, 53, 54
3, 181248, Note_off_c, 0, 53, 64
3, 181248, Note_on_c, 0, 55, 52
3, 181312, Note_off_c, 0, 55, 64
3, 181312, Note_on_c, 0, 57, 50
3, 181376, Note_off_c, 0, 57, 64
3, 181376, Note_on_c, 0, 59, 53
3, 181440, Note_off_c, 0, 59, 64
3, 181440, Note_on_c, 0, 60, 57
3, 181504, Note_off_c, 0, 60, 64
3, 181504, Note_on_c, 0, 62, 53
3, 181568, Note_off_c, 0, 62, 64
3, 181568, Note_on_c, 0, 64, 53
3, 181632, Note_off_c, 0, 64, 64
3, 181632, Note_on_c, 0, 65, 59
3, 181696, Note_off_c, 0, 65, 64
3, 181696, Note_on_c, 0, 67, 60
3, 181760, Note_off_c, 0, 67, 64
3, 181760, Note_on_c, 0, 69, 56
3, 181824, Note_off_c, 0, 69, 64
3, 181824, Note_on_c, 0, 71, 68
3, 181862, Note_off_c, 0, 71, 64
3, 181862, Note_on_c, 0, 72, 70
3, 181900, Note_off_c, 0, 72, 64
3, 181900, Note_on_c, 0, 74, 72
3, 181938, Note_off_c, 0, 74, 64
3, 181939, Note_on_c, 0, 76, 74
3, 181977, Note_off_c, 0, 76, 64
3, 181977, Note_on_c, 0, 77, 76
3, 182015, Note_off_c, 0, 77, 64
3, 182016, Note_on_c, 0, 64, 92
3, 182016, Note_on_c, 0, 67, 92
3, 182016, Note_on_c, 0, 70, 92
3, 182208, Note_off_c, 0, 70, 64
3, 182208, Note_off_c, 0, 67, 64
3, 182208, Note_off_c, 0, 64, 64
3, 182400, Note_on_c, 0, 65, 72
3, 182400, Note_on_c, 0, 69, 72
3, 182592, Note_off_c, 0, 69, 64
3, 182592, Note_off_c, 0, 65, 64
3, 183168, Note_on_c, 0, 53, 46
3, 183168, Note_on_c, 0, 65, 44
3, 183552, Note_off_c, 0, 65, 64
3, 183552, Note_off_c, 0, 53, 64
3, 183552, Note_on_c, 0, 55, 51
3, 183552, Note_on_c, 0, 64, 41
3, 183936, Note_off_c, 0, 64, 64
3, 183936, Note_off_c, 0, 55, 64
3, 183936, Note_on_c, 0, 53, 36
3, 183936, Note_on_c, 0, 59, 47
3, 183936, Note_on_c, 0, 62, 34
3, 184320, Note_off_c, 0, 62, 64
3, 184320, Note_off_c, 0, 59, 64
3, 184320, Note_off_c, 0, 53, 64
3, 184320, Note_on_c, 0, 53, 47
3, 184320, Note_on_c, 0, 59, 47
3, 184320, Note_on_c, 0, 62, 47
3, 184704, Note_off_c, 0, 62, 64
3, 184704, Note_off_c, 0, 59, 64
3, 184704, Note_off_c, 0, 53, 64
3, 184704, Note_on_c, 0, 52, 66
3, 184704, Note_on_c, 0, 60, 66
3, 184896, Note_off_c, 0, 60, 64
3, 184896, Note_off_c, 0, 52, 64
3, 185472, Note_on_c, 0, 53, 44
3, 185472, Note_on_c, 0, 65, 45
3, 185664, Note_off_c, 0, 65, 64
3, 185664, Note_off_c, 0, 53, 64
3, 185664, Note_on_c, 0, 53, 51
3, 185664, Note_on_c, 0, 65, 46
3, 185856, Note_off_c, 0, 65, 64
3, 185856, Note_off_c, 0, 53, 64
3, 185856, Note_on_c, 0, 55, 52
3, 185856, Note_on_c, 0, 64, 44
3, 186048, Note_off_c, 0, 64, 64
3, 186048, Note_off_c, 0, 55, 64
3, 186048, Note_on_c, 0, 55, 48
3, 186048, Note_on_c, 0, 64, 41
3, 186240, Note_off_c, 0, 64, 64
3, 186240, Note_off_c, 0, 55, 64
3, 186240, Note_on_c, 0, 55, 42
3, 186240, Note_on_c, 0, 62, 45
3, 186240, Note_on_c, 0, 65, 39
3, 186432, Note_off_c, 0, 65, 64
3, 186432, Note_off_c, 0, 62, 64
3, 186432, Note_off_c, 0, 55, 64
3, 186432, Note_on_c, 0, 55, 42
3, 186432, Note_on_c, 0, 62, 44
3, 186432, Note_on_c, 0, 65, 40
3, 186624, Note_off_c, 0, 65, 64
3, 186624, Note_off_c, 0, 62, 64
3, 186624, Note_off_c, 0, 55, 64
3, 186624, Control_c, 0, 64, 127
3, 186624, Note_on_c, 0, 36, 55
3, 187008, Note_off_c, 0, 36, 64
3, 187200, Note_on_c, 0, 67, 54
3, 187392, Note_on_c, 0, 60, 56
3, 187520, Note_off_c, 0, 67, 64
3, 187584, Note_off_c, 0, 60, 64
3, 187776, Note_on_c, 0, 36, 49
3, 187968, Note_off_c, 0, 36, 64
3, 188352, Note_on_c, 0, 72, 50
3, 188544, Note_on_c, 0, 64, 51
3, 188672, Note_off_c, 0, 72, 64
3, 188736, Note_off_c, 0, 64, 64
3, 188928, Note_on_c, 0, 36, 50
3, 189120, Note_off_c, 0, 36, 64
3, 189504, Note_on_c, 0, 76, 56
3, 189696, Note_on_c, 0, 67, 55
3, 189792, Note_off_c, 0, 76, 64
3, 189888, Note_off_c, 0, 67, 64
3, 190080, Control_c, 0, 64, 0
3, 190272, Note_on_c, 0, 52, 55
3, 190464, Note_on_c, 0, 43, 47
3, 190560, Note_off_c, 0, 52, 64
3, 190656, Note_off_c, 0, 43, 64
3, 190656, Note_on_c, 0, 53, 64
3, 190848, Note_on_c, 0, 43, 57
3, 190944, Note_off_c, 0, 53, 64
3, 191040, Note_off_c, 0, 43, 64
3, 191040, Note_on_c, 0, 54, 74
3, 191232, Note_on_c, 0, 43, 59
3, 191360, Note_off_c, 0, 54, 64
3, 191424, Note_off_c, 0, 43, 64
3, 191424, Note_on_c, 0, 55, 82
3, 191616, Note_on_c, 0, 43, 68
3, 191712, Note_off_c, 0, 55, 64
3, 191808, Note_off_c, 0, 43, 64
3, 191808, Note_on_c, 0, 60, 90
3, 192000, Note_on_c, 0, 48, 74
3, 192096, Note_off_c, 0, 60, 64
3, 192192, Note_off_c, 0, 48, 64
3, 192192, Note_on_c, 0, 64, 90
3, 192384, Note_on_c, 0, 52, 78
3, 192512, Note_off_c, 0, 64, 64
3, 192576, Note_off_c, 0, 52, 64
3, 192576, Note_on_c, 0, 67, 94
3, 192768, Note_on_c, 0, 55, 82
3, 192896, Note_off_c, 0, 67, 64
3, 192960, Note_off_c, 0, 55, 64
3, 192960, Note_on_c, 0, 72, 94
3, 193152, Note_off_c, 0, 72, 64
3, 193152, Note_on_c, 0, 60, 84
3, 193344, Note_off_c, 0, 60, 64
3, 193344, Note_on_c, 0, 84, 69
3, 193536, Note_off_c, 0, 84, 64
3, 193536, Note_on_c, 0, 83, 76
3, 193584, Note_off_c, 0, 83, 64
3, 193584, Note_on_c, 0, 84, 68
3, 193632, Note_off_c, 0, 84, 64
3, 193632, Note_on_c, 0, 83, 68
3, 193680, Note_off_c, 0, 83, 64
3, 193680, Note_on_c, 0, 84, 66
3, 193728, Note_off_c, 0, 84, 64
3, 193728, Note_on_c, 0, 83, 64
3, 193776, Note_off_c, 0, 83, 64
3, 193776, Note_on_c, 0, 84, 61
3, 193824, Note_off_c, 0, 84, 64
3, 193824, Note_on_c, 0, 83, 61
3, 193872, Note_off_c, 0, 83, 64
3, 193872, Note_on_c, 0, 84, 61
3, 193920, Note_off_c, 0, 84, 64
3, 193920, Note_on_c, 0, 83, 60
3, 193968, Note_off_c, 0, 83, 64
3, 193968, Note_on_c, 0, 84, 59
3, 194016, Note_off_c, 0, 84, 64
3, 194016, Note_on_c, 0, 83, 59
3, 194064, Note_off_c, 0, 83, 64
3, 194064, Note_on_c, 0, 84, 59
3, 194112, Note_off_c, 0, 84, 64
3, 194112, Note_on_c, 0, 83, 59
3, 194160, Note_off_c, 0, 83, 64
3, 194160, Note_on_c, 0, 84, 59
3, 194208, Note_off_c, 0, 84, 64
3, 194208, Note_on_c, 0, 83, 59
3, 194256, Note_off_c, 0, 83, 64
3, 194256, Note_on_c, 0, 84, 55
3, 194304, Note_off_c, 0, 84, 64
3, 194304, Note_on_c, 0, 83, 51
3, 194352, Note_off_c, 0, 83, 64
3, 194352, Note_on_c, 0, 84, 51
3, 194400, Note_off_c, 0, 84, 64
3, 194400, Note_on_c, 0, 83, 51
3, 194448, Note_off_c, 0, 83, 64
3, 194448, Note_on_c, 0, 84, 51
3, 194496, Note_off_c, 0, 84, 64
3, 194496, Note_on_c, 0, 83, 49
3, 194544, Note_off_c, 0, 83, 64
3, 194544, Note_on_c, 0, 84, 49
3, 194592, Note_off_c, 0, 84, 64
3, 194592, Note_on_c, 0, 81, 49
3, 194640, Note_off_c, 0, 81, 64
3, 194640, Note_on_c, 0, 83, 49
3, 194688, Note_off_c, 0, 83, 64
3, 194688, Note_on_c, 0, 84, 49
3, 194880, Note_on_c, 0, 83, 61
3, 194952, Note_off_c, 0, 84, 64
3, 195012, Note_off_c, 0, 83, 64
3, 195072, Note_on_c, 0, 81, 55
3, 195204, Note_off_c, 0, 81, 64
3, 195264, Note_on_c, 0, 79, 59
3, 195396, Note_off_c, 0, 79, 64
3, 195456, Note_on_c, 0, 77, 56
3, 195588, Note_off_c, 0, 77, 64
3, 195648, Note_on_c, 0, 76, 50
3, 195780, Note_off_c, 0, 76, 64
3, 195840, Note_on_c, 0, 74, 55
3, 195972, Note_off_c, 0, 74, 64
3, 196032, Note_on_c, 0, 72, 53
3, 196608, Note_off_c, 0, 72, 64
3, 196608, Note_on_c, 0, 55, 50
3, 196800, Note_off_c, 0, 55, 64
3, 196800, Note_on_c, 0, 62, 33
3, 196800, Note_on_c, 0, 65, 33
3, 196800, Note_on_c, 0, 67, 34
3, 196878, Note_off_c, 0, 67, 64
3, 196878, Note_off_c, 0, 65, 64
3, 196878, Note_off_c, 0, 62, 64
3, 196896, Note_on_c, 0, 62, 29
3, 196896, Note_on_c, 0, 65, 35
3, 196896, Note_on_c, 0, 67, 37
3, 196974, Note_off_c, 0, 67, 64
3, 196974, Note_off_c, 0, 65, 64
3, 196974, Note_off_c, 0, 62, 64
3, 196992, Note_on_c, 0, 62, 35
3, 196992, Note_on_c, 0, 65, 38
3, 196992, Note_on_c, 0, 67, 38
3, 197088, Note_off_c, 0, 67, 64
3, 197088, Note_off_c, 0, 65, 64
3, 197088, Note_off_c, 0, 62, 64
3, 197184, Note_on_c, 0, 62, 32
3, 197184, Note_on_c, 0, 65, 37
3, 197184, Note_on_c, 0, 67, 39
3, 197280, Note_off_c, 0, 67, 64
3, 197280, Note_off_c, 0, 65, 64
3, 197280, Note_off_c, 0, 62, 64
3, 197376, Note_on_c, 0, 60, 34
3, 197376, Note_on_c, 0, 64, 38
3, 197376, Note_on_c, 0, 67, 44
3, 197472, Note_off_c, 0, 67, 64
3, 197472, Note_off_c, 0, 64, 64
3, 197472, Note_off_c, 0, 60, 64
3, 197568, Note_on_c, 0, 60, 42
3, 197568, Note_on_c, 0, 64, 39
3, 197568, Note_on_c, 0, 67, 43
3, 197664, Note_off_c, 0, 67, 64
3, 197664, Note_off_c, 0, 64, 64
3, 197664, Note_off_c, 0, 60, 64
3, 197760, Note_on_c, 0, 55, 57
3, 197952, Note_off_c, 0, 55, 64
3, 197952, Note_on_c, 0, 59, 33
3, 197952, Note_on_c, 0, 62, 38
3, 197952, Note_on_c, 0, 67, 42
3, 198030, Note_off_c, 0, 67, 64
3, 198030, Note_off_c, 0, 62, 64
3, 198030, Note_off_c, 0, 59, 64
3, 198048, Note_on_c, 0, 59, 33
3, 198048, Note_on_c, 0, 62, 36
3, 198048, Note_on_c, 0, 67, 41
3, 198126, Note_off_c, 0, 67, 64
3, 198126, Note_off_c, 0, 62, 64
3, 198126, Note_off_c, 0, 59, 64
3, 198144, Note_on_c, 0, 59, 35
3, 198144, Note_on_c, 0, 62, 39
3, 198144, Note_on_c, 0, 67, 44
3, 198318, Note_off_c, 0, 67, 64
3, 198318, Note_off_c, 0, 62, 64
3, 198318, Note_off_c, 0, 59, 64
3, 198336, Note_on_c, 0, 59, 32
3, 198336, Note_on_c, 0, 62, 35
3, 198336, Note_on_c, 0, 67, 39
3, 198510, Note_off_c, 0, 67, 64
3, 198528, Note_off_c, 0, 62, 64
3, 198528, Note_off_c, 0, 59, 64
3, 198528, Note_on_c, 0, 60, 37
3, 198528, Note_on_c, 0, 64, 36
3, 198528, Note_on_c, 0, 67, 37
3, 198702, Note_off_c, 0, 67, 64
3, 198702, Note_off_c, 0, 64, 64
3, 198702, Note_off_c, 0, 60, 64
3, 198720, Note_on_c, 0, 60, 39
3, 198720, Note_on_c, 0, 64, 36
3, 198720, Note_on_c, 0, 67, 40
3, 198912, Note_off_c, 0, 67, 64
3, 198912, Note_off_c, 0, 64, 64
3, 198912, Note_off_c, 0, 60, 64
3, 198912, Note_on_c, 0, 55, 60
3, 199104, Note_off_c, 0, 55, 64
3, 199104, Note_on_c, 0, 62, 55
3, 199104, Note_on_c, 0, 65, 55
3, 199104, Note_on_c, 0, 67, 55
3, 199182, Note_off_c, 0, 67, 64
3, 199182, Note_off_c, 0, 65, 64
3, 199182, Note_off_c, 0, 62, 64
3, 199200, Note_on_c, 0, 62, 53
3, 199200, Note_on_c, 0, 65, 53
3, 199200, Note_on_c, 0, 67, 53
3, 199278, Note_off_c, 0, 67, 64
3, 199278, Note_off_c, 0, 65, 64
3, 199278, Note_off_c, 0, 62, 64
3, 199296, Note_on_c, 0, 62, 61
3, 199296, Note_on_c, 0, 65, 61
3, 199296, Note_on_c, 0, 67, 61
3, 199470, Note_off_c, 0, 67, 64
3, 199470, Note_off_c, 0, 65, 64
3, 199470, Note_off_c, 0, 62, 64
3, 199488, Note_on_c, 0, 62, 70
3, 199488, Note_on_c, 0, 65, 70
3, 199488, Note_on_c, 0, 67, 70
3, 199662, Note_off_c, 0, 67, 64
3, 199680, Note_off_c, 0, 65, 64
3, 199680, Note_off_c, 0, 62, 64
3, 199680, Note_on_c, 0, 60, 72
3, 199680, Note_on_c, 0, 64, 72
3, 199680, Note_on_c, 0, 67, 72
3, 199854, Note_off_c, 0, 67, 64
3, 199854, Note_off_c, 0, 64, 64
3, 199872, Note_off_c, 0, 60, 64
3, 199872, Note_on_c, 0, 58, 78
3, 199872, Note_on_c, 0, 64, 78
3, 199872, Note_on_c, 0, 67, 78
3, 200064, Note_off_c, 0, 67, 64
3, 200064, Note_off_c, 0, 64, 64
3, 200064, Note_off_c, 0, 58, 64
3, 200064, Note_on_c, 0, 57, 82
3, 200064, Note_on_c, 0, 60, 82
3, 200064, Note_on_c, 0, 65, 82
3, 200256, Note_off_c, 0, 65, 64
3, 200256, Note_off_c, 0, 60, 64
3, 200256, Note_off_c, 0, 57, 64
3, 200256, Note_on_c, 0, 41, 82
3, 200256, Note_on_c, 0, 45, 82
3, 200256, Note_on_c, 0, 48, 82
3, 200256, Note_on_c, 0, 53, 82
3, 200448, Note_off_c, 0, 53, 64
3, 200448, Note_off_c, 0, 48, 64
3, 200448, Note_off_c, 0, 45, 64
3, 200448, Note_off_c, 0, 41, 64
3, 200448, Note_on_c, 0, 43, 88
3, 200448, Note_on_c, 0, 48, 88
3, 200448, Note_on_c, 0, 52, 88
3, 200448, Note_on_c, 0, 55, 88
3, 200640, Note_off_c, 0, 55, 64
3, 200640, Note_off_c, 0, 52, 64
3, 200640, Note_off_c, 0, 48, 64
3, 200640, Note_off_c, 0, 43, 64
3, 200640, Note_on_c, 0, 31, 99
3, 200640, Note_on_c, 0, 35, 99
3, 200640, Note_on_c, 0, 38, 99
3, 200640, Note_on_c, 0, 43, 99
3, 200832, Note_off_c, 0, 43, 64
3, 200832, Note_off_c, 0, 38, 64
3, 200832, Note_off_c, 0, 35, 64
3, 200832, Note_off_c, 0, 31, 64
3, 200832, Note_on_c, 0, 36, 109
3, 200832, Note_on_c, 0, 40, 109
3, 200832, Note_on_c, 0, 43, 109
3, 200832, Note_on_c, 0, 48, 109
3, 201216, Note_off_c, 0, 48, 64
3, 201216, Note_off_c, 0, 43, 64
3, 201216, Note_off_c, 0, 40, 64
3, 201216, Note_off_c, 0, 36, 64
3, 202368, End_track
0, 0, End_of_file