0, 0, Header, 1, 6, 120
1, 0, Start_track
1, 0, Title_t, "Gavotta F-Dur fur klavier 4 handen"
1, 0, Title_t, "Anhang 8 nr.1"
1, 0, Copyright_t, "fiorellaearmando@panet.it"
1, 0, Text_t, "Ludwig van Beethoven\012"
1, 0, Text_t, "Non e' in relata' opera di Beethoven ma di Leopold Kozeluch: \012"
1, 0, Text_t, """La ritrovata figlia di Ottone II"" 1794 c.\012"
1, 0, Sequencer_specific, 03, 00, 00, 41
1, 0, Time_signature, 4, 2, 24, 8
1, 0, Key_signature, -1, "major"
1, 0, Tempo, 600000
1, 18713, Tempo, 600000
1, 18747, Tempo, 606061
1, 18777, Tempo, 612245
1, 18807, Tempo, 618557
1, 18837, Tempo, 625000
1, 18867, Tempo, 631579
1, 18897, Tempo, 638298
1, 18927, Tempo, 645161
1, 18957, Tempo, 652174
1, 18987, Tempo, 659341
1, 19017, Tempo, 666667
1, 19047, Tempo, 674157
1, 19077, Tempo, 681818
1, 19107, Tempo, 689655
1, 19137, Tempo, 697674
1, 19167, Tempo, 705882
1, 19197, Tempo, 594059
1, 22800, Tempo, 594059
1, 22830, Tempo, 600000
1, 22860, Tempo, 606061
1, 22890, Tempo, 612245
1, 22920, Tempo, 618557
1, 22950, Tempo, 625000
1, 22980, Tempo, 631579
1, 23010, Tempo, 638298
1, 23040, Tempo, 645161
1, 23043, Tempo, 594059
1, 32635, Tempo, 731707
1, 32635, End_track
2, 0, Start_track
2, 0, Title_t, "primo"
2, 0, Control_c, 0, 0, 0
2, 0, Control_c, 0, 7, 127
2, 0, Control_c, 0, 10, 45
2, 0, Control_c, 0, 93, 17
2, 0, Control_c, 0, 91, 21
2, 0, Control_c, 0, 32, 0
2, 0, Program_c, 0, 0
2, 240, Note_on_c, 0, 57, 60
2, 300, Note_on_c, 0, 57, 0
2, 300, Note_on_c, 0, 60, 60
2, 360, Note_on_c, 0, 60, 0
2, 360, Note_on_c, 0, 55, 60
2, 360, Note_on_c, 0, 58, 60
2, 420, Note_on_c, 0, 58, 0
2, 420, Note_on_c, 0, 55, 0
2, 420, Note_on_c, 0, 60, 60
2, 480, Note_on_c, 0, 60, 0
2, 480, Note_on_c, 0, 57, 60
2, 540, Note_on_c, 0, 57, 0
2, 540, Note_on_c, 0, 60, 60
2, 600, Note_on_c, 0, 60, 0
2, 600, Note_on_c, 0, 57, 60
2, 660, Note_on_c, 0, 57, 0
2, 660, Note_on_c, 0, 60, 60
2, 720, Note_on_c, 0, 60, 0
2, 720, Note_on_c, 0, 53, 60
2, 780, Note_on_c, 0, 53, 0
2, 780, Note_on_c, 0, 60, 60
2, 840, Note_on_c, 0, 60, 0
2, 840, Note_on_c, 0, 55, 60
2, 900, Note_on_c, 0, 55, 0
2, 900, Note_on_c, 0, 60, 60
2, 960, Note_on_c, 0, 60, 0
2, 960, Note_on_c, 0, 57, 60
2, 1020, Note_on_c, 0, 57, 0
2, 1020, Note_on_c, 0, 60, 60
2, 1080, Note_on_c, 0, 60, 0
2, 1080, Note_on_c, 0, 53, 60
2, 1140, Note_on_c, 0, 53, 0
2, 1140, Note_on_c, 0, 60, 60
2, 1200, Note_on_c, 0, 60, 0
2, 1200, Note_on_c, 0, 57, 60
2, 1260, Note_on_c, 0, 57, 0
2, 1260, Note_on_c, 0, 60, 60
2, 1320, Note_on_c, 0, 60, 0
2, 1320, Note_on_c, 0, 52, 60
2, 1380, Note_on_c, 0, 52, 0
2, 1380, Note_on_c, 0, 60, 60
2, 1440, Note_on_c, 0, 60, 0
2, 1440, Note_on_c, 0, 53, 60
2, 1500, Note_on_c, 0, 53, 0
2, 1500, Note_on_c, 0, 60, 60
2, 1560, Note_on_c, 0, 60, 0
2, 1560, Note_on_c, 0, 65, 60
2, 1620, Note_on_c, 0, 65, 0
2, 1620, Note_on_c, 0, 64, 60
2, 1680, Note_on_c, 0, 64, 0
2, 1680, Note_on_c, 0, 62, 60
2, 1740, Note_on_c, 0, 62, 0
2, 1740, Note_on_c, 0, 60, 60
2, 1800, Note_on_c, 0, 60, 0
2, 1800, Note_on_c, 0, 58, 60
2, 1860, Note_on_c, 0, 58, 0
2, 1860, Note_on_c, 0, 55, 60
2, 1920, Note_on_c, 0, 55, 0
2, 1920, Note_on_c, 0, 57, 40
2, 2040, Note_on_c, 0, 57, 0
2, 2040, Note_on_c, 0, 55, 40
2, 2160, Note_on_c, 0, 55, 0
2, 2160, Note_on_c, 0, 57, 40
2, 2220, Note_on_c, 0, 57, 0
2, 2220, Note_on_c, 0, 60, 40
2, 2280, Note_on_c, 0, 60, 0
2, 2280, Note_on_c, 0, 58, 40
2, 2280, Note_on_c, 0, 55, 40
2, 2340, Note_on_c, 0, 55, 0
2, 2340, Note_on_c, 0, 58, 0
2, 2340, Note_on_c, 0, 60, 40
2, 2400, Note_on_c, 0, 60, 0
2, 2400, Note_on_c, 0, 57, 40
2, 2460, Note_on_c, 0, 57, 0
2, 2460, Note_on_c, 0, 60, 40
2, 2520, Note_on_c, 0, 60, 0
2, 2520, Note_on_c, 0, 57, 40
2, 2580, Note_on_c, 0, 57, 0
2, 2580, Note_on_c, 0, 60, 40
2, 2640, Note_on_c, 0, 60, 0
2, 2640, Note_on_c, 0, 53, 40
2, 2700, Note_on_c, 0, 53, 0
2, 2700, Note_on_c, 0, 60, 40
2, 2760, Note_on_c, 0, 60, 0
2, 2760, Note_on_c, 0, 55, 40
2, 2820, Note_on_c, 0, 55, 0
2, 2820, Note_on_c, 0, 60, 40
2, 2880, Note_on_c, 0, 60, 0
2, 2880, Note_on_c, 0, 57, 40
2, 2940, Note_on_c, 0, 57, 0
2, 2940, Note_on_c, 0, 60, 40
2, 3000, Note_on_c, 0, 60, 0
2, 3000, Note_on_c, 0, 53, 40
2, 3060, Note_on_c, 0, 53, 0
2, 3060, Note_on_c, 0, 60, 40
2, 3120, Note_on_c, 0, 60, 0
2, 3120, Note_on_c, 0, 60, 40
2, 3120, Note_on_c, 0, 57, 40
2, 3120, Note_on_c, 0, 53, 40
2, 3180, Note_on_c, 0, 53, 0
2, 3240, Note_on_c, 0, 57, 0
2, 3240, Note_on_c, 0, 60, 0
2, 3240, Note_on_c, 0, 60, 40
2, 3240, Note_on_c, 0, 58, 40
2, 3240, Note_on_c, 0, 53, 40
2, 3300, Note_on_c, 0, 53, 0
2, 3360, Note_on_c, 0, 58, 0
2, 3360, Note_on_c, 0, 60, 0
2, 3360, Note_on_c, 0, 57, 40
2, 3360, Note_on_c, 0, 60, 40
2, 3480, Note_on_c, 0, 60, 0
2, 3480, Note_on_c, 0, 57, 0
2, 3480, Note_on_c, 0, 53, 40
2, 3480, Note_on_c, 0, 57, 40
2, 3480, Note_on_c, 0, 60, 40
2, 3600, Note_on_c, 0, 60, 0
2, 3600, Note_on_c, 0, 57, 0
2, 3600, Note_on_c, 0, 53, 0
2, 3600, Note_on_c, 0, 60, 40
2, 3600, Note_on_c, 0, 57, 40
2, 3600, Note_on_c, 0, 53, 40
2, 3720, Note_on_c, 0, 53, 0
2, 3720, Note_on_c, 0, 57, 0
2, 3720, Note_on_c, 0, 60, 0
2, 3720, Note_on_c, 0, 52, 40
2, 3720, Note_on_c, 0, 55, 40
2, 3720, Note_on_c, 0, 58, 40
2, 3720, Note_on_c, 0, 60, 40
2, 3840, Note_on_c, 0, 60, 0
2, 3840, Note_on_c, 0, 52, 0
2, 3840, Note_on_c, 0, 55, 0
2, 3840, Note_on_c, 0, 58, 0
2, 3840, Note_on_c, 0, 53, 40
2, 3840, Note_on_c, 0, 57, 40
2, 3960, Note_on_c, 0, 57, 0
2, 3960, Note_on_c, 0, 53, 0
2, 4080, Note_on_c, 0, 57, 60
2, 4140, Note_on_c, 0, 57, 0
2, 4140, Note_on_c, 0, 60, 60
2, 4200, Note_on_c, 0, 60, 0
2, 4200, Note_on_c, 0, 55, 60
2, 4200, Note_on_c, 0, 58, 60
2, 4260, Note_on_c, 0, 58, 0
2, 4260, Note_on_c, 0, 55, 0
2, 4260, Note_on_c, 0, 60, 60
2, 4320, Note_on_c, 0, 60, 0
2, 4320, Note_on_c, 0, 57, 60
2, 4380, Note_on_c, 0, 57, 0
2, 4380, Note_on_c, 0, 60, 60
2, 4440, Note_on_c, 0, 60, 0
2, 4440, Note_on_c, 0, 57, 60
2, 4500, Note_on_c, 0, 57, 0
2, 4500, Note_on_c, 0, 60, 60
2, 4560, Note_on_c, 0, 60, 0
2, 4560, Note_on_c, 0, 53, 60
2, 4620, Note_on_c, 0, 53, 0
2, 4620, Note_on_c, 0, 60, 60
2, 4680, Note_on_c, 0, 60, 0
2, 4680, Note_on_c, 0, 55, 60
2, 4740, Note_on_c, 0, 55, 0
2, 4740, Note_on_c, 0, 60, 60
2, 4800, Note_on_c, 0, 60, 0
2, 4800, Note_on_c, 0, 57, 60
2, 4860, Note_on_c, 0, 57, 0
2, 4860, Note_on_c, 0, 60, 60
2, 4920, Note_on_c, 0, 60, 0
2, 4920, Note_on_c, 0, 53, 60
2, 4980, Note_on_c, 0, 53, 0
2, 4980, Note_on_c, 0, 60, 60
2, 5040, Note_on_c, 0, 60, 0
2, 5040, Note_on_c, 0, 57, 60
2, 5100, Note_on_c, 0, 57, 0
2, 5100, Note_on_c, 0, 60, 60
2, 5160, Note_on_c, 0, 60, 0
2, 5160, Note_on_c, 0, 52, 60
2, 5220, Note_on_c, 0, 52, 0
2, 5220, Note_on_c, 0, 60, 60
2, 5280, Note_on_c, 0, 60, 0
2, 5280, Note_on_c, 0, 53, 60
2, 5340, Note_on_c, 0, 53, 0
2, 5340, Note_on_c, 0, 60, 60
2, 5400, Note_on_c, 0, 60, 0
2, 5400, Note_on_c, 0, 65, 60
2, 5460, Note_on_c, 0, 65, 0
2, 5460, Note_on_c, 0, 64, 60
2, 5520, Note_on_c, 0, 64, 0
2, 5520, Note_on_c, 0, 62, 60
2, 5580, Note_on_c, 0, 62, 0
2, 5580, Note_on_c, 0, 60, 60
2, 5640, Note_on_c, 0, 60, 0
2, 5640, Note_on_c, 0, 58, 60
2, 5700, Note_on_c, 0, 58, 0
2, 5700, Note_on_c, 0, 55, 60
2, 5760, Note_on_c, 0, 55, 0
2, 5760, Note_on_c, 0, 57, 40
2, 5880, Note_on_c, 0, 57, 0
2, 5880, Note_on_c, 0, 55, 40
2, 6000, Note_on_c, 0, 55, 0
2, 6000, Note_on_c, 0, 57, 40
2, 6060, Note_on_c, 0, 57, 0
2, 6060, Note_on_c, 0, 60, 40
2, 6120, Note_on_c, 0, 60, 0
2, 6120, Note_on_c, 0, 58, 40
2, 6120, Note_on_c, 0, 55, 40
2, 6180, Note_on_c, 0, 55, 0
2, 6180, Note_on_c, 0, 58, 0
2, 6180, Note_on_c, 0, 60, 40
2, 6240, Note_on_c, 0, 60, 0
2, 6240, Note_on_c, 0, 57, 40
2, 6300, Note_on_c, 0, 57, 0
2, 6300, Note_on_c, 0, 60, 40
2, 6360, Note_on_c, 0, 60, 0
2, 6360, Note_on_c, 0, 57, 40
2, 6420, Note_on_c, 0, 57, 0
2, 6420, Note_on_c, 0, 60, 40
2, 6480, Note_on_c, 0, 60, 0
2, 6480, Note_on_c, 0, 53, 40
2, 6540, Note_on_c, 0, 53, 0
2, 6540, Note_on_c, 0, 60, 40
2, 6600, Note_on_c, 0, 60, 0
2, 6600, Note_on_c, 0, 55, 40
2, 6660, Note_on_c, 0, 55, 0
2, 6660, Note_on_c, 0, 60, 40
2, 6720, Note_on_c, 0, 60, 0
2, 6720, Note_on_c, 0, 57, 40
2, 6780, Note_on_c, 0, 57, 0
2, 6780, Note_on_c, 0, 60, 40
2, 6840, Note_on_c, 0, 60, 0
2, 6840, Note_on_c, 0, 53, 40
2, 6900, Note_on_c, 0, 53, 0
2, 6900, Note_on_c, 0, 60, 40
2, 6960, Note_on_c, 0, 60, 0
2, 6960, Note_on_c, 0, 60, 40
2, 6960, Note_on_c, 0, 57, 40
2, 6960, Note_on_c, 0, 53, 40
2, 7020, Note_on_c, 0, 53, 0
2, 7080, Note_on_c, 0, 57, 0
2, 7080, Note_on_c, 0, 60, 0
2, 7080, Note_on_c, 0, 60, 40
2, 7080, Note_on_c, 0, 58, 40
2, 7080, Note_on_c, 0, 53, 40
2, 7140, Note_on_c, 0, 53, 0
2, 7200, Note_on_c, 0, 58, 0
2, 7200, Note_on_c, 0, 60, 0
2, 7200, Note_on_c, 0, 57, 40
2, 7200, Note_on_c, 0, 60, 40
2, 7320, Note_on_c, 0, 60, 0
2, 7320, Note_on_c, 0, 57, 0
2, 7320, Note_on_c, 0, 53, 40
2, 7320, Note_on_c, 0, 57, 40
2, 7320, Note_on_c, 0, 60, 40
2, 7440, Note_on_c, 0, 60, 0
2, 7440, Note_on_c, 0, 57, 0
2, 7440, Note_on_c, 0, 53, 0
2, 7440, Note_on_c, 0, 60, 40
2, 7440, Note_on_c, 0, 57, 40
2, 7440, Note_on_c, 0, 53, 40
2, 7560, Note_on_c, 0, 53, 0
2, 7560, Note_on_c, 0, 57, 0
2, 7560, Note_on_c, 0, 60, 0
2, 7560, Note_on_c, 0, 52, 40
2, 7560, Note_on_c, 0, 55, 40
2, 7560, Note_on_c, 0, 58, 40
2, 7560, Note_on_c, 0, 60, 40
2, 7680, Note_on_c, 0, 60, 0
2, 7680, Note_on_c, 0, 52, 0
2, 7680, Note_on_c, 0, 55, 0
2, 7680, Note_on_c, 0, 58, 0
2, 7680, Note_on_c, 0, 53, 40
2, 7680, Note_on_c, 0, 57, 40
2, 7800, Note_on_c, 0, 57, 0
2, 7800, Note_on_c, 0, 53, 0
2, 7920, Note_on_c, 0, 57, 60
2, 7980, Note_on_c, 0, 57, 0
2, 7980, Note_on_c, 0, 60, 60
2, 8040, Note_on_c, 0, 60, 0
2, 8040, Note_on_c, 0, 57, 60
2, 8100, Note_on_c, 0, 57, 0
2, 8100, Note_on_c, 0, 60, 60
2, 8160, Note_on_c, 0, 60, 0
2, 8160, Note_on_c, 0, 55, 60
2, 8190, Note_on_c, 0, 55, 0
2, 8190, Note_on_c, 0, 58, 60
2, 8220, Note_on_c, 0, 58, 0
2, 8220, Note_on_c, 0, 60, 60
2, 8250, Note_on_c, 0, 60, 0
2, 8250, Note_on_c, 0, 58, 60
2, 8280, Note_on_c, 0, 58, 0
2, 8280, Note_on_c, 0, 55, 60
2, 8310, Note_on_c, 0, 55, 0
2, 8310, Note_on_c, 0, 58, 60
2, 8340, Note_on_c, 0, 58, 0
2, 8340, Note_on_c, 0, 60, 60
2, 8370, Note_on_c, 0, 60, 0
2, 8370, Note_on_c, 0, 58, 60
2, 8400, Note_on_c, 0, 58, 0
2, 8400, Note_on_c, 0, 55, 60
2, 8430, Note_on_c, 0, 55, 0
2, 8430, Note_on_c, 0, 58, 60
2, 8460, Note_on_c, 0, 58, 0
2, 8460, Note_on_c, 0, 60, 60
2, 8490, Note_on_c, 0, 60, 0
2, 8490, Note_on_c, 0, 58, 60
2, 8520, Note_on_c, 0, 58, 0
2, 8520, Note_on_c, 0, 55, 60
2, 8550, Note_on_c, 0, 55, 0
2, 8550, Note_on_c, 0, 58, 60
2, 8580, Note_on_c, 0, 58, 0
2, 8580, Note_on_c, 0, 60, 60
2, 8610, Note_on_c, 0, 60, 0
2, 8610, Note_on_c, 0, 58, 60
2, 8640, Note_on_c, 0, 58, 0
2, 8640, Note_on_c, 0, 53, 60
2, 8670, Note_on_c, 0, 53, 0
2, 8670, Note_on_c, 0, 57, 60
2, 8700, Note_on_c, 0, 57, 0
2, 8700, Note_on_c, 0, 60, 60
2, 8730, Note_on_c, 0, 60, 0
2, 8730, Note_on_c, 0, 57, 60
2, 8760, Note_on_c, 0, 57, 0
2, 8760, Note_on_c, 0, 53, 60
2, 8790, Note_on_c, 0, 53, 0
2, 8790, Note_on_c, 0, 57, 60
2, 8820, Note_on_c, 0, 57, 0
2, 8820, Note_on_c, 0, 60, 60
2, 8850, Note_on_c, 0, 60, 0
2, 8850, Note_on_c, 0, 57, 60
2, 8880, Note_on_c, 0, 57, 0
2, 8880, Note_on_c, 0, 53, 60
2, 8910, Note_on_c, 0, 53, 0
2, 8910, Note_on_c, 0, 57, 60
2, 8940, Note_on_c, 0, 57, 0
2, 8940, Note_on_c, 0, 60, 60
2, 8970, Note_on_c, 0, 60, 0
2, 8970, Note_on_c, 0, 57, 60
2, 9000, Note_on_c, 0, 57, 0
2, 9000, Note_on_c, 0, 53, 60
2, 9030, Note_on_c, 0, 53, 0
2, 9030, Note_on_c, 0, 57, 60
2, 9060, Note_on_c, 0, 57, 0
2, 9060, Note_on_c, 0, 60, 60
2, 9090, Note_on_c, 0, 60, 0
2, 9090, Note_on_c, 0, 57, 60
2, 9120, Note_on_c, 0, 57, 0
2, 9120, Note_on_c, 0, 55, 60
2, 9150, Note_on_c, 0, 55, 0
2, 9150, Note_on_c, 0, 58, 60
2, 9180, Note_on_c, 0, 58, 0
2, 9180, Note_on_c, 0, 60, 60
2, 9210, Note_on_c, 0, 60, 0
2, 9210, Note_on_c, 0, 58, 60
2, 9240, Note_on_c, 0, 58, 0
2, 9240, Note_on_c, 0, 55, 60
2, 9270, Note_on_c, 0, 55, 0
2, 9270, Note_on_c, 0, 58, 60
2, 9300, Note_on_c, 0, 58, 0
2, 9300, Note_on_c, 0, 60, 60
2, 9330, Note_on_c, 0, 60, 0
2, 9330, Note_on_c, 0, 58, 60
2, 9360, Note_on_c, 0, 58, 0
2, 9360, Note_on_c, 0, 55, 60
2, 9390, Note_on_c, 0, 55, 0
2, 9390, Note_on_c, 0, 58, 60
2, 9420, Note_on_c, 0, 58, 0
2, 9420, Note_on_c, 0, 60, 60
2, 9450, Note_on_c, 0, 60, 0
2, 9450, Note_on_c, 0, 58, 60
2, 9480, Note_on_c, 0, 58, 0
2, 9480, Note_on_c, 0, 55, 60
2, 9510, Note_on_c, 0, 55, 0
2, 9510, Note_on_c, 0, 58, 60
2, 9540, Note_on_c, 0, 58, 0
2, 9540, Note_on_c, 0, 60, 60
2, 9570, Note_on_c, 0, 60, 0
2, 9570, Note_on_c, 0, 58, 60
2, 9600, Note_on_c, 0, 58, 0
2, 9600, Note_on_c, 0, 57, 60
2, 9660, Note_on_c, 0, 57, 0
2, 9660, Note_on_c, 0, 60, 60
2, 9720, Note_on_c, 0, 60, 0
2, 9720, Note_on_c, 0, 57, 60
2, 9780, Note_on_c, 0, 57, 0
2, 9780, Note_on_c, 0, 60, 60
2, 9840, Note_on_c, 0, 60, 0
2, 9840, Note_on_c, 0, 53, 80
2, 9900, Note_on_c, 0, 53, 0
2, 9900, Note_on_c, 0, 55, 80
2, 9960, Note_on_c, 0, 55, 0
2, 9960, Note_on_c, 0, 57, 80
2, 10020, Note_on_c, 0, 57, 0
2, 10020, Note_on_c, 0, 59, 80
2, 10080, Note_on_c, 0, 59, 0
2, 10080, Note_on_c, 0, 60, 80
2, 10140, Note_on_c, 0, 60, 0
2, 10140, Note_on_c, 0, 55, 80
2, 10200, Note_on_c, 0, 55, 0
2, 10200, Note_on_c, 0, 52, 80
2, 10260, Note_on_c, 0, 52, 0
2, 10260, Note_on_c, 0, 48, 80
2, 10320, Note_on_c, 0, 48, 0
2, 10320, Note_on_c, 0, 53, 80
2, 10380, Note_on_c, 0, 53, 0
2, 10380, Note_on_c, 0, 55, 80
2, 10440, Note_on_c, 0, 55, 0
2, 10440, Note_on_c, 0, 57, 80
2, 10500, Note_on_c, 0, 57, 0
2, 10500, Note_on_c, 0, 59, 80
2, 10560, Note_on_c, 0, 59, 0
2, 10560, Note_on_c, 0, 60, 80
2, 10620, Note_on_c, 0, 60, 0
2, 10620, Note_on_c, 0, 55, 80
2, 10680, Note_on_c, 0, 55, 0
2, 10680, Note_on_c, 0, 52, 80
2, 10740, Note_on_c, 0, 52, 0
2, 10740, Note_on_c, 0, 48, 80
2, 10800, Note_on_c, 0, 48, 0
2, 10830, Note_on_c, 0, 53, 80
2, 10860, Note_on_c, 0, 53, 0
2, 10860, Note_on_c, 0, 57, 80
2, 10890, Note_on_c, 0, 57, 0
2, 10890, Note_on_c, 0, 53, 80
2, 10920, Note_on_c, 0, 53, 0
2, 10950, Note_on_c, 0, 53, 80
2, 10980, Note_on_c, 0, 53, 0
2, 10980, Note_on_c, 0, 55, 80
2, 11010, Note_on_c, 0, 55, 0
2, 11010, Note_on_c, 0, 53, 80
2, 11040, Note_on_c, 0, 53, 0
2, 11040, Note_on_c, 0, 52, 80
2, 11070, Note_on_c, 0, 52, 0
2, 11070, Note_on_c, 0, 55, 80
2, 11100, Note_on_c, 0, 55, 0
2, 11100, Note_on_c, 0, 60, 80
2, 11130, Note_on_c, 0, 60, 0
2, 11130, Note_on_c, 0, 55, 80
2, 11160, Note_on_c, 0, 55, 0
2, 11160, Note_on_c, 0, 53, 80
2, 11190, Note_on_c, 0, 53, 0
2, 11190, Note_on_c, 0, 57, 80
2, 11220, Note_on_c, 0, 57, 0
2, 11220, Note_on_c, 0, 62, 80
2, 11250, Note_on_c, 0, 62, 0
2, 11250, Note_on_c, 0, 57, 80
2, 11280, Note_on_c, 0, 57, 0
2, 11280, Note_on_c, 0, 55, 100
2, 11310, Note_on_c, 0, 55, 0
2, 11310, Note_on_c, 0, 60, 100
2, 11340, Note_on_c, 0, 60, 0
2, 11340, Note_on_c, 0, 55, 100
2, 11370, Note_on_c, 0, 55, 0
2, 11370, Note_on_c, 0, 60, 100
2, 11400, Note_on_c, 0, 60, 0
2, 11400, Note_on_c, 0, 55, 100
2, 11430, Note_on_c, 0, 55, 0
2, 11430, Note_on_c, 0, 59, 100
2, 11460, Note_on_c, 0, 59, 0
2, 11460, Note_on_c, 0, 62, 100
2, 11490, Note_on_c, 0, 62, 0
2, 11490, Note_on_c, 0, 59, 100
2, 11520, Note_on_c, 0, 59, 0
2, 11520, Note_on_c, 0, 60, 60
2, 11640, Note_on_c, 0, 60, 0
2, 11760, Note_on_c, 0, 57, 58
2, 11820, Note_on_c, 0, 57, 0
2, 11820, Note_on_c, 0, 60, 57
2, 11880, Note_on_c, 0, 60, 0
2, 11880, Note_on_c, 0, 55, 57
2, 11880, Note_on_c, 0, 58, 57
2, 11940, Note_on_c, 0, 58, 0
2, 11940, Note_on_c, 0, 55, 0
2, 11940, Note_on_c, 0, 60, 56
2, 12000, Note_on_c, 0, 60, 0
2, 12000, Note_on_c, 0, 57, 55
2, 12060, Note_on_c, 0, 57, 0
2, 12060, Note_on_c, 0, 60, 55
2, 12120, Note_on_c, 0, 60, 0
2, 12120, Note_on_c, 0, 57, 54
2, 12180, Note_on_c, 0, 57, 0
2, 12180, Note_on_c, 0, 60, 53
2, 12240, Note_on_c, 0, 60, 0
2, 12240, Note_on_c, 0, 53, 53
2, 12300, Note_on_c, 0, 53, 0
2, 12300, Note_on_c, 0, 60, 52
2, 12360, Note_on_c, 0, 60, 0
2, 12360, Note_on_c, 0, 55, 51
2, 12420, Note_on_c, 0, 55, 0
2, 12420, Note_on_c, 0, 60, 51
2, 12480, Note_on_c, 0, 60, 0
2, 12480, Note_on_c, 0, 57, 50
2, 12540, Note_on_c, 0, 57, 0
2, 12540, Note_on_c, 0, 60, 50
2, 12600, Note_on_c, 0, 60, 0
2, 12600, Note_on_c, 0, 53, 49
2, 12660, Note_on_c, 0, 53, 0
2, 12660, Note_on_c, 0, 60, 48
2, 12720, Note_on_c, 0, 60, 0
2, 12720, Note_on_c, 0, 57, 48
2, 12780, Note_on_c, 0, 57, 0
2, 12780, Note_on_c, 0, 60, 47
2, 12840, Note_on_c, 0, 60, 0
2, 12840, Note_on_c, 0, 52, 46
2, 12900, Note_on_c, 0, 52, 0
2, 12900, Note_on_c, 0, 60, 46
2, 12960, Note_on_c, 0, 60, 0
2, 12960, Note_on_c, 0, 53, 45
2, 13020, Note_on_c, 0, 53, 0
2, 13020, Note_on_c, 0, 60, 44
2, 13080, Note_on_c, 0, 60, 0
2, 13080, Note_on_c, 0, 65, 44
2, 13140, Note_on_c, 0, 65, 0
2, 13140, Note_on_c, 0, 64, 43
2, 13200, Note_on_c, 0, 64, 0
2, 13200, Note_on_c, 0, 62, 42
2, 13260, Note_on_c, 0, 62, 0
2, 13260, Note_on_c, 0, 60, 42
2, 13320, Note_on_c, 0, 60, 0
2, 13320, Note_on_c, 0, 58, 41
2, 13380, Note_on_c, 0, 58, 0
2, 13380, Note_on_c, 0, 57, 41
2, 13440, Note_on_c, 0, 57, 0
2, 13440, Note_on_c, 0, 57, 44
2, 13560, Note_on_c, 0, 57, 0
2, 13560, Note_on_c, 0, 55, 45
2, 13680, Note_on_c, 0, 55, 0
2, 13680, Note_on_c, 0, 57, 46
2, 13740, Note_on_c, 0, 57, 0
2, 13740, Note_on_c, 0, 60, 47
2, 13800, Note_on_c, 0, 60, 0
2, 13800, Note_on_c, 0, 55, 47
2, 13800, Note_on_c, 0, 58, 47
2, 13860, Note_on_c, 0, 58, 0
2, 13860, Note_on_c, 0, 55, 0
2, 13860, Note_on_c, 0, 60, 48
2, 13920, Note_on_c, 0, 60, 0
2, 13920, Note_on_c, 0, 57, 49
2, 13980, Note_on_c, 0, 57, 0
2, 13980, Note_on_c, 0, 60, 51
2, 14040, Note_on_c, 0, 60, 0
2, 14040, Note_on_c, 0, 57, 53
2, 14100, Note_on_c, 0, 57, 0
2, 14100, Note_on_c, 0, 60, 55
2, 14160, Note_on_c, 0, 60, 0
2, 14160, Note_on_c, 0, 53, 56
2, 14220, Note_on_c, 0, 53, 0
2, 14220, Note_on_c, 0, 60, 58
2, 14280, Note_on_c, 0, 60, 0
2, 14280, Note_on_c, 0, 55, 59
2, 14340, Note_on_c, 0, 55, 0
2, 14340, Note_on_c, 0, 60, 61
2, 14400, Note_on_c, 0, 60, 0
2, 14400, Note_on_c, 0, 57, 61
2, 14460, Note_on_c, 0, 57, 0
2, 14460, Note_on_c, 0, 60, 62
2, 14520, Note_on_c, 0, 60, 0
2, 14520, Note_on_c, 0, 53, 63
2, 14580, Note_on_c, 0, 53, 0
2, 14580, Note_on_c, 0, 60, 63
2, 14640, Note_on_c, 0, 60, 0
2, 14640, Note_on_c, 0, 60, 64
2, 14640, Note_on_c, 0, 57, 64
2, 14760, Note_on_c, 0, 57, 0
2, 14760, Note_on_c, 0, 60, 0
2, 14760, Note_on_c, 0, 60, 66
2, 14760, Note_on_c, 0, 58, 66
2, 14880, Note_on_c, 0, 58, 0
2, 14880, Note_on_c, 0, 60, 0
2, 14880, Note_on_c, 0, 57, 69
2, 14880, Note_on_c, 0, 60, 69
2, 15000, Note_on_c, 0, 60, 0
2, 15000, Note_on_c, 0, 57, 0
2, 15000, Note_on_c, 0, 53, 70
2, 15000, Note_on_c, 0, 57, 70
2, 15120, Note_on_c, 0, 57, 0
2, 15120, Note_on_c, 0, 53, 0
2, 15120, Note_on_c, 0, 57, 70
2, 15120, Note_on_c, 0, 53, 70
2, 15240, Note_on_c, 0, 53, 0
2, 15240, Note_on_c, 0, 57, 0
2, 15240, Note_on_c, 0, 52, 72
2, 15240, Note_on_c, 0, 58, 72
2, 15360, Note_on_c, 0, 58, 0
2, 15360, Note_on_c, 0, 52, 0
2, 15360, Note_on_c, 0, 53, 75
2, 15360, Note_on_c, 0, 57, 75
2, 15480, Note_on_c, 0, 57, 0
2, 15480, Note_on_c, 0, 53, 0
2, 15840, Note_on_c, 0, 58, 79
2, 16080, Note_on_c, 0, 58, 0
2, 16080, Note_on_c, 0, 60, 79
2, 16320, Note_on_c, 0, 60, 0
2, 16320, Note_on_c, 0, 58, 79
2, 16560, Note_on_c, 0, 58, 0
2, 16560, Note_on_c, 0, 58, 78
2, 16680, Note_on_c, 0, 58, 0
2, 16680, Note_on_c, 0, 60, 77
2, 16800, Note_on_c, 0, 60, 0
2, 16800, Note_on_c, 0, 62, 74
2, 16800, Note_on_c, 0, 58, 74
2, 17040, Note_on_c, 0, 58, 0
2, 17040, Note_on_c, 0, 62, 0
2, 17040, Note_on_c, 0, 63, 70
2, 17100, Note_on_c, 0, 63, 0
2, 17100, Note_on_c, 0, 62, 69
2, 17160, Note_on_c, 0, 62, 0
2, 17160, Note_on_c, 0, 60, 69
2, 17220, Note_on_c, 0, 60, 0
2, 17220, Note_on_c, 0, 58, 68
2, 17280, Note_on_c, 0, 58, 0
2, 17280, Note_on_c, 0, 58, 67
2, 17400, Note_on_c, 0, 58, 0
2, 17400, Note_on_c, 0, 57, 66
2, 17520, Note_on_c, 0, 57, 0
2, 17520, Note_on_c, 0, 58, 64
2, 17640, Note_on_c, 0, 58, 0
2, 17640, Note_on_c, 0, 60, 60
2, 17760, Note_on_c, 0, 60, 0
2, 17760, Note_on_c, 0, 58, 64
2, 17820, Note_on_c, 0, 58, 0
2, 17820, Note_on_c, 0, 53, 64
2, 17880, Note_on_c, 0, 53, 0
2, 17880, Note_on_c, 0, 58, 64
2, 17940, Note_on_c, 0, 58, 0
2, 17940, Note_on_c, 0, 53, 64
2, 18000, Note_on_c, 0, 53, 0
2, 18000, Note_on_c, 0, 60, 64
2, 18000, Note_on_c, 0, 57, 64
2, 18060, Note_on_c, 0, 57, 0
2, 18060, Note_on_c, 0, 60, 0
2, 18060, Note_on_c, 0, 53, 65
2, 18120, Note_on_c, 0, 53, 0
2, 18120, Note_on_c, 0, 60, 65
2, 18120, Note_on_c, 0, 57, 65
2, 18180, Note_on_c, 0, 57, 0
2, 18180, Note_on_c, 0, 60, 0
2, 18180, Note_on_c, 0, 53, 66
2, 18240, Note_on_c, 0, 53, 0
2, 18240, Note_on_c, 0, 58, 66
2, 18300, Note_on_c, 0, 58, 0
2, 18300, Note_on_c, 0, 53, 66
2, 18360, Note_on_c, 0, 53, 0
2, 18360, Note_on_c, 0, 58, 67
2, 18420, Note_on_c, 0, 58, 0
2, 18420, Note_on_c, 0, 53, 67
2, 18480, Note_on_c, 0, 53, 0
2, 18480, Note_on_c, 0, 58, 67
2, 18540, Note_on_c, 0, 58, 0
2, 18540, Note_on_c, 0, 60, 67
2, 18600, Note_on_c, 0, 60, 0
2, 18600, Note_on_c, 0, 62, 67
2, 18660, Note_on_c, 0, 62, 0
2, 18660, Note_on_c, 0, 63, 67
2, 18720, Note_on_c, 0, 63, 0
2, 18720, Note_on_c, 0, 65, 67
2, 18720, Note_on_c, 0, 62, 67
2, 18840, Note_on_c, 0, 62, 0
2, 18840, Note_on_c, 0, 65, 0
2, 18840, Note_on_c, 0, 58, 67
2, 18960, Note_on_c, 0, 58, 0
2, 18960, Note_on_c, 0, 53, 67
2, 19080, Note_on_c, 0, 53, 0
2, 19200, Note_on_c, 0, 58, 68
2, 19320, Note_on_c, 0, 58, 0
2, 19440, Note_on_c, 0, 57, 70
2, 19560, Note_on_c, 0, 57, 0
2, 19560, Note_on_c, 0, 57, 72
2, 19680, Note_on_c, 0, 57, 0
2, 19680, Note_on_c, 0, 57, 72
2, 19800, Note_on_c, 0, 57, 0
2, 19800, Note_on_c, 0, 57, 72
2, 19920, Note_on_c, 0, 57, 0
2, 19920, Note_on_c, 0, 57, 72
2, 20040, Note_on_c, 0, 57, 0
2, 20040, Note_on_c, 0, 57, 72
2, 20160, Note_on_c, 0, 57, 0
2, 20160, Note_on_c, 0, 58, 72
2, 20280, Note_on_c, 0, 58, 0
2, 20280, Note_on_c, 0, 58, 74
2, 20400, Note_on_c, 0, 58, 0
2, 20400, Note_on_c, 0, 58, 75
2, 20520, Note_on_c, 0, 58, 0
2, 20520, Note_on_c, 0, 58, 76
2, 20640, Note_on_c, 0, 58, 0
2, 20640, Note_on_c, 0, 57, 76
2, 20760, Note_on_c, 0, 57, 0
2, 20760, Note_on_c, 0, 57, 76
2, 20880, Note_on_c, 0, 57, 0
2, 20880, Note_on_c, 0, 57, 76
2, 21000, Note_on_c, 0, 57, 0
2, 21000, Note_on_c, 0, 57, 76
2, 21120, Note_on_c, 0, 57, 0
2, 21120, Note_on_c, 0, 58, 76
2, 21240, Note_on_c, 0, 58, 0
2, 21240, Note_on_c, 0, 58, 76
2, 21360, Note_on_c, 0, 58, 0
2, 21360, Note_on_c, 0, 58, 76
2, 21480, Note_on_c, 0, 58, 0
2, 21480, Note_on_c, 0, 60, 76
2, 21600, Note_on_c, 0, 60, 0
2, 21600, Note_on_c, 0, 58, 75
2, 21840, Note_on_c, 0, 58, 0
2, 21840, Note_on_c, 0, 58, 75
2, 21960, Note_on_c, 0, 58, 0
2, 21960, Note_on_c, 0, 60, 74
2, 22080, Note_on_c, 0, 60, 0
2, 22080, Note_on_c, 0, 58, 72
2, 22320, Note_on_c, 0, 58, 0
2, 22320, Note_on_c, 0, 58, 69
2, 22380, Note_on_c, 0, 58, 0
2, 22380, Note_on_c, 0, 60, 72
2, 22440, Note_on_c, 0, 60, 0
2, 22440, Note_on_c, 0, 62, 71
2, 22500, Note_on_c, 0, 62, 0
2, 22500, Note_on_c, 0, 63, 69
2, 22560, Note_on_c, 0, 63, 0
2, 22560, Note_on_c, 0, 65, 68
2, 22680, Note_on_c, 0, 65, 0
2, 22680, Note_on_c, 0, 53, 67
2, 22800, Note_on_c, 0, 53, 0
2, 22800, Note_on_c, 0, 53, 67
2, 22920, Note_on_c, 0, 53, 0
2, 22980, Note_on_c, 0, 57, 66
2, 23040, Note_on_c, 0, 57, 0
2, 23040, Note_on_c, 0, 58, 66
2, 23160, Note_on_c, 0, 58, 0
2, 23520, Note_on_c, 0, 48, 65
2, 24000, Note_on_c, 0, 48, 0
2, 24480, Note_on_c, 0, 55, 64
2, 24960, Note_on_c, 0, 55, 0
2, 25200, Note_on_c, 0, 57, 64
2, 25260, Note_on_c, 0, 57, 0
2, 25260, Note_on_c, 0, 60, 64
2, 25320, Note_on_c, 0, 60, 0
2, 25320, Note_on_c, 0, 55, 64
2, 25320, Note_on_c, 0, 58, 64
2, 25380, Note_on_c, 0, 58, 0
2, 25380, Note_on_c, 0, 55, 0
2, 25380, Note_on_c, 0, 60, 64
2, 25440, Note_on_c, 0, 60, 0
2, 25440, Note_on_c, 0, 57, 64
2, 25500, Note_on_c, 0, 57, 0
2, 25500, Note_on_c, 0, 60, 64
2, 25560, Note_on_c, 0, 60, 0
2, 25560, Note_on_c, 0, 57, 63
2, 25620, Note_on_c, 0, 57, 0
2, 25620, Note_on_c, 0, 60, 62
2, 25680, Note_on_c, 0, 60, 0
2, 25680, Note_on_c, 0, 53, 61
2, 25740, Note_on_c, 0, 53, 0
2, 25740, Note_on_c, 0, 60, 61
2, 25800, Note_on_c, 0, 60, 0
2, 25800, Note_on_c, 0, 55, 61
2, 25860, Note_on_c, 0, 55, 0
2, 25860, Note_on_c, 0, 60, 61
2, 25920, Note_on_c, 0, 60, 0
2, 25920, Note_on_c, 0, 57, 61
2, 25980, Note_on_c, 0, 57, 0
2, 25980, Note_on_c, 0, 60, 61
2, 26040, Note_on_c, 0, 60, 0
2, 26040, Note_on_c, 0, 53, 61
2, 26100, Note_on_c, 0, 53, 0
2, 26100, Note_on_c, 0, 60, 61
2, 26160, Note_on_c, 0, 60, 0
2, 26160, Note_on_c, 0, 57, 61
2, 26220, Note_on_c, 0, 57, 0
2, 26220, Note_on_c, 0, 60, 61
2, 26280, Note_on_c, 0, 60, 0
2, 26280, Note_on_c, 0, 52, 61
2, 26340, Note_on_c, 0, 52, 0
2, 26340, Note_on_c, 0, 60, 61
2, 26400, Note_on_c, 0, 60, 0
2, 26400, Note_on_c, 0, 53, 61
2, 26460, Note_on_c, 0, 53, 0
2, 26460, Note_on_c, 0, 60, 61
2, 26520, Note_on_c, 0, 60, 0
2, 26520, Note_on_c, 0, 65, 61
2, 26580, Note_on_c, 0, 65, 0
2, 26580, Note_on_c, 0, 64, 61
2, 26640, Note_on_c, 0, 64, 0
2, 26640, Note_on_c, 0, 62, 61
2, 26700, Note_on_c, 0, 62, 0
2, 26700, Note_on_c, 0, 60, 61
2, 26760, Note_on_c, 0, 60, 0
2, 26760, Note_on_c, 0, 58, 61
2, 26820, Note_on_c, 0, 58, 0
2, 26820, Note_on_c, 0, 55, 61
2, 26880, Note_on_c, 0, 55, 0
2, 26880, Note_on_c, 0, 57, 61
2, 27000, Note_on_c, 0, 57, 0
2, 27000, Note_on_c, 0, 55, 61
2, 27120, Note_on_c, 0, 55, 0
2, 27120, Note_on_c, 0, 57, 61
2, 27180, Note_on_c, 0, 57, 0
2, 27180, Note_on_c, 0, 60, 60
2, 27240, Note_on_c, 0, 60, 0
2, 27240, Note_on_c, 0, 58, 60
2, 27240, Note_on_c, 0, 55, 60
2, 27300, Note_on_c, 0, 55, 0
2, 27300, Note_on_c, 0, 58, 0
2, 27300, Note_on_c, 0, 60, 60
2, 27360, Note_on_c, 0, 60, 0
2, 27360, Note_on_c, 0, 57, 60
2, 27420, Note_on_c, 0, 57, 0
2, 27420, Note_on_c, 0, 60, 60
2, 27480, Note_on_c, 0, 60, 0
2, 27480, Note_on_c, 0, 57, 60
2, 27540, Note_on_c, 0, 57, 0
2, 27540, Note_on_c, 0, 60, 60
2, 27600, Note_on_c, 0, 60, 0
2, 27600, Note_on_c, 0, 53, 60
2, 27660, Note_on_c, 0, 53, 0
2, 27660, Note_on_c, 0, 60, 60
2, 27720, Note_on_c, 0, 60, 0
2, 27720, Note_on_c, 0, 55, 61
2, 27780, Note_on_c, 0, 55, 0
2, 27780, Note_on_c, 0, 60, 61
2, 27840, Note_on_c, 0, 60, 0
2, 27840, Note_on_c, 0, 57, 61
2, 27900, Note_on_c, 0, 57, 0
2, 27900, Note_on_c, 0, 60, 61
2, 27960, Note_on_c, 0, 60, 0
2, 27960, Note_on_c, 0, 53, 61
2, 28020, Note_on_c, 0, 53, 0
2, 28020, Note_on_c, 0, 60, 61
2, 28080, Note_on_c, 0, 60, 0
2, 28080, Note_on_c, 0, 60, 61
2, 28080, Note_on_c, 0, 57, 61
2, 28080, Note_on_c, 0, 53, 61
2, 28140, Note_on_c, 0, 53, 0
2, 28200, Note_on_c, 0, 57, 0
2, 28200, Note_on_c, 0, 60, 0
2, 28200, Note_on_c, 0, 60, 61
2, 28200, Note_on_c, 0, 58, 61
2, 28200, Note_on_c, 0, 53, 61
2, 28260, Note_on_c, 0, 53, 0
2, 28320, Note_on_c, 0, 58, 0
2, 28320, Note_on_c, 0, 60, 0
2, 28320, Note_on_c, 0, 57, 60
2, 28320, Note_on_c, 0, 60, 60
2, 28440, Note_on_c, 0, 60, 0
2, 28440, Note_on_c, 0, 57, 0
2, 28440, Note_on_c, 0, 53, 59
2, 28440, Note_on_c, 0, 57, 59
2, 28440, Note_on_c, 0, 60, 59
2, 28560, Note_on_c, 0, 60, 0
2, 28560, Note_on_c, 0, 57, 0
2, 28560, Note_on_c, 0, 53, 0
2, 28560, Note_on_c, 0, 60, 59
2, 28560, Note_on_c, 0, 57, 59
2, 28560, Note_on_c, 0, 53, 59
2, 28680, Note_on_c, 0, 53, 0
2, 28680, Note_on_c, 0, 57, 0
2, 28680, Note_on_c, 0, 60, 0
2, 28680, Note_on_c, 0, 52, 59
2, 28680, Note_on_c, 0, 55, 59
2, 28680, Note_on_c, 0, 58, 59
2, 28680, Note_on_c, 0, 60, 59
2, 28800, Note_on_c, 0, 60, 0
2, 28800, Note_on_c, 0, 52, 0
2, 28800, Note_on_c, 0, 55, 0
2, 28800, Note_on_c, 0, 58, 0
2, 28800, Note_on_c, 0, 53, 59
2, 28920, Note_on_c, 0, 53, 0
2, 29040, Note_on_c, 0, 62, 58
2, 29080, Note_on_c, 0, 62, 0
2, 29080, Note_on_c, 0, 58, 58
2, 29120, Note_on_c, 0, 58, 0
2, 29120, Note_on_c, 0, 53, 58
2, 29160, Note_on_c, 0, 53, 0
2, 29160, Note_on_c, 0, 62, 58
2, 29200, Note_on_c, 0, 62, 0
2, 29200, Note_on_c, 0, 58, 58
2, 29240, Note_on_c, 0, 58, 0
2, 29240, Note_on_c, 0, 53, 58
2, 29280, Note_on_c, 0, 53, 0
2, 29280, Note_on_c, 0, 60, 58
2, 29320, Note_on_c, 0, 60, 0
2, 29320, Note_on_c, 0, 57, 58
2, 29360, Note_on_c, 0, 57, 0
2, 29360, Note_on_c, 0, 53, 58
2, 29385, Note_on_c, 0, 55, 59
2, 29400, Note_on_c, 0, 55, 0
2, 29400, Note_on_c, 0, 53, 0
2, 29400, Note_on_c, 0, 53, 59
2, 29440, Note_on_c, 0, 53, 0
2, 29440, Note_on_c, 0, 52, 59
2, 29480, Note_on_c, 0, 52, 0
2, 29480, Note_on_c, 0, 53, 59
2, 29520, Note_on_c, 0, 53, 0
2, 29520, Note_on_c, 0, 62, 59
2, 29560, Note_on_c, 0, 62, 0
2, 29560, Note_on_c, 0, 58, 59
2, 29600, Note_on_c, 0, 58, 0
2, 29600, Note_on_c, 0, 53, 59
2, 29640, Note_on_c, 0, 53, 0
2, 29640, Note_on_c, 0, 62, 59
2, 29680, Note_on_c, 0, 62, 0
2, 29680, Note_on_c, 0, 58, 59
2, 29720, Note_on_c, 0, 58, 0
2, 29720, Note_on_c, 0, 53, 59
2, 29760, Note_on_c, 0, 53, 0
2, 29760, Note_on_c, 0, 60, 59
2, 29800, Note_on_c, 0, 60, 0
2, 29800, Note_on_c, 0, 57, 59
2, 29840, Note_on_c, 0, 57, 0
2, 29840, Note_on_c, 0, 53, 59
2, 29880, Note_on_c, 0, 53, 0
2, 29880, Note_on_c, 0, 55, 60
2, 29895, Note_on_c, 0, 55, 0
2, 29895, Note_on_c, 0, 53, 60
2, 29910, Note_on_c, 0, 53, 0
2, 29910, Note_on_c, 0, 55, 60
2, 29925, Note_on_c, 0, 55, 0
2, 29925, Note_on_c, 0, 53, 60
2, 29940, Note_on_c, 0, 53, 0
2, 29940, Note_on_c, 0, 55, 60
2, 29955, Note_on_c, 0, 55, 0
2, 29955, Note_on_c, 0, 53, 60
2, 29970, Note_on_c, 0, 53, 0
2, 29970, Note_on_c, 0, 55, 60
2, 29985, Note_on_c, 0, 55, 0
2, 29985, Note_on_c, 0, 53, 60
2, 30000, Note_on_c, 0, 53, 0
2, 30000, Note_on_c, 0, 52, 60
2, 30040, Note_on_c, 0, 52, 0
2, 30040, Note_on_c, 0, 53, 60
2, 30080, Note_on_c, 0, 53, 0
2, 30080, Note_on_c, 0, 55, 60
2, 30120, Note_on_c, 0, 55, 0
2, 30120, Note_on_c, 0, 48, 60
2, 30160, Note_on_c, 0, 48, 0
2, 30160, Note_on_c, 0, 50, 60
2, 30200, Note_on_c, 0, 50, 0
2, 30200, Note_on_c, 0, 52, 60
2, 30240, Note_on_c, 0, 52, 0
2, 30240, Note_on_c, 0, 53, 60
2, 30280, Note_on_c, 0, 53, 0
2, 30280, Note_on_c, 0, 53, 61
2, 30320, Note_on_c, 0, 53, 0
2, 30320, Note_on_c, 0, 53, 61
2, 30360, Note_on_c, 0, 53, 0
2, 30360, Note_on_c, 0, 62, 61
2, 30400, Note_on_c, 0, 62, 0
2, 30400, Note_on_c, 0, 61, 62
2, 30440, Note_on_c, 0, 61, 0
2, 30440, Note_on_c, 0, 62, 62
2, 30480, Note_on_c, 0, 62, 0
2, 30480, Note_on_c, 0, 58, 63
2, 30520, Note_on_c, 0, 58, 0
2, 30520, Note_on_c, 0, 57, 63
2, 30560, Note_on_c, 0, 57, 0
2, 30560, Note_on_c, 0, 58, 63
2, 30600, Note_on_c, 0, 58, 0
2, 30600, Note_on_c, 0, 60, 63
2, 30640, Note_on_c, 0, 60, 0
2, 30640, Note_on_c, 0, 59, 63
2, 30680, Note_on_c, 0, 59, 0
2, 30680, Note_on_c, 0, 60, 63
2, 30720, Note_on_c, 0, 60, 0
2, 30720, Note_on_c, 0, 65, 63
2, 30840, Note_on_c, 0, 65, 0
2, 30960, Note_on_c, 0, 52, 58
2, 31200, Note_on_c, 0, 52, 0
2, 31200, Note_on_c, 0, 53, 56
2, 31440, Note_on_c, 0, 53, 0
2, 31440, Note_on_c, 0, 60, 52
2, 31440, Note_on_c, 0, 55, 52
2, 31440, Note_on_c, 0, 52, 52
2, 31680, Note_on_c, 0, 52, 0
2, 31680, Note_on_c, 0, 55, 0
2, 31680, Note_on_c, 0, 60, 0
2, 31680, Note_on_c, 0, 60, 50
2, 31920, Note_on_c, 0, 60, 0
2, 31920, Note_on_c, 0, 60, 100
2, 31960, Note_on_c, 0, 60, 0
2, 31960, Note_on_c, 0, 62, 100
2, 32000, Note_on_c, 0, 62, 0
2, 32000, Note_on_c, 0, 60, 101
2, 32040, Note_on_c, 0, 60, 0
2, 32040, Note_on_c, 0, 58, 101
2, 32080, Note_on_c, 0, 58, 0
2, 32080, Note_on_c, 0, 57, 102
2, 32120, Note_on_c, 0, 57, 0
2, 32120, Note_on_c, 0, 55, 102
2, 32160, Note_on_c, 0, 55, 0
2, 32160, Note_on_c, 0, 53, 103
2, 32200, Note_on_c, 0, 53, 0
2, 32200, Note_on_c, 0, 55, 103
2, 32240, Note_on_c, 0, 55, 0
2, 32240, Note_on_c, 0, 57, 104
2, 32280, Note_on_c, 0, 57, 0
2, 32280, Note_on_c, 0, 58, 104
2, 32320, Note_on_c, 0, 58, 0
2, 32320, Note_on_c, 0, 60, 104
2, 32360, Note_on_c, 0, 60, 0
2, 32360, Note_on_c, 0, 62, 104
2, 32400, Note_on_c, 0, 62, 0
2, 32400, Note_on_c, 0, 60, 104
2, 32520, Note_on_c, 0, 60, 0
2, 32520, Note_on_c, 0, 48, 105
2, 32640, Note_on_c, 0, 48, 0
2, 32640, Note_on_c, 0, 53, 106
2, 32760, Note_on_c, 0, 53, 0
2, 32880, Note_on_c, 0, 53, 108
2, 32880, Note_on_c, 0, 57, 108
2, 33000, Note_on_c, 0, 57, 0
2, 33000, Note_on_c, 0, 53, 0
2, 33120, Note_on_c, 0, 53, 110
2, 33360, Note_on_c, 0, 53, 0
2, 33360, End_track
3, 0, Start_track
3, 0, Title_t, "primo"
3, 0, Control_c, 1, 0, 0
3, 0, Control_c, 1, 7, 127
3, 0, Control_c, 1, 10, 48
3, 0, Control_c, 1, 93, 13
3, 0, Control_c, 1, 91, 14
3, 0, Control_c, 1, 32, 0
3, 0, Program_c, 1, 0
3, 240, Note_on_c, 1, 41, 60
3, 360, Note_on_c, 1, 41, 0
3, 360, Note_on_c, 1, 48, 60
3, 480, Note_on_c, 1, 48, 0
3, 480, Note_on_c, 1, 53, 60
3, 720, Note_on_c, 1, 53, 0
3, 720, Note_on_c, 1, 41, 60
3, 960, Note_on_c, 1, 41, 0
3, 960, Note_on_c, 1, 53, 60
3, 1080, Note_on_c, 1, 53, 0
3, 1320, Note_on_c, 1, 48, 60
3, 1440, Note_on_c, 1, 48, 0
3, 1440, Note_on_c, 1, 41, 60
3, 1560, Note_on_c, 1, 41, 0
3, 1680, Note_on_c, 1, 46, 60
3, 1800, Note_on_c, 1, 46, 0
3, 1800, Note_on_c, 1, 46, 60
3, 1860, Note_on_c, 1, 46, 0
3, 1860, Note_on_c, 1, 47, 60
3, 1920, Note_on_c, 1, 47, 0
3, 1920, Note_on_c, 1, 48, 40
3, 2040, Note_on_c, 1, 48, 0
3, 2040, Note_on_c, 1, 36, 40
3, 2160, Note_on_c, 1, 36, 0
3, 2160, Note_on_c, 1, 41, 40
3, 2280, Note_on_c, 1, 41, 0
3, 2280, Note_on_c, 1, 48, 40
3, 2400, Note_on_c, 1, 48, 0
3, 2400, Note_on_c, 1, 53, 40
3, 2640, Note_on_c, 1, 53, 0
3, 2640, Note_on_c, 1, 41, 40
3, 2880, Note_on_c, 1, 41, 0
3, 2880, Note_on_c, 1, 53, 40
3, 3000, Note_on_c, 1, 53, 0
3, 3120, Note_on_c, 1, 41, 40
3, 3180, Note_on_c, 1, 41, 0
3, 3180, Note_on_c, 1, 53, 40
3, 3240, Note_on_c, 1, 53, 0
3, 3240, Note_on_c, 1, 43, 40
3, 3300, Note_on_c, 1, 43, 0
3, 3300, Note_on_c, 1, 55, 40
3, 3360, Note_on_c, 1, 55, 0
3, 3360, Note_on_c, 1, 53, 40
3, 3480, Note_on_c, 1, 53, 0
3, 3480, Note_on_c, 1, 41, 40
3, 3600, Note_on_c, 1, 41, 0
3, 3600, Note_on_c, 1, 48, 40
3, 3840, Note_on_c, 1, 48, 0
3, 3840, Note_on_c, 1, 41, 40
3, 3960, Note_on_c, 1, 41, 0
3, 4080, Note_on_c, 1, 41, 60
3, 4200, Note_on_c, 1, 41, 0
3, 4200, Note_on_c, 1, 48, 60
3, 4320, Note_on_c, 1, 48, 0
3, 4320, Note_on_c, 1, 53, 60
3, 4560, Note_on_c, 1, 53, 0
3, 4560, Note_on_c, 1, 41, 60
3, 4800, Note_on_c, 1, 41, 0
3, 4800, Note_on_c, 1, 53, 60
3, 4920, Note_on_c, 1, 53, 0
3, 5160, Note_on_c, 1, 48, 60
3, 5280, Note_on_c, 1, 48, 0
3, 5280, Note_on_c, 1, 41, 60
3, 5400, Note_on_c, 1, 41, 0
3, 5520, Note_on_c, 1, 46, 60
3, 5640, Note_on_c, 1, 46, 0
3, 5640, Note_on_c, 1, 46, 60
3, 5700, Note_on_c, 1, 46, 0
3, 5700, Note_on_c, 1, 47, 60
3, 5760, Note_on_c, 1, 47, 0
3, 5760, Note_on_c, 1, 48, 40
3, 5880, Note_on_c, 1, 48, 0
3, 5880, Note_on_c, 1, 36, 40
3, 6000, Note_on_c, 1, 36, 0
3, 6000, Note_on_c, 1, 41, 40
3, 6120, Note_on_c, 1, 41, 0
3, 6120, Note_on_c, 1, 48, 40
3, 6240, Note_on_c, 1, 48, 0
3, 6240, Note_on_c, 1, 53, 40
3, 6480, Note_on_c, 1, 53, 0
3, 6480, Note_on_c, 1, 41, 40
3, 6720, Note_on_c, 1, 41, 0
3, 6720, Note_on_c, 1, 53, 40
3, 6840, Note_on_c, 1, 53, 0
3, 6960, Note_on_c, 1, 41, 40
3, 7020, Note_on_c, 1, 41, 0
3, 7020, Note_on_c, 1, 53, 40
3, 7080, Note_on_c, 1, 53, 0
3, 7080, Note_on_c, 1, 43, 40
3, 7140, Note_on_c, 1, 43, 0
3, 7140, Note_on_c, 1, 55, 40
3, 7200, Note_on_c, 1, 55, 0
3, 7200, Note_on_c, 1, 53, 40
3, 7320, Note_on_c, 1, 53, 0
3, 7320, Note_on_c, 1, 41, 40
3, 7440, Note_on_c, 1, 41, 0
3, 7440, Note_on_c, 1, 48, 40
3, 7680, Note_on_c, 1, 48, 0
3, 7680, Note_on_c, 1, 41, 40
3, 7800, Note_on_c, 1, 41, 0
3, 8160, Note_on_c, 1, 48, 60
3, 8400, Note_on_c, 1, 48, 0
3, 8400, Note_on_c, 1, 36, 60
3, 8640, Note_on_c, 1, 36, 0
3, 8640, Note_on_c, 1, 53, 60
3, 8880, Note_on_c, 1, 53, 0
3, 8880, Note_on_c, 1, 41, 60
3, 9120, Note_on_c, 1, 41, 0
3, 9120, Note_on_c, 1, 48, 60
3, 9360, Note_on_c, 1, 48, 0
3, 9360, Note_on_c, 1, 36, 60
3, 9600, Note_on_c, 1, 36, 0
3, 9600, Note_on_c, 1, 53, 60
3, 9840, Note_on_c, 1, 53, 0
3, 9840, Note_on_c, 1, 45, 80
3, 9960, Note_on_c, 1, 45, 0
3, 9960, Note_on_c, 1, 41, 80
3, 10080, Note_on_c, 1, 41, 0
3, 10080, Note_on_c, 1, 40, 80
3, 10200, Note_on_c, 1, 40, 0
3, 10200, Note_on_c, 1, 36, 80
3, 10320, Note_on_c, 1, 36, 0
3, 10320, Note_on_c, 1, 41, 80
3, 10440, Note_on_c, 1, 41, 0
3, 10440, Note_on_c, 1, 36, 80
3, 10560, Note_on_c, 1, 36, 0
3, 10560, Note_on_c, 1, 40, 80
3, 10680, Note_on_c, 1, 40, 0
3, 10680, Note_on_c, 1, 36, 80
3, 10800, Note_on_c, 1, 36, 0
3, 10800, Note_on_c, 1, 33, 80
3, 10800, Note_on_c, 1, 45, 80
3, 10920, Note_on_c, 1, 45, 0
3, 10920, Note_on_c, 1, 33, 0
3, 10920, Note_on_c, 1, 35, 80
3, 10920, Note_on_c, 1, 47, 80
3, 11040, Note_on_c, 1, 47, 0
3, 11040, Note_on_c, 1, 35, 0
3, 11040, Note_on_c, 1, 36, 80
3, 11040, Note_on_c, 1, 48, 80
3, 11160, Note_on_c, 1, 48, 0
3, 11160, Note_on_c, 1, 36, 0
3, 11160, Note_on_c, 1, 33, 80
3, 11160, Note_on_c, 1, 45, 80
3, 11220, Note_on_c, 1, 45, 0
3, 11220, Note_on_c, 1, 33, 0
3, 11220, Note_on_c, 1, 29, 80
3, 11220, Note_on_c, 1, 41, 80
3, 11280, Note_on_c, 1, 41, 0
3, 11280, Note_on_c, 1, 29, 0
3, 11280, Note_on_c, 1, 31, 100
3, 11280, Note_on_c, 1, 43, 100
3, 11400, Note_on_c, 1, 43, 0
3, 11400, Note_on_c, 1, 31, 0
3, 11400, Note_on_c, 1, 31, 100
3, 11400, Note_on_c, 1, 43, 100
3, 11520, Note_on_c, 1, 43, 0
3, 11520, Note_on_c, 1, 31, 0
3, 11520, Note_on_c, 1, 36, 60
3, 11520, Note_on_c, 1, 48, 60
3, 11640, Note_on_c, 1, 48, 0
3, 11640, Note_on_c, 1, 36, 0
3, 11760, Note_on_c, 1, 41, 58
3, 11880, Note_on_c, 1, 41, 0
3, 11880, Note_on_c, 1, 48, 57
3, 12000, Note_on_c, 1, 48, 0
3, 12000, Note_on_c, 1, 53, 55
3, 12240, Note_on_c, 1, 53, 0
3, 12240, Note_on_c, 1, 41, 53
3, 12480, Note_on_c, 1, 41, 0
3, 12480, Note_on_c, 1, 53, 50
3, 12600, Note_on_c, 1, 53, 0
3, 12840, Note_on_c, 1, 48, 46
3, 12960, Note_on_c, 1, 48, 0
3, 12960, Note_on_c, 1, 41, 45
3, 13080, Note_on_c, 1, 41, 0
3, 13200, Note_on_c, 1, 46, 42
3, 13320, Note_on_c, 1, 46, 0
3, 13320, Note_on_c, 1, 47, 41
3, 13440, Note_on_c, 1, 47, 0
3, 13440, Note_on_c, 1, 48, 45
3, 13560, Note_on_c, 1, 48, 0
3, 13560, Note_on_c, 1, 36, 46
3, 13680, Note_on_c, 1, 36, 0
3, 13680, Note_on_c, 1, 41, 46
3, 13800, Note_on_c, 1, 41, 0
3, 13800, Note_on_c, 1, 48, 46
3, 13920, Note_on_c, 1, 48, 0
3, 13920, Note_on_c, 1, 53, 46
3, 14160, Note_on_c, 1, 53, 0
3, 14160, Note_on_c, 1, 41, 46
3, 14400, Note_on_c, 1, 41, 0
3, 14400, Note_on_c, 1, 53, 46
3, 14520, Note_on_c, 1, 53, 0
3, 14640, Note_on_c, 1, 41, 46
3, 14700, Note_on_c, 1, 41, 0
3, 14700, Note_on_c, 1, 53, 46
3, 14760, Note_on_c, 1, 53, 0
3, 14760, Note_on_c, 1, 43, 46
3, 14820, Note_on_c, 1, 43, 0
3, 14820, Note_on_c, 1, 55, 47
3, 14880, Note_on_c, 1, 55, 0
3, 14880, Note_on_c, 1, 53, 48
3, 15000, Note_on_c, 1, 53, 0
3, 15000, Note_on_c, 1, 41, 50
3, 15120, Note_on_c, 1, 41, 0
3, 15120, Note_on_c, 1, 48, 51
3, 15360, Note_on_c, 1, 48, 0
3, 15840, Note_on_c, 1, 34, 51
3, 15900, Note_on_c, 1, 34, 0
3, 15900, Note_on_c, 1, 38, 51
3, 15960, Note_on_c, 1, 38, 0
3, 15960, Note_on_c, 1, 41, 51
3, 16020, Note_on_c, 1, 41, 0
3, 16020, Note_on_c, 1, 46, 52
3, 16080, Note_on_c, 1, 46, 0
3, 16080, Note_on_c, 1, 48, 52
3, 16140, Note_on_c, 1, 48, 0
3, 16140, Note_on_c, 1, 45, 53
3, 16200, Note_on_c, 1, 45, 0
3, 16200, Note_on_c, 1, 41, 53
3, 16260, Note_on_c, 1, 41, 0
3, 16260, Note_on_c, 1, 39, 53
3, 16320, Note_on_c, 1, 39, 0
3, 16320, Note_on_c, 1, 38, 54
3, 16440, Note_on_c, 1, 38, 0
3, 16440, Note_on_c, 1, 46, 56
3, 16560, Note_on_c, 1, 46, 0
3, 16560, Note_on_c, 1, 46, 57
3, 16620, Note_on_c, 1, 46, 0
3, 16620, Note_on_c, 1, 34, 57
3, 16680, Note_on_c, 1, 34, 0
3, 16680, Note_on_c, 1, 46, 58
3, 16740, Note_on_c, 1, 46, 0
3, 16740, Note_on_c, 1, 34, 58
3, 16800, Note_on_c, 1, 34, 0
3, 16800, Note_on_c, 1, 46, 58
3, 16860, Note_on_c, 1, 46, 0
3, 16860, Note_on_c, 1, 34, 58
3, 16920, Note_on_c, 1, 34, 0
3, 16920, Note_on_c, 1, 46, 58
3, 16980, Note_on_c, 1, 46, 0
3, 16980, Note_on_c, 1, 34, 58
3, 17040, Note_on_c, 1, 34, 0
3, 17040, Note_on_c, 1, 39, 58
3, 17100, Note_on_c, 1, 39, 0
3, 17100, Note_on_c, 1, 41, 58
3, 17160, Note_on_c, 1, 41, 0
3, 17160, Note_on_c, 1, 43, 58
3, 17220, Note_on_c, 1, 43, 0
3, 17220, Note_on_c, 1, 40, 58
3, 17280, Note_on_c, 1, 40, 0
3, 17280, Note_on_c, 1, 41, 58
3, 17520, Note_on_c, 1, 41, 0
3, 17760, Note_on_c, 1, 34, 65
3, 17820, Note_on_c, 1, 34, 0
3, 17820, Note_on_c, 1, 38, 65
3, 17880, Note_on_c, 1, 38, 0
3, 17880, Note_on_c, 1, 41, 66
3, 17940, Note_on_c, 1, 41, 0
3, 17940, Note_on_c, 1, 46, 67
3, 18000, Note_on_c, 1, 46, 0
3, 18000, Note_on_c, 1, 41, 67
3, 18240, Note_on_c, 1, 41, 0
3, 18240, Note_on_c, 1, 38, 76
3, 18360, Note_on_c, 1, 38, 0
3, 18360, Note_on_c, 1, 46, 74
3, 18480, Note_on_c, 1, 46, 0
3, 18480, Note_on_c, 1, 46, 74
3, 18540, Note_on_c, 1, 46, 0
3, 18540, Note_on_c, 1, 48, 74
3, 18600, Note_on_c, 1, 48, 0
3, 18600, Note_on_c, 1, 50, 74
3, 18660, Note_on_c, 1, 50, 0
3, 18660, Note_on_c, 1, 51, 74
3, 18720, Note_on_c, 1, 51, 0
3, 18720, Note_on_c, 1, 53, 74
3, 18960, Note_on_c, 1, 53, 0
3, 19080, Note_on_c, 1, 41, 74
3, 19200, Note_on_c, 1, 41, 0
3, 19200, Note_on_c, 1, 46, 74
3, 19320, Note_on_c, 1, 46, 0
3, 19440, Note_on_c, 1, 53, 74
3, 19560, Note_on_c, 1, 53, 0
3, 19560, Note_on_c, 1, 53, 74
3, 19680, Note_on_c, 1, 53, 0
3, 19680, Note_on_c, 1, 41, 74
3, 19680, Note_on_c, 1, 53, 74
3, 19920, Note_on_c, 1, 53, 0
3, 19920, Note_on_c, 1, 41, 0
3, 19920, Note_on_c, 1, 41, 74
3, 19920, Note_on_c, 1, 53, 74
3, 20160, Note_on_c, 1, 53, 0
3, 20160, Note_on_c, 1, 41, 0
3, 20160, Note_on_c, 1, 34, 75
3, 20220, Note_on_c, 1, 34, 0
3, 20220, Note_on_c, 1, 46, 75
3, 20280, Note_on_c, 1, 46, 0
3, 20280, Note_on_c, 1, 34, 75
3, 20340, Note_on_c, 1, 34, 0
3, 20340, Note_on_c, 1, 46, 75
3, 20400, Note_on_c, 1, 46, 0
3, 20400, Note_on_c, 1, 34, 75
3, 20460, Note_on_c, 1, 34, 0
3, 20460, Note_on_c, 1, 46, 75
3, 20520, Note_on_c, 1, 46, 0
3, 20520, Note_on_c, 1, 34, 75
3, 20580, Note_on_c, 1, 34, 0
3, 20580, Note_on_c, 1, 46, 75
3, 20640, Note_on_c, 1, 46, 0
3, 20640, Note_on_c, 1, 53, 75
3, 20640, Note_on_c, 1, 41, 75
3, 20880, Note_on_c, 1, 41, 0
3, 20880, Note_on_c, 1, 53, 0
3, 20880, Note_on_c, 1, 41, 74
3, 20880, Note_on_c, 1, 53, 74
3, 21120, Note_on_c, 1, 53, 0
3, 21120, Note_on_c, 1, 41, 0
3, 21120, Note_on_c, 1, 34, 74
3, 21180, Note_on_c, 1, 34, 0
3, 21180, Note_on_c, 1, 46, 74
3, 21240, Note_on_c, 1, 46, 0
3, 21240, Note_on_c, 1, 34, 74
3, 21300, Note_on_c, 1, 34, 0
3, 21300, Note_on_c, 1, 46, 74
3, 21360, Note_on_c, 1, 46, 0
3, 21360, Note_on_c, 1, 34, 74
3, 21360, Note_on_c, 1, 46, 74
3, 21480, Note_on_c, 1, 46, 0
3, 21480, Note_on_c, 1, 34, 0
3, 21480, Note_on_c, 1, 46, 75
3, 21480, Note_on_c, 1, 34, 75
3, 21600, Note_on_c, 1, 34, 0
3, 21600, Note_on_c, 1, 46, 0
3, 21600, Note_on_c, 1, 46, 77
3, 21600, Note_on_c, 1, 34, 77
3, 21840, Note_on_c, 1, 34, 0
3, 21840, Note_on_c, 1, 46, 0
3, 21840, Note_on_c, 1, 34, 77
3, 21840, Note_on_c, 1, 46, 77
3, 22080, Note_on_c, 1, 46, 0
3, 22080, Note_on_c, 1, 34, 0
3, 22080, Note_on_c, 1, 34, 78
3, 22080, Note_on_c, 1, 46, 78
3, 22320, Note_on_c, 1, 46, 0
3, 22320, Note_on_c, 1, 34, 0
3, 22320, Note_on_c, 1, 46, 79
3, 22380, Note_on_c, 1, 46, 0
3, 22380, Note_on_c, 1, 48, 79
3, 22440, Note_on_c, 1, 48, 0
3, 22440, Note_on_c, 1, 50, 80
3, 22500, Note_on_c, 1, 50, 0
3, 22500, Note_on_c, 1, 51, 81
3, 22560, Note_on_c, 1, 51, 0
3, 22560, Note_on_c, 1, 53, 81
3, 22680, Note_on_c, 1, 53, 0
3, 22680, Note_on_c, 1, 41, 81
3, 22800, Note_on_c, 1, 41, 0
3, 22800, Note_on_c, 1, 41, 81
3, 22920, Note_on_c, 1, 41, 0
3, 22920, Note_on_c, 1, 41, 81
3, 23040, Note_on_c, 1, 41, 0
3, 23040, Note_on_c, 1, 46, 81
3, 23160, Note_on_c, 1, 46, 0
3, 23520, Note_on_c, 1, 36, 80
3, 24000, Note_on_c, 1, 36, 0
3, 24480, Note_on_c, 1, 43, 71
3, 24960, Note_on_c, 1, 43, 0
3, 25200, Note_on_c, 1, 41, 63
3, 25320, Note_on_c, 1, 41, 0
3, 25320, Note_on_c, 1, 48, 63
3, 25440, Note_on_c, 1, 48, 0
3, 25440, Note_on_c, 1, 53, 63
3, 25680, Note_on_c, 1, 53, 0
3, 25680, Note_on_c, 1, 41, 63
3, 25920, Note_on_c, 1, 41, 0
3, 25920, Note_on_c, 1, 53, 63
3, 26040, Note_on_c, 1, 53, 0
3, 26280, Note_on_c, 1, 48, 63
3, 26400, Note_on_c, 1, 48, 0
3, 26400, Note_on_c, 1, 41, 62
3, 26520, Note_on_c, 1, 41, 0
3, 26640, Note_on_c, 1, 46, 61
3, 26760, Note_on_c, 1, 46, 0
3, 26760, Note_on_c, 1, 46, 61
3, 26820, Note_on_c, 1, 46, 0
3, 26820, Note_on_c, 1, 47, 61
3, 26880, Note_on_c, 1, 47, 0
3, 26880, Note_on_c, 1, 48, 61
3, 27000, Note_on_c, 1, 48, 0
3, 27000, Note_on_c, 1, 36, 61
3, 27120, Note_on_c, 1, 36, 0
3, 27120, Note_on_c, 1, 41, 61
3, 27240, Note_on_c, 1, 41, 0
3, 27240, Note_on_c, 1, 48, 61
3, 27360, Note_on_c, 1, 48, 0
3, 27360, Note_on_c, 1, 53, 61
3, 27600, Note_on_c, 1, 53, 0
3, 27600, Note_on_c, 1, 41, 61
3, 27840, Note_on_c, 1, 41, 0
3, 27840, Note_on_c, 1, 53, 61
3, 27960, Note_on_c, 1, 53, 0
3, 28080, Note_on_c, 1, 41, 64
3, 28140, Note_on_c, 1, 41, 0
3, 28140, Note_on_c, 1, 53, 64
3, 28200, Note_on_c, 1, 53, 0
3, 28200, Note_on_c, 1, 43, 64
3, 28260, Note_on_c, 1, 43, 0
3, 28260, Note_on_c, 1, 55, 64
3, 28320, Note_on_c, 1, 55, 0
3, 28320, Note_on_c, 1, 53, 64
3, 28440, Note_on_c, 1, 53, 0
3, 28440, Note_on_c, 1, 41, 64
3, 28560, Note_on_c, 1, 41, 0
3, 28560, Note_on_c, 1, 48, 64
3, 28800, Note_on_c, 1, 48, 0
3, 28800, Note_on_c, 1, 53, 63
3, 28920, Note_on_c, 1, 53, 0
3, 28920, Note_on_c, 1, 41, 61
3, 29040, Note_on_c, 1, 41, 0
3, 29040, Note_on_c, 1, 29, 60
3, 29040, Note_on_c, 1, 41, 60
3, 29160, Note_on_c, 1, 41, 0
3, 29160, Note_on_c, 1, 29, 0
3, 29160, Note_on_c, 1, 41, 60
3, 29160, Note_on_c, 1, 29, 60
3, 29280, Note_on_c, 1, 29, 0
3, 29280, Note_on_c, 1, 41, 0
3, 29280, Note_on_c, 1, 29, 60
3, 29280, Note_on_c, 1, 41, 60
3, 29520, Note_on_c, 1, 41, 0
3, 29520, Note_on_c, 1, 29, 0
3, 29520, Note_on_c, 1, 29, 60
3, 29520, Note_on_c, 1, 41, 60
3, 29640, Note_on_c, 1, 41, 0
3, 29640, Note_on_c, 1, 29, 0
3, 29640, Note_on_c, 1, 29, 60
3, 29640, Note_on_c, 1, 41, 60
3, 29760, Note_on_c, 1, 41, 0
3, 29760, Note_on_c, 1, 29, 0
3, 29760, Note_on_c, 1, 41, 60
3, 29760, Note_on_c, 1, 53, 60
3, 30000, Note_on_c, 1, 53, 0
3, 30000, Note_on_c, 1, 41, 0
3, 30000, Note_on_c, 1, 40, 60
3, 30040, Note_on_c, 1, 40, 0
3, 30040, Note_on_c, 1, 41, 60
3, 30080, Note_on_c, 1, 41, 0
3, 30080, Note_on_c, 1, 43, 60
3, 30120, Note_on_c, 1, 43, 0
3, 30120, Note_on_c, 1, 36, 60
3, 30160, Note_on_c, 1, 36, 0
3, 30160, Note_on_c, 1, 38, 60
3, 30200, Note_on_c, 1, 38, 0
3, 30200, Note_on_c, 1, 40, 61
3, 30240, Note_on_c, 1, 40, 0
3, 30240, Note_on_c, 1, 41, 61
3, 30280, Note_on_c, 1, 41, 0
3, 30280, Note_on_c, 1, 40, 62
3, 30320, Note_on_c, 1, 40, 0
3, 30320, Note_on_c, 1, 41, 62
3, 30360, Note_on_c, 1, 41, 0
3, 30360, Note_on_c, 1, 50, 62
3, 30400, Note_on_c, 1, 50, 0
3, 30400, Note_on_c, 1, 49, 62
3, 30440, Note_on_c, 1, 49, 0
3, 30440, Note_on_c, 1, 50, 62
3, 30480, Note_on_c, 1, 50, 0
3, 30480, Note_on_c, 1, 46, 62
3, 30520, Note_on_c, 1, 46, 0
3, 30520, Note_on_c, 1, 45, 62
3, 30560, Note_on_c, 1, 45, 0
3, 30560, Note_on_c, 1, 46, 62
3, 30600, Note_on_c, 1, 46, 0
3, 30600, Note_on_c, 1, 48, 62
3, 30640, Note_on_c, 1, 48, 0
3, 30640, Note_on_c, 1, 47, 62
3, 30680, Note_on_c, 1, 47, 0
3, 30680, Note_on_c, 1, 48, 63
3, 30720, Note_on_c, 1, 48, 0
3, 30720, Note_on_c, 1, 53, 63
3, 30840, Note_on_c, 1, 53, 0
3, 30960, Note_on_c, 1, 36, 68
3, 31200, Note_on_c, 1, 36, 0
3, 31200, Note_on_c, 1, 41, 71
3, 31440, Note_on_c, 1, 41, 0
3, 31440, Note_on_c, 1, 48, 72
3, 31680, Note_on_c, 1, 48, 0
3, 31680, Note_on_c, 1, 41, 104
3, 31920, Note_on_c, 1, 41, 0
3, 31920, Note_on_c, 1, 48, 107
3, 32160, Note_on_c, 1, 48, 0
3, 32160, Note_on_c, 1, 41, 109
3, 32200, Note_on_c, 1, 41, 0
3, 32200, Note_on_c, 1, 43, 109
3, 32240, Note_on_c, 1, 43, 0
3, 32240, Note_on_c, 1, 45, 109
3, 32280, Note_on_c, 1, 45, 0
3, 32280, Note_on_c, 1, 46, 109
3, 32320, Note_on_c, 1, 46, 0
3, 32320, Note_on_c, 1, 48, 109
3, 32360, Note_on_c, 1, 48, 0
3, 32360, Note_on_c, 1, 50, 109
3, 32400, Note_on_c, 1, 50, 0
3, 32400, Note_on_c, 1, 48, 109
3, 32520, Note_on_c, 1, 48, 0
3, 32520, Note_on_c, 1, 36, 111
3, 32640, Note_on_c, 1, 36, 0
3, 32640, Note_on_c, 1, 41, 112
3, 32760, Note_on_c, 1, 41, 0
3, 32880, Note_on_c, 1, 29, 115
3, 32880, Note_on_c, 1, 41, 115
3, 33000, Note_on_c, 1, 41, 0
3, 33000, Note_on_c, 1, 29, 0
3, 33120, Note_on_c, 1, 41, 118
3, 33360, Note_on_c, 1, 41, 0
3, 33360, End_track
4, 0, Start_track
4, 0, Title_t, "secondo"
4, 0, Control_c, 2, 0, 0
4, 0, Control_c, 2, 7, 127
4, 0, Control_c, 2, 10, 77
4, 0, Control_c, 2, 93, 18
4, 0, Control_c, 2, 91, 21
4, 0, Control_c, 2, 32, 0
4, 0, Program_c, 2, 0
4, 240, Note_on_c, 2, 72, 60
4, 360, Note_on_c, 2, 72, 0
4, 360, Note_on_c, 2, 72, 60
4, 480, Note_on_c, 2, 72, 0
4, 480, Note_on_c, 2, 72, 60
4, 660, Note_on_c, 2, 72, 0
4, 660, Note_on_c, 2, 77, 60
4, 720, Note_on_c, 2, 77, 0
4, 720, Note_on_c, 2, 69, 60
4, 810, Note_on_c, 2, 69, 0
4, 810, Note_on_c, 2, 70, 60
4, 840, Note_on_c, 2, 70, 0
4, 840, Note_on_c, 2, 72, 60
4, 855, Note_on_c, 2, 72, 0
4, 855, Note_on_c, 2, 70, 60
4, 870, Note_on_c, 2, 70, 0
4, 870, Note_on_c, 2, 72, 60
4, 885, Note_on_c, 2, 72, 0
4, 885, Note_on_c, 2, 70, 60
4, 900, Note_on_c, 2, 70, 0
4, 900, Note_on_c, 2, 72, 60
4, 915, Note_on_c, 2, 72, 0
4, 915, Note_on_c, 2, 70, 60
4, 930, Note_on_c, 2, 70, 0
4, 930, Note_on_c, 2, 69, 60
4, 945, Note_on_c, 2, 69, 0
4, 945, Note_on_c, 2, 70, 60
4, 960, Note_on_c, 2, 70, 0
4, 960, Note_on_c, 2, 72, 60
4, 1080, Note_on_c, 2, 72, 0
4, 1080, Note_on_c, 2, 69, 60
4, 1200, Note_on_c, 2, 69, 0
4, 1200, Note_on_c, 2, 65, 60
4, 1290, Note_on_c, 2, 65, 0
4, 1290, Note_on_c, 2, 67, 60
4, 1320, Note_on_c, 2, 67, 0
4, 1320, Note_on_c, 2, 69, 60
4, 1335, Note_on_c, 2, 69, 0
4, 1335, Note_on_c, 2, 67, 60
4, 1350, Note_on_c, 2, 67, 0
4, 1350, Note_on_c, 2, 69, 60
4, 1365, Note_on_c, 2, 69, 0
4, 1365, Note_on_c, 2, 67, 60
4, 1380, Note_on_c, 2, 67, 0
4, 1380, Note_on_c, 2, 69, 60
4, 1395, Note_on_c, 2, 69, 0
4, 1395, Note_on_c, 2, 67, 60
4, 1410, Note_on_c, 2, 67, 0
4, 1410, Note_on_c, 2, 65, 60
4, 1425, Note_on_c, 2, 65, 0
4, 1425, Note_on_c, 2, 67, 60
4, 1440, Note_on_c, 2, 67, 0
4, 1440, Note_on_c, 2, 69, 60
4, 1560, Note_on_c, 2, 69, 0
4, 1620, Note_on_c, 2, 72, 60
4, 1680, Note_on_c, 2, 72, 0
4, 1680, Note_on_c, 2, 70, 60
4, 1740, Note_on_c, 2, 70, 0
4, 1740, Note_on_c, 2, 69, 60
4, 1800, Note_on_c, 2, 69, 0
4, 1800, Note_on_c, 2, 67, 60
4, 1860, Note_on_c, 2, 67, 0
4, 1860, Note_on_c, 2, 65, 60
4, 1920, Note_on_c, 2, 65, 0
4, 1920, Note_on_c, 2, 65, 40
4, 2040, Note_on_c, 2, 65, 0
4, 2040, Note_on_c, 2, 64, 40
4, 2160, Note_on_c, 2, 64, 0
4, 2160, Note_on_c, 2, 72, 40
4, 2280, Note_on_c, 2, 72, 0
4, 2280, Note_on_c, 2, 72, 40
4, 2400, Note_on_c, 2, 72, 0
4, 2400, Note_on_c, 2, 72, 40
4, 2580, Note_on_c, 2, 72, 0
4, 2580, Note_on_c, 2, 77, 40
4, 2640, Note_on_c, 2, 77, 0
4, 2640, Note_on_c, 2, 69, 40
4, 2730, Note_on_c, 2, 69, 0
4, 2730, Note_on_c, 2, 70, 40
4, 2760, Note_on_c, 2, 70, 0
4, 2760, Note_on_c, 2, 72, 40
4, 2775, Note_on_c, 2, 72, 0
4, 2775, Note_on_c, 2, 70, 40
4, 2790, Note_on_c, 2, 70, 0
4, 2790, Note_on_c, 2, 72, 40
4, 2805, Note_on_c, 2, 72, 0
4, 2805, Note_on_c, 2, 70, 40
4, 2820, Note_on_c, 2, 70, 0
4, 2820, Note_on_c, 2, 72, 40
4, 2835, Note_on_c, 2, 72, 0
4, 2835, Note_on_c, 2, 70, 40
4, 2850, Note_on_c, 2, 70, 0
4, 2850, Note_on_c, 2, 69, 40
4, 2865, Note_on_c, 2, 69, 0
4, 2865, Note_on_c, 2, 70, 40
4, 2880, Note_on_c, 2, 70, 0
4, 2880, Note_on_c, 2, 72, 40
4, 3000, Note_on_c, 2, 72, 0
4, 3000, Note_on_c, 2, 69, 40
4, 3120, Note_on_c, 2, 69, 0
4, 3120, Note_on_c, 2, 77, 40
4, 3160, Note_on_c, 2, 77, 0
4, 3160, Note_on_c, 2, 81, 40
4, 3200, Note_on_c, 2, 81, 0
4, 3200, Note_on_c, 2, 77, 40
4, 3240, Note_on_c, 2, 77, 0
4, 3240, Note_on_c, 2, 76, 40
4, 3280, Note_on_c, 2, 76, 0
4, 3280, Note_on_c, 2, 79, 40
4, 3320, Note_on_c, 2, 79, 0
4, 3320, Note_on_c, 2, 76, 40
4, 3360, Note_on_c, 2, 76, 0
4, 3360, Note_on_c, 2, 77, 40
4, 3400, Note_on_c, 2, 77, 0
4, 3400, Note_on_c, 2, 81, 40
4, 3440, Note_on_c, 2, 81, 0
4, 3440, Note_on_c, 2, 84, 40
4, 3480, Note_on_c, 2, 84, 0
4, 3480, Note_on_c, 2, 84, 40
4, 3520, Note_on_c, 2, 84, 0
4, 3520, Note_on_c, 2, 84, 40
4, 3560, Note_on_c, 2, 84, 0
4, 3560, Note_on_c, 2, 84, 40
4, 3600, Note_on_c, 2, 84, 0
4, 3600, Note_on_c, 2, 84, 40
4, 3640, Note_on_c, 2, 84, 0
4, 3640, Note_on_c, 2, 84, 40
4, 3680, Note_on_c, 2, 84, 0
4, 3680, Note_on_c, 2, 84, 40
4, 3720, Note_on_c, 2, 84, 0
4, 3720, Note_on_c, 2, 84, 40
4, 3760, Note_on_c, 2, 84, 0
4, 3760, Note_on_c, 2, 86, 40
4, 3800, Note_on_c, 2, 86, 0
4, 3800, Note_on_c, 2, 84, 40
4, 3840, Note_on_c, 2, 84, 0
4, 3840, Note_on_c, 2, 77, 40
4, 3960, Note_on_c, 2, 77, 0
4, 4080, Note_on_c, 2, 72, 60
4, 4200, Note_on_c, 2, 72, 0
4, 4200, Note_on_c, 2, 72, 60
4, 4320, Note_on_c, 2, 72, 0
4, 4320, Note_on_c, 2, 72, 60
4, 4500, Note_on_c, 2, 72, 0
4, 4500, Note_on_c, 2, 77, 60
4, 4560, Note_on_c, 2, 77, 0
4, 4560, Note_on_c, 2, 69, 60
4, 4650, Note_on_c, 2, 69, 0
4, 4650, Note_on_c, 2, 70, 60
4, 4680, Note_on_c, 2, 70, 0
4, 4680, Note_on_c, 2, 72, 60
4, 4695, Note_on_c, 2, 72, 0
4, 4695, Note_on_c, 2, 70, 60
4, 4710, Note_on_c, 2, 70, 0
4, 4710, Note_on_c, 2, 72, 60
4, 4725, Note_on_c, 2, 72, 0
4, 4725, Note_on_c, 2, 70, 60
4, 4740, Note_on_c, 2, 70, 0
4, 4740, Note_on_c, 2, 72, 60
4, 4755, Note_on_c, 2, 72, 0
4, 4755, Note_on_c, 2, 70, 60
4, 4770, Note_on_c, 2, 70, 0
4, 4770, Note_on_c, 2, 69, 60
4, 4785, Note_on_c, 2, 69, 0
4, 4785, Note_on_c, 2, 70, 60
4, 4800, Note_on_c, 2, 70, 0
4, 4800, Note_on_c, 2, 72, 60
4, 4920, Note_on_c, 2, 72, 0
4, 4920, Note_on_c, 2, 69, 60
4, 5040, Note_on_c, 2, 69, 0
4, 5040, Note_on_c, 2, 65, 60
4, 5130, Note_on_c, 2, 65, 0
4, 5130, Note_on_c, 2, 67, 60
4, 5160, Note_on_c, 2, 67, 0
4, 5160, Note_on_c, 2, 69, 60
4, 5175, Note_on_c, 2, 69, 0
4, 5175, Note_on_c, 2, 67, 60
4, 5190, Note_on_c, 2, 67, 0
4, 5190, Note_on_c, 2, 69, 60
4, 5205, Note_on_c, 2, 69, 0
4, 5205, Note_on_c, 2, 67, 60
4, 5220, Note_on_c, 2, 67, 0
4, 5220, Note_on_c, 2, 69, 60
4, 5235, Note_on_c, 2, 69, 0
4, 5235, Note_on_c, 2, 67, 60
4, 5250, Note_on_c, 2, 67, 0
4, 5250, Note_on_c, 2, 65, 60
4, 5265, Note_on_c, 2, 65, 0
4, 5265, Note_on_c, 2, 67, 60
4, 5280, Note_on_c, 2, 67, 0
4, 5280, Note_on_c, 2, 69, 60
4, 5400, Note_on_c, 2, 69, 0
4, 5460, Note_on_c, 2, 72, 60
4, 5520, Note_on_c, 2, 72, 0
4, 5520, Note_on_c, 2, 70, 60
4, 5580, Note_on_c, 2, 70, 0
4, 5580, Note_on_c, 2, 69, 60
4, 5640, Note_on_c, 2, 69, 0
4, 5640, Note_on_c, 2, 67, 60
4, 5700, Note_on_c, 2, 67, 0
4, 5700, Note_on_c, 2, 65, 60
4, 5760, Note_on_c, 2, 65, 0
4, 5760, Note_on_c, 2, 65, 40
4, 5880, Note_on_c, 2, 65, 0
4, 5880, Note_on_c, 2, 64, 40
4, 6000, Note_on_c, 2, 64, 0
4, 6000, Note_on_c, 2, 72, 40
4, 6120, Note_on_c, 2, 72, 0
4, 6120, Note_on_c, 2, 72, 40
4, 6240, Note_on_c, 2, 72, 0
4, 6240, Note_on_c, 2, 72, 40
4, 6420, Note_on_c, 2, 72, 0
4, 6420, Note_on_c, 2, 77, 40
4, 6480, Note_on_c, 2, 77, 0
4, 6480, Note_on_c, 2, 69, 40
4, 6570, Note_on_c, 2, 69, 0
4, 6570, Note_on_c, 2, 70, 40
4, 6600, Note_on_c, 2, 70, 0
4, 6600, Note_on_c, 2, 72, 40
4, 6615, Note_on_c, 2, 72, 0
4, 6615, Note_on_c, 2, 70, 40
4, 6630, Note_on_c, 2, 70, 0
4, 6630, Note_on_c, 2, 72, 40
4, 6645, Note_on_c, 2, 72, 0
4, 6645, Note_on_c, 2, 70, 40
4, 6660, Note_on_c, 2, 70, 0
4, 6660, Note_on_c, 2, 72, 40
4, 6675, Note_on_c, 2, 72, 0
4, 6675, Note_on_c, 2, 70, 40
4, 6690, Note_on_c, 2, 70, 0
4, 6690, Note_on_c, 2, 69, 40
4, 6705, Note_on_c, 2, 69, 0
4, 6705, Note_on_c, 2, 70, 40
4, 6720, Note_on_c, 2, 70, 0
4, 6720, Note_on_c, 2, 72, 40
4, 6840, Note_on_c, 2, 72, 0
4, 6840, Note_on_c, 2, 69, 40
4, 6960, Note_on_c, 2, 69, 0
4, 6960, Note_on_c, 2, 77, 40
4, 7000, Note_on_c, 2, 77, 0
4, 7000, Note_on_c, 2, 81, 40
4, 7040, Note_on_c, 2, 81, 0
4, 7040, Note_on_c, 2, 77, 40
4, 7080, Note_on_c, 2, 77, 0
4, 7080, Note_on_c, 2, 76, 40
4, 7120, Note_on_c, 2, 76, 0
4, 7120, Note_on_c, 2, 79, 40
4, 7160, Note_on_c, 2, 79, 0
4, 7160, Note_on_c, 2, 76, 40
4, 7200, Note_on_c, 2, 76, 0
4, 7200, Note_on_c, 2, 77, 40
4, 7240, Note_on_c, 2, 77, 0
4, 7240, Note_on_c, 2, 81, 40
4, 7280, Note_on_c, 2, 81, 0
4, 7280, Note_on_c, 2, 84, 40
4, 7320, Note_on_c, 2, 84, 0
4, 7320, Note_on_c, 2, 84, 40
4, 7360, Note_on_c, 2, 84, 0
4, 7360, Note_on_c, 2, 84, 40
4, 7400, Note_on_c, 2, 84, 0
4, 7400, Note_on_c, 2, 84, 40
4, 7440, Note_on_c, 2, 84, 0
4, 7440, Note_on_c, 2, 84, 40
4, 7480, Note_on_c, 2, 84, 0
4, 7480, Note_on_c, 2, 84, 40
4, 7520, Note_on_c, 2, 84, 0
4, 7520, Note_on_c, 2, 84, 40
4, 7560, Note_on_c, 2, 84, 0
4, 7560, Note_on_c, 2, 84, 40
4, 7600, Note_on_c, 2, 84, 0
4, 7600, Note_on_c, 2, 86, 40
4, 7640, Note_on_c, 2, 86, 0
4, 7640, Note_on_c, 2, 84, 40
4, 7680, Note_on_c, 2, 84, 0
4, 7680, Note_on_c, 2, 77, 40
4, 7800, Note_on_c, 2, 77, 0
4, 7920, Note_on_c, 2, 77, 60
4, 8040, Note_on_c, 2, 77, 0
4, 8040, Note_on_c, 2, 77, 60
4, 8160, Note_on_c, 2, 77, 0
4, 8160, Note_on_c, 2, 78, 60
4, 8280, Note_on_c, 2, 78, 0
4, 8280, Note_on_c, 2, 79, 60
4, 8400, Note_on_c, 2, 79, 0
4, 8400, Note_on_c, 2, 74, 60
4, 8520, Note_on_c, 2, 74, 0
4, 8520, Note_on_c, 2, 76, 60
4, 8640, Note_on_c, 2, 76, 0
4, 8640, Note_on_c, 2, 77, 60
4, 8820, Note_on_c, 2, 77, 0
4, 8820, Note_on_c, 2, 72, 60
4, 8880, Note_on_c, 2, 72, 0
4, 8880, Note_on_c, 2, 77, 60
4, 8940, Note_on_c, 2, 77, 0
4, 8940, Note_on_c, 2, 81, 60
4, 9000, Note_on_c, 2, 81, 0
4, 9000, Note_on_c, 2, 84, 60
4, 9060, Note_on_c, 2, 84, 0
4, 9060, Note_on_c, 2, 81, 60
4, 9120, Note_on_c, 2, 81, 0
4, 9120, Note_on_c, 2, 78, 60
4, 9180, Note_on_c, 2, 78, 0
4, 9180, Note_on_c, 2, 79, 60
4, 9240, Note_on_c, 2, 79, 0
4, 9240, Note_on_c, 2, 82, 60
4, 9300, Note_on_c, 2, 82, 0
4, 9300, Note_on_c, 2, 79, 60
4, 9360, Note_on_c, 2, 79, 0
4, 9360, Note_on_c, 2, 74, 60
4, 9480, Note_on_c, 2, 74, 0
4, 9480, Note_on_c, 2, 76, 60
4, 9600, Note_on_c, 2, 76, 0
4, 9600, Note_on_c, 2, 77, 60
4, 9720, Note_on_c, 2, 77, 0
4, 9720, Note_on_c, 2, 72, 60
4, 9840, Note_on_c, 2, 72, 0
4, 9840, Note_on_c, 2, 81, 80
4, 9840, Note_on_c, 2, 77, 80
4, 9960, Note_on_c, 2, 77, 0
4, 9960, Note_on_c, 2, 81, 0
4, 9960, Note_on_c, 2, 81, 80
4, 9960, Note_on_c, 2, 77, 80
4, 10080, Note_on_c, 2, 77, 0
4, 10080, Note_on_c, 2, 81, 0
4, 10080, Note_on_c, 2, 76, 80
4, 10080, Note_on_c, 2, 79, 80
4, 10200, Note_on_c, 2, 79, 0
4, 10200, Note_on_c, 2, 76, 0
4, 10200, Note_on_c, 2, 84, 80
4, 10320, Note_on_c, 2, 84, 0
4, 10320, Note_on_c, 2, 77, 80
4, 10320, Note_on_c, 2, 81, 80
4, 10440, Note_on_c, 2, 81, 0
4, 10440, Note_on_c, 2, 77, 0
4, 10440, Note_on_c, 2, 77, 80
4, 10440, Note_on_c, 2, 81, 80
4, 10560, Note_on_c, 2, 81, 0
4, 10560, Note_on_c, 2, 77, 0
4, 10560, Note_on_c, 2, 79, 80
4, 10560, Note_on_c, 2, 76, 80
4, 10680, Note_on_c, 2, 76, 0
4, 10680, Note_on_c, 2, 79, 0
4, 10680, Note_on_c, 2, 84, 80
4, 10800, Note_on_c, 2, 84, 0
4, 10800, Note_on_c, 2, 77, 80
4, 10860, Note_on_c, 2, 77, 0
4, 10860, Note_on_c, 2, 81, 80
4, 10920, Note_on_c, 2, 81, 0
4, 10920, Note_on_c, 2, 79, 80
4, 10980, Note_on_c, 2, 79, 0
4, 10980, Note_on_c, 2, 77, 80
4, 11040, Note_on_c, 2, 77, 0
4, 11040, Note_on_c, 2, 77, 80
4, 11100, Note_on_c, 2, 77, 0
4, 11100, Note_on_c, 2, 76, 80
4, 11160, Note_on_c, 2, 76, 0
4, 11160, Note_on_c, 2, 74, 80
4, 11220, Note_on_c, 2, 74, 0
4, 11220, Note_on_c, 2, 72, 80
4, 11280, Note_on_c, 2, 72, 0
4, 11280, Note_on_c, 2, 72, 100
4, 11400, Note_on_c, 2, 72, 0
4, 11400, Note_on_c, 2, 76, 100
4, 11460, Note_on_c, 2, 76, 0
4, 11460, Note_on_c, 2, 74, 100
4, 11520, Note_on_c, 2, 74, 0
4, 11520, Note_on_c, 2, 72, 60
4, 11760, Note_on_c, 2, 72, 0
4, 11760, Note_on_c, 2, 72, 58
4, 11880, Note_on_c, 2, 72, 0
4, 11880, Note_on_c, 2, 72, 57
4, 12000, Note_on_c, 2, 72, 0
4, 12000, Note_on_c, 2, 72, 55
4, 12180, Note_on_c, 2, 72, 0
4, 12180, Note_on_c, 2, 77, 53
4, 12240, Note_on_c, 2, 77, 0
4, 12240, Note_on_c, 2, 69, 53
4, 12330, Note_on_c, 2, 69, 0
4, 12330, Note_on_c, 2, 70, 52
4, 12360, Note_on_c, 2, 70, 0
4, 12360, Note_on_c, 2, 72, 51
4, 12375, Note_on_c, 2, 72, 0
4, 12375, Note_on_c, 2, 70, 51
4, 12390, Note_on_c, 2, 70, 0
4, 12390, Note_on_c, 2, 72, 51
4, 12405, Note_on_c, 2, 72, 0
4, 12405, Note_on_c, 2, 70, 51
4, 12420, Note_on_c, 2, 70, 0
4, 12420, Note_on_c, 2, 72, 51
4, 12435, Note_on_c, 2, 72, 0
4, 12435, Note_on_c, 2, 70, 51
4, 12450, Note_on_c, 2, 70, 0
4, 12450, Note_on_c, 2, 69, 51
4, 12465, Note_on_c, 2, 69, 0
4, 12465, Note_on_c, 2, 70, 50
4, 12480, Note_on_c, 2, 70, 0
4, 12480, Note_on_c, 2, 72, 50
4, 12600, Note_on_c, 2, 72, 0
4, 12600, Note_on_c, 2, 69, 49
4, 12720, Note_on_c, 2, 69, 0
4, 12720, Note_on_c, 2, 65, 48
4, 12810, Note_on_c, 2, 65, 0
4, 12810, Note_on_c, 2, 67, 47
4, 12840, Note_on_c, 2, 67, 0
4, 12840, Note_on_c, 2, 69, 46
4, 12855, Note_on_c, 2, 69, 0
4, 12855, Note_on_c, 2, 67, 46
4, 12870, Note_on_c, 2, 67, 0
4, 12870, Note_on_c, 2, 69, 46
4, 12885, Note_on_c, 2, 69, 0
4, 12885, Note_on_c, 2, 67, 46
4, 12900, Note_on_c, 2, 67, 0
4, 12900, Note_on_c, 2, 69, 46
4, 12915, Note_on_c, 2, 69, 0
4, 12915, Note_on_c, 2, 67, 46
4, 12930, Note_on_c, 2, 67, 0
4, 12930, Note_on_c, 2, 65, 45
4, 12945, Note_on_c, 2, 65, 0
4, 12945, Note_on_c, 2, 67, 45
4, 12960, Note_on_c, 2, 67, 0
4, 12960, Note_on_c, 2, 69, 45
4, 13080, Note_on_c, 2, 69, 0
4, 13140, Note_on_c, 2, 72, 43
4, 13200, Note_on_c, 2, 72, 0
4, 13200, Note_on_c, 2, 70, 42
4, 13260, Note_on_c, 2, 70, 0
4, 13260, Note_on_c, 2, 69, 42
4, 13320, Note_on_c, 2, 69, 0
4, 13320, Note_on_c, 2, 67, 41
4, 13380, Note_on_c, 2, 67, 0
4, 13380, Note_on_c, 2, 65, 41
4, 13440, Note_on_c, 2, 65, 0
4, 13440, Note_on_c, 2, 65, 43
4, 13560, Note_on_c, 2, 65, 0
4, 13560, Note_on_c, 2, 64, 43
4, 13680, Note_on_c, 2, 64, 0
4, 13680, Note_on_c, 2, 72, 43
4, 13800, Note_on_c, 2, 72, 0
4, 13800, Note_on_c, 2, 72, 45
4, 13920, Note_on_c, 2, 72, 0
4, 13920, Note_on_c, 2, 72, 46
4, 14100, Note_on_c, 2, 72, 0
4, 14100, Note_on_c, 2, 77, 49
4, 14160, Note_on_c, 2, 77, 0
4, 14160, Note_on_c, 2, 69, 49
4, 14250, Note_on_c, 2, 69, 0
4, 14250, Note_on_c, 2, 70, 51
4, 14280, Note_on_c, 2, 70, 0
4, 14280, Note_on_c, 2, 72, 51
4, 14295, Note_on_c, 2, 72, 0
4, 14295, Note_on_c, 2, 70, 51
4, 14310, Note_on_c, 2, 70, 0
4, 14310, Note_on_c, 2, 72, 51
4, 14325, Note_on_c, 2, 72, 0
4, 14325, Note_on_c, 2, 70, 51
4, 14340, Note_on_c, 2, 70, 0
4, 14340, Note_on_c, 2, 72, 53
4, 14355, Note_on_c, 2, 72, 0
4, 14355, Note_on_c, 2, 70, 53
4, 14370, Note_on_c, 2, 70, 0
4, 14370, Note_on_c, 2, 69, 53
4, 14385, Note_on_c, 2, 69, 0
4, 14385, Note_on_c, 2, 70, 54
4, 14400, Note_on_c, 2, 70, 0
4, 14400, Note_on_c, 2, 72, 54
4, 14520, Note_on_c, 2, 72, 0
4, 14520, Note_on_c, 2, 69, 56
4, 14640, Note_on_c, 2, 69, 0
4, 14640, Note_on_c, 2, 77, 57
4, 14680, Note_on_c, 2, 77, 0
4, 14680, Note_on_c, 2, 81, 58
4, 14720, Note_on_c, 2, 81, 0
4, 14720, Note_on_c, 2, 77, 58
4, 14760, Note_on_c, 2, 77, 0
4, 14760, Note_on_c, 2, 76, 59
4, 14800, Note_on_c, 2, 76, 0
4, 14800, Note_on_c, 2, 79, 59
4, 14840, Note_on_c, 2, 79, 0
4, 14840, Note_on_c, 2, 76, 60
4, 14880, Note_on_c, 2, 76, 0
4, 14880, Note_on_c, 2, 77, 60
4, 14920, Note_on_c, 2, 77, 0
4, 14920, Note_on_c, 2, 81, 61
4, 14960, Note_on_c, 2, 81, 0
4, 14960, Note_on_c, 2, 84, 61
4, 15000, Note_on_c, 2, 84, 0
4, 15000, Note_on_c, 2, 84, 62
4, 15040, Note_on_c, 2, 84, 0
4, 15040, Note_on_c, 2, 84, 62
4, 15080, Note_on_c, 2, 84, 0
4, 15080, Note_on_c, 2, 84, 63
4, 15120, Note_on_c, 2, 84, 0
4, 15120, Note_on_c, 2, 84, 63
4, 15160, Note_on_c, 2, 84, 0
4, 15160, Note_on_c, 2, 84, 64
4, 15200, Note_on_c, 2, 84, 0
4, 15200, Note_on_c, 2, 84, 65
4, 15240, Note_on_c, 2, 84, 0
4, 15240, Note_on_c, 2, 84, 66
4, 15280, Note_on_c, 2, 84, 0
4, 15280, Note_on_c, 2, 86, 67
4, 15320, Note_on_c, 2, 86, 0
4, 15320, Note_on_c, 2, 84, 68
4, 15360, Note_on_c, 2, 84, 0
4, 15360, Note_on_c, 2, 77, 69
4, 15600, Note_on_c, 2, 77, 0
4, 15600, Note_on_c, 2, 77, 75
4, 15720, Note_on_c, 2, 77, 0
4, 15720, Note_on_c, 2, 77, 76
4, 15840, Note_on_c, 2, 77, 0
4, 15840, Note_on_c, 2, 77, 78
4, 16020, Note_on_c, 2, 77, 0
4, 16020, Note_on_c, 2, 82, 80
4, 16080, Note_on_c, 2, 82, 0
4, 16080, Note_on_c, 2, 81, 81
4, 16140, Note_on_c, 2, 81, 0
4, 16140, Note_on_c, 2, 87, 81
4, 16200, Note_on_c, 2, 87, 0
4, 16200, Note_on_c, 2, 84, 81
4, 16260, Note_on_c, 2, 84, 0
4, 16260, Note_on_c, 2, 81, 81
4, 16320, Note_on_c, 2, 81, 0
4, 16320, Note_on_c, 2, 82, 81
4, 16380, Note_on_c, 2, 82, 0
4, 16380, Note_on_c, 2, 86, 81
4, 16440, Note_on_c, 2, 86, 0
4, 16440, Note_on_c, 2, 77, 81
4, 16500, Note_on_c, 2, 77, 0
4, 16560, Note_on_c, 2, 74, 81
4, 16620, Note_on_c, 2, 74, 0
4, 16620, Note_on_c, 2, 77, 81
4, 16680, Note_on_c, 2, 77, 0
4, 16680, Note_on_c, 2, 75, 81
4, 16740, Note_on_c, 2, 75, 0
4, 16740, Note_on_c, 2, 79, 81
4, 16800, Note_on_c, 2, 79, 0
4, 16800, Note_on_c, 2, 77, 81
4, 16860, Note_on_c, 2, 77, 0
4, 16860, Note_on_c, 2, 82, 81
4, 16920, Note_on_c, 2, 82, 0
4, 16920, Note_on_c, 2, 86, 81
4, 16980, Note_on_c, 2, 86, 0
4, 16980, Note_on_c, 2, 82, 81
4, 17040, Note_on_c, 2, 82, 0
4, 17040, Note_on_c, 2, 79, 81
4, 17100, Note_on_c, 2, 79, 0
4, 17100, Note_on_c, 2, 77, 81
4, 17160, Note_on_c, 2, 77, 0
4, 17160, Note_on_c, 2, 76, 81
4, 17220, Note_on_c, 2, 76, 0
4, 17220, Note_on_c, 2, 74, 81
4, 17280, Note_on_c, 2, 74, 0
4, 17280, Note_on_c, 2, 74, 81
4, 17400, Note_on_c, 2, 74, 0
4, 17400, Note_on_c, 2, 72, 81
4, 17520, Note_on_c, 2, 72, 0
4, 17520, Note_on_c, 2, 77, 81
4, 17640, Note_on_c, 2, 77, 0
4, 17640, Note_on_c, 2, 77, 81
4, 17760, Note_on_c, 2, 77, 0
4, 17760, Note_on_c, 2, 77, 80
4, 17940, Note_on_c, 2, 77, 0
4, 17940, Note_on_c, 2, 82, 78
4, 18000, Note_on_c, 2, 82, 0
4, 18000, Note_on_c, 2, 81, 77
4, 18060, Note_on_c, 2, 81, 0
4, 18060, Note_on_c, 2, 87, 76
4, 18120, Note_on_c, 2, 87, 0
4, 18120, Note_on_c, 2, 84, 75
4, 18180, Note_on_c, 2, 84, 0
4, 18180, Note_on_c, 2, 81, 75
4, 18240, Note_on_c, 2, 81, 0
4, 18240, Note_on_c, 2, 82, 74
4, 18300, Note_on_c, 2, 82, 0
4, 18300, Note_on_c, 2, 86, 73
4, 18360, Note_on_c, 2, 86, 0
4, 18360, Note_on_c, 2, 77, 72
4, 18420, Note_on_c, 2, 77, 0
4, 18480, Note_on_c, 2, 82, 71
4, 18600, Note_on_c, 2, 82, 0
4, 18600, Note_on_c, 2, 82, 73
4, 18720, Note_on_c, 2, 82, 0
4, 18720, Note_on_c, 2, 82, 73
4, 18780, Note_on_c, 2, 82, 0
4, 18780, Note_on_c, 2, 77, 74
4, 18840, Note_on_c, 2, 77, 0
4, 18840, Note_on_c, 2, 74, 74
4, 18900, Note_on_c, 2, 74, 0
4, 18900, Note_on_c, 2, 77, 74
4, 18960, Note_on_c, 2, 77, 0
4, 18960, Note_on_c, 2, 70, 75
4, 19080, Note_on_c, 2, 70, 0
4, 19080, Note_on_c, 2, 74, 76
4, 19140, Note_on_c, 2, 74, 0
4, 19140, Note_on_c, 2, 72, 78
4, 19200, Note_on_c, 2, 72, 0
4, 19200, Note_on_c, 2, 70, 79
4, 19320, Note_on_c, 2, 70, 0
4, 19440, Note_on_c, 2, 75, 82
4, 19560, Note_on_c, 2, 75, 0
4, 19560, Note_on_c, 2, 75, 82
4, 19680, Note_on_c, 2, 75, 0
4, 19680, Note_on_c, 2, 84, 84
4, 19860, Note_on_c, 2, 84, 0
4, 19860, Note_on_c, 2, 82, 84
4, 19920, Note_on_c, 2, 82, 0
4, 19920, Note_on_c, 2, 81, 84
4, 19980, Note_on_c, 2, 81, 0
4, 19980, Note_on_c, 2, 77, 84
4, 20040, Note_on_c, 2, 77, 0
4, 20040, Note_on_c, 2, 79, 84
4, 20100, Note_on_c, 2, 79, 0
4, 20100, Note_on_c, 2, 81, 83
4, 20160, Note_on_c, 2, 81, 0
4, 20160, Note_on_c, 2, 82, 82
4, 20280, Note_on_c, 2, 82, 0
4, 20280, Note_on_c, 2, 84, 80
4, 20310, Note_on_c, 2, 84, 0
4, 20310, Note_on_c, 2, 82, 80
4, 20340, Note_on_c, 2, 82, 0
4, 20340, Note_on_c, 2, 81, 80
4, 20370, Note_on_c, 2, 81, 0
4, 20370, Note_on_c, 2, 82, 79
4, 20400, Note_on_c, 2, 82, 0
4, 20400, Note_on_c, 2, 86, 79
4, 20520, Note_on_c, 2, 86, 0
4, 20520, Note_on_c, 2, 82, 77
4, 20625, Note_on_c, 2, 86, 77
4, 20640, Note_on_c, 2, 86, 0
4, 20640, Note_on_c, 2, 82, 0
4, 20640, Note_on_c, 2, 84, 77
4, 20760, Note_on_c, 2, 84, 0
4, 20760, Note_on_c, 2, 84, 77
4, 20820, Note_on_c, 2, 84, 0
4, 20820, Note_on_c, 2, 82, 77
4, 20880, Note_on_c, 2, 82, 0
4, 20880, Note_on_c, 2, 81, 77
4, 20940, Note_on_c, 2, 81, 0
4, 20940, Note_on_c, 2, 77, 77
4, 21000, Note_on_c, 2, 77, 0
4, 21000, Note_on_c, 2, 79, 77
4, 21060, Note_on_c, 2, 79, 0
4, 21060, Note_on_c, 2, 81, 77
4, 21105, Note_on_c, 2, 81, 77
4, 21120, Note_on_c, 2, 81, 0
4, 21120, Note_on_c, 2, 81, 0
4, 21120, Note_on_c, 2, 82, 77
4, 21240, Note_on_c, 2, 82, 0
4, 21240, Note_on_c, 2, 77, 75
4, 21360, Note_on_c, 2, 77, 0
4, 21360, Note_on_c, 2, 74, 74
4, 21420, Note_on_c, 2, 74, 0
4, 21420, Note_on_c, 2, 77, 73
4, 21480, Note_on_c, 2, 77, 0
4, 21480, Note_on_c, 2, 75, 73
4, 21540, Note_on_c, 2, 75, 0
4, 21540, Note_on_c, 2, 79, 73
4, 21600, Note_on_c, 2, 79, 0
4, 21600, Note_on_c, 2, 77, 73
4, 21660, Note_on_c, 2, 77, 0
4, 21660, Note_on_c, 2, 82, 73
4, 21720, Note_on_c, 2, 82, 0
4, 21720, Note_on_c, 2, 86, 73
4, 21780, Note_on_c, 2, 86, 0
4, 21780, Note_on_c, 2, 82, 73
4, 21840, Note_on_c, 2, 82, 0
4, 21840, Note_on_c, 2, 74, 73
4, 21900, Note_on_c, 2, 74, 0
4, 21900, Note_on_c, 2, 77, 73
4, 21960, Note_on_c, 2, 77, 0
4, 21960, Note_on_c, 2, 75, 73
4, 22020, Note_on_c, 2, 75, 0
4, 22020, Note_on_c, 2, 79, 73
4, 22080, Note_on_c, 2, 79, 0
4, 22080, Note_on_c, 2, 77, 73
4, 22140, Note_on_c, 2, 77, 0
4, 22140, Note_on_c, 2, 82, 73
4, 22200, Note_on_c, 2, 82, 0
4, 22200, Note_on_c, 2, 86, 73
4, 22260, Note_on_c, 2, 86, 0
4, 22320, Note_on_c, 2, 74, 73
4, 22320, Note_on_c, 2, 82, 73
4, 22440, Note_on_c, 2, 82, 0
4, 22440, Note_on_c, 2, 74, 0
4, 22440, Note_on_c, 2, 74, 73
4, 22440, Note_on_c, 2, 82, 73
4, 22560, Note_on_c, 2, 82, 0
4, 22560, Note_on_c, 2, 74, 0
4, 22560, Note_on_c, 2, 82, 73
4, 22620, Note_on_c, 2, 82, 0
4, 22620, Note_on_c, 2, 77, 73
4, 22680, Note_on_c, 2, 77, 0
4, 22680, Note_on_c, 2, 74, 73
4, 22740, Note_on_c, 2, 74, 0
4, 22740, Note_on_c, 2, 77, 72
4, 22800, Note_on_c, 2, 77, 0
4, 22800, Note_on_c, 2, 70, 72
4, 22965, Note_on_c, 2, 74, 69
4, 22980, Note_on_c, 2, 74, 0
4, 22980, Note_on_c, 2, 70, 0
4, 22980, Note_on_c, 2, 72, 69
4, 23040, Note_on_c, 2, 72, 0
4, 23040, Note_on_c, 2, 70, 68
4, 23160, Note_on_c, 2, 70, 0
4, 23280, Note_on_c, 2, 82, 66
4, 23340, Note_on_c, 2, 82, 0
4, 23340, Note_on_c, 2, 81, 66
4, 23400, Note_on_c, 2, 81, 0
4, 23400, Note_on_c, 2, 79, 67
4, 23460, Note_on_c, 2, 79, 0
4, 23460, Note_on_c, 2, 77, 67
4, 23520, Note_on_c, 2, 77, 0
4, 23520, Note_on_c, 2, 76, 67
4, 23580, Note_on_c, 2, 76, 0
4, 23580, Note_on_c, 2, 79, 67
4, 23640, Note_on_c, 2, 79, 0
4, 23640, Note_on_c, 2, 84, 67
4, 23700, Note_on_c, 2, 84, 0
4, 23700, Note_on_c, 2, 82, 67
4, 23760, Note_on_c, 2, 82, 0
4, 23760, Note_on_c, 2, 81, 67
4, 23820, Note_on_c, 2, 81, 0
4, 23820, Note_on_c, 2, 79, 67
4, 23880, Note_on_c, 2, 79, 0
4, 23880, Note_on_c, 2, 77, 67
4, 23940, Note_on_c, 2, 77, 0
4, 23940, Note_on_c, 2, 76, 67
4, 24000, Note_on_c, 2, 76, 0
4, 24000, Note_on_c, 2, 77, 67
4, 24120, Note_on_c, 2, 77, 0
4, 24120, Note_on_c, 2, 81, 69
4, 24240, Note_on_c, 2, 81, 0
4, 24240, Note_on_c, 2, 77, 69
4, 24300, Note_on_c, 2, 77, 0
4, 24300, Note_on_c, 2, 76, 71
4, 24360, Note_on_c, 2, 76, 0
4, 24360, Note_on_c, 2, 74, 71
4, 24420, Note_on_c, 2, 74, 0
4, 24420, Note_on_c, 2, 72, 72
4, 24480, Note_on_c, 2, 72, 0
4, 24480, Note_on_c, 2, 71, 73
4, 24540, Note_on_c, 2, 71, 0
4, 24540, Note_on_c, 2, 74, 73
4, 24600, Note_on_c, 2, 74, 0
4, 24600, Note_on_c, 2, 79, 73
4, 24660, Note_on_c, 2, 79, 0
4, 24660, Note_on_c, 2, 77, 73
4, 24720, Note_on_c, 2, 77, 0
4, 24720, Note_on_c, 2, 76, 73
4, 24780, Note_on_c, 2, 76, 0
4, 24780, Note_on_c, 2, 74, 73
4, 24840, Note_on_c, 2, 74, 0
4, 24840, Note_on_c, 2, 72, 73
4, 24900, Note_on_c, 2, 72, 0
4, 24900, Note_on_c, 2, 71, 73
4, 24960, Note_on_c, 2, 71, 0
4, 24960, Note_on_c, 2, 72, 73
4, 25200, Note_on_c, 2, 72, 0
4, 25200, Note_on_c, 2, 72, 73
4, 25320, Note_on_c, 2, 72, 0
4, 25320, Note_on_c, 2, 72, 73
4, 25440, Note_on_c, 2, 72, 0
4, 25440, Note_on_c, 2, 72, 72
4, 25620, Note_on_c, 2, 72, 0
4, 25620, Note_on_c, 2, 77, 72
4, 25680, Note_on_c, 2, 77, 0
4, 25680, Note_on_c, 2, 69, 72
4, 25770, Note_on_c, 2, 69, 0
4, 25770, Note_on_c, 2, 70, 72
4, 25800, Note_on_c, 2, 70, 0
4, 25800, Note_on_c, 2, 72, 72
4, 25815, Note_on_c, 2, 72, 0
4, 25815, Note_on_c, 2, 70, 72
4, 25830, Note_on_c, 2, 70, 0
4, 25830, Note_on_c, 2, 72, 72
4, 25845, Note_on_c, 2, 72, 0
4, 25845, Note_on_c, 2, 70, 72
4, 25860, Note_on_c, 2, 70, 0
4, 25860, Note_on_c, 2, 72, 72
4, 25875, Note_on_c, 2, 72, 0
4, 25875, Note_on_c, 2, 70, 72
4, 25890, Note_on_c, 2, 70, 0
4, 25890, Note_on_c, 2, 69, 72
4, 25905, Note_on_c, 2, 69, 0
4, 25905, Note_on_c, 2, 70, 72
4, 25920, Note_on_c, 2, 70, 0
4, 25920, Note_on_c, 2, 72, 72
4, 26040, Note_on_c, 2, 72, 0
4, 26040, Note_on_c, 2, 69, 72
4, 26160, Note_on_c, 2, 69, 0
4, 26160, Note_on_c, 2, 65, 72
4, 26250, Note_on_c, 2, 65, 0
4, 26250, Note_on_c, 2, 67, 72
4, 26280, Note_on_c, 2, 67, 0
4, 26280, Note_on_c, 2, 69, 72
4, 26295, Note_on_c, 2, 69, 0
4, 26295, Note_on_c, 2, 67, 72
4, 26310, Note_on_c, 2, 67, 0
4, 26310, Note_on_c, 2, 69, 72
4, 26325, Note_on_c, 2, 69, 0
4, 26325, Note_on_c, 2, 67, 72
4, 26340, Note_on_c, 2, 67, 0
4, 26340, Note_on_c, 2, 69, 72
4, 26355, Note_on_c, 2, 69, 0
4, 26355, Note_on_c, 2, 67, 72
4, 26370, Note_on_c, 2, 67, 0
4, 26370, Note_on_c, 2, 65, 72
4, 26385, Note_on_c, 2, 65, 0
4, 26385, Note_on_c, 2, 67, 72
4, 26400, Note_on_c, 2, 67, 0
4, 26400, Note_on_c, 2, 69, 72
4, 26580, Note_on_c, 2, 69, 0
4, 26580, Note_on_c, 2, 72, 74
4, 26640, Note_on_c, 2, 72, 0
4, 26640, Note_on_c, 2, 70, 75
4, 26700, Note_on_c, 2, 70, 0
4, 26700, Note_on_c, 2, 69, 75
4, 26760, Note_on_c, 2, 69, 0
4, 26760, Note_on_c, 2, 67, 75
4, 26820, Note_on_c, 2, 67, 0
4, 26820, Note_on_c, 2, 65, 75
4, 26880, Note_on_c, 2, 65, 0
4, 26880, Note_on_c, 2, 65, 75
4, 27000, Note_on_c, 2, 65, 0
4, 27000, Note_on_c, 2, 64, 75
4, 27120, Note_on_c, 2, 64, 0
4, 27120, Note_on_c, 2, 72, 76
4, 27240, Note_on_c, 2, 72, 0
4, 27240, Note_on_c, 2, 72, 75
4, 27360, Note_on_c, 2, 72, 0
4, 27360, Note_on_c, 2, 72, 73
4, 27540, Note_on_c, 2, 72, 0
4, 27540, Note_on_c, 2, 77, 71
4, 27600, Note_on_c, 2, 77, 0
4, 27600, Note_on_c, 2, 69, 71
4, 27690, Note_on_c, 2, 69, 0
4, 27690, Note_on_c, 2, 70, 70
4, 27720, Note_on_c, 2, 70, 0
4, 27720, Note_on_c, 2, 72, 69
4, 27735, Note_on_c, 2, 72, 0
4, 27735, Note_on_c, 2, 70, 69
4, 27750, Note_on_c, 2, 70, 0
4, 27750, Note_on_c, 2, 72, 69
4, 27765, Note_on_c, 2, 72, 0
4, 27765, Note_on_c, 2, 70, 68
4, 27780, Note_on_c, 2, 70, 0
4, 27780, Note_on_c, 2, 72, 68
4, 27795, Note_on_c, 2, 72, 0
4, 27795, Note_on_c, 2, 70, 68
4, 27810, Note_on_c, 2, 70, 0
4, 27810, Note_on_c, 2, 69, 68
4, 27825, Note_on_c, 2, 69, 0
4, 27825, Note_on_c, 2, 70, 68
4, 27840, Note_on_c, 2, 70, 0
4, 27840, Note_on_c, 2, 72, 67
4, 27960, Note_on_c, 2, 72, 0
4, 27960, Note_on_c, 2, 69, 66
4, 28080, Note_on_c, 2, 69, 0
4, 28080, Note_on_c, 2, 77, 65
4, 28120, Note_on_c, 2, 77, 0
4, 28120, Note_on_c, 2, 81, 64
4, 28160, Note_on_c, 2, 81, 0
4, 28160, Note_on_c, 2, 77, 64
4, 28200, Note_on_c, 2, 77, 0
4, 28200, Note_on_c, 2, 76, 63
4, 28240, Note_on_c, 2, 76, 0
4, 28240, Note_on_c, 2, 79, 62
4, 28280, Note_on_c, 2, 79, 0
4, 28280, Note_on_c, 2, 76, 62
4, 28320, Note_on_c, 2, 76, 0
4, 28320, Note_on_c, 2, 77, 62
4, 28360, Note_on_c, 2, 77, 0
4, 28360, Note_on_c, 2, 81, 62
4, 28400, Note_on_c, 2, 81, 0
4, 28400, Note_on_c, 2, 84, 62
4, 28440, Note_on_c, 2, 84, 0
4, 28440, Note_on_c, 2, 84, 62
4, 28480, Note_on_c, 2, 84, 0
4, 28480, Note_on_c, 2, 84, 61
4, 28520, Note_on_c, 2, 84, 0
4, 28520, Note_on_c, 2, 84, 61
4, 28560, Note_on_c, 2, 84, 0
4, 28560, Note_on_c, 2, 84, 60
4, 28600, Note_on_c, 2, 84, 0
4, 28600, Note_on_c, 2, 84, 59
4, 28640, Note_on_c, 2, 84, 0
4, 28640, Note_on_c, 2, 84, 59
4, 28680, Note_on_c, 2, 84, 0
4, 28680, Note_on_c, 2, 84, 58
4, 28720, Note_on_c, 2, 84, 0
4, 28720, Note_on_c, 2, 86, 58
4, 28760, Note_on_c, 2, 86, 0
4, 28760, Note_on_c, 2, 84, 57
4, 28800, Note_on_c, 2, 84, 0
4, 28800, Note_on_c, 2, 77, 57
4, 28920, Note_on_c, 2, 77, 0
4, 29520, Note_on_c, 2, 86, 56
4, 29560, Note_on_c, 2, 86, 0
4, 29560, Note_on_c, 2, 82, 56
4, 29600, Note_on_c, 2, 82, 0
4, 29600, Note_on_c, 2, 77, 56
4, 29640, Note_on_c, 2, 77, 0
4, 29640, Note_on_c, 2, 86, 56
4, 29680, Note_on_c, 2, 86, 0
4, 29680, Note_on_c, 2, 82, 56
4, 29720, Note_on_c, 2, 82, 0
4, 29720, Note_on_c, 2, 77, 56
4, 29760, Note_on_c, 2, 77, 0
4, 29760, Note_on_c, 2, 84, 56
4, 29800, Note_on_c, 2, 84, 0
4, 29800, Note_on_c, 2, 81, 56
4, 29840, Note_on_c, 2, 81, 0
4, 29840, Note_on_c, 2, 77, 56
4, 29880, Note_on_c, 2, 77, 0
4, 29880, Note_on_c, 2, 79, 56
4, 29895, Note_on_c, 2, 79, 0
4, 29895, Note_on_c, 2, 77, 56
4, 29910, Note_on_c, 2, 77, 0
4, 29910, Note_on_c, 2, 79, 56
4, 29925, Note_on_c, 2, 79, 0
4, 29925, Note_on_c, 2, 77, 56
4, 29940, Note_on_c, 2, 77, 0
4, 29940, Note_on_c, 2, 79, 56
4, 29955, Note_on_c, 2, 79, 0
4, 29955, Note_on_c, 2, 77, 56
4, 29970, Note_on_c, 2, 77, 0
4, 29970, Note_on_c, 2, 79, 57
4, 29985, Note_on_c, 2, 79, 0
4, 29985, Note_on_c, 2, 77, 57
4, 30000, Note_on_c, 2, 77, 0
4, 30000, Note_on_c, 2, 82, 57
4, 30000, Note_on_c, 2, 79, 57
4, 30000, Note_on_c, 2, 76, 57
4, 30120, Note_on_c, 2, 76, 0
4, 30120, Note_on_c, 2, 79, 0
4, 30120, Note_on_c, 2, 82, 0
4, 30120, Note_on_c, 2, 82, 58
4, 30120, Note_on_c, 2, 79, 58
4, 30120, Note_on_c, 2, 76, 58
4, 30240, Note_on_c, 2, 76, 0
4, 30240, Note_on_c, 2, 79, 0
4, 30240, Note_on_c, 2, 82, 0
4, 30240, Note_on_c, 2, 81, 59
4, 30240, Note_on_c, 2, 77, 59
4, 30360, Note_on_c, 2, 77, 0
4, 30360, Note_on_c, 2, 81, 0
4, 30360, Note_on_c, 2, 74, 59
4, 30360, Note_on_c, 2, 77, 59
4, 30480, Note_on_c, 2, 77, 0
4, 30480, Note_on_c, 2, 74, 0
4, 30480, Note_on_c, 2, 79, 58
4, 30480, Note_on_c, 2, 74, 58
4, 30600, Note_on_c, 2, 74, 0
4, 30600, Note_on_c, 2, 79, 0
4, 30600, Note_on_c, 2, 70, 58
4, 30600, Note_on_c, 2, 76, 58
4, 30720, Note_on_c, 2, 76, 0
4, 30720, Note_on_c, 2, 70, 0
4, 30720, Note_on_c, 2, 72, 58
4, 30720, Note_on_c, 2, 77, 58
4, 30840, Note_on_c, 2, 77, 0
4, 30840, Note_on_c, 2, 72, 0
4, 30960, Note_on_c, 2, 84, 98
4, 31020, Note_on_c, 2, 84, 0
4, 31020, Note_on_c, 2, 82, 99
4, 31080, Note_on_c, 2, 82, 0
4, 31080, Note_on_c, 2, 79, 101
4, 31140, Note_on_c, 2, 79, 0
4, 31140, Note_on_c, 2, 76, 101
4, 31200, Note_on_c, 2, 76, 0
4, 31200, Note_on_c, 2, 77, 101
4, 31260, Note_on_c, 2, 77, 0
4, 31260, Note_on_c, 2, 81, 101
4, 31320, Note_on_c, 2, 81, 0
4, 31320, Note_on_c, 2, 72, 101
4, 31380, Note_on_c, 2, 72, 0
4, 31380, Note_on_c, 2, 84, 102
4, 31440, Note_on_c, 2, 84, 0
4, 31440, Note_on_c, 2, 84, 102
4, 31500, Note_on_c, 2, 84, 0
4, 31500, Note_on_c, 2, 82, 102
4, 31560, Note_on_c, 2, 82, 0
4, 31560, Note_on_c, 2, 79, 103
4, 31620, Note_on_c, 2, 79, 0
4, 31620, Note_on_c, 2, 76, 104
4, 31680, Note_on_c, 2, 76, 0
4, 31680, Note_on_c, 2, 77, 105
4, 31740, Note_on_c, 2, 77, 0
4, 31740, Note_on_c, 2, 81, 105
4, 31800, Note_on_c, 2, 81, 0
4, 31800, Note_on_c, 2, 72, 106
4, 31860, Note_on_c, 2, 72, 0
4, 31920, Note_on_c, 2, 72, 108
4, 31960, Note_on_c, 2, 72, 0
4, 31960, Note_on_c, 2, 74, 108
4, 32000, Note_on_c, 2, 74, 0
4, 32000, Note_on_c, 2, 72, 109
4, 32040, Note_on_c, 2, 72, 0
4, 32040, Note_on_c, 2, 70, 109
4, 32080, Note_on_c, 2, 70, 0
4, 32080, Note_on_c, 2, 69, 109
4, 32120, Note_on_c, 2, 69, 0
4, 32120, Note_on_c, 2, 67, 110
4, 32160, Note_on_c, 2, 67, 0
4, 32160, Note_on_c, 2, 65, 110
4, 32200, Note_on_c, 2, 65, 0
4, 32200, Note_on_c, 2, 67, 110
4, 32240, Note_on_c, 2, 67, 0
4, 32240, Note_on_c, 2, 69, 111
4, 32280, Note_on_c, 2, 69, 0
4, 32280, Note_on_c, 2, 70, 112
4, 32320, Note_on_c, 2, 70, 0
4, 32320, Note_on_c, 2, 72, 112
4, 32360, Note_on_c, 2, 72, 0
4, 32360, Note_on_c, 2, 74, 112
4, 32400, Note_on_c, 2, 74, 0
4, 32400, Note_on_c, 2, 72, 112
4, 32520, Note_on_c, 2, 72, 0
4, 32520, Note_on_c, 2, 76, 112
4, 32520, Note_on_c, 2, 72, 112
4, 32640, Note_on_c, 2, 72, 0
4, 32640, Note_on_c, 2, 76, 0
4, 32640, Note_on_c, 2, 77, 112
4, 32760, Note_on_c, 2, 77, 0
4, 32880, Note_on_c, 2, 81, 114
4, 32880, Note_on_c, 2, 77, 114
4, 33000, Note_on_c, 2, 77, 0
4, 33000, Note_on_c, 2, 81, 0
4, 33000, End_track
5, 0, Start_track
5, 0, Title_t, "secondo"
5, 0, Control_c, 3, 0, 0
5, 0, Control_c, 3, 7, 127
5, 0, Control_c, 3, 10, 84
5, 0, Control_c, 3, 93, 15
5, 0, Control_c, 3, 91, 21
5, 0, Control_c, 3, 32, 0
5, 0, Program_c, 3, 0
5, 240, Note_on_c, 3, 65, 60
5, 360, Note_on_c, 3, 65, 0
5, 360, Note_on_c, 3, 64, 60
5, 480, Note_on_c, 3, 64, 0
5, 480, Note_on_c, 3, 65, 60
5, 600, Note_on_c, 3, 65, 0
5, 600, Note_on_c, 3, 65, 60
5, 720, Note_on_c, 3, 65, 0
5, 720, Note_on_c, 3, 65, 60
5, 840, Note_on_c, 3, 65, 0
5, 840, Note_on_c, 3, 64, 60
5, 960, Note_on_c, 3, 64, 0
5, 960, Note_on_c, 3, 65, 60
5, 1200, Note_on_c, 3, 65, 0
5, 1440, Note_on_c, 3, 65, 60
5, 1560, Note_on_c, 3, 65, 0
5, 1560, Note_on_c, 3, 69, 60
5, 1620, Note_on_c, 3, 69, 0
5, 1620, Note_on_c, 3, 67, 60
5, 1680, Note_on_c, 3, 67, 0
5, 1680, Note_on_c, 3, 65, 60
5, 1740, Note_on_c, 3, 65, 0
5, 1740, Note_on_c, 3, 64, 60
5, 1800, Note_on_c, 3, 64, 0
5, 1800, Note_on_c, 3, 62, 60
5, 1860, Note_on_c, 3, 62, 0
5, 1860, Note_on_c, 3, 62, 60
5, 1920, Note_on_c, 3, 62, 0
5, 1920, Note_on_c, 3, 60, 40
5, 2040, Note_on_c, 3, 60, 0
5, 2040, Note_on_c, 3, 60, 40
5, 2160, Note_on_c, 3, 60, 0
5, 2160, Note_on_c, 3, 65, 40
5, 2280, Note_on_c, 3, 65, 0
5, 2280, Note_on_c, 3, 64, 40
5, 2400, Note_on_c, 3, 64, 0
5, 2400, Note_on_c, 3, 65, 40
5, 2520, Note_on_c, 3, 65, 0
5, 2520, Note_on_c, 3, 65, 40
5, 2640, Note_on_c, 3, 65, 0
5, 2640, Note_on_c, 3, 65, 40
5, 2760, Note_on_c, 3, 65, 0
5, 2760, Note_on_c, 3, 64, 40
5, 2880, Note_on_c, 3, 64, 0
5, 2880, Note_on_c, 3, 65, 40
5, 3000, Note_on_c, 3, 65, 0
5, 3120, Note_on_c, 3, 69, 40
5, 3120, Note_on_c, 3, 72, 40
5, 3240, Note_on_c, 3, 72, 0
5, 3240, Note_on_c, 3, 69, 0
5, 3240, Note_on_c, 3, 72, 40
5, 3360, Note_on_c, 3, 72, 0
5, 3360, Note_on_c, 3, 69, 40
5, 3480, Note_on_c, 3, 69, 0
5, 3480, Note_on_c, 3, 65, 40
5, 3600, Note_on_c, 3, 65, 0
5, 3600, Note_on_c, 3, 72, 40
5, 3720, Note_on_c, 3, 72, 0
5, 3720, Note_on_c, 3, 72, 40
5, 3840, Note_on_c, 3, 72, 0
5, 3840, Note_on_c, 3, 69, 40
5, 3960, Note_on_c, 3, 69, 0
5, 4080, Note_on_c, 3, 65, 60
5, 4200, Note_on_c, 3, 65, 0
5, 4200, Note_on_c, 3, 64, 60
5, 4320, Note_on_c, 3, 64, 0
5, 4320, Note_on_c, 3, 65, 60
5, 4440, Note_on_c, 3, 65, 0
5, 4440, Note_on_c, 3, 65, 60
5, 4560, Note_on_c, 3, 65, 0
5, 4560, Note_on_c, 3, 65, 60
5, 4680, Note_on_c, 3, 65, 0
5, 4680, Note_on_c, 3, 64, 60
5, 4800, Note_on_c, 3, 64, 0
5, 4800, Note_on_c, 3, 65, 60
5, 5040, Note_on_c, 3, 65, 0
5, 5280, Note_on_c, 3, 65, 60
5, 5400, Note_on_c, 3, 65, 0
5, 5400, Note_on_c, 3, 69, 60
5, 5460, Note_on_c, 3, 69, 0
5, 5460, Note_on_c, 3, 67, 60
5, 5520, Note_on_c, 3, 67, 0
5, 5520, Note_on_c, 3, 65, 60
5, 5580, Note_on_c, 3, 65, 0
5, 5580, Note_on_c, 3, 64, 60
5, 5640, Note_on_c, 3, 64, 0
5, 5640, Note_on_c, 3, 62, 60
5, 5700, Note_on_c, 3, 62, 0
5, 5700, Note_on_c, 3, 62, 60
5, 5760, Note_on_c, 3, 62, 0
5, 5760, Note_on_c, 3, 60, 40
5, 5880, Note_on_c, 3, 60, 0
5, 5880, Note_on_c, 3, 60, 40
5, 6000, Note_on_c, 3, 60, 0
5, 6000, Note_on_c, 3, 65, 40
5, 6120, Note_on_c, 3, 65, 0
5, 6120, Note_on_c, 3, 64, 40
5, 6240, Note_on_c, 3, 64, 0
5, 6240, Note_on_c, 3, 65, 40
5, 6360, Note_on_c, 3, 65, 0
5, 6360, Note_on_c, 3, 65, 40
5, 6480, Note_on_c, 3, 65, 0
5, 6480, Note_on_c, 3, 65, 40
5, 6600, Note_on_c, 3, 65, 0
5, 6600, Note_on_c, 3, 64, 40
5, 6720, Note_on_c, 3, 64, 0
5, 6720, Note_on_c, 3, 65, 40
5, 6840, Note_on_c, 3, 65, 0
5, 6960, Note_on_c, 3, 69, 40
5, 6960, Note_on_c, 3, 72, 40
5, 7080, Note_on_c, 3, 72, 0
5, 7080, Note_on_c, 3, 69, 0
5, 7080, Note_on_c, 3, 72, 40
5, 7200, Note_on_c, 3, 72, 0
5, 7200, Note_on_c, 3, 69, 40
5, 7320, Note_on_c, 3, 69, 0
5, 7320, Note_on_c, 3, 65, 40
5, 7440, Note_on_c, 3, 65, 0
5, 7440, Note_on_c, 3, 72, 40
5, 7560, Note_on_c, 3, 72, 0
5, 7560, Note_on_c, 3, 72, 40
5, 7680, Note_on_c, 3, 72, 0
5, 7680, Note_on_c, 3, 69, 40
5, 7800, Note_on_c, 3, 69, 0
5, 7920, Note_on_c, 3, 65, 60
5, 8040, Note_on_c, 3, 65, 0
5, 8040, Note_on_c, 3, 65, 60
5, 8160, Note_on_c, 3, 65, 0
5, 8160, Note_on_c, 3, 66, 60
5, 8280, Note_on_c, 3, 66, 0
5, 8280, Note_on_c, 3, 67, 60
5, 8400, Note_on_c, 3, 67, 0
5, 8400, Note_on_c, 3, 62, 60
5, 8520, Note_on_c, 3, 62, 0
5, 8520, Note_on_c, 3, 64, 60
5, 8640, Note_on_c, 3, 64, 0
5, 8640, Note_on_c, 3, 65, 60
5, 8820, Note_on_c, 3, 65, 0
5, 8820, Note_on_c, 3, 60, 60
5, 8880, Note_on_c, 3, 60, 0
5, 8880, Note_on_c, 3, 65, 60
5, 8940, Note_on_c, 3, 65, 0
5, 8940, Note_on_c, 3, 69, 60
5, 9000, Note_on_c, 3, 69, 0
5, 9000, Note_on_c, 3, 72, 60
5, 9060, Note_on_c, 3, 72, 0
5, 9060, Note_on_c, 3, 69, 60
5, 9120, Note_on_c, 3, 69, 0
5, 9120, Note_on_c, 3, 66, 60
5, 9180, Note_on_c, 3, 66, 0
5, 9180, Note_on_c, 3, 67, 60
5, 9240, Note_on_c, 3, 67, 0
5, 9240, Note_on_c, 3, 70, 60
5, 9300, Note_on_c, 3, 70, 0
5, 9300, Note_on_c, 3, 67, 60
5, 9360, Note_on_c, 3, 67, 0
5, 9360, Note_on_c, 3, 62, 60
5, 9480, Note_on_c, 3, 62, 0
5, 9480, Note_on_c, 3, 64, 60
5, 9600, Note_on_c, 3, 64, 0
5, 9600, Note_on_c, 3, 65, 60
5, 9720, Note_on_c, 3, 65, 0
5, 9840, Note_on_c, 3, 72, 80
5, 9960, Note_on_c, 3, 72, 0
5, 9960, Note_on_c, 3, 72, 80
5, 10080, Note_on_c, 3, 72, 0
5, 10080, Note_on_c, 3, 72, 80
5, 10200, Note_on_c, 3, 72, 0
5, 10320, Note_on_c, 3, 72, 80
5, 10440, Note_on_c, 3, 72, 0
5, 10440, Note_on_c, 3, 72, 80
5, 10560, Note_on_c, 3, 72, 0
5, 10560, Note_on_c, 3, 67, 80
5, 10680, Note_on_c, 3, 67, 0
5, 10680, Note_on_c, 3, 69, 80
5, 10800, Note_on_c, 3, 69, 0
5, 10800, Note_on_c, 3, 64, 80
5, 10920, Note_on_c, 3, 64, 0
5, 10920, Note_on_c, 3, 65, 80
5, 11040, Note_on_c, 3, 65, 0
5, 11040, Note_on_c, 3, 64, 80
5, 11160, Note_on_c, 3, 64, 0
5, 11280, Note_on_c, 3, 65, 100
5, 11400, Note_on_c, 3, 65, 0
5, 11400, Note_on_c, 3, 64, 100
5, 11520, Note_on_c, 3, 64, 0
5, 11520, Note_on_c, 3, 64, 60
5, 11640, Note_on_c, 3, 64, 0
5, 11760, Note_on_c, 3, 65, 58
5, 11880, Note_on_c, 3, 65, 0
5, 11880, Note_on_c, 3, 64, 57
5, 12000, Note_on_c, 3, 64, 0
5, 12000, Note_on_c, 3, 65, 55
5, 12120, Note_on_c, 3, 65, 0
5, 12120, Note_on_c, 3, 65, 54
5, 12240, Note_on_c, 3, 65, 0
5, 12240, Note_on_c, 3, 65, 53
5, 12360, Note_on_c, 3, 65, 0
5, 12360, Note_on_c, 3, 64, 51
5, 12480, Note_on_c, 3, 64, 0
5, 12480, Note_on_c, 3, 65, 50
5, 12720, Note_on_c, 3, 65, 0
5, 12960, Note_on_c, 3, 65, 45
5, 13080, Note_on_c, 3, 65, 0
5, 13080, Note_on_c, 3, 69, 44
5, 13140, Note_on_c, 3, 69, 0
5, 13140, Note_on_c, 3, 67, 43
5, 13200, Note_on_c, 3, 67, 0
5, 13200, Note_on_c, 3, 65, 42
5, 13260, Note_on_c, 3, 65, 0
5, 13260, Note_on_c, 3, 64, 42
5, 13320, Note_on_c, 3, 64, 0
5, 13320, Note_on_c, 3, 62, 41
5, 13380, Note_on_c, 3, 62, 0
5, 13380, Note_on_c, 3, 60, 43
5, 13440, Note_on_c, 3, 60, 0
5, 13440, Note_on_c, 3, 60, 43
5, 13560, Note_on_c, 3, 60, 0
5, 13560, Note_on_c, 3, 60, 41
5, 13680, Note_on_c, 3, 60, 0
5, 13680, Note_on_c, 3, 65, 39
5, 13800, Note_on_c, 3, 65, 0
5, 13800, Note_on_c, 3, 64, 37
5, 13920, Note_on_c, 3, 64, 0
5, 13920, Note_on_c, 3, 65, 36
5, 14040, Note_on_c, 3, 65, 0
5, 14040, Note_on_c, 3, 65, 35
5, 14160, Note_on_c, 3, 65, 0
5, 14160, Note_on_c, 3, 65, 33
5, 14280, Note_on_c, 3, 65, 0
5, 14280, Note_on_c, 3, 64, 32
5, 14400, Note_on_c, 3, 64, 0
5, 14400, Note_on_c, 3, 65, 32
5, 14520, Note_on_c, 3, 65, 0
5, 14640, Note_on_c, 3, 69, 32
5, 14640, Note_on_c, 3, 72, 32
5, 14760, Note_on_c, 3, 72, 0
5, 14760, Note_on_c, 3, 69, 0
5, 14760, Note_on_c, 3, 72, 32
5, 14880, Note_on_c, 3, 72, 0
5, 14880, Note_on_c, 3, 69, 32
5, 15000, Note_on_c, 3, 69, 0
5, 15000, Note_on_c, 3, 65, 32
5, 15120, Note_on_c, 3, 65, 0
5, 15120, Note_on_c, 3, 72, 32
5, 15240, Note_on_c, 3, 72, 0
5, 15240, Note_on_c, 3, 72, 34
5, 15360, Note_on_c, 3, 72, 0
5, 15360, Note_on_c, 3, 60, 36
5, 15360, Note_on_c, 3, 65, 36
5, 15480, Note_on_c, 3, 65, 0
5, 15480, Note_on_c, 3, 60, 0
5, 15600, Note_on_c, 3, 62, 39
5, 15660, Note_on_c, 3, 62, 0
5, 15660, Note_on_c, 3, 65, 40
5, 15720, Note_on_c, 3, 65, 0
5, 15720, Note_on_c, 3, 60, 41
5, 15720, Note_on_c, 3, 63, 41
5, 15780, Note_on_c, 3, 63, 0
5, 15780, Note_on_c, 3, 60, 0
5, 15780, Note_on_c, 3, 65, 42
5, 15840, Note_on_c, 3, 65, 0
5, 15840, Note_on_c, 3, 62, 43
5, 15900, Note_on_c, 3, 62, 0
5, 15900, Note_on_c, 3, 65, 44
5, 15960, Note_on_c, 3, 65, 0
5, 15960, Note_on_c, 3, 62, 45
5, 16020, Note_on_c, 3, 62, 0
5, 16020, Note_on_c, 3, 65, 47
5, 16080, Note_on_c, 3, 65, 0
5, 16080, Note_on_c, 3, 63, 49
5, 16140, Note_on_c, 3, 63, 0
5, 16140, Note_on_c, 3, 65, 50
5, 16200, Note_on_c, 3, 65, 0
5, 16200, Note_on_c, 3, 63, 52
5, 16260, Note_on_c, 3, 63, 0
5, 16260, Note_on_c, 3, 65, 53
5, 16320, Note_on_c, 3, 65, 0
5, 16320, Note_on_c, 3, 62, 53
5, 16380, Note_on_c, 3, 62, 0
5, 16380, Note_on_c, 3, 65, 54
5, 16440, Note_on_c, 3, 65, 0
5, 16440, Note_on_c, 3, 62, 55
5, 16500, Note_on_c, 3, 62, 0
5, 16500, Note_on_c, 3, 65, 56
5, 16560, Note_on_c, 3, 65, 0
5, 16560, Note_on_c, 3, 62, 56
5, 16680, Note_on_c, 3, 62, 0
5, 16680, Note_on_c, 3, 63, 58
5, 16800, Note_on_c, 3, 63, 0
5, 16800, Note_on_c, 3, 65, 59
5, 17040, Note_on_c, 3, 65, 0
5, 17040, Note_on_c, 3, 67, 64
5, 17100, Note_on_c, 3, 67, 0
5, 17100, Note_on_c, 3, 65, 65
5, 17160, Note_on_c, 3, 65, 0
5, 17160, Note_on_c, 3, 64, 67
5, 17220, Note_on_c, 3, 64, 0
5, 17220, Note_on_c, 3, 62, 68
5, 17280, Note_on_c, 3, 62, 0
5, 17280, Note_on_c, 3, 62, 71
5, 17400, Note_on_c, 3, 62, 0
5, 17400, Note_on_c, 3, 60, 73
5, 17520, Note_on_c, 3, 60, 0
5, 17520, Note_on_c, 3, 62, 77
5, 17580, Note_on_c, 3, 62, 0
5, 17580, Note_on_c, 3, 65, 78
5, 17640, Note_on_c, 3, 65, 0
5, 17640, Note_on_c, 3, 63, 80
5, 17700, Note_on_c, 3, 63, 0
5, 17700, Note_on_c, 3, 65, 81
5, 17760, Note_on_c, 3, 65, 0
5, 17760, Note_on_c, 3, 62, 81
5, 17820, Note_on_c, 3, 62, 0
5, 17820, Note_on_c, 3, 65, 81
5, 17880, Note_on_c, 3, 65, 0
5, 17880, Note_on_c, 3, 62, 82
5, 17940, Note_on_c, 3, 62, 0
5, 17940, Note_on_c, 3, 65, 82
5, 18000, Note_on_c, 3, 65, 0
5, 18000, Note_on_c, 3, 63, 82
5, 18060, Note_on_c, 3, 63, 0
5, 18060, Note_on_c, 3, 65, 82
5, 18120, Note_on_c, 3, 65, 0
5, 18120, Note_on_c, 3, 63, 82
5, 18180, Note_on_c, 3, 63, 0
5, 18180, Note_on_c, 3, 65, 83
5, 18240, Note_on_c, 3, 65, 0
5, 18240, Note_on_c, 3, 62, 84
5, 18300, Note_on_c, 3, 62, 0
5, 18300, Note_on_c, 3, 65, 84
5, 18360, Note_on_c, 3, 65, 0
5, 18360, Note_on_c, 3, 62, 84
5, 18420, Note_on_c, 3, 62, 0
5, 18420, Note_on_c, 3, 65, 84
5, 18480, Note_on_c, 3, 65, 0
5, 18480, Note_on_c, 3, 70, 84
5, 18480, Note_on_c, 3, 74, 84
5, 18600, Note_on_c, 3, 74, 0
5, 18600, Note_on_c, 3, 70, 0
5, 18600, Note_on_c, 3, 70, 84
5, 18600, Note_on_c, 3, 74, 84
5, 18720, Note_on_c, 3, 74, 0
5, 18720, Note_on_c, 3, 70, 0
5, 18720, Note_on_c, 3, 70, 84
5, 18720, Note_on_c, 3, 74, 84
5, 18840, Note_on_c, 3, 74, 0
5, 18840, Note_on_c, 3, 70, 0
5, 18840, Note_on_c, 3, 70, 84
5, 18960, Note_on_c, 3, 70, 0
5, 18960, Note_on_c, 3, 62, 84
5, 19080, Note_on_c, 3, 62, 0
5, 19080, Note_on_c, 3, 65, 84
5, 19140, Note_on_c, 3, 65, 0
5, 19140, Note_on_c, 3, 63, 84
5, 19200, Note_on_c, 3, 63, 0
5, 19200, Note_on_c, 3, 62, 84
5, 19320, Note_on_c, 3, 62, 0
5, 19440, Note_on_c, 3, 60, 84
5, 19500, Note_on_c, 3, 60, 0
5, 19500, Note_on_c, 3, 65, 84
5, 19560, Note_on_c, 3, 65, 0
5, 19560, Note_on_c, 3, 60, 84
5, 19620, Note_on_c, 3, 60, 0
5, 19620, Note_on_c, 3, 65, 84
5, 19680, Note_on_c, 3, 65, 0
5, 19680, Note_on_c, 3, 63, 84
5, 19740, Note_on_c, 3, 63, 0
5, 19740, Note_on_c, 3, 65, 83
5, 19800, Note_on_c, 3, 65, 0
5, 19800, Note_on_c, 3, 63, 82
5, 19860, Note_on_c, 3, 63, 0
5, 19860, Note_on_c, 3, 65, 81
5, 19920, Note_on_c, 3, 65, 0
5, 19920, Note_on_c, 3, 63, 80
5, 19980, Note_on_c, 3, 63, 0
5, 19980, Note_on_c, 3, 65, 80
5, 20040, Note_on_c, 3, 65, 0
5, 20040, Note_on_c, 3, 63, 79
5, 20100, Note_on_c, 3, 63, 0
5, 20100, Note_on_c, 3, 65, 78
5, 20160, Note_on_c, 3, 65, 0
5, 20160, Note_on_c, 3, 62, 78
5, 20220, Note_on_c, 3, 62, 0
5, 20220, Note_on_c, 3, 65, 78
5, 20280, Note_on_c, 3, 65, 0
5, 20280, Note_on_c, 3, 62, 78
5, 20340, Note_on_c, 3, 62, 0
5, 20340, Note_on_c, 3, 65, 78
5, 20400, Note_on_c, 3, 65, 0
5, 20400, Note_on_c, 3, 62, 78
5, 20460, Note_on_c, 3, 62, 0
5, 20460, Note_on_c, 3, 65, 78
5, 20520, Note_on_c, 3, 65, 0
5, 20520, Note_on_c, 3, 62, 78
5, 20580, Note_on_c, 3, 62, 0
5, 20580, Note_on_c, 3, 65, 79
5, 20640, Note_on_c, 3, 65, 0
5, 20640, Note_on_c, 3, 63, 80
5, 20700, Note_on_c, 3, 63, 0
5, 20700, Note_on_c, 3, 65, 80
5, 20760, Note_on_c, 3, 65, 0
5, 20760, Note_on_c, 3, 63, 80
5, 20820, Note_on_c, 3, 63, 0
5, 20820, Note_on_c, 3, 65, 80
5, 20880, Note_on_c, 3, 65, 0
5, 20880, Note_on_c, 3, 63, 80
5, 20940, Note_on_c, 3, 63, 0
5, 20940, Note_on_c, 3, 65, 80
5, 21000, Note_on_c, 3, 65, 0
5, 21000, Note_on_c, 3, 63, 80
5, 21060, Note_on_c, 3, 63, 0
5, 21060, Note_on_c, 3, 65, 80
5, 21120, Note_on_c, 3, 65, 0
5, 21120, Note_on_c, 3, 62, 80
5, 21180, Note_on_c, 3, 62, 0
5, 21180, Note_on_c, 3, 65, 80
5, 21240, Note_on_c, 3, 65, 0
5, 21240, Note_on_c, 3, 62, 80
5, 21300, Note_on_c, 3, 62, 0
5, 21300, Note_on_c, 3, 65, 80
5, 21360, Note_on_c, 3, 65, 0
5, 21360, Note_on_c, 3, 62, 80
5, 21480, Note_on_c, 3, 62, 0
5, 21480, Note_on_c, 3, 63, 79
5, 21600, Note_on_c, 3, 63, 0
5, 21600, Note_on_c, 3, 62, 79
5, 21600, Note_on_c, 3, 65, 79
5, 21840, Note_on_c, 3, 65, 0
5, 21840, Note_on_c, 3, 62, 0
5, 21840, Note_on_c, 3, 62, 79
5, 21960, Note_on_c, 3, 62, 0
5, 21960, Note_on_c, 3, 63, 79
5, 22080, Note_on_c, 3, 63, 0
5, 22080, Note_on_c, 3, 62, 79
5, 22080, Note_on_c, 3, 65, 79
5, 22320, Note_on_c, 3, 65, 0
5, 22320, Note_on_c, 3, 62, 0
5, 22320, Note_on_c, 3, 70, 79
5, 22440, Note_on_c, 3, 70, 0
5, 22440, Note_on_c, 3, 70, 79
5, 22560, Note_on_c, 3, 70, 0
5, 22560, Note_on_c, 3, 70, 79
5, 22560, Note_on_c, 3, 74, 79
5, 22680, Note_on_c, 3, 74, 0
5, 22680, Note_on_c, 3, 70, 0
5, 22680, Note_on_c, 3, 70, 80
5, 22800, Note_on_c, 3, 70, 0
5, 22800, Note_on_c, 3, 62, 80
5, 22980, Note_on_c, 3, 62, 0
5, 22980, Note_on_c, 3, 63, 79
5, 23040, Note_on_c, 3, 63, 0
5, 23040, Note_on_c, 3, 62, 79
5, 23160, Note_on_c, 3, 62, 0
5, 23520, Note_on_c, 3, 60, 82
5, 23520, Note_on_c, 3, 64, 82
5, 23520, Note_on_c, 3, 67, 82
5, 23520, Note_on_c, 3, 70, 82
5, 24000, Note_on_c, 3, 70, 0
5, 24000, Note_on_c, 3, 60, 0
5, 24000, Note_on_c, 3, 64, 0
5, 24000, Note_on_c, 3, 67, 0
5, 24000, Note_on_c, 3, 69, 80
5, 24000, Note_on_c, 3, 65, 80
5, 24480, Note_on_c, 3, 65, 0
5, 24480, Note_on_c, 3, 69, 0
5, 24480, Note_on_c, 3, 62, 78
5, 24480, Note_on_c, 3, 65, 78
5, 24960, Note_on_c, 3, 65, 0
5, 24960, Note_on_c, 3, 62, 0
5, 24960, Note_on_c, 3, 60, 78
5, 24960, Note_on_c, 3, 64, 78
5, 25200, Note_on_c, 3, 64, 0
5, 25200, Note_on_c, 3, 60, 0
5, 25200, Note_on_c, 3, 65, 78
5, 25320, Note_on_c, 3, 65, 0
5, 25320, Note_on_c, 3, 64, 78
5, 25440, Note_on_c, 3, 64, 0
5, 25440, Note_on_c, 3, 65, 78
5, 25560, Note_on_c, 3, 65, 0
5, 25560, Note_on_c, 3, 65, 78
5, 25680, Note_on_c, 3, 65, 0
5, 25680, Note_on_c, 3, 65, 78
5, 25800, Note_on_c, 3, 65, 0
5, 25800, Note_on_c, 3, 64, 78
5, 25920, Note_on_c, 3, 64, 0
5, 25920, Note_on_c, 3, 65, 76
5, 26160, Note_on_c, 3, 65, 0
5, 26400, Note_on_c, 3, 65, 74
5, 26520, Note_on_c, 3, 65, 0
5, 26520, Note_on_c, 3, 69, 72
5, 26580, Note_on_c, 3, 69, 0
5, 26580, Note_on_c, 3, 67, 72
5, 26640, Note_on_c, 3, 67, 0
5, 26640, Note_on_c, 3, 65, 71
5, 26700, Note_on_c, 3, 65, 0
5, 26700, Note_on_c, 3, 64, 70
5, 26760, Note_on_c, 3, 64, 0
5, 26760, Note_on_c, 3, 62, 70
5, 26820, Note_on_c, 3, 62, 0
5, 26820, Note_on_c, 3, 62, 70
5, 26880, Note_on_c, 3, 62, 0
5, 26880, Note_on_c, 3, 60, 69
5, 27000, Note_on_c, 3, 60, 0
5, 27000, Note_on_c, 3, 60, 68
5, 27120, Note_on_c, 3, 60, 0
5, 27120, Note_on_c, 3, 65, 67
5, 27240, Note_on_c, 3, 65, 0
5, 27240, Note_on_c, 3, 64, 65
5, 27360, Note_on_c, 3, 64, 0
5, 27360, Note_on_c, 3, 65, 65
5, 27480, Note_on_c, 3, 65, 0
5, 27480, Note_on_c, 3, 65, 65
5, 27600, Note_on_c, 3, 65, 0
5, 27600, Note_on_c, 3, 65, 65
5, 27720, Note_on_c, 3, 65, 0
5, 27720, Note_on_c, 3, 64, 65
5, 27840, Note_on_c, 3, 64, 0
5, 27840, Note_on_c, 3, 65, 64
5, 27960, Note_on_c, 3, 65, 0
5, 28080, Note_on_c, 3, 72, 64
5, 28080, Note_on_c, 3, 69, 64
5, 28200, Note_on_c, 3, 69, 0
5, 28200, Note_on_c, 3, 72, 0
5, 28200, Note_on_c, 3, 72, 64
5, 28320, Note_on_c, 3, 72, 0
5, 28320, Note_on_c, 3, 69, 65
5, 28440, Note_on_c, 3, 69, 0
5, 28440, Note_on_c, 3, 65, 63
5, 28560, Note_on_c, 3, 65, 0
5, 28560, Note_on_c, 3, 72, 62
5, 28680, Note_on_c, 3, 72, 0
5, 28680, Note_on_c, 3, 72, 61
5, 28800, Note_on_c, 3, 72, 0
5, 29520, Note_on_c, 3, 70, 57
5, 29520, Note_on_c, 3, 65, 57
5, 29640, Note_on_c, 3, 65, 0
5, 29640, Note_on_c, 3, 70, 0
5, 29640, Note_on_c, 3, 65, 57
5, 29640, Note_on_c, 3, 70, 57
5, 29760, Note_on_c, 3, 70, 0
5, 29760, Note_on_c, 3, 65, 0
5, 29760, Note_on_c, 3, 69, 57
5, 29760, Note_on_c, 3, 65, 57
5, 30000, Note_on_c, 3, 65, 0
5, 30000, Note_on_c, 3, 69, 0
5, 30000, Note_on_c, 3, 65, 57
5, 30000, Note_on_c, 3, 70, 57
5, 30120, Note_on_c, 3, 70, 0
5, 30120, Note_on_c, 3, 65, 0
5, 30120, Note_on_c, 3, 70, 57
5, 30120, Note_on_c, 3, 65, 57
5, 30240, Note_on_c, 3, 65, 0
5, 30240, Note_on_c, 3, 70, 0
5, 30240, Note_on_c, 3, 72, 57
5, 30360, Note_on_c, 3, 72, 0
5, 30360, Note_on_c, 3, 69, 58
5, 30480, Note_on_c, 3, 69, 0
5, 30480, Note_on_c, 3, 70, 58
5, 30600, Note_on_c, 3, 70, 0
5, 30600, Note_on_c, 3, 67, 58
5, 30720, Note_on_c, 3, 67, 0
5, 30720, Note_on_c, 3, 69, 58
5, 30840, Note_on_c, 3, 69, 0
5, 31200, Note_on_c, 3, 69, 61
5, 31200, Note_on_c, 3, 65, 61
5, 31440, Note_on_c, 3, 65, 0
5, 31440, Note_on_c, 3, 69, 0
5, 31440, Note_on_c, 3, 70, 64
5, 31440, Note_on_c, 3, 67, 64
5, 31680, Note_on_c, 3, 67, 0
5, 31680, Note_on_c, 3, 70, 0
5, 31680, Note_on_c, 3, 69, 67
5, 31680, Note_on_c, 3, 65, 67
5, 31920, Note_on_c, 3, 65, 0
5, 31920, Note_on_c, 3, 69, 0
5, 32520, Note_on_c, 3, 70, 103
5, 32520, Note_on_c, 3, 67, 103
5, 32640, Note_on_c, 3, 67, 0
5, 32640, Note_on_c, 3, 70, 0
5, 32640, Note_on_c, 3, 69, 103
5, 32640, Note_on_c, 3, 65, 103
5, 32760, Note_on_c, 3, 65, 0
5, 32760, Note_on_c, 3, 69, 0
5, 32880, Note_on_c, 3, 72, 110
5, 32880, Note_on_c, 3, 65, 110
5, 33000, Note_on_c, 3, 65, 0
5, 33000, Note_on_c, 3, 72, 0
5, 33120, Note_on_c, 3, 65, 120
5, 33360, Note_on_c, 3, 65, 0
5, 33360, End_track
6, 0, Start_track
6, 0, End_track
0, 0, End_of_file