0, 0, Header, 1, 5, 120
1, 0, Start_track
1, 0, Title_t, "Menuett es-dur"
1, 0, Title_t, "WoO 82"
1, 0, Copyright_t, "Copyright \251 2001 fiorellaearmando@panet.it"
1, 0, Text_t, "LVANBEET\012"
1, 0, Text_t, "GA NR 193 = SERIE 18 NR 11\012"
1, 0, Time_signature, 3, 2, 24, 8
1, 0, Key_signature, -3, "major"
1, 0, Tempo, 444444
1, 24480, Key_signature, -4, "major"
1, 24480, End_track
2, 0, Start_track
2, 0, Program_c, 0, 0
2, 0, Control_c, 0, 7, 127
2, 0, Control_c, 0, 10, 45
2, 0, Control_c, 0, 93, 14
2, 0, Control_c, 0, 91, 17
2, 240, Note_on_c, 0, 58, 90
2, 360, Note_on_c, 0, 58, 0
2, 360, Note_on_c, 0, 58, 90
2, 360, Note_on_c, 0, 70, 90
2, 360, Note_on_c, 0, 67, 90
2, 480, Note_on_c, 0, 67, 0
2, 480, Note_on_c, 0, 70, 0
2, 480, Note_on_c, 0, 68, 90
2, 480, Note_on_c, 0, 65, 90
2, 600, Note_on_c, 0, 65, 0
2, 600, Note_on_c, 0, 68, 0
2, 600, Note_on_c, 0, 67, 90
2, 600, Note_on_c, 0, 63, 90
2, 720, Note_on_c, 0, 63, 0
2, 720, Note_on_c, 0, 67, 0
2, 720, Note_on_c, 0, 58, 0
2, 720, Note_on_c, 0, 58, 88
2, 720, Note_on_c, 0, 67, 88
2, 720, Note_on_c, 0, 63, 88
2, 960, Note_on_c, 0, 63, 0
2, 960, Note_on_c, 0, 67, 0
2, 960, Note_on_c, 0, 58, 0
2, 960, Note_on_c, 0, 68, 87
2, 960, Note_on_c, 0, 63, 87
2, 960, Note_on_c, 0, 58, 87
2, 1020, Note_on_c, 0, 68, 0
2, 1020, Note_on_c, 0, 67, 87
2, 1080, Note_on_c, 0, 67, 0
2, 1080, Note_on_c, 0, 58, 0
2, 1080, Note_on_c, 0, 63, 0
2, 1080, Note_on_c, 0, 60, 88
2, 1080, Note_on_c, 0, 63, 88
2, 1080, Note_on_c, 0, 67, 88
2, 1140, Note_on_c, 0, 67, 0
2, 1140, Note_on_c, 0, 65, 90
2, 1200, Note_on_c, 0, 65, 0
2, 1200, Note_on_c, 0, 63, 0
2, 1200, Note_on_c, 0, 60, 0
2, 1200, Note_on_c, 0, 60, 97
2, 1200, Note_on_c, 0, 63, 97
2, 1200, Note_on_c, 0, 65, 97
2, 1320, Note_on_c, 0, 65, 0
2, 1320, Note_on_c, 0, 63, 0
2, 1320, Note_on_c, 0, 60, 0
2, 1320, Note_on_c, 0, 60, 105
2, 1320, Note_on_c, 0, 63, 105
2, 1320, Note_on_c, 0, 65, 105
2, 1440, Note_on_c, 0, 65, 0
2, 1440, Note_on_c, 0, 63, 0
2, 1440, Note_on_c, 0, 60, 0
2, 1440, Note_on_c, 0, 60, 113
2, 1440, Note_on_c, 0, 63, 113
2, 1440, Note_on_c, 0, 65, 113
2, 1560, Note_on_c, 0, 65, 0
2, 1560, Note_on_c, 0, 63, 0
2, 1560, Note_on_c, 0, 60, 0
2, 1800, Note_on_c, 0, 68, 75
2, 1800, Note_on_c, 0, 65, 75
2, 1920, Note_on_c, 0, 65, 0
2, 1920, Note_on_c, 0, 68, 0
2, 1920, Note_on_c, 0, 67, 76
2, 1920, Note_on_c, 0, 63, 76
2, 2040, Note_on_c, 0, 63, 0
2, 2040, Note_on_c, 0, 67, 0
2, 2040, Note_on_c, 0, 65, 76
2, 2040, Note_on_c, 0, 62, 76
2, 2160, Note_on_c, 0, 62, 0
2, 2160, Note_on_c, 0, 65, 0
2, 2160, Note_on_c, 0, 62, 77
2, 2160, Note_on_c, 0, 58, 77
2, 2160, Note_on_c, 0, 70, 77
2, 2280, Note_on_c, 0, 62, 0
2, 2280, Note_on_c, 0, 63, 77
2, 2400, Note_on_c, 0, 63, 0
2, 2400, Note_on_c, 0, 70, 0
2, 2400, Note_on_c, 0, 58, 0
2, 2400, Note_on_c, 0, 68, 77
2, 2400, Note_on_c, 0, 65, 77
2, 2400, Note_on_c, 0, 58, 77
2, 2520, Note_on_c, 0, 58, 0
2, 2520, Note_on_c, 0, 65, 0
2, 2520, Note_on_c, 0, 68, 0
2, 2520, Note_on_c, 0, 58, 77
2, 2520, Note_on_c, 0, 63, 77
2, 2520, Note_on_c, 0, 68, 77
2, 2580, Note_on_c, 0, 68, 0
2, 2580, Note_on_c, 0, 67, 77
2, 2640, Note_on_c, 0, 67, 0
2, 2640, Note_on_c, 0, 63, 0
2, 2640, Note_on_c, 0, 58, 0
2, 2640, Note_on_c, 0, 58, 109
2, 2640, Note_on_c, 0, 63, 109
2, 2640, Note_on_c, 0, 67, 109
2, 2760, Note_on_c, 0, 67, 0
2, 2760, Note_on_c, 0, 63, 0
2, 2760, Note_on_c, 0, 58, 0
2, 2760, Note_on_c, 0, 67, 109
2, 2760, Note_on_c, 0, 63, 109
2, 2760, Note_on_c, 0, 58, 109
2, 2880, Note_on_c, 0, 58, 0
2, 2880, Note_on_c, 0, 63, 0
2, 2880, Note_on_c, 0, 67, 0
2, 2880, Note_on_c, 0, 58, 109
2, 2880, Note_on_c, 0, 63, 109
2, 2880, Note_on_c, 0, 67, 109
2, 3000, Note_on_c, 0, 67, 0
2, 3000, Note_on_c, 0, 63, 0
2, 3000, Note_on_c, 0, 58, 0
2, 3140, Note_on_c, 0, 58, 76
2, 3160, Note_on_c, 0, 58, 0
2, 3160, Note_on_c, 0, 60, 77
2, 3180, Note_on_c, 0, 60, 0
2, 3180, Note_on_c, 0, 62, 79
2, 3200, Note_on_c, 0, 62, 0
2, 3200, Note_on_c, 0, 63, 80
2, 3220, Note_on_c, 0, 63, 0
2, 3220, Note_on_c, 0, 65, 81
2, 3240, Note_on_c, 0, 65, 0
2, 3240, Note_on_c, 0, 67, 82
2, 3240, Note_on_c, 0, 63, 82
2, 3360, Note_on_c, 0, 63, 0
2, 3360, Note_on_c, 0, 67, 0
2, 3360, Note_on_c, 0, 68, 91
2, 3360, Note_on_c, 0, 65, 91
2, 3480, Note_on_c, 0, 65, 0
2, 3480, Note_on_c, 0, 68, 0
2, 3480, Note_on_c, 0, 70, 96
2, 3480, Note_on_c, 0, 67, 96
2, 3600, Note_on_c, 0, 67, 0
2, 3600, Note_on_c, 0, 70, 0
2, 3600, Note_on_c, 0, 60, 116
2, 3600, Note_on_c, 0, 65, 116
2, 3600, Note_on_c, 0, 69, 116
2, 3600, Note_on_c, 0, 72, 116
2, 3840, Note_on_c, 0, 72, 0
2, 3840, Note_on_c, 0, 60, 0
2, 3840, Note_on_c, 0, 65, 0
2, 3840, Note_on_c, 0, 69, 0
2, 3840, Note_on_c, 0, 62, 100
2, 3840, Note_on_c, 0, 65, 100
2, 3840, Note_on_c, 0, 70, 100
2, 3840, Note_on_c, 0, 74, 100
2, 3960, Note_on_c, 0, 74, 0
2, 3960, Note_on_c, 0, 62, 0
2, 3960, Note_on_c, 0, 65, 0
2, 3960, Note_on_c, 0, 70, 0
2, 3960, Note_on_c, 0, 63, 100
2, 3960, Note_on_c, 0, 65, 100
2, 3960, Note_on_c, 0, 69, 100
2, 3960, Note_on_c, 0, 75, 100
2, 4080, Note_on_c, 0, 75, 0
2, 4080, Note_on_c, 0, 63, 0
2, 4080, Note_on_c, 0, 65, 0
2, 4080, Note_on_c, 0, 69, 0
2, 4080, Note_on_c, 0, 63, 100
2, 4080, Note_on_c, 0, 65, 100
2, 4080, Note_on_c, 0, 69, 100
2, 4080, Note_on_c, 0, 75, 100
2, 4200, Note_on_c, 0, 75, 0
2, 4200, Note_on_c, 0, 63, 0
2, 4200, Note_on_c, 0, 65, 0
2, 4200, Note_on_c, 0, 69, 0
2, 4200, Note_on_c, 0, 62, 100
2, 4200, Note_on_c, 0, 65, 100
2, 4200, Note_on_c, 0, 70, 100
2, 4200, Note_on_c, 0, 74, 100
2, 4320, Note_on_c, 0, 74, 0
2, 4320, Note_on_c, 0, 62, 0
2, 4320, Note_on_c, 0, 65, 0
2, 4320, Note_on_c, 0, 70, 0
2, 4320, Note_on_c, 0, 67, 100
2, 4320, Note_on_c, 0, 70, 100
2, 4320, Note_on_c, 0, 75, 100
2, 4320, Note_on_c, 0, 79, 100
2, 4440, Note_on_c, 0, 79, 0
2, 4440, Note_on_c, 0, 67, 0
2, 4440, Note_on_c, 0, 70, 0
2, 4440, Note_on_c, 0, 75, 0
2, 4680, Note_on_c, 0, 67, 78
2, 4680, Note_on_c, 0, 79, 78
2, 4800, Note_on_c, 0, 69, 76
2, 4920, Note_on_c, 0, 69, 0
2, 4920, Note_on_c, 0, 79, 0
2, 4920, Note_on_c, 0, 67, 0
2, 4920, Note_on_c, 0, 70, 74
2, 4920, Note_on_c, 0, 65, 74
2, 4920, Note_on_c, 0, 77, 74
2, 5040, Note_on_c, 0, 77, 0
2, 5040, Note_on_c, 0, 65, 0
2, 5040, Note_on_c, 0, 63, 72
2, 5040, Note_on_c, 0, 75, 72
2, 5160, Note_on_c, 0, 70, 0
2, 5160, Note_on_c, 0, 69, 71
2, 5280, Note_on_c, 0, 69, 0
2, 5280, Note_on_c, 0, 75, 0
2, 5280, Note_on_c, 0, 63, 0
2, 5280, Note_on_c, 0, 62, 71
2, 5280, Note_on_c, 0, 70, 71
2, 5280, Note_on_c, 0, 74, 71
2, 5385, Note_on_c, 0, 74, 71
2, 5400, Note_on_c, 0, 74, 0
2, 5400, Note_on_c, 0, 62, 0
2, 5400, Note_on_c, 0, 70, 0
2, 5400, Note_on_c, 0, 72, 71
2, 5400, Note_on_c, 0, 67, 71
2, 5400, Note_on_c, 0, 63, 71
2, 5402, Note_on_c, 0, 74, 0
2, 5520, Note_on_c, 0, 72, 0
2, 5520, Note_on_c, 0, 67, 0
2, 5520, Note_on_c, 0, 63, 0
2, 5520, Note_on_c, 0, 70, 69
2, 5520, Note_on_c, 0, 62, 69
2, 5520, Note_on_c, 0, 65, 69
2, 5640, Note_on_c, 0, 65, 0
2, 5640, Note_on_c, 0, 62, 0
2, 5640, Note_on_c, 0, 70, 0
2, 5640, Note_on_c, 0, 69, 65
2, 5640, Note_on_c, 0, 65, 65
2, 5640, Note_on_c, 0, 63, 65
2, 5640, Note_on_c, 0, 60, 65
2, 5760, Note_on_c, 0, 60, 0
2, 5760, Note_on_c, 0, 69, 0
2, 5760, Note_on_c, 0, 65, 0
2, 5760, Note_on_c, 0, 63, 0
2, 5760, Note_on_c, 0, 62, 57
2, 5760, Note_on_c, 0, 65, 57
2, 5760, Note_on_c, 0, 70, 57
2, 5880, Note_on_c, 0, 70, 0
2, 5880, Note_on_c, 0, 65, 0
2, 5880, Note_on_c, 0, 62, 0
2, 6005, Note_on_c, 0, 58, 90
2, 6125, Note_on_c, 0, 58, 0
2, 6125, Note_on_c, 0, 58, 90
2, 6125, Note_on_c, 0, 70, 90
2, 6125, Note_on_c, 0, 67, 90
2, 6245, Note_on_c, 0, 67, 0
2, 6245, Note_on_c, 0, 70, 0
2, 6245, Note_on_c, 0, 68, 90
2, 6245, Note_on_c, 0, 65, 90
2, 6365, Note_on_c, 0, 65, 0
2, 6365, Note_on_c, 0, 68, 0
2, 6365, Note_on_c, 0, 67, 90
2, 6365, Note_on_c, 0, 63, 90
2, 6485, Note_on_c, 0, 63, 0
2, 6485, Note_on_c, 0, 67, 0
2, 6485, Note_on_c, 0, 58, 0
2, 6485, Note_on_c, 0, 58, 88
2, 6485, Note_on_c, 0, 67, 88
2, 6485, Note_on_c, 0, 63, 88
2, 6725, Note_on_c, 0, 63, 0
2, 6725, Note_on_c, 0, 67, 0
2, 6725, Note_on_c, 0, 58, 0
2, 6725, Note_on_c, 0, 68, 87
2, 6725, Note_on_c, 0, 63, 87
2, 6725, Note_on_c, 0, 58, 87
2, 6785, Note_on_c, 0, 68, 0
2, 6785, Note_on_c, 0, 67, 87
2, 6845, Note_on_c, 0, 67, 0
2, 6845, Note_on_c, 0, 58, 0
2, 6845, Note_on_c, 0, 63, 0
2, 6845, Note_on_c, 0, 60, 88
2, 6845, Note_on_c, 0, 63, 88
2, 6845, Note_on_c, 0, 67, 88
2, 6905, Note_on_c, 0, 67, 0
2, 6905, Note_on_c, 0, 65, 90
2, 6965, Note_on_c, 0, 65, 0
2, 6965, Note_on_c, 0, 63, 0
2, 6965, Note_on_c, 0, 60, 0
2, 6965, Note_on_c, 0, 60, 97
2, 6965, Note_on_c, 0, 63, 97
2, 6965, Note_on_c, 0, 65, 97
2, 7085, Note_on_c, 0, 65, 0
2, 7085, Note_on_c, 0, 63, 0
2, 7085, Note_on_c, 0, 60, 0
2, 7085, Note_on_c, 0, 60, 105
2, 7085, Note_on_c, 0, 63, 105
2, 7085, Note_on_c, 0, 65, 105
2, 7205, Note_on_c, 0, 65, 0
2, 7205, Note_on_c, 0, 63, 0
2, 7205, Note_on_c, 0, 60, 0
2, 7205, Note_on_c, 0, 60, 113
2, 7205, Note_on_c, 0, 63, 113
2, 7205, Note_on_c, 0, 65, 113
2, 7325, Note_on_c, 0, 65, 0
2, 7325, Note_on_c, 0, 63, 0
2, 7325, Note_on_c, 0, 60, 0
2, 7565, Note_on_c, 0, 68, 75
2, 7565, Note_on_c, 0, 65, 75
2, 7685, Note_on_c, 0, 65, 0
2, 7685, Note_on_c, 0, 68, 0
2, 7685, Note_on_c, 0, 67, 76
2, 7685, Note_on_c, 0, 63, 76
2, 7805, Note_on_c, 0, 63, 0
2, 7805, Note_on_c, 0, 67, 0
2, 7805, Note_on_c, 0, 65, 76
2, 7805, Note_on_c, 0, 62, 76
2, 7925, Note_on_c, 0, 62, 0
2, 7925, Note_on_c, 0, 65, 0
2, 7925, Note_on_c, 0, 62, 77
2, 7925, Note_on_c, 0, 58, 77
2, 7925, Note_on_c, 0, 70, 77
2, 8045, Note_on_c, 0, 62, 0
2, 8045, Note_on_c, 0, 63, 77
2, 8165, Note_on_c, 0, 63, 0
2, 8165, Note_on_c, 0, 70, 0
2, 8165, Note_on_c, 0, 58, 0
2, 8165, Note_on_c, 0, 68, 77
2, 8165, Note_on_c, 0, 65, 77
2, 8165, Note_on_c, 0, 58, 77
2, 8285, Note_on_c, 0, 58, 0
2, 8285, Note_on_c, 0, 65, 0
2, 8285, Note_on_c, 0, 68, 0
2, 8285, Note_on_c, 0, 58, 77
2, 8285, Note_on_c, 0, 63, 77
2, 8285, Note_on_c, 0, 68, 77
2, 8345, Note_on_c, 0, 68, 0
2, 8345, Note_on_c, 0, 67, 77
2, 8405, Note_on_c, 0, 67, 0
2, 8405, Note_on_c, 0, 63, 0
2, 8405, Note_on_c, 0, 58, 0
2, 8405, Note_on_c, 0, 58, 109
2, 8405, Note_on_c, 0, 63, 109
2, 8405, Note_on_c, 0, 67, 109
2, 8525, Note_on_c, 0, 67, 0
2, 8525, Note_on_c, 0, 63, 0
2, 8525, Note_on_c, 0, 58, 0
2, 8525, Note_on_c, 0, 67, 109
2, 8525, Note_on_c, 0, 63, 109
2, 8525, Note_on_c, 0, 58, 109
2, 8645, Note_on_c, 0, 58, 0
2, 8645, Note_on_c, 0, 63, 0
2, 8645, Note_on_c, 0, 67, 0
2, 8645, Note_on_c, 0, 58, 109
2, 8645, Note_on_c, 0, 63, 109
2, 8645, Note_on_c, 0, 67, 109
2, 8765, Note_on_c, 0, 67, 0
2, 8765, Note_on_c, 0, 63, 0
2, 8765, Note_on_c, 0, 58, 0
2, 8905, Note_on_c, 0, 58, 76
2, 8925, Note_on_c, 0, 58, 0
2, 8925, Note_on_c, 0, 60, 77
2, 8945, Note_on_c, 0, 60, 0
2, 8945, Note_on_c, 0, 62, 79
2, 8965, Note_on_c, 0, 62, 0
2, 8965, Note_on_c, 0, 63, 80
2, 8985, Note_on_c, 0, 63, 0
2, 8985, Note_on_c, 0, 65, 81
2, 9005, Note_on_c, 0, 65, 0
2, 9005, Note_on_c, 0, 67, 82
2, 9005, Note_on_c, 0, 63, 82
2, 9125, Note_on_c, 0, 63, 0
2, 9125, Note_on_c, 0, 67, 0
2, 9125, Note_on_c, 0, 68, 91
2, 9125, Note_on_c, 0, 65, 91
2, 9245, Note_on_c, 0, 65, 0
2, 9245, Note_on_c, 0, 68, 0
2, 9245, Note_on_c, 0, 70, 96
2, 9245, Note_on_c, 0, 67, 96
2, 9365, Note_on_c, 0, 67, 0
2, 9365, Note_on_c, 0, 70, 0
2, 9365, Note_on_c, 0, 60, 116
2, 9365, Note_on_c, 0, 65, 116
2, 9365, Note_on_c, 0, 69, 116
2, 9365, Note_on_c, 0, 72, 116
2, 9605, Note_on_c, 0, 72, 0
2, 9605, Note_on_c, 0, 60, 0
2, 9605, Note_on_c, 0, 65, 0
2, 9605, Note_on_c, 0, 69, 0
2, 9605, Note_on_c, 0, 62, 100
2, 9605, Note_on_c, 0, 65, 100
2, 9605, Note_on_c, 0, 70, 100
2, 9605, Note_on_c, 0, 74, 100
2, 9725, Note_on_c, 0, 74, 0
2, 9725, Note_on_c, 0, 62, 0
2, 9725, Note_on_c, 0, 65, 0
2, 9725, Note_on_c, 0, 70, 0
2, 9725, Note_on_c, 0, 63, 100
2, 9725, Note_on_c, 0, 65, 100
2, 9725, Note_on_c, 0, 69, 100
2, 9725, Note_on_c, 0, 75, 100
2, 9845, Note_on_c, 0, 75, 0
2, 9845, Note_on_c, 0, 63, 0
2, 9845, Note_on_c, 0, 65, 0
2, 9845, Note_on_c, 0, 69, 0
2, 9845, Note_on_c, 0, 63, 100
2, 9845, Note_on_c, 0, 65, 100
2, 9845, Note_on_c, 0, 69, 100
2, 9845, Note_on_c, 0, 75, 100
2, 9965, Note_on_c, 0, 75, 0
2, 9965, Note_on_c, 0, 63, 0
2, 9965, Note_on_c, 0, 65, 0
2, 9965, Note_on_c, 0, 69, 0
2, 9965, Note_on_c, 0, 62, 100
2, 9965, Note_on_c, 0, 65, 100
2, 9965, Note_on_c, 0, 70, 100
2, 9965, Note_on_c, 0, 74, 100
2, 10085, Note_on_c, 0, 74, 0
2, 10085, Note_on_c, 0, 62, 0
2, 10085, Note_on_c, 0, 65, 0
2, 10085, Note_on_c, 0, 70, 0
2, 10085, Note_on_c, 0, 67, 100
2, 10085, Note_on_c, 0, 70, 100
2, 10085, Note_on_c, 0, 75, 100
2, 10085, Note_on_c, 0, 79, 100
2, 10205, Note_on_c, 0, 79, 0
2, 10205, Note_on_c, 0, 67, 0
2, 10205, Note_on_c, 0, 70, 0
2, 10205, Note_on_c, 0, 75, 0
2, 10445, Note_on_c, 0, 67, 78
2, 10445, Note_on_c, 0, 79, 78
2, 10565, Note_on_c, 0, 69, 76
2, 10685, Note_on_c, 0, 69, 0
2, 10685, Note_on_c, 0, 79, 0
2, 10685, Note_on_c, 0, 67, 0
2, 10685, Note_on_c, 0, 70, 74
2, 10685, Note_on_c, 0, 65, 74
2, 10685, Note_on_c, 0, 77, 74
2, 10805, Note_on_c, 0, 77, 0
2, 10805, Note_on_c, 0, 65, 0
2, 10805, Note_on_c, 0, 63, 72
2, 10805, Note_on_c, 0, 75, 72
2, 10925, Note_on_c, 0, 70, 0
2, 10925, Note_on_c, 0, 69, 71
2, 11045, Note_on_c, 0, 69, 0
2, 11045, Note_on_c, 0, 75, 0
2, 11045, Note_on_c, 0, 63, 0
2, 11045, Note_on_c, 0, 62, 71
2, 11045, Note_on_c, 0, 70, 71
2, 11045, Note_on_c, 0, 74, 71
2, 11150, Note_on_c, 0, 74, 71
2, 11159, Note_on_c, 0, 74, 0
2, 11165, Note_on_c, 0, 62, 0
2, 11165, Note_on_c, 0, 70, 0
2, 11165, Note_on_c, 0, 74, 0
2, 11165, Note_on_c, 0, 72, 71
2, 11165, Note_on_c, 0, 67, 71
2, 11165, Note_on_c, 0, 63, 71
2, 11285, Note_on_c, 0, 63, 0
2, 11285, Note_on_c, 0, 67, 0
2, 11285, Note_on_c, 0, 72, 0
2, 11285, Note_on_c, 0, 70, 69
2, 11285, Note_on_c, 0, 62, 69
2, 11285, Note_on_c, 0, 65, 69
2, 11405, Note_on_c, 0, 65, 0
2, 11405, Note_on_c, 0, 62, 0
2, 11405, Note_on_c, 0, 70, 0
2, 11405, Note_on_c, 0, 69, 65
2, 11405, Note_on_c, 0, 65, 65
2, 11405, Note_on_c, 0, 63, 65
2, 11405, Note_on_c, 0, 60, 65
2, 11525, Note_on_c, 0, 60, 0
2, 11525, Note_on_c, 0, 69, 0
2, 11525, Note_on_c, 0, 65, 0
2, 11525, Note_on_c, 0, 63, 0
2, 11525, Note_on_c, 0, 62, 57
2, 11525, Note_on_c, 0, 65, 57
2, 11525, Note_on_c, 0, 70, 57
2, 11645, Note_on_c, 0, 70, 0
2, 11645, Note_on_c, 0, 65, 0
2, 11645, Note_on_c, 0, 62, 0
2, 11760, Note_on_c, 0, 58, 83
2, 11880, Note_on_c, 0, 58, 0
2, 11880, Note_on_c, 0, 70, 106
2, 12000, Note_on_c, 0, 58, 89
2, 12120, Note_on_c, 0, 58, 0
2, 12120, Note_on_c, 0, 60, 90
2, 12240, Note_on_c, 0, 60, 0
2, 12360, Note_on_c, 0, 70, 0
2, 12360, Note_on_c, 0, 68, 101
2, 12480, Note_on_c, 0, 58, 91
2, 12600, Note_on_c, 0, 58, 0
2, 12720, Note_on_c, 0, 68, 0
2, 12720, Note_on_c, 0, 67, 91
2, 12840, Note_on_c, 0, 57, 91
2, 12900, Note_on_c, 0, 67, 0
2, 12900, Note_on_c, 0, 63, 91
2, 12960, Note_on_c, 0, 63, 0
2, 12960, Note_on_c, 0, 57, 0
2, 12960, Note_on_c, 0, 63, 91
2, 13020, Note_on_c, 0, 63, 0
2, 13020, Note_on_c, 0, 62, 92
2, 13080, Note_on_c, 0, 62, 0
2, 13080, Note_on_c, 0, 60, 93
2, 13140, Note_on_c, 0, 60, 0
2, 13140, Note_on_c, 0, 58, 94
2, 13200, Note_on_c, 0, 58, 0
2, 13200, Note_on_c, 0, 70, 95
2, 13260, Note_on_c, 0, 70, 0
2, 13260, Note_on_c, 0, 70, 95
2, 13320, Note_on_c, 0, 70, 0
2, 13320, Note_on_c, 0, 82, 105
2, 13380, Note_on_c, 0, 58, 95
2, 13440, Note_on_c, 0, 58, 0
2, 13440, Note_on_c, 0, 58, 95
2, 13500, Note_on_c, 0, 70, 95
2, 13560, Note_on_c, 0, 70, 0
2, 13560, Note_on_c, 0, 72, 95
2, 13620, Note_on_c, 0, 63, 96
2, 13680, Note_on_c, 0, 63, 0
2, 13680, Note_on_c, 0, 60, 96
2, 13740, Note_on_c, 0, 72, 0
2, 13740, Note_on_c, 0, 68, 96
2, 13800, Note_on_c, 0, 82, 0
2, 13800, Note_on_c, 0, 80, 107
2, 13860, Note_on_c, 0, 60, 0
2, 13860, Note_on_c, 0, 60, 97
2, 13920, Note_on_c, 0, 60, 0
2, 13920, Note_on_c, 0, 62, 97
2, 13980, Note_on_c, 0, 68, 0
2, 13980, Note_on_c, 0, 70, 97
2, 14040, Note_on_c, 0, 62, 0
2, 14040, Note_on_c, 0, 63, 97
2, 14100, Note_on_c, 0, 70, 0
2, 14100, Note_on_c, 0, 67, 98
2, 14160, Note_on_c, 0, 80, 0
2, 14160, Note_on_c, 0, 79, 99
2, 14220, Note_on_c, 0, 63, 0
2, 14220, Note_on_c, 0, 63, 99
2, 14280, Note_on_c, 0, 63, 0
2, 14280, Note_on_c, 0, 67, 0
2, 14280, Note_on_c, 0, 60, 99
2, 14280, Note_on_c, 0, 69, 99
2, 14340, Note_on_c, 0, 79, 0
2, 14340, Note_on_c, 0, 75, 99
2, 14400, Note_on_c, 0, 75, 0
2, 14400, Note_on_c, 0, 69, 0
2, 14400, Note_on_c, 0, 60, 0
2, 14400, Note_on_c, 0, 62, 99
2, 14400, Note_on_c, 0, 70, 99
2, 14400, Note_on_c, 0, 75, 99
2, 14460, Note_on_c, 0, 75, 0
2, 14460, Note_on_c, 0, 74, 99
2, 14520, Note_on_c, 0, 74, 0
2, 14520, Note_on_c, 0, 72, 99
2, 14580, Note_on_c, 0, 72, 0
2, 14580, Note_on_c, 0, 70, 98
2, 14640, Note_on_c, 0, 70, 0
2, 14640, Note_on_c, 0, 70, 0
2, 14640, Note_on_c, 0, 62, 0
2, 14640, Note_on_c, 0, 58, 0
2, 15360, Note_on_c, 0, 58, 67
2, 15480, Note_on_c, 0, 58, 0
2, 15480, Note_on_c, 0, 58, 68
2, 15480, Note_on_c, 0, 70, 68
2, 15480, Note_on_c, 0, 67, 68
2, 15600, Note_on_c, 0, 67, 0
2, 15600, Note_on_c, 0, 70, 0
2, 15600, Note_on_c, 0, 68, 69
2, 15600, Note_on_c, 0, 65, 69
2, 15720, Note_on_c, 0, 65, 0
2, 15720, Note_on_c, 0, 68, 0
2, 15720, Note_on_c, 0, 67, 73
2, 15720, Note_on_c, 0, 63, 73
2, 15840, Note_on_c, 0, 63, 0
2, 15840, Note_on_c, 0, 67, 0
2, 15840, Note_on_c, 0, 58, 0
2, 15840, Note_on_c, 0, 67, 75
2, 15840, Note_on_c, 0, 63, 75
2, 15840, Note_on_c, 0, 58, 75
2, 16080, Note_on_c, 0, 58, 0
2, 16080, Note_on_c, 0, 63, 0
2, 16080, Note_on_c, 0, 67, 0
2, 16080, Note_on_c, 0, 68, 84
2, 16080, Note_on_c, 0, 63, 84
2, 16080, Note_on_c, 0, 58, 84
2, 16140, Note_on_c, 0, 68, 0
2, 16140, Note_on_c, 0, 67, 87
2, 16200, Note_on_c, 0, 67, 0
2, 16200, Note_on_c, 0, 58, 0
2, 16200, Note_on_c, 0, 63, 0
2, 16200, Note_on_c, 0, 67, 90
2, 16200, Note_on_c, 0, 60, 90
2, 16200, Note_on_c, 0, 63, 90
2, 16260, Note_on_c, 0, 67, 0
2, 16260, Note_on_c, 0, 65, 93
2, 16320, Note_on_c, 0, 65, 0
2, 16320, Note_on_c, 0, 63, 0
2, 16320, Note_on_c, 0, 60, 0
2, 16320, Note_on_c, 0, 60, 96
2, 16320, Note_on_c, 0, 63, 96
2, 16320, Note_on_c, 0, 65, 96
2, 16440, Note_on_c, 0, 65, 0
2, 16440, Note_on_c, 0, 63, 0
2, 16440, Note_on_c, 0, 60, 0
2, 16440, Note_on_c, 0, 60, 107
2, 16440, Note_on_c, 0, 63, 107
2, 16440, Note_on_c, 0, 65, 107
2, 16560, Note_on_c, 0, 65, 0
2, 16560, Note_on_c, 0, 63, 0
2, 16560, Note_on_c, 0, 60, 0
2, 16560, Note_on_c, 0, 60, 115
2, 16560, Note_on_c, 0, 63, 115
2, 16560, Note_on_c, 0, 65, 115
2, 16680, Note_on_c, 0, 65, 0
2, 16680, Note_on_c, 0, 63, 0
2, 16680, Note_on_c, 0, 60, 0
2, 16920, Note_on_c, 0, 68, 100
2, 16920, Note_on_c, 0, 65, 100
2, 17040, Note_on_c, 0, 65, 0
2, 17040, Note_on_c, 0, 68, 0
2, 17040, Note_on_c, 0, 67, 100
2, 17040, Note_on_c, 0, 63, 100
2, 17160, Note_on_c, 0, 63, 0
2, 17160, Note_on_c, 0, 67, 0
2, 17160, Note_on_c, 0, 65, 100
2, 17160, Note_on_c, 0, 62, 100
2, 17280, Note_on_c, 0, 62, 0
2, 17280, Note_on_c, 0, 65, 0
2, 17280, Note_on_c, 0, 58, 100
2, 17280, Note_on_c, 0, 70, 100
2, 17520, Note_on_c, 0, 70, 0
2, 17520, Note_on_c, 0, 58, 0
2, 17520, Note_on_c, 0, 56, 100
2, 17520, Note_on_c, 0, 58, 100
2, 17640, Note_on_c, 0, 58, 0
2, 17640, Note_on_c, 0, 56, 0
2, 17640, Note_on_c, 0, 55, 117
2, 17640, Note_on_c, 0, 63, 117
2, 17760, Note_on_c, 0, 63, 0
2, 17760, Note_on_c, 0, 55, 0
2, 17760, Note_on_c, 0, 58, 117
2, 17760, Note_on_c, 0, 63, 117
2, 17760, Note_on_c, 0, 55, 117
2, 17880, Note_on_c, 0, 55, 0
2, 17880, Note_on_c, 0, 63, 0
2, 17880, Note_on_c, 0, 58, 0
2, 17880, Note_on_c, 0, 55, 116
2, 17880, Note_on_c, 0, 63, 116
2, 17880, Note_on_c, 0, 58, 116
2, 18000, Note_on_c, 0, 58, 0
2, 18000, Note_on_c, 0, 63, 0
2, 18000, Note_on_c, 0, 55, 0
2, 18000, Note_on_c, 0, 58, 115
2, 18000, Note_on_c, 0, 63, 115
2, 18000, Note_on_c, 0, 55, 115
2, 18120, Note_on_c, 0, 55, 0
2, 18120, Note_on_c, 0, 63, 0
2, 18120, Note_on_c, 0, 58, 0
2, 18240, Note_on_c, 0, 58, 83
2, 18360, Note_on_c, 0, 58, 0
2, 18360, Note_on_c, 0, 70, 106
2, 18480, Note_on_c, 0, 58, 89
2, 18600, Note_on_c, 0, 58, 0
2, 18600, Note_on_c, 0, 60, 90
2, 18720, Note_on_c, 0, 60, 0
2, 18840, Note_on_c, 0, 70, 0
2, 18840, Note_on_c, 0, 68, 101
2, 18960, Note_on_c, 0, 58, 91
2, 19080, Note_on_c, 0, 58, 0
2, 19200, Note_on_c, 0, 68, 0
2, 19200, Note_on_c, 0, 67, 91
2, 19320, Note_on_c, 0, 57, 91
2, 19380, Note_on_c, 0, 67, 0
2, 19380, Note_on_c, 0, 63, 91
2, 19440, Note_on_c, 0, 63, 0
2, 19440, Note_on_c, 0, 57, 0
2, 19440, Note_on_c, 0, 63, 91
2, 19500, Note_on_c, 0, 63, 0
2, 19500, Note_on_c, 0, 62, 92
2, 19560, Note_on_c, 0, 62, 0
2, 19560, Note_on_c, 0, 60, 93
2, 19620, Note_on_c, 0, 60, 0
2, 19620, Note_on_c, 0, 58, 94
2, 19680, Note_on_c, 0, 58, 0
2, 19680, Note_on_c, 0, 70, 95
2, 19740, Note_on_c, 0, 70, 0
2, 19740, Note_on_c, 0, 70, 95
2, 19800, Note_on_c, 0, 70, 0
2, 19800, Note_on_c, 0, 82, 105
2, 19860, Note_on_c, 0, 58, 95
2, 19920, Note_on_c, 0, 58, 0
2, 19920, Note_on_c, 0, 58, 95
2, 19980, Note_on_c, 0, 70, 95
2, 20040, Note_on_c, 0, 70, 0
2, 20040, Note_on_c, 0, 72, 95
2, 20100, Note_on_c, 0, 63, 96
2, 20160, Note_on_c, 0, 63, 0
2, 20160, Note_on_c, 0, 60, 96
2, 20220, Note_on_c, 0, 72, 0
2, 20220, Note_on_c, 0, 68, 96
2, 20280, Note_on_c, 0, 82, 0
2, 20280, Note_on_c, 0, 80, 107
2, 20340, Note_on_c, 0, 60, 0
2, 20340, Note_on_c, 0, 60, 97
2, 20400, Note_on_c, 0, 60, 0
2, 20400, Note_on_c, 0, 62, 97
2, 20460, Note_on_c, 0, 68, 0
2, 20460, Note_on_c, 0, 70, 97
2, 20520, Note_on_c, 0, 62, 0
2, 20520, Note_on_c, 0, 63, 97
2, 20580, Note_on_c, 0, 70, 0
2, 20580, Note_on_c, 0, 67, 98
2, 20640, Note_on_c, 0, 80, 0
2, 20640, Note_on_c, 0, 79, 99
2, 20700, Note_on_c, 0, 63, 0
2, 20700, Note_on_c, 0, 63, 99
2, 20760, Note_on_c, 0, 63, 0
2, 20760, Note_on_c, 0, 67, 0
2, 20760, Note_on_c, 0, 60, 99
2, 20760, Note_on_c, 0, 69, 99
2, 20820, Note_on_c, 0, 79, 0
2, 20820, Note_on_c, 0, 75, 99
2, 20880, Note_on_c, 0, 75, 0
2, 20880, Note_on_c, 0, 69, 0
2, 20880, Note_on_c, 0, 60, 0
2, 20880, Note_on_c, 0, 62, 99
2, 20880, Note_on_c, 0, 70, 99
2, 20880, Note_on_c, 0, 75, 99
2, 20940, Note_on_c, 0, 75, 0
2, 20940, Note_on_c, 0, 74, 99
2, 21000, Note_on_c, 0, 74, 0
2, 21000, Note_on_c, 0, 72, 99
2, 21060, Note_on_c, 0, 72, 0
2, 21060, Note_on_c, 0, 70, 98
2, 21120, Note_on_c, 0, 70, 0
2, 21120, Note_on_c, 0, 70, 0
2, 21120, Note_on_c, 0, 62, 0
2, 21120, Note_on_c, 0, 58, 0
2, 21840, Note_on_c, 0, 58, 67
2, 21960, Note_on_c, 0, 58, 0
2, 21960, Note_on_c, 0, 58, 68
2, 21960, Note_on_c, 0, 70, 68
2, 21960, Note_on_c, 0, 67, 68
2, 22080, Note_on_c, 0, 67, 0
2, 22080, Note_on_c, 0, 70, 0
2, 22080, Note_on_c, 0, 68, 69
2, 22080, Note_on_c, 0, 65, 69
2, 22200, Note_on_c, 0, 65, 0
2, 22200, Note_on_c, 0, 68, 0
2, 22200, Note_on_c, 0, 67, 73
2, 22200, Note_on_c, 0, 63, 73
2, 22320, Note_on_c, 0, 63, 0
2, 22320, Note_on_c, 0, 67, 0
2, 22320, Note_on_c, 0, 58, 0
2, 22320, Note_on_c, 0, 67, 75
2, 22320, Note_on_c, 0, 63, 75
2, 22320, Note_on_c, 0, 58, 75
2, 22560, Note_on_c, 0, 58, 0
2, 22560, Note_on_c, 0, 63, 0
2, 22560, Note_on_c, 0, 67, 0
2, 22560, Note_on_c, 0, 68, 84
2, 22560, Note_on_c, 0, 63, 84
2, 22560, Note_on_c, 0, 58, 84
2, 22620, Note_on_c, 0, 68, 0
2, 22620, Note_on_c, 0, 67, 87
2, 22680, Note_on_c, 0, 67, 0
2, 22680, Note_on_c, 0, 58, 0
2, 22680, Note_on_c, 0, 63, 0
2, 22680, Note_on_c, 0, 67, 90
2, 22680, Note_on_c, 0, 60, 90
2, 22680, Note_on_c, 0, 63, 90
2, 22740, Note_on_c, 0, 67, 0
2, 22740, Note_on_c, 0, 65, 93
2, 22800, Note_on_c, 0, 65, 0
2, 22800, Note_on_c, 0, 63, 0
2, 22800, Note_on_c, 0, 60, 0
2, 22800, Note_on_c, 0, 60, 96
2, 22800, Note_on_c, 0, 63, 96
2, 22800, Note_on_c, 0, 65, 96
2, 22920, Note_on_c, 0, 65, 0
2, 22920, Note_on_c, 0, 63, 0
2, 22920, Note_on_c, 0, 60, 0
2, 22920, Note_on_c, 0, 60, 107
2, 22920, Note_on_c, 0, 63, 107
2, 22920, Note_on_c, 0, 65, 107
2, 23040, Note_on_c, 0, 65, 0
2, 23040, Note_on_c, 0, 63, 0
2, 23040, Note_on_c, 0, 60, 0
2, 23040, Note_on_c, 0, 60, 115
2, 23040, Note_on_c, 0, 63, 115
2, 23040, Note_on_c, 0, 65, 115
2, 23160, Note_on_c, 0, 65, 0
2, 23160, Note_on_c, 0, 63, 0
2, 23160, Note_on_c, 0, 60, 0
2, 23400, Note_on_c, 0, 68, 100
2, 23400, Note_on_c, 0, 65, 100
2, 23520, Note_on_c, 0, 65, 0
2, 23520, Note_on_c, 0, 68, 0
2, 23520, Note_on_c, 0, 67, 100
2, 23520, Note_on_c, 0, 63, 100
2, 23640, Note_on_c, 0, 63, 0
2, 23640, Note_on_c, 0, 67, 0
2, 23640, Note_on_c, 0, 65, 100
2, 23640, Note_on_c, 0, 62, 100
2, 23760, Note_on_c, 0, 62, 0
2, 23760, Note_on_c, 0, 65, 0
2, 23760, Note_on_c, 0, 58, 100
2, 23760, Note_on_c, 0, 70, 100
2, 24000, Note_on_c, 0, 70, 0
2, 24000, Note_on_c, 0, 58, 0
2, 24000, Note_on_c, 0, 56, 100
2, 24000, Note_on_c, 0, 58, 100
2, 24120, Note_on_c, 0, 58, 0
2, 24120, Note_on_c, 0, 56, 0
2, 24120, Note_on_c, 0, 55, 117
2, 24120, Note_on_c, 0, 63, 117
2, 24240, Note_on_c, 0, 63, 0
2, 24240, Note_on_c, 0, 55, 0
2, 24240, Note_on_c, 0, 58, 117
2, 24240, Note_on_c, 0, 63, 117
2, 24240, Note_on_c, 0, 55, 117
2, 24360, Note_on_c, 0, 55, 0
2, 24360, Note_on_c, 0, 63, 0
2, 24360, Note_on_c, 0, 58, 0
2, 24360, Note_on_c, 0, 55, 116
2, 24360, Note_on_c, 0, 63, 116
2, 24360, Note_on_c, 0, 58, 116
2, 24480, Note_on_c, 0, 58, 0
2, 24480, Note_on_c, 0, 63, 0
2, 24480, Note_on_c, 0, 55, 0
2, 24480, Note_on_c, 0, 58, 115
2, 24480, Note_on_c, 0, 63, 115
2, 24480, Note_on_c, 0, 55, 115
2, 24600, Note_on_c, 0, 55, 0
2, 24600, Note_on_c, 0, 63, 0
2, 24600, Note_on_c, 0, 58, 0
2, 24720, Note_on_c, 0, 63, 80
2, 24780, Note_on_c, 0, 63, 0
2, 24780, Note_on_c, 0, 67, 81
2, 24840, Note_on_c, 0, 67, 0
2, 24840, Note_on_c, 0, 68, 81
2, 24900, Note_on_c, 0, 68, 0
2, 25080, Note_on_c, 0, 68, 83
2, 25080, Note_on_c, 0, 63, 83
2, 25140, Note_on_c, 0, 63, 0
2, 25140, Note_on_c, 0, 68, 0
2, 25140, Note_on_c, 0, 72, 84
2, 25200, Note_on_c, 0, 72, 0
2, 25200, Note_on_c, 0, 75, 85
2, 25260, Note_on_c, 0, 75, 0
2, 25380, Note_on_c, 0, 61, 85
2, 25440, Note_on_c, 0, 61, 0
2, 25440, Note_on_c, 0, 75, 85
2, 25440, Note_on_c, 0, 61, 85
2, 25500, Note_on_c, 0, 61, 0
2, 25500, Note_on_c, 0, 75, 0
2, 25500, Note_on_c, 0, 79, 86
2, 25560, Note_on_c, 0, 79, 0
2, 25560, Note_on_c, 0, 80, 86
2, 25620, Note_on_c, 0, 80, 0
2, 25740, Note_on_c, 0, 63, 85
2, 25800, Note_on_c, 0, 63, 0
2, 25800, Note_on_c, 0, 80, 85
2, 25800, Note_on_c, 0, 68, 85
2, 25860, Note_on_c, 0, 68, 0
2, 25860, Note_on_c, 0, 80, 0
2, 25860, Note_on_c, 0, 84, 85
2, 25920, Note_on_c, 0, 84, 0
2, 25920, Note_on_c, 0, 87, 84
2, 25980, Note_on_c, 0, 87, 0
2, 25980, Note_on_c, 0, 86, 84
2, 26040, Note_on_c, 0, 86, 0
2, 26040, Note_on_c, 0, 89, 83
2, 26100, Note_on_c, 0, 89, 0
2, 26100, Note_on_c, 0, 87, 82
2, 26160, Note_on_c, 0, 87, 0
2, 26160, Note_on_c, 0, 85, 81
2, 26220, Note_on_c, 0, 85, 0
2, 26220, Note_on_c, 0, 82, 81
2, 26280, Note_on_c, 0, 82, 0
2, 26280, Note_on_c, 0, 80, 80
2, 26400, Note_on_c, 0, 80, 0
2, 26400, Note_on_c, 0, 80, 78
2, 26520, Note_on_c, 0, 80, 0
2, 26520, Note_on_c, 0, 80, 78
2, 26580, Note_on_c, 0, 80, 0
2, 26580, Note_on_c, 0, 82, 78
2, 26640, Note_on_c, 0, 82, 0
2, 26640, Note_on_c, 0, 80, 78
2, 26700, Note_on_c, 0, 80, 0
2, 26700, Note_on_c, 0, 79, 77
2, 26760, Note_on_c, 0, 79, 0
2, 26760, Note_on_c, 0, 77, 77
2, 26820, Note_on_c, 0, 77, 0
2, 26820, Note_on_c, 0, 75, 77
2, 26880, Note_on_c, 0, 75, 0
2, 27060, Note_on_c, 0, 60, 77
2, 27120, Note_on_c, 0, 60, 0
2, 27120, Note_on_c, 0, 63, 76
2, 27180, Note_on_c, 0, 63, 0
2, 27180, Note_on_c, 0, 68, 76
2, 27240, Note_on_c, 0, 68, 0
2, 27240, Note_on_c, 0, 75, 76
2, 27300, Note_on_c, 0, 75, 0
2, 27360, Note_on_c, 0, 63, 76
2, 27420, Note_on_c, 0, 63, 0
2, 27420, Note_on_c, 0, 67, 75
2, 27480, Note_on_c, 0, 67, 0
2, 27480, Note_on_c, 0, 70, 75
2, 27540, Note_on_c, 0, 70, 0
2, 27540, Note_on_c, 0, 75, 75
2, 27600, Note_on_c, 0, 75, 0
2, 27600, Note_on_c, 0, 63, 75
2, 27600, Note_on_c, 0, 85, 75
2, 27660, Note_on_c, 0, 85, 0
2, 27660, Note_on_c, 0, 63, 0
2, 27660, Note_on_c, 0, 67, 75
2, 27720, Note_on_c, 0, 67, 0
2, 27720, Note_on_c, 0, 68, 75
2, 27780, Note_on_c, 0, 68, 0
2, 27780, Note_on_c, 0, 72, 75
2, 27840, Note_on_c, 0, 72, 0
2, 27840, Note_on_c, 0, 75, 75
2, 27900, Note_on_c, 0, 75, 0
2, 27900, Note_on_c, 0, 80, 75
2, 27960, Note_on_c, 0, 80, 0
2, 27960, Note_on_c, 0, 68, 75
2, 27960, Note_on_c, 0, 84, 75
2, 28020, Note_on_c, 0, 84, 0
2, 28020, Note_on_c, 0, 68, 0
2, 28020, Note_on_c, 0, 72, 75
2, 28080, Note_on_c, 0, 72, 0
2, 28080, Note_on_c, 0, 73, 75
2, 28080, Note_on_c, 0, 67, 75
2, 28080, Note_on_c, 0, 63, 75
2, 28080, Note_on_c, 0, 87, 75
2, 28140, Note_on_c, 0, 87, 0
2, 28140, Note_on_c, 0, 86, 75
2, 28200, Note_on_c, 0, 86, 0
2, 28200, Note_on_c, 0, 89, 76
2, 28260, Note_on_c, 0, 89, 0
2, 28260, Note_on_c, 0, 87, 77
2, 28320, Note_on_c, 0, 87, 0
2, 28320, Note_on_c, 0, 85, 77
2, 28380, Note_on_c, 0, 85, 0
2, 28380, Note_on_c, 0, 82, 78
2, 28440, Note_on_c, 0, 82, 0
2, 28440, Note_on_c, 0, 63, 0
2, 28440, Note_on_c, 0, 67, 0
2, 28440, Note_on_c, 0, 73, 0
2, 28440, Note_on_c, 0, 72, 78
2, 28440, Note_on_c, 0, 65, 78
2, 28440, Note_on_c, 0, 68, 78
2, 28440, Note_on_c, 0, 80, 78
2, 28560, Note_on_c, 0, 80, 0
2, 28560, Note_on_c, 0, 72, 0
2, 28560, Note_on_c, 0, 65, 0
2, 28560, Note_on_c, 0, 68, 0
2, 28560, Note_on_c, 0, 70, 78
2, 28560, Note_on_c, 0, 61, 78
2, 28560, Note_on_c, 0, 65, 78
2, 28560, Note_on_c, 0, 68, 78
2, 28560, Note_on_c, 0, 80, 78
2, 28680, Note_on_c, 0, 80, 0
2, 28680, Note_on_c, 0, 65, 0
2, 28680, Note_on_c, 0, 70, 0
2, 28680, Note_on_c, 0, 61, 0
2, 28680, Note_on_c, 0, 68, 0
2, 28680, Note_on_c, 0, 82, 79
2, 28740, Note_on_c, 0, 82, 0
2, 28740, Note_on_c, 0, 84, 79
2, 28800, Note_on_c, 0, 84, 0
2, 28800, Note_on_c, 0, 56, 79
2, 28800, Note_on_c, 0, 68, 79
2, 28800, Note_on_c, 0, 80, 79
2, 28920, Note_on_c, 0, 80, 0
2, 28920, Note_on_c, 0, 68, 0
2, 28920, Note_on_c, 0, 56, 0
2, 29040, Note_on_c, 0, 63, 80
2, 29100, Note_on_c, 0, 63, 0
2, 29100, Note_on_c, 0, 67, 81
2, 29160, Note_on_c, 0, 67, 0
2, 29160, Note_on_c, 0, 68, 81
2, 29220, Note_on_c, 0, 68, 0
2, 29400, Note_on_c, 0, 63, 83
2, 29400, Note_on_c, 0, 68, 83
2, 29460, Note_on_c, 0, 68, 0
2, 29460, Note_on_c, 0, 63, 0
2, 29460, Note_on_c, 0, 72, 84
2, 29520, Note_on_c, 0, 72, 0
2, 29520, Note_on_c, 0, 75, 85
2, 29580, Note_on_c, 0, 75, 0
2, 29700, Note_on_c, 0, 61, 85
2, 29760, Note_on_c, 0, 61, 0
2, 29760, Note_on_c, 0, 75, 85
2, 29760, Note_on_c, 0, 61, 85
2, 29820, Note_on_c, 0, 61, 0
2, 29820, Note_on_c, 0, 75, 0
2, 29820, Note_on_c, 0, 79, 86
2, 29880, Note_on_c, 0, 79, 0
2, 29880, Note_on_c, 0, 80, 86
2, 29940, Note_on_c, 0, 80, 0
2, 30060, Note_on_c, 0, 63, 85
2, 30120, Note_on_c, 0, 63, 0
2, 30120, Note_on_c, 0, 80, 85
2, 30120, Note_on_c, 0, 68, 85
2, 30180, Note_on_c, 0, 68, 0
2, 30180, Note_on_c, 0, 80, 0
2, 30180, Note_on_c, 0, 84, 85
2, 30240, Note_on_c, 0, 84, 0
2, 30240, Note_on_c, 0, 87, 84
2, 30300, Note_on_c, 0, 87, 0
2, 30300, Note_on_c, 0, 86, 84
2, 30360, Note_on_c, 0, 86, 0
2, 30360, Note_on_c, 0, 89, 83
2, 30420, Note_on_c, 0, 89, 0
2, 30420, Note_on_c, 0, 87, 82
2, 30480, Note_on_c, 0, 87, 0
2, 30480, Note_on_c, 0, 85, 81
2, 30540, Note_on_c, 0, 85, 0
2, 30540, Note_on_c, 0, 82, 81
2, 30600, Note_on_c, 0, 82, 0
2, 30600, Note_on_c, 0, 80, 80
2, 30720, Note_on_c, 0, 80, 0
2, 30720, Note_on_c, 0, 80, 78
2, 30840, Note_on_c, 0, 80, 0
2, 30840, Note_on_c, 0, 80, 78
2, 30900, Note_on_c, 0, 80, 0
2, 30900, Note_on_c, 0, 82, 78
2, 30960, Note_on_c, 0, 82, 0
2, 30960, Note_on_c, 0, 80, 78
2, 31020, Note_on_c, 0, 80, 0
2, 31020, Note_on_c, 0, 79, 77
2, 31080, Note_on_c, 0, 79, 0
2, 31080, Note_on_c, 0, 77, 77
2, 31140, Note_on_c, 0, 77, 0
2, 31140, Note_on_c, 0, 75, 77
2, 31200, Note_on_c, 0, 75, 0
2, 31380, Note_on_c, 0, 60, 77
2, 31440, Note_on_c, 0, 60, 0
2, 31440, Note_on_c, 0, 63, 76
2, 31500, Note_on_c, 0, 63, 0
2, 31500, Note_on_c, 0, 68, 76
2, 31560, Note_on_c, 0, 68, 0
2, 31560, Note_on_c, 0, 75, 76
2, 31620, Note_on_c, 0, 75, 0
2, 31680, Note_on_c, 0, 63, 77
2, 31740, Note_on_c, 0, 63, 0
2, 31740, Note_on_c, 0, 67, 77
2, 31800, Note_on_c, 0, 67, 0
2, 31800, Note_on_c, 0, 70, 77
2, 31860, Note_on_c, 0, 70, 0
2, 31860, Note_on_c, 0, 75, 77
2, 31920, Note_on_c, 0, 75, 0
2, 31920, Note_on_c, 0, 85, 77
2, 31920, Note_on_c, 0, 63, 77
2, 31980, Note_on_c, 0, 63, 0
2, 31980, Note_on_c, 0, 85, 0
2, 31980, Note_on_c, 0, 67, 78
2, 32040, Note_on_c, 0, 67, 0
2, 32040, Note_on_c, 0, 68, 78
2, 32100, Note_on_c, 0, 68, 0
2, 32100, Note_on_c, 0, 72, 78
2, 32160, Note_on_c, 0, 72, 0
2, 32160, Note_on_c, 0, 75, 78
2, 32220, Note_on_c, 0, 75, 0
2, 32220, Note_on_c, 0, 80, 78
2, 32280, Note_on_c, 0, 80, 0
2, 32280, Note_on_c, 0, 84, 78
2, 32280, Note_on_c, 0, 68, 78
2, 32340, Note_on_c, 0, 68, 0
2, 32340, Note_on_c, 0, 84, 0
2, 32340, Note_on_c, 0, 72, 78
2, 32400, Note_on_c, 0, 72, 0
2, 32400, Note_on_c, 0, 63, 78
2, 32400, Note_on_c, 0, 87, 78
2, 32400, Note_on_c, 0, 67, 78
2, 32400, Note_on_c, 0, 73, 78
2, 32460, Note_on_c, 0, 87, 0
2, 32460, Note_on_c, 0, 86, 78
2, 32520, Note_on_c, 0, 86, 0
2, 32520, Note_on_c, 0, 89, 77
2, 32580, Note_on_c, 0, 89, 0
2, 32580, Note_on_c, 0, 87, 77
2, 32640, Note_on_c, 0, 87, 0
2, 32640, Note_on_c, 0, 85, 76
2, 32700, Note_on_c, 0, 85, 0
2, 32700, Note_on_c, 0, 82, 74
2, 32760, Note_on_c, 0, 82, 0
2, 32760, Note_on_c, 0, 73, 0
2, 32760, Note_on_c, 0, 67, 0
2, 32760, Note_on_c, 0, 63, 0
2, 32760, Note_on_c, 0, 65, 71
2, 32760, Note_on_c, 0, 72, 71
2, 32760, Note_on_c, 0, 68, 71
2, 32760, Note_on_c, 0, 80, 71
2, 32880, Note_on_c, 0, 80, 0
2, 32880, Note_on_c, 0, 65, 0
2, 32880, Note_on_c, 0, 72, 0
2, 32880, Note_on_c, 0, 68, 0
2, 32880, Note_on_c, 0, 70, 69
2, 32880, Note_on_c, 0, 68, 69
2, 32880, Note_on_c, 0, 80, 69
2, 32880, Note_on_c, 0, 65, 69
2, 32880, Note_on_c, 0, 61, 69
2, 33000, Note_on_c, 0, 61, 0
2, 33000, Note_on_c, 0, 80, 0
2, 33000, Note_on_c, 0, 70, 0
2, 33000, Note_on_c, 0, 68, 0
2, 33000, Note_on_c, 0, 65, 0
2, 33000, Note_on_c, 0, 82, 65
2, 33060, Note_on_c, 0, 82, 0
2, 33060, Note_on_c, 0, 84, 62
2, 33120, Note_on_c, 0, 84, 0
2, 33120, Note_on_c, 0, 80, 60
2, 33120, Note_on_c, 0, 56, 60
2, 33120, Note_on_c, 0, 68, 60
2, 33240, Note_on_c, 0, 68, 0
2, 33240, Note_on_c, 0, 56, 0
2, 33240, Note_on_c, 0, 80, 0
2, 33360, Note_on_c, 0, 75, 105
2, 33360, Note_on_c, 0, 87, 105
2, 33480, Note_on_c, 0, 87, 0
2, 33480, Note_on_c, 0, 75, 0
2, 33480, Note_on_c, 0, 76, 104
2, 33480, Note_on_c, 0, 88, 104
2, 33660, Note_on_c, 0, 88, 0
2, 33660, Note_on_c, 0, 76, 0
2, 33660, Note_on_c, 0, 75, 104
2, 33660, Note_on_c, 0, 87, 104
2, 33720, Note_on_c, 0, 87, 0
2, 33720, Note_on_c, 0, 75, 0
2, 33720, Note_on_c, 0, 73, 104
2, 33720, Note_on_c, 0, 85, 104
2, 33780, Note_on_c, 0, 85, 0
2, 33780, Note_on_c, 0, 73, 0
2, 33780, Note_on_c, 0, 83, 104
2, 33780, Note_on_c, 0, 71, 104
2, 33840, Note_on_c, 0, 71, 0
2, 33840, Note_on_c, 0, 83, 0
2, 33840, Note_on_c, 0, 70, 104
2, 33840, Note_on_c, 0, 82, 104
2, 34080, Note_on_c, 0, 82, 0
2, 34080, Note_on_c, 0, 70, 0
2, 34080, Note_on_c, 0, 72, 105
2, 34080, Note_on_c, 0, 84, 105
2, 34140, Note_on_c, 0, 84, 0
2, 34140, Note_on_c, 0, 72, 0
2, 34140, Note_on_c, 0, 85, 105
2, 34140, Note_on_c, 0, 73, 105
2, 34200, Note_on_c, 0, 73, 0
2, 34200, Note_on_c, 0, 85, 0
2, 34200, Note_on_c, 0, 75, 105
2, 34200, Note_on_c, 0, 87, 105
2, 34380, Note_on_c, 0, 87, 0
2, 34380, Note_on_c, 0, 75, 0
2, 34380, Note_on_c, 0, 73, 105
2, 34380, Note_on_c, 0, 85, 105
2, 34440, Note_on_c, 0, 85, 0
2, 34440, Note_on_c, 0, 73, 0
2, 34440, Note_on_c, 0, 72, 106
2, 34440, Note_on_c, 0, 84, 106
2, 34500, Note_on_c, 0, 84, 0
2, 34500, Note_on_c, 0, 72, 0
2, 34500, Note_on_c, 0, 82, 107
2, 34500, Note_on_c, 0, 70, 107
2, 34560, Note_on_c, 0, 70, 0
2, 34560, Note_on_c, 0, 82, 0
2, 34560, Note_on_c, 0, 80, 108
2, 34560, Note_on_c, 0, 68, 108
2, 34620, Note_on_c, 0, 68, 0
2, 34620, Note_on_c, 0, 80, 0
2, 34620, Note_on_c, 0, 79, 109
2, 34620, Note_on_c, 0, 67, 109
2, 34680, Note_on_c, 0, 67, 0
2, 34680, Note_on_c, 0, 79, 0
2, 34680, Note_on_c, 0, 65, 110
2, 34680, Note_on_c, 0, 77, 110
2, 34740, Note_on_c, 0, 77, 0
2, 34740, Note_on_c, 0, 65, 0
2, 34740, Note_on_c, 0, 63, 111
2, 34740, Note_on_c, 0, 75, 111
2, 34800, Note_on_c, 0, 75, 0
2, 34800, Note_on_c, 0, 63, 0
2, 34800, Note_on_c, 0, 62, 111
2, 34800, Note_on_c, 0, 74, 111
2, 34860, Note_on_c, 0, 74, 0
2, 34860, Note_on_c, 0, 62, 0
2, 34860, Note_on_c, 0, 58, 112
2, 34860, Note_on_c, 0, 70, 112
2, 34920, Note_on_c, 0, 70, 0
2, 34920, Note_on_c, 0, 58, 0
2, 34920, Note_on_c, 0, 75, 113
2, 34920, Note_on_c, 0, 63, 113
2, 35040, Note_on_c, 0, 63, 0
2, 35040, Note_on_c, 0, 75, 0
2, 35400, Note_on_c, 0, 58, 71
2, 35460, Note_on_c, 0, 58, 0
2, 35460, Note_on_c, 0, 62, 70
2, 35520, Note_on_c, 0, 62, 0
2, 35520, Note_on_c, 0, 63, 68
2, 35640, Note_on_c, 0, 63, 0
2, 35760, Note_on_c, 0, 58, 72
2, 35820, Note_on_c, 0, 58, 0
2, 35820, Note_on_c, 0, 62, 71
2, 35880, Note_on_c, 0, 62, 0
2, 35880, Note_on_c, 0, 63, 68
2, 36000, Note_on_c, 0, 63, 0
2, 36240, Note_on_c, 0, 63, 68
2, 36300, Note_on_c, 0, 63, 0
2, 36300, Note_on_c, 0, 67, 66
2, 36360, Note_on_c, 0, 67, 0
2, 36360, Note_on_c, 0, 68, 64
2, 36420, Note_on_c, 0, 68, 0
2, 36600, Note_on_c, 0, 68, 70
2, 36600, Note_on_c, 0, 63, 70
2, 36660, Note_on_c, 0, 63, 0
2, 36660, Note_on_c, 0, 68, 0
2, 36660, Note_on_c, 0, 72, 68
2, 36720, Note_on_c, 0, 72, 0
2, 36720, Note_on_c, 0, 75, 67
2, 36780, Note_on_c, 0, 75, 0
2, 36900, Note_on_c, 0, 61, 74
2, 36960, Note_on_c, 0, 61, 0
2, 36960, Note_on_c, 0, 63, 75
2, 36960, Note_on_c, 0, 75, 75
2, 37020, Note_on_c, 0, 75, 0
2, 37020, Note_on_c, 0, 63, 0
2, 37020, Note_on_c, 0, 79, 75
2, 37080, Note_on_c, 0, 79, 0
2, 37080, Note_on_c, 0, 80, 75
2, 37140, Note_on_c, 0, 80, 0
2, 37260, Note_on_c, 0, 63, 73
2, 37320, Note_on_c, 0, 63, 0
2, 37320, Note_on_c, 0, 68, 73
2, 37320, Note_on_c, 0, 80, 73
2, 37380, Note_on_c, 0, 80, 0
2, 37380, Note_on_c, 0, 68, 0
2, 37380, Note_on_c, 0, 84, 72
2, 37440, Note_on_c, 0, 84, 0
2, 37440, Note_on_c, 0, 87, 72
2, 37500, Note_on_c, 0, 87, 0
2, 37500, Note_on_c, 0, 86, 72
2, 37560, Note_on_c, 0, 86, 0
2, 37560, Note_on_c, 0, 89, 71
2, 37620, Note_on_c, 0, 89, 0
2, 37620, Note_on_c, 0, 87, 71
2, 37680, Note_on_c, 0, 87, 0
2, 37680, Note_on_c, 0, 85, 71
2, 37740, Note_on_c, 0, 85, 0
2, 37740, Note_on_c, 0, 87, 71
2, 37800, Note_on_c, 0, 87, 0
2, 37800, Note_on_c, 0, 86, 71
2, 37860, Note_on_c, 0, 86, 0
2, 37860, Note_on_c, 0, 87, 72
2, 37920, Note_on_c, 0, 87, 0
2, 37920, Note_on_c, 0, 89, 73
2, 37980, Note_on_c, 0, 89, 0
2, 37980, Note_on_c, 0, 87, 74
2, 38040, Note_on_c, 0, 87, 0
2, 38040, Note_on_c, 0, 85, 75
2, 38100, Note_on_c, 0, 85, 0
2, 38100, Note_on_c, 0, 84, 75
2, 38160, Note_on_c, 0, 84, 0
2, 38160, Note_on_c, 0, 82, 76
2, 38280, Note_on_c, 0, 82, 0
2, 38280, Note_on_c, 0, 82, 77
2, 38400, Note_on_c, 0, 82, 0
2, 38400, Note_on_c, 0, 82, 77
2, 38460, Note_on_c, 0, 82, 0
2, 38460, Note_on_c, 0, 84, 76
2, 38520, Note_on_c, 0, 84, 0
2, 38520, Note_on_c, 0, 80, 77
2, 38640, Note_on_c, 0, 80, 0
2, 38760, Note_on_c, 0, 75, 105
2, 38760, Note_on_c, 0, 87, 105
2, 38880, Note_on_c, 0, 87, 0
2, 38880, Note_on_c, 0, 75, 0
2, 38880, Note_on_c, 0, 76, 104
2, 38880, Note_on_c, 0, 88, 104
2, 39060, Note_on_c, 0, 88, 0
2, 39060, Note_on_c, 0, 76, 0
2, 39060, Note_on_c, 0, 75, 104
2, 39060, Note_on_c, 0, 87, 104
2, 39120, Note_on_c, 0, 87, 0
2, 39120, Note_on_c, 0, 75, 0
2, 39120, Note_on_c, 0, 73, 104
2, 39120, Note_on_c, 0, 85, 104
2, 39180, Note_on_c, 0, 85, 0
2, 39180, Note_on_c, 0, 73, 0
2, 39180, Note_on_c, 0, 83, 104
2, 39180, Note_on_c, 0, 71, 104
2, 39240, Note_on_c, 0, 71, 0
2, 39240, Note_on_c, 0, 83, 0
2, 39240, Note_on_c, 0, 70, 104
2, 39240, Note_on_c, 0, 82, 104
2, 39480, Note_on_c, 0, 82, 0
2, 39480, Note_on_c, 0, 70, 0
2, 39480, Note_on_c, 0, 72, 105
2, 39480, Note_on_c, 0, 84, 105
2, 39540, Note_on_c, 0, 84, 0
2, 39540, Note_on_c, 0, 72, 0
2, 39540, Note_on_c, 0, 85, 105
2, 39540, Note_on_c, 0, 73, 105
2, 39600, Note_on_c, 0, 73, 0
2, 39600, Note_on_c, 0, 85, 0
2, 39600, Note_on_c, 0, 75, 105
2, 39600, Note_on_c, 0, 87, 105
2, 39780, Note_on_c, 0, 87, 0
2, 39780, Note_on_c, 0, 75, 0
2, 39780, Note_on_c, 0, 73, 105
2, 39780, Note_on_c, 0, 85, 105
2, 39840, Note_on_c, 0, 85, 0
2, 39840, Note_on_c, 0, 73, 0
2, 39840, Note_on_c, 0, 72, 106
2, 39840, Note_on_c, 0, 84, 106
2, 39900, Note_on_c, 0, 84, 0
2, 39900, Note_on_c, 0, 72, 0
2, 39900, Note_on_c, 0, 82, 107
2, 39900, Note_on_c, 0, 70, 107
2, 39960, Note_on_c, 0, 70, 0
2, 39960, Note_on_c, 0, 82, 0
2, 39960, Note_on_c, 0, 80, 108
2, 39960, Note_on_c, 0, 68, 108
2, 40020, Note_on_c, 0, 68, 0
2, 40020, Note_on_c, 0, 80, 0
2, 40020, Note_on_c, 0, 79, 109
2, 40020, Note_on_c, 0, 67, 109
2, 40080, Note_on_c, 0, 67, 0
2, 40080, Note_on_c, 0, 79, 0
2, 40080, Note_on_c, 0, 65, 110
2, 40080, Note_on_c, 0, 77, 110
2, 40140, Note_on_c, 0, 77, 0
2, 40140, Note_on_c, 0, 65, 0
2, 40140, Note_on_c, 0, 63, 111
2, 40140, Note_on_c, 0, 75, 111
2, 40200, Note_on_c, 0, 75, 0
2, 40200, Note_on_c, 0, 63, 0
2, 40200, Note_on_c, 0, 62, 111
2, 40200, Note_on_c, 0, 74, 111
2, 40260, Note_on_c, 0, 74, 0
2, 40260, Note_on_c, 0, 62, 0
2, 40260, Note_on_c, 0, 58, 112
2, 40260, Note_on_c, 0, 70, 112
2, 40320, Note_on_c, 0, 70, 0
2, 40320, Note_on_c, 0, 58, 0
2, 40320, Note_on_c, 0, 75, 113
2, 40320, Note_on_c, 0, 63, 113
2, 40440, Note_on_c, 0, 63, 0
2, 40440, Note_on_c, 0, 75, 0
2, 40800, Note_on_c, 0, 58, 71
2, 40860, Note_on_c, 0, 58, 0
2, 40860, Note_on_c, 0, 62, 70
2, 40920, Note_on_c, 0, 62, 0
2, 40920, Note_on_c, 0, 63, 68
2, 41040, Note_on_c, 0, 63, 0
2, 41160, Note_on_c, 0, 58, 72
2, 41220, Note_on_c, 0, 58, 0
2, 41220, Note_on_c, 0, 62, 71
2, 41280, Note_on_c, 0, 62, 0
2, 41280, Note_on_c, 0, 63, 68
2, 41400, Note_on_c, 0, 63, 0
2, 41640, Note_on_c, 0, 63, 68
2, 41700, Note_on_c, 0, 63, 0
2, 41700, Note_on_c, 0, 67, 66
2, 41760, Note_on_c, 0, 67, 0
2, 41760, Note_on_c, 0, 68, 64
2, 41820, Note_on_c, 0, 68, 0
2, 42000, Note_on_c, 0, 68, 70
2, 42000, Note_on_c, 0, 63, 70
2, 42060, Note_on_c, 0, 63, 0
2, 42060, Note_on_c, 0, 68, 0
2, 42060, Note_on_c, 0, 72, 68
2, 42120, Note_on_c, 0, 72, 0
2, 42120, Note_on_c, 0, 75, 67
2, 42180, Note_on_c, 0, 75, 0
2, 42300, Note_on_c, 0, 61, 74
2, 42360, Note_on_c, 0, 61, 0
2, 42360, Note_on_c, 0, 63, 75
2, 42360, Note_on_c, 0, 75, 75
2, 42420, Note_on_c, 0, 75, 0
2, 42420, Note_on_c, 0, 63, 0
2, 42420, Note_on_c, 0, 79, 75
2, 42480, Note_on_c, 0, 79, 0
2, 42480, Note_on_c, 0, 80, 75
2, 42540, Note_on_c, 0, 80, 0
2, 42660, Note_on_c, 0, 63, 73
2, 42720, Note_on_c, 0, 63, 0
2, 42720, Note_on_c, 0, 68, 73
2, 42720, Note_on_c, 0, 80, 73
2, 42780, Note_on_c, 0, 80, 0
2, 42780, Note_on_c, 0, 68, 0
2, 42780, Note_on_c, 0, 84, 72
2, 42840, Note_on_c, 0, 84, 0
2, 42840, Note_on_c, 0, 87, 72
2, 42900, Note_on_c, 0, 87, 0
2, 42900, Note_on_c, 0, 86, 72
2, 42960, Note_on_c, 0, 86, 0
2, 42960, Note_on_c, 0, 89, 71
2, 43020, Note_on_c, 0, 89, 0
2, 43020, Note_on_c, 0, 87, 71
2, 43080, Note_on_c, 0, 87, 0
2, 43080, Note_on_c, 0, 85, 71
2, 43140, Note_on_c, 0, 85, 0
2, 43140, Note_on_c, 0, 87, 71
2, 43200, Note_on_c, 0, 87, 0
2, 43200, Note_on_c, 0, 86, 71
2, 43260, Note_on_c, 0, 86, 0
2, 43260, Note_on_c, 0, 87, 72
2, 43320, Note_on_c, 0, 87, 0
2, 43320, Note_on_c, 0, 89, 73
2, 43380, Note_on_c, 0, 89, 0
2, 43380, Note_on_c, 0, 87, 74
2, 43440, Note_on_c, 0, 87, 0
2, 43440, Note_on_c, 0, 85, 75
2, 43500, Note_on_c, 0, 85, 0
2, 43500, Note_on_c, 0, 84, 75
2, 43560, Note_on_c, 0, 84, 0
2, 43560, Note_on_c, 0, 82, 76
2, 43680, Note_on_c, 0, 82, 0
2, 43680, Note_on_c, 0, 82, 77
2, 43800, Note_on_c, 0, 82, 0
2, 43800, Note_on_c, 0, 82, 77
2, 43860, Note_on_c, 0, 82, 0
2, 43860, Note_on_c, 0, 84, 76
2, 43920, Note_on_c, 0, 84, 0
2, 43920, Note_on_c, 0, 80, 77
2, 44040, Note_on_c, 0, 80, 0
2, 44160, Note_on_c, 0, 58, 90
2, 44280, Note_on_c, 0, 58, 0
2, 44280, Note_on_c, 0, 70, 90
2, 44280, Note_on_c, 0, 67, 90
2, 44280, Note_on_c, 0, 58, 90
2, 44400, Note_on_c, 0, 67, 0
2, 44400, Note_on_c, 0, 70, 0
2, 44400, Note_on_c, 0, 68, 90
2, 44400, Note_on_c, 0, 65, 90
2, 44520, Note_on_c, 0, 65, 0
2, 44520, Note_on_c, 0, 68, 0
2, 44520, Note_on_c, 0, 67, 90
2, 44520, Note_on_c, 0, 63, 90
2, 44640, Note_on_c, 0, 63, 0
2, 44640, Note_on_c, 0, 67, 0
2, 44640, Note_on_c, 0, 58, 0
2, 44640, Note_on_c, 0, 67, 88
2, 44640, Note_on_c, 0, 63, 88
2, 44640, Note_on_c, 0, 58, 88
2, 44880, Note_on_c, 0, 58, 0
2, 44880, Note_on_c, 0, 63, 0
2, 44880, Note_on_c, 0, 67, 0
2, 44880, Note_on_c, 0, 63, 87
2, 44880, Note_on_c, 0, 58, 87
2, 44880, Note_on_c, 0, 68, 87
2, 44940, Note_on_c, 0, 68, 0
2, 44940, Note_on_c, 0, 67, 87
2, 45000, Note_on_c, 0, 67, 0
2, 45000, Note_on_c, 0, 58, 0
2, 45000, Note_on_c, 0, 63, 0
2, 45000, Note_on_c, 0, 60, 88
2, 45000, Note_on_c, 0, 63, 88
2, 45000, Note_on_c, 0, 67, 88
2, 45060, Note_on_c, 0, 67, 0
2, 45060, Note_on_c, 0, 65, 90
2, 45120, Note_on_c, 0, 65, 0
2, 45120, Note_on_c, 0, 63, 0
2, 45120, Note_on_c, 0, 60, 0
2, 45120, Note_on_c, 0, 60, 97
2, 45120, Note_on_c, 0, 65, 97
2, 45120, Note_on_c, 0, 63, 97
2, 45240, Note_on_c, 0, 63, 0
2, 45240, Note_on_c, 0, 65, 0
2, 45240, Note_on_c, 0, 60, 0
2, 45240, Note_on_c, 0, 60, 105
2, 45240, Note_on_c, 0, 65, 105
2, 45240, Note_on_c, 0, 63, 105
2, 45360, Note_on_c, 0, 63, 0
2, 45360, Note_on_c, 0, 65, 0
2, 45360, Note_on_c, 0, 60, 0
2, 45360, Note_on_c, 0, 60, 113
2, 45360, Note_on_c, 0, 65, 113
2, 45360, Note_on_c, 0, 63, 113
2, 45480, Note_on_c, 0, 63, 0
2, 45480, Note_on_c, 0, 65, 0
2, 45480, Note_on_c, 0, 60, 0
2, 45720, Note_on_c, 0, 68, 75
2, 45720, Note_on_c, 0, 65, 75
2, 45840, Note_on_c, 0, 65, 0
2, 45840, Note_on_c, 0, 68, 0
2, 45840, Note_on_c, 0, 63, 76
2, 45840, Note_on_c, 0, 67, 76
2, 45960, Note_on_c, 0, 67, 0
2, 45960, Note_on_c, 0, 63, 0
2, 45960, Note_on_c, 0, 65, 76
2, 45960, Note_on_c, 0, 62, 76
2, 46080, Note_on_c, 0, 62, 0
2, 46080, Note_on_c, 0, 65, 0
2, 46080, Note_on_c, 0, 62, 77
2, 46080, Note_on_c, 0, 58, 77
2, 46080, Note_on_c, 0, 70, 77
2, 46200, Note_on_c, 0, 62, 0
2, 46200, Note_on_c, 0, 63, 77
2, 46320, Note_on_c, 0, 63, 0
2, 46320, Note_on_c, 0, 70, 0
2, 46320, Note_on_c, 0, 58, 0
2, 46320, Note_on_c, 0, 68, 77
2, 46320, Note_on_c, 0, 58, 77
2, 46320, Note_on_c, 0, 65, 77
2, 46440, Note_on_c, 0, 65, 0
2, 46440, Note_on_c, 0, 58, 0
2, 46440, Note_on_c, 0, 68, 0
2, 46440, Note_on_c, 0, 58, 77
2, 46440, Note_on_c, 0, 68, 77
2, 46440, Note_on_c, 0, 63, 77
2, 46500, Note_on_c, 0, 68, 0
2, 46500, Note_on_c, 0, 67, 77
2, 46560, Note_on_c, 0, 67, 0
2, 46560, Note_on_c, 0, 63, 0
2, 46560, Note_on_c, 0, 58, 0
2, 46560, Note_on_c, 0, 63, 109
2, 46560, Note_on_c, 0, 67, 109
2, 46560, Note_on_c, 0, 58, 109
2, 46680, Note_on_c, 0, 58, 0
2, 46680, Note_on_c, 0, 67, 0
2, 46680, Note_on_c, 0, 63, 0
2, 46680, Note_on_c, 0, 63, 109
2, 46680, Note_on_c, 0, 58, 109
2, 46680, Note_on_c, 0, 67, 109
2, 46800, Note_on_c, 0, 67, 0
2, 46800, Note_on_c, 0, 58, 0
2, 46800, Note_on_c, 0, 63, 0
2, 46800, Note_on_c, 0, 63, 109
2, 46800, Note_on_c, 0, 67, 109
2, 46800, Note_on_c, 0, 58, 109
2, 46920, Note_on_c, 0, 58, 0
2, 46920, Note_on_c, 0, 67, 0
2, 46920, Note_on_c, 0, 63, 0
2, 47060, Note_on_c, 0, 58, 76
2, 47080, Note_on_c, 0, 58, 0
2, 47080, Note_on_c, 0, 60, 77
2, 47100, Note_on_c, 0, 60, 0
2, 47100, Note_on_c, 0, 62, 79
2, 47120, Note_on_c, 0, 62, 0
2, 47120, Note_on_c, 0, 63, 80
2, 47140, Note_on_c, 0, 63, 0
2, 47140, Note_on_c, 0, 65, 81
2, 47160, Note_on_c, 0, 65, 0
2, 47160, Note_on_c, 0, 67, 82
2, 47160, Note_on_c, 0, 63, 82
2, 47280, Note_on_c, 0, 63, 0
2, 47280, Note_on_c, 0, 67, 0
2, 47280, Note_on_c, 0, 65, 91
2, 47280, Note_on_c, 0, 68, 91
2, 47400, Note_on_c, 0, 68, 0
2, 47400, Note_on_c, 0, 65, 0
2, 47400, Note_on_c, 0, 70, 96
2, 47400, Note_on_c, 0, 67, 96
2, 47520, Note_on_c, 0, 67, 0
2, 47520, Note_on_c, 0, 70, 0
2, 47520, Note_on_c, 0, 60, 116
2, 47520, Note_on_c, 0, 65, 116
2, 47520, Note_on_c, 0, 72, 116
2, 47520, Note_on_c, 0, 69, 116
2, 47760, Note_on_c, 0, 69, 0
2, 47760, Note_on_c, 0, 60, 0
2, 47760, Note_on_c, 0, 65, 0
2, 47760, Note_on_c, 0, 72, 0
2, 47760, Note_on_c, 0, 62, 100
2, 47760, Note_on_c, 0, 70, 100
2, 47760, Note_on_c, 0, 74, 100
2, 47760, Note_on_c, 0, 65, 100
2, 47880, Note_on_c, 0, 65, 0
2, 47880, Note_on_c, 0, 62, 0
2, 47880, Note_on_c, 0, 70, 0
2, 47880, Note_on_c, 0, 74, 0
2, 47880, Note_on_c, 0, 65, 100
2, 47880, Note_on_c, 0, 69, 100
2, 47880, Note_on_c, 0, 63, 100
2, 47880, Note_on_c, 0, 75, 100
2, 48000, Note_on_c, 0, 75, 0
2, 48000, Note_on_c, 0, 65, 0
2, 48000, Note_on_c, 0, 69, 0
2, 48000, Note_on_c, 0, 63, 0
2, 48000, Note_on_c, 0, 65, 100
2, 48000, Note_on_c, 0, 69, 100
2, 48000, Note_on_c, 0, 75, 100
2, 48000, Note_on_c, 0, 63, 100
2, 48120, Note_on_c, 0, 63, 0
2, 48120, Note_on_c, 0, 65, 0
2, 48120, Note_on_c, 0, 69, 0
2, 48120, Note_on_c, 0, 75, 0
2, 48120, Note_on_c, 0, 62, 100
2, 48120, Note_on_c, 0, 65, 100
2, 48120, Note_on_c, 0, 74, 100
2, 48120, Note_on_c, 0, 70, 100
2, 48240, Note_on_c, 0, 70, 0
2, 48240, Note_on_c, 0, 62, 0
2, 48240, Note_on_c, 0, 65, 0
2, 48240, Note_on_c, 0, 74, 0
2, 48240, Note_on_c, 0, 67, 100
2, 48240, Note_on_c, 0, 75, 100
2, 48240, Note_on_c, 0, 79, 100
2, 48240, Note_on_c, 0, 70, 100
2, 48360, Note_on_c, 0, 70, 0
2, 48360, Note_on_c, 0, 67, 0
2, 48360, Note_on_c, 0, 75, 0
2, 48360, Note_on_c, 0, 79, 0
2, 48600, Note_on_c, 0, 79, 78
2, 48600, Note_on_c, 0, 67, 78
2, 48720, Note_on_c, 0, 69, 76
2, 48840, Note_on_c, 0, 69, 0
2, 48840, Note_on_c, 0, 67, 0
2, 48840, Note_on_c, 0, 79, 0
2, 48840, Note_on_c, 0, 65, 74
2, 48840, Note_on_c, 0, 77, 74
2, 48840, Note_on_c, 0, 70, 74
2, 48960, Note_on_c, 0, 77, 0
2, 48960, Note_on_c, 0, 65, 0
2, 48960, Note_on_c, 0, 75, 72
2, 48960, Note_on_c, 0, 63, 72
2, 49080, Note_on_c, 0, 70, 0
2, 49080, Note_on_c, 0, 69, 71
2, 49200, Note_on_c, 0, 69, 0
2, 49200, Note_on_c, 0, 63, 0
2, 49200, Note_on_c, 0, 75, 0
2, 49200, Note_on_c, 0, 70, 71
2, 49200, Note_on_c, 0, 74, 71
2, 49200, Note_on_c, 0, 62, 71
2, 49305, Note_on_c, 0, 74, 71
2, 49320, Note_on_c, 0, 62, 0
2, 49320, Note_on_c, 0, 70, 0
2, 49320, Note_on_c, 0, 74, 0
2, 49320, Note_on_c, 0, 67, 71
2, 49320, Note_on_c, 0, 63, 71
2, 49320, Note_on_c, 0, 72, 71
2, 49322, Note_on_c, 0, 74, 0
2, 49440, Note_on_c, 0, 67, 0
2, 49440, Note_on_c, 0, 63, 0
2, 49440, Note_on_c, 0, 72, 0
2, 49440, Note_on_c, 0, 70, 69
2, 49440, Note_on_c, 0, 65, 69
2, 49440, Note_on_c, 0, 62, 69
2, 49560, Note_on_c, 0, 62, 0
2, 49560, Note_on_c, 0, 65, 0
2, 49560, Note_on_c, 0, 70, 0
2, 49560, Note_on_c, 0, 69, 65
2, 49560, Note_on_c, 0, 63, 65
2, 49560, Note_on_c, 0, 60, 65
2, 49560, Note_on_c, 0, 65, 65
2, 49680, Note_on_c, 0, 65, 0
2, 49680, Note_on_c, 0, 69, 0
2, 49680, Note_on_c, 0, 63, 0
2, 49680, Note_on_c, 0, 60, 0
2, 49680, Note_on_c, 0, 65, 57
2, 49680, Note_on_c, 0, 70, 57
2, 49680, Note_on_c, 0, 62, 57
2, 49800, Note_on_c, 0, 62, 0
2, 49800, Note_on_c, 0, 70, 0
2, 49800, Note_on_c, 0, 65, 0
2, 49925, Note_on_c, 0, 58, 90
2, 50045, Note_on_c, 0, 58, 0
2, 50045, Note_on_c, 0, 58, 90
2, 50045, Note_on_c, 0, 70, 90
2, 50045, Note_on_c, 0, 67, 90
2, 50165, Note_on_c, 0, 67, 0
2, 50165, Note_on_c, 0, 70, 0
2, 50165, Note_on_c, 0, 68, 90
2, 50165, Note_on_c, 0, 65, 90
2, 50285, Note_on_c, 0, 65, 0
2, 50285, Note_on_c, 0, 68, 0
2, 50285, Note_on_c, 0, 67, 90
2, 50285, Note_on_c, 0, 63, 90
2, 50405, Note_on_c, 0, 63, 0
2, 50405, Note_on_c, 0, 67, 0
2, 50405, Note_on_c, 0, 58, 0
2, 50405, Note_on_c, 0, 58, 88
2, 50405, Note_on_c, 0, 67, 88
2, 50405, Note_on_c, 0, 63, 88
2, 50645, Note_on_c, 0, 63, 0
2, 50645, Note_on_c, 0, 67, 0
2, 50645, Note_on_c, 0, 58, 0
2, 50645, Note_on_c, 0, 58, 87
2, 50645, Note_on_c, 0, 63, 87
2, 50645, Note_on_c, 0, 68, 87
2, 50705, Note_on_c, 0, 68, 0
2, 50705, Note_on_c, 0, 67, 87
2, 50765, Note_on_c, 0, 67, 0
2, 50765, Note_on_c, 0, 63, 0
2, 50765, Note_on_c, 0, 58, 0
2, 50765, Note_on_c, 0, 60, 88
2, 50765, Note_on_c, 0, 63, 88
2, 50765, Note_on_c, 0, 67, 88
2, 50825, Note_on_c, 0, 67, 0
2, 50825, Note_on_c, 0, 65, 90
2, 50885, Note_on_c, 0, 65, 0
2, 50885, Note_on_c, 0, 63, 0
2, 50885, Note_on_c, 0, 60, 0
2, 50885, Note_on_c, 0, 65, 97
2, 50885, Note_on_c, 0, 60, 97
2, 50885, Note_on_c, 0, 63, 97
2, 51005, Note_on_c, 0, 63, 0
2, 51005, Note_on_c, 0, 60, 0
2, 51005, Note_on_c, 0, 65, 0
2, 51005, Note_on_c, 0, 65, 105
2, 51005, Note_on_c, 0, 60, 105
2, 51005, Note_on_c, 0, 63, 105
2, 51125, Note_on_c, 0, 63, 0
2, 51125, Note_on_c, 0, 60, 0
2, 51125, Note_on_c, 0, 65, 0
2, 51125, Note_on_c, 0, 63, 113
2, 51125, Note_on_c, 0, 65, 113
2, 51125, Note_on_c, 0, 60, 113
2, 51245, Note_on_c, 0, 60, 0
2, 51245, Note_on_c, 0, 65, 0
2, 51245, Note_on_c, 0, 63, 0
2, 51485, Note_on_c, 0, 65, 75
2, 51485, Note_on_c, 0, 68, 75
2, 51605, Note_on_c, 0, 68, 0
2, 51605, Note_on_c, 0, 65, 0
2, 51605, Note_on_c, 0, 67, 76
2, 51605, Note_on_c, 0, 63, 76
2, 51725, Note_on_c, 0, 63, 0
2, 51725, Note_on_c, 0, 67, 0
2, 51725, Note_on_c, 0, 65, 76
2, 51725, Note_on_c, 0, 62, 76
2, 51845, Note_on_c, 0, 62, 0
2, 51845, Note_on_c, 0, 65, 0
2, 51845, Note_on_c, 0, 58, 77
2, 51845, Note_on_c, 0, 70, 77
2, 51845, Note_on_c, 0, 62, 77
2, 51965, Note_on_c, 0, 62, 0
2, 51965, Note_on_c, 0, 63, 77
2, 52085, Note_on_c, 0, 63, 0
2, 52085, Note_on_c, 0, 70, 0
2, 52085, Note_on_c, 0, 58, 0
2, 52085, Note_on_c, 0, 65, 77
2, 52085, Note_on_c, 0, 58, 77
2, 52085, Note_on_c, 0, 68, 77
2, 52205, Note_on_c, 0, 68, 0
2, 52205, Note_on_c, 0, 58, 0
2, 52205, Note_on_c, 0, 65, 0
2, 52205, Note_on_c, 0, 68, 77
2, 52205, Note_on_c, 0, 58, 77
2, 52205, Note_on_c, 0, 63, 77
2, 52265, Note_on_c, 0, 68, 0
2, 52265, Note_on_c, 0, 67, 77
2, 52325, Note_on_c, 0, 67, 0
2, 52325, Note_on_c, 0, 63, 0
2, 52325, Note_on_c, 0, 58, 0
2, 52325, Note_on_c, 0, 63, 109
2, 52325, Note_on_c, 0, 58, 109
2, 52325, Note_on_c, 0, 67, 109
2, 52445, Note_on_c, 0, 67, 0
2, 52445, Note_on_c, 0, 58, 0
2, 52445, Note_on_c, 0, 63, 0
2, 52445, Note_on_c, 0, 63, 109
2, 52445, Note_on_c, 0, 67, 109
2, 52445, Note_on_c, 0, 58, 109
2, 52565, Note_on_c, 0, 58, 0
2, 52565, Note_on_c, 0, 67, 0
2, 52565, Note_on_c, 0, 63, 0
2, 52565, Note_on_c, 0, 58, 109
2, 52565, Note_on_c, 0, 63, 109
2, 52565, Note_on_c, 0, 67, 109
2, 52685, Note_on_c, 0, 67, 0
2, 52685, Note_on_c, 0, 63, 0
2, 52685, Note_on_c, 0, 58, 0
2, 52825, Note_on_c, 0, 58, 76
2, 52845, Note_on_c, 0, 58, 0
2, 52845, Note_on_c, 0, 60, 77
2, 52865, Note_on_c, 0, 60, 0
2, 52865, Note_on_c, 0, 62, 79
2, 52885, Note_on_c, 0, 62, 0
2, 52885, Note_on_c, 0, 63, 80
2, 52905, Note_on_c, 0, 63, 0
2, 52905, Note_on_c, 0, 65, 81
2, 52925, Note_on_c, 0, 65, 0
2, 52925, Note_on_c, 0, 63, 82
2, 52925, Note_on_c, 0, 67, 82
2, 53045, Note_on_c, 0, 67, 0
2, 53045, Note_on_c, 0, 63, 0
2, 53045, Note_on_c, 0, 68, 91
2, 53045, Note_on_c, 0, 65, 91
2, 53165, Note_on_c, 0, 65, 0
2, 53165, Note_on_c, 0, 68, 0
2, 53165, Note_on_c, 0, 67, 96
2, 53165, Note_on_c, 0, 70, 96
2, 53285, Note_on_c, 0, 70, 0
2, 53285, Note_on_c, 0, 67, 0
2, 53285, Note_on_c, 0, 60, 116
2, 53285, Note_on_c, 0, 72, 116
2, 53285, Note_on_c, 0, 65, 116
2, 53285, Note_on_c, 0, 69, 116
2, 53525, Note_on_c, 0, 69, 0
2, 53525, Note_on_c, 0, 60, 0
2, 53525, Note_on_c, 0, 72, 0
2, 53525, Note_on_c, 0, 65, 0
2, 53525, Note_on_c, 0, 70, 100
2, 53525, Note_on_c, 0, 74, 100
2, 53525, Note_on_c, 0, 65, 100
2, 53525, Note_on_c, 0, 62, 100
2, 53645, Note_on_c, 0, 62, 0
2, 53645, Note_on_c, 0, 70, 0
2, 53645, Note_on_c, 0, 74, 0
2, 53645, Note_on_c, 0, 65, 0
2, 53645, Note_on_c, 0, 65, 100
2, 53645, Note_on_c, 0, 63, 100
2, 53645, Note_on_c, 0, 75, 100
2, 53645, Note_on_c, 0, 69, 100
2, 53765, Note_on_c, 0, 69, 0
2, 53765, Note_on_c, 0, 65, 0
2, 53765, Note_on_c, 0, 63, 0
2, 53765, Note_on_c, 0, 75, 0
2, 53765, Note_on_c, 0, 63, 100
2, 53765, Note_on_c, 0, 69, 100
2, 53765, Note_on_c, 0, 75, 100
2, 53765, Note_on_c, 0, 65, 100
2, 53885, Note_on_c, 0, 65, 0
2, 53885, Note_on_c, 0, 63, 0
2, 53885, Note_on_c, 0, 69, 0
2, 53885, Note_on_c, 0, 75, 0
2, 53885, Note_on_c, 0, 65, 100
2, 53885, Note_on_c, 0, 70, 100
2, 53885, Note_on_c, 0, 74, 100
2, 53885, Note_on_c, 0, 62, 100
2, 54005, Note_on_c, 0, 62, 0
2, 54005, Note_on_c, 0, 65, 0
2, 54005, Note_on_c, 0, 70, 0
2, 54005, Note_on_c, 0, 74, 0
2, 54005, Note_on_c, 0, 67, 100
2, 54005, Note_on_c, 0, 70, 100
2, 54005, Note_on_c, 0, 79, 100
2, 54005, Note_on_c, 0, 75, 100
2, 54125, Note_on_c, 0, 75, 0
2, 54125, Note_on_c, 0, 67, 0
2, 54125, Note_on_c, 0, 70, 0
2, 54125, Note_on_c, 0, 79, 0
2, 54365, Note_on_c, 0, 79, 78
2, 54365, Note_on_c, 0, 67, 78
2, 54485, Note_on_c, 0, 69, 76
2, 54605, Note_on_c, 0, 69, 0
2, 54605, Note_on_c, 0, 67, 0
2, 54605, Note_on_c, 0, 79, 0
2, 54605, Note_on_c, 0, 65, 74
2, 54605, Note_on_c, 0, 70, 74
2, 54605, Note_on_c, 0, 77, 74
2, 54725, Note_on_c, 0, 77, 0
2, 54725, Note_on_c, 0, 65, 0
2, 54725, Note_on_c, 0, 75, 72
2, 54725, Note_on_c, 0, 63, 72
2, 54845, Note_on_c, 0, 70, 0
2, 54845, Note_on_c, 0, 69, 71
2, 54965, Note_on_c, 0, 69, 0
2, 54965, Note_on_c, 0, 63, 0
2, 54965, Note_on_c, 0, 75, 0
2, 54965, Note_on_c, 0, 70, 71
2, 54965, Note_on_c, 0, 62, 71
2, 54965, Note_on_c, 0, 74, 71
2, 55070, Note_on_c, 0, 74, 71
2, 55079, Note_on_c, 0, 74, 0
2, 55085, Note_on_c, 0, 70, 0
2, 55085, Note_on_c, 0, 62, 0
2, 55085, Note_on_c, 0, 74, 0
2, 55085, Note_on_c, 0, 72, 71
2, 55085, Note_on_c, 0, 67, 71
2, 55085, Note_on_c, 0, 63, 71
2, 55205, Note_on_c, 0, 63, 0
2, 55205, Note_on_c, 0, 67, 0
2, 55205, Note_on_c, 0, 72, 0
2, 55205, Note_on_c, 0, 70, 69
2, 55205, Note_on_c, 0, 62, 69
2, 55205, Note_on_c, 0, 65, 69
2, 55325, Note_on_c, 0, 65, 0
2, 55325, Note_on_c, 0, 62, 0
2, 55325, Note_on_c, 0, 70, 0
2, 55325, Note_on_c, 0, 69, 65
2, 55325, Note_on_c, 0, 65, 65
2, 55325, Note_on_c, 0, 63, 65
2, 55325, Note_on_c, 0, 60, 65
2, 55445, Note_on_c, 0, 60, 0
2, 55445, Note_on_c, 0, 69, 0
2, 55445, Note_on_c, 0, 65, 0
2, 55445, Note_on_c, 0, 63, 0
2, 55445, Note_on_c, 0, 70, 57
2, 55445, Note_on_c, 0, 65, 57
2, 55445, Note_on_c, 0, 62, 57
2, 55565, Note_on_c, 0, 62, 0
2, 55565, Note_on_c, 0, 65, 0
2, 55565, Note_on_c, 0, 70, 0
2, 55680, Note_on_c, 0, 58, 83
2, 55800, Note_on_c, 0, 58, 0
2, 55800, Note_on_c, 0, 70, 106
2, 55920, Note_on_c, 0, 58, 89
2, 56040, Note_on_c, 0, 58, 0
2, 56040, Note_on_c, 0, 60, 90
2, 56160, Note_on_c, 0, 60, 0
2, 56280, Note_on_c, 0, 70, 0
2, 56280, Note_on_c, 0, 68, 101
2, 56400, Note_on_c, 0, 58, 91
2, 56520, Note_on_c, 0, 58, 0
2, 56640, Note_on_c, 0, 68, 0
2, 56640, Note_on_c, 0, 67, 91
2, 56760, Note_on_c, 0, 57, 91
2, 56820, Note_on_c, 0, 67, 0
2, 56820, Note_on_c, 0, 63, 91
2, 56880, Note_on_c, 0, 63, 0
2, 56880, Note_on_c, 0, 57, 0
2, 56880, Note_on_c, 0, 63, 91
2, 56940, Note_on_c, 0, 63, 0
2, 56940, Note_on_c, 0, 62, 92
2, 57000, Note_on_c, 0, 62, 0
2, 57000, Note_on_c, 0, 60, 93
2, 57060, Note_on_c, 0, 60, 0
2, 57060, Note_on_c, 0, 58, 94
2, 57120, Note_on_c, 0, 58, 0
2, 57120, Note_on_c, 0, 70, 95
2, 57180, Note_on_c, 0, 70, 0
2, 57180, Note_on_c, 0, 70, 95
2, 57240, Note_on_c, 0, 70, 0
2, 57240, Note_on_c, 0, 82, 105
2, 57300, Note_on_c, 0, 58, 95
2, 57360, Note_on_c, 0, 58, 0
2, 57360, Note_on_c, 0, 58, 95
2, 57420, Note_on_c, 0, 70, 95
2, 57480, Note_on_c, 0, 70, 0
2, 57480, Note_on_c, 0, 72, 95
2, 57540, Note_on_c, 0, 63, 96
2, 57600, Note_on_c, 0, 63, 0
2, 57600, Note_on_c, 0, 60, 96
2, 57660, Note_on_c, 0, 72, 0
2, 57660, Note_on_c, 0, 68, 96
2, 57720, Note_on_c, 0, 82, 0
2, 57720, Note_on_c, 0, 80, 107
2, 57780, Note_on_c, 0, 60, 0
2, 57780, Note_on_c, 0, 60, 97
2, 57840, Note_on_c, 0, 60, 0
2, 57840, Note_on_c, 0, 62, 97
2, 57900, Note_on_c, 0, 68, 0
2, 57900, Note_on_c, 0, 70, 97
2, 57960, Note_on_c, 0, 62, 0
2, 57960, Note_on_c, 0, 63, 97
2, 58020, Note_on_c, 0, 70, 0
2, 58020, Note_on_c, 0, 67, 98
2, 58080, Note_on_c, 0, 80, 0
2, 58080, Note_on_c, 0, 79, 99
2, 58140, Note_on_c, 0, 63, 0
2, 58140, Note_on_c, 0, 63, 99
2, 58200, Note_on_c, 0, 63, 0
2, 58200, Note_on_c, 0, 67, 0
2, 58200, Note_on_c, 0, 60, 99
2, 58200, Note_on_c, 0, 69, 99
2, 58260, Note_on_c, 0, 79, 0
2, 58260, Note_on_c, 0, 75, 99
2, 58320, Note_on_c, 0, 75, 0
2, 58320, Note_on_c, 0, 69, 0
2, 58320, Note_on_c, 0, 60, 0
2, 58320, Note_on_c, 0, 62, 99
2, 58320, Note_on_c, 0, 70, 99
2, 58320, Note_on_c, 0, 75, 99
2, 58380, Note_on_c, 0, 75, 0
2, 58380, Note_on_c, 0, 74, 99
2, 58440, Note_on_c, 0, 74, 0
2, 58440, Note_on_c, 0, 72, 99
2, 58500, Note_on_c, 0, 72, 0
2, 58500, Note_on_c, 0, 70, 98
2, 58560, Note_on_c, 0, 70, 0
2, 58560, Note_on_c, 0, 70, 0
2, 58560, Note_on_c, 0, 62, 0
2, 58560, Note_on_c, 0, 58, 0
2, 59280, Note_on_c, 0, 58, 67
2, 59400, Note_on_c, 0, 58, 0
2, 59400, Note_on_c, 0, 70, 68
2, 59400, Note_on_c, 0, 58, 68
2, 59400, Note_on_c, 0, 67, 68
2, 59520, Note_on_c, 0, 67, 0
2, 59520, Note_on_c, 0, 70, 0
2, 59520, Note_on_c, 0, 65, 69
2, 59520, Note_on_c, 0, 68, 69
2, 59640, Note_on_c, 0, 68, 0
2, 59640, Note_on_c, 0, 65, 0
2, 59640, Note_on_c, 0, 67, 73
2, 59640, Note_on_c, 0, 63, 73
2, 59760, Note_on_c, 0, 63, 0
2, 59760, Note_on_c, 0, 67, 0
2, 59760, Note_on_c, 0, 58, 0
2, 59760, Note_on_c, 0, 67, 75
2, 59760, Note_on_c, 0, 63, 75
2, 59760, Note_on_c, 0, 58, 75
2, 60000, Note_on_c, 0, 58, 0
2, 60000, Note_on_c, 0, 63, 0
2, 60000, Note_on_c, 0, 67, 0
2, 60000, Note_on_c, 0, 63, 84
2, 60000, Note_on_c, 0, 68, 84
2, 60000, Note_on_c, 0, 58, 84
2, 60060, Note_on_c, 0, 68, 0
2, 60060, Note_on_c, 0, 67, 87
2, 60120, Note_on_c, 0, 67, 0
2, 60120, Note_on_c, 0, 58, 0
2, 60120, Note_on_c, 0, 63, 0
2, 60120, Note_on_c, 0, 67, 90
2, 60120, Note_on_c, 0, 60, 90
2, 60120, Note_on_c, 0, 63, 90
2, 60180, Note_on_c, 0, 67, 0
2, 60180, Note_on_c, 0, 65, 93
2, 60240, Note_on_c, 0, 65, 0
2, 60240, Note_on_c, 0, 63, 0
2, 60240, Note_on_c, 0, 60, 0
2, 60240, Note_on_c, 0, 60, 96
2, 60240, Note_on_c, 0, 63, 96
2, 60240, Note_on_c, 0, 65, 96
2, 60360, Note_on_c, 0, 65, 0
2, 60360, Note_on_c, 0, 63, 0
2, 60360, Note_on_c, 0, 60, 0
2, 60360, Note_on_c, 0, 65, 107
2, 60360, Note_on_c, 0, 60, 107
2, 60360, Note_on_c, 0, 63, 107
2, 60480, Note_on_c, 0, 63, 0
2, 60480, Note_on_c, 0, 60, 0
2, 60480, Note_on_c, 0, 65, 0
2, 60480, Note_on_c, 0, 65, 115
2, 60480, Note_on_c, 0, 60, 115
2, 60480, Note_on_c, 0, 63, 115
2, 60600, Note_on_c, 0, 63, 0
2, 60600, Note_on_c, 0, 60, 0
2, 60600, Note_on_c, 0, 65, 0
2, 60840, Note_on_c, 0, 68, 100
2, 60840, Note_on_c, 0, 65, 100
2, 60960, Note_on_c, 0, 65, 0
2, 60960, Note_on_c, 0, 68, 0
2, 60960, Note_on_c, 0, 67, 100
2, 60960, Note_on_c, 0, 63, 100
2, 61080, Note_on_c, 0, 63, 0
2, 61080, Note_on_c, 0, 67, 0
2, 61080, Note_on_c, 0, 62, 100
2, 61080, Note_on_c, 0, 65, 100
2, 61200, Note_on_c, 0, 65, 0
2, 61200, Note_on_c, 0, 62, 0
2, 61200, Note_on_c, 0, 58, 100
2, 61200, Note_on_c, 0, 70, 100
2, 61440, Note_on_c, 0, 70, 0
2, 61440, Note_on_c, 0, 58, 0
2, 61440, Note_on_c, 0, 58, 100
2, 61440, Note_on_c, 0, 56, 100
2, 61560, Note_on_c, 0, 56, 0
2, 61560, Note_on_c, 0, 58, 0
2, 61560, Note_on_c, 0, 55, 117
2, 61560, Note_on_c, 0, 63, 117
2, 61680, Note_on_c, 0, 63, 0
2, 61680, Note_on_c, 0, 55, 0
2, 61680, Note_on_c, 0, 58, 117
2, 61680, Note_on_c, 0, 63, 117
2, 61680, Note_on_c, 0, 55, 117
2, 61800, Note_on_c, 0, 55, 0
2, 61800, Note_on_c, 0, 63, 0
2, 61800, Note_on_c, 0, 58, 0
2, 61800, Note_on_c, 0, 55, 116
2, 61800, Note_on_c, 0, 63, 116
2, 61800, Note_on_c, 0, 58, 116
2, 61920, Note_on_c, 0, 58, 0
2, 61920, Note_on_c, 0, 63, 0
2, 61920, Note_on_c, 0, 55, 0
2, 61920, Note_on_c, 0, 58, 115
2, 61920, Note_on_c, 0, 55, 115
2, 61920, Note_on_c, 0, 63, 115
2, 62040, Note_on_c, 0, 63, 0
2, 62040, Note_on_c, 0, 55, 0
2, 62040, Note_on_c, 0, 58, 0
2, 62160, Note_on_c, 0, 58, 83
2, 62280, Note_on_c, 0, 58, 0
2, 62280, Note_on_c, 0, 70, 106
2, 62400, Note_on_c, 0, 58, 89
2, 62520, Note_on_c, 0, 58, 0
2, 62520, Note_on_c, 0, 60, 90
2, 62640, Note_on_c, 0, 60, 0
2, 62760, Note_on_c, 0, 70, 0
2, 62760, Note_on_c, 0, 68, 101
2, 62880, Note_on_c, 0, 58, 91
2, 63000, Note_on_c, 0, 58, 0
2, 63120, Note_on_c, 0, 68, 0
2, 63120, Note_on_c, 0, 67, 91
2, 63240, Note_on_c, 0, 57, 91
2, 63300, Note_on_c, 0, 67, 0
2, 63300, Note_on_c, 0, 63, 91
2, 63360, Note_on_c, 0, 63, 0
2, 63360, Note_on_c, 0, 57, 0
2, 63360, Note_on_c, 0, 63, 91
2, 63420, Note_on_c, 0, 63, 0
2, 63420, Note_on_c, 0, 62, 92
2, 63480, Note_on_c, 0, 62, 0
2, 63480, Note_on_c, 0, 60, 93
2, 63540, Note_on_c, 0, 60, 0
2, 63540, Note_on_c, 0, 58, 94
2, 63600, Note_on_c, 0, 58, 0
2, 63600, Note_on_c, 0, 70, 95
2, 63660, Note_on_c, 0, 70, 0
2, 63660, Note_on_c, 0, 70, 95
2, 63720, Note_on_c, 0, 70, 0
2, 63720, Note_on_c, 0, 82, 105
2, 63780, Note_on_c, 0, 58, 95
2, 63840, Note_on_c, 0, 58, 0
2, 63840, Note_on_c, 0, 58, 95
2, 63900, Note_on_c, 0, 70, 95
2, 63960, Note_on_c, 0, 70, 0
2, 63960, Note_on_c, 0, 72, 95
2, 64020, Note_on_c, 0, 63, 96
2, 64080, Note_on_c, 0, 63, 0
2, 64080, Note_on_c, 0, 60, 96
2, 64140, Note_on_c, 0, 72, 0
2, 64140, Note_on_c, 0, 68, 96
2, 64200, Note_on_c, 0, 82, 0
2, 64200, Note_on_c, 0, 80, 107
2, 64260, Note_on_c, 0, 60, 0
2, 64260, Note_on_c, 0, 60, 97
2, 64320, Note_on_c, 0, 60, 0
2, 64320, Note_on_c, 0, 62, 97
2, 64380, Note_on_c, 0, 68, 0
2, 64380, Note_on_c, 0, 70, 97
2, 64440, Note_on_c, 0, 62, 0
2, 64440, Note_on_c, 0, 63, 97
2, 64500, Note_on_c, 0, 70, 0
2, 64500, Note_on_c, 0, 67, 98
2, 64560, Note_on_c, 0, 80, 0
2, 64560, Note_on_c, 0, 79, 99
2, 64620, Note_on_c, 0, 63, 0
2, 64620, Note_on_c, 0, 63, 99
2, 64680, Note_on_c, 0, 63, 0
2, 64680, Note_on_c, 0, 67, 0
2, 64680, Note_on_c, 0, 69, 99
2, 64680, Note_on_c, 0, 60, 99
2, 64740, Note_on_c, 0, 79, 0
2, 64740, Note_on_c, 0, 75, 99
2, 64800, Note_on_c, 0, 75, 0
2, 64800, Note_on_c, 0, 60, 0
2, 64800, Note_on_c, 0, 69, 0
2, 64800, Note_on_c, 0, 70, 99
2, 64800, Note_on_c, 0, 62, 99
2, 64800, Note_on_c, 0, 75, 99
2, 64860, Note_on_c, 0, 75, 0
2, 64860, Note_on_c, 0, 74, 99
2, 64920, Note_on_c, 0, 74, 0
2, 64920, Note_on_c, 0, 72, 99
2, 64980, Note_on_c, 0, 72, 0
2, 64980, Note_on_c, 0, 70, 98
2, 65040, Note_on_c, 0, 70, 0
2, 65040, Note_on_c, 0, 62, 0
2, 65040, Note_on_c, 0, 70, 0
2, 65040, Note_on_c, 0, 58, 0
2, 65760, Note_on_c, 0, 58, 67
2, 65880, Note_on_c, 0, 58, 0
2, 65880, Note_on_c, 0, 70, 68
2, 65880, Note_on_c, 0, 58, 68
2, 65880, Note_on_c, 0, 67, 68
2, 66000, Note_on_c, 0, 67, 0
2, 66000, Note_on_c, 0, 70, 0
2, 66000, Note_on_c, 0, 65, 69
2, 66000, Note_on_c, 0, 68, 69
2, 66120, Note_on_c, 0, 68, 0
2, 66120, Note_on_c, 0, 65, 0
2, 66120, Note_on_c, 0, 67, 73
2, 66120, Note_on_c, 0, 63, 73
2, 66240, Note_on_c, 0, 63, 0
2, 66240, Note_on_c, 0, 67, 0
2, 66240, Note_on_c, 0, 58, 0
2, 66240, Note_on_c, 0, 67, 75
2, 66240, Note_on_c, 0, 63, 75
2, 66240, Note_on_c, 0, 58, 75
2, 66480, Note_on_c, 0, 58, 0
2, 66480, Note_on_c, 0, 63, 0
2, 66480, Note_on_c, 0, 67, 0
2, 66480, Note_on_c, 0, 68, 84
2, 66480, Note_on_c, 0, 63, 84
2, 66480, Note_on_c, 0, 58, 84
2, 66540, Note_on_c, 0, 68, 0
2, 66540, Note_on_c, 0, 67, 87
2, 66600, Note_on_c, 0, 67, 0
2, 66600, Note_on_c, 0, 58, 0
2, 66600, Note_on_c, 0, 63, 0
2, 66600, Note_on_c, 0, 63, 90
2, 66600, Note_on_c, 0, 67, 90
2, 66600, Note_on_c, 0, 60, 90
2, 66660, Note_on_c, 0, 67, 0
2, 66660, Note_on_c, 0, 65, 93
2, 66720, Note_on_c, 0, 65, 0
2, 66720, Note_on_c, 0, 60, 0
2, 66720, Note_on_c, 0, 63, 0
2, 66720, Note_on_c, 0, 63, 96
2, 66720, Note_on_c, 0, 60, 96
2, 66720, Note_on_c, 0, 65, 96
2, 66840, Note_on_c, 0, 65, 0
2, 66840, Note_on_c, 0, 60, 0
2, 66840, Note_on_c, 0, 63, 0
2, 66840, Note_on_c, 0, 63, 107
2, 66840, Note_on_c, 0, 65, 107
2, 66840, Note_on_c, 0, 60, 107
2, 66960, Note_on_c, 0, 60, 0
2, 66960, Note_on_c, 0, 65, 0
2, 66960, Note_on_c, 0, 63, 0
2, 66960, Note_on_c, 0, 65, 115
2, 66960, Note_on_c, 0, 60, 115
2, 66960, Note_on_c, 0, 63, 115
2, 67080, Note_on_c, 0, 63, 0
2, 67080, Note_on_c, 0, 60, 0
2, 67080, Note_on_c, 0, 65, 0
2, 67320, Note_on_c, 0, 68, 100
2, 67320, Note_on_c, 0, 65, 100
2, 67440, Note_on_c, 0, 65, 0
2, 67440, Note_on_c, 0, 68, 0
2, 67440, Note_on_c, 0, 67, 100
2, 67440, Note_on_c, 0, 63, 100
2, 67560, Note_on_c, 0, 63, 0
2, 67560, Note_on_c, 0, 67, 0
2, 67560, Note_on_c, 0, 62, 100
2, 67560, Note_on_c, 0, 65, 100
2, 67680, Note_on_c, 0, 65, 0
2, 67680, Note_on_c, 0, 62, 0
2, 67680, Note_on_c, 0, 58, 100
2, 67680, Note_on_c, 0, 70, 100
2, 67920, Note_on_c, 0, 70, 0
2, 67920, Note_on_c, 0, 58, 0
2, 67920, Note_on_c, 0, 56, 100
2, 67920, Note_on_c, 0, 58, 100
2, 68040, Note_on_c, 0, 58, 0
2, 68040, Note_on_c, 0, 56, 0
2, 68040, Note_on_c, 0, 63, 117
2, 68040, Note_on_c, 0, 55, 117
2, 68160, Note_on_c, 0, 55, 0
2, 68160, Note_on_c, 0, 63, 0
2, 68160, Note_on_c, 0, 55, 117
2, 68160, Note_on_c, 0, 58, 117
2, 68160, Note_on_c, 0, 63, 117
2, 68280, Note_on_c, 0, 63, 0
2, 68280, Note_on_c, 0, 58, 0
2, 68280, Note_on_c, 0, 55, 0
2, 68280, Note_on_c, 0, 58, 116
2, 68280, Note_on_c, 0, 55, 116
2, 68280, Note_on_c, 0, 63, 116
2, 68400, Note_on_c, 0, 63, 0
2, 68400, Note_on_c, 0, 55, 0
2, 68400, Note_on_c, 0, 58, 0
2, 68400, Note_on_c, 0, 58, 116
2, 68400, Note_on_c, 0, 55, 116
2, 68400, Note_on_c, 0, 63, 116
2, 68520, Note_on_c, 0, 63, 0
2, 68520, Note_on_c, 0, 55, 0
2, 68520, Note_on_c, 0, 58, 0
2, 68520, End_track
3, 0, Start_track
3, 0, Program_c, 1, 0
3, 0, Control_c, 1, 7, 127
3, 0, Control_c, 1, 10, 83
3, 0, Control_c, 1, 93, 23
3, 0, Control_c, 1, 91, 13
3, 360, Note_on_c, 1, 39, 67
3, 360, Note_on_c, 1, 51, 67
3, 720, Note_on_c, 1, 51, 0
3, 720, Note_on_c, 1, 39, 0
3, 720, Note_on_c, 1, 39, 69
3, 720, Note_on_c, 1, 51, 69
3, 840, Note_on_c, 1, 51, 0
3, 840, Note_on_c, 1, 39, 0
3, 840, Note_on_c, 1, 41, 72
3, 840, Note_on_c, 1, 53, 72
3, 960, Note_on_c, 1, 53, 0
3, 960, Note_on_c, 1, 41, 0
3, 960, Note_on_c, 1, 43, 73
3, 960, Note_on_c, 1, 55, 73
3, 1080, Note_on_c, 1, 55, 0
3, 1080, Note_on_c, 1, 43, 0
3, 1080, Note_on_c, 1, 44, 74
3, 1080, Note_on_c, 1, 56, 74
3, 1200, Note_on_c, 1, 56, 0
3, 1200, Note_on_c, 1, 44, 0
3, 1200, Note_on_c, 1, 56, 74
3, 1200, Note_on_c, 1, 44, 74
3, 1320, Note_on_c, 1, 44, 0
3, 1320, Note_on_c, 1, 56, 0
3, 1320, Note_on_c, 1, 56, 74
3, 1320, Note_on_c, 1, 44, 74
3, 1440, Note_on_c, 1, 44, 0
3, 1440, Note_on_c, 1, 56, 0
3, 1440, Note_on_c, 1, 44, 100
3, 1440, Note_on_c, 1, 56, 100
3, 1560, Note_on_c, 1, 56, 0
3, 1560, Note_on_c, 1, 44, 0
3, 1800, Note_on_c, 1, 46, 74
3, 1800, Note_on_c, 1, 58, 74
3, 2160, Note_on_c, 1, 58, 0
3, 2160, Note_on_c, 1, 46, 0
3, 2160, Note_on_c, 1, 34, 72
3, 2160, Note_on_c, 1, 46, 72
3, 2280, Note_on_c, 1, 46, 0
3, 2280, Note_on_c, 1, 34, 0
3, 2280, Note_on_c, 1, 36, 72
3, 2280, Note_on_c, 1, 48, 72
3, 2400, Note_on_c, 1, 48, 0
3, 2400, Note_on_c, 1, 36, 0
3, 2400, Note_on_c, 1, 38, 72
3, 2400, Note_on_c, 1, 50, 72
3, 2520, Note_on_c, 1, 50, 0
3, 2520, Note_on_c, 1, 38, 0
3, 2520, Note_on_c, 1, 39, 70
3, 2520, Note_on_c, 1, 51, 70
3, 2640, Note_on_c, 1, 51, 0
3, 2640, Note_on_c, 1, 39, 0
3, 2640, Note_on_c, 1, 51, 70
3, 2640, Note_on_c, 1, 39, 70
3, 2760, Note_on_c, 1, 39, 0
3, 2760, Note_on_c, 1, 51, 0
3, 2760, Note_on_c, 1, 51, 70
3, 2760, Note_on_c, 1, 39, 70
3, 2880, Note_on_c, 1, 39, 0
3, 2880, Note_on_c, 1, 51, 0
3, 2880, Note_on_c, 1, 39, 100
3, 2880, Note_on_c, 1, 51, 100
3, 3000, Note_on_c, 1, 51, 0
3, 3000, Note_on_c, 1, 39, 0
3, 3240, Note_on_c, 1, 39, 100
3, 3240, Note_on_c, 1, 51, 100
3, 3720, Note_on_c, 1, 51, 0
3, 3720, Note_on_c, 1, 39, 0
3, 3720, Note_on_c, 1, 39, 100
3, 3720, Note_on_c, 1, 51, 100
3, 3840, Note_on_c, 1, 51, 0
3, 3840, Note_on_c, 1, 39, 0
3, 3840, Note_on_c, 1, 50, 89
3, 3840, Note_on_c, 1, 38, 89
3, 3960, Note_on_c, 1, 38, 0
3, 3960, Note_on_c, 1, 50, 0
3, 3960, Note_on_c, 1, 36, 85
3, 3960, Note_on_c, 1, 48, 85
3, 4080, Note_on_c, 1, 48, 0
3, 4080, Note_on_c, 1, 36, 0
3, 4080, Note_on_c, 1, 53, 83
3, 4080, Note_on_c, 1, 41, 83
3, 4200, Note_on_c, 1, 41, 0
3, 4200, Note_on_c, 1, 53, 0
3, 4200, Note_on_c, 1, 34, 80
3, 4200, Note_on_c, 1, 46, 80
3, 4320, Note_on_c, 1, 46, 0
3, 4320, Note_on_c, 1, 34, 0
3, 4320, Note_on_c, 1, 39, 77
3, 4320, Note_on_c, 1, 51, 77
3, 4440, Note_on_c, 1, 51, 0
3, 4440, Note_on_c, 1, 39, 0
3, 4680, Note_on_c, 1, 51, 67
3, 4680, Note_on_c, 1, 63, 67
3, 4920, Note_on_c, 1, 63, 0
3, 4920, Note_on_c, 1, 51, 0
3, 4920, Note_on_c, 1, 50, 66
3, 4920, Note_on_c, 1, 62, 66
3, 5040, Note_on_c, 1, 62, 0
3, 5040, Note_on_c, 1, 50, 0
3, 5280, Note_on_c, 1, 46, 70
3, 5280, Note_on_c, 1, 58, 70
3, 5400, Note_on_c, 1, 58, 0
3, 5400, Note_on_c, 1, 46, 0
3, 5400, Note_on_c, 1, 51, 71
3, 5520, Note_on_c, 1, 51, 0
3, 5520, Note_on_c, 1, 53, 71
3, 5640, Note_on_c, 1, 53, 0
3, 5640, Note_on_c, 1, 41, 72
3, 5760, Note_on_c, 1, 41, 0
3, 5760, Note_on_c, 1, 46, 73
3, 5760, Note_on_c, 1, 58, 73
3, 5880, Note_on_c, 1, 58, 0
3, 5880, Note_on_c, 1, 46, 0
3, 6125, Note_on_c, 1, 39, 67
3, 6125, Note_on_c, 1, 51, 67
3, 6485, Note_on_c, 1, 51, 0
3, 6485, Note_on_c, 1, 39, 0
3, 6485, Note_on_c, 1, 39, 69
3, 6485, Note_on_c, 1, 51, 69
3, 6605, Note_on_c, 1, 51, 0
3, 6605, Note_on_c, 1, 39, 0
3, 6605, Note_on_c, 1, 41, 72
3, 6605, Note_on_c, 1, 53, 72
3, 6725, Note_on_c, 1, 53, 0
3, 6725, Note_on_c, 1, 41, 0
3, 6725, Note_on_c, 1, 43, 73
3, 6725, Note_on_c, 1, 55, 73
3, 6845, Note_on_c, 1, 55, 0
3, 6845, Note_on_c, 1, 43, 0
3, 6845, Note_on_c, 1, 44, 74
3, 6845, Note_on_c, 1, 56, 74
3, 6965, Note_on_c, 1, 56, 0
3, 6965, Note_on_c, 1, 44, 0
3, 6965, Note_on_c, 1, 56, 74
3, 6965, Note_on_c, 1, 44, 74
3, 7085, Note_on_c, 1, 44, 0
3, 7085, Note_on_c, 1, 56, 0
3, 7085, Note_on_c, 1, 56, 74
3, 7085, Note_on_c, 1, 44, 74
3, 7205, Note_on_c, 1, 44, 0
3, 7205, Note_on_c, 1, 56, 0
3, 7205, Note_on_c, 1, 44, 100
3, 7205, Note_on_c, 1, 56, 100
3, 7325, Note_on_c, 1, 56, 0
3, 7325, Note_on_c, 1, 44, 0
3, 7565, Note_on_c, 1, 46, 74
3, 7565, Note_on_c, 1, 58, 74
3, 7925, Note_on_c, 1, 58, 0
3, 7925, Note_on_c, 1, 46, 0
3, 7925, Note_on_c, 1, 34, 72
3, 7925, Note_on_c, 1, 46, 72
3, 8045, Note_on_c, 1, 46, 0
3, 8045, Note_on_c, 1, 34, 0
3, 8045, Note_on_c, 1, 36, 72
3, 8045, Note_on_c, 1, 48, 72
3, 8165, Note_on_c, 1, 48, 0
3, 8165, Note_on_c, 1, 36, 0
3, 8165, Note_on_c, 1, 38, 72
3, 8165, Note_on_c, 1, 50, 72
3, 8285, Note_on_c, 1, 50, 0
3, 8285, Note_on_c, 1, 38, 0
3, 8285, Note_on_c, 1, 39, 70
3, 8285, Note_on_c, 1, 51, 70
3, 8405, Note_on_c, 1, 51, 0
3, 8405, Note_on_c, 1, 39, 0
3, 8405, Note_on_c, 1, 51, 70
3, 8405, Note_on_c, 1, 39, 70
3, 8525, Note_on_c, 1, 39, 0
3, 8525, Note_on_c, 1, 51, 0
3, 8525, Note_on_c, 1, 51, 70
3, 8525, Note_on_c, 1, 39, 70
3, 8645, Note_on_c, 1, 39, 0
3, 8645, Note_on_c, 1, 51, 0
3, 8645, Note_on_c, 1, 39, 100
3, 8645, Note_on_c, 1, 51, 100
3, 8765, Note_on_c, 1, 51, 0
3, 8765, Note_on_c, 1, 39, 0
3, 9005, Note_on_c, 1, 39, 100
3, 9005, Note_on_c, 1, 51, 100
3, 9485, Note_on_c, 1, 51, 0
3, 9485, Note_on_c, 1, 39, 0
3, 9485, Note_on_c, 1, 39, 100
3, 9485, Note_on_c, 1, 51, 100
3, 9605, Note_on_c, 1, 51, 0
3, 9605, Note_on_c, 1, 39, 0
3, 9605, Note_on_c, 1, 50, 89
3, 9605, Note_on_c, 1, 38, 89
3, 9725, Note_on_c, 1, 38, 0
3, 9725, Note_on_c, 1, 50, 0
3, 9725, Note_on_c, 1, 36, 85
3, 9725, Note_on_c, 1, 48, 85
3, 9845, Note_on_c, 1, 48, 0
3, 9845, Note_on_c, 1, 36, 0
3, 9845, Note_on_c, 1, 53, 83
3, 9845, Note_on_c, 1, 41, 83
3, 9965, Note_on_c, 1, 41, 0
3, 9965, Note_on_c, 1, 53, 0
3, 9965, Note_on_c, 1, 34, 80
3, 9965, Note_on_c, 1, 46, 80
3, 10085, Note_on_c, 1, 46, 0
3, 10085, Note_on_c, 1, 34, 0
3, 10085, Note_on_c, 1, 39, 77
3, 10085, Note_on_c, 1, 51, 77
3, 10205, Note_on_c, 1, 51, 0
3, 10205, Note_on_c, 1, 39, 0
3, 10445, Note_on_c, 1, 51, 67
3, 10445, Note_on_c, 1, 63, 67
3, 10685, Note_on_c, 1, 63, 0
3, 10685, Note_on_c, 1, 51, 0
3, 10685, Note_on_c, 1, 50, 66
3, 10685, Note_on_c, 1, 62, 66
3, 10805, Note_on_c, 1, 62, 0
3, 10805, Note_on_c, 1, 50, 0
3, 11045, Note_on_c, 1, 46, 70
3, 11045, Note_on_c, 1, 58, 70
3, 11165, Note_on_c, 1, 58, 0
3, 11165, Note_on_c, 1, 46, 0
3, 11165, Note_on_c, 1, 51, 71
3, 11285, Note_on_c, 1, 51, 0
3, 11285, Note_on_c, 1, 53, 71
3, 11405, Note_on_c, 1, 53, 0
3, 11405, Note_on_c, 1, 41, 72
3, 11525, Note_on_c, 1, 41, 0
3, 11525, Note_on_c, 1, 46, 73
3, 11525, Note_on_c, 1, 58, 73
3, 11645, Note_on_c, 1, 58, 0
3, 11645, Note_on_c, 1, 46, 0
3, 11880, Note_on_c, 1, 48, 100
3, 11880, Note_on_c, 1, 46, 100
3, 12120, Note_on_c, 1, 48, 0
3, 12120, Note_on_c, 1, 51, 100
3, 12240, Note_on_c, 1, 51, 0
3, 12240, Note_on_c, 1, 46, 0
3, 12240, Note_on_c, 1, 51, 100
3, 12240, Note_on_c, 1, 46, 100
3, 12480, Note_on_c, 1, 51, 0
3, 12480, Note_on_c, 1, 50, 100
3, 12600, Note_on_c, 1, 50, 0
3, 12600, Note_on_c, 1, 46, 0
3, 12600, Note_on_c, 1, 58, 100
3, 12600, Note_on_c, 1, 46, 100
3, 12840, Note_on_c, 1, 46, 0
3, 12840, Note_on_c, 1, 58, 0
3, 12840, Note_on_c, 1, 48, 100
3, 12960, Note_on_c, 1, 48, 0
3, 12960, Note_on_c, 1, 46, 100
3, 12960, Note_on_c, 1, 58, 100
3, 13200, Note_on_c, 1, 58, 0
3, 13200, Note_on_c, 1, 46, 0
3, 14640, Note_on_c, 1, 57, 88
3, 14640, Note_on_c, 1, 67, 88
3, 14700, Note_on_c, 1, 67, 0
3, 14700, Note_on_c, 1, 63, 86
3, 14760, Note_on_c, 1, 63, 0
3, 14760, Note_on_c, 1, 57, 0
3, 14760, Note_on_c, 1, 63, 84
3, 14820, Note_on_c, 1, 63, 0
3, 14820, Note_on_c, 1, 62, 82
3, 14880, Note_on_c, 1, 62, 0
3, 14880, Note_on_c, 1, 60, 80
3, 14940, Note_on_c, 1, 60, 0
3, 14940, Note_on_c, 1, 58, 78
3, 15000, Note_on_c, 1, 58, 0
3, 15000, Note_on_c, 1, 57, 77
3, 15060, Note_on_c, 1, 57, 0
3, 15060, Note_on_c, 1, 58, 76
3, 15120, Note_on_c, 1, 58, 0
3, 15120, Note_on_c, 1, 57, 73
3, 15180, Note_on_c, 1, 57, 0
3, 15180, Note_on_c, 1, 58, 70
3, 15240, Note_on_c, 1, 58, 0
3, 15240, Note_on_c, 1, 60, 67
3, 15300, Note_on_c, 1, 60, 0
3, 15300, Note_on_c, 1, 58, 66
3, 15360, Note_on_c, 1, 58, 0
3, 15360, Note_on_c, 1, 56, 64
3, 15420, Note_on_c, 1, 56, 0
3, 15420, Note_on_c, 1, 53, 62
3, 15480, Note_on_c, 1, 53, 0
3, 15480, Note_on_c, 1, 51, 61
3, 15840, Note_on_c, 1, 51, 0
3, 15840, Note_on_c, 1, 39, 79
3, 15840, Note_on_c, 1, 51, 79
3, 15960, Note_on_c, 1, 51, 0
3, 15960, Note_on_c, 1, 39, 0
3, 15960, Note_on_c, 1, 41, 85
3, 15960, Note_on_c, 1, 53, 85
3, 16080, Note_on_c, 1, 53, 0
3, 16080, Note_on_c, 1, 41, 0
3, 16080, Note_on_c, 1, 43, 91
3, 16080, Note_on_c, 1, 55, 91
3, 16200, Note_on_c, 1, 55, 0
3, 16200, Note_on_c, 1, 43, 0
3, 16200, Note_on_c, 1, 44, 100
3, 16200, Note_on_c, 1, 56, 100
3, 16320, Note_on_c, 1, 56, 0
3, 16320, Note_on_c, 1, 44, 0
3, 16320, Note_on_c, 1, 56, 107
3, 16320, Note_on_c, 1, 44, 107
3, 16440, Note_on_c, 1, 44, 0
3, 16440, Note_on_c, 1, 56, 0
3, 16440, Note_on_c, 1, 56, 115
3, 16440, Note_on_c, 1, 44, 115
3, 16560, Note_on_c, 1, 44, 0
3, 16560, Note_on_c, 1, 56, 0
3, 16560, Note_on_c, 1, 44, 119
3, 16560, Note_on_c, 1, 56, 119
3, 16680, Note_on_c, 1, 56, 0
3, 16680, Note_on_c, 1, 44, 0
3, 16920, Note_on_c, 1, 46, 87
3, 16920, Note_on_c, 1, 58, 87
3, 17280, Note_on_c, 1, 58, 0
3, 17280, Note_on_c, 1, 46, 0
3, 17280, Note_on_c, 1, 34, 101
3, 17280, Note_on_c, 1, 46, 101
3, 17400, Note_on_c, 1, 46, 0
3, 17400, Note_on_c, 1, 34, 0
3, 17400, Note_on_c, 1, 36, 103
3, 17400, Note_on_c, 1, 48, 103
3, 17520, Note_on_c, 1, 48, 0
3, 17520, Note_on_c, 1, 36, 0
3, 17520, Note_on_c, 1, 38, 103
3, 17520, Note_on_c, 1, 50, 103
3, 17640, Note_on_c, 1, 50, 0
3, 17640, Note_on_c, 1, 38, 0
3, 17640, Note_on_c, 1, 39, 103
3, 17640, Note_on_c, 1, 51, 103
3, 17760, Note_on_c, 1, 51, 0
3, 17760, Note_on_c, 1, 39, 0
3, 17760, Note_on_c, 1, 51, 103
3, 17760, Note_on_c, 1, 39, 103
3, 17880, Note_on_c, 1, 39, 0
3, 17880, Note_on_c, 1, 51, 0
3, 17880, Note_on_c, 1, 51, 118
3, 17880, Note_on_c, 1, 39, 118
3, 18000, Note_on_c, 1, 39, 0
3, 18000, Note_on_c, 1, 51, 0
3, 18000, Note_on_c, 1, 39, 118
3, 18000, Note_on_c, 1, 51, 118
3, 18120, Note_on_c, 1, 51, 0
3, 18120, Note_on_c, 1, 39, 0
3, 18360, Note_on_c, 1, 48, 100
3, 18360, Note_on_c, 1, 46, 100
3, 18600, Note_on_c, 1, 48, 0
3, 18600, Note_on_c, 1, 51, 100
3, 18720, Note_on_c, 1, 51, 0
3, 18720, Note_on_c, 1, 46, 0
3, 18720, Note_on_c, 1, 51, 100
3, 18720, Note_on_c, 1, 46, 100
3, 18960, Note_on_c, 1, 51, 0
3, 18960, Note_on_c, 1, 50, 100
3, 19080, Note_on_c, 1, 50, 0
3, 19080, Note_on_c, 1, 46, 0
3, 19080, Note_on_c, 1, 58, 100
3, 19080, Note_on_c, 1, 46, 100
3, 19320, Note_on_c, 1, 46, 0
3, 19320, Note_on_c, 1, 58, 0
3, 19320, Note_on_c, 1, 48, 100
3, 19440, Note_on_c, 1, 48, 0
3, 19440, Note_on_c, 1, 46, 100
3, 19440, Note_on_c, 1, 58, 100
3, 19680, Note_on_c, 1, 58, 0
3, 19680, Note_on_c, 1, 46, 0
3, 21120, Note_on_c, 1, 57, 88
3, 21120, Note_on_c, 1, 67, 88
3, 21180, Note_on_c, 1, 67, 0
3, 21180, Note_on_c, 1, 63, 86
3, 21240, Note_on_c, 1, 63, 0
3, 21240, Note_on_c, 1, 57, 0
3, 21240, Note_on_c, 1, 63, 84
3, 21300, Note_on_c, 1, 63, 0
3, 21300, Note_on_c, 1, 62, 82
3, 21360, Note_on_c, 1, 62, 0
3, 21360, Note_on_c, 1, 60, 80
3, 21420, Note_on_c, 1, 60, 0
3, 21420, Note_on_c, 1, 58, 78
3, 21480, Note_on_c, 1, 58, 0
3, 21480, Note_on_c, 1, 57, 77
3, 21540, Note_on_c, 1, 57, 0
3, 21540, Note_on_c, 1, 58, 76
3, 21600, Note_on_c, 1, 58, 0
3, 21600, Note_on_c, 1, 57, 73
3, 21660, Note_on_c, 1, 57, 0
3, 21660, Note_on_c, 1, 58, 70
3, 21720, Note_on_c, 1, 58, 0
3, 21720, Note_on_c, 1, 60, 67
3, 21780, Note_on_c, 1, 60, 0
3, 21780, Note_on_c, 1, 58, 66
3, 21840, Note_on_c, 1, 58, 0
3, 21840, Note_on_c, 1, 56, 64
3, 21900, Note_on_c, 1, 56, 0
3, 21900, Note_on_c, 1, 53, 62
3, 21960, Note_on_c, 1, 53, 0
3, 21960, Note_on_c, 1, 51, 61
3, 22320, Note_on_c, 1, 51, 0
3, 22320, Note_on_c, 1, 39, 79
3, 22320, Note_on_c, 1, 51, 79
3, 22440, Note_on_c, 1, 51, 0
3, 22440, Note_on_c, 1, 39, 0
3, 22440, Note_on_c, 1, 41, 85
3, 22440, Note_on_c, 1, 53, 85
3, 22560, Note_on_c, 1, 53, 0
3, 22560, Note_on_c, 1, 41, 0
3, 22560, Note_on_c, 1, 43, 91
3, 22560, Note_on_c, 1, 55, 91
3, 22680, Note_on_c, 1, 55, 0
3, 22680, Note_on_c, 1, 43, 0
3, 22680, Note_on_c, 1, 44, 100
3, 22680, Note_on_c, 1, 56, 100
3, 22800, Note_on_c, 1, 56, 0
3, 22800, Note_on_c, 1, 44, 0
3, 22800, Note_on_c, 1, 56, 107
3, 22800, Note_on_c, 1, 44, 107
3, 22920, Note_on_c, 1, 44, 0
3, 22920, Note_on_c, 1, 56, 0
3, 22920, Note_on_c, 1, 56, 115
3, 22920, Note_on_c, 1, 44, 115
3, 23040, Note_on_c, 1, 44, 0
3, 23040, Note_on_c, 1, 56, 0
3, 23040, Note_on_c, 1, 44, 119
3, 23040, Note_on_c, 1, 56, 119
3, 23160, Note_on_c, 1, 56, 0
3, 23160, Note_on_c, 1, 44, 0
3, 23400, Note_on_c, 1, 46, 87
3, 23400, Note_on_c, 1, 58, 87
3, 23760, Note_on_c, 1, 58, 0
3, 23760, Note_on_c, 1, 46, 0
3, 23760, Note_on_c, 1, 34, 101
3, 23760, Note_on_c, 1, 46, 101
3, 23880, Note_on_c, 1, 46, 0
3, 23880, Note_on_c, 1, 34, 0
3, 23880, Note_on_c, 1, 36, 103
3, 23880, Note_on_c, 1, 48, 103
3, 24000, Note_on_c, 1, 48, 0
3, 24000, Note_on_c, 1, 36, 0
3, 24000, Note_on_c, 1, 38, 103
3, 24000, Note_on_c, 1, 50, 103
3, 24120, Note_on_c, 1, 50, 0
3, 24120, Note_on_c, 1, 38, 0
3, 24120, Note_on_c, 1, 39, 103
3, 24120, Note_on_c, 1, 51, 103
3, 24240, Note_on_c, 1, 51, 0
3, 24240, Note_on_c, 1, 39, 0
3, 24240, Note_on_c, 1, 51, 103
3, 24240, Note_on_c, 1, 39, 103
3, 24360, Note_on_c, 1, 39, 0
3, 24360, Note_on_c, 1, 51, 0
3, 24360, Note_on_c, 1, 51, 118
3, 24360, Note_on_c, 1, 39, 118
3, 24480, Note_on_c, 1, 39, 0
3, 24480, Note_on_c, 1, 51, 0
3, 24480, Note_on_c, 1, 39, 100
3, 24480, Note_on_c, 1, 51, 118
3, 24600, Note_on_c, 1, 51, 0
3, 24600, Note_on_c, 1, 39, 0
3, 24900, Note_on_c, 1, 44, 82
3, 24960, Note_on_c, 1, 44, 0
3, 24960, Note_on_c, 1, 56, 82
3, 25020, Note_on_c, 1, 56, 0
3, 25020, Note_on_c, 1, 60, 83
3, 25080, Note_on_c, 1, 60, 0
3, 25260, Note_on_c, 1, 51, 84
3, 25320, Note_on_c, 1, 51, 0
3, 25320, Note_on_c, 1, 58, 84
3, 25380, Note_on_c, 1, 58, 0
3, 25620, Note_on_c, 1, 56, 82
3, 25680, Note_on_c, 1, 56, 0
3, 25680, Note_on_c, 1, 60, 81
3, 25740, Note_on_c, 1, 60, 0
3, 25920, Note_on_c, 1, 63, 78
3, 25920, Note_on_c, 1, 61, 78
3, 25920, Note_on_c, 1, 58, 78
3, 25920, Note_on_c, 1, 55, 78
3, 26280, Note_on_c, 1, 55, 0
3, 26280, Note_on_c, 1, 63, 0
3, 26280, Note_on_c, 1, 61, 0
3, 26280, Note_on_c, 1, 58, 0
3, 26280, Note_on_c, 1, 63, 75
3, 26280, Note_on_c, 1, 60, 75
3, 26280, Note_on_c, 1, 56, 75
3, 26400, Note_on_c, 1, 56, 0
3, 26400, Note_on_c, 1, 60, 0
3, 26400, Note_on_c, 1, 63, 0
3, 26400, Note_on_c, 1, 63, 73
3, 26400, Note_on_c, 1, 60, 73
3, 26400, Note_on_c, 1, 56, 73
3, 26520, Note_on_c, 1, 56, 0
3, 26520, Note_on_c, 1, 60, 0
3, 26520, Note_on_c, 1, 63, 0
3, 26520, Note_on_c, 1, 62, 73
3, 26520, Note_on_c, 1, 58, 73
3, 26520, Note_on_c, 1, 56, 73
3, 26520, Note_on_c, 1, 53, 73
3, 26640, Note_on_c, 1, 53, 0
3, 26640, Note_on_c, 1, 62, 0
3, 26640, Note_on_c, 1, 58, 0
3, 26640, Note_on_c, 1, 56, 0
3, 26640, Note_on_c, 1, 51, 73
3, 26640, Note_on_c, 1, 55, 73
3, 26640, Note_on_c, 1, 58, 73
3, 26640, Note_on_c, 1, 63, 73
3, 26880, Note_on_c, 1, 63, 0
3, 26880, Note_on_c, 1, 51, 0
3, 26880, Note_on_c, 1, 55, 0
3, 26880, Note_on_c, 1, 58, 0
3, 26880, Note_on_c, 1, 51, 73
3, 26940, Note_on_c, 1, 51, 0
3, 26940, Note_on_c, 1, 55, 73
3, 27000, Note_on_c, 1, 55, 0
3, 27000, Note_on_c, 1, 56, 74
3, 27060, Note_on_c, 1, 56, 0
3, 27240, Note_on_c, 1, 56, 75
3, 27300, Note_on_c, 1, 56, 0
3, 27300, Note_on_c, 1, 60, 75
3, 27360, Note_on_c, 1, 60, 0
3, 29220, Note_on_c, 1, 44, 82
3, 29280, Note_on_c, 1, 44, 0
3, 29280, Note_on_c, 1, 56, 82
3, 29340, Note_on_c, 1, 56, 0
3, 29340, Note_on_c, 1, 60, 83
3, 29400, Note_on_c, 1, 60, 0
3, 29580, Note_on_c, 1, 51, 84
3, 29640, Note_on_c, 1, 51, 0
3, 29640, Note_on_c, 1, 58, 84
3, 29700, Note_on_c, 1, 58, 0
3, 29940, Note_on_c, 1, 56, 82
3, 30000, Note_on_c, 1, 56, 0
3, 30000, Note_on_c, 1, 60, 81
3, 30060, Note_on_c, 1, 60, 0
3, 30240, Note_on_c, 1, 63, 78
3, 30240, Note_on_c, 1, 58, 78
3, 30240, Note_on_c, 1, 61, 78
3, 30240, Note_on_c, 1, 55, 78
3, 30600, Note_on_c, 1, 55, 0
3, 30600, Note_on_c, 1, 63, 0
3, 30600, Note_on_c, 1, 58, 0
3, 30600, Note_on_c, 1, 61, 0
3, 30600, Note_on_c, 1, 56, 75
3, 30600, Note_on_c, 1, 60, 75
3, 30600, Note_on_c, 1, 63, 75
3, 30720, Note_on_c, 1, 63, 0
3, 30720, Note_on_c, 1, 60, 0
3, 30720, Note_on_c, 1, 56, 0
3, 30720, Note_on_c, 1, 63, 73
3, 30720, Note_on_c, 1, 60, 73
3, 30720, Note_on_c, 1, 56, 73
3, 30840, Note_on_c, 1, 56, 0
3, 30840, Note_on_c, 1, 60, 0
3, 30840, Note_on_c, 1, 63, 0
3, 30840, Note_on_c, 1, 58, 73
3, 30840, Note_on_c, 1, 53, 73
3, 30840, Note_on_c, 1, 56, 73
3, 30840, Note_on_c, 1, 62, 73
3, 30960, Note_on_c, 1, 62, 0
3, 30960, Note_on_c, 1, 58, 0
3, 30960, Note_on_c, 1, 53, 0
3, 30960, Note_on_c, 1, 56, 0
3, 30960, Note_on_c, 1, 58, 73
3, 30960, Note_on_c, 1, 63, 73
3, 30960, Note_on_c, 1, 55, 73
3, 30960, Note_on_c, 1, 51, 73
3, 31200, Note_on_c, 1, 51, 0
3, 31200, Note_on_c, 1, 58, 0
3, 31200, Note_on_c, 1, 63, 0
3, 31200, Note_on_c, 1, 55, 0
3, 31200, Note_on_c, 1, 51, 73
3, 31260, Note_on_c, 1, 51, 0
3, 31260, Note_on_c, 1, 55, 73
3, 31320, Note_on_c, 1, 55, 0
3, 31320, Note_on_c, 1, 56, 74
3, 31380, Note_on_c, 1, 56, 0
3, 31560, Note_on_c, 1, 56, 75
3, 31620, Note_on_c, 1, 56, 0
3, 31620, Note_on_c, 1, 60, 75
3, 31680, Note_on_c, 1, 60, 0
3, 33360, Note_on_c, 1, 63, 100
3, 33360, Note_on_c, 1, 51, 100
3, 33480, Note_on_c, 1, 51, 0
3, 33480, Note_on_c, 1, 63, 0
3, 33480, Note_on_c, 1, 52, 100
3, 33480, Note_on_c, 1, 64, 100
3, 33660, Note_on_c, 1, 64, 0
3, 33660, Note_on_c, 1, 52, 0
3, 33660, Note_on_c, 1, 51, 100
3, 33660, Note_on_c, 1, 63, 100
3, 33720, Note_on_c, 1, 63, 0
3, 33720, Note_on_c, 1, 51, 0
3, 33720, Note_on_c, 1, 61, 100
3, 33720, Note_on_c, 1, 49, 100
3, 33780, Note_on_c, 1, 49, 0
3, 33780, Note_on_c, 1, 61, 0
3, 33780, Note_on_c, 1, 59, 100
3, 33780, Note_on_c, 1, 47, 100
3, 33840, Note_on_c, 1, 47, 0
3, 33840, Note_on_c, 1, 59, 0
3, 33840, Note_on_c, 1, 58, 100
3, 33840, Note_on_c, 1, 46, 100
3, 34080, Note_on_c, 1, 46, 0
3, 34080, Note_on_c, 1, 58, 0
3, 34080, Note_on_c, 1, 48, 100
3, 34080, Note_on_c, 1, 60, 100
3, 34140, Note_on_c, 1, 60, 0
3, 34140, Note_on_c, 1, 48, 0
3, 34140, Note_on_c, 1, 49, 100
3, 34140, Note_on_c, 1, 61, 100
3, 34200, Note_on_c, 1, 61, 0
3, 34200, Note_on_c, 1, 49, 0
3, 34200, Note_on_c, 1, 63, 100
3, 34200, Note_on_c, 1, 51, 100
3, 34380, Note_on_c, 1, 51, 0
3, 34380, Note_on_c, 1, 63, 0
3, 34380, Note_on_c, 1, 61, 100
3, 34380, Note_on_c, 1, 49, 100
3, 34440, Note_on_c, 1, 49, 0
3, 34440, Note_on_c, 1, 61, 0
3, 34440, Note_on_c, 1, 48, 100
3, 34440, Note_on_c, 1, 60, 100
3, 34500, Note_on_c, 1, 60, 0
3, 34500, Note_on_c, 1, 48, 0
3, 34500, Note_on_c, 1, 58, 100
3, 34500, Note_on_c, 1, 46, 100
3, 34560, Note_on_c, 1, 46, 0
3, 34560, Note_on_c, 1, 58, 0
3, 34560, Note_on_c, 1, 44, 100
3, 34560, Note_on_c, 1, 56, 100
3, 34620, Note_on_c, 1, 56, 0
3, 34620, Note_on_c, 1, 44, 0
3, 34620, Note_on_c, 1, 55, 100
3, 34620, Note_on_c, 1, 43, 100
3, 34680, Note_on_c, 1, 43, 0
3, 34680, Note_on_c, 1, 55, 0
3, 34680, Note_on_c, 1, 41, 100
3, 34680, Note_on_c, 1, 53, 100
3, 34740, Note_on_c, 1, 53, 0
3, 34740, Note_on_c, 1, 41, 0
3, 34740, Note_on_c, 1, 51, 100
3, 34740, Note_on_c, 1, 39, 100
3, 34800, Note_on_c, 1, 39, 0
3, 34800, Note_on_c, 1, 51, 0
3, 34800, Note_on_c, 1, 50, 100
3, 34800, Note_on_c, 1, 38, 100
3, 34860, Note_on_c, 1, 38, 0
3, 34860, Note_on_c, 1, 50, 0
3, 34860, Note_on_c, 1, 34, 100
3, 34860, Note_on_c, 1, 46, 100
3, 34920, Note_on_c, 1, 46, 0
3, 34920, Note_on_c, 1, 34, 0
3, 34920, Note_on_c, 1, 51, 100
3, 34920, Note_on_c, 1, 39, 100
3, 35040, Note_on_c, 1, 39, 0
3, 35040, Note_on_c, 1, 51, 0
3, 35160, Note_on_c, 1, 46, 67
3, 35220, Note_on_c, 1, 46, 0
3, 35220, Note_on_c, 1, 50, 62
3, 35280, Note_on_c, 1, 50, 0
3, 35280, Note_on_c, 1, 51, 59
3, 35400, Note_on_c, 1, 51, 0
3, 35520, Note_on_c, 1, 46, 65
3, 35580, Note_on_c, 1, 46, 0
3, 35580, Note_on_c, 1, 50, 63
3, 35640, Note_on_c, 1, 50, 0
3, 35640, Note_on_c, 1, 51, 61
3, 35760, Note_on_c, 1, 51, 0
3, 35880, Note_on_c, 1, 46, 71
3, 35940, Note_on_c, 1, 46, 0
3, 35940, Note_on_c, 1, 50, 68
3, 36000, Note_on_c, 1, 50, 0
3, 36000, Note_on_c, 1, 51, 66
3, 36120, Note_on_c, 1, 51, 0
3, 36420, Note_on_c, 1, 44, 71
3, 36480, Note_on_c, 1, 44, 0
3, 36480, Note_on_c, 1, 56, 69
3, 36540, Note_on_c, 1, 56, 0
3, 36540, Note_on_c, 1, 60, 67
3, 36600, Note_on_c, 1, 60, 0
3, 36780, Note_on_c, 1, 51, 64
3, 36840, Note_on_c, 1, 51, 0
3, 36840, Note_on_c, 1, 58, 62
3, 36900, Note_on_c, 1, 58, 0
3, 37140, Note_on_c, 1, 56, 62
3, 37200, Note_on_c, 1, 56, 0
3, 37200, Note_on_c, 1, 60, 60
3, 37260, Note_on_c, 1, 60, 0
3, 37440, Note_on_c, 1, 61, 68
3, 37440, Note_on_c, 1, 63, 68
3, 37440, Note_on_c, 1, 55, 68
3, 37440, Note_on_c, 1, 58, 68
3, 37800, Note_on_c, 1, 58, 0
3, 37800, Note_on_c, 1, 61, 0
3, 37800, Note_on_c, 1, 63, 0
3, 37800, Note_on_c, 1, 55, 0
3, 37800, Note_on_c, 1, 60, 70
3, 37800, Note_on_c, 1, 63, 70
3, 37800, Note_on_c, 1, 56, 70
3, 38160, Note_on_c, 1, 56, 0
3, 38160, Note_on_c, 1, 63, 0
3, 38160, Note_on_c, 1, 60, 0
3, 38160, Note_on_c, 1, 61, 71
3, 38160, Note_on_c, 1, 55, 71
3, 38160, Note_on_c, 1, 51, 71
3, 38160, Note_on_c, 1, 63, 71
3, 38280, Note_on_c, 1, 63, 0
3, 38280, Note_on_c, 1, 61, 0
3, 38280, Note_on_c, 1, 55, 0
3, 38280, Note_on_c, 1, 51, 0
3, 38280, Note_on_c, 1, 51, 71
3, 38280, Note_on_c, 1, 63, 71
3, 38280, Note_on_c, 1, 61, 71
3, 38280, Note_on_c, 1, 55, 71
3, 38400, Note_on_c, 1, 55, 0
3, 38400, Note_on_c, 1, 51, 0
3, 38400, Note_on_c, 1, 63, 0
3, 38400, Note_on_c, 1, 61, 0
3, 38400, Note_on_c, 1, 61, 71
3, 38400, Note_on_c, 1, 51, 71
3, 38400, Note_on_c, 1, 55, 71
3, 38400, Note_on_c, 1, 63, 71
3, 38520, Note_on_c, 1, 63, 0
3, 38520, Note_on_c, 1, 61, 0
3, 38520, Note_on_c, 1, 51, 0
3, 38520, Note_on_c, 1, 55, 0
3, 38520, Note_on_c, 1, 60, 73
3, 38520, Note_on_c, 1, 63, 73
3, 38520, Note_on_c, 1, 56, 73
3, 38640, Note_on_c, 1, 56, 0
3, 38640, Note_on_c, 1, 63, 0
3, 38640, Note_on_c, 1, 60, 0
3, 38760, Note_on_c, 1, 63, 100
3, 38760, Note_on_c, 1, 51, 100
3, 38880, Note_on_c, 1, 51, 0
3, 38880, Note_on_c, 1, 63, 0
3, 38880, Note_on_c, 1, 52, 100
3, 38880, Note_on_c, 1, 64, 100
3, 39060, Note_on_c, 1, 64, 0
3, 39060, Note_on_c, 1, 52, 0
3, 39060, Note_on_c, 1, 51, 100
3, 39060, Note_on_c, 1, 63, 100
3, 39120, Note_on_c, 1, 63, 0
3, 39120, Note_on_c, 1, 51, 0
3, 39120, Note_on_c, 1, 61, 100
3, 39120, Note_on_c, 1, 49, 100
3, 39180, Note_on_c, 1, 49, 0
3, 39180, Note_on_c, 1, 61, 0
3, 39180, Note_on_c, 1, 59, 100
3, 39180, Note_on_c, 1, 47, 100
3, 39240, Note_on_c, 1, 47, 0
3, 39240, Note_on_c, 1, 59, 0
3, 39240, Note_on_c, 1, 58, 100
3, 39240, Note_on_c, 1, 46, 100
3, 39480, Note_on_c, 1, 46, 0
3, 39480, Note_on_c, 1, 58, 0
3, 39480, Note_on_c, 1, 48, 100
3, 39480, Note_on_c, 1, 60, 100
3, 39540, Note_on_c, 1, 60, 0
3, 39540, Note_on_c, 1, 48, 0
3, 39540, Note_on_c, 1, 49, 100
3, 39540, Note_on_c, 1, 61, 100
3, 39600, Note_on_c, 1, 61, 0
3, 39600, Note_on_c, 1, 49, 0
3, 39600, Note_on_c, 1, 63, 100
3, 39600, Note_on_c, 1, 51, 100
3, 39780, Note_on_c, 1, 51, 0
3, 39780, Note_on_c, 1, 63, 0
3, 39780, Note_on_c, 1, 61, 100
3, 39780, Note_on_c, 1, 49, 100
3, 39840, Note_on_c, 1, 49, 0
3, 39840, Note_on_c, 1, 61, 0
3, 39840, Note_on_c, 1, 48, 100
3, 39840, Note_on_c, 1, 60, 100
3, 39900, Note_on_c, 1, 60, 0
3, 39900, Note_on_c, 1, 48, 0
3, 39900, Note_on_c, 1, 58, 100
3, 39900, Note_on_c, 1, 46, 100
3, 39960, Note_on_c, 1, 46, 0
3, 39960, Note_on_c, 1, 58, 0
3, 39960, Note_on_c, 1, 44, 100
3, 39960, Note_on_c, 1, 56, 100
3, 40020, Note_on_c, 1, 56, 0
3, 40020, Note_on_c, 1, 44, 0
3, 40020, Note_on_c, 1, 55, 100
3, 40020, Note_on_c, 1, 43, 100
3, 40080, Note_on_c, 1, 43, 0
3, 40080, Note_on_c, 1, 55, 0
3, 40080, Note_on_c, 1, 41, 100
3, 40080, Note_on_c, 1, 53, 100
3, 40140, Note_on_c, 1, 53, 0
3, 40140, Note_on_c, 1, 41, 0
3, 40140, Note_on_c, 1, 51, 100
3, 40140, Note_on_c, 1, 39, 100
3, 40200, Note_on_c, 1, 39, 0
3, 40200, Note_on_c, 1, 51, 0
3, 40200, Note_on_c, 1, 50, 100
3, 40200, Note_on_c, 1, 38, 100
3, 40260, Note_on_c, 1, 38, 0
3, 40260, Note_on_c, 1, 50, 0
3, 40260, Note_on_c, 1, 34, 100
3, 40260, Note_on_c, 1, 46, 100
3, 40320, Note_on_c, 1, 46, 0
3, 40320, Note_on_c, 1, 34, 0
3, 40320, Note_on_c, 1, 51, 100
3, 40320, Note_on_c, 1, 39, 100
3, 40440, Note_on_c, 1, 39, 0
3, 40440, Note_on_c, 1, 51, 0
3, 40560, Note_on_c, 1, 46, 67
3, 40620, Note_on_c, 1, 46, 0
3, 40620, Note_on_c, 1, 50, 62
3, 40680, Note_on_c, 1, 50, 0
3, 40680, Note_on_c, 1, 51, 59
3, 40800, Note_on_c, 1, 51, 0
3, 40920, Note_on_c, 1, 46, 65
3, 40980, Note_on_c, 1, 46, 0
3, 40980, Note_on_c, 1, 50, 63
3, 41040, Note_on_c, 1, 50, 0
3, 41040, Note_on_c, 1, 51, 61
3, 41160, Note_on_c, 1, 51, 0
3, 41280, Note_on_c, 1, 46, 71
3, 41340, Note_on_c, 1, 46, 0
3, 41340, Note_on_c, 1, 50, 68
3, 41400, Note_on_c, 1, 50, 0
3, 41400, Note_on_c, 1, 51, 66
3, 41520, Note_on_c, 1, 51, 0
3, 41820, Note_on_c, 1, 44, 71
3, 41880, Note_on_c, 1, 44, 0
3, 41880, Note_on_c, 1, 56, 69
3, 41940, Note_on_c, 1, 56, 0
3, 41940, Note_on_c, 1, 60, 67
3, 42000, Note_on_c, 1, 60, 0
3, 42180, Note_on_c, 1, 51, 64
3, 42240, Note_on_c, 1, 51, 0
3, 42240, Note_on_c, 1, 58, 62
3, 42300, Note_on_c, 1, 58, 0
3, 42540, Note_on_c, 1, 56, 62
3, 42600, Note_on_c, 1, 56, 0
3, 42600, Note_on_c, 1, 60, 60
3, 42660, Note_on_c, 1, 60, 0
3, 42840, Note_on_c, 1, 61, 68
3, 42840, Note_on_c, 1, 63, 68
3, 42840, Note_on_c, 1, 55, 68
3, 42840, Note_on_c, 1, 58, 68
3, 43200, Note_on_c, 1, 58, 0
3, 43200, Note_on_c, 1, 61, 0
3, 43200, Note_on_c, 1, 63, 0
3, 43200, Note_on_c, 1, 55, 0
3, 43200, Note_on_c, 1, 60, 70
3, 43200, Note_on_c, 1, 63, 70
3, 43200, Note_on_c, 1, 56, 70
3, 43560, Note_on_c, 1, 56, 0
3, 43560, Note_on_c, 1, 63, 0
3, 43560, Note_on_c, 1, 60, 0
3, 43560, Note_on_c, 1, 61, 71
3, 43560, Note_on_c, 1, 55, 71
3, 43560, Note_on_c, 1, 51, 71
3, 43560, Note_on_c, 1, 63, 71
3, 43680, Note_on_c, 1, 63, 0
3, 43680, Note_on_c, 1, 61, 0
3, 43680, Note_on_c, 1, 55, 0
3, 43680, Note_on_c, 1, 51, 0
3, 43680, Note_on_c, 1, 51, 71
3, 43680, Note_on_c, 1, 63, 71
3, 43680, Note_on_c, 1, 61, 71
3, 43680, Note_on_c, 1, 55, 71
3, 43800, Note_on_c, 1, 55, 0
3, 43800, Note_on_c, 1, 51, 0
3, 43800, Note_on_c, 1, 63, 0
3, 43800, Note_on_c, 1, 61, 0
3, 43800, Note_on_c, 1, 61, 71
3, 43800, Note_on_c, 1, 51, 71
3, 43800, Note_on_c, 1, 55, 71
3, 43800, Note_on_c, 1, 63, 71
3, 43920, Note_on_c, 1, 63, 0
3, 43920, Note_on_c, 1, 61, 0
3, 43920, Note_on_c, 1, 51, 0
3, 43920, Note_on_c, 1, 55, 0
3, 43920, Note_on_c, 1, 60, 73
3, 43920, Note_on_c, 1, 63, 73
3, 43920, Note_on_c, 1, 56, 73
3, 44040, Note_on_c, 1, 56, 0
3, 44040, Note_on_c, 1, 63, 0
3, 44040, Note_on_c, 1, 60, 0
3, 44280, Note_on_c, 1, 39, 67
3, 44280, Note_on_c, 1, 51, 67
3, 44640, Note_on_c, 1, 51, 0
3, 44640, Note_on_c, 1, 39, 0
3, 44640, Note_on_c, 1, 39, 69
3, 44640, Note_on_c, 1, 51, 69
3, 44760, Note_on_c, 1, 51, 0
3, 44760, Note_on_c, 1, 39, 0
3, 44760, Note_on_c, 1, 41, 72
3, 44760, Note_on_c, 1, 53, 72
3, 44880, Note_on_c, 1, 53, 0
3, 44880, Note_on_c, 1, 41, 0
3, 44880, Note_on_c, 1, 43, 73
3, 44880, Note_on_c, 1, 55, 73
3, 45000, Note_on_c, 1, 55, 0
3, 45000, Note_on_c, 1, 43, 0
3, 45000, Note_on_c, 1, 44, 74
3, 45000, Note_on_c, 1, 56, 74
3, 45120, Note_on_c, 1, 56, 0
3, 45120, Note_on_c, 1, 44, 0
3, 45120, Note_on_c, 1, 56, 74
3, 45120, Note_on_c, 1, 44, 74
3, 45240, Note_on_c, 1, 44, 0
3, 45240, Note_on_c, 1, 56, 0
3, 45240, Note_on_c, 1, 56, 74
3, 45240, Note_on_c, 1, 44, 74
3, 45360, Note_on_c, 1, 44, 0
3, 45360, Note_on_c, 1, 56, 0
3, 45360, Note_on_c, 1, 44, 100
3, 45360, Note_on_c, 1, 56, 100
3, 45480, Note_on_c, 1, 56, 0
3, 45480, Note_on_c, 1, 44, 0
3, 45720, Note_on_c, 1, 46, 74
3, 45720, Note_on_c, 1, 58, 74
3, 46080, Note_on_c, 1, 58, 0
3, 46080, Note_on_c, 1, 46, 0
3, 46080, Note_on_c, 1, 34, 72
3, 46080, Note_on_c, 1, 46, 72
3, 46200, Note_on_c, 1, 46, 0
3, 46200, Note_on_c, 1, 34, 0
3, 46200, Note_on_c, 1, 36, 72
3, 46200, Note_on_c, 1, 48, 72
3, 46320, Note_on_c, 1, 48, 0
3, 46320, Note_on_c, 1, 36, 0
3, 46320, Note_on_c, 1, 38, 72
3, 46320, Note_on_c, 1, 50, 72
3, 46440, Note_on_c, 1, 50, 0
3, 46440, Note_on_c, 1, 38, 0
3, 46440, Note_on_c, 1, 39, 70
3, 46440, Note_on_c, 1, 51, 70
3, 46560, Note_on_c, 1, 51, 0
3, 46560, Note_on_c, 1, 39, 0
3, 46560, Note_on_c, 1, 51, 70
3, 46560, Note_on_c, 1, 39, 70
3, 46680, Note_on_c, 1, 39, 0
3, 46680, Note_on_c, 1, 51, 0
3, 46680, Note_on_c, 1, 51, 70
3, 46680, Note_on_c, 1, 39, 70
3, 46800, Note_on_c, 1, 39, 0
3, 46800, Note_on_c, 1, 51, 0
3, 46800, Note_on_c, 1, 39, 100
3, 46800, Note_on_c, 1, 51, 100
3, 46920, Note_on_c, 1, 51, 0
3, 46920, Note_on_c, 1, 39, 0
3, 47160, Note_on_c, 1, 39, 100
3, 47160, Note_on_c, 1, 51, 100
3, 47640, Note_on_c, 1, 51, 0
3, 47640, Note_on_c, 1, 39, 0
3, 47640, Note_on_c, 1, 39, 100
3, 47640, Note_on_c, 1, 51, 100
3, 47760, Note_on_c, 1, 51, 0
3, 47760, Note_on_c, 1, 39, 0
3, 47760, Note_on_c, 1, 50, 89
3, 47760, Note_on_c, 1, 38, 89
3, 47880, Note_on_c, 1, 38, 0
3, 47880, Note_on_c, 1, 50, 0
3, 47880, Note_on_c, 1, 36, 85
3, 47880, Note_on_c, 1, 48, 85
3, 48000, Note_on_c, 1, 48, 0
3, 48000, Note_on_c, 1, 36, 0
3, 48000, Note_on_c, 1, 53, 83
3, 48000, Note_on_c, 1, 41, 83
3, 48120, Note_on_c, 1, 41, 0
3, 48120, Note_on_c, 1, 53, 0
3, 48120, Note_on_c, 1, 34, 80
3, 48120, Note_on_c, 1, 46, 80
3, 48240, Note_on_c, 1, 46, 0
3, 48240, Note_on_c, 1, 34, 0
3, 48240, Note_on_c, 1, 39, 77
3, 48240, Note_on_c, 1, 51, 77
3, 48360, Note_on_c, 1, 51, 0
3, 48360, Note_on_c, 1, 39, 0
3, 48600, Note_on_c, 1, 51, 67
3, 48600, Note_on_c, 1, 63, 67
3, 48840, Note_on_c, 1, 63, 0
3, 48840, Note_on_c, 1, 51, 0
3, 48840, Note_on_c, 1, 50, 66
3, 48840, Note_on_c, 1, 62, 66
3, 48960, Note_on_c, 1, 62, 0
3, 48960, Note_on_c, 1, 50, 0
3, 49200, Note_on_c, 1, 46, 70
3, 49200, Note_on_c, 1, 58, 70
3, 49320, Note_on_c, 1, 58, 0
3, 49320, Note_on_c, 1, 46, 0
3, 49320, Note_on_c, 1, 51, 71
3, 49440, Note_on_c, 1, 51, 0
3, 49440, Note_on_c, 1, 53, 71
3, 49560, Note_on_c, 1, 53, 0
3, 49560, Note_on_c, 1, 41, 72
3, 49680, Note_on_c, 1, 41, 0
3, 49680, Note_on_c, 1, 46, 73
3, 49680, Note_on_c, 1, 58, 73
3, 49800, Note_on_c, 1, 58, 0
3, 49800, Note_on_c, 1, 46, 0
3, 50045, Note_on_c, 1, 39, 67
3, 50045, Note_on_c, 1, 51, 67
3, 50405, Note_on_c, 1, 51, 0
3, 50405, Note_on_c, 1, 39, 0
3, 50405, Note_on_c, 1, 39, 69
3, 50405, Note_on_c, 1, 51, 69
3, 50525, Note_on_c, 1, 51, 0
3, 50525, Note_on_c, 1, 39, 0
3, 50525, Note_on_c, 1, 41, 72
3, 50525, Note_on_c, 1, 53, 72
3, 50645, Note_on_c, 1, 53, 0
3, 50645, Note_on_c, 1, 41, 0
3, 50645, Note_on_c, 1, 43, 73
3, 50645, Note_on_c, 1, 55, 73
3, 50765, Note_on_c, 1, 55, 0
3, 50765, Note_on_c, 1, 43, 0
3, 50765, Note_on_c, 1, 44, 74
3, 50765, Note_on_c, 1, 56, 74
3, 50885, Note_on_c, 1, 56, 0
3, 50885, Note_on_c, 1, 44, 0
3, 50885, Note_on_c, 1, 56, 74
3, 50885, Note_on_c, 1, 44, 74
3, 51005, Note_on_c, 1, 44, 0
3, 51005, Note_on_c, 1, 56, 0
3, 51005, Note_on_c, 1, 56, 74
3, 51005, Note_on_c, 1, 44, 74
3, 51125, Note_on_c, 1, 44, 0
3, 51125, Note_on_c, 1, 56, 0
3, 51125, Note_on_c, 1, 44, 100
3, 51125, Note_on_c, 1, 56, 100
3, 51245, Note_on_c, 1, 56, 0
3, 51245, Note_on_c, 1, 44, 0
3, 51485, Note_on_c, 1, 46, 74
3, 51485, Note_on_c, 1, 58, 74
3, 51845, Note_on_c, 1, 58, 0
3, 51845, Note_on_c, 1, 46, 0
3, 51845, Note_on_c, 1, 34, 72
3, 51845, Note_on_c, 1, 46, 72
3, 51965, Note_on_c, 1, 46, 0
3, 51965, Note_on_c, 1, 34, 0
3, 51965, Note_on_c, 1, 36, 72
3, 51965, Note_on_c, 1, 48, 72
3, 52085, Note_on_c, 1, 48, 0
3, 52085, Note_on_c, 1, 36, 0
3, 52085, Note_on_c, 1, 38, 72
3, 52085, Note_on_c, 1, 50, 72
3, 52205, Note_on_c, 1, 50, 0
3, 52205, Note_on_c, 1, 38, 0
3, 52205, Note_on_c, 1, 39, 70
3, 52205, Note_on_c, 1, 51, 70
3, 52325, Note_on_c, 1, 51, 0
3, 52325, Note_on_c, 1, 39, 0
3, 52325, Note_on_c, 1, 51, 70
3, 52325, Note_on_c, 1, 39, 70
3, 52445, Note_on_c, 1, 39, 0
3, 52445, Note_on_c, 1, 51, 0
3, 52445, Note_on_c, 1, 51, 70
3, 52445, Note_on_c, 1, 39, 70
3, 52565, Note_on_c, 1, 39, 0
3, 52565, Note_on_c, 1, 51, 0
3, 52565, Note_on_c, 1, 39, 100
3, 52565, Note_on_c, 1, 51, 100
3, 52685, Note_on_c, 1, 51, 0
3, 52685, Note_on_c, 1, 39, 0
3, 52925, Note_on_c, 1, 39, 100
3, 52925, Note_on_c, 1, 51, 100
3, 53405, Note_on_c, 1, 51, 0
3, 53405, Note_on_c, 1, 39, 0
3, 53405, Note_on_c, 1, 39, 100
3, 53405, Note_on_c, 1, 51, 100
3, 53525, Note_on_c, 1, 51, 0
3, 53525, Note_on_c, 1, 39, 0
3, 53525, Note_on_c, 1, 50, 89
3, 53525, Note_on_c, 1, 38, 89
3, 53645, Note_on_c, 1, 38, 0
3, 53645, Note_on_c, 1, 50, 0
3, 53645, Note_on_c, 1, 36, 85
3, 53645, Note_on_c, 1, 48, 85
3, 53765, Note_on_c, 1, 48, 0
3, 53765, Note_on_c, 1, 36, 0
3, 53765, Note_on_c, 1, 53, 83
3, 53765, Note_on_c, 1, 41, 83
3, 53885, Note_on_c, 1, 41, 0
3, 53885, Note_on_c, 1, 53, 0
3, 53885, Note_on_c, 1, 34, 80
3, 53885, Note_on_c, 1, 46, 80
3, 54005, Note_on_c, 1, 46, 0
3, 54005, Note_on_c, 1, 34, 0
3, 54005, Note_on_c, 1, 39, 77
3, 54005, Note_on_c, 1, 51, 77
3, 54125, Note_on_c, 1, 51, 0
3, 54125, Note_on_c, 1, 39, 0
3, 54365, Note_on_c, 1, 51, 67
3, 54365, Note_on_c, 1, 63, 67
3, 54605, Note_on_c, 1, 63, 0
3, 54605, Note_on_c, 1, 51, 0
3, 54605, Note_on_c, 1, 50, 66
3, 54605, Note_on_c, 1, 62, 66
3, 54725, Note_on_c, 1, 62, 0
3, 54725, Note_on_c, 1, 50, 0
3, 54965, Note_on_c, 1, 46, 70
3, 54965, Note_on_c, 1, 58, 70
3, 55085, Note_on_c, 1, 58, 0
3, 55085, Note_on_c, 1, 46, 0
3, 55085, Note_on_c, 1, 51, 71
3, 55205, Note_on_c, 1, 51, 0
3, 55205, Note_on_c, 1, 53, 71
3, 55325, Note_on_c, 1, 53, 0
3, 55325, Note_on_c, 1, 41, 72
3, 55445, Note_on_c, 1, 41, 0
3, 55445, Note_on_c, 1, 46, 73
3, 55445, Note_on_c, 1, 58, 73
3, 55565, Note_on_c, 1, 58, 0
3, 55565, Note_on_c, 1, 46, 0
3, 55800, Note_on_c, 1, 48, 100
3, 55800, Note_on_c, 1, 46, 100
3, 56040, Note_on_c, 1, 48, 0
3, 56040, Note_on_c, 1, 51, 100
3, 56160, Note_on_c, 1, 51, 0
3, 56160, Note_on_c, 1, 46, 0
3, 56160, Note_on_c, 1, 51, 100
3, 56160, Note_on_c, 1, 46, 100
3, 56400, Note_on_c, 1, 51, 0
3, 56400, Note_on_c, 1, 50, 100
3, 56520, Note_on_c, 1, 50, 0
3, 56520, Note_on_c, 1, 46, 0
3, 56520, Note_on_c, 1, 58, 100
3, 56520, Note_on_c, 1, 46, 100
3, 56760, Note_on_c, 1, 46, 0
3, 56760, Note_on_c, 1, 58, 0
3, 56760, Note_on_c, 1, 48, 100
3, 56880, Note_on_c, 1, 48, 0
3, 56880, Note_on_c, 1, 46, 100
3, 56880, Note_on_c, 1, 58, 100
3, 57120, Note_on_c, 1, 58, 0
3, 57120, Note_on_c, 1, 46, 0
3, 58560, Note_on_c, 1, 57, 88
3, 58560, Note_on_c, 1, 67, 88
3, 58620, Note_on_c, 1, 67, 0
3, 58620, Note_on_c, 1, 63, 86
3, 58680, Note_on_c, 1, 63, 0
3, 58680, Note_on_c, 1, 57, 0
3, 58680, Note_on_c, 1, 63, 84
3, 58740, Note_on_c, 1, 63, 0
3, 58740, Note_on_c, 1, 62, 82
3, 58800, Note_on_c, 1, 62, 0
3, 58800, Note_on_c, 1, 60, 80
3, 58860, Note_on_c, 1, 60, 0
3, 58860, Note_on_c, 1, 58, 78
3, 58920, Note_on_c, 1, 58, 0
3, 58920, Note_on_c, 1, 57, 77
3, 58980, Note_on_c, 1, 57, 0
3, 58980, Note_on_c, 1, 58, 76
3, 59040, Note_on_c, 1, 58, 0
3, 59040, Note_on_c, 1, 57, 73
3, 59100, Note_on_c, 1, 57, 0
3, 59100, Note_on_c, 1, 58, 70
3, 59160, Note_on_c, 1, 58, 0
3, 59160, Note_on_c, 1, 60, 67
3, 59220, Note_on_c, 1, 60, 0
3, 59220, Note_on_c, 1, 58, 66
3, 59280, Note_on_c, 1, 58, 0
3, 59280, Note_on_c, 1, 56, 64
3, 59340, Note_on_c, 1, 56, 0
3, 59340, Note_on_c, 1, 53, 62
3, 59400, Note_on_c, 1, 53, 0
3, 59400, Note_on_c, 1, 51, 61
3, 59760, Note_on_c, 1, 51, 0
3, 59760, Note_on_c, 1, 39, 79
3, 59760, Note_on_c, 1, 51, 79
3, 59880, Note_on_c, 1, 51, 0
3, 59880, Note_on_c, 1, 39, 0
3, 59880, Note_on_c, 1, 41, 85
3, 59880, Note_on_c, 1, 53, 85
3, 60000, Note_on_c, 1, 53, 0
3, 60000, Note_on_c, 1, 41, 0
3, 60000, Note_on_c, 1, 43, 91
3, 60000, Note_on_c, 1, 55, 91
3, 60120, Note_on_c, 1, 55, 0
3, 60120, Note_on_c, 1, 43, 0
3, 60120, Note_on_c, 1, 44, 100
3, 60120, Note_on_c, 1, 56, 100
3, 60240, Note_on_c, 1, 56, 0
3, 60240, Note_on_c, 1, 44, 0
3, 60240, Note_on_c, 1, 56, 107
3, 60240, Note_on_c, 1, 44, 107
3, 60360, Note_on_c, 1, 44, 0
3, 60360, Note_on_c, 1, 56, 0
3, 60360, Note_on_c, 1, 56, 115
3, 60360, Note_on_c, 1, 44, 115
3, 60480, Note_on_c, 1, 44, 0
3, 60480, Note_on_c, 1, 56, 0
3, 60480, Note_on_c, 1, 44, 119
3, 60480, Note_on_c, 1, 56, 119
3, 60600, Note_on_c, 1, 56, 0
3, 60600, Note_on_c, 1, 44, 0
3, 60840, Note_on_c, 1, 46, 87
3, 60840, Note_on_c, 1, 58, 87
3, 61200, Note_on_c, 1, 58, 0
3, 61200, Note_on_c, 1, 46, 0
3, 61200, Note_on_c, 1, 34, 101
3, 61200, Note_on_c, 1, 46, 101
3, 61320, Note_on_c, 1, 46, 0
3, 61320, Note_on_c, 1, 34, 0
3, 61320, Note_on_c, 1, 36, 103
3, 61320, Note_on_c, 1, 48, 103
3, 61440, Note_on_c, 1, 48, 0
3, 61440, Note_on_c, 1, 36, 0
3, 61440, Note_on_c, 1, 38, 103
3, 61440, Note_on_c, 1, 50, 103
3, 61560, Note_on_c, 1, 50, 0
3, 61560, Note_on_c, 1, 38, 0
3, 61560, Note_on_c, 1, 39, 103
3, 61560, Note_on_c, 1, 51, 103
3, 61680, Note_on_c, 1, 51, 0
3, 61680, Note_on_c, 1, 39, 0
3, 61680, Note_on_c, 1, 51, 103
3, 61680, Note_on_c, 1, 39, 103
3, 61800, Note_on_c, 1, 39, 0
3, 61800, Note_on_c, 1, 51, 0
3, 61800, Note_on_c, 1, 51, 118
3, 61800, Note_on_c, 1, 39, 118
3, 61920, Note_on_c, 1, 39, 0
3, 61920, Note_on_c, 1, 51, 0
3, 61920, Note_on_c, 1, 39, 118
3, 61920, Note_on_c, 1, 51, 118
3, 62040, Note_on_c, 1, 51, 0
3, 62040, Note_on_c, 1, 39, 0
3, 62280, Note_on_c, 1, 48, 100
3, 62280, Note_on_c, 1, 46, 100
3, 62520, Note_on_c, 1, 48, 0
3, 62520, Note_on_c, 1, 51, 100
3, 62640, Note_on_c, 1, 51, 0
3, 62640, Note_on_c, 1, 46, 0
3, 62640, Note_on_c, 1, 51, 100
3, 62640, Note_on_c, 1, 46, 100
3, 62880, Note_on_c, 1, 51, 0
3, 62880, Note_on_c, 1, 50, 100
3, 63000, Note_on_c, 1, 50, 0
3, 63000, Note_on_c, 1, 46, 0
3, 63000, Note_on_c, 1, 58, 100
3, 63000, Note_on_c, 1, 46, 100
3, 63240, Note_on_c, 1, 46, 0
3, 63240, Note_on_c, 1, 58, 0
3, 63240, Note_on_c, 1, 48, 100
3, 63360, Note_on_c, 1, 48, 0
3, 63360, Note_on_c, 1, 46, 100
3, 63360, Note_on_c, 1, 58, 100
3, 63600, Note_on_c, 1, 58, 0
3, 63600, Note_on_c, 1, 46, 0
3, 65040, Note_on_c, 1, 57, 88
3, 65040, Note_on_c, 1, 67, 88
3, 65100, Note_on_c, 1, 67, 0
3, 65100, Note_on_c, 1, 63, 86
3, 65160, Note_on_c, 1, 63, 0
3, 65160, Note_on_c, 1, 57, 0
3, 65160, Note_on_c, 1, 63, 84
3, 65220, Note_on_c, 1, 63, 0
3, 65220, Note_on_c, 1, 62, 82
3, 65280, Note_on_c, 1, 62, 0
3, 65280, Note_on_c, 1, 60, 80
3, 65340, Note_on_c, 1, 60, 0
3, 65340, Note_on_c, 1, 58, 78
3, 65400, Note_on_c, 1, 58, 0
3, 65400, Note_on_c, 1, 57, 77
3, 65460, Note_on_c, 1, 57, 0
3, 65460, Note_on_c, 1, 58, 76
3, 65520, Note_on_c, 1, 58, 0
3, 65520, Note_on_c, 1, 57, 73
3, 65580, Note_on_c, 1, 57, 0
3, 65580, Note_on_c, 1, 58, 70
3, 65640, Note_on_c, 1, 58, 0
3, 65640, Note_on_c, 1, 60, 67
3, 65700, Note_on_c, 1, 60, 0
3, 65700, Note_on_c, 1, 58, 66
3, 65760, Note_on_c, 1, 58, 0
3, 65760, Note_on_c, 1, 56, 64
3, 65820, Note_on_c, 1, 56, 0
3, 65820, Note_on_c, 1, 53, 62
3, 65880, Note_on_c, 1, 53, 0
3, 65880, Note_on_c, 1, 51, 61
3, 66240, Note_on_c, 1, 51, 0
3, 66240, Note_on_c, 1, 39, 79
3, 66240, Note_on_c, 1, 51, 79
3, 66360, Note_on_c, 1, 51, 0
3, 66360, Note_on_c, 1, 39, 0
3, 66360, Note_on_c, 1, 41, 85
3, 66360, Note_on_c, 1, 53, 85
3, 66480, Note_on_c, 1, 53, 0
3, 66480, Note_on_c, 1, 41, 0
3, 66480, Note_on_c, 1, 43, 91
3, 66480, Note_on_c, 1, 55, 91
3, 66600, Note_on_c, 1, 55, 0
3, 66600, Note_on_c, 1, 43, 0
3, 66600, Note_on_c, 1, 44, 100
3, 66600, Note_on_c, 1, 56, 100
3, 66720, Note_on_c, 1, 56, 0
3, 66720, Note_on_c, 1, 44, 0
3, 66720, Note_on_c, 1, 56, 107
3, 66720, Note_on_c, 1, 44, 107
3, 66840, Note_on_c, 1, 44, 0
3, 66840, Note_on_c, 1, 56, 0
3, 66840, Note_on_c, 1, 56, 115
3, 66840, Note_on_c, 1, 44, 115
3, 66960, Note_on_c, 1, 44, 0
3, 66960, Note_on_c, 1, 56, 0
3, 66960, Note_on_c, 1, 44, 119
3, 66960, Note_on_c, 1, 56, 119
3, 67080, Note_on_c, 1, 56, 0
3, 67080, Note_on_c, 1, 44, 0
3, 67320, Note_on_c, 1, 46, 87
3, 67320, Note_on_c, 1, 58, 87
3, 67680, Note_on_c, 1, 58, 0
3, 67680, Note_on_c, 1, 46, 0
3, 67680, Note_on_c, 1, 34, 101
3, 67680, Note_on_c, 1, 46, 101
3, 67800, Note_on_c, 1, 46, 0
3, 67800, Note_on_c, 1, 34, 0
3, 67800, Note_on_c, 1, 36, 103
3, 67800, Note_on_c, 1, 48, 103
3, 67920, Note_on_c, 1, 48, 0
3, 67920, Note_on_c, 1, 36, 0
3, 67920, Note_on_c, 1, 38, 103
3, 67920, Note_on_c, 1, 50, 103
3, 68040, Note_on_c, 1, 50, 0
3, 68040, Note_on_c, 1, 38, 0
3, 68040, Note_on_c, 1, 39, 103
3, 68040, Note_on_c, 1, 51, 103
3, 68160, Note_on_c, 1, 51, 0
3, 68160, Note_on_c, 1, 39, 0
3, 68160, Note_on_c, 1, 51, 103
3, 68160, Note_on_c, 1, 39, 103
3, 68280, Note_on_c, 1, 39, 0
3, 68280, Note_on_c, 1, 51, 0
3, 68280, Note_on_c, 1, 51, 118
3, 68280, Note_on_c, 1, 39, 118
3, 68400, Note_on_c, 1, 39, 0
3, 68400, Note_on_c, 1, 51, 0
3, 68400, Note_on_c, 1, 51, 118
3, 68400, Note_on_c, 1, 39, 118
3, 68520, Note_on_c, 1, 39, 0
3, 68520, Note_on_c, 1, 51, 0
3, 68520, End_track
4, 0, Start_track
4, 0, End_track
5, 0, Start_track
5, 0, End_track
0, 0, End_of_file