0, 0, Header, 1, 4, 120
1, 0, Start_track
1, 0, Title_t, "Bagatelle WoO 52"
1, 0, Copyright_t, "Copyright \251 2001 fiorellaearmando@panet.it"
1, 0, Text_t, "ARMANDO ORLANDI\012"
1, 0, Time_signature, 3, 2, 24, 8
1, 0, Key_signature, -3, "major"
1, 0, Tempo, 252101
1, 11520, Tempo, 263158
1, 63360, Key_signature, 0, "major"
1, 63465, Tempo, 289855
1, 63700, Tempo, 288462
1, 95760, Key_signature, -3, "major"
1, 95760, Tempo, 252101
1, 107280, Tempo, 263158
1, 159120, Key_signature, 0, "major"
1, 159225, Tempo, 289855
1, 159225, End_track
2, 0, Start_track
2, 0, Title_t, "Piano R"
2, 0, Program_c, 0, 0
2, 0, Control_c, 0, 7, 127
2, 0, Control_c, 0, 10, 44
2, 0, Control_c, 0, 93, 21
2, 0, Control_c, 0, 91, 21
2, 960, Note_on_c, 0, 72, 84
2, 1080, Note_on_c, 0, 72, 0
2, 1080, Note_on_c, 0, 72, 88
2, 1185, Note_on_c, 0, 74, 90
2, 1200, Note_on_c, 0, 74, 0
2, 1200, Note_on_c, 0, 72, 0
2, 1200, Note_on_c, 0, 72, 91
2, 1260, Note_on_c, 0, 72, 0
2, 1260, Note_on_c, 0, 71, 91
2, 1320, Note_on_c, 0, 71, 0
2, 1320, Note_on_c, 0, 72, 91
2, 1440, Note_on_c, 0, 72, 0
2, 1440, Note_on_c, 0, 75, 89
2, 1440, Note_on_c, 0, 71, 89
2, 1500, Note_on_c, 0, 75, 0
2, 1500, Note_on_c, 0, 74, 87
2, 1560, Note_on_c, 0, 74, 0
2, 1560, Note_on_c, 0, 71, 0
2, 1560, Note_on_c, 0, 72, 84
2, 1680, Note_on_c, 0, 72, 0
2, 2400, Note_on_c, 0, 77, 71
2, 2520, Note_on_c, 0, 77, 0
2, 2520, Note_on_c, 0, 77, 71
2, 2625, Note_on_c, 0, 79, 71
2, 2640, Note_on_c, 0, 79, 0
2, 2640, Note_on_c, 0, 77, 0
2, 2640, Note_on_c, 0, 77, 71
2, 2700, Note_on_c, 0, 77, 0
2, 2700, Note_on_c, 0, 76, 71
2, 2760, Note_on_c, 0, 76, 0
2, 2760, Note_on_c, 0, 77, 71
2, 2880, Note_on_c, 0, 77, 0
2, 2880, Note_on_c, 0, 80, 71
2, 2880, Note_on_c, 0, 76, 71
2, 2940, Note_on_c, 0, 80, 0
2, 2940, Note_on_c, 0, 79, 71
2, 3000, Note_on_c, 0, 79, 0
2, 3000, Note_on_c, 0, 76, 0
2, 3000, Note_on_c, 0, 77, 70
2, 3120, Note_on_c, 0, 77, 0
2, 3120, Note_on_c, 0, 80, 75
2, 3240, Note_on_c, 0, 80, 0
2, 3240, Note_on_c, 0, 72, 79
2, 3360, Note_on_c, 0, 72, 0
2, 3360, Note_on_c, 0, 71, 79
2, 3480, Note_on_c, 0, 71, 0
2, 3480, Note_on_c, 0, 77, 79
2, 3600, Note_on_c, 0, 77, 0
2, 3600, Note_on_c, 0, 68, 79
2, 3720, Note_on_c, 0, 68, 0
2, 3720, Note_on_c, 0, 67, 79
2, 3840, Note_on_c, 0, 67, 0
2, 3840, Note_on_c, 0, 74, 79
2, 3960, Note_on_c, 0, 74, 0
2, 3960, Note_on_c, 0, 62, 78
2, 3960, Note_on_c, 0, 65, 78
2, 4080, Note_on_c, 0, 65, 0
2, 4080, Note_on_c, 0, 62, 0
2, 4080, Note_on_c, 0, 63, 78
2, 4080, Note_on_c, 0, 60, 78
2, 4200, Note_on_c, 0, 60, 0
2, 4200, Note_on_c, 0, 63, 0
2, 4200, Note_on_c, 0, 72, 78
2, 4200, Note_on_c, 0, 63, 78
2, 4320, Note_on_c, 0, 63, 0
2, 4320, Note_on_c, 0, 72, 0
2, 4320, Note_on_c, 0, 60, 78
2, 4320, Note_on_c, 0, 63, 78
2, 4440, Note_on_c, 0, 63, 0
2, 4440, Note_on_c, 0, 60, 0
2, 4440, Note_on_c, 0, 59, 78
2, 4440, Note_on_c, 0, 62, 78
2, 4560, Note_on_c, 0, 62, 0
2, 4560, Note_on_c, 0, 59, 0
2, 4560, Note_on_c, 0, 79, 78
2, 4680, Note_on_c, 0, 79, 0
2, 4680, Note_on_c, 0, 79, 78
2, 4800, Note_on_c, 0, 79, 0
2, 4800, Note_on_c, 0, 79, 63
2, 4920, Note_on_c, 0, 79, 0
2, 4920, Note_on_c, 0, 68, 64
2, 4920, Note_on_c, 0, 79, 64
2, 5040, Note_on_c, 0, 79, 0
2, 5040, Note_on_c, 0, 68, 0
2, 5040, Note_on_c, 0, 68, 64
2, 5040, Note_on_c, 0, 72, 64
2, 5160, Note_on_c, 0, 72, 0
2, 5160, Note_on_c, 0, 68, 0
2, 5160, Note_on_c, 0, 68, 65
2, 5280, Note_on_c, 0, 68, 0
2, 5280, Note_on_c, 0, 68, 67
2, 5280, Note_on_c, 0, 77, 67
2, 5400, Note_on_c, 0, 77, 0
2, 5400, Note_on_c, 0, 68, 0
2, 5400, Note_on_c, 0, 62, 67
2, 5400, Note_on_c, 0, 77, 67
2, 5520, Note_on_c, 0, 77, 0
2, 5520, Note_on_c, 0, 62, 0
2, 5520, Note_on_c, 0, 77, 67
2, 5640, Note_on_c, 0, 77, 0
2, 5640, Note_on_c, 0, 67, 67
2, 5640, Note_on_c, 0, 77, 67
2, 5760, Note_on_c, 0, 77, 0
2, 5760, Note_on_c, 0, 67, 0
2, 5760, Note_on_c, 0, 67, 67
2, 5760, Note_on_c, 0, 70, 67
2, 5880, Note_on_c, 0, 70, 0
2, 5880, Note_on_c, 0, 67, 0
2, 5880, Note_on_c, 0, 67, 67
2, 6000, Note_on_c, 0, 67, 0
2, 6000, Note_on_c, 0, 75, 67
2, 6000, Note_on_c, 0, 67, 67
2, 6120, Note_on_c, 0, 67, 0
2, 6120, Note_on_c, 0, 75, 0
2, 6120, Note_on_c, 0, 75, 68
2, 6120, Note_on_c, 0, 60, 68
2, 6240, Note_on_c, 0, 60, 0
2, 6240, Note_on_c, 0, 75, 0
2, 6240, Note_on_c, 0, 75, 68
2, 6360, Note_on_c, 0, 75, 0
2, 6360, Note_on_c, 0, 75, 68
2, 6360, Note_on_c, 0, 65, 68
2, 6480, Note_on_c, 0, 65, 0
2, 6480, Note_on_c, 0, 75, 0
2, 6480, Note_on_c, 0, 65, 68
2, 6480, Note_on_c, 0, 68, 68
2, 6600, Note_on_c, 0, 68, 0
2, 6600, Note_on_c, 0, 65, 0
2, 6600, Note_on_c, 0, 74, 68
2, 6720, Note_on_c, 0, 74, 0
2, 6720, Note_on_c, 0, 67, 85
2, 6840, Note_on_c, 0, 67, 0
2, 6840, Note_on_c, 0, 72, 88
2, 6960, Note_on_c, 0, 72, 0
2, 6960, Note_on_c, 0, 65, 89
2, 7080, Note_on_c, 0, 65, 0
2, 7080, Note_on_c, 0, 70, 91
2, 7200, Note_on_c, 0, 70, 0
2, 7200, Note_on_c, 0, 63, 92
2, 7320, Note_on_c, 0, 63, 0
2, 7320, Note_on_c, 0, 68, 92
2, 7440, Note_on_c, 0, 68, 0
2, 7440, Note_on_c, 0, 62, 94
2, 7560, Note_on_c, 0, 62, 0
2, 7560, Note_on_c, 0, 67, 96
2, 7680, Note_on_c, 0, 67, 0
2, 7680, Note_on_c, 0, 62, 97
2, 7800, Note_on_c, 0, 62, 0
2, 7800, Note_on_c, 0, 63, 98
2, 7920, Note_on_c, 0, 63, 0
2, 7920, Note_on_c, 0, 60, 100
2, 8040, Note_on_c, 0, 60, 0
2, 8040, Note_on_c, 0, 58, 101
2, 8160, Note_on_c, 0, 58, 0
2, 8160, Note_on_c, 0, 57, 103
2, 8280, Note_on_c, 0, 57, 0
2, 8280, Note_on_c, 0, 58, 104
2, 8400, Note_on_c, 0, 58, 0
2, 8400, Note_on_c, 0, 63, 106
2, 8520, Note_on_c, 0, 63, 0
2, 8520, Note_on_c, 0, 62, 108
2, 8640, Note_on_c, 0, 62, 0
2, 8640, Note_on_c, 0, 63, 109
2, 8760, Note_on_c, 0, 63, 0
2, 8880, Note_on_c, 0, 82, 114
2, 9000, Note_on_c, 0, 82, 0
2, 9000, Note_on_c, 0, 70, 115
2, 9000, Note_on_c, 0, 74, 115
2, 9000, Note_on_c, 0, 82, 115
2, 9120, Note_on_c, 0, 82, 0
2, 9120, Note_on_c, 0, 74, 0
2, 9120, Note_on_c, 0, 70, 0
2, 9120, Note_on_c, 0, 72, 116
2, 9120, Note_on_c, 0, 75, 116
2, 9120, Note_on_c, 0, 82, 116
2, 9240, Note_on_c, 0, 82, 0
2, 9240, Note_on_c, 0, 75, 0
2, 9240, Note_on_c, 0, 72, 0
2, 9240, Note_on_c, 0, 74, 118
2, 9240, Note_on_c, 0, 77, 118
2, 9240, Note_on_c, 0, 82, 118
2, 9360, Note_on_c, 0, 82, 0
2, 9360, Note_on_c, 0, 77, 0
2, 9360, Note_on_c, 0, 74, 0
2, 9360, Note_on_c, 0, 87, 119
2, 9480, Note_on_c, 0, 87, 0
2, 9600, Note_on_c, 0, 70, 121
2, 9600, Note_on_c, 0, 82, 121
2, 9720, Note_on_c, 0, 82, 0
2, 9720, Note_on_c, 0, 70, 0
2, 9720, Note_on_c, 0, 70, 122
2, 9720, Note_on_c, 0, 82, 122
2, 9840, Note_on_c, 0, 82, 0
2, 9840, Note_on_c, 0, 70, 0
2, 9840, Note_on_c, 0, 70, 122
2, 9840, Note_on_c, 0, 82, 122
2, 9960, Note_on_c, 0, 82, 0
2, 9960, Note_on_c, 0, 70, 0
2, 9960, Note_on_c, 0, 70, 122
2, 9960, Note_on_c, 0, 82, 122
2, 10080, Note_on_c, 0, 82, 0
2, 10080, Note_on_c, 0, 70, 0
2, 10080, Note_on_c, 0, 63, 122
2, 10080, Note_on_c, 0, 75, 122
2, 10200, Note_on_c, 0, 75, 0
2, 10200, Note_on_c, 0, 63, 0
2, 10320, Note_on_c, 0, 70, 119
2, 10320, Note_on_c, 0, 82, 119
2, 10440, Note_on_c, 0, 82, 0
2, 10440, Note_on_c, 0, 70, 0
2, 10440, Note_on_c, 0, 70, 119
2, 10440, Note_on_c, 0, 74, 119
2, 10440, Note_on_c, 0, 82, 119
2, 10560, Note_on_c, 0, 82, 0
2, 10560, Note_on_c, 0, 74, 0
2, 10560, Note_on_c, 0, 70, 0
2, 10560, Note_on_c, 0, 72, 118
2, 10560, Note_on_c, 0, 75, 118
2, 10560, Note_on_c, 0, 82, 118
2, 10680, Note_on_c, 0, 82, 0
2, 10680, Note_on_c, 0, 75, 0
2, 10680, Note_on_c, 0, 72, 0
2, 10680, Note_on_c, 0, 74, 116
2, 10680, Note_on_c, 0, 77, 116
2, 10680, Note_on_c, 0, 82, 116
2, 10800, Note_on_c, 0, 82, 0
2, 10800, Note_on_c, 0, 77, 0
2, 10800, Note_on_c, 0, 74, 0
2, 10800, Note_on_c, 0, 87, 125
2, 10920, Note_on_c, 0, 87, 0
2, 11040, Note_on_c, 0, 82, 113
2, 11160, Note_on_c, 0, 82, 0
2, 11160, Note_on_c, 0, 82, 108
2, 11280, Note_on_c, 0, 82, 0
2, 11280, Note_on_c, 0, 82, 102
2, 11400, Note_on_c, 0, 82, 0
2, 11400, Note_on_c, 0, 82, 97
2, 11520, Note_on_c, 0, 82, 0
2, 11520, Note_on_c, 0, 75, 90
2, 11640, Note_on_c, 0, 75, 0
2, 12480, Note_on_c, 0, 72, 84
2, 12600, Note_on_c, 0, 72, 0
2, 12600, Note_on_c, 0, 72, 88
2, 12705, Note_on_c, 0, 74, 90
2, 12720, Note_on_c, 0, 74, 0
2, 12720, Note_on_c, 0, 72, 0
2, 12720, Note_on_c, 0, 72, 91
2, 12780, Note_on_c, 0, 72, 0
2, 12780, Note_on_c, 0, 71, 91
2, 12840, Note_on_c, 0, 71, 0
2, 12840, Note_on_c, 0, 72, 91
2, 12960, Note_on_c, 0, 72, 0
2, 12960, Note_on_c, 0, 75, 89
2, 12960, Note_on_c, 0, 71, 89
2, 13020, Note_on_c, 0, 75, 0
2, 13020, Note_on_c, 0, 74, 87
2, 13080, Note_on_c, 0, 74, 0
2, 13080, Note_on_c, 0, 71, 0
2, 13080, Note_on_c, 0, 72, 84
2, 13200, Note_on_c, 0, 72, 0
2, 13920, Note_on_c, 0, 77, 71
2, 14040, Note_on_c, 0, 77, 0
2, 14040, Note_on_c, 0, 77, 71
2, 14145, Note_on_c, 0, 79, 71
2, 14160, Note_on_c, 0, 79, 0
2, 14160, Note_on_c, 0, 77, 0
2, 14160, Note_on_c, 0, 77, 71
2, 14220, Note_on_c, 0, 77, 0
2, 14220, Note_on_c, 0, 76, 71
2, 14280, Note_on_c, 0, 76, 0
2, 14280, Note_on_c, 0, 77, 71
2, 14400, Note_on_c, 0, 77, 0
2, 14400, Note_on_c, 0, 80, 71
2, 14400, Note_on_c, 0, 76, 71
2, 14460, Note_on_c, 0, 80, 0
2, 14460, Note_on_c, 0, 79, 71
2, 14520, Note_on_c, 0, 79, 0
2, 14520, Note_on_c, 0, 76, 0
2, 14520, Note_on_c, 0, 77, 70
2, 14640, Note_on_c, 0, 77, 0
2, 14640, Note_on_c, 0, 80, 75
2, 14760, Note_on_c, 0, 80, 0
2, 14760, Note_on_c, 0, 72, 79
2, 14880, Note_on_c, 0, 72, 0
2, 14880, Note_on_c, 0, 71, 79
2, 15000, Note_on_c, 0, 71, 0
2, 15000, Note_on_c, 0, 77, 79
2, 15120, Note_on_c, 0, 77, 0
2, 15120, Note_on_c, 0, 68, 79
2, 15240, Note_on_c, 0, 68, 0
2, 15240, Note_on_c, 0, 67, 79
2, 15360, Note_on_c, 0, 67, 0
2, 15360, Note_on_c, 0, 74, 79
2, 15480, Note_on_c, 0, 74, 0
2, 15480, Note_on_c, 0, 62, 78
2, 15480, Note_on_c, 0, 65, 78
2, 15600, Note_on_c, 0, 65, 0
2, 15600, Note_on_c, 0, 62, 0
2, 15600, Note_on_c, 0, 63, 78
2, 15600, Note_on_c, 0, 60, 78
2, 15720, Note_on_c, 0, 60, 0
2, 15720, Note_on_c, 0, 63, 0
2, 15720, Note_on_c, 0, 72, 78
2, 15720, Note_on_c, 0, 63, 78
2, 15840, Note_on_c, 0, 63, 0
2, 15840, Note_on_c, 0, 72, 0
2, 15840, Note_on_c, 0, 60, 78
2, 15840, Note_on_c, 0, 63, 78
2, 15960, Note_on_c, 0, 63, 0
2, 15960, Note_on_c, 0, 60, 0
2, 15960, Note_on_c, 0, 59, 78
2, 15960, Note_on_c, 0, 62, 78
2, 16080, Note_on_c, 0, 62, 0
2, 16080, Note_on_c, 0, 59, 0
2, 16080, Note_on_c, 0, 79, 78
2, 16200, Note_on_c, 0, 79, 0
2, 16200, Note_on_c, 0, 79, 78
2, 16320, Note_on_c, 0, 79, 0
2, 16320, Note_on_c, 0, 79, 63
2, 16440, Note_on_c, 0, 79, 0
2, 16440, Note_on_c, 0, 68, 64
2, 16440, Note_on_c, 0, 79, 64
2, 16560, Note_on_c, 0, 79, 0
2, 16560, Note_on_c, 0, 68, 0
2, 16560, Note_on_c, 0, 68, 64
2, 16560, Note_on_c, 0, 72, 64
2, 16680, Note_on_c, 0, 72, 0
2, 16680, Note_on_c, 0, 68, 0
2, 16680, Note_on_c, 0, 68, 65
2, 16800, Note_on_c, 0, 68, 0
2, 16800, Note_on_c, 0, 68, 67
2, 16800, Note_on_c, 0, 77, 67
2, 16920, Note_on_c, 0, 77, 0
2, 16920, Note_on_c, 0, 68, 0
2, 16920, Note_on_c, 0, 62, 67
2, 16920, Note_on_c, 0, 77, 67
2, 17040, Note_on_c, 0, 77, 0
2, 17040, Note_on_c, 0, 62, 0
2, 17040, Note_on_c, 0, 77, 67
2, 17160, Note_on_c, 0, 77, 0
2, 17160, Note_on_c, 0, 67, 67
2, 17160, Note_on_c, 0, 77, 67
2, 17280, Note_on_c, 0, 77, 0
2, 17280, Note_on_c, 0, 67, 0
2, 17280, Note_on_c, 0, 67, 67
2, 17280, Note_on_c, 0, 70, 67
2, 17400, Note_on_c, 0, 70, 0
2, 17400, Note_on_c, 0, 67, 0
2, 17400, Note_on_c, 0, 67, 67
2, 17520, Note_on_c, 0, 67, 0
2, 17520, Note_on_c, 0, 75, 67
2, 17520, Note_on_c, 0, 67, 67
2, 17640, Note_on_c, 0, 67, 0
2, 17640, Note_on_c, 0, 75, 0
2, 17640, Note_on_c, 0, 75, 68
2, 17640, Note_on_c, 0, 60, 68
2, 17760, Note_on_c, 0, 60, 0
2, 17760, Note_on_c, 0, 75, 0
2, 17760, Note_on_c, 0, 75, 68
2, 17880, Note_on_c, 0, 75, 0
2, 17880, Note_on_c, 0, 75, 68
2, 17880, Note_on_c, 0, 65, 68
2, 18000, Note_on_c, 0, 65, 0
2, 18000, Note_on_c, 0, 75, 0
2, 18000, Note_on_c, 0, 65, 68
2, 18000, Note_on_c, 0, 68, 68
2, 18120, Note_on_c, 0, 68, 0
2, 18120, Note_on_c, 0, 65, 0
2, 18120, Note_on_c, 0, 74, 68
2, 18240, Note_on_c, 0, 74, 0
2, 18240, Note_on_c, 0, 67, 85
2, 18360, Note_on_c, 0, 67, 0
2, 18360, Note_on_c, 0, 72, 88
2, 18480, Note_on_c, 0, 72, 0
2, 18480, Note_on_c, 0, 65, 89
2, 18600, Note_on_c, 0, 65, 0
2, 18600, Note_on_c, 0, 70, 91
2, 18720, Note_on_c, 0, 70, 0
2, 18720, Note_on_c, 0, 63, 92
2, 18840, Note_on_c, 0, 63, 0
2, 18840, Note_on_c, 0, 68, 92
2, 18960, Note_on_c, 0, 68, 0
2, 18960, Note_on_c, 0, 62, 94
2, 19080, Note_on_c, 0, 62, 0
2, 19080, Note_on_c, 0, 67, 96
2, 19200, Note_on_c, 0, 67, 0
2, 19200, Note_on_c, 0, 62, 97
2, 19320, Note_on_c, 0, 62, 0
2, 19320, Note_on_c, 0, 63, 98
2, 19440, Note_on_c, 0, 63, 0
2, 19440, Note_on_c, 0, 60, 100
2, 19560, Note_on_c, 0, 60, 0
2, 19560, Note_on_c, 0, 58, 101
2, 19680, Note_on_c, 0, 58, 0
2, 19680, Note_on_c, 0, 57, 113
2, 19800, Note_on_c, 0, 57, 0
2, 19800, Note_on_c, 0, 58, 104
2, 19920, Note_on_c, 0, 58, 0
2, 19920, Note_on_c, 0, 63, 106
2, 20040, Note_on_c, 0, 63, 0
2, 20040, Note_on_c, 0, 62, 108
2, 20160, Note_on_c, 0, 62, 0
2, 20160, Note_on_c, 0, 63, 109
2, 20280, Note_on_c, 0, 63, 0
2, 20400, Note_on_c, 0, 82, 114
2, 20520, Note_on_c, 0, 82, 0
2, 20520, Note_on_c, 0, 70, 115
2, 20520, Note_on_c, 0, 74, 115
2, 20520, Note_on_c, 0, 82, 115
2, 20640, Note_on_c, 0, 82, 0
2, 20640, Note_on_c, 0, 74, 0
2, 20640, Note_on_c, 0, 70, 0
2, 20640, Note_on_c, 0, 72, 116
2, 20640, Note_on_c, 0, 75, 116
2, 20640, Note_on_c, 0, 82, 116
2, 20760, Note_on_c, 0, 82, 0
2, 20760, Note_on_c, 0, 75, 0
2, 20760, Note_on_c, 0, 72, 0
2, 20760, Note_on_c, 0, 74, 118
2, 20760, Note_on_c, 0, 77, 118
2, 20760, Note_on_c, 0, 82, 118
2, 20880, Note_on_c, 0, 82, 0
2, 20880, Note_on_c, 0, 77, 0
2, 20880, Note_on_c, 0, 74, 0
2, 20880, Note_on_c, 0, 87, 119
2, 21000, Note_on_c, 0, 87, 0
2, 21120, Note_on_c, 0, 70, 121
2, 21120, Note_on_c, 0, 82, 121
2, 21240, Note_on_c, 0, 82, 0
2, 21240, Note_on_c, 0, 70, 0
2, 21240, Note_on_c, 0, 70, 122
2, 21240, Note_on_c, 0, 82, 122
2, 21360, Note_on_c, 0, 82, 0
2, 21360, Note_on_c, 0, 70, 0
2, 21360, Note_on_c, 0, 70, 122
2, 21360, Note_on_c, 0, 82, 122
2, 21480, Note_on_c, 0, 82, 0
2, 21480, Note_on_c, 0, 70, 0
2, 21480, Note_on_c, 0, 70, 122
2, 21480, Note_on_c, 0, 82, 122
2, 21600, Note_on_c, 0, 82, 0
2, 21600, Note_on_c, 0, 70, 0
2, 21600, Note_on_c, 0, 63, 122
2, 21600, Note_on_c, 0, 75, 122
2, 21720, Note_on_c, 0, 75, 0
2, 21720, Note_on_c, 0, 63, 0
2, 21840, Note_on_c, 0, 70, 119
2, 21840, Note_on_c, 0, 82, 119
2, 21960, Note_on_c, 0, 82, 0
2, 21960, Note_on_c, 0, 70, 0
2, 21960, Note_on_c, 0, 70, 119
2, 21960, Note_on_c, 0, 74, 119
2, 21960, Note_on_c, 0, 82, 119
2, 22080, Note_on_c, 0, 82, 0
2, 22080, Note_on_c, 0, 74, 0
2, 22080, Note_on_c, 0, 70, 0
2, 22080, Note_on_c, 0, 72, 118
2, 22080, Note_on_c, 0, 75, 118
2, 22080, Note_on_c, 0, 82, 118
2, 22200, Note_on_c, 0, 82, 0
2, 22200, Note_on_c, 0, 75, 0
2, 22200, Note_on_c, 0, 72, 0
2, 22200, Note_on_c, 0, 74, 116
2, 22200, Note_on_c, 0, 77, 116
2, 22200, Note_on_c, 0, 82, 116
2, 22320, Note_on_c, 0, 82, 0
2, 22320, Note_on_c, 0, 77, 0
2, 22320, Note_on_c, 0, 74, 0
2, 22320, Note_on_c, 0, 87, 115
2, 22440, Note_on_c, 0, 87, 0
2, 22560, Note_on_c, 0, 82, 113
2, 22680, Note_on_c, 0, 82, 0
2, 22680, Note_on_c, 0, 82, 108
2, 22800, Note_on_c, 0, 82, 0
2, 22800, Note_on_c, 0, 82, 102
2, 22920, Note_on_c, 0, 82, 0
2, 22920, Note_on_c, 0, 82, 97
2, 23040, Note_on_c, 0, 82, 0
2, 23040, Note_on_c, 0, 75, 90
2, 23160, Note_on_c, 0, 75, 0
2, 23280, Note_on_c, 0, 79, 74
2, 23400, Note_on_c, 0, 79, 0
2, 23400, Note_on_c, 0, 79, 74
2, 23520, Note_on_c, 0, 79, 0
2, 23520, Note_on_c, 0, 79, 75
2, 23640, Note_on_c, 0, 79, 0
2, 23640, Note_on_c, 0, 79, 76
2, 23640, Note_on_c, 0, 75, 76
2, 23760, Note_on_c, 0, 75, 0
2, 23760, Note_on_c, 0, 79, 0
2, 23760, Note_on_c, 0, 75, 76
2, 23760, Note_on_c, 0, 72, 76
2, 23880, Note_on_c, 0, 72, 0
2, 23880, Note_on_c, 0, 75, 0
2, 23880, Note_on_c, 0, 75, 76
2, 24000, Note_on_c, 0, 75, 0
2, 24000, Note_on_c, 0, 77, 76
2, 24000, Note_on_c, 0, 75, 76
2, 24120, Note_on_c, 0, 75, 0
2, 24120, Note_on_c, 0, 77, 0
2, 24120, Note_on_c, 0, 69, 78
2, 24120, Note_on_c, 0, 77, 78
2, 24240, Note_on_c, 0, 77, 0
2, 24240, Note_on_c, 0, 69, 0
2, 24240, Note_on_c, 0, 77, 79
2, 24360, Note_on_c, 0, 77, 0
2, 24360, Note_on_c, 0, 74, 81
2, 24360, Note_on_c, 0, 77, 81
2, 24480, Note_on_c, 0, 77, 0
2, 24480, Note_on_c, 0, 74, 0
2, 24480, Note_on_c, 0, 74, 83
2, 24480, Note_on_c, 0, 70, 83
2, 24600, Note_on_c, 0, 70, 0
2, 24600, Note_on_c, 0, 74, 0
2, 24600, Note_on_c, 0, 74, 83
2, 24720, Note_on_c, 0, 74, 0
2, 24720, Note_on_c, 0, 74, 83
2, 24720, Note_on_c, 0, 75, 83
2, 24840, Note_on_c, 0, 75, 0
2, 24840, Note_on_c, 0, 74, 0
2, 24840, Note_on_c, 0, 67, 83
2, 24840, Note_on_c, 0, 75, 83
2, 24960, Note_on_c, 0, 75, 0
2, 24960, Note_on_c, 0, 67, 0
2, 24960, Note_on_c, 0, 75, 83
2, 25080, Note_on_c, 0, 75, 0
2, 25080, Note_on_c, 0, 72, 84
2, 25080, Note_on_c, 0, 75, 84
2, 25200, Note_on_c, 0, 75, 0
2, 25200, Note_on_c, 0, 72, 0
2, 25200, Note_on_c, 0, 72, 84
2, 25200, Note_on_c, 0, 69, 84
2, 25320, Note_on_c, 0, 69, 0
2, 25320, Note_on_c, 0, 72, 0
2, 25320, Note_on_c, 0, 66, 84
2, 25320, Note_on_c, 0, 74, 84
2, 25440, Note_on_c, 0, 74, 0
2, 25440, Note_on_c, 0, 66, 0
2, 25440, Note_on_c, 0, 70, 84
2, 25440, Note_on_c, 0, 67, 84
2, 25560, Note_on_c, 0, 67, 0
2, 25560, Note_on_c, 0, 70, 0
2, 25560, Note_on_c, 0, 64, 84
2, 25560, Note_on_c, 0, 72, 84
2, 25680, Note_on_c, 0, 72, 0
2, 25680, Note_on_c, 0, 64, 0
2, 25680, Note_on_c, 0, 69, 84
2, 25680, Note_on_c, 0, 66, 84
2, 25800, Note_on_c, 0, 66, 0
2, 25800, Note_on_c, 0, 69, 0
2, 25800, Note_on_c, 0, 62, 86
2, 25800, Note_on_c, 0, 70, 86
2, 25920, Note_on_c, 0, 70, 0
2, 25920, Note_on_c, 0, 62, 0
2, 25920, Note_on_c, 0, 69, 87
2, 26040, Note_on_c, 0, 69, 0
2, 26040, Note_on_c, 0, 67, 88
2, 26160, Note_on_c, 0, 67, 0
2, 26160, Note_on_c, 0, 66, 89
2, 26280, Note_on_c, 0, 66, 0
2, 26280, Note_on_c, 0, 67, 89
2, 26385, Note_on_c, 0, 69, 89
2, 26400, Note_on_c, 0, 69, 0
2, 26400, Note_on_c, 0, 67, 0
2, 26400, Note_on_c, 0, 67, 89
2, 26460, Note_on_c, 0, 67, 0
2, 26460, Note_on_c, 0, 66, 89
2, 26520, Note_on_c, 0, 66, 0
2, 26520, Note_on_c, 0, 67, 89
2, 26640, Note_on_c, 0, 67, 0
2, 26640, Note_on_c, 0, 74, 89
2, 26745, Note_on_c, 0, 76, 89
2, 26760, Note_on_c, 0, 76, 0
2, 26760, Note_on_c, 0, 74, 0
2, 26760, Note_on_c, 0, 74, 89
2, 26820, Note_on_c, 0, 74, 0
2, 26820, Note_on_c, 0, 73, 89
2, 26880, Note_on_c, 0, 73, 0
2, 26880, Note_on_c, 0, 74, 89
2, 27000, Note_on_c, 0, 74, 0
2, 27000, Note_on_c, 0, 79, 89
2, 27105, Note_on_c, 0, 81, 89
2, 27120, Note_on_c, 0, 81, 0
2, 27120, Note_on_c, 0, 79, 0
2, 27120, Note_on_c, 0, 79, 89
2, 27180, Note_on_c, 0, 79, 0
2, 27180, Note_on_c, 0, 78, 89
2, 27240, Note_on_c, 0, 78, 0
2, 27240, Note_on_c, 0, 79, 89
2, 27345, Note_on_c, 0, 74, 89
2, 27360, Note_on_c, 0, 74, 0
2, 27360, Note_on_c, 0, 79, 0
2, 27360, Note_on_c, 0, 86, 109
2, 27840, Note_on_c, 0, 86, 0
2, 27840, Note_on_c, 0, 86, 89
2, 27900, Note_on_c, 0, 86, 0
2, 27900, Note_on_c, 0, 84, 89
2, 27960, Note_on_c, 0, 84, 0
2, 27960, Note_on_c, 0, 84, 89
2, 28020, Note_on_c, 0, 84, 0
2, 28020, Note_on_c, 0, 82, 89
2, 28080, Note_on_c, 0, 82, 0
2, 28080, Note_on_c, 0, 82, 89
2, 28140, Note_on_c, 0, 82, 0
2, 28140, Note_on_c, 0, 81, 89
2, 28200, Note_on_c, 0, 81, 0
2, 28200, Note_on_c, 0, 81, 89
2, 28260, Note_on_c, 0, 81, 0
2, 28260, Note_on_c, 0, 79, 89
2, 28320, Note_on_c, 0, 79, 0
2, 28320, Note_on_c, 0, 79, 89
2, 28380, Note_on_c, 0, 79, 0
2, 28380, Note_on_c, 0, 78, 89
2, 28440, Note_on_c, 0, 78, 0
2, 28440, Note_on_c, 0, 79, 109
2, 28440, Note_on_c, 0, 67, 119
2, 28560, Note_on_c, 0, 67, 0
2, 28560, Note_on_c, 0, 79, 0
2, 28560, Note_on_c, 0, 69, 88
2, 28600, Note_on_c, 0, 69, 0
2, 28600, Note_on_c, 0, 67, 90
2, 28640, Note_on_c, 0, 67, 0
2, 28640, Note_on_c, 0, 66, 95
2, 28680, Note_on_c, 0, 66, 0
2, 28680, Note_on_c, 0, 67, 98
2, 28800, Note_on_c, 0, 67, 0
2, 28800, Note_on_c, 0, 74, 110
2, 28920, Note_on_c, 0, 74, 0
2, 28920, Note_on_c, 0, 76, 81
2, 28960, Note_on_c, 0, 76, 0
2, 28960, Note_on_c, 0, 74, 84
2, 29000, Note_on_c, 0, 74, 0
2, 29000, Note_on_c, 0, 73, 88
2, 29040, Note_on_c, 0, 73, 0
2, 29040, Note_on_c, 0, 74, 92
2, 29160, Note_on_c, 0, 74, 0
2, 29160, Note_on_c, 0, 79, 120
2, 29280, Note_on_c, 0, 79, 0
2, 29280, Note_on_c, 0, 81, 72
2, 29320, Note_on_c, 0, 81, 0
2, 29320, Note_on_c, 0, 79, 77
2, 29360, Note_on_c, 0, 79, 0
2, 29360, Note_on_c, 0, 78, 80
2, 29400, Note_on_c, 0, 78, 0
2, 29400, Note_on_c, 0, 79, 85
2, 29520, Note_on_c, 0, 79, 0
2, 29520, Note_on_c, 0, 74, 110
2, 29520, Note_on_c, 0, 86, 110
2, 29880, Note_on_c, 0, 86, 0
2, 29880, Note_on_c, 0, 74, 0
2, 29880, Note_on_c, 0, 75, 124
2, 30000, Note_on_c, 0, 75, 0
2, 30000, Note_on_c, 0, 77, 84
2, 30040, Note_on_c, 0, 77, 0
2, 30040, Note_on_c, 0, 75, 87
2, 30080, Note_on_c, 0, 75, 0
2, 30080, Note_on_c, 0, 74, 89
2, 30120, Note_on_c, 0, 74, 0
2, 30120, Note_on_c, 0, 75, 91
2, 30240, Note_on_c, 0, 75, 0
2, 30240, Note_on_c, 0, 70, 106
2, 30240, Note_on_c, 0, 82, 106
2, 30600, Note_on_c, 0, 82, 0
2, 30600, Note_on_c, 0, 70, 0
2, 30600, Note_on_c, 0, 72, 120
2, 30720, Note_on_c, 0, 72, 0
2, 30720, Note_on_c, 0, 74, 86
2, 30760, Note_on_c, 0, 74, 0
2, 30760, Note_on_c, 0, 72, 90
2, 30800, Note_on_c, 0, 72, 0
2, 30800, Note_on_c, 0, 71, 93
2, 30840, Note_on_c, 0, 71, 0
2, 30840, Note_on_c, 0, 72, 96
2, 30960, Note_on_c, 0, 72, 0
2, 30960, Note_on_c, 0, 79, 109
2, 30960, Note_on_c, 0, 67, 109
2, 31440, Note_on_c, 0, 67, 0
2, 31440, Note_on_c, 0, 79, 0
2, 31440, Note_on_c, 0, 65, 69
2, 31440, Note_on_c, 0, 77, 69
2, 31560, Note_on_c, 0, 77, 0
2, 31560, Note_on_c, 0, 65, 0
2, 31560, Note_on_c, 0, 75, 71
2, 31560, Note_on_c, 0, 63, 71
2, 31800, Note_on_c, 0, 63, 0
2, 31800, Note_on_c, 0, 75, 0
2, 31800, Note_on_c, 0, 62, 74
2, 31800, Note_on_c, 0, 74, 74
2, 31920, Note_on_c, 0, 74, 0
2, 31920, Note_on_c, 0, 62, 0
2, 31920, Note_on_c, 0, 60, 75
2, 31920, Note_on_c, 0, 72, 75
2, 32040, Note_on_c, 0, 72, 0
2, 32040, Note_on_c, 0, 60, 0
2, 32040, Note_on_c, 0, 71, 72
2, 32040, Note_on_c, 0, 59, 72
2, 32160, Note_on_c, 0, 59, 0
2, 32160, Note_on_c, 0, 71, 0
2, 32160, Note_on_c, 0, 62, 67
2, 32220, Note_on_c, 0, 62, 0
2, 32220, Note_on_c, 0, 59, 67
2, 32280, Note_on_c, 0, 59, 0
2, 32280, Note_on_c, 0, 62, 67
2, 32280, Note_on_c, 0, 67, 67
2, 32340, Note_on_c, 0, 62, 0
2, 32340, Note_on_c, 0, 59, 67
2, 32400, Note_on_c, 0, 59, 0
2, 32400, Note_on_c, 0, 67, 0
2, 32400, Note_on_c, 0, 63, 67
2, 32400, Note_on_c, 0, 66, 67
2, 32520, Note_on_c, 0, 66, 0
2, 32520, Note_on_c, 0, 63, 0
2, 32520, Note_on_c, 0, 63, 67
2, 32520, Note_on_c, 0, 66, 67
2, 32640, Note_on_c, 0, 66, 0
2, 32640, Note_on_c, 0, 63, 0
2, 32640, Note_on_c, 0, 63, 67
2, 32640, Note_on_c, 0, 66, 67
2, 32760, Note_on_c, 0, 66, 0
2, 32760, Note_on_c, 0, 63, 0
2, 32820, Note_on_c, 0, 62, 67
2, 32880, Note_on_c, 0, 62, 0
2, 32880, Note_on_c, 0, 67, 67
2, 32940, Note_on_c, 0, 67, 0
2, 32940, Note_on_c, 0, 71, 67
2, 33000, Note_on_c, 0, 71, 0
2, 33000, Note_on_c, 0, 79, 66
2, 33000, Note_on_c, 0, 74, 66
2, 33060, Note_on_c, 0, 74, 0
2, 33060, Note_on_c, 0, 71, 66
2, 33120, Note_on_c, 0, 71, 0
2, 33120, Note_on_c, 0, 79, 0
2, 33120, Note_on_c, 0, 72, 67
2, 33120, Note_on_c, 0, 67, 89
2, 33120, Note_on_c, 0, 75, 67
2, 33120, Note_on_c, 0, 78, 67
2, 33180, Note_on_c, 0, 72, 0
2, 33180, Note_on_c, 0, 69, 67
2, 33240, Note_on_c, 0, 69, 0
2, 33240, Note_on_c, 0, 78, 0
2, 33240, Note_on_c, 0, 75, 0
2, 33240, Note_on_c, 0, 67, 0
2, 33240, Note_on_c, 0, 72, 67
2, 33240, Note_on_c, 0, 67, 89
2, 33240, Note_on_c, 0, 78, 67
2, 33240, Note_on_c, 0, 75, 67
2, 33300, Note_on_c, 0, 72, 0
2, 33300, Note_on_c, 0, 69, 67
2, 33360, Note_on_c, 0, 69, 0
2, 33360, Note_on_c, 0, 75, 0
2, 33360, Note_on_c, 0, 78, 0
2, 33360, Note_on_c, 0, 67, 0
2, 33360, Note_on_c, 0, 67, 89
2, 33360, Note_on_c, 0, 78, 67
2, 33360, Note_on_c, 0, 75, 67
2, 33360, Note_on_c, 0, 72, 67
2, 33420, Note_on_c, 0, 72, 0
2, 33420, Note_on_c, 0, 69, 67
2, 33480, Note_on_c, 0, 69, 0
2, 33480, Note_on_c, 0, 75, 0
2, 33480, Note_on_c, 0, 78, 0
2, 33480, Note_on_c, 0, 67, 0
2, 33480, Note_on_c, 0, 71, 67
2, 33480, Note_on_c, 0, 67, 67
2, 33480, Note_on_c, 0, 74, 67
2, 33480, Note_on_c, 0, 79, 67
2, 33540, Note_on_c, 0, 71, 0
2, 33540, Note_on_c, 0, 67, 67
2, 33600, Note_on_c, 0, 67, 0
2, 33600, Note_on_c, 0, 79, 0
2, 33600, Note_on_c, 0, 74, 0
2, 33600, Note_on_c, 0, 67, 0
2, 33600, Note_on_c, 0, 62, 67
2, 33660, Note_on_c, 0, 62, 0
2, 33660, Note_on_c, 0, 59, 67
2, 33720, Note_on_c, 0, 59, 0
2, 33720, Note_on_c, 0, 62, 67
2, 33720, Note_on_c, 0, 67, 67
2, 33780, Note_on_c, 0, 62, 0
2, 33780, Note_on_c, 0, 59, 67
2, 33840, Note_on_c, 0, 59, 0
2, 33840, Note_on_c, 0, 67, 0
2, 33840, Note_on_c, 0, 63, 67
2, 33840, Note_on_c, 0, 66, 67
2, 33960, Note_on_c, 0, 66, 0
2, 33960, Note_on_c, 0, 63, 0
2, 33960, Note_on_c, 0, 63, 67
2, 33960, Note_on_c, 0, 66, 67
2, 34080, Note_on_c, 0, 66, 0
2, 34080, Note_on_c, 0, 63, 0
2, 34080, Note_on_c, 0, 63, 67
2, 34080, Note_on_c, 0, 66, 67
2, 34200, Note_on_c, 0, 66, 0
2, 34200, Note_on_c, 0, 63, 0
2, 34260, Note_on_c, 0, 62, 67
2, 34320, Note_on_c, 0, 62, 0
2, 34320, Note_on_c, 0, 67, 67
2, 34380, Note_on_c, 0, 67, 0
2, 34380, Note_on_c, 0, 71, 67
2, 34440, Note_on_c, 0, 71, 0
2, 34440, Note_on_c, 0, 79, 66
2, 34440, Note_on_c, 0, 74, 66
2, 34500, Note_on_c, 0, 74, 0
2, 34500, Note_on_c, 0, 71, 66
2, 34560, Note_on_c, 0, 71, 0
2, 34560, Note_on_c, 0, 79, 0
2, 34560, Note_on_c, 0, 72, 67
2, 34560, Note_on_c, 0, 67, 89
2, 34560, Note_on_c, 0, 75, 67
2, 34560, Note_on_c, 0, 78, 67
2, 34620, Note_on_c, 0, 72, 0
2, 34620, Note_on_c, 0, 69, 67
2, 34680, Note_on_c, 0, 69, 0
2, 34680, Note_on_c, 0, 78, 0
2, 34680, Note_on_c, 0, 75, 0
2, 34680, Note_on_c, 0, 67, 0
2, 34680, Note_on_c, 0, 72, 67
2, 34680, Note_on_c, 0, 67, 89
2, 34680, Note_on_c, 0, 78, 67
2, 34680, Note_on_c, 0, 75, 67
2, 34740, Note_on_c, 0, 72, 0
2, 34740, Note_on_c, 0, 69, 67
2, 34800, Note_on_c, 0, 69, 0
2, 34800, Note_on_c, 0, 75, 0
2, 34800, Note_on_c, 0, 78, 0
2, 34800, Note_on_c, 0, 67, 0
2, 34800, Note_on_c, 0, 67, 89
2, 34800, Note_on_c, 0, 78, 67
2, 34800, Note_on_c, 0, 75, 67
2, 34800, Note_on_c, 0, 72, 67
2, 34860, Note_on_c, 0, 72, 0
2, 34860, Note_on_c, 0, 69, 67
2, 34920, Note_on_c, 0, 69, 0
2, 34920, Note_on_c, 0, 75, 0
2, 34920, Note_on_c, 0, 78, 0
2, 34920, Note_on_c, 0, 67, 0
2, 34920, Note_on_c, 0, 74, 73
2, 34920, Note_on_c, 0, 79, 73
2, 34920, Note_on_c, 0, 67, 73
2, 34980, Note_on_c, 0, 74, 0
2, 34980, Note_on_c, 0, 71, 75
2, 35040, Note_on_c, 0, 71, 0
2, 35040, Note_on_c, 0, 67, 0
2, 35040, Note_on_c, 0, 79, 0
2, 35040, Note_on_c, 0, 72, 76
2, 35040, Note_on_c, 0, 77, 76
2, 35100, Note_on_c, 0, 72, 0
2, 35100, Note_on_c, 0, 68, 77
2, 35160, Note_on_c, 0, 68, 0
2, 35160, Note_on_c, 0, 77, 0
2, 35160, Note_on_c, 0, 70, 77
2, 35160, Note_on_c, 0, 75, 77
2, 35220, Note_on_c, 0, 70, 0
2, 35220, Note_on_c, 0, 67, 77
2, 35280, Note_on_c, 0, 67, 0
2, 35280, Note_on_c, 0, 75, 0
2, 35280, Note_on_c, 0, 68, 77
2, 35280, Note_on_c, 0, 74, 77
2, 35340, Note_on_c, 0, 68, 0
2, 35340, Note_on_c, 0, 65, 77
2, 35400, Note_on_c, 0, 65, 0
2, 35400, Note_on_c, 0, 74, 0
2, 35400, Note_on_c, 0, 67, 76
2, 35400, Note_on_c, 0, 72, 76
2, 35460, Note_on_c, 0, 67, 0
2, 35460, Note_on_c, 0, 63, 76
2, 35520, Note_on_c, 0, 63, 0
2, 35520, Note_on_c, 0, 72, 0
2, 35520, Note_on_c, 0, 65, 74
2, 35520, Note_on_c, 0, 71, 74
2, 35580, Note_on_c, 0, 65, 0
2, 35580, Note_on_c, 0, 62, 73
2, 35640, Note_on_c, 0, 62, 0
2, 35640, Note_on_c, 0, 71, 0
2, 35640, Note_on_c, 0, 63, 71
2, 35640, Note_on_c, 0, 72, 71
2, 35700, Note_on_c, 0, 72, 0
2, 35700, Note_on_c, 0, 63, 0
2, 35700, Note_on_c, 0, 60, 68
2, 35760, Note_on_c, 0, 60, 0
2, 35760, Note_on_c, 0, 63, 65
2, 35820, Note_on_c, 0, 63, 0
2, 35820, Note_on_c, 0, 67, 64
2, 35880, Note_on_c, 0, 67, 0
2, 35880, Note_on_c, 0, 60, 69
2, 35880, Note_on_c, 0, 63, 69
2, 35880, Note_on_c, 0, 72, 69
2, 35985, Note_on_c, 0, 74, 89
2, 35990, Note_on_c, 0, 74, 0
2, 36000, Note_on_c, 0, 60, 0
2, 36000, Note_on_c, 0, 63, 0
2, 36000, Note_on_c, 0, 72, 0
2, 36000, Note_on_c, 0, 72, 94
2, 36000, Note_on_c, 0, 67, 94
2, 36000, Note_on_c, 0, 63, 94
2, 36120, Note_on_c, 0, 63, 0
2, 36120, Note_on_c, 0, 67, 0
2, 36120, Note_on_c, 0, 72, 0
2, 36120, Note_on_c, 0, 72, 82
2, 36120, Note_on_c, 0, 63, 82
2, 36120, Note_on_c, 0, 67, 82
2, 36180, Note_on_c, 0, 72, 0
2, 36180, Note_on_c, 0, 71, 93
2, 36240, Note_on_c, 0, 71, 0
2, 36240, Note_on_c, 0, 67, 0
2, 36240, Note_on_c, 0, 63, 0
2, 36240, Note_on_c, 0, 72, 106
2, 36240, Note_on_c, 0, 63, 106
2, 36240, Note_on_c, 0, 67, 106
2, 36360, Note_on_c, 0, 67, 0
2, 36360, Note_on_c, 0, 63, 0
2, 36360, Note_on_c, 0, 72, 0
2, 36360, Note_on_c, 0, 71, 85
2, 36360, Note_on_c, 0, 75, 85
2, 36360, Note_on_c, 0, 67, 85
2, 36360, Note_on_c, 0, 65, 85
2, 36420, Note_on_c, 0, 75, 0
2, 36420, Note_on_c, 0, 71, 0
2, 36420, Note_on_c, 0, 74, 96
2, 36480, Note_on_c, 0, 74, 0
2, 36480, Note_on_c, 0, 67, 0
2, 36480, Note_on_c, 0, 65, 0
2, 36480, Note_on_c, 0, 72, 102
2, 36480, Note_on_c, 0, 63, 102
2, 36480, Note_on_c, 0, 67, 102
2, 36600, Note_on_c, 0, 67, 0
2, 36600, Note_on_c, 0, 63, 0
2, 36600, Note_on_c, 0, 72, 0
2, 36600, Note_on_c, 0, 80, 77
2, 36660, Note_on_c, 0, 80, 0
2, 36660, Note_on_c, 0, 72, 79
2, 36720, Note_on_c, 0, 72, 0
2, 36720, Note_on_c, 0, 79, 80
2, 36780, Note_on_c, 0, 79, 0
2, 36780, Note_on_c, 0, 70, 82
2, 36840, Note_on_c, 0, 70, 0
2, 36840, Note_on_c, 0, 77, 83
2, 36900, Note_on_c, 0, 77, 0
2, 36900, Note_on_c, 0, 68, 85
2, 36960, Note_on_c, 0, 68, 0
2, 36960, Note_on_c, 0, 76, 86
2, 37020, Note_on_c, 0, 76, 0
2, 37020, Note_on_c, 0, 67, 88
2, 37080, Note_on_c, 0, 67, 0
2, 37080, Note_on_c, 0, 77, 90
2, 37140, Note_on_c, 0, 77, 0
2, 37140, Note_on_c, 0, 65, 92
2, 37200, Note_on_c, 0, 65, 0
2, 37200, Note_on_c, 0, 68, 94
2, 37260, Note_on_c, 0, 68, 0
2, 37260, Note_on_c, 0, 72, 95
2, 37320, Note_on_c, 0, 72, 0
2, 37320, Note_on_c, 0, 72, 98
2, 37320, Note_on_c, 0, 68, 98
2, 37320, Note_on_c, 0, 77, 98
2, 37425, Note_on_c, 0, 79, 104
2, 37432, Note_on_c, 0, 79, 0
2, 37440, Note_on_c, 0, 72, 0
2, 37440, Note_on_c, 0, 68, 0
2, 37440, Note_on_c, 0, 77, 0
2, 37440, Note_on_c, 0, 77, 106
2, 37440, Note_on_c, 0, 72, 106
2, 37440, Note_on_c, 0, 68, 106
2, 37560, Note_on_c, 0, 68, 0
2, 37560, Note_on_c, 0, 72, 0
2, 37560, Note_on_c, 0, 77, 0
2, 37560, Note_on_c, 0, 77, 114
2, 37560, Note_on_c, 0, 72, 114
2, 37560, Note_on_c, 0, 68, 114
2, 37620, Note_on_c, 0, 77, 0
2, 37620, Note_on_c, 0, 76, 98
2, 37680, Note_on_c, 0, 76, 0
2, 37680, Note_on_c, 0, 68, 0
2, 37680, Note_on_c, 0, 72, 0
2, 37680, Note_on_c, 0, 77, 98
2, 37680, Note_on_c, 0, 72, 98
2, 37680, Note_on_c, 0, 68, 98
2, 37800, Note_on_c, 0, 68, 0
2, 37800, Note_on_c, 0, 72, 0
2, 37800, Note_on_c, 0, 77, 0
2, 37800, Note_on_c, 0, 70, 98
2, 37800, Note_on_c, 0, 72, 98
2, 37800, Note_on_c, 0, 76, 98
2, 37800, Note_on_c, 0, 80, 98
2, 37860, Note_on_c, 0, 80, 0
2, 37860, Note_on_c, 0, 76, 0
2, 37860, Note_on_c, 0, 79, 98
2, 37920, Note_on_c, 0, 79, 0
2, 37920, Note_on_c, 0, 72, 0
2, 37920, Note_on_c, 0, 70, 0
2, 37920, Note_on_c, 0, 72, 98
2, 37920, Note_on_c, 0, 68, 98
2, 37920, Note_on_c, 0, 77, 98
2, 38040, Note_on_c, 0, 77, 0
2, 38040, Note_on_c, 0, 68, 0
2, 38040, Note_on_c, 0, 72, 0
2, 38040, Note_on_c, 0, 72, 97
2, 38040, Note_on_c, 0, 84, 97
2, 38160, Note_on_c, 0, 84, 0
2, 38160, Note_on_c, 0, 72, 0
2, 38160, Note_on_c, 0, 72, 97
2, 38160, Note_on_c, 0, 84, 97
2, 38280, Note_on_c, 0, 84, 0
2, 38280, Note_on_c, 0, 72, 0
2, 38280, Note_on_c, 0, 72, 99
2, 38280, Note_on_c, 0, 84, 99
2, 38400, Note_on_c, 0, 84, 0
2, 38400, Note_on_c, 0, 72, 0
2, 38400, Note_on_c, 0, 72, 111
2, 38400, Note_on_c, 0, 84, 111
2, 38520, Note_on_c, 0, 84, 0
2, 38520, Note_on_c, 0, 72, 0
2, 38520, Note_on_c, 0, 65, 121
2, 38520, Note_on_c, 0, 77, 121
2, 38640, Note_on_c, 0, 77, 0
2, 38640, Note_on_c, 0, 65, 0
2, 38760, Note_on_c, 0, 89, 89
2, 38760, Note_on_c, 0, 77, 89
2, 38880, Note_on_c, 0, 77, 0
2, 38880, Note_on_c, 0, 89, 0
2, 38880, Note_on_c, 0, 89, 89
2, 38880, Note_on_c, 0, 77, 89
2, 39000, Note_on_c, 0, 77, 0
2, 39000, Note_on_c, 0, 89, 0
2, 39000, Note_on_c, 0, 89, 89
2, 39000, Note_on_c, 0, 77, 89
2, 39120, Note_on_c, 0, 77, 0
2, 39120, Note_on_c, 0, 89, 0
2, 39120, Note_on_c, 0, 89, 89
2, 39120, Note_on_c, 0, 77, 89
2, 39240, Note_on_c, 0, 77, 0
2, 39240, Note_on_c, 0, 89, 0
2, 39240, Note_on_c, 0, 71, 89
2, 39240, Note_on_c, 0, 83, 89
2, 39480, Note_on_c, 0, 83, 0
2, 39480, Note_on_c, 0, 71, 0
2, 39480, Note_on_c, 0, 83, 89
2, 39480, Note_on_c, 0, 71, 89
2, 39600, Note_on_c, 0, 71, 0
2, 39600, Note_on_c, 0, 83, 0
2, 39600, Note_on_c, 0, 72, 89
2, 39600, Note_on_c, 0, 84, 89
2, 39720, Note_on_c, 0, 84, 0
2, 39720, Note_on_c, 0, 72, 0
2, 39720, Note_on_c, 0, 80, 80
2, 39780, Note_on_c, 0, 80, 0
2, 39780, Note_on_c, 0, 77, 85
2, 39840, Note_on_c, 0, 77, 0
2, 39840, Note_on_c, 0, 79, 89
2, 39900, Note_on_c, 0, 79, 0
2, 39900, Note_on_c, 0, 75, 93
2, 39960, Note_on_c, 0, 75, 0
2, 39960, Note_on_c, 0, 77, 97
2, 40020, Note_on_c, 0, 77, 0
2, 40020, Note_on_c, 0, 74, 100
2, 40080, Note_on_c, 0, 74, 0
2, 40080, Note_on_c, 0, 75, 103
2, 40140, Note_on_c, 0, 75, 0
2, 40140, Note_on_c, 0, 72, 106
2, 40200, Note_on_c, 0, 72, 0
2, 40200, Note_on_c, 0, 74, 108
2, 40260, Note_on_c, 0, 74, 0
2, 40260, Note_on_c, 0, 71, 111
2, 40320, Note_on_c, 0, 71, 0
2, 40320, Note_on_c, 0, 72, 115
2, 40440, Note_on_c, 0, 72, 0
2, 40560, Note_on_c, 0, 67, 124
2, 40560, Note_on_c, 0, 71, 124
2, 40560, Note_on_c, 0, 74, 124
2, 40560, Note_on_c, 0, 77, 124
2, 40560, Note_on_c, 0, 79, 124
2, 40680, Note_on_c, 0, 79, 0
2, 40680, Note_on_c, 0, 74, 0
2, 40680, Note_on_c, 0, 67, 0
2, 40680, Note_on_c, 0, 71, 0
2, 40680, Note_on_c, 0, 77, 0
2, 40680, Note_on_c, 0, 67, 123
2, 40680, Note_on_c, 0, 71, 123
2, 40680, Note_on_c, 0, 74, 123
2, 40680, Note_on_c, 0, 77, 123
2, 40680, Note_on_c, 0, 79, 123
2, 40800, Note_on_c, 0, 79, 0
2, 40800, Note_on_c, 0, 74, 0
2, 40800, Note_on_c, 0, 67, 0
2, 40800, Note_on_c, 0, 71, 0
2, 40800, Note_on_c, 0, 77, 0
2, 40800, Note_on_c, 0, 67, 121
2, 40800, Note_on_c, 0, 71, 121
2, 40800, Note_on_c, 0, 74, 121
2, 40800, Note_on_c, 0, 77, 121
2, 40800, Note_on_c, 0, 79, 121
2, 40920, Note_on_c, 0, 79, 0
2, 40920, Note_on_c, 0, 74, 0
2, 40920, Note_on_c, 0, 67, 0
2, 40920, Note_on_c, 0, 71, 0
2, 40920, Note_on_c, 0, 77, 0
2, 40920, Note_on_c, 0, 67, 121
2, 40920, Note_on_c, 0, 71, 121
2, 40920, Note_on_c, 0, 74, 121
2, 40920, Note_on_c, 0, 77, 121
2, 40920, Note_on_c, 0, 79, 121
2, 41040, Note_on_c, 0, 79, 0
2, 41040, Note_on_c, 0, 74, 0
2, 41040, Note_on_c, 0, 67, 0
2, 41040, Note_on_c, 0, 71, 0
2, 41040, Note_on_c, 0, 77, 0
2, 41040, Note_on_c, 0, 72, 121
2, 41040, Note_on_c, 0, 75, 121
2, 41040, Note_on_c, 0, 79, 121
2, 41040, Note_on_c, 0, 84, 121
2, 41160, Note_on_c, 0, 84, 0
2, 41160, Note_on_c, 0, 72, 0
2, 41160, Note_on_c, 0, 75, 0
2, 41160, Note_on_c, 0, 79, 0
2, 41280, Note_on_c, 0, 59, 121
2, 41280, Note_on_c, 0, 62, 121
2, 41280, Note_on_c, 0, 65, 121
2, 41280, Note_on_c, 0, 67, 121
2, 41400, Note_on_c, 0, 67, 0
2, 41400, Note_on_c, 0, 59, 0
2, 41400, Note_on_c, 0, 62, 0
2, 41400, Note_on_c, 0, 65, 0
2, 41400, Note_on_c, 0, 59, 121
2, 41400, Note_on_c, 0, 62, 121
2, 41400, Note_on_c, 0, 65, 121
2, 41400, Note_on_c, 0, 67, 121
2, 41520, Note_on_c, 0, 67, 0
2, 41520, Note_on_c, 0, 59, 0
2, 41520, Note_on_c, 0, 62, 0
2, 41520, Note_on_c, 0, 65, 0
2, 41520, Note_on_c, 0, 59, 121
2, 41520, Note_on_c, 0, 62, 121
2, 41520, Note_on_c, 0, 65, 121
2, 41520, Note_on_c, 0, 67, 121
2, 41640, Note_on_c, 0, 67, 0
2, 41640, Note_on_c, 0, 59, 0
2, 41640, Note_on_c, 0, 62, 0
2, 41640, Note_on_c, 0, 65, 0
2, 41640, Note_on_c, 0, 59, 121
2, 41640, Note_on_c, 0, 62, 121
2, 41640, Note_on_c, 0, 65, 121
2, 41640, Note_on_c, 0, 67, 121
2, 41760, Note_on_c, 0, 67, 0
2, 41760, Note_on_c, 0, 59, 0
2, 41760, Note_on_c, 0, 62, 0
2, 41760, Note_on_c, 0, 65, 0
2, 41760, Note_on_c, 0, 60, 121
2, 41880, Note_on_c, 0, 60, 0
2, 42000, Note_on_c, 0, 67, 124
2, 42000, Note_on_c, 0, 71, 124
2, 42000, Note_on_c, 0, 74, 124
2, 42000, Note_on_c, 0, 77, 124
2, 42000, Note_on_c, 0, 79, 124
2, 42120, Note_on_c, 0, 79, 0
2, 42120, Note_on_c, 0, 74, 0
2, 42120, Note_on_c, 0, 67, 0
2, 42120, Note_on_c, 0, 71, 0
2, 42120, Note_on_c, 0, 77, 0
2, 42120, Note_on_c, 0, 67, 123
2, 42120, Note_on_c, 0, 71, 123
2, 42120, Note_on_c, 0, 74, 123
2, 42120, Note_on_c, 0, 77, 123
2, 42120, Note_on_c, 0, 79, 123
2, 42240, Note_on_c, 0, 79, 0
2, 42240, Note_on_c, 0, 74, 0
2, 42240, Note_on_c, 0, 67, 0
2, 42240, Note_on_c, 0, 71, 0
2, 42240, Note_on_c, 0, 77, 0
2, 42240, Note_on_c, 0, 67, 121
2, 42240, Note_on_c, 0, 71, 121
2, 42240, Note_on_c, 0, 74, 121
2, 42240, Note_on_c, 0, 77, 121
2, 42240, Note_on_c, 0, 79, 121
2, 42360, Note_on_c, 0, 79, 0
2, 42360, Note_on_c, 0, 74, 0
2, 42360, Note_on_c, 0, 67, 0
2, 42360, Note_on_c, 0, 71, 0
2, 42360, Note_on_c, 0, 77, 0
2, 42360, Note_on_c, 0, 67, 121
2, 42360, Note_on_c, 0, 71, 121
2, 42360, Note_on_c, 0, 74, 121
2, 42360, Note_on_c, 0, 77, 121
2, 42360, Note_on_c, 0, 79, 121
2, 42480, Note_on_c, 0, 79, 0
2, 42480, Note_on_c, 0, 74, 0
2, 42480, Note_on_c, 0, 67, 0
2, 42480, Note_on_c, 0, 71, 0
2, 42480, Note_on_c, 0, 77, 0
2, 42480, Note_on_c, 0, 72, 121
2, 42480, Note_on_c, 0, 75, 121
2, 42480, Note_on_c, 0, 79, 121
2, 42480, Note_on_c, 0, 84, 121
2, 42600, Note_on_c, 0, 84, 0
2, 42600, Note_on_c, 0, 72, 0
2, 42600, Note_on_c, 0, 75, 0
2, 42600, Note_on_c, 0, 79, 0
2, 42720, Note_on_c, 0, 59, 121
2, 42720, Note_on_c, 0, 62, 121
2, 42720, Note_on_c, 0, 65, 121
2, 42720, Note_on_c, 0, 67, 121
2, 42840, Note_on_c, 0, 67, 0
2, 42840, Note_on_c, 0, 59, 0
2, 42840, Note_on_c, 0, 62, 0
2, 42840, Note_on_c, 0, 65, 0
2, 42840, Note_on_c, 0, 59, 121
2, 42840, Note_on_c, 0, 62, 121
2, 42840, Note_on_c, 0, 65, 121
2, 42840, Note_on_c, 0, 67, 121
2, 42960, Note_on_c, 0, 67, 0
2, 42960, Note_on_c, 0, 59, 0
2, 42960, Note_on_c, 0, 62, 0
2, 42960, Note_on_c, 0, 65, 0
2, 42960, Note_on_c, 0, 59, 121
2, 42960, Note_on_c, 0, 62, 121
2, 42960, Note_on_c, 0, 65, 121
2, 42960, Note_on_c, 0, 67, 121
2, 43080, Note_on_c, 0, 67, 0
2, 43080, Note_on_c, 0, 59, 0
2, 43080, Note_on_c, 0, 62, 0
2, 43080, Note_on_c, 0, 65, 0
2, 43080, Note_on_c, 0, 59, 121
2, 43080, Note_on_c, 0, 62, 121
2, 43080, Note_on_c, 0, 65, 121
2, 43080, Note_on_c, 0, 67, 121
2, 43200, Note_on_c, 0, 67, 0
2, 43200, Note_on_c, 0, 59, 0
2, 43200, Note_on_c, 0, 62, 0
2, 43200, Note_on_c, 0, 65, 0
2, 43200, Note_on_c, 0, 60, 127
2, 43320, Note_on_c, 0, 60, 0
2, 43440, Note_on_c, 0, 79, 74
2, 43560, Note_on_c, 0, 79, 0
2, 43560, Note_on_c, 0, 79, 74
2, 43680, Note_on_c, 0, 79, 0
2, 43680, Note_on_c, 0, 79, 75
2, 43800, Note_on_c, 0, 79, 0
2, 43800, Note_on_c, 0, 79, 76
2, 43800, Note_on_c, 0, 75, 76
2, 43920, Note_on_c, 0, 75, 0
2, 43920, Note_on_c, 0, 79, 0
2, 43920, Note_on_c, 0, 75, 76
2, 43920, Note_on_c, 0, 72, 76
2, 44040, Note_on_c, 0, 72, 0
2, 44040, Note_on_c, 0, 75, 0
2, 44040, Note_on_c, 0, 75, 76
2, 44160, Note_on_c, 0, 75, 0
2, 44160, Note_on_c, 0, 77, 76
2, 44160, Note_on_c, 0, 75, 76
2, 44280, Note_on_c, 0, 75, 0
2, 44280, Note_on_c, 0, 77, 0
2, 44280, Note_on_c, 0, 69, 78
2, 44280, Note_on_c, 0, 77, 78
2, 44400, Note_on_c, 0, 77, 0
2, 44400, Note_on_c, 0, 69, 0
2, 44400, Note_on_c, 0, 77, 79
2, 44520, Note_on_c, 0, 77, 0
2, 44520, Note_on_c, 0, 74, 81
2, 44520, Note_on_c, 0, 77, 81
2, 44640, Note_on_c, 0, 77, 0
2, 44640, Note_on_c, 0, 74, 0
2, 44640, Note_on_c, 0, 74, 83
2, 44640, Note_on_c, 0, 70, 83
2, 44760, Note_on_c, 0, 70, 0
2, 44760, Note_on_c, 0, 74, 0
2, 44760, Note_on_c, 0, 74, 83
2, 44880, Note_on_c, 0, 74, 0
2, 44880, Note_on_c, 0, 74, 83
2, 44880, Note_on_c, 0, 75, 83
2, 45000, Note_on_c, 0, 75, 0
2, 45000, Note_on_c, 0, 74, 0
2, 45000, Note_on_c, 0, 67, 83
2, 45000, Note_on_c, 0, 75, 83
2, 45120, Note_on_c, 0, 75, 0
2, 45120, Note_on_c, 0, 67, 0
2, 45120, Note_on_c, 0, 75, 83
2, 45240, Note_on_c, 0, 75, 0
2, 45240, Note_on_c, 0, 72, 84
2, 45240, Note_on_c, 0, 75, 84
2, 45360, Note_on_c, 0, 75, 0
2, 45360, Note_on_c, 0, 72, 0
2, 45360, Note_on_c, 0, 72, 84
2, 45360, Note_on_c, 0, 69, 84
2, 45480, Note_on_c, 0, 69, 0
2, 45480, Note_on_c, 0, 72, 0
2, 45480, Note_on_c, 0, 66, 84
2, 45480, Note_on_c, 0, 74, 84
2, 45600, Note_on_c, 0, 74, 0
2, 45600, Note_on_c, 0, 66, 0
2, 45600, Note_on_c, 0, 70, 84
2, 45600, Note_on_c, 0, 67, 84
2, 45720, Note_on_c, 0, 67, 0
2, 45720, Note_on_c, 0, 70, 0
2, 45720, Note_on_c, 0, 64, 84
2, 45720, Note_on_c, 0, 72, 84
2, 45840, Note_on_c, 0, 72, 0
2, 45840, Note_on_c, 0, 64, 0
2, 45840, Note_on_c, 0, 69, 84
2, 45840, Note_on_c, 0, 66, 84
2, 45960, Note_on_c, 0, 66, 0
2, 45960, Note_on_c, 0, 69, 0
2, 45960, Note_on_c, 0, 62, 86
2, 45960, Note_on_c, 0, 70, 86
2, 46080, Note_on_c, 0, 70, 0
2, 46080, Note_on_c, 0, 62, 0
2, 46080, Note_on_c, 0, 69, 87
2, 46200, Note_on_c, 0, 69, 0
2, 46200, Note_on_c, 0, 67, 88
2, 46320, Note_on_c, 0, 67, 0
2, 46320, Note_on_c, 0, 66, 89
2, 46440, Note_on_c, 0, 66, 0
2, 46440, Note_on_c, 0, 67, 89
2, 46545, Note_on_c, 0, 69, 89
2, 46560, Note_on_c, 0, 69, 0
2, 46560, Note_on_c, 0, 67, 0
2, 46560, Note_on_c, 0, 67, 89
2, 46620, Note_on_c, 0, 67, 0
2, 46620, Note_on_c, 0, 66, 89
2, 46680, Note_on_c, 0, 66, 0
2, 46680, Note_on_c, 0, 67, 89
2, 46800, Note_on_c, 0, 67, 0
2, 46800, Note_on_c, 0, 74, 89
2, 46905, Note_on_c, 0, 76, 89
2, 46920, Note_on_c, 0, 76, 0
2, 46920, Note_on_c, 0, 74, 0
2, 46920, Note_on_c, 0, 74, 89
2, 46980, Note_on_c, 0, 74, 0
2, 46980, Note_on_c, 0, 73, 89
2, 47040, Note_on_c, 0, 73, 0
2, 47040, Note_on_c, 0, 74, 89
2, 47160, Note_on_c, 0, 74, 0
2, 47160, Note_on_c, 0, 79, 89
2, 47265, Note_on_c, 0, 81, 89
2, 47280, Note_on_c, 0, 81, 0
2, 47280, Note_on_c, 0, 79, 0
2, 47280, Note_on_c, 0, 79, 89
2, 47340, Note_on_c, 0, 79, 0
2, 47340, Note_on_c, 0, 78, 89
2, 47400, Note_on_c, 0, 78, 0
2, 47400, Note_on_c, 0, 79, 89
2, 47505, Note_on_c, 0, 74, 89
2, 47520, Note_on_c, 0, 74, 0
2, 47520, Note_on_c, 0, 79, 0
2, 47520, Note_on_c, 0, 86, 109
2, 48000, Note_on_c, 0, 86, 0
2, 48000, Note_on_c, 0, 86, 89
2, 48060, Note_on_c, 0, 86, 0
2, 48060, Note_on_c, 0, 84, 89
2, 48120, Note_on_c, 0, 84, 0
2, 48120, Note_on_c, 0, 84, 89
2, 48180, Note_on_c, 0, 84, 0
2, 48180, Note_on_c, 0, 82, 89
2, 48240, Note_on_c, 0, 82, 0
2, 48240, Note_on_c, 0, 82, 89
2, 48300, Note_on_c, 0, 82, 0
2, 48300, Note_on_c, 0, 81, 89
2, 48360, Note_on_c, 0, 81, 0
2, 48360, Note_on_c, 0, 81, 89
2, 48420, Note_on_c, 0, 81, 0
2, 48420, Note_on_c, 0, 79, 89
2, 48480, Note_on_c, 0, 79, 0
2, 48480, Note_on_c, 0, 79, 89
2, 48540, Note_on_c, 0, 79, 0
2, 48540, Note_on_c, 0, 78, 89
2, 48600, Note_on_c, 0, 78, 0
2, 48600, Note_on_c, 0, 79, 109
2, 48600, Note_on_c, 0, 67, 119
2, 48720, Note_on_c, 0, 67, 0
2, 48720, Note_on_c, 0, 79, 0
2, 48720, Note_on_c, 0, 69, 88
2, 48760, Note_on_c, 0, 69, 0
2, 48760, Note_on_c, 0, 67, 90
2, 48800, Note_on_c, 0, 67, 0
2, 48800, Note_on_c, 0, 66, 95
2, 48840, Note_on_c, 0, 66, 0
2, 48840, Note_on_c, 0, 67, 98
2, 48960, Note_on_c, 0, 67, 0
2, 48960, Note_on_c, 0, 74, 110
2, 49080, Note_on_c, 0, 74, 0
2, 49080, Note_on_c, 0, 76, 81
2, 49120, Note_on_c, 0, 76, 0
2, 49120, Note_on_c, 0, 74, 84
2, 49160, Note_on_c, 0, 74, 0
2, 49160, Note_on_c, 0, 73, 88
2, 49200, Note_on_c, 0, 73, 0
2, 49200, Note_on_c, 0, 74, 92
2, 49320, Note_on_c, 0, 74, 0
2, 49320, Note_on_c, 0, 79, 120
2, 49440, Note_on_c, 0, 79, 0
2, 49440, Note_on_c, 0, 81, 72
2, 49480, Note_on_c, 0, 81, 0
2, 49480, Note_on_c, 0, 79, 77
2, 49520, Note_on_c, 0, 79, 0
2, 49520, Note_on_c, 0, 78, 80
2, 49560, Note_on_c, 0, 78, 0
2, 49560, Note_on_c, 0, 79, 85
2, 49680, Note_on_c, 0, 79, 0
2, 49680, Note_on_c, 0, 74, 110
2, 49680, Note_on_c, 0, 86, 110
2, 50040, Note_on_c, 0, 86, 0
2, 50040, Note_on_c, 0, 74, 0
2, 50040, Note_on_c, 0, 75, 124
2, 50160, Note_on_c, 0, 75, 0
2, 50160, Note_on_c, 0, 77, 84
2, 50200, Note_on_c, 0, 77, 0
2, 50200, Note_on_c, 0, 75, 87
2, 50240, Note_on_c, 0, 75, 0
2, 50240, Note_on_c, 0, 74, 89
2, 50280, Note_on_c, 0, 74, 0
2, 50280, Note_on_c, 0, 75, 91
2, 50400, Note_on_c, 0, 75, 0
2, 50400, Note_on_c, 0, 70, 106
2, 50400, Note_on_c, 0, 82, 106
2, 50760, Note_on_c, 0, 82, 0
2, 50760, Note_on_c, 0, 70, 0
2, 50760, Note_on_c, 0, 72, 120
2, 50880, Note_on_c, 0, 72, 0
2, 50880, Note_on_c, 0, 74, 86
2, 50920, Note_on_c, 0, 74, 0
2, 50920, Note_on_c, 0, 72, 90
2, 50960, Note_on_c, 0, 72, 0
2, 50960, Note_on_c, 0, 71, 93
2, 51000, Note_on_c, 0, 71, 0
2, 51000, Note_on_c, 0, 72, 96
2, 51120, Note_on_c, 0, 72, 0
2, 51120, Note_on_c, 0, 79, 109
2, 51120, Note_on_c, 0, 67, 109
2, 51600, Note_on_c, 0, 67, 0
2, 51600, Note_on_c, 0, 79, 0
2, 51600, Note_on_c, 0, 65, 69
2, 51600, Note_on_c, 0, 77, 69
2, 51720, Note_on_c, 0, 77, 0
2, 51720, Note_on_c, 0, 65, 0
2, 51720, Note_on_c, 0, 75, 71
2, 51720, Note_on_c, 0, 63, 71
2, 51960, Note_on_c, 0, 63, 0
2, 51960, Note_on_c, 0, 75, 0
2, 51960, Note_on_c, 0, 62, 74
2, 51960, Note_on_c, 0, 74, 74
2, 52080, Note_on_c, 0, 74, 0
2, 52080, Note_on_c, 0, 62, 0
2, 52080, Note_on_c, 0, 60, 75
2, 52080, Note_on_c, 0, 72, 75
2, 52200, Note_on_c, 0, 72, 0
2, 52200, Note_on_c, 0, 60, 0
2, 52200, Note_on_c, 0, 71, 72
2, 52200, Note_on_c, 0, 59, 72
2, 52320, Note_on_c, 0, 59, 0
2, 52320, Note_on_c, 0, 71, 0
2, 52320, Note_on_c, 0, 62, 67
2, 52380, Note_on_c, 0, 62, 0
2, 52380, Note_on_c, 0, 59, 67
2, 52440, Note_on_c, 0, 59, 0
2, 52440, Note_on_c, 0, 62, 67
2, 52440, Note_on_c, 0, 67, 67
2, 52500, Note_on_c, 0, 62, 0
2, 52500, Note_on_c, 0, 59, 67
2, 52560, Note_on_c, 0, 59, 0
2, 52560, Note_on_c, 0, 67, 0
2, 52560, Note_on_c, 0, 63, 67
2, 52560, Note_on_c, 0, 66, 67
2, 52680, Note_on_c, 0, 66, 0
2, 52680, Note_on_c, 0, 63, 0
2, 52680, Note_on_c, 0, 63, 67
2, 52680, Note_on_c, 0, 66, 67
2, 52800, Note_on_c, 0, 66, 0
2, 52800, Note_on_c, 0, 63, 0
2, 52800, Note_on_c, 0, 63, 67
2, 52800, Note_on_c, 0, 66, 67
2, 52920, Note_on_c, 0, 66, 0
2, 52920, Note_on_c, 0, 63, 0
2, 52980, Note_on_c, 0, 62, 67
2, 53040, Note_on_c, 0, 62, 0
2, 53040, Note_on_c, 0, 67, 67
2, 53100, Note_on_c, 0, 67, 0
2, 53100, Note_on_c, 0, 71, 67
2, 53160, Note_on_c, 0, 71, 0
2, 53160, Note_on_c, 0, 79, 66
2, 53160, Note_on_c, 0, 74, 66
2, 53220, Note_on_c, 0, 74, 0
2, 53220, Note_on_c, 0, 71, 66
2, 53280, Note_on_c, 0, 71, 0
2, 53280, Note_on_c, 0, 79, 0
2, 53280, Note_on_c, 0, 72, 67
2, 53280, Note_on_c, 0, 67, 89
2, 53280, Note_on_c, 0, 75, 67
2, 53280, Note_on_c, 0, 78, 67
2, 53340, Note_on_c, 0, 72, 0
2, 53340, Note_on_c, 0, 69, 67
2, 53400, Note_on_c, 0, 69, 0
2, 53400, Note_on_c, 0, 78, 0
2, 53400, Note_on_c, 0, 75, 0
2, 53400, Note_on_c, 0, 67, 0
2, 53400, Note_on_c, 0, 72, 67
2, 53400, Note_on_c, 0, 67, 89
2, 53400, Note_on_c, 0, 78, 67
2, 53400, Note_on_c, 0, 75, 67
2, 53460, Note_on_c, 0, 72, 0
2, 53460, Note_on_c, 0, 69, 67
2, 53520, Note_on_c, 0, 69, 0
2, 53520, Note_on_c, 0, 75, 0
2, 53520, Note_on_c, 0, 78, 0
2, 53520, Note_on_c, 0, 67, 0
2, 53520, Note_on_c, 0, 67, 89
2, 53520, Note_on_c, 0, 78, 67
2, 53520, Note_on_c, 0, 75, 67
2, 53520, Note_on_c, 0, 72, 67
2, 53580, Note_on_c, 0, 72, 0
2, 53580, Note_on_c, 0, 69, 67
2, 53640, Note_on_c, 0, 69, 0
2, 53640, Note_on_c, 0, 75, 0
2, 53640, Note_on_c, 0, 78, 0
2, 53640, Note_on_c, 0, 67, 0
2, 53640, Note_on_c, 0, 71, 67
2, 53640, Note_on_c, 0, 67, 67
2, 53640, Note_on_c, 0, 74, 67
2, 53640, Note_on_c, 0, 79, 67
2, 53700, Note_on_c, 0, 71, 0
2, 53700, Note_on_c, 0, 67, 67
2, 53760, Note_on_c, 0, 67, 0
2, 53760, Note_on_c, 0, 79, 0
2, 53760, Note_on_c, 0, 74, 0
2, 53760, Note_on_c, 0, 67, 0
2, 53760, Note_on_c, 0, 62, 67
2, 53820, Note_on_c, 0, 62, 0
2, 53820, Note_on_c, 0, 59, 67
2, 53880, Note_on_c, 0, 59, 0
2, 53880, Note_on_c, 0, 62, 67
2, 53880, Note_on_c, 0, 67, 67
2, 53940, Note_on_c, 0, 62, 0
2, 53940, Note_on_c, 0, 59, 67
2, 54000, Note_on_c, 0, 59, 0
2, 54000, Note_on_c, 0, 67, 0
2, 54000, Note_on_c, 0, 63, 67
2, 54000, Note_on_c, 0, 66, 67
2, 54120, Note_on_c, 0, 66, 0
2, 54120, Note_on_c, 0, 63, 0
2, 54120, Note_on_c, 0, 63, 67
2, 54120, Note_on_c, 0, 66, 67
2, 54240, Note_on_c, 0, 66, 0
2, 54240, Note_on_c, 0, 63, 0
2, 54240, Note_on_c, 0, 63, 67
2, 54240, Note_on_c, 0, 66, 67
2, 54360, Note_on_c, 0, 66, 0
2, 54360, Note_on_c, 0, 63, 0
2, 54420, Note_on_c, 0, 62, 67
2, 54480, Note_on_c, 0, 62, 0
2, 54480, Note_on_c, 0, 67, 67
2, 54540, Note_on_c, 0, 67, 0
2, 54540, Note_on_c, 0, 71, 67
2, 54600, Note_on_c, 0, 71, 0
2, 54600, Note_on_c, 0, 79, 66
2, 54600, Note_on_c, 0, 74, 66
2, 54660, Note_on_c, 0, 74, 0
2, 54660, Note_on_c, 0, 71, 66
2, 54720, Note_on_c, 0, 71, 0
2, 54720, Note_on_c, 0, 79, 0
2, 54720, Note_on_c, 0, 72, 67
2, 54720, Note_on_c, 0, 67, 89
2, 54720, Note_on_c, 0, 75, 67
2, 54720, Note_on_c, 0, 78, 67
2, 54780, Note_on_c, 0, 72, 0
2, 54780, Note_on_c, 0, 69, 67
2, 54840, Note_on_c, 0, 69, 0
2, 54840, Note_on_c, 0, 78, 0
2, 54840, Note_on_c, 0, 75, 0
2, 54840, Note_on_c, 0, 67, 0
2, 54840, Note_on_c, 0, 72, 67
2, 54840, Note_on_c, 0, 67, 89
2, 54840, Note_on_c, 0, 78, 67
2, 54840, Note_on_c, 0, 75, 67
2, 54900, Note_on_c, 0, 72, 0
2, 54900, Note_on_c, 0, 69, 67
2, 54960, Note_on_c, 0, 69, 0
2, 54960, Note_on_c, 0, 75, 0
2, 54960, Note_on_c, 0, 78, 0
2, 54960, Note_on_c, 0, 67, 0
2, 54960, Note_on_c, 0, 67, 89
2, 54960, Note_on_c, 0, 78, 67
2, 54960, Note_on_c, 0, 75, 67
2, 54960, Note_on_c, 0, 72, 67
2, 55020, Note_on_c, 0, 72, 0
2, 55020, Note_on_c, 0, 69, 67
2, 55080, Note_on_c, 0, 69, 0
2, 55080, Note_on_c, 0, 75, 0
2, 55080, Note_on_c, 0, 78, 0
2, 55080, Note_on_c, 0, 67, 0
2, 55080, Note_on_c, 0, 74, 73
2, 55080, Note_on_c, 0, 79, 73
2, 55080, Note_on_c, 0, 67, 73
2, 55140, Note_on_c, 0, 74, 0
2, 55140, Note_on_c, 0, 71, 75
2, 55200, Note_on_c, 0, 71, 0
2, 55200, Note_on_c, 0, 67, 0
2, 55200, Note_on_c, 0, 79, 0
2, 55200, Note_on_c, 0, 72, 76
2, 55200, Note_on_c, 0, 77, 76
2, 55260, Note_on_c, 0, 72, 0
2, 55260, Note_on_c, 0, 68, 77
2, 55320, Note_on_c, 0, 68, 0
2, 55320, Note_on_c, 0, 77, 0
2, 55320, Note_on_c, 0, 70, 77
2, 55320, Note_on_c, 0, 75, 77
2, 55380, Note_on_c, 0, 70, 0
2, 55380, Note_on_c, 0, 67, 77
2, 55440, Note_on_c, 0, 67, 0
2, 55440, Note_on_c, 0, 75, 0
2, 55440, Note_on_c, 0, 68, 77
2, 55440, Note_on_c, 0, 74, 77
2, 55500, Note_on_c, 0, 68, 0
2, 55500, Note_on_c, 0, 65, 77
2, 55560, Note_on_c, 0, 65, 0
2, 55560, Note_on_c, 0, 74, 0
2, 55560, Note_on_c, 0, 67, 76
2, 55560, Note_on_c, 0, 72, 76
2, 55620, Note_on_c, 0, 67, 0
2, 55620, Note_on_c, 0, 63, 76
2, 55680, Note_on_c, 0, 63, 0
2, 55680, Note_on_c, 0, 72, 0
2, 55680, Note_on_c, 0, 65, 74
2, 55680, Note_on_c, 0, 71, 74
2, 55740, Note_on_c, 0, 65, 0
2, 55740, Note_on_c, 0, 62, 73
2, 55800, Note_on_c, 0, 62, 0
2, 55800, Note_on_c, 0, 71, 0
2, 55800, Note_on_c, 0, 63, 71
2, 55800, Note_on_c, 0, 72, 71
2, 55860, Note_on_c, 0, 72, 0
2, 55860, Note_on_c, 0, 63, 0
2, 55860, Note_on_c, 0, 60, 68
2, 55920, Note_on_c, 0, 60, 0
2, 55920, Note_on_c, 0, 63, 65
2, 55980, Note_on_c, 0, 63, 0
2, 55980, Note_on_c, 0, 67, 64
2, 56040, Note_on_c, 0, 67, 0
2, 56040, Note_on_c, 0, 60, 69
2, 56040, Note_on_c, 0, 63, 69
2, 56040, Note_on_c, 0, 72, 69
2, 56145, Note_on_c, 0, 74, 89
2, 56150, Note_on_c, 0, 74, 0
2, 56160, Note_on_c, 0, 60, 0
2, 56160, Note_on_c, 0, 63, 0
2, 56160, Note_on_c, 0, 72, 0
2, 56160, Note_on_c, 0, 72, 94
2, 56160, Note_on_c, 0, 67, 94
2, 56160, Note_on_c, 0, 63, 94
2, 56280, Note_on_c, 0, 63, 0
2, 56280, Note_on_c, 0, 67, 0
2, 56280, Note_on_c, 0, 72, 0
2, 56280, Note_on_c, 0, 72, 82
2, 56280, Note_on_c, 0, 63, 82
2, 56280, Note_on_c, 0, 67, 82
2, 56340, Note_on_c, 0, 72, 0
2, 56340, Note_on_c, 0, 71, 93
2, 56400, Note_on_c, 0, 71, 0
2, 56400, Note_on_c, 0, 67, 0
2, 56400, Note_on_c, 0, 63, 0
2, 56400, Note_on_c, 0, 72, 106
2, 56400, Note_on_c, 0, 63, 106
2, 56400, Note_on_c, 0, 67, 106
2, 56520, Note_on_c, 0, 67, 0
2, 56520, Note_on_c, 0, 63, 0
2, 56520, Note_on_c, 0, 72, 0
2, 56520, Note_on_c, 0, 71, 85
2, 56520, Note_on_c, 0, 75, 85
2, 56520, Note_on_c, 0, 67, 85
2, 56520, Note_on_c, 0, 65, 85
2, 56580, Note_on_c, 0, 75, 0
2, 56580, Note_on_c, 0, 71, 0
2, 56580, Note_on_c, 0, 74, 96
2, 56640, Note_on_c, 0, 74, 0
2, 56640, Note_on_c, 0, 67, 0
2, 56640, Note_on_c, 0, 65, 0
2, 56640, Note_on_c, 0, 72, 102
2, 56640, Note_on_c, 0, 63, 102
2, 56640, Note_on_c, 0, 67, 102
2, 56760, Note_on_c, 0, 67, 0
2, 56760, Note_on_c, 0, 63, 0
2, 56760, Note_on_c, 0, 72, 0
2, 56760, Note_on_c, 0, 80, 77
2, 56820, Note_on_c, 0, 80, 0
2, 56820, Note_on_c, 0, 72, 79
2, 56880, Note_on_c, 0, 72, 0
2, 56880, Note_on_c, 0, 79, 80
2, 56940, Note_on_c, 0, 79, 0
2, 56940, Note_on_c, 0, 70, 82
2, 57000, Note_on_c, 0, 70, 0
2, 57000, Note_on_c, 0, 77, 83
2, 57060, Note_on_c, 0, 77, 0
2, 57060, Note_on_c, 0, 68, 85
2, 57120, Note_on_c, 0, 68, 0
2, 57120, Note_on_c, 0, 76, 86
2, 57180, Note_on_c, 0, 76, 0
2, 57180, Note_on_c, 0, 67, 88
2, 57240, Note_on_c, 0, 67, 0
2, 57240, Note_on_c, 0, 77, 90
2, 57300, Note_on_c, 0, 77, 0
2, 57300, Note_on_c, 0, 65, 92
2, 57360, Note_on_c, 0, 65, 0
2, 57360, Note_on_c, 0, 68, 94
2, 57420, Note_on_c, 0, 68, 0
2, 57420, Note_on_c, 0, 72, 95
2, 57480, Note_on_c, 0, 72, 0
2, 57480, Note_on_c, 0, 72, 98
2, 57480, Note_on_c, 0, 68, 98
2, 57480, Note_on_c, 0, 77, 98
2, 57585, Note_on_c, 0, 79, 104
2, 57592, Note_on_c, 0, 79, 0
2, 57600, Note_on_c, 0, 72, 0
2, 57600, Note_on_c, 0, 68, 0
2, 57600, Note_on_c, 0, 77, 0
2, 57600, Note_on_c, 0, 77, 106
2, 57600, Note_on_c, 0, 72, 106
2, 57600, Note_on_c, 0, 68, 106
2, 57720, Note_on_c, 0, 68, 0
2, 57720, Note_on_c, 0, 72, 0
2, 57720, Note_on_c, 0, 77, 0
2, 57720, Note_on_c, 0, 77, 114
2, 57720, Note_on_c, 0, 72, 114
2, 57720, Note_on_c, 0, 68, 114
2, 57780, Note_on_c, 0, 77, 0
2, 57780, Note_on_c, 0, 76, 98
2, 57840, Note_on_c, 0, 76, 0
2, 57840, Note_on_c, 0, 68, 0
2, 57840, Note_on_c, 0, 72, 0
2, 57840, Note_on_c, 0, 77, 98
2, 57840, Note_on_c, 0, 72, 98
2, 57840, Note_on_c, 0, 68, 98
2, 57960, Note_on_c, 0, 68, 0
2, 57960, Note_on_c, 0, 72, 0
2, 57960, Note_on_c, 0, 77, 0
2, 57960, Note_on_c, 0, 70, 98
2, 57960, Note_on_c, 0, 72, 98
2, 57960, Note_on_c, 0, 76, 98
2, 57960, Note_on_c, 0, 80, 98
2, 58020, Note_on_c, 0, 80, 0
2, 58020, Note_on_c, 0, 76, 0
2, 58020, Note_on_c, 0, 79, 98
2, 58080, Note_on_c, 0, 79, 0
2, 58080, Note_on_c, 0, 72, 0
2, 58080, Note_on_c, 0, 70, 0
2, 58080, Note_on_c, 0, 72, 98
2, 58080, Note_on_c, 0, 68, 98
2, 58080, Note_on_c, 0, 77, 98
2, 58200, Note_on_c, 0, 77, 0
2, 58200, Note_on_c, 0, 68, 0
2, 58200, Note_on_c, 0, 72, 0
2, 58200, Note_on_c, 0, 72, 97
2, 58200, Note_on_c, 0, 84, 97
2, 58320, Note_on_c, 0, 84, 0
2, 58320, Note_on_c, 0, 72, 0
2, 58320, Note_on_c, 0, 72, 97
2, 58320, Note_on_c, 0, 84, 97
2, 58440, Note_on_c, 0, 84, 0
2, 58440, Note_on_c, 0, 72, 0
2, 58440, Note_on_c, 0, 72, 99
2, 58440, Note_on_c, 0, 84, 99
2, 58560, Note_on_c, 0, 84, 0
2, 58560, Note_on_c, 0, 72, 0
2, 58560, Note_on_c, 0, 72, 111
2, 58560, Note_on_c, 0, 84, 111
2, 58680, Note_on_c, 0, 84, 0
2, 58680, Note_on_c, 0, 72, 0
2, 58680, Note_on_c, 0, 65, 121
2, 58680, Note_on_c, 0, 77, 121
2, 58800, Note_on_c, 0, 77, 0
2, 58800, Note_on_c, 0, 65, 0
2, 58920, Note_on_c, 0, 89, 89
2, 58920, Note_on_c, 0, 77, 89
2, 59040, Note_on_c, 0, 77, 0
2, 59040, Note_on_c, 0, 89, 0
2, 59040, Note_on_c, 0, 89, 89
2, 59040, Note_on_c, 0, 77, 89
2, 59160, Note_on_c, 0, 77, 0
2, 59160, Note_on_c, 0, 89, 0
2, 59160, Note_on_c, 0, 89, 89
2, 59160, Note_on_c, 0, 77, 89
2, 59280, Note_on_c, 0, 77, 0
2, 59280, Note_on_c, 0, 89, 0
2, 59280, Note_on_c, 0, 89, 89
2, 59280, Note_on_c, 0, 77, 89
2, 59400, Note_on_c, 0, 77, 0
2, 59400, Note_on_c, 0, 89, 0
2, 59400, Note_on_c, 0, 71, 89
2, 59400, Note_on_c, 0, 83, 89
2, 59640, Note_on_c, 0, 83, 0
2, 59640, Note_on_c, 0, 71, 0
2, 59640, Note_on_c, 0, 83, 89
2, 59640, Note_on_c, 0, 71, 89
2, 59760, Note_on_c, 0, 71, 0
2, 59760, Note_on_c, 0, 83, 0
2, 59760, Note_on_c, 0, 72, 89
2, 59760, Note_on_c, 0, 84, 89
2, 59880, Note_on_c, 0, 84, 0
2, 59880, Note_on_c, 0, 72, 0
2, 59880, Note_on_c, 0, 80, 80
2, 59940, Note_on_c, 0, 80, 0
2, 59940, Note_on_c, 0, 77, 85
2, 60000, Note_on_c, 0, 77, 0
2, 60000, Note_on_c, 0, 79, 89
2, 60060, Note_on_c, 0, 79, 0
2, 60060, Note_on_c, 0, 75, 93
2, 60120, Note_on_c, 0, 75, 0
2, 60120, Note_on_c, 0, 77, 97
2, 60180, Note_on_c, 0, 77, 0
2, 60180, Note_on_c, 0, 74, 100
2, 60240, Note_on_c, 0, 74, 0
2, 60240, Note_on_c, 0, 75, 103
2, 60300, Note_on_c, 0, 75, 0
2, 60300, Note_on_c, 0, 72, 106
2, 60360, Note_on_c, 0, 72, 0
2, 60360, Note_on_c, 0, 74, 108
2, 60420, Note_on_c, 0, 74, 0
2, 60420, Note_on_c, 0, 71, 111
2, 60480, Note_on_c, 0, 71, 0
2, 60480, Note_on_c, 0, 72, 115
2, 60600, Note_on_c, 0, 72, 0
2, 60720, Note_on_c, 0, 67, 124
2, 60720, Note_on_c, 0, 71, 124
2, 60720, Note_on_c, 0, 74, 124
2, 60720, Note_on_c, 0, 77, 124
2, 60720, Note_on_c, 0, 79, 124
2, 60840, Note_on_c, 0, 79, 0
2, 60840, Note_on_c, 0, 74, 0
2, 60840, Note_on_c, 0, 67, 0
2, 60840, Note_on_c, 0, 71, 0
2, 60840, Note_on_c, 0, 77, 0
2, 60840, Note_on_c, 0, 67, 123
2, 60840, Note_on_c, 0, 71, 123
2, 60840, Note_on_c, 0, 74, 123
2, 60840, Note_on_c, 0, 77, 123
2, 60840, Note_on_c, 0, 79, 123
2, 60960, Note_on_c, 0, 79, 0
2, 60960, Note_on_c, 0, 74, 0
2, 60960, Note_on_c, 0, 67, 0
2, 60960, Note_on_c, 0, 71, 0
2, 60960, Note_on_c, 0, 77, 0
2, 60960, Note_on_c, 0, 67, 121
2, 60960, Note_on_c, 0, 71, 121
2, 60960, Note_on_c, 0, 74, 121
2, 60960, Note_on_c, 0, 77, 121
2, 60960, Note_on_c, 0, 79, 121
2, 61080, Note_on_c, 0, 79, 0
2, 61080, Note_on_c, 0, 74, 0
2, 61080, Note_on_c, 0, 67, 0
2, 61080, Note_on_c, 0, 71, 0
2, 61080, Note_on_c, 0, 77, 0
2, 61080, Note_on_c, 0, 67, 121
2, 61080, Note_on_c, 0, 71, 121
2, 61080, Note_on_c, 0, 74, 121
2, 61080, Note_on_c, 0, 77, 121
2, 61080, Note_on_c, 0, 79, 121
2, 61200, Note_on_c, 0, 79, 0
2, 61200, Note_on_c, 0, 74, 0
2, 61200, Note_on_c, 0, 67, 0
2, 61200, Note_on_c, 0, 71, 0
2, 61200, Note_on_c, 0, 77, 0
2, 61200, Note_on_c, 0, 72, 121
2, 61200, Note_on_c, 0, 75, 121
2, 61200, Note_on_c, 0, 79, 121
2, 61200, Note_on_c, 0, 84, 121
2, 61320, Note_on_c, 0, 84, 0
2, 61320, Note_on_c, 0, 72, 0
2, 61320, Note_on_c, 0, 75, 0
2, 61320, Note_on_c, 0, 79, 0
2, 61440, Note_on_c, 0, 59, 121
2, 61440, Note_on_c, 0, 62, 121
2, 61440, Note_on_c, 0, 65, 121
2, 61440, Note_on_c, 0, 67, 121
2, 61560, Note_on_c, 0, 67, 0
2, 61560, Note_on_c, 0, 59, 0
2, 61560, Note_on_c, 0, 62, 0
2, 61560, Note_on_c, 0, 65, 0
2, 61560, Note_on_c, 0, 59, 121
2, 61560, Note_on_c, 0, 62, 121
2, 61560, Note_on_c, 0, 65, 121
2, 61560, Note_on_c, 0, 67, 121
2, 61680, Note_on_c, 0, 67, 0
2, 61680, Note_on_c, 0, 59, 0
2, 61680, Note_on_c, 0, 62, 0
2, 61680, Note_on_c, 0, 65, 0
2, 61680, Note_on_c, 0, 59, 121
2, 61680, Note_on_c, 0, 62, 121
2, 61680, Note_on_c, 0, 65, 121
2, 61680, Note_on_c, 0, 67, 121
2, 61800, Note_on_c, 0, 67, 0
2, 61800, Note_on_c, 0, 59, 0
2, 61800, Note_on_c, 0, 62, 0
2, 61800, Note_on_c, 0, 65, 0
2, 61800, Note_on_c, 0, 59, 121
2, 61800, Note_on_c, 0, 62, 121
2, 61800, Note_on_c, 0, 65, 121
2, 61800, Note_on_c, 0, 67, 121
2, 61920, Note_on_c, 0, 67, 0
2, 61920, Note_on_c, 0, 59, 0
2, 61920, Note_on_c, 0, 62, 0
2, 61920, Note_on_c, 0, 65, 0
2, 61920, Note_on_c, 0, 60, 121
2, 62040, Note_on_c, 0, 60, 0
2, 62160, Note_on_c, 0, 67, 124
2, 62160, Note_on_c, 0, 71, 124
2, 62160, Note_on_c, 0, 74, 124
2, 62160, Note_on_c, 0, 77, 124
2, 62160, Note_on_c, 0, 79, 124
2, 62280, Note_on_c, 0, 79, 0
2, 62280, Note_on_c, 0, 74, 0
2, 62280, Note_on_c, 0, 67, 0
2, 62280, Note_on_c, 0, 71, 0
2, 62280, Note_on_c, 0, 77, 0
2, 62280, Note_on_c, 0, 67, 123
2, 62280, Note_on_c, 0, 71, 123
2, 62280, Note_on_c, 0, 74, 123
2, 62280, Note_on_c, 0, 77, 123
2, 62280, Note_on_c, 0, 79, 123
2, 62400, Note_on_c, 0, 79, 0
2, 62400, Note_on_c, 0, 74, 0
2, 62400, Note_on_c, 0, 67, 0
2, 62400, Note_on_c, 0, 71, 0
2, 62400, Note_on_c, 0, 77, 0
2, 62400, Note_on_c, 0, 67, 121
2, 62400, Note_on_c, 0, 71, 121
2, 62400, Note_on_c, 0, 74, 121
2, 62400, Note_on_c, 0, 77, 121
2, 62400, Note_on_c, 0, 79, 121
2, 62520, Note_on_c, 0, 79, 0
2, 62520, Note_on_c, 0, 74, 0
2, 62520, Note_on_c, 0, 67, 0
2, 62520, Note_on_c, 0, 71, 0
2, 62520, Note_on_c, 0, 77, 0
2, 62520, Note_on_c, 0, 67, 121
2, 62520, Note_on_c, 0, 71, 121
2, 62520, Note_on_c, 0, 74, 121
2, 62520, Note_on_c, 0, 77, 121
2, 62520, Note_on_c, 0, 79, 121
2, 62640, Note_on_c, 0, 79, 0
2, 62640, Note_on_c, 0, 74, 0
2, 62640, Note_on_c, 0, 67, 0
2, 62640, Note_on_c, 0, 71, 0
2, 62640, Note_on_c, 0, 77, 0
2, 62640, Note_on_c, 0, 72, 121
2, 62640, Note_on_c, 0, 75, 121
2, 62640, Note_on_c, 0, 79, 121
2, 62640, Note_on_c, 0, 84, 121
2, 62760, Note_on_c, 0, 84, 0
2, 62760, Note_on_c, 0, 72, 0
2, 62760, Note_on_c, 0, 75, 0
2, 62760, Note_on_c, 0, 79, 0
2, 62880, Note_on_c, 0, 59, 121
2, 62880, Note_on_c, 0, 62, 121
2, 62880, Note_on_c, 0, 65, 121
2, 62880, Note_on_c, 0, 67, 121
2, 63000, Note_on_c, 0, 67, 0
2, 63000, Note_on_c, 0, 59, 0
2, 63000, Note_on_c, 0, 62, 0
2, 63000, Note_on_c, 0, 65, 0
2, 63000, Note_on_c, 0, 59, 121
2, 63000, Note_on_c, 0, 62, 121
2, 63000, Note_on_c, 0, 65, 121
2, 63000, Note_on_c, 0, 67, 121
2, 63120, Note_on_c, 0, 67, 0
2, 63120, Note_on_c, 0, 59, 0
2, 63120, Note_on_c, 0, 62, 0
2, 63120, Note_on_c, 0, 65, 0
2, 63120, Note_on_c, 0, 59, 121
2, 63120, Note_on_c, 0, 62, 121
2, 63120, Note_on_c, 0, 65, 121
2, 63120, Note_on_c, 0, 67, 121
2, 63240, Note_on_c, 0, 67, 0
2, 63240, Note_on_c, 0, 59, 0
2, 63240, Note_on_c, 0, 62, 0
2, 63240, Note_on_c, 0, 65, 0
2, 63240, Note_on_c, 0, 59, 121
2, 63240, Note_on_c, 0, 62, 121
2, 63240, Note_on_c, 0, 65, 121
2, 63240, Note_on_c, 0, 67, 121
2, 63360, Note_on_c, 0, 67, 0
2, 63360, Note_on_c, 0, 59, 0
2, 63360, Note_on_c, 0, 62, 0
2, 63360, Note_on_c, 0, 65, 0
2, 63360, Note_on_c, 0, 60, 127
2, 63480, Note_on_c, 0, 60, 0
2, 63600, Note_on_c, 0, 72, 63
2, 63600, Note_on_c, 0, 76, 63
2, 63720, Note_on_c, 0, 76, 0
2, 63720, Note_on_c, 0, 72, 0
2, 63720, Note_on_c, 0, 71, 63
2, 63720, Note_on_c, 0, 74, 63
2, 63840, Note_on_c, 0, 74, 0
2, 63840, Note_on_c, 0, 71, 0
2, 63840, Note_on_c, 0, 69, 63
2, 63840, Note_on_c, 0, 72, 63
2, 63960, Note_on_c, 0, 72, 0
2, 63960, Note_on_c, 0, 69, 0
2, 63960, Note_on_c, 0, 71, 63
2, 63960, Note_on_c, 0, 67, 63
2, 64080, Note_on_c, 0, 67, 0
2, 64080, Note_on_c, 0, 71, 0
2, 64080, Note_on_c, 0, 65, 63
2, 64080, Note_on_c, 0, 69, 63
2, 64200, Note_on_c, 0, 69, 0
2, 64200, Note_on_c, 0, 65, 0
2, 64200, Note_on_c, 0, 64, 63
2, 64200, Note_on_c, 0, 67, 63
2, 64320, Note_on_c, 0, 67, 0
2, 64320, Note_on_c, 0, 64, 0
2, 64320, Note_on_c, 0, 62, 63
2, 64320, Note_on_c, 0, 65, 63
2, 64440, Note_on_c, 0, 65, 0
2, 64440, Note_on_c, 0, 62, 0
2, 64440, Note_on_c, 0, 60, 66
2, 64440, Note_on_c, 0, 64, 66
2, 64680, Note_on_c, 0, 64, 0
2, 64680, Note_on_c, 0, 60, 0
2, 64680, Note_on_c, 0, 62, 76
2, 64680, Note_on_c, 0, 67, 76
2, 64740, Note_on_c, 0, 67, 0
2, 64740, Note_on_c, 0, 62, 0
2, 64740, Note_on_c, 0, 65, 78
2, 64800, Note_on_c, 0, 65, 0
2, 64800, Note_on_c, 0, 60, 81
2, 64800, Note_on_c, 0, 64, 81
2, 64920, Note_on_c, 0, 64, 0
2, 64920, Note_on_c, 0, 60, 0
2, 65040, Note_on_c, 0, 76, 60
2, 65040, Note_on_c, 0, 79, 60
2, 65160, Note_on_c, 0, 79, 0
2, 65160, Note_on_c, 0, 76, 0
2, 65160, Note_on_c, 0, 74, 62
2, 65160, Note_on_c, 0, 77, 62
2, 65280, Note_on_c, 0, 77, 0
2, 65280, Note_on_c, 0, 74, 0
2, 65280, Note_on_c, 0, 72, 63
2, 65280, Note_on_c, 0, 76, 63
2, 65400, Note_on_c, 0, 76, 0
2, 65400, Note_on_c, 0, 72, 0
2, 65400, Note_on_c, 0, 74, 63
2, 65400, Note_on_c, 0, 71, 63
2, 65520, Note_on_c, 0, 71, 0
2, 65520, Note_on_c, 0, 74, 0
2, 65520, Note_on_c, 0, 69, 65
2, 65520, Note_on_c, 0, 72, 65
2, 65640, Note_on_c, 0, 72, 0
2, 65640, Note_on_c, 0, 69, 0
2, 65640, Note_on_c, 0, 67, 66
2, 65640, Note_on_c, 0, 71, 66
2, 65760, Note_on_c, 0, 71, 0
2, 65760, Note_on_c, 0, 67, 0
2, 65760, Note_on_c, 0, 65, 67
2, 65760, Note_on_c, 0, 69, 67
2, 65880, Note_on_c, 0, 69, 0
2, 65880, Note_on_c, 0, 65, 0
2, 65880, Note_on_c, 0, 64, 68
2, 65880, Note_on_c, 0, 67, 68
2, 66105, Note_on_c, 0, 71, 73
2, 66120, Note_on_c, 0, 71, 0
2, 66120, Note_on_c, 0, 67, 0
2, 66120, Note_on_c, 0, 64, 0
2, 66120, Note_on_c, 0, 69, 73
2, 66120, Note_on_c, 0, 65, 73
2, 66240, Note_on_c, 0, 65, 0
2, 66240, Note_on_c, 0, 69, 0
2, 66240, Note_on_c, 0, 64, 77
2, 66240, Note_on_c, 0, 67, 77
2, 66360, Note_on_c, 0, 67, 0
2, 66360, Note_on_c, 0, 64, 0
2, 66480, Note_on_c, 0, 72, 84
2, 66480, Note_on_c, 0, 76, 84
2, 66600, Note_on_c, 0, 76, 0
2, 66600, Note_on_c, 0, 72, 0
2, 66600, Note_on_c, 0, 74, 82
2, 66600, Note_on_c, 0, 77, 82
2, 66720, Note_on_c, 0, 77, 0
2, 66720, Note_on_c, 0, 74, 0
2, 66720, Note_on_c, 0, 76, 84
2, 66720, Note_on_c, 0, 79, 84
2, 66840, Note_on_c, 0, 79, 0
2, 66840, Note_on_c, 0, 76, 0
2, 66840, Note_on_c, 0, 77, 84
2, 66840, Note_on_c, 0, 81, 84
2, 66960, Note_on_c, 0, 81, 0
2, 66960, Note_on_c, 0, 77, 0
2, 66960, Note_on_c, 0, 83, 85
2, 66960, Note_on_c, 0, 79, 85
2, 67080, Note_on_c, 0, 79, 0
2, 67080, Note_on_c, 0, 83, 0
2, 67080, Note_on_c, 0, 84, 86
2, 67080, Note_on_c, 0, 81, 86
2, 67200, Note_on_c, 0, 81, 0
2, 67200, Note_on_c, 0, 84, 0
2, 67200, Note_on_c, 0, 86, 86
2, 67200, Note_on_c, 0, 83, 86
2, 67320, Note_on_c, 0, 83, 0
2, 67320, Note_on_c, 0, 86, 0
2, 67320, Note_on_c, 0, 88, 86
2, 67320, Note_on_c, 0, 84, 86
2, 67440, Note_on_c, 0, 84, 0
2, 67440, Note_on_c, 0, 88, 0
2, 67440, Note_on_c, 0, 83, 86
2, 67440, Note_on_c, 0, 80, 86
2, 67560, Note_on_c, 0, 80, 0
2, 67560, Note_on_c, 0, 83, 0
2, 67560, Note_on_c, 0, 84, 87
2, 67560, Note_on_c, 0, 81, 87
2, 67680, Note_on_c, 0, 81, 0
2, 67680, Note_on_c, 0, 84, 0
2, 67680, Note_on_c, 0, 86, 88
2, 67680, Note_on_c, 0, 83, 88
2, 67800, Note_on_c, 0, 83, 0
2, 67800, Note_on_c, 0, 86, 0
2, 67800, Note_on_c, 0, 81, 88
2, 67800, Note_on_c, 0, 78, 88
2, 67920, Note_on_c, 0, 78, 0
2, 67920, Note_on_c, 0, 81, 0
2, 67920, Note_on_c, 0, 83, 88
2, 67920, Note_on_c, 0, 79, 88
2, 68040, Note_on_c, 0, 79, 0
2, 68040, Note_on_c, 0, 83, 0
2, 68040, Note_on_c, 0, 84, 88
2, 68040, Note_on_c, 0, 81, 88
2, 68160, Note_on_c, 0, 81, 0
2, 68160, Note_on_c, 0, 84, 0
2, 68160, Note_on_c, 0, 79, 88
2, 68160, Note_on_c, 0, 76, 88
2, 68280, Note_on_c, 0, 76, 0
2, 68280, Note_on_c, 0, 79, 0
2, 68280, Note_on_c, 0, 81, 87
2, 68280, Note_on_c, 0, 78, 87
2, 68400, Note_on_c, 0, 78, 0
2, 68400, Note_on_c, 0, 81, 0
2, 68400, Note_on_c, 0, 83, 86
2, 68400, Note_on_c, 0, 79, 86
2, 68520, Note_on_c, 0, 79, 0
2, 68520, Note_on_c, 0, 83, 0
2, 68520, Note_on_c, 0, 72, 86
2, 68520, Note_on_c, 0, 78, 86
2, 68640, Note_on_c, 0, 78, 0
2, 68640, Note_on_c, 0, 72, 0
2, 68640, Note_on_c, 0, 79, 86
2, 68640, Note_on_c, 0, 74, 86
2, 68760, Note_on_c, 0, 74, 0
2, 68760, Note_on_c, 0, 79, 0
2, 68760, Note_on_c, 0, 72, 84
2, 68760, Note_on_c, 0, 76, 84
2, 68880, Note_on_c, 0, 76, 0
2, 68880, Note_on_c, 0, 72, 0
2, 68880, Note_on_c, 0, 71, 83
2, 68880, Note_on_c, 0, 74, 83
2, 69000, Note_on_c, 0, 74, 0
2, 69000, Note_on_c, 0, 71, 0
2, 69000, Note_on_c, 0, 66, 78
2, 69000, Note_on_c, 0, 72, 78
2, 69120, Note_on_c, 0, 72, 0
2, 69120, Note_on_c, 0, 66, 0
2, 69120, Note_on_c, 0, 71, 75
2, 69120, Note_on_c, 0, 67, 75
2, 69240, Note_on_c, 0, 67, 0
2, 69240, Note_on_c, 0, 71, 0
2, 69240, Note_on_c, 0, 69, 70
2, 69240, Note_on_c, 0, 60, 70
2, 69360, Note_on_c, 0, 60, 0
2, 69360, Note_on_c, 0, 69, 0
2, 69360, Note_on_c, 0, 59, 63
2, 69360, Note_on_c, 0, 67, 63
2, 69480, Note_on_c, 0, 67, 0
2, 69480, Note_on_c, 0, 59, 0
2, 69480, Note_on_c, 0, 60, 56
2, 69480, Note_on_c, 0, 64, 56
2, 69600, Note_on_c, 0, 64, 0
2, 69600, Note_on_c, 0, 60, 0
2, 69600, Note_on_c, 0, 59, 50
2, 69600, Note_on_c, 0, 62, 50
2, 69720, Note_on_c, 0, 62, 0
2, 69720, Note_on_c, 0, 59, 0
2, 70080, Note_on_c, 0, 72, 84
2, 70080, Note_on_c, 0, 76, 84
2, 70200, Note_on_c, 0, 76, 0
2, 70200, Note_on_c, 0, 72, 0
2, 70200, Note_on_c, 0, 74, 82
2, 70200, Note_on_c, 0, 77, 82
2, 70320, Note_on_c, 0, 77, 0
2, 70320, Note_on_c, 0, 74, 0
2, 70320, Note_on_c, 0, 76, 84
2, 70320, Note_on_c, 0, 79, 84
2, 70440, Note_on_c, 0, 79, 0
2, 70440, Note_on_c, 0, 76, 0
2, 70440, Note_on_c, 0, 77, 84
2, 70440, Note_on_c, 0, 81, 84
2, 70560, Note_on_c, 0, 81, 0
2, 70560, Note_on_c, 0, 77, 0
2, 70560, Note_on_c, 0, 83, 85
2, 70560, Note_on_c, 0, 79, 85
2, 70680, Note_on_c, 0, 79, 0
2, 70680, Note_on_c, 0, 83, 0
2, 70680, Note_on_c, 0, 84, 86
2, 70680, Note_on_c, 0, 81, 86
2, 70800, Note_on_c, 0, 81, 0
2, 70800, Note_on_c, 0, 84, 0
2, 70800, Note_on_c, 0, 86, 86
2, 70800, Note_on_c, 0, 83, 86
2, 70920, Note_on_c, 0, 83, 0
2, 70920, Note_on_c, 0, 86, 0
2, 70920, Note_on_c, 0, 88, 86
2, 70920, Note_on_c, 0, 84, 86
2, 71040, Note_on_c, 0, 84, 0
2, 71040, Note_on_c, 0, 88, 0
2, 71040, Note_on_c, 0, 83, 86
2, 71040, Note_on_c, 0, 80, 86
2, 71160, Note_on_c, 0, 80, 0
2, 71160, Note_on_c, 0, 83, 0
2, 71160, Note_on_c, 0, 84, 87
2, 71160, Note_on_c, 0, 81, 87
2, 71280, Note_on_c, 0, 81, 0
2, 71280, Note_on_c, 0, 84, 0
2, 71280, Note_on_c, 0, 86, 88
2, 71280, Note_on_c, 0, 83, 88
2, 71400, Note_on_c, 0, 83, 0
2, 71400, Note_on_c, 0, 86, 0
2, 71400, Note_on_c, 0, 81, 88
2, 71400, Note_on_c, 0, 78, 88
2, 71520, Note_on_c, 0, 78, 0
2, 71520, Note_on_c, 0, 81, 0
2, 71520, Note_on_c, 0, 83, 88
2, 71520, Note_on_c, 0, 79, 88
2, 71640, Note_on_c, 0, 79, 0
2, 71640, Note_on_c, 0, 83, 0
2, 71640, Note_on_c, 0, 84, 88
2, 71640, Note_on_c, 0, 81, 88
2, 71760, Note_on_c, 0, 81, 0
2, 71760, Note_on_c, 0, 84, 0
2, 71760, Note_on_c, 0, 79, 88
2, 71760, Note_on_c, 0, 76, 88
2, 71880, Note_on_c, 0, 76, 0
2, 71880, Note_on_c, 0, 79, 0
2, 71880, Note_on_c, 0, 81, 87
2, 71880, Note_on_c, 0, 78, 87
2, 72000, Note_on_c, 0, 78, 0
2, 72000, Note_on_c, 0, 81, 0
2, 72000, Note_on_c, 0, 83, 86
2, 72000, Note_on_c, 0, 79, 86
2, 72120, Note_on_c, 0, 79, 0
2, 72120, Note_on_c, 0, 83, 0
2, 72120, Note_on_c, 0, 72, 86
2, 72120, Note_on_c, 0, 78, 86
2, 72240, Note_on_c, 0, 78, 0
2, 72240, Note_on_c, 0, 72, 0
2, 72240, Note_on_c, 0, 79, 86
2, 72240, Note_on_c, 0, 74, 86
2, 72360, Note_on_c, 0, 74, 0
2, 72360, Note_on_c, 0, 79, 0
2, 72360, Note_on_c, 0, 72, 84
2, 72360, Note_on_c, 0, 76, 84
2, 72480, Note_on_c, 0, 76, 0
2, 72480, Note_on_c, 0, 72, 0
2, 72480, Note_on_c, 0, 71, 83
2, 72480, Note_on_c, 0, 74, 83
2, 72600, Note_on_c, 0, 74, 0
2, 72600, Note_on_c, 0, 71, 0
2, 72600, Note_on_c, 0, 66, 78
2, 72600, Note_on_c, 0, 72, 78
2, 72720, Note_on_c, 0, 72, 0
2, 72720, Note_on_c, 0, 66, 0
2, 72720, Note_on_c, 0, 71, 75
2, 72720, Note_on_c, 0, 67, 75
2, 72840, Note_on_c, 0, 67, 0
2, 72840, Note_on_c, 0, 71, 0
2, 72840, Note_on_c, 0, 69, 70
2, 72840, Note_on_c, 0, 60, 70
2, 72960, Note_on_c, 0, 60, 0
2, 72960, Note_on_c, 0, 69, 0
2, 72960, Note_on_c, 0, 59, 63
2, 72960, Note_on_c, 0, 67, 63
2, 73080, Note_on_c, 0, 67, 0
2, 73080, Note_on_c, 0, 59, 0
2, 73080, Note_on_c, 0, 60, 56
2, 73080, Note_on_c, 0, 64, 56
2, 73200, Note_on_c, 0, 64, 0
2, 73200, Note_on_c, 0, 60, 0
2, 73200, Note_on_c, 0, 59, 50
2, 73200, Note_on_c, 0, 62, 50
2, 73320, Note_on_c, 0, 62, 0
2, 73320, Note_on_c, 0, 59, 0
2, 73680, Note_on_c, 0, 76, 93
2, 73680, Note_on_c, 0, 79, 93
2, 73800, Note_on_c, 0, 79, 0
2, 73800, Note_on_c, 0, 76, 0
2, 73800, Note_on_c, 0, 74, 89
2, 73800, Note_on_c, 0, 77, 89
2, 73920, Note_on_c, 0, 77, 0
2, 73920, Note_on_c, 0, 74, 0
2, 73920, Note_on_c, 0, 73, 86
2, 73920, Note_on_c, 0, 76, 86
2, 74040, Note_on_c, 0, 76, 0
2, 74040, Note_on_c, 0, 73, 0
2, 74040, Note_on_c, 0, 70, 82
2, 74040, Note_on_c, 0, 74, 82
2, 74160, Note_on_c, 0, 74, 0
2, 74160, Note_on_c, 0, 70, 0
2, 74160, Note_on_c, 0, 69, 78
2, 74160, Note_on_c, 0, 73, 78
2, 74280, Note_on_c, 0, 73, 0
2, 74280, Note_on_c, 0, 69, 0
2, 74280, Note_on_c, 0, 67, 75
2, 74280, Note_on_c, 0, 70, 75
2, 74400, Note_on_c, 0, 70, 0
2, 74400, Note_on_c, 0, 67, 0
2, 74400, Note_on_c, 0, 65, 71
2, 74400, Note_on_c, 0, 69, 71
2, 74520, Note_on_c, 0, 69, 0
2, 74520, Note_on_c, 0, 65, 0
2, 74520, Note_on_c, 0, 64, 67
2, 74520, Note_on_c, 0, 67, 67
2, 74640, Note_on_c, 0, 67, 0
2, 74640, Note_on_c, 0, 64, 0
2, 74640, Note_on_c, 0, 69, 63
2, 74640, Note_on_c, 0, 65, 63
2, 74760, Note_on_c, 0, 65, 0
2, 74760, Note_on_c, 0, 69, 0
2, 74760, Note_on_c, 0, 61, 57
2, 74760, Note_on_c, 0, 64, 57
2, 74880, Note_on_c, 0, 64, 0
2, 74880, Note_on_c, 0, 61, 0
2, 74880, Note_on_c, 0, 62, 52
2, 74880, Note_on_c, 0, 65, 52
2, 75000, Note_on_c, 0, 65, 0
2, 75000, Note_on_c, 0, 62, 0
2, 75120, Note_on_c, 0, 74, 93
2, 75120, Note_on_c, 0, 77, 93
2, 75240, Note_on_c, 0, 77, 0
2, 75240, Note_on_c, 0, 74, 0
2, 75240, Note_on_c, 0, 72, 89
2, 75240, Note_on_c, 0, 76, 89
2, 75360, Note_on_c, 0, 76, 0
2, 75360, Note_on_c, 0, 72, 0
2, 75360, Note_on_c, 0, 71, 86
2, 75360, Note_on_c, 0, 74, 86
2, 75480, Note_on_c, 0, 74, 0
2, 75480, Note_on_c, 0, 71, 0
2, 75480, Note_on_c, 0, 69, 82
2, 75480, Note_on_c, 0, 72, 82
2, 75600, Note_on_c, 0, 72, 0
2, 75600, Note_on_c, 0, 69, 0
2, 75600, Note_on_c, 0, 67, 78
2, 75600, Note_on_c, 0, 71, 78
2, 75720, Note_on_c, 0, 71, 0
2, 75720, Note_on_c, 0, 67, 0
2, 75720, Note_on_c, 0, 65, 75
2, 75720, Note_on_c, 0, 69, 75
2, 75840, Note_on_c, 0, 69, 0
2, 75840, Note_on_c, 0, 65, 0
2, 75840, Note_on_c, 0, 64, 71
2, 75840, Note_on_c, 0, 67, 71
2, 75960, Note_on_c, 0, 67, 0
2, 75960, Note_on_c, 0, 64, 0
2, 75960, Note_on_c, 0, 62, 67
2, 75960, Note_on_c, 0, 65, 67
2, 76080, Note_on_c, 0, 65, 0
2, 76080, Note_on_c, 0, 62, 0
2, 76080, Note_on_c, 0, 67, 63
2, 76080, Note_on_c, 0, 64, 63
2, 76200, Note_on_c, 0, 64, 0
2, 76200, Note_on_c, 0, 67, 0
2, 76200, Note_on_c, 0, 59, 57
2, 76200, Note_on_c, 0, 62, 57
2, 76320, Note_on_c, 0, 62, 0
2, 76320, Note_on_c, 0, 59, 0
2, 76320, Note_on_c, 0, 60, 52
2, 76320, Note_on_c, 0, 64, 52
2, 76440, Note_on_c, 0, 64, 0
2, 76440, Note_on_c, 0, 60, 0
2, 76560, Note_on_c, 0, 60, 83
2, 76560, Note_on_c, 0, 64, 83
2, 76680, Note_on_c, 0, 64, 0
2, 76680, Note_on_c, 0, 60, 0
2, 76680, Note_on_c, 0, 65, 101
2, 76680, Note_on_c, 0, 62, 101
2, 76800, Note_on_c, 0, 62, 0
2, 76800, Note_on_c, 0, 65, 0
2, 76920, Note_on_c, 0, 62, 81
2, 76920, Note_on_c, 0, 65, 81
2, 77040, Note_on_c, 0, 65, 0
2, 77040, Note_on_c, 0, 62, 0
2, 77040, Note_on_c, 0, 67, 96
2, 77040, Note_on_c, 0, 64, 96
2, 77160, Note_on_c, 0, 64, 0
2, 77160, Note_on_c, 0, 67, 0
2, 77280, Note_on_c, 0, 72, 78
2, 77280, Note_on_c, 0, 67, 78
2, 77400, Note_on_c, 0, 67, 0
2, 77400, Note_on_c, 0, 72, 0
2, 77400, Note_on_c, 0, 71, 81
2, 77400, Note_on_c, 0, 65, 81
2, 77520, Note_on_c, 0, 65, 0
2, 77520, Note_on_c, 0, 71, 0
2, 77520, Note_on_c, 0, 72, 81
2, 77520, Note_on_c, 0, 67, 81
2, 77640, Note_on_c, 0, 67, 0
2, 77640, Note_on_c, 0, 72, 0
2, 77640, Note_on_c, 0, 76, 79
2, 77640, Note_on_c, 0, 72, 79
2, 77760, Note_on_c, 0, 72, 0
2, 77760, Note_on_c, 0, 76, 0
2, 77760, Note_on_c, 0, 71, 72
2, 77760, Note_on_c, 0, 74, 72
2, 77880, Note_on_c, 0, 74, 0
2, 77880, Note_on_c, 0, 71, 0
2, 78000, Note_on_c, 0, 64, 68
2, 78000, Note_on_c, 0, 67, 68
2, 78000, Note_on_c, 0, 84, 68
2, 78000, Note_on_c, 0, 79, 68
2, 78120, Note_on_c, 0, 79, 0
2, 78120, Note_on_c, 0, 64, 0
2, 78120, Note_on_c, 0, 67, 0
2, 78120, Note_on_c, 0, 84, 0
2, 78120, Note_on_c, 0, 67, 76
2, 78120, Note_on_c, 0, 62, 76
2, 78120, Note_on_c, 0, 83, 76
2, 78120, Note_on_c, 0, 77, 76
2, 78240, Note_on_c, 0, 77, 0
2, 78240, Note_on_c, 0, 83, 0
2, 78240, Note_on_c, 0, 62, 0
2, 78240, Note_on_c, 0, 64, 78
2, 78240, Note_on_c, 0, 84, 78
2, 78240, Note_on_c, 0, 79, 78
2, 78360, Note_on_c, 0, 79, 0
2, 78360, Note_on_c, 0, 67, 0
2, 78360, Note_on_c, 0, 64, 0
2, 78360, Note_on_c, 0, 84, 0
2, 78360, Note_on_c, 0, 60, 75
2, 78360, Note_on_c, 0, 67, 75
2, 78360, Note_on_c, 0, 88, 75
2, 78360, Note_on_c, 0, 84, 75
2, 78480, Note_on_c, 0, 84, 0
2, 78480, Note_on_c, 0, 60, 0
2, 78480, Note_on_c, 0, 67, 0
2, 78480, Note_on_c, 0, 88, 0
2, 78480, Note_on_c, 0, 67, 66
2, 78480, Note_on_c, 0, 86, 66
2, 78480, Note_on_c, 0, 83, 66
2, 78600, Note_on_c, 0, 83, 0
2, 78600, Note_on_c, 0, 86, 0
2, 78600, Note_on_c, 0, 67, 0
2, 78600, Note_on_c, 0, 55, 66
2, 78720, Note_on_c, 0, 55, 0
2, 78720, Note_on_c, 0, 84, 66
2, 78720, Note_on_c, 0, 79, 66
2, 78720, Note_on_c, 0, 67, 66
2, 78720, Note_on_c, 0, 63, 66
2, 78840, Note_on_c, 0, 63, 0
2, 78840, Note_on_c, 0, 84, 0
2, 78840, Note_on_c, 0, 79, 0
2, 78840, Note_on_c, 0, 67, 0
2, 78840, Note_on_c, 0, 67, 47
2, 78840, Note_on_c, 0, 62, 47
2, 78840, Note_on_c, 0, 83, 47
2, 78840, Note_on_c, 0, 77, 47
2, 78960, Note_on_c, 0, 77, 0
2, 78960, Note_on_c, 0, 83, 0
2, 78960, Note_on_c, 0, 62, 0
2, 78960, Note_on_c, 0, 63, 47
2, 78960, Note_on_c, 0, 84, 47
2, 78960, Note_on_c, 0, 79, 47
2, 79080, Note_on_c, 0, 79, 0
2, 79080, Note_on_c, 0, 67, 0
2, 79080, Note_on_c, 0, 63, 0
2, 79080, Note_on_c, 0, 84, 0
2, 79080, Note_on_c, 0, 60, 47
2, 79080, Note_on_c, 0, 67, 47
2, 79080, Note_on_c, 0, 87, 47
2, 79080, Note_on_c, 0, 84, 47
2, 79200, Note_on_c, 0, 84, 0
2, 79200, Note_on_c, 0, 60, 0
2, 79200, Note_on_c, 0, 67, 0
2, 79200, Note_on_c, 0, 87, 0
2, 79200, Note_on_c, 0, 67, 46
2, 79200, Note_on_c, 0, 86, 46
2, 79200, Note_on_c, 0, 83, 46
2, 79320, Note_on_c, 0, 83, 0
2, 79320, Note_on_c, 0, 86, 0
2, 79320, Note_on_c, 0, 67, 0
2, 79320, Note_on_c, 0, 55, 45
2, 79440, Note_on_c, 0, 55, 0
2, 79440, Note_on_c, 0, 88, 57
2, 79440, Note_on_c, 0, 84, 57
2, 79560, Note_on_c, 0, 84, 0
2, 79560, Note_on_c, 0, 88, 0
2, 79560, Note_on_c, 0, 86, 59
2, 79560, Note_on_c, 0, 83, 59
2, 79680, Note_on_c, 0, 83, 0
2, 79680, Note_on_c, 0, 86, 0
2, 79680, Note_on_c, 0, 69, 62
2, 79680, Note_on_c, 0, 84, 62
2, 79680, Note_on_c, 0, 81, 62
2, 79740, Note_on_c, 0, 69, 0
2, 79740, Note_on_c, 0, 60, 63
2, 79800, Note_on_c, 0, 60, 0
2, 79800, Note_on_c, 0, 81, 0
2, 79800, Note_on_c, 0, 84, 0
2, 79800, Note_on_c, 0, 62, 65
2, 79800, Note_on_c, 0, 83, 65
2, 79800, Note_on_c, 0, 79, 65
2, 79860, Note_on_c, 0, 62, 0
2, 79860, Note_on_c, 0, 64, 66
2, 79920, Note_on_c, 0, 64, 0
2, 79920, Note_on_c, 0, 79, 0
2, 79920, Note_on_c, 0, 83, 0
2, 79920, Note_on_c, 0, 65, 68
2, 79920, Note_on_c, 0, 81, 68
2, 79920, Note_on_c, 0, 77, 68
2, 80040, Note_on_c, 0, 77, 0
2, 80040, Note_on_c, 0, 81, 0
2, 80040, Note_on_c, 0, 65, 0
2, 80040, Note_on_c, 0, 67, 54
2, 80040, Note_on_c, 0, 79, 54
2, 80040, Note_on_c, 0, 76, 54
2, 80160, Note_on_c, 0, 76, 0
2, 80160, Note_on_c, 0, 79, 0
2, 80160, Note_on_c, 0, 67, 0
2, 80160, Note_on_c, 0, 69, 61
2, 80160, Note_on_c, 0, 74, 61
2, 80160, Note_on_c, 0, 77, 61
2, 80220, Note_on_c, 0, 69, 0
2, 80220, Note_on_c, 0, 71, 67
2, 80280, Note_on_c, 0, 71, 0
2, 80280, Note_on_c, 0, 77, 0
2, 80280, Note_on_c, 0, 74, 0
2, 80280, Note_on_c, 0, 72, 73
2, 80280, Note_on_c, 0, 76, 73
2, 80400, Note_on_c, 0, 72, 0
2, 80400, Note_on_c, 0, 67, 51
2, 80520, Note_on_c, 0, 67, 0
2, 80520, Note_on_c, 0, 76, 0
2, 80520, Note_on_c, 0, 71, 61
2, 80520, Note_on_c, 0, 74, 61
2, 80520, Note_on_c, 0, 79, 61
2, 80580, Note_on_c, 0, 79, 0
2, 80580, Note_on_c, 0, 74, 0
2, 80580, Note_on_c, 0, 77, 65
2, 80640, Note_on_c, 0, 77, 0
2, 80640, Note_on_c, 0, 71, 0
2, 80640, Note_on_c, 0, 72, 71
2, 80640, Note_on_c, 0, 76, 71
2, 80640, Note_on_c, 0, 72, 71
2, 80760, Note_on_c, 0, 72, 0
2, 80760, Note_on_c, 0, 76, 0
2, 80760, Note_on_c, 0, 72, 0
2, 80760, Note_on_c, 0, 60, 50
2, 80880, Note_on_c, 0, 60, 0
2, 80880, Note_on_c, 0, 76, 58
2, 80880, Note_on_c, 0, 72, 58
2, 81000, Note_on_c, 0, 72, 0
2, 81000, Note_on_c, 0, 76, 0
2, 81000, Note_on_c, 0, 77, 68
2, 81000, Note_on_c, 0, 71, 68
2, 81000, Note_on_c, 0, 74, 68
2, 81120, Note_on_c, 0, 74, 0
2, 81120, Note_on_c, 0, 71, 0
2, 81120, Note_on_c, 0, 77, 0
2, 81120, Note_on_c, 0, 79, 63
2, 81120, Note_on_c, 0, 76, 63
2, 81120, Note_on_c, 0, 69, 63
2, 81120, Note_on_c, 0, 72, 63
2, 81240, Note_on_c, 0, 72, 0
2, 81240, Note_on_c, 0, 79, 0
2, 81240, Note_on_c, 0, 76, 0
2, 81240, Note_on_c, 0, 69, 0
2, 81240, Note_on_c, 0, 81, 62
2, 81240, Note_on_c, 0, 77, 62
2, 81240, Note_on_c, 0, 67, 62
2, 81240, Note_on_c, 0, 71, 62
2, 81360, Note_on_c, 0, 71, 0
2, 81360, Note_on_c, 0, 81, 0
2, 81360, Note_on_c, 0, 77, 0
2, 81360, Note_on_c, 0, 67, 0
2, 81360, Note_on_c, 0, 83, 60
2, 81360, Note_on_c, 0, 79, 60
2, 81360, Note_on_c, 0, 65, 60
2, 81360, Note_on_c, 0, 69, 60
2, 81480, Note_on_c, 0, 69, 0
2, 81480, Note_on_c, 0, 83, 0
2, 81480, Note_on_c, 0, 79, 0
2, 81480, Note_on_c, 0, 65, 0
2, 81480, Note_on_c, 0, 84, 54
2, 81480, Note_on_c, 0, 81, 54
2, 81480, Note_on_c, 0, 64, 54
2, 81480, Note_on_c, 0, 67, 54
2, 81600, Note_on_c, 0, 67, 0
2, 81600, Note_on_c, 0, 84, 0
2, 81600, Note_on_c, 0, 81, 0
2, 81600, Note_on_c, 0, 64, 0
2, 81600, Note_on_c, 0, 86, 66
2, 81600, Note_on_c, 0, 83, 66
2, 81600, Note_on_c, 0, 62, 66
2, 81600, Note_on_c, 0, 65, 66
2, 81720, Note_on_c, 0, 65, 0
2, 81720, Note_on_c, 0, 86, 0
2, 81720, Note_on_c, 0, 83, 0
2, 81720, Note_on_c, 0, 62, 0
2, 81720, Note_on_c, 0, 60, 75
2, 81720, Note_on_c, 0, 64, 75
2, 81720, Note_on_c, 0, 88, 75
2, 81720, Note_on_c, 0, 84, 75
2, 81840, Note_on_c, 0, 84, 0
2, 81840, Note_on_c, 0, 60, 0
2, 81840, Note_on_c, 0, 64, 0
2, 81840, Note_on_c, 0, 88, 0
2, 81840, Note_on_c, 0, 68, 48
2, 81840, Note_on_c, 0, 65, 48
2, 81840, Note_on_c, 0, 86, 48
2, 81840, Note_on_c, 0, 83, 48
2, 81960, Note_on_c, 0, 83, 0
2, 81960, Note_on_c, 0, 68, 0
2, 81960, Note_on_c, 0, 65, 0
2, 81960, Note_on_c, 0, 86, 0
2, 81960, Note_on_c, 0, 64, 61
2, 81960, Note_on_c, 0, 67, 61
2, 81960, Note_on_c, 0, 88, 61
2, 81960, Note_on_c, 0, 84, 61
2, 82080, Note_on_c, 0, 84, 0
2, 82080, Note_on_c, 0, 64, 0
2, 82080, Note_on_c, 0, 67, 0
2, 82080, Note_on_c, 0, 88, 0
2, 82080, Note_on_c, 0, 62, 72
2, 82080, Note_on_c, 0, 65, 72
2, 82080, Note_on_c, 0, 89, 72
2, 82080, Note_on_c, 0, 86, 72
2, 82200, Note_on_c, 0, 86, 0
2, 82200, Note_on_c, 0, 62, 0
2, 82200, Note_on_c, 0, 65, 0
2, 82200, Note_on_c, 0, 89, 0
2, 82200, Note_on_c, 0, 67, 49
2, 82200, Note_on_c, 0, 64, 49
2, 82200, Note_on_c, 0, 84, 49
2, 82200, Note_on_c, 0, 81, 49
2, 82320, Note_on_c, 0, 81, 0
2, 82320, Note_on_c, 0, 67, 0
2, 82320, Note_on_c, 0, 64, 0
2, 82320, Note_on_c, 0, 84, 0
2, 82320, Note_on_c, 0, 62, 61
2, 82320, Note_on_c, 0, 65, 61
2, 82320, Note_on_c, 0, 86, 61
2, 82320, Note_on_c, 0, 83, 61
2, 82440, Note_on_c, 0, 83, 0
2, 82440, Note_on_c, 0, 62, 0
2, 82440, Note_on_c, 0, 65, 0
2, 82440, Note_on_c, 0, 86, 0
2, 82440, Note_on_c, 0, 60, 73
2, 82440, Note_on_c, 0, 64, 73
2, 82440, Note_on_c, 0, 88, 73
2, 82440, Note_on_c, 0, 84, 73
2, 82560, Note_on_c, 0, 84, 0
2, 82560, Note_on_c, 0, 60, 0
2, 82560, Note_on_c, 0, 64, 0
2, 82560, Note_on_c, 0, 88, 0
2, 82560, Note_on_c, 0, 86, 49
2, 82560, Note_on_c, 0, 83, 49
2, 82680, Note_on_c, 0, 83, 0
2, 82680, Note_on_c, 0, 86, 0
2, 82680, Note_on_c, 0, 88, 58
2, 82680, Note_on_c, 0, 84, 58
2, 82800, Note_on_c, 0, 84, 0
2, 82800, Note_on_c, 0, 88, 0
2, 82800, Note_on_c, 0, 89, 67
2, 82800, Note_on_c, 0, 86, 67
2, 82920, Note_on_c, 0, 86, 0
2, 82920, Note_on_c, 0, 89, 0
2, 82920, Note_on_c, 0, 84, 49
2, 82920, Note_on_c, 0, 81, 49
2, 83040, Note_on_c, 0, 81, 0
2, 83040, Note_on_c, 0, 84, 0
2, 83040, Note_on_c, 0, 86, 63
2, 83040, Note_on_c, 0, 83, 63
2, 83160, Note_on_c, 0, 83, 0
2, 83160, Note_on_c, 0, 86, 0
2, 83160, Note_on_c, 0, 88, 71
2, 83160, Note_on_c, 0, 84, 71
2, 83280, Note_on_c, 0, 84, 0
2, 83280, Note_on_c, 0, 88, 0
2, 83280, Note_on_c, 0, 83, 45
2, 83280, Note_on_c, 0, 77, 45
2, 83400, Note_on_c, 0, 77, 0
2, 83400, Note_on_c, 0, 83, 0
2, 83400, Note_on_c, 0, 84, 55
2, 83400, Note_on_c, 0, 79, 55
2, 83520, Note_on_c, 0, 79, 0
2, 83520, Note_on_c, 0, 84, 0
2, 83520, Note_on_c, 0, 77, 64
2, 83520, Note_on_c, 0, 81, 64
2, 83640, Note_on_c, 0, 81, 0
2, 83640, Note_on_c, 0, 77, 0
2, 83640, Note_on_c, 0, 76, 58
2, 83640, Note_on_c, 0, 79, 58
2, 83760, Note_on_c, 0, 79, 0
2, 83760, Note_on_c, 0, 76, 0
2, 83760, Note_on_c, 0, 71, 67
2, 83760, Note_on_c, 0, 77, 67
2, 83880, Note_on_c, 0, 77, 0
2, 83880, Note_on_c, 0, 71, 0
2, 83880, Note_on_c, 0, 72, 72
2, 83880, Note_on_c, 0, 76, 72
2, 84000, Note_on_c, 0, 76, 0
2, 84000, Note_on_c, 0, 72, 0
2, 84000, Note_on_c, 0, 65, 48
2, 84000, Note_on_c, 0, 74, 48
2, 84120, Note_on_c, 0, 74, 0
2, 84120, Note_on_c, 0, 65, 0
2, 84120, Note_on_c, 0, 72, 58
2, 84120, Note_on_c, 0, 64, 58
2, 84240, Note_on_c, 0, 64, 0
2, 84240, Note_on_c, 0, 72, 0
2, 84240, Note_on_c, 0, 69, 63
2, 84240, Note_on_c, 0, 65, 63
2, 84360, Note_on_c, 0, 65, 0
2, 84360, Note_on_c, 0, 69, 0
2, 84360, Note_on_c, 0, 67, 62
2, 84360, Note_on_c, 0, 64, 62
2, 84480, Note_on_c, 0, 64, 0
2, 84480, Note_on_c, 0, 67, 0
2, 84480, Note_on_c, 0, 59, 58
2, 84600, Note_on_c, 0, 59, 0
2, 84600, Note_on_c, 0, 60, 51
2, 84720, Note_on_c, 0, 60, 0
2, 84835, Note_on_c, 0, 76, 93
2, 84835, Note_on_c, 0, 79, 93
2, 84955, Note_on_c, 0, 79, 0
2, 84955, Note_on_c, 0, 76, 0
2, 84955, Note_on_c, 0, 74, 89
2, 84955, Note_on_c, 0, 77, 89
2, 85075, Note_on_c, 0, 77, 0
2, 85075, Note_on_c, 0, 74, 0
2, 85075, Note_on_c, 0, 73, 86
2, 85075, Note_on_c, 0, 76, 86
2, 85195, Note_on_c, 0, 76, 0
2, 85195, Note_on_c, 0, 73, 0
2, 85195, Note_on_c, 0, 70, 82
2, 85195, Note_on_c, 0, 74, 82
2, 85315, Note_on_c, 0, 74, 0
2, 85315, Note_on_c, 0, 70, 0
2, 85315, Note_on_c, 0, 69, 78
2, 85315, Note_on_c, 0, 73, 78
2, 85435, Note_on_c, 0, 73, 0
2, 85435, Note_on_c, 0, 69, 0
2, 85435, Note_on_c, 0, 67, 75
2, 85435, Note_on_c, 0, 70, 75
2, 85555, Note_on_c, 0, 70, 0
2, 85555, Note_on_c, 0, 67, 0
2, 85555, Note_on_c, 0, 65, 71
2, 85555, Note_on_c, 0, 69, 71
2, 85675, Note_on_c, 0, 69, 0
2, 85675, Note_on_c, 0, 65, 0
2, 85675, Note_on_c, 0, 64, 67
2, 85675, Note_on_c, 0, 67, 67
2, 85795, Note_on_c, 0, 67, 0
2, 85795, Note_on_c, 0, 64, 0
2, 85795, Note_on_c, 0, 69, 63
2, 85795, Note_on_c, 0, 65, 63
2, 85915, Note_on_c, 0, 65, 0
2, 85915, Note_on_c, 0, 69, 0
2, 85915, Note_on_c, 0, 61, 57
2, 85915, Note_on_c, 0, 64, 57
2, 86035, Note_on_c, 0, 64, 0
2, 86035, Note_on_c, 0, 61, 0
2, 86035, Note_on_c, 0, 62, 52
2, 86035, Note_on_c, 0, 65, 52
2, 86155, Note_on_c, 0, 65, 0
2, 86155, Note_on_c, 0, 62, 0
2, 86275, Note_on_c, 0, 74, 93
2, 86275, Note_on_c, 0, 77, 93
2, 86395, Note_on_c, 0, 77, 0
2, 86395, Note_on_c, 0, 74, 0
2, 86395, Note_on_c, 0, 72, 89
2, 86395, Note_on_c, 0, 76, 89
2, 86515, Note_on_c, 0, 76, 0
2, 86515, Note_on_c, 0, 72, 0
2, 86515, Note_on_c, 0, 71, 86
2, 86515, Note_on_c, 0, 74, 86
2, 86635, Note_on_c, 0, 74, 0
2, 86635, Note_on_c, 0, 71, 0
2, 86635, Note_on_c, 0, 69, 82
2, 86635, Note_on_c, 0, 72, 82
2, 86755, Note_on_c, 0, 72, 0
2, 86755, Note_on_c, 0, 69, 0
2, 86755, Note_on_c, 0, 67, 78
2, 86755, Note_on_c, 0, 71, 78
2, 86875, Note_on_c, 0, 71, 0
2, 86875, Note_on_c, 0, 67, 0
2, 86875, Note_on_c, 0, 65, 75
2, 86875, Note_on_c, 0, 69, 75
2, 86995, Note_on_c, 0, 69, 0
2, 86995, Note_on_c, 0, 65, 0
2, 86995, Note_on_c, 0, 64, 71
2, 86995, Note_on_c, 0, 67, 71
2, 87115, Note_on_c, 0, 67, 0
2, 87115, Note_on_c, 0, 64, 0
2, 87115, Note_on_c, 0, 62, 67
2, 87115, Note_on_c, 0, 65, 67
2, 87235, Note_on_c, 0, 65, 0
2, 87235, Note_on_c, 0, 62, 0
2, 87235, Note_on_c, 0, 67, 63
2, 87235, Note_on_c, 0, 64, 63
2, 87355, Note_on_c, 0, 64, 0
2, 87355, Note_on_c, 0, 67, 0
2, 87355, Note_on_c, 0, 59, 57
2, 87355, Note_on_c, 0, 62, 57
2, 87475, Note_on_c, 0, 62, 0
2, 87475, Note_on_c, 0, 59, 0
2, 87475, Note_on_c, 0, 60, 52
2, 87475, Note_on_c, 0, 64, 52
2, 87595, Note_on_c, 0, 64, 0
2, 87595, Note_on_c, 0, 60, 0
2, 87715, Note_on_c, 0, 60, 83
2, 87715, Note_on_c, 0, 64, 83
2, 87835, Note_on_c, 0, 64, 0
2, 87835, Note_on_c, 0, 60, 0
2, 87835, Note_on_c, 0, 65, 101
2, 87835, Note_on_c, 0, 62, 101
2, 87955, Note_on_c, 0, 62, 0
2, 87955, Note_on_c, 0, 65, 0
2, 88075, Note_on_c, 0, 62, 81
2, 88075, Note_on_c, 0, 65, 81
2, 88195, Note_on_c, 0, 65, 0
2, 88195, Note_on_c, 0, 62, 0
2, 88195, Note_on_c, 0, 67, 96
2, 88195, Note_on_c, 0, 64, 96
2, 88315, Note_on_c, 0, 64, 0
2, 88315, Note_on_c, 0, 67, 0
2, 88435, Note_on_c, 0, 72, 78
2, 88435, Note_on_c, 0, 67, 78
2, 88555, Note_on_c, 0, 67, 0
2, 88555, Note_on_c, 0, 72, 0
2, 88555, Note_on_c, 0, 71, 81
2, 88555, Note_on_c, 0, 65, 81
2, 88675, Note_on_c, 0, 65, 0
2, 88675, Note_on_c, 0, 71, 0
2, 88675, Note_on_c, 0, 72, 81
2, 88675, Note_on_c, 0, 67, 81
2, 88795, Note_on_c, 0, 67, 0
2, 88795, Note_on_c, 0, 72, 0
2, 88795, Note_on_c, 0, 76, 79
2, 88795, Note_on_c, 0, 72, 79
2, 88915, Note_on_c, 0, 72, 0
2, 88915, Note_on_c, 0, 76, 0
2, 88915, Note_on_c, 0, 71, 72
2, 88915, Note_on_c, 0, 74, 72
2, 89035, Note_on_c, 0, 74, 0
2, 89035, Note_on_c, 0, 71, 0
2, 89155, Note_on_c, 0, 64, 68
2, 89155, Note_on_c, 0, 67, 68
2, 89155, Note_on_c, 0, 84, 68
2, 89155, Note_on_c, 0, 79, 68
2, 89275, Note_on_c, 0, 79, 0
2, 89275, Note_on_c, 0, 64, 0
2, 89275, Note_on_c, 0, 67, 0
2, 89275, Note_on_c, 0, 84, 0
2, 89275, Note_on_c, 0, 67, 76
2, 89275, Note_on_c, 0, 62, 76
2, 89275, Note_on_c, 0, 83, 76
2, 89275, Note_on_c, 0, 77, 76
2, 89395, Note_on_c, 0, 77, 0
2, 89395, Note_on_c, 0, 83, 0
2, 89395, Note_on_c, 0, 62, 0
2, 89395, Note_on_c, 0, 64, 78
2, 89395, Note_on_c, 0, 84, 78
2, 89395, Note_on_c, 0, 79, 78
2, 89515, Note_on_c, 0, 79, 0
2, 89515, Note_on_c, 0, 67, 0
2, 89515, Note_on_c, 0, 64, 0
2, 89515, Note_on_c, 0, 84, 0
2, 89515, Note_on_c, 0, 60, 75
2, 89515, Note_on_c, 0, 67, 75
2, 89515, Note_on_c, 0, 88, 75
2, 89515, Note_on_c, 0, 84, 75
2, 89635, Note_on_c, 0, 84, 0
2, 89635, Note_on_c, 0, 60, 0
2, 89635, Note_on_c, 0, 67, 0
2, 89635, Note_on_c, 0, 88, 0
2, 89635, Note_on_c, 0, 67, 66
2, 89635, Note_on_c, 0, 86, 66
2, 89635, Note_on_c, 0, 83, 66
2, 89755, Note_on_c, 0, 83, 0
2, 89755, Note_on_c, 0, 86, 0
2, 89755, Note_on_c, 0, 67, 0
2, 89755, Note_on_c, 0, 55, 66
2, 89875, Note_on_c, 0, 55, 0
2, 89875, Note_on_c, 0, 84, 66
2, 89875, Note_on_c, 0, 79, 66
2, 89875, Note_on_c, 0, 67, 66
2, 89875, Note_on_c, 0, 63, 66
2, 89995, Note_on_c, 0, 63, 0
2, 89995, Note_on_c, 0, 84, 0
2, 89995, Note_on_c, 0, 79, 0
2, 89995, Note_on_c, 0, 67, 0
2, 89995, Note_on_c, 0, 67, 47
2, 89995, Note_on_c, 0, 62, 47
2, 89995, Note_on_c, 0, 83, 47
2, 89995, Note_on_c, 0, 77, 47
2, 90115, Note_on_c, 0, 77, 0
2, 90115, Note_on_c, 0, 83, 0
2, 90115, Note_on_c, 0, 62, 0
2, 90115, Note_on_c, 0, 63, 47
2, 90115, Note_on_c, 0, 84, 47
2, 90115, Note_on_c, 0, 79, 47
2, 90235, Note_on_c, 0, 79, 0
2, 90235, Note_on_c, 0, 67, 0
2, 90235, Note_on_c, 0, 63, 0
2, 90235, Note_on_c, 0, 84, 0
2, 90235, Note_on_c, 0, 60, 47
2, 90235, Note_on_c, 0, 67, 47
2, 90235, Note_on_c, 0, 87, 47
2, 90235, Note_on_c, 0, 84, 47
2, 90355, Note_on_c, 0, 84, 0
2, 90355, Note_on_c, 0, 60, 0
2, 90355, Note_on_c, 0, 67, 0
2, 90355, Note_on_c, 0, 87, 0
2, 90355, Note_on_c, 0, 67, 46
2, 90355, Note_on_c, 0, 86, 46
2, 90355, Note_on_c, 0, 83, 46
2, 90475, Note_on_c, 0, 83, 0
2, 90475, Note_on_c, 0, 86, 0
2, 90475, Note_on_c, 0, 67, 0
2, 90475, Note_on_c, 0, 55, 45
2, 90595, Note_on_c, 0, 55, 0
2, 90595, Note_on_c, 0, 88, 57
2, 90595, Note_on_c, 0, 84, 57
2, 90715, Note_on_c, 0, 84, 0
2, 90715, Note_on_c, 0, 88, 0
2, 90715, Note_on_c, 0, 86, 59
2, 90715, Note_on_c, 0, 83, 59
2, 90835, Note_on_c, 0, 83, 0
2, 90835, Note_on_c, 0, 86, 0
2, 90835, Note_on_c, 0, 69, 62
2, 90835, Note_on_c, 0, 84, 62
2, 90835, Note_on_c, 0, 81, 62
2, 90895, Note_on_c, 0, 69, 0
2, 90895, Note_on_c, 0, 60, 63
2, 90955, Note_on_c, 0, 60, 0
2, 90955, Note_on_c, 0, 81, 0
2, 90955, Note_on_c, 0, 84, 0
2, 90955, Note_on_c, 0, 62, 65
2, 90955, Note_on_c, 0, 83, 65
2, 90955, Note_on_c, 0, 79, 65
2, 91015, Note_on_c, 0, 62, 0
2, 91015, Note_on_c, 0, 64, 66
2, 91075, Note_on_c, 0, 64, 0
2, 91075, Note_on_c, 0, 79, 0
2, 91075, Note_on_c, 0, 83, 0
2, 91075, Note_on_c, 0, 65, 68
2, 91075, Note_on_c, 0, 81, 68
2, 91075, Note_on_c, 0, 77, 68
2, 91195, Note_on_c, 0, 77, 0
2, 91195, Note_on_c, 0, 81, 0
2, 91195, Note_on_c, 0, 65, 0
2, 91195, Note_on_c, 0, 67, 54
2, 91195, Note_on_c, 0, 79, 54
2, 91195, Note_on_c, 0, 76, 54
2, 91315, Note_on_c, 0, 76, 0
2, 91315, Note_on_c, 0, 79, 0
2, 91315, Note_on_c, 0, 67, 0
2, 91315, Note_on_c, 0, 69, 61
2, 91315, Note_on_c, 0, 74, 61
2, 91315, Note_on_c, 0, 77, 61
2, 91375, Note_on_c, 0, 69, 0
2, 91375, Note_on_c, 0, 71, 67
2, 91435, Note_on_c, 0, 71, 0
2, 91435, Note_on_c, 0, 77, 0
2, 91435, Note_on_c, 0, 74, 0
2, 91435, Note_on_c, 0, 72, 73
2, 91435, Note_on_c, 0, 76, 73
2, 91555, Note_on_c, 0, 72, 0
2, 91555, Note_on_c, 0, 67, 51
2, 91675, Note_on_c, 0, 67, 0
2, 91675, Note_on_c, 0, 76, 0
2, 91675, Note_on_c, 0, 71, 61
2, 91675, Note_on_c, 0, 74, 61
2, 91675, Note_on_c, 0, 79, 61
2, 91735, Note_on_c, 0, 79, 0
2, 91735, Note_on_c, 0, 74, 0
2, 91735, Note_on_c, 0, 77, 65
2, 91795, Note_on_c, 0, 77, 0
2, 91795, Note_on_c, 0, 71, 0
2, 91795, Note_on_c, 0, 72, 71
2, 91795, Note_on_c, 0, 76, 71
2, 91795, Note_on_c, 0, 72, 71
2, 91915, Note_on_c, 0, 72, 0
2, 91915, Note_on_c, 0, 76, 0
2, 91915, Note_on_c, 0, 72, 0
2, 91915, Note_on_c, 0, 60, 50
2, 92035, Note_on_c, 0, 60, 0
2, 92035, Note_on_c, 0, 76, 58
2, 92035, Note_on_c, 0, 72, 58
2, 92155, Note_on_c, 0, 72, 0
2, 92155, Note_on_c, 0, 76, 0
2, 92155, Note_on_c, 0, 77, 68
2, 92155, Note_on_c, 0, 71, 68
2, 92155, Note_on_c, 0, 74, 68
2, 92275, Note_on_c, 0, 74, 0
2, 92275, Note_on_c, 0, 71, 0
2, 92275, Note_on_c, 0, 77, 0
2, 92275, Note_on_c, 0, 79, 63
2, 92275, Note_on_c, 0, 76, 63
2, 92275, Note_on_c, 0, 69, 63
2, 92275, Note_on_c, 0, 72, 63
2, 92395, Note_on_c, 0, 72, 0
2, 92395, Note_on_c, 0, 79, 0
2, 92395, Note_on_c, 0, 76, 0
2, 92395, Note_on_c, 0, 69, 0
2, 92395, Note_on_c, 0, 81, 62
2, 92395, Note_on_c, 0, 77, 62
2, 92395, Note_on_c, 0, 67, 62
2, 92395, Note_on_c, 0, 71, 62
2, 92515, Note_on_c, 0, 71, 0
2, 92515, Note_on_c, 0, 81, 0
2, 92515, Note_on_c, 0, 77, 0
2, 92515, Note_on_c, 0, 67, 0
2, 92515, Note_on_c, 0, 83, 60
2, 92515, Note_on_c, 0, 79, 60
2, 92515, Note_on_c, 0, 65, 60
2, 92515, Note_on_c, 0, 69, 60
2, 92635, Note_on_c, 0, 69, 0
2, 92635, Note_on_c, 0, 83, 0
2, 92635, Note_on_c, 0, 79, 0
2, 92635, Note_on_c, 0, 65, 0
2, 92635, Note_on_c, 0, 84, 54
2, 92635, Note_on_c, 0, 81, 54
2, 92635, Note_on_c, 0, 64, 54
2, 92635, Note_on_c, 0, 67, 54
2, 92755, Note_on_c, 0, 67, 0
2, 92755, Note_on_c, 0, 84, 0
2, 92755, Note_on_c, 0, 81, 0
2, 92755, Note_on_c, 0, 64, 0
2, 92755, Note_on_c, 0, 86, 66
2, 92755, Note_on_c, 0, 83, 66
2, 92755, Note_on_c, 0, 62, 66
2, 92755, Note_on_c, 0, 65, 66
2, 92875, Note_on_c, 0, 65, 0
2, 92875, Note_on_c, 0, 86, 0
2, 92875, Note_on_c, 0, 83, 0
2, 92875, Note_on_c, 0, 62, 0
2, 92875, Note_on_c, 0, 60, 75
2, 92875, Note_on_c, 0, 64, 75
2, 92875, Note_on_c, 0, 88, 75
2, 92875, Note_on_c, 0, 84, 75
2, 92995, Note_on_c, 0, 84, 0
2, 92995, Note_on_c, 0, 60, 0
2, 92995, Note_on_c, 0, 64, 0
2, 92995, Note_on_c, 0, 88, 0
2, 92995, Note_on_c, 0, 68, 48
2, 92995, Note_on_c, 0, 65, 48
2, 92995, Note_on_c, 0, 86, 48
2, 92995, Note_on_c, 0, 83, 48
2, 93115, Note_on_c, 0, 83, 0
2, 93115, Note_on_c, 0, 68, 0
2, 93115, Note_on_c, 0, 65, 0
2, 93115, Note_on_c, 0, 86, 0
2, 93115, Note_on_c, 0, 64, 61
2, 93115, Note_on_c, 0, 67, 61
2, 93115, Note_on_c, 0, 88, 61
2, 93115, Note_on_c, 0, 84, 61
2, 93235, Note_on_c, 0, 84, 0
2, 93235, Note_on_c, 0, 64, 0
2, 93235, Note_on_c, 0, 67, 0
2, 93235, Note_on_c, 0, 88, 0
2, 93235, Note_on_c, 0, 62, 72
2, 93235, Note_on_c, 0, 65, 72
2, 93235, Note_on_c, 0, 89, 72
2, 93235, Note_on_c, 0, 86, 72
2, 93355, Note_on_c, 0, 86, 0
2, 93355, Note_on_c, 0, 62, 0
2, 93355, Note_on_c, 0, 65, 0
2, 93355, Note_on_c, 0, 89, 0
2, 93355, Note_on_c, 0, 67, 49
2, 93355, Note_on_c, 0, 64, 49
2, 93355, Note_on_c, 0, 84, 49
2, 93355, Note_on_c, 0, 81, 49
2, 93475, Note_on_c, 0, 81, 0
2, 93475, Note_on_c, 0, 67, 0
2, 93475, Note_on_c, 0, 64, 0
2, 93475, Note_on_c, 0, 84, 0
2, 93475, Note_on_c, 0, 62, 61
2, 93475, Note_on_c, 0, 65, 61
2, 93475, Note_on_c, 0, 86, 61
2, 93475, Note_on_c, 0, 83, 61
2, 93595, Note_on_c, 0, 83, 0
2, 93595, Note_on_c, 0, 62, 0
2, 93595, Note_on_c, 0, 65, 0
2, 93595, Note_on_c, 0, 86, 0
2, 93595, Note_on_c, 0, 60, 73
2, 93595, Note_on_c, 0, 64, 73
2, 93595, Note_on_c, 0, 88, 73
2, 93595, Note_on_c, 0, 84, 73
2, 93715, Note_on_c, 0, 84, 0
2, 93715, Note_on_c, 0, 60, 0
2, 93715, Note_on_c, 0, 64, 0
2, 93715, Note_on_c, 0, 88, 0
2, 93715, Note_on_c, 0, 86, 49
2, 93715, Note_on_c, 0, 83, 49
2, 93835, Note_on_c, 0, 83, 0
2, 93835, Note_on_c, 0, 86, 0
2, 93835, Note_on_c, 0, 88, 58
2, 93835, Note_on_c, 0, 84, 58
2, 93955, Note_on_c, 0, 84, 0
2, 93955, Note_on_c, 0, 88, 0
2, 93955, Note_on_c, 0, 89, 67
2, 93955, Note_on_c, 0, 86, 67
2, 94075, Note_on_c, 0, 86, 0
2, 94075, Note_on_c, 0, 89, 0
2, 94075, Note_on_c, 0, 84, 49
2, 94075, Note_on_c, 0, 81, 49
2, 94195, Note_on_c, 0, 81, 0
2, 94195, Note_on_c, 0, 84, 0
2, 94195, Note_on_c, 0, 86, 63
2, 94195, Note_on_c, 0, 83, 63
2, 94315, Note_on_c, 0, 83, 0
2, 94315, Note_on_c, 0, 86, 0
2, 94315, Note_on_c, 0, 88, 71
2, 94315, Note_on_c, 0, 84, 71
2, 94435, Note_on_c, 0, 84, 0
2, 94435, Note_on_c, 0, 88, 0
2, 94435, Note_on_c, 0, 83, 45
2, 94435, Note_on_c, 0, 77, 45
2, 94555, Note_on_c, 0, 77, 0
2, 94555, Note_on_c, 0, 83, 0
2, 94555, Note_on_c, 0, 84, 55
2, 94555, Note_on_c, 0, 79, 55
2, 94675, Note_on_c, 0, 79, 0
2, 94675, Note_on_c, 0, 84, 0
2, 94675, Note_on_c, 0, 77, 64
2, 94675, Note_on_c, 0, 81, 64
2, 94795, Note_on_c, 0, 81, 0
2, 94795, Note_on_c, 0, 77, 0
2, 94795, Note_on_c, 0, 76, 58
2, 94795, Note_on_c, 0, 79, 58
2, 94915, Note_on_c, 0, 79, 0
2, 94915, Note_on_c, 0, 76, 0
2, 94915, Note_on_c, 0, 71, 67
2, 94915, Note_on_c, 0, 77, 67
2, 95035, Note_on_c, 0, 77, 0
2, 95035, Note_on_c, 0, 71, 0
2, 95035, Note_on_c, 0, 72, 72
2, 95035, Note_on_c, 0, 76, 72
2, 95155, Note_on_c, 0, 76, 0
2, 95155, Note_on_c, 0, 72, 0
2, 95155, Note_on_c, 0, 65, 48
2, 95155, Note_on_c, 0, 74, 48
2, 95275, Note_on_c, 0, 74, 0
2, 95275, Note_on_c, 0, 65, 0
2, 95275, Note_on_c, 0, 72, 58
2, 95275, Note_on_c, 0, 64, 58
2, 95395, Note_on_c, 0, 64, 0
2, 95395, Note_on_c, 0, 72, 0
2, 95395, Note_on_c, 0, 69, 63
2, 95395, Note_on_c, 0, 65, 63
2, 95515, Note_on_c, 0, 65, 0
2, 95515, Note_on_c, 0, 69, 0
2, 95515, Note_on_c, 0, 67, 62
2, 95515, Note_on_c, 0, 64, 62
2, 95635, Note_on_c, 0, 64, 0
2, 95635, Note_on_c, 0, 67, 0
2, 95635, Note_on_c, 0, 59, 58
2, 95755, Note_on_c, 0, 59, 0
2, 95755, Note_on_c, 0, 60, 51
2, 95760, Control_c, 0, 93, 21
2, 95760, Control_c, 0, 91, 21
2, 95875, Note_on_c, 0, 60, 0
2, 96720, Note_on_c, 0, 72, 84
2, 96840, Note_on_c, 0, 72, 0
2, 96840, Note_on_c, 0, 72, 88
2, 96945, Note_on_c, 0, 74, 90
2, 96960, Note_on_c, 0, 74, 0
2, 96960, Note_on_c, 0, 72, 0
2, 96960, Note_on_c, 0, 72, 91
2, 97020, Note_on_c, 0, 72, 0
2, 97020, Note_on_c, 0, 71, 91
2, 97080, Note_on_c, 0, 71, 0
2, 97080, Note_on_c, 0, 72, 91
2, 97200, Note_on_c, 0, 72, 0
2, 97200, Note_on_c, 0, 75, 89
2, 97200, Note_on_c, 0, 71, 89
2, 97260, Note_on_c, 0, 75, 0
2, 97260, Note_on_c, 0, 74, 87
2, 97320, Note_on_c, 0, 74, 0
2, 97320, Note_on_c, 0, 71, 0
2, 97320, Note_on_c, 0, 72, 84
2, 97440, Note_on_c, 0, 72, 0
2, 98160, Note_on_c, 0, 77, 71
2, 98280, Note_on_c, 0, 77, 0
2, 98280, Note_on_c, 0, 77, 71
2, 98385, Note_on_c, 0, 79, 71
2, 98400, Note_on_c, 0, 79, 0
2, 98400, Note_on_c, 0, 77, 0
2, 98400, Note_on_c, 0, 77, 71
2, 98460, Note_on_c, 0, 77, 0
2, 98460, Note_on_c, 0, 76, 71
2, 98520, Note_on_c, 0, 76, 0
2, 98520, Note_on_c, 0, 77, 71
2, 98640, Note_on_c, 0, 77, 0
2, 98640, Note_on_c, 0, 80, 71
2, 98640, Note_on_c, 0, 76, 71
2, 98700, Note_on_c, 0, 80, 0
2, 98700, Note_on_c, 0, 79, 71
2, 98760, Note_on_c, 0, 79, 0
2, 98760, Note_on_c, 0, 76, 0
2, 98760, Note_on_c, 0, 77, 70
2, 98880, Note_on_c, 0, 77, 0
2, 98880, Note_on_c, 0, 80, 75
2, 99000, Note_on_c, 0, 80, 0
2, 99000, Note_on_c, 0, 72, 79
2, 99120, Note_on_c, 0, 72, 0
2, 99120, Note_on_c, 0, 71, 79
2, 99240, Note_on_c, 0, 71, 0
2, 99240, Note_on_c, 0, 77, 79
2, 99360, Note_on_c, 0, 77, 0
2, 99360, Note_on_c, 0, 68, 79
2, 99480, Note_on_c, 0, 68, 0
2, 99480, Note_on_c, 0, 67, 79
2, 99600, Note_on_c, 0, 67, 0
2, 99600, Note_on_c, 0, 74, 79
2, 99720, Note_on_c, 0, 74, 0
2, 99720, Note_on_c, 0, 62, 78
2, 99720, Note_on_c, 0, 65, 78
2, 99840, Note_on_c, 0, 65, 0
2, 99840, Note_on_c, 0, 62, 0
2, 99840, Note_on_c, 0, 63, 78
2, 99840, Note_on_c, 0, 60, 78
2, 99960, Note_on_c, 0, 60, 0
2, 99960, Note_on_c, 0, 63, 0
2, 99960, Note_on_c, 0, 72, 78
2, 99960, Note_on_c, 0, 63, 78
2, 100080, Note_on_c, 0, 63, 0
2, 100080, Note_on_c, 0, 72, 0
2, 100080, Note_on_c, 0, 60, 78
2, 100080, Note_on_c, 0, 63, 78
2, 100200, Note_on_c, 0, 63, 0
2, 100200, Note_on_c, 0, 60, 0
2, 100200, Note_on_c, 0, 59, 78
2, 100200, Note_on_c, 0, 62, 78
2, 100320, Note_on_c, 0, 62, 0
2, 100320, Note_on_c, 0, 59, 0
2, 100320, Note_on_c, 0, 79, 78
2, 100440, Note_on_c, 0, 79, 0
2, 100440, Note_on_c, 0, 79, 78
2, 100560, Note_on_c, 0, 79, 0
2, 100560, Note_on_c, 0, 79, 63
2, 100680, Note_on_c, 0, 79, 0
2, 100680, Note_on_c, 0, 68, 64
2, 100680, Note_on_c, 0, 79, 64
2, 100800, Note_on_c, 0, 79, 0
2, 100800, Note_on_c, 0, 68, 0
2, 100800, Note_on_c, 0, 68, 64
2, 100800, Note_on_c, 0, 72, 64
2, 100920, Note_on_c, 0, 72, 0
2, 100920, Note_on_c, 0, 68, 0
2, 100920, Note_on_c, 0, 68, 65
2, 101040, Note_on_c, 0, 68, 0
2, 101040, Note_on_c, 0, 68, 67
2, 101040, Note_on_c, 0, 77, 67
2, 101160, Note_on_c, 0, 77, 0
2, 101160, Note_on_c, 0, 68, 0
2, 101160, Note_on_c, 0, 62, 67
2, 101160, Note_on_c, 0, 77, 67
2, 101280, Note_on_c, 0, 77, 0
2, 101280, Note_on_c, 0, 62, 0
2, 101280, Note_on_c, 0, 77, 67
2, 101400, Note_on_c, 0, 77, 0
2, 101400, Note_on_c, 0, 67, 67
2, 101400, Note_on_c, 0, 77, 67
2, 101520, Note_on_c, 0, 77, 0
2, 101520, Note_on_c, 0, 67, 0
2, 101520, Note_on_c, 0, 67, 67
2, 101520, Note_on_c, 0, 70, 67
2, 101640, Note_on_c, 0, 70, 0
2, 101640, Note_on_c, 0, 67, 0
2, 101640, Note_on_c, 0, 67, 67
2, 101760, Note_on_c, 0, 67, 0
2, 101760, Note_on_c, 0, 75, 67
2, 101760, Note_on_c, 0, 67, 67
2, 101880, Note_on_c, 0, 67, 0
2, 101880, Note_on_c, 0, 75, 0
2, 101880, Note_on_c, 0, 75, 68
2, 101880, Note_on_c, 0, 60, 68
2, 102000, Note_on_c, 0, 60, 0
2, 102000, Note_on_c, 0, 75, 0
2, 102000, Note_on_c, 0, 75, 68
2, 102120, Note_on_c, 0, 75, 0
2, 102120, Note_on_c, 0, 75, 68
2, 102120, Note_on_c, 0, 65, 68
2, 102240, Note_on_c, 0, 65, 0
2, 102240, Note_on_c, 0, 75, 0
2, 102240, Note_on_c, 0, 65, 68
2, 102240, Note_on_c, 0, 68, 68
2, 102360, Note_on_c, 0, 68, 0
2, 102360, Note_on_c, 0, 65, 0
2, 102360, Note_on_c, 0, 74, 68
2, 102480, Note_on_c, 0, 74, 0
2, 102480, Note_on_c, 0, 67, 85
2, 102600, Note_on_c, 0, 67, 0
2, 102600, Note_on_c, 0, 72, 88
2, 102720, Note_on_c, 0, 72, 0
2, 102720, Note_on_c, 0, 65, 89
2, 102840, Note_on_c, 0, 65, 0
2, 102840, Note_on_c, 0, 70, 91
2, 102960, Note_on_c, 0, 70, 0
2, 102960, Note_on_c, 0, 63, 92
2, 103080, Note_on_c, 0, 63, 0
2, 103080, Note_on_c, 0, 68, 92
2, 103200, Note_on_c, 0, 68, 0
2, 103200, Note_on_c, 0, 62, 94
2, 103320, Note_on_c, 0, 62, 0
2, 103320, Note_on_c, 0, 67, 96
2, 103440, Note_on_c, 0, 67, 0
2, 103440, Note_on_c, 0, 62, 97
2, 103560, Note_on_c, 0, 62, 0
2, 103560, Note_on_c, 0, 63, 98
2, 103680, Note_on_c, 0, 63, 0
2, 103680, Note_on_c, 0, 60, 100
2, 103800, Note_on_c, 0, 60, 0
2, 103800, Note_on_c, 0, 58, 101
2, 103920, Note_on_c, 0, 58, 0
2, 103920, Note_on_c, 0, 57, 103
2, 104040, Note_on_c, 0, 57, 0
2, 104040, Note_on_c, 0, 58, 104
2, 104160, Note_on_c, 0, 58, 0
2, 104160, Note_on_c, 0, 63, 106
2, 104280, Note_on_c, 0, 63, 0
2, 104280, Note_on_c, 0, 62, 108
2, 104400, Note_on_c, 0, 62, 0
2, 104400, Note_on_c, 0, 63, 109
2, 104520, Note_on_c, 0, 63, 0
2, 104640, Note_on_c, 0, 82, 114
2, 104760, Note_on_c, 0, 82, 0
2, 104760, Note_on_c, 0, 70, 115
2, 104760, Note_on_c, 0, 74, 115
2, 104760, Note_on_c, 0, 82, 115
2, 104880, Note_on_c, 0, 82, 0
2, 104880, Note_on_c, 0, 74, 0
2, 104880, Note_on_c, 0, 70, 0
2, 104880, Note_on_c, 0, 72, 116
2, 104880, Note_on_c, 0, 75, 116
2, 104880, Note_on_c, 0, 82, 116
2, 105000, Note_on_c, 0, 82, 0
2, 105000, Note_on_c, 0, 75, 0
2, 105000, Note_on_c, 0, 72, 0
2, 105000, Note_on_c, 0, 74, 118
2, 105000, Note_on_c, 0, 77, 118
2, 105000, Note_on_c, 0, 82, 118
2, 105120, Note_on_c, 0, 82, 0
2, 105120, Note_on_c, 0, 77, 0
2, 105120, Note_on_c, 0, 74, 0
2, 105120, Note_on_c, 0, 87, 119
2, 105240, Note_on_c, 0, 87, 0
2, 105360, Note_on_c, 0, 70, 121
2, 105360, Note_on_c, 0, 82, 121
2, 105480, Note_on_c, 0, 82, 0
2, 105480, Note_on_c, 0, 70, 0
2, 105480, Note_on_c, 0, 70, 122
2, 105480, Note_on_c, 0, 82, 122
2, 105600, Note_on_c, 0, 82, 0
2, 105600, Note_on_c, 0, 70, 0
2, 105600, Note_on_c, 0, 70, 122
2, 105600, Note_on_c, 0, 82, 122
2, 105720, Note_on_c, 0, 82, 0
2, 105720, Note_on_c, 0, 70, 0
2, 105720, Note_on_c, 0, 70, 122
2, 105720, Note_on_c, 0, 82, 122
2, 105840, Note_on_c, 0, 82, 0
2, 105840, Note_on_c, 0, 70, 0
2, 105840, Note_on_c, 0, 63, 122
2, 105840, Note_on_c, 0, 75, 122
2, 105960, Note_on_c, 0, 75, 0
2, 105960, Note_on_c, 0, 63, 0
2, 106080, Note_on_c, 0, 70, 119
2, 106080, Note_on_c, 0, 82, 119
2, 106200, Note_on_c, 0, 82, 0
2, 106200, Note_on_c, 0, 70, 0
2, 106200, Note_on_c, 0, 70, 119
2, 106200, Note_on_c, 0, 74, 119
2, 106200, Note_on_c, 0, 82, 119
2, 106320, Note_on_c, 0, 82, 0
2, 106320, Note_on_c, 0, 74, 0
2, 106320, Note_on_c, 0, 70, 0
2, 106320, Note_on_c, 0, 72, 118
2, 106320, Note_on_c, 0, 75, 118
2, 106320, Note_on_c, 0, 82, 118
2, 106440, Note_on_c, 0, 82, 0
2, 106440, Note_on_c, 0, 75, 0
2, 106440, Note_on_c, 0, 72, 0
2, 106440, Note_on_c, 0, 74, 116
2, 106440, Note_on_c, 0, 77, 116
2, 106440, Note_on_c, 0, 82, 116
2, 106560, Note_on_c, 0, 82, 0
2, 106560, Note_on_c, 0, 77, 0
2, 106560, Note_on_c, 0, 74, 0
2, 106560, Note_on_c, 0, 87, 125
2, 106680, Note_on_c, 0, 87, 0
2, 106800, Note_on_c, 0, 82, 113
2, 106920, Note_on_c, 0, 82, 0
2, 106920, Note_on_c, 0, 82, 108
2, 107040, Note_on_c, 0, 82, 0
2, 107040, Note_on_c, 0, 82, 102
2, 107160, Note_on_c, 0, 82, 0
2, 107160, Note_on_c, 0, 82, 97
2, 107280, Note_on_c, 0, 82, 0
2, 107280, Note_on_c, 0, 75, 90
2, 107400, Note_on_c, 0, 75, 0
2, 108240, Note_on_c, 0, 72, 84
2, 108360, Note_on_c, 0, 72, 0
2, 108360, Note_on_c, 0, 72, 88
2, 108465, Note_on_c, 0, 74, 90
2, 108480, Note_on_c, 0, 74, 0
2, 108480, Note_on_c, 0, 72, 0
2, 108480, Note_on_c, 0, 72, 91
2, 108540, Note_on_c, 0, 72, 0
2, 108540, Note_on_c, 0, 71, 91
2, 108600, Note_on_c, 0, 71, 0
2, 108600, Note_on_c, 0, 72, 91
2, 108720, Note_on_c, 0, 72, 0
2, 108720, Note_on_c, 0, 75, 89
2, 108720, Note_on_c, 0, 71, 89
2, 108780, Note_on_c, 0, 75, 0
2, 108780, Note_on_c, 0, 74, 87
2, 108840, Note_on_c, 0, 74, 0
2, 108840, Note_on_c, 0, 71, 0
2, 108840, Note_on_c, 0, 72, 84
2, 108960, Note_on_c, 0, 72, 0
2, 109680, Note_on_c, 0, 77, 71
2, 109800, Note_on_c, 0, 77, 0
2, 109800, Note_on_c, 0, 77, 71
2, 109905, Note_on_c, 0, 79, 71
2, 109920, Note_on_c, 0, 79, 0
2, 109920, Note_on_c, 0, 77, 0
2, 109920, Note_on_c, 0, 77, 71
2, 109980, Note_on_c, 0, 77, 0
2, 109980, Note_on_c, 0, 76, 71
2, 110040, Note_on_c, 0, 76, 0
2, 110040, Note_on_c, 0, 77, 71
2, 110160, Note_on_c, 0, 77, 0
2, 110160, Note_on_c, 0, 80, 71
2, 110160, Note_on_c, 0, 76, 71
2, 110220, Note_on_c, 0, 80, 0
2, 110220, Note_on_c, 0, 79, 71
2, 110280, Note_on_c, 0, 79, 0
2, 110280, Note_on_c, 0, 76, 0
2, 110280, Note_on_c, 0, 77, 70
2, 110400, Note_on_c, 0, 77, 0
2, 110400, Note_on_c, 0, 80, 75
2, 110520, Note_on_c, 0, 80, 0
2, 110520, Note_on_c, 0, 72, 79
2, 110640, Note_on_c, 0, 72, 0
2, 110640, Note_on_c, 0, 71, 79
2, 110760, Note_on_c, 0, 71, 0
2, 110760, Note_on_c, 0, 77, 79
2, 110880, Note_on_c, 0, 77, 0
2, 110880, Note_on_c, 0, 68, 79
2, 111000, Note_on_c, 0, 68, 0
2, 111000, Note_on_c, 0, 67, 79
2, 111120, Note_on_c, 0, 67, 0
2, 111120, Note_on_c, 0, 74, 79
2, 111240, Note_on_c, 0, 74, 0
2, 111240, Note_on_c, 0, 62, 78
2, 111240, Note_on_c, 0, 65, 78
2, 111360, Note_on_c, 0, 65, 0
2, 111360, Note_on_c, 0, 62, 0
2, 111360, Note_on_c, 0, 63, 78
2, 111360, Note_on_c, 0, 60, 78
2, 111480, Note_on_c, 0, 60, 0
2, 111480, Note_on_c, 0, 63, 0
2, 111480, Note_on_c, 0, 72, 78
2, 111480, Note_on_c, 0, 63, 78
2, 111600, Note_on_c, 0, 63, 0
2, 111600, Note_on_c, 0, 72, 0
2, 111600, Note_on_c, 0, 60, 78
2, 111600, Note_on_c, 0, 63, 78
2, 111720, Note_on_c, 0, 63, 0
2, 111720, Note_on_c, 0, 60, 0
2, 111720, Note_on_c, 0, 59, 78
2, 111720, Note_on_c, 0, 62, 78
2, 111840, Note_on_c, 0, 62, 0
2, 111840, Note_on_c, 0, 59, 0
2, 111840, Note_on_c, 0, 79, 78
2, 111960, Note_on_c, 0, 79, 0
2, 111960, Note_on_c, 0, 79, 78
2, 112080, Note_on_c, 0, 79, 0
2, 112080, Note_on_c, 0, 79, 63
2, 112200, Note_on_c, 0, 79, 0
2, 112200, Note_on_c, 0, 68, 64
2, 112200, Note_on_c, 0, 79, 64
2, 112320, Note_on_c, 0, 79, 0
2, 112320, Note_on_c, 0, 68, 0
2, 112320, Note_on_c, 0, 68, 64
2, 112320, Note_on_c, 0, 72, 64
2, 112440, Note_on_c, 0, 72, 0
2, 112440, Note_on_c, 0, 68, 0
2, 112440, Note_on_c, 0, 68, 65
2, 112560, Note_on_c, 0, 68, 0
2, 112560, Note_on_c, 0, 68, 67
2, 112560, Note_on_c, 0, 77, 67
2, 112680, Note_on_c, 0, 77, 0
2, 112680, Note_on_c, 0, 68, 0
2, 112680, Note_on_c, 0, 62, 67
2, 112680, Note_on_c, 0, 77, 67
2, 112800, Note_on_c, 0, 77, 0
2, 112800, Note_on_c, 0, 62, 0
2, 112800, Note_on_c, 0, 77, 67
2, 112920, Note_on_c, 0, 77, 0
2, 112920, Note_on_c, 0, 67, 67
2, 112920, Note_on_c, 0, 77, 67
2, 113040, Note_on_c, 0, 77, 0
2, 113040, Note_on_c, 0, 67, 0
2, 113040, Note_on_c, 0, 67, 67
2, 113040, Note_on_c, 0, 70, 67
2, 113160, Note_on_c, 0, 70, 0
2, 113160, Note_on_c, 0, 67, 0
2, 113160, Note_on_c, 0, 67, 67
2, 113280, Note_on_c, 0, 67, 0
2, 113280, Note_on_c, 0, 75, 67
2, 113280, Note_on_c, 0, 67, 67
2, 113400, Note_on_c, 0, 67, 0
2, 113400, Note_on_c, 0, 75, 0
2, 113400, Note_on_c, 0, 75, 68
2, 113400, Note_on_c, 0, 60, 68
2, 113520, Note_on_c, 0, 60, 0
2, 113520, Note_on_c, 0, 75, 0
2, 113520, Note_on_c, 0, 75, 68
2, 113640, Note_on_c, 0, 75, 0
2, 113640, Note_on_c, 0, 75, 68
2, 113640, Note_on_c, 0, 65, 68
2, 113760, Note_on_c, 0, 65, 0
2, 113760, Note_on_c, 0, 75, 0
2, 113760, Note_on_c, 0, 65, 68
2, 113760, Note_on_c, 0, 68, 68
2, 113880, Note_on_c, 0, 68, 0
2, 113880, Note_on_c, 0, 65, 0
2, 113880, Note_on_c, 0, 74, 68
2, 114000, Note_on_c, 0, 74, 0
2, 114000, Note_on_c, 0, 67, 85
2, 114120, Note_on_c, 0, 67, 0
2, 114120, Note_on_c, 0, 72, 88
2, 114240, Note_on_c, 0, 72, 0
2, 114240, Note_on_c, 0, 65, 89
2, 114360, Note_on_c, 0, 65, 0
2, 114360, Note_on_c, 0, 70, 91
2, 114480, Note_on_c, 0, 70, 0
2, 114480, Note_on_c, 0, 63, 92
2, 114600, Note_on_c, 0, 63, 0
2, 114600, Note_on_c, 0, 68, 92
2, 114720, Note_on_c, 0, 68, 0
2, 114720, Note_on_c, 0, 62, 94
2, 114840, Note_on_c, 0, 62, 0
2, 114840, Note_on_c, 0, 67, 96
2, 114960, Note_on_c, 0, 67, 0
2, 114960, Note_on_c, 0, 62, 97
2, 115080, Note_on_c, 0, 62, 0
2, 115080, Note_on_c, 0, 63, 98
2, 115200, Note_on_c, 0, 63, 0
2, 115200, Note_on_c, 0, 60, 100
2, 115320, Note_on_c, 0, 60, 0
2, 115320, Note_on_c, 0, 58, 101
2, 115440, Note_on_c, 0, 58, 0
2, 115440, Note_on_c, 0, 57, 113
2, 115560, Note_on_c, 0, 57, 0
2, 115560, Note_on_c, 0, 58, 104
2, 115680, Note_on_c, 0, 58, 0
2, 115680, Note_on_c, 0, 63, 106
2, 115800, Note_on_c, 0, 63, 0
2, 115800, Note_on_c, 0, 62, 108
2, 115920, Note_on_c, 0, 62, 0
2, 115920, Note_on_c, 0, 63, 109
2, 116040, Note_on_c, 0, 63, 0
2, 116160, Note_on_c, 0, 82, 114
2, 116280, Note_on_c, 0, 82, 0
2, 116280, Note_on_c, 0, 70, 115
2, 116280, Note_on_c, 0, 74, 115
2, 116280, Note_on_c, 0, 82, 115
2, 116400, Note_on_c, 0, 82, 0
2, 116400, Note_on_c, 0, 74, 0
2, 116400, Note_on_c, 0, 70, 0
2, 116400, Note_on_c, 0, 72, 116
2, 116400, Note_on_c, 0, 75, 116
2, 116400, Note_on_c, 0, 82, 116
2, 116520, Note_on_c, 0, 82, 0
2, 116520, Note_on_c, 0, 75, 0
2, 116520, Note_on_c, 0, 72, 0
2, 116520, Note_on_c, 0, 74, 118
2, 116520, Note_on_c, 0, 77, 118
2, 116520, Note_on_c, 0, 82, 118
2, 116640, Note_on_c, 0, 82, 0
2, 116640, Note_on_c, 0, 77, 0
2, 116640, Note_on_c, 0, 74, 0
2, 116640, Note_on_c, 0, 87, 119
2, 116760, Note_on_c, 0, 87, 0
2, 116880, Note_on_c, 0, 70, 121
2, 116880, Note_on_c, 0, 82, 121
2, 117000, Note_on_c, 0, 82, 0
2, 117000, Note_on_c, 0, 70, 0
2, 117000, Note_on_c, 0, 70, 122
2, 117000, Note_on_c, 0, 82, 122
2, 117120, Note_on_c, 0, 82, 0
2, 117120, Note_on_c, 0, 70, 0
2, 117120, Note_on_c, 0, 70, 122
2, 117120, Note_on_c, 0, 82, 122
2, 117240, Note_on_c, 0, 82, 0
2, 117240, Note_on_c, 0, 70, 0
2, 117240, Note_on_c, 0, 70, 122
2, 117240, Note_on_c, 0, 82, 122
2, 117360, Note_on_c, 0, 82, 0
2, 117360, Note_on_c, 0, 70, 0
2, 117360, Note_on_c, 0, 63, 122
2, 117360, Note_on_c, 0, 75, 122
2, 117480, Note_on_c, 0, 75, 0
2, 117480, Note_on_c, 0, 63, 0
2, 117600, Note_on_c, 0, 70, 119
2, 117600, Note_on_c, 0, 82, 119
2, 117720, Note_on_c, 0, 82, 0
2, 117720, Note_on_c, 0, 70, 0
2, 117720, Note_on_c, 0, 70, 119
2, 117720, Note_on_c, 0, 74, 119
2, 117720, Note_on_c, 0, 82, 119
2, 117840, Note_on_c, 0, 82, 0
2, 117840, Note_on_c, 0, 74, 0
2, 117840, Note_on_c, 0, 70, 0
2, 117840, Note_on_c, 0, 72, 118
2, 117840, Note_on_c, 0, 75, 118
2, 117840, Note_on_c, 0, 82, 118
2, 117960, Note_on_c, 0, 82, 0
2, 117960, Note_on_c, 0, 75, 0
2, 117960, Note_on_c, 0, 72, 0
2, 117960, Note_on_c, 0, 74, 116
2, 117960, Note_on_c, 0, 77, 116
2, 117960, Note_on_c, 0, 82, 116
2, 118080, Note_on_c, 0, 82, 0
2, 118080, Note_on_c, 0, 77, 0
2, 118080, Note_on_c, 0, 74, 0
2, 118080, Note_on_c, 0, 87, 115
2, 118200, Note_on_c, 0, 87, 0
2, 118320, Note_on_c, 0, 82, 113
2, 118440, Note_on_c, 0, 82, 0
2, 118440, Note_on_c, 0, 82, 108
2, 118560, Note_on_c, 0, 82, 0
2, 118560, Note_on_c, 0, 82, 102
2, 118680, Note_on_c, 0, 82, 0
2, 118680, Note_on_c, 0, 82, 97
2, 118800, Note_on_c, 0, 82, 0
2, 118800, Note_on_c, 0, 75, 90
2, 118920, Note_on_c, 0, 75, 0
2, 119040, Note_on_c, 0, 79, 74
2, 119160, Note_on_c, 0, 79, 0
2, 119160, Note_on_c, 0, 79, 74
2, 119280, Note_on_c, 0, 79, 0
2, 119280, Note_on_c, 0, 79, 75
2, 119400, Note_on_c, 0, 79, 0
2, 119400, Note_on_c, 0, 79, 76
2, 119400, Note_on_c, 0, 75, 76
2, 119520, Note_on_c, 0, 75, 0
2, 119520, Note_on_c, 0, 79, 0
2, 119520, Note_on_c, 0, 75, 76
2, 119520, Note_on_c, 0, 72, 76
2, 119640, Note_on_c, 0, 72, 0
2, 119640, Note_on_c, 0, 75, 0
2, 119640, Note_on_c, 0, 75, 76
2, 119760, Note_on_c, 0, 75, 0
2, 119760, Note_on_c, 0, 77, 76
2, 119760, Note_on_c, 0, 75, 76
2, 119880, Note_on_c, 0, 75, 0
2, 119880, Note_on_c, 0, 77, 0
2, 119880, Note_on_c, 0, 69, 78
2, 119880, Note_on_c, 0, 77, 78
2, 120000, Note_on_c, 0, 77, 0
2, 120000, Note_on_c, 0, 69, 0
2, 120000, Note_on_c, 0, 77, 79
2, 120120, Note_on_c, 0, 77, 0
2, 120120, Note_on_c, 0, 74, 81
2, 120120, Note_on_c, 0, 77, 81
2, 120240, Note_on_c, 0, 77, 0
2, 120240, Note_on_c, 0, 74, 0
2, 120240, Note_on_c, 0, 74, 83
2, 120240, Note_on_c, 0, 70, 83
2, 120360, Note_on_c, 0, 70, 0
2, 120360, Note_on_c, 0, 74, 0
2, 120360, Note_on_c, 0, 74, 83
2, 120480, Note_on_c, 0, 74, 0
2, 120480, Note_on_c, 0, 74, 83
2, 120480, Note_on_c, 0, 75, 83
2, 120600, Note_on_c, 0, 75, 0
2, 120600, Note_on_c, 0, 74, 0
2, 120600, Note_on_c, 0, 67, 83
2, 120600, Note_on_c, 0, 75, 83
2, 120720, Note_on_c, 0, 75, 0
2, 120720, Note_on_c, 0, 67, 0
2, 120720, Note_on_c, 0, 75, 83
2, 120840, Note_on_c, 0, 75, 0
2, 120840, Note_on_c, 0, 72, 84
2, 120840, Note_on_c, 0, 75, 84
2, 120960, Note_on_c, 0, 75, 0
2, 120960, Note_on_c, 0, 72, 0
2, 120960, Note_on_c, 0, 72, 84
2, 120960, Note_on_c, 0, 69, 84
2, 121080, Note_on_c, 0, 69, 0
2, 121080, Note_on_c, 0, 72, 0
2, 121080, Note_on_c, 0, 66, 84
2, 121080, Note_on_c, 0, 74, 84
2, 121200, Note_on_c, 0, 74, 0
2, 121200, Note_on_c, 0, 66, 0
2, 121200, Note_on_c, 0, 70, 84
2, 121200, Note_on_c, 0, 67, 84
2, 121320, Note_on_c, 0, 67, 0
2, 121320, Note_on_c, 0, 70, 0
2, 121320, Note_on_c, 0, 64, 84
2, 121320, Note_on_c, 0, 72, 84
2, 121440, Note_on_c, 0, 72, 0
2, 121440, Note_on_c, 0, 64, 0
2, 121440, Note_on_c, 0, 69, 84
2, 121440, Note_on_c, 0, 66, 84
2, 121560, Note_on_c, 0, 66, 0
2, 121560, Note_on_c, 0, 69, 0
2, 121560, Note_on_c, 0, 62, 86
2, 121560, Note_on_c, 0, 70, 86
2, 121680, Note_on_c, 0, 70, 0
2, 121680, Note_on_c, 0, 62, 0
2, 121680, Note_on_c, 0, 69, 87
2, 121800, Note_on_c, 0, 69, 0
2, 121800, Note_on_c, 0, 67, 88
2, 121920, Note_on_c, 0, 67, 0
2, 121920, Note_on_c, 0, 66, 89
2, 122040, Note_on_c, 0, 66, 0
2, 122040, Note_on_c, 0, 67, 89
2, 122145, Note_on_c, 0, 69, 89
2, 122160, Note_on_c, 0, 69, 0
2, 122160, Note_on_c, 0, 67, 0
2, 122160, Note_on_c, 0, 67, 89
2, 122220, Note_on_c, 0, 67, 0
2, 122220, Note_on_c, 0, 66, 89
2, 122280, Note_on_c, 0, 66, 0
2, 122280, Note_on_c, 0, 67, 89
2, 122400, Note_on_c, 0, 67, 0
2, 122400, Note_on_c, 0, 74, 89
2, 122505, Note_on_c, 0, 76, 89
2, 122520, Note_on_c, 0, 76, 0
2, 122520, Note_on_c, 0, 74, 0
2, 122520, Note_on_c, 0, 74, 89
2, 122580, Note_on_c, 0, 74, 0
2, 122580, Note_on_c, 0, 73, 89
2, 122640, Note_on_c, 0, 73, 0
2, 122640, Note_on_c, 0, 74, 89
2, 122760, Note_on_c, 0, 74, 0
2, 122760, Note_on_c, 0, 79, 89
2, 122865, Note_on_c, 0, 81, 89
2, 122880, Note_on_c, 0, 81, 0
2, 122880, Note_on_c, 0, 79, 0
2, 122880, Note_on_c, 0, 79, 89
2, 122940, Note_on_c, 0, 79, 0
2, 122940, Note_on_c, 0, 78, 89
2, 123000, Note_on_c, 0, 78, 0
2, 123000, Note_on_c, 0, 79, 89
2, 123105, Note_on_c, 0, 74, 89
2, 123120, Note_on_c, 0, 74, 0
2, 123120, Note_on_c, 0, 79, 0
2, 123120, Note_on_c, 0, 86, 109
2, 123600, Note_on_c, 0, 86, 0
2, 123600, Note_on_c, 0, 86, 89
2, 123660, Note_on_c, 0, 86, 0
2, 123660, Note_on_c, 0, 84, 89
2, 123720, Note_on_c, 0, 84, 0
2, 123720, Note_on_c, 0, 84, 89
2, 123780, Note_on_c, 0, 84, 0
2, 123780, Note_on_c, 0, 82, 89
2, 123840, Note_on_c, 0, 82, 0
2, 123840, Note_on_c, 0, 82, 89
2, 123900, Note_on_c, 0, 82, 0
2, 123900, Note_on_c, 0, 81, 89
2, 123960, Note_on_c, 0, 81, 0
2, 123960, Note_on_c, 0, 81, 89
2, 124020, Note_on_c, 0, 81, 0
2, 124020, Note_on_c, 0, 79, 89
2, 124080, Note_on_c, 0, 79, 0
2, 124080, Note_on_c, 0, 79, 89
2, 124140, Note_on_c, 0, 79, 0
2, 124140, Note_on_c, 0, 78, 89
2, 124200, Note_on_c, 0, 78, 0
2, 124200, Note_on_c, 0, 79, 109
2, 124200, Note_on_c, 0, 67, 119
2, 124320, Note_on_c, 0, 67, 0
2, 124320, Note_on_c, 0, 79, 0
2, 124320, Note_on_c, 0, 69, 88
2, 124360, Note_on_c, 0, 69, 0
2, 124360, Note_on_c, 0, 67, 90
2, 124400, Note_on_c, 0, 67, 0
2, 124400, Note_on_c, 0, 66, 95
2, 124440, Note_on_c, 0, 66, 0
2, 124440, Note_on_c, 0, 67, 98
2, 124560, Note_on_c, 0, 67, 0
2, 124560, Note_on_c, 0, 74, 110
2, 124680, Note_on_c, 0, 74, 0
2, 124680, Note_on_c, 0, 76, 81
2, 124720, Note_on_c, 0, 76, 0
2, 124720, Note_on_c, 0, 74, 84
2, 124760, Note_on_c, 0, 74, 0
2, 124760, Note_on_c, 0, 73, 88
2, 124800, Note_on_c, 0, 73, 0
2, 124800, Note_on_c, 0, 74, 92
2, 124920, Note_on_c, 0, 74, 0
2, 124920, Note_on_c, 0, 79, 120
2, 125040, Note_on_c, 0, 79, 0
2, 125040, Note_on_c, 0, 81, 72
2, 125080, Note_on_c, 0, 81, 0
2, 125080, Note_on_c, 0, 79, 77
2, 125120, Note_on_c, 0, 79, 0
2, 125120, Note_on_c, 0, 78, 80
2, 125160, Note_on_c, 0, 78, 0
2, 125160, Note_on_c, 0, 79, 85
2, 125280, Note_on_c, 0, 79, 0
2, 125280, Note_on_c, 0, 74, 110
2, 125280, Note_on_c, 0, 86, 110
2, 125640, Note_on_c, 0, 86, 0
2, 125640, Note_on_c, 0, 74, 0
2, 125640, Note_on_c, 0, 75, 124
2, 125760, Note_on_c, 0, 75, 0
2, 125760, Note_on_c, 0, 77, 84
2, 125800, Note_on_c, 0, 77, 0
2, 125800, Note_on_c, 0, 75, 87
2, 125840, Note_on_c, 0, 75, 0
2, 125840, Note_on_c, 0, 74, 89
2, 125880, Note_on_c, 0, 74, 0
2, 125880, Note_on_c, 0, 75, 91
2, 126000, Note_on_c, 0, 75, 0
2, 126000, Note_on_c, 0, 70, 106
2, 126000, Note_on_c, 0, 82, 106
2, 126360, Note_on_c, 0, 82, 0
2, 126360, Note_on_c, 0, 70, 0
2, 126360, Note_on_c, 0, 72, 120
2, 126480, Note_on_c, 0, 72, 0
2, 126480, Note_on_c, 0, 74, 86
2, 126520, Note_on_c, 0, 74, 0
2, 126520, Note_on_c, 0, 72, 90
2, 126560, Note_on_c, 0, 72, 0
2, 126560, Note_on_c, 0, 71, 93
2, 126600, Note_on_c, 0, 71, 0
2, 126600, Note_on_c, 0, 72, 96
2, 126720, Note_on_c, 0, 72, 0
2, 126720, Note_on_c, 0, 79, 109
2, 126720, Note_on_c, 0, 67, 109
2, 127200, Note_on_c, 0, 67, 0
2, 127200, Note_on_c, 0, 79, 0
2, 127200, Note_on_c, 0, 65, 69
2, 127200, Note_on_c, 0, 77, 69
2, 127320, Note_on_c, 0, 77, 0
2, 127320, Note_on_c, 0, 65, 0
2, 127320, Note_on_c, 0, 75, 71
2, 127320, Note_on_c, 0, 63, 71
2, 127560, Note_on_c, 0, 63, 0
2, 127560, Note_on_c, 0, 75, 0
2, 127560, Note_on_c, 0, 62, 74
2, 127560, Note_on_c, 0, 74, 74
2, 127680, Note_on_c, 0, 74, 0
2, 127680, Note_on_c, 0, 62, 0
2, 127680, Note_on_c, 0, 60, 75
2, 127680, Note_on_c, 0, 72, 75
2, 127800, Note_on_c, 0, 72, 0
2, 127800, Note_on_c, 0, 60, 0
2, 127800, Note_on_c, 0, 71, 72
2, 127800, Note_on_c, 0, 59, 72
2, 127920, Note_on_c, 0, 59, 0
2, 127920, Note_on_c, 0, 71, 0
2, 127920, Note_on_c, 0, 62, 67
2, 127980, Note_on_c, 0, 62, 0
2, 127980, Note_on_c, 0, 59, 67
2, 128040, Note_on_c, 0, 59, 0
2, 128040, Note_on_c, 0, 62, 67
2, 128040, Note_on_c, 0, 67, 67
2, 128100, Note_on_c, 0, 62, 0
2, 128100, Note_on_c, 0, 59, 67
2, 128160, Note_on_c, 0, 59, 0
2, 128160, Note_on_c, 0, 67, 0
2, 128160, Note_on_c, 0, 63, 67
2, 128160, Note_on_c, 0, 66, 67
2, 128280, Note_on_c, 0, 66, 0
2, 128280, Note_on_c, 0, 63, 0
2, 128280, Note_on_c, 0, 63, 67
2, 128280, Note_on_c, 0, 66, 67
2, 128400, Note_on_c, 0, 66, 0
2, 128400, Note_on_c, 0, 63, 0
2, 128400, Note_on_c, 0, 63, 67
2, 128400, Note_on_c, 0, 66, 67
2, 128520, Note_on_c, 0, 66, 0
2, 128520, Note_on_c, 0, 63, 0
2, 128580, Note_on_c, 0, 62, 67
2, 128640, Note_on_c, 0, 62, 0
2, 128640, Note_on_c, 0, 67, 67
2, 128700, Note_on_c, 0, 67, 0
2, 128700, Note_on_c, 0, 71, 67
2, 128760, Note_on_c, 0, 71, 0
2, 128760, Note_on_c, 0, 79, 66
2, 128760, Note_on_c, 0, 74, 66
2, 128820, Note_on_c, 0, 74, 0
2, 128820, Note_on_c, 0, 71, 66
2, 128880, Note_on_c, 0, 71, 0
2, 128880, Note_on_c, 0, 79, 0
2, 128880, Note_on_c, 0, 72, 67
2, 128880, Note_on_c, 0, 67, 89
2, 128880, Note_on_c, 0, 75, 67
2, 128880, Note_on_c, 0, 78, 67
2, 128940, Note_on_c, 0, 72, 0
2, 128940, Note_on_c, 0, 69, 67
2, 129000, Note_on_c, 0, 69, 0
2, 129000, Note_on_c, 0, 78, 0
2, 129000, Note_on_c, 0, 75, 0
2, 129000, Note_on_c, 0, 67, 0
2, 129000, Note_on_c, 0, 72, 67
2, 129000, Note_on_c, 0, 67, 89
2, 129000, Note_on_c, 0, 78, 67
2, 129000, Note_on_c, 0, 75, 67
2, 129060, Note_on_c, 0, 72, 0
2, 129060, Note_on_c, 0, 69, 67
2, 129120, Note_on_c, 0, 69, 0
2, 129120, Note_on_c, 0, 75, 0
2, 129120, Note_on_c, 0, 78, 0
2, 129120, Note_on_c, 0, 67, 0
2, 129120, Note_on_c, 0, 67, 89
2, 129120, Note_on_c, 0, 78, 67
2, 129120, Note_on_c, 0, 75, 67
2, 129120, Note_on_c, 0, 72, 67
2, 129180, Note_on_c, 0, 72, 0
2, 129180, Note_on_c, 0, 69, 67
2, 129240, Note_on_c, 0, 69, 0
2, 129240, Note_on_c, 0, 75, 0
2, 129240, Note_on_c, 0, 78, 0
2, 129240, Note_on_c, 0, 67, 0
2, 129240, Note_on_c, 0, 71, 67
2, 129240, Note_on_c, 0, 67, 67
2, 129240, Note_on_c, 0, 74, 67
2, 129240, Note_on_c, 0, 79, 67
2, 129300, Note_on_c, 0, 71, 0
2, 129300, Note_on_c, 0, 67, 67
2, 129360, Note_on_c, 0, 67, 0
2, 129360, Note_on_c, 0, 79, 0
2, 129360, Note_on_c, 0, 74, 0
2, 129360, Note_on_c, 0, 67, 0
2, 129360, Note_on_c, 0, 62, 67
2, 129420, Note_on_c, 0, 62, 0
2, 129420, Note_on_c, 0, 59, 67
2, 129480, Note_on_c, 0, 59, 0
2, 129480, Note_on_c, 0, 62, 67
2, 129480, Note_on_c, 0, 67, 67
2, 129540, Note_on_c, 0, 62, 0
2, 129540, Note_on_c, 0, 59, 67
2, 129600, Note_on_c, 0, 59, 0
2, 129600, Note_on_c, 0, 67, 0
2, 129600, Note_on_c, 0, 63, 67
2, 129600, Note_on_c, 0, 66, 67
2, 129720, Note_on_c, 0, 66, 0
2, 129720, Note_on_c, 0, 63, 0
2, 129720, Note_on_c, 0, 63, 67
2, 129720, Note_on_c, 0, 66, 67
2, 129840, Note_on_c, 0, 66, 0
2, 129840, Note_on_c, 0, 63, 0
2, 129840, Note_on_c, 0, 63, 67
2, 129840, Note_on_c, 0, 66, 67
2, 129960, Note_on_c, 0, 66, 0
2, 129960, Note_on_c, 0, 63, 0
2, 130020, Note_on_c, 0, 62, 67
2, 130080, Note_on_c, 0, 62, 0
2, 130080, Note_on_c, 0, 67, 67
2, 130140, Note_on_c, 0, 67, 0
2, 130140, Note_on_c, 0, 71, 67
2, 130200, Note_on_c, 0, 71, 0
2, 130200, Note_on_c, 0, 79, 66
2, 130200, Note_on_c, 0, 74, 66
2, 130260, Note_on_c, 0, 74, 0
2, 130260, Note_on_c, 0, 71, 66
2, 130320, Note_on_c, 0, 71, 0
2, 130320, Note_on_c, 0, 79, 0
2, 130320, Note_on_c, 0, 72, 67
2, 130320, Note_on_c, 0, 67, 89
2, 130320, Note_on_c, 0, 75, 67
2, 130320, Note_on_c, 0, 78, 67
2, 130380, Note_on_c, 0, 72, 0
2, 130380, Note_on_c, 0, 69, 67
2, 130440, Note_on_c, 0, 69, 0
2, 130440, Note_on_c, 0, 78, 0
2, 130440, Note_on_c, 0, 75, 0
2, 130440, Note_on_c, 0, 67, 0
2, 130440, Note_on_c, 0, 72, 67
2, 130440, Note_on_c, 0, 67, 89
2, 130440, Note_on_c, 0, 78, 67
2, 130440, Note_on_c, 0, 75, 67
2, 130500, Note_on_c, 0, 72, 0
2, 130500, Note_on_c, 0, 69, 67
2, 130560, Note_on_c, 0, 69, 0
2, 130560, Note_on_c, 0, 75, 0
2, 130560, Note_on_c, 0, 78, 0
2, 130560, Note_on_c, 0, 67, 0
2, 130560, Note_on_c, 0, 67, 89
2, 130560, Note_on_c, 0, 78, 67
2, 130560, Note_on_c, 0, 75, 67
2, 130560, Note_on_c, 0, 72, 67
2, 130620, Note_on_c, 0, 72, 0
2, 130620, Note_on_c, 0, 69, 67
2, 130680, Note_on_c, 0, 69, 0
2, 130680, Note_on_c, 0, 75, 0
2, 130680, Note_on_c, 0, 78, 0
2, 130680, Note_on_c, 0, 67, 0
2, 130680, Note_on_c, 0, 74, 73
2, 130680, Note_on_c, 0, 79, 73
2, 130680, Note_on_c, 0, 67, 73
2, 130740, Note_on_c, 0, 74, 0
2, 130740, Note_on_c, 0, 71, 75
2, 130800, Note_on_c, 0, 71, 0
2, 130800, Note_on_c, 0, 67, 0
2, 130800, Note_on_c, 0, 79, 0
2, 130800, Note_on_c, 0, 72, 76
2, 130800, Note_on_c, 0, 77, 76
2, 130860, Note_on_c, 0, 72, 0
2, 130860, Note_on_c, 0, 68, 77
2, 130920, Note_on_c, 0, 68, 0
2, 130920, Note_on_c, 0, 77, 0
2, 130920, Note_on_c, 0, 70, 77
2, 130920, Note_on_c, 0, 75, 77
2, 130980, Note_on_c, 0, 70, 0
2, 130980, Note_on_c, 0, 67, 77
2, 131040, Note_on_c, 0, 67, 0
2, 131040, Note_on_c, 0, 75, 0
2, 131040, Note_on_c, 0, 68, 77
2, 131040, Note_on_c, 0, 74, 77
2, 131100, Note_on_c, 0, 68, 0
2, 131100, Note_on_c, 0, 65, 77
2, 131160, Note_on_c, 0, 65, 0
2, 131160, Note_on_c, 0, 74, 0
2, 131160, Note_on_c, 0, 67, 76
2, 131160, Note_on_c, 0, 72, 76
2, 131220, Note_on_c, 0, 67, 0
2, 131220, Note_on_c, 0, 63, 76
2, 131280, Note_on_c, 0, 63, 0
2, 131280, Note_on_c, 0, 72, 0
2, 131280, Note_on_c, 0, 65, 74
2, 131280, Note_on_c, 0, 71, 74
2, 131340, Note_on_c, 0, 65, 0
2, 131340, Note_on_c, 0, 62, 73
2, 131400, Note_on_c, 0, 62, 0
2, 131400, Note_on_c, 0, 71, 0
2, 131400, Note_on_c, 0, 63, 71
2, 131400, Note_on_c, 0, 72, 71
2, 131460, Note_on_c, 0, 72, 0
2, 131460, Note_on_c, 0, 63, 0
2, 131460, Note_on_c, 0, 60, 68
2, 131520, Note_on_c, 0, 60, 0
2, 131520, Note_on_c, 0, 63, 65
2, 131580, Note_on_c, 0, 63, 0
2, 131580, Note_on_c, 0, 67, 64
2, 131640, Note_on_c, 0, 67, 0
2, 131640, Note_on_c, 0, 60, 69
2, 131640, Note_on_c, 0, 63, 69
2, 131640, Note_on_c, 0, 72, 69
2, 131745, Note_on_c, 0, 74, 89
2, 131750, Note_on_c, 0, 74, 0
2, 131760, Note_on_c, 0, 60, 0
2, 131760, Note_on_c, 0, 63, 0
2, 131760, Note_on_c, 0, 72, 0
2, 131760, Note_on_c, 0, 72, 94
2, 131760, Note_on_c, 0, 67, 94
2, 131760, Note_on_c, 0, 63, 94
2, 131880, Note_on_c, 0, 63, 0
2, 131880, Note_on_c, 0, 67, 0
2, 131880, Note_on_c, 0, 72, 0
2, 131880, Note_on_c, 0, 72, 82
2, 131880, Note_on_c, 0, 63, 82
2, 131880, Note_on_c, 0, 67, 82
2, 131940, Note_on_c, 0, 72, 0
2, 131940, Note_on_c, 0, 71, 93
2, 132000, Note_on_c, 0, 71, 0
2, 132000, Note_on_c, 0, 67, 0
2, 132000, Note_on_c, 0, 63, 0
2, 132000, Note_on_c, 0, 72, 106
2, 132000, Note_on_c, 0, 63, 106
2, 132000, Note_on_c, 0, 67, 106
2, 132120, Note_on_c, 0, 67, 0
2, 132120, Note_on_c, 0, 63, 0
2, 132120, Note_on_c, 0, 72, 0
2, 132120, Note_on_c, 0, 71, 85
2, 132120, Note_on_c, 0, 75, 85
2, 132120, Note_on_c, 0, 67, 85
2, 132120, Note_on_c, 0, 65, 85
2, 132180, Note_on_c, 0, 75, 0
2, 132180, Note_on_c, 0, 71, 0
2, 132180, Note_on_c, 0, 74, 96
2, 132240, Note_on_c, 0, 74, 0
2, 132240, Note_on_c, 0, 67, 0
2, 132240, Note_on_c, 0, 65, 0
2, 132240, Note_on_c, 0, 72, 102
2, 132240, Note_on_c, 0, 63, 102
2, 132240, Note_on_c, 0, 67, 102
2, 132360, Note_on_c, 0, 67, 0
2, 132360, Note_on_c, 0, 63, 0
2, 132360, Note_on_c, 0, 72, 0
2, 132360, Note_on_c, 0, 80, 77
2, 132420, Note_on_c, 0, 80, 0
2, 132420, Note_on_c, 0, 72, 79
2, 132480, Note_on_c, 0, 72, 0
2, 132480, Note_on_c, 0, 79, 80
2, 132540, Note_on_c, 0, 79, 0
2, 132540, Note_on_c, 0, 70, 82
2, 132600, Note_on_c, 0, 70, 0
2, 132600, Note_on_c, 0, 77, 83
2, 132660, Note_on_c, 0, 77, 0
2, 132660, Note_on_c, 0, 68, 85
2, 132720, Note_on_c, 0, 68, 0
2, 132720, Note_on_c, 0, 76, 86
2, 132780, Note_on_c, 0, 76, 0
2, 132780, Note_on_c, 0, 67, 88
2, 132840, Note_on_c, 0, 67, 0
2, 132840, Note_on_c, 0, 77, 90
2, 132900, Note_on_c, 0, 77, 0
2, 132900, Note_on_c, 0, 65, 92
2, 132960, Note_on_c, 0, 65, 0
2, 132960, Note_on_c, 0, 68, 94
2, 133020, Note_on_c, 0, 68, 0
2, 133020, Note_on_c, 0, 72, 95
2, 133080, Note_on_c, 0, 72, 0
2, 133080, Note_on_c, 0, 72, 98
2, 133080, Note_on_c, 0, 68, 98
2, 133080, Note_on_c, 0, 77, 98
2, 133185, Note_on_c, 0, 79, 104
2, 133192, Note_on_c, 0, 79, 0
2, 133200, Note_on_c, 0, 72, 0
2, 133200, Note_on_c, 0, 68, 0
2, 133200, Note_on_c, 0, 77, 0
2, 133200, Note_on_c, 0, 77, 106
2, 133200, Note_on_c, 0, 72, 106
2, 133200, Note_on_c, 0, 68, 106
2, 133320, Note_on_c, 0, 68, 0
2, 133320, Note_on_c, 0, 72, 0
2, 133320, Note_on_c, 0, 77, 0
2, 133320, Note_on_c, 0, 77, 114
2, 133320, Note_on_c, 0, 72, 114
2, 133320, Note_on_c, 0, 68, 114
2, 133380, Note_on_c, 0, 77, 0
2, 133380, Note_on_c, 0, 76, 98
2, 133440, Note_on_c, 0, 76, 0
2, 133440, Note_on_c, 0, 68, 0
2, 133440, Note_on_c, 0, 72, 0
2, 133440, Note_on_c, 0, 77, 98
2, 133440, Note_on_c, 0, 72, 98
2, 133440, Note_on_c, 0, 68, 98
2, 133560, Note_on_c, 0, 68, 0
2, 133560, Note_on_c, 0, 72, 0
2, 133560, Note_on_c, 0, 77, 0
2, 133560, Note_on_c, 0, 70, 98
2, 133560, Note_on_c, 0, 72, 98
2, 133560, Note_on_c, 0, 76, 98
2, 133560, Note_on_c, 0, 80, 98
2, 133620, Note_on_c, 0, 80, 0
2, 133620, Note_on_c, 0, 76, 0
2, 133620, Note_on_c, 0, 79, 98
2, 133680, Note_on_c, 0, 79, 0
2, 133680, Note_on_c, 0, 72, 0
2, 133680, Note_on_c, 0, 70, 0
2, 133680, Note_on_c, 0, 72, 98
2, 133680, Note_on_c, 0, 68, 98
2, 133680, Note_on_c, 0, 77, 98
2, 133800, Note_on_c, 0, 77, 0
2, 133800, Note_on_c, 0, 68, 0
2, 133800, Note_on_c, 0, 72, 0
2, 133800, Note_on_c, 0, 72, 97
2, 133800, Note_on_c, 0, 84, 97
2, 133920, Note_on_c, 0, 84, 0
2, 133920, Note_on_c, 0, 72, 0
2, 133920, Note_on_c, 0, 72, 97
2, 133920, Note_on_c, 0, 84, 97
2, 134040, Note_on_c, 0, 84, 0
2, 134040, Note_on_c, 0, 72, 0
2, 134040, Note_on_c, 0, 72, 99
2, 134040, Note_on_c, 0, 84, 99
2, 134160, Note_on_c, 0, 84, 0
2, 134160, Note_on_c, 0, 72, 0
2, 134160, Note_on_c, 0, 72, 111
2, 134160, Note_on_c, 0, 84, 111
2, 134280, Note_on_c, 0, 84, 0
2, 134280, Note_on_c, 0, 72, 0
2, 134280, Note_on_c, 0, 65, 121
2, 134280, Note_on_c, 0, 77, 121
2, 134400, Note_on_c, 0, 77, 0
2, 134400, Note_on_c, 0, 65, 0
2, 134520, Note_on_c, 0, 89, 89
2, 134520, Note_on_c, 0, 77, 89
2, 134640, Note_on_c, 0, 77, 0
2, 134640, Note_on_c, 0, 89, 0
2, 134640, Note_on_c, 0, 89, 89
2, 134640, Note_on_c, 0, 77, 89
2, 134760, Note_on_c, 0, 77, 0
2, 134760, Note_on_c, 0, 89, 0
2, 134760, Note_on_c, 0, 89, 89
2, 134760, Note_on_c, 0, 77, 89
2, 134880, Note_on_c, 0, 77, 0
2, 134880, Note_on_c, 0, 89, 0
2, 134880, Note_on_c, 0, 89, 89
2, 134880, Note_on_c, 0, 77, 89
2, 135000, Note_on_c, 0, 77, 0
2, 135000, Note_on_c, 0, 89, 0
2, 135000, Note_on_c, 0, 71, 89
2, 135000, Note_on_c, 0, 83, 89
2, 135240, Note_on_c, 0, 83, 0
2, 135240, Note_on_c, 0, 71, 0
2, 135240, Note_on_c, 0, 83, 89
2, 135240, Note_on_c, 0, 71, 89
2, 135360, Note_on_c, 0, 71, 0
2, 135360, Note_on_c, 0, 83, 0
2, 135360, Note_on_c, 0, 72, 89
2, 135360, Note_on_c, 0, 84, 89
2, 135480, Note_on_c, 0, 84, 0
2, 135480, Note_on_c, 0, 72, 0
2, 135480, Note_on_c, 0, 80, 80
2, 135540, Note_on_c, 0, 80, 0
2, 135540, Note_on_c, 0, 77, 85
2, 135600, Note_on_c, 0, 77, 0
2, 135600, Note_on_c, 0, 79, 89
2, 135660, Note_on_c, 0, 79, 0
2, 135660, Note_on_c, 0, 75, 93
2, 135720, Note_on_c, 0, 75, 0
2, 135720, Note_on_c, 0, 77, 97
2, 135780, Note_on_c, 0, 77, 0
2, 135780, Note_on_c, 0, 74, 100
2, 135840, Note_on_c, 0, 74, 0
2, 135840, Note_on_c, 0, 75, 103
2, 135900, Note_on_c, 0, 75, 0
2, 135900, Note_on_c, 0, 72, 106
2, 135960, Note_on_c, 0, 72, 0
2, 135960, Note_on_c, 0, 74, 108
2, 136020, Note_on_c, 0, 74, 0
2, 136020, Note_on_c, 0, 71, 111
2, 136080, Note_on_c, 0, 71, 0
2, 136080, Note_on_c, 0, 72, 115
2, 136200, Note_on_c, 0, 72, 0
2, 136320, Note_on_c, 0, 67, 124
2, 136320, Note_on_c, 0, 71, 124
2, 136320, Note_on_c, 0, 74, 124
2, 136320, Note_on_c, 0, 77, 124
2, 136320, Note_on_c, 0, 79, 124
2, 136440, Note_on_c, 0, 79, 0
2, 136440, Note_on_c, 0, 74, 0
2, 136440, Note_on_c, 0, 67, 0
2, 136440, Note_on_c, 0, 71, 0
2, 136440, Note_on_c, 0, 77, 0
2, 136440, Note_on_c, 0, 67, 123
2, 136440, Note_on_c, 0, 71, 123
2, 136440, Note_on_c, 0, 74, 123
2, 136440, Note_on_c, 0, 77, 123
2, 136440, Note_on_c, 0, 79, 123
2, 136560, Note_on_c, 0, 79, 0
2, 136560, Note_on_c, 0, 74, 0
2, 136560, Note_on_c, 0, 67, 0
2, 136560, Note_on_c, 0, 71, 0
2, 136560, Note_on_c, 0, 77, 0
2, 136560, Note_on_c, 0, 67, 121
2, 136560, Note_on_c, 0, 71, 121
2, 136560, Note_on_c, 0, 74, 121
2, 136560, Note_on_c, 0, 77, 121
2, 136560, Note_on_c, 0, 79, 121
2, 136680, Note_on_c, 0, 79, 0
2, 136680, Note_on_c, 0, 74, 0
2, 136680, Note_on_c, 0, 67, 0
2, 136680, Note_on_c, 0, 71, 0
2, 136680, Note_on_c, 0, 77, 0
2, 136680, Note_on_c, 0, 67, 121
2, 136680, Note_on_c, 0, 71, 121
2, 136680, Note_on_c, 0, 74, 121
2, 136680, Note_on_c, 0, 77, 121
2, 136680, Note_on_c, 0, 79, 121
2, 136800, Note_on_c, 0, 79, 0
2, 136800, Note_on_c, 0, 74, 0
2, 136800, Note_on_c, 0, 67, 0
2, 136800, Note_on_c, 0, 71, 0
2, 136800, Note_on_c, 0, 77, 0
2, 136800, Note_on_c, 0, 72, 121
2, 136800, Note_on_c, 0, 75, 121
2, 136800, Note_on_c, 0, 79, 121
2, 136800, Note_on_c, 0, 84, 121
2, 136920, Note_on_c, 0, 84, 0
2, 136920, Note_on_c, 0, 72, 0
2, 136920, Note_on_c, 0, 75, 0
2, 136920, Note_on_c, 0, 79, 0
2, 137040, Note_on_c, 0, 59, 121
2, 137040, Note_on_c, 0, 62, 121
2, 137040, Note_on_c, 0, 65, 121
2, 137040, Note_on_c, 0, 67, 121
2, 137160, Note_on_c, 0, 67, 0
2, 137160, Note_on_c, 0, 59, 0
2, 137160, Note_on_c, 0, 62, 0
2, 137160, Note_on_c, 0, 65, 0
2, 137160, Note_on_c, 0, 59, 121
2, 137160, Note_on_c, 0, 62, 121
2, 137160, Note_on_c, 0, 65, 121
2, 137160, Note_on_c, 0, 67, 121
2, 137280, Note_on_c, 0, 67, 0
2, 137280, Note_on_c, 0, 59, 0
2, 137280, Note_on_c, 0, 62, 0
2, 137280, Note_on_c, 0, 65, 0
2, 137280, Note_on_c, 0, 59, 121
2, 137280, Note_on_c, 0, 62, 121
2, 137280, Note_on_c, 0, 65, 121
2, 137280, Note_on_c, 0, 67, 121
2, 137400, Note_on_c, 0, 67, 0
2, 137400, Note_on_c, 0, 59, 0
2, 137400, Note_on_c, 0, 62, 0
2, 137400, Note_on_c, 0, 65, 0
2, 137400, Note_on_c, 0, 59, 121
2, 137400, Note_on_c, 0, 62, 121
2, 137400, Note_on_c, 0, 65, 121
2, 137400, Note_on_c, 0, 67, 121
2, 137520, Note_on_c, 0, 67, 0
2, 137520, Note_on_c, 0, 59, 0
2, 137520, Note_on_c, 0, 62, 0
2, 137520, Note_on_c, 0, 65, 0
2, 137520, Note_on_c, 0, 60, 121
2, 137640, Note_on_c, 0, 60, 0
2, 137760, Note_on_c, 0, 67, 124
2, 137760, Note_on_c, 0, 71, 124
2, 137760, Note_on_c, 0, 74, 124
2, 137760, Note_on_c, 0, 77, 124
2, 137760, Note_on_c, 0, 79, 124
2, 137880, Note_on_c, 0, 79, 0
2, 137880, Note_on_c, 0, 74, 0
2, 137880, Note_on_c, 0, 67, 0
2, 137880, Note_on_c, 0, 71, 0
2, 137880, Note_on_c, 0, 77, 0
2, 137880, Note_on_c, 0, 67, 123
2, 137880, Note_on_c, 0, 71, 123
2, 137880, Note_on_c, 0, 74, 123
2, 137880, Note_on_c, 0, 77, 123
2, 137880, Note_on_c, 0, 79, 123
2, 138000, Note_on_c, 0, 79, 0
2, 138000, Note_on_c, 0, 74, 0
2, 138000, Note_on_c, 0, 67, 0
2, 138000, Note_on_c, 0, 71, 0
2, 138000, Note_on_c, 0, 77, 0
2, 138000, Note_on_c, 0, 67, 121
2, 138000, Note_on_c, 0, 71, 121
2, 138000, Note_on_c, 0, 74, 121
2, 138000, Note_on_c, 0, 77, 121
2, 138000, Note_on_c, 0, 79, 121
2, 138120, Note_on_c, 0, 79, 0
2, 138120, Note_on_c, 0, 74, 0
2, 138120, Note_on_c, 0, 67, 0
2, 138120, Note_on_c, 0, 71, 0
2, 138120, Note_on_c, 0, 77, 0
2, 138120, Note_on_c, 0, 67, 121
2, 138120, Note_on_c, 0, 71, 121
2, 138120, Note_on_c, 0, 74, 121
2, 138120, Note_on_c, 0, 77, 121
2, 138120, Note_on_c, 0, 79, 121
2, 138240, Note_on_c, 0, 79, 0
2, 138240, Note_on_c, 0, 74, 0
2, 138240, Note_on_c, 0, 67, 0
2, 138240, Note_on_c, 0, 71, 0
2, 138240, Note_on_c, 0, 77, 0
2, 138240, Note_on_c, 0, 72, 121
2, 138240, Note_on_c, 0, 75, 121
2, 138240, Note_on_c, 0, 79, 121
2, 138240, Note_on_c, 0, 84, 121
2, 138360, Note_on_c, 0, 84, 0
2, 138360, Note_on_c, 0, 72, 0
2, 138360, Note_on_c, 0, 75, 0
2, 138360, Note_on_c, 0, 79, 0
2, 138480, Note_on_c, 0, 59, 121
2, 138480, Note_on_c, 0, 62, 121
2, 138480, Note_on_c, 0, 65, 121
2, 138480, Note_on_c, 0, 67, 121
2, 138600, Note_on_c, 0, 67, 0
2, 138600, Note_on_c, 0, 59, 0
2, 138600, Note_on_c, 0, 62, 0
2, 138600, Note_on_c, 0, 65, 0
2, 138600, Note_on_c, 0, 59, 121
2, 138600, Note_on_c, 0, 62, 121
2, 138600, Note_on_c, 0, 65, 121
2, 138600, Note_on_c, 0, 67, 121
2, 138720, Note_on_c, 0, 67, 0
2, 138720, Note_on_c, 0, 59, 0
2, 138720, Note_on_c, 0, 62, 0
2, 138720, Note_on_c, 0, 65, 0
2, 138720, Note_on_c, 0, 59, 121
2, 138720, Note_on_c, 0, 62, 121
2, 138720, Note_on_c, 0, 65, 121
2, 138720, Note_on_c, 0, 67, 121
2, 138840, Note_on_c, 0, 67, 0
2, 138840, Note_on_c, 0, 59, 0
2, 138840, Note_on_c, 0, 62, 0
2, 138840, Note_on_c, 0, 65, 0
2, 138840, Note_on_c, 0, 59, 121
2, 138840, Note_on_c, 0, 62, 121
2, 138840, Note_on_c, 0, 65, 121
2, 138840, Note_on_c, 0, 67, 121
2, 138960, Note_on_c, 0, 67, 0
2, 138960, Note_on_c, 0, 59, 0
2, 138960, Note_on_c, 0, 62, 0
2, 138960, Note_on_c, 0, 65, 0
2, 138960, Note_on_c, 0, 60, 127
2, 139080, Note_on_c, 0, 60, 0
2, 139200, Note_on_c, 0, 79, 74
2, 139320, Note_on_c, 0, 79, 0
2, 139320, Note_on_c, 0, 79, 74
2, 139440, Note_on_c, 0, 79, 0
2, 139440, Note_on_c, 0, 79, 75
2, 139560, Note_on_c, 0, 79, 0
2, 139560, Note_on_c, 0, 79, 76
2, 139560, Note_on_c, 0, 75, 76
2, 139680, Note_on_c, 0, 75, 0
2, 139680, Note_on_c, 0, 79, 0
2, 139680, Note_on_c, 0, 75, 76
2, 139680, Note_on_c, 0, 72, 76
2, 139800, Note_on_c, 0, 72, 0
2, 139800, Note_on_c, 0, 75, 0
2, 139800, Note_on_c, 0, 75, 76
2, 139920, Note_on_c, 0, 75, 0
2, 139920, Note_on_c, 0, 77, 76
2, 139920, Note_on_c, 0, 75, 76
2, 140040, Note_on_c, 0, 75, 0
2, 140040, Note_on_c, 0, 77, 0
2, 140040, Note_on_c, 0, 69, 78
2, 140040, Note_on_c, 0, 77, 78
2, 140160, Note_on_c, 0, 77, 0
2, 140160, Note_on_c, 0, 69, 0
2, 140160, Note_on_c, 0, 77, 79
2, 140280, Note_on_c, 0, 77, 0
2, 140280, Note_on_c, 0, 74, 81
2, 140280, Note_on_c, 0, 77, 81
2, 140400, Note_on_c, 0, 77, 0
2, 140400, Note_on_c, 0, 74, 0
2, 140400, Note_on_c, 0, 74, 83
2, 140400, Note_on_c, 0, 70, 83
2, 140520, Note_on_c, 0, 70, 0
2, 140520, Note_on_c, 0, 74, 0
2, 140520, Note_on_c, 0, 74, 83
2, 140640, Note_on_c, 0, 74, 0
2, 140640, Note_on_c, 0, 74, 83
2, 140640, Note_on_c, 0, 75, 83
2, 140760, Note_on_c, 0, 75, 0
2, 140760, Note_on_c, 0, 74, 0
2, 140760, Note_on_c, 0, 67, 83
2, 140760, Note_on_c, 0, 75, 83
2, 140880, Note_on_c, 0, 75, 0
2, 140880, Note_on_c, 0, 67, 0
2, 140880, Note_on_c, 0, 75, 83
2, 141000, Note_on_c, 0, 75, 0
2, 141000, Note_on_c, 0, 72, 84
2, 141000, Note_on_c, 0, 75, 84
2, 141120, Note_on_c, 0, 75, 0
2, 141120, Note_on_c, 0, 72, 0
2, 141120, Note_on_c, 0, 72, 84
2, 141120, Note_on_c, 0, 69, 84
2, 141240, Note_on_c, 0, 69, 0
2, 141240, Note_on_c, 0, 72, 0
2, 141240, Note_on_c, 0, 66, 84
2, 141240, Note_on_c, 0, 74, 84
2, 141360, Note_on_c, 0, 74, 0
2, 141360, Note_on_c, 0, 66, 0
2, 141360, Note_on_c, 0, 70, 84
2, 141360, Note_on_c, 0, 67, 84
2, 141480, Note_on_c, 0, 67, 0
2, 141480, Note_on_c, 0, 70, 0
2, 141480, Note_on_c, 0, 64, 84
2, 141480, Note_on_c, 0, 72, 84
2, 141600, Note_on_c, 0, 72, 0
2, 141600, Note_on_c, 0, 64, 0
2, 141600, Note_on_c, 0, 69, 84
2, 141600, Note_on_c, 0, 66, 84
2, 141720, Note_on_c, 0, 66, 0
2, 141720, Note_on_c, 0, 69, 0
2, 141720, Note_on_c, 0, 62, 86
2, 141720, Note_on_c, 0, 70, 86
2, 141840, Note_on_c, 0, 70, 0
2, 141840, Note_on_c, 0, 62, 0
2, 141840, Note_on_c, 0, 69, 87
2, 141960, Note_on_c, 0, 69, 0
2, 141960, Note_on_c, 0, 67, 88
2, 142080, Note_on_c, 0, 67, 0
2, 142080, Note_on_c, 0, 66, 89
2, 142200, Note_on_c, 0, 66, 0
2, 142200, Note_on_c, 0, 67, 89
2, 142305, Note_on_c, 0, 69, 89
2, 142320, Note_on_c, 0, 69, 0
2, 142320, Note_on_c, 0, 67, 0
2, 142320, Note_on_c, 0, 67, 89
2, 142380, Note_on_c, 0, 67, 0
2, 142380, Note_on_c, 0, 66, 89
2, 142440, Note_on_c, 0, 66, 0
2, 142440, Note_on_c, 0, 67, 89
2, 142560, Note_on_c, 0, 67, 0
2, 142560, Note_on_c, 0, 74, 89
2, 142665, Note_on_c, 0, 76, 89
2, 142680, Note_on_c, 0, 76, 0
2, 142680, Note_on_c, 0, 74, 0
2, 142680, Note_on_c, 0, 74, 89
2, 142740, Note_on_c, 0, 74, 0
2, 142740, Note_on_c, 0, 73, 89
2, 142800, Note_on_c, 0, 73, 0
2, 142800, Note_on_c, 0, 74, 89
2, 142920, Note_on_c, 0, 74, 0
2, 142920, Note_on_c, 0, 79, 89
2, 143025, Note_on_c, 0, 81, 89
2, 143040, Note_on_c, 0, 81, 0
2, 143040, Note_on_c, 0, 79, 0
2, 143040, Note_on_c, 0, 79, 89
2, 143100, Note_on_c, 0, 79, 0
2, 143100, Note_on_c, 0, 78, 89
2, 143160, Note_on_c, 0, 78, 0
2, 143160, Note_on_c, 0, 79, 89
2, 143265, Note_on_c, 0, 74, 89
2, 143280, Note_on_c, 0, 74, 0
2, 143280, Note_on_c, 0, 79, 0
2, 143280, Note_on_c, 0, 86, 109
2, 143760, Note_on_c, 0, 86, 0
2, 143760, Note_on_c, 0, 86, 89
2, 143820, Note_on_c, 0, 86, 0
2, 143820, Note_on_c, 0, 84, 89
2, 143880, Note_on_c, 0, 84, 0
2, 143880, Note_on_c, 0, 84, 89
2, 143940, Note_on_c, 0, 84, 0
2, 143940, Note_on_c, 0, 82, 89
2, 144000, Note_on_c, 0, 82, 0
2, 144000, Note_on_c, 0, 82, 89
2, 144060, Note_on_c, 0, 82, 0
2, 144060, Note_on_c, 0, 81, 89
2, 144120, Note_on_c, 0, 81, 0
2, 144120, Note_on_c, 0, 81, 89
2, 144180, Note_on_c, 0, 81, 0
2, 144180, Note_on_c, 0, 79, 89
2, 144240, Note_on_c, 0, 79, 0
2, 144240, Note_on_c, 0, 79, 89
2, 144300, Note_on_c, 0, 79, 0
2, 144300, Note_on_c, 0, 78, 89
2, 144360, Note_on_c, 0, 78, 0
2, 144360, Note_on_c, 0, 79, 109
2, 144360, Note_on_c, 0, 67, 119
2, 144480, Note_on_c, 0, 67, 0
2, 144480, Note_on_c, 0, 79, 0
2, 144480, Note_on_c, 0, 69, 88
2, 144520, Note_on_c, 0, 69, 0
2, 144520, Note_on_c, 0, 67, 90
2, 144560, Note_on_c, 0, 67, 0
2, 144560, Note_on_c, 0, 66, 95
2, 144600, Note_on_c, 0, 66, 0
2, 144600, Note_on_c, 0, 67, 98
2, 144720, Note_on_c, 0, 67, 0
2, 144720, Note_on_c, 0, 74, 110
2, 144840, Note_on_c, 0, 74, 0
2, 144840, Note_on_c, 0, 76, 81
2, 144880, Note_on_c, 0, 76, 0
2, 144880, Note_on_c, 0, 74, 84
2, 144920, Note_on_c, 0, 74, 0
2, 144920, Note_on_c, 0, 73, 88
2, 144960, Note_on_c, 0, 73, 0
2, 144960, Note_on_c, 0, 74, 92
2, 145080, Note_on_c, 0, 74, 0
2, 145080, Note_on_c, 0, 79, 120
2, 145200, Note_on_c, 0, 79, 0
2, 145200, Note_on_c, 0, 81, 72
2, 145240, Note_on_c, 0, 81, 0
2, 145240, Note_on_c, 0, 79, 77
2, 145280, Note_on_c, 0, 79, 0
2, 145280, Note_on_c, 0, 78, 80
2, 145320, Note_on_c, 0, 78, 0
2, 145320, Note_on_c, 0, 79, 85
2, 145440, Note_on_c, 0, 79, 0
2, 145440, Note_on_c, 0, 74, 110
2, 145440, Note_on_c, 0, 86, 110
2, 145800, Note_on_c, 0, 86, 0
2, 145800, Note_on_c, 0, 74, 0
2, 145800, Note_on_c, 0, 75, 124
2, 145920, Note_on_c, 0, 75, 0
2, 145920, Note_on_c, 0, 77, 84
2, 145960, Note_on_c, 0, 77, 0
2, 145960, Note_on_c, 0, 75, 87
2, 146000, Note_on_c, 0, 75, 0
2, 146000, Note_on_c, 0, 74, 89
2, 146040, Note_on_c, 0, 74, 0
2, 146040, Note_on_c, 0, 75, 91
2, 146160, Note_on_c, 0, 75, 0
2, 146160, Note_on_c, 0, 70, 106
2, 146160, Note_on_c, 0, 82, 106
2, 146520, Note_on_c, 0, 82, 0
2, 146520, Note_on_c, 0, 70, 0
2, 146520, Note_on_c, 0, 72, 120
2, 146640, Note_on_c, 0, 72, 0
2, 146640, Note_on_c, 0, 74, 86
2, 146680, Note_on_c, 0, 74, 0
2, 146680, Note_on_c, 0, 72, 90
2, 146720, Note_on_c, 0, 72, 0
2, 146720, Note_on_c, 0, 71, 93
2, 146760, Note_on_c, 0, 71, 0
2, 146760, Note_on_c, 0, 72, 96
2, 146880, Note_on_c, 0, 72, 0
2, 146880, Note_on_c, 0, 79, 109
2, 146880, Note_on_c, 0, 67, 109
2, 147360, Note_on_c, 0, 67, 0
2, 147360, Note_on_c, 0, 79, 0
2, 147360, Note_on_c, 0, 65, 69
2, 147360, Note_on_c, 0, 77, 69
2, 147480, Note_on_c, 0, 77, 0
2, 147480, Note_on_c, 0, 65, 0
2, 147480, Note_on_c, 0, 75, 71
2, 147480, Note_on_c, 0, 63, 71
2, 147720, Note_on_c, 0, 63, 0
2, 147720, Note_on_c, 0, 75, 0
2, 147720, Note_on_c, 0, 62, 74
2, 147720, Note_on_c, 0, 74, 74
2, 147840, Note_on_c, 0, 74, 0
2, 147840, Note_on_c, 0, 62, 0
2, 147840, Note_on_c, 0, 60, 75
2, 147840, Note_on_c, 0, 72, 75
2, 147960, Note_on_c, 0, 72, 0
2, 147960, Note_on_c, 0, 60, 0
2, 147960, Note_on_c, 0, 71, 72
2, 147960, Note_on_c, 0, 59, 72
2, 148080, Note_on_c, 0, 59, 0
2, 148080, Note_on_c, 0, 71, 0
2, 148080, Note_on_c, 0, 62, 67
2, 148140, Note_on_c, 0, 62, 0
2, 148140, Note_on_c, 0, 59, 67
2, 148200, Note_on_c, 0, 59, 0
2, 148200, Note_on_c, 0, 62, 67
2, 148200, Note_on_c, 0, 67, 67
2, 148260, Note_on_c, 0, 62, 0
2, 148260, Note_on_c, 0, 59, 67
2, 148320, Note_on_c, 0, 59, 0
2, 148320, Note_on_c, 0, 67, 0
2, 148320, Note_on_c, 0, 63, 67
2, 148320, Note_on_c, 0, 66, 67
2, 148440, Note_on_c, 0, 66, 0
2, 148440, Note_on_c, 0, 63, 0
2, 148440, Note_on_c, 0, 63, 67
2, 148440, Note_on_c, 0, 66, 67
2, 148560, Note_on_c, 0, 66, 0
2, 148560, Note_on_c, 0, 63, 0
2, 148560, Note_on_c, 0, 63, 67
2, 148560, Note_on_c, 0, 66, 67
2, 148680, Note_on_c, 0, 66, 0
2, 148680, Note_on_c, 0, 63, 0
2, 148740, Note_on_c, 0, 62, 67
2, 148800, Note_on_c, 0, 62, 0
2, 148800, Note_on_c, 0, 67, 67
2, 148860, Note_on_c, 0, 67, 0
2, 148860, Note_on_c, 0, 71, 67
2, 148920, Note_on_c, 0, 71, 0
2, 148920, Note_on_c, 0, 79, 66
2, 148920, Note_on_c, 0, 74, 66
2, 148980, Note_on_c, 0, 74, 0
2, 148980, Note_on_c, 0, 71, 66
2, 149040, Note_on_c, 0, 71, 0
2, 149040, Note_on_c, 0, 79, 0
2, 149040, Note_on_c, 0, 72, 67
2, 149040, Note_on_c, 0, 67, 89
2, 149040, Note_on_c, 0, 75, 67
2, 149040, Note_on_c, 0, 78, 67
2, 149100, Note_on_c, 0, 72, 0
2, 149100, Note_on_c, 0, 69, 67
2, 149160, Note_on_c, 0, 69, 0
2, 149160, Note_on_c, 0, 78, 0
2, 149160, Note_on_c, 0, 75, 0
2, 149160, Note_on_c, 0, 67, 0
2, 149160, Note_on_c, 0, 72, 67
2, 149160, Note_on_c, 0, 67, 89
2, 149160, Note_on_c, 0, 78, 67
2, 149160, Note_on_c, 0, 75, 67
2, 149220, Note_on_c, 0, 72, 0
2, 149220, Note_on_c, 0, 69, 67
2, 149280, Note_on_c, 0, 69, 0
2, 149280, Note_on_c, 0, 75, 0
2, 149280, Note_on_c, 0, 78, 0
2, 149280, Note_on_c, 0, 67, 0
2, 149280, Note_on_c, 0, 67, 89
2, 149280, Note_on_c, 0, 78, 67
2, 149280, Note_on_c, 0, 75, 67
2, 149280, Note_on_c, 0, 72, 67
2, 149340, Note_on_c, 0, 72, 0
2, 149340, Note_on_c, 0, 69, 67
2, 149400, Note_on_c, 0, 69, 0
2, 149400, Note_on_c, 0, 75, 0
2, 149400, Note_on_c, 0, 78, 0
2, 149400, Note_on_c, 0, 67, 0
2, 149400, Note_on_c, 0, 71, 67
2, 149400, Note_on_c, 0, 67, 67
2, 149400, Note_on_c, 0, 74, 67
2, 149400, Note_on_c, 0, 79, 67
2, 149460, Note_on_c, 0, 71, 0
2, 149460, Note_on_c, 0, 67, 67
2, 149520, Note_on_c, 0, 67, 0
2, 149520, Note_on_c, 0, 79, 0
2, 149520, Note_on_c, 0, 74, 0
2, 149520, Note_on_c, 0, 67, 0
2, 149520, Note_on_c, 0, 62, 67
2, 149580, Note_on_c, 0, 62, 0
2, 149580, Note_on_c, 0, 59, 67
2, 149640, Note_on_c, 0, 59, 0
2, 149640, Note_on_c, 0, 62, 67
2, 149640, Note_on_c, 0, 67, 67
2, 149700, Note_on_c, 0, 62, 0
2, 149700, Note_on_c, 0, 59, 67
2, 149760, Note_on_c, 0, 59, 0
2, 149760, Note_on_c, 0, 67, 0
2, 149760, Note_on_c, 0, 63, 67
2, 149760, Note_on_c, 0, 66, 67
2, 149880, Note_on_c, 0, 66, 0
2, 149880, Note_on_c, 0, 63, 0
2, 149880, Note_on_c, 0, 63, 67
2, 149880, Note_on_c, 0, 66, 67
2, 150000, Note_on_c, 0, 66, 0
2, 150000, Note_on_c, 0, 63, 0
2, 150000, Note_on_c, 0, 63, 67
2, 150000, Note_on_c, 0, 66, 67
2, 150120, Note_on_c, 0, 66, 0
2, 150120, Note_on_c, 0, 63, 0
2, 150180, Note_on_c, 0, 62, 67
2, 150240, Note_on_c, 0, 62, 0
2, 150240, Note_on_c, 0, 67, 67
2, 150300, Note_on_c, 0, 67, 0
2, 150300, Note_on_c, 0, 71, 67
2, 150360, Note_on_c, 0, 71, 0
2, 150360, Note_on_c, 0, 79, 66
2, 150360, Note_on_c, 0, 74, 66
2, 150420, Note_on_c, 0, 74, 0
2, 150420, Note_on_c, 0, 71, 66
2, 150480, Note_on_c, 0, 71, 0
2, 150480, Note_on_c, 0, 79, 0
2, 150480, Note_on_c, 0, 72, 67
2, 150480, Note_on_c, 0, 67, 89
2, 150480, Note_on_c, 0, 75, 67
2, 150480, Note_on_c, 0, 78, 67
2, 150540, Note_on_c, 0, 72, 0
2, 150540, Note_on_c, 0, 69, 67
2, 150600, Note_on_c, 0, 69, 0
2, 150600, Note_on_c, 0, 78, 0
2, 150600, Note_on_c, 0, 75, 0
2, 150600, Note_on_c, 0, 67, 0
2, 150600, Note_on_c, 0, 72, 67
2, 150600, Note_on_c, 0, 67, 89
2, 150600, Note_on_c, 0, 78, 67
2, 150600, Note_on_c, 0, 75, 67
2, 150660, Note_on_c, 0, 72, 0
2, 150660, Note_on_c, 0, 69, 67
2, 150720, Note_on_c, 0, 69, 0
2, 150720, Note_on_c, 0, 75, 0
2, 150720, Note_on_c, 0, 78, 0
2, 150720, Note_on_c, 0, 67, 0
2, 150720, Note_on_c, 0, 67, 89
2, 150720, Note_on_c, 0, 78, 67
2, 150720, Note_on_c, 0, 75, 67
2, 150720, Note_on_c, 0, 72, 67
2, 150780, Note_on_c, 0, 72, 0
2, 150780, Note_on_c, 0, 69, 67
2, 150840, Note_on_c, 0, 69, 0
2, 150840, Note_on_c, 0, 75, 0
2, 150840, Note_on_c, 0, 78, 0
2, 150840, Note_on_c, 0, 67, 0
2, 150840, Note_on_c, 0, 74, 73
2, 150840, Note_on_c, 0, 79, 73
2, 150840, Note_on_c, 0, 67, 73
2, 150900, Note_on_c, 0, 74, 0
2, 150900, Note_on_c, 0, 71, 75
2, 150960, Note_on_c, 0, 71, 0
2, 150960, Note_on_c, 0, 67, 0
2, 150960, Note_on_c, 0, 79, 0
2, 150960, Note_on_c, 0, 72, 76
2, 150960, Note_on_c, 0, 77, 76
2, 151020, Note_on_c, 0, 72, 0
2, 151020, Note_on_c, 0, 68, 77
2, 151080, Note_on_c, 0, 68, 0
2, 151080, Note_on_c, 0, 77, 0
2, 151080, Note_on_c, 0, 70, 77
2, 151080, Note_on_c, 0, 75, 77
2, 151140, Note_on_c, 0, 70, 0
2, 151140, Note_on_c, 0, 67, 77
2, 151200, Note_on_c, 0, 67, 0
2, 151200, Note_on_c, 0, 75, 0
2, 151200, Note_on_c, 0, 68, 77
2, 151200, Note_on_c, 0, 74, 77
2, 151260, Note_on_c, 0, 68, 0
2, 151260, Note_on_c, 0, 65, 77
2, 151320, Note_on_c, 0, 65, 0
2, 151320, Note_on_c, 0, 74, 0
2, 151320, Note_on_c, 0, 67, 76
2, 151320, Note_on_c, 0, 72, 76
2, 151380, Note_on_c, 0, 67, 0
2, 151380, Note_on_c, 0, 63, 76
2, 151440, Note_on_c, 0, 63, 0
2, 151440, Note_on_c, 0, 72, 0
2, 151440, Note_on_c, 0, 65, 74
2, 151440, Note_on_c, 0, 71, 74
2, 151500, Note_on_c, 0, 65, 0
2, 151500, Note_on_c, 0, 62, 73
2, 151560, Note_on_c, 0, 62, 0
2, 151560, Note_on_c, 0, 71, 0
2, 151560, Note_on_c, 0, 63, 71
2, 151560, Note_on_c, 0, 72, 71
2, 151620, Note_on_c, 0, 72, 0
2, 151620, Note_on_c, 0, 63, 0
2, 151620, Note_on_c, 0, 60, 68
2, 151680, Note_on_c, 0, 60, 0
2, 151680, Note_on_c, 0, 63, 65
2, 151740, Note_on_c, 0, 63, 0
2, 151740, Note_on_c, 0, 67, 64
2, 151800, Note_on_c, 0, 67, 0
2, 151800, Note_on_c, 0, 60, 69
2, 151800, Note_on_c, 0, 63, 69
2, 151800, Note_on_c, 0, 72, 69
2, 151905, Note_on_c, 0, 74, 89
2, 151910, Note_on_c, 0, 74, 0
2, 151920, Note_on_c, 0, 60, 0
2, 151920, Note_on_c, 0, 63, 0
2, 151920, Note_on_c, 0, 72, 0
2, 151920, Note_on_c, 0, 72, 94
2, 151920, Note_on_c, 0, 67, 94
2, 151920, Note_on_c, 0, 63, 94
2, 152040, Note_on_c, 0, 63, 0
2, 152040, Note_on_c, 0, 67, 0
2, 152040, Note_on_c, 0, 72, 0
2, 152040, Note_on_c, 0, 72, 82
2, 152040, Note_on_c, 0, 63, 82
2, 152040, Note_on_c, 0, 67, 82
2, 152100, Note_on_c, 0, 72, 0
2, 152100, Note_on_c, 0, 71, 93
2, 152160, Note_on_c, 0, 71, 0
2, 152160, Note_on_c, 0, 67, 0
2, 152160, Note_on_c, 0, 63, 0
2, 152160, Note_on_c, 0, 72, 106
2, 152160, Note_on_c, 0, 63, 106
2, 152160, Note_on_c, 0, 67, 106
2, 152280, Note_on_c, 0, 67, 0
2, 152280, Note_on_c, 0, 63, 0
2, 152280, Note_on_c, 0, 72, 0
2, 152280, Note_on_c, 0, 71, 85
2, 152280, Note_on_c, 0, 75, 85
2, 152280, Note_on_c, 0, 67, 85
2, 152280, Note_on_c, 0, 65, 85
2, 152340, Note_on_c, 0, 75, 0
2, 152340, Note_on_c, 0, 71, 0
2, 152340, Note_on_c, 0, 74, 96
2, 152400, Note_on_c, 0, 74, 0
2, 152400, Note_on_c, 0, 67, 0
2, 152400, Note_on_c, 0, 65, 0
2, 152400, Note_on_c, 0, 72, 102
2, 152400, Note_on_c, 0, 63, 102
2, 152400, Note_on_c, 0, 67, 102
2, 152520, Note_on_c, 0, 67, 0
2, 152520, Note_on_c, 0, 63, 0
2, 152520, Note_on_c, 0, 72, 0
2, 152520, Note_on_c, 0, 80, 77
2, 152580, Note_on_c, 0, 80, 0
2, 152580, Note_on_c, 0, 72, 79
2, 152640, Note_on_c, 0, 72, 0
2, 152640, Note_on_c, 0, 79, 80
2, 152700, Note_on_c, 0, 79, 0
2, 152700, Note_on_c, 0, 70, 82
2, 152760, Note_on_c, 0, 70, 0
2, 152760, Note_on_c, 0, 77, 83
2, 152820, Note_on_c, 0, 77, 0
2, 152820, Note_on_c, 0, 68, 85
2, 152880, Note_on_c, 0, 68, 0
2, 152880, Note_on_c, 0, 76, 86
2, 152940, Note_on_c, 0, 76, 0
2, 152940, Note_on_c, 0, 67, 88
2, 153000, Note_on_c, 0, 67, 0
2, 153000, Note_on_c, 0, 77, 90
2, 153060, Note_on_c, 0, 77, 0
2, 153060, Note_on_c, 0, 65, 92
2, 153120, Note_on_c, 0, 65, 0
2, 153120, Note_on_c, 0, 68, 94
2, 153180, Note_on_c, 0, 68, 0
2, 153180, Note_on_c, 0, 72, 95
2, 153240, Note_on_c, 0, 72, 0
2, 153240, Note_on_c, 0, 72, 98
2, 153240, Note_on_c, 0, 68, 98
2, 153240, Note_on_c, 0, 77, 98
2, 153345, Note_on_c, 0, 79, 104
2, 153352, Note_on_c, 0, 79, 0
2, 153360, Note_on_c, 0, 72, 0
2, 153360, Note_on_c, 0, 68, 0
2, 153360, Note_on_c, 0, 77, 0
2, 153360, Note_on_c, 0, 77, 106
2, 153360, Note_on_c, 0, 72, 106
2, 153360, Note_on_c, 0, 68, 106
2, 153480, Note_on_c, 0, 68, 0
2, 153480, Note_on_c, 0, 72, 0
2, 153480, Note_on_c, 0, 77, 0
2, 153480, Note_on_c, 0, 77, 114
2, 153480, Note_on_c, 0, 72, 114
2, 153480, Note_on_c, 0, 68, 114
2, 153540, Note_on_c, 0, 77, 0
2, 153540, Note_on_c, 0, 76, 98
2, 153600, Note_on_c, 0, 76, 0
2, 153600, Note_on_c, 0, 68, 0
2, 153600, Note_on_c, 0, 72, 0
2, 153600, Note_on_c, 0, 77, 98
2, 153600, Note_on_c, 0, 72, 98
2, 153600, Note_on_c, 0, 68, 98
2, 153720, Note_on_c, 0, 68, 0
2, 153720, Note_on_c, 0, 72, 0
2, 153720, Note_on_c, 0, 77, 0
2, 153720, Note_on_c, 0, 70, 98
2, 153720, Note_on_c, 0, 72, 98
2, 153720, Note_on_c, 0, 76, 98
2, 153720, Note_on_c, 0, 80, 98
2, 153780, Note_on_c, 0, 80, 0
2, 153780, Note_on_c, 0, 76, 0
2, 153780, Note_on_c, 0, 79, 98
2, 153840, Note_on_c, 0, 79, 0
2, 153840, Note_on_c, 0, 72, 0
2, 153840, Note_on_c, 0, 70, 0
2, 153840, Note_on_c, 0, 72, 98
2, 153840, Note_on_c, 0, 68, 98
2, 153840, Note_on_c, 0, 77, 98
2, 153960, Note_on_c, 0, 77, 0
2, 153960, Note_on_c, 0, 68, 0
2, 153960, Note_on_c, 0, 72, 0
2, 153960, Note_on_c, 0, 72, 97
2, 153960, Note_on_c, 0, 84, 97
2, 154080, Note_on_c, 0, 84, 0
2, 154080, Note_on_c, 0, 72, 0
2, 154080, Note_on_c, 0, 72, 97
2, 154080, Note_on_c, 0, 84, 97
2, 154200, Note_on_c, 0, 84, 0
2, 154200, Note_on_c, 0, 72, 0
2, 154200, Note_on_c, 0, 72, 99
2, 154200, Note_on_c, 0, 84, 99
2, 154320, Note_on_c, 0, 84, 0
2, 154320, Note_on_c, 0, 72, 0
2, 154320, Note_on_c, 0, 72, 111
2, 154320, Note_on_c, 0, 84, 111
2, 154440, Note_on_c, 0, 84, 0
2, 154440, Note_on_c, 0, 72, 0
2, 154440, Note_on_c, 0, 65, 121
2, 154440, Note_on_c, 0, 77, 121
2, 154560, Note_on_c, 0, 77, 0
2, 154560, Note_on_c, 0, 65, 0
2, 154680, Note_on_c, 0, 89, 89
2, 154680, Note_on_c, 0, 77, 89
2, 154800, Note_on_c, 0, 77, 0
2, 154800, Note_on_c, 0, 89, 0
2, 154800, Note_on_c, 0, 89, 89
2, 154800, Note_on_c, 0, 77, 89
2, 154920, Note_on_c, 0, 77, 0
2, 154920, Note_on_c, 0, 89, 0
2, 154920, Note_on_c, 0, 89, 89
2, 154920, Note_on_c, 0, 77, 89
2, 155040, Note_on_c, 0, 77, 0
2, 155040, Note_on_c, 0, 89, 0
2, 155040, Note_on_c, 0, 89, 89
2, 155040, Note_on_c, 0, 77, 89
2, 155160, Note_on_c, 0, 77, 0
2, 155160, Note_on_c, 0, 89, 0
2, 155160, Note_on_c, 0, 71, 89
2, 155160, Note_on_c, 0, 83, 89
2, 155400, Note_on_c, 0, 83, 0
2, 155400, Note_on_c, 0, 71, 0
2, 155400, Note_on_c, 0, 83, 89
2, 155400, Note_on_c, 0, 71, 89
2, 155520, Note_on_c, 0, 71, 0
2, 155520, Note_on_c, 0, 83, 0
2, 155520, Note_on_c, 0, 72, 89
2, 155520, Note_on_c, 0, 84, 89
2, 155640, Note_on_c, 0, 84, 0
2, 155640, Note_on_c, 0, 72, 0
2, 155640, Note_on_c, 0, 80, 80
2, 155700, Note_on_c, 0, 80, 0
2, 155700, Note_on_c, 0, 77, 85
2, 155760, Note_on_c, 0, 77, 0
2, 155760, Note_on_c, 0, 79, 89
2, 155820, Note_on_c, 0, 79, 0
2, 155820, Note_on_c, 0, 75, 93
2, 155880, Note_on_c, 0, 75, 0
2, 155880, Note_on_c, 0, 77, 97
2, 155940, Note_on_c, 0, 77, 0
2, 155940, Note_on_c, 0, 74, 100
2, 156000, Note_on_c, 0, 74, 0
2, 156000, Note_on_c, 0, 75, 103
2, 156060, Note_on_c, 0, 75, 0
2, 156060, Note_on_c, 0, 72, 106
2, 156120, Note_on_c, 0, 72, 0
2, 156120, Note_on_c, 0, 74, 108
2, 156180, Note_on_c, 0, 74, 0
2, 156180, Note_on_c, 0, 71, 111
2, 156240, Note_on_c, 0, 71, 0
2, 156240, Note_on_c, 0, 72, 115
2, 156360, Note_on_c, 0, 72, 0
2, 156480, Note_on_c, 0, 67, 124
2, 156480, Note_on_c, 0, 71, 124
2, 156480, Note_on_c, 0, 74, 124
2, 156480, Note_on_c, 0, 77, 124
2, 156480, Note_on_c, 0, 79, 124
2, 156600, Note_on_c, 0, 79, 0
2, 156600, Note_on_c, 0, 74, 0
2, 156600, Note_on_c, 0, 67, 0
2, 156600, Note_on_c, 0, 71, 0
2, 156600, Note_on_c, 0, 77, 0
2, 156600, Note_on_c, 0, 67, 123
2, 156600, Note_on_c, 0, 71, 123
2, 156600, Note_on_c, 0, 74, 123
2, 156600, Note_on_c, 0, 77, 123
2, 156600, Note_on_c, 0, 79, 123
2, 156720, Note_on_c, 0, 79, 0
2, 156720, Note_on_c, 0, 74, 0
2, 156720, Note_on_c, 0, 67, 0
2, 156720, Note_on_c, 0, 71, 0
2, 156720, Note_on_c, 0, 77, 0
2, 156720, Note_on_c, 0, 67, 121
2, 156720, Note_on_c, 0, 71, 121
2, 156720, Note_on_c, 0, 74, 121
2, 156720, Note_on_c, 0, 77, 121
2, 156720, Note_on_c, 0, 79, 121
2, 156840, Note_on_c, 0, 79, 0
2, 156840, Note_on_c, 0, 74, 0
2, 156840, Note_on_c, 0, 67, 0
2, 156840, Note_on_c, 0, 71, 0
2, 156840, Note_on_c, 0, 77, 0
2, 156840, Note_on_c, 0, 67, 121
2, 156840, Note_on_c, 0, 71, 121
2, 156840, Note_on_c, 0, 74, 121
2, 156840, Note_on_c, 0, 77, 121
2, 156840, Note_on_c, 0, 79, 121
2, 156960, Note_on_c, 0, 79, 0
2, 156960, Note_on_c, 0, 74, 0
2, 156960, Note_on_c, 0, 67, 0
2, 156960, Note_on_c, 0, 71, 0
2, 156960, Note_on_c, 0, 77, 0
2, 156960, Note_on_c, 0, 72, 121
2, 156960, Note_on_c, 0, 75, 121
2, 156960, Note_on_c, 0, 79, 121
2, 156960, Note_on_c, 0, 84, 121
2, 157080, Note_on_c, 0, 84, 0
2, 157080, Note_on_c, 0, 72, 0
2, 157080, Note_on_c, 0, 75, 0
2, 157080, Note_on_c, 0, 79, 0
2, 157200, Note_on_c, 0, 59, 121
2, 157200, Note_on_c, 0, 62, 121
2, 157200, Note_on_c, 0, 65, 121
2, 157200, Note_on_c, 0, 67, 121
2, 157320, Note_on_c, 0, 67, 0
2, 157320, Note_on_c, 0, 59, 0
2, 157320, Note_on_c, 0, 62, 0
2, 157320, Note_on_c, 0, 65, 0
2, 157320, Note_on_c, 0, 59, 121
2, 157320, Note_on_c, 0, 62, 121
2, 157320, Note_on_c, 0, 65, 121
2, 157320, Note_on_c, 0, 67, 121
2, 157440, Note_on_c, 0, 67, 0
2, 157440, Note_on_c, 0, 59, 0
2, 157440, Note_on_c, 0, 62, 0
2, 157440, Note_on_c, 0, 65, 0
2, 157440, Note_on_c, 0, 59, 121
2, 157440, Note_on_c, 0, 62, 121
2, 157440, Note_on_c, 0, 65, 121
2, 157440, Note_on_c, 0, 67, 121
2, 157560, Note_on_c, 0, 67, 0
2, 157560, Note_on_c, 0, 59, 0
2, 157560, Note_on_c, 0, 62, 0
2, 157560, Note_on_c, 0, 65, 0
2, 157560, Note_on_c, 0, 59, 121
2, 157560, Note_on_c, 0, 62, 121
2, 157560, Note_on_c, 0, 65, 121
2, 157560, Note_on_c, 0, 67, 121
2, 157680, Note_on_c, 0, 67, 0
2, 157680, Note_on_c, 0, 59, 0
2, 157680, Note_on_c, 0, 62, 0
2, 157680, Note_on_c, 0, 65, 0
2, 157680, Note_on_c, 0, 60, 121
2, 157800, Note_on_c, 0, 60, 0
2, 157920, Note_on_c, 0, 67, 124
2, 157920, Note_on_c, 0, 71, 124
2, 157920, Note_on_c, 0, 74, 124
2, 157920, Note_on_c, 0, 77, 124
2, 157920, Note_on_c, 0, 79, 124
2, 158040, Note_on_c, 0, 79, 0
2, 158040, Note_on_c, 0, 74, 0
2, 158040, Note_on_c, 0, 67, 0
2, 158040, Note_on_c, 0, 71, 0
2, 158040, Note_on_c, 0, 77, 0
2, 158040, Note_on_c, 0, 67, 123
2, 158040, Note_on_c, 0, 71, 123
2, 158040, Note_on_c, 0, 74, 123
2, 158040, Note_on_c, 0, 77, 123
2, 158040, Note_on_c, 0, 79, 123
2, 158160, Note_on_c, 0, 79, 0
2, 158160, Note_on_c, 0, 74, 0
2, 158160, Note_on_c, 0, 67, 0
2, 158160, Note_on_c, 0, 71, 0
2, 158160, Note_on_c, 0, 77, 0
2, 158160, Note_on_c, 0, 67, 121
2, 158160, Note_on_c, 0, 71, 121
2, 158160, Note_on_c, 0, 74, 121
2, 158160, Note_on_c, 0, 77, 121
2, 158160, Note_on_c, 0, 79, 121
2, 158280, Note_on_c, 0, 79, 0
2, 158280, Note_on_c, 0, 74, 0
2, 158280, Note_on_c, 0, 67, 0
2, 158280, Note_on_c, 0, 71, 0
2, 158280, Note_on_c, 0, 77, 0
2, 158280, Note_on_c, 0, 67, 121
2, 158280, Note_on_c, 0, 71, 121
2, 158280, Note_on_c, 0, 74, 121
2, 158280, Note_on_c, 0, 77, 121
2, 158280, Note_on_c, 0, 79, 121
2, 158400, Note_on_c, 0, 79, 0
2, 158400, Note_on_c, 0, 74, 0
2, 158400, Note_on_c, 0, 67, 0
2, 158400, Note_on_c, 0, 71, 0
2, 158400, Note_on_c, 0, 77, 0
2, 158400, Note_on_c, 0, 72, 121
2, 158400, Note_on_c, 0, 75, 121
2, 158400, Note_on_c, 0, 79, 121
2, 158400, Note_on_c, 0, 84, 121
2, 158520, Note_on_c, 0, 84, 0
2, 158520, Note_on_c, 0, 72, 0
2, 158520, Note_on_c, 0, 75, 0
2, 158520, Note_on_c, 0, 79, 0
2, 158640, Note_on_c, 0, 59, 121
2, 158640, Note_on_c, 0, 62, 121
2, 158640, Note_on_c, 0, 65, 121
2, 158640, Note_on_c, 0, 67, 121
2, 158760, Note_on_c, 0, 67, 0
2, 158760, Note_on_c, 0, 59, 0
2, 158760, Note_on_c, 0, 62, 0
2, 158760, Note_on_c, 0, 65, 0
2, 158760, Note_on_c, 0, 59, 121
2, 158760, Note_on_c, 0, 62, 121
2, 158760, Note_on_c, 0, 65, 121
2, 158760, Note_on_c, 0, 67, 121
2, 158880, Note_on_c, 0, 67, 0
2, 158880, Note_on_c, 0, 59, 0
2, 158880, Note_on_c, 0, 62, 0
2, 158880, Note_on_c, 0, 65, 0
2, 158880, Note_on_c, 0, 59, 121
2, 158880, Note_on_c, 0, 62, 121
2, 158880, Note_on_c, 0, 65, 121
2, 158880, Note_on_c, 0, 67, 121
2, 159000, Note_on_c, 0, 67, 0
2, 159000, Note_on_c, 0, 59, 0
2, 159000, Note_on_c, 0, 62, 0
2, 159000, Note_on_c, 0, 65, 0
2, 159000, Note_on_c, 0, 59, 121
2, 159000, Note_on_c, 0, 62, 121
2, 159000, Note_on_c, 0, 65, 121
2, 159000, Note_on_c, 0, 67, 121
2, 159120, Note_on_c, 0, 67, 0
2, 159120, Note_on_c, 0, 59, 0
2, 159120, Note_on_c, 0, 62, 0
2, 159120, Note_on_c, 0, 65, 0
2, 159120, Note_on_c, 0, 60, 127
2, 159240, Note_on_c, 0, 60, 0
2, 159240, End_track
3, 0, Start_track
3, 0, Title_t, "Piano L"
3, 0, Program_c, 1, 0
3, 0, Control_c, 1, 7, 127
3, 0, Control_c, 1, 10, 83
3, 0, Control_c, 1, 93, 11
3, 0, Control_c, 1, 91, 21
3, 240, Note_on_c, 1, 43, 68
3, 360, Note_on_c, 1, 43, 0
3, 360, Note_on_c, 1, 43, 68
3, 480, Note_on_c, 1, 43, 0
3, 480, Note_on_c, 1, 43, 68
3, 600, Note_on_c, 1, 43, 0
3, 600, Note_on_c, 1, 43, 70
3, 720, Note_on_c, 1, 43, 0
3, 720, Note_on_c, 1, 36, 71
3, 840, Note_on_c, 1, 36, 0
3, 960, Note_on_c, 1, 67, 55
3, 960, Note_on_c, 1, 63, 55
3, 1080, Note_on_c, 1, 63, 0
3, 1080, Note_on_c, 1, 67, 0
3, 1080, Note_on_c, 1, 67, 55
3, 1080, Note_on_c, 1, 63, 55
3, 1200, Note_on_c, 1, 63, 0
3, 1200, Note_on_c, 1, 67, 0
3, 1200, Note_on_c, 1, 67, 55
3, 1200, Note_on_c, 1, 63, 55
3, 1320, Note_on_c, 1, 63, 0
3, 1320, Note_on_c, 1, 67, 0
3, 1320, Note_on_c, 1, 67, 53
3, 1320, Note_on_c, 1, 63, 53
3, 1440, Note_on_c, 1, 63, 0
3, 1440, Note_on_c, 1, 67, 0
3, 1440, Note_on_c, 1, 67, 53
3, 1440, Note_on_c, 1, 65, 53
3, 1560, Note_on_c, 1, 65, 0
3, 1560, Note_on_c, 1, 67, 0
3, 1560, Note_on_c, 1, 67, 53
3, 1560, Note_on_c, 1, 63, 53
3, 1680, Note_on_c, 1, 63, 0
3, 1680, Note_on_c, 1, 67, 0
3, 1680, Note_on_c, 1, 48, 100
3, 1800, Note_on_c, 1, 48, 0
3, 1800, Note_on_c, 1, 48, 100
3, 1920, Note_on_c, 1, 48, 0
3, 1920, Note_on_c, 1, 48, 100
3, 2040, Note_on_c, 1, 48, 0
3, 2040, Note_on_c, 1, 48, 100
3, 2160, Note_on_c, 1, 48, 0
3, 2160, Note_on_c, 1, 41, 100
3, 2280, Note_on_c, 1, 41, 0
3, 2400, Note_on_c, 1, 72, 75
3, 2400, Note_on_c, 1, 68, 75
3, 2520, Note_on_c, 1, 68, 0
3, 2520, Note_on_c, 1, 72, 0
3, 2520, Note_on_c, 1, 72, 75
3, 2520, Note_on_c, 1, 68, 75
3, 2640, Note_on_c, 1, 68, 0
3, 2640, Note_on_c, 1, 72, 0
3, 2640, Note_on_c, 1, 72, 75
3, 2640, Note_on_c, 1, 68, 75
3, 2760, Note_on_c, 1, 68, 0
3, 2760, Note_on_c, 1, 72, 0
3, 2760, Note_on_c, 1, 72, 75
3, 2760, Note_on_c, 1, 68, 75
3, 2880, Note_on_c, 1, 68, 0
3, 2880, Note_on_c, 1, 72, 0
3, 2880, Note_on_c, 1, 72, 75
3, 2880, Note_on_c, 1, 70, 75
3, 3000, Note_on_c, 1, 70, 0
3, 3000, Note_on_c, 1, 72, 0
3, 3000, Note_on_c, 1, 72, 73
3, 3000, Note_on_c, 1, 68, 73
3, 3120, Note_on_c, 1, 68, 0
3, 3120, Note_on_c, 1, 72, 0
3, 3120, Note_on_c, 1, 68, 72
3, 3120, Note_on_c, 1, 65, 72
3, 3240, Note_on_c, 1, 65, 0
3, 3240, Note_on_c, 1, 68, 0
3, 3240, Note_on_c, 1, 63, 71
3, 3240, Note_on_c, 1, 67, 71
3, 3360, Note_on_c, 1, 67, 0
3, 3360, Note_on_c, 1, 63, 0
3, 3360, Note_on_c, 1, 62, 70
3, 3360, Note_on_c, 1, 65, 70
3, 3480, Note_on_c, 1, 65, 0
3, 3480, Note_on_c, 1, 62, 0
3, 3600, Note_on_c, 1, 63, 100
3, 3600, Note_on_c, 1, 60, 100
3, 3720, Note_on_c, 1, 60, 0
3, 3720, Note_on_c, 1, 63, 0
3, 3720, Note_on_c, 1, 59, 100
3, 3720, Note_on_c, 1, 62, 100
3, 3840, Note_on_c, 1, 62, 0
3, 3840, Note_on_c, 1, 59, 0
3, 3960, Note_on_c, 1, 59, 100
3, 4080, Note_on_c, 1, 59, 0
3, 4080, Note_on_c, 1, 60, 100
3, 4200, Note_on_c, 1, 60, 0
3, 4200, Note_on_c, 1, 54, 100
3, 4320, Note_on_c, 1, 54, 0
3, 4320, Note_on_c, 1, 55, 100
3, 4440, Note_on_c, 1, 55, 0
3, 4440, Note_on_c, 1, 43, 100
3, 4560, Note_on_c, 1, 43, 0
3, 6600, Note_on_c, 1, 58, 76
3, 6720, Note_on_c, 1, 58, 0
3, 6720, Note_on_c, 1, 63, 78
3, 6840, Note_on_c, 1, 63, 0
3, 6840, Note_on_c, 1, 56, 79
3, 6960, Note_on_c, 1, 56, 0
3, 6960, Note_on_c, 1, 62, 81
3, 7080, Note_on_c, 1, 62, 0
3, 7080, Note_on_c, 1, 55, 82
3, 7200, Note_on_c, 1, 55, 0
3, 7200, Note_on_c, 1, 60, 82
3, 7320, Note_on_c, 1, 60, 0
3, 7320, Note_on_c, 1, 53, 82
3, 7440, Note_on_c, 1, 53, 0
3, 7440, Note_on_c, 1, 58, 82
3, 7560, Note_on_c, 1, 58, 0
3, 7560, Note_on_c, 1, 51, 83
3, 7680, Note_on_c, 1, 51, 0
3, 7680, Note_on_c, 1, 53, 83
3, 7800, Note_on_c, 1, 53, 0
3, 7800, Note_on_c, 1, 55, 83
3, 7920, Note_on_c, 1, 55, 0
3, 7920, Note_on_c, 1, 45, 83
3, 8040, Note_on_c, 1, 45, 0
3, 8040, Note_on_c, 1, 46, 81
3, 8160, Note_on_c, 1, 46, 0
3, 8160, Note_on_c, 1, 48, 78
3, 8280, Note_on_c, 1, 48, 0
3, 8280, Note_on_c, 1, 46, 114
3, 8280, Note_on_c, 1, 55, 104
3, 8520, Note_on_c, 1, 55, 0
3, 8520, Note_on_c, 1, 53, 99
3, 8640, Note_on_c, 1, 53, 0
3, 8640, Note_on_c, 1, 46, 0
3, 8640, Note_on_c, 1, 51, 104
3, 8640, Note_on_c, 1, 55, 104
3, 8700, Note_on_c, 1, 51, 0
3, 8700, Note_on_c, 1, 58, 106
3, 8760, Note_on_c, 1, 58, 0
3, 8760, Note_on_c, 1, 55, 0
3, 8760, Note_on_c, 1, 56, 108
3, 8820, Note_on_c, 1, 56, 0
3, 8820, Note_on_c, 1, 55, 110
3, 8880, Note_on_c, 1, 55, 0
3, 8880, Note_on_c, 1, 53, 111
3, 8940, Note_on_c, 1, 53, 0
3, 8940, Note_on_c, 1, 51, 113
3, 9000, Note_on_c, 1, 51, 0
3, 9000, Note_on_c, 1, 50, 115
3, 9060, Note_on_c, 1, 50, 0
3, 9060, Note_on_c, 1, 48, 116
3, 9120, Note_on_c, 1, 48, 0
3, 9120, Note_on_c, 1, 46, 118
3, 9180, Note_on_c, 1, 46, 0
3, 9180, Note_on_c, 1, 44, 119
3, 9240, Note_on_c, 1, 44, 0
3, 9240, Note_on_c, 1, 43, 119
3, 9300, Note_on_c, 1, 43, 0
3, 9300, Note_on_c, 1, 41, 120
3, 9360, Note_on_c, 1, 41, 0
3, 9360, Note_on_c, 1, 39, 122
3, 9420, Note_on_c, 1, 39, 0
3, 9420, Note_on_c, 1, 41, 124
3, 9480, Note_on_c, 1, 41, 0
3, 9480, Note_on_c, 1, 43, 124
3, 9540, Note_on_c, 1, 43, 0
3, 9540, Note_on_c, 1, 44, 125
3, 9600, Note_on_c, 1, 44, 0
3, 9600, Note_on_c, 1, 46, 126
3, 9660, Note_on_c, 1, 46, 0
3, 9660, Note_on_c, 1, 45, 126
3, 9720, Note_on_c, 1, 45, 0
3, 9720, Note_on_c, 1, 46, 126
3, 9780, Note_on_c, 1, 46, 0
3, 9780, Note_on_c, 1, 48, 126
3, 9840, Note_on_c, 1, 48, 0
3, 9840, Note_on_c, 1, 50, 126
3, 9900, Note_on_c, 1, 50, 0
3, 9900, Note_on_c, 1, 51, 126
3, 9960, Note_on_c, 1, 51, 0
3, 9960, Note_on_c, 1, 53, 126
3, 10020, Note_on_c, 1, 53, 0
3, 10020, Note_on_c, 1, 50, 126
3, 10080, Note_on_c, 1, 50, 0
3, 10080, Note_on_c, 1, 51, 126
3, 10140, Note_on_c, 1, 51, 0
3, 10140, Note_on_c, 1, 58, 126
3, 10200, Note_on_c, 1, 58, 0
3, 10200, Note_on_c, 1, 56, 126
3, 10260, Note_on_c, 1, 56, 0
3, 10260, Note_on_c, 1, 55, 126
3, 10320, Note_on_c, 1, 55, 0
3, 10320, Note_on_c, 1, 53, 126
3, 10380, Note_on_c, 1, 53, 0
3, 10380, Note_on_c, 1, 51, 125
3, 10440, Note_on_c, 1, 51, 0
3, 10440, Note_on_c, 1, 50, 125
3, 10500, Note_on_c, 1, 50, 0
3, 10500, Note_on_c, 1, 48, 124
3, 10560, Note_on_c, 1, 48, 0
3, 10560, Note_on_c, 1, 46, 127
3, 10620, Note_on_c, 1, 46, 0
3, 10620, Note_on_c, 1, 44, 127
3, 10680, Note_on_c, 1, 44, 0
3, 10680, Note_on_c, 1, 43, 125
3, 10740, Note_on_c, 1, 43, 0
3, 10740, Note_on_c, 1, 41, 123
3, 10800, Note_on_c, 1, 41, 0
3, 10800, Note_on_c, 1, 39, 121
3, 10860, Note_on_c, 1, 39, 0
3, 10860, Note_on_c, 1, 41, 118
3, 10920, Note_on_c, 1, 41, 0
3, 10920, Note_on_c, 1, 43, 115
3, 10980, Note_on_c, 1, 43, 0
3, 10980, Note_on_c, 1, 44, 112
3, 11040, Note_on_c, 1, 44, 0
3, 11040, Note_on_c, 1, 46, 109
3, 11100, Note_on_c, 1, 46, 0
3, 11100, Note_on_c, 1, 45, 105
3, 11160, Note_on_c, 1, 45, 0
3, 11160, Note_on_c, 1, 46, 102
3, 11220, Note_on_c, 1, 46, 0
3, 11220, Note_on_c, 1, 48, 100
3, 11280, Note_on_c, 1, 48, 0
3, 11280, Note_on_c, 1, 50, 97
3, 11340, Note_on_c, 1, 50, 0
3, 11340, Note_on_c, 1, 51, 95
3, 11400, Note_on_c, 1, 51, 0
3, 11400, Note_on_c, 1, 53, 94
3, 11460, Note_on_c, 1, 53, 0
3, 11460, Note_on_c, 1, 50, 91
3, 11520, Note_on_c, 1, 50, 0
3, 11520, Note_on_c, 1, 51, 88
3, 11640, Note_on_c, 1, 51, 0
3, 11760, Note_on_c, 1, 43, 68
3, 11880, Note_on_c, 1, 43, 0
3, 11880, Note_on_c, 1, 43, 68
3, 12000, Note_on_c, 1, 43, 0
3, 12000, Note_on_c, 1, 43, 68
3, 12120, Note_on_c, 1, 43, 0
3, 12120, Note_on_c, 1, 43, 70
3, 12240, Note_on_c, 1, 43, 0
3, 12240, Note_on_c, 1, 36, 71
3, 12360, Note_on_c, 1, 36, 0
3, 12480, Note_on_c, 1, 67, 55
3, 12480, Note_on_c, 1, 63, 55
3, 12600, Note_on_c, 1, 63, 0
3, 12600, Note_on_c, 1, 67, 0
3, 12600, Note_on_c, 1, 67, 55
3, 12600, Note_on_c, 1, 63, 55
3, 12720, Note_on_c, 1, 63, 0
3, 12720, Note_on_c, 1, 67, 0
3, 12720, Note_on_c, 1, 67, 55
3, 12720, Note_on_c, 1, 63, 55
3, 12840, Note_on_c, 1, 63, 0
3, 12840, Note_on_c, 1, 67, 0
3, 12840, Note_on_c, 1, 67, 53
3, 12840, Note_on_c, 1, 63, 53
3, 12960, Note_on_c, 1, 63, 0
3, 12960, Note_on_c, 1, 67, 0
3, 12960, Note_on_c, 1, 67, 53
3, 12960, Note_on_c, 1, 65, 53
3, 13080, Note_on_c, 1, 65, 0
3, 13080, Note_on_c, 1, 67, 0
3, 13080, Note_on_c, 1, 67, 53
3, 13080, Note_on_c, 1, 63, 53
3, 13200, Note_on_c, 1, 63, 0
3, 13200, Note_on_c, 1, 67, 0
3, 13200, Note_on_c, 1, 48, 100
3, 13320, Note_on_c, 1, 48, 0
3, 13320, Note_on_c, 1, 48, 100
3, 13440, Note_on_c, 1, 48, 0
3, 13440, Note_on_c, 1, 48, 100
3, 13560, Note_on_c, 1, 48, 0
3, 13560, Note_on_c, 1, 48, 100
3, 13680, Note_on_c, 1, 48, 0
3, 13680, Note_on_c, 1, 41, 100
3, 13800, Note_on_c, 1, 41, 0
3, 13920, Note_on_c, 1, 72, 75
3, 13920, Note_on_c, 1, 68, 75
3, 14040, Note_on_c, 1, 68, 0
3, 14040, Note_on_c, 1, 72, 0
3, 14040, Note_on_c, 1, 72, 75
3, 14040, Note_on_c, 1, 68, 75
3, 14160, Note_on_c, 1, 68, 0
3, 14160, Note_on_c, 1, 72, 0
3, 14160, Note_on_c, 1, 72, 75
3, 14160, Note_on_c, 1, 68, 75
3, 14280, Note_on_c, 1, 68, 0
3, 14280, Note_on_c, 1, 72, 0
3, 14280, Note_on_c, 1, 72, 75
3, 14280, Note_on_c, 1, 68, 75
3, 14400, Note_on_c, 1, 68, 0
3, 14400, Note_on_c, 1, 72, 0
3, 14400, Note_on_c, 1, 72, 75
3, 14400, Note_on_c, 1, 70, 75
3, 14520, Note_on_c, 1, 70, 0
3, 14520, Note_on_c, 1, 72, 0
3, 14520, Note_on_c, 1, 72, 73
3, 14520, Note_on_c, 1, 68, 73
3, 14640, Note_on_c, 1, 68, 0
3, 14640, Note_on_c, 1, 72, 0
3, 14640, Note_on_c, 1, 68, 72
3, 14640, Note_on_c, 1, 65, 72
3, 14760, Note_on_c, 1, 65, 0
3, 14760, Note_on_c, 1, 68, 0
3, 14760, Note_on_c, 1, 63, 71
3, 14760, Note_on_c, 1, 67, 71
3, 14880, Note_on_c, 1, 67, 0
3, 14880, Note_on_c, 1, 63, 0
3, 14880, Note_on_c, 1, 62, 70
3, 14880, Note_on_c, 1, 65, 70
3, 15000, Note_on_c, 1, 65, 0
3, 15000, Note_on_c, 1, 62, 0
3, 15120, Note_on_c, 1, 63, 100
3, 15120, Note_on_c, 1, 60, 100
3, 15240, Note_on_c, 1, 60, 0
3, 15240, Note_on_c, 1, 63, 0
3, 15240, Note_on_c, 1, 59, 100
3, 15240, Note_on_c, 1, 62, 100
3, 15360, Note_on_c, 1, 62, 0
3, 15360, Note_on_c, 1, 59, 0
3, 15480, Note_on_c, 1, 59, 100
3, 15600, Note_on_c, 1, 59, 0
3, 15600, Note_on_c, 1, 60, 100
3, 15720, Note_on_c, 1, 60, 0
3, 15720, Note_on_c, 1, 54, 100
3, 15840, Note_on_c, 1, 54, 0
3, 15840, Note_on_c, 1, 55, 100
3, 15960, Note_on_c, 1, 55, 0
3, 15960, Note_on_c, 1, 43, 100
3, 16080, Note_on_c, 1, 43, 0
3, 18120, Note_on_c, 1, 58, 76
3, 18240, Note_on_c, 1, 58, 0
3, 18240, Note_on_c, 1, 63, 78
3, 18360, Note_on_c, 1, 63, 0
3, 18360, Note_on_c, 1, 56, 79
3, 18480, Note_on_c, 1, 56, 0
3, 18480, Note_on_c, 1, 62, 81
3, 18600, Note_on_c, 1, 62, 0
3, 18600, Note_on_c, 1, 55, 82
3, 18720, Note_on_c, 1, 55, 0
3, 18720, Note_on_c, 1, 60, 82
3, 18840, Note_on_c, 1, 60, 0
3, 18840, Note_on_c, 1, 53, 82
3, 18960, Note_on_c, 1, 53, 0
3, 18960, Note_on_c, 1, 58, 82
3, 19080, Note_on_c, 1, 58, 0
3, 19080, Note_on_c, 1, 51, 83
3, 19200, Note_on_c, 1, 51, 0
3, 19200, Note_on_c, 1, 53, 83
3, 19320, Note_on_c, 1, 53, 0
3, 19320, Note_on_c, 1, 55, 83
3, 19440, Note_on_c, 1, 55, 0
3, 19440, Note_on_c, 1, 45, 83
3, 19560, Note_on_c, 1, 45, 0
3, 19560, Note_on_c, 1, 46, 81
3, 19680, Note_on_c, 1, 46, 0
3, 19680, Note_on_c, 1, 48, 78
3, 19800, Note_on_c, 1, 48, 0
3, 19800, Note_on_c, 1, 46, 127
3, 19800, Note_on_c, 1, 55, 127
3, 20040, Note_on_c, 1, 55, 0
3, 20040, Note_on_c, 1, 53, 99
3, 20160, Note_on_c, 1, 53, 0
3, 20160, Note_on_c, 1, 46, 0
3, 20160, Note_on_c, 1, 51, 104
3, 20160, Note_on_c, 1, 55, 104
3, 20220, Note_on_c, 1, 51, 0
3, 20220, Note_on_c, 1, 58, 106
3, 20280, Note_on_c, 1, 58, 0
3, 20280, Note_on_c, 1, 55, 0
3, 20280, Note_on_c, 1, 56, 108
3, 20340, Note_on_c, 1, 56, 0
3, 20340, Note_on_c, 1, 55, 110
3, 20400, Note_on_c, 1, 55, 0
3, 20400, Note_on_c, 1, 53, 111
3, 20460, Note_on_c, 1, 53, 0
3, 20460, Note_on_c, 1, 51, 113
3, 20520, Note_on_c, 1, 51, 0
3, 20520, Note_on_c, 1, 50, 115
3, 20580, Note_on_c, 1, 50, 0
3, 20580, Note_on_c, 1, 48, 116
3, 20640, Note_on_c, 1, 48, 0
3, 20640, Note_on_c, 1, 46, 118
3, 20700, Note_on_c, 1, 46, 0
3, 20700, Note_on_c, 1, 44, 119
3, 20760, Note_on_c, 1, 44, 0
3, 20760, Note_on_c, 1, 43, 119
3, 20820, Note_on_c, 1, 43, 0
3, 20820, Note_on_c, 1, 41, 120
3, 20880, Note_on_c, 1, 41, 0
3, 20880, Note_on_c, 1, 39, 122
3, 20940, Note_on_c, 1, 39, 0
3, 20940, Note_on_c, 1, 41, 124
3, 21000, Note_on_c, 1, 41, 0
3, 21000, Note_on_c, 1, 43, 124
3, 21060, Note_on_c, 1, 43, 0
3, 21060, Note_on_c, 1, 44, 125
3, 21120, Note_on_c, 1, 44, 0
3, 21120, Note_on_c, 1, 46, 126
3, 21180, Note_on_c, 1, 46, 0
3, 21180, Note_on_c, 1, 45, 126
3, 21240, Note_on_c, 1, 45, 0
3, 21240, Note_on_c, 1, 46, 126
3, 21300, Note_on_c, 1, 46, 0
3, 21300, Note_on_c, 1, 48, 126
3, 21360, Note_on_c, 1, 48, 0
3, 21360, Note_on_c, 1, 50, 126
3, 21420, Note_on_c, 1, 50, 0
3, 21420, Note_on_c, 1, 51, 126
3, 21480, Note_on_c, 1, 51, 0
3, 21480, Note_on_c, 1, 53, 126
3, 21540, Note_on_c, 1, 53, 0
3, 21540, Note_on_c, 1, 50, 126
3, 21600, Note_on_c, 1, 50, 0
3, 21600, Note_on_c, 1, 51, 126
3, 21660, Note_on_c, 1, 51, 0
3, 21660, Note_on_c, 1, 58, 126
3, 21720, Note_on_c, 1, 58, 0
3, 21720, Note_on_c, 1, 56, 126
3, 21780, Note_on_c, 1, 56, 0
3, 21780, Note_on_c, 1, 55, 126
3, 21840, Note_on_c, 1, 55, 0
3, 21840, Note_on_c, 1, 53, 126
3, 21900, Note_on_c, 1, 53, 0
3, 21900, Note_on_c, 1, 51, 125
3, 21960, Note_on_c, 1, 51, 0
3, 21960, Note_on_c, 1, 50, 125
3, 22020, Note_on_c, 1, 50, 0
3, 22020, Note_on_c, 1, 48, 124
3, 22080, Note_on_c, 1, 48, 0
3, 22080, Note_on_c, 1, 46, 127
3, 22140, Note_on_c, 1, 46, 0
3, 22140, Note_on_c, 1, 44, 127
3, 22200, Note_on_c, 1, 44, 0
3, 22200, Note_on_c, 1, 43, 125
3, 22260, Note_on_c, 1, 43, 0
3, 22260, Note_on_c, 1, 41, 123
3, 22320, Note_on_c, 1, 41, 0
3, 22320, Note_on_c, 1, 39, 121
3, 22380, Note_on_c, 1, 39, 0
3, 22380, Note_on_c, 1, 41, 118
3, 22440, Note_on_c, 1, 41, 0
3, 22440, Note_on_c, 1, 43, 115
3, 22500, Note_on_c, 1, 43, 0
3, 22500, Note_on_c, 1, 44, 112
3, 22560, Note_on_c, 1, 44, 0
3, 22560, Note_on_c, 1, 46, 109
3, 22620, Note_on_c, 1, 46, 0
3, 22620, Note_on_c, 1, 45, 105
3, 22680, Note_on_c, 1, 45, 0
3, 22680, Note_on_c, 1, 46, 102
3, 22740, Note_on_c, 1, 46, 0
3, 22740, Note_on_c, 1, 48, 100
3, 22800, Note_on_c, 1, 48, 0
3, 22800, Note_on_c, 1, 50, 97
3, 22860, Note_on_c, 1, 50, 0
3, 22860, Note_on_c, 1, 51, 95
3, 22920, Note_on_c, 1, 51, 0
3, 22920, Note_on_c, 1, 53, 94
3, 22980, Note_on_c, 1, 53, 0
3, 22980, Note_on_c, 1, 50, 91
3, 23040, Note_on_c, 1, 50, 0
3, 23040, Note_on_c, 1, 51, 88
3, 23160, Note_on_c, 1, 51, 0
3, 25920, Note_on_c, 1, 60, 61
3, 26040, Note_on_c, 1, 60, 0
3, 26040, Note_on_c, 1, 62, 64
3, 26160, Note_on_c, 1, 62, 0
3, 26160, Note_on_c, 1, 50, 65
3, 26280, Note_on_c, 1, 50, 0
3, 26280, Note_on_c, 1, 62, 68
3, 26280, Note_on_c, 1, 58, 68
3, 26400, Note_on_c, 1, 58, 0
3, 26400, Note_on_c, 1, 62, 0
3, 26400, Note_on_c, 1, 60, 70
3, 26400, Note_on_c, 1, 57, 70
3, 26520, Note_on_c, 1, 57, 0
3, 26520, Note_on_c, 1, 60, 0
3, 26520, Note_on_c, 1, 55, 70
3, 26520, Note_on_c, 1, 58, 70
3, 26640, Note_on_c, 1, 58, 0
3, 26640, Note_on_c, 1, 55, 0
3, 26640, Note_on_c, 1, 54, 68
3, 26640, Note_on_c, 1, 57, 68
3, 26760, Note_on_c, 1, 57, 0
3, 26760, Note_on_c, 1, 54, 0
3, 26760, Note_on_c, 1, 52, 67
3, 26760, Note_on_c, 1, 55, 67
3, 26880, Note_on_c, 1, 55, 0
3, 26880, Note_on_c, 1, 52, 0
3, 26880, Note_on_c, 1, 54, 66
3, 26880, Note_on_c, 1, 50, 66
3, 27000, Note_on_c, 1, 50, 0
3, 27000, Note_on_c, 1, 54, 0
3, 27000, Note_on_c, 1, 50, 64
3, 27000, Note_on_c, 1, 46, 64
3, 27120, Note_on_c, 1, 46, 0
3, 27120, Note_on_c, 1, 50, 0
3, 27120, Note_on_c, 1, 48, 64
3, 27120, Note_on_c, 1, 45, 64
3, 27240, Note_on_c, 1, 45, 0
3, 27240, Note_on_c, 1, 48, 0
3, 27240, Note_on_c, 1, 43, 64
3, 27240, Note_on_c, 1, 46, 64
3, 27360, Note_on_c, 1, 46, 0
3, 27360, Note_on_c, 1, 43, 0
3, 27360, Note_on_c, 1, 42, 64
3, 27360, Note_on_c, 1, 45, 64
3, 27480, Note_on_c, 1, 45, 0
3, 27480, Note_on_c, 1, 42, 0
3, 27480, Note_on_c, 1, 40, 64
3, 27480, Note_on_c, 1, 43, 64
3, 27600, Note_on_c, 1, 43, 0
3, 27600, Note_on_c, 1, 40, 0
3, 27600, Note_on_c, 1, 38, 64
3, 27600, Note_on_c, 1, 42, 64
3, 27720, Note_on_c, 1, 42, 0
3, 27720, Note_on_c, 1, 38, 0
3, 27720, Note_on_c, 1, 46, 63
3, 27720, Note_on_c, 1, 43, 63
3, 27840, Note_on_c, 1, 43, 0
3, 27840, Note_on_c, 1, 46, 0
3, 27840, Note_on_c, 1, 48, 62
3, 27840, Note_on_c, 1, 45, 62
3, 27960, Note_on_c, 1, 45, 0
3, 27960, Note_on_c, 1, 48, 0
3, 27960, Note_on_c, 1, 50, 61
3, 27960, Note_on_c, 1, 46, 61
3, 28080, Note_on_c, 1, 46, 0
3, 28080, Note_on_c, 1, 50, 0
3, 28080, Note_on_c, 1, 48, 61
3, 28200, Note_on_c, 1, 48, 0
3, 28200, Note_on_c, 1, 50, 61
3, 28320, Note_on_c, 1, 50, 0
3, 28320, Note_on_c, 1, 38, 63
3, 28440, Note_on_c, 1, 38, 0
3, 28440, Note_on_c, 1, 62, 65
3, 28440, Note_on_c, 1, 58, 65
3, 28560, Note_on_c, 1, 58, 0
3, 28560, Note_on_c, 1, 62, 0
3, 28560, Note_on_c, 1, 60, 66
3, 28560, Note_on_c, 1, 57, 66
3, 28680, Note_on_c, 1, 57, 0
3, 28680, Note_on_c, 1, 60, 0
3, 28680, Note_on_c, 1, 58, 68
3, 28680, Note_on_c, 1, 55, 68
3, 28800, Note_on_c, 1, 55, 0
3, 28800, Note_on_c, 1, 58, 0
3, 28800, Note_on_c, 1, 54, 68
3, 28800, Note_on_c, 1, 57, 68
3, 28920, Note_on_c, 1, 57, 0
3, 28920, Note_on_c, 1, 54, 0
3, 28920, Note_on_c, 1, 52, 69
3, 28920, Note_on_c, 1, 55, 69
3, 29040, Note_on_c, 1, 55, 0
3, 29040, Note_on_c, 1, 52, 0
3, 29040, Note_on_c, 1, 54, 70
3, 29040, Note_on_c, 1, 50, 70
3, 29160, Note_on_c, 1, 50, 0
3, 29160, Note_on_c, 1, 54, 0
3, 29160, Note_on_c, 1, 50, 71
3, 29160, Note_on_c, 1, 46, 71
3, 29280, Note_on_c, 1, 46, 0
3, 29280, Note_on_c, 1, 50, 0
3, 29280, Note_on_c, 1, 48, 72
3, 29280, Note_on_c, 1, 45, 72
3, 29400, Note_on_c, 1, 45, 0
3, 29400, Note_on_c, 1, 48, 0
3, 29400, Note_on_c, 1, 43, 72
3, 29400, Note_on_c, 1, 46, 72
3, 29520, Note_on_c, 1, 46, 0
3, 29520, Note_on_c, 1, 43, 0
3, 29520, Note_on_c, 1, 42, 74
3, 29520, Note_on_c, 1, 45, 74
3, 29640, Note_on_c, 1, 45, 0
3, 29640, Note_on_c, 1, 42, 0
3, 29640, Note_on_c, 1, 40, 74
3, 29640, Note_on_c, 1, 43, 74
3, 29760, Note_on_c, 1, 43, 0
3, 29760, Note_on_c, 1, 40, 0
3, 29760, Note_on_c, 1, 38, 74
3, 29760, Note_on_c, 1, 42, 74
3, 29880, Note_on_c, 1, 42, 0
3, 29880, Note_on_c, 1, 38, 0
3, 29880, Note_on_c, 1, 58, 74
3, 29880, Note_on_c, 1, 55, 74
3, 30000, Note_on_c, 1, 55, 0
3, 30000, Note_on_c, 1, 58, 0
3, 30000, Note_on_c, 1, 53, 74
3, 30000, Note_on_c, 1, 56, 74
3, 30120, Note_on_c, 1, 56, 0
3, 30120, Note_on_c, 1, 53, 0
3, 30120, Note_on_c, 1, 51, 74
3, 30120, Note_on_c, 1, 55, 74
3, 30240, Note_on_c, 1, 55, 0
3, 30240, Note_on_c, 1, 51, 0
3, 30240, Note_on_c, 1, 50, 74
3, 30240, Note_on_c, 1, 53, 74
3, 30360, Note_on_c, 1, 53, 0
3, 30360, Note_on_c, 1, 50, 0
3, 30360, Note_on_c, 1, 48, 74
3, 30360, Note_on_c, 1, 51, 74
3, 30480, Note_on_c, 1, 51, 0
3, 30480, Note_on_c, 1, 48, 0
3, 30480, Note_on_c, 1, 46, 74
3, 30480, Note_on_c, 1, 50, 74
3, 30600, Note_on_c, 1, 50, 0
3, 30600, Note_on_c, 1, 46, 0
3, 30600, Note_on_c, 1, 51, 74
3, 30600, Note_on_c, 1, 55, 74
3, 30720, Note_on_c, 1, 55, 0
3, 30720, Note_on_c, 1, 51, 0
3, 30720, Note_on_c, 1, 50, 73
3, 30720, Note_on_c, 1, 53, 73
3, 30840, Note_on_c, 1, 53, 0
3, 30840, Note_on_c, 1, 50, 0
3, 30840, Note_on_c, 1, 48, 71
3, 30840, Note_on_c, 1, 51, 71
3, 30960, Note_on_c, 1, 51, 0
3, 30960, Note_on_c, 1, 48, 0
3, 30960, Note_on_c, 1, 47, 69
3, 30960, Note_on_c, 1, 50, 69
3, 31080, Note_on_c, 1, 50, 0
3, 31080, Note_on_c, 1, 47, 0
3, 31080, Note_on_c, 1, 45, 70
3, 31080, Note_on_c, 1, 48, 70
3, 31200, Note_on_c, 1, 48, 0
3, 31200, Note_on_c, 1, 45, 0
3, 31200, Note_on_c, 1, 43, 70
3, 31200, Note_on_c, 1, 47, 70
3, 31320, Note_on_c, 1, 47, 0
3, 31320, Note_on_c, 1, 43, 0
3, 31320, Note_on_c, 1, 44, 69
3, 31320, Note_on_c, 1, 48, 69
3, 31440, Note_on_c, 1, 48, 0
3, 31440, Note_on_c, 1, 44, 0
3, 31680, Note_on_c, 1, 48, 89
3, 31680, Note_on_c, 1, 44, 89
3, 31680, Note_on_c, 1, 54, 89
3, 31800, Note_on_c, 1, 54, 0
3, 31800, Note_on_c, 1, 44, 0
3, 31800, Note_on_c, 1, 48, 0
3, 32040, Note_on_c, 1, 43, 72
3, 32040, Note_on_c, 1, 55, 72
3, 32160, Note_on_c, 1, 55, 0
3, 32160, Note_on_c, 1, 43, 0
3, 32280, Note_on_c, 1, 55, 72
3, 32400, Note_on_c, 1, 55, 0
3, 32400, Note_on_c, 1, 60, 67
3, 32400, Note_on_c, 1, 55, 89
3, 32460, Note_on_c, 1, 60, 0
3, 32460, Note_on_c, 1, 57, 67
3, 32520, Note_on_c, 1, 57, 0
3, 32520, Note_on_c, 1, 55, 0
3, 32520, Note_on_c, 1, 60, 67
3, 32520, Note_on_c, 1, 55, 89
3, 32580, Note_on_c, 1, 60, 0
3, 32580, Note_on_c, 1, 57, 67
3, 32640, Note_on_c, 1, 57, 0
3, 32640, Note_on_c, 1, 55, 0
3, 32640, Note_on_c, 1, 60, 67
3, 32640, Note_on_c, 1, 55, 89
3, 32700, Note_on_c, 1, 60, 0
3, 32700, Note_on_c, 1, 57, 67
3, 32760, Note_on_c, 1, 57, 0
3, 32760, Note_on_c, 1, 55, 0
3, 32760, Note_on_c, 1, 59, 82
3, 32760, Note_on_c, 1, 55, 109
3, 32820, Note_on_c, 1, 59, 0
3, 32880, Note_on_c, 1, 55, 0
3, 33720, Note_on_c, 1, 55, 67
3, 33840, Note_on_c, 1, 55, 0
3, 33840, Note_on_c, 1, 60, 67
3, 33840, Note_on_c, 1, 55, 89
3, 33900, Note_on_c, 1, 60, 0
3, 33900, Note_on_c, 1, 57, 67
3, 33960, Note_on_c, 1, 57, 0
3, 33960, Note_on_c, 1, 55, 0
3, 33960, Note_on_c, 1, 60, 67
3, 33960, Note_on_c, 1, 55, 89
3, 34020, Note_on_c, 1, 60, 0
3, 34020, Note_on_c, 1, 57, 67
3, 34080, Note_on_c, 1, 57, 0
3, 34080, Note_on_c, 1, 55, 0
3, 34080, Note_on_c, 1, 60, 67
3, 34080, Note_on_c, 1, 55, 89
3, 34140, Note_on_c, 1, 60, 0
3, 34140, Note_on_c, 1, 57, 67
3, 34200, Note_on_c, 1, 57, 0
3, 34200, Note_on_c, 1, 55, 0
3, 34200, Note_on_c, 1, 59, 107
3, 34200, Note_on_c, 1, 55, 89
3, 34260, Note_on_c, 1, 59, 0
3, 34320, Note_on_c, 1, 55, 0
3, 35160, Note_on_c, 1, 43, 89
3, 35280, Note_on_c, 1, 43, 0
3, 35280, Note_on_c, 1, 43, 89
3, 35400, Note_on_c, 1, 43, 0
3, 35400, Note_on_c, 1, 43, 89
3, 35520, Note_on_c, 1, 43, 0
3, 35520, Note_on_c, 1, 43, 89
3, 35640, Note_on_c, 1, 43, 0
3, 35640, Note_on_c, 1, 36, 89
3, 35760, Note_on_c, 1, 36, 0
3, 36600, Note_on_c, 1, 36, 108
3, 36600, Note_on_c, 1, 48, 108
3, 36720, Note_on_c, 1, 48, 0
3, 36720, Note_on_c, 1, 36, 0
3, 36720, Note_on_c, 1, 48, 108
3, 36720, Note_on_c, 1, 36, 108
3, 36840, Note_on_c, 1, 36, 0
3, 36840, Note_on_c, 1, 48, 0
3, 36840, Note_on_c, 1, 48, 107
3, 36840, Note_on_c, 1, 36, 107
3, 36960, Note_on_c, 1, 36, 0
3, 36960, Note_on_c, 1, 48, 0
3, 36960, Note_on_c, 1, 48, 107
3, 36960, Note_on_c, 1, 36, 107
3, 37080, Note_on_c, 1, 36, 0
3, 37080, Note_on_c, 1, 48, 0
3, 37080, Note_on_c, 1, 29, 122
3, 37080, Note_on_c, 1, 41, 122
3, 37200, Note_on_c, 1, 41, 0
3, 37200, Note_on_c, 1, 29, 0
3, 38400, Note_on_c, 1, 44, 89
3, 38400, Note_on_c, 1, 56, 89
3, 38520, Note_on_c, 1, 56, 0
3, 38520, Note_on_c, 1, 44, 0
3, 38520, Note_on_c, 1, 44, 89
3, 38520, Note_on_c, 1, 56, 89
3, 38640, Note_on_c, 1, 56, 0
3, 38640, Note_on_c, 1, 44, 0
3, 38640, Note_on_c, 1, 44, 89
3, 38640, Note_on_c, 1, 56, 89
3, 38760, Note_on_c, 1, 56, 0
3, 38760, Note_on_c, 1, 44, 0
3, 38760, Note_on_c, 1, 44, 89
3, 38760, Note_on_c, 1, 56, 89
3, 38880, Note_on_c, 1, 56, 0
3, 38880, Note_on_c, 1, 44, 0
3, 38880, Note_on_c, 1, 38, 89
3, 38880, Note_on_c, 1, 50, 89
3, 39000, Note_on_c, 1, 50, 0
3, 39000, Note_on_c, 1, 38, 0
3, 39120, Note_on_c, 1, 68, 89
3, 39120, Note_on_c, 1, 56, 89
3, 39240, Note_on_c, 1, 56, 0
3, 39240, Note_on_c, 1, 68, 0
3, 39240, Note_on_c, 1, 56, 89
3, 39240, Note_on_c, 1, 68, 89
3, 39360, Note_on_c, 1, 68, 0
3, 39360, Note_on_c, 1, 56, 0
3, 39360, Note_on_c, 1, 67, 89
3, 39360, Note_on_c, 1, 55, 89
3, 39480, Note_on_c, 1, 55, 0
3, 39480, Note_on_c, 1, 67, 0
3, 39480, Note_on_c, 1, 65, 89
3, 39480, Note_on_c, 1, 53, 89
3, 39600, Note_on_c, 1, 53, 0
3, 39600, Note_on_c, 1, 65, 0
3, 39600, Note_on_c, 1, 51, 89
3, 39600, Note_on_c, 1, 63, 89
3, 39720, Note_on_c, 1, 63, 0
3, 39720, Note_on_c, 1, 51, 0
3, 39720, Note_on_c, 1, 62, 89
3, 39720, Note_on_c, 1, 50, 89
3, 39840, Note_on_c, 1, 50, 0
3, 39840, Note_on_c, 1, 62, 0
3, 39840, Note_on_c, 1, 63, 89
3, 39840, Note_on_c, 1, 51, 89
3, 39960, Note_on_c, 1, 51, 0
3, 39960, Note_on_c, 1, 63, 0
3, 39960, Note_on_c, 1, 53, 89
3, 39960, Note_on_c, 1, 65, 89
3, 40080, Note_on_c, 1, 65, 0
3, 40080, Note_on_c, 1, 53, 0
3, 40080, Note_on_c, 1, 67, 89
3, 40080, Note_on_c, 1, 55, 89
3, 40200, Note_on_c, 1, 55, 0
3, 40200, Note_on_c, 1, 67, 0
3, 40200, Note_on_c, 1, 43, 89
3, 40200, Note_on_c, 1, 55, 89
3, 40320, Note_on_c, 1, 55, 0
3, 40320, Note_on_c, 1, 43, 0
3, 40320, Note_on_c, 1, 48, 89
3, 40380, Note_on_c, 1, 48, 0
3, 40380, Note_on_c, 1, 55, 89
3, 40440, Note_on_c, 1, 55, 0
3, 40440, Note_on_c, 1, 53, 89
3, 40500, Note_on_c, 1, 53, 0
3, 40500, Note_on_c, 1, 51, 89
3, 40560, Note_on_c, 1, 51, 0
3, 40560, Note_on_c, 1, 50, 89
3, 40620, Note_on_c, 1, 50, 0
3, 40620, Note_on_c, 1, 48, 89
3, 40680, Note_on_c, 1, 48, 0
3, 40680, Note_on_c, 1, 47, 89
3, 40740, Note_on_c, 1, 47, 0
3, 40740, Note_on_c, 1, 44, 89
3, 40800, Note_on_c, 1, 44, 0
3, 40800, Note_on_c, 1, 43, 89
3, 40860, Note_on_c, 1, 43, 0
3, 40860, Note_on_c, 1, 41, 89
3, 40920, Note_on_c, 1, 41, 0
3, 40920, Note_on_c, 1, 39, 89
3, 40980, Note_on_c, 1, 39, 0
3, 40980, Note_on_c, 1, 38, 89
3, 41040, Note_on_c, 1, 38, 0
3, 41040, Note_on_c, 1, 36, 89
3, 41100, Note_on_c, 1, 36, 0
3, 41100, Note_on_c, 1, 38, 89
3, 41160, Note_on_c, 1, 38, 0
3, 41160, Note_on_c, 1, 39, 89
3, 41220, Note_on_c, 1, 39, 0
3, 41220, Note_on_c, 1, 41, 89
3, 41280, Note_on_c, 1, 41, 0
3, 41280, Note_on_c, 1, 43, 89
3, 41340, Note_on_c, 1, 43, 0
3, 41340, Note_on_c, 1, 42, 89
3, 41400, Note_on_c, 1, 42, 0
3, 41400, Note_on_c, 1, 43, 89
3, 41460, Note_on_c, 1, 43, 0
3, 41460, Note_on_c, 1, 45, 89
3, 41520, Note_on_c, 1, 45, 0
3, 41520, Note_on_c, 1, 47, 89
3, 41580, Note_on_c, 1, 47, 0
3, 41580, Note_on_c, 1, 48, 89
3, 41640, Note_on_c, 1, 48, 0
3, 41640, Note_on_c, 1, 50, 89
3, 41700, Note_on_c, 1, 50, 0
3, 41700, Note_on_c, 1, 47, 89
3, 41760, Note_on_c, 1, 47, 0
3, 41760, Note_on_c, 1, 48, 89
3, 41820, Note_on_c, 1, 48, 0
3, 41820, Note_on_c, 1, 53, 89
3, 41880, Note_on_c, 1, 53, 0
3, 41880, Note_on_c, 1, 53, 89
3, 41940, Note_on_c, 1, 53, 0
3, 41940, Note_on_c, 1, 51, 89
3, 42000, Note_on_c, 1, 51, 0
3, 42000, Note_on_c, 1, 50, 89
3, 42060, Note_on_c, 1, 50, 0
3, 42060, Note_on_c, 1, 48, 89
3, 42120, Note_on_c, 1, 48, 0
3, 42120, Note_on_c, 1, 47, 89
3, 42180, Note_on_c, 1, 47, 0
3, 42180, Note_on_c, 1, 44, 89
3, 42240, Note_on_c, 1, 44, 0
3, 42240, Note_on_c, 1, 43, 89
3, 42300, Note_on_c, 1, 43, 0
3, 42300, Note_on_c, 1, 41, 89
3, 42360, Note_on_c, 1, 41, 0
3, 42360, Note_on_c, 1, 39, 89
3, 42420, Note_on_c, 1, 39, 0
3, 42420, Note_on_c, 1, 38, 89
3, 42480, Note_on_c, 1, 38, 0
3, 42480, Note_on_c, 1, 36, 89
3, 42540, Note_on_c, 1, 36, 0
3, 42540, Note_on_c, 1, 38, 89
3, 42600, Note_on_c, 1, 38, 0
3, 42600, Note_on_c, 1, 39, 89
3, 42660, Note_on_c, 1, 39, 0
3, 42660, Note_on_c, 1, 41, 89
3, 42720, Note_on_c, 1, 41, 0
3, 42720, Note_on_c, 1, 43, 89
3, 42780, Note_on_c, 1, 43, 0
3, 42780, Note_on_c, 1, 42, 89
3, 42840, Note_on_c, 1, 42, 0
3, 42840, Note_on_c, 1, 43, 89
3, 42900, Note_on_c, 1, 43, 0
3, 42900, Note_on_c, 1, 45, 89
3, 42960, Note_on_c, 1, 45, 0
3, 42960, Note_on_c, 1, 47, 89
3, 43020, Note_on_c, 1, 47, 0
3, 43020, Note_on_c, 1, 48, 89
3, 43080, Note_on_c, 1, 48, 0
3, 43080, Note_on_c, 1, 50, 89
3, 43140, Note_on_c, 1, 50, 0
3, 43140, Note_on_c, 1, 47, 89
3, 43200, Note_on_c, 1, 47, 0
3, 43200, Note_on_c, 1, 48, 127
3, 43320, Note_on_c, 1, 48, 0
3, 46080, Note_on_c, 1, 60, 61
3, 46200, Note_on_c, 1, 60, 0
3, 46200, Note_on_c, 1, 62, 64
3, 46320, Note_on_c, 1, 62, 0
3, 46320, Note_on_c, 1, 50, 65
3, 46440, Note_on_c, 1, 50, 0
3, 46440, Note_on_c, 1, 62, 68
3, 46440, Note_on_c, 1, 58, 68
3, 46560, Note_on_c, 1, 58, 0
3, 46560, Note_on_c, 1, 62, 0
3, 46560, Note_on_c, 1, 60, 70
3, 46560, Note_on_c, 1, 57, 70
3, 46680, Note_on_c, 1, 57, 0
3, 46680, Note_on_c, 1, 60, 0
3, 46680, Note_on_c, 1, 55, 70
3, 46680, Note_on_c, 1, 58, 70
3, 46800, Note_on_c, 1, 58, 0
3, 46800, Note_on_c, 1, 55, 0
3, 46800, Note_on_c, 1, 54, 68
3, 46800, Note_on_c, 1, 57, 68
3, 46920, Note_on_c, 1, 57, 0
3, 46920, Note_on_c, 1, 54, 0
3, 46920, Note_on_c, 1, 52, 67
3, 46920, Note_on_c, 1, 55, 67
3, 47040, Note_on_c, 1, 55, 0
3, 47040, Note_on_c, 1, 52, 0
3, 47040, Note_on_c, 1, 54, 66
3, 47040, Note_on_c, 1, 50, 66
3, 47160, Note_on_c, 1, 50, 0
3, 47160, Note_on_c, 1, 54, 0
3, 47160, Note_on_c, 1, 50, 64
3, 47160, Note_on_c, 1, 46, 64
3, 47280, Note_on_c, 1, 46, 0
3, 47280, Note_on_c, 1, 50, 0
3, 47280, Note_on_c, 1, 48, 64
3, 47280, Note_on_c, 1, 45, 64
3, 47400, Note_on_c, 1, 45, 0
3, 47400, Note_on_c, 1, 48, 0
3, 47400, Note_on_c, 1, 43, 64
3, 47400, Note_on_c, 1, 46, 64
3, 47520, Note_on_c, 1, 46, 0
3, 47520, Note_on_c, 1, 43, 0
3, 47520, Note_on_c, 1, 42, 64
3, 47520, Note_on_c, 1, 45, 64
3, 47640, Note_on_c, 1, 45, 0
3, 47640, Note_on_c, 1, 42, 0
3, 47640, Note_on_c, 1, 40, 64
3, 47640, Note_on_c, 1, 43, 64
3, 47760, Note_on_c, 1, 43, 0
3, 47760, Note_on_c, 1, 40, 0
3, 47760, Note_on_c, 1, 38, 64
3, 47760, Note_on_c, 1, 42, 64
3, 47880, Note_on_c, 1, 42, 0
3, 47880, Note_on_c, 1, 38, 0
3, 47880, Note_on_c, 1, 46, 63
3, 47880, Note_on_c, 1, 43, 63
3, 48000, Note_on_c, 1, 43, 0
3, 48000, Note_on_c, 1, 46, 0
3, 48000, Note_on_c, 1, 48, 62
3, 48000, Note_on_c, 1, 45, 62
3, 48120, Note_on_c, 1, 45, 0
3, 48120, Note_on_c, 1, 48, 0
3, 48120, Note_on_c, 1, 50, 61
3, 48120, Note_on_c, 1, 46, 61
3, 48240, Note_on_c, 1, 46, 0
3, 48240, Note_on_c, 1, 50, 0
3, 48240, Note_on_c, 1, 48, 61
3, 48360, Note_on_c, 1, 48, 0
3, 48360, Note_on_c, 1, 50, 61
3, 48480, Note_on_c, 1, 50, 0
3, 48480, Note_on_c, 1, 38, 63
3, 48600, Note_on_c, 1, 38, 0
3, 48600, Note_on_c, 1, 62, 65
3, 48600, Note_on_c, 1, 58, 65
3, 48720, Note_on_c, 1, 58, 0
3, 48720, Note_on_c, 1, 62, 0
3, 48720, Note_on_c, 1, 60, 66
3, 48720, Note_on_c, 1, 57, 66
3, 48840, Note_on_c, 1, 57, 0
3, 48840, Note_on_c, 1, 60, 0
3, 48840, Note_on_c, 1, 58, 68
3, 48840, Note_on_c, 1, 55, 68
3, 48960, Note_on_c, 1, 55, 0
3, 48960, Note_on_c, 1, 58, 0
3, 48960, Note_on_c, 1, 54, 68
3, 48960, Note_on_c, 1, 57, 68
3, 49080, Note_on_c, 1, 57, 0
3, 49080, Note_on_c, 1, 54, 0
3, 49080, Note_on_c, 1, 52, 69
3, 49080, Note_on_c, 1, 55, 69
3, 49200, Note_on_c, 1, 55, 0
3, 49200, Note_on_c, 1, 52, 0
3, 49200, Note_on_c, 1, 54, 70
3, 49200, Note_on_c, 1, 50, 70
3, 49320, Note_on_c, 1, 50, 0
3, 49320, Note_on_c, 1, 54, 0
3, 49320, Note_on_c, 1, 50, 71
3, 49320, Note_on_c, 1, 46, 71
3, 49440, Note_on_c, 1, 46, 0
3, 49440, Note_on_c, 1, 50, 0
3, 49440, Note_on_c, 1, 48, 72
3, 49440, Note_on_c, 1, 45, 72
3, 49560, Note_on_c, 1, 45, 0
3, 49560, Note_on_c, 1, 48, 0
3, 49560, Note_on_c, 1, 43, 72
3, 49560, Note_on_c, 1, 46, 72
3, 49680, Note_on_c, 1, 46, 0
3, 49680, Note_on_c, 1, 43, 0
3, 49680, Note_on_c, 1, 42, 74
3, 49680, Note_on_c, 1, 45, 74
3, 49800, Note_on_c, 1, 45, 0
3, 49800, Note_on_c, 1, 42, 0
3, 49800, Note_on_c, 1, 40, 74
3, 49800, Note_on_c, 1, 43, 74
3, 49920, Note_on_c, 1, 43, 0
3, 49920, Note_on_c, 1, 40, 0
3, 49920, Note_on_c, 1, 38, 74
3, 49920, Note_on_c, 1, 42, 74
3, 50040, Note_on_c, 1, 42, 0
3, 50040, Note_on_c, 1, 38, 0
3, 50040, Note_on_c, 1, 58, 74
3, 50040, Note_on_c, 1, 55, 74
3, 50160, Note_on_c, 1, 55, 0
3, 50160, Note_on_c, 1, 58, 0
3, 50160, Note_on_c, 1, 53, 74
3, 50160, Note_on_c, 1, 56, 74
3, 50280, Note_on_c, 1, 56, 0
3, 50280, Note_on_c, 1, 53, 0
3, 50280, Note_on_c, 1, 51, 74
3, 50280, Note_on_c, 1, 55, 74
3, 50400, Note_on_c, 1, 55, 0
3, 50400, Note_on_c, 1, 51, 0
3, 50400, Note_on_c, 1, 50, 74
3, 50400, Note_on_c, 1, 53, 74
3, 50520, Note_on_c, 1, 53, 0
3, 50520, Note_on_c, 1, 50, 0
3, 50520, Note_on_c, 1, 48, 74
3, 50520, Note_on_c, 1, 51, 74
3, 50640, Note_on_c, 1, 51, 0
3, 50640, Note_on_c, 1, 48, 0
3, 50640, Note_on_c, 1, 46, 74
3, 50640, Note_on_c, 1, 50, 74
3, 50760, Note_on_c, 1, 50, 0
3, 50760, Note_on_c, 1, 46, 0
3, 50760, Note_on_c, 1, 51, 74
3, 50760, Note_on_c, 1, 55, 74
3, 50880, Note_on_c, 1, 55, 0
3, 50880, Note_on_c, 1, 51, 0
3, 50880, Note_on_c, 1, 50, 73
3, 50880, Note_on_c, 1, 53, 73
3, 51000, Note_on_c, 1, 53, 0
3, 51000, Note_on_c, 1, 50, 0
3, 51000, Note_on_c, 1, 48, 71
3, 51000, Note_on_c, 1, 51, 71
3, 51120, Note_on_c, 1, 51, 0
3, 51120, Note_on_c, 1, 48, 0
3, 51120, Note_on_c, 1, 47, 69
3, 51120, Note_on_c, 1, 50, 69
3, 51240, Note_on_c, 1, 50, 0
3, 51240, Note_on_c, 1, 47, 0
3, 51240, Note_on_c, 1, 45, 70
3, 51240, Note_on_c, 1, 48, 70
3, 51360, Note_on_c, 1, 48, 0
3, 51360, Note_on_c, 1, 45, 0
3, 51360, Note_on_c, 1, 43, 70
3, 51360, Note_on_c, 1, 47, 70
3, 51480, Note_on_c, 1, 47, 0
3, 51480, Note_on_c, 1, 43, 0
3, 51480, Note_on_c, 1, 44, 69
3, 51480, Note_on_c, 1, 48, 69
3, 51600, Note_on_c, 1, 48, 0
3, 51600, Note_on_c, 1, 44, 0
3, 51840, Note_on_c, 1, 48, 89
3, 51840, Note_on_c, 1, 44, 89
3, 51840, Note_on_c, 1, 54, 89
3, 51960, Note_on_c, 1, 54, 0
3, 51960, Note_on_c, 1, 44, 0
3, 51960, Note_on_c, 1, 48, 0
3, 52200, Note_on_c, 1, 43, 72
3, 52200, Note_on_c, 1, 55, 72
3, 52320, Note_on_c, 1, 55, 0
3, 52320, Note_on_c, 1, 43, 0
3, 52440, Note_on_c, 1, 55, 72
3, 52560, Note_on_c, 1, 55, 0
3, 52560, Note_on_c, 1, 60, 67
3, 52560, Note_on_c, 1, 55, 89
3, 52620, Note_on_c, 1, 60, 0
3, 52620, Note_on_c, 1, 57, 67
3, 52680, Note_on_c, 1, 57, 0
3, 52680, Note_on_c, 1, 55, 0
3, 52680, Note_on_c, 1, 60, 67
3, 52680, Note_on_c, 1, 55, 89
3, 52740, Note_on_c, 1, 60, 0
3, 52740, Note_on_c, 1, 57, 67
3, 52800, Note_on_c, 1, 57, 0
3, 52800, Note_on_c, 1, 55, 0
3, 52800, Note_on_c, 1, 60, 67
3, 52800, Note_on_c, 1, 55, 89
3, 52860, Note_on_c, 1, 60, 0
3, 52860, Note_on_c, 1, 57, 67
3, 52920, Note_on_c, 1, 57, 0
3, 52920, Note_on_c, 1, 55, 0
3, 52920, Note_on_c, 1, 59, 82
3, 52920, Note_on_c, 1, 55, 109
3, 52980, Note_on_c, 1, 59, 0
3, 53040, Note_on_c, 1, 55, 0
3, 53880, Note_on_c, 1, 55, 67
3, 54000, Note_on_c, 1, 55, 0
3, 54000, Note_on_c, 1, 60, 67
3, 54000, Note_on_c, 1, 55, 89
3, 54060, Note_on_c, 1, 60, 0
3, 54060, Note_on_c, 1, 57, 67
3, 54120, Note_on_c, 1, 57, 0
3, 54120, Note_on_c, 1, 55, 0
3, 54120, Note_on_c, 1, 60, 67
3, 54120, Note_on_c, 1, 55, 89
3, 54180, Note_on_c, 1, 60, 0
3, 54180, Note_on_c, 1, 57, 67
3, 54240, Note_on_c, 1, 57, 0
3, 54240, Note_on_c, 1, 55, 0
3, 54240, Note_on_c, 1, 60, 67
3, 54240, Note_on_c, 1, 55, 89
3, 54300, Note_on_c, 1, 60, 0
3, 54300, Note_on_c, 1, 57, 67
3, 54360, Note_on_c, 1, 57, 0
3, 54360, Note_on_c, 1, 55, 0
3, 54360, Note_on_c, 1, 59, 107
3, 54360, Note_on_c, 1, 55, 89
3, 54420, Note_on_c, 1, 59, 0
3, 54480, Note_on_c, 1, 55, 0
3, 55320, Note_on_c, 1, 43, 89
3, 55440, Note_on_c, 1, 43, 0
3, 55440, Note_on_c, 1, 43, 89
3, 55560, Note_on_c, 1, 43, 0
3, 55560, Note_on_c, 1, 43, 89
3, 55680, Note_on_c, 1, 43, 0
3, 55680, Note_on_c, 1, 43, 89
3, 55800, Note_on_c, 1, 43, 0
3, 55800, Note_on_c, 1, 36, 89
3, 55920, Note_on_c, 1, 36, 0
3, 56760, Note_on_c, 1, 36, 108
3, 56760, Note_on_c, 1, 48, 108
3, 56880, Note_on_c, 1, 48, 0
3, 56880, Note_on_c, 1, 36, 0
3, 56880, Note_on_c, 1, 48, 108
3, 56880, Note_on_c, 1, 36, 108
3, 57000, Note_on_c, 1, 36, 0
3, 57000, Note_on_c, 1, 48, 0
3, 57000, Note_on_c, 1, 48, 107
3, 57000, Note_on_c, 1, 36, 107
3, 57120, Note_on_c, 1, 36, 0
3, 57120, Note_on_c, 1, 48, 0
3, 57120, Note_on_c, 1, 48, 107
3, 57120, Note_on_c, 1, 36, 107
3, 57240, Note_on_c, 1, 36, 0
3, 57240, Note_on_c, 1, 48, 0
3, 57240, Note_on_c, 1, 29, 122
3, 57240, Note_on_c, 1, 41, 122
3, 57360, Note_on_c, 1, 41, 0
3, 57360, Note_on_c, 1, 29, 0
3, 58560, Note_on_c, 1, 44, 89
3, 58560, Note_on_c, 1, 56, 89
3, 58680, Note_on_c, 1, 56, 0
3, 58680, Note_on_c, 1, 44, 0
3, 58680, Note_on_c, 1, 44, 89
3, 58680, Note_on_c, 1, 56, 89
3, 58800, Note_on_c, 1, 56, 0
3, 58800, Note_on_c, 1, 44, 0
3, 58800, Note_on_c, 1, 44, 89
3, 58800, Note_on_c, 1, 56, 89
3, 58920, Note_on_c, 1, 56, 0
3, 58920, Note_on_c, 1, 44, 0
3, 58920, Note_on_c, 1, 44, 89
3, 58920, Note_on_c, 1, 56, 89
3, 59040, Note_on_c, 1, 56, 0
3, 59040, Note_on_c, 1, 44, 0
3, 59040, Note_on_c, 1, 38, 89
3, 59040, Note_on_c, 1, 50, 89
3, 59160, Note_on_c, 1, 50, 0
3, 59160, Note_on_c, 1, 38, 0
3, 59280, Note_on_c, 1, 68, 89
3, 59280, Note_on_c, 1, 56, 89
3, 59400, Note_on_c, 1, 56, 0
3, 59400, Note_on_c, 1, 68, 0
3, 59400, Note_on_c, 1, 56, 89
3, 59400, Note_on_c, 1, 68, 89
3, 59520, Note_on_c, 1, 68, 0
3, 59520, Note_on_c, 1, 56, 0
3, 59520, Note_on_c, 1, 67, 89
3, 59520, Note_on_c, 1, 55, 89
3, 59640, Note_on_c, 1, 55, 0
3, 59640, Note_on_c, 1, 67, 0
3, 59640, Note_on_c, 1, 65, 89
3, 59640, Note_on_c, 1, 53, 89
3, 59760, Note_on_c, 1, 53, 0
3, 59760, Note_on_c, 1, 65, 0
3, 59760, Note_on_c, 1, 51, 89
3, 59760, Note_on_c, 1, 63, 89
3, 59880, Note_on_c, 1, 63, 0
3, 59880, Note_on_c, 1, 51, 0
3, 59880, Note_on_c, 1, 62, 89
3, 59880, Note_on_c, 1, 50, 89
3, 60000, Note_on_c, 1, 50, 0
3, 60000, Note_on_c, 1, 62, 0
3, 60000, Note_on_c, 1, 63, 89
3, 60000, Note_on_c, 1, 51, 89
3, 60120, Note_on_c, 1, 51, 0
3, 60120, Note_on_c, 1, 63, 0
3, 60120, Note_on_c, 1, 53, 89
3, 60120, Note_on_c, 1, 65, 89
3, 60240, Note_on_c, 1, 65, 0
3, 60240, Note_on_c, 1, 53, 0
3, 60240, Note_on_c, 1, 67, 89
3, 60240, Note_on_c, 1, 55, 89
3, 60360, Note_on_c, 1, 55, 0
3, 60360, Note_on_c, 1, 67, 0
3, 60360, Note_on_c, 1, 43, 89
3, 60360, Note_on_c, 1, 55, 89
3, 60480, Note_on_c, 1, 55, 0
3, 60480, Note_on_c, 1, 43, 0
3, 60480, Note_on_c, 1, 48, 89
3, 60540, Note_on_c, 1, 48, 0
3, 60540, Note_on_c, 1, 55, 89
3, 60600, Note_on_c, 1, 55, 0
3, 60600, Note_on_c, 1, 53, 89
3, 60660, Note_on_c, 1, 53, 0
3, 60660, Note_on_c, 1, 51, 89
3, 60720, Note_on_c, 1, 51, 0
3, 60720, Note_on_c, 1, 50, 89
3, 60780, Note_on_c, 1, 50, 0
3, 60780, Note_on_c, 1, 48, 89
3, 60840, Note_on_c, 1, 48, 0
3, 60840, Note_on_c, 1, 47, 89
3, 60900, Note_on_c, 1, 47, 0
3, 60900, Note_on_c, 1, 44, 89
3, 60960, Note_on_c, 1, 44, 0
3, 60960, Note_on_c, 1, 43, 89
3, 61020, Note_on_c, 1, 43, 0
3, 61020, Note_on_c, 1, 41, 89
3, 61080, Note_on_c, 1, 41, 0
3, 61080, Note_on_c, 1, 39, 89
3, 61140, Note_on_c, 1, 39, 0
3, 61140, Note_on_c, 1, 38, 89
3, 61200, Note_on_c, 1, 38, 0
3, 61200, Note_on_c, 1, 36, 89
3, 61260, Note_on_c, 1, 36, 0
3, 61260, Note_on_c, 1, 38, 89
3, 61320, Note_on_c, 1, 38, 0
3, 61320, Note_on_c, 1, 39, 89
3, 61380, Note_on_c, 1, 39, 0
3, 61380, Note_on_c, 1, 41, 89
3, 61440, Note_on_c, 1, 41, 0
3, 61440, Note_on_c, 1, 43, 89
3, 61500, Note_on_c, 1, 43, 0
3, 61500, Note_on_c, 1, 42, 89
3, 61560, Note_on_c, 1, 42, 0
3, 61560, Note_on_c, 1, 43, 89
3, 61620, Note_on_c, 1, 43, 0
3, 61620, Note_on_c, 1, 45, 89
3, 61680, Note_on_c, 1, 45, 0
3, 61680, Note_on_c, 1, 47, 89
3, 61740, Note_on_c, 1, 47, 0
3, 61740, Note_on_c, 1, 48, 89
3, 61800, Note_on_c, 1, 48, 0
3, 61800, Note_on_c, 1, 50, 89
3, 61860, Note_on_c, 1, 50, 0
3, 61860, Note_on_c, 1, 47, 89
3, 61920, Note_on_c, 1, 47, 0
3, 61920, Note_on_c, 1, 48, 89
3, 61980, Note_on_c, 1, 48, 0
3, 61980, Note_on_c, 1, 53, 89
3, 62040, Note_on_c, 1, 53, 0
3, 62040, Note_on_c, 1, 53, 89
3, 62100, Note_on_c, 1, 53, 0
3, 62100, Note_on_c, 1, 51, 89
3, 62160, Note_on_c, 1, 51, 0
3, 62160, Note_on_c, 1, 50, 89
3, 62220, Note_on_c, 1, 50, 0
3, 62220, Note_on_c, 1, 48, 89
3, 62280, Note_on_c, 1, 48, 0
3, 62280, Note_on_c, 1, 47, 89
3, 62340, Note_on_c, 1, 47, 0
3, 62340, Note_on_c, 1, 44, 89
3, 62400, Note_on_c, 1, 44, 0
3, 62400, Note_on_c, 1, 43, 89
3, 62460, Note_on_c, 1, 43, 0
3, 62460, Note_on_c, 1, 41, 89
3, 62520, Note_on_c, 1, 41, 0
3, 62520, Note_on_c, 1, 39, 89
3, 62580, Note_on_c, 1, 39, 0
3, 62580, Note_on_c, 1, 38, 89
3, 62640, Note_on_c, 1, 38, 0
3, 62640, Note_on_c, 1, 36, 89
3, 62700, Note_on_c, 1, 36, 0
3, 62700, Note_on_c, 1, 38, 89
3, 62760, Note_on_c, 1, 38, 0
3, 62760, Note_on_c, 1, 39, 89
3, 62820, Note_on_c, 1, 39, 0
3, 62820, Note_on_c, 1, 41, 89
3, 62880, Note_on_c, 1, 41, 0
3, 62880, Note_on_c, 1, 43, 89
3, 62940, Note_on_c, 1, 43, 0
3, 62940, Note_on_c, 1, 42, 89
3, 63000, Note_on_c, 1, 42, 0
3, 63000, Note_on_c, 1, 43, 89
3, 63060, Note_on_c, 1, 43, 0
3, 63060, Note_on_c, 1, 45, 89
3, 63120, Note_on_c, 1, 45, 0
3, 63120, Note_on_c, 1, 47, 89
3, 63180, Note_on_c, 1, 47, 0
3, 63180, Note_on_c, 1, 48, 89
3, 63240, Note_on_c, 1, 48, 0
3, 63240, Note_on_c, 1, 50, 89
3, 63300, Note_on_c, 1, 50, 0
3, 63300, Note_on_c, 1, 47, 89
3, 63360, Note_on_c, 1, 47, 0
3, 63360, Note_on_c, 1, 48, 127
3, 63480, Note_on_c, 1, 48, 0
3, 64560, Note_on_c, 1, 48, 59
3, 64680, Note_on_c, 1, 48, 0
3, 64680, Note_on_c, 1, 47, 59
3, 64800, Note_on_c, 1, 47, 0
3, 64800, Note_on_c, 1, 48, 59
3, 64920, Note_on_c, 1, 48, 0
3, 64920, Note_on_c, 1, 36, 59
3, 65040, Note_on_c, 1, 36, 0
3, 66000, Note_on_c, 1, 60, 52
3, 66120, Note_on_c, 1, 60, 0
3, 66120, Note_on_c, 1, 59, 55
3, 66240, Note_on_c, 1, 59, 0
3, 66240, Note_on_c, 1, 60, 58
3, 66360, Note_on_c, 1, 60, 0
3, 66360, Note_on_c, 1, 48, 59
3, 66480, Note_on_c, 1, 48, 0
3, 66600, Note_on_c, 1, 71, 60
3, 66720, Note_on_c, 1, 71, 0
3, 66720, Note_on_c, 1, 69, 62
3, 66720, Note_on_c, 1, 72, 62
3, 66840, Note_on_c, 1, 72, 0
3, 66840, Note_on_c, 1, 69, 0
3, 66840, Note_on_c, 1, 71, 65
3, 66840, Note_on_c, 1, 67, 65
3, 66960, Note_on_c, 1, 67, 0
3, 66960, Note_on_c, 1, 71, 0
3, 66960, Note_on_c, 1, 65, 67
3, 66960, Note_on_c, 1, 69, 67
3, 67080, Note_on_c, 1, 69, 0
3, 67080, Note_on_c, 1, 65, 0
3, 67080, Note_on_c, 1, 64, 67
3, 67080, Note_on_c, 1, 67, 67
3, 67200, Note_on_c, 1, 67, 0
3, 67200, Note_on_c, 1, 64, 0
3, 67200, Note_on_c, 1, 62, 67
3, 67200, Note_on_c, 1, 65, 67
3, 67320, Note_on_c, 1, 65, 0
3, 67320, Note_on_c, 1, 62, 0
3, 67320, Note_on_c, 1, 60, 67
3, 67320, Note_on_c, 1, 64, 67
3, 67440, Note_on_c, 1, 64, 0
3, 67440, Note_on_c, 1, 60, 0
3, 67440, Note_on_c, 1, 62, 67
3, 67440, Note_on_c, 1, 65, 67
3, 67560, Note_on_c, 1, 65, 0
3, 67560, Note_on_c, 1, 62, 0
3, 67560, Note_on_c, 1, 60, 68
3, 67560, Note_on_c, 1, 64, 68
3, 67680, Note_on_c, 1, 64, 0
3, 67680, Note_on_c, 1, 60, 0
3, 67680, Note_on_c, 1, 59, 69
3, 67680, Note_on_c, 1, 62, 69
3, 67800, Note_on_c, 1, 62, 0
3, 67800, Note_on_c, 1, 59, 0
3, 67800, Note_on_c, 1, 60, 69
3, 67800, Note_on_c, 1, 63, 69
3, 67920, Note_on_c, 1, 63, 0
3, 67920, Note_on_c, 1, 60, 0
3, 67920, Note_on_c, 1, 59, 69
3, 67920, Note_on_c, 1, 62, 69
3, 68040, Note_on_c, 1, 62, 0
3, 68040, Note_on_c, 1, 59, 0
3, 68040, Note_on_c, 1, 60, 69
3, 68040, Note_on_c, 1, 57, 69
3, 68160, Note_on_c, 1, 57, 0
3, 68160, Note_on_c, 1, 60, 0
3, 68160, Note_on_c, 1, 62, 69
3, 68160, Note_on_c, 1, 59, 69
3, 68280, Note_on_c, 1, 59, 0
3, 68280, Note_on_c, 1, 62, 0
3, 68280, Note_on_c, 1, 60, 68
3, 68280, Note_on_c, 1, 57, 68
3, 68400, Note_on_c, 1, 57, 0
3, 68400, Note_on_c, 1, 60, 0
3, 68400, Note_on_c, 1, 59, 67
3, 68400, Note_on_c, 1, 55, 67
3, 68520, Note_on_c, 1, 55, 0
3, 68520, Note_on_c, 1, 59, 0
3, 68520, Note_on_c, 1, 60, 65
3, 68520, Note_on_c, 1, 57, 65
3, 68640, Note_on_c, 1, 57, 0
3, 68640, Note_on_c, 1, 60, 0
3, 68640, Note_on_c, 1, 62, 64
3, 68640, Note_on_c, 1, 59, 64
3, 68760, Note_on_c, 1, 59, 0
3, 68760, Note_on_c, 1, 62, 0
3, 68760, Note_on_c, 1, 60, 62
3, 68880, Note_on_c, 1, 60, 0
3, 68880, Note_on_c, 1, 62, 61
3, 69000, Note_on_c, 1, 62, 0
3, 69000, Note_on_c, 1, 63, 59
3, 69120, Note_on_c, 1, 63, 0
3, 69120, Note_on_c, 1, 64, 58
3, 69240, Note_on_c, 1, 64, 0
3, 69240, Note_on_c, 1, 54, 57
3, 69360, Note_on_c, 1, 54, 0
3, 69360, Note_on_c, 1, 55, 53
3, 69480, Note_on_c, 1, 55, 0
3, 69480, Note_on_c, 1, 48, 52
3, 69600, Note_on_c, 1, 48, 0
3, 69600, Note_on_c, 1, 50, 49
3, 69720, Note_on_c, 1, 50, 0
3, 69720, Note_on_c, 1, 38, 44
3, 69720, Note_on_c, 1, 54, 44
3, 69840, Note_on_c, 1, 54, 0
3, 69840, Note_on_c, 1, 38, 0
3, 69840, Note_on_c, 1, 43, 38
3, 69840, Note_on_c, 1, 55, 38
3, 69960, Note_on_c, 1, 55, 0
3, 69960, Note_on_c, 1, 43, 0
3, 69960, Note_on_c, 1, 31, 31
3, 70080, Note_on_c, 1, 31, 0
3, 70200, Note_on_c, 1, 71, 60
3, 70320, Note_on_c, 1, 71, 0
3, 70320, Note_on_c, 1, 69, 62
3, 70320, Note_on_c, 1, 72, 62
3, 70440, Note_on_c, 1, 72, 0
3, 70440, Note_on_c, 1, 69, 0
3, 70440, Note_on_c, 1, 71, 65
3, 70440, Note_on_c, 1, 67, 65
3, 70560, Note_on_c, 1, 67, 0
3, 70560, Note_on_c, 1, 71, 0
3, 70560, Note_on_c, 1, 65, 67
3, 70560, Note_on_c, 1, 69, 67
3, 70680, Note_on_c, 1, 69, 0
3, 70680, Note_on_c, 1, 65, 0
3, 70680, Note_on_c, 1, 64, 67
3, 70680, Note_on_c, 1, 67, 67
3, 70800, Note_on_c, 1, 67, 0
3, 70800, Note_on_c, 1, 64, 0
3, 70800, Note_on_c, 1, 62, 67
3, 70800, Note_on_c, 1, 65, 67
3, 70920, Note_on_c, 1, 65, 0
3, 70920, Note_on_c, 1, 62, 0
3, 70920, Note_on_c, 1, 60, 67
3, 70920, Note_on_c, 1, 64, 67
3, 71040, Note_on_c, 1, 64, 0
3, 71040, Note_on_c, 1, 60, 0
3, 71040, Note_on_c, 1, 62, 67
3, 71040, Note_on_c, 1, 65, 67
3, 71160, Note_on_c, 1, 65, 0
3, 71160, Note_on_c, 1, 62, 0
3, 71160, Note_on_c, 1, 60, 68
3, 71160, Note_on_c, 1, 64, 68
3, 71280, Note_on_c, 1, 64, 0
3, 71280, Note_on_c, 1, 60, 0
3, 71280, Note_on_c, 1, 59, 69
3, 71280, Note_on_c, 1, 62, 69
3, 71400, Note_on_c, 1, 62, 0
3, 71400, Note_on_c, 1, 59, 0
3, 71400, Note_on_c, 1, 60, 69
3, 71400, Note_on_c, 1, 63, 69
3, 71520, Note_on_c, 1, 63, 0
3, 71520, Note_on_c, 1, 60, 0
3, 71520, Note_on_c, 1, 59, 69
3, 71520, Note_on_c, 1, 62, 69
3, 71640, Note_on_c, 1, 62, 0
3, 71640, Note_on_c, 1, 59, 0
3, 71640, Note_on_c, 1, 60, 69
3, 71640, Note_on_c, 1, 57, 69
3, 71760, Note_on_c, 1, 57, 0
3, 71760, Note_on_c, 1, 60, 0
3, 71760, Note_on_c, 1, 62, 69
3, 71760, Note_on_c, 1, 59, 69
3, 71880, Note_on_c, 1, 59, 0
3, 71880, Note_on_c, 1, 62, 0
3, 71880, Note_on_c, 1, 60, 68
3, 71880, Note_on_c, 1, 57, 68
3, 72000, Note_on_c, 1, 57, 0
3, 72000, Note_on_c, 1, 60, 0
3, 72000, Note_on_c, 1, 59, 67
3, 72000, Note_on_c, 1, 55, 67
3, 72120, Note_on_c, 1, 55, 0
3, 72120, Note_on_c, 1, 59, 0
3, 72120, Note_on_c, 1, 60, 65
3, 72120, Note_on_c, 1, 57, 65
3, 72240, Note_on_c, 1, 57, 0
3, 72240, Note_on_c, 1, 60, 0
3, 72240, Note_on_c, 1, 62, 64
3, 72240, Note_on_c, 1, 59, 64
3, 72360, Note_on_c, 1, 59, 0
3, 72360, Note_on_c, 1, 62, 0
3, 72360, Note_on_c, 1, 60, 62
3, 72480, Note_on_c, 1, 60, 0
3, 72480, Note_on_c, 1, 62, 61
3, 72600, Note_on_c, 1, 62, 0
3, 72600, Note_on_c, 1, 63, 59
3, 72720, Note_on_c, 1, 63, 0
3, 72720, Note_on_c, 1, 64, 58
3, 72840, Note_on_c, 1, 64, 0
3, 72840, Note_on_c, 1, 54, 57
3, 72960, Note_on_c, 1, 54, 0
3, 72960, Note_on_c, 1, 55, 53
3, 73080, Note_on_c, 1, 55, 0
3, 73080, Note_on_c, 1, 48, 52
3, 73200, Note_on_c, 1, 48, 0
3, 73200, Note_on_c, 1, 50, 49
3, 73320, Note_on_c, 1, 50, 0
3, 73320, Note_on_c, 1, 38, 44
3, 73320, Note_on_c, 1, 54, 44
3, 73440, Note_on_c, 1, 54, 0
3, 73440, Note_on_c, 1, 38, 0
3, 73440, Note_on_c, 1, 43, 38
3, 73440, Note_on_c, 1, 55, 38
3, 73560, Note_on_c, 1, 55, 0
3, 73560, Note_on_c, 1, 43, 0
3, 73560, Note_on_c, 1, 31, 31
3, 73680, Note_on_c, 1, 31, 0
3, 74760, Note_on_c, 1, 45, 84
3, 74880, Note_on_c, 1, 45, 0
3, 74880, Note_on_c, 1, 50, 84
3, 75000, Note_on_c, 1, 50, 0
3, 75000, Note_on_c, 1, 38, 84
3, 75120, Note_on_c, 1, 38, 0
3, 76200, Note_on_c, 1, 43, 84
3, 76320, Note_on_c, 1, 43, 0
3, 76320, Note_on_c, 1, 48, 84
3, 76440, Note_on_c, 1, 48, 0
3, 76440, Note_on_c, 1, 36, 84
3, 76560, Note_on_c, 1, 36, 0
3, 76680, Note_on_c, 1, 48, 78
3, 76800, Note_on_c, 1, 48, 0
3, 76800, Note_on_c, 1, 36, 78
3, 76920, Note_on_c, 1, 36, 0
3, 77040, Note_on_c, 1, 55, 78
3, 77040, Note_on_c, 1, 48, 78
3, 77160, Note_on_c, 1, 48, 0
3, 77160, Note_on_c, 1, 36, 78
3, 77280, Note_on_c, 1, 36, 0
3, 77280, Note_on_c, 1, 55, 0
3, 77280, Note_on_c, 1, 55, 78
3, 77280, Note_on_c, 1, 52, 78
3, 77400, Note_on_c, 1, 52, 0
3, 77400, Note_on_c, 1, 55, 0
3, 77400, Note_on_c, 1, 50, 78
3, 77520, Note_on_c, 1, 50, 0
3, 77520, Note_on_c, 1, 52, 78
3, 77640, Note_on_c, 1, 52, 0
3, 77640, Note_on_c, 1, 55, 78
3, 77640, Note_on_c, 1, 48, 78
3, 77760, Note_on_c, 1, 48, 0
3, 77760, Note_on_c, 1, 55, 0
3, 77760, Note_on_c, 1, 55, 78
3, 77880, Note_on_c, 1, 55, 0
3, 77880, Note_on_c, 1, 43, 78
3, 78000, Note_on_c, 1, 43, 0
3, 82560, Note_on_c, 1, 53, 47
3, 82560, Note_on_c, 1, 56, 47
3, 82680, Note_on_c, 1, 56, 0
3, 82680, Note_on_c, 1, 53, 0
3, 82680, Note_on_c, 1, 52, 51
3, 82680, Note_on_c, 1, 55, 51
3, 82800, Note_on_c, 1, 55, 0
3, 82800, Note_on_c, 1, 52, 0
3, 82800, Note_on_c, 1, 50, 55
3, 82800, Note_on_c, 1, 53, 55
3, 82920, Note_on_c, 1, 53, 0
3, 82920, Note_on_c, 1, 50, 0
3, 82920, Note_on_c, 1, 52, 56
3, 82920, Note_on_c, 1, 55, 56
3, 83040, Note_on_c, 1, 55, 0
3, 83040, Note_on_c, 1, 52, 0
3, 83040, Note_on_c, 1, 50, 59
3, 83040, Note_on_c, 1, 53, 59
3, 83160, Note_on_c, 1, 53, 0
3, 83160, Note_on_c, 1, 50, 0
3, 83160, Note_on_c, 1, 48, 61
3, 83160, Note_on_c, 1, 52, 61
3, 83280, Note_on_c, 1, 52, 0
3, 83280, Note_on_c, 1, 48, 0
3, 83280, Note_on_c, 1, 53, 63
3, 83280, Note_on_c, 1, 50, 63
3, 83400, Note_on_c, 1, 50, 0
3, 83400, Note_on_c, 1, 53, 0
3, 83400, Note_on_c, 1, 52, 64
3, 83400, Note_on_c, 1, 55, 64
3, 83520, Note_on_c, 1, 55, 0
3, 83520, Note_on_c, 1, 52, 0
3, 83520, Note_on_c, 1, 53, 65
3, 83640, Note_on_c, 1, 53, 0
3, 83640, Note_on_c, 1, 55, 65
3, 83760, Note_on_c, 1, 55, 0
3, 83760, Note_on_c, 1, 56, 65
3, 83880, Note_on_c, 1, 56, 0
3, 83880, Note_on_c, 1, 57, 64
3, 84000, Note_on_c, 1, 57, 0
3, 84000, Note_on_c, 1, 59, 63
3, 84120, Note_on_c, 1, 59, 0
3, 84120, Note_on_c, 1, 60, 61
3, 84240, Note_on_c, 1, 60, 0
3, 84240, Note_on_c, 1, 53, 60
3, 84360, Note_on_c, 1, 53, 0
3, 84360, Note_on_c, 1, 55, 55
3, 84480, Note_on_c, 1, 55, 0
3, 84480, Note_on_c, 1, 43, 52
3, 84600, Note_on_c, 1, 43, 0
3, 84600, Note_on_c, 1, 48, 47
3, 84720, Note_on_c, 1, 48, 0
3, 84720, Note_on_c, 1, 36, 42
3, 84840, Note_on_c, 1, 36, 0
3, 85915, Note_on_c, 1, 45, 84
3, 86035, Note_on_c, 1, 45, 0
3, 86035, Note_on_c, 1, 50, 84
3, 86155, Note_on_c, 1, 50, 0
3, 86155, Note_on_c, 1, 38, 84
3, 86275, Note_on_c, 1, 38, 0
3, 87355, Note_on_c, 1, 43, 84
3, 87475, Note_on_c, 1, 43, 0
3, 87475, Note_on_c, 1, 48, 84
3, 87595, Note_on_c, 1, 48, 0
3, 87595, Note_on_c, 1, 36, 84
3, 87715, Note_on_c, 1, 36, 0
3, 87835, Note_on_c, 1, 48, 78
3, 87955, Note_on_c, 1, 48, 0
3, 87955, Note_on_c, 1, 36, 78
3, 88075, Note_on_c, 1, 36, 0
3, 88195, Note_on_c, 1, 55, 78
3, 88195, Note_on_c, 1, 48, 78
3, 88315, Note_on_c, 1, 48, 0
3, 88315, Note_on_c, 1, 36, 78
3, 88435, Note_on_c, 1, 36, 0
3, 88435, Note_on_c, 1, 55, 0
3, 88435, Note_on_c, 1, 55, 78
3, 88435, Note_on_c, 1, 52, 78
3, 88555, Note_on_c, 1, 52, 0
3, 88555, Note_on_c, 1, 55, 0
3, 88555, Note_on_c, 1, 50, 78
3, 88675, Note_on_c, 1, 50, 0
3, 88675, Note_on_c, 1, 52, 78
3, 88795, Note_on_c, 1, 52, 0
3, 88795, Note_on_c, 1, 55, 78
3, 88795, Note_on_c, 1, 48, 78
3, 88915, Note_on_c, 1, 48, 0
3, 88915, Note_on_c, 1, 55, 0
3, 88915, Note_on_c, 1, 55, 78
3, 89035, Note_on_c, 1, 55, 0
3, 89035, Note_on_c, 1, 43, 78
3, 89155, Note_on_c, 1, 43, 0
3, 93715, Note_on_c, 1, 53, 47
3, 93715, Note_on_c, 1, 56, 47
3, 93835, Note_on_c, 1, 56, 0
3, 93835, Note_on_c, 1, 53, 0
3, 93835, Note_on_c, 1, 52, 51
3, 93835, Note_on_c, 1, 55, 51
3, 93955, Note_on_c, 1, 55, 0
3, 93955, Note_on_c, 1, 52, 0
3, 93955, Note_on_c, 1, 50, 55
3, 93955, Note_on_c, 1, 53, 55
3, 94075, Note_on_c, 1, 53, 0
3, 94075, Note_on_c, 1, 50, 0
3, 94075, Note_on_c, 1, 52, 56
3, 94075, Note_on_c, 1, 55, 56
3, 94195, Note_on_c, 1, 55, 0
3, 94195, Note_on_c, 1, 52, 0
3, 94195, Note_on_c, 1, 50, 59
3, 94195, Note_on_c, 1, 53, 59
3, 94315, Note_on_c, 1, 53, 0
3, 94315, Note_on_c, 1, 50, 0
3, 94315, Note_on_c, 1, 48, 61
3, 94315, Note_on_c, 1, 52, 61
3, 94435, Note_on_c, 1, 52, 0
3, 94435, Note_on_c, 1, 48, 0
3, 94435, Note_on_c, 1, 53, 63
3, 94435, Note_on_c, 1, 50, 63
3, 94555, Note_on_c, 1, 50, 0
3, 94555, Note_on_c, 1, 53, 0
3, 94555, Note_on_c, 1, 52, 64
3, 94555, Note_on_c, 1, 55, 64
3, 94675, Note_on_c, 1, 55, 0
3, 94675, Note_on_c, 1, 52, 0
3, 94675, Note_on_c, 1, 53, 65
3, 94795, Note_on_c, 1, 53, 0
3, 94795, Note_on_c, 1, 55, 65
3, 94915, Note_on_c, 1, 55, 0
3, 94915, Note_on_c, 1, 56, 65
3, 95035, Note_on_c, 1, 56, 0
3, 95035, Note_on_c, 1, 57, 64
3, 95155, Note_on_c, 1, 57, 0
3, 95155, Note_on_c, 1, 59, 63
3, 95275, Note_on_c, 1, 59, 0
3, 95275, Note_on_c, 1, 60, 61
3, 95395, Note_on_c, 1, 60, 0
3, 95395, Note_on_c, 1, 53, 60
3, 95515, Note_on_c, 1, 53, 0
3, 95515, Note_on_c, 1, 55, 55
3, 95635, Note_on_c, 1, 55, 0
3, 95635, Note_on_c, 1, 43, 52
3, 95755, Note_on_c, 1, 43, 0
3, 95755, Note_on_c, 1, 48, 47
3, 95760, Control_c, 1, 93, 11
3, 95760, Control_c, 1, 91, 21
3, 95875, Note_on_c, 1, 48, 0
3, 95875, Note_on_c, 1, 36, 42
3, 95995, Note_on_c, 1, 36, 0
3, 96000, Note_on_c, 1, 43, 68
3, 96120, Note_on_c, 1, 43, 0
3, 96120, Note_on_c, 1, 43, 68
3, 96240, Note_on_c, 1, 43, 0
3, 96240, Note_on_c, 1, 43, 68
3, 96360, Note_on_c, 1, 43, 0
3, 96360, Note_on_c, 1, 43, 70
3, 96480, Note_on_c, 1, 43, 0
3, 96480, Note_on_c, 1, 36, 71
3, 96600, Note_on_c, 1, 36, 0
3, 96720, Note_on_c, 1, 67, 55
3, 96720, Note_on_c, 1, 63, 55
3, 96840, Note_on_c, 1, 63, 0
3, 96840, Note_on_c, 1, 67, 0
3, 96840, Note_on_c, 1, 67, 55
3, 96840, Note_on_c, 1, 63, 55
3, 96960, Note_on_c, 1, 63, 0
3, 96960, Note_on_c, 1, 67, 0
3, 96960, Note_on_c, 1, 67, 55
3, 96960, Note_on_c, 1, 63, 55
3, 97080, Note_on_c, 1, 63, 0
3, 97080, Note_on_c, 1, 67, 0
3, 97080, Note_on_c, 1, 67, 53
3, 97080, Note_on_c, 1, 63, 53
3, 97200, Note_on_c, 1, 63, 0
3, 97200, Note_on_c, 1, 67, 0
3, 97200, Note_on_c, 1, 67, 53
3, 97200, Note_on_c, 1, 65, 53
3, 97320, Note_on_c, 1, 65, 0
3, 97320, Note_on_c, 1, 67, 0
3, 97320, Note_on_c, 1, 67, 53
3, 97320, Note_on_c, 1, 63, 53
3, 97440, Note_on_c, 1, 63, 0
3, 97440, Note_on_c, 1, 67, 0
3, 97440, Note_on_c, 1, 48, 100
3, 97560, Note_on_c, 1, 48, 0
3, 97560, Note_on_c, 1, 48, 100
3, 97680, Note_on_c, 1, 48, 0
3, 97680, Note_on_c, 1, 48, 100
3, 97800, Note_on_c, 1, 48, 0
3, 97800, Note_on_c, 1, 48, 100
3, 97920, Note_on_c, 1, 48, 0
3, 97920, Note_on_c, 1, 41, 100
3, 98040, Note_on_c, 1, 41, 0
3, 98160, Note_on_c, 1, 72, 75
3, 98160, Note_on_c, 1, 68, 75
3, 98280, Note_on_c, 1, 68, 0
3, 98280, Note_on_c, 1, 72, 0
3, 98280, Note_on_c, 1, 72, 75
3, 98280, Note_on_c, 1, 68, 75
3, 98400, Note_on_c, 1, 68, 0
3, 98400, Note_on_c, 1, 72, 0
3, 98400, Note_on_c, 1, 72, 75
3, 98400, Note_on_c, 1, 68, 75
3, 98520, Note_on_c, 1, 68, 0
3, 98520, Note_on_c, 1, 72, 0
3, 98520, Note_on_c, 1, 72, 75
3, 98520, Note_on_c, 1, 68, 75
3, 98640, Note_on_c, 1, 68, 0
3, 98640, Note_on_c, 1, 72, 0
3, 98640, Note_on_c, 1, 72, 75
3, 98640, Note_on_c, 1, 70, 75
3, 98760, Note_on_c, 1, 70, 0
3, 98760, Note_on_c, 1, 72, 0
3, 98760, Note_on_c, 1, 72, 73
3, 98760, Note_on_c, 1, 68, 73
3, 98880, Note_on_c, 1, 68, 0
3, 98880, Note_on_c, 1, 72, 0
3, 98880, Note_on_c, 1, 68, 72
3, 98880, Note_on_c, 1, 65, 72
3, 99000, Note_on_c, 1, 65, 0
3, 99000, Note_on_c, 1, 68, 0
3, 99000, Note_on_c, 1, 63, 71
3, 99000, Note_on_c, 1, 67, 71
3, 99120, Note_on_c, 1, 67, 0
3, 99120, Note_on_c, 1, 63, 0
3, 99120, Note_on_c, 1, 62, 70
3, 99120, Note_on_c, 1, 65, 70
3, 99240, Note_on_c, 1, 65, 0
3, 99240, Note_on_c, 1, 62, 0
3, 99360, Note_on_c, 1, 63, 100
3, 99360, Note_on_c, 1, 60, 100
3, 99480, Note_on_c, 1, 60, 0
3, 99480, Note_on_c, 1, 63, 0
3, 99480, Note_on_c, 1, 59, 100
3, 99480, Note_on_c, 1, 62, 100
3, 99600, Note_on_c, 1, 62, 0
3, 99600, Note_on_c, 1, 59, 0
3, 99720, Note_on_c, 1, 59, 100
3, 99840, Note_on_c, 1, 59, 0
3, 99840, Note_on_c, 1, 60, 100
3, 99960, Note_on_c, 1, 60, 0
3, 99960, Note_on_c, 1, 54, 100
3, 100080, Note_on_c, 1, 54, 0
3, 100080, Note_on_c, 1, 55, 100
3, 100200, Note_on_c, 1, 55, 0
3, 100200, Note_on_c, 1, 43, 100
3, 100320, Note_on_c, 1, 43, 0
3, 102360, Note_on_c, 1, 58, 76
3, 102480, Note_on_c, 1, 58, 0
3, 102480, Note_on_c, 1, 63, 78
3, 102600, Note_on_c, 1, 63, 0
3, 102600, Note_on_c, 1, 56, 79
3, 102720, Note_on_c, 1, 56, 0
3, 102720, Note_on_c, 1, 62, 81
3, 102840, Note_on_c, 1, 62, 0
3, 102840, Note_on_c, 1, 55, 82
3, 102960, Note_on_c, 1, 55, 0
3, 102960, Note_on_c, 1, 60, 82
3, 103080, Note_on_c, 1, 60, 0
3, 103080, Note_on_c, 1, 53, 82
3, 103200, Note_on_c, 1, 53, 0
3, 103200, Note_on_c, 1, 58, 82
3, 103320, Note_on_c, 1, 58, 0
3, 103320, Note_on_c, 1, 51, 83
3, 103440, Note_on_c, 1, 51, 0
3, 103440, Note_on_c, 1, 53, 83
3, 103560, Note_on_c, 1, 53, 0
3, 103560, Note_on_c, 1, 55, 83
3, 103680, Note_on_c, 1, 55, 0
3, 103680, Note_on_c, 1, 45, 83
3, 103800, Note_on_c, 1, 45, 0
3, 103800, Note_on_c, 1, 46, 81
3, 103920, Note_on_c, 1, 46, 0
3, 103920, Note_on_c, 1, 48, 78
3, 104040, Note_on_c, 1, 48, 0
3, 104040, Note_on_c, 1, 46, 114
3, 104040, Note_on_c, 1, 55, 104
3, 104280, Note_on_c, 1, 55, 0
3, 104280, Note_on_c, 1, 53, 99
3, 104400, Note_on_c, 1, 53, 0
3, 104400, Note_on_c, 1, 46, 0
3, 104400, Note_on_c, 1, 51, 104
3, 104400, Note_on_c, 1, 55, 104
3, 104460, Note_on_c, 1, 51, 0
3, 104460, Note_on_c, 1, 58, 106
3, 104520, Note_on_c, 1, 58, 0
3, 104520, Note_on_c, 1, 55, 0
3, 104520, Note_on_c, 1, 56, 108
3, 104580, Note_on_c, 1, 56, 0
3, 104580, Note_on_c, 1, 55, 110
3, 104640, Note_on_c, 1, 55, 0
3, 104640, Note_on_c, 1, 53, 111
3, 104700, Note_on_c, 1, 53, 0
3, 104700, Note_on_c, 1, 51, 113
3, 104760, Note_on_c, 1, 51, 0
3, 104760, Note_on_c, 1, 50, 115
3, 104820, Note_on_c, 1, 50, 0
3, 104820, Note_on_c, 1, 48, 116
3, 104880, Note_on_c, 1, 48, 0
3, 104880, Note_on_c, 1, 46, 118
3, 104940, Note_on_c, 1, 46, 0
3, 104940, Note_on_c, 1, 44, 119
3, 105000, Note_on_c, 1, 44, 0
3, 105000, Note_on_c, 1, 43, 119
3, 105060, Note_on_c, 1, 43, 0
3, 105060, Note_on_c, 1, 41, 120
3, 105120, Note_on_c, 1, 41, 0
3, 105120, Note_on_c, 1, 39, 122
3, 105180, Note_on_c, 1, 39, 0
3, 105180, Note_on_c, 1, 41, 124
3, 105240, Note_on_c, 1, 41, 0
3, 105240, Note_on_c, 1, 43, 124
3, 105300, Note_on_c, 1, 43, 0
3, 105300, Note_on_c, 1, 44, 125
3, 105360, Note_on_c, 1, 44, 0
3, 105360, Note_on_c, 1, 46, 126
3, 105420, Note_on_c, 1, 46, 0
3, 105420, Note_on_c, 1, 45, 126
3, 105480, Note_on_c, 1, 45, 0
3, 105480, Note_on_c, 1, 46, 126
3, 105540, Note_on_c, 1, 46, 0
3, 105540, Note_on_c, 1, 48, 126
3, 105600, Note_on_c, 1, 48, 0
3, 105600, Note_on_c, 1, 50, 126
3, 105660, Note_on_c, 1, 50, 0
3, 105660, Note_on_c, 1, 51, 126
3, 105720, Note_on_c, 1, 51, 0
3, 105720, Note_on_c, 1, 53, 126
3, 105780, Note_on_c, 1, 53, 0
3, 105780, Note_on_c, 1, 50, 126
3, 105840, Note_on_c, 1, 50, 0
3, 105840, Note_on_c, 1, 51, 126
3, 105900, Note_on_c, 1, 51, 0
3, 105900, Note_on_c, 1, 58, 126
3, 105960, Note_on_c, 1, 58, 0
3, 105960, Note_on_c, 1, 56, 126
3, 106020, Note_on_c, 1, 56, 0
3, 106020, Note_on_c, 1, 55, 126
3, 106080, Note_on_c, 1, 55, 0
3, 106080, Note_on_c, 1, 53, 126
3, 106140, Note_on_c, 1, 53, 0
3, 106140, Note_on_c, 1, 51, 125
3, 106200, Note_on_c, 1, 51, 0
3, 106200, Note_on_c, 1, 50, 125
3, 106260, Note_on_c, 1, 50, 0
3, 106260, Note_on_c, 1, 48, 124
3, 106320, Note_on_c, 1, 48, 0
3, 106320, Note_on_c, 1, 46, 127
3, 106380, Note_on_c, 1, 46, 0
3, 106380, Note_on_c, 1, 44, 127
3, 106440, Note_on_c, 1, 44, 0
3, 106440, Note_on_c, 1, 43, 125
3, 106500, Note_on_c, 1, 43, 0
3, 106500, Note_on_c, 1, 41, 123
3, 106560, Note_on_c, 1, 41, 0
3, 106560, Note_on_c, 1, 39, 121
3, 106620, Note_on_c, 1, 39, 0
3, 106620, Note_on_c, 1, 41, 118
3, 106680, Note_on_c, 1, 41, 0
3, 106680, Note_on_c, 1, 43, 115
3, 106740, Note_on_c, 1, 43, 0
3, 106740, Note_on_c, 1, 44, 112
3, 106800, Note_on_c, 1, 44, 0
3, 106800, Note_on_c, 1, 46, 109
3, 106860, Note_on_c, 1, 46, 0
3, 106860, Note_on_c, 1, 45, 105
3, 106920, Note_on_c, 1, 45, 0
3, 106920, Note_on_c, 1, 46, 102
3, 106980, Note_on_c, 1, 46, 0
3, 106980, Note_on_c, 1, 48, 100
3, 107040, Note_on_c, 1, 48, 0
3, 107040, Note_on_c, 1, 50, 97
3, 107100, Note_on_c, 1, 50, 0
3, 107100, Note_on_c, 1, 51, 95
3, 107160, Note_on_c, 1, 51, 0
3, 107160, Note_on_c, 1, 53, 94
3, 107220, Note_on_c, 1, 53, 0
3, 107220, Note_on_c, 1, 50, 91
3, 107280, Note_on_c, 1, 50, 0
3, 107280, Note_on_c, 1, 51, 88
3, 107400, Note_on_c, 1, 51, 0
3, 107520, Note_on_c, 1, 43, 68
3, 107640, Note_on_c, 1, 43, 0
3, 107640, Note_on_c, 1, 43, 68
3, 107760, Note_on_c, 1, 43, 0
3, 107760, Note_on_c, 1, 43, 68
3, 107880, Note_on_c, 1, 43, 0
3, 107880, Note_on_c, 1, 43, 70
3, 108000, Note_on_c, 1, 43, 0
3, 108000, Note_on_c, 1, 36, 71
3, 108120, Note_on_c, 1, 36, 0
3, 108240, Note_on_c, 1, 67, 55
3, 108240, Note_on_c, 1, 63, 55
3, 108360, Note_on_c, 1, 63, 0
3, 108360, Note_on_c, 1, 67, 0
3, 108360, Note_on_c, 1, 67, 55
3, 108360, Note_on_c, 1, 63, 55
3, 108480, Note_on_c, 1, 63, 0
3, 108480, Note_on_c, 1, 67, 0
3, 108480, Note_on_c, 1, 67, 55
3, 108480, Note_on_c, 1, 63, 55
3, 108600, Note_on_c, 1, 63, 0
3, 108600, Note_on_c, 1, 67, 0
3, 108600, Note_on_c, 1, 67, 53
3, 108600, Note_on_c, 1, 63, 53
3, 108720, Note_on_c, 1, 63, 0
3, 108720, Note_on_c, 1, 67, 0
3, 108720, Note_on_c, 1, 67, 53
3, 108720, Note_on_c, 1, 65, 53
3, 108840, Note_on_c, 1, 65, 0
3, 108840, Note_on_c, 1, 67, 0
3, 108840, Note_on_c, 1, 67, 53
3, 108840, Note_on_c, 1, 63, 53
3, 108960, Note_on_c, 1, 63, 0
3, 108960, Note_on_c, 1, 67, 0
3, 108960, Note_on_c, 1, 48, 100
3, 109080, Note_on_c, 1, 48, 0
3, 109080, Note_on_c, 1, 48, 100
3, 109200, Note_on_c, 1, 48, 0
3, 109200, Note_on_c, 1, 48, 100
3, 109320, Note_on_c, 1, 48, 0
3, 109320, Note_on_c, 1, 48, 100
3, 109440, Note_on_c, 1, 48, 0
3, 109440, Note_on_c, 1, 41, 100
3, 109560, Note_on_c, 1, 41, 0
3, 109680, Note_on_c, 1, 72, 75
3, 109680, Note_on_c, 1, 68, 75
3, 109800, Note_on_c, 1, 68, 0
3, 109800, Note_on_c, 1, 72, 0
3, 109800, Note_on_c, 1, 72, 75
3, 109800, Note_on_c, 1, 68, 75
3, 109920, Note_on_c, 1, 68, 0
3, 109920, Note_on_c, 1, 72, 0
3, 109920, Note_on_c, 1, 72, 75
3, 109920, Note_on_c, 1, 68, 75
3, 110040, Note_on_c, 1, 68, 0
3, 110040, Note_on_c, 1, 72, 0
3, 110040, Note_on_c, 1, 72, 75
3, 110040, Note_on_c, 1, 68, 75
3, 110160, Note_on_c, 1, 68, 0
3, 110160, Note_on_c, 1, 72, 0
3, 110160, Note_on_c, 1, 72, 75
3, 110160, Note_on_c, 1, 70, 75
3, 110280, Note_on_c, 1, 70, 0
3, 110280, Note_on_c, 1, 72, 0
3, 110280, Note_on_c, 1, 72, 73
3, 110280, Note_on_c, 1, 68, 73
3, 110400, Note_on_c, 1, 68, 0
3, 110400, Note_on_c, 1, 72, 0
3, 110400, Note_on_c, 1, 68, 72
3, 110400, Note_on_c, 1, 65, 72
3, 110520, Note_on_c, 1, 65, 0
3, 110520, Note_on_c, 1, 68, 0
3, 110520, Note_on_c, 1, 63, 71
3, 110520, Note_on_c, 1, 67, 71
3, 110640, Note_on_c, 1, 67, 0
3, 110640, Note_on_c, 1, 63, 0
3, 110640, Note_on_c, 1, 62, 70
3, 110640, Note_on_c, 1, 65, 70
3, 110760, Note_on_c, 1, 65, 0
3, 110760, Note_on_c, 1, 62, 0
3, 110880, Note_on_c, 1, 63, 100
3, 110880, Note_on_c, 1, 60, 100
3, 111000, Note_on_c, 1, 60, 0
3, 111000, Note_on_c, 1, 63, 0
3, 111000, Note_on_c, 1, 59, 100
3, 111000, Note_on_c, 1, 62, 100
3, 111120, Note_on_c, 1, 62, 0
3, 111120, Note_on_c, 1, 59, 0
3, 111240, Note_on_c, 1, 59, 100
3, 111360, Note_on_c, 1, 59, 0
3, 111360, Note_on_c, 1, 60, 100
3, 111480, Note_on_c, 1, 60, 0
3, 111480, Note_on_c, 1, 54, 100
3, 111600, Note_on_c, 1, 54, 0
3, 111600, Note_on_c, 1, 55, 100
3, 111720, Note_on_c, 1, 55, 0
3, 111720, Note_on_c, 1, 43, 100
3, 111840, Note_on_c, 1, 43, 0
3, 113880, Note_on_c, 1, 58, 76
3, 114000, Note_on_c, 1, 58, 0
3, 114000, Note_on_c, 1, 63, 78
3, 114120, Note_on_c, 1, 63, 0
3, 114120, Note_on_c, 1, 56, 79
3, 114240, Note_on_c, 1, 56, 0
3, 114240, Note_on_c, 1, 62, 81
3, 114360, Note_on_c, 1, 62, 0
3, 114360, Note_on_c, 1, 55, 82
3, 114480, Note_on_c, 1, 55, 0
3, 114480, Note_on_c, 1, 60, 82
3, 114600, Note_on_c, 1, 60, 0
3, 114600, Note_on_c, 1, 53, 82
3, 114720, Note_on_c, 1, 53, 0
3, 114720, Note_on_c, 1, 58, 82
3, 114840, Note_on_c, 1, 58, 0
3, 114840, Note_on_c, 1, 51, 83
3, 114960, Note_on_c, 1, 51, 0
3, 114960, Note_on_c, 1, 53, 83
3, 115080, Note_on_c, 1, 53, 0
3, 115080, Note_on_c, 1, 55, 83
3, 115200, Note_on_c, 1, 55, 0
3, 115200, Note_on_c, 1, 45, 83
3, 115320, Note_on_c, 1, 45, 0
3, 115320, Note_on_c, 1, 46, 81
3, 115440, Note_on_c, 1, 46, 0
3, 115440, Note_on_c, 1, 48, 78
3, 115560, Note_on_c, 1, 48, 0
3, 115560, Note_on_c, 1, 46, 127
3, 115560, Note_on_c, 1, 55, 127
3, 115800, Note_on_c, 1, 55, 0
3, 115800, Note_on_c, 1, 53, 99
3, 115920, Note_on_c, 1, 53, 0
3, 115920, Note_on_c, 1, 46, 0
3, 115920, Note_on_c, 1, 51, 104
3, 115920, Note_on_c, 1, 55, 104
3, 115980, Note_on_c, 1, 51, 0
3, 115980, Note_on_c, 1, 58, 106
3, 116040, Note_on_c, 1, 58, 0
3, 116040, Note_on_c, 1, 55, 0
3, 116040, Note_on_c, 1, 56, 108
3, 116100, Note_on_c, 1, 56, 0
3, 116100, Note_on_c, 1, 55, 110
3, 116160, Note_on_c, 1, 55, 0
3, 116160, Note_on_c, 1, 53, 111
3, 116220, Note_on_c, 1, 53, 0
3, 116220, Note_on_c, 1, 51, 113
3, 116280, Note_on_c, 1, 51, 0
3, 116280, Note_on_c, 1, 50, 115
3, 116340, Note_on_c, 1, 50, 0
3, 116340, Note_on_c, 1, 48, 116
3, 116400, Note_on_c, 1, 48, 0
3, 116400, Note_on_c, 1, 46, 118
3, 116460, Note_on_c, 1, 46, 0
3, 116460, Note_on_c, 1, 44, 119
3, 116520, Note_on_c, 1, 44, 0
3, 116520, Note_on_c, 1, 43, 119
3, 116580, Note_on_c, 1, 43, 0
3, 116580, Note_on_c, 1, 41, 120
3, 116640, Note_on_c, 1, 41, 0
3, 116640, Note_on_c, 1, 39, 122
3, 116700, Note_on_c, 1, 39, 0
3, 116700, Note_on_c, 1, 41, 124
3, 116760, Note_on_c, 1, 41, 0
3, 116760, Note_on_c, 1, 43, 124
3, 116820, Note_on_c, 1, 43, 0
3, 116820, Note_on_c, 1, 44, 125
3, 116880, Note_on_c, 1, 44, 0
3, 116880, Note_on_c, 1, 46, 126
3, 116940, Note_on_c, 1, 46, 0
3, 116940, Note_on_c, 1, 45, 126
3, 117000, Note_on_c, 1, 45, 0
3, 117000, Note_on_c, 1, 46, 126
3, 117060, Note_on_c, 1, 46, 0
3, 117060, Note_on_c, 1, 48, 126
3, 117120, Note_on_c, 1, 48, 0
3, 117120, Note_on_c, 1, 50, 126
3, 117180, Note_on_c, 1, 50, 0
3, 117180, Note_on_c, 1, 51, 126
3, 117240, Note_on_c, 1, 51, 0
3, 117240, Note_on_c, 1, 53, 126
3, 117300, Note_on_c, 1, 53, 0
3, 117300, Note_on_c, 1, 50, 126
3, 117360, Note_on_c, 1, 50, 0
3, 117360, Note_on_c, 1, 51, 126
3, 117420, Note_on_c, 1, 51, 0
3, 117420, Note_on_c, 1, 58, 126
3, 117480, Note_on_c, 1, 58, 0
3, 117480, Note_on_c, 1, 56, 126
3, 117540, Note_on_c, 1, 56, 0
3, 117540, Note_on_c, 1, 55, 126
3, 117600, Note_on_c, 1, 55, 0
3, 117600, Note_on_c, 1, 53, 126
3, 117660, Note_on_c, 1, 53, 0
3, 117660, Note_on_c, 1, 51, 125
3, 117720, Note_on_c, 1, 51, 0
3, 117720, Note_on_c, 1, 50, 125
3, 117780, Note_on_c, 1, 50, 0
3, 117780, Note_on_c, 1, 48, 124
3, 117840, Note_on_c, 1, 48, 0
3, 117840, Note_on_c, 1, 46, 127
3, 117900, Note_on_c, 1, 46, 0
3, 117900, Note_on_c, 1, 44, 127
3, 117960, Note_on_c, 1, 44, 0
3, 117960, Note_on_c, 1, 43, 125
3, 118020, Note_on_c, 1, 43, 0
3, 118020, Note_on_c, 1, 41, 123
3, 118080, Note_on_c, 1, 41, 0
3, 118080, Note_on_c, 1, 39, 121
3, 118140, Note_on_c, 1, 39, 0
3, 118140, Note_on_c, 1, 41, 118
3, 118200, Note_on_c, 1, 41, 0
3, 118200, Note_on_c, 1, 43, 115
3, 118260, Note_on_c, 1, 43, 0
3, 118260, Note_on_c, 1, 44, 112
3, 118320, Note_on_c, 1, 44, 0
3, 118320, Note_on_c, 1, 46, 109
3, 118380, Note_on_c, 1, 46, 0
3, 118380, Note_on_c, 1, 45, 105
3, 118440, Note_on_c, 1, 45, 0
3, 118440, Note_on_c, 1, 46, 102
3, 118500, Note_on_c, 1, 46, 0
3, 118500, Note_on_c, 1, 48, 100
3, 118560, Note_on_c, 1, 48, 0
3, 118560, Note_on_c, 1, 50, 97
3, 118620, Note_on_c, 1, 50, 0
3, 118620, Note_on_c, 1, 51, 95
3, 118680, Note_on_c, 1, 51, 0
3, 118680, Note_on_c, 1, 53, 94
3, 118740, Note_on_c, 1, 53, 0
3, 118740, Note_on_c, 1, 50, 91
3, 118800, Note_on_c, 1, 50, 0
3, 118800, Note_on_c, 1, 51, 88
3, 118920, Note_on_c, 1, 51, 0
3, 121680, Note_on_c, 1, 60, 61
3, 121800, Note_on_c, 1, 60, 0
3, 121800, Note_on_c, 1, 62, 64
3, 121920, Note_on_c, 1, 62, 0
3, 121920, Note_on_c, 1, 50, 65
3, 122040, Note_on_c, 1, 50, 0
3, 122040, Note_on_c, 1, 62, 68
3, 122040, Note_on_c, 1, 58, 68
3, 122160, Note_on_c, 1, 58, 0
3, 122160, Note_on_c, 1, 62, 0
3, 122160, Note_on_c, 1, 60, 70
3, 122160, Note_on_c, 1, 57, 70
3, 122280, Note_on_c, 1, 57, 0
3, 122280, Note_on_c, 1, 60, 0
3, 122280, Note_on_c, 1, 55, 70
3, 122280, Note_on_c, 1, 58, 70
3, 122400, Note_on_c, 1, 58, 0
3, 122400, Note_on_c, 1, 55, 0
3, 122400, Note_on_c, 1, 54, 68
3, 122400, Note_on_c, 1, 57, 68
3, 122520, Note_on_c, 1, 57, 0
3, 122520, Note_on_c, 1, 54, 0
3, 122520, Note_on_c, 1, 52, 67
3, 122520, Note_on_c, 1, 55, 67
3, 122640, Note_on_c, 1, 55, 0
3, 122640, Note_on_c, 1, 52, 0
3, 122640, Note_on_c, 1, 54, 66
3, 122640, Note_on_c, 1, 50, 66
3, 122760, Note_on_c, 1, 50, 0
3, 122760, Note_on_c, 1, 54, 0
3, 122760, Note_on_c, 1, 50, 64
3, 122760, Note_on_c, 1, 46, 64
3, 122880, Note_on_c, 1, 46, 0
3, 122880, Note_on_c, 1, 50, 0
3, 122880, Note_on_c, 1, 48, 64
3, 122880, Note_on_c, 1, 45, 64
3, 123000, Note_on_c, 1, 45, 0
3, 123000, Note_on_c, 1, 48, 0
3, 123000, Note_on_c, 1, 43, 64
3, 123000, Note_on_c, 1, 46, 64
3, 123120, Note_on_c, 1, 46, 0
3, 123120, Note_on_c, 1, 43, 0
3, 123120, Note_on_c, 1, 42, 64
3, 123120, Note_on_c, 1, 45, 64
3, 123240, Note_on_c, 1, 45, 0
3, 123240, Note_on_c, 1, 42, 0
3, 123240, Note_on_c, 1, 40, 64
3, 123240, Note_on_c, 1, 43, 64
3, 123360, Note_on_c, 1, 43, 0
3, 123360, Note_on_c, 1, 40, 0
3, 123360, Note_on_c, 1, 38, 64
3, 123360, Note_on_c, 1, 42, 64
3, 123480, Note_on_c, 1, 42, 0
3, 123480, Note_on_c, 1, 38, 0
3, 123480, Note_on_c, 1, 46, 63
3, 123480, Note_on_c, 1, 43, 63
3, 123600, Note_on_c, 1, 43, 0
3, 123600, Note_on_c, 1, 46, 0
3, 123600, Note_on_c, 1, 48, 62
3, 123600, Note_on_c, 1, 45, 62
3, 123720, Note_on_c, 1, 45, 0
3, 123720, Note_on_c, 1, 48, 0
3, 123720, Note_on_c, 1, 50, 61
3, 123720, Note_on_c, 1, 46, 61
3, 123840, Note_on_c, 1, 46, 0
3, 123840, Note_on_c, 1, 50, 0
3, 123840, Note_on_c, 1, 48, 61
3, 123960, Note_on_c, 1, 48, 0
3, 123960, Note_on_c, 1, 50, 61
3, 124080, Note_on_c, 1, 50, 0
3, 124080, Note_on_c, 1, 38, 63
3, 124200, Note_on_c, 1, 38, 0
3, 124200, Note_on_c, 1, 62, 65
3, 124200, Note_on_c, 1, 58, 65
3, 124320, Note_on_c, 1, 58, 0
3, 124320, Note_on_c, 1, 62, 0
3, 124320, Note_on_c, 1, 60, 66
3, 124320, Note_on_c, 1, 57, 66
3, 124440, Note_on_c, 1, 57, 0
3, 124440, Note_on_c, 1, 60, 0
3, 124440, Note_on_c, 1, 58, 68
3, 124440, Note_on_c, 1, 55, 68
3, 124560, Note_on_c, 1, 55, 0
3, 124560, Note_on_c, 1, 58, 0
3, 124560, Note_on_c, 1, 54, 68
3, 124560, Note_on_c, 1, 57, 68
3, 124680, Note_on_c, 1, 57, 0
3, 124680, Note_on_c, 1, 54, 0
3, 124680, Note_on_c, 1, 52, 69
3, 124680, Note_on_c, 1, 55, 69
3, 124800, Note_on_c, 1, 55, 0
3, 124800, Note_on_c, 1, 52, 0
3, 124800, Note_on_c, 1, 54, 70
3, 124800, Note_on_c, 1, 50, 70
3, 124920, Note_on_c, 1, 50, 0
3, 124920, Note_on_c, 1, 54, 0
3, 124920, Note_on_c, 1, 50, 71
3, 124920, Note_on_c, 1, 46, 71
3, 125040, Note_on_c, 1, 46, 0
3, 125040, Note_on_c, 1, 50, 0
3, 125040, Note_on_c, 1, 48, 72
3, 125040, Note_on_c, 1, 45, 72
3, 125160, Note_on_c, 1, 45, 0
3, 125160, Note_on_c, 1, 48, 0
3, 125160, Note_on_c, 1, 43, 72
3, 125160, Note_on_c, 1, 46, 72
3, 125280, Note_on_c, 1, 46, 0
3, 125280, Note_on_c, 1, 43, 0
3, 125280, Note_on_c, 1, 42, 74
3, 125280, Note_on_c, 1, 45, 74
3, 125400, Note_on_c, 1, 45, 0
3, 125400, Note_on_c, 1, 42, 0
3, 125400, Note_on_c, 1, 40, 74
3, 125400, Note_on_c, 1, 43, 74
3, 125520, Note_on_c, 1, 43, 0
3, 125520, Note_on_c, 1, 40, 0
3, 125520, Note_on_c, 1, 38, 74
3, 125520, Note_on_c, 1, 42, 74
3, 125640, Note_on_c, 1, 42, 0
3, 125640, Note_on_c, 1, 38, 0
3, 125640, Note_on_c, 1, 58, 74
3, 125640, Note_on_c, 1, 55, 74
3, 125760, Note_on_c, 1, 55, 0
3, 125760, Note_on_c, 1, 58, 0
3, 125760, Note_on_c, 1, 53, 74
3, 125760, Note_on_c, 1, 56, 74
3, 125880, Note_on_c, 1, 56, 0
3, 125880, Note_on_c, 1, 53, 0
3, 125880, Note_on_c, 1, 51, 74
3, 125880, Note_on_c, 1, 55, 74
3, 126000, Note_on_c, 1, 55, 0
3, 126000, Note_on_c, 1, 51, 0
3, 126000, Note_on_c, 1, 50, 74
3, 126000, Note_on_c, 1, 53, 74
3, 126120, Note_on_c, 1, 53, 0
3, 126120, Note_on_c, 1, 50, 0
3, 126120, Note_on_c, 1, 48, 74
3, 126120, Note_on_c, 1, 51, 74
3, 126240, Note_on_c, 1, 51, 0
3, 126240, Note_on_c, 1, 48, 0
3, 126240, Note_on_c, 1, 46, 74
3, 126240, Note_on_c, 1, 50, 74
3, 126360, Note_on_c, 1, 50, 0
3, 126360, Note_on_c, 1, 46, 0
3, 126360, Note_on_c, 1, 51, 74
3, 126360, Note_on_c, 1, 55, 74
3, 126480, Note_on_c, 1, 55, 0
3, 126480, Note_on_c, 1, 51, 0
3, 126480, Note_on_c, 1, 50, 73
3, 126480, Note_on_c, 1, 53, 73
3, 126600, Note_on_c, 1, 53, 0
3, 126600, Note_on_c, 1, 50, 0
3, 126600, Note_on_c, 1, 48, 71
3, 126600, Note_on_c, 1, 51, 71
3, 126720, Note_on_c, 1, 51, 0
3, 126720, Note_on_c, 1, 48, 0
3, 126720, Note_on_c, 1, 47, 69
3, 126720, Note_on_c, 1, 50, 69
3, 126840, Note_on_c, 1, 50, 0
3, 126840, Note_on_c, 1, 47, 0
3, 126840, Note_on_c, 1, 45, 70
3, 126840, Note_on_c, 1, 48, 70
3, 126960, Note_on_c, 1, 48, 0
3, 126960, Note_on_c, 1, 45, 0
3, 126960, Note_on_c, 1, 43, 70
3, 126960, Note_on_c, 1, 47, 70
3, 127080, Note_on_c, 1, 47, 0
3, 127080, Note_on_c, 1, 43, 0
3, 127080, Note_on_c, 1, 44, 69
3, 127080, Note_on_c, 1, 48, 69
3, 127200, Note_on_c, 1, 48, 0
3, 127200, Note_on_c, 1, 44, 0
3, 127440, Note_on_c, 1, 48, 89
3, 127440, Note_on_c, 1, 44, 89
3, 127440, Note_on_c, 1, 54, 89
3, 127560, Note_on_c, 1, 54, 0
3, 127560, Note_on_c, 1, 44, 0
3, 127560, Note_on_c, 1, 48, 0
3, 127800, Note_on_c, 1, 43, 72
3, 127800, Note_on_c, 1, 55, 72
3, 127920, Note_on_c, 1, 55, 0
3, 127920, Note_on_c, 1, 43, 0
3, 128040, Note_on_c, 1, 55, 72
3, 128160, Note_on_c, 1, 55, 0
3, 128160, Note_on_c, 1, 60, 67
3, 128160, Note_on_c, 1, 55, 89
3, 128220, Note_on_c, 1, 60, 0
3, 128220, Note_on_c, 1, 57, 67
3, 128280, Note_on_c, 1, 57, 0
3, 128280, Note_on_c, 1, 55, 0
3, 128280, Note_on_c, 1, 60, 67
3, 128280, Note_on_c, 1, 55, 89
3, 128340, Note_on_c, 1, 60, 0
3, 128340, Note_on_c, 1, 57, 67
3, 128400, Note_on_c, 1, 57, 0
3, 128400, Note_on_c, 1, 55, 0
3, 128400, Note_on_c, 1, 60, 67
3, 128400, Note_on_c, 1, 55, 89
3, 128460, Note_on_c, 1, 60, 0
3, 128460, Note_on_c, 1, 57, 67
3, 128520, Note_on_c, 1, 57, 0
3, 128520, Note_on_c, 1, 55, 0
3, 128520, Note_on_c, 1, 59, 82
3, 128520, Note_on_c, 1, 55, 109
3, 128580, Note_on_c, 1, 59, 0
3, 128640, Note_on_c, 1, 55, 0
3, 129480, Note_on_c, 1, 55, 67
3, 129600, Note_on_c, 1, 55, 0
3, 129600, Note_on_c, 1, 60, 67
3, 129600, Note_on_c, 1, 55, 89
3, 129660, Note_on_c, 1, 60, 0
3, 129660, Note_on_c, 1, 57, 67
3, 129720, Note_on_c, 1, 57, 0
3, 129720, Note_on_c, 1, 55, 0
3, 129720, Note_on_c, 1, 60, 67
3, 129720, Note_on_c, 1, 55, 89
3, 129780, Note_on_c, 1, 60, 0
3, 129780, Note_on_c, 1, 57, 67
3, 129840, Note_on_c, 1, 57, 0
3, 129840, Note_on_c, 1, 55, 0
3, 129840, Note_on_c, 1, 60, 67
3, 129840, Note_on_c, 1, 55, 89
3, 129900, Note_on_c, 1, 60, 0
3, 129900, Note_on_c, 1, 57, 67
3, 129960, Note_on_c, 1, 57, 0
3, 129960, Note_on_c, 1, 55, 0
3, 129960, Note_on_c, 1, 59, 107
3, 129960, Note_on_c, 1, 55, 89
3, 130020, Note_on_c, 1, 59, 0
3, 130080, Note_on_c, 1, 55, 0
3, 130920, Note_on_c, 1, 43, 89
3, 131040, Note_on_c, 1, 43, 0
3, 131040, Note_on_c, 1, 43, 89
3, 131160, Note_on_c, 1, 43, 0
3, 131160, Note_on_c, 1, 43, 89
3, 131280, Note_on_c, 1, 43, 0
3, 131280, Note_on_c, 1, 43, 89
3, 131400, Note_on_c, 1, 43, 0
3, 131400, Note_on_c, 1, 36, 89
3, 131520, Note_on_c, 1, 36, 0
3, 132360, Note_on_c, 1, 36, 108
3, 132360, Note_on_c, 1, 48, 108
3, 132480, Note_on_c, 1, 48, 0
3, 132480, Note_on_c, 1, 36, 0
3, 132480, Note_on_c, 1, 48, 108
3, 132480, Note_on_c, 1, 36, 108
3, 132600, Note_on_c, 1, 36, 0
3, 132600, Note_on_c, 1, 48, 0
3, 132600, Note_on_c, 1, 48, 107
3, 132600, Note_on_c, 1, 36, 107
3, 132720, Note_on_c, 1, 36, 0
3, 132720, Note_on_c, 1, 48, 0
3, 132720, Note_on_c, 1, 48, 107
3, 132720, Note_on_c, 1, 36, 107
3, 132840, Note_on_c, 1, 36, 0
3, 132840, Note_on_c, 1, 48, 0
3, 132840, Note_on_c, 1, 29, 122
3, 132840, Note_on_c, 1, 41, 122
3, 132960, Note_on_c, 1, 41, 0
3, 132960, Note_on_c, 1, 29, 0
3, 134160, Note_on_c, 1, 44, 89
3, 134160, Note_on_c, 1, 56, 89
3, 134280, Note_on_c, 1, 56, 0
3, 134280, Note_on_c, 1, 44, 0
3, 134280, Note_on_c, 1, 44, 89
3, 134280, Note_on_c, 1, 56, 89
3, 134400, Note_on_c, 1, 56, 0
3, 134400, Note_on_c, 1, 44, 0
3, 134400, Note_on_c, 1, 44, 89
3, 134400, Note_on_c, 1, 56, 89
3, 134520, Note_on_c, 1, 56, 0
3, 134520, Note_on_c, 1, 44, 0
3, 134520, Note_on_c, 1, 44, 89
3, 134520, Note_on_c, 1, 56, 89
3, 134640, Note_on_c, 1, 56, 0
3, 134640, Note_on_c, 1, 44, 0
3, 134640, Note_on_c, 1, 38, 89
3, 134640, Note_on_c, 1, 50, 89
3, 134760, Note_on_c, 1, 50, 0
3, 134760, Note_on_c, 1, 38, 0
3, 134880, Note_on_c, 1, 68, 89
3, 134880, Note_on_c, 1, 56, 89
3, 135000, Note_on_c, 1, 56, 0
3, 135000, Note_on_c, 1, 68, 0
3, 135000, Note_on_c, 1, 56, 89
3, 135000, Note_on_c, 1, 68, 89
3, 135120, Note_on_c, 1, 68, 0
3, 135120, Note_on_c, 1, 56, 0
3, 135120, Note_on_c, 1, 67, 89
3, 135120, Note_on_c, 1, 55, 89
3, 135240, Note_on_c, 1, 55, 0
3, 135240, Note_on_c, 1, 67, 0
3, 135240, Note_on_c, 1, 65, 89
3, 135240, Note_on_c, 1, 53, 89
3, 135360, Note_on_c, 1, 53, 0
3, 135360, Note_on_c, 1, 65, 0
3, 135360, Note_on_c, 1, 51, 89
3, 135360, Note_on_c, 1, 63, 89
3, 135480, Note_on_c, 1, 63, 0
3, 135480, Note_on_c, 1, 51, 0
3, 135480, Note_on_c, 1, 62, 89
3, 135480, Note_on_c, 1, 50, 89
3, 135600, Note_on_c, 1, 50, 0
3, 135600, Note_on_c, 1, 62, 0
3, 135600, Note_on_c, 1, 63, 89
3, 135600, Note_on_c, 1, 51, 89
3, 135720, Note_on_c, 1, 51, 0
3, 135720, Note_on_c, 1, 63, 0
3, 135720, Note_on_c, 1, 53, 89
3, 135720, Note_on_c, 1, 65, 89
3, 135840, Note_on_c, 1, 65, 0
3, 135840, Note_on_c, 1, 53, 0
3, 135840, Note_on_c, 1, 67, 89
3, 135840, Note_on_c, 1, 55, 89
3, 135960, Note_on_c, 1, 55, 0
3, 135960, Note_on_c, 1, 67, 0
3, 135960, Note_on_c, 1, 43, 89
3, 135960, Note_on_c, 1, 55, 89
3, 136080, Note_on_c, 1, 55, 0
3, 136080, Note_on_c, 1, 43, 0
3, 136080, Note_on_c, 1, 48, 89
3, 136140, Note_on_c, 1, 48, 0
3, 136140, Note_on_c, 1, 55, 89
3, 136200, Note_on_c, 1, 55, 0
3, 136200, Note_on_c, 1, 53, 89
3, 136260, Note_on_c, 1, 53, 0
3, 136260, Note_on_c, 1, 51, 89
3, 136320, Note_on_c, 1, 51, 0
3, 136320, Note_on_c, 1, 50, 89
3, 136380, Note_on_c, 1, 50, 0
3, 136380, Note_on_c, 1, 48, 89
3, 136440, Note_on_c, 1, 48, 0
3, 136440, Note_on_c, 1, 47, 89
3, 136500, Note_on_c, 1, 47, 0
3, 136500, Note_on_c, 1, 44, 89
3, 136560, Note_on_c, 1, 44, 0
3, 136560, Note_on_c, 1, 43, 89
3, 136620, Note_on_c, 1, 43, 0
3, 136620, Note_on_c, 1, 41, 89
3, 136680, Note_on_c, 1, 41, 0
3, 136680, Note_on_c, 1, 39, 89
3, 136740, Note_on_c, 1, 39, 0
3, 136740, Note_on_c, 1, 38, 89
3, 136800, Note_on_c, 1, 38, 0
3, 136800, Note_on_c, 1, 36, 89
3, 136860, Note_on_c, 1, 36, 0
3, 136860, Note_on_c, 1, 38, 89
3, 136920, Note_on_c, 1, 38, 0
3, 136920, Note_on_c, 1, 39, 89
3, 136980, Note_on_c, 1, 39, 0
3, 136980, Note_on_c, 1, 41, 89
3, 137040, Note_on_c, 1, 41, 0
3, 137040, Note_on_c, 1, 43, 89
3, 137100, Note_on_c, 1, 43, 0
3, 137100, Note_on_c, 1, 42, 89
3, 137160, Note_on_c, 1, 42, 0
3, 137160, Note_on_c, 1, 43, 89
3, 137220, Note_on_c, 1, 43, 0
3, 137220, Note_on_c, 1, 45, 89
3, 137280, Note_on_c, 1, 45, 0
3, 137280, Note_on_c, 1, 47, 89
3, 137340, Note_on_c, 1, 47, 0
3, 137340, Note_on_c, 1, 48, 89
3, 137400, Note_on_c, 1, 48, 0
3, 137400, Note_on_c, 1, 50, 89
3, 137460, Note_on_c, 1, 50, 0
3, 137460, Note_on_c, 1, 47, 89
3, 137520, Note_on_c, 1, 47, 0
3, 137520, Note_on_c, 1, 48, 89
3, 137580, Note_on_c, 1, 48, 0
3, 137580, Note_on_c, 1, 53, 89
3, 137640, Note_on_c, 1, 53, 0
3, 137640, Note_on_c, 1, 53, 89
3, 137700, Note_on_c, 1, 53, 0
3, 137700, Note_on_c, 1, 51, 89
3, 137760, Note_on_c, 1, 51, 0
3, 137760, Note_on_c, 1, 50, 89
3, 137820, Note_on_c, 1, 50, 0
3, 137820, Note_on_c, 1, 48, 89
3, 137880, Note_on_c, 1, 48, 0
3, 137880, Note_on_c, 1, 47, 89
3, 137940, Note_on_c, 1, 47, 0
3, 137940, Note_on_c, 1, 44, 89
3, 138000, Note_on_c, 1, 44, 0
3, 138000, Note_on_c, 1, 43, 89
3, 138060, Note_on_c, 1, 43, 0
3, 138060, Note_on_c, 1, 41, 89
3, 138120, Note_on_c, 1, 41, 0
3, 138120, Note_on_c, 1, 39, 89
3, 138180, Note_on_c, 1, 39, 0
3, 138180, Note_on_c, 1, 38, 89
3, 138240, Note_on_c, 1, 38, 0
3, 138240, Note_on_c, 1, 36, 89
3, 138300, Note_on_c, 1, 36, 0
3, 138300, Note_on_c, 1, 38, 89
3, 138360, Note_on_c, 1, 38, 0
3, 138360, Note_on_c, 1, 39, 89
3, 138420, Note_on_c, 1, 39, 0
3, 138420, Note_on_c, 1, 41, 89
3, 138480, Note_on_c, 1, 41, 0
3, 138480, Note_on_c, 1, 43, 89
3, 138540, Note_on_c, 1, 43, 0
3, 138540, Note_on_c, 1, 42, 89
3, 138600, Note_on_c, 1, 42, 0
3, 138600, Note_on_c, 1, 43, 89
3, 138660, Note_on_c, 1, 43, 0
3, 138660, Note_on_c, 1, 45, 89
3, 138720, Note_on_c, 1, 45, 0
3, 138720, Note_on_c, 1, 47, 89
3, 138780, Note_on_c, 1, 47, 0
3, 138780, Note_on_c, 1, 48, 89
3, 138840, Note_on_c, 1, 48, 0
3, 138840, Note_on_c, 1, 50, 89
3, 138900, Note_on_c, 1, 50, 0
3, 138900, Note_on_c, 1, 47, 89
3, 138960, Note_on_c, 1, 47, 0
3, 138960, Note_on_c, 1, 48, 127
3, 139080, Note_on_c, 1, 48, 0
3, 141840, Note_on_c, 1, 60, 61
3, 141960, Note_on_c, 1, 60, 0
3, 141960, Note_on_c, 1, 62, 64
3, 142080, Note_on_c, 1, 62, 0
3, 142080, Note_on_c, 1, 50, 65
3, 142200, Note_on_c, 1, 50, 0
3, 142200, Note_on_c, 1, 62, 68
3, 142200, Note_on_c, 1, 58, 68
3, 142320, Note_on_c, 1, 58, 0
3, 142320, Note_on_c, 1, 62, 0
3, 142320, Note_on_c, 1, 60, 70
3, 142320, Note_on_c, 1, 57, 70
3, 142440, Note_on_c, 1, 57, 0
3, 142440, Note_on_c, 1, 60, 0
3, 142440, Note_on_c, 1, 55, 70
3, 142440, Note_on_c, 1, 58, 70
3, 142560, Note_on_c, 1, 58, 0
3, 142560, Note_on_c, 1, 55, 0
3, 142560, Note_on_c, 1, 54, 68
3, 142560, Note_on_c, 1, 57, 68
3, 142680, Note_on_c, 1, 57, 0
3, 142680, Note_on_c, 1, 54, 0
3, 142680, Note_on_c, 1, 52, 67
3, 142680, Note_on_c, 1, 55, 67
3, 142800, Note_on_c, 1, 55, 0
3, 142800, Note_on_c, 1, 52, 0
3, 142800, Note_on_c, 1, 54, 66
3, 142800, Note_on_c, 1, 50, 66
3, 142920, Note_on_c, 1, 50, 0
3, 142920, Note_on_c, 1, 54, 0
3, 142920, Note_on_c, 1, 50, 64
3, 142920, Note_on_c, 1, 46, 64
3, 143040, Note_on_c, 1, 46, 0
3, 143040, Note_on_c, 1, 50, 0
3, 143040, Note_on_c, 1, 48, 64
3, 143040, Note_on_c, 1, 45, 64
3, 143160, Note_on_c, 1, 45, 0
3, 143160, Note_on_c, 1, 48, 0
3, 143160, Note_on_c, 1, 43, 64
3, 143160, Note_on_c, 1, 46, 64
3, 143280, Note_on_c, 1, 46, 0
3, 143280, Note_on_c, 1, 43, 0
3, 143280, Note_on_c, 1, 42, 64
3, 143280, Note_on_c, 1, 45, 64
3, 143400, Note_on_c, 1, 45, 0
3, 143400, Note_on_c, 1, 42, 0
3, 143400, Note_on_c, 1, 40, 64
3, 143400, Note_on_c, 1, 43, 64
3, 143520, Note_on_c, 1, 43, 0
3, 143520, Note_on_c, 1, 40, 0
3, 143520, Note_on_c, 1, 38, 64
3, 143520, Note_on_c, 1, 42, 64
3, 143640, Note_on_c, 1, 42, 0
3, 143640, Note_on_c, 1, 38, 0
3, 143640, Note_on_c, 1, 46, 63
3, 143640, Note_on_c, 1, 43, 63
3, 143760, Note_on_c, 1, 43, 0
3, 143760, Note_on_c, 1, 46, 0
3, 143760, Note_on_c, 1, 48, 62
3, 143760, Note_on_c, 1, 45, 62
3, 143880, Note_on_c, 1, 45, 0
3, 143880, Note_on_c, 1, 48, 0
3, 143880, Note_on_c, 1, 50, 61
3, 143880, Note_on_c, 1, 46, 61
3, 144000, Note_on_c, 1, 46, 0
3, 144000, Note_on_c, 1, 50, 0
3, 144000, Note_on_c, 1, 48, 61
3, 144120, Note_on_c, 1, 48, 0
3, 144120, Note_on_c, 1, 50, 61
3, 144240, Note_on_c, 1, 50, 0
3, 144240, Note_on_c, 1, 38, 63
3, 144360, Note_on_c, 1, 38, 0
3, 144360, Note_on_c, 1, 62, 65
3, 144360, Note_on_c, 1, 58, 65
3, 144480, Note_on_c, 1, 58, 0
3, 144480, Note_on_c, 1, 62, 0
3, 144480, Note_on_c, 1, 60, 66
3, 144480, Note_on_c, 1, 57, 66
3, 144600, Note_on_c, 1, 57, 0
3, 144600, Note_on_c, 1, 60, 0
3, 144600, Note_on_c, 1, 58, 68
3, 144600, Note_on_c, 1, 55, 68
3, 144720, Note_on_c, 1, 55, 0
3, 144720, Note_on_c, 1, 58, 0
3, 144720, Note_on_c, 1, 54, 68
3, 144720, Note_on_c, 1, 57, 68
3, 144840, Note_on_c, 1, 57, 0
3, 144840, Note_on_c, 1, 54, 0
3, 144840, Note_on_c, 1, 52, 69
3, 144840, Note_on_c, 1, 55, 69
3, 144960, Note_on_c, 1, 55, 0
3, 144960, Note_on_c, 1, 52, 0
3, 144960, Note_on_c, 1, 54, 70
3, 144960, Note_on_c, 1, 50, 70
3, 145080, Note_on_c, 1, 50, 0
3, 145080, Note_on_c, 1, 54, 0
3, 145080, Note_on_c, 1, 50, 71
3, 145080, Note_on_c, 1, 46, 71
3, 145200, Note_on_c, 1, 46, 0
3, 145200, Note_on_c, 1, 50, 0
3, 145200, Note_on_c, 1, 48, 72
3, 145200, Note_on_c, 1, 45, 72
3, 145320, Note_on_c, 1, 45, 0
3, 145320, Note_on_c, 1, 48, 0
3, 145320, Note_on_c, 1, 43, 72
3, 145320, Note_on_c, 1, 46, 72
3, 145440, Note_on_c, 1, 46, 0
3, 145440, Note_on_c, 1, 43, 0
3, 145440, Note_on_c, 1, 42, 74
3, 145440, Note_on_c, 1, 45, 74
3, 145560, Note_on_c, 1, 45, 0
3, 145560, Note_on_c, 1, 42, 0
3, 145560, Note_on_c, 1, 40, 74
3, 145560, Note_on_c, 1, 43, 74
3, 145680, Note_on_c, 1, 43, 0
3, 145680, Note_on_c, 1, 40, 0
3, 145680, Note_on_c, 1, 38, 74
3, 145680, Note_on_c, 1, 42, 74
3, 145800, Note_on_c, 1, 42, 0
3, 145800, Note_on_c, 1, 38, 0
3, 145800, Note_on_c, 1, 58, 74
3, 145800, Note_on_c, 1, 55, 74
3, 145920, Note_on_c, 1, 55, 0
3, 145920, Note_on_c, 1, 58, 0
3, 145920, Note_on_c, 1, 53, 74
3, 145920, Note_on_c, 1, 56, 74
3, 146040, Note_on_c, 1, 56, 0
3, 146040, Note_on_c, 1, 53, 0
3, 146040, Note_on_c, 1, 51, 74
3, 146040, Note_on_c, 1, 55, 74
3, 146160, Note_on_c, 1, 55, 0
3, 146160, Note_on_c, 1, 51, 0
3, 146160, Note_on_c, 1, 50, 74
3, 146160, Note_on_c, 1, 53, 74
3, 146280, Note_on_c, 1, 53, 0
3, 146280, Note_on_c, 1, 50, 0
3, 146280, Note_on_c, 1, 48, 74
3, 146280, Note_on_c, 1, 51, 74
3, 146400, Note_on_c, 1, 51, 0
3, 146400, Note_on_c, 1, 48, 0
3, 146400, Note_on_c, 1, 46, 74
3, 146400, Note_on_c, 1, 50, 74
3, 146520, Note_on_c, 1, 50, 0
3, 146520, Note_on_c, 1, 46, 0
3, 146520, Note_on_c, 1, 51, 74
3, 146520, Note_on_c, 1, 55, 74
3, 146640, Note_on_c, 1, 55, 0
3, 146640, Note_on_c, 1, 51, 0
3, 146640, Note_on_c, 1, 50, 73
3, 146640, Note_on_c, 1, 53, 73
3, 146760, Note_on_c, 1, 53, 0
3, 146760, Note_on_c, 1, 50, 0
3, 146760, Note_on_c, 1, 48, 71
3, 146760, Note_on_c, 1, 51, 71
3, 146880, Note_on_c, 1, 51, 0
3, 146880, Note_on_c, 1, 48, 0
3, 146880, Note_on_c, 1, 47, 69
3, 146880, Note_on_c, 1, 50, 69
3, 147000, Note_on_c, 1, 50, 0
3, 147000, Note_on_c, 1, 47, 0
3, 147000, Note_on_c, 1, 45, 70
3, 147000, Note_on_c, 1, 48, 70
3, 147120, Note_on_c, 1, 48, 0
3, 147120, Note_on_c, 1, 45, 0
3, 147120, Note_on_c, 1, 43, 70
3, 147120, Note_on_c, 1, 47, 70
3, 147240, Note_on_c, 1, 47, 0
3, 147240, Note_on_c, 1, 43, 0
3, 147240, Note_on_c, 1, 44, 69
3, 147240, Note_on_c, 1, 48, 69
3, 147360, Note_on_c, 1, 48, 0
3, 147360, Note_on_c, 1, 44, 0
3, 147600, Note_on_c, 1, 48, 89
3, 147600, Note_on_c, 1, 44, 89
3, 147600, Note_on_c, 1, 54, 89
3, 147720, Note_on_c, 1, 54, 0
3, 147720, Note_on_c, 1, 44, 0
3, 147720, Note_on_c, 1, 48, 0
3, 147960, Note_on_c, 1, 43, 72
3, 147960, Note_on_c, 1, 55, 72
3, 148080, Note_on_c, 1, 55, 0
3, 148080, Note_on_c, 1, 43, 0
3, 148200, Note_on_c, 1, 55, 72
3, 148320, Note_on_c, 1, 55, 0
3, 148320, Note_on_c, 1, 60, 67
3, 148320, Note_on_c, 1, 55, 89
3, 148380, Note_on_c, 1, 60, 0
3, 148380, Note_on_c, 1, 57, 67
3, 148440, Note_on_c, 1, 57, 0
3, 148440, Note_on_c, 1, 55, 0
3, 148440, Note_on_c, 1, 60, 67
3, 148440, Note_on_c, 1, 55, 89
3, 148500, Note_on_c, 1, 60, 0
3, 148500, Note_on_c, 1, 57, 67
3, 148560, Note_on_c, 1, 57, 0
3, 148560, Note_on_c, 1, 55, 0
3, 148560, Note_on_c, 1, 60, 67
3, 148560, Note_on_c, 1, 55, 89
3, 148620, Note_on_c, 1, 60, 0
3, 148620, Note_on_c, 1, 57, 67
3, 148680, Note_on_c, 1, 57, 0
3, 148680, Note_on_c, 1, 55, 0
3, 148680, Note_on_c, 1, 59, 82
3, 148680, Note_on_c, 1, 55, 109
3, 148740, Note_on_c, 1, 59, 0
3, 148800, Note_on_c, 1, 55, 0
3, 149640, Note_on_c, 1, 55, 67
3, 149760, Note_on_c, 1, 55, 0
3, 149760, Note_on_c, 1, 60, 67
3, 149760, Note_on_c, 1, 55, 89
3, 149820, Note_on_c, 1, 60, 0
3, 149820, Note_on_c, 1, 57, 67
3, 149880, Note_on_c, 1, 57, 0
3, 149880, Note_on_c, 1, 55, 0
3, 149880, Note_on_c, 1, 60, 67
3, 149880, Note_on_c, 1, 55, 89
3, 149940, Note_on_c, 1, 60, 0
3, 149940, Note_on_c, 1, 57, 67
3, 150000, Note_on_c, 1, 57, 0
3, 150000, Note_on_c, 1, 55, 0
3, 150000, Note_on_c, 1, 60, 67
3, 150000, Note_on_c, 1, 55, 89
3, 150060, Note_on_c, 1, 60, 0
3, 150060, Note_on_c, 1, 57, 67
3, 150120, Note_on_c, 1, 57, 0
3, 150120, Note_on_c, 1, 55, 0
3, 150120, Note_on_c, 1, 59, 107
3, 150120, Note_on_c, 1, 55, 89
3, 150180, Note_on_c, 1, 59, 0
3, 150240, Note_on_c, 1, 55, 0
3, 151080, Note_on_c, 1, 43, 89
3, 151200, Note_on_c, 1, 43, 0
3, 151200, Note_on_c, 1, 43, 89
3, 151320, Note_on_c, 1, 43, 0
3, 151320, Note_on_c, 1, 43, 89
3, 151440, Note_on_c, 1, 43, 0
3, 151440, Note_on_c, 1, 43, 89
3, 151560, Note_on_c, 1, 43, 0
3, 151560, Note_on_c, 1, 36, 89
3, 151680, Note_on_c, 1, 36, 0
3, 152520, Note_on_c, 1, 36, 108
3, 152520, Note_on_c, 1, 48, 108
3, 152640, Note_on_c, 1, 48, 0
3, 152640, Note_on_c, 1, 36, 0
3, 152640, Note_on_c, 1, 48, 108
3, 152640, Note_on_c, 1, 36, 108
3, 152760, Note_on_c, 1, 36, 0
3, 152760, Note_on_c, 1, 48, 0
3, 152760, Note_on_c, 1, 48, 107
3, 152760, Note_on_c, 1, 36, 107
3, 152880, Note_on_c, 1, 36, 0
3, 152880, Note_on_c, 1, 48, 0
3, 152880, Note_on_c, 1, 48, 107
3, 152880, Note_on_c, 1, 36, 107
3, 153000, Note_on_c, 1, 36, 0
3, 153000, Note_on_c, 1, 48, 0
3, 153000, Note_on_c, 1, 29, 122
3, 153000, Note_on_c, 1, 41, 122
3, 153120, Note_on_c, 1, 41, 0
3, 153120, Note_on_c, 1, 29, 0
3, 154320, Note_on_c, 1, 44, 89
3, 154320, Note_on_c, 1, 56, 89
3, 154440, Note_on_c, 1, 56, 0
3, 154440, Note_on_c, 1, 44, 0
3, 154440, Note_on_c, 1, 44, 89
3, 154440, Note_on_c, 1, 56, 89
3, 154560, Note_on_c, 1, 56, 0
3, 154560, Note_on_c, 1, 44, 0
3, 154560, Note_on_c, 1, 44, 89
3, 154560, Note_on_c, 1, 56, 89
3, 154680, Note_on_c, 1, 56, 0
3, 154680, Note_on_c, 1, 44, 0
3, 154680, Note_on_c, 1, 44, 89
3, 154680, Note_on_c, 1, 56, 89
3, 154800, Note_on_c, 1, 56, 0
3, 154800, Note_on_c, 1, 44, 0
3, 154800, Note_on_c, 1, 38, 89
3, 154800, Note_on_c, 1, 50, 89
3, 154920, Note_on_c, 1, 50, 0
3, 154920, Note_on_c, 1, 38, 0
3, 155040, Note_on_c, 1, 68, 89
3, 155040, Note_on_c, 1, 56, 89
3, 155160, Note_on_c, 1, 56, 0
3, 155160, Note_on_c, 1, 68, 0
3, 155160, Note_on_c, 1, 56, 89
3, 155160, Note_on_c, 1, 68, 89
3, 155280, Note_on_c, 1, 68, 0
3, 155280, Note_on_c, 1, 56, 0
3, 155280, Note_on_c, 1, 67, 89
3, 155280, Note_on_c, 1, 55, 89
3, 155400, Note_on_c, 1, 55, 0
3, 155400, Note_on_c, 1, 67, 0
3, 155400, Note_on_c, 1, 65, 89
3, 155400, Note_on_c, 1, 53, 89
3, 155520, Note_on_c, 1, 53, 0
3, 155520, Note_on_c, 1, 65, 0
3, 155520, Note_on_c, 1, 51, 89
3, 155520, Note_on_c, 1, 63, 89
3, 155640, Note_on_c, 1, 63, 0
3, 155640, Note_on_c, 1, 51, 0
3, 155640, Note_on_c, 1, 62, 89
3, 155640, Note_on_c, 1, 50, 89
3, 155760, Note_on_c, 1, 50, 0
3, 155760, Note_on_c, 1, 62, 0
3, 155760, Note_on_c, 1, 63, 89
3, 155760, Note_on_c, 1, 51, 89
3, 155880, Note_on_c, 1, 51, 0
3, 155880, Note_on_c, 1, 63, 0
3, 155880, Note_on_c, 1, 53, 89
3, 155880, Note_on_c, 1, 65, 89
3, 156000, Note_on_c, 1, 65, 0
3, 156000, Note_on_c, 1, 53, 0
3, 156000, Note_on_c, 1, 67, 89
3, 156000, Note_on_c, 1, 55, 89
3, 156120, Note_on_c, 1, 55, 0
3, 156120, Note_on_c, 1, 67, 0
3, 156120, Note_on_c, 1, 43, 89
3, 156120, Note_on_c, 1, 55, 89
3, 156240, Note_on_c, 1, 55, 0
3, 156240, Note_on_c, 1, 43, 0
3, 156240, Note_on_c, 1, 48, 89
3, 156300, Note_on_c, 1, 48, 0
3, 156300, Note_on_c, 1, 55, 89
3, 156360, Note_on_c, 1, 55, 0
3, 156360, Note_on_c, 1, 53, 89
3, 156420, Note_on_c, 1, 53, 0
3, 156420, Note_on_c, 1, 51, 89
3, 156480, Note_on_c, 1, 51, 0
3, 156480, Note_on_c, 1, 50, 89
3, 156540, Note_on_c, 1, 50, 0
3, 156540, Note_on_c, 1, 48, 89
3, 156600, Note_on_c, 1, 48, 0
3, 156600, Note_on_c, 1, 47, 89
3, 156660, Note_on_c, 1, 47, 0
3, 156660, Note_on_c, 1, 44, 89
3, 156720, Note_on_c, 1, 44, 0
3, 156720, Note_on_c, 1, 43, 89
3, 156780, Note_on_c, 1, 43, 0
3, 156780, Note_on_c, 1, 41, 89
3, 156840, Note_on_c, 1, 41, 0
3, 156840, Note_on_c, 1, 39, 89
3, 156900, Note_on_c, 1, 39, 0
3, 156900, Note_on_c, 1, 38, 89
3, 156960, Note_on_c, 1, 38, 0
3, 156960, Note_on_c, 1, 36, 89
3, 157020, Note_on_c, 1, 36, 0
3, 157020, Note_on_c, 1, 38, 89
3, 157080, Note_on_c, 1, 38, 0
3, 157080, Note_on_c, 1, 39, 89
3, 157140, Note_on_c, 1, 39, 0
3, 157140, Note_on_c, 1, 41, 89
3, 157200, Note_on_c, 1, 41, 0
3, 157200, Note_on_c, 1, 43, 89
3, 157260, Note_on_c, 1, 43, 0
3, 157260, Note_on_c, 1, 42, 89
3, 157320, Note_on_c, 1, 42, 0
3, 157320, Note_on_c, 1, 43, 89
3, 157380, Note_on_c, 1, 43, 0
3, 157380, Note_on_c, 1, 45, 89
3, 157440, Note_on_c, 1, 45, 0
3, 157440, Note_on_c, 1, 47, 89
3, 157500, Note_on_c, 1, 47, 0
3, 157500, Note_on_c, 1, 48, 89
3, 157560, Note_on_c, 1, 48, 0
3, 157560, Note_on_c, 1, 50, 89
3, 157620, Note_on_c, 1, 50, 0
3, 157620, Note_on_c, 1, 47, 89
3, 157680, Note_on_c, 1, 47, 0
3, 157680, Note_on_c, 1, 48, 89
3, 157740, Note_on_c, 1, 48, 0
3, 157740, Note_on_c, 1, 53, 89
3, 157800, Note_on_c, 1, 53, 0
3, 157800, Note_on_c, 1, 53, 89
3, 157860, Note_on_c, 1, 53, 0
3, 157860, Note_on_c, 1, 51, 89
3, 157920, Note_on_c, 1, 51, 0
3, 157920, Note_on_c, 1, 50, 89
3, 157980, Note_on_c, 1, 50, 0
3, 157980, Note_on_c, 1, 48, 89
3, 158040, Note_on_c, 1, 48, 0
3, 158040, Note_on_c, 1, 47, 89
3, 158100, Note_on_c, 1, 47, 0
3, 158100, Note_on_c, 1, 44, 89
3, 158160, Note_on_c, 1, 44, 0
3, 158160, Note_on_c, 1, 43, 89
3, 158220, Note_on_c, 1, 43, 0
3, 158220, Note_on_c, 1, 41, 89
3, 158280, Note_on_c, 1, 41, 0
3, 158280, Note_on_c, 1, 39, 89
3, 158340, Note_on_c, 1, 39, 0
3, 158340, Note_on_c, 1, 38, 89
3, 158400, Note_on_c, 1, 38, 0
3, 158400, Note_on_c, 1, 36, 89
3, 158460, Note_on_c, 1, 36, 0
3, 158460, Note_on_c, 1, 38, 89
3, 158520, Note_on_c, 1, 38, 0
3, 158520, Note_on_c, 1, 39, 89
3, 158580, Note_on_c, 1, 39, 0
3, 158580, Note_on_c, 1, 41, 89
3, 158640, Note_on_c, 1, 41, 0
3, 158640, Note_on_c, 1, 43, 89
3, 158700, Note_on_c, 1, 43, 0
3, 158700, Note_on_c, 1, 42, 89
3, 158760, Note_on_c, 1, 42, 0
3, 158760, Note_on_c, 1, 43, 89
3, 158820, Note_on_c, 1, 43, 0
3, 158820, Note_on_c, 1, 45, 89
3, 158880, Note_on_c, 1, 45, 0
3, 158880, Note_on_c, 1, 47, 89
3, 158940, Note_on_c, 1, 47, 0
3, 158940, Note_on_c, 1, 48, 89
3, 159000, Note_on_c, 1, 48, 0
3, 159000, Note_on_c, 1, 50, 89
3, 159060, Note_on_c, 1, 50, 0
3, 159060, Note_on_c, 1, 47, 89
3, 159120, Note_on_c, 1, 47, 0
3, 159120, Note_on_c, 1, 48, 127
3, 159240, Note_on_c, 1, 48, 0
3, 159240, End_track
4, 0, Start_track
4, 0, End_track
0, 0, End_of_file