0, 0, Header, 1, 13, 120
1, 0, Start_track
1, 0, Title_t, "untitled"
1, 0, Time_signature, 2, 2, 24, 8
1, 0, Key_signature, -3, "major"
1, 0, Tempo, 277778
1, 315, Tempo, 1030220
1, 322, Tempo, 1082642
1, 328, Tempo, 1120657
1, 334, Tempo, 1161440
1, 341, Tempo, 1205303
1, 347, Tempo, 1252610
1, 353, Tempo, 1303781
1, 360, Tempo, 1359311
1, 366, Tempo, 1419782
1, 372, Tempo, 1521298
1, 378, Tempo, 1597444
1, 385, Tempo, 1681614
1, 391, Tempo, 1775148
1, 397, Tempo, 1879699
1, 404, Tempo, 1997337
1, 410, Tempo, 2130682
1, 416, Tempo, 2283105
1, 423, Tempo, 2557545
1, 429, Tempo, 1681614
1, 435, Tempo, 1252610
1, 442, Tempo, 998004
1, 448, Tempo, 829417
1, 454, Tempo, 709555
1, 461, Tempo, 626043
1, 467, Tempo, 555247
1, 473, Tempo, 498836
1, 480, Tempo, 452830
1, 486, Tempo, 414594
1, 492, Tempo, 384615
1, 498, Tempo, 356676
1, 505, Tempo, 332521
1, 511, Tempo, 311429
1, 517, Tempo, 292854
1, 524, Tempo, 277572
1, 1080, Tempo, 899550
1, 1086, Tempo, 829417
1, 1092, Tempo, 769428
1, 1098, Tempo, 717532
1, 1105, Tempo, 672194
1, 1111, Tempo, 632244
1, 1117, Tempo, 602410
1, 1124, Tempo, 570125
1, 1130, Tempo, 541126
1, 1136, Tempo, 514933
1, 1143, Tempo, 491159
1, 1149, Tempo, 472962
1, 1155, Tempo, 452830
1, 1162, Tempo, 434342
1, 1168, Tempo, 417304
1, 1174, Tempo, 401553
1, 1181, Tempo, 389307
1, 1187, Tempo, 375563
1, 1193, Tempo, 352734
1, 1200, Tempo, 414594
1, 1206, Tempo, 506757
1, 1212, Tempo, 645023
1, 1218, Tempo, 899550
1, 1225, Tempo, 1485884
1, 1263, Tempo, 300000
1, 4320, Tempo, 377786
1, 4893, Tempo, 446495
1, 4900, Tempo, 560119
1, 4906, Tempo, 760264
1, 4912, Tempo, 1161440
1, 4919, Tempo, 2557545
1, 4982, Tempo, 1082642
1, 4988, Tempo, 1252610
1, 4994, Tempo, 1485884
1, 5001, Tempo, 409277
1, 5007, Tempo, 396563
1, 5013, Tempo, 386947
1, 5020, Tempo, 377786
1, 5026, Tempo, 366928
1, 5032, Tempo, 358680
1, 5039, Tempo, 350795
1, 5045, Tempo, 341413
1, 5051, Tempo, 334262
1, 5058, Tempo, 324079
1, 5064, Tempo, 325733
1, 5070, Tempo, 329092
1, 5076, Tempo, 332521
1, 5083, Tempo, 334262
1, 5089, Tempo, 337800
1, 5095, Tempo, 341413
1, 5102, Tempo, 343249
1, 5108, Tempo, 346981
1, 5114, Tempo, 350795
1, 5121, Tempo, 352734
1, 5127, Tempo, 356676
1, 5133, Tempo, 360707
1, 5140, Tempo, 362757
1, 5146, Tempo, 366928
1, 5152, Tempo, 371195
1, 5760, Tempo, 300000
1, 30456, Tempo, 502765
1, 30462, Tempo, 494968
1, 30468, Tempo, 487409
1, 30475, Tempo, 480077
1, 30481, Tempo, 472962
1, 30487, Tempo, 466056
1, 30494, Tempo, 459348
1, 30500, Tempo, 449640
1, 30506, Tempo, 443393
1, 30513, Tempo, 437318
1, 30519, Tempo, 431406
1, 30525, Tempo, 425653
1, 30531, Tempo, 420050
1, 30538, Tempo, 414594
1, 30544, Tempo, 406669
1, 30550, Tempo, 401553
1, 30557, Tempo, 396563
1, 30563, Tempo, 391696
1, 30569, Tempo, 386947
1, 30576, Tempo, 382312
1, 30582, Tempo, 375563
1, 30588, Tempo, 371195
1, 30595, Tempo, 366928
1, 30601, Tempo, 362757
1, 30607, Tempo, 358680
1, 30614, Tempo, 354694
1, 30620, Tempo, 350795
1, 30626, Tempo, 345105
1, 30633, Tempo, 341413
1, 30639, Tempo, 337800
1, 30645, Tempo, 334262
1, 30651, Tempo, 330797
1, 30658, Tempo, 327404
1, 30664, Tempo, 324079
1, 30670, Tempo, 319217
1, 30677, Tempo, 316056
1, 30683, Tempo, 312956
1, 30689, Tempo, 309917
1, 30696, Tempo, 306937
1, 30702, Tempo, 304013
1, 30708, Tempo, 299730
1, 59336, Tempo, 302572
1, 59343, Tempo, 304013
1, 59349, Tempo, 305468
1, 59355, Tempo, 306937
1, 59362, Tempo, 309917
1, 59368, Tempo, 311429
1, 59374, Tempo, 312956
1, 59381, Tempo, 314498
1, 59387, Tempo, 317628
1, 59393, Tempo, 319217
1, 59400, Tempo, 320821
1, 59406, Tempo, 322442
1, 59412, Tempo, 325733
1, 59418, Tempo, 327404
1, 59425, Tempo, 329092
1, 59431, Tempo, 330797
1, 59437, Tempo, 334262
1, 59444, Tempo, 336022
1, 59450, Tempo, 337800
1, 59456, Tempo, 339597
1, 59463, Tempo, 343249
1, 61041, Tempo, 298329
1, 61047, Tempo, 302572
1, 61053, Tempo, 306937
1, 61060, Tempo, 311429
1, 61066, Tempo, 316056
1, 61072, Tempo, 319217
1, 61079, Tempo, 324079
1, 61085, Tempo, 329092
1, 61091, Tempo, 334262
1, 61098, Tempo, 337800
1, 61104, Tempo, 343249
1, 61110, Tempo, 348878
1, 61116, Tempo, 354694
1, 61123, Tempo, 358680
1, 61129, Tempo, 364830
1, 61135, Tempo, 371195
1, 61142, Tempo, 377786
1, 61148, Tempo, 382312
1, 61154, Tempo, 389307
1, 61161, Tempo, 396563
1, 61167, Tempo, 404095
1, 61173, Tempo, 409277
1, 61180, Tempo, 417304
1, 61186, Tempo, 425653
1, 61192, Tempo, 434342
1, 61199, Tempo, 443393
1, 61205, Tempo, 449640
1, 61211, Tempo, 459348
1, 61218, Tempo, 469484
1, 61224, Tempo, 480077
1, 61230, Tempo, 487409
1, 61236, Tempo, 498836
1, 61243, Tempo, 510812
1, 61249, Tempo, 523378
1, 61255, Tempo, 532104
1, 61262, Tempo, 545752
1, 61268, Tempo, 560119
1, 61274, Tempo, 575264
1, 61281, Tempo, 585823
1, 61287, Tempo, 602410
1, 61293, Tempo, 619963
1, 61300, Tempo, 638570
1, 61306, Tempo, 651607
1, 61312, Tempo, 672194
1, 61319, Tempo, 694123
1, 61325, Tempo, 717532
1, 61331, Tempo, 734035
1, 61338, Tempo, 760264
1, 61344, Tempo, 788436
1, 61350, Tempo, 818777
1, 61356, Tempo, 851547
1, 61363, Tempo, 874891
1, 61369, Tempo, 912409
1, 61375, Tempo, 953289
1, 61382, Tempo, 998004
1, 61388, Tempo, 1030220
1, 61394, Tempo, 1082642
1, 61401, Tempo, 1140684
1, 61407, Tempo, 1205303
1, 61413, Tempo, 1252610
1, 61420, Tempo, 1330967
1, 61426, Tempo, 1419782
1, 61432, Tempo, 1521298
1, 61439, Tempo, 1597444
1, 61445, Tempo, 1727116
1, 61451, Tempo, 1879699
1, 61458, Tempo, 2061856
1, 61464, Tempo, 2204262
1, 61470, Tempo, 2459016
1, 61476, Tempo, 2780352
1, 61483, Tempo, 3198294
1, 61489, Tempo, 3554502
1, 61495, Tempo, 299730
1, 61500, Tempo, 300000
1, 64565, Tempo, 299730
1, 64571, Tempo, 301144
1, 64578, Tempo, 304013
1, 64584, Tempo, 306937
1, 64590, Tempo, 309917
1, 64596, Tempo, 311429
1, 64603, Tempo, 314498
1, 64609, Tempo, 317628
1, 64615, Tempo, 320821
1, 64622, Tempo, 322442
1, 64628, Tempo, 325733
1, 64634, Tempo, 329092
1, 64641, Tempo, 332521
1, 64647, Tempo, 334262
1, 64653, Tempo, 337800
1, 64660, Tempo, 341413
1, 64666, Tempo, 345105
1, 64672, Tempo, 346981
1, 64679, Tempo, 350795
1, 64685, Tempo, 354694
1, 64691, Tempo, 358680
1, 64698, Tempo, 360707
1, 64704, Tempo, 364830
1, 64710, Tempo, 369049
1, 64716, Tempo, 373367
1, 64723, Tempo, 377786
1, 64729, Tempo, 380035
1, 64735, Tempo, 384615
1, 64742, Tempo, 389307
1, 64748, Tempo, 394115
1, 64754, Tempo, 396563
1, 64761, Tempo, 401553
1, 64767, Tempo, 406669
1, 64773, Tempo, 411918
1, 64780, Tempo, 414594
1, 64786, Tempo, 420050
1, 64792, Tempo, 425653
1, 64799, Tempo, 431406
1, 64805, Tempo, 434342
1, 64811, Tempo, 440335
1, 64818, Tempo, 446495
1, 64824, Tempo, 452830
1, 64830, Tempo, 456066
1, 64836, Tempo, 462677
1, 64843, Tempo, 469484
1, 64849, Tempo, 476493
1, 64855, Tempo, 480077
1, 64862, Tempo, 487409
1, 64868, Tempo, 494968
1, 64874, Tempo, 502765
1, 64881, Tempo, 510812
1, 64887, Tempo, 514933
1, 64893, Tempo, 523378
1, 64900, Tempo, 532104
1, 64906, Tempo, 541126
1, 64912, Tempo, 545752
1, 64919, Tempo, 555247
1, 64925, Tempo, 565078
1, 64931, Tempo, 575264
1, 64938, Tempo, 580495
1, 64944, Tempo, 591250
1, 64950, Tempo, 602410
1, 64956, Tempo, 613999
1, 64963, Tempo, 619963
1, 64969, Tempo, 632244
1, 64975, Tempo, 645023
1, 64982, Tempo, 658328
1, 64988, Tempo, 665188
1, 64994, Tempo, 679348
1, 65001, Tempo, 694123
1, 65007, Tempo, 709555
1, 65013, Tempo, 717532
1, 65020, Tempo, 734035
1, 65026, Tempo, 751315
1, 65032, Tempo, 769428
1, 65039, Tempo, 788436
1, 66011, Tempo, 788436
1, 66018, Tempo, 818777
1, 66024, Tempo, 851547
1, 66030, Tempo, 899550
1, 66036, Tempo, 939261
1, 66043, Tempo, 982640
1, 66049, Tempo, 1047120
1, 66055, Tempo, 1101322
1, 66062, Tempo, 1182965
1, 66068, Tempo, 1252610
1, 66074, Tempo, 1330967
1, 66081, Tempo, 1452081
1, 66087, Tempo, 1558442
1, 66093, Tempo, 1727116
1, 66240, Tempo, 300000
1, 88800, Time_signature, 6, 2, 24, 8
1, 89520, Time_signature, 2, 2, 24, 8
1, 90000, Time_signature, 6, 2, 24, 8
1, 90720, Time_signature, 2, 2, 24, 8
1, 94320, Time_signature, 10, 2, 24, 8
1, 95520, Time_signature, 2, 2, 24, 8
1, 116405, Tempo, 299730
1, 116411, Tempo, 301144
1, 116418, Tempo, 304013
1, 116424, Tempo, 305468
1, 116430, Tempo, 308420
1, 116436, Tempo, 309917
1, 116443, Tempo, 312956
1, 116449, Tempo, 314498
1, 116455, Tempo, 317628
1, 116462, Tempo, 319217
1, 116468, Tempo, 322442
1, 116474, Tempo, 324079
1, 116481, Tempo, 327404
1, 116487, Tempo, 329092
1, 116493, Tempo, 332521
1, 116500, Tempo, 334262
1, 116506, Tempo, 337800
1, 116512, Tempo, 339597
1, 116519, Tempo, 343249
1, 116525, Tempo, 346981
1, 118540, Tempo, 6410256
1, 118553, Tempo, 1330967
1, 118560, Tempo, 1303781
1, 118566, Tempo, 1277683
1, 118572, Tempo, 1252610
1, 118578, Tempo, 1205303
1, 118585, Tempo, 1182965
1, 118591, Tempo, 1161440
1, 118597, Tempo, 1120657
1, 118609, Tempo, 7500000
1, 118615, Tempo, 298329
1, 118620, Tempo, 300000
1, 121464, Tempo, 298329
1, 121508, Tempo, 296942
1, 121552, Tempo, 295567
1, 121590, Tempo, 294204
1, 121634, Tempo, 292854
1, 121672, Tempo, 291517
1, 121716, Tempo, 290192
1, 121754, Tempo, 288878
1, 121799, Tempo, 287577
1, 121836, Tempo, 286287
1, 121881, Tempo, 285009
1, 121919, Tempo, 283742
1, 121963, Tempo, 282486
1, 122001, Tempo, 281241
1, 122045, Tempo, 280007
1, 122089, Tempo, 278784
1, 122127, Tempo, 277572
1, 122171, Tempo, 276370
1, 122209, Tempo, 275179
1, 122253, Tempo, 273998
1, 122291, Tempo, 272826
1, 122335, Tempo, 271665
1, 122373, Tempo, 270514
1, 122418, Tempo, 269372
1, 122455, Tempo, 268240
1, 122500, Tempo, 267118
1, 122538, Tempo, 266005
1, 122582, Tempo, 264901
1, 122620, Tempo, 263806
1, 122639, Tempo, 299730
1, 122651, Tempo, 301144
1, 122664, Tempo, 302572
1, 122676, Tempo, 304013
1, 122689, Tempo, 305468
1, 122695, Tempo, 306937
1, 122708, Tempo, 308420
1, 122721, Tempo, 309917
1, 122733, Tempo, 311429
1, 122746, Tempo, 312956
1, 122752, Tempo, 314498
1, 122765, Tempo, 316056
1, 122771, Tempo, 317628
1, 122778, Tempo, 322442
1, 122784, Tempo, 329092
1, 122790, Tempo, 334262
1, 122796, Tempo, 341413
1, 122803, Tempo, 346981
1, 122809, Tempo, 354694
1, 122815, Tempo, 360707
1, 122822, Tempo, 369049
1, 122828, Tempo, 375563
1, 122834, Tempo, 384615
1, 122841, Tempo, 391696
1, 122847, Tempo, 401553
1, 122853, Tempo, 409277
1, 122860, Tempo, 420050
1, 122866, Tempo, 428510
1, 122872, Tempo, 440335
1, 122879, Tempo, 332521
1, 122891, Tempo, 334262
1, 122904, Tempo, 336022
1, 122916, Tempo, 337800
1, 122923, Tempo, 339597
1, 122935, Tempo, 341413
1, 122948, Tempo, 343249
1, 122961, Tempo, 345105
1, 122973, Tempo, 346981
1, 122980, Tempo, 348878
1, 122992, Tempo, 350795
1, 123005, Tempo, 352734
1, 123018, Tempo, 354694
1, 123030, Tempo, 356676
1, 123036, Tempo, 358680
1, 123043, Tempo, 362757
1, 123049, Tempo, 384615
1, 123055, Tempo, 409277
1, 123062, Tempo, 437318
1, 123068, Tempo, 469484
1, 123074, Tempo, 506757
1, 123081, Tempo, 550459
1, 123087, Tempo, 366928
1, 123093, Tempo, 369049
1, 123106, Tempo, 371195
1, 123119, Tempo, 373367
1, 123131, Tempo, 375563
1, 123138, Tempo, 377786
1, 145920, Time_signature, 6, 2, 24, 8
1, 146640, Time_signature, 2, 2, 24, 8
1, 147120, Time_signature, 6, 2, 24, 8
1, 147840, Time_signature, 2, 2, 24, 8
1, 147840, End_track
2, 0, Start_track
2, 0, MIDI_port, 0
2, 0, Title_t, "Flauti"
2, 0, Program_c, 0, 73
2, 0, Control_c, 0, 7, 127
2, 0, Control_c, 0, 10, 74
2, 4140, Note_on_c, 0, 91, 65
2, 4140, Note_on_c, 0, 86, 65
2, 4190, Note_on_c, 0, 86, 0
2, 4190, Note_on_c, 0, 91, 0
2, 4200, Note_on_c, 0, 91, 85
2, 4200, Note_on_c, 0, 86, 85
2, 4250, Note_on_c, 0, 86, 0
2, 4250, Note_on_c, 0, 91, 0
2, 4260, Note_on_c, 0, 89, 106
2, 4260, Note_on_c, 0, 86, 106
2, 4310, Note_on_c, 0, 86, 0
2, 4310, Note_on_c, 0, 89, 0
2, 4320, Note_on_c, 0, 87, 127
2, 4320, Note_on_c, 0, 84, 127
2, 4440, Note_on_c, 0, 84, 0
2, 4440, Note_on_c, 0, 87, 0
2, 4560, Note_on_c, 0, 84, 127
2, 4680, Note_on_c, 0, 84, 0
2, 4800, Note_on_c, 0, 91, 127
2, 4800, Note_on_c, 0, 83, 127
2, 4920, Note_on_c, 0, 83, 0
2, 4920, Note_on_c, 0, 91, 0
2, 5100, Note_on_c, 0, 80, 127
2, 5150, Note_on_c, 0, 80, 0
2, 5160, Note_on_c, 0, 80, 127
2, 5210, Note_on_c, 0, 80, 0
2, 5220, Note_on_c, 0, 80, 127
2, 5270, Note_on_c, 0, 80, 0
2, 5280, Note_on_c, 0, 77, 127
2, 5760, Note_on_c, 0, 77, 0
2, 9120, Note_on_c, 0, 84, 100
2, 9240, Note_on_c, 0, 84, 0
2, 9360, Note_on_c, 0, 84, 100
2, 9480, Note_on_c, 0, 84, 0
2, 9600, Note_on_c, 0, 84, 100
2, 9720, Note_on_c, 0, 84, 0
2, 9840, Note_on_c, 0, 84, 100
2, 9960, Note_on_c, 0, 84, 0
2, 10080, Note_on_c, 0, 83, 100
2, 10080, Note_on_c, 0, 86, 100
2, 10200, Note_on_c, 0, 86, 0
2, 10200, Note_on_c, 0, 83, 0
2, 10320, Note_on_c, 0, 84, 100
2, 10320, Note_on_c, 0, 87, 100
2, 11270, Note_on_c, 0, 87, 0
2, 11270, Note_on_c, 0, 84, 0
2, 11280, Note_on_c, 0, 86, 100
2, 11280, Note_on_c, 0, 89, 100
2, 12110, Note_on_c, 0, 89, 0
2, 12110, Note_on_c, 0, 86, 0
2, 12120, Note_on_c, 0, 84, 100
2, 12120, Note_on_c, 0, 87, 100
2, 12230, Note_on_c, 0, 87, 0
2, 12230, Note_on_c, 0, 84, 0
2, 12240, Note_on_c, 0, 84, 127
2, 12240, Note_on_c, 0, 87, 127
2, 13190, Note_on_c, 0, 87, 0
2, 13190, Note_on_c, 0, 84, 0
2, 13200, Note_on_c, 0, 90, 127
2, 13200, Note_on_c, 0, 81, 127
2, 13320, Note_on_c, 0, 81, 0
2, 13320, Note_on_c, 0, 90, 0
2, 13680, Note_on_c, 0, 82, 127
2, 13800, Note_on_c, 0, 82, 0
2, 16800, Note_on_c, 0, 82, 50
2, 16920, Note_on_c, 0, 82, 0
2, 16920, Note_on_c, 0, 87, 50
2, 17040, Note_on_c, 0, 87, 0
2, 17040, Note_on_c, 0, 86, 50
2, 17160, Note_on_c, 0, 86, 0
2, 17160, Note_on_c, 0, 87, 50
2, 17280, Note_on_c, 0, 87, 0
2, 17280, Note_on_c, 0, 89, 50
2, 17400, Note_on_c, 0, 89, 0
2, 17400, Note_on_c, 0, 84, 50
2, 17510, Note_on_c, 0, 84, 0
2, 17520, Note_on_c, 0, 84, 50
2, 17640, Note_on_c, 0, 84, 0
2, 17640, Note_on_c, 0, 82, 50
2, 17760, Note_on_c, 0, 82, 0
2, 21600, Note_on_c, 0, 87, 103
2, 21720, Note_on_c, 0, 87, 0
2, 21720, Note_on_c, 0, 89, 107
2, 21840, Note_on_c, 0, 89, 0
2, 21840, Note_on_c, 0, 90, 111
2, 21960, Note_on_c, 0, 90, 0
2, 21960, Note_on_c, 0, 89, 115
2, 22080, Note_on_c, 0, 89, 0
2, 22080, Note_on_c, 0, 90, 119
2, 22200, Note_on_c, 0, 90, 0
2, 22200, Note_on_c, 0, 90, 123
2, 22320, Note_on_c, 0, 90, 0
2, 22320, Note_on_c, 0, 82, 127
2, 22320, Note_on_c, 0, 89, 127
2, 22670, Note_on_c, 0, 89, 0
2, 22670, Note_on_c, 0, 82, 0
2, 22680, Note_on_c, 0, 82, 127
2, 22680, Note_on_c, 0, 89, 127
2, 22790, Note_on_c, 0, 89, 0
2, 22790, Note_on_c, 0, 82, 0
2, 22800, Note_on_c, 0, 91, 127
2, 22800, Note_on_c, 0, 82, 127
2, 22920, Note_on_c, 0, 82, 0
2, 22920, Note_on_c, 0, 91, 0
2, 23040, Note_on_c, 0, 82, 127
2, 23040, Note_on_c, 0, 89, 127
2, 23160, Note_on_c, 0, 89, 0
2, 23160, Note_on_c, 0, 82, 0
2, 23280, Note_on_c, 0, 87, 127
2, 23280, Note_on_c, 0, 82, 127
2, 23400, Note_on_c, 0, 82, 0
2, 23400, Note_on_c, 0, 87, 0
2, 23520, Note_on_c, 0, 87, 127
2, 23520, Note_on_c, 0, 84, 127
2, 23640, Note_on_c, 0, 84, 0
2, 23640, Note_on_c, 0, 87, 0
2, 23760, Note_on_c, 0, 87, 127
2, 23760, Note_on_c, 0, 82, 127
2, 23880, Note_on_c, 0, 82, 0
2, 23880, Note_on_c, 0, 87, 0
2, 24000, Note_on_c, 0, 82, 127
2, 24000, Note_on_c, 0, 86, 127
2, 24120, Note_on_c, 0, 86, 0
2, 24120, Note_on_c, 0, 82, 0
2, 24240, Note_on_c, 0, 82, 127
2, 24240, Note_on_c, 0, 89, 127
2, 24710, Note_on_c, 0, 89, 0
2, 24710, Note_on_c, 0, 82, 0
2, 24720, Note_on_c, 0, 91, 127
2, 24720, Note_on_c, 0, 82, 127
2, 24830, Note_on_c, 0, 82, 0
2, 24830, Note_on_c, 0, 91, 0
2, 24840, Note_on_c, 0, 82, 127
2, 24840, Note_on_c, 0, 91, 127
2, 24960, Note_on_c, 0, 91, 0
2, 24960, Note_on_c, 0, 82, 0
2, 25080, Note_on_c, 0, 82, 127
2, 25080, Note_on_c, 0, 86, 127
2, 25200, Note_on_c, 0, 86, 0
2, 25200, Note_on_c, 0, 82, 0
2, 25320, Note_on_c, 0, 87, 127
2, 25320, Note_on_c, 0, 82, 127
2, 25440, Note_on_c, 0, 82, 0
2, 25440, Note_on_c, 0, 87, 0
2, 25560, Note_on_c, 0, 80, 127
2, 25560, Note_on_c, 0, 87, 127
2, 25680, Note_on_c, 0, 87, 0
2, 25680, Note_on_c, 0, 80, 0
2, 25800, Note_on_c, 0, 87, 127
2, 25800, Note_on_c, 0, 82, 127
2, 25920, Note_on_c, 0, 82, 0
2, 25920, Note_on_c, 0, 87, 0
2, 26040, Note_on_c, 0, 82, 127
2, 26040, Note_on_c, 0, 86, 127
2, 26150, Note_on_c, 0, 86, 0
2, 26150, Note_on_c, 0, 82, 0
2, 26160, Note_on_c, 0, 82, 127
2, 26160, Note_on_c, 0, 87, 127
2, 26210, Note_on_c, 0, 87, 0
2, 26210, Note_on_c, 0, 82, 0
2, 26220, Note_on_c, 0, 91, 127
2, 26270, Note_on_c, 0, 91, 0
2, 26280, Note_on_c, 0, 91, 127
2, 26330, Note_on_c, 0, 91, 0
2, 26340, Note_on_c, 0, 91, 127
2, 26390, Note_on_c, 0, 91, 0
2, 26400, Note_on_c, 0, 87, 127
2, 26450, Note_on_c, 0, 87, 0
2, 26460, Note_on_c, 0, 82, 127
2, 26510, Note_on_c, 0, 82, 0
2, 26520, Note_on_c, 0, 82, 127
2, 26570, Note_on_c, 0, 82, 0
2, 26580, Note_on_c, 0, 82, 127
2, 26630, Note_on_c, 0, 82, 0
2, 26640, Note_on_c, 0, 79, 127
2, 26690, Note_on_c, 0, 79, 0
2, 26700, Note_on_c, 0, 75, 127
2, 26750, Note_on_c, 0, 75, 0
2, 26760, Note_on_c, 0, 75, 127
2, 26810, Note_on_c, 0, 75, 0
2, 26820, Note_on_c, 0, 75, 127
2, 26870, Note_on_c, 0, 75, 0
2, 26880, Note_on_c, 0, 70, 127
2, 27170, Note_on_c, 0, 70, 0
2, 27180, Note_on_c, 0, 91, 127
2, 27230, Note_on_c, 0, 91, 0
2, 27240, Note_on_c, 0, 91, 127
2, 27290, Note_on_c, 0, 91, 0
2, 27300, Note_on_c, 0, 91, 127
2, 27350, Note_on_c, 0, 91, 0
2, 27360, Note_on_c, 0, 87, 127
2, 27410, Note_on_c, 0, 87, 0
2, 27420, Note_on_c, 0, 82, 127
2, 27470, Note_on_c, 0, 82, 0
2, 27480, Note_on_c, 0, 82, 127
2, 27530, Note_on_c, 0, 82, 0
2, 27540, Note_on_c, 0, 82, 127
2, 27590, Note_on_c, 0, 82, 0
2, 27600, Note_on_c, 0, 79, 127
2, 27650, Note_on_c, 0, 79, 0
2, 27660, Note_on_c, 0, 75, 127
2, 27710, Note_on_c, 0, 75, 0
2, 27720, Note_on_c, 0, 75, 127
2, 27770, Note_on_c, 0, 75, 0
2, 27780, Note_on_c, 0, 75, 127
2, 27830, Note_on_c, 0, 75, 0
2, 27840, Note_on_c, 0, 70, 127
2, 28200, Note_on_c, 0, 70, 0
2, 28380, Note_on_c, 0, 82, 127
2, 28430, Note_on_c, 0, 82, 0
2, 28440, Note_on_c, 0, 82, 127
2, 28490, Note_on_c, 0, 82, 0
2, 28500, Note_on_c, 0, 82, 127
2, 28550, Note_on_c, 0, 82, 0
2, 28560, Note_on_c, 0, 82, 127
2, 28680, Note_on_c, 0, 82, 0
2, 28860, Note_on_c, 0, 86, 127
2, 28860, Note_on_c, 0, 77, 127
2, 28910, Note_on_c, 0, 77, 0
2, 28910, Note_on_c, 0, 86, 0
2, 28920, Note_on_c, 0, 77, 127
2, 28920, Note_on_c, 0, 86, 127
2, 28970, Note_on_c, 0, 86, 0
2, 28970, Note_on_c, 0, 77, 0
2, 28980, Note_on_c, 0, 77, 127
2, 28980, Note_on_c, 0, 86, 127
2, 29030, Note_on_c, 0, 86, 0
2, 29030, Note_on_c, 0, 77, 0
2, 29040, Note_on_c, 0, 87, 127
2, 29040, Note_on_c, 0, 79, 127
2, 29160, Note_on_c, 0, 79, 0
2, 29160, Note_on_c, 0, 87, 0
2, 36540, Note_on_c, 0, 86, 50
2, 36590, Note_on_c, 0, 86, 0
2, 36600, Note_on_c, 0, 86, 50
2, 36650, Note_on_c, 0, 86, 0
2, 36660, Note_on_c, 0, 84, 50
2, 36710, Note_on_c, 0, 84, 0
2, 36720, Note_on_c, 0, 82, 50
2, 36950, Note_on_c, 0, 82, 0
2, 36960, Note_on_c, 0, 81, 50
2, 37010, Note_on_c, 0, 81, 0
2, 37020, Note_on_c, 0, 86, 50
2, 37070, Note_on_c, 0, 86, 0
2, 37080, Note_on_c, 0, 86, 50
2, 37130, Note_on_c, 0, 86, 0
2, 37140, Note_on_c, 0, 84, 50
2, 37190, Note_on_c, 0, 84, 0
2, 37200, Note_on_c, 0, 82, 50
2, 37430, Note_on_c, 0, 82, 0
2, 37440, Note_on_c, 0, 81, 50
2, 37670, Note_on_c, 0, 81, 0
2, 37680, Note_on_c, 0, 82, 50
2, 37970, Note_on_c, 0, 82, 0
2, 37980, Note_on_c, 0, 79, 50
2, 38030, Note_on_c, 0, 79, 0
2, 38040, Note_on_c, 0, 81, 50
2, 38090, Note_on_c, 0, 81, 0
2, 38100, Note_on_c, 0, 82, 50
2, 38150, Note_on_c, 0, 82, 0
2, 38160, Note_on_c, 0, 84, 50
2, 38280, Note_on_c, 0, 84, 0
2, 38460, Note_on_c, 0, 78, 50
2, 38510, Note_on_c, 0, 78, 0
2, 38520, Note_on_c, 0, 81, 50
2, 38570, Note_on_c, 0, 81, 0
2, 38580, Note_on_c, 0, 82, 50
2, 38630, Note_on_c, 0, 82, 0
2, 38640, Note_on_c, 0, 84, 50
2, 38760, Note_on_c, 0, 84, 0
2, 38940, Note_on_c, 0, 81, 50
2, 38990, Note_on_c, 0, 81, 0
2, 39000, Note_on_c, 0, 82, 50
2, 39050, Note_on_c, 0, 82, 0
2, 39060, Note_on_c, 0, 84, 50
2, 39110, Note_on_c, 0, 84, 0
2, 39120, Note_on_c, 0, 86, 50
2, 39240, Note_on_c, 0, 86, 0
2, 39420, Note_on_c, 0, 79, 50
2, 39470, Note_on_c, 0, 79, 0
2, 39480, Note_on_c, 0, 82, 50
2, 39530, Note_on_c, 0, 82, 0
2, 39540, Note_on_c, 0, 84, 50
2, 39590, Note_on_c, 0, 84, 0
2, 39600, Note_on_c, 0, 86, 50
2, 39720, Note_on_c, 0, 86, 0
2, 39900, Note_on_c, 0, 82, 81
2, 39950, Note_on_c, 0, 82, 0
2, 39960, Note_on_c, 0, 84, 87
2, 40010, Note_on_c, 0, 84, 0
2, 40020, Note_on_c, 0, 86, 93
2, 40070, Note_on_c, 0, 86, 0
2, 40080, Note_on_c, 0, 87, 100
2, 40080, Note_on_c, 0, 81, 100
2, 40550, Note_on_c, 0, 81, 0
2, 40550, Note_on_c, 0, 87, 0
2, 40560, Note_on_c, 0, 87, 100
2, 40560, Note_on_c, 0, 81, 100
2, 40680, Note_on_c, 0, 81, 0
2, 40680, Note_on_c, 0, 87, 0
2, 40860, Note_on_c, 0, 88, 100
2, 40860, Note_on_c, 0, 79, 100
2, 40910, Note_on_c, 0, 79, 0
2, 40910, Note_on_c, 0, 88, 0
2, 40920, Note_on_c, 0, 88, 100
2, 40920, Note_on_c, 0, 79, 100
2, 40970, Note_on_c, 0, 79, 0
2, 40970, Note_on_c, 0, 88, 0
2, 40980, Note_on_c, 0, 88, 100
2, 40980, Note_on_c, 0, 79, 100
2, 41030, Note_on_c, 0, 79, 0
2, 41030, Note_on_c, 0, 88, 0
2, 41040, Note_on_c, 0, 88, 100
2, 41040, Note_on_c, 0, 79, 100
2, 41510, Note_on_c, 0, 79, 0
2, 41510, Note_on_c, 0, 88, 0
2, 41520, Note_on_c, 0, 88, 100
2, 41520, Note_on_c, 0, 79, 100
2, 41640, Note_on_c, 0, 79, 0
2, 41640, Note_on_c, 0, 88, 0
2, 41820, Note_on_c, 0, 86, 104
2, 41820, Note_on_c, 0, 82, 104
2, 41870, Note_on_c, 0, 82, 0
2, 41870, Note_on_c, 0, 86, 0
2, 41880, Note_on_c, 0, 86, 106
2, 41880, Note_on_c, 0, 82, 106
2, 41930, Note_on_c, 0, 82, 0
2, 41930, Note_on_c, 0, 86, 0
2, 41940, Note_on_c, 0, 86, 107
2, 41940, Note_on_c, 0, 82, 107
2, 41990, Note_on_c, 0, 82, 0
2, 41990, Note_on_c, 0, 86, 0
2, 42000, Note_on_c, 0, 86, 109
2, 42000, Note_on_c, 0, 82, 109
2, 42120, Note_on_c, 0, 82, 0
2, 42120, Note_on_c, 0, 86, 0
2, 42360, Note_on_c, 0, 85, 118
2, 42360, Note_on_c, 0, 73, 118
2, 42410, Note_on_c, 0, 73, 0
2, 42410, Note_on_c, 0, 85, 0
2, 42420, Note_on_c, 0, 85, 119
2, 42420, Note_on_c, 0, 73, 119
2, 42470, Note_on_c, 0, 73, 0
2, 42470, Note_on_c, 0, 85, 0
2, 42480, Note_on_c, 0, 85, 121
2, 42480, Note_on_c, 0, 73, 121
2, 42590, Note_on_c, 0, 73, 0
2, 42590, Note_on_c, 0, 85, 0
2, 42600, Note_on_c, 0, 86, 124
2, 42600, Note_on_c, 0, 74, 124
2, 42650, Note_on_c, 0, 74, 0
2, 42650, Note_on_c, 0, 86, 0
2, 42660, Note_on_c, 0, 86, 125
2, 42660, Note_on_c, 0, 74, 125
2, 42710, Note_on_c, 0, 74, 0
2, 42710, Note_on_c, 0, 86, 0
2, 42720, Note_on_c, 0, 86, 127
2, 42720, Note_on_c, 0, 74, 127
2, 42840, Note_on_c, 0, 74, 0
2, 42840, Note_on_c, 0, 86, 0
2, 44520, Note_on_c, 0, 86, 127
2, 44570, Note_on_c, 0, 86, 0
2, 44580, Note_on_c, 0, 86, 127
2, 44630, Note_on_c, 0, 86, 0
2, 44640, Note_on_c, 0, 86, 127
2, 44640, Note_on_c, 0, 91, 127
2, 44760, Note_on_c, 0, 91, 0
2, 44760, Note_on_c, 0, 86, 0
2, 46440, Note_on_c, 0, 86, 127
2, 46440, Note_on_c, 0, 83, 127
2, 46490, Note_on_c, 0, 83, 0
2, 46490, Note_on_c, 0, 86, 0
2, 46500, Note_on_c, 0, 86, 127
2, 46500, Note_on_c, 0, 83, 127
2, 46550, Note_on_c, 0, 83, 0
2, 46550, Note_on_c, 0, 86, 0
2, 46560, Note_on_c, 0, 88, 127
2, 46560, Note_on_c, 0, 84, 127
2, 46610, Note_on_c, 0, 84, 0
2, 46610, Note_on_c, 0, 88, 0
2, 46620, Note_on_c, 0, 84, 127
2, 46670, Note_on_c, 0, 84, 0
2, 46680, Note_on_c, 0, 84, 127
2, 46730, Note_on_c, 0, 84, 0
2, 46740, Note_on_c, 0, 84, 127
2, 46790, Note_on_c, 0, 84, 0
2, 46800, Note_on_c, 0, 77, 127
2, 47030, Note_on_c, 0, 77, 0
2, 47040, Note_on_c, 0, 79, 127
2, 47280, Note_on_c, 0, 79, 0
2, 47760, Note_on_c, 0, 77, 127
2, 47990, Note_on_c, 0, 77, 0
2, 48000, Note_on_c, 0, 79, 127
2, 48240, Note_on_c, 0, 79, 0
2, 48720, Note_on_c, 0, 77, 127
2, 48950, Note_on_c, 0, 77, 0
2, 48960, Note_on_c, 0, 78, 127
2, 49200, Note_on_c, 0, 78, 0
2, 49680, Note_on_c, 0, 81, 127
2, 49910, Note_on_c, 0, 81, 0
2, 49920, Note_on_c, 0, 82, 127
2, 50160, Note_on_c, 0, 82, 0
2, 50400, Note_on_c, 0, 83, 112
2, 50640, Note_on_c, 0, 83, 0
2, 50880, Note_on_c, 0, 85, 81
2, 51120, Note_on_c, 0, 85, 0
2, 51360, Note_on_c, 0, 85, 50
2, 51600, Note_on_c, 0, 85, 0
2, 51840, Note_on_c, 0, 85, 50
2, 52080, Note_on_c, 0, 85, 0
2, 52320, Note_on_c, 0, 85, 50
2, 52560, Note_on_c, 0, 85, 0
2, 52800, Note_on_c, 0, 86, 50
2, 53040, Note_on_c, 0, 86, 0
2, 53280, Note_on_c, 0, 86, 50
2, 53520, Note_on_c, 0, 86, 0
2, 53760, Note_on_c, 0, 86, 50
2, 54000, Note_on_c, 0, 86, 0
2, 54240, Note_on_c, 0, 86, 50
2, 54480, Note_on_c, 0, 86, 0
2, 54540, Note_on_c, 0, 86, 127
2, 54590, Note_on_c, 0, 86, 0
2, 54600, Note_on_c, 0, 86, 127
2, 54650, Note_on_c, 0, 86, 0
2, 54660, Note_on_c, 0, 86, 127
2, 54710, Note_on_c, 0, 86, 0
2, 54720, Note_on_c, 0, 86, 127
2, 54720, Note_on_c, 0, 83, 127
2, 54950, Note_on_c, 0, 83, 0
2, 54950, Note_on_c, 0, 86, 0
2, 54960, Note_on_c, 0, 86, 127
2, 54960, Note_on_c, 0, 84, 127
2, 55190, Note_on_c, 0, 84, 0
2, 55190, Note_on_c, 0, 86, 0
2, 55200, Note_on_c, 0, 86, 127
2, 55200, Note_on_c, 0, 81, 127
2, 55680, Note_on_c, 0, 81, 0
2, 55680, Note_on_c, 0, 86, 0
2, 55680, Note_on_c, 0, 86, 50
2, 55920, Note_on_c, 0, 86, 0
2, 56160, Note_on_c, 0, 86, 50
2, 56400, Note_on_c, 0, 86, 0
2, 56640, Note_on_c, 0, 86, 50
2, 56880, Note_on_c, 0, 86, 0
2, 57120, Note_on_c, 0, 86, 50
2, 57360, Note_on_c, 0, 86, 0
2, 57660, Note_on_c, 0, 92, 127
2, 57660, Note_on_c, 0, 80, 127
2, 57710, Note_on_c, 0, 80, 0
2, 57710, Note_on_c, 0, 92, 0
2, 57720, Note_on_c, 0, 92, 127
2, 57720, Note_on_c, 0, 80, 127
2, 57770, Note_on_c, 0, 80, 0
2, 57770, Note_on_c, 0, 92, 0
2, 57780, Note_on_c, 0, 92, 127
2, 57780, Note_on_c, 0, 80, 127
2, 57830, Note_on_c, 0, 80, 0
2, 57830, Note_on_c, 0, 92, 0
2, 57840, Note_on_c, 0, 89, 127
2, 57840, Note_on_c, 0, 77, 127
2, 58130, Note_on_c, 0, 77, 0
2, 58130, Note_on_c, 0, 89, 0
2, 58140, Note_on_c, 0, 92, 127
2, 58140, Note_on_c, 0, 80, 127
2, 58190, Note_on_c, 0, 80, 0
2, 58190, Note_on_c, 0, 92, 0
2, 58200, Note_on_c, 0, 92, 127
2, 58200, Note_on_c, 0, 80, 127
2, 58250, Note_on_c, 0, 80, 0
2, 58250, Note_on_c, 0, 92, 0
2, 58260, Note_on_c, 0, 92, 127
2, 58260, Note_on_c, 0, 80, 127
2, 58310, Note_on_c, 0, 80, 0
2, 58310, Note_on_c, 0, 92, 0
2, 58320, Note_on_c, 0, 89, 127
2, 58320, Note_on_c, 0, 77, 127
2, 58610, Note_on_c, 0, 77, 0
2, 58610, Note_on_c, 0, 89, 0
2, 58620, Note_on_c, 0, 92, 127
2, 58620, Note_on_c, 0, 80, 127
2, 58670, Note_on_c, 0, 80, 0
2, 58670, Note_on_c, 0, 92, 0
2, 58680, Note_on_c, 0, 92, 127
2, 58680, Note_on_c, 0, 80, 127
2, 58730, Note_on_c, 0, 80, 0
2, 58730, Note_on_c, 0, 92, 0
2, 58740, Note_on_c, 0, 92, 127
2, 58740, Note_on_c, 0, 80, 127
2, 58790, Note_on_c, 0, 80, 0
2, 58790, Note_on_c, 0, 92, 0
2, 58800, Note_on_c, 0, 89, 127
2, 58800, Note_on_c, 0, 77, 127
2, 58850, Note_on_c, 0, 77, 0
2, 58850, Note_on_c, 0, 89, 0
2, 58860, Note_on_c, 0, 92, 127
2, 58860, Note_on_c, 0, 80, 127
2, 58910, Note_on_c, 0, 80, 0
2, 58910, Note_on_c, 0, 92, 0
2, 58920, Note_on_c, 0, 92, 127
2, 58920, Note_on_c, 0, 80, 127
2, 58970, Note_on_c, 0, 80, 0
2, 58970, Note_on_c, 0, 92, 0
2, 58980, Note_on_c, 0, 92, 127
2, 58980, Note_on_c, 0, 80, 127
2, 59030, Note_on_c, 0, 80, 0
2, 59030, Note_on_c, 0, 92, 0
2, 59040, Note_on_c, 0, 89, 127
2, 59040, Note_on_c, 0, 77, 127
2, 59090, Note_on_c, 0, 77, 0
2, 59090, Note_on_c, 0, 89, 0
2, 59100, Note_on_c, 0, 92, 127
2, 59100, Note_on_c, 0, 80, 127
2, 59150, Note_on_c, 0, 80, 0
2, 59150, Note_on_c, 0, 92, 0
2, 59160, Note_on_c, 0, 92, 127
2, 59160, Note_on_c, 0, 80, 127
2, 59210, Note_on_c, 0, 80, 0
2, 59210, Note_on_c, 0, 92, 0
2, 59220, Note_on_c, 0, 92, 127
2, 59220, Note_on_c, 0, 80, 127
2, 59270, Note_on_c, 0, 80, 0
2, 59270, Note_on_c, 0, 92, 0
2, 59280, Note_on_c, 0, 89, 127
2, 59280, Note_on_c, 0, 77, 127
2, 59330, Note_on_c, 0, 77, 0
2, 59330, Note_on_c, 0, 89, 0
2, 59340, Note_on_c, 0, 91, 127
2, 59340, Note_on_c, 0, 79, 127
2, 59390, Note_on_c, 0, 79, 0
2, 59390, Note_on_c, 0, 91, 0
2, 59400, Note_on_c, 0, 91, 127
2, 59400, Note_on_c, 0, 79, 127
2, 59450, Note_on_c, 0, 79, 0
2, 59450, Note_on_c, 0, 91, 0
2, 59460, Note_on_c, 0, 91, 127
2, 59460, Note_on_c, 0, 79, 127
2, 59510, Note_on_c, 0, 79, 0
2, 59510, Note_on_c, 0, 91, 0
2, 59520, Note_on_c, 0, 91, 127
2, 59520, Note_on_c, 0, 87, 127
2, 60240, Note_on_c, 0, 87, 0
2, 60240, Note_on_c, 0, 91, 0
2, 60300, Note_on_c, 0, 91, 127
2, 60300, Note_on_c, 0, 89, 127
2, 60350, Note_on_c, 0, 89, 0
2, 60350, Note_on_c, 0, 91, 0
2, 60360, Note_on_c, 0, 91, 127
2, 60360, Note_on_c, 0, 89, 127
2, 60410, Note_on_c, 0, 89, 0
2, 60410, Note_on_c, 0, 91, 0
2, 60420, Note_on_c, 0, 91, 127
2, 60420, Note_on_c, 0, 89, 127
2, 60470, Note_on_c, 0, 89, 0
2, 60470, Note_on_c, 0, 91, 0
2, 60480, Note_on_c, 0, 91, 127
2, 60480, Note_on_c, 0, 86, 127
2, 61440, Note_on_c, 0, 86, 0
2, 61440, Note_on_c, 0, 91, 0
2, 63120, Note_on_c, 0, 65, 50
2, 63590, Note_on_c, 0, 65, 0
2, 63600, Note_on_c, 0, 63, 50
2, 63720, Note_on_c, 0, 63, 0
2, 64800, Note_on_c, 0, 84, 50
2, 64800, Note_on_c, 0, 78, 50
2, 65030, Note_on_c, 0, 78, 0
2, 65030, Note_on_c, 0, 84, 0
2, 65040, Note_on_c, 0, 83, 50
2, 65040, Note_on_c, 0, 79, 50
2, 65160, Note_on_c, 0, 79, 0
2, 65160, Note_on_c, 0, 83, 0
2, 69600, Note_on_c, 0, 84, 100
2, 69720, Note_on_c, 0, 84, 0
2, 69840, Note_on_c, 0, 84, 100
2, 69960, Note_on_c, 0, 84, 0
2, 70080, Note_on_c, 0, 84, 100
2, 70200, Note_on_c, 0, 84, 0
2, 70320, Note_on_c, 0, 84, 100
2, 70440, Note_on_c, 0, 84, 0
2, 70560, Note_on_c, 0, 86, 100
2, 70560, Note_on_c, 0, 83, 100
2, 70680, Note_on_c, 0, 83, 0
2, 70680, Note_on_c, 0, 86, 0
2, 70800, Note_on_c, 0, 87, 100
2, 70800, Note_on_c, 0, 84, 100
2, 71750, Note_on_c, 0, 84, 0
2, 71750, Note_on_c, 0, 87, 0
2, 71760, Note_on_c, 0, 89, 100
2, 71760, Note_on_c, 0, 86, 100
2, 72590, Note_on_c, 0, 86, 0
2, 72590, Note_on_c, 0, 89, 0
2, 72600, Note_on_c, 0, 87, 100
2, 72600, Note_on_c, 0, 84, 100
2, 72710, Note_on_c, 0, 84, 0
2, 72710, Note_on_c, 0, 87, 0
2, 72720, Note_on_c, 0, 90, 127
2, 72720, Note_on_c, 0, 84, 127
2, 73670, Note_on_c, 0, 84, 0
2, 73670, Note_on_c, 0, 90, 0
2, 73680, Note_on_c, 0, 90, 127
2, 73680, Note_on_c, 0, 84, 127
2, 73800, Note_on_c, 0, 84, 0
2, 73800, Note_on_c, 0, 90, 0
2, 74160, Note_on_c, 0, 91, 127
2, 74160, Note_on_c, 0, 79, 127
2, 74280, Note_on_c, 0, 79, 0
2, 74280, Note_on_c, 0, 91, 0
2, 76320, Note_on_c, 0, 79, 50
2, 76440, Note_on_c, 0, 79, 0
2, 76440, Note_on_c, 0, 84, 50
2, 76560, Note_on_c, 0, 84, 0
2, 76560, Note_on_c, 0, 83, 50
2, 76680, Note_on_c, 0, 83, 0
2, 76680, Note_on_c, 0, 84, 50
2, 76800, Note_on_c, 0, 84, 0
2, 76800, Note_on_c, 0, 86, 50
2, 76920, Note_on_c, 0, 86, 0
2, 76920, Note_on_c, 0, 81, 50
2, 77030, Note_on_c, 0, 81, 0
2, 77040, Note_on_c, 0, 81, 50
2, 77160, Note_on_c, 0, 81, 0
2, 77160, Note_on_c, 0, 79, 50
2, 77280, Note_on_c, 0, 79, 0
2, 78240, Note_on_c, 0, 79, 50
2, 78360, Note_on_c, 0, 79, 0
2, 78360, Note_on_c, 0, 84, 50
2, 78480, Note_on_c, 0, 84, 0
2, 78480, Note_on_c, 0, 83, 50
2, 78600, Note_on_c, 0, 83, 0
2, 78600, Note_on_c, 0, 84, 50
2, 78720, Note_on_c, 0, 84, 0
2, 78720, Note_on_c, 0, 86, 50
2, 78840, Note_on_c, 0, 86, 0
2, 78840, Note_on_c, 0, 81, 50
2, 78950, Note_on_c, 0, 81, 0
2, 78960, Note_on_c, 0, 81, 50
2, 79080, Note_on_c, 0, 81, 0
2, 79080, Note_on_c, 0, 79, 50
2, 79200, Note_on_c, 0, 79, 0
2, 79680, Note_on_c, 0, 82, 50
2, 79800, Note_on_c, 0, 82, 0
2, 79800, Note_on_c, 0, 84, 50
2, 79920, Note_on_c, 0, 84, 0
2, 79920, Note_on_c, 0, 82, 50
2, 80040, Note_on_c, 0, 82, 0
2, 80040, Note_on_c, 0, 81, 50
2, 80160, Note_on_c, 0, 81, 0
2, 80640, Note_on_c, 0, 84, 50
2, 80760, Note_on_c, 0, 84, 0
2, 80760, Note_on_c, 0, 86, 50
2, 80880, Note_on_c, 0, 86, 0
2, 80880, Note_on_c, 0, 84, 50
2, 81000, Note_on_c, 0, 84, 0
2, 81000, Note_on_c, 0, 83, 50
2, 81120, Note_on_c, 0, 83, 0
2, 82800, Note_on_c, 0, 92, 85
2, 82920, Note_on_c, 0, 92, 0
2, 82920, Note_on_c, 0, 91, 88
2, 83040, Note_on_c, 0, 91, 0
2, 83040, Note_on_c, 0, 90, 91
2, 83160, Note_on_c, 0, 90, 0
2, 83160, Note_on_c, 0, 91, 93
2, 83270, Note_on_c, 0, 91, 0
2, 83280, Note_on_c, 0, 93, 96
2, 83400, Note_on_c, 0, 93, 0
2, 83400, Note_on_c, 0, 91, 98
2, 83520, Note_on_c, 0, 91, 0
2, 83520, Note_on_c, 0, 90, 101
2, 83640, Note_on_c, 0, 90, 0
2, 83640, Note_on_c, 0, 91, 103
2, 83750, Note_on_c, 0, 91, 0
2, 83760, Note_on_c, 0, 93, 106
2, 83880, Note_on_c, 0, 93, 0
2, 83880, Note_on_c, 0, 91, 109
2, 84000, Note_on_c, 0, 91, 0
2, 84000, Note_on_c, 0, 90, 111
2, 84120, Note_on_c, 0, 90, 0
2, 84120, Note_on_c, 0, 91, 114
2, 84240, Note_on_c, 0, 91, 0
2, 84240, Note_on_c, 0, 90, 116
2, 84360, Note_on_c, 0, 90, 0
2, 84360, Note_on_c, 0, 91, 119
2, 84480, Note_on_c, 0, 91, 0
2, 84480, Note_on_c, 0, 90, 121
2, 84600, Note_on_c, 0, 90, 0
2, 84600, Note_on_c, 0, 91, 124
2, 84710, Note_on_c, 0, 91, 0
2, 84720, Note_on_c, 0, 91, 127
2, 84720, Note_on_c, 0, 89, 127
2, 85070, Note_on_c, 0, 89, 0
2, 85070, Note_on_c, 0, 91, 0
2, 85080, Note_on_c, 0, 91, 127
2, 85080, Note_on_c, 0, 89, 127
2, 85190, Note_on_c, 0, 89, 0
2, 85190, Note_on_c, 0, 91, 0
2, 85200, Note_on_c, 0, 88, 127
2, 85200, Note_on_c, 0, 91, 127
2, 85320, Note_on_c, 0, 91, 0
2, 85320, Note_on_c, 0, 88, 0
2, 85440, Note_on_c, 0, 91, 127
2, 85440, Note_on_c, 0, 83, 127
2, 85560, Note_on_c, 0, 83, 0
2, 85560, Note_on_c, 0, 91, 0
2, 85680, Note_on_c, 0, 91, 127
2, 85680, Note_on_c, 0, 84, 127
2, 85800, Note_on_c, 0, 84, 0
2, 85800, Note_on_c, 0, 91, 0
2, 85920, Note_on_c, 0, 84, 127
2, 85920, Note_on_c, 0, 93, 127
2, 86040, Note_on_c, 0, 93, 0
2, 86040, Note_on_c, 0, 84, 0
2, 86160, Note_on_c, 0, 88, 127
2, 86160, Note_on_c, 0, 91, 127
2, 86280, Note_on_c, 0, 91, 0
2, 86280, Note_on_c, 0, 88, 0
2, 86400, Note_on_c, 0, 91, 127
2, 86400, Note_on_c, 0, 83, 127
2, 86460, Note_on_c, 0, 91, 0
2, 86460, Note_on_c, 0, 90, 127
2, 86520, Note_on_c, 0, 90, 0
2, 86520, Note_on_c, 0, 83, 0
2, 86520, Note_on_c, 0, 91, 127
2, 86580, Note_on_c, 0, 91, 0
2, 86580, Note_on_c, 0, 90, 127
2, 86630, Note_on_c, 0, 90, 0
2, 86640, Note_on_c, 0, 89, 127
2, 86640, Note_on_c, 0, 91, 127
2, 87110, Note_on_c, 0, 91, 0
2, 87110, Note_on_c, 0, 89, 0
2, 87120, Note_on_c, 0, 91, 127
2, 87120, Note_on_c, 0, 88, 127
2, 87230, Note_on_c, 0, 88, 0
2, 87230, Note_on_c, 0, 91, 0
2, 87240, Note_on_c, 0, 91, 127
2, 87240, Note_on_c, 0, 88, 127
2, 87360, Note_on_c, 0, 88, 0
2, 87360, Note_on_c, 0, 91, 0
2, 87480, Note_on_c, 0, 83, 127
2, 87480, Note_on_c, 0, 91, 127
2, 87600, Note_on_c, 0, 91, 0
2, 87600, Note_on_c, 0, 83, 0
2, 87720, Note_on_c, 0, 84, 127
2, 87720, Note_on_c, 0, 91, 127
2, 87840, Note_on_c, 0, 91, 0
2, 87840, Note_on_c, 0, 84, 0
2, 87960, Note_on_c, 0, 86, 127
2, 87960, Note_on_c, 0, 89, 127
2, 88080, Note_on_c, 0, 89, 0
2, 88080, Note_on_c, 0, 86, 0
2, 88200, Note_on_c, 0, 91, 127
2, 88200, Note_on_c, 0, 88, 127
2, 88320, Note_on_c, 0, 88, 0
2, 88320, Note_on_c, 0, 91, 0
2, 88440, Note_on_c, 0, 86, 127
2, 88440, Note_on_c, 0, 91, 127
2, 88550, Note_on_c, 0, 91, 0
2, 88550, Note_on_c, 0, 86, 0
2, 88560, Note_on_c, 0, 84, 127
2, 88610, Note_on_c, 0, 84, 0
2, 88620, Note_on_c, 0, 88, 127
2, 88670, Note_on_c, 0, 88, 0
2, 88680, Note_on_c, 0, 88, 127
2, 88730, Note_on_c, 0, 88, 0
2, 88740, Note_on_c, 0, 88, 127
2, 88790, Note_on_c, 0, 88, 0
2, 88800, Note_on_c, 0, 84, 127
2, 88850, Note_on_c, 0, 84, 0
2, 88860, Note_on_c, 0, 79, 127
2, 88910, Note_on_c, 0, 79, 0
2, 88920, Note_on_c, 0, 79, 127
2, 88970, Note_on_c, 0, 79, 0
2, 88980, Note_on_c, 0, 79, 127
2, 89030, Note_on_c, 0, 79, 0
2, 89040, Note_on_c, 0, 76, 127
2, 89090, Note_on_c, 0, 76, 0
2, 89100, Note_on_c, 0, 72, 127
2, 89150, Note_on_c, 0, 72, 0
2, 89160, Note_on_c, 0, 72, 127
2, 89210, Note_on_c, 0, 72, 0
2, 89220, Note_on_c, 0, 72, 127
2, 89270, Note_on_c, 0, 72, 0
2, 89280, Note_on_c, 0, 67, 127
2, 89570, Note_on_c, 0, 67, 0
2, 89580, Note_on_c, 0, 88, 127
2, 89630, Note_on_c, 0, 88, 0
2, 89640, Note_on_c, 0, 88, 127
2, 89690, Note_on_c, 0, 88, 0
2, 89700, Note_on_c, 0, 88, 127
2, 89750, Note_on_c, 0, 88, 0
2, 89760, Note_on_c, 0, 84, 127
2, 89810, Note_on_c, 0, 84, 0
2, 89820, Note_on_c, 0, 79, 127
2, 89870, Note_on_c, 0, 79, 0
2, 89880, Note_on_c, 0, 79, 127
2, 89930, Note_on_c, 0, 79, 0
2, 89940, Note_on_c, 0, 79, 127
2, 89990, Note_on_c, 0, 79, 0
2, 90000, Note_on_c, 0, 76, 127
2, 90050, Note_on_c, 0, 76, 0
2, 90060, Note_on_c, 0, 72, 127
2, 90110, Note_on_c, 0, 72, 0
2, 90120, Note_on_c, 0, 72, 127
2, 90170, Note_on_c, 0, 72, 0
2, 90180, Note_on_c, 0, 72, 127
2, 90230, Note_on_c, 0, 72, 0
2, 90240, Note_on_c, 0, 67, 127
2, 90290, Note_on_c, 0, 67, 0
2, 90300, Note_on_c, 0, 74, 127
2, 90300, Note_on_c, 0, 79, 127
2, 90350, Note_on_c, 0, 79, 0
2, 90350, Note_on_c, 0, 74, 0
2, 90360, Note_on_c, 0, 74, 127
2, 90360, Note_on_c, 0, 79, 127
2, 90410, Note_on_c, 0, 79, 0
2, 90410, Note_on_c, 0, 74, 0
2, 90420, Note_on_c, 0, 79, 127
2, 90420, Note_on_c, 0, 74, 127
2, 90470, Note_on_c, 0, 74, 0
2, 90470, Note_on_c, 0, 79, 0
2, 90480, Note_on_c, 0, 79, 127
2, 90480, Note_on_c, 0, 76, 127
2, 90600, Note_on_c, 0, 76, 0
2, 90600, Note_on_c, 0, 79, 0
2, 90780, Note_on_c, 0, 79, 127
2, 90780, Note_on_c, 0, 74, 127
2, 90830, Note_on_c, 0, 74, 0
2, 90830, Note_on_c, 0, 79, 0
2, 90840, Note_on_c, 0, 79, 127
2, 90840, Note_on_c, 0, 74, 127
2, 90890, Note_on_c, 0, 74, 0
2, 90890, Note_on_c, 0, 79, 0
2, 90900, Note_on_c, 0, 79, 127
2, 90900, Note_on_c, 0, 74, 127
2, 90950, Note_on_c, 0, 74, 0
2, 90950, Note_on_c, 0, 79, 0
2, 90960, Note_on_c, 0, 76, 127
2, 90960, Note_on_c, 0, 79, 127
2, 91080, Note_on_c, 0, 79, 0
2, 91080, Note_on_c, 0, 76, 0
2, 91260, Note_on_c, 0, 83, 127
2, 91260, Note_on_c, 0, 74, 127
2, 91310, Note_on_c, 0, 74, 0
2, 91310, Note_on_c, 0, 83, 0
2, 91320, Note_on_c, 0, 74, 127
2, 91320, Note_on_c, 0, 83, 127
2, 91370, Note_on_c, 0, 83, 0
2, 91370, Note_on_c, 0, 74, 0
2, 91380, Note_on_c, 0, 83, 127
2, 91380, Note_on_c, 0, 74, 127
2, 91430, Note_on_c, 0, 74, 0
2, 91430, Note_on_c, 0, 83, 0
2, 91440, Note_on_c, 0, 84, 127
2, 91440, Note_on_c, 0, 76, 127
2, 91490, Note_on_c, 0, 76, 0
2, 91490, Note_on_c, 0, 84, 0
2, 91500, Note_on_c, 0, 72, 127
2, 91500, Note_on_c, 0, 84, 127
2, 91550, Note_on_c, 0, 84, 0
2, 91550, Note_on_c, 0, 72, 0
2, 91560, Note_on_c, 0, 84, 127
2, 91560, Note_on_c, 0, 72, 127
2, 91610, Note_on_c, 0, 72, 0
2, 91610, Note_on_c, 0, 84, 0
2, 91620, Note_on_c, 0, 72, 127
2, 91620, Note_on_c, 0, 84, 127
2, 91670, Note_on_c, 0, 84, 0
2, 91670, Note_on_c, 0, 72, 0
2, 91680, Note_on_c, 0, 84, 127
2, 91680, Note_on_c, 0, 72, 127
2, 91920, Note_on_c, 0, 72, 0
2, 91920, Note_on_c, 0, 84, 0
2, 91920, Note_on_c, 0, 72, 127
2, 91920, Note_on_c, 0, 84, 127
2, 91970, Note_on_c, 0, 84, 0
2, 91970, Note_on_c, 0, 72, 0
2, 91980, Note_on_c, 0, 84, 127
2, 91980, Note_on_c, 0, 72, 127
2, 92030, Note_on_c, 0, 72, 0
2, 92030, Note_on_c, 0, 84, 0
2, 92040, Note_on_c, 0, 84, 127
2, 92040, Note_on_c, 0, 72, 127
2, 92090, Note_on_c, 0, 72, 0
2, 92090, Note_on_c, 0, 84, 0
2, 92100, Note_on_c, 0, 72, 127
2, 92100, Note_on_c, 0, 84, 127
2, 92150, Note_on_c, 0, 84, 0
2, 92150, Note_on_c, 0, 72, 0
2, 92160, Note_on_c, 0, 84, 127
2, 92160, Note_on_c, 0, 72, 127
2, 92400, Note_on_c, 0, 72, 0
2, 92400, Note_on_c, 0, 84, 0
2, 92400, Note_on_c, 0, 72, 127
2, 92400, Note_on_c, 0, 84, 127
2, 92450, Note_on_c, 0, 84, 0
2, 92450, Note_on_c, 0, 72, 0
2, 92460, Note_on_c, 0, 84, 127
2, 92460, Note_on_c, 0, 72, 127
2, 92510, Note_on_c, 0, 72, 0
2, 92510, Note_on_c, 0, 84, 0
2, 92520, Note_on_c, 0, 72, 127
2, 92520, Note_on_c, 0, 84, 127
2, 92570, Note_on_c, 0, 84, 0
2, 92570, Note_on_c, 0, 72, 0
2, 92580, Note_on_c, 0, 84, 127
2, 92580, Note_on_c, 0, 72, 127
2, 92630, Note_on_c, 0, 72, 0
2, 92630, Note_on_c, 0, 84, 0
2, 92640, Note_on_c, 0, 84, 127
2, 92640, Note_on_c, 0, 72, 127
2, 92880, Note_on_c, 0, 72, 0
2, 92880, Note_on_c, 0, 84, 0
2, 92880, Note_on_c, 0, 72, 127
2, 92880, Note_on_c, 0, 84, 127
2, 92930, Note_on_c, 0, 84, 0
2, 92930, Note_on_c, 0, 72, 0
2, 92940, Note_on_c, 0, 84, 127
2, 92940, Note_on_c, 0, 72, 127
2, 92990, Note_on_c, 0, 72, 0
2, 92990, Note_on_c, 0, 84, 0
2, 93000, Note_on_c, 0, 72, 127
2, 93000, Note_on_c, 0, 84, 127
2, 93050, Note_on_c, 0, 84, 0
2, 93050, Note_on_c, 0, 72, 0
2, 93060, Note_on_c, 0, 84, 127
2, 93060, Note_on_c, 0, 72, 127
2, 93110, Note_on_c, 0, 72, 0
2, 93110, Note_on_c, 0, 84, 0
2, 93120, Note_on_c, 0, 72, 127
2, 93120, Note_on_c, 0, 84, 127
2, 93350, Note_on_c, 0, 84, 0
2, 93350, Note_on_c, 0, 72, 0
2, 93360, Note_on_c, 0, 85, 127
2, 93360, Note_on_c, 0, 80, 127
2, 94310, Note_on_c, 0, 80, 0
2, 94310, Note_on_c, 0, 85, 0
2, 94320, Note_on_c, 0, 85, 127
2, 94320, Note_on_c, 0, 80, 127
2, 94440, Note_on_c, 0, 80, 0
2, 94440, Note_on_c, 0, 85, 0
2, 95340, Note_on_c, 0, 87, 127
2, 95340, Note_on_c, 0, 84, 127
2, 95390, Note_on_c, 0, 84, 0
2, 95390, Note_on_c, 0, 87, 0
2, 95400, Note_on_c, 0, 84, 127
2, 95400, Note_on_c, 0, 87, 127
2, 95450, Note_on_c, 0, 87, 0
2, 95450, Note_on_c, 0, 84, 0
2, 95460, Note_on_c, 0, 84, 127
2, 95460, Note_on_c, 0, 87, 127
2, 95510, Note_on_c, 0, 87, 0
2, 95510, Note_on_c, 0, 84, 0
2, 95520, Note_on_c, 0, 87, 127
2, 95520, Note_on_c, 0, 84, 127
2, 96470, Note_on_c, 0, 84, 0
2, 96470, Note_on_c, 0, 87, 0
2, 96480, Note_on_c, 0, 84, 127
2, 96480, Note_on_c, 0, 87, 127
2, 96600, Note_on_c, 0, 87, 0
2, 96600, Note_on_c, 0, 84, 0
2, 96780, Note_on_c, 0, 84, 127
2, 96830, Note_on_c, 0, 84, 0
2, 96840, Note_on_c, 0, 84, 127
2, 96890, Note_on_c, 0, 84, 0
2, 96900, Note_on_c, 0, 84, 127
2, 96950, Note_on_c, 0, 84, 0
2, 96960, Note_on_c, 0, 87, 127
2, 97080, Note_on_c, 0, 87, 0
2, 97920, Note_on_c, 0, 83, 100
2, 97920, Note_on_c, 0, 89, 100
2, 98400, Note_on_c, 0, 89, 0
2, 98400, Note_on_c, 0, 83, 0
2, 98880, Note_on_c, 0, 83, 100
2, 98880, Note_on_c, 0, 89, 100
2, 99360, Note_on_c, 0, 89, 0
2, 99360, Note_on_c, 0, 83, 0
2, 99840, Note_on_c, 0, 87, 100
2, 99950, Note_on_c, 0, 87, 0
2, 99960, Note_on_c, 0, 89, 100
2, 100070, Note_on_c, 0, 89, 0
2, 100080, Note_on_c, 0, 86, 100
2, 100190, Note_on_c, 0, 86, 0
2, 100200, Note_on_c, 0, 87, 100
2, 100310, Note_on_c, 0, 87, 0
2, 100320, Note_on_c, 0, 84, 100
2, 100430, Note_on_c, 0, 84, 0
2, 100440, Note_on_c, 0, 86, 100
2, 100550, Note_on_c, 0, 86, 0
2, 100560, Note_on_c, 0, 82, 100
2, 100670, Note_on_c, 0, 82, 0
2, 100680, Note_on_c, 0, 84, 100
2, 100790, Note_on_c, 0, 84, 0
2, 100800, Note_on_c, 0, 80, 100
2, 100910, Note_on_c, 0, 80, 0
2, 100920, Note_on_c, 0, 82, 100
2, 101030, Note_on_c, 0, 82, 0
2, 101040, Note_on_c, 0, 79, 100
2, 101150, Note_on_c, 0, 79, 0
2, 101160, Note_on_c, 0, 80, 100
2, 101270, Note_on_c, 0, 80, 0
2, 101280, Note_on_c, 0, 77, 100
2, 101390, Note_on_c, 0, 77, 0
2, 101400, Note_on_c, 0, 79, 100
2, 101510, Note_on_c, 0, 79, 0
2, 101520, Note_on_c, 0, 79, 100
2, 101630, Note_on_c, 0, 79, 0
2, 101640, Note_on_c, 0, 79, 100
2, 101750, Note_on_c, 0, 79, 0
2, 101760, Note_on_c, 0, 79, 100
2, 101870, Note_on_c, 0, 79, 0
2, 101880, Note_on_c, 0, 79, 100
2, 101990, Note_on_c, 0, 79, 0
2, 102000, Note_on_c, 0, 79, 100
2, 102110, Note_on_c, 0, 79, 0
2, 102120, Note_on_c, 0, 84, 102
2, 102230, Note_on_c, 0, 84, 0
2, 102240, Note_on_c, 0, 84, 105
2, 102350, Note_on_c, 0, 84, 0
2, 102360, Note_on_c, 0, 84, 108
2, 102470, Note_on_c, 0, 84, 0
2, 102480, Note_on_c, 0, 84, 110
2, 102590, Note_on_c, 0, 84, 0
2, 102600, Note_on_c, 0, 89, 113
2, 102600, Note_on_c, 0, 83, 113
2, 102710, Note_on_c, 0, 83, 0
2, 102710, Note_on_c, 0, 89, 0
2, 102720, Note_on_c, 0, 84, 116
2, 102720, Note_on_c, 0, 89, 116
2, 102830, Note_on_c, 0, 89, 0
2, 102830, Note_on_c, 0, 84, 0
2, 102840, Note_on_c, 0, 89, 118
2, 102840, Note_on_c, 0, 83, 118
2, 102950, Note_on_c, 0, 83, 0
2, 102950, Note_on_c, 0, 89, 0
2, 102960, Note_on_c, 0, 89, 121
2, 102960, Note_on_c, 0, 84, 121
2, 103070, Note_on_c, 0, 84, 0
2, 103070, Note_on_c, 0, 89, 0
2, 103080, Note_on_c, 0, 86, 124
2, 103080, Note_on_c, 0, 89, 124
2, 103190, Note_on_c, 0, 89, 0
2, 103190, Note_on_c, 0, 86, 0
2, 103200, Note_on_c, 0, 84, 127
2, 103200, Note_on_c, 0, 87, 127
2, 103670, Note_on_c, 0, 87, 0
2, 103670, Note_on_c, 0, 84, 0
2, 103680, Note_on_c, 0, 89, 127
2, 103680, Note_on_c, 0, 84, 127
2, 104150, Note_on_c, 0, 84, 0
2, 104150, Note_on_c, 0, 89, 0
2, 104160, Note_on_c, 0, 91, 127
2, 104160, Note_on_c, 0, 84, 127
2, 104630, Note_on_c, 0, 84, 0
2, 104630, Note_on_c, 0, 91, 0
2, 104640, Note_on_c, 0, 89, 127
2, 104640, Note_on_c, 0, 84, 127
2, 105110, Note_on_c, 0, 84, 0
2, 105110, Note_on_c, 0, 89, 0
2, 105120, Note_on_c, 0, 89, 127
2, 105120, Note_on_c, 0, 86, 127
2, 105350, Note_on_c, 0, 86, 0
2, 105350, Note_on_c, 0, 89, 0
2, 105360, Note_on_c, 0, 91, 127
2, 105360, Note_on_c, 0, 86, 127
2, 105590, Note_on_c, 0, 86, 0
2, 105590, Note_on_c, 0, 91, 0
2, 105600, Note_on_c, 0, 87, 127
2, 105600, Note_on_c, 0, 91, 127
2, 105690, Note_on_c, 0, 91, 0
2, 105690, Note_on_c, 0, 87, 0
2, 105840, Note_on_c, 0, 92, 127
2, 105840, Note_on_c, 0, 87, 127
2, 105930, Note_on_c, 0, 87, 0
2, 105930, Note_on_c, 0, 92, 0
2, 106080, Note_on_c, 0, 86, 127
2, 106080, Note_on_c, 0, 92, 127
2, 106170, Note_on_c, 0, 92, 0
2, 106170, Note_on_c, 0, 86, 0
2, 106320, Note_on_c, 0, 92, 127
2, 106320, Note_on_c, 0, 86, 127
2, 106410, Note_on_c, 0, 86, 0
2, 106410, Note_on_c, 0, 92, 0
2, 106560, Note_on_c, 0, 91, 127
2, 106560, Note_on_c, 0, 86, 127
2, 106650, Note_on_c, 0, 86, 0
2, 106650, Note_on_c, 0, 91, 0
2, 106800, Note_on_c, 0, 86, 127
2, 106800, Note_on_c, 0, 91, 127
2, 106890, Note_on_c, 0, 91, 0
2, 106890, Note_on_c, 0, 86, 0
2, 107040, Note_on_c, 0, 84, 127
2, 107270, Note_on_c, 0, 84, 0
2, 107280, Note_on_c, 0, 86, 127
2, 107370, Note_on_c, 0, 86, 0
2, 107400, Note_on_c, 0, 87, 127
2, 107490, Note_on_c, 0, 87, 0
2, 107520, Note_on_c, 0, 89, 127
2, 107640, Note_on_c, 0, 89, 0
2, 107640, Note_on_c, 0, 86, 127
2, 107760, Note_on_c, 0, 86, 0
2, 108240, Note_on_c, 0, 77, 127
2, 108240, Note_on_c, 0, 89, 127
2, 108330, Note_on_c, 0, 89, 0
2, 108330, Note_on_c, 0, 77, 0
2, 108360, Note_on_c, 0, 91, 127
2, 108360, Note_on_c, 0, 79, 127
2, 108450, Note_on_c, 0, 79, 0
2, 108450, Note_on_c, 0, 91, 0
2, 108480, Note_on_c, 0, 80, 127
2, 108480, Note_on_c, 0, 92, 127
2, 108600, Note_on_c, 0, 92, 0
2, 108600, Note_on_c, 0, 80, 0
2, 108600, Note_on_c, 0, 89, 127
2, 108600, Note_on_c, 0, 77, 127
2, 108720, Note_on_c, 0, 77, 0
2, 108720, Note_on_c, 0, 89, 0
2, 109200, Note_on_c, 0, 81, 127
2, 109200, Note_on_c, 0, 84, 127
2, 109290, Note_on_c, 0, 84, 0
2, 109290, Note_on_c, 0, 81, 0
2, 109320, Note_on_c, 0, 86, 127
2, 109320, Note_on_c, 0, 83, 127
2, 109410, Note_on_c, 0, 83, 0
2, 109410, Note_on_c, 0, 86, 0
2, 109440, Note_on_c, 0, 87, 127
2, 109440, Note_on_c, 0, 84, 127
2, 109560, Note_on_c, 0, 84, 0
2, 109560, Note_on_c, 0, 87, 0
2, 109560, Note_on_c, 0, 79, 127
2, 109560, Note_on_c, 0, 84, 127
2, 109680, Note_on_c, 0, 84, 0
2, 109680, Note_on_c, 0, 79, 0
2, 110160, Note_on_c, 0, 84, 127
2, 110160, Note_on_c, 0, 81, 127
2, 110250, Note_on_c, 0, 81, 0
2, 110250, Note_on_c, 0, 84, 0
2, 110280, Note_on_c, 0, 83, 127
2, 110280, Note_on_c, 0, 86, 127
2, 110370, Note_on_c, 0, 86, 0
2, 110370, Note_on_c, 0, 83, 0
2, 110400, Note_on_c, 0, 87, 127
2, 110400, Note_on_c, 0, 84, 127
2, 110520, Note_on_c, 0, 84, 0
2, 110520, Note_on_c, 0, 87, 0
2, 110520, Note_on_c, 0, 82, 127
2, 110520, Note_on_c, 0, 86, 127
2, 110640, Note_on_c, 0, 86, 0
2, 110640, Note_on_c, 0, 82, 0
2, 110640, Note_on_c, 0, 84, 127
2, 110640, Note_on_c, 0, 80, 127
2, 110760, Note_on_c, 0, 80, 0
2, 110760, Note_on_c, 0, 84, 0
2, 110760, Note_on_c, 0, 82, 127
2, 110760, Note_on_c, 0, 79, 127
2, 110880, Note_on_c, 0, 79, 0
2, 110880, Note_on_c, 0, 82, 0
2, 110880, Note_on_c, 0, 77, 127
2, 110880, Note_on_c, 0, 80, 127
2, 111000, Note_on_c, 0, 80, 0
2, 111000, Note_on_c, 0, 77, 0
2, 111000, Note_on_c, 0, 79, 127
2, 111000, Note_on_c, 0, 75, 127
2, 111120, Note_on_c, 0, 75, 0
2, 111120, Note_on_c, 0, 79, 0
2, 111360, Note_on_c, 0, 80, 127
2, 111360, Note_on_c, 0, 77, 127
2, 111480, Note_on_c, 0, 77, 0
2, 111480, Note_on_c, 0, 80, 0
2, 111480, Note_on_c, 0, 75, 127
2, 111480, Note_on_c, 0, 79, 127
2, 111590, Note_on_c, 0, 79, 0
2, 111590, Note_on_c, 0, 75, 0
2, 111600, Note_on_c, 0, 89, 127
2, 111600, Note_on_c, 0, 92, 127
2, 111720, Note_on_c, 0, 92, 0
2, 111720, Note_on_c, 0, 89, 0
2, 111720, Note_on_c, 0, 91, 127
2, 111720, Note_on_c, 0, 87, 127
2, 111840, Note_on_c, 0, 87, 0
2, 111840, Note_on_c, 0, 91, 0
2, 111960, Note_on_c, 0, 91, 127
2, 111960, Note_on_c, 0, 84, 127
2, 112080, Note_on_c, 0, 84, 0
2, 112080, Note_on_c, 0, 91, 0
2, 112200, Note_on_c, 0, 86, 127
2, 112200, Note_on_c, 0, 91, 127
2, 112320, Note_on_c, 0, 91, 0
2, 112320, Note_on_c, 0, 86, 0
2, 113040, Note_on_c, 0, 80, 127
2, 113160, Note_on_c, 0, 80, 0
2, 113160, Note_on_c, 0, 79, 127
2, 113280, Note_on_c, 0, 79, 0
2, 113520, Note_on_c, 0, 89, 127
2, 113520, Note_on_c, 0, 92, 127
2, 113640, Note_on_c, 0, 92, 0
2, 113640, Note_on_c, 0, 89, 0
2, 113640, Note_on_c, 0, 91, 127
2, 113640, Note_on_c, 0, 87, 127
2, 113760, Note_on_c, 0, 87, 0
2, 113760, Note_on_c, 0, 91, 0
2, 113880, Note_on_c, 0, 87, 127
2, 113880, Note_on_c, 0, 91, 127
2, 114000, Note_on_c, 0, 91, 0
2, 114000, Note_on_c, 0, 87, 0
2, 114120, Note_on_c, 0, 91, 127
2, 114120, Note_on_c, 0, 86, 127
2, 114230, Note_on_c, 0, 86, 0
2, 114230, Note_on_c, 0, 91, 0
2, 114240, Note_on_c, 0, 84, 127
2, 114360, Note_on_c, 0, 84, 0
2, 114540, Note_on_c, 0, 91, 127
2, 114540, Note_on_c, 0, 86, 127
2, 114600, Note_on_c, 0, 86, 0
2, 114600, Note_on_c, 0, 91, 0
2, 114600, Note_on_c, 0, 86, 127
2, 114600, Note_on_c, 0, 91, 127
2, 114660, Note_on_c, 0, 91, 0
2, 114660, Note_on_c, 0, 86, 0
2, 114660, Note_on_c, 0, 91, 127
2, 114660, Note_on_c, 0, 86, 127
2, 114720, Note_on_c, 0, 86, 0
2, 114720, Note_on_c, 0, 91, 0
2, 114720, Note_on_c, 0, 91, 127
2, 114720, Note_on_c, 0, 86, 127
2, 115080, Note_on_c, 0, 86, 0
2, 115080, Note_on_c, 0, 87, 127
2, 115200, Note_on_c, 0, 87, 0
2, 115200, Note_on_c, 0, 89, 127
2, 115320, Note_on_c, 0, 89, 0
2, 115320, Note_on_c, 0, 86, 127
2, 115440, Note_on_c, 0, 86, 0
2, 115440, Note_on_c, 0, 87, 127
2, 115560, Note_on_c, 0, 87, 0
2, 115560, Note_on_c, 0, 89, 127
2, 115670, Note_on_c, 0, 89, 0
2, 115670, Note_on_c, 0, 91, 0
2, 115680, Note_on_c, 0, 91, 127
2, 115680, Note_on_c, 0, 87, 127
2, 115800, Note_on_c, 0, 87, 0
2, 115800, Note_on_c, 0, 91, 0
2, 115980, Note_on_c, 0, 79, 127
2, 115980, Note_on_c, 0, 91, 127
2, 116030, Note_on_c, 0, 91, 0
2, 116030, Note_on_c, 0, 79, 0
2, 116040, Note_on_c, 0, 79, 127
2, 116040, Note_on_c, 0, 91, 127
2, 116090, Note_on_c, 0, 91, 0
2, 116090, Note_on_c, 0, 79, 0
2, 116100, Note_on_c, 0, 79, 127
2, 116100, Note_on_c, 0, 91, 127
2, 116150, Note_on_c, 0, 91, 0
2, 116150, Note_on_c, 0, 79, 0
2, 116160, Note_on_c, 0, 91, 127
2, 116160, Note_on_c, 0, 79, 127
2, 116210, Note_on_c, 0, 79, 0
2, 116210, Note_on_c, 0, 91, 0
2, 116220, Note_on_c, 0, 79, 127
2, 116220, Note_on_c, 0, 91, 127
2, 116270, Note_on_c, 0, 91, 0
2, 116270, Note_on_c, 0, 79, 0
2, 116280, Note_on_c, 0, 91, 127
2, 116280, Note_on_c, 0, 79, 127
2, 116330, Note_on_c, 0, 79, 0
2, 116330, Note_on_c, 0, 91, 0
2, 116340, Note_on_c, 0, 91, 127
2, 116340, Note_on_c, 0, 79, 127
2, 116390, Note_on_c, 0, 79, 0
2, 116390, Note_on_c, 0, 91, 0
2, 116400, Note_on_c, 0, 79, 127
2, 116400, Note_on_c, 0, 91, 127
2, 116450, Note_on_c, 0, 91, 0
2, 116450, Note_on_c, 0, 79, 0
2, 116460, Note_on_c, 0, 79, 127
2, 116460, Note_on_c, 0, 91, 127
2, 116510, Note_on_c, 0, 91, 0
2, 116510, Note_on_c, 0, 79, 0
2, 116520, Note_on_c, 0, 91, 127
2, 116520, Note_on_c, 0, 79, 127
2, 116570, Note_on_c, 0, 79, 0
2, 116570, Note_on_c, 0, 91, 0
2, 116580, Note_on_c, 0, 91, 127
2, 116580, Note_on_c, 0, 79, 127
2, 116630, Note_on_c, 0, 79, 0
2, 116630, Note_on_c, 0, 91, 0
2, 116640, Note_on_c, 0, 91, 127
2, 116640, Note_on_c, 0, 87, 127
2, 117350, Note_on_c, 0, 87, 0
2, 117350, Note_on_c, 0, 91, 0
2, 117420, Note_on_c, 0, 91, 127
2, 117420, Note_on_c, 0, 89, 127
2, 117470, Note_on_c, 0, 89, 0
2, 117470, Note_on_c, 0, 91, 0
2, 117480, Note_on_c, 0, 91, 127
2, 117480, Note_on_c, 0, 89, 127
2, 117530, Note_on_c, 0, 89, 0
2, 117530, Note_on_c, 0, 91, 0
2, 117540, Note_on_c, 0, 89, 127
2, 117540, Note_on_c, 0, 91, 127
2, 117590, Note_on_c, 0, 91, 0
2, 117590, Note_on_c, 0, 89, 0
2, 117600, Note_on_c, 0, 91, 127
2, 117600, Note_on_c, 0, 86, 127
2, 118560, Note_on_c, 0, 86, 0
2, 118560, Note_on_c, 0, 91, 0
2, 120540, Note_on_c, 0, 83, 100
2, 120540, Note_on_c, 0, 86, 100
2, 120590, Note_on_c, 0, 86, 0
2, 120590, Note_on_c, 0, 83, 0
2, 120600, Note_on_c, 0, 86, 100
2, 120600, Note_on_c, 0, 83, 100
2, 120650, Note_on_c, 0, 83, 0
2, 120650, Note_on_c, 0, 86, 0
2, 120660, Note_on_c, 0, 86, 100
2, 120660, Note_on_c, 0, 83, 100
2, 120710, Note_on_c, 0, 83, 0
2, 120710, Note_on_c, 0, 86, 0
2, 120720, Note_on_c, 0, 84, 100
2, 120720, Note_on_c, 0, 87, 100
2, 120840, Note_on_c, 0, 87, 0
2, 120840, Note_on_c, 0, 84, 0
2, 121020, Note_on_c, 0, 86, 100
2, 121020, Note_on_c, 0, 83, 100
2, 121070, Note_on_c, 0, 83, 0
2, 121070, Note_on_c, 0, 86, 0
2, 121080, Note_on_c, 0, 83, 100
2, 121080, Note_on_c, 0, 86, 100
2, 121130, Note_on_c, 0, 86, 0
2, 121130, Note_on_c, 0, 83, 0
2, 121140, Note_on_c, 0, 86, 100
2, 121140, Note_on_c, 0, 83, 100
2, 121190, Note_on_c, 0, 83, 0
2, 121190, Note_on_c, 0, 86, 0
2, 121200, Note_on_c, 0, 84, 100
2, 121200, Note_on_c, 0, 87, 100
2, 121320, Note_on_c, 0, 87, 0
2, 121320, Note_on_c, 0, 84, 0
2, 121500, Note_on_c, 0, 86, 101
2, 121500, Note_on_c, 0, 83, 101
2, 121550, Note_on_c, 0, 83, 0
2, 121550, Note_on_c, 0, 86, 0
2, 121560, Note_on_c, 0, 86, 102
2, 121560, Note_on_c, 0, 83, 102
2, 121610, Note_on_c, 0, 83, 0
2, 121610, Note_on_c, 0, 86, 0
2, 121620, Note_on_c, 0, 83, 104
2, 121620, Note_on_c, 0, 86, 104
2, 121670, Note_on_c, 0, 86, 0
2, 121670, Note_on_c, 0, 83, 0
2, 121680, Note_on_c, 0, 87, 105
2, 121680, Note_on_c, 0, 84, 105
2, 121790, Note_on_c, 0, 84, 0
2, 121790, Note_on_c, 0, 87, 0
2, 121800, Note_on_c, 0, 86, 108
2, 121800, Note_on_c, 0, 91, 108
2, 121910, Note_on_c, 0, 91, 0
2, 121910, Note_on_c, 0, 86, 0
2, 121920, Note_on_c, 0, 91, 110
2, 121920, Note_on_c, 0, 87, 110
2, 122030, Note_on_c, 0, 87, 0
2, 122030, Note_on_c, 0, 91, 0
2, 122040, Note_on_c, 0, 86, 113
2, 122040, Note_on_c, 0, 91, 113
2, 122150, Note_on_c, 0, 91, 0
2, 122150, Note_on_c, 0, 86, 0
2, 122160, Note_on_c, 0, 91, 116
2, 122160, Note_on_c, 0, 87, 116
2, 122270, Note_on_c, 0, 87, 0
2, 122270, Note_on_c, 0, 91, 0
2, 122280, Note_on_c, 0, 91, 118
2, 122280, Note_on_c, 0, 86, 118
2, 122390, Note_on_c, 0, 86, 0
2, 122390, Note_on_c, 0, 91, 0
2, 122400, Note_on_c, 0, 87, 121
2, 122400, Note_on_c, 0, 91, 121
2, 122510, Note_on_c, 0, 91, 0
2, 122510, Note_on_c, 0, 87, 0
2, 122520, Note_on_c, 0, 91, 124
2, 122520, Note_on_c, 0, 86, 124
2, 122630, Note_on_c, 0, 86, 0
2, 122630, Note_on_c, 0, 91, 0
2, 122640, Note_on_c, 0, 87, 127
2, 122640, Note_on_c, 0, 91, 127
2, 122760, Note_on_c, 0, 91, 0
2, 122760, Note_on_c, 0, 87, 0
2, 122880, Note_on_c, 0, 83, 127
2, 122880, Note_on_c, 0, 79, 127
2, 123000, Note_on_c, 0, 79, 0
2, 123000, Note_on_c, 0, 83, 0
2, 123120, Note_on_c, 0, 79, 127
2, 123120, Note_on_c, 0, 84, 127
2, 123240, Note_on_c, 0, 84, 0
2, 123240, Note_on_c, 0, 79, 0
2, 123240, End_track
3, 0, Start_track
3, 0, MIDI_port, 0
3, 0, Title_t, "Oboi"
3, 0, Program_c, 1, 68
3, 0, Control_c, 1, 7, 127
3, 0, Control_c, 1, 10, 72
3, 4140, Note_on_c, 1, 74, 65
3, 4140, Note_on_c, 1, 79, 65
3, 4190, Note_on_c, 1, 79, 0
3, 4190, Note_on_c, 1, 74, 0
3, 4200, Note_on_c, 1, 79, 85
3, 4200, Note_on_c, 1, 74, 85
3, 4250, Note_on_c, 1, 74, 0
3, 4250, Note_on_c, 1, 79, 0
3, 4260, Note_on_c, 1, 77, 106
3, 4260, Note_on_c, 1, 74, 106
3, 4310, Note_on_c, 1, 74, 0
3, 4310, Note_on_c, 1, 77, 0
3, 4320, Note_on_c, 1, 75, 127
3, 4320, Note_on_c, 1, 72, 127
3, 4440, Note_on_c, 1, 72, 0
3, 4440, Note_on_c, 1, 75, 0
3, 4560, Note_on_c, 1, 78, 127
3, 4560, Note_on_c, 1, 72, 127
3, 4680, Note_on_c, 1, 72, 0
3, 4680, Note_on_c, 1, 78, 0
3, 4800, Note_on_c, 1, 71, 127
3, 4800, Note_on_c, 1, 79, 127
3, 4920, Note_on_c, 1, 79, 0
3, 4920, Note_on_c, 1, 71, 0
3, 5100, Note_on_c, 1, 80, 127
3, 5150, Note_on_c, 1, 80, 0
3, 5160, Note_on_c, 1, 80, 127
3, 5210, Note_on_c, 1, 80, 0
3, 5220, Note_on_c, 1, 80, 127
3, 5270, Note_on_c, 1, 80, 0
3, 5280, Note_on_c, 1, 77, 127
3, 5760, Note_on_c, 1, 77, 0
3, 7500, Note_on_c, 1, 77, 50
3, 7550, Note_on_c, 1, 77, 0
3, 7560, Note_on_c, 1, 77, 50
3, 7610, Note_on_c, 1, 77, 0
3, 7620, Note_on_c, 1, 77, 50
3, 7670, Note_on_c, 1, 77, 0
3, 7680, Note_on_c, 1, 75, 50
3, 7800, Note_on_c, 1, 75, 0
3, 8400, Note_on_c, 1, 79, 80
3, 8400, Note_on_c, 1, 75, 80
3, 8760, Note_on_c, 1, 75, 0
3, 8760, Note_on_c, 1, 79, 0
3, 8880, Note_on_c, 1, 80, 100
3, 8880, Note_on_c, 1, 77, 100
3, 9000, Note_on_c, 1, 77, 0
3, 9000, Note_on_c, 1, 80, 0
3, 9120, Note_on_c, 1, 79, 100
3, 9120, Note_on_c, 1, 76, 100
3, 9240, Note_on_c, 1, 76, 0
3, 9240, Note_on_c, 1, 79, 0
3, 9360, Note_on_c, 1, 80, 100
3, 9360, Note_on_c, 1, 77, 100
3, 9480, Note_on_c, 1, 77, 0
3, 9480, Note_on_c, 1, 80, 0
3, 9600, Note_on_c, 1, 82, 100
3, 9600, Note_on_c, 1, 79, 100
3, 9720, Note_on_c, 1, 79, 0
3, 9720, Note_on_c, 1, 82, 0
3, 9840, Note_on_c, 1, 77, 100
3, 9840, Note_on_c, 1, 80, 100
3, 9960, Note_on_c, 1, 80, 0
3, 9960, Note_on_c, 1, 77, 0
3, 10080, Note_on_c, 1, 77, 100
3, 10080, Note_on_c, 1, 80, 100
3, 10200, Note_on_c, 1, 80, 0
3, 10200, Note_on_c, 1, 77, 0
3, 10320, Note_on_c, 1, 79, 100
3, 10320, Note_on_c, 1, 75, 100
3, 11270, Note_on_c, 1, 75, 0
3, 11270, Note_on_c, 1, 79, 0
3, 11280, Note_on_c, 1, 79, 100
3, 11280, Note_on_c, 1, 77, 100
3, 12110, Note_on_c, 1, 77, 0
3, 12110, Note_on_c, 1, 79, 0
3, 12120, Note_on_c, 1, 75, 100
3, 12120, Note_on_c, 1, 79, 100
3, 12230, Note_on_c, 1, 79, 0
3, 12230, Note_on_c, 1, 75, 0
3, 12240, Note_on_c, 1, 75, 127
3, 12240, Note_on_c, 1, 78, 127
3, 13190, Note_on_c, 1, 78, 0
3, 13190, Note_on_c, 1, 75, 0
3, 13200, Note_on_c, 1, 78, 127
3, 13200, Note_on_c, 1, 75, 127
3, 13320, Note_on_c, 1, 75, 0
3, 13320, Note_on_c, 1, 78, 0
3, 13680, Note_on_c, 1, 77, 127
3, 13680, Note_on_c, 1, 70, 127
3, 13800, Note_on_c, 1, 70, 0
3, 13800, Note_on_c, 1, 77, 0
3, 19920, Note_on_c, 1, 84, 50
3, 20390, Note_on_c, 1, 84, 0
3, 20400, Note_on_c, 1, 82, 65
3, 20870, Note_on_c, 1, 82, 0
3, 20880, Note_on_c, 1, 81, 80
3, 21950, Note_on_c, 1, 81, 0
3, 21960, Note_on_c, 1, 81, 115
3, 22070, Note_on_c, 1, 81, 0
3, 22080, Note_on_c, 1, 81, 119
3, 22190, Note_on_c, 1, 81, 0
3, 22200, Note_on_c, 1, 81, 123
3, 22310, Note_on_c, 1, 81, 0
3, 22320, Note_on_c, 1, 77, 127
3, 22320, Note_on_c, 1, 80, 127
3, 22670, Note_on_c, 1, 80, 0
3, 22670, Note_on_c, 1, 77, 0
3, 22680, Note_on_c, 1, 80, 127
3, 22680, Note_on_c, 1, 77, 127
3, 22790, Note_on_c, 1, 77, 0
3, 22790, Note_on_c, 1, 80, 0
3, 22800, Note_on_c, 1, 79, 127
3, 22800, Note_on_c, 1, 75, 127
3, 22920, Note_on_c, 1, 75, 0
3, 22920, Note_on_c, 1, 79, 0
3, 23040, Note_on_c, 1, 80, 127
3, 23160, Note_on_c, 1, 80, 0
3, 23280, Note_on_c, 1, 75, 127
3, 23280, Note_on_c, 1, 82, 127
3, 23400, Note_on_c, 1, 82, 0
3, 23400, Note_on_c, 1, 75, 0
3, 23520, Note_on_c, 1, 75, 127
3, 23520, Note_on_c, 1, 84, 127
3, 23640, Note_on_c, 1, 84, 0
3, 23640, Note_on_c, 1, 75, 0
3, 23760, Note_on_c, 1, 75, 127
3, 23760, Note_on_c, 1, 79, 127
3, 23880, Note_on_c, 1, 79, 0
3, 23880, Note_on_c, 1, 75, 0
3, 24000, Note_on_c, 1, 77, 127
3, 24000, Note_on_c, 1, 74, 127
3, 24120, Note_on_c, 1, 74, 0
3, 24120, Note_on_c, 1, 77, 0
3, 24240, Note_on_c, 1, 77, 127
3, 24240, Note_on_c, 1, 80, 127
3, 24710, Note_on_c, 1, 80, 0
3, 24710, Note_on_c, 1, 77, 0
3, 24720, Note_on_c, 1, 75, 127
3, 24720, Note_on_c, 1, 79, 127
3, 24830, Note_on_c, 1, 79, 0
3, 24830, Note_on_c, 1, 75, 0
3, 24840, Note_on_c, 1, 79, 127
3, 24840, Note_on_c, 1, 75, 127
3, 24960, Note_on_c, 1, 75, 0
3, 24960, Note_on_c, 1, 79, 0
3, 25080, Note_on_c, 1, 74, 127
3, 25080, Note_on_c, 1, 77, 127
3, 25200, Note_on_c, 1, 77, 0
3, 25200, Note_on_c, 1, 74, 0
3, 25320, Note_on_c, 1, 75, 127
3, 25320, Note_on_c, 1, 79, 127
3, 25440, Note_on_c, 1, 79, 0
3, 25440, Note_on_c, 1, 75, 0
3, 25560, Note_on_c, 1, 75, 127
3, 25560, Note_on_c, 1, 77, 127
3, 25680, Note_on_c, 1, 77, 0
3, 25680, Note_on_c, 1, 75, 0
3, 25800, Note_on_c, 1, 79, 127
3, 25800, Note_on_c, 1, 75, 127
3, 25920, Note_on_c, 1, 75, 0
3, 25920, Note_on_c, 1, 79, 0
3, 26040, Note_on_c, 1, 74, 127
3, 26040, Note_on_c, 1, 77, 127
3, 26150, Note_on_c, 1, 77, 0
3, 26150, Note_on_c, 1, 74, 0
3, 26160, Note_on_c, 1, 79, 127
3, 26160, Note_on_c, 1, 75, 127
3, 26210, Note_on_c, 1, 75, 0
3, 26210, Note_on_c, 1, 79, 0
3, 26220, Note_on_c, 1, 79, 127
3, 26270, Note_on_c, 1, 79, 0
3, 26280, Note_on_c, 1, 79, 127
3, 26330, Note_on_c, 1, 79, 0
3, 26340, Note_on_c, 1, 79, 127
3, 26390, Note_on_c, 1, 79, 0
3, 26400, Note_on_c, 1, 75, 127
3, 26450, Note_on_c, 1, 75, 0
3, 26460, Note_on_c, 1, 82, 127
3, 26510, Note_on_c, 1, 82, 0
3, 26520, Note_on_c, 1, 82, 127
3, 26570, Note_on_c, 1, 82, 0
3, 26580, Note_on_c, 1, 82, 127
3, 26630, Note_on_c, 1, 82, 0
3, 26640, Note_on_c, 1, 79, 127
3, 26690, Note_on_c, 1, 79, 0
3, 26700, Note_on_c, 1, 75, 127
3, 26750, Note_on_c, 1, 75, 0
3, 26760, Note_on_c, 1, 75, 127
3, 26810, Note_on_c, 1, 75, 0
3, 26820, Note_on_c, 1, 75, 127
3, 26870, Note_on_c, 1, 75, 0
3, 26880, Note_on_c, 1, 70, 127
3, 27170, Note_on_c, 1, 70, 0
3, 27180, Note_on_c, 1, 79, 127
3, 27230, Note_on_c, 1, 79, 0
3, 27240, Note_on_c, 1, 79, 127
3, 27290, Note_on_c, 1, 79, 0
3, 27300, Note_on_c, 1, 79, 127
3, 27350, Note_on_c, 1, 79, 0
3, 27360, Note_on_c, 1, 75, 127
3, 27410, Note_on_c, 1, 75, 0
3, 27420, Note_on_c, 1, 82, 127
3, 27470, Note_on_c, 1, 82, 0
3, 27480, Note_on_c, 1, 82, 127
3, 27530, Note_on_c, 1, 82, 0
3, 27540, Note_on_c, 1, 82, 127
3, 27590, Note_on_c, 1, 82, 0
3, 27600, Note_on_c, 1, 79, 127
3, 27650, Note_on_c, 1, 79, 0
3, 27660, Note_on_c, 1, 75, 127
3, 27710, Note_on_c, 1, 75, 0
3, 27720, Note_on_c, 1, 75, 127
3, 27770, Note_on_c, 1, 75, 0
3, 27780, Note_on_c, 1, 75, 127
3, 27830, Note_on_c, 1, 75, 0
3, 27840, Note_on_c, 1, 70, 127
3, 28200, Note_on_c, 1, 70, 0
3, 28380, Note_on_c, 1, 74, 127
3, 28380, Note_on_c, 1, 77, 127
3, 28430, Note_on_c, 1, 77, 0
3, 28430, Note_on_c, 1, 74, 0
3, 28440, Note_on_c, 1, 74, 127
3, 28440, Note_on_c, 1, 77, 127
3, 28490, Note_on_c, 1, 77, 0
3, 28490, Note_on_c, 1, 74, 0
3, 28500, Note_on_c, 1, 77, 127
3, 28500, Note_on_c, 1, 74, 127
3, 28550, Note_on_c, 1, 74, 0
3, 28550, Note_on_c, 1, 77, 0
3, 28560, Note_on_c, 1, 79, 127
3, 28560, Note_on_c, 1, 75, 127
3, 28680, Note_on_c, 1, 75, 0
3, 28680, Note_on_c, 1, 79, 0
3, 28860, Note_on_c, 1, 77, 127
3, 28860, Note_on_c, 1, 82, 127
3, 28910, Note_on_c, 1, 82, 0
3, 28910, Note_on_c, 1, 77, 0
3, 28920, Note_on_c, 1, 82, 127
3, 28920, Note_on_c, 1, 77, 127
3, 28970, Note_on_c, 1, 77, 0
3, 28970, Note_on_c, 1, 82, 0
3, 28980, Note_on_c, 1, 82, 127
3, 28980, Note_on_c, 1, 77, 127
3, 29030, Note_on_c, 1, 77, 0
3, 29030, Note_on_c, 1, 82, 0
3, 29040, Note_on_c, 1, 75, 127
3, 29040, Note_on_c, 1, 79, 127
3, 29160, Note_on_c, 1, 79, 0
3, 29160, Note_on_c, 1, 75, 0
3, 36540, Note_on_c, 1, 78, 50
3, 36590, Note_on_c, 1, 78, 0
3, 36600, Note_on_c, 1, 78, 50
3, 36650, Note_on_c, 1, 78, 0
3, 36660, Note_on_c, 1, 81, 50
3, 36710, Note_on_c, 1, 81, 0
3, 36720, Note_on_c, 1, 79, 50
3, 36950, Note_on_c, 1, 79, 0
3, 36960, Note_on_c, 1, 78, 50
3, 37010, Note_on_c, 1, 78, 0
3, 37020, Note_on_c, 1, 78, 50
3, 37070, Note_on_c, 1, 78, 0
3, 37080, Note_on_c, 1, 78, 50
3, 37130, Note_on_c, 1, 78, 0
3, 37140, Note_on_c, 1, 81, 50
3, 37190, Note_on_c, 1, 81, 0
3, 37200, Note_on_c, 1, 79, 50
3, 37430, Note_on_c, 1, 79, 0
3, 37440, Note_on_c, 1, 78, 50
3, 37670, Note_on_c, 1, 78, 0
3, 37680, Note_on_c, 1, 79, 50
3, 37980, Note_on_c, 1, 79, 0
3, 38160, Note_on_c, 1, 72, 50
3, 38160, Note_on_c, 1, 78, 50
3, 38280, Note_on_c, 1, 78, 0
3, 38280, Note_on_c, 1, 72, 0
3, 38640, Note_on_c, 1, 72, 50
3, 38640, Note_on_c, 1, 78, 50
3, 38760, Note_on_c, 1, 78, 0
3, 38760, Note_on_c, 1, 72, 0
3, 39120, Note_on_c, 1, 79, 50
3, 39120, Note_on_c, 1, 67, 50
3, 39240, Note_on_c, 1, 67, 0
3, 39240, Note_on_c, 1, 79, 0
3, 39600, Note_on_c, 1, 79, 50
3, 39600, Note_on_c, 1, 74, 50
3, 39720, Note_on_c, 1, 74, 0
3, 39720, Note_on_c, 1, 79, 0
3, 39900, Note_on_c, 1, 79, 81
3, 39950, Note_on_c, 1, 79, 0
3, 39960, Note_on_c, 1, 81, 87
3, 40010, Note_on_c, 1, 81, 0
3, 40020, Note_on_c, 1, 82, 93
3, 40070, Note_on_c, 1, 82, 0
3, 40080, Note_on_c, 1, 78, 100
3, 40080, Note_on_c, 1, 81, 100
3, 40550, Note_on_c, 1, 81, 0
3, 40550, Note_on_c, 1, 78, 0
3, 40560, Note_on_c, 1, 78, 100
3, 40560, Note_on_c, 1, 81, 100
3, 40680, Note_on_c, 1, 81, 0
3, 40680, Note_on_c, 1, 78, 0
3, 40860, Note_on_c, 1, 79, 100
3, 40860, Note_on_c, 1, 82, 100
3, 40910, Note_on_c, 1, 82, 0
3, 40910, Note_on_c, 1, 79, 0
3, 40920, Note_on_c, 1, 79, 100
3, 40920, Note_on_c, 1, 82, 100
3, 40970, Note_on_c, 1, 82, 0
3, 40970, Note_on_c, 1, 79, 0
3, 40980, Note_on_c, 1, 82, 100
3, 40980, Note_on_c, 1, 79, 100
3, 41030, Note_on_c, 1, 79, 0
3, 41030, Note_on_c, 1, 82, 0
3, 41040, Note_on_c, 1, 79, 100
3, 41040, Note_on_c, 1, 82, 100
3, 41510, Note_on_c, 1, 82, 0
3, 41510, Note_on_c, 1, 79, 0
3, 41520, Note_on_c, 1, 82, 100
3, 41520, Note_on_c, 1, 79, 100
3, 41640, Note_on_c, 1, 79, 0
3, 41640, Note_on_c, 1, 82, 0
3, 41820, Note_on_c, 1, 82, 104
3, 41820, Note_on_c, 1, 79, 104
3, 41870, Note_on_c, 1, 79, 0
3, 41870, Note_on_c, 1, 82, 0
3, 41880, Note_on_c, 1, 79, 106
3, 41880, Note_on_c, 1, 82, 106
3, 41930, Note_on_c, 1, 82, 0
3, 41930, Note_on_c, 1, 79, 0
3, 41940, Note_on_c, 1, 82, 107
3, 41940, Note_on_c, 1, 79, 107
3, 41990, Note_on_c, 1, 79, 0
3, 41990, Note_on_c, 1, 82, 0
3, 42000, Note_on_c, 1, 79, 109
3, 42000, Note_on_c, 1, 82, 109
3, 42120, Note_on_c, 1, 82, 0
3, 42120, Note_on_c, 1, 79, 0
3, 42360, Note_on_c, 1, 79, 118
3, 42360, Note_on_c, 1, 82, 118
3, 42410, Note_on_c, 1, 82, 0
3, 42410, Note_on_c, 1, 79, 0
3, 42420, Note_on_c, 1, 79, 119
3, 42420, Note_on_c, 1, 82, 119
3, 42470, Note_on_c, 1, 82, 0
3, 42470, Note_on_c, 1, 79, 0
3, 42480, Note_on_c, 1, 79, 121
3, 42480, Note_on_c, 1, 82, 121
3, 42590, Note_on_c, 1, 82, 0
3, 42590, Note_on_c, 1, 79, 0
3, 42600, Note_on_c, 1, 74, 124
3, 42600, Note_on_c, 1, 81, 124
3, 42650, Note_on_c, 1, 81, 0
3, 42650, Note_on_c, 1, 74, 0
3, 42660, Note_on_c, 1, 81, 125
3, 42660, Note_on_c, 1, 74, 125
3, 42710, Note_on_c, 1, 74, 0
3, 42710, Note_on_c, 1, 81, 0
3, 42720, Note_on_c, 1, 81, 127
3, 42720, Note_on_c, 1, 74, 127
3, 42840, Note_on_c, 1, 74, 0
3, 42840, Note_on_c, 1, 81, 0
3, 44280, Note_on_c, 1, 78, 127
3, 44330, Note_on_c, 1, 78, 0
3, 44340, Note_on_c, 1, 78, 127
3, 44390, Note_on_c, 1, 78, 0
3, 44400, Note_on_c, 1, 78, 127
3, 44510, Note_on_c, 1, 78, 0
3, 44520, Note_on_c, 1, 81, 127
3, 44520, Note_on_c, 1, 78, 127
3, 44570, Note_on_c, 1, 78, 0
3, 44570, Note_on_c, 1, 81, 0
3, 44580, Note_on_c, 1, 81, 127
3, 44580, Note_on_c, 1, 78, 127
3, 44630, Note_on_c, 1, 78, 0
3, 44630, Note_on_c, 1, 81, 0
3, 44640, Note_on_c, 1, 83, 127
3, 44640, Note_on_c, 1, 79, 127
3, 44760, Note_on_c, 1, 79, 0
3, 44760, Note_on_c, 1, 83, 0
3, 46200, Note_on_c, 1, 77, 127
3, 46250, Note_on_c, 1, 77, 0
3, 46260, Note_on_c, 1, 77, 127
3, 46310, Note_on_c, 1, 77, 0
3, 46320, Note_on_c, 1, 77, 127
3, 46440, Note_on_c, 1, 77, 0
3, 46620, Note_on_c, 1, 84, 127
3, 46620, Note_on_c, 1, 72, 127
3, 46670, Note_on_c, 1, 72, 0
3, 46670, Note_on_c, 1, 84, 0
3, 46680, Note_on_c, 1, 72, 127
3, 46680, Note_on_c, 1, 84, 127
3, 46730, Note_on_c, 1, 84, 0
3, 46730, Note_on_c, 1, 72, 0
3, 46740, Note_on_c, 1, 84, 127
3, 46740, Note_on_c, 1, 72, 127
3, 46790, Note_on_c, 1, 72, 0
3, 46790, Note_on_c, 1, 84, 0
3, 46800, Note_on_c, 1, 77, 127
3, 47030, Note_on_c, 1, 77, 0
3, 47040, Note_on_c, 1, 79, 127
3, 47280, Note_on_c, 1, 79, 0
3, 47760, Note_on_c, 1, 77, 127
3, 47760, Note_on_c, 1, 65, 127
3, 47990, Note_on_c, 1, 65, 0
3, 47990, Note_on_c, 1, 77, 0
3, 48000, Note_on_c, 1, 67, 127
3, 48000, Note_on_c, 1, 79, 127
3, 48240, Note_on_c, 1, 79, 0
3, 48240, Note_on_c, 1, 67, 0
3, 48720, Note_on_c, 1, 77, 127
3, 48950, Note_on_c, 1, 77, 0
3, 48960, Note_on_c, 1, 78, 127
3, 49200, Note_on_c, 1, 78, 0
3, 49680, Note_on_c, 1, 81, 127
3, 49910, Note_on_c, 1, 81, 0
3, 49920, Note_on_c, 1, 82, 127
3, 50160, Note_on_c, 1, 82, 0
3, 51840, Note_on_c, 1, 81, 50
3, 52080, Note_on_c, 1, 81, 0
3, 52320, Note_on_c, 1, 81, 50
3, 52560, Note_on_c, 1, 81, 0
3, 52800, Note_on_c, 1, 81, 50
3, 53040, Note_on_c, 1, 81, 0
3, 53280, Note_on_c, 1, 81, 50
3, 53520, Note_on_c, 1, 81, 0
3, 53760, Note_on_c, 1, 81, 50
3, 54000, Note_on_c, 1, 81, 0
3, 54240, Note_on_c, 1, 81, 50
3, 54480, Note_on_c, 1, 81, 0
3, 54540, Note_on_c, 1, 86, 127
3, 54540, Note_on_c, 1, 74, 127
3, 54590, Note_on_c, 1, 74, 0
3, 54590, Note_on_c, 1, 86, 0
3, 54600, Note_on_c, 1, 74, 127
3, 54600, Note_on_c, 1, 86, 127
3, 54650, Note_on_c, 1, 86, 0
3, 54650, Note_on_c, 1, 74, 0
3, 54660, Note_on_c, 1, 74, 127
3, 54660, Note_on_c, 1, 86, 127
3, 54710, Note_on_c, 1, 86, 0
3, 54710, Note_on_c, 1, 74, 0
3, 54720, Note_on_c, 1, 71, 127
3, 54720, Note_on_c, 1, 83, 127
3, 54950, Note_on_c, 1, 83, 0
3, 54950, Note_on_c, 1, 71, 0
3, 54960, Note_on_c, 1, 72, 127
3, 54960, Note_on_c, 1, 84, 127
3, 55190, Note_on_c, 1, 84, 0
3, 55190, Note_on_c, 1, 72, 0
3, 55200, Note_on_c, 1, 69, 127
3, 55200, Note_on_c, 1, 81, 127
3, 55670, Note_on_c, 1, 81, 0
3, 55670, Note_on_c, 1, 69, 0
3, 55680, Note_on_c, 1, 80, 50
3, 55920, Note_on_c, 1, 80, 0
3, 56160, Note_on_c, 1, 80, 50
3, 56400, Note_on_c, 1, 80, 0
3, 56640, Note_on_c, 1, 80, 50
3, 56880, Note_on_c, 1, 80, 0
3, 57120, Note_on_c, 1, 80, 50
3, 57360, Note_on_c, 1, 80, 0
3, 57660, Note_on_c, 1, 80, 127
3, 57710, Note_on_c, 1, 80, 0
3, 57720, Note_on_c, 1, 80, 127
3, 57770, Note_on_c, 1, 80, 0
3, 57780, Note_on_c, 1, 80, 127
3, 57830, Note_on_c, 1, 80, 0
3, 57840, Note_on_c, 1, 77, 127
3, 58130, Note_on_c, 1, 77, 0
3, 58140, Note_on_c, 1, 80, 127
3, 58190, Note_on_c, 1, 80, 0
3, 58200, Note_on_c, 1, 80, 127
3, 58250, Note_on_c, 1, 80, 0
3, 58260, Note_on_c, 1, 80, 127
3, 58310, Note_on_c, 1, 80, 0
3, 58320, Note_on_c, 1, 77, 127
3, 58610, Note_on_c, 1, 77, 0
3, 58620, Note_on_c, 1, 80, 127
3, 58670, Note_on_c, 1, 80, 0
3, 58680, Note_on_c, 1, 80, 127
3, 58730, Note_on_c, 1, 80, 0
3, 58740, Note_on_c, 1, 80, 127
3, 58790, Note_on_c, 1, 80, 0
3, 58800, Note_on_c, 1, 77, 127
3, 58850, Note_on_c, 1, 77, 0
3, 58860, Note_on_c, 1, 80, 127
3, 58910, Note_on_c, 1, 80, 0
3, 58920, Note_on_c, 1, 80, 127
3, 58970, Note_on_c, 1, 80, 0
3, 58980, Note_on_c, 1, 80, 127
3, 59030, Note_on_c, 1, 80, 0
3, 59040, Note_on_c, 1, 77, 127
3, 59090, Note_on_c, 1, 77, 0
3, 59100, Note_on_c, 1, 80, 127
3, 59150, Note_on_c, 1, 80, 0
3, 59160, Note_on_c, 1, 80, 127
3, 59210, Note_on_c, 1, 80, 0
3, 59220, Note_on_c, 1, 80, 127
3, 59270, Note_on_c, 1, 80, 0
3, 59280, Note_on_c, 1, 77, 127
3, 59280, Note_on_c, 1, 65, 127
3, 59330, Note_on_c, 1, 65, 0
3, 59330, Note_on_c, 1, 77, 0
3, 59340, Note_on_c, 1, 79, 127
3, 59340, Note_on_c, 1, 67, 127
3, 59390, Note_on_c, 1, 67, 0
3, 59390, Note_on_c, 1, 79, 0
3, 59400, Note_on_c, 1, 67, 127
3, 59400, Note_on_c, 1, 79, 127
3, 59450, Note_on_c, 1, 79, 0
3, 59450, Note_on_c, 1, 67, 0
3, 59460, Note_on_c, 1, 67, 127
3, 59460, Note_on_c, 1, 79, 127
3, 59510, Note_on_c, 1, 79, 0
3, 59510, Note_on_c, 1, 67, 0
3, 59520, Note_on_c, 1, 79, 127
3, 59520, Note_on_c, 1, 75, 127
3, 60240, Note_on_c, 1, 75, 0
3, 60240, Note_on_c, 1, 79, 0
3, 60300, Note_on_c, 1, 79, 127
3, 60300, Note_on_c, 1, 77, 127
3, 60350, Note_on_c, 1, 77, 0
3, 60350, Note_on_c, 1, 79, 0
3, 60360, Note_on_c, 1, 79, 127
3, 60360, Note_on_c, 1, 77, 127
3, 60410, Note_on_c, 1, 77, 0
3, 60410, Note_on_c, 1, 79, 0
3, 60420, Note_on_c, 1, 79, 127
3, 60420, Note_on_c, 1, 77, 127
3, 60470, Note_on_c, 1, 77, 0
3, 60470, Note_on_c, 1, 79, 0
3, 60480, Note_on_c, 1, 74, 127
3, 60480, Note_on_c, 1, 79, 127
3, 61440, Note_on_c, 1, 79, 0
3, 61440, Note_on_c, 1, 74, 0
3, 61680, Note_on_c, 1, 72, 50
3, 62630, Note_on_c, 1, 72, 0
3, 62640, Note_on_c, 1, 74, 50
3, 63590, Note_on_c, 1, 74, 0
3, 63600, Note_on_c, 1, 75, 50
3, 63840, Note_on_c, 1, 75, 0
3, 63840, Note_on_c, 1, 74, 50
3, 64080, Note_on_c, 1, 74, 0
3, 64080, Note_on_c, 1, 72, 50
3, 64320, Note_on_c, 1, 72, 0
3, 64320, Note_on_c, 1, 71, 50
3, 64440, Note_on_c, 1, 71, 0
3, 64440, Note_on_c, 1, 72, 50
3, 64500, Note_on_c, 1, 72, 0
3, 64500, Note_on_c, 1, 74, 50
3, 64550, Note_on_c, 1, 74, 0
3, 64560, Note_on_c, 1, 75, 50
3, 64800, Note_on_c, 1, 75, 0
3, 64800, Note_on_c, 1, 72, 50
3, 65030, Note_on_c, 1, 72, 0
3, 65040, Note_on_c, 1, 79, 50
3, 65260, Note_on_c, 1, 79, 0
3, 65280, Note_on_c, 1, 77, 50
3, 65400, Note_on_c, 1, 77, 0
3, 65400, Note_on_c, 1, 75, 50
3, 65520, Note_on_c, 1, 75, 0
3, 65520, Note_on_c, 1, 74, 50
3, 65700, Note_on_c, 1, 74, 0
3, 65700, Note_on_c, 1, 75, 50
3, 65715, Note_on_c, 1, 75, 0
3, 65715, Note_on_c, 1, 74, 50
3, 65730, Note_on_c, 1, 74, 0
3, 65730, Note_on_c, 1, 72, 50
3, 65745, Note_on_c, 1, 72, 0
3, 65745, Note_on_c, 1, 74, 50
3, 65760, Note_on_c, 1, 74, 0
3, 65760, Note_on_c, 1, 77, 50
3, 65880, Note_on_c, 1, 77, 0
3, 65880, Note_on_c, 1, 75, 50
3, 66000, Note_on_c, 1, 75, 0
3, 66000, Note_on_c, 1, 74, 50
3, 66240, Note_on_c, 1, 74, 0
3, 66480, Note_on_c, 1, 77, 50
3, 66480, Note_on_c, 1, 74, 50
3, 67190, Note_on_c, 1, 74, 0
3, 67190, Note_on_c, 1, 77, 0
3, 67200, Note_on_c, 1, 72, 50
3, 67200, Note_on_c, 1, 75, 50
3, 67320, Note_on_c, 1, 75, 0
3, 67320, Note_on_c, 1, 72, 0
3, 67680, Note_on_c, 1, 83, 75
3, 68150, Note_on_c, 1, 83, 0
3, 68160, Note_on_c, 1, 84, 100
3, 68280, Note_on_c, 1, 84, 0
3, 68640, Note_on_c, 1, 77, 100
3, 68640, Note_on_c, 1, 80, 100
3, 68760, Note_on_c, 1, 80, 0
3, 68760, Note_on_c, 1, 77, 0
3, 68940, Note_on_c, 1, 79, 100
3, 68940, Note_on_c, 1, 75, 100
3, 68990, Note_on_c, 1, 75, 0
3, 68990, Note_on_c, 1, 79, 0
3, 69000, Note_on_c, 1, 79, 100
3, 69000, Note_on_c, 1, 75, 100
3, 69050, Note_on_c, 1, 75, 0
3, 69050, Note_on_c, 1, 79, 0
3, 69060, Note_on_c, 1, 75, 100
3, 69060, Note_on_c, 1, 79, 100
3, 69110, Note_on_c, 1, 79, 0
3, 69110, Note_on_c, 1, 75, 0
3, 69120, Note_on_c, 1, 75, 100
3, 69120, Note_on_c, 1, 79, 100
3, 69240, Note_on_c, 1, 79, 0
3, 69240, Note_on_c, 1, 75, 0
3, 69360, Note_on_c, 1, 77, 100
3, 69360, Note_on_c, 1, 80, 100
3, 69480, Note_on_c, 1, 80, 0
3, 69480, Note_on_c, 1, 77, 0
3, 69600, Note_on_c, 1, 76, 100
3, 69600, Note_on_c, 1, 79, 100
3, 69720, Note_on_c, 1, 79, 0
3, 69720, Note_on_c, 1, 76, 0
3, 69840, Note_on_c, 1, 80, 100
3, 69840, Note_on_c, 1, 77, 100
3, 69960, Note_on_c, 1, 77, 0
3, 69960, Note_on_c, 1, 80, 0
3, 70080, Note_on_c, 1, 82, 100
3, 70080, Note_on_c, 1, 79, 100
3, 70200, Note_on_c, 1, 79, 0
3, 70200, Note_on_c, 1, 82, 0
3, 70320, Note_on_c, 1, 80, 100
3, 70320, Note_on_c, 1, 77, 100
3, 70440, Note_on_c, 1, 77, 0
3, 70440, Note_on_c, 1, 80, 0
3, 70560, Note_on_c, 1, 77, 100
3, 70560, Note_on_c, 1, 80, 100
3, 70680, Note_on_c, 1, 80, 0
3, 70680, Note_on_c, 1, 77, 0
3, 70800, Note_on_c, 1, 75, 100
3, 70800, Note_on_c, 1, 79, 100
3, 71750, Note_on_c, 1, 79, 0
3, 71750, Note_on_c, 1, 75, 0
3, 71760, Note_on_c, 1, 79, 100
3, 71760, Note_on_c, 1, 77, 100
3, 72590, Note_on_c, 1, 77, 0
3, 72590, Note_on_c, 1, 79, 0
3, 72600, Note_on_c, 1, 75, 100
3, 72600, Note_on_c, 1, 79, 100
3, 72710, Note_on_c, 1, 79, 0
3, 72710, Note_on_c, 1, 75, 0
3, 72720, Note_on_c, 1, 81, 127
3, 72720, Note_on_c, 1, 78, 127
3, 73670, Note_on_c, 1, 78, 0
3, 73670, Note_on_c, 1, 81, 0
3, 73680, Note_on_c, 1, 78, 127
3, 73680, Note_on_c, 1, 81, 127
3, 73800, Note_on_c, 1, 81, 0
3, 73800, Note_on_c, 1, 78, 0
3, 74160, Note_on_c, 1, 74, 127
3, 74160, Note_on_c, 1, 79, 127
3, 74280, Note_on_c, 1, 79, 0
3, 74280, Note_on_c, 1, 74, 0
3, 76320, Note_on_c, 1, 76, 50
3, 76320, Note_on_c, 1, 72, 50
3, 76560, Note_on_c, 1, 72, 0
3, 76560, Note_on_c, 1, 76, 0
3, 76560, Note_on_c, 1, 77, 50
3, 76560, Note_on_c, 1, 74, 50
3, 76790, Note_on_c, 1, 74, 0
3, 76790, Note_on_c, 1, 77, 0
3, 76800, Note_on_c, 1, 77, 50
3, 76800, Note_on_c, 1, 71, 50
3, 77040, Note_on_c, 1, 71, 0
3, 77040, Note_on_c, 1, 77, 0
3, 77040, Note_on_c, 1, 72, 50
3, 77040, Note_on_c, 1, 76, 50
3, 77280, Note_on_c, 1, 76, 0
3, 77280, Note_on_c, 1, 72, 0
3, 78240, Note_on_c, 1, 76, 50
3, 78240, Note_on_c, 1, 72, 50
3, 78480, Note_on_c, 1, 72, 0
3, 78480, Note_on_c, 1, 76, 0
3, 78480, Note_on_c, 1, 77, 50
3, 78480, Note_on_c, 1, 74, 50
3, 78710, Note_on_c, 1, 74, 0
3, 78710, Note_on_c, 1, 77, 0
3, 78720, Note_on_c, 1, 71, 50
3, 78720, Note_on_c, 1, 77, 50
3, 78960, Note_on_c, 1, 77, 0
3, 78960, Note_on_c, 1, 71, 0
3, 78960, Note_on_c, 1, 72, 50
3, 78960, Note_on_c, 1, 76, 50
3, 79200, Note_on_c, 1, 76, 0
3, 79200, Note_on_c, 1, 72, 0
3, 84720, Note_on_c, 1, 83, 127
3, 84720, Note_on_c, 1, 79, 127
3, 85070, Note_on_c, 1, 79, 0
3, 85070, Note_on_c, 1, 83, 0
3, 85080, Note_on_c, 1, 79, 127
3, 85080, Note_on_c, 1, 86, 127
3, 85190, Note_on_c, 1, 86, 0
3, 85190, Note_on_c, 1, 79, 0
3, 85200, Note_on_c, 1, 79, 127
3, 85200, Note_on_c, 1, 84, 127
3, 85320, Note_on_c, 1, 84, 0
3, 85320, Note_on_c, 1, 79, 0
3, 85440, Note_on_c, 1, 79, 127
3, 85440, Note_on_c, 1, 77, 127
3, 85560, Note_on_c, 1, 77, 0
3, 85560, Note_on_c, 1, 79, 0
3, 85680, Note_on_c, 1, 72, 127
3, 85680, Note_on_c, 1, 79, 127
3, 85800, Note_on_c, 1, 79, 0
3, 85800, Note_on_c, 1, 72, 0
3, 85920, Note_on_c, 1, 84, 127
3, 85920, Note_on_c, 1, 74, 127
3, 86040, Note_on_c, 1, 74, 0
3, 86040, Note_on_c, 1, 84, 0
3, 86160, Note_on_c, 1, 84, 127
3, 86160, Note_on_c, 1, 76, 127
3, 86280, Note_on_c, 1, 76, 0
3, 86280, Note_on_c, 1, 84, 0
3, 86400, Note_on_c, 1, 74, 127
3, 86400, Note_on_c, 1, 83, 127
3, 86520, Note_on_c, 1, 83, 0
3, 86520, Note_on_c, 1, 74, 0
3, 86640, Note_on_c, 1, 77, 127
3, 86640, Note_on_c, 1, 86, 127
3, 87110, Note_on_c, 1, 86, 0
3, 87110, Note_on_c, 1, 77, 0
3, 87120, Note_on_c, 1, 84, 127
3, 87120, Note_on_c, 1, 76, 127
3, 87230, Note_on_c, 1, 76, 0
3, 87230, Note_on_c, 1, 84, 0
3, 87240, Note_on_c, 1, 84, 127
3, 87240, Note_on_c, 1, 76, 127
3, 87360, Note_on_c, 1, 76, 0
3, 87360, Note_on_c, 1, 84, 0
3, 87480, Note_on_c, 1, 74, 127
3, 87480, Note_on_c, 1, 83, 127
3, 87600, Note_on_c, 1, 83, 0
3, 87600, Note_on_c, 1, 74, 0
3, 87720, Note_on_c, 1, 84, 127
3, 87720, Note_on_c, 1, 76, 127
3, 87840, Note_on_c, 1, 76, 0
3, 87840, Note_on_c, 1, 84, 0
3, 87960, Note_on_c, 1, 74, 127
3, 87960, Note_on_c, 1, 84, 127
3, 88080, Note_on_c, 1, 84, 0
3, 88080, Note_on_c, 1, 74, 0
3, 88200, Note_on_c, 1, 76, 127
3, 88200, Note_on_c, 1, 84, 127
3, 88320, Note_on_c, 1, 84, 0
3, 88320, Note_on_c, 1, 76, 0
3, 88440, Note_on_c, 1, 74, 127
3, 88440, Note_on_c, 1, 83, 127
3, 88550, Note_on_c, 1, 83, 0
3, 88550, Note_on_c, 1, 74, 0
3, 88560, Note_on_c, 1, 76, 127
3, 88560, Note_on_c, 1, 84, 127
3, 88610, Note_on_c, 1, 84, 0
3, 88610, Note_on_c, 1, 76, 0
3, 88620, Note_on_c, 1, 76, 127
3, 88670, Note_on_c, 1, 76, 0
3, 88680, Note_on_c, 1, 76, 127
3, 88730, Note_on_c, 1, 76, 0
3, 88740, Note_on_c, 1, 76, 127
3, 88790, Note_on_c, 1, 76, 0
3, 88800, Note_on_c, 1, 72, 127
3, 88850, Note_on_c, 1, 72, 0
3, 88860, Note_on_c, 1, 79, 127
3, 88910, Note_on_c, 1, 79, 0
3, 88920, Note_on_c, 1, 79, 127
3, 88970, Note_on_c, 1, 79, 0
3, 88980, Note_on_c, 1, 79, 127
3, 89030, Note_on_c, 1, 79, 0
3, 89040, Note_on_c, 1, 76, 127
3, 89090, Note_on_c, 1, 76, 0
3, 89100, Note_on_c, 1, 72, 127
3, 89150, Note_on_c, 1, 72, 0
3, 89160, Note_on_c, 1, 72, 127
3, 89210, Note_on_c, 1, 72, 0
3, 89220, Note_on_c, 1, 72, 127
3, 89270, Note_on_c, 1, 72, 0
3, 89280, Note_on_c, 1, 67, 127
3, 89570, Note_on_c, 1, 67, 0
3, 89580, Note_on_c, 1, 76, 127
3, 89630, Note_on_c, 1, 76, 0
3, 89640, Note_on_c, 1, 76, 127
3, 89690, Note_on_c, 1, 76, 0
3, 89700, Note_on_c, 1, 76, 127
3, 89750, Note_on_c, 1, 76, 0
3, 89760, Note_on_c, 1, 72, 127
3, 89810, Note_on_c, 1, 72, 0
3, 89820, Note_on_c, 1, 79, 127
3, 89870, Note_on_c, 1, 79, 0
3, 89880, Note_on_c, 1, 79, 127
3, 89930, Note_on_c, 1, 79, 0
3, 89940, Note_on_c, 1, 79, 127
3, 89990, Note_on_c, 1, 79, 0
3, 90000, Note_on_c, 1, 76, 127
3, 90050, Note_on_c, 1, 76, 0
3, 90060, Note_on_c, 1, 72, 127
3, 90110, Note_on_c, 1, 72, 0
3, 90120, Note_on_c, 1, 72, 127
3, 90170, Note_on_c, 1, 72, 0
3, 90180, Note_on_c, 1, 72, 127
3, 90230, Note_on_c, 1, 72, 0
3, 90240, Note_on_c, 1, 67, 127
3, 90290, Note_on_c, 1, 67, 0
3, 90300, Note_on_c, 1, 74, 127
3, 90300, Note_on_c, 1, 71, 127
3, 90350, Note_on_c, 1, 71, 0
3, 90350, Note_on_c, 1, 74, 0
3, 90360, Note_on_c, 1, 71, 127
3, 90360, Note_on_c, 1, 74, 127
3, 90410, Note_on_c, 1, 74, 0
3, 90410, Note_on_c, 1, 71, 0
3, 90420, Note_on_c, 1, 71, 127
3, 90420, Note_on_c, 1, 74, 127
3, 90470, Note_on_c, 1, 74, 0
3, 90470, Note_on_c, 1, 71, 0
3, 90480, Note_on_c, 1, 76, 127
3, 90480, Note_on_c, 1, 72, 127
3, 90600, Note_on_c, 1, 72, 0
3, 90600, Note_on_c, 1, 76, 0
3, 90780, Note_on_c, 1, 71, 127
3, 90780, Note_on_c, 1, 74, 127
3, 90830, Note_on_c, 1, 74, 0
3, 90830, Note_on_c, 1, 71, 0
3, 90840, Note_on_c, 1, 71, 127
3, 90840, Note_on_c, 1, 74, 127
3, 90890, Note_on_c, 1, 74, 0
3, 90890, Note_on_c, 1, 71, 0
3, 90900, Note_on_c, 1, 74, 127
3, 90900, Note_on_c, 1, 71, 127
3, 90950, Note_on_c, 1, 71, 0
3, 90950, Note_on_c, 1, 74, 0
3, 90960, Note_on_c, 1, 76, 127
3, 90960, Note_on_c, 1, 72, 127
3, 91080, Note_on_c, 1, 72, 0
3, 91080, Note_on_c, 1, 76, 0
3, 91260, Note_on_c, 1, 74, 127
3, 91260, Note_on_c, 1, 79, 127
3, 91310, Note_on_c, 1, 79, 0
3, 91310, Note_on_c, 1, 74, 0
3, 91320, Note_on_c, 1, 79, 127
3, 91320, Note_on_c, 1, 74, 127
3, 91370, Note_on_c, 1, 74, 0
3, 91370, Note_on_c, 1, 79, 0
3, 91380, Note_on_c, 1, 74, 127
3, 91380, Note_on_c, 1, 79, 127
3, 91430, Note_on_c, 1, 79, 0
3, 91430, Note_on_c, 1, 74, 0
3, 91440, Note_on_c, 1, 76, 127
3, 91440, Note_on_c, 1, 79, 127
3, 91490, Note_on_c, 1, 79, 0
3, 91490, Note_on_c, 1, 76, 0
3, 91500, Note_on_c, 1, 72, 127
3, 91500, Note_on_c, 1, 84, 127
3, 91550, Note_on_c, 1, 84, 0
3, 91550, Note_on_c, 1, 72, 0
3, 91560, Note_on_c, 1, 84, 127
3, 91560, Note_on_c, 1, 72, 127
3, 91610, Note_on_c, 1, 72, 0
3, 91610, Note_on_c, 1, 84, 0
3, 91620, Note_on_c, 1, 84, 127
3, 91620, Note_on_c, 1, 72, 127
3, 91670, Note_on_c, 1, 72, 0
3, 91670, Note_on_c, 1, 84, 0
3, 91680, Note_on_c, 1, 72, 127
3, 91680, Note_on_c, 1, 84, 127
3, 91920, Note_on_c, 1, 84, 0
3, 91920, Note_on_c, 1, 72, 0
3, 91920, Note_on_c, 1, 84, 127
3, 91920, Note_on_c, 1, 72, 127
3, 91970, Note_on_c, 1, 72, 0
3, 91970, Note_on_c, 1, 84, 0
3, 91980, Note_on_c, 1, 72, 127
3, 91980, Note_on_c, 1, 84, 127
3, 92030, Note_on_c, 1, 84, 0
3, 92030, Note_on_c, 1, 72, 0
3, 92040, Note_on_c, 1, 84, 127
3, 92040, Note_on_c, 1, 72, 127
3, 92090, Note_on_c, 1, 72, 0
3, 92090, Note_on_c, 1, 84, 0
3, 92100, Note_on_c, 1, 72, 127
3, 92100, Note_on_c, 1, 84, 127
3, 92150, Note_on_c, 1, 84, 0
3, 92150, Note_on_c, 1, 72, 0
3, 92160, Note_on_c, 1, 84, 127
3, 92160, Note_on_c, 1, 72, 127
3, 92400, Note_on_c, 1, 72, 0
3, 92400, Note_on_c, 1, 84, 0
3, 92400, Note_on_c, 1, 84, 127
3, 92400, Note_on_c, 1, 72, 127
3, 92450, Note_on_c, 1, 72, 0
3, 92450, Note_on_c, 1, 84, 0
3, 92460, Note_on_c, 1, 72, 127
3, 92460, Note_on_c, 1, 84, 127
3, 92510, Note_on_c, 1, 84, 0
3, 92510, Note_on_c, 1, 72, 0
3, 92520, Note_on_c, 1, 84, 127
3, 92520, Note_on_c, 1, 72, 127
3, 92570, Note_on_c, 1, 72, 0
3, 92570, Note_on_c, 1, 84, 0
3, 92580, Note_on_c, 1, 84, 127
3, 92580, Note_on_c, 1, 72, 127
3, 92630, Note_on_c, 1, 72, 0
3, 92630, Note_on_c, 1, 84, 0
3, 92640, Note_on_c, 1, 72, 127
3, 92640, Note_on_c, 1, 84, 127
3, 92880, Note_on_c, 1, 84, 0
3, 92880, Note_on_c, 1, 72, 0
3, 92880, Note_on_c, 1, 72, 127
3, 92880, Note_on_c, 1, 84, 127
3, 92930, Note_on_c, 1, 84, 0
3, 92930, Note_on_c, 1, 72, 0
3, 92940, Note_on_c, 1, 84, 127
3, 92940, Note_on_c, 1, 72, 127
3, 92990, Note_on_c, 1, 72, 0
3, 92990, Note_on_c, 1, 84, 0
3, 93000, Note_on_c, 1, 84, 127
3, 93000, Note_on_c, 1, 72, 127
3, 93050, Note_on_c, 1, 72, 0
3, 93050, Note_on_c, 1, 84, 0
3, 93060, Note_on_c, 1, 84, 127
3, 93060, Note_on_c, 1, 72, 127
3, 93110, Note_on_c, 1, 72, 0
3, 93110, Note_on_c, 1, 84, 0
3, 93120, Note_on_c, 1, 84, 127
3, 93120, Note_on_c, 1, 72, 127
3, 93350, Note_on_c, 1, 72, 0
3, 93350, Note_on_c, 1, 84, 0
3, 93360, Note_on_c, 1, 73, 127
3, 93360, Note_on_c, 1, 85, 127
3, 93480, Note_on_c, 1, 85, 0
3, 93480, Note_on_c, 1, 80, 127
3, 94310, Note_on_c, 1, 80, 0
3, 94310, Note_on_c, 1, 73, 0
3, 94320, Note_on_c, 1, 73, 127
3, 94320, Note_on_c, 1, 80, 127
3, 94440, Note_on_c, 1, 80, 0
3, 94440, Note_on_c, 1, 73, 0
3, 95340, Note_on_c, 1, 75, 127
3, 95340, Note_on_c, 1, 81, 127
3, 95390, Note_on_c, 1, 81, 0
3, 95390, Note_on_c, 1, 75, 0
3, 95400, Note_on_c, 1, 75, 127
3, 95400, Note_on_c, 1, 81, 127
3, 95450, Note_on_c, 1, 81, 0
3, 95450, Note_on_c, 1, 75, 0
3, 95460, Note_on_c, 1, 75, 127
3, 95460, Note_on_c, 1, 81, 127
3, 95510, Note_on_c, 1, 81, 0
3, 95510, Note_on_c, 1, 75, 0
3, 95520, Note_on_c, 1, 81, 127
3, 95520, Note_on_c, 1, 75, 127
3, 96470, Note_on_c, 1, 75, 0
3, 96470, Note_on_c, 1, 81, 0
3, 96480, Note_on_c, 1, 81, 127
3, 96480, Note_on_c, 1, 75, 127
3, 96600, Note_on_c, 1, 75, 0
3, 96600, Note_on_c, 1, 81, 0
3, 96780, Note_on_c, 1, 72, 127
3, 96830, Note_on_c, 1, 72, 0
3, 96840, Note_on_c, 1, 72, 127
3, 96890, Note_on_c, 1, 72, 0
3, 96900, Note_on_c, 1, 72, 127
3, 96950, Note_on_c, 1, 72, 0
3, 96960, Note_on_c, 1, 75, 127
3, 97080, Note_on_c, 1, 75, 0
3, 98160, Note_on_c, 1, 83, 100
3, 98160, Note_on_c, 1, 77, 100
3, 98640, Note_on_c, 1, 77, 0
3, 98640, Note_on_c, 1, 83, 0
3, 99120, Note_on_c, 1, 83, 100
3, 99120, Note_on_c, 1, 77, 100
3, 99600, Note_on_c, 1, 77, 0
3, 99600, Note_on_c, 1, 83, 0
3, 100320, Note_on_c, 1, 84, 100
3, 100320, Note_on_c, 1, 72, 100
3, 100430, Note_on_c, 1, 72, 0
3, 100430, Note_on_c, 1, 84, 0
3, 100440, Note_on_c, 1, 74, 100
3, 100440, Note_on_c, 1, 86, 100
3, 100550, Note_on_c, 1, 86, 0
3, 100550, Note_on_c, 1, 74, 0
3, 100560, Note_on_c, 1, 70, 100
3, 100560, Note_on_c, 1, 82, 100
3, 100670, Note_on_c, 1, 82, 0
3, 100670, Note_on_c, 1, 70, 0
3, 100680, Note_on_c, 1, 72, 100
3, 100680, Note_on_c, 1, 84, 100
3, 100790, Note_on_c, 1, 84, 0
3, 100790, Note_on_c, 1, 72, 0
3, 100800, Note_on_c, 1, 80, 100
3, 100800, Note_on_c, 1, 68, 100
3, 100910, Note_on_c, 1, 68, 0
3, 100910, Note_on_c, 1, 80, 0
3, 100920, Note_on_c, 1, 82, 100
3, 100920, Note_on_c, 1, 70, 100
3, 101030, Note_on_c, 1, 70, 0
3, 101030, Note_on_c, 1, 82, 0
3, 101040, Note_on_c, 1, 67, 100
3, 101040, Note_on_c, 1, 79, 100
3, 101150, Note_on_c, 1, 79, 0
3, 101150, Note_on_c, 1, 67, 0
3, 101160, Note_on_c, 1, 80, 100
3, 101270, Note_on_c, 1, 80, 0
3, 101280, Note_on_c, 1, 77, 100
3, 101390, Note_on_c, 1, 77, 0
3, 101400, Note_on_c, 1, 75, 100
3, 101510, Note_on_c, 1, 75, 0
3, 101520, Note_on_c, 1, 74, 100
3, 101630, Note_on_c, 1, 74, 0
3, 101640, Note_on_c, 1, 75, 100
3, 101750, Note_on_c, 1, 75, 0
3, 101760, Note_on_c, 1, 77, 100
3, 101870, Note_on_c, 1, 77, 0
3, 101880, Note_on_c, 1, 75, 100
3, 101990, Note_on_c, 1, 75, 0
3, 102000, Note_on_c, 1, 77, 100
3, 102110, Note_on_c, 1, 77, 0
3, 102120, Note_on_c, 1, 79, 102
3, 102230, Note_on_c, 1, 79, 0
3, 102240, Note_on_c, 1, 80, 105
3, 102350, Note_on_c, 1, 80, 0
3, 102360, Note_on_c, 1, 79, 108
3, 102470, Note_on_c, 1, 79, 0
3, 102480, Note_on_c, 1, 80, 110
3, 102590, Note_on_c, 1, 80, 0
3, 102600, Note_on_c, 1, 71, 113
3, 102600, Note_on_c, 1, 77, 113
3, 102710, Note_on_c, 1, 77, 0
3, 102710, Note_on_c, 1, 71, 0
3, 102720, Note_on_c, 1, 72, 116
3, 102720, Note_on_c, 1, 77, 116
3, 102830, Note_on_c, 1, 77, 0
3, 102830, Note_on_c, 1, 72, 0
3, 102840, Note_on_c, 1, 71, 118
3, 102840, Note_on_c, 1, 77, 118
3, 102950, Note_on_c, 1, 77, 0
3, 102950, Note_on_c, 1, 71, 0
3, 102960, Note_on_c, 1, 72, 121
3, 102960, Note_on_c, 1, 77, 121
3, 103070, Note_on_c, 1, 77, 0
3, 103070, Note_on_c, 1, 72, 0
3, 103080, Note_on_c, 1, 77, 124
3, 103080, Note_on_c, 1, 74, 124
3, 103190, Note_on_c, 1, 74, 0
3, 103190, Note_on_c, 1, 77, 0
3, 103200, Note_on_c, 1, 75, 127
3, 103200, Note_on_c, 1, 72, 127
3, 103670, Note_on_c, 1, 72, 0
3, 103670, Note_on_c, 1, 75, 0
3, 103680, Note_on_c, 1, 77, 127
3, 103680, Note_on_c, 1, 72, 127
3, 104150, Note_on_c, 1, 72, 0
3, 104150, Note_on_c, 1, 77, 0
3, 104160, Note_on_c, 1, 79, 127
3, 104160, Note_on_c, 1, 72, 127
3, 104630, Note_on_c, 1, 72, 0
3, 104630, Note_on_c, 1, 79, 0
3, 104640, Note_on_c, 1, 72, 127
3, 104640, Note_on_c, 1, 80, 127
3, 104870, Note_on_c, 1, 80, 0
3, 104880, Note_on_c, 1, 77, 127
3, 105110, Note_on_c, 1, 77, 0
3, 105110, Note_on_c, 1, 72, 0
3, 105120, Note_on_c, 1, 71, 127
3, 105120, Note_on_c, 1, 77, 127
3, 105350, Note_on_c, 1, 77, 0
3, 105350, Note_on_c, 1, 71, 0
3, 105360, Note_on_c, 1, 74, 127
3, 105360, Note_on_c, 1, 79, 127
3, 105590, Note_on_c, 1, 79, 0
3, 105590, Note_on_c, 1, 74, 0
3, 105600, Note_on_c, 1, 75, 127
3, 105600, Note_on_c, 1, 79, 127
3, 105690, Note_on_c, 1, 79, 0
3, 105690, Note_on_c, 1, 75, 0
3, 105840, Note_on_c, 1, 75, 127
3, 105840, Note_on_c, 1, 84, 127
3, 105930, Note_on_c, 1, 84, 0
3, 105930, Note_on_c, 1, 75, 0
3, 106080, Note_on_c, 1, 80, 127
3, 106080, Note_on_c, 1, 84, 127
3, 106170, Note_on_c, 1, 84, 0
3, 106170, Note_on_c, 1, 80, 0
3, 106320, Note_on_c, 1, 84, 127
3, 106320, Note_on_c, 1, 80, 127
3, 106410, Note_on_c, 1, 80, 0
3, 106410, Note_on_c, 1, 84, 0
3, 106560, Note_on_c, 1, 79, 127
3, 106560, Note_on_c, 1, 84, 127
3, 106650, Note_on_c, 1, 84, 0
3, 106650, Note_on_c, 1, 79, 0
3, 106800, Note_on_c, 1, 79, 127
3, 106800, Note_on_c, 1, 83, 127
3, 106890, Note_on_c, 1, 83, 0
3, 106890, Note_on_c, 1, 79, 0
3, 107040, Note_on_c, 1, 72, 127
3, 107040, Note_on_c, 1, 84, 127
3, 107270, Note_on_c, 1, 84, 0
3, 107270, Note_on_c, 1, 72, 0
3, 107280, Note_on_c, 1, 72, 127
3, 107280, Note_on_c, 1, 84, 127
3, 107370, Note_on_c, 1, 84, 0
3, 107370, Note_on_c, 1, 72, 0
3, 107400, Note_on_c, 1, 84, 127
3, 107400, Note_on_c, 1, 72, 127
3, 107490, Note_on_c, 1, 72, 0
3, 107490, Note_on_c, 1, 84, 0
3, 107520, Note_on_c, 1, 84, 127
3, 107520, Note_on_c, 1, 72, 127
3, 107760, Note_on_c, 1, 72, 0
3, 107760, Note_on_c, 1, 84, 0
3, 108240, Note_on_c, 1, 84, 127
3, 108240, Note_on_c, 1, 72, 127
3, 108330, Note_on_c, 1, 72, 0
3, 108330, Note_on_c, 1, 84, 0
3, 108360, Note_on_c, 1, 84, 127
3, 108360, Note_on_c, 1, 72, 127
3, 108450, Note_on_c, 1, 72, 0
3, 108450, Note_on_c, 1, 84, 0
3, 108480, Note_on_c, 1, 84, 127
3, 108480, Note_on_c, 1, 72, 127
3, 108720, Note_on_c, 1, 72, 0
3, 108720, Note_on_c, 1, 84, 0
3, 109200, Note_on_c, 1, 79, 127
3, 109200, Note_on_c, 1, 67, 127
3, 109290, Note_on_c, 1, 67, 0
3, 109290, Note_on_c, 1, 79, 0
3, 109320, Note_on_c, 1, 67, 127
3, 109320, Note_on_c, 1, 79, 127
3, 109410, Note_on_c, 1, 79, 0
3, 109410, Note_on_c, 1, 67, 0
3, 109440, Note_on_c, 1, 67, 127
3, 109440, Note_on_c, 1, 79, 127
3, 109680, Note_on_c, 1, 79, 0
3, 109680, Note_on_c, 1, 67, 0
3, 110160, Note_on_c, 1, 79, 127
3, 110160, Note_on_c, 1, 67, 127
3, 110250, Note_on_c, 1, 67, 0
3, 110250, Note_on_c, 1, 79, 0
3, 110280, Note_on_c, 1, 67, 127
3, 110280, Note_on_c, 1, 79, 127
3, 110370, Note_on_c, 1, 79, 0
3, 110370, Note_on_c, 1, 67, 0
3, 110400, Note_on_c, 1, 79, 127
3, 110400, Note_on_c, 1, 67, 127
3, 110630, Note_on_c, 1, 67, 0
3, 110630, Note_on_c, 1, 79, 0
3, 110640, Note_on_c, 1, 84, 127
3, 110640, Note_on_c, 1, 80, 127
3, 110760, Note_on_c, 1, 80, 0
3, 110760, Note_on_c, 1, 84, 0
3, 110760, Note_on_c, 1, 82, 127
3, 110760, Note_on_c, 1, 79, 127
3, 110880, Note_on_c, 1, 79, 0
3, 110880, Note_on_c, 1, 82, 0
3, 110880, Note_on_c, 1, 80, 127
3, 110880, Note_on_c, 1, 77, 127
3, 111000, Note_on_c, 1, 77, 0
3, 111000, Note_on_c, 1, 80, 0
3, 111000, Note_on_c, 1, 75, 127
3, 111000, Note_on_c, 1, 79, 127
3, 111120, Note_on_c, 1, 79, 0
3, 111120, Note_on_c, 1, 75, 0
3, 111360, Note_on_c, 1, 80, 127
3, 111360, Note_on_c, 1, 77, 127
3, 111480, Note_on_c, 1, 77, 0
3, 111480, Note_on_c, 1, 80, 0
3, 111480, Note_on_c, 1, 75, 127
3, 111480, Note_on_c, 1, 79, 127
3, 111590, Note_on_c, 1, 79, 0
3, 111590, Note_on_c, 1, 75, 0
3, 111600, Note_on_c, 1, 84, 127
3, 111600, Note_on_c, 1, 77, 127
3, 111710, Note_on_c, 1, 84, 0
3, 111720, Note_on_c, 1, 77, 0
3, 111720, Note_on_c, 1, 84, 127
3, 111720, Note_on_c, 1, 75, 127
3, 111840, Note_on_c, 1, 75, 0
3, 111840, Note_on_c, 1, 84, 0
3, 111960, Note_on_c, 1, 84, 127
3, 111960, Note_on_c, 1, 75, 127
3, 112080, Note_on_c, 1, 75, 0
3, 112080, Note_on_c, 1, 84, 0
3, 112200, Note_on_c, 1, 83, 127
3, 112200, Note_on_c, 1, 74, 127
3, 112320, Note_on_c, 1, 74, 0
3, 112320, Note_on_c, 1, 83, 0
3, 113040, Note_on_c, 1, 80, 127
3, 113040, Note_on_c, 1, 77, 127
3, 113160, Note_on_c, 1, 77, 0
3, 113160, Note_on_c, 1, 80, 0
3, 113160, Note_on_c, 1, 75, 127
3, 113160, Note_on_c, 1, 79, 127
3, 113280, Note_on_c, 1, 79, 0
3, 113280, Note_on_c, 1, 75, 0
3, 113520, Note_on_c, 1, 84, 127
3, 113520, Note_on_c, 1, 77, 127
3, 113630, Note_on_c, 1, 84, 0
3, 113640, Note_on_c, 1, 77, 0
3, 113640, Note_on_c, 1, 75, 127
3, 113640, Note_on_c, 1, 84, 127
3, 113760, Note_on_c, 1, 84, 0
3, 113760, Note_on_c, 1, 75, 0
3, 113880, Note_on_c, 1, 84, 127
3, 113880, Note_on_c, 1, 75, 127
3, 114000, Note_on_c, 1, 75, 0
3, 114000, Note_on_c, 1, 84, 0
3, 114120, Note_on_c, 1, 83, 127
3, 114120, Note_on_c, 1, 74, 127
3, 114230, Note_on_c, 1, 74, 0
3, 114230, Note_on_c, 1, 83, 0
3, 114240, Note_on_c, 1, 84, 127
3, 114240, Note_on_c, 1, 75, 127
3, 114360, Note_on_c, 1, 75, 0
3, 114360, Note_on_c, 1, 84, 0
3, 114540, Note_on_c, 1, 74, 127
3, 114540, Note_on_c, 1, 83, 127
3, 114590, Note_on_c, 1, 83, 0
3, 114590, Note_on_c, 1, 74, 0
3, 114600, Note_on_c, 1, 83, 127
3, 114600, Note_on_c, 1, 74, 127
3, 114650, Note_on_c, 1, 74, 0
3, 114650, Note_on_c, 1, 83, 0
3, 114660, Note_on_c, 1, 83, 127
3, 114660, Note_on_c, 1, 74, 127
3, 114710, Note_on_c, 1, 74, 0
3, 114710, Note_on_c, 1, 83, 0
3, 114720, Note_on_c, 1, 83, 127
3, 114720, Note_on_c, 1, 74, 127
3, 115080, Note_on_c, 1, 74, 0
3, 115080, Note_on_c, 1, 83, 0
3, 115080, Note_on_c, 1, 75, 127
3, 115080, Note_on_c, 1, 84, 127
3, 115200, Note_on_c, 1, 84, 0
3, 115200, Note_on_c, 1, 75, 0
3, 115200, Note_on_c, 1, 77, 127
3, 115200, Note_on_c, 1, 86, 127
3, 115320, Note_on_c, 1, 86, 0
3, 115320, Note_on_c, 1, 77, 0
3, 115320, Note_on_c, 1, 83, 127
3, 115320, Note_on_c, 1, 74, 127
3, 115440, Note_on_c, 1, 74, 0
3, 115440, Note_on_c, 1, 83, 0
3, 115440, Note_on_c, 1, 84, 127
3, 115440, Note_on_c, 1, 75, 127
3, 115560, Note_on_c, 1, 75, 0
3, 115560, Note_on_c, 1, 84, 0
3, 115560, Note_on_c, 1, 86, 127
3, 115560, Note_on_c, 1, 77, 127
3, 115670, Note_on_c, 1, 77, 0
3, 115670, Note_on_c, 1, 86, 0
3, 115680, Note_on_c, 1, 75, 127
3, 115680, Note_on_c, 1, 84, 127
3, 115800, Note_on_c, 1, 84, 0
3, 115800, Note_on_c, 1, 75, 0
3, 115980, Note_on_c, 1, 79, 127
3, 116030, Note_on_c, 1, 79, 0
3, 116040, Note_on_c, 1, 79, 127
3, 116090, Note_on_c, 1, 79, 0
3, 116100, Note_on_c, 1, 79, 127
3, 116150, Note_on_c, 1, 79, 0
3, 116160, Note_on_c, 1, 79, 127
3, 116210, Note_on_c, 1, 79, 0
3, 116220, Note_on_c, 1, 79, 127
3, 116270, Note_on_c, 1, 79, 0
3, 116280, Note_on_c, 1, 79, 127
3, 116330, Note_on_c, 1, 79, 0
3, 116340, Note_on_c, 1, 79, 127
3, 116390, Note_on_c, 1, 79, 0
3, 116400, Note_on_c, 1, 79, 127
3, 116450, Note_on_c, 1, 79, 0
3, 116460, Note_on_c, 1, 79, 127
3, 116510, Note_on_c, 1, 79, 0
3, 116520, Note_on_c, 1, 79, 127
3, 116570, Note_on_c, 1, 79, 0
3, 116580, Note_on_c, 1, 79, 127
3, 116630, Note_on_c, 1, 79, 0
3, 116640, Note_on_c, 1, 75, 127
3, 116640, Note_on_c, 1, 79, 127
3, 117360, Note_on_c, 1, 79, 0
3, 117360, Note_on_c, 1, 75, 0
3, 117420, Note_on_c, 1, 77, 127
3, 117420, Note_on_c, 1, 79, 127
3, 117470, Note_on_c, 1, 79, 0
3, 117470, Note_on_c, 1, 77, 0
3, 117480, Note_on_c, 1, 79, 127
3, 117480, Note_on_c, 1, 77, 127
3, 117530, Note_on_c, 1, 77, 0
3, 117530, Note_on_c, 1, 79, 0
3, 117540, Note_on_c, 1, 79, 127
3, 117540, Note_on_c, 1, 77, 127
3, 117590, Note_on_c, 1, 77, 0
3, 117590, Note_on_c, 1, 79, 0
3, 117600, Note_on_c, 1, 74, 127
3, 117600, Note_on_c, 1, 79, 127
3, 118560, Note_on_c, 1, 79, 0
3, 118560, Note_on_c, 1, 74, 0
3, 119400, Note_on_c, 1, 80, 50
3, 119520, Note_on_c, 1, 80, 0
3, 119520, Note_on_c, 1, 79, 50
3, 119760, Note_on_c, 1, 79, 0
3, 120360, Note_on_c, 1, 80, 50
3, 120480, Note_on_c, 1, 80, 0
3, 120480, Note_on_c, 1, 79, 50
3, 120530, Note_on_c, 1, 79, 0
3, 120540, Note_on_c, 1, 79, 100
3, 120540, Note_on_c, 1, 74, 100
3, 120590, Note_on_c, 1, 74, 0
3, 120590, Note_on_c, 1, 79, 0
3, 120600, Note_on_c, 1, 79, 100
3, 120600, Note_on_c, 1, 74, 100
3, 120650, Note_on_c, 1, 74, 0
3, 120650, Note_on_c, 1, 79, 0
3, 120660, Note_on_c, 1, 74, 100
3, 120660, Note_on_c, 1, 79, 100
3, 120710, Note_on_c, 1, 79, 0
3, 120710, Note_on_c, 1, 74, 0
3, 120720, Note_on_c, 1, 75, 100
3, 120720, Note_on_c, 1, 79, 100
3, 120840, Note_on_c, 1, 79, 0
3, 120840, Note_on_c, 1, 75, 0
3, 121020, Note_on_c, 1, 83, 100
3, 121020, Note_on_c, 1, 74, 100
3, 121070, Note_on_c, 1, 74, 0
3, 121070, Note_on_c, 1, 83, 0
3, 121080, Note_on_c, 1, 74, 100
3, 121080, Note_on_c, 1, 83, 100
3, 121130, Note_on_c, 1, 83, 0
3, 121130, Note_on_c, 1, 74, 0
3, 121140, Note_on_c, 1, 83, 100
3, 121140, Note_on_c, 1, 74, 100
3, 121190, Note_on_c, 1, 74, 0
3, 121190, Note_on_c, 1, 83, 0
3, 121200, Note_on_c, 1, 84, 100
3, 121200, Note_on_c, 1, 75, 100
3, 121320, Note_on_c, 1, 75, 0
3, 121320, Note_on_c, 1, 84, 0
3, 121500, Note_on_c, 1, 83, 101
3, 121500, Note_on_c, 1, 74, 101
3, 121550, Note_on_c, 1, 74, 0
3, 121550, Note_on_c, 1, 83, 0
3, 121560, Note_on_c, 1, 83, 102
3, 121560, Note_on_c, 1, 74, 102
3, 121610, Note_on_c, 1, 74, 0
3, 121610, Note_on_c, 1, 83, 0
3, 121620, Note_on_c, 1, 74, 104
3, 121620, Note_on_c, 1, 83, 104
3, 121670, Note_on_c, 1, 83, 0
3, 121670, Note_on_c, 1, 74, 0
3, 121680, Note_on_c, 1, 84, 105
3, 121680, Note_on_c, 1, 75, 105
3, 121790, Note_on_c, 1, 75, 0
3, 121790, Note_on_c, 1, 84, 0
3, 121800, Note_on_c, 1, 74, 108
3, 121800, Note_on_c, 1, 83, 108
3, 121910, Note_on_c, 1, 83, 0
3, 121910, Note_on_c, 1, 74, 0
3, 121920, Note_on_c, 1, 84, 110
3, 121920, Note_on_c, 1, 75, 110
3, 122030, Note_on_c, 1, 75, 0
3, 122030, Note_on_c, 1, 84, 0
3, 122040, Note_on_c, 1, 83, 113
3, 122040, Note_on_c, 1, 74, 113
3, 122150, Note_on_c, 1, 74, 0
3, 122150, Note_on_c, 1, 83, 0
3, 122160, Note_on_c, 1, 75, 116
3, 122160, Note_on_c, 1, 84, 116
3, 122270, Note_on_c, 1, 84, 0
3, 122270, Note_on_c, 1, 75, 0
3, 122280, Note_on_c, 1, 83, 118
3, 122280, Note_on_c, 1, 74, 118
3, 122390, Note_on_c, 1, 74, 0
3, 122390, Note_on_c, 1, 83, 0
3, 122400, Note_on_c, 1, 75, 121
3, 122400, Note_on_c, 1, 84, 121
3, 122510, Note_on_c, 1, 84, 0
3, 122510, Note_on_c, 1, 75, 0
3, 122520, Note_on_c, 1, 74, 124
3, 122520, Note_on_c, 1, 83, 124
3, 122630, Note_on_c, 1, 83, 0
3, 122630, Note_on_c, 1, 74, 0
3, 122640, Note_on_c, 1, 84, 127
3, 122640, Note_on_c, 1, 75, 127
3, 122760, Note_on_c, 1, 75, 0
3, 122760, Note_on_c, 1, 84, 0
3, 122880, Note_on_c, 1, 83, 127
3, 122880, Note_on_c, 1, 74, 127
3, 123000, Note_on_c, 1, 74, 0
3, 123000, Note_on_c, 1, 83, 0
3, 123120, Note_on_c, 1, 84, 127
3, 123120, Note_on_c, 1, 75, 127
3, 123240, Note_on_c, 1, 75, 0
3, 123240, Note_on_c, 1, 84, 0
3, 123240, End_track
4, 0, Start_track
4, 0, MIDI_port, 0
4, 0, Title_t, "Clarinetti B"
4, 0, Program_c, 2, 71
4, 0, Control_c, 2, 7, 127
4, 0, Control_c, 2, 10, 70
4, 60, Note_on_c, 2, 67, 127
4, 110, Note_on_c, 2, 67, 0
4, 120, Note_on_c, 2, 67, 127
4, 170, Note_on_c, 2, 67, 0
4, 180, Note_on_c, 2, 67, 127
4, 230, Note_on_c, 2, 67, 0
4, 240, Note_on_c, 2, 63, 127
4, 480, Note_on_c, 2, 63, 0
4, 540, Note_on_c, 2, 65, 127
4, 590, Note_on_c, 2, 65, 0
4, 600, Note_on_c, 2, 65, 127
4, 650, Note_on_c, 2, 65, 0
4, 660, Note_on_c, 2, 65, 127
4, 710, Note_on_c, 2, 65, 0
4, 720, Note_on_c, 2, 62, 127
4, 1200, Note_on_c, 2, 62, 0
4, 4140, Note_on_c, 2, 55, 65
4, 4140, Note_on_c, 2, 59, 65
4, 4190, Note_on_c, 2, 59, 0
4, 4190, Note_on_c, 2, 55, 0
4, 4200, Note_on_c, 2, 62, 85
4, 4200, Note_on_c, 2, 59, 85
4, 4250, Note_on_c, 2, 59, 0
4, 4250, Note_on_c, 2, 62, 0
4, 4260, Note_on_c, 2, 62, 106
4, 4260, Note_on_c, 2, 67, 106
4, 4310, Note_on_c, 2, 67, 0
4, 4310, Note_on_c, 2, 62, 0
4, 4320, Note_on_c, 2, 63, 127
4, 4320, Note_on_c, 2, 67, 127
4, 4440, Note_on_c, 2, 67, 0
4, 4440, Note_on_c, 2, 63, 0
4, 4560, Note_on_c, 2, 66, 127
4, 4560, Note_on_c, 2, 60, 127
4, 4680, Note_on_c, 2, 60, 0
4, 4680, Note_on_c, 2, 66, 0
4, 4800, Note_on_c, 2, 59, 127
4, 4800, Note_on_c, 2, 62, 127
4, 4920, Note_on_c, 2, 62, 0
4, 4920, Note_on_c, 2, 59, 0
4, 5100, Note_on_c, 2, 68, 127
4, 5150, Note_on_c, 2, 68, 0
4, 5160, Note_on_c, 2, 68, 127
4, 5210, Note_on_c, 2, 68, 0
4, 5220, Note_on_c, 2, 68, 127
4, 5270, Note_on_c, 2, 68, 0
4, 5280, Note_on_c, 2, 65, 127
4, 5760, Note_on_c, 2, 65, 0
4, 7500, Note_on_c, 2, 74, 50
4, 7550, Note_on_c, 2, 74, 0
4, 7560, Note_on_c, 2, 74, 50
4, 7610, Note_on_c, 2, 74, 0
4, 7620, Note_on_c, 2, 74, 50
4, 7670, Note_on_c, 2, 74, 0
4, 7680, Note_on_c, 2, 72, 50
4, 7800, Note_on_c, 2, 72, 0
4, 8880, Note_on_c, 2, 65, 100
4, 8880, Note_on_c, 2, 68, 100
4, 9000, Note_on_c, 2, 68, 0
4, 9000, Note_on_c, 2, 65, 0
4, 9120, Note_on_c, 2, 67, 100
4, 9120, Note_on_c, 2, 64, 100
4, 9240, Note_on_c, 2, 64, 0
4, 9240, Note_on_c, 2, 67, 0
4, 9360, Note_on_c, 2, 65, 100
4, 9360, Note_on_c, 2, 68, 100
4, 9480, Note_on_c, 2, 68, 0
4, 9480, Note_on_c, 2, 65, 0
4, 9600, Note_on_c, 2, 67, 100
4, 9600, Note_on_c, 2, 70, 100
4, 9720, Note_on_c, 2, 70, 0
4, 9720, Note_on_c, 2, 67, 0
4, 9840, Note_on_c, 2, 65, 100
4, 9840, Note_on_c, 2, 68, 100
4, 9960, Note_on_c, 2, 68, 0
4, 9960, Note_on_c, 2, 65, 0
4, 10080, Note_on_c, 2, 65, 100
4, 10080, Note_on_c, 2, 62, 100
4, 10200, Note_on_c, 2, 62, 0
4, 10200, Note_on_c, 2, 65, 0
4, 10320, Note_on_c, 2, 67, 100
4, 10320, Note_on_c, 2, 63, 100
4, 11270, Note_on_c, 2, 63, 0
4, 11270, Note_on_c, 2, 67, 0
4, 11280, Note_on_c, 2, 65, 100
4, 11280, Note_on_c, 2, 62, 100
4, 12110, Note_on_c, 2, 62, 0
4, 12110, Note_on_c, 2, 65, 0
4, 12120, Note_on_c, 2, 60, 100
4, 12120, Note_on_c, 2, 63, 100
4, 12230, Note_on_c, 2, 63, 0
4, 12230, Note_on_c, 2, 60, 0
4, 12240, Note_on_c, 2, 75, 127
4, 12240, Note_on_c, 2, 66, 127
4, 13190, Note_on_c, 2, 66, 0
4, 13190, Note_on_c, 2, 75, 0
4, 13200, Note_on_c, 2, 66, 127
4, 13200, Note_on_c, 2, 75, 127
4, 13320, Note_on_c, 2, 75, 0
4, 13320, Note_on_c, 2, 66, 0
4, 13680, Note_on_c, 2, 70, 127
4, 13800, Note_on_c, 2, 70, 0
4, 15840, Note_on_c, 2, 70, 50
4, 15960, Note_on_c, 2, 70, 0
4, 15960, Note_on_c, 2, 75, 50
4, 16080, Note_on_c, 2, 75, 0
4, 16080, Note_on_c, 2, 74, 50
4, 16200, Note_on_c, 2, 74, 0
4, 16200, Note_on_c, 2, 75, 50
4, 16320, Note_on_c, 2, 75, 0
4, 16320, Note_on_c, 2, 77, 50
4, 16440, Note_on_c, 2, 77, 0
4, 16440, Note_on_c, 2, 72, 50
4, 16550, Note_on_c, 2, 72, 0
4, 16560, Note_on_c, 2, 72, 50
4, 16680, Note_on_c, 2, 72, 0
4, 16680, Note_on_c, 2, 70, 50
4, 16800, Note_on_c, 2, 70, 0
4, 19680, Note_on_c, 2, 72, 50
4, 19680, Note_on_c, 2, 75, 50
4, 20390, Note_on_c, 2, 75, 0
4, 20390, Note_on_c, 2, 72, 0
4, 20400, Note_on_c, 2, 75, 65
4, 20400, Note_on_c, 2, 70, 65
4, 20870, Note_on_c, 2, 70, 0
4, 20870, Note_on_c, 2, 75, 0
4, 20880, Note_on_c, 2, 75, 80
4, 20880, Note_on_c, 2, 69, 80
4, 21950, Note_on_c, 2, 69, 0
4, 21950, Note_on_c, 2, 75, 0
4, 21960, Note_on_c, 2, 69, 115
4, 21960, Note_on_c, 2, 75, 115
4, 22070, Note_on_c, 2, 75, 0
4, 22070, Note_on_c, 2, 69, 0
4, 22080, Note_on_c, 2, 75, 119
4, 22080, Note_on_c, 2, 69, 119
4, 22190, Note_on_c, 2, 69, 0
4, 22190, Note_on_c, 2, 75, 0
4, 22200, Note_on_c, 2, 75, 123
4, 22200, Note_on_c, 2, 69, 123
4, 22310, Note_on_c, 2, 69, 0
4, 22310, Note_on_c, 2, 75, 0
4, 22320, Note_on_c, 2, 70, 127
4, 22320, Note_on_c, 2, 68, 127
4, 22670, Note_on_c, 2, 68, 0
4, 22670, Note_on_c, 2, 70, 0
4, 22680, Note_on_c, 2, 70, 127
4, 22680, Note_on_c, 2, 65, 127
4, 22790, Note_on_c, 2, 65, 0
4, 22790, Note_on_c, 2, 70, 0
4, 22800, Note_on_c, 2, 67, 127
4, 22800, Note_on_c, 2, 70, 127
4, 22920, Note_on_c, 2, 70, 0
4, 22920, Note_on_c, 2, 67, 0
4, 23040, Note_on_c, 2, 70, 127
4, 23040, Note_on_c, 2, 68, 127
4, 23160, Note_on_c, 2, 68, 0
4, 23160, Note_on_c, 2, 70, 0
4, 23280, Note_on_c, 2, 67, 127
4, 23280, Note_on_c, 2, 70, 127
4, 23400, Note_on_c, 2, 70, 0
4, 23400, Note_on_c, 2, 67, 0
4, 23520, Note_on_c, 2, 65, 127
4, 23520, Note_on_c, 2, 72, 127
4, 23640, Note_on_c, 2, 72, 0
4, 23640, Note_on_c, 2, 65, 0
4, 23760, Note_on_c, 2, 67, 127
4, 23760, Note_on_c, 2, 70, 127
4, 23880, Note_on_c, 2, 70, 0
4, 23880, Note_on_c, 2, 67, 0
4, 24000, Note_on_c, 2, 70, 127
4, 24000, Note_on_c, 2, 65, 127
4, 24050, Note_on_c, 2, 65, 0
4, 24050, Note_on_c, 2, 70, 0
4, 24060, Note_on_c, 2, 69, 127
4, 24060, Note_on_c, 2, 81, 127
4, 24120, Note_on_c, 2, 81, 0
4, 24120, Note_on_c, 2, 69, 0
4, 24120, Note_on_c, 2, 70, 127
4, 24120, Note_on_c, 2, 82, 127
4, 24180, Note_on_c, 2, 82, 0
4, 24180, Note_on_c, 2, 70, 0
4, 24180, Note_on_c, 2, 81, 127
4, 24180, Note_on_c, 2, 69, 127
4, 24240, Note_on_c, 2, 69, 0
4, 24240, Note_on_c, 2, 81, 0
4, 24240, Note_on_c, 2, 82, 127
4, 24240, Note_on_c, 2, 70, 127
4, 24300, Note_on_c, 2, 70, 0
4, 24300, Note_on_c, 2, 82, 0
4, 24300, Note_on_c, 2, 81, 127
4, 24300, Note_on_c, 2, 69, 127
4, 24360, Note_on_c, 2, 69, 0
4, 24360, Note_on_c, 2, 81, 0
4, 24360, Note_on_c, 2, 70, 127
4, 24360, Note_on_c, 2, 82, 127
4, 24420, Note_on_c, 2, 82, 0
4, 24420, Note_on_c, 2, 70, 0
4, 24420, Note_on_c, 2, 81, 127
4, 24420, Note_on_c, 2, 69, 127
4, 24470, Note_on_c, 2, 69, 0
4, 24470, Note_on_c, 2, 81, 0
4, 24480, Note_on_c, 2, 70, 127
4, 24480, Note_on_c, 2, 82, 127
4, 24525, Note_on_c, 2, 82, 0
4, 24525, Note_on_c, 2, 70, 0
4, 24540, Note_on_c, 2, 84, 127
4, 24540, Note_on_c, 2, 72, 127
4, 24585, Note_on_c, 2, 72, 0
4, 24585, Note_on_c, 2, 84, 0
4, 24600, Note_on_c, 2, 70, 127
4, 24600, Note_on_c, 2, 82, 127
4, 24645, Note_on_c, 2, 82, 0
4, 24645, Note_on_c, 2, 70, 0
4, 24660, Note_on_c, 2, 68, 127
4, 24660, Note_on_c, 2, 80, 127
4, 24705, Note_on_c, 2, 80, 0
4, 24705, Note_on_c, 2, 68, 0
4, 24720, Note_on_c, 2, 67, 127
4, 24720, Note_on_c, 2, 79, 127
4, 24830, Note_on_c, 2, 79, 0
4, 24830, Note_on_c, 2, 67, 0
4, 24840, Note_on_c, 2, 67, 127
4, 24840, Note_on_c, 2, 79, 127
4, 24960, Note_on_c, 2, 79, 0
4, 24960, Note_on_c, 2, 67, 0
4, 25080, Note_on_c, 2, 74, 127
4, 25080, Note_on_c, 2, 65, 127
4, 25200, Note_on_c, 2, 65, 0
4, 25200, Note_on_c, 2, 74, 0
4, 25320, Note_on_c, 2, 67, 127
4, 25320, Note_on_c, 2, 75, 127
4, 25440, Note_on_c, 2, 75, 0
4, 25440, Note_on_c, 2, 67, 0
4, 25560, Note_on_c, 2, 65, 127
4, 25560, Note_on_c, 2, 68, 127
4, 25680, Note_on_c, 2, 68, 0
4, 25680, Note_on_c, 2, 65, 0
4, 25800, Note_on_c, 2, 63, 127
4, 25800, Note_on_c, 2, 67, 127
4, 25920, Note_on_c, 2, 67, 0
4, 25920, Note_on_c, 2, 63, 0
4, 26040, Note_on_c, 2, 65, 127
4, 26040, Note_on_c, 2, 74, 127
4, 26150, Note_on_c, 2, 74, 0
4, 26150, Note_on_c, 2, 65, 0
4, 26160, Note_on_c, 2, 67, 127
4, 26160, Note_on_c, 2, 75, 127
4, 26210, Note_on_c, 2, 75, 0
4, 26210, Note_on_c, 2, 67, 0
4, 26220, Note_on_c, 2, 79, 127
4, 26270, Note_on_c, 2, 79, 0
4, 26280, Note_on_c, 2, 79, 127
4, 26330, Note_on_c, 2, 79, 0
4, 26340, Note_on_c, 2, 79, 127
4, 26390, Note_on_c, 2, 79, 0
4, 26400, Note_on_c, 2, 75, 127
4, 26450, Note_on_c, 2, 75, 0
4, 26460, Note_on_c, 2, 82, 127
4, 26460, Note_on_c, 2, 70, 127
4, 26510, Note_on_c, 2, 70, 0
4, 26510, Note_on_c, 2, 82, 0
4, 26520, Note_on_c, 2, 82, 127
4, 26520, Note_on_c, 2, 70, 127
4, 26570, Note_on_c, 2, 70, 0
4, 26570, Note_on_c, 2, 82, 0
4, 26580, Note_on_c, 2, 82, 127
4, 26580, Note_on_c, 2, 70, 127
4, 26630, Note_on_c, 2, 70, 0
4, 26630, Note_on_c, 2, 82, 0
4, 26640, Note_on_c, 2, 67, 127
4, 26640, Note_on_c, 2, 79, 127
4, 26690, Note_on_c, 2, 79, 0
4, 26690, Note_on_c, 2, 67, 0
4, 26700, Note_on_c, 2, 63, 127
4, 26700, Note_on_c, 2, 75, 127
4, 26750, Note_on_c, 2, 75, 0
4, 26750, Note_on_c, 2, 63, 0
4, 26760, Note_on_c, 2, 75, 127
4, 26760, Note_on_c, 2, 63, 127
4, 26810, Note_on_c, 2, 63, 0
4, 26810, Note_on_c, 2, 75, 0
4, 26820, Note_on_c, 2, 63, 127
4, 26820, Note_on_c, 2, 75, 127
4, 26870, Note_on_c, 2, 75, 0
4, 26870, Note_on_c, 2, 63, 0
4, 26880, Note_on_c, 2, 58, 127
4, 26880, Note_on_c, 2, 70, 127
4, 27170, Note_on_c, 2, 70, 0
4, 27170, Note_on_c, 2, 58, 0
4, 27180, Note_on_c, 2, 79, 127
4, 27230, Note_on_c, 2, 79, 0
4, 27240, Note_on_c, 2, 79, 127
4, 27290, Note_on_c, 2, 79, 0
4, 27300, Note_on_c, 2, 79, 127
4, 27350, Note_on_c, 2, 79, 0
4, 27360, Note_on_c, 2, 75, 127
4, 27410, Note_on_c, 2, 75, 0
4, 27420, Note_on_c, 2, 82, 127
4, 27420, Note_on_c, 2, 70, 127
4, 27470, Note_on_c, 2, 70, 0
4, 27470, Note_on_c, 2, 82, 0
4, 27480, Note_on_c, 2, 70, 127
4, 27480, Note_on_c, 2, 82, 127
4, 27530, Note_on_c, 2, 82, 0
4, 27530, Note_on_c, 2, 70, 0
4, 27540, Note_on_c, 2, 70, 127
4, 27540, Note_on_c, 2, 82, 127
4, 27590, Note_on_c, 2, 82, 0
4, 27590, Note_on_c, 2, 70, 0
4, 27600, Note_on_c, 2, 79, 127
4, 27600, Note_on_c, 2, 67, 127
4, 27650, Note_on_c, 2, 67, 0
4, 27650, Note_on_c, 2, 79, 0
4, 27660, Note_on_c, 2, 63, 127
4, 27660, Note_on_c, 2, 75, 127
4, 27710, Note_on_c, 2, 75, 0
4, 27710, Note_on_c, 2, 63, 0
4, 27720, Note_on_c, 2, 63, 127
4, 27720, Note_on_c, 2, 75, 127
4, 27770, Note_on_c, 2, 75, 0
4, 27770, Note_on_c, 2, 63, 0
4, 27780, Note_on_c, 2, 75, 127
4, 27780, Note_on_c, 2, 63, 127
4, 27830, Note_on_c, 2, 63, 0
4, 27830, Note_on_c, 2, 75, 0
4, 27840, Note_on_c, 2, 58, 127
4, 27840, Note_on_c, 2, 70, 127
4, 28200, Note_on_c, 2, 70, 0
4, 28200, Note_on_c, 2, 58, 0
4, 28380, Note_on_c, 2, 74, 127
4, 28380, Note_on_c, 2, 65, 127
4, 28430, Note_on_c, 2, 65, 0
4, 28430, Note_on_c, 2, 74, 0
4, 28440, Note_on_c, 2, 65, 127
4, 28440, Note_on_c, 2, 74, 127
4, 28490, Note_on_c, 2, 74, 0
4, 28490, Note_on_c, 2, 65, 0
4, 28500, Note_on_c, 2, 65, 127
4, 28500, Note_on_c, 2, 74, 127
4, 28550, Note_on_c, 2, 74, 0
4, 28550, Note_on_c, 2, 65, 0
4, 28560, Note_on_c, 2, 67, 127
4, 28560, Note_on_c, 2, 75, 127
4, 28680, Note_on_c, 2, 75, 0
4, 28680, Note_on_c, 2, 67, 0
4, 28860, Note_on_c, 2, 74, 127
4, 28860, Note_on_c, 2, 77, 127
4, 28910, Note_on_c, 2, 77, 0
4, 28910, Note_on_c, 2, 74, 0
4, 28920, Note_on_c, 2, 77, 127
4, 28920, Note_on_c, 2, 74, 127
4, 28970, Note_on_c, 2, 74, 0
4, 28970, Note_on_c, 2, 77, 0
4, 28980, Note_on_c, 2, 77, 127
4, 28980, Note_on_c, 2, 74, 127
4, 29030, Note_on_c, 2, 74, 0
4, 29030, Note_on_c, 2, 77, 0
4, 29040, Note_on_c, 2, 75, 127
4, 29040, Note_on_c, 2, 67, 127
4, 29160, Note_on_c, 2, 67, 0
4, 29160, Note_on_c, 2, 75, 0
4, 29820, Note_on_c, 2, 70, 127
4, 29870, Note_on_c, 2, 70, 0
4, 29880, Note_on_c, 2, 70, 127
4, 29930, Note_on_c, 2, 70, 0
4, 29940, Note_on_c, 2, 70, 127
4, 29990, Note_on_c, 2, 70, 0
4, 30000, Note_on_c, 2, 67, 127
4, 30720, Note_on_c, 2, 67, 0
4, 31020, Note_on_c, 2, 73, 50
4, 31070, Note_on_c, 2, 73, 0
4, 31080, Note_on_c, 2, 73, 50
4, 31130, Note_on_c, 2, 73, 0
4, 31140, Note_on_c, 2, 73, 50
4, 31190, Note_on_c, 2, 73, 0
4, 31200, Note_on_c, 2, 72, 50
4, 31970, Note_on_c, 2, 72, 0
4, 31980, Note_on_c, 2, 73, 50
4, 32030, Note_on_c, 2, 73, 0
4, 32040, Note_on_c, 2, 73, 50
4, 32090, Note_on_c, 2, 73, 0
4, 32100, Note_on_c, 2, 73, 50
4, 32150, Note_on_c, 2, 73, 0
4, 32160, Note_on_c, 2, 72, 50
4, 32870, Note_on_c, 2, 72, 0
4, 32880, Note_on_c, 2, 72, 50
4, 32880, Note_on_c, 2, 68, 50
4, 33120, Note_on_c, 2, 68, 0
4, 33120, Note_on_c, 2, 67, 50
4, 33360, Note_on_c, 2, 67, 0
4, 33360, Note_on_c, 2, 68, 50
4, 33600, Note_on_c, 2, 68, 0
4, 33600, Note_on_c, 2, 67, 50
4, 33840, Note_on_c, 2, 67, 0
4, 33840, Note_on_c, 2, 68, 50
4, 33960, Note_on_c, 2, 68, 0
4, 33960, Note_on_c, 2, 72, 0
4, 34800, Note_on_c, 2, 75, 50
4, 34800, Note_on_c, 2, 72, 50
4, 35040, Note_on_c, 2, 72, 0
4, 35040, Note_on_c, 2, 75, 0
4, 35040, Note_on_c, 2, 71, 50
4, 35040, Note_on_c, 2, 74, 50
4, 35280, Note_on_c, 2, 74, 0
4, 35280, Note_on_c, 2, 71, 0
4, 35280, Note_on_c, 2, 72, 50
4, 35280, Note_on_c, 2, 75, 50
4, 35520, Note_on_c, 2, 75, 0
4, 35520, Note_on_c, 2, 72, 0
4, 35520, Note_on_c, 2, 74, 50
4, 35520, Note_on_c, 2, 71, 50
4, 35760, Note_on_c, 2, 71, 0
4, 35760, Note_on_c, 2, 74, 0
4, 35760, Note_on_c, 2, 75, 50
4, 35760, Note_on_c, 2, 72, 50
4, 35880, Note_on_c, 2, 72, 0
4, 35880, Note_on_c, 2, 75, 0
4, 36540, Note_on_c, 2, 66, 50
4, 36540, Note_on_c, 2, 74, 50
4, 36590, Note_on_c, 2, 74, 0
4, 36590, Note_on_c, 2, 66, 0
4, 36600, Note_on_c, 2, 66, 50
4, 36600, Note_on_c, 2, 74, 50
4, 36650, Note_on_c, 2, 74, 0
4, 36650, Note_on_c, 2, 66, 0
4, 36660, Note_on_c, 2, 72, 50
4, 36660, Note_on_c, 2, 69, 50
4, 36710, Note_on_c, 2, 69, 0
4, 36710, Note_on_c, 2, 72, 0
4, 36720, Note_on_c, 2, 67, 50
4, 36720, Note_on_c, 2, 70, 50
4, 36950, Note_on_c, 2, 70, 0
4, 36950, Note_on_c, 2, 67, 0
4, 36960, Note_on_c, 2, 69, 50
4, 36960, Note_on_c, 2, 66, 50
4, 37010, Note_on_c, 2, 66, 0
4, 37010, Note_on_c, 2, 69, 0
4, 37020, Note_on_c, 2, 74, 50
4, 37020, Note_on_c, 2, 66, 50
4, 37070, Note_on_c, 2, 66, 0
4, 37070, Note_on_c, 2, 74, 0
4, 37080, Note_on_c, 2, 74, 50
4, 37080, Note_on_c, 2, 66, 50
4, 37130, Note_on_c, 2, 66, 0
4, 37130, Note_on_c, 2, 74, 0
4, 37140, Note_on_c, 2, 69, 50
4, 37140, Note_on_c, 2, 72, 50
4, 37190, Note_on_c, 2, 72, 0
4, 37190, Note_on_c, 2, 69, 0
4, 37200, Note_on_c, 2, 67, 50
4, 37200, Note_on_c, 2, 70, 50
4, 37430, Note_on_c, 2, 70, 0
4, 37430, Note_on_c, 2, 67, 0
4, 37440, Note_on_c, 2, 69, 50
4, 37440, Note_on_c, 2, 66, 50
4, 37670, Note_on_c, 2, 66, 0
4, 37670, Note_on_c, 2, 69, 0
4, 37680, Note_on_c, 2, 67, 50
4, 37680, Note_on_c, 2, 70, 50
4, 37970, Note_on_c, 2, 70, 0
4, 37970, Note_on_c, 2, 67, 0
4, 37980, Note_on_c, 2, 67, 50
4, 38030, Note_on_c, 2, 67, 0
4, 38040, Note_on_c, 2, 69, 50
4, 38090, Note_on_c, 2, 69, 0
4, 38100, Note_on_c, 2, 70, 50
4, 38150, Note_on_c, 2, 70, 0
4, 38160, Note_on_c, 2, 66, 50
4, 38160, Note_on_c, 2, 72, 50
4, 38280, Note_on_c, 2, 72, 0
4, 38280, Note_on_c, 2, 66, 0
4, 38460, Note_on_c, 2, 66, 50
4, 38510, Note_on_c, 2, 66, 0
4, 38520, Note_on_c, 2, 69, 50
4, 38570, Note_on_c, 2, 69, 0
4, 38580, Note_on_c, 2, 70, 50
4, 38630, Note_on_c, 2, 70, 0
4, 38640, Note_on_c, 2, 72, 50
4, 38640, Note_on_c, 2, 66, 50
4, 38760, Note_on_c, 2, 66, 0
4, 38760, Note_on_c, 2, 72, 0
4, 38940, Note_on_c, 2, 69, 50
4, 38990, Note_on_c, 2, 69, 0
4, 39000, Note_on_c, 2, 70, 50
4, 39050, Note_on_c, 2, 70, 0
4, 39060, Note_on_c, 2, 72, 50
4, 39110, Note_on_c, 2, 72, 0
4, 39120, Note_on_c, 2, 74, 50
4, 39120, Note_on_c, 2, 67, 50
4, 39240, Note_on_c, 2, 67, 0
4, 39240, Note_on_c, 2, 74, 0
4, 39420, Note_on_c, 2, 67, 50
4, 39470, Note_on_c, 2, 67, 0
4, 39480, Note_on_c, 2, 70, 50
4, 39530, Note_on_c, 2, 70, 0
4, 39540, Note_on_c, 2, 72, 50
4, 39590, Note_on_c, 2, 72, 0
4, 39600, Note_on_c, 2, 67, 50
4, 39600, Note_on_c, 2, 74, 50
4, 39720, Note_on_c, 2, 74, 0
4, 39720, Note_on_c, 2, 67, 0
4, 39900, Note_on_c, 2, 70, 81
4, 39900, Note_on_c, 2, 67, 81
4, 39950, Note_on_c, 2, 67, 0
4, 39950, Note_on_c, 2, 70, 0
4, 39960, Note_on_c, 2, 72, 87
4, 39960, Note_on_c, 2, 69, 87
4, 40010, Note_on_c, 2, 69, 0
4, 40010, Note_on_c, 2, 72, 0
4, 40020, Note_on_c, 2, 74, 93
4, 40020, Note_on_c, 2, 70, 93
4, 40070, Note_on_c, 2, 70, 0
4, 40070, Note_on_c, 2, 74, 0
4, 40080, Note_on_c, 2, 66, 100
4, 40080, Note_on_c, 2, 69, 100
4, 40550, Note_on_c, 2, 69, 0
4, 40550, Note_on_c, 2, 66, 0
4, 40560, Note_on_c, 2, 66, 100
4, 40560, Note_on_c, 2, 69, 100
4, 40680, Note_on_c, 2, 69, 0
4, 40680, Note_on_c, 2, 66, 0
4, 40860, Note_on_c, 2, 70, 100
4, 40860, Note_on_c, 2, 67, 100
4, 40910, Note_on_c, 2, 67, 0
4, 40910, Note_on_c, 2, 70, 0
4, 40920, Note_on_c, 2, 70, 100
4, 40920, Note_on_c, 2, 67, 100
4, 40970, Note_on_c, 2, 67, 0
4, 40970, Note_on_c, 2, 70, 0
4, 40980, Note_on_c, 2, 70, 100
4, 40980, Note_on_c, 2, 67, 100
4, 41030, Note_on_c, 2, 67, 0
4, 41030, Note_on_c, 2, 70, 0
4, 41040, Note_on_c, 2, 70, 100
4, 41040, Note_on_c, 2, 67, 100
4, 41510, Note_on_c, 2, 67, 0
4, 41510, Note_on_c, 2, 70, 0
4, 41520, Note_on_c, 2, 67, 100
4, 41520, Note_on_c, 2, 70, 100
4, 41640, Note_on_c, 2, 70, 0
4, 41640, Note_on_c, 2, 67, 0
4, 41820, Note_on_c, 2, 70, 104
4, 41820, Note_on_c, 2, 67, 104
4, 41870, Note_on_c, 2, 67, 0
4, 41870, Note_on_c, 2, 70, 0
4, 41880, Note_on_c, 2, 70, 106
4, 41880, Note_on_c, 2, 67, 106
4, 41930, Note_on_c, 2, 67, 0
4, 41930, Note_on_c, 2, 70, 0
4, 41940, Note_on_c, 2, 67, 107
4, 41940, Note_on_c, 2, 70, 107
4, 41990, Note_on_c, 2, 70, 0
4, 41990, Note_on_c, 2, 67, 0
4, 42000, Note_on_c, 2, 67, 109
4, 42000, Note_on_c, 2, 70, 109
4, 42120, Note_on_c, 2, 70, 0
4, 42120, Note_on_c, 2, 67, 0
4, 42360, Note_on_c, 2, 70, 118
4, 42360, Note_on_c, 2, 67, 118
4, 42410, Note_on_c, 2, 67, 0
4, 42410, Note_on_c, 2, 70, 0
4, 42420, Note_on_c, 2, 67, 119
4, 42420, Note_on_c, 2, 70, 119
4, 42470, Note_on_c, 2, 70, 0
4, 42470, Note_on_c, 2, 67, 0
4, 42480, Note_on_c, 2, 67, 121
4, 42480, Note_on_c, 2, 70, 121
4, 42590, Note_on_c, 2, 70, 0
4, 42590, Note_on_c, 2, 67, 0
4, 42600, Note_on_c, 2, 62, 124
4, 42600, Note_on_c, 2, 69, 124
4, 42650, Note_on_c, 2, 69, 0
4, 42650, Note_on_c, 2, 62, 0
4, 42660, Note_on_c, 2, 69, 125
4, 42660, Note_on_c, 2, 62, 125
4, 42710, Note_on_c, 2, 62, 0
4, 42710, Note_on_c, 2, 69, 0
4, 42720, Note_on_c, 2, 69, 127
4, 42720, Note_on_c, 2, 62, 127
4, 42840, Note_on_c, 2, 62, 0
4, 42840, Note_on_c, 2, 69, 0
4, 44040, Note_on_c, 2, 72, 127
4, 44090, Note_on_c, 2, 72, 0
4, 44100, Note_on_c, 2, 72, 127
4, 44150, Note_on_c, 2, 72, 0
4, 44160, Note_on_c, 2, 72, 127
4, 44280, Note_on_c, 2, 72, 0
4, 44520, Note_on_c, 2, 69, 127
4, 44520, Note_on_c, 2, 66, 127
4, 44570, Note_on_c, 2, 66, 0
4, 44570, Note_on_c, 2, 69, 0
4, 44580, Note_on_c, 2, 66, 127
4, 44580, Note_on_c, 2, 69, 127
4, 44630, Note_on_c, 2, 69, 0
4, 44630, Note_on_c, 2, 66, 0
4, 44640, Note_on_c, 2, 71, 127
4, 44640, Note_on_c, 2, 67, 127
4, 44760, Note_on_c, 2, 67, 0
4, 44760, Note_on_c, 2, 71, 0
4, 45960, Note_on_c, 2, 71, 127
4, 46010, Note_on_c, 2, 71, 0
4, 46020, Note_on_c, 2, 71, 127
4, 46070, Note_on_c, 2, 71, 0
4, 46080, Note_on_c, 2, 71, 127
4, 46200, Note_on_c, 2, 71, 0
4, 46440, Note_on_c, 2, 74, 127
4, 46440, Note_on_c, 2, 71, 127
4, 46490, Note_on_c, 2, 71, 0
4, 46490, Note_on_c, 2, 74, 0
4, 46500, Note_on_c, 2, 71, 127
4, 46500, Note_on_c, 2, 74, 127
4, 46550, Note_on_c, 2, 74, 0
4, 46550, Note_on_c, 2, 71, 0
4, 46560, Note_on_c, 2, 72, 127
4, 46560, Note_on_c, 2, 76, 127
4, 46610, Note_on_c, 2, 76, 0
4, 46610, Note_on_c, 2, 72, 0
4, 46620, Note_on_c, 2, 72, 127
4, 46620, Note_on_c, 2, 84, 127
4, 46670, Note_on_c, 2, 84, 0
4, 46670, Note_on_c, 2, 72, 0
4, 46680, Note_on_c, 2, 72, 127
4, 46680, Note_on_c, 2, 84, 127
4, 46730, Note_on_c, 2, 84, 0
4, 46730, Note_on_c, 2, 72, 0
4, 46740, Note_on_c, 2, 84, 127
4, 46740, Note_on_c, 2, 72, 127
4, 46790, Note_on_c, 2, 72, 0
4, 46790, Note_on_c, 2, 84, 0
4, 46800, Note_on_c, 2, 77, 127
4, 46800, Note_on_c, 2, 65, 127
4, 47030, Note_on_c, 2, 65, 0
4, 47030, Note_on_c, 2, 77, 0
4, 47040, Note_on_c, 2, 67, 127
4, 47040, Note_on_c, 2, 79, 127
4, 47280, Note_on_c, 2, 79, 0
4, 47280, Note_on_c, 2, 67, 0
4, 47760, Note_on_c, 2, 77, 127
4, 47760, Note_on_c, 2, 65, 127
4, 47990, Note_on_c, 2, 65, 0
4, 47990, Note_on_c, 2, 77, 0
4, 48000, Note_on_c, 2, 79, 127
4, 48000, Note_on_c, 2, 67, 127
4, 48240, Note_on_c, 2, 67, 0
4, 48240, Note_on_c, 2, 79, 0
4, 48720, Note_on_c, 2, 68, 127
4, 48720, Note_on_c, 2, 72, 127
4, 48950, Note_on_c, 2, 72, 0
4, 48950, Note_on_c, 2, 68, 0
4, 48960, Note_on_c, 2, 73, 127
4, 48960, Note_on_c, 2, 66, 127
4, 49200, Note_on_c, 2, 66, 0
4, 49200, Note_on_c, 2, 73, 0
4, 49680, Note_on_c, 2, 69, 127
4, 49680, Note_on_c, 2, 75, 127
4, 49910, Note_on_c, 2, 75, 0
4, 49910, Note_on_c, 2, 69, 0
4, 49920, Note_on_c, 2, 73, 127
4, 49920, Note_on_c, 2, 70, 127
4, 50160, Note_on_c, 2, 70, 0
4, 50160, Note_on_c, 2, 73, 0
4, 50400, Note_on_c, 2, 71, 112
4, 50640, Note_on_c, 2, 71, 0
4, 50880, Note_on_c, 2, 73, 81
4, 50880, Note_on_c, 2, 68, 81
4, 51120, Note_on_c, 2, 68, 0
4, 51120, Note_on_c, 2, 73, 0
4, 51360, Note_on_c, 2, 73, 50
4, 51360, Note_on_c, 2, 69, 50
4, 51600, Note_on_c, 2, 69, 0
4, 51600, Note_on_c, 2, 73, 0
4, 51840, Note_on_c, 2, 73, 50
4, 51840, Note_on_c, 2, 69, 50
4, 52080, Note_on_c, 2, 69, 0
4, 52080, Note_on_c, 2, 73, 0
4, 52320, Note_on_c, 2, 69, 50
4, 52320, Note_on_c, 2, 73, 50
4, 52560, Note_on_c, 2, 73, 0
4, 52560, Note_on_c, 2, 69, 0
4, 52800, Note_on_c, 2, 69, 50
4, 52800, Note_on_c, 2, 74, 50
4, 53040, Note_on_c, 2, 74, 0
4, 53040, Note_on_c, 2, 69, 0
4, 53280, Note_on_c, 2, 74, 50
4, 53280, Note_on_c, 2, 69, 50
4, 53520, Note_on_c, 2, 69, 0
4, 53520, Note_on_c, 2, 74, 0
4, 53760, Note_on_c, 2, 74, 50
4, 53760, Note_on_c, 2, 69, 50
4, 54000, Note_on_c, 2, 69, 0
4, 54000, Note_on_c, 2, 74, 0
4, 54240, Note_on_c, 2, 74, 50
4, 54240, Note_on_c, 2, 69, 50
4, 54480, Note_on_c, 2, 69, 0
4, 54480, Note_on_c, 2, 74, 0
4, 54540, Note_on_c, 2, 74, 127
4, 54590, Note_on_c, 2, 74, 0
4, 54600, Note_on_c, 2, 74, 127
4, 54650, Note_on_c, 2, 74, 0
4, 54660, Note_on_c, 2, 74, 127
4, 54710, Note_on_c, 2, 74, 0
4, 54720, Note_on_c, 2, 71, 127
4, 54950, Note_on_c, 2, 71, 0
4, 54960, Note_on_c, 2, 72, 127
4, 55190, Note_on_c, 2, 72, 0
4, 55200, Note_on_c, 2, 69, 127
4, 55670, Note_on_c, 2, 69, 0
4, 55680, Note_on_c, 2, 74, 50
4, 55680, Note_on_c, 2, 68, 50
4, 55920, Note_on_c, 2, 68, 0
4, 55920, Note_on_c, 2, 74, 0
4, 56160, Note_on_c, 2, 74, 50
4, 56160, Note_on_c, 2, 68, 50
4, 56400, Note_on_c, 2, 68, 0
4, 56400, Note_on_c, 2, 74, 0
4, 56640, Note_on_c, 2, 68, 50
4, 56640, Note_on_c, 2, 74, 50
4, 56880, Note_on_c, 2, 74, 0
4, 56880, Note_on_c, 2, 68, 0
4, 57120, Note_on_c, 2, 74, 50
4, 57120, Note_on_c, 2, 68, 50
4, 57360, Note_on_c, 2, 68, 0
4, 57360, Note_on_c, 2, 74, 0
4, 57660, Note_on_c, 2, 80, 127
4, 57660, Note_on_c, 2, 68, 127
4, 57710, Note_on_c, 2, 68, 0
4, 57710, Note_on_c, 2, 80, 0
4, 57720, Note_on_c, 2, 80, 127
4, 57720, Note_on_c, 2, 68, 127
4, 57770, Note_on_c, 2, 68, 0
4, 57770, Note_on_c, 2, 80, 0
4, 57780, Note_on_c, 2, 80, 127
4, 57780, Note_on_c, 2, 68, 127
4, 57830, Note_on_c, 2, 68, 0
4, 57830, Note_on_c, 2, 80, 0
4, 57840, Note_on_c, 2, 65, 127
4, 57840, Note_on_c, 2, 77, 127
4, 58130, Note_on_c, 2, 77, 0
4, 58130, Note_on_c, 2, 65, 0
4, 58140, Note_on_c, 2, 68, 127
4, 58140, Note_on_c, 2, 80, 127
4, 58190, Note_on_c, 2, 80, 0
4, 58190, Note_on_c, 2, 68, 0
4, 58200, Note_on_c, 2, 80, 127
4, 58200, Note_on_c, 2, 68, 127
4, 58250, Note_on_c, 2, 68, 0
4, 58250, Note_on_c, 2, 80, 0
4, 58260, Note_on_c, 2, 68, 127
4, 58260, Note_on_c, 2, 80, 127
4, 58310, Note_on_c, 2, 80, 0
4, 58310, Note_on_c, 2, 68, 0
4, 58320, Note_on_c, 2, 77, 127
4, 58320, Note_on_c, 2, 65, 127
4, 58610, Note_on_c, 2, 65, 0
4, 58610, Note_on_c, 2, 77, 0
4, 58620, Note_on_c, 2, 80, 127
4, 58620, Note_on_c, 2, 68, 127
4, 58670, Note_on_c, 2, 68, 0
4, 58670, Note_on_c, 2, 80, 0
4, 58680, Note_on_c, 2, 68, 127
4, 58680, Note_on_c, 2, 80, 127
4, 58730, Note_on_c, 2, 80, 0
4, 58730, Note_on_c, 2, 68, 0
4, 58740, Note_on_c, 2, 68, 127
4, 58740, Note_on_c, 2, 80, 127
4, 58790, Note_on_c, 2, 80, 0
4, 58790, Note_on_c, 2, 68, 0
4, 58800, Note_on_c, 2, 65, 127
4, 58800, Note_on_c, 2, 77, 127
4, 58850, Note_on_c, 2, 77, 0
4, 58850, Note_on_c, 2, 65, 0
4, 58860, Note_on_c, 2, 80, 127
4, 58860, Note_on_c, 2, 68, 127
4, 58910, Note_on_c, 2, 68, 0
4, 58910, Note_on_c, 2, 80, 0
4, 58920, Note_on_c, 2, 80, 127
4, 58920, Note_on_c, 2, 68, 127
4, 58970, Note_on_c, 2, 68, 0
4, 58970, Note_on_c, 2, 80, 0
4, 58980, Note_on_c, 2, 68, 127
4, 58980, Note_on_c, 2, 80, 127
4, 59030, Note_on_c, 2, 80, 0
4, 59030, Note_on_c, 2, 68, 0
4, 59040, Note_on_c, 2, 77, 127
4, 59040, Note_on_c, 2, 65, 127
4, 59090, Note_on_c, 2, 65, 0
4, 59090, Note_on_c, 2, 77, 0
4, 59100, Note_on_c, 2, 68, 127
4, 59100, Note_on_c, 2, 80, 127
4, 59150, Note_on_c, 2, 80, 0
4, 59150, Note_on_c, 2, 68, 0
4, 59160, Note_on_c, 2, 80, 127
4, 59160, Note_on_c, 2, 68, 127
4, 59210, Note_on_c, 2, 68, 0
4, 59210, Note_on_c, 2, 80, 0
4, 59220, Note_on_c, 2, 68, 127
4, 59220, Note_on_c, 2, 80, 127
4, 59270, Note_on_c, 2, 80, 0
4, 59270, Note_on_c, 2, 68, 0
4, 59280, Note_on_c, 2, 77, 127
4, 59280, Note_on_c, 2, 65, 127
4, 59330, Note_on_c, 2, 65, 0
4, 59330, Note_on_c, 2, 77, 0
4, 59340, Note_on_c, 2, 79, 127
4, 59340, Note_on_c, 2, 67, 127
4, 59390, Note_on_c, 2, 67, 0
4, 59390, Note_on_c, 2, 79, 0
4, 59400, Note_on_c, 2, 79, 127
4, 59400, Note_on_c, 2, 67, 127
4, 59450, Note_on_c, 2, 67, 0
4, 59450, Note_on_c, 2, 79, 0
4, 59460, Note_on_c, 2, 67, 127
4, 59460, Note_on_c, 2, 79, 127
4, 59510, Note_on_c, 2, 79, 0
4, 59510, Note_on_c, 2, 67, 0
4, 59520, Note_on_c, 2, 75, 127
4, 59520, Note_on_c, 2, 63, 127
4, 60240, Note_on_c, 2, 63, 0
4, 60240, Note_on_c, 2, 75, 0
4, 60300, Note_on_c, 2, 65, 127
4, 60300, Note_on_c, 2, 77, 127
4, 60350, Note_on_c, 2, 77, 0
4, 60350, Note_on_c, 2, 65, 0
4, 60360, Note_on_c, 2, 77, 127
4, 60360, Note_on_c, 2, 65, 127
4, 60410, Note_on_c, 2, 65, 0
4, 60410, Note_on_c, 2, 77, 0
4, 60420, Note_on_c, 2, 65, 127
4, 60420, Note_on_c, 2, 77, 127
4, 60470, Note_on_c, 2, 77, 0
4, 60470, Note_on_c, 2, 65, 0
4, 60480, Note_on_c, 2, 74, 127
4, 60480, Note_on_c, 2, 62, 127
4, 61440, Note_on_c, 2, 62, 0
4, 61440, Note_on_c, 2, 74, 0
4, 62160, Note_on_c, 2, 67, 50
4, 62160, Note_on_c, 2, 63, 50
4, 62630, Note_on_c, 2, 63, 0
4, 62630, Note_on_c, 2, 67, 0
4, 62640, Note_on_c, 2, 62, 50
4, 62640, Note_on_c, 2, 67, 50
4, 62760, Note_on_c, 2, 67, 0
4, 62760, Note_on_c, 2, 62, 0
4, 63120, Note_on_c, 2, 67, 50
4, 63120, Note_on_c, 2, 62, 50
4, 63590, Note_on_c, 2, 62, 0
4, 63590, Note_on_c, 2, 67, 0
4, 63600, Note_on_c, 2, 67, 50
4, 63600, Note_on_c, 2, 63, 50
4, 63720, Note_on_c, 2, 63, 0
4, 63720, Note_on_c, 2, 67, 0
4, 64800, Note_on_c, 2, 60, 50
4, 64800, Note_on_c, 2, 66, 50
4, 65030, Note_on_c, 2, 66, 0
4, 65030, Note_on_c, 2, 60, 0
4, 65040, Note_on_c, 2, 59, 50
4, 65040, Note_on_c, 2, 67, 50
4, 65160, Note_on_c, 2, 67, 0
4, 65160, Note_on_c, 2, 59, 0
4, 67680, Note_on_c, 2, 71, 75
4, 68150, Note_on_c, 2, 71, 0
4, 68160, Note_on_c, 2, 72, 100
4, 68280, Note_on_c, 2, 72, 0
4, 69360, Note_on_c, 2, 65, 100
4, 69360, Note_on_c, 2, 68, 100
4, 69480, Note_on_c, 2, 68, 0
4, 69480, Note_on_c, 2, 65, 0
4, 69600, Note_on_c, 2, 64, 100
4, 69600, Note_on_c, 2, 67, 100
4, 69720, Note_on_c, 2, 67, 0
4, 69720, Note_on_c, 2, 64, 0
4, 69840, Note_on_c, 2, 68, 100
4, 69840, Note_on_c, 2, 65, 100
4, 69960, Note_on_c, 2, 65, 0
4, 69960, Note_on_c, 2, 68, 0
4, 70080, Note_on_c, 2, 70, 100
4, 70080, Note_on_c, 2, 67, 100
4, 70200, Note_on_c, 2, 67, 0
4, 70200, Note_on_c, 2, 70, 0
4, 70320, Note_on_c, 2, 68, 100
4, 70320, Note_on_c, 2, 65, 100
4, 70440, Note_on_c, 2, 65, 0
4, 70440, Note_on_c, 2, 68, 0
4, 70560, Note_on_c, 2, 65, 100
4, 70560, Note_on_c, 2, 62, 100
4, 70680, Note_on_c, 2, 62, 0
4, 70680, Note_on_c, 2, 65, 0
4, 70800, Note_on_c, 2, 63, 100
4, 70800, Note_on_c, 2, 67, 100
4, 71750, Note_on_c, 2, 67, 0
4, 71750, Note_on_c, 2, 63, 0
4, 71760, Note_on_c, 2, 62, 100
4, 71760, Note_on_c, 2, 65, 100
4, 72590, Note_on_c, 2, 65, 0
4, 72590, Note_on_c, 2, 62, 0
4, 72600, Note_on_c, 2, 63, 100
4, 72600, Note_on_c, 2, 60, 100
4, 72710, Note_on_c, 2, 60, 0
4, 72710, Note_on_c, 2, 63, 0
4, 72720, Note_on_c, 2, 75, 127
4, 72720, Note_on_c, 2, 66, 127
4, 73670, Note_on_c, 2, 66, 0
4, 73670, Note_on_c, 2, 75, 0
4, 73680, Note_on_c, 2, 69, 127
4, 73680, Note_on_c, 2, 75, 127
4, 73800, Note_on_c, 2, 75, 0
4, 73800, Note_on_c, 2, 69, 0
4, 74160, Note_on_c, 2, 74, 127
4, 74160, Note_on_c, 2, 71, 127
4, 74280, Note_on_c, 2, 71, 0
4, 74280, Note_on_c, 2, 74, 0
4, 79680, Note_on_c, 2, 70, 50
4, 79800, Note_on_c, 2, 70, 0
4, 79800, Note_on_c, 2, 72, 50
4, 79920, Note_on_c, 2, 72, 0
4, 79920, Note_on_c, 2, 70, 50
4, 80040, Note_on_c, 2, 70, 0
4, 80040, Note_on_c, 2, 69, 50
4, 80160, Note_on_c, 2, 69, 0
4, 80640, Note_on_c, 2, 72, 50
4, 80760, Note_on_c, 2, 72, 0
4, 80760, Note_on_c, 2, 74, 50
4, 80880, Note_on_c, 2, 74, 0
4, 80880, Note_on_c, 2, 72, 50
4, 81000, Note_on_c, 2, 72, 0
4, 81000, Note_on_c, 2, 71, 50
4, 81120, Note_on_c, 2, 71, 0
4, 82320, Note_on_c, 2, 68, 75
4, 82320, Note_on_c, 2, 80, 75
4, 82440, Note_on_c, 2, 80, 0
4, 82440, Note_on_c, 2, 68, 0
4, 82440, Note_on_c, 2, 67, 78
4, 82440, Note_on_c, 2, 79, 78
4, 82560, Note_on_c, 2, 79, 0
4, 82560, Note_on_c, 2, 67, 0
4, 82560, Note_on_c, 2, 77, 80
4, 82560, Note_on_c, 2, 65, 80
4, 82680, Note_on_c, 2, 65, 0
4, 82680, Note_on_c, 2, 77, 0
4, 82680, Note_on_c, 2, 67, 83
4, 82680, Note_on_c, 2, 79, 83
4, 82790, Note_on_c, 2, 79, 0
4, 82790, Note_on_c, 2, 67, 0
4, 82800, Note_on_c, 2, 80, 85
4, 82800, Note_on_c, 2, 68, 85
4, 82920, Note_on_c, 2, 68, 0
4, 82920, Note_on_c, 2, 80, 0
4, 82920, Note_on_c, 2, 67, 88
4, 82920, Note_on_c, 2, 79, 88
4, 83040, Note_on_c, 2, 79, 0
4, 83040, Note_on_c, 2, 67, 0
4, 83040, Note_on_c, 2, 78, 91
4, 83040, Note_on_c, 2, 66, 91
4, 83160, Note_on_c, 2, 66, 0
4, 83160, Note_on_c, 2, 78, 0
4, 83160, Note_on_c, 2, 79, 93
4, 83160, Note_on_c, 2, 67, 93
4, 83270, Note_on_c, 2, 67, 0
4, 83270, Note_on_c, 2, 79, 0
4, 83280, Note_on_c, 2, 81, 96
4, 83280, Note_on_c, 2, 69, 96
4, 83400, Note_on_c, 2, 69, 0
4, 83400, Note_on_c, 2, 81, 0
4, 83400, Note_on_c, 2, 79, 98
4, 83400, Note_on_c, 2, 67, 98
4, 83520, Note_on_c, 2, 67, 0
4, 83520, Note_on_c, 2, 79, 0
4, 83520, Note_on_c, 2, 78, 101
4, 83520, Note_on_c, 2, 66, 101
4, 83640, Note_on_c, 2, 66, 0
4, 83640, Note_on_c, 2, 78, 0
4, 83640, Note_on_c, 2, 79, 103
4, 83640, Note_on_c, 2, 67, 103
4, 83750, Note_on_c, 2, 67, 0
4, 83750, Note_on_c, 2, 79, 0
4, 83760, Note_on_c, 2, 81, 106
4, 83760, Note_on_c, 2, 69, 106
4, 83880, Note_on_c, 2, 69, 0
4, 83880, Note_on_c, 2, 81, 0
4, 83880, Note_on_c, 2, 79, 109
4, 83880, Note_on_c, 2, 67, 109
4, 84000, Note_on_c, 2, 67, 0
4, 84000, Note_on_c, 2, 79, 0
4, 84000, Note_on_c, 2, 78, 111
4, 84000, Note_on_c, 2, 66, 111
4, 84120, Note_on_c, 2, 66, 0
4, 84120, Note_on_c, 2, 78, 0
4, 84120, Note_on_c, 2, 79, 114
4, 84120, Note_on_c, 2, 67, 114
4, 84240, Note_on_c, 2, 67, 0
4, 84240, Note_on_c, 2, 79, 0
4, 84240, Note_on_c, 2, 66, 116
4, 84240, Note_on_c, 2, 78, 116
4, 84360, Note_on_c, 2, 78, 0
4, 84360, Note_on_c, 2, 66, 0
4, 84360, Note_on_c, 2, 67, 119
4, 84360, Note_on_c, 2, 79, 119
4, 84480, Note_on_c, 2, 79, 0
4, 84480, Note_on_c, 2, 67, 0
4, 84480, Note_on_c, 2, 66, 121
4, 84480, Note_on_c, 2, 78, 121
4, 84600, Note_on_c, 2, 78, 0
4, 84600, Note_on_c, 2, 66, 0
4, 84600, Note_on_c, 2, 67, 124
4, 84600, Note_on_c, 2, 79, 124
4, 84710, Note_on_c, 2, 79, 0
4, 84710, Note_on_c, 2, 67, 0
4, 84720, Note_on_c, 2, 77, 127
4, 84720, Note_on_c, 2, 79, 127
4, 85070, Note_on_c, 2, 79, 0
4, 85070, Note_on_c, 2, 77, 0
4, 85080, Note_on_c, 2, 74, 127
4, 85080, Note_on_c, 2, 79, 127
4, 85190, Note_on_c, 2, 79, 0
4, 85190, Note_on_c, 2, 74, 0
4, 85200, Note_on_c, 2, 76, 127
4, 85200, Note_on_c, 2, 79, 127
4, 85320, Note_on_c, 2, 79, 0
4, 85320, Note_on_c, 2, 76, 0
4, 85440, Note_on_c, 2, 77, 127
4, 85440, Note_on_c, 2, 71, 127
4, 85560, Note_on_c, 2, 71, 0
4, 85560, Note_on_c, 2, 77, 0
4, 85680, Note_on_c, 2, 76, 127
4, 85680, Note_on_c, 2, 72, 127
4, 85800, Note_on_c, 2, 72, 0
4, 85800, Note_on_c, 2, 76, 0
4, 85920, Note_on_c, 2, 74, 127
4, 85920, Note_on_c, 2, 72, 127
4, 86040, Note_on_c, 2, 72, 0
4, 86040, Note_on_c, 2, 74, 0
4, 86160, Note_on_c, 2, 72, 127
4, 86160, Note_on_c, 2, 76, 127
4, 86280, Note_on_c, 2, 76, 0
4, 86280, Note_on_c, 2, 72, 0
4, 86400, Note_on_c, 2, 74, 127
4, 86400, Note_on_c, 2, 71, 127
4, 86520, Note_on_c, 2, 71, 0
4, 86520, Note_on_c, 2, 74, 0
4, 86640, Note_on_c, 2, 74, 127
4, 86640, Note_on_c, 2, 77, 127
4, 87110, Note_on_c, 2, 77, 0
4, 87110, Note_on_c, 2, 74, 0
4, 87120, Note_on_c, 2, 76, 127
4, 87120, Note_on_c, 2, 72, 127
4, 87230, Note_on_c, 2, 72, 0
4, 87230, Note_on_c, 2, 76, 0
4, 87240, Note_on_c, 2, 72, 127
4, 87240, Note_on_c, 2, 76, 127
4, 87350, Note_on_c, 2, 76, 0
4, 87350, Note_on_c, 2, 72, 0
4, 87480, Note_on_c, 2, 74, 127
4, 87480, Note_on_c, 2, 71, 127
4, 87600, Note_on_c, 2, 71, 0
4, 87600, Note_on_c, 2, 74, 0
4, 87720, Note_on_c, 2, 72, 127
4, 87720, Note_on_c, 2, 76, 127
4, 87840, Note_on_c, 2, 76, 0
4, 87840, Note_on_c, 2, 72, 0
4, 87960, Note_on_c, 2, 72, 127
4, 87960, Note_on_c, 2, 74, 127
4, 88080, Note_on_c, 2, 74, 0
4, 88080, Note_on_c, 2, 72, 0
4, 88200, Note_on_c, 2, 72, 127
4, 88200, Note_on_c, 2, 76, 127
4, 88320, Note_on_c, 2, 76, 0
4, 88320, Note_on_c, 2, 72, 0
4, 88440, Note_on_c, 2, 71, 127
4, 88440, Note_on_c, 2, 74, 127
4, 88550, Note_on_c, 2, 74, 0
4, 88550, Note_on_c, 2, 71, 0
4, 88560, Note_on_c, 2, 72, 127
4, 88560, Note_on_c, 2, 64, 127
4, 88610, Note_on_c, 2, 64, 0
4, 88610, Note_on_c, 2, 72, 0
4, 88620, Note_on_c, 2, 76, 127
4, 88620, Note_on_c, 2, 64, 127
4, 88670, Note_on_c, 2, 64, 0
4, 88670, Note_on_c, 2, 76, 0
4, 88680, Note_on_c, 2, 76, 127
4, 88680, Note_on_c, 2, 64, 127
4, 88730, Note_on_c, 2, 64, 0
4, 88730, Note_on_c, 2, 76, 0
4, 88740, Note_on_c, 2, 76, 127
4, 88740, Note_on_c, 2, 64, 127
4, 88790, Note_on_c, 2, 64, 0
4, 88790, Note_on_c, 2, 76, 0
4, 88800, Note_on_c, 2, 60, 127
4, 88800, Note_on_c, 2, 72, 127
4, 88850, Note_on_c, 2, 72, 0
4, 88850, Note_on_c, 2, 60, 0
4, 88860, Note_on_c, 2, 79, 127
4, 88860, Note_on_c, 2, 67, 127
4, 88910, Note_on_c, 2, 67, 0
4, 88910, Note_on_c, 2, 79, 0
4, 88920, Note_on_c, 2, 67, 127
4, 88920, Note_on_c, 2, 79, 127
4, 88970, Note_on_c, 2, 79, 0
4, 88970, Note_on_c, 2, 67, 0
4, 88980, Note_on_c, 2, 67, 127
4, 88980, Note_on_c, 2, 79, 127
4, 89030, Note_on_c, 2, 79, 0
4, 89030, Note_on_c, 2, 67, 0
4, 89040, Note_on_c, 2, 76, 127
4, 89040, Note_on_c, 2, 64, 127
4, 89090, Note_on_c, 2, 64, 0
4, 89090, Note_on_c, 2, 76, 0
4, 89100, Note_on_c, 2, 72, 127
4, 89100, Note_on_c, 2, 60, 127
4, 89150, Note_on_c, 2, 60, 0
4, 89150, Note_on_c, 2, 72, 0
4, 89160, Note_on_c, 2, 60, 127
4, 89160, Note_on_c, 2, 72, 127
4, 89210, Note_on_c, 2, 72, 0
4, 89210, Note_on_c, 2, 60, 0
4, 89220, Note_on_c, 2, 60, 127
4, 89220, Note_on_c, 2, 72, 127
4, 89270, Note_on_c, 2, 72, 0
4, 89270, Note_on_c, 2, 60, 0
4, 89280, Note_on_c, 2, 67, 127
4, 89280, Note_on_c, 2, 55, 127
4, 89570, Note_on_c, 2, 55, 0
4, 89570, Note_on_c, 2, 67, 0
4, 89580, Note_on_c, 2, 76, 127
4, 89580, Note_on_c, 2, 64, 127
4, 89630, Note_on_c, 2, 64, 0
4, 89630, Note_on_c, 2, 76, 0
4, 89640, Note_on_c, 2, 76, 127
4, 89640, Note_on_c, 2, 64, 127
4, 89690, Note_on_c, 2, 64, 0
4, 89690, Note_on_c, 2, 76, 0
4, 89700, Note_on_c, 2, 76, 127
4, 89700, Note_on_c, 2, 64, 127
4, 89750, Note_on_c, 2, 64, 0
4, 89750, Note_on_c, 2, 76, 0
4, 89760, Note_on_c, 2, 60, 127
4, 89760, Note_on_c, 2, 72, 127
4, 89810, Note_on_c, 2, 72, 0
4, 89810, Note_on_c, 2, 60, 0
4, 89820, Note_on_c, 2, 79, 127
4, 89820, Note_on_c, 2, 67, 127
4, 89870, Note_on_c, 2, 67, 0
4, 89870, Note_on_c, 2, 79, 0
4, 89880, Note_on_c, 2, 79, 127
4, 89880, Note_on_c, 2, 67, 127
4, 89930, Note_on_c, 2, 67, 0
4, 89930, Note_on_c, 2, 79, 0
4, 89940, Note_on_c, 2, 79, 127
4, 89940, Note_on_c, 2, 67, 127
4, 89990, Note_on_c, 2, 67, 0
4, 89990, Note_on_c, 2, 79, 0
4, 90000, Note_on_c, 2, 76, 127
4, 90000, Note_on_c, 2, 64, 127
4, 90050, Note_on_c, 2, 64, 0
4, 90050, Note_on_c, 2, 76, 0
4, 90060, Note_on_c, 2, 60, 127
4, 90060, Note_on_c, 2, 72, 127
4, 90110, Note_on_c, 2, 72, 0
4, 90110, Note_on_c, 2, 60, 0
4, 90120, Note_on_c, 2, 60, 127
4, 90120, Note_on_c, 2, 72, 127
4, 90170, Note_on_c, 2, 72, 0
4, 90170, Note_on_c, 2, 60, 0
4, 90180, Note_on_c, 2, 60, 127
4, 90180, Note_on_c, 2, 72, 127
4, 90230, Note_on_c, 2, 72, 0
4, 90230, Note_on_c, 2, 60, 0
4, 90240, Note_on_c, 2, 67, 127
4, 90240, Note_on_c, 2, 55, 127
4, 90290, Note_on_c, 2, 55, 0
4, 90290, Note_on_c, 2, 67, 0
4, 90300, Note_on_c, 2, 71, 127
4, 90300, Note_on_c, 2, 67, 127
4, 90350, Note_on_c, 2, 67, 0
4, 90350, Note_on_c, 2, 71, 0
4, 90360, Note_on_c, 2, 71, 127
4, 90360, Note_on_c, 2, 67, 127
4, 90410, Note_on_c, 2, 67, 0
4, 90410, Note_on_c, 2, 71, 0
4, 90420, Note_on_c, 2, 67, 127
4, 90420, Note_on_c, 2, 71, 127
4, 90470, Note_on_c, 2, 71, 0
4, 90470, Note_on_c, 2, 67, 0
4, 90480, Note_on_c, 2, 72, 127
4, 90480, Note_on_c, 2, 67, 127
4, 90600, Note_on_c, 2, 67, 0
4, 90600, Note_on_c, 2, 72, 0
4, 90780, Note_on_c, 2, 67, 127
4, 90780, Note_on_c, 2, 71, 127
4, 90830, Note_on_c, 2, 71, 0
4, 90830, Note_on_c, 2, 67, 0
4, 90840, Note_on_c, 2, 67, 127
4, 90840, Note_on_c, 2, 71, 127
4, 90890, Note_on_c, 2, 71, 0
4, 90890, Note_on_c, 2, 67, 0
4, 90900, Note_on_c, 2, 71, 127
4, 90900, Note_on_c, 2, 67, 127
4, 90950, Note_on_c, 2, 67, 0
4, 90950, Note_on_c, 2, 71, 0
4, 90960, Note_on_c, 2, 67, 127
4, 90960, Note_on_c, 2, 72, 127
4, 91080, Note_on_c, 2, 72, 0
4, 91080, Note_on_c, 2, 67, 0
4, 91260, Note_on_c, 2, 74, 127
4, 91260, Note_on_c, 2, 71, 127
4, 91310, Note_on_c, 2, 71, 0
4, 91310, Note_on_c, 2, 74, 0
4, 91320, Note_on_c, 2, 74, 127
4, 91320, Note_on_c, 2, 71, 127
4, 91370, Note_on_c, 2, 71, 0
4, 91370, Note_on_c, 2, 74, 0
4, 91380, Note_on_c, 2, 71, 127
4, 91380, Note_on_c, 2, 74, 127
4, 91430, Note_on_c, 2, 74, 0
4, 91430, Note_on_c, 2, 71, 0
4, 91440, Note_on_c, 2, 76, 127
4, 91440, Note_on_c, 2, 72, 127
4, 91490, Note_on_c, 2, 72, 0
4, 91490, Note_on_c, 2, 76, 0
4, 91500, Note_on_c, 2, 72, 127
4, 91500, Note_on_c, 2, 60, 127
4, 91550, Note_on_c, 2, 60, 0
4, 91550, Note_on_c, 2, 72, 0
4, 91560, Note_on_c, 2, 72, 127
4, 91560, Note_on_c, 2, 60, 127
4, 91610, Note_on_c, 2, 60, 0
4, 91610, Note_on_c, 2, 72, 0
4, 91620, Note_on_c, 2, 60, 127
4, 91620, Note_on_c, 2, 72, 127
4, 91670, Note_on_c, 2, 72, 0
4, 91670, Note_on_c, 2, 60, 0
4, 91680, Note_on_c, 2, 72, 127
4, 91680, Note_on_c, 2, 60, 127
4, 91920, Note_on_c, 2, 60, 0
4, 91920, Note_on_c, 2, 72, 0
4, 91920, Note_on_c, 2, 72, 127
4, 91920, Note_on_c, 2, 60, 127
4, 91970, Note_on_c, 2, 60, 0
4, 91970, Note_on_c, 2, 72, 0
4, 91980, Note_on_c, 2, 60, 127
4, 91980, Note_on_c, 2, 72, 127
4, 92030, Note_on_c, 2, 72, 0
4, 92030, Note_on_c, 2, 60, 0
4, 92040, Note_on_c, 2, 72, 127
4, 92040, Note_on_c, 2, 60, 127
4, 92090, Note_on_c, 2, 60, 0
4, 92090, Note_on_c, 2, 72, 0
4, 92100, Note_on_c, 2, 72, 127
4, 92100, Note_on_c, 2, 60, 127
4, 92150, Note_on_c, 2, 60, 0
4, 92150, Note_on_c, 2, 72, 0
4, 92160, Note_on_c, 2, 72, 127
4, 92160, Note_on_c, 2, 60, 127
4, 92400, Note_on_c, 2, 60, 0
4, 92400, Note_on_c, 2, 72, 0
4, 92400, Note_on_c, 2, 60, 127
4, 92400, Note_on_c, 2, 72, 127
4, 92450, Note_on_c, 2, 72, 0
4, 92450, Note_on_c, 2, 60, 0
4, 92460, Note_on_c, 2, 72, 127
4, 92460, Note_on_c, 2, 60, 127
4, 92510, Note_on_c, 2, 60, 0
4, 92510, Note_on_c, 2, 72, 0
4, 92520, Note_on_c, 2, 72, 127
4, 92520, Note_on_c, 2, 60, 127
4, 92570, Note_on_c, 2, 60, 0
4, 92570, Note_on_c, 2, 72, 0
4, 92580, Note_on_c, 2, 72, 127
4, 92580, Note_on_c, 2, 60, 127
4, 92630, Note_on_c, 2, 60, 0
4, 92630, Note_on_c, 2, 72, 0
4, 92640, Note_on_c, 2, 60, 127
4, 92640, Note_on_c, 2, 72, 127
4, 92880, Note_on_c, 2, 72, 0
4, 92880, Note_on_c, 2, 60, 0
4, 92880, Note_on_c, 2, 72, 127
4, 92880, Note_on_c, 2, 60, 127
4, 92930, Note_on_c, 2, 60, 0
4, 92930, Note_on_c, 2, 72, 0
4, 92940, Note_on_c, 2, 60, 127
4, 92940, Note_on_c, 2, 72, 127
4, 92990, Note_on_c, 2, 72, 0
4, 92990, Note_on_c, 2, 60, 0
4, 93000, Note_on_c, 2, 72, 127
4, 93000, Note_on_c, 2, 60, 127
4, 93050, Note_on_c, 2, 60, 0
4, 93050, Note_on_c, 2, 72, 0
4, 93060, Note_on_c, 2, 60, 127
4, 93060, Note_on_c, 2, 72, 127
4, 93110, Note_on_c, 2, 72, 0
4, 93110, Note_on_c, 2, 60, 0
4, 93120, Note_on_c, 2, 60, 127
4, 93120, Note_on_c, 2, 72, 127
4, 93350, Note_on_c, 2, 72, 0
4, 93350, Note_on_c, 2, 60, 0
4, 93360, Note_on_c, 2, 68, 127
4, 93360, Note_on_c, 2, 73, 127
4, 94310, Note_on_c, 2, 73, 0
4, 94310, Note_on_c, 2, 68, 0
4, 94320, Note_on_c, 2, 73, 127
4, 94320, Note_on_c, 2, 68, 127
4, 94440, Note_on_c, 2, 68, 0
4, 94440, Note_on_c, 2, 73, 0
4, 94620, Note_on_c, 2, 65, 50
4, 94670, Note_on_c, 2, 65, 0
4, 94680, Note_on_c, 2, 65, 50
4, 94730, Note_on_c, 2, 65, 0
4, 94740, Note_on_c, 2, 65, 50
4, 94790, Note_on_c, 2, 65, 0
4, 94800, Note_on_c, 2, 68, 50
4, 94920, Note_on_c, 2, 68, 0
4, 95340, Note_on_c, 2, 69, 127
4, 95340, Note_on_c, 2, 72, 127
4, 95390, Note_on_c, 2, 72, 0
4, 95390, Note_on_c, 2, 69, 0
4, 95400, Note_on_c, 2, 69, 127
4, 95400, Note_on_c, 2, 72, 127
4, 95450, Note_on_c, 2, 72, 0
4, 95450, Note_on_c, 2, 69, 0
4, 95460, Note_on_c, 2, 72, 127
4, 95460, Note_on_c, 2, 69, 127
4, 95510, Note_on_c, 2, 69, 0
4, 95510, Note_on_c, 2, 72, 0
4, 95520, Note_on_c, 2, 72, 127
4, 95520, Note_on_c, 2, 69, 127
4, 96470, Note_on_c, 2, 69, 0
4, 96470, Note_on_c, 2, 72, 0
4, 96480, Note_on_c, 2, 69, 127
4, 96480, Note_on_c, 2, 72, 127
4, 96600, Note_on_c, 2, 72, 0
4, 96600, Note_on_c, 2, 69, 0
4, 96780, Note_on_c, 2, 60, 127
4, 96780, Note_on_c, 2, 72, 127
4, 96830, Note_on_c, 2, 72, 0
4, 96830, Note_on_c, 2, 60, 0
4, 96840, Note_on_c, 2, 60, 127
4, 96840, Note_on_c, 2, 72, 127
4, 96890, Note_on_c, 2, 72, 0
4, 96890, Note_on_c, 2, 60, 0
4, 96900, Note_on_c, 2, 72, 127
4, 96900, Note_on_c, 2, 60, 127
4, 96950, Note_on_c, 2, 60, 0
4, 96950, Note_on_c, 2, 72, 0
4, 96960, Note_on_c, 2, 75, 127
4, 96960, Note_on_c, 2, 63, 127
4, 97080, Note_on_c, 2, 63, 0
4, 97080, Note_on_c, 2, 75, 0
4, 97920, Note_on_c, 2, 71, 100
4, 97920, Note_on_c, 2, 80, 100
4, 98270, Note_on_c, 2, 80, 0
4, 98280, Note_on_c, 2, 79, 100
4, 98400, Note_on_c, 2, 79, 0
4, 98400, Note_on_c, 2, 71, 0
4, 98880, Note_on_c, 2, 71, 100
4, 98880, Note_on_c, 2, 80, 100
4, 99230, Note_on_c, 2, 80, 0
4, 99240, Note_on_c, 2, 79, 100
4, 99360, Note_on_c, 2, 79, 0
4, 99360, Note_on_c, 2, 71, 0
4, 99840, Note_on_c, 2, 75, 100
4, 99950, Note_on_c, 2, 75, 0
4, 99960, Note_on_c, 2, 77, 100
4, 100070, Note_on_c, 2, 77, 0
4, 100080, Note_on_c, 2, 74, 100
4, 100190, Note_on_c, 2, 74, 0
4, 100200, Note_on_c, 2, 75, 100
4, 100310, Note_on_c, 2, 75, 0
4, 100320, Note_on_c, 2, 72, 100
4, 100430, Note_on_c, 2, 72, 0
4, 100440, Note_on_c, 2, 74, 100
4, 100550, Note_on_c, 2, 74, 0
4, 100560, Note_on_c, 2, 70, 100
4, 100670, Note_on_c, 2, 70, 0
4, 100680, Note_on_c, 2, 72, 100
4, 100790, Note_on_c, 2, 72, 0
4, 100800, Note_on_c, 2, 68, 100
4, 100910, Note_on_c, 2, 68, 0
4, 100920, Note_on_c, 2, 70, 100
4, 101030, Note_on_c, 2, 70, 0
4, 101040, Note_on_c, 2, 67, 100
4, 101150, Note_on_c, 2, 67, 0
4, 101160, Note_on_c, 2, 68, 100
4, 101270, Note_on_c, 2, 68, 0
4, 101280, Note_on_c, 2, 65, 100
4, 101390, Note_on_c, 2, 65, 0
4, 101400, Note_on_c, 2, 67, 100
4, 101400, Note_on_c, 2, 63, 100
4, 101510, Note_on_c, 2, 63, 0
4, 101510, Note_on_c, 2, 67, 0
4, 101520, Note_on_c, 2, 67, 100
4, 101520, Note_on_c, 2, 62, 100
4, 101630, Note_on_c, 2, 62, 0
4, 101630, Note_on_c, 2, 67, 0
4, 101640, Note_on_c, 2, 67, 100
4, 101640, Note_on_c, 2, 63, 100
4, 101750, Note_on_c, 2, 63, 0
4, 101750, Note_on_c, 2, 67, 0
4, 101760, Note_on_c, 2, 65, 100
4, 101760, Note_on_c, 2, 67, 100
4, 101870, Note_on_c, 2, 67, 0
4, 101870, Note_on_c, 2, 65, 0
4, 101880, Note_on_c, 2, 63, 100
4, 101880, Note_on_c, 2, 67, 100
4, 101990, Note_on_c, 2, 67, 0
4, 101990, Note_on_c, 2, 63, 0
4, 102000, Note_on_c, 2, 67, 100
4, 102000, Note_on_c, 2, 65, 100
4, 102110, Note_on_c, 2, 65, 0
4, 102110, Note_on_c, 2, 67, 0
4, 102120, Note_on_c, 2, 72, 102
4, 102120, Note_on_c, 2, 67, 102
4, 102230, Note_on_c, 2, 67, 0
4, 102230, Note_on_c, 2, 72, 0
4, 102240, Note_on_c, 2, 72, 105
4, 102240, Note_on_c, 2, 68, 105
4, 102350, Note_on_c, 2, 68, 0
4, 102350, Note_on_c, 2, 72, 0
4, 102360, Note_on_c, 2, 67, 108
4, 102360, Note_on_c, 2, 72, 108
4, 102470, Note_on_c, 2, 72, 0
4, 102470, Note_on_c, 2, 67, 0
4, 102480, Note_on_c, 2, 68, 110
4, 102480, Note_on_c, 2, 72, 110
4, 102590, Note_on_c, 2, 72, 0
4, 102590, Note_on_c, 2, 68, 0
4, 102600, Note_on_c, 2, 71, 113
4, 102600, Note_on_c, 2, 59, 113
4, 102710, Note_on_c, 2, 59, 0
4, 102710, Note_on_c, 2, 71, 0
4, 102720, Note_on_c, 2, 72, 116
4, 102720, Note_on_c, 2, 60, 116
4, 102830, Note_on_c, 2, 60, 0
4, 102830, Note_on_c, 2, 72, 0
4, 102840, Note_on_c, 2, 59, 118
4, 102840, Note_on_c, 2, 71, 118
4, 102950, Note_on_c, 2, 71, 0
4, 102950, Note_on_c, 2, 59, 0
4, 102960, Note_on_c, 2, 72, 121
4, 102960, Note_on_c, 2, 60, 121
4, 103070, Note_on_c, 2, 60, 0
4, 103070, Note_on_c, 2, 72, 0
4, 103080, Note_on_c, 2, 62, 124
4, 103080, Note_on_c, 2, 74, 124
4, 103190, Note_on_c, 2, 74, 0
4, 103190, Note_on_c, 2, 62, 0
4, 103200, Note_on_c, 2, 63, 127
4, 103200, Note_on_c, 2, 72, 127
4, 103670, Note_on_c, 2, 72, 0
4, 103670, Note_on_c, 2, 63, 0
4, 103680, Note_on_c, 2, 65, 127
4, 103680, Note_on_c, 2, 72, 127
4, 104150, Note_on_c, 2, 72, 0
4, 104150, Note_on_c, 2, 65, 0
4, 104160, Note_on_c, 2, 72, 127
4, 104160, Note_on_c, 2, 67, 127
4, 104630, Note_on_c, 2, 67, 0
4, 104630, Note_on_c, 2, 72, 0
4, 104640, Note_on_c, 2, 68, 127
4, 104640, Note_on_c, 2, 72, 127
4, 104870, Note_on_c, 2, 68, 0
4, 104880, Note_on_c, 2, 65, 127
4, 105110, Note_on_c, 2, 65, 0
4, 105110, Note_on_c, 2, 72, 0
4, 105120, Note_on_c, 2, 71, 127
4, 105120, Note_on_c, 2, 65, 127
4, 105350, Note_on_c, 2, 65, 0
4, 105350, Note_on_c, 2, 71, 0
4, 105360, Note_on_c, 2, 71, 127
4, 105360, Note_on_c, 2, 67, 127
4, 105590, Note_on_c, 2, 67, 0
4, 105590, Note_on_c, 2, 71, 0
4, 105600, Note_on_c, 2, 72, 127
4, 105600, Note_on_c, 2, 67, 127
4, 105690, Note_on_c, 2, 67, 0
4, 105690, Note_on_c, 2, 72, 0
4, 105840, Note_on_c, 2, 68, 127
4, 105840, Note_on_c, 2, 72, 127
4, 105930, Note_on_c, 2, 72, 0
4, 105930, Note_on_c, 2, 68, 0
4, 106080, Note_on_c, 2, 68, 127
4, 106080, Note_on_c, 2, 72, 127
4, 106170, Note_on_c, 2, 72, 0
4, 106170, Note_on_c, 2, 68, 0
4, 106320, Note_on_c, 2, 74, 127
4, 106320, Note_on_c, 2, 72, 127
4, 106410, Note_on_c, 2, 72, 0
4, 106410, Note_on_c, 2, 74, 0
4, 106560, Note_on_c, 2, 72, 127
4, 106560, Note_on_c, 2, 74, 127
4, 106650, Note_on_c, 2, 74, 0
4, 106650, Note_on_c, 2, 72, 0
4, 106800, Note_on_c, 2, 71, 127
4, 106800, Note_on_c, 2, 74, 127
4, 106890, Note_on_c, 2, 74, 0
4, 106890, Note_on_c, 2, 71, 0
4, 107040, Note_on_c, 2, 72, 127
4, 107270, Note_on_c, 2, 72, 0
4, 107280, Note_on_c, 2, 74, 127
4, 107370, Note_on_c, 2, 74, 0
4, 107400, Note_on_c, 2, 75, 127
4, 107490, Note_on_c, 2, 75, 0
4, 107520, Note_on_c, 2, 77, 127
4, 107640, Note_on_c, 2, 77, 0
4, 107640, Note_on_c, 2, 74, 127
4, 107760, Note_on_c, 2, 74, 0
4, 108240, Note_on_c, 2, 77, 127
4, 108330, Note_on_c, 2, 77, 0
4, 108360, Note_on_c, 2, 79, 127
4, 108450, Note_on_c, 2, 79, 0
4, 108480, Note_on_c, 2, 80, 127
4, 108600, Note_on_c, 2, 80, 0
4, 108600, Note_on_c, 2, 77, 127
4, 108720, Note_on_c, 2, 77, 0
4, 109200, Note_on_c, 2, 72, 127
4, 109200, Note_on_c, 2, 69, 127
4, 109290, Note_on_c, 2, 69, 0
4, 109290, Note_on_c, 2, 72, 0
4, 109320, Note_on_c, 2, 74, 127
4, 109320, Note_on_c, 2, 71, 127
4, 109410, Note_on_c, 2, 71, 0
4, 109410, Note_on_c, 2, 74, 0
4, 109440, Note_on_c, 2, 75, 127
4, 109440, Note_on_c, 2, 72, 127
4, 109560, Note_on_c, 2, 72, 0
4, 109560, Note_on_c, 2, 75, 0
4, 109560, Note_on_c, 2, 67, 127
4, 109560, Note_on_c, 2, 72, 127
4, 109680, Note_on_c, 2, 72, 0
4, 109680, Note_on_c, 2, 67, 0
4, 110160, Note_on_c, 2, 69, 127
4, 110160, Note_on_c, 2, 72, 127
4, 110250, Note_on_c, 2, 72, 0
4, 110250, Note_on_c, 2, 69, 0
4, 110280, Note_on_c, 2, 71, 127
4, 110280, Note_on_c, 2, 74, 127
4, 110370, Note_on_c, 2, 74, 0
4, 110370, Note_on_c, 2, 71, 0
4, 110400, Note_on_c, 2, 72, 127
4, 110400, Note_on_c, 2, 75, 127
4, 110520, Note_on_c, 2, 75, 0
4, 110520, Note_on_c, 2, 72, 0
4, 110520, Note_on_c, 2, 74, 127
4, 110520, Note_on_c, 2, 71, 127
4, 110640, Note_on_c, 2, 71, 0
4, 110640, Note_on_c, 2, 74, 0
4, 110640, Note_on_c, 2, 68, 127
4, 110640, Note_on_c, 2, 72, 127
4, 110760, Note_on_c, 2, 72, 0
4, 110760, Note_on_c, 2, 68, 0
4, 110760, Note_on_c, 2, 70, 127
4, 110760, Note_on_c, 2, 67, 127
4, 110880, Note_on_c, 2, 67, 0
4, 110880, Note_on_c, 2, 70, 0
4, 110880, Note_on_c, 2, 65, 127
4, 110880, Note_on_c, 2, 68, 127
4, 111000, Note_on_c, 2, 68, 0
4, 111000, Note_on_c, 2, 65, 0
4, 111000, Note_on_c, 2, 63, 127
4, 111000, Note_on_c, 2, 67, 127
4, 111120, Note_on_c, 2, 67, 0
4, 111120, Note_on_c, 2, 63, 0
4, 111360, Note_on_c, 2, 60, 127
4, 111360, Note_on_c, 2, 72, 127
4, 111470, Note_on_c, 2, 72, 0
4, 111470, Note_on_c, 2, 60, 0
4, 111480, Note_on_c, 2, 72, 127
4, 111480, Note_on_c, 2, 60, 127
4, 111590, Note_on_c, 2, 60, 0
4, 111590, Note_on_c, 2, 72, 0
4, 111600, Note_on_c, 2, 80, 127
4, 111600, Note_on_c, 2, 77, 127
4, 111720, Note_on_c, 2, 77, 0
4, 111720, Note_on_c, 2, 80, 0
4, 111720, Note_on_c, 2, 79, 127
4, 111720, Note_on_c, 2, 75, 127
4, 111840, Note_on_c, 2, 75, 0
4, 111840, Note_on_c, 2, 79, 0
4, 111960, Note_on_c, 2, 72, 127
4, 111960, Note_on_c, 2, 75, 127
4, 112080, Note_on_c, 2, 75, 0
4, 112080, Note_on_c, 2, 72, 0
4, 112200, Note_on_c, 2, 79, 127
4, 112200, Note_on_c, 2, 71, 127
4, 112320, Note_on_c, 2, 71, 0
4, 112320, Note_on_c, 2, 79, 0
4, 113040, Note_on_c, 2, 60, 127
4, 113040, Note_on_c, 2, 72, 127
4, 113150, Note_on_c, 2, 72, 0
4, 113150, Note_on_c, 2, 60, 0
4, 113160, Note_on_c, 2, 60, 127
4, 113160, Note_on_c, 2, 72, 127
4, 113280, Note_on_c, 2, 72, 0
4, 113280, Note_on_c, 2, 60, 0
4, 113520, Note_on_c, 2, 68, 127
4, 113520, Note_on_c, 2, 65, 127
4, 113640, Note_on_c, 2, 65, 0
4, 113640, Note_on_c, 2, 68, 0
4, 113640, Note_on_c, 2, 63, 127
4, 113640, Note_on_c, 2, 67, 127
4, 113760, Note_on_c, 2, 67, 0
4, 113760, Note_on_c, 2, 63, 0
4, 113880, Note_on_c, 2, 79, 127
4, 113880, Note_on_c, 2, 75, 127
4, 114000, Note_on_c, 2, 75, 0
4, 114000, Note_on_c, 2, 79, 0
4, 114120, Note_on_c, 2, 79, 127
4, 114120, Note_on_c, 2, 74, 127
4, 114230, Note_on_c, 2, 74, 0
4, 114230, Note_on_c, 2, 79, 0
4, 114240, Note_on_c, 2, 72, 127
4, 114360, Note_on_c, 2, 72, 0
4, 114540, Note_on_c, 2, 71, 127
4, 114540, Note_on_c, 2, 74, 127
4, 114590, Note_on_c, 2, 74, 0
4, 114590, Note_on_c, 2, 71, 0
4, 114600, Note_on_c, 2, 71, 127
4, 114600, Note_on_c, 2, 74, 127
4, 114650, Note_on_c, 2, 74, 0
4, 114650, Note_on_c, 2, 71, 0
4, 114660, Note_on_c, 2, 74, 127
4, 114660, Note_on_c, 2, 71, 127
4, 114710, Note_on_c, 2, 71, 0
4, 114710, Note_on_c, 2, 74, 0
4, 114720, Note_on_c, 2, 71, 127
4, 114720, Note_on_c, 2, 74, 127
4, 115080, Note_on_c, 2, 74, 0
4, 115080, Note_on_c, 2, 71, 0
4, 115080, Note_on_c, 2, 75, 127
4, 115080, Note_on_c, 2, 72, 127
4, 115200, Note_on_c, 2, 72, 0
4, 115200, Note_on_c, 2, 75, 0
4, 115200, Note_on_c, 2, 74, 127
4, 115200, Note_on_c, 2, 77, 127
4, 115320, Note_on_c, 2, 77, 0
4, 115320, Note_on_c, 2, 74, 0
4, 115320, Note_on_c, 2, 71, 127
4, 115320, Note_on_c, 2, 74, 127
4, 115440, Note_on_c, 2, 74, 0
4, 115440, Note_on_c, 2, 71, 0
4, 115440, Note_on_c, 2, 72, 127
4, 115440, Note_on_c, 2, 75, 127
4, 115560, Note_on_c, 2, 75, 0
4, 115560, Note_on_c, 2, 72, 0
4, 115560, Note_on_c, 2, 77, 127
4, 115560, Note_on_c, 2, 74, 127
4, 115670, Note_on_c, 2, 74, 0
4, 115670, Note_on_c, 2, 77, 0
4, 115680, Note_on_c, 2, 75, 127
4, 115680, Note_on_c, 2, 72, 127
4, 115800, Note_on_c, 2, 72, 0
4, 115800, Note_on_c, 2, 75, 0
4, 115980, Note_on_c, 2, 79, 127
4, 115980, Note_on_c, 2, 67, 127
4, 116030, Note_on_c, 2, 67, 0
4, 116030, Note_on_c, 2, 79, 0
4, 116040, Note_on_c, 2, 67, 127
4, 116040, Note_on_c, 2, 79, 127
4, 116090, Note_on_c, 2, 79, 0
4, 116090, Note_on_c, 2, 67, 0
4, 116100, Note_on_c, 2, 79, 127
4, 116100, Note_on_c, 2, 67, 127
4, 116150, Note_on_c, 2, 67, 0
4, 116150, Note_on_c, 2, 79, 0
4, 116160, Note_on_c, 2, 67, 127
4, 116160, Note_on_c, 2, 79, 127
4, 116210, Note_on_c, 2, 79, 0
4, 116210, Note_on_c, 2, 67, 0
4, 116220, Note_on_c, 2, 67, 127
4, 116220, Note_on_c, 2, 79, 127
4, 116270, Note_on_c, 2, 79, 0
4, 116270, Note_on_c, 2, 67, 0
4, 116280, Note_on_c, 2, 79, 127
4, 116280, Note_on_c, 2, 67, 127
4, 116330, Note_on_c, 2, 67, 0
4, 116330, Note_on_c, 2, 79, 0
4, 116340, Note_on_c, 2, 67, 127
4, 116340, Note_on_c, 2, 79, 127
4, 116390, Note_on_c, 2, 79, 0
4, 116390, Note_on_c, 2, 67, 0
4, 116400, Note_on_c, 2, 79, 127
4, 116400, Note_on_c, 2, 67, 127
4, 116450, Note_on_c, 2, 67, 0
4, 116450, Note_on_c, 2, 79, 0
4, 116460, Note_on_c, 2, 79, 127
4, 116460, Note_on_c, 2, 67, 127
4, 116510, Note_on_c, 2, 67, 0
4, 116510, Note_on_c, 2, 79, 0
4, 116520, Note_on_c, 2, 79, 127
4, 116520, Note_on_c, 2, 67, 127
4, 116570, Note_on_c, 2, 67, 0
4, 116570, Note_on_c, 2, 79, 0
4, 116580, Note_on_c, 2, 67, 127
4, 116580, Note_on_c, 2, 79, 127
4, 116630, Note_on_c, 2, 79, 0
4, 116630, Note_on_c, 2, 67, 0
4, 116640, Note_on_c, 2, 63, 127
4, 116640, Note_on_c, 2, 75, 127
4, 117360, Note_on_c, 2, 75, 0
4, 117360, Note_on_c, 2, 63, 0
4, 117420, Note_on_c, 2, 77, 127
4, 117420, Note_on_c, 2, 65, 127
4, 117470, Note_on_c, 2, 65, 0
4, 117470, Note_on_c, 2, 77, 0
4, 117480, Note_on_c, 2, 77, 127
4, 117480, Note_on_c, 2, 65, 127
4, 117530, Note_on_c, 2, 65, 0
4, 117530, Note_on_c, 2, 77, 0
4, 117540, Note_on_c, 2, 65, 127
4, 117540, Note_on_c, 2, 77, 127
4, 117590, Note_on_c, 2, 77, 0
4, 117590, Note_on_c, 2, 65, 0
4, 117600, Note_on_c, 2, 74, 127
4, 117600, Note_on_c, 2, 62, 127
4, 118560, Note_on_c, 2, 62, 0
4, 118560, Note_on_c, 2, 74, 0
4, 118920, Note_on_c, 2, 68, 50
4, 119040, Note_on_c, 2, 68, 0
4, 119040, Note_on_c, 2, 67, 50
4, 119160, Note_on_c, 2, 67, 0
4, 119160, Note_on_c, 2, 75, 50
4, 119280, Note_on_c, 2, 75, 0
4, 119280, Note_on_c, 2, 72, 50
4, 119640, Note_on_c, 2, 72, 0
4, 119880, Note_on_c, 2, 68, 50
4, 120000, Note_on_c, 2, 68, 0
4, 120000, Note_on_c, 2, 67, 50
4, 120120, Note_on_c, 2, 67, 0
4, 120120, Note_on_c, 2, 75, 50
4, 120240, Note_on_c, 2, 75, 0
4, 120240, Note_on_c, 2, 72, 50
4, 120530, Note_on_c, 2, 72, 0
4, 120540, Note_on_c, 2, 71, 100
4, 120540, Note_on_c, 2, 74, 100
4, 120590, Note_on_c, 2, 74, 0
4, 120590, Note_on_c, 2, 71, 0
4, 120600, Note_on_c, 2, 71, 100
4, 120600, Note_on_c, 2, 74, 100
4, 120650, Note_on_c, 2, 74, 0
4, 120650, Note_on_c, 2, 71, 0
4, 120660, Note_on_c, 2, 74, 100
4, 120660, Note_on_c, 2, 71, 100
4, 120710, Note_on_c, 2, 71, 0
4, 120710, Note_on_c, 2, 74, 0
4, 120720, Note_on_c, 2, 75, 100
4, 120720, Note_on_c, 2, 72, 100
4, 120840, Note_on_c, 2, 72, 0
4, 120840, Note_on_c, 2, 75, 0
4, 121020, Note_on_c, 2, 74, 100
4, 121020, Note_on_c, 2, 71, 100
4, 121070, Note_on_c, 2, 71, 0
4, 121070, Note_on_c, 2, 74, 0
4, 121080, Note_on_c, 2, 74, 100
4, 121080, Note_on_c, 2, 71, 100
4, 121130, Note_on_c, 2, 71, 0
4, 121130, Note_on_c, 2, 74, 0
4, 121140, Note_on_c, 2, 74, 100
4, 121140, Note_on_c, 2, 71, 100
4, 121190, Note_on_c, 2, 71, 0
4, 121190, Note_on_c, 2, 74, 0
4, 121200, Note_on_c, 2, 72, 100
4, 121200, Note_on_c, 2, 75, 100
4, 121320, Note_on_c, 2, 75, 0
4, 121320, Note_on_c, 2, 72, 0
4, 121500, Note_on_c, 2, 71, 101
4, 121500, Note_on_c, 2, 74, 101
4, 121550, Note_on_c, 2, 74, 0
4, 121550, Note_on_c, 2, 71, 0
4, 121560, Note_on_c, 2, 71, 102
4, 121560, Note_on_c, 2, 74, 102
4, 121610, Note_on_c, 2, 74, 0
4, 121610, Note_on_c, 2, 71, 0
4, 121620, Note_on_c, 2, 71, 104
4, 121620, Note_on_c, 2, 74, 104
4, 121670, Note_on_c, 2, 74, 0
4, 121670, Note_on_c, 2, 71, 0
4, 121680, Note_on_c, 2, 75, 105
4, 121680, Note_on_c, 2, 72, 105
4, 121790, Note_on_c, 2, 72, 0
4, 121790, Note_on_c, 2, 75, 0
4, 121800, Note_on_c, 2, 71, 108
4, 121800, Note_on_c, 2, 74, 108
4, 121910, Note_on_c, 2, 74, 0
4, 121910, Note_on_c, 2, 71, 0
4, 121920, Note_on_c, 2, 75, 110
4, 121920, Note_on_c, 2, 72, 110
4, 122030, Note_on_c, 2, 72, 0
4, 122030, Note_on_c, 2, 75, 0
4, 122040, Note_on_c, 2, 74, 113
4, 122040, Note_on_c, 2, 71, 113
4, 122150, Note_on_c, 2, 71, 0
4, 122150, Note_on_c, 2, 74, 0
4, 122160, Note_on_c, 2, 75, 116
4, 122160, Note_on_c, 2, 72, 116
4, 122270, Note_on_c, 2, 72, 0
4, 122270, Note_on_c, 2, 75, 0
4, 122280, Note_on_c, 2, 74, 118
4, 122280, Note_on_c, 2, 71, 118
4, 122390, Note_on_c, 2, 71, 0
4, 122390, Note_on_c, 2, 74, 0
4, 122400, Note_on_c, 2, 75, 121
4, 122400, Note_on_c, 2, 72, 121
4, 122510, Note_on_c, 2, 72, 0
4, 122510, Note_on_c, 2, 75, 0
4, 122520, Note_on_c, 2, 74, 124
4, 122520, Note_on_c, 2, 71, 124
4, 122630, Note_on_c, 2, 71, 0
4, 122630, Note_on_c, 2, 74, 0
4, 122640, Note_on_c, 2, 75, 127
4, 122640, Note_on_c, 2, 72, 127
4, 122760, Note_on_c, 2, 72, 0
4, 122760, Note_on_c, 2, 75, 0
4, 122880, Note_on_c, 2, 74, 127
4, 122880, Note_on_c, 2, 71, 127
4, 123000, Note_on_c, 2, 71, 0
4, 123000, Note_on_c, 2, 74, 0
4, 123120, Note_on_c, 2, 72, 127
4, 123240, Note_on_c, 2, 72, 0
4, 123240, End_track
5, 0, Start_track
5, 0, MIDI_port, 0
5, 0, Title_t, "Fagotti"
5, 0, Program_c, 3, 70
5, 0, Control_c, 3, 7, 127
5, 0, Control_c, 3, 10, 68
5, 1440, Note_on_c, 3, 60, 50
5, 2390, Note_on_c, 3, 60, 0
5, 2400, Note_on_c, 3, 59, 50
5, 3350, Note_on_c, 3, 59, 0
5, 3360, Note_on_c, 3, 60, 50
5, 3590, Note_on_c, 3, 60, 0
5, 3600, Note_on_c, 3, 59, 50
5, 3830, Note_on_c, 3, 59, 0
5, 3840, Note_on_c, 3, 60, 50
5, 4070, Note_on_c, 3, 60, 0
5, 4080, Note_on_c, 3, 59, 50
5, 4130, Note_on_c, 3, 59, 0
5, 4140, Note_on_c, 3, 59, 65
5, 4190, Note_on_c, 3, 59, 0
5, 4200, Note_on_c, 3, 59, 85
5, 4250, Note_on_c, 3, 59, 0
5, 4260, Note_on_c, 3, 59, 106
5, 4310, Note_on_c, 3, 59, 0
5, 4320, Note_on_c, 3, 60, 127
5, 4440, Note_on_c, 3, 60, 0
5, 4560, Note_on_c, 3, 44, 127
5, 4680, Note_on_c, 3, 44, 0
5, 4800, Note_on_c, 3, 43, 127
5, 4920, Note_on_c, 3, 43, 0
5, 5100, Note_on_c, 3, 44, 127
5, 5150, Note_on_c, 3, 44, 0
5, 5160, Note_on_c, 3, 44, 127
5, 5210, Note_on_c, 3, 44, 0
5, 5220, Note_on_c, 3, 44, 127
5, 5270, Note_on_c, 3, 44, 0
5, 5280, Note_on_c, 3, 41, 127
5, 5760, Note_on_c, 3, 41, 0
5, 8400, Note_on_c, 3, 67, 80
5, 8400, Note_on_c, 3, 63, 80
5, 8760, Note_on_c, 3, 63, 0
5, 8760, Note_on_c, 3, 67, 0
5, 8880, Note_on_c, 3, 59, 100
5, 9000, Note_on_c, 3, 59, 0
5, 9120, Note_on_c, 3, 48, 100
5, 9120, Note_on_c, 3, 58, 100
5, 9240, Note_on_c, 3, 58, 0
5, 9240, Note_on_c, 3, 48, 0
5, 9360, Note_on_c, 3, 56, 100
5, 9360, Note_on_c, 3, 48, 100
5, 9480, Note_on_c, 3, 48, 0
5, 9480, Note_on_c, 3, 56, 0
5, 9600, Note_on_c, 3, 48, 100
5, 9600, Note_on_c, 3, 52, 100
5, 9720, Note_on_c, 3, 52, 0
5, 9720, Note_on_c, 3, 48, 0
5, 9840, Note_on_c, 3, 53, 100
5, 9840, Note_on_c, 3, 48, 100
5, 9960, Note_on_c, 3, 48, 0
5, 9960, Note_on_c, 3, 53, 0
5, 10080, Note_on_c, 3, 48, 100
5, 10080, Note_on_c, 3, 60, 100
5, 10200, Note_on_c, 3, 60, 0
5, 10200, Note_on_c, 3, 48, 0
5, 10320, Note_on_c, 3, 48, 100
5, 10320, Note_on_c, 3, 51, 100
5, 11270, Note_on_c, 3, 51, 0
5, 11270, Note_on_c, 3, 48, 0
5, 11280, Note_on_c, 3, 50, 100
5, 11280, Note_on_c, 3, 47, 100
5, 12110, Note_on_c, 3, 47, 0
5, 12110, Note_on_c, 3, 50, 0
5, 12120, Note_on_c, 3, 51, 100
5, 12120, Note_on_c, 3, 48, 100
5, 12230, Note_on_c, 3, 48, 0
5, 12230, Note_on_c, 3, 51, 0
5, 12240, Note_on_c, 3, 57, 127
5, 12240, Note_on_c, 3, 51, 127
5, 13190, Note_on_c, 3, 51, 0
5, 13190, Note_on_c, 3, 57, 0
5, 13200, Note_on_c, 3, 51, 127
5, 13200, Note_on_c, 3, 57, 127
5, 13320, Note_on_c, 3, 57, 0
5, 13320, Note_on_c, 3, 51, 0
5, 13680, Note_on_c, 3, 53, 127
5, 13680, Note_on_c, 3, 50, 127
5, 13800, Note_on_c, 3, 50, 0
5, 13800, Note_on_c, 3, 53, 0
5, 15840, Note_on_c, 3, 55, 50
5, 15840, Note_on_c, 3, 58, 50
5, 16080, Note_on_c, 3, 58, 0
5, 16080, Note_on_c, 3, 55, 0
5, 16080, Note_on_c, 3, 56, 50
5, 16080, Note_on_c, 3, 53, 50
5, 16310, Note_on_c, 3, 53, 0
5, 16310, Note_on_c, 3, 56, 0
5, 16320, Note_on_c, 3, 53, 50
5, 16320, Note_on_c, 3, 46, 50
5, 16560, Note_on_c, 3, 46, 0
5, 16560, Note_on_c, 3, 53, 0
5, 16560, Note_on_c, 3, 55, 50
5, 16560, Note_on_c, 3, 51, 50
5, 16790, Note_on_c, 3, 51, 0
5, 16790, Note_on_c, 3, 55, 0
5, 16800, Note_on_c, 3, 55, 50
5, 16800, Note_on_c, 3, 58, 50
5, 17040, Note_on_c, 3, 58, 0
5, 17040, Note_on_c, 3, 55, 0
5, 17040, Note_on_c, 3, 56, 50
5, 17040, Note_on_c, 3, 53, 50
5, 17270, Note_on_c, 3, 53, 0
5, 17270, Note_on_c, 3, 56, 0
5, 17280, Note_on_c, 3, 46, 50
5, 17280, Note_on_c, 3, 53, 50
5, 17520, Note_on_c, 3, 53, 0
5, 17520, Note_on_c, 3, 46, 0
5, 17520, Note_on_c, 3, 55, 50
5, 17520, Note_on_c, 3, 51, 50
5, 17750, Note_on_c, 3, 51, 0
5, 17750, Note_on_c, 3, 55, 0
5, 17760, Note_on_c, 3, 55, 50
5, 17760, Note_on_c, 3, 58, 50
5, 18000, Note_on_c, 3, 58, 0
5, 18000, Note_on_c, 3, 55, 0
5, 18000, Note_on_c, 3, 52, 50
5, 18000, Note_on_c, 3, 55, 50
5, 18230, Note_on_c, 3, 55, 0
5, 18230, Note_on_c, 3, 52, 0
5, 18240, Note_on_c, 3, 52, 50
5, 18240, Note_on_c, 3, 48, 50
5, 18480, Note_on_c, 3, 48, 0
5, 18480, Note_on_c, 3, 52, 0
5, 18480, Note_on_c, 3, 56, 50
5, 18480, Note_on_c, 3, 53, 50
5, 18710, Note_on_c, 3, 53, 0
5, 18710, Note_on_c, 3, 56, 0
5, 18720, Note_on_c, 3, 61, 50
5, 18720, Note_on_c, 3, 56, 50
5, 18960, Note_on_c, 3, 56, 0
5, 18960, Note_on_c, 3, 61, 0
5, 18960, Note_on_c, 3, 58, 50
5, 18960, Note_on_c, 3, 55, 50
5, 19190, Note_on_c, 3, 55, 0
5, 19190, Note_on_c, 3, 58, 0
5, 19200, Note_on_c, 3, 51, 50
5, 19200, Note_on_c, 3, 55, 50
5, 19440, Note_on_c, 3, 55, 0
5, 19440, Note_on_c, 3, 51, 0
5, 19440, Note_on_c, 3, 60, 50
5, 19440, Note_on_c, 3, 56, 50
5, 19670, Note_on_c, 3, 56, 0
5, 19670, Note_on_c, 3, 60, 0
5, 19680, Note_on_c, 3, 44, 50
5, 19680, Note_on_c, 3, 56, 50
5, 19910, Note_on_c, 3, 56, 0
5, 19910, Note_on_c, 3, 44, 0
5, 19920, Note_on_c, 3, 57, 50
5, 19920, Note_on_c, 3, 45, 50
5, 20390, Note_on_c, 3, 45, 0
5, 20390, Note_on_c, 3, 57, 0
5, 20400, Note_on_c, 3, 46, 65
5, 20400, Note_on_c, 3, 58, 65
5, 20870, Note_on_c, 3, 58, 0
5, 20870, Note_on_c, 3, 46, 0
5, 20880, Note_on_c, 3, 59, 80
5, 20880, Note_on_c, 3, 47, 80
5, 21350, Note_on_c, 3, 47, 0
5, 21350, Note_on_c, 3, 59, 0
5, 21360, Note_on_c, 3, 48, 96
5, 21360, Note_on_c, 3, 60, 96
5, 21950, Note_on_c, 3, 60, 0
5, 21950, Note_on_c, 3, 48, 0
5, 21960, Note_on_c, 3, 48, 115
5, 21960, Note_on_c, 3, 60, 115
5, 22070, Note_on_c, 3, 60, 0
5, 22070, Note_on_c, 3, 48, 0
5, 22080, Note_on_c, 3, 48, 119
5, 22080, Note_on_c, 3, 60, 119
5, 22190, Note_on_c, 3, 60, 0
5, 22190, Note_on_c, 3, 48, 0
5, 22200, Note_on_c, 3, 48, 123
5, 22200, Note_on_c, 3, 60, 123
5, 22310, Note_on_c, 3, 60, 0
5, 22310, Note_on_c, 3, 48, 0
5, 22320, Note_on_c, 3, 50, 127
5, 22320, Note_on_c, 3, 62, 127
5, 22670, Note_on_c, 3, 62, 0
5, 22670, Note_on_c, 3, 50, 0
5, 22680, Note_on_c, 3, 50, 127
5, 22680, Note_on_c, 3, 53, 127
5, 22790, Note_on_c, 3, 53, 0
5, 22790, Note_on_c, 3, 50, 0
5, 22800, Note_on_c, 3, 55, 127
5, 22800, Note_on_c, 3, 51, 127
5, 22920, Note_on_c, 3, 51, 0
5, 22920, Note_on_c, 3, 55, 0
5, 23040, Note_on_c, 3, 56, 127
5, 23040, Note_on_c, 3, 53, 127
5, 23160, Note_on_c, 3, 53, 0
5, 23160, Note_on_c, 3, 56, 0
5, 23280, Note_on_c, 3, 55, 127
5, 23280, Note_on_c, 3, 58, 127
5, 23400, Note_on_c, 3, 58, 0
5, 23400, Note_on_c, 3, 55, 0
5, 23520, Note_on_c, 3, 56, 127
5, 23520, Note_on_c, 3, 60, 127
5, 23640, Note_on_c, 3, 60, 0
5, 23640, Note_on_c, 3, 56, 0
5, 23760, Note_on_c, 3, 58, 127
5, 23880, Note_on_c, 3, 58, 0
5, 24000, Note_on_c, 3, 46, 127
5, 24120, Note_on_c, 3, 46, 0
5, 24240, Note_on_c, 3, 65, 127
5, 24240, Note_on_c, 3, 68, 127
5, 24590, Note_on_c, 3, 68, 0
5, 24590, Note_on_c, 3, 65, 0
5, 24600, Note_on_c, 3, 65, 127
5, 24600, Note_on_c, 3, 58, 127
5, 24710, Note_on_c, 3, 58, 0
5, 24710, Note_on_c, 3, 65, 0
5, 24720, Note_on_c, 3, 67, 127
5, 24720, Note_on_c, 3, 63, 127
5, 24830, Note_on_c, 3, 63, 0
5, 24830, Note_on_c, 3, 67, 0
5, 24840, Note_on_c, 3, 67, 127
5, 24840, Note_on_c, 3, 63, 127
5, 24960, Note_on_c, 3, 63, 0
5, 24960, Note_on_c, 3, 67, 0
5, 25080, Note_on_c, 3, 65, 127
5, 25080, Note_on_c, 3, 58, 127
5, 25200, Note_on_c, 3, 58, 0
5, 25200, Note_on_c, 3, 65, 0
5, 25320, Note_on_c, 3, 58, 127
5, 25320, Note_on_c, 3, 63, 127
5, 25440, Note_on_c, 3, 63, 0
5, 25440, Note_on_c, 3, 58, 0
5, 25560, Note_on_c, 3, 56, 127
5, 25560, Note_on_c, 3, 60, 127
5, 25680, Note_on_c, 3, 60, 0
5, 25680, Note_on_c, 3, 56, 0
5, 25800, Note_on_c, 3, 58, 127
5, 25800, Note_on_c, 3, 55, 127
5, 25920, Note_on_c, 3, 55, 0
5, 25920, Note_on_c, 3, 58, 0
5, 26040, Note_on_c, 3, 58, 127
5, 26040, Note_on_c, 3, 46, 127
5, 26150, Note_on_c, 3, 46, 0
5, 26150, Note_on_c, 3, 58, 0
5, 26160, Note_on_c, 3, 63, 127
5, 26160, Note_on_c, 3, 51, 127
5, 26210, Note_on_c, 3, 51, 0
5, 26210, Note_on_c, 3, 63, 0
5, 26220, Note_on_c, 3, 67, 127
5, 26270, Note_on_c, 3, 67, 0
5, 26280, Note_on_c, 3, 67, 127
5, 26330, Note_on_c, 3, 67, 0
5, 26340, Note_on_c, 3, 67, 127
5, 26390, Note_on_c, 3, 67, 0
5, 26400, Note_on_c, 3, 63, 127
5, 26450, Note_on_c, 3, 63, 0
5, 26460, Note_on_c, 3, 58, 127
5, 26510, Note_on_c, 3, 58, 0
5, 26520, Note_on_c, 3, 58, 127
5, 26570, Note_on_c, 3, 58, 0
5, 26580, Note_on_c, 3, 58, 127
5, 26630, Note_on_c, 3, 58, 0
5, 26640, Note_on_c, 3, 55, 127
5, 26690, Note_on_c, 3, 55, 0
5, 26700, Note_on_c, 3, 51, 127
5, 26750, Note_on_c, 3, 51, 0
5, 26760, Note_on_c, 3, 51, 127
5, 26810, Note_on_c, 3, 51, 0
5, 26820, Note_on_c, 3, 51, 127
5, 26870, Note_on_c, 3, 51, 0
5, 26880, Note_on_c, 3, 46, 127
5, 27170, Note_on_c, 3, 46, 0
5, 27180, Note_on_c, 3, 67, 127
5, 27230, Note_on_c, 3, 67, 0
5, 27240, Note_on_c, 3, 67, 127
5, 27290, Note_on_c, 3, 67, 0
5, 27300, Note_on_c, 3, 67, 127
5, 27350, Note_on_c, 3, 67, 0
5, 27360, Note_on_c, 3, 63, 127
5, 27410, Note_on_c, 3, 63, 0
5, 27420, Note_on_c, 3, 58, 127
5, 27470, Note_on_c, 3, 58, 0
5, 27480, Note_on_c, 3, 58, 127
5, 27530, Note_on_c, 3, 58, 0
5, 27540, Note_on_c, 3, 58, 127
5, 27590, Note_on_c, 3, 58, 0
5, 27600, Note_on_c, 3, 55, 127
5, 27650, Note_on_c, 3, 55, 0
5, 27660, Note_on_c, 3, 51, 127
5, 27710, Note_on_c, 3, 51, 0
5, 27720, Note_on_c, 3, 51, 127
5, 27770, Note_on_c, 3, 51, 0
5, 27780, Note_on_c, 3, 51, 127
5, 27830, Note_on_c, 3, 51, 0
5, 27840, Note_on_c, 3, 46, 127
5, 28200, Note_on_c, 3, 46, 0
5, 28380, Note_on_c, 3, 62, 127
5, 28380, Note_on_c, 3, 58, 127
5, 28430, Note_on_c, 3, 58, 0
5, 28430, Note_on_c, 3, 62, 0
5, 28440, Note_on_c, 3, 62, 127
5, 28440, Note_on_c, 3, 58, 127
5, 28490, Note_on_c, 3, 58, 0
5, 28490, Note_on_c, 3, 62, 0
5, 28500, Note_on_c, 3, 62, 127
5, 28500, Note_on_c, 3, 58, 127
5, 28550, Note_on_c, 3, 58, 0
5, 28550, Note_on_c, 3, 62, 0
5, 28560, Note_on_c, 3, 63, 127
5, 28560, Note_on_c, 3, 58, 127
5, 28680, Note_on_c, 3, 58, 0
5, 28680, Note_on_c, 3, 63, 0
5, 28860, Note_on_c, 3, 46, 127
5, 28910, Note_on_c, 3, 46, 0
5, 28920, Note_on_c, 3, 46, 127
5, 28970, Note_on_c, 3, 46, 0
5, 28980, Note_on_c, 3, 46, 127
5, 29030, Note_on_c, 3, 46, 0
5, 29040, Note_on_c, 3, 51, 127
5, 29160, Note_on_c, 3, 51, 0
5, 30000, Note_on_c, 3, 67, 127
5, 30720, Note_on_c, 3, 67, 0
5, 30960, Note_on_c, 3, 53, 50
5, 30960, Note_on_c, 3, 65, 50
5, 31910, Note_on_c, 3, 65, 0
5, 31910, Note_on_c, 3, 53, 0
5, 31920, Note_on_c, 3, 64, 50
5, 31920, Note_on_c, 3, 52, 50
5, 32870, Note_on_c, 3, 52, 0
5, 32870, Note_on_c, 3, 64, 0
5, 32880, Note_on_c, 3, 53, 50
5, 32880, Note_on_c, 3, 65, 50
5, 33120, Note_on_c, 3, 65, 0
5, 33120, Note_on_c, 3, 53, 0
5, 33120, Note_on_c, 3, 52, 50
5, 33120, Note_on_c, 3, 64, 50
5, 33360, Note_on_c, 3, 64, 0
5, 33360, Note_on_c, 3, 52, 0
5, 33360, Note_on_c, 3, 53, 50
5, 33360, Note_on_c, 3, 65, 50
5, 33600, Note_on_c, 3, 65, 0
5, 33600, Note_on_c, 3, 53, 0
5, 33600, Note_on_c, 3, 64, 50
5, 33600, Note_on_c, 3, 52, 50
5, 33840, Note_on_c, 3, 52, 0
5, 33840, Note_on_c, 3, 64, 0
5, 33840, Note_on_c, 3, 65, 50
5, 33840, Note_on_c, 3, 53, 50
5, 33960, Note_on_c, 3, 53, 0
5, 33960, Note_on_c, 3, 65, 0
5, 34800, Note_on_c, 3, 63, 50
5, 34800, Note_on_c, 3, 60, 50
5, 35040, Note_on_c, 3, 60, 0
5, 35040, Note_on_c, 3, 63, 0
5, 35040, Note_on_c, 3, 59, 50
5, 35040, Note_on_c, 3, 62, 50
5, 35280, Note_on_c, 3, 62, 0
5, 35280, Note_on_c, 3, 59, 0
5, 35280, Note_on_c, 3, 60, 50
5, 35280, Note_on_c, 3, 63, 50
5, 35520, Note_on_c, 3, 63, 0
5, 35520, Note_on_c, 3, 60, 0
5, 35520, Note_on_c, 3, 62, 50
5, 35520, Note_on_c, 3, 59, 50
5, 35760, Note_on_c, 3, 59, 0
5, 35760, Note_on_c, 3, 62, 0
5, 35760, Note_on_c, 3, 60, 50
5, 35760, Note_on_c, 3, 63, 50
5, 35880, Note_on_c, 3, 63, 0
5, 35880, Note_on_c, 3, 60, 0
5, 36060, Note_on_c, 3, 63, 70
5, 36110, Note_on_c, 3, 63, 0
5, 36120, Note_on_c, 3, 63, 75
5, 36170, Note_on_c, 3, 63, 0
5, 36180, Note_on_c, 3, 62, 79
5, 36230, Note_on_c, 3, 62, 0
5, 36240, Note_on_c, 3, 60, 83
5, 36290, Note_on_c, 3, 60, 0
5, 36300, Note_on_c, 3, 60, 87
5, 36350, Note_on_c, 3, 60, 0
5, 36360, Note_on_c, 3, 60, 91
5, 36410, Note_on_c, 3, 60, 0
5, 36420, Note_on_c, 3, 58, 95
5, 36470, Note_on_c, 3, 58, 0
5, 36480, Note_on_c, 3, 57, 50
5, 36530, Note_on_c, 3, 57, 0
5, 36540, Note_on_c, 3, 62, 50
5, 36540, Note_on_c, 3, 54, 50
5, 36590, Note_on_c, 3, 54, 0
5, 36590, Note_on_c, 3, 62, 0
5, 36600, Note_on_c, 3, 54, 50
5, 36600, Note_on_c, 3, 62, 50
5, 36650, Note_on_c, 3, 62, 0
5, 36650, Note_on_c, 3, 54, 0
5, 36660, Note_on_c, 3, 60, 50
5, 36660, Note_on_c, 3, 57, 50
5, 36710, Note_on_c, 3, 57, 0
5, 36710, Note_on_c, 3, 60, 0
5, 36720, Note_on_c, 3, 58, 50
5, 36720, Note_on_c, 3, 55, 50
5, 36950, Note_on_c, 3, 55, 0
5, 36950, Note_on_c, 3, 58, 0
5, 36960, Note_on_c, 3, 54, 50
5, 36960, Note_on_c, 3, 57, 50
5, 37010, Note_on_c, 3, 57, 0
5, 37010, Note_on_c, 3, 54, 0
5, 37020, Note_on_c, 3, 54, 50
5, 37020, Note_on_c, 3, 62, 50
5, 37070, Note_on_c, 3, 62, 0
5, 37070, Note_on_c, 3, 54, 0
5, 37080, Note_on_c, 3, 54, 50
5, 37080, Note_on_c, 3, 62, 50
5, 37130, Note_on_c, 3, 62, 0
5, 37130, Note_on_c, 3, 54, 0
5, 37140, Note_on_c, 3, 60, 50
5, 37140, Note_on_c, 3, 57, 50
5, 37190, Note_on_c, 3, 57, 0
5, 37190, Note_on_c, 3, 60, 0
5, 37200, Note_on_c, 3, 55, 50
5, 37200, Note_on_c, 3, 58, 50
5, 37430, Note_on_c, 3, 58, 0
5, 37430, Note_on_c, 3, 55, 0
5, 37440, Note_on_c, 3, 57, 50
5, 37440, Note_on_c, 3, 54, 50
5, 37670, Note_on_c, 3, 54, 0
5, 37670, Note_on_c, 3, 57, 0
5, 37680, Note_on_c, 3, 58, 50
5, 37680, Note_on_c, 3, 55, 50
5, 37800, Note_on_c, 3, 55, 0
5, 37800, Note_on_c, 3, 58, 0
5, 37920, Note_on_c, 3, 43, 50
5, 37970, Note_on_c, 3, 43, 0
5, 37980, Note_on_c, 3, 43, 50
5, 37980, Note_on_c, 3, 55, 50
5, 38030, Note_on_c, 3, 55, 0
5, 38030, Note_on_c, 3, 43, 0
5, 38040, Note_on_c, 3, 43, 50
5, 38040, Note_on_c, 3, 57, 50
5, 38090, Note_on_c, 3, 57, 0
5, 38090, Note_on_c, 3, 43, 0
5, 38100, Note_on_c, 3, 43, 50
5, 38100, Note_on_c, 3, 58, 50
5, 38150, Note_on_c, 3, 58, 0
5, 38150, Note_on_c, 3, 43, 0
5, 38160, Note_on_c, 3, 45, 50
5, 38160, Note_on_c, 3, 60, 50
5, 38280, Note_on_c, 3, 60, 0
5, 38400, Note_on_c, 3, 45, 0
5, 38400, Note_on_c, 3, 45, 50
5, 38450, Note_on_c, 3, 45, 0
5, 38460, Note_on_c, 3, 45, 50
5, 38460, Note_on_c, 3, 54, 50
5, 38510, Note_on_c, 3, 54, 0
5, 38510, Note_on_c, 3, 45, 0
5, 38520, Note_on_c, 3, 45, 50
5, 38520, Note_on_c, 3, 57, 50
5, 38570, Note_on_c, 3, 57, 0
5, 38570, Note_on_c, 3, 45, 0
5, 38580, Note_on_c, 3, 58, 50
5, 38580, Note_on_c, 3, 45, 50
5, 38630, Note_on_c, 3, 45, 0
5, 38630, Note_on_c, 3, 58, 0
5, 38640, Note_on_c, 3, 45, 50
5, 38640, Note_on_c, 3, 60, 50
5, 38760, Note_on_c, 3, 60, 0
5, 38880, Note_on_c, 3, 45, 0
5, 38880, Note_on_c, 3, 45, 50
5, 38930, Note_on_c, 3, 45, 0
5, 38940, Note_on_c, 3, 57, 50
5, 38940, Note_on_c, 3, 45, 50
5, 38990, Note_on_c, 3, 45, 0
5, 38990, Note_on_c, 3, 57, 0
5, 39000, Note_on_c, 3, 45, 50
5, 39000, Note_on_c, 3, 58, 50
5, 39050, Note_on_c, 3, 58, 0
5, 39050, Note_on_c, 3, 45, 0
5, 39060, Note_on_c, 3, 60, 50
5, 39060, Note_on_c, 3, 45, 50
5, 39110, Note_on_c, 3, 45, 0
5, 39110, Note_on_c, 3, 60, 0
5, 39120, Note_on_c, 3, 62, 50
5, 39120, Note_on_c, 3, 46, 50
5, 39240, Note_on_c, 3, 62, 0
5, 39360, Note_on_c, 3, 46, 0
5, 39360, Note_on_c, 3, 46, 50
5, 39410, Note_on_c, 3, 46, 0
5, 39420, Note_on_c, 3, 55, 50
5, 39420, Note_on_c, 3, 46, 50
5, 39470, Note_on_c, 3, 46, 0
5, 39470, Note_on_c, 3, 55, 0
5, 39480, Note_on_c, 3, 58, 50
5, 39480, Note_on_c, 3, 46, 50
5, 39530, Note_on_c, 3, 46, 0
5, 39530, Note_on_c, 3, 58, 0
5, 39540, Note_on_c, 3, 46, 50
5, 39540, Note_on_c, 3, 60, 50
5, 39590, Note_on_c, 3, 60, 0
5, 39590, Note_on_c, 3, 46, 0
5, 39600, Note_on_c, 3, 46, 50
5, 39600, Note_on_c, 3, 62, 50
5, 39720, Note_on_c, 3, 62, 0
5, 39840, Note_on_c, 3, 46, 0
5, 39900, Note_on_c, 3, 58, 81
5, 39900, Note_on_c, 3, 55, 81
5, 39950, Note_on_c, 3, 55, 0
5, 39950, Note_on_c, 3, 58, 0
5, 39960, Note_on_c, 3, 60, 87
5, 39960, Note_on_c, 3, 57, 87
5, 40010, Note_on_c, 3, 57, 0
5, 40010, Note_on_c, 3, 60, 0
5, 40020, Note_on_c, 3, 62, 93
5, 40020, Note_on_c, 3, 58, 93
5, 40070, Note_on_c, 3, 58, 0
5, 40070, Note_on_c, 3, 62, 0
5, 40080, Note_on_c, 3, 54, 100
5, 40080, Note_on_c, 3, 57, 100
5, 40550, Note_on_c, 3, 57, 0
5, 40550, Note_on_c, 3, 54, 0
5, 40560, Note_on_c, 3, 57, 100
5, 40560, Note_on_c, 3, 54, 100
5, 40680, Note_on_c, 3, 54, 0
5, 40680, Note_on_c, 3, 57, 0
5, 40860, Note_on_c, 3, 61, 100
5, 40860, Note_on_c, 3, 49, 100
5, 40910, Note_on_c, 3, 49, 0
5, 40910, Note_on_c, 3, 61, 0
5, 40920, Note_on_c, 3, 49, 100
5, 40920, Note_on_c, 3, 61, 100
5, 40970, Note_on_c, 3, 61, 0
5, 40970, Note_on_c, 3, 49, 0
5, 40980, Note_on_c, 3, 61, 100
5, 40980, Note_on_c, 3, 49, 100
5, 41030, Note_on_c, 3, 49, 0
5, 41030, Note_on_c, 3, 61, 0
5, 41040, Note_on_c, 3, 61, 100
5, 41040, Note_on_c, 3, 49, 100
5, 41510, Note_on_c, 3, 49, 0
5, 41510, Note_on_c, 3, 61, 0
5, 41520, Note_on_c, 3, 61, 100
5, 41520, Note_on_c, 3, 49, 100
5, 41640, Note_on_c, 3, 49, 0
5, 41640, Note_on_c, 3, 61, 0
5, 41820, Note_on_c, 3, 62, 104
5, 41820, Note_on_c, 3, 50, 104
5, 41870, Note_on_c, 3, 50, 0
5, 41870, Note_on_c, 3, 62, 0
5, 41880, Note_on_c, 3, 62, 106
5, 41880, Note_on_c, 3, 50, 106
5, 41930, Note_on_c, 3, 50, 0
5, 41930, Note_on_c, 3, 62, 0
5, 41940, Note_on_c, 3, 62, 107
5, 41940, Note_on_c, 3, 50, 107
5, 41990, Note_on_c, 3, 50, 0
5, 41990, Note_on_c, 3, 62, 0
5, 42000, Note_on_c, 3, 62, 109
5, 42000, Note_on_c, 3, 50, 109
5, 42120, Note_on_c, 3, 50, 0
5, 42120, Note_on_c, 3, 62, 0
5, 42360, Note_on_c, 3, 64, 118
5, 42360, Note_on_c, 3, 52, 118
5, 42410, Note_on_c, 3, 52, 0
5, 42410, Note_on_c, 3, 64, 0
5, 42420, Note_on_c, 3, 64, 119
5, 42420, Note_on_c, 3, 52, 119
5, 42470, Note_on_c, 3, 52, 0
5, 42470, Note_on_c, 3, 64, 0
5, 42480, Note_on_c, 3, 64, 121
5, 42480, Note_on_c, 3, 52, 121
5, 42590, Note_on_c, 3, 52, 0
5, 42590, Note_on_c, 3, 64, 0
5, 42600, Note_on_c, 3, 54, 124
5, 42600, Note_on_c, 3, 66, 124
5, 42650, Note_on_c, 3, 66, 0
5, 42650, Note_on_c, 3, 54, 0
5, 42660, Note_on_c, 3, 54, 125
5, 42660, Note_on_c, 3, 66, 125
5, 42710, Note_on_c, 3, 66, 0
5, 42710, Note_on_c, 3, 54, 0
5, 42720, Note_on_c, 3, 54, 127
5, 42720, Note_on_c, 3, 66, 127
5, 42840, Note_on_c, 3, 66, 0
5, 42840, Note_on_c, 3, 54, 0
5, 43800, Note_on_c, 3, 66, 127
5, 43850, Note_on_c, 3, 66, 0
5, 43860, Note_on_c, 3, 66, 127
5, 43910, Note_on_c, 3, 66, 0
5, 43920, Note_on_c, 3, 66, 127
5, 44040, Note_on_c, 3, 66, 0
5, 44520, Note_on_c, 3, 50, 127
5, 44520, Note_on_c, 3, 62, 127
5, 44570, Note_on_c, 3, 62, 0
5, 44570, Note_on_c, 3, 50, 0
5, 44580, Note_on_c, 3, 62, 127
5, 44580, Note_on_c, 3, 50, 127
5, 44630, Note_on_c, 3, 50, 0
5, 44630, Note_on_c, 3, 62, 0
5, 44640, Note_on_c, 3, 43, 127
5, 44640, Note_on_c, 3, 55, 127
5, 44760, Note_on_c, 3, 55, 0
5, 44760, Note_on_c, 3, 43, 0
5, 45480, Note_on_c, 3, 59, 127
5, 45530, Note_on_c, 3, 59, 0
5, 45540, Note_on_c, 3, 59, 127
5, 45590, Note_on_c, 3, 59, 0
5, 45600, Note_on_c, 3, 59, 127
5, 45720, Note_on_c, 3, 59, 0
5, 46620, Note_on_c, 3, 60, 127
5, 46670, Note_on_c, 3, 60, 0
5, 46680, Note_on_c, 3, 60, 127
5, 46730, Note_on_c, 3, 60, 0
5, 46740, Note_on_c, 3, 60, 127
5, 46790, Note_on_c, 3, 60, 0
5, 46800, Note_on_c, 3, 60, 127
5, 46800, Note_on_c, 3, 56, 127
5, 47030, Note_on_c, 3, 56, 0
5, 47030, Note_on_c, 3, 60, 0
5, 47040, Note_on_c, 3, 61, 127
5, 47040, Note_on_c, 3, 58, 127
5, 47280, Note_on_c, 3, 58, 0
5, 47280, Note_on_c, 3, 61, 0
5, 47760, Note_on_c, 3, 60, 127
5, 47760, Note_on_c, 3, 56, 127
5, 47990, Note_on_c, 3, 56, 0
5, 47990, Note_on_c, 3, 60, 0
5, 48000, Note_on_c, 3, 61, 127
5, 48000, Note_on_c, 3, 58, 127
5, 48240, Note_on_c, 3, 58, 0
5, 48240, Note_on_c, 3, 61, 0
5, 48720, Note_on_c, 3, 60, 127
5, 48720, Note_on_c, 3, 56, 127
5, 48950, Note_on_c, 3, 56, 0
5, 48950, Note_on_c, 3, 60, 0
5, 48960, Note_on_c, 3, 61, 127
5, 48960, Note_on_c, 3, 58, 127
5, 49200, Note_on_c, 3, 58, 0
5, 49200, Note_on_c, 3, 61, 0
5, 49680, Note_on_c, 3, 60, 127
5, 49680, Note_on_c, 3, 63, 127
5, 49910, Note_on_c, 3, 63, 0
5, 49910, Note_on_c, 3, 60, 0
5, 49920, Note_on_c, 3, 65, 127
5, 49920, Note_on_c, 3, 61, 127
5, 50160, Note_on_c, 3, 61, 0
5, 50160, Note_on_c, 3, 65, 0
5, 50400, Note_on_c, 3, 66, 112
5, 50400, Note_on_c, 3, 63, 112
5, 50640, Note_on_c, 3, 63, 0
5, 50640, Note_on_c, 3, 66, 0
5, 50880, Note_on_c, 3, 68, 81
5, 50880, Note_on_c, 3, 65, 81
5, 51120, Note_on_c, 3, 65, 0
5, 51120, Note_on_c, 3, 68, 0
5, 51360, Note_on_c, 3, 69, 50
5, 51360, Note_on_c, 3, 66, 50
5, 51600, Note_on_c, 3, 66, 0
5, 51600, Note_on_c, 3, 69, 0
5, 51840, Note_on_c, 3, 69, 50
5, 51840, Note_on_c, 3, 66, 50
5, 52080, Note_on_c, 3, 66, 0
5, 52080, Note_on_c, 3, 69, 0
5, 52320, Note_on_c, 3, 69, 50
5, 52320, Note_on_c, 3, 66, 50
5, 52560, Note_on_c, 3, 66, 0
5, 52560, Note_on_c, 3, 69, 0
5, 52800, Note_on_c, 3, 69, 50
5, 52800, Note_on_c, 3, 66, 50
5, 53040, Note_on_c, 3, 66, 0
5, 53040, Note_on_c, 3, 69, 0
5, 53280, Note_on_c, 3, 66, 50
5, 53280, Note_on_c, 3, 69, 50
5, 53520, Note_on_c, 3, 69, 0
5, 53520, Note_on_c, 3, 66, 0
5, 53760, Note_on_c, 3, 66, 50
5, 53760, Note_on_c, 3, 69, 50
5, 54000, Note_on_c, 3, 69, 0
5, 54000, Note_on_c, 3, 66, 0
5, 54240, Note_on_c, 3, 69, 50
5, 54240, Note_on_c, 3, 66, 50
5, 54480, Note_on_c, 3, 66, 0
5, 54480, Note_on_c, 3, 69, 0
5, 54540, Note_on_c, 3, 62, 127
5, 54540, Note_on_c, 3, 50, 127
5, 54590, Note_on_c, 3, 50, 0
5, 54590, Note_on_c, 3, 62, 0
5, 54600, Note_on_c, 3, 62, 127
5, 54600, Note_on_c, 3, 50, 127
5, 54650, Note_on_c, 3, 50, 0
5, 54650, Note_on_c, 3, 62, 0
5, 54660, Note_on_c, 3, 62, 127
5, 54660, Note_on_c, 3, 50, 127
5, 54710, Note_on_c, 3, 50, 0
5, 54710, Note_on_c, 3, 62, 0
5, 54720, Note_on_c, 3, 59, 127
5, 54720, Note_on_c, 3, 47, 127
5, 54950, Note_on_c, 3, 47, 0
5, 54950, Note_on_c, 3, 59, 0
5, 54960, Note_on_c, 3, 60, 127
5, 54960, Note_on_c, 3, 48, 127
5, 55190, Note_on_c, 3, 48, 0
5, 55190, Note_on_c, 3, 60, 0
5, 55200, Note_on_c, 3, 45, 127
5, 55200, Note_on_c, 3, 57, 127
5, 55670, Note_on_c, 3, 57, 0
5, 55670, Note_on_c, 3, 45, 0
5, 55680, Note_on_c, 3, 65, 50
5, 55680, Note_on_c, 3, 59, 50
5, 55920, Note_on_c, 3, 59, 0
5, 55920, Note_on_c, 3, 65, 0
5, 56160, Note_on_c, 3, 65, 50
5, 56160, Note_on_c, 3, 59, 50
5, 56400, Note_on_c, 3, 59, 0
5, 56400, Note_on_c, 3, 65, 0
5, 56640, Note_on_c, 3, 65, 50
5, 56640, Note_on_c, 3, 59, 50
5, 56880, Note_on_c, 3, 59, 0
5, 56880, Note_on_c, 3, 65, 0
5, 57120, Note_on_c, 3, 59, 50
5, 57120, Note_on_c, 3, 65, 50
5, 57360, Note_on_c, 3, 65, 0
5, 57360, Note_on_c, 3, 59, 0
5, 57420, Note_on_c, 3, 56, 127
5, 57420, Note_on_c, 3, 44, 127
5, 57470, Note_on_c, 3, 44, 0
5, 57470, Note_on_c, 3, 56, 0
5, 57480, Note_on_c, 3, 44, 127
5, 57480, Note_on_c, 3, 56, 127
5, 57530, Note_on_c, 3, 56, 0
5, 57530, Note_on_c, 3, 44, 0
5, 57540, Note_on_c, 3, 56, 127
5, 57540, Note_on_c, 3, 44, 127
5, 57590, Note_on_c, 3, 44, 0
5, 57590, Note_on_c, 3, 56, 0
5, 57600, Note_on_c, 3, 53, 127
5, 57600, Note_on_c, 3, 41, 127
5, 57890, Note_on_c, 3, 41, 0
5, 57890, Note_on_c, 3, 53, 0
5, 57900, Note_on_c, 3, 56, 127
5, 57900, Note_on_c, 3, 44, 127
5, 57950, Note_on_c, 3, 44, 0
5, 57950, Note_on_c, 3, 56, 0
5, 57960, Note_on_c, 3, 56, 127
5, 57960, Note_on_c, 3, 44, 127
5, 58010, Note_on_c, 3, 44, 0
5, 58010, Note_on_c, 3, 56, 0
5, 58020, Note_on_c, 3, 56, 127
5, 58020, Note_on_c, 3, 44, 127
5, 58070, Note_on_c, 3, 44, 0
5, 58070, Note_on_c, 3, 56, 0
5, 58080, Note_on_c, 3, 53, 127
5, 58080, Note_on_c, 3, 41, 127
5, 58370, Note_on_c, 3, 41, 0
5, 58370, Note_on_c, 3, 53, 0
5, 58380, Note_on_c, 3, 56, 127
5, 58380, Note_on_c, 3, 44, 127
5, 58430, Note_on_c, 3, 44, 0
5, 58430, Note_on_c, 3, 56, 0
5, 58440, Note_on_c, 3, 56, 127
5, 58440, Note_on_c, 3, 44, 127
5, 58490, Note_on_c, 3, 44, 0
5, 58490, Note_on_c, 3, 56, 0
5, 58500, Note_on_c, 3, 56, 127
5, 58500, Note_on_c, 3, 44, 127
5, 58550, Note_on_c, 3, 44, 0
5, 58550, Note_on_c, 3, 56, 0
5, 58560, Note_on_c, 3, 53, 127
5, 58560, Note_on_c, 3, 41, 127
5, 58610, Note_on_c, 3, 41, 0
5, 58610, Note_on_c, 3, 53, 0
5, 58620, Note_on_c, 3, 56, 127
5, 58620, Note_on_c, 3, 44, 127
5, 58670, Note_on_c, 3, 44, 0
5, 58670, Note_on_c, 3, 56, 0
5, 58680, Note_on_c, 3, 44, 127
5, 58680, Note_on_c, 3, 56, 127
5, 58730, Note_on_c, 3, 56, 0
5, 58730, Note_on_c, 3, 44, 0
5, 58740, Note_on_c, 3, 56, 127
5, 58740, Note_on_c, 3, 44, 127
5, 58790, Note_on_c, 3, 44, 0
5, 58790, Note_on_c, 3, 56, 0
5, 58800, Note_on_c, 3, 53, 127
5, 58800, Note_on_c, 3, 41, 127
5, 58850, Note_on_c, 3, 41, 0
5, 58850, Note_on_c, 3, 53, 0
5, 58860, Note_on_c, 3, 44, 127
5, 58860, Note_on_c, 3, 56, 127
5, 58910, Note_on_c, 3, 56, 0
5, 58910, Note_on_c, 3, 44, 0
5, 58920, Note_on_c, 3, 56, 127
5, 58920, Note_on_c, 3, 44, 127
5, 58970, Note_on_c, 3, 44, 0
5, 58970, Note_on_c, 3, 56, 0
5, 58980, Note_on_c, 3, 44, 127
5, 58980, Note_on_c, 3, 56, 127
5, 59030, Note_on_c, 3, 56, 0
5, 59030, Note_on_c, 3, 44, 0
5, 59040, Note_on_c, 3, 53, 127
5, 59040, Note_on_c, 3, 41, 127
5, 59090, Note_on_c, 3, 41, 0
5, 59090, Note_on_c, 3, 53, 0
5, 59100, Note_on_c, 3, 56, 127
5, 59100, Note_on_c, 3, 44, 127
5, 59150, Note_on_c, 3, 44, 0
5, 59150, Note_on_c, 3, 56, 0
5, 59160, Note_on_c, 3, 44, 127
5, 59160, Note_on_c, 3, 56, 127
5, 59210, Note_on_c, 3, 56, 0
5, 59210, Note_on_c, 3, 44, 0
5, 59220, Note_on_c, 3, 44, 127
5, 59220, Note_on_c, 3, 56, 127
5, 59270, Note_on_c, 3, 56, 0
5, 59270, Note_on_c, 3, 44, 0
5, 59280, Note_on_c, 3, 53, 127
5, 59280, Note_on_c, 3, 41, 127
5, 59330, Note_on_c, 3, 41, 0
5, 59330, Note_on_c, 3, 53, 0
5, 59340, Note_on_c, 3, 55, 127
5, 59340, Note_on_c, 3, 43, 127
5, 59390, Note_on_c, 3, 43, 0
5, 59390, Note_on_c, 3, 55, 0
5, 59400, Note_on_c, 3, 43, 127
5, 59400, Note_on_c, 3, 55, 127
5, 59450, Note_on_c, 3, 55, 0
5, 59450, Note_on_c, 3, 43, 0
5, 59460, Note_on_c, 3, 55, 127
5, 59460, Note_on_c, 3, 43, 127
5, 59510, Note_on_c, 3, 43, 0
5, 59510, Note_on_c, 3, 55, 0
5, 59520, Note_on_c, 3, 51, 127
5, 59520, Note_on_c, 3, 39, 127
5, 60240, Note_on_c, 3, 39, 0
5, 60240, Note_on_c, 3, 51, 0
5, 60300, Note_on_c, 3, 41, 127
5, 60300, Note_on_c, 3, 53, 127
5, 60350, Note_on_c, 3, 53, 0
5, 60350, Note_on_c, 3, 41, 0
5, 60360, Note_on_c, 3, 53, 127
5, 60360, Note_on_c, 3, 41, 127
5, 60410, Note_on_c, 3, 41, 0
5, 60410, Note_on_c, 3, 53, 0
5, 60420, Note_on_c, 3, 41, 127
5, 60420, Note_on_c, 3, 53, 127
5, 60470, Note_on_c, 3, 53, 0
5, 60470, Note_on_c, 3, 41, 0
5, 60480, Note_on_c, 3, 50, 127
5, 60480, Note_on_c, 3, 38, 127
5, 61440, Note_on_c, 3, 38, 0
5, 61440, Note_on_c, 3, 50, 0
5, 61680, Note_on_c, 3, 60, 50
5, 61680, Note_on_c, 3, 48, 50
5, 62270, Note_on_c, 3, 48, 0
5, 62270, Note_on_c, 3, 60, 0
5, 62280, Note_on_c, 3, 48, 50
5, 62280, Note_on_c, 3, 60, 50
5, 62400, Note_on_c, 3, 60, 0
5, 62400, Note_on_c, 3, 48, 0
5, 62400, Note_on_c, 3, 63, 50
5, 62400, Note_on_c, 3, 51, 50
5, 62520, Note_on_c, 3, 51, 0
5, 62520, Note_on_c, 3, 63, 0
5, 62520, Note_on_c, 3, 48, 50
5, 62520, Note_on_c, 3, 60, 50
5, 62630, Note_on_c, 3, 60, 0
5, 62630, Note_on_c, 3, 48, 0
5, 62640, Note_on_c, 3, 59, 50
5, 62640, Note_on_c, 3, 47, 50
5, 63230, Note_on_c, 3, 47, 0
5, 63230, Note_on_c, 3, 59, 0
5, 63240, Note_on_c, 3, 43, 50
5, 63240, Note_on_c, 3, 55, 50
5, 63360, Note_on_c, 3, 55, 0
5, 63360, Note_on_c, 3, 43, 0
5, 63360, Note_on_c, 3, 59, 50
5, 63360, Note_on_c, 3, 47, 50
5, 63480, Note_on_c, 3, 47, 0
5, 63480, Note_on_c, 3, 59, 0
5, 63480, Note_on_c, 3, 43, 50
5, 63480, Note_on_c, 3, 55, 50
5, 63590, Note_on_c, 3, 55, 0
5, 63590, Note_on_c, 3, 43, 0
5, 63600, Note_on_c, 3, 48, 50
5, 63600, Note_on_c, 3, 60, 50
5, 63830, Note_on_c, 3, 60, 0
5, 63830, Note_on_c, 3, 48, 0
5, 63840, Note_on_c, 3, 59, 50
5, 63840, Note_on_c, 3, 47, 50
5, 64070, Note_on_c, 3, 47, 0
5, 64070, Note_on_c, 3, 59, 0
5, 64080, Note_on_c, 3, 60, 50
5, 64080, Note_on_c, 3, 48, 50
5, 64310, Note_on_c, 3, 48, 0
5, 64310, Note_on_c, 3, 60, 0
5, 64320, Note_on_c, 3, 55, 50
5, 64320, Note_on_c, 3, 43, 50
5, 64550, Note_on_c, 3, 43, 0
5, 64550, Note_on_c, 3, 55, 0
5, 64560, Note_on_c, 3, 48, 50
5, 64560, Note_on_c, 3, 60, 50
5, 64790, Note_on_c, 3, 60, 0
5, 64790, Note_on_c, 3, 48, 0
5, 64800, Note_on_c, 3, 56, 50
5, 64800, Note_on_c, 3, 44, 50
5, 65030, Note_on_c, 3, 44, 0
5, 65030, Note_on_c, 3, 56, 0
5, 65040, Note_on_c, 3, 43, 50
5, 65040, Note_on_c, 3, 55, 50
5, 65160, Note_on_c, 3, 55, 0
5, 65160, Note_on_c, 3, 43, 0
5, 67440, Note_on_c, 3, 62, 62
5, 68150, Note_on_c, 3, 62, 0
5, 68160, Note_on_c, 3, 60, 100
5, 68280, Note_on_c, 3, 60, 0
5, 68460, Note_on_c, 3, 65, 100
5, 68460, Note_on_c, 3, 68, 100
5, 68510, Note_on_c, 3, 68, 0
5, 68510, Note_on_c, 3, 65, 0
5, 68520, Note_on_c, 3, 65, 100
5, 68520, Note_on_c, 3, 68, 100
5, 68570, Note_on_c, 3, 68, 0
5, 68570, Note_on_c, 3, 65, 0
5, 68580, Note_on_c, 3, 65, 100
5, 68580, Note_on_c, 3, 68, 100
5, 68630, Note_on_c, 3, 68, 0
5, 68630, Note_on_c, 3, 65, 0
5, 68640, Note_on_c, 3, 65, 100
5, 68640, Note_on_c, 3, 68, 100
5, 68760, Note_on_c, 3, 68, 0
5, 68760, Note_on_c, 3, 65, 0
5, 68940, Note_on_c, 3, 67, 100
5, 68940, Note_on_c, 3, 63, 100
5, 68990, Note_on_c, 3, 63, 0
5, 68990, Note_on_c, 3, 67, 0
5, 69000, Note_on_c, 3, 67, 100
5, 69000, Note_on_c, 3, 63, 100
5, 69050, Note_on_c, 3, 63, 0
5, 69050, Note_on_c, 3, 67, 0
5, 69060, Note_on_c, 3, 67, 100
5, 69060, Note_on_c, 3, 63, 100
5, 69110, Note_on_c, 3, 63, 0
5, 69110, Note_on_c, 3, 67, 0
5, 69120, Note_on_c, 3, 67, 100
5, 69120, Note_on_c, 3, 63, 100
5, 69240, Note_on_c, 3, 63, 0
5, 69240, Note_on_c, 3, 67, 0
5, 69360, Note_on_c, 3, 59, 100
5, 69480, Note_on_c, 3, 59, 0
5, 69600, Note_on_c, 3, 48, 100
5, 69600, Note_on_c, 3, 58, 100
5, 69720, Note_on_c, 3, 58, 0
5, 69720, Note_on_c, 3, 48, 0
5, 69840, Note_on_c, 3, 48, 100
5, 69840, Note_on_c, 3, 56, 100
5, 69960, Note_on_c, 3, 56, 0
5, 69960, Note_on_c, 3, 48, 0
5, 70080, Note_on_c, 3, 52, 100
5, 70080, Note_on_c, 3, 48, 100
5, 70200, Note_on_c, 3, 48, 0
5, 70200, Note_on_c, 3, 52, 0
5, 70320, Note_on_c, 3, 53, 100
5, 70320, Note_on_c, 3, 48, 100
5, 70440, Note_on_c, 3, 48, 0
5, 70440, Note_on_c, 3, 53, 0
5, 70560, Note_on_c, 3, 60, 100
5, 70560, Note_on_c, 3, 48, 100
5, 70680, Note_on_c, 3, 48, 0
5, 70680, Note_on_c, 3, 60, 0
5, 70800, Note_on_c, 3, 51, 100
5, 70800, Note_on_c, 3, 48, 100
5, 71750, Note_on_c, 3, 48, 0
5, 71750, Note_on_c, 3, 51, 0
5, 71760, Note_on_c, 3, 47, 100
5, 71760, Note_on_c, 3, 50, 100
5, 72590, Note_on_c, 3, 50, 0
5, 72590, Note_on_c, 3, 47, 0
5, 72600, Note_on_c, 3, 48, 100
5, 72600, Note_on_c, 3, 51, 100
5, 72710, Note_on_c, 3, 51, 0
5, 72710, Note_on_c, 3, 48, 0
5, 72720, Note_on_c, 3, 63, 127
5, 72720, Note_on_c, 3, 60, 127
5, 73670, Note_on_c, 3, 60, 0
5, 73670, Note_on_c, 3, 63, 0
5, 73680, Note_on_c, 3, 60, 127
5, 73680, Note_on_c, 3, 63, 127
5, 73800, Note_on_c, 3, 63, 0
5, 73800, Note_on_c, 3, 60, 0
5, 74160, Note_on_c, 3, 62, 127
5, 74160, Note_on_c, 3, 59, 127
5, 74280, Note_on_c, 3, 59, 0
5, 74280, Note_on_c, 3, 62, 0
5, 74460, Note_on_c, 3, 67, 127
5, 74520, Note_on_c, 3, 67, 0
5, 74520, Note_on_c, 3, 67, 127
5, 74580, Note_on_c, 3, 67, 0
5, 74580, Note_on_c, 3, 67, 127
5, 74640, Note_on_c, 3, 67, 0
5, 74640, Note_on_c, 3, 60, 127
5, 74860, Note_on_c, 3, 60, 0
5, 74880, Note_on_c, 3, 62, 127
5, 75100, Note_on_c, 3, 62, 0
5, 75120, Note_on_c, 3, 55, 127
5, 75360, Note_on_c, 3, 55, 0
5, 75360, Note_on_c, 3, 55, 50
5, 75840, Note_on_c, 3, 55, 0
5, 76319, Control_c, 3, 11, 64
5, 76320, Note_on_c, 3, 67, 50
5, 76320, Note_on_c, 3, 64, 50
5, 76560, Note_on_c, 3, 64, 0
5, 76560, Note_on_c, 3, 67, 0
5, 76560, Note_on_c, 3, 65, 50
5, 76560, Note_on_c, 3, 62, 50
5, 76790, Note_on_c, 3, 62, 0
5, 76790, Note_on_c, 3, 65, 0
5, 76800, Note_on_c, 3, 55, 50
5, 76800, Note_on_c, 3, 62, 50
5, 77040, Note_on_c, 3, 62, 0
5, 77040, Note_on_c, 3, 55, 0
5, 77040, Note_on_c, 3, 64, 50
5, 77040, Note_on_c, 3, 60, 50
5, 77270, Note_on_c, 3, 60, 0
5, 77270, Note_on_c, 3, 64, 0
5, 77280, Note_on_c, 3, 55, 50
5, 77280, Note_on_c, 3, 52, 50
5, 77520, Note_on_c, 3, 52, 0
5, 77520, Note_on_c, 3, 55, 0
5, 77520, Note_on_c, 3, 50, 50
5, 77520, Note_on_c, 3, 53, 50
5, 77750, Note_on_c, 3, 53, 0
5, 77750, Note_on_c, 3, 50, 0
5, 77760, Note_on_c, 3, 43, 50
5, 77760, Note_on_c, 3, 50, 50
5, 78000, Note_on_c, 3, 50, 0
5, 78000, Note_on_c, 3, 43, 0
5, 78000, Note_on_c, 3, 52, 50
5, 78000, Note_on_c, 3, 48, 50
5, 78230, Note_on_c, 3, 48, 0
5, 78230, Note_on_c, 3, 52, 0
5, 78240, Note_on_c, 3, 64, 50
5, 78240, Note_on_c, 3, 67, 50
5, 78480, Note_on_c, 3, 67, 0
5, 78480, Note_on_c, 3, 64, 0
5, 78480, Note_on_c, 3, 65, 50
5, 78480, Note_on_c, 3, 62, 50
5, 78710, Note_on_c, 3, 62, 0
5, 78710, Note_on_c, 3, 65, 0
5, 78720, Note_on_c, 3, 55, 50
5, 78720, Note_on_c, 3, 62, 50
5, 78960, Note_on_c, 3, 62, 0
5, 78960, Note_on_c, 3, 55, 0
5, 78960, Note_on_c, 3, 64, 50
5, 78960, Note_on_c, 3, 60, 50
5, 79190, Note_on_c, 3, 60, 0
5, 79190, Note_on_c, 3, 64, 0
5, 79200, Note_on_c, 3, 55, 50
5, 79200, Note_on_c, 3, 58, 50
5, 79440, Note_on_c, 3, 58, 0
5, 79440, Note_on_c, 3, 55, 0
5, 79440, Note_on_c, 3, 52, 50
5, 79440, Note_on_c, 3, 55, 50
5, 79670, Note_on_c, 3, 55, 0
5, 79670, Note_on_c, 3, 52, 0
5, 79680, Note_on_c, 3, 48, 50
5, 79680, Note_on_c, 3, 52, 50
5, 79920, Note_on_c, 3, 52, 0
5, 79920, Note_on_c, 3, 48, 0
5, 79920, Note_on_c, 3, 53, 50
5, 80150, Note_on_c, 3, 53, 0
5, 80160, Note_on_c, 3, 60, 50
5, 80160, Note_on_c, 3, 57, 50
5, 80400, Note_on_c, 3, 57, 0
5, 80400, Note_on_c, 3, 60, 0
5, 80400, Note_on_c, 3, 54, 50
5, 80400, Note_on_c, 3, 57, 50
5, 80630, Note_on_c, 3, 57, 0
5, 80630, Note_on_c, 3, 54, 0
5, 80640, Note_on_c, 3, 54, 50
5, 80640, Note_on_c, 3, 50, 50
5, 80880, Note_on_c, 3, 50, 0
5, 80880, Note_on_c, 3, 54, 0
5, 80880, Note_on_c, 3, 55, 50
5, 81110, Note_on_c, 3, 55, 0
5, 81120, Note_on_c, 3, 44, 50
5, 81120, Note_on_c, 3, 56, 50
5, 81830, Note_on_c, 3, 56, 0
5, 81830, Note_on_c, 3, 44, 0
5, 81840, Note_on_c, 3, 47, 65
5, 81840, Note_on_c, 3, 59, 65
5, 82310, Note_on_c, 3, 59, 0
5, 82310, Note_on_c, 3, 47, 0
5, 82320, Note_on_c, 3, 62, 75
5, 82320, Note_on_c, 3, 50, 75
5, 83270, Note_on_c, 3, 50, 0
5, 83270, Note_on_c, 3, 62, 0
5, 83280, Note_on_c, 3, 62, 96
5, 83280, Note_on_c, 3, 50, 96
5, 83750, Note_on_c, 3, 50, 0
5, 83750, Note_on_c, 3, 62, 0
5, 83760, Note_on_c, 3, 50, 106
5, 83760, Note_on_c, 3, 62, 106
5, 84710, Note_on_c, 3, 62, 0
5, 84710, Note_on_c, 3, 50, 0
5, 84720, Note_on_c, 3, 62, 127
5, 84720, Note_on_c, 3, 65, 127
5, 85070, Note_on_c, 3, 65, 0
5, 85070, Note_on_c, 3, 62, 0
5, 85080, Note_on_c, 3, 65, 127
5, 85080, Note_on_c, 3, 59, 127
5, 85200, Note_on_c, 3, 59, 0
5, 85200, Note_on_c, 3, 65, 0
5, 85200, Note_on_c, 3, 64, 127
5, 85200, Note_on_c, 3, 60, 127
5, 85320, Note_on_c, 3, 60, 0
5, 85320, Note_on_c, 3, 64, 0
5, 85440, Note_on_c, 3, 65, 127
5, 85440, Note_on_c, 3, 59, 127
5, 85560, Note_on_c, 3, 59, 0
5, 85560, Note_on_c, 3, 65, 0
5, 85680, Note_on_c, 3, 64, 127
5, 85680, Note_on_c, 3, 60, 127
5, 85800, Note_on_c, 3, 60, 0
5, 85800, Note_on_c, 3, 64, 0
5, 85920, Note_on_c, 3, 53, 127
5, 85920, Note_on_c, 3, 65, 127
5, 86040, Note_on_c, 3, 65, 0
5, 86040, Note_on_c, 3, 53, 0
5, 86160, Note_on_c, 3, 55, 127
5, 86160, Note_on_c, 3, 67, 127
5, 86280, Note_on_c, 3, 67, 0
5, 86280, Note_on_c, 3, 55, 0
5, 86400, Note_on_c, 3, 43, 127
5, 86400, Note_on_c, 3, 55, 127
5, 86520, Note_on_c, 3, 55, 0
5, 86520, Note_on_c, 3, 43, 0
5, 86640, Note_on_c, 3, 47, 127
5, 86640, Note_on_c, 3, 50, 127
5, 87110, Note_on_c, 3, 50, 0
5, 87110, Note_on_c, 3, 47, 0
5, 87120, Note_on_c, 3, 52, 127
5, 87120, Note_on_c, 3, 48, 127
5, 87230, Note_on_c, 3, 48, 0
5, 87230, Note_on_c, 3, 52, 0
5, 87240, Note_on_c, 3, 48, 127
5, 87240, Note_on_c, 3, 52, 127
5, 87360, Note_on_c, 3, 52, 0
5, 87360, Note_on_c, 3, 48, 0
5, 87480, Note_on_c, 3, 50, 127
5, 87480, Note_on_c, 3, 53, 127
5, 87600, Note_on_c, 3, 53, 0
5, 87600, Note_on_c, 3, 50, 0
5, 87720, Note_on_c, 3, 52, 127
5, 87720, Note_on_c, 3, 55, 127
5, 87840, Note_on_c, 3, 55, 0
5, 87840, Note_on_c, 3, 52, 0
5, 87960, Note_on_c, 3, 53, 127
5, 87960, Note_on_c, 3, 57, 127
5, 88080, Note_on_c, 3, 57, 0
5, 88080, Note_on_c, 3, 53, 0
5, 88200, Note_on_c, 3, 60, 127
5, 88200, Note_on_c, 3, 55, 127
5, 88320, Note_on_c, 3, 55, 0
5, 88320, Note_on_c, 3, 60, 0
5, 88440, Note_on_c, 3, 59, 127
5, 88440, Note_on_c, 3, 55, 127
5, 88550, Note_on_c, 3, 55, 0
5, 88550, Note_on_c, 3, 59, 0
5, 88560, Note_on_c, 3, 60, 127
5, 88560, Note_on_c, 3, 55, 127
5, 88610, Note_on_c, 3, 55, 0
5, 88610, Note_on_c, 3, 60, 0
5, 88620, Note_on_c, 3, 52, 127
5, 88620, Note_on_c, 3, 64, 127
5, 88670, Note_on_c, 3, 64, 0
5, 88670, Note_on_c, 3, 52, 0
5, 88680, Note_on_c, 3, 64, 127
5, 88680, Note_on_c, 3, 52, 127
5, 88730, Note_on_c, 3, 52, 0
5, 88730, Note_on_c, 3, 64, 0
5, 88740, Note_on_c, 3, 64, 127
5, 88740, Note_on_c, 3, 52, 127
5, 88790, Note_on_c, 3, 52, 0
5, 88790, Note_on_c, 3, 64, 0
5, 88800, Note_on_c, 3, 48, 127
5, 88800, Note_on_c, 3, 60, 127
5, 88850, Note_on_c, 3, 60, 0
5, 88850, Note_on_c, 3, 48, 0
5, 88860, Note_on_c, 3, 55, 127
5, 88860, Note_on_c, 3, 67, 127
5, 88910, Note_on_c, 3, 67, 0
5, 88910, Note_on_c, 3, 55, 0
5, 88920, Note_on_c, 3, 55, 127
5, 88920, Note_on_c, 3, 67, 127
5, 88970, Note_on_c, 3, 67, 0
5, 88970, Note_on_c, 3, 55, 0
5, 88980, Note_on_c, 3, 67, 127
5, 88980, Note_on_c, 3, 55, 127
5, 89030, Note_on_c, 3, 55, 0
5, 89030, Note_on_c, 3, 67, 0
5, 89040, Note_on_c, 3, 64, 127
5, 89040, Note_on_c, 3, 52, 127
5, 89090, Note_on_c, 3, 52, 0
5, 89090, Note_on_c, 3, 64, 0
5, 89100, Note_on_c, 3, 60, 127
5, 89100, Note_on_c, 3, 48, 127
5, 89150, Note_on_c, 3, 48, 0
5, 89150, Note_on_c, 3, 60, 0
5, 89160, Note_on_c, 3, 48, 127
5, 89160, Note_on_c, 3, 60, 127
5, 89210, Note_on_c, 3, 60, 0
5, 89210, Note_on_c, 3, 48, 0
5, 89220, Note_on_c, 3, 48, 127
5, 89220, Note_on_c, 3, 60, 127
5, 89270, Note_on_c, 3, 60, 0
5, 89270, Note_on_c, 3, 48, 0
5, 89280, Note_on_c, 3, 43, 127
5, 89280, Note_on_c, 3, 55, 127
5, 89570, Note_on_c, 3, 55, 0
5, 89570, Note_on_c, 3, 43, 0
5, 89580, Note_on_c, 3, 64, 127
5, 89630, Note_on_c, 3, 64, 0
5, 89640, Note_on_c, 3, 64, 127
5, 89690, Note_on_c, 3, 64, 0
5, 89700, Note_on_c, 3, 64, 127
5, 89750, Note_on_c, 3, 64, 0
5, 89760, Note_on_c, 3, 60, 127
5, 89810, Note_on_c, 3, 60, 0
5, 89820, Note_on_c, 3, 55, 127
5, 89820, Note_on_c, 3, 67, 127
5, 89870, Note_on_c, 3, 67, 0
5, 89870, Note_on_c, 3, 55, 0
5, 89880, Note_on_c, 3, 55, 127
5, 89880, Note_on_c, 3, 67, 127
5, 89930, Note_on_c, 3, 67, 0
5, 89930, Note_on_c, 3, 55, 0
5, 89940, Note_on_c, 3, 55, 127
5, 89940, Note_on_c, 3, 67, 127
5, 89990, Note_on_c, 3, 67, 0
5, 89990, Note_on_c, 3, 55, 0
5, 90000, Note_on_c, 3, 64, 127
5, 90000, Note_on_c, 3, 52, 127
5, 90050, Note_on_c, 3, 52, 0
5, 90050, Note_on_c, 3, 64, 0
5, 90060, Note_on_c, 3, 48, 127
5, 90060, Note_on_c, 3, 60, 127
5, 90110, Note_on_c, 3, 60, 0
5, 90110, Note_on_c, 3, 48, 0
5, 90120, Note_on_c, 3, 60, 127
5, 90120, Note_on_c, 3, 48, 127
5, 90170, Note_on_c, 3, 48, 0
5, 90170, Note_on_c, 3, 60, 0
5, 90180, Note_on_c, 3, 60, 127
5, 90180, Note_on_c, 3, 48, 127
5, 90230, Note_on_c, 3, 48, 0
5, 90230, Note_on_c, 3, 60, 0
5, 90240, Note_on_c, 3, 43, 127
5, 90240, Note_on_c, 3, 55, 127
5, 90290, Note_on_c, 3, 55, 0
5, 90290, Note_on_c, 3, 43, 0
5, 90300, Note_on_c, 3, 59, 127
5, 90300, Note_on_c, 3, 62, 127
5, 90350, Note_on_c, 3, 62, 0
5, 90350, Note_on_c, 3, 59, 0
5, 90360, Note_on_c, 3, 59, 127
5, 90360, Note_on_c, 3, 62, 127
5, 90410, Note_on_c, 3, 62, 0
5, 90410, Note_on_c, 3, 59, 0
5, 90420, Note_on_c, 3, 62, 127
5, 90420, Note_on_c, 3, 59, 127
5, 90470, Note_on_c, 3, 59, 0
5, 90470, Note_on_c, 3, 62, 0
5, 90480, Note_on_c, 3, 60, 127
5, 90480, Note_on_c, 3, 64, 127
5, 90600, Note_on_c, 3, 64, 0
5, 90600, Note_on_c, 3, 60, 0
5, 90780, Note_on_c, 3, 62, 127
5, 90780, Note_on_c, 3, 59, 127
5, 90830, Note_on_c, 3, 59, 0
5, 90830, Note_on_c, 3, 62, 0
5, 90840, Note_on_c, 3, 62, 127
5, 90840, Note_on_c, 3, 59, 127
5, 90890, Note_on_c, 3, 59, 0
5, 90890, Note_on_c, 3, 62, 0
5, 90900, Note_on_c, 3, 62, 127
5, 90900, Note_on_c, 3, 59, 127
5, 90950, Note_on_c, 3, 59, 0
5, 90950, Note_on_c, 3, 62, 0
5, 90960, Note_on_c, 3, 64, 127
5, 90960, Note_on_c, 3, 60, 127
5, 91080, Note_on_c, 3, 60, 0
5, 91080, Note_on_c, 3, 64, 0
5, 91260, Note_on_c, 3, 55, 127
5, 91260, Note_on_c, 3, 62, 127
5, 91310, Note_on_c, 3, 62, 0
5, 91310, Note_on_c, 3, 55, 0
5, 91320, Note_on_c, 3, 55, 127
5, 91320, Note_on_c, 3, 62, 127
5, 91370, Note_on_c, 3, 62, 0
5, 91370, Note_on_c, 3, 55, 0
5, 91380, Note_on_c, 3, 55, 127
5, 91380, Note_on_c, 3, 62, 127
5, 91430, Note_on_c, 3, 62, 0
5, 91430, Note_on_c, 3, 55, 0
5, 91440, Note_on_c, 3, 48, 127
5, 91440, Note_on_c, 3, 60, 127
5, 91490, Note_on_c, 3, 60, 0
5, 91490, Note_on_c, 3, 48, 0
5, 91500, Note_on_c, 3, 48, 127
5, 91500, Note_on_c, 3, 60, 127
5, 91550, Note_on_c, 3, 60, 0
5, 91550, Note_on_c, 3, 48, 0
5, 91560, Note_on_c, 3, 60, 127
5, 91560, Note_on_c, 3, 48, 127
5, 91610, Note_on_c, 3, 48, 0
5, 91610, Note_on_c, 3, 60, 0
5, 91620, Note_on_c, 3, 48, 127
5, 91620, Note_on_c, 3, 60, 127
5, 91670, Note_on_c, 3, 60, 0
5, 91670, Note_on_c, 3, 48, 0
5, 91680, Note_on_c, 3, 48, 127
5, 91680, Note_on_c, 3, 60, 127
5, 91920, Note_on_c, 3, 60, 0
5, 91920, Note_on_c, 3, 48, 0
5, 91920, Note_on_c, 3, 48, 127
5, 91920, Note_on_c, 3, 60, 127
5, 91970, Note_on_c, 3, 60, 0
5, 91970, Note_on_c, 3, 48, 0
5, 91980, Note_on_c, 3, 60, 127
5, 91980, Note_on_c, 3, 48, 127
5, 92030, Note_on_c, 3, 48, 0
5, 92030, Note_on_c, 3, 60, 0
5, 92040, Note_on_c, 3, 60, 127
5, 92040, Note_on_c, 3, 48, 127
5, 92090, Note_on_c, 3, 48, 0
5, 92090, Note_on_c, 3, 60, 0
5, 92100, Note_on_c, 3, 60, 127
5, 92100, Note_on_c, 3, 48, 127
5, 92150, Note_on_c, 3, 48, 0
5, 92150, Note_on_c, 3, 60, 0
5, 92160, Note_on_c, 3, 60, 127
5, 92160, Note_on_c, 3, 48, 127
5, 92400, Note_on_c, 3, 48, 0
5, 92400, Note_on_c, 3, 60, 0
5, 92400, Note_on_c, 3, 48, 127
5, 92400, Note_on_c, 3, 60, 127
5, 92450, Note_on_c, 3, 60, 0
5, 92450, Note_on_c, 3, 48, 0
5, 92460, Note_on_c, 3, 60, 127
5, 92460, Note_on_c, 3, 48, 127
5, 92510, Note_on_c, 3, 48, 0
5, 92510, Note_on_c, 3, 60, 0
5, 92520, Note_on_c, 3, 48, 127
5, 92520, Note_on_c, 3, 60, 127
5, 92570, Note_on_c, 3, 60, 0
5, 92570, Note_on_c, 3, 48, 0
5, 92580, Note_on_c, 3, 48, 127
5, 92580, Note_on_c, 3, 60, 127
5, 92630, Note_on_c, 3, 60, 0
5, 92630, Note_on_c, 3, 48, 0
5, 92640, Note_on_c, 3, 60, 127
5, 92640, Note_on_c, 3, 48, 127
5, 92880, Note_on_c, 3, 48, 0
5, 92880, Note_on_c, 3, 60, 0
5, 92880, Note_on_c, 3, 48, 127
5, 92880, Note_on_c, 3, 60, 127
5, 92930, Note_on_c, 3, 60, 0
5, 92930, Note_on_c, 3, 48, 0
5, 92940, Note_on_c, 3, 48, 127
5, 92940, Note_on_c, 3, 60, 127
5, 92990, Note_on_c, 3, 60, 0
5, 92990, Note_on_c, 3, 48, 0
5, 93000, Note_on_c, 3, 48, 127
5, 93000, Note_on_c, 3, 60, 127
5, 93050, Note_on_c, 3, 60, 0
5, 93050, Note_on_c, 3, 48, 0
5, 93060, Note_on_c, 3, 48, 127
5, 93060, Note_on_c, 3, 60, 127
5, 93110, Note_on_c, 3, 60, 0
5, 93110, Note_on_c, 3, 48, 0
5, 93120, Note_on_c, 3, 60, 127
5, 93120, Note_on_c, 3, 48, 127
5, 93170, Note_on_c, 3, 48, 0
5, 93170, Note_on_c, 3, 60, 0
5, 93180, Note_on_c, 3, 56, 127
5, 93180, Note_on_c, 3, 53, 127
5, 93230, Note_on_c, 3, 53, 0
5, 93230, Note_on_c, 3, 56, 0
5, 93240, Note_on_c, 3, 56, 127
5, 93240, Note_on_c, 3, 53, 127
5, 93290, Note_on_c, 3, 53, 0
5, 93290, Note_on_c, 3, 56, 0
5, 93300, Note_on_c, 3, 56, 127
5, 93300, Note_on_c, 3, 53, 127
5, 93350, Note_on_c, 3, 53, 0
5, 93350, Note_on_c, 3, 56, 0
5, 93360, Note_on_c, 3, 56, 127
5, 93360, Note_on_c, 3, 53, 127
5, 94310, Note_on_c, 3, 53, 0
5, 94310, Note_on_c, 3, 56, 0
5, 94320, Note_on_c, 3, 56, 127
5, 94320, Note_on_c, 3, 53, 127
5, 94440, Note_on_c, 3, 53, 0
5, 94440, Note_on_c, 3, 56, 0
5, 94620, Note_on_c, 3, 65, 50
5, 94670, Note_on_c, 3, 65, 0
5, 94680, Note_on_c, 3, 65, 50
5, 94730, Note_on_c, 3, 65, 0
5, 94740, Note_on_c, 3, 65, 50
5, 94790, Note_on_c, 3, 65, 0
5, 94800, Note_on_c, 3, 68, 50
5, 94920, Note_on_c, 3, 68, 0
5, 95340, Note_on_c, 3, 54, 127
5, 95340, Note_on_c, 3, 57, 127
5, 95390, Note_on_c, 3, 57, 0
5, 95390, Note_on_c, 3, 54, 0
5, 95400, Note_on_c, 3, 57, 127
5, 95400, Note_on_c, 3, 54, 127
5, 95450, Note_on_c, 3, 54, 0
5, 95450, Note_on_c, 3, 57, 0
5, 95460, Note_on_c, 3, 54, 127
5, 95460, Note_on_c, 3, 57, 127
5, 95510, Note_on_c, 3, 57, 0
5, 95510, Note_on_c, 3, 54, 0
5, 95520, Note_on_c, 3, 54, 127
5, 95520, Note_on_c, 3, 57, 127
5, 96470, Note_on_c, 3, 57, 0
5, 96470, Note_on_c, 3, 54, 0
5, 96480, Note_on_c, 3, 54, 127
5, 96480, Note_on_c, 3, 57, 127
5, 96600, Note_on_c, 3, 57, 0
5, 96600, Note_on_c, 3, 54, 0
5, 96780, Note_on_c, 3, 60, 127
5, 96830, Note_on_c, 3, 60, 0
5, 96840, Note_on_c, 3, 60, 127
5, 96890, Note_on_c, 3, 60, 0
5, 96900, Note_on_c, 3, 60, 127
5, 96950, Note_on_c, 3, 60, 0
5, 96960, Note_on_c, 3, 63, 127
5, 97080, Note_on_c, 3, 63, 0
5, 97260, Note_on_c, 3, 67, 100
5, 97310, Note_on_c, 3, 67, 0
5, 97320, Note_on_c, 3, 67, 100
5, 97370, Note_on_c, 3, 67, 0
5, 97380, Note_on_c, 3, 67, 100
5, 97430, Note_on_c, 3, 67, 0
5, 97440, Note_on_c, 3, 63, 100
5, 97670, Note_on_c, 3, 63, 0
5, 97680, Note_on_c, 3, 65, 100
5, 97910, Note_on_c, 3, 65, 0
5, 97920, Note_on_c, 3, 62, 100
5, 98210, Note_on_c, 3, 62, 0
5, 98220, Note_on_c, 3, 67, 100
5, 98270, Note_on_c, 3, 67, 0
5, 98280, Note_on_c, 3, 67, 100
5, 98330, Note_on_c, 3, 67, 0
5, 98340, Note_on_c, 3, 67, 100
5, 98390, Note_on_c, 3, 67, 0
5, 98400, Note_on_c, 3, 63, 100
5, 98630, Note_on_c, 3, 63, 0
5, 98640, Note_on_c, 3, 65, 100
5, 98870, Note_on_c, 3, 65, 0
5, 98880, Note_on_c, 3, 62, 100
5, 99170, Note_on_c, 3, 62, 0
5, 99180, Note_on_c, 3, 67, 100
5, 99230, Note_on_c, 3, 67, 0
5, 99240, Note_on_c, 3, 67, 100
5, 99290, Note_on_c, 3, 67, 0
5, 99300, Note_on_c, 3, 67, 100
5, 99350, Note_on_c, 3, 67, 0
5, 99360, Note_on_c, 3, 63, 100
5, 99470, Note_on_c, 3, 63, 0
5, 99480, Note_on_c, 3, 65, 100
5, 99590, Note_on_c, 3, 65, 0
5, 99600, Note_on_c, 3, 62, 100
5, 99710, Note_on_c, 3, 62, 0
5, 99720, Note_on_c, 3, 63, 100
5, 99830, Note_on_c, 3, 63, 0
5, 99840, Note_on_c, 3, 60, 100
5, 99950, Note_on_c, 3, 60, 0
5, 99960, Note_on_c, 3, 62, 100
5, 100070, Note_on_c, 3, 62, 0
5, 100080, Note_on_c, 3, 58, 100
5, 100190, Note_on_c, 3, 58, 0
5, 100200, Note_on_c, 3, 60, 100
5, 100310, Note_on_c, 3, 60, 0
5, 100320, Note_on_c, 3, 56, 100
5, 100430, Note_on_c, 3, 56, 0
5, 100440, Note_on_c, 3, 58, 100
5, 100550, Note_on_c, 3, 58, 0
5, 100560, Note_on_c, 3, 55, 100
5, 100670, Note_on_c, 3, 55, 0
5, 100680, Note_on_c, 3, 56, 100
5, 100790, Note_on_c, 3, 56, 0
5, 100800, Note_on_c, 3, 53, 100
5, 100910, Note_on_c, 3, 53, 0
5, 100920, Note_on_c, 3, 55, 100
5, 101030, Note_on_c, 3, 55, 0
5, 101040, Note_on_c, 3, 51, 100
5, 101150, Note_on_c, 3, 51, 0
5, 101160, Note_on_c, 3, 53, 100
5, 101270, Note_on_c, 3, 53, 0
5, 101280, Note_on_c, 3, 50, 100
5, 101390, Note_on_c, 3, 50, 0
5, 101400, Note_on_c, 3, 48, 100
5, 101510, Note_on_c, 3, 48, 0
5, 101520, Note_on_c, 3, 47, 100
5, 101630, Note_on_c, 3, 47, 0
5, 101640, Note_on_c, 3, 48, 100
5, 101750, Note_on_c, 3, 48, 0
5, 101760, Note_on_c, 3, 50, 100
5, 101870, Note_on_c, 3, 50, 0
5, 101880, Note_on_c, 3, 48, 100
5, 101990, Note_on_c, 3, 48, 0
5, 102000, Note_on_c, 3, 50, 100
5, 102110, Note_on_c, 3, 50, 0
5, 102120, Note_on_c, 3, 52, 102
5, 102230, Note_on_c, 3, 52, 0
5, 102240, Note_on_c, 3, 53, 105
5, 102350, Note_on_c, 3, 53, 0
5, 102360, Note_on_c, 3, 52, 108
5, 102470, Note_on_c, 3, 52, 0
5, 102480, Note_on_c, 3, 53, 110
5, 102590, Note_on_c, 3, 53, 0
5, 102600, Note_on_c, 3, 55, 113
5, 102710, Note_on_c, 3, 55, 0
5, 102720, Note_on_c, 3, 44, 116
5, 102720, Note_on_c, 3, 56, 116
5, 102830, Note_on_c, 3, 56, 0
5, 102830, Note_on_c, 3, 44, 0
5, 102840, Note_on_c, 3, 43, 118
5, 102840, Note_on_c, 3, 55, 118
5, 102950, Note_on_c, 3, 55, 0
5, 102950, Note_on_c, 3, 43, 0
5, 102960, Note_on_c, 3, 45, 121
5, 102960, Note_on_c, 3, 57, 121
5, 103070, Note_on_c, 3, 57, 0
5, 103070, Note_on_c, 3, 45, 0
5, 103080, Note_on_c, 3, 47, 124
5, 103080, Note_on_c, 3, 59, 124
5, 103190, Note_on_c, 3, 59, 0
5, 103190, Note_on_c, 3, 47, 0
5, 103200, Note_on_c, 3, 60, 127
5, 103200, Note_on_c, 3, 48, 127
5, 103670, Note_on_c, 3, 48, 0
5, 103670, Note_on_c, 3, 60, 0
5, 103680, Note_on_c, 3, 44, 127
5, 103680, Note_on_c, 3, 56, 127
5, 104150, Note_on_c, 3, 56, 0
5, 104150, Note_on_c, 3, 44, 0
5, 104160, Note_on_c, 3, 39, 127
5, 104160, Note_on_c, 3, 51, 127
5, 104630, Note_on_c, 3, 51, 0
5, 104630, Note_on_c, 3, 39, 0
5, 104640, Note_on_c, 3, 41, 127
5, 104640, Note_on_c, 3, 53, 127
5, 104870, Note_on_c, 3, 53, 0
5, 104870, Note_on_c, 3, 41, 0
5, 104880, Note_on_c, 3, 51, 127
5, 104880, Note_on_c, 3, 39, 127
5, 105110, Note_on_c, 3, 39, 0
5, 105110, Note_on_c, 3, 51, 0
5, 105120, Note_on_c, 3, 50, 127
5, 105120, Note_on_c, 3, 38, 127
5, 105350, Note_on_c, 3, 38, 0
5, 105350, Note_on_c, 3, 50, 0
5, 105360, Note_on_c, 3, 53, 127
5, 105360, Note_on_c, 3, 41, 127
5, 105590, Note_on_c, 3, 41, 0
5, 105590, Note_on_c, 3, 53, 0
5, 105600, Note_on_c, 3, 51, 127
5, 105600, Note_on_c, 3, 39, 127
5, 105690, Note_on_c, 3, 39, 0
5, 105690, Note_on_c, 3, 51, 0
5, 105840, Note_on_c, 3, 36, 127
5, 105840, Note_on_c, 3, 48, 127
5, 105930, Note_on_c, 3, 48, 0
5, 105930, Note_on_c, 3, 36, 0
5, 106080, Note_on_c, 3, 41, 127
5, 106080, Note_on_c, 3, 53, 127
5, 106170, Note_on_c, 3, 53, 0
5, 106170, Note_on_c, 3, 41, 0
5, 106320, Note_on_c, 3, 38, 127
5, 106320, Note_on_c, 3, 50, 127
5, 106410, Note_on_c, 3, 50, 0
5, 106410, Note_on_c, 3, 38, 0
5, 106560, Note_on_c, 3, 55, 127
5, 106560, Note_on_c, 3, 43, 127
5, 106650, Note_on_c, 3, 43, 0
5, 106650, Note_on_c, 3, 55, 0
5, 106800, Note_on_c, 3, 43, 127
5, 106890, Note_on_c, 3, 43, 0
5, 107040, Note_on_c, 3, 48, 127
5, 107040, Note_on_c, 3, 60, 127
5, 107270, Note_on_c, 3, 60, 0
5, 107270, Note_on_c, 3, 48, 0
5, 107280, Note_on_c, 3, 50, 127
5, 107280, Note_on_c, 3, 62, 127
5, 107370, Note_on_c, 3, 62, 0
5, 107370, Note_on_c, 3, 50, 0
5, 107400, Note_on_c, 3, 63, 127
5, 107400, Note_on_c, 3, 51, 127
5, 107490, Note_on_c, 3, 51, 0
5, 107490, Note_on_c, 3, 63, 0
5, 107520, Note_on_c, 3, 53, 127
5, 107520, Note_on_c, 3, 65, 127
5, 107640, Note_on_c, 3, 65, 0
5, 107640, Note_on_c, 3, 53, 0
5, 107640, Note_on_c, 3, 62, 127
5, 107640, Note_on_c, 3, 50, 127
5, 107760, Note_on_c, 3, 50, 0
5, 107760, Note_on_c, 3, 62, 0
5, 108240, Note_on_c, 3, 53, 127
5, 108240, Note_on_c, 3, 65, 127
5, 108330, Note_on_c, 3, 65, 0
5, 108330, Note_on_c, 3, 53, 0
5, 108360, Note_on_c, 3, 55, 127
5, 108360, Note_on_c, 3, 67, 127
5, 108450, Note_on_c, 3, 67, 0
5, 108450, Note_on_c, 3, 55, 0
5, 108480, Note_on_c, 3, 56, 127
5, 108480, Note_on_c, 3, 68, 127
5, 108600, Note_on_c, 3, 68, 0
5, 108600, Note_on_c, 3, 56, 0
5, 108600, Note_on_c, 3, 53, 127
5, 108600, Note_on_c, 3, 65, 127
5, 108720, Note_on_c, 3, 65, 0
5, 108720, Note_on_c, 3, 53, 0
5, 109200, Note_on_c, 3, 60, 127
5, 109200, Note_on_c, 3, 57, 127
5, 109290, Note_on_c, 3, 57, 0
5, 109290, Note_on_c, 3, 60, 0
5, 109320, Note_on_c, 3, 59, 127
5, 109320, Note_on_c, 3, 62, 127
5, 109410, Note_on_c, 3, 62, 0
5, 109410, Note_on_c, 3, 59, 0
5, 109440, Note_on_c, 3, 60, 127
5, 109440, Note_on_c, 3, 63, 127
5, 109560, Note_on_c, 3, 63, 0
5, 109560, Note_on_c, 3, 60, 0
5, 109560, Note_on_c, 3, 55, 127
5, 109560, Note_on_c, 3, 60, 127
5, 109680, Note_on_c, 3, 60, 0
5, 109680, Note_on_c, 3, 55, 0
5, 110160, Note_on_c, 3, 57, 127
5, 110160, Note_on_c, 3, 60, 127
5, 110250, Note_on_c, 3, 60, 0
5, 110250, Note_on_c, 3, 57, 0
5, 110280, Note_on_c, 3, 62, 127
5, 110280, Note_on_c, 3, 59, 127
5, 110370, Note_on_c, 3, 59, 0
5, 110370, Note_on_c, 3, 62, 0
5, 110400, Note_on_c, 3, 60, 127
5, 110400, Note_on_c, 3, 63, 127
5, 110520, Note_on_c, 3, 63, 0
5, 110520, Note_on_c, 3, 60, 0
5, 110520, Note_on_c, 3, 62, 127
5, 110520, Note_on_c, 3, 55, 127
5, 110640, Note_on_c, 3, 55, 0
5, 110640, Note_on_c, 3, 62, 0
5, 110640, Note_on_c, 3, 56, 127
5, 110640, Note_on_c, 3, 60, 127
5, 110760, Note_on_c, 3, 60, 0
5, 110760, Note_on_c, 3, 56, 0
5, 110760, Note_on_c, 3, 51, 127
5, 110760, Note_on_c, 3, 58, 127
5, 110880, Note_on_c, 3, 58, 0
5, 110880, Note_on_c, 3, 51, 0
5, 110880, Note_on_c, 3, 53, 127
5, 110880, Note_on_c, 3, 56, 127
5, 111000, Note_on_c, 3, 56, 0
5, 111000, Note_on_c, 3, 53, 0
5, 111000, Note_on_c, 3, 48, 127
5, 111000, Note_on_c, 3, 55, 127
5, 111120, Note_on_c, 3, 55, 0
5, 111120, Note_on_c, 3, 48, 0
5, 111360, Note_on_c, 3, 53, 127
5, 111360, Note_on_c, 3, 56, 127
5, 111480, Note_on_c, 3, 56, 0
5, 111480, Note_on_c, 3, 53, 0
5, 111480, Note_on_c, 3, 48, 127
5, 111480, Note_on_c, 3, 55, 127
5, 111590, Note_on_c, 3, 55, 0
5, 111590, Note_on_c, 3, 48, 0
5, 111600, Note_on_c, 3, 56, 127
5, 111600, Note_on_c, 3, 53, 127
5, 111720, Note_on_c, 3, 53, 0
5, 111720, Note_on_c, 3, 56, 0
5, 111720, Note_on_c, 3, 51, 127
5, 111720, Note_on_c, 3, 55, 127
5, 111840, Note_on_c, 3, 55, 0
5, 111840, Note_on_c, 3, 51, 0
5, 111960, Note_on_c, 3, 63, 127
5, 111960, Note_on_c, 3, 60, 127
5, 112080, Note_on_c, 3, 60, 0
5, 112080, Note_on_c, 3, 63, 0
5, 112200, Note_on_c, 3, 59, 127
5, 112200, Note_on_c, 3, 62, 127
5, 112320, Note_on_c, 3, 62, 0
5, 112320, Note_on_c, 3, 59, 0
5, 113040, Note_on_c, 3, 53, 127
5, 113040, Note_on_c, 3, 56, 127
5, 113160, Note_on_c, 3, 56, 0
5, 113160, Note_on_c, 3, 53, 0
5, 113160, Note_on_c, 3, 51, 127
5, 113160, Note_on_c, 3, 55, 127
5, 113280, Note_on_c, 3, 55, 0
5, 113280, Note_on_c, 3, 51, 0
5, 113520, Note_on_c, 3, 53, 127
5, 113520, Note_on_c, 3, 56, 127
5, 113640, Note_on_c, 3, 56, 0
5, 113640, Note_on_c, 3, 53, 0
5, 113640, Note_on_c, 3, 55, 127
5, 113640, Note_on_c, 3, 51, 127
5, 113760, Note_on_c, 3, 51, 0
5, 113760, Note_on_c, 3, 55, 0
5, 113880, Note_on_c, 3, 55, 127
5, 113880, Note_on_c, 3, 60, 127
5, 114000, Note_on_c, 3, 60, 0
5, 114000, Note_on_c, 3, 55, 0
5, 114120, Note_on_c, 3, 55, 127
5, 114120, Note_on_c, 3, 59, 127
5, 114230, Note_on_c, 3, 59, 0
5, 114230, Note_on_c, 3, 55, 0
5, 114240, Note_on_c, 3, 51, 127
5, 114240, Note_on_c, 3, 60, 127
5, 114360, Note_on_c, 3, 60, 0
5, 114360, Note_on_c, 3, 51, 0
5, 114540, Note_on_c, 3, 62, 127
5, 114540, Note_on_c, 3, 65, 127
5, 114590, Note_on_c, 3, 65, 0
5, 114590, Note_on_c, 3, 62, 0
5, 114600, Note_on_c, 3, 65, 127
5, 114600, Note_on_c, 3, 62, 127
5, 114650, Note_on_c, 3, 62, 0
5, 114650, Note_on_c, 3, 65, 0
5, 114660, Note_on_c, 3, 65, 127
5, 114660, Note_on_c, 3, 62, 127
5, 114710, Note_on_c, 3, 62, 0
5, 114710, Note_on_c, 3, 65, 0
5, 114720, Note_on_c, 3, 65, 127
5, 114720, Note_on_c, 3, 62, 127
5, 115080, Note_on_c, 3, 62, 0
5, 115080, Note_on_c, 3, 65, 0
5, 115080, Note_on_c, 3, 63, 127
5, 115080, Note_on_c, 3, 60, 127
5, 115200, Note_on_c, 3, 60, 0
5, 115200, Note_on_c, 3, 63, 0
5, 115200, Note_on_c, 3, 59, 127
5, 115200, Note_on_c, 3, 62, 127
5, 115320, Note_on_c, 3, 62, 0
5, 115320, Note_on_c, 3, 59, 0
5, 115320, Note_on_c, 3, 65, 127
5, 115320, Note_on_c, 3, 62, 127
5, 115440, Note_on_c, 3, 62, 0
5, 115440, Note_on_c, 3, 65, 0
5, 115440, Note_on_c, 3, 63, 127
5, 115440, Note_on_c, 3, 60, 127
5, 115560, Note_on_c, 3, 60, 0
5, 115560, Note_on_c, 3, 63, 0
5, 115560, Note_on_c, 3, 59, 127
5, 115560, Note_on_c, 3, 62, 127
5, 115670, Note_on_c, 3, 62, 0
5, 115670, Note_on_c, 3, 59, 0
5, 115680, Note_on_c, 3, 60, 127
5, 115680, Note_on_c, 3, 63, 127
5, 115800, Note_on_c, 3, 63, 0
5, 115800, Note_on_c, 3, 60, 0
5, 115980, Note_on_c, 3, 55, 127
5, 115980, Note_on_c, 3, 43, 127
5, 116030, Note_on_c, 3, 43, 0
5, 116030, Note_on_c, 3, 55, 0
5, 116040, Note_on_c, 3, 55, 127
5, 116040, Note_on_c, 3, 43, 127
5, 116090, Note_on_c, 3, 43, 0
5, 116090, Note_on_c, 3, 55, 0
5, 116100, Note_on_c, 3, 43, 127
5, 116100, Note_on_c, 3, 55, 127
5, 116150, Note_on_c, 3, 55, 0
5, 116150, Note_on_c, 3, 43, 0
5, 116160, Note_on_c, 3, 43, 127
5, 116160, Note_on_c, 3, 55, 127
5, 116210, Note_on_c, 3, 55, 0
5, 116210, Note_on_c, 3, 43, 0
5, 116220, Note_on_c, 3, 43, 127
5, 116220, Note_on_c, 3, 55, 127
5, 116270, Note_on_c, 3, 55, 0
5, 116270, Note_on_c, 3, 43, 0
5, 116280, Note_on_c, 3, 43, 127
5, 116280, Note_on_c, 3, 55, 127
5, 116330, Note_on_c, 3, 55, 0
5, 116330, Note_on_c, 3, 43, 0
5, 116340, Note_on_c, 3, 43, 127
5, 116340, Note_on_c, 3, 55, 127
5, 116390, Note_on_c, 3, 55, 0
5, 116390, Note_on_c, 3, 43, 0
5, 116400, Note_on_c, 3, 55, 127
5, 116400, Note_on_c, 3, 43, 127
5, 116450, Note_on_c, 3, 43, 0
5, 116450, Note_on_c, 3, 55, 0
5, 116460, Note_on_c, 3, 43, 127
5, 116460, Note_on_c, 3, 55, 127
5, 116510, Note_on_c, 3, 55, 0
5, 116510, Note_on_c, 3, 43, 0
5, 116520, Note_on_c, 3, 55, 127
5, 116520, Note_on_c, 3, 43, 127
5, 116570, Note_on_c, 3, 43, 0
5, 116570, Note_on_c, 3, 55, 0
5, 116580, Note_on_c, 3, 55, 127
5, 116580, Note_on_c, 3, 43, 127
5, 116630, Note_on_c, 3, 43, 0
5, 116630, Note_on_c, 3, 55, 0
5, 116640, Note_on_c, 3, 39, 127
5, 116640, Note_on_c, 3, 51, 127
5, 117360, Note_on_c, 3, 51, 0
5, 117360, Note_on_c, 3, 39, 0
5, 117420, Note_on_c, 3, 41, 127
5, 117420, Note_on_c, 3, 53, 127
5, 117470, Note_on_c, 3, 53, 0
5, 117470, Note_on_c, 3, 41, 0
5, 117480, Note_on_c, 3, 53, 127
5, 117480, Note_on_c, 3, 41, 127
5, 117530, Note_on_c, 3, 41, 0
5, 117530, Note_on_c, 3, 53, 0
5, 117540, Note_on_c, 3, 41, 127
5, 117540, Note_on_c, 3, 53, 127
5, 117590, Note_on_c, 3, 53, 0
5, 117590, Note_on_c, 3, 41, 0
5, 117600, Note_on_c, 3, 50, 127
5, 117600, Note_on_c, 3, 38, 127
5, 118560, Note_on_c, 3, 38, 0
5, 118560, Note_on_c, 3, 50, 0
5, 118680, Note_on_c, 3, 67, 50
5, 118800, Note_on_c, 3, 67, 0
5, 118800, Note_on_c, 3, 63, 50
5, 119630, Note_on_c, 3, 63, 0
5, 119640, Note_on_c, 3, 67, 50
5, 119760, Note_on_c, 3, 67, 0
5, 119760, Note_on_c, 3, 63, 50
5, 120530, Note_on_c, 3, 63, 0
5, 120540, Note_on_c, 3, 62, 100
5, 120540, Note_on_c, 3, 59, 100
5, 120590, Note_on_c, 3, 59, 0
5, 120590, Note_on_c, 3, 62, 0
5, 120600, Note_on_c, 3, 59, 100
5, 120600, Note_on_c, 3, 62, 100
5, 120650, Note_on_c, 3, 62, 0
5, 120650, Note_on_c, 3, 59, 0
5, 120660, Note_on_c, 3, 59, 100
5, 120660, Note_on_c, 3, 62, 100
5, 120710, Note_on_c, 3, 62, 0
5, 120710, Note_on_c, 3, 59, 0
5, 120720, Note_on_c, 3, 63, 100
5, 120720, Note_on_c, 3, 60, 100
5, 120840, Note_on_c, 3, 60, 0
5, 120840, Note_on_c, 3, 63, 0
5, 121020, Note_on_c, 3, 62, 100
5, 121020, Note_on_c, 3, 59, 100
5, 121070, Note_on_c, 3, 59, 0
5, 121070, Note_on_c, 3, 62, 0
5, 121080, Note_on_c, 3, 59, 100
5, 121080, Note_on_c, 3, 62, 100
5, 121130, Note_on_c, 3, 62, 0
5, 121130, Note_on_c, 3, 59, 0
5, 121140, Note_on_c, 3, 59, 100
5, 121140, Note_on_c, 3, 62, 100
5, 121190, Note_on_c, 3, 62, 0
5, 121190, Note_on_c, 3, 59, 0
5, 121200, Note_on_c, 3, 60, 100
5, 121200, Note_on_c, 3, 63, 100
5, 121320, Note_on_c, 3, 63, 0
5, 121320, Note_on_c, 3, 60, 0
5, 121500, Note_on_c, 3, 59, 101
5, 121500, Note_on_c, 3, 62, 101
5, 121550, Note_on_c, 3, 62, 0
5, 121550, Note_on_c, 3, 59, 0
5, 121560, Note_on_c, 3, 59, 102
5, 121560, Note_on_c, 3, 62, 102
5, 121610, Note_on_c, 3, 62, 0
5, 121610, Note_on_c, 3, 59, 0
5, 121620, Note_on_c, 3, 62, 104
5, 121620, Note_on_c, 3, 59, 104
5, 121670, Note_on_c, 3, 59, 0
5, 121670, Note_on_c, 3, 62, 0
5, 121680, Note_on_c, 3, 60, 105
5, 121680, Note_on_c, 3, 63, 105
5, 121790, Note_on_c, 3, 63, 0
5, 121790, Note_on_c, 3, 60, 0
5, 121800, Note_on_c, 3, 62, 108
5, 121800, Note_on_c, 3, 59, 108
5, 121910, Note_on_c, 3, 59, 0
5, 121910, Note_on_c, 3, 62, 0
5, 121920, Note_on_c, 3, 63, 110
5, 121920, Note_on_c, 3, 60, 110
5, 122030, Note_on_c, 3, 60, 0
5, 122030, Note_on_c, 3, 63, 0
5, 122040, Note_on_c, 3, 59, 113
5, 122040, Note_on_c, 3, 62, 113
5, 122150, Note_on_c, 3, 62, 0
5, 122150, Note_on_c, 3, 59, 0
5, 122160, Note_on_c, 3, 60, 116
5, 122160, Note_on_c, 3, 63, 116
5, 122270, Note_on_c, 3, 63, 0
5, 122270, Note_on_c, 3, 60, 0
5, 122280, Note_on_c, 3, 62, 118
5, 122280, Note_on_c, 3, 59, 118
5, 122390, Note_on_c, 3, 59, 0
5, 122390, Note_on_c, 3, 62, 0
5, 122400, Note_on_c, 3, 60, 121
5, 122400, Note_on_c, 3, 63, 121
5, 122510, Note_on_c, 3, 63, 0
5, 122510, Note_on_c, 3, 60, 0
5, 122520, Note_on_c, 3, 59, 124
5, 122520, Note_on_c, 3, 62, 124
5, 122630, Note_on_c, 3, 62, 0
5, 122630, Note_on_c, 3, 59, 0
5, 122640, Note_on_c, 3, 63, 127
5, 122640, Note_on_c, 3, 60, 127
5, 122760, Note_on_c, 3, 60, 0
5, 122760, Note_on_c, 3, 63, 0
5, 122880, Note_on_c, 3, 59, 127
5, 122880, Note_on_c, 3, 55, 127
5, 123000, Note_on_c, 3, 55, 0
5, 123000, Note_on_c, 3, 59, 0
5, 123120, Note_on_c, 3, 60, 127
5, 123120, Note_on_c, 3, 48, 127
5, 123240, Note_on_c, 3, 48, 0
5, 123240, Note_on_c, 3, 60, 0
5, 123240, End_track
6, 0, Start_track
6, 0, MIDI_port, 0
6, 0, Title_t, "Corni C"
6, 0, Program_c, 4, 60
6, 0, Control_c, 4, 7, 127
6, 0, Control_c, 4, 10, 31
6, 4140, Note_on_c, 4, 67, 65
6, 4190, Note_on_c, 4, 67, 0
6, 4200, Note_on_c, 4, 67, 85
6, 4250, Note_on_c, 4, 67, 0
6, 4260, Note_on_c, 4, 67, 106
6, 4310, Note_on_c, 4, 67, 0
6, 4320, Note_on_c, 4, 67, 127
6, 4440, Note_on_c, 4, 67, 0
6, 4560, Note_on_c, 4, 51, 127
6, 4560, Note_on_c, 4, 63, 127
6, 4680, Note_on_c, 4, 63, 0
6, 4680, Note_on_c, 4, 51, 0
6, 4800, Note_on_c, 4, 67, 127
6, 4800, Note_on_c, 4, 55, 127
6, 4920, Note_on_c, 4, 55, 0
6, 4920, Note_on_c, 4, 67, 0
6, 5100, Note_on_c, 4, 68, 127
6, 5150, Note_on_c, 4, 68, 0
6, 5160, Note_on_c, 4, 68, 127
6, 5210, Note_on_c, 4, 68, 0
6, 5220, Note_on_c, 4, 68, 127
6, 5270, Note_on_c, 4, 68, 0
6, 5280, Note_on_c, 4, 65, 127
6, 5760, Note_on_c, 4, 65, 0
6, 7500, Note_on_c, 4, 55, 50
6, 7500, Note_on_c, 4, 67, 50
6, 7550, Note_on_c, 4, 67, 0
6, 7550, Note_on_c, 4, 55, 0
6, 7560, Note_on_c, 4, 55, 50
6, 7560, Note_on_c, 4, 67, 50
6, 7610, Note_on_c, 4, 67, 0
6, 7610, Note_on_c, 4, 55, 0
6, 7620, Note_on_c, 4, 55, 50
6, 7620, Note_on_c, 4, 67, 50
6, 7670, Note_on_c, 4, 67, 0
6, 7670, Note_on_c, 4, 55, 0
6, 7680, Note_on_c, 4, 55, 50
6, 7680, Note_on_c, 4, 67, 50
6, 7800, Note_on_c, 4, 67, 0
6, 7800, Note_on_c, 4, 55, 0
6, 7920, Note_on_c, 4, 68, 60
6, 7920, Note_on_c, 4, 65, 60
6, 8280, Note_on_c, 4, 65, 0
6, 8280, Note_on_c, 4, 68, 0
6, 10080, Note_on_c, 4, 65, 100
6, 10080, Note_on_c, 4, 68, 100
6, 10200, Note_on_c, 4, 68, 0
6, 10200, Note_on_c, 4, 65, 0
6, 10320, Note_on_c, 4, 63, 100
6, 10320, Note_on_c, 4, 67, 100
6, 11270, Note_on_c, 4, 67, 0
6, 11270, Note_on_c, 4, 63, 0
6, 11280, Note_on_c, 4, 67, 100
6, 11280, Note_on_c, 4, 65, 100
6, 12110, Note_on_c, 4, 65, 0
6, 12110, Note_on_c, 4, 67, 0
6, 12120, Note_on_c, 4, 67, 100
6, 12120, Note_on_c, 4, 63, 100
6, 12230, Note_on_c, 4, 63, 0
6, 12230, Note_on_c, 4, 67, 0
6, 12240, Note_on_c, 4, 63, 127
6, 12240, Note_on_c, 4, 66, 127
6, 13190, Note_on_c, 4, 66, 0
6, 13190, Note_on_c, 4, 63, 0
6, 13200, Note_on_c, 4, 63, 127
6, 13200, Note_on_c, 4, 66, 127
6, 13320, Note_on_c, 4, 66, 0
6, 13320, Note_on_c, 4, 63, 0
6, 13680, Note_on_c, 4, 58, 127
6, 13680, Note_on_c, 4, 65, 127
6, 13800, Note_on_c, 4, 65, 0
6, 13800, Note_on_c, 4, 58, 0
6, 13980, Note_on_c, 4, 70, 127
6, 14030, Note_on_c, 4, 70, 0
6, 14040, Note_on_c, 4, 70, 127
6, 14090, Note_on_c, 4, 70, 0
6, 14100, Note_on_c, 4, 70, 127
6, 14150, Note_on_c, 4, 70, 0
6, 14160, Note_on_c, 4, 63, 127
6, 14380, Note_on_c, 4, 63, 0
6, 14400, Note_on_c, 4, 65, 127
6, 14620, Note_on_c, 4, 65, 0
6, 14640, Note_on_c, 4, 58, 127
6, 14880, Note_on_c, 4, 58, 0
6, 14880, Note_on_c, 4, 58, 50
6, 15600, Note_on_c, 4, 58, 0
6, 15600, Note_on_c, 4, 58, 50
6, 16560, Note_on_c, 4, 58, 0
6, 16560, Note_on_c, 4, 58, 50
6, 17760, Note_on_c, 4, 58, 0
6, 19680, Note_on_c, 4, 51, 50
6, 19680, Note_on_c, 4, 63, 50
6, 20640, Note_on_c, 4, 63, 0
6, 20640, Note_on_c, 4, 51, 0
6, 20640, Note_on_c, 4, 63, 73
6, 20640, Note_on_c, 4, 51, 73
6, 21950, Note_on_c, 4, 51, 0
6, 21950, Note_on_c, 4, 63, 0
6, 21960, Note_on_c, 4, 63, 115
6, 21960, Note_on_c, 4, 51, 115
6, 22070, Note_on_c, 4, 51, 0
6, 22070, Note_on_c, 4, 63, 0
6, 22080, Note_on_c, 4, 63, 119
6, 22080, Note_on_c, 4, 51, 119
6, 22190, Note_on_c, 4, 51, 0
6, 22190, Note_on_c, 4, 63, 0
6, 22200, Note_on_c, 4, 51, 123
6, 22200, Note_on_c, 4, 63, 123
6, 22310, Note_on_c, 4, 63, 0
6, 22310, Note_on_c, 4, 51, 0
6, 22320, Note_on_c, 4, 58, 127
6, 22320, Note_on_c, 4, 65, 127
6, 22670, Note_on_c, 4, 65, 0
6, 22670, Note_on_c, 4, 58, 0
6, 22680, Note_on_c, 4, 46, 127
6, 22680, Note_on_c, 4, 58, 127
6, 22800, Note_on_c, 4, 58, 0
6, 22800, Note_on_c, 4, 46, 0
6, 22800, Note_on_c, 4, 58, 127
6, 22800, Note_on_c, 4, 46, 127
6, 22920, Note_on_c, 4, 46, 0
6, 22920, Note_on_c, 4, 58, 0
6, 23040, Note_on_c, 4, 46, 127
6, 23040, Note_on_c, 4, 58, 127
6, 23160, Note_on_c, 4, 58, 0
6, 23160, Note_on_c, 4, 46, 0
6, 23280, Note_on_c, 4, 46, 127
6, 23280, Note_on_c, 4, 58, 127
6, 23400, Note_on_c, 4, 58, 0
6, 23400, Note_on_c, 4, 46, 0
6, 23520, Note_on_c, 4, 51, 127
6, 23520, Note_on_c, 4, 63, 127
6, 23640, Note_on_c, 4, 63, 0
6, 23640, Note_on_c, 4, 51, 0
6, 23760, Note_on_c, 4, 67, 127
6, 23760, Note_on_c, 4, 63, 127
6, 23880, Note_on_c, 4, 63, 0
6, 23880, Note_on_c, 4, 67, 0
6, 24000, Note_on_c, 4, 65, 127
6, 24000, Note_on_c, 4, 58, 127
6, 24110, Note_on_c, 4, 58, 0
6, 24110, Note_on_c, 4, 65, 0
6, 24120, Note_on_c, 4, 58, 127
6, 24120, Note_on_c, 4, 46, 127
6, 24830, Note_on_c, 4, 46, 0
6, 24830, Note_on_c, 4, 58, 0
6, 24840, Note_on_c, 4, 58, 127
6, 24840, Note_on_c, 4, 46, 127
6, 24960, Note_on_c, 4, 46, 0
6, 24960, Note_on_c, 4, 58, 0
6, 25080, Note_on_c, 4, 46, 127
6, 25080, Note_on_c, 4, 58, 127
6, 25200, Note_on_c, 4, 58, 0
6, 25200, Note_on_c, 4, 46, 0
6, 25320, Note_on_c, 4, 51, 127
6, 25320, Note_on_c, 4, 63, 127
6, 25440, Note_on_c, 4, 63, 0
6, 25440, Note_on_c, 4, 51, 0
6, 25560, Note_on_c, 4, 51, 127
6, 25560, Note_on_c, 4, 63, 127
6, 25680, Note_on_c, 4, 63, 0
6, 25680, Note_on_c, 4, 51, 0
6, 25800, Note_on_c, 4, 63, 127
6, 25800, Note_on_c, 4, 51, 127
6, 25920, Note_on_c, 4, 51, 0
6, 25920, Note_on_c, 4, 63, 0
6, 26040, Note_on_c, 4, 58, 127
6, 26040, Note_on_c, 4, 46, 127
6, 26150, Note_on_c, 4, 46, 0
6, 26150, Note_on_c, 4, 58, 0
6, 26160, Note_on_c, 4, 63, 127
6, 26160, Note_on_c, 4, 51, 127
6, 26280, Note_on_c, 4, 51, 0
6, 26280, Note_on_c, 4, 63, 0
6, 26460, Note_on_c, 4, 70, 127
6, 26460, Note_on_c, 4, 58, 127
6, 26510, Note_on_c, 4, 58, 0
6, 26510, Note_on_c, 4, 70, 0
6, 26520, Note_on_c, 4, 58, 127
6, 26520, Note_on_c, 4, 70, 127
6, 26570, Note_on_c, 4, 70, 0
6, 26570, Note_on_c, 4, 58, 0
6, 26580, Note_on_c, 4, 58, 127
6, 26580, Note_on_c, 4, 70, 127
6, 26630, Note_on_c, 4, 70, 0
6, 26630, Note_on_c, 4, 58, 0
6, 26640, Note_on_c, 4, 67, 127
6, 26640, Note_on_c, 4, 55, 127
6, 26690, Note_on_c, 4, 55, 0
6, 26690, Note_on_c, 4, 67, 0
6, 26700, Note_on_c, 4, 63, 127
6, 26700, Note_on_c, 4, 51, 127
6, 26750, Note_on_c, 4, 51, 0
6, 26750, Note_on_c, 4, 63, 0
6, 26760, Note_on_c, 4, 63, 127
6, 26760, Note_on_c, 4, 51, 127
6, 26810, Note_on_c, 4, 51, 0
6, 26810, Note_on_c, 4, 63, 0
6, 26820, Note_on_c, 4, 51, 127
6, 26820, Note_on_c, 4, 63, 127
6, 26870, Note_on_c, 4, 63, 0
6, 26870, Note_on_c, 4, 51, 0
6, 26880, Note_on_c, 4, 58, 127
6, 26880, Note_on_c, 4, 46, 127
6, 27240, Note_on_c, 4, 46, 0
6, 27240, Note_on_c, 4, 58, 0
6, 27420, Note_on_c, 4, 70, 127
6, 27420, Note_on_c, 4, 58, 127
6, 27470, Note_on_c, 4, 58, 0
6, 27470, Note_on_c, 4, 70, 0
6, 27480, Note_on_c, 4, 58, 127
6, 27480, Note_on_c, 4, 70, 127
6, 27530, Note_on_c, 4, 70, 0
6, 27530, Note_on_c, 4, 58, 0
6, 27540, Note_on_c, 4, 70, 127
6, 27540, Note_on_c, 4, 58, 127
6, 27590, Note_on_c, 4, 58, 0
6, 27590, Note_on_c, 4, 70, 0
6, 27600, Note_on_c, 4, 55, 127
6, 27600, Note_on_c, 4, 67, 127
6, 27650, Note_on_c, 4, 67, 0
6, 27650, Note_on_c, 4, 55, 0
6, 27660, Note_on_c, 4, 63, 127
6, 27660, Note_on_c, 4, 51, 127
6, 27710, Note_on_c, 4, 51, 0
6, 27710, Note_on_c, 4, 63, 0
6, 27720, Note_on_c, 4, 51, 127
6, 27720, Note_on_c, 4, 63, 127
6, 27770, Note_on_c, 4, 63, 0
6, 27770, Note_on_c, 4, 51, 0
6, 27780, Note_on_c, 4, 63, 127
6, 27780, Note_on_c, 4, 51, 127
6, 27830, Note_on_c, 4, 51, 0
6, 27830, Note_on_c, 4, 63, 0
6, 27840, Note_on_c, 4, 46, 127
6, 27840, Note_on_c, 4, 58, 127
6, 28200, Note_on_c, 4, 58, 0
6, 28200, Note_on_c, 4, 46, 0
6, 28380, Note_on_c, 4, 46, 127
6, 28380, Note_on_c, 4, 58, 127
6, 28430, Note_on_c, 4, 58, 0
6, 28430, Note_on_c, 4, 46, 0
6, 28440, Note_on_c, 4, 58, 127
6, 28440, Note_on_c, 4, 46, 127
6, 28490, Note_on_c, 4, 46, 0
6, 28490, Note_on_c, 4, 58, 0
6, 28500, Note_on_c, 4, 58, 127
6, 28500, Note_on_c, 4, 46, 127
6, 28550, Note_on_c, 4, 46, 0
6, 28550, Note_on_c, 4, 58, 0
6, 28560, Note_on_c, 4, 63, 127
6, 28560, Note_on_c, 4, 51, 127
6, 28680, Note_on_c, 4, 51, 0
6, 28680, Note_on_c, 4, 63, 0
6, 28860, Note_on_c, 4, 65, 127
6, 28860, Note_on_c, 4, 58, 127
6, 28910, Note_on_c, 4, 58, 0
6, 28910, Note_on_c, 4, 65, 0
6, 28920, Note_on_c, 4, 58, 127
6, 28920, Note_on_c, 4, 65, 127
6, 28970, Note_on_c, 4, 65, 0
6, 28970, Note_on_c, 4, 58, 0
6, 28980, Note_on_c, 4, 58, 127
6, 28980, Note_on_c, 4, 65, 127
6, 29030, Note_on_c, 4, 65, 0
6, 29030, Note_on_c, 4, 58, 0
6, 29040, Note_on_c, 4, 63, 127
6, 29040, Note_on_c, 4, 51, 127
6, 29160, Note_on_c, 4, 51, 0
6, 29160, Note_on_c, 4, 63, 0
6, 29820, Note_on_c, 4, 70, 127
6, 29880, Note_on_c, 4, 70, 0
6, 29880, Note_on_c, 4, 70, 127
6, 29940, Note_on_c, 4, 70, 0
6, 29940, Note_on_c, 4, 70, 127
6, 30000, Note_on_c, 4, 70, 0
6, 30000, Note_on_c, 4, 67, 127
6, 30720, Note_on_c, 4, 67, 0
6, 34200, Note_on_c, 4, 63, 75
6, 34310, Note_on_c, 4, 63, 0
6, 34320, Note_on_c, 4, 65, 83
6, 34430, Note_on_c, 4, 65, 0
6, 34440, Note_on_c, 4, 66, 91
6, 34550, Note_on_c, 4, 66, 0
6, 34560, Note_on_c, 4, 55, 50
6, 34560, Note_on_c, 4, 67, 50
6, 35880, Note_on_c, 4, 67, 0
6, 35880, Note_on_c, 4, 55, 0
6, 37740, Note_on_c, 4, 55, 50
6, 37740, Note_on_c, 4, 67, 50
6, 37790, Note_on_c, 4, 67, 0
6, 37790, Note_on_c, 4, 55, 0
6, 37800, Note_on_c, 4, 55, 50
6, 37800, Note_on_c, 4, 67, 50
6, 37850, Note_on_c, 4, 67, 0
6, 37850, Note_on_c, 4, 55, 0
6, 37860, Note_on_c, 4, 55, 50
6, 37860, Note_on_c, 4, 67, 50
6, 37910, Note_on_c, 4, 67, 0
6, 37910, Note_on_c, 4, 55, 0
6, 37920, Note_on_c, 4, 67, 50
6, 37920, Note_on_c, 4, 55, 50
6, 38040, Note_on_c, 4, 55, 0
6, 38040, Note_on_c, 4, 67, 0
6, 38220, Note_on_c, 4, 63, 50
6, 38220, Note_on_c, 4, 51, 50
6, 38270, Note_on_c, 4, 51, 0
6, 38270, Note_on_c, 4, 63, 0
6, 38280, Note_on_c, 4, 63, 50
6, 38280, Note_on_c, 4, 51, 50
6, 38330, Note_on_c, 4, 51, 0
6, 38330, Note_on_c, 4, 63, 0
6, 38340, Note_on_c, 4, 63, 50
6, 38340, Note_on_c, 4, 51, 50
6, 38390, Note_on_c, 4, 51, 0
6, 38390, Note_on_c, 4, 63, 0
6, 38400, Note_on_c, 4, 63, 50
6, 38400, Note_on_c, 4, 51, 50
6, 38520, Note_on_c, 4, 51, 0
6, 38520, Note_on_c, 4, 63, 0
6, 38700, Note_on_c, 4, 63, 50
6, 38700, Note_on_c, 4, 51, 50
6, 38750, Note_on_c, 4, 51, 0
6, 38750, Note_on_c, 4, 63, 0
6, 38760, Note_on_c, 4, 63, 50
6, 38760, Note_on_c, 4, 51, 50
6, 38810, Note_on_c, 4, 51, 0
6, 38810, Note_on_c, 4, 63, 0
6, 38820, Note_on_c, 4, 51, 50
6, 38820, Note_on_c, 4, 63, 50
6, 38870, Note_on_c, 4, 63, 0
6, 38870, Note_on_c, 4, 51, 0
6, 38880, Note_on_c, 4, 51, 50
6, 38880, Note_on_c, 4, 63, 50
6, 39000, Note_on_c, 4, 63, 0
6, 39000, Note_on_c, 4, 51, 0
6, 39180, Note_on_c, 4, 55, 50
6, 39180, Note_on_c, 4, 67, 50
6, 39230, Note_on_c, 4, 67, 0
6, 39230, Note_on_c, 4, 55, 0
6, 39240, Note_on_c, 4, 67, 50
6, 39240, Note_on_c, 4, 55, 50
6, 39290, Note_on_c, 4, 55, 0
6, 39290, Note_on_c, 4, 67, 0
6, 39300, Note_on_c, 4, 67, 50
6, 39300, Note_on_c, 4, 55, 50
6, 39350, Note_on_c, 4, 55, 0
6, 39350, Note_on_c, 4, 67, 0
6, 39360, Note_on_c, 4, 55, 50
6, 39360, Note_on_c, 4, 67, 50
6, 39480, Note_on_c, 4, 67, 0
6, 39480, Note_on_c, 4, 55, 0
6, 39660, Note_on_c, 4, 55, 56
6, 39660, Note_on_c, 4, 67, 56
6, 39710, Note_on_c, 4, 67, 0
6, 39710, Note_on_c, 4, 55, 0
6, 39720, Note_on_c, 4, 55, 62
6, 39720, Note_on_c, 4, 67, 62
6, 39770, Note_on_c, 4, 67, 0
6, 39770, Note_on_c, 4, 55, 0
6, 39780, Note_on_c, 4, 67, 68
6, 39780, Note_on_c, 4, 55, 68
6, 39830, Note_on_c, 4, 55, 0
6, 39830, Note_on_c, 4, 67, 0
6, 39840, Note_on_c, 4, 67, 75
6, 39840, Note_on_c, 4, 55, 75
6, 39950, Note_on_c, 4, 55, 0
6, 39950, Note_on_c, 4, 67, 0
6, 39960, Note_on_c, 4, 55, 87
6, 39960, Note_on_c, 4, 67, 87
6, 40070, Note_on_c, 4, 67, 0
6, 40070, Note_on_c, 4, 55, 0
6, 40080, Note_on_c, 4, 51, 100
6, 40080, Note_on_c, 4, 63, 100
6, 40550, Note_on_c, 4, 63, 0
6, 40550, Note_on_c, 4, 51, 0
6, 40560, Note_on_c, 4, 51, 100
6, 40560, Note_on_c, 4, 63, 100
6, 40680, Note_on_c, 4, 63, 0
6, 40680, Note_on_c, 4, 51, 0
6, 40860, Note_on_c, 4, 55, 100
6, 40860, Note_on_c, 4, 67, 100
6, 40910, Note_on_c, 4, 67, 0
6, 40910, Note_on_c, 4, 55, 0
6, 40920, Note_on_c, 4, 67, 100
6, 40920, Note_on_c, 4, 55, 100
6, 40970, Note_on_c, 4, 55, 0
6, 40970, Note_on_c, 4, 67, 0
6, 40980, Note_on_c, 4, 67, 100
6, 40980, Note_on_c, 4, 55, 100
6, 41030, Note_on_c, 4, 55, 0
6, 41030, Note_on_c, 4, 67, 0
6, 41040, Note_on_c, 4, 67, 100
6, 41040, Note_on_c, 4, 55, 100
6, 41510, Note_on_c, 4, 55, 0
6, 41510, Note_on_c, 4, 67, 0
6, 41520, Note_on_c, 4, 67, 100
6, 41520, Note_on_c, 4, 55, 100
6, 41640, Note_on_c, 4, 55, 0
6, 41640, Note_on_c, 4, 67, 0
6, 41820, Note_on_c, 4, 55, 104
6, 41820, Note_on_c, 4, 67, 104
6, 41870, Note_on_c, 4, 67, 0
6, 41870, Note_on_c, 4, 55, 0
6, 41880, Note_on_c, 4, 67, 106
6, 41880, Note_on_c, 4, 55, 106
6, 41930, Note_on_c, 4, 55, 0
6, 41930, Note_on_c, 4, 67, 0
6, 41940, Note_on_c, 4, 67, 107
6, 41940, Note_on_c, 4, 55, 107
6, 41990, Note_on_c, 4, 55, 0
6, 41990, Note_on_c, 4, 67, 0
6, 42000, Note_on_c, 4, 55, 109
6, 42000, Note_on_c, 4, 67, 109
6, 42120, Note_on_c, 4, 67, 0
6, 42120, Note_on_c, 4, 55, 0
6, 45720, Note_on_c, 4, 65, 127
6, 45770, Note_on_c, 4, 65, 0
6, 45780, Note_on_c, 4, 65, 127
6, 45830, Note_on_c, 4, 65, 0
6, 45840, Note_on_c, 4, 65, 127
6, 45960, Note_on_c, 4, 65, 0
6, 46440, Note_on_c, 4, 67, 127
6, 46490, Note_on_c, 4, 67, 0
6, 46500, Note_on_c, 4, 67, 127
6, 46550, Note_on_c, 4, 67, 0
6, 46560, Note_on_c, 4, 67, 127
6, 46680, Note_on_c, 4, 67, 0
6, 46800, Note_on_c, 4, 65, 127
6, 47030, Note_on_c, 4, 65, 0
6, 47040, Note_on_c, 4, 67, 127
6, 47280, Note_on_c, 4, 67, 0
6, 47760, Note_on_c, 4, 65, 127
6, 47990, Note_on_c, 4, 65, 0
6, 48000, Note_on_c, 4, 67, 127
6, 48240, Note_on_c, 4, 67, 0
6, 48720, Note_on_c, 4, 65, 127
6, 48950, Note_on_c, 4, 65, 0
6, 48960, Note_on_c, 4, 66, 127
6, 49200, Note_on_c, 4, 66, 0
6, 49680, Note_on_c, 4, 65, 127
6, 49910, Note_on_c, 4, 65, 0
6, 49920, Note_on_c, 4, 65, 127
6, 50160, Note_on_c, 4, 65, 0
6, 55920, Note_on_c, 4, 68, 50
6, 55920, Note_on_c, 4, 65, 50
6, 56160, Note_on_c, 4, 65, 0
6, 56160, Note_on_c, 4, 68, 0
6, 56400, Note_on_c, 4, 68, 50
6, 56400, Note_on_c, 4, 65, 50
6, 56640, Note_on_c, 4, 65, 0
6, 56640, Note_on_c, 4, 68, 0
6, 56880, Note_on_c, 4, 65, 50
6, 56880, Note_on_c, 4, 68, 50
6, 57120, Note_on_c, 4, 68, 0
6, 57120, Note_on_c, 4, 65, 0
6, 57420, Note_on_c, 4, 68, 127
6, 57470, Note_on_c, 4, 68, 0
6, 57480, Note_on_c, 4, 68, 127
6, 57530, Note_on_c, 4, 68, 0
6, 57540, Note_on_c, 4, 68, 127
6, 57590, Note_on_c, 4, 68, 0
6, 57600, Note_on_c, 4, 65, 127
6, 57890, Note_on_c, 4, 65, 0
6, 57900, Note_on_c, 4, 68, 127
6, 57950, Note_on_c, 4, 68, 0
6, 57960, Note_on_c, 4, 68, 127
6, 58010, Note_on_c, 4, 68, 0
6, 58020, Note_on_c, 4, 68, 127
6, 58070, Note_on_c, 4, 68, 0
6, 58080, Note_on_c, 4, 65, 127
6, 58370, Note_on_c, 4, 65, 0
6, 58380, Note_on_c, 4, 68, 127
6, 58430, Note_on_c, 4, 68, 0
6, 58440, Note_on_c, 4, 68, 127
6, 58490, Note_on_c, 4, 68, 0
6, 58500, Note_on_c, 4, 68, 127
6, 58550, Note_on_c, 4, 68, 0
6, 58560, Note_on_c, 4, 65, 127
6, 58670, Note_on_c, 4, 65, 0
6, 58680, Note_on_c, 4, 68, 127
6, 58790, Note_on_c, 4, 68, 0
6, 58800, Note_on_c, 4, 65, 127
6, 58910, Note_on_c, 4, 65, 0
6, 58920, Note_on_c, 4, 68, 127
6, 59030, Note_on_c, 4, 68, 0
6, 59040, Note_on_c, 4, 65, 127
6, 59150, Note_on_c, 4, 65, 0
6, 59160, Note_on_c, 4, 68, 127
6, 59270, Note_on_c, 4, 68, 0
6, 59280, Note_on_c, 4, 65, 127
6, 59330, Note_on_c, 4, 65, 0
6, 59340, Note_on_c, 4, 68, 127
6, 59390, Note_on_c, 4, 68, 0
6, 59400, Note_on_c, 4, 68, 127
6, 59450, Note_on_c, 4, 68, 0
6, 59460, Note_on_c, 4, 68, 127
6, 59510, Note_on_c, 4, 68, 0
6, 59520, Note_on_c, 4, 63, 127
6, 60240, Note_on_c, 4, 63, 0
6, 60300, Note_on_c, 4, 55, 127
6, 60300, Note_on_c, 4, 67, 127
6, 60350, Note_on_c, 4, 67, 0
6, 60350, Note_on_c, 4, 55, 0
6, 60360, Note_on_c, 4, 55, 127
6, 60360, Note_on_c, 4, 67, 127
6, 60410, Note_on_c, 4, 67, 0
6, 60410, Note_on_c, 4, 55, 0
6, 60420, Note_on_c, 4, 67, 127
6, 60420, Note_on_c, 4, 55, 127
6, 60470, Note_on_c, 4, 55, 0
6, 60470, Note_on_c, 4, 67, 0
6, 60480, Note_on_c, 4, 67, 127
6, 60480, Note_on_c, 4, 55, 127
6, 61440, Note_on_c, 4, 55, 0
6, 61440, Note_on_c, 4, 67, 0
6, 67440, Note_on_c, 4, 65, 62
6, 68150, Note_on_c, 4, 65, 0
6, 68160, Note_on_c, 4, 63, 100
6, 68280, Note_on_c, 4, 63, 0
6, 68460, Note_on_c, 4, 68, 100
6, 68460, Note_on_c, 4, 65, 100
6, 68510, Note_on_c, 4, 65, 0
6, 68510, Note_on_c, 4, 68, 0
6, 68520, Note_on_c, 4, 68, 100
6, 68520, Note_on_c, 4, 65, 100
6, 68570, Note_on_c, 4, 65, 0
6, 68570, Note_on_c, 4, 68, 0
6, 68580, Note_on_c, 4, 65, 100
6, 68580, Note_on_c, 4, 68, 100
6, 68630, Note_on_c, 4, 68, 0
6, 68630, Note_on_c, 4, 65, 0
6, 68640, Note_on_c, 4, 68, 100
6, 68640, Note_on_c, 4, 65, 100
6, 68760, Note_on_c, 4, 65, 0
6, 68760, Note_on_c, 4, 68, 0
6, 68940, Note_on_c, 4, 67, 100
6, 68940, Note_on_c, 4, 63, 100
6, 68990, Note_on_c, 4, 63, 0
6, 68990, Note_on_c, 4, 67, 0
6, 69000, Note_on_c, 4, 67, 100
6, 69000, Note_on_c, 4, 63, 100
6, 69050, Note_on_c, 4, 63, 0
6, 69050, Note_on_c, 4, 67, 0
6, 69060, Note_on_c, 4, 63, 100
6, 69060, Note_on_c, 4, 67, 100
6, 69110, Note_on_c, 4, 67, 0
6, 69110, Note_on_c, 4, 63, 0
6, 69120, Note_on_c, 4, 63, 100
6, 69120, Note_on_c, 4, 67, 100
6, 69240, Note_on_c, 4, 67, 0
6, 69240, Note_on_c, 4, 63, 0
6, 70560, Note_on_c, 4, 65, 100
6, 70560, Note_on_c, 4, 68, 100
6, 70680, Note_on_c, 4, 68, 0
6, 70680, Note_on_c, 4, 65, 0
6, 70800, Note_on_c, 4, 67, 100
6, 70800, Note_on_c, 4, 63, 100
6, 71750, Note_on_c, 4, 63, 0
6, 71750, Note_on_c, 4, 67, 0
6, 71760, Note_on_c, 4, 65, 100
6, 71760, Note_on_c, 4, 67, 100
6, 72590, Note_on_c, 4, 67, 0
6, 72590, Note_on_c, 4, 65, 0
6, 72600, Note_on_c, 4, 67, 100
6, 72600, Note_on_c, 4, 63, 100
6, 72710, Note_on_c, 4, 63, 0
6, 72710, Note_on_c, 4, 67, 0
6, 72720, Note_on_c, 4, 63, 127
6, 72720, Note_on_c, 4, 51, 127
6, 73670, Note_on_c, 4, 51, 0
6, 73670, Note_on_c, 4, 63, 0
6, 73680, Note_on_c, 4, 51, 127
6, 73680, Note_on_c, 4, 63, 127
6, 73800, Note_on_c, 4, 63, 0
6, 73800, Note_on_c, 4, 51, 0
6, 74160, Note_on_c, 4, 55, 127
6, 74160, Note_on_c, 4, 67, 127
6, 74280, Note_on_c, 4, 67, 0
6, 74280, Note_on_c, 4, 55, 0
6, 75120, Note_on_c, 4, 55, 127
6, 75360, Note_on_c, 4, 55, 0
6, 75360, Note_on_c, 4, 55, 50
6, 75840, Note_on_c, 4, 55, 0
6, 76080, Note_on_c, 4, 55, 50
6, 77040, Note_on_c, 4, 55, 0
6, 77040, Note_on_c, 4, 55, 50
6, 78000, Note_on_c, 4, 55, 0
6, 78000, Note_on_c, 4, 55, 50
6, 78960, Note_on_c, 4, 55, 0
6, 83880, Note_on_c, 4, 65, 109
6, 84000, Note_on_c, 4, 65, 0
6, 84120, Note_on_c, 4, 65, 114
6, 84240, Note_on_c, 4, 65, 0
6, 84360, Note_on_c, 4, 65, 119
6, 84480, Note_on_c, 4, 65, 0
6, 84600, Note_on_c, 4, 65, 124
6, 84710, Note_on_c, 4, 65, 0
6, 84720, Note_on_c, 4, 67, 127
6, 85070, Note_on_c, 4, 67, 0
6, 85080, Note_on_c, 4, 67, 127
6, 85190, Note_on_c, 4, 67, 0
6, 85200, Note_on_c, 4, 67, 127
6, 85320, Note_on_c, 4, 67, 0
6, 85440, Note_on_c, 4, 67, 127
6, 85440, Note_on_c, 4, 65, 127
6, 85560, Note_on_c, 4, 65, 0
6, 85560, Note_on_c, 4, 67, 0
6, 85680, Note_on_c, 4, 67, 127
6, 85800, Note_on_c, 4, 67, 0
6, 85920, Note_on_c, 4, 65, 127
6, 86040, Note_on_c, 4, 65, 0
6, 86160, Note_on_c, 4, 67, 127
6, 86280, Note_on_c, 4, 67, 0
6, 86400, Note_on_c, 4, 67, 127
6, 86520, Note_on_c, 4, 67, 0
6, 86640, Note_on_c, 4, 55, 127
6, 86640, Note_on_c, 4, 67, 127
6, 87110, Note_on_c, 4, 67, 0
6, 87110, Note_on_c, 4, 55, 0
6, 87120, Note_on_c, 4, 55, 127
6, 87120, Note_on_c, 4, 67, 127
6, 87230, Note_on_c, 4, 67, 0
6, 87230, Note_on_c, 4, 55, 0
6, 87240, Note_on_c, 4, 55, 127
6, 87240, Note_on_c, 4, 67, 127
6, 87360, Note_on_c, 4, 67, 0
6, 87360, Note_on_c, 4, 55, 0
6, 87480, Note_on_c, 4, 55, 127
6, 87480, Note_on_c, 4, 67, 127
6, 87600, Note_on_c, 4, 67, 0
6, 87600, Note_on_c, 4, 55, 0
6, 87720, Note_on_c, 4, 67, 127
6, 87720, Note_on_c, 4, 55, 127
6, 87840, Note_on_c, 4, 55, 0
6, 87840, Note_on_c, 4, 67, 0
6, 87960, Note_on_c, 4, 65, 127
6, 88080, Note_on_c, 4, 65, 0
6, 88200, Note_on_c, 4, 67, 127
6, 88320, Note_on_c, 4, 67, 0
6, 88440, Note_on_c, 4, 67, 127
6, 88550, Note_on_c, 4, 67, 0
6, 88560, Note_on_c, 4, 67, 127
6, 88680, Note_on_c, 4, 67, 0
6, 89340, Note_on_c, 4, 67, 127
6, 89390, Note_on_c, 4, 67, 0
6, 89400, Note_on_c, 4, 67, 127
6, 89450, Note_on_c, 4, 67, 0
6, 89460, Note_on_c, 4, 67, 127
6, 89510, Note_on_c, 4, 67, 0
6, 89520, Note_on_c, 4, 67, 127
6, 89640, Note_on_c, 4, 67, 0
6, 90300, Note_on_c, 4, 67, 127
6, 90350, Note_on_c, 4, 67, 0
6, 90360, Note_on_c, 4, 67, 127
6, 90410, Note_on_c, 4, 67, 0
6, 90420, Note_on_c, 4, 67, 127
6, 90470, Note_on_c, 4, 67, 0
6, 90480, Note_on_c, 4, 67, 127
6, 90600, Note_on_c, 4, 67, 0
6, 90780, Note_on_c, 4, 55, 127
6, 90780, Note_on_c, 4, 67, 127
6, 90830, Note_on_c, 4, 67, 0
6, 90830, Note_on_c, 4, 55, 0
6, 90840, Note_on_c, 4, 67, 127
6, 90840, Note_on_c, 4, 55, 127
6, 90890, Note_on_c, 4, 55, 0
6, 90890, Note_on_c, 4, 67, 0
6, 90900, Note_on_c, 4, 55, 127
6, 90900, Note_on_c, 4, 67, 127
6, 90950, Note_on_c, 4, 67, 0
6, 90950, Note_on_c, 4, 55, 0
6, 90960, Note_on_c, 4, 55, 127
6, 90960, Note_on_c, 4, 67, 127
6, 91080, Note_on_c, 4, 67, 0
6, 91080, Note_on_c, 4, 55, 0
6, 91260, Note_on_c, 4, 55, 127
6, 91260, Note_on_c, 4, 67, 127
6, 91310, Note_on_c, 4, 67, 0
6, 91310, Note_on_c, 4, 55, 0
6, 91320, Note_on_c, 4, 55, 127
6, 91320, Note_on_c, 4, 67, 127
6, 91370, Note_on_c, 4, 67, 0
6, 91370, Note_on_c, 4, 55, 0
6, 91380, Note_on_c, 4, 67, 127
6, 91380, Note_on_c, 4, 55, 127
6, 91430, Note_on_c, 4, 55, 0
6, 91430, Note_on_c, 4, 67, 0
6, 91440, Note_on_c, 4, 67, 127
6, 91560, Note_on_c, 4, 67, 0
6, 91920, Note_on_c, 4, 65, 127
6, 92040, Note_on_c, 4, 65, 0
6, 92400, Note_on_c, 4, 67, 127
6, 92520, Note_on_c, 4, 67, 0
6, 92880, Note_on_c, 4, 68, 127
6, 93000, Note_on_c, 4, 68, 0
6, 93360, Note_on_c, 4, 68, 127
6, 93360, Note_on_c, 4, 65, 127
6, 94310, Note_on_c, 4, 65, 0
6, 94310, Note_on_c, 4, 68, 0
6, 94320, Note_on_c, 4, 65, 127
6, 94320, Note_on_c, 4, 68, 127
6, 94440, Note_on_c, 4, 68, 0
6, 94440, Note_on_c, 4, 65, 0
6, 94620, Note_on_c, 4, 65, 50
6, 94670, Note_on_c, 4, 65, 0
6, 94680, Note_on_c, 4, 65, 50
6, 94730, Note_on_c, 4, 65, 0
6, 94740, Note_on_c, 4, 65, 50
6, 94790, Note_on_c, 4, 65, 0
6, 94800, Note_on_c, 4, 68, 50
6, 94920, Note_on_c, 4, 68, 0
6, 95340, Note_on_c, 4, 63, 127
6, 95390, Note_on_c, 4, 63, 0
6, 95400, Note_on_c, 4, 63, 127
6, 95450, Note_on_c, 4, 63, 0
6, 95460, Note_on_c, 4, 63, 127
6, 95510, Note_on_c, 4, 63, 0
6, 95520, Note_on_c, 4, 63, 127
6, 96470, Note_on_c, 4, 63, 0
6, 96480, Note_on_c, 4, 63, 127
6, 96600, Note_on_c, 4, 63, 0
6, 97920, Note_on_c, 4, 65, 100
6, 97920, Note_on_c, 4, 68, 100
6, 98270, Note_on_c, 4, 68, 0
6, 98280, Note_on_c, 4, 67, 100
6, 98400, Note_on_c, 4, 67, 0
6, 98400, Note_on_c, 4, 65, 0
6, 98880, Note_on_c, 4, 68, 100
6, 98880, Note_on_c, 4, 65, 100
6, 99230, Note_on_c, 4, 68, 0
6, 99240, Note_on_c, 4, 67, 100
6, 99360, Note_on_c, 4, 67, 0
6, 99360, Note_on_c, 4, 65, 0
6, 100800, Note_on_c, 4, 68, 100
6, 100910, Note_on_c, 4, 68, 0
6, 100920, Note_on_c, 4, 70, 100
6, 101030, Note_on_c, 4, 70, 0
6, 101040, Note_on_c, 4, 67, 100
6, 101150, Note_on_c, 4, 67, 0
6, 101160, Note_on_c, 4, 68, 100
6, 101270, Note_on_c, 4, 68, 0
6, 101280, Note_on_c, 4, 65, 100
6, 101400, Note_on_c, 4, 65, 0
6, 101640, Note_on_c, 4, 63, 100
6, 101750, Note_on_c, 4, 63, 0
6, 101760, Note_on_c, 4, 65, 100
6, 101880, Note_on_c, 4, 65, 0
6, 102120, Note_on_c, 4, 67, 102
6, 102230, Note_on_c, 4, 67, 0
6, 102240, Note_on_c, 4, 68, 105
6, 102350, Note_on_c, 4, 68, 0
6, 102360, Note_on_c, 4, 67, 108
6, 102470, Note_on_c, 4, 67, 0
6, 102480, Note_on_c, 4, 68, 110
6, 102590, Note_on_c, 4, 68, 0
6, 102600, Note_on_c, 4, 67, 113
6, 102720, Note_on_c, 4, 67, 0
6, 102840, Note_on_c, 4, 67, 118
6, 102950, Note_on_c, 4, 67, 0
6, 102960, Note_on_c, 4, 67, 121
6, 102960, Note_on_c, 4, 65, 121
6, 103070, Note_on_c, 4, 65, 0
6, 103070, Note_on_c, 4, 67, 0
6, 103080, Note_on_c, 4, 67, 124
6, 103080, Note_on_c, 4, 65, 124
6, 103190, Note_on_c, 4, 65, 0
6, 103190, Note_on_c, 4, 67, 0
6, 103200, Note_on_c, 4, 63, 127
6, 103670, Note_on_c, 4, 63, 0
6, 103680, Note_on_c, 4, 65, 127
6, 104150, Note_on_c, 4, 65, 0
6, 104160, Note_on_c, 4, 67, 127
6, 104630, Note_on_c, 4, 67, 0
6, 104640, Note_on_c, 4, 68, 127
6, 104870, Note_on_c, 4, 68, 0
6, 104880, Note_on_c, 4, 65, 127
6, 104990, Note_on_c, 4, 65, 0
6, 105000, Note_on_c, 4, 65, 127
6, 105110, Note_on_c, 4, 65, 0
6, 105120, Note_on_c, 4, 65, 127
6, 105350, Note_on_c, 4, 65, 0
6, 105360, Note_on_c, 4, 67, 127
6, 105590, Note_on_c, 4, 67, 0
6, 105600, Note_on_c, 4, 67, 127
6, 105690, Note_on_c, 4, 67, 0
6, 105840, Note_on_c, 4, 68, 127
6, 105930, Note_on_c, 4, 68, 0
6, 106080, Note_on_c, 4, 68, 127
6, 106080, Note_on_c, 4, 65, 127
6, 106170, Note_on_c, 4, 65, 0
6, 106170, Note_on_c, 4, 68, 0
6, 106320, Note_on_c, 4, 68, 127
6, 106320, Note_on_c, 4, 65, 127
6, 106410, Note_on_c, 4, 65, 0
6, 106410, Note_on_c, 4, 68, 0
6, 106560, Note_on_c, 4, 67, 127
6, 106650, Note_on_c, 4, 67, 0
6, 106800, Note_on_c, 4, 67, 127
6, 106890, Note_on_c, 4, 67, 0
6, 109200, Note_on_c, 4, 67, 127
6, 109310, Note_on_c, 4, 67, 0
6, 109320, Note_on_c, 4, 67, 127
6, 109430, Note_on_c, 4, 67, 0
6, 109440, Note_on_c, 4, 67, 127
6, 109680, Note_on_c, 4, 67, 0
6, 110160, Note_on_c, 4, 67, 127
6, 110270, Note_on_c, 4, 67, 0
6, 110280, Note_on_c, 4, 67, 127
6, 110390, Note_on_c, 4, 67, 0
6, 110400, Note_on_c, 4, 67, 127
6, 110630, Note_on_c, 4, 67, 0
6, 110640, Note_on_c, 4, 63, 127
6, 110750, Note_on_c, 4, 63, 0
6, 110760, Note_on_c, 4, 63, 127
6, 110870, Note_on_c, 4, 63, 0
6, 110880, Note_on_c, 4, 65, 127
6, 110990, Note_on_c, 4, 65, 0
6, 111000, Note_on_c, 4, 63, 127
6, 111000, Note_on_c, 4, 51, 127
6, 111120, Note_on_c, 4, 51, 0
6, 111120, Note_on_c, 4, 63, 0
6, 111360, Note_on_c, 4, 68, 127
6, 111360, Note_on_c, 4, 65, 127
6, 111480, Note_on_c, 4, 65, 0
6, 111480, Note_on_c, 4, 68, 0
6, 111480, Note_on_c, 4, 67, 127
6, 111480, Note_on_c, 4, 63, 127
6, 111590, Note_on_c, 4, 63, 0
6, 111590, Note_on_c, 4, 67, 0
6, 111600, Note_on_c, 4, 68, 127
6, 111600, Note_on_c, 4, 65, 127
6, 111720, Note_on_c, 4, 65, 0
6, 111720, Note_on_c, 4, 68, 0
6, 111720, Note_on_c, 4, 67, 127
6, 111720, Note_on_c, 4, 63, 127
6, 111840, Note_on_c, 4, 63, 0
6, 111840, Note_on_c, 4, 67, 0
6, 111960, Note_on_c, 4, 63, 127
6, 112080, Note_on_c, 4, 63, 0
6, 112200, Note_on_c, 4, 67, 127
6, 112320, Note_on_c, 4, 67, 0
6, 112800, Note_on_c, 4, 68, 127
6, 112800, Note_on_c, 4, 65, 127
6, 112920, Note_on_c, 4, 65, 0
6, 112920, Note_on_c, 4, 68, 0
6, 112920, Note_on_c, 4, 67, 127
6, 112920, Note_on_c, 4, 63, 127
6, 113030, Note_on_c, 4, 63, 0
6, 113030, Note_on_c, 4, 67, 0
6, 113040, Note_on_c, 4, 68, 127
6, 113040, Note_on_c, 4, 65, 127
6, 113160, Note_on_c, 4, 65, 0
6, 113160, Note_on_c, 4, 68, 0
6, 113160, Note_on_c, 4, 67, 127
6, 113160, Note_on_c, 4, 63, 127
6, 113270, Note_on_c, 4, 63, 0
6, 113270, Note_on_c, 4, 67, 0
6, 113280, Note_on_c, 4, 68, 127
6, 113280, Note_on_c, 4, 65, 127
6, 113400, Note_on_c, 4, 65, 0
6, 113400, Note_on_c, 4, 68, 0
6, 113400, Note_on_c, 4, 67, 127
6, 113400, Note_on_c, 4, 63, 127
6, 113510, Note_on_c, 4, 63, 0
6, 113510, Note_on_c, 4, 67, 0
6, 113520, Note_on_c, 4, 68, 127
6, 113520, Note_on_c, 4, 65, 127
6, 113640, Note_on_c, 4, 65, 0
6, 113640, Note_on_c, 4, 68, 0
6, 113640, Note_on_c, 4, 67, 127
6, 113640, Note_on_c, 4, 63, 127
6, 113760, Note_on_c, 4, 63, 0
6, 113760, Note_on_c, 4, 67, 0
6, 113880, Note_on_c, 4, 67, 127
6, 114000, Note_on_c, 4, 67, 0
6, 114120, Note_on_c, 4, 67, 127
6, 114230, Note_on_c, 4, 67, 0
6, 114240, Note_on_c, 4, 67, 127
6, 114240, Note_on_c, 4, 63, 127
6, 114360, Note_on_c, 4, 63, 0
6, 114360, Note_on_c, 4, 67, 0
6, 115320, Note_on_c, 4, 67, 127
6, 115320, Note_on_c, 4, 65, 127
6, 115430, Note_on_c, 4, 65, 0
6, 115430, Note_on_c, 4, 67, 0
6, 115440, Note_on_c, 4, 67, 127
6, 115440, Note_on_c, 4, 63, 127
6, 115550, Note_on_c, 4, 63, 0
6, 115550, Note_on_c, 4, 67, 0
6, 115560, Note_on_c, 4, 67, 127
6, 115560, Note_on_c, 4, 65, 127
6, 115670, Note_on_c, 4, 65, 0
6, 115670, Note_on_c, 4, 67, 0
6, 115680, Note_on_c, 4, 63, 127
6, 115800, Note_on_c, 4, 63, 0
6, 115980, Note_on_c, 4, 67, 127
6, 116030, Note_on_c, 4, 67, 0
6, 116040, Note_on_c, 4, 67, 127
6, 116090, Note_on_c, 4, 67, 0
6, 116100, Note_on_c, 4, 67, 127
6, 116150, Note_on_c, 4, 67, 0
6, 116160, Note_on_c, 4, 67, 127
6, 116210, Note_on_c, 4, 67, 0
6, 116220, Note_on_c, 4, 67, 127
6, 116270, Note_on_c, 4, 67, 0
6, 116280, Note_on_c, 4, 67, 127
6, 116330, Note_on_c, 4, 67, 0
6, 116340, Note_on_c, 4, 67, 127
6, 116390, Note_on_c, 4, 67, 0
6, 116400, Note_on_c, 4, 67, 127
6, 116450, Note_on_c, 4, 67, 0
6, 116460, Note_on_c, 4, 67, 127
6, 116510, Note_on_c, 4, 67, 0
6, 116520, Note_on_c, 4, 67, 127
6, 116570, Note_on_c, 4, 67, 0
6, 116580, Note_on_c, 4, 67, 127
6, 116630, Note_on_c, 4, 67, 0
6, 116640, Note_on_c, 4, 63, 127
6, 117360, Note_on_c, 4, 63, 0
6, 117420, Note_on_c, 4, 67, 127
6, 117470, Note_on_c, 4, 67, 0
6, 117480, Note_on_c, 4, 67, 127
6, 117530, Note_on_c, 4, 67, 0
6, 117540, Note_on_c, 4, 67, 127
6, 117590, Note_on_c, 4, 67, 0
6, 117600, Note_on_c, 4, 67, 127
6, 118560, Note_on_c, 4, 67, 0
6, 120540, Note_on_c, 4, 67, 100
6, 120590, Note_on_c, 4, 67, 0
6, 120600, Note_on_c, 4, 67, 100
6, 120650, Note_on_c, 4, 67, 0
6, 120660, Note_on_c, 4, 67, 100
6, 120710, Note_on_c, 4, 67, 0
6, 120720, Note_on_c, 4, 67, 100
6, 120840, Note_on_c, 4, 67, 0
6, 121020, Note_on_c, 4, 67, 100
6, 121070, Note_on_c, 4, 67, 0
6, 121080, Note_on_c, 4, 67, 100
6, 121130, Note_on_c, 4, 67, 0
6, 121140, Note_on_c, 4, 67, 100
6, 121190, Note_on_c, 4, 67, 0
6, 121200, Note_on_c, 4, 67, 100
6, 121320, Note_on_c, 4, 67, 0
6, 121500, Note_on_c, 4, 67, 101
6, 121550, Note_on_c, 4, 67, 0
6, 121560, Note_on_c, 4, 67, 102
6, 121610, Note_on_c, 4, 67, 0
6, 121620, Note_on_c, 4, 67, 104
6, 121670, Note_on_c, 4, 67, 0
6, 121680, Note_on_c, 4, 67, 105
6, 121790, Note_on_c, 4, 67, 0
6, 121800, Note_on_c, 4, 67, 108
6, 121910, Note_on_c, 4, 67, 0
6, 121920, Note_on_c, 4, 67, 110
6, 122030, Note_on_c, 4, 67, 0
6, 122040, Note_on_c, 4, 67, 113
6, 122150, Note_on_c, 4, 67, 0
6, 122160, Note_on_c, 4, 67, 116
6, 122270, Note_on_c, 4, 67, 0
6, 122280, Note_on_c, 4, 67, 118
6, 122390, Note_on_c, 4, 67, 0
6, 122400, Note_on_c, 4, 67, 121
6, 122510, Note_on_c, 4, 67, 0
6, 122520, Note_on_c, 4, 67, 124
6, 122630, Note_on_c, 4, 67, 0
6, 122640, Note_on_c, 4, 67, 127
6, 122760, Note_on_c, 4, 67, 0
6, 122880, Note_on_c, 4, 67, 127
6, 123000, Note_on_c, 4, 67, 0
6, 123120, Note_on_c, 4, 67, 127
6, 123240, Note_on_c, 4, 67, 0
6, 123240, End_track
7, 0, Start_track
7, 0, MIDI_port, 0
7, 0, Title_t, "Trombe C"
7, 0, Program_c, 5, 56
7, 0, Control_c, 5, 7, 127
7, 0, Control_c, 5, 10, 115
7, 4140, Note_on_c, 5, 55, 65
7, 4140, Note_on_c, 5, 67, 65
7, 4190, Note_on_c, 5, 67, 0
7, 4190, Note_on_c, 5, 55, 0
7, 4200, Note_on_c, 5, 67, 85
7, 4200, Note_on_c, 5, 55, 85
7, 4250, Note_on_c, 5, 55, 0
7, 4250, Note_on_c, 5, 67, 0
7, 4260, Note_on_c, 5, 67, 106
7, 4260, Note_on_c, 5, 55, 106
7, 4310, Note_on_c, 5, 55, 0
7, 4310, Note_on_c, 5, 67, 0
7, 4320, Note_on_c, 5, 72, 127
7, 4320, Note_on_c, 5, 60, 127
7, 4440, Note_on_c, 5, 60, 0
7, 4440, Note_on_c, 5, 72, 0
7, 4560, Note_on_c, 5, 60, 127
7, 4560, Note_on_c, 5, 72, 127
7, 4680, Note_on_c, 5, 72, 0
7, 4680, Note_on_c, 5, 60, 0
7, 4800, Note_on_c, 5, 55, 127
7, 4800, Note_on_c, 5, 67, 127
7, 4920, Note_on_c, 5, 67, 0
7, 4920, Note_on_c, 5, 55, 0
7, 10080, Note_on_c, 5, 60, 100
7, 10080, Note_on_c, 5, 72, 100
7, 10200, Note_on_c, 5, 72, 0
7, 10200, Note_on_c, 5, 60, 0
7, 10320, Note_on_c, 5, 60, 100
7, 10320, Note_on_c, 5, 72, 100
7, 10440, Note_on_c, 5, 72, 0
7, 10440, Note_on_c, 5, 60, 0
7, 11160, Note_on_c, 5, 72, 100
7, 11160, Note_on_c, 5, 60, 100
7, 11210, Note_on_c, 5, 60, 0
7, 11210, Note_on_c, 5, 72, 0
7, 11220, Note_on_c, 5, 60, 100
7, 11220, Note_on_c, 5, 72, 100
7, 11270, Note_on_c, 5, 72, 0
7, 11270, Note_on_c, 5, 60, 0
7, 11280, Note_on_c, 5, 55, 100
7, 11280, Note_on_c, 5, 67, 100
7, 11400, Note_on_c, 5, 67, 0
7, 11400, Note_on_c, 5, 55, 0
7, 12120, Note_on_c, 5, 72, 100
7, 12120, Note_on_c, 5, 60, 100
7, 12170, Note_on_c, 5, 60, 0
7, 12170, Note_on_c, 5, 72, 0
7, 12180, Note_on_c, 5, 60, 100
7, 12180, Note_on_c, 5, 72, 100
7, 12230, Note_on_c, 5, 72, 0
7, 12230, Note_on_c, 5, 60, 0
7, 12240, Note_on_c, 5, 72, 127
7, 12240, Note_on_c, 5, 60, 127
7, 13190, Note_on_c, 5, 60, 0
7, 13190, Note_on_c, 5, 72, 0
7, 13200, Note_on_c, 5, 60, 127
7, 13200, Note_on_c, 5, 72, 127
7, 13320, Note_on_c, 5, 72, 0
7, 13320, Note_on_c, 5, 60, 0
7, 22320, Note_on_c, 5, 77, 127
7, 22680, Note_on_c, 5, 77, 0
7, 23280, Note_on_c, 5, 67, 127
7, 23280, Note_on_c, 5, 55, 127
7, 23400, Note_on_c, 5, 55, 0
7, 23400, Note_on_c, 5, 67, 0
7, 23520, Note_on_c, 5, 60, 127
7, 23520, Note_on_c, 5, 72, 127
7, 23640, Note_on_c, 5, 72, 0
7, 23640, Note_on_c, 5, 60, 0
7, 24240, Note_on_c, 5, 77, 127
7, 24710, Note_on_c, 5, 77, 0
7, 24720, Note_on_c, 5, 79, 127
7, 24830, Note_on_c, 5, 79, 0
7, 24840, Note_on_c, 5, 67, 127
7, 24840, Note_on_c, 5, 79, 127
7, 24960, Note_on_c, 5, 79, 0
7, 24960, Note_on_c, 5, 67, 0
7, 25320, Note_on_c, 5, 67, 127
7, 25320, Note_on_c, 5, 55, 127
7, 25440, Note_on_c, 5, 55, 0
7, 25440, Note_on_c, 5, 67, 0
7, 25560, Note_on_c, 5, 72, 127
7, 25560, Note_on_c, 5, 60, 127
7, 25680, Note_on_c, 5, 60, 0
7, 25680, Note_on_c, 5, 72, 0
7, 37680, Note_on_c, 5, 55, 50
7, 37680, Note_on_c, 5, 67, 50
7, 37800, Note_on_c, 5, 67, 0
7, 37800, Note_on_c, 5, 55, 0
7, 38160, Note_on_c, 5, 60, 50
7, 38280, Note_on_c, 5, 60, 0
7, 38640, Note_on_c, 5, 60, 50
7, 38760, Note_on_c, 5, 60, 0
7, 39120, Note_on_c, 5, 55, 50
7, 39120, Note_on_c, 5, 67, 50
7, 39240, Note_on_c, 5, 67, 0
7, 39240, Note_on_c, 5, 55, 0
7, 39600, Note_on_c, 5, 55, 50
7, 39600, Note_on_c, 5, 67, 50
7, 39720, Note_on_c, 5, 67, 0
7, 39720, Note_on_c, 5, 55, 0
7, 40080, Note_on_c, 5, 60, 100
7, 40080, Note_on_c, 5, 72, 100
7, 40550, Note_on_c, 5, 72, 0
7, 40550, Note_on_c, 5, 60, 0
7, 40560, Note_on_c, 5, 72, 100
7, 40560, Note_on_c, 5, 60, 100
7, 40680, Note_on_c, 5, 60, 0
7, 40680, Note_on_c, 5, 72, 0
7, 40860, Note_on_c, 5, 76, 100
7, 40860, Note_on_c, 5, 64, 100
7, 40920, Note_on_c, 5, 64, 0
7, 40920, Note_on_c, 5, 76, 0
7, 40920, Note_on_c, 5, 64, 100
7, 40920, Note_on_c, 5, 76, 100
7, 40980, Note_on_c, 5, 76, 0
7, 40980, Note_on_c, 5, 64, 0
7, 40980, Note_on_c, 5, 76, 100
7, 40980, Note_on_c, 5, 64, 100
7, 41040, Note_on_c, 5, 64, 0
7, 41040, Note_on_c, 5, 76, 0
7, 41040, Note_on_c, 5, 76, 100
7, 41040, Note_on_c, 5, 64, 100
7, 41520, Note_on_c, 5, 64, 0
7, 41520, Note_on_c, 5, 76, 0
7, 41520, Note_on_c, 5, 64, 100
7, 41520, Note_on_c, 5, 76, 100
7, 41640, Note_on_c, 5, 76, 0
7, 41640, Note_on_c, 5, 64, 0
7, 41820, Note_on_c, 5, 67, 104
7, 41820, Note_on_c, 5, 79, 104
7, 41880, Note_on_c, 5, 79, 0
7, 41880, Note_on_c, 5, 67, 0
7, 41880, Note_on_c, 5, 79, 106
7, 41880, Note_on_c, 5, 67, 106
7, 41940, Note_on_c, 5, 67, 0
7, 41940, Note_on_c, 5, 79, 0
7, 41940, Note_on_c, 5, 67, 107
7, 41940, Note_on_c, 5, 79, 107
7, 42000, Note_on_c, 5, 79, 0
7, 42000, Note_on_c, 5, 67, 0
7, 42000, Note_on_c, 5, 67, 109
7, 42000, Note_on_c, 5, 79, 109
7, 42120, Note_on_c, 5, 79, 0
7, 42120, Note_on_c, 5, 67, 0
7, 42360, Note_on_c, 5, 79, 118
7, 42360, Note_on_c, 5, 67, 118
7, 42420, Note_on_c, 5, 67, 0
7, 42420, Note_on_c, 5, 79, 0
7, 42420, Note_on_c, 5, 67, 119
7, 42420, Note_on_c, 5, 79, 119
7, 42480, Note_on_c, 5, 79, 0
7, 42480, Note_on_c, 5, 67, 0
7, 42480, Note_on_c, 5, 79, 121
7, 42480, Note_on_c, 5, 67, 121
7, 42600, Note_on_c, 5, 67, 0
7, 42600, Note_on_c, 5, 79, 0
7, 42720, Note_on_c, 5, 74, 127
7, 42840, Note_on_c, 5, 74, 0
7, 43560, Note_on_c, 5, 60, 127
7, 43610, Note_on_c, 5, 60, 0
7, 43620, Note_on_c, 5, 60, 127
7, 43670, Note_on_c, 5, 60, 0
7, 43680, Note_on_c, 5, 60, 127
7, 43800, Note_on_c, 5, 60, 0
7, 44520, Note_on_c, 5, 74, 127
7, 44570, Note_on_c, 5, 74, 0
7, 44580, Note_on_c, 5, 74, 127
7, 44630, Note_on_c, 5, 74, 0
7, 44640, Note_on_c, 5, 67, 127
7, 44640, Note_on_c, 5, 74, 127
7, 44760, Note_on_c, 5, 74, 0
7, 44760, Note_on_c, 5, 67, 0
7, 46440, Note_on_c, 5, 55, 127
7, 46440, Note_on_c, 5, 67, 127
7, 46490, Note_on_c, 5, 67, 0
7, 46490, Note_on_c, 5, 55, 0
7, 46500, Note_on_c, 5, 55, 127
7, 46500, Note_on_c, 5, 67, 127
7, 46550, Note_on_c, 5, 67, 0
7, 46550, Note_on_c, 5, 55, 0
7, 46560, Note_on_c, 5, 60, 127
7, 46560, Note_on_c, 5, 72, 127
7, 46680, Note_on_c, 5, 72, 0
7, 46680, Note_on_c, 5, 60, 0
7, 46800, Note_on_c, 5, 60, 127
7, 47030, Note_on_c, 5, 60, 0
7, 47040, Note_on_c, 5, 60, 127
7, 47280, Note_on_c, 5, 60, 0
7, 47760, Note_on_c, 5, 60, 127
7, 47990, Note_on_c, 5, 60, 0
7, 48000, Note_on_c, 5, 60, 127
7, 48240, Note_on_c, 5, 60, 0
7, 54540, Note_on_c, 5, 74, 127
7, 54590, Note_on_c, 5, 74, 0
7, 54600, Note_on_c, 5, 74, 127
7, 54650, Note_on_c, 5, 74, 0
7, 54660, Note_on_c, 5, 74, 127
7, 54710, Note_on_c, 5, 74, 0
7, 54720, Note_on_c, 5, 74, 127
7, 54950, Note_on_c, 5, 74, 0
7, 54960, Note_on_c, 5, 74, 127
7, 55190, Note_on_c, 5, 74, 0
7, 55200, Note_on_c, 5, 74, 127
7, 55680, Note_on_c, 5, 74, 0
7, 59340, Note_on_c, 5, 67, 127
7, 59340, Note_on_c, 5, 79, 127
7, 59390, Note_on_c, 5, 79, 0
7, 59390, Note_on_c, 5, 67, 0
7, 59400, Note_on_c, 5, 67, 127
7, 59400, Note_on_c, 5, 79, 127
7, 59450, Note_on_c, 5, 79, 0
7, 59450, Note_on_c, 5, 67, 0
7, 59460, Note_on_c, 5, 79, 127
7, 59460, Note_on_c, 5, 67, 127
7, 59510, Note_on_c, 5, 67, 0
7, 59510, Note_on_c, 5, 79, 0
7, 59520, Note_on_c, 5, 79, 127
7, 59520, Note_on_c, 5, 67, 127
7, 60240, Note_on_c, 5, 67, 0
7, 60240, Note_on_c, 5, 79, 0
7, 60300, Note_on_c, 5, 79, 127
7, 60300, Note_on_c, 5, 67, 127
7, 60350, Note_on_c, 5, 67, 0
7, 60350, Note_on_c, 5, 79, 0
7, 60360, Note_on_c, 5, 67, 127
7, 60360, Note_on_c, 5, 79, 127
7, 60410, Note_on_c, 5, 79, 0
7, 60410, Note_on_c, 5, 67, 0
7, 60420, Note_on_c, 5, 79, 127
7, 60420, Note_on_c, 5, 67, 127
7, 60470, Note_on_c, 5, 67, 0
7, 60470, Note_on_c, 5, 79, 0
7, 60480, Note_on_c, 5, 67, 127
7, 60480, Note_on_c, 5, 79, 127
7, 61440, Note_on_c, 5, 79, 0
7, 61440, Note_on_c, 5, 67, 0
7, 64800, Note_on_c, 5, 60, 50
7, 64800, Note_on_c, 5, 72, 50
7, 64920, Note_on_c, 5, 72, 0
7, 64920, Note_on_c, 5, 60, 0
7, 65040, Note_on_c, 5, 67, 50
7, 65040, Note_on_c, 5, 55, 50
7, 65160, Note_on_c, 5, 55, 0
7, 65160, Note_on_c, 5, 67, 0
7, 68400, Note_on_c, 5, 72, 100
7, 68400, Note_on_c, 5, 60, 100
7, 68520, Note_on_c, 5, 60, 0
7, 68520, Note_on_c, 5, 72, 0
7, 68880, Note_on_c, 5, 60, 100
7, 68880, Note_on_c, 5, 72, 100
7, 69000, Note_on_c, 5, 72, 0
7, 69000, Note_on_c, 5, 60, 0
7, 70560, Note_on_c, 5, 60, 100
7, 70560, Note_on_c, 5, 72, 100
7, 70680, Note_on_c, 5, 72, 0
7, 70680, Note_on_c, 5, 60, 0
7, 70800, Note_on_c, 5, 60, 100
7, 70800, Note_on_c, 5, 72, 100
7, 70920, Note_on_c, 5, 72, 0
7, 70920, Note_on_c, 5, 60, 0
7, 71640, Note_on_c, 5, 60, 100
7, 71640, Note_on_c, 5, 72, 100
7, 71690, Note_on_c, 5, 72, 0
7, 71690, Note_on_c, 5, 60, 0
7, 71700, Note_on_c, 5, 72, 100
7, 71700, Note_on_c, 5, 60, 100
7, 71750, Note_on_c, 5, 60, 0
7, 71750, Note_on_c, 5, 72, 0
7, 71760, Note_on_c, 5, 67, 100
7, 71760, Note_on_c, 5, 55, 100
7, 71880, Note_on_c, 5, 55, 0
7, 71880, Note_on_c, 5, 67, 0
7, 72600, Note_on_c, 5, 60, 100
7, 72600, Note_on_c, 5, 72, 100
7, 72650, Note_on_c, 5, 72, 0
7, 72650, Note_on_c, 5, 60, 0
7, 72660, Note_on_c, 5, 72, 100
7, 72660, Note_on_c, 5, 60, 100
7, 72710, Note_on_c, 5, 60, 0
7, 72710, Note_on_c, 5, 72, 0
7, 72720, Note_on_c, 5, 72, 127
7, 72720, Note_on_c, 5, 60, 127
7, 73670, Note_on_c, 5, 60, 0
7, 73670, Note_on_c, 5, 72, 0
7, 73680, Note_on_c, 5, 72, 127
7, 73680, Note_on_c, 5, 60, 127
7, 73800, Note_on_c, 5, 60, 0
7, 73800, Note_on_c, 5, 72, 0
7, 74160, Note_on_c, 5, 67, 127
7, 74160, Note_on_c, 5, 55, 127
7, 74280, Note_on_c, 5, 55, 0
7, 74280, Note_on_c, 5, 67, 0
7, 84720, Note_on_c, 5, 74, 127
7, 84720, Note_on_c, 5, 67, 127
7, 85070, Note_on_c, 5, 67, 0
7, 85070, Note_on_c, 5, 74, 0
7, 85080, Note_on_c, 5, 74, 127
7, 85080, Note_on_c, 5, 67, 127
7, 85190, Note_on_c, 5, 67, 0
7, 85190, Note_on_c, 5, 74, 0
7, 85200, Note_on_c, 5, 72, 127
7, 85200, Note_on_c, 5, 64, 127
7, 85320, Note_on_c, 5, 64, 0
7, 85320, Note_on_c, 5, 72, 0
7, 85440, Note_on_c, 5, 55, 127
7, 85440, Note_on_c, 5, 67, 127
7, 85560, Note_on_c, 5, 67, 0
7, 85560, Note_on_c, 5, 55, 0
7, 85680, Note_on_c, 5, 72, 127
7, 85680, Note_on_c, 5, 60, 127
7, 85800, Note_on_c, 5, 60, 0
7, 85800, Note_on_c, 5, 72, 0
7, 85920, Note_on_c, 5, 60, 127
7, 85920, Note_on_c, 5, 72, 127
7, 86040, Note_on_c, 5, 72, 0
7, 86040, Note_on_c, 5, 60, 0
7, 86160, Note_on_c, 5, 60, 127
7, 86160, Note_on_c, 5, 72, 127
7, 86280, Note_on_c, 5, 72, 0
7, 86280, Note_on_c, 5, 60, 0
7, 86400, Note_on_c, 5, 67, 127
7, 86400, Note_on_c, 5, 55, 127
7, 86520, Note_on_c, 5, 55, 0
7, 86520, Note_on_c, 5, 67, 0
7, 86640, Note_on_c, 5, 74, 127
7, 86640, Note_on_c, 5, 67, 127
7, 87110, Note_on_c, 5, 67, 0
7, 87110, Note_on_c, 5, 74, 0
7, 87120, Note_on_c, 5, 72, 127
7, 87120, Note_on_c, 5, 76, 127
7, 87230, Note_on_c, 5, 76, 0
7, 87230, Note_on_c, 5, 72, 0
7, 87240, Note_on_c, 5, 60, 127
7, 87240, Note_on_c, 5, 72, 127
7, 87360, Note_on_c, 5, 72, 0
7, 87360, Note_on_c, 5, 60, 0
7, 87480, Note_on_c, 5, 67, 127
7, 87480, Note_on_c, 5, 55, 127
7, 87600, Note_on_c, 5, 55, 0
7, 87600, Note_on_c, 5, 67, 0
7, 87720, Note_on_c, 5, 72, 127
7, 87720, Note_on_c, 5, 60, 127
7, 87840, Note_on_c, 5, 60, 0
7, 87840, Note_on_c, 5, 72, 0
7, 87960, Note_on_c, 5, 72, 127
7, 87960, Note_on_c, 5, 60, 127
7, 88080, Note_on_c, 5, 60, 0
7, 88080, Note_on_c, 5, 72, 0
7, 88200, Note_on_c, 5, 72, 127
7, 88200, Note_on_c, 5, 76, 127
7, 88320, Note_on_c, 5, 76, 0
7, 88320, Note_on_c, 5, 72, 0
7, 88440, Note_on_c, 5, 74, 127
7, 88440, Note_on_c, 5, 67, 127
7, 88550, Note_on_c, 5, 67, 0
7, 88550, Note_on_c, 5, 74, 0
7, 88560, Note_on_c, 5, 72, 127
7, 88560, Note_on_c, 5, 64, 127
7, 88680, Note_on_c, 5, 64, 0
7, 88680, Note_on_c, 5, 72, 0
7, 89340, Note_on_c, 5, 55, 127
7, 89340, Note_on_c, 5, 67, 127
7, 89390, Note_on_c, 5, 67, 0
7, 89390, Note_on_c, 5, 55, 0
7, 89400, Note_on_c, 5, 55, 127
7, 89400, Note_on_c, 5, 67, 127
7, 89450, Note_on_c, 5, 67, 0
7, 89450, Note_on_c, 5, 55, 0
7, 89460, Note_on_c, 5, 55, 127
7, 89460, Note_on_c, 5, 67, 127
7, 89510, Note_on_c, 5, 67, 0
7, 89510, Note_on_c, 5, 55, 0
7, 89520, Note_on_c, 5, 60, 127
7, 89520, Note_on_c, 5, 72, 127
7, 89640, Note_on_c, 5, 72, 0
7, 89640, Note_on_c, 5, 60, 0
7, 90300, Note_on_c, 5, 67, 127
7, 90300, Note_on_c, 5, 55, 127
7, 90350, Note_on_c, 5, 55, 0
7, 90350, Note_on_c, 5, 67, 0
7, 90360, Note_on_c, 5, 55, 127
7, 90360, Note_on_c, 5, 67, 127
7, 90410, Note_on_c, 5, 67, 0
7, 90410, Note_on_c, 5, 55, 0
7, 90420, Note_on_c, 5, 55, 127
7, 90420, Note_on_c, 5, 67, 127
7, 90470, Note_on_c, 5, 67, 0
7, 90470, Note_on_c, 5, 55, 0
7, 90480, Note_on_c, 5, 72, 127
7, 90480, Note_on_c, 5, 60, 127
7, 90600, Note_on_c, 5, 60, 0
7, 90600, Note_on_c, 5, 72, 0
7, 90780, Note_on_c, 5, 55, 127
7, 90780, Note_on_c, 5, 67, 127
7, 90830, Note_on_c, 5, 67, 0
7, 90830, Note_on_c, 5, 55, 0
7, 90840, Note_on_c, 5, 67, 127
7, 90840, Note_on_c, 5, 55, 127
7, 90890, Note_on_c, 5, 55, 0
7, 90890, Note_on_c, 5, 67, 0
7, 90900, Note_on_c, 5, 55, 127
7, 90900, Note_on_c, 5, 67, 127
7, 90950, Note_on_c, 5, 67, 0
7, 90950, Note_on_c, 5, 55, 0
7, 90960, Note_on_c, 5, 72, 127
7, 90960, Note_on_c, 5, 60, 127
7, 91080, Note_on_c, 5, 60, 0
7, 91080, Note_on_c, 5, 72, 0
7, 91260, Note_on_c, 5, 55, 127
7, 91260, Note_on_c, 5, 67, 127
7, 91310, Note_on_c, 5, 67, 0
7, 91310, Note_on_c, 5, 55, 0
7, 91320, Note_on_c, 5, 67, 127
7, 91320, Note_on_c, 5, 55, 127
7, 91370, Note_on_c, 5, 55, 0
7, 91370, Note_on_c, 5, 67, 0
7, 91380, Note_on_c, 5, 55, 127
7, 91380, Note_on_c, 5, 67, 127
7, 91430, Note_on_c, 5, 67, 0
7, 91430, Note_on_c, 5, 55, 0
7, 91440, Note_on_c, 5, 72, 127
7, 91440, Note_on_c, 5, 60, 127
7, 91490, Note_on_c, 5, 60, 0
7, 91490, Note_on_c, 5, 72, 0
7, 91500, Note_on_c, 5, 60, 127
7, 91500, Note_on_c, 5, 72, 127
7, 91550, Note_on_c, 5, 72, 0
7, 91550, Note_on_c, 5, 60, 0
7, 91560, Note_on_c, 5, 60, 127
7, 91560, Note_on_c, 5, 72, 127
7, 91610, Note_on_c, 5, 72, 0
7, 91610, Note_on_c, 5, 60, 0
7, 91620, Note_on_c, 5, 72, 127
7, 91620, Note_on_c, 5, 60, 127
7, 91670, Note_on_c, 5, 60, 0
7, 91670, Note_on_c, 5, 72, 0
7, 91680, Note_on_c, 5, 72, 127
7, 91680, Note_on_c, 5, 60, 127
7, 91920, Note_on_c, 5, 60, 0
7, 91920, Note_on_c, 5, 72, 0
7, 91920, Note_on_c, 5, 60, 127
7, 91920, Note_on_c, 5, 72, 127
7, 91970, Note_on_c, 5, 72, 0
7, 91970, Note_on_c, 5, 60, 0
7, 91980, Note_on_c, 5, 72, 127
7, 91980, Note_on_c, 5, 60, 127
7, 92030, Note_on_c, 5, 60, 0
7, 92030, Note_on_c, 5, 72, 0
7, 92040, Note_on_c, 5, 72, 127
7, 92040, Note_on_c, 5, 60, 127
7, 92090, Note_on_c, 5, 60, 0
7, 92090, Note_on_c, 5, 72, 0
7, 92100, Note_on_c, 5, 60, 127
7, 92100, Note_on_c, 5, 72, 127
7, 92150, Note_on_c, 5, 72, 0
7, 92150, Note_on_c, 5, 60, 0
7, 92160, Note_on_c, 5, 72, 127
7, 92160, Note_on_c, 5, 60, 127
7, 92400, Note_on_c, 5, 60, 0
7, 92400, Note_on_c, 5, 72, 0
7, 92400, Note_on_c, 5, 60, 127
7, 92400, Note_on_c, 5, 72, 127
7, 92450, Note_on_c, 5, 72, 0
7, 92450, Note_on_c, 5, 60, 0
7, 92460, Note_on_c, 5, 60, 127
7, 92460, Note_on_c, 5, 72, 127
7, 92510, Note_on_c, 5, 72, 0
7, 92510, Note_on_c, 5, 60, 0
7, 92520, Note_on_c, 5, 60, 127
7, 92520, Note_on_c, 5, 72, 127
7, 92570, Note_on_c, 5, 72, 0
7, 92570, Note_on_c, 5, 60, 0
7, 92580, Note_on_c, 5, 72, 127
7, 92580, Note_on_c, 5, 60, 127
7, 92630, Note_on_c, 5, 60, 0
7, 92630, Note_on_c, 5, 72, 0
7, 92640, Note_on_c, 5, 60, 127
7, 92640, Note_on_c, 5, 72, 127
7, 92880, Note_on_c, 5, 72, 0
7, 92880, Note_on_c, 5, 60, 0
7, 92880, Note_on_c, 5, 72, 127
7, 92880, Note_on_c, 5, 60, 127
7, 92930, Note_on_c, 5, 60, 0
7, 92930, Note_on_c, 5, 72, 0
7, 92940, Note_on_c, 5, 72, 127
7, 92940, Note_on_c, 5, 60, 127
7, 92990, Note_on_c, 5, 60, 0
7, 92990, Note_on_c, 5, 72, 0
7, 93000, Note_on_c, 5, 60, 127
7, 93000, Note_on_c, 5, 72, 127
7, 93050, Note_on_c, 5, 72, 0
7, 93050, Note_on_c, 5, 60, 0
7, 93060, Note_on_c, 5, 72, 127
7, 93060, Note_on_c, 5, 60, 127
7, 93110, Note_on_c, 5, 60, 0
7, 93110, Note_on_c, 5, 72, 0
7, 93120, Note_on_c, 5, 60, 127
7, 93120, Note_on_c, 5, 72, 127
7, 93360, Note_on_c, 5, 72, 0
7, 93360, Note_on_c, 5, 60, 0
7, 95340, Note_on_c, 5, 60, 127
7, 95340, Note_on_c, 5, 72, 127
7, 95390, Note_on_c, 5, 72, 0
7, 95390, Note_on_c, 5, 60, 0
7, 95400, Note_on_c, 5, 60, 127
7, 95400, Note_on_c, 5, 72, 127
7, 95450, Note_on_c, 5, 72, 0
7, 95450, Note_on_c, 5, 60, 0
7, 95460, Note_on_c, 5, 60, 127
7, 95460, Note_on_c, 5, 72, 127
7, 95510, Note_on_c, 5, 72, 0
7, 95510, Note_on_c, 5, 60, 0
7, 95520, Note_on_c, 5, 72, 127
7, 95520, Note_on_c, 5, 60, 127
7, 96470, Note_on_c, 5, 60, 0
7, 96470, Note_on_c, 5, 72, 0
7, 96480, Note_on_c, 5, 60, 127
7, 96480, Note_on_c, 5, 72, 127
7, 96600, Note_on_c, 5, 72, 0
7, 96600, Note_on_c, 5, 60, 0
7, 96780, Note_on_c, 5, 72, 127
7, 96780, Note_on_c, 5, 60, 127
7, 96830, Note_on_c, 5, 60, 0
7, 96830, Note_on_c, 5, 72, 0
7, 96840, Note_on_c, 5, 60, 127
7, 96840, Note_on_c, 5, 72, 127
7, 96890, Note_on_c, 5, 72, 0
7, 96890, Note_on_c, 5, 60, 0
7, 96900, Note_on_c, 5, 60, 127
7, 96900, Note_on_c, 5, 72, 127
7, 96950, Note_on_c, 5, 72, 0
7, 96950, Note_on_c, 5, 60, 0
7, 96960, Note_on_c, 5, 60, 127
7, 96960, Note_on_c, 5, 72, 127
7, 97080, Note_on_c, 5, 72, 0
7, 97080, Note_on_c, 5, 60, 0
7, 97440, Note_on_c, 5, 55, 100
7, 97440, Note_on_c, 5, 67, 100
7, 97560, Note_on_c, 5, 67, 0
7, 97560, Note_on_c, 5, 55, 0
7, 98400, Note_on_c, 5, 55, 100
7, 98400, Note_on_c, 5, 67, 100
7, 98520, Note_on_c, 5, 67, 0
7, 98520, Note_on_c, 5, 55, 0
7, 101400, Note_on_c, 5, 55, 100
7, 101400, Note_on_c, 5, 67, 100
7, 101510, Note_on_c, 5, 67, 0
7, 101510, Note_on_c, 5, 55, 0
7, 101520, Note_on_c, 5, 67, 100
7, 101520, Note_on_c, 5, 55, 100
7, 101630, Note_on_c, 5, 55, 0
7, 101630, Note_on_c, 5, 67, 0
7, 101640, Note_on_c, 5, 67, 100
7, 101640, Note_on_c, 5, 55, 100
7, 101750, Note_on_c, 5, 55, 0
7, 101750, Note_on_c, 5, 67, 0
7, 101760, Note_on_c, 5, 67, 100
7, 101760, Note_on_c, 5, 55, 100
7, 101870, Note_on_c, 5, 55, 0
7, 101870, Note_on_c, 5, 67, 0
7, 101880, Note_on_c, 5, 67, 100
7, 101880, Note_on_c, 5, 55, 100
7, 101990, Note_on_c, 5, 55, 0
7, 101990, Note_on_c, 5, 67, 0
7, 102000, Note_on_c, 5, 67, 100
7, 102000, Note_on_c, 5, 55, 100
7, 102110, Note_on_c, 5, 55, 0
7, 102110, Note_on_c, 5, 67, 0
7, 102120, Note_on_c, 5, 60, 102
7, 102120, Note_on_c, 5, 72, 102
7, 102230, Note_on_c, 5, 72, 0
7, 102230, Note_on_c, 5, 60, 0
7, 102240, Note_on_c, 5, 72, 105
7, 102240, Note_on_c, 5, 60, 105
7, 102350, Note_on_c, 5, 60, 0
7, 102350, Note_on_c, 5, 72, 0
7, 102360, Note_on_c, 5, 60, 108
7, 102360, Note_on_c, 5, 72, 108
7, 102470, Note_on_c, 5, 72, 0
7, 102470, Note_on_c, 5, 60, 0
7, 102480, Note_on_c, 5, 60, 110
7, 102480, Note_on_c, 5, 72, 110
7, 102590, Note_on_c, 5, 72, 0
7, 102590, Note_on_c, 5, 60, 0
7, 102600, Note_on_c, 5, 55, 113
7, 102600, Note_on_c, 5, 67, 113
7, 102710, Note_on_c, 5, 67, 0
7, 102710, Note_on_c, 5, 55, 0
7, 102720, Note_on_c, 5, 55, 116
7, 102720, Note_on_c, 5, 67, 116
7, 102830, Note_on_c, 5, 67, 0
7, 102830, Note_on_c, 5, 55, 0
7, 102840, Note_on_c, 5, 67, 118
7, 102840, Note_on_c, 5, 55, 118
7, 102950, Note_on_c, 5, 55, 0
7, 102950, Note_on_c, 5, 67, 0
7, 102960, Note_on_c, 5, 55, 121
7, 102960, Note_on_c, 5, 67, 121
7, 103070, Note_on_c, 5, 67, 0
7, 103070, Note_on_c, 5, 55, 0
7, 103080, Note_on_c, 5, 55, 124
7, 103080, Note_on_c, 5, 67, 124
7, 103190, Note_on_c, 5, 67, 0
7, 103190, Note_on_c, 5, 55, 0
7, 103200, Note_on_c, 5, 60, 127
7, 103200, Note_on_c, 5, 72, 127
7, 103670, Note_on_c, 5, 72, 0
7, 103670, Note_on_c, 5, 60, 0
7, 103680, Note_on_c, 5, 72, 127
7, 103680, Note_on_c, 5, 60, 127
7, 104150, Note_on_c, 5, 60, 0
7, 104150, Note_on_c, 5, 72, 0
7, 104160, Note_on_c, 5, 72, 127
7, 104160, Note_on_c, 5, 60, 127
7, 104630, Note_on_c, 5, 60, 0
7, 104630, Note_on_c, 5, 72, 0
7, 104640, Note_on_c, 5, 60, 127
7, 104640, Note_on_c, 5, 72, 127
7, 105110, Note_on_c, 5, 72, 0
7, 105110, Note_on_c, 5, 60, 0
7, 105120, Note_on_c, 5, 55, 127
7, 105120, Note_on_c, 5, 67, 127
7, 105350, Note_on_c, 5, 67, 0
7, 105350, Note_on_c, 5, 55, 0
7, 105360, Note_on_c, 5, 55, 127
7, 105360, Note_on_c, 5, 67, 127
7, 105590, Note_on_c, 5, 67, 0
7, 105590, Note_on_c, 5, 55, 0
7, 105600, Note_on_c, 5, 72, 127
7, 105600, Note_on_c, 5, 60, 127
7, 105690, Note_on_c, 5, 60, 0
7, 105690, Note_on_c, 5, 72, 0
7, 105840, Note_on_c, 5, 60, 127
7, 105840, Note_on_c, 5, 72, 127
7, 105930, Note_on_c, 5, 72, 0
7, 105930, Note_on_c, 5, 60, 0
7, 106080, Note_on_c, 5, 72, 127
7, 106080, Note_on_c, 5, 60, 127
7, 106170, Note_on_c, 5, 60, 0
7, 106170, Note_on_c, 5, 72, 0
7, 106320, Note_on_c, 5, 60, 127
7, 106320, Note_on_c, 5, 72, 127
7, 106410, Note_on_c, 5, 72, 0
7, 106410, Note_on_c, 5, 60, 0
7, 106560, Note_on_c, 5, 55, 127
7, 106560, Note_on_c, 5, 67, 127
7, 106650, Note_on_c, 5, 67, 0
7, 106650, Note_on_c, 5, 55, 0
7, 106800, Note_on_c, 5, 55, 127
7, 106800, Note_on_c, 5, 67, 127
7, 106890, Note_on_c, 5, 67, 0
7, 106890, Note_on_c, 5, 55, 0
7, 107040, Note_on_c, 5, 60, 127
7, 107040, Note_on_c, 5, 72, 127
7, 107270, Note_on_c, 5, 72, 0
7, 107270, Note_on_c, 5, 60, 0
7, 107280, Note_on_c, 5, 60, 127
7, 107280, Note_on_c, 5, 72, 127
7, 107390, Note_on_c, 5, 72, 0
7, 107390, Note_on_c, 5, 60, 0
7, 107400, Note_on_c, 5, 60, 127
7, 107400, Note_on_c, 5, 72, 127
7, 107510, Note_on_c, 5, 72, 0
7, 107510, Note_on_c, 5, 60, 0
7, 107520, Note_on_c, 5, 72, 127
7, 107520, Note_on_c, 5, 60, 127
7, 107750, Note_on_c, 5, 60, 0
7, 107750, Note_on_c, 5, 72, 0
7, 107760, Note_on_c, 5, 60, 127
7, 107760, Note_on_c, 5, 72, 127
7, 107870, Note_on_c, 5, 72, 0
7, 107870, Note_on_c, 5, 60, 0
7, 107880, Note_on_c, 5, 60, 127
7, 107880, Note_on_c, 5, 72, 127
7, 107990, Note_on_c, 5, 72, 0
7, 107990, Note_on_c, 5, 60, 0
7, 108000, Note_on_c, 5, 60, 127
7, 108000, Note_on_c, 5, 72, 127
7, 108230, Note_on_c, 5, 72, 0
7, 108230, Note_on_c, 5, 60, 0
7, 108240, Note_on_c, 5, 60, 127
7, 108240, Note_on_c, 5, 72, 127
7, 108350, Note_on_c, 5, 72, 0
7, 108350, Note_on_c, 5, 60, 0
7, 108360, Note_on_c, 5, 72, 127
7, 108360, Note_on_c, 5, 60, 127
7, 108470, Note_on_c, 5, 60, 0
7, 108470, Note_on_c, 5, 72, 0
7, 108480, Note_on_c, 5, 60, 127
7, 108480, Note_on_c, 5, 72, 127
7, 108710, Note_on_c, 5, 72, 0
7, 108710, Note_on_c, 5, 60, 0
7, 108720, Note_on_c, 5, 67, 127
7, 108720, Note_on_c, 5, 55, 127
7, 108830, Note_on_c, 5, 55, 0
7, 108830, Note_on_c, 5, 67, 0
7, 108840, Note_on_c, 5, 67, 127
7, 108840, Note_on_c, 5, 55, 127
7, 108950, Note_on_c, 5, 55, 0
7, 108950, Note_on_c, 5, 67, 0
7, 108960, Note_on_c, 5, 67, 127
7, 108960, Note_on_c, 5, 55, 127
7, 109190, Note_on_c, 5, 55, 0
7, 109190, Note_on_c, 5, 67, 0
7, 109200, Note_on_c, 5, 55, 127
7, 109200, Note_on_c, 5, 67, 127
7, 109310, Note_on_c, 5, 67, 0
7, 109310, Note_on_c, 5, 55, 0
7, 109320, Note_on_c, 5, 55, 127
7, 109320, Note_on_c, 5, 67, 127
7, 109430, Note_on_c, 5, 67, 0
7, 109430, Note_on_c, 5, 55, 0
7, 109440, Note_on_c, 5, 67, 127
7, 109440, Note_on_c, 5, 55, 127
7, 109670, Note_on_c, 5, 55, 0
7, 109670, Note_on_c, 5, 67, 0
7, 109680, Note_on_c, 5, 67, 127
7, 109680, Note_on_c, 5, 55, 127
7, 109790, Note_on_c, 5, 55, 0
7, 109790, Note_on_c, 5, 67, 0
7, 109800, Note_on_c, 5, 67, 127
7, 109800, Note_on_c, 5, 55, 127
7, 109910, Note_on_c, 5, 55, 0
7, 109910, Note_on_c, 5, 67, 0
7, 109920, Note_on_c, 5, 55, 127
7, 109920, Note_on_c, 5, 67, 127
7, 110150, Note_on_c, 5, 67, 0
7, 110150, Note_on_c, 5, 55, 0
7, 110160, Note_on_c, 5, 67, 127
7, 110160, Note_on_c, 5, 55, 127
7, 110270, Note_on_c, 5, 55, 0
7, 110270, Note_on_c, 5, 67, 0
7, 110280, Note_on_c, 5, 55, 127
7, 110280, Note_on_c, 5, 67, 127
7, 110390, Note_on_c, 5, 67, 0
7, 110390, Note_on_c, 5, 55, 0
7, 110400, Note_on_c, 5, 60, 127
7, 110400, Note_on_c, 5, 67, 127
7, 110520, Note_on_c, 5, 67, 0
7, 110520, Note_on_c, 5, 60, 0
7, 111120, Note_on_c, 5, 60, 127
7, 111120, Note_on_c, 5, 72, 127
7, 111230, Note_on_c, 5, 72, 0
7, 111230, Note_on_c, 5, 60, 0
7, 111240, Note_on_c, 5, 72, 127
7, 111240, Note_on_c, 5, 60, 127
7, 111360, Note_on_c, 5, 60, 0
7, 111360, Note_on_c, 5, 72, 0
7, 111600, Note_on_c, 5, 72, 127
7, 111600, Note_on_c, 5, 60, 127
7, 111710, Note_on_c, 5, 60, 0
7, 111710, Note_on_c, 5, 72, 0
7, 111720, Note_on_c, 5, 72, 127
7, 111720, Note_on_c, 5, 60, 127
7, 111840, Note_on_c, 5, 60, 0
7, 111840, Note_on_c, 5, 72, 0
7, 111960, Note_on_c, 5, 67, 127
7, 111960, Note_on_c, 5, 55, 127
7, 112080, Note_on_c, 5, 55, 0
7, 112080, Note_on_c, 5, 67, 0
7, 112200, Note_on_c, 5, 55, 127
7, 112200, Note_on_c, 5, 67, 127
7, 112320, Note_on_c, 5, 67, 0
7, 112320, Note_on_c, 5, 55, 0
7, 112800, Note_on_c, 5, 60, 127
7, 112800, Note_on_c, 5, 72, 127
7, 112910, Note_on_c, 5, 72, 0
7, 112910, Note_on_c, 5, 60, 0
7, 112920, Note_on_c, 5, 60, 127
7, 112920, Note_on_c, 5, 72, 127
7, 113030, Note_on_c, 5, 72, 0
7, 113030, Note_on_c, 5, 60, 0
7, 113040, Note_on_c, 5, 72, 127
7, 113040, Note_on_c, 5, 60, 127
7, 113150, Note_on_c, 5, 60, 0
7, 113150, Note_on_c, 5, 72, 0
7, 113160, Note_on_c, 5, 60, 127
7, 113160, Note_on_c, 5, 72, 127
7, 113270, Note_on_c, 5, 72, 0
7, 113270, Note_on_c, 5, 60, 0
7, 113280, Note_on_c, 5, 60, 127
7, 113280, Note_on_c, 5, 72, 127
7, 113390, Note_on_c, 5, 72, 0
7, 113390, Note_on_c, 5, 60, 0
7, 113400, Note_on_c, 5, 72, 127
7, 113400, Note_on_c, 5, 60, 127
7, 113510, Note_on_c, 5, 60, 0
7, 113510, Note_on_c, 5, 72, 0
7, 113520, Note_on_c, 5, 60, 127
7, 113520, Note_on_c, 5, 72, 127
7, 113630, Note_on_c, 5, 72, 0
7, 113630, Note_on_c, 5, 60, 0
7, 113640, Note_on_c, 5, 60, 127
7, 113640, Note_on_c, 5, 72, 127
7, 113760, Note_on_c, 5, 72, 0
7, 113760, Note_on_c, 5, 60, 0
7, 113880, Note_on_c, 5, 67, 127
7, 113880, Note_on_c, 5, 55, 127
7, 114000, Note_on_c, 5, 55, 0
7, 114000, Note_on_c, 5, 67, 0
7, 114120, Note_on_c, 5, 55, 127
7, 114120, Note_on_c, 5, 67, 127
7, 114230, Note_on_c, 5, 67, 0
7, 114230, Note_on_c, 5, 55, 0
7, 114240, Note_on_c, 5, 60, 127
7, 114240, Note_on_c, 5, 72, 127
7, 114360, Note_on_c, 5, 72, 0
7, 114360, Note_on_c, 5, 60, 0
7, 115500, Note_on_c, 5, 55, 127
7, 115500, Note_on_c, 5, 67, 127
7, 115550, Note_on_c, 5, 67, 0
7, 115550, Note_on_c, 5, 55, 0
7, 115560, Note_on_c, 5, 55, 127
7, 115560, Note_on_c, 5, 67, 127
7, 115610, Note_on_c, 5, 67, 0
7, 115610, Note_on_c, 5, 55, 0
7, 115620, Note_on_c, 5, 67, 127
7, 115620, Note_on_c, 5, 55, 127
7, 115670, Note_on_c, 5, 55, 0
7, 115670, Note_on_c, 5, 67, 0
7, 115680, Note_on_c, 5, 72, 127
7, 115680, Note_on_c, 5, 60, 127
7, 115800, Note_on_c, 5, 60, 0
7, 115800, Note_on_c, 5, 72, 0
7, 116460, Note_on_c, 5, 55, 127
7, 116460, Note_on_c, 5, 67, 127
7, 116510, Note_on_c, 5, 67, 0
7, 116510, Note_on_c, 5, 55, 0
7, 116520, Note_on_c, 5, 55, 127
7, 116520, Note_on_c, 5, 67, 127
7, 116570, Note_on_c, 5, 67, 0
7, 116570, Note_on_c, 5, 55, 0
7, 116580, Note_on_c, 5, 67, 127
7, 116580, Note_on_c, 5, 55, 127
7, 116630, Note_on_c, 5, 55, 0
7, 116630, Note_on_c, 5, 67, 0
7, 116640, Note_on_c, 5, 67, 127
7, 116640, Note_on_c, 5, 55, 127
7, 117360, Note_on_c, 5, 55, 0
7, 117360, Note_on_c, 5, 67, 0
7, 117420, Note_on_c, 5, 55, 127
7, 117420, Note_on_c, 5, 67, 127
7, 117470, Note_on_c, 5, 67, 0
7, 117470, Note_on_c, 5, 55, 0
7, 117480, Note_on_c, 5, 55, 127
7, 117480, Note_on_c, 5, 67, 127
7, 117530, Note_on_c, 5, 67, 0
7, 117530, Note_on_c, 5, 55, 0
7, 117540, Note_on_c, 5, 55, 127
7, 117540, Note_on_c, 5, 67, 127
7, 117590, Note_on_c, 5, 67, 0
7, 117590, Note_on_c, 5, 55, 0
7, 117600, Note_on_c, 5, 55, 127
7, 117600, Note_on_c, 5, 67, 127
7, 118560, Note_on_c, 5, 67, 0
7, 118560, Note_on_c, 5, 55, 0
7, 120540, Note_on_c, 5, 67, 100
7, 120540, Note_on_c, 5, 55, 100
7, 120590, Note_on_c, 5, 55, 0
7, 120590, Note_on_c, 5, 67, 0
7, 120600, Note_on_c, 5, 67, 100
7, 120600, Note_on_c, 5, 55, 100
7, 120650, Note_on_c, 5, 55, 0
7, 120650, Note_on_c, 5, 67, 0
7, 120660, Note_on_c, 5, 67, 100
7, 120660, Note_on_c, 5, 55, 100
7, 120710, Note_on_c, 5, 55, 0
7, 120710, Note_on_c, 5, 67, 0
7, 120720, Note_on_c, 5, 60, 100
7, 120720, Note_on_c, 5, 72, 100
7, 120840, Note_on_c, 5, 72, 0
7, 120840, Note_on_c, 5, 60, 0
7, 121020, Note_on_c, 5, 55, 100
7, 121020, Note_on_c, 5, 67, 100
7, 121070, Note_on_c, 5, 67, 0
7, 121070, Note_on_c, 5, 55, 0
7, 121080, Note_on_c, 5, 55, 100
7, 121080, Note_on_c, 5, 67, 100
7, 121130, Note_on_c, 5, 67, 0
7, 121130, Note_on_c, 5, 55, 0
7, 121140, Note_on_c, 5, 67, 100
7, 121140, Note_on_c, 5, 55, 100
7, 121190, Note_on_c, 5, 55, 0
7, 121190, Note_on_c, 5, 67, 0
7, 121200, Note_on_c, 5, 60, 100
7, 121200, Note_on_c, 5, 72, 100
7, 121320, Note_on_c, 5, 72, 0
7, 121320, Note_on_c, 5, 60, 0
7, 121500, Note_on_c, 5, 67, 101
7, 121500, Note_on_c, 5, 55, 101
7, 121550, Note_on_c, 5, 55, 0
7, 121550, Note_on_c, 5, 67, 0
7, 121560, Note_on_c, 5, 55, 102
7, 121560, Note_on_c, 5, 67, 102
7, 121610, Note_on_c, 5, 67, 0
7, 121610, Note_on_c, 5, 55, 0
7, 121620, Note_on_c, 5, 55, 104
7, 121620, Note_on_c, 5, 67, 104
7, 121670, Note_on_c, 5, 67, 0
7, 121670, Note_on_c, 5, 55, 0
7, 121680, Note_on_c, 5, 72, 105
7, 121680, Note_on_c, 5, 60, 105
7, 121790, Note_on_c, 5, 60, 0
7, 121790, Note_on_c, 5, 72, 0
7, 121800, Note_on_c, 5, 55, 108
7, 121800, Note_on_c, 5, 67, 108
7, 121910, Note_on_c, 5, 67, 0
7, 121910, Note_on_c, 5, 55, 0
7, 121920, Note_on_c, 5, 72, 110
7, 121920, Note_on_c, 5, 60, 110
7, 122030, Note_on_c, 5, 60, 0
7, 122030, Note_on_c, 5, 72, 0
7, 122040, Note_on_c, 5, 55, 113
7, 122040, Note_on_c, 5, 67, 113
7, 122150, Note_on_c, 5, 67, 0
7, 122150, Note_on_c, 5, 55, 0
7, 122160, Note_on_c, 5, 72, 116
7, 122160, Note_on_c, 5, 60, 116
7, 122270, Note_on_c, 5, 60, 0
7, 122270, Note_on_c, 5, 72, 0
7, 122280, Note_on_c, 5, 55, 118
7, 122280, Note_on_c, 5, 67, 118
7, 122390, Note_on_c, 5, 67, 0
7, 122390, Note_on_c, 5, 55, 0
7, 122400, Note_on_c, 5, 60, 121
7, 122400, Note_on_c, 5, 72, 121
7, 122510, Note_on_c, 5, 72, 0
7, 122510, Note_on_c, 5, 60, 0
7, 122520, Note_on_c, 5, 67, 124
7, 122520, Note_on_c, 5, 55, 124
7, 122630, Note_on_c, 5, 55, 0
7, 122630, Note_on_c, 5, 67, 0
7, 122640, Note_on_c, 5, 72, 127
7, 122640, Note_on_c, 5, 60, 127
7, 122760, Note_on_c, 5, 60, 0
7, 122760, Note_on_c, 5, 72, 0
7, 122880, Note_on_c, 5, 67, 127
7, 122880, Note_on_c, 5, 55, 127
7, 123000, Note_on_c, 5, 55, 0
7, 123000, Note_on_c, 5, 67, 0
7, 123120, Note_on_c, 5, 60, 127
7, 123240, Note_on_c, 5, 60, 0
7, 123240, End_track
8, 0, Start_track
8, 0, MIDI_port, 0
8, 0, Title_t, "Timpani"
8, 0, Program_c, 6, 47
8, 0, Control_c, 6, 7, 127
8, 0, Control_c, 6, 10, 64
8, 4140, Note_on_c, 6, 43, 65
8, 4200, Note_on_c, 6, 43, 0
8, 4200, Note_on_c, 6, 43, 85
8, 4260, Note_on_c, 6, 43, 0
8, 4260, Note_on_c, 6, 43, 106
8, 4320, Note_on_c, 6, 43, 0
8, 4320, Note_on_c, 6, 48, 127
8, 4440, Note_on_c, 6, 48, 0
8, 4560, Note_on_c, 6, 48, 127
8, 4680, Note_on_c, 6, 48, 0
8, 4800, Note_on_c, 6, 43, 127
8, 4920, Note_on_c, 6, 43, 0
8, 10080, Note_on_c, 6, 48, 100
8, 10200, Note_on_c, 6, 48, 0
8, 10320, Note_on_c, 6, 48, 100
8, 10440, Note_on_c, 6, 48, 0
8, 11160, Note_on_c, 6, 48, 100
8, 11220, Note_on_c, 6, 48, 0
8, 11220, Note_on_c, 6, 48, 100
8, 11280, Note_on_c, 6, 48, 0
8, 11280, Note_on_c, 6, 43, 100
8, 11400, Note_on_c, 6, 43, 0
8, 12120, Note_on_c, 6, 48, 100
8, 12180, Note_on_c, 6, 48, 0
8, 12180, Note_on_c, 6, 48, 100
8, 12240, Note_on_c, 6, 48, 0
8, 12240, Note_on_c, 6, 48, 127
8, 12300, Note_on_c, 6, 48, 0
8, 12300, Note_on_c, 6, 48, 127
8, 12360, Note_on_c, 6, 48, 0
8, 12360, Note_on_c, 6, 48, 127
8, 12420, Note_on_c, 6, 48, 0
8, 12420, Note_on_c, 6, 48, 127
8, 12480, Note_on_c, 6, 48, 0
8, 12480, Note_on_c, 6, 48, 127
8, 12540, Note_on_c, 6, 48, 0
8, 12540, Note_on_c, 6, 48, 127
8, 12600, Note_on_c, 6, 48, 0
8, 12600, Note_on_c, 6, 48, 127
8, 12660, Note_on_c, 6, 48, 0
8, 12660, Note_on_c, 6, 48, 127
8, 12720, Note_on_c, 6, 48, 0
8, 12720, Note_on_c, 6, 48, 127
8, 12780, Note_on_c, 6, 48, 0
8, 12780, Note_on_c, 6, 48, 127
8, 12840, Note_on_c, 6, 48, 0
8, 12840, Note_on_c, 6, 48, 127
8, 12900, Note_on_c, 6, 48, 0
8, 12900, Note_on_c, 6, 48, 127
8, 12960, Note_on_c, 6, 48, 0
8, 12960, Note_on_c, 6, 48, 127
8, 13020, Note_on_c, 6, 48, 0
8, 13020, Note_on_c, 6, 48, 127
8, 13080, Note_on_c, 6, 48, 0
8, 13080, Note_on_c, 6, 48, 127
8, 13140, Note_on_c, 6, 48, 0
8, 13140, Note_on_c, 6, 48, 127
8, 13200, Note_on_c, 6, 48, 0
8, 13200, Note_on_c, 6, 48, 127
8, 13320, Note_on_c, 6, 48, 0
8, 23280, Note_on_c, 6, 43, 127
8, 23400, Note_on_c, 6, 43, 0
8, 23520, Note_on_c, 6, 48, 127
8, 23640, Note_on_c, 6, 48, 0
8, 24840, Note_on_c, 6, 43, 127
8, 24960, Note_on_c, 6, 43, 0
8, 25320, Note_on_c, 6, 43, 127
8, 25440, Note_on_c, 6, 43, 0
8, 25560, Note_on_c, 6, 48, 127
8, 25680, Note_on_c, 6, 48, 0
8, 37680, Note_on_c, 6, 43, 50
8, 37800, Note_on_c, 6, 43, 0
8, 38160, Note_on_c, 6, 48, 50
8, 38280, Note_on_c, 6, 48, 0
8, 38640, Note_on_c, 6, 48, 50
8, 38760, Note_on_c, 6, 48, 0
8, 39120, Note_on_c, 6, 43, 50
8, 39240, Note_on_c, 6, 43, 0
8, 39600, Note_on_c, 6, 43, 50
8, 39720, Note_on_c, 6, 43, 0
8, 40080, Note_on_c, 6, 48, 100
8, 40140, Note_on_c, 6, 48, 0
8, 40140, Note_on_c, 6, 48, 100
8, 40200, Note_on_c, 6, 48, 0
8, 40200, Note_on_c, 6, 48, 100
8, 40260, Note_on_c, 6, 48, 0
8, 40260, Note_on_c, 6, 48, 100
8, 40320, Note_on_c, 6, 48, 0
8, 40320, Note_on_c, 6, 48, 100
8, 40380, Note_on_c, 6, 48, 0
8, 40380, Note_on_c, 6, 48, 100
8, 40440, Note_on_c, 6, 48, 0
8, 40440, Note_on_c, 6, 48, 100
8, 40500, Note_on_c, 6, 48, 0
8, 40500, Note_on_c, 6, 48, 100
8, 40560, Note_on_c, 6, 48, 0
8, 40560, Note_on_c, 6, 48, 100
8, 40680, Note_on_c, 6, 48, 0
8, 40860, Note_on_c, 6, 43, 100
8, 40920, Note_on_c, 6, 43, 0
8, 40920, Note_on_c, 6, 43, 100
8, 40980, Note_on_c, 6, 43, 0
8, 40980, Note_on_c, 6, 43, 100
8, 41040, Note_on_c, 6, 43, 0
8, 41040, Note_on_c, 6, 43, 100
8, 41100, Note_on_c, 6, 43, 0
8, 41100, Note_on_c, 6, 43, 100
8, 41160, Note_on_c, 6, 43, 0
8, 41160, Note_on_c, 6, 43, 100
8, 41220, Note_on_c, 6, 43, 0
8, 41220, Note_on_c, 6, 43, 100
8, 41280, Note_on_c, 6, 43, 0
8, 41280, Note_on_c, 6, 43, 100
8, 41340, Note_on_c, 6, 43, 0
8, 41340, Note_on_c, 6, 43, 100
8, 41400, Note_on_c, 6, 43, 0
8, 41400, Note_on_c, 6, 43, 100
8, 41460, Note_on_c, 6, 43, 0
8, 41460, Note_on_c, 6, 43, 100
8, 41520, Note_on_c, 6, 43, 0
8, 41520, Note_on_c, 6, 43, 100
8, 41640, Note_on_c, 6, 43, 0
8, 41820, Note_on_c, 6, 43, 104
8, 41880, Note_on_c, 6, 43, 0
8, 41880, Note_on_c, 6, 43, 106
8, 41940, Note_on_c, 6, 43, 0
8, 41940, Note_on_c, 6, 43, 107
8, 42000, Note_on_c, 6, 43, 0
8, 42000, Note_on_c, 6, 43, 109
8, 42120, Note_on_c, 6, 43, 0
8, 42360, Note_on_c, 6, 43, 118
8, 42420, Note_on_c, 6, 43, 0
8, 42420, Note_on_c, 6, 43, 119
8, 42480, Note_on_c, 6, 43, 0
8, 42480, Note_on_c, 6, 43, 121
8, 42600, Note_on_c, 6, 43, 0
8, 44640, Note_on_c, 6, 43, 127
8, 44760, Note_on_c, 6, 43, 0
8, 46440, Note_on_c, 6, 43, 127
8, 46500, Note_on_c, 6, 43, 0
8, 46500, Note_on_c, 6, 43, 127
8, 46560, Note_on_c, 6, 43, 0
8, 46560, Note_on_c, 6, 48, 127
8, 46680, Note_on_c, 6, 48, 0
8, 59340, Note_on_c, 6, 43, 127
8, 59400, Note_on_c, 6, 43, 0
8, 59400, Note_on_c, 6, 43, 127
8, 59460, Note_on_c, 6, 43, 0
8, 59460, Note_on_c, 6, 43, 127
8, 59520, Note_on_c, 6, 43, 0
8, 59520, Note_on_c, 6, 43, 127
8, 59550, Note_on_c, 6, 43, 0
8, 59550, Note_on_c, 6, 43, 127
8, 59580, Note_on_c, 6, 43, 0
8, 59580, Note_on_c, 6, 43, 127
8, 59610, Note_on_c, 6, 43, 0
8, 59610, Note_on_c, 6, 43, 127
8, 59640, Note_on_c, 6, 43, 0
8, 59640, Note_on_c, 6, 43, 127
8, 59670, Note_on_c, 6, 43, 0
8, 59670, Note_on_c, 6, 43, 127
8, 59700, Note_on_c, 6, 43, 0
8, 59700, Note_on_c, 6, 43, 127
8, 59730, Note_on_c, 6, 43, 0
8, 59730, Note_on_c, 6, 43, 127
8, 59760, Note_on_c, 6, 43, 0
8, 59760, Note_on_c, 6, 43, 127
8, 59790, Note_on_c, 6, 43, 0
8, 59790, Note_on_c, 6, 43, 127
8, 59820, Note_on_c, 6, 43, 0
8, 59820, Note_on_c, 6, 43, 127
8, 59850, Note_on_c, 6, 43, 0
8, 59850, Note_on_c, 6, 43, 127
8, 59880, Note_on_c, 6, 43, 0
8, 59880, Note_on_c, 6, 43, 127
8, 59910, Note_on_c, 6, 43, 0
8, 59910, Note_on_c, 6, 43, 127
8, 59940, Note_on_c, 6, 43, 0
8, 59940, Note_on_c, 6, 43, 127
8, 59970, Note_on_c, 6, 43, 0
8, 59970, Note_on_c, 6, 43, 127
8, 60000, Note_on_c, 6, 43, 0
8, 60000, Note_on_c, 6, 43, 127
8, 60030, Note_on_c, 6, 43, 0
8, 60030, Note_on_c, 6, 43, 127
8, 60060, Note_on_c, 6, 43, 0
8, 60060, Note_on_c, 6, 43, 127
8, 60090, Note_on_c, 6, 43, 0
8, 60090, Note_on_c, 6, 43, 127
8, 60120, Note_on_c, 6, 43, 0
8, 60120, Note_on_c, 6, 43, 127
8, 60150, Note_on_c, 6, 43, 0
8, 60150, Note_on_c, 6, 43, 127
8, 60180, Note_on_c, 6, 43, 0
8, 60180, Note_on_c, 6, 43, 127
8, 60210, Note_on_c, 6, 43, 0
8, 60210, Note_on_c, 6, 43, 127
8, 60240, Note_on_c, 6, 43, 0
8, 60300, Note_on_c, 6, 43, 127
8, 60360, Note_on_c, 6, 43, 0
8, 60360, Note_on_c, 6, 43, 127
8, 60420, Note_on_c, 6, 43, 0
8, 60420, Note_on_c, 6, 43, 127
8, 60480, Note_on_c, 6, 43, 0
8, 60480, Note_on_c, 6, 43, 127
8, 60510, Note_on_c, 6, 43, 0
8, 60510, Note_on_c, 6, 43, 127
8, 60540, Note_on_c, 6, 43, 0
8, 60540, Note_on_c, 6, 43, 127
8, 60570, Note_on_c, 6, 43, 0
8, 60570, Note_on_c, 6, 43, 127
8, 60600, Note_on_c, 6, 43, 0
8, 60600, Note_on_c, 6, 43, 127
8, 60630, Note_on_c, 6, 43, 0
8, 60630, Note_on_c, 6, 43, 127
8, 60660, Note_on_c, 6, 43, 0
8, 60660, Note_on_c, 6, 43, 127
8, 60690, Note_on_c, 6, 43, 0
8, 60690, Note_on_c, 6, 43, 127
8, 60720, Note_on_c, 6, 43, 0
8, 60720, Note_on_c, 6, 43, 127
8, 60750, Note_on_c, 6, 43, 0
8, 60750, Note_on_c, 6, 43, 127
8, 60780, Note_on_c, 6, 43, 0
8, 60780, Note_on_c, 6, 43, 127
8, 60810, Note_on_c, 6, 43, 0
8, 60810, Note_on_c, 6, 43, 127
8, 60840, Note_on_c, 6, 43, 0
8, 60840, Note_on_c, 6, 43, 127
8, 60870, Note_on_c, 6, 43, 0
8, 60870, Note_on_c, 6, 43, 127
8, 60900, Note_on_c, 6, 43, 0
8, 60900, Note_on_c, 6, 43, 127
8, 60930, Note_on_c, 6, 43, 0
8, 60930, Note_on_c, 6, 43, 127
8, 60960, Note_on_c, 6, 43, 0
8, 60960, Note_on_c, 6, 43, 127
8, 60990, Note_on_c, 6, 43, 0
8, 60990, Note_on_c, 6, 43, 127
8, 61020, Note_on_c, 6, 43, 0
8, 61020, Note_on_c, 6, 43, 127
8, 61050, Note_on_c, 6, 43, 0
8, 61050, Note_on_c, 6, 43, 127
8, 61080, Note_on_c, 6, 43, 0
8, 61080, Note_on_c, 6, 43, 127
8, 61110, Note_on_c, 6, 43, 0
8, 61110, Note_on_c, 6, 43, 127
8, 61140, Note_on_c, 6, 43, 0
8, 61140, Note_on_c, 6, 43, 127
8, 61170, Note_on_c, 6, 43, 0
8, 61170, Note_on_c, 6, 43, 127
8, 61200, Note_on_c, 6, 43, 0
8, 61200, Note_on_c, 6, 43, 127
8, 61230, Note_on_c, 6, 43, 0
8, 61230, Note_on_c, 6, 43, 127
8, 61260, Note_on_c, 6, 43, 0
8, 61260, Note_on_c, 6, 43, 127
8, 61290, Note_on_c, 6, 43, 0
8, 61290, Note_on_c, 6, 43, 127
8, 61320, Note_on_c, 6, 43, 0
8, 61320, Note_on_c, 6, 43, 127
8, 61350, Note_on_c, 6, 43, 0
8, 61350, Note_on_c, 6, 43, 127
8, 61380, Note_on_c, 6, 43, 0
8, 61380, Note_on_c, 6, 43, 127
8, 61410, Note_on_c, 6, 43, 0
8, 61410, Note_on_c, 6, 43, 127
8, 61440, Note_on_c, 6, 43, 0
8, 64920, Note_on_c, 6, 48, 50
8, 65040, Note_on_c, 6, 48, 0
8, 65040, Note_on_c, 6, 43, 50
8, 65160, Note_on_c, 6, 43, 0
8, 68400, Note_on_c, 6, 48, 100
8, 68520, Note_on_c, 6, 48, 0
8, 68880, Note_on_c, 6, 48, 100
8, 69000, Note_on_c, 6, 48, 0
8, 70560, Note_on_c, 6, 48, 100
8, 70680, Note_on_c, 6, 48, 0
8, 70800, Note_on_c, 6, 48, 100
8, 70920, Note_on_c, 6, 48, 0
8, 71640, Note_on_c, 6, 48, 100
8, 71700, Note_on_c, 6, 48, 0
8, 71700, Note_on_c, 6, 48, 100
8, 71760, Note_on_c, 6, 48, 0
8, 71760, Note_on_c, 6, 43, 100
8, 71880, Note_on_c, 6, 43, 0
8, 72600, Note_on_c, 6, 48, 100
8, 72660, Note_on_c, 6, 48, 0
8, 72660, Note_on_c, 6, 48, 100
8, 72720, Note_on_c, 6, 48, 0
8, 72720, Note_on_c, 6, 48, 127
8, 72780, Note_on_c, 6, 48, 0
8, 72780, Note_on_c, 6, 48, 127
8, 72840, Note_on_c, 6, 48, 0
8, 72840, Note_on_c, 6, 48, 127
8, 72900, Note_on_c, 6, 48, 0
8, 72900, Note_on_c, 6, 48, 127
8, 72960, Note_on_c, 6, 48, 0
8, 72960, Note_on_c, 6, 48, 127
8, 73020, Note_on_c, 6, 48, 0
8, 73020, Note_on_c, 6, 48, 127
8, 73080, Note_on_c, 6, 48, 0
8, 73080, Note_on_c, 6, 48, 127
8, 73140, Note_on_c, 6, 48, 0
8, 73140, Note_on_c, 6, 48, 127
8, 73200, Note_on_c, 6, 48, 0
8, 73200, Note_on_c, 6, 48, 127
8, 73260, Note_on_c, 6, 48, 0
8, 73260, Note_on_c, 6, 48, 127
8, 73320, Note_on_c, 6, 48, 0
8, 73320, Note_on_c, 6, 48, 127
8, 73380, Note_on_c, 6, 48, 0
8, 73380, Note_on_c, 6, 48, 127
8, 73440, Note_on_c, 6, 48, 0
8, 73440, Note_on_c, 6, 48, 127
8, 73500, Note_on_c, 6, 48, 0
8, 73500, Note_on_c, 6, 48, 127
8, 73560, Note_on_c, 6, 48, 0
8, 73560, Note_on_c, 6, 48, 127
8, 73620, Note_on_c, 6, 48, 0
8, 73620, Note_on_c, 6, 48, 127
8, 73680, Note_on_c, 6, 48, 0
8, 73680, Note_on_c, 6, 48, 127
8, 73800, Note_on_c, 6, 48, 0
8, 74160, Note_on_c, 6, 43, 127
8, 74280, Note_on_c, 6, 43, 0
8, 76860, Note_on_c, 6, 43, 50
8, 76920, Note_on_c, 6, 43, 0
8, 76920, Note_on_c, 6, 43, 50
8, 76980, Note_on_c, 6, 43, 0
8, 76980, Note_on_c, 6, 43, 50
8, 77040, Note_on_c, 6, 43, 0
8, 77040, Note_on_c, 6, 48, 50
8, 77160, Note_on_c, 6, 48, 0
8, 78780, Note_on_c, 6, 43, 50
8, 78840, Note_on_c, 6, 43, 0
8, 78840, Note_on_c, 6, 43, 50
8, 78900, Note_on_c, 6, 43, 0
8, 78900, Note_on_c, 6, 43, 50
8, 78960, Note_on_c, 6, 43, 0
8, 78960, Note_on_c, 6, 48, 50
8, 79080, Note_on_c, 6, 48, 0
8, 84720, Note_on_c, 6, 43, 127
8, 84750, Note_on_c, 6, 43, 0
8, 84750, Note_on_c, 6, 43, 127
8, 84780, Note_on_c, 6, 43, 0
8, 84780, Note_on_c, 6, 43, 127
8, 84810, Note_on_c, 6, 43, 0
8, 84810, Note_on_c, 6, 43, 127
8, 84840, Note_on_c, 6, 43, 0
8, 84840, Note_on_c, 6, 43, 127
8, 84870, Note_on_c, 6, 43, 0
8, 84870, Note_on_c, 6, 43, 127
8, 84900, Note_on_c, 6, 43, 0
8, 84900, Note_on_c, 6, 43, 127
8, 84930, Note_on_c, 6, 43, 0
8, 84930, Note_on_c, 6, 43, 127
8, 84960, Note_on_c, 6, 43, 0
8, 84960, Note_on_c, 6, 43, 127
8, 84990, Note_on_c, 6, 43, 0
8, 84990, Note_on_c, 6, 43, 127
8, 85020, Note_on_c, 6, 43, 0
8, 85020, Note_on_c, 6, 43, 127
8, 85050, Note_on_c, 6, 43, 0
8, 85050, Note_on_c, 6, 43, 127
8, 85080, Note_on_c, 6, 43, 0
8, 85080, Note_on_c, 6, 43, 127
8, 85200, Note_on_c, 6, 43, 0
8, 85200, Note_on_c, 6, 48, 127
8, 85320, Note_on_c, 6, 48, 0
8, 85440, Note_on_c, 6, 43, 127
8, 85560, Note_on_c, 6, 43, 0
8, 85680, Note_on_c, 6, 48, 127
8, 85800, Note_on_c, 6, 48, 0
8, 85920, Note_on_c, 6, 48, 127
8, 86040, Note_on_c, 6, 48, 0
8, 86160, Note_on_c, 6, 43, 127
8, 86280, Note_on_c, 6, 43, 0
8, 86400, Note_on_c, 6, 43, 127
8, 86520, Note_on_c, 6, 43, 0
8, 86640, Note_on_c, 6, 43, 127
8, 86670, Note_on_c, 6, 43, 0
8, 86670, Note_on_c, 6, 43, 127
8, 86700, Note_on_c, 6, 43, 0
8, 86700, Note_on_c, 6, 43, 127
8, 86730, Note_on_c, 6, 43, 0
8, 86730, Note_on_c, 6, 43, 127
8, 86760, Note_on_c, 6, 43, 0
8, 86760, Note_on_c, 6, 43, 127
8, 86790, Note_on_c, 6, 43, 0
8, 86790, Note_on_c, 6, 43, 127
8, 86820, Note_on_c, 6, 43, 0
8, 86820, Note_on_c, 6, 43, 127
8, 86850, Note_on_c, 6, 43, 0
8, 86850, Note_on_c, 6, 43, 127
8, 86880, Note_on_c, 6, 43, 0
8, 86880, Note_on_c, 6, 43, 127
8, 86910, Note_on_c, 6, 43, 0
8, 86910, Note_on_c, 6, 43, 127
8, 86940, Note_on_c, 6, 43, 0
8, 86940, Note_on_c, 6, 43, 127
8, 86970, Note_on_c, 6, 43, 0
8, 86970, Note_on_c, 6, 43, 127
8, 87000, Note_on_c, 6, 43, 0
8, 87000, Note_on_c, 6, 43, 127
8, 87030, Note_on_c, 6, 43, 0
8, 87030, Note_on_c, 6, 43, 127
8, 87060, Note_on_c, 6, 43, 0
8, 87060, Note_on_c, 6, 43, 127
8, 87090, Note_on_c, 6, 43, 0
8, 87090, Note_on_c, 6, 43, 127
8, 87120, Note_on_c, 6, 43, 0
8, 87120, Note_on_c, 6, 48, 127
8, 87240, Note_on_c, 6, 48, 0
8, 87240, Note_on_c, 6, 48, 127
8, 87360, Note_on_c, 6, 48, 0
8, 87480, Note_on_c, 6, 43, 127
8, 87600, Note_on_c, 6, 43, 0
8, 87720, Note_on_c, 6, 48, 127
8, 87840, Note_on_c, 6, 48, 0
8, 87960, Note_on_c, 6, 48, 127
8, 88080, Note_on_c, 6, 48, 0
8, 88200, Note_on_c, 6, 43, 127
8, 88320, Note_on_c, 6, 43, 0
8, 88440, Note_on_c, 6, 43, 127
8, 88560, Note_on_c, 6, 43, 0
8, 88560, Note_on_c, 6, 48, 127
8, 88680, Note_on_c, 6, 48, 0
8, 89340, Note_on_c, 6, 43, 127
8, 89400, Note_on_c, 6, 43, 0
8, 89400, Note_on_c, 6, 43, 127
8, 89460, Note_on_c, 6, 43, 0
8, 89460, Note_on_c, 6, 43, 127
8, 89520, Note_on_c, 6, 43, 0
8, 89520, Note_on_c, 6, 48, 127
8, 89640, Note_on_c, 6, 48, 0
8, 90300, Note_on_c, 6, 43, 127
8, 90360, Note_on_c, 6, 43, 0
8, 90360, Note_on_c, 6, 43, 127
8, 90420, Note_on_c, 6, 43, 0
8, 90420, Note_on_c, 6, 43, 127
8, 90480, Note_on_c, 6, 43, 0
8, 90480, Note_on_c, 6, 48, 127
8, 90600, Note_on_c, 6, 48, 0
8, 90780, Note_on_c, 6, 43, 127
8, 90840, Note_on_c, 6, 43, 0
8, 90840, Note_on_c, 6, 43, 127
8, 90900, Note_on_c, 6, 43, 0
8, 90900, Note_on_c, 6, 43, 127
8, 90960, Note_on_c, 6, 43, 0
8, 90960, Note_on_c, 6, 48, 127
8, 91080, Note_on_c, 6, 48, 0
8, 91260, Note_on_c, 6, 43, 127
8, 91320, Note_on_c, 6, 43, 0
8, 91320, Note_on_c, 6, 43, 127
8, 91380, Note_on_c, 6, 43, 0
8, 91380, Note_on_c, 6, 43, 127
8, 91440, Note_on_c, 6, 43, 0
8, 91440, Note_on_c, 6, 48, 127
8, 91500, Note_on_c, 6, 48, 0
8, 91500, Note_on_c, 6, 48, 127
8, 91560, Note_on_c, 6, 48, 0
8, 91560, Note_on_c, 6, 48, 127
8, 91620, Note_on_c, 6, 48, 0
8, 91620, Note_on_c, 6, 48, 127
8, 91680, Note_on_c, 6, 48, 0
8, 91680, Note_on_c, 6, 48, 127
8, 91800, Note_on_c, 6, 48, 0
8, 91980, Note_on_c, 6, 48, 127
8, 92040, Note_on_c, 6, 48, 0
8, 92040, Note_on_c, 6, 48, 127
8, 92100, Note_on_c, 6, 48, 0
8, 92100, Note_on_c, 6, 48, 127
8, 92160, Note_on_c, 6, 48, 0
8, 92160, Note_on_c, 6, 48, 127
8, 92280, Note_on_c, 6, 48, 0
8, 92460, Note_on_c, 6, 48, 127
8, 92520, Note_on_c, 6, 48, 0
8, 92520, Note_on_c, 6, 48, 127
8, 92580, Note_on_c, 6, 48, 0
8, 92580, Note_on_c, 6, 48, 127
8, 92640, Note_on_c, 6, 48, 0
8, 92640, Note_on_c, 6, 48, 127
8, 92760, Note_on_c, 6, 48, 0
8, 92940, Note_on_c, 6, 48, 127
8, 93000, Note_on_c, 6, 48, 0
8, 93000, Note_on_c, 6, 48, 127
8, 93060, Note_on_c, 6, 48, 0
8, 93060, Note_on_c, 6, 48, 127
8, 93120, Note_on_c, 6, 48, 0
8, 93120, Note_on_c, 6, 48, 127
8, 93240, Note_on_c, 6, 48, 0
8, 95340, Note_on_c, 6, 48, 127
8, 95400, Note_on_c, 6, 48, 0
8, 95400, Note_on_c, 6, 48, 127
8, 95460, Note_on_c, 6, 48, 0
8, 95460, Note_on_c, 6, 48, 127
8, 95520, Note_on_c, 6, 48, 0
8, 95520, Note_on_c, 6, 48, 127
8, 95580, Note_on_c, 6, 48, 0
8, 95580, Note_on_c, 6, 48, 127
8, 95640, Note_on_c, 6, 48, 0
8, 95640, Note_on_c, 6, 48, 127
8, 95700, Note_on_c, 6, 48, 0
8, 95700, Note_on_c, 6, 48, 127
8, 95760, Note_on_c, 6, 48, 0
8, 95760, Note_on_c, 6, 48, 127
8, 95820, Note_on_c, 6, 48, 0
8, 95820, Note_on_c, 6, 48, 127
8, 95880, Note_on_c, 6, 48, 0
8, 95880, Note_on_c, 6, 48, 127
8, 95940, Note_on_c, 6, 48, 0
8, 95940, Note_on_c, 6, 48, 127
8, 96000, Note_on_c, 6, 48, 0
8, 96000, Note_on_c, 6, 48, 127
8, 96060, Note_on_c, 6, 48, 0
8, 96060, Note_on_c, 6, 48, 127
8, 96120, Note_on_c, 6, 48, 0
8, 96120, Note_on_c, 6, 48, 127
8, 96180, Note_on_c, 6, 48, 0
8, 96180, Note_on_c, 6, 48, 127
8, 96240, Note_on_c, 6, 48, 0
8, 96240, Note_on_c, 6, 48, 127
8, 96300, Note_on_c, 6, 48, 0
8, 96300, Note_on_c, 6, 48, 127
8, 96360, Note_on_c, 6, 48, 0
8, 96360, Note_on_c, 6, 48, 127
8, 96420, Note_on_c, 6, 48, 0
8, 96420, Note_on_c, 6, 48, 127
8, 96480, Note_on_c, 6, 48, 0
8, 96480, Note_on_c, 6, 48, 127
8, 96600, Note_on_c, 6, 48, 0
8, 96780, Note_on_c, 6, 48, 127
8, 96840, Note_on_c, 6, 48, 0
8, 96840, Note_on_c, 6, 48, 127
8, 96900, Note_on_c, 6, 48, 0
8, 96900, Note_on_c, 6, 48, 127
8, 96960, Note_on_c, 6, 48, 0
8, 96960, Note_on_c, 6, 48, 127
8, 97080, Note_on_c, 6, 48, 0
8, 97440, Note_on_c, 6, 43, 100
8, 97560, Note_on_c, 6, 43, 0
8, 98400, Note_on_c, 6, 43, 100
8, 98520, Note_on_c, 6, 43, 0
8, 101400, Note_on_c, 6, 43, 100
8, 101520, Note_on_c, 6, 43, 0
8, 101520, Note_on_c, 6, 43, 100
8, 101640, Note_on_c, 6, 43, 0
8, 101640, Note_on_c, 6, 43, 100
8, 101760, Note_on_c, 6, 43, 0
8, 101760, Note_on_c, 6, 43, 100
8, 101880, Note_on_c, 6, 43, 0
8, 101880, Note_on_c, 6, 43, 100
8, 102000, Note_on_c, 6, 43, 0
8, 102000, Note_on_c, 6, 43, 100
8, 102120, Note_on_c, 6, 43, 0
8, 102120, Note_on_c, 6, 48, 102
8, 102240, Note_on_c, 6, 48, 0
8, 102240, Note_on_c, 6, 48, 105
8, 102360, Note_on_c, 6, 48, 0
8, 102360, Note_on_c, 6, 48, 108
8, 102480, Note_on_c, 6, 48, 0
8, 102480, Note_on_c, 6, 48, 110
8, 102600, Note_on_c, 6, 48, 0
8, 102600, Note_on_c, 6, 43, 113
8, 102720, Note_on_c, 6, 43, 0
8, 102720, Note_on_c, 6, 43, 116
8, 102840, Note_on_c, 6, 43, 0
8, 102840, Note_on_c, 6, 43, 118
8, 102960, Note_on_c, 6, 43, 0
8, 102960, Note_on_c, 6, 43, 121
8, 103080, Note_on_c, 6, 43, 0
8, 103080, Note_on_c, 6, 43, 124
8, 103200, Note_on_c, 6, 43, 0
8, 103200, Note_on_c, 6, 48, 127
8, 103260, Note_on_c, 6, 48, 0
8, 103260, Note_on_c, 6, 48, 127
8, 103320, Note_on_c, 6, 48, 0
8, 103320, Note_on_c, 6, 48, 127
8, 103380, Note_on_c, 6, 48, 0
8, 103380, Note_on_c, 6, 48, 127
8, 103440, Note_on_c, 6, 48, 0
8, 103440, Note_on_c, 6, 48, 127
8, 103560, Note_on_c, 6, 48, 0
8, 103680, Note_on_c, 6, 48, 127
8, 103740, Note_on_c, 6, 48, 0
8, 103740, Note_on_c, 6, 48, 127
8, 103800, Note_on_c, 6, 48, 0
8, 103800, Note_on_c, 6, 48, 127
8, 103860, Note_on_c, 6, 48, 0
8, 103860, Note_on_c, 6, 48, 127
8, 103920, Note_on_c, 6, 48, 0
8, 103920, Note_on_c, 6, 48, 127
8, 104040, Note_on_c, 6, 48, 0
8, 104160, Note_on_c, 6, 48, 127
8, 104220, Note_on_c, 6, 48, 0
8, 104220, Note_on_c, 6, 48, 127
8, 104280, Note_on_c, 6, 48, 0
8, 104280, Note_on_c, 6, 48, 127
8, 104340, Note_on_c, 6, 48, 0
8, 104340, Note_on_c, 6, 48, 127
8, 104400, Note_on_c, 6, 48, 0
8, 104400, Note_on_c, 6, 48, 127
8, 104520, Note_on_c, 6, 48, 0
8, 104640, Note_on_c, 6, 48, 127
8, 104700, Note_on_c, 6, 48, 0
8, 104700, Note_on_c, 6, 48, 127
8, 104760, Note_on_c, 6, 48, 0
8, 104760, Note_on_c, 6, 48, 127
8, 104820, Note_on_c, 6, 48, 0
8, 104820, Note_on_c, 6, 48, 127
8, 104880, Note_on_c, 6, 48, 0
8, 104880, Note_on_c, 6, 48, 127
8, 105000, Note_on_c, 6, 48, 0
8, 105120, Note_on_c, 6, 43, 127
8, 105180, Note_on_c, 6, 43, 0
8, 105180, Note_on_c, 6, 43, 127
8, 105240, Note_on_c, 6, 43, 0
8, 105240, Note_on_c, 6, 43, 127
8, 105300, Note_on_c, 6, 43, 0
8, 105300, Note_on_c, 6, 43, 127
8, 105360, Note_on_c, 6, 43, 0
8, 105360, Note_on_c, 6, 43, 127
8, 105480, Note_on_c, 6, 43, 0
8, 105600, Note_on_c, 6, 48, 127
8, 105720, Note_on_c, 6, 48, 0
8, 105840, Note_on_c, 6, 48, 127
8, 105960, Note_on_c, 6, 48, 0
8, 106080, Note_on_c, 6, 48, 127
8, 106170, Note_on_c, 6, 48, 0
8, 106320, Note_on_c, 6, 48, 127
8, 106410, Note_on_c, 6, 48, 0
8, 106560, Note_on_c, 6, 43, 127
8, 106650, Note_on_c, 6, 43, 0
8, 106800, Note_on_c, 6, 43, 127
8, 106890, Note_on_c, 6, 43, 0
8, 107040, Note_on_c, 6, 48, 127
8, 107160, Note_on_c, 6, 48, 0
8, 107280, Note_on_c, 6, 48, 127
8, 107400, Note_on_c, 6, 48, 0
8, 107400, Note_on_c, 6, 48, 127
8, 107520, Note_on_c, 6, 48, 0
8, 107520, Note_on_c, 6, 48, 127
8, 107640, Note_on_c, 6, 48, 0
8, 107760, Note_on_c, 6, 48, 127
8, 107880, Note_on_c, 6, 48, 0
8, 107880, Note_on_c, 6, 48, 127
8, 108000, Note_on_c, 6, 48, 0
8, 108000, Note_on_c, 6, 48, 127
8, 108120, Note_on_c, 6, 48, 0
8, 108240, Note_on_c, 6, 48, 127
8, 108360, Note_on_c, 6, 48, 0
8, 108360, Note_on_c, 6, 48, 127
8, 108480, Note_on_c, 6, 48, 0
8, 108480, Note_on_c, 6, 48, 127
8, 108600, Note_on_c, 6, 48, 0
8, 108720, Note_on_c, 6, 43, 127
8, 108840, Note_on_c, 6, 43, 0
8, 108840, Note_on_c, 6, 43, 127
8, 108960, Note_on_c, 6, 43, 0
8, 108960, Note_on_c, 6, 43, 127
8, 109080, Note_on_c, 6, 43, 0
8, 109680, Note_on_c, 6, 43, 127
8, 109800, Note_on_c, 6, 43, 0
8, 109800, Note_on_c, 6, 43, 127
8, 109920, Note_on_c, 6, 43, 0
8, 109920, Note_on_c, 6, 43, 127
8, 110040, Note_on_c, 6, 43, 0
8, 111120, Note_on_c, 6, 48, 127
8, 111240, Note_on_c, 6, 48, 0
8, 111240, Note_on_c, 6, 48, 127
8, 111360, Note_on_c, 6, 48, 0
8, 111600, Note_on_c, 6, 48, 127
8, 111720, Note_on_c, 6, 48, 0
8, 111720, Note_on_c, 6, 48, 127
8, 111840, Note_on_c, 6, 48, 0
8, 111960, Note_on_c, 6, 43, 127
8, 112080, Note_on_c, 6, 43, 0
8, 112200, Note_on_c, 6, 43, 127
8, 112320, Note_on_c, 6, 43, 0
8, 112800, Note_on_c, 6, 48, 127
8, 112920, Note_on_c, 6, 48, 0
8, 112920, Note_on_c, 6, 48, 127
8, 113040, Note_on_c, 6, 48, 0
8, 113040, Note_on_c, 6, 48, 127
8, 113160, Note_on_c, 6, 48, 0
8, 113160, Note_on_c, 6, 48, 127
8, 113280, Note_on_c, 6, 48, 0
8, 113280, Note_on_c, 6, 48, 127
8, 113400, Note_on_c, 6, 48, 0
8, 113400, Note_on_c, 6, 48, 127
8, 113520, Note_on_c, 6, 48, 0
8, 113520, Note_on_c, 6, 48, 127
8, 113640, Note_on_c, 6, 48, 0
8, 113640, Note_on_c, 6, 48, 127
8, 113760, Note_on_c, 6, 48, 0
8, 113880, Note_on_c, 6, 43, 127
8, 114000, Note_on_c, 6, 43, 0
8, 114120, Note_on_c, 6, 43, 127
8, 114240, Note_on_c, 6, 43, 0
8, 114240, Note_on_c, 6, 48, 127
8, 114360, Note_on_c, 6, 48, 0
8, 115500, Note_on_c, 6, 43, 127
8, 115560, Note_on_c, 6, 43, 0
8, 115560, Note_on_c, 6, 43, 127
8, 115620, Note_on_c, 6, 43, 0
8, 115620, Note_on_c, 6, 43, 127
8, 115680, Note_on_c, 6, 43, 0
8, 115680, Note_on_c, 6, 48, 127
8, 115800, Note_on_c, 6, 48, 0
8, 116460, Note_on_c, 6, 43, 127
8, 116520, Note_on_c, 6, 43, 0
8, 116520, Note_on_c, 6, 43, 127
8, 116580, Note_on_c, 6, 43, 0
8, 116580, Note_on_c, 6, 43, 127
8, 116640, Note_on_c, 6, 43, 0
8, 116640, Note_on_c, 6, 43, 127
8, 116670, Note_on_c, 6, 43, 0
8, 116670, Note_on_c, 6, 43, 127
8, 116700, Note_on_c, 6, 43, 0
8, 116700, Note_on_c, 6, 43, 127
8, 116730, Note_on_c, 6, 43, 0
8, 116730, Note_on_c, 6, 43, 127
8, 116760, Note_on_c, 6, 43, 0
8, 116760, Note_on_c, 6, 43, 127
8, 116790, Note_on_c, 6, 43, 0
8, 116790, Note_on_c, 6, 43, 127
8, 116820, Note_on_c, 6, 43, 0
8, 116820, Note_on_c, 6, 43, 127
8, 116850, Note_on_c, 6, 43, 0
8, 116850, Note_on_c, 6, 43, 127
8, 116880, Note_on_c, 6, 43, 0
8, 116880, Note_on_c, 6, 43, 127
8, 116910, Note_on_c, 6, 43, 0
8, 116910, Note_on_c, 6, 43, 127
8, 116940, Note_on_c, 6, 43, 0
8, 116940, Note_on_c, 6, 43, 127
8, 116970, Note_on_c, 6, 43, 0
8, 116970, Note_on_c, 6, 43, 127
8, 117000, Note_on_c, 6, 43, 0
8, 117000, Note_on_c, 6, 43, 127
8, 117030, Note_on_c, 6, 43, 0
8, 117030, Note_on_c, 6, 43, 127
8, 117060, Note_on_c, 6, 43, 0
8, 117060, Note_on_c, 6, 43, 127
8, 117090, Note_on_c, 6, 43, 0
8, 117090, Note_on_c, 6, 43, 127
8, 117120, Note_on_c, 6, 43, 0
8, 117120, Note_on_c, 6, 43, 127
8, 117150, Note_on_c, 6, 43, 0
8, 117150, Note_on_c, 6, 43, 127
8, 117180, Note_on_c, 6, 43, 0
8, 117180, Note_on_c, 6, 43, 127
8, 117210, Note_on_c, 6, 43, 0
8, 117210, Note_on_c, 6, 43, 127
8, 117240, Note_on_c, 6, 43, 0
8, 117240, Note_on_c, 6, 43, 127
8, 117270, Note_on_c, 6, 43, 0
8, 117270, Note_on_c, 6, 43, 127
8, 117300, Note_on_c, 6, 43, 0
8, 117300, Note_on_c, 6, 43, 127
8, 117330, Note_on_c, 6, 43, 0
8, 117330, Note_on_c, 6, 43, 127
8, 117360, Note_on_c, 6, 43, 0
8, 117420, Note_on_c, 6, 43, 127
8, 117480, Note_on_c, 6, 43, 0
8, 117480, Note_on_c, 6, 43, 127
8, 117540, Note_on_c, 6, 43, 0
8, 117540, Note_on_c, 6, 43, 127
8, 117600, Note_on_c, 6, 43, 0
8, 117600, Note_on_c, 6, 43, 127
8, 117630, Note_on_c, 6, 43, 0
8, 117630, Note_on_c, 6, 43, 127
8, 117660, Note_on_c, 6, 43, 0
8, 117660, Note_on_c, 6, 43, 127
8, 117690, Note_on_c, 6, 43, 0
8, 117690, Note_on_c, 6, 43, 127
8, 117720, Note_on_c, 6, 43, 0
8, 117720, Note_on_c, 6, 43, 127
8, 117750, Note_on_c, 6, 43, 0
8, 117750, Note_on_c, 6, 43, 127
8, 117780, Note_on_c, 6, 43, 0
8, 117780, Note_on_c, 6, 43, 127
8, 117810, Note_on_c, 6, 43, 0
8, 117810, Note_on_c, 6, 43, 127
8, 117840, Note_on_c, 6, 43, 0
8, 117840, Note_on_c, 6, 43, 127
8, 117870, Note_on_c, 6, 43, 0
8, 117870, Note_on_c, 6, 43, 127
8, 117900, Note_on_c, 6, 43, 0
8, 117900, Note_on_c, 6, 43, 127
8, 117930, Note_on_c, 6, 43, 0
8, 117930, Note_on_c, 6, 43, 127
8, 117960, Note_on_c, 6, 43, 0
8, 117960, Note_on_c, 6, 43, 127
8, 117990, Note_on_c, 6, 43, 0
8, 117990, Note_on_c, 6, 43, 127
8, 118020, Note_on_c, 6, 43, 0
8, 118020, Note_on_c, 6, 43, 127
8, 118050, Note_on_c, 6, 43, 0
8, 118050, Note_on_c, 6, 43, 127
8, 118080, Note_on_c, 6, 43, 0
8, 118080, Note_on_c, 6, 43, 127
8, 118110, Note_on_c, 6, 43, 0
8, 118110, Note_on_c, 6, 43, 127
8, 118140, Note_on_c, 6, 43, 0
8, 118140, Note_on_c, 6, 43, 127
8, 118170, Note_on_c, 6, 43, 0
8, 118170, Note_on_c, 6, 43, 127
8, 118200, Note_on_c, 6, 43, 0
8, 118200, Note_on_c, 6, 43, 127
8, 118230, Note_on_c, 6, 43, 0
8, 118230, Note_on_c, 6, 43, 127
8, 118260, Note_on_c, 6, 43, 0
8, 118260, Note_on_c, 6, 43, 127
8, 118290, Note_on_c, 6, 43, 0
8, 118290, Note_on_c, 6, 43, 127
8, 118320, Note_on_c, 6, 43, 0
8, 118320, Note_on_c, 6, 43, 127
8, 118350, Note_on_c, 6, 43, 0
8, 118350, Note_on_c, 6, 43, 127
8, 118380, Note_on_c, 6, 43, 0
8, 118380, Note_on_c, 6, 43, 127
8, 118410, Note_on_c, 6, 43, 0
8, 118410, Note_on_c, 6, 43, 127
8, 118440, Note_on_c, 6, 43, 0
8, 118440, Note_on_c, 6, 43, 127
8, 118470, Note_on_c, 6, 43, 0
8, 118470, Note_on_c, 6, 43, 127
8, 118500, Note_on_c, 6, 43, 0
8, 118500, Note_on_c, 6, 43, 127
8, 118530, Note_on_c, 6, 43, 0
8, 118530, Note_on_c, 6, 43, 127
8, 118560, Note_on_c, 6, 43, 0
8, 120540, Note_on_c, 6, 43, 100
8, 120600, Note_on_c, 6, 43, 0
8, 120600, Note_on_c, 6, 43, 100
8, 120660, Note_on_c, 6, 43, 0
8, 120660, Note_on_c, 6, 43, 100
8, 120720, Note_on_c, 6, 43, 0
8, 120720, Note_on_c, 6, 48, 100
8, 120840, Note_on_c, 6, 48, 0
8, 121020, Note_on_c, 6, 43, 100
8, 121080, Note_on_c, 6, 43, 0
8, 121080, Note_on_c, 6, 43, 100
8, 121140, Note_on_c, 6, 43, 0
8, 121140, Note_on_c, 6, 43, 100
8, 121200, Note_on_c, 6, 43, 0
8, 121200, Note_on_c, 6, 48, 100
8, 121320, Note_on_c, 6, 48, 0
8, 121500, Note_on_c, 6, 43, 101
8, 121560, Note_on_c, 6, 43, 0
8, 121560, Note_on_c, 6, 43, 102
8, 121620, Note_on_c, 6, 43, 0
8, 121620, Note_on_c, 6, 43, 104
8, 121680, Note_on_c, 6, 43, 0
8, 121680, Note_on_c, 6, 48, 105
8, 121800, Note_on_c, 6, 48, 0
8, 121800, Note_on_c, 6, 43, 108
8, 121920, Note_on_c, 6, 43, 0
8, 121920, Note_on_c, 6, 48, 110
8, 122040, Note_on_c, 6, 48, 0
8, 122040, Note_on_c, 6, 43, 113
8, 122160, Note_on_c, 6, 43, 0
8, 122160, Note_on_c, 6, 48, 116
8, 122280, Note_on_c, 6, 48, 0
8, 122280, Note_on_c, 6, 43, 118
8, 122400, Note_on_c, 6, 43, 0
8, 122400, Note_on_c, 6, 48, 121
8, 122520, Note_on_c, 6, 48, 0
8, 122520, Note_on_c, 6, 43, 124
8, 122640, Note_on_c, 6, 43, 0
8, 122640, Note_on_c, 6, 48, 127
8, 122760, Note_on_c, 6, 48, 0
8, 122880, Note_on_c, 6, 43, 127
8, 123000, Note_on_c, 6, 43, 0
8, 123120, Note_on_c, 6, 48, 127
8, 123240, Note_on_c, 6, 48, 0
8, 123240, End_track
9, 0, Start_track
9, 0, MIDI_port, 0
9, 0, Title_t, "Violini I."
9, 0, Program_c, 11, 48
9, 0, Control_c, 11, 7, 127
9, 0, Control_c, 11, 10, 25
9, 60, Note_on_c, 11, 67, 127
9, 110, Note_on_c, 11, 67, 0
9, 120, Note_on_c, 11, 67, 127
9, 170, Note_on_c, 11, 67, 0
9, 180, Note_on_c, 11, 67, 127
9, 230, Note_on_c, 11, 67, 0
9, 240, Note_on_c, 11, 63, 127
9, 480, Note_on_c, 11, 63, 0
9, 540, Note_on_c, 11, 65, 127
9, 590, Note_on_c, 11, 65, 0
9, 600, Note_on_c, 11, 65, 127
9, 650, Note_on_c, 11, 65, 0
9, 660, Note_on_c, 11, 65, 127
9, 710, Note_on_c, 11, 65, 0
9, 720, Note_on_c, 11, 62, 127
9, 1200, Note_on_c, 11, 62, 0
9, 1740, Note_on_c, 11, 75, 50
9, 1790, Note_on_c, 11, 75, 0
9, 1800, Note_on_c, 11, 75, 50
9, 1850, Note_on_c, 11, 75, 0
9, 1860, Note_on_c, 11, 75, 50
9, 1910, Note_on_c, 11, 75, 0
9, 1920, Note_on_c, 11, 72, 50
9, 2280, Note_on_c, 11, 72, 0
9, 2700, Note_on_c, 11, 77, 50
9, 2750, Note_on_c, 11, 77, 0
9, 2760, Note_on_c, 11, 77, 50
9, 2810, Note_on_c, 11, 77, 0
9, 2820, Note_on_c, 11, 77, 50
9, 2870, Note_on_c, 11, 77, 0
9, 2880, Note_on_c, 11, 74, 50
9, 3170, Note_on_c, 11, 74, 0
9, 3180, Note_on_c, 11, 79, 50
9, 3230, Note_on_c, 11, 79, 0
9, 3240, Note_on_c, 11, 79, 50
9, 3290, Note_on_c, 11, 79, 0
9, 3300, Note_on_c, 11, 77, 50
9, 3350, Note_on_c, 11, 77, 0
9, 3360, Note_on_c, 11, 75, 50
9, 3600, Note_on_c, 11, 75, 0
9, 3600, Note_on_c, 11, 74, 50
9, 3650, Note_on_c, 11, 74, 0
9, 3660, Note_on_c, 11, 79, 50
9, 3710, Note_on_c, 11, 79, 0
9, 3720, Note_on_c, 11, 79, 50
9, 3770, Note_on_c, 11, 79, 0
9, 3780, Note_on_c, 11, 77, 50
9, 3830, Note_on_c, 11, 77, 0
9, 3840, Note_on_c, 11, 75, 50
9, 4080, Note_on_c, 11, 75, 0
9, 4080, Note_on_c, 11, 74, 50
9, 4130, Note_on_c, 11, 74, 0
9, 4140, Note_on_c, 11, 79, 65
9, 4190, Note_on_c, 11, 79, 0
9, 4200, Note_on_c, 11, 79, 85
9, 4250, Note_on_c, 11, 79, 0
9, 4260, Note_on_c, 11, 77, 106
9, 4310, Note_on_c, 11, 77, 0
9, 4320, Note_on_c, 11, 75, 127
9, 4440, Note_on_c, 11, 75, 0
9, 4560, Note_on_c, 11, 66, 127
9, 4560, Note_on_c, 11, 56, 127
9, 4560, Note_on_c, 11, 72, 127
9, 4680, Note_on_c, 11, 72, 0
9, 4680, Note_on_c, 11, 56, 0
9, 4680, Note_on_c, 11, 66, 0
9, 4800, Note_on_c, 11, 79, 127
9, 4800, Note_on_c, 11, 55, 127
9, 4800, Note_on_c, 11, 71, 127
9, 4800, Note_on_c, 11, 62, 127
9, 4920, Note_on_c, 11, 62, 0
9, 4920, Note_on_c, 11, 71, 0
9, 4920, Note_on_c, 11, 55, 0
9, 5040, Note_on_c, 11, 79, 0
9, 5100, Note_on_c, 11, 68, 127
9, 5150, Note_on_c, 11, 68, 0
9, 5160, Note_on_c, 11, 68, 127
9, 5210, Note_on_c, 11, 68, 0
9, 5220, Note_on_c, 11, 68, 127
9, 5270, Note_on_c, 11, 68, 0
9, 5280, Note_on_c, 11, 65, 127
9, 5760, Note_on_c, 11, 65, 0
9, 5820, Note_on_c, 11, 68, 50
9, 5870, Note_on_c, 11, 68, 0
9, 5880, Note_on_c, 11, 68, 50
9, 5930, Note_on_c, 11, 68, 0
9, 5940, Note_on_c, 11, 68, 50
9, 5990, Note_on_c, 11, 68, 0
9, 6000, Note_on_c, 11, 65, 50
9, 6710, Note_on_c, 11, 65, 0
9, 6720, Note_on_c, 11, 63, 50
9, 6770, Note_on_c, 11, 63, 0
9, 6780, Note_on_c, 11, 68, 50
9, 6830, Note_on_c, 11, 68, 0
9, 6840, Note_on_c, 11, 68, 50
9, 6890, Note_on_c, 11, 68, 0
9, 6900, Note_on_c, 11, 68, 50
9, 6950, Note_on_c, 11, 68, 0
9, 6960, Note_on_c, 11, 65, 50
9, 7670, Note_on_c, 11, 65, 0
9, 7680, Note_on_c, 11, 63, 50
9, 7730, Note_on_c, 11, 63, 0
9, 7740, Note_on_c, 11, 67, 52
9, 7790, Note_on_c, 11, 67, 0
9, 7800, Note_on_c, 11, 72, 55
9, 7850, Note_on_c, 11, 72, 0
9, 7860, Note_on_c, 11, 72, 57
9, 7910, Note_on_c, 11, 72, 0
9, 7920, Note_on_c, 11, 72, 60
9, 8150, Note_on_c, 11, 72, 0
9, 8160, Note_on_c, 11, 71, 70
9, 8210, Note_on_c, 11, 71, 0
9, 8220, Note_on_c, 11, 71, 72
9, 8270, Note_on_c, 11, 71, 0
9, 8280, Note_on_c, 11, 71, 75
9, 8330, Note_on_c, 11, 71, 0
9, 8340, Note_on_c, 11, 74, 77
9, 8390, Note_on_c, 11, 74, 0
9, 8400, Note_on_c, 11, 74, 80
9, 8630, Note_on_c, 11, 74, 0
9, 8640, Note_on_c, 11, 72, 90
9, 8690, Note_on_c, 11, 72, 0
9, 8700, Note_on_c, 11, 72, 92
9, 8750, Note_on_c, 11, 72, 0
9, 8760, Note_on_c, 11, 72, 95
9, 8810, Note_on_c, 11, 72, 0
9, 8820, Note_on_c, 11, 75, 97
9, 8870, Note_on_c, 11, 75, 0
9, 8880, Note_on_c, 11, 75, 100
9, 8940, Note_on_c, 11, 75, 0
9, 8940, Note_on_c, 11, 74, 100
9, 8990, Note_on_c, 11, 74, 0
9, 9000, Note_on_c, 11, 74, 100
9, 9045, Note_on_c, 11, 74, 0
9, 9060, Note_on_c, 11, 77, 100
9, 9105, Note_on_c, 11, 77, 0
9, 9120, Note_on_c, 11, 77, 100
9, 9180, Note_on_c, 11, 77, 0
9, 9180, Note_on_c, 11, 76, 100
9, 9230, Note_on_c, 11, 76, 0
9, 9240, Note_on_c, 11, 76, 100
9, 9285, Note_on_c, 11, 76, 0
9, 9300, Note_on_c, 11, 79, 100
9, 9345, Note_on_c, 11, 79, 0
9, 9360, Note_on_c, 11, 79, 100
9, 9420, Note_on_c, 11, 79, 0
9, 9420, Note_on_c, 11, 77, 100
9, 9470, Note_on_c, 11, 77, 0
9, 9480, Note_on_c, 11, 77, 100
9, 9525, Note_on_c, 11, 77, 0
9, 9540, Note_on_c, 11, 80, 100
9, 9585, Note_on_c, 11, 80, 0
9, 9600, Note_on_c, 11, 80, 100
9, 9660, Note_on_c, 11, 80, 0
9, 9660, Note_on_c, 11, 79, 100
9, 9710, Note_on_c, 11, 79, 0
9, 9720, Note_on_c, 11, 79, 100
9, 9765, Note_on_c, 11, 79, 0
9, 9780, Note_on_c, 11, 82, 100
9, 9825, Note_on_c, 11, 82, 0
9, 9840, Note_on_c, 11, 82, 100
9, 9900, Note_on_c, 11, 82, 0
9, 9900, Note_on_c, 11, 80, 100
9, 9950, Note_on_c, 11, 80, 0
9, 9960, Note_on_c, 11, 80, 100
9, 10005, Note_on_c, 11, 80, 0
9, 10020, Note_on_c, 11, 84, 100
9, 10065, Note_on_c, 11, 84, 0
9, 10080, Note_on_c, 11, 84, 100
9, 10140, Note_on_c, 11, 84, 0
9, 10140, Note_on_c, 11, 83, 100
9, 10190, Note_on_c, 11, 83, 0
9, 10200, Note_on_c, 11, 83, 100
9, 10245, Note_on_c, 11, 83, 0
9, 10260, Note_on_c, 11, 86, 100
9, 10305, Note_on_c, 11, 86, 0
9, 10320, Note_on_c, 11, 84, 100
9, 10370, Note_on_c, 11, 84, 0
9, 10380, Note_on_c, 11, 87, 100
9, 10430, Note_on_c, 11, 87, 0
9, 10440, Note_on_c, 11, 87, 100
9, 10490, Note_on_c, 11, 87, 0
9, 10500, Note_on_c, 11, 87, 100
9, 10550, Note_on_c, 11, 87, 0
9, 10560, Note_on_c, 11, 84, 100
9, 10610, Note_on_c, 11, 84, 0
9, 10620, Note_on_c, 11, 79, 100
9, 10670, Note_on_c, 11, 79, 0
9, 10680, Note_on_c, 11, 79, 100
9, 10730, Note_on_c, 11, 79, 0
9, 10740, Note_on_c, 11, 79, 100
9, 10790, Note_on_c, 11, 79, 0
9, 10800, Note_on_c, 11, 75, 100
9, 10850, Note_on_c, 11, 75, 0
9, 10860, Note_on_c, 11, 72, 100
9, 10910, Note_on_c, 11, 72, 0
9, 10920, Note_on_c, 11, 67, 100
9, 10970, Note_on_c, 11, 67, 0
9, 10980, Note_on_c, 11, 67, 100
9, 11030, Note_on_c, 11, 67, 0
9, 11040, Note_on_c, 11, 63, 100
9, 11090, Note_on_c, 11, 63, 0
9, 11100, Note_on_c, 11, 60, 100
9, 11150, Note_on_c, 11, 60, 0
9, 11160, Note_on_c, 11, 60, 100
9, 11210, Note_on_c, 11, 60, 0
9, 11220, Note_on_c, 11, 60, 100
9, 11270, Note_on_c, 11, 60, 0
9, 11280, Note_on_c, 11, 59, 100
9, 11330, Note_on_c, 11, 59, 0
9, 11340, Note_on_c, 11, 89, 100
9, 11390, Note_on_c, 11, 89, 0
9, 11400, Note_on_c, 11, 86, 100
9, 11450, Note_on_c, 11, 86, 0
9, 11460, Note_on_c, 11, 86, 100
9, 11510, Note_on_c, 11, 86, 0
9, 11520, Note_on_c, 11, 83, 100
9, 11570, Note_on_c, 11, 83, 0
9, 11580, Note_on_c, 11, 79, 100
9, 11630, Note_on_c, 11, 79, 0
9, 11640, Note_on_c, 11, 77, 100
9, 11690, Note_on_c, 11, 77, 0
9, 11700, Note_on_c, 11, 77, 100
9, 11750, Note_on_c, 11, 77, 0
9, 11760, Note_on_c, 11, 74, 100
9, 11810, Note_on_c, 11, 74, 0
9, 11820, Note_on_c, 11, 71, 100
9, 11870, Note_on_c, 11, 71, 0
9, 11880, Note_on_c, 11, 67, 100
9, 11930, Note_on_c, 11, 67, 0
9, 11940, Note_on_c, 11, 65, 100
9, 11990, Note_on_c, 11, 65, 0
9, 12000, Note_on_c, 11, 62, 100
9, 12050, Note_on_c, 11, 62, 0
9, 12060, Note_on_c, 11, 59, 100
9, 12110, Note_on_c, 11, 59, 0
9, 12120, Note_on_c, 11, 60, 100
9, 12170, Note_on_c, 11, 60, 0
9, 12180, Note_on_c, 11, 60, 100
9, 12230, Note_on_c, 11, 60, 0
9, 12240, Note_on_c, 11, 60, 127
9, 12290, Note_on_c, 11, 60, 0
9, 12300, Note_on_c, 11, 87, 127
9, 12350, Note_on_c, 11, 87, 0
9, 12360, Note_on_c, 11, 87, 127
9, 12410, Note_on_c, 11, 87, 0
9, 12420, Note_on_c, 11, 87, 127
9, 12470, Note_on_c, 11, 87, 0
9, 12480, Note_on_c, 11, 84, 127
9, 12530, Note_on_c, 11, 84, 0
9, 12540, Note_on_c, 11, 81, 127
9, 12590, Note_on_c, 11, 81, 0
9, 12600, Note_on_c, 11, 81, 127
9, 12650, Note_on_c, 11, 81, 0
9, 12660, Note_on_c, 11, 81, 127
9, 12710, Note_on_c, 11, 81, 0
9, 12720, Note_on_c, 11, 78, 127
9, 12770, Note_on_c, 11, 78, 0
9, 12780, Note_on_c, 11, 75, 127
9, 12830, Note_on_c, 11, 75, 0
9, 12840, Note_on_c, 11, 75, 127
9, 12890, Note_on_c, 11, 75, 0
9, 12900, Note_on_c, 11, 75, 127
9, 12950, Note_on_c, 11, 75, 0
9, 12960, Note_on_c, 11, 72, 127
9, 13010, Note_on_c, 11, 72, 0
9, 13020, Note_on_c, 11, 57, 127
9, 13020, Note_on_c, 11, 69, 127
9, 13070, Note_on_c, 11, 69, 0
9, 13070, Note_on_c, 11, 57, 0
9, 13080, Note_on_c, 11, 69, 127
9, 13080, Note_on_c, 11, 57, 127
9, 13130, Note_on_c, 11, 57, 0
9, 13130, Note_on_c, 11, 69, 0
9, 13140, Note_on_c, 11, 57, 127
9, 13140, Note_on_c, 11, 69, 127
9, 13190, Note_on_c, 11, 69, 0
9, 13190, Note_on_c, 11, 57, 0
9, 13200, Note_on_c, 11, 57, 127
9, 13200, Note_on_c, 11, 69, 127
9, 13320, Note_on_c, 11, 69, 0
9, 13320, Note_on_c, 11, 57, 0
9, 13680, Note_on_c, 11, 70, 127
9, 13680, Note_on_c, 11, 58, 127
9, 13680, Note_on_c, 11, 65, 127
9, 13800, Note_on_c, 11, 65, 0
9, 13800, Note_on_c, 11, 58, 0
9, 13800, Note_on_c, 11, 70, 0
9, 14880, Note_on_c, 11, 70, 50
9, 15000, Note_on_c, 11, 70, 0
9, 15000, Note_on_c, 11, 75, 50
9, 15120, Note_on_c, 11, 75, 0
9, 15120, Note_on_c, 11, 74, 50
9, 15240, Note_on_c, 11, 74, 0
9, 15240, Note_on_c, 11, 75, 50
9, 15360, Note_on_c, 11, 75, 0
9, 15360, Note_on_c, 11, 77, 50
9, 15480, Note_on_c, 11, 77, 0
9, 15480, Note_on_c, 11, 72, 50
9, 15590, Note_on_c, 11, 72, 0
9, 15600, Note_on_c, 11, 72, 50
9, 15720, Note_on_c, 11, 72, 0
9, 15720, Note_on_c, 11, 70, 50
9, 15840, Note_on_c, 11, 70, 0
9, 16800, Note_on_c, 11, 70, 50
9, 16920, Note_on_c, 11, 70, 0
9, 16920, Note_on_c, 11, 75, 50
9, 17040, Note_on_c, 11, 75, 0
9, 17040, Note_on_c, 11, 74, 50
9, 17160, Note_on_c, 11, 74, 0
9, 17160, Note_on_c, 11, 75, 50
9, 17280, Note_on_c, 11, 75, 0
9, 17280, Note_on_c, 11, 77, 50
9, 17400, Note_on_c, 11, 77, 0
9, 17400, Note_on_c, 11, 72, 50
9, 17510, Note_on_c, 11, 72, 0
9, 17520, Note_on_c, 11, 72, 50
9, 17640, Note_on_c, 11, 72, 0
9, 17640, Note_on_c, 11, 70, 50
9, 17750, Note_on_c, 11, 70, 0
9, 17760, Note_on_c, 11, 70, 50
9, 17880, Note_on_c, 11, 70, 0
9, 17880, Note_on_c, 11, 72, 50
9, 18000, Note_on_c, 11, 72, 0
9, 18000, Note_on_c, 11, 73, 50
9, 18120, Note_on_c, 11, 73, 0
9, 18120, Note_on_c, 11, 72, 50
9, 18230, Note_on_c, 11, 72, 0
9, 18240, Note_on_c, 11, 70, 50
9, 18360, Note_on_c, 11, 70, 0
9, 18360, Note_on_c, 11, 72, 50
9, 18480, Note_on_c, 11, 72, 0
9, 18480, Note_on_c, 11, 70, 50
9, 18600, Note_on_c, 11, 70, 0
9, 18600, Note_on_c, 11, 68, 50
9, 18710, Note_on_c, 11, 68, 0
9, 18720, Note_on_c, 11, 73, 50
9, 18840, Note_on_c, 11, 73, 0
9, 18840, Note_on_c, 11, 75, 50
9, 18960, Note_on_c, 11, 75, 0
9, 18960, Note_on_c, 11, 77, 50
9, 19080, Note_on_c, 11, 77, 0
9, 19080, Note_on_c, 11, 75, 50
9, 19190, Note_on_c, 11, 75, 0
9, 19200, Note_on_c, 11, 73, 50
9, 19320, Note_on_c, 11, 73, 0
9, 19320, Note_on_c, 11, 75, 50
9, 19440, Note_on_c, 11, 75, 0
9, 19440, Note_on_c, 11, 73, 50
9, 19560, Note_on_c, 11, 73, 0
9, 19560, Note_on_c, 11, 72, 50
9, 19670, Note_on_c, 11, 72, 0
9, 19680, Note_on_c, 11, 75, 50
9, 19800, Note_on_c, 11, 75, 0
9, 19800, Note_on_c, 11, 77, 50
9, 19920, Note_on_c, 11, 77, 0
9, 19920, Note_on_c, 11, 78, 50
9, 20040, Note_on_c, 11, 78, 0
9, 20040, Note_on_c, 11, 77, 53
9, 20160, Note_on_c, 11, 77, 0
9, 20160, Note_on_c, 11, 75, 57
9, 20280, Note_on_c, 11, 75, 0
9, 20280, Note_on_c, 11, 77, 61
9, 20390, Note_on_c, 11, 77, 0
9, 20400, Note_on_c, 11, 78, 65
9, 20520, Note_on_c, 11, 78, 0
9, 20520, Note_on_c, 11, 77, 69
9, 20640, Note_on_c, 11, 77, 0
9, 20640, Note_on_c, 11, 75, 73
9, 20760, Note_on_c, 11, 75, 0
9, 20760, Note_on_c, 11, 77, 76
9, 20870, Note_on_c, 11, 77, 0
9, 20880, Note_on_c, 11, 78, 80
9, 21000, Note_on_c, 11, 78, 0
9, 21000, Note_on_c, 11, 77, 84
9, 21120, Note_on_c, 11, 77, 0
9, 21120, Note_on_c, 11, 75, 88
9, 21240, Note_on_c, 11, 75, 0
9, 21240, Note_on_c, 11, 77, 92
9, 21350, Note_on_c, 11, 77, 0
9, 21360, Note_on_c, 11, 78, 96
9, 21480, Note_on_c, 11, 78, 0
9, 21480, Note_on_c, 11, 77, 100
9, 21600, Note_on_c, 11, 77, 0
9, 21600, Note_on_c, 11, 75, 103
9, 21720, Note_on_c, 11, 75, 0
9, 21720, Note_on_c, 11, 77, 107
9, 21840, Note_on_c, 11, 77, 0
9, 21840, Note_on_c, 11, 78, 111
9, 21960, Note_on_c, 11, 78, 0
9, 21960, Note_on_c, 11, 77, 115
9, 22080, Note_on_c, 11, 77, 0
9, 22080, Note_on_c, 11, 78, 119
9, 22200, Note_on_c, 11, 78, 0
9, 22200, Note_on_c, 11, 81, 123
9, 22310, Note_on_c, 11, 81, 0
9, 22320, Note_on_c, 11, 70, 127
9, 22320, Note_on_c, 11, 82, 127
9, 22610, Note_on_c, 11, 82, 0
9, 22610, Note_on_c, 11, 70, 0
9, 22620, Note_on_c, 11, 84, 127
9, 22665, Note_on_c, 11, 84, 0
9, 22680, Note_on_c, 11, 82, 127
9, 22725, Note_on_c, 11, 82, 0
9, 22740, Note_on_c, 11, 80, 127
9, 22785, Note_on_c, 11, 80, 0
9, 22800, Note_on_c, 11, 80, 127
9, 22860, Note_on_c, 11, 80, 0
9, 22860, Note_on_c, 11, 79, 127
9, 22910, Note_on_c, 11, 79, 0
9, 22920, Note_on_c, 11, 77, 127
9, 22965, Note_on_c, 11, 77, 0
9, 22980, Note_on_c, 11, 75, 127
9, 23025, Note_on_c, 11, 75, 0
9, 23040, Note_on_c, 11, 75, 127
9, 23100, Note_on_c, 11, 75, 0
9, 23100, Note_on_c, 11, 74, 127
9, 23150, Note_on_c, 11, 74, 0
9, 23160, Note_on_c, 11, 72, 127
9, 23205, Note_on_c, 11, 72, 0
9, 23220, Note_on_c, 11, 74, 127
9, 23265, Note_on_c, 11, 74, 0
9, 23280, Note_on_c, 11, 77, 127
9, 23340, Note_on_c, 11, 77, 0
9, 23340, Note_on_c, 11, 75, 127
9, 23390, Note_on_c, 11, 75, 0
9, 23400, Note_on_c, 11, 70, 127
9, 23445, Note_on_c, 11, 70, 0
9, 23460, Note_on_c, 11, 67, 127
9, 23505, Note_on_c, 11, 67, 0
9, 23520, Note_on_c, 11, 74, 127
9, 23580, Note_on_c, 11, 74, 0
9, 23580, Note_on_c, 11, 72, 127
9, 23630, Note_on_c, 11, 72, 0
9, 23640, Note_on_c, 11, 68, 127
9, 23685, Note_on_c, 11, 68, 0
9, 23700, Note_on_c, 11, 65, 127
9, 23745, Note_on_c, 11, 65, 0
9, 23760, Note_on_c, 11, 72, 127
9, 23820, Note_on_c, 11, 72, 0
9, 23820, Note_on_c, 11, 70, 127
9, 23870, Note_on_c, 11, 70, 0
9, 23880, Note_on_c, 11, 67, 127
9, 23925, Note_on_c, 11, 67, 0
9, 23940, Note_on_c, 11, 63, 127
9, 23985, Note_on_c, 11, 63, 0
9, 24000, Note_on_c, 11, 58, 127
9, 24050, Note_on_c, 11, 58, 0
9, 24060, Note_on_c, 11, 81, 127
9, 24120, Note_on_c, 11, 81, 0
9, 24120, Note_on_c, 11, 82, 127
9, 24180, Note_on_c, 11, 82, 0
9, 24180, Note_on_c, 11, 81, 127
9, 24240, Note_on_c, 11, 81, 0
9, 24240, Note_on_c, 11, 82, 127
9, 24300, Note_on_c, 11, 82, 0
9, 24300, Note_on_c, 11, 81, 127
9, 24360, Note_on_c, 11, 81, 0
9, 24360, Note_on_c, 11, 82, 127
9, 24420, Note_on_c, 11, 82, 0
9, 24420, Note_on_c, 11, 81, 127
9, 24470, Note_on_c, 11, 81, 0
9, 24480, Note_on_c, 11, 82, 127
9, 24525, Note_on_c, 11, 82, 0
9, 24540, Note_on_c, 11, 84, 127
9, 24585, Note_on_c, 11, 84, 0
9, 24600, Note_on_c, 11, 82, 127
9, 24645, Note_on_c, 11, 82, 0
9, 24660, Note_on_c, 11, 80, 127
9, 24705, Note_on_c, 11, 80, 0
9, 24720, Note_on_c, 11, 80, 127
9, 24780, Note_on_c, 11, 80, 0
9, 24780, Note_on_c, 11, 79, 127
9, 24830, Note_on_c, 11, 79, 0
9, 24840, Note_on_c, 11, 77, 127
9, 24885, Note_on_c, 11, 77, 0
9, 24900, Note_on_c, 11, 75, 127
9, 24945, Note_on_c, 11, 75, 0
9, 24960, Note_on_c, 11, 75, 127
9, 25020, Note_on_c, 11, 75, 0
9, 25020, Note_on_c, 11, 74, 127
9, 25070, Note_on_c, 11, 74, 0
9, 25080, Note_on_c, 11, 72, 127
9, 25125, Note_on_c, 11, 72, 0
9, 25140, Note_on_c, 11, 74, 127
9, 25185, Note_on_c, 11, 74, 0
9, 25200, Note_on_c, 11, 77, 127
9, 25260, Note_on_c, 11, 77, 0
9, 25260, Note_on_c, 11, 75, 127
9, 25310, Note_on_c, 11, 75, 0
9, 25320, Note_on_c, 11, 70, 127
9, 25365, Note_on_c, 11, 70, 0
9, 25380, Note_on_c, 11, 67, 127
9, 25425, Note_on_c, 11, 67, 0
9, 25440, Note_on_c, 11, 74, 127
9, 25500, Note_on_c, 11, 74, 0
9, 25500, Note_on_c, 11, 72, 127
9, 25550, Note_on_c, 11, 72, 0
9, 25560, Note_on_c, 11, 68, 127
9, 25605, Note_on_c, 11, 68, 0
9, 25620, Note_on_c, 11, 65, 127
9, 25665, Note_on_c, 11, 65, 0
9, 25680, Note_on_c, 11, 72, 127
9, 25740, Note_on_c, 11, 72, 0
9, 25740, Note_on_c, 11, 70, 127
9, 25790, Note_on_c, 11, 70, 0
9, 25800, Note_on_c, 11, 67, 127
9, 25845, Note_on_c, 11, 67, 0
9, 25860, Note_on_c, 11, 63, 127
9, 25905, Note_on_c, 11, 63, 0
9, 25920, Note_on_c, 11, 58, 127
9, 25970, Note_on_c, 11, 58, 0
9, 25980, Note_on_c, 11, 70, 127
9, 26030, Note_on_c, 11, 70, 0
9, 26040, Note_on_c, 11, 82, 127
9, 26090, Note_on_c, 11, 82, 0
9, 26100, Note_on_c, 11, 82, 127
9, 26150, Note_on_c, 11, 82, 0
9, 26160, Note_on_c, 11, 75, 127
9, 26930, Note_on_c, 11, 75, 0
9, 26940, Note_on_c, 11, 77, 127
9, 26990, Note_on_c, 11, 77, 0
9, 27000, Note_on_c, 11, 77, 127
9, 27050, Note_on_c, 11, 77, 0
9, 27060, Note_on_c, 11, 77, 127
9, 27110, Note_on_c, 11, 77, 0
9, 27120, Note_on_c, 11, 79, 127
9, 27890, Note_on_c, 11, 79, 0
9, 27900, Note_on_c, 11, 82, 127
9, 27900, Note_on_c, 11, 70, 127
9, 27950, Note_on_c, 11, 70, 0
9, 27950, Note_on_c, 11, 82, 0
9, 27960, Note_on_c, 11, 70, 127
9, 27960, Note_on_c, 11, 82, 127
9, 28010, Note_on_c, 11, 82, 0
9, 28010, Note_on_c, 11, 70, 0
9, 28020, Note_on_c, 11, 82, 127
9, 28020, Note_on_c, 11, 70, 127
9, 28070, Note_on_c, 11, 70, 0
9, 28070, Note_on_c, 11, 82, 0
9, 28080, Note_on_c, 11, 82, 127
9, 28080, Note_on_c, 11, 70, 127
9, 28200, Note_on_c, 11, 70, 0
9, 28200, Note_on_c, 11, 82, 0
9, 28380, Note_on_c, 11, 82, 127
9, 28380, Note_on_c, 11, 70, 127
9, 28430, Note_on_c, 11, 70, 0
9, 28430, Note_on_c, 11, 82, 0
9, 28440, Note_on_c, 11, 82, 127
9, 28440, Note_on_c, 11, 70, 127
9, 28490, Note_on_c, 11, 70, 0
9, 28490, Note_on_c, 11, 82, 0
9, 28500, Note_on_c, 11, 70, 127
9, 28500, Note_on_c, 11, 82, 127
9, 28550, Note_on_c, 11, 82, 0
9, 28550, Note_on_c, 11, 70, 0
9, 28560, Note_on_c, 11, 82, 127
9, 28560, Note_on_c, 11, 70, 127
9, 28680, Note_on_c, 11, 70, 0
9, 28680, Note_on_c, 11, 82, 0
9, 28860, Note_on_c, 11, 77, 127
9, 28860, Note_on_c, 11, 86, 127
9, 28910, Note_on_c, 11, 86, 0
9, 28910, Note_on_c, 11, 77, 0
9, 28920, Note_on_c, 11, 86, 127
9, 28920, Note_on_c, 11, 77, 127
9, 28970, Note_on_c, 11, 77, 0
9, 28970, Note_on_c, 11, 86, 0
9, 28980, Note_on_c, 11, 77, 127
9, 28980, Note_on_c, 11, 86, 127
9, 29030, Note_on_c, 11, 86, 0
9, 29030, Note_on_c, 11, 77, 0
9, 29040, Note_on_c, 11, 87, 127
9, 29040, Note_on_c, 11, 79, 127
9, 29160, Note_on_c, 11, 79, 0
9, 29160, Note_on_c, 11, 87, 0
9, 30060, Note_on_c, 11, 61, 127
9, 30110, Note_on_c, 11, 61, 0
9, 30120, Note_on_c, 11, 61, 127
9, 30170, Note_on_c, 11, 61, 0
9, 30180, Note_on_c, 11, 61, 127
9, 30230, Note_on_c, 11, 61, 0
9, 30240, Note_on_c, 11, 60, 127
9, 30720, Note_on_c, 11, 60, 0
9, 31260, Note_on_c, 11, 80, 50
9, 31310, Note_on_c, 11, 80, 0
9, 31320, Note_on_c, 11, 80, 50
9, 31370, Note_on_c, 11, 80, 0
9, 31380, Note_on_c, 11, 80, 50
9, 31430, Note_on_c, 11, 80, 0
9, 31440, Note_on_c, 11, 77, 50
9, 31800, Note_on_c, 11, 77, 0
9, 32220, Note_on_c, 11, 82, 50
9, 32270, Note_on_c, 11, 82, 0
9, 32280, Note_on_c, 11, 82, 50
9, 32330, Note_on_c, 11, 82, 0
9, 32340, Note_on_c, 11, 82, 50
9, 32390, Note_on_c, 11, 82, 0
9, 32400, Note_on_c, 11, 79, 50
9, 32690, Note_on_c, 11, 79, 0
9, 32700, Note_on_c, 11, 84, 50
9, 32750, Note_on_c, 11, 84, 0
9, 32760, Note_on_c, 11, 84, 50
9, 32810, Note_on_c, 11, 84, 0
9, 32820, Note_on_c, 11, 82, 50
9, 32870, Note_on_c, 11, 82, 0
9, 32880, Note_on_c, 11, 80, 50
9, 33120, Note_on_c, 11, 80, 0
9, 33120, Note_on_c, 11, 79, 50
9, 33170, Note_on_c, 11, 79, 0
9, 33180, Note_on_c, 11, 84, 50
9, 33230, Note_on_c, 11, 84, 0
9, 33240, Note_on_c, 11, 84, 50
9, 33290, Note_on_c, 11, 84, 0
9, 33300, Note_on_c, 11, 82, 50
9, 33350, Note_on_c, 11, 82, 0
9, 33360, Note_on_c, 11, 80, 50
9, 33600, Note_on_c, 11, 80, 0
9, 33600, Note_on_c, 11, 79, 50
9, 33650, Note_on_c, 11, 79, 0
9, 33660, Note_on_c, 11, 84, 50
9, 33710, Note_on_c, 11, 84, 0
9, 33720, Note_on_c, 11, 84, 50
9, 33770, Note_on_c, 11, 84, 0
9, 33780, Note_on_c, 11, 82, 50
9, 33830, Note_on_c, 11, 82, 0
9, 33840, Note_on_c, 11, 80, 50
9, 33890, Note_on_c, 11, 80, 0
9, 33900, Note_on_c, 11, 80, 54
9, 33950, Note_on_c, 11, 80, 0
9, 33960, Note_on_c, 11, 80, 58
9, 34010, Note_on_c, 11, 80, 0
9, 34020, Note_on_c, 11, 79, 62
9, 34070, Note_on_c, 11, 79, 0
9, 34080, Note_on_c, 11, 77, 66
9, 34130, Note_on_c, 11, 77, 0
9, 34140, Note_on_c, 11, 77, 70
9, 34190, Note_on_c, 11, 77, 0
9, 34200, Note_on_c, 11, 77, 75
9, 34250, Note_on_c, 11, 77, 0
9, 34260, Note_on_c, 11, 75, 79
9, 34310, Note_on_c, 11, 75, 0
9, 34320, Note_on_c, 11, 74, 83
9, 34370, Note_on_c, 11, 74, 0
9, 34380, Note_on_c, 11, 74, 87
9, 34430, Note_on_c, 11, 74, 0
9, 34440, Note_on_c, 11, 74, 91
9, 34490, Note_on_c, 11, 74, 0
9, 34500, Note_on_c, 11, 72, 95
9, 34550, Note_on_c, 11, 72, 0
9, 34560, Note_on_c, 11, 71, 50
9, 34680, Note_on_c, 11, 71, 0
9, 34860, Note_on_c, 11, 75, 50
9, 34910, Note_on_c, 11, 75, 0
9, 34920, Note_on_c, 11, 75, 50
9, 34970, Note_on_c, 11, 75, 0
9, 34980, Note_on_c, 11, 77, 50
9, 35030, Note_on_c, 11, 77, 0
9, 35040, Note_on_c, 11, 79, 50
9, 35330, Note_on_c, 11, 79, 0
9, 35340, Note_on_c, 11, 75, 50
9, 35390, Note_on_c, 11, 75, 0
9, 35400, Note_on_c, 11, 75, 50
9, 35450, Note_on_c, 11, 75, 0
9, 35460, Note_on_c, 11, 77, 50
9, 35510, Note_on_c, 11, 77, 0
9, 35520, Note_on_c, 11, 79, 50
9, 36000, Note_on_c, 11, 79, 0
9, 36000, Note_on_c, 11, 81, 66
9, 36120, Note_on_c, 11, 81, 0
9, 36120, Note_on_c, 11, 82, 75
9, 36240, Note_on_c, 11, 82, 0
9, 36240, Note_on_c, 11, 84, 83
9, 36360, Note_on_c, 11, 84, 0
9, 36360, Note_on_c, 11, 85, 91
9, 36470, Note_on_c, 11, 85, 0
9, 36480, Note_on_c, 11, 74, 50
9, 36480, Note_on_c, 11, 86, 50
9, 36960, Note_on_c, 11, 86, 0
9, 36960, Note_on_c, 11, 74, 0
9, 36960, Note_on_c, 11, 86, 50
9, 36960, Note_on_c, 11, 74, 50
9, 37440, Note_on_c, 11, 74, 0
9, 37440, Note_on_c, 11, 86, 0
9, 37440, Note_on_c, 11, 74, 50
9, 37440, Note_on_c, 11, 86, 50
9, 37730, Note_on_c, 11, 86, 0
9, 37730, Note_on_c, 11, 74, 0
9, 37740, Note_on_c, 11, 79, 50
9, 37790, Note_on_c, 11, 79, 0
9, 37800, Note_on_c, 11, 79, 50
9, 37850, Note_on_c, 11, 79, 0
9, 37860, Note_on_c, 11, 81, 50
9, 37910, Note_on_c, 11, 81, 0
9, 37920, Note_on_c, 11, 82, 50
9, 38040, Note_on_c, 11, 82, 0
9, 38220, Note_on_c, 11, 78, 50
9, 38270, Note_on_c, 11, 78, 0
9, 38280, Note_on_c, 11, 81, 50
9, 38330, Note_on_c, 11, 81, 0
9, 38340, Note_on_c, 11, 82, 50
9, 38390, Note_on_c, 11, 82, 0
9, 38400, Note_on_c, 11, 84, 50
9, 38520, Note_on_c, 11, 84, 0
9, 38700, Note_on_c, 11, 78, 50
9, 38750, Note_on_c, 11, 78, 0
9, 38760, Note_on_c, 11, 81, 50
9, 38810, Note_on_c, 11, 81, 0
9, 38820, Note_on_c, 11, 82, 50
9, 38870, Note_on_c, 11, 82, 0
9, 38880, Note_on_c, 11, 84, 50
9, 39000, Note_on_c, 11, 84, 0
9, 39180, Note_on_c, 11, 79, 50
9, 39230, Note_on_c, 11, 79, 0
9, 39240, Note_on_c, 11, 82, 50
9, 39290, Note_on_c, 11, 82, 0
9, 39300, Note_on_c, 11, 84, 50
9, 39350, Note_on_c, 11, 84, 0
9, 39360, Note_on_c, 11, 86, 50
9, 39480, Note_on_c, 11, 86, 0
9, 39660, Note_on_c, 11, 79, 56
9, 39710, Note_on_c, 11, 79, 0
9, 39720, Note_on_c, 11, 82, 62
9, 39770, Note_on_c, 11, 82, 0
9, 39780, Note_on_c, 11, 84, 68
9, 39830, Note_on_c, 11, 84, 0
9, 39840, Note_on_c, 11, 86, 75
9, 39890, Note_on_c, 11, 86, 0
9, 39900, Note_on_c, 11, 82, 81
9, 39950, Note_on_c, 11, 82, 0
9, 39960, Note_on_c, 11, 84, 87
9, 40010, Note_on_c, 11, 84, 0
9, 40020, Note_on_c, 11, 86, 93
9, 40070, Note_on_c, 11, 86, 0
9, 40080, Note_on_c, 11, 75, 100
9, 40080, Note_on_c, 11, 87, 100
9, 40130, Note_on_c, 11, 87, 0
9, 40130, Note_on_c, 11, 75, 0
9, 40140, Note_on_c, 11, 75, 100
9, 40140, Note_on_c, 11, 87, 100
9, 40190, Note_on_c, 11, 87, 0
9, 40190, Note_on_c, 11, 75, 0
9, 40200, Note_on_c, 11, 75, 100
9, 40200, Note_on_c, 11, 87, 100
9, 40250, Note_on_c, 11, 87, 0
9, 40250, Note_on_c, 11, 75, 0
9, 40260, Note_on_c, 11, 75, 100
9, 40260, Note_on_c, 11, 87, 100
9, 40310, Note_on_c, 11, 87, 0
9, 40310, Note_on_c, 11, 75, 0
9, 40320, Note_on_c, 11, 87, 100
9, 40320, Note_on_c, 11, 75, 100
9, 40370, Note_on_c, 11, 75, 0
9, 40370, Note_on_c, 11, 87, 0
9, 40380, Note_on_c, 11, 75, 100
9, 40380, Note_on_c, 11, 87, 100
9, 40430, Note_on_c, 11, 87, 0
9, 40430, Note_on_c, 11, 75, 0
9, 40440, Note_on_c, 11, 87, 100
9, 40440, Note_on_c, 11, 75, 100
9, 40490, Note_on_c, 11, 75, 0
9, 40490, Note_on_c, 11, 87, 0
9, 40500, Note_on_c, 11, 87, 100
9, 40500, Note_on_c, 11, 75, 100
9, 40550, Note_on_c, 11, 75, 0
9, 40550, Note_on_c, 11, 87, 0
9, 40560, Note_on_c, 11, 87, 100
9, 40560, Note_on_c, 11, 75, 100
9, 40680, Note_on_c, 11, 75, 0
9, 40680, Note_on_c, 11, 87, 0
9, 40860, Note_on_c, 11, 88, 100
9, 40860, Note_on_c, 11, 76, 100
9, 40910, Note_on_c, 11, 76, 0
9, 40910, Note_on_c, 11, 88, 0
9, 40920, Note_on_c, 11, 88, 100
9, 40920, Note_on_c, 11, 76, 100
9, 40970, Note_on_c, 11, 76, 0
9, 40970, Note_on_c, 11, 88, 0
9, 40980, Note_on_c, 11, 76, 100
9, 40980, Note_on_c, 11, 88, 100
9, 41030, Note_on_c, 11, 88, 0
9, 41030, Note_on_c, 11, 76, 0
9, 41040, Note_on_c, 11, 88, 100
9, 41040, Note_on_c, 11, 76, 100
9, 41090, Note_on_c, 11, 76, 0
9, 41090, Note_on_c, 11, 88, 0
9, 41100, Note_on_c, 11, 76, 100
9, 41100, Note_on_c, 11, 88, 100
9, 41150, Note_on_c, 11, 88, 0
9, 41150, Note_on_c, 11, 76, 0
9, 41160, Note_on_c, 11, 88, 100
9, 41160, Note_on_c, 11, 76, 100
9, 41210, Note_on_c, 11, 76, 0
9, 41210, Note_on_c, 11, 88, 0
9, 41220, Note_on_c, 11, 76, 100
9, 41220, Note_on_c, 11, 88, 100
9, 41270, Note_on_c, 11, 88, 0
9, 41270, Note_on_c, 11, 76, 0
9, 41280, Note_on_c, 11, 76, 100
9, 41280, Note_on_c, 11, 88, 100
9, 41330, Note_on_c, 11, 88, 0
9, 41330, Note_on_c, 11, 76, 0
9, 41340, Note_on_c, 11, 76, 100
9, 41340, Note_on_c, 11, 88, 100
9, 41390, Note_on_c, 11, 88, 0
9, 41390, Note_on_c, 11, 76, 0
9, 41400, Note_on_c, 11, 76, 100
9, 41400, Note_on_c, 11, 88, 100
9, 41450, Note_on_c, 11, 88, 0
9, 41450, Note_on_c, 11, 76, 0
9, 41460, Note_on_c, 11, 88, 100
9, 41460, Note_on_c, 11, 76, 100
9, 41510, Note_on_c, 11, 76, 0
9, 41510, Note_on_c, 11, 88, 0
9, 41520, Note_on_c, 11, 76, 100
9, 41520, Note_on_c, 11, 88, 100
9, 41640, Note_on_c, 11, 88, 0
9, 41640, Note_on_c, 11, 76, 0
9, 41820, Note_on_c, 11, 74, 104
9, 41820, Note_on_c, 11, 86, 104
9, 41870, Note_on_c, 11, 86, 0
9, 41870, Note_on_c, 11, 74, 0
9, 41880, Note_on_c, 11, 86, 106
9, 41880, Note_on_c, 11, 74, 106
9, 41930, Note_on_c, 11, 74, 0
9, 41930, Note_on_c, 11, 86, 0
9, 41940, Note_on_c, 11, 74, 107
9, 41940, Note_on_c, 11, 86, 107
9, 41990, Note_on_c, 11, 86, 0
9, 41990, Note_on_c, 11, 74, 0
9, 42000, Note_on_c, 11, 86, 109
9, 42000, Note_on_c, 11, 74, 109
9, 42120, Note_on_c, 11, 74, 0
9, 42120, Note_on_c, 11, 86, 0
9, 42360, Note_on_c, 11, 85, 118
9, 42410, Note_on_c, 11, 85, 0
9, 42420, Note_on_c, 11, 85, 119
9, 42470, Note_on_c, 11, 85, 0
9, 42480, Note_on_c, 11, 85, 121
9, 42590, Note_on_c, 11, 85, 0
9, 42600, Note_on_c, 11, 86, 124
9, 42650, Note_on_c, 11, 86, 0
9, 42660, Note_on_c, 11, 86, 125
9, 42710, Note_on_c, 11, 86, 0
9, 42720, Note_on_c, 11, 86, 127
9, 42770, Note_on_c, 11, 86, 0
9, 42780, Note_on_c, 11, 86, 127
9, 42830, Note_on_c, 11, 86, 0
9, 42840, Note_on_c, 11, 86, 127
9, 42890, Note_on_c, 11, 86, 0
9, 42900, Note_on_c, 11, 86, 127
9, 42950, Note_on_c, 11, 86, 0
9, 42960, Note_on_c, 11, 79, 127
9, 43180, Note_on_c, 11, 79, 0
9, 43200, Note_on_c, 11, 81, 127
9, 43420, Note_on_c, 11, 81, 0
9, 43440, Note_on_c, 11, 74, 127
9, 43500, Note_on_c, 11, 74, 0
9, 43500, Note_on_c, 11, 74, 127
9, 44270, Note_on_c, 11, 74, 0
9, 44280, Note_on_c, 11, 78, 127
9, 44330, Note_on_c, 11, 78, 0
9, 44340, Note_on_c, 11, 78, 127
9, 44390, Note_on_c, 11, 78, 0
9, 44400, Note_on_c, 11, 81, 127
9, 44510, Note_on_c, 11, 81, 0
9, 44520, Note_on_c, 11, 86, 127
9, 44570, Note_on_c, 11, 86, 0
9, 44580, Note_on_c, 11, 86, 127
9, 44630, Note_on_c, 11, 86, 0
9, 44640, Note_on_c, 11, 83, 127
9, 44690, Note_on_c, 11, 83, 0
9, 44700, Note_on_c, 11, 79, 127
9, 44750, Note_on_c, 11, 79, 0
9, 44760, Note_on_c, 11, 79, 127
9, 44810, Note_on_c, 11, 79, 0
9, 44820, Note_on_c, 11, 79, 127
9, 44870, Note_on_c, 11, 79, 0
9, 44880, Note_on_c, 11, 72, 127
9, 45100, Note_on_c, 11, 72, 0
9, 45120, Note_on_c, 11, 74, 127
9, 45340, Note_on_c, 11, 74, 0
9, 45360, Note_on_c, 11, 67, 127
9, 45420, Note_on_c, 11, 67, 0
9, 45420, Note_on_c, 11, 67, 127
9, 46190, Note_on_c, 11, 67, 0
9, 46200, Note_on_c, 11, 71, 127
9, 46250, Note_on_c, 11, 71, 0
9, 46260, Note_on_c, 11, 71, 127
9, 46310, Note_on_c, 11, 71, 0
9, 46320, Note_on_c, 11, 74, 127
9, 46430, Note_on_c, 11, 74, 0
9, 46440, Note_on_c, 11, 79, 127
9, 46490, Note_on_c, 11, 79, 0
9, 46500, Note_on_c, 11, 79, 127
9, 46550, Note_on_c, 11, 79, 0
9, 46560, Note_on_c, 11, 76, 127
9, 46680, Note_on_c, 11, 76, 0
9, 47280, Note_on_c, 11, 64, 127
9, 47280, Note_on_c, 11, 55, 127
9, 47510, Note_on_c, 11, 55, 0
9, 47510, Note_on_c, 11, 64, 0
9, 47520, Note_on_c, 11, 65, 127
9, 47520, Note_on_c, 11, 56, 127
9, 47760, Note_on_c, 11, 56, 0
9, 47760, Note_on_c, 11, 65, 0
9, 48240, Note_on_c, 11, 55, 127
9, 48240, Note_on_c, 11, 64, 127
9, 48470, Note_on_c, 11, 64, 0
9, 48470, Note_on_c, 11, 55, 0
9, 48480, Note_on_c, 11, 65, 127
9, 48480, Note_on_c, 11, 56, 127
9, 48720, Note_on_c, 11, 56, 0
9, 48720, Note_on_c, 11, 65, 0
9, 49200, Note_on_c, 11, 66, 127
9, 49430, Note_on_c, 11, 66, 0
9, 49440, Note_on_c, 11, 69, 127
9, 49680, Note_on_c, 11, 69, 0
9, 50160, Note_on_c, 11, 70, 127
9, 50400, Note_on_c, 11, 70, 0
9, 50640, Note_on_c, 11, 71, 97
9, 50880, Note_on_c, 11, 71, 0
9, 51120, Note_on_c, 11, 73, 66
9, 51360, Note_on_c, 11, 73, 0
9, 51600, Note_on_c, 11, 61, 50
9, 51840, Note_on_c, 11, 61, 0
9, 52080, Note_on_c, 11, 61, 50
9, 52320, Note_on_c, 11, 61, 0
9, 52560, Note_on_c, 11, 61, 50
9, 52800, Note_on_c, 11, 61, 0
9, 53040, Note_on_c, 11, 62, 50
9, 53280, Note_on_c, 11, 62, 0
9, 53520, Note_on_c, 11, 62, 50
9, 53760, Note_on_c, 11, 62, 0
9, 54000, Note_on_c, 11, 62, 50
9, 54240, Note_on_c, 11, 62, 0
9, 54480, Note_on_c, 11, 62, 127
9, 54530, Note_on_c, 11, 62, 0
9, 54540, Note_on_c, 11, 74, 127
9, 54590, Note_on_c, 11, 74, 0
9, 54600, Note_on_c, 11, 74, 127
9, 54650, Note_on_c, 11, 74, 0
9, 54660, Note_on_c, 11, 74, 127
9, 54710, Note_on_c, 11, 74, 0
9, 54720, Note_on_c, 11, 71, 127
9, 54950, Note_on_c, 11, 71, 0
9, 54960, Note_on_c, 11, 72, 127
9, 55190, Note_on_c, 11, 72, 0
9, 55200, Note_on_c, 11, 69, 127
9, 55680, Note_on_c, 11, 69, 0
9, 55920, Note_on_c, 11, 62, 50
9, 56160, Note_on_c, 11, 62, 0
9, 56400, Note_on_c, 11, 62, 50
9, 56640, Note_on_c, 11, 62, 0
9, 56880, Note_on_c, 11, 62, 50
9, 57120, Note_on_c, 11, 62, 0
9, 57360, Note_on_c, 11, 62, 127
9, 57480, Note_on_c, 11, 62, 0
9, 57660, Note_on_c, 11, 80, 127
9, 57710, Note_on_c, 11, 80, 0
9, 57720, Note_on_c, 11, 80, 127
9, 57770, Note_on_c, 11, 80, 0
9, 57780, Note_on_c, 11, 80, 127
9, 57830, Note_on_c, 11, 80, 0
9, 57840, Note_on_c, 11, 77, 127
9, 58130, Note_on_c, 11, 77, 0
9, 58140, Note_on_c, 11, 80, 127
9, 58190, Note_on_c, 11, 80, 0
9, 58200, Note_on_c, 11, 80, 127
9, 58250, Note_on_c, 11, 80, 0
9, 58260, Note_on_c, 11, 80, 127
9, 58310, Note_on_c, 11, 80, 0
9, 58320, Note_on_c, 11, 77, 127
9, 58610, Note_on_c, 11, 77, 0
9, 58620, Note_on_c, 11, 80, 127
9, 58670, Note_on_c, 11, 80, 0
9, 58680, Note_on_c, 11, 80, 127
9, 58730, Note_on_c, 11, 80, 0
9, 58740, Note_on_c, 11, 80, 127
9, 58790, Note_on_c, 11, 80, 0
9, 58800, Note_on_c, 11, 77, 127
9, 58850, Note_on_c, 11, 77, 0
9, 58860, Note_on_c, 11, 80, 127
9, 58910, Note_on_c, 11, 80, 0
9, 58920, Note_on_c, 11, 80, 127
9, 58970, Note_on_c, 11, 80, 0
9, 58980, Note_on_c, 11, 80, 127
9, 59030, Note_on_c, 11, 80, 0
9, 59040, Note_on_c, 11, 77, 127
9, 59090, Note_on_c, 11, 77, 0
9, 59100, Note_on_c, 11, 80, 127
9, 59150, Note_on_c, 11, 80, 0
9, 59160, Note_on_c, 11, 80, 127
9, 59210, Note_on_c, 11, 80, 0
9, 59220, Note_on_c, 11, 80, 127
9, 59270, Note_on_c, 11, 80, 0
9, 59280, Note_on_c, 11, 77, 127
9, 59330, Note_on_c, 11, 77, 0
9, 59340, Note_on_c, 11, 79, 127
9, 59390, Note_on_c, 11, 79, 0
9, 59400, Note_on_c, 11, 79, 127
9, 59450, Note_on_c, 11, 79, 0
9, 59460, Note_on_c, 11, 79, 127
9, 59510, Note_on_c, 11, 79, 0
9, 59520, Note_on_c, 11, 75, 127
9, 60240, Note_on_c, 11, 75, 0
9, 60300, Note_on_c, 11, 77, 127
9, 60350, Note_on_c, 11, 77, 0
9, 60360, Note_on_c, 11, 77, 127
9, 60410, Note_on_c, 11, 77, 0
9, 60420, Note_on_c, 11, 77, 127
9, 60470, Note_on_c, 11, 77, 0
9, 60480, Note_on_c, 11, 74, 127
9, 61440, Note_on_c, 11, 74, 0
9, 61740, Note_on_c, 11, 68, 50
9, 61790, Note_on_c, 11, 68, 0
9, 61800, Note_on_c, 11, 68, 50
9, 61850, Note_on_c, 11, 68, 0
9, 61860, Note_on_c, 11, 68, 50
9, 61910, Note_on_c, 11, 68, 0
9, 61920, Note_on_c, 11, 67, 50
9, 61970, Note_on_c, 11, 67, 0
9, 61980, Note_on_c, 11, 75, 50
9, 62030, Note_on_c, 11, 75, 0
9, 62040, Note_on_c, 11, 75, 50
9, 62090, Note_on_c, 11, 75, 0
9, 62100, Note_on_c, 11, 75, 50
9, 62150, Note_on_c, 11, 75, 0
9, 62160, Note_on_c, 11, 72, 50
9, 62280, Note_on_c, 11, 72, 0
9, 62700, Note_on_c, 11, 68, 50
9, 62750, Note_on_c, 11, 68, 0
9, 62760, Note_on_c, 11, 68, 50
9, 62810, Note_on_c, 11, 68, 0
9, 62820, Note_on_c, 11, 68, 50
9, 62870, Note_on_c, 11, 68, 0
9, 62880, Note_on_c, 11, 67, 50
9, 62930, Note_on_c, 11, 67, 0
9, 62940, Note_on_c, 11, 77, 50
9, 62990, Note_on_c, 11, 77, 0
9, 63000, Note_on_c, 11, 77, 50
9, 63050, Note_on_c, 11, 77, 0
9, 63060, Note_on_c, 11, 77, 50
9, 63110, Note_on_c, 11, 77, 0
9, 63120, Note_on_c, 11, 74, 50
9, 63410, Note_on_c, 11, 74, 0
9, 63420, Note_on_c, 11, 79, 50
9, 63470, Note_on_c, 11, 79, 0
9, 63480, Note_on_c, 11, 79, 50
9, 63530, Note_on_c, 11, 79, 0
9, 63540, Note_on_c, 11, 77, 50
9, 63590, Note_on_c, 11, 77, 0
9, 63600, Note_on_c, 11, 75, 50
9, 63830, Note_on_c, 11, 75, 0
9, 63840, Note_on_c, 11, 74, 50
9, 63890, Note_on_c, 11, 74, 0
9, 63900, Note_on_c, 11, 79, 50
9, 63950, Note_on_c, 11, 79, 0
9, 63960, Note_on_c, 11, 79, 50
9, 64010, Note_on_c, 11, 79, 0
9, 64020, Note_on_c, 11, 77, 50
9, 64070, Note_on_c, 11, 77, 0
9, 64080, Note_on_c, 11, 75, 50
9, 64310, Note_on_c, 11, 75, 0
9, 64320, Note_on_c, 11, 74, 50
9, 64370, Note_on_c, 11, 74, 0
9, 64380, Note_on_c, 11, 79, 50
9, 64430, Note_on_c, 11, 79, 0
9, 64440, Note_on_c, 11, 79, 50
9, 64490, Note_on_c, 11, 79, 0
9, 64500, Note_on_c, 11, 77, 50
9, 64550, Note_on_c, 11, 77, 0
9, 64560, Note_on_c, 11, 75, 50
9, 64680, Note_on_c, 11, 75, 0
9, 64800, Note_on_c, 11, 56, 50
9, 64800, Note_on_c, 11, 72, 50
9, 64800, Note_on_c, 11, 66, 50
9, 64920, Note_on_c, 11, 66, 0
9, 64920, Note_on_c, 11, 72, 0
9, 64920, Note_on_c, 11, 56, 0
9, 65040, Note_on_c, 11, 62, 50
9, 65040, Note_on_c, 11, 79, 50
9, 65040, Note_on_c, 11, 71, 50
9, 65040, Note_on_c, 11, 55, 50
9, 65160, Note_on_c, 11, 55, 0
9, 65160, Note_on_c, 11, 62, 0
9, 65160, Note_on_c, 11, 79, 0
9, 65160, Note_on_c, 11, 71, 0
9, 66300, Note_on_c, 11, 68, 50
9, 66350, Note_on_c, 11, 68, 0
9, 66360, Note_on_c, 11, 68, 50
9, 66410, Note_on_c, 11, 68, 0
9, 66420, Note_on_c, 11, 68, 50
9, 66470, Note_on_c, 11, 68, 0
9, 66480, Note_on_c, 11, 65, 50
9, 67190, Note_on_c, 11, 65, 0
9, 67200, Note_on_c, 11, 63, 50
9, 67250, Note_on_c, 11, 63, 0
9, 67260, Note_on_c, 11, 68, 53
9, 67310, Note_on_c, 11, 68, 0
9, 67320, Note_on_c, 11, 68, 56
9, 67370, Note_on_c, 11, 68, 0
9, 67380, Note_on_c, 11, 68, 59
9, 67430, Note_on_c, 11, 68, 0
9, 67440, Note_on_c, 11, 65, 62
9, 67490, Note_on_c, 11, 65, 0
9, 67500, Note_on_c, 11, 62, 65
9, 67550, Note_on_c, 11, 62, 0
9, 67560, Note_on_c, 11, 62, 68
9, 67610, Note_on_c, 11, 62, 0
9, 67620, Note_on_c, 11, 62, 71
9, 67670, Note_on_c, 11, 62, 0
9, 67680, Note_on_c, 11, 59, 75
9, 67730, Note_on_c, 11, 59, 0
9, 67740, Note_on_c, 11, 56, 78
9, 67790, Note_on_c, 11, 56, 0
9, 67800, Note_on_c, 11, 56, 81
9, 67850, Note_on_c, 11, 56, 0
9, 67860, Note_on_c, 11, 56, 84
9, 67910, Note_on_c, 11, 56, 0
9, 67920, Note_on_c, 11, 55, 87
9, 67970, Note_on_c, 11, 55, 0
9, 67980, Note_on_c, 11, 71, 90
9, 68030, Note_on_c, 11, 71, 0
9, 68040, Note_on_c, 11, 71, 93
9, 68090, Note_on_c, 11, 71, 0
9, 68100, Note_on_c, 11, 71, 96
9, 68150, Note_on_c, 11, 71, 0
9, 68160, Note_on_c, 11, 72, 100
9, 68210, Note_on_c, 11, 72, 0
9, 68220, Note_on_c, 11, 67, 100
9, 68270, Note_on_c, 11, 67, 0
9, 68280, Note_on_c, 11, 72, 100
9, 68330, Note_on_c, 11, 72, 0
9, 68340, Note_on_c, 11, 72, 100
9, 68390, Note_on_c, 11, 72, 0
9, 68400, Note_on_c, 11, 72, 100
9, 68630, Note_on_c, 11, 72, 0
9, 68640, Note_on_c, 11, 71, 100
9, 68690, Note_on_c, 11, 71, 0
9, 68700, Note_on_c, 11, 71, 100
9, 68750, Note_on_c, 11, 71, 0
9, 68760, Note_on_c, 11, 71, 100
9, 68810, Note_on_c, 11, 71, 0
9, 68820, Note_on_c, 11, 74, 100
9, 68870, Note_on_c, 11, 74, 0
9, 68880, Note_on_c, 11, 74, 100
9, 69110, Note_on_c, 11, 74, 0
9, 69120, Note_on_c, 11, 72, 100
9, 69170, Note_on_c, 11, 72, 0
9, 69180, Note_on_c, 11, 72, 100
9, 69230, Note_on_c, 11, 72, 0
9, 69240, Note_on_c, 11, 72, 100
9, 69290, Note_on_c, 11, 72, 0
9, 69300, Note_on_c, 11, 75, 100
9, 69350, Note_on_c, 11, 75, 0
9, 69360, Note_on_c, 11, 75, 100
9, 69420, Note_on_c, 11, 75, 0
9, 69420, Note_on_c, 11, 74, 100
9, 69470, Note_on_c, 11, 74, 0
9, 69480, Note_on_c, 11, 74, 100
9, 69525, Note_on_c, 11, 74, 0
9, 69540, Note_on_c, 11, 77, 100
9, 69585, Note_on_c, 11, 77, 0
9, 69600, Note_on_c, 11, 77, 100
9, 69660, Note_on_c, 11, 77, 0
9, 69660, Note_on_c, 11, 76, 100
9, 69710, Note_on_c, 11, 76, 0
9, 69720, Note_on_c, 11, 76, 100
9, 69765, Note_on_c, 11, 76, 0
9, 69780, Note_on_c, 11, 79, 100
9, 69825, Note_on_c, 11, 79, 0
9, 69840, Note_on_c, 11, 79, 100
9, 69900, Note_on_c, 11, 79, 0
9, 69900, Note_on_c, 11, 77, 100
9, 69950, Note_on_c, 11, 77, 0
9, 69960, Note_on_c, 11, 77, 100
9, 70005, Note_on_c, 11, 77, 0
9, 70020, Note_on_c, 11, 80, 100
9, 70065, Note_on_c, 11, 80, 0
9, 70080, Note_on_c, 11, 80, 100
9, 70140, Note_on_c, 11, 80, 0
9, 70140, Note_on_c, 11, 79, 100
9, 70190, Note_on_c, 11, 79, 0
9, 70200, Note_on_c, 11, 79, 100
9, 70245, Note_on_c, 11, 79, 0
9, 70260, Note_on_c, 11, 82, 100
9, 70305, Note_on_c, 11, 82, 0
9, 70320, Note_on_c, 11, 82, 100
9, 70380, Note_on_c, 11, 82, 0
9, 70380, Note_on_c, 11, 80, 100
9, 70430, Note_on_c, 11, 80, 0
9, 70440, Note_on_c, 11, 80, 100
9, 70485, Note_on_c, 11, 80, 0
9, 70500, Note_on_c, 11, 84, 100
9, 70545, Note_on_c, 11, 84, 0
9, 70560, Note_on_c, 11, 84, 100
9, 70620, Note_on_c, 11, 84, 0
9, 70620, Note_on_c, 11, 83, 100
9, 70670, Note_on_c, 11, 83, 0
9, 70680, Note_on_c, 11, 83, 100
9, 70725, Note_on_c, 11, 83, 0
9, 70740, Note_on_c, 11, 86, 100
9, 70785, Note_on_c, 11, 86, 0
9, 70800, Note_on_c, 11, 84, 100
9, 70850, Note_on_c, 11, 84, 0
9, 70860, Note_on_c, 11, 87, 100
9, 70910, Note_on_c, 11, 87, 0
9, 70920, Note_on_c, 11, 87, 100
9, 70970, Note_on_c, 11, 87, 0
9, 70980, Note_on_c, 11, 87, 100
9, 71030, Note_on_c, 11, 87, 0
9, 71040, Note_on_c, 11, 84, 100
9, 71090, Note_on_c, 11, 84, 0
9, 71100, Note_on_c, 11, 79, 100
9, 71150, Note_on_c, 11, 79, 0
9, 71160, Note_on_c, 11, 79, 100
9, 71210, Note_on_c, 11, 79, 0
9, 71220, Note_on_c, 11, 79, 100
9, 71270, Note_on_c, 11, 79, 0
9, 71280, Note_on_c, 11, 75, 100
9, 71330, Note_on_c, 11, 75, 0
9, 71340, Note_on_c, 11, 72, 100
9, 71390, Note_on_c, 11, 72, 0
9, 71400, Note_on_c, 11, 67, 100
9, 71450, Note_on_c, 11, 67, 0
9, 71460, Note_on_c, 11, 67, 100
9, 71510, Note_on_c, 11, 67, 0
9, 71520, Note_on_c, 11, 63, 100
9, 71570, Note_on_c, 11, 63, 0
9, 71580, Note_on_c, 11, 60, 100
9, 71630, Note_on_c, 11, 60, 0
9, 71640, Note_on_c, 11, 60, 100
9, 71690, Note_on_c, 11, 60, 0
9, 71700, Note_on_c, 11, 60, 100
9, 71750, Note_on_c, 11, 60, 0
9, 71760, Note_on_c, 11, 59, 100
9, 71810, Note_on_c, 11, 59, 0
9, 71820, Note_on_c, 11, 89, 100
9, 71870, Note_on_c, 11, 89, 0
9, 71880, Note_on_c, 11, 86, 100
9, 71930, Note_on_c, 11, 86, 0
9, 71940, Note_on_c, 11, 86, 100
9, 71990, Note_on_c, 11, 86, 0
9, 72000, Note_on_c, 11, 83, 100
9, 72050, Note_on_c, 11, 83, 0
9, 72060, Note_on_c, 11, 79, 100
9, 72110, Note_on_c, 11, 79, 0
9, 72120, Note_on_c, 11, 77, 100
9, 72170, Note_on_c, 11, 77, 0
9, 72180, Note_on_c, 11, 77, 100
9, 72230, Note_on_c, 11, 77, 0
9, 72240, Note_on_c, 11, 74, 100
9, 72290, Note_on_c, 11, 74, 0
9, 72300, Note_on_c, 11, 71, 100
9, 72350, Note_on_c, 11, 71, 0
9, 72360, Note_on_c, 11, 67, 100
9, 72410, Note_on_c, 11, 67, 0
9, 72420, Note_on_c, 11, 65, 100
9, 72470, Note_on_c, 11, 65, 0
9, 72480, Note_on_c, 11, 62, 100
9, 72530, Note_on_c, 11, 62, 0
9, 72540, Note_on_c, 11, 59, 100
9, 72590, Note_on_c, 11, 59, 0
9, 72600, Note_on_c, 11, 60, 100
9, 72650, Note_on_c, 11, 60, 0
9, 72660, Note_on_c, 11, 60, 100
9, 72710, Note_on_c, 11, 60, 0
9, 72720, Note_on_c, 11, 60, 127
9, 72770, Note_on_c, 11, 60, 0
9, 72780, Note_on_c, 11, 87, 127
9, 72830, Note_on_c, 11, 87, 0
9, 72840, Note_on_c, 11, 87, 127
9, 72890, Note_on_c, 11, 87, 0
9, 72900, Note_on_c, 11, 87, 127
9, 72950, Note_on_c, 11, 87, 0
9, 72960, Note_on_c, 11, 84, 127
9, 73010, Note_on_c, 11, 84, 0
9, 73020, Note_on_c, 11, 81, 127
9, 73070, Note_on_c, 11, 81, 0
9, 73080, Note_on_c, 11, 81, 127
9, 73130, Note_on_c, 11, 81, 0
9, 73140, Note_on_c, 11, 81, 127
9, 73190, Note_on_c, 11, 81, 0
9, 73200, Note_on_c, 11, 78, 127
9, 73250, Note_on_c, 11, 78, 0
9, 73260, Note_on_c, 11, 75, 127
9, 73310, Note_on_c, 11, 75, 0
9, 73320, Note_on_c, 11, 75, 127
9, 73370, Note_on_c, 11, 75, 0
9, 73380, Note_on_c, 11, 75, 127
9, 73430, Note_on_c, 11, 75, 0
9, 73440, Note_on_c, 11, 72, 127
9, 73490, Note_on_c, 11, 72, 0
9, 73500, Note_on_c, 11, 69, 127
9, 73550, Note_on_c, 11, 69, 0
9, 73560, Note_on_c, 11, 69, 127
9, 73610, Note_on_c, 11, 69, 0
9, 73620, Note_on_c, 11, 69, 127
9, 73670, Note_on_c, 11, 69, 0
9, 73680, Note_on_c, 11, 66, 127
9, 73800, Note_on_c, 11, 66, 0
9, 74160, Note_on_c, 11, 55, 127
9, 74160, Note_on_c, 11, 67, 127
9, 74280, Note_on_c, 11, 67, 0
9, 74280, Note_on_c, 11, 55, 0
9, 75360, Note_on_c, 11, 67, 50
9, 75480, Note_on_c, 11, 67, 0
9, 75480, Note_on_c, 11, 72, 50
9, 75600, Note_on_c, 11, 72, 0
9, 75600, Note_on_c, 11, 71, 50
9, 75720, Note_on_c, 11, 71, 0
9, 75720, Note_on_c, 11, 72, 50
9, 75840, Note_on_c, 11, 72, 0
9, 75840, Note_on_c, 11, 74, 50
9, 75960, Note_on_c, 11, 74, 0
9, 75960, Note_on_c, 11, 69, 50
9, 76070, Note_on_c, 11, 69, 0
9, 76080, Note_on_c, 11, 69, 50
9, 76200, Note_on_c, 11, 69, 0
9, 76200, Note_on_c, 11, 67, 50
9, 76320, Note_on_c, 11, 67, 0
9, 77280, Note_on_c, 11, 67, 50
9, 77400, Note_on_c, 11, 67, 0
9, 77400, Note_on_c, 11, 72, 50
9, 77520, Note_on_c, 11, 72, 0
9, 77520, Note_on_c, 11, 71, 50
9, 77640, Note_on_c, 11, 71, 0
9, 77640, Note_on_c, 11, 72, 50
9, 77760, Note_on_c, 11, 72, 0
9, 77760, Note_on_c, 11, 74, 50
9, 77880, Note_on_c, 11, 74, 0
9, 77880, Note_on_c, 11, 69, 50
9, 77990, Note_on_c, 11, 69, 0
9, 78000, Note_on_c, 11, 69, 50
9, 78120, Note_on_c, 11, 69, 0
9, 78120, Note_on_c, 11, 67, 50
9, 78240, Note_on_c, 11, 67, 0
9, 79200, Note_on_c, 11, 70, 50
9, 79320, Note_on_c, 11, 70, 0
9, 79320, Note_on_c, 11, 72, 50
9, 79440, Note_on_c, 11, 72, 0
9, 79440, Note_on_c, 11, 73, 50
9, 79560, Note_on_c, 11, 73, 0
9, 79560, Note_on_c, 11, 72, 50
9, 79680, Note_on_c, 11, 72, 0
9, 80160, Note_on_c, 11, 72, 50
9, 80280, Note_on_c, 11, 72, 0
9, 80280, Note_on_c, 11, 74, 50
9, 80400, Note_on_c, 11, 74, 0
9, 80400, Note_on_c, 11, 75, 50
9, 80520, Note_on_c, 11, 75, 0
9, 80520, Note_on_c, 11, 74, 50
9, 80640, Note_on_c, 11, 74, 0
9, 81120, Note_on_c, 11, 77, 50
9, 81240, Note_on_c, 11, 77, 0
9, 81240, Note_on_c, 11, 79, 52
9, 81360, Note_on_c, 11, 79, 0
9, 81360, Note_on_c, 11, 80, 55
9, 81480, Note_on_c, 11, 80, 0
9, 81480, Note_on_c, 11, 79, 57
9, 81600, Note_on_c, 11, 79, 0
9, 81600, Note_on_c, 11, 77, 60
9, 81720, Note_on_c, 11, 77, 0
9, 81720, Note_on_c, 11, 79, 62
9, 81830, Note_on_c, 11, 79, 0
9, 81840, Note_on_c, 11, 80, 65
9, 81960, Note_on_c, 11, 80, 0
9, 81960, Note_on_c, 11, 79, 67
9, 82080, Note_on_c, 11, 79, 0
9, 82080, Note_on_c, 11, 77, 70
9, 82200, Note_on_c, 11, 77, 0
9, 82200, Note_on_c, 11, 79, 73
9, 82310, Note_on_c, 11, 79, 0
9, 82320, Note_on_c, 11, 80, 75
9, 82440, Note_on_c, 11, 80, 0
9, 82440, Note_on_c, 11, 79, 78
9, 82560, Note_on_c, 11, 79, 0
9, 82560, Note_on_c, 11, 77, 80
9, 82680, Note_on_c, 11, 77, 0
9, 82680, Note_on_c, 11, 79, 83
9, 82790, Note_on_c, 11, 79, 0
9, 82800, Note_on_c, 11, 80, 85
9, 82920, Note_on_c, 11, 80, 0
9, 82920, Note_on_c, 11, 79, 88
9, 83040, Note_on_c, 11, 79, 0
9, 83040, Note_on_c, 11, 78, 91
9, 83160, Note_on_c, 11, 78, 0
9, 83160, Note_on_c, 11, 79, 93
9, 83270, Note_on_c, 11, 79, 0
9, 83280, Note_on_c, 11, 81, 96
9, 83400, Note_on_c, 11, 81, 0
9, 83400, Note_on_c, 11, 79, 98
9, 83520, Note_on_c, 11, 79, 0
9, 83520, Note_on_c, 11, 78, 101
9, 83640, Note_on_c, 11, 78, 0
9, 83640, Note_on_c, 11, 79, 103
9, 83750, Note_on_c, 11, 79, 0
9, 83760, Note_on_c, 11, 81, 106
9, 83880, Note_on_c, 11, 81, 0
9, 83880, Note_on_c, 11, 79, 109
9, 84000, Note_on_c, 11, 79, 0
9, 84000, Note_on_c, 11, 78, 111
9, 84120, Note_on_c, 11, 78, 0
9, 84120, Note_on_c, 11, 79, 114
9, 84240, Note_on_c, 11, 79, 0
9, 84240, Note_on_c, 11, 78, 116
9, 84360, Note_on_c, 11, 78, 0
9, 84360, Note_on_c, 11, 79, 119
9, 84480, Note_on_c, 11, 79, 0
9, 84480, Note_on_c, 11, 78, 121
9, 84600, Note_on_c, 11, 78, 0
9, 84600, Note_on_c, 11, 79, 124
9, 84710, Note_on_c, 11, 79, 0
9, 84720, Note_on_c, 11, 79, 127
9, 85010, Note_on_c, 11, 79, 0
9, 85020, Note_on_c, 11, 81, 127
9, 85065, Note_on_c, 11, 81, 0
9, 85080, Note_on_c, 11, 79, 127
9, 85125, Note_on_c, 11, 79, 0
9, 85140, Note_on_c, 11, 77, 127
9, 85185, Note_on_c, 11, 77, 0
9, 85200, Note_on_c, 11, 77, 127
9, 85260, Note_on_c, 11, 77, 0
9, 85260, Note_on_c, 11, 76, 127
9, 85310, Note_on_c, 11, 76, 0
9, 85320, Note_on_c, 11, 74, 127
9, 85365, Note_on_c, 11, 74, 0
9, 85380, Note_on_c, 11, 72, 127
9, 85425, Note_on_c, 11, 72, 0
9, 85440, Note_on_c, 11, 72, 127
9, 85500, Note_on_c, 11, 72, 0
9, 85500, Note_on_c, 11, 71, 127
9, 85550, Note_on_c, 11, 71, 0
9, 85560, Note_on_c, 11, 69, 127
9, 85605, Note_on_c, 11, 69, 0
9, 85620, Note_on_c, 11, 71, 127
9, 85665, Note_on_c, 11, 71, 0
9, 85680, Note_on_c, 11, 74, 127
9, 85740, Note_on_c, 11, 74, 0
9, 85740, Note_on_c, 11, 72, 127
9, 85790, Note_on_c, 11, 72, 0
9, 85800, Note_on_c, 11, 67, 127
9, 85845, Note_on_c, 11, 67, 0
9, 85860, Note_on_c, 11, 64, 127
9, 85905, Note_on_c, 11, 64, 0
9, 85920, Note_on_c, 11, 71, 127
9, 85980, Note_on_c, 11, 71, 0
9, 85980, Note_on_c, 11, 69, 127
9, 86030, Note_on_c, 11, 69, 0
9, 86040, Note_on_c, 11, 65, 127
9, 86085, Note_on_c, 11, 65, 0
9, 86100, Note_on_c, 11, 62, 127
9, 86145, Note_on_c, 11, 62, 0
9, 86160, Note_on_c, 11, 69, 127
9, 86220, Note_on_c, 11, 69, 0
9, 86220, Note_on_c, 11, 67, 127
9, 86270, Note_on_c, 11, 67, 0
9, 86280, Note_on_c, 11, 64, 127
9, 86325, Note_on_c, 11, 64, 0
9, 86340, Note_on_c, 11, 60, 127
9, 86385, Note_on_c, 11, 60, 0
9, 86400, Note_on_c, 11, 55, 127
9, 86445, Note_on_c, 11, 55, 0
9, 86460, Note_on_c, 11, 78, 127
9, 86520, Note_on_c, 11, 78, 0
9, 86520, Note_on_c, 11, 79, 127
9, 86580, Note_on_c, 11, 79, 0
9, 86580, Note_on_c, 11, 78, 127
9, 86640, Note_on_c, 11, 78, 0
9, 86640, Note_on_c, 11, 79, 127
9, 86700, Note_on_c, 11, 79, 0
9, 86700, Note_on_c, 11, 78, 127
9, 86760, Note_on_c, 11, 78, 0
9, 86760, Note_on_c, 11, 79, 127
9, 86820, Note_on_c, 11, 79, 0
9, 86820, Note_on_c, 11, 78, 127
9, 86870, Note_on_c, 11, 78, 0
9, 86880, Note_on_c, 11, 79, 127
9, 86925, Note_on_c, 11, 79, 0
9, 86940, Note_on_c, 11, 81, 127
9, 86985, Note_on_c, 11, 81, 0
9, 87000, Note_on_c, 11, 79, 127
9, 87045, Note_on_c, 11, 79, 0
9, 87060, Note_on_c, 11, 77, 127
9, 87105, Note_on_c, 11, 77, 0
9, 87120, Note_on_c, 11, 77, 127
9, 87180, Note_on_c, 11, 77, 0
9, 87180, Note_on_c, 11, 76, 127
9, 87230, Note_on_c, 11, 76, 0
9, 87240, Note_on_c, 11, 74, 127
9, 87285, Note_on_c, 11, 74, 0
9, 87300, Note_on_c, 11, 72, 127
9, 87345, Note_on_c, 11, 72, 0
9, 87360, Note_on_c, 11, 72, 127
9, 87420, Note_on_c, 11, 72, 0
9, 87420, Note_on_c, 11, 71, 127
9, 87470, Note_on_c, 11, 71, 0
9, 87480, Note_on_c, 11, 69, 127
9, 87525, Note_on_c, 11, 69, 0
9, 87540, Note_on_c, 11, 71, 127
9, 87585, Note_on_c, 11, 71, 0
9, 87600, Note_on_c, 11, 74, 127
9, 87660, Note_on_c, 11, 74, 0
9, 87660, Note_on_c, 11, 72, 127
9, 87710, Note_on_c, 11, 72, 0
9, 87720, Note_on_c, 11, 67, 127
9, 87765, Note_on_c, 11, 67, 0
9, 87780, Note_on_c, 11, 64, 127
9, 87825, Note_on_c, 11, 64, 0
9, 87840, Note_on_c, 11, 71, 127
9, 87900, Note_on_c, 11, 71, 0
9, 87900, Note_on_c, 11, 69, 127
9, 87950, Note_on_c, 11, 69, 0
9, 87960, Note_on_c, 11, 65, 127
9, 88005, Note_on_c, 11, 65, 0
9, 88020, Note_on_c, 11, 62, 127
9, 88065, Note_on_c, 11, 62, 0
9, 88080, Note_on_c, 11, 69, 127
9, 88140, Note_on_c, 11, 69, 0
9, 88140, Note_on_c, 11, 67, 127
9, 88190, Note_on_c, 11, 67, 0
9, 88200, Note_on_c, 11, 64, 127
9, 88245, Note_on_c, 11, 64, 0
9, 88260, Note_on_c, 11, 60, 127
9, 88305, Note_on_c, 11, 60, 0
9, 88320, Note_on_c, 11, 55, 127
9, 88370, Note_on_c, 11, 55, 0
9, 88380, Note_on_c, 11, 67, 127
9, 88430, Note_on_c, 11, 67, 0
9, 88440, Note_on_c, 11, 79, 127
9, 88490, Note_on_c, 11, 79, 0
9, 88500, Note_on_c, 11, 79, 127
9, 88550, Note_on_c, 11, 79, 0
9, 88560, Note_on_c, 11, 72, 127
9, 89040, Note_on_c, 11, 72, 0
9, 89040, Note_on_c, 11, 72, 127
9, 89330, Note_on_c, 11, 72, 0
9, 89340, Note_on_c, 11, 74, 127
9, 89390, Note_on_c, 11, 74, 0
9, 89400, Note_on_c, 11, 74, 127
9, 89450, Note_on_c, 11, 74, 0
9, 89460, Note_on_c, 11, 74, 127
9, 89510, Note_on_c, 11, 74, 0
9, 89520, Note_on_c, 11, 76, 127
9, 90000, Note_on_c, 11, 76, 0
9, 90000, Note_on_c, 11, 76, 127
9, 90290, Note_on_c, 11, 76, 0
9, 90300, Note_on_c, 11, 79, 127
9, 90350, Note_on_c, 11, 79, 0
9, 90360, Note_on_c, 11, 79, 127
9, 90410, Note_on_c, 11, 79, 0
9, 90420, Note_on_c, 11, 79, 127
9, 90470, Note_on_c, 11, 79, 0
9, 90480, Note_on_c, 11, 79, 127
9, 90600, Note_on_c, 11, 79, 0
9, 90780, Note_on_c, 11, 79, 127
9, 90830, Note_on_c, 11, 79, 0
9, 90840, Note_on_c, 11, 79, 127
9, 90890, Note_on_c, 11, 79, 0
9, 90900, Note_on_c, 11, 79, 127
9, 90950, Note_on_c, 11, 79, 0
9, 90960, Note_on_c, 11, 79, 127
9, 91080, Note_on_c, 11, 79, 0
9, 91260, Note_on_c, 11, 74, 127
9, 91260, Note_on_c, 11, 83, 127
9, 91310, Note_on_c, 11, 83, 0
9, 91310, Note_on_c, 11, 74, 0
9, 91320, Note_on_c, 11, 74, 127
9, 91320, Note_on_c, 11, 83, 127
9, 91370, Note_on_c, 11, 83, 0
9, 91370, Note_on_c, 11, 74, 0
9, 91380, Note_on_c, 11, 83, 127
9, 91380, Note_on_c, 11, 74, 127
9, 91430, Note_on_c, 11, 74, 0
9, 91430, Note_on_c, 11, 83, 0
9, 91440, Note_on_c, 11, 84, 127
9, 91500, Note_on_c, 11, 84, 0
9, 91500, Note_on_c, 11, 84, 127
9, 91680, Note_on_c, 11, 84, 0
9, 91680, Note_on_c, 11, 84, 127
9, 91730, Note_on_c, 11, 84, 0
9, 91740, Note_on_c, 11, 84, 127
9, 91790, Note_on_c, 11, 84, 0
9, 91800, Note_on_c, 11, 84, 127
9, 91850, Note_on_c, 11, 84, 0
9, 91860, Note_on_c, 11, 84, 127
9, 91910, Note_on_c, 11, 84, 0
9, 91920, Note_on_c, 11, 84, 127
9, 91980, Note_on_c, 11, 84, 0
9, 91980, Note_on_c, 11, 84, 127
9, 92160, Note_on_c, 11, 84, 0
9, 92160, Note_on_c, 11, 84, 127
9, 92210, Note_on_c, 11, 84, 0
9, 92220, Note_on_c, 11, 84, 127
9, 92270, Note_on_c, 11, 84, 0
9, 92280, Note_on_c, 11, 84, 127
9, 92330, Note_on_c, 11, 84, 0
9, 92340, Note_on_c, 11, 84, 127
9, 92390, Note_on_c, 11, 84, 0
9, 92400, Note_on_c, 11, 84, 127
9, 92460, Note_on_c, 11, 84, 0
9, 92460, Note_on_c, 11, 84, 127
9, 92640, Note_on_c, 11, 84, 0
9, 92640, Note_on_c, 11, 84, 127
9, 92690, Note_on_c, 11, 84, 0
9, 92700, Note_on_c, 11, 84, 127
9, 92750, Note_on_c, 11, 84, 0
9, 92760, Note_on_c, 11, 84, 127
9, 92810, Note_on_c, 11, 84, 0
9, 92820, Note_on_c, 11, 84, 127
9, 92870, Note_on_c, 11, 84, 0
9, 92880, Note_on_c, 11, 84, 127
9, 92940, Note_on_c, 11, 84, 0
9, 92940, Note_on_c, 11, 84, 127
9, 93120, Note_on_c, 11, 84, 0
9, 93120, Note_on_c, 11, 84, 127
9, 93170, Note_on_c, 11, 84, 0
9, 93180, Note_on_c, 11, 84, 127
9, 93230, Note_on_c, 11, 84, 0
9, 93240, Note_on_c, 11, 84, 127
9, 93290, Note_on_c, 11, 84, 0
9, 93300, Note_on_c, 11, 84, 127
9, 93350, Note_on_c, 11, 84, 0
9, 93360, Note_on_c, 11, 85, 127
9, 93410, Note_on_c, 11, 85, 0
9, 93420, Note_on_c, 11, 85, 127
9, 93470, Note_on_c, 11, 85, 0
9, 93480, Note_on_c, 11, 85, 127
9, 93530, Note_on_c, 11, 85, 0
9, 93540, Note_on_c, 11, 85, 127
9, 93590, Note_on_c, 11, 85, 0
9, 93600, Note_on_c, 11, 85, 127
9, 93650, Note_on_c, 11, 85, 0
9, 93660, Note_on_c, 11, 85, 127
9, 93710, Note_on_c, 11, 85, 0
9, 93720, Note_on_c, 11, 85, 127
9, 93770, Note_on_c, 11, 85, 0
9, 93780, Note_on_c, 11, 85, 127
9, 93830, Note_on_c, 11, 85, 0
9, 93840, Note_on_c, 11, 85, 127
9, 93890, Note_on_c, 11, 85, 0
9, 93900, Note_on_c, 11, 85, 127
9, 93950, Note_on_c, 11, 85, 0
9, 93960, Note_on_c, 11, 85, 127
9, 94010, Note_on_c, 11, 85, 0
9, 94020, Note_on_c, 11, 85, 127
9, 94070, Note_on_c, 11, 85, 0
9, 94080, Note_on_c, 11, 85, 127
9, 94130, Note_on_c, 11, 85, 0
9, 94140, Note_on_c, 11, 85, 127
9, 94190, Note_on_c, 11, 85, 0
9, 94200, Note_on_c, 11, 85, 127
9, 94250, Note_on_c, 11, 85, 0
9, 94260, Note_on_c, 11, 85, 127
9, 94310, Note_on_c, 11, 85, 0
9, 94320, Note_on_c, 11, 85, 127
9, 94440, Note_on_c, 11, 85, 0
9, 95340, Note_on_c, 11, 75, 127
9, 95340, Note_on_c, 11, 87, 127
9, 95390, Note_on_c, 11, 87, 0
9, 95390, Note_on_c, 11, 75, 0
9, 95400, Note_on_c, 11, 75, 127
9, 95400, Note_on_c, 11, 87, 127
9, 95450, Note_on_c, 11, 87, 0
9, 95450, Note_on_c, 11, 75, 0
9, 95460, Note_on_c, 11, 87, 127
9, 95460, Note_on_c, 11, 75, 127
9, 95510, Note_on_c, 11, 75, 0
9, 95510, Note_on_c, 11, 87, 0
9, 95520, Note_on_c, 11, 75, 127
9, 95520, Note_on_c, 11, 87, 127
9, 95570, Note_on_c, 11, 87, 0
9, 95570, Note_on_c, 11, 75, 0
9, 95580, Note_on_c, 11, 87, 127
9, 95580, Note_on_c, 11, 75, 127
9, 95630, Note_on_c, 11, 75, 0
9, 95630, Note_on_c, 11, 87, 0
9, 95640, Note_on_c, 11, 87, 127
9, 95640, Note_on_c, 11, 75, 127
9, 95690, Note_on_c, 11, 75, 0
9, 95690, Note_on_c, 11, 87, 0
9, 95700, Note_on_c, 11, 87, 127
9, 95700, Note_on_c, 11, 75, 127
9, 95750, Note_on_c, 11, 75, 0
9, 95750, Note_on_c, 11, 87, 0
9, 95760, Note_on_c, 11, 87, 127
9, 95760, Note_on_c, 11, 75, 127
9, 95810, Note_on_c, 11, 75, 0
9, 95810, Note_on_c, 11, 87, 0
9, 95820, Note_on_c, 11, 75, 127
9, 95820, Note_on_c, 11, 87, 127
9, 95870, Note_on_c, 11, 87, 0
9, 95870, Note_on_c, 11, 75, 0
9, 95880, Note_on_c, 11, 75, 127
9, 95880, Note_on_c, 11, 87, 127
9, 95930, Note_on_c, 11, 87, 0
9, 95930, Note_on_c, 11, 75, 0
9, 95940, Note_on_c, 11, 75, 127
9, 95940, Note_on_c, 11, 87, 127
9, 95990, Note_on_c, 11, 87, 0
9, 95990, Note_on_c, 11, 75, 0
9, 96000, Note_on_c, 11, 87, 127
9, 96000, Note_on_c, 11, 75, 127
9, 96050, Note_on_c, 11, 75, 0
9, 96050, Note_on_c, 11, 87, 0
9, 96060, Note_on_c, 11, 75, 127
9, 96060, Note_on_c, 11, 87, 127
9, 96110, Note_on_c, 11, 87, 0
9, 96110, Note_on_c, 11, 75, 0
9, 96120, Note_on_c, 11, 87, 127
9, 96120, Note_on_c, 11, 75, 127
9, 96170, Note_on_c, 11, 75, 0
9, 96170, Note_on_c, 11, 87, 0
9, 96180, Note_on_c, 11, 75, 127
9, 96180, Note_on_c, 11, 87, 127
9, 96230, Note_on_c, 11, 87, 0
9, 96230, Note_on_c, 11, 75, 0
9, 96240, Note_on_c, 11, 75, 127
9, 96240, Note_on_c, 11, 87, 127
9, 96290, Note_on_c, 11, 87, 0
9, 96290, Note_on_c, 11, 75, 0
9, 96300, Note_on_c, 11, 87, 127
9, 96300, Note_on_c, 11, 75, 127
9, 96350, Note_on_c, 11, 75, 0
9, 96350, Note_on_c, 11, 87, 0
9, 96360, Note_on_c, 11, 75, 127
9, 96360, Note_on_c, 11, 87, 127
9, 96410, Note_on_c, 11, 87, 0
9, 96410, Note_on_c, 11, 75, 0
9, 96420, Note_on_c, 11, 75, 127
9, 96420, Note_on_c, 11, 87, 127
9, 96470, Note_on_c, 11, 87, 0
9, 96470, Note_on_c, 11, 75, 0
9, 96480, Note_on_c, 11, 87, 127
9, 96480, Note_on_c, 11, 75, 127
9, 96600, Note_on_c, 11, 75, 0
9, 96600, Note_on_c, 11, 87, 0
9, 97680, Note_on_c, 11, 71, 100
9, 97740, Note_on_c, 11, 71, 0
9, 97740, Note_on_c, 11, 72, 100
9, 97800, Note_on_c, 11, 72, 0
9, 97800, Note_on_c, 11, 74, 100
9, 97860, Note_on_c, 11, 74, 0
9, 97860, Note_on_c, 11, 75, 100
9, 97920, Note_on_c, 11, 75, 0
9, 97920, Note_on_c, 11, 77, 100
9, 97980, Note_on_c, 11, 77, 0
9, 97980, Note_on_c, 11, 79, 100
9, 98040, Note_on_c, 11, 79, 0
9, 98040, Note_on_c, 11, 80, 100
9, 98100, Note_on_c, 11, 80, 0
9, 98100, Note_on_c, 11, 79, 100
9, 98160, Note_on_c, 11, 79, 0
9, 98160, Note_on_c, 11, 80, 100
9, 98220, Note_on_c, 11, 80, 0
9, 98220, Note_on_c, 11, 79, 100
9, 98280, Note_on_c, 11, 79, 0
9, 98280, Note_on_c, 11, 80, 100
9, 98340, Note_on_c, 11, 80, 0
9, 98340, Note_on_c, 11, 79, 100
9, 98400, Note_on_c, 11, 79, 0
9, 98640, Note_on_c, 11, 71, 100
9, 98700, Note_on_c, 11, 71, 0
9, 98700, Note_on_c, 11, 72, 100
9, 98760, Note_on_c, 11, 72, 0
9, 98760, Note_on_c, 11, 74, 100
9, 98820, Note_on_c, 11, 74, 0
9, 98820, Note_on_c, 11, 75, 100
9, 98880, Note_on_c, 11, 75, 0
9, 98880, Note_on_c, 11, 77, 100
9, 98940, Note_on_c, 11, 77, 0
9, 98940, Note_on_c, 11, 79, 100
9, 99000, Note_on_c, 11, 79, 0
9, 99000, Note_on_c, 11, 80, 100
9, 99060, Note_on_c, 11, 80, 0
9, 99060, Note_on_c, 11, 79, 100
9, 99120, Note_on_c, 11, 79, 0
9, 99120, Note_on_c, 11, 80, 100
9, 99180, Note_on_c, 11, 80, 0
9, 99180, Note_on_c, 11, 79, 100
9, 99240, Note_on_c, 11, 79, 0
9, 99240, Note_on_c, 11, 80, 100
9, 99300, Note_on_c, 11, 80, 0
9, 99300, Note_on_c, 11, 79, 100
9, 99350, Note_on_c, 11, 79, 0
9, 99360, Note_on_c, 11, 80, 100
9, 99410, Note_on_c, 11, 80, 0
9, 99420, Note_on_c, 11, 79, 100
9, 99470, Note_on_c, 11, 79, 0
9, 99480, Note_on_c, 11, 82, 100
9, 99530, Note_on_c, 11, 82, 0
9, 99540, Note_on_c, 11, 80, 100
9, 99590, Note_on_c, 11, 80, 0
9, 99600, Note_on_c, 11, 79, 100
9, 99650, Note_on_c, 11, 79, 0
9, 99660, Note_on_c, 11, 77, 100
9, 99710, Note_on_c, 11, 77, 0
9, 99720, Note_on_c, 11, 80, 100
9, 99770, Note_on_c, 11, 80, 0
9, 99780, Note_on_c, 11, 79, 100
9, 99830, Note_on_c, 11, 79, 0
9, 99840, Note_on_c, 11, 77, 100
9, 99890, Note_on_c, 11, 77, 0
9, 99900, Note_on_c, 11, 75, 100
9, 99950, Note_on_c, 11, 75, 0
9, 99960, Note_on_c, 11, 79, 100
9, 100010, Note_on_c, 11, 79, 0
9, 100020, Note_on_c, 11, 77, 100
9, 100070, Note_on_c, 11, 77, 0
9, 100080, Note_on_c, 11, 75, 100
9, 100130, Note_on_c, 11, 75, 0
9, 100140, Note_on_c, 11, 74, 100
9, 100190, Note_on_c, 11, 74, 0
9, 100200, Note_on_c, 11, 77, 100
9, 100250, Note_on_c, 11, 77, 0
9, 100260, Note_on_c, 11, 75, 100
9, 100310, Note_on_c, 11, 75, 0
9, 100320, Note_on_c, 11, 74, 100
9, 100370, Note_on_c, 11, 74, 0
9, 100380, Note_on_c, 11, 72, 100
9, 100430, Note_on_c, 11, 72, 0
9, 100440, Note_on_c, 11, 75, 100
9, 100490, Note_on_c, 11, 75, 0
9, 100500, Note_on_c, 11, 74, 100
9, 100550, Note_on_c, 11, 74, 0
9, 100560, Note_on_c, 11, 72, 100
9, 100610, Note_on_c, 11, 72, 0
9, 100620, Note_on_c, 11, 70, 100
9, 100670, Note_on_c, 11, 70, 0
9, 100680, Note_on_c, 11, 74, 100
9, 100730, Note_on_c, 11, 74, 0
9, 100740, Note_on_c, 11, 72, 100
9, 100790, Note_on_c, 11, 72, 0
9, 100800, Note_on_c, 11, 70, 100
9, 100850, Note_on_c, 11, 70, 0
9, 100860, Note_on_c, 11, 68, 100
9, 100910, Note_on_c, 11, 68, 0
9, 100920, Note_on_c, 11, 72, 100
9, 100970, Note_on_c, 11, 72, 0
9, 100980, Note_on_c, 11, 70, 100
9, 101030, Note_on_c, 11, 70, 0
9, 101040, Note_on_c, 11, 68, 100
9, 101090, Note_on_c, 11, 68, 0
9, 101100, Note_on_c, 11, 67, 100
9, 101150, Note_on_c, 11, 67, 0
9, 101160, Note_on_c, 11, 70, 100
9, 101210, Note_on_c, 11, 70, 0
9, 101220, Note_on_c, 11, 68, 100
9, 101270, Note_on_c, 11, 68, 0
9, 101280, Note_on_c, 11, 65, 100
9, 101330, Note_on_c, 11, 65, 0
9, 101340, Note_on_c, 11, 67, 100
9, 101390, Note_on_c, 11, 67, 0
9, 101400, Note_on_c, 11, 63, 100
9, 101450, Note_on_c, 11, 63, 0
9, 101460, Note_on_c, 11, 67, 100
9, 101510, Note_on_c, 11, 67, 0
9, 101520, Note_on_c, 11, 62, 100
9, 101570, Note_on_c, 11, 62, 0
9, 101580, Note_on_c, 11, 67, 100
9, 101630, Note_on_c, 11, 67, 0
9, 101640, Note_on_c, 11, 63, 100
9, 101690, Note_on_c, 11, 63, 0
9, 101700, Note_on_c, 11, 67, 100
9, 101750, Note_on_c, 11, 67, 0
9, 101760, Note_on_c, 11, 65, 100
9, 101810, Note_on_c, 11, 65, 0
9, 101820, Note_on_c, 11, 67, 100
9, 101870, Note_on_c, 11, 67, 0
9, 101880, Note_on_c, 11, 63, 100
9, 101930, Note_on_c, 11, 63, 0
9, 101940, Note_on_c, 11, 67, 100
9, 101990, Note_on_c, 11, 67, 0
9, 102000, Note_on_c, 11, 65, 100
9, 102050, Note_on_c, 11, 65, 0
9, 102060, Note_on_c, 11, 67, 101
9, 102110, Note_on_c, 11, 67, 0
9, 102120, Note_on_c, 11, 67, 102
9, 102170, Note_on_c, 11, 67, 0
9, 102180, Note_on_c, 11, 72, 104
9, 102230, Note_on_c, 11, 72, 0
9, 102240, Note_on_c, 11, 68, 105
9, 102290, Note_on_c, 11, 68, 0
9, 102300, Note_on_c, 11, 72, 106
9, 102350, Note_on_c, 11, 72, 0
9, 102360, Note_on_c, 11, 67, 108
9, 102410, Note_on_c, 11, 67, 0
9, 102420, Note_on_c, 11, 72, 109
9, 102470, Note_on_c, 11, 72, 0
9, 102480, Note_on_c, 11, 68, 110
9, 102530, Note_on_c, 11, 68, 0
9, 102540, Note_on_c, 11, 72, 112
9, 102590, Note_on_c, 11, 72, 0
9, 102600, Note_on_c, 11, 71, 113
9, 102650, Note_on_c, 11, 71, 0
9, 102660, Note_on_c, 11, 77, 114
9, 102710, Note_on_c, 11, 77, 0
9, 102720, Note_on_c, 11, 72, 116
9, 102770, Note_on_c, 11, 72, 0
9, 102780, Note_on_c, 11, 77, 117
9, 102830, Note_on_c, 11, 77, 0
9, 102840, Note_on_c, 11, 71, 118
9, 102890, Note_on_c, 11, 71, 0
9, 102900, Note_on_c, 11, 77, 120
9, 102950, Note_on_c, 11, 77, 0
9, 102960, Note_on_c, 11, 72, 121
9, 103010, Note_on_c, 11, 72, 0
9, 103020, Note_on_c, 11, 77, 122
9, 103070, Note_on_c, 11, 77, 0
9, 103080, Note_on_c, 11, 74, 124
9, 103130, Note_on_c, 11, 74, 0
9, 103140, Note_on_c, 11, 79, 125
9, 103190, Note_on_c, 11, 79, 0
9, 103200, Note_on_c, 11, 75, 127
9, 103320, Note_on_c, 11, 75, 0
9, 103320, Note_on_c, 11, 72, 127
9, 103430, Note_on_c, 11, 72, 0
9, 103440, Note_on_c, 11, 74, 127
9, 103530, Note_on_c, 11, 74, 0
9, 103560, Note_on_c, 11, 75, 127
9, 103650, Note_on_c, 11, 75, 0
9, 103680, Note_on_c, 11, 77, 127
9, 103800, Note_on_c, 11, 77, 0
9, 103800, Note_on_c, 11, 74, 127
9, 103910, Note_on_c, 11, 74, 0
9, 103920, Note_on_c, 11, 75, 127
9, 104010, Note_on_c, 11, 75, 0
9, 104040, Note_on_c, 11, 77, 127
9, 104130, Note_on_c, 11, 77, 0
9, 104160, Note_on_c, 11, 79, 127
9, 104280, Note_on_c, 11, 79, 0
9, 104280, Note_on_c, 11, 75, 127
9, 104390, Note_on_c, 11, 75, 0
9, 104400, Note_on_c, 11, 77, 127
9, 104490, Note_on_c, 11, 77, 0
9, 104520, Note_on_c, 11, 79, 127
9, 104610, Note_on_c, 11, 79, 0
9, 104640, Note_on_c, 11, 80, 127
9, 104760, Note_on_c, 11, 80, 0
9, 104760, Note_on_c, 11, 77, 127
9, 104870, Note_on_c, 11, 77, 0
9, 104880, Note_on_c, 11, 79, 127
9, 104970, Note_on_c, 11, 79, 0
9, 105000, Note_on_c, 11, 81, 127
9, 105090, Note_on_c, 11, 81, 0
9, 105120, Note_on_c, 11, 83, 127
9, 105240, Note_on_c, 11, 83, 0
9, 105240, Note_on_c, 11, 79, 127
9, 105350, Note_on_c, 11, 79, 0
9, 105360, Note_on_c, 11, 81, 127
9, 105450, Note_on_c, 11, 81, 0
9, 105480, Note_on_c, 11, 83, 127
9, 105570, Note_on_c, 11, 83, 0
9, 105600, Note_on_c, 11, 84, 127
9, 105720, Note_on_c, 11, 84, 0
9, 105720, Note_on_c, 11, 79, 127
9, 105830, Note_on_c, 11, 79, 0
9, 105840, Note_on_c, 11, 80, 127
9, 105930, Note_on_c, 11, 80, 0
9, 105960, Note_on_c, 11, 75, 127
9, 106050, Note_on_c, 11, 75, 0
9, 106080, Note_on_c, 11, 77, 127
9, 106170, Note_on_c, 11, 77, 0
9, 106200, Note_on_c, 11, 74, 127
9, 106290, Note_on_c, 11, 74, 0
9, 106320, Note_on_c, 11, 75, 127
9, 106410, Note_on_c, 11, 75, 0
9, 106440, Note_on_c, 11, 77, 127
9, 106530, Note_on_c, 11, 77, 0
9, 106560, Note_on_c, 11, 79, 127
9, 106650, Note_on_c, 11, 79, 0
9, 106680, Note_on_c, 11, 78, 127
9, 106770, Note_on_c, 11, 78, 0
9, 106800, Note_on_c, 11, 79, 127
9, 106890, Note_on_c, 11, 79, 0
9, 106920, Note_on_c, 11, 67, 127
9, 107010, Note_on_c, 11, 67, 0
9, 107040, Note_on_c, 11, 72, 127
9, 107160, Note_on_c, 11, 72, 0
9, 107760, Note_on_c, 11, 63, 127
9, 107850, Note_on_c, 11, 63, 0
9, 107880, Note_on_c, 11, 65, 127
9, 107970, Note_on_c, 11, 65, 0
9, 108000, Note_on_c, 11, 67, 127
9, 108120, Note_on_c, 11, 67, 0
9, 108120, Note_on_c, 11, 63, 127
9, 108240, Note_on_c, 11, 63, 0
9, 108720, Note_on_c, 11, 71, 127
9, 108810, Note_on_c, 11, 71, 0
9, 108840, Note_on_c, 11, 72, 127
9, 108930, Note_on_c, 11, 72, 0
9, 108960, Note_on_c, 11, 74, 127
9, 109080, Note_on_c, 11, 74, 0
9, 109080, Note_on_c, 11, 71, 127
9, 109200, Note_on_c, 11, 71, 0
9, 109680, Note_on_c, 11, 71, 127
9, 109770, Note_on_c, 11, 71, 0
9, 109800, Note_on_c, 11, 72, 127
9, 109890, Note_on_c, 11, 72, 0
9, 109920, Note_on_c, 11, 74, 127
9, 110040, Note_on_c, 11, 74, 0
9, 110040, Note_on_c, 11, 71, 127
9, 110160, Note_on_c, 11, 71, 0
9, 111120, Note_on_c, 11, 68, 127
9, 111240, Note_on_c, 11, 68, 0
9, 111240, Note_on_c, 11, 67, 127
9, 111360, Note_on_c, 11, 67, 0
9, 111600, Note_on_c, 11, 80, 127
9, 111720, Note_on_c, 11, 80, 0
9, 111720, Note_on_c, 11, 79, 127
9, 111830, Note_on_c, 11, 79, 0
9, 111840, Note_on_c, 11, 79, 127
9, 111840, Note_on_c, 11, 72, 127
9, 111840, Note_on_c, 11, 63, 127
9, 111840, Note_on_c, 11, 55, 127
9, 111960, Note_on_c, 11, 55, 0
9, 111960, Note_on_c, 11, 79, 0
9, 111960, Note_on_c, 11, 72, 0
9, 111960, Note_on_c, 11, 63, 0
9, 112080, Note_on_c, 11, 79, 127
9, 112080, Note_on_c, 11, 71, 127
9, 112080, Note_on_c, 11, 62, 127
9, 112080, Note_on_c, 11, 55, 127
9, 112200, Note_on_c, 11, 55, 0
9, 112200, Note_on_c, 11, 79, 0
9, 112200, Note_on_c, 11, 71, 0
9, 112200, Note_on_c, 11, 62, 0
9, 112320, Note_on_c, 11, 75, 127
9, 112440, Note_on_c, 11, 75, 0
9, 112440, Note_on_c, 11, 74, 127
9, 112560, Note_on_c, 11, 74, 0
9, 112560, Note_on_c, 11, 72, 127
9, 112680, Note_on_c, 11, 72, 0
9, 112680, Note_on_c, 11, 70, 127
9, 112800, Note_on_c, 11, 70, 0
9, 112800, Note_on_c, 11, 68, 127
9, 112920, Note_on_c, 11, 68, 0
9, 112920, Note_on_c, 11, 67, 127
9, 113040, Note_on_c, 11, 67, 0
9, 113280, Note_on_c, 11, 68, 127
9, 113400, Note_on_c, 11, 68, 0
9, 113400, Note_on_c, 11, 67, 127
9, 113510, Note_on_c, 11, 67, 0
9, 113520, Note_on_c, 11, 80, 127
9, 113640, Note_on_c, 11, 80, 0
9, 113640, Note_on_c, 11, 79, 127
9, 113750, Note_on_c, 11, 79, 0
9, 113760, Note_on_c, 11, 79, 127
9, 113760, Note_on_c, 11, 72, 127
9, 113760, Note_on_c, 11, 63, 127
9, 113760, Note_on_c, 11, 55, 127
9, 113880, Note_on_c, 11, 55, 0
9, 113880, Note_on_c, 11, 79, 0
9, 113880, Note_on_c, 11, 72, 0
9, 113880, Note_on_c, 11, 63, 0
9, 114000, Note_on_c, 11, 79, 127
9, 114000, Note_on_c, 11, 71, 127
9, 114000, Note_on_c, 11, 62, 127
9, 114000, Note_on_c, 11, 55, 127
9, 114120, Note_on_c, 11, 55, 0
9, 114120, Note_on_c, 11, 79, 0
9, 114120, Note_on_c, 11, 71, 0
9, 114120, Note_on_c, 11, 62, 0
9, 114240, Note_on_c, 11, 72, 127
9, 114240, Note_on_c, 11, 63, 127
9, 114240, Note_on_c, 11, 55, 127
9, 114290, Note_on_c, 11, 55, 0
9, 114290, Note_on_c, 11, 63, 0
9, 114290, Note_on_c, 11, 72, 0
9, 114300, Note_on_c, 11, 79, 127
9, 114350, Note_on_c, 11, 79, 0
9, 114360, Note_on_c, 11, 79, 127
9, 114410, Note_on_c, 11, 79, 0
9, 114420, Note_on_c, 11, 79, 127
9, 114470, Note_on_c, 11, 79, 0
9, 114480, Note_on_c, 11, 79, 127
9, 114960, Note_on_c, 11, 79, 0
9, 114960, Note_on_c, 11, 79, 127
9, 115440, Note_on_c, 11, 79, 0
9, 115440, Note_on_c, 11, 79, 127
9, 115490, Note_on_c, 11, 79, 0
9, 115500, Note_on_c, 11, 79, 127
9, 115550, Note_on_c, 11, 79, 0
9, 115560, Note_on_c, 11, 79, 127
9, 115610, Note_on_c, 11, 79, 0
9, 115620, Note_on_c, 11, 79, 127
9, 115670, Note_on_c, 11, 79, 0
9, 115680, Note_on_c, 11, 72, 127
9, 115730, Note_on_c, 11, 72, 0
9, 115740, Note_on_c, 11, 79, 127
9, 115790, Note_on_c, 11, 79, 0
9, 115800, Note_on_c, 11, 79, 127
9, 115850, Note_on_c, 11, 79, 0
9, 115860, Note_on_c, 11, 79, 127
9, 115910, Note_on_c, 11, 79, 0
9, 115920, Note_on_c, 11, 79, 127
9, 115970, Note_on_c, 11, 79, 0
9, 115980, Note_on_c, 11, 79, 127
9, 116030, Note_on_c, 11, 79, 0
9, 116040, Note_on_c, 11, 79, 127
9, 116090, Note_on_c, 11, 79, 0
9, 116100, Note_on_c, 11, 79, 127
9, 116150, Note_on_c, 11, 79, 0
9, 116160, Note_on_c, 11, 79, 127
9, 116210, Note_on_c, 11, 79, 0
9, 116220, Note_on_c, 11, 79, 127
9, 116270, Note_on_c, 11, 79, 0
9, 116280, Note_on_c, 11, 79, 127
9, 116330, Note_on_c, 11, 79, 0
9, 116340, Note_on_c, 11, 79, 127
9, 116390, Note_on_c, 11, 79, 0
9, 116400, Note_on_c, 11, 79, 127
9, 116450, Note_on_c, 11, 79, 0
9, 116460, Note_on_c, 11, 79, 127
9, 116510, Note_on_c, 11, 79, 0
9, 116520, Note_on_c, 11, 79, 127
9, 116570, Note_on_c, 11, 79, 0
9, 116580, Note_on_c, 11, 79, 127
9, 116630, Note_on_c, 11, 79, 0
9, 116640, Note_on_c, 11, 75, 127
9, 117360, Note_on_c, 11, 75, 0
9, 117420, Note_on_c, 11, 77, 127
9, 117470, Note_on_c, 11, 77, 0
9, 117480, Note_on_c, 11, 77, 127
9, 117530, Note_on_c, 11, 77, 0
9, 117540, Note_on_c, 11, 77, 127
9, 117590, Note_on_c, 11, 77, 0
9, 117600, Note_on_c, 11, 74, 127
9, 118560, Note_on_c, 11, 74, 0
9, 118860, Note_on_c, 11, 68, 50
9, 118910, Note_on_c, 11, 68, 0
9, 118920, Note_on_c, 11, 68, 50
9, 118970, Note_on_c, 11, 68, 0
9, 118980, Note_on_c, 11, 68, 50
9, 119030, Note_on_c, 11, 68, 0
9, 119040, Note_on_c, 11, 67, 50
9, 119090, Note_on_c, 11, 67, 0
9, 119100, Note_on_c, 11, 75, 50
9, 119150, Note_on_c, 11, 75, 0
9, 119160, Note_on_c, 11, 75, 50
9, 119210, Note_on_c, 11, 75, 0
9, 119220, Note_on_c, 11, 75, 50
9, 119270, Note_on_c, 11, 75, 0
9, 119280, Note_on_c, 11, 72, 50
9, 119640, Note_on_c, 11, 72, 0
9, 119820, Note_on_c, 11, 68, 50
9, 119870, Note_on_c, 11, 68, 0
9, 119880, Note_on_c, 11, 68, 50
9, 119930, Note_on_c, 11, 68, 0
9, 119940, Note_on_c, 11, 68, 50
9, 119990, Note_on_c, 11, 68, 0
9, 120000, Note_on_c, 11, 67, 50
9, 120050, Note_on_c, 11, 67, 0
9, 120060, Note_on_c, 11, 75, 50
9, 120110, Note_on_c, 11, 75, 0
9, 120120, Note_on_c, 11, 75, 50
9, 120170, Note_on_c, 11, 75, 0
9, 120180, Note_on_c, 11, 75, 50
9, 120230, Note_on_c, 11, 75, 0
9, 120240, Note_on_c, 11, 72, 50
9, 120530, Note_on_c, 11, 72, 0
9, 120540, Note_on_c, 11, 79, 100
9, 120540, Note_on_c, 11, 71, 100
9, 120590, Note_on_c, 11, 71, 0
9, 120590, Note_on_c, 11, 79, 0
9, 120600, Note_on_c, 11, 79, 100
9, 120600, Note_on_c, 11, 71, 100
9, 120650, Note_on_c, 11, 71, 0
9, 120650, Note_on_c, 11, 79, 0
9, 120660, Note_on_c, 11, 79, 100
9, 120660, Note_on_c, 11, 71, 100
9, 120710, Note_on_c, 11, 71, 0
9, 120710, Note_on_c, 11, 79, 0
9, 120720, Note_on_c, 11, 79, 100
9, 120720, Note_on_c, 11, 72, 100
9, 120840, Note_on_c, 11, 72, 0
9, 120840, Note_on_c, 11, 79, 0
9, 121020, Note_on_c, 11, 79, 100
9, 121020, Note_on_c, 11, 71, 100
9, 121070, Note_on_c, 11, 71, 0
9, 121070, Note_on_c, 11, 79, 0
9, 121080, Note_on_c, 11, 79, 100
9, 121080, Note_on_c, 11, 71, 100
9, 121130, Note_on_c, 11, 71, 0
9, 121130, Note_on_c, 11, 79, 0
9, 121140, Note_on_c, 11, 79, 100
9, 121140, Note_on_c, 11, 71, 100
9, 121190, Note_on_c, 11, 71, 0
9, 121190, Note_on_c, 11, 79, 0
9, 121200, Note_on_c, 11, 79, 100
9, 121200, Note_on_c, 11, 72, 100
9, 121320, Note_on_c, 11, 72, 0
9, 121320, Note_on_c, 11, 79, 0
9, 121500, Note_on_c, 11, 79, 101
9, 121500, Note_on_c, 11, 71, 101
9, 121550, Note_on_c, 11, 71, 0
9, 121550, Note_on_c, 11, 79, 0
9, 121560, Note_on_c, 11, 79, 102
9, 121560, Note_on_c, 11, 71, 102
9, 121610, Note_on_c, 11, 71, 0
9, 121610, Note_on_c, 11, 79, 0
9, 121620, Note_on_c, 11, 79, 104
9, 121620, Note_on_c, 11, 71, 104
9, 121670, Note_on_c, 11, 71, 0
9, 121670, Note_on_c, 11, 79, 0
9, 121680, Note_on_c, 11, 79, 105
9, 121680, Note_on_c, 11, 72, 105
9, 121790, Note_on_c, 11, 72, 0
9, 121790, Note_on_c, 11, 79, 0
9, 121800, Note_on_c, 11, 79, 108
9, 121800, Note_on_c, 11, 71, 108
9, 121800, Note_on_c, 11, 62, 108
9, 121910, Note_on_c, 11, 62, 0
9, 121910, Note_on_c, 11, 71, 0
9, 121910, Note_on_c, 11, 79, 0
9, 121920, Note_on_c, 11, 79, 110
9, 121920, Note_on_c, 11, 72, 110
9, 121920, Note_on_c, 11, 63, 110
9, 122030, Note_on_c, 11, 63, 0
9, 122030, Note_on_c, 11, 72, 0
9, 122030, Note_on_c, 11, 79, 0
9, 122040, Note_on_c, 11, 79, 113
9, 122040, Note_on_c, 11, 71, 113
9, 122040, Note_on_c, 11, 62, 113
9, 122150, Note_on_c, 11, 62, 0
9, 122150, Note_on_c, 11, 71, 0
9, 122150, Note_on_c, 11, 79, 0
9, 122160, Note_on_c, 11, 79, 116
9, 122160, Note_on_c, 11, 72, 116
9, 122160, Note_on_c, 11, 63, 116
9, 122270, Note_on_c, 11, 63, 0
9, 122270, Note_on_c, 11, 72, 0
9, 122270, Note_on_c, 11, 79, 0
9, 122280, Note_on_c, 11, 83, 118
9, 122280, Note_on_c, 11, 74, 118
9, 122280, Note_on_c, 11, 67, 118
9, 122390, Note_on_c, 11, 67, 0
9, 122390, Note_on_c, 11, 74, 0
9, 122390, Note_on_c, 11, 83, 0
9, 122400, Note_on_c, 11, 84, 121
9, 122400, Note_on_c, 11, 75, 121
9, 122400, Note_on_c, 11, 67, 121
9, 122510, Note_on_c, 11, 67, 0
9, 122510, Note_on_c, 11, 75, 0
9, 122510, Note_on_c, 11, 84, 0
9, 122520, Note_on_c, 11, 83, 124
9, 122520, Note_on_c, 11, 74, 124
9, 122520, Note_on_c, 11, 67, 124
9, 122630, Note_on_c, 11, 67, 0
9, 122630, Note_on_c, 11, 74, 0
9, 122630, Note_on_c, 11, 83, 0
9, 122640, Note_on_c, 11, 84, 127
9, 122640, Note_on_c, 11, 75, 127
9, 122640, Note_on_c, 11, 67, 127
9, 122760, Note_on_c, 11, 67, 0
9, 122760, Note_on_c, 11, 75, 0
9, 122760, Note_on_c, 11, 84, 0
9, 122880, Note_on_c, 11, 71, 127
9, 122880, Note_on_c, 11, 62, 127
9, 122880, Note_on_c, 11, 55, 127
9, 123000, Note_on_c, 11, 55, 0
9, 123000, Note_on_c, 11, 62, 0
9, 123000, Note_on_c, 11, 71, 0
9, 123120, Note_on_c, 11, 72, 127
9, 123120, Note_on_c, 11, 63, 127
9, 123120, Note_on_c, 11, 55, 127
9, 123240, Note_on_c, 11, 55, 0
9, 123240, Note_on_c, 11, 63, 0
9, 123240, Note_on_c, 11, 72, 0
9, 123240, End_track
10, 0, Start_track
10, 0, MIDI_port, 0
10, 0, Title_t, "Violini II."
10, 0, Program_c, 12, 48
10, 0, Control_c, 12, 7, 127
10, 0, Control_c, 12, 10, 44
10, 60, Note_on_c, 12, 67, 127
10, 110, Note_on_c, 12, 67, 0
10, 120, Note_on_c, 12, 67, 127
10, 170, Note_on_c, 12, 67, 0
10, 180, Note_on_c, 12, 67, 127
10, 230, Note_on_c, 12, 67, 0
10, 240, Note_on_c, 12, 63, 127
10, 480, Note_on_c, 12, 63, 0
10, 540, Note_on_c, 12, 65, 127
10, 590, Note_on_c, 12, 65, 0
10, 600, Note_on_c, 12, 65, 127
10, 650, Note_on_c, 12, 65, 0
10, 660, Note_on_c, 12, 65, 127
10, 710, Note_on_c, 12, 65, 0
10, 720, Note_on_c, 12, 62, 127
10, 1200, Note_on_c, 12, 62, 0
10, 1260, Note_on_c, 12, 67, 50
10, 1310, Note_on_c, 12, 67, 0
10, 1320, Note_on_c, 12, 67, 50
10, 1370, Note_on_c, 12, 67, 0
10, 1380, Note_on_c, 12, 67, 50
10, 1430, Note_on_c, 12, 67, 0
10, 1440, Note_on_c, 12, 63, 50
10, 2210, Note_on_c, 12, 63, 0
10, 2220, Note_on_c, 12, 67, 50
10, 2270, Note_on_c, 12, 67, 0
10, 2280, Note_on_c, 12, 67, 50
10, 2330, Note_on_c, 12, 67, 0
10, 2340, Note_on_c, 12, 67, 50
10, 2390, Note_on_c, 12, 67, 0
10, 2400, Note_on_c, 12, 62, 50
10, 2870, Note_on_c, 12, 62, 0
10, 2880, Note_on_c, 12, 67, 50
10, 3410, Note_on_c, 12, 67, 0
10, 3420, Note_on_c, 12, 63, 50
10, 3470, Note_on_c, 12, 63, 0
10, 3480, Note_on_c, 12, 63, 50
10, 3530, Note_on_c, 12, 63, 0
10, 3540, Note_on_c, 12, 65, 50
10, 3590, Note_on_c, 12, 65, 0
10, 3600, Note_on_c, 12, 67, 50
10, 3890, Note_on_c, 12, 67, 0
10, 3900, Note_on_c, 12, 63, 50
10, 3950, Note_on_c, 12, 63, 0
10, 3960, Note_on_c, 12, 63, 50
10, 4010, Note_on_c, 12, 63, 0
10, 4020, Note_on_c, 12, 65, 50
10, 4070, Note_on_c, 12, 65, 0
10, 4080, Note_on_c, 12, 67, 50
10, 4130, Note_on_c, 12, 67, 0
10, 4140, Note_on_c, 12, 74, 65
10, 4190, Note_on_c, 12, 74, 0
10, 4200, Note_on_c, 12, 74, 85
10, 4250, Note_on_c, 12, 74, 0
10, 4260, Note_on_c, 12, 67, 106
10, 4310, Note_on_c, 12, 67, 0
10, 4320, Note_on_c, 12, 75, 127
10, 4320, Note_on_c, 12, 67, 127
10, 4320, Note_on_c, 12, 60, 127
10, 4440, Note_on_c, 12, 60, 0
10, 4440, Note_on_c, 12, 67, 0
10, 4440, Note_on_c, 12, 75, 0
10, 4560, Note_on_c, 12, 56, 127
10, 4560, Note_on_c, 12, 66, 127
10, 4560, Note_on_c, 12, 72, 127
10, 4680, Note_on_c, 12, 72, 0
10, 4680, Note_on_c, 12, 66, 0
10, 4680, Note_on_c, 12, 56, 0
10, 4800, Note_on_c, 12, 62, 127
10, 4800, Note_on_c, 12, 71, 127
10, 4800, Note_on_c, 12, 55, 127
10, 4920, Note_on_c, 12, 55, 0
10, 4920, Note_on_c, 12, 71, 0
10, 4920, Note_on_c, 12, 62, 0
10, 5100, Note_on_c, 12, 68, 127
10, 5150, Note_on_c, 12, 68, 0
10, 5160, Note_on_c, 12, 68, 127
10, 5210, Note_on_c, 12, 68, 0
10, 5220, Note_on_c, 12, 68, 127
10, 5270, Note_on_c, 12, 68, 0
10, 5280, Note_on_c, 12, 65, 127
10, 5760, Note_on_c, 12, 65, 0
10, 6060, Note_on_c, 12, 62, 50
10, 6110, Note_on_c, 12, 62, 0
10, 6120, Note_on_c, 12, 62, 50
10, 6170, Note_on_c, 12, 62, 0
10, 6180, Note_on_c, 12, 62, 50
10, 6230, Note_on_c, 12, 62, 0
10, 6240, Note_on_c, 12, 59, 50
10, 6710, Note_on_c, 12, 59, 0
10, 6720, Note_on_c, 12, 60, 50
10, 6840, Note_on_c, 12, 60, 0
10, 7020, Note_on_c, 12, 62, 50
10, 7070, Note_on_c, 12, 62, 0
10, 7080, Note_on_c, 12, 62, 50
10, 7130, Note_on_c, 12, 62, 0
10, 7140, Note_on_c, 12, 62, 50
10, 7190, Note_on_c, 12, 62, 0
10, 7200, Note_on_c, 12, 59, 50
10, 7670, Note_on_c, 12, 59, 0
10, 7680, Note_on_c, 12, 60, 50
10, 7730, Note_on_c, 12, 60, 0
10, 7740, Note_on_c, 12, 67, 52
10, 7790, Note_on_c, 12, 67, 0
10, 7800, Note_on_c, 12, 67, 55
10, 7850, Note_on_c, 12, 67, 0
10, 7860, Note_on_c, 12, 63, 57
10, 7910, Note_on_c, 12, 63, 0
10, 7920, Note_on_c, 12, 65, 60
10, 8210, Note_on_c, 12, 65, 0
10, 8220, Note_on_c, 12, 68, 72
10, 8270, Note_on_c, 12, 68, 0
10, 8280, Note_on_c, 12, 68, 75
10, 8330, Note_on_c, 12, 68, 0
10, 8340, Note_on_c, 12, 65, 77
10, 8390, Note_on_c, 12, 65, 0
10, 8400, Note_on_c, 12, 67, 80
10, 8690, Note_on_c, 12, 67, 0
10, 8700, Note_on_c, 12, 67, 92
10, 8750, Note_on_c, 12, 67, 0
10, 8760, Note_on_c, 12, 67, 95
10, 8810, Note_on_c, 12, 67, 0
10, 8820, Note_on_c, 12, 63, 97
10, 8870, Note_on_c, 12, 63, 0
10, 8880, Note_on_c, 12, 68, 100
10, 8930, Note_on_c, 12, 68, 0
10, 8940, Note_on_c, 12, 68, 100
10, 8990, Note_on_c, 12, 68, 0
10, 9000, Note_on_c, 12, 68, 100
10, 9050, Note_on_c, 12, 68, 0
10, 9060, Note_on_c, 12, 65, 100
10, 9110, Note_on_c, 12, 65, 0
10, 9120, Note_on_c, 12, 70, 100
10, 9170, Note_on_c, 12, 70, 0
10, 9180, Note_on_c, 12, 70, 100
10, 9230, Note_on_c, 12, 70, 0
10, 9240, Note_on_c, 12, 70, 100
10, 9290, Note_on_c, 12, 70, 0
10, 9300, Note_on_c, 12, 67, 100
10, 9350, Note_on_c, 12, 67, 0
10, 9360, Note_on_c, 12, 72, 100
10, 9410, Note_on_c, 12, 72, 0
10, 9420, Note_on_c, 12, 60, 100
10, 9470, Note_on_c, 12, 60, 0
10, 9480, Note_on_c, 12, 60, 100
10, 9530, Note_on_c, 12, 60, 0
10, 9540, Note_on_c, 12, 56, 100
10, 9590, Note_on_c, 12, 56, 0
10, 9600, Note_on_c, 12, 64, 100
10, 9650, Note_on_c, 12, 64, 0
10, 9660, Note_on_c, 12, 64, 100
10, 9710, Note_on_c, 12, 64, 0
10, 9720, Note_on_c, 12, 64, 100
10, 9770, Note_on_c, 12, 64, 0
10, 9780, Note_on_c, 12, 58, 100
10, 9830, Note_on_c, 12, 58, 0
10, 9840, Note_on_c, 12, 65, 100
10, 9890, Note_on_c, 12, 65, 0
10, 9900, Note_on_c, 12, 65, 100
10, 9950, Note_on_c, 12, 65, 0
10, 9960, Note_on_c, 12, 65, 100
10, 10010, Note_on_c, 12, 65, 0
10, 10020, Note_on_c, 12, 60, 100
10, 10070, Note_on_c, 12, 60, 0
10, 10080, Note_on_c, 12, 68, 100
10, 10130, Note_on_c, 12, 68, 0
10, 10140, Note_on_c, 12, 68, 100
10, 10190, Note_on_c, 12, 68, 0
10, 10200, Note_on_c, 12, 68, 100
10, 10250, Note_on_c, 12, 68, 0
10, 10260, Note_on_c, 12, 65, 100
10, 10310, Note_on_c, 12, 65, 0
10, 10320, Note_on_c, 12, 67, 100
10, 10370, Note_on_c, 12, 67, 0
10, 10380, Note_on_c, 12, 72, 100
10, 10380, Note_on_c, 12, 63, 100
10, 10430, Note_on_c, 12, 63, 0
10, 10430, Note_on_c, 12, 72, 0
10, 10440, Note_on_c, 12, 63, 100
10, 10440, Note_on_c, 12, 72, 100
10, 10490, Note_on_c, 12, 72, 0
10, 10490, Note_on_c, 12, 63, 0
10, 10500, Note_on_c, 12, 72, 100
10, 10500, Note_on_c, 12, 63, 100
10, 10550, Note_on_c, 12, 63, 0
10, 10550, Note_on_c, 12, 72, 0
10, 10560, Note_on_c, 12, 72, 100
10, 10560, Note_on_c, 12, 63, 100
10, 10610, Note_on_c, 12, 63, 0
10, 10610, Note_on_c, 12, 72, 0
10, 10620, Note_on_c, 12, 72, 100
10, 10620, Note_on_c, 12, 63, 100
10, 10670, Note_on_c, 12, 63, 0
10, 10670, Note_on_c, 12, 72, 0
10, 10680, Note_on_c, 12, 72, 100
10, 10680, Note_on_c, 12, 63, 100
10, 10730, Note_on_c, 12, 63, 0
10, 10730, Note_on_c, 12, 72, 0
10, 10740, Note_on_c, 12, 63, 100
10, 10740, Note_on_c, 12, 72, 100
10, 10790, Note_on_c, 12, 72, 0
10, 10790, Note_on_c, 12, 63, 0
10, 10800, Note_on_c, 12, 72, 100
10, 10800, Note_on_c, 12, 63, 100
10, 10850, Note_on_c, 12, 63, 0
10, 10850, Note_on_c, 12, 72, 0
10, 10860, Note_on_c, 12, 63, 100
10, 10860, Note_on_c, 12, 72, 100
10, 10910, Note_on_c, 12, 72, 0
10, 10910, Note_on_c, 12, 63, 0
10, 10920, Note_on_c, 12, 63, 100
10, 10920, Note_on_c, 12, 72, 100
10, 10970, Note_on_c, 12, 72, 0
10, 10970, Note_on_c, 12, 63, 0
10, 10980, Note_on_c, 12, 72, 100
10, 10980, Note_on_c, 12, 63, 100
10, 11030, Note_on_c, 12, 63, 0
10, 11030, Note_on_c, 12, 72, 0
10, 11040, Note_on_c, 12, 63, 100
10, 11040, Note_on_c, 12, 72, 100
10, 11090, Note_on_c, 12, 72, 0
10, 11090, Note_on_c, 12, 63, 0
10, 11100, Note_on_c, 12, 72, 100
10, 11100, Note_on_c, 12, 63, 100
10, 11150, Note_on_c, 12, 63, 0
10, 11150, Note_on_c, 12, 72, 0
10, 11160, Note_on_c, 12, 72, 100
10, 11160, Note_on_c, 12, 63, 100
10, 11210, Note_on_c, 12, 63, 0
10, 11210, Note_on_c, 12, 72, 0
10, 11220, Note_on_c, 12, 72, 100
10, 11220, Note_on_c, 12, 63, 100
10, 11270, Note_on_c, 12, 63, 0
10, 11270, Note_on_c, 12, 72, 0
10, 11280, Note_on_c, 12, 71, 100
10, 11280, Note_on_c, 12, 62, 100
10, 11330, Note_on_c, 12, 62, 0
10, 11330, Note_on_c, 12, 71, 0
10, 11340, Note_on_c, 12, 77, 100
10, 11390, Note_on_c, 12, 77, 0
10, 11400, Note_on_c, 12, 74, 100
10, 11450, Note_on_c, 12, 74, 0
10, 11460, Note_on_c, 12, 74, 100
10, 11510, Note_on_c, 12, 74, 0
10, 11520, Note_on_c, 12, 71, 100
10, 11570, Note_on_c, 12, 71, 0
10, 11580, Note_on_c, 12, 67, 100
10, 11630, Note_on_c, 12, 67, 0
10, 11640, Note_on_c, 12, 65, 100
10, 11690, Note_on_c, 12, 65, 0
10, 11700, Note_on_c, 12, 65, 100
10, 11750, Note_on_c, 12, 65, 0
10, 11760, Note_on_c, 12, 62, 100
10, 11810, Note_on_c, 12, 62, 0
10, 11820, Note_on_c, 12, 59, 100
10, 11870, Note_on_c, 12, 59, 0
10, 11880, Note_on_c, 12, 55, 100
10, 11930, Note_on_c, 12, 55, 0
10, 11940, Note_on_c, 12, 65, 100
10, 11990, Note_on_c, 12, 65, 0
10, 12000, Note_on_c, 12, 62, 100
10, 12050, Note_on_c, 12, 62, 0
10, 12060, Note_on_c, 12, 59, 100
10, 12110, Note_on_c, 12, 59, 0
10, 12120, Note_on_c, 12, 60, 100
10, 12170, Note_on_c, 12, 60, 0
10, 12180, Note_on_c, 12, 60, 100
10, 12230, Note_on_c, 12, 60, 0
10, 12240, Note_on_c, 12, 72, 127
10, 12290, Note_on_c, 12, 72, 0
10, 12300, Note_on_c, 12, 75, 127
10, 12350, Note_on_c, 12, 75, 0
10, 12360, Note_on_c, 12, 75, 127
10, 12410, Note_on_c, 12, 75, 0
10, 12420, Note_on_c, 12, 75, 127
10, 12470, Note_on_c, 12, 75, 0
10, 12480, Note_on_c, 12, 72, 127
10, 12530, Note_on_c, 12, 72, 0
10, 12540, Note_on_c, 12, 69, 127
10, 12590, Note_on_c, 12, 69, 0
10, 12600, Note_on_c, 12, 69, 127
10, 12650, Note_on_c, 12, 69, 0
10, 12660, Note_on_c, 12, 69, 127
10, 12710, Note_on_c, 12, 69, 0
10, 12720, Note_on_c, 12, 66, 127
10, 12770, Note_on_c, 12, 66, 0
10, 12780, Note_on_c, 12, 63, 127
10, 12830, Note_on_c, 12, 63, 0
10, 12840, Note_on_c, 12, 63, 127
10, 12890, Note_on_c, 12, 63, 0
10, 12900, Note_on_c, 12, 63, 127
10, 12950, Note_on_c, 12, 63, 0
10, 12960, Note_on_c, 12, 60, 127
10, 13010, Note_on_c, 12, 60, 0
10, 13020, Note_on_c, 12, 57, 127
10, 13020, Note_on_c, 12, 69, 127
10, 13070, Note_on_c, 12, 69, 0
10, 13070, Note_on_c, 12, 57, 0
10, 13080, Note_on_c, 12, 69, 127
10, 13080, Note_on_c, 12, 57, 127
10, 13130, Note_on_c, 12, 57, 0
10, 13130, Note_on_c, 12, 69, 0
10, 13140, Note_on_c, 12, 57, 127
10, 13140, Note_on_c, 12, 69, 127
10, 13190, Note_on_c, 12, 69, 0
10, 13190, Note_on_c, 12, 57, 0
10, 13200, Note_on_c, 12, 57, 127
10, 13200, Note_on_c, 12, 69, 127
10, 13320, Note_on_c, 12, 69, 0
10, 13320, Note_on_c, 12, 57, 0
10, 13680, Note_on_c, 12, 70, 127
10, 13680, Note_on_c, 12, 65, 127
10, 13680, Note_on_c, 12, 58, 127
10, 13800, Note_on_c, 12, 58, 0
10, 13800, Note_on_c, 12, 65, 0
10, 13800, Note_on_c, 12, 70, 0
10, 14880, Note_on_c, 12, 67, 50
10, 15120, Note_on_c, 12, 67, 0
10, 15120, Note_on_c, 12, 68, 50
10, 15350, Note_on_c, 12, 68, 0
10, 15360, Note_on_c, 12, 68, 50
10, 15600, Note_on_c, 12, 68, 0
10, 15600, Note_on_c, 12, 67, 50
10, 15830, Note_on_c, 12, 67, 0
10, 15840, Note_on_c, 12, 67, 50
10, 16080, Note_on_c, 12, 67, 0
10, 16080, Note_on_c, 12, 68, 50
10, 16310, Note_on_c, 12, 68, 0
10, 16320, Note_on_c, 12, 68, 50
10, 16560, Note_on_c, 12, 68, 0
10, 16560, Note_on_c, 12, 67, 50
10, 16790, Note_on_c, 12, 67, 0
10, 16800, Note_on_c, 12, 67, 50
10, 17040, Note_on_c, 12, 67, 0
10, 17040, Note_on_c, 12, 68, 50
10, 17270, Note_on_c, 12, 68, 0
10, 17280, Note_on_c, 12, 68, 50
10, 17520, Note_on_c, 12, 68, 0
10, 17520, Note_on_c, 12, 67, 50
10, 17750, Note_on_c, 12, 67, 0
10, 17760, Note_on_c, 12, 67, 50
10, 18230, Note_on_c, 12, 67, 0
10, 18240, Note_on_c, 12, 67, 50
10, 18480, Note_on_c, 12, 67, 0
10, 18480, Note_on_c, 12, 65, 50
10, 18710, Note_on_c, 12, 65, 0
10, 18720, Note_on_c, 12, 68, 50
10, 18960, Note_on_c, 12, 68, 0
10, 18960, Note_on_c, 12, 70, 50
10, 19190, Note_on_c, 12, 70, 0
10, 19200, Note_on_c, 12, 70, 50
10, 19440, Note_on_c, 12, 70, 0
10, 19440, Note_on_c, 12, 68, 50
10, 19670, Note_on_c, 12, 68, 0
10, 19680, Note_on_c, 12, 63, 50
10, 19800, Note_on_c, 12, 63, 0
10, 19800, Note_on_c, 12, 65, 50
10, 19920, Note_on_c, 12, 65, 0
10, 19920, Note_on_c, 12, 66, 50
10, 20040, Note_on_c, 12, 66, 0
10, 20040, Note_on_c, 12, 65, 53
10, 20160, Note_on_c, 12, 65, 0
10, 20160, Note_on_c, 12, 63, 57
10, 20280, Note_on_c, 12, 63, 0
10, 20280, Note_on_c, 12, 65, 61
10, 20390, Note_on_c, 12, 65, 0
10, 20400, Note_on_c, 12, 66, 65
10, 20520, Note_on_c, 12, 66, 0
10, 20520, Note_on_c, 12, 65, 69
10, 20640, Note_on_c, 12, 65, 0
10, 20640, Note_on_c, 12, 63, 73
10, 20760, Note_on_c, 12, 63, 0
10, 20760, Note_on_c, 12, 65, 76
10, 20870, Note_on_c, 12, 65, 0
10, 20880, Note_on_c, 12, 66, 80
10, 21000, Note_on_c, 12, 66, 0
10, 21000, Note_on_c, 12, 65, 84
10, 21120, Note_on_c, 12, 65, 0
10, 21120, Note_on_c, 12, 63, 88
10, 21240, Note_on_c, 12, 63, 0
10, 21240, Note_on_c, 12, 65, 92
10, 21350, Note_on_c, 12, 65, 0
10, 21360, Note_on_c, 12, 66, 96
10, 21480, Note_on_c, 12, 66, 0
10, 21480, Note_on_c, 12, 65, 100
10, 21600, Note_on_c, 12, 65, 0
10, 21600, Note_on_c, 12, 63, 103
10, 21720, Note_on_c, 12, 63, 0
10, 21720, Note_on_c, 12, 65, 107
10, 21840, Note_on_c, 12, 65, 0
10, 21840, Note_on_c, 12, 66, 111
10, 21960, Note_on_c, 12, 66, 0
10, 21960, Note_on_c, 12, 65, 115
10, 22080, Note_on_c, 12, 65, 0
10, 22080, Note_on_c, 12, 66, 119
10, 22200, Note_on_c, 12, 66, 0
10, 22200, Note_on_c, 12, 69, 123
10, 22310, Note_on_c, 12, 69, 0
10, 22320, Note_on_c, 12, 70, 127
10, 22320, Note_on_c, 12, 82, 127
10, 22610, Note_on_c, 12, 82, 0
10, 22610, Note_on_c, 12, 70, 0
10, 22620, Note_on_c, 12, 84, 127
10, 22665, Note_on_c, 12, 84, 0
10, 22680, Note_on_c, 12, 82, 127
10, 22725, Note_on_c, 12, 82, 0
10, 22740, Note_on_c, 12, 80, 127
10, 22785, Note_on_c, 12, 80, 0
10, 22800, Note_on_c, 12, 80, 127
10, 22860, Note_on_c, 12, 80, 0
10, 22860, Note_on_c, 12, 79, 127
10, 22910, Note_on_c, 12, 79, 0
10, 22920, Note_on_c, 12, 77, 127
10, 22965, Note_on_c, 12, 77, 0
10, 22980, Note_on_c, 12, 75, 127
10, 23025, Note_on_c, 12, 75, 0
10, 23040, Note_on_c, 12, 75, 127
10, 23100, Note_on_c, 12, 75, 0
10, 23100, Note_on_c, 12, 74, 127
10, 23150, Note_on_c, 12, 74, 0
10, 23160, Note_on_c, 12, 72, 127
10, 23205, Note_on_c, 12, 72, 0
10, 23220, Note_on_c, 12, 74, 127
10, 23265, Note_on_c, 12, 74, 0
10, 23280, Note_on_c, 12, 77, 127
10, 23340, Note_on_c, 12, 77, 0
10, 23340, Note_on_c, 12, 75, 127
10, 23390, Note_on_c, 12, 75, 0
10, 23400, Note_on_c, 12, 70, 127
10, 23445, Note_on_c, 12, 70, 0
10, 23460, Note_on_c, 12, 67, 127
10, 23505, Note_on_c, 12, 67, 0
10, 23520, Note_on_c, 12, 74, 127
10, 23580, Note_on_c, 12, 74, 0
10, 23580, Note_on_c, 12, 72, 127
10, 23630, Note_on_c, 12, 72, 0
10, 23640, Note_on_c, 12, 68, 127
10, 23685, Note_on_c, 12, 68, 0
10, 23700, Note_on_c, 12, 65, 127
10, 23745, Note_on_c, 12, 65, 0
10, 23760, Note_on_c, 12, 72, 127
10, 23820, Note_on_c, 12, 72, 0
10, 23820, Note_on_c, 12, 70, 127
10, 23870, Note_on_c, 12, 70, 0
10, 23880, Note_on_c, 12, 67, 127
10, 23925, Note_on_c, 12, 67, 0
10, 23940, Note_on_c, 12, 63, 127
10, 23985, Note_on_c, 12, 63, 0
10, 24000, Note_on_c, 12, 58, 127
10, 24050, Note_on_c, 12, 58, 0
10, 24060, Note_on_c, 12, 69, 127
10, 24120, Note_on_c, 12, 69, 0
10, 24120, Note_on_c, 12, 70, 127
10, 24180, Note_on_c, 12, 70, 0
10, 24180, Note_on_c, 12, 69, 127
10, 24240, Note_on_c, 12, 69, 0
10, 24240, Note_on_c, 12, 70, 127
10, 24300, Note_on_c, 12, 70, 0
10, 24300, Note_on_c, 12, 69, 127
10, 24360, Note_on_c, 12, 69, 0
10, 24360, Note_on_c, 12, 70, 127
10, 24420, Note_on_c, 12, 70, 0
10, 24420, Note_on_c, 12, 69, 127
10, 24470, Note_on_c, 12, 69, 0
10, 24480, Note_on_c, 12, 70, 127
10, 24525, Note_on_c, 12, 70, 0
10, 24540, Note_on_c, 12, 84, 127
10, 24585, Note_on_c, 12, 84, 0
10, 24600, Note_on_c, 12, 82, 127
10, 24645, Note_on_c, 12, 82, 0
10, 24660, Note_on_c, 12, 80, 127
10, 24705, Note_on_c, 12, 80, 0
10, 24720, Note_on_c, 12, 80, 127
10, 24780, Note_on_c, 12, 80, 0
10, 24780, Note_on_c, 12, 79, 127
10, 24830, Note_on_c, 12, 79, 0
10, 24840, Note_on_c, 12, 77, 127
10, 24885, Note_on_c, 12, 77, 0
10, 24900, Note_on_c, 12, 75, 127
10, 24945, Note_on_c, 12, 75, 0
10, 24960, Note_on_c, 12, 75, 127
10, 25020, Note_on_c, 12, 75, 0
10, 25020, Note_on_c, 12, 74, 127
10, 25070, Note_on_c, 12, 74, 0
10, 25080, Note_on_c, 12, 72, 127
10, 25125, Note_on_c, 12, 72, 0
10, 25140, Note_on_c, 12, 74, 127
10, 25185, Note_on_c, 12, 74, 0
10, 25200, Note_on_c, 12, 77, 127
10, 25260, Note_on_c, 12, 77, 0
10, 25260, Note_on_c, 12, 75, 127
10, 25310, Note_on_c, 12, 75, 0
10, 25320, Note_on_c, 12, 70, 127
10, 25365, Note_on_c, 12, 70, 0
10, 25380, Note_on_c, 12, 67, 127
10, 25425, Note_on_c, 12, 67, 0
10, 25440, Note_on_c, 12, 74, 127
10, 25500, Note_on_c, 12, 74, 0
10, 25500, Note_on_c, 12, 72, 127
10, 25550, Note_on_c, 12, 72, 0
10, 25560, Note_on_c, 12, 68, 127
10, 25605, Note_on_c, 12, 68, 0
10, 25620, Note_on_c, 12, 65, 127
10, 25665, Note_on_c, 12, 65, 0
10, 25680, Note_on_c, 12, 72, 127
10, 25740, Note_on_c, 12, 72, 0
10, 25740, Note_on_c, 12, 70, 127
10, 25790, Note_on_c, 12, 70, 0
10, 25800, Note_on_c, 12, 67, 127
10, 25845, Note_on_c, 12, 67, 0
10, 25860, Note_on_c, 12, 63, 127
10, 25905, Note_on_c, 12, 63, 0
10, 25920, Note_on_c, 12, 58, 127
10, 25970, Note_on_c, 12, 58, 0
10, 25980, Note_on_c, 12, 70, 127
10, 26030, Note_on_c, 12, 70, 0
10, 26040, Note_on_c, 12, 82, 127
10, 26090, Note_on_c, 12, 82, 0
10, 26100, Note_on_c, 12, 82, 127
10, 26150, Note_on_c, 12, 82, 0
10, 26160, Note_on_c, 12, 63, 127
10, 26930, Note_on_c, 12, 63, 0
10, 26940, Note_on_c, 12, 62, 127
10, 26990, Note_on_c, 12, 62, 0
10, 27000, Note_on_c, 12, 62, 127
10, 27050, Note_on_c, 12, 62, 0
10, 27060, Note_on_c, 12, 62, 127
10, 27110, Note_on_c, 12, 62, 0
10, 27120, Note_on_c, 12, 63, 127
10, 27890, Note_on_c, 12, 63, 0
10, 27900, Note_on_c, 12, 65, 127
10, 27900, Note_on_c, 12, 74, 127
10, 27950, Note_on_c, 12, 74, 0
10, 27950, Note_on_c, 12, 65, 0
10, 27960, Note_on_c, 12, 74, 127
10, 27960, Note_on_c, 12, 65, 127
10, 28010, Note_on_c, 12, 65, 0
10, 28010, Note_on_c, 12, 74, 0
10, 28020, Note_on_c, 12, 74, 127
10, 28020, Note_on_c, 12, 65, 127
10, 28070, Note_on_c, 12, 65, 0
10, 28070, Note_on_c, 12, 74, 0
10, 28080, Note_on_c, 12, 75, 127
10, 28080, Note_on_c, 12, 67, 127
10, 28200, Note_on_c, 12, 67, 0
10, 28200, Note_on_c, 12, 75, 0
10, 28380, Note_on_c, 12, 74, 127
10, 28380, Note_on_c, 12, 65, 127
10, 28430, Note_on_c, 12, 65, 0
10, 28430, Note_on_c, 12, 74, 0
10, 28440, Note_on_c, 12, 74, 127
10, 28440, Note_on_c, 12, 65, 127
10, 28490, Note_on_c, 12, 65, 0
10, 28490, Note_on_c, 12, 74, 0
10, 28500, Note_on_c, 12, 65, 127
10, 28500, Note_on_c, 12, 74, 127
10, 28550, Note_on_c, 12, 74, 0
10, 28550, Note_on_c, 12, 65, 0
10, 28560, Note_on_c, 12, 67, 127
10, 28560, Note_on_c, 12, 75, 127
10, 28680, Note_on_c, 12, 75, 0
10, 28680, Note_on_c, 12, 67, 0
10, 28860, Note_on_c, 12, 77, 127
10, 28860, Note_on_c, 12, 70, 127
10, 28910, Note_on_c, 12, 70, 0
10, 28910, Note_on_c, 12, 77, 0
10, 28920, Note_on_c, 12, 77, 127
10, 28920, Note_on_c, 12, 70, 127
10, 28970, Note_on_c, 12, 70, 0
10, 28970, Note_on_c, 12, 77, 0
10, 28980, Note_on_c, 12, 70, 127
10, 28980, Note_on_c, 12, 77, 127
10, 29030, Note_on_c, 12, 77, 0
10, 29030, Note_on_c, 12, 70, 0
10, 29040, Note_on_c, 12, 70, 127
10, 29040, Note_on_c, 12, 63, 127
10, 29040, Note_on_c, 12, 79, 127
10, 29160, Note_on_c, 12, 79, 0
10, 29160, Note_on_c, 12, 63, 0
10, 29160, Note_on_c, 12, 70, 0
10, 30060, Note_on_c, 12, 61, 127
10, 30110, Note_on_c, 12, 61, 0
10, 30120, Note_on_c, 12, 61, 127
10, 30170, Note_on_c, 12, 61, 0
10, 30180, Note_on_c, 12, 61, 127
10, 30230, Note_on_c, 12, 61, 0
10, 30240, Note_on_c, 12, 60, 127
10, 30720, Note_on_c, 12, 60, 0
10, 30780, Note_on_c, 12, 72, 50
10, 30830, Note_on_c, 12, 72, 0
10, 30840, Note_on_c, 12, 72, 50
10, 30890, Note_on_c, 12, 72, 0
10, 30900, Note_on_c, 12, 72, 50
10, 30950, Note_on_c, 12, 72, 0
10, 30960, Note_on_c, 12, 68, 50
10, 31730, Note_on_c, 12, 68, 0
10, 31740, Note_on_c, 12, 72, 50
10, 31790, Note_on_c, 12, 72, 0
10, 31800, Note_on_c, 12, 72, 50
10, 31850, Note_on_c, 12, 72, 0
10, 31860, Note_on_c, 12, 72, 50
10, 31910, Note_on_c, 12, 72, 0
10, 31920, Note_on_c, 12, 67, 50
10, 32870, Note_on_c, 12, 67, 0
10, 32880, Note_on_c, 12, 68, 50
10, 32930, Note_on_c, 12, 68, 0
10, 32940, Note_on_c, 12, 68, 50
10, 32990, Note_on_c, 12, 68, 0
10, 33000, Note_on_c, 12, 68, 50
10, 33050, Note_on_c, 12, 68, 0
10, 33060, Note_on_c, 12, 70, 50
10, 33110, Note_on_c, 12, 70, 0
10, 33120, Note_on_c, 12, 72, 50
10, 33410, Note_on_c, 12, 72, 0
10, 33420, Note_on_c, 12, 68, 50
10, 33470, Note_on_c, 12, 68, 0
10, 33480, Note_on_c, 12, 68, 50
10, 33530, Note_on_c, 12, 68, 0
10, 33540, Note_on_c, 12, 70, 50
10, 33590, Note_on_c, 12, 70, 0
10, 33600, Note_on_c, 12, 72, 50
10, 33960, Note_on_c, 12, 72, 0
10, 34860, Note_on_c, 12, 63, 50
10, 34910, Note_on_c, 12, 63, 0
10, 34920, Note_on_c, 12, 63, 50
10, 34970, Note_on_c, 12, 63, 0
10, 34980, Note_on_c, 12, 65, 50
10, 35030, Note_on_c, 12, 65, 0
10, 35040, Note_on_c, 12, 67, 50
10, 35330, Note_on_c, 12, 67, 0
10, 35340, Note_on_c, 12, 63, 50
10, 35390, Note_on_c, 12, 63, 0
10, 35400, Note_on_c, 12, 63, 50
10, 35450, Note_on_c, 12, 63, 0
10, 35460, Note_on_c, 12, 65, 50
10, 35510, Note_on_c, 12, 65, 0
10, 35520, Note_on_c, 12, 67, 50
10, 36000, Note_on_c, 12, 67, 0
10, 36000, Note_on_c, 12, 69, 66
10, 36120, Note_on_c, 12, 69, 0
10, 36120, Note_on_c, 12, 70, 75
10, 36240, Note_on_c, 12, 70, 0
10, 36240, Note_on_c, 12, 72, 83
10, 36360, Note_on_c, 12, 72, 0
10, 36360, Note_on_c, 12, 73, 91
10, 36470, Note_on_c, 12, 73, 0
10, 36480, Note_on_c, 12, 74, 50
10, 36770, Note_on_c, 12, 74, 0
10, 36780, Note_on_c, 12, 67, 50
10, 36830, Note_on_c, 12, 67, 0
10, 36840, Note_on_c, 12, 67, 50
10, 36890, Note_on_c, 12, 67, 0
10, 36900, Note_on_c, 12, 69, 50
10, 36950, Note_on_c, 12, 69, 0
10, 36960, Note_on_c, 12, 66, 50
10, 37080, Note_on_c, 12, 66, 0
10, 37260, Note_on_c, 12, 79, 50
10, 37310, Note_on_c, 12, 79, 0
10, 37320, Note_on_c, 12, 79, 50
10, 37370, Note_on_c, 12, 79, 0
10, 37380, Note_on_c, 12, 81, 50
10, 37430, Note_on_c, 12, 81, 0
10, 37440, Note_on_c, 12, 78, 50
10, 37550, Note_on_c, 12, 78, 0
10, 37560, Note_on_c, 12, 74, 50
10, 37730, Note_on_c, 12, 74, 0
10, 37740, Note_on_c, 12, 67, 50
10, 37790, Note_on_c, 12, 67, 0
10, 37800, Note_on_c, 12, 67, 50
10, 37850, Note_on_c, 12, 67, 0
10, 37860, Note_on_c, 12, 69, 50
10, 37910, Note_on_c, 12, 69, 0
10, 37920, Note_on_c, 12, 70, 50
10, 38040, Note_on_c, 12, 70, 0
10, 38220, Note_on_c, 12, 66, 50
10, 38270, Note_on_c, 12, 66, 0
10, 38280, Note_on_c, 12, 69, 50
10, 38330, Note_on_c, 12, 69, 0
10, 38340, Note_on_c, 12, 70, 50
10, 38390, Note_on_c, 12, 70, 0
10, 38400, Note_on_c, 12, 72, 50
10, 38520, Note_on_c, 12, 72, 0
10, 38700, Note_on_c, 12, 66, 50
10, 38750, Note_on_c, 12, 66, 0
10, 38760, Note_on_c, 12, 69, 50
10, 38810, Note_on_c, 12, 69, 0
10, 38820, Note_on_c, 12, 70, 50
10, 38870, Note_on_c, 12, 70, 0
10, 38880, Note_on_c, 12, 72, 50
10, 39000, Note_on_c, 12, 72, 0
10, 39180, Note_on_c, 12, 67, 50
10, 39230, Note_on_c, 12, 67, 0
10, 39240, Note_on_c, 12, 70, 50
10, 39290, Note_on_c, 12, 70, 0
10, 39300, Note_on_c, 12, 72, 50
10, 39350, Note_on_c, 12, 72, 0
10, 39360, Note_on_c, 12, 74, 50
10, 39480, Note_on_c, 12, 74, 0
10, 39660, Note_on_c, 12, 67, 56
10, 39710, Note_on_c, 12, 67, 0
10, 39720, Note_on_c, 12, 70, 62
10, 39770, Note_on_c, 12, 70, 0
10, 39780, Note_on_c, 12, 72, 68
10, 39830, Note_on_c, 12, 72, 0
10, 39840, Note_on_c, 12, 74, 75
10, 39890, Note_on_c, 12, 74, 0
10, 39900, Note_on_c, 12, 70, 81
10, 39950, Note_on_c, 12, 70, 0
10, 39960, Note_on_c, 12, 72, 87
10, 40010, Note_on_c, 12, 72, 0
10, 40020, Note_on_c, 12, 74, 93
10, 40070, Note_on_c, 12, 74, 0
10, 40080, Note_on_c, 12, 69, 100
10, 40130, Note_on_c, 12, 69, 0
10, 40140, Note_on_c, 12, 69, 100
10, 40140, Note_on_c, 12, 78, 100
10, 40190, Note_on_c, 12, 78, 0
10, 40190, Note_on_c, 12, 69, 0
10, 40200, Note_on_c, 12, 69, 100
10, 40200, Note_on_c, 12, 78, 100
10, 40250, Note_on_c, 12, 78, 0
10, 40250, Note_on_c, 12, 69, 0
10, 40260, Note_on_c, 12, 78, 100
10, 40260, Note_on_c, 12, 69, 100
10, 40310, Note_on_c, 12, 69, 0
10, 40310, Note_on_c, 12, 78, 0
10, 40320, Note_on_c, 12, 78, 100
10, 40320, Note_on_c, 12, 69, 100
10, 40370, Note_on_c, 12, 69, 0
10, 40370, Note_on_c, 12, 78, 0
10, 40380, Note_on_c, 12, 69, 100
10, 40380, Note_on_c, 12, 78, 100
10, 40430, Note_on_c, 12, 78, 0
10, 40430, Note_on_c, 12, 69, 0
10, 40440, Note_on_c, 12, 78, 100
10, 40440, Note_on_c, 12, 69, 100
10, 40490, Note_on_c, 12, 69, 0
10, 40490, Note_on_c, 12, 78, 0
10, 40500, Note_on_c, 12, 78, 100
10, 40500, Note_on_c, 12, 69, 100
10, 40550, Note_on_c, 12, 69, 0
10, 40550, Note_on_c, 12, 78, 0
10, 40560, Note_on_c, 12, 69, 100
10, 40560, Note_on_c, 12, 78, 100
10, 40680, Note_on_c, 12, 78, 0
10, 40680, Note_on_c, 12, 69, 0
10, 40860, Note_on_c, 12, 67, 100
10, 40860, Note_on_c, 12, 70, 100
10, 40910, Note_on_c, 12, 70, 0
10, 40910, Note_on_c, 12, 67, 0
10, 40920, Note_on_c, 12, 67, 100
10, 40920, Note_on_c, 12, 70, 100
10, 40970, Note_on_c, 12, 70, 0
10, 40970, Note_on_c, 12, 67, 0
10, 40980, Note_on_c, 12, 67, 100
10, 40980, Note_on_c, 12, 70, 100
10, 41030, Note_on_c, 12, 70, 0
10, 41030, Note_on_c, 12, 67, 0
10, 41040, Note_on_c, 12, 70, 100
10, 41040, Note_on_c, 12, 67, 100
10, 41090, Note_on_c, 12, 67, 0
10, 41090, Note_on_c, 12, 70, 0
10, 41100, Note_on_c, 12, 70, 100
10, 41100, Note_on_c, 12, 79, 100
10, 41150, Note_on_c, 12, 79, 0
10, 41150, Note_on_c, 12, 70, 0
10, 41160, Note_on_c, 12, 70, 100
10, 41160, Note_on_c, 12, 79, 100
10, 41210, Note_on_c, 12, 79, 0
10, 41210, Note_on_c, 12, 70, 0
10, 41220, Note_on_c, 12, 70, 100
10, 41220, Note_on_c, 12, 79, 100
10, 41270, Note_on_c, 12, 79, 0
10, 41270, Note_on_c, 12, 70, 0
10, 41280, Note_on_c, 12, 79, 100
10, 41280, Note_on_c, 12, 70, 100
10, 41330, Note_on_c, 12, 70, 0
10, 41330, Note_on_c, 12, 79, 0
10, 41340, Note_on_c, 12, 79, 100
10, 41340, Note_on_c, 12, 70, 100
10, 41390, Note_on_c, 12, 70, 0
10, 41390, Note_on_c, 12, 79, 0
10, 41400, Note_on_c, 12, 70, 100
10, 41400, Note_on_c, 12, 79, 100
10, 41450, Note_on_c, 12, 79, 0
10, 41450, Note_on_c, 12, 70, 0
10, 41460, Note_on_c, 12, 70, 100
10, 41460, Note_on_c, 12, 79, 100
10, 41510, Note_on_c, 12, 79, 0
10, 41510, Note_on_c, 12, 70, 0
10, 41520, Note_on_c, 12, 79, 100
10, 41520, Note_on_c, 12, 70, 100
10, 41640, Note_on_c, 12, 70, 0
10, 41640, Note_on_c, 12, 79, 0
10, 41820, Note_on_c, 12, 70, 104
10, 41820, Note_on_c, 12, 79, 104
10, 41870, Note_on_c, 12, 79, 0
10, 41870, Note_on_c, 12, 70, 0
10, 41880, Note_on_c, 12, 79, 106
10, 41880, Note_on_c, 12, 70, 106
10, 41930, Note_on_c, 12, 70, 0
10, 41930, Note_on_c, 12, 79, 0
10, 41940, Note_on_c, 12, 79, 107
10, 41940, Note_on_c, 12, 70, 107
10, 41990, Note_on_c, 12, 70, 0
10, 41990, Note_on_c, 12, 79, 0
10, 42000, Note_on_c, 12, 70, 109
10, 42000, Note_on_c, 12, 79, 109
10, 42120, Note_on_c, 12, 79, 0
10, 42120, Note_on_c, 12, 70, 0
10, 42360, Note_on_c, 12, 73, 118
10, 42410, Note_on_c, 12, 73, 0
10, 42420, Note_on_c, 12, 73, 119
10, 42470, Note_on_c, 12, 73, 0
10, 42480, Note_on_c, 12, 73, 121
10, 42590, Note_on_c, 12, 73, 0
10, 42600, Note_on_c, 12, 74, 124
10, 42650, Note_on_c, 12, 74, 0
10, 42660, Note_on_c, 12, 74, 125
10, 42710, Note_on_c, 12, 74, 0
10, 42720, Note_on_c, 12, 74, 127
10, 42770, Note_on_c, 12, 74, 0
10, 42780, Note_on_c, 12, 74, 127
10, 42830, Note_on_c, 12, 74, 0
10, 42840, Note_on_c, 12, 74, 127
10, 42890, Note_on_c, 12, 74, 0
10, 42900, Note_on_c, 12, 74, 127
10, 42950, Note_on_c, 12, 74, 0
10, 42960, Note_on_c, 12, 67, 127
10, 43180, Note_on_c, 12, 67, 0
10, 43200, Note_on_c, 12, 69, 127
10, 43420, Note_on_c, 12, 69, 0
10, 43440, Note_on_c, 12, 62, 127
10, 43500, Note_on_c, 12, 62, 0
10, 43500, Note_on_c, 12, 62, 127
10, 44270, Note_on_c, 12, 62, 0
10, 44280, Note_on_c, 12, 66, 127
10, 44330, Note_on_c, 12, 66, 0
10, 44340, Note_on_c, 12, 66, 127
10, 44390, Note_on_c, 12, 66, 0
10, 44400, Note_on_c, 12, 69, 127
10, 44510, Note_on_c, 12, 69, 0
10, 44520, Note_on_c, 12, 74, 127
10, 44570, Note_on_c, 12, 74, 0
10, 44580, Note_on_c, 12, 74, 127
10, 44630, Note_on_c, 12, 74, 0
10, 44640, Note_on_c, 12, 71, 127
10, 44690, Note_on_c, 12, 71, 0
10, 44700, Note_on_c, 12, 67, 127
10, 44750, Note_on_c, 12, 67, 0
10, 44760, Note_on_c, 12, 67, 127
10, 44810, Note_on_c, 12, 67, 0
10, 44820, Note_on_c, 12, 67, 127
10, 44870, Note_on_c, 12, 67, 0
10, 44880, Note_on_c, 12, 60, 127
10, 45100, Note_on_c, 12, 60, 0
10, 45120, Note_on_c, 12, 62, 127
10, 45340, Note_on_c, 12, 62, 0
10, 45360, Note_on_c, 12, 55, 127
10, 45420, Note_on_c, 12, 55, 0
10, 45420, Note_on_c, 12, 55, 127
10, 46190, Note_on_c, 12, 55, 0
10, 46200, Note_on_c, 12, 59, 127
10, 46250, Note_on_c, 12, 59, 0
10, 46260, Note_on_c, 12, 59, 127
10, 46310, Note_on_c, 12, 59, 0
10, 46320, Note_on_c, 12, 62, 127
10, 46430, Note_on_c, 12, 62, 0
10, 46440, Note_on_c, 12, 67, 127
10, 46490, Note_on_c, 12, 67, 0
10, 46500, Note_on_c, 12, 67, 127
10, 46550, Note_on_c, 12, 67, 0
10, 46560, Note_on_c, 12, 64, 127
10, 46680, Note_on_c, 12, 64, 0
10, 47280, Note_on_c, 12, 58, 127
10, 47510, Note_on_c, 12, 58, 0
10, 47520, Note_on_c, 12, 60, 127
10, 47760, Note_on_c, 12, 60, 0
10, 48240, Note_on_c, 12, 58, 127
10, 48470, Note_on_c, 12, 58, 0
10, 48480, Note_on_c, 12, 60, 127
10, 48720, Note_on_c, 12, 60, 0
10, 49200, Note_on_c, 12, 61, 127
10, 49430, Note_on_c, 12, 61, 0
10, 49440, Note_on_c, 12, 57, 127
10, 49680, Note_on_c, 12, 57, 0
10, 50160, Note_on_c, 12, 65, 127
10, 50400, Note_on_c, 12, 65, 0
10, 50640, Note_on_c, 12, 59, 97
10, 50880, Note_on_c, 12, 59, 0
10, 51120, Note_on_c, 12, 56, 66
10, 51360, Note_on_c, 12, 56, 0
10, 51600, Note_on_c, 12, 57, 50
10, 51840, Note_on_c, 12, 57, 0
10, 52080, Note_on_c, 12, 57, 50
10, 52320, Note_on_c, 12, 57, 0
10, 52560, Note_on_c, 12, 57, 50
10, 52800, Note_on_c, 12, 57, 0
10, 53040, Note_on_c, 12, 57, 50
10, 53280, Note_on_c, 12, 57, 0
10, 53520, Note_on_c, 12, 57, 50
10, 53760, Note_on_c, 12, 57, 0
10, 54000, Note_on_c, 12, 57, 50
10, 54240, Note_on_c, 12, 57, 0
10, 54480, Note_on_c, 12, 57, 127
10, 54530, Note_on_c, 12, 57, 0
10, 54540, Note_on_c, 12, 62, 127
10, 54590, Note_on_c, 12, 62, 0
10, 54600, Note_on_c, 12, 62, 127
10, 54650, Note_on_c, 12, 62, 0
10, 54660, Note_on_c, 12, 62, 127
10, 54710, Note_on_c, 12, 62, 0
10, 54720, Note_on_c, 12, 59, 127
10, 54950, Note_on_c, 12, 59, 0
10, 54960, Note_on_c, 12, 60, 127
10, 55190, Note_on_c, 12, 60, 0
10, 55200, Note_on_c, 12, 57, 127
10, 55680, Note_on_c, 12, 57, 0
10, 55920, Note_on_c, 12, 56, 50
10, 56160, Note_on_c, 12, 56, 0
10, 56400, Note_on_c, 12, 56, 50
10, 56640, Note_on_c, 12, 56, 0
10, 56880, Note_on_c, 12, 56, 50
10, 57120, Note_on_c, 12, 56, 0
10, 57360, Note_on_c, 12, 56, 127
10, 57480, Note_on_c, 12, 56, 0
10, 57660, Note_on_c, 12, 68, 127
10, 57710, Note_on_c, 12, 68, 0
10, 57720, Note_on_c, 12, 68, 127
10, 57770, Note_on_c, 12, 68, 0
10, 57780, Note_on_c, 12, 68, 127
10, 57830, Note_on_c, 12, 68, 0
10, 57840, Note_on_c, 12, 65, 127
10, 58130, Note_on_c, 12, 65, 0
10, 58140, Note_on_c, 12, 68, 127
10, 58190, Note_on_c, 12, 68, 0
10, 58200, Note_on_c, 12, 68, 127
10, 58250, Note_on_c, 12, 68, 0
10, 58260, Note_on_c, 12, 68, 127
10, 58310, Note_on_c, 12, 68, 0
10, 58320, Note_on_c, 12, 65, 127
10, 58610, Note_on_c, 12, 65, 0
10, 58620, Note_on_c, 12, 68, 127
10, 58670, Note_on_c, 12, 68, 0
10, 58680, Note_on_c, 12, 68, 127
10, 58730, Note_on_c, 12, 68, 0
10, 58740, Note_on_c, 12, 68, 127
10, 58790, Note_on_c, 12, 68, 0
10, 58800, Note_on_c, 12, 65, 127
10, 58850, Note_on_c, 12, 65, 0
10, 58860, Note_on_c, 12, 68, 127
10, 58910, Note_on_c, 12, 68, 0
10, 58920, Note_on_c, 12, 68, 127
10, 58970, Note_on_c, 12, 68, 0
10, 58980, Note_on_c, 12, 68, 127
10, 59030, Note_on_c, 12, 68, 0
10, 59040, Note_on_c, 12, 65, 127
10, 59090, Note_on_c, 12, 65, 0
10, 59100, Note_on_c, 12, 68, 127
10, 59150, Note_on_c, 12, 68, 0
10, 59160, Note_on_c, 12, 68, 127
10, 59210, Note_on_c, 12, 68, 0
10, 59220, Note_on_c, 12, 68, 127
10, 59270, Note_on_c, 12, 68, 0
10, 59280, Note_on_c, 12, 65, 127
10, 59330, Note_on_c, 12, 65, 0
10, 59340, Note_on_c, 12, 67, 127
10, 59390, Note_on_c, 12, 67, 0
10, 59400, Note_on_c, 12, 67, 127
10, 59450, Note_on_c, 12, 67, 0
10, 59460, Note_on_c, 12, 67, 127
10, 59510, Note_on_c, 12, 67, 0
10, 59520, Note_on_c, 12, 63, 127
10, 60240, Note_on_c, 12, 63, 0
10, 60300, Note_on_c, 12, 65, 127
10, 60350, Note_on_c, 12, 65, 0
10, 60360, Note_on_c, 12, 65, 127
10, 60410, Note_on_c, 12, 65, 0
10, 60420, Note_on_c, 12, 65, 127
10, 60470, Note_on_c, 12, 65, 0
10, 60480, Note_on_c, 12, 62, 127
10, 61440, Note_on_c, 12, 62, 0
10, 61500, Note_on_c, 12, 67, 50
10, 61550, Note_on_c, 12, 67, 0
10, 61560, Note_on_c, 12, 67, 50
10, 61610, Note_on_c, 12, 67, 0
10, 61620, Note_on_c, 12, 67, 50
10, 61670, Note_on_c, 12, 67, 0
10, 61680, Note_on_c, 12, 63, 50
10, 62280, Note_on_c, 12, 63, 0
10, 62460, Note_on_c, 12, 67, 50
10, 62510, Note_on_c, 12, 67, 0
10, 62520, Note_on_c, 12, 67, 50
10, 62570, Note_on_c, 12, 67, 0
10, 62580, Note_on_c, 12, 67, 50
10, 62630, Note_on_c, 12, 67, 0
10, 62640, Note_on_c, 12, 62, 50
10, 63240, Note_on_c, 12, 62, 0
10, 63660, Note_on_c, 12, 63, 50
10, 63710, Note_on_c, 12, 63, 0
10, 63720, Note_on_c, 12, 63, 50
10, 63770, Note_on_c, 12, 63, 0
10, 63780, Note_on_c, 12, 65, 50
10, 63830, Note_on_c, 12, 65, 0
10, 63840, Note_on_c, 12, 67, 50
10, 64130, Note_on_c, 12, 67, 0
10, 64140, Note_on_c, 12, 63, 50
10, 64190, Note_on_c, 12, 63, 0
10, 64200, Note_on_c, 12, 63, 50
10, 64250, Note_on_c, 12, 63, 0
10, 64260, Note_on_c, 12, 65, 50
10, 64310, Note_on_c, 12, 65, 0
10, 64320, Note_on_c, 12, 67, 50
10, 64370, Note_on_c, 12, 67, 0
10, 64380, Note_on_c, 12, 59, 50
10, 64430, Note_on_c, 12, 59, 0
10, 64440, Note_on_c, 12, 60, 50
10, 64490, Note_on_c, 12, 60, 0
10, 64500, Note_on_c, 12, 62, 50
10, 64550, Note_on_c, 12, 62, 0
10, 64560, Note_on_c, 12, 63, 50
10, 64680, Note_on_c, 12, 63, 0
10, 64800, Note_on_c, 12, 56, 50
10, 64800, Note_on_c, 12, 72, 50
10, 64800, Note_on_c, 12, 66, 50
10, 64920, Note_on_c, 12, 66, 0
10, 64920, Note_on_c, 12, 72, 0
10, 64920, Note_on_c, 12, 56, 0
10, 65040, Note_on_c, 12, 71, 50
10, 65040, Note_on_c, 12, 79, 50
10, 65040, Note_on_c, 12, 62, 50
10, 65040, Note_on_c, 12, 55, 50
10, 65160, Note_on_c, 12, 55, 0
10, 65160, Note_on_c, 12, 71, 0
10, 65160, Note_on_c, 12, 79, 0
10, 65160, Note_on_c, 12, 62, 0
10, 66540, Note_on_c, 12, 62, 50
10, 66590, Note_on_c, 12, 62, 0
10, 66600, Note_on_c, 12, 62, 50
10, 66650, Note_on_c, 12, 62, 0
10, 66660, Note_on_c, 12, 62, 50
10, 66710, Note_on_c, 12, 62, 0
10, 66720, Note_on_c, 12, 59, 50
10, 67190, Note_on_c, 12, 59, 0
10, 67200, Note_on_c, 12, 60, 50
10, 67250, Note_on_c, 12, 60, 0
10, 67260, Note_on_c, 12, 68, 53
10, 67310, Note_on_c, 12, 68, 0
10, 67320, Note_on_c, 12, 68, 56
10, 67370, Note_on_c, 12, 68, 0
10, 67380, Note_on_c, 12, 68, 59
10, 67430, Note_on_c, 12, 68, 0
10, 67440, Note_on_c, 12, 65, 62
10, 67490, Note_on_c, 12, 65, 0
10, 67500, Note_on_c, 12, 62, 65
10, 67550, Note_on_c, 12, 62, 0
10, 67560, Note_on_c, 12, 62, 68
10, 67610, Note_on_c, 12, 62, 0
10, 67620, Note_on_c, 12, 62, 71
10, 67670, Note_on_c, 12, 62, 0
10, 67680, Note_on_c, 12, 59, 75
10, 67730, Note_on_c, 12, 59, 0
10, 67740, Note_on_c, 12, 56, 78
10, 67790, Note_on_c, 12, 56, 0
10, 67800, Note_on_c, 12, 56, 81
10, 67850, Note_on_c, 12, 56, 0
10, 67860, Note_on_c, 12, 56, 84
10, 67910, Note_on_c, 12, 56, 0
10, 67920, Note_on_c, 12, 55, 87
10, 67970, Note_on_c, 12, 55, 0
10, 67980, Note_on_c, 12, 62, 90
10, 68030, Note_on_c, 12, 62, 0
10, 68040, Note_on_c, 12, 62, 93
10, 68090, Note_on_c, 12, 62, 0
10, 68100, Note_on_c, 12, 62, 96
10, 68150, Note_on_c, 12, 62, 0
10, 68160, Note_on_c, 12, 63, 100
10, 68210, Note_on_c, 12, 63, 0
10, 68220, Note_on_c, 12, 63, 100
10, 68270, Note_on_c, 12, 63, 0
10, 68280, Note_on_c, 12, 67, 100
10, 68330, Note_on_c, 12, 67, 0
10, 68340, Note_on_c, 12, 67, 100
10, 68390, Note_on_c, 12, 67, 0
10, 68400, Note_on_c, 12, 65, 100
10, 68690, Note_on_c, 12, 65, 0
10, 68700, Note_on_c, 12, 68, 100
10, 68750, Note_on_c, 12, 68, 0
10, 68760, Note_on_c, 12, 68, 100
10, 68810, Note_on_c, 12, 68, 0
10, 68820, Note_on_c, 12, 65, 100
10, 68870, Note_on_c, 12, 65, 0
10, 68880, Note_on_c, 12, 67, 100
10, 69170, Note_on_c, 12, 67, 0
10, 69180, Note_on_c, 12, 67, 100
10, 69230, Note_on_c, 12, 67, 0
10, 69240, Note_on_c, 12, 67, 100
10, 69290, Note_on_c, 12, 67, 0
10, 69300, Note_on_c, 12, 63, 100
10, 69350, Note_on_c, 12, 63, 0
10, 69360, Note_on_c, 12, 68, 100
10, 69410, Note_on_c, 12, 68, 0
10, 69420, Note_on_c, 12, 68, 100
10, 69470, Note_on_c, 12, 68, 0
10, 69480, Note_on_c, 12, 68, 100
10, 69530, Note_on_c, 12, 68, 0
10, 69540, Note_on_c, 12, 65, 100
10, 69590, Note_on_c, 12, 65, 0
10, 69600, Note_on_c, 12, 70, 100
10, 69650, Note_on_c, 12, 70, 0
10, 69660, Note_on_c, 12, 70, 100
10, 69710, Note_on_c, 12, 70, 0
10, 69720, Note_on_c, 12, 70, 100
10, 69770, Note_on_c, 12, 70, 0
10, 69780, Note_on_c, 12, 67, 100
10, 69830, Note_on_c, 12, 67, 0
10, 69840, Note_on_c, 12, 72, 100
10, 69890, Note_on_c, 12, 72, 0
10, 69900, Note_on_c, 12, 60, 100
10, 69950, Note_on_c, 12, 60, 0
10, 69960, Note_on_c, 12, 60, 100
10, 70010, Note_on_c, 12, 60, 0
10, 70020, Note_on_c, 12, 56, 100
10, 70070, Note_on_c, 12, 56, 0
10, 70080, Note_on_c, 12, 64, 100
10, 70130, Note_on_c, 12, 64, 0
10, 70140, Note_on_c, 12, 64, 100
10, 70190, Note_on_c, 12, 64, 0
10, 70200, Note_on_c, 12, 64, 100
10, 70250, Note_on_c, 12, 64, 0
10, 70260, Note_on_c, 12, 58, 100
10, 70310, Note_on_c, 12, 58, 0
10, 70320, Note_on_c, 12, 65, 100
10, 70370, Note_on_c, 12, 65, 0
10, 70380, Note_on_c, 12, 65, 100
10, 70430, Note_on_c, 12, 65, 0
10, 70440, Note_on_c, 12, 65, 100
10, 70490, Note_on_c, 12, 65, 0
10, 70500, Note_on_c, 12, 60, 100
10, 70550, Note_on_c, 12, 60, 0
10, 70560, Note_on_c, 12, 68, 100
10, 70610, Note_on_c, 12, 68, 0
10, 70620, Note_on_c, 12, 68, 100
10, 70670, Note_on_c, 12, 68, 0
10, 70680, Note_on_c, 12, 68, 100
10, 70730, Note_on_c, 12, 68, 0
10, 70740, Note_on_c, 12, 65, 100
10, 70790, Note_on_c, 12, 65, 0
10, 70800, Note_on_c, 12, 67, 100
10, 70850, Note_on_c, 12, 67, 0
10, 70860, Note_on_c, 12, 63, 100
10, 70860, Note_on_c, 12, 72, 100
10, 70910, Note_on_c, 12, 72, 0
10, 70910, Note_on_c, 12, 63, 0
10, 70920, Note_on_c, 12, 63, 100
10, 70920, Note_on_c, 12, 72, 100
10, 70970, Note_on_c, 12, 72, 0
10, 70970, Note_on_c, 12, 63, 0
10, 70980, Note_on_c, 12, 63, 100
10, 70980, Note_on_c, 12, 72, 100
10, 71030, Note_on_c, 12, 72, 0
10, 71030, Note_on_c, 12, 63, 0
10, 71040, Note_on_c, 12, 72, 100
10, 71040, Note_on_c, 12, 63, 100
10, 71090, Note_on_c, 12, 63, 0
10, 71090, Note_on_c, 12, 72, 0
10, 71100, Note_on_c, 12, 63, 100
10, 71100, Note_on_c, 12, 72, 100
10, 71150, Note_on_c, 12, 72, 0
10, 71150, Note_on_c, 12, 63, 0
10, 71160, Note_on_c, 12, 63, 100
10, 71160, Note_on_c, 12, 72, 100
10, 71210, Note_on_c, 12, 72, 0
10, 71210, Note_on_c, 12, 63, 0
10, 71220, Note_on_c, 12, 63, 100
10, 71220, Note_on_c, 12, 72, 100
10, 71270, Note_on_c, 12, 72, 0
10, 71270, Note_on_c, 12, 63, 0
10, 71280, Note_on_c, 12, 63, 100
10, 71280, Note_on_c, 12, 72, 100
10, 71330, Note_on_c, 12, 72, 0
10, 71330, Note_on_c, 12, 63, 0
10, 71340, Note_on_c, 12, 63, 100
10, 71340, Note_on_c, 12, 72, 100
10, 71390, Note_on_c, 12, 72, 0
10, 71390, Note_on_c, 12, 63, 0
10, 71400, Note_on_c, 12, 63, 100
10, 71400, Note_on_c, 12, 72, 100
10, 71450, Note_on_c, 12, 72, 0
10, 71450, Note_on_c, 12, 63, 0
10, 71460, Note_on_c, 12, 63, 100
10, 71460, Note_on_c, 12, 72, 100
10, 71510, Note_on_c, 12, 72, 0
10, 71510, Note_on_c, 12, 63, 0
10, 71520, Note_on_c, 12, 63, 100
10, 71520, Note_on_c, 12, 72, 100
10, 71570, Note_on_c, 12, 72, 0
10, 71570, Note_on_c, 12, 63, 0
10, 71580, Note_on_c, 12, 72, 100
10, 71580, Note_on_c, 12, 63, 100
10, 71630, Note_on_c, 12, 63, 0
10, 71630, Note_on_c, 12, 72, 0
10, 71640, Note_on_c, 12, 72, 100
10, 71640, Note_on_c, 12, 63, 100
10, 71690, Note_on_c, 12, 63, 0
10, 71690, Note_on_c, 12, 72, 0
10, 71700, Note_on_c, 12, 63, 100
10, 71700, Note_on_c, 12, 72, 100
10, 71750, Note_on_c, 12, 72, 0
10, 71750, Note_on_c, 12, 63, 0
10, 71760, Note_on_c, 12, 71, 100
10, 71760, Note_on_c, 12, 62, 100
10, 71810, Note_on_c, 12, 62, 0
10, 71810, Note_on_c, 12, 71, 0
10, 71820, Note_on_c, 12, 77, 100
10, 71870, Note_on_c, 12, 77, 0
10, 71880, Note_on_c, 12, 74, 100
10, 71930, Note_on_c, 12, 74, 0
10, 71940, Note_on_c, 12, 74, 100
10, 71990, Note_on_c, 12, 74, 0
10, 72000, Note_on_c, 12, 71, 100
10, 72050, Note_on_c, 12, 71, 0
10, 72060, Note_on_c, 12, 67, 100
10, 72110, Note_on_c, 12, 67, 0
10, 72120, Note_on_c, 12, 65, 100
10, 72170, Note_on_c, 12, 65, 0
10, 72180, Note_on_c, 12, 65, 100
10, 72230, Note_on_c, 12, 65, 0
10, 72240, Note_on_c, 12, 62, 100
10, 72290, Note_on_c, 12, 62, 0
10, 72300, Note_on_c, 12, 59, 100
10, 72350, Note_on_c, 12, 59, 0
10, 72360, Note_on_c, 12, 55, 100
10, 72410, Note_on_c, 12, 55, 0
10, 72420, Note_on_c, 12, 65, 100
10, 72470, Note_on_c, 12, 65, 0
10, 72480, Note_on_c, 12, 62, 100
10, 72530, Note_on_c, 12, 62, 0
10, 72540, Note_on_c, 12, 59, 100
10, 72590, Note_on_c, 12, 59, 0
10, 72600, Note_on_c, 12, 60, 100
10, 72650, Note_on_c, 12, 60, 0
10, 72660, Note_on_c, 12, 60, 100
10, 72710, Note_on_c, 12, 60, 0
10, 72720, Note_on_c, 12, 72, 127
10, 72770, Note_on_c, 12, 72, 0
10, 72780, Note_on_c, 12, 87, 127
10, 72830, Note_on_c, 12, 87, 0
10, 72840, Note_on_c, 12, 87, 127
10, 72890, Note_on_c, 12, 87, 0
10, 72900, Note_on_c, 12, 87, 127
10, 72950, Note_on_c, 12, 87, 0
10, 72960, Note_on_c, 12, 84, 127
10, 73010, Note_on_c, 12, 84, 0
10, 73020, Note_on_c, 12, 81, 127
10, 73070, Note_on_c, 12, 81, 0
10, 73080, Note_on_c, 12, 81, 127
10, 73130, Note_on_c, 12, 81, 0
10, 73140, Note_on_c, 12, 81, 127
10, 73190, Note_on_c, 12, 81, 0
10, 73200, Note_on_c, 12, 78, 127
10, 73250, Note_on_c, 12, 78, 0
10, 73260, Note_on_c, 12, 75, 127
10, 73310, Note_on_c, 12, 75, 0
10, 73320, Note_on_c, 12, 75, 127
10, 73370, Note_on_c, 12, 75, 0
10, 73380, Note_on_c, 12, 75, 127
10, 73430, Note_on_c, 12, 75, 0
10, 73440, Note_on_c, 12, 72, 127
10, 73490, Note_on_c, 12, 72, 0
10, 73500, Note_on_c, 12, 69, 127
10, 73550, Note_on_c, 12, 69, 0
10, 73560, Note_on_c, 12, 69, 127
10, 73610, Note_on_c, 12, 69, 0
10, 73620, Note_on_c, 12, 69, 127
10, 73670, Note_on_c, 12, 69, 0
10, 73680, Note_on_c, 12, 57, 127
10, 73800, Note_on_c, 12, 57, 0
10, 74160, Note_on_c, 12, 55, 127
10, 74160, Note_on_c, 12, 67, 127
10, 74280, Note_on_c, 12, 67, 0
10, 74280, Note_on_c, 12, 55, 0
10, 75360, Note_on_c, 12, 64, 50
10, 75600, Note_on_c, 12, 64, 0
10, 75600, Note_on_c, 12, 65, 50
10, 75830, Note_on_c, 12, 65, 0
10, 75840, Note_on_c, 12, 65, 50
10, 76080, Note_on_c, 12, 65, 0
10, 76080, Note_on_c, 12, 64, 50
10, 76320, Note_on_c, 12, 64, 0
10, 77280, Note_on_c, 12, 64, 50
10, 77520, Note_on_c, 12, 64, 0
10, 77520, Note_on_c, 12, 65, 50
10, 77750, Note_on_c, 12, 65, 0
10, 77760, Note_on_c, 12, 65, 50
10, 78000, Note_on_c, 12, 65, 0
10, 78000, Note_on_c, 12, 64, 50
10, 78240, Note_on_c, 12, 64, 0
10, 79200, Note_on_c, 12, 70, 50
10, 79440, Note_on_c, 12, 70, 0
10, 79440, Note_on_c, 12, 67, 50
10, 79670, Note_on_c, 12, 67, 0
10, 79680, Note_on_c, 12, 67, 50
10, 79920, Note_on_c, 12, 67, 0
10, 79920, Note_on_c, 12, 65, 50
10, 80150, Note_on_c, 12, 65, 0
10, 80160, Note_on_c, 12, 69, 50
10, 80630, Note_on_c, 12, 69, 0
10, 80640, Note_on_c, 12, 69, 50
10, 80880, Note_on_c, 12, 69, 0
10, 80880, Note_on_c, 12, 67, 50
10, 81110, Note_on_c, 12, 67, 0
10, 81120, Note_on_c, 12, 65, 50
10, 81240, Note_on_c, 12, 65, 0
10, 81240, Note_on_c, 12, 67, 52
10, 81360, Note_on_c, 12, 67, 0
10, 81360, Note_on_c, 12, 68, 55
10, 81480, Note_on_c, 12, 68, 0
10, 81480, Note_on_c, 12, 67, 57
10, 81600, Note_on_c, 12, 67, 0
10, 81600, Note_on_c, 12, 65, 60
10, 81720, Note_on_c, 12, 65, 0
10, 81720, Note_on_c, 12, 67, 62
10, 81830, Note_on_c, 12, 67, 0
10, 81840, Note_on_c, 12, 68, 65
10, 81960, Note_on_c, 12, 68, 0
10, 81960, Note_on_c, 12, 67, 67
10, 82080, Note_on_c, 12, 67, 0
10, 82080, Note_on_c, 12, 65, 70
10, 82200, Note_on_c, 12, 65, 0
10, 82200, Note_on_c, 12, 67, 73
10, 82310, Note_on_c, 12, 67, 0
10, 82320, Note_on_c, 12, 68, 75
10, 82440, Note_on_c, 12, 68, 0
10, 82440, Note_on_c, 12, 67, 78
10, 82560, Note_on_c, 12, 67, 0
10, 82560, Note_on_c, 12, 65, 80
10, 82680, Note_on_c, 12, 65, 0
10, 82680, Note_on_c, 12, 67, 83
10, 82790, Note_on_c, 12, 67, 0
10, 82800, Note_on_c, 12, 68, 85
10, 82920, Note_on_c, 12, 68, 0
10, 82920, Note_on_c, 12, 67, 88
10, 83040, Note_on_c, 12, 67, 0
10, 83040, Note_on_c, 12, 66, 91
10, 83160, Note_on_c, 12, 66, 0
10, 83160, Note_on_c, 12, 67, 93
10, 83270, Note_on_c, 12, 67, 0
10, 83280, Note_on_c, 12, 69, 96
10, 83400, Note_on_c, 12, 69, 0
10, 83400, Note_on_c, 12, 67, 98
10, 83520, Note_on_c, 12, 67, 0
10, 83520, Note_on_c, 12, 66, 101
10, 83640, Note_on_c, 12, 66, 0
10, 83640, Note_on_c, 12, 67, 103
10, 83750, Note_on_c, 12, 67, 0
10, 83760, Note_on_c, 12, 69, 106
10, 83880, Note_on_c, 12, 69, 0
10, 83880, Note_on_c, 12, 67, 109
10, 84000, Note_on_c, 12, 67, 0
10, 84000, Note_on_c, 12, 66, 111
10, 84120, Note_on_c, 12, 66, 0
10, 84120, Note_on_c, 12, 67, 114
10, 84240, Note_on_c, 12, 67, 0
10, 84240, Note_on_c, 12, 66, 116
10, 84360, Note_on_c, 12, 66, 0
10, 84360, Note_on_c, 12, 67, 119
10, 84480, Note_on_c, 12, 67, 0
10, 84480, Note_on_c, 12, 66, 121
10, 84600, Note_on_c, 12, 66, 0
10, 84600, Note_on_c, 12, 67, 124
10, 84710, Note_on_c, 12, 67, 0
10, 84720, Note_on_c, 12, 79, 127
10, 85010, Note_on_c, 12, 79, 0
10, 85020, Note_on_c, 12, 81, 127
10, 85065, Note_on_c, 12, 81, 0
10, 85080, Note_on_c, 12, 79, 127
10, 85125, Note_on_c, 12, 79, 0
10, 85140, Note_on_c, 12, 77, 127
10, 85185, Note_on_c, 12, 77, 0
10, 85200, Note_on_c, 12, 77, 127
10, 85260, Note_on_c, 12, 77, 0
10, 85260, Note_on_c, 12, 76, 127
10, 85310, Note_on_c, 12, 76, 0
10, 85320, Note_on_c, 12, 74, 127
10, 85365, Note_on_c, 12, 74, 0
10, 85380, Note_on_c, 12, 72, 127
10, 85425, Note_on_c, 12, 72, 0
10, 85440, Note_on_c, 12, 72, 127
10, 85500, Note_on_c, 12, 72, 0
10, 85500, Note_on_c, 12, 71, 127
10, 85550, Note_on_c, 12, 71, 0
10, 85560, Note_on_c, 12, 69, 127
10, 85605, Note_on_c, 12, 69, 0
10, 85620, Note_on_c, 12, 71, 127
10, 85665, Note_on_c, 12, 71, 0
10, 85680, Note_on_c, 12, 74, 127
10, 85740, Note_on_c, 12, 74, 0
10, 85740, Note_on_c, 12, 72, 127
10, 85790, Note_on_c, 12, 72, 0
10, 85800, Note_on_c, 12, 67, 127
10, 85845, Note_on_c, 12, 67, 0
10, 85860, Note_on_c, 12, 64, 127
10, 85905, Note_on_c, 12, 64, 0
10, 85920, Note_on_c, 12, 71, 127
10, 85980, Note_on_c, 12, 71, 0
10, 85980, Note_on_c, 12, 69, 127
10, 86030, Note_on_c, 12, 69, 0
10, 86040, Note_on_c, 12, 65, 127
10, 86085, Note_on_c, 12, 65, 0
10, 86100, Note_on_c, 12, 62, 127
10, 86145, Note_on_c, 12, 62, 0
10, 86160, Note_on_c, 12, 55, 127
10, 86210, Note_on_c, 12, 55, 0
10, 86220, Note_on_c, 12, 55, 127
10, 86270, Note_on_c, 12, 55, 0
10, 86280, Note_on_c, 12, 60, 127
10, 86330, Note_on_c, 12, 60, 0
10, 86340, Note_on_c, 12, 60, 127
10, 86390, Note_on_c, 12, 60, 0
10, 86400, Note_on_c, 12, 59, 127
10, 86445, Note_on_c, 12, 59, 0
10, 86460, Note_on_c, 12, 66, 127
10, 86520, Note_on_c, 12, 66, 0
10, 86520, Note_on_c, 12, 67, 127
10, 86580, Note_on_c, 12, 67, 0
10, 86580, Note_on_c, 12, 66, 127
10, 86640, Note_on_c, 12, 66, 0
10, 86640, Note_on_c, 12, 67, 127
10, 86700, Note_on_c, 12, 67, 0
10, 86700, Note_on_c, 12, 66, 127
10, 86760, Note_on_c, 12, 66, 0
10, 86760, Note_on_c, 12, 67, 127
10, 86820, Note_on_c, 12, 67, 0
10, 86820, Note_on_c, 12, 66, 127
10, 86870, Note_on_c, 12, 66, 0
10, 86880, Note_on_c, 12, 67, 127
10, 86925, Note_on_c, 12, 67, 0
10, 86940, Note_on_c, 12, 81, 127
10, 86985, Note_on_c, 12, 81, 0
10, 87000, Note_on_c, 12, 79, 127
10, 87045, Note_on_c, 12, 79, 0
10, 87060, Note_on_c, 12, 77, 127
10, 87105, Note_on_c, 12, 77, 0
10, 87120, Note_on_c, 12, 77, 127
10, 87180, Note_on_c, 12, 77, 0
10, 87180, Note_on_c, 12, 76, 127
10, 87230, Note_on_c, 12, 76, 0
10, 87240, Note_on_c, 12, 74, 127
10, 87285, Note_on_c, 12, 74, 0
10, 87300, Note_on_c, 12, 72, 127
10, 87345, Note_on_c, 12, 72, 0
10, 87360, Note_on_c, 12, 72, 127
10, 87420, Note_on_c, 12, 72, 0
10, 87420, Note_on_c, 12, 71, 127
10, 87470, Note_on_c, 12, 71, 0
10, 87480, Note_on_c, 12, 69, 127
10, 87525, Note_on_c, 12, 69, 0
10, 87540, Note_on_c, 12, 71, 127
10, 87585, Note_on_c, 12, 71, 0
10, 87600, Note_on_c, 12, 74, 127
10, 87660, Note_on_c, 12, 74, 0
10, 87660, Note_on_c, 12, 72, 127
10, 87710, Note_on_c, 12, 72, 0
10, 87720, Note_on_c, 12, 67, 127
10, 87765, Note_on_c, 12, 67, 0
10, 87780, Note_on_c, 12, 64, 127
10, 87825, Note_on_c, 12, 64, 0
10, 87840, Note_on_c, 12, 71, 127
10, 87900, Note_on_c, 12, 71, 0
10, 87900, Note_on_c, 12, 69, 127
10, 87950, Note_on_c, 12, 69, 0
10, 87960, Note_on_c, 12, 65, 127
10, 88005, Note_on_c, 12, 65, 0
10, 88020, Note_on_c, 12, 62, 127
10, 88065, Note_on_c, 12, 62, 0
10, 88080, Note_on_c, 12, 69, 127
10, 88140, Note_on_c, 12, 69, 0
10, 88140, Note_on_c, 12, 67, 127
10, 88190, Note_on_c, 12, 67, 0
10, 88200, Note_on_c, 12, 64, 127
10, 88245, Note_on_c, 12, 64, 0
10, 88260, Note_on_c, 12, 60, 127
10, 88305, Note_on_c, 12, 60, 0
10, 88320, Note_on_c, 12, 55, 127
10, 88370, Note_on_c, 12, 55, 0
10, 88380, Note_on_c, 12, 67, 127
10, 88430, Note_on_c, 12, 67, 0
10, 88440, Note_on_c, 12, 79, 127
10, 88490, Note_on_c, 12, 79, 0
10, 88500, Note_on_c, 12, 79, 127
10, 88550, Note_on_c, 12, 79, 0
10, 88560, Note_on_c, 12, 64, 127
10, 89040, Note_on_c, 12, 64, 0
10, 89040, Note_on_c, 12, 64, 127
10, 89330, Note_on_c, 12, 64, 0
10, 89340, Note_on_c, 12, 59, 127
10, 89390, Note_on_c, 12, 59, 0
10, 89400, Note_on_c, 12, 59, 127
10, 89450, Note_on_c, 12, 59, 0
10, 89460, Note_on_c, 12, 59, 127
10, 89510, Note_on_c, 12, 59, 0
10, 89520, Note_on_c, 12, 60, 127
10, 90000, Note_on_c, 12, 60, 0
10, 90000, Note_on_c, 12, 60, 127
10, 90290, Note_on_c, 12, 60, 0
10, 90300, Note_on_c, 12, 62, 127
10, 90300, Note_on_c, 12, 71, 127
10, 90350, Note_on_c, 12, 71, 0
10, 90350, Note_on_c, 12, 62, 0
10, 90360, Note_on_c, 12, 71, 127
10, 90360, Note_on_c, 12, 62, 127
10, 90410, Note_on_c, 12, 62, 0
10, 90410, Note_on_c, 12, 71, 0
10, 90420, Note_on_c, 12, 62, 127
10, 90420, Note_on_c, 12, 71, 127
10, 90470, Note_on_c, 12, 71, 0
10, 90470, Note_on_c, 12, 62, 0
10, 90480, Note_on_c, 12, 64, 127
10, 90480, Note_on_c, 12, 72, 127
10, 90600, Note_on_c, 12, 72, 0
10, 90600, Note_on_c, 12, 64, 0
10, 90780, Note_on_c, 12, 62, 127
10, 90780, Note_on_c, 12, 71, 127
10, 90830, Note_on_c, 12, 71, 0
10, 90830, Note_on_c, 12, 62, 0
10, 90840, Note_on_c, 12, 71, 127
10, 90840, Note_on_c, 12, 62, 127
10, 90890, Note_on_c, 12, 62, 0
10, 90890, Note_on_c, 12, 71, 0
10, 90900, Note_on_c, 12, 71, 127
10, 90900, Note_on_c, 12, 62, 127
10, 90950, Note_on_c, 12, 62, 0
10, 90950, Note_on_c, 12, 71, 0
10, 90960, Note_on_c, 12, 72, 127
10, 90960, Note_on_c, 12, 64, 127
10, 91080, Note_on_c, 12, 64, 0
10, 91080, Note_on_c, 12, 72, 0
10, 91260, Note_on_c, 12, 71, 127
10, 91260, Note_on_c, 12, 79, 127
10, 91310, Note_on_c, 12, 79, 0
10, 91310, Note_on_c, 12, 71, 0
10, 91320, Note_on_c, 12, 79, 127
10, 91320, Note_on_c, 12, 71, 127
10, 91370, Note_on_c, 12, 71, 0
10, 91370, Note_on_c, 12, 79, 0
10, 91380, Note_on_c, 12, 79, 127
10, 91380, Note_on_c, 12, 71, 127
10, 91430, Note_on_c, 12, 71, 0
10, 91430, Note_on_c, 12, 79, 0
10, 91440, Note_on_c, 12, 76, 127
10, 91500, Note_on_c, 12, 76, 0
10, 91500, Note_on_c, 12, 76, 127
10, 91680, Note_on_c, 12, 76, 0
10, 91680, Note_on_c, 12, 76, 127
10, 91730, Note_on_c, 12, 76, 0
10, 91740, Note_on_c, 12, 76, 127
10, 91790, Note_on_c, 12, 76, 0
10, 91800, Note_on_c, 12, 76, 127
10, 91850, Note_on_c, 12, 76, 0
10, 91860, Note_on_c, 12, 76, 127
10, 91910, Note_on_c, 12, 76, 0
10, 91920, Note_on_c, 12, 72, 127
10, 91920, Note_on_c, 12, 77, 127
10, 91980, Note_on_c, 12, 77, 0
10, 91980, Note_on_c, 12, 72, 0
10, 91980, Note_on_c, 12, 77, 127
10, 91980, Note_on_c, 12, 72, 127
10, 92160, Note_on_c, 12, 72, 0
10, 92160, Note_on_c, 12, 77, 0
10, 92160, Note_on_c, 12, 77, 127
10, 92160, Note_on_c, 12, 72, 127
10, 92210, Note_on_c, 12, 72, 0
10, 92210, Note_on_c, 12, 77, 0
10, 92220, Note_on_c, 12, 77, 127
10, 92220, Note_on_c, 12, 72, 127
10, 92270, Note_on_c, 12, 72, 0
10, 92270, Note_on_c, 12, 77, 0
10, 92280, Note_on_c, 12, 77, 127
10, 92280, Note_on_c, 12, 72, 127
10, 92330, Note_on_c, 12, 72, 0
10, 92330, Note_on_c, 12, 77, 0
10, 92340, Note_on_c, 12, 72, 127
10, 92340, Note_on_c, 12, 77, 127
10, 92390, Note_on_c, 12, 77, 0
10, 92390, Note_on_c, 12, 72, 0
10, 92400, Note_on_c, 12, 79, 127
10, 92400, Note_on_c, 12, 72, 127
10, 92460, Note_on_c, 12, 72, 0
10, 92460, Note_on_c, 12, 79, 0
10, 92460, Note_on_c, 12, 79, 127
10, 92460, Note_on_c, 12, 72, 127
10, 92640, Note_on_c, 12, 72, 0
10, 92640, Note_on_c, 12, 79, 0
10, 92640, Note_on_c, 12, 79, 127
10, 92640, Note_on_c, 12, 72, 127
10, 92690, Note_on_c, 12, 72, 0
10, 92690, Note_on_c, 12, 79, 0
10, 92700, Note_on_c, 12, 72, 127
10, 92700, Note_on_c, 12, 79, 127
10, 92750, Note_on_c, 12, 79, 0
10, 92750, Note_on_c, 12, 72, 0
10, 92760, Note_on_c, 12, 79, 127
10, 92760, Note_on_c, 12, 72, 127
10, 92810, Note_on_c, 12, 72, 0
10, 92810, Note_on_c, 12, 79, 0
10, 92820, Note_on_c, 12, 79, 127
10, 92820, Note_on_c, 12, 72, 127
10, 92870, Note_on_c, 12, 72, 0
10, 92870, Note_on_c, 12, 79, 0
10, 92880, Note_on_c, 12, 80, 127
10, 92880, Note_on_c, 12, 72, 127
10, 92940, Note_on_c, 12, 72, 0
10, 92940, Note_on_c, 12, 80, 0
10, 92940, Note_on_c, 12, 80, 127
10, 92940, Note_on_c, 12, 72, 127
10, 93120, Note_on_c, 12, 72, 0
10, 93120, Note_on_c, 12, 80, 0
10, 93120, Note_on_c, 12, 72, 127
10, 93120, Note_on_c, 12, 80, 127
10, 93170, Note_on_c, 12, 80, 0
10, 93170, Note_on_c, 12, 72, 0
10, 93180, Note_on_c, 12, 72, 127
10, 93180, Note_on_c, 12, 80, 127
10, 93230, Note_on_c, 12, 80, 0
10, 93230, Note_on_c, 12, 72, 0
10, 93240, Note_on_c, 12, 72, 127
10, 93240, Note_on_c, 12, 80, 127
10, 93290, Note_on_c, 12, 80, 0
10, 93290, Note_on_c, 12, 72, 0
10, 93300, Note_on_c, 12, 72, 127
10, 93300, Note_on_c, 12, 80, 127
10, 93350, Note_on_c, 12, 80, 0
10, 93350, Note_on_c, 12, 72, 0
10, 93360, Note_on_c, 12, 73, 127
10, 93410, Note_on_c, 12, 73, 0
10, 93420, Note_on_c, 12, 73, 127
10, 93470, Note_on_c, 12, 73, 0
10, 93480, Note_on_c, 12, 73, 127
10, 93530, Note_on_c, 12, 73, 0
10, 93540, Note_on_c, 12, 73, 127
10, 93590, Note_on_c, 12, 73, 0
10, 93600, Note_on_c, 12, 73, 127
10, 93650, Note_on_c, 12, 73, 0
10, 93660, Note_on_c, 12, 73, 127
10, 93710, Note_on_c, 12, 73, 0
10, 93720, Note_on_c, 12, 73, 127
10, 93770, Note_on_c, 12, 73, 0
10, 93780, Note_on_c, 12, 73, 127
10, 93830, Note_on_c, 12, 73, 0
10, 93840, Note_on_c, 12, 73, 127
10, 93890, Note_on_c, 12, 73, 0
10, 93900, Note_on_c, 12, 73, 127
10, 93950, Note_on_c, 12, 73, 0
10, 93960, Note_on_c, 12, 73, 127
10, 94010, Note_on_c, 12, 73, 0
10, 94020, Note_on_c, 12, 73, 127
10, 94070, Note_on_c, 12, 73, 0
10, 94080, Note_on_c, 12, 73, 127
10, 94130, Note_on_c, 12, 73, 0
10, 94140, Note_on_c, 12, 73, 127
10, 94190, Note_on_c, 12, 73, 0
10, 94200, Note_on_c, 12, 73, 127
10, 94250, Note_on_c, 12, 73, 0
10, 94260, Note_on_c, 12, 73, 127
10, 94310, Note_on_c, 12, 73, 0
10, 94320, Note_on_c, 12, 73, 127
10, 94440, Note_on_c, 12, 73, 0
10, 95340, Note_on_c, 12, 84, 127
10, 95340, Note_on_c, 12, 75, 127
10, 95390, Note_on_c, 12, 75, 0
10, 95390, Note_on_c, 12, 84, 0
10, 95400, Note_on_c, 12, 84, 127
10, 95400, Note_on_c, 12, 75, 127
10, 95450, Note_on_c, 12, 75, 0
10, 95450, Note_on_c, 12, 84, 0
10, 95460, Note_on_c, 12, 84, 127
10, 95460, Note_on_c, 12, 75, 127
10, 95510, Note_on_c, 12, 75, 0
10, 95510, Note_on_c, 12, 84, 0
10, 95520, Note_on_c, 12, 75, 127
10, 95520, Note_on_c, 12, 84, 127
10, 95570, Note_on_c, 12, 84, 0
10, 95570, Note_on_c, 12, 75, 0
10, 95580, Note_on_c, 12, 75, 127
10, 95580, Note_on_c, 12, 84, 127
10, 95630, Note_on_c, 12, 84, 0
10, 95630, Note_on_c, 12, 75, 0
10, 95640, Note_on_c, 12, 75, 127
10, 95640, Note_on_c, 12, 84, 127
10, 95690, Note_on_c, 12, 84, 0
10, 95690, Note_on_c, 12, 75, 0
10, 95700, Note_on_c, 12, 75, 127
10, 95700, Note_on_c, 12, 84, 127
10, 95750, Note_on_c, 12, 84, 0
10, 95750, Note_on_c, 12, 75, 0
10, 95760, Note_on_c, 12, 84, 127
10, 95760, Note_on_c, 12, 75, 127
10, 95810, Note_on_c, 12, 75, 0
10, 95810, Note_on_c, 12, 84, 0
10, 95820, Note_on_c, 12, 84, 127
10, 95820, Note_on_c, 12, 75, 127
10, 95870, Note_on_c, 12, 75, 0
10, 95870, Note_on_c, 12, 84, 0
10, 95880, Note_on_c, 12, 84, 127
10, 95880, Note_on_c, 12, 75, 127
10, 95930, Note_on_c, 12, 75, 0
10, 95930, Note_on_c, 12, 84, 0
10, 95940, Note_on_c, 12, 75, 127
10, 95940, Note_on_c, 12, 84, 127
10, 95990, Note_on_c, 12, 84, 0
10, 95990, Note_on_c, 12, 75, 0
10, 96000, Note_on_c, 12, 84, 127
10, 96000, Note_on_c, 12, 75, 127
10, 96050, Note_on_c, 12, 75, 0
10, 96050, Note_on_c, 12, 84, 0
10, 96060, Note_on_c, 12, 84, 127
10, 96060, Note_on_c, 12, 75, 127
10, 96110, Note_on_c, 12, 75, 0
10, 96110, Note_on_c, 12, 84, 0
10, 96120, Note_on_c, 12, 84, 127
10, 96120, Note_on_c, 12, 75, 127
10, 96170, Note_on_c, 12, 75, 0
10, 96170, Note_on_c, 12, 84, 0
10, 96180, Note_on_c, 12, 84, 127
10, 96180, Note_on_c, 12, 75, 127
10, 96230, Note_on_c, 12, 75, 0
10, 96230, Note_on_c, 12, 84, 0
10, 96240, Note_on_c, 12, 84, 127
10, 96240, Note_on_c, 12, 75, 127
10, 96290, Note_on_c, 12, 75, 0
10, 96290, Note_on_c, 12, 84, 0
10, 96300, Note_on_c, 12, 75, 127
10, 96300, Note_on_c, 12, 84, 127
10, 96350, Note_on_c, 12, 84, 0
10, 96350, Note_on_c, 12, 75, 0
10, 96360, Note_on_c, 12, 75, 127
10, 96360, Note_on_c, 12, 84, 127
10, 96410, Note_on_c, 12, 84, 0
10, 96410, Note_on_c, 12, 75, 0
10, 96420, Note_on_c, 12, 84, 127
10, 96420, Note_on_c, 12, 75, 127
10, 96470, Note_on_c, 12, 75, 0
10, 96470, Note_on_c, 12, 84, 0
10, 96480, Note_on_c, 12, 84, 127
10, 96480, Note_on_c, 12, 75, 127
10, 96600, Note_on_c, 12, 75, 0
10, 96600, Note_on_c, 12, 84, 0
10, 97680, Note_on_c, 12, 71, 100
10, 97740, Note_on_c, 12, 71, 0
10, 97740, Note_on_c, 12, 72, 100
10, 97800, Note_on_c, 12, 72, 0
10, 97800, Note_on_c, 12, 74, 100
10, 97860, Note_on_c, 12, 74, 0
10, 97860, Note_on_c, 12, 75, 100
10, 97920, Note_on_c, 12, 75, 0
10, 97920, Note_on_c, 12, 77, 100
10, 97980, Note_on_c, 12, 77, 0
10, 97980, Note_on_c, 12, 79, 100
10, 98040, Note_on_c, 12, 79, 0
10, 98040, Note_on_c, 12, 80, 100
10, 98100, Note_on_c, 12, 80, 0
10, 98100, Note_on_c, 12, 79, 100
10, 98160, Note_on_c, 12, 79, 0
10, 98160, Note_on_c, 12, 80, 100
10, 98220, Note_on_c, 12, 80, 0
10, 98220, Note_on_c, 12, 79, 100
10, 98280, Note_on_c, 12, 79, 0
10, 98280, Note_on_c, 12, 80, 100
10, 98340, Note_on_c, 12, 80, 0
10, 98340, Note_on_c, 12, 79, 100
10, 98400, Note_on_c, 12, 79, 0
10, 98640, Note_on_c, 12, 71, 100
10, 98700, Note_on_c, 12, 71, 0
10, 98700, Note_on_c, 12, 72, 100
10, 98760, Note_on_c, 12, 72, 0
10, 98760, Note_on_c, 12, 74, 100
10, 98820, Note_on_c, 12, 74, 0
10, 98820, Note_on_c, 12, 75, 100
10, 98880, Note_on_c, 12, 75, 0
10, 98880, Note_on_c, 12, 77, 100
10, 98940, Note_on_c, 12, 77, 0
10, 98940, Note_on_c, 12, 79, 100
10, 99000, Note_on_c, 12, 79, 0
10, 99000, Note_on_c, 12, 80, 100
10, 99060, Note_on_c, 12, 80, 0
10, 99060, Note_on_c, 12, 79, 100
10, 99120, Note_on_c, 12, 79, 0
10, 99120, Note_on_c, 12, 80, 100
10, 99180, Note_on_c, 12, 80, 0
10, 99180, Note_on_c, 12, 79, 100
10, 99240, Note_on_c, 12, 79, 0
10, 99240, Note_on_c, 12, 80, 100
10, 99300, Note_on_c, 12, 80, 0
10, 99300, Note_on_c, 12, 79, 100
10, 99350, Note_on_c, 12, 79, 0
10, 99360, Note_on_c, 12, 80, 100
10, 99410, Note_on_c, 12, 80, 0
10, 99420, Note_on_c, 12, 79, 100
10, 99470, Note_on_c, 12, 79, 0
10, 99480, Note_on_c, 12, 82, 100
10, 99530, Note_on_c, 12, 82, 0
10, 99540, Note_on_c, 12, 80, 100
10, 99590, Note_on_c, 12, 80, 0
10, 99600, Note_on_c, 12, 79, 100
10, 99650, Note_on_c, 12, 79, 0
10, 99660, Note_on_c, 12, 77, 100
10, 99710, Note_on_c, 12, 77, 0
10, 99720, Note_on_c, 12, 80, 100
10, 99770, Note_on_c, 12, 80, 0
10, 99780, Note_on_c, 12, 79, 100
10, 99830, Note_on_c, 12, 79, 0
10, 99840, Note_on_c, 12, 77, 100
10, 99890, Note_on_c, 12, 77, 0
10, 99900, Note_on_c, 12, 75, 100
10, 99950, Note_on_c, 12, 75, 0
10, 99960, Note_on_c, 12, 79, 100
10, 100010, Note_on_c, 12, 79, 0
10, 100020, Note_on_c, 12, 77, 100
10, 100070, Note_on_c, 12, 77, 0
10, 100080, Note_on_c, 12, 75, 100
10, 100130, Note_on_c, 12, 75, 0
10, 100140, Note_on_c, 12, 74, 100
10, 100190, Note_on_c, 12, 74, 0
10, 100200, Note_on_c, 12, 77, 100
10, 100250, Note_on_c, 12, 77, 0
10, 100260, Note_on_c, 12, 75, 100
10, 100310, Note_on_c, 12, 75, 0
10, 100320, Note_on_c, 12, 74, 100
10, 100370, Note_on_c, 12, 74, 0
10, 100380, Note_on_c, 12, 72, 100
10, 100430, Note_on_c, 12, 72, 0
10, 100440, Note_on_c, 12, 75, 100
10, 100490, Note_on_c, 12, 75, 0
10, 100500, Note_on_c, 12, 74, 100
10, 100550, Note_on_c, 12, 74, 0
10, 100560, Note_on_c, 12, 72, 100
10, 100610, Note_on_c, 12, 72, 0
10, 100620, Note_on_c, 12, 70, 100
10, 100670, Note_on_c, 12, 70, 0
10, 100680, Note_on_c, 12, 74, 100
10, 100730, Note_on_c, 12, 74, 0
10, 100740, Note_on_c, 12, 72, 100
10, 100790, Note_on_c, 12, 72, 0
10, 100800, Note_on_c, 12, 70, 100
10, 100850, Note_on_c, 12, 70, 0
10, 100860, Note_on_c, 12, 68, 100
10, 100910, Note_on_c, 12, 68, 0
10, 100920, Note_on_c, 12, 72, 100
10, 100970, Note_on_c, 12, 72, 0
10, 100980, Note_on_c, 12, 70, 100
10, 101030, Note_on_c, 12, 70, 0
10, 101040, Note_on_c, 12, 68, 100
10, 101090, Note_on_c, 12, 68, 0
10, 101100, Note_on_c, 12, 67, 100
10, 101150, Note_on_c, 12, 67, 0
10, 101160, Note_on_c, 12, 70, 100
10, 101210, Note_on_c, 12, 70, 0
10, 101220, Note_on_c, 12, 68, 100
10, 101270, Note_on_c, 12, 68, 0
10, 101280, Note_on_c, 12, 65, 100
10, 101330, Note_on_c, 12, 65, 0
10, 101340, Note_on_c, 12, 67, 100
10, 101390, Note_on_c, 12, 67, 0
10, 101400, Note_on_c, 12, 63, 100
10, 101450, Note_on_c, 12, 63, 0
10, 101460, Note_on_c, 12, 67, 100
10, 101510, Note_on_c, 12, 67, 0
10, 101520, Note_on_c, 12, 62, 100
10, 101570, Note_on_c, 12, 62, 0
10, 101580, Note_on_c, 12, 67, 100
10, 101630, Note_on_c, 12, 67, 0
10, 101640, Note_on_c, 12, 63, 100
10, 101690, Note_on_c, 12, 63, 0
10, 101700, Note_on_c, 12, 67, 100
10, 101750, Note_on_c, 12, 67, 0
10, 101760, Note_on_c, 12, 65, 100
10, 101810, Note_on_c, 12, 65, 0
10, 101820, Note_on_c, 12, 67, 100
10, 101870, Note_on_c, 12, 67, 0
10, 101880, Note_on_c, 12, 63, 100
10, 101930, Note_on_c, 12, 63, 0
10, 101940, Note_on_c, 12, 67, 100
10, 101990, Note_on_c, 12, 67, 0
10, 102000, Note_on_c, 12, 65, 100
10, 102050, Note_on_c, 12, 65, 0
10, 102060, Note_on_c, 12, 67, 101
10, 102110, Note_on_c, 12, 67, 0
10, 102120, Note_on_c, 12, 67, 102
10, 102170, Note_on_c, 12, 67, 0
10, 102180, Note_on_c, 12, 72, 104
10, 102230, Note_on_c, 12, 72, 0
10, 102240, Note_on_c, 12, 68, 105
10, 102290, Note_on_c, 12, 68, 0
10, 102300, Note_on_c, 12, 72, 106
10, 102350, Note_on_c, 12, 72, 0
10, 102360, Note_on_c, 12, 67, 108
10, 102410, Note_on_c, 12, 67, 0
10, 102420, Note_on_c, 12, 72, 109
10, 102470, Note_on_c, 12, 72, 0
10, 102480, Note_on_c, 12, 68, 110
10, 102530, Note_on_c, 12, 68, 0
10, 102540, Note_on_c, 12, 72, 112
10, 102590, Note_on_c, 12, 72, 0
10, 102600, Note_on_c, 12, 71, 113
10, 102650, Note_on_c, 12, 71, 0
10, 102660, Note_on_c, 12, 77, 114
10, 102710, Note_on_c, 12, 77, 0
10, 102720, Note_on_c, 12, 72, 116
10, 102770, Note_on_c, 12, 72, 0
10, 102780, Note_on_c, 12, 77, 117
10, 102830, Note_on_c, 12, 77, 0
10, 102840, Note_on_c, 12, 71, 118
10, 102890, Note_on_c, 12, 71, 0
10, 102900, Note_on_c, 12, 77, 120
10, 102950, Note_on_c, 12, 77, 0
10, 102960, Note_on_c, 12, 72, 121
10, 103010, Note_on_c, 12, 72, 0
10, 103020, Note_on_c, 12, 77, 122
10, 103070, Note_on_c, 12, 77, 0
10, 103080, Note_on_c, 12, 74, 124
10, 103130, Note_on_c, 12, 74, 0
10, 103140, Note_on_c, 12, 79, 125
10, 103190, Note_on_c, 12, 79, 0
10, 103200, Note_on_c, 12, 75, 127
10, 103320, Note_on_c, 12, 75, 0
10, 103320, Note_on_c, 12, 72, 127
10, 103430, Note_on_c, 12, 72, 0
10, 103440, Note_on_c, 12, 74, 127
10, 103530, Note_on_c, 12, 74, 0
10, 103560, Note_on_c, 12, 75, 127
10, 103650, Note_on_c, 12, 75, 0
10, 103680, Note_on_c, 12, 77, 127
10, 103800, Note_on_c, 12, 77, 0
10, 103800, Note_on_c, 12, 74, 127
10, 103910, Note_on_c, 12, 74, 0
10, 103920, Note_on_c, 12, 75, 127
10, 104010, Note_on_c, 12, 75, 0
10, 104040, Note_on_c, 12, 77, 127
10, 104130, Note_on_c, 12, 77, 0
10, 104160, Note_on_c, 12, 79, 127
10, 104280, Note_on_c, 12, 79, 0
10, 104280, Note_on_c, 12, 75, 127
10, 104390, Note_on_c, 12, 75, 0
10, 104400, Note_on_c, 12, 77, 127
10, 104490, Note_on_c, 12, 77, 0
10, 104520, Note_on_c, 12, 79, 127
10, 104610, Note_on_c, 12, 79, 0
10, 104640, Note_on_c, 12, 80, 127
10, 104760, Note_on_c, 12, 80, 0
10, 104760, Note_on_c, 12, 77, 127
10, 104870, Note_on_c, 12, 77, 0
10, 104880, Note_on_c, 12, 79, 127
10, 104970, Note_on_c, 12, 79, 0
10, 105000, Note_on_c, 12, 81, 127
10, 105090, Note_on_c, 12, 81, 0
10, 105120, Note_on_c, 12, 83, 127
10, 105240, Note_on_c, 12, 83, 0
10, 105240, Note_on_c, 12, 79, 127
10, 105350, Note_on_c, 12, 79, 0
10, 105360, Note_on_c, 12, 81, 127
10, 105450, Note_on_c, 12, 81, 0
10, 105480, Note_on_c, 12, 83, 127
10, 105570, Note_on_c, 12, 83, 0
10, 105600, Note_on_c, 12, 84, 127
10, 105720, Note_on_c, 12, 84, 0
10, 105720, Note_on_c, 12, 79, 127
10, 105830, Note_on_c, 12, 79, 0
10, 105840, Note_on_c, 12, 80, 127
10, 105930, Note_on_c, 12, 80, 0
10, 105960, Note_on_c, 12, 75, 127
10, 106050, Note_on_c, 12, 75, 0
10, 106080, Note_on_c, 12, 77, 127
10, 106170, Note_on_c, 12, 77, 0
10, 106200, Note_on_c, 12, 74, 127
10, 106290, Note_on_c, 12, 74, 0
10, 106320, Note_on_c, 12, 75, 127
10, 106410, Note_on_c, 12, 75, 0
10, 106440, Note_on_c, 12, 77, 127
10, 106530, Note_on_c, 12, 77, 0
10, 106560, Note_on_c, 12, 79, 127
10, 106650, Note_on_c, 12, 79, 0
10, 106680, Note_on_c, 12, 78, 127
10, 106770, Note_on_c, 12, 78, 0
10, 106800, Note_on_c, 12, 79, 127
10, 106890, Note_on_c, 12, 79, 0
10, 106920, Note_on_c, 12, 67, 127
10, 107010, Note_on_c, 12, 67, 0
10, 107040, Note_on_c, 12, 72, 127
10, 107160, Note_on_c, 12, 72, 0
10, 107760, Note_on_c, 12, 63, 127
10, 107850, Note_on_c, 12, 63, 0
10, 107880, Note_on_c, 12, 65, 127
10, 107970, Note_on_c, 12, 65, 0
10, 108000, Note_on_c, 12, 67, 127
10, 108120, Note_on_c, 12, 67, 0
10, 108120, Note_on_c, 12, 63, 127
10, 108240, Note_on_c, 12, 63, 0
10, 108720, Note_on_c, 12, 59, 127
10, 108810, Note_on_c, 12, 59, 0
10, 108840, Note_on_c, 12, 60, 127
10, 108930, Note_on_c, 12, 60, 0
10, 108960, Note_on_c, 12, 62, 127
10, 109080, Note_on_c, 12, 62, 0
10, 109080, Note_on_c, 12, 59, 127
10, 109200, Note_on_c, 12, 59, 0
10, 109680, Note_on_c, 12, 59, 127
10, 109770, Note_on_c, 12, 59, 0
10, 109800, Note_on_c, 12, 60, 127
10, 109890, Note_on_c, 12, 60, 0
10, 109920, Note_on_c, 12, 62, 127
10, 110040, Note_on_c, 12, 62, 0
10, 110040, Note_on_c, 12, 59, 127
10, 110160, Note_on_c, 12, 59, 0
10, 111120, Note_on_c, 12, 65, 127
10, 111240, Note_on_c, 12, 65, 0
10, 111240, Note_on_c, 12, 63, 127
10, 111360, Note_on_c, 12, 63, 0
10, 111600, Note_on_c, 12, 65, 127
10, 111720, Note_on_c, 12, 65, 0
10, 111720, Note_on_c, 12, 63, 127
10, 111830, Note_on_c, 12, 63, 0
10, 111840, Note_on_c, 12, 72, 127
10, 111840, Note_on_c, 12, 79, 127
10, 111840, Note_on_c, 12, 55, 127
10, 111840, Note_on_c, 12, 63, 127
10, 111960, Note_on_c, 12, 63, 0
10, 111960, Note_on_c, 12, 72, 0
10, 111960, Note_on_c, 12, 79, 0
10, 111960, Note_on_c, 12, 55, 0
10, 112080, Note_on_c, 12, 79, 127
10, 112080, Note_on_c, 12, 71, 127
10, 112080, Note_on_c, 12, 55, 127
10, 112080, Note_on_c, 12, 62, 127
10, 112200, Note_on_c, 12, 62, 0
10, 112200, Note_on_c, 12, 79, 0
10, 112200, Note_on_c, 12, 71, 0
10, 112200, Note_on_c, 12, 55, 0
10, 112320, Note_on_c, 12, 63, 127
10, 112440, Note_on_c, 12, 63, 0
10, 112440, Note_on_c, 12, 70, 127
10, 112560, Note_on_c, 12, 70, 0
10, 112560, Note_on_c, 12, 60, 127
10, 112680, Note_on_c, 12, 60, 0
10, 112680, Note_on_c, 12, 67, 127
10, 112800, Note_on_c, 12, 67, 0
10, 112800, Note_on_c, 12, 56, 127
10, 112920, Note_on_c, 12, 56, 0
10, 112920, Note_on_c, 12, 63, 127
10, 113040, Note_on_c, 12, 63, 0
10, 113280, Note_on_c, 12, 65, 127
10, 113400, Note_on_c, 12, 65, 0
10, 113400, Note_on_c, 12, 63, 127
10, 113510, Note_on_c, 12, 63, 0
10, 113520, Note_on_c, 12, 77, 127
10, 113640, Note_on_c, 12, 77, 0
10, 113640, Note_on_c, 12, 75, 127
10, 113750, Note_on_c, 12, 75, 0
10, 113760, Note_on_c, 12, 72, 127
10, 113760, Note_on_c, 12, 55, 127
10, 113760, Note_on_c, 12, 63, 127
10, 113760, Note_on_c, 12, 79, 127
10, 113880, Note_on_c, 12, 79, 0
10, 113880, Note_on_c, 12, 72, 0
10, 113880, Note_on_c, 12, 55, 0
10, 113880, Note_on_c, 12, 63, 0
10, 114000, Note_on_c, 12, 55, 127
10, 114000, Note_on_c, 12, 79, 127
10, 114000, Note_on_c, 12, 62, 127
10, 114000, Note_on_c, 12, 71, 127
10, 114120, Note_on_c, 12, 71, 0
10, 114120, Note_on_c, 12, 55, 0
10, 114120, Note_on_c, 12, 79, 0
10, 114120, Note_on_c, 12, 62, 0
10, 114240, Note_on_c, 12, 55, 127
10, 114240, Note_on_c, 12, 72, 127
10, 114240, Note_on_c, 12, 63, 127
10, 114290, Note_on_c, 12, 63, 0
10, 114290, Note_on_c, 12, 72, 0
10, 114290, Note_on_c, 12, 55, 0
10, 114300, Note_on_c, 12, 67, 127
10, 114350, Note_on_c, 12, 67, 0
10, 114360, Note_on_c, 12, 67, 127
10, 114410, Note_on_c, 12, 67, 0
10, 114420, Note_on_c, 12, 67, 127
10, 114470, Note_on_c, 12, 67, 0
10, 114480, Note_on_c, 12, 67, 127
10, 114960, Note_on_c, 12, 67, 0
10, 114960, Note_on_c, 12, 67, 127
10, 115440, Note_on_c, 12, 67, 0
10, 115440, Note_on_c, 12, 67, 127
10, 115490, Note_on_c, 12, 67, 0
10, 115500, Note_on_c, 12, 67, 127
10, 115550, Note_on_c, 12, 67, 0
10, 115560, Note_on_c, 12, 67, 127
10, 115610, Note_on_c, 12, 67, 0
10, 115620, Note_on_c, 12, 67, 127
10, 115670, Note_on_c, 12, 67, 0
10, 115680, Note_on_c, 12, 60, 127
10, 115730, Note_on_c, 12, 60, 0
10, 115740, Note_on_c, 12, 67, 127
10, 115790, Note_on_c, 12, 67, 0
10, 115800, Note_on_c, 12, 67, 127
10, 115850, Note_on_c, 12, 67, 0
10, 115860, Note_on_c, 12, 67, 127
10, 115910, Note_on_c, 12, 67, 0
10, 115920, Note_on_c, 12, 67, 127
10, 115970, Note_on_c, 12, 67, 0
10, 115980, Note_on_c, 12, 67, 127
10, 116030, Note_on_c, 12, 67, 0
10, 116040, Note_on_c, 12, 67, 127
10, 116090, Note_on_c, 12, 67, 0
10, 116100, Note_on_c, 12, 67, 127
10, 116150, Note_on_c, 12, 67, 0
10, 116160, Note_on_c, 12, 67, 127
10, 116210, Note_on_c, 12, 67, 0
10, 116220, Note_on_c, 12, 67, 127
10, 116270, Note_on_c, 12, 67, 0
10, 116280, Note_on_c, 12, 67, 127
10, 116330, Note_on_c, 12, 67, 0
10, 116340, Note_on_c, 12, 67, 127
10, 116390, Note_on_c, 12, 67, 0
10, 116400, Note_on_c, 12, 67, 127
10, 116450, Note_on_c, 12, 67, 0
10, 116460, Note_on_c, 12, 67, 127
10, 116510, Note_on_c, 12, 67, 0
10, 116520, Note_on_c, 12, 67, 127
10, 116570, Note_on_c, 12, 67, 0
10, 116580, Note_on_c, 12, 67, 127
10, 116630, Note_on_c, 12, 67, 0
10, 116640, Note_on_c, 12, 63, 127
10, 117360, Note_on_c, 12, 63, 0
10, 117420, Note_on_c, 12, 65, 127
10, 117470, Note_on_c, 12, 65, 0
10, 117480, Note_on_c, 12, 65, 127
10, 117530, Note_on_c, 12, 65, 0
10, 117540, Note_on_c, 12, 65, 127
10, 117590, Note_on_c, 12, 65, 0
10, 117600, Note_on_c, 12, 62, 127
10, 118560, Note_on_c, 12, 62, 0
10, 118620, Note_on_c, 12, 67, 50
10, 118670, Note_on_c, 12, 67, 0
10, 118680, Note_on_c, 12, 67, 50
10, 118730, Note_on_c, 12, 67, 0
10, 118740, Note_on_c, 12, 67, 50
10, 118790, Note_on_c, 12, 67, 0
10, 118800, Note_on_c, 12, 63, 50
10, 119280, Note_on_c, 12, 63, 0
10, 119280, Note_on_c, 12, 63, 50
10, 119570, Note_on_c, 12, 63, 0
10, 119580, Note_on_c, 12, 67, 50
10, 119630, Note_on_c, 12, 67, 0
10, 119640, Note_on_c, 12, 67, 50
10, 119690, Note_on_c, 12, 67, 0
10, 119700, Note_on_c, 12, 67, 50
10, 119750, Note_on_c, 12, 67, 0
10, 119760, Note_on_c, 12, 63, 50
10, 120240, Note_on_c, 12, 63, 0
10, 120240, Note_on_c, 12, 63, 50
10, 120530, Note_on_c, 12, 63, 0
10, 120540, Note_on_c, 12, 71, 100
10, 120540, Note_on_c, 12, 62, 100
10, 120590, Note_on_c, 12, 62, 0
10, 120590, Note_on_c, 12, 71, 0
10, 120600, Note_on_c, 12, 71, 100
10, 120600, Note_on_c, 12, 62, 100
10, 120650, Note_on_c, 12, 62, 0
10, 120650, Note_on_c, 12, 71, 0
10, 120660, Note_on_c, 12, 71, 100
10, 120660, Note_on_c, 12, 62, 100
10, 120710, Note_on_c, 12, 62, 0
10, 120710, Note_on_c, 12, 71, 0
10, 120720, Note_on_c, 12, 72, 100
10, 120720, Note_on_c, 12, 63, 100
10, 120840, Note_on_c, 12, 63, 0
10, 120840, Note_on_c, 12, 72, 0
10, 121020, Note_on_c, 12, 71, 100
10, 121020, Note_on_c, 12, 62, 100
10, 121070, Note_on_c, 12, 62, 0
10, 121070, Note_on_c, 12, 71, 0
10, 121080, Note_on_c, 12, 71, 100
10, 121080, Note_on_c, 12, 62, 100
10, 121130, Note_on_c, 12, 62, 0
10, 121130, Note_on_c, 12, 71, 0
10, 121140, Note_on_c, 12, 71, 100
10, 121140, Note_on_c, 12, 62, 100
10, 121190, Note_on_c, 12, 62, 0
10, 121190, Note_on_c, 12, 71, 0
10, 121200, Note_on_c, 12, 72, 100
10, 121200, Note_on_c, 12, 63, 100
10, 121320, Note_on_c, 12, 63, 0
10, 121320, Note_on_c, 12, 72, 0
10, 121500, Note_on_c, 12, 71, 101
10, 121500, Note_on_c, 12, 62, 101
10, 121550, Note_on_c, 12, 62, 0
10, 121550, Note_on_c, 12, 71, 0
10, 121560, Note_on_c, 12, 71, 102
10, 121560, Note_on_c, 12, 62, 102
10, 121610, Note_on_c, 12, 62, 0
10, 121610, Note_on_c, 12, 71, 0
10, 121620, Note_on_c, 12, 71, 104
10, 121620, Note_on_c, 12, 62, 104
10, 121670, Note_on_c, 12, 62, 0
10, 121670, Note_on_c, 12, 71, 0
10, 121680, Note_on_c, 12, 72, 105
10, 121680, Note_on_c, 12, 63, 105
10, 121790, Note_on_c, 12, 63, 0
10, 121790, Note_on_c, 12, 72, 0
10, 121800, Note_on_c, 12, 71, 108
10, 121800, Note_on_c, 12, 62, 108
10, 121800, Note_on_c, 12, 55, 108
10, 121910, Note_on_c, 12, 55, 0
10, 121910, Note_on_c, 12, 62, 0
10, 121910, Note_on_c, 12, 71, 0
10, 121920, Note_on_c, 12, 72, 110
10, 121920, Note_on_c, 12, 63, 110
10, 121920, Note_on_c, 12, 55, 110
10, 122030, Note_on_c, 12, 55, 0
10, 122030, Note_on_c, 12, 63, 0
10, 122030, Note_on_c, 12, 72, 0
10, 122040, Note_on_c, 12, 71, 113
10, 122040, Note_on_c, 12, 62, 113
10, 122040, Note_on_c, 12, 55, 113
10, 122150, Note_on_c, 12, 55, 0
10, 122150, Note_on_c, 12, 62, 0
10, 122150, Note_on_c, 12, 71, 0
10, 122160, Note_on_c, 12, 72, 116
10, 122160, Note_on_c, 12, 63, 116
10, 122160, Note_on_c, 12, 55, 116
10, 122270, Note_on_c, 12, 55, 0
10, 122270, Note_on_c, 12, 63, 0
10, 122270, Note_on_c, 12, 72, 0
10, 122280, Note_on_c, 12, 79, 118
10, 122280, Note_on_c, 12, 71, 118
10, 122280, Note_on_c, 12, 62, 118
10, 122390, Note_on_c, 12, 62, 0
10, 122390, Note_on_c, 12, 71, 0
10, 122390, Note_on_c, 12, 79, 0
10, 122400, Note_on_c, 12, 79, 121
10, 122400, Note_on_c, 12, 72, 121
10, 122400, Note_on_c, 12, 63, 121
10, 122510, Note_on_c, 12, 63, 0
10, 122510, Note_on_c, 12, 72, 0
10, 122510, Note_on_c, 12, 79, 0
10, 122520, Note_on_c, 12, 79, 124
10, 122520, Note_on_c, 12, 71, 124
10, 122520, Note_on_c, 12, 62, 124
10, 122630, Note_on_c, 12, 62, 0
10, 122630, Note_on_c, 12, 71, 0
10, 122630, Note_on_c, 12, 79, 0
10, 122640, Note_on_c, 12, 79, 127
10, 122640, Note_on_c, 12, 72, 127
10, 122640, Note_on_c, 12, 63, 127
10, 122760, Note_on_c, 12, 63, 0
10, 122760, Note_on_c, 12, 72, 0
10, 122760, Note_on_c, 12, 79, 0
10, 122880, Note_on_c, 12, 71, 127
10, 122880, Note_on_c, 12, 62, 127
10, 122880, Note_on_c, 12, 55, 127
10, 123000, Note_on_c, 12, 55, 0
10, 123000, Note_on_c, 12, 62, 0
10, 123000, Note_on_c, 12, 71, 0
10, 123120, Note_on_c, 12, 72, 127
10, 123120, Note_on_c, 12, 63, 127
10, 123120, Note_on_c, 12, 55, 127
10, 123240, Note_on_c, 12, 55, 0
10, 123240, Note_on_c, 12, 63, 0
10, 123240, Note_on_c, 12, 72, 0
10, 123240, End_track
11, 0, Start_track
11, 0, MIDI_port, 0
11, 0, Title_t, "Viole "
11, 0, Program_c, 13, 48
11, 0, Control_c, 13, 7, 127
11, 0, Control_c, 13, 10, 86
11, 60, Note_on_c, 13, 55, 127
11, 110, Note_on_c, 13, 55, 0
11, 120, Note_on_c, 13, 55, 127
11, 170, Note_on_c, 13, 55, 0
11, 180, Note_on_c, 13, 55, 127
11, 230, Note_on_c, 13, 55, 0
11, 240, Note_on_c, 13, 51, 127
11, 480, Note_on_c, 13, 51, 0
11, 540, Note_on_c, 13, 53, 127
11, 590, Note_on_c, 13, 53, 0
11, 600, Note_on_c, 13, 53, 127
11, 650, Note_on_c, 13, 53, 0
11, 660, Note_on_c, 13, 53, 127
11, 710, Note_on_c, 13, 53, 0
11, 720, Note_on_c, 13, 50, 127
11, 1200, Note_on_c, 13, 50, 0
11, 1500, Note_on_c, 13, 68, 50
11, 1550, Note_on_c, 13, 68, 0
11, 1560, Note_on_c, 13, 68, 50
11, 1610, Note_on_c, 13, 68, 0
11, 1620, Note_on_c, 13, 68, 50
11, 1670, Note_on_c, 13, 68, 0
11, 1680, Note_on_c, 13, 67, 50
11, 2270, Note_on_c, 13, 67, 0
11, 2460, Note_on_c, 13, 68, 50
11, 2510, Note_on_c, 13, 68, 0
11, 2520, Note_on_c, 13, 68, 50
11, 2570, Note_on_c, 13, 68, 0
11, 2580, Note_on_c, 13, 68, 50
11, 2630, Note_on_c, 13, 68, 0
11, 2640, Note_on_c, 13, 67, 50
11, 2870, Note_on_c, 13, 67, 0
11, 2880, Note_on_c, 13, 62, 50
11, 3350, Note_on_c, 13, 62, 0
11, 3360, Note_on_c, 13, 63, 50
11, 3410, Note_on_c, 13, 63, 0
11, 3420, Note_on_c, 13, 63, 50
11, 3470, Note_on_c, 13, 63, 0
11, 3480, Note_on_c, 13, 63, 50
11, 3530, Note_on_c, 13, 63, 0
11, 3540, Note_on_c, 13, 65, 50
11, 3590, Note_on_c, 13, 65, 0
11, 3600, Note_on_c, 13, 67, 50
11, 3890, Note_on_c, 13, 67, 0
11, 3900, Note_on_c, 13, 63, 50
11, 3950, Note_on_c, 13, 63, 0
11, 3960, Note_on_c, 13, 63, 50
11, 4010, Note_on_c, 13, 63, 0
11, 4020, Note_on_c, 13, 65, 50
11, 4070, Note_on_c, 13, 65, 0
11, 4080, Note_on_c, 13, 67, 50
11, 4250, Note_on_c, 13, 67, 0
11, 4260, Note_on_c, 13, 62, 106
11, 4310, Note_on_c, 13, 62, 0
11, 4320, Note_on_c, 13, 63, 127
11, 4440, Note_on_c, 13, 63, 0
11, 4560, Note_on_c, 13, 56, 127
11, 4680, Note_on_c, 13, 56, 0
11, 4800, Note_on_c, 13, 55, 127
11, 4920, Note_on_c, 13, 55, 0
11, 5100, Note_on_c, 13, 56, 127
11, 5150, Note_on_c, 13, 56, 0
11, 5160, Note_on_c, 13, 56, 127
11, 5210, Note_on_c, 13, 56, 0
11, 5220, Note_on_c, 13, 56, 127
11, 5270, Note_on_c, 13, 56, 0
11, 5280, Note_on_c, 13, 53, 127
11, 5760, Note_on_c, 13, 53, 0
11, 6300, Note_on_c, 13, 56, 50
11, 6350, Note_on_c, 13, 56, 0
11, 6360, Note_on_c, 13, 56, 50
11, 6410, Note_on_c, 13, 56, 0
11, 6420, Note_on_c, 13, 56, 50
11, 6470, Note_on_c, 13, 56, 0
11, 6480, Note_on_c, 13, 55, 50
11, 6840, Note_on_c, 13, 55, 0
11, 7260, Note_on_c, 13, 56, 50
11, 7310, Note_on_c, 13, 56, 0
11, 7320, Note_on_c, 13, 56, 50
11, 7370, Note_on_c, 13, 56, 0
11, 7380, Note_on_c, 13, 56, 50
11, 7430, Note_on_c, 13, 56, 0
11, 7440, Note_on_c, 13, 55, 50
11, 7730, Note_on_c, 13, 55, 0
11, 7740, Note_on_c, 13, 63, 52
11, 7790, Note_on_c, 13, 63, 0
11, 7800, Note_on_c, 13, 63, 55
11, 7850, Note_on_c, 13, 63, 0
11, 7860, Note_on_c, 13, 60, 57
11, 7910, Note_on_c, 13, 60, 0
11, 7920, Note_on_c, 13, 62, 60
11, 8210, Note_on_c, 13, 62, 0
11, 8220, Note_on_c, 13, 65, 72
11, 8270, Note_on_c, 13, 65, 0
11, 8280, Note_on_c, 13, 65, 75
11, 8330, Note_on_c, 13, 65, 0
11, 8340, Note_on_c, 13, 62, 77
11, 8390, Note_on_c, 13, 62, 0
11, 8400, Note_on_c, 13, 63, 80
11, 8690, Note_on_c, 13, 63, 0
11, 8700, Note_on_c, 13, 63, 92
11, 8750, Note_on_c, 13, 63, 0
11, 8760, Note_on_c, 13, 63, 95
11, 8810, Note_on_c, 13, 63, 0
11, 8820, Note_on_c, 13, 60, 97
11, 8870, Note_on_c, 13, 60, 0
11, 8880, Note_on_c, 13, 65, 100
11, 8930, Note_on_c, 13, 65, 0
11, 8940, Note_on_c, 13, 65, 100
11, 8990, Note_on_c, 13, 65, 0
11, 9000, Note_on_c, 13, 65, 100
11, 9050, Note_on_c, 13, 65, 0
11, 9060, Note_on_c, 13, 59, 100
11, 9110, Note_on_c, 13, 59, 0
11, 9120, Note_on_c, 13, 67, 100
11, 9170, Note_on_c, 13, 67, 0
11, 9180, Note_on_c, 13, 67, 100
11, 9230, Note_on_c, 13, 67, 0
11, 9240, Note_on_c, 13, 67, 100
11, 9290, Note_on_c, 13, 67, 0
11, 9300, Note_on_c, 13, 58, 100
11, 9350, Note_on_c, 13, 58, 0
11, 9360, Note_on_c, 13, 68, 100
11, 9410, Note_on_c, 13, 68, 0
11, 9420, Note_on_c, 13, 56, 100
11, 9470, Note_on_c, 13, 56, 0
11, 9480, Note_on_c, 13, 56, 100
11, 9530, Note_on_c, 13, 56, 0
11, 9540, Note_on_c, 13, 53, 100
11, 9590, Note_on_c, 13, 53, 0
11, 9600, Note_on_c, 13, 58, 100
11, 9650, Note_on_c, 13, 58, 0
11, 9660, Note_on_c, 13, 58, 100
11, 9710, Note_on_c, 13, 58, 0
11, 9720, Note_on_c, 13, 58, 100
11, 9770, Note_on_c, 13, 58, 0
11, 9780, Note_on_c, 13, 55, 100
11, 9830, Note_on_c, 13, 55, 0
11, 9840, Note_on_c, 13, 60, 100
11, 9890, Note_on_c, 13, 60, 0
11, 9900, Note_on_c, 13, 60, 100
11, 9950, Note_on_c, 13, 60, 0
11, 9960, Note_on_c, 13, 60, 100
11, 10010, Note_on_c, 13, 60, 0
11, 10020, Note_on_c, 13, 56, 100
11, 10070, Note_on_c, 13, 56, 0
11, 10080, Note_on_c, 13, 65, 100
11, 10130, Note_on_c, 13, 65, 0
11, 10140, Note_on_c, 13, 65, 100
11, 10190, Note_on_c, 13, 65, 0
11, 10200, Note_on_c, 13, 65, 100
11, 10250, Note_on_c, 13, 65, 0
11, 10260, Note_on_c, 13, 62, 100
11, 10310, Note_on_c, 13, 62, 0
11, 10320, Note_on_c, 13, 63, 100
11, 10370, Note_on_c, 13, 63, 0
11, 10380, Note_on_c, 13, 48, 100
11, 10380, Note_on_c, 13, 51, 100
11, 10430, Note_on_c, 13, 51, 0
11, 10430, Note_on_c, 13, 48, 0
11, 10440, Note_on_c, 13, 48, 100
11, 10440, Note_on_c, 13, 51, 100
11, 10490, Note_on_c, 13, 51, 0
11, 10490, Note_on_c, 13, 48, 0
11, 10500, Note_on_c, 13, 48, 100
11, 10500, Note_on_c, 13, 51, 100
11, 10550, Note_on_c, 13, 51, 0
11, 10550, Note_on_c, 13, 48, 0
11, 10560, Note_on_c, 13, 51, 100
11, 10560, Note_on_c, 13, 48, 100
11, 10610, Note_on_c, 13, 48, 0
11, 10610, Note_on_c, 13, 51, 0
11, 10620, Note_on_c, 13, 51, 100
11, 10620, Note_on_c, 13, 48, 100
11, 10670, Note_on_c, 13, 48, 0
11, 10670, Note_on_c, 13, 51, 0
11, 10680, Note_on_c, 13, 51, 100
11, 10680, Note_on_c, 13, 48, 100
11, 10730, Note_on_c, 13, 48, 0
11, 10730, Note_on_c, 13, 51, 0
11, 10740, Note_on_c, 13, 48, 100
11, 10740, Note_on_c, 13, 51, 100
11, 10790, Note_on_c, 13, 51, 0
11, 10790, Note_on_c, 13, 48, 0
11, 10800, Note_on_c, 13, 48, 100
11, 10800, Note_on_c, 13, 51, 100
11, 10850, Note_on_c, 13, 51, 0
11, 10850, Note_on_c, 13, 48, 0
11, 10860, Note_on_c, 13, 51, 100
11, 10860, Note_on_c, 13, 48, 100
11, 10910, Note_on_c, 13, 48, 0
11, 10910, Note_on_c, 13, 51, 0
11, 10920, Note_on_c, 13, 48, 100
11, 10920, Note_on_c, 13, 51, 100
11, 10970, Note_on_c, 13, 51, 0
11, 10970, Note_on_c, 13, 48, 0
11, 10980, Note_on_c, 13, 51, 100
11, 10980, Note_on_c, 13, 48, 100
11, 11030, Note_on_c, 13, 48, 0
11, 11030, Note_on_c, 13, 51, 0
11, 11040, Note_on_c, 13, 48, 100
11, 11040, Note_on_c, 13, 51, 100
11, 11090, Note_on_c, 13, 51, 0
11, 11090, Note_on_c, 13, 48, 0
11, 11100, Note_on_c, 13, 51, 100
11, 11100, Note_on_c, 13, 48, 100
11, 11150, Note_on_c, 13, 48, 0
11, 11150, Note_on_c, 13, 51, 0
11, 11160, Note_on_c, 13, 48, 100
11, 11160, Note_on_c, 13, 51, 100
11, 11210, Note_on_c, 13, 51, 0
11, 11210, Note_on_c, 13, 48, 0
11, 11220, Note_on_c, 13, 51, 100
11, 11220, Note_on_c, 13, 48, 100
11, 11270, Note_on_c, 13, 48, 0
11, 11270, Note_on_c, 13, 51, 0
11, 11280, Note_on_c, 13, 50, 100
11, 11280, Note_on_c, 13, 53, 100
11, 11330, Note_on_c, 13, 53, 0
11, 11330, Note_on_c, 13, 50, 0
11, 11340, Note_on_c, 13, 53, 100
11, 11340, Note_on_c, 13, 50, 100
11, 11390, Note_on_c, 13, 50, 0
11, 11390, Note_on_c, 13, 53, 0
11, 11400, Note_on_c, 13, 50, 100
11, 11400, Note_on_c, 13, 53, 100
11, 11450, Note_on_c, 13, 53, 0
11, 11450, Note_on_c, 13, 50, 0
11, 11460, Note_on_c, 13, 50, 100
11, 11460, Note_on_c, 13, 53, 100
11, 11510, Note_on_c, 13, 53, 0
11, 11510, Note_on_c, 13, 50, 0
11, 11520, Note_on_c, 13, 53, 100
11, 11520, Note_on_c, 13, 50, 100
11, 11570, Note_on_c, 13, 50, 0
11, 11570, Note_on_c, 13, 53, 0
11, 11580, Note_on_c, 13, 53, 100
11, 11580, Note_on_c, 13, 50, 100
11, 11630, Note_on_c, 13, 50, 0
11, 11630, Note_on_c, 13, 53, 0
11, 11640, Note_on_c, 13, 50, 100
11, 11640, Note_on_c, 13, 53, 100
11, 11690, Note_on_c, 13, 53, 0
11, 11690, Note_on_c, 13, 50, 0
11, 11700, Note_on_c, 13, 50, 100
11, 11700, Note_on_c, 13, 53, 100
11, 11750, Note_on_c, 13, 53, 0
11, 11750, Note_on_c, 13, 50, 0
11, 11760, Note_on_c, 13, 53, 100
11, 11760, Note_on_c, 13, 50, 100
11, 11810, Note_on_c, 13, 50, 0
11, 11810, Note_on_c, 13, 53, 0
11, 11820, Note_on_c, 13, 53, 100
11, 11820, Note_on_c, 13, 50, 100
11, 11870, Note_on_c, 13, 50, 0
11, 11870, Note_on_c, 13, 53, 0
11, 11880, Note_on_c, 13, 50, 100
11, 11880, Note_on_c, 13, 53, 100
11, 11930, Note_on_c, 13, 53, 0
11, 11930, Note_on_c, 13, 50, 0
11, 11940, Note_on_c, 13, 50, 100
11, 11940, Note_on_c, 13, 53, 100
11, 11990, Note_on_c, 13, 53, 0
11, 11990, Note_on_c, 13, 50, 0
11, 12000, Note_on_c, 13, 53, 100
11, 12000, Note_on_c, 13, 50, 100
11, 12050, Note_on_c, 13, 50, 0
11, 12050, Note_on_c, 13, 53, 0
11, 12060, Note_on_c, 13, 50, 100
11, 12060, Note_on_c, 13, 53, 100
11, 12110, Note_on_c, 13, 53, 0
11, 12110, Note_on_c, 13, 50, 0
11, 12120, Note_on_c, 13, 48, 100
11, 12120, Note_on_c, 13, 51, 100
11, 12170, Note_on_c, 13, 51, 0
11, 12170, Note_on_c, 13, 48, 0
11, 12180, Note_on_c, 13, 48, 100
11, 12180, Note_on_c, 13, 51, 100
11, 12230, Note_on_c, 13, 51, 0
11, 12230, Note_on_c, 13, 48, 0
11, 12240, Note_on_c, 13, 51, 127
11, 12240, Note_on_c, 13, 48, 127
11, 12290, Note_on_c, 13, 48, 0
11, 12290, Note_on_c, 13, 51, 0
11, 12300, Note_on_c, 13, 51, 127
11, 12300, Note_on_c, 13, 54, 127
11, 12350, Note_on_c, 13, 54, 0
11, 12350, Note_on_c, 13, 51, 0
11, 12360, Note_on_c, 13, 54, 127
11, 12360, Note_on_c, 13, 51, 127
11, 12410, Note_on_c, 13, 51, 0
11, 12410, Note_on_c, 13, 54, 0
11, 12420, Note_on_c, 13, 54, 127
11, 12420, Note_on_c, 13, 51, 127
11, 12470, Note_on_c, 13, 51, 0
11, 12470, Note_on_c, 13, 54, 0
11, 12480, Note_on_c, 13, 54, 127
11, 12480, Note_on_c, 13, 51, 127
11, 12530, Note_on_c, 13, 51, 0
11, 12530, Note_on_c, 13, 54, 0
11, 12540, Note_on_c, 13, 54, 127
11, 12540, Note_on_c, 13, 51, 127
11, 12590, Note_on_c, 13, 51, 0
11, 12590, Note_on_c, 13, 54, 0
11, 12600, Note_on_c, 13, 51, 127
11, 12600, Note_on_c, 13, 54, 127
11, 12650, Note_on_c, 13, 54, 0
11, 12650, Note_on_c, 13, 51, 0
11, 12660, Note_on_c, 13, 51, 127
11, 12660, Note_on_c, 13, 54, 127
11, 12710, Note_on_c, 13, 54, 0
11, 12710, Note_on_c, 13, 51, 0
11, 12720, Note_on_c, 13, 54, 127
11, 12720, Note_on_c, 13, 51, 127
11, 12770, Note_on_c, 13, 51, 0
11, 12770, Note_on_c, 13, 54, 0
11, 12780, Note_on_c, 13, 54, 127
11, 12780, Note_on_c, 13, 51, 127
11, 12830, Note_on_c, 13, 51, 0
11, 12830, Note_on_c, 13, 54, 0
11, 12840, Note_on_c, 13, 51, 127
11, 12840, Note_on_c, 13, 54, 127
11, 12890, Note_on_c, 13, 54, 0
11, 12890, Note_on_c, 13, 51, 0
11, 12900, Note_on_c, 13, 54, 127
11, 12900, Note_on_c, 13, 51, 127
11, 12950, Note_on_c, 13, 51, 0
11, 12950, Note_on_c, 13, 54, 0
11, 12960, Note_on_c, 13, 54, 127
11, 12960, Note_on_c, 13, 51, 127
11, 13010, Note_on_c, 13, 51, 0
11, 13010, Note_on_c, 13, 54, 0
11, 13020, Note_on_c, 13, 54, 127
11, 13020, Note_on_c, 13, 51, 127
11, 13070, Note_on_c, 13, 51, 0
11, 13070, Note_on_c, 13, 54, 0
11, 13080, Note_on_c, 13, 51, 127
11, 13080, Note_on_c, 13, 54, 127
11, 13130, Note_on_c, 13, 54, 0
11, 13130, Note_on_c, 13, 51, 0
11, 13140, Note_on_c, 13, 54, 127
11, 13140, Note_on_c, 13, 51, 127
11, 13190, Note_on_c, 13, 51, 0
11, 13190, Note_on_c, 13, 54, 0
11, 13200, Note_on_c, 13, 54, 127
11, 13200, Note_on_c, 13, 51, 127
11, 13320, Note_on_c, 13, 51, 0
11, 13320, Note_on_c, 13, 54, 0
11, 13680, Note_on_c, 13, 53, 127
11, 13800, Note_on_c, 13, 53, 0
11, 14880, Note_on_c, 13, 63, 50
11, 15120, Note_on_c, 13, 63, 0
11, 15120, Note_on_c, 13, 65, 50
11, 15350, Note_on_c, 13, 65, 0
11, 15360, Note_on_c, 13, 62, 50
11, 15600, Note_on_c, 13, 62, 0
11, 15600, Note_on_c, 13, 63, 50
11, 15830, Note_on_c, 13, 63, 0
11, 15840, Note_on_c, 13, 63, 50
11, 16080, Note_on_c, 13, 63, 0
11, 16080, Note_on_c, 13, 65, 50
11, 16310, Note_on_c, 13, 65, 0
11, 16320, Note_on_c, 13, 62, 50
11, 16560, Note_on_c, 13, 62, 0
11, 16560, Note_on_c, 13, 63, 50
11, 16790, Note_on_c, 13, 63, 0
11, 16800, Note_on_c, 13, 63, 50
11, 17040, Note_on_c, 13, 63, 0
11, 17040, Note_on_c, 13, 65, 50
11, 17270, Note_on_c, 13, 65, 0
11, 17280, Note_on_c, 13, 62, 50
11, 17520, Note_on_c, 13, 62, 0
11, 17520, Note_on_c, 13, 63, 50
11, 17750, Note_on_c, 13, 63, 0
11, 17760, Note_on_c, 13, 63, 50
11, 18000, Note_on_c, 13, 63, 0
11, 18000, Note_on_c, 13, 64, 50
11, 18230, Note_on_c, 13, 64, 0
11, 18240, Note_on_c, 13, 64, 50
11, 18480, Note_on_c, 13, 64, 0
11, 18480, Note_on_c, 13, 60, 50
11, 18710, Note_on_c, 13, 60, 0
11, 18720, Note_on_c, 13, 65, 50
11, 18960, Note_on_c, 13, 65, 0
11, 18960, Note_on_c, 13, 67, 50
11, 19190, Note_on_c, 13, 67, 0
11, 19200, Note_on_c, 13, 67, 50
11, 19440, Note_on_c, 13, 67, 0
11, 19440, Note_on_c, 13, 63, 50
11, 19670, Note_on_c, 13, 63, 0
11, 19980, Note_on_c, 13, 57, 51
11, 20030, Note_on_c, 13, 57, 0
11, 20040, Note_on_c, 13, 57, 53
11, 20090, Note_on_c, 13, 57, 0
11, 20100, Note_on_c, 13, 57, 55
11, 20150, Note_on_c, 13, 57, 0
11, 20160, Note_on_c, 13, 57, 57
11, 20280, Note_on_c, 13, 57, 0
11, 20460, Note_on_c, 13, 58, 67
11, 20510, Note_on_c, 13, 58, 0
11, 20520, Note_on_c, 13, 58, 69
11, 20570, Note_on_c, 13, 58, 0
11, 20580, Note_on_c, 13, 58, 71
11, 20630, Note_on_c, 13, 58, 0
11, 20640, Note_on_c, 13, 58, 73
11, 20760, Note_on_c, 13, 58, 0
11, 20940, Note_on_c, 13, 59, 82
11, 20990, Note_on_c, 13, 59, 0
11, 21000, Note_on_c, 13, 59, 84
11, 21050, Note_on_c, 13, 59, 0
11, 21060, Note_on_c, 13, 59, 86
11, 21110, Note_on_c, 13, 59, 0
11, 21120, Note_on_c, 13, 59, 88
11, 21240, Note_on_c, 13, 59, 0
11, 21420, Note_on_c, 13, 60, 98
11, 21470, Note_on_c, 13, 60, 0
11, 21480, Note_on_c, 13, 60, 100
11, 21530, Note_on_c, 13, 60, 0
11, 21540, Note_on_c, 13, 60, 101
11, 21590, Note_on_c, 13, 60, 0
11, 21600, Note_on_c, 13, 60, 103
11, 21720, Note_on_c, 13, 60, 0
11, 21900, Note_on_c, 13, 60, 113
11, 21950, Note_on_c, 13, 60, 0
11, 21960, Note_on_c, 13, 60, 115
11, 22010, Note_on_c, 13, 60, 0
11, 22020, Note_on_c, 13, 60, 117
11, 22070, Note_on_c, 13, 60, 0
11, 22080, Note_on_c, 13, 60, 119
11, 22190, Note_on_c, 13, 60, 0
11, 22200, Note_on_c, 13, 60, 123
11, 22250, Note_on_c, 13, 60, 0
11, 22260, Note_on_c, 13, 60, 125
11, 22310, Note_on_c, 13, 60, 0
11, 22320, Note_on_c, 13, 62, 127
11, 22670, Note_on_c, 13, 62, 0
11, 22680, Note_on_c, 13, 50, 127
11, 22800, Note_on_c, 13, 50, 0
11, 22800, Note_on_c, 13, 51, 127
11, 22920, Note_on_c, 13, 51, 0
11, 23040, Note_on_c, 13, 53, 127
11, 23160, Note_on_c, 13, 53, 0
11, 23280, Note_on_c, 13, 55, 127
11, 23400, Note_on_c, 13, 55, 0
11, 23520, Note_on_c, 13, 56, 127
11, 23640, Note_on_c, 13, 56, 0
11, 23760, Note_on_c, 13, 58, 127
11, 23880, Note_on_c, 13, 58, 0
11, 24000, Note_on_c, 13, 58, 127
11, 24120, Note_on_c, 13, 58, 0
11, 24240, Note_on_c, 13, 53, 127
11, 24290, Note_on_c, 13, 53, 0
11, 24300, Note_on_c, 13, 53, 127
11, 24350, Note_on_c, 13, 53, 0
11, 24360, Note_on_c, 13, 58, 127
11, 24410, Note_on_c, 13, 58, 0
11, 24420, Note_on_c, 13, 58, 127
11, 24470, Note_on_c, 13, 58, 0
11, 24480, Note_on_c, 13, 53, 127
11, 24530, Note_on_c, 13, 53, 0
11, 24540, Note_on_c, 13, 53, 127
11, 24590, Note_on_c, 13, 53, 0
11, 24600, Note_on_c, 13, 58, 127
11, 24650, Note_on_c, 13, 58, 0
11, 24660, Note_on_c, 13, 58, 127
11, 24710, Note_on_c, 13, 58, 0
11, 24720, Note_on_c, 13, 55, 127
11, 24770, Note_on_c, 13, 55, 0
11, 24780, Note_on_c, 13, 55, 127
11, 24830, Note_on_c, 13, 55, 0
11, 24840, Note_on_c, 13, 58, 127
11, 24890, Note_on_c, 13, 58, 0
11, 24900, Note_on_c, 13, 58, 127
11, 24950, Note_on_c, 13, 58, 0
11, 24960, Note_on_c, 13, 56, 127
11, 25010, Note_on_c, 13, 56, 0
11, 25020, Note_on_c, 13, 56, 127
11, 25070, Note_on_c, 13, 56, 0
11, 25080, Note_on_c, 13, 58, 127
11, 25130, Note_on_c, 13, 58, 0
11, 25140, Note_on_c, 13, 58, 127
11, 25190, Note_on_c, 13, 58, 0
11, 25200, Note_on_c, 13, 65, 127
11, 25260, Note_on_c, 13, 65, 0
11, 25260, Note_on_c, 13, 63, 127
11, 25310, Note_on_c, 13, 63, 0
11, 25320, Note_on_c, 13, 58, 127
11, 25365, Note_on_c, 13, 58, 0
11, 25380, Note_on_c, 13, 55, 127
11, 25425, Note_on_c, 13, 55, 0
11, 25440, Note_on_c, 13, 62, 127
11, 25500, Note_on_c, 13, 62, 0
11, 25500, Note_on_c, 13, 60, 127
11, 25550, Note_on_c, 13, 60, 0
11, 25560, Note_on_c, 13, 56, 127
11, 25605, Note_on_c, 13, 56, 0
11, 25620, Note_on_c, 13, 53, 127
11, 25665, Note_on_c, 13, 53, 0
11, 25680, Note_on_c, 13, 60, 127
11, 25740, Note_on_c, 13, 60, 0
11, 25740, Note_on_c, 13, 58, 127
11, 25790, Note_on_c, 13, 58, 0
11, 25800, Note_on_c, 13, 55, 127
11, 25845, Note_on_c, 13, 55, 0
11, 25860, Note_on_c, 13, 51, 127
11, 25905, Note_on_c, 13, 51, 0
11, 25920, Note_on_c, 13, 50, 127
11, 25970, Note_on_c, 13, 50, 0
11, 25980, Note_on_c, 13, 53, 127
11, 25980, Note_on_c, 13, 62, 127
11, 26030, Note_on_c, 13, 62, 0
11, 26030, Note_on_c, 13, 53, 0
11, 26040, Note_on_c, 13, 56, 127
11, 26040, Note_on_c, 13, 65, 127
11, 26090, Note_on_c, 13, 65, 0
11, 26090, Note_on_c, 13, 56, 0
11, 26100, Note_on_c, 13, 53, 127
11, 26100, Note_on_c, 13, 62, 127
11, 26150, Note_on_c, 13, 62, 0
11, 26150, Note_on_c, 13, 53, 0
11, 26160, Note_on_c, 13, 55, 127
11, 26930, Note_on_c, 13, 55, 0
11, 26940, Note_on_c, 13, 58, 127
11, 26990, Note_on_c, 13, 58, 0
11, 27000, Note_on_c, 13, 58, 127
11, 27050, Note_on_c, 13, 58, 0
11, 27060, Note_on_c, 13, 58, 127
11, 27110, Note_on_c, 13, 58, 0
11, 27120, Note_on_c, 13, 58, 127
11, 27890, Note_on_c, 13, 58, 0
11, 27900, Note_on_c, 13, 58, 127
11, 27950, Note_on_c, 13, 58, 0
11, 27960, Note_on_c, 13, 58, 127
11, 28010, Note_on_c, 13, 58, 0
11, 28020, Note_on_c, 13, 58, 127
11, 28070, Note_on_c, 13, 58, 0
11, 28080, Note_on_c, 13, 58, 127
11, 28200, Note_on_c, 13, 58, 0
11, 28380, Note_on_c, 13, 58, 127
11, 28430, Note_on_c, 13, 58, 0
11, 28440, Note_on_c, 13, 58, 127
11, 28490, Note_on_c, 13, 58, 0
11, 28500, Note_on_c, 13, 58, 127
11, 28550, Note_on_c, 13, 58, 0
11, 28560, Note_on_c, 13, 58, 127
11, 28680, Note_on_c, 13, 58, 0
11, 28860, Note_on_c, 13, 58, 127
11, 28910, Note_on_c, 13, 58, 0
11, 28920, Note_on_c, 13, 58, 127
11, 28970, Note_on_c, 13, 58, 0
11, 28980, Note_on_c, 13, 58, 127
11, 29030, Note_on_c, 13, 58, 0
11, 29040, Note_on_c, 13, 63, 127
11, 29160, Note_on_c, 13, 63, 0
11, 30060, Note_on_c, 13, 49, 127
11, 30110, Note_on_c, 13, 49, 0
11, 30120, Note_on_c, 13, 49, 127
11, 30170, Note_on_c, 13, 49, 0
11, 30180, Note_on_c, 13, 49, 127
11, 30230, Note_on_c, 13, 49, 0
11, 30240, Note_on_c, 13, 48, 127
11, 30720, Note_on_c, 13, 48, 0
11, 30960, Note_on_c, 13, 60, 50
11, 31490, Note_on_c, 13, 60, 0
11, 31500, Note_on_c, 13, 61, 50
11, 31550, Note_on_c, 13, 61, 0
11, 31560, Note_on_c, 13, 61, 50
11, 31610, Note_on_c, 13, 61, 0
11, 31620, Note_on_c, 13, 61, 50
11, 31670, Note_on_c, 13, 61, 0
11, 31680, Note_on_c, 13, 60, 50
11, 32450, Note_on_c, 13, 60, 0
11, 32460, Note_on_c, 13, 61, 50
11, 32510, Note_on_c, 13, 61, 0
11, 32520, Note_on_c, 13, 61, 50
11, 32570, Note_on_c, 13, 61, 0
11, 32580, Note_on_c, 13, 61, 50
11, 32630, Note_on_c, 13, 61, 0
11, 32640, Note_on_c, 13, 60, 50
11, 33360, Note_on_c, 13, 60, 0
11, 33360, Note_on_c, 13, 60, 50
11, 34080, Note_on_c, 13, 60, 0
11, 34080, Note_on_c, 13, 62, 66
11, 34200, Note_on_c, 13, 62, 0
11, 34200, Note_on_c, 13, 63, 75
11, 34320, Note_on_c, 13, 63, 0
11, 34320, Note_on_c, 13, 65, 83
11, 34440, Note_on_c, 13, 65, 0
11, 34440, Note_on_c, 13, 66, 91
11, 34550, Note_on_c, 13, 66, 0
11, 34560, Note_on_c, 13, 67, 50
11, 34610, Note_on_c, 13, 67, 0
11, 34620, Note_on_c, 13, 67, 50
11, 34670, Note_on_c, 13, 67, 0
11, 34680, Note_on_c, 13, 67, 50
11, 34730, Note_on_c, 13, 67, 0
11, 34740, Note_on_c, 13, 65, 50
11, 34790, Note_on_c, 13, 65, 0
11, 34800, Note_on_c, 13, 63, 50
11, 35030, Note_on_c, 13, 63, 0
11, 35040, Note_on_c, 13, 62, 50
11, 35090, Note_on_c, 13, 62, 0
11, 35100, Note_on_c, 13, 67, 50
11, 35150, Note_on_c, 13, 67, 0
11, 35160, Note_on_c, 13, 67, 50
11, 35210, Note_on_c, 13, 67, 0
11, 35220, Note_on_c, 13, 65, 50
11, 35270, Note_on_c, 13, 65, 0
11, 35280, Note_on_c, 13, 63, 50
11, 35510, Note_on_c, 13, 63, 0
11, 35520, Note_on_c, 13, 62, 50
11, 35570, Note_on_c, 13, 62, 0
11, 35580, Note_on_c, 13, 67, 50
11, 35630, Note_on_c, 13, 67, 0
11, 35640, Note_on_c, 13, 67, 50
11, 35690, Note_on_c, 13, 67, 0
11, 35700, Note_on_c, 13, 65, 50
11, 35750, Note_on_c, 13, 65, 0
11, 35760, Note_on_c, 13, 63, 50
11, 35810, Note_on_c, 13, 63, 0
11, 35820, Note_on_c, 13, 63, 54
11, 35870, Note_on_c, 13, 63, 0
11, 35880, Note_on_c, 13, 63, 58
11, 35930, Note_on_c, 13, 63, 0
11, 35940, Note_on_c, 13, 62, 62
11, 35990, Note_on_c, 13, 62, 0
11, 36000, Note_on_c, 13, 60, 66
11, 36050, Note_on_c, 13, 60, 0
11, 36060, Note_on_c, 13, 60, 70
11, 36110, Note_on_c, 13, 60, 0
11, 36120, Note_on_c, 13, 60, 75
11, 36170, Note_on_c, 13, 60, 0
11, 36180, Note_on_c, 13, 58, 79
11, 36230, Note_on_c, 13, 58, 0
11, 36240, Note_on_c, 13, 57, 83
11, 36290, Note_on_c, 13, 57, 0
11, 36300, Note_on_c, 13, 57, 87
11, 36350, Note_on_c, 13, 57, 0
11, 36360, Note_on_c, 13, 57, 91
11, 36410, Note_on_c, 13, 57, 0
11, 36420, Note_on_c, 13, 55, 95
11, 36470, Note_on_c, 13, 55, 0
11, 36480, Note_on_c, 13, 54, 50
11, 36600, Note_on_c, 13, 54, 0
11, 36780, Note_on_c, 13, 58, 50
11, 36830, Note_on_c, 13, 58, 0
11, 36840, Note_on_c, 13, 58, 50
11, 36890, Note_on_c, 13, 58, 0
11, 36900, Note_on_c, 13, 60, 50
11, 36950, Note_on_c, 13, 60, 0
11, 36960, Note_on_c, 13, 62, 50
11, 37250, Note_on_c, 13, 62, 0
11, 37260, Note_on_c, 13, 58, 50
11, 37310, Note_on_c, 13, 58, 0
11, 37320, Note_on_c, 13, 58, 50
11, 37370, Note_on_c, 13, 58, 0
11, 37380, Note_on_c, 13, 60, 50
11, 37430, Note_on_c, 13, 60, 0
11, 37440, Note_on_c, 13, 62, 50
11, 37490, Note_on_c, 13, 62, 0
11, 37500, Note_on_c, 13, 62, 50
11, 37550, Note_on_c, 13, 62, 0
11, 37560, Note_on_c, 13, 62, 50
11, 37610, Note_on_c, 13, 62, 0
11, 37620, Note_on_c, 13, 60, 50
11, 37670, Note_on_c, 13, 60, 0
11, 37680, Note_on_c, 13, 58, 50
11, 37730, Note_on_c, 13, 58, 0
11, 37740, Note_on_c, 13, 58, 50
11, 37790, Note_on_c, 13, 58, 0
11, 37800, Note_on_c, 13, 58, 50
11, 37850, Note_on_c, 13, 58, 0
11, 37860, Note_on_c, 13, 57, 50
11, 37910, Note_on_c, 13, 57, 0
11, 37920, Note_on_c, 13, 55, 50
11, 37970, Note_on_c, 13, 55, 0
11, 37980, Note_on_c, 13, 55, 50
11, 38030, Note_on_c, 13, 55, 0
11, 38040, Note_on_c, 13, 55, 50
11, 38090, Note_on_c, 13, 55, 0
11, 38100, Note_on_c, 13, 53, 50
11, 38150, Note_on_c, 13, 53, 0
11, 38160, Note_on_c, 13, 51, 50
11, 38210, Note_on_c, 13, 51, 0
11, 38220, Note_on_c, 13, 51, 50
11, 38270, Note_on_c, 13, 51, 0
11, 38280, Note_on_c, 13, 51, 50
11, 38330, Note_on_c, 13, 51, 0
11, 38340, Note_on_c, 13, 50, 50
11, 38390, Note_on_c, 13, 50, 0
11, 38400, Note_on_c, 13, 48, 50
11, 38450, Note_on_c, 13, 48, 0
11, 38460, Note_on_c, 13, 60, 50
11, 38510, Note_on_c, 13, 60, 0
11, 38520, Note_on_c, 13, 60, 50
11, 38570, Note_on_c, 13, 60, 0
11, 38580, Note_on_c, 13, 58, 50
11, 38630, Note_on_c, 13, 58, 0
11, 38640, Note_on_c, 13, 57, 50
11, 38690, Note_on_c, 13, 57, 0
11, 38700, Note_on_c, 13, 57, 50
11, 38750, Note_on_c, 13, 57, 0
11, 38760, Note_on_c, 13, 57, 50
11, 38810, Note_on_c, 13, 57, 0
11, 38820, Note_on_c, 13, 55, 50
11, 38870, Note_on_c, 13, 55, 0
11, 38880, Note_on_c, 13, 54, 50
11, 38930, Note_on_c, 13, 54, 0
11, 38940, Note_on_c, 13, 54, 50
11, 38990, Note_on_c, 13, 54, 0
11, 39000, Note_on_c, 13, 54, 50
11, 39050, Note_on_c, 13, 54, 0
11, 39060, Note_on_c, 13, 51, 50
11, 39110, Note_on_c, 13, 51, 0
11, 39120, Note_on_c, 13, 50, 50
11, 39170, Note_on_c, 13, 50, 0
11, 39180, Note_on_c, 13, 50, 50
11, 39230, Note_on_c, 13, 50, 0
11, 39240, Note_on_c, 13, 50, 50
11, 39290, Note_on_c, 13, 50, 0
11, 39300, Note_on_c, 13, 48, 50
11, 39350, Note_on_c, 13, 48, 0
11, 39360, Note_on_c, 13, 58, 50
11, 39410, Note_on_c, 13, 58, 0
11, 39420, Note_on_c, 13, 62, 50
11, 39470, Note_on_c, 13, 62, 0
11, 39480, Note_on_c, 13, 62, 50
11, 39530, Note_on_c, 13, 62, 0
11, 39540, Note_on_c, 13, 60, 50
11, 39590, Note_on_c, 13, 60, 0
11, 39600, Note_on_c, 13, 58, 50
11, 39650, Note_on_c, 13, 58, 0
11, 39660, Note_on_c, 13, 58, 56
11, 39710, Note_on_c, 13, 58, 0
11, 39720, Note_on_c, 13, 58, 62
11, 39770, Note_on_c, 13, 58, 0
11, 39780, Note_on_c, 13, 57, 68
11, 39830, Note_on_c, 13, 57, 0
11, 39840, Note_on_c, 13, 55, 75
11, 39890, Note_on_c, 13, 55, 0
11, 39900, Note_on_c, 13, 53, 81
11, 39950, Note_on_c, 13, 53, 0
11, 39960, Note_on_c, 13, 51, 87
11, 40010, Note_on_c, 13, 51, 0
11, 40020, Note_on_c, 13, 50, 93
11, 40070, Note_on_c, 13, 50, 0
11, 40080, Note_on_c, 13, 48, 100
11, 40130, Note_on_c, 13, 48, 0
11, 40140, Note_on_c, 13, 60, 100
11, 40140, Note_on_c, 13, 48, 100
11, 40190, Note_on_c, 13, 48, 0
11, 40190, Note_on_c, 13, 60, 0
11, 40200, Note_on_c, 13, 60, 100
11, 40200, Note_on_c, 13, 48, 100
11, 40250, Note_on_c, 13, 48, 0
11, 40250, Note_on_c, 13, 60, 0
11, 40260, Note_on_c, 13, 48, 100
11, 40260, Note_on_c, 13, 60, 100
11, 40310, Note_on_c, 13, 60, 0
11, 40310, Note_on_c, 13, 48, 0
11, 40320, Note_on_c, 13, 48, 100
11, 40320, Note_on_c, 13, 60, 100
11, 40370, Note_on_c, 13, 60, 0
11, 40370, Note_on_c, 13, 48, 0
11, 40380, Note_on_c, 13, 60, 100
11, 40380, Note_on_c, 13, 48, 100
11, 40430, Note_on_c, 13, 48, 0
11, 40430, Note_on_c, 13, 60, 0
11, 40440, Note_on_c, 13, 48, 100
11, 40440, Note_on_c, 13, 60, 100
11, 40490, Note_on_c, 13, 60, 0
11, 40490, Note_on_c, 13, 48, 0
11, 40500, Note_on_c, 13, 60, 100
11, 40500, Note_on_c, 13, 48, 100
11, 40550, Note_on_c, 13, 48, 0
11, 40550, Note_on_c, 13, 60, 0
11, 40560, Note_on_c, 13, 60, 100
11, 40560, Note_on_c, 13, 48, 100
11, 40680, Note_on_c, 13, 48, 0
11, 40680, Note_on_c, 13, 60, 0
11, 40860, Note_on_c, 13, 49, 100
11, 40910, Note_on_c, 13, 49, 0
11, 40920, Note_on_c, 13, 49, 100
11, 40970, Note_on_c, 13, 49, 0
11, 40980, Note_on_c, 13, 49, 100
11, 41030, Note_on_c, 13, 49, 0
11, 41040, Note_on_c, 13, 49, 100
11, 41090, Note_on_c, 13, 49, 0
11, 41100, Note_on_c, 13, 61, 100
11, 41150, Note_on_c, 13, 61, 0
11, 41160, Note_on_c, 13, 61, 100
11, 41210, Note_on_c, 13, 61, 0
11, 41220, Note_on_c, 13, 61, 100
11, 41270, Note_on_c, 13, 61, 0
11, 41280, Note_on_c, 13, 61, 100
11, 41330, Note_on_c, 13, 61, 0
11, 41340, Note_on_c, 13, 61, 100
11, 41390, Note_on_c, 13, 61, 0
11, 41400, Note_on_c, 13, 61, 100
11, 41450, Note_on_c, 13, 61, 0
11, 41460, Note_on_c, 13, 61, 100
11, 41510, Note_on_c, 13, 61, 0
11, 41520, Note_on_c, 13, 61, 100
11, 41640, Note_on_c, 13, 61, 0
11, 41820, Note_on_c, 13, 62, 104
11, 41870, Note_on_c, 13, 62, 0
11, 41880, Note_on_c, 13, 62, 106
11, 41930, Note_on_c, 13, 62, 0
11, 41940, Note_on_c, 13, 62, 107
11, 41990, Note_on_c, 13, 62, 0
11, 42000, Note_on_c, 13, 62, 109
11, 42120, Note_on_c, 13, 62, 0
11, 42360, Note_on_c, 13, 64, 118
11, 42410, Note_on_c, 13, 64, 0
11, 42420, Note_on_c, 13, 64, 119
11, 42470, Note_on_c, 13, 64, 0
11, 42480, Note_on_c, 13, 64, 121
11, 42590, Note_on_c, 13, 64, 0
11, 42600, Note_on_c, 13, 54, 124
11, 42650, Note_on_c, 13, 54, 0
11, 42660, Note_on_c, 13, 54, 125
11, 42710, Note_on_c, 13, 54, 0
11, 42720, Note_on_c, 13, 54, 127
11, 42840, Note_on_c, 13, 54, 0
11, 43560, Note_on_c, 13, 72, 127
11, 43790, Note_on_c, 13, 72, 0
11, 43800, Note_on_c, 13, 69, 127
11, 43890, Note_on_c, 13, 69, 0
11, 43920, Note_on_c, 13, 66, 127
11, 44010, Note_on_c, 13, 66, 0
11, 44040, Note_on_c, 13, 62, 127
11, 44130, Note_on_c, 13, 62, 0
11, 44160, Note_on_c, 13, 60, 127
11, 44250, Note_on_c, 13, 60, 0
11, 44280, Note_on_c, 13, 57, 127
11, 44370, Note_on_c, 13, 57, 0
11, 44400, Note_on_c, 13, 54, 127
11, 44490, Note_on_c, 13, 54, 0
11, 44520, Note_on_c, 13, 50, 127
11, 44610, Note_on_c, 13, 50, 0
11, 44640, Note_on_c, 13, 55, 127
11, 44760, Note_on_c, 13, 55, 0
11, 45480, Note_on_c, 13, 77, 127
11, 45710, Note_on_c, 13, 77, 0
11, 45720, Note_on_c, 13, 74, 127
11, 45810, Note_on_c, 13, 74, 0
11, 45840, Note_on_c, 13, 71, 127
11, 45930, Note_on_c, 13, 71, 0
11, 45960, Note_on_c, 13, 67, 127
11, 46050, Note_on_c, 13, 67, 0
11, 46080, Note_on_c, 13, 65, 127
11, 46170, Note_on_c, 13, 65, 0
11, 46200, Note_on_c, 13, 62, 127
11, 46290, Note_on_c, 13, 62, 0
11, 46320, Note_on_c, 13, 59, 127
11, 46410, Note_on_c, 13, 59, 0
11, 46440, Note_on_c, 13, 55, 127
11, 46530, Note_on_c, 13, 55, 0
11, 46560, Note_on_c, 13, 60, 127
11, 46680, Note_on_c, 13, 60, 0
11, 47280, Note_on_c, 13, 60, 127
11, 47280, Note_on_c, 13, 48, 127
11, 47510, Note_on_c, 13, 48, 0
11, 47510, Note_on_c, 13, 60, 0
11, 47520, Note_on_c, 13, 48, 127
11, 47520, Note_on_c, 13, 60, 127
11, 47760, Note_on_c, 13, 60, 0
11, 47760, Note_on_c, 13, 48, 0
11, 48240, Note_on_c, 13, 55, 127
11, 48470, Note_on_c, 13, 55, 0
11, 48480, Note_on_c, 13, 56, 127
11, 48720, Note_on_c, 13, 56, 0
11, 49200, Note_on_c, 13, 58, 127
11, 49430, Note_on_c, 13, 58, 0
11, 49440, Note_on_c, 13, 51, 127
11, 49680, Note_on_c, 13, 51, 0
11, 50160, Note_on_c, 13, 53, 127
11, 50400, Note_on_c, 13, 53, 0
11, 50640, Note_on_c, 13, 54, 97
11, 50880, Note_on_c, 13, 54, 0
11, 51120, Note_on_c, 13, 53, 66
11, 51360, Note_on_c, 13, 53, 0
11, 51600, Note_on_c, 13, 54, 50
11, 51840, Note_on_c, 13, 54, 0
11, 52080, Note_on_c, 13, 54, 50
11, 52320, Note_on_c, 13, 54, 0
11, 52560, Note_on_c, 13, 54, 50
11, 52800, Note_on_c, 13, 54, 0
11, 53040, Note_on_c, 13, 50, 50
11, 53280, Note_on_c, 13, 50, 0
11, 53520, Note_on_c, 13, 50, 50
11, 53760, Note_on_c, 13, 50, 0
11, 54000, Note_on_c, 13, 50, 50
11, 54240, Note_on_c, 13, 50, 0
11, 54480, Note_on_c, 13, 50, 127
11, 54530, Note_on_c, 13, 50, 0
11, 54540, Note_on_c, 13, 62, 127
11, 54540, Note_on_c, 13, 50, 127
11, 54590, Note_on_c, 13, 50, 0
11, 54590, Note_on_c, 13, 62, 0
11, 54600, Note_on_c, 13, 62, 127
11, 54600, Note_on_c, 13, 50, 127
11, 54650, Note_on_c, 13, 50, 0
11, 54650, Note_on_c, 13, 62, 0
11, 54660, Note_on_c, 13, 62, 127
11, 54660, Note_on_c, 13, 50, 127
11, 54710, Note_on_c, 13, 50, 0
11, 54710, Note_on_c, 13, 62, 0
11, 54720, Note_on_c, 13, 62, 127
11, 54720, Note_on_c, 13, 50, 127
11, 54950, Note_on_c, 13, 50, 0
11, 54950, Note_on_c, 13, 62, 0
11, 54960, Note_on_c, 13, 62, 127
11, 54960, Note_on_c, 13, 50, 127
11, 55190, Note_on_c, 13, 50, 0
11, 55190, Note_on_c, 13, 62, 0
11, 55200, Note_on_c, 13, 50, 127
11, 55200, Note_on_c, 13, 62, 127
11, 55680, Note_on_c, 13, 62, 0
11, 55680, Note_on_c, 13, 50, 0
11, 55920, Note_on_c, 13, 53, 50
11, 56160, Note_on_c, 13, 53, 0
11, 56400, Note_on_c, 13, 53, 50
11, 56640, Note_on_c, 13, 53, 0
11, 56880, Note_on_c, 13, 53, 50
11, 57120, Note_on_c, 13, 53, 0
11, 57360, Note_on_c, 13, 53, 127
11, 57480, Note_on_c, 13, 53, 0
11, 57660, Note_on_c, 13, 56, 127
11, 57710, Note_on_c, 13, 56, 0
11, 57720, Note_on_c, 13, 56, 127
11, 57770, Note_on_c, 13, 56, 0
11, 57780, Note_on_c, 13, 56, 127
11, 57830, Note_on_c, 13, 56, 0
11, 57840, Note_on_c, 13, 53, 127
11, 58130, Note_on_c, 13, 53, 0
11, 58140, Note_on_c, 13, 56, 127
11, 58190, Note_on_c, 13, 56, 0
11, 58200, Note_on_c, 13, 56, 127
11, 58250, Note_on_c, 13, 56, 0
11, 58260, Note_on_c, 13, 56, 127
11, 58310, Note_on_c, 13, 56, 0
11, 58320, Note_on_c, 13, 53, 127
11, 58610, Note_on_c, 13, 53, 0
11, 58620, Note_on_c, 13, 56, 127
11, 58670, Note_on_c, 13, 56, 0
11, 58680, Note_on_c, 13, 56, 127
11, 58730, Note_on_c, 13, 56, 0
11, 58740, Note_on_c, 13, 56, 127
11, 58790, Note_on_c, 13, 56, 0
11, 58800, Note_on_c, 13, 53, 127
11, 58850, Note_on_c, 13, 53, 0
11, 58860, Note_on_c, 13, 56, 127
11, 58910, Note_on_c, 13, 56, 0
11, 58920, Note_on_c, 13, 56, 127
11, 58970, Note_on_c, 13, 56, 0
11, 58980, Note_on_c, 13, 56, 127
11, 59030, Note_on_c, 13, 56, 0
11, 59040, Note_on_c, 13, 53, 127
11, 59090, Note_on_c, 13, 53, 0
11, 59100, Note_on_c, 13, 56, 127
11, 59150, Note_on_c, 13, 56, 0
11, 59160, Note_on_c, 13, 56, 127
11, 59210, Note_on_c, 13, 56, 0
11, 59220, Note_on_c, 13, 56, 127
11, 59270, Note_on_c, 13, 56, 0
11, 59280, Note_on_c, 13, 53, 127
11, 59330, Note_on_c, 13, 53, 0
11, 59340, Note_on_c, 13, 55, 127
11, 59390, Note_on_c, 13, 55, 0
11, 59400, Note_on_c, 13, 55, 127
11, 59450, Note_on_c, 13, 55, 0
11, 59460, Note_on_c, 13, 55, 127
11, 59510, Note_on_c, 13, 55, 0
11, 59520, Note_on_c, 13, 51, 127
11, 60240, Note_on_c, 13, 51, 0
11, 60300, Note_on_c, 13, 53, 127
11, 60350, Note_on_c, 13, 53, 0
11, 60360, Note_on_c, 13, 53, 127
11, 60410, Note_on_c, 13, 53, 0
11, 60420, Note_on_c, 13, 53, 127
11, 60470, Note_on_c, 13, 53, 0
11, 60480, Note_on_c, 13, 50, 127
11, 61440, Note_on_c, 13, 50, 0
11, 61560, Program_c, 13, 45
11, 61680, Note_on_c, 13, 60, 50
11, 61800, Note_on_c, 13, 60, 0
11, 62160, Note_on_c, 13, 60, 50
11, 62280, Note_on_c, 13, 60, 0
11, 62640, Note_on_c, 13, 59, 50
11, 62760, Note_on_c, 13, 59, 0
11, 63120, Note_on_c, 13, 59, 50
11, 63240, Note_on_c, 13, 59, 0
11, 63600, Note_on_c, 13, 60, 50
11, 63720, Note_on_c, 13, 60, 0
11, 63840, Note_on_c, 13, 59, 50
11, 63960, Note_on_c, 13, 59, 0
11, 64080, Program_c, 13, 48
11, 64140, Note_on_c, 13, 51, 50
11, 64190, Note_on_c, 13, 51, 0
11, 64200, Note_on_c, 13, 51, 50
11, 64250, Note_on_c, 13, 51, 0
11, 64260, Note_on_c, 13, 53, 50
11, 64310, Note_on_c, 13, 53, 0
11, 64320, Note_on_c, 13, 55, 50
11, 64370, Note_on_c, 13, 55, 0
11, 64380, Note_on_c, 13, 55, 50
11, 64430, Note_on_c, 13, 55, 0
11, 64440, Note_on_c, 13, 57, 50
11, 64490, Note_on_c, 13, 57, 0
11, 64500, Note_on_c, 13, 59, 50
11, 64550, Note_on_c, 13, 59, 0
11, 64560, Note_on_c, 13, 60, 50
11, 64680, Note_on_c, 13, 60, 0
11, 64800, Note_on_c, 13, 56, 50
11, 64920, Note_on_c, 13, 56, 0
11, 65040, Note_on_c, 13, 55, 50
11, 65160, Note_on_c, 13, 55, 0
11, 66780, Note_on_c, 13, 56, 50
11, 66830, Note_on_c, 13, 56, 0
11, 66840, Note_on_c, 13, 56, 50
11, 66890, Note_on_c, 13, 56, 0
11, 66900, Note_on_c, 13, 56, 50
11, 66950, Note_on_c, 13, 56, 0
11, 66960, Note_on_c, 13, 55, 50
11, 67190, Note_on_c, 13, 55, 0
11, 67200, Note_on_c, 13, 55, 50
11, 67250, Note_on_c, 13, 55, 0
11, 67260, Note_on_c, 13, 56, 53
11, 67310, Note_on_c, 13, 56, 0
11, 67320, Note_on_c, 13, 56, 56
11, 67370, Note_on_c, 13, 56, 0
11, 67380, Note_on_c, 13, 56, 59
11, 67430, Note_on_c, 13, 56, 0
11, 67440, Note_on_c, 13, 53, 62
11, 67490, Note_on_c, 13, 53, 0
11, 67500, Note_on_c, 13, 50, 65
11, 67550, Note_on_c, 13, 50, 0
11, 67560, Note_on_c, 13, 50, 68
11, 67610, Note_on_c, 13, 50, 0
11, 67620, Note_on_c, 13, 50, 71
11, 67670, Note_on_c, 13, 50, 0
11, 67680, Note_on_c, 13, 59, 75
11, 67730, Note_on_c, 13, 59, 0
11, 67740, Note_on_c, 13, 56, 78
11, 67790, Note_on_c, 13, 56, 0
11, 67800, Note_on_c, 13, 56, 81
11, 67850, Note_on_c, 13, 56, 0
11, 67860, Note_on_c, 13, 56, 84
11, 67910, Note_on_c, 13, 56, 0
11, 67920, Note_on_c, 13, 55, 87
11, 67970, Note_on_c, 13, 55, 0
11, 67980, Note_on_c, 13, 55, 90
11, 68030, Note_on_c, 13, 55, 0
11, 68040, Note_on_c, 13, 55, 93
11, 68090, Note_on_c, 13, 55, 0
11, 68100, Note_on_c, 13, 55, 96
11, 68150, Note_on_c, 13, 55, 0
11, 68160, Note_on_c, 13, 55, 100
11, 68210, Note_on_c, 13, 55, 0
11, 68220, Note_on_c, 13, 60, 100
11, 68270, Note_on_c, 13, 60, 0
11, 68280, Note_on_c, 13, 63, 100
11, 68330, Note_on_c, 13, 63, 0
11, 68340, Note_on_c, 13, 63, 100
11, 68390, Note_on_c, 13, 63, 0
11, 68400, Note_on_c, 13, 62, 100
11, 68690, Note_on_c, 13, 62, 0
11, 68700, Note_on_c, 13, 65, 100
11, 68750, Note_on_c, 13, 65, 0
11, 68760, Note_on_c, 13, 65, 100
11, 68810, Note_on_c, 13, 65, 0
11, 68820, Note_on_c, 13, 62, 100
11, 68870, Note_on_c, 13, 62, 0
11, 68880, Note_on_c, 13, 63, 100
11, 69170, Note_on_c, 13, 63, 0
11, 69180, Note_on_c, 13, 63, 100
11, 69230, Note_on_c, 13, 63, 0
11, 69240, Note_on_c, 13, 63, 100
11, 69290, Note_on_c, 13, 63, 0
11, 69300, Note_on_c, 13, 60, 100
11, 69350, Note_on_c, 13, 60, 0
11, 69360, Note_on_c, 13, 65, 100
11, 69410, Note_on_c, 13, 65, 0
11, 69420, Note_on_c, 13, 65, 100
11, 69470, Note_on_c, 13, 65, 0
11, 69480, Note_on_c, 13, 65, 100
11, 69530, Note_on_c, 13, 65, 0
11, 69540, Note_on_c, 13, 59, 100
11, 69590, Note_on_c, 13, 59, 0
11, 69600, Note_on_c, 13, 67, 100
11, 69650, Note_on_c, 13, 67, 0
11, 69660, Note_on_c, 13, 67, 100
11, 69710, Note_on_c, 13, 67, 0
11, 69720, Note_on_c, 13, 67, 100
11, 69770, Note_on_c, 13, 67, 0
11, 69780, Note_on_c, 13, 58, 100
11, 69830, Note_on_c, 13, 58, 0
11, 69840, Note_on_c, 13, 68, 100
11, 69890, Note_on_c, 13, 68, 0
11, 69900, Note_on_c, 13, 56, 100
11, 69950, Note_on_c, 13, 56, 0
11, 69960, Note_on_c, 13, 56, 100
11, 70010, Note_on_c, 13, 56, 0
11, 70020, Note_on_c, 13, 53, 100
11, 70070, Note_on_c, 13, 53, 0
11, 70080, Note_on_c, 13, 58, 100
11, 70130, Note_on_c, 13, 58, 0
11, 70140, Note_on_c, 13, 58, 100
11, 70190, Note_on_c, 13, 58, 0
11, 70200, Note_on_c, 13, 58, 100
11, 70250, Note_on_c, 13, 58, 0
11, 70260, Note_on_c, 13, 55, 100
11, 70310, Note_on_c, 13, 55, 0
11, 70320, Note_on_c, 13, 60, 100
11, 70370, Note_on_c, 13, 60, 0
11, 70380, Note_on_c, 13, 60, 100
11, 70430, Note_on_c, 13, 60, 0
11, 70440, Note_on_c, 13, 60, 100
11, 70490, Note_on_c, 13, 60, 0
11, 70500, Note_on_c, 13, 56, 100
11, 70550, Note_on_c, 13, 56, 0
11, 70560, Note_on_c, 13, 65, 100
11, 70610, Note_on_c, 13, 65, 0
11, 70620, Note_on_c, 13, 65, 100
11, 70670, Note_on_c, 13, 65, 0
11, 70680, Note_on_c, 13, 65, 100
11, 70730, Note_on_c, 13, 65, 0
11, 70740, Note_on_c, 13, 62, 100
11, 70790, Note_on_c, 13, 62, 0
11, 70800, Note_on_c, 13, 63, 100
11, 70850, Note_on_c, 13, 63, 0
11, 70860, Note_on_c, 13, 48, 100
11, 70860, Note_on_c, 13, 51, 100
11, 70910, Note_on_c, 13, 51, 0
11, 70910, Note_on_c, 13, 48, 0
11, 70920, Note_on_c, 13, 48, 100
11, 70920, Note_on_c, 13, 51, 100
11, 70970, Note_on_c, 13, 51, 0
11, 70970, Note_on_c, 13, 48, 0
11, 70980, Note_on_c, 13, 48, 100
11, 70980, Note_on_c, 13, 51, 100
11, 71030, Note_on_c, 13, 51, 0
11, 71030, Note_on_c, 13, 48, 0
11, 71040, Note_on_c, 13, 51, 100
11, 71040, Note_on_c, 13, 48, 100
11, 71090, Note_on_c, 13, 48, 0
11, 71090, Note_on_c, 13, 51, 0
11, 71100, Note_on_c, 13, 51, 100
11, 71100, Note_on_c, 13, 48, 100
11, 71150, Note_on_c, 13, 48, 0
11, 71150, Note_on_c, 13, 51, 0
11, 71160, Note_on_c, 13, 48, 100
11, 71160, Note_on_c, 13, 51, 100
11, 71210, Note_on_c, 13, 51, 0
11, 71210, Note_on_c, 13, 48, 0
11, 71220, Note_on_c, 13, 51, 100
11, 71220, Note_on_c, 13, 48, 100
11, 71270, Note_on_c, 13, 48, 0
11, 71270, Note_on_c, 13, 51, 0
11, 71280, Note_on_c, 13, 51, 100
11, 71280, Note_on_c, 13, 48, 100
11, 71330, Note_on_c, 13, 48, 0
11, 71330, Note_on_c, 13, 51, 0
11, 71340, Note_on_c, 13, 48, 100
11, 71340, Note_on_c, 13, 51, 100
11, 71390, Note_on_c, 13, 51, 0
11, 71390, Note_on_c, 13, 48, 0
11, 71400, Note_on_c, 13, 51, 100
11, 71400, Note_on_c, 13, 48, 100
11, 71450, Note_on_c, 13, 48, 0
11, 71450, Note_on_c, 13, 51, 0
11, 71460, Note_on_c, 13, 51, 100
11, 71460, Note_on_c, 13, 48, 100
11, 71510, Note_on_c, 13, 48, 0
11, 71510, Note_on_c, 13, 51, 0
11, 71520, Note_on_c, 13, 48, 100
11, 71520, Note_on_c, 13, 51, 100
11, 71570, Note_on_c, 13, 51, 0
11, 71570, Note_on_c, 13, 48, 0
11, 71580, Note_on_c, 13, 48, 100
11, 71580, Note_on_c, 13, 51, 100
11, 71630, Note_on_c, 13, 51, 0
11, 71630, Note_on_c, 13, 48, 0
11, 71640, Note_on_c, 13, 48, 100
11, 71640, Note_on_c, 13, 51, 100
11, 71690, Note_on_c, 13, 51, 0
11, 71690, Note_on_c, 13, 48, 0
11, 71700, Note_on_c, 13, 51, 100
11, 71700, Note_on_c, 13, 48, 100
11, 71750, Note_on_c, 13, 48, 0
11, 71750, Note_on_c, 13, 51, 0
11, 71760, Note_on_c, 13, 50, 100
11, 71760, Note_on_c, 13, 53, 100
11, 71810, Note_on_c, 13, 53, 0
11, 71810, Note_on_c, 13, 50, 0
11, 71820, Note_on_c, 13, 50, 100
11, 71820, Note_on_c, 13, 53, 100
11, 71870, Note_on_c, 13, 53, 0
11, 71870, Note_on_c, 13, 50, 0
11, 71880, Note_on_c, 13, 53, 100
11, 71880, Note_on_c, 13, 50, 100
11, 71930, Note_on_c, 13, 50, 0
11, 71930, Note_on_c, 13, 53, 0
11, 71940, Note_on_c, 13, 50, 100
11, 71940, Note_on_c, 13, 53, 100
11, 71990, Note_on_c, 13, 53, 0
11, 71990, Note_on_c, 13, 50, 0
11, 72000, Note_on_c, 13, 50, 100
11, 72000, Note_on_c, 13, 53, 100
11, 72050, Note_on_c, 13, 53, 0
11, 72050, Note_on_c, 13, 50, 0
11, 72060, Note_on_c, 13, 50, 100
11, 72060, Note_on_c, 13, 53, 100
11, 72110, Note_on_c, 13, 53, 0
11, 72110, Note_on_c, 13, 50, 0
11, 72120, Note_on_c, 13, 50, 100
11, 72120, Note_on_c, 13, 53, 100
11, 72170, Note_on_c, 13, 53, 0
11, 72170, Note_on_c, 13, 50, 0
11, 72180, Note_on_c, 13, 50, 100
11, 72180, Note_on_c, 13, 53, 100
11, 72230, Note_on_c, 13, 53, 0
11, 72230, Note_on_c, 13, 50, 0
11, 72240, Note_on_c, 13, 53, 100
11, 72240, Note_on_c, 13, 50, 100
11, 72290, Note_on_c, 13, 50, 0
11, 72290, Note_on_c, 13, 53, 0
11, 72300, Note_on_c, 13, 50, 100
11, 72300, Note_on_c, 13, 53, 100
11, 72350, Note_on_c, 13, 53, 0
11, 72350, Note_on_c, 13, 50, 0
11, 72360, Note_on_c, 13, 50, 100
11, 72360, Note_on_c, 13, 53, 100
11, 72410, Note_on_c, 13, 53, 0
11, 72410, Note_on_c, 13, 50, 0
11, 72420, Note_on_c, 13, 50, 100
11, 72420, Note_on_c, 13, 53, 100
11, 72470, Note_on_c, 13, 53, 0
11, 72470, Note_on_c, 13, 50, 0
11, 72480, Note_on_c, 13, 53, 100
11, 72480, Note_on_c, 13, 50, 100
11, 72530, Note_on_c, 13, 50, 0
11, 72530, Note_on_c, 13, 53, 0
11, 72540, Note_on_c, 13, 53, 100
11, 72540, Note_on_c, 13, 50, 100
11, 72590, Note_on_c, 13, 50, 0
11, 72590, Note_on_c, 13, 53, 0
11, 72600, Note_on_c, 13, 51, 100
11, 72600, Note_on_c, 13, 48, 100
11, 72650, Note_on_c, 13, 48, 0
11, 72650, Note_on_c, 13, 51, 0
11, 72660, Note_on_c, 13, 51, 100
11, 72660, Note_on_c, 13, 48, 100
11, 72710, Note_on_c, 13, 48, 0
11, 72710, Note_on_c, 13, 51, 0
11, 72720, Note_on_c, 13, 51, 127
11, 72720, Note_on_c, 13, 57, 127
11, 72770, Note_on_c, 13, 57, 0
11, 72770, Note_on_c, 13, 51, 0
11, 72780, Note_on_c, 13, 75, 127
11, 72830, Note_on_c, 13, 75, 0
11, 72840, Note_on_c, 13, 75, 127
11, 72890, Note_on_c, 13, 75, 0
11, 72900, Note_on_c, 13, 75, 127
11, 72950, Note_on_c, 13, 75, 0
11, 72960, Note_on_c, 13, 72, 127
11, 73010, Note_on_c, 13, 72, 0
11, 73020, Note_on_c, 13, 69, 127
11, 73070, Note_on_c, 13, 69, 0
11, 73080, Note_on_c, 13, 69, 127
11, 73130, Note_on_c, 13, 69, 0
11, 73140, Note_on_c, 13, 69, 127
11, 73190, Note_on_c, 13, 69, 0
11, 73200, Note_on_c, 13, 66, 127
11, 73250, Note_on_c, 13, 66, 0
11, 73260, Note_on_c, 13, 63, 127
11, 73310, Note_on_c, 13, 63, 0
11, 73320, Note_on_c, 13, 63, 127
11, 73370, Note_on_c, 13, 63, 0
11, 73380, Note_on_c, 13, 63, 127
11, 73430, Note_on_c, 13, 63, 0
11, 73440, Note_on_c, 13, 60, 127
11, 73490, Note_on_c, 13, 60, 0
11, 73500, Note_on_c, 13, 57, 127
11, 73550, Note_on_c, 13, 57, 0
11, 73560, Note_on_c, 13, 57, 127
11, 73610, Note_on_c, 13, 57, 0
11, 73620, Note_on_c, 13, 57, 127
11, 73670, Note_on_c, 13, 57, 0
11, 73680, Note_on_c, 13, 60, 127
11, 73800, Note_on_c, 13, 60, 0
11, 74160, Note_on_c, 13, 59, 127
11, 74160, Note_on_c, 13, 62, 127
11, 74280, Note_on_c, 13, 62, 0
11, 74280, Note_on_c, 13, 59, 0
11, 75360, Note_on_c, 13, 60, 50
11, 75600, Note_on_c, 13, 60, 0
11, 75600, Note_on_c, 13, 62, 50
11, 75830, Note_on_c, 13, 62, 0
11, 75840, Note_on_c, 13, 59, 50
11, 76080, Note_on_c, 13, 59, 0
11, 76080, Note_on_c, 13, 60, 50
11, 76320, Note_on_c, 13, 60, 0
11, 77280, Note_on_c, 13, 60, 50
11, 77520, Note_on_c, 13, 60, 0
11, 77520, Note_on_c, 13, 62, 50
11, 77750, Note_on_c, 13, 62, 0
11, 77760, Note_on_c, 13, 59, 50
11, 78000, Note_on_c, 13, 59, 0
11, 78000, Note_on_c, 13, 60, 50
11, 78240, Note_on_c, 13, 60, 0
11, 79200, Note_on_c, 13, 67, 50
11, 79440, Note_on_c, 13, 67, 0
11, 79440, Note_on_c, 13, 64, 50
11, 79670, Note_on_c, 13, 64, 0
11, 79680, Note_on_c, 13, 64, 50
11, 79920, Note_on_c, 13, 64, 0
11, 79920, Note_on_c, 13, 60, 50
11, 80150, Note_on_c, 13, 60, 0
11, 80160, Note_on_c, 13, 65, 50
11, 80400, Note_on_c, 13, 65, 0
11, 80400, Note_on_c, 13, 66, 50
11, 80630, Note_on_c, 13, 66, 0
11, 80640, Note_on_c, 13, 66, 50
11, 80880, Note_on_c, 13, 66, 0
11, 80880, Note_on_c, 13, 62, 50
11, 81120, Note_on_c, 13, 62, 0
11, 81420, Note_on_c, 13, 56, 56
11, 81470, Note_on_c, 13, 56, 0
11, 81480, Note_on_c, 13, 56, 57
11, 81530, Note_on_c, 13, 56, 0
11, 81540, Note_on_c, 13, 56, 58
11, 81590, Note_on_c, 13, 56, 0
11, 81600, Note_on_c, 13, 56, 60
11, 81720, Note_on_c, 13, 56, 0
11, 81900, Note_on_c, 13, 59, 66
11, 81950, Note_on_c, 13, 59, 0
11, 81960, Note_on_c, 13, 59, 67
11, 82010, Note_on_c, 13, 59, 0
11, 82020, Note_on_c, 13, 59, 69
11, 82070, Note_on_c, 13, 59, 0
11, 82080, Note_on_c, 13, 59, 70
11, 82200, Note_on_c, 13, 59, 0
11, 82560, Note_on_c, 13, 53, 80
11, 82680, Note_on_c, 13, 53, 0
11, 82680, Note_on_c, 13, 55, 83
11, 82790, Note_on_c, 13, 55, 0
11, 82800, Note_on_c, 13, 56, 85
11, 82920, Note_on_c, 13, 56, 0
11, 82920, Note_on_c, 13, 55, 88
11, 83040, Note_on_c, 13, 55, 0
11, 83040, Note_on_c, 13, 54, 91
11, 83160, Note_on_c, 13, 54, 0
11, 83160, Note_on_c, 13, 55, 93
11, 83270, Note_on_c, 13, 55, 0
11, 83280, Note_on_c, 13, 57, 96
11, 83400, Note_on_c, 13, 57, 0
11, 83400, Note_on_c, 13, 55, 98
11, 83520, Note_on_c, 13, 55, 0
11, 83520, Note_on_c, 13, 54, 101
11, 83640, Note_on_c, 13, 54, 0
11, 83640, Note_on_c, 13, 55, 103
11, 83750, Note_on_c, 13, 55, 0
11, 83760, Note_on_c, 13, 57, 106
11, 83880, Note_on_c, 13, 57, 0
11, 83880, Note_on_c, 13, 55, 109
11, 84000, Note_on_c, 13, 55, 0
11, 84000, Note_on_c, 13, 54, 111
11, 84120, Note_on_c, 13, 54, 0
11, 84120, Note_on_c, 13, 55, 114
11, 84240, Note_on_c, 13, 55, 0
11, 84240, Note_on_c, 13, 54, 116
11, 84360, Note_on_c, 13, 54, 0
11, 84360, Note_on_c, 13, 55, 119
11, 84480, Note_on_c, 13, 55, 0
11, 84480, Note_on_c, 13, 54, 121
11, 84600, Note_on_c, 13, 54, 0
11, 84600, Note_on_c, 13, 55, 124
11, 84710, Note_on_c, 13, 55, 0
11, 84720, Note_on_c, 13, 55, 127
11, 84720, Note_on_c, 13, 65, 127
11, 85070, Note_on_c, 13, 65, 0
11, 85070, Note_on_c, 13, 55, 0
11, 85080, Note_on_c, 13, 50, 127
11, 85130, Note_on_c, 13, 50, 0
11, 85140, Note_on_c, 13, 50, 127
11, 85190, Note_on_c, 13, 50, 0
11, 85200, Note_on_c, 13, 52, 127
11, 85250, Note_on_c, 13, 52, 0
11, 85260, Note_on_c, 13, 52, 127
11, 85310, Note_on_c, 13, 52, 0
11, 85320, Note_on_c, 13, 55, 127
11, 85370, Note_on_c, 13, 55, 0
11, 85380, Note_on_c, 13, 55, 127
11, 85430, Note_on_c, 13, 55, 0
11, 85440, Note_on_c, 13, 53, 127
11, 85490, Note_on_c, 13, 53, 0
11, 85500, Note_on_c, 13, 53, 127
11, 85550, Note_on_c, 13, 53, 0
11, 85560, Note_on_c, 13, 55, 127
11, 85610, Note_on_c, 13, 55, 0
11, 85620, Note_on_c, 13, 55, 127
11, 85670, Note_on_c, 13, 55, 0
11, 85680, Note_on_c, 13, 52, 127
11, 85730, Note_on_c, 13, 52, 0
11, 85740, Note_on_c, 13, 52, 127
11, 85790, Note_on_c, 13, 52, 0
11, 85800, Note_on_c, 13, 55, 127
11, 85850, Note_on_c, 13, 55, 0
11, 85860, Note_on_c, 13, 55, 127
11, 85910, Note_on_c, 13, 55, 0
11, 85920, Note_on_c, 13, 50, 127
11, 85970, Note_on_c, 13, 50, 0
11, 85980, Note_on_c, 13, 50, 127
11, 86030, Note_on_c, 13, 50, 0
11, 86040, Note_on_c, 13, 57, 127
11, 86090, Note_on_c, 13, 57, 0
11, 86100, Note_on_c, 13, 57, 127
11, 86150, Note_on_c, 13, 57, 0
11, 86160, Note_on_c, 13, 52, 127
11, 86210, Note_on_c, 13, 52, 0
11, 86220, Note_on_c, 13, 52, 127
11, 86270, Note_on_c, 13, 52, 0
11, 86280, Note_on_c, 13, 55, 127
11, 86330, Note_on_c, 13, 55, 0
11, 86340, Note_on_c, 13, 55, 127
11, 86390, Note_on_c, 13, 55, 0
11, 86400, Note_on_c, 13, 50, 127
11, 86520, Note_on_c, 13, 50, 0
11, 86640, Note_on_c, 13, 50, 127
11, 86690, Note_on_c, 13, 50, 0
11, 86700, Note_on_c, 13, 50, 127
11, 86750, Note_on_c, 13, 50, 0
11, 86760, Note_on_c, 13, 55, 127
11, 86810, Note_on_c, 13, 55, 0
11, 86820, Note_on_c, 13, 55, 127
11, 86870, Note_on_c, 13, 55, 0
11, 86880, Note_on_c, 13, 50, 127
11, 86930, Note_on_c, 13, 50, 0
11, 86940, Note_on_c, 13, 50, 127
11, 86990, Note_on_c, 13, 50, 0
11, 87000, Note_on_c, 13, 55, 127
11, 87050, Note_on_c, 13, 55, 0
11, 87060, Note_on_c, 13, 55, 127
11, 87110, Note_on_c, 13, 55, 0
11, 87120, Note_on_c, 13, 52, 127
11, 87170, Note_on_c, 13, 52, 0
11, 87180, Note_on_c, 13, 52, 127
11, 87230, Note_on_c, 13, 52, 0
11, 87240, Note_on_c, 13, 55, 127
11, 87290, Note_on_c, 13, 55, 0
11, 87300, Note_on_c, 13, 55, 127
11, 87350, Note_on_c, 13, 55, 0
11, 87360, Note_on_c, 13, 53, 127
11, 87410, Note_on_c, 13, 53, 0
11, 87420, Note_on_c, 13, 53, 127
11, 87470, Note_on_c, 13, 53, 0
11, 87480, Note_on_c, 13, 59, 127
11, 87530, Note_on_c, 13, 59, 0
11, 87540, Note_on_c, 13, 59, 127
11, 87590, Note_on_c, 13, 59, 0
11, 87600, Note_on_c, 13, 62, 127
11, 87660, Note_on_c, 13, 62, 0
11, 87660, Note_on_c, 13, 60, 127
11, 87710, Note_on_c, 13, 60, 0
11, 87720, Note_on_c, 13, 55, 127
11, 87765, Note_on_c, 13, 55, 0
11, 87780, Note_on_c, 13, 52, 127
11, 87825, Note_on_c, 13, 52, 0
11, 87840, Note_on_c, 13, 59, 127
11, 87900, Note_on_c, 13, 59, 0
11, 87900, Note_on_c, 13, 57, 127
11, 87950, Note_on_c, 13, 57, 0
11, 87960, Note_on_c, 13, 53, 127
11, 88005, Note_on_c, 13, 53, 0
11, 88020, Note_on_c, 13, 50, 127
11, 88065, Note_on_c, 13, 50, 0
11, 88080, Note_on_c, 13, 57, 127
11, 88140, Note_on_c, 13, 57, 0
11, 88140, Note_on_c, 13, 55, 127
11, 88190, Note_on_c, 13, 55, 0
11, 88200, Note_on_c, 13, 52, 127
11, 88245, Note_on_c, 13, 52, 0
11, 88260, Note_on_c, 13, 48, 127
11, 88305, Note_on_c, 13, 48, 0
11, 88320, Note_on_c, 13, 59, 127
11, 88320, Note_on_c, 13, 50, 127
11, 88370, Note_on_c, 13, 50, 0
11, 88370, Note_on_c, 13, 59, 0
11, 88380, Note_on_c, 13, 59, 127
11, 88380, Note_on_c, 13, 50, 127
11, 88430, Note_on_c, 13, 50, 0
11, 88430, Note_on_c, 13, 59, 0
11, 88440, Note_on_c, 13, 53, 127
11, 88440, Note_on_c, 13, 62, 127
11, 88490, Note_on_c, 13, 62, 0
11, 88490, Note_on_c, 13, 53, 0
11, 88500, Note_on_c, 13, 53, 127
11, 88500, Note_on_c, 13, 62, 127
11, 88550, Note_on_c, 13, 62, 0
11, 88550, Note_on_c, 13, 53, 0
11, 88560, Note_on_c, 13, 55, 127
11, 89040, Note_on_c, 13, 55, 0
11, 89040, Note_on_c, 13, 55, 127
11, 89330, Note_on_c, 13, 55, 0
11, 89340, Note_on_c, 13, 55, 127
11, 89390, Note_on_c, 13, 55, 0
11, 89400, Note_on_c, 13, 55, 127
11, 89450, Note_on_c, 13, 55, 0
11, 89460, Note_on_c, 13, 55, 127
11, 89510, Note_on_c, 13, 55, 0
11, 89520, Note_on_c, 13, 55, 127
11, 90000, Note_on_c, 13, 55, 0
11, 90000, Note_on_c, 13, 55, 127
11, 90290, Note_on_c, 13, 55, 0
11, 90300, Note_on_c, 13, 67, 127
11, 90350, Note_on_c, 13, 67, 0
11, 90360, Note_on_c, 13, 67, 127
11, 90410, Note_on_c, 13, 67, 0
11, 90420, Note_on_c, 13, 67, 127
11, 90470, Note_on_c, 13, 67, 0
11, 90480, Note_on_c, 13, 67, 127
11, 90600, Note_on_c, 13, 67, 0
11, 90780, Note_on_c, 13, 67, 127
11, 90830, Note_on_c, 13, 67, 0
11, 90840, Note_on_c, 13, 67, 127
11, 90890, Note_on_c, 13, 67, 0
11, 90900, Note_on_c, 13, 67, 127
11, 90950, Note_on_c, 13, 67, 0
11, 90960, Note_on_c, 13, 67, 127
11, 91080, Note_on_c, 13, 67, 0
11, 91260, Note_on_c, 13, 55, 127
11, 91310, Note_on_c, 13, 55, 0
11, 91320, Note_on_c, 13, 55, 127
11, 91370, Note_on_c, 13, 55, 0
11, 91380, Note_on_c, 13, 55, 127
11, 91430, Note_on_c, 13, 55, 0
11, 91440, Note_on_c, 13, 67, 127
11, 91500, Note_on_c, 13, 67, 0
11, 91500, Note_on_c, 13, 67, 127
11, 91680, Note_on_c, 13, 67, 0
11, 91680, Note_on_c, 13, 67, 127
11, 91730, Note_on_c, 13, 67, 0
11, 91740, Note_on_c, 13, 67, 127
11, 91790, Note_on_c, 13, 67, 0
11, 91800, Note_on_c, 13, 67, 127
11, 91850, Note_on_c, 13, 67, 0
11, 91860, Note_on_c, 13, 67, 127
11, 91910, Note_on_c, 13, 67, 0
11, 91920, Note_on_c, 13, 65, 127
11, 91980, Note_on_c, 13, 65, 0
11, 91980, Note_on_c, 13, 65, 127
11, 92160, Note_on_c, 13, 65, 0
11, 92160, Note_on_c, 13, 65, 127
11, 92210, Note_on_c, 13, 65, 0
11, 92220, Note_on_c, 13, 65, 127
11, 92270, Note_on_c, 13, 65, 0
11, 92280, Note_on_c, 13, 65, 127
11, 92330, Note_on_c, 13, 65, 0
11, 92340, Note_on_c, 13, 65, 127
11, 92390, Note_on_c, 13, 65, 0
11, 92400, Note_on_c, 13, 60, 127
11, 92460, Note_on_c, 13, 60, 0
11, 92460, Note_on_c, 13, 60, 127
11, 92640, Note_on_c, 13, 60, 0
11, 92640, Note_on_c, 13, 60, 127
11, 92690, Note_on_c, 13, 60, 0
11, 92700, Note_on_c, 13, 60, 127
11, 92750, Note_on_c, 13, 60, 0
11, 92760, Note_on_c, 13, 60, 127
11, 92810, Note_on_c, 13, 60, 0
11, 92820, Note_on_c, 13, 60, 127
11, 92870, Note_on_c, 13, 60, 0
11, 92880, Note_on_c, 13, 56, 127
11, 92940, Note_on_c, 13, 56, 0
11, 92940, Note_on_c, 13, 56, 127
11, 93120, Note_on_c, 13, 56, 0
11, 93120, Note_on_c, 13, 56, 127
11, 93170, Note_on_c, 13, 56, 0
11, 93180, Note_on_c, 13, 56, 127
11, 93230, Note_on_c, 13, 56, 0
11, 93240, Note_on_c, 13, 56, 127
11, 93290, Note_on_c, 13, 56, 0
11, 93300, Note_on_c, 13, 56, 127
11, 93350, Note_on_c, 13, 56, 0
11, 93360, Note_on_c, 13, 56, 127
11, 93410, Note_on_c, 13, 56, 0
11, 93420, Note_on_c, 13, 68, 127
11, 93470, Note_on_c, 13, 68, 0
11, 93480, Note_on_c, 13, 68, 127
11, 93530, Note_on_c, 13, 68, 0
11, 93540, Note_on_c, 13, 68, 127
11, 93590, Note_on_c, 13, 68, 0
11, 93600, Note_on_c, 13, 68, 127
11, 93650, Note_on_c, 13, 68, 0
11, 93660, Note_on_c, 13, 68, 127
11, 93710, Note_on_c, 13, 68, 0
11, 93720, Note_on_c, 13, 68, 127
11, 93770, Note_on_c, 13, 68, 0
11, 93780, Note_on_c, 13, 68, 127
11, 93830, Note_on_c, 13, 68, 0
11, 93840, Note_on_c, 13, 68, 127
11, 93890, Note_on_c, 13, 68, 0
11, 93900, Note_on_c, 13, 68, 127
11, 93950, Note_on_c, 13, 68, 0
11, 93960, Note_on_c, 13, 68, 127
11, 94010, Note_on_c, 13, 68, 0
11, 94020, Note_on_c, 13, 68, 127
11, 94070, Note_on_c, 13, 68, 0
11, 94080, Note_on_c, 13, 68, 127
11, 94130, Note_on_c, 13, 68, 0
11, 94140, Note_on_c, 13, 68, 127
11, 94190, Note_on_c, 13, 68, 0
11, 94200, Note_on_c, 13, 68, 127
11, 94250, Note_on_c, 13, 68, 0
11, 94260, Note_on_c, 13, 68, 127
11, 94310, Note_on_c, 13, 68, 0
11, 94320, Note_on_c, 13, 68, 127
11, 94440, Note_on_c, 13, 68, 0
11, 95340, Note_on_c, 13, 57, 127
11, 95390, Note_on_c, 13, 57, 0
11, 95400, Note_on_c, 13, 57, 127
11, 95450, Note_on_c, 13, 57, 0
11, 95460, Note_on_c, 13, 57, 127
11, 95510, Note_on_c, 13, 57, 0
11, 95520, Note_on_c, 13, 57, 127
11, 95570, Note_on_c, 13, 57, 0
11, 95580, Note_on_c, 13, 69, 127
11, 95630, Note_on_c, 13, 69, 0
11, 95640, Note_on_c, 13, 69, 127
11, 95690, Note_on_c, 13, 69, 0
11, 95700, Note_on_c, 13, 69, 127
11, 95750, Note_on_c, 13, 69, 0
11, 95760, Note_on_c, 13, 69, 127
11, 95810, Note_on_c, 13, 69, 0
11, 95820, Note_on_c, 13, 69, 127
11, 95870, Note_on_c, 13, 69, 0
11, 95880, Note_on_c, 13, 69, 127
11, 95930, Note_on_c, 13, 69, 0
11, 95940, Note_on_c, 13, 69, 127
11, 95990, Note_on_c, 13, 69, 0
11, 96000, Note_on_c, 13, 69, 127
11, 96050, Note_on_c, 13, 69, 0
11, 96060, Note_on_c, 13, 69, 127
11, 96110, Note_on_c, 13, 69, 0
11, 96120, Note_on_c, 13, 69, 127
11, 96170, Note_on_c, 13, 69, 0
11, 96180, Note_on_c, 13, 69, 127
11, 96230, Note_on_c, 13, 69, 0
11, 96240, Note_on_c, 13, 69, 127
11, 96290, Note_on_c, 13, 69, 0
11, 96300, Note_on_c, 13, 69, 127
11, 96350, Note_on_c, 13, 69, 0
11, 96360, Note_on_c, 13, 69, 127
11, 96410, Note_on_c, 13, 69, 0
11, 96420, Note_on_c, 13, 69, 127
11, 96470, Note_on_c, 13, 69, 0
11, 96480, Note_on_c, 13, 69, 127
11, 96600, Note_on_c, 13, 69, 0
11, 97260, Note_on_c, 13, 67, 100
11, 97310, Note_on_c, 13, 67, 0
11, 97320, Note_on_c, 13, 67, 100
11, 97370, Note_on_c, 13, 67, 0
11, 97380, Note_on_c, 13, 67, 100
11, 97430, Note_on_c, 13, 67, 0
11, 97440, Note_on_c, 13, 63, 100
11, 97670, Note_on_c, 13, 63, 0
11, 97680, Note_on_c, 13, 65, 100
11, 97910, Note_on_c, 13, 65, 0
11, 97920, Note_on_c, 13, 62, 100
11, 98210, Note_on_c, 13, 62, 0
11, 98220, Note_on_c, 13, 67, 100
11, 98270, Note_on_c, 13, 67, 0
11, 98280, Note_on_c, 13, 67, 100
11, 98330, Note_on_c, 13, 67, 0
11, 98340, Note_on_c, 13, 67, 100
11, 98390, Note_on_c, 13, 67, 0
11, 98400, Note_on_c, 13, 63, 100
11, 98630, Note_on_c, 13, 63, 0
11, 98640, Note_on_c, 13, 65, 100
11, 98870, Note_on_c, 13, 65, 0
11, 98880, Note_on_c, 13, 62, 100
11, 99170, Note_on_c, 13, 62, 0
11, 99180, Note_on_c, 13, 67, 100
11, 99230, Note_on_c, 13, 67, 0
11, 99240, Note_on_c, 13, 67, 100
11, 99290, Note_on_c, 13, 67, 0
11, 99300, Note_on_c, 13, 67, 100
11, 99350, Note_on_c, 13, 67, 0
11, 99360, Note_on_c, 13, 63, 100
11, 99470, Note_on_c, 13, 63, 0
11, 99480, Note_on_c, 13, 65, 100
11, 99590, Note_on_c, 13, 65, 0
11, 99600, Note_on_c, 13, 62, 100
11, 99710, Note_on_c, 13, 62, 0
11, 99720, Note_on_c, 13, 63, 100
11, 99830, Note_on_c, 13, 63, 0
11, 99840, Note_on_c, 13, 60, 100
11, 99950, Note_on_c, 13, 60, 0
11, 99960, Note_on_c, 13, 62, 100
11, 100070, Note_on_c, 13, 62, 0
11, 100080, Note_on_c, 13, 58, 100
11, 100190, Note_on_c, 13, 58, 0
11, 100200, Note_on_c, 13, 60, 100
11, 100310, Note_on_c, 13, 60, 0
11, 100320, Note_on_c, 13, 56, 100
11, 100430, Note_on_c, 13, 56, 0
11, 100440, Note_on_c, 13, 58, 100
11, 100550, Note_on_c, 13, 58, 0
11, 100560, Note_on_c, 13, 55, 100
11, 100670, Note_on_c, 13, 55, 0
11, 100680, Note_on_c, 13, 56, 100
11, 100790, Note_on_c, 13, 56, 0
11, 100800, Note_on_c, 13, 53, 100
11, 100910, Note_on_c, 13, 53, 0
11, 100920, Note_on_c, 13, 55, 100
11, 101030, Note_on_c, 13, 55, 0
11, 101040, Note_on_c, 13, 51, 100
11, 101150, Note_on_c, 13, 51, 0
11, 101160, Note_on_c, 13, 53, 100
11, 101270, Note_on_c, 13, 53, 0
11, 101280, Note_on_c, 13, 50, 100
11, 101390, Note_on_c, 13, 50, 0
11, 101400, Note_on_c, 13, 60, 100
11, 101510, Note_on_c, 13, 60, 0
11, 101520, Note_on_c, 13, 59, 100
11, 101630, Note_on_c, 13, 59, 0
11, 101640, Note_on_c, 13, 60, 100
11, 101750, Note_on_c, 13, 60, 0
11, 101760, Note_on_c, 13, 62, 100
11, 101870, Note_on_c, 13, 62, 0
11, 101880, Note_on_c, 13, 60, 100
11, 101990, Note_on_c, 13, 60, 0
11, 102000, Note_on_c, 13, 62, 100
11, 102110, Note_on_c, 13, 62, 0
11, 102120, Note_on_c, 13, 64, 102
11, 102230, Note_on_c, 13, 64, 0
11, 102240, Note_on_c, 13, 65, 105
11, 102350, Note_on_c, 13, 65, 0
11, 102360, Note_on_c, 13, 64, 108
11, 102470, Note_on_c, 13, 64, 0
11, 102480, Note_on_c, 13, 65, 110
11, 102590, Note_on_c, 13, 65, 0
11, 102600, Note_on_c, 13, 67, 113
11, 102710, Note_on_c, 13, 67, 0
11, 102720, Note_on_c, 13, 68, 116
11, 102830, Note_on_c, 13, 68, 0
11, 102840, Note_on_c, 13, 55, 118
11, 102950, Note_on_c, 13, 55, 0
11, 102960, Note_on_c, 13, 57, 121
11, 103070, Note_on_c, 13, 57, 0
11, 103080, Note_on_c, 13, 59, 124
11, 103190, Note_on_c, 13, 59, 0
11, 103200, Note_on_c, 13, 60, 127
11, 103430, Note_on_c, 13, 60, 0
11, 103440, Note_on_c, 13, 62, 127
11, 103530, Note_on_c, 13, 62, 0
11, 103560, Note_on_c, 13, 63, 127
11, 103650, Note_on_c, 13, 63, 0
11, 103680, Note_on_c, 13, 65, 127
11, 103800, Note_on_c, 13, 65, 0
11, 103800, Note_on_c, 13, 62, 127
11, 103910, Note_on_c, 13, 62, 0
11, 103920, Note_on_c, 13, 63, 127
11, 104010, Note_on_c, 13, 63, 0
11, 104040, Note_on_c, 13, 65, 127
11, 104130, Note_on_c, 13, 65, 0
11, 104160, Note_on_c, 13, 67, 127
11, 104280, Note_on_c, 13, 67, 0
11, 104280, Note_on_c, 13, 63, 127
11, 104390, Note_on_c, 13, 63, 0
11, 104400, Note_on_c, 13, 65, 127
11, 104490, Note_on_c, 13, 65, 0
11, 104520, Note_on_c, 13, 67, 127
11, 104610, Note_on_c, 13, 67, 0
11, 104640, Note_on_c, 13, 68, 127
11, 104760, Note_on_c, 13, 68, 0
11, 104760, Note_on_c, 13, 65, 127
11, 104870, Note_on_c, 13, 65, 0
11, 104880, Note_on_c, 13, 67, 127
11, 104970, Note_on_c, 13, 67, 0
11, 105000, Note_on_c, 13, 69, 127
11, 105090, Note_on_c, 13, 69, 0
11, 105120, Note_on_c, 13, 71, 127
11, 105240, Note_on_c, 13, 71, 0
11, 105240, Note_on_c, 13, 67, 127
11, 105350, Note_on_c, 13, 67, 0
11, 105360, Note_on_c, 13, 69, 127
11, 105450, Note_on_c, 13, 69, 0
11, 105480, Note_on_c, 13, 71, 127
11, 105570, Note_on_c, 13, 71, 0
11, 105600, Note_on_c, 13, 72, 127
11, 105720, Note_on_c, 13, 72, 0
11, 105720, Note_on_c, 13, 67, 127
11, 105830, Note_on_c, 13, 67, 0
11, 105840, Note_on_c, 13, 68, 127
11, 105930, Note_on_c, 13, 68, 0
11, 105960, Note_on_c, 13, 63, 127
11, 106050, Note_on_c, 13, 63, 0
11, 106080, Note_on_c, 13, 65, 127
11, 106170, Note_on_c, 13, 65, 0
11, 106200, Note_on_c, 13, 62, 127
11, 106290, Note_on_c, 13, 62, 0
11, 106320, Note_on_c, 13, 63, 127
11, 106410, Note_on_c, 13, 63, 0
11, 106440, Note_on_c, 13, 65, 127
11, 106530, Note_on_c, 13, 65, 0
11, 106560, Note_on_c, 13, 67, 127
11, 106650, Note_on_c, 13, 67, 0
11, 106680, Note_on_c, 13, 66, 127
11, 106770, Note_on_c, 13, 66, 0
11, 106800, Note_on_c, 13, 67, 127
11, 106890, Note_on_c, 13, 67, 0
11, 106920, Note_on_c, 13, 55, 127
11, 107010, Note_on_c, 13, 55, 0
11, 107040, Note_on_c, 13, 60, 127
11, 107130, Note_on_c, 13, 60, 0
11, 107760, Note_on_c, 13, 51, 127
11, 107850, Note_on_c, 13, 51, 0
11, 107880, Note_on_c, 13, 53, 127
11, 107970, Note_on_c, 13, 53, 0
11, 108000, Note_on_c, 13, 55, 127
11, 108120, Note_on_c, 13, 55, 0
11, 108120, Note_on_c, 13, 51, 127
11, 108240, Note_on_c, 13, 51, 0
11, 108720, Note_on_c, 13, 55, 127
11, 108810, Note_on_c, 13, 55, 0
11, 108840, Note_on_c, 13, 57, 127
11, 108930, Note_on_c, 13, 57, 0
11, 108960, Note_on_c, 13, 59, 127
11, 109080, Note_on_c, 13, 59, 0
11, 109080, Note_on_c, 13, 55, 127
11, 109200, Note_on_c, 13, 55, 0
11, 109680, Note_on_c, 13, 55, 127
11, 109770, Note_on_c, 13, 55, 0
11, 109800, Note_on_c, 13, 57, 127
11, 109890, Note_on_c, 13, 57, 0
11, 109920, Note_on_c, 13, 59, 127
11, 110040, Note_on_c, 13, 59, 0
11, 110040, Note_on_c, 13, 55, 127
11, 110160, Note_on_c, 13, 55, 0
11, 111120, Note_on_c, 13, 56, 127
11, 111120, Note_on_c, 13, 53, 127
11, 111240, Note_on_c, 13, 53, 0
11, 111240, Note_on_c, 13, 56, 0
11, 111240, Note_on_c, 13, 55, 127
11, 111240, Note_on_c, 13, 51, 127
11, 111360, Note_on_c, 13, 51, 0
11, 111360, Note_on_c, 13, 55, 0
11, 111600, Note_on_c, 13, 53, 127
11, 111720, Note_on_c, 13, 53, 0
11, 111720, Note_on_c, 13, 60, 127
11, 111830, Note_on_c, 13, 60, 0
11, 111840, Note_on_c, 13, 67, 127
11, 111840, Note_on_c, 13, 55, 127
11, 111960, Note_on_c, 13, 55, 0
11, 111960, Note_on_c, 13, 67, 0
11, 112080, Note_on_c, 13, 55, 127
11, 112200, Note_on_c, 13, 55, 0
11, 112320, Note_on_c, 13, 60, 127
11, 112440, Note_on_c, 13, 60, 0
11, 112440, Note_on_c, 13, 58, 127
11, 112560, Note_on_c, 13, 58, 0
11, 112560, Note_on_c, 13, 56, 127
11, 112680, Note_on_c, 13, 56, 0
11, 112680, Note_on_c, 13, 55, 127
11, 112800, Note_on_c, 13, 55, 0
11, 112800, Note_on_c, 13, 53, 127
11, 112920, Note_on_c, 13, 53, 0
11, 112920, Note_on_c, 13, 51, 127
11, 113040, Note_on_c, 13, 51, 0
11, 113280, Note_on_c, 13, 56, 127
11, 113280, Note_on_c, 13, 53, 127
11, 113400, Note_on_c, 13, 53, 0
11, 113400, Note_on_c, 13, 56, 0
11, 113400, Note_on_c, 13, 55, 127
11, 113400, Note_on_c, 13, 51, 127
11, 113510, Note_on_c, 13, 51, 0
11, 113510, Note_on_c, 13, 55, 0
11, 113520, Note_on_c, 13, 65, 127
11, 113640, Note_on_c, 13, 65, 0
11, 113640, Note_on_c, 13, 60, 127
11, 113750, Note_on_c, 13, 60, 0
11, 113760, Note_on_c, 13, 67, 127
11, 113760, Note_on_c, 13, 55, 127
11, 113880, Note_on_c, 13, 55, 0
11, 113880, Note_on_c, 13, 67, 0
11, 114000, Note_on_c, 13, 67, 127
11, 114000, Note_on_c, 13, 55, 127
11, 114120, Note_on_c, 13, 55, 0
11, 114120, Note_on_c, 13, 67, 0
11, 114240, Note_on_c, 13, 60, 127
11, 114240, Note_on_c, 13, 48, 127
11, 114290, Note_on_c, 13, 48, 0
11, 114290, Note_on_c, 13, 60, 0
11, 114300, Note_on_c, 13, 55, 127
11, 114350, Note_on_c, 13, 55, 0
11, 114360, Note_on_c, 13, 55, 127
11, 114410, Note_on_c, 13, 55, 0
11, 114420, Note_on_c, 13, 55, 127
11, 114470, Note_on_c, 13, 55, 0
11, 114480, Note_on_c, 13, 55, 127
11, 114960, Note_on_c, 13, 55, 0
11, 114960, Note_on_c, 13, 55, 127
11, 115490, Note_on_c, 13, 55, 0
11, 115500, Note_on_c, 13, 55, 127
11, 115550, Note_on_c, 13, 55, 0
11, 115560, Note_on_c, 13, 55, 127
11, 115610, Note_on_c, 13, 55, 0
11, 115620, Note_on_c, 13, 55, 127
11, 115670, Note_on_c, 13, 55, 0
11, 115680, Note_on_c, 13, 60, 127
11, 115730, Note_on_c, 13, 60, 0
11, 115740, Note_on_c, 13, 55, 127
11, 115790, Note_on_c, 13, 55, 0
11, 115800, Note_on_c, 13, 55, 127
11, 115850, Note_on_c, 13, 55, 0
11, 115860, Note_on_c, 13, 55, 127
11, 115910, Note_on_c, 13, 55, 0
11, 115920, Note_on_c, 13, 55, 127
11, 115970, Note_on_c, 13, 55, 0
11, 115980, Note_on_c, 13, 55, 127
11, 116030, Note_on_c, 13, 55, 0
11, 116040, Note_on_c, 13, 55, 127
11, 116090, Note_on_c, 13, 55, 0
11, 116100, Note_on_c, 13, 55, 127
11, 116150, Note_on_c, 13, 55, 0
11, 116160, Note_on_c, 13, 55, 127
11, 116210, Note_on_c, 13, 55, 0
11, 116220, Note_on_c, 13, 55, 127
11, 116270, Note_on_c, 13, 55, 0
11, 116280, Note_on_c, 13, 55, 127
11, 116330, Note_on_c, 13, 55, 0
11, 116340, Note_on_c, 13, 55, 127
11, 116390, Note_on_c, 13, 55, 0
11, 116400, Note_on_c, 13, 55, 127
11, 116450, Note_on_c, 13, 55, 0
11, 116460, Note_on_c, 13, 55, 127
11, 116510, Note_on_c, 13, 55, 0
11, 116520, Note_on_c, 13, 55, 127
11, 116570, Note_on_c, 13, 55, 0
11, 116580, Note_on_c, 13, 55, 127
11, 116630, Note_on_c, 13, 55, 0
11, 116640, Note_on_c, 13, 51, 127
11, 117360, Note_on_c, 13, 51, 0
11, 117420, Note_on_c, 13, 53, 127
11, 117470, Note_on_c, 13, 53, 0
11, 117480, Note_on_c, 13, 53, 127
11, 117530, Note_on_c, 13, 53, 0
11, 117540, Note_on_c, 13, 53, 127
11, 117590, Note_on_c, 13, 53, 0
11, 117600, Note_on_c, 13, 50, 127
11, 118560, Note_on_c, 13, 50, 0
11, 120540, Note_on_c, 13, 55, 100
11, 120590, Note_on_c, 13, 55, 0
11, 120600, Note_on_c, 13, 55, 100
11, 120650, Note_on_c, 13, 55, 0
11, 120660, Note_on_c, 13, 55, 100
11, 120710, Note_on_c, 13, 55, 0
11, 120720, Note_on_c, 13, 60, 100
11, 120840, Note_on_c, 13, 60, 0
11, 121020, Note_on_c, 13, 55, 100
11, 121070, Note_on_c, 13, 55, 0
11, 121080, Note_on_c, 13, 55, 100
11, 121130, Note_on_c, 13, 55, 0
11, 121140, Note_on_c, 13, 55, 100
11, 121190, Note_on_c, 13, 55, 0
11, 121200, Note_on_c, 13, 60, 100
11, 121320, Note_on_c, 13, 60, 0
11, 121500, Note_on_c, 13, 55, 101
11, 121550, Note_on_c, 13, 55, 0
11, 121560, Note_on_c, 13, 55, 102
11, 121610, Note_on_c, 13, 55, 0
11, 121620, Note_on_c, 13, 55, 104
11, 121670, Note_on_c, 13, 55, 0
11, 121680, Note_on_c, 13, 60, 105
11, 121790, Note_on_c, 13, 60, 0
11, 121800, Note_on_c, 13, 55, 108
11, 121910, Note_on_c, 13, 55, 0
11, 121920, Note_on_c, 13, 60, 110
11, 122030, Note_on_c, 13, 60, 0
11, 122040, Note_on_c, 13, 55, 113
11, 122150, Note_on_c, 13, 55, 0
11, 122160, Note_on_c, 13, 60, 116
11, 122270, Note_on_c, 13, 60, 0
11, 122280, Note_on_c, 13, 67, 118
11, 122390, Note_on_c, 13, 67, 0
11, 122400, Note_on_c, 13, 72, 121
11, 122510, Note_on_c, 13, 72, 0
11, 122520, Note_on_c, 13, 67, 124
11, 122630, Note_on_c, 13, 67, 0
11, 122640, Note_on_c, 13, 72, 127
11, 122760, Note_on_c, 13, 72, 0
11, 122880, Note_on_c, 13, 55, 127
11, 123000, Note_on_c, 13, 55, 0
11, 123120, Note_on_c, 13, 48, 127
11, 123240, Note_on_c, 13, 48, 0
11, 123240, End_track
12, 0, Start_track
12, 0, MIDI_port, 0
12, 0, Title_t, "Celli"
12, 0, Program_c, 14, 48
12, 0, Control_c, 14, 7, 127
12, 0, Control_c, 14, 10, 105
12, 60, Note_on_c, 14, 43, 127
12, 110, Note_on_c, 14, 43, 0
12, 120, Note_on_c, 14, 43, 127
12, 170, Note_on_c, 14, 43, 0
12, 180, Note_on_c, 14, 43, 127
12, 230, Note_on_c, 14, 43, 0
12, 240, Note_on_c, 14, 39, 127
12, 480, Note_on_c, 14, 39, 0
12, 540, Note_on_c, 14, 41, 127
12, 590, Note_on_c, 14, 41, 0
12, 600, Note_on_c, 14, 41, 127
12, 650, Note_on_c, 14, 41, 0
12, 660, Note_on_c, 14, 41, 127
12, 710, Note_on_c, 14, 41, 0
12, 720, Note_on_c, 14, 38, 127
12, 1200, Note_on_c, 14, 38, 0
12, 1440, Note_on_c, 14, 60, 50
12, 2390, Note_on_c, 14, 60, 0
12, 2400, Note_on_c, 14, 59, 50
12, 3350, Note_on_c, 14, 59, 0
12, 3360, Note_on_c, 14, 60, 50
12, 3590, Note_on_c, 14, 60, 0
12, 3600, Note_on_c, 14, 59, 50
12, 3830, Note_on_c, 14, 59, 0
12, 3840, Note_on_c, 14, 60, 50
12, 4070, Note_on_c, 14, 60, 0
12, 4080, Note_on_c, 14, 59, 50
12, 4130, Note_on_c, 14, 59, 0
12, 4140, Note_on_c, 14, 59, 65
12, 4190, Note_on_c, 14, 59, 0
12, 4200, Note_on_c, 14, 59, 85
12, 4250, Note_on_c, 14, 59, 0
12, 4260, Note_on_c, 14, 59, 106
12, 4310, Note_on_c, 14, 59, 0
12, 4320, Note_on_c, 14, 60, 127
12, 4440, Note_on_c, 14, 60, 0
12, 4560, Note_on_c, 14, 44, 127
12, 4680, Note_on_c, 14, 44, 0
12, 4800, Note_on_c, 14, 43, 127
12, 4920, Note_on_c, 14, 43, 0
12, 5100, Note_on_c, 14, 44, 127
12, 5150, Note_on_c, 14, 44, 0
12, 5160, Note_on_c, 14, 44, 127
12, 5210, Note_on_c, 14, 44, 0
12, 5220, Note_on_c, 14, 44, 127
12, 5270, Note_on_c, 14, 44, 0
12, 5280, Note_on_c, 14, 41, 127
12, 5760, Note_on_c, 14, 41, 0
12, 6540, Note_on_c, 14, 43, 50
12, 6590, Note_on_c, 14, 43, 0
12, 6600, Note_on_c, 14, 43, 50
12, 6650, Note_on_c, 14, 43, 0
12, 6660, Note_on_c, 14, 43, 50
12, 6710, Note_on_c, 14, 43, 0
12, 6720, Note_on_c, 14, 48, 50
12, 6840, Note_on_c, 14, 48, 0
12, 7500, Note_on_c, 14, 43, 50
12, 7550, Note_on_c, 14, 43, 0
12, 7560, Note_on_c, 14, 43, 50
12, 7610, Note_on_c, 14, 43, 0
12, 7620, Note_on_c, 14, 43, 50
12, 7670, Note_on_c, 14, 43, 0
12, 7680, Note_on_c, 14, 48, 50
12, 7800, Note_on_c, 14, 48, 0
12, 7980, Note_on_c, 14, 48, 62
12, 8030, Note_on_c, 14, 48, 0
12, 8040, Note_on_c, 14, 48, 65
12, 8090, Note_on_c, 14, 48, 0
12, 8100, Note_on_c, 14, 48, 67
12, 8150, Note_on_c, 14, 48, 0
12, 8160, Note_on_c, 14, 48, 70
12, 8280, Note_on_c, 14, 48, 0
12, 8460, Note_on_c, 14, 48, 82
12, 8510, Note_on_c, 14, 48, 0
12, 8520, Note_on_c, 14, 48, 85
12, 8570, Note_on_c, 14, 48, 0
12, 8580, Note_on_c, 14, 48, 87
12, 8630, Note_on_c, 14, 48, 0
12, 8640, Note_on_c, 14, 48, 90
12, 8760, Note_on_c, 14, 48, 0
12, 8880, Note_on_c, 14, 48, 100
12, 9000, Note_on_c, 14, 48, 0
12, 9120, Note_on_c, 14, 48, 100
12, 9240, Note_on_c, 14, 48, 0
12, 9360, Note_on_c, 14, 48, 100
12, 9480, Note_on_c, 14, 48, 0
12, 9600, Note_on_c, 14, 48, 100
12, 9720, Note_on_c, 14, 48, 0
12, 9840, Note_on_c, 14, 48, 100
12, 9960, Note_on_c, 14, 48, 0
12, 10080, Note_on_c, 14, 48, 100
12, 10200, Note_on_c, 14, 48, 0
12, 10320, Note_on_c, 14, 48, 100
12, 11090, Note_on_c, 14, 48, 0
12, 11100, Note_on_c, 14, 48, 100
12, 11150, Note_on_c, 14, 48, 0
12, 11160, Note_on_c, 14, 48, 100
12, 11210, Note_on_c, 14, 48, 0
12, 11220, Note_on_c, 14, 48, 100
12, 11270, Note_on_c, 14, 48, 0
12, 11280, Note_on_c, 14, 43, 100
12, 12050, Note_on_c, 14, 43, 0
12, 12060, Note_on_c, 14, 43, 100
12, 12110, Note_on_c, 14, 43, 0
12, 12120, Note_on_c, 14, 48, 100
12, 12170, Note_on_c, 14, 48, 0
12, 12180, Note_on_c, 14, 48, 100
12, 12230, Note_on_c, 14, 48, 0
12, 12240, Note_on_c, 14, 48, 127
12, 12290, Note_on_c, 14, 48, 0
12, 12300, Note_on_c, 14, 48, 127
12, 12350, Note_on_c, 14, 48, 0
12, 12360, Note_on_c, 14, 48, 127
12, 12410, Note_on_c, 14, 48, 0
12, 12420, Note_on_c, 14, 48, 127
12, 12470, Note_on_c, 14, 48, 0
12, 12480, Note_on_c, 14, 48, 127
12, 12530, Note_on_c, 14, 48, 0
12, 12540, Note_on_c, 14, 48, 127
12, 12590, Note_on_c, 14, 48, 0
12, 12600, Note_on_c, 14, 48, 127
12, 12650, Note_on_c, 14, 48, 0
12, 12660, Note_on_c, 14, 48, 127
12, 12710, Note_on_c, 14, 48, 0
12, 12720, Note_on_c, 14, 48, 127
12, 12770, Note_on_c, 14, 48, 0
12, 12780, Note_on_c, 14, 48, 127
12, 12830, Note_on_c, 14, 48, 0
12, 12840, Note_on_c, 14, 48, 127
12, 12890, Note_on_c, 14, 48, 0
12, 12900, Note_on_c, 14, 48, 127
12, 12950, Note_on_c, 14, 48, 0
12, 12960, Note_on_c, 14, 48, 127
12, 13010, Note_on_c, 14, 48, 0
12, 13020, Note_on_c, 14, 48, 127
12, 13070, Note_on_c, 14, 48, 0
12, 13080, Note_on_c, 14, 48, 127
12, 13130, Note_on_c, 14, 48, 0
12, 13140, Note_on_c, 14, 48, 127
12, 13190, Note_on_c, 14, 48, 0
12, 13200, Note_on_c, 14, 48, 127
12, 13320, Note_on_c, 14, 48, 0
12, 13680, Note_on_c, 14, 50, 127
12, 13800, Note_on_c, 14, 50, 0
12, 15420, Note_on_c, 14, 46, 50
12, 15470, Note_on_c, 14, 46, 0
12, 15480, Note_on_c, 14, 46, 50
12, 15530, Note_on_c, 14, 46, 0
12, 15540, Note_on_c, 14, 46, 50
12, 15590, Note_on_c, 14, 46, 0
12, 15600, Note_on_c, 14, 51, 50
12, 15720, Note_on_c, 14, 51, 0
12, 16380, Note_on_c, 14, 46, 50
12, 16430, Note_on_c, 14, 46, 0
12, 16440, Note_on_c, 14, 46, 50
12, 16490, Note_on_c, 14, 46, 0
12, 16500, Note_on_c, 14, 46, 50
12, 16550, Note_on_c, 14, 46, 0
12, 16560, Note_on_c, 14, 51, 50
12, 16680, Note_on_c, 14, 51, 0
12, 17340, Note_on_c, 14, 46, 50
12, 17390, Note_on_c, 14, 46, 0
12, 17400, Note_on_c, 14, 46, 50
12, 17450, Note_on_c, 14, 46, 0
12, 17460, Note_on_c, 14, 46, 50
12, 17510, Note_on_c, 14, 46, 0
12, 17520, Note_on_c, 14, 51, 50
12, 17640, Note_on_c, 14, 51, 0
12, 18300, Note_on_c, 14, 48, 50
12, 18350, Note_on_c, 14, 48, 0
12, 18360, Note_on_c, 14, 48, 50
12, 18410, Note_on_c, 14, 48, 0
12, 18420, Note_on_c, 14, 48, 50
12, 18470, Note_on_c, 14, 48, 0
12, 18480, Note_on_c, 14, 53, 50
12, 18600, Note_on_c, 14, 53, 0
12, 19260, Note_on_c, 14, 51, 50
12, 19310, Note_on_c, 14, 51, 0
12, 19320, Note_on_c, 14, 51, 50
12, 19370, Note_on_c, 14, 51, 0
12, 19380, Note_on_c, 14, 51, 50
12, 19430, Note_on_c, 14, 51, 0
12, 19440, Note_on_c, 14, 56, 50
12, 19560, Note_on_c, 14, 56, 0
12, 19680, Note_on_c, 14, 63, 50
12, 19800, Note_on_c, 14, 63, 0
12, 19800, Note_on_c, 14, 65, 50
12, 19920, Note_on_c, 14, 65, 0
12, 19920, Note_on_c, 14, 66, 50
12, 20040, Note_on_c, 14, 66, 0
12, 20040, Note_on_c, 14, 65, 53
12, 20160, Note_on_c, 14, 65, 0
12, 20160, Note_on_c, 14, 63, 57
12, 20280, Note_on_c, 14, 63, 0
12, 20280, Note_on_c, 14, 65, 61
12, 20390, Note_on_c, 14, 65, 0
12, 20400, Note_on_c, 14, 66, 65
12, 20520, Note_on_c, 14, 66, 0
12, 20520, Note_on_c, 14, 65, 69
12, 20640, Note_on_c, 14, 65, 0
12, 20640, Note_on_c, 14, 63, 73
12, 20760, Note_on_c, 14, 63, 0
12, 20760, Note_on_c, 14, 65, 76
12, 20870, Note_on_c, 14, 65, 0
12, 20880, Note_on_c, 14, 66, 80
12, 21000, Note_on_c, 14, 66, 0
12, 21000, Note_on_c, 14, 65, 84
12, 21120, Note_on_c, 14, 65, 0
12, 21120, Note_on_c, 14, 63, 88
12, 21240, Note_on_c, 14, 63, 0
12, 21240, Note_on_c, 14, 65, 92
12, 21350, Note_on_c, 14, 65, 0
12, 21360, Note_on_c, 14, 66, 96
12, 21480, Note_on_c, 14, 66, 0
12, 21480, Note_on_c, 14, 65, 100
12, 21600, Note_on_c, 14, 65, 0
12, 21600, Note_on_c, 14, 63, 103
12, 21720, Note_on_c, 14, 63, 0
12, 21720, Note_on_c, 14, 65, 107
12, 21840, Note_on_c, 14, 65, 0
12, 21840, Note_on_c, 14, 66, 111
12, 21960, Note_on_c, 14, 66, 0
12, 21960, Note_on_c, 14, 65, 115
12, 22080, Note_on_c, 14, 65, 0
12, 22080, Note_on_c, 14, 66, 119
12, 22200, Note_on_c, 14, 66, 0
12, 22200, Note_on_c, 14, 60, 123
12, 22310, Note_on_c, 14, 60, 0
12, 22320, Note_on_c, 14, 62, 127
12, 22670, Note_on_c, 14, 62, 0
12, 22680, Note_on_c, 14, 50, 127
12, 22790, Note_on_c, 14, 50, 0
12, 22800, Note_on_c, 14, 51, 127
12, 22920, Note_on_c, 14, 51, 0
12, 23040, Note_on_c, 14, 53, 127
12, 23160, Note_on_c, 14, 53, 0
12, 23280, Note_on_c, 14, 55, 127
12, 23400, Note_on_c, 14, 55, 0
12, 23520, Note_on_c, 14, 56, 127
12, 23640, Note_on_c, 14, 56, 0
12, 23760, Note_on_c, 14, 58, 127
12, 23880, Note_on_c, 14, 58, 0
12, 24000, Note_on_c, 14, 46, 127
12, 24120, Note_on_c, 14, 46, 0
12, 24240, Note_on_c, 14, 50, 127
12, 24350, Note_on_c, 14, 50, 0
12, 24360, Note_on_c, 14, 53, 127
12, 24470, Note_on_c, 14, 53, 0
12, 24480, Note_on_c, 14, 50, 127
12, 24590, Note_on_c, 14, 50, 0
12, 24600, Note_on_c, 14, 53, 127
12, 24710, Note_on_c, 14, 53, 0
12, 24720, Note_on_c, 14, 51, 127
12, 24830, Note_on_c, 14, 51, 0
12, 24840, Note_on_c, 14, 55, 127
12, 24950, Note_on_c, 14, 55, 0
12, 24960, Note_on_c, 14, 53, 127
12, 25070, Note_on_c, 14, 53, 0
12, 25080, Note_on_c, 14, 56, 127
12, 25190, Note_on_c, 14, 56, 0
12, 25200, Note_on_c, 14, 55, 127
12, 25310, Note_on_c, 14, 55, 0
12, 25320, Note_on_c, 14, 58, 127
12, 25430, Note_on_c, 14, 58, 0
12, 25440, Note_on_c, 14, 56, 127
12, 25550, Note_on_c, 14, 56, 0
12, 25560, Note_on_c, 14, 60, 127
12, 25670, Note_on_c, 14, 60, 0
12, 25680, Note_on_c, 14, 58, 127
12, 25790, Note_on_c, 14, 58, 0
12, 25800, Note_on_c, 14, 46, 127
12, 25910, Note_on_c, 14, 46, 0
12, 25920, Note_on_c, 14, 58, 127
12, 26030, Note_on_c, 14, 58, 0
12, 26040, Note_on_c, 14, 46, 127
12, 26150, Note_on_c, 14, 46, 0
12, 26160, Note_on_c, 14, 51, 127
12, 26930, Note_on_c, 14, 51, 0
12, 26940, Note_on_c, 14, 46, 127
12, 26990, Note_on_c, 14, 46, 0
12, 27000, Note_on_c, 14, 46, 127
12, 27050, Note_on_c, 14, 46, 0
12, 27060, Note_on_c, 14, 46, 127
12, 27110, Note_on_c, 14, 46, 0
12, 27120, Note_on_c, 14, 51, 127
12, 27890, Note_on_c, 14, 51, 0
12, 27900, Note_on_c, 14, 46, 127
12, 27950, Note_on_c, 14, 46, 0
12, 27960, Note_on_c, 14, 46, 127
12, 28010, Note_on_c, 14, 46, 0
12, 28020, Note_on_c, 14, 46, 127
12, 28070, Note_on_c, 14, 46, 0
12, 28080, Note_on_c, 14, 51, 127
12, 28200, Note_on_c, 14, 51, 0
12, 28380, Note_on_c, 14, 46, 127
12, 28430, Note_on_c, 14, 46, 0
12, 28440, Note_on_c, 14, 46, 127
12, 28490, Note_on_c, 14, 46, 0
12, 28500, Note_on_c, 14, 46, 127
12, 28550, Note_on_c, 14, 46, 0
12, 28560, Note_on_c, 14, 51, 127
12, 28680, Note_on_c, 14, 51, 0
12, 28860, Note_on_c, 14, 46, 127
12, 28910, Note_on_c, 14, 46, 0
12, 28920, Note_on_c, 14, 46, 127
12, 28970, Note_on_c, 14, 46, 0
12, 28980, Note_on_c, 14, 46, 127
12, 29030, Note_on_c, 14, 46, 0
12, 29040, Note_on_c, 14, 51, 127
12, 29160, Note_on_c, 14, 51, 0
12, 30060, Note_on_c, 14, 37, 127
12, 30110, Note_on_c, 14, 37, 0
12, 30120, Note_on_c, 14, 37, 127
12, 30170, Note_on_c, 14, 37, 0
12, 30180, Note_on_c, 14, 37, 127
12, 30230, Note_on_c, 14, 37, 0
12, 30240, Note_on_c, 14, 36, 127
12, 30720, Note_on_c, 14, 36, 0
12, 30960, Note_on_c, 14, 60, 50
12, 31490, Note_on_c, 14, 60, 0
12, 31500, Note_on_c, 14, 61, 50
12, 31550, Note_on_c, 14, 61, 0
12, 31560, Note_on_c, 14, 61, 50
12, 31610, Note_on_c, 14, 61, 0
12, 31620, Note_on_c, 14, 61, 50
12, 31670, Note_on_c, 14, 61, 0
12, 31680, Note_on_c, 14, 60, 50
12, 32450, Note_on_c, 14, 60, 0
12, 32460, Note_on_c, 14, 61, 50
12, 32510, Note_on_c, 14, 61, 0
12, 32520, Note_on_c, 14, 61, 50
12, 32570, Note_on_c, 14, 61, 0
12, 32580, Note_on_c, 14, 61, 50
12, 32630, Note_on_c, 14, 61, 0
12, 32640, Note_on_c, 14, 60, 50
12, 33360, Note_on_c, 14, 60, 0
12, 33360, Note_on_c, 14, 60, 50
12, 34080, Note_on_c, 14, 60, 0
12, 34080, Note_on_c, 14, 62, 66
12, 34200, Note_on_c, 14, 62, 0
12, 34200, Note_on_c, 14, 63, 75
12, 34320, Note_on_c, 14, 63, 0
12, 34320, Note_on_c, 14, 65, 83
12, 34440, Note_on_c, 14, 65, 0
12, 34440, Note_on_c, 14, 66, 91
12, 34550, Note_on_c, 14, 66, 0
12, 34560, Note_on_c, 14, 67, 50
12, 34610, Note_on_c, 14, 67, 0
12, 34620, Note_on_c, 14, 67, 50
12, 34670, Note_on_c, 14, 67, 0
12, 34680, Note_on_c, 14, 67, 50
12, 34730, Note_on_c, 14, 67, 0
12, 34740, Note_on_c, 14, 65, 50
12, 34790, Note_on_c, 14, 65, 0
12, 34800, Note_on_c, 14, 63, 50
12, 35030, Note_on_c, 14, 63, 0
12, 35040, Note_on_c, 14, 62, 50
12, 35090, Note_on_c, 14, 62, 0
12, 35100, Note_on_c, 14, 67, 50
12, 35150, Note_on_c, 14, 67, 0
12, 35160, Note_on_c, 14, 67, 50
12, 35210, Note_on_c, 14, 67, 0
12, 35220, Note_on_c, 14, 65, 50
12, 35270, Note_on_c, 14, 65, 0
12, 35280, Note_on_c, 14, 63, 50
12, 35510, Note_on_c, 14, 63, 0
12, 35520, Note_on_c, 14, 62, 50
12, 35570, Note_on_c, 14, 62, 0
12, 35580, Note_on_c, 14, 67, 50
12, 35630, Note_on_c, 14, 67, 0
12, 35640, Note_on_c, 14, 67, 50
12, 35690, Note_on_c, 14, 67, 0
12, 35700, Note_on_c, 14, 65, 50
12, 35750, Note_on_c, 14, 65, 0
12, 35760, Note_on_c, 14, 63, 50
12, 35810, Note_on_c, 14, 63, 0
12, 35820, Note_on_c, 14, 63, 54
12, 35870, Note_on_c, 14, 63, 0
12, 35880, Note_on_c, 14, 63, 58
12, 35930, Note_on_c, 14, 63, 0
12, 35940, Note_on_c, 14, 62, 62
12, 35990, Note_on_c, 14, 62, 0
12, 36000, Note_on_c, 14, 60, 66
12, 36050, Note_on_c, 14, 60, 0
12, 36060, Note_on_c, 14, 60, 70
12, 36110, Note_on_c, 14, 60, 0
12, 36120, Note_on_c, 14, 60, 75
12, 36170, Note_on_c, 14, 60, 0
12, 36180, Note_on_c, 14, 58, 79
12, 36230, Note_on_c, 14, 58, 0
12, 36240, Note_on_c, 14, 57, 83
12, 36290, Note_on_c, 14, 57, 0
12, 36300, Note_on_c, 14, 57, 87
12, 36350, Note_on_c, 14, 57, 0
12, 36360, Note_on_c, 14, 57, 91
12, 36410, Note_on_c, 14, 57, 0
12, 36420, Note_on_c, 14, 55, 95
12, 36470, Note_on_c, 14, 55, 0
12, 36480, Note_on_c, 14, 54, 50
12, 36600, Note_on_c, 14, 54, 0
12, 36780, Note_on_c, 14, 58, 50
12, 36830, Note_on_c, 14, 58, 0
12, 36840, Note_on_c, 14, 58, 50
12, 36890, Note_on_c, 14, 58, 0
12, 36900, Note_on_c, 14, 60, 50
12, 36950, Note_on_c, 14, 60, 0
12, 36960, Note_on_c, 14, 62, 50
12, 37250, Note_on_c, 14, 62, 0
12, 37260, Note_on_c, 14, 58, 50
12, 37310, Note_on_c, 14, 58, 0
12, 37320, Note_on_c, 14, 58, 50
12, 37370, Note_on_c, 14, 58, 0
12, 37380, Note_on_c, 14, 60, 50
12, 37430, Note_on_c, 14, 60, 0
12, 37440, Note_on_c, 14, 62, 50
12, 37490, Note_on_c, 14, 62, 0
12, 37500, Note_on_c, 14, 62, 50
12, 37550, Note_on_c, 14, 62, 0
12, 37560, Note_on_c, 14, 62, 50
12, 37610, Note_on_c, 14, 62, 0
12, 37620, Note_on_c, 14, 60, 50
12, 37670, Note_on_c, 14, 60, 0
12, 37680, Note_on_c, 14, 58, 50
12, 37730, Note_on_c, 14, 58, 0
12, 37740, Note_on_c, 14, 58, 50
12, 37790, Note_on_c, 14, 58, 0
12, 37800, Note_on_c, 14, 58, 50
12, 37850, Note_on_c, 14, 58, 0
12, 37860, Note_on_c, 14, 57, 50
12, 37910, Note_on_c, 14, 57, 0
12, 37920, Note_on_c, 14, 55, 50
12, 37970, Note_on_c, 14, 55, 0
12, 37980, Note_on_c, 14, 55, 50
12, 38030, Note_on_c, 14, 55, 0
12, 38040, Note_on_c, 14, 55, 50
12, 38090, Note_on_c, 14, 55, 0
12, 38100, Note_on_c, 14, 53, 50
12, 38150, Note_on_c, 14, 53, 0
12, 38160, Note_on_c, 14, 51, 50
12, 38210, Note_on_c, 14, 51, 0
12, 38220, Note_on_c, 14, 51, 50
12, 38270, Note_on_c, 14, 51, 0
12, 38280, Note_on_c, 14, 51, 50
12, 38330, Note_on_c, 14, 51, 0
12, 38340, Note_on_c, 14, 50, 50
12, 38390, Note_on_c, 14, 50, 0
12, 38400, Note_on_c, 14, 48, 50
12, 38450, Note_on_c, 14, 48, 0
12, 38460, Note_on_c, 14, 60, 50
12, 38510, Note_on_c, 14, 60, 0
12, 38520, Note_on_c, 14, 60, 50
12, 38570, Note_on_c, 14, 60, 0
12, 38580, Note_on_c, 14, 58, 50
12, 38630, Note_on_c, 14, 58, 0
12, 38640, Note_on_c, 14, 57, 50
12, 38690, Note_on_c, 14, 57, 0
12, 38700, Note_on_c, 14, 57, 50
12, 38750, Note_on_c, 14, 57, 0
12, 38760, Note_on_c, 14, 57, 50
12, 38810, Note_on_c, 14, 57, 0
12, 38820, Note_on_c, 14, 55, 50
12, 38870, Note_on_c, 14, 55, 0
12, 38880, Note_on_c, 14, 54, 50
12, 38930, Note_on_c, 14, 54, 0
12, 38940, Note_on_c, 14, 54, 50
12, 38990, Note_on_c, 14, 54, 0
12, 39000, Note_on_c, 14, 54, 50
12, 39050, Note_on_c, 14, 54, 0
12, 39060, Note_on_c, 14, 51, 50
12, 39110, Note_on_c, 14, 51, 0
12, 39120, Note_on_c, 14, 50, 50
12, 39170, Note_on_c, 14, 50, 0
12, 39180, Note_on_c, 14, 50, 50
12, 39230, Note_on_c, 14, 50, 0
12, 39240, Note_on_c, 14, 50, 50
12, 39290, Note_on_c, 14, 50, 0
12, 39300, Note_on_c, 14, 48, 50
12, 39350, Note_on_c, 14, 48, 0
12, 39360, Note_on_c, 14, 46, 50
12, 39410, Note_on_c, 14, 46, 0
12, 39420, Note_on_c, 14, 62, 50
12, 39470, Note_on_c, 14, 62, 0
12, 39480, Note_on_c, 14, 62, 50
12, 39530, Note_on_c, 14, 62, 0
12, 39540, Note_on_c, 14, 60, 50
12, 39590, Note_on_c, 14, 60, 0
12, 39600, Note_on_c, 14, 58, 50
12, 39650, Note_on_c, 14, 58, 0
12, 39660, Note_on_c, 14, 58, 56
12, 39710, Note_on_c, 14, 58, 0
12, 39720, Note_on_c, 14, 58, 62
12, 39770, Note_on_c, 14, 58, 0
12, 39780, Note_on_c, 14, 57, 68
12, 39830, Note_on_c, 14, 57, 0
12, 39840, Note_on_c, 14, 55, 75
12, 39890, Note_on_c, 14, 55, 0
12, 39900, Note_on_c, 14, 53, 81
12, 39950, Note_on_c, 14, 53, 0
12, 39960, Note_on_c, 14, 51, 87
12, 40010, Note_on_c, 14, 51, 0
12, 40020, Note_on_c, 14, 50, 93
12, 40070, Note_on_c, 14, 50, 0
12, 40080, Note_on_c, 14, 36, 100
12, 40080, Note_on_c, 14, 48, 100
12, 40130, Note_on_c, 14, 48, 0
12, 40130, Note_on_c, 14, 36, 0
12, 40140, Note_on_c, 14, 48, 100
12, 40140, Note_on_c, 14, 36, 100
12, 40190, Note_on_c, 14, 36, 0
12, 40190, Note_on_c, 14, 48, 0
12, 40200, Note_on_c, 14, 48, 100
12, 40200, Note_on_c, 14, 36, 100
12, 40250, Note_on_c, 14, 36, 0
12, 40250, Note_on_c, 14, 48, 0
12, 40260, Note_on_c, 14, 36, 100
12, 40260, Note_on_c, 14, 48, 100
12, 40310, Note_on_c, 14, 48, 0
12, 40310, Note_on_c, 14, 36, 0
12, 40320, Note_on_c, 14, 48, 100
12, 40320, Note_on_c, 14, 36, 100
12, 40370, Note_on_c, 14, 36, 0
12, 40370, Note_on_c, 14, 48, 0
12, 40380, Note_on_c, 14, 48, 100
12, 40380, Note_on_c, 14, 36, 100
12, 40430, Note_on_c, 14, 36, 0
12, 40430, Note_on_c, 14, 48, 0
12, 40440, Note_on_c, 14, 36, 100
12, 40440, Note_on_c, 14, 48, 100
12, 40490, Note_on_c, 14, 48, 0
12, 40490, Note_on_c, 14, 36, 0
12, 40500, Note_on_c, 14, 36, 100
12, 40500, Note_on_c, 14, 48, 100
12, 40550, Note_on_c, 14, 48, 0
12, 40550, Note_on_c, 14, 36, 0
12, 40560, Note_on_c, 14, 48, 100
12, 40560, Note_on_c, 14, 36, 100
12, 40680, Note_on_c, 14, 36, 0
12, 40680, Note_on_c, 14, 48, 0
12, 40860, Note_on_c, 14, 49, 100
12, 40910, Note_on_c, 14, 49, 0
12, 40920, Note_on_c, 14, 49, 100
12, 40970, Note_on_c, 14, 49, 0
12, 40980, Note_on_c, 14, 49, 100
12, 41030, Note_on_c, 14, 49, 0
12, 41040, Note_on_c, 14, 49, 100
12, 41090, Note_on_c, 14, 49, 0
12, 41100, Note_on_c, 14, 49, 100
12, 41150, Note_on_c, 14, 49, 0
12, 41160, Note_on_c, 14, 49, 100
12, 41210, Note_on_c, 14, 49, 0
12, 41220, Note_on_c, 14, 49, 100
12, 41270, Note_on_c, 14, 49, 0
12, 41280, Note_on_c, 14, 49, 100
12, 41330, Note_on_c, 14, 49, 0
12, 41340, Note_on_c, 14, 49, 100
12, 41390, Note_on_c, 14, 49, 0
12, 41400, Note_on_c, 14, 49, 100
12, 41450, Note_on_c, 14, 49, 0
12, 41460, Note_on_c, 14, 49, 100
12, 41510, Note_on_c, 14, 49, 0
12, 41520, Note_on_c, 14, 49, 100
12, 41640, Note_on_c, 14, 49, 0
12, 41820, Note_on_c, 14, 50, 104
12, 41870, Note_on_c, 14, 50, 0
12, 41880, Note_on_c, 14, 50, 106
12, 41930, Note_on_c, 14, 50, 0
12, 41940, Note_on_c, 14, 50, 107
12, 41990, Note_on_c, 14, 50, 0
12, 42000, Note_on_c, 14, 50, 109
12, 42120, Note_on_c, 14, 50, 0
12, 42360, Note_on_c, 14, 52, 118
12, 42410, Note_on_c, 14, 52, 0
12, 42420, Note_on_c, 14, 52, 119
12, 42470, Note_on_c, 14, 52, 0
12, 42480, Note_on_c, 14, 52, 121
12, 42590, Note_on_c, 14, 52, 0
12, 42600, Note_on_c, 14, 54, 124
12, 42650, Note_on_c, 14, 54, 0
12, 42660, Note_on_c, 14, 54, 125
12, 42710, Note_on_c, 14, 54, 0
12, 42720, Note_on_c, 14, 54, 127
12, 42840, Note_on_c, 14, 54, 0
12, 43560, Note_on_c, 14, 60, 127
12, 43790, Note_on_c, 14, 60, 0
12, 43800, Note_on_c, 14, 57, 127
12, 43890, Note_on_c, 14, 57, 0
12, 43920, Note_on_c, 14, 54, 127
12, 44010, Note_on_c, 14, 54, 0
12, 44040, Note_on_c, 14, 50, 127
12, 44130, Note_on_c, 14, 50, 0
12, 44160, Note_on_c, 14, 48, 127
12, 44250, Note_on_c, 14, 48, 0
12, 44280, Note_on_c, 14, 45, 127
12, 44370, Note_on_c, 14, 45, 0
12, 44400, Note_on_c, 14, 42, 127
12, 44490, Note_on_c, 14, 42, 0
12, 44520, Note_on_c, 14, 34, 127
12, 44630, Note_on_c, 14, 34, 0
12, 44640, Note_on_c, 14, 43, 127
12, 44760, Note_on_c, 14, 43, 0
12, 45480, Note_on_c, 14, 65, 127
12, 45710, Note_on_c, 14, 65, 0
12, 45720, Note_on_c, 14, 62, 127
12, 45810, Note_on_c, 14, 62, 0
12, 45840, Note_on_c, 14, 59, 127
12, 45930, Note_on_c, 14, 59, 0
12, 45960, Note_on_c, 14, 55, 127
12, 46050, Note_on_c, 14, 55, 0
12, 46080, Note_on_c, 14, 53, 127
12, 46170, Note_on_c, 14, 53, 0
12, 46200, Note_on_c, 14, 50, 127
12, 46290, Note_on_c, 14, 50, 0
12, 46320, Note_on_c, 14, 47, 127
12, 46410, Note_on_c, 14, 47, 0
12, 46440, Note_on_c, 14, 43, 127
12, 46530, Note_on_c, 14, 43, 0
12, 46560, Note_on_c, 14, 48, 127
12, 46680, Note_on_c, 14, 48, 0
12, 47280, Note_on_c, 14, 43, 127
12, 47510, Note_on_c, 14, 43, 0
12, 47520, Note_on_c, 14, 44, 127
12, 47760, Note_on_c, 14, 44, 0
12, 48240, Note_on_c, 14, 43, 127
12, 48470, Note_on_c, 14, 43, 0
12, 48480, Note_on_c, 14, 44, 127
12, 48720, Note_on_c, 14, 44, 0
12, 49200, Note_on_c, 14, 46, 127
12, 49430, Note_on_c, 14, 46, 0
12, 49440, Note_on_c, 14, 48, 127
12, 49680, Note_on_c, 14, 48, 0
12, 50160, Note_on_c, 14, 49, 127
12, 50400, Note_on_c, 14, 49, 0
12, 50640, Note_on_c, 14, 51, 97
12, 50880, Note_on_c, 14, 51, 0
12, 51120, Note_on_c, 14, 53, 66
12, 51360, Note_on_c, 14, 53, 0
12, 51600, Note_on_c, 14, 42, 50
12, 51840, Note_on_c, 14, 42, 0
12, 52080, Note_on_c, 14, 42, 50
12, 52320, Note_on_c, 14, 42, 0
12, 52560, Note_on_c, 14, 42, 50
12, 52800, Note_on_c, 14, 42, 0
12, 53040, Note_on_c, 14, 42, 50
12, 53280, Note_on_c, 14, 42, 0
12, 53520, Note_on_c, 14, 42, 50
12, 53760, Note_on_c, 14, 42, 0
12, 54000, Note_on_c, 14, 42, 50
12, 54240, Note_on_c, 14, 42, 0
12, 54480, Note_on_c, 14, 42, 127
12, 54530, Note_on_c, 14, 42, 0
12, 54540, Note_on_c, 14, 50, 127
12, 54590, Note_on_c, 14, 50, 0
12, 54600, Note_on_c, 14, 50, 127
12, 54650, Note_on_c, 14, 50, 0
12, 54660, Note_on_c, 14, 50, 127
12, 54710, Note_on_c, 14, 50, 0
12, 54720, Note_on_c, 14, 47, 127
12, 54950, Note_on_c, 14, 47, 0
12, 54960, Note_on_c, 14, 48, 127
12, 55190, Note_on_c, 14, 48, 0
12, 55200, Note_on_c, 14, 45, 127
12, 55680, Note_on_c, 14, 45, 0
12, 55920, Note_on_c, 14, 47, 50
12, 56160, Note_on_c, 14, 47, 0
12, 56400, Note_on_c, 14, 47, 50
12, 56640, Note_on_c, 14, 47, 0
12, 56880, Note_on_c, 14, 47, 50
12, 57120, Note_on_c, 14, 47, 0
12, 57360, Note_on_c, 14, 47, 127
12, 57410, Note_on_c, 14, 47, 0
12, 57420, Note_on_c, 14, 44, 127
12, 57470, Note_on_c, 14, 44, 0
12, 57480, Note_on_c, 14, 44, 127
12, 57530, Note_on_c, 14, 44, 0
12, 57540, Note_on_c, 14, 44, 127
12, 57590, Note_on_c, 14, 44, 0
12, 57600, Note_on_c, 14, 41, 127
12, 57890, Note_on_c, 14, 41, 0
12, 57900, Note_on_c, 14, 44, 127
12, 57950, Note_on_c, 14, 44, 0
12, 57960, Note_on_c, 14, 44, 127
12, 58010, Note_on_c, 14, 44, 0
12, 58020, Note_on_c, 14, 44, 127
12, 58070, Note_on_c, 14, 44, 0
12, 58080, Note_on_c, 14, 41, 127
12, 58370, Note_on_c, 14, 41, 0
12, 58380, Note_on_c, 14, 44, 127
12, 58430, Note_on_c, 14, 44, 0
12, 58440, Note_on_c, 14, 44, 127
12, 58490, Note_on_c, 14, 44, 0
12, 58500, Note_on_c, 14, 44, 127
12, 58550, Note_on_c, 14, 44, 0
12, 58560, Note_on_c, 14, 41, 127
12, 58610, Note_on_c, 14, 41, 0
12, 58620, Note_on_c, 14, 44, 127
12, 58670, Note_on_c, 14, 44, 0
12, 58680, Note_on_c, 14, 44, 127
12, 58730, Note_on_c, 14, 44, 0
12, 58740, Note_on_c, 14, 44, 127
12, 58790, Note_on_c, 14, 44, 0
12, 58800, Note_on_c, 14, 41, 127
12, 58850, Note_on_c, 14, 41, 0
12, 58860, Note_on_c, 14, 44, 127
12, 58910, Note_on_c, 14, 44, 0
12, 58920, Note_on_c, 14, 44, 127
12, 58970, Note_on_c, 14, 44, 0
12, 58980, Note_on_c, 14, 44, 127
12, 59030, Note_on_c, 14, 44, 0
12, 59040, Note_on_c, 14, 41, 127
12, 59090, Note_on_c, 14, 41, 0
12, 59100, Note_on_c, 14, 44, 127
12, 59150, Note_on_c, 14, 44, 0
12, 59160, Note_on_c, 14, 44, 127
12, 59210, Note_on_c, 14, 44, 0
12, 59220, Note_on_c, 14, 44, 127
12, 59270, Note_on_c, 14, 44, 0
12, 59280, Note_on_c, 14, 41, 127
12, 59330, Note_on_c, 14, 41, 0
12, 59340, Note_on_c, 14, 43, 127
12, 59390, Note_on_c, 14, 43, 0
12, 59400, Note_on_c, 14, 43, 127
12, 59450, Note_on_c, 14, 43, 0
12, 59460, Note_on_c, 14, 43, 127
12, 59510, Note_on_c, 14, 43, 0
12, 59520, Note_on_c, 14, 39, 127
12, 60240, Note_on_c, 14, 39, 0
12, 60300, Note_on_c, 14, 41, 127
12, 60350, Note_on_c, 14, 41, 0
12, 60360, Note_on_c, 14, 41, 127
12, 60410, Note_on_c, 14, 41, 0
12, 60420, Note_on_c, 14, 41, 127
12, 60470, Note_on_c, 14, 41, 0
12, 60480, Note_on_c, 14, 38, 127
12, 61440, Note_on_c, 14, 38, 0
12, 61560, Program_c, 14, 45
12, 61680, Note_on_c, 14, 48, 50
12, 61800, Note_on_c, 14, 48, 0
12, 62160, Note_on_c, 14, 48, 50
12, 62280, Note_on_c, 14, 48, 0
12, 62640, Note_on_c, 14, 47, 50
12, 62760, Note_on_c, 14, 47, 0
12, 63120, Note_on_c, 14, 47, 50
12, 63240, Note_on_c, 14, 47, 0
12, 63600, Note_on_c, 14, 48, 50
12, 63720, Note_on_c, 14, 48, 0
12, 63840, Note_on_c, 14, 47, 50
12, 63960, Note_on_c, 14, 47, 0
12, 64080, Note_on_c, 14, 48, 50
12, 64200, Note_on_c, 14, 48, 0
12, 64320, Note_on_c, 14, 43, 50
12, 64440, Note_on_c, 14, 43, 0
12, 64560, Note_on_c, 14, 48, 50
12, 64680, Note_on_c, 14, 48, 0
12, 64800, Note_on_c, 14, 44, 50
12, 64920, Note_on_c, 14, 44, 0
12, 64980, Program_c, 14, 48
12, 65040, Note_on_c, 14, 43, 50
12, 65160, Note_on_c, 14, 43, 0
12, 67020, Note_on_c, 14, 43, 50
12, 67070, Note_on_c, 14, 43, 0
12, 67080, Note_on_c, 14, 43, 50
12, 67130, Note_on_c, 14, 43, 0
12, 67140, Note_on_c, 14, 43, 50
12, 67190, Note_on_c, 14, 43, 0
12, 67200, Note_on_c, 14, 48, 50
12, 67250, Note_on_c, 14, 48, 0
12, 67260, Note_on_c, 14, 56, 53
12, 67310, Note_on_c, 14, 56, 0
12, 67320, Note_on_c, 14, 56, 56
12, 67370, Note_on_c, 14, 56, 0
12, 67380, Note_on_c, 14, 56, 59
12, 67430, Note_on_c, 14, 56, 0
12, 67440, Note_on_c, 14, 53, 62
12, 67490, Note_on_c, 14, 53, 0
12, 67500, Note_on_c, 14, 50, 65
12, 67550, Note_on_c, 14, 50, 0
12, 67560, Note_on_c, 14, 50, 68
12, 67610, Note_on_c, 14, 50, 0
12, 67620, Note_on_c, 14, 50, 71
12, 67670, Note_on_c, 14, 50, 0
12, 67680, Note_on_c, 14, 47, 75
12, 67730, Note_on_c, 14, 47, 0
12, 67740, Note_on_c, 14, 44, 78
12, 67790, Note_on_c, 14, 44, 0
12, 67800, Note_on_c, 14, 44, 81
12, 67850, Note_on_c, 14, 44, 0
12, 67860, Note_on_c, 14, 44, 84
12, 67910, Note_on_c, 14, 44, 0
12, 67920, Note_on_c, 14, 43, 87
12, 67970, Note_on_c, 14, 43, 0
12, 67980, Note_on_c, 14, 55, 90
12, 68030, Note_on_c, 14, 55, 0
12, 68040, Note_on_c, 14, 55, 93
12, 68090, Note_on_c, 14, 55, 0
12, 68100, Note_on_c, 14, 55, 96
12, 68150, Note_on_c, 14, 55, 0
12, 68160, Note_on_c, 14, 48, 100
12, 68210, Note_on_c, 14, 48, 0
12, 68220, Note_on_c, 14, 48, 100
12, 68270, Note_on_c, 14, 48, 0
12, 68280, Note_on_c, 14, 48, 100
12, 68330, Note_on_c, 14, 48, 0
12, 68340, Note_on_c, 14, 48, 100
12, 68390, Note_on_c, 14, 48, 0
12, 68400, Note_on_c, 14, 48, 100
12, 68640, Note_on_c, 14, 48, 0
12, 68640, Note_on_c, 14, 48, 100
12, 68690, Note_on_c, 14, 48, 0
12, 68700, Note_on_c, 14, 48, 100
12, 68750, Note_on_c, 14, 48, 0
12, 68760, Note_on_c, 14, 48, 100
12, 68810, Note_on_c, 14, 48, 0
12, 68820, Note_on_c, 14, 48, 100
12, 68870, Note_on_c, 14, 48, 0
12, 68880, Note_on_c, 14, 48, 100
12, 69120, Note_on_c, 14, 48, 0
12, 69120, Note_on_c, 14, 48, 100
12, 69170, Note_on_c, 14, 48, 0
12, 69180, Note_on_c, 14, 48, 100
12, 69230, Note_on_c, 14, 48, 0
12, 69240, Note_on_c, 14, 48, 100
12, 69290, Note_on_c, 14, 48, 0
12, 69300, Note_on_c, 14, 48, 100
12, 69350, Note_on_c, 14, 48, 0
12, 69360, Note_on_c, 14, 48, 100
12, 69480, Note_on_c, 14, 48, 0
12, 69600, Note_on_c, 14, 48, 100
12, 69720, Note_on_c, 14, 48, 0
12, 69840, Note_on_c, 14, 48, 100
12, 69960, Note_on_c, 14, 48, 0
12, 70080, Note_on_c, 14, 48, 100
12, 70200, Note_on_c, 14, 48, 0
12, 70320, Note_on_c, 14, 48, 100
12, 70440, Note_on_c, 14, 48, 0
12, 70560, Note_on_c, 14, 48, 100
12, 70680, Note_on_c, 14, 48, 0
12, 70800, Note_on_c, 14, 48, 100
12, 71280, Note_on_c, 14, 48, 0
12, 71280, Note_on_c, 14, 48, 100
12, 71520, Note_on_c, 14, 48, 0
12, 71520, Note_on_c, 14, 48, 100
12, 71570, Note_on_c, 14, 48, 0
12, 71580, Note_on_c, 14, 48, 100
12, 71630, Note_on_c, 14, 48, 0
12, 71640, Note_on_c, 14, 48, 100
12, 71690, Note_on_c, 14, 48, 0
12, 71700, Note_on_c, 14, 48, 100
12, 71750, Note_on_c, 14, 48, 0
12, 71760, Note_on_c, 14, 43, 100
12, 72240, Note_on_c, 14, 43, 0
12, 72240, Note_on_c, 14, 43, 100
12, 72530, Note_on_c, 14, 43, 0
12, 72540, Note_on_c, 14, 43, 100
12, 72590, Note_on_c, 14, 43, 0
12, 72600, Note_on_c, 14, 48, 100
12, 72650, Note_on_c, 14, 48, 0
12, 72660, Note_on_c, 14, 48, 100
12, 72710, Note_on_c, 14, 48, 0
12, 72720, Note_on_c, 14, 48, 127
12, 72770, Note_on_c, 14, 48, 0
12, 72780, Note_on_c, 14, 63, 127
12, 72830, Note_on_c, 14, 63, 0
12, 72840, Note_on_c, 14, 63, 127
12, 72890, Note_on_c, 14, 63, 0
12, 72900, Note_on_c, 14, 63, 127
12, 72950, Note_on_c, 14, 63, 0
12, 72960, Note_on_c, 14, 60, 127
12, 73010, Note_on_c, 14, 60, 0
12, 73020, Note_on_c, 14, 57, 127
12, 73070, Note_on_c, 14, 57, 0
12, 73080, Note_on_c, 14, 57, 127
12, 73130, Note_on_c, 14, 57, 0
12, 73140, Note_on_c, 14, 57, 127
12, 73190, Note_on_c, 14, 57, 0
12, 73200, Note_on_c, 14, 54, 127
12, 73250, Note_on_c, 14, 54, 0
12, 73260, Note_on_c, 14, 51, 127
12, 73310, Note_on_c, 14, 51, 0
12, 73320, Note_on_c, 14, 51, 127
12, 73370, Note_on_c, 14, 51, 0
12, 73380, Note_on_c, 14, 51, 127
12, 73430, Note_on_c, 14, 51, 0
12, 73440, Note_on_c, 14, 48, 127
12, 73490, Note_on_c, 14, 48, 0
12, 73500, Note_on_c, 14, 45, 127
12, 73550, Note_on_c, 14, 45, 0
12, 73560, Note_on_c, 14, 45, 127
12, 73610, Note_on_c, 14, 45, 0
12, 73620, Note_on_c, 14, 45, 127
12, 73670, Note_on_c, 14, 45, 0
12, 73680, Note_on_c, 14, 48, 127
12, 73800, Note_on_c, 14, 48, 0
12, 74160, Note_on_c, 14, 47, 127
12, 74280, Note_on_c, 14, 47, 0
12, 75900, Note_on_c, 14, 43, 50
12, 75950, Note_on_c, 14, 43, 0
12, 75960, Note_on_c, 14, 43, 50
12, 76010, Note_on_c, 14, 43, 0
12, 76020, Note_on_c, 14, 43, 50
12, 76070, Note_on_c, 14, 43, 0
12, 76080, Note_on_c, 14, 48, 50
12, 76200, Note_on_c, 14, 48, 0
12, 77820, Note_on_c, 14, 43, 50
12, 77870, Note_on_c, 14, 43, 0
12, 77880, Note_on_c, 14, 43, 50
12, 77930, Note_on_c, 14, 43, 0
12, 77940, Note_on_c, 14, 43, 50
12, 77990, Note_on_c, 14, 43, 0
12, 78000, Note_on_c, 14, 48, 50
12, 78120, Note_on_c, 14, 48, 0
12, 79740, Note_on_c, 14, 48, 50
12, 79790, Note_on_c, 14, 48, 0
12, 79800, Note_on_c, 14, 48, 50
12, 79850, Note_on_c, 14, 48, 0
12, 79860, Note_on_c, 14, 48, 50
12, 79910, Note_on_c, 14, 48, 0
12, 79920, Note_on_c, 14, 53, 50
12, 80040, Note_on_c, 14, 53, 0
12, 80700, Note_on_c, 14, 50, 50
12, 80750, Note_on_c, 14, 50, 0
12, 80760, Note_on_c, 14, 50, 50
12, 80810, Note_on_c, 14, 50, 0
12, 80820, Note_on_c, 14, 50, 50
12, 80870, Note_on_c, 14, 50, 0
12, 80880, Note_on_c, 14, 55, 50
12, 81000, Note_on_c, 14, 55, 0
12, 81120, Note_on_c, 14, 65, 50
12, 81240, Note_on_c, 14, 65, 0
12, 81240, Note_on_c, 14, 67, 52
12, 81360, Note_on_c, 14, 67, 0
12, 81360, Note_on_c, 14, 68, 55
12, 81480, Note_on_c, 14, 68, 0
12, 81480, Note_on_c, 14, 67, 57
12, 81600, Note_on_c, 14, 67, 0
12, 81600, Note_on_c, 14, 65, 60
12, 81720, Note_on_c, 14, 65, 0
12, 81720, Note_on_c, 14, 67, 62
12, 81830, Note_on_c, 14, 67, 0
12, 81840, Note_on_c, 14, 68, 65
12, 81960, Note_on_c, 14, 68, 0
12, 81960, Note_on_c, 14, 67, 67
12, 82080, Note_on_c, 14, 67, 0
12, 82080, Note_on_c, 14, 65, 70
12, 82200, Note_on_c, 14, 65, 0
12, 82200, Note_on_c, 14, 67, 73
12, 82310, Note_on_c, 14, 67, 0
12, 82320, Note_on_c, 14, 68, 75
12, 82440, Note_on_c, 14, 68, 0
12, 82440, Note_on_c, 14, 67, 78
12, 82560, Note_on_c, 14, 67, 0
12, 82560, Note_on_c, 14, 65, 80
12, 82680, Note_on_c, 14, 65, 0
12, 82680, Note_on_c, 14, 67, 83
12, 82790, Note_on_c, 14, 67, 0
12, 82800, Note_on_c, 14, 68, 85
12, 82920, Note_on_c, 14, 68, 0
12, 82920, Note_on_c, 14, 67, 88
12, 83040, Note_on_c, 14, 67, 0
12, 83040, Note_on_c, 14, 66, 91
12, 83160, Note_on_c, 14, 66, 0
12, 83160, Note_on_c, 14, 67, 93
12, 83270, Note_on_c, 14, 67, 0
12, 83280, Note_on_c, 14, 69, 96
12, 83400, Note_on_c, 14, 69, 0
12, 83400, Note_on_c, 14, 67, 98
12, 83520, Note_on_c, 14, 67, 0
12, 83520, Note_on_c, 14, 66, 101
12, 83640, Note_on_c, 14, 66, 0
12, 83640, Note_on_c, 14, 67, 103
12, 83750, Note_on_c, 14, 67, 0
12, 83760, Note_on_c, 14, 69, 106
12, 83880, Note_on_c, 14, 69, 0
12, 83880, Note_on_c, 14, 67, 109
12, 84000, Note_on_c, 14, 67, 0
12, 84000, Note_on_c, 14, 66, 111
12, 84120, Note_on_c, 14, 66, 0
12, 84120, Note_on_c, 14, 67, 114
12, 84240, Note_on_c, 14, 67, 0
12, 84240, Note_on_c, 14, 66, 116
12, 84360, Note_on_c, 14, 66, 0
12, 84360, Note_on_c, 14, 67, 119
12, 84480, Note_on_c, 14, 67, 0
12, 84480, Note_on_c, 14, 66, 121
12, 84600, Note_on_c, 14, 66, 0
12, 84600, Note_on_c, 14, 67, 124
12, 84710, Note_on_c, 14, 67, 0
12, 84720, Note_on_c, 14, 62, 127
12, 85070, Note_on_c, 14, 62, 0
12, 85080, Note_on_c, 14, 59, 127
12, 85190, Note_on_c, 14, 59, 0
12, 85200, Note_on_c, 14, 60, 127
12, 85320, Note_on_c, 14, 60, 0
12, 85440, Note_on_c, 14, 62, 127
12, 85560, Note_on_c, 14, 62, 0
12, 85680, Note_on_c, 14, 64, 127
12, 85800, Note_on_c, 14, 64, 0
12, 85920, Note_on_c, 14, 65, 127
12, 86040, Note_on_c, 14, 65, 0
12, 86160, Note_on_c, 14, 67, 127
12, 86280, Note_on_c, 14, 67, 0
12, 86400, Note_on_c, 14, 55, 127
12, 86520, Note_on_c, 14, 55, 0
12, 86640, Note_on_c, 14, 47, 127
12, 86750, Note_on_c, 14, 47, 0
12, 86760, Note_on_c, 14, 50, 127
12, 86870, Note_on_c, 14, 50, 0
12, 86880, Note_on_c, 14, 47, 127
12, 86990, Note_on_c, 14, 47, 0
12, 87000, Note_on_c, 14, 50, 127
12, 87110, Note_on_c, 14, 50, 0
12, 87120, Note_on_c, 14, 48, 127
12, 87230, Note_on_c, 14, 48, 0
12, 87240, Note_on_c, 14, 52, 127
12, 87350, Note_on_c, 14, 52, 0
12, 87360, Note_on_c, 14, 50, 127
12, 87470, Note_on_c, 14, 50, 0
12, 87480, Note_on_c, 14, 53, 127
12, 87590, Note_on_c, 14, 53, 0
12, 87600, Note_on_c, 14, 52, 127
12, 87710, Note_on_c, 14, 52, 0
12, 87720, Note_on_c, 14, 55, 127
12, 87830, Note_on_c, 14, 55, 0
12, 87840, Note_on_c, 14, 53, 127
12, 87950, Note_on_c, 14, 53, 0
12, 87960, Note_on_c, 14, 57, 127
12, 88070, Note_on_c, 14, 57, 0
12, 88080, Note_on_c, 14, 55, 127
12, 88190, Note_on_c, 14, 55, 0
12, 88200, Note_on_c, 14, 43, 127
12, 88310, Note_on_c, 14, 43, 0
12, 88320, Note_on_c, 14, 55, 127
12, 88430, Note_on_c, 14, 55, 0
12, 88440, Note_on_c, 14, 43, 127
12, 88550, Note_on_c, 14, 43, 0
12, 88560, Note_on_c, 14, 48, 127
12, 89040, Note_on_c, 14, 48, 0
12, 89040, Note_on_c, 14, 48, 127
12, 89330, Note_on_c, 14, 48, 0
12, 89340, Note_on_c, 14, 43, 127
12, 89390, Note_on_c, 14, 43, 0
12, 89400, Note_on_c, 14, 43, 127
12, 89450, Note_on_c, 14, 43, 0
12, 89460, Note_on_c, 14, 43, 127
12, 89510, Note_on_c, 14, 43, 0
12, 89520, Note_on_c, 14, 48, 127
12, 90000, Note_on_c, 14, 48, 0
12, 90000, Note_on_c, 14, 48, 127
12, 90290, Note_on_c, 14, 48, 0
12, 90300, Note_on_c, 14, 43, 127
12, 90350, Note_on_c, 14, 43, 0
12, 90360, Note_on_c, 14, 43, 127
12, 90410, Note_on_c, 14, 43, 0
12, 90420, Note_on_c, 14, 43, 127
12, 90470, Note_on_c, 14, 43, 0
12, 90480, Note_on_c, 14, 48, 127
12, 90600, Note_on_c, 14, 48, 0
12, 90780, Note_on_c, 14, 43, 127
12, 90830, Note_on_c, 14, 43, 0
12, 90840, Note_on_c, 14, 43, 127
12, 90890, Note_on_c, 14, 43, 0
12, 90900, Note_on_c, 14, 43, 127
12, 90950, Note_on_c, 14, 43, 0
12, 90960, Note_on_c, 14, 48, 127
12, 91080, Note_on_c, 14, 48, 0
12, 91260, Note_on_c, 14, 43, 127
12, 91310, Note_on_c, 14, 43, 0
12, 91320, Note_on_c, 14, 43, 127
12, 91370, Note_on_c, 14, 43, 0
12, 91380, Note_on_c, 14, 43, 127
12, 91430, Note_on_c, 14, 43, 0
12, 91440, Note_on_c, 14, 48, 127
12, 91500, Note_on_c, 14, 48, 0
12, 91500, Note_on_c, 14, 48, 127
12, 91680, Note_on_c, 14, 48, 0
12, 91680, Note_on_c, 14, 48, 127
12, 91730, Note_on_c, 14, 48, 0
12, 91740, Note_on_c, 14, 48, 127
12, 91790, Note_on_c, 14, 48, 0
12, 91800, Note_on_c, 14, 48, 127
12, 91850, Note_on_c, 14, 48, 0
12, 91860, Note_on_c, 14, 48, 127
12, 91910, Note_on_c, 14, 48, 0
12, 91920, Note_on_c, 14, 44, 127
12, 91980, Note_on_c, 14, 44, 0
12, 91980, Note_on_c, 14, 44, 127
12, 92160, Note_on_c, 14, 44, 0
12, 92160, Note_on_c, 14, 44, 127
12, 92210, Note_on_c, 14, 44, 0
12, 92220, Note_on_c, 14, 44, 127
12, 92270, Note_on_c, 14, 44, 0
12, 92280, Note_on_c, 14, 44, 127
12, 92330, Note_on_c, 14, 44, 0
12, 92340, Note_on_c, 14, 44, 127
12, 92390, Note_on_c, 14, 44, 0
12, 92400, Note_on_c, 14, 52, 127
12, 92460, Note_on_c, 14, 52, 0
12, 92460, Note_on_c, 14, 52, 127
12, 92640, Note_on_c, 14, 52, 0
12, 92640, Note_on_c, 14, 52, 127
12, 92690, Note_on_c, 14, 52, 0
12, 92700, Note_on_c, 14, 52, 127
12, 92750, Note_on_c, 14, 52, 0
12, 92760, Note_on_c, 14, 52, 127
12, 92810, Note_on_c, 14, 52, 0
12, 92820, Note_on_c, 14, 52, 127
12, 92870, Note_on_c, 14, 52, 0
12, 92880, Note_on_c, 14, 53, 127
12, 92940, Note_on_c, 14, 53, 0
12, 92940, Note_on_c, 14, 53, 127
12, 93120, Note_on_c, 14, 53, 0
12, 93120, Note_on_c, 14, 53, 127
12, 93170, Note_on_c, 14, 53, 0
12, 93180, Note_on_c, 14, 53, 127
12, 93230, Note_on_c, 14, 53, 0
12, 93240, Note_on_c, 14, 53, 127
12, 93290, Note_on_c, 14, 53, 0
12, 93300, Note_on_c, 14, 53, 127
12, 93350, Note_on_c, 14, 53, 0
12, 93360, Note_on_c, 14, 41, 127
12, 93410, Note_on_c, 14, 41, 0
12, 93420, Note_on_c, 14, 53, 127
12, 93470, Note_on_c, 14, 53, 0
12, 93480, Note_on_c, 14, 53, 127
12, 93530, Note_on_c, 14, 53, 0
12, 93540, Note_on_c, 14, 53, 127
12, 93590, Note_on_c, 14, 53, 0
12, 93600, Note_on_c, 14, 53, 127
12, 93650, Note_on_c, 14, 53, 0
12, 93660, Note_on_c, 14, 53, 127
12, 93710, Note_on_c, 14, 53, 0
12, 93720, Note_on_c, 14, 53, 127
12, 93770, Note_on_c, 14, 53, 0
12, 93780, Note_on_c, 14, 53, 127
12, 93830, Note_on_c, 14, 53, 0
12, 93840, Note_on_c, 14, 53, 127
12, 93890, Note_on_c, 14, 53, 0
12, 93900, Note_on_c, 14, 53, 127
12, 93950, Note_on_c, 14, 53, 0
12, 93960, Note_on_c, 14, 53, 127
12, 94010, Note_on_c, 14, 53, 0
12, 94020, Note_on_c, 14, 53, 127
12, 94070, Note_on_c, 14, 53, 0
12, 94080, Note_on_c, 14, 53, 127
12, 94130, Note_on_c, 14, 53, 0
12, 94140, Note_on_c, 14, 53, 127
12, 94190, Note_on_c, 14, 53, 0
12, 94200, Note_on_c, 14, 53, 127
12, 94250, Note_on_c, 14, 53, 0
12, 94260, Note_on_c, 14, 53, 127
12, 94310, Note_on_c, 14, 53, 0
12, 94320, Note_on_c, 14, 53, 127
12, 94440, Note_on_c, 14, 53, 0
12, 95340, Note_on_c, 14, 42, 127
12, 95390, Note_on_c, 14, 42, 0
12, 95400, Note_on_c, 14, 42, 127
12, 95450, Note_on_c, 14, 42, 0
12, 95460, Note_on_c, 14, 42, 127
12, 95510, Note_on_c, 14, 42, 0
12, 95520, Note_on_c, 14, 42, 127
12, 95570, Note_on_c, 14, 42, 0
12, 95580, Note_on_c, 14, 54, 127
12, 95630, Note_on_c, 14, 54, 0
12, 95640, Note_on_c, 14, 54, 127
12, 95690, Note_on_c, 14, 54, 0
12, 95700, Note_on_c, 14, 54, 127
12, 95750, Note_on_c, 14, 54, 0
12, 95760, Note_on_c, 14, 54, 127
12, 95810, Note_on_c, 14, 54, 0
12, 95820, Note_on_c, 14, 54, 127
12, 95870, Note_on_c, 14, 54, 0
12, 95880, Note_on_c, 14, 54, 127
12, 95930, Note_on_c, 14, 54, 0
12, 95940, Note_on_c, 14, 54, 127
12, 95990, Note_on_c, 14, 54, 0
12, 96000, Note_on_c, 14, 54, 127
12, 96050, Note_on_c, 14, 54, 0
12, 96060, Note_on_c, 14, 54, 127
12, 96110, Note_on_c, 14, 54, 0
12, 96120, Note_on_c, 14, 54, 127
12, 96170, Note_on_c, 14, 54, 0
12, 96180, Note_on_c, 14, 54, 127
12, 96230, Note_on_c, 14, 54, 0
12, 96240, Note_on_c, 14, 54, 127
12, 96290, Note_on_c, 14, 54, 0
12, 96300, Note_on_c, 14, 54, 127
12, 96350, Note_on_c, 14, 54, 0
12, 96360, Note_on_c, 14, 54, 127
12, 96410, Note_on_c, 14, 54, 0
12, 96420, Note_on_c, 14, 54, 127
12, 96470, Note_on_c, 14, 54, 0
12, 96480, Note_on_c, 14, 54, 127
12, 96600, Note_on_c, 14, 54, 0
12, 97260, Note_on_c, 14, 67, 100
12, 97310, Note_on_c, 14, 67, 0
12, 97320, Note_on_c, 14, 67, 100
12, 97370, Note_on_c, 14, 67, 0
12, 97380, Note_on_c, 14, 67, 100
12, 97430, Note_on_c, 14, 67, 0
12, 97440, Note_on_c, 14, 63, 100
12, 97670, Note_on_c, 14, 63, 0
12, 97680, Note_on_c, 14, 65, 100
12, 97910, Note_on_c, 14, 65, 0
12, 97920, Note_on_c, 14, 62, 100
12, 98210, Note_on_c, 14, 62, 0
12, 98220, Note_on_c, 14, 67, 100
12, 98270, Note_on_c, 14, 67, 0
12, 98280, Note_on_c, 14, 67, 100
12, 98330, Note_on_c, 14, 67, 0
12, 98340, Note_on_c, 14, 67, 100
12, 98390, Note_on_c, 14, 67, 0
12, 98400, Note_on_c, 14, 63, 100
12, 98630, Note_on_c, 14, 63, 0
12, 98640, Note_on_c, 14, 65, 100
12, 98870, Note_on_c, 14, 65, 0
12, 98880, Note_on_c, 14, 62, 100
12, 99170, Note_on_c, 14, 62, 0
12, 99180, Note_on_c, 14, 67, 100
12, 99230, Note_on_c, 14, 67, 0
12, 99240, Note_on_c, 14, 67, 100
12, 99290, Note_on_c, 14, 67, 0
12, 99300, Note_on_c, 14, 67, 100
12, 99350, Note_on_c, 14, 67, 0
12, 99360, Note_on_c, 14, 63, 100
12, 99470, Note_on_c, 14, 63, 0
12, 99480, Note_on_c, 14, 65, 100
12, 99590, Note_on_c, 14, 65, 0
12, 99600, Note_on_c, 14, 62, 100
12, 99710, Note_on_c, 14, 62, 0
12, 99720, Note_on_c, 14, 63, 100
12, 99830, Note_on_c, 14, 63, 0
12, 99840, Note_on_c, 14, 60, 100
12, 99950, Note_on_c, 14, 60, 0
12, 99960, Note_on_c, 14, 62, 100
12, 100070, Note_on_c, 14, 62, 0
12, 100080, Note_on_c, 14, 58, 100
12, 100190, Note_on_c, 14, 58, 0
12, 100200, Note_on_c, 14, 60, 100
12, 100310, Note_on_c, 14, 60, 0
12, 100320, Note_on_c, 14, 56, 100
12, 100430, Note_on_c, 14, 56, 0
12, 100440, Note_on_c, 14, 58, 100
12, 100550, Note_on_c, 14, 58, 0
12, 100560, Note_on_c, 14, 55, 100
12, 100670, Note_on_c, 14, 55, 0
12, 100680, Note_on_c, 14, 56, 100
12, 100790, Note_on_c, 14, 56, 0
12, 100800, Note_on_c, 14, 53, 100
12, 100910, Note_on_c, 14, 53, 0
12, 100920, Note_on_c, 14, 55, 100
12, 101030, Note_on_c, 14, 55, 0
12, 101040, Note_on_c, 14, 51, 100
12, 101150, Note_on_c, 14, 51, 0
12, 101160, Note_on_c, 14, 53, 100
12, 101270, Note_on_c, 14, 53, 0
12, 101280, Note_on_c, 14, 50, 100
12, 101390, Note_on_c, 14, 50, 0
12, 101400, Note_on_c, 14, 48, 100
12, 101510, Note_on_c, 14, 48, 0
12, 101520, Note_on_c, 14, 47, 100
12, 101630, Note_on_c, 14, 47, 0
12, 101640, Note_on_c, 14, 48, 100
12, 101750, Note_on_c, 14, 48, 0
12, 101760, Note_on_c, 14, 50, 100
12, 101870, Note_on_c, 14, 50, 0
12, 101880, Note_on_c, 14, 48, 100
12, 101990, Note_on_c, 14, 48, 0
12, 102000, Note_on_c, 14, 50, 100
12, 102110, Note_on_c, 14, 50, 0
12, 102120, Note_on_c, 14, 52, 102
12, 102230, Note_on_c, 14, 52, 0
12, 102240, Note_on_c, 14, 53, 105
12, 102350, Note_on_c, 14, 53, 0
12, 102360, Note_on_c, 14, 52, 108
12, 102470, Note_on_c, 14, 52, 0
12, 102480, Note_on_c, 14, 53, 110
12, 102590, Note_on_c, 14, 53, 0
12, 102600, Note_on_c, 14, 55, 113
12, 102710, Note_on_c, 14, 55, 0
12, 102720, Note_on_c, 14, 56, 116
12, 102830, Note_on_c, 14, 56, 0
12, 102840, Note_on_c, 14, 55, 118
12, 102950, Note_on_c, 14, 55, 0
12, 102960, Note_on_c, 14, 57, 121
12, 103070, Note_on_c, 14, 57, 0
12, 103080, Note_on_c, 14, 59, 124
12, 103190, Note_on_c, 14, 59, 0
12, 103200, Note_on_c, 14, 60, 127
12, 103670, Note_on_c, 14, 60, 0
12, 103680, Note_on_c, 14, 56, 127
12, 104150, Note_on_c, 14, 56, 0
12, 104160, Note_on_c, 14, 51, 127
12, 104630, Note_on_c, 14, 51, 0
12, 104640, Note_on_c, 14, 53, 127
12, 104870, Note_on_c, 14, 53, 0
12, 104880, Note_on_c, 14, 51, 127
12, 105110, Note_on_c, 14, 51, 0
12, 105120, Note_on_c, 14, 50, 127
12, 105350, Note_on_c, 14, 50, 0
12, 105360, Note_on_c, 14, 53, 127
12, 105590, Note_on_c, 14, 53, 0
12, 105600, Note_on_c, 14, 51, 127
12, 105690, Note_on_c, 14, 51, 0
12, 105840, Note_on_c, 14, 48, 127
12, 105930, Note_on_c, 14, 48, 0
12, 106080, Note_on_c, 14, 53, 127
12, 106170, Note_on_c, 14, 53, 0
12, 106320, Note_on_c, 14, 50, 127
12, 106410, Note_on_c, 14, 50, 0
12, 106560, Note_on_c, 14, 55, 127
12, 106650, Note_on_c, 14, 55, 0
12, 106800, Note_on_c, 14, 43, 127
12, 106890, Note_on_c, 14, 43, 0
12, 107040, Note_on_c, 14, 48, 127
12, 107130, Note_on_c, 14, 48, 0
12, 107760, Note_on_c, 14, 39, 127
12, 107850, Note_on_c, 14, 39, 0
12, 107880, Note_on_c, 14, 41, 127
12, 107970, Note_on_c, 14, 41, 0
12, 108000, Note_on_c, 14, 43, 127
12, 108120, Note_on_c, 14, 43, 0
12, 108120, Note_on_c, 14, 39, 127
12, 108240, Note_on_c, 14, 39, 0
12, 108720, Note_on_c, 14, 43, 127
12, 108810, Note_on_c, 14, 43, 0
12, 108840, Note_on_c, 14, 45, 127
12, 108930, Note_on_c, 14, 45, 0
12, 108960, Note_on_c, 14, 47, 127
12, 109080, Note_on_c, 14, 47, 0
12, 109080, Note_on_c, 14, 43, 127
12, 109200, Note_on_c, 14, 43, 0
12, 109680, Note_on_c, 14, 43, 127
12, 109770, Note_on_c, 14, 43, 0
12, 109800, Note_on_c, 14, 45, 127
12, 109890, Note_on_c, 14, 45, 0
12, 109920, Note_on_c, 14, 47, 127
12, 110040, Note_on_c, 14, 47, 0
12, 110040, Note_on_c, 14, 43, 127
12, 110160, Note_on_c, 14, 43, 0
12, 111120, Note_on_c, 14, 53, 127
12, 111240, Note_on_c, 14, 53, 0
12, 111240, Note_on_c, 14, 48, 127
12, 111360, Note_on_c, 14, 48, 0
12, 111600, Note_on_c, 14, 53, 127
12, 111720, Note_on_c, 14, 53, 0
12, 111720, Note_on_c, 14, 48, 127
12, 111830, Note_on_c, 14, 48, 0
12, 111840, Note_on_c, 14, 55, 127
12, 111960, Note_on_c, 14, 55, 0
12, 112080, Note_on_c, 14, 43, 127
12, 112200, Note_on_c, 14, 43, 0
12, 112320, Note_on_c, 14, 60, 127
12, 112440, Note_on_c, 14, 60, 0
12, 112440, Note_on_c, 14, 55, 127
12, 112560, Note_on_c, 14, 55, 0
12, 112560, Note_on_c, 14, 56, 127
12, 112680, Note_on_c, 14, 56, 0
12, 112680, Note_on_c, 14, 51, 127
12, 112800, Note_on_c, 14, 51, 0
12, 112800, Note_on_c, 14, 53, 127
12, 112920, Note_on_c, 14, 53, 0
12, 112920, Note_on_c, 14, 48, 127
12, 113040, Note_on_c, 14, 48, 0
12, 113280, Note_on_c, 14, 53, 127
12, 113400, Note_on_c, 14, 53, 0
12, 113400, Note_on_c, 14, 48, 127
12, 113510, Note_on_c, 14, 48, 0
12, 113520, Note_on_c, 14, 53, 127
12, 113640, Note_on_c, 14, 53, 0
12, 113640, Note_on_c, 14, 48, 127
12, 113750, Note_on_c, 14, 48, 0
12, 113760, Note_on_c, 14, 55, 127
12, 113880, Note_on_c, 14, 55, 0
12, 114000, Note_on_c, 14, 43, 127
12, 114120, Note_on_c, 14, 43, 0
12, 114240, Note_on_c, 14, 48, 127
12, 114360, Note_on_c, 14, 48, 0
12, 115500, Note_on_c, 14, 43, 127
12, 115550, Note_on_c, 14, 43, 0
12, 115560, Note_on_c, 14, 43, 127
12, 115610, Note_on_c, 14, 43, 0
12, 115620, Note_on_c, 14, 43, 127
12, 115670, Note_on_c, 14, 43, 0
12, 115680, Note_on_c, 14, 48, 127
12, 115730, Note_on_c, 14, 48, 0
12, 115740, Note_on_c, 14, 43, 127
12, 115790, Note_on_c, 14, 43, 0
12, 115800, Note_on_c, 14, 43, 127
12, 115850, Note_on_c, 14, 43, 0
12, 115860, Note_on_c, 14, 43, 127
12, 115910, Note_on_c, 14, 43, 0
12, 115920, Note_on_c, 14, 43, 127
12, 115970, Note_on_c, 14, 43, 0
12, 115980, Note_on_c, 14, 43, 127
12, 116030, Note_on_c, 14, 43, 0
12, 116040, Note_on_c, 14, 43, 127
12, 116090, Note_on_c, 14, 43, 0
12, 116100, Note_on_c, 14, 43, 127
12, 116150, Note_on_c, 14, 43, 0
12, 116160, Note_on_c, 14, 43, 127
12, 116210, Note_on_c, 14, 43, 0
12, 116220, Note_on_c, 14, 43, 127
12, 116270, Note_on_c, 14, 43, 0
12, 116280, Note_on_c, 14, 43, 127
12, 116330, Note_on_c, 14, 43, 0
12, 116340, Note_on_c, 14, 43, 127
12, 116390, Note_on_c, 14, 43, 0
12, 116400, Note_on_c, 14, 43, 127
12, 116450, Note_on_c, 14, 43, 0
12, 116460, Note_on_c, 14, 43, 127
12, 116510, Note_on_c, 14, 43, 0
12, 116520, Note_on_c, 14, 43, 127
12, 116570, Note_on_c, 14, 43, 0
12, 116580, Note_on_c, 14, 43, 127
12, 116630, Note_on_c, 14, 43, 0
12, 116640, Note_on_c, 14, 39, 127
12, 117360, Note_on_c, 14, 39, 0
12, 117420, Note_on_c, 14, 41, 127
12, 117470, Note_on_c, 14, 41, 0
12, 117480, Note_on_c, 14, 41, 127
12, 117530, Note_on_c, 14, 41, 0
12, 117540, Note_on_c, 14, 41, 127
12, 117590, Note_on_c, 14, 41, 0
12, 117600, Note_on_c, 14, 38, 127
12, 118560, Note_on_c, 14, 38, 0
12, 118800, Note_on_c, 14, 43, 50
12, 119280, Note_on_c, 14, 43, 0
12, 119280, Note_on_c, 14, 43, 50
12, 119760, Note_on_c, 14, 43, 0
12, 119760, Note_on_c, 14, 43, 50
12, 120240, Note_on_c, 14, 43, 0
12, 120240, Note_on_c, 14, 43, 50
12, 120530, Note_on_c, 14, 43, 0
12, 120540, Note_on_c, 14, 43, 100
12, 120590, Note_on_c, 14, 43, 0
12, 120600, Note_on_c, 14, 43, 100
12, 120650, Note_on_c, 14, 43, 0
12, 120660, Note_on_c, 14, 43, 100
12, 120710, Note_on_c, 14, 43, 0
12, 120720, Note_on_c, 14, 48, 100
12, 120840, Note_on_c, 14, 48, 0
12, 121020, Note_on_c, 14, 43, 100
12, 121070, Note_on_c, 14, 43, 0
12, 121080, Note_on_c, 14, 43, 100
12, 121130, Note_on_c, 14, 43, 0
12, 121140, Note_on_c, 14, 43, 100
12, 121190, Note_on_c, 14, 43, 0
12, 121200, Note_on_c, 14, 48, 100
12, 121320, Note_on_c, 14, 48, 0
12, 121500, Note_on_c, 14, 43, 101
12, 121550, Note_on_c, 14, 43, 0
12, 121560, Note_on_c, 14, 43, 102
12, 121610, Note_on_c, 14, 43, 0
12, 121620, Note_on_c, 14, 43, 104
12, 121670, Note_on_c, 14, 43, 0
12, 121680, Note_on_c, 14, 48, 105
12, 121790, Note_on_c, 14, 48, 0
12, 121800, Note_on_c, 14, 43, 108
12, 121910, Note_on_c, 14, 43, 0
12, 121920, Note_on_c, 14, 48, 110
12, 122030, Note_on_c, 14, 48, 0
12, 122040, Note_on_c, 14, 43, 113
12, 122150, Note_on_c, 14, 43, 0
12, 122160, Note_on_c, 14, 48, 116
12, 122270, Note_on_c, 14, 48, 0
12, 122280, Note_on_c, 14, 55, 118
12, 122390, Note_on_c, 14, 55, 0
12, 122400, Note_on_c, 14, 60, 121
12, 122510, Note_on_c, 14, 60, 0
12, 122520, Note_on_c, 14, 55, 124
12, 122630, Note_on_c, 14, 55, 0
12, 122640, Note_on_c, 14, 60, 127
12, 122760, Note_on_c, 14, 60, 0
12, 122880, Note_on_c, 14, 43, 127
12, 123000, Note_on_c, 14, 43, 0
12, 123120, Note_on_c, 14, 48, 127
12, 123240, Note_on_c, 14, 48, 0
12, 123240, End_track
13, 0, Start_track
13, 0, MIDI_port, 0
13, 0, Title_t, "Contrabassi"
13, 0, Program_c, 15, 48
13, 0, Control_c, 15, 7, 127
13, 0, Control_c, 15, 10, 120
13, 60, Note_on_c, 15, 43, 127
13, 110, Note_on_c, 15, 43, 0
13, 120, Note_on_c, 15, 43, 127
13, 170, Note_on_c, 15, 43, 0
13, 180, Note_on_c, 15, 43, 127
13, 230, Note_on_c, 15, 43, 0
13, 240, Note_on_c, 15, 39, 127
13, 480, Note_on_c, 15, 39, 0
13, 540, Note_on_c, 15, 41, 127
13, 590, Note_on_c, 15, 41, 0
13, 600, Note_on_c, 15, 41, 127
13, 650, Note_on_c, 15, 41, 0
13, 660, Note_on_c, 15, 41, 127
13, 710, Note_on_c, 15, 41, 0
13, 720, Note_on_c, 15, 38, 127
13, 1200, Note_on_c, 15, 38, 0
13, 4140, Note_on_c, 15, 35, 65
13, 4190, Note_on_c, 15, 35, 0
13, 4200, Note_on_c, 15, 35, 85
13, 4250, Note_on_c, 15, 35, 0
13, 4260, Note_on_c, 15, 35, 106
13, 4310, Note_on_c, 15, 35, 0
13, 4320, Note_on_c, 15, 36, 127
13, 4440, Note_on_c, 15, 36, 0
13, 4560, Note_on_c, 15, 32, 127
13, 4680, Note_on_c, 15, 32, 0
13, 4800, Note_on_c, 15, 31, 127
13, 4920, Note_on_c, 15, 31, 0
13, 5100, Note_on_c, 15, 32, 127
13, 5150, Note_on_c, 15, 32, 0
13, 5160, Note_on_c, 15, 32, 127
13, 5210, Note_on_c, 15, 32, 0
13, 5220, Note_on_c, 15, 32, 127
13, 5270, Note_on_c, 15, 32, 0
13, 5280, Note_on_c, 15, 29, 127
13, 5760, Note_on_c, 15, 29, 0
13, 6540, Note_on_c, 15, 31, 50
13, 6590, Note_on_c, 15, 31, 0
13, 6600, Note_on_c, 15, 31, 50
13, 6650, Note_on_c, 15, 31, 0
13, 6660, Note_on_c, 15, 31, 50
13, 6710, Note_on_c, 15, 31, 0
13, 6720, Note_on_c, 15, 36, 50
13, 6840, Note_on_c, 15, 36, 0
13, 7500, Note_on_c, 15, 31, 50
13, 7550, Note_on_c, 15, 31, 0
13, 7560, Note_on_c, 15, 31, 50
13, 7610, Note_on_c, 15, 31, 0
13, 7620, Note_on_c, 15, 31, 50
13, 7670, Note_on_c, 15, 31, 0
13, 7680, Note_on_c, 15, 36, 50
13, 7800, Note_on_c, 15, 36, 0
13, 7980, Note_on_c, 15, 36, 62
13, 8030, Note_on_c, 15, 36, 0
13, 8040, Note_on_c, 15, 36, 65
13, 8090, Note_on_c, 15, 36, 0
13, 8100, Note_on_c, 15, 36, 67
13, 8150, Note_on_c, 15, 36, 0
13, 8160, Note_on_c, 15, 36, 70
13, 8280, Note_on_c, 15, 36, 0
13, 8460, Note_on_c, 15, 36, 82
13, 8510, Note_on_c, 15, 36, 0
13, 8520, Note_on_c, 15, 36, 85
13, 8570, Note_on_c, 15, 36, 0
13, 8580, Note_on_c, 15, 36, 87
13, 8630, Note_on_c, 15, 36, 0
13, 8640, Note_on_c, 15, 36, 90
13, 8760, Note_on_c, 15, 36, 0
13, 8880, Note_on_c, 15, 36, 100
13, 9000, Note_on_c, 15, 36, 0
13, 9120, Note_on_c, 15, 36, 100
13, 9240, Note_on_c, 15, 36, 0
13, 9360, Note_on_c, 15, 36, 100
13, 9480, Note_on_c, 15, 36, 0
13, 9600, Note_on_c, 15, 36, 100
13, 9720, Note_on_c, 15, 36, 0
13, 9840, Note_on_c, 15, 36, 100
13, 9960, Note_on_c, 15, 36, 0
13, 10080, Note_on_c, 15, 36, 100
13, 10200, Note_on_c, 15, 36, 0
13, 10320, Note_on_c, 15, 36, 100
13, 11090, Note_on_c, 15, 36, 0
13, 11100, Note_on_c, 15, 36, 100
13, 11150, Note_on_c, 15, 36, 0
13, 11160, Note_on_c, 15, 36, 100
13, 11210, Note_on_c, 15, 36, 0
13, 11220, Note_on_c, 15, 36, 100
13, 11270, Note_on_c, 15, 36, 0
13, 11280, Note_on_c, 15, 31, 100
13, 12050, Note_on_c, 15, 31, 0
13, 12060, Note_on_c, 15, 31, 100
13, 12110, Note_on_c, 15, 31, 0
13, 12120, Note_on_c, 15, 36, 100
13, 12170, Note_on_c, 15, 36, 0
13, 12180, Note_on_c, 15, 36, 100
13, 12230, Note_on_c, 15, 36, 0
13, 12240, Note_on_c, 15, 36, 127
13, 12290, Note_on_c, 15, 36, 0
13, 12300, Note_on_c, 15, 36, 127
13, 12350, Note_on_c, 15, 36, 0
13, 12360, Note_on_c, 15, 36, 127
13, 12410, Note_on_c, 15, 36, 0
13, 12420, Note_on_c, 15, 36, 127
13, 12470, Note_on_c, 15, 36, 0
13, 12480, Note_on_c, 15, 36, 127
13, 12530, Note_on_c, 15, 36, 0
13, 12540, Note_on_c, 15, 36, 127
13, 12590, Note_on_c, 15, 36, 0
13, 12600, Note_on_c, 15, 36, 127
13, 12650, Note_on_c, 15, 36, 0
13, 12660, Note_on_c, 15, 36, 127
13, 12710, Note_on_c, 15, 36, 0
13, 12720, Note_on_c, 15, 36, 127
13, 12770, Note_on_c, 15, 36, 0
13, 12780, Note_on_c, 15, 36, 127
13, 12830, Note_on_c, 15, 36, 0
13, 12840, Note_on_c, 15, 36, 127
13, 12890, Note_on_c, 15, 36, 0
13, 12900, Note_on_c, 15, 36, 127
13, 12950, Note_on_c, 15, 36, 0
13, 12960, Note_on_c, 15, 36, 127
13, 13010, Note_on_c, 15, 36, 0
13, 13020, Note_on_c, 15, 36, 127
13, 13070, Note_on_c, 15, 36, 0
13, 13080, Note_on_c, 15, 36, 127
13, 13130, Note_on_c, 15, 36, 0
13, 13140, Note_on_c, 15, 36, 127
13, 13190, Note_on_c, 15, 36, 0
13, 13200, Note_on_c, 15, 36, 127
13, 13320, Note_on_c, 15, 36, 0
13, 13680, Note_on_c, 15, 38, 127
13, 13800, Note_on_c, 15, 38, 0
13, 15420, Note_on_c, 15, 34, 50
13, 15470, Note_on_c, 15, 34, 0
13, 15480, Note_on_c, 15, 34, 50
13, 15530, Note_on_c, 15, 34, 0
13, 15540, Note_on_c, 15, 34, 50
13, 15590, Note_on_c, 15, 34, 0
13, 15600, Note_on_c, 15, 39, 50
13, 15720, Note_on_c, 15, 39, 0
13, 16380, Note_on_c, 15, 34, 50
13, 16430, Note_on_c, 15, 34, 0
13, 16440, Note_on_c, 15, 34, 50
13, 16490, Note_on_c, 15, 34, 0
13, 16500, Note_on_c, 15, 34, 50
13, 16550, Note_on_c, 15, 34, 0
13, 16560, Note_on_c, 15, 39, 50
13, 16680, Note_on_c, 15, 39, 0
13, 17340, Note_on_c, 15, 34, 50
13, 17390, Note_on_c, 15, 34, 0
13, 17400, Note_on_c, 15, 34, 50
13, 17450, Note_on_c, 15, 34, 0
13, 17460, Note_on_c, 15, 34, 50
13, 17510, Note_on_c, 15, 34, 0
13, 17520, Note_on_c, 15, 39, 50
13, 17640, Note_on_c, 15, 39, 0
13, 18300, Note_on_c, 15, 36, 50
13, 18350, Note_on_c, 15, 36, 0
13, 18360, Note_on_c, 15, 36, 50
13, 18410, Note_on_c, 15, 36, 0
13, 18420, Note_on_c, 15, 36, 50
13, 18470, Note_on_c, 15, 36, 0
13, 18480, Note_on_c, 15, 41, 50
13, 18600, Note_on_c, 15, 41, 0
13, 19260, Note_on_c, 15, 39, 50
13, 19310, Note_on_c, 15, 39, 0
13, 19320, Note_on_c, 15, 39, 50
13, 19370, Note_on_c, 15, 39, 0
13, 19380, Note_on_c, 15, 39, 50
13, 19430, Note_on_c, 15, 39, 0
13, 19440, Note_on_c, 15, 44, 50
13, 19560, Note_on_c, 15, 44, 0
13, 19980, Note_on_c, 15, 45, 51
13, 20030, Note_on_c, 15, 45, 0
13, 20040, Note_on_c, 15, 45, 53
13, 20090, Note_on_c, 15, 45, 0
13, 20100, Note_on_c, 15, 45, 55
13, 20150, Note_on_c, 15, 45, 0
13, 20160, Note_on_c, 15, 45, 57
13, 20280, Note_on_c, 15, 45, 0
13, 20460, Note_on_c, 15, 46, 67
13, 20510, Note_on_c, 15, 46, 0
13, 20520, Note_on_c, 15, 46, 69
13, 20570, Note_on_c, 15, 46, 0
13, 20580, Note_on_c, 15, 46, 71
13, 20630, Note_on_c, 15, 46, 0
13, 20640, Note_on_c, 15, 46, 73
13, 20760, Note_on_c, 15, 46, 0
13, 20940, Note_on_c, 15, 47, 82
13, 20990, Note_on_c, 15, 47, 0
13, 21000, Note_on_c, 15, 47, 84
13, 21050, Note_on_c, 15, 47, 0
13, 21060, Note_on_c, 15, 47, 86
13, 21110, Note_on_c, 15, 47, 0
13, 21120, Note_on_c, 15, 47, 88
13, 21240, Note_on_c, 15, 47, 0
13, 21420, Note_on_c, 15, 48, 98
13, 21470, Note_on_c, 15, 48, 0
13, 21480, Note_on_c, 15, 48, 100
13, 21530, Note_on_c, 15, 48, 0
13, 21540, Note_on_c, 15, 48, 101
13, 21590, Note_on_c, 15, 48, 0
13, 21600, Note_on_c, 15, 48, 103
13, 21720, Note_on_c, 15, 48, 0
13, 21900, Note_on_c, 15, 48, 113
13, 21950, Note_on_c, 15, 48, 0
13, 21960, Note_on_c, 15, 48, 115
13, 22010, Note_on_c, 15, 48, 0
13, 22020, Note_on_c, 15, 48, 117
13, 22070, Note_on_c, 15, 48, 0
13, 22080, Note_on_c, 15, 48, 119
13, 22190, Note_on_c, 15, 48, 0
13, 22200, Note_on_c, 15, 48, 123
13, 22250, Note_on_c, 15, 48, 0
13, 22260, Note_on_c, 15, 48, 125
13, 22310, Note_on_c, 15, 48, 0
13, 22320, Note_on_c, 15, 50, 127
13, 22670, Note_on_c, 15, 50, 0
13, 22680, Note_on_c, 15, 38, 127
13, 22790, Note_on_c, 15, 38, 0
13, 22800, Note_on_c, 15, 39, 127
13, 22920, Note_on_c, 15, 39, 0
13, 23040, Note_on_c, 15, 41, 127
13, 23160, Note_on_c, 15, 41, 0
13, 23280, Note_on_c, 15, 43, 127
13, 23400, Note_on_c, 15, 43, 0
13, 23520, Note_on_c, 15, 44, 127
13, 23640, Note_on_c, 15, 44, 0
13, 23760, Note_on_c, 15, 46, 127
13, 23880, Note_on_c, 15, 46, 0
13, 24000, Note_on_c, 15, 34, 127
13, 24120, Note_on_c, 15, 34, 0
13, 24240, Note_on_c, 15, 38, 127
13, 24350, Note_on_c, 15, 38, 0
13, 24360, Note_on_c, 15, 41, 127
13, 24470, Note_on_c, 15, 41, 0
13, 24480, Note_on_c, 15, 38, 127
13, 24590, Note_on_c, 15, 38, 0
13, 24600, Note_on_c, 15, 41, 127
13, 24710, Note_on_c, 15, 41, 0
13, 24720, Note_on_c, 15, 39, 127
13, 24830, Note_on_c, 15, 39, 0
13, 24840, Note_on_c, 15, 43, 127
13, 24950, Note_on_c, 15, 43, 0
13, 24960, Note_on_c, 15, 41, 127
13, 25070, Note_on_c, 15, 41, 0
13, 25080, Note_on_c, 15, 44, 127
13, 25190, Note_on_c, 15, 44, 0
13, 25200, Note_on_c, 15, 43, 127
13, 25310, Note_on_c, 15, 43, 0
13, 25320, Note_on_c, 15, 46, 127
13, 25430, Note_on_c, 15, 46, 0
13, 25440, Note_on_c, 15, 44, 127
13, 25550, Note_on_c, 15, 44, 0
13, 25560, Note_on_c, 15, 48, 127
13, 25670, Note_on_c, 15, 48, 0
13, 25680, Note_on_c, 15, 46, 127
13, 25790, Note_on_c, 15, 46, 0
13, 25800, Note_on_c, 15, 34, 127
13, 25910, Note_on_c, 15, 34, 0
13, 25920, Note_on_c, 15, 46, 127
13, 26030, Note_on_c, 15, 46, 0
13, 26040, Note_on_c, 15, 34, 127
13, 26150, Note_on_c, 15, 34, 0
13, 26160, Note_on_c, 15, 39, 127
13, 26930, Note_on_c, 15, 39, 0
13, 26940, Note_on_c, 15, 34, 127
13, 26990, Note_on_c, 15, 34, 0
13, 27000, Note_on_c, 15, 34, 127
13, 27050, Note_on_c, 15, 34, 0
13, 27060, Note_on_c, 15, 34, 127
13, 27110, Note_on_c, 15, 34, 0
13, 27120, Note_on_c, 15, 39, 127
13, 27890, Note_on_c, 15, 39, 0
13, 27900, Note_on_c, 15, 34, 127
13, 27950, Note_on_c, 15, 34, 0
13, 27960, Note_on_c, 15, 34, 127
13, 28010, Note_on_c, 15, 34, 0
13, 28020, Note_on_c, 15, 34, 127
13, 28070, Note_on_c, 15, 34, 0
13, 28080, Note_on_c, 15, 39, 127
13, 28200, Note_on_c, 15, 39, 0
13, 28380, Note_on_c, 15, 34, 127
13, 28430, Note_on_c, 15, 34, 0
13, 28440, Note_on_c, 15, 34, 127
13, 28490, Note_on_c, 15, 34, 0
13, 28500, Note_on_c, 15, 34, 127
13, 28550, Note_on_c, 15, 34, 0
13, 28560, Note_on_c, 15, 39, 127
13, 28680, Note_on_c, 15, 39, 0
13, 28860, Note_on_c, 15, 34, 127
13, 28910, Note_on_c, 15, 34, 0
13, 28920, Note_on_c, 15, 34, 127
13, 28970, Note_on_c, 15, 34, 0
13, 28980, Note_on_c, 15, 34, 127
13, 29030, Note_on_c, 15, 34, 0
13, 29040, Note_on_c, 15, 39, 127
13, 29160, Note_on_c, 15, 39, 0
13, 30060, Note_on_c, 15, 37, 127
13, 30110, Note_on_c, 15, 37, 0
13, 30120, Note_on_c, 15, 37, 127
13, 30170, Note_on_c, 15, 37, 0
13, 30180, Note_on_c, 15, 37, 127
13, 30230, Note_on_c, 15, 37, 0
13, 30240, Note_on_c, 15, 36, 127
13, 30720, Note_on_c, 15, 36, 0
13, 34560, Program_c, 15, 45
13, 34680, Note_on_c, 15, 31, 50
13, 34800, Note_on_c, 15, 31, 0
13, 34800, Note_on_c, 15, 36, 50
13, 34920, Note_on_c, 15, 36, 0
13, 35040, Note_on_c, 15, 31, 50
13, 35160, Note_on_c, 15, 31, 0
13, 35280, Note_on_c, 15, 36, 50
13, 35400, Note_on_c, 15, 36, 0
13, 35520, Note_on_c, 15, 31, 50
13, 35640, Note_on_c, 15, 31, 0
13, 35760, Note_on_c, 15, 36, 50
13, 35880, Note_on_c, 15, 36, 0
13, 36240, Note_on_c, 15, 33, 83
13, 36360, Note_on_c, 15, 33, 0
13, 36480, Note_on_c, 15, 38, 50
13, 36600, Note_on_c, 15, 38, 0
13, 36720, Note_on_c, 15, 43, 50
13, 36840, Note_on_c, 15, 43, 0
13, 36960, Note_on_c, 15, 38, 50
13, 37080, Note_on_c, 15, 38, 0
13, 37200, Note_on_c, 15, 43, 50
13, 37320, Note_on_c, 15, 43, 0
13, 37440, Note_on_c, 15, 38, 50
13, 37560, Note_on_c, 15, 38, 0
13, 37679, Program_c, 15, 48
13, 37680, Note_on_c, 15, 31, 50
13, 37920, Note_on_c, 15, 31, 0
13, 37920, Note_on_c, 15, 31, 50
13, 37970, Note_on_c, 15, 31, 0
13, 37980, Note_on_c, 15, 31, 50
13, 38030, Note_on_c, 15, 31, 0
13, 38040, Note_on_c, 15, 31, 50
13, 38090, Note_on_c, 15, 31, 0
13, 38100, Note_on_c, 15, 31, 50
13, 38150, Note_on_c, 15, 31, 0
13, 38160, Note_on_c, 15, 33, 50
13, 38400, Note_on_c, 15, 33, 0
13, 38400, Note_on_c, 15, 33, 50
13, 38450, Note_on_c, 15, 33, 0
13, 38460, Note_on_c, 15, 33, 50
13, 38510, Note_on_c, 15, 33, 0
13, 38520, Note_on_c, 15, 33, 50
13, 38570, Note_on_c, 15, 33, 0
13, 38580, Note_on_c, 15, 33, 50
13, 38630, Note_on_c, 15, 33, 0
13, 38640, Note_on_c, 15, 33, 50
13, 38880, Note_on_c, 15, 33, 0
13, 38880, Note_on_c, 15, 33, 50
13, 38930, Note_on_c, 15, 33, 0
13, 38940, Note_on_c, 15, 33, 50
13, 38990, Note_on_c, 15, 33, 0
13, 39000, Note_on_c, 15, 33, 50
13, 39050, Note_on_c, 15, 33, 0
13, 39060, Note_on_c, 15, 33, 50
13, 39110, Note_on_c, 15, 33, 0
13, 39120, Note_on_c, 15, 34, 50
13, 39360, Note_on_c, 15, 34, 0
13, 39360, Note_on_c, 15, 34, 50
13, 39410, Note_on_c, 15, 34, 0
13, 39420, Note_on_c, 15, 34, 50
13, 39470, Note_on_c, 15, 34, 0
13, 39480, Note_on_c, 15, 34, 50
13, 39530, Note_on_c, 15, 34, 0
13, 39540, Note_on_c, 15, 34, 50
13, 39590, Note_on_c, 15, 34, 0
13, 39600, Note_on_c, 15, 34, 50
13, 39840, Note_on_c, 15, 34, 0
13, 39840, Note_on_c, 15, 34, 75
13, 39890, Note_on_c, 15, 34, 0
13, 39900, Note_on_c, 15, 34, 81
13, 39950, Note_on_c, 15, 34, 0
13, 39960, Note_on_c, 15, 34, 87
13, 40010, Note_on_c, 15, 34, 0
13, 40020, Note_on_c, 15, 34, 93
13, 40070, Note_on_c, 15, 34, 0
13, 40080, Note_on_c, 15, 36, 100
13, 40130, Note_on_c, 15, 36, 0
13, 40140, Note_on_c, 15, 36, 100
13, 40190, Note_on_c, 15, 36, 0
13, 40200, Note_on_c, 15, 36, 100
13, 40250, Note_on_c, 15, 36, 0
13, 40260, Note_on_c, 15, 36, 100
13, 40310, Note_on_c, 15, 36, 0
13, 40320, Note_on_c, 15, 36, 100
13, 40370, Note_on_c, 15, 36, 0
13, 40380, Note_on_c, 15, 36, 100
13, 40430, Note_on_c, 15, 36, 0
13, 40440, Note_on_c, 15, 36, 100
13, 40490, Note_on_c, 15, 36, 0
13, 40500, Note_on_c, 15, 36, 100
13, 40550, Note_on_c, 15, 36, 0
13, 40560, Note_on_c, 15, 36, 100
13, 40680, Note_on_c, 15, 36, 0
13, 40860, Note_on_c, 15, 37, 100
13, 40910, Note_on_c, 15, 37, 0
13, 40920, Note_on_c, 15, 37, 100
13, 40970, Note_on_c, 15, 37, 0
13, 40980, Note_on_c, 15, 37, 100
13, 41030, Note_on_c, 15, 37, 0
13, 41040, Note_on_c, 15, 37, 100
13, 41090, Note_on_c, 15, 37, 0
13, 41100, Note_on_c, 15, 37, 100
13, 41150, Note_on_c, 15, 37, 0
13, 41160, Note_on_c, 15, 37, 100
13, 41210, Note_on_c, 15, 37, 0
13, 41220, Note_on_c, 15, 37, 100
13, 41270, Note_on_c, 15, 37, 0
13, 41280, Note_on_c, 15, 37, 100
13, 41330, Note_on_c, 15, 37, 0
13, 41340, Note_on_c, 15, 37, 100
13, 41390, Note_on_c, 15, 37, 0
13, 41400, Note_on_c, 15, 37, 100
13, 41450, Note_on_c, 15, 37, 0
13, 41460, Note_on_c, 15, 37, 100
13, 41510, Note_on_c, 15, 37, 0
13, 41520, Note_on_c, 15, 37, 100
13, 41640, Note_on_c, 15, 37, 0
13, 41820, Note_on_c, 15, 38, 104
13, 41870, Note_on_c, 15, 38, 0
13, 41880, Note_on_c, 15, 38, 106
13, 41930, Note_on_c, 15, 38, 0
13, 41940, Note_on_c, 15, 38, 107
13, 41990, Note_on_c, 15, 38, 0
13, 42000, Note_on_c, 15, 38, 109
13, 42120, Note_on_c, 15, 38, 0
13, 42360, Note_on_c, 15, 40, 118
13, 42410, Note_on_c, 15, 40, 0
13, 42420, Note_on_c, 15, 40, 119
13, 42470, Note_on_c, 15, 40, 0
13, 42480, Note_on_c, 15, 40, 121
13, 42590, Note_on_c, 15, 40, 0
13, 42600, Note_on_c, 15, 42, 124
13, 42650, Note_on_c, 15, 42, 0
13, 42660, Note_on_c, 15, 42, 125
13, 42710, Note_on_c, 15, 42, 0
13, 42720, Note_on_c, 15, 42, 127
13, 42840, Note_on_c, 15, 42, 0
13, 43560, Note_on_c, 15, 48, 127
13, 43790, Note_on_c, 15, 48, 0
13, 43800, Note_on_c, 15, 45, 127
13, 43890, Note_on_c, 15, 45, 0
13, 43920, Note_on_c, 15, 42, 127
13, 44010, Note_on_c, 15, 42, 0
13, 44040, Note_on_c, 15, 38, 127
13, 44130, Note_on_c, 15, 38, 0
13, 44160, Note_on_c, 15, 36, 127
13, 44250, Note_on_c, 15, 36, 0
13, 44280, Note_on_c, 15, 33, 127
13, 44370, Note_on_c, 15, 33, 0
13, 44400, Note_on_c, 15, 30, 127
13, 44490, Note_on_c, 15, 30, 0
13, 44520, Note_on_c, 15, 34, 127
13, 44630, Note_on_c, 15, 34, 0
13, 44640, Note_on_c, 15, 31, 127
13, 44760, Note_on_c, 15, 31, 0
13, 45480, Note_on_c, 15, 53, 127
13, 45710, Note_on_c, 15, 53, 0
13, 45720, Note_on_c, 15, 50, 127
13, 45810, Note_on_c, 15, 50, 0
13, 45840, Note_on_c, 15, 47, 127
13, 45930, Note_on_c, 15, 47, 0
13, 45960, Note_on_c, 15, 43, 127
13, 46050, Note_on_c, 15, 43, 0
13, 46080, Note_on_c, 15, 41, 127
13, 46170, Note_on_c, 15, 41, 0
13, 46200, Note_on_c, 15, 38, 127
13, 46290, Note_on_c, 15, 38, 0
13, 46320, Note_on_c, 15, 35, 127
13, 46410, Note_on_c, 15, 35, 0
13, 46440, Note_on_c, 15, 31, 127
13, 46530, Note_on_c, 15, 31, 0
13, 46560, Note_on_c, 15, 36, 127
13, 46680, Note_on_c, 15, 36, 0
13, 47280, Note_on_c, 15, 31, 127
13, 47510, Note_on_c, 15, 31, 0
13, 47520, Note_on_c, 15, 32, 127
13, 47760, Note_on_c, 15, 32, 0
13, 48240, Note_on_c, 15, 31, 127
13, 48470, Note_on_c, 15, 31, 0
13, 48480, Note_on_c, 15, 32, 127
13, 48720, Note_on_c, 15, 32, 0
13, 49200, Note_on_c, 15, 34, 127
13, 49430, Note_on_c, 15, 34, 0
13, 49440, Note_on_c, 15, 36, 127
13, 49680, Note_on_c, 15, 36, 0
13, 50160, Note_on_c, 15, 37, 127
13, 50400, Note_on_c, 15, 37, 0
13, 50640, Note_on_c, 15, 39, 97
13, 50880, Note_on_c, 15, 39, 0
13, 51120, Note_on_c, 15, 41, 66
13, 51360, Note_on_c, 15, 41, 0
13, 51600, Note_on_c, 15, 30, 50
13, 51840, Note_on_c, 15, 30, 0
13, 52080, Note_on_c, 15, 30, 50
13, 52320, Note_on_c, 15, 30, 0
13, 52560, Note_on_c, 15, 30, 50
13, 52800, Note_on_c, 15, 30, 0
13, 53040, Note_on_c, 15, 30, 50
13, 53280, Note_on_c, 15, 30, 0
13, 53520, Note_on_c, 15, 30, 50
13, 53760, Note_on_c, 15, 30, 0
13, 54000, Note_on_c, 15, 30, 50
13, 54240, Note_on_c, 15, 30, 0
13, 54480, Note_on_c, 15, 30, 127
13, 54530, Note_on_c, 15, 30, 0
13, 54540, Note_on_c, 15, 38, 127
13, 54590, Note_on_c, 15, 38, 0
13, 54600, Note_on_c, 15, 38, 127
13, 54650, Note_on_c, 15, 38, 0
13, 54660, Note_on_c, 15, 38, 127
13, 54710, Note_on_c, 15, 38, 0
13, 54720, Note_on_c, 15, 35, 127
13, 54950, Note_on_c, 15, 35, 0
13, 54960, Note_on_c, 15, 36, 127
13, 55190, Note_on_c, 15, 36, 0
13, 55200, Note_on_c, 15, 33, 127
13, 55680, Note_on_c, 15, 33, 0
13, 55920, Note_on_c, 15, 35, 50
13, 56160, Note_on_c, 15, 35, 0
13, 56400, Note_on_c, 15, 35, 50
13, 56640, Note_on_c, 15, 35, 0
13, 56880, Note_on_c, 15, 35, 50
13, 57120, Note_on_c, 15, 35, 0
13, 57360, Note_on_c, 15, 35, 127
13, 57410, Note_on_c, 15, 35, 0
13, 57420, Note_on_c, 15, 44, 127
13, 57470, Note_on_c, 15, 44, 0
13, 57480, Note_on_c, 15, 44, 127
13, 57530, Note_on_c, 15, 44, 0
13, 57540, Note_on_c, 15, 44, 127
13, 57590, Note_on_c, 15, 44, 0
13, 57600, Note_on_c, 15, 41, 127
13, 57890, Note_on_c, 15, 41, 0
13, 57900, Note_on_c, 15, 44, 127
13, 57950, Note_on_c, 15, 44, 0
13, 57960, Note_on_c, 15, 44, 127
13, 58010, Note_on_c, 15, 44, 0
13, 58020, Note_on_c, 15, 44, 127
13, 58070, Note_on_c, 15, 44, 0
13, 58080, Note_on_c, 15, 41, 127
13, 58370, Note_on_c, 15, 41, 0
13, 58380, Note_on_c, 15, 44, 127
13, 58430, Note_on_c, 15, 44, 0
13, 58440, Note_on_c, 15, 44, 127
13, 58490, Note_on_c, 15, 44, 0
13, 58500, Note_on_c, 15, 44, 127
13, 58550, Note_on_c, 15, 44, 0
13, 58560, Note_on_c, 15, 41, 127
13, 58610, Note_on_c, 15, 41, 0
13, 58620, Note_on_c, 15, 44, 127
13, 58670, Note_on_c, 15, 44, 0
13, 58680, Note_on_c, 15, 44, 127
13, 58730, Note_on_c, 15, 44, 0
13, 58740, Note_on_c, 15, 44, 127
13, 58790, Note_on_c, 15, 44, 0
13, 58800, Note_on_c, 15, 41, 127
13, 58850, Note_on_c, 15, 41, 0
13, 58860, Note_on_c, 15, 44, 127
13, 58910, Note_on_c, 15, 44, 0
13, 58920, Note_on_c, 15, 44, 127
13, 58970, Note_on_c, 15, 44, 0
13, 58980, Note_on_c, 15, 44, 127
13, 59030, Note_on_c, 15, 44, 0
13, 59040, Note_on_c, 15, 41, 127
13, 59090, Note_on_c, 15, 41, 0
13, 59100, Note_on_c, 15, 44, 127
13, 59150, Note_on_c, 15, 44, 0
13, 59160, Note_on_c, 15, 44, 127
13, 59210, Note_on_c, 15, 44, 0
13, 59220, Note_on_c, 15, 44, 127
13, 59270, Note_on_c, 15, 44, 0
13, 59280, Note_on_c, 15, 41, 127
13, 59330, Note_on_c, 15, 41, 0
13, 59340, Note_on_c, 15, 43, 127
13, 59390, Note_on_c, 15, 43, 0
13, 59400, Note_on_c, 15, 43, 127
13, 59450, Note_on_c, 15, 43, 0
13, 59460, Note_on_c, 15, 43, 127
13, 59510, Note_on_c, 15, 43, 0
13, 59520, Note_on_c, 15, 39, 127
13, 60240, Note_on_c, 15, 39, 0
13, 60300, Note_on_c, 15, 41, 127
13, 60350, Note_on_c, 15, 41, 0
13, 60360, Note_on_c, 15, 41, 127
13, 60410, Note_on_c, 15, 41, 0
13, 60420, Note_on_c, 15, 41, 127
13, 60470, Note_on_c, 15, 41, 0
13, 60480, Note_on_c, 15, 38, 127
13, 61440, Note_on_c, 15, 38, 0
13, 61560, Program_c, 15, 45
13, 61680, Note_on_c, 15, 36, 50
13, 61800, Note_on_c, 15, 36, 0
13, 62160, Note_on_c, 15, 36, 50
13, 62280, Note_on_c, 15, 36, 0
13, 62640, Note_on_c, 15, 35, 50
13, 62760, Note_on_c, 15, 35, 0
13, 63120, Note_on_c, 15, 35, 50
13, 63240, Note_on_c, 15, 35, 0
13, 63600, Note_on_c, 15, 36, 50
13, 63720, Note_on_c, 15, 36, 0
13, 63840, Note_on_c, 15, 35, 50
13, 63960, Note_on_c, 15, 35, 0
13, 64080, Note_on_c, 15, 36, 50
13, 64200, Note_on_c, 15, 36, 0
13, 64320, Note_on_c, 15, 31, 50
13, 64440, Note_on_c, 15, 31, 0
13, 64560, Note_on_c, 15, 36, 50
13, 64680, Note_on_c, 15, 36, 0
13, 64800, Note_on_c, 15, 32, 50
13, 64920, Note_on_c, 15, 32, 0
13, 64980, Program_c, 15, 48
13, 65040, Note_on_c, 15, 31, 50
13, 65160, Note_on_c, 15, 31, 0
13, 67020, Note_on_c, 15, 31, 50
13, 67070, Note_on_c, 15, 31, 0
13, 67080, Note_on_c, 15, 31, 50
13, 67130, Note_on_c, 15, 31, 0
13, 67140, Note_on_c, 15, 31, 50
13, 67190, Note_on_c, 15, 31, 0
13, 67200, Note_on_c, 15, 36, 50
13, 67250, Note_on_c, 15, 36, 0
13, 67260, Note_on_c, 15, 44, 53
13, 67310, Note_on_c, 15, 44, 0
13, 67320, Note_on_c, 15, 44, 56
13, 67370, Note_on_c, 15, 44, 0
13, 67380, Note_on_c, 15, 44, 59
13, 67430, Note_on_c, 15, 44, 0
13, 67440, Note_on_c, 15, 41, 62
13, 67490, Note_on_c, 15, 41, 0
13, 67500, Note_on_c, 15, 38, 65
13, 67550, Note_on_c, 15, 38, 0
13, 67560, Note_on_c, 15, 38, 68
13, 67610, Note_on_c, 15, 38, 0
13, 67620, Note_on_c, 15, 38, 71
13, 67670, Note_on_c, 15, 38, 0
13, 67680, Note_on_c, 15, 35, 75
13, 67730, Note_on_c, 15, 35, 0
13, 67740, Note_on_c, 15, 32, 78
13, 67790, Note_on_c, 15, 32, 0
13, 67800, Note_on_c, 15, 32, 81
13, 67850, Note_on_c, 15, 32, 0
13, 67860, Note_on_c, 15, 32, 84
13, 67910, Note_on_c, 15, 32, 0
13, 67920, Note_on_c, 15, 31, 87
13, 67970, Note_on_c, 15, 31, 0
13, 67980, Note_on_c, 15, 43, 90
13, 68030, Note_on_c, 15, 43, 0
13, 68040, Note_on_c, 15, 43, 93
13, 68090, Note_on_c, 15, 43, 0
13, 68100, Note_on_c, 15, 43, 96
13, 68150, Note_on_c, 15, 43, 0
13, 68160, Note_on_c, 15, 36, 100
13, 68210, Note_on_c, 15, 36, 0
13, 68220, Note_on_c, 15, 36, 100
13, 68270, Note_on_c, 15, 36, 0
13, 68280, Note_on_c, 15, 36, 100
13, 68330, Note_on_c, 15, 36, 0
13, 68340, Note_on_c, 15, 36, 100
13, 68390, Note_on_c, 15, 36, 0
13, 68400, Note_on_c, 15, 36, 100
13, 68640, Note_on_c, 15, 36, 0
13, 68640, Note_on_c, 15, 36, 100
13, 68690, Note_on_c, 15, 36, 0
13, 68700, Note_on_c, 15, 36, 100
13, 68750, Note_on_c, 15, 36, 0
13, 68760, Note_on_c, 15, 36, 100
13, 68810, Note_on_c, 15, 36, 0
13, 68820, Note_on_c, 15, 36, 100
13, 68870, Note_on_c, 15, 36, 0
13, 68880, Note_on_c, 15, 36, 100
13, 69120, Note_on_c, 15, 36, 0
13, 69120, Note_on_c, 15, 36, 100
13, 69170, Note_on_c, 15, 36, 0
13, 69180, Note_on_c, 15, 36, 100
13, 69230, Note_on_c, 15, 36, 0
13, 69240, Note_on_c, 15, 36, 100
13, 69290, Note_on_c, 15, 36, 0
13, 69300, Note_on_c, 15, 36, 100
13, 69350, Note_on_c, 15, 36, 0
13, 69360, Note_on_c, 15, 36, 100
13, 69480, Note_on_c, 15, 36, 0
13, 69600, Note_on_c, 15, 36, 100
13, 69720, Note_on_c, 15, 36, 0
13, 69840, Note_on_c, 15, 36, 100
13, 69960, Note_on_c, 15, 36, 0
13, 70080, Note_on_c, 15, 36, 100
13, 70200, Note_on_c, 15, 36, 0
13, 70320, Note_on_c, 15, 36, 100
13, 70440, Note_on_c, 15, 36, 0
13, 70560, Note_on_c, 15, 36, 100
13, 70680, Note_on_c, 15, 36, 0
13, 70800, Note_on_c, 15, 36, 100
13, 71280, Note_on_c, 15, 36, 0
13, 71280, Note_on_c, 15, 36, 100
13, 71520, Note_on_c, 15, 36, 0
13, 71520, Note_on_c, 15, 36, 100
13, 71570, Note_on_c, 15, 36, 0
13, 71580, Note_on_c, 15, 36, 100
13, 71630, Note_on_c, 15, 36, 0
13, 71640, Note_on_c, 15, 36, 100
13, 71690, Note_on_c, 15, 36, 0
13, 71700, Note_on_c, 15, 36, 100
13, 71750, Note_on_c, 15, 36, 0
13, 71760, Note_on_c, 15, 31, 100
13, 72240, Note_on_c, 15, 31, 0
13, 72240, Note_on_c, 15, 31, 100
13, 72530, Note_on_c, 15, 31, 0
13, 72540, Note_on_c, 15, 31, 100
13, 72590, Note_on_c, 15, 31, 0
13, 72600, Note_on_c, 15, 36, 100
13, 72650, Note_on_c, 15, 36, 0
13, 72660, Note_on_c, 15, 36, 100
13, 72710, Note_on_c, 15, 36, 0
13, 72720, Note_on_c, 15, 36, 127
13, 72770, Note_on_c, 15, 36, 0
13, 72780, Note_on_c, 15, 51, 127
13, 72830, Note_on_c, 15, 51, 0
13, 72840, Note_on_c, 15, 51, 127
13, 72890, Note_on_c, 15, 51, 0
13, 72900, Note_on_c, 15, 51, 127
13, 72950, Note_on_c, 15, 51, 0
13, 72960, Note_on_c, 15, 48, 127
13, 73010, Note_on_c, 15, 48, 0
13, 73020, Note_on_c, 15, 45, 127
13, 73070, Note_on_c, 15, 45, 0
13, 73080, Note_on_c, 15, 45, 127
13, 73130, Note_on_c, 15, 45, 0
13, 73140, Note_on_c, 15, 45, 127
13, 73190, Note_on_c, 15, 45, 0
13, 73200, Note_on_c, 15, 42, 127
13, 73250, Note_on_c, 15, 42, 0
13, 73260, Note_on_c, 15, 39, 127
13, 73310, Note_on_c, 15, 39, 0
13, 73320, Note_on_c, 15, 39, 127
13, 73370, Note_on_c, 15, 39, 0
13, 73380, Note_on_c, 15, 39, 127
13, 73430, Note_on_c, 15, 39, 0
13, 73440, Note_on_c, 15, 36, 127
13, 73490, Note_on_c, 15, 36, 0
13, 73500, Note_on_c, 15, 33, 127
13, 73550, Note_on_c, 15, 33, 0
13, 73560, Note_on_c, 15, 33, 127
13, 73610, Note_on_c, 15, 33, 0
13, 73620, Note_on_c, 15, 33, 127
13, 73670, Note_on_c, 15, 33, 0
13, 73680, Note_on_c, 15, 36, 127
13, 73800, Note_on_c, 15, 36, 0
13, 74160, Note_on_c, 15, 35, 127
13, 74280, Note_on_c, 15, 35, 0
13, 75900, Note_on_c, 15, 31, 50
13, 75950, Note_on_c, 15, 31, 0
13, 75960, Note_on_c, 15, 31, 50
13, 76010, Note_on_c, 15, 31, 0
13, 76020, Note_on_c, 15, 31, 50
13, 76070, Note_on_c, 15, 31, 0
13, 76080, Note_on_c, 15, 36, 50
13, 76200, Note_on_c, 15, 36, 0
13, 77820, Note_on_c, 15, 31, 50
13, 77870, Note_on_c, 15, 31, 0
13, 77880, Note_on_c, 15, 31, 50
13, 77930, Note_on_c, 15, 31, 0
13, 77940, Note_on_c, 15, 31, 50
13, 77990, Note_on_c, 15, 31, 0
13, 78000, Note_on_c, 15, 36, 50
13, 78120, Note_on_c, 15, 36, 0
13, 79740, Note_on_c, 15, 36, 50
13, 79790, Note_on_c, 15, 36, 0
13, 79800, Note_on_c, 15, 36, 50
13, 79850, Note_on_c, 15, 36, 0
13, 79860, Note_on_c, 15, 36, 50
13, 79910, Note_on_c, 15, 36, 0
13, 79920, Note_on_c, 15, 41, 50
13, 80040, Note_on_c, 15, 41, 0
13, 80700, Note_on_c, 15, 38, 50
13, 80750, Note_on_c, 15, 38, 0
13, 80760, Note_on_c, 15, 38, 50
13, 80810, Note_on_c, 15, 38, 0
13, 80820, Note_on_c, 15, 38, 50
13, 80870, Note_on_c, 15, 38, 0
13, 80880, Note_on_c, 15, 43, 50
13, 81000, Note_on_c, 15, 43, 0
13, 81420, Note_on_c, 15, 44, 56
13, 81470, Note_on_c, 15, 44, 0
13, 81480, Note_on_c, 15, 44, 57
13, 81530, Note_on_c, 15, 44, 0
13, 81540, Note_on_c, 15, 44, 58
13, 81590, Note_on_c, 15, 44, 0
13, 81600, Note_on_c, 15, 44, 60
13, 81720, Note_on_c, 15, 44, 0
13, 81900, Note_on_c, 15, 47, 66
13, 81950, Note_on_c, 15, 47, 0
13, 81960, Note_on_c, 15, 47, 67
13, 82010, Note_on_c, 15, 47, 0
13, 82020, Note_on_c, 15, 47, 69
13, 82070, Note_on_c, 15, 47, 0
13, 82080, Note_on_c, 15, 47, 70
13, 82200, Note_on_c, 15, 47, 0
13, 82380, Note_on_c, 15, 50, 76
13, 82430, Note_on_c, 15, 50, 0
13, 82440, Note_on_c, 15, 50, 78
13, 82490, Note_on_c, 15, 50, 0
13, 82500, Note_on_c, 15, 50, 79
13, 82550, Note_on_c, 15, 50, 0
13, 82560, Note_on_c, 15, 50, 80
13, 82680, Note_on_c, 15, 50, 0
13, 82860, Note_on_c, 15, 50, 87
13, 82910, Note_on_c, 15, 50, 0
13, 82920, Note_on_c, 15, 50, 88
13, 82970, Note_on_c, 15, 50, 0
13, 82980, Note_on_c, 15, 50, 89
13, 83030, Note_on_c, 15, 50, 0
13, 83040, Note_on_c, 15, 50, 91
13, 83160, Note_on_c, 15, 50, 0
13, 83340, Note_on_c, 15, 50, 97
13, 83390, Note_on_c, 15, 50, 0
13, 83400, Note_on_c, 15, 50, 98
13, 83450, Note_on_c, 15, 50, 0
13, 83460, Note_on_c, 15, 50, 100
13, 83510, Note_on_c, 15, 50, 0
13, 83520, Note_on_c, 15, 50, 101
13, 83640, Note_on_c, 15, 50, 0
13, 83880, Note_on_c, 15, 50, 109
13, 84000, Note_on_c, 15, 50, 0
13, 84120, Note_on_c, 15, 50, 114
13, 84240, Note_on_c, 15, 50, 0
13, 84360, Note_on_c, 15, 50, 119
13, 84480, Note_on_c, 15, 50, 0
13, 84600, Note_on_c, 15, 50, 124
13, 84710, Note_on_c, 15, 50, 0
13, 84720, Note_on_c, 15, 50, 127
13, 85070, Note_on_c, 15, 50, 0
13, 85080, Note_on_c, 15, 47, 127
13, 85190, Note_on_c, 15, 47, 0
13, 85200, Note_on_c, 15, 48, 127
13, 85320, Note_on_c, 15, 48, 0
13, 85440, Note_on_c, 15, 50, 127
13, 85560, Note_on_c, 15, 50, 0
13, 85680, Note_on_c, 15, 52, 127
13, 85800, Note_on_c, 15, 52, 0
13, 85920, Note_on_c, 15, 53, 127
13, 86040, Note_on_c, 15, 53, 0
13, 86160, Note_on_c, 15, 55, 127
13, 86280, Note_on_c, 15, 55, 0
13, 86400, Note_on_c, 15, 43, 127
13, 86520, Note_on_c, 15, 43, 0
13, 86640, Note_on_c, 15, 35, 127
13, 86750, Note_on_c, 15, 35, 0
13, 86760, Note_on_c, 15, 38, 127
13, 86870, Note_on_c, 15, 38, 0
13, 86880, Note_on_c, 15, 35, 127
13, 86990, Note_on_c, 15, 35, 0
13, 87000, Note_on_c, 15, 38, 127
13, 87110, Note_on_c, 15, 38, 0
13, 87120, Note_on_c, 15, 36, 127
13, 87230, Note_on_c, 15, 36, 0
13, 87240, Note_on_c, 15, 40, 127
13, 87350, Note_on_c, 15, 40, 0
13, 87360, Note_on_c, 15, 38, 127
13, 87470, Note_on_c, 15, 38, 0
13, 87480, Note_on_c, 15, 41, 127
13, 87590, Note_on_c, 15, 41, 0
13, 87600, Note_on_c, 15, 40, 127
13, 87710, Note_on_c, 15, 40, 0
13, 87720, Note_on_c, 15, 43, 127
13, 87830, Note_on_c, 15, 43, 0
13, 87840, Note_on_c, 15, 41, 127
13, 87950, Note_on_c, 15, 41, 0
13, 87960, Note_on_c, 15, 45, 127
13, 88070, Note_on_c, 15, 45, 0
13, 88080, Note_on_c, 15, 43, 127
13, 88190, Note_on_c, 15, 43, 0
13, 88200, Note_on_c, 15, 31, 127
13, 88310, Note_on_c, 15, 31, 0
13, 88320, Note_on_c, 15, 43, 127
13, 88430, Note_on_c, 15, 43, 0
13, 88440, Note_on_c, 15, 31, 127
13, 88550, Note_on_c, 15, 31, 0
13, 88560, Note_on_c, 15, 36, 127
13, 89040, Note_on_c, 15, 36, 0
13, 89040, Note_on_c, 15, 36, 127
13, 89330, Note_on_c, 15, 36, 0
13, 89340, Note_on_c, 15, 31, 127
13, 89390, Note_on_c, 15, 31, 0
13, 89400, Note_on_c, 15, 31, 127
13, 89450, Note_on_c, 15, 31, 0
13, 89460, Note_on_c, 15, 31, 127
13, 89510, Note_on_c, 15, 31, 0
13, 89520, Note_on_c, 15, 36, 127
13, 90000, Note_on_c, 15, 36, 0
13, 90000, Note_on_c, 15, 36, 127
13, 90290, Note_on_c, 15, 36, 0
13, 90300, Note_on_c, 15, 31, 127
13, 90350, Note_on_c, 15, 31, 0
13, 90360, Note_on_c, 15, 31, 127
13, 90410, Note_on_c, 15, 31, 0
13, 90420, Note_on_c, 15, 31, 127
13, 90470, Note_on_c, 15, 31, 0
13, 90480, Note_on_c, 15, 36, 127
13, 90600, Note_on_c, 15, 36, 0
13, 90780, Note_on_c, 15, 31, 127
13, 90830, Note_on_c, 15, 31, 0
13, 90840, Note_on_c, 15, 31, 127
13, 90890, Note_on_c, 15, 31, 0
13, 90900, Note_on_c, 15, 31, 127
13, 90950, Note_on_c, 15, 31, 0
13, 90960, Note_on_c, 15, 36, 127
13, 91080, Note_on_c, 15, 36, 0
13, 91260, Note_on_c, 15, 31, 127
13, 91310, Note_on_c, 15, 31, 0
13, 91320, Note_on_c, 15, 31, 127
13, 91370, Note_on_c, 15, 31, 0
13, 91380, Note_on_c, 15, 31, 127
13, 91430, Note_on_c, 15, 31, 0
13, 91440, Note_on_c, 15, 36, 127
13, 91500, Note_on_c, 15, 36, 0
13, 91500, Note_on_c, 15, 36, 127
13, 91680, Note_on_c, 15, 36, 0
13, 91680, Note_on_c, 15, 36, 127
13, 91730, Note_on_c, 15, 36, 0
13, 91740, Note_on_c, 15, 36, 127
13, 91790, Note_on_c, 15, 36, 0
13, 91800, Note_on_c, 15, 36, 127
13, 91850, Note_on_c, 15, 36, 0
13, 91860, Note_on_c, 15, 36, 127
13, 91910, Note_on_c, 15, 36, 0
13, 91920, Note_on_c, 15, 32, 127
13, 91980, Note_on_c, 15, 32, 0
13, 91980, Note_on_c, 15, 32, 127
13, 92160, Note_on_c, 15, 32, 0
13, 92160, Note_on_c, 15, 32, 127
13, 92210, Note_on_c, 15, 32, 0
13, 92220, Note_on_c, 15, 32, 127
13, 92270, Note_on_c, 15, 32, 0
13, 92280, Note_on_c, 15, 32, 127
13, 92330, Note_on_c, 15, 32, 0
13, 92340, Note_on_c, 15, 32, 127
13, 92390, Note_on_c, 15, 32, 0
13, 92400, Note_on_c, 15, 40, 127
13, 92460, Note_on_c, 15, 40, 0
13, 92460, Note_on_c, 15, 40, 127
13, 92640, Note_on_c, 15, 40, 0
13, 92640, Note_on_c, 15, 40, 127
13, 92690, Note_on_c, 15, 40, 0
13, 92700, Note_on_c, 15, 40, 127
13, 92750, Note_on_c, 15, 40, 0
13, 92760, Note_on_c, 15, 40, 127
13, 92810, Note_on_c, 15, 40, 0
13, 92820, Note_on_c, 15, 40, 127
13, 92870, Note_on_c, 15, 40, 0
13, 92880, Note_on_c, 15, 41, 127
13, 92940, Note_on_c, 15, 41, 0
13, 92940, Note_on_c, 15, 41, 127
13, 93120, Note_on_c, 15, 41, 0
13, 93120, Note_on_c, 15, 41, 127
13, 93170, Note_on_c, 15, 41, 0
13, 93180, Note_on_c, 15, 41, 127
13, 93230, Note_on_c, 15, 41, 0
13, 93240, Note_on_c, 15, 41, 127
13, 93290, Note_on_c, 15, 41, 0
13, 93300, Note_on_c, 15, 41, 127
13, 93350, Note_on_c, 15, 41, 0
13, 93360, Note_on_c, 15, 29, 127
13, 93410, Note_on_c, 15, 29, 0
13, 93420, Note_on_c, 15, 41, 127
13, 93470, Note_on_c, 15, 41, 0
13, 93480, Note_on_c, 15, 41, 127
13, 93530, Note_on_c, 15, 41, 0
13, 93540, Note_on_c, 15, 41, 127
13, 93590, Note_on_c, 15, 41, 0
13, 93600, Note_on_c, 15, 41, 127
13, 93650, Note_on_c, 15, 41, 0
13, 93660, Note_on_c, 15, 41, 127
13, 93710, Note_on_c, 15, 41, 0
13, 93720, Note_on_c, 15, 41, 127
13, 93770, Note_on_c, 15, 41, 0
13, 93780, Note_on_c, 15, 41, 127
13, 93830, Note_on_c, 15, 41, 0
13, 93840, Note_on_c, 15, 41, 127
13, 93890, Note_on_c, 15, 41, 0
13, 93900, Note_on_c, 15, 41, 127
13, 93950, Note_on_c, 15, 41, 0
13, 93960, Note_on_c, 15, 41, 127
13, 94010, Note_on_c, 15, 41, 0
13, 94020, Note_on_c, 15, 41, 127
13, 94070, Note_on_c, 15, 41, 0
13, 94080, Note_on_c, 15, 41, 127
13, 94130, Note_on_c, 15, 41, 0
13, 94140, Note_on_c, 15, 41, 127
13, 94190, Note_on_c, 15, 41, 0
13, 94200, Note_on_c, 15, 41, 127
13, 94250, Note_on_c, 15, 41, 0
13, 94260, Note_on_c, 15, 41, 127
13, 94310, Note_on_c, 15, 41, 0
13, 94320, Note_on_c, 15, 41, 127
13, 94440, Note_on_c, 15, 41, 0
13, 95340, Note_on_c, 15, 30, 127
13, 95390, Note_on_c, 15, 30, 0
13, 95400, Note_on_c, 15, 30, 127
13, 95450, Note_on_c, 15, 30, 0
13, 95460, Note_on_c, 15, 30, 127
13, 95510, Note_on_c, 15, 30, 0
13, 95520, Note_on_c, 15, 30, 127
13, 95570, Note_on_c, 15, 30, 0
13, 95580, Note_on_c, 15, 42, 127
13, 95630, Note_on_c, 15, 42, 0
13, 95640, Note_on_c, 15, 42, 127
13, 95690, Note_on_c, 15, 42, 0
13, 95700, Note_on_c, 15, 42, 127
13, 95750, Note_on_c, 15, 42, 0
13, 95760, Note_on_c, 15, 42, 127
13, 95810, Note_on_c, 15, 42, 0
13, 95820, Note_on_c, 15, 42, 127
13, 95870, Note_on_c, 15, 42, 0
13, 95880, Note_on_c, 15, 42, 127
13, 95930, Note_on_c, 15, 42, 0
13, 95940, Note_on_c, 15, 42, 127
13, 95990, Note_on_c, 15, 42, 0
13, 96000, Note_on_c, 15, 42, 127
13, 96050, Note_on_c, 15, 42, 0
13, 96060, Note_on_c, 15, 42, 127
13, 96110, Note_on_c, 15, 42, 0
13, 96120, Note_on_c, 15, 42, 127
13, 96170, Note_on_c, 15, 42, 0
13, 96180, Note_on_c, 15, 42, 127
13, 96230, Note_on_c, 15, 42, 0
13, 96240, Note_on_c, 15, 42, 127
13, 96290, Note_on_c, 15, 42, 0
13, 96300, Note_on_c, 15, 42, 127
13, 96350, Note_on_c, 15, 42, 0
13, 96360, Note_on_c, 15, 42, 127
13, 96410, Note_on_c, 15, 42, 0
13, 96420, Note_on_c, 15, 42, 127
13, 96470, Note_on_c, 15, 42, 0
13, 96480, Note_on_c, 15, 42, 127
13, 96600, Note_on_c, 15, 42, 0
13, 97440, Note_on_c, 15, 31, 100
13, 97560, Note_on_c, 15, 31, 0
13, 98400, Note_on_c, 15, 31, 100
13, 98520, Note_on_c, 15, 31, 0
13, 100320, Note_on_c, 15, 44, 100
13, 100430, Note_on_c, 15, 44, 0
13, 100440, Note_on_c, 15, 46, 100
13, 100550, Note_on_c, 15, 46, 0
13, 100560, Note_on_c, 15, 43, 100
13, 100670, Note_on_c, 15, 43, 0
13, 100680, Note_on_c, 15, 44, 100
13, 100790, Note_on_c, 15, 44, 0
13, 100800, Note_on_c, 15, 41, 100
13, 100910, Note_on_c, 15, 41, 0
13, 100920, Note_on_c, 15, 43, 100
13, 101030, Note_on_c, 15, 43, 0
13, 101040, Note_on_c, 15, 39, 100
13, 101150, Note_on_c, 15, 39, 0
13, 101160, Note_on_c, 15, 41, 100
13, 101270, Note_on_c, 15, 41, 0
13, 101280, Note_on_c, 15, 38, 100
13, 101390, Note_on_c, 15, 38, 0
13, 101400, Note_on_c, 15, 36, 100
13, 101510, Note_on_c, 15, 36, 0
13, 101520, Note_on_c, 15, 35, 100
13, 101630, Note_on_c, 15, 35, 0
13, 101640, Note_on_c, 15, 36, 100
13, 101750, Note_on_c, 15, 36, 0
13, 101760, Note_on_c, 15, 38, 100
13, 101870, Note_on_c, 15, 38, 0
13, 101880, Note_on_c, 15, 36, 100
13, 101990, Note_on_c, 15, 36, 0
13, 102000, Note_on_c, 15, 38, 100
13, 102110, Note_on_c, 15, 38, 0
13, 102120, Note_on_c, 15, 40, 102
13, 102230, Note_on_c, 15, 40, 0
13, 102240, Note_on_c, 15, 41, 105
13, 102350, Note_on_c, 15, 41, 0
13, 102360, Note_on_c, 15, 40, 108
13, 102470, Note_on_c, 15, 40, 0
13, 102480, Note_on_c, 15, 41, 110
13, 102590, Note_on_c, 15, 41, 0
13, 102600, Note_on_c, 15, 43, 113
13, 102710, Note_on_c, 15, 43, 0
13, 102720, Note_on_c, 15, 44, 116
13, 102830, Note_on_c, 15, 44, 0
13, 102840, Note_on_c, 15, 43, 118
13, 102950, Note_on_c, 15, 43, 0
13, 102960, Note_on_c, 15, 45, 121
13, 103070, Note_on_c, 15, 45, 0
13, 103080, Note_on_c, 15, 47, 124
13, 103190, Note_on_c, 15, 47, 0
13, 103200, Note_on_c, 15, 48, 127
13, 103670, Note_on_c, 15, 48, 0
13, 103680, Note_on_c, 15, 44, 127
13, 104150, Note_on_c, 15, 44, 0
13, 104160, Note_on_c, 15, 39, 127
13, 104630, Note_on_c, 15, 39, 0
13, 104640, Note_on_c, 15, 41, 127
13, 104870, Note_on_c, 15, 41, 0
13, 104880, Note_on_c, 15, 39, 127
13, 105110, Note_on_c, 15, 39, 0
13, 105120, Note_on_c, 15, 38, 127
13, 105350, Note_on_c, 15, 38, 0
13, 105360, Note_on_c, 15, 41, 127
13, 105590, Note_on_c, 15, 41, 0
13, 105600, Note_on_c, 15, 39, 127
13, 105690, Note_on_c, 15, 39, 0
13, 105840, Note_on_c, 15, 36, 127
13, 105930, Note_on_c, 15, 36, 0
13, 106080, Note_on_c, 15, 41, 127
13, 106170, Note_on_c, 15, 41, 0
13, 106320, Note_on_c, 15, 38, 127
13, 106410, Note_on_c, 15, 38, 0
13, 106560, Note_on_c, 15, 43, 127
13, 106650, Note_on_c, 15, 43, 0
13, 106800, Note_on_c, 15, 31, 127
13, 106890, Note_on_c, 15, 31, 0
13, 107040, Note_on_c, 15, 36, 127
13, 107130, Note_on_c, 15, 36, 0
13, 107760, Note_on_c, 15, 39, 127
13, 107850, Note_on_c, 15, 39, 0
13, 107880, Note_on_c, 15, 41, 127
13, 107970, Note_on_c, 15, 41, 0
13, 108000, Note_on_c, 15, 43, 127
13, 108120, Note_on_c, 15, 43, 0
13, 108120, Note_on_c, 15, 39, 127
13, 108240, Note_on_c, 15, 39, 0
13, 108720, Note_on_c, 15, 31, 127
13, 108810, Note_on_c, 15, 31, 0
13, 108840, Note_on_c, 15, 33, 127
13, 108930, Note_on_c, 15, 33, 0
13, 108960, Note_on_c, 15, 35, 127
13, 109080, Note_on_c, 15, 35, 0
13, 109080, Note_on_c, 15, 31, 127
13, 109200, Note_on_c, 15, 31, 0
13, 109680, Note_on_c, 15, 31, 127
13, 109770, Note_on_c, 15, 31, 0
13, 109800, Note_on_c, 15, 33, 127
13, 109890, Note_on_c, 15, 33, 0
13, 109920, Note_on_c, 15, 35, 127
13, 110040, Note_on_c, 15, 35, 0
13, 110040, Note_on_c, 15, 31, 127
13, 110160, Note_on_c, 15, 31, 0
13, 111120, Note_on_c, 15, 41, 127
13, 111240, Note_on_c, 15, 41, 0
13, 111240, Note_on_c, 15, 36, 127
13, 111360, Note_on_c, 15, 36, 0
13, 111600, Note_on_c, 15, 41, 127
13, 111720, Note_on_c, 15, 41, 0
13, 111720, Note_on_c, 15, 36, 127
13, 111830, Note_on_c, 15, 36, 0
13, 111840, Note_on_c, 15, 43, 127
13, 111960, Note_on_c, 15, 43, 0
13, 112080, Note_on_c, 15, 31, 127
13, 112200, Note_on_c, 15, 31, 0
13, 112320, Note_on_c, 15, 48, 127
13, 112440, Note_on_c, 15, 48, 0
13, 112440, Note_on_c, 15, 43, 127
13, 112560, Note_on_c, 15, 43, 0
13, 112560, Note_on_c, 15, 44, 127
13, 112680, Note_on_c, 15, 44, 0
13, 112680, Note_on_c, 15, 39, 127
13, 112800, Note_on_c, 15, 39, 0
13, 112800, Note_on_c, 15, 41, 127
13, 112920, Note_on_c, 15, 41, 0
13, 112920, Note_on_c, 15, 36, 127
13, 113040, Note_on_c, 15, 36, 0
13, 113280, Note_on_c, 15, 41, 127
13, 113400, Note_on_c, 15, 41, 0
13, 113400, Note_on_c, 15, 36, 127
13, 113510, Note_on_c, 15, 36, 0
13, 113520, Note_on_c, 15, 41, 127
13, 113640, Note_on_c, 15, 41, 0
13, 113640, Note_on_c, 15, 36, 127
13, 113750, Note_on_c, 15, 36, 0
13, 113760, Note_on_c, 15, 43, 127
13, 113880, Note_on_c, 15, 43, 0
13, 114000, Note_on_c, 15, 31, 127
13, 114120, Note_on_c, 15, 31, 0
13, 114240, Note_on_c, 15, 36, 127
13, 114360, Note_on_c, 15, 36, 0
13, 115500, Note_on_c, 15, 31, 127
13, 115550, Note_on_c, 15, 31, 0
13, 115560, Note_on_c, 15, 31, 127
13, 115610, Note_on_c, 15, 31, 0
13, 115620, Note_on_c, 15, 31, 127
13, 115670, Note_on_c, 15, 31, 0
13, 115680, Note_on_c, 15, 36, 127
13, 115730, Note_on_c, 15, 36, 0
13, 115740, Note_on_c, 15, 31, 127
13, 115790, Note_on_c, 15, 31, 0
13, 115800, Note_on_c, 15, 31, 127
13, 115850, Note_on_c, 15, 31, 0
13, 115860, Note_on_c, 15, 31, 127
13, 115910, Note_on_c, 15, 31, 0
13, 115920, Note_on_c, 15, 31, 127
13, 115970, Note_on_c, 15, 31, 0
13, 115980, Note_on_c, 15, 31, 127
13, 116030, Note_on_c, 15, 31, 0
13, 116040, Note_on_c, 15, 31, 127
13, 116090, Note_on_c, 15, 31, 0
13, 116100, Note_on_c, 15, 31, 127
13, 116150, Note_on_c, 15, 31, 0
13, 116160, Note_on_c, 15, 31, 127
13, 116210, Note_on_c, 15, 31, 0
13, 116220, Note_on_c, 15, 31, 127
13, 116270, Note_on_c, 15, 31, 0
13, 116280, Note_on_c, 15, 31, 127
13, 116330, Note_on_c, 15, 31, 0
13, 116340, Note_on_c, 15, 31, 127
13, 116390, Note_on_c, 15, 31, 0
13, 116400, Note_on_c, 15, 31, 127
13, 116450, Note_on_c, 15, 31, 0
13, 116460, Note_on_c, 15, 31, 127
13, 116510, Note_on_c, 15, 31, 0
13, 116520, Note_on_c, 15, 31, 127
13, 116570, Note_on_c, 15, 31, 0
13, 116580, Note_on_c, 15, 31, 127
13, 116630, Note_on_c, 15, 31, 0
13, 116640, Note_on_c, 15, 27, 127
13, 117360, Note_on_c, 15, 27, 0
13, 117420, Note_on_c, 15, 29, 127
13, 117470, Note_on_c, 15, 29, 0
13, 117480, Note_on_c, 15, 29, 127
13, 117530, Note_on_c, 15, 29, 0
13, 117540, Note_on_c, 15, 29, 127
13, 117590, Note_on_c, 15, 29, 0
13, 117600, Note_on_c, 15, 26, 127
13, 118560, Note_on_c, 15, 26, 0
13, 118800, Note_on_c, 15, 36, 50
13, 119280, Note_on_c, 15, 36, 0
13, 119280, Note_on_c, 15, 36, 50
13, 119760, Note_on_c, 15, 36, 0
13, 119760, Note_on_c, 15, 36, 50
13, 120240, Note_on_c, 15, 36, 0
13, 120240, Note_on_c, 15, 36, 50
13, 120480, Note_on_c, 15, 36, 0
13, 120540, Note_on_c, 15, 31, 100
13, 120590, Note_on_c, 15, 31, 0
13, 120600, Note_on_c, 15, 31, 100
13, 120650, Note_on_c, 15, 31, 0
13, 120660, Note_on_c, 15, 31, 100
13, 120710, Note_on_c, 15, 31, 0
13, 120720, Note_on_c, 15, 36, 100
13, 120840, Note_on_c, 15, 36, 0
13, 121020, Note_on_c, 15, 31, 100
13, 121070, Note_on_c, 15, 31, 0
13, 121080, Note_on_c, 15, 31, 100
13, 121130, Note_on_c, 15, 31, 0
13, 121140, Note_on_c, 15, 31, 100
13, 121190, Note_on_c, 15, 31, 0
13, 121200, Note_on_c, 15, 36, 100
13, 121320, Note_on_c, 15, 36, 0
13, 121500, Note_on_c, 15, 31, 101
13, 121550, Note_on_c, 15, 31, 0
13, 121560, Note_on_c, 15, 31, 102
13, 121610, Note_on_c, 15, 31, 0
13, 121620, Note_on_c, 15, 31, 104
13, 121670, Note_on_c, 15, 31, 0
13, 121680, Note_on_c, 15, 36, 105
13, 121790, Note_on_c, 15, 36, 0
13, 121800, Note_on_c, 15, 31, 108
13, 121910, Note_on_c, 15, 31, 0
13, 121920, Note_on_c, 15, 36, 110
13, 122030, Note_on_c, 15, 36, 0
13, 122040, Note_on_c, 15, 31, 113
13, 122150, Note_on_c, 15, 31, 0
13, 122160, Note_on_c, 15, 36, 116
13, 122270, Note_on_c, 15, 36, 0
13, 122280, Note_on_c, 15, 43, 118
13, 122390, Note_on_c, 15, 43, 0
13, 122400, Note_on_c, 15, 48, 121
13, 122510, Note_on_c, 15, 48, 0
13, 122520, Note_on_c, 15, 43, 124
13, 122630, Note_on_c, 15, 43, 0
13, 122640, Note_on_c, 15, 48, 127
13, 122760, Note_on_c, 15, 48, 0
13, 122880, Note_on_c, 15, 31, 127
13, 123000, Note_on_c, 15, 31, 0
13, 123120, Note_on_c, 15, 24, 127
13, 123240, Note_on_c, 15, 24, 0
13, 123600, Note_on_c, 15, 36, 1
13, 123720, Note_on_c, 15, 36, 0
13, 123720, End_track
0, 0, End_of_file