0, 0, Header, 1, 5, 192
1, 0, Start_track
1, 0, Title_t, "String Quartet No.16 - IV"
1, 0, Text_t, "By Ludwig van Beethoven"
1, 0, Copyright_t, "Copyright \251 2001 by S.E.Edwards"
1, 0, Copyright_t, "All Rights Reserved"
1, 0, Text_t, "Generated by NoteWorthy Composer"
1, 0, Tempo, 1200000
1, 0, Key_signature, -4, "major"
1, 0, Time_signature, 3, 1, 24, 8
1, 12672, Tempo, 2000000
1, 13824, Tempo, 206896
1, 13824, Key_signature, -1, "major"
1, 13824, Time_signature, 2, 1, 24, 8
1, 38592, Key_signature, 3, "major"
1, 68544, Key_signature, -1, "major"
1, 92352, Key_signature, 3, "major"
1, 120768, Key_signature, 0, "major"
1, 143040, Key_signature, 2, "major"
1, 159936, Key_signature, -1, "major"
1, 167616, Key_signature, -4, "major"
1, 175304, Tempo, 207612
1, 175312, Tempo, 208333
1, 175320, Tempo, 209059
1, 175328, Tempo, 209790
1, 175336, Tempo, 210526
1, 175344, Tempo, 211267
1, 175352, Tempo, 212014
1, 175360, Tempo, 212765
1, 175368, Tempo, 213523
1, 175376, Tempo, 214285
1, 175384, Tempo, 215053
1, 175393, Tempo, 215827
1, 175401, Tempo, 216606
1, 175409, Tempo, 217391
1, 175417, Tempo, 218181
1, 175425, Tempo, 218978
1, 175433, Tempo, 219780
1, 175441, Tempo, 220588
1, 175449, Tempo, 221402
1, 175457, Tempo, 222222
1, 175465, Tempo, 223048
1, 175473, Tempo, 223880
1, 175481, Tempo, 224719
1, 175490, Tempo, 225563
1, 175498, Tempo, 226415
1, 175506, Tempo, 227272
1, 175514, Tempo, 228136
1, 175522, Tempo, 229007
1, 175530, Tempo, 229885
1, 175538, Tempo, 230769
1, 175546, Tempo, 231660
1, 175554, Tempo, 232558
1, 175562, Tempo, 233463
1, 175570, Tempo, 234375
1, 175578, Tempo, 235294
1, 175587, Tempo, 236220
1, 175595, Tempo, 237154
1, 175603, Tempo, 238095
1, 175611, Tempo, 239043
1, 175619, Tempo, 240000
1, 175627, Tempo, 240963
1, 175635, Tempo, 241935
1, 175643, Tempo, 242914
1, 175651, Tempo, 243902
1, 175659, Tempo, 244897
1, 175667, Tempo, 245901
1, 175675, Tempo, 246913
1, 175684, Tempo, 247933
1, 175692, Tempo, 248962
1, 175700, Tempo, 250000
1, 175708, Tempo, 251046
1, 175716, Tempo, 252100
1, 175724, Tempo, 253164
1, 175732, Tempo, 254237
1, 175740, Tempo, 255319
1, 175748, Tempo, 256410
1, 175756, Tempo, 257510
1, 175764, Tempo, 258620
1, 175772, Tempo, 259740
1, 175781, Tempo, 260869
1, 175789, Tempo, 262008
1, 175797, Tempo, 263157
1, 175805, Tempo, 264317
1, 175813, Tempo, 265486
1, 175821, Tempo, 266666
1, 175829, Tempo, 267857
1, 175837, Tempo, 269058
1, 175845, Tempo, 270270
1, 175853, Tempo, 271493
1, 175861, Tempo, 272727
1, 175869, Tempo, 273972
1, 175878, Tempo, 275229
1, 175886, Tempo, 276497
1, 175894, Tempo, 277777
1, 175902, Tempo, 279069
1, 175910, Tempo, 280373
1, 175918, Tempo, 281690
1, 175926, Tempo, 283018
1, 175934, Tempo, 284360
1, 175942, Tempo, 285714
1, 175950, Tempo, 287081
1, 175958, Tempo, 288461
1, 175966, Tempo, 289855
1, 175975, Tempo, 291262
1, 175983, Tempo, 292682
1, 175991, Tempo, 294117
1, 175999, Tempo, 295566
1, 176007, Tempo, 297029
1, 176015, Tempo, 298507
1, 176023, Tempo, 300000
1, 176031, Tempo, 301507
1, 176039, Tempo, 303030
1, 176047, Tempo, 304568
1, 176055, Tempo, 306122
1, 176063, Tempo, 307692
1, 176072, Tempo, 309278
1, 176080, Tempo, 310880
1, 176088, Tempo, 312500
1, 176096, Tempo, 314136
1, 176104, Tempo, 315789
1, 176112, Tempo, 317460
1, 176120, Tempo, 319148
1, 176128, Tempo, 320855
1, 176136, Tempo, 322580
1, 176144, Tempo, 324324
1, 176152, Tempo, 326086
1, 176161, Tempo, 327868
1, 176169, Tempo, 329670
1, 176177, Tempo, 331491
1, 176185, Tempo, 333333
1, 176193, Tempo, 335195
1, 176201, Tempo, 337078
1, 176209, Tempo, 338983
1, 176217, Tempo, 340909
1, 176225, Tempo, 342857
1, 176233, Tempo, 344827
1, 176241, Tempo, 346820
1, 176249, Tempo, 348837
1, 176258, Tempo, 350877
1, 176266, Tempo, 352941
1, 176274, Tempo, 355029
1, 176282, Tempo, 357142
1, 176290, Tempo, 359281
1, 176298, Tempo, 361445
1, 176306, Tempo, 363636
1, 176314, Tempo, 365853
1, 176322, Tempo, 368098
1, 176330, Tempo, 370370
1, 176338, Tempo, 372670
1, 176346, Tempo, 375000
1, 176355, Tempo, 377358
1, 176363, Tempo, 379746
1, 176371, Tempo, 382165
1, 176379, Tempo, 384615
1, 176387, Tempo, 387096
1, 176395, Tempo, 389610
1, 176403, Tempo, 392156
1, 176411, Tempo, 394736
1, 176419, Tempo, 397350
1, 176427, Tempo, 400000
1, 176435, Tempo, 402684
1, 176443, Tempo, 405405
1, 176452, Tempo, 408163
1, 176460, Tempo, 410958
1, 176468, Tempo, 413793
1, 176476, Tempo, 416666
1, 176484, Tempo, 419580
1, 176492, Tempo, 422535
1, 176500, Tempo, 425531
1, 176508, Tempo, 428571
1, 176516, Tempo, 431654
1, 176524, Tempo, 434782
1, 176532, Tempo, 437956
1, 176540, Tempo, 441176
1, 176549, Tempo, 444444
1, 176557, Tempo, 447761
1, 176565, Tempo, 451127
1, 176573, Tempo, 454545
1, 176581, Tempo, 458015
1, 176589, Tempo, 461538
1, 176597, Tempo, 465116
1, 176605, Tempo, 468750
1, 176613, Tempo, 472440
1, 176621, Tempo, 476190
1, 176629, Tempo, 480000
1, 176637, Tempo, 483870
1, 176646, Tempo, 487804
1, 176654, Tempo, 491803
1, 176662, Tempo, 495867
1, 176670, Tempo, 500000
1, 176678, Tempo, 504201
1, 176686, Tempo, 508474
1, 176694, Tempo, 512820
1, 176702, Tempo, 517241
1, 176710, Tempo, 521739
1, 176718, Tempo, 526315
1, 176726, Tempo, 530973
1, 176734, Tempo, 535714
1, 176743, Tempo, 540540
1, 176751, Tempo, 545454
1, 176759, Tempo, 550458
1, 176767, Tempo, 555555
1, 176775, Tempo, 560747
1, 176783, Tempo, 566037
1, 176791, Tempo, 571428
1, 176799, Tempo, 576923
1, 176807, Tempo, 582524
1, 176815, Tempo, 588235
1, 176823, Tempo, 594059
1, 176832, Tempo, 600000
1, 176832, Tempo, 206896
1, 181440, Tempo, 1200000
1, 181440, Time_signature, 3, 1, 24, 8
1, 196032, Tempo, 2000000
1, 196416, Tempo, 206896
1, 196416, Key_signature, -1, "major"
1, 196416, Time_signature, 2, 1, 24, 8
1, 216384, Key_signature, 2, "major"
1, 222528, Key_signature, -1, "major"
1, 249984, Key_signature, 0, "major"
1, 271680, Key_signature, 2, "major"
1, 288576, Key_signature, -1, "major"
1, 296256, Key_signature, -4, "major"
1, 303944, Tempo, 207612
1, 303952, Tempo, 208333
1, 303960, Tempo, 209059
1, 303968, Tempo, 209790
1, 303976, Tempo, 210526
1, 303984, Tempo, 211267
1, 303992, Tempo, 212014
1, 304000, Tempo, 212765
1, 304008, Tempo, 213523
1, 304016, Tempo, 214285
1, 304024, Tempo, 215053
1, 304033, Tempo, 215827
1, 304041, Tempo, 216606
1, 304049, Tempo, 217391
1, 304057, Tempo, 218181
1, 304065, Tempo, 218978
1, 304073, Tempo, 219780
1, 304081, Tempo, 220588
1, 304089, Tempo, 221402
1, 304097, Tempo, 222222
1, 304105, Tempo, 223048
1, 304113, Tempo, 223880
1, 304121, Tempo, 224719
1, 304130, Tempo, 225563
1, 304138, Tempo, 226415
1, 304146, Tempo, 227272
1, 304154, Tempo, 228136
1, 304162, Tempo, 229007
1, 304170, Tempo, 229885
1, 304178, Tempo, 230769
1, 304186, Tempo, 231660
1, 304194, Tempo, 232558
1, 304202, Tempo, 233463
1, 304210, Tempo, 234375
1, 304218, Tempo, 235294
1, 304227, Tempo, 236220
1, 304235, Tempo, 237154
1, 304243, Tempo, 238095
1, 304251, Tempo, 239043
1, 304259, Tempo, 240000
1, 304267, Tempo, 240963
1, 304275, Tempo, 241935
1, 304283, Tempo, 242914
1, 304291, Tempo, 243902
1, 304299, Tempo, 244897
1, 304307, Tempo, 245901
1, 304315, Tempo, 246913
1, 304324, Tempo, 247933
1, 304332, Tempo, 248962
1, 304340, Tempo, 250000
1, 304348, Tempo, 251046
1, 304356, Tempo, 252100
1, 304364, Tempo, 253164
1, 304372, Tempo, 254237
1, 304380, Tempo, 255319
1, 304388, Tempo, 256410
1, 304396, Tempo, 257510
1, 304404, Tempo, 258620
1, 304412, Tempo, 259740
1, 304421, Tempo, 260869
1, 304429, Tempo, 262008
1, 304437, Tempo, 263157
1, 304445, Tempo, 264317
1, 304453, Tempo, 265486
1, 304461, Tempo, 266666
1, 304469, Tempo, 267857
1, 304477, Tempo, 269058
1, 304485, Tempo, 270270
1, 304493, Tempo, 271493
1, 304501, Tempo, 272727
1, 304509, Tempo, 273972
1, 304518, Tempo, 275229
1, 304526, Tempo, 276497
1, 304534, Tempo, 277777
1, 304542, Tempo, 279069
1, 304550, Tempo, 280373
1, 304558, Tempo, 281690
1, 304566, Tempo, 283018
1, 304574, Tempo, 284360
1, 304582, Tempo, 285714
1, 304590, Tempo, 287081
1, 304598, Tempo, 288461
1, 304606, Tempo, 289855
1, 304615, Tempo, 291262
1, 304623, Tempo, 292682
1, 304631, Tempo, 294117
1, 304639, Tempo, 295566
1, 304647, Tempo, 297029
1, 304655, Tempo, 298507
1, 304663, Tempo, 300000
1, 304671, Tempo, 301507
1, 304679, Tempo, 303030
1, 304687, Tempo, 304568
1, 304695, Tempo, 306122
1, 304703, Tempo, 307692
1, 304712, Tempo, 309278
1, 304720, Tempo, 310880
1, 304728, Tempo, 312500
1, 304736, Tempo, 314136
1, 304744, Tempo, 315789
1, 304752, Tempo, 317460
1, 304760, Tempo, 319148
1, 304768, Tempo, 320855
1, 304776, Tempo, 322580
1, 304784, Tempo, 324324
1, 304792, Tempo, 326086
1, 304801, Tempo, 327868
1, 304809, Tempo, 329670
1, 304817, Tempo, 331491
1, 304825, Tempo, 333333
1, 304833, Tempo, 335195
1, 304841, Tempo, 337078
1, 304849, Tempo, 338983
1, 304857, Tempo, 340909
1, 304865, Tempo, 342857
1, 304873, Tempo, 344827
1, 304881, Tempo, 346820
1, 304889, Tempo, 348837
1, 304898, Tempo, 350877
1, 304906, Tempo, 352941
1, 304914, Tempo, 355029
1, 304922, Tempo, 357142
1, 304930, Tempo, 359281
1, 304938, Tempo, 361445
1, 304946, Tempo, 363636
1, 304954, Tempo, 365853
1, 304962, Tempo, 368098
1, 304970, Tempo, 370370
1, 304978, Tempo, 372670
1, 304986, Tempo, 375000
1, 304995, Tempo, 377358
1, 305003, Tempo, 379746
1, 305011, Tempo, 382165
1, 305019, Tempo, 384615
1, 305027, Tempo, 387096
1, 305035, Tempo, 389610
1, 305043, Tempo, 392156
1, 305051, Tempo, 394736
1, 305059, Tempo, 397350
1, 305067, Tempo, 400000
1, 305075, Tempo, 402684
1, 305083, Tempo, 405405
1, 305092, Tempo, 408163
1, 305100, Tempo, 410958
1, 305108, Tempo, 413793
1, 305116, Tempo, 416666
1, 305124, Tempo, 419580
1, 305132, Tempo, 422535
1, 305140, Tempo, 425531
1, 305148, Tempo, 428571
1, 305156, Tempo, 431654
1, 305164, Tempo, 434782
1, 305172, Tempo, 437956
1, 305180, Tempo, 441176
1, 305189, Tempo, 444444
1, 305197, Tempo, 447761
1, 305205, Tempo, 451127
1, 305213, Tempo, 454545
1, 305221, Tempo, 458015
1, 305229, Tempo, 461538
1, 305237, Tempo, 465116
1, 305245, Tempo, 468750
1, 305253, Tempo, 472440
1, 305261, Tempo, 476190
1, 305269, Tempo, 480000
1, 305277, Tempo, 483870
1, 305286, Tempo, 487804
1, 305294, Tempo, 491803
1, 305302, Tempo, 495867
1, 305310, Tempo, 500000
1, 305318, Tempo, 504201
1, 305326, Tempo, 508474
1, 305334, Tempo, 512820
1, 305342, Tempo, 517241
1, 305350, Tempo, 521739
1, 305358, Tempo, 526315
1, 305366, Tempo, 530973
1, 305374, Tempo, 535714
1, 305383, Tempo, 540540
1, 305391, Tempo, 545454
1, 305399, Tempo, 550458
1, 305407, Tempo, 555555
1, 305415, Tempo, 560747
1, 305423, Tempo, 566037
1, 305431, Tempo, 571428
1, 305439, Tempo, 576923
1, 305447, Tempo, 582524
1, 305455, Tempo, 588235
1, 305463, Tempo, 594059
1, 305472, Tempo, 600000
1, 305472, Tempo, 206896
1, 310080, Tempo, 1200000
1, 310080, Time_signature, 3, 1, 24, 8
1, 324672, Tempo, 2000000
1, 325056, Tempo, 206896
1, 325056, Key_signature, -1, "major"
1, 325056, Time_signature, 2, 1, 24, 8
1, 345024, Key_signature, 2, "major"
1, 351168, Key_signature, -1, "major"
1, 384768, Tempo, 1200000
1, 386496, Tempo, 206896
1, 386496, End_track
2, 0, Start_track
2, 0, MIDI_port, 0
2, 0, Title_t, "Violino I."
2, 0, Program_c, 1, 0
2, 0, Control_c, 1, 7, 127
2, 0, Control_c, 1, 10, 64
2, 768, Note_on_c, 1, 72, 45
2, 1248, Note_on_c, 1, 72, 0
2, 1248, Note_on_c, 1, 70, 45
2, 1344, Note_on_c, 1, 70, 0
2, 1344, Note_on_c, 1, 68, 45
2, 1440, Note_on_c, 1, 68, 0
2, 1440, Note_on_c, 1, 67, 45
2, 1536, Note_on_c, 1, 67, 0
2, 1536, Note_on_c, 1, 65, 45
2, 1632, Note_on_c, 1, 65, 0
2, 1632, Note_on_c, 1, 68, 45
2, 1728, Note_on_c, 1, 68, 0
2, 1728, Note_on_c, 1, 72, 45
2, 1824, Note_on_c, 1, 72, 0
2, 1824, Note_on_c, 1, 76, 45
2, 1920, Note_on_c, 1, 76, 0
2, 1920, Note_on_c, 1, 77, 45
2, 2080, Note_on_c, 1, 77, 0
2, 3072, Note_on_c, 1, 77, 45
2, 3552, Note_on_c, 1, 77, 0
2, 3552, Note_on_c, 1, 75, 45
2, 3648, Note_on_c, 1, 75, 0
2, 3648, Note_on_c, 1, 73, 45
2, 3744, Note_on_c, 1, 73, 0
2, 3744, Note_on_c, 1, 72, 45
2, 3840, Note_on_c, 1, 72, 0
2, 3840, Note_on_c, 1, 70, 45
2, 3936, Note_on_c, 1, 70, 0
2, 3936, Note_on_c, 1, 73, 45
2, 4032, Note_on_c, 1, 73, 0
2, 4032, Note_on_c, 1, 77, 45
2, 4128, Note_on_c, 1, 77, 0
2, 4128, Note_on_c, 1, 81, 45
2, 4224, Note_on_c, 1, 81, 0
2, 4224, Note_on_c, 1, 82, 45
2, 4384, Note_on_c, 1, 82, 0
2, 4608, Note_on_c, 1, 82, 92
2, 4702, Note_on_c, 1, 82, 0
2, 4704, Note_on_c, 1, 82, 92
2, 4798, Note_on_c, 1, 82, 0
2, 4800, Note_on_c, 1, 82, 92
2, 4960, Note_on_c, 1, 82, 0
2, 5760, Note_on_c, 1, 88, 92
2, 5854, Note_on_c, 1, 88, 0
2, 5856, Note_on_c, 1, 88, 92
2, 5950, Note_on_c, 1, 88, 0
2, 5952, Note_on_c, 1, 88, 92
2, 6112, Note_on_c, 1, 88, 0
2, 7296, Note_on_c, 1, 91, 92
2, 7390, Note_on_c, 1, 91, 0
2, 7392, Note_on_c, 1, 91, 92
2, 7486, Note_on_c, 1, 91, 0
2, 7488, Note_on_c, 1, 91, 92
2, 7648, Note_on_c, 1, 91, 0
2, 8448, Note_on_c, 1, 92, 92
2, 8542, Note_on_c, 1, 92, 0
2, 8544, Note_on_c, 1, 92, 92
2, 8638, Note_on_c, 1, 92, 0
2, 8640, Note_on_c, 1, 92, 92
2, 8800, Note_on_c, 1, 92, 0
2, 9600, Note_on_c, 1, 85, 108
2, 9694, Note_on_c, 1, 85, 0
2, 9696, Note_on_c, 1, 85, 106
2, 9790, Note_on_c, 1, 85, 0
2, 9792, Note_on_c, 1, 85, 104
2, 9952, Note_on_c, 1, 85, 0
2, 10752, Note_on_c, 1, 76, 78
2, 10752, Note_on_c, 1, 85, 78
2, 10846, Note_on_c, 1, 76, 0
2, 10846, Note_on_c, 1, 85, 0
2, 10848, Note_on_c, 1, 76, 76
2, 10848, Note_on_c, 1, 85, 76
2, 10942, Note_on_c, 1, 76, 0
2, 10942, Note_on_c, 1, 85, 0
2, 10944, Note_on_c, 1, 76, 74
2, 10944, Note_on_c, 1, 85, 74
2, 11104, Note_on_c, 1, 76, 0
2, 11104, Note_on_c, 1, 85, 0
2, 11904, Note_on_c, 1, 76, 45
2, 11904, Note_on_c, 1, 85, 45
2, 11998, Note_on_c, 1, 76, 0
2, 11998, Note_on_c, 1, 85, 0
2, 12000, Note_on_c, 1, 76, 45
2, 12000, Note_on_c, 1, 85, 45
2, 12094, Note_on_c, 1, 76, 0
2, 12094, Note_on_c, 1, 85, 0
2, 12096, Note_on_c, 1, 76, 45
2, 12096, Note_on_c, 1, 85, 45
2, 12256, Note_on_c, 1, 76, 0
2, 12256, Note_on_c, 1, 85, 0
2, 13056, Note_on_c, 1, 72, 30
2, 13150, Note_on_c, 1, 72, 0
2, 13152, Note_on_c, 1, 72, 30
2, 13246, Note_on_c, 1, 72, 0
2, 13248, Note_on_c, 1, 72, 30
2, 13776, Note_on_c, 1, 72, 0
2, 13824, Note_on_c, 1, 81, 92
2, 13984, Note_on_c, 1, 81, 0
2, 14016, Note_on_c, 1, 84, 92
2, 14112, Note_on_c, 1, 84, 0
2, 14400, Note_on_c, 1, 79, 92
2, 14496, Note_on_c, 1, 79, 0
2, 15360, Note_on_c, 1, 79, 92
2, 15520, Note_on_c, 1, 79, 0
2, 15552, Note_on_c, 1, 82, 92
2, 15648, Note_on_c, 1, 82, 0
2, 15936, Note_on_c, 1, 77, 92
2, 16032, Note_on_c, 1, 77, 0
2, 17280, Note_on_c, 1, 77, 45
2, 17472, Note_on_c, 1, 77, 0
2, 17472, Note_on_c, 1, 75, 45
2, 17664, Note_on_c, 1, 75, 0
2, 17664, Note_on_c, 1, 74, 45
2, 17856, Note_on_c, 1, 74, 0
2, 17856, Note_on_c, 1, 72, 45
2, 18048, Note_on_c, 1, 72, 0
2, 18048, Note_on_c, 1, 74, 45
2, 18240, Note_on_c, 1, 74, 0
2, 18240, Note_on_c, 1, 75, 45
2, 18576, Note_on_c, 1, 75, 0
2, 18816, Note_on_c, 1, 75, 45
2, 19008, Note_on_c, 1, 75, 0
2, 19008, Note_on_c, 1, 74, 45
2, 19200, Note_on_c, 1, 74, 0
2, 19200, Note_on_c, 1, 72, 45
2, 19392, Note_on_c, 1, 72, 0
2, 19392, Note_on_c, 1, 70, 45
2, 19584, Note_on_c, 1, 70, 0
2, 19584, Note_on_c, 1, 72, 45
2, 19776, Note_on_c, 1, 72, 0
2, 19776, Note_on_c, 1, 74, 45
2, 20112, Note_on_c, 1, 74, 0
2, 20352, Note_on_c, 1, 74, 45
2, 20544, Note_on_c, 1, 74, 0
2, 20544, Note_on_c, 1, 72, 45
2, 20736, Note_on_c, 1, 72, 0
2, 20736, Note_on_c, 1, 70, 45
2, 20928, Note_on_c, 1, 70, 0
2, 20928, Note_on_c, 1, 69, 45
2, 21120, Note_on_c, 1, 69, 0
2, 21120, Note_on_c, 1, 70, 45
2, 21312, Note_on_c, 1, 70, 0
2, 21312, Note_on_c, 1, 69, 45
2, 21504, Note_on_c, 1, 69, 0
2, 21504, Note_on_c, 1, 67, 45
2, 21696, Note_on_c, 1, 67, 0
2, 21696, Note_on_c, 1, 65, 45
2, 21888, Note_on_c, 1, 65, 0
2, 21888, Note_on_c, 1, 67, 45
2, 22080, Note_on_c, 1, 67, 0
2, 22080, Note_on_c, 1, 60, 45
2, 22272, Note_on_c, 1, 60, 0
2, 22272, Note_on_c, 1, 64, 45
2, 22464, Note_on_c, 1, 64, 0
2, 22464, Note_on_c, 1, 65, 45
2, 22512, Note_on_c, 1, 65, 0
2, 22656, Note_on_c, 1, 77, 45
2, 22848, Note_on_c, 1, 77, 0
2, 22848, Note_on_c, 1, 81, 45
2, 23040, Note_on_c, 1, 81, 0
2, 23040, Note_on_c, 1, 84, 45
2, 23232, Note_on_c, 1, 84, 0
2, 23232, Note_on_c, 1, 89, 45
2, 24160, Note_on_c, 1, 89, 0
2, 24192, Note_on_c, 1, 89, 45
2, 24384, Note_on_c, 1, 89, 0
2, 24384, Note_on_c, 1, 87, 45
2, 24576, Note_on_c, 1, 87, 0
2, 24576, Note_on_c, 1, 86, 45
2, 24768, Note_on_c, 1, 86, 0
2, 24768, Note_on_c, 1, 84, 45
2, 24960, Note_on_c, 1, 84, 0
2, 24960, Note_on_c, 1, 86, 45
2, 25152, Note_on_c, 1, 86, 0
2, 25152, Note_on_c, 1, 87, 45
2, 25488, Note_on_c, 1, 87, 0
2, 25728, Note_on_c, 1, 87, 45
2, 25920, Note_on_c, 1, 87, 0
2, 25920, Note_on_c, 1, 86, 45
2, 26112, Note_on_c, 1, 86, 0
2, 26112, Note_on_c, 1, 84, 45
2, 26304, Note_on_c, 1, 84, 0
2, 26304, Note_on_c, 1, 82, 45
2, 26496, Note_on_c, 1, 82, 0
2, 26496, Note_on_c, 1, 84, 45
2, 26688, Note_on_c, 1, 84, 0
2, 26688, Note_on_c, 1, 86, 45
2, 27232, Note_on_c, 1, 86, 0
2, 27264, Note_on_c, 1, 86, 45
2, 27456, Note_on_c, 1, 86, 0
2, 27456, Note_on_c, 1, 84, 45
2, 27648, Note_on_c, 1, 84, 0
2, 27648, Note_on_c, 1, 82, 45
2, 27840, Note_on_c, 1, 82, 0
2, 27840, Note_on_c, 1, 81, 45
2, 28032, Note_on_c, 1, 81, 0
2, 28032, Note_on_c, 1, 79, 45
2, 28192, Note_on_c, 1, 79, 0
2, 28224, Note_on_c, 1, 79, 45
2, 28384, Note_on_c, 1, 79, 0
2, 28416, Note_on_c, 1, 70, 92
2, 28416, Note_on_c, 1, 79, 92
2, 28576, Note_on_c, 1, 70, 0
2, 28576, Note_on_c, 1, 79, 0
2, 28608, Note_on_c, 1, 69, 127
2, 28608, Note_on_c, 1, 84, 127
2, 28944, Note_on_c, 1, 69, 0
2, 28944, Note_on_c, 1, 84, 0
2, 28992, Note_on_c, 1, 69, 92
2, 28992, Note_on_c, 1, 81, 92
2, 29152, Note_on_c, 1, 69, 0
2, 29152, Note_on_c, 1, 81, 0
2, 29184, Note_on_c, 1, 77, 45
2, 29344, Note_on_c, 1, 77, 0
2, 29376, Note_on_c, 1, 65, 92
2, 29536, Note_on_c, 1, 65, 0
2, 29952, Note_on_c, 1, 77, 92
2, 30112, Note_on_c, 1, 77, 0
2, 30144, Note_on_c, 1, 67, 92
2, 30304, Note_on_c, 1, 67, 0
2, 30720, Note_on_c, 1, 79, 92
2, 30880, Note_on_c, 1, 79, 0
2, 30912, Note_on_c, 1, 69, 92
2, 31072, Note_on_c, 1, 69, 0
2, 31488, Note_on_c, 1, 81, 92
2, 31648, Note_on_c, 1, 81, 0
2, 31680, Note_on_c, 1, 70, 92
2, 31840, Note_on_c, 1, 70, 0
2, 31872, Note_on_c, 1, 82, 92
2, 32032, Note_on_c, 1, 82, 0
2, 32064, Note_on_c, 1, 72, 92
2, 32224, Note_on_c, 1, 72, 0
2, 32256, Note_on_c, 1, 84, 92
2, 32416, Note_on_c, 1, 84, 0
2, 32448, Note_on_c, 1, 74, 92
2, 32608, Note_on_c, 1, 74, 0
2, 33024, Note_on_c, 1, 86, 92
2, 33184, Note_on_c, 1, 86, 0
2, 33216, Note_on_c, 1, 76, 92
2, 33376, Note_on_c, 1, 76, 0
2, 33792, Note_on_c, 1, 88, 92
2, 33952, Note_on_c, 1, 88, 0
2, 33984, Note_on_c, 1, 77, 92
2, 34144, Note_on_c, 1, 77, 0
2, 34560, Note_on_c, 1, 89, 92
2, 34720, Note_on_c, 1, 89, 0
2, 34752, Note_on_c, 1, 74, 92
2, 34912, Note_on_c, 1, 74, 0
2, 34944, Note_on_c, 1, 86, 92
2, 35104, Note_on_c, 1, 86, 0
2, 35136, Note_on_c, 1, 76, 92
2, 35296, Note_on_c, 1, 76, 0
2, 35328, Note_on_c, 1, 88, 92
2, 35488, Note_on_c, 1, 88, 0
2, 35520, Note_on_c, 1, 69, 92
2, 35568, Note_on_c, 1, 69, 0
2, 35712, Note_on_c, 1, 74, 92
2, 35760, Note_on_c, 1, 74, 0
2, 35904, Note_on_c, 1, 71, 92
2, 35952, Note_on_c, 1, 71, 0
2, 36096, Note_on_c, 1, 76, 92
2, 36144, Note_on_c, 1, 76, 0
2, 36288, Note_on_c, 1, 76, 92
2, 36336, Note_on_c, 1, 76, 0
2, 36480, Note_on_c, 1, 75, 92
2, 36528, Note_on_c, 1, 75, 0
2, 36672, Note_on_c, 1, 76, 92
2, 36720, Note_on_c, 1, 76, 0
2, 36864, Note_on_c, 1, 80, 92
2, 36912, Note_on_c, 1, 80, 0
2, 37056, Note_on_c, 1, 83, 92
2, 37104, Note_on_c, 1, 83, 0
2, 37440, Note_on_c, 1, 88, 92
2, 37488, Note_on_c, 1, 88, 0
2, 38784, Note_on_c, 1, 74, 45
2, 38976, Note_on_c, 1, 74, 0
2, 38976, Note_on_c, 1, 73, 45
2, 39168, Note_on_c, 1, 73, 0
2, 39168, Note_on_c, 1, 71, 45
2, 39360, Note_on_c, 1, 71, 0
2, 39360, Note_on_c, 1, 69, 45
2, 39552, Note_on_c, 1, 69, 0
2, 39552, Note_on_c, 1, 71, 45
2, 39744, Note_on_c, 1, 71, 0
2, 39744, Note_on_c, 1, 73, 45
2, 40080, Note_on_c, 1, 73, 0
2, 40320, Note_on_c, 1, 76, 45
2, 40512, Note_on_c, 1, 76, 0
2, 40512, Note_on_c, 1, 74, 45
2, 40704, Note_on_c, 1, 74, 0
2, 40704, Note_on_c, 1, 73, 45
2, 40896, Note_on_c, 1, 73, 0
2, 40896, Note_on_c, 1, 71, 45
2, 41088, Note_on_c, 1, 71, 0
2, 41088, Note_on_c, 1, 73, 45
2, 41280, Note_on_c, 1, 73, 0
2, 41280, Note_on_c, 1, 74, 45
2, 41616, Note_on_c, 1, 74, 0
2, 41856, Note_on_c, 1, 78, 45
2, 42048, Note_on_c, 1, 78, 0
2, 42048, Note_on_c, 1, 76, 45
2, 42240, Note_on_c, 1, 76, 0
2, 42240, Note_on_c, 1, 74, 45
2, 42432, Note_on_c, 1, 74, 0
2, 42432, Note_on_c, 1, 68, 45
2, 42624, Note_on_c, 1, 68, 0
2, 42624, Note_on_c, 1, 74, 47
2, 42816, Note_on_c, 1, 74, 0
2, 42816, Note_on_c, 1, 71, 49
2, 43008, Note_on_c, 1, 71, 0
2, 43008, Note_on_c, 1, 76, 51
2, 43168, Note_on_c, 1, 76, 0
2, 43200, Note_on_c, 1, 68, 53
2, 43392, Note_on_c, 1, 68, 0
2, 43392, Note_on_c, 1, 74, 55
2, 43584, Note_on_c, 1, 74, 0
2, 43584, Note_on_c, 1, 71, 57
2, 43776, Note_on_c, 1, 71, 0
2, 43776, Note_on_c, 1, 76, 60
2, 43936, Note_on_c, 1, 76, 0
2, 43968, Note_on_c, 1, 64, 63
2, 44160, Note_on_c, 1, 64, 0
2, 44160, Note_on_c, 1, 73, 66
2, 44352, Note_on_c, 1, 73, 0
2, 44352, Note_on_c, 1, 69, 69
2, 44544, Note_on_c, 1, 69, 0
2, 44544, Note_on_c, 1, 76, 72
2, 44704, Note_on_c, 1, 76, 0
2, 44736, Note_on_c, 1, 64, 45
2, 44928, Note_on_c, 1, 64, 0
2, 44928, Note_on_c, 1, 73, 45
2, 45120, Note_on_c, 1, 73, 0
2, 45120, Note_on_c, 1, 69, 45
2, 45312, Note_on_c, 1, 69, 0
2, 45312, Note_on_c, 1, 76, 45
2, 45472, Note_on_c, 1, 76, 0
2, 46272, Note_on_c, 1, 57, 45
2, 46464, Note_on_c, 1, 57, 0
2, 46464, Note_on_c, 1, 64, 45
2, 46656, Note_on_c, 1, 64, 0
2, 46656, Note_on_c, 1, 61, 45
2, 46848, Note_on_c, 1, 61, 0
2, 46848, Note_on_c, 1, 69, 45
2, 47008, Note_on_c, 1, 69, 0
2, 47808, Note_on_c, 1, 64, 45
2, 48000, Note_on_c, 1, 64, 0
2, 48000, Note_on_c, 1, 73, 45
2, 48192, Note_on_c, 1, 73, 0
2, 48192, Note_on_c, 1, 69, 45
2, 48384, Note_on_c, 1, 69, 0
2, 48384, Note_on_c, 1, 76, 45
2, 48544, Note_on_c, 1, 76, 0
2, 49344, Note_on_c, 1, 57, 45
2, 49536, Note_on_c, 1, 57, 0
2, 49536, Note_on_c, 1, 64, 45
2, 49728, Note_on_c, 1, 64, 0
2, 49728, Note_on_c, 1, 61, 45
2, 49920, Note_on_c, 1, 61, 0
2, 49920, Note_on_c, 1, 69, 45
2, 50080, Note_on_c, 1, 69, 0
2, 50880, Note_on_c, 1, 81, 45
2, 51040, Note_on_c, 1, 81, 0
2, 51648, Note_on_c, 1, 76, 59
2, 51808, Note_on_c, 1, 76, 0
2, 52032, Note_on_c, 1, 78, 67
2, 52192, Note_on_c, 1, 78, 0
2, 52416, Note_on_c, 1, 81, 45
2, 52800, Note_on_c, 1, 81, 0
2, 52800, Note_on_c, 1, 83, 45
2, 52992, Note_on_c, 1, 83, 0
2, 52992, Note_on_c, 1, 85, 45
2, 53152, Note_on_c, 1, 85, 0
2, 53184, Note_on_c, 1, 83, 45
2, 53904, Note_on_c, 1, 83, 0
2, 53952, Note_on_c, 1, 81, 45
2, 54112, Note_on_c, 1, 81, 0
2, 54336, Note_on_c, 1, 76, 51
2, 54496, Note_on_c, 1, 76, 0
2, 54720, Note_on_c, 1, 76, 59
2, 54880, Note_on_c, 1, 76, 0
2, 55104, Note_on_c, 1, 78, 67
2, 55264, Note_on_c, 1, 78, 0
2, 55488, Note_on_c, 1, 78, 45
2, 55648, Note_on_c, 1, 78, 0
2, 55872, Note_on_c, 1, 76, 45
2, 56032, Note_on_c, 1, 76, 0
2, 56256, Note_on_c, 1, 76, 45
2, 57552, Note_on_c, 1, 76, 0
2, 57600, Note_on_c, 1, 76, 54
2, 57648, Note_on_c, 1, 76, 0
2, 57792, Note_on_c, 1, 80, 57
2, 57952, Note_on_c, 1, 80, 0
2, 57984, Note_on_c, 1, 83, 60
2, 58144, Note_on_c, 1, 83, 0
2, 58176, Note_on_c, 1, 88, 63
2, 58336, Note_on_c, 1, 88, 0
2, 58368, Note_on_c, 1, 76, 66
2, 59088, Note_on_c, 1, 76, 0
2, 59136, Note_on_c, 1, 76, 78
2, 59184, Note_on_c, 1, 76, 0
2, 59328, Note_on_c, 1, 81, 81
2, 59488, Note_on_c, 1, 81, 0
2, 59520, Note_on_c, 1, 85, 84
2, 59680, Note_on_c, 1, 85, 0
2, 59712, Note_on_c, 1, 88, 88
2, 59872, Note_on_c, 1, 88, 0
2, 59904, Note_on_c, 1, 85, 92
2, 60064, Note_on_c, 1, 85, 0
2, 60096, Note_on_c, 1, 88, 92
2, 60192, Note_on_c, 1, 88, 0
2, 60480, Note_on_c, 1, 83, 94
2, 60576, Note_on_c, 1, 83, 0
2, 61440, Note_on_c, 1, 86, 99
2, 61600, Note_on_c, 1, 86, 0
2, 61632, Note_on_c, 1, 90, 100
2, 61728, Note_on_c, 1, 90, 0
2, 62016, Note_on_c, 1, 85, 102
2, 62112, Note_on_c, 1, 85, 0
2, 62976, Note_on_c, 1, 76, 108
2, 63024, Note_on_c, 1, 76, 0
2, 63168, Note_on_c, 1, 68, 108
2, 63216, Note_on_c, 1, 68, 0
2, 63360, Note_on_c, 1, 71, 108
2, 63408, Note_on_c, 1, 71, 0
2, 63552, Note_on_c, 1, 76, 108
2, 63600, Note_on_c, 1, 76, 0
2, 63744, Note_on_c, 1, 80, 108
2, 63792, Note_on_c, 1, 80, 0
2, 63936, Note_on_c, 1, 81, 108
2, 64096, Note_on_c, 1, 81, 0
2, 64128, Note_on_c, 1, 85, 108
2, 64288, Note_on_c, 1, 85, 0
2, 64320, Note_on_c, 1, 88, 108
2, 64480, Note_on_c, 1, 88, 0
2, 64512, Note_on_c, 1, 93, 108
2, 64672, Note_on_c, 1, 93, 0
2, 64704, Note_on_c, 1, 97, 127
2, 65040, Note_on_c, 1, 97, 0
2, 65088, Note_on_c, 1, 80, 108
2, 65424, Note_on_c, 1, 80, 0
2, 65472, Note_on_c, 1, 81, 108
2, 65632, Note_on_c, 1, 81, 0
2, 66048, Note_on_c, 1, 69, 45
2, 66208, Note_on_c, 1, 69, 0
2, 66240, Note_on_c, 1, 73, 45
2, 66336, Note_on_c, 1, 73, 0
2, 66624, Note_on_c, 1, 68, 45
2, 66720, Note_on_c, 1, 68, 0
2, 67584, Note_on_c, 1, 81, 92
2, 67744, Note_on_c, 1, 81, 0
2, 67776, Note_on_c, 1, 84, 92
2, 67872, Note_on_c, 1, 84, 0
2, 68160, Note_on_c, 1, 79, 92
2, 68256, Note_on_c, 1, 79, 0
2, 69120, Note_on_c, 1, 79, 92
2, 69280, Note_on_c, 1, 79, 0
2, 69312, Note_on_c, 1, 82, 92
2, 69408, Note_on_c, 1, 82, 0
2, 69696, Note_on_c, 1, 77, 92
2, 69792, Note_on_c, 1, 77, 0
2, 71040, Note_on_c, 1, 77, 45
2, 71232, Note_on_c, 1, 77, 0
2, 71232, Note_on_c, 1, 75, 45
2, 71424, Note_on_c, 1, 75, 0
2, 71424, Note_on_c, 1, 74, 45
2, 71616, Note_on_c, 1, 74, 0
2, 71616, Note_on_c, 1, 72, 45
2, 71808, Note_on_c, 1, 72, 0
2, 71808, Note_on_c, 1, 74, 45
2, 72000, Note_on_c, 1, 74, 0
2, 72000, Note_on_c, 1, 75, 45
2, 72336, Note_on_c, 1, 75, 0
2, 72576, Note_on_c, 1, 75, 45
2, 72768, Note_on_c, 1, 75, 0
2, 72768, Note_on_c, 1, 74, 45
2, 72960, Note_on_c, 1, 74, 0
2, 72960, Note_on_c, 1, 72, 45
2, 73152, Note_on_c, 1, 72, 0
2, 73152, Note_on_c, 1, 70, 45
2, 73344, Note_on_c, 1, 70, 0
2, 73344, Note_on_c, 1, 72, 45
2, 73536, Note_on_c, 1, 72, 0
2, 73536, Note_on_c, 1, 74, 45
2, 73872, Note_on_c, 1, 74, 0
2, 74112, Note_on_c, 1, 74, 45
2, 74304, Note_on_c, 1, 74, 0
2, 74304, Note_on_c, 1, 72, 45
2, 74496, Note_on_c, 1, 72, 0
2, 74496, Note_on_c, 1, 70, 45
2, 74688, Note_on_c, 1, 70, 0
2, 74688, Note_on_c, 1, 69, 45
2, 74880, Note_on_c, 1, 69, 0
2, 74880, Note_on_c, 1, 70, 45
2, 75072, Note_on_c, 1, 70, 0
2, 75072, Note_on_c, 1, 69, 45
2, 75264, Note_on_c, 1, 69, 0
2, 75264, Note_on_c, 1, 67, 45
2, 75456, Note_on_c, 1, 67, 0
2, 75456, Note_on_c, 1, 65, 45
2, 75648, Note_on_c, 1, 65, 0
2, 75648, Note_on_c, 1, 67, 45
2, 75840, Note_on_c, 1, 67, 0
2, 75840, Note_on_c, 1, 60, 45
2, 76032, Note_on_c, 1, 60, 0
2, 76032, Note_on_c, 1, 64, 45
2, 76224, Note_on_c, 1, 64, 0
2, 76224, Note_on_c, 1, 65, 45
2, 76272, Note_on_c, 1, 65, 0
2, 76416, Note_on_c, 1, 77, 45
2, 76608, Note_on_c, 1, 77, 0
2, 76608, Note_on_c, 1, 81, 45
2, 76800, Note_on_c, 1, 81, 0
2, 76800, Note_on_c, 1, 84, 45
2, 76992, Note_on_c, 1, 84, 0
2, 76992, Note_on_c, 1, 89, 45
2, 77920, Note_on_c, 1, 89, 0
2, 77952, Note_on_c, 1, 89, 45
2, 78144, Note_on_c, 1, 89, 0
2, 78144, Note_on_c, 1, 87, 45
2, 78336, Note_on_c, 1, 87, 0
2, 78336, Note_on_c, 1, 86, 45
2, 78528, Note_on_c, 1, 86, 0
2, 78528, Note_on_c, 1, 84, 45
2, 78720, Note_on_c, 1, 84, 0
2, 78720, Note_on_c, 1, 86, 45
2, 78912, Note_on_c, 1, 86, 0
2, 78912, Note_on_c, 1, 87, 45
2, 79248, Note_on_c, 1, 87, 0
2, 79488, Note_on_c, 1, 87, 45
2, 79680, Note_on_c, 1, 87, 0
2, 79680, Note_on_c, 1, 86, 45
2, 79872, Note_on_c, 1, 86, 0
2, 79872, Note_on_c, 1, 84, 45
2, 80064, Note_on_c, 1, 84, 0
2, 80064, Note_on_c, 1, 82, 45
2, 80256, Note_on_c, 1, 82, 0
2, 80256, Note_on_c, 1, 84, 45
2, 80448, Note_on_c, 1, 84, 0
2, 80448, Note_on_c, 1, 86, 45
2, 80992, Note_on_c, 1, 86, 0
2, 81024, Note_on_c, 1, 86, 45
2, 81216, Note_on_c, 1, 86, 0
2, 81216, Note_on_c, 1, 84, 45
2, 81408, Note_on_c, 1, 84, 0
2, 81408, Note_on_c, 1, 82, 45
2, 81600, Note_on_c, 1, 82, 0
2, 81600, Note_on_c, 1, 81, 45
2, 81792, Note_on_c, 1, 81, 0
2, 81792, Note_on_c, 1, 79, 45
2, 81952, Note_on_c, 1, 79, 0
2, 81984, Note_on_c, 1, 79, 45
2, 82144, Note_on_c, 1, 79, 0
2, 82176, Note_on_c, 1, 70, 92
2, 82176, Note_on_c, 1, 79, 92
2, 82336, Note_on_c, 1, 70, 0
2, 82336, Note_on_c, 1, 79, 0
2, 82368, Note_on_c, 1, 69, 127
2, 82368, Note_on_c, 1, 84, 127
2, 82704, Note_on_c, 1, 69, 0
2, 82704, Note_on_c, 1, 84, 0
2, 82752, Note_on_c, 1, 69, 92
2, 82752, Note_on_c, 1, 81, 92
2, 82912, Note_on_c, 1, 69, 0
2, 82912, Note_on_c, 1, 81, 0
2, 82944, Note_on_c, 1, 77, 45
2, 83104, Note_on_c, 1, 77, 0
2, 83136, Note_on_c, 1, 65, 92
2, 83296, Note_on_c, 1, 65, 0
2, 83712, Note_on_c, 1, 77, 92
2, 83872, Note_on_c, 1, 77, 0
2, 83904, Note_on_c, 1, 67, 92
2, 84064, Note_on_c, 1, 67, 0
2, 84480, Note_on_c, 1, 79, 92
2, 84640, Note_on_c, 1, 79, 0
2, 84672, Note_on_c, 1, 69, 92
2, 84832, Note_on_c, 1, 69, 0
2, 85248, Note_on_c, 1, 81, 92
2, 85408, Note_on_c, 1, 81, 0
2, 85440, Note_on_c, 1, 70, 92
2, 85600, Note_on_c, 1, 70, 0
2, 85632, Note_on_c, 1, 82, 92
2, 85792, Note_on_c, 1, 82, 0
2, 85824, Note_on_c, 1, 72, 92
2, 85984, Note_on_c, 1, 72, 0
2, 86016, Note_on_c, 1, 84, 92
2, 86176, Note_on_c, 1, 84, 0
2, 86208, Note_on_c, 1, 74, 92
2, 86368, Note_on_c, 1, 74, 0
2, 86784, Note_on_c, 1, 86, 92
2, 86944, Note_on_c, 1, 86, 0
2, 86976, Note_on_c, 1, 76, 92
2, 87136, Note_on_c, 1, 76, 0
2, 87552, Note_on_c, 1, 88, 92
2, 87712, Note_on_c, 1, 88, 0
2, 87744, Note_on_c, 1, 77, 92
2, 87904, Note_on_c, 1, 77, 0
2, 88320, Note_on_c, 1, 89, 92
2, 88480, Note_on_c, 1, 89, 0
2, 88512, Note_on_c, 1, 74, 92
2, 88672, Note_on_c, 1, 74, 0
2, 88704, Note_on_c, 1, 86, 92
2, 88864, Note_on_c, 1, 86, 0
2, 88896, Note_on_c, 1, 76, 92
2, 89056, Note_on_c, 1, 76, 0
2, 89088, Note_on_c, 1, 88, 92
2, 89248, Note_on_c, 1, 88, 0
2, 89280, Note_on_c, 1, 69, 92
2, 89328, Note_on_c, 1, 69, 0
2, 89472, Note_on_c, 1, 74, 92
2, 89520, Note_on_c, 1, 74, 0
2, 89664, Note_on_c, 1, 71, 92
2, 89712, Note_on_c, 1, 71, 0
2, 89856, Note_on_c, 1, 76, 92
2, 89904, Note_on_c, 1, 76, 0
2, 90048, Note_on_c, 1, 76, 92
2, 90096, Note_on_c, 1, 76, 0
2, 90240, Note_on_c, 1, 75, 92
2, 90288, Note_on_c, 1, 75, 0
2, 90432, Note_on_c, 1, 76, 92
2, 90480, Note_on_c, 1, 76, 0
2, 90624, Note_on_c, 1, 80, 92
2, 90672, Note_on_c, 1, 80, 0
2, 90816, Note_on_c, 1, 83, 92
2, 90864, Note_on_c, 1, 83, 0
2, 91200, Note_on_c, 1, 88, 92
2, 91248, Note_on_c, 1, 88, 0
2, 92544, Note_on_c, 1, 74, 45
2, 92736, Note_on_c, 1, 74, 0
2, 92736, Note_on_c, 1, 73, 45
2, 92928, Note_on_c, 1, 73, 0
2, 92928, Note_on_c, 1, 71, 45
2, 93120, Note_on_c, 1, 71, 0
2, 93120, Note_on_c, 1, 69, 45
2, 93312, Note_on_c, 1, 69, 0
2, 93312, Note_on_c, 1, 71, 45
2, 93504, Note_on_c, 1, 71, 0
2, 93504, Note_on_c, 1, 73, 45
2, 93840, Note_on_c, 1, 73, 0
2, 94080, Note_on_c, 1, 76, 45
2, 94272, Note_on_c, 1, 76, 0
2, 94272, Note_on_c, 1, 74, 45
2, 94464, Note_on_c, 1, 74, 0
2, 94464, Note_on_c, 1, 73, 45
2, 94656, Note_on_c, 1, 73, 0
2, 94656, Note_on_c, 1, 71, 45
2, 94848, Note_on_c, 1, 71, 0
2, 94848, Note_on_c, 1, 73, 45
2, 95040, Note_on_c, 1, 73, 0
2, 95040, Note_on_c, 1, 74, 45
2, 95376, Note_on_c, 1, 74, 0
2, 95616, Note_on_c, 1, 78, 45
2, 95808, Note_on_c, 1, 78, 0
2, 95808, Note_on_c, 1, 76, 45
2, 96000, Note_on_c, 1, 76, 0
2, 96000, Note_on_c, 1, 74, 45
2, 96192, Note_on_c, 1, 74, 0
2, 96192, Note_on_c, 1, 68, 45
2, 96384, Note_on_c, 1, 68, 0
2, 96384, Note_on_c, 1, 74, 47
2, 96576, Note_on_c, 1, 74, 0
2, 96576, Note_on_c, 1, 71, 49
2, 96768, Note_on_c, 1, 71, 0
2, 96768, Note_on_c, 1, 76, 51
2, 96928, Note_on_c, 1, 76, 0
2, 96960, Note_on_c, 1, 68, 53
2, 97152, Note_on_c, 1, 68, 0
2, 97152, Note_on_c, 1, 74, 55
2, 97344, Note_on_c, 1, 74, 0
2, 97344, Note_on_c, 1, 71, 57
2, 97536, Note_on_c, 1, 71, 0
2, 97536, Note_on_c, 1, 76, 60
2, 97696, Note_on_c, 1, 76, 0
2, 97728, Note_on_c, 1, 64, 63
2, 97920, Note_on_c, 1, 64, 0
2, 97920, Note_on_c, 1, 73, 66
2, 98112, Note_on_c, 1, 73, 0
2, 98112, Note_on_c, 1, 69, 69
2, 98304, Note_on_c, 1, 69, 0
2, 98304, Note_on_c, 1, 76, 72
2, 98464, Note_on_c, 1, 76, 0
2, 98496, Note_on_c, 1, 64, 45
2, 98688, Note_on_c, 1, 64, 0
2, 98688, Note_on_c, 1, 73, 45
2, 98880, Note_on_c, 1, 73, 0
2, 98880, Note_on_c, 1, 69, 45
2, 99072, Note_on_c, 1, 69, 0
2, 99072, Note_on_c, 1, 76, 45
2, 99232, Note_on_c, 1, 76, 0
2, 100032, Note_on_c, 1, 57, 45
2, 100224, Note_on_c, 1, 57, 0
2, 100224, Note_on_c, 1, 64, 45
2, 100416, Note_on_c, 1, 64, 0
2, 100416, Note_on_c, 1, 61, 45
2, 100608, Note_on_c, 1, 61, 0
2, 100608, Note_on_c, 1, 69, 45
2, 100768, Note_on_c, 1, 69, 0
2, 101568, Note_on_c, 1, 64, 45
2, 101760, Note_on_c, 1, 64, 0
2, 101760, Note_on_c, 1, 73, 45
2, 101952, Note_on_c, 1, 73, 0
2, 101952, Note_on_c, 1, 69, 45
2, 102144, Note_on_c, 1, 69, 0
2, 102144, Note_on_c, 1, 76, 45
2, 102304, Note_on_c, 1, 76, 0
2, 103104, Note_on_c, 1, 57, 45
2, 103296, Note_on_c, 1, 57, 0
2, 103296, Note_on_c, 1, 64, 45
2, 103488, Note_on_c, 1, 64, 0
2, 103488, Note_on_c, 1, 61, 45
2, 103680, Note_on_c, 1, 61, 0
2, 103680, Note_on_c, 1, 69, 45
2, 103840, Note_on_c, 1, 69, 0
2, 104640, Note_on_c, 1, 81, 45
2, 104800, Note_on_c, 1, 81, 0
2, 105408, Note_on_c, 1, 76, 59
2, 105568, Note_on_c, 1, 76, 0
2, 105792, Note_on_c, 1, 78, 67
2, 105952, Note_on_c, 1, 78, 0
2, 106176, Note_on_c, 1, 81, 45
2, 106560, Note_on_c, 1, 81, 0
2, 106560, Note_on_c, 1, 83, 45
2, 106752, Note_on_c, 1, 83, 0
2, 106752, Note_on_c, 1, 85, 45
2, 106912, Note_on_c, 1, 85, 0
2, 106944, Note_on_c, 1, 83, 45
2, 107664, Note_on_c, 1, 83, 0
2, 107712, Note_on_c, 1, 81, 45
2, 107872, Note_on_c, 1, 81, 0
2, 108096, Note_on_c, 1, 76, 51
2, 108256, Note_on_c, 1, 76, 0
2, 108480, Note_on_c, 1, 76, 59
2, 108640, Note_on_c, 1, 76, 0
2, 108864, Note_on_c, 1, 78, 67
2, 109024, Note_on_c, 1, 78, 0
2, 109248, Note_on_c, 1, 78, 45
2, 109408, Note_on_c, 1, 78, 0
2, 109632, Note_on_c, 1, 76, 45
2, 109792, Note_on_c, 1, 76, 0
2, 110016, Note_on_c, 1, 76, 45
2, 111312, Note_on_c, 1, 76, 0
2, 111360, Note_on_c, 1, 76, 54
2, 111408, Note_on_c, 1, 76, 0
2, 111552, Note_on_c, 1, 80, 57
2, 111712, Note_on_c, 1, 80, 0
2, 111744, Note_on_c, 1, 83, 60
2, 111904, Note_on_c, 1, 83, 0
2, 111936, Note_on_c, 1, 88, 63
2, 112096, Note_on_c, 1, 88, 0
2, 112128, Note_on_c, 1, 76, 66
2, 112848, Note_on_c, 1, 76, 0
2, 112896, Note_on_c, 1, 76, 78
2, 112944, Note_on_c, 1, 76, 0
2, 113088, Note_on_c, 1, 81, 81
2, 113248, Note_on_c, 1, 81, 0
2, 113280, Note_on_c, 1, 85, 84
2, 113440, Note_on_c, 1, 85, 0
2, 113472, Note_on_c, 1, 88, 88
2, 113632, Note_on_c, 1, 88, 0
2, 113664, Note_on_c, 1, 85, 92
2, 113824, Note_on_c, 1, 85, 0
2, 113856, Note_on_c, 1, 88, 92
2, 113952, Note_on_c, 1, 88, 0
2, 114240, Note_on_c, 1, 83, 94
2, 114336, Note_on_c, 1, 83, 0
2, 115200, Note_on_c, 1, 86, 99
2, 115360, Note_on_c, 1, 86, 0
2, 115392, Note_on_c, 1, 90, 100
2, 115488, Note_on_c, 1, 90, 0
2, 115776, Note_on_c, 1, 85, 102
2, 115872, Note_on_c, 1, 85, 0
2, 116736, Note_on_c, 1, 76, 108
2, 116784, Note_on_c, 1, 76, 0
2, 116928, Note_on_c, 1, 68, 108
2, 116976, Note_on_c, 1, 68, 0
2, 117120, Note_on_c, 1, 71, 108
2, 117168, Note_on_c, 1, 71, 0
2, 117312, Note_on_c, 1, 76, 108
2, 117360, Note_on_c, 1, 76, 0
2, 117504, Note_on_c, 1, 80, 108
2, 117552, Note_on_c, 1, 80, 0
2, 117696, Note_on_c, 1, 81, 108
2, 117856, Note_on_c, 1, 81, 0
2, 117888, Note_on_c, 1, 85, 108
2, 118048, Note_on_c, 1, 85, 0
2, 118080, Note_on_c, 1, 88, 108
2, 118240, Note_on_c, 1, 88, 0
2, 118272, Note_on_c, 1, 93, 108
2, 118432, Note_on_c, 1, 93, 0
2, 118464, Note_on_c, 1, 97, 127
2, 118800, Note_on_c, 1, 97, 0
2, 118848, Note_on_c, 1, 80, 108
2, 119184, Note_on_c, 1, 80, 0
2, 119232, Note_on_c, 1, 81, 108
2, 119392, Note_on_c, 1, 81, 0
2, 119808, Note_on_c, 1, 69, 45
2, 119968, Note_on_c, 1, 69, 0
2, 120000, Note_on_c, 1, 73, 45
2, 120096, Note_on_c, 1, 73, 0
2, 120384, Note_on_c, 1, 68, 45
2, 120480, Note_on_c, 1, 68, 0
2, 121344, Note_on_c, 1, 69, 92
2, 121504, Note_on_c, 1, 69, 0
2, 121536, Note_on_c, 1, 72, 127
2, 121872, Note_on_c, 1, 72, 0
2, 121920, Note_on_c, 1, 68, 92
2, 122080, Note_on_c, 1, 68, 0
2, 122112, Note_on_c, 1, 72, 92
2, 122272, Note_on_c, 1, 72, 0
2, 122304, Note_on_c, 1, 76, 127
2, 122640, Note_on_c, 1, 76, 0
2, 122688, Note_on_c, 1, 71, 92
2, 122848, Note_on_c, 1, 71, 0
2, 122880, Note_on_c, 1, 76, 92
2, 123040, Note_on_c, 1, 76, 0
2, 123072, Note_on_c, 1, 79, 127
2, 123408, Note_on_c, 1, 79, 0
2, 123456, Note_on_c, 1, 74, 92
2, 123616, Note_on_c, 1, 74, 0
2, 124416, Note_on_c, 1, 74, 92
2, 124576, Note_on_c, 1, 74, 0
2, 124608, Note_on_c, 1, 77, 127
2, 124944, Note_on_c, 1, 77, 0
2, 124992, Note_on_c, 1, 72, 92
2, 125328, Note_on_c, 1, 72, 0
2, 126336, Note_on_c, 1, 79, 45
2, 126528, Note_on_c, 1, 79, 0
2, 126528, Note_on_c, 1, 77, 45
2, 126720, Note_on_c, 1, 77, 0
2, 126720, Note_on_c, 1, 76, 45
2, 126912, Note_on_c, 1, 76, 0
2, 126912, Note_on_c, 1, 74, 45
2, 127104, Note_on_c, 1, 74, 0
2, 127104, Note_on_c, 1, 76, 45
2, 127296, Note_on_c, 1, 76, 0
2, 127296, Note_on_c, 1, 77, 45
2, 127632, Note_on_c, 1, 77, 0
2, 127872, Note_on_c, 1, 81, 45
2, 128064, Note_on_c, 1, 81, 0
2, 128064, Note_on_c, 1, 79, 45
2, 128256, Note_on_c, 1, 79, 0
2, 128256, Note_on_c, 1, 77, 45
2, 128448, Note_on_c, 1, 77, 0
2, 128448, Note_on_c, 1, 76, 45
2, 128640, Note_on_c, 1, 76, 0
2, 128640, Note_on_c, 1, 77, 45
2, 128832, Note_on_c, 1, 77, 0
2, 128832, Note_on_c, 1, 79, 45
2, 128992, Note_on_c, 1, 79, 0
2, 129024, Note_on_c, 1, 84, 45
2, 129072, Note_on_c, 1, 84, 0
2, 129216, Note_on_c, 1, 88, 45
2, 129312, Note_on_c, 1, 88, 0
2, 129600, Note_on_c, 1, 83, 45
2, 129696, Note_on_c, 1, 83, 0
2, 130560, Note_on_c, 1, 83, 45
2, 130608, Note_on_c, 1, 83, 0
2, 130752, Note_on_c, 1, 86, 45
2, 130848, Note_on_c, 1, 86, 0
2, 131136, Note_on_c, 1, 81, 45
2, 131232, Note_on_c, 1, 81, 0
2, 132096, Note_on_c, 1, 86, 45
2, 132256, Note_on_c, 1, 86, 0
2, 132288, Note_on_c, 1, 86, 45
2, 132448, Note_on_c, 1, 86, 0
2, 132672, Note_on_c, 1, 84, 45
2, 132832, Note_on_c, 1, 84, 0
2, 133248, Note_on_c, 1, 84, 45
2, 133440, Note_on_c, 1, 84, 0
2, 133440, Note_on_c, 1, 82, 45
2, 133632, Note_on_c, 1, 82, 0
2, 133632, Note_on_c, 1, 81, 45
2, 133824, Note_on_c, 1, 81, 0
2, 133824, Note_on_c, 1, 79, 45
2, 133984, Note_on_c, 1, 79, 0
2, 134400, Note_on_c, 1, 84, 45
2, 134448, Note_on_c, 1, 84, 0
2, 134592, Note_on_c, 1, 89, 45
2, 134688, Note_on_c, 1, 89, 0
2, 134976, Note_on_c, 1, 84, 45
2, 135024, Note_on_c, 1, 84, 0
2, 135168, Note_on_c, 1, 81, 45
2, 135360, Note_on_c, 1, 81, 0
2, 135360, Note_on_c, 1, 76, 45
2, 135552, Note_on_c, 1, 76, 0
2, 135552, Note_on_c, 1, 77, 45
2, 135744, Note_on_c, 1, 77, 0
2, 135744, Note_on_c, 1, 79, 45
2, 135904, Note_on_c, 1, 79, 0
2, 135936, Note_on_c, 1, 79, 45
2, 136128, Note_on_c, 1, 79, 0
2, 136128, Note_on_c, 1, 74, 45
2, 136320, Note_on_c, 1, 74, 0
2, 136320, Note_on_c, 1, 76, 45
2, 136512, Note_on_c, 1, 76, 0
2, 136512, Note_on_c, 1, 77, 45
2, 136672, Note_on_c, 1, 77, 0
2, 137856, Note_on_c, 1, 82, 45
2, 138048, Note_on_c, 1, 82, 0
2, 138048, Note_on_c, 1, 81, 45
2, 138592, Note_on_c, 1, 81, 0
2, 138624, Note_on_c, 1, 82, 30
2, 138816, Note_on_c, 1, 82, 0
2, 138816, Note_on_c, 1, 81, 30
2, 139008, Note_on_c, 1, 81, 0
2, 139008, Note_on_c, 1, 79, 30
2, 139200, Note_on_c, 1, 79, 0
2, 139200, Note_on_c, 1, 76, 30
2, 139392, Note_on_c, 1, 76, 0
2, 139392, Note_on_c, 1, 77, 30
2, 139584, Note_on_c, 1, 77, 0
2, 139584, Note_on_c, 1, 79, 30
2, 139776, Note_on_c, 1, 79, 0
2, 139776, Note_on_c, 1, 81, 30
2, 139968, Note_on_c, 1, 81, 0
2, 139968, Note_on_c, 1, 79, 30
2, 140160, Note_on_c, 1, 79, 0
2, 140160, Note_on_c, 1, 77, 30
2, 140352, Note_on_c, 1, 77, 0
2, 140352, Note_on_c, 1, 76, 30
2, 140544, Note_on_c, 1, 76, 0
2, 140544, Note_on_c, 1, 74, 30
2, 140736, Note_on_c, 1, 74, 0
2, 140736, Note_on_c, 1, 73, 30
2, 140928, Note_on_c, 1, 73, 0
2, 140928, Note_on_c, 1, 74, 30
2, 141120, Note_on_c, 1, 74, 0
2, 141120, Note_on_c, 1, 76, 30
2, 141312, Note_on_c, 1, 76, 0
2, 141312, Note_on_c, 1, 73, 30
2, 141472, Note_on_c, 1, 73, 0
2, 141504, Note_on_c, 1, 74, 45
2, 141552, Note_on_c, 1, 74, 0
2, 141888, Note_on_c, 1, 69, 45
2, 142048, Note_on_c, 1, 69, 0
2, 142272, Note_on_c, 1, 69, 45
2, 142432, Note_on_c, 1, 69, 0
2, 142656, Note_on_c, 1, 71, 45
2, 142816, Note_on_c, 1, 71, 0
2, 143040, Note_on_c, 1, 74, 45
2, 143424, Note_on_c, 1, 74, 0
2, 143424, Note_on_c, 1, 76, 45
2, 143616, Note_on_c, 1, 76, 0
2, 143616, Note_on_c, 1, 78, 45
2, 143776, Note_on_c, 1, 78, 0
2, 143808, Note_on_c, 1, 76, 45
2, 144528, Note_on_c, 1, 76, 0
2, 144576, Note_on_c, 1, 74, 45
2, 144736, Note_on_c, 1, 74, 0
2, 144960, Note_on_c, 1, 69, 45
2, 145120, Note_on_c, 1, 69, 0
2, 145344, Note_on_c, 1, 69, 45
2, 145504, Note_on_c, 1, 69, 0
2, 145728, Note_on_c, 1, 71, 45
2, 145888, Note_on_c, 1, 71, 0
2, 146112, Note_on_c, 1, 71, 45
2, 146272, Note_on_c, 1, 71, 0
2, 146496, Note_on_c, 1, 69, 45
2, 146656, Note_on_c, 1, 69, 0
2, 146880, Note_on_c, 1, 69, 45
2, 147600, Note_on_c, 1, 69, 0
2, 147648, Note_on_c, 1, 86, 45
2, 147808, Note_on_c, 1, 86, 0
2, 148032, Note_on_c, 1, 81, 49
2, 148192, Note_on_c, 1, 81, 0
2, 148416, Note_on_c, 1, 81, 53
2, 148576, Note_on_c, 1, 81, 0
2, 148800, Note_on_c, 1, 83, 57
2, 148960, Note_on_c, 1, 83, 0
2, 149184, Note_on_c, 1, 83, 63
2, 149344, Note_on_c, 1, 83, 0
2, 149568, Note_on_c, 1, 81, 69
2, 149728, Note_on_c, 1, 81, 0
2, 149952, Note_on_c, 1, 81, 45
2, 150672, Note_on_c, 1, 81, 0
2, 150720, Note_on_c, 1, 79, 45
2, 150880, Note_on_c, 1, 79, 0
2, 151104, Note_on_c, 1, 78, 59
2, 151264, Note_on_c, 1, 78, 0
2, 151488, Note_on_c, 1, 78, 45
2, 152208, Note_on_c, 1, 78, 0
2, 152256, Note_on_c, 1, 76, 45
2, 152416, Note_on_c, 1, 76, 0
2, 152640, Note_on_c, 1, 74, 59
2, 152800, Note_on_c, 1, 74, 0
2, 153024, Note_on_c, 1, 74, 45
2, 157024, Note_on_c, 1, 74, 0
2, 157056, Note_on_c, 1, 74, 30
2, 157248, Note_on_c, 1, 74, 0
2, 157248, Note_on_c, 1, 72, 30
2, 157440, Note_on_c, 1, 72, 0
2, 157440, Note_on_c, 1, 70, 30
2, 157632, Note_on_c, 1, 70, 0
2, 157632, Note_on_c, 1, 69, 30
2, 157824, Note_on_c, 1, 69, 0
2, 157824, Note_on_c, 1, 70, 30
2, 158016, Note_on_c, 1, 70, 0
2, 158016, Note_on_c, 1, 72, 30
2, 158560, Note_on_c, 1, 72, 0
2, 158592, Note_on_c, 1, 72, 30
2, 158784, Note_on_c, 1, 72, 0
2, 158784, Note_on_c, 1, 70, 30
2, 158976, Note_on_c, 1, 70, 0
2, 158976, Note_on_c, 1, 69, 30
2, 159168, Note_on_c, 1, 69, 0
2, 159168, Note_on_c, 1, 67, 30
2, 159360, Note_on_c, 1, 67, 0
2, 159360, Note_on_c, 1, 69, 30
2, 159552, Note_on_c, 1, 69, 0
2, 159552, Note_on_c, 1, 70, 30
2, 160096, Note_on_c, 1, 70, 0
2, 160128, Note_on_c, 1, 72, 30
2, 160320, Note_on_c, 1, 72, 0
2, 160320, Note_on_c, 1, 70, 30
2, 160512, Note_on_c, 1, 70, 0
2, 160512, Note_on_c, 1, 68, 30
2, 160704, Note_on_c, 1, 68, 0
2, 160704, Note_on_c, 1, 67, 30
2, 160896, Note_on_c, 1, 67, 0
2, 160896, Note_on_c, 1, 68, 30
2, 161088, Note_on_c, 1, 68, 0
2, 161088, Note_on_c, 1, 70, 30
2, 161632, Note_on_c, 1, 70, 0
2, 161856, Note_on_c, 1, 68, 30
2, 162016, Note_on_c, 1, 68, 0
2, 162240, Note_on_c, 1, 68, 30
2, 162400, Note_on_c, 1, 68, 0
2, 162624, Note_on_c, 1, 67, 30
2, 162784, Note_on_c, 1, 67, 0
2, 163008, Note_on_c, 1, 67, 30
2, 163168, Note_on_c, 1, 67, 0
2, 163392, Note_on_c, 1, 65, 30
2, 163552, Note_on_c, 1, 65, 0
2, 163776, Note_on_c, 1, 65, 30
2, 163936, Note_on_c, 1, 65, 0
2, 164160, Note_on_c, 1, 64, 30
2, 164352, Note_on_c, 1, 64, 0
2, 164352, Note_on_c, 1, 63, 30
2, 164512, Note_on_c, 1, 63, 0
2, 164544, Note_on_c, 1, 63, 30
2, 164704, Note_on_c, 1, 63, 0
2, 164928, Note_on_c, 1, 61, 30
2, 165088, Note_on_c, 1, 61, 0
2, 165312, Note_on_c, 1, 61, 30
2, 165472, Note_on_c, 1, 61, 0
2, 165696, Note_on_c, 1, 60, 30
2, 165856, Note_on_c, 1, 60, 0
2, 166080, Note_on_c, 1, 63, 30
2, 166240, Note_on_c, 1, 63, 0
2, 166464, Note_on_c, 1, 63, 30
2, 166528, Note_on_c, 1, 63, 0
2, 166528, Note_on_c, 1, 61, 30
2, 166592, Note_on_c, 1, 61, 0
2, 166592, Note_on_c, 1, 63, 30
2, 166656, Note_on_c, 1, 63, 0
2, 166656, Note_on_c, 1, 61, 30
2, 166720, Note_on_c, 1, 61, 0
2, 166720, Note_on_c, 1, 60, 30
2, 166784, Note_on_c, 1, 60, 0
2, 166784, Note_on_c, 1, 61, 30
2, 166846, Note_on_c, 1, 61, 0
2, 166848, Note_on_c, 1, 60, 30
2, 167040, Note_on_c, 1, 60, 0
2, 167040, Note_on_c, 1, 71, 30
2, 167232, Note_on_c, 1, 71, 0
2, 167232, Note_on_c, 1, 72, 30
2, 167424, Note_on_c, 1, 72, 0
2, 167424, Note_on_c, 1, 73, 30
2, 167584, Note_on_c, 1, 73, 0
2, 167616, Note_on_c, 1, 73, 30
2, 167808, Note_on_c, 1, 73, 0
2, 167808, Note_on_c, 1, 75, 30
2, 168000, Note_on_c, 1, 75, 0
2, 168000, Note_on_c, 1, 73, 30
2, 168192, Note_on_c, 1, 73, 0
2, 168192, Note_on_c, 1, 72, 30
2, 168352, Note_on_c, 1, 72, 0
2, 168384, Note_on_c, 1, 72, 30
2, 168576, Note_on_c, 1, 72, 0
2, 168576, Note_on_c, 1, 73, 30
2, 168768, Note_on_c, 1, 73, 0
2, 168768, Note_on_c, 1, 72, 30
2, 168960, Note_on_c, 1, 72, 0
2, 168960, Note_on_c, 1, 70, 30
2, 169120, Note_on_c, 1, 70, 0
2, 169152, Note_on_c, 1, 70, 30
2, 169344, Note_on_c, 1, 70, 0
2, 169344, Note_on_c, 1, 72, 30
2, 169536, Note_on_c, 1, 72, 0
2, 169536, Note_on_c, 1, 70, 30
2, 169728, Note_on_c, 1, 70, 0
2, 169728, Note_on_c, 1, 68, 30
2, 169888, Note_on_c, 1, 68, 0
2, 169920, Note_on_c, 1, 68, 30
2, 170112, Note_on_c, 1, 68, 0
2, 170112, Note_on_c, 1, 70, 30
2, 170304, Note_on_c, 1, 70, 0
2, 170304, Note_on_c, 1, 68, 30
2, 170496, Note_on_c, 1, 68, 0
2, 170496, Note_on_c, 1, 67, 30
2, 170656, Note_on_c, 1, 67, 0
2, 170688, Note_on_c, 1, 60, 30
2, 170848, Note_on_c, 1, 60, 0
2, 171072, Note_on_c, 1, 65, 30
2, 171232, Note_on_c, 1, 65, 0
2, 171456, Note_on_c, 1, 65, 30
2, 171616, Note_on_c, 1, 65, 0
2, 171840, Note_on_c, 1, 68, 30
2, 172000, Note_on_c, 1, 68, 0
2, 172224, Note_on_c, 1, 60, 30
2, 172384, Note_on_c, 1, 60, 0
2, 172608, Note_on_c, 1, 65, 30
2, 172768, Note_on_c, 1, 65, 0
2, 172992, Note_on_c, 1, 68, 30
2, 173152, Note_on_c, 1, 68, 0
2, 173376, Note_on_c, 1, 72, 30
2, 173536, Note_on_c, 1, 72, 0
2, 173760, Note_on_c, 1, 63, 30
2, 173920, Note_on_c, 1, 63, 0
2, 174144, Note_on_c, 1, 63, 30
2, 174208, Note_on_c, 1, 63, 0
2, 174208, Note_on_c, 1, 61, 30
2, 174272, Note_on_c, 1, 61, 0
2, 174272, Note_on_c, 1, 63, 30
2, 174336, Note_on_c, 1, 63, 0
2, 174336, Note_on_c, 1, 61, 30
2, 174400, Note_on_c, 1, 61, 0
2, 174400, Note_on_c, 1, 60, 30
2, 174464, Note_on_c, 1, 60, 0
2, 174464, Note_on_c, 1, 61, 30
2, 174526, Note_on_c, 1, 61, 0
2, 174528, Note_on_c, 1, 60, 30
2, 175248, Note_on_c, 1, 60, 0
2, 175296, Note_on_c, 1, 75, 30
2, 175456, Note_on_c, 1, 75, 0
2, 175680, Note_on_c, 1, 75, 30
2, 175744, Note_on_c, 1, 75, 0
2, 175744, Note_on_c, 1, 73, 37
2, 175808, Note_on_c, 1, 73, 0
2, 175808, Note_on_c, 1, 75, 44
2, 175872, Note_on_c, 1, 75, 0
2, 175872, Note_on_c, 1, 73, 51
2, 175936, Note_on_c, 1, 73, 0
2, 175936, Note_on_c, 1, 75, 59
2, 176000, Note_on_c, 1, 75, 0
2, 176000, Note_on_c, 1, 73, 67
2, 176064, Note_on_c, 1, 73, 0
2, 176064, Note_on_c, 1, 75, 75
2, 176128, Note_on_c, 1, 75, 0
2, 176128, Note_on_c, 1, 73, 73
2, 176192, Note_on_c, 1, 73, 0
2, 176192, Note_on_c, 1, 75, 71
2, 176256, Note_on_c, 1, 75, 0
2, 176256, Note_on_c, 1, 73, 69
2, 176320, Note_on_c, 1, 73, 0
2, 176320, Note_on_c, 1, 75, 67
2, 176384, Note_on_c, 1, 75, 0
2, 176384, Note_on_c, 1, 73, 65
2, 176448, Note_on_c, 1, 73, 0
2, 176448, Note_on_c, 1, 75, 63
2, 176512, Note_on_c, 1, 75, 0
2, 176512, Note_on_c, 1, 73, 60
2, 176576, Note_on_c, 1, 73, 0
2, 176576, Note_on_c, 1, 75, 57
2, 176640, Note_on_c, 1, 75, 0
2, 176640, Note_on_c, 1, 73, 54
2, 176704, Note_on_c, 1, 73, 0
2, 176704, Note_on_c, 1, 72, 51
2, 176768, Note_on_c, 1, 72, 0
2, 176768, Note_on_c, 1, 73, 48
2, 176830, Note_on_c, 1, 73, 0
2, 176832, Note_on_c, 1, 72, 45
2, 178320, Note_on_c, 1, 72, 0
2, 178368, Note_on_c, 1, 79, 65
2, 179856, Note_on_c, 1, 79, 0
2, 179904, Note_on_c, 1, 84, 86
2, 181392, Note_on_c, 1, 84, 0
2, 181440, Note_on_c, 1, 84, 108
2, 181486, Note_on_c, 1, 84, 0
2, 181488, Note_on_c, 1, 84, 108
2, 181534, Note_on_c, 1, 84, 0
2, 181536, Note_on_c, 1, 84, 108
2, 181582, Note_on_c, 1, 84, 0
2, 181584, Note_on_c, 1, 84, 108
2, 181630, Note_on_c, 1, 84, 0
2, 181632, Note_on_c, 1, 84, 108
2, 181678, Note_on_c, 1, 84, 0
2, 181680, Note_on_c, 1, 84, 108
2, 181726, Note_on_c, 1, 84, 0
2, 181728, Note_on_c, 1, 84, 108
2, 181774, Note_on_c, 1, 84, 0
2, 181776, Note_on_c, 1, 84, 108
2, 181822, Note_on_c, 1, 84, 0
2, 181824, Note_on_c, 1, 84, 108
2, 181870, Note_on_c, 1, 84, 0
2, 181872, Note_on_c, 1, 84, 108
2, 181918, Note_on_c, 1, 84, 0
2, 181920, Note_on_c, 1, 84, 108
2, 181966, Note_on_c, 1, 84, 0
2, 181968, Note_on_c, 1, 84, 108
2, 182014, Note_on_c, 1, 84, 0
2, 182016, Note_on_c, 1, 84, 108
2, 182062, Note_on_c, 1, 84, 0
2, 182064, Note_on_c, 1, 84, 108
2, 182110, Note_on_c, 1, 84, 0
2, 182112, Note_on_c, 1, 84, 108
2, 182158, Note_on_c, 1, 84, 0
2, 182160, Note_on_c, 1, 84, 108
2, 182206, Note_on_c, 1, 84, 0
2, 182208, Note_on_c, 1, 84, 108
2, 182254, Note_on_c, 1, 84, 0
2, 182256, Note_on_c, 1, 84, 108
2, 182302, Note_on_c, 1, 84, 0
2, 182304, Note_on_c, 1, 84, 108
2, 182350, Note_on_c, 1, 84, 0
2, 182352, Note_on_c, 1, 84, 108
2, 182398, Note_on_c, 1, 84, 0
2, 182400, Note_on_c, 1, 84, 108
2, 182446, Note_on_c, 1, 84, 0
2, 182448, Note_on_c, 1, 84, 108
2, 182494, Note_on_c, 1, 84, 0
2, 182496, Note_on_c, 1, 84, 108
2, 182542, Note_on_c, 1, 84, 0
2, 182544, Note_on_c, 1, 84, 108
2, 182590, Note_on_c, 1, 84, 0
2, 182592, Note_on_c, 1, 84, 108
2, 182638, Note_on_c, 1, 84, 0
2, 182640, Note_on_c, 1, 84, 106
2, 182686, Note_on_c, 1, 84, 0
2, 182688, Note_on_c, 1, 84, 104
2, 182734, Note_on_c, 1, 84, 0
2, 182736, Note_on_c, 1, 84, 102
2, 182782, Note_on_c, 1, 84, 0
2, 182784, Note_on_c, 1, 84, 100
2, 182830, Note_on_c, 1, 84, 0
2, 182832, Note_on_c, 1, 84, 98
2, 182878, Note_on_c, 1, 84, 0
2, 182880, Note_on_c, 1, 84, 96
2, 182926, Note_on_c, 1, 84, 0
2, 182928, Note_on_c, 1, 84, 94
2, 182974, Note_on_c, 1, 84, 0
2, 182976, Note_on_c, 1, 84, 92
2, 183022, Note_on_c, 1, 84, 0
2, 183024, Note_on_c, 1, 84, 90
2, 183070, Note_on_c, 1, 84, 0
2, 183072, Note_on_c, 1, 84, 87
2, 183118, Note_on_c, 1, 84, 0
2, 183120, Note_on_c, 1, 84, 84
2, 183166, Note_on_c, 1, 84, 0
2, 183168, Note_on_c, 1, 84, 81
2, 183214, Note_on_c, 1, 84, 0
2, 183216, Note_on_c, 1, 84, 78
2, 183262, Note_on_c, 1, 84, 0
2, 183264, Note_on_c, 1, 84, 75
2, 183310, Note_on_c, 1, 84, 0
2, 183312, Note_on_c, 1, 84, 72
2, 183358, Note_on_c, 1, 84, 0
2, 183360, Note_on_c, 1, 84, 69
2, 183406, Note_on_c, 1, 84, 0
2, 183408, Note_on_c, 1, 84, 66
2, 183454, Note_on_c, 1, 84, 0
2, 183456, Note_on_c, 1, 84, 63
2, 183502, Note_on_c, 1, 84, 0
2, 183504, Note_on_c, 1, 84, 60
2, 183550, Note_on_c, 1, 84, 0
2, 183552, Note_on_c, 1, 84, 57
2, 183598, Note_on_c, 1, 84, 0
2, 183600, Note_on_c, 1, 84, 54
2, 183646, Note_on_c, 1, 84, 0
2, 183648, Note_on_c, 1, 84, 51
2, 183694, Note_on_c, 1, 84, 0
2, 183696, Note_on_c, 1, 84, 48
2, 183742, Note_on_c, 1, 84, 0
2, 183744, Note_on_c, 1, 84, 108
2, 183790, Note_on_c, 1, 84, 0
2, 183792, Note_on_c, 1, 84, 108
2, 183838, Note_on_c, 1, 84, 0
2, 183840, Note_on_c, 1, 84, 108
2, 183886, Note_on_c, 1, 84, 0
2, 183888, Note_on_c, 1, 84, 108
2, 183934, Note_on_c, 1, 84, 0
2, 183936, Note_on_c, 1, 84, 108
2, 183982, Note_on_c, 1, 84, 0
2, 183984, Note_on_c, 1, 84, 108
2, 184030, Note_on_c, 1, 84, 0
2, 184032, Note_on_c, 1, 84, 108
2, 184078, Note_on_c, 1, 84, 0
2, 184080, Note_on_c, 1, 84, 108
2, 184126, Note_on_c, 1, 84, 0
2, 184128, Note_on_c, 1, 84, 108
2, 184174, Note_on_c, 1, 84, 0
2, 184176, Note_on_c, 1, 84, 108
2, 184222, Note_on_c, 1, 84, 0
2, 184224, Note_on_c, 1, 84, 108
2, 184270, Note_on_c, 1, 84, 0
2, 184272, Note_on_c, 1, 84, 108
2, 184318, Note_on_c, 1, 84, 0
2, 184320, Note_on_c, 1, 84, 108
2, 184366, Note_on_c, 1, 84, 0
2, 184368, Note_on_c, 1, 84, 108
2, 184414, Note_on_c, 1, 84, 0
2, 184416, Note_on_c, 1, 84, 108
2, 184462, Note_on_c, 1, 84, 0
2, 184464, Note_on_c, 1, 84, 108
2, 184510, Note_on_c, 1, 84, 0
2, 184512, Note_on_c, 1, 84, 108
2, 184558, Note_on_c, 1, 84, 0
2, 184560, Note_on_c, 1, 84, 108
2, 184606, Note_on_c, 1, 84, 0
2, 184608, Note_on_c, 1, 84, 108
2, 184654, Note_on_c, 1, 84, 0
2, 184656, Note_on_c, 1, 84, 108
2, 184702, Note_on_c, 1, 84, 0
2, 184704, Note_on_c, 1, 84, 108
2, 184750, Note_on_c, 1, 84, 0
2, 184752, Note_on_c, 1, 84, 108
2, 184798, Note_on_c, 1, 84, 0
2, 184800, Note_on_c, 1, 84, 108
2, 184846, Note_on_c, 1, 84, 0
2, 184848, Note_on_c, 1, 84, 108
2, 184894, Note_on_c, 1, 84, 0
2, 184896, Note_on_c, 1, 84, 108
2, 184942, Note_on_c, 1, 84, 0
2, 184944, Note_on_c, 1, 84, 106
2, 184990, Note_on_c, 1, 84, 0
2, 184992, Note_on_c, 1, 84, 104
2, 185038, Note_on_c, 1, 84, 0
2, 185040, Note_on_c, 1, 84, 102
2, 185086, Note_on_c, 1, 84, 0
2, 185088, Note_on_c, 1, 84, 100
2, 185134, Note_on_c, 1, 84, 0
2, 185136, Note_on_c, 1, 84, 98
2, 185182, Note_on_c, 1, 84, 0
2, 185184, Note_on_c, 1, 84, 96
2, 185230, Note_on_c, 1, 84, 0
2, 185232, Note_on_c, 1, 84, 94
2, 185278, Note_on_c, 1, 84, 0
2, 185280, Note_on_c, 1, 84, 92
2, 185326, Note_on_c, 1, 84, 0
2, 185328, Note_on_c, 1, 84, 90
2, 185374, Note_on_c, 1, 84, 0
2, 185376, Note_on_c, 1, 84, 87
2, 185422, Note_on_c, 1, 84, 0
2, 185424, Note_on_c, 1, 84, 84
2, 185470, Note_on_c, 1, 84, 0
2, 185472, Note_on_c, 1, 84, 81
2, 185518, Note_on_c, 1, 84, 0
2, 185520, Note_on_c, 1, 84, 78
2, 185566, Note_on_c, 1, 84, 0
2, 185568, Note_on_c, 1, 84, 75
2, 185614, Note_on_c, 1, 84, 0
2, 185616, Note_on_c, 1, 84, 72
2, 185662, Note_on_c, 1, 84, 0
2, 185664, Note_on_c, 1, 82, 69
2, 185710, Note_on_c, 1, 82, 0
2, 185712, Note_on_c, 1, 82, 66
2, 185758, Note_on_c, 1, 82, 0
2, 185760, Note_on_c, 1, 82, 63
2, 185806, Note_on_c, 1, 82, 0
2, 185808, Note_on_c, 1, 82, 60
2, 185854, Note_on_c, 1, 82, 0
2, 185856, Note_on_c, 1, 82, 57
2, 185902, Note_on_c, 1, 82, 0
2, 185904, Note_on_c, 1, 82, 54
2, 185950, Note_on_c, 1, 82, 0
2, 185952, Note_on_c, 1, 82, 51
2, 185998, Note_on_c, 1, 82, 0
2, 186000, Note_on_c, 1, 82, 48
2, 186046, Note_on_c, 1, 82, 0
2, 186048, Note_on_c, 1, 82, 92
2, 186094, Note_on_c, 1, 82, 0
2, 186096, Note_on_c, 1, 82, 92
2, 186142, Note_on_c, 1, 82, 0
2, 186144, Note_on_c, 1, 82, 92
2, 186190, Note_on_c, 1, 82, 0
2, 186192, Note_on_c, 1, 82, 92
2, 186238, Note_on_c, 1, 82, 0
2, 186240, Note_on_c, 1, 82, 92
2, 186286, Note_on_c, 1, 82, 0
2, 186288, Note_on_c, 1, 82, 92
2, 186334, Note_on_c, 1, 82, 0
2, 186336, Note_on_c, 1, 82, 92
2, 186382, Note_on_c, 1, 82, 0
2, 186384, Note_on_c, 1, 82, 92
2, 186430, Note_on_c, 1, 82, 0
2, 186432, Note_on_c, 1, 82, 92
2, 186478, Note_on_c, 1, 82, 0
2, 186480, Note_on_c, 1, 82, 92
2, 186526, Note_on_c, 1, 82, 0
2, 186528, Note_on_c, 1, 82, 92
2, 186574, Note_on_c, 1, 82, 0
2, 186576, Note_on_c, 1, 82, 92
2, 186622, Note_on_c, 1, 82, 0
2, 186624, Note_on_c, 1, 82, 92
2, 186670, Note_on_c, 1, 82, 0
2, 186672, Note_on_c, 1, 82, 92
2, 186718, Note_on_c, 1, 82, 0
2, 186720, Note_on_c, 1, 82, 92
2, 186766, Note_on_c, 1, 82, 0
2, 186768, Note_on_c, 1, 82, 92
2, 186814, Note_on_c, 1, 82, 0
2, 186816, Note_on_c, 1, 82, 92
2, 186862, Note_on_c, 1, 82, 0
2, 186864, Note_on_c, 1, 82, 87
2, 186910, Note_on_c, 1, 82, 0
2, 186912, Note_on_c, 1, 82, 81
2, 186958, Note_on_c, 1, 82, 0
2, 186960, Note_on_c, 1, 82, 75
2, 187006, Note_on_c, 1, 82, 0
2, 187008, Note_on_c, 1, 82, 69
2, 187054, Note_on_c, 1, 82, 0
2, 187056, Note_on_c, 1, 82, 63
2, 187102, Note_on_c, 1, 82, 0
2, 187104, Note_on_c, 1, 82, 57
2, 187150, Note_on_c, 1, 82, 0
2, 187152, Note_on_c, 1, 82, 51
2, 187198, Note_on_c, 1, 82, 0
2, 187200, Note_on_c, 1, 73, 92
2, 187200, Note_on_c, 1, 82, 92
2, 187246, Note_on_c, 1, 73, 0
2, 187246, Note_on_c, 1, 82, 0
2, 187248, Note_on_c, 1, 73, 92
2, 187248, Note_on_c, 1, 82, 92
2, 187294, Note_on_c, 1, 73, 0
2, 187294, Note_on_c, 1, 82, 0
2, 187296, Note_on_c, 1, 73, 92
2, 187296, Note_on_c, 1, 82, 92
2, 187342, Note_on_c, 1, 73, 0
2, 187342, Note_on_c, 1, 82, 0
2, 187344, Note_on_c, 1, 73, 92
2, 187344, Note_on_c, 1, 82, 92
2, 187390, Note_on_c, 1, 73, 0
2, 187390, Note_on_c, 1, 82, 0
2, 187392, Note_on_c, 1, 73, 92
2, 187392, Note_on_c, 1, 82, 92
2, 187438, Note_on_c, 1, 73, 0
2, 187438, Note_on_c, 1, 82, 0
2, 187440, Note_on_c, 1, 73, 92
2, 187440, Note_on_c, 1, 82, 92
2, 187486, Note_on_c, 1, 73, 0
2, 187486, Note_on_c, 1, 82, 0
2, 187488, Note_on_c, 1, 73, 92
2, 187488, Note_on_c, 1, 82, 92
2, 187534, Note_on_c, 1, 73, 0
2, 187534, Note_on_c, 1, 82, 0
2, 187536, Note_on_c, 1, 73, 92
2, 187536, Note_on_c, 1, 82, 92
2, 187582, Note_on_c, 1, 73, 0
2, 187582, Note_on_c, 1, 82, 0
2, 187584, Note_on_c, 1, 73, 92
2, 187584, Note_on_c, 1, 82, 92
2, 187630, Note_on_c, 1, 73, 0
2, 187630, Note_on_c, 1, 82, 0
2, 187632, Note_on_c, 1, 73, 92
2, 187632, Note_on_c, 1, 82, 92
2, 187678, Note_on_c, 1, 73, 0
2, 187678, Note_on_c, 1, 82, 0
2, 187680, Note_on_c, 1, 73, 92
2, 187680, Note_on_c, 1, 82, 92
2, 187726, Note_on_c, 1, 73, 0
2, 187726, Note_on_c, 1, 82, 0
2, 187728, Note_on_c, 1, 73, 92
2, 187728, Note_on_c, 1, 82, 92
2, 187774, Note_on_c, 1, 73, 0
2, 187774, Note_on_c, 1, 82, 0
2, 187776, Note_on_c, 1, 73, 92
2, 187776, Note_on_c, 1, 82, 92
2, 187822, Note_on_c, 1, 73, 0
2, 187822, Note_on_c, 1, 82, 0
2, 187824, Note_on_c, 1, 73, 92
2, 187824, Note_on_c, 1, 82, 92
2, 187870, Note_on_c, 1, 73, 0
2, 187870, Note_on_c, 1, 82, 0
2, 187872, Note_on_c, 1, 73, 92
2, 187872, Note_on_c, 1, 82, 92
2, 187918, Note_on_c, 1, 73, 0
2, 187918, Note_on_c, 1, 82, 0
2, 187920, Note_on_c, 1, 73, 92
2, 187920, Note_on_c, 1, 82, 92
2, 187966, Note_on_c, 1, 73, 0
2, 187966, Note_on_c, 1, 82, 0
2, 187968, Note_on_c, 1, 73, 92
2, 187968, Note_on_c, 1, 82, 92
2, 188128, Note_on_c, 1, 73, 0
2, 188128, Note_on_c, 1, 82, 0
2, 188736, Note_on_c, 1, 73, 92
2, 188736, Note_on_c, 1, 82, 92
2, 188782, Note_on_c, 1, 73, 0
2, 188782, Note_on_c, 1, 82, 0
2, 188784, Note_on_c, 1, 73, 92
2, 188784, Note_on_c, 1, 82, 92
2, 188830, Note_on_c, 1, 73, 0
2, 188830, Note_on_c, 1, 82, 0
2, 188832, Note_on_c, 1, 73, 92
2, 188832, Note_on_c, 1, 82, 92
2, 188878, Note_on_c, 1, 73, 0
2, 188878, Note_on_c, 1, 82, 0
2, 188880, Note_on_c, 1, 73, 92
2, 188880, Note_on_c, 1, 82, 92
2, 188926, Note_on_c, 1, 73, 0
2, 188926, Note_on_c, 1, 82, 0
2, 188928, Note_on_c, 1, 73, 92
2, 188928, Note_on_c, 1, 82, 92
2, 188974, Note_on_c, 1, 73, 0
2, 188974, Note_on_c, 1, 82, 0
2, 188976, Note_on_c, 1, 73, 92
2, 188976, Note_on_c, 1, 82, 92
2, 189022, Note_on_c, 1, 73, 0
2, 189022, Note_on_c, 1, 82, 0
2, 189024, Note_on_c, 1, 73, 92
2, 189024, Note_on_c, 1, 82, 92
2, 189070, Note_on_c, 1, 73, 0
2, 189070, Note_on_c, 1, 82, 0
2, 189072, Note_on_c, 1, 73, 92
2, 189072, Note_on_c, 1, 82, 92
2, 189118, Note_on_c, 1, 73, 0
2, 189118, Note_on_c, 1, 82, 0
2, 189120, Note_on_c, 1, 73, 92
2, 189120, Note_on_c, 1, 82, 92
2, 189280, Note_on_c, 1, 73, 0
2, 189280, Note_on_c, 1, 82, 0
2, 189888, Note_on_c, 1, 73, 92
2, 189888, Note_on_c, 1, 82, 92
2, 189934, Note_on_c, 1, 73, 0
2, 189934, Note_on_c, 1, 82, 0
2, 189936, Note_on_c, 1, 73, 91
2, 189936, Note_on_c, 1, 82, 91
2, 189982, Note_on_c, 1, 73, 0
2, 189982, Note_on_c, 1, 82, 0
2, 189984, Note_on_c, 1, 73, 90
2, 189984, Note_on_c, 1, 82, 90
2, 190030, Note_on_c, 1, 73, 0
2, 190030, Note_on_c, 1, 82, 0
2, 190032, Note_on_c, 1, 73, 89
2, 190032, Note_on_c, 1, 82, 89
2, 190078, Note_on_c, 1, 73, 0
2, 190078, Note_on_c, 1, 82, 0
2, 190080, Note_on_c, 1, 73, 88
2, 190080, Note_on_c, 1, 82, 88
2, 190126, Note_on_c, 1, 73, 0
2, 190126, Note_on_c, 1, 82, 0
2, 190128, Note_on_c, 1, 73, 87
2, 190128, Note_on_c, 1, 82, 87
2, 190174, Note_on_c, 1, 73, 0
2, 190174, Note_on_c, 1, 82, 0
2, 190176, Note_on_c, 1, 73, 86
2, 190176, Note_on_c, 1, 82, 86
2, 190222, Note_on_c, 1, 73, 0
2, 190222, Note_on_c, 1, 82, 0
2, 190224, Note_on_c, 1, 73, 85
2, 190224, Note_on_c, 1, 82, 85
2, 190270, Note_on_c, 1, 73, 0
2, 190270, Note_on_c, 1, 82, 0
2, 190272, Note_on_c, 1, 73, 84
2, 190272, Note_on_c, 1, 82, 84
2, 190432, Note_on_c, 1, 73, 0
2, 190432, Note_on_c, 1, 82, 0
2, 191040, Note_on_c, 1, 73, 63
2, 191040, Note_on_c, 1, 82, 63
2, 191086, Note_on_c, 1, 73, 0
2, 191086, Note_on_c, 1, 82, 0
2, 191088, Note_on_c, 1, 73, 62
2, 191088, Note_on_c, 1, 82, 62
2, 191134, Note_on_c, 1, 73, 0
2, 191134, Note_on_c, 1, 82, 0
2, 191136, Note_on_c, 1, 73, 61
2, 191136, Note_on_c, 1, 82, 61
2, 191182, Note_on_c, 1, 73, 0
2, 191182, Note_on_c, 1, 82, 0
2, 191184, Note_on_c, 1, 73, 60
2, 191184, Note_on_c, 1, 82, 60
2, 191230, Note_on_c, 1, 73, 0
2, 191230, Note_on_c, 1, 82, 0
2, 191232, Note_on_c, 1, 73, 59
2, 191232, Note_on_c, 1, 82, 59
2, 191278, Note_on_c, 1, 73, 0
2, 191278, Note_on_c, 1, 82, 0
2, 191280, Note_on_c, 1, 73, 58
2, 191280, Note_on_c, 1, 82, 58
2, 191326, Note_on_c, 1, 73, 0
2, 191326, Note_on_c, 1, 82, 0
2, 191328, Note_on_c, 1, 73, 57
2, 191328, Note_on_c, 1, 82, 57
2, 191374, Note_on_c, 1, 73, 0
2, 191374, Note_on_c, 1, 82, 0
2, 191376, Note_on_c, 1, 73, 55
2, 191376, Note_on_c, 1, 82, 55
2, 191422, Note_on_c, 1, 73, 0
2, 191422, Note_on_c, 1, 82, 0
2, 191424, Note_on_c, 1, 73, 53
2, 191424, Note_on_c, 1, 82, 53
2, 191584, Note_on_c, 1, 73, 0
2, 191584, Note_on_c, 1, 82, 0
2, 191616, Note_on_c, 1, 80, 45
2, 191776, Note_on_c, 1, 80, 0
2, 191808, Note_on_c, 1, 89, 45
2, 191904, Note_on_c, 1, 89, 0
2, 192192, Note_on_c, 1, 84, 45
2, 192288, Note_on_c, 1, 84, 0
2, 192768, Note_on_c, 1, 75, 45
2, 192928, Note_on_c, 1, 75, 0
2, 192960, Note_on_c, 1, 78, 51
2, 193056, Note_on_c, 1, 78, 0
2, 193344, Note_on_c, 1, 74, 64
2, 193440, Note_on_c, 1, 74, 0
2, 193920, Note_on_c, 1, 77, 85
2, 194080, Note_on_c, 1, 77, 0
2, 194112, Note_on_c, 1, 80, 92
2, 194208, Note_on_c, 1, 80, 0
2, 194496, Note_on_c, 1, 76, 92
2, 194592, Note_on_c, 1, 76, 0
2, 196032, Note_on_c, 1, 85, 92
2, 196078, Note_on_c, 1, 85, 0
2, 196080, Note_on_c, 1, 85, 87
2, 196126, Note_on_c, 1, 85, 0
2, 196128, Note_on_c, 1, 85, 81
2, 196174, Note_on_c, 1, 85, 0
2, 196176, Note_on_c, 1, 85, 75
2, 196222, Note_on_c, 1, 85, 0
2, 196224, Note_on_c, 1, 85, 69
2, 196272, Note_on_c, 1, 85, 0
2, 196272, Note_on_c, 1, 76, 63
2, 196320, Note_on_c, 1, 76, 0
2, 196320, Note_on_c, 1, 77, 57
2, 196366, Note_on_c, 1, 77, 0
2, 196368, Note_on_c, 1, 81, 51
2, 196400, Note_on_c, 1, 81, 0
2, 196416, Note_on_c, 1, 84, 45
2, 196752, Note_on_c, 1, 84, 0
2, 196800, Note_on_c, 1, 79, 45
2, 196848, Note_on_c, 1, 79, 0
2, 196992, Note_on_c, 1, 79, 45
2, 197040, Note_on_c, 1, 79, 0
2, 197184, Note_on_c, 1, 82, 45
2, 197520, Note_on_c, 1, 82, 0
2, 197568, Note_on_c, 1, 77, 45
2, 197616, Note_on_c, 1, 77, 0
2, 197760, Note_on_c, 1, 81, 45
2, 197808, Note_on_c, 1, 81, 0
2, 197952, Note_on_c, 1, 79, 45
2, 198144, Note_on_c, 1, 79, 0
2, 198144, Note_on_c, 1, 77, 45
2, 198304, Note_on_c, 1, 77, 0
2, 198336, Note_on_c, 1, 76, 45
2, 198384, Note_on_c, 1, 76, 0
2, 198528, Note_on_c, 1, 77, 45
2, 198576, Note_on_c, 1, 77, 0
2, 198720, Note_on_c, 1, 79, 45
2, 198912, Note_on_c, 1, 79, 0
2, 198912, Note_on_c, 1, 76, 45
2, 199072, Note_on_c, 1, 76, 0
2, 199104, Note_on_c, 1, 77, 45
2, 199152, Note_on_c, 1, 77, 0
2, 199296, Note_on_c, 1, 81, 92
2, 199344, Note_on_c, 1, 81, 0
2, 199488, Note_on_c, 1, 79, 92
2, 199680, Note_on_c, 1, 79, 0
2, 199680, Note_on_c, 1, 77, 92
2, 199840, Note_on_c, 1, 77, 0
2, 199872, Note_on_c, 1, 76, 92
2, 199920, Note_on_c, 1, 76, 0
2, 200064, Note_on_c, 1, 77, 92
2, 200112, Note_on_c, 1, 77, 0
2, 200256, Note_on_c, 1, 79, 92
2, 200448, Note_on_c, 1, 79, 0
2, 200448, Note_on_c, 1, 76, 92
2, 200608, Note_on_c, 1, 76, 0
2, 200640, Note_on_c, 1, 77, 92
2, 200688, Note_on_c, 1, 77, 0
2, 200832, Note_on_c, 1, 89, 92
2, 200880, Note_on_c, 1, 89, 0
2, 201024, Note_on_c, 1, 87, 92
2, 201216, Note_on_c, 1, 87, 0
2, 201216, Note_on_c, 1, 86, 92
2, 201376, Note_on_c, 1, 86, 0
2, 201408, Note_on_c, 1, 87, 92
2, 201456, Note_on_c, 1, 87, 0
2, 201600, Note_on_c, 1, 87, 92
2, 201648, Note_on_c, 1, 87, 0
2, 201792, Note_on_c, 1, 81, 92
2, 201984, Note_on_c, 1, 81, 0
2, 201984, Note_on_c, 1, 84, 92
2, 202144, Note_on_c, 1, 84, 0
2, 202176, Note_on_c, 1, 86, 92
2, 202224, Note_on_c, 1, 86, 0
2, 202368, Note_on_c, 1, 67, 92
2, 202528, Note_on_c, 1, 67, 0
2, 202560, Note_on_c, 1, 60, 92
2, 202752, Note_on_c, 1, 60, 0
2, 202752, Note_on_c, 1, 59, 92
2, 202912, Note_on_c, 1, 59, 0
2, 202944, Note_on_c, 1, 60, 92
2, 202992, Note_on_c, 1, 60, 0
2, 203136, Note_on_c, 1, 60, 92
2, 203184, Note_on_c, 1, 60, 0
2, 203328, Note_on_c, 1, 63, 92
2, 203520, Note_on_c, 1, 63, 0
2, 203520, Note_on_c, 1, 62, 92
2, 203680, Note_on_c, 1, 62, 0
2, 203712, Note_on_c, 1, 62, 92
2, 203760, Note_on_c, 1, 62, 0
2, 203904, Note_on_c, 1, 76, 92
2, 204064, Note_on_c, 1, 76, 0
2, 204096, Note_on_c, 1, 81, 127
2, 204432, Note_on_c, 1, 81, 0
2, 204480, Note_on_c, 1, 76, 92
2, 204640, Note_on_c, 1, 76, 0
2, 204672, Note_on_c, 1, 76, 92
2, 204832, Note_on_c, 1, 76, 0
2, 204864, Note_on_c, 1, 79, 127
2, 205200, Note_on_c, 1, 79, 0
2, 205248, Note_on_c, 1, 74, 92
2, 205408, Note_on_c, 1, 74, 0
2, 205440, Note_on_c, 1, 74, 92
2, 205600, Note_on_c, 1, 74, 0
2, 205632, Note_on_c, 1, 77, 127
2, 205968, Note_on_c, 1, 77, 0
2, 206016, Note_on_c, 1, 72, 92
2, 206176, Note_on_c, 1, 72, 0
2, 206208, Note_on_c, 1, 72, 92
2, 206368, Note_on_c, 1, 72, 0
2, 206400, Note_on_c, 1, 75, 127
2, 206736, Note_on_c, 1, 75, 0
2, 206784, Note_on_c, 1, 70, 92
2, 206944, Note_on_c, 1, 70, 0
2, 206976, Note_on_c, 1, 82, 92
2, 207136, Note_on_c, 1, 82, 0
2, 207168, Note_on_c, 1, 70, 92
2, 207328, Note_on_c, 1, 70, 0
2, 207744, Note_on_c, 1, 82, 92
2, 207904, Note_on_c, 1, 82, 0
2, 207936, Note_on_c, 1, 72, 92
2, 208096, Note_on_c, 1, 72, 0
2, 208512, Note_on_c, 1, 84, 92
2, 208672, Note_on_c, 1, 84, 0
2, 208704, Note_on_c, 1, 74, 92
2, 208864, Note_on_c, 1, 74, 0
2, 209280, Note_on_c, 1, 86, 92
2, 209440, Note_on_c, 1, 86, 0
2, 209472, Note_on_c, 1, 75, 92
2, 209632, Note_on_c, 1, 75, 0
2, 209664, Note_on_c, 1, 87, 92
2, 209824, Note_on_c, 1, 87, 0
2, 209856, Note_on_c, 1, 77, 92
2, 210016, Note_on_c, 1, 77, 0
2, 210048, Note_on_c, 1, 89, 92
2, 210208, Note_on_c, 1, 89, 0
2, 210240, Note_on_c, 1, 79, 92
2, 210400, Note_on_c, 1, 79, 0
2, 210816, Note_on_c, 1, 91, 92
2, 210976, Note_on_c, 1, 91, 0
2, 211008, Note_on_c, 1, 69, 92
2, 211168, Note_on_c, 1, 69, 0
2, 211584, Note_on_c, 1, 81, 92
2, 211744, Note_on_c, 1, 81, 0
2, 211776, Note_on_c, 1, 70, 92
2, 211936, Note_on_c, 1, 70, 0
2, 212352, Note_on_c, 1, 82, 92
2, 212512, Note_on_c, 1, 82, 0
2, 212544, Note_on_c, 1, 72, 92
2, 212704, Note_on_c, 1, 72, 0
2, 212736, Note_on_c, 1, 84, 92
2, 212896, Note_on_c, 1, 84, 0
2, 212928, Note_on_c, 1, 74, 92
2, 213088, Note_on_c, 1, 74, 0
2, 213120, Note_on_c, 1, 86, 92
2, 213280, Note_on_c, 1, 86, 0
2, 213312, Note_on_c, 1, 74, 92
2, 213360, Note_on_c, 1, 74, 0
2, 213504, Note_on_c, 1, 79, 92
2, 213552, Note_on_c, 1, 79, 0
2, 213696, Note_on_c, 1, 76, 92
2, 213744, Note_on_c, 1, 76, 0
2, 213888, Note_on_c, 1, 81, 92
2, 213936, Note_on_c, 1, 81, 0
2, 214080, Note_on_c, 1, 81, 92
2, 214128, Note_on_c, 1, 81, 0
2, 214272, Note_on_c, 1, 80, 92
2, 214320, Note_on_c, 1, 80, 0
2, 214464, Note_on_c, 1, 81, 92
2, 214512, Note_on_c, 1, 81, 0
2, 214656, Note_on_c, 1, 85, 92
2, 214704, Note_on_c, 1, 85, 0
2, 214848, Note_on_c, 1, 88, 92
2, 214896, Note_on_c, 1, 88, 0
2, 215232, Note_on_c, 1, 93, 92
2, 215280, Note_on_c, 1, 93, 0
2, 217344, Note_on_c, 1, 81, 45
2, 217536, Note_on_c, 1, 81, 0
2, 217536, Note_on_c, 1, 79, 45
2, 217728, Note_on_c, 1, 79, 0
2, 217728, Note_on_c, 1, 78, 45
2, 217920, Note_on_c, 1, 78, 0
2, 217920, Note_on_c, 1, 79, 45
2, 218112, Note_on_c, 1, 79, 0
2, 218112, Note_on_c, 1, 81, 45
2, 218304, Note_on_c, 1, 81, 0
2, 218304, Note_on_c, 1, 83, 45
2, 218848, Note_on_c, 1, 83, 0
2, 218880, Note_on_c, 1, 83, 45
2, 219072, Note_on_c, 1, 83, 0
2, 219072, Note_on_c, 1, 81, 45
2, 219264, Note_on_c, 1, 81, 0
2, 219264, Note_on_c, 1, 79, 45
2, 219456, Note_on_c, 1, 79, 0
2, 219456, Note_on_c, 1, 78, 45
2, 219648, Note_on_c, 1, 78, 0
2, 219648, Note_on_c, 1, 76, 45
2, 219840, Note_on_c, 1, 76, 0
2, 219840, Note_on_c, 1, 78, 45
2, 220032, Note_on_c, 1, 78, 0
2, 220032, Note_on_c, 1, 79, 45
2, 220192, Note_on_c, 1, 79, 0
2, 220224, Note_on_c, 1, 71, 45
2, 220416, Note_on_c, 1, 71, 0
2, 220416, Note_on_c, 1, 69, 45
2, 220608, Note_on_c, 1, 69, 0
2, 220608, Note_on_c, 1, 71, 45
2, 220800, Note_on_c, 1, 71, 0
2, 220800, Note_on_c, 1, 73, 45
2, 220992, Note_on_c, 1, 73, 0
2, 220992, Note_on_c, 1, 74, 45
2, 221184, Note_on_c, 1, 74, 0
2, 221184, Note_on_c, 1, 73, 45
2, 221376, Note_on_c, 1, 73, 0
2, 221376, Note_on_c, 1, 74, 45
2, 221568, Note_on_c, 1, 74, 0
2, 221568, Note_on_c, 1, 76, 45
2, 221728, Note_on_c, 1, 76, 0
2, 221760, Note_on_c, 1, 74, 45
2, 221920, Note_on_c, 1, 74, 0
2, 222720, Note_on_c, 1, 77, 45
2, 222912, Note_on_c, 1, 77, 0
2, 222912, Note_on_c, 1, 75, 45
2, 223104, Note_on_c, 1, 75, 0
2, 223104, Note_on_c, 1, 74, 45
2, 223296, Note_on_c, 1, 74, 0
2, 223296, Note_on_c, 1, 72, 45
2, 223488, Note_on_c, 1, 72, 0
2, 223488, Note_on_c, 1, 74, 45
2, 223680, Note_on_c, 1, 74, 0
2, 223680, Note_on_c, 1, 75, 45
2, 224016, Note_on_c, 1, 75, 0
2, 224256, Note_on_c, 1, 75, 45
2, 224448, Note_on_c, 1, 75, 0
2, 224448, Note_on_c, 1, 74, 45
2, 224640, Note_on_c, 1, 74, 0
2, 224640, Note_on_c, 1, 72, 45
2, 224832, Note_on_c, 1, 72, 0
2, 224832, Note_on_c, 1, 70, 45
2, 225024, Note_on_c, 1, 70, 0
2, 225024, Note_on_c, 1, 72, 45
2, 225216, Note_on_c, 1, 72, 0
2, 225216, Note_on_c, 1, 74, 45
2, 225552, Note_on_c, 1, 74, 0
2, 225792, Note_on_c, 1, 74, 45
2, 225984, Note_on_c, 1, 74, 0
2, 225984, Note_on_c, 1, 72, 45
2, 226176, Note_on_c, 1, 72, 0
2, 226176, Note_on_c, 1, 70, 45
2, 226368, Note_on_c, 1, 70, 0
2, 226368, Note_on_c, 1, 69, 45
2, 226560, Note_on_c, 1, 69, 0
2, 226560, Note_on_c, 1, 67, 47
2, 226752, Note_on_c, 1, 67, 0
2, 226752, Note_on_c, 1, 69, 49
2, 226944, Note_on_c, 1, 69, 0
2, 226944, Note_on_c, 1, 70, 51
2, 227104, Note_on_c, 1, 70, 0
2, 227136, Note_on_c, 1, 64, 53
2, 227328, Note_on_c, 1, 64, 0
2, 227328, Note_on_c, 1, 70, 55
2, 227520, Note_on_c, 1, 70, 0
2, 227520, Note_on_c, 1, 67, 57
2, 227712, Note_on_c, 1, 67, 0
2, 227712, Note_on_c, 1, 72, 60
2, 227872, Note_on_c, 1, 72, 0
2, 227904, Note_on_c, 1, 64, 63
2, 228096, Note_on_c, 1, 64, 0
2, 228096, Note_on_c, 1, 70, 66
2, 228288, Note_on_c, 1, 70, 0
2, 228288, Note_on_c, 1, 67, 69
2, 228480, Note_on_c, 1, 67, 0
2, 228480, Note_on_c, 1, 72, 72
2, 228640, Note_on_c, 1, 72, 0
2, 228672, Note_on_c, 1, 69, 45
2, 228864, Note_on_c, 1, 69, 0
2, 228864, Note_on_c, 1, 77, 45
2, 229056, Note_on_c, 1, 77, 0
2, 229056, Note_on_c, 1, 69, 45
2, 229248, Note_on_c, 1, 69, 0
2, 229248, Note_on_c, 1, 81, 45
2, 229408, Note_on_c, 1, 81, 0
2, 230208, Note_on_c, 1, 69, 45
2, 230400, Note_on_c, 1, 69, 0
2, 230400, Note_on_c, 1, 77, 45
2, 230592, Note_on_c, 1, 77, 0
2, 230592, Note_on_c, 1, 72, 45
2, 230784, Note_on_c, 1, 72, 0
2, 230784, Note_on_c, 1, 77, 45
2, 230944, Note_on_c, 1, 77, 0
2, 231744, Note_on_c, 1, 69, 45
2, 231936, Note_on_c, 1, 69, 0
2, 231936, Note_on_c, 1, 77, 45
2, 232128, Note_on_c, 1, 77, 0
2, 232128, Note_on_c, 1, 69, 45
2, 232320, Note_on_c, 1, 69, 0
2, 232320, Note_on_c, 1, 81, 45
2, 232480, Note_on_c, 1, 81, 0
2, 233280, Note_on_c, 1, 57, 45
2, 233472, Note_on_c, 1, 57, 0
2, 233472, Note_on_c, 1, 65, 45
2, 233664, Note_on_c, 1, 65, 0
2, 233664, Note_on_c, 1, 57, 45
2, 233856, Note_on_c, 1, 57, 0
2, 233856, Note_on_c, 1, 69, 45
2, 234016, Note_on_c, 1, 69, 0
2, 234048, Note_on_c, 1, 86, 45
2, 234208, Note_on_c, 1, 86, 0
2, 234432, Note_on_c, 1, 84, 45
2, 234592, Note_on_c, 1, 84, 0
2, 234816, Note_on_c, 1, 77, 45
2, 234976, Note_on_c, 1, 77, 0
2, 235200, Note_on_c, 1, 72, 51
2, 235360, Note_on_c, 1, 72, 0
2, 235584, Note_on_c, 1, 72, 59
2, 235744, Note_on_c, 1, 72, 0
2, 235968, Note_on_c, 1, 74, 67
2, 236128, Note_on_c, 1, 74, 0
2, 236352, Note_on_c, 1, 77, 45
2, 236736, Note_on_c, 1, 77, 0
2, 236736, Note_on_c, 1, 79, 45
2, 236928, Note_on_c, 1, 79, 0
2, 236928, Note_on_c, 1, 81, 45
2, 237088, Note_on_c, 1, 81, 0
2, 237120, Note_on_c, 1, 79, 45
2, 237840, Note_on_c, 1, 79, 0
2, 237888, Note_on_c, 1, 77, 45
2, 238048, Note_on_c, 1, 77, 0
2, 238272, Note_on_c, 1, 84, 51
2, 238432, Note_on_c, 1, 84, 0
2, 238656, Note_on_c, 1, 84, 59
2, 238816, Note_on_c, 1, 84, 0
2, 239040, Note_on_c, 1, 86, 67
2, 239200, Note_on_c, 1, 86, 0
2, 239424, Note_on_c, 1, 86, 45
2, 239584, Note_on_c, 1, 86, 0
2, 239808, Note_on_c, 1, 84, 45
2, 239968, Note_on_c, 1, 84, 0
2, 240192, Note_on_c, 1, 84, 45
2, 243792, Note_on_c, 1, 84, 0
2, 243840, Note_on_c, 1, 81, 92
2, 243888, Note_on_c, 1, 81, 0
2, 244032, Note_on_c, 1, 84, 92
2, 244128, Note_on_c, 1, 84, 0
2, 244416, Note_on_c, 1, 79, 94
2, 244512, Note_on_c, 1, 79, 0
2, 245376, Note_on_c, 1, 82, 99
2, 245536, Note_on_c, 1, 82, 0
2, 245568, Note_on_c, 1, 86, 100
2, 245664, Note_on_c, 1, 86, 0
2, 245952, Note_on_c, 1, 81, 102
2, 246048, Note_on_c, 1, 81, 0
2, 246912, Note_on_c, 1, 77, 108
2, 247072, Note_on_c, 1, 77, 0
2, 247104, Note_on_c, 1, 76, 108
2, 247264, Note_on_c, 1, 76, 0
2, 247296, Note_on_c, 1, 79, 108
2, 247456, Note_on_c, 1, 79, 0
2, 247488, Note_on_c, 1, 82, 108
2, 247648, Note_on_c, 1, 82, 0
2, 247680, Note_on_c, 1, 86, 108
2, 247840, Note_on_c, 1, 86, 0
2, 247872, Note_on_c, 1, 84, 108
2, 248032, Note_on_c, 1, 84, 0
2, 248064, Note_on_c, 1, 89, 108
2, 248224, Note_on_c, 1, 89, 0
2, 248256, Note_on_c, 1, 89, 108
2, 248416, Note_on_c, 1, 89, 0
2, 248448, Note_on_c, 1, 93, 108
2, 248608, Note_on_c, 1, 93, 0
2, 248640, Note_on_c, 1, 93, 108
2, 248976, Note_on_c, 1, 93, 0
2, 249024, Note_on_c, 1, 76, 108
2, 249360, Note_on_c, 1, 76, 0
2, 249408, Note_on_c, 1, 77, 108
2, 249568, Note_on_c, 1, 77, 0
2, 249984, Note_on_c, 1, 69, 92
2, 250144, Note_on_c, 1, 69, 0
2, 250176, Note_on_c, 1, 72, 127
2, 250512, Note_on_c, 1, 72, 0
2, 250560, Note_on_c, 1, 68, 92
2, 250720, Note_on_c, 1, 68, 0
2, 250752, Note_on_c, 1, 72, 92
2, 250912, Note_on_c, 1, 72, 0
2, 250944, Note_on_c, 1, 76, 127
2, 251280, Note_on_c, 1, 76, 0
2, 251328, Note_on_c, 1, 71, 92
2, 251488, Note_on_c, 1, 71, 0
2, 251520, Note_on_c, 1, 76, 92
2, 251680, Note_on_c, 1, 76, 0
2, 251712, Note_on_c, 1, 79, 127
2, 252048, Note_on_c, 1, 79, 0
2, 252096, Note_on_c, 1, 74, 92
2, 252256, Note_on_c, 1, 74, 0
2, 253056, Note_on_c, 1, 74, 92
2, 253216, Note_on_c, 1, 74, 0
2, 253248, Note_on_c, 1, 77, 127
2, 253584, Note_on_c, 1, 77, 0
2, 253632, Note_on_c, 1, 72, 92
2, 253968, Note_on_c, 1, 72, 0
2, 254976, Note_on_c, 1, 79, 45
2, 255168, Note_on_c, 1, 79, 0
2, 255168, Note_on_c, 1, 77, 45
2, 255360, Note_on_c, 1, 77, 0
2, 255360, Note_on_c, 1, 76, 45
2, 255552, Note_on_c, 1, 76, 0
2, 255552, Note_on_c, 1, 74, 45
2, 255744, Note_on_c, 1, 74, 0
2, 255744, Note_on_c, 1, 76, 45
2, 255936, Note_on_c, 1, 76, 0
2, 255936, Note_on_c, 1, 77, 45
2, 256272, Note_on_c, 1, 77, 0
2, 256512, Note_on_c, 1, 81, 45
2, 256704, Note_on_c, 1, 81, 0
2, 256704, Note_on_c, 1, 79, 45
2, 256896, Note_on_c, 1, 79, 0
2, 256896, Note_on_c, 1, 77, 45
2, 257088, Note_on_c, 1, 77, 0
2, 257088, Note_on_c, 1, 76, 45
2, 257280, Note_on_c, 1, 76, 0
2, 257280, Note_on_c, 1, 77, 45
2, 257472, Note_on_c, 1, 77, 0
2, 257472, Note_on_c, 1, 79, 45
2, 257632, Note_on_c, 1, 79, 0
2, 257664, Note_on_c, 1, 84, 45
2, 257712, Note_on_c, 1, 84, 0
2, 257856, Note_on_c, 1, 88, 45
2, 257952, Note_on_c, 1, 88, 0
2, 258240, Note_on_c, 1, 83, 45
2, 258336, Note_on_c, 1, 83, 0
2, 259200, Note_on_c, 1, 83, 45
2, 259248, Note_on_c, 1, 83, 0
2, 259392, Note_on_c, 1, 86, 45
2, 259488, Note_on_c, 1, 86, 0
2, 259776, Note_on_c, 1, 81, 45
2, 259872, Note_on_c, 1, 81, 0
2, 260736, Note_on_c, 1, 86, 45
2, 260896, Note_on_c, 1, 86, 0
2, 260928, Note_on_c, 1, 86, 45
2, 261088, Note_on_c, 1, 86, 0
2, 261312, Note_on_c, 1, 84, 45
2, 261472, Note_on_c, 1, 84, 0
2, 261888, Note_on_c, 1, 84, 45
2, 262080, Note_on_c, 1, 84, 0
2, 262080, Note_on_c, 1, 82, 45
2, 262272, Note_on_c, 1, 82, 0
2, 262272, Note_on_c, 1, 81, 45
2, 262464, Note_on_c, 1, 81, 0
2, 262464, Note_on_c, 1, 79, 45
2, 262624, Note_on_c, 1, 79, 0
2, 263040, Note_on_c, 1, 84, 45
2, 263088, Note_on_c, 1, 84, 0
2, 263232, Note_on_c, 1, 89, 45
2, 263328, Note_on_c, 1, 89, 0
2, 263616, Note_on_c, 1, 84, 45
2, 263664, Note_on_c, 1, 84, 0
2, 263808, Note_on_c, 1, 81, 45
2, 264000, Note_on_c, 1, 81, 0
2, 264000, Note_on_c, 1, 76, 45
2, 264192, Note_on_c, 1, 76, 0
2, 264192, Note_on_c, 1, 77, 45
2, 264384, Note_on_c, 1, 77, 0
2, 264384, Note_on_c, 1, 79, 45
2, 264544, Note_on_c, 1, 79, 0
2, 264576, Note_on_c, 1, 79, 45
2, 264768, Note_on_c, 1, 79, 0
2, 264768, Note_on_c, 1, 74, 45
2, 264960, Note_on_c, 1, 74, 0
2, 264960, Note_on_c, 1, 76, 45
2, 265152, Note_on_c, 1, 76, 0
2, 265152, Note_on_c, 1, 77, 45
2, 265312, Note_on_c, 1, 77, 0
2, 266496, Note_on_c, 1, 82, 45
2, 266688, Note_on_c, 1, 82, 0
2, 266688, Note_on_c, 1, 81, 45
2, 267232, Note_on_c, 1, 81, 0
2, 267264, Note_on_c, 1, 82, 30
2, 267456, Note_on_c, 1, 82, 0
2, 267456, Note_on_c, 1, 81, 30
2, 267648, Note_on_c, 1, 81, 0
2, 267648, Note_on_c, 1, 79, 30
2, 267840, Note_on_c, 1, 79, 0
2, 267840, Note_on_c, 1, 76, 30
2, 268032, Note_on_c, 1, 76, 0
2, 268032, Note_on_c, 1, 77, 30
2, 268224, Note_on_c, 1, 77, 0
2, 268224, Note_on_c, 1, 79, 30
2, 268416, Note_on_c, 1, 79, 0
2, 268416, Note_on_c, 1, 81, 30
2, 268608, Note_on_c, 1, 81, 0
2, 268608, Note_on_c, 1, 79, 30
2, 268800, Note_on_c, 1, 79, 0
2, 268800, Note_on_c, 1, 77, 30
2, 268992, Note_on_c, 1, 77, 0
2, 268992, Note_on_c, 1, 76, 30
2, 269184, Note_on_c, 1, 76, 0
2, 269184, Note_on_c, 1, 74, 30
2, 269376, Note_on_c, 1, 74, 0
2, 269376, Note_on_c, 1, 73, 30
2, 269568, Note_on_c, 1, 73, 0
2, 269568, Note_on_c, 1, 74, 30
2, 269760, Note_on_c, 1, 74, 0
2, 269760, Note_on_c, 1, 76, 30
2, 269952, Note_on_c, 1, 76, 0
2, 269952, Note_on_c, 1, 73, 30
2, 270112, Note_on_c, 1, 73, 0
2, 270144, Note_on_c, 1, 74, 45
2, 270192, Note_on_c, 1, 74, 0
2, 270528, Note_on_c, 1, 69, 45
2, 270688, Note_on_c, 1, 69, 0
2, 270912, Note_on_c, 1, 69, 45
2, 271072, Note_on_c, 1, 69, 0
2, 271296, Note_on_c, 1, 71, 45
2, 271456, Note_on_c, 1, 71, 0
2, 271680, Note_on_c, 1, 74, 45
2, 272064, Note_on_c, 1, 74, 0
2, 272064, Note_on_c, 1, 76, 45
2, 272256, Note_on_c, 1, 76, 0
2, 272256, Note_on_c, 1, 78, 45
2, 272416, Note_on_c, 1, 78, 0
2, 272448, Note_on_c, 1, 76, 45
2, 273168, Note_on_c, 1, 76, 0
2, 273216, Note_on_c, 1, 74, 45
2, 273376, Note_on_c, 1, 74, 0
2, 273600, Note_on_c, 1, 69, 45
2, 273760, Note_on_c, 1, 69, 0
2, 273984, Note_on_c, 1, 69, 45
2, 274144, Note_on_c, 1, 69, 0
2, 274368, Note_on_c, 1, 71, 45
2, 274528, Note_on_c, 1, 71, 0
2, 274752, Note_on_c, 1, 71, 45
2, 274912, Note_on_c, 1, 71, 0
2, 275136, Note_on_c, 1, 69, 45
2, 275296, Note_on_c, 1, 69, 0
2, 275520, Note_on_c, 1, 69, 45
2, 276240, Note_on_c, 1, 69, 0
2, 276288, Note_on_c, 1, 86, 45
2, 276448, Note_on_c, 1, 86, 0
2, 276672, Note_on_c, 1, 81, 49
2, 276832, Note_on_c, 1, 81, 0
2, 277056, Note_on_c, 1, 81, 53
2, 277216, Note_on_c, 1, 81, 0
2, 277440, Note_on_c, 1, 83, 57
2, 277600, Note_on_c, 1, 83, 0
2, 277824, Note_on_c, 1, 83, 63
2, 277984, Note_on_c, 1, 83, 0
2, 278208, Note_on_c, 1, 81, 69
2, 278368, Note_on_c, 1, 81, 0
2, 278592, Note_on_c, 1, 81, 45
2, 279312, Note_on_c, 1, 81, 0
2, 279360, Note_on_c, 1, 79, 45
2, 279520, Note_on_c, 1, 79, 0
2, 279744, Note_on_c, 1, 78, 59
2, 279904, Note_on_c, 1, 78, 0
2, 280128, Note_on_c, 1, 78, 45
2, 280848, Note_on_c, 1, 78, 0
2, 280896, Note_on_c, 1, 76, 45
2, 281056, Note_on_c, 1, 76, 0
2, 281280, Note_on_c, 1, 74, 59
2, 281440, Note_on_c, 1, 74, 0
2, 281664, Note_on_c, 1, 74, 45
2, 285664, Note_on_c, 1, 74, 0
2, 285696, Note_on_c, 1, 74, 30
2, 285888, Note_on_c, 1, 74, 0
2, 285888, Note_on_c, 1, 72, 30
2, 286080, Note_on_c, 1, 72, 0
2, 286080, Note_on_c, 1, 70, 30
2, 286272, Note_on_c, 1, 70, 0
2, 286272, Note_on_c, 1, 69, 30
2, 286464, Note_on_c, 1, 69, 0
2, 286464, Note_on_c, 1, 70, 30
2, 286656, Note_on_c, 1, 70, 0
2, 286656, Note_on_c, 1, 72, 30
2, 287200, Note_on_c, 1, 72, 0
2, 287232, Note_on_c, 1, 72, 30
2, 287424, Note_on_c, 1, 72, 0
2, 287424, Note_on_c, 1, 70, 30
2, 287616, Note_on_c, 1, 70, 0
2, 287616, Note_on_c, 1, 69, 30
2, 287808, Note_on_c, 1, 69, 0
2, 287808, Note_on_c, 1, 67, 30
2, 288000, Note_on_c, 1, 67, 0
2, 288000, Note_on_c, 1, 69, 30
2, 288192, Note_on_c, 1, 69, 0
2, 288192, Note_on_c, 1, 70, 30
2, 288736, Note_on_c, 1, 70, 0
2, 288768, Note_on_c, 1, 72, 30
2, 288960, Note_on_c, 1, 72, 0
2, 288960, Note_on_c, 1, 70, 30
2, 289152, Note_on_c, 1, 70, 0
2, 289152, Note_on_c, 1, 68, 30
2, 289344, Note_on_c, 1, 68, 0
2, 289344, Note_on_c, 1, 67, 30
2, 289536, Note_on_c, 1, 67, 0
2, 289536, Note_on_c, 1, 68, 30
2, 289728, Note_on_c, 1, 68, 0
2, 289728, Note_on_c, 1, 70, 30
2, 290272, Note_on_c, 1, 70, 0
2, 290496, Note_on_c, 1, 68, 30
2, 290656, Note_on_c, 1, 68, 0
2, 290880, Note_on_c, 1, 68, 30
2, 291040, Note_on_c, 1, 68, 0
2, 291264, Note_on_c, 1, 67, 30
2, 291424, Note_on_c, 1, 67, 0
2, 291648, Note_on_c, 1, 67, 30
2, 291808, Note_on_c, 1, 67, 0
2, 292032, Note_on_c, 1, 65, 30
2, 292192, Note_on_c, 1, 65, 0
2, 292416, Note_on_c, 1, 65, 30
2, 292576, Note_on_c, 1, 65, 0
2, 292800, Note_on_c, 1, 64, 30
2, 292992, Note_on_c, 1, 64, 0
2, 292992, Note_on_c, 1, 63, 30
2, 293152, Note_on_c, 1, 63, 0
2, 293184, Note_on_c, 1, 63, 30
2, 293344, Note_on_c, 1, 63, 0
2, 293568, Note_on_c, 1, 61, 30
2, 293728, Note_on_c, 1, 61, 0
2, 293952, Note_on_c, 1, 61, 30
2, 294112, Note_on_c, 1, 61, 0
2, 294336, Note_on_c, 1, 60, 30
2, 294496, Note_on_c, 1, 60, 0
2, 294720, Note_on_c, 1, 63, 30
2, 294880, Note_on_c, 1, 63, 0
2, 295104, Note_on_c, 1, 63, 30
2, 295168, Note_on_c, 1, 63, 0
2, 295168, Note_on_c, 1, 61, 30
2, 295232, Note_on_c, 1, 61, 0
2, 295232, Note_on_c, 1, 63, 30
2, 295296, Note_on_c, 1, 63, 0
2, 295296, Note_on_c, 1, 61, 30
2, 295360, Note_on_c, 1, 61, 0
2, 295360, Note_on_c, 1, 60, 30
2, 295424, Note_on_c, 1, 60, 0
2, 295424, Note_on_c, 1, 61, 30
2, 295486, Note_on_c, 1, 61, 0
2, 295488, Note_on_c, 1, 60, 30
2, 295680, Note_on_c, 1, 60, 0
2, 295680, Note_on_c, 1, 71, 30
2, 295872, Note_on_c, 1, 71, 0
2, 295872, Note_on_c, 1, 72, 30
2, 296064, Note_on_c, 1, 72, 0
2, 296064, Note_on_c, 1, 73, 30
2, 296224, Note_on_c, 1, 73, 0
2, 296256, Note_on_c, 1, 73, 30
2, 296448, Note_on_c, 1, 73, 0
2, 296448, Note_on_c, 1, 75, 30
2, 296640, Note_on_c, 1, 75, 0
2, 296640, Note_on_c, 1, 73, 30
2, 296832, Note_on_c, 1, 73, 0
2, 296832, Note_on_c, 1, 72, 30
2, 296992, Note_on_c, 1, 72, 0
2, 297024, Note_on_c, 1, 72, 30
2, 297216, Note_on_c, 1, 72, 0
2, 297216, Note_on_c, 1, 73, 30
2, 297408, Note_on_c, 1, 73, 0
2, 297408, Note_on_c, 1, 72, 30
2, 297600, Note_on_c, 1, 72, 0
2, 297600, Note_on_c, 1, 70, 30
2, 297760, Note_on_c, 1, 70, 0
2, 297792, Note_on_c, 1, 70, 30
2, 297984, Note_on_c, 1, 70, 0
2, 297984, Note_on_c, 1, 72, 30
2, 298176, Note_on_c, 1, 72, 0
2, 298176, Note_on_c, 1, 70, 30
2, 298368, Note_on_c, 1, 70, 0
2, 298368, Note_on_c, 1, 68, 30
2, 298528, Note_on_c, 1, 68, 0
2, 298560, Note_on_c, 1, 68, 30
2, 298752, Note_on_c, 1, 68, 0
2, 298752, Note_on_c, 1, 70, 30
2, 298944, Note_on_c, 1, 70, 0
2, 298944, Note_on_c, 1, 68, 30
2, 299136, Note_on_c, 1, 68, 0
2, 299136, Note_on_c, 1, 67, 30
2, 299296, Note_on_c, 1, 67, 0
2, 299328, Note_on_c, 1, 60, 30
2, 299488, Note_on_c, 1, 60, 0
2, 299712, Note_on_c, 1, 65, 30
2, 299872, Note_on_c, 1, 65, 0
2, 300096, Note_on_c, 1, 65, 30
2, 300256, Note_on_c, 1, 65, 0
2, 300480, Note_on_c, 1, 68, 30
2, 300640, Note_on_c, 1, 68, 0
2, 300864, Note_on_c, 1, 60, 30
2, 301024, Note_on_c, 1, 60, 0
2, 301248, Note_on_c, 1, 65, 30
2, 301408, Note_on_c, 1, 65, 0
2, 301632, Note_on_c, 1, 68, 30
2, 301792, Note_on_c, 1, 68, 0
2, 302016, Note_on_c, 1, 72, 30
2, 302176, Note_on_c, 1, 72, 0
2, 302400, Note_on_c, 1, 63, 30
2, 302560, Note_on_c, 1, 63, 0
2, 302784, Note_on_c, 1, 63, 30
2, 302848, Note_on_c, 1, 63, 0
2, 302848, Note_on_c, 1, 61, 30
2, 302912, Note_on_c, 1, 61, 0
2, 302912, Note_on_c, 1, 63, 30
2, 302976, Note_on_c, 1, 63, 0
2, 302976, Note_on_c, 1, 61, 30
2, 303040, Note_on_c, 1, 61, 0
2, 303040, Note_on_c, 1, 60, 30
2, 303104, Note_on_c, 1, 60, 0
2, 303104, Note_on_c, 1, 61, 30
2, 303166, Note_on_c, 1, 61, 0
2, 303168, Note_on_c, 1, 60, 30
2, 303888, Note_on_c, 1, 60, 0
2, 303936, Note_on_c, 1, 75, 30
2, 304096, Note_on_c, 1, 75, 0
2, 304320, Note_on_c, 1, 75, 30
2, 304384, Note_on_c, 1, 75, 0
2, 304384, Note_on_c, 1, 73, 37
2, 304448, Note_on_c, 1, 73, 0
2, 304448, Note_on_c, 1, 75, 44
2, 304512, Note_on_c, 1, 75, 0
2, 304512, Note_on_c, 1, 73, 51
2, 304576, Note_on_c, 1, 73, 0
2, 304576, Note_on_c, 1, 75, 59
2, 304640, Note_on_c, 1, 75, 0
2, 304640, Note_on_c, 1, 73, 67
2, 304704, Note_on_c, 1, 73, 0
2, 304704, Note_on_c, 1, 75, 75
2, 304768, Note_on_c, 1, 75, 0
2, 304768, Note_on_c, 1, 73, 73
2, 304832, Note_on_c, 1, 73, 0
2, 304832, Note_on_c, 1, 75, 71
2, 304896, Note_on_c, 1, 75, 0
2, 304896, Note_on_c, 1, 73, 69
2, 304960, Note_on_c, 1, 73, 0
2, 304960, Note_on_c, 1, 75, 67
2, 305024, Note_on_c, 1, 75, 0
2, 305024, Note_on_c, 1, 73, 65
2, 305088, Note_on_c, 1, 73, 0
2, 305088, Note_on_c, 1, 75, 63
2, 305152, Note_on_c, 1, 75, 0
2, 305152, Note_on_c, 1, 73, 60
2, 305216, Note_on_c, 1, 73, 0
2, 305216, Note_on_c, 1, 75, 57
2, 305280, Note_on_c, 1, 75, 0
2, 305280, Note_on_c, 1, 73, 54
2, 305344, Note_on_c, 1, 73, 0
2, 305344, Note_on_c, 1, 72, 51
2, 305408, Note_on_c, 1, 72, 0
2, 305408, Note_on_c, 1, 73, 48
2, 305470, Note_on_c, 1, 73, 0
2, 305472, Note_on_c, 1, 72, 45
2, 306960, Note_on_c, 1, 72, 0
2, 307008, Note_on_c, 1, 79, 65
2, 308496, Note_on_c, 1, 79, 0
2, 308544, Note_on_c, 1, 84, 86
2, 310032, Note_on_c, 1, 84, 0
2, 310080, Note_on_c, 1, 84, 108
2, 310126, Note_on_c, 1, 84, 0
2, 310128, Note_on_c, 1, 84, 108
2, 310174, Note_on_c, 1, 84, 0
2, 310176, Note_on_c, 1, 84, 108
2, 310222, Note_on_c, 1, 84, 0
2, 310224, Note_on_c, 1, 84, 108
2, 310270, Note_on_c, 1, 84, 0
2, 310272, Note_on_c, 1, 84, 108
2, 310318, Note_on_c, 1, 84, 0
2, 310320, Note_on_c, 1, 84, 108
2, 310366, Note_on_c, 1, 84, 0
2, 310368, Note_on_c, 1, 84, 108
2, 310414, Note_on_c, 1, 84, 0
2, 310416, Note_on_c, 1, 84, 108
2, 310462, Note_on_c, 1, 84, 0
2, 310464, Note_on_c, 1, 84, 108
2, 310510, Note_on_c, 1, 84, 0
2, 310512, Note_on_c, 1, 84, 108
2, 310558, Note_on_c, 1, 84, 0
2, 310560, Note_on_c, 1, 84, 108
2, 310606, Note_on_c, 1, 84, 0
2, 310608, Note_on_c, 1, 84, 108
2, 310654, Note_on_c, 1, 84, 0
2, 310656, Note_on_c, 1, 84, 108
2, 310702, Note_on_c, 1, 84, 0
2, 310704, Note_on_c, 1, 84, 108
2, 310750, Note_on_c, 1, 84, 0
2, 310752, Note_on_c, 1, 84, 108
2, 310798, Note_on_c, 1, 84, 0
2, 310800, Note_on_c, 1, 84, 108
2, 310846, Note_on_c, 1, 84, 0
2, 310848, Note_on_c, 1, 84, 108
2, 310894, Note_on_c, 1, 84, 0
2, 310896, Note_on_c, 1, 84, 108
2, 310942, Note_on_c, 1, 84, 0
2, 310944, Note_on_c, 1, 84, 108
2, 310990, Note_on_c, 1, 84, 0
2, 310992, Note_on_c, 1, 84, 108
2, 311038, Note_on_c, 1, 84, 0
2, 311040, Note_on_c, 1, 84, 108
2, 311086, Note_on_c, 1, 84, 0
2, 311088, Note_on_c, 1, 84, 108
2, 311134, Note_on_c, 1, 84, 0
2, 311136, Note_on_c, 1, 84, 108
2, 311182, Note_on_c, 1, 84, 0
2, 311184, Note_on_c, 1, 84, 108
2, 311230, Note_on_c, 1, 84, 0
2, 311232, Note_on_c, 1, 84, 108
2, 311278, Note_on_c, 1, 84, 0
2, 311280, Note_on_c, 1, 84, 106
2, 311326, Note_on_c, 1, 84, 0
2, 311328, Note_on_c, 1, 84, 104
2, 311374, Note_on_c, 1, 84, 0
2, 311376, Note_on_c, 1, 84, 102
2, 311422, Note_on_c, 1, 84, 0
2, 311424, Note_on_c, 1, 84, 100
2, 311470, Note_on_c, 1, 84, 0
2, 311472, Note_on_c, 1, 84, 98
2, 311518, Note_on_c, 1, 84, 0
2, 311520, Note_on_c, 1, 84, 96
2, 311566, Note_on_c, 1, 84, 0
2, 311568, Note_on_c, 1, 84, 94
2, 311614, Note_on_c, 1, 84, 0
2, 311616, Note_on_c, 1, 84, 92
2, 311662, Note_on_c, 1, 84, 0
2, 311664, Note_on_c, 1, 84, 90
2, 311710, Note_on_c, 1, 84, 0
2, 311712, Note_on_c, 1, 84, 87
2, 311758, Note_on_c, 1, 84, 0
2, 311760, Note_on_c, 1, 84, 84
2, 311806, Note_on_c, 1, 84, 0
2, 311808, Note_on_c, 1, 84, 81
2, 311854, Note_on_c, 1, 84, 0
2, 311856, Note_on_c, 1, 84, 78
2, 311902, Note_on_c, 1, 84, 0
2, 311904, Note_on_c, 1, 84, 75
2, 311950, Note_on_c, 1, 84, 0
2, 311952, Note_on_c, 1, 84, 72
2, 311998, Note_on_c, 1, 84, 0
2, 312000, Note_on_c, 1, 84, 69
2, 312046, Note_on_c, 1, 84, 0
2, 312048, Note_on_c, 1, 84, 66
2, 312094, Note_on_c, 1, 84, 0
2, 312096, Note_on_c, 1, 84, 63
2, 312142, Note_on_c, 1, 84, 0
2, 312144, Note_on_c, 1, 84, 60
2, 312190, Note_on_c, 1, 84, 0
2, 312192, Note_on_c, 1, 84, 57
2, 312238, Note_on_c, 1, 84, 0
2, 312240, Note_on_c, 1, 84, 54
2, 312286, Note_on_c, 1, 84, 0
2, 312288, Note_on_c, 1, 84, 51
2, 312334, Note_on_c, 1, 84, 0
2, 312336, Note_on_c, 1, 84, 48
2, 312382, Note_on_c, 1, 84, 0
2, 312384, Note_on_c, 1, 84, 108
2, 312430, Note_on_c, 1, 84, 0
2, 312432, Note_on_c, 1, 84, 108
2, 312478, Note_on_c, 1, 84, 0
2, 312480, Note_on_c, 1, 84, 108
2, 312526, Note_on_c, 1, 84, 0
2, 312528, Note_on_c, 1, 84, 108
2, 312574, Note_on_c, 1, 84, 0
2, 312576, Note_on_c, 1, 84, 108
2, 312622, Note_on_c, 1, 84, 0
2, 312624, Note_on_c, 1, 84, 108
2, 312670, Note_on_c, 1, 84, 0
2, 312672, Note_on_c, 1, 84, 108
2, 312718, Note_on_c, 1, 84, 0
2, 312720, Note_on_c, 1, 84, 108
2, 312766, Note_on_c, 1, 84, 0
2, 312768, Note_on_c, 1, 84, 108
2, 312814, Note_on_c, 1, 84, 0
2, 312816, Note_on_c, 1, 84, 108
2, 312862, Note_on_c, 1, 84, 0
2, 312864, Note_on_c, 1, 84, 108
2, 312910, Note_on_c, 1, 84, 0
2, 312912, Note_on_c, 1, 84, 108
2, 312958, Note_on_c, 1, 84, 0
2, 312960, Note_on_c, 1, 84, 108
2, 313006, Note_on_c, 1, 84, 0
2, 313008, Note_on_c, 1, 84, 108
2, 313054, Note_on_c, 1, 84, 0
2, 313056, Note_on_c, 1, 84, 108
2, 313102, Note_on_c, 1, 84, 0
2, 313104, Note_on_c, 1, 84, 108
2, 313150, Note_on_c, 1, 84, 0
2, 313152, Note_on_c, 1, 84, 108
2, 313198, Note_on_c, 1, 84, 0
2, 313200, Note_on_c, 1, 84, 108
2, 313246, Note_on_c, 1, 84, 0
2, 313248, Note_on_c, 1, 84, 108
2, 313294, Note_on_c, 1, 84, 0
2, 313296, Note_on_c, 1, 84, 108
2, 313342, Note_on_c, 1, 84, 0
2, 313344, Note_on_c, 1, 84, 108
2, 313390, Note_on_c, 1, 84, 0
2, 313392, Note_on_c, 1, 84, 108
2, 313438, Note_on_c, 1, 84, 0
2, 313440, Note_on_c, 1, 84, 108
2, 313486, Note_on_c, 1, 84, 0
2, 313488, Note_on_c, 1, 84, 108
2, 313534, Note_on_c, 1, 84, 0
2, 313536, Note_on_c, 1, 84, 108
2, 313582, Note_on_c, 1, 84, 0
2, 313584, Note_on_c, 1, 84, 106
2, 313630, Note_on_c, 1, 84, 0
2, 313632, Note_on_c, 1, 84, 104
2, 313678, Note_on_c, 1, 84, 0
2, 313680, Note_on_c, 1, 84, 102
2, 313726, Note_on_c, 1, 84, 0
2, 313728, Note_on_c, 1, 84, 100
2, 313774, Note_on_c, 1, 84, 0
2, 313776, Note_on_c, 1, 84, 98
2, 313822, Note_on_c, 1, 84, 0
2, 313824, Note_on_c, 1, 84, 96
2, 313870, Note_on_c, 1, 84, 0
2, 313872, Note_on_c, 1, 84, 94
2, 313918, Note_on_c, 1, 84, 0
2, 313920, Note_on_c, 1, 84, 92
2, 313966, Note_on_c, 1, 84, 0
2, 313968, Note_on_c, 1, 84, 90
2, 314014, Note_on_c, 1, 84, 0
2, 314016, Note_on_c, 1, 84, 87
2, 314062, Note_on_c, 1, 84, 0
2, 314064, Note_on_c, 1, 84, 84
2, 314110, Note_on_c, 1, 84, 0
2, 314112, Note_on_c, 1, 84, 81
2, 314158, Note_on_c, 1, 84, 0
2, 314160, Note_on_c, 1, 84, 78
2, 314206, Note_on_c, 1, 84, 0
2, 314208, Note_on_c, 1, 84, 75
2, 314254, Note_on_c, 1, 84, 0
2, 314256, Note_on_c, 1, 84, 72
2, 314302, Note_on_c, 1, 84, 0
2, 314304, Note_on_c, 1, 82, 69
2, 314350, Note_on_c, 1, 82, 0
2, 314352, Note_on_c, 1, 82, 66
2, 314398, Note_on_c, 1, 82, 0
2, 314400, Note_on_c, 1, 82, 63
2, 314446, Note_on_c, 1, 82, 0
2, 314448, Note_on_c, 1, 82, 60
2, 314494, Note_on_c, 1, 82, 0
2, 314496, Note_on_c, 1, 82, 57
2, 314542, Note_on_c, 1, 82, 0
2, 314544, Note_on_c, 1, 82, 54
2, 314590, Note_on_c, 1, 82, 0
2, 314592, Note_on_c, 1, 82, 51
2, 314638, Note_on_c, 1, 82, 0
2, 314640, Note_on_c, 1, 82, 48
2, 314686, Note_on_c, 1, 82, 0
2, 314688, Note_on_c, 1, 82, 92
2, 314734, Note_on_c, 1, 82, 0
2, 314736, Note_on_c, 1, 82, 92
2, 314782, Note_on_c, 1, 82, 0
2, 314784, Note_on_c, 1, 82, 92
2, 314830, Note_on_c, 1, 82, 0
2, 314832, Note_on_c, 1, 82, 92
2, 314878, Note_on_c, 1, 82, 0
2, 314880, Note_on_c, 1, 82, 92
2, 314926, Note_on_c, 1, 82, 0
2, 314928, Note_on_c, 1, 82, 92
2, 314974, Note_on_c, 1, 82, 0
2, 314976, Note_on_c, 1, 82, 92
2, 315022, Note_on_c, 1, 82, 0
2, 315024, Note_on_c, 1, 82, 92
2, 315070, Note_on_c, 1, 82, 0
2, 315072, Note_on_c, 1, 82, 92
2, 315118, Note_on_c, 1, 82, 0
2, 315120, Note_on_c, 1, 82, 92
2, 315166, Note_on_c, 1, 82, 0
2, 315168, Note_on_c, 1, 82, 92
2, 315214, Note_on_c, 1, 82, 0
2, 315216, Note_on_c, 1, 82, 92
2, 315262, Note_on_c, 1, 82, 0
2, 315264, Note_on_c, 1, 82, 92
2, 315310, Note_on_c, 1, 82, 0
2, 315312, Note_on_c, 1, 82, 92
2, 315358, Note_on_c, 1, 82, 0
2, 315360, Note_on_c, 1, 82, 92
2, 315406, Note_on_c, 1, 82, 0
2, 315408, Note_on_c, 1, 82, 92
2, 315454, Note_on_c, 1, 82, 0
2, 315456, Note_on_c, 1, 82, 92
2, 315502, Note_on_c, 1, 82, 0
2, 315504, Note_on_c, 1, 82, 87
2, 315550, Note_on_c, 1, 82, 0
2, 315552, Note_on_c, 1, 82, 81
2, 315598, Note_on_c, 1, 82, 0
2, 315600, Note_on_c, 1, 82, 75
2, 315646, Note_on_c, 1, 82, 0
2, 315648, Note_on_c, 1, 82, 69
2, 315694, Note_on_c, 1, 82, 0
2, 315696, Note_on_c, 1, 82, 63
2, 315742, Note_on_c, 1, 82, 0
2, 315744, Note_on_c, 1, 82, 57
2, 315790, Note_on_c, 1, 82, 0
2, 315792, Note_on_c, 1, 82, 51
2, 315838, Note_on_c, 1, 82, 0
2, 315840, Note_on_c, 1, 73, 92
2, 315840, Note_on_c, 1, 82, 92
2, 315886, Note_on_c, 1, 73, 0
2, 315886, Note_on_c, 1, 82, 0
2, 315888, Note_on_c, 1, 73, 92
2, 315888, Note_on_c, 1, 82, 92
2, 315934, Note_on_c, 1, 73, 0
2, 315934, Note_on_c, 1, 82, 0
2, 315936, Note_on_c, 1, 73, 92
2, 315936, Note_on_c, 1, 82, 92
2, 315982, Note_on_c, 1, 73, 0
2, 315982, Note_on_c, 1, 82, 0
2, 315984, Note_on_c, 1, 73, 92
2, 315984, Note_on_c, 1, 82, 92
2, 316030, Note_on_c, 1, 73, 0
2, 316030, Note_on_c, 1, 82, 0
2, 316032, Note_on_c, 1, 73, 92
2, 316032, Note_on_c, 1, 82, 92
2, 316078, Note_on_c, 1, 73, 0
2, 316078, Note_on_c, 1, 82, 0
2, 316080, Note_on_c, 1, 73, 92
2, 316080, Note_on_c, 1, 82, 92
2, 316126, Note_on_c, 1, 73, 0
2, 316126, Note_on_c, 1, 82, 0
2, 316128, Note_on_c, 1, 73, 92
2, 316128, Note_on_c, 1, 82, 92
2, 316174, Note_on_c, 1, 73, 0
2, 316174, Note_on_c, 1, 82, 0
2, 316176, Note_on_c, 1, 73, 92
2, 316176, Note_on_c, 1, 82, 92
2, 316222, Note_on_c, 1, 73, 0
2, 316222, Note_on_c, 1, 82, 0
2, 316224, Note_on_c, 1, 73, 92
2, 316224, Note_on_c, 1, 82, 92
2, 316270, Note_on_c, 1, 73, 0
2, 316270, Note_on_c, 1, 82, 0
2, 316272, Note_on_c, 1, 73, 92
2, 316272, Note_on_c, 1, 82, 92
2, 316318, Note_on_c, 1, 73, 0
2, 316318, Note_on_c, 1, 82, 0
2, 316320, Note_on_c, 1, 73, 92
2, 316320, Note_on_c, 1, 82, 92
2, 316366, Note_on_c, 1, 73, 0
2, 316366, Note_on_c, 1, 82, 0
2, 316368, Note_on_c, 1, 73, 92
2, 316368, Note_on_c, 1, 82, 92
2, 316414, Note_on_c, 1, 73, 0
2, 316414, Note_on_c, 1, 82, 0
2, 316416, Note_on_c, 1, 73, 92
2, 316416, Note_on_c, 1, 82, 92
2, 316462, Note_on_c, 1, 73, 0
2, 316462, Note_on_c, 1, 82, 0
2, 316464, Note_on_c, 1, 73, 92
2, 316464, Note_on_c, 1, 82, 92
2, 316510, Note_on_c, 1, 73, 0
2, 316510, Note_on_c, 1, 82, 0
2, 316512, Note_on_c, 1, 73, 92
2, 316512, Note_on_c, 1, 82, 92
2, 316558, Note_on_c, 1, 73, 0
2, 316558, Note_on_c, 1, 82, 0
2, 316560, Note_on_c, 1, 73, 92
2, 316560, Note_on_c, 1, 82, 92
2, 316606, Note_on_c, 1, 73, 0
2, 316606, Note_on_c, 1, 82, 0
2, 316608, Note_on_c, 1, 73, 92
2, 316608, Note_on_c, 1, 82, 92
2, 316768, Note_on_c, 1, 73, 0
2, 316768, Note_on_c, 1, 82, 0
2, 317376, Note_on_c, 1, 73, 92
2, 317376, Note_on_c, 1, 82, 92
2, 317422, Note_on_c, 1, 73, 0
2, 317422, Note_on_c, 1, 82, 0
2, 317424, Note_on_c, 1, 73, 92
2, 317424, Note_on_c, 1, 82, 92
2, 317470, Note_on_c, 1, 73, 0
2, 317470, Note_on_c, 1, 82, 0
2, 317472, Note_on_c, 1, 73, 92
2, 317472, Note_on_c, 1, 82, 92
2, 317518, Note_on_c, 1, 73, 0
2, 317518, Note_on_c, 1, 82, 0
2, 317520, Note_on_c, 1, 73, 92
2, 317520, Note_on_c, 1, 82, 92
2, 317566, Note_on_c, 1, 73, 0
2, 317566, Note_on_c, 1, 82, 0
2, 317568, Note_on_c, 1, 73, 92
2, 317568, Note_on_c, 1, 82, 92
2, 317614, Note_on_c, 1, 73, 0
2, 317614, Note_on_c, 1, 82, 0
2, 317616, Note_on_c, 1, 73, 92
2, 317616, Note_on_c, 1, 82, 92
2, 317662, Note_on_c, 1, 73, 0
2, 317662, Note_on_c, 1, 82, 0
2, 317664, Note_on_c, 1, 73, 92
2, 317664, Note_on_c, 1, 82, 92
2, 317710, Note_on_c, 1, 73, 0
2, 317710, Note_on_c, 1, 82, 0
2, 317712, Note_on_c, 1, 73, 92
2, 317712, Note_on_c, 1, 82, 92
2, 317758, Note_on_c, 1, 73, 0
2, 317758, Note_on_c, 1, 82, 0
2, 317760, Note_on_c, 1, 73, 92
2, 317760, Note_on_c, 1, 82, 92
2, 317920, Note_on_c, 1, 73, 0
2, 317920, Note_on_c, 1, 82, 0
2, 318528, Note_on_c, 1, 73, 92
2, 318528, Note_on_c, 1, 82, 92
2, 318574, Note_on_c, 1, 73, 0
2, 318574, Note_on_c, 1, 82, 0
2, 318576, Note_on_c, 1, 73, 91
2, 318576, Note_on_c, 1, 82, 91
2, 318622, Note_on_c, 1, 73, 0
2, 318622, Note_on_c, 1, 82, 0
2, 318624, Note_on_c, 1, 73, 90
2, 318624, Note_on_c, 1, 82, 90
2, 318670, Note_on_c, 1, 73, 0
2, 318670, Note_on_c, 1, 82, 0
2, 318672, Note_on_c, 1, 73, 89
2, 318672, Note_on_c, 1, 82, 89
2, 318718, Note_on_c, 1, 73, 0
2, 318718, Note_on_c, 1, 82, 0
2, 318720, Note_on_c, 1, 73, 88
2, 318720, Note_on_c, 1, 82, 88
2, 318766, Note_on_c, 1, 73, 0
2, 318766, Note_on_c, 1, 82, 0
2, 318768, Note_on_c, 1, 73, 87
2, 318768, Note_on_c, 1, 82, 87
2, 318814, Note_on_c, 1, 73, 0
2, 318814, Note_on_c, 1, 82, 0
2, 318816, Note_on_c, 1, 73, 86
2, 318816, Note_on_c, 1, 82, 86
2, 318862, Note_on_c, 1, 73, 0
2, 318862, Note_on_c, 1, 82, 0
2, 318864, Note_on_c, 1, 73, 85
2, 318864, Note_on_c, 1, 82, 85
2, 318910, Note_on_c, 1, 73, 0
2, 318910, Note_on_c, 1, 82, 0
2, 318912, Note_on_c, 1, 73, 84
2, 318912, Note_on_c, 1, 82, 84
2, 319072, Note_on_c, 1, 73, 0
2, 319072, Note_on_c, 1, 82, 0
2, 319680, Note_on_c, 1, 73, 63
2, 319680, Note_on_c, 1, 82, 63
2, 319726, Note_on_c, 1, 73, 0
2, 319726, Note_on_c, 1, 82, 0
2, 319728, Note_on_c, 1, 73, 62
2, 319728, Note_on_c, 1, 82, 62
2, 319774, Note_on_c, 1, 73, 0
2, 319774, Note_on_c, 1, 82, 0
2, 319776, Note_on_c, 1, 73, 61
2, 319776, Note_on_c, 1, 82, 61
2, 319822, Note_on_c, 1, 73, 0
2, 319822, Note_on_c, 1, 82, 0
2, 319824, Note_on_c, 1, 73, 60
2, 319824, Note_on_c, 1, 82, 60
2, 319870, Note_on_c, 1, 73, 0
2, 319870, Note_on_c, 1, 82, 0
2, 319872, Note_on_c, 1, 73, 59
2, 319872, Note_on_c, 1, 82, 59
2, 319918, Note_on_c, 1, 73, 0
2, 319918, Note_on_c, 1, 82, 0
2, 319920, Note_on_c, 1, 73, 58
2, 319920, Note_on_c, 1, 82, 58
2, 319966, Note_on_c, 1, 73, 0
2, 319966, Note_on_c, 1, 82, 0
2, 319968, Note_on_c, 1, 73, 57
2, 319968, Note_on_c, 1, 82, 57
2, 320014, Note_on_c, 1, 73, 0
2, 320014, Note_on_c, 1, 82, 0
2, 320016, Note_on_c, 1, 73, 55
2, 320016, Note_on_c, 1, 82, 55
2, 320062, Note_on_c, 1, 73, 0
2, 320062, Note_on_c, 1, 82, 0
2, 320064, Note_on_c, 1, 73, 53
2, 320064, Note_on_c, 1, 82, 53
2, 320224, Note_on_c, 1, 73, 0
2, 320224, Note_on_c, 1, 82, 0
2, 320256, Note_on_c, 1, 80, 45
2, 320416, Note_on_c, 1, 80, 0
2, 320448, Note_on_c, 1, 89, 45
2, 320544, Note_on_c, 1, 89, 0
2, 320832, Note_on_c, 1, 84, 45
2, 320928, Note_on_c, 1, 84, 0
2, 321408, Note_on_c, 1, 75, 45
2, 321568, Note_on_c, 1, 75, 0
2, 321600, Note_on_c, 1, 78, 51
2, 321696, Note_on_c, 1, 78, 0
2, 321984, Note_on_c, 1, 74, 64
2, 322080, Note_on_c, 1, 74, 0
2, 322560, Note_on_c, 1, 77, 85
2, 322720, Note_on_c, 1, 77, 0
2, 322752, Note_on_c, 1, 80, 92
2, 322848, Note_on_c, 1, 80, 0
2, 323136, Note_on_c, 1, 76, 92
2, 323232, Note_on_c, 1, 76, 0
2, 324672, Note_on_c, 1, 85, 92
2, 324718, Note_on_c, 1, 85, 0
2, 324720, Note_on_c, 1, 85, 87
2, 324766, Note_on_c, 1, 85, 0
2, 324768, Note_on_c, 1, 85, 81
2, 324814, Note_on_c, 1, 85, 0
2, 324816, Note_on_c, 1, 85, 75
2, 324862, Note_on_c, 1, 85, 0
2, 324864, Note_on_c, 1, 85, 69
2, 324912, Note_on_c, 1, 85, 0
2, 324912, Note_on_c, 1, 76, 63
2, 324960, Note_on_c, 1, 76, 0
2, 324960, Note_on_c, 1, 77, 57
2, 325006, Note_on_c, 1, 77, 0
2, 325008, Note_on_c, 1, 81, 51
2, 325040, Note_on_c, 1, 81, 0
2, 325056, Note_on_c, 1, 84, 45
2, 325392, Note_on_c, 1, 84, 0
2, 325440, Note_on_c, 1, 79, 45
2, 325488, Note_on_c, 1, 79, 0
2, 325632, Note_on_c, 1, 79, 45
2, 325680, Note_on_c, 1, 79, 0
2, 325824, Note_on_c, 1, 82, 45
2, 326160, Note_on_c, 1, 82, 0
2, 326208, Note_on_c, 1, 77, 45
2, 326256, Note_on_c, 1, 77, 0
2, 326400, Note_on_c, 1, 81, 45
2, 326448, Note_on_c, 1, 81, 0
2, 326592, Note_on_c, 1, 79, 45
2, 326784, Note_on_c, 1, 79, 0
2, 326784, Note_on_c, 1, 77, 45
2, 326944, Note_on_c, 1, 77, 0
2, 326976, Note_on_c, 1, 76, 45
2, 327024, Note_on_c, 1, 76, 0
2, 327168, Note_on_c, 1, 77, 45
2, 327216, Note_on_c, 1, 77, 0
2, 327360, Note_on_c, 1, 79, 45
2, 327552, Note_on_c, 1, 79, 0
2, 327552, Note_on_c, 1, 76, 45
2, 327712, Note_on_c, 1, 76, 0
2, 327744, Note_on_c, 1, 77, 45
2, 327792, Note_on_c, 1, 77, 0
2, 327936, Note_on_c, 1, 81, 92
2, 327984, Note_on_c, 1, 81, 0
2, 328128, Note_on_c, 1, 79, 92
2, 328320, Note_on_c, 1, 79, 0
2, 328320, Note_on_c, 1, 77, 92
2, 328480, Note_on_c, 1, 77, 0
2, 328512, Note_on_c, 1, 76, 92
2, 328560, Note_on_c, 1, 76, 0
2, 328704, Note_on_c, 1, 77, 92
2, 328752, Note_on_c, 1, 77, 0
2, 328896, Note_on_c, 1, 79, 92
2, 329088, Note_on_c, 1, 79, 0
2, 329088, Note_on_c, 1, 76, 92
2, 329248, Note_on_c, 1, 76, 0
2, 329280, Note_on_c, 1, 77, 92
2, 329328, Note_on_c, 1, 77, 0
2, 329472, Note_on_c, 1, 89, 92
2, 329520, Note_on_c, 1, 89, 0
2, 329664, Note_on_c, 1, 87, 92
2, 329856, Note_on_c, 1, 87, 0
2, 329856, Note_on_c, 1, 86, 92
2, 330016, Note_on_c, 1, 86, 0
2, 330048, Note_on_c, 1, 87, 92
2, 330096, Note_on_c, 1, 87, 0
2, 330240, Note_on_c, 1, 87, 92
2, 330288, Note_on_c, 1, 87, 0
2, 330432, Note_on_c, 1, 81, 92
2, 330624, Note_on_c, 1, 81, 0
2, 330624, Note_on_c, 1, 84, 92
2, 330784, Note_on_c, 1, 84, 0
2, 330816, Note_on_c, 1, 86, 92
2, 330864, Note_on_c, 1, 86, 0
2, 331008, Note_on_c, 1, 67, 92
2, 331168, Note_on_c, 1, 67, 0
2, 331200, Note_on_c, 1, 60, 92
2, 331392, Note_on_c, 1, 60, 0
2, 331392, Note_on_c, 1, 59, 92
2, 331552, Note_on_c, 1, 59, 0
2, 331584, Note_on_c, 1, 60, 92
2, 331632, Note_on_c, 1, 60, 0
2, 331776, Note_on_c, 1, 60, 92
2, 331824, Note_on_c, 1, 60, 0
2, 331968, Note_on_c, 1, 63, 92
2, 332160, Note_on_c, 1, 63, 0
2, 332160, Note_on_c, 1, 62, 92
2, 332320, Note_on_c, 1, 62, 0
2, 332352, Note_on_c, 1, 62, 92
2, 332400, Note_on_c, 1, 62, 0
2, 332544, Note_on_c, 1, 76, 92
2, 332704, Note_on_c, 1, 76, 0
2, 332736, Note_on_c, 1, 81, 127
2, 333072, Note_on_c, 1, 81, 0
2, 333120, Note_on_c, 1, 76, 92
2, 333280, Note_on_c, 1, 76, 0
2, 333312, Note_on_c, 1, 76, 92
2, 333472, Note_on_c, 1, 76, 0
2, 333504, Note_on_c, 1, 79, 127
2, 333840, Note_on_c, 1, 79, 0
2, 333888, Note_on_c, 1, 74, 92
2, 334048, Note_on_c, 1, 74, 0
2, 334080, Note_on_c, 1, 74, 92
2, 334240, Note_on_c, 1, 74, 0
2, 334272, Note_on_c, 1, 77, 127
2, 334608, Note_on_c, 1, 77, 0
2, 334656, Note_on_c, 1, 72, 92
2, 334816, Note_on_c, 1, 72, 0
2, 334848, Note_on_c, 1, 72, 92
2, 335008, Note_on_c, 1, 72, 0
2, 335040, Note_on_c, 1, 75, 127
2, 335376, Note_on_c, 1, 75, 0
2, 335424, Note_on_c, 1, 70, 92
2, 335584, Note_on_c, 1, 70, 0
2, 335616, Note_on_c, 1, 82, 92
2, 335776, Note_on_c, 1, 82, 0
2, 335808, Note_on_c, 1, 70, 92
2, 335968, Note_on_c, 1, 70, 0
2, 336384, Note_on_c, 1, 82, 92
2, 336544, Note_on_c, 1, 82, 0
2, 336576, Note_on_c, 1, 72, 92
2, 336736, Note_on_c, 1, 72, 0
2, 337152, Note_on_c, 1, 84, 92
2, 337312, Note_on_c, 1, 84, 0
2, 337344, Note_on_c, 1, 74, 92
2, 337504, Note_on_c, 1, 74, 0
2, 337920, Note_on_c, 1, 86, 92
2, 338080, Note_on_c, 1, 86, 0
2, 338112, Note_on_c, 1, 75, 92
2, 338272, Note_on_c, 1, 75, 0
2, 338304, Note_on_c, 1, 87, 92
2, 338464, Note_on_c, 1, 87, 0
2, 338496, Note_on_c, 1, 77, 92
2, 338656, Note_on_c, 1, 77, 0
2, 338688, Note_on_c, 1, 89, 92
2, 338848, Note_on_c, 1, 89, 0
2, 338880, Note_on_c, 1, 79, 92
2, 339040, Note_on_c, 1, 79, 0
2, 339456, Note_on_c, 1, 91, 92
2, 339616, Note_on_c, 1, 91, 0
2, 339648, Note_on_c, 1, 69, 92
2, 339808, Note_on_c, 1, 69, 0
2, 340224, Note_on_c, 1, 81, 92
2, 340384, Note_on_c, 1, 81, 0
2, 340416, Note_on_c, 1, 70, 92
2, 340576, Note_on_c, 1, 70, 0
2, 340992, Note_on_c, 1, 82, 92
2, 341152, Note_on_c, 1, 82, 0
2, 341184, Note_on_c, 1, 72, 92
2, 341344, Note_on_c, 1, 72, 0
2, 341376, Note_on_c, 1, 84, 92
2, 341536, Note_on_c, 1, 84, 0
2, 341568, Note_on_c, 1, 74, 92
2, 341728, Note_on_c, 1, 74, 0
2, 341760, Note_on_c, 1, 86, 92
2, 341920, Note_on_c, 1, 86, 0
2, 341952, Note_on_c, 1, 74, 92
2, 342000, Note_on_c, 1, 74, 0
2, 342144, Note_on_c, 1, 79, 92
2, 342192, Note_on_c, 1, 79, 0
2, 342336, Note_on_c, 1, 76, 92
2, 342384, Note_on_c, 1, 76, 0
2, 342528, Note_on_c, 1, 81, 92
2, 342576, Note_on_c, 1, 81, 0
2, 342720, Note_on_c, 1, 81, 92
2, 342768, Note_on_c, 1, 81, 0
2, 342912, Note_on_c, 1, 80, 92
2, 342960, Note_on_c, 1, 80, 0
2, 343104, Note_on_c, 1, 81, 92
2, 343152, Note_on_c, 1, 81, 0
2, 343296, Note_on_c, 1, 85, 92
2, 343344, Note_on_c, 1, 85, 0
2, 343488, Note_on_c, 1, 88, 92
2, 343536, Note_on_c, 1, 88, 0
2, 343872, Note_on_c, 1, 93, 92
2, 343920, Note_on_c, 1, 93, 0
2, 345984, Note_on_c, 1, 81, 45
2, 346176, Note_on_c, 1, 81, 0
2, 346176, Note_on_c, 1, 79, 45
2, 346368, Note_on_c, 1, 79, 0
2, 346368, Note_on_c, 1, 78, 45
2, 346560, Note_on_c, 1, 78, 0
2, 346560, Note_on_c, 1, 79, 45
2, 346752, Note_on_c, 1, 79, 0
2, 346752, Note_on_c, 1, 81, 45
2, 346944, Note_on_c, 1, 81, 0
2, 346944, Note_on_c, 1, 83, 45
2, 347488, Note_on_c, 1, 83, 0
2, 347520, Note_on_c, 1, 83, 45
2, 347712, Note_on_c, 1, 83, 0
2, 347712, Note_on_c, 1, 81, 45
2, 347904, Note_on_c, 1, 81, 0
2, 347904, Note_on_c, 1, 79, 45
2, 348096, Note_on_c, 1, 79, 0
2, 348096, Note_on_c, 1, 78, 45
2, 348288, Note_on_c, 1, 78, 0
2, 348288, Note_on_c, 1, 76, 45
2, 348480, Note_on_c, 1, 76, 0
2, 348480, Note_on_c, 1, 78, 45
2, 348672, Note_on_c, 1, 78, 0
2, 348672, Note_on_c, 1, 79, 45
2, 348832, Note_on_c, 1, 79, 0
2, 348864, Note_on_c, 1, 71, 45
2, 349056, Note_on_c, 1, 71, 0
2, 349056, Note_on_c, 1, 69, 45
2, 349248, Note_on_c, 1, 69, 0
2, 349248, Note_on_c, 1, 71, 45
2, 349440, Note_on_c, 1, 71, 0
2, 349440, Note_on_c, 1, 73, 45
2, 349632, Note_on_c, 1, 73, 0
2, 349632, Note_on_c, 1, 74, 45
2, 349824, Note_on_c, 1, 74, 0
2, 349824, Note_on_c, 1, 73, 45
2, 350016, Note_on_c, 1, 73, 0
2, 350016, Note_on_c, 1, 74, 45
2, 350208, Note_on_c, 1, 74, 0
2, 350208, Note_on_c, 1, 76, 45
2, 350368, Note_on_c, 1, 76, 0
2, 350400, Note_on_c, 1, 74, 45
2, 350560, Note_on_c, 1, 74, 0
2, 351360, Note_on_c, 1, 77, 45
2, 351552, Note_on_c, 1, 77, 0
2, 351552, Note_on_c, 1, 75, 45
2, 351744, Note_on_c, 1, 75, 0
2, 351744, Note_on_c, 1, 74, 45
2, 351936, Note_on_c, 1, 74, 0
2, 351936, Note_on_c, 1, 72, 45
2, 352128, Note_on_c, 1, 72, 0
2, 352128, Note_on_c, 1, 74, 45
2, 352320, Note_on_c, 1, 74, 0
2, 352320, Note_on_c, 1, 75, 45
2, 352656, Note_on_c, 1, 75, 0
2, 352896, Note_on_c, 1, 75, 45
2, 353088, Note_on_c, 1, 75, 0
2, 353088, Note_on_c, 1, 74, 45
2, 353280, Note_on_c, 1, 74, 0
2, 353280, Note_on_c, 1, 72, 45
2, 353472, Note_on_c, 1, 72, 0
2, 353472, Note_on_c, 1, 70, 45
2, 353664, Note_on_c, 1, 70, 0
2, 353664, Note_on_c, 1, 72, 45
2, 353856, Note_on_c, 1, 72, 0
2, 353856, Note_on_c, 1, 74, 45
2, 354192, Note_on_c, 1, 74, 0
2, 354432, Note_on_c, 1, 74, 45
2, 354624, Note_on_c, 1, 74, 0
2, 354624, Note_on_c, 1, 72, 45
2, 354816, Note_on_c, 1, 72, 0
2, 354816, Note_on_c, 1, 70, 45
2, 355008, Note_on_c, 1, 70, 0
2, 355008, Note_on_c, 1, 69, 45
2, 355200, Note_on_c, 1, 69, 0
2, 355200, Note_on_c, 1, 67, 47
2, 355392, Note_on_c, 1, 67, 0
2, 355392, Note_on_c, 1, 69, 49
2, 355584, Note_on_c, 1, 69, 0
2, 355584, Note_on_c, 1, 70, 51
2, 355744, Note_on_c, 1, 70, 0
2, 355776, Note_on_c, 1, 64, 53
2, 355968, Note_on_c, 1, 64, 0
2, 355968, Note_on_c, 1, 70, 55
2, 356160, Note_on_c, 1, 70, 0
2, 356160, Note_on_c, 1, 67, 57
2, 356352, Note_on_c, 1, 67, 0
2, 356352, Note_on_c, 1, 72, 60
2, 356512, Note_on_c, 1, 72, 0
2, 356544, Note_on_c, 1, 64, 63
2, 356736, Note_on_c, 1, 64, 0
2, 356736, Note_on_c, 1, 70, 66
2, 356928, Note_on_c, 1, 70, 0
2, 356928, Note_on_c, 1, 67, 69
2, 357120, Note_on_c, 1, 67, 0
2, 357120, Note_on_c, 1, 72, 72
2, 357280, Note_on_c, 1, 72, 0
2, 357312, Note_on_c, 1, 69, 45
2, 357504, Note_on_c, 1, 69, 0
2, 357504, Note_on_c, 1, 77, 45
2, 357696, Note_on_c, 1, 77, 0
2, 357696, Note_on_c, 1, 69, 45
2, 357888, Note_on_c, 1, 69, 0
2, 357888, Note_on_c, 1, 81, 45
2, 358048, Note_on_c, 1, 81, 0
2, 358848, Note_on_c, 1, 69, 45
2, 359040, Note_on_c, 1, 69, 0
2, 359040, Note_on_c, 1, 77, 45
2, 359232, Note_on_c, 1, 77, 0
2, 359232, Note_on_c, 1, 72, 45
2, 359424, Note_on_c, 1, 72, 0
2, 359424, Note_on_c, 1, 77, 45
2, 359584, Note_on_c, 1, 77, 0
2, 360384, Note_on_c, 1, 69, 45
2, 360576, Note_on_c, 1, 69, 0
2, 360576, Note_on_c, 1, 77, 45
2, 360768, Note_on_c, 1, 77, 0
2, 360768, Note_on_c, 1, 69, 45
2, 360960, Note_on_c, 1, 69, 0
2, 360960, Note_on_c, 1, 81, 45
2, 361120, Note_on_c, 1, 81, 0
2, 361920, Note_on_c, 1, 57, 45
2, 362112, Note_on_c, 1, 57, 0
2, 362112, Note_on_c, 1, 65, 45
2, 362304, Note_on_c, 1, 65, 0
2, 362304, Note_on_c, 1, 57, 45
2, 362496, Note_on_c, 1, 57, 0
2, 362496, Note_on_c, 1, 69, 45
2, 362656, Note_on_c, 1, 69, 0
2, 362688, Note_on_c, 1, 86, 45
2, 362848, Note_on_c, 1, 86, 0
2, 363072, Note_on_c, 1, 84, 45
2, 363232, Note_on_c, 1, 84, 0
2, 363456, Note_on_c, 1, 77, 45
2, 363616, Note_on_c, 1, 77, 0
2, 363840, Note_on_c, 1, 72, 51
2, 364000, Note_on_c, 1, 72, 0
2, 364224, Note_on_c, 1, 72, 59
2, 364384, Note_on_c, 1, 72, 0
2, 364608, Note_on_c, 1, 74, 67
2, 364768, Note_on_c, 1, 74, 0
2, 364992, Note_on_c, 1, 77, 45
2, 365376, Note_on_c, 1, 77, 0
2, 365376, Note_on_c, 1, 79, 45
2, 365568, Note_on_c, 1, 79, 0
2, 365568, Note_on_c, 1, 81, 45
2, 365728, Note_on_c, 1, 81, 0
2, 365760, Note_on_c, 1, 79, 45
2, 366480, Note_on_c, 1, 79, 0
2, 366528, Note_on_c, 1, 77, 45
2, 366688, Note_on_c, 1, 77, 0
2, 366912, Note_on_c, 1, 84, 51
2, 367072, Note_on_c, 1, 84, 0
2, 367296, Note_on_c, 1, 84, 59
2, 367456, Note_on_c, 1, 84, 0
2, 367680, Note_on_c, 1, 86, 67
2, 367840, Note_on_c, 1, 86, 0
2, 368064, Note_on_c, 1, 86, 45
2, 368224, Note_on_c, 1, 86, 0
2, 368448, Note_on_c, 1, 84, 45
2, 368608, Note_on_c, 1, 84, 0
2, 368832, Note_on_c, 1, 84, 45
2, 372432, Note_on_c, 1, 84, 0
2, 372480, Note_on_c, 1, 81, 92
2, 372528, Note_on_c, 1, 81, 0
2, 372672, Note_on_c, 1, 84, 92
2, 372768, Note_on_c, 1, 84, 0
2, 373056, Note_on_c, 1, 79, 94
2, 373152, Note_on_c, 1, 79, 0
2, 374016, Note_on_c, 1, 82, 99
2, 374176, Note_on_c, 1, 82, 0
2, 374208, Note_on_c, 1, 86, 100
2, 374304, Note_on_c, 1, 86, 0
2, 374592, Note_on_c, 1, 81, 102
2, 374688, Note_on_c, 1, 81, 0
2, 375552, Note_on_c, 1, 77, 108
2, 375712, Note_on_c, 1, 77, 0
2, 375744, Note_on_c, 1, 76, 108
2, 375904, Note_on_c, 1, 76, 0
2, 375936, Note_on_c, 1, 79, 108
2, 376096, Note_on_c, 1, 79, 0
2, 376128, Note_on_c, 1, 82, 108
2, 376288, Note_on_c, 1, 82, 0
2, 376320, Note_on_c, 1, 86, 108
2, 376480, Note_on_c, 1, 86, 0
2, 376512, Note_on_c, 1, 84, 108
2, 376672, Note_on_c, 1, 84, 0
2, 376704, Note_on_c, 1, 89, 108
2, 376864, Note_on_c, 1, 89, 0
2, 376896, Note_on_c, 1, 89, 108
2, 377056, Note_on_c, 1, 89, 0
2, 377088, Note_on_c, 1, 93, 108
2, 377248, Note_on_c, 1, 93, 0
2, 377280, Note_on_c, 1, 93, 108
2, 377616, Note_on_c, 1, 93, 0
2, 377664, Note_on_c, 1, 76, 108
2, 378000, Note_on_c, 1, 76, 0
2, 378048, Note_on_c, 1, 77, 108
2, 378208, Note_on_c, 1, 77, 0
2, 378624, Note_on_c, 1, 65, 45
2, 378784, Note_on_c, 1, 65, 0
2, 378816, Note_on_c, 1, 69, 45
2, 379200, Note_on_c, 1, 69, 0
2, 379200, Note_on_c, 1, 64, 45
2, 381648, Note_on_c, 1, 64, 0
2, 381696, Note_on_c, 1, 70, 45
2, 381856, Note_on_c, 1, 70, 0
2, 381888, Note_on_c, 1, 74, 45
2, 382224, Note_on_c, 1, 74, 0
2, 382272, Note_on_c, 1, 69, 45
2, 384720, Note_on_c, 1, 69, 0
2, 384768, Note_on_c, 1, 79, 30
2, 384928, Note_on_c, 1, 79, 0
2, 384960, Note_on_c, 1, 82, 30
2, 385296, Note_on_c, 1, 82, 0
2, 385344, Note_on_c, 1, 78, 30
2, 386256, Note_on_c, 1, 78, 0
2, 386496, Note_on_c, 1, 77, 30
2, 386656, Note_on_c, 1, 77, 0
2, 386880, Note_on_c, 1, 72, 30
2, 387040, Note_on_c, 1, 72, 0
2, 387264, Note_on_c, 1, 72, 30
2, 387424, Note_on_c, 1, 72, 0
2, 387648, Note_on_c, 1, 74, 30
2, 387808, Note_on_c, 1, 74, 0
2, 388032, Note_on_c, 1, 77, 30
2, 388192, Note_on_c, 1, 77, 0
2, 388416, Note_on_c, 1, 79, 30
2, 388576, Note_on_c, 1, 79, 0
2, 388608, Note_on_c, 1, 81, 30
2, 388768, Note_on_c, 1, 81, 0
2, 388800, Note_on_c, 1, 79, 30
2, 388960, Note_on_c, 1, 79, 0
2, 389568, Note_on_c, 1, 77, 30
2, 389728, Note_on_c, 1, 77, 0
2, 389952, Note_on_c, 1, 84, 30
2, 390112, Note_on_c, 1, 84, 0
2, 390336, Note_on_c, 1, 84, 30
2, 390496, Note_on_c, 1, 84, 0
2, 390720, Note_on_c, 1, 86, 30
2, 390880, Note_on_c, 1, 86, 0
2, 391104, Note_on_c, 1, 86, 30
2, 391264, Note_on_c, 1, 86, 0
2, 391488, Note_on_c, 1, 84, 30
2, 391648, Note_on_c, 1, 84, 0
2, 391872, Note_on_c, 1, 84, 30
2, 392032, Note_on_c, 1, 84, 0
2, 392640, Note_on_c, 1, 77, 30
2, 392800, Note_on_c, 1, 77, 0
2, 392832, Note_on_c, 1, 81, 30
2, 392992, Note_on_c, 1, 81, 0
2, 393024, Note_on_c, 1, 84, 30
2, 393184, Note_on_c, 1, 84, 0
2, 393216, Note_on_c, 1, 89, 30
2, 393376, Note_on_c, 1, 89, 0
2, 393408, Note_on_c, 1, 89, 30
2, 393568, Note_on_c, 1, 89, 0
2, 393600, Note_on_c, 1, 89, 30
2, 393760, Note_on_c, 1, 89, 0
2, 393792, Note_on_c, 1, 89, 30
2, 393952, Note_on_c, 1, 89, 0
2, 393984, Note_on_c, 1, 89, 30
2, 394144, Note_on_c, 1, 89, 0
2, 394176, Note_on_c, 1, 91, 30
2, 394336, Note_on_c, 1, 91, 0
2, 394368, Note_on_c, 1, 89, 30
2, 394528, Note_on_c, 1, 89, 0
2, 394560, Note_on_c, 1, 91, 30
2, 394720, Note_on_c, 1, 91, 0
2, 394752, Note_on_c, 1, 93, 30
2, 394912, Note_on_c, 1, 93, 0
2, 394944, Note_on_c, 1, 93, 30
2, 395104, Note_on_c, 1, 93, 0
2, 395136, Note_on_c, 1, 91, 30
2, 395296, Note_on_c, 1, 91, 0
2, 395328, Note_on_c, 1, 89, 30
2, 395488, Note_on_c, 1, 89, 0
2, 395520, Note_on_c, 1, 91, 30
2, 395680, Note_on_c, 1, 91, 0
2, 395712, Note_on_c, 1, 77, 30
2, 395872, Note_on_c, 1, 77, 0
2, 395904, Note_on_c, 1, 81, 30
2, 396064, Note_on_c, 1, 81, 0
2, 396096, Note_on_c, 1, 84, 30
2, 396256, Note_on_c, 1, 84, 0
2, 396288, Note_on_c, 1, 89, 30
2, 396448, Note_on_c, 1, 89, 0
2, 396480, Note_on_c, 1, 89, 30
2, 396640, Note_on_c, 1, 89, 0
2, 396672, Note_on_c, 1, 89, 30
2, 396832, Note_on_c, 1, 89, 0
2, 396864, Note_on_c, 1, 89, 30
2, 397024, Note_on_c, 1, 89, 0
2, 397056, Note_on_c, 1, 89, 30
2, 397216, Note_on_c, 1, 89, 0
2, 397248, Note_on_c, 1, 89, 30
2, 397408, Note_on_c, 1, 89, 0
2, 397440, Note_on_c, 1, 91, 30
2, 397600, Note_on_c, 1, 91, 0
2, 397632, Note_on_c, 1, 91, 30
2, 397792, Note_on_c, 1, 91, 0
2, 397824, Note_on_c, 1, 91, 30
2, 397984, Note_on_c, 1, 91, 0
2, 398016, Note_on_c, 1, 91, 30
2, 398176, Note_on_c, 1, 91, 0
2, 398208, Note_on_c, 1, 89, 30
2, 398368, Note_on_c, 1, 89, 0
2, 398400, Note_on_c, 1, 88, 30
2, 398560, Note_on_c, 1, 88, 0
2, 398592, Note_on_c, 1, 89, 30
2, 398752, Note_on_c, 1, 89, 0
2, 398976, Note_on_c, 1, 89, 30
2, 399136, Note_on_c, 1, 89, 0
2, 399360, Note_on_c, 1, 88, 30
2, 399520, Note_on_c, 1, 88, 0
2, 399744, Note_on_c, 1, 88, 30
2, 399904, Note_on_c, 1, 88, 0
2, 400128, Note_on_c, 1, 86, 30
2, 400288, Note_on_c, 1, 86, 0
2, 400512, Note_on_c, 1, 86, 30
2, 400672, Note_on_c, 1, 86, 0
2, 400896, Note_on_c, 1, 84, 30
2, 401056, Note_on_c, 1, 84, 0
2, 401280, Note_on_c, 1, 82, 30
2, 401440, Note_on_c, 1, 82, 0
2, 401664, Note_on_c, 1, 81, 30
2, 401824, Note_on_c, 1, 81, 0
2, 402048, Note_on_c, 1, 77, 30
2, 402208, Note_on_c, 1, 77, 0
2, 402432, Note_on_c, 1, 76, 30
2, 402592, Note_on_c, 1, 76, 0
2, 402816, Note_on_c, 1, 76, 30
2, 402976, Note_on_c, 1, 76, 0
2, 403200, Note_on_c, 1, 74, 30
2, 403360, Note_on_c, 1, 74, 0
2, 403584, Note_on_c, 1, 74, 30
2, 403744, Note_on_c, 1, 74, 0
2, 403968, Note_on_c, 1, 72, 30
2, 404128, Note_on_c, 1, 72, 0
2, 404352, Note_on_c, 1, 70, 30
2, 404512, Note_on_c, 1, 70, 0
2, 404544, Note_on_c, 1, 70, 30
2, 404704, Note_on_c, 1, 70, 0
2, 404736, Note_on_c, 1, 81, 108
2, 404896, Note_on_c, 1, 81, 0
2, 404928, Note_on_c, 1, 84, 108
2, 405264, Note_on_c, 1, 84, 0
2, 405312, Note_on_c, 1, 79, 108
2, 405472, Note_on_c, 1, 79, 0
2, 405504, Note_on_c, 1, 79, 108
2, 405664, Note_on_c, 1, 79, 0
2, 405696, Note_on_c, 1, 81, 108
2, 406032, Note_on_c, 1, 81, 0
2, 406080, Note_on_c, 1, 77, 108
2, 406240, Note_on_c, 1, 77, 0
2, 406272, Note_on_c, 1, 81, 108
2, 406432, Note_on_c, 1, 81, 0
2, 406464, Note_on_c, 1, 84, 108
2, 406560, Note_on_c, 1, 84, 0
2, 406848, Note_on_c, 1, 88, 108
2, 406944, Note_on_c, 1, 88, 0
2, 407232, Note_on_c, 1, 69, 108
2, 407232, Note_on_c, 1, 89, 108
2, 407392, Note_on_c, 1, 69, 0
2, 407392, Note_on_c, 1, 89, 0
2, 407808, Control_c, 1, 7, 0
2, 407808, Note_on_c, 1, 70, 60
2, 408528, Note_on_c, 1, 70, 0
2, 408528, End_track
3, 0, Start_track
3, 0, MIDI_port, 0
3, 0, Title_t, "Violino II."
3, 0, Program_c, 2, 0
3, 0, Control_c, 2, 7, 127
3, 0, Control_c, 2, 10, 64
3, 1536, Note_on_c, 2, 72, 45
3, 2016, Note_on_c, 2, 72, 0
3, 2016, Note_on_c, 2, 70, 45
3, 2112, Note_on_c, 2, 70, 0
3, 2112, Note_on_c, 2, 68, 45
3, 2208, Note_on_c, 2, 68, 0
3, 2208, Note_on_c, 2, 67, 45
3, 2302, Note_on_c, 2, 67, 0
3, 2304, Note_on_c, 2, 65, 45
3, 2464, Note_on_c, 2, 65, 0
3, 3456, Note_on_c, 2, 65, 45
3, 3936, Note_on_c, 2, 65, 0
3, 3936, Note_on_c, 2, 63, 45
3, 4032, Note_on_c, 2, 63, 0
3, 4032, Note_on_c, 2, 61, 45
3, 4128, Note_on_c, 2, 61, 0
3, 4128, Note_on_c, 2, 60, 45
3, 4224, Note_on_c, 2, 60, 0
3, 4224, Note_on_c, 2, 58, 45
3, 4320, Note_on_c, 2, 58, 0
3, 4320, Note_on_c, 2, 62, 56
3, 4416, Note_on_c, 2, 62, 0
3, 4416, Note_on_c, 2, 65, 68
3, 4512, Note_on_c, 2, 65, 0
3, 4512, Note_on_c, 2, 70, 80
3, 4606, Note_on_c, 2, 70, 0
3, 4608, Note_on_c, 2, 65, 92
3, 4608, Note_on_c, 2, 74, 92
3, 4702, Note_on_c, 2, 65, 0
3, 4702, Note_on_c, 2, 74, 0
3, 4704, Note_on_c, 2, 65, 92
3, 4704, Note_on_c, 2, 74, 92
3, 4798, Note_on_c, 2, 65, 0
3, 4798, Note_on_c, 2, 74, 0
3, 4800, Note_on_c, 2, 65, 92
3, 4800, Note_on_c, 2, 74, 92
3, 4960, Note_on_c, 2, 65, 0
3, 4960, Note_on_c, 2, 74, 0
3, 5760, Note_on_c, 2, 70, 92
3, 5760, Note_on_c, 2, 76, 92
3, 5854, Note_on_c, 2, 70, 0
3, 5854, Note_on_c, 2, 76, 0
3, 5856, Note_on_c, 2, 70, 92
3, 5856, Note_on_c, 2, 76, 92
3, 5950, Note_on_c, 2, 70, 0
3, 5950, Note_on_c, 2, 76, 0
3, 5952, Note_on_c, 2, 70, 92
3, 5952, Note_on_c, 2, 76, 92
3, 6112, Note_on_c, 2, 70, 0
3, 6112, Note_on_c, 2, 76, 0
3, 7296, Note_on_c, 2, 73, 92
3, 7296, Note_on_c, 2, 82, 92
3, 7390, Note_on_c, 2, 73, 0
3, 7390, Note_on_c, 2, 82, 0
3, 7392, Note_on_c, 2, 73, 92
3, 7392, Note_on_c, 2, 82, 92
3, 7486, Note_on_c, 2, 73, 0
3, 7486, Note_on_c, 2, 82, 0
3, 7488, Note_on_c, 2, 73, 92
3, 7488, Note_on_c, 2, 82, 92
3, 7648, Note_on_c, 2, 73, 0
3, 7648, Note_on_c, 2, 82, 0
3, 8448, Note_on_c, 2, 72, 92
3, 8448, Note_on_c, 2, 80, 92
3, 8542, Note_on_c, 2, 72, 0
3, 8542, Note_on_c, 2, 80, 0
3, 8544, Note_on_c, 2, 72, 92
3, 8544, Note_on_c, 2, 80, 92
3, 8638, Note_on_c, 2, 72, 0
3, 8638, Note_on_c, 2, 80, 0
3, 8640, Note_on_c, 2, 72, 92
3, 8640, Note_on_c, 2, 80, 92
3, 8800, Note_on_c, 2, 72, 0
3, 8800, Note_on_c, 2, 80, 0
3, 9600, Note_on_c, 2, 70, 108
3, 9600, Note_on_c, 2, 76, 108
3, 9694, Note_on_c, 2, 70, 0
3, 9694, Note_on_c, 2, 76, 0
3, 9696, Note_on_c, 2, 70, 106
3, 9696, Note_on_c, 2, 76, 106
3, 9790, Note_on_c, 2, 70, 0
3, 9790, Note_on_c, 2, 76, 0
3, 9792, Note_on_c, 2, 70, 104
3, 9792, Note_on_c, 2, 76, 104
3, 9952, Note_on_c, 2, 70, 0
3, 9952, Note_on_c, 2, 76, 0
3, 10752, Note_on_c, 2, 79, 78
3, 10752, Note_on_c, 2, 82, 78
3, 10846, Note_on_c, 2, 79, 0
3, 10846, Note_on_c, 2, 82, 0
3, 10848, Note_on_c, 2, 79, 76
3, 10848, Note_on_c, 2, 82, 76
3, 10942, Note_on_c, 2, 79, 0
3, 10942, Note_on_c, 2, 82, 0
3, 10944, Note_on_c, 2, 79, 74
3, 10944, Note_on_c, 2, 82, 74
3, 11104, Note_on_c, 2, 79, 0
3, 11104, Note_on_c, 2, 82, 0
3, 11904, Note_on_c, 2, 79, 45
3, 11904, Note_on_c, 2, 82, 45
3, 11998, Note_on_c, 2, 79, 0
3, 11998, Note_on_c, 2, 82, 0
3, 12000, Note_on_c, 2, 79, 45
3, 12000, Note_on_c, 2, 82, 45
3, 12094, Note_on_c, 2, 79, 0
3, 12094, Note_on_c, 2, 82, 0
3, 12096, Note_on_c, 2, 79, 45
3, 12096, Note_on_c, 2, 82, 45
3, 12256, Note_on_c, 2, 79, 0
3, 12256, Note_on_c, 2, 82, 0
3, 13056, Note_on_c, 2, 60, 30
3, 13150, Note_on_c, 2, 60, 0
3, 13152, Note_on_c, 2, 60, 30
3, 13246, Note_on_c, 2, 60, 0
3, 13248, Note_on_c, 2, 60, 30
3, 13776, Note_on_c, 2, 60, 0
3, 13824, Note_on_c, 2, 69, 92
3, 13984, Note_on_c, 2, 69, 0
3, 14016, Note_on_c, 2, 72, 92
3, 14112, Note_on_c, 2, 72, 0
3, 14400, Note_on_c, 2, 67, 92
3, 14496, Note_on_c, 2, 67, 0
3, 15360, Note_on_c, 2, 67, 92
3, 15520, Note_on_c, 2, 67, 0
3, 15552, Note_on_c, 2, 70, 92
3, 15648, Note_on_c, 2, 70, 0
3, 15936, Note_on_c, 2, 65, 92
3, 16032, Note_on_c, 2, 65, 0
3, 22272, Note_on_c, 2, 70, 92
3, 22272, Note_on_c, 2, 79, 92
3, 22432, Note_on_c, 2, 70, 0
3, 22432, Note_on_c, 2, 79, 0
3, 22464, Note_on_c, 2, 69, 92
3, 22464, Note_on_c, 2, 81, 92
3, 22560, Note_on_c, 2, 69, 0
3, 22560, Note_on_c, 2, 81, 0
3, 22848, Note_on_c, 2, 69, 92
3, 22848, Note_on_c, 2, 77, 92
3, 22944, Note_on_c, 2, 69, 0
3, 22944, Note_on_c, 2, 77, 0
3, 23424, Note_on_c, 2, 77, 45
3, 23616, Note_on_c, 2, 77, 0
3, 23616, Note_on_c, 2, 75, 45
3, 23808, Note_on_c, 2, 75, 0
3, 23808, Note_on_c, 2, 74, 45
3, 24000, Note_on_c, 2, 74, 0
3, 24000, Note_on_c, 2, 72, 45
3, 24192, Note_on_c, 2, 72, 0
3, 24192, Note_on_c, 2, 74, 45
3, 24384, Note_on_c, 2, 74, 0
3, 24384, Note_on_c, 2, 75, 45
3, 24928, Note_on_c, 2, 75, 0
3, 24960, Note_on_c, 2, 75, 45
3, 25152, Note_on_c, 2, 75, 0
3, 25152, Note_on_c, 2, 74, 45
3, 25344, Note_on_c, 2, 74, 0
3, 25344, Note_on_c, 2, 72, 45
3, 25536, Note_on_c, 2, 72, 0
3, 25536, Note_on_c, 2, 70, 45
3, 25728, Note_on_c, 2, 70, 0
3, 25728, Note_on_c, 2, 72, 45
3, 25920, Note_on_c, 2, 72, 0
3, 25920, Note_on_c, 2, 74, 45
3, 26464, Note_on_c, 2, 74, 0
3, 26496, Note_on_c, 2, 74, 45
3, 26688, Note_on_c, 2, 74, 0
3, 26688, Note_on_c, 2, 72, 45
3, 26880, Note_on_c, 2, 72, 0
3, 26880, Note_on_c, 2, 70, 45
3, 27072, Note_on_c, 2, 70, 0
3, 27072, Note_on_c, 2, 69, 45
3, 27264, Note_on_c, 2, 69, 0
3, 27264, Note_on_c, 2, 70, 45
3, 27456, Note_on_c, 2, 70, 0
3, 27456, Note_on_c, 2, 69, 45
3, 27648, Note_on_c, 2, 69, 0
3, 27648, Note_on_c, 2, 67, 45
3, 27840, Note_on_c, 2, 67, 0
3, 27840, Note_on_c, 2, 65, 45
3, 28032, Note_on_c, 2, 65, 0
3, 28032, Note_on_c, 2, 67, 45
3, 28224, Note_on_c, 2, 67, 0
3, 28224, Note_on_c, 2, 60, 45
3, 28416, Note_on_c, 2, 60, 0
3, 28416, Note_on_c, 2, 64, 45
3, 28608, Note_on_c, 2, 64, 0
3, 28608, Note_on_c, 2, 65, 45
3, 28800, Note_on_c, 2, 65, 0
3, 28800, Note_on_c, 2, 69, 45
3, 28992, Note_on_c, 2, 69, 0
3, 28992, Note_on_c, 2, 72, 45
3, 29152, Note_on_c, 2, 72, 0
3, 29184, Note_on_c, 2, 72, 45
3, 29344, Note_on_c, 2, 72, 0
3, 29376, Note_on_c, 2, 69, 92
3, 29376, Note_on_c, 2, 72, 92
3, 29536, Note_on_c, 2, 69, 0
3, 29536, Note_on_c, 2, 72, 0
3, 29952, Note_on_c, 2, 69, 92
3, 30112, Note_on_c, 2, 69, 0
3, 30144, Note_on_c, 2, 55, 92
3, 30304, Note_on_c, 2, 55, 0
3, 30720, Note_on_c, 2, 60, 92
3, 30880, Note_on_c, 2, 60, 0
3, 30912, Note_on_c, 2, 65, 92
3, 31072, Note_on_c, 2, 65, 0
3, 31488, Note_on_c, 2, 65, 92
3, 31648, Note_on_c, 2, 65, 0
3, 31680, Note_on_c, 2, 65, 92
3, 31840, Note_on_c, 2, 65, 0
3, 32064, Note_on_c, 2, 60, 92
3, 32224, Note_on_c, 2, 60, 0
3, 32448, Note_on_c, 2, 58, 92
3, 32608, Note_on_c, 2, 58, 0
3, 33024, Note_on_c, 2, 65, 92
3, 33184, Note_on_c, 2, 65, 0
3, 33216, Note_on_c, 2, 70, 92
3, 33376, Note_on_c, 2, 70, 0
3, 33792, Note_on_c, 2, 70, 92
3, 33952, Note_on_c, 2, 70, 0
3, 33984, Note_on_c, 2, 69, 92
3, 34144, Note_on_c, 2, 69, 0
3, 34560, Note_on_c, 2, 65, 92
3, 34720, Note_on_c, 2, 65, 0
3, 34752, Note_on_c, 2, 62, 92
3, 34912, Note_on_c, 2, 62, 0
3, 35136, Note_on_c, 2, 64, 92
3, 35296, Note_on_c, 2, 64, 0
3, 35520, Note_on_c, 2, 57, 92
3, 35568, Note_on_c, 2, 57, 0
3, 35712, Note_on_c, 2, 69, 92
3, 35760, Note_on_c, 2, 69, 0
3, 35904, Note_on_c, 2, 68, 92
3, 35952, Note_on_c, 2, 68, 0
3, 39552, Note_on_c, 2, 64, 45
3, 39744, Note_on_c, 2, 64, 0
3, 39744, Note_on_c, 2, 62, 45
3, 39936, Note_on_c, 2, 62, 0
3, 39936, Note_on_c, 2, 61, 45
3, 40128, Note_on_c, 2, 61, 0
3, 40128, Note_on_c, 2, 59, 45
3, 40320, Note_on_c, 2, 59, 0
3, 40320, Note_on_c, 2, 61, 45
3, 40512, Note_on_c, 2, 61, 0
3, 40512, Note_on_c, 2, 62, 45
3, 41056, Note_on_c, 2, 62, 0
3, 41088, Note_on_c, 2, 67, 45
3, 41280, Note_on_c, 2, 67, 0
3, 41280, Note_on_c, 2, 66, 45
3, 41472, Note_on_c, 2, 66, 0
3, 41472, Note_on_c, 2, 64, 45
3, 41664, Note_on_c, 2, 64, 0
3, 41664, Note_on_c, 2, 62, 45
3, 41856, Note_on_c, 2, 62, 0
3, 41856, Note_on_c, 2, 64, 45
3, 42048, Note_on_c, 2, 64, 0
3, 42048, Note_on_c, 2, 66, 45
3, 42624, Note_on_c, 2, 66, 0
3, 42624, Note_on_c, 2, 64, 47
3, 42816, Note_on_c, 2, 64, 0
3, 42816, Note_on_c, 2, 62, 49
3, 43008, Note_on_c, 2, 62, 0
3, 43008, Note_on_c, 2, 61, 51
3, 43200, Note_on_c, 2, 61, 0
3, 43200, Note_on_c, 2, 62, 53
3, 43392, Note_on_c, 2, 62, 0
3, 43392, Note_on_c, 2, 56, 55
3, 43584, Note_on_c, 2, 56, 0
3, 43584, Note_on_c, 2, 57, 57
3, 43776, Note_on_c, 2, 57, 0
3, 43776, Note_on_c, 2, 59, 60
3, 43968, Note_on_c, 2, 59, 0
3, 43968, Note_on_c, 2, 62, 63
3, 44160, Note_on_c, 2, 62, 0
3, 44160, Note_on_c, 2, 61, 66
3, 44352, Note_on_c, 2, 61, 0
3, 44352, Note_on_c, 2, 64, 69
3, 44512, Note_on_c, 2, 64, 0
3, 45504, Note_on_c, 2, 61, 45
3, 45696, Note_on_c, 2, 61, 0
3, 45696, Note_on_c, 2, 69, 45
3, 45888, Note_on_c, 2, 69, 0
3, 45888, Note_on_c, 2, 64, 45
3, 46080, Note_on_c, 2, 64, 0
3, 46080, Note_on_c, 2, 73, 45
3, 46240, Note_on_c, 2, 73, 0
3, 46272, Note_on_c, 2, 61, 45
3, 46464, Note_on_c, 2, 61, 0
3, 46464, Note_on_c, 2, 69, 45
3, 46656, Note_on_c, 2, 69, 0
3, 46656, Note_on_c, 2, 64, 45
3, 46848, Note_on_c, 2, 64, 0
3, 46848, Note_on_c, 2, 76, 45
3, 47008, Note_on_c, 2, 76, 0
3, 48576, Note_on_c, 2, 61, 45
3, 48768, Note_on_c, 2, 61, 0
3, 48768, Note_on_c, 2, 69, 45
3, 48960, Note_on_c, 2, 69, 0
3, 48960, Note_on_c, 2, 64, 45
3, 49152, Note_on_c, 2, 64, 0
3, 49152, Note_on_c, 2, 73, 45
3, 49312, Note_on_c, 2, 73, 0
3, 50112, Note_on_c, 2, 64, 45
3, 50304, Note_on_c, 2, 64, 0
3, 50304, Note_on_c, 2, 71, 45
3, 50496, Note_on_c, 2, 71, 0
3, 50496, Note_on_c, 2, 68, 45
3, 50688, Note_on_c, 2, 68, 0
3, 50688, Note_on_c, 2, 74, 45
3, 50848, Note_on_c, 2, 74, 0
3, 50880, Note_on_c, 2, 73, 45
3, 51072, Note_on_c, 2, 73, 0
3, 51072, Note_on_c, 2, 81, 48
3, 51264, Note_on_c, 2, 81, 0
3, 51264, Note_on_c, 2, 76, 51
3, 51456, Note_on_c, 2, 76, 0
3, 51456, Note_on_c, 2, 85, 55
3, 51616, Note_on_c, 2, 85, 0
3, 52416, Note_on_c, 2, 61, 45
3, 52608, Note_on_c, 2, 61, 0
3, 52608, Note_on_c, 2, 73, 45
3, 52800, Note_on_c, 2, 73, 0
3, 52800, Note_on_c, 2, 69, 45
3, 52992, Note_on_c, 2, 69, 0
3, 52992, Note_on_c, 2, 76, 45
3, 53152, Note_on_c, 2, 76, 0
3, 53184, Note_on_c, 2, 68, 45
3, 53376, Note_on_c, 2, 68, 0
3, 53376, Note_on_c, 2, 71, 45
3, 53568, Note_on_c, 2, 71, 0
3, 53568, Note_on_c, 2, 64, 45
3, 53760, Note_on_c, 2, 64, 0
3, 53760, Note_on_c, 2, 71, 45
3, 53920, Note_on_c, 2, 71, 0
3, 54720, Note_on_c, 2, 57, 60
3, 54912, Note_on_c, 2, 57, 0
3, 54912, Note_on_c, 2, 64, 63
3, 55104, Note_on_c, 2, 64, 0
3, 55104, Note_on_c, 2, 61, 67
3, 55296, Note_on_c, 2, 61, 0
3, 55296, Note_on_c, 2, 69, 71
3, 55456, Note_on_c, 2, 69, 0
3, 55488, Note_on_c, 2, 62, 45
3, 55680, Note_on_c, 2, 62, 0
3, 55680, Note_on_c, 2, 68, 45
3, 55872, Note_on_c, 2, 68, 0
3, 55872, Note_on_c, 2, 62, 45
3, 56064, Note_on_c, 2, 62, 0
3, 56064, Note_on_c, 2, 71, 45
3, 56224, Note_on_c, 2, 71, 0
3, 56256, Note_on_c, 2, 61, 45
3, 56448, Note_on_c, 2, 61, 0
3, 56448, Note_on_c, 2, 64, 45
3, 56640, Note_on_c, 2, 64, 0
3, 56640, Note_on_c, 2, 61, 45
3, 56800, Note_on_c, 2, 61, 0
3, 56832, Note_on_c, 2, 69, 45
3, 56880, Note_on_c, 2, 69, 0
3, 57024, Note_on_c, 2, 73, 45
3, 57120, Note_on_c, 2, 73, 0
3, 57408, Note_on_c, 2, 68, 49
3, 57504, Note_on_c, 2, 68, 0
3, 58368, Note_on_c, 2, 71, 61
3, 58528, Note_on_c, 2, 71, 0
3, 58560, Note_on_c, 2, 74, 63
3, 58656, Note_on_c, 2, 74, 0
3, 58944, Note_on_c, 2, 69, 68
3, 59040, Note_on_c, 2, 69, 0
3, 60672, Note_on_c, 2, 73, 92
3, 60832, Note_on_c, 2, 73, 0
3, 60864, Note_on_c, 2, 76, 92
3, 60960, Note_on_c, 2, 76, 0
3, 61248, Note_on_c, 2, 71, 94
3, 61344, Note_on_c, 2, 71, 0
3, 62208, Note_on_c, 2, 74, 101
3, 62368, Note_on_c, 2, 74, 0
3, 62400, Note_on_c, 2, 78, 102
3, 62496, Note_on_c, 2, 78, 0
3, 62784, Note_on_c, 2, 73, 106
3, 62832, Note_on_c, 2, 73, 0
3, 62976, Note_on_c, 2, 61, 108
3, 63024, Note_on_c, 2, 61, 0
3, 63168, Note_on_c, 2, 59, 108
3, 63328, Note_on_c, 2, 59, 0
3, 63360, Note_on_c, 2, 68, 108
3, 63520, Note_on_c, 2, 68, 0
3, 63552, Note_on_c, 2, 68, 108
3, 63712, Note_on_c, 2, 68, 0
3, 63744, Note_on_c, 2, 68, 108
3, 63904, Note_on_c, 2, 68, 0
3, 63936, Note_on_c, 2, 64, 108
3, 64096, Note_on_c, 2, 64, 0
3, 64128, Note_on_c, 2, 64, 108
3, 64128, Note_on_c, 2, 69, 108
3, 64288, Note_on_c, 2, 64, 0
3, 64288, Note_on_c, 2, 69, 0
3, 64320, Note_on_c, 2, 64, 108
3, 64320, Note_on_c, 2, 69, 108
3, 64480, Note_on_c, 2, 64, 0
3, 64480, Note_on_c, 2, 69, 0
3, 64512, Note_on_c, 2, 61, 108
3, 64512, Note_on_c, 2, 64, 108
3, 64672, Note_on_c, 2, 61, 0
3, 64672, Note_on_c, 2, 64, 0
3, 64704, Note_on_c, 2, 61, 127
3, 64704, Note_on_c, 2, 64, 127
3, 65040, Note_on_c, 2, 61, 0
3, 65040, Note_on_c, 2, 64, 0
3, 65088, Note_on_c, 2, 68, 108
3, 65424, Note_on_c, 2, 68, 0
3, 65472, Note_on_c, 2, 69, 108
3, 65632, Note_on_c, 2, 69, 0
3, 66048, Note_on_c, 2, 61, 45
3, 66208, Note_on_c, 2, 61, 0
3, 66240, Note_on_c, 2, 61, 45
3, 66336, Note_on_c, 2, 61, 0
3, 66624, Note_on_c, 2, 59, 45
3, 66624, Note_on_c, 2, 62, 45
3, 66720, Note_on_c, 2, 59, 0
3, 66720, Note_on_c, 2, 62, 0
3, 67584, Note_on_c, 2, 60, 92
3, 67744, Note_on_c, 2, 60, 0
3, 67776, Note_on_c, 2, 72, 92
3, 67872, Note_on_c, 2, 72, 0
3, 68160, Note_on_c, 2, 67, 92
3, 68256, Note_on_c, 2, 67, 0
3, 69120, Note_on_c, 2, 67, 92
3, 69280, Note_on_c, 2, 67, 0
3, 69312, Note_on_c, 2, 70, 92
3, 69408, Note_on_c, 2, 70, 0
3, 69696, Note_on_c, 2, 65, 92
3, 69792, Note_on_c, 2, 65, 0
3, 76032, Note_on_c, 2, 70, 92
3, 76032, Note_on_c, 2, 79, 92
3, 76192, Note_on_c, 2, 70, 0
3, 76192, Note_on_c, 2, 79, 0
3, 76224, Note_on_c, 2, 69, 92
3, 76224, Note_on_c, 2, 81, 92
3, 76320, Note_on_c, 2, 69, 0
3, 76320, Note_on_c, 2, 81, 0
3, 76608, Note_on_c, 2, 69, 92
3, 76608, Note_on_c, 2, 77, 92
3, 76704, Note_on_c, 2, 69, 0
3, 76704, Note_on_c, 2, 77, 0
3, 77184, Note_on_c, 2, 77, 45
3, 77376, Note_on_c, 2, 77, 0
3, 77376, Note_on_c, 2, 75, 45
3, 77568, Note_on_c, 2, 75, 0
3, 77568, Note_on_c, 2, 74, 45
3, 77760, Note_on_c, 2, 74, 0
3, 77760, Note_on_c, 2, 72, 45
3, 77952, Note_on_c, 2, 72, 0
3, 77952, Note_on_c, 2, 74, 45
3, 78144, Note_on_c, 2, 74, 0
3, 78144, Note_on_c, 2, 75, 45
3, 78688, Note_on_c, 2, 75, 0
3, 78720, Note_on_c, 2, 75, 45
3, 78912, Note_on_c, 2, 75, 0
3, 78912, Note_on_c, 2, 74, 45
3, 79104, Note_on_c, 2, 74, 0
3, 79104, Note_on_c, 2, 72, 45
3, 79296, Note_on_c, 2, 72, 0
3, 79296, Note_on_c, 2, 70, 45
3, 79488, Note_on_c, 2, 70, 0
3, 79488, Note_on_c, 2, 72, 45
3, 79680, Note_on_c, 2, 72, 0
3, 79680, Note_on_c, 2, 74, 45
3, 80224, Note_on_c, 2, 74, 0
3, 80256, Note_on_c, 2, 74, 45
3, 80448, Note_on_c, 2, 74, 0
3, 80448, Note_on_c, 2, 72, 45
3, 80640, Note_on_c, 2, 72, 0
3, 80640, Note_on_c, 2, 70, 45
3, 80832, Note_on_c, 2, 70, 0
3, 80832, Note_on_c, 2, 69, 45
3, 81024, Note_on_c, 2, 69, 0
3, 81024, Note_on_c, 2, 70, 45
3, 81216, Note_on_c, 2, 70, 0
3, 81216, Note_on_c, 2, 69, 45
3, 81408, Note_on_c, 2, 69, 0
3, 81408, Note_on_c, 2, 67, 45
3, 81600, Note_on_c, 2, 67, 0
3, 81600, Note_on_c, 2, 65, 45
3, 81792, Note_on_c, 2, 65, 0
3, 81792, Note_on_c, 2, 67, 45
3, 81984, Note_on_c, 2, 67, 0
3, 81984, Note_on_c, 2, 60, 45
3, 82176, Note_on_c, 2, 60, 0
3, 82176, Note_on_c, 2, 64, 45
3, 82368, Note_on_c, 2, 64, 0
3, 82368, Note_on_c, 2, 65, 45
3, 82560, Note_on_c, 2, 65, 0
3, 82560, Note_on_c, 2, 69, 45
3, 82752, Note_on_c, 2, 69, 0
3, 82752, Note_on_c, 2, 72, 45
3, 82912, Note_on_c, 2, 72, 0
3, 82944, Note_on_c, 2, 72, 45
3, 83104, Note_on_c, 2, 72, 0
3, 83136, Note_on_c, 2, 69, 92
3, 83136, Note_on_c, 2, 72, 92
3, 83296, Note_on_c, 2, 69, 0
3, 83296, Note_on_c, 2, 72, 0
3, 83712, Note_on_c, 2, 69, 92
3, 83872, Note_on_c, 2, 69, 0
3, 83904, Note_on_c, 2, 55, 92
3, 84064, Note_on_c, 2, 55, 0
3, 84480, Note_on_c, 2, 60, 92
3, 84640, Note_on_c, 2, 60, 0
3, 84672, Note_on_c, 2, 65, 92
3, 84832, Note_on_c, 2, 65, 0
3, 85248, Note_on_c, 2, 65, 92
3, 85408, Note_on_c, 2, 65, 0
3, 85440, Note_on_c, 2, 65, 92
3, 85600, Note_on_c, 2, 65, 0
3, 85824, Note_on_c, 2, 60, 92
3, 85984, Note_on_c, 2, 60, 0
3, 86208, Note_on_c, 2, 58, 92
3, 86368, Note_on_c, 2, 58, 0
3, 86784, Note_on_c, 2, 65, 92
3, 86944, Note_on_c, 2, 65, 0
3, 86976, Note_on_c, 2, 70, 92
3, 87136, Note_on_c, 2, 70, 0
3, 87552, Note_on_c, 2, 70, 92
3, 87712, Note_on_c, 2, 70, 0
3, 87744, Note_on_c, 2, 69, 92
3, 87904, Note_on_c, 2, 69, 0
3, 88320, Note_on_c, 2, 65, 92
3, 88480, Note_on_c, 2, 65, 0
3, 88512, Note_on_c, 2, 62, 92
3, 88672, Note_on_c, 2, 62, 0
3, 88896, Note_on_c, 2, 64, 92
3, 89056, Note_on_c, 2, 64, 0
3, 89280, Note_on_c, 2, 57, 92
3, 89328, Note_on_c, 2, 57, 0
3, 89472, Note_on_c, 2, 69, 92
3, 89520, Note_on_c, 2, 69, 0
3, 89664, Note_on_c, 2, 68, 92
3, 89712, Note_on_c, 2, 68, 0
3, 93312, Note_on_c, 2, 64, 45
3, 93504, Note_on_c, 2, 64, 0
3, 93504, Note_on_c, 2, 62, 45
3, 93696, Note_on_c, 2, 62, 0
3, 93696, Note_on_c, 2, 61, 45
3, 93888, Note_on_c, 2, 61, 0
3, 93888, Note_on_c, 2, 59, 45
3, 94080, Note_on_c, 2, 59, 0
3, 94080, Note_on_c, 2, 61, 45
3, 94272, Note_on_c, 2, 61, 0
3, 94272, Note_on_c, 2, 62, 45
3, 94816, Note_on_c, 2, 62, 0
3, 94848, Note_on_c, 2, 67, 45
3, 95040, Note_on_c, 2, 67, 0
3, 95040, Note_on_c, 2, 66, 45
3, 95232, Note_on_c, 2, 66, 0
3, 95232, Note_on_c, 2, 64, 45
3, 95424, Note_on_c, 2, 64, 0
3, 95424, Note_on_c, 2, 62, 45
3, 95616, Note_on_c, 2, 62, 0
3, 95616, Note_on_c, 2, 64, 45
3, 95808, Note_on_c, 2, 64, 0
3, 95808, Note_on_c, 2, 66, 45
3, 96384, Note_on_c, 2, 66, 0
3, 96384, Note_on_c, 2, 64, 47
3, 96576, Note_on_c, 2, 64, 0
3, 96576, Note_on_c, 2, 62, 49
3, 96768, Note_on_c, 2, 62, 0
3, 96768, Note_on_c, 2, 61, 51
3, 96960, Note_on_c, 2, 61, 0
3, 96960, Note_on_c, 2, 62, 53
3, 97152, Note_on_c, 2, 62, 0
3, 97152, Note_on_c, 2, 56, 55
3, 97344, Note_on_c, 2, 56, 0
3, 97344, Note_on_c, 2, 57, 57
3, 97536, Note_on_c, 2, 57, 0
3, 97536, Note_on_c, 2, 59, 60
3, 97728, Note_on_c, 2, 59, 0
3, 97728, Note_on_c, 2, 62, 63
3, 97920, Note_on_c, 2, 62, 0
3, 97920, Note_on_c, 2, 61, 66
3, 98112, Note_on_c, 2, 61, 0
3, 98112, Note_on_c, 2, 64, 69
3, 98272, Note_on_c, 2, 64, 0
3, 99264, Note_on_c, 2, 61, 45
3, 99456, Note_on_c, 2, 61, 0
3, 99456, Note_on_c, 2, 69, 45
3, 99648, Note_on_c, 2, 69, 0
3, 99648, Note_on_c, 2, 64, 45
3, 99840, Note_on_c, 2, 64, 0
3, 99840, Note_on_c, 2, 73, 45
3, 100000, Note_on_c, 2, 73, 0
3, 100032, Note_on_c, 2, 61, 45
3, 100224, Note_on_c, 2, 61, 0
3, 100224, Note_on_c, 2, 69, 45
3, 100416, Note_on_c, 2, 69, 0
3, 100416, Note_on_c, 2, 64, 45
3, 100608, Note_on_c, 2, 64, 0
3, 100608, Note_on_c, 2, 76, 45
3, 100768, Note_on_c, 2, 76, 0
3, 102336, Note_on_c, 2, 61, 45
3, 102528, Note_on_c, 2, 61, 0
3, 102528, Note_on_c, 2, 69, 45
3, 102720, Note_on_c, 2, 69, 0
3, 102720, Note_on_c, 2, 64, 45
3, 102912, Note_on_c, 2, 64, 0
3, 102912, Note_on_c, 2, 73, 45
3, 103072, Note_on_c, 2, 73, 0
3, 103872, Note_on_c, 2, 64, 45
3, 104064, Note_on_c, 2, 64, 0
3, 104064, Note_on_c, 2, 71, 45
3, 104256, Note_on_c, 2, 71, 0
3, 104256, Note_on_c, 2, 68, 45
3, 104448, Note_on_c, 2, 68, 0
3, 104448, Note_on_c, 2, 74, 45
3, 104608, Note_on_c, 2, 74, 0
3, 104640, Note_on_c, 2, 73, 45
3, 104832, Note_on_c, 2, 73, 0
3, 104832, Note_on_c, 2, 81, 48
3, 105024, Note_on_c, 2, 81, 0
3, 105024, Note_on_c, 2, 76, 51
3, 105216, Note_on_c, 2, 76, 0
3, 105216, Note_on_c, 2, 85, 55
3, 105376, Note_on_c, 2, 85, 0
3, 106176, Note_on_c, 2, 61, 45
3, 106368, Note_on_c, 2, 61, 0
3, 106368, Note_on_c, 2, 73, 45
3, 106560, Note_on_c, 2, 73, 0
3, 106560, Note_on_c, 2, 69, 45
3, 106752, Note_on_c, 2, 69, 0
3, 106752, Note_on_c, 2, 76, 45
3, 106912, Note_on_c, 2, 76, 0
3, 106944, Note_on_c, 2, 68, 45
3, 107136, Note_on_c, 2, 68, 0
3, 107136, Note_on_c, 2, 71, 45
3, 107328, Note_on_c, 2, 71, 0
3, 107328, Note_on_c, 2, 64, 45
3, 107520, Note_on_c, 2, 64, 0
3, 107520, Note_on_c, 2, 71, 45
3, 107680, Note_on_c, 2, 71, 0
3, 108480, Note_on_c, 2, 57, 60
3, 108672, Note_on_c, 2, 57, 0
3, 108672, Note_on_c, 2, 64, 63
3, 108864, Note_on_c, 2, 64, 0
3, 108864, Note_on_c, 2, 61, 67
3, 109056, Note_on_c, 2, 61, 0
3, 109056, Note_on_c, 2, 69, 71
3, 109216, Note_on_c, 2, 69, 0
3, 109248, Note_on_c, 2, 62, 45
3, 109440, Note_on_c, 2, 62, 0
3, 109440, Note_on_c, 2, 68, 45
3, 109632, Note_on_c, 2, 68, 0
3, 109632, Note_on_c, 2, 62, 45
3, 109824, Note_on_c, 2, 62, 0
3, 109824, Note_on_c, 2, 71, 45
3, 109984, Note_on_c, 2, 71, 0
3, 110016, Note_on_c, 2, 61, 45
3, 110208, Note_on_c, 2, 61, 0
3, 110208, Note_on_c, 2, 64, 45
3, 110400, Note_on_c, 2, 64, 0
3, 110400, Note_on_c, 2, 61, 45
3, 110560, Note_on_c, 2, 61, 0
3, 110592, Note_on_c, 2, 69, 45
3, 110640, Note_on_c, 2, 69, 0
3, 110784, Note_on_c, 2, 73, 45
3, 110880, Note_on_c, 2, 73, 0
3, 111168, Note_on_c, 2, 68, 49
3, 111264, Note_on_c, 2, 68, 0
3, 112128, Note_on_c, 2, 71, 61
3, 112288, Note_on_c, 2, 71, 0
3, 112320, Note_on_c, 2, 74, 63
3, 112416, Note_on_c, 2, 74, 0
3, 112704, Note_on_c, 2, 69, 68
3, 112800, Note_on_c, 2, 69, 0
3, 114432, Note_on_c, 2, 73, 92
3, 114592, Note_on_c, 2, 73, 0
3, 114624, Note_on_c, 2, 76, 92
3, 114720, Note_on_c, 2, 76, 0
3, 115008, Note_on_c, 2, 71, 94
3, 115104, Note_on_c, 2, 71, 0
3, 115968, Note_on_c, 2, 74, 101
3, 116128, Note_on_c, 2, 74, 0
3, 116160, Note_on_c, 2, 78, 102
3, 116256, Note_on_c, 2, 78, 0
3, 116544, Note_on_c, 2, 73, 106
3, 116592, Note_on_c, 2, 73, 0
3, 116736, Note_on_c, 2, 61, 108
3, 116784, Note_on_c, 2, 61, 0
3, 116928, Note_on_c, 2, 59, 108
3, 117088, Note_on_c, 2, 59, 0
3, 117120, Note_on_c, 2, 68, 108
3, 117280, Note_on_c, 2, 68, 0
3, 117312, Note_on_c, 2, 68, 108
3, 117472, Note_on_c, 2, 68, 0
3, 117504, Note_on_c, 2, 68, 108
3, 117664, Note_on_c, 2, 68, 0
3, 117696, Note_on_c, 2, 64, 108
3, 117856, Note_on_c, 2, 64, 0
3, 117888, Note_on_c, 2, 64, 108
3, 117888, Note_on_c, 2, 69, 108
3, 118048, Note_on_c, 2, 64, 0
3, 118048, Note_on_c, 2, 69, 0
3, 118080, Note_on_c, 2, 64, 108
3, 118080, Note_on_c, 2, 69, 108
3, 118240, Note_on_c, 2, 64, 0
3, 118240, Note_on_c, 2, 69, 0
3, 118272, Note_on_c, 2, 61, 108
3, 118272, Note_on_c, 2, 64, 108
3, 118432, Note_on_c, 2, 61, 0
3, 118432, Note_on_c, 2, 64, 0
3, 118464, Note_on_c, 2, 61, 127
3, 118464, Note_on_c, 2, 64, 127
3, 118800, Note_on_c, 2, 61, 0
3, 118800, Note_on_c, 2, 64, 0
3, 118848, Note_on_c, 2, 68, 108
3, 119184, Note_on_c, 2, 68, 0
3, 119232, Note_on_c, 2, 69, 108
3, 119392, Note_on_c, 2, 69, 0
3, 119808, Note_on_c, 2, 61, 45
3, 119968, Note_on_c, 2, 61, 0
3, 120000, Note_on_c, 2, 69, 45
3, 120096, Note_on_c, 2, 69, 0
3, 120384, Note_on_c, 2, 59, 45
3, 120480, Note_on_c, 2, 59, 0
3, 121344, Note_on_c, 2, 57, 92
3, 121504, Note_on_c, 2, 57, 0
3, 121536, Note_on_c, 2, 60, 127
3, 121872, Note_on_c, 2, 60, 0
3, 121920, Note_on_c, 2, 56, 92
3, 122080, Note_on_c, 2, 56, 0
3, 122112, Note_on_c, 2, 60, 92
3, 122272, Note_on_c, 2, 60, 0
3, 122304, Note_on_c, 2, 64, 127
3, 122640, Note_on_c, 2, 64, 0
3, 122688, Note_on_c, 2, 59, 92
3, 122848, Note_on_c, 2, 59, 0
3, 122880, Note_on_c, 2, 64, 92
3, 123040, Note_on_c, 2, 64, 0
3, 123072, Note_on_c, 2, 67, 127
3, 123408, Note_on_c, 2, 67, 0
3, 123456, Note_on_c, 2, 62, 92
3, 123616, Note_on_c, 2, 62, 0
3, 124416, Note_on_c, 2, 62, 92
3, 124576, Note_on_c, 2, 62, 0
3, 124608, Note_on_c, 2, 65, 127
3, 124944, Note_on_c, 2, 65, 0
3, 124992, Note_on_c, 2, 60, 92
3, 125328, Note_on_c, 2, 60, 0
3, 125568, Note_on_c, 2, 76, 45
3, 125760, Note_on_c, 2, 76, 0
3, 125760, Note_on_c, 2, 74, 45
3, 125952, Note_on_c, 2, 74, 0
3, 125952, Note_on_c, 2, 72, 45
3, 126144, Note_on_c, 2, 72, 0
3, 126144, Note_on_c, 2, 71, 45
3, 126336, Note_on_c, 2, 71, 0
3, 126336, Note_on_c, 2, 72, 45
3, 126528, Note_on_c, 2, 72, 0
3, 126528, Note_on_c, 2, 74, 45
3, 126864, Note_on_c, 2, 74, 0
3, 127104, Note_on_c, 2, 62, 45
3, 127296, Note_on_c, 2, 62, 0
3, 127296, Note_on_c, 2, 60, 45
3, 127488, Note_on_c, 2, 60, 0
3, 127488, Note_on_c, 2, 59, 45
3, 127680, Note_on_c, 2, 59, 0
3, 127680, Note_on_c, 2, 57, 45
3, 127872, Note_on_c, 2, 57, 0
3, 127872, Note_on_c, 2, 59, 45
3, 128064, Note_on_c, 2, 59, 0
3, 128256, Note_on_c, 2, 62, 45
3, 128448, Note_on_c, 2, 62, 0
3, 128448, Note_on_c, 2, 64, 45
3, 128640, Note_on_c, 2, 64, 0
3, 128640, Note_on_c, 2, 62, 45
3, 128832, Note_on_c, 2, 62, 0
3, 128832, Note_on_c, 2, 60, 45
3, 128992, Note_on_c, 2, 60, 0
3, 129024, Note_on_c, 2, 72, 45
3, 129376, Note_on_c, 2, 72, 0
3, 129408, Note_on_c, 2, 76, 45
3, 129600, Note_on_c, 2, 76, 0
3, 129600, Note_on_c, 2, 74, 45
3, 129792, Note_on_c, 2, 74, 0
3, 129792, Note_on_c, 2, 72, 45
3, 129984, Note_on_c, 2, 72, 0
3, 129984, Note_on_c, 2, 71, 45
3, 130176, Note_on_c, 2, 71, 0
3, 130176, Note_on_c, 2, 72, 45
3, 130368, Note_on_c, 2, 72, 0
3, 130368, Note_on_c, 2, 74, 45
3, 130528, Note_on_c, 2, 74, 0
3, 130560, Note_on_c, 2, 69, 45
3, 130752, Note_on_c, 2, 69, 0
3, 130752, Note_on_c, 2, 68, 45
3, 130944, Note_on_c, 2, 68, 0
3, 130944, Note_on_c, 2, 71, 45
3, 131136, Note_on_c, 2, 71, 0
3, 131136, Note_on_c, 2, 69, 45
3, 131328, Note_on_c, 2, 69, 0
3, 131328, Note_on_c, 2, 74, 45
3, 131520, Note_on_c, 2, 74, 0
3, 131520, Note_on_c, 2, 72, 45
3, 131712, Note_on_c, 2, 72, 0
3, 131712, Note_on_c, 2, 74, 45
3, 131904, Note_on_c, 2, 74, 0
3, 131904, Note_on_c, 2, 76, 45
3, 132096, Note_on_c, 2, 76, 0
3, 132096, Note_on_c, 2, 77, 45
3, 132256, Note_on_c, 2, 77, 0
3, 132288, Note_on_c, 2, 76, 45
3, 132448, Note_on_c, 2, 76, 0
3, 132672, Note_on_c, 2, 76, 45
3, 132832, Note_on_c, 2, 76, 0
3, 133632, Note_on_c, 2, 60, 45
3, 133632, Note_on_c, 2, 67, 45
3, 133792, Note_on_c, 2, 60, 0
3, 133792, Note_on_c, 2, 67, 0
3, 133824, Note_on_c, 2, 70, 45
3, 133920, Note_on_c, 2, 70, 0
3, 134208, Note_on_c, 2, 65, 45
3, 134304, Note_on_c, 2, 65, 0
3, 135168, Note_on_c, 2, 65, 45
3, 135216, Note_on_c, 2, 65, 0
3, 135360, Note_on_c, 2, 69, 45
3, 135456, Note_on_c, 2, 69, 0
3, 135744, Note_on_c, 2, 64, 45
3, 135792, Note_on_c, 2, 64, 0
3, 135936, Note_on_c, 2, 64, 45
3, 135984, Note_on_c, 2, 64, 0
3, 136128, Note_on_c, 2, 65, 45
3, 136224, Note_on_c, 2, 65, 0
3, 136512, Note_on_c, 2, 62, 45
3, 136560, Note_on_c, 2, 62, 0
3, 136704, Note_on_c, 2, 77, 45
3, 136896, Note_on_c, 2, 77, 0
3, 136896, Note_on_c, 2, 73, 45
3, 137088, Note_on_c, 2, 73, 0
3, 137088, Note_on_c, 2, 74, 45
3, 137280, Note_on_c, 2, 74, 0
3, 137280, Note_on_c, 2, 76, 45
3, 137328, Note_on_c, 2, 76, 0
3, 137472, Note_on_c, 2, 70, 45
3, 137664, Note_on_c, 2, 70, 0
3, 137664, Note_on_c, 2, 69, 45
3, 138192, Note_on_c, 2, 69, 0
3, 138240, Note_on_c, 2, 67, 45
3, 138432, Note_on_c, 2, 67, 0
3, 138432, Note_on_c, 2, 65, 30
3, 138624, Note_on_c, 2, 65, 0
3, 138624, Note_on_c, 2, 67, 30
3, 138816, Note_on_c, 2, 67, 0
3, 138816, Note_on_c, 2, 65, 30
3, 139008, Note_on_c, 2, 65, 0
3, 139008, Note_on_c, 2, 64, 30
3, 139200, Note_on_c, 2, 64, 0
3, 139200, Note_on_c, 2, 67, 30
3, 139392, Note_on_c, 2, 67, 0
3, 139392, Note_on_c, 2, 65, 30
3, 139584, Note_on_c, 2, 65, 0
3, 139584, Note_on_c, 2, 64, 30
3, 139776, Note_on_c, 2, 64, 0
3, 139776, Note_on_c, 2, 62, 30
3, 139968, Note_on_c, 2, 62, 0
3, 139968, Note_on_c, 2, 61, 30
3, 140160, Note_on_c, 2, 61, 0
3, 140160, Note_on_c, 2, 62, 30
3, 140352, Note_on_c, 2, 62, 0
3, 140352, Note_on_c, 2, 64, 30
3, 140544, Note_on_c, 2, 64, 0
3, 140544, Note_on_c, 2, 65, 30
3, 140736, Note_on_c, 2, 65, 0
3, 140736, Note_on_c, 2, 64, 30
3, 140928, Note_on_c, 2, 64, 0
3, 140928, Note_on_c, 2, 65, 30
3, 141120, Note_on_c, 2, 65, 0
3, 141120, Note_on_c, 2, 67, 30
3, 141312, Note_on_c, 2, 67, 0
3, 141312, Note_on_c, 2, 69, 30
3, 141472, Note_on_c, 2, 69, 0
3, 141504, Note_on_c, 2, 66, 45
3, 141504, Note_on_c, 2, 69, 45
3, 141552, Note_on_c, 2, 66, 0
3, 141552, Note_on_c, 2, 69, 0
3, 141888, Note_on_c, 2, 66, 45
3, 142048, Note_on_c, 2, 66, 0
3, 142272, Note_on_c, 2, 66, 45
3, 142432, Note_on_c, 2, 66, 0
3, 142656, Note_on_c, 2, 67, 45
3, 142816, Note_on_c, 2, 67, 0
3, 143040, Note_on_c, 2, 66, 45
3, 143424, Note_on_c, 2, 66, 0
3, 143424, Note_on_c, 2, 73, 45
3, 143616, Note_on_c, 2, 73, 0
3, 143616, Note_on_c, 2, 74, 45
3, 143776, Note_on_c, 2, 74, 0
3, 143808, Note_on_c, 2, 73, 45
3, 144528, Note_on_c, 2, 73, 0
3, 144576, Note_on_c, 2, 69, 45
3, 144736, Note_on_c, 2, 69, 0
3, 144960, Note_on_c, 2, 66, 45
3, 145120, Note_on_c, 2, 66, 0
3, 145344, Note_on_c, 2, 66, 45
3, 145504, Note_on_c, 2, 66, 0
3, 145728, Note_on_c, 2, 67, 45
3, 145888, Note_on_c, 2, 67, 0
3, 146112, Note_on_c, 2, 67, 45
3, 146272, Note_on_c, 2, 67, 0
3, 146496, Note_on_c, 2, 67, 45
3, 146656, Note_on_c, 2, 67, 0
3, 146880, Note_on_c, 2, 66, 45
3, 147600, Note_on_c, 2, 66, 0
3, 147648, Note_on_c, 2, 78, 45
3, 147808, Note_on_c, 2, 78, 0
3, 148032, Note_on_c, 2, 78, 51
3, 148192, Note_on_c, 2, 78, 0
3, 148416, Note_on_c, 2, 78, 59
3, 148576, Note_on_c, 2, 78, 0
3, 148800, Note_on_c, 2, 79, 67
3, 148960, Note_on_c, 2, 79, 0
3, 149184, Note_on_c, 2, 79, 45
3, 149344, Note_on_c, 2, 79, 0
3, 149568, Note_on_c, 2, 78, 45
3, 149728, Note_on_c, 2, 78, 0
3, 149952, Note_on_c, 2, 76, 45
3, 150112, Note_on_c, 2, 76, 0
3, 150336, Note_on_c, 2, 74, 59
3, 150496, Note_on_c, 2, 74, 0
3, 150720, Note_on_c, 2, 74, 45
3, 151440, Note_on_c, 2, 74, 0
3, 151488, Note_on_c, 2, 69, 45
3, 151648, Note_on_c, 2, 69, 0
3, 151872, Note_on_c, 2, 69, 59
3, 152032, Note_on_c, 2, 69, 0
3, 152256, Note_on_c, 2, 69, 45
3, 152976, Note_on_c, 2, 69, 0
3, 153024, Note_on_c, 2, 69, 45
3, 153184, Note_on_c, 2, 69, 0
3, 153408, Note_on_c, 2, 69, 59
3, 153568, Note_on_c, 2, 69, 0
3, 153792, Note_on_c, 2, 69, 45
3, 155280, Note_on_c, 2, 69, 0
3, 155328, Note_on_c, 2, 71, 45
3, 156480, Note_on_c, 2, 71, 0
3, 156480, Note_on_c, 2, 70, 45
3, 156816, Note_on_c, 2, 70, 0
3, 156864, Note_on_c, 2, 69, 30
3, 157056, Note_on_c, 2, 69, 0
3, 157056, Note_on_c, 2, 67, 30
3, 157248, Note_on_c, 2, 67, 0
3, 157248, Note_on_c, 2, 69, 30
3, 157440, Note_on_c, 2, 69, 0
3, 157440, Note_on_c, 2, 64, 30
3, 157632, Note_on_c, 2, 64, 0
3, 157632, Note_on_c, 2, 66, 30
3, 157824, Note_on_c, 2, 66, 0
3, 157824, Note_on_c, 2, 67, 30
3, 158016, Note_on_c, 2, 67, 0
3, 158016, Note_on_c, 2, 69, 30
3, 158208, Note_on_c, 2, 69, 0
3, 158208, Note_on_c, 2, 63, 30
3, 158400, Note_on_c, 2, 63, 0
3, 158400, Note_on_c, 2, 62, 30
3, 158592, Note_on_c, 2, 62, 0
3, 158592, Note_on_c, 2, 69, 30
3, 158784, Note_on_c, 2, 69, 0
3, 158784, Note_on_c, 2, 62, 30
3, 158976, Note_on_c, 2, 62, 0
3, 158976, Note_on_c, 2, 60, 30
3, 159168, Note_on_c, 2, 60, 0
3, 159168, Note_on_c, 2, 58, 30
3, 159360, Note_on_c, 2, 58, 0
3, 159360, Note_on_c, 2, 57, 30
3, 159552, Note_on_c, 2, 57, 0
3, 159552, Note_on_c, 2, 55, 30
3, 159744, Note_on_c, 2, 55, 0
3, 159744, Note_on_c, 2, 57, 30
3, 159904, Note_on_c, 2, 57, 0
3, 159936, Note_on_c, 2, 58, 30
3, 160128, Note_on_c, 2, 58, 0
3, 160128, Note_on_c, 2, 55, 30
3, 160320, Note_on_c, 2, 55, 0
3, 160320, Note_on_c, 2, 67, 30
3, 160512, Note_on_c, 2, 67, 0
3, 160512, Note_on_c, 2, 65, 30
3, 160704, Note_on_c, 2, 65, 0
3, 160704, Note_on_c, 2, 64, 30
3, 160896, Note_on_c, 2, 64, 0
3, 160896, Note_on_c, 2, 65, 30
3, 161088, Note_on_c, 2, 65, 0
3, 161088, Note_on_c, 2, 67, 30
3, 161280, Note_on_c, 2, 67, 0
3, 161280, Note_on_c, 2, 65, 30
3, 161440, Note_on_c, 2, 65, 0
3, 161472, Note_on_c, 2, 64, 30
3, 161632, Note_on_c, 2, 64, 0
3, 161856, Note_on_c, 2, 60, 30
3, 162048, Note_on_c, 2, 60, 0
3, 162048, Note_on_c, 2, 61, 30
3, 162208, Note_on_c, 2, 61, 0
3, 162240, Note_on_c, 2, 61, 30
3, 162400, Note_on_c, 2, 61, 0
3, 162624, Note_on_c, 2, 58, 30
3, 162816, Note_on_c, 2, 58, 0
3, 162816, Note_on_c, 2, 60, 30
3, 162976, Note_on_c, 2, 60, 0
3, 163008, Note_on_c, 2, 60, 30
3, 163168, Note_on_c, 2, 60, 0
3, 163392, Note_on_c, 2, 56, 30
3, 163584, Note_on_c, 2, 56, 0
3, 163584, Note_on_c, 2, 58, 30
3, 163744, Note_on_c, 2, 58, 0
3, 163776, Note_on_c, 2, 58, 30
3, 163936, Note_on_c, 2, 58, 0
3, 164160, Note_on_c, 2, 55, 30
3, 164352, Note_on_c, 2, 55, 0
3, 164352, Note_on_c, 2, 56, 30
3, 164512, Note_on_c, 2, 56, 0
3, 164544, Note_on_c, 2, 56, 30
3, 164704, Note_on_c, 2, 56, 0
3, 164928, Note_on_c, 2, 56, 30
3, 165088, Note_on_c, 2, 56, 0
3, 165312, Note_on_c, 2, 56, 30
3, 165472, Note_on_c, 2, 56, 0
3, 165696, Note_on_c, 2, 56, 30
3, 165856, Note_on_c, 2, 56, 0
3, 166080, Note_on_c, 2, 56, 30
3, 166240, Note_on_c, 2, 56, 0
3, 166464, Note_on_c, 2, 56, 30
3, 166624, Note_on_c, 2, 56, 0
3, 166848, Note_on_c, 2, 56, 30
3, 167040, Note_on_c, 2, 56, 0
3, 167040, Note_on_c, 2, 59, 30
3, 167232, Note_on_c, 2, 59, 0
3, 167232, Note_on_c, 2, 60, 30
3, 167424, Note_on_c, 2, 60, 0
3, 167424, Note_on_c, 2, 61, 30
3, 167584, Note_on_c, 2, 61, 0
3, 167616, Note_on_c, 2, 61, 30
3, 167808, Note_on_c, 2, 61, 0
3, 167808, Note_on_c, 2, 63, 30
3, 168000, Note_on_c, 2, 63, 0
3, 168000, Note_on_c, 2, 61, 30
3, 168192, Note_on_c, 2, 61, 0
3, 168192, Note_on_c, 2, 60, 30
3, 168352, Note_on_c, 2, 60, 0
3, 168384, Note_on_c, 2, 60, 30
3, 168576, Note_on_c, 2, 60, 0
3, 168576, Note_on_c, 2, 61, 30
3, 168768, Note_on_c, 2, 61, 0
3, 168768, Note_on_c, 2, 60, 30
3, 168960, Note_on_c, 2, 60, 0
3, 168960, Note_on_c, 2, 58, 30
3, 169120, Note_on_c, 2, 58, 0
3, 169152, Note_on_c, 2, 58, 30
3, 169344, Note_on_c, 2, 58, 0
3, 169344, Note_on_c, 2, 60, 30
3, 169536, Note_on_c, 2, 60, 0
3, 169536, Note_on_c, 2, 58, 30
3, 169728, Note_on_c, 2, 58, 0
3, 169728, Note_on_c, 2, 56, 30
3, 169888, Note_on_c, 2, 56, 0
3, 169920, Note_on_c, 2, 56, 30
3, 170112, Note_on_c, 2, 56, 0
3, 170112, Note_on_c, 2, 58, 30
3, 170304, Note_on_c, 2, 58, 0
3, 170304, Note_on_c, 2, 56, 30
3, 170496, Note_on_c, 2, 56, 0
3, 170496, Note_on_c, 2, 55, 30
3, 170656, Note_on_c, 2, 55, 0
3, 170688, Note_on_c, 2, 56, 30
3, 170848, Note_on_c, 2, 56, 0
3, 171072, Note_on_c, 2, 56, 30
3, 171232, Note_on_c, 2, 56, 0
3, 171456, Note_on_c, 2, 56, 30
3, 171616, Note_on_c, 2, 56, 0
3, 171840, Note_on_c, 2, 56, 30
3, 171840, Note_on_c, 2, 65, 30
3, 172000, Note_on_c, 2, 56, 0
3, 172000, Note_on_c, 2, 65, 0
3, 172224, Note_on_c, 2, 56, 30
3, 172384, Note_on_c, 2, 56, 0
3, 172608, Note_on_c, 2, 56, 30
3, 172768, Note_on_c, 2, 56, 0
3, 172992, Note_on_c, 2, 56, 30
3, 173152, Note_on_c, 2, 56, 0
3, 173376, Note_on_c, 2, 56, 30
3, 173536, Note_on_c, 2, 56, 0
3, 173760, Note_on_c, 2, 56, 30
3, 173920, Note_on_c, 2, 56, 0
3, 174144, Note_on_c, 2, 56, 30
3, 174304, Note_on_c, 2, 56, 0
3, 174528, Note_on_c, 2, 56, 30
3, 174688, Note_on_c, 2, 56, 0
3, 174912, Note_on_c, 2, 56, 30
3, 175072, Note_on_c, 2, 56, 0
3, 175296, Note_on_c, 2, 68, 30
3, 175456, Note_on_c, 2, 68, 0
3, 175680, Note_on_c, 2, 70, 30
3, 175744, Note_on_c, 2, 70, 0
3, 175744, Note_on_c, 2, 68, 37
3, 175808, Note_on_c, 2, 68, 0
3, 175808, Note_on_c, 2, 70, 44
3, 175872, Note_on_c, 2, 70, 0
3, 175872, Note_on_c, 2, 68, 51
3, 175936, Note_on_c, 2, 68, 0
3, 175936, Note_on_c, 2, 70, 59
3, 176000, Note_on_c, 2, 70, 0
3, 176000, Note_on_c, 2, 68, 67
3, 176064, Note_on_c, 2, 68, 0
3, 176064, Note_on_c, 2, 70, 75
3, 176128, Note_on_c, 2, 70, 0
3, 176128, Note_on_c, 2, 68, 73
3, 176192, Note_on_c, 2, 68, 0
3, 176192, Note_on_c, 2, 70, 71
3, 176256, Note_on_c, 2, 70, 0
3, 176256, Note_on_c, 2, 68, 69
3, 176320, Note_on_c, 2, 68, 0
3, 176320, Note_on_c, 2, 70, 67
3, 176384, Note_on_c, 2, 70, 0
3, 176384, Note_on_c, 2, 68, 65
3, 176448, Note_on_c, 2, 68, 0
3, 176448, Note_on_c, 2, 70, 63
3, 176512, Note_on_c, 2, 70, 0
3, 176512, Note_on_c, 2, 68, 60
3, 176576, Note_on_c, 2, 68, 0
3, 176576, Note_on_c, 2, 70, 57
3, 176640, Note_on_c, 2, 70, 0
3, 176640, Note_on_c, 2, 68, 54
3, 176704, Note_on_c, 2, 68, 0
3, 176704, Note_on_c, 2, 67, 51
3, 176768, Note_on_c, 2, 67, 0
3, 176768, Note_on_c, 2, 68, 48
3, 176830, Note_on_c, 2, 68, 0
3, 176832, Note_on_c, 2, 67, 45
3, 177024, Note_on_c, 2, 67, 0
3, 177024, Note_on_c, 2, 68, 47
3, 177216, Note_on_c, 2, 68, 0
3, 177216, Note_on_c, 2, 67, 49
3, 177408, Note_on_c, 2, 67, 0
3, 177408, Note_on_c, 2, 65, 51
3, 177600, Note_on_c, 2, 65, 0
3, 177600, Note_on_c, 2, 64, 53
3, 177792, Note_on_c, 2, 64, 0
3, 177792, Note_on_c, 2, 61, 55
3, 177984, Note_on_c, 2, 61, 0
3, 177984, Note_on_c, 2, 60, 57
3, 178176, Note_on_c, 2, 60, 0
3, 178176, Note_on_c, 2, 58, 59
3, 178368, Note_on_c, 2, 58, 0
3, 178368, Note_on_c, 2, 56, 61
3, 178560, Note_on_c, 2, 56, 0
3, 178560, Note_on_c, 2, 55, 63
3, 178720, Note_on_c, 2, 55, 0
3, 179328, Note_on_c, 2, 84, 75
3, 179520, Note_on_c, 2, 84, 0
3, 179520, Note_on_c, 2, 82, 78
3, 179712, Note_on_c, 2, 82, 0
3, 179712, Note_on_c, 2, 80, 81
3, 179904, Note_on_c, 2, 80, 0
3, 179904, Note_on_c, 2, 79, 84
3, 180096, Note_on_c, 2, 79, 0
3, 180096, Note_on_c, 2, 77, 87
3, 180288, Note_on_c, 2, 77, 0
3, 180288, Note_on_c, 2, 76, 90
3, 180480, Note_on_c, 2, 76, 0
3, 180480, Note_on_c, 2, 73, 93
3, 180672, Note_on_c, 2, 73, 0
3, 180672, Note_on_c, 2, 72, 96
3, 180864, Note_on_c, 2, 72, 0
3, 180864, Note_on_c, 2, 70, 99
3, 181056, Note_on_c, 2, 70, 0
3, 181056, Note_on_c, 2, 68, 102
3, 181248, Note_on_c, 2, 68, 0
3, 181248, Note_on_c, 2, 64, 105
3, 181408, Note_on_c, 2, 64, 0
3, 181440, Note_on_c, 2, 72, 108
3, 181440, Note_on_c, 2, 76, 108
3, 181486, Note_on_c, 2, 72, 0
3, 181486, Note_on_c, 2, 76, 0
3, 181488, Note_on_c, 2, 72, 108
3, 181488, Note_on_c, 2, 76, 108
3, 181534, Note_on_c, 2, 72, 0
3, 181534, Note_on_c, 2, 76, 0
3, 181536, Note_on_c, 2, 72, 108
3, 181536, Note_on_c, 2, 76, 108
3, 181582, Note_on_c, 2, 72, 0
3, 181582, Note_on_c, 2, 76, 0
3, 181584, Note_on_c, 2, 72, 108
3, 181584, Note_on_c, 2, 76, 108
3, 181630, Note_on_c, 2, 72, 0
3, 181630, Note_on_c, 2, 76, 0
3, 181632, Note_on_c, 2, 72, 108
3, 181632, Note_on_c, 2, 76, 108
3, 181678, Note_on_c, 2, 72, 0
3, 181678, Note_on_c, 2, 76, 0
3, 181680, Note_on_c, 2, 72, 108
3, 181680, Note_on_c, 2, 76, 108
3, 181726, Note_on_c, 2, 72, 0
3, 181726, Note_on_c, 2, 76, 0
3, 181728, Note_on_c, 2, 72, 108
3, 181728, Note_on_c, 2, 76, 108
3, 181774, Note_on_c, 2, 72, 0
3, 181774, Note_on_c, 2, 76, 0
3, 181776, Note_on_c, 2, 72, 108
3, 181776, Note_on_c, 2, 76, 108
3, 181822, Note_on_c, 2, 72, 0
3, 181822, Note_on_c, 2, 76, 0
3, 181824, Note_on_c, 2, 72, 108
3, 181824, Note_on_c, 2, 76, 108
3, 181870, Note_on_c, 2, 72, 0
3, 181870, Note_on_c, 2, 76, 0
3, 181872, Note_on_c, 2, 72, 108
3, 181872, Note_on_c, 2, 76, 108
3, 181918, Note_on_c, 2, 72, 0
3, 181918, Note_on_c, 2, 76, 0
3, 181920, Note_on_c, 2, 72, 108
3, 181920, Note_on_c, 2, 76, 108
3, 181966, Note_on_c, 2, 72, 0
3, 181966, Note_on_c, 2, 76, 0
3, 181968, Note_on_c, 2, 72, 108
3, 181968, Note_on_c, 2, 76, 108
3, 182014, Note_on_c, 2, 72, 0
3, 182014, Note_on_c, 2, 76, 0
3, 182016, Note_on_c, 2, 72, 108
3, 182016, Note_on_c, 2, 76, 108
3, 182062, Note_on_c, 2, 72, 0
3, 182062, Note_on_c, 2, 76, 0
3, 182064, Note_on_c, 2, 72, 108
3, 182064, Note_on_c, 2, 76, 108
3, 182110, Note_on_c, 2, 72, 0
3, 182110, Note_on_c, 2, 76, 0
3, 182112, Note_on_c, 2, 72, 108
3, 182112, Note_on_c, 2, 76, 108
3, 182158, Note_on_c, 2, 72, 0
3, 182158, Note_on_c, 2, 76, 0
3, 182160, Note_on_c, 2, 72, 108
3, 182160, Note_on_c, 2, 76, 108
3, 182206, Note_on_c, 2, 72, 0
3, 182206, Note_on_c, 2, 76, 0
3, 182208, Note_on_c, 2, 72, 108
3, 182208, Note_on_c, 2, 76, 108
3, 182254, Note_on_c, 2, 72, 0
3, 182254, Note_on_c, 2, 76, 0
3, 182256, Note_on_c, 2, 72, 108
3, 182256, Note_on_c, 2, 76, 108
3, 182302, Note_on_c, 2, 72, 0
3, 182302, Note_on_c, 2, 76, 0
3, 182304, Note_on_c, 2, 72, 108
3, 182304, Note_on_c, 2, 76, 108
3, 182350, Note_on_c, 2, 72, 0
3, 182350, Note_on_c, 2, 76, 0
3, 182352, Note_on_c, 2, 72, 108
3, 182352, Note_on_c, 2, 76, 108
3, 182398, Note_on_c, 2, 72, 0
3, 182398, Note_on_c, 2, 76, 0
3, 182400, Note_on_c, 2, 72, 108
3, 182400, Note_on_c, 2, 76, 108
3, 182446, Note_on_c, 2, 72, 0
3, 182446, Note_on_c, 2, 76, 0
3, 182448, Note_on_c, 2, 72, 108
3, 182448, Note_on_c, 2, 76, 108
3, 182494, Note_on_c, 2, 72, 0
3, 182494, Note_on_c, 2, 76, 0
3, 182496, Note_on_c, 2, 72, 108
3, 182496, Note_on_c, 2, 76, 108
3, 182542, Note_on_c, 2, 72, 0
3, 182542, Note_on_c, 2, 76, 0
3, 182544, Note_on_c, 2, 72, 108
3, 182544, Note_on_c, 2, 76, 108
3, 182590, Note_on_c, 2, 72, 0
3, 182590, Note_on_c, 2, 76, 0
3, 182592, Note_on_c, 2, 72, 108
3, 182592, Note_on_c, 2, 76, 108
3, 182638, Note_on_c, 2, 72, 0
3, 182638, Note_on_c, 2, 76, 0
3, 182640, Note_on_c, 2, 72, 106
3, 182640, Note_on_c, 2, 76, 106
3, 182686, Note_on_c, 2, 72, 0
3, 182686, Note_on_c, 2, 76, 0
3, 182688, Note_on_c, 2, 72, 104
3, 182688, Note_on_c, 2, 76, 104
3, 182734, Note_on_c, 2, 72, 0
3, 182734, Note_on_c, 2, 76, 0
3, 182736, Note_on_c, 2, 72, 102
3, 182736, Note_on_c, 2, 76, 102
3, 182782, Note_on_c, 2, 72, 0
3, 182782, Note_on_c, 2, 76, 0
3, 182784, Note_on_c, 2, 72, 100
3, 182784, Note_on_c, 2, 76, 100
3, 182830, Note_on_c, 2, 72, 0
3, 182830, Note_on_c, 2, 76, 0
3, 182832, Note_on_c, 2, 72, 98
3, 182832, Note_on_c, 2, 76, 98
3, 182878, Note_on_c, 2, 72, 0
3, 182878, Note_on_c, 2, 76, 0
3, 182880, Note_on_c, 2, 72, 96
3, 182880, Note_on_c, 2, 76, 96
3, 182926, Note_on_c, 2, 72, 0
3, 182926, Note_on_c, 2, 76, 0
3, 182928, Note_on_c, 2, 72, 94
3, 182928, Note_on_c, 2, 76, 94
3, 182974, Note_on_c, 2, 72, 0
3, 182974, Note_on_c, 2, 76, 0
3, 182976, Note_on_c, 2, 72, 92
3, 182976, Note_on_c, 2, 76, 92
3, 183022, Note_on_c, 2, 72, 0
3, 183022, Note_on_c, 2, 76, 0
3, 183024, Note_on_c, 2, 72, 90
3, 183024, Note_on_c, 2, 76, 90
3, 183070, Note_on_c, 2, 72, 0
3, 183070, Note_on_c, 2, 76, 0
3, 183072, Note_on_c, 2, 72, 87
3, 183072, Note_on_c, 2, 76, 87
3, 183118, Note_on_c, 2, 72, 0
3, 183118, Note_on_c, 2, 76, 0
3, 183120, Note_on_c, 2, 72, 84
3, 183120, Note_on_c, 2, 76, 84
3, 183166, Note_on_c, 2, 72, 0
3, 183166, Note_on_c, 2, 76, 0
3, 183168, Note_on_c, 2, 72, 81
3, 183168, Note_on_c, 2, 76, 81
3, 183214, Note_on_c, 2, 72, 0
3, 183214, Note_on_c, 2, 76, 0
3, 183216, Note_on_c, 2, 72, 78
3, 183216, Note_on_c, 2, 76, 78
3, 183262, Note_on_c, 2, 72, 0
3, 183262, Note_on_c, 2, 76, 0
3, 183264, Note_on_c, 2, 72, 75
3, 183264, Note_on_c, 2, 76, 75
3, 183310, Note_on_c, 2, 72, 0
3, 183310, Note_on_c, 2, 76, 0
3, 183312, Note_on_c, 2, 72, 72
3, 183312, Note_on_c, 2, 76, 72
3, 183358, Note_on_c, 2, 72, 0
3, 183358, Note_on_c, 2, 76, 0
3, 183360, Note_on_c, 2, 72, 69
3, 183360, Note_on_c, 2, 76, 69
3, 183406, Note_on_c, 2, 72, 0
3, 183406, Note_on_c, 2, 76, 0
3, 183408, Note_on_c, 2, 72, 66
3, 183408, Note_on_c, 2, 76, 66
3, 183454, Note_on_c, 2, 72, 0
3, 183454, Note_on_c, 2, 76, 0
3, 183456, Note_on_c, 2, 72, 63
3, 183456, Note_on_c, 2, 76, 63
3, 183502, Note_on_c, 2, 72, 0
3, 183502, Note_on_c, 2, 76, 0
3, 183504, Note_on_c, 2, 72, 60
3, 183504, Note_on_c, 2, 76, 60
3, 183550, Note_on_c, 2, 72, 0
3, 183550, Note_on_c, 2, 76, 0
3, 183552, Note_on_c, 2, 72, 57
3, 183552, Note_on_c, 2, 76, 57
3, 183598, Note_on_c, 2, 72, 0
3, 183598, Note_on_c, 2, 76, 0
3, 183600, Note_on_c, 2, 72, 54
3, 183600, Note_on_c, 2, 76, 54
3, 183646, Note_on_c, 2, 72, 0
3, 183646, Note_on_c, 2, 76, 0
3, 183648, Note_on_c, 2, 72, 51
3, 183648, Note_on_c, 2, 76, 51
3, 183694, Note_on_c, 2, 72, 0
3, 183694, Note_on_c, 2, 76, 0
3, 183696, Note_on_c, 2, 72, 48
3, 183696, Note_on_c, 2, 76, 48
3, 183742, Note_on_c, 2, 72, 0
3, 183742, Note_on_c, 2, 76, 0
3, 183744, Note_on_c, 2, 69, 108
3, 183744, Note_on_c, 2, 77, 108
3, 183790, Note_on_c, 2, 69, 0
3, 183790, Note_on_c, 2, 77, 0
3, 183792, Note_on_c, 2, 69, 108
3, 183792, Note_on_c, 2, 77, 108
3, 183838, Note_on_c, 2, 69, 0
3, 183838, Note_on_c, 2, 77, 0
3, 183840, Note_on_c, 2, 69, 108
3, 183840, Note_on_c, 2, 77, 108
3, 183886, Note_on_c, 2, 69, 0
3, 183886, Note_on_c, 2, 77, 0
3, 183888, Note_on_c, 2, 69, 108
3, 183888, Note_on_c, 2, 77, 108
3, 183934, Note_on_c, 2, 69, 0
3, 183934, Note_on_c, 2, 77, 0
3, 183936, Note_on_c, 2, 69, 108
3, 183936, Note_on_c, 2, 77, 108
3, 183982, Note_on_c, 2, 69, 0
3, 183982, Note_on_c, 2, 77, 0
3, 183984, Note_on_c, 2, 69, 108
3, 183984, Note_on_c, 2, 77, 108
3, 184030, Note_on_c, 2, 69, 0
3, 184030, Note_on_c, 2, 77, 0
3, 184032, Note_on_c, 2, 69, 108
3, 184032, Note_on_c, 2, 77, 108
3, 184078, Note_on_c, 2, 69, 0
3, 184078, Note_on_c, 2, 77, 0
3, 184080, Note_on_c, 2, 69, 108
3, 184080, Note_on_c, 2, 77, 108
3, 184126, Note_on_c, 2, 69, 0
3, 184126, Note_on_c, 2, 77, 0
3, 184128, Note_on_c, 2, 69, 108
3, 184128, Note_on_c, 2, 77, 108
3, 184174, Note_on_c, 2, 69, 0
3, 184174, Note_on_c, 2, 77, 0
3, 184176, Note_on_c, 2, 69, 108
3, 184176, Note_on_c, 2, 77, 108
3, 184222, Note_on_c, 2, 69, 0
3, 184222, Note_on_c, 2, 77, 0
3, 184224, Note_on_c, 2, 69, 108
3, 184224, Note_on_c, 2, 77, 108
3, 184270, Note_on_c, 2, 69, 0
3, 184270, Note_on_c, 2, 77, 0
3, 184272, Note_on_c, 2, 69, 108
3, 184272, Note_on_c, 2, 77, 108
3, 184318, Note_on_c, 2, 69, 0
3, 184318, Note_on_c, 2, 77, 0
3, 184320, Note_on_c, 2, 69, 108
3, 184320, Note_on_c, 2, 77, 108
3, 184366, Note_on_c, 2, 69, 0
3, 184366, Note_on_c, 2, 77, 0
3, 184368, Note_on_c, 2, 69, 108
3, 184368, Note_on_c, 2, 77, 108
3, 184414, Note_on_c, 2, 69, 0
3, 184414, Note_on_c, 2, 77, 0
3, 184416, Note_on_c, 2, 69, 108
3, 184416, Note_on_c, 2, 77, 108
3, 184462, Note_on_c, 2, 69, 0
3, 184462, Note_on_c, 2, 77, 0
3, 184464, Note_on_c, 2, 69, 108
3, 184464, Note_on_c, 2, 77, 108
3, 184510, Note_on_c, 2, 69, 0
3, 184510, Note_on_c, 2, 77, 0
3, 184512, Note_on_c, 2, 69, 108
3, 184512, Note_on_c, 2, 77, 108
3, 184558, Note_on_c, 2, 69, 0
3, 184558, Note_on_c, 2, 77, 0
3, 184560, Note_on_c, 2, 69, 108
3, 184560, Note_on_c, 2, 77, 108
3, 184606, Note_on_c, 2, 69, 0
3, 184606, Note_on_c, 2, 77, 0
3, 184608, Note_on_c, 2, 69, 108
3, 184608, Note_on_c, 2, 77, 108
3, 184654, Note_on_c, 2, 69, 0
3, 184654, Note_on_c, 2, 77, 0
3, 184656, Note_on_c, 2, 69, 108
3, 184656, Note_on_c, 2, 77, 108
3, 184702, Note_on_c, 2, 69, 0
3, 184702, Note_on_c, 2, 77, 0
3, 184704, Note_on_c, 2, 69, 108
3, 184704, Note_on_c, 2, 77, 108
3, 184750, Note_on_c, 2, 69, 0
3, 184750, Note_on_c, 2, 77, 0
3, 184752, Note_on_c, 2, 69, 108
3, 184752, Note_on_c, 2, 77, 108
3, 184798, Note_on_c, 2, 69, 0
3, 184798, Note_on_c, 2, 77, 0
3, 184800, Note_on_c, 2, 69, 108
3, 184800, Note_on_c, 2, 77, 108
3, 184846, Note_on_c, 2, 69, 0
3, 184846, Note_on_c, 2, 77, 0
3, 184848, Note_on_c, 2, 69, 108
3, 184848, Note_on_c, 2, 77, 108
3, 184894, Note_on_c, 2, 69, 0
3, 184894, Note_on_c, 2, 77, 0
3, 184896, Note_on_c, 2, 69, 108
3, 184896, Note_on_c, 2, 77, 108
3, 184942, Note_on_c, 2, 69, 0
3, 184942, Note_on_c, 2, 77, 0
3, 184944, Note_on_c, 2, 69, 106
3, 184944, Note_on_c, 2, 77, 106
3, 184990, Note_on_c, 2, 69, 0
3, 184990, Note_on_c, 2, 77, 0
3, 184992, Note_on_c, 2, 69, 104
3, 184992, Note_on_c, 2, 77, 104
3, 185038, Note_on_c, 2, 69, 0
3, 185038, Note_on_c, 2, 77, 0
3, 185040, Note_on_c, 2, 69, 102
3, 185040, Note_on_c, 2, 77, 102
3, 185086, Note_on_c, 2, 69, 0
3, 185086, Note_on_c, 2, 77, 0
3, 185088, Note_on_c, 2, 69, 100
3, 185088, Note_on_c, 2, 77, 100
3, 185134, Note_on_c, 2, 69, 0
3, 185134, Note_on_c, 2, 77, 0
3, 185136, Note_on_c, 2, 69, 98
3, 185136, Note_on_c, 2, 77, 98
3, 185182, Note_on_c, 2, 69, 0
3, 185182, Note_on_c, 2, 77, 0
3, 185184, Note_on_c, 2, 69, 96
3, 185184, Note_on_c, 2, 77, 96
3, 185230, Note_on_c, 2, 69, 0
3, 185230, Note_on_c, 2, 77, 0
3, 185232, Note_on_c, 2, 69, 94
3, 185232, Note_on_c, 2, 77, 94
3, 185278, Note_on_c, 2, 69, 0
3, 185278, Note_on_c, 2, 77, 0
3, 185280, Note_on_c, 2, 69, 92
3, 185280, Note_on_c, 2, 77, 92
3, 185326, Note_on_c, 2, 69, 0
3, 185326, Note_on_c, 2, 77, 0
3, 185328, Note_on_c, 2, 69, 90
3, 185328, Note_on_c, 2, 77, 90
3, 185374, Note_on_c, 2, 69, 0
3, 185374, Note_on_c, 2, 77, 0
3, 185376, Note_on_c, 2, 69, 87
3, 185376, Note_on_c, 2, 77, 87
3, 185422, Note_on_c, 2, 69, 0
3, 185422, Note_on_c, 2, 77, 0
3, 185424, Note_on_c, 2, 69, 84
3, 185424, Note_on_c, 2, 77, 84
3, 185470, Note_on_c, 2, 69, 0
3, 185470, Note_on_c, 2, 77, 0
3, 185472, Note_on_c, 2, 69, 81
3, 185472, Note_on_c, 2, 77, 81
3, 185518, Note_on_c, 2, 69, 0
3, 185518, Note_on_c, 2, 77, 0
3, 185520, Note_on_c, 2, 69, 78
3, 185520, Note_on_c, 2, 77, 78
3, 185566, Note_on_c, 2, 69, 0
3, 185566, Note_on_c, 2, 77, 0
3, 185568, Note_on_c, 2, 69, 75
3, 185568, Note_on_c, 2, 77, 75
3, 185614, Note_on_c, 2, 69, 0
3, 185614, Note_on_c, 2, 77, 0
3, 185616, Note_on_c, 2, 69, 72
3, 185616, Note_on_c, 2, 77, 72
3, 185662, Note_on_c, 2, 69, 0
3, 185662, Note_on_c, 2, 77, 0
3, 185664, Note_on_c, 2, 70, 69
3, 185664, Note_on_c, 2, 77, 69
3, 185710, Note_on_c, 2, 70, 0
3, 185710, Note_on_c, 2, 77, 0
3, 185712, Note_on_c, 2, 70, 66
3, 185712, Note_on_c, 2, 77, 66
3, 185758, Note_on_c, 2, 70, 0
3, 185758, Note_on_c, 2, 77, 0
3, 185760, Note_on_c, 2, 70, 63
3, 185760, Note_on_c, 2, 77, 63
3, 185806, Note_on_c, 2, 70, 0
3, 185806, Note_on_c, 2, 77, 0
3, 185808, Note_on_c, 2, 70, 60
3, 185808, Note_on_c, 2, 77, 60
3, 185854, Note_on_c, 2, 70, 0
3, 185854, Note_on_c, 2, 77, 0
3, 185856, Note_on_c, 2, 77, 57
3, 185902, Note_on_c, 2, 77, 0
3, 185904, Note_on_c, 2, 70, 54
3, 185904, Note_on_c, 2, 77, 54
3, 185950, Note_on_c, 2, 70, 0
3, 185950, Note_on_c, 2, 77, 0
3, 185952, Note_on_c, 2, 70, 51
3, 185952, Note_on_c, 2, 77, 51
3, 185998, Note_on_c, 2, 70, 0
3, 185998, Note_on_c, 2, 77, 0
3, 186000, Note_on_c, 2, 70, 48
3, 186000, Note_on_c, 2, 77, 48
3, 186046, Note_on_c, 2, 70, 0
3, 186046, Note_on_c, 2, 77, 0
3, 186048, Note_on_c, 2, 73, 92
3, 186048, Note_on_c, 2, 77, 92
3, 186094, Note_on_c, 2, 73, 0
3, 186094, Note_on_c, 2, 77, 0
3, 186096, Note_on_c, 2, 73, 92
3, 186096, Note_on_c, 2, 77, 92
3, 186142, Note_on_c, 2, 73, 0
3, 186142, Note_on_c, 2, 77, 0
3, 186144, Note_on_c, 2, 73, 92
3, 186144, Note_on_c, 2, 77, 92
3, 186190, Note_on_c, 2, 73, 0
3, 186190, Note_on_c, 2, 77, 0
3, 186192, Note_on_c, 2, 73, 92
3, 186192, Note_on_c, 2, 77, 92
3, 186238, Note_on_c, 2, 73, 0
3, 186238, Note_on_c, 2, 77, 0
3, 186240, Note_on_c, 2, 73, 92
3, 186240, Note_on_c, 2, 77, 92
3, 186286, Note_on_c, 2, 73, 0
3, 186286, Note_on_c, 2, 77, 0
3, 186288, Note_on_c, 2, 73, 92
3, 186288, Note_on_c, 2, 77, 92
3, 186334, Note_on_c, 2, 73, 0
3, 186334, Note_on_c, 2, 77, 0
3, 186336, Note_on_c, 2, 73, 92
3, 186336, Note_on_c, 2, 77, 92
3, 186382, Note_on_c, 2, 73, 0
3, 186382, Note_on_c, 2, 77, 0
3, 186384, Note_on_c, 2, 73, 92
3, 186384, Note_on_c, 2, 77, 92
3, 186430, Note_on_c, 2, 73, 0
3, 186430, Note_on_c, 2, 77, 0
3, 186432, Note_on_c, 2, 73, 92
3, 186432, Note_on_c, 2, 79, 92
3, 186478, Note_on_c, 2, 73, 0
3, 186478, Note_on_c, 2, 79, 0
3, 186480, Note_on_c, 2, 73, 92
3, 186480, Note_on_c, 2, 79, 92
3, 186526, Note_on_c, 2, 73, 0
3, 186526, Note_on_c, 2, 79, 0
3, 186528, Note_on_c, 2, 73, 92
3, 186528, Note_on_c, 2, 79, 92
3, 186574, Note_on_c, 2, 73, 0
3, 186574, Note_on_c, 2, 79, 0
3, 186576, Note_on_c, 2, 73, 92
3, 186576, Note_on_c, 2, 79, 92
3, 186622, Note_on_c, 2, 73, 0
3, 186622, Note_on_c, 2, 79, 0
3, 186624, Note_on_c, 2, 73, 92
3, 186624, Note_on_c, 2, 79, 92
3, 186670, Note_on_c, 2, 73, 0
3, 186670, Note_on_c, 2, 79, 0
3, 186672, Note_on_c, 2, 73, 92
3, 186672, Note_on_c, 2, 79, 92
3, 186718, Note_on_c, 2, 73, 0
3, 186718, Note_on_c, 2, 79, 0
3, 186720, Note_on_c, 2, 73, 92
3, 186720, Note_on_c, 2, 79, 92
3, 186766, Note_on_c, 2, 73, 0
3, 186766, Note_on_c, 2, 79, 0
3, 186768, Note_on_c, 2, 73, 92
3, 186768, Note_on_c, 2, 79, 92
3, 186814, Note_on_c, 2, 73, 0
3, 186814, Note_on_c, 2, 79, 0
3, 186816, Note_on_c, 2, 73, 92
3, 186816, Note_on_c, 2, 79, 92
3, 186862, Note_on_c, 2, 73, 0
3, 186862, Note_on_c, 2, 79, 0
3, 186864, Note_on_c, 2, 73, 87
3, 186864, Note_on_c, 2, 79, 87
3, 186910, Note_on_c, 2, 73, 0
3, 186910, Note_on_c, 2, 79, 0
3, 186912, Note_on_c, 2, 73, 81
3, 186912, Note_on_c, 2, 79, 81
3, 186958, Note_on_c, 2, 73, 0
3, 186958, Note_on_c, 2, 79, 0
3, 186960, Note_on_c, 2, 73, 75
3, 186960, Note_on_c, 2, 79, 75
3, 187006, Note_on_c, 2, 73, 0
3, 187006, Note_on_c, 2, 79, 0
3, 187008, Note_on_c, 2, 73, 69
3, 187008, Note_on_c, 2, 79, 69
3, 187054, Note_on_c, 2, 73, 0
3, 187054, Note_on_c, 2, 79, 0
3, 187056, Note_on_c, 2, 73, 63
3, 187056, Note_on_c, 2, 79, 63
3, 187102, Note_on_c, 2, 73, 0
3, 187102, Note_on_c, 2, 79, 0
3, 187104, Note_on_c, 2, 73, 57
3, 187104, Note_on_c, 2, 79, 57
3, 187150, Note_on_c, 2, 73, 0
3, 187150, Note_on_c, 2, 79, 0
3, 187152, Note_on_c, 2, 73, 51
3, 187152, Note_on_c, 2, 79, 51
3, 187198, Note_on_c, 2, 73, 0
3, 187198, Note_on_c, 2, 79, 0
3, 187200, Note_on_c, 2, 76, 92
3, 187200, Note_on_c, 2, 79, 92
3, 187246, Note_on_c, 2, 76, 0
3, 187246, Note_on_c, 2, 79, 0
3, 187248, Note_on_c, 2, 76, 92
3, 187248, Note_on_c, 2, 79, 92
3, 187294, Note_on_c, 2, 76, 0
3, 187294, Note_on_c, 2, 79, 0
3, 187296, Note_on_c, 2, 76, 92
3, 187296, Note_on_c, 2, 79, 92
3, 187342, Note_on_c, 2, 76, 0
3, 187342, Note_on_c, 2, 79, 0
3, 187344, Note_on_c, 2, 76, 92
3, 187344, Note_on_c, 2, 79, 92
3, 187390, Note_on_c, 2, 76, 0
3, 187390, Note_on_c, 2, 79, 0
3, 187392, Note_on_c, 2, 76, 92
3, 187392, Note_on_c, 2, 79, 92
3, 187438, Note_on_c, 2, 76, 0
3, 187438, Note_on_c, 2, 79, 0
3, 187440, Note_on_c, 2, 76, 92
3, 187440, Note_on_c, 2, 79, 92
3, 187486, Note_on_c, 2, 76, 0
3, 187486, Note_on_c, 2, 79, 0
3, 187488, Note_on_c, 2, 76, 92
3, 187488, Note_on_c, 2, 79, 92
3, 187534, Note_on_c, 2, 76, 0
3, 187534, Note_on_c, 2, 79, 0
3, 187536, Note_on_c, 2, 76, 92
3, 187536, Note_on_c, 2, 79, 92
3, 187582, Note_on_c, 2, 76, 0
3, 187582, Note_on_c, 2, 79, 0
3, 187584, Note_on_c, 2, 76, 92
3, 187584, Note_on_c, 2, 79, 92
3, 187630, Note_on_c, 2, 76, 0
3, 187630, Note_on_c, 2, 79, 0
3, 187632, Note_on_c, 2, 76, 92
3, 187632, Note_on_c, 2, 79, 92
3, 187678, Note_on_c, 2, 76, 0
3, 187678, Note_on_c, 2, 79, 0
3, 187680, Note_on_c, 2, 76, 92
3, 187680, Note_on_c, 2, 79, 92
3, 187726, Note_on_c, 2, 76, 0
3, 187726, Note_on_c, 2, 79, 0
3, 187728, Note_on_c, 2, 76, 92
3, 187728, Note_on_c, 2, 79, 92
3, 187774, Note_on_c, 2, 76, 0
3, 187774, Note_on_c, 2, 79, 0
3, 187776, Note_on_c, 2, 76, 92
3, 187776, Note_on_c, 2, 79, 92
3, 187822, Note_on_c, 2, 76, 0
3, 187822, Note_on_c, 2, 79, 0
3, 187824, Note_on_c, 2, 76, 92
3, 187824, Note_on_c, 2, 79, 92
3, 187870, Note_on_c, 2, 76, 0
3, 187870, Note_on_c, 2, 79, 0
3, 187872, Note_on_c, 2, 76, 92
3, 187872, Note_on_c, 2, 79, 92
3, 187918, Note_on_c, 2, 76, 0
3, 187918, Note_on_c, 2, 79, 0
3, 187920, Note_on_c, 2, 76, 92
3, 187920, Note_on_c, 2, 79, 92
3, 187966, Note_on_c, 2, 76, 0
3, 187966, Note_on_c, 2, 79, 0
3, 187968, Note_on_c, 2, 76, 92
3, 187968, Note_on_c, 2, 79, 92
3, 188128, Note_on_c, 2, 76, 0
3, 188128, Note_on_c, 2, 79, 0
3, 188736, Note_on_c, 2, 76, 92
3, 188736, Note_on_c, 2, 79, 92
3, 188782, Note_on_c, 2, 76, 0
3, 188782, Note_on_c, 2, 79, 0
3, 188784, Note_on_c, 2, 76, 92
3, 188784, Note_on_c, 2, 79, 92
3, 188830, Note_on_c, 2, 76, 0
3, 188830, Note_on_c, 2, 79, 0
3, 188832, Note_on_c, 2, 76, 92
3, 188832, Note_on_c, 2, 79, 92
3, 188878, Note_on_c, 2, 76, 0
3, 188878, Note_on_c, 2, 79, 0
3, 188880, Note_on_c, 2, 76, 92
3, 188880, Note_on_c, 2, 79, 92
3, 188926, Note_on_c, 2, 76, 0
3, 188926, Note_on_c, 2, 79, 0
3, 188928, Note_on_c, 2, 76, 92
3, 188928, Note_on_c, 2, 79, 92
3, 188974, Note_on_c, 2, 76, 0
3, 188974, Note_on_c, 2, 79, 0
3, 188976, Note_on_c, 2, 76, 92
3, 188976, Note_on_c, 2, 79, 92
3, 189022, Note_on_c, 2, 76, 0
3, 189022, Note_on_c, 2, 79, 0
3, 189024, Note_on_c, 2, 76, 92
3, 189024, Note_on_c, 2, 79, 92
3, 189070, Note_on_c, 2, 76, 0
3, 189070, Note_on_c, 2, 79, 0
3, 189072, Note_on_c, 2, 76, 92
3, 189072, Note_on_c, 2, 79, 92
3, 189118, Note_on_c, 2, 76, 0
3, 189118, Note_on_c, 2, 79, 0
3, 189120, Note_on_c, 2, 76, 92
3, 189120, Note_on_c, 2, 79, 92
3, 189280, Note_on_c, 2, 76, 0
3, 189280, Note_on_c, 2, 79, 0
3, 189888, Note_on_c, 2, 76, 92
3, 189888, Note_on_c, 2, 79, 92
3, 189934, Note_on_c, 2, 76, 0
3, 189934, Note_on_c, 2, 79, 0
3, 189936, Note_on_c, 2, 76, 91
3, 189936, Note_on_c, 2, 79, 91
3, 189982, Note_on_c, 2, 76, 0
3, 189982, Note_on_c, 2, 79, 0
3, 189984, Note_on_c, 2, 76, 90
3, 189984, Note_on_c, 2, 79, 90
3, 190030, Note_on_c, 2, 76, 0
3, 190030, Note_on_c, 2, 79, 0
3, 190032, Note_on_c, 2, 76, 89
3, 190032, Note_on_c, 2, 79, 89
3, 190078, Note_on_c, 2, 76, 0
3, 190078, Note_on_c, 2, 79, 0
3, 190080, Note_on_c, 2, 76, 88
3, 190080, Note_on_c, 2, 79, 88
3, 190126, Note_on_c, 2, 76, 0
3, 190126, Note_on_c, 2, 79, 0
3, 190128, Note_on_c, 2, 76, 87
3, 190128, Note_on_c, 2, 79, 87
3, 190174, Note_on_c, 2, 76, 0
3, 190174, Note_on_c, 2, 79, 0
3, 190176, Note_on_c, 2, 76, 86
3, 190176, Note_on_c, 2, 79, 86
3, 190222, Note_on_c, 2, 76, 0
3, 190222, Note_on_c, 2, 79, 0
3, 190224, Note_on_c, 2, 76, 85
3, 190224, Note_on_c, 2, 79, 85
3, 190270, Note_on_c, 2, 76, 0
3, 190270, Note_on_c, 2, 79, 0
3, 190272, Note_on_c, 2, 76, 84
3, 190272, Note_on_c, 2, 79, 84
3, 190432, Note_on_c, 2, 76, 0
3, 190432, Note_on_c, 2, 79, 0
3, 191040, Note_on_c, 2, 76, 63
3, 191040, Note_on_c, 2, 79, 63
3, 191086, Note_on_c, 2, 76, 0
3, 191086, Note_on_c, 2, 79, 0
3, 191088, Note_on_c, 2, 76, 62
3, 191088, Note_on_c, 2, 79, 62
3, 191134, Note_on_c, 2, 76, 0
3, 191134, Note_on_c, 2, 79, 0
3, 191136, Note_on_c, 2, 76, 61
3, 191136, Note_on_c, 2, 79, 61
3, 191182, Note_on_c, 2, 76, 0
3, 191182, Note_on_c, 2, 79, 0
3, 191184, Note_on_c, 2, 76, 60
3, 191184, Note_on_c, 2, 79, 60
3, 191230, Note_on_c, 2, 76, 0
3, 191230, Note_on_c, 2, 79, 0
3, 191232, Note_on_c, 2, 76, 59
3, 191232, Note_on_c, 2, 79, 59
3, 191278, Note_on_c, 2, 76, 0
3, 191278, Note_on_c, 2, 79, 0
3, 191280, Note_on_c, 2, 76, 58
3, 191280, Note_on_c, 2, 79, 58
3, 191326, Note_on_c, 2, 76, 0
3, 191326, Note_on_c, 2, 79, 0
3, 191328, Note_on_c, 2, 76, 57
3, 191328, Note_on_c, 2, 79, 57
3, 191374, Note_on_c, 2, 76, 0
3, 191374, Note_on_c, 2, 79, 0
3, 191376, Note_on_c, 2, 76, 55
3, 191376, Note_on_c, 2, 79, 55
3, 191422, Note_on_c, 2, 76, 0
3, 191422, Note_on_c, 2, 79, 0
3, 191424, Note_on_c, 2, 76, 53
3, 191424, Note_on_c, 2, 79, 53
3, 191584, Note_on_c, 2, 76, 0
3, 191584, Note_on_c, 2, 79, 0
3, 191616, Note_on_c, 2, 65, 45
3, 191776, Note_on_c, 2, 65, 0
3, 191808, Note_on_c, 2, 77, 45
3, 191904, Note_on_c, 2, 77, 0
3, 192192, Note_on_c, 2, 72, 45
3, 192288, Note_on_c, 2, 72, 0
3, 192768, Note_on_c, 2, 63, 45
3, 192928, Note_on_c, 2, 63, 0
3, 192960, Note_on_c, 2, 66, 51
3, 193056, Note_on_c, 2, 66, 0
3, 193344, Note_on_c, 2, 62, 64
3, 193440, Note_on_c, 2, 62, 0
3, 193920, Note_on_c, 2, 65, 85
3, 194080, Note_on_c, 2, 65, 0
3, 194112, Note_on_c, 2, 68, 92
3, 194208, Note_on_c, 2, 68, 0
3, 194496, Note_on_c, 2, 64, 92
3, 194592, Note_on_c, 2, 64, 0
3, 195264, Note_on_c, 2, 73, 92
3, 195310, Note_on_c, 2, 73, 0
3, 195312, Note_on_c, 2, 73, 91
3, 195358, Note_on_c, 2, 73, 0
3, 195360, Note_on_c, 2, 73, 89
3, 195406, Note_on_c, 2, 73, 0
3, 195408, Note_on_c, 2, 73, 87
3, 195454, Note_on_c, 2, 73, 0
3, 195456, Note_on_c, 2, 73, 85
3, 195616, Note_on_c, 2, 73, 0
3, 195648, Note_on_c, 2, 82, 77
3, 195694, Note_on_c, 2, 82, 0
3, 195696, Note_on_c, 2, 82, 75
3, 195742, Note_on_c, 2, 82, 0
3, 195744, Note_on_c, 2, 82, 73
3, 195790, Note_on_c, 2, 82, 0
3, 195792, Note_on_c, 2, 82, 71
3, 195838, Note_on_c, 2, 82, 0
3, 195840, Note_on_c, 2, 82, 69
3, 196000, Note_on_c, 2, 82, 0
3, 196032, Note_on_c, 2, 64, 61
3, 196078, Note_on_c, 2, 64, 0
3, 196080, Note_on_c, 2, 64, 59
3, 196126, Note_on_c, 2, 64, 0
3, 196128, Note_on_c, 2, 64, 57
3, 196174, Note_on_c, 2, 64, 0
3, 196176, Note_on_c, 2, 64, 55
3, 196222, Note_on_c, 2, 64, 0
3, 196224, Note_on_c, 2, 64, 53
3, 196320, Note_on_c, 2, 64, 0
3, 196320, Note_on_c, 2, 57, 49
3, 196414, Note_on_c, 2, 57, 0
3, 196416, Note_on_c, 2, 55, 45
3, 196608, Note_on_c, 2, 55, 0
3, 196608, Note_on_c, 2, 60, 45
3, 196768, Note_on_c, 2, 60, 0
3, 196800, Note_on_c, 2, 60, 45
3, 196992, Note_on_c, 2, 60, 0
3, 196992, Note_on_c, 2, 64, 45
3, 197152, Note_on_c, 2, 64, 0
3, 197184, Note_on_c, 2, 55, 45
3, 197376, Note_on_c, 2, 55, 0
3, 197376, Note_on_c, 2, 60, 45
3, 197536, Note_on_c, 2, 60, 0
3, 197568, Note_on_c, 2, 60, 45
3, 197760, Note_on_c, 2, 60, 0
3, 197760, Note_on_c, 2, 65, 45
3, 197920, Note_on_c, 2, 65, 0
3, 197952, Note_on_c, 2, 60, 45
3, 198144, Note_on_c, 2, 60, 0
3, 198144, Note_on_c, 2, 65, 45
3, 198336, Note_on_c, 2, 65, 0
3, 198336, Note_on_c, 2, 60, 45
3, 198528, Note_on_c, 2, 60, 0
3, 198528, Note_on_c, 2, 57, 45
3, 198720, Note_on_c, 2, 57, 0
3, 198720, Note_on_c, 2, 55, 45
3, 198912, Note_on_c, 2, 55, 0
3, 198912, Note_on_c, 2, 58, 45
3, 199104, Note_on_c, 2, 58, 0
3, 199104, Note_on_c, 2, 57, 45
3, 199264, Note_on_c, 2, 57, 0
3, 199296, Note_on_c, 2, 69, 92
3, 199344, Note_on_c, 2, 69, 0
3, 199488, Note_on_c, 2, 72, 127
3, 199824, Note_on_c, 2, 72, 0
3, 199872, Note_on_c, 2, 67, 92
3, 199920, Note_on_c, 2, 67, 0
3, 200064, Note_on_c, 2, 67, 92
3, 200112, Note_on_c, 2, 67, 0
3, 200256, Note_on_c, 2, 70, 127
3, 200592, Note_on_c, 2, 70, 0
3, 200640, Note_on_c, 2, 65, 92
3, 200800, Note_on_c, 2, 65, 0
3, 200832, Note_on_c, 2, 65, 92
3, 200832, Note_on_c, 2, 74, 92
3, 200992, Note_on_c, 2, 65, 0
3, 200992, Note_on_c, 2, 74, 0
3, 201024, Note_on_c, 2, 72, 92
3, 201216, Note_on_c, 2, 72, 0
3, 201216, Note_on_c, 2, 70, 92
3, 201376, Note_on_c, 2, 70, 0
3, 201408, Note_on_c, 2, 69, 92
3, 201456, Note_on_c, 2, 69, 0
3, 201600, Note_on_c, 2, 65, 92
3, 201600, Note_on_c, 2, 70, 92
3, 201648, Note_on_c, 2, 65, 0
3, 201648, Note_on_c, 2, 70, 0
3, 201792, Note_on_c, 2, 65, 92
3, 201792, Note_on_c, 2, 72, 92
3, 201984, Note_on_c, 2, 72, 0
3, 201984, Note_on_c, 2, 69, 92
3, 202128, Note_on_c, 2, 65, 0
3, 202144, Note_on_c, 2, 69, 0
3, 202176, Note_on_c, 2, 62, 92
3, 202176, Note_on_c, 2, 70, 92
3, 202336, Note_on_c, 2, 62, 0
3, 202336, Note_on_c, 2, 70, 0
3, 202368, Note_on_c, 2, 62, 92
3, 202528, Note_on_c, 2, 62, 0
3, 202560, Note_on_c, 2, 66, 92
3, 202752, Note_on_c, 2, 66, 0
3, 202752, Note_on_c, 2, 67, 92
3, 202912, Note_on_c, 2, 67, 0
3, 202944, Note_on_c, 2, 72, 92
3, 202992, Note_on_c, 2, 72, 0
3, 203136, Note_on_c, 2, 72, 92
3, 203184, Note_on_c, 2, 72, 0
3, 203328, Note_on_c, 2, 66, 92
3, 203520, Note_on_c, 2, 66, 0
3, 203520, Note_on_c, 2, 69, 92
3, 203680, Note_on_c, 2, 69, 0
3, 203712, Note_on_c, 2, 70, 92
3, 203760, Note_on_c, 2, 70, 0
3, 203904, Note_on_c, 2, 69, 92
3, 203952, Note_on_c, 2, 69, 0
3, 204096, Note_on_c, 2, 67, 127
3, 204288, Note_on_c, 2, 67, 0
3, 204288, Note_on_c, 2, 65, 92
3, 204448, Note_on_c, 2, 65, 0
3, 204480, Note_on_c, 2, 67, 92
3, 204528, Note_on_c, 2, 67, 0
3, 204672, Note_on_c, 2, 67, 92
3, 204720, Note_on_c, 2, 67, 0
3, 204864, Note_on_c, 2, 65, 127
3, 205056, Note_on_c, 2, 65, 0
3, 205056, Note_on_c, 2, 64, 92
3, 205216, Note_on_c, 2, 64, 0
3, 205248, Note_on_c, 2, 65, 92
3, 205296, Note_on_c, 2, 65, 0
3, 205440, Note_on_c, 2, 65, 92
3, 205488, Note_on_c, 2, 65, 0
3, 205632, Note_on_c, 2, 65, 127
3, 205824, Note_on_c, 2, 65, 0
3, 205824, Note_on_c, 2, 62, 92
3, 205984, Note_on_c, 2, 62, 0
3, 206016, Note_on_c, 2, 63, 92
3, 206064, Note_on_c, 2, 63, 0
3, 206208, Note_on_c, 2, 63, 92
3, 206256, Note_on_c, 2, 63, 0
3, 206400, Note_on_c, 2, 63, 127
3, 206592, Note_on_c, 2, 63, 0
3, 206592, Note_on_c, 2, 60, 92
3, 206752, Note_on_c, 2, 60, 0
3, 206784, Note_on_c, 2, 62, 92
3, 206832, Note_on_c, 2, 62, 0
3, 206976, Note_on_c, 2, 62, 92
3, 207024, Note_on_c, 2, 62, 0
3, 207168, Note_on_c, 2, 65, 92
3, 207328, Note_on_c, 2, 65, 0
3, 207744, Note_on_c, 2, 65, 92
3, 207904, Note_on_c, 2, 65, 0
3, 207936, Note_on_c, 2, 65, 92
3, 208096, Note_on_c, 2, 65, 0
3, 208512, Note_on_c, 2, 65, 92
3, 208672, Note_on_c, 2, 65, 0
3, 208704, Note_on_c, 2, 70, 92
3, 208864, Note_on_c, 2, 70, 0
3, 209280, Note_on_c, 2, 70, 92
3, 209440, Note_on_c, 2, 70, 0
3, 209472, Note_on_c, 2, 70, 92
3, 209632, Note_on_c, 2, 70, 0
3, 209856, Note_on_c, 2, 70, 92
3, 210016, Note_on_c, 2, 70, 0
3, 210240, Note_on_c, 2, 70, 92
3, 210400, Note_on_c, 2, 70, 0
3, 210816, Note_on_c, 2, 58, 92
3, 210976, Note_on_c, 2, 58, 0
3, 211008, Note_on_c, 2, 63, 92
3, 211168, Note_on_c, 2, 63, 0
3, 211584, Note_on_c, 2, 69, 92
3, 211744, Note_on_c, 2, 69, 0
3, 211776, Note_on_c, 2, 74, 92
3, 211936, Note_on_c, 2, 74, 0
3, 212352, Note_on_c, 2, 70, 92
3, 212512, Note_on_c, 2, 70, 0
3, 213312, Note_on_c, 2, 62, 92
3, 213360, Note_on_c, 2, 62, 0
3, 213504, Note_on_c, 2, 70, 92
3, 213552, Note_on_c, 2, 70, 0
3, 213696, Note_on_c, 2, 69, 92
3, 213744, Note_on_c, 2, 69, 0
3, 217344, Note_on_c, 2, 69, 45
3, 217536, Note_on_c, 2, 69, 0
3, 217536, Note_on_c, 2, 67, 45
3, 217728, Note_on_c, 2, 67, 0
3, 217728, Note_on_c, 2, 66, 45
3, 217920, Note_on_c, 2, 66, 0
3, 217920, Note_on_c, 2, 67, 45
3, 218112, Note_on_c, 2, 67, 0
3, 218112, Note_on_c, 2, 69, 45
3, 218304, Note_on_c, 2, 69, 0
3, 218304, Note_on_c, 2, 71, 45
3, 218848, Note_on_c, 2, 71, 0
3, 218880, Note_on_c, 2, 71, 45
3, 219072, Note_on_c, 2, 71, 0
3, 219072, Note_on_c, 2, 69, 45
3, 219264, Note_on_c, 2, 69, 0
3, 219264, Note_on_c, 2, 67, 45
3, 219456, Note_on_c, 2, 67, 0
3, 219456, Note_on_c, 2, 66, 45
3, 219648, Note_on_c, 2, 66, 0
3, 219648, Note_on_c, 2, 64, 45
3, 219840, Note_on_c, 2, 64, 0
3, 220032, Note_on_c, 2, 67, 45
3, 220192, Note_on_c, 2, 67, 0
3, 220224, Note_on_c, 2, 59, 45
3, 220416, Note_on_c, 2, 59, 0
3, 220416, Note_on_c, 2, 57, 45
3, 220608, Note_on_c, 2, 57, 0
3, 220608, Note_on_c, 2, 59, 45
3, 220800, Note_on_c, 2, 59, 0
3, 220800, Note_on_c, 2, 61, 45
3, 220992, Note_on_c, 2, 61, 0
3, 220992, Note_on_c, 2, 62, 45
3, 221184, Note_on_c, 2, 62, 0
3, 221184, Note_on_c, 2, 61, 45
3, 221376, Note_on_c, 2, 61, 0
3, 221376, Note_on_c, 2, 62, 45
3, 221568, Note_on_c, 2, 62, 0
3, 221568, Note_on_c, 2, 64, 45
3, 221728, Note_on_c, 2, 64, 0
3, 222528, Note_on_c, 2, 57, 45
3, 222720, Note_on_c, 2, 57, 0
3, 222720, Note_on_c, 2, 69, 45
3, 222912, Note_on_c, 2, 69, 0
3, 222912, Note_on_c, 2, 72, 45
3, 223104, Note_on_c, 2, 72, 0
3, 223104, Note_on_c, 2, 70, 45
3, 223296, Note_on_c, 2, 70, 0
3, 223296, Note_on_c, 2, 69, 45
3, 223488, Note_on_c, 2, 69, 0
3, 223488, Note_on_c, 2, 70, 45
3, 223680, Note_on_c, 2, 70, 0
3, 223680, Note_on_c, 2, 69, 45
3, 223872, Note_on_c, 2, 69, 0
3, 223872, Note_on_c, 2, 70, 45
3, 224032, Note_on_c, 2, 70, 0
3, 224064, Note_on_c, 2, 72, 45
3, 224448, Note_on_c, 2, 72, 0
3, 224448, Note_on_c, 2, 70, 45
3, 224640, Note_on_c, 2, 70, 0
3, 224640, Note_on_c, 2, 69, 45
3, 224832, Note_on_c, 2, 69, 0
3, 224832, Note_on_c, 2, 65, 45
3, 225024, Note_on_c, 2, 65, 0
3, 225024, Note_on_c, 2, 63, 45
3, 225216, Note_on_c, 2, 63, 0
3, 225216, Note_on_c, 2, 62, 45
3, 225408, Note_on_c, 2, 62, 0
3, 225408, Note_on_c, 2, 63, 45
3, 225568, Note_on_c, 2, 63, 0
3, 225600, Note_on_c, 2, 65, 45
3, 226128, Note_on_c, 2, 65, 0
3, 226176, Note_on_c, 2, 65, 45
3, 226368, Note_on_c, 2, 65, 0
3, 226368, Note_on_c, 2, 63, 45
3, 226560, Note_on_c, 2, 63, 0
3, 226560, Note_on_c, 2, 62, 47
3, 226752, Note_on_c, 2, 62, 0
3, 226752, Note_on_c, 2, 60, 49
3, 226944, Note_on_c, 2, 60, 0
3, 226944, Note_on_c, 2, 58, 51
3, 227104, Note_on_c, 2, 58, 0
3, 227136, Note_on_c, 2, 58, 53
3, 227664, Note_on_c, 2, 58, 0
3, 227712, Note_on_c, 2, 60, 61
3, 228096, Note_on_c, 2, 60, 0
3, 228096, Note_on_c, 2, 64, 66
3, 228288, Note_on_c, 2, 64, 0
3, 228288, Note_on_c, 2, 65, 69
3, 228480, Note_on_c, 2, 65, 0
3, 228480, Note_on_c, 2, 67, 72
3, 228640, Note_on_c, 2, 67, 0
3, 228672, Note_on_c, 2, 60, 45
3, 228832, Note_on_c, 2, 60, 0
3, 229440, Note_on_c, 2, 77, 45
3, 229632, Note_on_c, 2, 77, 0
3, 229632, Note_on_c, 2, 81, 45
3, 229824, Note_on_c, 2, 81, 0
3, 229824, Note_on_c, 2, 77, 45
3, 230016, Note_on_c, 2, 77, 0
3, 230016, Note_on_c, 2, 84, 45
3, 230176, Note_on_c, 2, 84, 0
3, 230976, Note_on_c, 2, 58, 45
3, 231168, Note_on_c, 2, 58, 0
3, 231168, Note_on_c, 2, 64, 45
3, 231360, Note_on_c, 2, 64, 0
3, 231360, Note_on_c, 2, 60, 45
3, 231552, Note_on_c, 2, 60, 0
3, 231552, Note_on_c, 2, 64, 45
3, 231712, Note_on_c, 2, 64, 0
3, 232512, Note_on_c, 2, 77, 45
3, 232704, Note_on_c, 2, 77, 0
3, 232704, Note_on_c, 2, 81, 45
3, 232896, Note_on_c, 2, 81, 0
3, 232896, Note_on_c, 2, 77, 45
3, 233088, Note_on_c, 2, 77, 0
3, 233088, Note_on_c, 2, 84, 45
3, 233248, Note_on_c, 2, 84, 0
3, 234048, Note_on_c, 2, 69, 45
3, 234240, Note_on_c, 2, 69, 0
3, 234240, Note_on_c, 2, 77, 45
3, 234432, Note_on_c, 2, 77, 0
3, 234432, Note_on_c, 2, 72, 45
3, 234624, Note_on_c, 2, 72, 0
3, 234624, Note_on_c, 2, 77, 45
3, 234784, Note_on_c, 2, 77, 0
3, 235584, Note_on_c, 2, 60, 45
3, 235776, Note_on_c, 2, 60, 0
3, 235776, Note_on_c, 2, 69, 52
3, 235968, Note_on_c, 2, 69, 0
3, 235968, Note_on_c, 2, 65, 59
3, 236160, Note_on_c, 2, 65, 0
3, 236160, Note_on_c, 2, 72, 67
3, 236320, Note_on_c, 2, 72, 0
3, 236352, Note_on_c, 2, 65, 45
3, 236544, Note_on_c, 2, 65, 0
3, 236544, Note_on_c, 2, 72, 45
3, 236736, Note_on_c, 2, 72, 0
3, 236736, Note_on_c, 2, 69, 45
3, 236928, Note_on_c, 2, 69, 0
3, 236928, Note_on_c, 2, 77, 45
3, 237088, Note_on_c, 2, 77, 0
3, 237120, Note_on_c, 2, 64, 45
3, 237312, Note_on_c, 2, 64, 0
3, 237312, Note_on_c, 2, 72, 45
3, 237504, Note_on_c, 2, 72, 0
3, 237504, Note_on_c, 2, 70, 45
3, 237696, Note_on_c, 2, 70, 0
3, 237696, Note_on_c, 2, 76, 45
3, 237856, Note_on_c, 2, 76, 0
3, 237888, Note_on_c, 2, 69, 45
3, 238048, Note_on_c, 2, 69, 0
3, 238656, Note_on_c, 2, 57, 59
3, 238848, Note_on_c, 2, 57, 0
3, 238848, Note_on_c, 2, 65, 63
3, 239008, Note_on_c, 2, 65, 0
3, 239040, Note_on_c, 2, 65, 67
3, 239232, Note_on_c, 2, 65, 0
3, 239232, Note_on_c, 2, 69, 71
3, 239392, Note_on_c, 2, 69, 0
3, 239424, Note_on_c, 2, 65, 45
3, 239616, Note_on_c, 2, 65, 0
3, 239616, Note_on_c, 2, 69, 45
3, 239808, Note_on_c, 2, 69, 0
3, 239808, Note_on_c, 2, 65, 45
3, 240000, Note_on_c, 2, 65, 0
3, 240000, Note_on_c, 2, 72, 45
3, 240160, Note_on_c, 2, 72, 0
3, 240192, Note_on_c, 2, 69, 45
3, 240384, Note_on_c, 2, 69, 0
3, 240384, Note_on_c, 2, 72, 45
3, 240576, Note_on_c, 2, 72, 0
3, 240576, Note_on_c, 2, 69, 45
3, 240736, Note_on_c, 2, 69, 0
3, 240768, Note_on_c, 2, 69, 45
3, 240816, Note_on_c, 2, 69, 0
3, 240960, Note_on_c, 2, 72, 47
3, 241056, Note_on_c, 2, 72, 0
3, 241344, Note_on_c, 2, 67, 51
3, 241440, Note_on_c, 2, 67, 0
3, 242304, Note_on_c, 2, 67, 61
3, 242464, Note_on_c, 2, 67, 0
3, 242496, Note_on_c, 2, 70, 63
3, 242592, Note_on_c, 2, 70, 0
3, 242880, Note_on_c, 2, 65, 68
3, 242976, Note_on_c, 2, 65, 0
3, 244608, Note_on_c, 2, 57, 92
3, 244768, Note_on_c, 2, 57, 0
3, 244800, Note_on_c, 2, 60, 92
3, 244896, Note_on_c, 2, 60, 0
3, 245184, Note_on_c, 2, 55, 94
3, 245280, Note_on_c, 2, 55, 0
3, 246144, Note_on_c, 2, 58, 101
3, 246304, Note_on_c, 2, 58, 0
3, 246336, Note_on_c, 2, 62, 102
3, 246432, Note_on_c, 2, 62, 0
3, 246720, Note_on_c, 2, 57, 106
3, 246768, Note_on_c, 2, 57, 0
3, 246912, Note_on_c, 2, 60, 108
3, 247072, Note_on_c, 2, 60, 0
3, 247104, Note_on_c, 2, 60, 108
3, 247264, Note_on_c, 2, 60, 0
3, 247296, Note_on_c, 2, 70, 108
3, 247456, Note_on_c, 2, 70, 0
3, 247488, Note_on_c, 2, 70, 108
3, 247648, Note_on_c, 2, 70, 0
3, 247680, Note_on_c, 2, 70, 108
3, 247840, Note_on_c, 2, 70, 0
3, 247872, Note_on_c, 2, 72, 108
3, 248032, Note_on_c, 2, 72, 0
3, 248064, Note_on_c, 2, 72, 108
3, 248224, Note_on_c, 2, 72, 0
3, 248256, Note_on_c, 2, 69, 108
3, 248416, Note_on_c, 2, 69, 0
3, 248448, Note_on_c, 2, 72, 108
3, 248608, Note_on_c, 2, 72, 0
3, 248640, Note_on_c, 2, 69, 108
3, 248640, Note_on_c, 2, 84, 108
3, 248976, Note_on_c, 2, 69, 0
3, 248976, Note_on_c, 2, 84, 0
3, 249024, Note_on_c, 2, 67, 108
3, 249024, Note_on_c, 2, 70, 108
3, 249360, Note_on_c, 2, 67, 0
3, 249360, Note_on_c, 2, 70, 0
3, 249408, Note_on_c, 2, 65, 108
3, 249408, Note_on_c, 2, 69, 108
3, 249568, Note_on_c, 2, 65, 0
3, 249568, Note_on_c, 2, 69, 0
3, 249984, Note_on_c, 2, 57, 92
3, 250144, Note_on_c, 2, 57, 0
3, 250176, Note_on_c, 2, 60, 127
3, 250512, Note_on_c, 2, 60, 0
3, 250560, Note_on_c, 2, 56, 92
3, 250720, Note_on_c, 2, 56, 0
3, 250752, Note_on_c, 2, 60, 92
3, 250912, Note_on_c, 2, 60, 0
3, 250944, Note_on_c, 2, 64, 127
3, 251280, Note_on_c, 2, 64, 0
3, 251328, Note_on_c, 2, 59, 92
3, 251488, Note_on_c, 2, 59, 0
3, 251520, Note_on_c, 2, 64, 92
3, 251680, Note_on_c, 2, 64, 0
3, 251712, Note_on_c, 2, 67, 127
3, 252048, Note_on_c, 2, 67, 0
3, 252096, Note_on_c, 2, 62, 92
3, 252256, Note_on_c, 2, 62, 0
3, 253056, Note_on_c, 2, 62, 92
3, 253216, Note_on_c, 2, 62, 0
3, 253248, Note_on_c, 2, 65, 127
3, 253584, Note_on_c, 2, 65, 0
3, 253632, Note_on_c, 2, 60, 92
3, 253968, Note_on_c, 2, 60, 0
3, 254208, Note_on_c, 2, 76, 45
3, 254400, Note_on_c, 2, 76, 0
3, 254400, Note_on_c, 2, 74, 45
3, 254592, Note_on_c, 2, 74, 0
3, 254592, Note_on_c, 2, 72, 45
3, 254784, Note_on_c, 2, 72, 0
3, 254784, Note_on_c, 2, 71, 45
3, 254976, Note_on_c, 2, 71, 0
3, 254976, Note_on_c, 2, 72, 45
3, 255168, Note_on_c, 2, 72, 0
3, 255168, Note_on_c, 2, 74, 45
3, 255504, Note_on_c, 2, 74, 0
3, 255744, Note_on_c, 2, 62, 45
3, 255936, Note_on_c, 2, 62, 0
3, 255936, Note_on_c, 2, 60, 45
3, 256128, Note_on_c, 2, 60, 0
3, 256128, Note_on_c, 2, 59, 45
3, 256320, Note_on_c, 2, 59, 0
3, 256320, Note_on_c, 2, 57, 45
3, 256512, Note_on_c, 2, 57, 0
3, 256512, Note_on_c, 2, 59, 45
3, 256704, Note_on_c, 2, 59, 0
3, 256896, Note_on_c, 2, 62, 45
3, 257088, Note_on_c, 2, 62, 0
3, 257088, Note_on_c, 2, 64, 45
3, 257280, Note_on_c, 2, 64, 0
3, 257280, Note_on_c, 2, 62, 45
3, 257472, Note_on_c, 2, 62, 0
3, 257472, Note_on_c, 2, 60, 45
3, 257632, Note_on_c, 2, 60, 0
3, 257664, Note_on_c, 2, 72, 45
3, 258016, Note_on_c, 2, 72, 0
3, 258048, Note_on_c, 2, 76, 45
3, 258240, Note_on_c, 2, 76, 0
3, 258240, Note_on_c, 2, 74, 45
3, 258432, Note_on_c, 2, 74, 0
3, 258432, Note_on_c, 2, 72, 45
3, 258624, Note_on_c, 2, 72, 0
3, 258624, Note_on_c, 2, 71, 45
3, 258816, Note_on_c, 2, 71, 0
3, 258816, Note_on_c, 2, 72, 45
3, 259008, Note_on_c, 2, 72, 0
3, 259008, Note_on_c, 2, 74, 45
3, 259168, Note_on_c, 2, 74, 0
3, 259200, Note_on_c, 2, 69, 45
3, 259392, Note_on_c, 2, 69, 0
3, 259392, Note_on_c, 2, 68, 45
3, 259584, Note_on_c, 2, 68, 0
3, 259584, Note_on_c, 2, 71, 45
3, 259776, Note_on_c, 2, 71, 0
3, 259776, Note_on_c, 2, 69, 45
3, 259968, Note_on_c, 2, 69, 0
3, 259968, Note_on_c, 2, 74, 45
3, 260160, Note_on_c, 2, 74, 0
3, 260160, Note_on_c, 2, 72, 45
3, 260352, Note_on_c, 2, 72, 0
3, 260352, Note_on_c, 2, 74, 45
3, 260544, Note_on_c, 2, 74, 0
3, 260544, Note_on_c, 2, 76, 45
3, 260736, Note_on_c, 2, 76, 0
3, 260736, Note_on_c, 2, 77, 45
3, 260896, Note_on_c, 2, 77, 0
3, 260928, Note_on_c, 2, 76, 45
3, 261088, Note_on_c, 2, 76, 0
3, 261312, Note_on_c, 2, 76, 45
3, 261472, Note_on_c, 2, 76, 0
3, 262272, Note_on_c, 2, 60, 45
3, 262272, Note_on_c, 2, 67, 45
3, 262432, Note_on_c, 2, 60, 0
3, 262432, Note_on_c, 2, 67, 0
3, 262464, Note_on_c, 2, 70, 45
3, 262560, Note_on_c, 2, 70, 0
3, 262848, Note_on_c, 2, 65, 45
3, 262944, Note_on_c, 2, 65, 0
3, 263808, Note_on_c, 2, 65, 45
3, 263856, Note_on_c, 2, 65, 0
3, 264000, Note_on_c, 2, 69, 45
3, 264096, Note_on_c, 2, 69, 0
3, 264384, Note_on_c, 2, 64, 45
3, 264432, Note_on_c, 2, 64, 0
3, 264576, Note_on_c, 2, 64, 45
3, 264624, Note_on_c, 2, 64, 0
3, 264768, Note_on_c, 2, 65, 45
3, 264864, Note_on_c, 2, 65, 0
3, 265152, Note_on_c, 2, 62, 45
3, 265200, Note_on_c, 2, 62, 0
3, 265344, Note_on_c, 2, 77, 45
3, 265536, Note_on_c, 2, 77, 0
3, 265536, Note_on_c, 2, 73, 45
3, 265728, Note_on_c, 2, 73, 0
3, 265728, Note_on_c, 2, 74, 45
3, 265920, Note_on_c, 2, 74, 0
3, 265920, Note_on_c, 2, 76, 45
3, 265968, Note_on_c, 2, 76, 0
3, 266112, Note_on_c, 2, 70, 45
3, 266304, Note_on_c, 2, 70, 0
3, 266304, Note_on_c, 2, 69, 45
3, 266832, Note_on_c, 2, 69, 0
3, 266880, Note_on_c, 2, 67, 45
3, 267072, Note_on_c, 2, 67, 0
3, 267072, Note_on_c, 2, 65, 30
3, 267264, Note_on_c, 2, 65, 0
3, 267264, Note_on_c, 2, 67, 30
3, 267456, Note_on_c, 2, 67, 0
3, 267456, Note_on_c, 2, 65, 30
3, 267648, Note_on_c, 2, 65, 0
3, 267648, Note_on_c, 2, 64, 30
3, 267840, Note_on_c, 2, 64, 0
3, 267840, Note_on_c, 2, 67, 30
3, 268032, Note_on_c, 2, 67, 0
3, 268032, Note_on_c, 2, 65, 30
3, 268224, Note_on_c, 2, 65, 0
3, 268224, Note_on_c, 2, 64, 30
3, 268416, Note_on_c, 2, 64, 0
3, 268416, Note_on_c, 2, 62, 30
3, 268608, Note_on_c, 2, 62, 0
3, 268608, Note_on_c, 2, 61, 30
3, 268800, Note_on_c, 2, 61, 0
3, 268800, Note_on_c, 2, 62, 30
3, 268992, Note_on_c, 2, 62, 0
3, 268992, Note_on_c, 2, 64, 30
3, 269184, Note_on_c, 2, 64, 0
3, 269184, Note_on_c, 2, 65, 30
3, 269376, Note_on_c, 2, 65, 0
3, 269376, Note_on_c, 2, 64, 30
3, 269568, Note_on_c, 2, 64, 0
3, 269568, Note_on_c, 2, 65, 30
3, 269760, Note_on_c, 2, 65, 0
3, 269760, Note_on_c, 2, 67, 30
3, 269952, Note_on_c, 2, 67, 0
3, 269952, Note_on_c, 2, 69, 30
3, 270112, Note_on_c, 2, 69, 0
3, 270144, Note_on_c, 2, 66, 45
3, 270144, Note_on_c, 2, 69, 45
3, 270192, Note_on_c, 2, 66, 0
3, 270192, Note_on_c, 2, 69, 0
3, 270528, Note_on_c, 2, 66, 45
3, 270688, Note_on_c, 2, 66, 0
3, 270912, Note_on_c, 2, 66, 45
3, 271072, Note_on_c, 2, 66, 0
3, 271296, Note_on_c, 2, 67, 45
3, 271456, Note_on_c, 2, 67, 0
3, 271680, Note_on_c, 2, 66, 45
3, 272064, Note_on_c, 2, 66, 0
3, 272064, Note_on_c, 2, 73, 45
3, 272256, Note_on_c, 2, 73, 0
3, 272256, Note_on_c, 2, 74, 45
3, 272416, Note_on_c, 2, 74, 0
3, 272448, Note_on_c, 2, 73, 45
3, 273168, Note_on_c, 2, 73, 0
3, 273216, Note_on_c, 2, 69, 45
3, 273376, Note_on_c, 2, 69, 0
3, 273600, Note_on_c, 2, 66, 45
3, 273760, Note_on_c, 2, 66, 0
3, 273984, Note_on_c, 2, 66, 45
3, 274144, Note_on_c, 2, 66, 0
3, 274368, Note_on_c, 2, 67, 45
3, 274528, Note_on_c, 2, 67, 0
3, 274752, Note_on_c, 2, 67, 45
3, 274912, Note_on_c, 2, 67, 0
3, 275136, Note_on_c, 2, 67, 45
3, 275296, Note_on_c, 2, 67, 0
3, 275520, Note_on_c, 2, 66, 45
3, 276240, Note_on_c, 2, 66, 0
3, 276288, Note_on_c, 2, 78, 45
3, 276448, Note_on_c, 2, 78, 0
3, 276672, Note_on_c, 2, 78, 51
3, 276832, Note_on_c, 2, 78, 0
3, 277056, Note_on_c, 2, 78, 59
3, 277216, Note_on_c, 2, 78, 0
3, 277440, Note_on_c, 2, 79, 67
3, 277600, Note_on_c, 2, 79, 0
3, 277824, Note_on_c, 2, 79, 45
3, 277984, Note_on_c, 2, 79, 0
3, 278208, Note_on_c, 2, 78, 45
3, 278368, Note_on_c, 2, 78, 0
3, 278592, Note_on_c, 2, 76, 45
3, 278752, Note_on_c, 2, 76, 0
3, 278976, Note_on_c, 2, 74, 59
3, 279136, Note_on_c, 2, 74, 0
3, 279360, Note_on_c, 2, 74, 45
3, 280080, Note_on_c, 2, 74, 0
3, 280128, Note_on_c, 2, 69, 45
3, 280288, Note_on_c, 2, 69, 0
3, 280512, Note_on_c, 2, 69, 59
3, 280672, Note_on_c, 2, 69, 0
3, 280896, Note_on_c, 2, 69, 45
3, 281616, Note_on_c, 2, 69, 0
3, 281664, Note_on_c, 2, 69, 45
3, 281824, Note_on_c, 2, 69, 0
3, 282048, Note_on_c, 2, 69, 59
3, 282208, Note_on_c, 2, 69, 0
3, 282432, Note_on_c, 2, 69, 45
3, 283920, Note_on_c, 2, 69, 0
3, 283968, Note_on_c, 2, 71, 45
3, 285120, Note_on_c, 2, 71, 0
3, 285120, Note_on_c, 2, 70, 45
3, 285456, Note_on_c, 2, 70, 0
3, 285504, Note_on_c, 2, 69, 30
3, 285696, Note_on_c, 2, 69, 0
3, 285696, Note_on_c, 2, 67, 30
3, 285888, Note_on_c, 2, 67, 0
3, 285888, Note_on_c, 2, 69, 30
3, 286080, Note_on_c, 2, 69, 0
3, 286080, Note_on_c, 2, 64, 30
3, 286272, Note_on_c, 2, 64, 0
3, 286272, Note_on_c, 2, 66, 30
3, 286464, Note_on_c, 2, 66, 0
3, 286464, Note_on_c, 2, 67, 30
3, 286656, Note_on_c, 2, 67, 0
3, 286656, Note_on_c, 2, 69, 30
3, 286848, Note_on_c, 2, 69, 0
3, 286848, Note_on_c, 2, 63, 30
3, 287040, Note_on_c, 2, 63, 0
3, 287040, Note_on_c, 2, 62, 30
3, 287232, Note_on_c, 2, 62, 0
3, 287232, Note_on_c, 2, 69, 30
3, 287424, Note_on_c, 2, 69, 0
3, 287424, Note_on_c, 2, 62, 30
3, 287616, Note_on_c, 2, 62, 0
3, 287616, Note_on_c, 2, 60, 30
3, 287808, Note_on_c, 2, 60, 0
3, 287808, Note_on_c, 2, 58, 30
3, 288000, Note_on_c, 2, 58, 0
3, 288000, Note_on_c, 2, 57, 30
3, 288192, Note_on_c, 2, 57, 0
3, 288192, Note_on_c, 2, 55, 30
3, 288384, Note_on_c, 2, 55, 0
3, 288384, Note_on_c, 2, 57, 30
3, 288544, Note_on_c, 2, 57, 0
3, 288576, Note_on_c, 2, 58, 30
3, 288768, Note_on_c, 2, 58, 0
3, 288768, Note_on_c, 2, 55, 30
3, 288960, Note_on_c, 2, 55, 0
3, 288960, Note_on_c, 2, 67, 30
3, 289152, Note_on_c, 2, 67, 0
3, 289152, Note_on_c, 2, 65, 30
3, 289344, Note_on_c, 2, 65, 0
3, 289344, Note_on_c, 2, 64, 30
3, 289536, Note_on_c, 2, 64, 0
3, 289536, Note_on_c, 2, 65, 30
3, 289728, Note_on_c, 2, 65, 0
3, 289728, Note_on_c, 2, 67, 30
3, 289920, Note_on_c, 2, 67, 0
3, 289920, Note_on_c, 2, 65, 30
3, 290080, Note_on_c, 2, 65, 0
3, 290112, Note_on_c, 2, 64, 30
3, 290272, Note_on_c, 2, 64, 0
3, 290496, Note_on_c, 2, 60, 30
3, 290688, Note_on_c, 2, 60, 0
3, 290688, Note_on_c, 2, 61, 30
3, 290848, Note_on_c, 2, 61, 0
3, 290880, Note_on_c, 2, 61, 30
3, 291040, Note_on_c, 2, 61, 0
3, 291264, Note_on_c, 2, 58, 30
3, 291456, Note_on_c, 2, 58, 0
3, 291456, Note_on_c, 2, 60, 30
3, 291616, Note_on_c, 2, 60, 0
3, 291648, Note_on_c, 2, 60, 30
3, 291808, Note_on_c, 2, 60, 0
3, 292032, Note_on_c, 2, 56, 30
3, 292224, Note_on_c, 2, 56, 0
3, 292224, Note_on_c, 2, 58, 30
3, 292384, Note_on_c, 2, 58, 0
3, 292416, Note_on_c, 2, 58, 30
3, 292576, Note_on_c, 2, 58, 0
3, 292800, Note_on_c, 2, 55, 30
3, 292992, Note_on_c, 2, 55, 0
3, 292992, Note_on_c, 2, 56, 30
3, 293152, Note_on_c, 2, 56, 0
3, 293184, Note_on_c, 2, 56, 30
3, 293344, Note_on_c, 2, 56, 0
3, 293568, Note_on_c, 2, 56, 30
3, 293728, Note_on_c, 2, 56, 0
3, 293952, Note_on_c, 2, 56, 30
3, 294112, Note_on_c, 2, 56, 0
3, 294336, Note_on_c, 2, 56, 30
3, 294496, Note_on_c, 2, 56, 0
3, 294720, Note_on_c, 2, 56, 30
3, 294880, Note_on_c, 2, 56, 0
3, 295104, Note_on_c, 2, 56, 30
3, 295264, Note_on_c, 2, 56, 0
3, 295488, Note_on_c, 2, 56, 30
3, 295680, Note_on_c, 2, 56, 0
3, 295680, Note_on_c, 2, 59, 30
3, 295872, Note_on_c, 2, 59, 0
3, 295872, Note_on_c, 2, 60, 30
3, 296064, Note_on_c, 2, 60, 0
3, 296064, Note_on_c, 2, 61, 30
3, 296224, Note_on_c, 2, 61, 0
3, 296256, Note_on_c, 2, 61, 30
3, 296448, Note_on_c, 2, 61, 0
3, 296448, Note_on_c, 2, 63, 30
3, 296640, Note_on_c, 2, 63, 0
3, 296640, Note_on_c, 2, 61, 30
3, 296832, Note_on_c, 2, 61, 0
3, 296832, Note_on_c, 2, 60, 30
3, 296992, Note_on_c, 2, 60, 0
3, 297024, Note_on_c, 2, 60, 30
3, 297216, Note_on_c, 2, 60, 0
3, 297216, Note_on_c, 2, 61, 30
3, 297408, Note_on_c, 2, 61, 0
3, 297408, Note_on_c, 2, 60, 30
3, 297600, Note_on_c, 2, 60, 0
3, 297600, Note_on_c, 2, 58, 30
3, 297760, Note_on_c, 2, 58, 0
3, 297792, Note_on_c, 2, 58, 30
3, 297984, Note_on_c, 2, 58, 0
3, 297984, Note_on_c, 2, 60, 30
3, 298176, Note_on_c, 2, 60, 0
3, 298176, Note_on_c, 2, 58, 30
3, 298368, Note_on_c, 2, 58, 0
3, 298368, Note_on_c, 2, 56, 30
3, 298528, Note_on_c, 2, 56, 0
3, 298560, Note_on_c, 2, 56, 30
3, 298752, Note_on_c, 2, 56, 0
3, 298752, Note_on_c, 2, 58, 30
3, 298944, Note_on_c, 2, 58, 0
3, 298944, Note_on_c, 2, 56, 30
3, 299136, Note_on_c, 2, 56, 0
3, 299136, Note_on_c, 2, 55, 30
3, 299296, Note_on_c, 2, 55, 0
3, 299328, Note_on_c, 2, 56, 30
3, 299488, Note_on_c, 2, 56, 0
3, 299712, Note_on_c, 2, 56, 30
3, 299872, Note_on_c, 2, 56, 0
3, 300096, Note_on_c, 2, 56, 30
3, 300256, Note_on_c, 2, 56, 0
3, 300480, Note_on_c, 2, 56, 30
3, 300480, Note_on_c, 2, 65, 30
3, 300640, Note_on_c, 2, 56, 0
3, 300640, Note_on_c, 2, 65, 0
3, 300864, Note_on_c, 2, 56, 30
3, 301024, Note_on_c, 2, 56, 0
3, 301248, Note_on_c, 2, 56, 30
3, 301408, Note_on_c, 2, 56, 0
3, 301632, Note_on_c, 2, 56, 30
3, 301792, Note_on_c, 2, 56, 0
3, 302016, Note_on_c, 2, 56, 30
3, 302176, Note_on_c, 2, 56, 0
3, 302400, Note_on_c, 2, 56, 30
3, 302560, Note_on_c, 2, 56, 0
3, 302784, Note_on_c, 2, 56, 30
3, 302944, Note_on_c, 2, 56, 0
3, 303168, Note_on_c, 2, 56, 30
3, 303328, Note_on_c, 2, 56, 0
3, 303552, Note_on_c, 2, 56, 30
3, 303712, Note_on_c, 2, 56, 0
3, 303936, Note_on_c, 2, 68, 30
3, 304096, Note_on_c, 2, 68, 0
3, 304320, Note_on_c, 2, 70, 30
3, 304384, Note_on_c, 2, 70, 0
3, 304384, Note_on_c, 2, 68, 37
3, 304448, Note_on_c, 2, 68, 0
3, 304448, Note_on_c, 2, 70, 44
3, 304512, Note_on_c, 2, 70, 0
3, 304512, Note_on_c, 2, 68, 51
3, 304576, Note_on_c, 2, 68, 0
3, 304576, Note_on_c, 2, 70, 59
3, 304640, Note_on_c, 2, 70, 0
3, 304640, Note_on_c, 2, 68, 67
3, 304704, Note_on_c, 2, 68, 0
3, 304704, Note_on_c, 2, 70, 75
3, 304768, Note_on_c, 2, 70, 0
3, 304768, Note_on_c, 2, 68, 73
3, 304832, Note_on_c, 2, 68, 0
3, 304832, Note_on_c, 2, 70, 71
3, 304896, Note_on_c, 2, 70, 0
3, 304896, Note_on_c, 2, 68, 69
3, 304960, Note_on_c, 2, 68, 0
3, 304960, Note_on_c, 2, 70, 67
3, 305024, Note_on_c, 2, 70, 0
3, 305024, Note_on_c, 2, 68, 65
3, 305088, Note_on_c, 2, 68, 0
3, 305088, Note_on_c, 2, 70, 63
3, 305152, Note_on_c, 2, 70, 0
3, 305152, Note_on_c, 2, 68, 60
3, 305216, Note_on_c, 2, 68, 0
3, 305216, Note_on_c, 2, 70, 57
3, 305280, Note_on_c, 2, 70, 0
3, 305280, Note_on_c, 2, 68, 54
3, 305344, Note_on_c, 2, 68, 0
3, 305344, Note_on_c, 2, 67, 51
3, 305408, Note_on_c, 2, 67, 0
3, 305408, Note_on_c, 2, 68, 48
3, 305470, Note_on_c, 2, 68, 0
3, 305472, Note_on_c, 2, 67, 45
3, 305664, Note_on_c, 2, 67, 0
3, 305664, Note_on_c, 2, 68, 47
3, 305856, Note_on_c, 2, 68, 0
3, 305856, Note_on_c, 2, 67, 49
3, 306048, Note_on_c, 2, 67, 0
3, 306048, Note_on_c, 2, 65, 51
3, 306240, Note_on_c, 2, 65, 0
3, 306240, Note_on_c, 2, 64, 53
3, 306432, Note_on_c, 2, 64, 0
3, 306432, Note_on_c, 2, 61, 55
3, 306624, Note_on_c, 2, 61, 0
3, 306624, Note_on_c, 2, 60, 57
3, 306816, Note_on_c, 2, 60, 0
3, 306816, Note_on_c, 2, 58, 59
3, 307008, Note_on_c, 2, 58, 0
3, 307008, Note_on_c, 2, 56, 61
3, 307200, Note_on_c, 2, 56, 0
3, 307200, Note_on_c, 2, 55, 63
3, 307360, Note_on_c, 2, 55, 0
3, 307968, Note_on_c, 2, 84, 75
3, 308160, Note_on_c, 2, 84, 0
3, 308160, Note_on_c, 2, 82, 78
3, 308352, Note_on_c, 2, 82, 0
3, 308352, Note_on_c, 2, 80, 81
3, 308544, Note_on_c, 2, 80, 0
3, 308544, Note_on_c, 2, 79, 84
3, 308736, Note_on_c, 2, 79, 0
3, 308736, Note_on_c, 2, 77, 87
3, 308928, Note_on_c, 2, 77, 0
3, 308928, Note_on_c, 2, 76, 90
3, 309120, Note_on_c, 2, 76, 0
3, 309120, Note_on_c, 2, 73, 93
3, 309312, Note_on_c, 2, 73, 0
3, 309312, Note_on_c, 2, 72, 96
3, 309504, Note_on_c, 2, 72, 0
3, 309504, Note_on_c, 2, 70, 99
3, 309696, Note_on_c, 2, 70, 0
3, 309696, Note_on_c, 2, 68, 102
3, 309888, Note_on_c, 2, 68, 0
3, 309888, Note_on_c, 2, 64, 105
3, 310048, Note_on_c, 2, 64, 0
3, 310080, Note_on_c, 2, 72, 108
3, 310080, Note_on_c, 2, 76, 108
3, 310126, Note_on_c, 2, 72, 0
3, 310126, Note_on_c, 2, 76, 0
3, 310128, Note_on_c, 2, 72, 108
3, 310128, Note_on_c, 2, 76, 108
3, 310174, Note_on_c, 2, 72, 0
3, 310174, Note_on_c, 2, 76, 0
3, 310176, Note_on_c, 2, 72, 108
3, 310176, Note_on_c, 2, 76, 108
3, 310222, Note_on_c, 2, 72, 0
3, 310222, Note_on_c, 2, 76, 0
3, 310224, Note_on_c, 2, 72, 108
3, 310224, Note_on_c, 2, 76, 108
3, 310270, Note_on_c, 2, 72, 0
3, 310270, Note_on_c, 2, 76, 0
3, 310272, Note_on_c, 2, 72, 108
3, 310272, Note_on_c, 2, 76, 108
3, 310318, Note_on_c, 2, 72, 0
3, 310318, Note_on_c, 2, 76, 0
3, 310320, Note_on_c, 2, 72, 108
3, 310320, Note_on_c, 2, 76, 108
3, 310366, Note_on_c, 2, 72, 0
3, 310366, Note_on_c, 2, 76, 0
3, 310368, Note_on_c, 2, 72, 108
3, 310368, Note_on_c, 2, 76, 108
3, 310414, Note_on_c, 2, 72, 0
3, 310414, Note_on_c, 2, 76, 0
3, 310416, Note_on_c, 2, 72, 108
3, 310416, Note_on_c, 2, 76, 108
3, 310462, Note_on_c, 2, 72, 0
3, 310462, Note_on_c, 2, 76, 0
3, 310464, Note_on_c, 2, 72, 108
3, 310464, Note_on_c, 2, 76, 108
3, 310510, Note_on_c, 2, 72, 0
3, 310510, Note_on_c, 2, 76, 0
3, 310512, Note_on_c, 2, 72, 108
3, 310512, Note_on_c, 2, 76, 108
3, 310558, Note_on_c, 2, 72, 0
3, 310558, Note_on_c, 2, 76, 0
3, 310560, Note_on_c, 2, 72, 108
3, 310560, Note_on_c, 2, 76, 108
3, 310606, Note_on_c, 2, 72, 0
3, 310606, Note_on_c, 2, 76, 0
3, 310608, Note_on_c, 2, 72, 108
3, 310608, Note_on_c, 2, 76, 108
3, 310654, Note_on_c, 2, 72, 0
3, 310654, Note_on_c, 2, 76, 0
3, 310656, Note_on_c, 2, 72, 108
3, 310656, Note_on_c, 2, 76, 108
3, 310702, Note_on_c, 2, 72, 0
3, 310702, Note_on_c, 2, 76, 0
3, 310704, Note_on_c, 2, 72, 108
3, 310704, Note_on_c, 2, 76, 108
3, 310750, Note_on_c, 2, 72, 0
3, 310750, Note_on_c, 2, 76, 0
3, 310752, Note_on_c, 2, 72, 108
3, 310752, Note_on_c, 2, 76, 108
3, 310798, Note_on_c, 2, 72, 0
3, 310798, Note_on_c, 2, 76, 0
3, 310800, Note_on_c, 2, 72, 108
3, 310800, Note_on_c, 2, 76, 108
3, 310846, Note_on_c, 2, 72, 0
3, 310846, Note_on_c, 2, 76, 0
3, 310848, Note_on_c, 2, 72, 108
3, 310848, Note_on_c, 2, 76, 108
3, 310894, Note_on_c, 2, 72, 0
3, 310894, Note_on_c, 2, 76, 0
3, 310896, Note_on_c, 2, 72, 108
3, 310896, Note_on_c, 2, 76, 108
3, 310942, Note_on_c, 2, 72, 0
3, 310942, Note_on_c, 2, 76, 0
3, 310944, Note_on_c, 2, 72, 108
3, 310944, Note_on_c, 2, 76, 108
3, 310990, Note_on_c, 2, 72, 0
3, 310990, Note_on_c, 2, 76, 0
3, 310992, Note_on_c, 2, 72, 108
3, 310992, Note_on_c, 2, 76, 108
3, 311038, Note_on_c, 2, 72, 0
3, 311038, Note_on_c, 2, 76, 0
3, 311040, Note_on_c, 2, 72, 108
3, 311040, Note_on_c, 2, 76, 108
3, 311086, Note_on_c, 2, 72, 0
3, 311086, Note_on_c, 2, 76, 0
3, 311088, Note_on_c, 2, 72, 108
3, 311088, Note_on_c, 2, 76, 108
3, 311134, Note_on_c, 2, 72, 0
3, 311134, Note_on_c, 2, 76, 0
3, 311136, Note_on_c, 2, 72, 108
3, 311136, Note_on_c, 2, 76, 108
3, 311182, Note_on_c, 2, 72, 0
3, 311182, Note_on_c, 2, 76, 0
3, 311184, Note_on_c, 2, 72, 108
3, 311184, Note_on_c, 2, 76, 108
3, 311230, Note_on_c, 2, 72, 0
3, 311230, Note_on_c, 2, 76, 0
3, 311232, Note_on_c, 2, 72, 108
3, 311232, Note_on_c, 2, 76, 108
3, 311278, Note_on_c, 2, 72, 0
3, 311278, Note_on_c, 2, 76, 0
3, 311280, Note_on_c, 2, 72, 106
3, 311280, Note_on_c, 2, 76, 106
3, 311326, Note_on_c, 2, 72, 0
3, 311326, Note_on_c, 2, 76, 0
3, 311328, Note_on_c, 2, 72, 104
3, 311328, Note_on_c, 2, 76, 104
3, 311374, Note_on_c, 2, 72, 0
3, 311374, Note_on_c, 2, 76, 0
3, 311376, Note_on_c, 2, 72, 102
3, 311376, Note_on_c, 2, 76, 102
3, 311422, Note_on_c, 2, 72, 0
3, 311422, Note_on_c, 2, 76, 0
3, 311424, Note_on_c, 2, 72, 100
3, 311424, Note_on_c, 2, 76, 100
3, 311470, Note_on_c, 2, 72, 0
3, 311470, Note_on_c, 2, 76, 0
3, 311472, Note_on_c, 2, 72, 98
3, 311472, Note_on_c, 2, 76, 98
3, 311518, Note_on_c, 2, 72, 0
3, 311518, Note_on_c, 2, 76, 0
3, 311520, Note_on_c, 2, 72, 96
3, 311520, Note_on_c, 2, 76, 96
3, 311566, Note_on_c, 2, 72, 0
3, 311566, Note_on_c, 2, 76, 0
3, 311568, Note_on_c, 2, 72, 94
3, 311568, Note_on_c, 2, 76, 94
3, 311614, Note_on_c, 2, 72, 0
3, 311614, Note_on_c, 2, 76, 0
3, 311616, Note_on_c, 2, 72, 92
3, 311616, Note_on_c, 2, 76, 92
3, 311662, Note_on_c, 2, 72, 0
3, 311662, Note_on_c, 2, 76, 0
3, 311664, Note_on_c, 2, 72, 90
3, 311664, Note_on_c, 2, 76, 90
3, 311710, Note_on_c, 2, 72, 0
3, 311710, Note_on_c, 2, 76, 0
3, 311712, Note_on_c, 2, 72, 87
3, 311712, Note_on_c, 2, 76, 87
3, 311758, Note_on_c, 2, 72, 0
3, 311758, Note_on_c, 2, 76, 0
3, 311760, Note_on_c, 2, 72, 84
3, 311760, Note_on_c, 2, 76, 84
3, 311806, Note_on_c, 2, 72, 0
3, 311806, Note_on_c, 2, 76, 0
3, 311808, Note_on_c, 2, 72, 81
3, 311808, Note_on_c, 2, 76, 81
3, 311854, Note_on_c, 2, 72, 0
3, 311854, Note_on_c, 2, 76, 0
3, 311856, Note_on_c, 2, 72, 78
3, 311856, Note_on_c, 2, 76, 78
3, 311902, Note_on_c, 2, 72, 0
3, 311902, Note_on_c, 2, 76, 0
3, 311904, Note_on_c, 2, 72, 75
3, 311904, Note_on_c, 2, 76, 75
3, 311950, Note_on_c, 2, 72, 0
3, 311950, Note_on_c, 2, 76, 0
3, 311952, Note_on_c, 2, 72, 72
3, 311952, Note_on_c, 2, 76, 72
3, 311998, Note_on_c, 2, 72, 0
3, 311998, Note_on_c, 2, 76, 0
3, 312000, Note_on_c, 2, 72, 69
3, 312000, Note_on_c, 2, 76, 69
3, 312046, Note_on_c, 2, 72, 0
3, 312046, Note_on_c, 2, 76, 0
3, 312048, Note_on_c, 2, 72, 66
3, 312048, Note_on_c, 2, 76, 66
3, 312094, Note_on_c, 2, 72, 0
3, 312094, Note_on_c, 2, 76, 0
3, 312096, Note_on_c, 2, 72, 63
3, 312096, Note_on_c, 2, 76, 63
3, 312142, Note_on_c, 2, 72, 0
3, 312142, Note_on_c, 2, 76, 0
3, 312144, Note_on_c, 2, 72, 60
3, 312144, Note_on_c, 2, 76, 60
3, 312190, Note_on_c, 2, 72, 0
3, 312190, Note_on_c, 2, 76, 0
3, 312192, Note_on_c, 2, 72, 57
3, 312192, Note_on_c, 2, 76, 57
3, 312238, Note_on_c, 2, 72, 0
3, 312238, Note_on_c, 2, 76, 0
3, 312240, Note_on_c, 2, 72, 54
3, 312240, Note_on_c, 2, 76, 54
3, 312286, Note_on_c, 2, 72, 0
3, 312286, Note_on_c, 2, 76, 0
3, 312288, Note_on_c, 2, 72, 51
3, 312288, Note_on_c, 2, 76, 51
3, 312334, Note_on_c, 2, 72, 0
3, 312334, Note_on_c, 2, 76, 0
3, 312336, Note_on_c, 2, 72, 48
3, 312336, Note_on_c, 2, 76, 48
3, 312382, Note_on_c, 2, 72, 0
3, 312382, Note_on_c, 2, 76, 0
3, 312384, Note_on_c, 2, 69, 108
3, 312384, Note_on_c, 2, 77, 108
3, 312430, Note_on_c, 2, 69, 0
3, 312430, Note_on_c, 2, 77, 0
3, 312432, Note_on_c, 2, 69, 108
3, 312432, Note_on_c, 2, 77, 108
3, 312478, Note_on_c, 2, 69, 0
3, 312478, Note_on_c, 2, 77, 0
3, 312480, Note_on_c, 2, 69, 108
3, 312480, Note_on_c, 2, 77, 108
3, 312526, Note_on_c, 2, 69, 0
3, 312526, Note_on_c, 2, 77, 0
3, 312528, Note_on_c, 2, 69, 108
3, 312528, Note_on_c, 2, 77, 108
3, 312574, Note_on_c, 2, 69, 0
3, 312574, Note_on_c, 2, 77, 0
3, 312576, Note_on_c, 2, 69, 108
3, 312576, Note_on_c, 2, 77, 108
3, 312622, Note_on_c, 2, 69, 0
3, 312622, Note_on_c, 2, 77, 0
3, 312624, Note_on_c, 2, 69, 108
3, 312624, Note_on_c, 2, 77, 108
3, 312670, Note_on_c, 2, 69, 0
3, 312670, Note_on_c, 2, 77, 0
3, 312672, Note_on_c, 2, 69, 108
3, 312672, Note_on_c, 2, 77, 108
3, 312718, Note_on_c, 2, 69, 0
3, 312718, Note_on_c, 2, 77, 0
3, 312720, Note_on_c, 2, 69, 108
3, 312720, Note_on_c, 2, 77, 108
3, 312766, Note_on_c, 2, 69, 0
3, 312766, Note_on_c, 2, 77, 0
3, 312768, Note_on_c, 2, 69, 108
3, 312768, Note_on_c, 2, 77, 108
3, 312814, Note_on_c, 2, 69, 0
3, 312814, Note_on_c, 2, 77, 0
3, 312816, Note_on_c, 2, 69, 108
3, 312816, Note_on_c, 2, 77, 108
3, 312862, Note_on_c, 2, 69, 0
3, 312862, Note_on_c, 2, 77, 0
3, 312864, Note_on_c, 2, 69, 108
3, 312864, Note_on_c, 2, 77, 108
3, 312910, Note_on_c, 2, 69, 0
3, 312910, Note_on_c, 2, 77, 0
3, 312912, Note_on_c, 2, 69, 108
3, 312912, Note_on_c, 2, 77, 108
3, 312958, Note_on_c, 2, 69, 0
3, 312958, Note_on_c, 2, 77, 0
3, 312960, Note_on_c, 2, 69, 108
3, 312960, Note_on_c, 2, 77, 108
3, 313006, Note_on_c, 2, 69, 0
3, 313006, Note_on_c, 2, 77, 0
3, 313008, Note_on_c, 2, 69, 108
3, 313008, Note_on_c, 2, 77, 108
3, 313054, Note_on_c, 2, 69, 0
3, 313054, Note_on_c, 2, 77, 0
3, 313056, Note_on_c, 2, 69, 108
3, 313056, Note_on_c, 2, 77, 108
3, 313102, Note_on_c, 2, 69, 0
3, 313102, Note_on_c, 2, 77, 0
3, 313104, Note_on_c, 2, 69, 108
3, 313104, Note_on_c, 2, 77, 108
3, 313150, Note_on_c, 2, 69, 0
3, 313150, Note_on_c, 2, 77, 0
3, 313152, Note_on_c, 2, 69, 108
3, 313152, Note_on_c, 2, 77, 108
3, 313198, Note_on_c, 2, 69, 0
3, 313198, Note_on_c, 2, 77, 0
3, 313200, Note_on_c, 2, 69, 108
3, 313200, Note_on_c, 2, 77, 108
3, 313246, Note_on_c, 2, 69, 0
3, 313246, Note_on_c, 2, 77, 0
3, 313248, Note_on_c, 2, 69, 108
3, 313248, Note_on_c, 2, 77, 108
3, 313294, Note_on_c, 2, 69, 0
3, 313294, Note_on_c, 2, 77, 0
3, 313296, Note_on_c, 2, 69, 108
3, 313296, Note_on_c, 2, 77, 108
3, 313342, Note_on_c, 2, 69, 0
3, 313342, Note_on_c, 2, 77, 0
3, 313344, Note_on_c, 2, 69, 108
3, 313344, Note_on_c, 2, 77, 108
3, 313390, Note_on_c, 2, 69, 0
3, 313390, Note_on_c, 2, 77, 0
3, 313392, Note_on_c, 2, 69, 108
3, 313392, Note_on_c, 2, 77, 108
3, 313438, Note_on_c, 2, 69, 0
3, 313438, Note_on_c, 2, 77, 0
3, 313440, Note_on_c, 2, 69, 108
3, 313440, Note_on_c, 2, 77, 108
3, 313486, Note_on_c, 2, 69, 0
3, 313486, Note_on_c, 2, 77, 0
3, 313488, Note_on_c, 2, 69, 108
3, 313488, Note_on_c, 2, 77, 108
3, 313534, Note_on_c, 2, 69, 0
3, 313534, Note_on_c, 2, 77, 0
3, 313536, Note_on_c, 2, 69, 108
3, 313536, Note_on_c, 2, 77, 108
3, 313582, Note_on_c, 2, 69, 0
3, 313582, Note_on_c, 2, 77, 0
3, 313584, Note_on_c, 2, 69, 106
3, 313584, Note_on_c, 2, 77, 106
3, 313630, Note_on_c, 2, 69, 0
3, 313630, Note_on_c, 2, 77, 0
3, 313632, Note_on_c, 2, 69, 104
3, 313632, Note_on_c, 2, 77, 104
3, 313678, Note_on_c, 2, 69, 0
3, 313678, Note_on_c, 2, 77, 0
3, 313680, Note_on_c, 2, 69, 102
3, 313680, Note_on_c, 2, 77, 102
3, 313726, Note_on_c, 2, 69, 0
3, 313726, Note_on_c, 2, 77, 0
3, 313728, Note_on_c, 2, 69, 100
3, 313728, Note_on_c, 2, 77, 100
3, 313774, Note_on_c, 2, 69, 0
3, 313774, Note_on_c, 2, 77, 0
3, 313776, Note_on_c, 2, 69, 98
3, 313776, Note_on_c, 2, 77, 98
3, 313822, Note_on_c, 2, 69, 0
3, 313822, Note_on_c, 2, 77, 0
3, 313824, Note_on_c, 2, 69, 96
3, 313824, Note_on_c, 2, 77, 96
3, 313870, Note_on_c, 2, 69, 0
3, 313870, Note_on_c, 2, 77, 0
3, 313872, Note_on_c, 2, 69, 94
3, 313872, Note_on_c, 2, 77, 94
3, 313918, Note_on_c, 2, 69, 0
3, 313918, Note_on_c, 2, 77, 0
3, 313920, Note_on_c, 2, 69, 92
3, 313920, Note_on_c, 2, 77, 92
3, 313966, Note_on_c, 2, 69, 0
3, 313966, Note_on_c, 2, 77, 0
3, 313968, Note_on_c, 2, 69, 90
3, 313968, Note_on_c, 2, 77, 90
3, 314014, Note_on_c, 2, 69, 0
3, 314014, Note_on_c, 2, 77, 0
3, 314016, Note_on_c, 2, 69, 87
3, 314016, Note_on_c, 2, 77, 87
3, 314062, Note_on_c, 2, 69, 0
3, 314062, Note_on_c, 2, 77, 0
3, 314064, Note_on_c, 2, 69, 84
3, 314064, Note_on_c, 2, 77, 84
3, 314110, Note_on_c, 2, 69, 0
3, 314110, Note_on_c, 2, 77, 0
3, 314112, Note_on_c, 2, 69, 81
3, 314112, Note_on_c, 2, 77, 81
3, 314158, Note_on_c, 2, 69, 0
3, 314158, Note_on_c, 2, 77, 0
3, 314160, Note_on_c, 2, 69, 78
3, 314160, Note_on_c, 2, 77, 78
3, 314206, Note_on_c, 2, 69, 0
3, 314206, Note_on_c, 2, 77, 0
3, 314208, Note_on_c, 2, 69, 75
3, 314208, Note_on_c, 2, 77, 75
3, 314254, Note_on_c, 2, 69, 0
3, 314254, Note_on_c, 2, 77, 0
3, 314256, Note_on_c, 2, 69, 72
3, 314256, Note_on_c, 2, 77, 72
3, 314302, Note_on_c, 2, 69, 0
3, 314302, Note_on_c, 2, 77, 0
3, 314304, Note_on_c, 2, 70, 69
3, 314304, Note_on_c, 2, 77, 69
3, 314350, Note_on_c, 2, 70, 0
3, 314350, Note_on_c, 2, 77, 0
3, 314352, Note_on_c, 2, 70, 66
3, 314352, Note_on_c, 2, 77, 66
3, 314398, Note_on_c, 2, 70, 0
3, 314398, Note_on_c, 2, 77, 0
3, 314400, Note_on_c, 2, 70, 63
3, 314400, Note_on_c, 2, 77, 63
3, 314446, Note_on_c, 2, 70, 0
3, 314446, Note_on_c, 2, 77, 0
3, 314448, Note_on_c, 2, 70, 60
3, 314448, Note_on_c, 2, 77, 60
3, 314494, Note_on_c, 2, 70, 0
3, 314494, Note_on_c, 2, 77, 0
3, 314496, Note_on_c, 2, 77, 57
3, 314542, Note_on_c, 2, 77, 0
3, 314544, Note_on_c, 2, 70, 54
3, 314544, Note_on_c, 2, 77, 54
3, 314590, Note_on_c, 2, 70, 0
3, 314590, Note_on_c, 2, 77, 0
3, 314592, Note_on_c, 2, 70, 51
3, 314592, Note_on_c, 2, 77, 51
3, 314638, Note_on_c, 2, 70, 0
3, 314638, Note_on_c, 2, 77, 0
3, 314640, Note_on_c, 2, 70, 48
3, 314640, Note_on_c, 2, 77, 48
3, 314686, Note_on_c, 2, 70, 0
3, 314686, Note_on_c, 2, 77, 0
3, 314688, Note_on_c, 2, 73, 92
3, 314688, Note_on_c, 2, 77, 92
3, 314734, Note_on_c, 2, 73, 0
3, 314734, Note_on_c, 2, 77, 0
3, 314736, Note_on_c, 2, 73, 92
3, 314736, Note_on_c, 2, 77, 92
3, 314782, Note_on_c, 2, 73, 0
3, 314782, Note_on_c, 2, 77, 0
3, 314784, Note_on_c, 2, 73, 92
3, 314784, Note_on_c, 2, 77, 92
3, 314830, Note_on_c, 2, 73, 0
3, 314830, Note_on_c, 2, 77, 0
3, 314832, Note_on_c, 2, 73, 92
3, 314832, Note_on_c, 2, 77, 92
3, 314878, Note_on_c, 2, 73, 0
3, 314878, Note_on_c, 2, 77, 0
3, 314880, Note_on_c, 2, 73, 92
3, 314880, Note_on_c, 2, 77, 92
3, 314926, Note_on_c, 2, 73, 0
3, 314926, Note_on_c, 2, 77, 0
3, 314928, Note_on_c, 2, 73, 92
3, 314928, Note_on_c, 2, 77, 92
3, 314974, Note_on_c, 2, 73, 0
3, 314974, Note_on_c, 2, 77, 0
3, 314976, Note_on_c, 2, 73, 92
3, 314976, Note_on_c, 2, 77, 92
3, 315022, Note_on_c, 2, 73, 0
3, 315022, Note_on_c, 2, 77, 0
3, 315024, Note_on_c, 2, 73, 92
3, 315024, Note_on_c, 2, 77, 92
3, 315070, Note_on_c, 2, 73, 0
3, 315070, Note_on_c, 2, 77, 0
3, 315072, Note_on_c, 2, 73, 92
3, 315072, Note_on_c, 2, 79, 92
3, 315118, Note_on_c, 2, 73, 0
3, 315118, Note_on_c, 2, 79, 0
3, 315120, Note_on_c, 2, 73, 92
3, 315120, Note_on_c, 2, 79, 92
3, 315166, Note_on_c, 2, 73, 0
3, 315166, Note_on_c, 2, 79, 0
3, 315168, Note_on_c, 2, 73, 92
3, 315168, Note_on_c, 2, 79, 92
3, 315214, Note_on_c, 2, 73, 0
3, 315214, Note_on_c, 2, 79, 0
3, 315216, Note_on_c, 2, 73, 92
3, 315216, Note_on_c, 2, 79, 92
3, 315262, Note_on_c, 2, 73, 0
3, 315262, Note_on_c, 2, 79, 0
3, 315264, Note_on_c, 2, 73, 92
3, 315264, Note_on_c, 2, 79, 92
3, 315310, Note_on_c, 2, 73, 0
3, 315310, Note_on_c, 2, 79, 0
3, 315312, Note_on_c, 2, 73, 92
3, 315312, Note_on_c, 2, 79, 92
3, 315358, Note_on_c, 2, 73, 0
3, 315358, Note_on_c, 2, 79, 0
3, 315360, Note_on_c, 2, 73, 92
3, 315360, Note_on_c, 2, 79, 92
3, 315406, Note_on_c, 2, 73, 0
3, 315406, Note_on_c, 2, 79, 0
3, 315408, Note_on_c, 2, 73, 92
3, 315408, Note_on_c, 2, 79, 92
3, 315454, Note_on_c, 2, 73, 0
3, 315454, Note_on_c, 2, 79, 0
3, 315456, Note_on_c, 2, 73, 92
3, 315456, Note_on_c, 2, 79, 92
3, 315502, Note_on_c, 2, 73, 0
3, 315502, Note_on_c, 2, 79, 0
3, 315504, Note_on_c, 2, 73, 87
3, 315504, Note_on_c, 2, 79, 87
3, 315550, Note_on_c, 2, 73, 0
3, 315550, Note_on_c, 2, 79, 0
3, 315552, Note_on_c, 2, 73, 81
3, 315552, Note_on_c, 2, 79, 81
3, 315598, Note_on_c, 2, 73, 0
3, 315598, Note_on_c, 2, 79, 0
3, 315600, Note_on_c, 2, 73, 75
3, 315600, Note_on_c, 2, 79, 75
3, 315646, Note_on_c, 2, 73, 0
3, 315646, Note_on_c, 2, 79, 0
3, 315648, Note_on_c, 2, 73, 69
3, 315648, Note_on_c, 2, 79, 69
3, 315694, Note_on_c, 2, 73, 0
3, 315694, Note_on_c, 2, 79, 0
3, 315696, Note_on_c, 2, 73, 63
3, 315696, Note_on_c, 2, 79, 63
3, 315742, Note_on_c, 2, 73, 0
3, 315742, Note_on_c, 2, 79, 0
3, 315744, Note_on_c, 2, 73, 57
3, 315744, Note_on_c, 2, 79, 57
3, 315790, Note_on_c, 2, 73, 0
3, 315790, Note_on_c, 2, 79, 0
3, 315792, Note_on_c, 2, 73, 51
3, 315792, Note_on_c, 2, 79, 51
3, 315838, Note_on_c, 2, 73, 0
3, 315838, Note_on_c, 2, 79, 0
3, 315840, Note_on_c, 2, 76, 92
3, 315840, Note_on_c, 2, 79, 92
3, 315886, Note_on_c, 2, 76, 0
3, 315886, Note_on_c, 2, 79, 0
3, 315888, Note_on_c, 2, 76, 92
3, 315888, Note_on_c, 2, 79, 92
3, 315934, Note_on_c, 2, 76, 0
3, 315934, Note_on_c, 2, 79, 0
3, 315936, Note_on_c, 2, 76, 92
3, 315936, Note_on_c, 2, 79, 92
3, 315982, Note_on_c, 2, 76, 0
3, 315982, Note_on_c, 2, 79, 0
3, 315984, Note_on_c, 2, 76, 92
3, 315984, Note_on_c, 2, 79, 92
3, 316030, Note_on_c, 2, 76, 0
3, 316030, Note_on_c, 2, 79, 0
3, 316032, Note_on_c, 2, 76, 92
3, 316032, Note_on_c, 2, 79, 92
3, 316078, Note_on_c, 2, 76, 0
3, 316078, Note_on_c, 2, 79, 0
3, 316080, Note_on_c, 2, 76, 92
3, 316080, Note_on_c, 2, 79, 92
3, 316126, Note_on_c, 2, 76, 0
3, 316126, Note_on_c, 2, 79, 0
3, 316128, Note_on_c, 2, 76, 92
3, 316128, Note_on_c, 2, 79, 92
3, 316174, Note_on_c, 2, 76, 0
3, 316174, Note_on_c, 2, 79, 0
3, 316176, Note_on_c, 2, 76, 92
3, 316176, Note_on_c, 2, 79, 92
3, 316222, Note_on_c, 2, 76, 0
3, 316222, Note_on_c, 2, 79, 0
3, 316224, Note_on_c, 2, 76, 92
3, 316224, Note_on_c, 2, 79, 92
3, 316270, Note_on_c, 2, 76, 0
3, 316270, Note_on_c, 2, 79, 0
3, 316272, Note_on_c, 2, 76, 92
3, 316272, Note_on_c, 2, 79, 92
3, 316318, Note_on_c, 2, 76, 0
3, 316318, Note_on_c, 2, 79, 0
3, 316320, Note_on_c, 2, 76, 92
3, 316320, Note_on_c, 2, 79, 92
3, 316366, Note_on_c, 2, 76, 0
3, 316366, Note_on_c, 2, 79, 0
3, 316368, Note_on_c, 2, 76, 92
3, 316368, Note_on_c, 2, 79, 92
3, 316414, Note_on_c, 2, 76, 0
3, 316414, Note_on_c, 2, 79, 0
3, 316416, Note_on_c, 2, 76, 92
3, 316416, Note_on_c, 2, 79, 92
3, 316462, Note_on_c, 2, 76, 0
3, 316462, Note_on_c, 2, 79, 0
3, 316464, Note_on_c, 2, 76, 92
3, 316464, Note_on_c, 2, 79, 92
3, 316510, Note_on_c, 2, 76, 0
3, 316510, Note_on_c, 2, 79, 0
3, 316512, Note_on_c, 2, 76, 92
3, 316512, Note_on_c, 2, 79, 92
3, 316558, Note_on_c, 2, 76, 0
3, 316558, Note_on_c, 2, 79, 0
3, 316560, Note_on_c, 2, 76, 92
3, 316560, Note_on_c, 2, 79, 92
3, 316606, Note_on_c, 2, 76, 0
3, 316606, Note_on_c, 2, 79, 0
3, 316608, Note_on_c, 2, 76, 92
3, 316608, Note_on_c, 2, 79, 92
3, 316768, Note_on_c, 2, 76, 0
3, 316768, Note_on_c, 2, 79, 0
3, 317376, Note_on_c, 2, 76, 92
3, 317376, Note_on_c, 2, 79, 92
3, 317422, Note_on_c, 2, 76, 0
3, 317422, Note_on_c, 2, 79, 0
3, 317424, Note_on_c, 2, 76, 92
3, 317424, Note_on_c, 2, 79, 92
3, 317470, Note_on_c, 2, 76, 0
3, 317470, Note_on_c, 2, 79, 0
3, 317472, Note_on_c, 2, 76, 92
3, 317472, Note_on_c, 2, 79, 92
3, 317518, Note_on_c, 2, 76, 0
3, 317518, Note_on_c, 2, 79, 0
3, 317520, Note_on_c, 2, 76, 92
3, 317520, Note_on_c, 2, 79, 92
3, 317566, Note_on_c, 2, 76, 0
3, 317566, Note_on_c, 2, 79, 0
3, 317568, Note_on_c, 2, 76, 92
3, 317568, Note_on_c, 2, 79, 92
3, 317614, Note_on_c, 2, 76, 0
3, 317614, Note_on_c, 2, 79, 0
3, 317616, Note_on_c, 2, 76, 92
3, 317616, Note_on_c, 2, 79, 92
3, 317662, Note_on_c, 2, 76, 0
3, 317662, Note_on_c, 2, 79, 0
3, 317664, Note_on_c, 2, 76, 92
3, 317664, Note_on_c, 2, 79, 92
3, 317710, Note_on_c, 2, 76, 0
3, 317710, Note_on_c, 2, 79, 0
3, 317712, Note_on_c, 2, 76, 92
3, 317712, Note_on_c, 2, 79, 92
3, 317758, Note_on_c, 2, 76, 0
3, 317758, Note_on_c, 2, 79, 0
3, 317760, Note_on_c, 2, 76, 92
3, 317760, Note_on_c, 2, 79, 92
3, 317920, Note_on_c, 2, 76, 0
3, 317920, Note_on_c, 2, 79, 0
3, 318528, Note_on_c, 2, 76, 92
3, 318528, Note_on_c, 2, 79, 92
3, 318574, Note_on_c, 2, 76, 0
3, 318574, Note_on_c, 2, 79, 0
3, 318576, Note_on_c, 2, 76, 91
3, 318576, Note_on_c, 2, 79, 91
3, 318622, Note_on_c, 2, 76, 0
3, 318622, Note_on_c, 2, 79, 0
3, 318624, Note_on_c, 2, 76, 90
3, 318624, Note_on_c, 2, 79, 90
3, 318670, Note_on_c, 2, 76, 0
3, 318670, Note_on_c, 2, 79, 0
3, 318672, Note_on_c, 2, 76, 89
3, 318672, Note_on_c, 2, 79, 89
3, 318718, Note_on_c, 2, 76, 0
3, 318718, Note_on_c, 2, 79, 0
3, 318720, Note_on_c, 2, 76, 88
3, 318720, Note_on_c, 2, 79, 88
3, 318766, Note_on_c, 2, 76, 0
3, 318766, Note_on_c, 2, 79, 0
3, 318768, Note_on_c, 2, 76, 87
3, 318768, Note_on_c, 2, 79, 87
3, 318814, Note_on_c, 2, 76, 0
3, 318814, Note_on_c, 2, 79, 0
3, 318816, Note_on_c, 2, 76, 86
3, 318816, Note_on_c, 2, 79, 86
3, 318862, Note_on_c, 2, 76, 0
3, 318862, Note_on_c, 2, 79, 0
3, 318864, Note_on_c, 2, 76, 85
3, 318864, Note_on_c, 2, 79, 85
3, 318910, Note_on_c, 2, 76, 0
3, 318910, Note_on_c, 2, 79, 0
3, 318912, Note_on_c, 2, 76, 84
3, 318912, Note_on_c, 2, 79, 84
3, 319072, Note_on_c, 2, 76, 0
3, 319072, Note_on_c, 2, 79, 0
3, 319680, Note_on_c, 2, 76, 63
3, 319680, Note_on_c, 2, 79, 63
3, 319726, Note_on_c, 2, 76, 0
3, 319726, Note_on_c, 2, 79, 0
3, 319728, Note_on_c, 2, 76, 62
3, 319728, Note_on_c, 2, 79, 62
3, 319774, Note_on_c, 2, 76, 0
3, 319774, Note_on_c, 2, 79, 0
3, 319776, Note_on_c, 2, 76, 61
3, 319776, Note_on_c, 2, 79, 61
3, 319822, Note_on_c, 2, 76, 0
3, 319822, Note_on_c, 2, 79, 0
3, 319824, Note_on_c, 2, 76, 60
3, 319824, Note_on_c, 2, 79, 60
3, 319870, Note_on_c, 2, 76, 0
3, 319870, Note_on_c, 2, 79, 0
3, 319872, Note_on_c, 2, 76, 59
3, 319872, Note_on_c, 2, 79, 59
3, 319918, Note_on_c, 2, 76, 0
3, 319918, Note_on_c, 2, 79, 0
3, 319920, Note_on_c, 2, 76, 58
3, 319920, Note_on_c, 2, 79, 58
3, 319966, Note_on_c, 2, 76, 0
3, 319966, Note_on_c, 2, 79, 0
3, 319968, Note_on_c, 2, 76, 57
3, 319968, Note_on_c, 2, 79, 57
3, 320014, Note_on_c, 2, 76, 0
3, 320014, Note_on_c, 2, 79, 0
3, 320016, Note_on_c, 2, 76, 55
3, 320016, Note_on_c, 2, 79, 55
3, 320062, Note_on_c, 2, 76, 0
3, 320062, Note_on_c, 2, 79, 0
3, 320064, Note_on_c, 2, 76, 53
3, 320064, Note_on_c, 2, 79, 53
3, 320224, Note_on_c, 2, 76, 0
3, 320224, Note_on_c, 2, 79, 0
3, 320256, Note_on_c, 2, 65, 45
3, 320416, Note_on_c, 2, 65, 0
3, 320448, Note_on_c, 2, 77, 45
3, 320544, Note_on_c, 2, 77, 0
3, 320832, Note_on_c, 2, 72, 45
3, 320928, Note_on_c, 2, 72, 0
3, 321408, Note_on_c, 2, 63, 45
3, 321568, Note_on_c, 2, 63, 0
3, 321600, Note_on_c, 2, 66, 51
3, 321696, Note_on_c, 2, 66, 0
3, 321984, Note_on_c, 2, 62, 64
3, 322080, Note_on_c, 2, 62, 0
3, 322560, Note_on_c, 2, 65, 85
3, 322720, Note_on_c, 2, 65, 0
3, 322752, Note_on_c, 2, 68, 92
3, 322848, Note_on_c, 2, 68, 0
3, 323136, Note_on_c, 2, 64, 92
3, 323232, Note_on_c, 2, 64, 0
3, 323904, Note_on_c, 2, 73, 92
3, 323950, Note_on_c, 2, 73, 0
3, 323952, Note_on_c, 2, 73, 91
3, 323998, Note_on_c, 2, 73, 0
3, 324000, Note_on_c, 2, 73, 89
3, 324046, Note_on_c, 2, 73, 0
3, 324048, Note_on_c, 2, 73, 87
3, 324094, Note_on_c, 2, 73, 0
3, 324096, Note_on_c, 2, 73, 85
3, 324256, Note_on_c, 2, 73, 0
3, 324288, Note_on_c, 2, 82, 77
3, 324334, Note_on_c, 2, 82, 0
3, 324336, Note_on_c, 2, 82, 75
3, 324382, Note_on_c, 2, 82, 0
3, 324384, Note_on_c, 2, 82, 73
3, 324430, Note_on_c, 2, 82, 0
3, 324432, Note_on_c, 2, 82, 71
3, 324478, Note_on_c, 2, 82, 0
3, 324480, Note_on_c, 2, 82, 69
3, 324640, Note_on_c, 2, 82, 0
3, 324672, Note_on_c, 2, 64, 61
3, 324718, Note_on_c, 2, 64, 0
3, 324720, Note_on_c, 2, 64, 59
3, 324766, Note_on_c, 2, 64, 0
3, 324768, Note_on_c, 2, 64, 57
3, 324814, Note_on_c, 2, 64, 0
3, 324816, Note_on_c, 2, 64, 55
3, 324862, Note_on_c, 2, 64, 0
3, 324864, Note_on_c, 2, 64, 53
3, 324960, Note_on_c, 2, 64, 0
3, 324960, Note_on_c, 2, 57, 49
3, 325054, Note_on_c, 2, 57, 0
3, 325056, Note_on_c, 2, 55, 45
3, 325248, Note_on_c, 2, 55, 0
3, 325248, Note_on_c, 2, 60, 45
3, 325408, Note_on_c, 2, 60, 0
3, 325440, Note_on_c, 2, 60, 45
3, 325632, Note_on_c, 2, 60, 0
3, 325632, Note_on_c, 2, 64, 45
3, 325792, Note_on_c, 2, 64, 0
3, 325824, Note_on_c, 2, 55, 45
3, 326016, Note_on_c, 2, 55, 0
3, 326016, Note_on_c, 2, 60, 45
3, 326176, Note_on_c, 2, 60, 0
3, 326208, Note_on_c, 2, 60, 45
3, 326400, Note_on_c, 2, 60, 0
3, 326400, Note_on_c, 2, 65, 45
3, 326560, Note_on_c, 2, 65, 0
3, 326592, Note_on_c, 2, 60, 45
3, 326784, Note_on_c, 2, 60, 0
3, 326784, Note_on_c, 2, 65, 45
3, 326976, Note_on_c, 2, 65, 0
3, 326976, Note_on_c, 2, 60, 45
3, 327168, Note_on_c, 2, 60, 0
3, 327168, Note_on_c, 2, 57, 45
3, 327360, Note_on_c, 2, 57, 0
3, 327360, Note_on_c, 2, 55, 45
3, 327552, Note_on_c, 2, 55, 0
3, 327552, Note_on_c, 2, 58, 45
3, 327744, Note_on_c, 2, 58, 0
3, 327744, Note_on_c, 2, 57, 45
3, 327904, Note_on_c, 2, 57, 0
3, 327936, Note_on_c, 2, 69, 92
3, 327984, Note_on_c, 2, 69, 0
3, 328128, Note_on_c, 2, 72, 127
3, 328464, Note_on_c, 2, 72, 0
3, 328512, Note_on_c, 2, 67, 92
3, 328560, Note_on_c, 2, 67, 0
3, 328704, Note_on_c, 2, 67, 92
3, 328752, Note_on_c, 2, 67, 0
3, 328896, Note_on_c, 2, 70, 127
3, 329232, Note_on_c, 2, 70, 0
3, 329280, Note_on_c, 2, 65, 92
3, 329440, Note_on_c, 2, 65, 0
3, 329472, Note_on_c, 2, 65, 92
3, 329472, Note_on_c, 2, 74, 92
3, 329632, Note_on_c, 2, 65, 0
3, 329632, Note_on_c, 2, 74, 0
3, 329664, Note_on_c, 2, 72, 92
3, 329856, Note_on_c, 2, 72, 0
3, 329856, Note_on_c, 2, 70, 92
3, 330016, Note_on_c, 2, 70, 0
3, 330048, Note_on_c, 2, 69, 92
3, 330096, Note_on_c, 2, 69, 0
3, 330240, Note_on_c, 2, 65, 92
3, 330240, Note_on_c, 2, 70, 92
3, 330288, Note_on_c, 2, 65, 0
3, 330288, Note_on_c, 2, 70, 0
3, 330432, Note_on_c, 2, 65, 92
3, 330432, Note_on_c, 2, 72, 92
3, 330624, Note_on_c, 2, 72, 0
3, 330624, Note_on_c, 2, 69, 92
3, 330768, Note_on_c, 2, 65, 0
3, 330784, Note_on_c, 2, 69, 0
3, 330816, Note_on_c, 2, 62, 92
3, 330816, Note_on_c, 2, 70, 92
3, 330976, Note_on_c, 2, 62, 0
3, 330976, Note_on_c, 2, 70, 0
3, 331008, Note_on_c, 2, 62, 92
3, 331168, Note_on_c, 2, 62, 0
3, 331200, Note_on_c, 2, 66, 92
3, 331392, Note_on_c, 2, 66, 0
3, 331392, Note_on_c, 2, 67, 92
3, 331552, Note_on_c, 2, 67, 0
3, 331584, Note_on_c, 2, 72, 92
3, 331632, Note_on_c, 2, 72, 0
3, 331776, Note_on_c, 2, 72, 92
3, 331824, Note_on_c, 2, 72, 0
3, 331968, Note_on_c, 2, 66, 92
3, 332160, Note_on_c, 2, 66, 0
3, 332160, Note_on_c, 2, 69, 92
3, 332320, Note_on_c, 2, 69, 0
3, 332352, Note_on_c, 2, 70, 92
3, 332400, Note_on_c, 2, 70, 0
3, 332544, Note_on_c, 2, 69, 92
3, 332592, Note_on_c, 2, 69, 0
3, 332736, Note_on_c, 2, 67, 127
3, 332928, Note_on_c, 2, 67, 0
3, 332928, Note_on_c, 2, 65, 92
3, 333088, Note_on_c, 2, 65, 0
3, 333120, Note_on_c, 2, 67, 92
3, 333168, Note_on_c, 2, 67, 0
3, 333312, Note_on_c, 2, 67, 92
3, 333360, Note_on_c, 2, 67, 0
3, 333504, Note_on_c, 2, 65, 127
3, 333696, Note_on_c, 2, 65, 0
3, 333696, Note_on_c, 2, 64, 92
3, 333856, Note_on_c, 2, 64, 0
3, 333888, Note_on_c, 2, 65, 92
3, 333936, Note_on_c, 2, 65, 0
3, 334080, Note_on_c, 2, 65, 92
3, 334128, Note_on_c, 2, 65, 0
3, 334272, Note_on_c, 2, 65, 127
3, 334464, Note_on_c, 2, 65, 0
3, 334464, Note_on_c, 2, 62, 92
3, 334624, Note_on_c, 2, 62, 0
3, 334656, Note_on_c, 2, 63, 92
3, 334704, Note_on_c, 2, 63, 0
3, 334848, Note_on_c, 2, 63, 92
3, 334896, Note_on_c, 2, 63, 0
3, 335040, Note_on_c, 2, 63, 127
3, 335232, Note_on_c, 2, 63, 0
3, 335232, Note_on_c, 2, 60, 92
3, 335392, Note_on_c, 2, 60, 0
3, 335424, Note_on_c, 2, 62, 92
3, 335472, Note_on_c, 2, 62, 0
3, 335616, Note_on_c, 2, 62, 92
3, 335664, Note_on_c, 2, 62, 0
3, 335808, Note_on_c, 2, 65, 92
3, 335968, Note_on_c, 2, 65, 0
3, 336384, Note_on_c, 2, 65, 92
3, 336544, Note_on_c, 2, 65, 0
3, 336576, Note_on_c, 2, 65, 92
3, 336736, Note_on_c, 2, 65, 0
3, 337152, Note_on_c, 2, 65, 92
3, 337312, Note_on_c, 2, 65, 0
3, 337344, Note_on_c, 2, 70, 92
3, 337504, Note_on_c, 2, 70, 0
3, 337920, Note_on_c, 2, 70, 92
3, 338080, Note_on_c, 2, 70, 0
3, 338112, Note_on_c, 2, 70, 92
3, 338272, Note_on_c, 2, 70, 0
3, 338496, Note_on_c, 2, 70, 92
3, 338656, Note_on_c, 2, 70, 0
3, 338880, Note_on_c, 2, 70, 92
3, 339040, Note_on_c, 2, 70, 0
3, 339456, Note_on_c, 2, 58, 92
3, 339616, Note_on_c, 2, 58, 0
3, 339648, Note_on_c, 2, 63, 92
3, 339808, Note_on_c, 2, 63, 0
3, 340224, Note_on_c, 2, 69, 92
3, 340384, Note_on_c, 2, 69, 0
3, 340416, Note_on_c, 2, 74, 92
3, 340576, Note_on_c, 2, 74, 0
3, 340992, Note_on_c, 2, 70, 92
3, 341152, Note_on_c, 2, 70, 0
3, 341952, Note_on_c, 2, 62, 92
3, 342000, Note_on_c, 2, 62, 0
3, 342144, Note_on_c, 2, 70, 92
3, 342192, Note_on_c, 2, 70, 0
3, 342336, Note_on_c, 2, 69, 92
3, 342384, Note_on_c, 2, 69, 0
3, 345984, Note_on_c, 2, 69, 45
3, 346176, Note_on_c, 2, 69, 0
3, 346176, Note_on_c, 2, 67, 45
3, 346368, Note_on_c, 2, 67, 0
3, 346368, Note_on_c, 2, 66, 45
3, 346560, Note_on_c, 2, 66, 0
3, 346560, Note_on_c, 2, 67, 45
3, 346752, Note_on_c, 2, 67, 0
3, 346752, Note_on_c, 2, 69, 45
3, 346944, Note_on_c, 2, 69, 0
3, 346944, Note_on_c, 2, 71, 45
3, 347488, Note_on_c, 2, 71, 0
3, 347520, Note_on_c, 2, 71, 45
3, 347712, Note_on_c, 2, 71, 0
3, 347712, Note_on_c, 2, 69, 45
3, 347904, Note_on_c, 2, 69, 0
3, 347904, Note_on_c, 2, 67, 45
3, 348096, Note_on_c, 2, 67, 0
3, 348096, Note_on_c, 2, 66, 45
3, 348288, Note_on_c, 2, 66, 0
3, 348288, Note_on_c, 2, 64, 45
3, 348480, Note_on_c, 2, 64, 0
3, 348672, Note_on_c, 2, 67, 45
3, 348832, Note_on_c, 2, 67, 0
3, 348864, Note_on_c, 2, 59, 45
3, 349056, Note_on_c, 2, 59, 0
3, 349056, Note_on_c, 2, 57, 45
3, 349248, Note_on_c, 2, 57, 0
3, 349248, Note_on_c, 2, 59, 45
3, 349440, Note_on_c, 2, 59, 0
3, 349440, Note_on_c, 2, 61, 45
3, 349632, Note_on_c, 2, 61, 0
3, 349632, Note_on_c, 2, 62, 45
3, 349824, Note_on_c, 2, 62, 0
3, 349824, Note_on_c, 2, 61, 45
3, 350016, Note_on_c, 2, 61, 0
3, 350016, Note_on_c, 2, 62, 45
3, 350208, Note_on_c, 2, 62, 0
3, 350208, Note_on_c, 2, 64, 45
3, 350368, Note_on_c, 2, 64, 0
3, 351168, Note_on_c, 2, 57, 45
3, 351360, Note_on_c, 2, 57, 0
3, 351360, Note_on_c, 2, 69, 45
3, 351552, Note_on_c, 2, 69, 0
3, 351552, Note_on_c, 2, 72, 45
3, 351744, Note_on_c, 2, 72, 0
3, 351744, Note_on_c, 2, 70, 45
3, 351936, Note_on_c, 2, 70, 0
3, 351936, Note_on_c, 2, 69, 45
3, 352128, Note_on_c, 2, 69, 0
3, 352128, Note_on_c, 2, 70, 45
3, 352320, Note_on_c, 2, 70, 0
3, 352320, Note_on_c, 2, 69, 45
3, 352512, Note_on_c, 2, 69, 0
3, 352512, Note_on_c, 2, 70, 45
3, 352672, Note_on_c, 2, 70, 0
3, 352704, Note_on_c, 2, 72, 45
3, 353088, Note_on_c, 2, 72, 0
3, 353088, Note_on_c, 2, 70, 45
3, 353280, Note_on_c, 2, 70, 0
3, 353280, Note_on_c, 2, 69, 45
3, 353472, Note_on_c, 2, 69, 0
3, 353472, Note_on_c, 2, 65, 45
3, 353664, Note_on_c, 2, 65, 0
3, 353664, Note_on_c, 2, 63, 45
3, 353856, Note_on_c, 2, 63, 0
3, 353856, Note_on_c, 2, 62, 45
3, 354048, Note_on_c, 2, 62, 0
3, 354048, Note_on_c, 2, 63, 45
3, 354208, Note_on_c, 2, 63, 0
3, 354240, Note_on_c, 2, 65, 45
3, 354768, Note_on_c, 2, 65, 0
3, 354816, Note_on_c, 2, 65, 45
3, 355008, Note_on_c, 2, 65, 0
3, 355008, Note_on_c, 2, 63, 45
3, 355200, Note_on_c, 2, 63, 0
3, 355200, Note_on_c, 2, 62, 47
3, 355392, Note_on_c, 2, 62, 0
3, 355392, Note_on_c, 2, 60, 49
3, 355584, Note_on_c, 2, 60, 0
3, 355584, Note_on_c, 2, 58, 51
3, 355744, Note_on_c, 2, 58, 0
3, 355776, Note_on_c, 2, 58, 53
3, 356304, Note_on_c, 2, 58, 0
3, 356352, Note_on_c, 2, 60, 61
3, 356736, Note_on_c, 2, 60, 0
3, 356736, Note_on_c, 2, 64, 66
3, 356928, Note_on_c, 2, 64, 0
3, 356928, Note_on_c, 2, 65, 69
3, 357120, Note_on_c, 2, 65, 0
3, 357120, Note_on_c, 2, 67, 72
3, 357280, Note_on_c, 2, 67, 0
3, 357312, Note_on_c, 2, 60, 45
3, 357472, Note_on_c, 2, 60, 0
3, 358080, Note_on_c, 2, 77, 45
3, 358272, Note_on_c, 2, 77, 0
3, 358272, Note_on_c, 2, 81, 45
3, 358464, Note_on_c, 2, 81, 0
3, 358464, Note_on_c, 2, 77, 45
3, 358656, Note_on_c, 2, 77, 0
3, 358656, Note_on_c, 2, 84, 45
3, 358816, Note_on_c, 2, 84, 0
3, 359616, Note_on_c, 2, 58, 45
3, 359808, Note_on_c, 2, 58, 0
3, 359808, Note_on_c, 2, 64, 45
3, 360000, Note_on_c, 2, 64, 0
3, 360000, Note_on_c, 2, 60, 45
3, 360192, Note_on_c, 2, 60, 0
3, 360192, Note_on_c, 2, 64, 45
3, 360352, Note_on_c, 2, 64, 0
3, 361152, Note_on_c, 2, 77, 45
3, 361344, Note_on_c, 2, 77, 0
3, 361344, Note_on_c, 2, 81, 45
3, 361536, Note_on_c, 2, 81, 0
3, 361536, Note_on_c, 2, 77, 45
3, 361728, Note_on_c, 2, 77, 0
3, 361728, Note_on_c, 2, 84, 45
3, 361888, Note_on_c, 2, 84, 0
3, 362688, Note_on_c, 2, 69, 45
3, 362880, Note_on_c, 2, 69, 0
3, 362880, Note_on_c, 2, 77, 45
3, 363072, Note_on_c, 2, 77, 0
3, 363072, Note_on_c, 2, 72, 45
3, 363264, Note_on_c, 2, 72, 0
3, 363264, Note_on_c, 2, 77, 45
3, 363424, Note_on_c, 2, 77, 0
3, 364224, Note_on_c, 2, 60, 45
3, 364416, Note_on_c, 2, 60, 0
3, 364416, Note_on_c, 2, 69, 52
3, 364608, Note_on_c, 2, 69, 0
3, 364608, Note_on_c, 2, 65, 59
3, 364800, Note_on_c, 2, 65, 0
3, 364800, Note_on_c, 2, 72, 67
3, 364960, Note_on_c, 2, 72, 0
3, 364992, Note_on_c, 2, 65, 45
3, 365184, Note_on_c, 2, 65, 0
3, 365184, Note_on_c, 2, 72, 45
3, 365376, Note_on_c, 2, 72, 0
3, 365376, Note_on_c, 2, 69, 45
3, 365568, Note_on_c, 2, 69, 0
3, 365568, Note_on_c, 2, 77, 45
3, 365728, Note_on_c, 2, 77, 0
3, 365760, Note_on_c, 2, 64, 45
3, 365952, Note_on_c, 2, 64, 0
3, 365952, Note_on_c, 2, 72, 45
3, 366144, Note_on_c, 2, 72, 0
3, 366144, Note_on_c, 2, 70, 45
3, 366336, Note_on_c, 2, 70, 0
3, 366336, Note_on_c, 2, 76, 45
3, 366496, Note_on_c, 2, 76, 0
3, 366528, Note_on_c, 2, 69, 45
3, 366688, Note_on_c, 2, 69, 0
3, 367296, Note_on_c, 2, 57, 59
3, 367488, Note_on_c, 2, 57, 0
3, 367488, Note_on_c, 2, 65, 63
3, 367648, Note_on_c, 2, 65, 0
3, 367680, Note_on_c, 2, 65, 67
3, 367872, Note_on_c, 2, 65, 0
3, 367872, Note_on_c, 2, 69, 71
3, 368032, Note_on_c, 2, 69, 0
3, 368064, Note_on_c, 2, 65, 45
3, 368256, Note_on_c, 2, 65, 0
3, 368256, Note_on_c, 2, 69, 45
3, 368448, Note_on_c, 2, 69, 0
3, 368448, Note_on_c, 2, 65, 45
3, 368640, Note_on_c, 2, 65, 0
3, 368640, Note_on_c, 2, 72, 45
3, 368800, Note_on_c, 2, 72, 0
3, 368832, Note_on_c, 2, 69, 45
3, 369024, Note_on_c, 2, 69, 0
3, 369024, Note_on_c, 2, 72, 45
3, 369216, Note_on_c, 2, 72, 0
3, 369216, Note_on_c, 2, 69, 45
3, 369376, Note_on_c, 2, 69, 0
3, 369408, Note_on_c, 2, 69, 45
3, 369456, Note_on_c, 2, 69, 0
3, 369600, Note_on_c, 2, 72, 47
3, 369696, Note_on_c, 2, 72, 0
3, 369984, Note_on_c, 2, 67, 51
3, 370080, Note_on_c, 2, 67, 0
3, 370944, Note_on_c, 2, 67, 61
3, 371104, Note_on_c, 2, 67, 0
3, 371136, Note_on_c, 2, 70, 63
3, 371232, Note_on_c, 2, 70, 0
3, 371520, Note_on_c, 2, 65, 68
3, 371616, Note_on_c, 2, 65, 0
3, 373248, Note_on_c, 2, 57, 92
3, 373408, Note_on_c, 2, 57, 0
3, 373440, Note_on_c, 2, 60, 92
3, 373536, Note_on_c, 2, 60, 0
3, 373824, Note_on_c, 2, 55, 94
3, 373920, Note_on_c, 2, 55, 0
3, 374784, Note_on_c, 2, 58, 101
3, 374944, Note_on_c, 2, 58, 0
3, 374976, Note_on_c, 2, 62, 102
3, 375072, Note_on_c, 2, 62, 0
3, 375360, Note_on_c, 2, 57, 106
3, 375408, Note_on_c, 2, 57, 0
3, 375552, Note_on_c, 2, 60, 108
3, 375712, Note_on_c, 2, 60, 0
3, 375744, Note_on_c, 2, 60, 108
3, 375904, Note_on_c, 2, 60, 0
3, 375936, Note_on_c, 2, 70, 108
3, 376096, Note_on_c, 2, 70, 0
3, 376128, Note_on_c, 2, 70, 108
3, 376288, Note_on_c, 2, 70, 0
3, 376320, Note_on_c, 2, 70, 108
3, 376480, Note_on_c, 2, 70, 0
3, 376512, Note_on_c, 2, 72, 108
3, 376672, Note_on_c, 2, 72, 0
3, 376704, Note_on_c, 2, 72, 108
3, 376864, Note_on_c, 2, 72, 0
3, 376896, Note_on_c, 2, 69, 108
3, 377056, Note_on_c, 2, 69, 0
3, 377088, Note_on_c, 2, 72, 108
3, 377248, Note_on_c, 2, 72, 0
3, 377280, Note_on_c, 2, 69, 108
3, 377280, Note_on_c, 2, 84, 108
3, 377616, Note_on_c, 2, 69, 0
3, 377616, Note_on_c, 2, 84, 0
3, 377664, Note_on_c, 2, 67, 108
3, 377664, Note_on_c, 2, 70, 108
3, 378000, Note_on_c, 2, 67, 0
3, 378000, Note_on_c, 2, 70, 0
3, 378048, Note_on_c, 2, 65, 108
3, 378048, Note_on_c, 2, 69, 108
3, 378208, Note_on_c, 2, 65, 0
3, 378208, Note_on_c, 2, 69, 0
3, 379392, Note_on_c, 2, 55, 45
3, 379552, Note_on_c, 2, 55, 0
3, 379584, Note_on_c, 2, 58, 45
3, 379920, Note_on_c, 2, 58, 0
3, 379968, Note_on_c, 2, 55, 45
3, 381648, Note_on_c, 2, 55, 0
3, 382464, Note_on_c, 2, 62, 45
3, 382624, Note_on_c, 2, 62, 0
3, 382656, Note_on_c, 2, 63, 45
3, 382992, Note_on_c, 2, 63, 0
3, 383040, Note_on_c, 2, 60, 45
3, 384720, Note_on_c, 2, 60, 0
3, 385152, Note_on_c, 2, 67, 30
3, 385312, Note_on_c, 2, 67, 0
3, 385344, Note_on_c, 2, 70, 30
3, 385680, Note_on_c, 2, 70, 0
3, 385728, Note_on_c, 2, 66, 30
3, 386256, Note_on_c, 2, 66, 0
3, 386880, Note_on_c, 2, 69, 30
3, 387040, Note_on_c, 2, 69, 0
3, 387264, Note_on_c, 2, 69, 30
3, 387424, Note_on_c, 2, 69, 0
3, 387648, Note_on_c, 2, 70, 30
3, 387808, Note_on_c, 2, 70, 0
3, 388032, Note_on_c, 2, 69, 30
3, 388192, Note_on_c, 2, 69, 0
3, 388416, Note_on_c, 2, 76, 30
3, 388576, Note_on_c, 2, 76, 0
3, 388608, Note_on_c, 2, 77, 30
3, 388768, Note_on_c, 2, 77, 0
3, 388800, Note_on_c, 2, 76, 30
3, 388960, Note_on_c, 2, 76, 0
3, 389568, Note_on_c, 2, 69, 30
3, 389728, Note_on_c, 2, 69, 0
3, 389952, Note_on_c, 2, 69, 30
3, 389952, Note_on_c, 2, 77, 30
3, 390112, Note_on_c, 2, 69, 0
3, 390112, Note_on_c, 2, 77, 0
3, 390336, Note_on_c, 2, 69, 30
3, 390336, Note_on_c, 2, 77, 30
3, 390496, Note_on_c, 2, 69, 0
3, 390496, Note_on_c, 2, 77, 0
3, 390720, Note_on_c, 2, 69, 30
3, 390720, Note_on_c, 2, 77, 30
3, 390880, Note_on_c, 2, 69, 0
3, 390880, Note_on_c, 2, 77, 0
3, 391104, Note_on_c, 2, 77, 30
3, 391264, Note_on_c, 2, 77, 0
3, 391488, Note_on_c, 2, 76, 30
3, 391648, Note_on_c, 2, 76, 0
3, 391872, Note_on_c, 2, 77, 30
3, 392032, Note_on_c, 2, 77, 0
3, 393024, Note_on_c, 2, 72, 30
3, 393184, Note_on_c, 2, 72, 0
3, 393408, Note_on_c, 2, 72, 30
3, 393568, Note_on_c, 2, 72, 0
3, 393792, Note_on_c, 2, 74, 30
3, 393952, Note_on_c, 2, 74, 0
3, 394176, Note_on_c, 2, 77, 30
3, 394336, Note_on_c, 2, 77, 0
3, 394560, Note_on_c, 2, 79, 30
3, 394720, Note_on_c, 2, 79, 0
3, 394752, Note_on_c, 2, 81, 30
3, 394912, Note_on_c, 2, 81, 0
3, 394944, Note_on_c, 2, 79, 30
3, 395104, Note_on_c, 2, 79, 0
3, 396096, Note_on_c, 2, 72, 30
3, 396256, Note_on_c, 2, 72, 0
3, 396480, Note_on_c, 2, 72, 30
3, 396640, Note_on_c, 2, 72, 0
3, 396864, Note_on_c, 2, 74, 30
3, 397024, Note_on_c, 2, 74, 0
3, 397248, Note_on_c, 2, 74, 30
3, 397408, Note_on_c, 2, 74, 0
3, 397632, Note_on_c, 2, 72, 30
3, 397792, Note_on_c, 2, 72, 0
3, 398016, Note_on_c, 2, 72, 30
3, 398176, Note_on_c, 2, 72, 0
3, 398592, Note_on_c, 2, 81, 30
3, 398752, Note_on_c, 2, 81, 0
3, 398784, Note_on_c, 2, 84, 30
3, 399120, Note_on_c, 2, 84, 0
3, 399168, Note_on_c, 2, 79, 30
3, 399328, Note_on_c, 2, 79, 0
3, 399360, Note_on_c, 2, 79, 30
3, 399520, Note_on_c, 2, 79, 0
3, 399552, Note_on_c, 2, 82, 30
3, 399888, Note_on_c, 2, 82, 0
3, 399936, Note_on_c, 2, 77, 30
3, 400096, Note_on_c, 2, 77, 0
3, 400128, Note_on_c, 2, 77, 30
3, 400288, Note_on_c, 2, 77, 0
3, 400320, Note_on_c, 2, 81, 30
3, 400656, Note_on_c, 2, 81, 0
3, 400704, Note_on_c, 2, 76, 30
3, 400864, Note_on_c, 2, 76, 0
3, 400896, Note_on_c, 2, 76, 30
3, 401056, Note_on_c, 2, 76, 0
3, 401088, Note_on_c, 2, 79, 30
3, 401248, Note_on_c, 2, 79, 0
3, 401280, Note_on_c, 2, 74, 30
3, 401440, Note_on_c, 2, 74, 0
3, 401472, Note_on_c, 2, 77, 30
3, 401632, Note_on_c, 2, 77, 0
3, 401664, Note_on_c, 2, 72, 30
3, 401824, Note_on_c, 2, 72, 0
3, 401856, Note_on_c, 2, 84, 30
3, 402192, Note_on_c, 2, 84, 0
3, 402240, Note_on_c, 2, 79, 30
3, 402400, Note_on_c, 2, 79, 0
3, 402432, Note_on_c, 2, 79, 30
3, 402592, Note_on_c, 2, 79, 0
3, 402624, Note_on_c, 2, 82, 30
3, 402960, Note_on_c, 2, 82, 0
3, 403008, Note_on_c, 2, 77, 30
3, 403168, Note_on_c, 2, 77, 0
3, 403200, Note_on_c, 2, 77, 30
3, 403360, Note_on_c, 2, 77, 0
3, 403392, Note_on_c, 2, 81, 30
3, 403728, Note_on_c, 2, 81, 0
3, 403776, Note_on_c, 2, 76, 30
3, 403936, Note_on_c, 2, 76, 0
3, 403968, Note_on_c, 2, 76, 30
3, 404128, Note_on_c, 2, 76, 0
3, 404160, Note_on_c, 2, 79, 30
3, 404320, Note_on_c, 2, 79, 0
3, 404352, Note_on_c, 2, 74, 30
3, 404512, Note_on_c, 2, 74, 0
3, 404544, Note_on_c, 2, 77, 30
3, 404704, Note_on_c, 2, 77, 0
3, 404736, Note_on_c, 2, 69, 108
3, 404896, Note_on_c, 2, 69, 0
3, 404928, Note_on_c, 2, 72, 108
3, 405264, Note_on_c, 2, 72, 0
3, 405312, Note_on_c, 2, 67, 108
3, 405472, Note_on_c, 2, 67, 0
3, 405504, Note_on_c, 2, 67, 108
3, 405664, Note_on_c, 2, 67, 0
3, 405696, Note_on_c, 2, 69, 108
3, 406032, Note_on_c, 2, 69, 0
3, 406080, Note_on_c, 2, 65, 108
3, 406240, Note_on_c, 2, 65, 0
3, 406272, Note_on_c, 2, 69, 108
3, 406432, Note_on_c, 2, 69, 0
3, 406464, Note_on_c, 2, 69, 108
3, 406464, Note_on_c, 2, 81, 108
3, 406560, Note_on_c, 2, 69, 0
3, 406560, Note_on_c, 2, 81, 0
3, 406848, Note_on_c, 2, 70, 108
3, 406848, Note_on_c, 2, 79, 108
3, 406944, Note_on_c, 2, 70, 0
3, 406944, Note_on_c, 2, 79, 0
3, 407232, Note_on_c, 2, 77, 108
3, 407392, Note_on_c, 2, 77, 0
3, 407392, End_track
4, 0, Start_track
4, 0, MIDI_port, 0
4, 0, Title_t, "Viola."
4, 0, Program_c, 3, 0
4, 0, Control_c, 3, 7, 127
4, 0, Control_c, 3, 10, 64
4, 0, Note_on_c, 3, 55, 45
4, 256, Note_on_c, 3, 55, 0
4, 288, Note_on_c, 3, 52, 45
4, 382, Note_on_c, 3, 52, 0
4, 384, Note_on_c, 3, 56, 45
4, 720, Note_on_c, 3, 56, 0
4, 1152, Note_on_c, 3, 60, 45
4, 1632, Note_on_c, 3, 60, 0
4, 1632, Note_on_c, 3, 58, 45
4, 1728, Note_on_c, 3, 58, 0
4, 1728, Note_on_c, 3, 56, 45
4, 1824, Note_on_c, 3, 56, 0
4, 1824, Note_on_c, 3, 55, 45
4, 1920, Note_on_c, 3, 55, 0
4, 1920, Note_on_c, 3, 53, 45
4, 2016, Note_on_c, 3, 53, 0
4, 2016, Note_on_c, 3, 56, 45
4, 2112, Note_on_c, 3, 56, 0
4, 2112, Note_on_c, 3, 60, 45
4, 2208, Note_on_c, 3, 60, 0
4, 2208, Note_on_c, 3, 65, 45
4, 2302, Note_on_c, 3, 65, 0
4, 2304, Note_on_c, 3, 60, 45
4, 2560, Note_on_c, 3, 60, 0
4, 2592, Note_on_c, 3, 57, 67
4, 2686, Note_on_c, 3, 57, 0
4, 2688, Note_on_c, 3, 61, 75
4, 3024, Note_on_c, 3, 61, 0
4, 3840, Note_on_c, 3, 65, 45
4, 4318, Note_on_c, 3, 65, 0
4, 4320, Note_on_c, 3, 65, 56
4, 4416, Note_on_c, 3, 65, 0
4, 4416, Note_on_c, 3, 62, 68
4, 4512, Note_on_c, 3, 62, 0
4, 4512, Note_on_c, 3, 58, 80
4, 4606, Note_on_c, 3, 58, 0
4, 4608, Note_on_c, 3, 58, 92
4, 4608, Note_on_c, 3, 62, 92
4, 4702, Note_on_c, 3, 58, 0
4, 4702, Note_on_c, 3, 62, 0
4, 4704, Note_on_c, 3, 58, 92
4, 4704, Note_on_c, 3, 62, 92
4, 4798, Note_on_c, 3, 58, 0
4, 4798, Note_on_c, 3, 62, 0
4, 4800, Note_on_c, 3, 58, 92
4, 4800, Note_on_c, 3, 62, 92
4, 4960, Note_on_c, 3, 58, 0
4, 4960, Note_on_c, 3, 62, 0
4, 5760, Note_on_c, 3, 61, 92
4, 5854, Note_on_c, 3, 61, 0
4, 5856, Note_on_c, 3, 61, 92
4, 5950, Note_on_c, 3, 61, 0
4, 5952, Note_on_c, 3, 61, 92
4, 6112, Note_on_c, 3, 61, 0
4, 6912, Note_on_c, 3, 61, 45
4, 7168, Note_on_c, 3, 61, 0
4, 7200, Note_on_c, 3, 58, 80
4, 7294, Note_on_c, 3, 58, 0
4, 7296, Note_on_c, 3, 64, 92
4, 8016, Note_on_c, 3, 64, 0
4, 8064, Note_on_c, 3, 64, 45
4, 8320, Note_on_c, 3, 64, 0
4, 8352, Note_on_c, 3, 60, 80
4, 8446, Note_on_c, 3, 60, 0
4, 8448, Note_on_c, 3, 65, 92
4, 9168, Note_on_c, 3, 65, 0
4, 9216, Note_on_c, 3, 65, 92
4, 9472, Note_on_c, 3, 65, 0
4, 9504, Note_on_c, 3, 62, 92
4, 9598, Note_on_c, 3, 62, 0
4, 9600, Note_on_c, 3, 67, 108
4, 10320, Note_on_c, 3, 67, 0
4, 10368, Note_on_c, 3, 48, 83
4, 10462, Note_on_c, 3, 48, 0
4, 10464, Note_on_c, 3, 48, 80
4, 10558, Note_on_c, 3, 48, 0
4, 10560, Note_on_c, 3, 48, 77
4, 10720, Note_on_c, 3, 48, 0
4, 11520, Note_on_c, 3, 48, 45
4, 11614, Note_on_c, 3, 48, 0
4, 11616, Note_on_c, 3, 48, 45
4, 11710, Note_on_c, 3, 48, 0
4, 11712, Note_on_c, 3, 48, 45
4, 11872, Note_on_c, 3, 48, 0
4, 12672, Note_on_c, 3, 48, 30
4, 12766, Note_on_c, 3, 48, 0
4, 12768, Note_on_c, 3, 48, 30
4, 12862, Note_on_c, 3, 48, 0
4, 12864, Note_on_c, 3, 48, 30
4, 13024, Note_on_c, 3, 48, 0
4, 14208, Note_on_c, 3, 48, 92
4, 14256, Note_on_c, 3, 48, 0
4, 14400, Note_on_c, 3, 52, 92
4, 14448, Note_on_c, 3, 52, 0
4, 14592, Note_on_c, 3, 55, 92
4, 14640, Note_on_c, 3, 55, 0
4, 14784, Note_on_c, 3, 60, 92
4, 14832, Note_on_c, 3, 60, 0
4, 14976, Note_on_c, 3, 62, 92
4, 15024, Note_on_c, 3, 62, 0
4, 15168, Note_on_c, 3, 63, 92
4, 15216, Note_on_c, 3, 63, 0
4, 15360, Note_on_c, 3, 64, 92
4, 15408, Note_on_c, 3, 64, 0
4, 15552, Note_on_c, 3, 65, 92
4, 15600, Note_on_c, 3, 65, 0
4, 15744, Note_on_c, 3, 69, 92
4, 15792, Note_on_c, 3, 69, 0
4, 15936, Note_on_c, 3, 72, 92
4, 15984, Note_on_c, 3, 72, 0
4, 16128, Note_on_c, 3, 65, 92
4, 16176, Note_on_c, 3, 65, 0
4, 16320, Note_on_c, 3, 65, 92
4, 16368, Note_on_c, 3, 65, 0
4, 16512, Note_on_c, 3, 65, 92
4, 16560, Note_on_c, 3, 65, 0
4, 16896, Note_on_c, 3, 69, 92
4, 16944, Note_on_c, 3, 69, 0
4, 17088, Note_on_c, 3, 69, 45
4, 18048, Note_on_c, 3, 69, 0
4, 18048, Note_on_c, 3, 70, 45
4, 18240, Note_on_c, 3, 70, 0
4, 18240, Note_on_c, 3, 69, 45
4, 18432, Note_on_c, 3, 69, 0
4, 18432, Note_on_c, 3, 72, 45
4, 18592, Note_on_c, 3, 72, 0
4, 18624, Note_on_c, 3, 70, 45
4, 19152, Note_on_c, 3, 70, 0
4, 19200, Note_on_c, 3, 63, 45
4, 19392, Note_on_c, 3, 63, 0
4, 19392, Note_on_c, 3, 62, 45
4, 19584, Note_on_c, 3, 62, 0
4, 19584, Note_on_c, 3, 60, 45
4, 19776, Note_on_c, 3, 60, 0
4, 19776, Note_on_c, 3, 58, 45
4, 19968, Note_on_c, 3, 58, 0
4, 19968, Note_on_c, 3, 70, 45
4, 20128, Note_on_c, 3, 70, 0
4, 20160, Note_on_c, 3, 67, 45
4, 20160, Note_on_c, 3, 70, 45
4, 20736, Note_on_c, 3, 67, 0
4, 20736, Note_on_c, 3, 70, 0
4, 20736, Note_on_c, 3, 74, 45
4, 20928, Note_on_c, 3, 74, 0
4, 20928, Note_on_c, 3, 72, 45
4, 21120, Note_on_c, 3, 72, 0
4, 21120, Note_on_c, 3, 74, 45
4, 21312, Note_on_c, 3, 74, 0
4, 21312, Note_on_c, 3, 72, 45
4, 21504, Note_on_c, 3, 72, 0
4, 21504, Note_on_c, 3, 70, 45
4, 21696, Note_on_c, 3, 70, 0
4, 21696, Note_on_c, 3, 69, 45
4, 21888, Note_on_c, 3, 69, 0
4, 21888, Note_on_c, 3, 70, 45
4, 22272, Note_on_c, 3, 70, 0
4, 22272, Note_on_c, 3, 72, 45
4, 22624, Note_on_c, 3, 72, 0
4, 22656, Note_on_c, 3, 60, 45
4, 22848, Note_on_c, 3, 60, 0
4, 22848, Note_on_c, 3, 65, 45
4, 23040, Note_on_c, 3, 65, 0
4, 23040, Note_on_c, 3, 60, 45
4, 23200, Note_on_c, 3, 60, 0
4, 23232, Note_on_c, 3, 57, 45
4, 23616, Note_on_c, 3, 57, 0
4, 23616, Note_on_c, 3, 60, 45
4, 24000, Note_on_c, 3, 60, 0
4, 24000, Note_on_c, 3, 57, 45
4, 24384, Note_on_c, 3, 57, 0
4, 24384, Note_on_c, 3, 69, 45
4, 24720, Note_on_c, 3, 69, 0
4, 24768, Note_on_c, 3, 57, 45
4, 25152, Note_on_c, 3, 57, 0
4, 25152, Note_on_c, 3, 60, 45
4, 25488, Note_on_c, 3, 60, 0
4, 25536, Note_on_c, 3, 62, 45
4, 26640, Note_on_c, 3, 62, 0
4, 26688, Note_on_c, 3, 50, 45
4, 26688, Note_on_c, 3, 58, 45
4, 27024, Note_on_c, 3, 50, 0
4, 27024, Note_on_c, 3, 58, 0
4, 27072, Note_on_c, 3, 55, 45
4, 27072, Note_on_c, 3, 58, 45
4, 28560, Note_on_c, 3, 55, 0
4, 28560, Note_on_c, 3, 58, 0
4, 28608, Note_on_c, 3, 53, 45
4, 28608, Note_on_c, 3, 57, 45
4, 29328, Note_on_c, 3, 53, 0
4, 29328, Note_on_c, 3, 57, 0
4, 29376, Note_on_c, 3, 57, 92
4, 29536, Note_on_c, 3, 57, 0
4, 29952, Note_on_c, 3, 57, 92
4, 30112, Note_on_c, 3, 57, 0
4, 30144, Note_on_c, 3, 60, 92
4, 30304, Note_on_c, 3, 60, 0
4, 30720, Note_on_c, 3, 55, 92
4, 30880, Note_on_c, 3, 55, 0
4, 30912, Note_on_c, 3, 53, 92
4, 31072, Note_on_c, 3, 53, 0
4, 31488, Note_on_c, 3, 53, 92
4, 31648, Note_on_c, 3, 53, 0
4, 31680, Note_on_c, 3, 53, 92
4, 31840, Note_on_c, 3, 53, 0
4, 32064, Note_on_c, 3, 53, 92
4, 32224, Note_on_c, 3, 53, 0
4, 32448, Note_on_c, 3, 53, 92
4, 32608, Note_on_c, 3, 53, 0
4, 33024, Note_on_c, 3, 53, 92
4, 33184, Note_on_c, 3, 53, 0
4, 33216, Note_on_c, 3, 55, 92
4, 33376, Note_on_c, 3, 55, 0
4, 33792, Note_on_c, 3, 55, 92
4, 33952, Note_on_c, 3, 55, 0
4, 33984, Note_on_c, 3, 57, 92
4, 34144, Note_on_c, 3, 57, 0
4, 34560, Note_on_c, 3, 53, 92
4, 34720, Note_on_c, 3, 53, 0
4, 34752, Note_on_c, 3, 50, 92
4, 34912, Note_on_c, 3, 50, 0
4, 35136, Note_on_c, 3, 52, 92
4, 35296, Note_on_c, 3, 52, 0
4, 35520, Note_on_c, 3, 53, 92
4, 35568, Note_on_c, 3, 53, 0
4, 35712, Note_on_c, 3, 57, 92
4, 35760, Note_on_c, 3, 57, 0
4, 35904, Note_on_c, 3, 59, 92
4, 35952, Note_on_c, 3, 59, 0
4, 39552, Note_on_c, 3, 55, 45
4, 39744, Note_on_c, 3, 55, 0
4, 39744, Note_on_c, 3, 54, 45
4, 39936, Note_on_c, 3, 54, 0
4, 39936, Note_on_c, 3, 52, 45
4, 40128, Note_on_c, 3, 52, 0
4, 40128, Note_on_c, 3, 50, 45
4, 40320, Note_on_c, 3, 50, 0
4, 40320, Note_on_c, 3, 52, 45
4, 40512, Note_on_c, 3, 52, 0
4, 40512, Note_on_c, 3, 54, 45
4, 41056, Note_on_c, 3, 54, 0
4, 41088, Note_on_c, 3, 64, 45
4, 41280, Note_on_c, 3, 64, 0
4, 41280, Note_on_c, 3, 62, 45
4, 41472, Note_on_c, 3, 62, 0
4, 41472, Note_on_c, 3, 61, 45
4, 41664, Note_on_c, 3, 61, 0
4, 41664, Note_on_c, 3, 59, 45
4, 41856, Note_on_c, 3, 59, 0
4, 41856, Note_on_c, 3, 61, 45
4, 42048, Note_on_c, 3, 61, 0
4, 42048, Note_on_c, 3, 62, 45
4, 42624, Note_on_c, 3, 62, 0
4, 42624, Note_on_c, 3, 56, 47
4, 42784, Note_on_c, 3, 56, 0
4, 42816, Note_on_c, 3, 56, 49
4, 43008, Note_on_c, 3, 56, 0
4, 43008, Note_on_c, 3, 57, 51
4, 43200, Note_on_c, 3, 57, 0
4, 43200, Note_on_c, 3, 59, 53
4, 43392, Note_on_c, 3, 59, 0
4, 43392, Note_on_c, 3, 52, 55
4, 43584, Note_on_c, 3, 52, 0
4, 43584, Note_on_c, 3, 54, 57
4, 43776, Note_on_c, 3, 54, 0
4, 43776, Note_on_c, 3, 56, 60
4, 43936, Note_on_c, 3, 56, 0
4, 43968, Note_on_c, 3, 56, 63
4, 44160, Note_on_c, 3, 56, 0
4, 44160, Note_on_c, 3, 57, 66
4, 44352, Note_on_c, 3, 57, 0
4, 44352, Note_on_c, 3, 52, 69
4, 44512, Note_on_c, 3, 52, 0
4, 47040, Note_on_c, 3, 52, 45
4, 47232, Note_on_c, 3, 52, 0
4, 47232, Note_on_c, 3, 62, 45
4, 47424, Note_on_c, 3, 62, 0
4, 47424, Note_on_c, 3, 56, 45
4, 47616, Note_on_c, 3, 56, 0
4, 47616, Note_on_c, 3, 64, 45
4, 47776, Note_on_c, 3, 64, 0
4, 50112, Note_on_c, 3, 56, 45
4, 50304, Note_on_c, 3, 56, 0
4, 50304, Note_on_c, 3, 62, 45
4, 50496, Note_on_c, 3, 62, 0
4, 50496, Note_on_c, 3, 59, 45
4, 50688, Note_on_c, 3, 59, 0
4, 50688, Note_on_c, 3, 68, 45
4, 50848, Note_on_c, 3, 68, 0
4, 51648, Note_on_c, 3, 49, 45
4, 51840, Note_on_c, 3, 49, 0
4, 51840, Note_on_c, 3, 57, 52
4, 52032, Note_on_c, 3, 57, 0
4, 52032, Note_on_c, 3, 52, 59
4, 52224, Note_on_c, 3, 52, 0
4, 52224, Note_on_c, 3, 61, 67
4, 52384, Note_on_c, 3, 61, 0
4, 52416, Note_on_c, 3, 57, 45
4, 52608, Note_on_c, 3, 57, 0
4, 52608, Note_on_c, 3, 64, 45
4, 52800, Note_on_c, 3, 64, 0
4, 52800, Note_on_c, 3, 61, 45
4, 52992, Note_on_c, 3, 61, 0
4, 52992, Note_on_c, 3, 69, 45
4, 53152, Note_on_c, 3, 69, 0
4, 53184, Note_on_c, 3, 52, 45
4, 53376, Note_on_c, 3, 52, 0
4, 53376, Note_on_c, 3, 62, 45
4, 53568, Note_on_c, 3, 62, 0
4, 53568, Note_on_c, 3, 56, 45
4, 53760, Note_on_c, 3, 56, 0
4, 53760, Note_on_c, 3, 62, 45
4, 53920, Note_on_c, 3, 62, 0
4, 53952, Note_on_c, 3, 49, 45
4, 54144, Note_on_c, 3, 49, 0
4, 54144, Note_on_c, 3, 57, 48
4, 54304, Note_on_c, 3, 57, 0
4, 54336, Note_on_c, 3, 57, 51
4, 54528, Note_on_c, 3, 57, 0
4, 54528, Note_on_c, 3, 61, 55
4, 54688, Note_on_c, 3, 61, 0
4, 54720, Note_on_c, 3, 61, 59
4, 54912, Note_on_c, 3, 61, 0
4, 54912, Note_on_c, 3, 69, 63
4, 55072, Note_on_c, 3, 69, 0
4, 55104, Note_on_c, 3, 69, 67
4, 55296, Note_on_c, 3, 69, 0
4, 55296, Note_on_c, 3, 73, 71
4, 55456, Note_on_c, 3, 73, 0
4, 55488, Note_on_c, 3, 56, 45
4, 55680, Note_on_c, 3, 56, 0
4, 55680, Note_on_c, 3, 62, 45
4, 55872, Note_on_c, 3, 62, 0
4, 55872, Note_on_c, 3, 59, 45
4, 56064, Note_on_c, 3, 59, 0
4, 56064, Note_on_c, 3, 68, 45
4, 56224, Note_on_c, 3, 68, 0
4, 56256, Note_on_c, 3, 57, 45
4, 56448, Note_on_c, 3, 57, 0
4, 56448, Note_on_c, 3, 61, 45
4, 56640, Note_on_c, 3, 61, 0
4, 56640, Note_on_c, 3, 57, 45
4, 56800, Note_on_c, 3, 57, 0
4, 56832, Note_on_c, 3, 61, 45
4, 56880, Note_on_c, 3, 61, 0
4, 57024, Note_on_c, 3, 69, 45
4, 57120, Note_on_c, 3, 69, 0
4, 57408, Note_on_c, 3, 59, 49
4, 57504, Note_on_c, 3, 59, 0
4, 58368, Note_on_c, 3, 56, 61
4, 58528, Note_on_c, 3, 56, 0
4, 58560, Note_on_c, 3, 59, 63
4, 58656, Note_on_c, 3, 59, 0
4, 58944, Note_on_c, 3, 61, 68
4, 59040, Note_on_c, 3, 61, 0
4, 60672, Note_on_c, 3, 52, 92
4, 60832, Note_on_c, 3, 52, 0
4, 60864, Note_on_c, 3, 61, 92
4, 60960, Note_on_c, 3, 61, 0
4, 61248, Note_on_c, 3, 56, 94
4, 61344, Note_on_c, 3, 56, 0
4, 62208, Note_on_c, 3, 59, 101
4, 62368, Note_on_c, 3, 59, 0
4, 62400, Note_on_c, 3, 62, 102
4, 62496, Note_on_c, 3, 62, 0
4, 62784, Note_on_c, 3, 57, 106
4, 62832, Note_on_c, 3, 57, 0
4, 62976, Note_on_c, 3, 57, 108
4, 63024, Note_on_c, 3, 57, 0
4, 63168, Note_on_c, 3, 56, 108
4, 63328, Note_on_c, 3, 56, 0
4, 63360, Note_on_c, 3, 59, 108
4, 63360, Note_on_c, 3, 62, 108
4, 63520, Note_on_c, 3, 59, 0
4, 63520, Note_on_c, 3, 62, 0
4, 63552, Note_on_c, 3, 59, 108
4, 63552, Note_on_c, 3, 62, 108
4, 63712, Note_on_c, 3, 59, 0
4, 63712, Note_on_c, 3, 62, 0
4, 63744, Note_on_c, 3, 59, 108
4, 63744, Note_on_c, 3, 62, 108
4, 63904, Note_on_c, 3, 59, 0
4, 63904, Note_on_c, 3, 62, 0
4, 63936, Note_on_c, 3, 61, 108
4, 64096, Note_on_c, 3, 61, 0
4, 64128, Note_on_c, 3, 61, 108
4, 64288, Note_on_c, 3, 61, 0
4, 64320, Note_on_c, 3, 61, 108
4, 64480, Note_on_c, 3, 61, 0
4, 64512, Note_on_c, 3, 49, 108
4, 64672, Note_on_c, 3, 49, 0
4, 64704, Note_on_c, 3, 57, 127
4, 65040, Note_on_c, 3, 57, 0
4, 65088, Note_on_c, 3, 59, 108
4, 65088, Note_on_c, 3, 62, 108
4, 65424, Note_on_c, 3, 59, 0
4, 65424, Note_on_c, 3, 62, 0
4, 65472, Note_on_c, 3, 52, 108
4, 65472, Note_on_c, 3, 61, 108
4, 65632, Note_on_c, 3, 52, 0
4, 65632, Note_on_c, 3, 61, 0
4, 66048, Note_on_c, 3, 52, 45
4, 66208, Note_on_c, 3, 52, 0
4, 66240, Note_on_c, 3, 52, 45
4, 66336, Note_on_c, 3, 52, 0
4, 66624, Note_on_c, 3, 53, 45
4, 66720, Note_on_c, 3, 53, 0
4, 67584, Note_on_c, 3, 53, 92
4, 67744, Note_on_c, 3, 53, 0
4, 67776, Note_on_c, 3, 48, 92
4, 67824, Note_on_c, 3, 48, 0
4, 67968, Note_on_c, 3, 48, 92
4, 68016, Note_on_c, 3, 48, 0
4, 68160, Note_on_c, 3, 52, 92
4, 68208, Note_on_c, 3, 52, 0
4, 68352, Note_on_c, 3, 55, 92
4, 68400, Note_on_c, 3, 55, 0
4, 68544, Note_on_c, 3, 60, 92
4, 68592, Note_on_c, 3, 60, 0
4, 68736, Note_on_c, 3, 62, 92
4, 68784, Note_on_c, 3, 62, 0
4, 68928, Note_on_c, 3, 63, 92
4, 68976, Note_on_c, 3, 63, 0
4, 69120, Note_on_c, 3, 64, 92
4, 69168, Note_on_c, 3, 64, 0
4, 69312, Note_on_c, 3, 65, 92
4, 69360, Note_on_c, 3, 65, 0
4, 69504, Note_on_c, 3, 69, 92
4, 69552, Note_on_c, 3, 69, 0
4, 69696, Note_on_c, 3, 72, 92
4, 69744, Note_on_c, 3, 72, 0
4, 69888, Note_on_c, 3, 65, 92
4, 69936, Note_on_c, 3, 65, 0
4, 70080, Note_on_c, 3, 65, 92
4, 70128, Note_on_c, 3, 65, 0
4, 70272, Note_on_c, 3, 65, 92
4, 70320, Note_on_c, 3, 65, 0
4, 70656, Note_on_c, 3, 69, 92
4, 70704, Note_on_c, 3, 69, 0
4, 70848, Note_on_c, 3, 69, 45
4, 71808, Note_on_c, 3, 69, 0
4, 71808, Note_on_c, 3, 70, 45
4, 72000, Note_on_c, 3, 70, 0
4, 72000, Note_on_c, 3, 69, 45
4, 72192, Note_on_c, 3, 69, 0
4, 72192, Note_on_c, 3, 72, 45
4, 72352, Note_on_c, 3, 72, 0
4, 72384, Note_on_c, 3, 70, 45
4, 72912, Note_on_c, 3, 70, 0
4, 72960, Note_on_c, 3, 63, 45
4, 73152, Note_on_c, 3, 63, 0
4, 73152, Note_on_c, 3, 62, 45
4, 73344, Note_on_c, 3, 62, 0
4, 73344, Note_on_c, 3, 60, 45
4, 73536, Note_on_c, 3, 60, 0
4, 73536, Note_on_c, 3, 58, 45
4, 73728, Note_on_c, 3, 58, 0
4, 73728, Note_on_c, 3, 70, 45
4, 73888, Note_on_c, 3, 70, 0
4, 73920, Note_on_c, 3, 67, 45
4, 73920, Note_on_c, 3, 70, 45
4, 74496, Note_on_c, 3, 67, 0
4, 74496, Note_on_c, 3, 70, 0
4, 74496, Note_on_c, 3, 74, 45
4, 74688, Note_on_c, 3, 74, 0
4, 74688, Note_on_c, 3, 72, 45
4, 74880, Note_on_c, 3, 72, 0
4, 74880, Note_on_c, 3, 74, 45
4, 75072, Note_on_c, 3, 74, 0
4, 75072, Note_on_c, 3, 72, 45
4, 75264, Note_on_c, 3, 72, 0
4, 75264, Note_on_c, 3, 70, 45
4, 75456, Note_on_c, 3, 70, 0
4, 75456, Note_on_c, 3, 69, 45
4, 75648, Note_on_c, 3, 69, 0
4, 75648, Note_on_c, 3, 70, 45
4, 76032, Note_on_c, 3, 70, 0
4, 76032, Note_on_c, 3, 72, 45
4, 76384, Note_on_c, 3, 72, 0
4, 76416, Note_on_c, 3, 60, 45
4, 76608, Note_on_c, 3, 60, 0
4, 76608, Note_on_c, 3, 65, 45
4, 76800, Note_on_c, 3, 65, 0
4, 76800, Note_on_c, 3, 60, 45
4, 76960, Note_on_c, 3, 60, 0
4, 76992, Note_on_c, 3, 57, 45
4, 77376, Note_on_c, 3, 57, 0
4, 77376, Note_on_c, 3, 60, 45
4, 77760, Note_on_c, 3, 60, 0
4, 77760, Note_on_c, 3, 57, 45
4, 78144, Note_on_c, 3, 57, 0
4, 78144, Note_on_c, 3, 69, 45
4, 78480, Note_on_c, 3, 69, 0
4, 78528, Note_on_c, 3, 57, 45
4, 78912, Note_on_c, 3, 57, 0
4, 78912, Note_on_c, 3, 60, 45
4, 79248, Note_on_c, 3, 60, 0
4, 79296, Note_on_c, 3, 62, 45
4, 80400, Note_on_c, 3, 62, 0
4, 80448, Note_on_c, 3, 50, 45
4, 80448, Note_on_c, 3, 58, 45
4, 80784, Note_on_c, 3, 50, 0
4, 80784, Note_on_c, 3, 58, 0
4, 80832, Note_on_c, 3, 55, 45
4, 80832, Note_on_c, 3, 58, 45
4, 82320, Note_on_c, 3, 55, 0
4, 82320, Note_on_c, 3, 58, 0
4, 82368, Note_on_c, 3, 53, 45
4, 82368, Note_on_c, 3, 57, 45
4, 83088, Note_on_c, 3, 53, 0
4, 83088, Note_on_c, 3, 57, 0
4, 83136, Note_on_c, 3, 57, 92
4, 83296, Note_on_c, 3, 57, 0
4, 83712, Note_on_c, 3, 57, 92
4, 83872, Note_on_c, 3, 57, 0
4, 83904, Note_on_c, 3, 60, 92
4, 84064, Note_on_c, 3, 60, 0
4, 84480, Note_on_c, 3, 55, 92
4, 84640, Note_on_c, 3, 55, 0
4, 84672, Note_on_c, 3, 53, 92
4, 84832, Note_on_c, 3, 53, 0
4, 85248, Note_on_c, 3, 53, 92
4, 85408, Note_on_c, 3, 53, 0
4, 85440, Note_on_c, 3, 53, 92
4, 85600, Note_on_c, 3, 53, 0
4, 85824, Note_on_c, 3, 53, 92
4, 85984, Note_on_c, 3, 53, 0
4, 86208, Note_on_c, 3, 53, 92
4, 86368, Note_on_c, 3, 53, 0
4, 86784, Note_on_c, 3, 53, 92
4, 86944, Note_on_c, 3, 53, 0
4, 86976, Note_on_c, 3, 55, 92
4, 87136, Note_on_c, 3, 55, 0
4, 87552, Note_on_c, 3, 55, 92
4, 87712, Note_on_c, 3, 55, 0
4, 87744, Note_on_c, 3, 57, 92
4, 87904, Note_on_c, 3, 57, 0
4, 88320, Note_on_c, 3, 53, 92
4, 88480, Note_on_c, 3, 53, 0
4, 88512, Note_on_c, 3, 50, 92
4, 88672, Note_on_c, 3, 50, 0
4, 88896, Note_on_c, 3, 52, 92
4, 89056, Note_on_c, 3, 52, 0
4, 89280, Note_on_c, 3, 53, 92
4, 89328, Note_on_c, 3, 53, 0
4, 89472, Note_on_c, 3, 57, 92
4, 89520, Note_on_c, 3, 57, 0
4, 89664, Note_on_c, 3, 59, 92
4, 89712, Note_on_c, 3, 59, 0
4, 93312, Note_on_c, 3, 55, 45
4, 93504, Note_on_c, 3, 55, 0
4, 93504, Note_on_c, 3, 54, 45
4, 93696, Note_on_c, 3, 54, 0
4, 93696, Note_on_c, 3, 52, 45
4, 93888, Note_on_c, 3, 52, 0
4, 93888, Note_on_c, 3, 50, 45
4, 94080, Note_on_c, 3, 50, 0
4, 94080, Note_on_c, 3, 52, 45
4, 94272, Note_on_c, 3, 52, 0
4, 94272, Note_on_c, 3, 54, 45
4, 94816, Note_on_c, 3, 54, 0
4, 94848, Note_on_c, 3, 64, 45
4, 95040, Note_on_c, 3, 64, 0
4, 95040, Note_on_c, 3, 62, 45
4, 95232, Note_on_c, 3, 62, 0
4, 95232, Note_on_c, 3, 61, 45
4, 95424, Note_on_c, 3, 61, 0
4, 95424, Note_on_c, 3, 59, 45
4, 95616, Note_on_c, 3, 59, 0
4, 95616, Note_on_c, 3, 61, 45
4, 95808, Note_on_c, 3, 61, 0
4, 95808, Note_on_c, 3, 62, 45
4, 96384, Note_on_c, 3, 62, 0
4, 96384, Note_on_c, 3, 56, 47
4, 96544, Note_on_c, 3, 56, 0
4, 96576, Note_on_c, 3, 56, 49
4, 96768, Note_on_c, 3, 56, 0
4, 96768, Note_on_c, 3, 57, 51
4, 96960, Note_on_c, 3, 57, 0
4, 96960, Note_on_c, 3, 59, 53
4, 97152, Note_on_c, 3, 59, 0
4, 97152, Note_on_c, 3, 52, 55
4, 97344, Note_on_c, 3, 52, 0
4, 97344, Note_on_c, 3, 54, 57
4, 97536, Note_on_c, 3, 54, 0
4, 97536, Note_on_c, 3, 56, 60
4, 97696, Note_on_c, 3, 56, 0
4, 97728, Note_on_c, 3, 56, 63
4, 97920, Note_on_c, 3, 56, 0
4, 97920, Note_on_c, 3, 57, 66
4, 98112, Note_on_c, 3, 57, 0
4, 98112, Note_on_c, 3, 52, 69
4, 98272, Note_on_c, 3, 52, 0
4, 100800, Note_on_c, 3, 52, 45
4, 100992, Note_on_c, 3, 52, 0
4, 100992, Note_on_c, 3, 62, 45
4, 101184, Note_on_c, 3, 62, 0
4, 101184, Note_on_c, 3, 56, 45
4, 101376, Note_on_c, 3, 56, 0
4, 101376, Note_on_c, 3, 64, 45
4, 101536, Note_on_c, 3, 64, 0
4, 103872, Note_on_c, 3, 56, 45
4, 104064, Note_on_c, 3, 56, 0
4, 104064, Note_on_c, 3, 62, 45
4, 104256, Note_on_c, 3, 62, 0
4, 104256, Note_on_c, 3, 59, 45
4, 104448, Note_on_c, 3, 59, 0
4, 104448, Note_on_c, 3, 68, 45
4, 104608, Note_on_c, 3, 68, 0
4, 105408, Note_on_c, 3, 49, 45
4, 105600, Note_on_c, 3, 49, 0
4, 105600, Note_on_c, 3, 57, 52
4, 105792, Note_on_c, 3, 57, 0
4, 105792, Note_on_c, 3, 52, 59
4, 105984, Note_on_c, 3, 52, 0
4, 105984, Note_on_c, 3, 61, 67
4, 106144, Note_on_c, 3, 61, 0
4, 106176, Note_on_c, 3, 57, 45
4, 106368, Note_on_c, 3, 57, 0
4, 106368, Note_on_c, 3, 64, 45
4, 106560, Note_on_c, 3, 64, 0
4, 106560, Note_on_c, 3, 61, 45
4, 106752, Note_on_c, 3, 61, 0
4, 106752, Note_on_c, 3, 69, 45
4, 106912, Note_on_c, 3, 69, 0
4, 106944, Note_on_c, 3, 52, 45
4, 107136, Note_on_c, 3, 52, 0
4, 107136, Note_on_c, 3, 62, 45
4, 107328, Note_on_c, 3, 62, 0
4, 107328, Note_on_c, 3, 56, 45
4, 107520, Note_on_c, 3, 56, 0
4, 107520, Note_on_c, 3, 62, 45
4, 107680, Note_on_c, 3, 62, 0
4, 107712, Note_on_c, 3, 49, 45
4, 107904, Note_on_c, 3, 49, 0
4, 107904, Note_on_c, 3, 57, 48
4, 108064, Note_on_c, 3, 57, 0
4, 108096, Note_on_c, 3, 57, 51
4, 108288, Note_on_c, 3, 57, 0
4, 108288, Note_on_c, 3, 61, 55
4, 108448, Note_on_c, 3, 61, 0
4, 108480, Note_on_c, 3, 61, 59
4, 108672, Note_on_c, 3, 61, 0
4, 108672, Note_on_c, 3, 69, 63
4, 108832, Note_on_c, 3, 69, 0
4, 108864, Note_on_c, 3, 69, 67
4, 109056, Note_on_c, 3, 69, 0
4, 109056, Note_on_c, 3, 73, 71
4, 109216, Note_on_c, 3, 73, 0
4, 109248, Note_on_c, 3, 56, 45
4, 109440, Note_on_c, 3, 56, 0
4, 109440, Note_on_c, 3, 62, 45
4, 109632, Note_on_c, 3, 62, 0
4, 109632, Note_on_c, 3, 59, 45
4, 109824, Note_on_c, 3, 59, 0
4, 109824, Note_on_c, 3, 68, 45
4, 109984, Note_on_c, 3, 68, 0
4, 110016, Note_on_c, 3, 57, 45
4, 110208, Note_on_c, 3, 57, 0
4, 110208, Note_on_c, 3, 61, 45
4, 110400, Note_on_c, 3, 61, 0
4, 110400, Note_on_c, 3, 57, 45
4, 110560, Note_on_c, 3, 57, 0
4, 110592, Note_on_c, 3, 61, 45
4, 110640, Note_on_c, 3, 61, 0
4, 110784, Note_on_c, 3, 69, 45
4, 110880, Note_on_c, 3, 69, 0
4, 111168, Note_on_c, 3, 59, 49
4, 111264, Note_on_c, 3, 59, 0
4, 112128, Note_on_c, 3, 56, 61
4, 112288, Note_on_c, 3, 56, 0
4, 112320, Note_on_c, 3, 59, 63
4, 112416, Note_on_c, 3, 59, 0
4, 112704, Note_on_c, 3, 61, 68
4, 112800, Note_on_c, 3, 61, 0
4, 114432, Note_on_c, 3, 52, 92
4, 114592, Note_on_c, 3, 52, 0
4, 114624, Note_on_c, 3, 61, 92
4, 114720, Note_on_c, 3, 61, 0
4, 115008, Note_on_c, 3, 56, 94
4, 115104, Note_on_c, 3, 56, 0
4, 115968, Note_on_c, 3, 59, 101
4, 116128, Note_on_c, 3, 59, 0
4, 116160, Note_on_c, 3, 62, 102
4, 116256, Note_on_c, 3, 62, 0
4, 116544, Note_on_c, 3, 57, 106
4, 116592, Note_on_c, 3, 57, 0
4, 116736, Note_on_c, 3, 57, 108
4, 116784, Note_on_c, 3, 57, 0
4, 116928, Note_on_c, 3, 56, 108
4, 117088, Note_on_c, 3, 56, 0
4, 117120, Note_on_c, 3, 59, 108
4, 117120, Note_on_c, 3, 62, 108
4, 117280, Note_on_c, 3, 59, 0
4, 117280, Note_on_c, 3, 62, 0
4, 117312, Note_on_c, 3, 59, 108
4, 117312, Note_on_c, 3, 62, 108
4, 117472, Note_on_c, 3, 59, 0
4, 117472, Note_on_c, 3, 62, 0
4, 117504, Note_on_c, 3, 59, 108
4, 117504, Note_on_c, 3, 62, 108
4, 117664, Note_on_c, 3, 59, 0
4, 117664, Note_on_c, 3, 62, 0
4, 117696, Note_on_c, 3, 61, 108
4, 117856, Note_on_c, 3, 61, 0
4, 117888, Note_on_c, 3, 61, 108
4, 118048, Note_on_c, 3, 61, 0
4, 118080, Note_on_c, 3, 61, 108
4, 118240, Note_on_c, 3, 61, 0
4, 118272, Note_on_c, 3, 49, 108
4, 118432, Note_on_c, 3, 49, 0
4, 118464, Note_on_c, 3, 57, 127
4, 118800, Note_on_c, 3, 57, 0
4, 118848, Note_on_c, 3, 59, 108
4, 118848, Note_on_c, 3, 62, 108
4, 119184, Note_on_c, 3, 59, 0
4, 119184, Note_on_c, 3, 62, 0
4, 119232, Note_on_c, 3, 52, 108
4, 119232, Note_on_c, 3, 61, 108
4, 119392, Note_on_c, 3, 52, 0
4, 119392, Note_on_c, 3, 61, 0
4, 119808, Note_on_c, 3, 54, 45
4, 119968, Note_on_c, 3, 54, 0
4, 120000, Note_on_c, 3, 52, 45
4, 120096, Note_on_c, 3, 52, 0
4, 120384, Note_on_c, 3, 52, 45
4, 120480, Note_on_c, 3, 52, 0
4, 124416, Note_on_c, 3, 50, 92
4, 124576, Note_on_c, 3, 50, 0
4, 124608, Note_on_c, 3, 53, 127
4, 124944, Note_on_c, 3, 53, 0
4, 124992, Note_on_c, 3, 48, 92
4, 125328, Note_on_c, 3, 48, 0
4, 125952, Note_on_c, 3, 57, 45
4, 126112, Note_on_c, 3, 57, 0
4, 126144, Note_on_c, 3, 55, 45
4, 126304, Note_on_c, 3, 55, 0
4, 126528, Note_on_c, 3, 55, 45
4, 126688, Note_on_c, 3, 55, 0
4, 127872, Note_on_c, 3, 65, 45
4, 128064, Note_on_c, 3, 65, 0
4, 128064, Note_on_c, 3, 64, 45
4, 128256, Note_on_c, 3, 64, 0
4, 128256, Note_on_c, 3, 62, 45
4, 128448, Note_on_c, 3, 62, 0
4, 128448, Note_on_c, 3, 60, 45
4, 128640, Note_on_c, 3, 60, 0
4, 128832, Note_on_c, 3, 64, 45
4, 128992, Note_on_c, 3, 64, 0
4, 129024, Note_on_c, 3, 69, 45
4, 129408, Note_on_c, 3, 69, 0
4, 129408, Note_on_c, 3, 60, 45
4, 129600, Note_on_c, 3, 60, 0
4, 129600, Note_on_c, 3, 56, 45
4, 129792, Note_on_c, 3, 56, 0
4, 129792, Note_on_c, 3, 57, 45
4, 129984, Note_on_c, 3, 57, 0
4, 129984, Note_on_c, 3, 56, 45
4, 130176, Note_on_c, 3, 56, 0
4, 130176, Note_on_c, 3, 57, 45
4, 130368, Note_on_c, 3, 57, 0
4, 130368, Note_on_c, 3, 59, 45
4, 130912, Note_on_c, 3, 59, 0
4, 130944, Note_on_c, 3, 62, 45
4, 131136, Note_on_c, 3, 62, 0
4, 131136, Note_on_c, 3, 60, 45
4, 131328, Note_on_c, 3, 60, 0
4, 131328, Note_on_c, 3, 59, 45
4, 131520, Note_on_c, 3, 59, 0
4, 131520, Note_on_c, 3, 57, 45
4, 131712, Note_on_c, 3, 57, 0
4, 131712, Note_on_c, 3, 59, 45
4, 131904, Note_on_c, 3, 59, 0
4, 131904, Note_on_c, 3, 60, 45
4, 132064, Note_on_c, 3, 60, 0
4, 132096, Note_on_c, 3, 57, 45
4, 132144, Note_on_c, 3, 57, 0
4, 132288, Note_on_c, 3, 60, 45
4, 132384, Note_on_c, 3, 60, 0
4, 132672, Note_on_c, 3, 55, 45
4, 132768, Note_on_c, 3, 55, 0
4, 134016, Note_on_c, 3, 61, 45
4, 134208, Note_on_c, 3, 61, 0
4, 134208, Note_on_c, 3, 60, 45
4, 134400, Note_on_c, 3, 60, 0
4, 134400, Note_on_c, 3, 58, 45
4, 134592, Note_on_c, 3, 58, 0
4, 134592, Note_on_c, 3, 57, 45
4, 134784, Note_on_c, 3, 57, 0
4, 134784, Note_on_c, 3, 58, 45
4, 134976, Note_on_c, 3, 58, 0
4, 134976, Note_on_c, 3, 60, 45
4, 135168, Note_on_c, 3, 60, 0
4, 135168, Note_on_c, 3, 62, 45
4, 135360, Note_on_c, 3, 62, 0
4, 135360, Note_on_c, 3, 61, 45
4, 135552, Note_on_c, 3, 61, 0
4, 135552, Note_on_c, 3, 62, 45
4, 135744, Note_on_c, 3, 62, 0
4, 135744, Note_on_c, 3, 61, 45
4, 135904, Note_on_c, 3, 61, 0
4, 135936, Note_on_c, 3, 61, 45
4, 136128, Note_on_c, 3, 61, 0
4, 136128, Note_on_c, 3, 62, 45
4, 136320, Note_on_c, 3, 62, 0
4, 136320, Note_on_c, 3, 58, 45
4, 136512, Note_on_c, 3, 58, 0
4, 136512, Note_on_c, 3, 57, 45
4, 136672, Note_on_c, 3, 57, 0
4, 136704, Note_on_c, 3, 62, 45
4, 136752, Note_on_c, 3, 62, 0
4, 136896, Note_on_c, 3, 65, 45
4, 136992, Note_on_c, 3, 65, 0
4, 137280, Note_on_c, 3, 61, 45
4, 137328, Note_on_c, 3, 61, 0
4, 137472, Note_on_c, 3, 61, 45
4, 137520, Note_on_c, 3, 61, 0
4, 137664, Note_on_c, 3, 62, 45
4, 137760, Note_on_c, 3, 62, 0
4, 138048, Note_on_c, 3, 57, 45
4, 138096, Note_on_c, 3, 57, 0
4, 138240, Note_on_c, 3, 57, 45
4, 138768, Note_on_c, 3, 57, 0
4, 138816, Note_on_c, 3, 49, 30
4, 139392, Note_on_c, 3, 49, 0
4, 139392, Note_on_c, 3, 50, 30
4, 139584, Note_on_c, 3, 50, 0
4, 139584, Note_on_c, 3, 52, 30
4, 139776, Note_on_c, 3, 52, 0
4, 139776, Note_on_c, 3, 53, 30
4, 139968, Note_on_c, 3, 53, 0
4, 139968, Note_on_c, 3, 52, 30
4, 140160, Note_on_c, 3, 52, 0
4, 140160, Note_on_c, 3, 53, 30
4, 140352, Note_on_c, 3, 53, 0
4, 140352, Note_on_c, 3, 55, 30
4, 140544, Note_on_c, 3, 55, 0
4, 140544, Note_on_c, 3, 58, 30
4, 140928, Note_on_c, 3, 58, 0
4, 140928, Note_on_c, 3, 57, 30
4, 141120, Note_on_c, 3, 57, 0
4, 141120, Note_on_c, 3, 49, 30
4, 141312, Note_on_c, 3, 49, 0
4, 141312, Note_on_c, 3, 52, 30
4, 141472, Note_on_c, 3, 52, 0
4, 141504, Note_on_c, 3, 50, 45
4, 141552, Note_on_c, 3, 50, 0
4, 141888, Note_on_c, 3, 62, 45
4, 142048, Note_on_c, 3, 62, 0
4, 142272, Note_on_c, 3, 62, 45
4, 142432, Note_on_c, 3, 62, 0
4, 142656, Note_on_c, 3, 61, 45
4, 142816, Note_on_c, 3, 61, 0
4, 143040, Note_on_c, 3, 59, 45
4, 143424, Note_on_c, 3, 59, 0
4, 143424, Note_on_c, 3, 57, 45
4, 143616, Note_on_c, 3, 57, 0
4, 143616, Note_on_c, 3, 56, 45
4, 143776, Note_on_c, 3, 56, 0
4, 143808, Note_on_c, 3, 57, 45
4, 144528, Note_on_c, 3, 57, 0
4, 144576, Note_on_c, 3, 62, 45
4, 144736, Note_on_c, 3, 62, 0
4, 144960, Note_on_c, 3, 62, 45
4, 145120, Note_on_c, 3, 62, 0
4, 145344, Note_on_c, 3, 62, 45
4, 145504, Note_on_c, 3, 62, 0
4, 145728, Note_on_c, 3, 61, 45
4, 145888, Note_on_c, 3, 61, 0
4, 146112, Note_on_c, 3, 59, 45
4, 146272, Note_on_c, 3, 59, 0
4, 146496, Note_on_c, 3, 61, 45
4, 146656, Note_on_c, 3, 61, 0
4, 146880, Note_on_c, 3, 62, 45
4, 147600, Note_on_c, 3, 62, 0
4, 147648, Note_on_c, 3, 74, 45
4, 147808, Note_on_c, 3, 74, 0
4, 148032, Note_on_c, 3, 74, 51
4, 148192, Note_on_c, 3, 74, 0
4, 148416, Note_on_c, 3, 74, 59
4, 148576, Note_on_c, 3, 74, 0
4, 148800, Note_on_c, 3, 74, 67
4, 148960, Note_on_c, 3, 74, 0
4, 149184, Note_on_c, 3, 74, 45
4, 149344, Note_on_c, 3, 74, 0
4, 149568, Note_on_c, 3, 74, 45
4, 149728, Note_on_c, 3, 74, 0
4, 149952, Note_on_c, 3, 73, 45
4, 150112, Note_on_c, 3, 73, 0
4, 150336, Note_on_c, 3, 69, 59
4, 150496, Note_on_c, 3, 69, 0
4, 150720, Note_on_c, 3, 69, 45
4, 151440, Note_on_c, 3, 69, 0
4, 151488, Note_on_c, 3, 66, 45
4, 151648, Note_on_c, 3, 66, 0
4, 151872, Note_on_c, 3, 66, 59
4, 152032, Note_on_c, 3, 66, 0
4, 152256, Note_on_c, 3, 66, 45
4, 152976, Note_on_c, 3, 66, 0
4, 153024, Note_on_c, 3, 66, 45
4, 153184, Note_on_c, 3, 66, 0
4, 153408, Note_on_c, 3, 66, 59
4, 153568, Note_on_c, 3, 66, 0
4, 153792, Note_on_c, 3, 66, 45
4, 155280, Note_on_c, 3, 66, 0
4, 155328, Note_on_c, 3, 67, 45
4, 156432, Note_on_c, 3, 67, 0
4, 156480, Note_on_c, 3, 67, 45
4, 156816, Note_on_c, 3, 67, 0
4, 156864, Note_on_c, 3, 66, 30
4, 157024, Note_on_c, 3, 66, 0
4, 157056, Note_on_c, 3, 52, 30
4, 157248, Note_on_c, 3, 52, 0
4, 157248, Note_on_c, 3, 54, 30
4, 157440, Note_on_c, 3, 54, 0
4, 157440, Note_on_c, 3, 55, 30
4, 157632, Note_on_c, 3, 55, 0
4, 157632, Note_on_c, 3, 57, 30
4, 157824, Note_on_c, 3, 57, 0
4, 157824, Note_on_c, 3, 55, 30
4, 158016, Note_on_c, 3, 55, 0
4, 158016, Note_on_c, 3, 54, 30
4, 158560, Note_on_c, 3, 54, 0
4, 158592, Note_on_c, 3, 54, 30
4, 158784, Note_on_c, 3, 54, 0
4, 158784, Note_on_c, 3, 55, 30
4, 158976, Note_on_c, 3, 55, 0
4, 158976, Note_on_c, 3, 57, 30
4, 159168, Note_on_c, 3, 57, 0
4, 159360, Note_on_c, 3, 60, 30
4, 159552, Note_on_c, 3, 60, 0
4, 159552, Note_on_c, 3, 62, 30
4, 159744, Note_on_c, 3, 62, 0
4, 159744, Note_on_c, 3, 72, 30
4, 159904, Note_on_c, 3, 72, 0
4, 159936, Note_on_c, 3, 74, 30
4, 160272, Note_on_c, 3, 74, 0
4, 160320, Note_on_c, 3, 73, 30
4, 161232, Note_on_c, 3, 73, 0
4, 161280, Note_on_c, 3, 61, 30
4, 161440, Note_on_c, 3, 61, 0
4, 161472, Note_on_c, 3, 58, 30
4, 161632, Note_on_c, 3, 58, 0
4, 161856, Note_on_c, 3, 53, 30
4, 162016, Note_on_c, 3, 53, 0
4, 162240, Note_on_c, 3, 49, 30
4, 162400, Note_on_c, 3, 49, 0
4, 162624, Note_on_c, 3, 51, 30
4, 162784, Note_on_c, 3, 51, 0
4, 163008, Note_on_c, 3, 48, 30
4, 163168, Note_on_c, 3, 48, 0
4, 163392, Note_on_c, 3, 49, 30
4, 163552, Note_on_c, 3, 49, 0
4, 163776, Note_on_c, 3, 49, 30
4, 163936, Note_on_c, 3, 49, 0
4, 164160, Note_on_c, 3, 49, 30
4, 164352, Note_on_c, 3, 49, 0
4, 164352, Note_on_c, 3, 48, 30
4, 164512, Note_on_c, 3, 48, 0
4, 164544, Note_on_c, 3, 53, 30
4, 164704, Note_on_c, 3, 53, 0
4, 164928, Note_on_c, 3, 53, 30
4, 165088, Note_on_c, 3, 53, 0
4, 165312, Note_on_c, 3, 53, 30
4, 165472, Note_on_c, 3, 53, 0
4, 165696, Note_on_c, 3, 53, 30
4, 165856, Note_on_c, 3, 53, 0
4, 166080, Note_on_c, 3, 53, 30
4, 166240, Note_on_c, 3, 53, 0
4, 166464, Note_on_c, 3, 53, 30
4, 166624, Note_on_c, 3, 53, 0
4, 166848, Note_on_c, 3, 53, 30
4, 167008, Note_on_c, 3, 53, 0
4, 167232, Note_on_c, 3, 52, 30
4, 167232, Note_on_c, 3, 55, 30
4, 167392, Note_on_c, 3, 52, 0
4, 167392, Note_on_c, 3, 55, 0
4, 167616, Note_on_c, 3, 55, 30
4, 167776, Note_on_c, 3, 55, 0
4, 168000, Note_on_c, 3, 52, 30
4, 168192, Note_on_c, 3, 52, 0
4, 168192, Note_on_c, 3, 53, 30
4, 168352, Note_on_c, 3, 53, 0
4, 168384, Note_on_c, 3, 53, 30
4, 168544, Note_on_c, 3, 53, 0
4, 168768, Note_on_c, 3, 50, 30
4, 168960, Note_on_c, 3, 50, 0
4, 168960, Note_on_c, 3, 51, 30
4, 169120, Note_on_c, 3, 51, 0
4, 169152, Note_on_c, 3, 51, 30
4, 169312, Note_on_c, 3, 51, 0
4, 169536, Note_on_c, 3, 48, 30
4, 169728, Note_on_c, 3, 48, 0
4, 169728, Note_on_c, 3, 49, 30
4, 169888, Note_on_c, 3, 49, 0
4, 169920, Note_on_c, 3, 49, 30
4, 170080, Note_on_c, 3, 49, 0
4, 170304, Note_on_c, 3, 58, 30
4, 170496, Note_on_c, 3, 58, 0
4, 170496, Note_on_c, 3, 60, 30
4, 170656, Note_on_c, 3, 60, 0
4, 170688, Note_on_c, 3, 65, 30
4, 170848, Note_on_c, 3, 65, 0
4, 171072, Note_on_c, 3, 53, 30
4, 171232, Note_on_c, 3, 53, 0
4, 171456, Note_on_c, 3, 53, 30
4, 171616, Note_on_c, 3, 53, 0
4, 171840, Note_on_c, 3, 53, 30
4, 172000, Note_on_c, 3, 53, 0
4, 172224, Note_on_c, 3, 53, 30
4, 172384, Note_on_c, 3, 53, 0
4, 172608, Note_on_c, 3, 53, 30
4, 172768, Note_on_c, 3, 53, 0
4, 172992, Note_on_c, 3, 53, 30
4, 173152, Note_on_c, 3, 53, 0
4, 173376, Note_on_c, 3, 52, 30
4, 173536, Note_on_c, 3, 52, 0
4, 173760, Note_on_c, 3, 53, 30
4, 173920, Note_on_c, 3, 53, 0
4, 174144, Note_on_c, 3, 53, 30
4, 174304, Note_on_c, 3, 53, 0
4, 174528, Note_on_c, 3, 53, 30
4, 174688, Note_on_c, 3, 53, 0
4, 174912, Note_on_c, 3, 53, 30
4, 175072, Note_on_c, 3, 53, 0
4, 175296, Note_on_c, 3, 65, 30
4, 175456, Note_on_c, 3, 65, 0
4, 175680, Note_on_c, 3, 67, 30
4, 175744, Note_on_c, 3, 67, 0
4, 175744, Note_on_c, 3, 65, 37
4, 175808, Note_on_c, 3, 65, 0
4, 175808, Note_on_c, 3, 67, 44
4, 175872, Note_on_c, 3, 67, 0
4, 175872, Note_on_c, 3, 65, 51
4, 175936, Note_on_c, 3, 65, 0
4, 175936, Note_on_c, 3, 67, 59
4, 176000, Note_on_c, 3, 67, 0
4, 176000, Note_on_c, 3, 65, 67
4, 176064, Note_on_c, 3, 65, 0
4, 176064, Note_on_c, 3, 67, 75
4, 176128, Note_on_c, 3, 67, 0
4, 176128, Note_on_c, 3, 65, 73
4, 176192, Note_on_c, 3, 65, 0
4, 176192, Note_on_c, 3, 67, 71
4, 176256, Note_on_c, 3, 67, 0
4, 176256, Note_on_c, 3, 65, 69
4, 176320, Note_on_c, 3, 65, 0
4, 176320, Note_on_c, 3, 67, 67
4, 176384, Note_on_c, 3, 67, 0
4, 176384, Note_on_c, 3, 65, 65
4, 176448, Note_on_c, 3, 65, 0
4, 176448, Note_on_c, 3, 67, 63
4, 176512, Note_on_c, 3, 67, 0
4, 176512, Note_on_c, 3, 65, 60
4, 176576, Note_on_c, 3, 65, 0
4, 176576, Note_on_c, 3, 67, 57
4, 176640, Note_on_c, 3, 67, 0
4, 176640, Note_on_c, 3, 65, 54
4, 176704, Note_on_c, 3, 65, 0
4, 176704, Note_on_c, 3, 64, 51
4, 176768, Note_on_c, 3, 64, 0
4, 176768, Note_on_c, 3, 65, 48
4, 176830, Note_on_c, 3, 65, 0
4, 176832, Note_on_c, 3, 64, 45
4, 177024, Note_on_c, 3, 64, 0
4, 177024, Note_on_c, 3, 60, 47
4, 177216, Note_on_c, 3, 60, 0
4, 177216, Note_on_c, 3, 58, 49
4, 177408, Note_on_c, 3, 58, 0
4, 177408, Note_on_c, 3, 56, 51
4, 177600, Note_on_c, 3, 56, 0
4, 177600, Note_on_c, 3, 55, 53
4, 177792, Note_on_c, 3, 55, 0
4, 177792, Note_on_c, 3, 53, 55
4, 177984, Note_on_c, 3, 53, 0
4, 177984, Note_on_c, 3, 52, 57
4, 178176, Note_on_c, 3, 52, 0
4, 178176, Note_on_c, 3, 49, 59
4, 178336, Note_on_c, 3, 49, 0
4, 178368, Note_on_c, 3, 48, 61
4, 178560, Note_on_c, 3, 48, 0
4, 178560, Note_on_c, 3, 60, 63
4, 178752, Note_on_c, 3, 60, 0
4, 178752, Note_on_c, 3, 53, 66
4, 178944, Note_on_c, 3, 53, 0
4, 178944, Note_on_c, 3, 51, 69
4, 179136, Note_on_c, 3, 51, 0
4, 179136, Note_on_c, 3, 49, 72
4, 179328, Note_on_c, 3, 49, 0
4, 179328, Note_on_c, 3, 48, 75
4, 179488, Note_on_c, 3, 48, 0
4, 179520, Note_on_c, 3, 65, 78
4, 179712, Note_on_c, 3, 65, 0
4, 179712, Note_on_c, 3, 60, 81
4, 179712, Note_on_c, 3, 64, 81
4, 179872, Note_on_c, 3, 60, 0
4, 179872, Note_on_c, 3, 64, 0
4, 179904, Note_on_c, 3, 76, 84
4, 180096, Note_on_c, 3, 76, 0
4, 180096, Note_on_c, 3, 72, 87
4, 180288, Note_on_c, 3, 72, 0
4, 180288, Note_on_c, 3, 70, 90
4, 180480, Note_on_c, 3, 70, 0
4, 180480, Note_on_c, 3, 68, 93
4, 180672, Note_on_c, 3, 68, 0
4, 180672, Note_on_c, 3, 67, 96
4, 180864, Note_on_c, 3, 67, 0
4, 180864, Note_on_c, 3, 65, 99
4, 181056, Note_on_c, 3, 65, 0
4, 181056, Note_on_c, 3, 60, 102
4, 181248, Note_on_c, 3, 60, 0
4, 181248, Note_on_c, 3, 58, 105
4, 181408, Note_on_c, 3, 58, 0
4, 181440, Note_on_c, 3, 55, 108
4, 181696, Note_on_c, 3, 55, 0
4, 181728, Note_on_c, 3, 52, 108
4, 181760, Note_on_c, 3, 52, 0
4, 181824, Note_on_c, 3, 56, 127
4, 182160, Note_on_c, 3, 56, 0
4, 182208, Note_on_c, 3, 60, 127
4, 182208, Note_on_c, 3, 68, 127
4, 182686, Note_on_c, 3, 60, 0
4, 182686, Note_on_c, 3, 68, 0
4, 182688, Note_on_c, 3, 58, 103
4, 182784, Note_on_c, 3, 58, 0
4, 182784, Note_on_c, 3, 56, 98
4, 182880, Note_on_c, 3, 56, 0
4, 182880, Note_on_c, 3, 55, 93
4, 182976, Note_on_c, 3, 55, 0
4, 182976, Note_on_c, 3, 56, 88
4, 183072, Note_on_c, 3, 56, 0
4, 183072, Note_on_c, 3, 60, 83
4, 183168, Note_on_c, 3, 60, 0
4, 183168, Note_on_c, 3, 65, 78
4, 183264, Note_on_c, 3, 65, 0
4, 183264, Note_on_c, 3, 67, 73
4, 183360, Note_on_c, 3, 67, 0
4, 183360, Note_on_c, 3, 68, 68
4, 183456, Note_on_c, 3, 68, 0
4, 183456, Note_on_c, 3, 65, 63
4, 183552, Note_on_c, 3, 65, 0
4, 183552, Note_on_c, 3, 60, 57
4, 183648, Note_on_c, 3, 60, 0
4, 183648, Note_on_c, 3, 56, 51
4, 183742, Note_on_c, 3, 56, 0
4, 183744, Note_on_c, 3, 60, 108
4, 184000, Note_on_c, 3, 60, 0
4, 184032, Note_on_c, 3, 57, 108
4, 184064, Note_on_c, 3, 57, 0
4, 184128, Note_on_c, 3, 61, 127
4, 184464, Note_on_c, 3, 61, 0
4, 185760, Note_on_c, 3, 65, 93
4, 185856, Note_on_c, 3, 65, 0
4, 185856, Note_on_c, 3, 70, 77
4, 185952, Note_on_c, 3, 70, 0
4, 185952, Note_on_c, 3, 73, 61
4, 186046, Note_on_c, 3, 73, 0
4, 186048, Note_on_c, 3, 61, 92
4, 186304, Note_on_c, 3, 61, 0
4, 186336, Note_on_c, 3, 58, 92
4, 186368, Note_on_c, 3, 58, 0
4, 186432, Note_on_c, 3, 64, 127
4, 186768, Note_on_c, 3, 64, 0
4, 187200, Note_on_c, 3, 49, 92
4, 187246, Note_on_c, 3, 49, 0
4, 187248, Note_on_c, 3, 49, 92
4, 187294, Note_on_c, 3, 49, 0
4, 187296, Note_on_c, 3, 49, 92
4, 187342, Note_on_c, 3, 49, 0
4, 187344, Note_on_c, 3, 49, 92
4, 187390, Note_on_c, 3, 49, 0
4, 187392, Note_on_c, 3, 49, 92
4, 187438, Note_on_c, 3, 49, 0
4, 187440, Note_on_c, 3, 49, 92
4, 187486, Note_on_c, 3, 49, 0
4, 187488, Note_on_c, 3, 49, 92
4, 187534, Note_on_c, 3, 49, 0
4, 187536, Note_on_c, 3, 49, 92
4, 187582, Note_on_c, 3, 49, 0
4, 187584, Note_on_c, 3, 49, 92
4, 187744, Note_on_c, 3, 49, 0
4, 188352, Note_on_c, 3, 49, 92
4, 188398, Note_on_c, 3, 49, 0
4, 188400, Note_on_c, 3, 49, 92
4, 188446, Note_on_c, 3, 49, 0
4, 188448, Note_on_c, 3, 49, 92
4, 188494, Note_on_c, 3, 49, 0
4, 188496, Note_on_c, 3, 49, 92
4, 188542, Note_on_c, 3, 49, 0
4, 188544, Note_on_c, 3, 49, 92
4, 188590, Note_on_c, 3, 49, 0
4, 188592, Note_on_c, 3, 49, 92
4, 188638, Note_on_c, 3, 49, 0
4, 188640, Note_on_c, 3, 49, 92
4, 188686, Note_on_c, 3, 49, 0
4, 188688, Note_on_c, 3, 49, 92
4, 188734, Note_on_c, 3, 49, 0
4, 188736, Note_on_c, 3, 48, 92
4, 188896, Note_on_c, 3, 48, 0
4, 189504, Note_on_c, 3, 48, 92
4, 189550, Note_on_c, 3, 48, 0
4, 189552, Note_on_c, 3, 48, 91
4, 189598, Note_on_c, 3, 48, 0
4, 189600, Note_on_c, 3, 48, 90
4, 189646, Note_on_c, 3, 48, 0
4, 189648, Note_on_c, 3, 48, 89
4, 189694, Note_on_c, 3, 48, 0
4, 189696, Note_on_c, 3, 48, 88
4, 189742, Note_on_c, 3, 48, 0
4, 189744, Note_on_c, 3, 48, 87
4, 189790, Note_on_c, 3, 48, 0
4, 189792, Note_on_c, 3, 48, 86
4, 189838, Note_on_c, 3, 48, 0
4, 189840, Note_on_c, 3, 48, 85
4, 189886, Note_on_c, 3, 48, 0
4, 189888, Note_on_c, 3, 48, 84
4, 190048, Note_on_c, 3, 48, 0
4, 190656, Note_on_c, 3, 48, 68
4, 190702, Note_on_c, 3, 48, 0
4, 190704, Note_on_c, 3, 48, 67
4, 190750, Note_on_c, 3, 48, 0
4, 190752, Note_on_c, 3, 48, 66
4, 190798, Note_on_c, 3, 48, 0
4, 190800, Note_on_c, 3, 48, 65
4, 190846, Note_on_c, 3, 48, 0
4, 190848, Note_on_c, 3, 48, 64
4, 190894, Note_on_c, 3, 48, 0
4, 190896, Note_on_c, 3, 48, 63
4, 190942, Note_on_c, 3, 48, 0
4, 190944, Note_on_c, 3, 48, 62
4, 190990, Note_on_c, 3, 48, 0
4, 190992, Note_on_c, 3, 48, 61
4, 191038, Note_on_c, 3, 48, 0
4, 191040, Note_on_c, 3, 48, 60
4, 191086, Note_on_c, 3, 48, 0
4, 191088, Note_on_c, 3, 48, 59
4, 191134, Note_on_c, 3, 48, 0
4, 191136, Note_on_c, 3, 48, 58
4, 191182, Note_on_c, 3, 48, 0
4, 191184, Note_on_c, 3, 48, 57
4, 191230, Note_on_c, 3, 48, 0
4, 191232, Note_on_c, 3, 48, 56
4, 191278, Note_on_c, 3, 48, 0
4, 191280, Note_on_c, 3, 48, 55
4, 191326, Note_on_c, 3, 48, 0
4, 191328, Note_on_c, 3, 48, 54
4, 191374, Note_on_c, 3, 48, 0
4, 191376, Note_on_c, 3, 48, 53
4, 191422, Note_on_c, 3, 48, 0
4, 191424, Note_on_c, 3, 48, 52
4, 191584, Note_on_c, 3, 48, 0
4, 191616, Note_on_c, 3, 49, 45
4, 191776, Note_on_c, 3, 49, 0
4, 192192, Note_on_c, 3, 55, 45
4, 192448, Note_on_c, 3, 55, 0
4, 192480, Note_on_c, 3, 51, 45
4, 192574, Note_on_c, 3, 51, 0
4, 192576, Note_on_c, 3, 66, 45
4, 192622, Note_on_c, 3, 66, 0
4, 192624, Note_on_c, 3, 66, 45
4, 192670, Note_on_c, 3, 66, 0
4, 192672, Note_on_c, 3, 66, 45
4, 192718, Note_on_c, 3, 66, 0
4, 192720, Note_on_c, 3, 66, 45
4, 192766, Note_on_c, 3, 66, 0
4, 192768, Note_on_c, 3, 66, 45
4, 192928, Note_on_c, 3, 66, 0
4, 193344, Note_on_c, 3, 56, 45
4, 193600, Note_on_c, 3, 56, 0
4, 193632, Note_on_c, 3, 53, 56
4, 193726, Note_on_c, 3, 53, 0
4, 193728, Note_on_c, 3, 68, 60
4, 193774, Note_on_c, 3, 68, 0
4, 193776, Note_on_c, 3, 68, 62
4, 193822, Note_on_c, 3, 68, 0
4, 193824, Note_on_c, 3, 68, 64
4, 193870, Note_on_c, 3, 68, 0
4, 193872, Note_on_c, 3, 68, 66
4, 193918, Note_on_c, 3, 68, 0
4, 193920, Note_on_c, 3, 68, 68
4, 194080, Note_on_c, 3, 68, 0
4, 194496, Note_on_c, 3, 58, 92
4, 194752, Note_on_c, 3, 58, 0
4, 194784, Note_on_c, 3, 52, 92
4, 194878, Note_on_c, 3, 52, 0
4, 194880, Note_on_c, 3, 61, 92
4, 194926, Note_on_c, 3, 61, 0
4, 194928, Note_on_c, 3, 61, 92
4, 194974, Note_on_c, 3, 61, 0
4, 194976, Note_on_c, 3, 61, 92
4, 195022, Note_on_c, 3, 61, 0
4, 195024, Note_on_c, 3, 61, 92
4, 195070, Note_on_c, 3, 61, 0
4, 195072, Note_on_c, 3, 61, 92
4, 195232, Note_on_c, 3, 61, 0
4, 195648, Note_on_c, 3, 73, 92
4, 195694, Note_on_c, 3, 73, 0
4, 195696, Note_on_c, 3, 73, 90
4, 195742, Note_on_c, 3, 73, 0
4, 195744, Note_on_c, 3, 73, 87
4, 195790, Note_on_c, 3, 73, 0
4, 195792, Note_on_c, 3, 73, 84
4, 195838, Note_on_c, 3, 73, 0
4, 195840, Note_on_c, 3, 73, 81
4, 196000, Note_on_c, 3, 73, 0
4, 196032, Note_on_c, 3, 58, 69
4, 196078, Note_on_c, 3, 58, 0
4, 196080, Note_on_c, 3, 58, 66
4, 196126, Note_on_c, 3, 58, 0
4, 196128, Note_on_c, 3, 58, 63
4, 196174, Note_on_c, 3, 58, 0
4, 196176, Note_on_c, 3, 58, 60
4, 196222, Note_on_c, 3, 58, 0
4, 196224, Note_on_c, 3, 55, 57
4, 196224, Note_on_c, 3, 58, 57
4, 196320, Note_on_c, 3, 55, 0
4, 196320, Note_on_c, 3, 58, 0
4, 196320, Note_on_c, 3, 53, 51
4, 196414, Note_on_c, 3, 53, 0
4, 196416, Note_on_c, 3, 52, 45
4, 196608, Note_on_c, 3, 52, 0
4, 196608, Note_on_c, 3, 55, 45
4, 196800, Note_on_c, 3, 55, 0
4, 196800, Note_on_c, 3, 52, 45
4, 196992, Note_on_c, 3, 52, 0
4, 196992, Note_on_c, 3, 55, 45
4, 197152, Note_on_c, 3, 55, 0
4, 197184, Note_on_c, 3, 52, 45
4, 197376, Note_on_c, 3, 52, 0
4, 197376, Note_on_c, 3, 55, 45
4, 197568, Note_on_c, 3, 55, 0
4, 197568, Note_on_c, 3, 57, 45
4, 197760, Note_on_c, 3, 57, 0
4, 197760, Note_on_c, 3, 60, 45
4, 197952, Note_on_c, 3, 60, 0
4, 197952, Note_on_c, 3, 58, 45
4, 198144, Note_on_c, 3, 58, 0
4, 198144, Note_on_c, 3, 57, 45
4, 198336, Note_on_c, 3, 57, 0
4, 198336, Note_on_c, 3, 55, 45
4, 198528, Note_on_c, 3, 55, 0
4, 198528, Note_on_c, 3, 53, 45
4, 198720, Note_on_c, 3, 53, 0
4, 198720, Note_on_c, 3, 52, 45
4, 198912, Note_on_c, 3, 52, 0
4, 198912, Note_on_c, 3, 55, 45
4, 199104, Note_on_c, 3, 55, 0
4, 199104, Note_on_c, 3, 53, 45
4, 199264, Note_on_c, 3, 53, 0
4, 199296, Note_on_c, 3, 65, 92
4, 199344, Note_on_c, 3, 65, 0
4, 199488, Note_on_c, 3, 64, 92
4, 199680, Note_on_c, 3, 64, 0
4, 199680, Note_on_c, 3, 69, 92
4, 199840, Note_on_c, 3, 69, 0
4, 199872, Note_on_c, 3, 70, 92
4, 199920, Note_on_c, 3, 70, 0
4, 200064, Note_on_c, 3, 58, 92
4, 200112, Note_on_c, 3, 58, 0
4, 200256, Note_on_c, 3, 58, 92
4, 200448, Note_on_c, 3, 58, 0
4, 200448, Note_on_c, 3, 60, 92
4, 200608, Note_on_c, 3, 60, 0
4, 200640, Note_on_c, 3, 57, 92
4, 200688, Note_on_c, 3, 57, 0
4, 200832, Note_on_c, 3, 62, 92
4, 200880, Note_on_c, 3, 62, 0
4, 201024, Note_on_c, 3, 65, 127
4, 201360, Note_on_c, 3, 65, 0
4, 201408, Note_on_c, 3, 60, 92
4, 201568, Note_on_c, 3, 60, 0
4, 201600, Note_on_c, 3, 60, 92
4, 201760, Note_on_c, 3, 60, 0
4, 201792, Note_on_c, 3, 63, 127
4, 202128, Note_on_c, 3, 63, 0
4, 202176, Note_on_c, 3, 58, 92
4, 202336, Note_on_c, 3, 58, 0
4, 202368, Note_on_c, 3, 58, 92
4, 202528, Note_on_c, 3, 58, 0
4, 202560, Note_on_c, 3, 57, 92
4, 202752, Note_on_c, 3, 57, 0
4, 202752, Note_on_c, 3, 55, 92
4, 202912, Note_on_c, 3, 55, 0
4, 202944, Note_on_c, 3, 54, 92
4, 202992, Note_on_c, 3, 54, 0
4, 203136, Note_on_c, 3, 55, 92
4, 203184, Note_on_c, 3, 55, 0
4, 203328, Note_on_c, 3, 57, 92
4, 203520, Note_on_c, 3, 57, 0
4, 203520, Note_on_c, 3, 54, 92
4, 203680, Note_on_c, 3, 54, 0
4, 203712, Note_on_c, 3, 55, 92
4, 203760, Note_on_c, 3, 55, 0
4, 203904, Note_on_c, 3, 57, 92
4, 203952, Note_on_c, 3, 57, 0
4, 204096, Note_on_c, 3, 57, 127
4, 204432, Note_on_c, 3, 57, 0
4, 204480, Note_on_c, 3, 57, 92
4, 204640, Note_on_c, 3, 57, 0
4, 204672, Note_on_c, 3, 57, 92
4, 204832, Note_on_c, 3, 57, 0
4, 204864, Note_on_c, 3, 57, 127
4, 205056, Note_on_c, 3, 57, 0
4, 205056, Note_on_c, 3, 55, 92
4, 205216, Note_on_c, 3, 55, 0
4, 205248, Note_on_c, 3, 53, 92
4, 205296, Note_on_c, 3, 53, 0
4, 205440, Note_on_c, 3, 56, 92
4, 205488, Note_on_c, 3, 56, 0
4, 205632, Note_on_c, 3, 56, 127
4, 205824, Note_on_c, 3, 56, 0
4, 205824, Note_on_c, 3, 55, 92
4, 205984, Note_on_c, 3, 55, 0
4, 206016, Note_on_c, 3, 55, 92
4, 206064, Note_on_c, 3, 55, 0
4, 206208, Note_on_c, 3, 54, 92
4, 206256, Note_on_c, 3, 54, 0
4, 206400, Note_on_c, 3, 54, 127
4, 206592, Note_on_c, 3, 54, 0
4, 206592, Note_on_c, 3, 53, 92
4, 206752, Note_on_c, 3, 53, 0
4, 206784, Note_on_c, 3, 53, 92
4, 206832, Note_on_c, 3, 53, 0
4, 206976, Note_on_c, 3, 53, 92
4, 207024, Note_on_c, 3, 53, 0
4, 207168, Note_on_c, 3, 62, 92
4, 207328, Note_on_c, 3, 62, 0
4, 207744, Note_on_c, 3, 62, 92
4, 207904, Note_on_c, 3, 62, 0
4, 207936, Note_on_c, 3, 60, 92
4, 208096, Note_on_c, 3, 60, 0
4, 208512, Note_on_c, 3, 60, 92
4, 208672, Note_on_c, 3, 60, 0
4, 208704, Note_on_c, 3, 58, 92
4, 208864, Note_on_c, 3, 58, 0
4, 209280, Note_on_c, 3, 58, 92
4, 209440, Note_on_c, 3, 58, 0
4, 209472, Note_on_c, 3, 58, 92
4, 209632, Note_on_c, 3, 58, 0
4, 209856, Note_on_c, 3, 58, 92
4, 210016, Note_on_c, 3, 58, 0
4, 210240, Note_on_c, 3, 58, 92
4, 210400, Note_on_c, 3, 58, 0
4, 210816, Note_on_c, 3, 55, 92
4, 210976, Note_on_c, 3, 55, 0
4, 211008, Note_on_c, 3, 51, 92
4, 211168, Note_on_c, 3, 51, 0
4, 211584, Note_on_c, 3, 63, 92
4, 211744, Note_on_c, 3, 63, 0
4, 211776, Note_on_c, 3, 62, 92
4, 211936, Note_on_c, 3, 62, 0
4, 212352, Note_on_c, 3, 58, 92
4, 212512, Note_on_c, 3, 58, 0
4, 212544, Note_on_c, 3, 60, 92
4, 212704, Note_on_c, 3, 60, 0
4, 212928, Note_on_c, 3, 62, 92
4, 213088, Note_on_c, 3, 62, 0
4, 213312, Note_on_c, 3, 55, 92
4, 213360, Note_on_c, 3, 55, 0
4, 213504, Note_on_c, 3, 62, 92
4, 213552, Note_on_c, 3, 62, 0
4, 213696, Note_on_c, 3, 61, 92
4, 213744, Note_on_c, 3, 61, 0
4, 216384, Note_on_c, 3, 50, 45
4, 217920, Note_on_c, 3, 50, 0
4, 217920, Note_on_c, 3, 50, 45
4, 219456, Note_on_c, 3, 50, 0
4, 219456, Note_on_c, 3, 50, 45
4, 220992, Note_on_c, 3, 50, 0
4, 220992, Note_on_c, 3, 50, 45
4, 221952, Note_on_c, 3, 50, 0
4, 221952, Note_on_c, 3, 49, 45
4, 222144, Note_on_c, 3, 49, 0
4, 222144, Note_on_c, 3, 50, 45
4, 222336, Note_on_c, 3, 50, 0
4, 222336, Note_on_c, 3, 52, 45
4, 222496, Note_on_c, 3, 52, 0
4, 222528, Note_on_c, 3, 53, 45
4, 224064, Note_on_c, 3, 53, 0
4, 224064, Note_on_c, 3, 53, 45
4, 225600, Note_on_c, 3, 53, 0
4, 225600, Note_on_c, 3, 53, 45
4, 227088, Note_on_c, 3, 53, 0
4, 227136, Note_on_c, 3, 53, 55
4, 227136, Note_on_c, 3, 55, 55
4, 228624, Note_on_c, 3, 53, 0
4, 228624, Note_on_c, 3, 55, 0
4, 228672, Note_on_c, 3, 53, 45
4, 228672, Note_on_c, 3, 57, 45
4, 228832, Note_on_c, 3, 53, 0
4, 228832, Note_on_c, 3, 57, 0
4, 234048, Note_on_c, 3, 65, 45
4, 234240, Note_on_c, 3, 65, 0
4, 234240, Note_on_c, 3, 72, 45
4, 234432, Note_on_c, 3, 72, 0
4, 234432, Note_on_c, 3, 69, 45
4, 234624, Note_on_c, 3, 69, 0
4, 234624, Note_on_c, 3, 72, 45
4, 234784, Note_on_c, 3, 72, 0
4, 235584, Note_on_c, 3, 57, 45
4, 235776, Note_on_c, 3, 57, 0
4, 235776, Note_on_c, 3, 65, 52
4, 235968, Note_on_c, 3, 65, 0
4, 235968, Note_on_c, 3, 60, 59
4, 236160, Note_on_c, 3, 60, 0
4, 236160, Note_on_c, 3, 69, 67
4, 236320, Note_on_c, 3, 69, 0
4, 237120, Note_on_c, 3, 48, 45
4, 237312, Note_on_c, 3, 48, 0
4, 237312, Note_on_c, 3, 58, 45
4, 237504, Note_on_c, 3, 58, 0
4, 237504, Note_on_c, 3, 55, 45
4, 237696, Note_on_c, 3, 55, 0
4, 237696, Note_on_c, 3, 60, 45
4, 237856, Note_on_c, 3, 60, 0
4, 237888, Note_on_c, 3, 60, 45
4, 238048, Note_on_c, 3, 60, 0
4, 238656, Note_on_c, 3, 53, 59
4, 238848, Note_on_c, 3, 53, 0
4, 238848, Note_on_c, 3, 60, 63
4, 239040, Note_on_c, 3, 60, 0
4, 239040, Note_on_c, 3, 57, 67
4, 239232, Note_on_c, 3, 57, 0
4, 239232, Note_on_c, 3, 65, 71
4, 239392, Note_on_c, 3, 65, 0
4, 239424, Note_on_c, 3, 57, 45
4, 239616, Note_on_c, 3, 57, 0
4, 239616, Note_on_c, 3, 65, 45
4, 239808, Note_on_c, 3, 65, 0
4, 239808, Note_on_c, 3, 57, 45
4, 240000, Note_on_c, 3, 57, 0
4, 240000, Note_on_c, 3, 69, 45
4, 240160, Note_on_c, 3, 69, 0
4, 240192, Note_on_c, 3, 65, 45
4, 240384, Note_on_c, 3, 65, 0
4, 240384, Note_on_c, 3, 69, 45
4, 240576, Note_on_c, 3, 69, 0
4, 240576, Note_on_c, 3, 65, 45
4, 240736, Note_on_c, 3, 65, 0
4, 240768, Note_on_c, 3, 53, 45
4, 240816, Note_on_c, 3, 53, 0
4, 240960, Note_on_c, 3, 53, 47
4, 241056, Note_on_c, 3, 53, 0
4, 241344, Note_on_c, 3, 52, 51
4, 241440, Note_on_c, 3, 52, 0
4, 242304, Note_on_c, 3, 64, 61
4, 242464, Note_on_c, 3, 64, 0
4, 242496, Note_on_c, 3, 64, 63
4, 242592, Note_on_c, 3, 64, 0
4, 242880, Note_on_c, 3, 57, 68
4, 242976, Note_on_c, 3, 57, 0
4, 244608, Note_on_c, 3, 53, 92
4, 244768, Note_on_c, 3, 53, 0
4, 244800, Note_on_c, 3, 53, 92
4, 244896, Note_on_c, 3, 53, 0
4, 245184, Note_on_c, 3, 52, 94
4, 245280, Note_on_c, 3, 52, 0
4, 246144, Note_on_c, 3, 55, 101
4, 246304, Note_on_c, 3, 55, 0
4, 246336, Note_on_c, 3, 55, 102
4, 246432, Note_on_c, 3, 55, 0
4, 246720, Note_on_c, 3, 53, 106
4, 246768, Note_on_c, 3, 53, 0
4, 246912, Note_on_c, 3, 53, 108
4, 247072, Note_on_c, 3, 53, 0
4, 247104, Note_on_c, 3, 58, 108
4, 247264, Note_on_c, 3, 58, 0
4, 247296, Note_on_c, 3, 60, 108
4, 247456, Note_on_c, 3, 60, 0
4, 247488, Note_on_c, 3, 60, 108
4, 247648, Note_on_c, 3, 60, 0
4, 247680, Note_on_c, 3, 60, 108
4, 247840, Note_on_c, 3, 60, 0
4, 247872, Note_on_c, 3, 60, 108
4, 248032, Note_on_c, 3, 60, 0
4, 248064, Note_on_c, 3, 60, 108
4, 248224, Note_on_c, 3, 60, 0
4, 248256, Note_on_c, 3, 60, 108
4, 248416, Note_on_c, 3, 60, 0
4, 248448, Note_on_c, 3, 53, 108
4, 248448, Note_on_c, 3, 57, 108
4, 248608, Note_on_c, 3, 53, 0
4, 248608, Note_on_c, 3, 57, 0
4, 248640, Note_on_c, 3, 53, 108
4, 248640, Note_on_c, 3, 57, 108
4, 248976, Note_on_c, 3, 53, 0
4, 248976, Note_on_c, 3, 57, 0
4, 249024, Note_on_c, 3, 55, 108
4, 249024, Note_on_c, 3, 58, 108
4, 249360, Note_on_c, 3, 55, 0
4, 249360, Note_on_c, 3, 58, 0
4, 249408, Note_on_c, 3, 53, 108
4, 249408, Note_on_c, 3, 57, 108
4, 249568, Note_on_c, 3, 53, 0
4, 249568, Note_on_c, 3, 57, 0
4, 253056, Note_on_c, 3, 50, 92
4, 253216, Note_on_c, 3, 50, 0
4, 253248, Note_on_c, 3, 53, 127
4, 253584, Note_on_c, 3, 53, 0
4, 253632, Note_on_c, 3, 48, 92
4, 253968, Note_on_c, 3, 48, 0
4, 254592, Note_on_c, 3, 57, 45
4, 254752, Note_on_c, 3, 57, 0
4, 254784, Note_on_c, 3, 55, 45
4, 254944, Note_on_c, 3, 55, 0
4, 255168, Note_on_c, 3, 55, 45
4, 255328, Note_on_c, 3, 55, 0
4, 256512, Note_on_c, 3, 65, 45
4, 256704, Note_on_c, 3, 65, 0
4, 256704, Note_on_c, 3, 64, 45
4, 256896, Note_on_c, 3, 64, 0
4, 256896, Note_on_c, 3, 62, 45
4, 257088, Note_on_c, 3, 62, 0
4, 257088, Note_on_c, 3, 60, 45
4, 257280, Note_on_c, 3, 60, 0
4, 257472, Note_on_c, 3, 64, 45
4, 257632, Note_on_c, 3, 64, 0
4, 257664, Note_on_c, 3, 69, 45
4, 258048, Note_on_c, 3, 69, 0
4, 258048, Note_on_c, 3, 60, 45
4, 258240, Note_on_c, 3, 60, 0
4, 258240, Note_on_c, 3, 56, 45
4, 258432, Note_on_c, 3, 56, 0
4, 258432, Note_on_c, 3, 57, 45
4, 258624, Note_on_c, 3, 57, 0
4, 258624, Note_on_c, 3, 56, 45
4, 258816, Note_on_c, 3, 56, 0
4, 258816, Note_on_c, 3, 57, 45
4, 259008, Note_on_c, 3, 57, 0
4, 259008, Note_on_c, 3, 59, 45
4, 259552, Note_on_c, 3, 59, 0
4, 259584, Note_on_c, 3, 62, 45
4, 259776, Note_on_c, 3, 62, 0
4, 259776, Note_on_c, 3, 60, 45
4, 259968, Note_on_c, 3, 60, 0
4, 259968, Note_on_c, 3, 59, 45
4, 260160, Note_on_c, 3, 59, 0
4, 260160, Note_on_c, 3, 57, 45
4, 260352, Note_on_c, 3, 57, 0
4, 260352, Note_on_c, 3, 59, 45
4, 260544, Note_on_c, 3, 59, 0
4, 260544, Note_on_c, 3, 60, 45
4, 260704, Note_on_c, 3, 60, 0
4, 260736, Note_on_c, 3, 57, 45
4, 260784, Note_on_c, 3, 57, 0
4, 260928, Note_on_c, 3, 60, 45
4, 261024, Note_on_c, 3, 60, 0
4, 261312, Note_on_c, 3, 55, 45
4, 261408, Note_on_c, 3, 55, 0
4, 262656, Note_on_c, 3, 61, 45
4, 262848, Note_on_c, 3, 61, 0
4, 262848, Note_on_c, 3, 60, 45
4, 263040, Note_on_c, 3, 60, 0
4, 263040, Note_on_c, 3, 58, 45
4, 263232, Note_on_c, 3, 58, 0
4, 263232, Note_on_c, 3, 57, 45
4, 263424, Note_on_c, 3, 57, 0
4, 263424, Note_on_c, 3, 58, 45
4, 263616, Note_on_c, 3, 58, 0
4, 263616, Note_on_c, 3, 60, 45
4, 263808, Note_on_c, 3, 60, 0
4, 263808, Note_on_c, 3, 62, 45
4, 264000, Note_on_c, 3, 62, 0
4, 264000, Note_on_c, 3, 61, 45
4, 264192, Note_on_c, 3, 61, 0
4, 264192, Note_on_c, 3, 62, 45
4, 264384, Note_on_c, 3, 62, 0
4, 264384, Note_on_c, 3, 61, 45
4, 264544, Note_on_c, 3, 61, 0
4, 264576, Note_on_c, 3, 61, 45
4, 264768, Note_on_c, 3, 61, 0
4, 264768, Note_on_c, 3, 62, 45
4, 264960, Note_on_c, 3, 62, 0
4, 264960, Note_on_c, 3, 58, 45
4, 265152, Note_on_c, 3, 58, 0
4, 265152, Note_on_c, 3, 57, 45
4, 265312, Note_on_c, 3, 57, 0
4, 265344, Note_on_c, 3, 62, 45
4, 265392, Note_on_c, 3, 62, 0
4, 265536, Note_on_c, 3, 65, 45
4, 265632, Note_on_c, 3, 65, 0
4, 265920, Note_on_c, 3, 61, 45
4, 265968, Note_on_c, 3, 61, 0
4, 266112, Note_on_c, 3, 61, 45
4, 266160, Note_on_c, 3, 61, 0
4, 266304, Note_on_c, 3, 62, 45
4, 266400, Note_on_c, 3, 62, 0
4, 266688, Note_on_c, 3, 57, 45
4, 266736, Note_on_c, 3, 57, 0
4, 266880, Note_on_c, 3, 57, 45
4, 267408, Note_on_c, 3, 57, 0
4, 267456, Note_on_c, 3, 49, 30
4, 268032, Note_on_c, 3, 49, 0
4, 268032, Note_on_c, 3, 50, 30
4, 268224, Note_on_c, 3, 50, 0
4, 268224, Note_on_c, 3, 52, 30
4, 268416, Note_on_c, 3, 52, 0
4, 268416, Note_on_c, 3, 53, 30
4, 268608, Note_on_c, 3, 53, 0
4, 268608, Note_on_c, 3, 52, 30
4, 268800, Note_on_c, 3, 52, 0
4, 268800, Note_on_c, 3, 53, 30
4, 268992, Note_on_c, 3, 53, 0
4, 268992, Note_on_c, 3, 55, 30
4, 269184, Note_on_c, 3, 55, 0
4, 269184, Note_on_c, 3, 58, 30
4, 269568, Note_on_c, 3, 58, 0
4, 269568, Note_on_c, 3, 57, 30
4, 269760, Note_on_c, 3, 57, 0
4, 269760, Note_on_c, 3, 49, 30
4, 269952, Note_on_c, 3, 49, 0
4, 269952, Note_on_c, 3, 52, 30
4, 270112, Note_on_c, 3, 52, 0
4, 270144, Note_on_c, 3, 50, 45
4, 270192, Note_on_c, 3, 50, 0
4, 270528, Note_on_c, 3, 62, 45
4, 270688, Note_on_c, 3, 62, 0
4, 270912, Note_on_c, 3, 62, 45
4, 271072, Note_on_c, 3, 62, 0
4, 271296, Note_on_c, 3, 61, 45
4, 271456, Note_on_c, 3, 61, 0
4, 271680, Note_on_c, 3, 59, 45
4, 272064, Note_on_c, 3, 59, 0
4, 272064, Note_on_c, 3, 57, 45
4, 272256, Note_on_c, 3, 57, 0
4, 272256, Note_on_c, 3, 56, 45
4, 272416, Note_on_c, 3, 56, 0
4, 272448, Note_on_c, 3, 57, 45
4, 273168, Note_on_c, 3, 57, 0
4, 273216, Note_on_c, 3, 62, 45
4, 273376, Note_on_c, 3, 62, 0
4, 273600, Note_on_c, 3, 62, 45
4, 273760, Note_on_c, 3, 62, 0
4, 273984, Note_on_c, 3, 62, 45
4, 274144, Note_on_c, 3, 62, 0
4, 274368, Note_on_c, 3, 61, 45
4, 274528, Note_on_c, 3, 61, 0
4, 274752, Note_on_c, 3, 59, 45
4, 274912, Note_on_c, 3, 59, 0
4, 275136, Note_on_c, 3, 61, 45
4, 275296, Note_on_c, 3, 61, 0
4, 275520, Note_on_c, 3, 62, 45
4, 276240, Note_on_c, 3, 62, 0
4, 276288, Note_on_c, 3, 74, 45
4, 276448, Note_on_c, 3, 74, 0
4, 276672, Note_on_c, 3, 74, 51
4, 276832, Note_on_c, 3, 74, 0
4, 277056, Note_on_c, 3, 74, 59
4, 277216, Note_on_c, 3, 74, 0
4, 277440, Note_on_c, 3, 74, 67
4, 277600, Note_on_c, 3, 74, 0
4, 277824, Note_on_c, 3, 74, 45
4, 277984, Note_on_c, 3, 74, 0
4, 278208, Note_on_c, 3, 74, 45
4, 278368, Note_on_c, 3, 74, 0
4, 278592, Note_on_c, 3, 73, 45
4, 278752, Note_on_c, 3, 73, 0
4, 278976, Note_on_c, 3, 69, 59
4, 279136, Note_on_c, 3, 69, 0
4, 279360, Note_on_c, 3, 69, 45
4, 280080, Note_on_c, 3, 69, 0
4, 280128, Note_on_c, 3, 66, 45
4, 280288, Note_on_c, 3, 66, 0
4, 280512, Note_on_c, 3, 66, 59
4, 280672, Note_on_c, 3, 66, 0
4, 280896, Note_on_c, 3, 66, 45
4, 281616, Note_on_c, 3, 66, 0
4, 281664, Note_on_c, 3, 66, 45
4, 281824, Note_on_c, 3, 66, 0
4, 282048, Note_on_c, 3, 66, 59
4, 282208, Note_on_c, 3, 66, 0
4, 282432, Note_on_c, 3, 66, 45
4, 283920, Note_on_c, 3, 66, 0
4, 283968, Note_on_c, 3, 67, 45
4, 285072, Note_on_c, 3, 67, 0
4, 285120, Note_on_c, 3, 67, 45
4, 285456, Note_on_c, 3, 67, 0
4, 285504, Note_on_c, 3, 66, 30
4, 285664, Note_on_c, 3, 66, 0
4, 285696, Note_on_c, 3, 52, 30
4, 285888, Note_on_c, 3, 52, 0
4, 285888, Note_on_c, 3, 54, 30
4, 286080, Note_on_c, 3, 54, 0
4, 286080, Note_on_c, 3, 55, 30
4, 286272, Note_on_c, 3, 55, 0
4, 286272, Note_on_c, 3, 57, 30
4, 286464, Note_on_c, 3, 57, 0
4, 286464, Note_on_c, 3, 55, 30
4, 286656, Note_on_c, 3, 55, 0
4, 286656, Note_on_c, 3, 54, 30
4, 287200, Note_on_c, 3, 54, 0
4, 287232, Note_on_c, 3, 54, 30
4, 287424, Note_on_c, 3, 54, 0
4, 287424, Note_on_c, 3, 55, 30
4, 287616, Note_on_c, 3, 55, 0
4, 287616, Note_on_c, 3, 57, 30
4, 287808, Note_on_c, 3, 57, 0
4, 288000, Note_on_c, 3, 60, 30
4, 288192, Note_on_c, 3, 60, 0
4, 288192, Note_on_c, 3, 62, 30
4, 288384, Note_on_c, 3, 62, 0
4, 288384, Note_on_c, 3, 72, 30
4, 288544, Note_on_c, 3, 72, 0
4, 288576, Note_on_c, 3, 74, 30
4, 288912, Note_on_c, 3, 74, 0
4, 288960, Note_on_c, 3, 73, 30
4, 289872, Note_on_c, 3, 73, 0
4, 289920, Note_on_c, 3, 61, 30
4, 290080, Note_on_c, 3, 61, 0
4, 290112, Note_on_c, 3, 58, 30
4, 290272, Note_on_c, 3, 58, 0
4, 290496, Note_on_c, 3, 53, 30
4, 290656, Note_on_c, 3, 53, 0
4, 290880, Note_on_c, 3, 49, 30
4, 291040, Note_on_c, 3, 49, 0
4, 291264, Note_on_c, 3, 51, 30
4, 291424, Note_on_c, 3, 51, 0
4, 291648, Note_on_c, 3, 48, 30
4, 291808, Note_on_c, 3, 48, 0
4, 292032, Note_on_c, 3, 49, 30
4, 292192, Note_on_c, 3, 49, 0
4, 292416, Note_on_c, 3, 49, 30
4, 292576, Note_on_c, 3, 49, 0
4, 292800, Note_on_c, 3, 49, 30
4, 292992, Note_on_c, 3, 49, 0
4, 292992, Note_on_c, 3, 48, 30
4, 293152, Note_on_c, 3, 48, 0
4, 293184, Note_on_c, 3, 53, 30
4, 293344, Note_on_c, 3, 53, 0
4, 293568, Note_on_c, 3, 53, 30
4, 293728, Note_on_c, 3, 53, 0
4, 293952, Note_on_c, 3, 53, 30
4, 294112, Note_on_c, 3, 53, 0
4, 294336, Note_on_c, 3, 53, 30
4, 294496, Note_on_c, 3, 53, 0
4, 294720, Note_on_c, 3, 53, 30
4, 294880, Note_on_c, 3, 53, 0
4, 295104, Note_on_c, 3, 53, 30
4, 295264, Note_on_c, 3, 53, 0
4, 295488, Note_on_c, 3, 53, 30
4, 295648, Note_on_c, 3, 53, 0
4, 295872, Note_on_c, 3, 52, 30
4, 295872, Note_on_c, 3, 55, 30
4, 296032, Note_on_c, 3, 52, 0
4, 296032, Note_on_c, 3, 55, 0
4, 296256, Note_on_c, 3, 55, 30
4, 296416, Note_on_c, 3, 55, 0
4, 296640, Note_on_c, 3, 52, 30
4, 296832, Note_on_c, 3, 52, 0
4, 296832, Note_on_c, 3, 53, 30
4, 296992, Note_on_c, 3, 53, 0
4, 297024, Note_on_c, 3, 53, 30
4, 297184, Note_on_c, 3, 53, 0
4, 297408, Note_on_c, 3, 50, 30
4, 297600, Note_on_c, 3, 50, 0
4, 297600, Note_on_c, 3, 51, 30
4, 297760, Note_on_c, 3, 51, 0
4, 297792, Note_on_c, 3, 51, 30
4, 297952, Note_on_c, 3, 51, 0
4, 298176, Note_on_c, 3, 48, 30
4, 298368, Note_on_c, 3, 48, 0
4, 298368, Note_on_c, 3, 49, 30
4, 298528, Note_on_c, 3, 49, 0
4, 298560, Note_on_c, 3, 49, 30
4, 298720, Note_on_c, 3, 49, 0
4, 298944, Note_on_c, 3, 58, 30
4, 299136, Note_on_c, 3, 58, 0
4, 299136, Note_on_c, 3, 60, 30
4, 299296, Note_on_c, 3, 60, 0
4, 299328, Note_on_c, 3, 65, 30
4, 299488, Note_on_c, 3, 65, 0
4, 299712, Note_on_c, 3, 53, 30
4, 299872, Note_on_c, 3, 53, 0
4, 300096, Note_on_c, 3, 53, 30
4, 300256, Note_on_c, 3, 53, 0
4, 300480, Note_on_c, 3, 53, 30
4, 300640, Note_on_c, 3, 53, 0
4, 300864, Note_on_c, 3, 53, 30
4, 301024, Note_on_c, 3, 53, 0
4, 301248, Note_on_c, 3, 53, 30
4, 301408, Note_on_c, 3, 53, 0
4, 301632, Note_on_c, 3, 53, 30
4, 301792, Note_on_c, 3, 53, 0
4, 302016, Note_on_c, 3, 52, 30
4, 302176, Note_on_c, 3, 52, 0
4, 302400, Note_on_c, 3, 53, 30
4, 302560, Note_on_c, 3, 53, 0
4, 302784, Note_on_c, 3, 53, 30
4, 302944, Note_on_c, 3, 53, 0
4, 303168, Note_on_c, 3, 53, 30
4, 303328, Note_on_c, 3, 53, 0
4, 303552, Note_on_c, 3, 53, 30
4, 303712, Note_on_c, 3, 53, 0
4, 303936, Note_on_c, 3, 65, 30
4, 304096, Note_on_c, 3, 65, 0
4, 304320, Note_on_c, 3, 67, 30
4, 304384, Note_on_c, 3, 67, 0
4, 304384, Note_on_c, 3, 65, 37
4, 304448, Note_on_c, 3, 65, 0
4, 304448, Note_on_c, 3, 67, 44
4, 304512, Note_on_c, 3, 67, 0
4, 304512, Note_on_c, 3, 65, 51
4, 304576, Note_on_c, 3, 65, 0
4, 304576, Note_on_c, 3, 67, 59
4, 304640, Note_on_c, 3, 67, 0
4, 304640, Note_on_c, 3, 65, 67
4, 304704, Note_on_c, 3, 65, 0
4, 304704, Note_on_c, 3, 67, 75
4, 304768, Note_on_c, 3, 67, 0
4, 304768, Note_on_c, 3, 65, 73
4, 304832, Note_on_c, 3, 65, 0
4, 304832, Note_on_c, 3, 67, 71
4, 304896, Note_on_c, 3, 67, 0
4, 304896, Note_on_c, 3, 65, 69
4, 304960, Note_on_c, 3, 65, 0
4, 304960, Note_on_c, 3, 67, 67
4, 305024, Note_on_c, 3, 67, 0
4, 305024, Note_on_c, 3, 65, 65
4, 305088, Note_on_c, 3, 65, 0
4, 305088, Note_on_c, 3, 67, 63
4, 305152, Note_on_c, 3, 67, 0
4, 305152, Note_on_c, 3, 65, 60
4, 305216, Note_on_c, 3, 65, 0
4, 305216, Note_on_c, 3, 67, 57
4, 305280, Note_on_c, 3, 67, 0
4, 305280, Note_on_c, 3, 65, 54
4, 305344, Note_on_c, 3, 65, 0
4, 305344, Note_on_c, 3, 64, 51
4, 305408, Note_on_c, 3, 64, 0
4, 305408, Note_on_c, 3, 65, 48
4, 305470, Note_on_c, 3, 65, 0
4, 305472, Note_on_c, 3, 64, 45
4, 305664, Note_on_c, 3, 64, 0
4, 305664, Note_on_c, 3, 60, 47
4, 305856, Note_on_c, 3, 60, 0
4, 305856, Note_on_c, 3, 58, 49
4, 306048, Note_on_c, 3, 58, 0
4, 306048, Note_on_c, 3, 56, 51
4, 306240, Note_on_c, 3, 56, 0
4, 306240, Note_on_c, 3, 55, 53
4, 306432, Note_on_c, 3, 55, 0
4, 306432, Note_on_c, 3, 53, 55
4, 306624, Note_on_c, 3, 53, 0
4, 306624, Note_on_c, 3, 52, 57
4, 306816, Note_on_c, 3, 52, 0
4, 306816, Note_on_c, 3, 49, 59
4, 306976, Note_on_c, 3, 49, 0
4, 307008, Note_on_c, 3, 48, 61
4, 307200, Note_on_c, 3, 48, 0
4, 307200, Note_on_c, 3, 60, 63
4, 307392, Note_on_c, 3, 60, 0
4, 307392, Note_on_c, 3, 53, 66
4, 307584, Note_on_c, 3, 53, 0
4, 307584, Note_on_c, 3, 51, 69
4, 307776, Note_on_c, 3, 51, 0
4, 307776, Note_on_c, 3, 49, 72
4, 307968, Note_on_c, 3, 49, 0
4, 307968, Note_on_c, 3, 48, 75
4, 308128, Note_on_c, 3, 48, 0
4, 308160, Note_on_c, 3, 65, 78
4, 308352, Note_on_c, 3, 65, 0
4, 308352, Note_on_c, 3, 60, 81
4, 308352, Note_on_c, 3, 64, 81
4, 308512, Note_on_c, 3, 60, 0
4, 308512, Note_on_c, 3, 64, 0
4, 308544, Note_on_c, 3, 76, 84
4, 308736, Note_on_c, 3, 76, 0
4, 308736, Note_on_c, 3, 72, 87
4, 308928, Note_on_c, 3, 72, 0
4, 308928, Note_on_c, 3, 70, 90
4, 309120, Note_on_c, 3, 70, 0
4, 309120, Note_on_c, 3, 68, 93
4, 309312, Note_on_c, 3, 68, 0
4, 309312, Note_on_c, 3, 67, 96
4, 309504, Note_on_c, 3, 67, 0
4, 309504, Note_on_c, 3, 65, 99
4, 309696, Note_on_c, 3, 65, 0
4, 309696, Note_on_c, 3, 60, 102
4, 309888, Note_on_c, 3, 60, 0
4, 309888, Note_on_c, 3, 58, 105
4, 310048, Note_on_c, 3, 58, 0
4, 310080, Note_on_c, 3, 55, 108
4, 310336, Note_on_c, 3, 55, 0
4, 310368, Note_on_c, 3, 52, 108
4, 310400, Note_on_c, 3, 52, 0
4, 310464, Note_on_c, 3, 56, 127
4, 310800, Note_on_c, 3, 56, 0
4, 310848, Note_on_c, 3, 60, 127
4, 310848, Note_on_c, 3, 68, 127
4, 311326, Note_on_c, 3, 60, 0
4, 311326, Note_on_c, 3, 68, 0
4, 311328, Note_on_c, 3, 58, 103
4, 311424, Note_on_c, 3, 58, 0
4, 311424, Note_on_c, 3, 56, 98
4, 311520, Note_on_c, 3, 56, 0
4, 311520, Note_on_c, 3, 55, 93
4, 311616, Note_on_c, 3, 55, 0
4, 311616, Note_on_c, 3, 56, 88
4, 311712, Note_on_c, 3, 56, 0
4, 311712, Note_on_c, 3, 60, 83
4, 311808, Note_on_c, 3, 60, 0
4, 311808, Note_on_c, 3, 65, 78
4, 311904, Note_on_c, 3, 65, 0
4, 311904, Note_on_c, 3, 67, 73
4, 312000, Note_on_c, 3, 67, 0
4, 312000, Note_on_c, 3, 68, 68
4, 312096, Note_on_c, 3, 68, 0
4, 312096, Note_on_c, 3, 65, 63
4, 312192, Note_on_c, 3, 65, 0
4, 312192, Note_on_c, 3, 60, 57
4, 312288, Note_on_c, 3, 60, 0
4, 312288, Note_on_c, 3, 56, 51
4, 312382, Note_on_c, 3, 56, 0
4, 312384, Note_on_c, 3, 60, 108
4, 312640, Note_on_c, 3, 60, 0
4, 312672, Note_on_c, 3, 57, 108
4, 312704, Note_on_c, 3, 57, 0
4, 312768, Note_on_c, 3, 61, 127
4, 313104, Note_on_c, 3, 61, 0
4, 314400, Note_on_c, 3, 65, 93
4, 314496, Note_on_c, 3, 65, 0
4, 314496, Note_on_c, 3, 70, 77
4, 314592, Note_on_c, 3, 70, 0
4, 314592, Note_on_c, 3, 73, 61
4, 314686, Note_on_c, 3, 73, 0
4, 314688, Note_on_c, 3, 61, 92
4, 314944, Note_on_c, 3, 61, 0
4, 314976, Note_on_c, 3, 58, 92
4, 315008, Note_on_c, 3, 58, 0
4, 315072, Note_on_c, 3, 64, 127
4, 315408, Note_on_c, 3, 64, 0
4, 315840, Note_on_c, 3, 49, 92
4, 315886, Note_on_c, 3, 49, 0
4, 315888, Note_on_c, 3, 49, 92
4, 315934, Note_on_c, 3, 49, 0
4, 315936, Note_on_c, 3, 49, 92
4, 315982, Note_on_c, 3, 49, 0
4, 315984, Note_on_c, 3, 49, 92
4, 316030, Note_on_c, 3, 49, 0
4, 316032, Note_on_c, 3, 49, 92
4, 316078, Note_on_c, 3, 49, 0
4, 316080, Note_on_c, 3, 49, 92
4, 316126, Note_on_c, 3, 49, 0
4, 316128, Note_on_c, 3, 49, 92
4, 316174, Note_on_c, 3, 49, 0
4, 316176, Note_on_c, 3, 49, 92
4, 316222, Note_on_c, 3, 49, 0
4, 316224, Note_on_c, 3, 49, 92
4, 316384, Note_on_c, 3, 49, 0
4, 316992, Note_on_c, 3, 49, 92
4, 317038, Note_on_c, 3, 49, 0
4, 317040, Note_on_c, 3, 49, 92
4, 317086, Note_on_c, 3, 49, 0
4, 317088, Note_on_c, 3, 49, 92
4, 317134, Note_on_c, 3, 49, 0
4, 317136, Note_on_c, 3, 49, 92
4, 317182, Note_on_c, 3, 49, 0
4, 317184, Note_on_c, 3, 49, 92
4, 317230, Note_on_c, 3, 49, 0
4, 317232, Note_on_c, 3, 49, 92
4, 317278, Note_on_c, 3, 49, 0
4, 317280, Note_on_c, 3, 49, 92
4, 317326, Note_on_c, 3, 49, 0
4, 317328, Note_on_c, 3, 49, 92
4, 317374, Note_on_c, 3, 49, 0
4, 317376, Note_on_c, 3, 48, 92
4, 317536, Note_on_c, 3, 48, 0
4, 318144, Note_on_c, 3, 48, 92
4, 318190, Note_on_c, 3, 48, 0
4, 318192, Note_on_c, 3, 48, 91
4, 318238, Note_on_c, 3, 48, 0
4, 318240, Note_on_c, 3, 48, 90
4, 318286, Note_on_c, 3, 48, 0
4, 318288, Note_on_c, 3, 48, 89
4, 318334, Note_on_c, 3, 48, 0
4, 318336, Note_on_c, 3, 48, 88
4, 318382, Note_on_c, 3, 48, 0
4, 318384, Note_on_c, 3, 48, 87
4, 318430, Note_on_c, 3, 48, 0
4, 318432, Note_on_c, 3, 48, 86
4, 318478, Note_on_c, 3, 48, 0
4, 318480, Note_on_c, 3, 48, 85
4, 318526, Note_on_c, 3, 48, 0
4, 318528, Note_on_c, 3, 48, 84
4, 318688, Note_on_c, 3, 48, 0
4, 319296, Note_on_c, 3, 48, 68
4, 319342, Note_on_c, 3, 48, 0
4, 319344, Note_on_c, 3, 48, 67
4, 319390, Note_on_c, 3, 48, 0
4, 319392, Note_on_c, 3, 48, 66
4, 319438, Note_on_c, 3, 48, 0
4, 319440, Note_on_c, 3, 48, 65
4, 319486, Note_on_c, 3, 48, 0
4, 319488, Note_on_c, 3, 48, 64
4, 319534, Note_on_c, 3, 48, 0
4, 319536, Note_on_c, 3, 48, 63
4, 319582, Note_on_c, 3, 48, 0
4, 319584, Note_on_c, 3, 48, 62
4, 319630, Note_on_c, 3, 48, 0
4, 319632, Note_on_c, 3, 48, 61
4, 319678, Note_on_c, 3, 48, 0
4, 319680, Note_on_c, 3, 48, 60
4, 319726, Note_on_c, 3, 48, 0
4, 319728, Note_on_c, 3, 48, 59
4, 319774, Note_on_c, 3, 48, 0
4, 319776, Note_on_c, 3, 48, 58
4, 319822, Note_on_c, 3, 48, 0
4, 319824, Note_on_c, 3, 48, 57
4, 319870, Note_on_c, 3, 48, 0
4, 319872, Note_on_c, 3, 48, 56
4, 319918, Note_on_c, 3, 48, 0
4, 319920, Note_on_c, 3, 48, 55
4, 319966, Note_on_c, 3, 48, 0
4, 319968, Note_on_c, 3, 48, 54
4, 320014, Note_on_c, 3, 48, 0
4, 320016, Note_on_c, 3, 48, 53
4, 320062, Note_on_c, 3, 48, 0
4, 320064, Note_on_c, 3, 48, 52
4, 320224, Note_on_c, 3, 48, 0
4, 320256, Note_on_c, 3, 49, 45
4, 320416, Note_on_c, 3, 49, 0
4, 320832, Note_on_c, 3, 55, 45
4, 321088, Note_on_c, 3, 55, 0
4, 321120, Note_on_c, 3, 51, 45
4, 321214, Note_on_c, 3, 51, 0
4, 321216, Note_on_c, 3, 66, 45
4, 321262, Note_on_c, 3, 66, 0
4, 321264, Note_on_c, 3, 66, 45
4, 321310, Note_on_c, 3, 66, 0
4, 321312, Note_on_c, 3, 66, 45
4, 321358, Note_on_c, 3, 66, 0
4, 321360, Note_on_c, 3, 66, 45
4, 321406, Note_on_c, 3, 66, 0
4, 321408, Note_on_c, 3, 66, 45
4, 321568, Note_on_c, 3, 66, 0
4, 321984, Note_on_c, 3, 56, 45
4, 322240, Note_on_c, 3, 56, 0
4, 322272, Note_on_c, 3, 53, 56
4, 322366, Note_on_c, 3, 53, 0
4, 322368, Note_on_c, 3, 68, 60
4, 322414, Note_on_c, 3, 68, 0
4, 322416, Note_on_c, 3, 68, 62
4, 322462, Note_on_c, 3, 68, 0
4, 322464, Note_on_c, 3, 68, 64
4, 322510, Note_on_c, 3, 68, 0
4, 322512, Note_on_c, 3, 68, 66
4, 322558, Note_on_c, 3, 68, 0
4, 322560, Note_on_c, 3, 68, 68
4, 322720, Note_on_c, 3, 68, 0
4, 323136, Note_on_c, 3, 58, 92
4, 323392, Note_on_c, 3, 58, 0
4, 323424, Note_on_c, 3, 52, 92
4, 323518, Note_on_c, 3, 52, 0
4, 323520, Note_on_c, 3, 61, 92
4, 323566, Note_on_c, 3, 61, 0
4, 323568, Note_on_c, 3, 61, 92
4, 323614, Note_on_c, 3, 61, 0
4, 323616, Note_on_c, 3, 61, 92
4, 323662, Note_on_c, 3, 61, 0
4, 323664, Note_on_c, 3, 61, 92
4, 323710, Note_on_c, 3, 61, 0
4, 323712, Note_on_c, 3, 61, 92
4, 323872, Note_on_c, 3, 61, 0
4, 324288, Note_on_c, 3, 73, 92
4, 324334, Note_on_c, 3, 73, 0
4, 324336, Note_on_c, 3, 73, 90
4, 324382, Note_on_c, 3, 73, 0
4, 324384, Note_on_c, 3, 73, 87
4, 324430, Note_on_c, 3, 73, 0
4, 324432, Note_on_c, 3, 73, 84
4, 324478, Note_on_c, 3, 73, 0
4, 324480, Note_on_c, 3, 73, 81
4, 324640, Note_on_c, 3, 73, 0
4, 324672, Note_on_c, 3, 58, 69
4, 324718, Note_on_c, 3, 58, 0
4, 324720, Note_on_c, 3, 58, 66
4, 324766, Note_on_c, 3, 58, 0
4, 324768, Note_on_c, 3, 58, 63
4, 324814, Note_on_c, 3, 58, 0
4, 324816, Note_on_c, 3, 58, 60
4, 324862, Note_on_c, 3, 58, 0
4, 324864, Note_on_c, 3, 55, 57
4, 324864, Note_on_c, 3, 58, 57
4, 324960, Note_on_c, 3, 55, 0
4, 324960, Note_on_c, 3, 58, 0
4, 324960, Note_on_c, 3, 53, 51
4, 325054, Note_on_c, 3, 53, 0
4, 325056, Note_on_c, 3, 52, 45
4, 325248, Note_on_c, 3, 52, 0
4, 325248, Note_on_c, 3, 55, 45
4, 325440, Note_on_c, 3, 55, 0
4, 325440, Note_on_c, 3, 52, 45
4, 325632, Note_on_c, 3, 52, 0
4, 325632, Note_on_c, 3, 55, 45
4, 325792, Note_on_c, 3, 55, 0
4, 325824, Note_on_c, 3, 52, 45
4, 326016, Note_on_c, 3, 52, 0
4, 326016, Note_on_c, 3, 55, 45
4, 326208, Note_on_c, 3, 55, 0
4, 326208, Note_on_c, 3, 57, 45
4, 326400, Note_on_c, 3, 57, 0
4, 326400, Note_on_c, 3, 60, 45
4, 326592, Note_on_c, 3, 60, 0
4, 326592, Note_on_c, 3, 58, 45
4, 326784, Note_on_c, 3, 58, 0
4, 326784, Note_on_c, 3, 57, 45
4, 326976, Note_on_c, 3, 57, 0
4, 326976, Note_on_c, 3, 55, 45
4, 327168, Note_on_c, 3, 55, 0
4, 327168, Note_on_c, 3, 53, 45
4, 327360, Note_on_c, 3, 53, 0
4, 327360, Note_on_c, 3, 52, 45
4, 327552, Note_on_c, 3, 52, 0
4, 327552, Note_on_c, 3, 55, 45
4, 327744, Note_on_c, 3, 55, 0
4, 327744, Note_on_c, 3, 53, 45
4, 327904, Note_on_c, 3, 53, 0
4, 327936, Note_on_c, 3, 65, 92
4, 327984, Note_on_c, 3, 65, 0
4, 328128, Note_on_c, 3, 64, 92
4, 328320, Note_on_c, 3, 64, 0
4, 328320, Note_on_c, 3, 69, 92
4, 328480, Note_on_c, 3, 69, 0
4, 328512, Note_on_c, 3, 70, 92
4, 328560, Note_on_c, 3, 70, 0
4, 328704, Note_on_c, 3, 58, 92
4, 328752, Note_on_c, 3, 58, 0
4, 328896, Note_on_c, 3, 58, 92
4, 329088, Note_on_c, 3, 58, 0
4, 329088, Note_on_c, 3, 60, 92
4, 329248, Note_on_c, 3, 60, 0
4, 329280, Note_on_c, 3, 57, 92
4, 329328, Note_on_c, 3, 57, 0
4, 329472, Note_on_c, 3, 62, 92
4, 329520, Note_on_c, 3, 62, 0
4, 329664, Note_on_c, 3, 65, 127
4, 330000, Note_on_c, 3, 65, 0
4, 330048, Note_on_c, 3, 60, 92
4, 330208, Note_on_c, 3, 60, 0
4, 330240, Note_on_c, 3, 60, 92
4, 330400, Note_on_c, 3, 60, 0
4, 330432, Note_on_c, 3, 63, 127
4, 330768, Note_on_c, 3, 63, 0
4, 330816, Note_on_c, 3, 58, 92
4, 330976, Note_on_c, 3, 58, 0
4, 331008, Note_on_c, 3, 58, 92
4, 331168, Note_on_c, 3, 58, 0
4, 331200, Note_on_c, 3, 57, 92
4, 331392, Note_on_c, 3, 57, 0
4, 331392, Note_on_c, 3, 55, 92
4, 331552, Note_on_c, 3, 55, 0
4, 331584, Note_on_c, 3, 54, 92
4, 331632, Note_on_c, 3, 54, 0
4, 331776, Note_on_c, 3, 55, 92
4, 331824, Note_on_c, 3, 55, 0
4, 331968, Note_on_c, 3, 57, 92
4, 332160, Note_on_c, 3, 57, 0
4, 332160, Note_on_c, 3, 54, 92
4, 332320, Note_on_c, 3, 54, 0
4, 332352, Note_on_c, 3, 55, 92
4, 332400, Note_on_c, 3, 55, 0
4, 332544, Note_on_c, 3, 57, 92
4, 332592, Note_on_c, 3, 57, 0
4, 332736, Note_on_c, 3, 57, 127
4, 333072, Note_on_c, 3, 57, 0
4, 333120, Note_on_c, 3, 57, 92
4, 333280, Note_on_c, 3, 57, 0
4, 333312, Note_on_c, 3, 57, 92
4, 333472, Note_on_c, 3, 57, 0
4, 333504, Note_on_c, 3, 57, 127
4, 333696, Note_on_c, 3, 57, 0
4, 333696, Note_on_c, 3, 55, 92
4, 333856, Note_on_c, 3, 55, 0
4, 333888, Note_on_c, 3, 53, 92
4, 333936, Note_on_c, 3, 53, 0
4, 334080, Note_on_c, 3, 56, 92
4, 334128, Note_on_c, 3, 56, 0
4, 334272, Note_on_c, 3, 56, 127
4, 334464, Note_on_c, 3, 56, 0
4, 334464, Note_on_c, 3, 55, 92
4, 334624, Note_on_c, 3, 55, 0
4, 334656, Note_on_c, 3, 55, 92
4, 334704, Note_on_c, 3, 55, 0
4, 334848, Note_on_c, 3, 54, 92
4, 334896, Note_on_c, 3, 54, 0
4, 335040, Note_on_c, 3, 54, 127
4, 335232, Note_on_c, 3, 54, 0
4, 335232, Note_on_c, 3, 53, 92
4, 335392, Note_on_c, 3, 53, 0
4, 335424, Note_on_c, 3, 53, 92
4, 335472, Note_on_c, 3, 53, 0
4, 335616, Note_on_c, 3, 53, 92
4, 335664, Note_on_c, 3, 53, 0
4, 335808, Note_on_c, 3, 62, 92
4, 335968, Note_on_c, 3, 62, 0
4, 336384, Note_on_c, 3, 62, 92
4, 336544, Note_on_c, 3, 62, 0
4, 336576, Note_on_c, 3, 60, 92
4, 336736, Note_on_c, 3, 60, 0
4, 337152, Note_on_c, 3, 60, 92
4, 337312, Note_on_c, 3, 60, 0
4, 337344, Note_on_c, 3, 58, 92
4, 337504, Note_on_c, 3, 58, 0
4, 337920, Note_on_c, 3, 58, 92
4, 338080, Note_on_c, 3, 58, 0
4, 338112, Note_on_c, 3, 58, 92
4, 338272, Note_on_c, 3, 58, 0
4, 338496, Note_on_c, 3, 58, 92
4, 338656, Note_on_c, 3, 58, 0
4, 338880, Note_on_c, 3, 58, 92
4, 339040, Note_on_c, 3, 58, 0
4, 339456, Note_on_c, 3, 55, 92
4, 339616, Note_on_c, 3, 55, 0
4, 339648, Note_on_c, 3, 51, 92
4, 339808, Note_on_c, 3, 51, 0
4, 340224, Note_on_c, 3, 63, 92
4, 340384, Note_on_c, 3, 63, 0
4, 340416, Note_on_c, 3, 62, 92
4, 340576, Note_on_c, 3, 62, 0
4, 340992, Note_on_c, 3, 58, 92
4, 341152, Note_on_c, 3, 58, 0
4, 341184, Note_on_c, 3, 60, 92
4, 341344, Note_on_c, 3, 60, 0
4, 341568, Note_on_c, 3, 62, 92
4, 341728, Note_on_c, 3, 62, 0
4, 341952, Note_on_c, 3, 55, 92
4, 342000, Note_on_c, 3, 55, 0
4, 342144, Note_on_c, 3, 62, 92
4, 342192, Note_on_c, 3, 62, 0
4, 342336, Note_on_c, 3, 61, 92
4, 342384, Note_on_c, 3, 61, 0
4, 345024, Note_on_c, 3, 50, 45
4, 346560, Note_on_c, 3, 50, 0
4, 346560, Note_on_c, 3, 50, 45
4, 348096, Note_on_c, 3, 50, 0
4, 348096, Note_on_c, 3, 50, 45
4, 349632, Note_on_c, 3, 50, 0
4, 349632, Note_on_c, 3, 50, 45
4, 350592, Note_on_c, 3, 50, 0
4, 350592, Note_on_c, 3, 49, 45
4, 350784, Note_on_c, 3, 49, 0
4, 350784, Note_on_c, 3, 50, 45
4, 350976, Note_on_c, 3, 50, 0
4, 350976, Note_on_c, 3, 52, 45
4, 351136, Note_on_c, 3, 52, 0
4, 351168, Note_on_c, 3, 53, 45
4, 352704, Note_on_c, 3, 53, 0
4, 352704, Note_on_c, 3, 53, 45
4, 354240, Note_on_c, 3, 53, 0
4, 354240, Note_on_c, 3, 53, 45
4, 355728, Note_on_c, 3, 53, 0
4, 355776, Note_on_c, 3, 53, 55
4, 355776, Note_on_c, 3, 55, 55
4, 357264, Note_on_c, 3, 53, 0
4, 357264, Note_on_c, 3, 55, 0
4, 357312, Note_on_c, 3, 53, 45
4, 357312, Note_on_c, 3, 57, 45
4, 357472, Note_on_c, 3, 53, 0
4, 357472, Note_on_c, 3, 57, 0
4, 362688, Note_on_c, 3, 65, 45
4, 362880, Note_on_c, 3, 65, 0
4, 362880, Note_on_c, 3, 72, 45
4, 363072, Note_on_c, 3, 72, 0
4, 363072, Note_on_c, 3, 69, 45
4, 363264, Note_on_c, 3, 69, 0
4, 363264, Note_on_c, 3, 72, 45
4, 363424, Note_on_c, 3, 72, 0
4, 364224, Note_on_c, 3, 57, 45
4, 364416, Note_on_c, 3, 57, 0
4, 364416, Note_on_c, 3, 65, 52
4, 364608, Note_on_c, 3, 65, 0
4, 364608, Note_on_c, 3, 60, 59
4, 364800, Note_on_c, 3, 60, 0
4, 364800, Note_on_c, 3, 69, 67
4, 364960, Note_on_c, 3, 69, 0
4, 365760, Note_on_c, 3, 48, 45
4, 365952, Note_on_c, 3, 48, 0
4, 365952, Note_on_c, 3, 58, 45
4, 366144, Note_on_c, 3, 58, 0
4, 366144, Note_on_c, 3, 55, 45
4, 366336, Note_on_c, 3, 55, 0
4, 366336, Note_on_c, 3, 60, 45
4, 366496, Note_on_c, 3, 60, 0
4, 366528, Note_on_c, 3, 60, 45
4, 366688, Note_on_c, 3, 60, 0
4, 367296, Note_on_c, 3, 53, 59
4, 367488, Note_on_c, 3, 53, 0
4, 367488, Note_on_c, 3, 60, 63
4, 367680, Note_on_c, 3, 60, 0
4, 367680, Note_on_c, 3, 57, 67
4, 367872, Note_on_c, 3, 57, 0
4, 367872, Note_on_c, 3, 65, 71
4, 368032, Note_on_c, 3, 65, 0
4, 368064, Note_on_c, 3, 57, 45
4, 368256, Note_on_c, 3, 57, 0
4, 368256, Note_on_c, 3, 65, 45
4, 368448, Note_on_c, 3, 65, 0
4, 368448, Note_on_c, 3, 57, 45
4, 368640, Note_on_c, 3, 57, 0
4, 368640, Note_on_c, 3, 69, 45
4, 368800, Note_on_c, 3, 69, 0
4, 368832, Note_on_c, 3, 65, 45
4, 369024, Note_on_c, 3, 65, 0
4, 369024, Note_on_c, 3, 69, 45
4, 369216, Note_on_c, 3, 69, 0
4, 369216, Note_on_c, 3, 65, 45
4, 369376, Note_on_c, 3, 65, 0
4, 369408, Note_on_c, 3, 53, 45
4, 369456, Note_on_c, 3, 53, 0
4, 369600, Note_on_c, 3, 53, 47
4, 369696, Note_on_c, 3, 53, 0
4, 369984, Note_on_c, 3, 52, 51
4, 370080, Note_on_c, 3, 52, 0
4, 370944, Note_on_c, 3, 64, 61
4, 371104, Note_on_c, 3, 64, 0
4, 371136, Note_on_c, 3, 64, 63
4, 371232, Note_on_c, 3, 64, 0
4, 371520, Note_on_c, 3, 57, 68
4, 371616, Note_on_c, 3, 57, 0
4, 373248, Note_on_c, 3, 53, 92
4, 373408, Note_on_c, 3, 53, 0
4, 373440, Note_on_c, 3, 53, 92
4, 373536, Note_on_c, 3, 53, 0
4, 373824, Note_on_c, 3, 52, 94
4, 373920, Note_on_c, 3, 52, 0
4, 374784, Note_on_c, 3, 55, 101
4, 374944, Note_on_c, 3, 55, 0
4, 374976, Note_on_c, 3, 55, 102
4, 375072, Note_on_c, 3, 55, 0
4, 375360, Note_on_c, 3, 53, 106
4, 375408, Note_on_c, 3, 53, 0
4, 375552, Note_on_c, 3, 53, 108
4, 375712, Note_on_c, 3, 53, 0
4, 375744, Note_on_c, 3, 58, 108
4, 375904, Note_on_c, 3, 58, 0
4, 375936, Note_on_c, 3, 60, 108
4, 376096, Note_on_c, 3, 60, 0
4, 376128, Note_on_c, 3, 60, 108
4, 376288, Note_on_c, 3, 60, 0
4, 376320, Note_on_c, 3, 60, 108
4, 376480, Note_on_c, 3, 60, 0
4, 376512, Note_on_c, 3, 60, 108
4, 376672, Note_on_c, 3, 60, 0
4, 376704, Note_on_c, 3, 60, 108
4, 376864, Note_on_c, 3, 60, 0
4, 376896, Note_on_c, 3, 60, 108
4, 377056, Note_on_c, 3, 60, 0
4, 377088, Note_on_c, 3, 53, 108
4, 377088, Note_on_c, 3, 57, 108
4, 377248, Note_on_c, 3, 53, 0
4, 377248, Note_on_c, 3, 57, 0
4, 377280, Note_on_c, 3, 53, 108
4, 377280, Note_on_c, 3, 57, 108
4, 377616, Note_on_c, 3, 53, 0
4, 377616, Note_on_c, 3, 57, 0
4, 377664, Note_on_c, 3, 55, 108
4, 377664, Note_on_c, 3, 58, 108
4, 378000, Note_on_c, 3, 55, 0
4, 378000, Note_on_c, 3, 58, 0
4, 378048, Note_on_c, 3, 53, 108
4, 378048, Note_on_c, 3, 57, 108
4, 378208, Note_on_c, 3, 53, 0
4, 378208, Note_on_c, 3, 57, 0
4, 379392, Note_on_c, 3, 58, 45
4, 379552, Note_on_c, 3, 58, 0
4, 379584, Note_on_c, 3, 55, 45
4, 379920, Note_on_c, 3, 55, 0
4, 379968, Note_on_c, 3, 52, 45
4, 381648, Note_on_c, 3, 52, 0
4, 382464, Note_on_c, 3, 59, 45
4, 382624, Note_on_c, 3, 59, 0
4, 382656, Note_on_c, 3, 60, 45
4, 382992, Note_on_c, 3, 60, 0
4, 383040, Note_on_c, 3, 57, 45
4, 384720, Note_on_c, 3, 57, 0
4, 385536, Note_on_c, 3, 66, 30
4, 385696, Note_on_c, 3, 66, 0
4, 385728, Note_on_c, 3, 70, 30
4, 386256, Note_on_c, 3, 70, 0
4, 387648, Note_on_c, 3, 65, 30
4, 387808, Note_on_c, 3, 65, 0
4, 388032, Note_on_c, 3, 65, 30
4, 388192, Note_on_c, 3, 65, 0
4, 388416, Note_on_c, 3, 72, 30
4, 388576, Note_on_c, 3, 72, 0
4, 388608, Note_on_c, 3, 72, 30
4, 388768, Note_on_c, 3, 72, 0
4, 388800, Note_on_c, 3, 72, 30
4, 388960, Note_on_c, 3, 72, 0
4, 389568, Note_on_c, 3, 72, 30
4, 389728, Note_on_c, 3, 72, 0
4, 390336, Note_on_c, 3, 65, 30
4, 390496, Note_on_c, 3, 65, 0
4, 390720, Note_on_c, 3, 65, 30
4, 390880, Note_on_c, 3, 65, 0
4, 391104, Note_on_c, 3, 67, 30
4, 391264, Note_on_c, 3, 67, 0
4, 391488, Note_on_c, 3, 67, 30
4, 391648, Note_on_c, 3, 67, 0
4, 391872, Note_on_c, 3, 69, 30
4, 392032, Note_on_c, 3, 69, 0
4, 392640, Note_on_c, 3, 69, 30
4, 392800, Note_on_c, 3, 69, 0
4, 393024, Note_on_c, 3, 69, 30
4, 393184, Note_on_c, 3, 69, 0
4, 393408, Note_on_c, 3, 69, 30
4, 393568, Note_on_c, 3, 69, 0
4, 393792, Note_on_c, 3, 70, 30
4, 393952, Note_on_c, 3, 70, 0
4, 394176, Note_on_c, 3, 65, 30
4, 394336, Note_on_c, 3, 65, 0
4, 394560, Note_on_c, 3, 64, 30
4, 394560, Note_on_c, 3, 72, 30
4, 394720, Note_on_c, 3, 64, 0
4, 394720, Note_on_c, 3, 72, 0
4, 394752, Note_on_c, 3, 65, 30
4, 394752, Note_on_c, 3, 72, 30
4, 394912, Note_on_c, 3, 65, 0
4, 394912, Note_on_c, 3, 72, 0
4, 394944, Note_on_c, 3, 64, 30
4, 394944, Note_on_c, 3, 72, 30
4, 395104, Note_on_c, 3, 64, 0
4, 395104, Note_on_c, 3, 72, 0
4, 395712, Note_on_c, 3, 69, 30
4, 395872, Note_on_c, 3, 69, 0
4, 396096, Note_on_c, 3, 69, 30
4, 396256, Note_on_c, 3, 69, 0
4, 396480, Note_on_c, 3, 65, 30
4, 396480, Note_on_c, 3, 69, 30
4, 396640, Note_on_c, 3, 65, 0
4, 396640, Note_on_c, 3, 69, 0
4, 396864, Note_on_c, 3, 65, 30
4, 396864, Note_on_c, 3, 69, 30
4, 397024, Note_on_c, 3, 65, 0
4, 397024, Note_on_c, 3, 69, 0
4, 397248, Note_on_c, 3, 67, 30
4, 397408, Note_on_c, 3, 67, 0
4, 397632, Note_on_c, 3, 64, 30
4, 397792, Note_on_c, 3, 64, 0
4, 398016, Note_on_c, 3, 69, 30
4, 398176, Note_on_c, 3, 69, 0
4, 398208, Note_on_c, 3, 60, 30
4, 398368, Note_on_c, 3, 60, 0
4, 398400, Note_on_c, 3, 48, 30
4, 398560, Note_on_c, 3, 48, 0
4, 398976, Note_on_c, 3, 60, 30
4, 399136, Note_on_c, 3, 60, 0
4, 399168, Note_on_c, 3, 48, 30
4, 399328, Note_on_c, 3, 48, 0
4, 399744, Note_on_c, 3, 60, 30
4, 399904, Note_on_c, 3, 60, 0
4, 399936, Note_on_c, 3, 48, 30
4, 400096, Note_on_c, 3, 48, 0
4, 400512, Note_on_c, 3, 60, 30
4, 400672, Note_on_c, 3, 60, 0
4, 400704, Note_on_c, 3, 48, 30
4, 400864, Note_on_c, 3, 48, 0
4, 401280, Note_on_c, 3, 60, 30
4, 401440, Note_on_c, 3, 60, 0
4, 401472, Note_on_c, 3, 48, 30
4, 401632, Note_on_c, 3, 48, 0
4, 402048, Note_on_c, 3, 65, 30
4, 402208, Note_on_c, 3, 65, 0
4, 402432, Note_on_c, 3, 64, 30
4, 402592, Note_on_c, 3, 64, 0
4, 402816, Note_on_c, 3, 64, 30
4, 402976, Note_on_c, 3, 64, 0
4, 403200, Note_on_c, 3, 62, 30
4, 403360, Note_on_c, 3, 62, 0
4, 403584, Note_on_c, 3, 62, 30
4, 403744, Note_on_c, 3, 62, 0
4, 403968, Note_on_c, 3, 60, 30
4, 404128, Note_on_c, 3, 60, 0
4, 404352, Note_on_c, 3, 58, 30
4, 404512, Note_on_c, 3, 58, 0
4, 404544, Note_on_c, 3, 58, 30
4, 404704, Note_on_c, 3, 58, 0
4, 404736, Note_on_c, 3, 57, 108
4, 404896, Note_on_c, 3, 57, 0
4, 404928, Note_on_c, 3, 60, 108
4, 405264, Note_on_c, 3, 60, 0
4, 405312, Note_on_c, 3, 55, 108
4, 405472, Note_on_c, 3, 55, 0
4, 405504, Note_on_c, 3, 55, 108
4, 405664, Note_on_c, 3, 55, 0
4, 405696, Note_on_c, 3, 57, 108
4, 406032, Note_on_c, 3, 57, 0
4, 406080, Note_on_c, 3, 53, 108
4, 406240, Note_on_c, 3, 53, 0
4, 406272, Note_on_c, 3, 57, 108
4, 406432, Note_on_c, 3, 57, 0
4, 406464, Note_on_c, 3, 60, 108
4, 406560, Note_on_c, 3, 60, 0
4, 406848, Note_on_c, 3, 48, 108
4, 406944, Note_on_c, 3, 48, 0
4, 407232, Note_on_c, 3, 53, 108
4, 407392, Note_on_c, 3, 53, 0
4, 407392, End_track
5, 0, Start_track
5, 0, MIDI_port, 0
5, 0, Title_t, "Violoncello."
5, 0, Program_c, 4, 0
5, 0, Control_c, 4, 7, 127
5, 0, Control_c, 4, 10, 64
5, 0, Note_on_c, 4, 43, 45
5, 256, Note_on_c, 4, 43, 0
5, 288, Note_on_c, 4, 40, 45
5, 382, Note_on_c, 4, 40, 0
5, 384, Note_on_c, 4, 44, 45
5, 720, Note_on_c, 4, 44, 0
5, 2304, Note_on_c, 4, 48, 45
5, 2560, Note_on_c, 4, 48, 0
5, 2592, Note_on_c, 4, 45, 67
5, 2686, Note_on_c, 4, 45, 0
5, 2688, Note_on_c, 4, 49, 75
5, 3024, Note_on_c, 4, 49, 0
5, 4224, Note_on_c, 4, 56, 45
5, 4560, Note_on_c, 4, 56, 0
5, 4608, Note_on_c, 4, 56, 92
5, 4702, Note_on_c, 4, 56, 0
5, 4704, Note_on_c, 4, 56, 92
5, 4798, Note_on_c, 4, 56, 0
5, 4800, Note_on_c, 4, 56, 92
5, 4960, Note_on_c, 4, 56, 0
5, 5760, Note_on_c, 4, 43, 92
5, 5854, Note_on_c, 4, 43, 0
5, 5856, Note_on_c, 4, 43, 92
5, 5950, Note_on_c, 4, 43, 0
5, 5952, Note_on_c, 4, 43, 92
5, 6112, Note_on_c, 4, 43, 0
5, 6912, Note_on_c, 4, 49, 45
5, 7168, Note_on_c, 4, 49, 0
5, 7200, Note_on_c, 4, 46, 80
5, 7294, Note_on_c, 4, 46, 0
5, 7296, Note_on_c, 4, 52, 92
5, 8016, Note_on_c, 4, 52, 0
5, 8064, Note_on_c, 4, 52, 45
5, 8320, Note_on_c, 4, 52, 0
5, 8352, Note_on_c, 4, 48, 80
5, 8446, Note_on_c, 4, 48, 0
5, 8448, Note_on_c, 4, 53, 92
5, 9168, Note_on_c, 4, 53, 0
5, 9216, Note_on_c, 4, 53, 92
5, 9472, Note_on_c, 4, 53, 0
5, 9504, Note_on_c, 4, 50, 92
5, 9598, Note_on_c, 4, 50, 0
5, 9600, Note_on_c, 4, 55, 108
5, 10320, Note_on_c, 4, 55, 0
5, 10368, Note_on_c, 4, 36, 83
5, 10462, Note_on_c, 4, 36, 0
5, 10464, Note_on_c, 4, 36, 80
5, 10558, Note_on_c, 4, 36, 0
5, 10560, Note_on_c, 4, 36, 77
5, 10720, Note_on_c, 4, 36, 0
5, 11520, Note_on_c, 4, 36, 45
5, 11614, Note_on_c, 4, 36, 0
5, 11616, Note_on_c, 4, 36, 45
5, 11710, Note_on_c, 4, 36, 0
5, 11712, Note_on_c, 4, 36, 45
5, 11872, Note_on_c, 4, 36, 0
5, 12672, Note_on_c, 4, 36, 30
5, 12766, Note_on_c, 4, 36, 0
5, 12768, Note_on_c, 4, 36, 30
5, 12862, Note_on_c, 4, 36, 0
5, 12864, Note_on_c, 4, 36, 30
5, 13024, Note_on_c, 4, 36, 0
5, 14208, Note_on_c, 4, 36, 92
5, 14256, Note_on_c, 4, 36, 0
5, 14400, Note_on_c, 4, 40, 92
5, 14448, Note_on_c, 4, 40, 0
5, 14592, Note_on_c, 4, 43, 92
5, 14640, Note_on_c, 4, 43, 0
5, 14784, Note_on_c, 4, 48, 92
5, 14832, Note_on_c, 4, 48, 0
5, 14976, Note_on_c, 4, 50, 92
5, 15024, Note_on_c, 4, 50, 0
5, 15168, Note_on_c, 4, 51, 92
5, 15216, Note_on_c, 4, 51, 0
5, 15360, Note_on_c, 4, 52, 92
5, 15408, Note_on_c, 4, 52, 0
5, 15552, Note_on_c, 4, 53, 92
5, 15600, Note_on_c, 4, 53, 0
5, 15744, Note_on_c, 4, 57, 92
5, 15792, Note_on_c, 4, 57, 0
5, 15936, Note_on_c, 4, 60, 92
5, 15984, Note_on_c, 4, 60, 0
5, 16128, Note_on_c, 4, 62, 92
5, 16176, Note_on_c, 4, 62, 0
5, 16320, Note_on_c, 4, 63, 92
5, 16368, Note_on_c, 4, 63, 0
5, 16512, Note_on_c, 4, 64, 92
5, 16560, Note_on_c, 4, 64, 0
5, 16704, Note_on_c, 4, 65, 92
5, 16752, Note_on_c, 4, 65, 0
5, 16896, Note_on_c, 4, 65, 92
5, 16944, Note_on_c, 4, 65, 0
5, 17088, Note_on_c, 4, 65, 45
5, 18624, Note_on_c, 4, 65, 0
5, 18624, Note_on_c, 4, 65, 45
5, 20160, Note_on_c, 4, 65, 0
5, 20160, Note_on_c, 4, 65, 45
5, 21696, Note_on_c, 4, 65, 0
5, 21696, Note_on_c, 4, 65, 45
5, 22624, Note_on_c, 4, 65, 0
5, 22656, Note_on_c, 4, 65, 45
5, 22848, Note_on_c, 4, 65, 0
5, 22848, Note_on_c, 4, 60, 45
5, 23040, Note_on_c, 4, 60, 0
5, 23040, Note_on_c, 4, 57, 45
5, 23200, Note_on_c, 4, 57, 0
5, 23232, Note_on_c, 4, 53, 45
5, 23616, Note_on_c, 4, 53, 0
5, 23616, Note_on_c, 4, 57, 45
5, 24000, Note_on_c, 4, 57, 0
5, 24000, Note_on_c, 4, 53, 45
5, 24384, Note_on_c, 4, 53, 0
5, 24384, Note_on_c, 4, 60, 45
5, 24720, Note_on_c, 4, 60, 0
5, 24768, Note_on_c, 4, 53, 45
5, 25152, Note_on_c, 4, 53, 0
5, 25152, Note_on_c, 4, 57, 45
5, 25536, Note_on_c, 4, 57, 0
5, 25536, Note_on_c, 4, 53, 45
5, 25920, Note_on_c, 4, 53, 0
5, 25920, Note_on_c, 4, 58, 45
5, 26256, Note_on_c, 4, 58, 0
5, 26304, Note_on_c, 4, 41, 45
5, 26688, Note_on_c, 4, 41, 0
5, 26688, Note_on_c, 4, 46, 45
5, 27072, Note_on_c, 4, 46, 0
5, 27072, Note_on_c, 4, 41, 45
5, 27456, Note_on_c, 4, 41, 0
5, 27456, Note_on_c, 4, 46, 45
5, 27840, Note_on_c, 4, 46, 0
5, 27840, Note_on_c, 4, 41, 45
5, 28224, Note_on_c, 4, 41, 0
5, 28224, Note_on_c, 4, 46, 45
5, 28608, Note_on_c, 4, 46, 0
5, 28608, Note_on_c, 4, 41, 45
5, 28992, Note_on_c, 4, 41, 0
5, 28992, Note_on_c, 4, 45, 45
5, 29328, Note_on_c, 4, 45, 0
5, 29376, Note_on_c, 4, 53, 92
5, 29536, Note_on_c, 4, 53, 0
5, 29952, Note_on_c, 4, 53, 92
5, 30112, Note_on_c, 4, 53, 0
5, 30144, Note_on_c, 4, 52, 92
5, 30304, Note_on_c, 4, 52, 0
5, 30720, Note_on_c, 4, 52, 92
5, 30880, Note_on_c, 4, 52, 0
5, 30912, Note_on_c, 4, 50, 92
5, 31072, Note_on_c, 4, 50, 0
5, 31488, Note_on_c, 4, 50, 92
5, 31648, Note_on_c, 4, 50, 0
5, 31680, Note_on_c, 4, 50, 92
5, 31840, Note_on_c, 4, 50, 0
5, 32064, Note_on_c, 4, 45, 92
5, 32224, Note_on_c, 4, 45, 0
5, 32448, Note_on_c, 4, 46, 92
5, 32608, Note_on_c, 4, 46, 0
5, 33024, Note_on_c, 4, 46, 92
5, 33184, Note_on_c, 4, 46, 0
5, 33216, Note_on_c, 4, 43, 92
5, 33376, Note_on_c, 4, 43, 0
5, 33792, Note_on_c, 4, 43, 92
5, 33952, Note_on_c, 4, 43, 0
5, 33984, Note_on_c, 4, 41, 92
5, 34144, Note_on_c, 4, 41, 0
5, 34560, Note_on_c, 4, 41, 92
5, 34720, Note_on_c, 4, 41, 0
5, 34752, Note_on_c, 4, 38, 92
5, 34912, Note_on_c, 4, 38, 0
5, 35136, Note_on_c, 4, 40, 92
5, 35296, Note_on_c, 4, 40, 0
5, 35520, Note_on_c, 4, 41, 92
5, 35568, Note_on_c, 4, 41, 0
5, 35712, Note_on_c, 4, 53, 92
5, 35760, Note_on_c, 4, 53, 0
5, 35904, Note_on_c, 4, 52, 92
5, 35952, Note_on_c, 4, 52, 0
5, 38592, Note_on_c, 4, 45, 45
5, 40128, Note_on_c, 4, 45, 0
5, 40128, Note_on_c, 4, 45, 45
5, 41664, Note_on_c, 4, 45, 0
5, 41664, Note_on_c, 4, 45, 45
5, 43200, Note_on_c, 4, 45, 0
5, 43200, Note_on_c, 4, 45, 55
5, 43920, Note_on_c, 4, 45, 0
5, 43968, Note_on_c, 4, 47, 65
5, 44160, Note_on_c, 4, 47, 0
5, 44160, Note_on_c, 4, 45, 67
5, 44352, Note_on_c, 4, 45, 0
5, 44352, Note_on_c, 4, 49, 69
5, 44512, Note_on_c, 4, 49, 0
5, 44544, Note_on_c, 4, 61, 72
5, 44704, Note_on_c, 4, 61, 0
5, 44736, Note_on_c, 4, 57, 45
5, 44896, Note_on_c, 4, 57, 0
5, 45120, Note_on_c, 4, 52, 45
5, 45280, Note_on_c, 4, 52, 0
5, 45504, Note_on_c, 4, 52, 45
5, 45664, Note_on_c, 4, 52, 0
5, 45888, Note_on_c, 4, 54, 45
5, 46048, Note_on_c, 4, 54, 0
5, 46272, Note_on_c, 4, 57, 45
5, 46656, Note_on_c, 4, 57, 0
5, 46656, Note_on_c, 4, 59, 45
5, 46848, Note_on_c, 4, 59, 0
5, 46848, Note_on_c, 4, 61, 45
5, 47008, Note_on_c, 4, 61, 0
5, 47040, Note_on_c, 4, 59, 45
5, 47760, Note_on_c, 4, 59, 0
5, 47808, Note_on_c, 4, 57, 45
5, 47968, Note_on_c, 4, 57, 0
5, 48192, Note_on_c, 4, 52, 45
5, 48352, Note_on_c, 4, 52, 0
5, 48576, Note_on_c, 4, 52, 45
5, 48736, Note_on_c, 4, 52, 0
5, 48960, Note_on_c, 4, 54, 45
5, 49120, Note_on_c, 4, 54, 0
5, 49344, Note_on_c, 4, 54, 45
5, 49504, Note_on_c, 4, 54, 0
5, 49728, Note_on_c, 4, 52, 45
5, 49888, Note_on_c, 4, 52, 0
5, 50112, Note_on_c, 4, 52, 45
5, 50832, Note_on_c, 4, 52, 0
5, 50880, Note_on_c, 4, 45, 45
5, 51072, Note_on_c, 4, 45, 0
5, 51072, Note_on_c, 4, 52, 48
5, 51264, Note_on_c, 4, 52, 0
5, 51264, Note_on_c, 4, 49, 51
5, 51456, Note_on_c, 4, 49, 0
5, 51456, Note_on_c, 4, 57, 55
5, 51616, Note_on_c, 4, 57, 0
5, 53952, Note_on_c, 4, 45, 45
5, 54144, Note_on_c, 4, 45, 0
5, 54144, Note_on_c, 4, 52, 48
5, 54336, Note_on_c, 4, 52, 0
5, 54336, Note_on_c, 4, 49, 51
5, 54528, Note_on_c, 4, 49, 0
5, 54528, Note_on_c, 4, 57, 55
5, 54688, Note_on_c, 4, 57, 0
5, 54720, Note_on_c, 4, 45, 59
5, 54880, Note_on_c, 4, 45, 0
5, 55104, Note_on_c, 4, 40, 67
5, 55264, Note_on_c, 4, 40, 0
5, 55488, Note_on_c, 4, 40, 45
5, 55648, Note_on_c, 4, 40, 0
5, 55872, Note_on_c, 4, 42, 45
5, 56032, Note_on_c, 4, 42, 0
5, 56256, Note_on_c, 4, 42, 45
5, 56416, Note_on_c, 4, 42, 0
5, 56640, Note_on_c, 4, 40, 45
5, 56800, Note_on_c, 4, 40, 0
5, 57024, Note_on_c, 4, 42, 45
5, 57184, Note_on_c, 4, 42, 0
5, 57408, Note_on_c, 4, 40, 51
5, 57568, Note_on_c, 4, 40, 0
5, 57792, Note_on_c, 4, 42, 57
5, 57952, Note_on_c, 4, 42, 0
5, 58176, Note_on_c, 4, 40, 63
5, 58336, Note_on_c, 4, 40, 0
5, 58560, Note_on_c, 4, 42, 69
5, 58720, Note_on_c, 4, 42, 0
5, 58944, Note_on_c, 4, 40, 75
5, 59104, Note_on_c, 4, 40, 0
5, 59328, Note_on_c, 4, 42, 81
5, 59488, Note_on_c, 4, 42, 0
5, 59712, Note_on_c, 4, 40, 88
5, 59872, Note_on_c, 4, 40, 0
5, 59904, Note_on_c, 4, 57, 92
5, 60064, Note_on_c, 4, 57, 0
5, 60096, Note_on_c, 4, 61, 92
5, 60192, Note_on_c, 4, 61, 0
5, 60480, Note_on_c, 4, 56, 94
5, 60576, Note_on_c, 4, 56, 0
5, 61440, Note_on_c, 4, 59, 99
5, 61600, Note_on_c, 4, 59, 0
5, 61632, Note_on_c, 4, 62, 100
5, 61728, Note_on_c, 4, 62, 0
5, 62016, Note_on_c, 4, 57, 102
5, 62112, Note_on_c, 4, 57, 0
5, 62976, Note_on_c, 4, 49, 108
5, 63136, Note_on_c, 4, 49, 0
5, 63168, Note_on_c, 4, 52, 127
5, 63504, Note_on_c, 4, 52, 0
5, 63552, Note_on_c, 4, 47, 108
5, 63712, Note_on_c, 4, 47, 0
5, 63744, Note_on_c, 4, 47, 108
5, 63904, Note_on_c, 4, 47, 0
5, 63936, Note_on_c, 4, 49, 127
5, 64272, Note_on_c, 4, 49, 0
5, 64320, Note_on_c, 4, 45, 108
5, 64480, Note_on_c, 4, 45, 0
5, 64512, Note_on_c, 4, 45, 108
5, 64672, Note_on_c, 4, 45, 0
5, 64704, Note_on_c, 4, 40, 127
5, 65040, Note_on_c, 4, 40, 0
5, 65088, Note_on_c, 4, 52, 108
5, 65424, Note_on_c, 4, 52, 0
5, 65472, Note_on_c, 4, 45, 108
5, 65632, Note_on_c, 4, 45, 0
5, 66048, Note_on_c, 4, 40, 45
5, 66208, Note_on_c, 4, 40, 0
5, 66240, Note_on_c, 4, 40, 45
5, 66336, Note_on_c, 4, 40, 0
5, 66624, Note_on_c, 4, 41, 45
5, 66720, Note_on_c, 4, 41, 0
5, 67584, Note_on_c, 4, 41, 92
5, 67744, Note_on_c, 4, 41, 0
5, 67776, Note_on_c, 4, 36, 92
5, 67824, Note_on_c, 4, 36, 0
5, 67968, Note_on_c, 4, 36, 92
5, 68016, Note_on_c, 4, 36, 0
5, 68160, Note_on_c, 4, 40, 92
5, 68208, Note_on_c, 4, 40, 0
5, 68352, Note_on_c, 4, 43, 92
5, 68400, Note_on_c, 4, 43, 0
5, 68544, Note_on_c, 4, 48, 92
5, 68592, Note_on_c, 4, 48, 0
5, 68736, Note_on_c, 4, 50, 92
5, 68784, Note_on_c, 4, 50, 0
5, 68928, Note_on_c, 4, 51, 92
5, 68976, Note_on_c, 4, 51, 0
5, 69120, Note_on_c, 4, 52, 92
5, 69168, Note_on_c, 4, 52, 0
5, 69312, Note_on_c, 4, 53, 92
5, 69360, Note_on_c, 4, 53, 0
5, 69504, Note_on_c, 4, 57, 92
5, 69552, Note_on_c, 4, 57, 0
5, 69696, Note_on_c, 4, 60, 92
5, 69744, Note_on_c, 4, 60, 0
5, 69888, Note_on_c, 4, 62, 92
5, 69936, Note_on_c, 4, 62, 0
5, 70080, Note_on_c, 4, 63, 92
5, 70128, Note_on_c, 4, 63, 0
5, 70272, Note_on_c, 4, 64, 92
5, 70320, Note_on_c, 4, 64, 0
5, 70464, Note_on_c, 4, 65, 92
5, 70512, Note_on_c, 4, 65, 0
5, 70656, Note_on_c, 4, 65, 92
5, 70704, Note_on_c, 4, 65, 0
5, 70848, Note_on_c, 4, 65, 45
5, 72384, Note_on_c, 4, 65, 0
5, 72384, Note_on_c, 4, 65, 45
5, 73920, Note_on_c, 4, 65, 0
5, 73920, Note_on_c, 4, 65, 45
5, 75456, Note_on_c, 4, 65, 0
5, 75456, Note_on_c, 4, 65, 45
5, 76384, Note_on_c, 4, 65, 0
5, 76416, Note_on_c, 4, 65, 45
5, 76608, Note_on_c, 4, 65, 0
5, 76608, Note_on_c, 4, 60, 45
5, 76800, Note_on_c, 4, 60, 0
5, 76800, Note_on_c, 4, 57, 45
5, 76960, Note_on_c, 4, 57, 0
5, 76992, Note_on_c, 4, 53, 45
5, 77376, Note_on_c, 4, 53, 0
5, 77376, Note_on_c, 4, 57, 45
5, 77760, Note_on_c, 4, 57, 0
5, 77760, Note_on_c, 4, 53, 45
5, 78144, Note_on_c, 4, 53, 0
5, 78144, Note_on_c, 4, 60, 45
5, 78480, Note_on_c, 4, 60, 0
5, 78528, Note_on_c, 4, 53, 45
5, 78912, Note_on_c, 4, 53, 0
5, 78912, Note_on_c, 4, 57, 45
5, 79296, Note_on_c, 4, 57, 0
5, 79296, Note_on_c, 4, 53, 45
5, 79680, Note_on_c, 4, 53, 0
5, 79680, Note_on_c, 4, 58, 45
5, 80016, Note_on_c, 4, 58, 0
5, 80064, Note_on_c, 4, 41, 45
5, 80448, Note_on_c, 4, 41, 0
5, 80448, Note_on_c, 4, 46, 45
5, 80832, Note_on_c, 4, 46, 0
5, 80832, Note_on_c, 4, 41, 45
5, 81216, Note_on_c, 4, 41, 0
5, 81216, Note_on_c, 4, 46, 45
5, 81600, Note_on_c, 4, 46, 0
5, 81600, Note_on_c, 4, 41, 45
5, 81984, Note_on_c, 4, 41, 0
5, 81984, Note_on_c, 4, 46, 45
5, 82368, Note_on_c, 4, 46, 0
5, 82368, Note_on_c, 4, 41, 45
5, 82752, Note_on_c, 4, 41, 0
5, 82752, Note_on_c, 4, 45, 45
5, 83088, Note_on_c, 4, 45, 0
5, 83136, Note_on_c, 4, 53, 92
5, 83296, Note_on_c, 4, 53, 0
5, 83712, Note_on_c, 4, 53, 92
5, 83872, Note_on_c, 4, 53, 0
5, 83904, Note_on_c, 4, 52, 92
5, 84064, Note_on_c, 4, 52, 0
5, 84480, Note_on_c, 4, 52, 92
5, 84640, Note_on_c, 4, 52, 0
5, 84672, Note_on_c, 4, 50, 92
5, 84832, Note_on_c, 4, 50, 0
5, 85248, Note_on_c, 4, 50, 92
5, 85408, Note_on_c, 4, 50, 0
5, 85440, Note_on_c, 4, 50, 92
5, 85600, Note_on_c, 4, 50, 0
5, 85824, Note_on_c, 4, 45, 92
5, 85984, Note_on_c, 4, 45, 0
5, 86208, Note_on_c, 4, 46, 92
5, 86368, Note_on_c, 4, 46, 0
5, 86784, Note_on_c, 4, 46, 92
5, 86944, Note_on_c, 4, 46, 0
5, 86976, Note_on_c, 4, 43, 92
5, 87136, Note_on_c, 4, 43, 0
5, 87552, Note_on_c, 4, 43, 92
5, 87712, Note_on_c, 4, 43, 0
5, 87744, Note_on_c, 4, 41, 92
5, 87904, Note_on_c, 4, 41, 0
5, 88320, Note_on_c, 4, 41, 92
5, 88480, Note_on_c, 4, 41, 0
5, 88512, Note_on_c, 4, 38, 92
5, 88672, Note_on_c, 4, 38, 0
5, 88896, Note_on_c, 4, 40, 92
5, 89056, Note_on_c, 4, 40, 0
5, 89280, Note_on_c, 4, 41, 92
5, 89328, Note_on_c, 4, 41, 0
5, 89472, Note_on_c, 4, 53, 92
5, 89520, Note_on_c, 4, 53, 0
5, 89664, Note_on_c, 4, 52, 92
5, 89712, Note_on_c, 4, 52, 0
5, 92352, Note_on_c, 4, 45, 45
5, 93888, Note_on_c, 4, 45, 0
5, 93888, Note_on_c, 4, 45, 45
5, 95424, Note_on_c, 4, 45, 0
5, 95424, Note_on_c, 4, 45, 45
5, 96960, Note_on_c, 4, 45, 0
5, 96960, Note_on_c, 4, 45, 55
5, 97680, Note_on_c, 4, 45, 0
5, 97728, Note_on_c, 4, 47, 65
5, 97920, Note_on_c, 4, 47, 0
5, 97920, Note_on_c, 4, 45, 67
5, 98112, Note_on_c, 4, 45, 0
5, 98112, Note_on_c, 4, 49, 69
5, 98272, Note_on_c, 4, 49, 0
5, 98304, Note_on_c, 4, 61, 72
5, 98464, Note_on_c, 4, 61, 0
5, 98496, Note_on_c, 4, 57, 45
5, 98656, Note_on_c, 4, 57, 0
5, 98880, Note_on_c, 4, 52, 45
5, 99040, Note_on_c, 4, 52, 0
5, 99264, Note_on_c, 4, 52, 45
5, 99424, Note_on_c, 4, 52, 0
5, 99648, Note_on_c, 4, 54, 45
5, 99808, Note_on_c, 4, 54, 0
5, 100032, Note_on_c, 4, 57, 45
5, 100416, Note_on_c, 4, 57, 0
5, 100416, Note_on_c, 4, 59, 45
5, 100608, Note_on_c, 4, 59, 0
5, 100608, Note_on_c, 4, 61, 45
5, 100768, Note_on_c, 4, 61, 0
5, 100800, Note_on_c, 4, 59, 45
5, 101520, Note_on_c, 4, 59, 0
5, 101568, Note_on_c, 4, 57, 45
5, 101728, Note_on_c, 4, 57, 0
5, 101952, Note_on_c, 4, 52, 45
5, 102112, Note_on_c, 4, 52, 0
5, 102336, Note_on_c, 4, 52, 45
5, 102496, Note_on_c, 4, 52, 0
5, 102720, Note_on_c, 4, 54, 45
5, 102880, Note_on_c, 4, 54, 0
5, 103104, Note_on_c, 4, 54, 45
5, 103264, Note_on_c, 4, 54, 0
5, 103488, Note_on_c, 4, 52, 45
5, 103648, Note_on_c, 4, 52, 0
5, 103872, Note_on_c, 4, 52, 45
5, 104592, Note_on_c, 4, 52, 0
5, 104640, Note_on_c, 4, 45, 45
5, 104832, Note_on_c, 4, 45, 0
5, 104832, Note_on_c, 4, 52, 48
5, 105024, Note_on_c, 4, 52, 0
5, 105024, Note_on_c, 4, 49, 51
5, 105216, Note_on_c, 4, 49, 0
5, 105216, Note_on_c, 4, 57, 55
5, 105376, Note_on_c, 4, 57, 0
5, 107712, Note_on_c, 4, 45, 45
5, 107904, Note_on_c, 4, 45, 0
5, 107904, Note_on_c, 4, 52, 48
5, 108096, Note_on_c, 4, 52, 0
5, 108096, Note_on_c, 4, 49, 51
5, 108288, Note_on_c, 4, 49, 0
5, 108288, Note_on_c, 4, 57, 55
5, 108448, Note_on_c, 4, 57, 0
5, 108480, Note_on_c, 4, 45, 59
5, 108640, Note_on_c, 4, 45, 0
5, 108864, Note_on_c, 4, 40, 67
5, 109024, Note_on_c, 4, 40, 0
5, 109248, Note_on_c, 4, 40, 45
5, 109408, Note_on_c, 4, 40, 0
5, 109632, Note_on_c, 4, 42, 45
5, 109792, Note_on_c, 4, 42, 0
5, 110016, Note_on_c, 4, 42, 45
5, 110176, Note_on_c, 4, 42, 0
5, 110400, Note_on_c, 4, 40, 45
5, 110560, Note_on_c, 4, 40, 0
5, 110784, Note_on_c, 4, 42, 45
5, 110944, Note_on_c, 4, 42, 0
5, 111168, Note_on_c, 4, 40, 51
5, 111328, Note_on_c, 4, 40, 0
5, 111552, Note_on_c, 4, 42, 57
5, 111712, Note_on_c, 4, 42, 0
5, 111936, Note_on_c, 4, 40, 63
5, 112096, Note_on_c, 4, 40, 0
5, 112320, Note_on_c, 4, 42, 69
5, 112480, Note_on_c, 4, 42, 0
5, 112704, Note_on_c, 4, 40, 75
5, 112864, Note_on_c, 4, 40, 0
5, 113088, Note_on_c, 4, 42, 81
5, 113248, Note_on_c, 4, 42, 0
5, 113472, Note_on_c, 4, 40, 88
5, 113632, Note_on_c, 4, 40, 0
5, 113664, Note_on_c, 4, 57, 92
5, 113824, Note_on_c, 4, 57, 0
5, 113856, Note_on_c, 4, 61, 92
5, 113952, Note_on_c, 4, 61, 0
5, 114240, Note_on_c, 4, 56, 94
5, 114336, Note_on_c, 4, 56, 0
5, 115200, Note_on_c, 4, 59, 99
5, 115360, Note_on_c, 4, 59, 0
5, 115392, Note_on_c, 4, 62, 100
5, 115488, Note_on_c, 4, 62, 0
5, 115776, Note_on_c, 4, 57, 102
5, 115872, Note_on_c, 4, 57, 0
5, 116736, Note_on_c, 4, 49, 108
5, 116896, Note_on_c, 4, 49, 0
5, 116928, Note_on_c, 4, 52, 127
5, 117264, Note_on_c, 4, 52, 0
5, 117312, Note_on_c, 4, 47, 108
5, 117472, Note_on_c, 4, 47, 0
5, 117504, Note_on_c, 4, 47, 108
5, 117664, Note_on_c, 4, 47, 0
5, 117696, Note_on_c, 4, 49, 127
5, 118032, Note_on_c, 4, 49, 0
5, 118080, Note_on_c, 4, 45, 108
5, 118240, Note_on_c, 4, 45, 0
5, 118272, Note_on_c, 4, 45, 108
5, 118432, Note_on_c, 4, 45, 0
5, 118464, Note_on_c, 4, 40, 127
5, 118800, Note_on_c, 4, 40, 0
5, 118848, Note_on_c, 4, 52, 108
5, 119184, Note_on_c, 4, 52, 0
5, 119232, Note_on_c, 4, 45, 108
5, 119392, Note_on_c, 4, 45, 0
5, 120576, Note_on_c, 4, 47, 45
5, 120736, Note_on_c, 4, 47, 0
5, 120768, Note_on_c, 4, 50, 45
5, 120864, Note_on_c, 4, 50, 0
5, 121152, Note_on_c, 4, 45, 45
5, 121200, Note_on_c, 4, 45, 0
5, 121344, Note_on_c, 4, 45, 92
5, 121504, Note_on_c, 4, 45, 0
5, 121536, Note_on_c, 4, 48, 127
5, 121872, Note_on_c, 4, 48, 0
5, 121920, Note_on_c, 4, 44, 92
5, 122080, Note_on_c, 4, 44, 0
5, 122112, Note_on_c, 4, 48, 92
5, 122272, Note_on_c, 4, 48, 0
5, 122304, Note_on_c, 4, 52, 127
5, 122640, Note_on_c, 4, 52, 0
5, 122688, Note_on_c, 4, 47, 92
5, 122848, Note_on_c, 4, 47, 0
5, 122880, Note_on_c, 4, 52, 92
5, 123040, Note_on_c, 4, 52, 0
5, 123072, Note_on_c, 4, 55, 127
5, 123408, Note_on_c, 4, 55, 0
5, 123456, Note_on_c, 4, 50, 92
5, 123616, Note_on_c, 4, 50, 0
5, 124416, Note_on_c, 4, 38, 92
5, 124576, Note_on_c, 4, 38, 0
5, 124608, Note_on_c, 4, 41, 127
5, 124944, Note_on_c, 4, 41, 0
5, 124992, Note_on_c, 4, 36, 92
5, 125328, Note_on_c, 4, 36, 0
5, 125952, Note_on_c, 4, 64, 45
5, 126112, Note_on_c, 4, 64, 0
5, 126144, Note_on_c, 4, 67, 45
5, 126240, Note_on_c, 4, 67, 0
5, 126528, Note_on_c, 4, 62, 45
5, 126624, Note_on_c, 4, 62, 0
5, 127488, Note_on_c, 4, 62, 45
5, 127648, Note_on_c, 4, 62, 0
5, 127680, Note_on_c, 4, 65, 45
5, 127776, Note_on_c, 4, 65, 0
5, 128064, Note_on_c, 4, 60, 45
5, 128160, Note_on_c, 4, 60, 0
5, 129024, Note_on_c, 4, 53, 45
5, 129184, Note_on_c, 4, 53, 0
5, 129216, Note_on_c, 4, 52, 45
5, 129376, Note_on_c, 4, 52, 0
5, 129600, Note_on_c, 4, 52, 45
5, 129760, Note_on_c, 4, 52, 0
5, 130560, Note_on_c, 4, 53, 45
5, 130720, Note_on_c, 4, 53, 0
5, 130752, Note_on_c, 4, 52, 45
5, 130912, Note_on_c, 4, 52, 0
5, 131136, Note_on_c, 4, 52, 45
5, 131296, Note_on_c, 4, 52, 0
5, 132096, Note_on_c, 4, 48, 45
5, 132448, Note_on_c, 4, 48, 0
5, 132480, Note_on_c, 4, 48, 45
5, 132672, Note_on_c, 4, 48, 0
5, 132672, Note_on_c, 4, 46, 45
5, 132864, Note_on_c, 4, 46, 0
5, 132864, Note_on_c, 4, 45, 45
5, 133056, Note_on_c, 4, 45, 0
5, 133056, Note_on_c, 4, 43, 45
5, 133248, Note_on_c, 4, 43, 0
5, 133248, Note_on_c, 4, 45, 45
5, 133440, Note_on_c, 4, 45, 0
5, 133440, Note_on_c, 4, 46, 45
5, 133984, Note_on_c, 4, 46, 0
5, 134016, Note_on_c, 4, 46, 45
5, 134208, Note_on_c, 4, 46, 0
5, 134208, Note_on_c, 4, 45, 45
5, 134400, Note_on_c, 4, 45, 0
5, 134400, Note_on_c, 4, 43, 45
5, 134592, Note_on_c, 4, 43, 0
5, 134592, Note_on_c, 4, 41, 45
5, 134784, Note_on_c, 4, 41, 0
5, 134784, Note_on_c, 4, 43, 45
5, 134976, Note_on_c, 4, 43, 0
5, 134976, Note_on_c, 4, 45, 45
5, 135136, Note_on_c, 4, 45, 0
5, 135168, Note_on_c, 4, 45, 45
5, 135328, Note_on_c, 4, 45, 0
5, 135360, Note_on_c, 4, 45, 45
5, 135520, Note_on_c, 4, 45, 0
5, 135936, Note_on_c, 4, 58, 45
5, 136128, Note_on_c, 4, 58, 0
5, 136128, Note_on_c, 4, 57, 45
5, 136320, Note_on_c, 4, 57, 0
5, 136320, Note_on_c, 4, 55, 45
5, 136512, Note_on_c, 4, 55, 0
5, 136512, Note_on_c, 4, 53, 45
5, 136672, Note_on_c, 4, 53, 0
5, 137088, Note_on_c, 4, 58, 45
5, 137280, Note_on_c, 4, 58, 0
5, 137280, Note_on_c, 4, 57, 45
5, 137472, Note_on_c, 4, 57, 0
5, 137472, Note_on_c, 4, 55, 45
5, 137664, Note_on_c, 4, 55, 0
5, 137664, Note_on_c, 4, 53, 45
5, 137856, Note_on_c, 4, 53, 0
5, 137856, Note_on_c, 4, 55, 45
5, 138048, Note_on_c, 4, 55, 0
5, 138048, Note_on_c, 4, 53, 45
5, 138240, Note_on_c, 4, 53, 0
5, 138240, Note_on_c, 4, 52, 45
5, 138400, Note_on_c, 4, 52, 0
5, 138432, Note_on_c, 4, 50, 30
5, 138768, Note_on_c, 4, 50, 0
5, 138816, Note_on_c, 4, 45, 30
5, 138976, Note_on_c, 4, 45, 0
5, 139008, Note_on_c, 4, 45, 30
5, 139168, Note_on_c, 4, 45, 0
5, 139200, Note_on_c, 4, 46, 30
5, 139536, Note_on_c, 4, 46, 0
5, 139584, Note_on_c, 4, 43, 30
5, 139744, Note_on_c, 4, 43, 0
5, 139776, Note_on_c, 4, 43, 30
5, 139936, Note_on_c, 4, 43, 0
5, 139968, Note_on_c, 4, 46, 30
5, 140304, Note_on_c, 4, 46, 0
5, 140352, Note_on_c, 4, 43, 30
5, 140512, Note_on_c, 4, 43, 0
5, 140544, Note_on_c, 4, 43, 30
5, 140704, Note_on_c, 4, 43, 0
5, 140736, Note_on_c, 4, 45, 30
5, 141072, Note_on_c, 4, 45, 0
5, 141120, Note_on_c, 4, 45, 30
5, 141280, Note_on_c, 4, 45, 0
5, 141312, Note_on_c, 4, 45, 30
5, 141472, Note_on_c, 4, 45, 0
5, 141504, Note_on_c, 4, 38, 45
5, 141552, Note_on_c, 4, 38, 0
5, 143808, Note_on_c, 4, 64, 45
5, 144192, Note_on_c, 4, 64, 0
5, 144192, Note_on_c, 4, 66, 45
5, 144384, Note_on_c, 4, 66, 0
5, 144384, Note_on_c, 4, 67, 45
5, 144544, Note_on_c, 4, 67, 0
5, 144576, Note_on_c, 4, 66, 45
5, 144736, Note_on_c, 4, 66, 0
5, 146880, Note_on_c, 4, 50, 45
5, 147040, Note_on_c, 4, 50, 0
5, 147264, Note_on_c, 4, 45, 49
5, 147424, Note_on_c, 4, 45, 0
5, 147648, Note_on_c, 4, 45, 53
5, 147808, Note_on_c, 4, 45, 0
5, 148032, Note_on_c, 4, 47, 57
5, 148192, Note_on_c, 4, 47, 0
5, 148416, Note_on_c, 4, 47, 63
5, 148576, Note_on_c, 4, 47, 0
5, 148800, Note_on_c, 4, 45, 69
5, 148960, Note_on_c, 4, 45, 0
5, 149184, Note_on_c, 4, 45, 45
5, 149904, Note_on_c, 4, 45, 0
5, 149952, Note_on_c, 4, 67, 45
5, 150112, Note_on_c, 4, 67, 0
5, 150336, Note_on_c, 4, 66, 59
5, 150496, Note_on_c, 4, 66, 0
5, 150720, Note_on_c, 4, 66, 45
5, 151440, Note_on_c, 4, 66, 0
5, 151488, Note_on_c, 4, 64, 45
5, 151648, Note_on_c, 4, 64, 0
5, 151872, Note_on_c, 4, 62, 59
5, 152032, Note_on_c, 4, 62, 0
5, 152256, Note_on_c, 4, 62, 45
5, 152976, Note_on_c, 4, 62, 0
5, 153024, Note_on_c, 4, 62, 45
5, 153184, Note_on_c, 4, 62, 0
5, 153408, Note_on_c, 4, 60, 59
5, 153568, Note_on_c, 4, 60, 0
5, 153792, Note_on_c, 4, 60, 45
5, 153984, Note_on_c, 4, 60, 0
5, 153984, Note_on_c, 4, 62, 45
5, 154176, Note_on_c, 4, 62, 0
5, 154176, Note_on_c, 4, 60, 45
5, 154368, Note_on_c, 4, 60, 0
5, 154368, Note_on_c, 4, 59, 45
5, 154560, Note_on_c, 4, 59, 0
5, 154560, Note_on_c, 4, 57, 45
5, 154752, Note_on_c, 4, 57, 0
5, 154752, Note_on_c, 4, 59, 45
5, 154944, Note_on_c, 4, 59, 0
5, 154944, Note_on_c, 4, 60, 45
5, 155488, Note_on_c, 4, 60, 0
5, 155520, Note_on_c, 4, 60, 45
5, 155712, Note_on_c, 4, 60, 0
5, 155712, Note_on_c, 4, 59, 45
5, 155904, Note_on_c, 4, 59, 0
5, 155904, Note_on_c, 4, 57, 45
5, 156096, Note_on_c, 4, 57, 0
5, 156096, Note_on_c, 4, 55, 45
5, 156288, Note_on_c, 4, 55, 0
5, 156288, Note_on_c, 4, 57, 45
5, 156480, Note_on_c, 4, 57, 0
5, 156480, Note_on_c, 4, 58, 45
5, 156672, Note_on_c, 4, 58, 0
5, 156672, Note_on_c, 4, 60, 45
5, 156832, Note_on_c, 4, 60, 0
5, 156864, Note_on_c, 4, 62, 30
5, 159328, Note_on_c, 4, 62, 0
5, 159360, Note_on_c, 4, 48, 30
5, 159552, Note_on_c, 4, 48, 0
5, 159552, Note_on_c, 4, 46, 30
5, 159744, Note_on_c, 4, 46, 0
5, 159744, Note_on_c, 4, 45, 30
5, 159936, Note_on_c, 4, 45, 0
5, 159936, Note_on_c, 4, 43, 30
5, 160128, Note_on_c, 4, 43, 0
5, 160128, Note_on_c, 4, 45, 30
5, 160320, Note_on_c, 4, 45, 0
5, 160320, Note_on_c, 4, 46, 30
5, 160896, Note_on_c, 4, 46, 0
5, 160896, Note_on_c, 4, 48, 30
5, 161088, Note_on_c, 4, 48, 0
5, 161088, Note_on_c, 4, 46, 30
5, 161280, Note_on_c, 4, 46, 0
5, 161280, Note_on_c, 4, 44, 30
5, 161440, Note_on_c, 4, 44, 0
5, 161472, Note_on_c, 4, 43, 30
5, 161664, Note_on_c, 4, 43, 0
5, 161664, Note_on_c, 4, 44, 30
5, 161856, Note_on_c, 4, 44, 0
5, 161856, Note_on_c, 4, 43, 30
5, 162048, Note_on_c, 4, 43, 0
5, 162048, Note_on_c, 4, 41, 30
5, 162208, Note_on_c, 4, 41, 0
5, 162240, Note_on_c, 4, 41, 30
5, 162432, Note_on_c, 4, 41, 0
5, 162432, Note_on_c, 4, 43, 30
5, 162624, Note_on_c, 4, 43, 0
5, 162624, Note_on_c, 4, 41, 30
5, 162816, Note_on_c, 4, 41, 0
5, 162816, Note_on_c, 4, 39, 30
5, 162976, Note_on_c, 4, 39, 0
5, 163008, Note_on_c, 4, 39, 30
5, 163200, Note_on_c, 4, 39, 0
5, 163200, Note_on_c, 4, 41, 30
5, 163392, Note_on_c, 4, 41, 0
5, 163392, Note_on_c, 4, 39, 30
5, 163584, Note_on_c, 4, 39, 0
5, 163584, Note_on_c, 4, 37, 30
5, 163744, Note_on_c, 4, 37, 0
5, 163776, Note_on_c, 4, 37, 30
5, 163968, Note_on_c, 4, 37, 0
5, 163968, Note_on_c, 4, 39, 30
5, 164160, Note_on_c, 4, 39, 0
5, 164160, Note_on_c, 4, 37, 30
5, 164352, Note_on_c, 4, 37, 0
5, 164352, Note_on_c, 4, 36, 30
5, 164512, Note_on_c, 4, 36, 0
5, 164544, Note_on_c, 4, 36, 30
5, 164704, Note_on_c, 4, 36, 0
5, 164928, Note_on_c, 4, 41, 30
5, 165088, Note_on_c, 4, 41, 0
5, 165312, Note_on_c, 4, 41, 30
5, 165472, Note_on_c, 4, 41, 0
5, 165696, Note_on_c, 4, 44, 30
5, 165856, Note_on_c, 4, 44, 0
5, 166080, Note_on_c, 4, 36, 30
5, 166240, Note_on_c, 4, 36, 0
5, 166464, Note_on_c, 4, 41, 30
5, 166624, Note_on_c, 4, 41, 0
5, 166848, Note_on_c, 4, 44, 30
5, 167008, Note_on_c, 4, 44, 0
5, 167232, Note_on_c, 4, 48, 30
5, 167392, Note_on_c, 4, 48, 0
5, 167616, Note_on_c, 4, 46, 30
5, 167776, Note_on_c, 4, 46, 0
5, 168000, Note_on_c, 4, 44, 30
5, 168160, Note_on_c, 4, 44, 0
5, 168384, Note_on_c, 4, 44, 30
5, 168544, Note_on_c, 4, 44, 0
5, 168768, Note_on_c, 4, 43, 30
5, 168928, Note_on_c, 4, 43, 0
5, 169152, Note_on_c, 4, 43, 30
5, 169312, Note_on_c, 4, 43, 0
5, 169536, Note_on_c, 4, 41, 30
5, 169696, Note_on_c, 4, 41, 0
5, 169920, Note_on_c, 4, 41, 30
5, 170080, Note_on_c, 4, 41, 0
5, 170304, Note_on_c, 4, 40, 30
5, 170496, Note_on_c, 4, 40, 0
5, 170496, Note_on_c, 4, 39, 30
5, 170656, Note_on_c, 4, 39, 0
5, 170688, Note_on_c, 4, 39, 30
5, 170848, Note_on_c, 4, 39, 0
5, 171072, Note_on_c, 4, 37, 30
5, 171232, Note_on_c, 4, 37, 0
5, 171456, Note_on_c, 4, 37, 30
5, 171616, Note_on_c, 4, 37, 0
5, 171840, Note_on_c, 4, 36, 30
5, 172000, Note_on_c, 4, 36, 0
5, 172224, Note_on_c, 4, 39, 30
5, 172384, Note_on_c, 4, 39, 0
5, 172608, Note_on_c, 4, 39, 30
5, 172672, Note_on_c, 4, 39, 0
5, 172672, Note_on_c, 4, 37, 30
5, 172736, Note_on_c, 4, 37, 0
5, 172736, Note_on_c, 4, 39, 30
5, 172800, Note_on_c, 4, 39, 0
5, 172800, Note_on_c, 4, 37, 30
5, 172864, Note_on_c, 4, 37, 0
5, 172864, Note_on_c, 4, 36, 30
5, 172928, Note_on_c, 4, 36, 0
5, 172928, Note_on_c, 4, 37, 30
5, 172990, Note_on_c, 4, 37, 0
5, 172992, Note_on_c, 4, 36, 30
5, 173712, Note_on_c, 4, 36, 0
5, 173760, Note_on_c, 4, 36, 30
5, 173920, Note_on_c, 4, 36, 0
5, 174144, Note_on_c, 4, 41, 30
5, 174304, Note_on_c, 4, 41, 0
5, 174528, Note_on_c, 4, 41, 30
5, 174688, Note_on_c, 4, 41, 0
5, 174912, Note_on_c, 4, 44, 30
5, 175072, Note_on_c, 4, 44, 0
5, 175296, Note_on_c, 4, 36, 30
5, 175456, Note_on_c, 4, 36, 0
5, 175680, Note_on_c, 4, 41, 30
5, 175840, Note_on_c, 4, 41, 0
5, 176064, Note_on_c, 4, 44, 75
5, 176224, Note_on_c, 4, 44, 0
5, 176448, Note_on_c, 4, 48, 61
5, 176608, Note_on_c, 4, 48, 0
5, 176832, Note_on_c, 4, 48, 45
5, 176992, Note_on_c, 4, 48, 0
5, 177792, Note_on_c, 4, 56, 56
5, 177984, Note_on_c, 4, 56, 0
5, 177984, Note_on_c, 4, 55, 58
5, 178176, Note_on_c, 4, 55, 0
5, 178176, Note_on_c, 4, 53, 60
5, 178336, Note_on_c, 4, 53, 0
5, 178368, Note_on_c, 4, 53, 62
5, 178560, Note_on_c, 4, 53, 0
5, 178560, Note_on_c, 4, 46, 64
5, 178752, Note_on_c, 4, 46, 0
5, 178752, Note_on_c, 4, 44, 66
5, 178944, Note_on_c, 4, 44, 0
5, 178944, Note_on_c, 4, 43, 69
5, 179136, Note_on_c, 4, 43, 0
5, 179136, Note_on_c, 4, 41, 72
5, 179328, Note_on_c, 4, 41, 0
5, 179328, Note_on_c, 4, 39, 75
5, 179520, Note_on_c, 4, 39, 0
5, 179520, Note_on_c, 4, 37, 78
5, 179712, Note_on_c, 4, 37, 0
5, 179712, Note_on_c, 4, 36, 81
5, 179872, Note_on_c, 4, 36, 0
5, 179904, Note_on_c, 4, 58, 84
5, 180096, Note_on_c, 4, 58, 0
5, 180096, Note_on_c, 4, 56, 87
5, 180288, Note_on_c, 4, 56, 0
5, 180288, Note_on_c, 4, 55, 90
5, 180480, Note_on_c, 4, 55, 0
5, 180480, Note_on_c, 4, 53, 93
5, 180672, Note_on_c, 4, 53, 0
5, 180672, Note_on_c, 4, 52, 96
5, 180864, Note_on_c, 4, 52, 0
5, 180864, Note_on_c, 4, 49, 99
5, 181056, Note_on_c, 4, 49, 0
5, 181056, Note_on_c, 4, 48, 102
5, 181248, Note_on_c, 4, 48, 0
5, 181248, Note_on_c, 4, 55, 105
5, 181408, Note_on_c, 4, 55, 0
5, 181440, Note_on_c, 4, 43, 108
5, 181696, Note_on_c, 4, 43, 0
5, 181728, Note_on_c, 4, 40, 108
5, 181760, Note_on_c, 4, 40, 0
5, 181824, Note_on_c, 4, 44, 127
5, 182160, Note_on_c, 4, 44, 0
5, 183744, Note_on_c, 4, 48, 108
5, 184000, Note_on_c, 4, 48, 0
5, 184032, Note_on_c, 4, 45, 108
5, 184064, Note_on_c, 4, 45, 0
5, 184128, Note_on_c, 4, 49, 127
5, 184464, Note_on_c, 4, 49, 0
5, 184512, Note_on_c, 4, 53, 127
5, 184992, Note_on_c, 4, 53, 0
5, 184992, Note_on_c, 4, 51, 103
5, 185088, Note_on_c, 4, 51, 0
5, 185088, Note_on_c, 4, 49, 98
5, 185184, Note_on_c, 4, 49, 0
5, 185184, Note_on_c, 4, 48, 93
5, 185280, Note_on_c, 4, 48, 0
5, 185280, Note_on_c, 4, 49, 88
5, 185376, Note_on_c, 4, 49, 0
5, 185376, Note_on_c, 4, 53, 83
5, 185472, Note_on_c, 4, 53, 0
5, 185472, Note_on_c, 4, 58, 78
5, 185568, Note_on_c, 4, 58, 0
5, 185568, Note_on_c, 4, 60, 73
5, 185662, Note_on_c, 4, 60, 0
5, 185664, Note_on_c, 4, 61, 68
5, 185824, Note_on_c, 4, 61, 0
5, 186048, Note_on_c, 4, 49, 92
5, 186304, Note_on_c, 4, 49, 0
5, 186336, Note_on_c, 4, 46, 92
5, 186368, Note_on_c, 4, 46, 0
5, 186432, Note_on_c, 4, 52, 127
5, 186768, Note_on_c, 4, 52, 0
5, 187200, Note_on_c, 4, 37, 92
5, 187246, Note_on_c, 4, 37, 0
5, 187248, Note_on_c, 4, 37, 92
5, 187294, Note_on_c, 4, 37, 0
5, 187296, Note_on_c, 4, 37, 92
5, 187342, Note_on_c, 4, 37, 0
5, 187344, Note_on_c, 4, 37, 92
5, 187390, Note_on_c, 4, 37, 0
5, 187392, Note_on_c, 4, 37, 92
5, 187438, Note_on_c, 4, 37, 0
5, 187440, Note_on_c, 4, 37, 92
5, 187486, Note_on_c, 4, 37, 0
5, 187488, Note_on_c, 4, 37, 92
5, 187534, Note_on_c, 4, 37, 0
5, 187536, Note_on_c, 4, 37, 92
5, 187582, Note_on_c, 4, 37, 0
5, 187584, Note_on_c, 4, 37, 92
5, 187744, Note_on_c, 4, 37, 0
5, 188352, Note_on_c, 4, 37, 92
5, 188398, Note_on_c, 4, 37, 0
5, 188400, Note_on_c, 4, 37, 92
5, 188446, Note_on_c, 4, 37, 0
5, 188448, Note_on_c, 4, 37, 92
5, 188494, Note_on_c, 4, 37, 0
5, 188496, Note_on_c, 4, 37, 92
5, 188542, Note_on_c, 4, 37, 0
5, 188544, Note_on_c, 4, 37, 92
5, 188590, Note_on_c, 4, 37, 0
5, 188592, Note_on_c, 4, 37, 92
5, 188638, Note_on_c, 4, 37, 0
5, 188640, Note_on_c, 4, 37, 92
5, 188686, Note_on_c, 4, 37, 0
5, 188688, Note_on_c, 4, 37, 92
5, 188734, Note_on_c, 4, 37, 0
5, 188736, Note_on_c, 4, 36, 92
5, 188896, Note_on_c, 4, 36, 0
5, 189504, Note_on_c, 4, 36, 92
5, 189550, Note_on_c, 4, 36, 0
5, 189552, Note_on_c, 4, 36, 91
5, 189598, Note_on_c, 4, 36, 0
5, 189600, Note_on_c, 4, 36, 90
5, 189646, Note_on_c, 4, 36, 0
5, 189648, Note_on_c, 4, 36, 89
5, 189694, Note_on_c, 4, 36, 0
5, 189696, Note_on_c, 4, 36, 88
5, 189742, Note_on_c, 4, 36, 0
5, 189744, Note_on_c, 4, 36, 87
5, 189790, Note_on_c, 4, 36, 0
5, 189792, Note_on_c, 4, 36, 86
5, 189838, Note_on_c, 4, 36, 0
5, 189840, Note_on_c, 4, 36, 85
5, 189886, Note_on_c, 4, 36, 0
5, 189888, Note_on_c, 4, 36, 84
5, 190048, Note_on_c, 4, 36, 0
5, 190656, Note_on_c, 4, 36, 68
5, 190702, Note_on_c, 4, 36, 0
5, 190704, Note_on_c, 4, 36, 67
5, 190750, Note_on_c, 4, 36, 0
5, 190752, Note_on_c, 4, 36, 66
5, 190798, Note_on_c, 4, 36, 0
5, 190800, Note_on_c, 4, 36, 65
5, 190846, Note_on_c, 4, 36, 0
5, 190848, Note_on_c, 4, 36, 64
5, 190894, Note_on_c, 4, 36, 0
5, 190896, Note_on_c, 4, 36, 63
5, 190942, Note_on_c, 4, 36, 0
5, 190944, Note_on_c, 4, 36, 62
5, 190990, Note_on_c, 4, 36, 0
5, 190992, Note_on_c, 4, 36, 61
5, 191038, Note_on_c, 4, 36, 0
5, 191040, Note_on_c, 4, 36, 60
5, 191086, Note_on_c, 4, 36, 0
5, 191088, Note_on_c, 4, 36, 59
5, 191134, Note_on_c, 4, 36, 0
5, 191136, Note_on_c, 4, 36, 58
5, 191182, Note_on_c, 4, 36, 0
5, 191184, Note_on_c, 4, 36, 57
5, 191230, Note_on_c, 4, 36, 0
5, 191232, Note_on_c, 4, 36, 56
5, 191278, Note_on_c, 4, 36, 0
5, 191280, Note_on_c, 4, 36, 55
5, 191326, Note_on_c, 4, 36, 0
5, 191328, Note_on_c, 4, 36, 54
5, 191374, Note_on_c, 4, 36, 0
5, 191376, Note_on_c, 4, 36, 53
5, 191422, Note_on_c, 4, 36, 0
5, 191424, Note_on_c, 4, 36, 52
5, 191584, Note_on_c, 4, 36, 0
5, 191616, Note_on_c, 4, 37, 45
5, 191776, Note_on_c, 4, 37, 0
5, 191808, Note_on_c, 4, 49, 45
5, 192064, Note_on_c, 4, 49, 0
5, 192096, Note_on_c, 4, 44, 45
5, 192190, Note_on_c, 4, 44, 0
5, 192192, Note_on_c, 4, 51, 45
5, 192238, Note_on_c, 4, 51, 0
5, 192240, Note_on_c, 4, 51, 45
5, 192286, Note_on_c, 4, 51, 0
5, 192288, Note_on_c, 4, 51, 45
5, 192334, Note_on_c, 4, 51, 0
5, 192336, Note_on_c, 4, 51, 45
5, 192382, Note_on_c, 4, 51, 0
5, 192384, Note_on_c, 4, 51, 45
5, 192430, Note_on_c, 4, 51, 0
5, 192432, Note_on_c, 4, 51, 45
5, 192478, Note_on_c, 4, 51, 0
5, 192528, Note_on_c, 4, 51, 45
5, 192574, Note_on_c, 4, 51, 0
5, 192576, Note_on_c, 4, 51, 45
5, 192736, Note_on_c, 4, 51, 0
5, 192960, Note_on_c, 4, 51, 45
5, 193216, Note_on_c, 4, 51, 0
5, 193248, Note_on_c, 4, 46, 56
5, 193342, Note_on_c, 4, 46, 0
5, 193344, Note_on_c, 4, 53, 60
5, 193390, Note_on_c, 4, 53, 0
5, 193392, Note_on_c, 4, 53, 62
5, 193438, Note_on_c, 4, 53, 0
5, 193440, Note_on_c, 4, 53, 64
5, 193486, Note_on_c, 4, 53, 0
5, 193488, Note_on_c, 4, 53, 66
5, 193534, Note_on_c, 4, 53, 0
5, 193536, Note_on_c, 4, 53, 68
5, 193582, Note_on_c, 4, 53, 0
5, 193584, Note_on_c, 4, 53, 70
5, 193630, Note_on_c, 4, 53, 0
5, 193680, Note_on_c, 4, 53, 74
5, 193726, Note_on_c, 4, 53, 0
5, 193728, Note_on_c, 4, 53, 76
5, 193888, Note_on_c, 4, 53, 0
5, 194112, Note_on_c, 4, 41, 92
5, 194368, Note_on_c, 4, 41, 0
5, 194400, Note_on_c, 4, 36, 92
5, 194494, Note_on_c, 4, 36, 0
5, 194496, Note_on_c, 4, 43, 92
5, 194542, Note_on_c, 4, 43, 0
5, 194544, Note_on_c, 4, 43, 92
5, 194590, Note_on_c, 4, 43, 0
5, 194592, Note_on_c, 4, 43, 92
5, 194638, Note_on_c, 4, 43, 0
5, 194640, Note_on_c, 4, 43, 92
5, 194686, Note_on_c, 4, 43, 0
5, 194688, Note_on_c, 4, 43, 92
5, 194734, Note_on_c, 4, 43, 0
5, 194736, Note_on_c, 4, 43, 92
5, 194782, Note_on_c, 4, 43, 0
5, 194784, Note_on_c, 4, 43, 92
5, 194830, Note_on_c, 4, 43, 0
5, 194832, Note_on_c, 4, 43, 92
5, 194878, Note_on_c, 4, 43, 0
5, 194880, Note_on_c, 4, 36, 92
5, 194880, Note_on_c, 4, 43, 92
5, 194926, Note_on_c, 4, 36, 0
5, 194926, Note_on_c, 4, 43, 0
5, 194928, Note_on_c, 4, 36, 92
5, 194928, Note_on_c, 4, 43, 92
5, 194974, Note_on_c, 4, 36, 0
5, 194974, Note_on_c, 4, 43, 0
5, 194976, Note_on_c, 4, 36, 92
5, 194976, Note_on_c, 4, 43, 92
5, 195022, Note_on_c, 4, 36, 0
5, 195022, Note_on_c, 4, 43, 0
5, 195024, Note_on_c, 4, 36, 92
5, 195024, Note_on_c, 4, 43, 92
5, 195070, Note_on_c, 4, 36, 0
5, 195070, Note_on_c, 4, 43, 0
5, 195072, Note_on_c, 4, 36, 92
5, 195072, Note_on_c, 4, 43, 92
5, 195118, Note_on_c, 4, 36, 0
5, 195118, Note_on_c, 4, 43, 0
5, 195120, Note_on_c, 4, 36, 92
5, 195120, Note_on_c, 4, 43, 92
5, 195166, Note_on_c, 4, 36, 0
5, 195166, Note_on_c, 4, 43, 0
5, 195168, Note_on_c, 4, 36, 92
5, 195168, Note_on_c, 4, 43, 92
5, 195214, Note_on_c, 4, 36, 0
5, 195214, Note_on_c, 4, 43, 0
5, 195216, Note_on_c, 4, 36, 92
5, 195216, Note_on_c, 4, 43, 92
5, 195262, Note_on_c, 4, 36, 0
5, 195262, Note_on_c, 4, 43, 0
5, 195264, Note_on_c, 4, 36, 92
5, 195264, Note_on_c, 4, 43, 92
5, 195310, Note_on_c, 4, 36, 0
5, 195310, Note_on_c, 4, 43, 0
5, 195312, Note_on_c, 4, 36, 91
5, 195312, Note_on_c, 4, 43, 91
5, 195358, Note_on_c, 4, 36, 0
5, 195358, Note_on_c, 4, 43, 0
5, 195360, Note_on_c, 4, 36, 89
5, 195360, Note_on_c, 4, 43, 89
5, 195406, Note_on_c, 4, 36, 0
5, 195406, Note_on_c, 4, 43, 0
5, 195408, Note_on_c, 4, 36, 87
5, 195408, Note_on_c, 4, 43, 87
5, 195454, Note_on_c, 4, 36, 0
5, 195454, Note_on_c, 4, 43, 0
5, 195456, Note_on_c, 4, 36, 85
5, 195456, Note_on_c, 4, 43, 85
5, 195502, Note_on_c, 4, 36, 0
5, 195502, Note_on_c, 4, 43, 0
5, 195504, Note_on_c, 4, 36, 83
5, 195504, Note_on_c, 4, 43, 83
5, 195550, Note_on_c, 4, 36, 0
5, 195550, Note_on_c, 4, 43, 0
5, 195552, Note_on_c, 4, 36, 81
5, 195552, Note_on_c, 4, 43, 81
5, 195598, Note_on_c, 4, 36, 0
5, 195598, Note_on_c, 4, 43, 0
5, 195600, Note_on_c, 4, 36, 79
5, 195600, Note_on_c, 4, 43, 79
5, 195646, Note_on_c, 4, 36, 0
5, 195646, Note_on_c, 4, 43, 0
5, 195648, Note_on_c, 4, 36, 77
5, 195648, Note_on_c, 4, 43, 77
5, 195694, Note_on_c, 4, 36, 0
5, 195694, Note_on_c, 4, 43, 0
5, 195696, Note_on_c, 4, 36, 75
5, 195696, Note_on_c, 4, 43, 75
5, 195742, Note_on_c, 4, 36, 0
5, 195742, Note_on_c, 4, 43, 0
5, 195744, Note_on_c, 4, 36, 73
5, 195744, Note_on_c, 4, 43, 73
5, 195790, Note_on_c, 4, 36, 0
5, 195790, Note_on_c, 4, 43, 0
5, 195792, Note_on_c, 4, 36, 71
5, 195792, Note_on_c, 4, 43, 71
5, 195838, Note_on_c, 4, 36, 0
5, 195838, Note_on_c, 4, 43, 0
5, 195840, Note_on_c, 4, 36, 69
5, 195840, Note_on_c, 4, 43, 69
5, 195886, Note_on_c, 4, 36, 0
5, 195886, Note_on_c, 4, 43, 0
5, 195888, Note_on_c, 4, 36, 67
5, 195888, Note_on_c, 4, 43, 67
5, 195934, Note_on_c, 4, 36, 0
5, 195934, Note_on_c, 4, 43, 0
5, 195936, Note_on_c, 4, 36, 65
5, 195936, Note_on_c, 4, 43, 65
5, 195982, Note_on_c, 4, 36, 0
5, 195982, Note_on_c, 4, 43, 0
5, 195984, Note_on_c, 4, 36, 63
5, 195984, Note_on_c, 4, 43, 63
5, 196030, Note_on_c, 4, 36, 0
5, 196030, Note_on_c, 4, 43, 0
5, 196032, Note_on_c, 4, 36, 61
5, 196032, Note_on_c, 4, 43, 61
5, 196078, Note_on_c, 4, 36, 0
5, 196078, Note_on_c, 4, 43, 0
5, 196080, Note_on_c, 4, 36, 59
5, 196080, Note_on_c, 4, 43, 59
5, 196126, Note_on_c, 4, 36, 0
5, 196126, Note_on_c, 4, 43, 0
5, 196128, Note_on_c, 4, 36, 57
5, 196128, Note_on_c, 4, 43, 57
5, 196174, Note_on_c, 4, 36, 0
5, 196174, Note_on_c, 4, 43, 0
5, 196176, Note_on_c, 4, 36, 55
5, 196176, Note_on_c, 4, 43, 55
5, 196222, Note_on_c, 4, 36, 0
5, 196222, Note_on_c, 4, 43, 0
5, 196224, Note_on_c, 4, 36, 53
5, 196224, Note_on_c, 4, 43, 53
5, 196318, Note_on_c, 4, 36, 0
5, 196318, Note_on_c, 4, 43, 0
5, 196320, Note_on_c, 4, 36, 49
5, 196320, Note_on_c, 4, 48, 49
5, 196414, Note_on_c, 4, 36, 0
5, 196414, Note_on_c, 4, 48, 0
5, 196416, Note_on_c, 4, 36, 45
5, 196416, Note_on_c, 4, 48, 45
5, 199056, Note_on_c, 4, 36, 0
5, 199056, Note_on_c, 4, 48, 0
5, 199104, Note_on_c, 4, 41, 45
5, 199104, Note_on_c, 4, 48, 45
5, 199264, Note_on_c, 4, 41, 0
5, 199264, Note_on_c, 4, 48, 0
5, 202368, Note_on_c, 4, 46, 92
5, 202528, Note_on_c, 4, 46, 0
5, 202560, Note_on_c, 4, 50, 127
5, 202896, Note_on_c, 4, 50, 0
5, 202944, Note_on_c, 4, 45, 92
5, 203104, Note_on_c, 4, 45, 0
5, 203136, Note_on_c, 4, 45, 92
5, 203296, Note_on_c, 4, 45, 0
5, 203328, Note_on_c, 4, 48, 127
5, 203664, Note_on_c, 4, 48, 0
5, 203712, Note_on_c, 4, 43, 92
5, 203872, Note_on_c, 4, 43, 0
5, 203904, Note_on_c, 4, 41, 92
5, 204064, Note_on_c, 4, 41, 0
5, 204096, Note_on_c, 4, 40, 127
5, 204288, Note_on_c, 4, 40, 0
5, 204288, Note_on_c, 4, 38, 92
5, 204448, Note_on_c, 4, 38, 0
5, 204480, Note_on_c, 4, 37, 92
5, 204528, Note_on_c, 4, 37, 0
5, 204672, Note_on_c, 4, 38, 92
5, 204720, Note_on_c, 4, 38, 0
5, 204864, Note_on_c, 4, 40, 127
5, 205056, Note_on_c, 4, 40, 0
5, 205056, Note_on_c, 4, 37, 92
5, 205216, Note_on_c, 4, 37, 0
5, 205248, Note_on_c, 4, 38, 92
5, 205296, Note_on_c, 4, 38, 0
5, 205440, Note_on_c, 4, 36, 92
5, 205488, Note_on_c, 4, 36, 0
5, 205632, Note_on_c, 4, 48, 127
5, 205824, Note_on_c, 4, 48, 0
5, 205824, Note_on_c, 4, 47, 92
5, 205984, Note_on_c, 4, 47, 0
5, 206016, Note_on_c, 4, 48, 92
5, 206064, Note_on_c, 4, 48, 0
5, 206208, Note_on_c, 4, 46, 92
5, 206256, Note_on_c, 4, 46, 0
5, 206400, Note_on_c, 4, 46, 127
5, 206592, Note_on_c, 4, 46, 0
5, 206592, Note_on_c, 4, 45, 92
5, 206752, Note_on_c, 4, 45, 0
5, 206784, Note_on_c, 4, 46, 92
5, 206832, Note_on_c, 4, 46, 0
5, 206976, Note_on_c, 4, 46, 92
5, 207024, Note_on_c, 4, 46, 0
5, 207168, Note_on_c, 4, 58, 92
5, 207328, Note_on_c, 4, 58, 0
5, 207744, Note_on_c, 4, 58, 92
5, 207904, Note_on_c, 4, 58, 0
5, 207936, Note_on_c, 4, 57, 92
5, 208096, Note_on_c, 4, 57, 0
5, 208512, Note_on_c, 4, 57, 92
5, 208672, Note_on_c, 4, 57, 0
5, 208704, Note_on_c, 4, 55, 92
5, 208864, Note_on_c, 4, 55, 0
5, 209280, Note_on_c, 4, 55, 92
5, 209440, Note_on_c, 4, 55, 0
5, 209472, Note_on_c, 4, 55, 92
5, 209632, Note_on_c, 4, 55, 0
5, 209856, Note_on_c, 4, 50, 92
5, 210016, Note_on_c, 4, 50, 0
5, 210240, Note_on_c, 4, 51, 92
5, 210400, Note_on_c, 4, 51, 0
5, 210816, Note_on_c, 4, 51, 92
5, 210976, Note_on_c, 4, 51, 0
5, 211008, Note_on_c, 4, 48, 92
5, 211168, Note_on_c, 4, 48, 0
5, 211584, Note_on_c, 4, 48, 92
5, 211744, Note_on_c, 4, 48, 0
5, 211776, Note_on_c, 4, 46, 92
5, 211936, Note_on_c, 4, 46, 0
5, 212352, Note_on_c, 4, 46, 92
5, 212512, Note_on_c, 4, 46, 0
5, 212544, Note_on_c, 4, 48, 92
5, 212704, Note_on_c, 4, 48, 0
5, 212928, Note_on_c, 4, 50, 92
5, 213088, Note_on_c, 4, 50, 0
5, 213312, Note_on_c, 4, 46, 92
5, 213360, Note_on_c, 4, 46, 0
5, 213504, Note_on_c, 4, 43, 92
5, 213552, Note_on_c, 4, 43, 0
5, 213696, Note_on_c, 4, 45, 92
5, 213744, Note_on_c, 4, 45, 0
5, 216576, Note_on_c, 4, 62, 45
5, 216768, Note_on_c, 4, 62, 0
5, 216768, Note_on_c, 4, 60, 45
5, 216960, Note_on_c, 4, 60, 0
5, 216960, Note_on_c, 4, 59, 45
5, 217152, Note_on_c, 4, 59, 0
5, 217152, Note_on_c, 4, 57, 45
5, 217344, Note_on_c, 4, 57, 0
5, 217344, Note_on_c, 4, 59, 45
5, 217536, Note_on_c, 4, 59, 0
5, 217536, Note_on_c, 4, 60, 45
5, 218080, Note_on_c, 4, 60, 0
5, 218112, Note_on_c, 4, 60, 45
5, 218304, Note_on_c, 4, 60, 0
5, 218304, Note_on_c, 4, 59, 45
5, 218496, Note_on_c, 4, 59, 0
5, 218496, Note_on_c, 4, 57, 45
5, 218688, Note_on_c, 4, 57, 0
5, 218688, Note_on_c, 4, 55, 45
5, 218880, Note_on_c, 4, 55, 0
5, 218880, Note_on_c, 4, 57, 45
5, 219072, Note_on_c, 4, 57, 0
5, 219072, Note_on_c, 4, 59, 45
5, 219616, Note_on_c, 4, 59, 0
5, 219648, Note_on_c, 4, 67, 45
5, 219840, Note_on_c, 4, 67, 0
5, 219840, Note_on_c, 4, 66, 45
5, 220032, Note_on_c, 4, 66, 0
5, 220032, Note_on_c, 4, 64, 45
5, 220224, Note_on_c, 4, 64, 0
5, 220224, Note_on_c, 4, 62, 45
5, 220416, Note_on_c, 4, 62, 0
5, 220416, Note_on_c, 4, 61, 45
5, 220608, Note_on_c, 4, 61, 0
5, 220608, Note_on_c, 4, 62, 45
5, 220800, Note_on_c, 4, 62, 0
5, 220800, Note_on_c, 4, 64, 45
5, 220960, Note_on_c, 4, 64, 0
5, 220992, Note_on_c, 4, 59, 45
5, 221184, Note_on_c, 4, 59, 0
5, 221184, Note_on_c, 4, 57, 45
5, 221376, Note_on_c, 4, 57, 0
5, 221376, Note_on_c, 4, 59, 45
5, 221568, Note_on_c, 4, 59, 0
5, 221568, Note_on_c, 4, 61, 45
5, 221760, Note_on_c, 4, 61, 0
5, 221760, Note_on_c, 4, 62, 45
5, 221952, Note_on_c, 4, 62, 0
5, 221952, Note_on_c, 4, 61, 45
5, 222144, Note_on_c, 4, 61, 0
5, 222144, Note_on_c, 4, 62, 45
5, 222336, Note_on_c, 4, 62, 0
5, 222336, Note_on_c, 4, 64, 45
5, 222496, Note_on_c, 4, 64, 0
5, 222528, Note_on_c, 4, 65, 45
5, 223056, Note_on_c, 4, 65, 0
5, 223104, Note_on_c, 4, 65, 45
5, 223296, Note_on_c, 4, 65, 0
5, 223296, Note_on_c, 4, 63, 45
5, 223488, Note_on_c, 4, 63, 0
5, 223488, Note_on_c, 4, 62, 45
5, 223680, Note_on_c, 4, 62, 0
5, 223680, Note_on_c, 4, 60, 45
5, 223872, Note_on_c, 4, 60, 0
5, 223872, Note_on_c, 4, 62, 45
5, 224064, Note_on_c, 4, 62, 0
5, 224064, Note_on_c, 4, 63, 45
5, 224592, Note_on_c, 4, 63, 0
5, 224640, Note_on_c, 4, 63, 45
5, 224832, Note_on_c, 4, 63, 0
5, 224832, Note_on_c, 4, 62, 45
5, 225024, Note_on_c, 4, 62, 0
5, 225024, Note_on_c, 4, 60, 45
5, 225216, Note_on_c, 4, 60, 0
5, 225216, Note_on_c, 4, 58, 45
5, 225408, Note_on_c, 4, 58, 0
5, 225408, Note_on_c, 4, 60, 45
5, 225600, Note_on_c, 4, 60, 0
5, 225600, Note_on_c, 4, 62, 45
5, 226128, Note_on_c, 4, 62, 0
5, 226176, Note_on_c, 4, 62, 45
5, 226368, Note_on_c, 4, 62, 0
5, 226368, Note_on_c, 4, 60, 45
5, 226560, Note_on_c, 4, 60, 0
5, 226560, Note_on_c, 4, 58, 47
5, 226752, Note_on_c, 4, 58, 0
5, 226752, Note_on_c, 4, 57, 49
5, 226944, Note_on_c, 4, 57, 0
5, 226944, Note_on_c, 4, 55, 51
5, 227104, Note_on_c, 4, 55, 0
5, 227712, Note_on_c, 4, 57, 60
5, 227904, Note_on_c, 4, 57, 0
5, 227904, Note_on_c, 4, 58, 63
5, 228096, Note_on_c, 4, 58, 0
5, 228096, Note_on_c, 4, 60, 66
5, 228288, Note_on_c, 4, 60, 0
5, 228288, Note_on_c, 4, 62, 69
5, 228480, Note_on_c, 4, 62, 0
5, 228480, Note_on_c, 4, 64, 72
5, 228640, Note_on_c, 4, 64, 0
5, 228672, Note_on_c, 4, 65, 45
5, 228832, Note_on_c, 4, 65, 0
5, 229056, Note_on_c, 4, 60, 45
5, 229216, Note_on_c, 4, 60, 0
5, 229440, Note_on_c, 4, 60, 45
5, 229600, Note_on_c, 4, 60, 0
5, 229824, Note_on_c, 4, 62, 45
5, 229984, Note_on_c, 4, 62, 0
5, 230208, Note_on_c, 4, 65, 45
5, 230592, Note_on_c, 4, 65, 0
5, 230592, Note_on_c, 4, 67, 45
5, 230784, Note_on_c, 4, 67, 0
5, 230784, Note_on_c, 4, 69, 45
5, 230944, Note_on_c, 4, 69, 0
5, 230976, Note_on_c, 4, 67, 45
5, 231696, Note_on_c, 4, 67, 0
5, 231744, Note_on_c, 4, 65, 45
5, 231904, Note_on_c, 4, 65, 0
5, 232128, Note_on_c, 4, 60, 45
5, 232288, Note_on_c, 4, 60, 0
5, 232512, Note_on_c, 4, 60, 45
5, 232672, Note_on_c, 4, 60, 0
5, 232896, Note_on_c, 4, 62, 45
5, 233056, Note_on_c, 4, 62, 0
5, 233280, Note_on_c, 4, 62, 45
5, 233440, Note_on_c, 4, 62, 0
5, 233664, Note_on_c, 4, 60, 45
5, 233824, Note_on_c, 4, 60, 0
5, 234048, Note_on_c, 4, 60, 45
5, 234768, Note_on_c, 4, 60, 0
5, 234816, Note_on_c, 4, 41, 45
5, 235008, Note_on_c, 4, 41, 0
5, 235008, Note_on_c, 4, 48, 52
5, 235200, Note_on_c, 4, 48, 0
5, 235200, Note_on_c, 4, 45, 59
5, 235392, Note_on_c, 4, 45, 0
5, 235392, Note_on_c, 4, 53, 67
5, 235552, Note_on_c, 4, 53, 0
5, 237888, Note_on_c, 4, 41, 45
5, 238080, Note_on_c, 4, 41, 0
5, 238080, Note_on_c, 4, 48, 48
5, 238272, Note_on_c, 4, 48, 0
5, 238272, Note_on_c, 4, 45, 51
5, 238464, Note_on_c, 4, 45, 0
5, 238464, Note_on_c, 4, 53, 55
5, 238624, Note_on_c, 4, 53, 0
5, 239040, Note_on_c, 4, 48, 67
5, 239200, Note_on_c, 4, 48, 0
5, 239424, Note_on_c, 4, 48, 45
5, 239584, Note_on_c, 4, 48, 0
5, 239808, Note_on_c, 4, 50, 45
5, 239968, Note_on_c, 4, 50, 0
5, 240192, Note_on_c, 4, 50, 45
5, 240352, Note_on_c, 4, 50, 0
5, 240576, Note_on_c, 4, 48, 45
5, 240736, Note_on_c, 4, 48, 0
5, 240960, Note_on_c, 4, 50, 45
5, 241120, Note_on_c, 4, 50, 0
5, 241344, Note_on_c, 4, 48, 51
5, 241392, Note_on_c, 4, 48, 0
5, 241536, Note_on_c, 4, 52, 54
5, 241584, Note_on_c, 4, 52, 0
5, 241728, Note_on_c, 4, 55, 57
5, 241776, Note_on_c, 4, 55, 0
5, 241920, Note_on_c, 4, 60, 60
5, 241968, Note_on_c, 4, 60, 0
5, 242112, Note_on_c, 4, 64, 63
5, 242160, Note_on_c, 4, 64, 0
5, 242304, Note_on_c, 4, 48, 66
5, 242464, Note_on_c, 4, 48, 0
5, 242496, Note_on_c, 4, 50, 69
5, 242656, Note_on_c, 4, 50, 0
5, 242880, Note_on_c, 4, 48, 75
5, 243040, Note_on_c, 4, 48, 0
5, 243072, Note_on_c, 4, 53, 78
5, 243232, Note_on_c, 4, 53, 0
5, 243264, Note_on_c, 4, 57, 81
5, 243424, Note_on_c, 4, 57, 0
5, 243456, Note_on_c, 4, 60, 84
5, 243616, Note_on_c, 4, 60, 0
5, 243648, Note_on_c, 4, 65, 88
5, 243808, Note_on_c, 4, 65, 0
5, 243840, Note_on_c, 4, 65, 92
5, 244000, Note_on_c, 4, 65, 0
5, 244032, Note_on_c, 4, 65, 92
5, 244128, Note_on_c, 4, 65, 0
5, 244416, Note_on_c, 4, 64, 94
5, 244512, Note_on_c, 4, 64, 0
5, 245376, Note_on_c, 4, 67, 99
5, 245536, Note_on_c, 4, 67, 0
5, 245568, Note_on_c, 4, 67, 100
5, 245664, Note_on_c, 4, 67, 0
5, 245952, Note_on_c, 4, 65, 102
5, 246048, Note_on_c, 4, 65, 0
5, 246912, Note_on_c, 4, 45, 108
5, 247072, Note_on_c, 4, 45, 0
5, 247104, Note_on_c, 4, 48, 127
5, 247440, Note_on_c, 4, 48, 0
5, 247488, Note_on_c, 4, 43, 108
5, 247648, Note_on_c, 4, 43, 0
5, 247680, Note_on_c, 4, 43, 108
5, 247840, Note_on_c, 4, 43, 0
5, 247872, Note_on_c, 4, 45, 127
5, 248208, Note_on_c, 4, 45, 0
5, 248256, Note_on_c, 4, 41, 108
5, 248416, Note_on_c, 4, 41, 0
5, 248448, Note_on_c, 4, 41, 108
5, 248608, Note_on_c, 4, 41, 0
5, 248640, Note_on_c, 4, 36, 108
5, 248976, Note_on_c, 4, 36, 0
5, 249024, Note_on_c, 4, 48, 108
5, 249360, Note_on_c, 4, 48, 0
5, 249408, Note_on_c, 4, 41, 108
5, 249568, Note_on_c, 4, 41, 0
5, 249984, Note_on_c, 4, 45, 92
5, 250144, Note_on_c, 4, 45, 0
5, 250176, Note_on_c, 4, 48, 127
5, 250512, Note_on_c, 4, 48, 0
5, 250560, Note_on_c, 4, 44, 92
5, 250720, Note_on_c, 4, 44, 0
5, 250752, Note_on_c, 4, 48, 92
5, 250912, Note_on_c, 4, 48, 0
5, 250944, Note_on_c, 4, 52, 127
5, 251280, Note_on_c, 4, 52, 0
5, 251328, Note_on_c, 4, 47, 92
5, 251488, Note_on_c, 4, 47, 0
5, 251520, Note_on_c, 4, 52, 92
5, 251680, Note_on_c, 4, 52, 0
5, 251712, Note_on_c, 4, 55, 127
5, 252048, Note_on_c, 4, 55, 0
5, 252096, Note_on_c, 4, 50, 92
5, 252256, Note_on_c, 4, 50, 0
5, 253056, Note_on_c, 4, 38, 92
5, 253216, Note_on_c, 4, 38, 0
5, 253248, Note_on_c, 4, 41, 127
5, 253584, Note_on_c, 4, 41, 0
5, 253632, Note_on_c, 4, 36, 92
5, 253968, Note_on_c, 4, 36, 0
5, 254592, Note_on_c, 4, 64, 45
5, 254752, Note_on_c, 4, 64, 0
5, 254784, Note_on_c, 4, 67, 45
5, 254880, Note_on_c, 4, 67, 0
5, 255168, Note_on_c, 4, 62, 45
5, 255264, Note_on_c, 4, 62, 0
5, 256128, Note_on_c, 4, 62, 45
5, 256288, Note_on_c, 4, 62, 0
5, 256320, Note_on_c, 4, 65, 45
5, 256416, Note_on_c, 4, 65, 0
5, 256704, Note_on_c, 4, 60, 45
5, 256800, Note_on_c, 4, 60, 0
5, 257664, Note_on_c, 4, 53, 45
5, 257824, Note_on_c, 4, 53, 0
5, 257856, Note_on_c, 4, 52, 45
5, 258016, Note_on_c, 4, 52, 0
5, 258240, Note_on_c, 4, 52, 45
5, 258400, Note_on_c, 4, 52, 0
5, 259200, Note_on_c, 4, 53, 45
5, 259360, Note_on_c, 4, 53, 0
5, 259392, Note_on_c, 4, 52, 45
5, 259552, Note_on_c, 4, 52, 0
5, 259776, Note_on_c, 4, 52, 45
5, 259936, Note_on_c, 4, 52, 0
5, 260736, Note_on_c, 4, 48, 45
5, 261088, Note_on_c, 4, 48, 0
5, 261120, Note_on_c, 4, 48, 45
5, 261312, Note_on_c, 4, 48, 0
5, 261312, Note_on_c, 4, 46, 45
5, 261504, Note_on_c, 4, 46, 0
5, 261504, Note_on_c, 4, 45, 45
5, 261696, Note_on_c, 4, 45, 0
5, 261696, Note_on_c, 4, 43, 45
5, 261888, Note_on_c, 4, 43, 0
5, 261888, Note_on_c, 4, 45, 45
5, 262080, Note_on_c, 4, 45, 0
5, 262080, Note_on_c, 4, 46, 45
5, 262624, Note_on_c, 4, 46, 0
5, 262656, Note_on_c, 4, 46, 45
5, 262848, Note_on_c, 4, 46, 0
5, 262848, Note_on_c, 4, 45, 45
5, 263040, Note_on_c, 4, 45, 0
5, 263040, Note_on_c, 4, 43, 45
5, 263232, Note_on_c, 4, 43, 0
5, 263232, Note_on_c, 4, 41, 45
5, 263424, Note_on_c, 4, 41, 0
5, 263424, Note_on_c, 4, 43, 45
5, 263616, Note_on_c, 4, 43, 0
5, 263616, Note_on_c, 4, 45, 45
5, 263776, Note_on_c, 4, 45, 0
5, 263808, Note_on_c, 4, 45, 45
5, 263968, Note_on_c, 4, 45, 0
5, 264000, Note_on_c, 4, 45, 45
5, 264160, Note_on_c, 4, 45, 0
5, 264576, Note_on_c, 4, 58, 45
5, 264768, Note_on_c, 4, 58, 0
5, 264768, Note_on_c, 4, 57, 45
5, 264960, Note_on_c, 4, 57, 0
5, 264960, Note_on_c, 4, 55, 45
5, 265152, Note_on_c, 4, 55, 0
5, 265152, Note_on_c, 4, 53, 45
5, 265312, Note_on_c, 4, 53, 0
5, 265728, Note_on_c, 4, 58, 45
5, 265920, Note_on_c, 4, 58, 0
5, 265920, Note_on_c, 4, 57, 45
5, 266112, Note_on_c, 4, 57, 0
5, 266112, Note_on_c, 4, 55, 45
5, 266304, Note_on_c, 4, 55, 0
5, 266304, Note_on_c, 4, 53, 45
5, 266496, Note_on_c, 4, 53, 0
5, 266496, Note_on_c, 4, 55, 45
5, 266688, Note_on_c, 4, 55, 0
5, 266688, Note_on_c, 4, 53, 45
5, 266880, Note_on_c, 4, 53, 0
5, 266880, Note_on_c, 4, 52, 45
5, 267040, Note_on_c, 4, 52, 0
5, 267072, Note_on_c, 4, 50, 30
5, 267408, Note_on_c, 4, 50, 0
5, 267456, Note_on_c, 4, 45, 30
5, 267616, Note_on_c, 4, 45, 0
5, 267648, Note_on_c, 4, 45, 30
5, 267808, Note_on_c, 4, 45, 0
5, 267840, Note_on_c, 4, 46, 30
5, 268176, Note_on_c, 4, 46, 0
5, 268224, Note_on_c, 4, 43, 30
5, 268384, Note_on_c, 4, 43, 0
5, 268416, Note_on_c, 4, 43, 30
5, 268576, Note_on_c, 4, 43, 0
5, 268608, Note_on_c, 4, 46, 30
5, 268944, Note_on_c, 4, 46, 0
5, 268992, Note_on_c, 4, 43, 30
5, 269152, Note_on_c, 4, 43, 0
5, 269184, Note_on_c, 4, 43, 30
5, 269344, Note_on_c, 4, 43, 0
5, 269376, Note_on_c, 4, 45, 30
5, 269712, Note_on_c, 4, 45, 0
5, 269760, Note_on_c, 4, 45, 30
5, 269920, Note_on_c, 4, 45, 0
5, 269952, Note_on_c, 4, 45, 30
5, 270112, Note_on_c, 4, 45, 0
5, 270144, Note_on_c, 4, 38, 45
5, 270192, Note_on_c, 4, 38, 0
5, 272448, Note_on_c, 4, 64, 45
5, 272832, Note_on_c, 4, 64, 0
5, 272832, Note_on_c, 4, 66, 45
5, 273024, Note_on_c, 4, 66, 0
5, 273024, Note_on_c, 4, 67, 45
5, 273184, Note_on_c, 4, 67, 0
5, 273216, Note_on_c, 4, 66, 45
5, 273376, Note_on_c, 4, 66, 0
5, 275520, Note_on_c, 4, 50, 45
5, 275680, Note_on_c, 4, 50, 0
5, 275904, Note_on_c, 4, 45, 49
5, 276064, Note_on_c, 4, 45, 0
5, 276288, Note_on_c, 4, 45, 53
5, 276448, Note_on_c, 4, 45, 0
5, 276672, Note_on_c, 4, 47, 57
5, 276832, Note_on_c, 4, 47, 0
5, 277056, Note_on_c, 4, 47, 63
5, 277216, Note_on_c, 4, 47, 0
5, 277440, Note_on_c, 4, 45, 69
5, 277600, Note_on_c, 4, 45, 0
5, 277824, Note_on_c, 4, 45, 45
5, 278544, Note_on_c, 4, 45, 0
5, 278592, Note_on_c, 4, 67, 45
5, 278752, Note_on_c, 4, 67, 0
5, 278976, Note_on_c, 4, 66, 59
5, 279136, Note_on_c, 4, 66, 0
5, 279360, Note_on_c, 4, 66, 45
5, 280080, Note_on_c, 4, 66, 0
5, 280128, Note_on_c, 4, 64, 45
5, 280288, Note_on_c, 4, 64, 0
5, 280512, Note_on_c, 4, 62, 59
5, 280672, Note_on_c, 4, 62, 0
5, 280896, Note_on_c, 4, 62, 45
5, 281616, Note_on_c, 4, 62, 0
5, 281664, Note_on_c, 4, 62, 45
5, 281824, Note_on_c, 4, 62, 0
5, 282048, Note_on_c, 4, 60, 59
5, 282208, Note_on_c, 4, 60, 0
5, 282432, Note_on_c, 4, 60, 45
5, 282624, Note_on_c, 4, 60, 0
5, 282624, Note_on_c, 4, 62, 45
5, 282816, Note_on_c, 4, 62, 0
5, 282816, Note_on_c, 4, 60, 45
5, 283008, Note_on_c, 4, 60, 0
5, 283008, Note_on_c, 4, 59, 45
5, 283200, Note_on_c, 4, 59, 0
5, 283200, Note_on_c, 4, 57, 45
5, 283392, Note_on_c, 4, 57, 0
5, 283392, Note_on_c, 4, 59, 45
5, 283584, Note_on_c, 4, 59, 0
5, 283584, Note_on_c, 4, 60, 45
5, 284128, Note_on_c, 4, 60, 0
5, 284160, Note_on_c, 4, 60, 45
5, 284352, Note_on_c, 4, 60, 0
5, 284352, Note_on_c, 4, 59, 45
5, 284544, Note_on_c, 4, 59, 0
5, 284544, Note_on_c, 4, 57, 45
5, 284736, Note_on_c, 4, 57, 0
5, 284736, Note_on_c, 4, 55, 45
5, 284928, Note_on_c, 4, 55, 0
5, 284928, Note_on_c, 4, 57, 45
5, 285120, Note_on_c, 4, 57, 0
5, 285120, Note_on_c, 4, 58, 45
5, 285312, Note_on_c, 4, 58, 0
5, 285312, Note_on_c, 4, 60, 45
5, 285472, Note_on_c, 4, 60, 0
5, 285504, Note_on_c, 4, 62, 30
5, 287968, Note_on_c, 4, 62, 0
5, 288000, Note_on_c, 4, 48, 30
5, 288192, Note_on_c, 4, 48, 0
5, 288192, Note_on_c, 4, 46, 30
5, 288384, Note_on_c, 4, 46, 0
5, 288384, Note_on_c, 4, 45, 30
5, 288576, Note_on_c, 4, 45, 0
5, 288576, Note_on_c, 4, 43, 30
5, 288768, Note_on_c, 4, 43, 0
5, 288768, Note_on_c, 4, 45, 30
5, 288960, Note_on_c, 4, 45, 0
5, 288960, Note_on_c, 4, 46, 30
5, 289536, Note_on_c, 4, 46, 0
5, 289536, Note_on_c, 4, 48, 30
5, 289728, Note_on_c, 4, 48, 0
5, 289728, Note_on_c, 4, 46, 30
5, 289920, Note_on_c, 4, 46, 0
5, 289920, Note_on_c, 4, 44, 30
5, 290080, Note_on_c, 4, 44, 0
5, 290112, Note_on_c, 4, 43, 30
5, 290304, Note_on_c, 4, 43, 0
5, 290304, Note_on_c, 4, 44, 30
5, 290496, Note_on_c, 4, 44, 0
5, 290496, Note_on_c, 4, 43, 30
5, 290688, Note_on_c, 4, 43, 0
5, 290688, Note_on_c, 4, 41, 30
5, 290848, Note_on_c, 4, 41, 0
5, 290880, Note_on_c, 4, 41, 30
5, 291072, Note_on_c, 4, 41, 0
5, 291072, Note_on_c, 4, 43, 30
5, 291264, Note_on_c, 4, 43, 0
5, 291264, Note_on_c, 4, 41, 30
5, 291456, Note_on_c, 4, 41, 0
5, 291456, Note_on_c, 4, 39, 30
5, 291616, Note_on_c, 4, 39, 0
5, 291648, Note_on_c, 4, 39, 30
5, 291840, Note_on_c, 4, 39, 0
5, 291840, Note_on_c, 4, 41, 30
5, 292032, Note_on_c, 4, 41, 0
5, 292032, Note_on_c, 4, 39, 30
5, 292224, Note_on_c, 4, 39, 0
5, 292224, Note_on_c, 4, 37, 30
5, 292384, Note_on_c, 4, 37, 0
5, 292416, Note_on_c, 4, 37, 30
5, 292608, Note_on_c, 4, 37, 0
5, 292608, Note_on_c, 4, 39, 30
5, 292800, Note_on_c, 4, 39, 0
5, 292800, Note_on_c, 4, 37, 30
5, 292992, Note_on_c, 4, 37, 0
5, 292992, Note_on_c, 4, 36, 30
5, 293152, Note_on_c, 4, 36, 0
5, 293184, Note_on_c, 4, 36, 30
5, 293344, Note_on_c, 4, 36, 0
5, 293568, Note_on_c, 4, 41, 30
5, 293728, Note_on_c, 4, 41, 0
5, 293952, Note_on_c, 4, 41, 30
5, 294112, Note_on_c, 4, 41, 0
5, 294336, Note_on_c, 4, 44, 30
5, 294496, Note_on_c, 4, 44, 0
5, 294720, Note_on_c, 4, 36, 30
5, 294880, Note_on_c, 4, 36, 0
5, 295104, Note_on_c, 4, 41, 30
5, 295264, Note_on_c, 4, 41, 0
5, 295488, Note_on_c, 4, 44, 30
5, 295648, Note_on_c, 4, 44, 0
5, 295872, Note_on_c, 4, 48, 30
5, 296032, Note_on_c, 4, 48, 0
5, 296256, Note_on_c, 4, 46, 30
5, 296416, Note_on_c, 4, 46, 0
5, 296640, Note_on_c, 4, 44, 30
5, 296800, Note_on_c, 4, 44, 0
5, 297024, Note_on_c, 4, 44, 30
5, 297184, Note_on_c, 4, 44, 0
5, 297408, Note_on_c, 4, 43, 30
5, 297568, Note_on_c, 4, 43, 0
5, 297792, Note_on_c, 4, 43, 30
5, 297952, Note_on_c, 4, 43, 0
5, 298176, Note_on_c, 4, 41, 30
5, 298336, Note_on_c, 4, 41, 0
5, 298560, Note_on_c, 4, 41, 30
5, 298720, Note_on_c, 4, 41, 0
5, 298944, Note_on_c, 4, 40, 30
5, 299136, Note_on_c, 4, 40, 0
5, 299136, Note_on_c, 4, 39, 30
5, 299296, Note_on_c, 4, 39, 0
5, 299328, Note_on_c, 4, 39, 30
5, 299488, Note_on_c, 4, 39, 0
5, 299712, Note_on_c, 4, 37, 30
5, 299872, Note_on_c, 4, 37, 0
5, 300096, Note_on_c, 4, 37, 30
5, 300256, Note_on_c, 4, 37, 0
5, 300480, Note_on_c, 4, 36, 30
5, 300640, Note_on_c, 4, 36, 0
5, 300864, Note_on_c, 4, 39, 30
5, 301024, Note_on_c, 4, 39, 0
5, 301248, Note_on_c, 4, 39, 30
5, 301312, Note_on_c, 4, 39, 0
5, 301312, Note_on_c, 4, 37, 30
5, 301376, Note_on_c, 4, 37, 0
5, 301376, Note_on_c, 4, 39, 30
5, 301440, Note_on_c, 4, 39, 0
5, 301440, Note_on_c, 4, 37, 30
5, 301504, Note_on_c, 4, 37, 0
5, 301504, Note_on_c, 4, 36, 30
5, 301568, Note_on_c, 4, 36, 0
5, 301568, Note_on_c, 4, 37, 30
5, 301630, Note_on_c, 4, 37, 0
5, 301632, Note_on_c, 4, 36, 30
5, 302352, Note_on_c, 4, 36, 0
5, 302400, Note_on_c, 4, 36, 30
5, 302560, Note_on_c, 4, 36, 0
5, 302784, Note_on_c, 4, 41, 30
5, 302944, Note_on_c, 4, 41, 0
5, 303168, Note_on_c, 4, 41, 30
5, 303328, Note_on_c, 4, 41, 0
5, 303552, Note_on_c, 4, 44, 30
5, 303712, Note_on_c, 4, 44, 0
5, 303936, Note_on_c, 4, 36, 30
5, 304096, Note_on_c, 4, 36, 0
5, 304320, Note_on_c, 4, 41, 30
5, 304480, Note_on_c, 4, 41, 0
5, 304704, Note_on_c, 4, 44, 75
5, 304864, Note_on_c, 4, 44, 0
5, 305088, Note_on_c, 4, 48, 61
5, 305248, Note_on_c, 4, 48, 0
5, 305472, Note_on_c, 4, 48, 45
5, 305632, Note_on_c, 4, 48, 0
5, 306432, Note_on_c, 4, 56, 56
5, 306624, Note_on_c, 4, 56, 0
5, 306624, Note_on_c, 4, 55, 58
5, 306816, Note_on_c, 4, 55, 0
5, 306816, Note_on_c, 4, 53, 60
5, 306976, Note_on_c, 4, 53, 0
5, 307008, Note_on_c, 4, 53, 62
5, 307200, Note_on_c, 4, 53, 0
5, 307200, Note_on_c, 4, 46, 64
5, 307392, Note_on_c, 4, 46, 0
5, 307392, Note_on_c, 4, 44, 66
5, 307584, Note_on_c, 4, 44, 0
5, 307584, Note_on_c, 4, 43, 69
5, 307776, Note_on_c, 4, 43, 0
5, 307776, Note_on_c, 4, 41, 72
5, 307968, Note_on_c, 4, 41, 0
5, 307968, Note_on_c, 4, 39, 75
5, 308160, Note_on_c, 4, 39, 0
5, 308160, Note_on_c, 4, 37, 78
5, 308352, Note_on_c, 4, 37, 0
5, 308352, Note_on_c, 4, 36, 81
5, 308512, Note_on_c, 4, 36, 0
5, 308544, Note_on_c, 4, 58, 84
5, 308736, Note_on_c, 4, 58, 0
5, 308736, Note_on_c, 4, 56, 87
5, 308928, Note_on_c, 4, 56, 0
5, 308928, Note_on_c, 4, 55, 90
5, 309120, Note_on_c, 4, 55, 0
5, 309120, Note_on_c, 4, 53, 93
5, 309312, Note_on_c, 4, 53, 0
5, 309312, Note_on_c, 4, 52, 96
5, 309504, Note_on_c, 4, 52, 0
5, 309504, Note_on_c, 4, 49, 99
5, 309696, Note_on_c, 4, 49, 0
5, 309696, Note_on_c, 4, 48, 102
5, 309888, Note_on_c, 4, 48, 0
5, 309888, Note_on_c, 4, 55, 105
5, 310048, Note_on_c, 4, 55, 0
5, 310080, Note_on_c, 4, 43, 108
5, 310336, Note_on_c, 4, 43, 0
5, 310368, Note_on_c, 4, 40, 108
5, 310400, Note_on_c, 4, 40, 0
5, 310464, Note_on_c, 4, 44, 127
5, 310800, Note_on_c, 4, 44, 0
5, 312384, Note_on_c, 4, 48, 108
5, 312640, Note_on_c, 4, 48, 0
5, 312672, Note_on_c, 4, 45, 108
5, 312704, Note_on_c, 4, 45, 0
5, 312768, Note_on_c, 4, 49, 127
5, 313104, Note_on_c, 4, 49, 0
5, 313152, Note_on_c, 4, 53, 127
5, 313632, Note_on_c, 4, 53, 0
5, 313632, Note_on_c, 4, 51, 103
5, 313728, Note_on_c, 4, 51, 0
5, 313728, Note_on_c, 4, 49, 98
5, 313824, Note_on_c, 4, 49, 0
5, 313824, Note_on_c, 4, 48, 93
5, 313920, Note_on_c, 4, 48, 0
5, 313920, Note_on_c, 4, 49, 88
5, 314016, Note_on_c, 4, 49, 0
5, 314016, Note_on_c, 4, 53, 83
5, 314112, Note_on_c, 4, 53, 0
5, 314112, Note_on_c, 4, 58, 78
5, 314208, Note_on_c, 4, 58, 0
5, 314208, Note_on_c, 4, 60, 73
5, 314302, Note_on_c, 4, 60, 0
5, 314304, Note_on_c, 4, 61, 68
5, 314464, Note_on_c, 4, 61, 0
5, 314688, Note_on_c, 4, 49, 92
5, 314944, Note_on_c, 4, 49, 0
5, 314976, Note_on_c, 4, 46, 92
5, 315008, Note_on_c, 4, 46, 0
5, 315072, Note_on_c, 4, 52, 127
5, 315408, Note_on_c, 4, 52, 0
5, 315840, Note_on_c, 4, 37, 92
5, 315886, Note_on_c, 4, 37, 0
5, 315888, Note_on_c, 4, 37, 92
5, 315934, Note_on_c, 4, 37, 0
5, 315936, Note_on_c, 4, 37, 92
5, 315982, Note_on_c, 4, 37, 0
5, 315984, Note_on_c, 4, 37, 92
5, 316030, Note_on_c, 4, 37, 0
5, 316032, Note_on_c, 4, 37, 92
5, 316078, Note_on_c, 4, 37, 0
5, 316080, Note_on_c, 4, 37, 92
5, 316126, Note_on_c, 4, 37, 0
5, 316128, Note_on_c, 4, 37, 92
5, 316174, Note_on_c, 4, 37, 0
5, 316176, Note_on_c, 4, 37, 92
5, 316222, Note_on_c, 4, 37, 0
5, 316224, Note_on_c, 4, 37, 92
5, 316384, Note_on_c, 4, 37, 0
5, 316992, Note_on_c, 4, 37, 92
5, 317038, Note_on_c, 4, 37, 0
5, 317040, Note_on_c, 4, 37, 92
5, 317086, Note_on_c, 4, 37, 0
5, 317088, Note_on_c, 4, 37, 92
5, 317134, Note_on_c, 4, 37, 0
5, 317136, Note_on_c, 4, 37, 92
5, 317182, Note_on_c, 4, 37, 0
5, 317184, Note_on_c, 4, 37, 92
5, 317230, Note_on_c, 4, 37, 0
5, 317232, Note_on_c, 4, 37, 92
5, 317278, Note_on_c, 4, 37, 0
5, 317280, Note_on_c, 4, 37, 92
5, 317326, Note_on_c, 4, 37, 0
5, 317328, Note_on_c, 4, 37, 92
5, 317374, Note_on_c, 4, 37, 0
5, 317376, Note_on_c, 4, 36, 92
5, 317536, Note_on_c, 4, 36, 0
5, 318144, Note_on_c, 4, 36, 92
5, 318190, Note_on_c, 4, 36, 0
5, 318192, Note_on_c, 4, 36, 91
5, 318238, Note_on_c, 4, 36, 0
5, 318240, Note_on_c, 4, 36, 90
5, 318286, Note_on_c, 4, 36, 0
5, 318288, Note_on_c, 4, 36, 89
5, 318334, Note_on_c, 4, 36, 0
5, 318336, Note_on_c, 4, 36, 88
5, 318382, Note_on_c, 4, 36, 0
5, 318384, Note_on_c, 4, 36, 87
5, 318430, Note_on_c, 4, 36, 0
5, 318432, Note_on_c, 4, 36, 86
5, 318478, Note_on_c, 4, 36, 0
5, 318480, Note_on_c, 4, 36, 85
5, 318526, Note_on_c, 4, 36, 0
5, 318528, Note_on_c, 4, 36, 84
5, 318688, Note_on_c, 4, 36, 0
5, 319296, Note_on_c, 4, 36, 68
5, 319342, Note_on_c, 4, 36, 0
5, 319344, Note_on_c, 4, 36, 67
5, 319390, Note_on_c, 4, 36, 0
5, 319392, Note_on_c, 4, 36, 66
5, 319438, Note_on_c, 4, 36, 0
5, 319440, Note_on_c, 4, 36, 65
5, 319486, Note_on_c, 4, 36, 0
5, 319488, Note_on_c, 4, 36, 64
5, 319534, Note_on_c, 4, 36, 0
5, 319536, Note_on_c, 4, 36, 63
5, 319582, Note_on_c, 4, 36, 0
5, 319584, Note_on_c, 4, 36, 62
5, 319630, Note_on_c, 4, 36, 0
5, 319632, Note_on_c, 4, 36, 61
5, 319678, Note_on_c, 4, 36, 0
5, 319680, Note_on_c, 4, 36, 60
5, 319726, Note_on_c, 4, 36, 0
5, 319728, Note_on_c, 4, 36, 59
5, 319774, Note_on_c, 4, 36, 0
5, 319776, Note_on_c, 4, 36, 58
5, 319822, Note_on_c, 4, 36, 0
5, 319824, Note_on_c, 4, 36, 57
5, 319870, Note_on_c, 4, 36, 0
5, 319872, Note_on_c, 4, 36, 56
5, 319918, Note_on_c, 4, 36, 0
5, 319920, Note_on_c, 4, 36, 55
5, 319966, Note_on_c, 4, 36, 0
5, 319968, Note_on_c, 4, 36, 54
5, 320014, Note_on_c, 4, 36, 0
5, 320016, Note_on_c, 4, 36, 53
5, 320062, Note_on_c, 4, 36, 0
5, 320064, Note_on_c, 4, 36, 52
5, 320224, Note_on_c, 4, 36, 0
5, 320256, Note_on_c, 4, 37, 45
5, 320416, Note_on_c, 4, 37, 0
5, 320448, Note_on_c, 4, 49, 45
5, 320704, Note_on_c, 4, 49, 0
5, 320736, Note_on_c, 4, 44, 45
5, 320830, Note_on_c, 4, 44, 0
5, 320832, Note_on_c, 4, 51, 45
5, 320878, Note_on_c, 4, 51, 0
5, 320880, Note_on_c, 4, 51, 45
5, 320926, Note_on_c, 4, 51, 0
5, 320928, Note_on_c, 4, 51, 45
5, 320974, Note_on_c, 4, 51, 0
5, 320976, Note_on_c, 4, 51, 45
5, 321022, Note_on_c, 4, 51, 0
5, 321024, Note_on_c, 4, 51, 45
5, 321070, Note_on_c, 4, 51, 0
5, 321072, Note_on_c, 4, 51, 45
5, 321118, Note_on_c, 4, 51, 0
5, 321168, Note_on_c, 4, 51, 45
5, 321214, Note_on_c, 4, 51, 0
5, 321216, Note_on_c, 4, 51, 45
5, 321376, Note_on_c, 4, 51, 0
5, 321600, Note_on_c, 4, 51, 45
5, 321856, Note_on_c, 4, 51, 0
5, 321888, Note_on_c, 4, 46, 56
5, 321982, Note_on_c, 4, 46, 0
5, 321984, Note_on_c, 4, 53, 60
5, 322030, Note_on_c, 4, 53, 0
5, 322032, Note_on_c, 4, 53, 62
5, 322078, Note_on_c, 4, 53, 0
5, 322080, Note_on_c, 4, 53, 64
5, 322126, Note_on_c, 4, 53, 0
5, 322128, Note_on_c, 4, 53, 66
5, 322174, Note_on_c, 4, 53, 0
5, 322176, Note_on_c, 4, 53, 68
5, 322222, Note_on_c, 4, 53, 0
5, 322224, Note_on_c, 4, 53, 70
5, 322270, Note_on_c, 4, 53, 0
5, 322320, Note_on_c, 4, 53, 74
5, 322366, Note_on_c, 4, 53, 0
5, 322368, Note_on_c, 4, 53, 76
5, 322528, Note_on_c, 4, 53, 0
5, 322752, Note_on_c, 4, 41, 92
5, 323008, Note_on_c, 4, 41, 0
5, 323040, Note_on_c, 4, 36, 92
5, 323134, Note_on_c, 4, 36, 0
5, 323136, Note_on_c, 4, 43, 92
5, 323182, Note_on_c, 4, 43, 0
5, 323184, Note_on_c, 4, 43, 92
5, 323230, Note_on_c, 4, 43, 0
5, 323232, Note_on_c, 4, 43, 92
5, 323278, Note_on_c, 4, 43, 0
5, 323280, Note_on_c, 4, 43, 92
5, 323326, Note_on_c, 4, 43, 0
5, 323328, Note_on_c, 4, 43, 92
5, 323374, Note_on_c, 4, 43, 0
5, 323376, Note_on_c, 4, 43, 92
5, 323422, Note_on_c, 4, 43, 0
5, 323424, Note_on_c, 4, 43, 92
5, 323470, Note_on_c, 4, 43, 0
5, 323472, Note_on_c, 4, 43, 92
5, 323518, Note_on_c, 4, 43, 0
5, 323520, Note_on_c, 4, 36, 92
5, 323520, Note_on_c, 4, 43, 92
5, 323566, Note_on_c, 4, 36, 0
5, 323566, Note_on_c, 4, 43, 0
5, 323568, Note_on_c, 4, 36, 92
5, 323568, Note_on_c, 4, 43, 92
5, 323614, Note_on_c, 4, 36, 0
5, 323614, Note_on_c, 4, 43, 0
5, 323616, Note_on_c, 4, 36, 92
5, 323616, Note_on_c, 4, 43, 92
5, 323662, Note_on_c, 4, 36, 0
5, 323662, Note_on_c, 4, 43, 0
5, 323664, Note_on_c, 4, 36, 92
5, 323664, Note_on_c, 4, 43, 92
5, 323710, Note_on_c, 4, 36, 0
5, 323710, Note_on_c, 4, 43, 0
5, 323712, Note_on_c, 4, 36, 92
5, 323712, Note_on_c, 4, 43, 92
5, 323758, Note_on_c, 4, 36, 0
5, 323758, Note_on_c, 4, 43, 0
5, 323760, Note_on_c, 4, 36, 92
5, 323760, Note_on_c, 4, 43, 92
5, 323806, Note_on_c, 4, 36, 0
5, 323806, Note_on_c, 4, 43, 0
5, 323808, Note_on_c, 4, 36, 92
5, 323808, Note_on_c, 4, 43, 92
5, 323854, Note_on_c, 4, 36, 0
5, 323854, Note_on_c, 4, 43, 0
5, 323856, Note_on_c, 4, 36, 92
5, 323856, Note_on_c, 4, 43, 92
5, 323902, Note_on_c, 4, 36, 0
5, 323902, Note_on_c, 4, 43, 0
5, 323904, Note_on_c, 4, 36, 92
5, 323904, Note_on_c, 4, 43, 92
5, 323950, Note_on_c, 4, 36, 0
5, 323950, Note_on_c, 4, 43, 0
5, 323952, Note_on_c, 4, 36, 91
5, 323952, Note_on_c, 4, 43, 91
5, 323998, Note_on_c, 4, 36, 0
5, 323998, Note_on_c, 4, 43, 0
5, 324000, Note_on_c, 4, 36, 89
5, 324000, Note_on_c, 4, 43, 89
5, 324046, Note_on_c, 4, 36, 0
5, 324046, Note_on_c, 4, 43, 0
5, 324048, Note_on_c, 4, 36, 87
5, 324048, Note_on_c, 4, 43, 87
5, 324094, Note_on_c, 4, 36, 0
5, 324094, Note_on_c, 4, 43, 0
5, 324096, Note_on_c, 4, 36, 85
5, 324096, Note_on_c, 4, 43, 85
5, 324142, Note_on_c, 4, 36, 0
5, 324142, Note_on_c, 4, 43, 0
5, 324144, Note_on_c, 4, 36, 83
5, 324144, Note_on_c, 4, 43, 83
5, 324190, Note_on_c, 4, 36, 0
5, 324190, Note_on_c, 4, 43, 0
5, 324192, Note_on_c, 4, 36, 81
5, 324192, Note_on_c, 4, 43, 81
5, 324238, Note_on_c, 4, 36, 0
5, 324238, Note_on_c, 4, 43, 0
5, 324240, Note_on_c, 4, 36, 79
5, 324240, Note_on_c, 4, 43, 79
5, 324286, Note_on_c, 4, 36, 0
5, 324286, Note_on_c, 4, 43, 0
5, 324288, Note_on_c, 4, 36, 77
5, 324288, Note_on_c, 4, 43, 77
5, 324334, Note_on_c, 4, 36, 0
5, 324334, Note_on_c, 4, 43, 0
5, 324336, Note_on_c, 4, 36, 75
5, 324336, Note_on_c, 4, 43, 75
5, 324382, Note_on_c, 4, 36, 0
5, 324382, Note_on_c, 4, 43, 0
5, 324384, Note_on_c, 4, 36, 73
5, 324384, Note_on_c, 4, 43, 73
5, 324430, Note_on_c, 4, 36, 0
5, 324430, Note_on_c, 4, 43, 0
5, 324432, Note_on_c, 4, 36, 71
5, 324432, Note_on_c, 4, 43, 71
5, 324478, Note_on_c, 4, 36, 0
5, 324478, Note_on_c, 4, 43, 0
5, 324480, Note_on_c, 4, 36, 69
5, 324480, Note_on_c, 4, 43, 69
5, 324526, Note_on_c, 4, 36, 0
5, 324526, Note_on_c, 4, 43, 0
5, 324528, Note_on_c, 4, 36, 67
5, 324528, Note_on_c, 4, 43, 67
5, 324574, Note_on_c, 4, 36, 0
5, 324574, Note_on_c, 4, 43, 0
5, 324576, Note_on_c, 4, 36, 65
5, 324576, Note_on_c, 4, 43, 65
5, 324622, Note_on_c, 4, 36, 0
5, 324622, Note_on_c, 4, 43, 0
5, 324624, Note_on_c, 4, 36, 63
5, 324624, Note_on_c, 4, 43, 63
5, 324670, Note_on_c, 4, 36, 0
5, 324670, Note_on_c, 4, 43, 0
5, 324672, Note_on_c, 4, 36, 61
5, 324672, Note_on_c, 4, 43, 61
5, 324718, Note_on_c, 4, 36, 0
5, 324718, Note_on_c, 4, 43, 0
5, 324720, Note_on_c, 4, 36, 59
5, 324720, Note_on_c, 4, 43, 59
5, 324766, Note_on_c, 4, 36, 0
5, 324766, Note_on_c, 4, 43, 0
5, 324768, Note_on_c, 4, 36, 57
5, 324768, Note_on_c, 4, 43, 57
5, 324814, Note_on_c, 4, 36, 0
5, 324814, Note_on_c, 4, 43, 0
5, 324816, Note_on_c, 4, 36, 55
5, 324816, Note_on_c, 4, 43, 55
5, 324862, Note_on_c, 4, 36, 0
5, 324862, Note_on_c, 4, 43, 0
5, 324864, Note_on_c, 4, 36, 53
5, 324864, Note_on_c, 4, 43, 53
5, 324958, Note_on_c, 4, 36, 0
5, 324958, Note_on_c, 4, 43, 0
5, 324960, Note_on_c, 4, 36, 49
5, 324960, Note_on_c, 4, 48, 49
5, 325054, Note_on_c, 4, 36, 0
5, 325054, Note_on_c, 4, 48, 0
5, 325056, Note_on_c, 4, 36, 45
5, 325056, Note_on_c, 4, 48, 45
5, 327696, Note_on_c, 4, 36, 0
5, 327696, Note_on_c, 4, 48, 0
5, 327744, Note_on_c, 4, 41, 45
5, 327744, Note_on_c, 4, 48, 45
5, 327904, Note_on_c, 4, 41, 0
5, 327904, Note_on_c, 4, 48, 0
5, 331008, Note_on_c, 4, 46, 92
5, 331168, Note_on_c, 4, 46, 0
5, 331200, Note_on_c, 4, 50, 127
5, 331536, Note_on_c, 4, 50, 0
5, 331584, Note_on_c, 4, 45, 92
5, 331744, Note_on_c, 4, 45, 0
5, 331776, Note_on_c, 4, 45, 92
5, 331936, Note_on_c, 4, 45, 0
5, 331968, Note_on_c, 4, 48, 127
5, 332304, Note_on_c, 4, 48, 0
5, 332352, Note_on_c, 4, 43, 92
5, 332512, Note_on_c, 4, 43, 0
5, 332544, Note_on_c, 4, 41, 92
5, 332704, Note_on_c, 4, 41, 0
5, 332736, Note_on_c, 4, 40, 127
5, 332928, Note_on_c, 4, 40, 0
5, 332928, Note_on_c, 4, 38, 92
5, 333088, Note_on_c, 4, 38, 0
5, 333120, Note_on_c, 4, 37, 92
5, 333168, Note_on_c, 4, 37, 0
5, 333312, Note_on_c, 4, 38, 92
5, 333360, Note_on_c, 4, 38, 0
5, 333504, Note_on_c, 4, 40, 127
5, 333696, Note_on_c, 4, 40, 0
5, 333696, Note_on_c, 4, 37, 92
5, 333856, Note_on_c, 4, 37, 0
5, 333888, Note_on_c, 4, 38, 92
5, 333936, Note_on_c, 4, 38, 0
5, 334080, Note_on_c, 4, 36, 92
5, 334128, Note_on_c, 4, 36, 0
5, 334272, Note_on_c, 4, 48, 127
5, 334464, Note_on_c, 4, 48, 0
5, 334464, Note_on_c, 4, 47, 92
5, 334624, Note_on_c, 4, 47, 0
5, 334656, Note_on_c, 4, 48, 92
5, 334704, Note_on_c, 4, 48, 0
5, 334848, Note_on_c, 4, 46, 92
5, 334896, Note_on_c, 4, 46, 0
5, 335040, Note_on_c, 4, 46, 127
5, 335232, Note_on_c, 4, 46, 0
5, 335232, Note_on_c, 4, 45, 92
5, 335392, Note_on_c, 4, 45, 0
5, 335424, Note_on_c, 4, 46, 92
5, 335472, Note_on_c, 4, 46, 0
5, 335616, Note_on_c, 4, 46, 92
5, 335664, Note_on_c, 4, 46, 0
5, 335808, Note_on_c, 4, 58, 92
5, 335968, Note_on_c, 4, 58, 0
5, 336384, Note_on_c, 4, 58, 92
5, 336544, Note_on_c, 4, 58, 0
5, 336576, Note_on_c, 4, 57, 92
5, 336736, Note_on_c, 4, 57, 0
5, 337152, Note_on_c, 4, 57, 92
5, 337312, Note_on_c, 4, 57, 0
5, 337344, Note_on_c, 4, 55, 92
5, 337504, Note_on_c, 4, 55, 0
5, 337920, Note_on_c, 4, 55, 92
5, 338080, Note_on_c, 4, 55, 0
5, 338112, Note_on_c, 4, 55, 92
5, 338272, Note_on_c, 4, 55, 0
5, 338496, Note_on_c, 4, 50, 92
5, 338656, Note_on_c, 4, 50, 0
5, 338880, Note_on_c, 4, 51, 92
5, 339040, Note_on_c, 4, 51, 0
5, 339456, Note_on_c, 4, 51, 92
5, 339616, Note_on_c, 4, 51, 0
5, 339648, Note_on_c, 4, 48, 92
5, 339808, Note_on_c, 4, 48, 0
5, 340224, Note_on_c, 4, 48, 92
5, 340384, Note_on_c, 4, 48, 0
5, 340416, Note_on_c, 4, 46, 92
5, 340576, Note_on_c, 4, 46, 0
5, 340992, Note_on_c, 4, 46, 92
5, 341152, Note_on_c, 4, 46, 0
5, 341184, Note_on_c, 4, 48, 92
5, 341344, Note_on_c, 4, 48, 0
5, 341568, Note_on_c, 4, 50, 92
5, 341728, Note_on_c, 4, 50, 0
5, 341952, Note_on_c, 4, 46, 92
5, 342000, Note_on_c, 4, 46, 0
5, 342144, Note_on_c, 4, 43, 92
5, 342192, Note_on_c, 4, 43, 0
5, 342336, Note_on_c, 4, 45, 92
5, 342384, Note_on_c, 4, 45, 0
5, 345216, Note_on_c, 4, 62, 45
5, 345408, Note_on_c, 4, 62, 0
5, 345408, Note_on_c, 4, 60, 45
5, 345600, Note_on_c, 4, 60, 0
5, 345600, Note_on_c, 4, 59, 45
5, 345792, Note_on_c, 4, 59, 0
5, 345792, Note_on_c, 4, 57, 45
5, 345984, Note_on_c, 4, 57, 0
5, 345984, Note_on_c, 4, 59, 45
5, 346176, Note_on_c, 4, 59, 0
5, 346176, Note_on_c, 4, 60, 45
5, 346720, Note_on_c, 4, 60, 0
5, 346752, Note_on_c, 4, 60, 45
5, 346944, Note_on_c, 4, 60, 0
5, 346944, Note_on_c, 4, 59, 45
5, 347136, Note_on_c, 4, 59, 0
5, 347136, Note_on_c, 4, 57, 45
5, 347328, Note_on_c, 4, 57, 0
5, 347328, Note_on_c, 4, 55, 45
5, 347520, Note_on_c, 4, 55, 0
5, 347520, Note_on_c, 4, 57, 45
5, 347712, Note_on_c, 4, 57, 0
5, 347712, Note_on_c, 4, 59, 45
5, 348256, Note_on_c, 4, 59, 0
5, 348288, Note_on_c, 4, 67, 45
5, 348480, Note_on_c, 4, 67, 0
5, 348480, Note_on_c, 4, 66, 45
5, 348672, Note_on_c, 4, 66, 0
5, 348672, Note_on_c, 4, 64, 45
5, 348864, Note_on_c, 4, 64, 0
5, 348864, Note_on_c, 4, 62, 45
5, 349056, Note_on_c, 4, 62, 0
5, 349056, Note_on_c, 4, 61, 45
5, 349248, Note_on_c, 4, 61, 0
5, 349248, Note_on_c, 4, 62, 45
5, 349440, Note_on_c, 4, 62, 0
5, 349440, Note_on_c, 4, 64, 45
5, 349600, Note_on_c, 4, 64, 0
5, 349632, Note_on_c, 4, 59, 45
5, 349824, Note_on_c, 4, 59, 0
5, 349824, Note_on_c, 4, 57, 45
5, 350016, Note_on_c, 4, 57, 0
5, 350016, Note_on_c, 4, 59, 45
5, 350208, Note_on_c, 4, 59, 0
5, 350208, Note_on_c, 4, 61, 45
5, 350400, Note_on_c, 4, 61, 0
5, 350400, Note_on_c, 4, 62, 45
5, 350592, Note_on_c, 4, 62, 0
5, 350592, Note_on_c, 4, 61, 45
5, 350784, Note_on_c, 4, 61, 0
5, 350784, Note_on_c, 4, 62, 45
5, 350976, Note_on_c, 4, 62, 0
5, 350976, Note_on_c, 4, 64, 45
5, 351136, Note_on_c, 4, 64, 0
5, 351168, Note_on_c, 4, 65, 45
5, 351696, Note_on_c, 4, 65, 0
5, 351744, Note_on_c, 4, 65, 45
5, 351936, Note_on_c, 4, 65, 0
5, 351936, Note_on_c, 4, 63, 45
5, 352128, Note_on_c, 4, 63, 0
5, 352128, Note_on_c, 4, 62, 45
5, 352320, Note_on_c, 4, 62, 0
5, 352320, Note_on_c, 4, 60, 45
5, 352512, Note_on_c, 4, 60, 0
5, 352512, Note_on_c, 4, 62, 45
5, 352704, Note_on_c, 4, 62, 0
5, 352704, Note_on_c, 4, 63, 45
5, 353232, Note_on_c, 4, 63, 0
5, 353280, Note_on_c, 4, 63, 45
5, 353472, Note_on_c, 4, 63, 0
5, 353472, Note_on_c, 4, 62, 45
5, 353664, Note_on_c, 4, 62, 0
5, 353664, Note_on_c, 4, 60, 45
5, 353856, Note_on_c, 4, 60, 0
5, 353856, Note_on_c, 4, 58, 45
5, 354048, Note_on_c, 4, 58, 0
5, 354048, Note_on_c, 4, 60, 45
5, 354240, Note_on_c, 4, 60, 0
5, 354240, Note_on_c, 4, 62, 45
5, 354768, Note_on_c, 4, 62, 0
5, 354816, Note_on_c, 4, 62, 45
5, 355008, Note_on_c, 4, 62, 0
5, 355008, Note_on_c, 4, 60, 45
5, 355200, Note_on_c, 4, 60, 0
5, 355200, Note_on_c, 4, 58, 47
5, 355392, Note_on_c, 4, 58, 0
5, 355392, Note_on_c, 4, 57, 49
5, 355584, Note_on_c, 4, 57, 0
5, 355584, Note_on_c, 4, 55, 51
5, 355744, Note_on_c, 4, 55, 0
5, 356352, Note_on_c, 4, 57, 60
5, 356544, Note_on_c, 4, 57, 0
5, 356544, Note_on_c, 4, 58, 63
5, 356736, Note_on_c, 4, 58, 0
5, 356736, Note_on_c, 4, 60, 66
5, 356928, Note_on_c, 4, 60, 0
5, 356928, Note_on_c, 4, 62, 69
5, 357120, Note_on_c, 4, 62, 0
5, 357120, Note_on_c, 4, 64, 72
5, 357280, Note_on_c, 4, 64, 0
5, 357312, Note_on_c, 4, 65, 45
5, 357472, Note_on_c, 4, 65, 0
5, 357696, Note_on_c, 4, 60, 45
5, 357856, Note_on_c, 4, 60, 0
5, 358080, Note_on_c, 4, 60, 45
5, 358240, Note_on_c, 4, 60, 0
5, 358464, Note_on_c, 4, 62, 45
5, 358624, Note_on_c, 4, 62, 0
5, 358848, Note_on_c, 4, 65, 45
5, 359232, Note_on_c, 4, 65, 0
5, 359232, Note_on_c, 4, 67, 45
5, 359424, Note_on_c, 4, 67, 0
5, 359424, Note_on_c, 4, 69, 45
5, 359584, Note_on_c, 4, 69, 0
5, 359616, Note_on_c, 4, 67, 45
5, 360336, Note_on_c, 4, 67, 0
5, 360384, Note_on_c, 4, 65, 45
5, 360544, Note_on_c, 4, 65, 0
5, 360768, Note_on_c, 4, 60, 45
5, 360928, Note_on_c, 4, 60, 0
5, 361152, Note_on_c, 4, 60, 45
5, 361312, Note_on_c, 4, 60, 0
5, 361536, Note_on_c, 4, 62, 45
5, 361696, Note_on_c, 4, 62, 0
5, 361920, Note_on_c, 4, 62, 45
5, 362080, Note_on_c, 4, 62, 0
5, 362304, Note_on_c, 4, 60, 45
5, 362464, Note_on_c, 4, 60, 0
5, 362688, Note_on_c, 4, 60, 45
5, 363408, Note_on_c, 4, 60, 0
5, 363456, Note_on_c, 4, 41, 45
5, 363648, Note_on_c, 4, 41, 0
5, 363648, Note_on_c, 4, 48, 52
5, 363840, Note_on_c, 4, 48, 0
5, 363840, Note_on_c, 4, 45, 59
5, 364032, Note_on_c, 4, 45, 0
5, 364032, Note_on_c, 4, 53, 67
5, 364192, Note_on_c, 4, 53, 0
5, 366528, Note_on_c, 4, 41, 45
5, 366720, Note_on_c, 4, 41, 0
5, 366720, Note_on_c, 4, 48, 48
5, 366912, Note_on_c, 4, 48, 0
5, 366912, Note_on_c, 4, 45, 51
5, 367104, Note_on_c, 4, 45, 0
5, 367104, Note_on_c, 4, 53, 55
5, 367264, Note_on_c, 4, 53, 0
5, 367680, Note_on_c, 4, 48, 67
5, 367840, Note_on_c, 4, 48, 0
5, 368064, Note_on_c, 4, 48, 45
5, 368224, Note_on_c, 4, 48, 0
5, 368448, Note_on_c, 4, 50, 45
5, 368608, Note_on_c, 4, 50, 0
5, 368832, Note_on_c, 4, 50, 45
5, 368992, Note_on_c, 4, 50, 0
5, 369216, Note_on_c, 4, 48, 45
5, 369376, Note_on_c, 4, 48, 0
5, 369600, Note_on_c, 4, 50, 45
5, 369760, Note_on_c, 4, 50, 0
5, 369984, Note_on_c, 4, 48, 51
5, 370032, Note_on_c, 4, 48, 0
5, 370176, Note_on_c, 4, 52, 54
5, 370224, Note_on_c, 4, 52, 0
5, 370368, Note_on_c, 4, 55, 57
5, 370416, Note_on_c, 4, 55, 0
5, 370560, Note_on_c, 4, 60, 60
5, 370608, Note_on_c, 4, 60, 0
5, 370752, Note_on_c, 4, 64, 63
5, 370800, Note_on_c, 4, 64, 0
5, 370944, Note_on_c, 4, 48, 66
5, 371104, Note_on_c, 4, 48, 0
5, 371136, Note_on_c, 4, 50, 69
5, 371296, Note_on_c, 4, 50, 0
5, 371520, Note_on_c, 4, 48, 75
5, 371680, Note_on_c, 4, 48, 0
5, 371712, Note_on_c, 4, 53, 78
5, 371872, Note_on_c, 4, 53, 0
5, 371904, Note_on_c, 4, 57, 81
5, 372064, Note_on_c, 4, 57, 0
5, 372096, Note_on_c, 4, 60, 84
5, 372256, Note_on_c, 4, 60, 0
5, 372288, Note_on_c, 4, 65, 88
5, 372448, Note_on_c, 4, 65, 0
5, 372480, Note_on_c, 4, 65, 92
5, 372640, Note_on_c, 4, 65, 0
5, 372672, Note_on_c, 4, 65, 92
5, 372768, Note_on_c, 4, 65, 0
5, 373056, Note_on_c, 4, 64, 94
5, 373152, Note_on_c, 4, 64, 0
5, 374016, Note_on_c, 4, 67, 99
5, 374176, Note_on_c, 4, 67, 0
5, 374208, Note_on_c, 4, 67, 100
5, 374304, Note_on_c, 4, 67, 0
5, 374592, Note_on_c, 4, 65, 102
5, 374688, Note_on_c, 4, 65, 0
5, 375552, Note_on_c, 4, 45, 108
5, 375712, Note_on_c, 4, 45, 0
5, 375744, Note_on_c, 4, 48, 127
5, 376080, Note_on_c, 4, 48, 0
5, 376128, Note_on_c, 4, 43, 108
5, 376288, Note_on_c, 4, 43, 0
5, 376320, Note_on_c, 4, 43, 108
5, 376480, Note_on_c, 4, 43, 0
5, 376512, Note_on_c, 4, 45, 127
5, 376848, Note_on_c, 4, 45, 0
5, 376896, Note_on_c, 4, 41, 108
5, 377056, Note_on_c, 4, 41, 0
5, 377088, Note_on_c, 4, 41, 108
5, 377248, Note_on_c, 4, 41, 0
5, 377280, Note_on_c, 4, 36, 108
5, 377616, Note_on_c, 4, 36, 0
5, 377664, Note_on_c, 4, 48, 108
5, 378000, Note_on_c, 4, 48, 0
5, 378048, Note_on_c, 4, 41, 108
5, 378208, Note_on_c, 4, 41, 0
5, 378624, Note_on_c, 4, 49, 45
5, 378784, Note_on_c, 4, 49, 0
5, 378816, Note_on_c, 4, 49, 45
5, 379152, Note_on_c, 4, 49, 0
5, 379200, Note_on_c, 4, 49, 45
5, 381648, Note_on_c, 4, 49, 0
5, 381696, Note_on_c, 4, 54, 45
5, 381856, Note_on_c, 4, 54, 0
5, 381888, Note_on_c, 4, 54, 45
5, 382224, Note_on_c, 4, 54, 0
5, 382272, Note_on_c, 4, 54, 45
5, 384720, Note_on_c, 4, 54, 0
5, 384768, Note_on_c, 4, 63, 30
5, 384928, Note_on_c, 4, 63, 0
5, 384960, Note_on_c, 4, 63, 30
5, 385296, Note_on_c, 4, 63, 0
5, 385344, Note_on_c, 4, 63, 30
5, 386256, Note_on_c, 4, 63, 0
5, 386496, Note_on_c, 4, 65, 30
5, 386656, Note_on_c, 4, 65, 0
5, 386880, Note_on_c, 4, 65, 30
5, 387040, Note_on_c, 4, 65, 0
5, 387264, Note_on_c, 4, 65, 30
5, 387424, Note_on_c, 4, 65, 0
5, 387648, Note_on_c, 4, 64, 30
5, 387808, Note_on_c, 4, 64, 0
5, 388032, Note_on_c, 4, 62, 30
5, 388192, Note_on_c, 4, 62, 0
5, 388416, Note_on_c, 4, 60, 30
5, 388576, Note_on_c, 4, 60, 0
5, 388608, Note_on_c, 4, 59, 30
5, 388768, Note_on_c, 4, 59, 0
5, 388800, Note_on_c, 4, 60, 30
5, 388960, Note_on_c, 4, 60, 0
5, 389568, Note_on_c, 4, 65, 30
5, 389728, Note_on_c, 4, 65, 0
5, 389952, Note_on_c, 4, 65, 30
5, 390112, Note_on_c, 4, 65, 0
5, 390336, Note_on_c, 4, 62, 30
5, 390496, Note_on_c, 4, 62, 0
5, 390720, Note_on_c, 4, 60, 30
5, 390880, Note_on_c, 4, 60, 0
5, 391104, Note_on_c, 4, 58, 30
5, 391264, Note_on_c, 4, 58, 0
5, 391488, Note_on_c, 4, 60, 30
5, 391648, Note_on_c, 4, 60, 0
5, 391872, Note_on_c, 4, 65, 30
5, 392032, Note_on_c, 4, 65, 0
5, 392640, Note_on_c, 4, 65, 30
5, 392800, Note_on_c, 4, 65, 0
5, 393024, Note_on_c, 4, 65, 30
5, 393184, Note_on_c, 4, 65, 0
5, 393408, Note_on_c, 4, 65, 30
5, 393568, Note_on_c, 4, 65, 0
5, 393792, Note_on_c, 4, 64, 30
5, 393952, Note_on_c, 4, 64, 0
5, 394176, Note_on_c, 4, 62, 30
5, 394336, Note_on_c, 4, 62, 0
5, 394560, Note_on_c, 4, 60, 30
5, 394720, Note_on_c, 4, 60, 0
5, 394752, Note_on_c, 4, 59, 30
5, 394912, Note_on_c, 4, 59, 0
5, 394944, Note_on_c, 4, 60, 30
5, 395104, Note_on_c, 4, 60, 0
5, 395712, Note_on_c, 4, 65, 30
5, 395872, Note_on_c, 4, 65, 0
5, 396096, Note_on_c, 4, 65, 30
5, 396256, Note_on_c, 4, 65, 0
5, 396480, Note_on_c, 4, 62, 30
5, 396640, Note_on_c, 4, 62, 0
5, 396864, Note_on_c, 4, 60, 30
5, 397024, Note_on_c, 4, 60, 0
5, 397248, Note_on_c, 4, 58, 30
5, 397408, Note_on_c, 4, 58, 0
5, 397632, Note_on_c, 4, 60, 30
5, 397792, Note_on_c, 4, 60, 0
5, 398016, Note_on_c, 4, 65, 30
5, 398176, Note_on_c, 4, 65, 0
5, 398592, Note_on_c, 4, 48, 30
5, 398752, Note_on_c, 4, 48, 0
5, 398784, Note_on_c, 4, 36, 30
5, 398944, Note_on_c, 4, 36, 0
5, 399360, Note_on_c, 4, 48, 30
5, 399520, Note_on_c, 4, 48, 0
5, 399552, Note_on_c, 4, 36, 30
5, 399712, Note_on_c, 4, 36, 0
5, 400128, Note_on_c, 4, 48, 30
5, 400288, Note_on_c, 4, 48, 0
5, 400320, Note_on_c, 4, 36, 30
5, 400480, Note_on_c, 4, 36, 0
5, 400896, Note_on_c, 4, 48, 30
5, 401056, Note_on_c, 4, 48, 0
5, 401088, Note_on_c, 4, 36, 30
5, 401248, Note_on_c, 4, 36, 0
5, 401664, Note_on_c, 4, 48, 30
5, 401824, Note_on_c, 4, 48, 0
5, 401856, Note_on_c, 4, 36, 30
5, 402016, Note_on_c, 4, 36, 0
5, 402048, Note_on_c, 4, 48, 30
5, 402208, Note_on_c, 4, 48, 0
5, 402240, Note_on_c, 4, 36, 30
5, 402400, Note_on_c, 4, 36, 0
5, 402432, Note_on_c, 4, 48, 30
5, 402592, Note_on_c, 4, 48, 0
5, 402624, Note_on_c, 4, 36, 30
5, 402784, Note_on_c, 4, 36, 0
5, 402816, Note_on_c, 4, 48, 30
5, 402976, Note_on_c, 4, 48, 0
5, 403008, Note_on_c, 4, 36, 30
5, 403168, Note_on_c, 4, 36, 0
5, 403200, Note_on_c, 4, 48, 30
5, 403360, Note_on_c, 4, 48, 0
5, 403392, Note_on_c, 4, 36, 30
5, 403552, Note_on_c, 4, 36, 0
5, 403584, Note_on_c, 4, 48, 30
5, 403744, Note_on_c, 4, 48, 0
5, 403776, Note_on_c, 4, 36, 30
5, 403936, Note_on_c, 4, 36, 0
5, 403968, Note_on_c, 4, 48, 30
5, 404128, Note_on_c, 4, 48, 0
5, 404160, Note_on_c, 4, 36, 30
5, 404320, Note_on_c, 4, 36, 0
5, 404352, Note_on_c, 4, 48, 30
5, 404512, Note_on_c, 4, 48, 0
5, 404544, Note_on_c, 4, 36, 30
5, 404704, Note_on_c, 4, 36, 0
5, 404736, Note_on_c, 4, 45, 108
5, 404896, Note_on_c, 4, 45, 0
5, 404928, Note_on_c, 4, 48, 108
5, 405264, Note_on_c, 4, 48, 0
5, 405312, Note_on_c, 4, 43, 108
5, 405472, Note_on_c, 4, 43, 0
5, 405504, Note_on_c, 4, 43, 108
5, 405664, Note_on_c, 4, 43, 0
5, 405696, Note_on_c, 4, 45, 108
5, 406032, Note_on_c, 4, 45, 0
5, 406080, Note_on_c, 4, 41, 108
5, 406240, Note_on_c, 4, 41, 0
5, 406272, Note_on_c, 4, 45, 108
5, 406432, Note_on_c, 4, 45, 0
5, 406464, Note_on_c, 4, 48, 108
5, 406560, Note_on_c, 4, 48, 0
5, 406848, Note_on_c, 4, 36, 108
5, 406944, Note_on_c, 4, 36, 0
5, 407232, Note_on_c, 4, 41, 108
5, 407392, Note_on_c, 4, 41, 0
5, 407392, End_track
0, 0, End_of_file