0, 0, Header, 1, 6, 480
1, 0, Start_track
1, 0, Title_t, "Untitled"
1, 0, Time_signature, 3, 2, 24, 8
1, 0, Key_signature, 0, "major"
1, 0, Tempo, 895522
1, 0, Marker_t, "Beethoven"
1, 960, Tempo, 923076
1, 1440, Tempo, 895522
1, 1440, Marker_t, "6 Bagatells"
1, 2760, Tempo, 923076
1, 2880, Tempo, 895522
1, 2880, Marker_t, "Bunji Hisamori"
1, 4200, Tempo, 923076
1, 4320, Tempo, 895522
1, 4320, Marker_t, "Nov. 1998"
1, 5160, Tempo, 923076
1, 5280, Tempo, 895522
1, 5535, Tempo, 923076
1, 5760, Tempo, 895522
1, 5760, Marker_t, "July 1999,  Rev.1"
1, 6960, Tempo, 923076
1, 7320, Tempo, 895522
1, 8520, Tempo, 923076
1, 8640, Tempo, 895522
1, 9960, Tempo, 923076
1, 10080, Tempo, 895522
1, 10920, Tempo, 923076
1, 11040, Tempo, 895522
1, 11280, Tempo, 1000000
1, 11520, Tempo, 952380
1, 12000, Tempo, 1176470
1, 12420, Tempo, 2400000
1, 12480, Tempo, 923076
1, 12960, Tempo, 895522
1, 14280, Tempo, 923076
1, 14340, Tempo, 952380
1, 14400, Tempo, 895522
1, 15720, Tempo, 923076
1, 15780, Tempo, 952380
1, 15840, Tempo, 895522
1, 16680, Tempo, 923076
1, 16800, Tempo, 895522
1, 17040, Tempo, 923076
1, 17280, Tempo, 895522
1, 18495, Tempo, 923076
1, 18825, Tempo, 895522
1, 20040, Tempo, 923076
1, 20160, Tempo, 895522
1, 21480, Tempo, 923076
1, 21600, Tempo, 895522
1, 22440, Tempo, 923076
1, 22560, Tempo, 895522
1, 22800, Tempo, 1000000
1, 23040, Tempo, 952380
1, 23505, Tempo, 1176470
1, 23880, Tempo, 1132075
1, 23940, Tempo, 1276595
1, 24045, Tempo, 923076
1, 24480, Tempo, 895522
1, 25800, Tempo, 923076
1, 25920, Tempo, 895522
1, 27240, Tempo, 923076
1, 27360, Tempo, 895522
1, 28440, Tempo, 952380
1, 28800, Tempo, 923076
1, 29940, Tempo, 952380
1, 30000, Tempo, 1000000
1, 30240, Time_signature, 2, 2, 24, 8
1, 30240, Tempo, 895522
1, 31080, Tempo, 923076
1, 31200, Tempo, 895522
1, 32040, Tempo, 923076
1, 32160, Tempo, 895522
1, 33000, Tempo, 923076
1, 33120, Tempo, 895522
1, 33960, Tempo, 923076
1, 34080, Tempo, 895522
1, 34920, Tempo, 923076
1, 35040, Tempo, 895522
1, 35880, Tempo, 952380
1, 36000, Tempo, 895522
1, 36840, Tempo, 952380
1, 36960, Tempo, 895522
1, 37320, Tempo, 923076
1, 37740, Tempo, 952380
1, 37800, Tempo, 967741
1, 38000, Tempo, 923076
1, 38070, Tempo, 895522
1, 38340, Tempo, 923076
1, 38460, Tempo, 895522
1, 38820, Tempo, 923076
1, 38940, Tempo, 895522
1, 40720, Tempo, 923076
1, 40770, Tempo, 952380
1, 40800, Tempo, 923076
1, 40980, Tempo, 895522
1, 43320, Tempo, 923076
1, 43380, Tempo, 1000000
1, 43440, Tempo, 1818181
1, 43620, Tempo, 1935483
1, 43680, Time_signature, 3, 2, 24, 8
1, 43680, Tempo, 869565
1, 43920, Tempo, 967741
1, 44160, Tempo, 1071428
1, 44640, Tempo, 895522
1, 45000, Tempo, 923076
1, 45120, Tempo, 895522
1, 45540, Tempo, 923076
1, 45840, Tempo, 1132075
1, 46080, Tempo, 895522
1, 46440, Tempo, 923076
1, 46560, Tempo, 895522
1, 47400, Tempo, 923076
1, 47520, Tempo, 895522
1, 47880, Tempo, 923076
1, 48000, Tempo, 895522
1, 48840, Tempo, 923076
1, 48960, Tempo, 895522
1, 49320, Tempo, 923076
1, 49440, Tempo, 895522
1, 50160, Tempo, 923076
1, 50400, Tempo, 895522
1, 50760, Tempo, 923076
1, 50880, Tempo, 895522
1, 52200, Tempo, 923076
1, 52320, Tempo, 895522
1, 53640, Tempo, 923076
1, 53760, Tempo, 895522
1, 55080, Tempo, 923076
1, 55540, Tempo, 952380
1, 55680, Tempo, 2727272
1, 55910, Tempo, 895522
1, 56520, Tempo, 923076
1, 56640, Tempo, 895522
1, 57840, Tempo, 923076
1, 58080, Tempo, 895522
1, 59400, Tempo, 923076
1, 59520, Tempo, 895522
1, 60840, Tempo, 923076
1, 61550, Tempo, 952380
1, 61690, Tempo, 895522
1, 62280, Tempo, 923076
1, 62400, Tempo, 895522
1, 63720, Tempo, 923076
1, 63840, Tempo, 895522
1, 65160, Tempo, 923076
1, 65280, Tempo, 895522
1, 66490, Tempo, 967741
1, 66720, Tempo, 967741
1, 66960, Tempo, 1176470
1, 67200, Tempo, 2400000
1, 68160, Tempo, 500000
1, 69600, Time_signature, 2, 2, 24, 8
1, 69600, Marker_t, "2"
1, 70200, Tempo, 500000
1, 70560, Tempo, 500000
1, 73920, Tempo, 535714
1, 74160, Tempo, 508474
1, 76190, Tempo, 517241
1, 76320, Tempo, 517241
1, 76836, Tempo, 521739
1, 77050, Tempo, 526315
1, 77280, Tempo, 560747
1, 77520, Tempo, 571428
1, 77770, Tempo, 1071428
1, 77880, Tempo, 500000
1, 81600, Tempo, 535714
1, 81840, Tempo, 508474
1, 83870, Tempo, 517241
1, 84000, Tempo, 517241
1, 84516, Tempo, 521739
1, 84830, Tempo, 526315
1, 84960, Tempo, 560747
1, 85200, Tempo, 571428
1, 85450, Tempo, 1071428
1, 85560, Tempo, 500000
1, 86880, Tempo, 508474
1, 87840, Tempo, 500000
1, 91560, Tempo, 508474
1, 91680, Tempo, 500000
1, 93240, Tempo, 508474
1, 94560, Tempo, 526315
1, 95040, Tempo, 500000
1, 98880, Tempo, 535714
1, 99120, Tempo, 508474
1, 101160, Tempo, 517241
1, 101280, Tempo, 517241
1, 101796, Tempo, 521739
1, 102070, Tempo, 526315
1, 102240, Tempo, 560747
1, 102480, Tempo, 571428
1, 102730, Tempo, 1071428
1, 102840, Tempo, 500000
1, 106560, Tempo, 535714
1, 106800, Tempo, 508474
1, 108840, Tempo, 517241
1, 108960, Tempo, 517241
1, 109476, Tempo, 521739
1, 109810, Tempo, 526315
1, 109920, Tempo, 560747
1, 110160, Tempo, 571428
1, 110410, Tempo, 1071428
1, 110520, Tempo, 500000
1, 111840, Tempo, 508474
1, 112800, Tempo, 500000
1, 116520, Tempo, 508474
1, 116640, Tempo, 500000
1, 118192, Tempo, 508474
1, 120360, Tempo, 517241
1, 120480, Tempo, 508474
1, 121320, Tempo, 535714
1, 121440, Tempo, 500000
1, 123300, Tempo, 508474
1, 123360, Tempo, 500000
1, 125160, Tempo, 508474
1, 125280, Tempo, 500000
1, 127140, Tempo, 508474
1, 127200, Tempo, 500000
1, 129000, Tempo, 508474
1, 129120, Tempo, 500000
1, 130920, Tempo, 508474
1, 131040, Tempo, 500000
1, 132900, Tempo, 508474
1, 132960, Tempo, 500000
1, 133920, Tempo, 508474
1, 134150, Tempo, 517241
1, 134400, Tempo, 612244
1, 135360, Tempo, 500000
1, 143460, Tempo, 508474
1, 143520, Tempo, 500000
1, 144420, Tempo, 508474
1, 144480, Tempo, 500000
1, 145380, Tempo, 508474
1, 145440, Tempo, 500000
1, 146280, Tempo, 508474
1, 146400, Tempo, 500000
1, 150000, Tempo, 508474
1, 150120, Tempo, 560747
1, 150240, Tempo, 500000
1, 152040, Tempo, 508474
1, 152160, Tempo, 500000
1, 153960, Tempo, 508474
1, 154080, Tempo, 500000
1, 155880, Tempo, 508474
1, 156000, Tempo, 500000
1, 157800, Tempo, 508474
1, 157920, Tempo, 500000
1, 159780, Tempo, 508474
1, 159840, Tempo, 500000
1, 161640, Tempo, 508474
1, 161760, Tempo, 500000
1, 163620, Tempo, 508474
1, 163680, Tempo, 500000
1, 165480, Tempo, 508474
1, 165600, Tempo, 500000
1, 167460, Tempo, 508474
1, 167520, Tempo, 500000
1, 169260, Tempo, 508474
1, 169320, Tempo, 582524
1, 169440, Tempo, 500000
1, 171360, Tempo, 508474
1, 171420, Tempo, 500000
1, 172320, Tempo, 508474
1, 173280, Tempo, 500000
1, 175200, Tempo, 508474
1, 175260, Tempo, 500000
1, 177000, Tempo, 508474
1, 177190, Tempo, 500000
1, 178920, Tempo, 508474
1, 179110, Tempo, 500000
1, 179760, Tempo, 517241
1, 179880, Tempo, 550458
1, 180000, Tempo, 560747
1, 180960, Tempo, 2727272
1, 181920, Time_signature, 3, 3, 24, 8
1, 181920, Tempo, 1363636
1, 181920, Marker_t, "3"
1, 182032, Tempo, 1333333
1, 182580, Tempo, 1363636
1, 182640, Tempo, 1333333
1, 183247, Tempo, 1363636
1, 183360, Tempo, 1333333
1, 184020, Tempo, 1363636
1, 184687, Tempo, 1428571
1, 184800, Tempo, 1333333
1, 185400, Tempo, 1363636
1, 185520, Tempo, 1333333
1, 186120, Tempo, 1363636
1, 186240, Tempo, 1333333
1, 186832, Tempo, 1363636
1, 187207, Tempo, 1500000
1, 187440, Tempo, 1333333
1, 187567, Tempo, 1363636
1, 187680, Tempo, 1333333
1, 188340, Tempo, 1363636
1, 188400, Tempo, 1333333
1, 189000, Tempo, 1363636
1, 189120, Tempo, 1333333
1, 189780, Tempo, 1363636
1, 190200, Tempo, 1428571
1, 190320, Tempo, 1333333
1, 190440, Tempo, 1363636
1, 190560, Tempo, 1333333
1, 191220, Tempo, 1363636
1, 191280, Tempo, 1333333
1, 191895, Tempo, 1363636
1, 192000, Tempo, 1333333
1, 192660, Tempo, 1363636
1, 192967, Tempo, 1500000
1, 193200, Tempo, 1333333
1, 193312, Tempo, 1363636
1, 193494, Tempo, 1333333
1, 194100, Tempo, 1363636
1, 194160, Tempo, 1333333
1, 194760, Tempo, 1363636
1, 194928, Tempo, 1333333
1, 195540, Tempo, 1363636
1, 195600, Tempo, 1333333
1, 196207, Tempo, 1363636
1, 196320, Tempo, 1333333
1, 196980, Tempo, 1363636
1, 197040, Tempo, 1333333
1, 197632, Tempo, 1363636
1, 197760, Tempo, 1333333
1, 198142, Tempo, 1363636
1, 198232, Tempo, 1666666
1, 198480, Tempo, 1428571
1, 198540, Tempo, 1363636
1, 198600, Tempo, 1333333
1, 199720, Tempo, 1363636
1, 199920, Tempo, 1363636
1, 200640, Tempo, 1428571
1, 200700, Tempo, 1363636
1, 200760, Tempo, 1333333
1, 201720, Tempo, 1363636
1, 201800, Tempo, 1428571
1, 202080, Tempo, 1428571
1, 202605, Tempo, 1333333
1, 202680, Tempo, 1500000
1, 202800, Tempo, 1333333
1, 203220, Tempo, 1363636
1, 203340, Tempo, 1428571
1, 203400, Tempo, 1666666
1, 203520, Tempo, 1363636
1, 203580, Tempo, 1333333
1, 204200, Tempo, 1428571
1, 204260, Tempo, 1333333
1, 204920, Tempo, 1428571
1, 204960, Tempo, 1333333
1, 205640, Tempo, 1428571
1, 205700, Tempo, 1333333
1, 206287, Tempo, 1428571
1, 206400, Tempo, 1333333
1, 207060, Tempo, 1363636
1, 207120, Tempo, 1333333
1, 207720, Tempo, 1363636
1, 207840, Tempo, 1333333
1, 208440, Tempo, 1363636
1, 208500, Tempo, 1428571
1, 208560, Tempo, 1333333
1, 209220, Tempo, 1500000
1, 209280, Tempo, 1333333
1, 209940, Tempo, 1363636
1, 210000, Tempo, 1333333
1, 210660, Tempo, 1363636
1, 210720, Tempo, 1333333
1, 211380, Tempo, 1363636
1, 211440, Tempo, 1333333
1, 212055, Tempo, 1363636
1, 212100, Tempo, 1500000
1, 212160, Tempo, 1333333
1, 212820, Tempo, 1428571
1, 212880, Tempo, 1333333
1, 213540, Tempo, 1363636
1, 213600, Tempo, 1333333
1, 214260, Tempo, 1363636
1, 214320, Tempo, 1333333
1, 214560, Tempo, 1363636
1, 214620, Tempo, 1333333
1, 214912, Tempo, 1363636
1, 214980, Tempo, 1500000
1, 215040, Tempo, 1333333
1, 215700, Tempo, 1363636
1, 215826, Tempo, 1333333
1, 216000, Tempo, 1363636
1, 216060, Tempo, 1333333
1, 216420, Tempo, 1428571
1, 216546, Tempo, 1333333
1, 217122, Tempo, 1363636
1, 217740, Tempo, 1395348
1, 217800, Tempo, 1500000
1, 217920, Tempo, 1578947
1, 218148, Tempo, 1428571
1, 218586, Tempo, 1463414
1, 218900, Tempo, 1500000
1, 219100, Tempo, 1538461
1, 219280, Tempo, 1578947
1, 219448, Tempo, 1621621
1, 219604, Tempo, 1666666
1, 219748, Tempo, 1714285
1, 219884, Tempo, 1764705
1, 220016, Tempo, 1818181
1, 220140, Tempo, 1875000
1, 220260, Tempo, 1935483
1, 220376, Tempo, 2000000
1, 220488, Tempo, 2068965
1, 220552, Tempo, 2727272
1, 222240, Time_signature, 4, 2, 24, 8
1, 222240, Tempo, 240000
1, 222240, Marker_t, "4"
1, 223680, Tempo, 240000
1, 224040, Tempo, 241935
1, 224160, Tempo, 240000
1, 227880, Tempo, 241935
1, 228000, Tempo, 240000
1, 238560, Tempo, 251046
1, 239025, Tempo, 240000
1, 239040, Tempo, 240000
1, 239400, Tempo, 241935
1, 239520, Tempo, 240000
1, 243240, Tempo, 241935
1, 243360, Tempo, 240000
1, 253920, Tempo, 251046
1, 254385, Tempo, 240000
1, 254760, Tempo, 241935
1, 254880, Tempo, 240000
1, 258600, Tempo, 241935
1, 258720, Tempo, 240000
1, 262440, Tempo, 241935
1, 262560, Tempo, 240000
1, 266360, Tempo, 241935
1, 266400, Tempo, 240000
1, 269670, Tempo, 241935
1, 270240, Tempo, 240000
1, 274040, Tempo, 241935
1, 274080, Tempo, 240000
1, 276975, Tempo, 244897
1, 277455, Tempo, 241935
1, 277680, Tempo, 244897
1, 277920, Tempo, 600000
1, 279840, Tempo, 240000
1, 281640, Tempo, 241935
1, 281760, Tempo, 240000
1, 285000, Tempo, 241935
1, 285360, Tempo, 244897
1, 285600, Tempo, 731707
1, 287520, Tempo, 240000
1, 289320, Tempo, 241935
1, 289440, Tempo, 240000
1, 291320, Tempo, 241935
1, 291360, Tempo, 240000
1, 293240, Tempo, 241935
1, 293280, Tempo, 240000
1, 295160, Tempo, 241935
1, 295200, Tempo, 240000
1, 297080, Tempo, 241935
1, 297120, Tempo, 240000
1, 298335, Tempo, 241935
1, 298800, Tempo, 243902
1, 299040, Tempo, 240000
1, 306660, Tempo, 241935
1, 306720, Tempo, 240000
1, 314145, Tempo, 241935
1, 314400, Tempo, 240000
1, 318120, Tempo, 241935
1, 318240, Tempo, 240000
1, 329760, Tempo, 240000
1, 336480, Tempo, 260869
1, 336960, Tempo, 246913
1, 337440, Tempo, 244897
1, 339300, Tempo, 245901
1, 339360, Tempo, 244897
1, 352575, Tempo, 246913
1, 352800, Tempo, 244897
1, 360360, Tempo, 246913
1, 360480, Tempo, 244897
1, 367920, Tempo, 246913
1, 372000, Tempo, 248962
1, 373920, Tempo, 298507
1, 375375, Tempo, 244897
1, 383400, Tempo, 246913
1, 383520, Tempo, 244897
1, 390960, Tempo, 246913
1, 391200, Tempo, 244897
1, 398760, Tempo, 246913
1, 398880, Tempo, 244897
1, 406320, Tempo, 246913
1, 406560, Tempo, 244897
1, 410280, Tempo, 246913
1, 410400, Tempo, 244897
1, 414030, Tempo, 246913
1, 414240, Tempo, 244897
1, 421800, Tempo, 246913
1, 421920, Tempo, 244897
1, 429480, Tempo, 246913
1, 431040, Tempo, 248962
1, 437040, Tempo, 251046
1, 438960, Tempo, 253164
1, 439680, Tempo, 260869
1, 440160, Tempo, 1578947
1, 440640, Tempo, 240000
1, 441000, Tempo, 241935
1, 441120, Tempo, 240000
1, 444840, Tempo, 241935
1, 444960, Tempo, 240000
1, 455520, Tempo, 251046
1, 455985, Tempo, 240000
1, 456000, Tempo, 240000
1, 456360, Tempo, 241935
1, 456480, Tempo, 240000
1, 460200, Tempo, 241935
1, 460320, Tempo, 240000
1, 470880, Tempo, 251046
1, 471345, Tempo, 240000
1, 471720, Tempo, 241935
1, 471840, Tempo, 240000
1, 475560, Tempo, 241935
1, 475680, Tempo, 240000
1, 479400, Tempo, 241935
1, 479520, Tempo, 240000
1, 483320, Tempo, 241935
1, 483360, Tempo, 240000
1, 486630, Tempo, 241935
1, 487200, Tempo, 240000
1, 491000, Tempo, 241935
1, 491040, Tempo, 240000
1, 493935, Tempo, 244897
1, 494415, Tempo, 244897
1, 494880, Tempo, 600000
1, 496800, Tempo, 240000
1, 498600, Tempo, 241935
1, 498720, Tempo, 240000
1, 501945, Tempo, 241935
1, 502320, Tempo, 244897
1, 502560, Tempo, 731707
1, 504480, Tempo, 240000
1, 506280, Tempo, 241935
1, 506400, Tempo, 240000
1, 508280, Tempo, 241935
1, 508320, Tempo, 240000
1, 510200, Tempo, 241935
1, 510240, Tempo, 240000
1, 512120, Tempo, 241935
1, 512160, Tempo, 240000
1, 514040, Tempo, 241935
1, 514080, Tempo, 240000
1, 515415, Tempo, 241935
1, 515760, Tempo, 243902
1, 516000, Tempo, 240000
1, 523620, Tempo, 241935
1, 523680, Tempo, 240000
1, 531105, Tempo, 241935
1, 531360, Tempo, 240000
1, 535080, Tempo, 241935
1, 535200, Tempo, 240000
1, 553440, Tempo, 241935
1, 553920, Tempo, 240000
1, 562080, Tempo, 659340
1, 563520, Tempo, 244897
1, 571560, Tempo, 246913
1, 571680, Tempo, 244897
1, 579135, Tempo, 246913
1, 579360, Tempo, 244897
1, 586920, Tempo, 246913
1, 587040, Tempo, 244897
1, 594480, Tempo, 246913
1, 599520, Tempo, 246913
1, 600480, Tempo, 283018
1, 601935, Tempo, 244897
1, 609960, Tempo, 246913
1, 610080, Tempo, 244897
1, 617520, Tempo, 246913
1, 617760, Tempo, 244897
1, 625320, Tempo, 246913
1, 625440, Tempo, 244897
1, 632880, Tempo, 246913
1, 633120, Tempo, 244897
1, 636840, Tempo, 246913
1, 636960, Tempo, 244897
1, 640590, Tempo, 246913
1, 640800, Tempo, 244897
1, 648360, Tempo, 246913
1, 648480, Tempo, 244897
1, 656040, Tempo, 246913
1, 657840, Tempo, 248962
1, 663600, Tempo, 251046
1, 665280, Tempo, 253164
1, 666240, Tempo, 306122
1, 667680, Tempo, 600000
1, 673440, Time_signature, 6, 3, 24, 8
1, 673440, Tempo, 600000
1, 673440, Marker_t, "5"
1, 674760, Tempo, 612244
1, 674880, Tempo, 600000
1, 676200, Tempo, 612244
1, 676320, Tempo, 600000
1, 677640, Tempo, 612244
1, 677760, Tempo, 600000
1, 678950, Tempo, 638297
1, 679200, Tempo, 594059
1, 680390, Tempo, 606060
1, 680640, Tempo, 594059
1, 681825, Tempo, 612244
1, 682080, Tempo, 600000
1, 683400, Tempo, 612244
1, 683520, Tempo, 600000
1, 684180, Tempo, 606060
1, 684480, Tempo, 638297
1, 684720, Tempo, 731707
1, 684960, Tempo, 600000
1, 686280, Tempo, 612244
1, 686400, Tempo, 600000
1, 687720, Tempo, 612244
1, 687840, Tempo, 600000
1, 689160, Tempo, 612244
1, 689280, Tempo, 600000
1, 690600, Tempo, 612244
1, 690720, Tempo, 600000
1, 692040, Tempo, 612244
1, 692160, Tempo, 600000
1, 693480, Tempo, 612244
1, 693600, Tempo, 600000
1, 694920, Tempo, 612244
1, 695530, Tempo, 638297
1, 695760, Tempo, 625000
1, 696000, Tempo, 659340
1, 696240, Tempo, 612244
1, 696480, Tempo, 600000
1, 697800, Tempo, 612244
1, 697920, Tempo, 600000
1, 699240, Tempo, 612244
1, 699360, Tempo, 600000
1, 700680, Tempo, 612244
1, 700800, Tempo, 600000
1, 701990, Tempo, 638297
1, 702240, Tempo, 594059
1, 703430, Tempo, 606060
1, 703680, Tempo, 594059
1, 704865, Tempo, 612244
1, 705120, Tempo, 600000
1, 706440, Tempo, 612244
1, 706560, Tempo, 600000
1, 707220, Tempo, 606060
1, 707520, Tempo, 638297
1, 707760, Tempo, 722891
1, 708000, Tempo, 600000
1, 709320, Tempo, 612244
1, 709440, Tempo, 600000
1, 710220, Tempo, 600000
1, 710760, Tempo, 612244
1, 710880, Tempo, 600000
1, 712200, Tempo, 612244
1, 712320, Tempo, 600000
1, 713640, Tempo, 612244
1, 713760, Tempo, 600000
1, 715080, Tempo, 612244
1, 715200, Tempo, 600000
1, 716520, Tempo, 612244
1, 716640, Tempo, 600000
1, 717960, Tempo, 612244
1, 718570, Tempo, 638297
1, 718800, Tempo, 625000
1, 719040, Tempo, 705882
1, 719280, Tempo, 588235
1, 719520, Tempo, 582524
1, 722360, Tempo, 588235
1, 722400, Tempo, 582524
1, 725055, Tempo, 612244
1, 725280, Tempo, 582524
1, 728120, Tempo, 588235
1, 728160, Tempo, 582524
1, 730935, Tempo, 588235
1, 731040, Tempo, 582524
1, 733880, Tempo, 588235
1, 733920, Tempo, 582524
1, 736580, Tempo, 600000
1, 736800, Tempo, 582524
1, 739640, Tempo, 588235
1, 739680, Tempo, 582524
1, 741060, Tempo, 588235
1, 742095, Tempo, 600000
1, 742310, Tempo, 845070
1, 742560, Tempo, 582524
1, 745400, Tempo, 588235
1, 745440, Tempo, 582524
1, 748080, Tempo, 612244
1, 748320, Tempo, 582524
1, 751160, Tempo, 588235
1, 751200, Tempo, 582524
1, 754040, Tempo, 588235
1, 754080, Tempo, 582524
1, 755400, Tempo, 588235
1, 755520, Tempo, 582524
1, 756920, Tempo, 588235
1, 756960, Tempo, 582524
1, 759620, Tempo, 600000
1, 759840, Tempo, 582524
1, 762680, Tempo, 588235
1, 762720, Tempo, 582524
1, 764040, Tempo, 588235
1, 764940, Tempo, 606060
1, 765240, Tempo, 612244
1, 765350, Tempo, 1428571
1, 765600, Tempo, 600000
1, 766935, Tempo, 612244
1, 767040, Tempo, 600000
1, 768000, Tempo, 612244
1, 768255, Tempo, 789473
1, 768480, Tempo, 600000
1, 769800, Tempo, 612244
1, 769920, Tempo, 600000
1, 771120, Tempo, 612244
1, 771360, Tempo, 600000
1, 772680, Tempo, 612244
1, 772800, Tempo, 600000
1, 773970, Tempo, 638297
1, 774240, Tempo, 594059
1, 775430, Tempo, 606060
1, 775680, Tempo, 594059
1, 776895, Tempo, 612244
1, 777120, Tempo, 600000
1, 777720, Tempo, 606060
1, 778300, Tempo, 638297
1, 778560, Tempo, 652173
1, 778860, Tempo, 659340
1, 779040, Tempo, 810810
1, 779280, Tempo, 1132075
1, 780000, Tempo, 1071428
1, 781440, Time_signature, 4, 2, 24, 8
1, 781440, Tempo, 240000
1, 781440, Marker_t, "6"
1, 790575, Tempo, 254237
1, 791040, Tempo, 500000
1, 792960, Tempo, 260869
1, 794880, Time_signature, 3, 3, 24, 8
1, 794880, Tempo, 1176470
1, 794880, Marker_t, "6'"
1, 795540, Tempo, 1224489
1, 795600, Tempo, 1176470
1, 796155, Tempo, 1224489
1, 796320, Tempo, 1176470
1, 796807, Tempo, 1224489
1, 797040, Tempo, 1176470
1, 797700, Tempo, 1224489
1, 797760, Tempo, 1176470
1, 798315, Tempo, 1224489
1, 798480, Tempo, 1176470
1, 799087, Tempo, 1428571
1, 799200, Tempo, 1176470
1, 799860, Tempo, 1224489
1, 799920, Tempo, 1176470
1, 800520, Tempo, 1224489
1, 800640, Tempo, 1176470
1, 801247, Tempo, 1224489
1, 801360, Tempo, 1176470
1, 802020, Tempo, 1224489
1, 802080, Tempo, 1176470
1, 802687, Tempo, 1224489
1, 802800, Tempo, 1176470
1, 803400, Tempo, 1224489
1, 803520, Tempo, 1176470
1, 804180, Tempo, 1224489
1, 804240, Tempo, 1176470
1, 804832, Tempo, 1224489
1, 804960, Tempo, 1176470
1, 805447, Tempo, 1578947
1, 805680, Tempo, 1176470
1, 806340, Tempo, 1224489
1, 806400, Tempo, 1176470
1, 806962, Tempo, 1224489
1, 807120, Tempo, 1176470
1, 807615, Tempo, 1224489
1, 807840, Tempo, 1176470
1, 808500, Tempo, 1224489
1, 808560, Tempo, 1176470
1, 809122, Tempo, 1224489
1, 809280, Tempo, 1176470
1, 809880, Tempo, 1428571
1, 810000, Tempo, 1176470
1, 810660, Tempo, 1224489
1, 810720, Tempo, 1176470
1, 811335, Tempo, 1224489
1, 811440, Tempo, 1176470
1, 812040, Tempo, 1224489
1, 812160, Tempo, 1176470
1, 812820, Tempo, 1224489
1, 812880, Tempo, 1176470
1, 813487, Tempo, 1224489
1, 813600, Tempo, 1176470
1, 814200, Tempo, 1224489
1, 814320, Tempo, 1176470
1, 814980, Tempo, 1224489
1, 815040, Tempo, 1176470
1, 815647, Tempo, 1224489
1, 815760, Tempo, 1176470
1, 816360, Tempo, 1276595
1, 816480, Tempo, 1176470
1, 817140, Tempo, 1224489
1, 817200, Tempo, 1176470
1, 817807, Tempo, 1224489
1, 817920, Tempo, 1176470
1, 818520, Tempo, 1224489
1, 818640, Tempo, 1176470
1, 819300, Tempo, 1224489
1, 819360, Tempo, 1176470
1, 819975, Tempo, 1224489
1, 820080, Tempo, 1176470
1, 820702, Tempo, 1224489
1, 820800, Tempo, 1176470
1, 821400, Tempo, 1224489
1, 821520, Tempo, 1176470
1, 822127, Tempo, 1224489
1, 822240, Tempo, 1176470
1, 822840, Tempo, 1224489
1, 822960, Tempo, 1176470
1, 823567, Tempo, 1224489
1, 823620, Tempo, 1276595
1, 823680, Tempo, 1224489
1, 824257, Tempo, 1276595
1, 824340, Tempo, 1500000
1, 824400, Tempo, 1224489
1, 824460, Tempo, 1176470
1, 825060, Tempo, 1224489
1, 825120, Tempo, 1176470
1, 825727, Tempo, 1224489
1, 825840, Tempo, 1176470
1, 826440, Tempo, 1224489
1, 826560, Tempo, 1176470
1, 827220, Tempo, 1224489
1, 827280, Tempo, 1176470
1, 827902, Tempo, 1224489
1, 828000, Tempo, 1176470
1, 828600, Tempo, 1276595
1, 828720, Tempo, 1176470
1, 829380, Tempo, 1224489
1, 829440, Tempo, 1176470
1, 830100, Tempo, 1224489
1, 830160, Tempo, 1176470
1, 830760, Tempo, 1224489
1, 830880, Tempo, 1176470
1, 831540, Tempo, 1224489
1, 831600, Tempo, 1176470
1, 832260, Tempo, 1224489
1, 832320, Tempo, 1176470
1, 832890, Tempo, 1224489
1, 832980, Tempo, 1578947
1, 833040, Tempo, 1176470
1, 833700, Tempo, 1224489
1, 833760, Tempo, 1176470
1, 834367, Tempo, 1224489
1, 834480, Tempo, 1176470
1, 835080, Tempo, 1224489
1, 835140, Tempo, 1333333
1, 835200, Tempo, 1176470
1, 835860, Tempo, 1224489
1, 835920, Tempo, 1176470
1, 836542, Tempo, 1224489
1, 836640, Tempo, 1176470
1, 837240, Tempo, 1224489
1, 837360, Tempo, 1176470
1, 838020, Tempo, 1224489
1, 838080, Tempo, 1176470
1, 838702, Tempo, 1224489
1, 838800, Tempo, 1176470
1, 839400, Tempo, 1276595
1, 839580, Tempo, 1176470
1, 840202, Tempo, 1224489
1, 840240, Tempo, 1176470
1, 840847, Tempo, 1224489
1, 840960, Tempo, 1176470
1, 841620, Tempo, 1224489
1, 841680, Tempo, 1176470
1, 842340, Tempo, 1224489
1, 842400, Tempo, 1176470
1, 843007, Tempo, 1224489
1, 843060, Tempo, 1276595
1, 843120, Tempo, 1176470
1, 843720, Tempo, 1224489
1, 843780, Tempo, 1276595
1, 843840, Tempo, 1176470
1, 844500, Tempo, 1224489
1, 844560, Tempo, 1176470
1, 845220, Tempo, 1224489
1, 845280, Tempo, 1176470
1, 845880, Tempo, 1224489
1, 845940, Tempo, 1500000
1, 846000, Tempo, 1176470
1, 846660, Tempo, 1224489
1, 846720, Tempo, 1176470
1, 847335, Tempo, 1224489
1, 847440, Tempo, 1176470
1, 848040, Tempo, 1224489
1, 848160, Tempo, 1176470
1, 848820, Tempo, 1224489
1, 848880, Tempo, 1176470
1, 849480, Tempo, 1224489
1, 849786, Tempo, 1276595
1, 850080, Tempo, 1333333
1, 850194, Tempo, 1363636
1, 850260, Tempo, 312500
1, 850320, Tempo, 253164
1, 851040, Time_signature, 4, 2, 24, 8
1, 851040, Tempo, 500000
1, 851094, Tempo, 240000
1, 860175, Tempo, 260869
1, 860640, Tempo, 500000
1, 860640, End_track
2, 0, Start_track
2, 0, Title_t, "Unnamed Track"
2, 0, Control_c, 1, 0, 0
2, 0, Control_c, 1, 32, 0
2, 0, Program_c, 1, 0
2, 0, Control_c, 1, 10, 73
2, 0, Control_c, 1, 91, 100
2, 0, Control_c, 1, 93, 28
2, 0, Control_c, 1, 64, 0
2, 0, Control_c, 1, 1, 0
2, 0, Pitch_bend_c, 1, 8192
2, 0, Control_c, 1, 7, 127
2, 480, Control_c, 1, 64, 0
2, 960, Control_c, 1, 64, 0
2, 960, Note_on_c, 1, 67, 44
2, 1440, Note_off_c, 1, 67, 0
2, 1440, Note_on_c, 1, 66, 45
2, 2400, Note_off_c, 1, 66, 0
2, 2400, Note_on_c, 1, 67, 47
2, 2880, Note_off_c, 1, 67, 0
2, 2880, Note_on_c, 1, 69, 48
2, 3840, Note_off_c, 1, 69, 0
2, 3840, Note_on_c, 1, 71, 51
2, 4320, Note_off_c, 1, 71, 0
2, 4320, Note_on_c, 1, 72, 52
2, 4680, Note_off_c, 1, 72, 0
2, 4680, Note_on_c, 1, 71, 55
2, 4800, Note_off_c, 1, 71, 0
2, 4800, Note_on_c, 1, 69, 55
2, 5040, Note_off_c, 1, 69, 0
2, 5280, Note_on_c, 1, 74, 49
2, 5520, Note_off_c, 1, 74, 0
2, 5760, Note_on_c, 1, 71, 51
2, 6240, Note_off_c, 1, 71, 0
2, 6240, Note_on_c, 1, 79, 52
2, 6480, Note_off_c, 1, 79, 0
2, 6720, Note_on_c, 1, 79, 53
2, 7680, Note_off_c, 1, 79, 0
2, 7680, Note_on_c, 1, 78, 55
2, 7920, Note_off_c, 1, 78, 0
2, 7920, Note_on_c, 1, 81, 56
2, 8160, Note_off_c, 1, 81, 0
2, 8160, Note_on_c, 1, 79, 57
2, 9120, Note_off_c, 1, 79, 0
2, 9120, Note_on_c, 1, 69, 59
2, 9360, Note_off_c, 1, 69, 0
2, 9360, Note_on_c, 1, 72, 60
2, 9600, Note_off_c, 1, 72, 0
2, 9600, Note_on_c, 1, 71, 60
2, 9960, Note_off_c, 1, 71, 0
2, 10320, Note_on_c, 1, 72, 62
2, 10560, Note_off_c, 1, 72, 0
2, 10560, Note_on_c, 1, 76, 67
2, 11280, Note_off_c, 1, 76, 0
2, 11280, Note_on_c, 1, 78, 59
2, 11520, Note_off_c, 1, 78, 0
2, 11520, Note_on_c, 1, 81, 59
2, 12000, Note_off_c, 1, 81, 0
2, 12000, Note_on_c, 1, 79, 47
2, 12427, Note_off_c, 1, 79, 0
2, 12480, Control_c, 1, 64, 0
2, 12480, Note_on_c, 1, 67, 44
2, 12960, Note_off_c, 1, 67, 0
2, 12960, Note_on_c, 1, 66, 45
2, 13920, Note_off_c, 1, 66, 0
2, 14400, Note_on_c, 1, 69, 49
2, 15360, Note_off_c, 1, 69, 0
2, 15840, Note_on_c, 1, 72, 52
2, 16200, Note_off_c, 1, 72, 0
2, 16200, Note_on_c, 1, 71, 53
2, 16320, Note_off_c, 1, 71, 0
2, 16320, Note_on_c, 1, 69, 54
2, 16560, Note_off_c, 1, 69, 0
2, 16800, Note_on_c, 1, 74, 49
2, 17040, Note_off_c, 1, 74, 0
2, 17280, Note_on_c, 1, 71, 48
2, 17760, Note_off_c, 1, 71, 0
2, 17760, Note_on_c, 1, 79, 50
2, 18000, Note_off_c, 1, 79, 0
2, 18240, Note_on_c, 1, 81, 50
2, 18480, Note_off_c, 1, 81, 0
2, 18480, Note_on_c, 1, 79, 51
2, 18960, Note_off_c, 1, 79, 0
2, 18960, Note_on_c, 1, 78, 54
2, 19200, Note_off_c, 1, 78, 0
2, 19200, Note_on_c, 1, 84, 55
2, 19440, Note_off_c, 1, 84, 0
2, 19440, Note_on_c, 1, 78, 56
2, 19680, Note_off_c, 1, 78, 0
2, 19680, Note_on_c, 1, 81, 57
2, 19920, Note_off_c, 1, 81, 0
2, 19920, Note_on_c, 1, 79, 58
2, 20112, Note_off_c, 1, 79, 0
2, 20160, Note_on_c, 1, 71, 59
2, 20400, Note_off_c, 1, 71, 0
2, 20400, Note_on_c, 1, 69, 61
2, 20640, Note_off_c, 1, 69, 0
2, 20640, Note_on_c, 1, 79, 62
2, 20880, Note_off_c, 1, 79, 0
2, 20880, Note_on_c, 1, 69, 63
2, 21120, Note_off_c, 1, 69, 0
2, 21120, Note_on_c, 1, 72, 64
2, 21360, Note_off_c, 1, 72, 0
2, 21360, Note_on_c, 1, 71, 65
2, 21600, Note_off_c, 1, 71, 0
2, 21600, Note_on_c, 1, 72, 67
2, 21840, Note_off_c, 1, 72, 0
2, 21840, Note_on_c, 1, 74, 68
2, 22080, Note_off_c, 1, 74, 0
2, 22080, Note_on_c, 1, 76, 71
2, 22320, Note_off_c, 1, 76, 0
2, 22320, Note_on_c, 1, 72, 68
2, 22560, Note_off_c, 1, 72, 0
2, 22560, Note_on_c, 1, 76, 65
2, 22800, Note_off_c, 1, 76, 0
2, 22800, Note_on_c, 1, 78, 61
2, 23040, Note_off_c, 1, 78, 0
2, 23040, Note_on_c, 1, 81, 58
2, 23520, Note_off_c, 1, 81, 0
2, 23520, Note_on_c, 1, 79, 44
2, 23940, Note_off_c, 1, 79, 0
2, 24000, Control_c, 1, 64, 0
2, 24000, Note_on_c, 1, 71, 48
2, 24480, Note_off_c, 1, 71, 0
2, 24480, Note_on_c, 1, 69, 50
2, 25200, Note_off_c, 1, 69, 0
2, 25200, Note_on_c, 1, 71, 52
2, 25440, Note_off_c, 1, 71, 0
2, 25440, Note_on_c, 1, 73, 53
2, 25680, Note_off_c, 1, 73, 0
2, 25680, Note_on_c, 1, 74, 54
2, 25920, Note_off_c, 1, 74, 0
2, 25920, Note_on_c, 1, 74, 57
2, 26880, Note_off_c, 1, 74, 0
2, 26880, Note_on_c, 1, 73, 53
2, 27120, Note_off_c, 1, 73, 0
2, 27120, Note_on_c, 1, 71, 52
2, 27312, Note_off_c, 1, 71, 0
2, 27360, Note_on_c, 1, 71, 52
2, 27600, Note_off_c, 1, 71, 0
2, 27600, Note_on_c, 1, 69, 51
2, 27840, Note_off_c, 1, 69, 0
2, 27840, Note_on_c, 1, 69, 50
2, 28320, Note_off_c, 1, 69, 0
2, 28320, Note_on_c, 1, 69, 48
2, 28800, Note_off_c, 1, 69, 0
2, 28800, Note_on_c, 1, 69, 46
2, 29520, Note_off_c, 1, 69, 0
2, 29520, Note_on_c, 1, 66, 47
2, 29760, Note_off_c, 1, 66, 0
2, 29760, Note_on_c, 1, 71, 49
2, 30000, Note_off_c, 1, 71, 0
2, 30000, Note_on_c, 1, 69, 42
2, 30192, Note_off_c, 1, 69, 0
2, 30480, Note_on_c, 1, 64, 45
2, 30720, Note_off_c, 1, 64, 0
2, 30720, Note_on_c, 1, 71, 48
2, 30960, Note_off_c, 1, 71, 0
2, 30960, Note_on_c, 1, 69, 45
2, 31200, Note_off_c, 1, 69, 0
2, 31440, Note_on_c, 1, 67, 46
2, 31680, Note_off_c, 1, 67, 0
2, 31680, Note_on_c, 1, 71, 51
2, 31920, Note_off_c, 1, 71, 0
2, 31920, Note_on_c, 1, 69, 48
2, 32160, Note_off_c, 1, 69, 0
2, 32320, Note_on_c, 1, 64, 50
2, 32480, Note_off_c, 1, 64, 0
2, 32480, Note_on_c, 1, 71, 55
2, 32800, Note_off_c, 1, 71, 0
2, 32800, Note_on_c, 1, 68, 52
2, 32960, Note_off_c, 1, 68, 0
2, 32960, Note_on_c, 1, 69, 50
2, 33120, Note_off_c, 1, 69, 0
2, 33280, Note_on_c, 1, 66, 53
2, 33440, Note_off_c, 1, 66, 0
2, 33440, Note_on_c, 1, 71, 59
2, 33760, Note_off_c, 1, 71, 0
2, 33760, Note_on_c, 1, 68, 55
2, 33920, Note_off_c, 1, 68, 0
2, 33920, Note_on_c, 1, 69, 53
2, 34080, Note_off_c, 1, 69, 0
2, 34200, Note_on_c, 1, 64, 55
2, 34320, Note_off_c, 1, 64, 0
2, 34320, Note_on_c, 1, 71, 58
2, 34440, Note_off_c, 1, 71, 0
2, 34440, Note_on_c, 1, 69, 60
2, 34560, Note_off_c, 1, 69, 0
2, 34560, Note_on_c, 1, 67, 64
2, 34680, Note_off_c, 1, 67, 0
2, 34680, Note_on_c, 1, 71, 62
2, 34800, Note_off_c, 1, 71, 0
2, 34800, Note_on_c, 1, 70, 59
2, 34920, Note_off_c, 1, 70, 0
2, 34920, Note_on_c, 1, 69, 58
2, 35040, Note_off_c, 1, 69, 0
2, 35160, Note_on_c, 1, 66, 60
2, 35280, Note_off_c, 1, 66, 0
2, 35280, Note_on_c, 1, 71, 61
2, 35400, Note_off_c, 1, 71, 0
2, 35400, Note_on_c, 1, 69, 61
2, 35640, Note_off_c, 1, 69, 0
2, 35640, Note_on_c, 1, 69, 63
2, 35760, Note_off_c, 1, 69, 0
2, 35760, Note_on_c, 1, 76, 64
2, 35880, Note_off_c, 1, 76, 0
2, 35880, Note_on_c, 1, 74, 65
2, 36120, Note_off_c, 1, 74, 0
2, 36120, Note_on_c, 1, 74, 67
2, 36240, Note_off_c, 1, 74, 0
2, 36240, Note_on_c, 1, 79, 68
2, 36360, Note_off_c, 1, 79, 0
2, 36360, Note_on_c, 1, 78, 69
2, 36600, Note_off_c, 1, 78, 0
2, 36600, Note_on_c, 1, 76, 70
2, 36720, Note_off_c, 1, 76, 0
2, 36720, Note_on_c, 1, 85, 71
2, 36840, Note_off_c, 1, 85, 0
2, 36840, Note_on_c, 1, 83, 72
2, 36960, Note_off_c, 1, 83, 0
2, 36960, Note_on_c, 1, 82, 73
2, 37080, Note_off_c, 1, 82, 0
2, 37080, Note_on_c, 1, 83, 74
2, 37200, Note_off_c, 1, 83, 0
2, 37200, Note_on_c, 1, 71, 75
2, 37320, Note_off_c, 1, 71, 0
2, 37320, Note_on_c, 1, 79, 76
2, 37440, Note_off_c, 1, 79, 0
2, 37440, Note_on_c, 1, 78, 77
2, 37560, Note_off_c, 1, 78, 0
2, 37560, Note_on_c, 1, 76, 77
2, 37680, Note_off_c, 1, 76, 0
2, 37680, Note_on_c, 1, 79, 78
2, 37800, Note_off_c, 1, 79, 0
2, 37800, Note_on_c, 1, 76, 79
2, 37920, Note_off_c, 1, 76, 0
2, 37920, Note_on_c, 1, 74, 78
2, 37980, Note_off_c, 1, 74, 0
2, 37980, Note_on_c, 1, 76, 71
2, 38040, Note_off_c, 1, 76, 0
2, 38040, Note_on_c, 1, 74, 67
2, 38100, Note_off_c, 1, 74, 0
2, 38100, Note_on_c, 1, 76, 65
2, 38160, Note_off_c, 1, 76, 0
2, 38160, Note_on_c, 1, 74, 64
2, 38200, Note_off_c, 1, 74, 0
2, 38200, Note_on_c, 1, 76, 63
2, 38240, Note_off_c, 1, 76, 0
2, 38240, Note_on_c, 1, 74, 62
2, 38280, Note_off_c, 1, 74, 0
2, 38280, Note_on_c, 1, 73, 61
2, 38340, Note_off_c, 1, 73, 0
2, 38340, Note_on_c, 1, 74, 59
2, 38400, Note_off_c, 1, 74, 0
2, 38400, Note_on_c, 1, 73, 57
2, 38460, Note_off_c, 1, 73, 0
2, 38460, Note_on_c, 1, 74, 56
2, 38520, Note_off_c, 1, 74, 0
2, 38520, Note_on_c, 1, 73, 55
2, 38580, Note_off_c, 1, 73, 0
2, 38580, Note_on_c, 1, 74, 54
2, 38640, Note_off_c, 1, 74, 0
2, 38640, Note_on_c, 1, 73, 52
2, 38680, Note_off_c, 1, 73, 0
2, 38680, Note_on_c, 1, 74, 52
2, 38720, Note_off_c, 1, 74, 0
2, 38720, Note_on_c, 1, 73, 51
2, 38760, Note_off_c, 1, 73, 0
2, 38760, Note_on_c, 1, 71, 50
2, 38820, Note_off_c, 1, 71, 0
2, 38820, Note_on_c, 1, 73, 49
2, 38880, Note_off_c, 1, 73, 0
2, 38880, Note_on_c, 1, 72, 46
2, 38940, Note_off_c, 1, 72, 0
2, 38940, Note_on_c, 1, 74, 46
2, 39000, Note_off_c, 1, 74, 0
2, 39000, Note_on_c, 1, 72, 47
2, 39060, Note_off_c, 1, 72, 0
2, 39060, Note_on_c, 1, 74, 47
2, 39120, Note_off_c, 1, 74, 0
2, 39120, Note_on_c, 1, 72, 48
2, 39180, Note_off_c, 1, 72, 0
2, 39180, Note_on_c, 1, 74, 49
2, 39240, Note_off_c, 1, 74, 0
2, 39240, Note_on_c, 1, 72, 49
2, 39300, Note_off_c, 1, 72, 0
2, 39300, Note_on_c, 1, 74, 50
2, 39360, Note_off_c, 1, 74, 0
2, 39360, Note_on_c, 1, 72, 50
2, 39420, Note_off_c, 1, 72, 0
2, 39420, Note_on_c, 1, 74, 51
2, 39480, Note_off_c, 1, 74, 0
2, 39480, Note_on_c, 1, 72, 51
2, 39540, Note_off_c, 1, 72, 0
2, 39540, Note_on_c, 1, 74, 52
2, 39600, Note_off_c, 1, 74, 0
2, 39600, Note_on_c, 1, 72, 53
2, 39660, Note_off_c, 1, 72, 0
2, 39660, Note_on_c, 1, 74, 53
2, 39720, Note_off_c, 1, 74, 0
2, 39720, Note_on_c, 1, 72, 54
2, 39780, Note_off_c, 1, 72, 0
2, 39780, Note_on_c, 1, 74, 54
2, 39840, Note_off_c, 1, 74, 0
2, 39840, Note_on_c, 1, 72, 55
2, 39900, Note_off_c, 1, 72, 0
2, 39900, Note_on_c, 1, 74, 54
2, 39960, Note_off_c, 1, 74, 0
2, 39960, Note_on_c, 1, 72, 52
2, 40020, Note_off_c, 1, 72, 0
2, 40020, Note_on_c, 1, 74, 51
2, 40080, Note_off_c, 1, 74, 0
2, 40080, Note_on_c, 1, 72, 50
2, 40140, Note_off_c, 1, 72, 0
2, 40140, Note_on_c, 1, 74, 49
2, 40200, Note_off_c, 1, 74, 0
2, 40200, Note_on_c, 1, 72, 48
2, 40260, Note_off_c, 1, 72, 0
2, 40260, Note_on_c, 1, 74, 47
2, 40320, Note_off_c, 1, 74, 0
2, 40320, Note_on_c, 1, 72, 45
2, 40380, Note_off_c, 1, 72, 0
2, 40380, Note_on_c, 1, 74, 44
2, 40440, Note_off_c, 1, 74, 0
2, 40440, Note_on_c, 1, 72, 43
2, 40500, Note_off_c, 1, 72, 0
2, 40500, Note_on_c, 1, 74, 42
2, 40560, Note_off_c, 1, 74, 0
2, 40560, Note_on_c, 1, 72, 41
2, 40620, Note_on_c, 1, 74, 40
2, 40625, Note_off_c, 1, 72, 0
2, 40680, Note_on_c, 1, 72, 38
2, 40690, Note_off_c, 1, 74, 0
2, 40740, Note_on_c, 1, 74, 37
2, 40745, Note_off_c, 1, 72, 0
2, 40800, Note_on_c, 1, 72, 36
2, 40805, Note_off_c, 1, 74, 0
2, 40920, Note_off_c, 1, 72, 0
2, 40920, Note_on_c, 1, 71, 36
2, 40980, Note_off_c, 1, 71, 0
2, 40980, Note_on_c, 1, 72, 37
2, 41040, Note_off_c, 1, 72, 0
2, 41040, Note_on_c, 1, 74, 37
2, 41100, Note_off_c, 1, 74, 0
2, 41100, Note_on_c, 1, 72, 38
2, 41160, Note_off_c, 1, 72, 0
2, 41160, Note_on_c, 1, 71, 39
2, 41220, Note_off_c, 1, 71, 0
2, 41220, Note_on_c, 1, 69, 39
2, 41280, Note_off_c, 1, 69, 0
2, 41280, Note_on_c, 1, 71, 40
2, 41340, Note_off_c, 1, 71, 0
2, 41340, Note_on_c, 1, 72, 41
2, 41400, Note_off_c, 1, 72, 0
2, 41400, Note_on_c, 1, 74, 41
2, 41460, Note_off_c, 1, 74, 0
2, 41460, Note_on_c, 1, 76, 42
2, 41520, Note_off_c, 1, 76, 0
2, 41520, Note_on_c, 1, 78, 43
2, 41580, Note_off_c, 1, 78, 0
2, 41580, Note_on_c, 1, 76, 43
2, 41640, Note_off_c, 1, 76, 0
2, 41640, Note_on_c, 1, 74, 44
2, 41700, Note_off_c, 1, 74, 0
2, 41700, Note_on_c, 1, 76, 44
2, 41760, Note_off_c, 1, 76, 0
2, 41760, Note_on_c, 1, 78, 45
2, 41820, Note_off_c, 1, 78, 0
2, 41820, Note_on_c, 1, 79, 46
2, 41880, Note_off_c, 1, 79, 0
2, 41880, Note_on_c, 1, 81, 46
2, 41940, Note_off_c, 1, 81, 0
2, 41940, Note_on_c, 1, 79, 47
2, 42000, Note_off_c, 1, 79, 0
2, 42000, Note_on_c, 1, 78, 48
2, 42060, Note_off_c, 1, 78, 0
2, 42060, Note_on_c, 1, 79, 48
2, 42120, Note_off_c, 1, 79, 0
2, 42120, Note_on_c, 1, 81, 49
2, 42180, Note_off_c, 1, 81, 0
2, 42180, Note_on_c, 1, 83, 49
2, 42240, Note_off_c, 1, 83, 0
2, 42240, Note_on_c, 1, 84, 50
2, 42300, Note_off_c, 1, 84, 0
2, 42300, Note_on_c, 1, 83, 51
2, 42360, Note_off_c, 1, 83, 0
2, 42360, Note_on_c, 1, 81, 51
2, 42420, Note_off_c, 1, 81, 0
2, 42420, Note_on_c, 1, 83, 52
2, 42480, Note_off_c, 1, 83, 0
2, 42480, Note_on_c, 1, 84, 53
2, 42540, Note_off_c, 1, 84, 0
2, 42540, Note_on_c, 1, 86, 53
2, 42600, Note_off_c, 1, 86, 0
2, 42600, Note_on_c, 1, 88, 54
2, 42660, Note_off_c, 1, 88, 0
2, 42660, Note_on_c, 1, 86, 55
2, 42720, Note_off_c, 1, 86, 0
2, 42720, Note_on_c, 1, 84, 54
2, 42780, Note_off_c, 1, 84, 0
2, 42780, Note_on_c, 1, 83, 53
2, 42840, Note_off_c, 1, 83, 0
2, 42840, Note_on_c, 1, 81, 52
2, 42900, Note_off_c, 1, 81, 0
2, 42900, Note_on_c, 1, 79, 51
2, 42960, Note_off_c, 1, 79, 0
2, 42960, Note_on_c, 1, 78, 50
2, 43020, Note_off_c, 1, 78, 0
2, 43020, Note_on_c, 1, 76, 50
2, 43080, Note_off_c, 1, 76, 0
2, 43080, Note_on_c, 1, 74, 49
2, 43140, Note_off_c, 1, 74, 0
2, 43140, Note_on_c, 1, 72, 48
2, 43200, Note_off_c, 1, 72, 0
2, 43200, Note_on_c, 1, 71, 47
2, 43260, Note_off_c, 1, 71, 0
2, 43260, Note_on_c, 1, 69, 46
2, 43320, Note_off_c, 1, 69, 0
2, 43320, Note_on_c, 1, 67, 45
2, 43380, Note_off_c, 1, 67, 0
2, 43380, Note_on_c, 1, 66, 44
2, 43440, Note_off_c, 1, 66, 0
2, 43440, Note_on_c, 1, 64, 44
2, 43500, Note_off_c, 1, 64, 0
2, 43500, Note_on_c, 1, 70, 47
2, 43560, Note_off_c, 1, 70, 0
2, 43560, Note_on_c, 1, 73, 51
2, 43620, Note_off_c, 1, 73, 0
2, 43620, Note_on_c, 1, 76, 55
2, 43920, Note_off_c, 1, 76, 0
2, 43920, Note_on_c, 1, 75, 54
2, 44160, Note_off_c, 1, 75, 0
2, 44160, Note_on_c, 1, 74, 52
2, 44640, Note_off_c, 1, 74, 0
2, 44760, Note_on_c, 1, 70, 47
2, 44880, Note_off_c, 1, 70, 0
2, 44880, Note_on_c, 1, 61, 46
2, 45000, Note_off_c, 1, 61, 0
2, 45000, Note_on_c, 1, 64, 45
2, 45360, Note_off_c, 1, 64, 0
2, 45360, Note_on_c, 1, 63, 44
2, 45552, Note_off_c, 1, 63, 0
2, 45600, Note_on_c, 1, 62, 45
2, 45792, Note_off_c, 1, 62, 0
2, 45840, Note_on_c, 1, 62, 46
2, 46032, Note_off_c, 1, 62, 0
2, 46080, Note_on_c, 1, 71, 47
2, 46320, Note_off_c, 1, 71, 0
2, 46320, Note_on_c, 1, 67, 47
2, 46512, Note_off_c, 1, 67, 0
2, 46560, Note_on_c, 1, 67, 48
2, 46800, Note_off_c, 1, 67, 0
2, 46800, Note_on_c, 1, 66, 49
2, 46992, Note_off_c, 1, 66, 0
2, 47040, Note_on_c, 1, 66, 50
2, 47280, Note_off_c, 1, 66, 0
2, 47280, Note_on_c, 1, 74, 51
2, 47472, Note_off_c, 1, 74, 0
2, 47520, Note_on_c, 1, 74, 52
2, 47760, Note_off_c, 1, 74, 0
2, 47760, Note_on_c, 1, 79, 53
2, 47952, Note_off_c, 1, 79, 0
2, 48000, Note_on_c, 1, 76, 53
2, 48720, Note_off_c, 1, 76, 0
2, 48720, Note_on_c, 1, 79, 54
2, 48960, Note_off_c, 1, 79, 0
2, 48960, Note_on_c, 1, 78, 53
2, 49200, Note_off_c, 1, 78, 0
2, 49200, Note_on_c, 1, 81, 52
2, 49392, Note_off_c, 1, 81, 0
2, 49440, Note_on_c, 1, 81, 51
2, 49680, Note_off_c, 1, 81, 0
2, 49680, Note_on_c, 1, 79, 50
2, 49920, Note_off_c, 1, 79, 0
2, 49920, Note_on_c, 1, 78, 49
2, 50160, Note_off_c, 1, 78, 0
2, 50160, Note_on_c, 1, 79, 48
2, 50352, Note_off_c, 1, 79, 0
2, 50400, Note_on_c, 1, 83, 46
2, 50640, Note_off_c, 1, 83, 0
2, 50640, Note_on_c, 1, 81, 47
2, 50880, Note_off_c, 1, 81, 0
2, 50880, Note_on_c, 1, 81, 48
2, 51840, Note_off_c, 1, 81, 0
2, 51840, Note_on_c, 1, 83, 53
2, 52320, Note_off_c, 1, 83, 0
2, 52320, Note_on_c, 1, 84, 55
2, 53280, Note_off_c, 1, 84, 0
2, 53280, Note_on_c, 1, 86, 59
2, 53760, Note_off_c, 1, 86, 0
2, 53760, Note_on_c, 1, 88, 62
2, 54120, Note_off_c, 1, 88, 0
2, 54120, Note_on_c, 1, 86, 63
2, 54240, Note_off_c, 1, 86, 0
2, 54240, Note_on_c, 1, 84, 65
2, 54720, Note_off_c, 1, 84, 0
2, 54720, Note_on_c, 1, 81, 60
2, 55200, Note_off_c, 1, 81, 0
2, 55200, Note_on_c, 1, 81, 55
2, 55440, Note_off_c, 1, 81, 0
2, 55440, Note_on_c, 1, 79, 53
2, 55680, Note_off_c, 1, 79, 0
2, 55680, Note_on_c, 1, 79, 50
2, 55836, Note_off_c, 1, 79, 0
2, 55920, Note_on_c, 1, 83, 51
2, 56076, Note_off_c, 1, 83, 0
2, 56160, Note_on_c, 1, 81, 51
2, 56316, Note_off_c, 1, 81, 0
2, 56400, Note_on_c, 1, 79, 50
2, 56556, Note_off_c, 1, 79, 0
2, 56640, Note_on_c, 1, 78, 49
2, 56796, Note_off_c, 1, 78, 0
2, 56880, Note_on_c, 1, 76, 49
2, 57036, Note_off_c, 1, 76, 0
2, 57120, Note_on_c, 1, 74, 48
2, 57276, Note_off_c, 1, 74, 0
2, 57360, Note_on_c, 1, 73, 48
2, 57516, Note_off_c, 1, 73, 0
2, 57600, Note_on_c, 1, 72, 47
2, 58080, Note_off_c, 1, 72, 0
2, 58080, Note_on_c, 1, 71, 46
2, 58560, Note_off_c, 1, 71, 0
2, 58800, Note_on_c, 1, 71, 45
2, 58956, Note_off_c, 1, 71, 0
2, 59040, Note_on_c, 1, 69, 44
2, 59196, Note_off_c, 1, 69, 0
2, 59280, Note_on_c, 1, 67, 43
2, 59436, Note_off_c, 1, 67, 0
2, 59520, Note_on_c, 1, 66, 43
2, 59676, Note_off_c, 1, 66, 0
2, 59760, Note_on_c, 1, 64, 42
2, 59916, Note_off_c, 1, 64, 0
2, 60000, Note_on_c, 1, 62, 42
2, 60156, Note_off_c, 1, 62, 0
2, 60240, Note_on_c, 1, 61, 42
2, 60396, Note_off_c, 1, 61, 0
2, 60480, Note_on_c, 1, 60, 43
2, 60960, Note_off_c, 1, 60, 0
2, 60960, Note_on_c, 1, 59, 45
2, 61440, Note_off_c, 1, 59, 0
2, 61680, Control_c, 1, 64, 127
2, 61680, Note_on_c, 1, 95, 47
2, 61836, Note_off_c, 1, 95, 0
2, 61920, Note_on_c, 1, 93, 48
2, 62076, Note_off_c, 1, 93, 0
2, 62160, Note_on_c, 1, 91, 49
2, 62316, Note_off_c, 1, 91, 0
2, 62400, Note_on_c, 1, 90, 48
2, 62556, Note_off_c, 1, 90, 0
2, 62640, Note_on_c, 1, 88, 46
2, 62796, Note_off_c, 1, 88, 0
2, 62880, Note_on_c, 1, 86, 44
2, 63036, Note_off_c, 1, 86, 0
2, 63120, Control_c, 1, 64, 0
2, 63120, Note_on_c, 1, 86, 41
2, 63276, Note_off_c, 1, 86, 0
2, 63360, Note_on_c, 1, 86, 39
2, 63516, Note_off_c, 1, 86, 0
2, 63600, Note_on_c, 1, 86, 37
2, 63756, Note_off_c, 1, 86, 0
2, 63840, Note_on_c, 1, 86, 35
2, 63996, Note_off_c, 1, 86, 0
2, 64080, Note_on_c, 1, 86, 38
2, 64236, Note_off_c, 1, 86, 0
2, 64320, Note_on_c, 1, 86, 39
2, 64476, Note_off_c, 1, 86, 0
2, 64560, Note_on_c, 1, 86, 40
2, 64716, Note_off_c, 1, 86, 0
2, 64800, Note_on_c, 1, 86, 41
2, 64956, Note_off_c, 1, 86, 0
2, 65040, Note_on_c, 1, 86, 42
2, 65196, Note_off_c, 1, 86, 0
2, 65280, Note_on_c, 1, 86, 43
2, 65760, Note_off_c, 1, 86, 0
2, 65760, Note_on_c, 1, 86, 46
2, 66120, Note_off_c, 1, 86, 0
2, 66120, Note_on_c, 1, 88, 47
2, 66240, Note_off_c, 1, 88, 0
2, 66240, Note_on_c, 1, 91, 51
2, 66480, Note_off_c, 1, 91, 0
2, 66480, Note_on_c, 1, 90, 47
2, 66720, Note_off_c, 1, 90, 0
2, 66720, Note_on_c, 1, 93, 46
2, 67200, Note_off_c, 1, 93, 0
2, 67200, Note_on_c, 1, 91, 34
2, 67440, Note_off_c, 1, 91, 0
2, 70560, Control_c, 1, 64, 0
2, 70560, Note_on_c, 1, 62, 83
2, 70716, Note_off_c, 1, 62, 0
2, 71040, Note_on_c, 1, 63, 86
2, 71196, Note_off_c, 1, 63, 0
2, 71520, Note_on_c, 1, 62, 91
2, 71676, Note_off_c, 1, 62, 0
2, 72480, Note_on_c, 1, 60, 87
2, 72636, Note_off_c, 1, 60, 0
2, 74160, Note_on_c, 1, 67, 44
2, 74400, Note_on_c, 1, 69, 45
2, 74635, Note_off_c, 1, 67, 0
2, 74640, Note_off_c, 1, 69, 0
2, 74640, Note_on_c, 1, 67, 45
2, 74880, Note_on_c, 1, 69, 46
2, 75120, Note_off_c, 1, 69, 0
2, 75120, Note_on_c, 1, 71, 47
2, 75360, Note_off_c, 1, 71, 0
2, 75360, Note_on_c, 1, 72, 48
2, 75600, Note_off_c, 1, 72, 0
2, 75600, Note_on_c, 1, 71, 49
2, 75840, Note_off_c, 1, 71, 0
2, 75840, Note_on_c, 1, 72, 49
2, 76032, Note_off_c, 1, 72, 0
2, 76035, Note_off_c, 1, 67, 0
2, 76080, Note_on_c, 1, 74, 50
2, 76320, Note_off_c, 1, 74, 0
2, 76320, Note_on_c, 1, 77, 53
2, 76560, Note_off_c, 1, 77, 0
2, 76560, Note_on_c, 1, 75, 51
2, 76752, Note_off_c, 1, 75, 0
2, 76800, Note_on_c, 1, 74, 50
2, 77040, Note_off_c, 1, 74, 0
2, 77040, Note_on_c, 1, 73, 48
2, 77232, Note_off_c, 1, 73, 0
2, 77280, Note_on_c, 1, 73, 49
2, 77520, Note_off_c, 1, 73, 0
2, 77520, Note_on_c, 1, 74, 46
2, 77712, Note_off_c, 1, 74, 0
2, 77760, Note_on_c, 1, 74, 42
2, 77856, Note_off_c, 1, 74, 0
2, 78240, Note_on_c, 1, 62, 77
2, 78396, Note_off_c, 1, 62, 0
2, 78720, Note_on_c, 1, 63, 82
2, 78876, Note_off_c, 1, 63, 0
2, 79200, Note_on_c, 1, 62, 89
2, 79356, Note_off_c, 1, 62, 0
2, 80160, Note_on_c, 1, 60, 87
2, 80316, Note_off_c, 1, 60, 0
2, 81840, Note_on_c, 1, 67, 42
2, 82080, Note_on_c, 1, 69, 43
2, 82315, Note_off_c, 1, 67, 0
2, 82320, Note_off_c, 1, 69, 0
2, 82320, Note_on_c, 1, 67, 44
2, 82560, Note_on_c, 1, 69, 45
2, 82800, Note_off_c, 1, 69, 0
2, 82800, Note_on_c, 1, 71, 46
2, 83040, Note_off_c, 1, 71, 0
2, 83040, Note_on_c, 1, 72, 47
2, 83280, Note_off_c, 1, 72, 0
2, 83280, Note_on_c, 1, 71, 48
2, 83520, Note_off_c, 1, 71, 0
2, 83520, Note_on_c, 1, 72, 49
2, 83712, Note_off_c, 1, 72, 0
2, 83760, Note_on_c, 1, 74, 50
2, 84000, Note_off_c, 1, 74, 0
2, 84000, Note_on_c, 1, 77, 51
2, 84240, Note_off_c, 1, 77, 0
2, 84240, Note_on_c, 1, 75, 49
2, 84247, Note_off_c, 1, 67, 0
2, 84480, Note_off_c, 1, 75, 0
2, 84480, Note_on_c, 1, 74, 48
2, 84720, Note_off_c, 1, 74, 0
2, 84720, Note_on_c, 1, 72, 46
2, 84912, Note_off_c, 1, 72, 0
2, 84960, Note_on_c, 1, 72, 49
2, 85200, Note_off_c, 1, 72, 0
2, 85200, Note_on_c, 1, 70, 45
2, 85392, Note_off_c, 1, 70, 0
2, 85440, Note_on_c, 1, 70, 41
2, 85536, Note_off_c, 1, 70, 0
2, 85560, Note_on_c, 1, 70, 78
2, 85680, Note_off_c, 1, 70, 0
2, 85680, Note_on_c, 1, 74, 79
2, 85800, Note_off_c, 1, 74, 0
2, 85800, Note_on_c, 1, 70, 80
2, 85920, Note_off_c, 1, 70, 0
2, 85920, Note_on_c, 1, 77, 81
2, 86076, Note_off_c, 1, 77, 0
2, 86520, Note_on_c, 1, 74, 72
2, 86640, Note_off_c, 1, 74, 0
2, 86640, Note_on_c, 1, 77, 67
2, 86760, Note_off_c, 1, 77, 0
2, 86760, Note_on_c, 1, 74, 62
2, 86880, Note_off_c, 1, 74, 0
2, 86880, Note_on_c, 1, 82, 58
2, 87360, Note_off_c, 1, 82, 0
2, 87600, Note_on_c, 1, 86, 57
2, 87840, Note_off_c, 1, 86, 0
2, 87840, Note_on_c, 1, 84, 57
2, 88080, Note_off_c, 1, 84, 0
2, 88080, Note_on_c, 1, 81, 56
2, 88320, Note_off_c, 1, 81, 0
2, 88320, Note_on_c, 1, 77, 55
2, 88560, Note_off_c, 1, 77, 0
2, 88560, Note_on_c, 1, 78, 54
2, 88800, Note_off_c, 1, 78, 0
2, 88800, Note_on_c, 1, 79, 53
2, 89040, Note_off_c, 1, 79, 0
2, 89040, Note_on_c, 1, 75, 53
2, 89280, Note_off_c, 1, 75, 0
2, 89280, Note_on_c, 1, 72, 52
2, 89520, Note_off_c, 1, 72, 0
2, 89520, Note_on_c, 1, 74, 51
2, 89760, Note_off_c, 1, 74, 0
2, 89760, Note_on_c, 1, 75, 50
2, 90000, Note_off_c, 1, 75, 0
2, 90000, Note_on_c, 1, 72, 49
2, 90240, Note_off_c, 1, 72, 0
2, 90240, Note_on_c, 1, 67, 49
2, 90480, Note_off_c, 1, 67, 0
2, 90480, Note_on_c, 1, 70, 48
2, 90720, Note_off_c, 1, 70, 0
2, 90720, Note_on_c, 1, 72, 47
2, 90960, Note_off_c, 1, 72, 0
2, 90960, Note_on_c, 1, 69, 46
2, 91200, Note_off_c, 1, 69, 0
2, 91200, Note_on_c, 1, 65, 45
2, 91440, Note_off_c, 1, 65, 0
2, 91440, Note_on_c, 1, 63, 45
2, 91680, Note_off_c, 1, 63, 0
2, 91680, Note_on_c, 1, 62, 44
2, 92040, Note_off_c, 1, 62, 0
2, 92160, Note_on_c, 1, 65, 46
2, 92640, Note_off_c, 1, 65, 0
2, 92640, Note_on_c, 1, 63, 48
2, 93120, Note_off_c, 1, 63, 0
2, 93120, Note_on_c, 1, 70, 50
2, 93817, Note_off_c, 1, 70, 0
2, 93840, Note_on_c, 1, 74, 58
2, 94320, Note_off_c, 1, 74, 0
2, 94320, Note_on_c, 1, 72, 52
2, 94440, Note_off_c, 1, 72, 0
2, 94440, Note_on_c, 1, 69, 51
2, 94560, Note_off_c, 1, 69, 0
2, 94560, Note_on_c, 1, 70, 49
2, 94716, Note_off_c, 1, 70, 0
2, 95520, Control_c, 1, 64, 0
2, 95520, Note_on_c, 1, 62, 83
2, 95676, Note_off_c, 1, 62, 0
2, 96000, Note_on_c, 1, 63, 86
2, 96156, Note_off_c, 1, 63, 0
2, 96480, Note_on_c, 1, 62, 91
2, 96636, Note_off_c, 1, 62, 0
2, 97440, Note_on_c, 1, 60, 87
2, 97596, Note_off_c, 1, 60, 0
2, 99120, Note_on_c, 1, 67, 44
2, 99360, Note_on_c, 1, 69, 45
2, 99595, Note_off_c, 1, 67, 0
2, 99600, Note_off_c, 1, 69, 0
2, 99600, Note_on_c, 1, 67, 45
2, 99840, Note_on_c, 1, 69, 46
2, 100080, Note_off_c, 1, 69, 0
2, 100080, Note_on_c, 1, 71, 47
2, 100320, Note_off_c, 1, 71, 0
2, 100320, Note_on_c, 1, 72, 48
2, 100560, Note_off_c, 1, 72, 0
2, 100560, Note_on_c, 1, 71, 49
2, 100800, Note_off_c, 1, 71, 0
2, 100800, Note_on_c, 1, 72, 49
2, 100992, Note_off_c, 1, 72, 0
2, 100995, Note_off_c, 1, 67, 0
2, 101040, Note_on_c, 1, 74, 50
2, 101280, Note_off_c, 1, 74, 0
2, 101280, Note_on_c, 1, 77, 53
2, 101520, Note_off_c, 1, 77, 0
2, 101520, Note_on_c, 1, 75, 51
2, 101712, Note_off_c, 1, 75, 0
2, 101760, Note_on_c, 1, 74, 50
2, 102000, Note_off_c, 1, 74, 0
2, 102000, Note_on_c, 1, 73, 48
2, 102192, Note_off_c, 1, 73, 0
2, 102240, Note_on_c, 1, 73, 49
2, 102480, Note_off_c, 1, 73, 0
2, 102480, Note_on_c, 1, 74, 46
2, 102672, Note_off_c, 1, 74, 0
2, 102720, Note_on_c, 1, 74, 42
2, 102816, Note_off_c, 1, 74, 0
2, 103200, Note_on_c, 1, 62, 77
2, 103356, Note_off_c, 1, 62, 0
2, 103680, Note_on_c, 1, 63, 82
2, 103836, Note_off_c, 1, 63, 0
2, 104160, Note_on_c, 1, 62, 89
2, 104316, Note_off_c, 1, 62, 0
2, 105120, Note_on_c, 1, 60, 87
2, 105276, Note_off_c, 1, 60, 0
2, 106800, Note_on_c, 1, 67, 42
2, 107040, Note_on_c, 1, 69, 43
2, 107275, Note_off_c, 1, 67, 0
2, 107280, Note_off_c, 1, 69, 0
2, 107280, Note_on_c, 1, 67, 44
2, 107520, Note_on_c, 1, 69, 45
2, 107760, Note_off_c, 1, 69, 0
2, 107760, Note_on_c, 1, 71, 46
2, 108000, Note_off_c, 1, 71, 0
2, 108000, Note_on_c, 1, 72, 47
2, 108240, Note_off_c, 1, 72, 0
2, 108240, Note_on_c, 1, 71, 48
2, 108480, Note_off_c, 1, 71, 0
2, 108480, Note_on_c, 1, 72, 49
2, 108672, Note_off_c, 1, 72, 0
2, 108720, Note_on_c, 1, 74, 50
2, 108960, Note_off_c, 1, 74, 0
2, 108960, Note_on_c, 1, 77, 51
2, 109200, Note_off_c, 1, 77, 0
2, 109200, Note_on_c, 1, 75, 49
2, 109207, Note_off_c, 1, 67, 0
2, 109440, Note_off_c, 1, 75, 0
2, 109440, Note_on_c, 1, 74, 48
2, 109680, Note_off_c, 1, 74, 0
2, 109680, Note_on_c, 1, 72, 46
2, 109872, Note_off_c, 1, 72, 0
2, 109920, Note_on_c, 1, 72, 49
2, 110160, Note_off_c, 1, 72, 0
2, 110160, Note_on_c, 1, 70, 45
2, 110352, Note_off_c, 1, 70, 0
2, 110400, Note_on_c, 1, 70, 41
2, 110496, Note_off_c, 1, 70, 0
2, 110520, Note_on_c, 1, 70, 78
2, 110640, Note_off_c, 1, 70, 0
2, 110640, Note_on_c, 1, 74, 79
2, 110760, Note_off_c, 1, 74, 0
2, 110760, Note_on_c, 1, 70, 80
2, 110880, Note_off_c, 1, 70, 0
2, 110880, Note_on_c, 1, 77, 81
2, 111036, Note_off_c, 1, 77, 0
2, 111480, Note_on_c, 1, 74, 72
2, 111600, Note_off_c, 1, 74, 0
2, 111600, Note_on_c, 1, 77, 67
2, 111720, Note_off_c, 1, 77, 0
2, 111720, Note_on_c, 1, 74, 62
2, 111840, Note_off_c, 1, 74, 0
2, 111840, Note_on_c, 1, 82, 58
2, 112470, Note_off_c, 1, 82, 0
2, 112560, Note_on_c, 1, 86, 57
2, 112800, Note_off_c, 1, 86, 0
2, 112800, Note_on_c, 1, 84, 57
2, 113040, Note_off_c, 1, 84, 0
2, 113040, Note_on_c, 1, 81, 56
2, 113280, Note_off_c, 1, 81, 0
2, 113280, Note_on_c, 1, 77, 55
2, 113520, Note_off_c, 1, 77, 0
2, 113520, Note_on_c, 1, 78, 54
2, 113760, Note_off_c, 1, 78, 0
2, 113760, Note_on_c, 1, 79, 53
2, 114000, Note_off_c, 1, 79, 0
2, 114000, Note_on_c, 1, 75, 53
2, 114240, Note_off_c, 1, 75, 0
2, 114240, Note_on_c, 1, 72, 52
2, 114480, Note_off_c, 1, 72, 0
2, 114480, Note_on_c, 1, 74, 51
2, 114720, Note_off_c, 1, 74, 0
2, 114720, Note_on_c, 1, 75, 50
2, 114960, Note_off_c, 1, 75, 0
2, 114960, Note_on_c, 1, 72, 49
2, 115200, Note_off_c, 1, 72, 0
2, 115200, Note_on_c, 1, 67, 49
2, 115440, Note_off_c, 1, 67, 0
2, 115440, Note_on_c, 1, 70, 48
2, 115680, Note_off_c, 1, 70, 0
2, 115680, Note_on_c, 1, 72, 47
2, 115920, Note_off_c, 1, 72, 0
2, 115920, Note_on_c, 1, 69, 46
2, 116160, Note_off_c, 1, 69, 0
2, 116160, Note_on_c, 1, 65, 45
2, 116400, Note_off_c, 1, 65, 0
2, 116400, Note_on_c, 1, 63, 45
2, 116640, Note_off_c, 1, 63, 0
2, 116640, Note_on_c, 1, 62, 44
2, 117000, Note_off_c, 1, 62, 0
2, 117120, Note_on_c, 1, 65, 46
2, 117600, Note_off_c, 1, 65, 0
2, 117600, Note_on_c, 1, 63, 48
2, 118080, Note_off_c, 1, 63, 0
2, 118080, Note_on_c, 1, 70, 50
2, 118785, Note_off_c, 1, 70, 0
2, 118800, Note_on_c, 1, 74, 58
2, 119280, Note_off_c, 1, 74, 0
2, 119280, Note_on_c, 1, 72, 52
2, 119400, Note_off_c, 1, 72, 0
2, 119400, Note_on_c, 1, 69, 51
2, 119520, Note_off_c, 1, 69, 0
2, 119520, Note_on_c, 1, 70, 49
2, 119676, Note_off_c, 1, 70, 0
2, 120480, Control_c, 1, 64, 0
2, 120480, Note_on_c, 1, 74, 44
2, 121440, Note_off_c, 1, 74, 0
2, 121440, Note_on_c, 1, 72, 44
2, 121920, Note_off_c, 1, 72, 0
2, 121920, Note_on_c, 1, 75, 46
2, 122160, Note_off_c, 1, 75, 0
2, 122160, Note_on_c, 1, 72, 47
2, 122400, Note_off_c, 1, 72, 0
2, 122400, Note_on_c, 1, 70, 47
2, 122640, Note_off_c, 1, 70, 0
2, 122640, Note_on_c, 1, 69, 48
2, 122880, Note_off_c, 1, 69, 0
2, 122880, Note_on_c, 1, 79, 48
2, 123120, Note_off_c, 1, 79, 0
2, 123120, Note_on_c, 1, 77, 49
2, 123312, Note_off_c, 1, 77, 0
2, 123360, Note_on_c, 1, 77, 51
2, 124800, Note_off_c, 1, 77, 0
2, 124800, Note_on_c, 1, 75, 53
2, 125040, Note_off_c, 1, 75, 0
2, 125040, Note_on_c, 1, 74, 50
2, 125232, Note_off_c, 1, 74, 0
2, 125280, Note_on_c, 1, 74, 49
2, 125760, Note_off_c, 1, 74, 0
2, 125760, Note_on_c, 1, 72, 48
2, 126480, Note_off_c, 1, 72, 0
2, 126480, Note_on_c, 1, 72, 49
2, 126720, Note_off_c, 1, 72, 0
2, 126720, Note_on_c, 1, 73, 50
2, 126960, Note_off_c, 1, 73, 0
2, 126960, Note_on_c, 1, 70, 51
2, 127152, Note_off_c, 1, 70, 0
2, 127200, Note_on_c, 1, 70, 51
2, 127680, Note_off_c, 1, 70, 0
2, 127680, Note_on_c, 1, 69, 46
2, 128160, Note_off_c, 1, 69, 0
2, 128160, Note_on_c, 1, 74, 44
2, 129360, Note_off_c, 1, 74, 0
2, 129360, Note_on_c, 1, 72, 48
2, 129600, Note_off_c, 1, 72, 0
2, 129600, Note_on_c, 1, 75, 49
2, 129840, Note_off_c, 1, 75, 0
2, 129840, Note_on_c, 1, 72, 50
2, 130080, Note_off_c, 1, 72, 0
2, 130080, Note_on_c, 1, 70, 51
2, 130320, Note_off_c, 1, 70, 0
2, 130320, Note_on_c, 1, 69, 52
2, 130560, Note_off_c, 1, 69, 0
2, 130560, Note_on_c, 1, 79, 53
2, 130800, Note_off_c, 1, 79, 0
2, 130800, Note_on_c, 1, 77, 54
2, 131040, Note_off_c, 1, 77, 0
2, 131040, Note_on_c, 1, 77, 56
2, 132480, Note_off_c, 1, 77, 0
2, 132480, Note_on_c, 1, 75, 72
2, 132960, Note_off_c, 1, 75, 0
2, 132960, Note_on_c, 1, 75, 76
2, 133200, Note_off_c, 1, 75, 0
2, 133200, Note_on_c, 1, 74, 72
2, 133440, Note_off_c, 1, 74, 0
2, 133440, Note_on_c, 1, 77, 69
2, 133680, Note_off_c, 1, 77, 0
2, 133680, Note_on_c, 1, 74, 66
2, 133872, Note_off_c, 1, 74, 0
2, 133920, Note_on_c, 1, 72, 62
2, 134400, Note_off_c, 1, 72, 0
2, 134400, Note_on_c, 1, 71, 55
2, 134880, Note_off_c, 1, 71, 0
2, 135480, Note_on_c, 1, 71, 90
2, 135600, Note_off_c, 1, 71, 0
2, 135600, Note_on_c, 1, 74, 90
2, 135720, Note_off_c, 1, 74, 0
2, 135720, Note_on_c, 1, 71, 91
2, 135840, Note_off_c, 1, 71, 0
2, 135840, Note_on_c, 1, 79, 91
2, 135996, Note_off_c, 1, 79, 0
2, 142680, Note_on_c, 1, 63, 89
2, 142800, Note_off_c, 1, 63, 0
2, 142800, Note_on_c, 1, 67, 89
2, 142920, Note_off_c, 1, 67, 0
2, 142920, Note_on_c, 1, 63, 88
2, 143040, Note_off_c, 1, 63, 0
2, 143040, Note_on_c, 1, 70, 87
2, 143196, Note_off_c, 1, 70, 0
2, 143640, Note_on_c, 1, 62, 83
2, 143760, Note_off_c, 1, 62, 0
2, 143760, Note_on_c, 1, 65, 82
2, 143880, Note_off_c, 1, 65, 0
2, 143880, Note_on_c, 1, 62, 81
2, 144000, Note_off_c, 1, 62, 0
2, 144000, Note_on_c, 1, 70, 81
2, 144156, Note_off_c, 1, 70, 0
2, 144600, Note_on_c, 1, 63, 77
2, 144720, Note_off_c, 1, 63, 0
2, 144720, Note_on_c, 1, 67, 76
2, 144840, Note_off_c, 1, 67, 0
2, 144840, Note_on_c, 1, 63, 75
2, 144960, Note_off_c, 1, 63, 0
2, 144960, Note_on_c, 1, 70, 74
2, 145116, Note_off_c, 1, 70, 0
2, 145560, Note_on_c, 1, 62, 70
2, 145680, Note_off_c, 1, 62, 0
2, 145680, Note_on_c, 1, 65, 70
2, 145800, Note_off_c, 1, 65, 0
2, 145800, Note_on_c, 1, 62, 69
2, 145920, Note_off_c, 1, 62, 0
2, 145920, Note_on_c, 1, 70, 68
2, 146076, Note_off_c, 1, 70, 0
2, 146520, Note_on_c, 1, 67, 70
2, 146640, Note_off_c, 1, 67, 0
2, 146640, Note_on_c, 1, 70, 70
2, 146760, Note_off_c, 1, 70, 0
2, 146760, Note_on_c, 1, 67, 70
2, 146880, Note_off_c, 1, 67, 0
2, 146880, Note_on_c, 1, 75, 70
2, 147036, Note_off_c, 1, 75, 0
2, 147480, Note_on_c, 1, 69, 71
2, 147600, Note_off_c, 1, 69, 0
2, 147600, Note_on_c, 1, 75, 71
2, 147720, Note_off_c, 1, 75, 0
2, 147720, Note_on_c, 1, 74, 71
2, 147840, Note_off_c, 1, 74, 0
2, 147840, Note_on_c, 1, 81, 71
2, 147996, Note_off_c, 1, 81, 0
2, 148440, Note_on_c, 1, 73, 72
2, 148560, Note_off_c, 1, 73, 0
2, 148560, Note_on_c, 1, 82, 72
2, 148680, Note_off_c, 1, 82, 0
2, 148680, Note_on_c, 1, 79, 73
2, 148800, Note_off_c, 1, 79, 0
2, 148800, Note_on_c, 1, 85, 73
2, 148956, Note_off_c, 1, 85, 0
2, 149400, Note_on_c, 1, 74, 74
2, 149520, Note_off_c, 1, 74, 0
2, 149520, Note_on_c, 1, 79, 74
2, 149640, Note_off_c, 1, 79, 0
2, 149640, Note_on_c, 1, 78, 74
2, 149760, Note_off_c, 1, 78, 0
2, 149760, Note_on_c, 1, 86, 75
2, 149916, Note_off_c, 1, 86, 0
2, 150240, Note_on_c, 1, 89, 91
2, 151680, Note_off_c, 1, 89, 0
2, 151680, Note_on_c, 1, 72, 84
2, 152160, Note_off_c, 1, 72, 0
2, 152160, Note_on_c, 1, 81, 86
2, 153600, Note_off_c, 1, 81, 0
2, 153600, Note_on_c, 1, 60, 87
2, 154080, Note_off_c, 1, 60, 0
2, 154080, Note_on_c, 1, 77, 79
2, 154320, Note_off_c, 1, 77, 0
2, 154320, Note_on_c, 1, 77, 83
2, 154560, Note_off_c, 1, 77, 0
2, 154560, Note_on_c, 1, 77, 87
2, 154800, Note_off_c, 1, 77, 0
2, 154800, Note_on_c, 1, 77, 91
2, 155040, Note_off_c, 1, 77, 0
2, 155040, Note_on_c, 1, 77, 97
2, 155280, Note_off_c, 1, 77, 0
2, 155280, Note_on_c, 1, 77, 94
2, 155520, Note_off_c, 1, 77, 0
2, 155520, Note_on_c, 1, 77, 91
2, 155760, Note_off_c, 1, 77, 0
2, 155760, Note_on_c, 1, 77, 87
2, 156000, Note_off_c, 1, 77, 0
2, 156000, Note_on_c, 1, 85, 84
2, 156240, Note_off_c, 1, 85, 0
2, 156240, Note_on_c, 1, 85, 88
2, 156480, Note_off_c, 1, 85, 0
2, 156480, Note_on_c, 1, 86, 91
2, 156720, Note_off_c, 1, 86, 0
2, 156720, Note_on_c, 1, 86, 95
2, 156960, Note_off_c, 1, 86, 0
2, 156960, Note_on_c, 1, 87, 99
2, 157200, Note_off_c, 1, 87, 0
2, 157200, Note_on_c, 1, 87, 95
2, 157440, Note_off_c, 1, 87, 0
2, 157440, Note_on_c, 1, 86, 92
2, 157680, Note_off_c, 1, 86, 0
2, 157680, Note_on_c, 1, 89, 88
2, 157920, Note_off_c, 1, 89, 0
2, 157920, Note_on_c, 1, 89, 84
2, 158400, Note_off_c, 1, 89, 0
2, 158400, Note_on_c, 1, 87, 87
2, 158880, Note_off_c, 1, 87, 0
2, 158880, Note_on_c, 1, 87, 89
2, 159360, Note_off_c, 1, 87, 0
2, 159360, Note_on_c, 1, 86, 92
2, 159840, Note_off_c, 1, 86, 0
2, 159840, Note_on_c, 1, 86, 95
2, 160320, Note_off_c, 1, 86, 0
2, 160320, Note_on_c, 1, 85, 97
2, 160800, Note_off_c, 1, 85, 0
2, 160800, Note_on_c, 1, 84, 100
2, 161280, Note_off_c, 1, 84, 0
2, 161280, Note_on_c, 1, 82, 102
2, 161760, Note_off_c, 1, 82, 0
2, 161760, Note_on_c, 1, 80, 107
2, 162240, Note_off_c, 1, 80, 0
2, 162240, Note_on_c, 1, 79, 102
2, 162720, Note_off_c, 1, 79, 0
2, 162720, Note_on_c, 1, 80, 98
2, 163200, Note_off_c, 1, 80, 0
2, 163200, Note_on_c, 1, 84, 93
2, 163680, Note_off_c, 1, 84, 0
2, 163680, Note_on_c, 1, 80, 89
2, 164160, Note_off_c, 1, 80, 0
2, 164160, Note_on_c, 1, 79, 84
2, 164640, Note_off_c, 1, 79, 0
2, 164640, Note_on_c, 1, 78, 80
2, 165120, Note_off_c, 1, 78, 0
2, 165120, Note_on_c, 1, 79, 75
2, 165600, Note_off_c, 1, 79, 0
2, 165600, Note_on_c, 1, 68, 71
2, 166080, Note_off_c, 1, 68, 0
2, 166080, Note_on_c, 1, 67, 67
2, 166560, Note_off_c, 1, 67, 0
2, 166560, Note_on_c, 1, 68, 64
2, 167040, Note_off_c, 1, 68, 0
2, 167040, Note_on_c, 1, 72, 61
2, 167520, Note_off_c, 1, 72, 0
2, 167520, Note_on_c, 1, 68, 59
2, 168000, Note_off_c, 1, 68, 0
2, 168000, Note_on_c, 1, 67, 56
2, 168480, Note_off_c, 1, 67, 0
2, 168480, Note_on_c, 1, 66, 53
2, 168960, Note_off_c, 1, 66, 0
2, 168960, Note_on_c, 1, 67, 51
2, 169440, Note_off_c, 1, 67, 0
2, 169440, Note_on_c, 1, 71, 48
2, 170400, Note_off_c, 1, 71, 0
2, 170400, Note_on_c, 1, 72, 50
2, 170880, Note_off_c, 1, 72, 0
2, 170880, Note_on_c, 1, 75, 51
2, 171360, Note_off_c, 1, 75, 0
2, 171360, Note_on_c, 1, 74, 53
2, 171600, Note_off_c, 1, 74, 0
2, 171600, Note_on_c, 1, 84, 62
2, 172080, Note_off_c, 1, 84, 0
2, 172080, Note_on_c, 1, 81, 51
2, 172200, Note_off_c, 1, 81, 0
2, 172200, Note_on_c, 1, 78, 49
2, 172320, Note_off_c, 1, 78, 0
2, 172320, Note_on_c, 1, 79, 47
2, 172476, Note_off_c, 1, 79, 0
2, 173280, Note_on_c, 1, 70, 40
2, 174240, Note_off_c, 1, 70, 0
2, 174240, Note_on_c, 1, 72, 45
2, 174720, Note_off_c, 1, 72, 0
2, 174720, Note_on_c, 1, 75, 47
2, 175080, Note_off_c, 1, 75, 0
2, 175200, Note_on_c, 1, 74, 50
2, 175440, Note_off_c, 1, 74, 0
2, 175440, Note_on_c, 1, 82, 57
2, 175920, Note_off_c, 1, 82, 0
2, 175920, Note_on_c, 1, 81, 46
2, 176040, Note_off_c, 1, 81, 0
2, 176040, Note_on_c, 1, 78, 45
2, 176160, Note_off_c, 1, 78, 0
2, 176160, Note_on_c, 1, 79, 43
2, 176316, Note_off_c, 1, 79, 0
2, 177360, Note_on_c, 1, 74, 58
2, 177840, Note_off_c, 1, 74, 0
2, 177840, Note_on_c, 1, 72, 48
2, 177960, Note_off_c, 1, 72, 0
2, 177960, Note_on_c, 1, 69, 44
2, 178080, Note_off_c, 1, 69, 0
2, 178080, Note_on_c, 1, 70, 41
2, 178236, Note_off_c, 1, 70, 0
2, 178320, Note_on_c, 1, 74, 47
2, 178476, Note_off_c, 1, 74, 0
2, 178560, Note_on_c, 1, 74, 50
2, 178716, Note_off_c, 1, 74, 0
2, 178800, Note_on_c, 1, 74, 52
2, 178956, Note_off_c, 1, 74, 0
2, 179040, Note_on_c, 1, 74, 59
2, 179280, Note_on_c, 1, 82, 52
2, 179760, Note_off_c, 1, 82, 0
2, 179760, Note_off_c, 1, 74, 0
2, 179760, Note_on_c, 1, 81, 44
2, 179880, Note_off_c, 1, 81, 0
2, 179880, Note_on_c, 1, 78, 42
2, 180000, Note_off_c, 1, 78, 0
2, 180000, Note_on_c, 1, 79, 39
2, 180156, Note_off_c, 1, 79, 0
2, 182160, Note_on_c, 1, 63, 45
2, 182400, Note_off_c, 1, 63, 0
2, 182400, Note_on_c, 1, 60, 45
2, 182592, Note_off_c, 1, 60, 0
2, 182640, Note_on_c, 1, 68, 46
2, 182880, Note_off_c, 1, 68, 0
2, 182880, Note_on_c, 1, 65, 47
2, 183120, Note_off_c, 1, 65, 0
2, 183120, Note_on_c, 1, 63, 48
2, 183312, Note_off_c, 1, 63, 0
2, 183360, Note_on_c, 1, 63, 49
2, 183600, Note_off_c, 1, 63, 0
2, 183600, Note_on_c, 1, 62, 49
2, 183840, Note_off_c, 1, 62, 0
2, 183840, Note_on_c, 1, 60, 50
2, 184032, Note_off_c, 1, 60, 0
2, 184080, Note_on_c, 1, 60, 53
2, 184320, Note_off_c, 1, 60, 0
2, 184320, Note_on_c, 1, 58, 46
2, 184512, Note_off_c, 1, 58, 0
2, 184560, Note_on_c, 1, 58, 48
2, 184800, Note_off_c, 1, 58, 0
2, 184800, Note_on_c, 1, 58, 50
2, 185040, Note_on_c, 1, 63, 54
2, 185280, Note_off_c, 1, 63, 0
2, 185280, Note_off_c, 1, 58, 0
2, 185280, Note_on_c, 1, 62, 51
2, 185520, Note_off_c, 1, 62, 0
2, 185520, Note_on_c, 1, 60, 52
2, 185760, Note_on_c, 1, 70, 56
2, 186000, Note_off_c, 1, 70, 0
2, 186000, Note_off_c, 1, 60, 0
2, 186000, Note_on_c, 1, 68, 53
2, 186240, Note_off_c, 1, 68, 0
2, 186240, Note_on_c, 1, 68, 52
2, 186720, Note_off_c, 1, 68, 0
2, 186720, Note_on_c, 1, 67, 56
2, 186840, Note_off_c, 1, 67, 0
2, 186840, Note_on_c, 1, 68, 57
2, 186960, Note_off_c, 1, 68, 0
2, 186960, Note_on_c, 1, 67, 57
2, 187200, Note_off_c, 1, 67, 0
2, 187200, Note_on_c, 1, 65, 51
2, 187392, Note_off_c, 1, 65, 0
2, 187440, Note_on_c, 1, 67, 48
2, 187560, Note_off_c, 1, 67, 0
2, 187560, Note_on_c, 1, 68, 50
2, 187680, Note_off_c, 1, 68, 0
2, 187680, Note_on_c, 1, 70, 52
2, 187920, Note_off_c, 1, 70, 0
2, 187920, Note_on_c, 1, 75, 56
2, 188160, Note_off_c, 1, 75, 0
2, 188160, Note_on_c, 1, 72, 51
2, 188400, Note_off_c, 1, 72, 0
2, 188400, Note_on_c, 1, 80, 52
2, 188640, Note_off_c, 1, 80, 0
2, 188640, Note_on_c, 1, 77, 53
2, 188880, Note_off_c, 1, 77, 0
2, 188880, Note_on_c, 1, 75, 54
2, 189072, Note_off_c, 1, 75, 0
2, 189120, Note_on_c, 1, 75, 55
2, 189360, Note_off_c, 1, 75, 0
2, 189360, Note_on_c, 1, 74, 55
2, 189552, Note_off_c, 1, 74, 0
2, 189600, Note_on_c, 1, 72, 56
2, 189792, Note_off_c, 1, 72, 0
2, 189840, Note_on_c, 1, 72, 57
2, 190080, Note_off_c, 1, 72, 0
2, 190080, Note_on_c, 1, 70, 50
2, 190272, Note_off_c, 1, 70, 0
2, 190320, Note_on_c, 1, 70, 49
2, 190512, Note_off_c, 1, 70, 0
2, 190560, Note_on_c, 1, 70, 53
2, 190800, Note_off_c, 1, 70, 0
2, 190800, Note_on_c, 1, 75, 57
2, 191040, Note_off_c, 1, 75, 0
2, 191040, Note_on_c, 1, 74, 55
2, 191280, Note_off_c, 1, 74, 0
2, 191280, Note_on_c, 1, 72, 54
2, 191520, Note_off_c, 1, 72, 0
2, 191520, Note_on_c, 1, 82, 57
2, 191712, Note_off_c, 1, 82, 0
2, 191760, Note_on_c, 1, 82, 61
2, 191880, Note_off_c, 1, 82, 0
2, 191880, Note_on_c, 1, 80, 63
2, 192000, Note_off_c, 1, 80, 0
2, 192000, Note_on_c, 1, 80, 68
2, 192360, Note_off_c, 1, 80, 0
2, 192360, Note_on_c, 1, 79, 57
2, 192480, Note_off_c, 1, 79, 0
2, 192480, Note_on_c, 1, 80, 54
2, 192600, Note_off_c, 1, 80, 0
2, 192600, Note_on_c, 1, 77, 51
2, 192720, Note_off_c, 1, 77, 0
2, 192720, Note_on_c, 1, 77, 52
2, 192960, Note_off_c, 1, 77, 0
2, 192960, Note_on_c, 1, 75, 48
2, 193152, Note_off_c, 1, 75, 0
2, 193680, Note_on_c, 1, 75, 48
2, 193920, Note_off_c, 1, 75, 0
2, 193920, Note_on_c, 1, 77, 51
2, 194160, Note_off_c, 1, 77, 0
2, 194160, Note_on_c, 1, 75, 51
2, 194400, Note_off_c, 1, 75, 0
2, 194400, Note_on_c, 1, 74, 48
2, 194592, Note_off_c, 1, 74, 0
2, 195120, Note_on_c, 1, 79, 53
2, 195360, Note_off_c, 1, 79, 0
2, 195360, Note_on_c, 1, 80, 56
2, 195600, Note_off_c, 1, 80, 0
2, 195600, Note_on_c, 1, 79, 56
2, 195840, Note_off_c, 1, 79, 0
2, 195840, Note_on_c, 1, 77, 52
2, 195936, Note_off_c, 1, 77, 0
2, 195960, Note_on_c, 1, 82, 56
2, 196080, Note_off_c, 1, 82, 0
2, 196080, Note_on_c, 1, 84, 57
2, 196200, Note_off_c, 1, 84, 0
2, 196200, Note_on_c, 1, 86, 59
2, 196320, Note_off_c, 1, 86, 0
2, 196320, Note_on_c, 1, 87, 60
2, 196800, Note_off_c, 1, 87, 0
2, 196800, Note_on_c, 1, 91, 66
2, 196920, Note_off_c, 1, 91, 0
2, 196920, Note_on_c, 1, 89, 67
2, 197040, Note_off_c, 1, 89, 0
2, 197040, Note_on_c, 1, 89, 69
2, 197280, Note_off_c, 1, 89, 0
2, 197280, Note_on_c, 1, 87, 64
2, 197472, Note_off_c, 1, 87, 0
2, 197520, Note_on_c, 1, 86, 60
2, 197640, Note_off_c, 1, 86, 0
2, 197640, Note_on_c, 1, 84, 58
2, 197760, Note_off_c, 1, 84, 0
2, 197760, Note_on_c, 1, 84, 56
2, 198000, Note_off_c, 1, 84, 0
2, 198000, Note_on_c, 1, 82, 52
2, 198192, Note_off_c, 1, 82, 0
2, 198240, Note_on_c, 1, 81, 48
2, 198432, Note_off_c, 1, 81, 0
2, 198480, Control_c, 1, 64, 127
2, 198480, Note_on_c, 1, 80, 50
2, 198720, Note_off_c, 1, 80, 0
2, 198960, Note_on_c, 1, 80, 46
2, 199000, Note_off_c, 1, 80, 0
2, 199000, Note_on_c, 1, 77, 45
2, 199040, Note_off_c, 1, 77, 0
2, 199040, Note_on_c, 1, 74, 45
2, 199080, Note_off_c, 1, 74, 0
2, 199080, Note_on_c, 1, 70, 45
2, 199120, Note_off_c, 1, 70, 0
2, 199120, Note_on_c, 1, 68, 44
2, 199160, Note_off_c, 1, 68, 0
2, 199160, Note_on_c, 1, 65, 44
2, 199200, Note_off_c, 1, 65, 0
2, 199200, Note_on_c, 1, 62, 44
2, 199240, Note_off_c, 1, 62, 0
2, 199240, Note_on_c, 1, 58, 43
2, 199280, Note_off_c, 1, 58, 0
2, 199280, Note_on_c, 1, 56, 43
2, 199320, Note_off_c, 1, 56, 0
2, 199320, Note_on_c, 1, 53, 43
2, 199360, Note_off_c, 1, 53, 0
2, 199360, Note_on_c, 1, 50, 42
2, 199400, Note_off_c, 1, 50, 0
2, 199400, Note_on_c, 1, 53, 42
2, 199440, Note_off_c, 1, 53, 0
2, 199440, Note_on_c, 1, 56, 41
2, 199480, Note_off_c, 1, 56, 0
2, 199480, Note_on_c, 1, 58, 41
2, 199520, Note_off_c, 1, 58, 0
2, 199520, Note_on_c, 1, 62, 41
2, 199560, Note_off_c, 1, 62, 0
2, 199560, Note_on_c, 1, 65, 40
2, 199600, Note_off_c, 1, 65, 0
2, 199600, Note_on_c, 1, 68, 40
2, 199640, Note_off_c, 1, 68, 0
2, 199640, Note_on_c, 1, 70, 40
2, 199680, Note_off_c, 1, 70, 0
2, 199680, Note_on_c, 1, 74, 39
2, 199720, Note_off_c, 1, 74, 0
2, 199720, Note_on_c, 1, 77, 39
2, 199760, Note_off_c, 1, 77, 0
2, 199760, Note_on_c, 1, 80, 39
2, 199800, Note_off_c, 1, 80, 0
2, 200580, Control_c, 1, 64, 0
2, 200640, Control_c, 1, 64, 127
2, 200640, Note_on_c, 1, 79, 46
2, 200880, Note_off_c, 1, 79, 0
2, 201040, Note_on_c, 1, 79, 51
2, 201080, Note_off_c, 1, 79, 0
2, 201080, Note_on_c, 1, 75, 52
2, 201120, Note_off_c, 1, 75, 0
2, 201120, Note_on_c, 1, 70, 52
2, 201160, Note_off_c, 1, 70, 0
2, 201160, Note_on_c, 1, 67, 53
2, 201200, Note_off_c, 1, 67, 0
2, 201200, Note_on_c, 1, 63, 53
2, 201240, Note_off_c, 1, 63, 0
2, 201240, Note_on_c, 1, 58, 54
2, 201280, Note_off_c, 1, 58, 0
2, 201280, Note_on_c, 1, 55, 54
2, 201320, Note_off_c, 1, 55, 0
2, 201320, Note_on_c, 1, 51, 55
2, 201360, Note_off_c, 1, 51, 0
2, 201360, Note_on_c, 1, 46, 56
2, 201400, Note_off_c, 1, 46, 0
2, 201400, Note_on_c, 1, 43, 58
2, 201440, Note_off_c, 1, 43, 0
2, 201440, Note_on_c, 1, 46, 59
2, 201480, Note_off_c, 1, 46, 0
2, 201480, Note_on_c, 1, 51, 60
2, 201520, Note_off_c, 1, 51, 0
2, 201520, Note_on_c, 1, 55, 62
2, 201560, Note_off_c, 1, 55, 0
2, 201560, Note_on_c, 1, 58, 63
2, 201600, Note_off_c, 1, 58, 0
2, 201600, Note_on_c, 1, 63, 65
2, 201640, Note_off_c, 1, 63, 0
2, 201640, Note_on_c, 1, 67, 66
2, 201680, Note_off_c, 1, 67, 0
2, 201680, Note_on_c, 1, 70, 68
2, 201720, Note_off_c, 1, 70, 0
2, 201720, Note_on_c, 1, 75, 69
2, 201760, Note_off_c, 1, 75, 0
2, 201760, Note_on_c, 1, 79, 70
2, 201800, Note_off_c, 1, 79, 0
2, 201800, Note_on_c, 1, 82, 72
2, 201840, Note_on_c, 1, 87, 62
2, 201841, Note_off_c, 1, 82, 0
2, 202440, Note_on_c, 1, 86, 55
2, 202443, Note_off_c, 1, 87, 0
2, 202536, Note_off_c, 1, 86, 0
2, 202560, Control_c, 1, 64, 0
2, 202560, Note_on_c, 1, 86, 49
2, 202680, Note_off_c, 1, 86, 0
2, 202680, Note_on_c, 1, 84, 43
2, 202776, Note_off_c, 1, 84, 0
2, 202800, Note_on_c, 1, 84, 41
2, 202920, Note_off_c, 1, 84, 0
2, 202920, Note_on_c, 1, 83, 42
2, 203016, Note_off_c, 1, 83, 0
2, 203040, Note_on_c, 1, 83, 42
2, 203160, Note_off_c, 1, 83, 0
2, 203160, Note_on_c, 1, 82, 43
2, 203256, Note_off_c, 1, 82, 0
2, 203280, Note_on_c, 1, 82, 44
2, 203400, Note_off_c, 1, 82, 0
2, 203400, Note_on_c, 1, 82, 45
2, 203520, Control_c, 1, 10, 55
2, 203520, Note_off_c, 1, 82, 0
2, 203880, Note_on_c, 1, 63, 45
2, 204120, Note_off_c, 1, 63, 0
2, 204120, Note_on_c, 1, 60, 46
2, 204240, Note_off_c, 1, 60, 0
2, 204360, Note_on_c, 1, 68, 46
2, 204600, Note_off_c, 1, 68, 0
2, 204600, Note_on_c, 1, 65, 47
2, 204840, Note_off_c, 1, 65, 0
2, 204840, Note_on_c, 1, 63, 47
2, 204960, Note_off_c, 1, 63, 0
2, 205080, Note_on_c, 1, 63, 48
2, 205320, Note_off_c, 1, 63, 0
2, 205320, Note_on_c, 1, 62, 48
2, 205560, Note_off_c, 1, 62, 0
2, 205560, Note_on_c, 1, 60, 48
2, 205680, Note_off_c, 1, 60, 0
2, 205800, Note_on_c, 1, 60, 49
2, 206040, Note_off_c, 1, 60, 0
2, 206040, Note_on_c, 1, 58, 47
2, 206160, Note_off_c, 1, 58, 0
2, 206400, Control_c, 1, 10, 73
2, 206640, Note_on_c, 1, 75, 45
2, 206880, Note_off_c, 1, 75, 0
2, 206880, Note_on_c, 1, 74, 46
2, 207072, Note_off_c, 1, 74, 0
2, 207360, Note_on_c, 1, 82, 47
2, 207600, Note_off_c, 1, 82, 0
2, 207600, Note_on_c, 1, 80, 47
2, 207792, Note_off_c, 1, 80, 0
2, 207840, Note_on_c, 1, 80, 48
2, 208320, Note_off_c, 1, 80, 0
2, 208320, Note_on_c, 1, 79, 49
2, 208440, Note_off_c, 1, 79, 0
2, 208440, Note_on_c, 1, 82, 51
2, 208500, Note_off_c, 1, 82, 0
2, 208500, Note_on_c, 1, 80, 52
2, 208560, Note_off_c, 1, 80, 0
2, 208560, Note_on_c, 1, 79, 52
2, 208800, Note_off_c, 1, 79, 0
2, 208800, Note_on_c, 1, 77, 44
2, 208992, Note_off_c, 1, 77, 0
2, 209040, Note_on_c, 1, 79, 48
2, 209100, Note_off_c, 1, 79, 0
2, 209100, Note_on_c, 1, 75, 48
2, 209160, Note_off_c, 1, 75, 0
2, 209160, Note_on_c, 1, 80, 49
2, 209220, Note_off_c, 1, 80, 0
2, 209220, Note_on_c, 1, 77, 49
2, 209280, Note_off_c, 1, 77, 0
2, 209280, Note_on_c, 1, 84, 49
2, 209340, Note_off_c, 1, 84, 0
2, 209340, Note_on_c, 1, 83, 50
2, 209400, Note_off_c, 1, 83, 0
2, 209400, Note_on_c, 1, 82, 50
2, 209460, Note_off_c, 1, 82, 0
2, 209460, Note_on_c, 1, 79, 50
2, 209520, Note_off_c, 1, 79, 0
2, 209520, Note_on_c, 1, 89, 50
2, 209580, Note_off_c, 1, 89, 0
2, 209580, Note_on_c, 1, 88, 50
2, 209640, Note_off_c, 1, 88, 0
2, 209640, Note_on_c, 1, 87, 51
2, 209700, Note_off_c, 1, 87, 0
2, 209700, Note_on_c, 1, 82, 51
2, 209760, Note_off_c, 1, 82, 0
2, 209760, Note_on_c, 1, 86, 52
2, 209820, Note_off_c, 1, 86, 0
2, 209820, Note_on_c, 1, 85, 52
2, 209880, Note_off_c, 1, 85, 0
2, 209880, Note_on_c, 1, 84, 53
2, 209940, Note_off_c, 1, 84, 0
2, 209940, Note_on_c, 1, 80, 53
2, 210000, Note_off_c, 1, 80, 0
2, 210000, Note_on_c, 1, 94, 54
2, 210060, Note_off_c, 1, 94, 0
2, 210060, Note_on_c, 1, 91, 54
2, 210120, Note_off_c, 1, 91, 0
2, 210120, Note_on_c, 1, 92, 55
2, 210180, Note_off_c, 1, 92, 0
2, 210180, Note_on_c, 1, 84, 55
2, 210240, Note_off_c, 1, 84, 0
2, 210240, Note_on_c, 1, 91, 56
2, 210300, Note_off_c, 1, 91, 0
2, 210300, Note_on_c, 1, 88, 56
2, 210360, Note_off_c, 1, 88, 0
2, 210360, Note_on_c, 1, 89, 57
2, 210420, Note_off_c, 1, 89, 0
2, 210420, Note_on_c, 1, 80, 57
2, 210480, Note_off_c, 1, 80, 0
2, 210480, Note_on_c, 1, 89, 58
2, 210540, Note_off_c, 1, 89, 0
2, 210540, Note_on_c, 1, 86, 58
2, 210600, Note_off_c, 1, 86, 0
2, 210600, Note_on_c, 1, 87, 58
2, 210660, Note_off_c, 1, 87, 0
2, 210660, Note_on_c, 1, 79, 59
2, 210720, Note_off_c, 1, 79, 0
2, 210720, Note_on_c, 1, 89, 59
2, 210780, Note_off_c, 1, 89, 0
2, 210780, Note_on_c, 1, 86, 60
2, 210840, Note_off_c, 1, 86, 0
2, 210840, Note_on_c, 1, 87, 60
2, 210900, Note_off_c, 1, 87, 0
2, 210900, Note_on_c, 1, 79, 61
2, 210960, Note_off_c, 1, 79, 0
2, 210960, Note_on_c, 1, 87, 61
2, 211020, Note_off_c, 1, 87, 0
2, 211020, Note_on_c, 1, 84, 62
2, 211080, Note_off_c, 1, 84, 0
2, 211080, Note_on_c, 1, 86, 62
2, 211140, Note_off_c, 1, 86, 0
2, 211140, Note_on_c, 1, 77, 63
2, 211200, Note_off_c, 1, 77, 0
2, 211200, Note_on_c, 1, 86, 63
2, 211260, Note_off_c, 1, 86, 0
2, 211260, Note_on_c, 1, 83, 64
2, 211320, Note_off_c, 1, 83, 0
2, 211320, Note_on_c, 1, 84, 64
2, 211380, Note_off_c, 1, 84, 0
2, 211380, Note_on_c, 1, 81, 65
2, 211440, Note_off_c, 1, 81, 0
2, 211440, Note_on_c, 1, 86, 65
2, 211500, Note_off_c, 1, 86, 0
2, 211500, Note_on_c, 1, 83, 66
2, 211560, Note_off_c, 1, 83, 0
2, 211560, Note_on_c, 1, 84, 66
2, 211620, Note_off_c, 1, 84, 0
2, 211620, Note_on_c, 1, 81, 67
2, 211680, Note_off_c, 1, 81, 0
2, 211680, Note_on_c, 1, 84, 66
2, 211740, Note_off_c, 1, 84, 0
2, 211740, Note_on_c, 1, 83, 64
2, 211800, Note_off_c, 1, 83, 0
2, 211800, Note_on_c, 1, 82, 62
2, 211860, Note_off_c, 1, 82, 0
2, 211860, Note_on_c, 1, 77, 60
2, 211920, Note_off_c, 1, 77, 0
2, 211920, Note_on_c, 1, 84, 58
2, 211980, Note_off_c, 1, 84, 0
2, 211980, Note_on_c, 1, 82, 56
2, 212040, Note_off_c, 1, 82, 0
2, 212040, Note_on_c, 1, 75, 54
2, 212100, Note_off_c, 1, 75, 0
2, 212100, Note_on_c, 1, 74, 52
2, 212160, Note_off_c, 1, 74, 0
2, 212160, Note_on_c, 1, 84, 50
2, 212220, Note_off_c, 1, 84, 0
2, 212220, Note_on_c, 1, 82, 53
2, 212280, Note_off_c, 1, 82, 0
2, 212280, Note_on_c, 1, 81, 54
2, 212340, Note_off_c, 1, 81, 0
2, 212340, Note_on_c, 1, 82, 56
2, 212400, Note_off_c, 1, 82, 0
2, 212400, Note_on_c, 1, 84, 57
2, 212460, Note_off_c, 1, 84, 0
2, 212460, Note_on_c, 1, 82, 58
2, 212520, Note_off_c, 1, 82, 0
2, 212520, Note_on_c, 1, 89, 60
2, 212580, Note_off_c, 1, 89, 0
2, 212580, Note_on_c, 1, 87, 61
2, 212640, Note_off_c, 1, 87, 0
2, 212640, Note_on_c, 1, 86, 62
2, 212700, Note_off_c, 1, 86, 0
2, 212700, Note_on_c, 1, 83, 60
2, 212760, Note_off_c, 1, 83, 0
2, 212760, Note_on_c, 1, 87, 58
2, 212820, Note_off_c, 1, 87, 0
2, 212820, Note_on_c, 1, 86, 56
2, 212880, Note_off_c, 1, 86, 0
2, 212880, Note_on_c, 1, 86, 52
2, 212940, Note_off_c, 1, 86, 0
2, 212940, Note_on_c, 1, 84, 53
2, 213000, Note_off_c, 1, 84, 0
2, 213000, Note_on_c, 1, 83, 55
2, 213060, Note_off_c, 1, 83, 0
2, 213060, Note_on_c, 1, 84, 56
2, 213120, Note_off_c, 1, 84, 0
2, 213120, Note_on_c, 1, 94, 58
2, 213180, Note_off_c, 1, 94, 0
2, 213180, Note_on_c, 1, 84, 60
2, 213240, Note_off_c, 1, 84, 0
2, 213240, Note_on_c, 1, 96, 61
2, 213300, Note_off_c, 1, 96, 0
2, 213300, Note_on_c, 1, 94, 63
2, 213360, Note_off_c, 1, 94, 0
2, 213360, Note_on_c, 1, 94, 65
2, 213420, Note_off_c, 1, 94, 0
2, 213420, Note_on_c, 1, 84, 66
2, 213480, Note_off_c, 1, 84, 0
2, 213480, Note_on_c, 1, 94, 68
2, 213540, Note_off_c, 1, 94, 0
2, 213540, Note_on_c, 1, 92, 69
2, 213600, Note_off_c, 1, 92, 0
2, 213600, Note_on_c, 1, 92, 69
2, 213660, Note_off_c, 1, 92, 0
2, 213660, Note_on_c, 1, 86, 69
2, 213720, Note_off_c, 1, 86, 0
2, 213720, Note_on_c, 1, 94, 68
2, 213780, Note_off_c, 1, 94, 0
2, 213780, Note_on_c, 1, 92, 67
2, 213840, Note_off_c, 1, 92, 0
2, 213840, Note_on_c, 1, 92, 66
2, 213900, Note_off_c, 1, 92, 0
2, 213900, Note_on_c, 1, 86, 66
2, 213960, Note_off_c, 1, 86, 0
2, 213960, Note_on_c, 1, 91, 65
2, 214020, Note_off_c, 1, 91, 0
2, 214020, Note_on_c, 1, 87, 64
2, 214080, Note_off_c, 1, 87, 0
2, 214080, Note_on_c, 1, 92, 63
2, 214140, Note_off_c, 1, 92, 0
2, 214140, Note_on_c, 1, 86, 62
2, 214200, Note_off_c, 1, 86, 0
2, 214200, Note_on_c, 1, 89, 62
2, 214260, Note_off_c, 1, 89, 0
2, 214260, Note_on_c, 1, 86, 61
2, 214320, Note_off_c, 1, 86, 0
2, 214320, Note_on_c, 1, 89, 60
2, 214380, Note_off_c, 1, 89, 0
2, 214380, Note_on_c, 1, 86, 59
2, 214440, Note_off_c, 1, 86, 0
2, 214440, Note_on_c, 1, 91, 59
2, 214500, Note_off_c, 1, 91, 0
2, 214500, Note_on_c, 1, 89, 58
2, 214560, Note_off_c, 1, 89, 0
2, 214560, Note_on_c, 1, 87, 57
2, 214620, Note_off_c, 1, 87, 0
2, 214620, Note_on_c, 1, 81, 56
2, 214680, Note_off_c, 1, 81, 0
2, 214680, Note_on_c, 1, 82, 56
2, 214740, Note_off_c, 1, 82, 0
2, 214740, Note_on_c, 1, 78, 58
2, 214800, Note_off_c, 1, 78, 0
2, 214800, Note_on_c, 1, 79, 59
2, 214860, Note_off_c, 1, 79, 0
2, 214860, Note_on_c, 1, 74, 61
2, 214920, Note_off_c, 1, 74, 0
2, 214920, Note_on_c, 1, 75, 63
2, 214980, Note_off_c, 1, 75, 0
2, 214980, Note_on_c, 1, 84, 64
2, 215040, Note_off_c, 1, 84, 0
2, 215040, Note_on_c, 1, 82, 67
2, 215100, Note_off_c, 1, 82, 0
2, 215100, Note_on_c, 1, 74, 65
2, 215160, Note_off_c, 1, 74, 0
2, 215160, Note_on_c, 1, 82, 64
2, 215220, Note_off_c, 1, 82, 0
2, 215220, Note_on_c, 1, 80, 64
2, 215280, Note_off_c, 1, 80, 0
2, 215280, Note_on_c, 1, 80, 63
2, 215340, Note_off_c, 1, 80, 0
2, 215340, Note_on_c, 1, 74, 62
2, 215400, Note_off_c, 1, 74, 0
2, 215400, Note_on_c, 1, 79, 62
2, 215460, Note_off_c, 1, 79, 0
2, 215460, Note_on_c, 1, 75, 61
2, 215520, Note_off_c, 1, 75, 0
2, 215520, Note_on_c, 1, 80, 60
2, 215580, Note_off_c, 1, 80, 0
2, 215580, Note_on_c, 1, 74, 59
2, 215640, Note_off_c, 1, 74, 0
2, 215640, Note_on_c, 1, 77, 59
2, 215700, Note_off_c, 1, 77, 0
2, 215700, Note_on_c, 1, 74, 58
2, 215760, Note_off_c, 1, 74, 0
2, 215760, Note_on_c, 1, 77, 57
2, 215820, Note_off_c, 1, 77, 0
2, 215820, Note_on_c, 1, 74, 57
2, 215880, Note_off_c, 1, 74, 0
2, 215880, Note_on_c, 1, 79, 56
2, 215940, Note_off_c, 1, 79, 0
2, 215940, Note_on_c, 1, 77, 55
2, 216000, Note_off_c, 1, 77, 0
2, 216000, Note_on_c, 1, 75, 55
2, 216060, Note_off_c, 1, 75, 0
2, 216060, Note_on_c, 1, 69, 54
2, 216120, Note_off_c, 1, 69, 0
2, 216120, Note_on_c, 1, 70, 55
2, 216180, Note_off_c, 1, 70, 0
2, 216180, Note_on_c, 1, 66, 57
2, 216240, Note_off_c, 1, 66, 0
2, 216240, Note_on_c, 1, 67, 59
2, 216300, Note_off_c, 1, 67, 0
2, 216300, Note_on_c, 1, 62, 60
2, 216360, Note_off_c, 1, 62, 0
2, 216360, Note_on_c, 1, 63, 62
2, 216420, Note_off_c, 1, 63, 0
2, 216420, Note_on_c, 1, 60, 64
2, 216480, Note_off_c, 1, 60, 0
2, 216480, Note_on_c, 1, 58, 66
2, 216600, Note_off_c, 1, 58, 0
2, 216600, Note_on_c, 1, 58, 60
2, 216840, Note_off_c, 1, 58, 0
2, 216840, Note_on_c, 1, 58, 57
2, 216936, Note_off_c, 1, 58, 0
2, 216960, Note_on_c, 1, 58, 56
2, 217056, Note_off_c, 1, 58, 0
2, 217080, Note_on_c, 1, 58, 54
2, 217176, Note_off_c, 1, 58, 0
2, 217200, Note_on_c, 1, 58, 53
2, 217440, Note_off_c, 1, 58, 0
2, 217440, Note_on_c, 1, 58, 50
2, 217632, Note_off_c, 1, 58, 0
2, 217680, Note_on_c, 1, 58, 47
2, 217920, Note_off_c, 1, 58, 0
2, 217920, Note_on_c, 1, 58, 44
2, 218040, Note_off_c, 1, 58, 0
2, 218100, Note_on_c, 1, 67, 43
2, 218148, Note_off_c, 1, 67, 0
2, 218160, Note_on_c, 1, 75, 46
2, 218400, Note_off_c, 1, 75, 0
2, 218400, Note_on_c, 1, 72, 41
2, 218592, Note_off_c, 1, 72, 0
2, 218640, Note_on_c, 1, 80, 40
2, 219360, Note_off_c, 1, 80, 0
2, 219360, Note_on_c, 1, 79, 36
2, 220080, Note_off_c, 1, 79, 0
2, 220080, Note_on_c, 1, 77, 32
2, 220800, Note_off_c, 1, 77, 0
2, 220800, Note_on_c, 1, 75, 28
2, 221280, Note_off_c, 1, 75, 0
2, 223680, Control_c, 1, 64, 0
2, 223680, Note_on_c, 1, 54, 76
2, 223920, Note_off_c, 1, 54, 0
2, 224160, Note_on_c, 1, 54, 76
2, 224880, Note_off_c, 1, 54, 0
2, 225120, Note_on_c, 1, 59, 77
2, 225840, Note_off_c, 1, 59, 0
2, 226080, Note_on_c, 1, 61, 77
2, 226560, Note_off_c, 1, 61, 0
2, 226560, Note_on_c, 1, 59, 78
2, 226800, Note_off_c, 1, 59, 0
2, 226800, Note_on_c, 1, 58, 78
2, 227040, Note_off_c, 1, 58, 0
2, 227040, Note_on_c, 1, 59, 78
2, 227280, Note_off_c, 1, 59, 0
2, 227520, Note_on_c, 1, 62, 79
2, 227760, Note_off_c, 1, 62, 0
2, 228000, Note_on_c, 1, 62, 79
2, 228720, Note_off_c, 1, 62, 0
2, 228960, Note_on_c, 1, 66, 80
2, 229680, Note_off_c, 1, 66, 0
2, 229920, Note_on_c, 1, 66, 80
2, 230640, Note_off_c, 1, 66, 0
2, 230880, Note_on_c, 1, 66, 81
2, 231120, Note_off_c, 1, 66, 0
2, 231360, Note_on_c, 1, 66, 81
2, 231600, Note_off_c, 1, 66, 0
2, 231840, Note_on_c, 1, 67, 82
2, 232080, Note_off_c, 1, 67, 0
2, 232320, Note_on_c, 1, 71, 83
2, 232560, Note_off_c, 1, 71, 0
2, 232800, Note_on_c, 1, 74, 92
2, 233040, Note_off_c, 1, 74, 0
2, 233280, Note_on_c, 1, 71, 85
2, 233520, Note_off_c, 1, 71, 0
2, 233760, Note_on_c, 1, 76, 96
2, 234000, Note_off_c, 1, 76, 0
2, 234240, Note_on_c, 1, 72, 87
2, 234480, Note_off_c, 1, 72, 0
2, 234720, Note_on_c, 1, 74, 97
2, 234960, Note_off_c, 1, 74, 0
2, 235200, Note_on_c, 1, 79, 88
2, 235440, Note_off_c, 1, 79, 0
2, 235680, Note_on_c, 1, 83, 99
2, 235920, Note_off_c, 1, 83, 0
2, 236160, Note_on_c, 1, 86, 90
2, 236400, Note_off_c, 1, 86, 0
2, 236640, Note_on_c, 1, 91, 105
2, 236880, Note_off_c, 1, 91, 0
2, 237120, Note_on_c, 1, 74, 59
2, 237360, Note_off_c, 1, 74, 0
2, 237600, Note_on_c, 1, 76, 53
2, 237840, Note_off_c, 1, 76, 0
2, 238080, Note_on_c, 1, 78, 47
2, 238320, Note_off_c, 1, 78, 0
2, 238560, Note_on_c, 1, 79, 41
2, 238800, Note_off_c, 1, 79, 0
2, 239040, Control_c, 1, 64, 0
2, 239040, Note_on_c, 1, 54, 76
2, 239280, Note_off_c, 1, 54, 0
2, 239520, Note_on_c, 1, 54, 76
2, 240240, Note_off_c, 1, 54, 0
2, 240480, Note_on_c, 1, 59, 77
2, 241200, Note_off_c, 1, 59, 0
2, 241440, Note_on_c, 1, 61, 77
2, 241920, Note_off_c, 1, 61, 0
2, 241920, Note_on_c, 1, 59, 78
2, 242160, Note_off_c, 1, 59, 0
2, 242160, Note_on_c, 1, 58, 78
2, 242400, Note_off_c, 1, 58, 0
2, 242400, Note_on_c, 1, 59, 78
2, 242640, Note_off_c, 1, 59, 0
2, 242880, Note_on_c, 1, 62, 79
2, 243120, Note_off_c, 1, 62, 0
2, 243360, Note_on_c, 1, 62, 79
2, 244080, Note_off_c, 1, 62, 0
2, 244320, Note_on_c, 1, 66, 80
2, 245040, Note_off_c, 1, 66, 0
2, 245280, Note_on_c, 1, 66, 80
2, 246000, Note_off_c, 1, 66, 0
2, 246240, Note_on_c, 1, 66, 81
2, 246480, Note_off_c, 1, 66, 0
2, 246720, Note_on_c, 1, 66, 81
2, 246960, Note_off_c, 1, 66, 0
2, 247200, Note_on_c, 1, 67, 82
2, 247440, Note_off_c, 1, 67, 0
2, 247680, Note_on_c, 1, 71, 83
2, 247920, Note_off_c, 1, 71, 0
2, 248160, Note_on_c, 1, 74, 92
2, 248400, Note_off_c, 1, 74, 0
2, 248640, Note_on_c, 1, 71, 85
2, 248880, Note_off_c, 1, 71, 0
2, 249120, Note_on_c, 1, 76, 96
2, 249360, Note_off_c, 1, 76, 0
2, 249600, Note_on_c, 1, 72, 87
2, 249840, Note_off_c, 1, 72, 0
2, 250080, Note_on_c, 1, 74, 97
2, 250320, Note_off_c, 1, 74, 0
2, 250560, Note_on_c, 1, 79, 88
2, 250800, Note_off_c, 1, 79, 0
2, 251040, Note_on_c, 1, 83, 99
2, 251280, Note_off_c, 1, 83, 0
2, 251520, Note_on_c, 1, 86, 90
2, 251760, Note_off_c, 1, 86, 0
2, 252000, Note_on_c, 1, 91, 105
2, 252240, Note_off_c, 1, 91, 0
2, 252480, Note_on_c, 1, 74, 59
2, 252720, Note_off_c, 1, 74, 0
2, 252960, Note_on_c, 1, 76, 53
2, 253200, Note_off_c, 1, 76, 0
2, 253440, Note_on_c, 1, 78, 47
2, 253680, Note_off_c, 1, 78, 0
2, 253920, Note_on_c, 1, 79, 41
2, 254160, Note_off_c, 1, 79, 0
2, 254400, Control_c, 1, 64, 0
2, 254880, Note_on_c, 1, 71, 78
2, 255600, Note_off_c, 1, 71, 0
2, 255840, Note_on_c, 1, 71, 79
2, 256560, Note_off_c, 1, 71, 0
2, 256800, Note_on_c, 1, 71, 81
2, 257520, Note_off_c, 1, 71, 0
2, 257760, Note_on_c, 1, 71, 82
2, 258000, Note_off_c, 1, 71, 0
2, 258240, Note_on_c, 1, 71, 82
2, 258480, Note_off_c, 1, 71, 0
2, 258720, Note_on_c, 1, 71, 83
2, 259440, Note_off_c, 1, 71, 0
2, 259680, Note_on_c, 1, 76, 84
2, 260400, Note_off_c, 1, 76, 0
2, 260640, Note_on_c, 1, 77, 86
2, 261120, Note_off_c, 1, 77, 0
2, 261120, Note_on_c, 1, 76, 84
2, 261360, Note_off_c, 1, 76, 0
2, 261360, Note_on_c, 1, 74, 76
2, 261600, Note_off_c, 1, 74, 0
2, 261600, Note_on_c, 1, 77, 68
2, 261840, Note_off_c, 1, 77, 0
2, 261840, Note_on_c, 1, 74, 59
2, 262080, Note_off_c, 1, 74, 0
2, 262080, Note_on_c, 1, 71, 51
2, 262320, Note_off_c, 1, 71, 0
2, 262320, Note_on_c, 1, 79, 43
2, 262800, Note_off_c, 1, 79, 0
2, 262800, Note_on_c, 1, 76, 45
2, 263040, Note_off_c, 1, 76, 0
2, 263040, Note_on_c, 1, 72, 46
2, 263280, Note_off_c, 1, 72, 0
2, 263280, Note_on_c, 1, 81, 47
2, 263520, Note_off_c, 1, 81, 0
2, 263520, Note_on_c, 1, 77, 49
2, 263760, Note_off_c, 1, 77, 0
2, 263760, Note_on_c, 1, 74, 50
2, 264000, Note_off_c, 1, 74, 0
2, 264000, Note_on_c, 1, 71, 51
2, 264240, Note_off_c, 1, 71, 0
2, 264240, Note_on_c, 1, 79, 52
2, 264480, Note_off_c, 1, 79, 0
2, 264480, Note_on_c, 1, 76, 54
2, 264720, Note_off_c, 1, 76, 0
2, 264720, Note_on_c, 1, 72, 55
2, 264960, Note_off_c, 1, 72, 0
2, 264960, Note_on_c, 1, 67, 56
2, 265200, Note_off_c, 1, 67, 0
2, 265200, Note_on_c, 1, 77, 57
2, 265680, Note_off_c, 1, 77, 0
2, 265680, Note_on_c, 1, 74, 60
2, 265920, Note_off_c, 1, 74, 0
2, 265920, Note_on_c, 1, 71, 61
2, 266160, Note_off_c, 1, 71, 0
2, 266160, Note_on_c, 1, 79, 62
2, 266640, Note_off_c, 1, 79, 0
2, 266640, Note_on_c, 1, 76, 65
2, 266880, Note_off_c, 1, 76, 0
2, 266880, Note_on_c, 1, 72, 66
2, 267120, Note_off_c, 1, 72, 0
2, 267120, Note_on_c, 1, 81, 67
2, 267360, Note_off_c, 1, 81, 0
2, 267360, Note_on_c, 1, 77, 69
2, 267600, Note_off_c, 1, 77, 0
2, 267600, Note_on_c, 1, 74, 70
2, 267840, Note_off_c, 1, 74, 0
2, 267840, Note_on_c, 1, 71, 71
2, 268080, Note_off_c, 1, 71, 0
2, 268080, Note_on_c, 1, 79, 72
2, 268320, Note_off_c, 1, 79, 0
2, 268320, Note_on_c, 1, 77, 74
2, 268560, Note_off_c, 1, 77, 0
2, 268560, Note_on_c, 1, 74, 75
2, 268800, Note_off_c, 1, 74, 0
2, 268800, Note_on_c, 1, 83, 76
2, 269040, Note_off_c, 1, 83, 0
2, 269040, Note_on_c, 1, 74, 77
2, 269280, Note_off_c, 1, 74, 0
2, 269280, Note_on_c, 1, 84, 79
2, 269520, Note_off_c, 1, 84, 0
2, 269760, Note_on_c, 1, 86, 53
2, 270480, Note_off_c, 1, 86, 0
2, 270480, Note_on_c, 1, 83, 58
2, 270720, Note_off_c, 1, 83, 0
2, 270720, Note_on_c, 1, 79, 59
2, 270960, Note_off_c, 1, 79, 0
2, 270960, Note_on_c, 1, 88, 61
2, 271200, Note_off_c, 1, 88, 0
2, 271200, Note_on_c, 1, 84, 63
2, 271440, Note_off_c, 1, 84, 0
2, 271440, Note_on_c, 1, 81, 65
2, 271680, Note_off_c, 1, 81, 0
2, 271680, Note_on_c, 1, 78, 66
2, 271920, Note_off_c, 1, 78, 0
2, 271920, Note_on_c, 1, 86, 68
2, 272160, Note_off_c, 1, 86, 0
2, 272160, Note_on_c, 1, 83, 70
2, 272400, Note_off_c, 1, 83, 0
2, 272400, Note_on_c, 1, 79, 71
2, 272640, Note_off_c, 1, 79, 0
2, 272640, Note_on_c, 1, 74, 73
2, 272880, Note_off_c, 1, 74, 0
2, 272880, Note_on_c, 1, 84, 75
2, 273360, Note_off_c, 1, 84, 0
2, 273360, Note_on_c, 1, 81, 78
2, 273600, Note_off_c, 1, 81, 0
2, 273600, Note_on_c, 1, 78, 80
2, 273840, Note_off_c, 1, 78, 0
2, 273840, Note_on_c, 1, 86, 82
2, 274320, Note_off_c, 1, 86, 0
2, 274320, Note_on_c, 1, 83, 85
2, 274560, Note_off_c, 1, 83, 0
2, 274560, Note_on_c, 1, 79, 87
2, 274800, Note_off_c, 1, 79, 0
2, 274800, Note_on_c, 1, 88, 89
2, 275040, Note_off_c, 1, 88, 0
2, 275040, Note_on_c, 1, 84, 90
2, 275280, Note_off_c, 1, 84, 0
2, 275280, Note_on_c, 1, 81, 92
2, 275520, Note_off_c, 1, 81, 0
2, 275520, Note_on_c, 1, 78, 94
2, 275760, Note_off_c, 1, 78, 0
2, 275760, Note_on_c, 1, 86, 95
2, 276000, Note_off_c, 1, 86, 0
2, 276000, Note_on_c, 1, 84, 97
2, 276240, Note_off_c, 1, 84, 0
2, 276240, Note_on_c, 1, 81, 99
2, 276480, Note_off_c, 1, 81, 0
2, 276480, Note_on_c, 1, 90, 100
2, 276720, Note_off_c, 1, 90, 0
2, 276720, Note_on_c, 1, 81, 102
2, 276960, Note_off_c, 1, 81, 0
2, 276960, Note_on_c, 1, 91, 104
2, 277200, Note_off_c, 1, 91, 0
2, 277440, Note_on_c, 1, 54, 107
2, 277680, Note_off_c, 1, 54, 0
2, 277920, Note_on_c, 1, 54, 111
2, 279840, Note_off_c, 1, 54, 0
2, 281280, Note_on_c, 1, 55, 43
2, 281520, Note_off_c, 1, 55, 0
2, 281760, Note_on_c, 1, 55, 45
2, 282720, Note_on_c, 1, 60, 47
2, 283680, Note_off_c, 1, 60, 0
2, 283680, Note_on_c, 1, 62, 51
2, 284160, Note_off_c, 1, 62, 0
2, 284160, Note_on_c, 1, 60, 48
2, 284400, Note_off_c, 1, 60, 0
2, 284400, Note_on_c, 1, 59, 46
2, 284640, Note_off_c, 1, 59, 0
2, 284640, Note_off_c, 1, 55, 0
2, 284640, Note_on_c, 1, 60, 45
2, 284880, Note_off_c, 1, 60, 0
2, 285120, Note_on_c, 1, 54, 94
2, 285360, Note_off_c, 1, 54, 0
2, 285600, Note_on_c, 1, 54, 96
2, 287520, Note_off_c, 1, 54, 0
2, 288960, Note_on_c, 1, 61, 40
2, 289200, Note_off_c, 1, 61, 0
2, 289440, Note_on_c, 1, 61, 40
2, 290400, Note_off_c, 1, 61, 0
2, 290400, Note_on_c, 1, 66, 41
2, 291360, Note_off_c, 1, 66, 0
2, 291360, Note_on_c, 1, 67, 41
2, 291840, Note_off_c, 1, 67, 0
2, 291840, Note_on_c, 1, 66, 42
2, 292080, Note_off_c, 1, 66, 0
2, 292080, Note_on_c, 1, 65, 42
2, 292320, Note_off_c, 1, 65, 0
2, 292320, Note_on_c, 1, 66, 42
2, 292560, Note_off_c, 1, 66, 0
2, 292800, Note_on_c, 1, 66, 42
2, 293040, Note_off_c, 1, 66, 0
2, 293280, Note_on_c, 1, 66, 43
2, 294240, Note_off_c, 1, 66, 0
2, 294240, Note_on_c, 1, 71, 43
2, 295200, Note_off_c, 1, 71, 0
2, 295200, Note_on_c, 1, 72, 44
2, 295680, Note_off_c, 1, 72, 0
2, 295680, Note_on_c, 1, 71, 44
2, 295920, Note_off_c, 1, 71, 0
2, 295920, Note_on_c, 1, 70, 44
2, 296160, Note_off_c, 1, 70, 0
2, 296160, Note_on_c, 1, 71, 44
2, 296400, Note_off_c, 1, 71, 0
2, 296640, Note_on_c, 1, 71, 45
2, 296880, Note_off_c, 1, 71, 0
2, 297120, Note_on_c, 1, 71, 45
2, 298080, Note_off_c, 1, 71, 0
2, 298080, Note_on_c, 1, 71, 46
2, 298320, Note_off_c, 1, 71, 0
2, 298560, Note_on_c, 1, 71, 46
2, 298800, Note_off_c, 1, 71, 0
2, 299040, Note_on_c, 1, 71, 46
2, 300000, Note_off_c, 1, 71, 0
2, 300000, Note_on_c, 1, 76, 47
2, 300960, Note_off_c, 1, 76, 0
2, 300960, Note_on_c, 1, 78, 47
2, 301440, Note_off_c, 1, 78, 0
2, 301440, Note_on_c, 1, 76, 48
2, 301680, Note_off_c, 1, 76, 0
2, 301680, Note_on_c, 1, 75, 48
2, 301920, Note_off_c, 1, 75, 0
2, 301920, Note_on_c, 1, 76, 48
2, 302160, Note_off_c, 1, 76, 0
2, 302400, Note_on_c, 1, 79, 48
2, 302640, Note_off_c, 1, 79, 0
2, 302880, Note_on_c, 1, 78, 49
2, 303120, Note_off_c, 1, 78, 0
2, 303360, Note_on_c, 1, 83, 49
2, 303600, Note_off_c, 1, 83, 0
2, 303840, Note_on_c, 1, 78, 49
2, 304080, Note_off_c, 1, 78, 0
2, 304320, Note_on_c, 1, 83, 50
2, 304560, Note_off_c, 1, 83, 0
2, 304800, Note_on_c, 1, 78, 50
2, 305040, Note_off_c, 1, 78, 0
2, 305280, Note_on_c, 1, 83, 50
2, 305520, Note_off_c, 1, 83, 0
2, 305760, Note_on_c, 1, 81, 50
2, 306240, Note_off_c, 1, 81, 0
2, 306240, Note_on_c, 1, 79, 51
2, 306480, Note_off_c, 1, 79, 0
2, 306480, Note_on_c, 1, 81, 51
2, 306720, Note_off_c, 1, 81, 0
2, 306720, Note_on_c, 1, 83, 51
2, 307680, Note_off_c, 1, 83, 0
2, 307680, Note_on_c, 1, 88, 52
2, 308640, Note_off_c, 1, 88, 0
2, 308640, Note_on_c, 1, 90, 52
2, 309120, Note_on_c, 1, 88, 53
2, 309360, Note_off_c, 1, 88, 0
2, 309360, Note_off_c, 1, 90, 0
2, 309360, Note_on_c, 1, 87, 53
2, 309600, Note_off_c, 1, 87, 0
2, 309600, Note_on_c, 1, 88, 53
2, 309840, Note_off_c, 1, 88, 0
2, 310080, Note_on_c, 1, 91, 53
2, 310320, Note_off_c, 1, 91, 0
2, 310560, Note_on_c, 1, 85, 54
2, 310800, Note_off_c, 1, 85, 0
2, 311040, Note_on_c, 1, 90, 54
2, 311280, Note_off_c, 1, 90, 0
2, 311520, Note_on_c, 1, 85, 54
2, 311760, Note_off_c, 1, 85, 0
2, 312000, Note_on_c, 1, 90, 54
2, 312240, Note_off_c, 1, 90, 0
2, 312480, Note_on_c, 1, 85, 55
2, 312720, Note_off_c, 1, 85, 0
2, 312960, Note_on_c, 1, 90, 55
2, 313200, Note_off_c, 1, 90, 0
2, 313440, Note_on_c, 1, 88, 55
2, 313680, Note_off_c, 1, 88, 0
2, 313920, Note_on_c, 1, 85, 78
2, 314160, Note_off_c, 1, 85, 0
2, 314400, Note_on_c, 1, 54, 78
2, 315360, Note_off_c, 1, 54, 0
2, 315360, Note_on_c, 1, 59, 78
2, 316320, Note_off_c, 1, 59, 0
2, 316320, Note_on_c, 1, 61, 79
2, 316800, Note_off_c, 1, 61, 0
2, 316800, Note_on_c, 1, 59, 79
2, 317040, Note_off_c, 1, 59, 0
2, 317040, Note_on_c, 1, 58, 79
2, 317280, Note_off_c, 1, 58, 0
2, 317280, Note_on_c, 1, 59, 80
2, 317520, Note_off_c, 1, 59, 0
2, 317760, Note_on_c, 1, 62, 80
2, 318000, Note_off_c, 1, 62, 0
2, 318240, Note_on_c, 1, 62, 80
2, 319200, Note_off_c, 1, 62, 0
2, 319200, Note_on_c, 1, 66, 81
2, 320160, Note_off_c, 1, 66, 0
2, 320160, Note_on_c, 1, 66, 81
2, 321120, Note_off_c, 1, 66, 0
2, 321120, Note_on_c, 1, 66, 82
2, 321360, Note_off_c, 1, 66, 0
2, 321600, Note_on_c, 1, 66, 82
2, 321840, Note_off_c, 1, 66, 0
2, 322080, Note_on_c, 1, 67, 90
2, 322320, Note_off_c, 1, 67, 0
2, 322560, Note_on_c, 1, 71, 83
2, 322800, Note_off_c, 1, 71, 0
2, 323040, Note_on_c, 1, 74, 83
2, 323280, Note_off_c, 1, 74, 0
2, 323520, Note_on_c, 1, 71, 84
2, 323760, Note_off_c, 1, 71, 0
2, 324000, Note_on_c, 1, 66, 91
2, 324240, Note_off_c, 1, 66, 0
2, 324480, Note_on_c, 1, 71, 85
2, 324720, Note_off_c, 1, 71, 0
2, 324960, Note_on_c, 1, 74, 86
2, 325200, Note_off_c, 1, 74, 0
2, 325440, Note_on_c, 1, 71, 87
2, 325680, Note_off_c, 1, 71, 0
2, 325920, Note_on_c, 1, 64, 95
2, 326160, Note_off_c, 1, 64, 0
2, 326400, Note_on_c, 1, 71, 88
2, 326640, Note_off_c, 1, 71, 0
2, 326880, Note_on_c, 1, 74, 89
2, 327120, Note_off_c, 1, 74, 0
2, 327360, Note_on_c, 1, 71, 89
2, 327600, Note_off_c, 1, 71, 0
2, 327840, Note_on_c, 1, 62, 99
2, 328080, Note_off_c, 1, 62, 0
2, 328320, Note_on_c, 1, 71, 91
2, 328560, Note_off_c, 1, 71, 0
2, 328800, Note_on_c, 1, 74, 91
2, 329040, Note_off_c, 1, 74, 0
2, 329280, Note_on_c, 1, 71, 92
2, 329520, Note_off_c, 1, 71, 0
2, 329760, Note_on_c, 1, 71, 100
2, 330000, Note_off_c, 1, 71, 0
2, 330240, Note_on_c, 1, 74, 93
2, 330480, Note_off_c, 1, 74, 0
2, 330720, Note_on_c, 1, 78, 102
2, 330960, Note_off_c, 1, 78, 0
2, 331200, Note_on_c, 1, 74, 95
2, 331440, Note_off_c, 1, 74, 0
2, 331680, Note_on_c, 1, 79, 102
2, 331920, Note_off_c, 1, 79, 0
2, 332160, Note_on_c, 1, 76, 96
2, 332400, Note_off_c, 1, 76, 0
2, 332640, Note_on_c, 1, 78, 104
2, 332880, Note_off_c, 1, 78, 0
2, 333120, Note_on_c, 1, 83, 97
2, 333360, Note_off_c, 1, 83, 0
2, 333600, Note_on_c, 1, 86, 106
2, 333840, Note_off_c, 1, 86, 0
2, 334080, Note_on_c, 1, 90, 99
2, 334320, Note_off_c, 1, 90, 0
2, 334560, Note_on_c, 1, 95, 108
2, 334800, Note_off_c, 1, 95, 0
2, 335040, Note_on_c, 1, 78, 65
2, 335280, Note_off_c, 1, 78, 0
2, 335520, Note_on_c, 1, 78, 59
2, 335760, Note_off_c, 1, 78, 0
2, 336000, Note_on_c, 1, 82, 52
2, 336240, Note_off_c, 1, 82, 0
2, 336480, Note_on_c, 1, 83, 45
2, 336720, Note_off_c, 1, 83, 0
2, 337920, Note_on_c, 1, 71, 47
2, 338400, Note_off_c, 1, 71, 0
2, 338400, Note_on_c, 1, 75, 48
2, 338880, Note_off_c, 1, 75, 0
2, 338880, Note_on_c, 1, 78, 49
2, 339360, Note_off_c, 1, 78, 0
2, 339840, Note_on_c, 1, 78, 49
2, 340320, Note_off_c, 1, 78, 0
2, 340320, Note_on_c, 1, 76, 48
2, 340800, Note_off_c, 1, 76, 0
2, 340800, Note_on_c, 1, 75, 48
2, 341280, Note_off_c, 1, 75, 0
2, 341760, Note_on_c, 1, 75, 47
2, 342240, Note_off_c, 1, 75, 0
2, 342240, Note_on_c, 1, 73, 46
2, 342720, Note_off_c, 1, 73, 0
2, 342720, Note_on_c, 1, 71, 46
2, 343200, Note_off_c, 1, 71, 0
2, 343680, Note_on_c, 1, 71, 45
2, 344160, Note_off_c, 1, 71, 0
2, 344160, Note_on_c, 1, 70, 44
2, 344640, Note_off_c, 1, 70, 0
2, 344640, Note_on_c, 1, 68, 44
2, 345120, Note_off_c, 1, 68, 0
2, 345600, Note_on_c, 1, 66, 45
2, 346080, Note_off_c, 1, 66, 0
2, 346080, Note_on_c, 1, 68, 45
2, 346560, Note_off_c, 1, 68, 0
2, 346560, Note_on_c, 1, 70, 46
2, 347040, Note_off_c, 1, 70, 0
2, 347520, Note_on_c, 1, 70, 48
2, 348000, Note_off_c, 1, 70, 0
2, 348000, Note_on_c, 1, 71, 49
2, 348480, Note_off_c, 1, 71, 0
2, 348480, Note_on_c, 1, 73, 49
2, 348960, Note_off_c, 1, 73, 0
2, 349440, Note_on_c, 1, 73, 51
2, 349920, Note_off_c, 1, 73, 0
2, 349920, Note_on_c, 1, 75, 52
2, 350400, Note_off_c, 1, 75, 0
2, 350400, Note_on_c, 1, 76, 52
2, 351360, Note_off_c, 1, 76, 0
2, 351360, Note_on_c, 1, 73, 50
2, 351840, Note_off_c, 1, 73, 0
2, 351840, Note_on_c, 1, 82, 47
2, 352320, Note_off_c, 1, 82, 0
2, 352320, Note_on_c, 1, 83, 44
2, 352800, Note_off_c, 1, 83, 0
2, 353280, Note_on_c, 1, 83, 46
2, 353760, Note_off_c, 1, 83, 0
2, 353760, Note_on_c, 1, 87, 47
2, 354240, Note_off_c, 1, 87, 0
2, 354240, Note_on_c, 1, 90, 51
2, 354720, Note_off_c, 1, 90, 0
2, 355200, Note_on_c, 1, 90, 50
2, 355680, Note_off_c, 1, 90, 0
2, 355680, Note_on_c, 1, 88, 50
2, 356160, Note_off_c, 1, 88, 0
2, 356160, Note_on_c, 1, 87, 50
2, 356640, Note_off_c, 1, 87, 0
2, 357120, Note_on_c, 1, 87, 49
2, 357600, Note_off_c, 1, 87, 0
2, 357600, Note_on_c, 1, 85, 48
2, 358080, Note_off_c, 1, 85, 0
2, 358080, Note_on_c, 1, 83, 48
2, 358560, Note_off_c, 1, 83, 0
2, 359040, Note_on_c, 1, 83, 47
2, 359520, Note_off_c, 1, 83, 0
2, 359520, Note_on_c, 1, 82, 46
2, 360000, Note_off_c, 1, 82, 0
2, 360000, Note_on_c, 1, 80, 46
2, 360480, Note_off_c, 1, 80, 0
2, 360960, Note_on_c, 1, 78, 47
2, 361440, Note_off_c, 1, 78, 0
2, 361440, Note_on_c, 1, 80, 49
2, 361920, Note_off_c, 1, 80, 0
2, 361920, Note_on_c, 1, 82, 50
2, 362400, Note_off_c, 1, 82, 0
2, 362880, Note_on_c, 1, 82, 52
2, 363360, Note_off_c, 1, 82, 0
2, 363360, Note_on_c, 1, 83, 53
2, 363840, Note_off_c, 1, 83, 0
2, 363840, Note_on_c, 1, 85, 54
2, 364320, Note_off_c, 1, 85, 0
2, 364800, Note_on_c, 1, 85, 57
2, 365280, Note_off_c, 1, 85, 0
2, 365280, Note_on_c, 1, 87, 58
2, 365760, Note_off_c, 1, 87, 0
2, 365760, Note_on_c, 1, 88, 59
2, 366720, Note_off_c, 1, 88, 0
2, 366720, Note_on_c, 1, 87, 54
2, 367200, Note_off_c, 1, 87, 0
2, 367200, Note_on_c, 1, 94, 48
2, 367680, Note_off_c, 1, 94, 0
2, 367680, Note_on_c, 1, 95, 43
2, 367920, Note_off_c, 1, 95, 0
2, 368160, Note_on_c, 1, 54, 43
2, 370080, Note_off_c, 1, 54, 0
2, 370080, Note_on_c, 1, 60, 36
2, 372000, Note_off_c, 1, 60, 0
2, 372000, Note_on_c, 1, 76, 29
2, 373920, Note_off_c, 1, 76, 0
2, 373920, Note_on_c, 1, 69, 34
2, 375840, Note_off_c, 1, 69, 0
2, 376320, Note_on_c, 1, 71, 39
2, 376800, Note_off_c, 1, 71, 0
2, 376800, Note_on_c, 1, 75, 40
2, 377280, Note_off_c, 1, 75, 0
2, 377280, Note_on_c, 1, 78, 41
2, 377760, Note_off_c, 1, 78, 0
2, 378240, Note_on_c, 1, 78, 41
2, 378720, Note_off_c, 1, 78, 0
2, 378720, Note_on_c, 1, 76, 40
2, 379200, Note_off_c, 1, 76, 0
2, 379200, Note_on_c, 1, 75, 40
2, 379680, Note_off_c, 1, 75, 0
2, 380160, Note_on_c, 1, 75, 39
2, 380640, Note_off_c, 1, 75, 0
2, 380640, Note_on_c, 1, 73, 39
2, 381120, Note_off_c, 1, 73, 0
2, 381120, Note_on_c, 1, 71, 38
2, 381600, Note_off_c, 1, 71, 0
2, 382080, Note_on_c, 1, 71, 37
2, 382560, Note_off_c, 1, 71, 0
2, 382560, Note_on_c, 1, 70, 37
2, 383040, Note_off_c, 1, 70, 0
2, 383040, Note_on_c, 1, 68, 36
2, 383520, Note_off_c, 1, 68, 0
2, 384000, Note_on_c, 1, 66, 37
2, 384480, Note_off_c, 1, 66, 0
2, 384480, Note_on_c, 1, 68, 38
2, 384960, Note_off_c, 1, 68, 0
2, 384960, Note_on_c, 1, 70, 39
2, 385440, Note_off_c, 1, 70, 0
2, 385920, Note_on_c, 1, 70, 41
2, 386400, Note_off_c, 1, 70, 0
2, 386400, Note_on_c, 1, 71, 42
2, 386880, Note_off_c, 1, 71, 0
2, 386880, Note_on_c, 1, 73, 42
2, 387360, Note_off_c, 1, 73, 0
2, 387840, Note_on_c, 1, 73, 44
2, 388320, Note_off_c, 1, 73, 0
2, 388320, Note_on_c, 1, 75, 45
2, 388800, Note_off_c, 1, 75, 0
2, 388800, Note_on_c, 1, 76, 46
2, 389760, Note_on_c, 1, 75, 45
2, 389787, Note_off_c, 1, 76, 0
2, 390240, Note_off_c, 1, 75, 0
2, 390240, Note_on_c, 1, 82, 42
2, 390720, Note_off_c, 1, 82, 0
2, 390720, Note_on_c, 1, 83, 39
2, 391665, Note_off_c, 1, 83, 0
2, 391680, Note_on_c, 1, 83, 42
2, 392160, Note_off_c, 1, 83, 0
2, 392160, Note_on_c, 1, 87, 43
2, 392640, Note_off_c, 1, 87, 0
2, 392640, Note_on_c, 1, 90, 45
2, 393120, Note_off_c, 1, 90, 0
2, 393600, Note_on_c, 1, 90, 47
2, 394080, Note_off_c, 1, 90, 0
2, 394080, Note_on_c, 1, 88, 46
2, 394560, Note_off_c, 1, 88, 0
2, 394560, Note_on_c, 1, 87, 45
2, 395040, Note_off_c, 1, 87, 0
2, 395520, Note_on_c, 1, 87, 44
2, 396000, Note_off_c, 1, 87, 0
2, 396000, Note_on_c, 1, 85, 43
2, 396480, Note_off_c, 1, 85, 0
2, 396480, Note_on_c, 1, 83, 43
2, 396960, Note_off_c, 1, 83, 0
2, 397440, Note_on_c, 1, 83, 42
2, 397920, Note_off_c, 1, 83, 0
2, 397920, Note_on_c, 1, 82, 41
2, 398400, Note_off_c, 1, 82, 0
2, 398400, Note_on_c, 1, 80, 40
2, 398880, Note_off_c, 1, 80, 0
2, 399360, Note_on_c, 1, 78, 41
2, 399840, Note_off_c, 1, 78, 0
2, 399840, Note_on_c, 1, 80, 41
2, 400320, Note_off_c, 1, 80, 0
2, 400320, Note_on_c, 1, 82, 42
2, 400800, Note_off_c, 1, 82, 0
2, 401280, Note_on_c, 1, 82, 44
2, 401760, Note_off_c, 1, 82, 0
2, 401760, Note_on_c, 1, 83, 45
2, 402240, Note_off_c, 1, 83, 0
2, 402240, Note_on_c, 1, 85, 45
2, 402720, Note_off_c, 1, 85, 0
2, 403200, Note_on_c, 1, 85, 47
2, 403680, Note_off_c, 1, 85, 0
2, 403680, Note_on_c, 1, 87, 48
2, 404160, Note_off_c, 1, 87, 0
2, 404160, Note_on_c, 1, 88, 49
2, 405035, Note_off_c, 1, 88, 0
2, 405120, Note_on_c, 1, 87, 50
2, 405600, Note_off_c, 1, 87, 0
2, 405600, Note_on_c, 1, 94, 48
2, 406080, Note_off_c, 1, 94, 0
2, 406080, Note_on_c, 1, 95, 46
2, 406560, Note_off_c, 1, 95, 0
2, 406560, Note_on_c, 1, 92, 46
2, 408960, Note_off_c, 1, 92, 0
2, 408960, Note_on_c, 1, 90, 50
2, 409440, Note_off_c, 1, 90, 0
2, 409440, Note_on_c, 1, 94, 51
2, 409920, Note_off_c, 1, 94, 0
2, 409920, Note_on_c, 1, 95, 52
2, 410400, Note_off_c, 1, 95, 0
2, 410400, Note_on_c, 1, 92, 53
2, 412800, Note_off_c, 1, 92, 0
2, 412800, Note_on_c, 1, 90, 57
2, 413280, Note_off_c, 1, 90, 0
2, 413280, Note_on_c, 1, 94, 58
2, 413760, Note_off_c, 1, 94, 0
2, 413760, Note_on_c, 1, 95, 59
2, 414240, Note_off_c, 1, 95, 0
2, 414720, Note_on_c, 1, 87, 54
2, 415200, Note_off_c, 1, 87, 0
2, 415200, Note_on_c, 1, 88, 54
2, 415680, Note_off_c, 1, 88, 0
2, 415680, Note_on_c, 1, 90, 53
2, 416160, Note_off_c, 1, 90, 0
2, 416640, Note_on_c, 1, 83, 52
2, 417120, Note_off_c, 1, 83, 0
2, 417120, Note_on_c, 1, 85, 51
2, 417600, Note_off_c, 1, 85, 0
2, 417600, Note_on_c, 1, 87, 50
2, 418080, Note_off_c, 1, 87, 0
2, 418560, Note_on_c, 1, 78, 49
2, 419040, Note_off_c, 1, 78, 0
2, 419040, Note_on_c, 1, 88, 49
2, 419520, Note_off_c, 1, 88, 0
2, 419520, Note_on_c, 1, 85, 48
2, 420000, Note_off_c, 1, 85, 0
2, 420480, Note_on_c, 1, 85, 47
2, 420960, Note_off_c, 1, 85, 0
2, 420960, Note_on_c, 1, 82, 46
2, 421440, Note_off_c, 1, 82, 0
2, 421440, Note_on_c, 1, 83, 45
2, 421920, Note_off_c, 1, 83, 0
2, 422400, Note_on_c, 1, 75, 44
2, 422880, Note_off_c, 1, 75, 0
2, 422880, Note_on_c, 1, 76, 43
2, 423360, Note_off_c, 1, 76, 0
2, 423360, Note_on_c, 1, 78, 43
2, 423840, Note_off_c, 1, 78, 0
2, 424320, Note_on_c, 1, 71, 41
2, 424800, Note_off_c, 1, 71, 0
2, 424800, Note_on_c, 1, 73, 41
2, 425280, Note_off_c, 1, 73, 0
2, 425280, Note_on_c, 1, 75, 40
2, 425760, Note_off_c, 1, 75, 0
2, 426240, Note_on_c, 1, 66, 39
2, 426720, Note_off_c, 1, 66, 0
2, 426720, Note_on_c, 1, 76, 38
2, 427200, Note_off_c, 1, 76, 0
2, 427200, Note_on_c, 1, 73, 38
2, 427680, Note_off_c, 1, 73, 0
2, 428160, Note_on_c, 1, 73, 37
2, 428640, Note_off_c, 1, 73, 0
2, 428640, Note_on_c, 1, 70, 36
2, 429120, Note_off_c, 1, 70, 0
2, 429120, Note_on_c, 1, 71, 36
2, 429600, Note_off_c, 1, 71, 0
2, 430080, Note_on_c, 1, 66, 34
2, 430560, Note_off_c, 1, 66, 0
2, 430560, Note_on_c, 1, 76, 34
2, 431040, Note_off_c, 1, 76, 0
2, 431040, Note_on_c, 1, 73, 33
2, 431520, Note_off_c, 1, 73, 0
2, 433920, Note_on_c, 1, 73, 30
2, 434400, Note_off_c, 1, 73, 0
2, 434400, Note_on_c, 1, 70, 30
2, 434880, Note_off_c, 1, 70, 0
2, 434880, Note_on_c, 1, 71, 29
2, 435360, Note_off_c, 1, 71, 0
2, 435840, Note_on_c, 1, 66, 28
2, 436320, Note_off_c, 1, 66, 0
2, 436320, Note_on_c, 1, 76, 27
2, 436800, Note_off_c, 1, 76, 0
2, 436800, Note_on_c, 1, 73, 27
2, 437280, Note_off_c, 1, 73, 0
2, 437760, Note_on_c, 1, 73, 26
2, 438240, Note_off_c, 1, 73, 0
2, 438240, Note_on_c, 1, 70, 25
2, 438720, Note_off_c, 1, 70, 0
2, 438720, Note_on_c, 1, 71, 25
2, 439200, Note_off_c, 1, 71, 0
2, 439680, Note_on_c, 1, 71, 23
2, 440160, Note_off_c, 1, 71, 0
2, 440160, Note_on_c, 1, 59, 18
2, 440640, Control_c, 1, 64, 0
2, 440640, Note_off_c, 1, 59, 0
2, 440640, Note_on_c, 1, 54, 76
2, 440880, Note_off_c, 1, 54, 0
2, 441120, Note_on_c, 1, 54, 76
2, 441840, Note_off_c, 1, 54, 0
2, 442080, Note_on_c, 1, 59, 77
2, 442800, Note_off_c, 1, 59, 0
2, 443040, Note_on_c, 1, 61, 77
2, 443520, Note_off_c, 1, 61, 0
2, 443520, Note_on_c, 1, 59, 78
2, 443760, Note_off_c, 1, 59, 0
2, 443760, Note_on_c, 1, 58, 78
2, 444000, Note_off_c, 1, 58, 0
2, 444000, Note_on_c, 1, 59, 78
2, 444240, Note_off_c, 1, 59, 0
2, 444480, Note_on_c, 1, 62, 79
2, 444720, Note_off_c, 1, 62, 0
2, 444960, Note_on_c, 1, 62, 79
2, 445680, Note_off_c, 1, 62, 0
2, 445920, Note_on_c, 1, 66, 80
2, 446640, Note_off_c, 1, 66, 0
2, 446880, Note_on_c, 1, 66, 80
2, 447600, Note_off_c, 1, 66, 0
2, 447840, Note_on_c, 1, 66, 81
2, 448080, Note_off_c, 1, 66, 0
2, 448320, Note_on_c, 1, 66, 81
2, 448560, Note_off_c, 1, 66, 0
2, 448800, Note_on_c, 1, 67, 82
2, 449040, Note_off_c, 1, 67, 0
2, 449280, Note_on_c, 1, 71, 83
2, 449520, Note_off_c, 1, 71, 0
2, 449760, Note_on_c, 1, 74, 92
2, 450000, Note_off_c, 1, 74, 0
2, 450240, Note_on_c, 1, 71, 85
2, 450480, Note_off_c, 1, 71, 0
2, 450720, Note_on_c, 1, 76, 96
2, 450960, Note_off_c, 1, 76, 0
2, 451200, Note_on_c, 1, 72, 87
2, 451440, Note_off_c, 1, 72, 0
2, 451680, Note_on_c, 1, 74, 97
2, 451920, Note_off_c, 1, 74, 0
2, 452160, Note_on_c, 1, 79, 88
2, 452400, Note_off_c, 1, 79, 0
2, 452640, Note_on_c, 1, 83, 99
2, 452880, Note_off_c, 1, 83, 0
2, 453120, Note_on_c, 1, 86, 90
2, 453360, Note_off_c, 1, 86, 0
2, 453600, Note_on_c, 1, 91, 105
2, 453840, Note_off_c, 1, 91, 0
2, 454080, Note_on_c, 1, 74, 59
2, 454320, Note_off_c, 1, 74, 0
2, 454560, Note_on_c, 1, 76, 53
2, 454800, Note_off_c, 1, 76, 0
2, 455040, Note_on_c, 1, 78, 47
2, 455280, Note_off_c, 1, 78, 0
2, 455520, Note_on_c, 1, 79, 41
2, 455760, Note_off_c, 1, 79, 0
2, 456000, Control_c, 1, 64, 0
2, 456000, Note_on_c, 1, 54, 76
2, 456240, Note_off_c, 1, 54, 0
2, 456480, Note_on_c, 1, 54, 76
2, 457200, Note_off_c, 1, 54, 0
2, 457440, Note_on_c, 1, 59, 77
2, 458160, Note_off_c, 1, 59, 0
2, 458400, Note_on_c, 1, 61, 77
2, 458880, Note_off_c, 1, 61, 0
2, 458880, Note_on_c, 1, 59, 78
2, 459120, Note_off_c, 1, 59, 0
2, 459120, Note_on_c, 1, 58, 78
2, 459360, Note_off_c, 1, 58, 0
2, 459360, Note_on_c, 1, 59, 78
2, 459600, Note_off_c, 1, 59, 0
2, 459840, Note_on_c, 1, 62, 79
2, 460080, Note_off_c, 1, 62, 0
2, 460320, Note_on_c, 1, 62, 79
2, 461040, Note_off_c, 1, 62, 0
2, 461280, Note_on_c, 1, 66, 80
2, 462000, Note_off_c, 1, 66, 0
2, 462240, Note_on_c, 1, 66, 80
2, 462960, Note_off_c, 1, 66, 0
2, 463200, Note_on_c, 1, 66, 81
2, 463440, Note_off_c, 1, 66, 0
2, 463680, Note_on_c, 1, 66, 81
2, 463920, Note_off_c, 1, 66, 0
2, 464160, Note_on_c, 1, 67, 82
2, 464400, Note_off_c, 1, 67, 0
2, 464640, Note_on_c, 1, 71, 83
2, 464880, Note_off_c, 1, 71, 0
2, 465120, Note_on_c, 1, 74, 92
2, 465360, Note_off_c, 1, 74, 0
2, 465600, Note_on_c, 1, 71, 85
2, 465840, Note_off_c, 1, 71, 0
2, 466080, Note_on_c, 1, 76, 96
2, 466320, Note_off_c, 1, 76, 0
2, 466560, Note_on_c, 1, 72, 87
2, 466800, Note_off_c, 1, 72, 0
2, 467040, Note_on_c, 1, 74, 97
2, 467280, Note_off_c, 1, 74, 0
2, 467520, Note_on_c, 1, 79, 88
2, 467760, Note_off_c, 1, 79, 0
2, 468000, Note_on_c, 1, 83, 99
2, 468240, Note_off_c, 1, 83, 0
2, 468480, Note_on_c, 1, 86, 90
2, 468720, Note_off_c, 1, 86, 0
2, 468960, Note_on_c, 1, 91, 105
2, 469200, Note_off_c, 1, 91, 0
2, 469440, Note_on_c, 1, 74, 59
2, 469680, Note_off_c, 1, 74, 0
2, 469920, Note_on_c, 1, 76, 53
2, 470160, Note_off_c, 1, 76, 0
2, 470400, Note_on_c, 1, 78, 47
2, 470640, Note_off_c, 1, 78, 0
2, 470880, Note_on_c, 1, 79, 41
2, 471120, Note_off_c, 1, 79, 0
2, 471360, Control_c, 1, 64, 0
2, 471840, Note_on_c, 1, 71, 78
2, 472560, Note_off_c, 1, 71, 0
2, 472800, Note_on_c, 1, 71, 79
2, 473520, Note_off_c, 1, 71, 0
2, 473760, Note_on_c, 1, 71, 81
2, 474480, Note_off_c, 1, 71, 0
2, 474720, Note_on_c, 1, 71, 82
2, 474960, Note_off_c, 1, 71, 0
2, 475200, Note_on_c, 1, 71, 82
2, 475440, Note_off_c, 1, 71, 0
2, 475680, Note_on_c, 1, 71, 83
2, 476400, Note_off_c, 1, 71, 0
2, 476640, Note_on_c, 1, 76, 84
2, 477360, Note_off_c, 1, 76, 0
2, 477600, Note_on_c, 1, 77, 86
2, 478080, Note_off_c, 1, 77, 0
2, 478080, Note_on_c, 1, 76, 84
2, 478320, Note_off_c, 1, 76, 0
2, 478320, Note_on_c, 1, 74, 76
2, 478560, Note_off_c, 1, 74, 0
2, 478560, Note_on_c, 1, 77, 68
2, 478800, Note_off_c, 1, 77, 0
2, 478800, Note_on_c, 1, 74, 59
2, 479040, Note_off_c, 1, 74, 0
2, 479040, Note_on_c, 1, 71, 51
2, 479280, Note_off_c, 1, 71, 0
2, 479280, Note_on_c, 1, 79, 43
2, 479760, Note_off_c, 1, 79, 0
2, 479760, Note_on_c, 1, 76, 45
2, 480000, Note_off_c, 1, 76, 0
2, 480000, Note_on_c, 1, 72, 46
2, 480240, Note_off_c, 1, 72, 0
2, 480240, Note_on_c, 1, 81, 47
2, 480480, Note_off_c, 1, 81, 0
2, 480480, Note_on_c, 1, 77, 49
2, 480720, Note_off_c, 1, 77, 0
2, 480720, Note_on_c, 1, 74, 50
2, 480960, Note_off_c, 1, 74, 0
2, 480960, Note_on_c, 1, 71, 51
2, 481200, Note_off_c, 1, 71, 0
2, 481200, Note_on_c, 1, 79, 52
2, 481440, Note_off_c, 1, 79, 0
2, 481440, Note_on_c, 1, 76, 54
2, 481680, Note_off_c, 1, 76, 0
2, 481680, Note_on_c, 1, 72, 55
2, 481920, Note_off_c, 1, 72, 0
2, 481920, Note_on_c, 1, 67, 56
2, 482160, Note_off_c, 1, 67, 0
2, 482160, Note_on_c, 1, 77, 57
2, 482640, Note_off_c, 1, 77, 0
2, 482640, Note_on_c, 1, 74, 60
2, 482880, Note_off_c, 1, 74, 0
2, 482880, Note_on_c, 1, 71, 61
2, 483120, Note_off_c, 1, 71, 0
2, 483120, Note_on_c, 1, 79, 62
2, 483600, Note_off_c, 1, 79, 0
2, 483600, Note_on_c, 1, 76, 65
2, 483840, Note_off_c, 1, 76, 0
2, 483840, Note_on_c, 1, 72, 66
2, 484080, Note_off_c, 1, 72, 0
2, 484080, Note_on_c, 1, 81, 67
2, 484320, Note_off_c, 1, 81, 0
2, 484320, Note_on_c, 1, 77, 69
2, 484560, Note_off_c, 1, 77, 0
2, 484560, Note_on_c, 1, 74, 70
2, 484800, Note_off_c, 1, 74, 0
2, 484800, Note_on_c, 1, 71, 71
2, 485040, Note_off_c, 1, 71, 0
2, 485040, Note_on_c, 1, 79, 72
2, 485280, Note_off_c, 1, 79, 0
2, 485280, Note_on_c, 1, 77, 74
2, 485520, Note_off_c, 1, 77, 0
2, 485520, Note_on_c, 1, 74, 75
2, 485760, Note_off_c, 1, 74, 0
2, 485760, Note_on_c, 1, 83, 76
2, 486000, Note_off_c, 1, 83, 0
2, 486000, Note_on_c, 1, 74, 77
2, 486240, Note_off_c, 1, 74, 0
2, 486240, Note_on_c, 1, 84, 79
2, 486480, Note_off_c, 1, 84, 0
2, 486720, Note_on_c, 1, 86, 53
2, 487440, Note_off_c, 1, 86, 0
2, 487440, Note_on_c, 1, 83, 58
2, 487680, Note_off_c, 1, 83, 0
2, 487680, Note_on_c, 1, 79, 59
2, 487920, Note_off_c, 1, 79, 0
2, 487920, Note_on_c, 1, 88, 61
2, 488160, Note_off_c, 1, 88, 0
2, 488160, Note_on_c, 1, 84, 63
2, 488400, Note_off_c, 1, 84, 0
2, 488400, Note_on_c, 1, 81, 65
2, 488640, Note_off_c, 1, 81, 0
2, 488640, Note_on_c, 1, 78, 66
2, 488880, Note_off_c, 1, 78, 0
2, 488880, Note_on_c, 1, 86, 68
2, 489120, Note_off_c, 1, 86, 0
2, 489120, Note_on_c, 1, 83, 70
2, 489360, Note_off_c, 1, 83, 0
2, 489360, Note_on_c, 1, 79, 71
2, 489600, Note_off_c, 1, 79, 0
2, 489600, Note_on_c, 1, 74, 73
2, 489840, Note_off_c, 1, 74, 0
2, 489840, Note_on_c, 1, 84, 75
2, 490320, Note_off_c, 1, 84, 0
2, 490320, Note_on_c, 1, 81, 78
2, 490560, Note_off_c, 1, 81, 0
2, 490560, Note_on_c, 1, 78, 80
2, 490800, Note_off_c, 1, 78, 0
2, 490800, Note_on_c, 1, 86, 82
2, 491280, Note_off_c, 1, 86, 0
2, 491280, Note_on_c, 1, 83, 85
2, 491520, Note_off_c, 1, 83, 0
2, 491520, Note_on_c, 1, 79, 87
2, 491760, Note_off_c, 1, 79, 0
2, 491760, Note_on_c, 1, 88, 89
2, 492000, Note_off_c, 1, 88, 0
2, 492000, Note_on_c, 1, 84, 90
2, 492240, Note_off_c, 1, 84, 0
2, 492240, Note_on_c, 1, 81, 92
2, 492480, Note_off_c, 1, 81, 0
2, 492480, Note_on_c, 1, 78, 94
2, 492720, Note_off_c, 1, 78, 0
2, 492720, Note_on_c, 1, 86, 95
2, 492960, Note_off_c, 1, 86, 0
2, 492960, Note_on_c, 1, 84, 97
2, 493200, Note_off_c, 1, 84, 0
2, 493200, Note_on_c, 1, 81, 99
2, 493440, Note_off_c, 1, 81, 0
2, 493440, Note_on_c, 1, 90, 100
2, 493680, Note_off_c, 1, 90, 0
2, 493680, Note_on_c, 1, 81, 102
2, 493920, Note_off_c, 1, 81, 0
2, 493920, Note_on_c, 1, 91, 104
2, 494160, Note_off_c, 1, 91, 0
2, 494400, Note_on_c, 1, 54, 107
2, 494640, Note_off_c, 1, 54, 0
2, 494880, Note_on_c, 1, 54, 111
2, 496800, Note_off_c, 1, 54, 0
2, 498240, Note_on_c, 1, 55, 43
2, 498480, Note_off_c, 1, 55, 0
2, 498720, Note_on_c, 1, 55, 45
2, 499680, Note_on_c, 1, 60, 47
2, 500640, Note_off_c, 1, 60, 0
2, 500640, Note_on_c, 1, 62, 51
2, 501120, Note_off_c, 1, 62, 0
2, 501120, Note_on_c, 1, 60, 48
2, 501360, Note_off_c, 1, 60, 0
2, 501360, Note_on_c, 1, 59, 46
2, 501600, Note_off_c, 1, 59, 0
2, 501600, Note_off_c, 1, 55, 0
2, 501600, Note_on_c, 1, 60, 45
2, 501840, Note_off_c, 1, 60, 0
2, 502080, Note_on_c, 1, 54, 94
2, 502320, Note_off_c, 1, 54, 0
2, 502560, Note_on_c, 1, 54, 96
2, 504480, Note_off_c, 1, 54, 0
2, 505920, Note_on_c, 1, 61, 40
2, 506160, Note_off_c, 1, 61, 0
2, 506400, Note_on_c, 1, 61, 40
2, 507360, Note_off_c, 1, 61, 0
2, 507360, Note_on_c, 1, 66, 41
2, 508320, Note_off_c, 1, 66, 0
2, 508320, Note_on_c, 1, 67, 41
2, 508800, Note_off_c, 1, 67, 0
2, 508800, Note_on_c, 1, 66, 42
2, 509040, Note_off_c, 1, 66, 0
2, 509040, Note_on_c, 1, 65, 42
2, 509280, Note_off_c, 1, 65, 0
2, 509280, Note_on_c, 1, 66, 42
2, 509520, Note_off_c, 1, 66, 0
2, 509760, Note_on_c, 1, 66, 42
2, 510000, Note_off_c, 1, 66, 0
2, 510240, Note_on_c, 1, 66, 43
2, 511200, Note_off_c, 1, 66, 0
2, 511200, Note_on_c, 1, 71, 43
2, 512160, Note_off_c, 1, 71, 0
2, 512160, Note_on_c, 1, 72, 44
2, 512640, Note_off_c, 1, 72, 0
2, 512640, Note_on_c, 1, 71, 44
2, 512880, Note_off_c, 1, 71, 0
2, 512880, Note_on_c, 1, 70, 44
2, 513120, Note_off_c, 1, 70, 0
2, 513120, Note_on_c, 1, 71, 44
2, 513360, Note_off_c, 1, 71, 0
2, 513600, Note_on_c, 1, 71, 45
2, 513840, Note_off_c, 1, 71, 0
2, 514080, Note_on_c, 1, 71, 45
2, 515040, Note_off_c, 1, 71, 0
2, 515040, Note_on_c, 1, 71, 46
2, 515280, Note_off_c, 1, 71, 0
2, 515520, Note_on_c, 1, 71, 46
2, 515760, Note_off_c, 1, 71, 0
2, 516000, Note_on_c, 1, 71, 46
2, 516960, Note_off_c, 1, 71, 0
2, 516960, Note_on_c, 1, 76, 47
2, 517920, Note_off_c, 1, 76, 0
2, 517920, Note_on_c, 1, 78, 47
2, 518400, Note_off_c, 1, 78, 0
2, 518400, Note_on_c, 1, 76, 48
2, 518640, Note_off_c, 1, 76, 0
2, 518640, Note_on_c, 1, 75, 48
2, 518880, Note_off_c, 1, 75, 0
2, 518880, Note_on_c, 1, 76, 48
2, 519120, Note_off_c, 1, 76, 0
2, 519360, Note_on_c, 1, 79, 48
2, 519600, Note_off_c, 1, 79, 0
2, 519840, Note_on_c, 1, 78, 49
2, 520080, Note_off_c, 1, 78, 0
2, 520320, Note_on_c, 1, 83, 49
2, 520560, Note_off_c, 1, 83, 0
2, 520800, Note_on_c, 1, 78, 49
2, 521040, Note_off_c, 1, 78, 0
2, 521280, Note_on_c, 1, 83, 50
2, 521520, Note_off_c, 1, 83, 0
2, 521760, Note_on_c, 1, 78, 50
2, 522000, Note_off_c, 1, 78, 0
2, 522240, Note_on_c, 1, 83, 50
2, 522480, Note_off_c, 1, 83, 0
2, 522720, Note_on_c, 1, 81, 50
2, 523200, Note_off_c, 1, 81, 0
2, 523200, Note_on_c, 1, 79, 51
2, 523440, Note_off_c, 1, 79, 0
2, 523440, Note_on_c, 1, 81, 51
2, 523680, Note_off_c, 1, 81, 0
2, 523680, Note_on_c, 1, 83, 51
2, 524640, Note_off_c, 1, 83, 0
2, 524640, Note_on_c, 1, 88, 52
2, 525600, Note_off_c, 1, 88, 0
2, 525600, Note_on_c, 1, 90, 52
2, 526080, Note_on_c, 1, 88, 53
2, 526320, Note_off_c, 1, 88, 0
2, 526320, Note_off_c, 1, 90, 0
2, 526320, Note_on_c, 1, 87, 53
2, 526560, Note_off_c, 1, 87, 0
2, 526560, Note_on_c, 1, 88, 53
2, 526800, Note_off_c, 1, 88, 0
2, 527040, Note_on_c, 1, 91, 53
2, 527280, Note_off_c, 1, 91, 0
2, 527520, Note_on_c, 1, 85, 54
2, 527760, Note_off_c, 1, 85, 0
2, 528000, Note_on_c, 1, 90, 54
2, 528240, Note_off_c, 1, 90, 0
2, 528480, Note_on_c, 1, 85, 54
2, 528720, Note_off_c, 1, 85, 0
2, 528960, Note_on_c, 1, 90, 54
2, 529200, Note_off_c, 1, 90, 0
2, 529440, Note_on_c, 1, 85, 55
2, 529680, Note_off_c, 1, 85, 0
2, 529920, Note_on_c, 1, 90, 55
2, 530160, Note_off_c, 1, 90, 0
2, 530400, Note_on_c, 1, 88, 55
2, 530640, Note_off_c, 1, 88, 0
2, 530880, Note_on_c, 1, 85, 78
2, 531120, Note_off_c, 1, 85, 0
2, 531360, Note_on_c, 1, 54, 78
2, 532320, Note_off_c, 1, 54, 0
2, 532320, Note_on_c, 1, 59, 78
2, 533280, Note_off_c, 1, 59, 0
2, 533280, Note_on_c, 1, 61, 79
2, 533760, Note_off_c, 1, 61, 0
2, 533760, Note_on_c, 1, 59, 79
2, 534000, Note_off_c, 1, 59, 0
2, 534000, Note_on_c, 1, 58, 79
2, 534240, Note_off_c, 1, 58, 0
2, 534240, Note_on_c, 1, 59, 80
2, 534480, Note_off_c, 1, 59, 0
2, 534720, Note_on_c, 1, 62, 80
2, 534960, Note_off_c, 1, 62, 0
2, 535200, Note_on_c, 1, 62, 80
2, 536160, Note_off_c, 1, 62, 0
2, 536160, Note_on_c, 1, 66, 81
2, 537120, Note_off_c, 1, 66, 0
2, 537120, Note_on_c, 1, 66, 81
2, 538080, Note_off_c, 1, 66, 0
2, 538080, Note_on_c, 1, 66, 82
2, 538320, Note_off_c, 1, 66, 0
2, 538560, Control_c, 1, 64, 0
2, 538560, Control_c, 1, 64, 0
2, 538560, Note_on_c, 1, 66, 82
2, 538800, Note_off_c, 1, 66, 0
2, 539040, Note_on_c, 1, 67, 90
2, 539280, Note_off_c, 1, 67, 0
2, 539520, Note_on_c, 1, 71, 83
2, 539760, Note_off_c, 1, 71, 0
2, 540000, Note_on_c, 1, 74, 83
2, 540240, Note_off_c, 1, 74, 0
2, 540480, Note_on_c, 1, 71, 84
2, 540720, Note_off_c, 1, 71, 0
2, 540960, Note_on_c, 1, 66, 91
2, 541200, Note_off_c, 1, 66, 0
2, 541440, Note_on_c, 1, 71, 85
2, 541680, Note_off_c, 1, 71, 0
2, 541920, Note_on_c, 1, 74, 86
2, 542160, Note_off_c, 1, 74, 0
2, 542400, Note_on_c, 1, 71, 87
2, 542640, Note_off_c, 1, 71, 0
2, 542880, Note_on_c, 1, 64, 95
2, 543120, Note_off_c, 1, 64, 0
2, 543360, Note_on_c, 1, 71, 88
2, 543600, Note_off_c, 1, 71, 0
2, 543840, Note_on_c, 1, 74, 89
2, 544080, Note_off_c, 1, 74, 0
2, 544320, Note_on_c, 1, 71, 89
2, 544560, Note_off_c, 1, 71, 0
2, 544800, Note_on_c, 1, 62, 99
2, 545040, Note_off_c, 1, 62, 0
2, 545280, Note_on_c, 1, 71, 91
2, 545520, Note_off_c, 1, 71, 0
2, 545760, Note_on_c, 1, 74, 91
2, 546000, Note_off_c, 1, 74, 0
2, 546240, Note_on_c, 1, 71, 92
2, 546480, Note_off_c, 1, 71, 0
2, 546720, Note_on_c, 1, 71, 100
2, 546960, Note_off_c, 1, 71, 0
2, 547200, Control_c, 1, 64, 0
2, 547200, Note_on_c, 1, 74, 93
2, 547440, Note_off_c, 1, 74, 0
2, 547680, Note_on_c, 1, 78, 102
2, 547920, Note_off_c, 1, 78, 0
2, 548160, Note_on_c, 1, 74, 95
2, 548400, Note_off_c, 1, 74, 0
2, 548640, Note_on_c, 1, 79, 102
2, 548880, Note_off_c, 1, 79, 0
2, 549120, Note_on_c, 1, 76, 96
2, 549360, Note_off_c, 1, 76, 0
2, 549600, Note_on_c, 1, 78, 104
2, 549840, Note_off_c, 1, 78, 0
2, 550080, Note_on_c, 1, 83, 97
2, 550320, Note_off_c, 1, 83, 0
2, 550560, Note_on_c, 1, 86, 106
2, 550800, Note_off_c, 1, 86, 0
2, 551040, Note_on_c, 1, 90, 99
2, 551280, Note_off_c, 1, 90, 0
2, 551520, Note_on_c, 1, 95, 108
2, 551760, Note_off_c, 1, 95, 0
2, 552000, Note_on_c, 1, 78, 65
2, 552240, Note_off_c, 1, 78, 0
2, 552480, Note_on_c, 1, 78, 59
2, 552720, Note_off_c, 1, 78, 0
2, 552960, Note_on_c, 1, 82, 52
2, 553200, Note_off_c, 1, 82, 0
2, 553440, Note_on_c, 1, 83, 45
2, 553680, Note_off_c, 1, 83, 0
2, 553920, Control_c, 1, 64, 0
2, 553920, Control_c, 1, 64, 0
2, 553920, Note_on_c, 1, 66, 82
2, 554160, Note_off_c, 1, 66, 0
2, 554400, Note_on_c, 1, 67, 90
2, 554640, Note_off_c, 1, 67, 0
2, 554880, Note_on_c, 1, 71, 83
2, 555120, Note_off_c, 1, 71, 0
2, 555360, Note_on_c, 1, 74, 83
2, 555600, Note_off_c, 1, 74, 0
2, 555840, Note_on_c, 1, 71, 84
2, 556080, Note_off_c, 1, 71, 0
2, 556320, Note_on_c, 1, 66, 91
2, 556560, Note_off_c, 1, 66, 0
2, 556800, Note_on_c, 1, 71, 85
2, 557040, Note_off_c, 1, 71, 0
2, 557280, Note_on_c, 1, 74, 86
2, 557520, Note_off_c, 1, 74, 0
2, 557760, Note_on_c, 1, 71, 87
2, 558000, Note_off_c, 1, 71, 0
2, 558240, Note_on_c, 1, 64, 95
2, 558480, Note_off_c, 1, 64, 0
2, 558720, Note_on_c, 1, 71, 88
2, 558960, Note_off_c, 1, 71, 0
2, 559200, Note_on_c, 1, 74, 89
2, 559440, Note_off_c, 1, 74, 0
2, 559680, Note_on_c, 1, 71, 89
2, 559920, Note_off_c, 1, 71, 0
2, 560160, Note_on_c, 1, 62, 99
2, 560400, Note_off_c, 1, 62, 0
2, 560640, Note_on_c, 1, 71, 91
2, 560880, Note_off_c, 1, 71, 0
2, 561120, Note_on_c, 1, 74, 91
2, 561360, Note_off_c, 1, 74, 0
2, 561600, Note_on_c, 1, 71, 92
2, 561840, Note_off_c, 1, 71, 0
2, 563520, Control_c, 1, 64, 0
2, 564480, Note_on_c, 1, 71, 47
2, 564960, Note_off_c, 1, 71, 0
2, 564960, Note_on_c, 1, 75, 48
2, 565440, Note_off_c, 1, 75, 0
2, 565440, Note_on_c, 1, 78, 49
2, 565920, Note_off_c, 1, 78, 0
2, 566400, Note_on_c, 1, 78, 49
2, 566880, Note_off_c, 1, 78, 0
2, 566880, Note_on_c, 1, 76, 48
2, 567360, Note_off_c, 1, 76, 0
2, 567360, Note_on_c, 1, 75, 48
2, 567840, Note_off_c, 1, 75, 0
2, 568320, Note_on_c, 1, 75, 47
2, 568800, Note_off_c, 1, 75, 0
2, 568800, Note_on_c, 1, 73, 46
2, 569280, Note_off_c, 1, 73, 0
2, 569280, Note_on_c, 1, 71, 46
2, 569760, Note_off_c, 1, 71, 0
2, 570240, Note_on_c, 1, 71, 45
2, 570720, Note_off_c, 1, 71, 0
2, 570720, Note_on_c, 1, 70, 44
2, 571200, Note_off_c, 1, 70, 0
2, 571200, Note_on_c, 1, 68, 44
2, 571680, Note_off_c, 1, 68, 0
2, 572160, Note_on_c, 1, 66, 45
2, 572640, Note_off_c, 1, 66, 0
2, 572640, Note_on_c, 1, 68, 45
2, 573120, Note_off_c, 1, 68, 0
2, 573120, Note_on_c, 1, 70, 46
2, 573600, Note_off_c, 1, 70, 0
2, 574080, Note_on_c, 1, 70, 48
2, 574560, Note_off_c, 1, 70, 0
2, 574560, Note_on_c, 1, 71, 49
2, 575040, Note_off_c, 1, 71, 0
2, 575040, Note_on_c, 1, 73, 49
2, 575520, Note_off_c, 1, 73, 0
2, 576000, Note_on_c, 1, 73, 51
2, 576480, Note_off_c, 1, 73, 0
2, 576480, Note_on_c, 1, 75, 52
2, 576960, Note_off_c, 1, 75, 0
2, 576960, Note_on_c, 1, 76, 52
2, 577920, Note_off_c, 1, 76, 0
2, 577920, Note_on_c, 1, 73, 50
2, 578400, Note_off_c, 1, 73, 0
2, 578400, Note_on_c, 1, 82, 47
2, 578880, Note_off_c, 1, 82, 0
2, 578880, Note_on_c, 1, 83, 44
2, 579360, Note_off_c, 1, 83, 0
2, 579840, Note_on_c, 1, 83, 46
2, 580320, Note_off_c, 1, 83, 0
2, 580320, Note_on_c, 1, 87, 47
2, 580800, Note_off_c, 1, 87, 0
2, 580800, Note_on_c, 1, 90, 51
2, 581280, Note_off_c, 1, 90, 0
2, 581760, Note_on_c, 1, 90, 50
2, 582240, Note_off_c, 1, 90, 0
2, 582240, Note_on_c, 1, 88, 50
2, 582720, Note_off_c, 1, 88, 0
2, 582720, Note_on_c, 1, 87, 50
2, 583200, Note_off_c, 1, 87, 0
2, 583680, Note_on_c, 1, 87, 49
2, 584160, Note_off_c, 1, 87, 0
2, 584160, Note_on_c, 1, 85, 48
2, 584640, Note_off_c, 1, 85, 0
2, 584640, Note_on_c, 1, 83, 48
2, 585120, Note_off_c, 1, 83, 0
2, 585600, Note_on_c, 1, 83, 47
2, 586080, Note_off_c, 1, 83, 0
2, 586080, Note_on_c, 1, 82, 46
2, 586560, Note_off_c, 1, 82, 0
2, 586560, Note_on_c, 1, 80, 46
2, 587040, Note_off_c, 1, 80, 0
2, 587520, Note_on_c, 1, 78, 47
2, 588000, Note_off_c, 1, 78, 0
2, 588000, Note_on_c, 1, 80, 49
2, 588480, Note_off_c, 1, 80, 0
2, 588480, Note_on_c, 1, 82, 50
2, 588960, Note_off_c, 1, 82, 0
2, 589440, Note_on_c, 1, 82, 52
2, 589920, Note_off_c, 1, 82, 0
2, 589920, Note_on_c, 1, 83, 53
2, 590400, Note_off_c, 1, 83, 0
2, 590400, Note_on_c, 1, 85, 54
2, 590880, Note_off_c, 1, 85, 0
2, 591360, Note_on_c, 1, 85, 57
2, 591840, Note_off_c, 1, 85, 0
2, 591840, Note_on_c, 1, 87, 58
2, 592320, Note_off_c, 1, 87, 0
2, 592320, Note_on_c, 1, 88, 59
2, 593280, Note_off_c, 1, 88, 0
2, 593280, Note_on_c, 1, 87, 54
2, 593760, Note_off_c, 1, 87, 0
2, 593760, Note_on_c, 1, 94, 48
2, 594240, Note_off_c, 1, 94, 0
2, 594240, Note_on_c, 1, 95, 43
2, 594480, Note_off_c, 1, 95, 0
2, 594720, Note_on_c, 1, 54, 43
2, 596640, Note_off_c, 1, 54, 0
2, 596640, Note_on_c, 1, 60, 36
2, 598560, Note_off_c, 1, 60, 0
2, 598560, Note_on_c, 1, 76, 29
2, 600480, Note_off_c, 1, 76, 0
2, 600480, Note_on_c, 1, 69, 34
2, 602400, Note_off_c, 1, 69, 0
2, 602880, Note_on_c, 1, 71, 39
2, 603360, Note_off_c, 1, 71, 0
2, 603360, Note_on_c, 1, 75, 40
2, 603840, Note_off_c, 1, 75, 0
2, 603840, Note_on_c, 1, 78, 41
2, 604320, Note_off_c, 1, 78, 0
2, 604800, Note_on_c, 1, 78, 41
2, 605280, Note_off_c, 1, 78, 0
2, 605280, Note_on_c, 1, 76, 40
2, 605760, Note_off_c, 1, 76, 0
2, 605760, Note_on_c, 1, 75, 40
2, 606240, Note_off_c, 1, 75, 0
2, 606720, Note_on_c, 1, 75, 39
2, 607200, Note_off_c, 1, 75, 0
2, 607200, Note_on_c, 1, 73, 39
2, 607680, Note_off_c, 1, 73, 0
2, 607680, Note_on_c, 1, 71, 38
2, 608160, Note_off_c, 1, 71, 0
2, 608640, Note_on_c, 1, 71, 37
2, 609120, Note_off_c, 1, 71, 0
2, 609120, Note_on_c, 1, 70, 37
2, 609600, Note_off_c, 1, 70, 0
2, 609600, Note_on_c, 1, 68, 36
2, 610080, Note_off_c, 1, 68, 0
2, 610560, Note_on_c, 1, 66, 37
2, 611040, Note_off_c, 1, 66, 0
2, 611040, Note_on_c, 1, 68, 38
2, 611520, Note_off_c, 1, 68, 0
2, 611520, Note_on_c, 1, 70, 39
2, 612000, Note_off_c, 1, 70, 0
2, 612480, Note_on_c, 1, 70, 41
2, 612960, Note_off_c, 1, 70, 0
2, 612960, Note_on_c, 1, 71, 42
2, 613440, Note_off_c, 1, 71, 0
2, 613440, Note_on_c, 1, 73, 42
2, 613920, Note_off_c, 1, 73, 0
2, 614400, Note_on_c, 1, 73, 44
2, 614880, Note_off_c, 1, 73, 0
2, 614880, Note_on_c, 1, 75, 45
2, 615360, Note_off_c, 1, 75, 0
2, 615360, Note_on_c, 1, 76, 46
2, 616320, Note_on_c, 1, 75, 45
2, 616347, Note_off_c, 1, 76, 0
2, 616800, Note_off_c, 1, 75, 0
2, 616800, Note_on_c, 1, 82, 42
2, 617280, Note_off_c, 1, 82, 0
2, 617280, Note_on_c, 1, 83, 39
2, 618225, Note_off_c, 1, 83, 0
2, 618240, Note_on_c, 1, 83, 42
2, 618720, Note_off_c, 1, 83, 0
2, 618720, Note_on_c, 1, 87, 43
2, 619200, Note_off_c, 1, 87, 0
2, 619200, Note_on_c, 1, 90, 45
2, 619680, Note_off_c, 1, 90, 0
2, 620160, Note_on_c, 1, 90, 47
2, 620640, Note_off_c, 1, 90, 0
2, 620640, Note_on_c, 1, 88, 46
2, 621120, Note_off_c, 1, 88, 0
2, 621120, Note_on_c, 1, 87, 45
2, 621600, Note_off_c, 1, 87, 0
2, 622080, Note_on_c, 1, 87, 44
2, 622560, Note_off_c, 1, 87, 0
2, 622560, Note_on_c, 1, 85, 43
2, 623040, Note_off_c, 1, 85, 0
2, 623040, Note_on_c, 1, 83, 43
2, 623520, Note_off_c, 1, 83, 0
2, 624000, Note_on_c, 1, 83, 42
2, 624480, Note_off_c, 1, 83, 0
2, 624480, Note_on_c, 1, 82, 41
2, 624960, Note_off_c, 1, 82, 0
2, 624960, Note_on_c, 1, 80, 40
2, 625440, Note_off_c, 1, 80, 0
2, 625920, Note_on_c, 1, 78, 41
2, 626400, Note_off_c, 1, 78, 0
2, 626400, Note_on_c, 1, 80, 41
2, 626880, Note_off_c, 1, 80, 0
2, 626880, Note_on_c, 1, 82, 42
2, 627360, Note_off_c, 1, 82, 0
2, 627840, Note_on_c, 1, 82, 44
2, 628320, Note_off_c, 1, 82, 0
2, 628320, Note_on_c, 1, 83, 45
2, 628800, Note_off_c, 1, 83, 0
2, 628800, Note_on_c, 1, 85, 45
2, 629280, Note_off_c, 1, 85, 0
2, 629760, Note_on_c, 1, 85, 47
2, 630240, Note_off_c, 1, 85, 0
2, 630240, Note_on_c, 1, 87, 48
2, 630720, Note_off_c, 1, 87, 0
2, 630720, Note_on_c, 1, 88, 49
2, 631595, Note_off_c, 1, 88, 0
2, 631680, Note_on_c, 1, 87, 50
2, 632160, Note_off_c, 1, 87, 0
2, 632160, Note_on_c, 1, 94, 48
2, 632640, Note_off_c, 1, 94, 0
2, 632640, Note_on_c, 1, 95, 46
2, 633120, Note_off_c, 1, 95, 0
2, 633120, Note_on_c, 1, 92, 46
2, 635520, Note_off_c, 1, 92, 0
2, 635520, Note_on_c, 1, 90, 50
2, 636000, Note_off_c, 1, 90, 0
2, 636000, Note_on_c, 1, 94, 51
2, 636480, Note_off_c, 1, 94, 0
2, 636480, Note_on_c, 1, 95, 52
2, 636960, Note_off_c, 1, 95, 0
2, 636960, Note_on_c, 1, 92, 53
2, 639360, Note_off_c, 1, 92, 0
2, 639360, Note_on_c, 1, 90, 57
2, 639840, Note_off_c, 1, 90, 0
2, 639840, Note_on_c, 1, 94, 58
2, 640320, Note_off_c, 1, 94, 0
2, 640320, Note_on_c, 1, 95, 59
2, 640800, Note_off_c, 1, 95, 0
2, 641280, Note_on_c, 1, 87, 54
2, 641760, Note_off_c, 1, 87, 0
2, 641760, Note_on_c, 1, 88, 54
2, 642240, Note_off_c, 1, 88, 0
2, 642240, Note_on_c, 1, 90, 53
2, 642720, Note_off_c, 1, 90, 0
2, 643200, Note_on_c, 1, 83, 52
2, 643680, Note_off_c, 1, 83, 0
2, 643680, Note_on_c, 1, 85, 51
2, 644160, Note_off_c, 1, 85, 0
2, 644160, Note_on_c, 1, 87, 50
2, 644640, Note_off_c, 1, 87, 0
2, 645120, Note_on_c, 1, 78, 49
2, 645600, Note_off_c, 1, 78, 0
2, 645600, Note_on_c, 1, 88, 49
2, 646080, Note_off_c, 1, 88, 0
2, 646080, Note_on_c, 1, 85, 48
2, 646560, Note_off_c, 1, 85, 0
2, 647040, Note_on_c, 1, 85, 47
2, 647520, Note_off_c, 1, 85, 0
2, 647520, Note_on_c, 1, 82, 46
2, 648000, Note_off_c, 1, 82, 0
2, 648000, Note_on_c, 1, 83, 45
2, 648480, Note_off_c, 1, 83, 0
2, 648960, Note_on_c, 1, 75, 44
2, 649440, Note_off_c, 1, 75, 0
2, 649440, Note_on_c, 1, 76, 43
2, 649920, Note_off_c, 1, 76, 0
2, 649920, Note_on_c, 1, 78, 43
2, 650400, Note_off_c, 1, 78, 0
2, 650880, Note_on_c, 1, 71, 41
2, 651360, Note_off_c, 1, 71, 0
2, 651360, Note_on_c, 1, 73, 41
2, 651840, Note_off_c, 1, 73, 0
2, 651840, Note_on_c, 1, 75, 40
2, 652320, Note_off_c, 1, 75, 0
2, 652800, Note_on_c, 1, 66, 39
2, 653280, Note_off_c, 1, 66, 0
2, 653280, Note_on_c, 1, 76, 38
2, 653760, Note_off_c, 1, 76, 0
2, 653760, Note_on_c, 1, 73, 38
2, 654240, Note_off_c, 1, 73, 0
2, 654720, Note_on_c, 1, 73, 37
2, 655200, Note_off_c, 1, 73, 0
2, 655200, Note_on_c, 1, 70, 36
2, 655680, Note_off_c, 1, 70, 0
2, 655680, Note_on_c, 1, 71, 36
2, 656160, Note_off_c, 1, 71, 0
2, 656640, Note_on_c, 1, 66, 34
2, 657120, Note_off_c, 1, 66, 0
2, 657120, Note_on_c, 1, 76, 34
2, 657600, Note_off_c, 1, 76, 0
2, 657600, Note_on_c, 1, 73, 33
2, 658080, Note_off_c, 1, 73, 0
2, 660480, Note_on_c, 1, 73, 30
2, 660960, Note_off_c, 1, 73, 0
2, 660960, Note_on_c, 1, 70, 30
2, 661440, Note_off_c, 1, 70, 0
2, 661440, Note_on_c, 1, 71, 29
2, 661920, Note_off_c, 1, 71, 0
2, 662400, Note_on_c, 1, 66, 28
2, 662880, Note_off_c, 1, 66, 0
2, 662880, Note_on_c, 1, 76, 27
2, 663360, Note_off_c, 1, 76, 0
2, 663360, Note_on_c, 1, 73, 27
2, 663840, Note_off_c, 1, 73, 0
2, 664320, Note_on_c, 1, 73, 26
2, 664800, Note_off_c, 1, 73, 0
2, 664800, Note_on_c, 1, 70, 25
2, 665280, Note_off_c, 1, 70, 0
2, 665280, Note_on_c, 1, 71, 25
2, 665760, Note_off_c, 1, 71, 0
2, 666240, Note_on_c, 1, 71, 23
2, 666720, Note_off_c, 1, 71, 0
2, 666720, Note_on_c, 1, 59, 20
2, 667200, Control_c, 1, 64, 0
2, 667200, Note_off_c, 1, 59, 0
2, 673440, Control_c, 1, 64, 0
2, 673440, Note_on_c, 1, 67, 42
2, 673680, Note_off_c, 1, 67, 0
2, 673680, Note_on_c, 1, 71, 42
2, 673920, Note_off_c, 1, 71, 0
2, 673920, Note_on_c, 1, 72, 43
2, 674160, Note_off_c, 1, 72, 0
2, 674160, Note_on_c, 1, 74, 43
2, 675120, Note_off_c, 1, 74, 0
2, 675120, Note_on_c, 1, 76, 45
2, 675360, Note_off_c, 1, 76, 0
2, 675360, Note_on_c, 1, 73, 45
2, 675600, Note_off_c, 1, 73, 0
2, 675600, Note_on_c, 1, 74, 46
2, 676320, Note_off_c, 1, 74, 0
2, 676320, Note_on_c, 1, 71, 48
2, 676560, Note_off_c, 1, 71, 0
2, 676560, Note_on_c, 1, 67, 47
2, 676800, Note_off_c, 1, 67, 0
2, 676800, Note_on_c, 1, 69, 47
2, 677040, Note_off_c, 1, 69, 0
2, 677040, Note_on_c, 1, 71, 46
2, 678000, Note_off_c, 1, 71, 0
2, 678000, Note_on_c, 1, 72, 44
2, 678240, Note_off_c, 1, 72, 0
2, 678240, Note_on_c, 1, 70, 43
2, 678480, Note_off_c, 1, 70, 0
2, 678480, Note_on_c, 1, 71, 42
2, 679200, Note_off_c, 1, 71, 0
2, 679200, Note_on_c, 1, 72, 44
2, 679440, Note_off_c, 1, 72, 0
2, 679440, Note_on_c, 1, 74, 46
2, 679680, Note_off_c, 1, 74, 0
2, 679680, Note_on_c, 1, 76, 47
2, 680160, Note_off_c, 1, 76, 0
2, 680160, Note_on_c, 1, 74, 50
2, 680400, Note_off_c, 1, 74, 0
2, 680400, Note_on_c, 1, 79, 51
2, 680880, Note_off_c, 1, 79, 0
2, 680880, Note_on_c, 1, 78, 54
2, 681120, Note_off_c, 1, 78, 0
2, 681120, Note_on_c, 1, 81, 57
2, 681600, Note_off_c, 1, 81, 0
2, 681600, Note_on_c, 1, 79, 52
2, 681840, Note_off_c, 1, 79, 0
2, 681840, Note_on_c, 1, 71, 51
2, 682320, Note_off_c, 1, 71, 0
2, 682320, Note_on_c, 1, 69, 49
2, 682560, Note_off_c, 1, 69, 0
2, 682560, Note_on_c, 1, 71, 48
2, 682800, Note_off_c, 1, 71, 0
2, 682800, Note_on_c, 1, 74, 47
2, 683040, Note_off_c, 1, 74, 0
2, 683040, Note_on_c, 1, 72, 46
2, 683280, Note_off_c, 1, 72, 0
2, 683280, Note_on_c, 1, 69, 46
2, 683520, Note_off_c, 1, 69, 0
2, 683520, Note_on_c, 1, 67, 45
2, 683760, Note_off_c, 1, 67, 0
2, 683760, Note_on_c, 1, 66, 44
2, 684000, Note_off_c, 1, 66, 0
2, 684000, Note_on_c, 1, 67, 43
2, 684240, Note_off_c, 1, 67, 0
2, 684240, Note_on_c, 1, 71, 42
2, 684480, Note_off_c, 1, 71, 0
2, 684480, Note_on_c, 1, 69, 41
2, 684720, Note_off_c, 1, 69, 0
2, 684720, Note_on_c, 1, 66, 40
2, 684960, Control_c, 1, 64, 0
2, 684960, Note_off_c, 1, 66, 0
2, 684960, Note_on_c, 1, 67, 40
2, 685200, Note_off_c, 1, 67, 0
2, 685200, Note_on_c, 1, 71, 41
2, 685440, Note_off_c, 1, 71, 0
2, 685440, Note_on_c, 1, 72, 42
2, 685680, Note_off_c, 1, 72, 0
2, 685680, Note_on_c, 1, 74, 42
2, 686640, Note_off_c, 1, 74, 0
2, 686640, Note_on_c, 1, 76, 45
2, 686880, Note_off_c, 1, 76, 0
2, 686880, Note_on_c, 1, 74, 46
2, 687120, Note_off_c, 1, 74, 0
2, 687120, Note_on_c, 1, 75, 54
2, 687840, Note_off_c, 1, 75, 0
2, 687840, Note_on_c, 1, 76, 48
2, 688080, Note_off_c, 1, 76, 0
2, 688080, Note_on_c, 1, 76, 49
2, 688320, Note_off_c, 1, 76, 0
2, 688320, Note_on_c, 1, 78, 49
2, 688560, Note_off_c, 1, 78, 0
2, 688560, Note_on_c, 1, 79, 50
2, 689520, Note_off_c, 1, 79, 0
2, 689520, Note_on_c, 1, 78, 53
2, 689760, Note_off_c, 1, 78, 0
2, 689760, Note_on_c, 1, 83, 53
2, 690240, Note_off_c, 1, 83, 0
2, 690240, Note_on_c, 1, 78, 55
2, 690480, Note_off_c, 1, 78, 0
2, 690480, Note_on_c, 1, 81, 57
2, 690960, Note_off_c, 1, 81, 0
2, 690960, Note_on_c, 1, 76, 56
2, 691200, Note_off_c, 1, 76, 0
2, 691200, Note_on_c, 1, 79, 55
2, 691680, Note_off_c, 1, 79, 0
2, 691680, Note_on_c, 1, 75, 53
2, 691920, Note_off_c, 1, 75, 0
2, 691920, Note_on_c, 1, 78, 53
2, 692400, Note_off_c, 1, 78, 0
2, 692400, Note_on_c, 1, 76, 51
2, 692640, Note_off_c, 1, 76, 0
2, 692640, Note_on_c, 1, 71, 50
2, 692880, Note_off_c, 1, 71, 0
2, 692880, Note_on_c, 1, 74, 50
2, 693120, Note_off_c, 1, 74, 0
2, 693120, Note_on_c, 1, 72, 49
2, 693360, Note_off_c, 1, 72, 0
2, 693360, Note_on_c, 1, 71, 48
2, 693840, Note_off_c, 1, 71, 0
2, 693840, Note_on_c, 1, 69, 47
2, 694080, Note_off_c, 1, 69, 0
2, 694080, Note_on_c, 1, 68, 46
2, 694320, Note_off_c, 1, 68, 0
2, 694320, Note_on_c, 1, 69, 45
2, 694560, Note_off_c, 1, 69, 0
2, 694560, Note_on_c, 1, 76, 44
2, 694800, Note_off_c, 1, 76, 0
2, 694800, Note_on_c, 1, 70, 44
2, 695040, Note_off_c, 1, 70, 0
2, 695040, Note_on_c, 1, 70, 43
2, 695280, Note_off_c, 1, 70, 0
2, 695280, Note_on_c, 1, 71, 42
2, 695472, Note_off_c, 1, 71, 0
2, 695520, Note_on_c, 1, 71, 41
2, 695712, Note_off_c, 1, 71, 0
2, 695760, Note_on_c, 1, 71, 40
2, 696120, Note_off_c, 1, 71, 0
2, 696240, Note_on_c, 1, 67, 49
2, 696432, Note_off_c, 1, 67, 0
2, 696480, Control_c, 1, 64, 0
2, 696480, Note_on_c, 1, 67, 42
2, 696720, Note_off_c, 1, 67, 0
2, 696720, Note_on_c, 1, 71, 42
2, 696960, Note_off_c, 1, 71, 0
2, 696960, Note_on_c, 1, 72, 43
2, 697200, Note_off_c, 1, 72, 0
2, 697200, Note_on_c, 1, 74, 43
2, 698160, Note_off_c, 1, 74, 0
2, 698160, Note_on_c, 1, 76, 45
2, 698400, Note_off_c, 1, 76, 0
2, 698400, Note_on_c, 1, 73, 45
2, 698640, Note_off_c, 1, 73, 0
2, 698640, Note_on_c, 1, 74, 46
2, 699360, Note_off_c, 1, 74, 0
2, 699360, Note_on_c, 1, 71, 48
2, 699600, Note_off_c, 1, 71, 0
2, 699600, Note_on_c, 1, 67, 47
2, 699840, Note_off_c, 1, 67, 0
2, 699840, Note_on_c, 1, 69, 47
2, 700080, Note_off_c, 1, 69, 0
2, 700080, Note_on_c, 1, 71, 46
2, 701040, Note_off_c, 1, 71, 0
2, 701040, Note_on_c, 1, 72, 44
2, 701280, Note_off_c, 1, 72, 0
2, 701280, Note_on_c, 1, 70, 43
2, 701520, Note_off_c, 1, 70, 0
2, 701520, Note_on_c, 1, 71, 42
2, 702240, Note_off_c, 1, 71, 0
2, 702240, Note_on_c, 1, 72, 44
2, 702480, Note_off_c, 1, 72, 0
2, 702480, Note_on_c, 1, 74, 46
2, 702720, Note_off_c, 1, 74, 0
2, 702720, Note_on_c, 1, 76, 47
2, 703200, Note_off_c, 1, 76, 0
2, 703200, Note_on_c, 1, 74, 50
2, 703440, Note_off_c, 1, 74, 0
2, 703440, Note_on_c, 1, 79, 51
2, 703920, Note_off_c, 1, 79, 0
2, 703920, Note_on_c, 1, 78, 54
2, 704160, Note_off_c, 1, 78, 0
2, 704160, Note_on_c, 1, 81, 57
2, 704640, Note_off_c, 1, 81, 0
2, 704640, Note_on_c, 1, 79, 52
2, 704880, Note_off_c, 1, 79, 0
2, 704880, Note_on_c, 1, 71, 51
2, 705360, Note_off_c, 1, 71, 0
2, 705360, Note_on_c, 1, 69, 49
2, 705600, Note_off_c, 1, 69, 0
2, 705600, Note_on_c, 1, 71, 48
2, 705840, Note_off_c, 1, 71, 0
2, 705840, Note_on_c, 1, 74, 47
2, 706080, Note_off_c, 1, 74, 0
2, 706080, Note_on_c, 1, 72, 46
2, 706320, Note_off_c, 1, 72, 0
2, 706320, Note_on_c, 1, 69, 46
2, 706560, Note_off_c, 1, 69, 0
2, 706560, Note_on_c, 1, 67, 45
2, 706800, Note_off_c, 1, 67, 0
2, 706800, Note_on_c, 1, 66, 44
2, 707040, Note_off_c, 1, 66, 0
2, 707040, Note_on_c, 1, 67, 43
2, 707280, Note_off_c, 1, 67, 0
2, 707280, Note_on_c, 1, 71, 42
2, 707520, Note_off_c, 1, 71, 0
2, 707520, Note_on_c, 1, 69, 41
2, 707760, Note_off_c, 1, 69, 0
2, 707760, Note_on_c, 1, 66, 40
2, 708000, Control_c, 1, 64, 0
2, 708000, Note_off_c, 1, 66, 0
2, 708000, Note_on_c, 1, 67, 40
2, 708240, Note_off_c, 1, 67, 0
2, 708240, Note_on_c, 1, 71, 41
2, 708480, Note_off_c, 1, 71, 0
2, 708480, Note_on_c, 1, 72, 42
2, 708720, Note_off_c, 1, 72, 0
2, 708720, Note_on_c, 1, 74, 42
2, 709680, Note_off_c, 1, 74, 0
2, 709680, Note_on_c, 1, 76, 45
2, 709920, Note_off_c, 1, 76, 0
2, 709920, Note_on_c, 1, 74, 46
2, 710160, Note_off_c, 1, 74, 0
2, 710160, Note_on_c, 1, 75, 54
2, 710880, Note_off_c, 1, 75, 0
2, 710880, Note_on_c, 1, 76, 48
2, 711120, Note_off_c, 1, 76, 0
2, 711120, Note_on_c, 1, 76, 49
2, 711360, Note_off_c, 1, 76, 0
2, 711360, Note_on_c, 1, 78, 49
2, 711600, Note_off_c, 1, 78, 0
2, 711600, Note_on_c, 1, 79, 50
2, 712560, Note_off_c, 1, 79, 0
2, 712560, Note_on_c, 1, 78, 53
2, 712800, Note_off_c, 1, 78, 0
2, 712800, Note_on_c, 1, 83, 53
2, 713280, Note_off_c, 1, 83, 0
2, 713280, Note_on_c, 1, 78, 55
2, 713520, Note_off_c, 1, 78, 0
2, 713520, Note_on_c, 1, 81, 57
2, 714000, Note_off_c, 1, 81, 0
2, 714000, Note_on_c, 1, 76, 56
2, 714240, Note_off_c, 1, 76, 0
2, 714240, Note_on_c, 1, 79, 55
2, 714720, Note_off_c, 1, 79, 0
2, 714720, Note_on_c, 1, 75, 53
2, 714960, Note_off_c, 1, 75, 0
2, 714960, Note_on_c, 1, 78, 53
2, 715440, Note_off_c, 1, 78, 0
2, 715440, Note_on_c, 1, 76, 51
2, 715680, Note_off_c, 1, 76, 0
2, 715680, Note_on_c, 1, 71, 50
2, 715920, Note_off_c, 1, 71, 0
2, 715920, Note_on_c, 1, 74, 50
2, 716160, Note_off_c, 1, 74, 0
2, 716160, Note_on_c, 1, 72, 49
2, 716400, Note_off_c, 1, 72, 0
2, 716400, Note_on_c, 1, 71, 48
2, 716880, Note_off_c, 1, 71, 0
2, 716880, Note_on_c, 1, 69, 47
2, 717120, Note_off_c, 1, 69, 0
2, 717120, Note_on_c, 1, 68, 46
2, 717360, Note_off_c, 1, 68, 0
2, 717360, Note_on_c, 1, 69, 45
2, 717600, Note_off_c, 1, 69, 0
2, 717600, Note_on_c, 1, 76, 44
2, 717840, Note_off_c, 1, 76, 0
2, 717840, Note_on_c, 1, 70, 44
2, 718080, Note_off_c, 1, 70, 0
2, 718080, Note_on_c, 1, 70, 43
2, 718320, Note_off_c, 1, 70, 0
2, 718320, Note_on_c, 1, 71, 42
2, 718512, Note_off_c, 1, 71, 0
2, 718560, Note_on_c, 1, 71, 41
2, 718752, Note_off_c, 1, 71, 0
2, 718800, Note_on_c, 1, 71, 40
2, 719160, Note_off_c, 1, 71, 0
2, 719280, Note_on_c, 1, 79, 49
2, 719472, Note_off_c, 1, 79, 0
2, 719520, Control_c, 1, 64, 0
2, 719520, Note_on_c, 1, 79, 49
2, 720240, Note_off_c, 1, 79, 0
2, 720240, Note_on_c, 1, 77, 48
2, 720960, Note_off_c, 1, 77, 0
2, 720960, Note_on_c, 1, 76, 46
2, 722160, Note_on_c, 1, 74, 44
2, 722167, Note_off_c, 1, 76, 0
2, 722400, Note_off_c, 1, 74, 0
2, 722400, Note_on_c, 1, 76, 44
2, 722880, Note_off_c, 1, 76, 0
2, 722880, Note_on_c, 1, 77, 46
2, 723120, Note_off_c, 1, 77, 0
2, 723120, Note_on_c, 1, 79, 47
2, 723600, Note_off_c, 1, 79, 0
2, 723600, Note_on_c, 1, 81, 49
2, 723840, Note_off_c, 1, 81, 0
2, 723840, Note_on_c, 1, 79, 51
2, 724560, Note_off_c, 1, 79, 0
2, 724560, Note_on_c, 1, 77, 46
2, 725280, Note_off_c, 1, 77, 0
2, 725280, Note_on_c, 1, 77, 45
2, 726000, Note_off_c, 1, 77, 0
2, 726000, Note_on_c, 1, 76, 45
2, 726720, Note_off_c, 1, 76, 0
2, 726720, Note_on_c, 1, 74, 44
2, 727912, Note_off_c, 1, 74, 0
2, 727920, Note_on_c, 1, 72, 43
2, 728160, Note_off_c, 1, 72, 0
2, 728160, Note_on_c, 1, 74, 42
2, 728640, Note_off_c, 1, 74, 0
2, 728640, Note_on_c, 1, 76, 44
2, 728880, Note_off_c, 1, 76, 0
2, 728880, Note_on_c, 1, 77, 45
2, 729360, Note_off_c, 1, 77, 0
2, 729360, Note_on_c, 1, 79, 46
2, 729600, Note_off_c, 1, 79, 0
2, 729600, Note_on_c, 1, 77, 49
2, 730320, Note_off_c, 1, 77, 0
2, 730320, Note_on_c, 1, 76, 45
2, 730800, Note_off_c, 1, 76, 0
2, 730800, Note_on_c, 1, 74, 42
2, 731040, Note_off_c, 1, 74, 0
2, 731040, Note_on_c, 1, 76, 42
2, 731760, Note_off_c, 1, 76, 0
2, 731760, Note_on_c, 1, 78, 45
2, 732480, Note_off_c, 1, 78, 0
2, 732480, Note_on_c, 1, 78, 49
2, 732960, Note_off_c, 1, 78, 0
2, 732960, Note_on_c, 1, 79, 51
2, 733200, Note_off_c, 1, 79, 0
2, 733200, Note_on_c, 1, 79, 52
2, 733680, Note_off_c, 1, 79, 0
2, 733680, Note_on_c, 1, 79, 54
2, 733920, Note_off_c, 1, 79, 0
2, 733920, Note_on_c, 1, 81, 55
2, 734640, Note_off_c, 1, 81, 0
2, 734640, Note_on_c, 1, 83, 59
2, 735120, Note_off_c, 1, 83, 0
2, 735120, Note_on_c, 1, 84, 61
2, 735360, Note_off_c, 1, 84, 0
2, 735360, Note_on_c, 1, 84, 62
2, 735840, Note_off_c, 1, 84, 0
2, 735840, Note_on_c, 1, 83, 64
2, 736080, Note_off_c, 1, 83, 0
2, 736080, Note_on_c, 1, 83, 66
2, 736560, Note_off_c, 1, 83, 0
2, 736560, Note_on_c, 1, 91, 68
2, 736800, Note_off_c, 1, 91, 0
2, 736800, Note_on_c, 1, 91, 72
2, 737520, Note_off_c, 1, 91, 0
2, 737520, Note_on_c, 1, 87, 64
2, 738000, Note_off_c, 1, 87, 0
2, 738000, Note_on_c, 1, 88, 62
2, 738240, Note_off_c, 1, 88, 0
2, 738240, Note_on_c, 1, 88, 61
2, 738960, Note_off_c, 1, 88, 0
2, 738960, Note_on_c, 1, 81, 58
2, 739440, Note_off_c, 1, 81, 0
2, 739440, Note_on_c, 1, 83, 56
2, 739680, Note_off_c, 1, 83, 0
2, 739680, Note_on_c, 1, 83, 55
2, 739920, Note_off_c, 1, 83, 0
2, 739920, Note_on_c, 1, 81, 50
2, 740160, Note_off_c, 1, 81, 0
2, 740160, Note_on_c, 1, 83, 49
2, 740400, Note_off_c, 1, 83, 0
2, 740400, Note_on_c, 1, 86, 47
2, 740640, Note_off_c, 1, 86, 0
2, 740640, Note_on_c, 1, 84, 45
2, 740880, Note_off_c, 1, 84, 0
2, 740880, Note_on_c, 1, 83, 44
2, 741120, Note_off_c, 1, 83, 0
2, 741120, Note_on_c, 1, 83, 42
2, 741360, Note_off_c, 1, 83, 0
2, 741360, Note_on_c, 1, 81, 40
2, 741600, Note_off_c, 1, 81, 0
2, 741600, Note_on_c, 1, 79, 39
2, 741840, Note_off_c, 1, 79, 0
2, 741840, Note_on_c, 1, 81, 37
2, 742080, Note_off_c, 1, 81, 0
2, 742080, Note_on_c, 1, 78, 39
2, 742320, Note_off_c, 1, 78, 0
2, 742320, Note_on_c, 1, 79, 38
2, 742512, Note_off_c, 1, 79, 0
2, 742560, Control_c, 1, 64, 0
2, 742560, Note_on_c, 1, 79, 49
2, 743280, Note_off_c, 1, 79, 0
2, 743280, Note_on_c, 1, 77, 48
2, 744000, Note_off_c, 1, 77, 0
2, 744000, Note_on_c, 1, 76, 46
2, 745200, Note_on_c, 1, 74, 44
2, 745207, Note_off_c, 1, 76, 0
2, 745440, Note_off_c, 1, 74, 0
2, 745440, Note_on_c, 1, 76, 44
2, 745920, Note_off_c, 1, 76, 0
2, 745920, Note_on_c, 1, 77, 46
2, 746160, Note_off_c, 1, 77, 0
2, 746160, Note_on_c, 1, 79, 47
2, 746640, Note_off_c, 1, 79, 0
2, 746640, Note_on_c, 1, 81, 49
2, 746880, Note_off_c, 1, 81, 0
2, 746880, Note_on_c, 1, 79, 51
2, 747600, Note_off_c, 1, 79, 0
2, 747600, Note_on_c, 1, 77, 46
2, 748320, Note_off_c, 1, 77, 0
2, 748320, Note_on_c, 1, 77, 45
2, 749040, Note_off_c, 1, 77, 0
2, 749040, Note_on_c, 1, 76, 45
2, 749760, Note_off_c, 1, 76, 0
2, 749760, Note_on_c, 1, 74, 44
2, 750952, Note_off_c, 1, 74, 0
2, 750960, Note_on_c, 1, 72, 43
2, 751200, Note_off_c, 1, 72, 0
2, 751200, Note_on_c, 1, 74, 42
2, 751680, Note_off_c, 1, 74, 0
2, 751680, Note_on_c, 1, 76, 44
2, 751920, Note_off_c, 1, 76, 0
2, 751920, Note_on_c, 1, 77, 45
2, 752400, Note_off_c, 1, 77, 0
2, 752400, Note_on_c, 1, 79, 46
2, 752640, Note_off_c, 1, 79, 0
2, 752640, Note_on_c, 1, 77, 49
2, 753360, Note_off_c, 1, 77, 0
2, 753360, Note_on_c, 1, 76, 45
2, 753840, Note_off_c, 1, 76, 0
2, 753840, Note_on_c, 1, 74, 42
2, 754080, Note_off_c, 1, 74, 0
2, 754080, Note_on_c, 1, 76, 42
2, 754800, Note_off_c, 1, 76, 0
2, 754800, Note_on_c, 1, 78, 45
2, 755520, Note_off_c, 1, 78, 0
2, 755520, Note_on_c, 1, 78, 49
2, 756000, Note_off_c, 1, 78, 0
2, 756000, Note_on_c, 1, 79, 51
2, 756240, Note_off_c, 1, 79, 0
2, 756240, Note_on_c, 1, 79, 52
2, 756720, Note_off_c, 1, 79, 0
2, 756720, Note_on_c, 1, 79, 54
2, 756960, Note_off_c, 1, 79, 0
2, 756960, Note_on_c, 1, 81, 55
2, 757680, Note_off_c, 1, 81, 0
2, 757680, Note_on_c, 1, 83, 59
2, 758160, Note_off_c, 1, 83, 0
2, 758160, Note_on_c, 1, 84, 61
2, 758400, Note_off_c, 1, 84, 0
2, 758400, Note_on_c, 1, 84, 62
2, 758880, Note_off_c, 1, 84, 0
2, 758880, Note_on_c, 1, 83, 64
2, 759120, Note_off_c, 1, 83, 0
2, 759120, Note_on_c, 1, 83, 66
2, 759600, Note_off_c, 1, 83, 0
2, 759600, Note_on_c, 1, 91, 68
2, 759840, Note_off_c, 1, 91, 0
2, 759840, Note_on_c, 1, 91, 72
2, 760560, Note_off_c, 1, 91, 0
2, 760560, Note_on_c, 1, 87, 64
2, 761040, Note_off_c, 1, 87, 0
2, 761040, Note_on_c, 1, 88, 62
2, 761280, Note_off_c, 1, 88, 0
2, 761280, Note_on_c, 1, 88, 61
2, 762000, Note_off_c, 1, 88, 0
2, 762000, Note_on_c, 1, 81, 58
2, 762480, Note_off_c, 1, 81, 0
2, 762480, Note_on_c, 1, 83, 56
2, 762720, Note_off_c, 1, 83, 0
2, 762720, Note_on_c, 1, 83, 55
2, 762960, Note_off_c, 1, 83, 0
2, 762960, Note_on_c, 1, 81, 50
2, 763200, Note_off_c, 1, 81, 0
2, 763200, Note_on_c, 1, 83, 49
2, 763440, Note_off_c, 1, 83, 0
2, 763440, Note_on_c, 1, 86, 47
2, 763680, Note_off_c, 1, 86, 0
2, 763680, Note_on_c, 1, 84, 45
2, 763920, Note_off_c, 1, 84, 0
2, 763920, Note_on_c, 1, 83, 44
2, 764160, Note_off_c, 1, 83, 0
2, 764160, Note_on_c, 1, 83, 42
2, 764400, Note_off_c, 1, 83, 0
2, 764400, Note_on_c, 1, 81, 40
2, 764640, Note_off_c, 1, 81, 0
2, 764640, Note_on_c, 1, 79, 39
2, 764880, Note_off_c, 1, 79, 0
2, 764880, Note_on_c, 1, 81, 37
2, 765120, Note_off_c, 1, 81, 0
2, 765120, Note_on_c, 1, 78, 39
2, 765360, Note_off_c, 1, 78, 0
2, 765360, Note_on_c, 1, 79, 38
2, 765552, Note_off_c, 1, 79, 0
2, 765600, Control_c, 1, 64, 0
2, 765600, Note_on_c, 1, 71, 40
2, 765840, Note_off_c, 1, 71, 0
2, 765840, Note_on_c, 1, 69, 41
2, 766080, Note_off_c, 1, 69, 0
2, 766080, Note_on_c, 1, 67, 41
2, 766320, Note_off_c, 1, 67, 0
2, 766320, Note_on_c, 1, 69, 42
2, 766560, Note_off_c, 1, 69, 0
2, 766560, Note_on_c, 1, 66, 43
2, 766800, Note_off_c, 1, 66, 0
2, 766800, Note_on_c, 1, 67, 43
2, 767040, Note_off_c, 1, 67, 0
2, 767040, Note_on_c, 1, 74, 44
2, 767280, Note_off_c, 1, 74, 0
2, 767280, Note_on_c, 1, 72, 44
2, 767520, Note_off_c, 1, 72, 0
2, 767520, Note_on_c, 1, 71, 45
2, 767760, Note_off_c, 1, 71, 0
2, 767760, Note_on_c, 1, 72, 46
2, 768000, Note_off_c, 1, 72, 0
2, 768000, Note_on_c, 1, 69, 46
2, 768240, Note_off_c, 1, 69, 0
2, 768240, Note_on_c, 1, 71, 47
2, 768480, Note_off_c, 1, 71, 0
2, 768480, Note_on_c, 1, 79, 48
2, 768720, Note_off_c, 1, 79, 0
2, 768720, Note_on_c, 1, 83, 48
2, 768960, Note_off_c, 1, 83, 0
2, 768960, Note_on_c, 1, 84, 49
2, 769200, Note_off_c, 1, 84, 0
2, 769200, Note_on_c, 1, 86, 50
2, 770160, Note_off_c, 1, 86, 0
2, 770160, Note_on_c, 1, 88, 52
2, 770400, Note_off_c, 1, 88, 0
2, 770400, Note_on_c, 1, 85, 53
2, 770640, Note_off_c, 1, 85, 0
2, 770640, Note_on_c, 1, 86, 54
2, 771120, Note_off_c, 1, 86, 0
2, 771120, Note_on_c, 1, 87, 55
2, 771360, Note_off_c, 1, 87, 0
2, 771360, Note_on_c, 1, 88, 56
2, 771600, Note_off_c, 1, 88, 0
2, 771600, Note_on_c, 1, 79, 52
2, 771840, Note_off_c, 1, 79, 0
2, 771840, Note_on_c, 1, 81, 51
2, 772080, Note_off_c, 1, 81, 0
2, 772080, Note_on_c, 1, 83, 51
2, 773040, Note_off_c, 1, 83, 0
2, 773040, Note_on_c, 1, 84, 48
2, 773280, Note_off_c, 1, 84, 0
2, 773280, Note_on_c, 1, 82, 47
2, 773520, Note_off_c, 1, 82, 0
2, 773520, Note_on_c, 1, 83, 46
2, 774240, Note_off_c, 1, 83, 0
2, 774240, Note_on_c, 1, 84, 44
2, 774480, Note_off_c, 1, 84, 0
2, 774480, Note_on_c, 1, 86, 45
2, 774720, Note_off_c, 1, 86, 0
2, 774720, Note_on_c, 1, 88, 46
2, 775200, Note_off_c, 1, 88, 0
2, 775200, Note_on_c, 1, 86, 49
2, 775440, Note_off_c, 1, 86, 0
2, 775440, Note_on_c, 1, 91, 50
2, 775920, Note_off_c, 1, 91, 0
2, 775920, Note_on_c, 1, 90, 52
2, 776160, Note_off_c, 1, 90, 0
2, 776160, Note_on_c, 1, 93, 54
2, 776640, Note_off_c, 1, 93, 0
2, 776640, Note_on_c, 1, 91, 51
2, 776880, Note_off_c, 1, 91, 0
2, 776880, Note_on_c, 1, 83, 50
2, 777360, Note_off_c, 1, 83, 0
2, 777360, Note_on_c, 1, 81, 47
2, 777600, Note_off_c, 1, 81, 0
2, 777600, Note_on_c, 1, 88, 46
2, 778080, Note_off_c, 1, 88, 0
2, 778080, Note_on_c, 1, 86, 43
2, 778320, Note_off_c, 1, 86, 0
2, 778320, Note_on_c, 1, 78, 42
2, 778560, Note_off_c, 1, 78, 0
2, 778560, Note_on_c, 1, 81, 41
2, 778800, Note_off_c, 1, 81, 0
2, 778800, Note_on_c, 1, 79, 40
2, 778992, Note_off_c, 1, 79, 0
2, 779040, Note_on_c, 1, 79, 37
2, 779232, Note_off_c, 1, 79, 0
2, 779280, Note_on_c, 1, 79, 34
2, 779760, Note_off_c, 1, 79, 0
2, 781440, Control_c, 1, 64, 0
2, 781440, Control_c, 1, 64, 0
2, 781680, Note_on_c, 1, 70, 71
2, 781920, Note_off_c, 1, 70, 0
2, 781920, Note_on_c, 1, 72, 71
2, 782160, Note_off_c, 1, 72, 0
2, 782160, Note_on_c, 1, 74, 72
2, 782400, Note_off_c, 1, 74, 0
2, 782400, Note_on_c, 1, 75, 72
2, 782640, Note_off_c, 1, 75, 0
2, 782640, Note_on_c, 1, 77, 73
2, 782880, Note_off_c, 1, 77, 0
2, 782880, Note_on_c, 1, 79, 74
2, 783120, Note_off_c, 1, 79, 0
2, 783120, Note_on_c, 1, 75, 74
2, 783360, Note_off_c, 1, 75, 0
2, 783360, Note_on_c, 1, 80, 75
2, 783600, Note_off_c, 1, 80, 0
2, 783600, Note_on_c, 1, 79, 75
2, 783840, Note_off_c, 1, 79, 0
2, 783840, Note_on_c, 1, 80, 76
2, 784080, Note_off_c, 1, 80, 0
2, 784080, Note_on_c, 1, 77, 76
2, 784320, Note_off_c, 1, 77, 0
2, 784320, Note_on_c, 1, 89, 77
2, 784560, Note_off_c, 1, 89, 0
2, 784560, Note_on_c, 1, 87, 78
2, 784800, Note_off_c, 1, 87, 0
2, 784800, Note_on_c, 1, 89, 78
2, 785040, Note_off_c, 1, 89, 0
2, 785040, Note_on_c, 1, 86, 79
2, 785280, Note_off_c, 1, 86, 0
2, 785280, Note_on_c, 1, 86, 79
2, 785520, Note_off_c, 1, 86, 0
2, 785520, Note_on_c, 1, 87, 78
2, 785760, Note_off_c, 1, 87, 0
2, 785760, Note_on_c, 1, 86, 77
2, 786000, Note_off_c, 1, 86, 0
2, 786000, Note_on_c, 1, 84, 77
2, 786240, Note_off_c, 1, 84, 0
2, 786240, Note_on_c, 1, 82, 77
2, 786480, Note_off_c, 1, 82, 0
2, 786480, Note_on_c, 1, 84, 76
2, 786720, Note_off_c, 1, 84, 0
2, 786720, Note_on_c, 1, 82, 76
2, 786960, Note_off_c, 1, 82, 0
2, 786960, Note_on_c, 1, 80, 75
2, 787200, Note_off_c, 1, 80, 0
2, 787200, Note_on_c, 1, 79, 75
2, 787440, Note_off_c, 1, 79, 0
2, 787440, Note_on_c, 1, 80, 75
2, 787680, Note_off_c, 1, 80, 0
2, 787680, Note_on_c, 1, 79, 74
2, 787920, Note_off_c, 1, 79, 0
2, 787920, Note_on_c, 1, 77, 74
2, 788160, Note_off_c, 1, 77, 0
2, 788160, Note_on_c, 1, 75, 73
2, 788400, Note_off_c, 1, 75, 0
2, 788400, Note_on_c, 1, 74, 73
2, 788640, Note_off_c, 1, 74, 0
2, 788640, Note_on_c, 1, 72, 73
2, 788880, Note_off_c, 1, 72, 0
2, 788880, Note_on_c, 1, 74, 72
2, 789120, Note_off_c, 1, 74, 0
2, 789120, Note_on_c, 1, 75, 75
2, 789360, Note_off_c, 1, 75, 0
2, 789600, Note_on_c, 1, 75, 73
2, 789840, Note_off_c, 1, 75, 0
2, 790080, Note_on_c, 1, 79, 70
2, 790320, Note_off_c, 1, 79, 0
2, 790560, Note_on_c, 1, 79, 68
2, 790560, Note_on_c, 1, 82, 68
2, 790800, Note_off_c, 1, 82, 0
2, 790800, Note_off_c, 1, 79, 0
2, 791040, Note_on_c, 1, 87, 65
2, 791280, Note_off_c, 1, 87, 0
2, 794880, Control_c, 1, 64, 0
2, 795360, Note_on_c, 1, 70, 42
2, 795600, Note_off_c, 1, 70, 0
2, 796080, Note_on_c, 1, 75, 45
2, 796320, Note_off_c, 1, 75, 0
2, 796320, Note_on_c, 1, 79, 46
2, 796500, Note_off_c, 1, 79, 0
2, 796500, Note_on_c, 1, 80, 47
2, 796560, Note_off_c, 1, 80, 0
2, 796560, Note_on_c, 1, 79, 47
2, 796800, Note_off_c, 1, 79, 0
2, 796800, Note_on_c, 1, 77, 47
2, 797040, Note_off_c, 1, 77, 0
2, 797520, Note_on_c, 1, 80, 45
2, 797760, Note_off_c, 1, 80, 0
2, 798240, Note_on_c, 1, 77, 44
2, 798480, Note_off_c, 1, 77, 0
2, 798480, Note_on_c, 1, 68, 43
2, 798660, Note_off_c, 1, 68, 0
2, 798660, Note_on_c, 1, 70, 43
2, 798720, Note_off_c, 1, 70, 0
2, 798720, Note_on_c, 1, 68, 43
2, 798960, Note_off_c, 1, 68, 0
2, 798960, Note_on_c, 1, 67, 42
2, 799200, Note_off_c, 1, 67, 0
2, 799200, Note_on_c, 1, 67, 42
2, 799440, Note_off_c, 1, 67, 0
2, 799440, Note_on_c, 1, 72, 43
2, 799680, Note_off_c, 1, 72, 0
2, 799680, Note_on_c, 1, 74, 44
2, 799920, Note_off_c, 1, 74, 0
2, 799920, Note_on_c, 1, 75, 45
2, 800400, Note_off_c, 1, 75, 0
2, 800400, Note_on_c, 1, 77, 48
2, 800640, Note_off_c, 1, 77, 0
2, 800640, Note_on_c, 1, 75, 49
2, 800880, Note_off_c, 1, 75, 0
2, 800880, Note_on_c, 1, 74, 46
2, 801120, Note_off_c, 1, 74, 0
2, 801120, Note_on_c, 1, 72, 45
2, 801360, Note_off_c, 1, 72, 0
2, 801360, Note_on_c, 1, 70, 44
2, 801600, Note_off_c, 1, 70, 0
2, 801600, Note_on_c, 1, 75, 47
2, 801840, Note_off_c, 1, 75, 0
2, 801840, Note_on_c, 1, 77, 48
2, 802080, Note_off_c, 1, 77, 0
2, 802080, Note_on_c, 1, 79, 50
2, 802560, Note_off_c, 1, 79, 0
2, 802560, Note_on_c, 1, 82, 53
2, 802680, Note_off_c, 1, 82, 0
2, 802680, Note_on_c, 1, 80, 55
2, 802800, Note_off_c, 1, 80, 0
2, 802800, Note_on_c, 1, 79, 54
2, 803040, Note_off_c, 1, 79, 0
2, 803040, Note_on_c, 1, 77, 52
2, 803280, Note_off_c, 1, 77, 0
2, 803280, Note_on_c, 1, 75, 49
2, 803520, Note_off_c, 1, 75, 0
2, 803520, Note_on_c, 1, 74, 47
2, 803840, Note_off_c, 1, 74, 0
2, 803840, Note_on_c, 1, 69, 49
2, 803920, Note_off_c, 1, 69, 0
2, 803920, Note_on_c, 1, 70, 50
2, 804000, Note_off_c, 1, 70, 0
2, 804000, Note_on_c, 1, 77, 50
2, 804080, Note_off_c, 1, 77, 0
2, 804080, Note_on_c, 1, 73, 51
2, 804160, Note_off_c, 1, 73, 0
2, 804160, Note_on_c, 1, 74, 51
2, 804240, Note_off_c, 1, 74, 0
2, 804240, Note_on_c, 1, 82, 52
2, 804320, Note_off_c, 1, 82, 0
2, 804320, Note_on_c, 1, 76, 52
2, 804400, Note_off_c, 1, 76, 0
2, 804400, Note_on_c, 1, 77, 53
2, 804480, Note_off_c, 1, 77, 0
2, 804480, Note_on_c, 1, 86, 53
2, 804560, Note_off_c, 1, 86, 0
2, 804560, Note_on_c, 1, 81, 54
2, 804640, Note_off_c, 1, 81, 0
2, 804640, Note_on_c, 1, 82, 54
2, 804720, Note_off_c, 1, 82, 0
2, 804720, Note_on_c, 1, 89, 55
2, 805040, Note_off_c, 1, 89, 0
2, 805040, Note_on_c, 1, 77, 52
2, 805120, Note_off_c, 1, 77, 0
2, 805120, Note_on_c, 1, 87, 51
2, 805200, Note_off_c, 1, 87, 0
2, 805200, Note_on_c, 1, 84, 50
2, 805280, Note_off_c, 1, 84, 0
2, 805280, Note_on_c, 1, 77, 48
2, 805360, Note_off_c, 1, 77, 0
2, 805360, Note_on_c, 1, 86, 47
2, 805440, Note_off_c, 1, 86, 0
2, 805440, Note_on_c, 1, 82, 44
2, 805560, Note_off_c, 1, 82, 0
2, 805680, Control_c, 1, 64, 0
2, 806160, Note_on_c, 1, 70, 42
2, 806400, Note_off_c, 1, 70, 0
2, 806880, Note_on_c, 1, 75, 45
2, 807120, Note_off_c, 1, 75, 0
2, 807120, Note_on_c, 1, 79, 46
2, 807300, Note_off_c, 1, 79, 0
2, 807300, Note_on_c, 1, 80, 47
2, 807360, Note_off_c, 1, 80, 0
2, 807360, Note_on_c, 1, 79, 47
2, 807600, Note_off_c, 1, 79, 0
2, 807600, Note_on_c, 1, 77, 47
2, 807840, Note_off_c, 1, 77, 0
2, 808320, Note_on_c, 1, 80, 45
2, 808560, Note_off_c, 1, 80, 0
2, 809040, Note_on_c, 1, 77, 44
2, 809280, Note_off_c, 1, 77, 0
2, 809280, Note_on_c, 1, 68, 43
2, 809460, Note_off_c, 1, 68, 0
2, 809460, Note_on_c, 1, 70, 43
2, 809520, Note_off_c, 1, 70, 0
2, 809520, Note_on_c, 1, 68, 43
2, 809760, Note_off_c, 1, 68, 0
2, 809760, Note_on_c, 1, 67, 42
2, 810000, Note_off_c, 1, 67, 0
2, 810000, Note_on_c, 1, 67, 42
2, 810240, Note_off_c, 1, 67, 0
2, 810240, Note_on_c, 1, 72, 43
2, 810480, Note_off_c, 1, 72, 0
2, 810480, Note_on_c, 1, 74, 44
2, 810720, Note_off_c, 1, 74, 0
2, 810720, Note_on_c, 1, 75, 45
2, 811200, Note_off_c, 1, 75, 0
2, 811200, Note_on_c, 1, 77, 48
2, 811440, Note_off_c, 1, 77, 0
2, 811440, Note_on_c, 1, 75, 49
2, 811680, Note_off_c, 1, 75, 0
2, 811680, Note_on_c, 1, 74, 46
2, 811920, Note_off_c, 1, 74, 0
2, 811920, Note_on_c, 1, 72, 45
2, 812160, Note_off_c, 1, 72, 0
2, 812400, Note_on_c, 1, 75, 47
2, 812640, Note_off_c, 1, 75, 0
2, 812640, Note_on_c, 1, 77, 48
2, 812880, Note_off_c, 1, 77, 0
2, 812880, Note_on_c, 1, 79, 50
2, 813360, Note_off_c, 1, 79, 0
2, 813360, Note_on_c, 1, 82, 53
2, 813480, Note_off_c, 1, 82, 0
2, 813480, Note_on_c, 1, 80, 55
2, 813600, Note_off_c, 1, 80, 0
2, 813600, Note_on_c, 1, 79, 54
2, 813840, Note_off_c, 1, 79, 0
2, 813840, Note_on_c, 1, 77, 52
2, 814080, Note_off_c, 1, 77, 0
2, 814080, Note_on_c, 1, 75, 49
2, 814320, Note_off_c, 1, 75, 0
2, 814320, Note_on_c, 1, 74, 47
2, 814640, Note_off_c, 1, 74, 0
2, 814640, Note_on_c, 1, 69, 49
2, 814720, Note_off_c, 1, 69, 0
2, 814720, Note_on_c, 1, 70, 50
2, 814800, Note_off_c, 1, 70, 0
2, 814800, Note_on_c, 1, 77, 50
2, 814880, Note_off_c, 1, 77, 0
2, 814880, Note_on_c, 1, 73, 51
2, 814960, Note_off_c, 1, 73, 0
2, 814960, Note_on_c, 1, 74, 51
2, 815040, Note_off_c, 1, 74, 0
2, 815040, Note_on_c, 1, 82, 52
2, 815120, Note_off_c, 1, 82, 0
2, 815120, Note_on_c, 1, 76, 52
2, 815200, Note_off_c, 1, 76, 0
2, 815200, Note_on_c, 1, 77, 53
2, 815280, Note_off_c, 1, 77, 0
2, 815280, Note_on_c, 1, 86, 53
2, 815360, Note_off_c, 1, 86, 0
2, 815360, Note_on_c, 1, 81, 54
2, 815440, Note_off_c, 1, 81, 0
2, 815440, Note_on_c, 1, 82, 54
2, 815520, Note_off_c, 1, 82, 0
2, 815520, Note_on_c, 1, 89, 55
2, 815840, Note_off_c, 1, 89, 0
2, 815840, Note_on_c, 1, 77, 52
2, 815920, Note_off_c, 1, 77, 0
2, 815920, Note_on_c, 1, 87, 51
2, 816000, Note_off_c, 1, 87, 0
2, 816000, Note_on_c, 1, 84, 50
2, 816080, Note_off_c, 1, 84, 0
2, 816080, Note_on_c, 1, 77, 48
2, 816160, Note_off_c, 1, 77, 0
2, 816160, Note_on_c, 1, 86, 47
2, 816240, Note_off_c, 1, 86, 0
2, 816240, Note_on_c, 1, 82, 46
2, 816480, Control_c, 1, 64, 0
2, 816480, Note_off_c, 1, 82, 0
2, 816480, Note_on_c, 1, 74, 40
2, 816800, Note_off_c, 1, 74, 0
2, 816800, Note_on_c, 1, 69, 42
2, 816880, Note_off_c, 1, 69, 0
2, 816880, Note_on_c, 1, 70, 42
2, 816960, Note_off_c, 1, 70, 0
2, 816960, Note_on_c, 1, 77, 43
2, 817040, Note_off_c, 1, 77, 0
2, 817040, Note_on_c, 1, 73, 43
2, 817120, Note_off_c, 1, 73, 0
2, 817120, Note_on_c, 1, 74, 44
2, 817200, Note_off_c, 1, 74, 0
2, 817200, Note_on_c, 1, 82, 44
2, 817280, Note_off_c, 1, 82, 0
2, 817280, Note_on_c, 1, 76, 44
2, 817360, Note_off_c, 1, 76, 0
2, 817360, Note_on_c, 1, 77, 45
2, 817440, Note_off_c, 1, 77, 0
2, 817440, Note_on_c, 1, 86, 45
2, 817520, Note_off_c, 1, 86, 0
2, 817520, Note_on_c, 1, 81, 46
2, 817600, Note_off_c, 1, 81, 0
2, 817600, Note_on_c, 1, 82, 46
2, 817680, Note_off_c, 1, 82, 0
2, 817680, Note_on_c, 1, 89, 46
2, 818000, Note_off_c, 1, 89, 0
2, 818000, Note_on_c, 1, 77, 46
2, 818080, Note_off_c, 1, 77, 0
2, 818080, Note_on_c, 1, 87, 45
2, 818160, Note_off_c, 1, 87, 0
2, 818160, Note_on_c, 1, 84, 45
2, 818240, Note_off_c, 1, 84, 0
2, 818240, Note_on_c, 1, 77, 44
2, 818320, Note_off_c, 1, 77, 0
2, 818320, Note_on_c, 1, 86, 44
2, 818400, Note_off_c, 1, 86, 0
2, 818400, Note_on_c, 1, 83, 43
2, 818640, Note_off_c, 1, 83, 0
2, 818640, Note_on_c, 1, 74, 44
2, 818960, Note_off_c, 1, 74, 0
2, 818960, Note_on_c, 1, 70, 46
2, 819040, Note_off_c, 1, 70, 0
2, 819040, Note_on_c, 1, 71, 47
2, 819120, Note_off_c, 1, 71, 0
2, 819120, Note_on_c, 1, 77, 47
2, 819200, Note_off_c, 1, 77, 0
2, 819200, Note_on_c, 1, 73, 48
2, 819280, Note_off_c, 1, 73, 0
2, 819280, Note_on_c, 1, 74, 48
2, 819360, Note_off_c, 1, 74, 0
2, 819360, Note_on_c, 1, 83, 49
2, 819440, Note_off_c, 1, 83, 0
2, 819440, Note_on_c, 1, 76, 49
2, 819520, Note_off_c, 1, 76, 0
2, 819520, Note_on_c, 1, 77, 50
2, 819600, Note_off_c, 1, 77, 0
2, 819600, Note_on_c, 1, 86, 50
2, 819680, Note_off_c, 1, 86, 0
2, 819680, Note_on_c, 1, 82, 50
2, 819760, Note_off_c, 1, 82, 0
2, 819760, Note_on_c, 1, 83, 51
2, 819840, Note_off_c, 1, 83, 0
2, 819840, Note_on_c, 1, 89, 51
2, 820160, Note_off_c, 1, 89, 0
2, 820160, Note_on_c, 1, 82, 53
2, 820240, Note_off_c, 1, 82, 0
2, 820240, Note_on_c, 1, 83, 54
2, 820320, Note_off_c, 1, 83, 0
2, 820320, Note_on_c, 1, 86, 54
2, 820400, Note_off_c, 1, 86, 0
2, 820400, Note_on_c, 1, 82, 55
2, 820480, Note_off_c, 1, 82, 0
2, 820480, Note_on_c, 1, 83, 55
2, 820560, Note_off_c, 1, 83, 0
2, 820560, Note_on_c, 1, 89, 56
2, 820880, Note_off_c, 1, 89, 0
2, 820880, Note_on_c, 1, 78, 57
2, 820960, Note_off_c, 1, 78, 0
2, 820960, Note_on_c, 1, 79, 58
2, 821040, Note_off_c, 1, 79, 0
2, 821040, Note_on_c, 1, 84, 58
2, 821120, Note_off_c, 1, 84, 0
2, 821120, Note_on_c, 1, 78, 59
2, 821200, Note_off_c, 1, 78, 0
2, 821200, Note_on_c, 1, 79, 59
2, 821280, Note_off_c, 1, 79, 0
2, 821280, Note_on_c, 1, 87, 60
2, 821600, Note_off_c, 1, 87, 0
2, 821600, Note_on_c, 1, 76, 62
2, 821680, Note_off_c, 1, 76, 0
2, 821680, Note_on_c, 1, 77, 61
2, 821760, Note_off_c, 1, 77, 0
2, 821760, Note_on_c, 1, 83, 60
2, 821840, Note_off_c, 1, 83, 0
2, 821840, Note_on_c, 1, 76, 59
2, 821920, Note_off_c, 1, 76, 0
2, 821920, Note_on_c, 1, 77, 58
2, 822000, Note_off_c, 1, 77, 0
2, 822000, Note_on_c, 1, 86, 57
2, 822320, Note_on_c, 1, 74, 54
2, 822325, Note_off_c, 1, 86, 0
2, 822400, Note_off_c, 1, 74, 0
2, 822400, Note_on_c, 1, 75, 53
2, 822480, Note_off_c, 1, 75, 0
2, 822480, Note_on_c, 1, 79, 52
2, 822560, Note_off_c, 1, 79, 0
2, 822560, Note_on_c, 1, 74, 51
2, 822640, Note_off_c, 1, 74, 0
2, 822640, Note_on_c, 1, 75, 50
2, 822720, Note_off_c, 1, 75, 0
2, 822720, Note_on_c, 1, 84, 49
2, 823035, Note_off_c, 1, 84, 0
2, 823040, Note_on_c, 1, 72, 45
2, 823120, Note_off_c, 1, 72, 0
2, 823120, Note_on_c, 1, 73, 45
2, 823200, Note_off_c, 1, 73, 0
2, 823200, Note_on_c, 1, 75, 44
2, 823280, Note_off_c, 1, 75, 0
2, 823280, Note_on_c, 1, 72, 43
2, 823360, Note_off_c, 1, 72, 0
2, 823360, Note_on_c, 1, 73, 42
2, 823440, Note_off_c, 1, 73, 0
2, 823440, Note_on_c, 1, 82, 41
2, 823520, Note_off_c, 1, 82, 0
2, 823520, Note_on_c, 1, 72, 40
2, 823600, Note_off_c, 1, 72, 0
2, 823600, Note_on_c, 1, 80, 39
2, 823760, Note_off_c, 1, 80, 0
2, 823760, Note_on_c, 1, 70, 37
2, 823840, Note_off_c, 1, 70, 0
2, 823840, Note_on_c, 1, 77, 36
2, 824000, Note_off_c, 1, 77, 0
2, 824000, Note_on_c, 1, 68, 34
2, 824080, Note_off_c, 1, 68, 0
2, 824080, Note_on_c, 1, 75, 34
2, 824240, Note_on_c, 1, 67, 32
2, 824245, Note_off_c, 1, 75, 0
2, 824320, Note_off_c, 1, 67, 0
2, 824320, Note_on_c, 1, 75, 32
2, 824400, Note_off_c, 1, 75, 0
2, 824880, Note_on_c, 1, 51, 33
2, 825120, Note_off_c, 1, 51, 0
2, 825600, Note_on_c, 1, 56, 34
2, 825840, Note_off_c, 1, 56, 0
2, 825840, Note_on_c, 1, 60, 35
2, 826020, Note_off_c, 1, 60, 0
2, 826020, Note_on_c, 1, 61, 35
2, 826080, Note_off_c, 1, 61, 0
2, 826080, Note_on_c, 1, 60, 35
2, 826320, Note_off_c, 1, 60, 0
2, 826320, Note_on_c, 1, 58, 34
2, 826560, Note_off_c, 1, 58, 0
2, 827040, Note_on_c, 1, 63, 32
2, 827160, Note_off_c, 1, 63, 0
2, 827160, Note_on_c, 1, 61, 32
2, 827280, Note_off_c, 1, 61, 0
2, 827760, Note_on_c, 1, 60, 30
2, 827880, Note_off_c, 1, 60, 0
2, 827880, Note_on_c, 1, 58, 30
2, 828000, Note_off_c, 1, 58, 0
2, 828000, Note_on_c, 1, 49, 30
2, 828180, Note_off_c, 1, 49, 0
2, 828180, Note_on_c, 1, 51, 33
2, 828240, Note_on_c, 1, 49, 31
2, 828245, Note_off_c, 1, 51, 0
2, 828480, Note_off_c, 1, 49, 0
2, 828480, Note_on_c, 1, 48, 30
2, 828720, Note_off_c, 1, 48, 0
2, 828840, Note_on_c, 1, 48, 33
2, 828960, Note_off_c, 1, 48, 0
2, 828960, Note_on_c, 1, 49, 33
2, 829080, Note_off_c, 1, 49, 0
2, 829080, Note_on_c, 1, 51, 34
2, 829200, Note_off_c, 1, 51, 0
2, 829200, Note_on_c, 1, 53, 35
2, 829320, Note_off_c, 1, 53, 0
2, 829320, Note_on_c, 1, 55, 36
2, 829440, Note_off_c, 1, 55, 0
2, 829440, Note_on_c, 1, 56, 36
2, 829560, Note_off_c, 1, 56, 0
2, 829560, Note_on_c, 1, 58, 37
2, 829680, Note_off_c, 1, 58, 0
2, 829680, Note_on_c, 1, 60, 38
2, 829800, Note_off_c, 1, 60, 0
2, 829800, Note_on_c, 1, 61, 38
2, 829920, Note_off_c, 1, 61, 0
2, 829920, Note_on_c, 1, 63, 39
2, 830040, Note_off_c, 1, 63, 0
2, 830040, Note_on_c, 1, 65, 40
2, 830160, Note_off_c, 1, 65, 0
2, 830160, Note_on_c, 1, 67, 40
2, 830280, Note_off_c, 1, 67, 0
2, 830280, Note_on_c, 1, 68, 41
2, 830400, Note_off_c, 1, 68, 0
2, 830400, Note_on_c, 1, 70, 42
2, 830520, Note_off_c, 1, 70, 0
2, 830520, Note_on_c, 1, 72, 43
2, 830640, Note_off_c, 1, 72, 0
2, 830640, Note_on_c, 1, 75, 42
2, 830760, Note_off_c, 1, 75, 0
2, 830760, Note_on_c, 1, 73, 38
2, 830880, Note_off_c, 1, 73, 0
2, 831000, Note_on_c, 1, 85, 40
2, 831120, Note_off_c, 1, 85, 0
2, 831120, Note_on_c, 1, 84, 40
2, 831216, Note_off_c, 1, 84, 0
2, 831240, Note_on_c, 1, 82, 41
2, 831360, Note_off_c, 1, 82, 0
2, 831360, Note_on_c, 1, 80, 41
2, 831456, Note_off_c, 1, 80, 0
2, 831480, Note_on_c, 1, 79, 41
2, 831600, Note_off_c, 1, 79, 0
2, 831600, Note_on_c, 1, 77, 42
2, 831696, Note_off_c, 1, 77, 0
2, 831720, Note_on_c, 1, 75, 42
2, 831840, Note_off_c, 1, 75, 0
2, 831840, Note_on_c, 1, 73, 42
2, 831936, Note_off_c, 1, 73, 0
2, 831960, Note_on_c, 1, 72, 43
2, 832080, Note_off_c, 1, 72, 0
2, 832080, Note_on_c, 1, 70, 43
2, 832200, Note_off_c, 1, 70, 0
2, 832200, Note_on_c, 1, 73, 43
2, 832296, Note_off_c, 1, 73, 0
2, 832320, Note_on_c, 1, 70, 44
2, 832416, Note_off_c, 1, 70, 0
2, 832440, Note_on_c, 1, 70, 44
2, 832560, Note_off_c, 1, 70, 0
2, 832560, Note_on_c, 1, 61, 44
2, 832656, Note_off_c, 1, 61, 0
2, 832680, Note_on_c, 1, 63, 45
2, 832800, Note_off_c, 1, 63, 0
2, 832800, Note_on_c, 1, 60, 46
2, 832864, Note_off_c, 1, 60, 0
2, 832880, Note_on_c, 1, 72, 46
2, 832960, Note_off_c, 1, 72, 0
2, 832960, Note_on_c, 1, 72, 47
2, 833024, Note_off_c, 1, 72, 0
2, 833040, Note_on_c, 1, 72, 47
2, 833280, Note_off_c, 1, 72, 0
2, 833280, Note_on_c, 1, 77, 49
2, 833520, Note_off_c, 1, 77, 0
2, 833520, Note_on_c, 1, 79, 51
2, 833760, Note_off_c, 1, 79, 0
2, 833760, Note_on_c, 1, 80, 52
2, 834240, Note_off_c, 1, 80, 0
2, 834240, Note_on_c, 1, 82, 56
2, 834480, Note_off_c, 1, 82, 0
2, 834480, Note_on_c, 1, 80, 59
2, 834720, Note_off_c, 1, 80, 0
2, 834720, Note_on_c, 1, 79, 57
2, 834960, Note_off_c, 1, 79, 0
2, 834960, Note_on_c, 1, 77, 54
2, 835040, Note_off_c, 1, 77, 0
2, 835040, Note_on_c, 1, 79, 53
2, 835120, Note_off_c, 1, 79, 0
2, 835120, Note_on_c, 1, 80, 53
2, 835200, Note_off_c, 1, 80, 0
2, 835200, Note_on_c, 1, 82, 54
2, 835440, Note_off_c, 1, 82, 0
2, 835440, Note_on_c, 1, 87, 57
2, 835680, Note_off_c, 1, 87, 0
2, 835680, Note_on_c, 1, 89, 60
2, 835920, Note_off_c, 1, 89, 0
2, 835920, Note_on_c, 1, 91, 63
2, 836400, Note_off_c, 1, 91, 0
2, 836400, Note_on_c, 1, 94, 71
2, 836520, Note_off_c, 1, 94, 0
2, 836520, Note_on_c, 1, 92, 69
2, 836640, Note_off_c, 1, 92, 0
2, 836640, Note_on_c, 1, 92, 67
2, 836880, Note_off_c, 1, 92, 0
2, 836880, Note_on_c, 1, 91, 62
2, 837120, Note_off_c, 1, 91, 0
2, 837120, Note_on_c, 1, 89, 57
2, 837240, Note_off_c, 1, 89, 0
2, 837240, Note_on_c, 1, 90, 55
2, 837360, Note_off_c, 1, 90, 0
2, 837360, Note_on_c, 1, 91, 52
2, 837600, Note_off_c, 1, 91, 0
2, 837680, Note_on_c, 1, 74, 51
2, 837760, Note_off_c, 1, 74, 0
2, 837760, Note_on_c, 1, 75, 52
2, 837840, Note_off_c, 1, 75, 0
2, 837840, Note_on_c, 1, 82, 52
2, 837920, Note_off_c, 1, 82, 0
2, 837920, Note_on_c, 1, 78, 53
2, 838000, Note_off_c, 1, 78, 0
2, 838000, Note_on_c, 1, 79, 53
2, 838080, Note_off_c, 1, 79, 0
2, 838080, Note_on_c, 1, 87, 54
2, 838160, Note_off_c, 1, 87, 0
2, 838160, Note_on_c, 1, 81, 54
2, 838240, Note_off_c, 1, 81, 0
2, 838240, Note_on_c, 1, 82, 55
2, 838320, Note_off_c, 1, 82, 0
2, 838320, Note_on_c, 1, 91, 55
2, 838400, Note_off_c, 1, 91, 0
2, 838400, Note_on_c, 1, 86, 56
2, 838480, Note_off_c, 1, 86, 0
2, 838480, Note_on_c, 1, 87, 57
2, 838560, Note_off_c, 1, 87, 0
2, 838560, Note_on_c, 1, 94, 57
2, 838880, Note_on_c, 1, 82, 53
2, 838890, Note_off_c, 1, 94, 0
2, 838960, Note_off_c, 1, 82, 0
2, 838960, Note_on_c, 1, 92, 52
2, 839040, Note_off_c, 1, 92, 0
2, 839040, Note_on_c, 1, 89, 51
2, 839120, Note_off_c, 1, 89, 0
2, 839120, Note_on_c, 1, 82, 50
2, 839200, Note_off_c, 1, 82, 0
2, 839200, Note_on_c, 1, 91, 49
2, 839280, Note_off_c, 1, 91, 0
2, 839280, Note_on_c, 1, 87, 48
2, 839400, Note_off_c, 1, 87, 0
2, 839520, Note_on_c, 1, 79, 52
2, 839840, Note_off_c, 1, 79, 0
2, 839840, Note_on_c, 1, 74, 54
2, 839920, Note_off_c, 1, 74, 0
2, 839920, Note_on_c, 1, 75, 54
2, 840000, Note_off_c, 1, 75, 0
2, 840000, Note_on_c, 1, 82, 54
2, 840080, Note_off_c, 1, 82, 0
2, 840080, Note_on_c, 1, 78, 55
2, 840160, Note_off_c, 1, 78, 0
2, 840160, Note_on_c, 1, 79, 55
2, 840240, Note_off_c, 1, 79, 0
2, 840240, Note_on_c, 1, 87, 54
2, 840320, Note_off_c, 1, 87, 0
2, 840320, Note_on_c, 1, 81, 56
2, 840400, Note_off_c, 1, 81, 0
2, 840400, Note_on_c, 1, 82, 57
2, 840480, Note_off_c, 1, 82, 0
2, 840480, Note_on_c, 1, 91, 59
2, 840560, Note_off_c, 1, 91, 0
2, 840560, Note_on_c, 1, 86, 60
2, 840640, Note_off_c, 1, 86, 0
2, 840640, Note_on_c, 1, 87, 62
2, 840720, Note_off_c, 1, 87, 0
2, 840720, Note_on_c, 1, 96, 70
2, 841030, Note_off_c, 1, 96, 0
2, 841040, Note_on_c, 1, 91, 64
2, 841120, Note_off_c, 1, 91, 0
2, 841120, Note_on_c, 1, 94, 63
2, 841200, Note_off_c, 1, 94, 0
2, 841200, Note_on_c, 1, 92, 63
2, 841280, Note_off_c, 1, 92, 0
2, 841280, Note_on_c, 1, 86, 62
2, 841360, Note_off_c, 1, 86, 0
2, 841360, Note_on_c, 1, 94, 61
2, 841440, Note_off_c, 1, 94, 0
2, 841440, Note_on_c, 1, 91, 60
2, 841520, Note_off_c, 1, 91, 0
2, 841520, Note_on_c, 1, 87, 59
2, 841600, Note_off_c, 1, 87, 0
2, 841600, Note_on_c, 1, 92, 58
2, 841680, Note_off_c, 1, 92, 0
2, 841680, Note_on_c, 1, 91, 57
2, 841760, Note_off_c, 1, 91, 0
2, 841760, Note_on_c, 1, 86, 56
2, 841840, Note_off_c, 1, 86, 0
2, 841840, Note_on_c, 1, 89, 55
2, 841920, Note_off_c, 1, 89, 0
2, 841920, Note_on_c, 1, 87, 55
2, 842000, Note_off_c, 1, 87, 0
2, 842000, Note_on_c, 1, 84, 54
2, 842080, Note_off_c, 1, 84, 0
2, 842080, Note_on_c, 1, 89, 53
2, 842160, Note_off_c, 1, 89, 0
2, 842160, Note_on_c, 1, 87, 52
2, 842240, Note_off_c, 1, 87, 0
2, 842240, Note_on_c, 1, 82, 51
2, 842320, Note_off_c, 1, 82, 0
2, 842320, Note_on_c, 1, 85, 50
2, 842400, Note_off_c, 1, 85, 0
2, 842400, Note_on_c, 1, 84, 49
2, 842480, Note_off_c, 1, 84, 0
2, 842480, Note_on_c, 1, 80, 48
2, 842560, Note_off_c, 1, 80, 0
2, 842560, Note_on_c, 1, 85, 47
2, 842640, Note_off_c, 1, 85, 0
2, 842640, Note_on_c, 1, 84, 47
2, 842720, Note_off_c, 1, 84, 0
2, 842720, Note_on_c, 1, 79, 46
2, 842800, Note_off_c, 1, 79, 0
2, 842800, Note_on_c, 1, 82, 45
2, 842880, Note_off_c, 1, 82, 0
2, 842880, Note_on_c, 1, 80, 44
2, 842960, Note_off_c, 1, 80, 0
2, 842960, Note_on_c, 1, 72, 43
2, 843040, Note_off_c, 1, 72, 0
2, 843040, Note_on_c, 1, 84, 42
2, 843120, Note_off_c, 1, 84, 0
2, 843120, Note_on_c, 1, 84, 44
2, 843240, Note_off_c, 1, 84, 0
2, 843240, Note_on_c, 1, 82, 46
2, 843360, Note_off_c, 1, 82, 0
2, 843360, Note_on_c, 1, 80, 48
2, 843480, Note_off_c, 1, 80, 0
2, 843480, Note_on_c, 1, 79, 50
2, 843600, Note_off_c, 1, 79, 0
2, 843600, Note_on_c, 1, 77, 51
2, 843720, Note_off_c, 1, 77, 0
2, 843720, Note_on_c, 1, 80, 53
2, 843780, Note_off_c, 1, 80, 0
2, 843780, Note_on_c, 1, 94, 54
2, 843840, Note_off_c, 1, 94, 0
2, 843840, Note_on_c, 1, 91, 58
2, 843920, Note_off_c, 1, 91, 0
2, 843920, Note_on_c, 1, 79, 55
2, 844000, Note_off_c, 1, 79, 0
2, 844000, Note_on_c, 1, 89, 54
2, 844080, Note_off_c, 1, 89, 0
2, 844080, Note_on_c, 1, 87, 53
2, 844160, Note_off_c, 1, 87, 0
2, 844160, Note_on_c, 1, 79, 53
2, 844240, Note_off_c, 1, 79, 0
2, 844240, Note_on_c, 1, 89, 52
2, 844320, Note_off_c, 1, 89, 0
2, 844320, Note_on_c, 1, 87, 51
2, 844400, Note_off_c, 1, 87, 0
2, 844400, Note_on_c, 1, 75, 50
2, 844480, Note_off_c, 1, 75, 0
2, 844480, Note_on_c, 1, 85, 49
2, 844560, Note_off_c, 1, 85, 0
2, 844560, Note_on_c, 1, 84, 49
2, 844640, Note_off_c, 1, 84, 0
2, 844640, Note_on_c, 1, 75, 48
2, 844720, Note_off_c, 1, 75, 0
2, 844720, Note_on_c, 1, 85, 47
2, 844800, Note_off_c, 1, 85, 0
2, 844800, Note_on_c, 1, 84, 46
2, 844880, Note_off_c, 1, 84, 0
2, 844880, Note_on_c, 1, 72, 46
2, 844960, Note_off_c, 1, 72, 0
2, 844960, Note_on_c, 1, 82, 45
2, 845040, Note_off_c, 1, 82, 0
2, 845040, Note_on_c, 1, 80, 44
2, 845120, Note_off_c, 1, 80, 0
2, 845120, Note_on_c, 1, 72, 43
2, 845200, Note_off_c, 1, 72, 0
2, 845200, Note_on_c, 1, 84, 43
2, 845280, Note_off_c, 1, 84, 0
2, 845280, Note_on_c, 1, 84, 42
2, 845400, Note_off_c, 1, 84, 0
2, 845400, Note_on_c, 1, 82, 44
2, 845520, Note_off_c, 1, 82, 0
2, 845520, Note_on_c, 1, 80, 46
2, 845640, Note_off_c, 1, 80, 0
2, 845640, Note_on_c, 1, 79, 47
2, 845760, Note_off_c, 1, 79, 0
2, 845760, Note_on_c, 1, 77, 49
2, 845840, Note_on_c, 1, 72, 50
2, 845880, Note_off_c, 1, 77, 0
2, 845880, Note_on_c, 1, 82, 51
2, 845920, Note_off_c, 1, 72, 0
2, 845920, Note_on_c, 1, 74, 51
2, 846000, Note_off_c, 1, 74, 0
2, 846000, Note_off_c, 1, 82, 0
2, 846480, Note_on_c, 1, 80, 42
2, 846720, Note_off_c, 1, 80, 0
2, 847200, Note_on_c, 1, 77, 41
2, 847440, Note_off_c, 1, 77, 0
2, 847440, Note_on_c, 1, 68, 39
2, 847620, Note_off_c, 1, 68, 0
2, 847620, Note_on_c, 1, 70, 43
2, 847680, Note_off_c, 1, 70, 0
2, 847680, Note_on_c, 1, 68, 44
2, 847920, Note_off_c, 1, 68, 0
2, 847920, Note_on_c, 1, 67, 40
2, 848160, Note_off_c, 1, 67, 0
2, 848400, Note_on_c, 1, 67, 44
2, 848400, Note_on_c, 1, 70, 44
2, 848760, Note_off_c, 1, 70, 0
2, 848760, Note_off_c, 1, 67, 0
2, 848760, Note_on_c, 1, 68, 39
2, 848880, Note_off_c, 1, 68, 0
2, 849120, Note_on_c, 1, 67, 42
2, 849480, Note_off_c, 1, 67, 0
2, 849480, Note_on_c, 1, 65, 39
2, 849600, Note_off_c, 1, 65, 0
2, 849600, Note_on_c, 1, 56, 38
2, 849720, Note_off_c, 1, 56, 0
2, 849720, Note_on_c, 1, 60, 41
2, 849780, Note_off_c, 1, 60, 0
2, 849780, Note_on_c, 1, 58, 40
2, 849840, Note_off_c, 1, 58, 0
2, 849840, Note_on_c, 1, 56, 39
2, 850080, Note_off_c, 1, 56, 0
2, 850080, Note_on_c, 1, 55, 37
2, 850980, Note_off_c, 1, 55, 0
2, 851040, Control_c, 1, 64, 0
2, 851280, Note_on_c, 1, 70, 71
2, 851520, Note_off_c, 1, 70, 0
2, 851520, Note_on_c, 1, 72, 71
2, 851760, Note_off_c, 1, 72, 0
2, 851760, Note_on_c, 1, 74, 72
2, 852000, Note_off_c, 1, 74, 0
2, 852000, Note_on_c, 1, 75, 72
2, 852240, Note_off_c, 1, 75, 0
2, 852240, Note_on_c, 1, 77, 73
2, 852480, Note_off_c, 1, 77, 0
2, 852480, Note_on_c, 1, 79, 74
2, 852720, Note_off_c, 1, 79, 0
2, 852720, Note_on_c, 1, 75, 74
2, 852960, Note_off_c, 1, 75, 0
2, 852960, Note_on_c, 1, 80, 75
2, 853200, Note_off_c, 1, 80, 0
2, 853200, Note_on_c, 1, 79, 75
2, 853440, Note_off_c, 1, 79, 0
2, 853440, Note_on_c, 1, 80, 76
2, 853680, Note_off_c, 1, 80, 0
2, 853680, Note_on_c, 1, 77, 76
2, 853920, Note_off_c, 1, 77, 0
2, 853920, Note_on_c, 1, 89, 77
2, 854160, Note_off_c, 1, 89, 0
2, 854160, Note_on_c, 1, 87, 78
2, 854400, Note_off_c, 1, 87, 0
2, 854400, Note_on_c, 1, 89, 78
2, 854640, Note_off_c, 1, 89, 0
2, 854640, Note_on_c, 1, 86, 79
2, 854880, Note_off_c, 1, 86, 0
2, 854880, Note_on_c, 1, 86, 79
2, 855120, Note_off_c, 1, 86, 0
2, 855120, Note_on_c, 1, 87, 78
2, 855360, Note_off_c, 1, 87, 0
2, 855360, Note_on_c, 1, 86, 77
2, 855600, Note_off_c, 1, 86, 0
2, 855600, Note_on_c, 1, 84, 77
2, 855840, Note_off_c, 1, 84, 0
2, 855840, Note_on_c, 1, 82, 77
2, 856080, Note_off_c, 1, 82, 0
2, 856080, Note_on_c, 1, 84, 76
2, 856320, Note_off_c, 1, 84, 0
2, 856320, Note_on_c, 1, 82, 76
2, 856560, Note_off_c, 1, 82, 0
2, 856560, Note_on_c, 1, 80, 75
2, 856800, Note_off_c, 1, 80, 0
2, 856800, Note_on_c, 1, 79, 75
2, 857040, Note_off_c, 1, 79, 0
2, 857040, Note_on_c, 1, 80, 75
2, 857280, Note_off_c, 1, 80, 0
2, 857280, Note_on_c, 1, 79, 74
2, 857520, Note_off_c, 1, 79, 0
2, 857520, Note_on_c, 1, 77, 74
2, 857760, Note_off_c, 1, 77, 0
2, 857760, Note_on_c, 1, 75, 73
2, 858000, Note_off_c, 1, 75, 0
2, 858000, Note_on_c, 1, 74, 73
2, 858240, Note_off_c, 1, 74, 0
2, 858240, Note_on_c, 1, 72, 73
2, 858480, Note_off_c, 1, 72, 0
2, 858480, Note_on_c, 1, 74, 72
2, 858720, Note_off_c, 1, 74, 0
2, 858720, Note_on_c, 1, 75, 75
2, 858960, Note_off_c, 1, 75, 0
2, 859200, Note_on_c, 1, 75, 73
2, 859440, Note_off_c, 1, 75, 0
2, 859680, Note_on_c, 1, 79, 70
2, 859920, Note_off_c, 1, 79, 0
2, 860160, Note_on_c, 1, 82, 68
2, 860400, Note_off_c, 1, 82, 0
2, 860640, Note_on_c, 1, 87, 65
2, 860880, Note_off_c, 1, 87, 0
2, 860880, End_track
3, 0, Start_track
3, 0, Title_t, "Unnamed Track"
3, 0, Control_c, 2, 0, 0
3, 0, Control_c, 2, 32, 0
3, 0, Program_c, 2, 0
3, 0, Control_c, 2, 7, 122
3, 0, Pitch_bend_c, 2, 8192
3, 0, Control_c, 2, 1, 0
3, 0, Control_c, 2, 64, 0
3, 0, Control_c, 2, 93, 28
3, 0, Control_c, 2, 91, 100
3, 0, Control_c, 2, 10, 73
3, 480, Control_c, 2, 64, 0
3, 960, Control_c, 2, 64, 0
3, 11280, Note_on_c, 2, 72, 59
3, 11520, Note_off_c, 2, 72, 0
3, 11520, Note_on_c, 2, 72, 59
3, 12000, Note_off_c, 2, 72, 0
3, 12000, Note_on_c, 2, 71, 47
3, 12427, Note_off_c, 2, 71, 0
3, 12480, Control_c, 2, 64, 0
3, 13920, Note_on_c, 2, 67, 47
3, 13980, Note_off_c, 2, 67, 0
3, 13980, Note_on_c, 2, 69, 48
3, 14040, Note_off_c, 2, 69, 0
3, 14040, Note_on_c, 2, 67, 48
3, 14100, Note_off_c, 2, 67, 0
3, 14100, Note_on_c, 2, 69, 48
3, 14160, Note_off_c, 2, 69, 0
3, 14160, Note_on_c, 2, 67, 48
3, 14200, Note_off_c, 2, 67, 0
3, 14200, Note_on_c, 2, 69, 48
3, 14240, Note_off_c, 2, 69, 0
3, 14240, Note_on_c, 2, 67, 48
3, 14280, Note_off_c, 2, 67, 0
3, 14280, Note_on_c, 2, 66, 48
3, 14340, Note_off_c, 2, 66, 0
3, 14340, Note_on_c, 2, 67, 48
3, 14400, Note_off_c, 2, 67, 0
3, 15360, Note_on_c, 2, 71, 51
3, 15420, Note_off_c, 2, 71, 0
3, 15420, Note_on_c, 2, 72, 51
3, 15480, Note_off_c, 2, 72, 0
3, 15480, Note_on_c, 2, 71, 51
3, 15540, Note_off_c, 2, 71, 0
3, 15540, Note_on_c, 2, 72, 51
3, 15600, Note_off_c, 2, 72, 0
3, 15600, Note_on_c, 2, 71, 51
3, 15640, Note_off_c, 2, 71, 0
3, 15640, Note_on_c, 2, 72, 51
3, 15680, Note_off_c, 2, 72, 0
3, 15680, Note_on_c, 2, 71, 52
3, 15720, Note_off_c, 2, 71, 0
3, 15720, Note_on_c, 2, 69, 52
3, 15780, Note_off_c, 2, 69, 0
3, 15780, Note_on_c, 2, 71, 52
3, 15840, Note_off_c, 2, 71, 0
3, 22560, Note_on_c, 2, 72, 65
3, 23040, Note_off_c, 2, 72, 0
3, 23040, Note_on_c, 2, 72, 58
3, 23520, Note_off_c, 2, 72, 0
3, 23520, Note_on_c, 2, 71, 44
3, 23947, Note_off_c, 2, 71, 0
3, 24000, Control_c, 2, 64, 0
3, 24000, Note_on_c, 2, 67, 48
3, 24480, Note_off_c, 2, 67, 0
3, 24480, Note_on_c, 2, 66, 50
3, 25200, Note_off_c, 2, 66, 0
3, 25200, Note_on_c, 2, 67, 52
3, 25440, Note_off_c, 2, 67, 0
3, 25440, Note_on_c, 2, 64, 53
3, 25680, Note_off_c, 2, 64, 0
3, 25680, Note_on_c, 2, 66, 54
3, 25920, Note_off_c, 2, 66, 0
3, 25920, Note_on_c, 2, 66, 57
3, 26160, Note_off_c, 2, 66, 0
3, 26880, Note_on_c, 2, 62, 53
3, 27307, Note_off_c, 2, 62, 0
3, 27360, Note_on_c, 2, 67, 52
3, 27840, Note_off_c, 2, 67, 0
3, 27840, Note_on_c, 2, 66, 50
3, 28320, Note_off_c, 2, 66, 0
3, 28320, Note_on_c, 2, 64, 48
3, 28320, Note_on_c, 2, 67, 48
3, 28800, Note_off_c, 2, 67, 0
3, 28800, Note_off_c, 2, 64, 0
3, 28800, Note_on_c, 2, 66, 46
3, 29280, Note_off_c, 2, 66, 0
3, 29280, Note_on_c, 2, 62, 47
3, 29760, Note_off_c, 2, 62, 0
3, 43680, Note_on_c, 2, 72, 55
3, 44640, Note_off_c, 2, 72, 0
3, 45120, Note_on_c, 2, 57, 44
3, 45312, Note_off_c, 2, 57, 0
3, 45360, Note_on_c, 2, 57, 44
3, 45360, Note_on_c, 2, 60, 44
3, 45552, Note_off_c, 2, 60, 0
3, 45552, Note_off_c, 2, 57, 0
3, 45600, Note_on_c, 2, 57, 45
3, 45600, Note_on_c, 2, 60, 45
3, 45792, Note_off_c, 2, 60, 0
3, 45792, Note_off_c, 2, 57, 0
3, 45840, Note_on_c, 2, 57, 46
3, 45840, Note_on_c, 2, 60, 46
3, 46032, Note_off_c, 2, 60, 0
3, 46032, Note_off_c, 2, 57, 0
3, 46080, Note_on_c, 2, 62, 47
3, 46080, Note_on_c, 2, 59, 47
3, 46320, Note_off_c, 2, 59, 0
3, 46320, Note_off_c, 2, 62, 0
3, 46320, Note_on_c, 2, 62, 47
3, 46320, Note_on_c, 2, 59, 47
3, 46512, Note_off_c, 2, 59, 0
3, 46512, Note_off_c, 2, 62, 0
3, 46560, Note_on_c, 2, 62, 48
3, 46560, Note_on_c, 2, 60, 48
3, 46800, Note_off_c, 2, 60, 0
3, 46800, Note_off_c, 2, 62, 0
3, 46800, Note_on_c, 2, 62, 49
3, 46800, Note_on_c, 2, 60, 49
3, 46992, Note_off_c, 2, 60, 0
3, 46992, Note_off_c, 2, 62, 0
3, 47040, Note_on_c, 2, 62, 50
3, 47040, Note_on_c, 2, 60, 50
3, 47280, Note_off_c, 2, 60, 0
3, 47280, Note_off_c, 2, 62, 0
3, 47280, Note_on_c, 2, 66, 51
3, 47472, Note_off_c, 2, 66, 0
3, 47520, Note_on_c, 2, 67, 52
3, 47760, Note_off_c, 2, 67, 0
3, 47760, Note_on_c, 2, 67, 53
3, 47952, Note_off_c, 2, 67, 0
3, 48000, Note_on_c, 2, 67, 53
3, 48480, Note_off_c, 2, 67, 0
3, 48480, Note_on_c, 2, 72, 55
3, 48960, Note_off_c, 2, 72, 0
3, 48960, Note_on_c, 2, 72, 53
3, 49440, Note_off_c, 2, 72, 0
3, 49440, Note_on_c, 2, 72, 51
3, 49680, Note_off_c, 2, 72, 0
3, 49680, Note_on_c, 2, 71, 50
3, 49920, Note_off_c, 2, 71, 0
3, 49920, Note_on_c, 2, 69, 49
3, 50160, Note_off_c, 2, 69, 0
3, 50160, Note_on_c, 2, 71, 48
3, 50352, Note_off_c, 2, 71, 0
3, 50400, Note_on_c, 2, 79, 46
3, 50640, Note_off_c, 2, 79, 0
3, 50640, Note_on_c, 2, 78, 47
3, 50880, Note_off_c, 2, 78, 0
3, 50880, Note_on_c, 2, 78, 48
3, 51600, Note_off_c, 2, 78, 0
3, 51600, Note_on_c, 2, 74, 52
3, 51840, Note_off_c, 2, 74, 0
3, 51840, Note_on_c, 2, 79, 53
3, 52080, Note_off_c, 2, 79, 0
3, 52080, Note_on_c, 2, 74, 54
3, 52320, Note_off_c, 2, 74, 0
3, 52320, Note_on_c, 2, 76, 55
3, 52560, Note_off_c, 2, 76, 0
3, 52560, Note_on_c, 2, 79, 56
3, 52800, Note_off_c, 2, 79, 0
3, 52800, Note_on_c, 2, 77, 57
3, 53040, Note_off_c, 2, 77, 0
3, 53040, Note_on_c, 2, 76, 58
3, 53280, Note_off_c, 2, 76, 0
3, 53280, Note_on_c, 2, 78, 59
3, 53760, Note_off_c, 2, 78, 0
3, 53760, Note_on_c, 2, 76, 62
3, 54120, Note_off_c, 2, 76, 0
3, 54120, Note_on_c, 2, 77, 63
3, 54240, Note_off_c, 2, 77, 0
3, 54240, Note_on_c, 2, 79, 65
3, 54480, Note_off_c, 2, 79, 0
3, 54480, Note_on_c, 2, 78, 63
3, 54600, Note_off_c, 2, 78, 0
3, 54600, Note_on_c, 2, 79, 61
3, 54720, Note_off_c, 2, 79, 0
3, 54960, Note_on_c, 2, 72, 58
3, 55200, Note_off_c, 2, 72, 0
3, 55200, Note_on_c, 2, 72, 55
3, 55440, Note_off_c, 2, 72, 0
3, 55440, Note_on_c, 2, 71, 53
3, 55680, Note_off_c, 2, 71, 0
3, 55680, Note_on_c, 2, 71, 50
3, 55836, Note_off_c, 2, 71, 0
3, 57360, Note_on_c, 2, 64, 48
3, 57516, Note_off_c, 2, 64, 0
3, 57600, Note_on_c, 2, 66, 47
3, 57756, Note_off_c, 2, 66, 0
3, 57840, Note_on_c, 2, 62, 47
3, 57996, Note_off_c, 2, 62, 0
3, 58080, Note_on_c, 2, 67, 46
3, 58236, Note_off_c, 2, 67, 0
3, 58320, Note_on_c, 2, 69, 46
3, 58476, Note_off_c, 2, 69, 0
3, 58560, Note_on_c, 2, 71, 45
3, 58716, Note_off_c, 2, 71, 0
3, 58800, Note_on_c, 2, 72, 45
3, 58956, Note_off_c, 2, 72, 0
3, 59040, Note_on_c, 2, 74, 44
3, 59520, Note_off_c, 2, 74, 0
3, 60240, Note_on_c, 2, 76, 42
3, 60396, Note_off_c, 2, 76, 0
3, 60480, Note_on_c, 2, 78, 43
3, 60636, Note_off_c, 2, 78, 0
3, 60720, Note_on_c, 2, 74, 44
3, 60876, Note_off_c, 2, 74, 0
3, 60960, Note_on_c, 2, 79, 45
3, 61116, Note_off_c, 2, 79, 0
3, 61200, Note_on_c, 2, 81, 45
3, 61356, Note_off_c, 2, 81, 0
3, 61440, Note_on_c, 2, 83, 46
3, 61596, Note_off_c, 2, 83, 0
3, 61680, Note_on_c, 2, 84, 47
3, 61836, Note_off_c, 2, 84, 0
3, 61920, Note_on_c, 2, 86, 48
3, 62400, Note_off_c, 2, 86, 0
3, 63120, Note_on_c, 2, 85, 41
3, 63276, Note_off_c, 2, 85, 0
3, 63360, Note_on_c, 2, 84, 39
3, 63516, Note_off_c, 2, 84, 0
3, 63600, Note_on_c, 2, 84, 37
3, 63756, Note_off_c, 2, 84, 0
3, 63840, Note_on_c, 2, 83, 35
3, 63996, Note_off_c, 2, 83, 0
3, 64560, Note_on_c, 2, 85, 40
3, 64716, Note_off_c, 2, 85, 0
3, 64800, Note_on_c, 2, 84, 41
3, 64956, Note_off_c, 2, 84, 0
3, 65040, Note_on_c, 2, 84, 42
3, 65196, Note_off_c, 2, 84, 0
3, 65280, Note_on_c, 2, 83, 43
3, 65760, Note_off_c, 2, 83, 0
3, 66240, Note_on_c, 2, 86, 51
3, 66720, Note_off_c, 2, 86, 0
3, 66720, Note_on_c, 2, 90, 46
3, 66960, Note_off_c, 2, 90, 0
3, 66960, Note_on_c, 2, 84, 40
3, 67200, Note_off_c, 2, 84, 0
3, 67200, Note_on_c, 2, 83, 34
3, 67440, Note_off_c, 2, 83, 0
3, 70560, Control_c, 2, 64, 0
3, 76080, Note_on_c, 2, 67, 50
3, 76320, Note_off_c, 2, 67, 0
3, 76320, Note_on_c, 2, 67, 53
3, 76560, Note_off_c, 2, 67, 0
3, 76560, Note_on_c, 2, 67, 51
3, 76752, Note_off_c, 2, 67, 0
3, 76800, Note_on_c, 2, 67, 50
3, 77040, Note_off_c, 2, 67, 0
3, 77040, Note_on_c, 2, 67, 48
3, 77232, Note_off_c, 2, 67, 0
3, 77280, Note_on_c, 2, 67, 49
3, 77520, Note_off_c, 2, 67, 0
3, 77520, Note_on_c, 2, 66, 46
3, 77712, Note_off_c, 2, 66, 0
3, 77760, Note_on_c, 2, 66, 42
3, 77856, Note_off_c, 2, 66, 0
3, 84240, Note_on_c, 2, 72, 49
3, 84480, Note_off_c, 2, 72, 0
3, 84480, Note_on_c, 2, 70, 48
3, 84720, Note_off_c, 2, 70, 0
3, 84720, Note_on_c, 2, 69, 46
3, 84912, Note_off_c, 2, 69, 0
3, 84960, Note_on_c, 2, 69, 49
3, 85200, Note_off_c, 2, 69, 0
3, 92160, Note_on_c, 2, 58, 46
3, 92640, Note_off_c, 2, 58, 0
3, 92640, Note_on_c, 2, 58, 48
3, 93120, Note_off_c, 2, 58, 0
3, 93120, Note_on_c, 2, 63, 50
3, 93600, Note_off_c, 2, 63, 0
3, 93600, Note_on_c, 2, 62, 52
3, 93840, Note_off_c, 2, 62, 0
3, 95520, Control_c, 2, 64, 0
3, 101040, Note_on_c, 2, 67, 50
3, 101280, Note_off_c, 2, 67, 0
3, 101280, Note_on_c, 2, 67, 53
3, 101520, Note_off_c, 2, 67, 0
3, 101520, Note_on_c, 2, 67, 51
3, 101712, Note_off_c, 2, 67, 0
3, 101760, Note_on_c, 2, 67, 50
3, 102000, Note_off_c, 2, 67, 0
3, 102000, Note_on_c, 2, 67, 48
3, 102192, Note_off_c, 2, 67, 0
3, 102240, Note_on_c, 2, 67, 49
3, 102480, Note_off_c, 2, 67, 0
3, 102480, Note_on_c, 2, 66, 46
3, 102672, Note_off_c, 2, 66, 0
3, 102720, Note_on_c, 2, 66, 42
3, 102816, Note_off_c, 2, 66, 0
3, 109200, Note_on_c, 2, 72, 49
3, 109440, Note_off_c, 2, 72, 0
3, 109440, Note_on_c, 2, 70, 48
3, 109680, Note_off_c, 2, 70, 0
3, 109680, Note_on_c, 2, 69, 46
3, 109872, Note_off_c, 2, 69, 0
3, 109920, Note_on_c, 2, 69, 49
3, 110160, Note_off_c, 2, 69, 0
3, 117120, Note_on_c, 2, 58, 46
3, 117600, Note_off_c, 2, 58, 0
3, 117600, Note_on_c, 2, 58, 48
3, 118080, Note_off_c, 2, 58, 0
3, 118080, Note_on_c, 2, 63, 50
3, 118560, Note_off_c, 2, 63, 0
3, 118560, Note_on_c, 2, 62, 52
3, 118800, Note_off_c, 2, 62, 0
3, 120480, Control_c, 2, 64, 0
3, 128160, Note_on_c, 2, 72, 44
3, 128640, Note_off_c, 2, 72, 0
3, 128640, Note_on_c, 2, 70, 46
3, 129120, Note_off_c, 2, 70, 0
3, 129120, Note_on_c, 2, 67, 48
3, 129600, Note_off_c, 2, 67, 0
3, 129600, Note_on_c, 2, 63, 49
3, 130080, Note_off_c, 2, 63, 0
3, 133680, Note_on_c, 2, 68, 66
3, 133872, Note_off_c, 2, 68, 0
3, 133920, Note_on_c, 2, 67, 62
3, 134400, Note_off_c, 2, 67, 0
3, 134400, Note_on_c, 2, 67, 55
3, 134880, Note_off_c, 2, 67, 0
3, 154200, Note_on_c, 2, 73, 81
3, 154320, Note_off_c, 2, 73, 0
3, 154440, Note_on_c, 2, 73, 85
3, 154560, Note_off_c, 2, 73, 0
3, 154680, Note_on_c, 2, 74, 89
3, 154800, Note_off_c, 2, 74, 0
3, 154920, Note_on_c, 2, 74, 93
3, 155040, Note_off_c, 2, 74, 0
3, 155160, Note_on_c, 2, 75, 96
3, 155280, Note_off_c, 2, 75, 0
3, 155400, Note_on_c, 2, 75, 92
3, 155520, Note_off_c, 2, 75, 0
3, 155640, Note_on_c, 2, 74, 89
3, 155760, Note_off_c, 2, 74, 0
3, 155880, Note_on_c, 2, 74, 86
3, 156000, Note_off_c, 2, 74, 0
3, 156120, Note_on_c, 2, 77, 86
3, 156240, Note_off_c, 2, 77, 0
3, 156360, Note_on_c, 2, 77, 89
3, 156480, Note_off_c, 2, 77, 0
3, 156600, Note_on_c, 2, 77, 93
3, 156720, Note_off_c, 2, 77, 0
3, 156840, Note_on_c, 2, 77, 97
3, 156960, Note_off_c, 2, 77, 0
3, 157080, Note_on_c, 2, 77, 97
3, 157200, Note_off_c, 2, 77, 0
3, 157320, Note_on_c, 2, 77, 94
3, 157440, Note_off_c, 2, 77, 0
3, 157560, Note_on_c, 2, 77, 90
3, 157680, Note_off_c, 2, 77, 0
3, 157680, Note_on_c, 2, 86, 88
3, 157800, Note_on_c, 2, 77, 86
3, 157920, Note_off_c, 2, 77, 0
3, 157920, Note_off_c, 2, 86, 0
3, 158040, Note_on_c, 2, 79, 85
3, 158160, Note_off_c, 2, 79, 0
3, 158160, Note_on_c, 2, 84, 85
3, 158280, Note_off_c, 2, 84, 0
3, 158280, Note_on_c, 2, 79, 86
3, 158400, Note_off_c, 2, 79, 0
3, 158520, Note_on_c, 2, 79, 87
3, 158640, Note_off_c, 2, 79, 0
3, 158640, Note_on_c, 2, 84, 88
3, 158760, Note_off_c, 2, 84, 0
3, 158760, Note_on_c, 2, 79, 89
3, 158880, Note_off_c, 2, 79, 0
3, 159000, Note_on_c, 2, 79, 90
3, 159120, Note_off_c, 2, 79, 0
3, 159120, Note_on_c, 2, 84, 91
3, 159240, Note_off_c, 2, 84, 0
3, 159240, Note_on_c, 2, 79, 91
3, 159360, Note_off_c, 2, 79, 0
3, 159480, Note_on_c, 2, 79, 93
3, 159600, Note_off_c, 2, 79, 0
3, 159600, Note_on_c, 2, 82, 93
3, 159720, Note_off_c, 2, 82, 0
3, 159720, Note_on_c, 2, 79, 94
3, 159840, Note_off_c, 2, 79, 0
3, 159960, Note_on_c, 2, 79, 95
3, 160080, Note_off_c, 2, 79, 0
3, 160080, Note_on_c, 2, 82, 96
3, 160200, Note_off_c, 2, 82, 0
3, 160200, Note_on_c, 2, 79, 97
3, 160320, Note_off_c, 2, 79, 0
3, 160440, Note_on_c, 2, 79, 98
3, 160560, Note_off_c, 2, 79, 0
3, 160560, Note_on_c, 2, 82, 98
3, 160680, Note_off_c, 2, 82, 0
3, 160680, Note_on_c, 2, 79, 99
3, 160800, Note_off_c, 2, 79, 0
3, 160920, Note_on_c, 2, 75, 100
3, 161040, Note_off_c, 2, 75, 0
3, 161040, Note_on_c, 2, 81, 101
3, 161160, Note_off_c, 2, 81, 0
3, 161160, Note_on_c, 2, 75, 102
3, 161280, Note_off_c, 2, 75, 0
3, 161400, Note_on_c, 2, 74, 103
3, 161520, Note_off_c, 2, 74, 0
3, 161520, Note_on_c, 2, 79, 104
3, 161640, Note_off_c, 2, 79, 0
3, 161640, Note_on_c, 2, 74, 104
3, 161760, Note_off_c, 2, 74, 0
3, 161880, Note_on_c, 2, 72, 106
3, 162000, Note_off_c, 2, 72, 0
3, 162000, Note_on_c, 2, 75, 105
3, 162120, Note_off_c, 2, 75, 0
3, 162120, Note_on_c, 2, 72, 103
3, 162240, Note_off_c, 2, 72, 0
3, 162360, Note_on_c, 2, 70, 101
3, 162480, Note_off_c, 2, 70, 0
3, 162480, Note_on_c, 2, 75, 100
3, 162600, Note_off_c, 2, 75, 0
3, 162600, Note_on_c, 2, 70, 99
3, 162720, Note_off_c, 2, 70, 0
3, 162840, Note_on_c, 2, 72, 97
3, 162960, Note_off_c, 2, 72, 0
3, 162960, Note_on_c, 2, 75, 95
3, 163080, Note_off_c, 2, 75, 0
3, 163080, Note_on_c, 2, 72, 94
3, 163200, Note_off_c, 2, 72, 0
3, 163320, Note_on_c, 2, 72, 92
3, 163440, Note_off_c, 2, 72, 0
3, 163440, Note_on_c, 2, 75, 91
3, 163560, Note_off_c, 2, 75, 0
3, 163560, Note_on_c, 2, 72, 90
3, 163680, Note_off_c, 2, 72, 0
3, 163800, Note_on_c, 2, 72, 88
3, 163920, Note_off_c, 2, 72, 0
3, 163920, Note_on_c, 2, 75, 86
3, 164040, Note_off_c, 2, 75, 0
3, 164040, Note_on_c, 2, 72, 85
3, 164160, Note_off_c, 2, 72, 0
3, 164280, Note_on_c, 2, 67, 83
3, 164400, Note_off_c, 2, 67, 0
3, 164400, Note_on_c, 2, 73, 82
3, 164520, Note_off_c, 2, 73, 0
3, 164520, Note_on_c, 2, 67, 81
3, 164640, Note_off_c, 2, 67, 0
3, 164760, Note_on_c, 2, 69, 78
3, 164880, Note_off_c, 2, 69, 0
3, 164880, Note_on_c, 2, 72, 77
3, 165000, Note_off_c, 2, 72, 0
3, 165000, Note_on_c, 2, 69, 76
3, 165120, Note_off_c, 2, 69, 0
3, 165280, Note_on_c, 2, 70, 74
3, 165440, Note_off_c, 2, 70, 0
3, 165440, Note_on_c, 2, 67, 72
3, 165600, Note_off_c, 2, 67, 0
3, 165760, Note_on_c, 2, 60, 68
3, 165920, Note_off_c, 2, 60, 0
3, 165920, Note_on_c, 2, 63, 68
3, 166080, Note_off_c, 2, 63, 0
3, 166240, Note_on_c, 2, 58, 66
3, 166400, Note_off_c, 2, 58, 0
3, 166400, Note_on_c, 2, 63, 65
3, 166560, Note_off_c, 2, 63, 0
3, 166720, Note_on_c, 2, 60, 63
3, 166880, Note_off_c, 2, 60, 0
3, 166880, Note_on_c, 2, 63, 62
3, 167040, Note_off_c, 2, 63, 0
3, 167200, Note_on_c, 2, 60, 60
3, 167360, Note_off_c, 2, 60, 0
3, 167360, Note_on_c, 2, 63, 60
3, 167520, Note_off_c, 2, 63, 0
3, 167680, Note_on_c, 2, 60, 58
3, 167840, Note_off_c, 2, 60, 0
3, 167840, Note_on_c, 2, 63, 57
3, 168000, Note_off_c, 2, 63, 0
3, 168160, Note_on_c, 2, 55, 55
3, 168320, Note_off_c, 2, 55, 0
3, 168320, Note_on_c, 2, 61, 54
3, 168480, Note_off_c, 2, 61, 0
3, 168640, Note_on_c, 2, 57, 52
3, 168800, Note_off_c, 2, 57, 0
3, 168800, Note_on_c, 2, 60, 52
3, 168960, Note_off_c, 2, 60, 0
3, 169120, Note_on_c, 2, 58, 50
3, 169280, Note_off_c, 2, 58, 0
3, 169280, Note_on_c, 2, 62, 49
3, 169440, Note_off_c, 2, 62, 0
3, 170400, Control_c, 2, 64, 127
3, 170560, Note_on_c, 2, 60, 51
3, 170720, Note_off_c, 2, 60, 0
3, 170720, Note_on_c, 2, 63, 51
3, 170880, Note_off_c, 2, 63, 0
3, 171040, Note_on_c, 2, 67, 52
3, 171200, Note_off_c, 2, 67, 0
3, 171200, Note_on_c, 2, 72, 52
3, 171360, Control_c, 2, 64, 0
3, 171360, Note_off_c, 2, 72, 0
3, 173280, Note_on_c, 2, 67, 40
3, 174240, Note_off_c, 2, 67, 0
3, 174240, Note_on_c, 2, 67, 45
3, 174720, Note_off_c, 2, 67, 0
3, 179760, Note_on_c, 2, 72, 44
3, 180000, Note_off_c, 2, 72, 0
3, 180000, Note_on_c, 2, 70, 39
3, 180156, Note_off_c, 2, 70, 0
3, 182160, Note_on_c, 2, 55, 45
3, 182400, Note_off_c, 2, 55, 0
3, 182400, Note_on_c, 2, 56, 45
3, 182592, Note_off_c, 2, 56, 0
3, 182640, Note_on_c, 2, 60, 46
3, 182880, Note_off_c, 2, 60, 0
3, 182880, Note_on_c, 2, 60, 47
3, 182880, Note_on_c, 2, 56, 47
3, 183120, Note_off_c, 2, 56, 0
3, 183120, Note_off_c, 2, 60, 0
3, 183120, Note_on_c, 2, 58, 48
3, 183120, Note_on_c, 2, 55, 48
3, 183312, Note_off_c, 2, 55, 0
3, 183312, Note_off_c, 2, 58, 0
3, 183360, Note_on_c, 2, 53, 49
3, 183360, Note_on_c, 2, 56, 49
3, 183600, Note_off_c, 2, 56, 0
3, 183600, Note_off_c, 2, 53, 0
3, 183600, Note_on_c, 2, 56, 49
3, 183600, Note_on_c, 2, 53, 49
3, 183840, Note_off_c, 2, 53, 0
3, 183840, Note_off_c, 2, 56, 0
3, 183840, Note_on_c, 2, 56, 50
3, 183840, Note_on_c, 2, 53, 50
3, 184032, Note_off_c, 2, 53, 0
3, 184032, Note_off_c, 2, 56, 0
3, 184080, Note_on_c, 2, 56, 46
3, 184080, Note_on_c, 2, 53, 46
3, 184320, Note_off_c, 2, 53, 0
3, 184320, Note_off_c, 2, 56, 0
3, 184320, Note_on_c, 2, 55, 48
3, 184440, Note_off_c, 2, 55, 0
3, 184440, Note_on_c, 2, 56, 49
3, 184560, Note_off_c, 2, 56, 0
3, 185040, Note_on_c, 2, 56, 51
3, 185160, Note_off_c, 2, 56, 0
3, 185160, Note_on_c, 2, 58, 50
3, 185280, Note_off_c, 2, 58, 0
3, 186000, Note_on_c, 2, 62, 53
3, 186120, Note_off_c, 2, 62, 0
3, 186120, Note_on_c, 2, 63, 52
3, 186240, Note_off_c, 2, 63, 0
3, 186240, Note_on_c, 2, 63, 52
3, 186480, Note_off_c, 2, 63, 0
3, 186480, Note_on_c, 2, 65, 54
3, 186720, Note_off_c, 2, 65, 0
3, 186720, Note_on_c, 2, 58, 56
3, 186840, Note_off_c, 2, 58, 0
3, 186840, Note_on_c, 2, 60, 57
3, 186960, Note_off_c, 2, 60, 0
3, 186960, Note_on_c, 2, 63, 57
3, 187200, Note_off_c, 2, 63, 0
3, 187200, Note_on_c, 2, 62, 51
3, 187392, Note_off_c, 2, 62, 0
3, 187440, Note_on_c, 2, 63, 48
3, 187560, Note_off_c, 2, 63, 0
3, 187560, Note_on_c, 2, 65, 50
3, 187680, Note_off_c, 2, 65, 0
3, 187680, Note_on_c, 2, 63, 52
3, 188160, Note_off_c, 2, 63, 0
3, 188160, Note_on_c, 2, 60, 51
3, 188400, Note_off_c, 2, 60, 0
3, 188400, Note_on_c, 2, 68, 52
3, 188640, Note_off_c, 2, 68, 0
3, 188640, Note_on_c, 2, 65, 53
3, 188880, Note_off_c, 2, 65, 0
3, 188880, Note_on_c, 2, 63, 54
3, 189072, Note_off_c, 2, 63, 0
3, 189120, Note_on_c, 2, 63, 55
3, 189360, Note_off_c, 2, 63, 0
3, 189360, Note_on_c, 2, 62, 55
3, 189552, Note_off_c, 2, 62, 0
3, 189600, Note_on_c, 2, 60, 56
3, 189792, Note_off_c, 2, 60, 0
3, 189840, Note_on_c, 2, 60, 57
3, 190080, Note_off_c, 2, 60, 0
3, 190320, Note_on_c, 2, 58, 49
3, 190512, Note_off_c, 2, 58, 0
3, 192000, Note_on_c, 2, 74, 68
3, 192360, Note_off_c, 2, 74, 0
3, 192360, Note_on_c, 2, 75, 57
3, 192480, Note_off_c, 2, 75, 0
3, 192480, Note_on_c, 2, 77, 54
3, 192600, Note_off_c, 2, 77, 0
3, 192600, Note_on_c, 2, 68, 51
3, 192720, Note_off_c, 2, 68, 0
3, 192720, Note_on_c, 2, 68, 52
3, 192960, Note_off_c, 2, 68, 0
3, 192960, Note_on_c, 2, 67, 48
3, 193152, Note_off_c, 2, 67, 0
3, 193680, Note_on_c, 2, 67, 48
3, 193920, Note_off_c, 2, 67, 0
3, 193920, Note_on_c, 2, 68, 51
3, 194160, Note_off_c, 2, 68, 0
3, 194160, Note_on_c, 2, 67, 51
3, 194400, Note_off_c, 2, 67, 0
3, 194400, Note_on_c, 2, 65, 48
3, 194592, Note_off_c, 2, 65, 0
3, 195120, Note_on_c, 2, 75, 53
3, 195360, Note_off_c, 2, 75, 0
3, 195360, Note_on_c, 2, 77, 56
3, 195600, Note_off_c, 2, 77, 0
3, 195600, Note_on_c, 2, 75, 56
3, 195840, Note_off_c, 2, 75, 0
3, 195840, Note_on_c, 2, 74, 51
3, 195936, Note_off_c, 2, 74, 0
3, 195960, Note_on_c, 2, 79, 56
3, 196080, Note_off_c, 2, 79, 0
3, 196080, Note_on_c, 2, 80, 57
3, 196200, Note_off_c, 2, 80, 0
3, 196200, Note_on_c, 2, 77, 59
3, 196320, Note_off_c, 2, 77, 0
3, 196320, Note_on_c, 2, 79, 60
3, 196800, Note_off_c, 2, 79, 0
3, 196800, Note_on_c, 2, 82, 66
3, 196920, Note_off_c, 2, 82, 0
3, 196920, Note_on_c, 2, 84, 67
3, 196920, Note_on_c, 2, 80, 67
3, 197040, Note_off_c, 2, 80, 0
3, 197040, Note_off_c, 2, 84, 0
3, 197040, Note_on_c, 2, 84, 69
3, 197040, Note_on_c, 2, 80, 69
3, 197280, Note_off_c, 2, 80, 0
3, 197280, Note_off_c, 2, 84, 0
3, 197280, Note_on_c, 2, 82, 64
3, 197280, Note_on_c, 2, 79, 64
3, 197472, Note_off_c, 2, 79, 0
3, 197472, Note_off_c, 2, 82, 0
3, 197520, Note_on_c, 2, 77, 60
3, 197520, Note_on_c, 2, 80, 60
3, 197640, Note_off_c, 2, 80, 0
3, 197640, Note_off_c, 2, 77, 0
3, 197640, Note_on_c, 2, 79, 58
3, 197640, Note_on_c, 2, 75, 58
3, 197760, Note_off_c, 2, 75, 0
3, 197760, Note_off_c, 2, 79, 0
3, 197760, Note_on_c, 2, 79, 56
3, 197760, Note_on_c, 2, 75, 56
3, 198000, Note_off_c, 2, 75, 0
3, 198000, Note_off_c, 2, 79, 0
3, 198000, Note_on_c, 2, 77, 52
3, 198000, Note_on_c, 2, 74, 52
3, 198192, Note_off_c, 2, 74, 0
3, 198192, Note_off_c, 2, 77, 0
3, 198240, Note_on_c, 2, 77, 48
3, 198240, Note_on_c, 2, 75, 48
3, 198432, Note_off_c, 2, 75, 0
3, 198432, Note_off_c, 2, 77, 0
3, 198480, Control_c, 2, 64, 127
3, 198480, Note_on_c, 2, 77, 50
3, 198480, Note_on_c, 2, 70, 50
3, 198720, Note_off_c, 2, 70, 0
3, 198720, Note_off_c, 2, 77, 0
3, 200580, Control_c, 2, 64, 0
3, 200640, Control_c, 2, 64, 127
3, 200640, Note_on_c, 2, 75, 46
3, 200640, Note_on_c, 2, 70, 46
3, 200880, Note_off_c, 2, 70, 0
3, 200880, Note_off_c, 2, 75, 0
3, 202560, Control_c, 2, 64, 0
3, 203520, Note_on_c, 2, 84, 40
3, 203560, Note_off_c, 2, 84, 0
3, 203560, Note_on_c, 2, 82, 40
3, 203600, Note_off_c, 2, 82, 0
3, 203600, Note_on_c, 2, 84, 40
3, 203640, Note_off_c, 2, 84, 0
3, 203640, Note_on_c, 2, 82, 40
3, 203680, Note_off_c, 2, 82, 0
3, 203680, Note_on_c, 2, 84, 40
3, 203720, Note_off_c, 2, 84, 0
3, 203720, Note_on_c, 2, 82, 40
3, 203760, Note_off_c, 2, 82, 0
3, 203760, Note_on_c, 2, 84, 40
3, 203800, Note_off_c, 2, 84, 0
3, 203800, Note_on_c, 2, 82, 40
3, 203840, Note_off_c, 2, 82, 0
3, 203840, Note_on_c, 2, 84, 40
3, 203880, Note_off_c, 2, 84, 0
3, 203880, Note_on_c, 2, 82, 40
3, 203920, Note_off_c, 2, 82, 0
3, 203920, Note_on_c, 2, 84, 40
3, 203960, Note_off_c, 2, 84, 0
3, 203960, Note_on_c, 2, 82, 40
3, 204000, Note_off_c, 2, 82, 0
3, 204000, Note_on_c, 2, 84, 41
3, 204040, Note_off_c, 2, 84, 0
3, 204040, Note_on_c, 2, 82, 41
3, 204080, Note_off_c, 2, 82, 0
3, 204080, Note_on_c, 2, 84, 41
3, 204120, Note_off_c, 2, 84, 0
3, 204120, Note_on_c, 2, 82, 41
3, 204160, Note_off_c, 2, 82, 0
3, 204160, Note_on_c, 2, 84, 41
3, 204200, Note_off_c, 2, 84, 0
3, 204200, Note_on_c, 2, 82, 41
3, 204240, Note_off_c, 2, 82, 0
3, 204240, Note_on_c, 2, 84, 41
3, 204280, Note_off_c, 2, 84, 0
3, 204280, Note_on_c, 2, 82, 41
3, 204320, Note_off_c, 2, 82, 0
3, 204320, Note_on_c, 2, 84, 41
3, 204360, Note_off_c, 2, 84, 0
3, 204360, Note_on_c, 2, 82, 41
3, 204400, Note_off_c, 2, 82, 0
3, 204400, Note_on_c, 2, 84, 41
3, 204440, Note_off_c, 2, 84, 0
3, 204440, Note_on_c, 2, 82, 41
3, 204480, Note_off_c, 2, 82, 0
3, 204480, Note_on_c, 2, 84, 41
3, 204520, Note_off_c, 2, 84, 0
3, 204520, Note_on_c, 2, 82, 42
3, 204560, Note_off_c, 2, 82, 0
3, 204560, Note_on_c, 2, 84, 42
3, 204600, Note_off_c, 2, 84, 0
3, 204600, Note_on_c, 2, 82, 42
3, 204640, Note_off_c, 2, 82, 0
3, 204640, Note_on_c, 2, 84, 42
3, 204680, Note_off_c, 2, 84, 0
3, 204680, Note_on_c, 2, 82, 42
3, 204720, Note_off_c, 2, 82, 0
3, 204720, Note_on_c, 2, 84, 42
3, 204760, Note_off_c, 2, 84, 0
3, 204760, Note_on_c, 2, 82, 42
3, 204800, Note_off_c, 2, 82, 0
3, 204800, Note_on_c, 2, 84, 42
3, 204840, Note_off_c, 2, 84, 0
3, 204840, Note_on_c, 2, 82, 42
3, 204880, Note_off_c, 2, 82, 0
3, 204880, Note_on_c, 2, 84, 42
3, 204920, Note_off_c, 2, 84, 0
3, 204920, Note_on_c, 2, 82, 42
3, 204960, Note_off_c, 2, 82, 0
3, 204960, Note_on_c, 2, 84, 42
3, 205000, Note_off_c, 2, 84, 0
3, 205000, Note_on_c, 2, 82, 42
3, 205040, Note_off_c, 2, 82, 0
3, 205040, Note_on_c, 2, 84, 42
3, 205080, Note_off_c, 2, 84, 0
3, 205080, Note_on_c, 2, 82, 43
3, 205120, Note_off_c, 2, 82, 0
3, 205120, Note_on_c, 2, 84, 43
3, 205160, Note_off_c, 2, 84, 0
3, 205160, Note_on_c, 2, 82, 43
3, 205200, Note_off_c, 2, 82, 0
3, 205200, Note_on_c, 2, 84, 43
3, 205240, Note_off_c, 2, 84, 0
3, 205240, Note_on_c, 2, 82, 43
3, 205280, Note_off_c, 2, 82, 0
3, 205280, Note_on_c, 2, 84, 43
3, 205320, Note_off_c, 2, 84, 0
3, 205320, Note_on_c, 2, 82, 43
3, 205360, Note_off_c, 2, 82, 0
3, 205360, Note_on_c, 2, 84, 43
3, 205400, Note_off_c, 2, 84, 0
3, 205400, Note_on_c, 2, 82, 43
3, 205440, Note_off_c, 2, 82, 0
3, 205440, Note_on_c, 2, 84, 43
3, 205480, Note_off_c, 2, 84, 0
3, 205480, Note_on_c, 2, 82, 43
3, 205520, Note_off_c, 2, 82, 0
3, 205520, Note_on_c, 2, 84, 43
3, 205560, Note_off_c, 2, 84, 0
3, 205560, Note_on_c, 2, 82, 43
3, 205600, Note_off_c, 2, 82, 0
3, 205600, Note_on_c, 2, 84, 44
3, 205640, Note_off_c, 2, 84, 0
3, 205640, Note_on_c, 2, 82, 44
3, 205680, Note_off_c, 2, 82, 0
3, 205680, Note_on_c, 2, 84, 44
3, 205720, Note_off_c, 2, 84, 0
3, 205720, Note_on_c, 2, 82, 44
3, 205760, Note_off_c, 2, 82, 0
3, 205760, Note_on_c, 2, 84, 44
3, 205800, Note_off_c, 2, 84, 0
3, 205800, Note_on_c, 2, 82, 44
3, 205840, Note_off_c, 2, 82, 0
3, 205840, Note_on_c, 2, 84, 44
3, 205880, Note_off_c, 2, 84, 0
3, 205880, Note_on_c, 2, 82, 44
3, 205920, Note_off_c, 2, 82, 0
3, 205920, Note_on_c, 2, 84, 44
3, 205960, Note_off_c, 2, 84, 0
3, 205960, Note_on_c, 2, 82, 44
3, 206000, Note_off_c, 2, 82, 0
3, 206000, Note_on_c, 2, 84, 44
3, 206040, Note_off_c, 2, 84, 0
3, 206040, Note_on_c, 2, 82, 44
3, 206080, Note_off_c, 2, 82, 0
3, 206080, Note_on_c, 2, 84, 44
3, 206120, Note_off_c, 2, 84, 0
3, 206120, Note_on_c, 2, 82, 45
3, 206160, Note_off_c, 2, 82, 0
3, 206160, Note_on_c, 2, 84, 45
3, 206200, Note_off_c, 2, 84, 0
3, 206200, Note_on_c, 2, 82, 45
3, 206240, Note_off_c, 2, 82, 0
3, 206240, Note_on_c, 2, 84, 45
3, 206280, Note_off_c, 2, 84, 0
3, 206280, Note_on_c, 2, 82, 45
3, 206320, Note_off_c, 2, 82, 0
3, 206320, Note_on_c, 2, 84, 45
3, 206360, Note_off_c, 2, 84, 0
3, 206360, Note_on_c, 2, 82, 45
3, 206400, Note_off_c, 2, 82, 0
3, 206400, Note_on_c, 2, 82, 45
3, 206440, Note_off_c, 2, 82, 0
3, 206440, Note_on_c, 2, 84, 45
3, 206480, Note_off_c, 2, 84, 0
3, 206480, Note_on_c, 2, 82, 45
3, 206520, Note_off_c, 2, 82, 0
3, 206520, Note_on_c, 2, 81, 45
3, 206580, Note_off_c, 2, 81, 0
3, 206580, Note_on_c, 2, 82, 45
3, 206640, Note_off_c, 2, 82, 0
3, 207120, Note_on_c, 2, 72, 46
3, 207160, Note_off_c, 2, 72, 0
3, 207160, Note_on_c, 2, 74, 46
3, 207200, Note_off_c, 2, 74, 0
3, 207200, Note_on_c, 2, 72, 47
3, 207240, Note_off_c, 2, 72, 0
3, 207240, Note_on_c, 2, 71, 47
3, 207280, Note_off_c, 2, 71, 0
3, 207300, Note_on_c, 2, 72, 47
3, 207360, Note_off_c, 2, 72, 0
3, 208440, Note_on_c, 2, 77, 51
3, 208560, Note_off_c, 2, 77, 0
3, 208560, Note_on_c, 2, 75, 52
3, 208800, Note_off_c, 2, 75, 0
3, 208800, Note_on_c, 2, 74, 44
3, 208992, Note_off_c, 2, 74, 0
3, 216600, Note_on_c, 2, 50, 60
3, 216840, Note_off_c, 2, 50, 0
3, 216840, Note_on_c, 2, 51, 57
3, 216936, Note_off_c, 2, 51, 0
3, 216960, Note_on_c, 2, 53, 56
3, 217056, Note_off_c, 2, 53, 0
3, 217080, Note_on_c, 2, 56, 54
3, 217176, Note_off_c, 2, 56, 0
3, 217200, Note_on_c, 2, 56, 53
3, 217440, Note_off_c, 2, 56, 0
3, 217440, Note_on_c, 2, 55, 50
3, 217632, Note_off_c, 2, 55, 0
3, 217680, Note_on_c, 2, 56, 47
3, 217920, Note_off_c, 2, 56, 0
3, 217920, Note_on_c, 2, 55, 44
3, 218040, Note_off_c, 2, 55, 0
3, 219360, Note_on_c, 2, 70, 36
3, 220080, Note_off_c, 2, 70, 0
3, 220080, Note_on_c, 2, 68, 32
3, 220800, Note_off_c, 2, 68, 0
3, 220800, Note_on_c, 2, 67, 28
3, 221280, Note_off_c, 2, 67, 0
3, 223680, Control_c, 2, 64, 0
3, 225120, Note_on_c, 2, 54, 77
3, 225840, Note_off_c, 2, 54, 0
3, 226080, Note_on_c, 2, 54, 77
3, 226800, Note_off_c, 2, 54, 0
3, 227040, Note_on_c, 2, 54, 78
3, 227280, Note_off_c, 2, 54, 0
3, 228000, Note_on_c, 2, 59, 79
3, 228720, Note_off_c, 2, 59, 0
3, 228960, Note_on_c, 2, 59, 80
3, 229440, Note_off_c, 2, 59, 0
3, 229440, Note_on_c, 2, 61, 80
3, 229680, Note_off_c, 2, 61, 0
3, 229680, Note_on_c, 2, 62, 80
3, 229920, Note_off_c, 2, 62, 0
3, 229920, Note_on_c, 2, 64, 80
3, 230400, Note_off_c, 2, 64, 0
3, 230400, Note_on_c, 2, 62, 81
3, 230640, Note_off_c, 2, 62, 0
3, 230640, Note_on_c, 2, 61, 81
3, 230880, Note_off_c, 2, 61, 0
3, 230880, Note_on_c, 2, 62, 81
3, 231120, Note_off_c, 2, 62, 0
3, 237120, Note_on_c, 2, 71, 59
3, 237360, Note_off_c, 2, 71, 0
3, 237600, Note_on_c, 2, 72, 53
3, 237840, Note_off_c, 2, 72, 0
3, 238080, Note_on_c, 2, 69, 47
3, 238320, Note_off_c, 2, 69, 0
3, 238560, Note_on_c, 2, 67, 41
3, 238800, Note_off_c, 2, 67, 0
3, 239040, Control_c, 2, 64, 0
3, 240480, Note_on_c, 2, 54, 77
3, 241200, Note_off_c, 2, 54, 0
3, 241440, Note_on_c, 2, 54, 77
3, 242160, Note_off_c, 2, 54, 0
3, 242400, Note_on_c, 2, 54, 78
3, 242640, Note_off_c, 2, 54, 0
3, 243360, Note_on_c, 2, 59, 79
3, 244080, Note_off_c, 2, 59, 0
3, 244320, Note_on_c, 2, 59, 80
3, 244800, Note_off_c, 2, 59, 0
3, 244800, Note_on_c, 2, 61, 80
3, 245040, Note_off_c, 2, 61, 0
3, 245040, Note_on_c, 2, 62, 80
3, 245280, Note_off_c, 2, 62, 0
3, 245280, Note_on_c, 2, 64, 80
3, 245760, Note_off_c, 2, 64, 0
3, 245760, Note_on_c, 2, 62, 81
3, 246000, Note_off_c, 2, 62, 0
3, 246000, Note_on_c, 2, 61, 81
3, 246240, Note_off_c, 2, 61, 0
3, 246240, Note_on_c, 2, 62, 81
3, 246480, Note_off_c, 2, 62, 0
3, 252480, Note_on_c, 2, 71, 59
3, 252720, Note_off_c, 2, 71, 0
3, 252960, Note_on_c, 2, 72, 53
3, 253200, Note_off_c, 2, 72, 0
3, 253440, Note_on_c, 2, 69, 47
3, 253680, Note_off_c, 2, 69, 0
3, 253920, Note_on_c, 2, 67, 41
3, 254160, Note_off_c, 2, 67, 0
3, 254400, Control_c, 2, 64, 0
3, 255360, Note_on_c, 2, 64, 79
3, 255600, Note_off_c, 2, 64, 0
3, 255840, Note_on_c, 2, 67, 79
3, 256080, Note_off_c, 2, 67, 0
3, 256320, Note_on_c, 2, 64, 80
3, 256560, Note_off_c, 2, 64, 0
3, 256800, Note_on_c, 2, 69, 81
3, 257280, Note_off_c, 2, 69, 0
3, 257280, Note_on_c, 2, 67, 81
3, 257520, Note_off_c, 2, 67, 0
3, 257520, Note_on_c, 2, 66, 81
3, 257760, Note_off_c, 2, 66, 0
3, 257760, Note_on_c, 2, 67, 82
3, 258000, Note_off_c, 2, 67, 0
3, 259680, Note_on_c, 2, 71, 84
3, 260400, Note_off_c, 2, 71, 0
3, 260640, Note_on_c, 2, 71, 86
3, 262080, Note_off_c, 2, 71, 0
3, 269280, Note_on_c, 2, 76, 79
3, 269520, Note_off_c, 2, 76, 0
3, 276960, Note_on_c, 2, 83, 104
3, 277200, Note_off_c, 2, 83, 0
3, 292800, Note_on_c, 2, 62, 42
3, 293040, Note_off_c, 2, 62, 0
3, 293280, Note_on_c, 2, 64, 43
3, 293760, Note_off_c, 2, 64, 0
3, 293760, Note_on_c, 2, 62, 43
3, 294000, Note_off_c, 2, 62, 0
3, 294000, Note_on_c, 2, 61, 43
3, 294240, Note_off_c, 2, 61, 0
3, 294240, Note_on_c, 2, 62, 43
3, 294480, Note_off_c, 2, 62, 0
3, 296640, Note_on_c, 2, 67, 45
3, 296880, Note_off_c, 2, 67, 0
3, 297120, Note_on_c, 2, 69, 45
3, 297600, Note_off_c, 2, 69, 0
3, 297600, Note_on_c, 2, 67, 45
3, 297840, Note_off_c, 2, 67, 0
3, 297840, Note_on_c, 2, 66, 45
3, 298080, Note_off_c, 2, 66, 0
3, 298080, Note_on_c, 2, 67, 46
3, 298320, Note_off_c, 2, 67, 0
3, 315360, Note_on_c, 2, 54, 78
3, 316320, Note_off_c, 2, 54, 0
3, 316320, Note_on_c, 2, 54, 79
3, 317280, Note_off_c, 2, 54, 0
3, 317280, Note_on_c, 2, 54, 80
3, 317520, Note_off_c, 2, 54, 0
3, 317760, Note_on_c, 2, 59, 80
3, 318000, Note_off_c, 2, 59, 0
3, 318240, Note_on_c, 2, 59, 80
3, 319200, Note_off_c, 2, 59, 0
3, 319200, Note_on_c, 2, 59, 81
3, 319440, Note_off_c, 2, 59, 0
3, 319680, Note_on_c, 2, 62, 81
3, 319920, Note_off_c, 2, 62, 0
3, 320160, Note_on_c, 2, 64, 81
3, 320640, Note_off_c, 2, 64, 0
3, 320640, Note_on_c, 2, 62, 81
3, 320880, Note_off_c, 2, 62, 0
3, 320880, Note_on_c, 2, 61, 82
3, 321120, Note_off_c, 2, 61, 0
3, 321120, Note_on_c, 2, 62, 82
3, 321360, Note_off_c, 2, 62, 0
3, 336000, Note_on_c, 2, 70, 52
3, 336240, Note_off_c, 2, 70, 0
3, 336480, Note_on_c, 2, 71, 45
3, 336720, Note_off_c, 2, 71, 0
3, 373920, Note_on_c, 2, 64, 34
3, 373920, Note_on_c, 2, 67, 34
3, 375840, Note_off_c, 2, 67, 0
3, 375840, Note_off_c, 2, 64, 0
3, 407040, Note_on_c, 2, 83, 47
3, 407520, Note_off_c, 2, 83, 0
3, 407520, Note_on_c, 2, 87, 48
3, 408000, Note_off_c, 2, 87, 0
3, 408000, Note_on_c, 2, 88, 49
3, 408480, Note_off_c, 2, 88, 0
3, 408480, Note_on_c, 2, 87, 50
3, 410400, Note_off_c, 2, 87, 0
3, 410880, Note_on_c, 2, 83, 54
3, 411360, Note_off_c, 2, 83, 0
3, 411360, Note_on_c, 2, 87, 55
3, 411840, Note_off_c, 2, 87, 0
3, 411840, Note_on_c, 2, 88, 56
3, 412320, Note_off_c, 2, 88, 0
3, 412320, Note_on_c, 2, 87, 53
3, 414240, Note_off_c, 2, 87, 0
3, 439680, Note_on_c, 2, 63, 23
3, 440160, Note_off_c, 2, 63, 0
3, 440640, Control_c, 2, 64, 0
3, 442080, Note_on_c, 2, 54, 77
3, 442800, Note_off_c, 2, 54, 0
3, 443040, Note_on_c, 2, 54, 77
3, 443760, Note_off_c, 2, 54, 0
3, 444000, Note_on_c, 2, 54, 78
3, 444240, Note_off_c, 2, 54, 0
3, 444960, Note_on_c, 2, 59, 79
3, 445680, Note_off_c, 2, 59, 0
3, 445920, Note_on_c, 2, 59, 80
3, 446400, Note_off_c, 2, 59, 0
3, 446400, Note_on_c, 2, 61, 80
3, 446640, Note_off_c, 2, 61, 0
3, 446640, Note_on_c, 2, 62, 80
3, 446880, Note_off_c, 2, 62, 0
3, 446880, Note_on_c, 2, 64, 80
3, 447360, Note_off_c, 2, 64, 0
3, 447360, Note_on_c, 2, 62, 81
3, 447600, Note_off_c, 2, 62, 0
3, 447600, Note_on_c, 2, 61, 81
3, 447840, Note_off_c, 2, 61, 0
3, 447840, Note_on_c, 2, 62, 81
3, 448080, Note_off_c, 2, 62, 0
3, 454080, Note_on_c, 2, 71, 59
3, 454320, Note_off_c, 2, 71, 0
3, 454560, Note_on_c, 2, 72, 53
3, 454800, Note_off_c, 2, 72, 0
3, 455040, Note_on_c, 2, 69, 47
3, 455280, Note_off_c, 2, 69, 0
3, 455520, Note_on_c, 2, 67, 41
3, 455760, Note_off_c, 2, 67, 0
3, 456000, Control_c, 2, 64, 0
3, 457440, Note_on_c, 2, 54, 77
3, 458160, Note_off_c, 2, 54, 0
3, 458400, Note_on_c, 2, 54, 77
3, 459120, Note_off_c, 2, 54, 0
3, 459360, Note_on_c, 2, 54, 78
3, 459600, Note_off_c, 2, 54, 0
3, 460320, Note_on_c, 2, 59, 79
3, 461040, Note_off_c, 2, 59, 0
3, 461280, Note_on_c, 2, 59, 80
3, 461760, Note_off_c, 2, 59, 0
3, 461760, Note_on_c, 2, 61, 80
3, 462000, Note_off_c, 2, 61, 0
3, 462000, Note_on_c, 2, 62, 80
3, 462240, Note_off_c, 2, 62, 0
3, 462240, Note_on_c, 2, 64, 80
3, 462720, Note_off_c, 2, 64, 0
3, 462720, Note_on_c, 2, 62, 81
3, 462960, Note_off_c, 2, 62, 0
3, 462960, Note_on_c, 2, 61, 81
3, 463200, Note_off_c, 2, 61, 0
3, 463200, Note_on_c, 2, 62, 81
3, 463440, Note_off_c, 2, 62, 0
3, 469440, Note_on_c, 2, 71, 59
3, 469680, Note_off_c, 2, 71, 0
3, 469920, Note_on_c, 2, 72, 53
3, 470160, Note_off_c, 2, 72, 0
3, 470400, Note_on_c, 2, 69, 47
3, 470640, Note_off_c, 2, 69, 0
3, 470880, Note_on_c, 2, 67, 41
3, 471120, Note_off_c, 2, 67, 0
3, 471360, Control_c, 2, 64, 0
3, 472320, Note_on_c, 2, 64, 79
3, 472560, Note_off_c, 2, 64, 0
3, 472800, Note_on_c, 2, 67, 79
3, 473040, Note_off_c, 2, 67, 0
3, 473280, Note_on_c, 2, 64, 80
3, 473520, Note_off_c, 2, 64, 0
3, 473760, Note_on_c, 2, 69, 81
3, 474240, Note_off_c, 2, 69, 0
3, 474240, Note_on_c, 2, 67, 81
3, 474480, Note_off_c, 2, 67, 0
3, 474480, Note_on_c, 2, 66, 81
3, 474720, Note_off_c, 2, 66, 0
3, 474720, Note_on_c, 2, 67, 82
3, 474960, Note_off_c, 2, 67, 0
3, 476640, Note_on_c, 2, 71, 84
3, 477360, Note_off_c, 2, 71, 0
3, 477600, Note_on_c, 2, 71, 86
3, 479040, Note_off_c, 2, 71, 0
3, 486240, Note_on_c, 2, 76, 79
3, 486480, Note_off_c, 2, 76, 0
3, 493920, Note_on_c, 2, 83, 104
3, 494160, Note_off_c, 2, 83, 0
3, 509760, Note_on_c, 2, 62, 42
3, 510000, Note_off_c, 2, 62, 0
3, 510240, Note_on_c, 2, 64, 43
3, 510720, Note_off_c, 2, 64, 0
3, 510720, Note_on_c, 2, 62, 43
3, 510960, Note_off_c, 2, 62, 0
3, 510960, Note_on_c, 2, 61, 43
3, 511200, Note_off_c, 2, 61, 0
3, 511200, Note_on_c, 2, 62, 43
3, 511440, Note_off_c, 2, 62, 0
3, 513600, Note_on_c, 2, 67, 45
3, 513840, Note_off_c, 2, 67, 0
3, 514080, Note_on_c, 2, 69, 45
3, 514560, Note_off_c, 2, 69, 0
3, 514560, Note_on_c, 2, 67, 45
3, 514800, Note_off_c, 2, 67, 0
3, 514800, Note_on_c, 2, 66, 45
3, 515040, Note_off_c, 2, 66, 0
3, 515040, Note_on_c, 2, 67, 46
3, 515280, Note_off_c, 2, 67, 0
3, 532320, Note_on_c, 2, 54, 78
3, 533280, Note_off_c, 2, 54, 0
3, 533280, Note_on_c, 2, 54, 79
3, 534240, Note_off_c, 2, 54, 0
3, 534240, Note_on_c, 2, 54, 80
3, 534480, Note_off_c, 2, 54, 0
3, 534720, Note_on_c, 2, 59, 80
3, 534960, Note_off_c, 2, 59, 0
3, 535200, Note_on_c, 2, 59, 80
3, 536160, Note_off_c, 2, 59, 0
3, 536160, Note_on_c, 2, 59, 81
3, 536400, Note_off_c, 2, 59, 0
3, 536640, Note_on_c, 2, 62, 81
3, 536880, Note_off_c, 2, 62, 0
3, 537120, Note_on_c, 2, 64, 81
3, 537600, Note_off_c, 2, 64, 0
3, 537600, Note_on_c, 2, 62, 81
3, 537840, Note_off_c, 2, 62, 0
3, 537840, Note_on_c, 2, 61, 82
3, 538080, Note_off_c, 2, 61, 0
3, 538080, Note_on_c, 2, 62, 82
3, 538320, Note_off_c, 2, 62, 0
3, 538560, Control_c, 2, 64, 0
3, 538560, Control_c, 2, 64, 0
3, 547200, Control_c, 2, 64, 0
3, 552960, Note_on_c, 2, 70, 52
3, 553200, Note_off_c, 2, 70, 0
3, 553440, Note_on_c, 2, 71, 45
3, 553680, Note_off_c, 2, 71, 0
3, 553920, Control_c, 2, 64, 0
3, 553920, Control_c, 2, 64, 0
3, 563520, Control_c, 2, 64, 0
3, 600480, Note_on_c, 2, 67, 34
3, 600480, Note_on_c, 2, 64, 34
3, 602400, Note_off_c, 2, 64, 0
3, 602400, Note_off_c, 2, 67, 0
3, 633600, Note_on_c, 2, 83, 47
3, 634080, Note_off_c, 2, 83, 0
3, 634080, Note_on_c, 2, 87, 48
3, 634560, Note_off_c, 2, 87, 0
3, 634560, Note_on_c, 2, 88, 49
3, 635040, Note_off_c, 2, 88, 0
3, 635040, Note_on_c, 2, 87, 50
3, 636960, Note_off_c, 2, 87, 0
3, 637440, Note_on_c, 2, 83, 54
3, 637920, Note_off_c, 2, 83, 0
3, 637920, Note_on_c, 2, 87, 55
3, 638400, Note_off_c, 2, 87, 0
3, 638400, Note_on_c, 2, 88, 56
3, 638880, Note_off_c, 2, 88, 0
3, 638880, Note_on_c, 2, 87, 53
3, 640800, Note_off_c, 2, 87, 0
3, 666240, Note_on_c, 2, 63, 23
3, 666720, Note_off_c, 2, 63, 0
3, 667200, Control_c, 2, 64, 0
3, 673440, Control_c, 2, 64, 0
3, 684960, Control_c, 2, 64, 0
3, 695040, Note_on_c, 2, 67, 43
3, 695280, Note_off_c, 2, 67, 0
3, 695280, Note_on_c, 2, 66, 42
3, 695472, Note_off_c, 2, 66, 0
3, 695520, Note_on_c, 2, 66, 41
3, 695712, Note_off_c, 2, 66, 0
3, 696480, Control_c, 2, 64, 0
3, 708000, Control_c, 2, 64, 0
3, 718080, Note_on_c, 2, 67, 43
3, 718320, Note_off_c, 2, 67, 0
3, 718320, Note_on_c, 2, 66, 42
3, 718512, Note_off_c, 2, 66, 0
3, 718560, Note_on_c, 2, 66, 41
3, 718752, Note_off_c, 2, 66, 0
3, 719520, Control_c, 2, 64, 0
3, 719520, Note_on_c, 2, 76, 49
3, 720240, Note_off_c, 2, 76, 0
3, 720240, Note_on_c, 2, 74, 48
3, 720960, Note_off_c, 2, 74, 0
3, 720960, Note_on_c, 2, 72, 46
3, 722160, Note_off_c, 2, 72, 0
3, 722160, Note_on_c, 2, 71, 44
3, 722400, Note_off_c, 2, 71, 0
3, 722400, Note_on_c, 2, 72, 44
3, 722880, Note_off_c, 2, 72, 0
3, 722880, Note_on_c, 2, 74, 46
3, 723120, Note_off_c, 2, 74, 0
3, 723120, Note_on_c, 2, 76, 47
3, 723600, Note_off_c, 2, 76, 0
3, 723600, Note_on_c, 2, 77, 49
3, 723840, Note_off_c, 2, 77, 0
3, 723840, Note_on_c, 2, 76, 51
3, 724560, Note_off_c, 2, 76, 0
3, 724560, Note_on_c, 2, 74, 46
3, 725280, Note_off_c, 2, 74, 0
3, 725280, Note_on_c, 2, 74, 45
3, 726000, Note_off_c, 2, 74, 0
3, 726000, Note_on_c, 2, 72, 45
3, 726720, Note_off_c, 2, 72, 0
3, 726720, Note_on_c, 2, 71, 44
3, 727897, Note_off_c, 2, 71, 0
3, 728160, Note_on_c, 2, 71, 42
3, 728640, Note_off_c, 2, 71, 0
3, 728640, Note_on_c, 2, 72, 44
3, 728880, Note_off_c, 2, 72, 0
3, 728880, Note_on_c, 2, 74, 45
3, 729360, Note_off_c, 2, 74, 0
3, 729360, Note_on_c, 2, 76, 46
3, 729600, Note_off_c, 2, 76, 0
3, 729600, Note_on_c, 2, 74, 49
3, 730320, Note_off_c, 2, 74, 0
3, 730320, Note_on_c, 2, 72, 45
3, 730800, Note_off_c, 2, 72, 0
3, 730800, Note_on_c, 2, 71, 42
3, 731040, Note_off_c, 2, 71, 0
3, 731040, Note_on_c, 2, 72, 42
3, 731760, Note_off_c, 2, 72, 0
3, 731760, Note_on_c, 2, 72, 45
3, 732480, Note_off_c, 2, 72, 0
3, 732480, Note_on_c, 2, 74, 49
3, 733200, Note_off_c, 2, 74, 0
3, 733200, Note_on_c, 2, 71, 52
3, 733920, Note_off_c, 2, 71, 0
3, 733920, Note_on_c, 2, 69, 55
3, 734400, Note_off_c, 2, 69, 0
3, 734400, Note_on_c, 2, 78, 58
3, 734640, Note_off_c, 2, 78, 0
3, 734640, Note_on_c, 2, 79, 59
3, 735120, Note_off_c, 2, 79, 0
3, 735120, Note_on_c, 2, 81, 61
3, 735360, Note_off_c, 2, 81, 0
3, 735360, Note_on_c, 2, 79, 62
3, 736080, Note_off_c, 2, 79, 0
3, 736080, Note_on_c, 2, 79, 66
3, 736560, Note_off_c, 2, 79, 0
3, 736560, Note_on_c, 2, 88, 68
3, 736560, Note_on_c, 2, 79, 68
3, 736800, Note_off_c, 2, 79, 0
3, 736800, Note_off_c, 2, 88, 0
3, 736800, Note_on_c, 2, 86, 72
3, 736800, Note_on_c, 2, 79, 72
3, 737520, Note_off_c, 2, 79, 0
3, 737520, Note_off_c, 2, 86, 0
3, 737520, Note_on_c, 2, 79, 64
3, 738000, Note_off_c, 2, 79, 0
3, 738240, Note_on_c, 2, 79, 61
3, 738960, Note_off_c, 2, 79, 0
3, 738960, Note_on_c, 2, 79, 58
3, 739680, Note_off_c, 2, 79, 0
3, 739680, Note_on_c, 2, 79, 55
3, 740400, Note_off_c, 2, 79, 0
3, 740400, Note_on_c, 2, 79, 47
3, 741120, Note_off_c, 2, 79, 0
3, 741120, Note_on_c, 2, 79, 42
3, 741360, Note_off_c, 2, 79, 0
3, 741360, Note_on_c, 2, 72, 40
3, 741600, Note_off_c, 2, 72, 0
3, 741600, Note_on_c, 2, 71, 39
3, 741840, Note_off_c, 2, 71, 0
3, 741840, Note_on_c, 2, 72, 37
3, 742080, Note_off_c, 2, 72, 0
3, 742080, Note_on_c, 2, 69, 39
3, 742320, Note_off_c, 2, 69, 0
3, 742320, Note_on_c, 2, 71, 38
3, 742512, Note_off_c, 2, 71, 0
3, 742560, Control_c, 2, 64, 0
3, 742560, Note_on_c, 2, 76, 49
3, 743280, Note_off_c, 2, 76, 0
3, 743280, Note_on_c, 2, 74, 48
3, 744000, Note_off_c, 2, 74, 0
3, 744000, Note_on_c, 2, 72, 46
3, 745200, Note_off_c, 2, 72, 0
3, 745200, Note_on_c, 2, 71, 44
3, 745440, Note_off_c, 2, 71, 0
3, 745440, Note_on_c, 2, 72, 44
3, 745920, Note_off_c, 2, 72, 0
3, 745920, Note_on_c, 2, 74, 46
3, 746160, Note_off_c, 2, 74, 0
3, 746160, Note_on_c, 2, 76, 47
3, 746640, Note_off_c, 2, 76, 0
3, 746640, Note_on_c, 2, 77, 49
3, 746880, Note_off_c, 2, 77, 0
3, 746880, Note_on_c, 2, 76, 51
3, 747600, Note_off_c, 2, 76, 0
3, 747600, Note_on_c, 2, 74, 46
3, 748320, Note_off_c, 2, 74, 0
3, 748320, Note_on_c, 2, 74, 45
3, 749040, Note_off_c, 2, 74, 0
3, 749040, Note_on_c, 2, 72, 45
3, 749760, Note_off_c, 2, 72, 0
3, 749760, Note_on_c, 2, 71, 44
3, 750937, Note_off_c, 2, 71, 0
3, 751200, Note_on_c, 2, 71, 42
3, 751680, Note_off_c, 2, 71, 0
3, 751680, Note_on_c, 2, 72, 44
3, 751920, Note_off_c, 2, 72, 0
3, 751920, Note_on_c, 2, 74, 45
3, 752400, Note_off_c, 2, 74, 0
3, 752400, Note_on_c, 2, 76, 46
3, 752640, Note_off_c, 2, 76, 0
3, 752640, Note_on_c, 2, 74, 49
3, 753360, Note_off_c, 2, 74, 0
3, 753360, Note_on_c, 2, 72, 45
3, 753840, Note_off_c, 2, 72, 0
3, 753840, Note_on_c, 2, 71, 42
3, 754080, Note_off_c, 2, 71, 0
3, 754080, Note_on_c, 2, 72, 42
3, 754800, Note_off_c, 2, 72, 0
3, 754800, Note_on_c, 2, 72, 45
3, 755520, Note_off_c, 2, 72, 0
3, 755520, Note_on_c, 2, 74, 49
3, 756240, Note_off_c, 2, 74, 0
3, 756240, Note_on_c, 2, 71, 52
3, 756960, Note_off_c, 2, 71, 0
3, 756960, Note_on_c, 2, 69, 55
3, 757440, Note_off_c, 2, 69, 0
3, 757440, Note_on_c, 2, 78, 58
3, 757680, Note_off_c, 2, 78, 0
3, 757680, Note_on_c, 2, 79, 59
3, 758160, Note_off_c, 2, 79, 0
3, 758160, Note_on_c, 2, 81, 61
3, 758400, Note_off_c, 2, 81, 0
3, 758400, Note_on_c, 2, 79, 62
3, 759120, Note_off_c, 2, 79, 0
3, 759120, Note_on_c, 2, 79, 66
3, 759600, Note_off_c, 2, 79, 0
3, 759600, Note_on_c, 2, 79, 68
3, 759600, Note_on_c, 2, 88, 68
3, 759840, Note_off_c, 2, 88, 0
3, 759840, Note_off_c, 2, 79, 0
3, 759840, Note_on_c, 2, 79, 72
3, 759840, Note_on_c, 2, 86, 72
3, 760560, Note_off_c, 2, 86, 0
3, 760560, Note_off_c, 2, 79, 0
3, 760560, Note_on_c, 2, 79, 64
3, 761040, Note_off_c, 2, 79, 0
3, 761280, Note_on_c, 2, 79, 61
3, 762000, Note_off_c, 2, 79, 0
3, 762000, Note_on_c, 2, 79, 58
3, 762720, Note_off_c, 2, 79, 0
3, 762720, Note_on_c, 2, 79, 55
3, 763440, Note_off_c, 2, 79, 0
3, 763440, Note_on_c, 2, 79, 47
3, 764160, Note_off_c, 2, 79, 0
3, 764160, Note_on_c, 2, 79, 42
3, 764400, Note_off_c, 2, 79, 0
3, 764400, Note_on_c, 2, 72, 40
3, 764640, Note_off_c, 2, 72, 0
3, 764640, Note_on_c, 2, 71, 39
3, 764880, Note_off_c, 2, 71, 0
3, 764880, Note_on_c, 2, 72, 37
3, 765120, Note_off_c, 2, 72, 0
3, 765120, Note_on_c, 2, 69, 39
3, 765360, Note_off_c, 2, 69, 0
3, 765360, Note_on_c, 2, 71, 38
3, 765552, Note_off_c, 2, 71, 0
3, 765600, Control_c, 2, 64, 0
3, 778560, Note_on_c, 2, 78, 41
3, 778800, Note_off_c, 2, 78, 0
3, 781440, Control_c, 2, 64, 0
3, 781440, Control_c, 2, 64, 0
3, 789600, Note_on_c, 2, 67, 73
3, 789600, Note_on_c, 2, 70, 73
3, 789840, Note_off_c, 2, 70, 0
3, 789840, Note_off_c, 2, 67, 0
3, 790080, Note_on_c, 2, 75, 70
3, 790080, Note_on_c, 2, 70, 70
3, 790320, Note_off_c, 2, 70, 0
3, 790320, Note_off_c, 2, 75, 0
3, 790560, Note_on_c, 2, 75, 68
3, 790800, Note_off_c, 2, 75, 0
3, 791040, Note_on_c, 2, 79, 65
3, 791040, Note_on_c, 2, 82, 65
3, 791280, Note_off_c, 2, 82, 0
3, 791280, Note_off_c, 2, 79, 0
3, 794880, Control_c, 2, 64, 0
3, 795360, Note_on_c, 2, 67, 42
3, 795600, Note_off_c, 2, 67, 0
3, 796080, Note_on_c, 2, 67, 45
3, 796320, Note_off_c, 2, 67, 0
3, 796320, Note_on_c, 2, 75, 46
3, 796500, Note_off_c, 2, 75, 0
3, 796500, Note_on_c, 2, 77, 47
3, 796560, Note_off_c, 2, 77, 0
3, 796560, Note_on_c, 2, 75, 47
3, 796800, Note_off_c, 2, 75, 0
3, 796800, Note_on_c, 2, 74, 47
3, 797040, Note_off_c, 2, 74, 0
3, 797520, Note_on_c, 2, 77, 45
3, 797760, Note_off_c, 2, 77, 0
3, 798240, Note_on_c, 2, 68, 44
3, 798480, Note_off_c, 2, 68, 0
3, 798480, Note_on_c, 2, 65, 43
3, 798660, Note_off_c, 2, 65, 0
3, 798660, Note_on_c, 2, 67, 43
3, 798720, Note_off_c, 2, 67, 0
3, 798720, Note_on_c, 2, 65, 43
3, 798960, Note_off_c, 2, 65, 0
3, 798960, Note_on_c, 2, 63, 42
3, 799200, Note_off_c, 2, 63, 0
3, 799680, Note_on_c, 2, 71, 44
3, 799680, Note_on_c, 2, 65, 44
3, 799920, Note_off_c, 2, 65, 0
3, 799920, Note_off_c, 2, 71, 0
3, 799920, Note_on_c, 2, 67, 45
3, 800160, Note_off_c, 2, 67, 0
3, 800160, Note_on_c, 2, 72, 46
3, 800400, Note_off_c, 2, 72, 0
3, 800400, Note_on_c, 2, 69, 48
3, 800400, Note_on_c, 2, 72, 48
3, 800640, Note_off_c, 2, 72, 0
3, 800640, Note_off_c, 2, 69, 0
3, 800640, Note_on_c, 2, 67, 49
3, 800640, Note_on_c, 2, 72, 49
3, 800880, Note_off_c, 2, 72, 0
3, 800880, Note_off_c, 2, 67, 0
3, 800880, Note_on_c, 2, 65, 46
3, 800880, Note_on_c, 2, 71, 46
3, 801120, Note_off_c, 2, 71, 0
3, 801120, Note_off_c, 2, 65, 0
3, 801120, Note_on_c, 2, 63, 45
3, 801360, Note_off_c, 2, 63, 0
3, 801360, Note_on_c, 2, 65, 44
3, 801360, Note_on_c, 2, 62, 44
3, 801600, Note_off_c, 2, 62, 0
3, 801600, Note_off_c, 2, 65, 0
3, 801600, Note_on_c, 2, 67, 47
3, 801840, Note_off_c, 2, 67, 0
3, 801840, Note_on_c, 2, 68, 48
3, 802080, Note_off_c, 2, 68, 0
3, 802080, Note_on_c, 2, 67, 50
3, 802560, Note_off_c, 2, 67, 0
3, 802560, Note_on_c, 2, 74, 53
3, 802800, Note_off_c, 2, 74, 0
3, 802800, Note_on_c, 2, 75, 54
3, 803040, Note_off_c, 2, 75, 0
3, 803040, Note_on_c, 2, 72, 52
3, 803280, Note_off_c, 2, 72, 0
3, 803280, Note_on_c, 2, 65, 49
3, 803280, Note_on_c, 2, 72, 49
3, 803520, Note_off_c, 2, 72, 0
3, 803520, Note_off_c, 2, 65, 0
3, 803520, Note_on_c, 2, 65, 47
3, 803760, Note_off_c, 2, 65, 0
3, 805680, Control_c, 2, 64, 0
3, 806160, Note_on_c, 2, 67, 42
3, 806400, Note_off_c, 2, 67, 0
3, 806880, Note_on_c, 2, 67, 45
3, 807120, Note_off_c, 2, 67, 0
3, 807120, Note_on_c, 2, 75, 46
3, 807300, Note_off_c, 2, 75, 0
3, 807300, Note_on_c, 2, 77, 47
3, 807360, Note_off_c, 2, 77, 0
3, 807360, Note_on_c, 2, 75, 47
3, 807600, Note_off_c, 2, 75, 0
3, 807600, Note_on_c, 2, 74, 47
3, 807840, Note_off_c, 2, 74, 0
3, 808320, Note_on_c, 2, 77, 45
3, 808560, Note_off_c, 2, 77, 0
3, 809040, Note_on_c, 2, 68, 44
3, 809280, Note_off_c, 2, 68, 0
3, 809280, Note_on_c, 2, 65, 43
3, 809460, Note_off_c, 2, 65, 0
3, 809460, Note_on_c, 2, 67, 43
3, 809520, Note_off_c, 2, 67, 0
3, 809520, Note_on_c, 2, 65, 43
3, 809760, Note_off_c, 2, 65, 0
3, 809760, Note_on_c, 2, 63, 42
3, 810000, Note_off_c, 2, 63, 0
3, 810480, Note_on_c, 2, 65, 44
3, 810480, Note_on_c, 2, 71, 44
3, 810720, Note_off_c, 2, 71, 0
3, 810720, Note_off_c, 2, 65, 0
3, 810720, Note_on_c, 2, 67, 45
3, 810960, Note_off_c, 2, 67, 0
3, 810960, Note_on_c, 2, 72, 46
3, 811200, Note_off_c, 2, 72, 0
3, 811200, Note_on_c, 2, 72, 48
3, 811200, Note_on_c, 2, 69, 48
3, 811440, Note_off_c, 2, 69, 0
3, 811440, Note_off_c, 2, 72, 0
3, 811440, Note_on_c, 2, 72, 49
3, 811440, Note_on_c, 2, 67, 49
3, 811680, Note_off_c, 2, 67, 0
3, 811680, Note_off_c, 2, 72, 0
3, 811680, Note_on_c, 2, 71, 46
3, 811680, Note_on_c, 2, 65, 46
3, 811920, Note_off_c, 2, 65, 0
3, 811920, Note_off_c, 2, 71, 0
3, 811920, Note_on_c, 2, 63, 45
3, 812160, Note_off_c, 2, 63, 0
3, 812160, Note_on_c, 2, 62, 44
3, 812160, Note_on_c, 2, 65, 44
3, 812160, Note_on_c, 2, 70, 44
3, 812400, Note_off_c, 2, 70, 0
3, 812400, Note_off_c, 2, 65, 0
3, 812400, Note_off_c, 2, 62, 0
3, 812400, Note_on_c, 2, 67, 47
3, 812640, Note_off_c, 2, 67, 0
3, 812640, Note_on_c, 2, 68, 48
3, 812880, Note_off_c, 2, 68, 0
3, 812880, Note_on_c, 2, 67, 50
3, 813360, Note_off_c, 2, 67, 0
3, 813360, Note_on_c, 2, 74, 53
3, 813600, Note_off_c, 2, 74, 0
3, 813600, Note_on_c, 2, 75, 54
3, 813840, Note_off_c, 2, 75, 0
3, 813840, Note_on_c, 2, 72, 52
3, 814080, Note_off_c, 2, 72, 0
3, 814080, Note_on_c, 2, 72, 49
3, 814080, Note_on_c, 2, 65, 49
3, 814320, Note_off_c, 2, 65, 0
3, 814320, Note_off_c, 2, 72, 0
3, 814320, Note_on_c, 2, 65, 47
3, 814560, Note_off_c, 2, 65, 0
3, 816480, Control_c, 2, 64, 0
3, 822720, Note_on_c, 2, 75, 49
3, 823040, Note_off_c, 2, 75, 0
3, 824880, Note_on_c, 2, 48, 33
3, 825120, Note_off_c, 2, 48, 0
3, 825600, Note_on_c, 2, 48, 34
3, 825840, Note_off_c, 2, 48, 0
3, 825840, Note_on_c, 2, 56, 35
3, 826020, Note_off_c, 2, 56, 0
3, 826020, Note_on_c, 2, 58, 35
3, 826080, Note_off_c, 2, 58, 0
3, 826080, Note_on_c, 2, 56, 35
3, 826320, Note_off_c, 2, 56, 0
3, 826320, Note_on_c, 2, 55, 34
3, 826560, Note_off_c, 2, 55, 0
3, 827040, Note_on_c, 2, 60, 32
3, 827160, Note_off_c, 2, 60, 0
3, 827160, Note_on_c, 2, 58, 32
3, 827280, Note_off_c, 2, 58, 0
3, 827760, Note_on_c, 2, 51, 30
3, 827880, Note_off_c, 2, 51, 0
3, 827880, Note_on_c, 2, 49, 30
3, 828000, Note_off_c, 2, 49, 0
3, 828000, Note_on_c, 2, 46, 30
3, 828180, Note_off_c, 2, 46, 0
3, 828180, Note_on_c, 2, 48, 33
3, 828240, Note_on_c, 2, 46, 31
3, 828245, Note_off_c, 2, 48, 0
3, 828480, Note_off_c, 2, 46, 0
3, 828480, Note_on_c, 2, 44, 30
3, 828720, Note_off_c, 2, 44, 0
3, 828840, Note_on_c, 2, 44, 33
3, 828960, Note_off_c, 2, 44, 0
3, 828960, Note_on_c, 2, 46, 33
3, 829080, Note_off_c, 2, 46, 0
3, 829080, Note_on_c, 2, 48, 34
3, 829200, Note_off_c, 2, 48, 0
3, 829200, Note_on_c, 2, 49, 35
3, 829320, Note_off_c, 2, 49, 0
3, 829320, Note_on_c, 2, 46, 36
3, 829440, Note_off_c, 2, 46, 0
3, 829440, Note_on_c, 2, 48, 36
3, 829560, Note_off_c, 2, 48, 0
3, 829560, Note_on_c, 2, 55, 37
3, 829680, Note_off_c, 2, 55, 0
3, 829680, Note_on_c, 2, 56, 38
3, 829800, Note_off_c, 2, 56, 0
3, 829800, Note_on_c, 2, 58, 38
3, 829920, Note_off_c, 2, 58, 0
3, 829920, Note_on_c, 2, 60, 39
3, 830040, Note_off_c, 2, 60, 0
3, 830040, Note_on_c, 2, 61, 40
3, 830160, Note_off_c, 2, 61, 0
3, 830160, Note_on_c, 2, 63, 40
3, 830280, Note_off_c, 2, 63, 0
3, 830280, Note_on_c, 2, 65, 41
3, 830400, Note_off_c, 2, 65, 0
3, 830400, Note_on_c, 2, 67, 42
3, 830520, Note_off_c, 2, 67, 0
3, 830520, Note_on_c, 2, 68, 43
3, 830640, Note_off_c, 2, 68, 0
3, 830640, Note_on_c, 2, 72, 42
3, 830760, Note_off_c, 2, 72, 0
3, 830760, Note_on_c, 2, 70, 38
3, 830880, Note_off_c, 2, 70, 0
3, 831000, Note_on_c, 2, 82, 40
3, 831120, Note_off_c, 2, 82, 0
3, 831120, Note_on_c, 2, 80, 40
3, 831216, Note_off_c, 2, 80, 0
3, 831240, Note_on_c, 2, 79, 41
3, 831360, Note_off_c, 2, 79, 0
3, 831360, Note_on_c, 2, 77, 41
3, 831456, Note_off_c, 2, 77, 0
3, 831480, Note_on_c, 2, 75, 41
3, 831600, Note_off_c, 2, 75, 0
3, 831600, Note_on_c, 2, 73, 42
3, 831696, Note_off_c, 2, 73, 0
3, 831720, Note_on_c, 2, 72, 42
3, 831840, Note_off_c, 2, 72, 0
3, 831840, Note_on_c, 2, 70, 42
3, 831936, Note_off_c, 2, 70, 0
3, 831960, Note_on_c, 2, 68, 43
3, 832080, Note_off_c, 2, 68, 0
3, 832080, Note_on_c, 2, 67, 43
3, 832200, Note_off_c, 2, 67, 0
3, 832200, Note_on_c, 2, 70, 43
3, 832296, Note_off_c, 2, 70, 0
3, 832320, Note_on_c, 2, 61, 44
3, 832416, Note_off_c, 2, 61, 0
3, 832440, Note_on_c, 2, 61, 44
3, 832560, Note_off_c, 2, 61, 0
3, 832560, Note_on_c, 2, 58, 44
3, 832656, Note_off_c, 2, 58, 0
3, 832680, Note_on_c, 2, 60, 45
3, 832800, Note_off_c, 2, 60, 0
3, 832880, Note_on_c, 2, 68, 46
3, 832960, Note_off_c, 2, 68, 0
3, 832960, Note_on_c, 2, 70, 47
3, 833024, Note_off_c, 2, 70, 0
3, 833040, Note_on_c, 2, 60, 47
3, 833280, Note_off_c, 2, 60, 0
3, 833280, Note_on_c, 2, 65, 49
3, 833520, Note_off_c, 2, 65, 0
3, 833520, Note_on_c, 2, 67, 51
3, 833760, Note_off_c, 2, 67, 0
3, 833760, Note_on_c, 2, 68, 52
3, 834000, Note_off_c, 2, 68, 0
3, 834000, Note_on_c, 2, 77, 54
3, 834240, Note_off_c, 2, 77, 0
3, 834240, Note_on_c, 2, 77, 56
3, 834240, Note_on_c, 2, 70, 56
3, 834480, Note_off_c, 2, 70, 0
3, 834480, Note_off_c, 2, 77, 0
3, 834480, Note_on_c, 2, 68, 59
3, 834720, Note_off_c, 2, 68, 0
3, 834720, Note_on_c, 2, 76, 57
3, 834720, Note_on_c, 2, 67, 57
3, 834960, Note_off_c, 2, 67, 0
3, 834960, Note_off_c, 2, 76, 0
3, 834960, Note_on_c, 2, 65, 54
3, 835040, Note_off_c, 2, 65, 0
3, 835040, Note_on_c, 2, 67, 53
3, 835120, Note_off_c, 2, 67, 0
3, 835120, Note_on_c, 2, 68, 53
3, 835200, Note_off_c, 2, 68, 0
3, 835200, Note_on_c, 2, 70, 54
3, 835440, Note_off_c, 2, 70, 0
3, 835440, Note_on_c, 2, 75, 57
3, 835680, Note_off_c, 2, 75, 0
3, 835680, Note_on_c, 2, 77, 60
3, 835920, Note_off_c, 2, 77, 0
3, 835920, Note_on_c, 2, 79, 63
3, 836400, Note_off_c, 2, 79, 0
3, 836400, Note_on_c, 2, 82, 71
3, 836520, Note_off_c, 2, 82, 0
3, 836520, Note_on_c, 2, 80, 69
3, 836640, Note_off_c, 2, 80, 0
3, 836640, Note_on_c, 2, 80, 67
3, 836880, Note_off_c, 2, 80, 0
3, 836880, Note_on_c, 2, 79, 62
3, 837120, Note_off_c, 2, 79, 0
3, 837120, Note_on_c, 2, 77, 57
3, 837240, Note_off_c, 2, 77, 0
3, 837240, Note_on_c, 2, 78, 55
3, 837360, Note_off_c, 2, 78, 0
3, 837360, Note_on_c, 2, 79, 52
3, 837680, Note_off_c, 2, 79, 0
3, 843040, Note_on_c, 2, 81, 42
3, 843120, Note_off_c, 2, 81, 0
3, 843120, Note_on_c, 2, 80, 44
3, 843240, Note_off_c, 2, 80, 0
3, 843240, Note_on_c, 2, 79, 46
3, 843360, Note_off_c, 2, 79, 0
3, 843360, Note_on_c, 2, 77, 48
3, 843480, Note_off_c, 2, 77, 0
3, 843480, Note_on_c, 2, 75, 50
3, 843600, Note_off_c, 2, 75, 0
3, 843600, Note_on_c, 2, 75, 51
3, 843720, Note_off_c, 2, 75, 0
3, 843840, Note_on_c, 2, 86, 58
3, 843920, Note_off_c, 2, 86, 0
3, 844000, Note_on_c, 2, 86, 54
3, 844080, Note_off_c, 2, 86, 0
3, 844080, Note_on_c, 2, 84, 53
3, 844160, Note_off_c, 2, 84, 0
3, 844240, Note_on_c, 2, 86, 52
3, 844320, Note_off_c, 2, 86, 0
3, 844320, Note_on_c, 2, 84, 51
3, 844400, Note_off_c, 2, 84, 0
3, 844480, Note_on_c, 2, 82, 49
3, 844560, Note_off_c, 2, 82, 0
3, 844560, Note_on_c, 2, 80, 49
3, 844640, Note_off_c, 2, 80, 0
3, 844720, Note_on_c, 2, 82, 47
3, 844800, Note_off_c, 2, 82, 0
3, 844800, Note_on_c, 2, 80, 46
3, 844880, Note_off_c, 2, 80, 0
3, 844960, Note_on_c, 2, 79, 45
3, 845040, Note_off_c, 2, 79, 0
3, 845040, Note_on_c, 2, 77, 44
3, 845120, Note_off_c, 2, 77, 0
3, 845200, Note_on_c, 2, 81, 43
3, 845280, Note_off_c, 2, 81, 0
3, 845280, Note_on_c, 2, 80, 42
3, 845400, Note_off_c, 2, 80, 0
3, 845400, Note_on_c, 2, 79, 44
3, 845520, Note_off_c, 2, 79, 0
3, 845520, Note_on_c, 2, 77, 46
3, 845640, Note_off_c, 2, 77, 0
3, 845640, Note_on_c, 2, 75, 47
3, 845760, Note_off_c, 2, 75, 0
3, 845760, Note_on_c, 2, 75, 49
3, 845840, Note_off_c, 2, 75, 0
3, 846480, Note_on_c, 2, 77, 42
3, 846720, Note_off_c, 2, 77, 0
3, 847200, Note_on_c, 2, 68, 41
3, 847440, Note_off_c, 2, 68, 0
3, 847440, Note_on_c, 2, 65, 39
3, 847620, Note_off_c, 2, 65, 0
3, 847620, Note_on_c, 2, 67, 43
3, 847680, Note_off_c, 2, 67, 0
3, 847680, Note_on_c, 2, 65, 44
3, 847920, Note_off_c, 2, 65, 0
3, 847920, Note_on_c, 2, 63, 40
3, 848160, Note_off_c, 2, 63, 0
3, 848760, Note_on_c, 2, 65, 39
3, 848880, Note_off_c, 2, 65, 0
3, 849120, Note_on_c, 2, 58, 42
3, 849480, Note_off_c, 2, 58, 0
3, 849480, Note_on_c, 2, 56, 39
3, 849600, Note_off_c, 2, 56, 0
3, 849600, Note_on_c, 2, 53, 38
3, 849720, Note_off_c, 2, 53, 0
3, 849720, Note_on_c, 2, 56, 41
3, 849780, Note_off_c, 2, 56, 0
3, 849780, Note_on_c, 2, 55, 40
3, 849840, Note_off_c, 2, 55, 0
3, 849840, Note_on_c, 2, 53, 39
3, 850080, Note_off_c, 2, 53, 0
3, 850080, Note_on_c, 2, 51, 37
3, 850980, Note_off_c, 2, 51, 0
3, 851760, Control_c, 2, 64, 0
3, 851760, Control_c, 2, 64, 0
3, 859200, Note_on_c, 2, 70, 73
3, 859200, Note_on_c, 2, 67, 73
3, 859440, Note_off_c, 2, 67, 0
3, 859440, Note_off_c, 2, 70, 0
3, 859680, Note_on_c, 2, 70, 70
3, 859680, Note_on_c, 2, 75, 70
3, 859920, Note_off_c, 2, 75, 0
3, 859920, Note_off_c, 2, 70, 0
3, 860160, Note_on_c, 2, 79, 68
3, 860160, Note_on_c, 2, 75, 68
3, 860400, Note_off_c, 2, 75, 0
3, 860400, Note_off_c, 2, 79, 0
3, 860640, Note_on_c, 2, 82, 65
3, 860640, Note_on_c, 2, 79, 65
3, 860880, Note_off_c, 2, 79, 0
3, 860880, Note_off_c, 2, 82, 0
3, 860880, End_track
4, 0, Start_track
4, 0, Title_t, "Unnamed Track"
4, 0, Control_c, 3, 0, 0
4, 0, Control_c, 3, 32, 0
4, 0, Program_c, 3, 0
4, 0, Control_c, 3, 7, 112
4, 0, Pitch_bend_c, 3, 8192
4, 0, Control_c, 3, 1, 0
4, 0, Control_c, 3, 64, 0
4, 0, Control_c, 3, 93, 28
4, 0, Control_c, 3, 91, 100
4, 0, Control_c, 3, 10, 64
4, 480, Control_c, 3, 64, 0
4, 960, Control_c, 3, 64, 0
4, 12480, Control_c, 3, 64, 0
4, 24000, Control_c, 3, 64, 0
4, 70560, Control_c, 3, 64, 0
4, 95520, Control_c, 3, 64, 0
4, 120480, Control_c, 3, 64, 0
4, 121440, Note_on_c, 3, 55, 45
4, 121632, Note_off_c, 3, 55, 0
4, 121680, Note_on_c, 3, 55, 46
4, 121872, Note_off_c, 3, 55, 0
4, 121920, Note_on_c, 3, 55, 46
4, 122112, Note_off_c, 3, 55, 0
4, 122160, Note_on_c, 3, 55, 47
4, 122352, Note_off_c, 3, 55, 0
4, 122400, Note_on_c, 3, 60, 47
4, 122592, Note_off_c, 3, 60, 0
4, 122640, Note_on_c, 3, 60, 48
4, 122832, Note_off_c, 3, 60, 0
4, 122880, Note_on_c, 3, 60, 48
4, 123072, Note_off_c, 3, 60, 0
4, 123120, Note_on_c, 3, 60, 49
4, 123312, Note_off_c, 3, 60, 0
4, 123360, Note_on_c, 3, 58, 51
4, 123600, Note_off_c, 3, 58, 0
4, 123600, Note_on_c, 3, 57, 54
4, 123840, Note_off_c, 3, 57, 0
4, 123840, Note_on_c, 3, 58, 57
4, 124080, Note_off_c, 3, 58, 0
4, 124080, Note_on_c, 3, 60, 59
4, 124320, Note_off_c, 3, 60, 0
4, 124320, Note_on_c, 3, 62, 58
4, 124560, Note_off_c, 3, 62, 0
4, 124560, Note_on_c, 3, 60, 56
4, 124800, Note_off_c, 3, 60, 0
4, 124800, Note_on_c, 3, 58, 53
4, 125040, Note_off_c, 3, 58, 0
4, 125040, Note_on_c, 3, 57, 50
4, 125232, Note_off_c, 3, 57, 0
4, 125280, Note_on_c, 3, 55, 49
4, 125472, Note_off_c, 3, 55, 0
4, 125520, Note_on_c, 3, 55, 49
4, 125712, Note_off_c, 3, 55, 0
4, 125760, Note_on_c, 3, 55, 48
4, 125952, Note_off_c, 3, 55, 0
4, 126000, Note_on_c, 3, 55, 48
4, 126192, Note_off_c, 3, 55, 0
4, 126240, Note_on_c, 3, 55, 48
4, 126432, Note_off_c, 3, 55, 0
4, 126480, Note_on_c, 3, 55, 49
4, 126672, Note_off_c, 3, 55, 0
4, 126720, Note_on_c, 3, 55, 50
4, 126912, Note_off_c, 3, 55, 0
4, 126960, Note_on_c, 3, 55, 51
4, 127152, Note_off_c, 3, 55, 0
4, 127200, Note_on_c, 3, 60, 51
4, 127392, Note_off_c, 3, 60, 0
4, 127440, Note_on_c, 3, 60, 49
4, 127632, Note_off_c, 3, 60, 0
4, 127680, Note_on_c, 3, 60, 46
4, 127872, Note_off_c, 3, 60, 0
4, 127920, Note_on_c, 3, 60, 43
4, 128112, Note_off_c, 3, 60, 0
4, 128160, Note_on_c, 3, 57, 44
4, 128352, Note_off_c, 3, 57, 0
4, 128400, Note_on_c, 3, 57, 45
4, 128592, Note_off_c, 3, 57, 0
4, 128640, Note_on_c, 3, 58, 46
4, 128832, Note_off_c, 3, 58, 0
4, 128880, Note_on_c, 3, 58, 47
4, 129072, Note_off_c, 3, 58, 0
4, 129120, Note_on_c, 3, 55, 48
4, 129312, Note_off_c, 3, 55, 0
4, 129360, Note_on_c, 3, 55, 48
4, 129552, Note_off_c, 3, 55, 0
4, 129600, Note_on_c, 3, 58, 49
4, 129792, Note_off_c, 3, 58, 0
4, 129840, Note_on_c, 3, 58, 50
4, 130032, Note_off_c, 3, 58, 0
4, 130080, Note_on_c, 3, 60, 51
4, 130272, Note_off_c, 3, 60, 0
4, 130320, Note_on_c, 3, 60, 52
4, 130512, Note_off_c, 3, 60, 0
4, 130560, Note_on_c, 3, 60, 53
4, 130752, Note_off_c, 3, 60, 0
4, 130800, Note_on_c, 3, 60, 54
4, 130992, Note_off_c, 3, 60, 0
4, 131040, Note_on_c, 3, 62, 56
4, 131232, Note_off_c, 3, 62, 0
4, 131280, Note_on_c, 3, 62, 59
4, 131472, Note_off_c, 3, 62, 0
4, 131520, Note_on_c, 3, 60, 62
4, 131712, Note_off_c, 3, 60, 0
4, 131760, Note_on_c, 3, 60, 64
4, 131952, Note_off_c, 3, 60, 0
4, 132000, Note_on_c, 3, 59, 67
4, 132192, Note_off_c, 3, 59, 0
4, 132240, Note_on_c, 3, 59, 69
4, 132432, Note_off_c, 3, 59, 0
4, 132480, Note_on_c, 3, 63, 72
4, 132672, Note_off_c, 3, 63, 0
4, 132720, Note_on_c, 3, 63, 75
4, 132912, Note_off_c, 3, 63, 0
4, 132960, Note_on_c, 3, 56, 76
4, 133152, Note_off_c, 3, 56, 0
4, 133200, Note_on_c, 3, 56, 72
4, 133392, Note_off_c, 3, 56, 0
4, 133440, Note_on_c, 3, 56, 69
4, 133632, Note_off_c, 3, 56, 0
4, 133680, Note_on_c, 3, 65, 66
4, 133872, Note_off_c, 3, 65, 0
4, 133920, Note_on_c, 3, 63, 62
4, 134112, Note_off_c, 3, 63, 0
4, 134160, Note_on_c, 3, 63, 59
4, 134352, Note_off_c, 3, 63, 0
4, 134400, Note_on_c, 3, 62, 55
4, 134880, Note_off_c, 3, 62, 0
4, 137400, Note_on_c, 3, 60, 98
4, 137520, Note_off_c, 3, 60, 0
4, 137520, Note_on_c, 3, 63, 99
4, 137640, Note_off_c, 3, 63, 0
4, 137640, Note_on_c, 3, 60, 99
4, 137760, Note_off_c, 3, 60, 0
4, 137760, Note_on_c, 3, 68, 100
4, 137916, Note_off_c, 3, 68, 0
4, 139320, Note_on_c, 3, 74, 108
4, 139440, Note_off_c, 3, 74, 0
4, 139440, Note_on_c, 3, 77, 109
4, 139560, Note_off_c, 3, 77, 0
4, 139560, Note_on_c, 3, 74, 110
4, 139680, Note_off_c, 3, 74, 0
4, 139680, Note_on_c, 3, 82, 110
4, 139836, Note_off_c, 3, 82, 0
4, 141240, Note_on_c, 3, 63, 119
4, 141360, Note_off_c, 3, 63, 0
4, 141360, Note_on_c, 3, 67, 119
4, 141480, Note_off_c, 3, 67, 0
4, 141480, Note_on_c, 3, 63, 120
4, 141600, Note_off_c, 3, 63, 0
4, 141600, Note_on_c, 3, 70, 121
4, 141756, Note_off_c, 3, 70, 0
4, 198480, Control_c, 3, 64, 127
4, 200580, Control_c, 3, 64, 0
4, 200640, Control_c, 3, 64, 127
4, 202560, Control_c, 3, 64, 0
4, 203760, Note_on_c, 3, 55, 40
4, 203760, Note_on_c, 3, 58, 40
4, 204000, Note_off_c, 3, 58, 0
4, 204000, Note_off_c, 3, 55, 0
4, 204000, Note_on_c, 3, 55, 41
4, 204000, Note_on_c, 3, 51, 41
4, 204240, Note_off_c, 3, 51, 0
4, 204240, Note_off_c, 3, 55, 0
4, 204240, Note_on_c, 3, 63, 41
4, 204240, Note_on_c, 3, 60, 41
4, 204480, Note_off_c, 3, 60, 0
4, 204480, Note_off_c, 3, 63, 0
4, 204480, Note_on_c, 3, 60, 41
4, 204480, Note_on_c, 3, 56, 41
4, 204720, Note_off_c, 3, 56, 0
4, 204720, Note_off_c, 3, 60, 0
4, 204720, Note_on_c, 3, 55, 42
4, 204720, Note_on_c, 3, 58, 42
4, 204960, Note_off_c, 3, 58, 0
4, 204960, Note_off_c, 3, 55, 0
4, 204960, Note_on_c, 3, 56, 42
4, 204960, Note_on_c, 3, 53, 42
4, 205200, Note_off_c, 3, 53, 0
4, 205200, Note_off_c, 3, 56, 0
4, 205200, Note_on_c, 3, 56, 43
4, 205200, Note_on_c, 3, 53, 43
4, 205440, Note_off_c, 3, 53, 0
4, 205440, Note_off_c, 3, 56, 0
4, 205440, Note_on_c, 3, 55, 43
4, 205440, Note_on_c, 3, 51, 43
4, 205680, Note_off_c, 3, 51, 0
4, 205680, Note_off_c, 3, 55, 0
4, 205680, Note_on_c, 3, 55, 44
4, 205680, Note_on_c, 3, 51, 44
4, 205920, Note_off_c, 3, 51, 0
4, 205920, Note_off_c, 3, 55, 0
4, 205920, Note_on_c, 3, 53, 44
4, 205920, Note_on_c, 3, 50, 44
4, 206160, Note_off_c, 3, 50, 0
4, 206160, Note_off_c, 3, 53, 0
4, 206160, Note_on_c, 3, 60, 45
4, 206160, Note_on_c, 3, 55, 45
4, 206160, Note_on_c, 3, 51, 45
4, 206280, Note_off_c, 3, 55, 0
4, 206280, Note_off_c, 3, 60, 0
4, 206280, Note_on_c, 3, 62, 45
4, 206280, Note_on_c, 3, 56, 45
4, 206280, Note_on_c, 3, 53, 45
4, 206400, Note_off_c, 3, 53, 0
4, 206400, Note_off_c, 3, 62, 0
4, 206400, Note_off_c, 3, 51, 0
4, 206400, Note_on_c, 3, 58, 45
4, 206520, Note_off_c, 3, 56, 0
4, 206520, Note_on_c, 3, 63, 45
4, 206640, Note_off_c, 3, 63, 0
4, 206640, Note_off_c, 3, 58, 0
4, 206640, Note_on_c, 3, 58, 45
4, 206760, Note_on_c, 3, 63, 46
4, 206880, Note_off_c, 3, 58, 0
4, 206880, Note_on_c, 3, 59, 46
4, 207000, Note_off_c, 3, 63, 0
4, 207000, Note_on_c, 3, 63, 46
4, 207120, Note_off_c, 3, 63, 0
4, 207120, Note_off_c, 3, 59, 0
4, 207120, Note_on_c, 3, 60, 46
4, 207240, Note_on_c, 3, 63, 47
4, 207360, Note_off_c, 3, 63, 0
4, 207360, Note_off_c, 3, 60, 0
4, 207360, Note_on_c, 3, 60, 47
4, 207480, Note_on_c, 3, 63, 47
4, 207600, Note_off_c, 3, 63, 0
4, 207600, Note_off_c, 3, 60, 0
4, 207600, Note_on_c, 3, 60, 47
4, 207720, Note_off_c, 3, 60, 0
4, 207720, Note_on_c, 3, 65, 48
4, 207840, Note_off_c, 3, 65, 0
4, 207840, Note_on_c, 3, 62, 48
4, 207960, Note_on_c, 3, 65, 48
4, 208080, Note_off_c, 3, 65, 0
4, 208080, Note_off_c, 3, 62, 0
4, 208080, Note_on_c, 3, 62, 48
4, 208200, Note_on_c, 3, 65, 48
4, 208320, Note_off_c, 3, 65, 0
4, 208320, Note_off_c, 3, 62, 0
4, 208320, Note_on_c, 3, 67, 49
4, 208440, Note_off_c, 3, 67, 0
4, 208440, Note_on_c, 3, 60, 51
4, 208560, Note_off_c, 3, 60, 0
4, 208680, Note_on_c, 3, 67, 50
4, 208680, Note_on_c, 3, 63, 50
4, 208800, Note_off_c, 3, 63, 0
4, 208800, Note_off_c, 3, 67, 0
4, 208920, Note_on_c, 3, 62, 47
4, 208920, Note_on_c, 3, 65, 47
4, 209040, Note_off_c, 3, 65, 0
4, 209040, Note_off_c, 3, 62, 0
4, 209040, Note_on_c, 3, 67, 48
4, 209160, Note_off_c, 3, 67, 0
4, 209160, Note_on_c, 3, 68, 49
4, 209280, Note_off_c, 3, 68, 0
4, 209280, Note_on_c, 3, 67, 49
4, 209400, Note_on_c, 3, 70, 50
4, 209520, Note_off_c, 3, 70, 0
4, 209520, Note_off_c, 3, 67, 0
4, 209520, Note_on_c, 3, 67, 50
4, 209640, Note_on_c, 3, 70, 51
4, 209760, Note_off_c, 3, 70, 0
4, 209760, Note_off_c, 3, 67, 0
4, 209760, Note_on_c, 3, 68, 52
4, 209880, Note_on_c, 3, 72, 53
4, 210000, Note_off_c, 3, 72, 0
4, 210000, Note_off_c, 3, 68, 0
4, 210000, Note_on_c, 3, 68, 54
4, 210120, Note_on_c, 3, 72, 55
4, 210240, Note_off_c, 3, 72, 0
4, 210240, Note_off_c, 3, 68, 0
4, 210240, Note_on_c, 3, 68, 56
4, 210360, Note_on_c, 3, 72, 57
4, 210480, Note_off_c, 3, 72, 0
4, 210480, Note_off_c, 3, 68, 0
4, 210480, Note_on_c, 3, 67, 58
4, 210600, Note_off_c, 3, 67, 0
4, 210600, Note_on_c, 3, 70, 58
4, 210720, Note_off_c, 3, 70, 0
4, 210720, Note_on_c, 3, 67, 59
4, 210840, Note_on_c, 3, 70, 60
4, 210960, Note_off_c, 3, 70, 0
4, 210960, Note_off_c, 3, 67, 0
4, 210960, Note_on_c, 3, 65, 61
4, 211080, Note_on_c, 3, 68, 62
4, 211200, Note_off_c, 3, 68, 0
4, 211200, Note_off_c, 3, 65, 0
4, 211200, Note_on_c, 3, 66, 63
4, 211320, Note_on_c, 3, 69, 64
4, 211440, Note_off_c, 3, 69, 0
4, 211440, Note_off_c, 3, 66, 0
4, 211440, Note_on_c, 3, 66, 65
4, 211560, Note_on_c, 3, 69, 66
4, 211680, Note_off_c, 3, 69, 0
4, 211680, Note_off_c, 3, 66, 0
4, 211680, Note_on_c, 3, 65, 66
4, 211800, Note_on_c, 3, 70, 62
4, 211920, Note_off_c, 3, 70, 0
4, 211920, Note_off_c, 3, 65, 0
4, 211920, Note_on_c, 3, 67, 58
4, 212040, Note_off_c, 3, 67, 0
4, 212040, Note_on_c, 3, 68, 54
4, 212160, Note_off_c, 3, 68, 0
4, 212160, Note_on_c, 3, 70, 50
4, 212280, Note_on_c, 3, 75, 54
4, 212400, Note_off_c, 3, 75, 0
4, 212400, Note_off_c, 3, 70, 0
4, 212400, Note_on_c, 3, 70, 57
4, 212520, Note_on_c, 3, 75, 60
4, 212640, Note_off_c, 3, 75, 0
4, 212640, Note_off_c, 3, 70, 0
4, 212640, Note_on_c, 3, 71, 62
4, 212760, Note_on_c, 3, 77, 58
4, 212880, Note_off_c, 3, 77, 0
4, 212880, Note_off_c, 3, 71, 0
4, 212880, Note_on_c, 3, 72, 52
4, 213000, Note_on_c, 3, 75, 55
4, 213120, Note_off_c, 3, 75, 0
4, 213120, Note_off_c, 3, 72, 0
4, 213120, Note_on_c, 3, 72, 58
4, 213240, Note_on_c, 3, 76, 61
4, 213360, Note_off_c, 3, 76, 0
4, 213360, Note_off_c, 3, 72, 0
4, 213360, Note_on_c, 3, 72, 65
4, 213480, Note_off_c, 3, 72, 0
4, 223680, Control_c, 3, 64, 0
4, 239040, Control_c, 3, 64, 0
4, 254400, Control_c, 3, 64, 0
4, 299040, Note_on_c, 3, 55, 46
4, 299280, Note_off_c, 3, 55, 0
4, 299520, Note_on_c, 3, 59, 47
4, 299760, Note_off_c, 3, 59, 0
4, 300000, Note_on_c, 3, 55, 47
4, 300240, Note_off_c, 3, 55, 0
4, 300480, Note_on_c, 3, 59, 47
4, 300720, Note_off_c, 3, 59, 0
4, 300960, Note_on_c, 3, 55, 47
4, 301200, Note_off_c, 3, 55, 0
4, 301440, Note_on_c, 3, 59, 48
4, 301680, Note_off_c, 3, 59, 0
4, 301920, Note_on_c, 3, 55, 48
4, 302160, Note_off_c, 3, 55, 0
4, 302400, Note_on_c, 3, 59, 48
4, 302640, Note_off_c, 3, 59, 0
4, 303360, Note_on_c, 3, 59, 49
4, 303600, Note_off_c, 3, 59, 0
4, 304320, Note_on_c, 3, 59, 50
4, 304560, Note_off_c, 3, 59, 0
4, 305280, Note_on_c, 3, 59, 50
4, 305520, Note_off_c, 3, 59, 0
4, 306240, Note_on_c, 3, 59, 51
4, 306480, Note_off_c, 3, 59, 0
4, 306720, Note_on_c, 3, 55, 51
4, 306960, Note_off_c, 3, 55, 0
4, 307200, Note_on_c, 3, 59, 51
4, 307440, Note_off_c, 3, 59, 0
4, 307680, Note_on_c, 3, 55, 52
4, 307920, Note_off_c, 3, 55, 0
4, 308160, Note_on_c, 3, 59, 52
4, 308400, Note_off_c, 3, 59, 0
4, 308640, Note_on_c, 3, 55, 52
4, 308880, Note_off_c, 3, 55, 0
4, 309120, Note_on_c, 3, 59, 53
4, 309360, Note_off_c, 3, 59, 0
4, 309600, Note_on_c, 3, 55, 53
4, 309840, Note_off_c, 3, 55, 0
4, 310080, Note_on_c, 3, 59, 53
4, 310320, Note_off_c, 3, 59, 0
4, 310560, Note_on_c, 3, 58, 54
4, 310800, Note_off_c, 3, 58, 0
4, 311040, Note_on_c, 3, 61, 54
4, 311280, Note_off_c, 3, 61, 0
4, 311520, Note_on_c, 3, 58, 54
4, 311760, Note_off_c, 3, 58, 0
4, 312000, Note_on_c, 3, 61, 54
4, 312240, Note_off_c, 3, 61, 0
4, 312480, Note_on_c, 3, 58, 55
4, 312720, Note_off_c, 3, 58, 0
4, 312960, Note_on_c, 3, 61, 55
4, 313200, Note_off_c, 3, 61, 0
4, 313440, Note_on_c, 3, 58, 55
4, 313680, Note_off_c, 3, 58, 0
4, 440640, Control_c, 3, 64, 0
4, 456000, Control_c, 3, 64, 0
4, 471360, Control_c, 3, 64, 0
4, 516000, Note_on_c, 3, 55, 46
4, 516240, Note_off_c, 3, 55, 0
4, 516480, Note_on_c, 3, 59, 47
4, 516720, Note_off_c, 3, 59, 0
4, 516960, Note_on_c, 3, 55, 47
4, 517200, Note_off_c, 3, 55, 0
4, 517440, Note_on_c, 3, 59, 47
4, 517680, Note_off_c, 3, 59, 0
4, 517920, Note_on_c, 3, 55, 47
4, 518160, Note_off_c, 3, 55, 0
4, 518400, Note_on_c, 3, 59, 48
4, 518640, Note_off_c, 3, 59, 0
4, 518880, Note_on_c, 3, 55, 48
4, 519120, Note_off_c, 3, 55, 0
4, 519360, Note_on_c, 3, 59, 48
4, 519600, Note_off_c, 3, 59, 0
4, 520320, Note_on_c, 3, 59, 49
4, 520560, Note_off_c, 3, 59, 0
4, 521280, Note_on_c, 3, 59, 50
4, 521520, Note_off_c, 3, 59, 0
4, 522240, Note_on_c, 3, 59, 50
4, 522480, Note_off_c, 3, 59, 0
4, 523200, Note_on_c, 3, 59, 51
4, 523440, Note_off_c, 3, 59, 0
4, 523680, Note_on_c, 3, 55, 51
4, 523920, Note_off_c, 3, 55, 0
4, 524160, Note_on_c, 3, 59, 51
4, 524400, Note_off_c, 3, 59, 0
4, 524640, Note_on_c, 3, 55, 52
4, 524880, Note_off_c, 3, 55, 0
4, 525120, Note_on_c, 3, 59, 52
4, 525360, Note_off_c, 3, 59, 0
4, 525600, Note_on_c, 3, 55, 52
4, 525840, Note_off_c, 3, 55, 0
4, 526080, Note_on_c, 3, 59, 53
4, 526320, Note_off_c, 3, 59, 0
4, 526560, Note_on_c, 3, 55, 53
4, 526800, Note_off_c, 3, 55, 0
4, 527040, Note_on_c, 3, 59, 53
4, 527280, Note_off_c, 3, 59, 0
4, 527520, Note_on_c, 3, 58, 54
4, 527760, Note_off_c, 3, 58, 0
4, 528000, Note_on_c, 3, 61, 54
4, 528240, Note_off_c, 3, 61, 0
4, 528480, Note_on_c, 3, 58, 54
4, 528720, Note_off_c, 3, 58, 0
4, 528960, Note_on_c, 3, 61, 54
4, 529200, Note_off_c, 3, 61, 0
4, 529440, Note_on_c, 3, 58, 55
4, 529680, Note_off_c, 3, 58, 0
4, 529920, Note_on_c, 3, 61, 55
4, 530160, Note_off_c, 3, 61, 0
4, 530400, Note_on_c, 3, 58, 55
4, 530640, Note_off_c, 3, 58, 0
4, 538560, Control_c, 3, 64, 0
4, 538560, Control_c, 3, 64, 0
4, 547200, Control_c, 3, 64, 0
4, 553920, Control_c, 3, 64, 0
4, 553920, Control_c, 3, 64, 0
4, 563520, Control_c, 3, 64, 0
4, 667200, Control_c, 3, 64, 0
4, 673440, Control_c, 3, 64, 0
4, 673440, Note_on_c, 3, 59, 42
4, 674400, Note_off_c, 3, 59, 0
4, 674400, Note_on_c, 3, 60, 44
4, 674640, Note_off_c, 3, 60, 0
4, 674640, Note_on_c, 3, 59, 44
4, 674880, Note_off_c, 3, 59, 0
4, 674880, Note_on_c, 3, 57, 45
4, 675840, Note_off_c, 3, 57, 0
4, 675840, Note_on_c, 3, 55, 46
4, 676080, Note_off_c, 3, 55, 0
4, 676080, Note_on_c, 3, 54, 47
4, 676320, Note_off_c, 3, 54, 0
4, 676320, Note_on_c, 3, 55, 48
4, 677280, Note_off_c, 3, 55, 0
4, 677280, Note_on_c, 3, 57, 45
4, 677520, Note_off_c, 3, 57, 0
4, 677520, Note_on_c, 3, 55, 45
4, 677760, Note_off_c, 3, 55, 0
4, 677760, Note_on_c, 3, 54, 44
4, 678720, Note_off_c, 3, 54, 0
4, 678720, Note_on_c, 3, 55, 42
4, 678960, Note_off_c, 3, 55, 0
4, 678960, Note_on_c, 3, 53, 42
4, 679200, Note_off_c, 3, 53, 0
4, 679200, Note_on_c, 3, 52, 44
4, 679920, Note_off_c, 3, 52, 0
4, 679920, Note_on_c, 3, 50, 48
4, 680640, Note_off_c, 3, 50, 0
4, 680640, Note_on_c, 3, 48, 52
4, 681360, Note_off_c, 3, 48, 0
4, 681360, Note_on_c, 3, 50, 53
4, 681840, Note_off_c, 3, 50, 0
4, 681840, Note_on_c, 3, 50, 51
4, 682080, Note_off_c, 3, 50, 0
4, 682080, Note_on_c, 3, 52, 50
4, 683280, Note_on_c, 3, 60, 46
4, 683287, Note_off_c, 3, 52, 0
4, 683520, Note_off_c, 3, 60, 0
4, 683520, Note_on_c, 3, 59, 45
4, 683760, Note_off_c, 3, 59, 0
4, 683760, Note_on_c, 3, 57, 44
4, 684000, Note_off_c, 3, 57, 0
4, 684000, Note_on_c, 3, 59, 43
4, 684240, Note_off_c, 3, 59, 0
4, 684240, Note_on_c, 3, 62, 42
4, 684480, Note_off_c, 3, 62, 0
4, 684480, Note_on_c, 3, 60, 41
4, 684720, Note_off_c, 3, 60, 0
4, 684720, Note_on_c, 3, 57, 40
4, 684960, Control_c, 3, 64, 0
4, 684960, Note_off_c, 3, 57, 0
4, 684960, Note_on_c, 3, 59, 40
4, 685920, Note_off_c, 3, 59, 0
4, 685920, Note_on_c, 3, 60, 43
4, 686160, Note_off_c, 3, 60, 0
4, 686160, Note_on_c, 3, 59, 44
4, 686400, Note_off_c, 3, 59, 0
4, 686400, Note_on_c, 3, 57, 44
4, 687360, Note_off_c, 3, 57, 0
4, 687360, Note_on_c, 3, 59, 47
4, 687600, Note_off_c, 3, 59, 0
4, 687600, Note_on_c, 3, 57, 48
4, 687840, Note_off_c, 3, 57, 0
4, 687840, Note_on_c, 3, 55, 48
4, 688800, Note_off_c, 3, 55, 0
4, 688800, Note_on_c, 3, 57, 51
4, 689040, Note_off_c, 3, 57, 0
4, 689040, Note_on_c, 3, 55, 51
4, 689280, Note_off_c, 3, 55, 0
4, 689280, Note_on_c, 3, 54, 52
4, 690000, Note_off_c, 3, 54, 0
4, 690000, Note_on_c, 3, 59, 54
4, 690720, Note_off_c, 3, 59, 0
4, 690720, Note_on_c, 3, 59, 56
4, 691440, Note_off_c, 3, 59, 0
4, 691440, Note_on_c, 3, 59, 54
4, 691920, Note_off_c, 3, 59, 0
4, 691920, Note_on_c, 3, 59, 53
4, 692160, Note_off_c, 3, 59, 0
4, 692160, Note_on_c, 3, 59, 52
4, 692640, Note_off_c, 3, 59, 0
4, 692640, Note_on_c, 3, 64, 50
4, 692880, Note_off_c, 3, 64, 0
4, 692880, Note_on_c, 3, 64, 50
4, 693360, Note_off_c, 3, 64, 0
4, 693360, Note_on_c, 3, 64, 48
4, 693600, Note_off_c, 3, 64, 0
4, 693600, Note_on_c, 3, 64, 47
4, 695040, Note_off_c, 3, 64, 0
4, 695040, Note_on_c, 3, 64, 43
4, 695280, Note_off_c, 3, 64, 0
4, 695280, Note_on_c, 3, 63, 42
4, 695472, Note_off_c, 3, 63, 0
4, 695520, Note_on_c, 3, 63, 41
4, 695712, Note_off_c, 3, 63, 0
4, 696480, Control_c, 3, 64, 0
4, 696480, Note_on_c, 3, 59, 42
4, 697440, Note_off_c, 3, 59, 0
4, 697440, Note_on_c, 3, 60, 44
4, 697680, Note_off_c, 3, 60, 0
4, 697680, Note_on_c, 3, 59, 44
4, 697920, Note_off_c, 3, 59, 0
4, 697920, Note_on_c, 3, 57, 45
4, 698880, Note_off_c, 3, 57, 0
4, 698880, Note_on_c, 3, 55, 46
4, 699120, Note_off_c, 3, 55, 0
4, 699120, Note_on_c, 3, 54, 47
4, 699360, Note_off_c, 3, 54, 0
4, 699360, Note_on_c, 3, 55, 48
4, 700320, Note_off_c, 3, 55, 0
4, 700320, Note_on_c, 3, 57, 45
4, 700560, Note_off_c, 3, 57, 0
4, 700560, Note_on_c, 3, 55, 45
4, 700800, Note_off_c, 3, 55, 0
4, 700800, Note_on_c, 3, 54, 44
4, 701760, Note_off_c, 3, 54, 0
4, 701760, Note_on_c, 3, 55, 42
4, 702000, Note_off_c, 3, 55, 0
4, 702000, Note_on_c, 3, 53, 42
4, 702240, Note_off_c, 3, 53, 0
4, 702240, Note_on_c, 3, 52, 44
4, 702960, Note_off_c, 3, 52, 0
4, 702960, Note_on_c, 3, 50, 48
4, 703680, Note_off_c, 3, 50, 0
4, 703680, Note_on_c, 3, 48, 52
4, 704400, Note_off_c, 3, 48, 0
4, 704400, Note_on_c, 3, 50, 53
4, 704880, Note_off_c, 3, 50, 0
4, 704880, Note_on_c, 3, 50, 51
4, 705120, Note_off_c, 3, 50, 0
4, 705120, Note_on_c, 3, 52, 50
4, 706320, Note_on_c, 3, 60, 46
4, 706327, Note_off_c, 3, 52, 0
4, 706560, Note_off_c, 3, 60, 0
4, 706560, Note_on_c, 3, 59, 45
4, 706800, Note_off_c, 3, 59, 0
4, 706800, Note_on_c, 3, 57, 44
4, 707040, Note_off_c, 3, 57, 0
4, 707040, Note_on_c, 3, 59, 43
4, 707280, Note_off_c, 3, 59, 0
4, 707280, Note_on_c, 3, 62, 42
4, 707520, Note_off_c, 3, 62, 0
4, 707520, Note_on_c, 3, 60, 41
4, 707760, Note_off_c, 3, 60, 0
4, 707760, Note_on_c, 3, 57, 40
4, 708000, Control_c, 3, 64, 0
4, 708000, Note_off_c, 3, 57, 0
4, 708000, Note_on_c, 3, 59, 40
4, 708960, Note_off_c, 3, 59, 0
4, 708960, Note_on_c, 3, 60, 43
4, 709200, Note_off_c, 3, 60, 0
4, 709200, Note_on_c, 3, 59, 44
4, 709440, Note_off_c, 3, 59, 0
4, 709440, Note_on_c, 3, 57, 44
4, 710400, Note_off_c, 3, 57, 0
4, 710400, Note_on_c, 3, 59, 47
4, 710640, Note_off_c, 3, 59, 0
4, 710640, Note_on_c, 3, 57, 48
4, 710880, Note_off_c, 3, 57, 0
4, 710880, Note_on_c, 3, 55, 48
4, 711840, Note_off_c, 3, 55, 0
4, 711840, Note_on_c, 3, 57, 51
4, 712080, Note_off_c, 3, 57, 0
4, 712080, Note_on_c, 3, 55, 51
4, 712320, Note_off_c, 3, 55, 0
4, 712320, Note_on_c, 3, 54, 52
4, 713040, Note_off_c, 3, 54, 0
4, 713040, Note_on_c, 3, 59, 54
4, 713760, Note_off_c, 3, 59, 0
4, 713760, Note_on_c, 3, 59, 56
4, 714480, Note_off_c, 3, 59, 0
4, 714480, Note_on_c, 3, 59, 54
4, 714960, Note_off_c, 3, 59, 0
4, 714960, Note_on_c, 3, 59, 53
4, 715200, Note_off_c, 3, 59, 0
4, 715200, Note_on_c, 3, 59, 52
4, 715680, Note_off_c, 3, 59, 0
4, 715680, Note_on_c, 3, 64, 50
4, 715920, Note_off_c, 3, 64, 0
4, 715920, Note_on_c, 3, 64, 50
4, 716400, Note_off_c, 3, 64, 0
4, 716400, Note_on_c, 3, 64, 48
4, 716640, Note_off_c, 3, 64, 0
4, 716640, Note_on_c, 3, 64, 47
4, 718080, Note_off_c, 3, 64, 0
4, 718080, Note_on_c, 3, 64, 43
4, 718320, Note_off_c, 3, 64, 0
4, 718320, Note_on_c, 3, 63, 42
4, 718512, Note_off_c, 3, 63, 0
4, 718560, Note_on_c, 3, 63, 41
4, 718752, Note_off_c, 3, 63, 0
4, 719520, Control_c, 3, 64, 0
4, 719560, Control_c, 3, 64, 127
4, 719760, Note_on_c, 3, 60, 48
4, 720000, Note_off_c, 3, 60, 0
4, 720000, Note_on_c, 3, 55, 48
4, 720240, Control_c, 3, 64, 0
4, 720240, Note_off_c, 3, 55, 0
4, 720280, Control_c, 3, 64, 127
4, 720480, Note_on_c, 3, 62, 47
4, 720720, Note_off_c, 3, 62, 0
4, 720720, Note_on_c, 3, 55, 47
4, 720960, Control_c, 3, 64, 0
4, 720960, Note_off_c, 3, 55, 0
4, 721000, Control_c, 3, 64, 127
4, 721200, Note_on_c, 3, 64, 46
4, 721440, Note_off_c, 3, 64, 0
4, 721440, Note_on_c, 3, 55, 45
4, 721680, Control_c, 3, 64, 0
4, 721680, Note_off_c, 3, 55, 0
4, 721720, Control_c, 3, 64, 127
4, 721920, Note_on_c, 3, 65, 44
4, 722160, Note_off_c, 3, 65, 0
4, 722160, Note_on_c, 3, 55, 44
4, 722400, Control_c, 3, 64, 0
4, 722400, Note_off_c, 3, 55, 0
4, 722440, Control_c, 3, 64, 127
4, 722640, Note_on_c, 3, 64, 45
4, 722880, Note_off_c, 3, 64, 0
4, 722880, Note_on_c, 3, 55, 46
4, 723120, Control_c, 3, 64, 0
4, 723120, Note_off_c, 3, 55, 0
4, 723160, Control_c, 3, 64, 127
4, 723360, Note_on_c, 3, 60, 47
4, 723600, Note_off_c, 3, 60, 0
4, 723600, Note_on_c, 3, 55, 49
4, 723840, Control_c, 3, 64, 0
4, 723840, Note_off_c, 3, 55, 0
4, 723880, Control_c, 3, 64, 127
4, 724080, Note_on_c, 3, 61, 48
4, 724320, Note_off_c, 3, 61, 0
4, 724320, Note_on_c, 3, 55, 47
4, 724560, Control_c, 3, 64, 0
4, 724560, Note_off_c, 3, 55, 0
4, 724600, Control_c, 3, 64, 127
4, 724800, Note_on_c, 3, 62, 45
4, 725040, Note_off_c, 3, 62, 0
4, 725040, Note_on_c, 3, 55, 44
4, 725280, Control_c, 3, 64, 0
4, 725280, Note_off_c, 3, 55, 0
4, 725320, Control_c, 3, 64, 127
4, 725520, Note_on_c, 3, 59, 45
4, 725760, Note_off_c, 3, 59, 0
4, 725760, Note_on_c, 3, 55, 45
4, 726000, Control_c, 3, 64, 0
4, 726000, Note_off_c, 3, 55, 0
4, 726040, Control_c, 3, 64, 127
4, 726240, Note_on_c, 3, 60, 44
4, 726480, Note_off_c, 3, 60, 0
4, 726480, Note_on_c, 3, 55, 44
4, 726720, Control_c, 3, 64, 0
4, 726720, Note_off_c, 3, 55, 0
4, 726760, Control_c, 3, 64, 127
4, 726960, Note_on_c, 3, 62, 44
4, 727200, Note_off_c, 3, 62, 0
4, 727200, Note_on_c, 3, 55, 43
4, 727440, Control_c, 3, 64, 0
4, 727440, Note_off_c, 3, 55, 0
4, 727480, Control_c, 3, 64, 127
4, 727680, Note_on_c, 3, 64, 43
4, 727920, Note_off_c, 3, 64, 0
4, 727920, Note_on_c, 3, 55, 43
4, 728160, Control_c, 3, 64, 0
4, 728160, Note_off_c, 3, 55, 0
4, 728200, Control_c, 3, 64, 127
4, 728400, Note_on_c, 3, 65, 43
4, 728640, Note_off_c, 3, 65, 0
4, 728640, Note_on_c, 3, 55, 44
4, 728880, Control_c, 3, 64, 0
4, 728880, Note_off_c, 3, 55, 0
4, 728920, Control_c, 3, 64, 127
4, 729120, Note_on_c, 3, 59, 46
4, 729360, Note_off_c, 3, 59, 0
4, 729360, Note_on_c, 3, 55, 46
4, 729600, Control_c, 3, 64, 0
4, 729600, Note_off_c, 3, 55, 0
4, 729640, Control_c, 3, 64, 127
4, 729840, Note_on_c, 3, 59, 47
4, 730080, Note_off_c, 3, 59, 0
4, 730080, Note_on_c, 3, 55, 46
4, 730320, Control_c, 3, 64, 0
4, 730320, Note_off_c, 3, 55, 0
4, 730360, Control_c, 3, 64, 127
4, 730560, Note_on_c, 3, 60, 43
4, 730800, Note_off_c, 3, 60, 0
4, 730800, Note_on_c, 3, 55, 42
4, 731040, Control_c, 3, 64, 0
4, 731040, Note_off_c, 3, 55, 0
4, 731080, Control_c, 3, 64, 127
4, 731280, Note_on_c, 3, 60, 43
4, 731520, Note_off_c, 3, 60, 0
4, 731520, Note_on_c, 3, 55, 44
4, 731760, Control_c, 3, 64, 0
4, 731760, Note_off_c, 3, 55, 0
4, 731800, Control_c, 3, 64, 127
4, 732000, Note_on_c, 3, 57, 46
4, 732240, Note_off_c, 3, 57, 0
4, 732240, Note_on_c, 3, 50, 48
4, 732480, Control_c, 3, 64, 0
4, 732480, Note_off_c, 3, 50, 0
4, 732520, Control_c, 3, 64, 127
4, 732720, Note_on_c, 3, 59, 50
4, 732960, Note_off_c, 3, 59, 0
4, 732960, Note_on_c, 3, 50, 51
4, 733200, Control_c, 3, 64, 0
4, 733200, Note_off_c, 3, 50, 0
4, 733240, Control_c, 3, 64, 127
4, 733440, Note_on_c, 3, 55, 53
4, 733680, Note_off_c, 3, 55, 0
4, 733680, Note_on_c, 3, 50, 54
4, 733920, Control_c, 3, 64, 0
4, 733920, Note_off_c, 3, 50, 0
4, 733960, Control_c, 3, 64, 127
4, 734160, Note_on_c, 3, 54, 57
4, 734400, Note_off_c, 3, 54, 0
4, 734400, Note_on_c, 3, 50, 58
4, 734640, Control_c, 3, 64, 0
4, 734640, Note_off_c, 3, 50, 0
4, 734680, Control_c, 3, 64, 127
4, 734880, Note_on_c, 3, 50, 60
4, 735120, Note_off_c, 3, 50, 0
4, 735120, Note_on_c, 3, 38, 61
4, 735360, Control_c, 3, 64, 0
4, 735360, Note_off_c, 3, 38, 0
4, 735400, Control_c, 3, 64, 127
4, 735600, Note_on_c, 3, 52, 63
4, 735840, Note_off_c, 3, 52, 0
4, 735840, Note_on_c, 3, 40, 64
4, 736080, Control_c, 3, 64, 0
4, 736080, Note_off_c, 3, 40, 0
4, 736120, Control_c, 3, 64, 127
4, 736320, Note_on_c, 3, 50, 67
4, 736560, Note_off_c, 3, 50, 0
4, 736560, Note_on_c, 3, 48, 68
4, 736560, Note_on_c, 3, 36, 68
4, 736800, Control_c, 3, 64, 0
4, 736800, Note_off_c, 3, 36, 0
4, 736800, Note_off_c, 3, 48, 0
4, 736840, Control_c, 3, 64, 127
4, 737040, Note_on_c, 3, 47, 66
4, 737280, Note_off_c, 3, 47, 0
4, 737280, Note_on_c, 3, 43, 65
4, 737520, Control_c, 3, 64, 0
4, 737520, Note_off_c, 3, 43, 0
4, 737560, Control_c, 3, 64, 127
4, 737760, Note_on_c, 3, 47, 63
4, 738000, Note_off_c, 3, 47, 0
4, 738000, Note_on_c, 3, 43, 62
4, 738240, Control_c, 3, 64, 0
4, 738240, Note_off_c, 3, 43, 0
4, 738280, Control_c, 3, 64, 127
4, 738480, Note_on_c, 3, 48, 60
4, 738720, Note_off_c, 3, 48, 0
4, 738720, Note_on_c, 3, 43, 59
4, 738960, Control_c, 3, 64, 0
4, 738960, Note_off_c, 3, 43, 0
4, 739000, Control_c, 3, 64, 127
4, 739200, Note_on_c, 3, 49, 57
4, 739440, Note_off_c, 3, 49, 0
4, 739440, Note_on_c, 3, 43, 56
4, 739680, Control_c, 3, 64, 0
4, 739680, Note_off_c, 3, 43, 0
4, 739720, Control_c, 3, 64, 127
4, 739920, Note_on_c, 3, 50, 50
4, 740160, Note_off_c, 3, 50, 0
4, 740160, Note_on_c, 3, 43, 49
4, 740400, Control_c, 3, 64, 0
4, 740400, Note_off_c, 3, 43, 0
4, 740440, Control_c, 3, 64, 127
4, 740640, Note_on_c, 3, 52, 45
4, 740880, Note_off_c, 3, 52, 0
4, 740880, Note_on_c, 3, 43, 44
4, 741120, Control_c, 3, 64, 0
4, 741125, Note_off_c, 3, 43, 0
4, 741160, Control_c, 3, 64, 127
4, 741360, Note_on_c, 3, 50, 40
4, 741600, Note_off_c, 3, 50, 0
4, 741600, Note_on_c, 3, 43, 39
4, 741840, Control_c, 3, 64, 0
4, 741840, Note_off_c, 3, 43, 0
4, 742080, Note_on_c, 3, 50, 39
4, 742320, Note_on_c, 3, 55, 38
4, 742510, Note_off_c, 3, 50, 0
4, 742512, Note_off_c, 3, 55, 0
4, 742560, Control_c, 3, 64, 0
4, 742560, Control_c, 3, 64, 0
4, 742600, Control_c, 3, 64, 127
4, 742800, Note_on_c, 3, 60, 48
4, 743040, Note_off_c, 3, 60, 0
4, 743040, Note_on_c, 3, 55, 48
4, 743280, Control_c, 3, 64, 0
4, 743280, Note_off_c, 3, 55, 0
4, 743320, Control_c, 3, 64, 127
4, 743520, Note_on_c, 3, 62, 47
4, 743760, Note_off_c, 3, 62, 0
4, 743760, Note_on_c, 3, 55, 47
4, 744000, Control_c, 3, 64, 0
4, 744000, Note_off_c, 3, 55, 0
4, 744040, Control_c, 3, 64, 127
4, 744240, Note_on_c, 3, 64, 46
4, 744480, Note_off_c, 3, 64, 0
4, 744480, Note_on_c, 3, 55, 45
4, 744720, Control_c, 3, 64, 0
4, 744720, Note_off_c, 3, 55, 0
4, 744760, Control_c, 3, 64, 127
4, 744960, Note_on_c, 3, 65, 44
4, 745200, Note_off_c, 3, 65, 0
4, 745200, Note_on_c, 3, 55, 44
4, 745440, Control_c, 3, 64, 0
4, 745440, Note_off_c, 3, 55, 0
4, 745480, Control_c, 3, 64, 127
4, 745680, Note_on_c, 3, 64, 45
4, 745920, Note_off_c, 3, 64, 0
4, 745920, Note_on_c, 3, 55, 46
4, 746160, Control_c, 3, 64, 0
4, 746160, Note_off_c, 3, 55, 0
4, 746200, Control_c, 3, 64, 127
4, 746400, Note_on_c, 3, 60, 47
4, 746640, Note_off_c, 3, 60, 0
4, 746640, Note_on_c, 3, 55, 49
4, 746880, Control_c, 3, 64, 0
4, 746880, Note_off_c, 3, 55, 0
4, 746920, Control_c, 3, 64, 127
4, 747120, Note_on_c, 3, 61, 48
4, 747360, Note_off_c, 3, 61, 0
4, 747360, Note_on_c, 3, 55, 47
4, 747600, Control_c, 3, 64, 0
4, 747600, Note_off_c, 3, 55, 0
4, 747640, Control_c, 3, 64, 127
4, 747840, Note_on_c, 3, 62, 45
4, 748080, Note_off_c, 3, 62, 0
4, 748080, Note_on_c, 3, 55, 44
4, 748320, Control_c, 3, 64, 0
4, 748320, Note_off_c, 3, 55, 0
4, 748360, Control_c, 3, 64, 127
4, 748560, Note_on_c, 3, 59, 45
4, 748800, Note_off_c, 3, 59, 0
4, 748800, Note_on_c, 3, 55, 45
4, 749040, Control_c, 3, 64, 0
4, 749040, Note_off_c, 3, 55, 0
4, 749080, Control_c, 3, 64, 127
4, 749280, Note_on_c, 3, 60, 44
4, 749520, Note_off_c, 3, 60, 0
4, 749520, Note_on_c, 3, 55, 44
4, 749760, Control_c, 3, 64, 0
4, 749760, Note_off_c, 3, 55, 0
4, 749800, Control_c, 3, 64, 127
4, 750000, Note_on_c, 3, 62, 44
4, 750240, Note_off_c, 3, 62, 0
4, 750240, Note_on_c, 3, 55, 43
4, 750480, Control_c, 3, 64, 0
4, 750480, Note_off_c, 3, 55, 0
4, 750520, Control_c, 3, 64, 127
4, 750720, Note_on_c, 3, 64, 43
4, 750960, Note_off_c, 3, 64, 0
4, 750960, Note_on_c, 3, 55, 43
4, 751200, Control_c, 3, 64, 0
4, 751200, Note_off_c, 3, 55, 0
4, 751240, Control_c, 3, 64, 127
4, 751440, Note_on_c, 3, 65, 43
4, 751680, Note_off_c, 3, 65, 0
4, 751680, Note_on_c, 3, 55, 44
4, 751920, Control_c, 3, 64, 0
4, 751920, Note_off_c, 3, 55, 0
4, 751960, Control_c, 3, 64, 127
4, 752160, Note_on_c, 3, 59, 46
4, 752400, Note_off_c, 3, 59, 0
4, 752400, Note_on_c, 3, 55, 46
4, 752640, Control_c, 3, 64, 0
4, 752640, Note_off_c, 3, 55, 0
4, 752680, Control_c, 3, 64, 127
4, 752880, Note_on_c, 3, 59, 47
4, 753120, Note_off_c, 3, 59, 0
4, 753120, Note_on_c, 3, 55, 46
4, 753360, Control_c, 3, 64, 0
4, 753360, Note_off_c, 3, 55, 0
4, 753400, Control_c, 3, 64, 127
4, 753600, Note_on_c, 3, 60, 43
4, 753840, Note_off_c, 3, 60, 0
4, 753840, Note_on_c, 3, 55, 42
4, 754080, Control_c, 3, 64, 0
4, 754080, Note_off_c, 3, 55, 0
4, 754120, Control_c, 3, 64, 127
4, 754320, Note_on_c, 3, 60, 43
4, 754560, Note_off_c, 3, 60, 0
4, 754560, Note_on_c, 3, 55, 44
4, 754800, Control_c, 3, 64, 0
4, 754800, Note_off_c, 3, 55, 0
4, 754840, Control_c, 3, 64, 127
4, 755040, Note_on_c, 3, 57, 46
4, 755280, Note_off_c, 3, 57, 0
4, 755280, Note_on_c, 3, 50, 48
4, 755520, Control_c, 3, 64, 0
4, 755520, Note_off_c, 3, 50, 0
4, 755560, Control_c, 3, 64, 127
4, 755760, Note_on_c, 3, 59, 50
4, 756000, Note_off_c, 3, 59, 0
4, 756000, Note_on_c, 3, 50, 51
4, 756240, Control_c, 3, 64, 0
4, 756240, Note_off_c, 3, 50, 0
4, 756280, Control_c, 3, 64, 127
4, 756480, Note_on_c, 3, 55, 53
4, 756720, Note_off_c, 3, 55, 0
4, 756720, Note_on_c, 3, 50, 54
4, 756960, Control_c, 3, 64, 0
4, 756960, Note_off_c, 3, 50, 0
4, 757000, Control_c, 3, 64, 127
4, 757200, Note_on_c, 3, 54, 57
4, 757440, Note_off_c, 3, 54, 0
4, 757440, Note_on_c, 3, 50, 58
4, 757680, Control_c, 3, 64, 0
4, 757680, Note_off_c, 3, 50, 0
4, 757720, Control_c, 3, 64, 127
4, 757920, Note_on_c, 3, 50, 60
4, 758160, Note_off_c, 3, 50, 0
4, 758160, Note_on_c, 3, 38, 61
4, 758400, Control_c, 3, 64, 0
4, 758400, Note_off_c, 3, 38, 0
4, 758440, Control_c, 3, 64, 127
4, 758640, Note_on_c, 3, 52, 63
4, 758880, Note_off_c, 3, 52, 0
4, 758880, Note_on_c, 3, 40, 64
4, 759120, Control_c, 3, 64, 0
4, 759120, Note_off_c, 3, 40, 0
4, 759160, Control_c, 3, 64, 127
4, 759360, Note_on_c, 3, 50, 67
4, 759600, Note_off_c, 3, 50, 0
4, 759600, Note_on_c, 3, 36, 68
4, 759600, Note_on_c, 3, 48, 68
4, 759840, Control_c, 3, 64, 0
4, 759840, Note_off_c, 3, 48, 0
4, 759840, Note_off_c, 3, 36, 0
4, 759880, Control_c, 3, 64, 127
4, 760080, Note_on_c, 3, 47, 66
4, 760320, Note_off_c, 3, 47, 0
4, 760320, Note_on_c, 3, 43, 65
4, 760560, Control_c, 3, 64, 0
4, 760560, Note_off_c, 3, 43, 0
4, 760600, Control_c, 3, 64, 127
4, 760800, Note_on_c, 3, 47, 63
4, 761040, Note_off_c, 3, 47, 0
4, 761040, Note_on_c, 3, 43, 62
4, 761280, Control_c, 3, 64, 0
4, 761280, Note_off_c, 3, 43, 0
4, 761320, Control_c, 3, 64, 127
4, 761520, Note_on_c, 3, 48, 60
4, 761760, Note_off_c, 3, 48, 0
4, 761760, Note_on_c, 3, 43, 59
4, 762000, Control_c, 3, 64, 0
4, 762000, Note_off_c, 3, 43, 0
4, 762040, Control_c, 3, 64, 127
4, 762240, Note_on_c, 3, 49, 57
4, 762480, Note_off_c, 3, 49, 0
4, 762480, Note_on_c, 3, 43, 56
4, 762720, Control_c, 3, 64, 0
4, 762720, Note_off_c, 3, 43, 0
4, 762760, Control_c, 3, 64, 127
4, 762960, Note_on_c, 3, 50, 50
4, 763200, Note_off_c, 3, 50, 0
4, 763200, Note_on_c, 3, 43, 49
4, 763440, Control_c, 3, 64, 0
4, 763440, Note_off_c, 3, 43, 0
4, 763480, Control_c, 3, 64, 127
4, 763680, Note_on_c, 3, 52, 45
4, 763920, Note_off_c, 3, 52, 0
4, 763920, Note_on_c, 3, 43, 44
4, 764160, Control_c, 3, 64, 0
4, 764160, Note_off_c, 3, 43, 0
4, 764200, Control_c, 3, 64, 127
4, 764400, Note_on_c, 3, 50, 40
4, 764640, Note_off_c, 3, 50, 0
4, 764640, Note_on_c, 3, 43, 39
4, 764880, Control_c, 3, 64, 0
4, 764880, Note_off_c, 3, 43, 0
4, 765120, Note_on_c, 3, 50, 39
4, 765360, Note_on_c, 3, 55, 38
4, 765550, Note_off_c, 3, 50, 0
4, 765552, Note_off_c, 3, 55, 0
4, 767040, Note_on_c, 3, 71, 44
4, 767280, Note_off_c, 3, 71, 0
4, 767280, Note_on_c, 3, 69, 44
4, 767520, Note_off_c, 3, 69, 0
4, 767520, Note_on_c, 3, 67, 45
4, 767760, Note_off_c, 3, 67, 0
4, 767760, Note_on_c, 3, 69, 46
4, 768000, Note_off_c, 3, 69, 0
4, 768000, Note_on_c, 3, 66, 46
4, 768240, Note_off_c, 3, 66, 0
4, 768240, Note_on_c, 3, 67, 47
4, 768480, Note_off_c, 3, 67, 0
4, 768480, Note_on_c, 3, 71, 48
4, 769440, Note_off_c, 3, 71, 0
4, 769440, Note_on_c, 3, 72, 50
4, 769680, Note_off_c, 3, 72, 0
4, 769680, Note_on_c, 3, 71, 51
4, 769920, Note_off_c, 3, 71, 0
4, 769920, Note_on_c, 3, 69, 52
4, 770880, Note_off_c, 3, 69, 0
4, 770880, Note_on_c, 3, 71, 54
4, 771120, Note_off_c, 3, 71, 0
4, 771120, Note_on_c, 3, 69, 55
4, 771360, Note_off_c, 3, 69, 0
4, 771360, Note_on_c, 3, 67, 56
4, 772320, Note_off_c, 3, 67, 0
4, 772320, Note_on_c, 3, 69, 50
4, 772560, Note_off_c, 3, 69, 0
4, 772560, Note_on_c, 3, 67, 49
4, 772800, Note_off_c, 3, 67, 0
4, 772800, Note_on_c, 3, 66, 48
4, 773760, Note_off_c, 3, 66, 0
4, 773760, Note_on_c, 3, 67, 45
4, 774000, Note_off_c, 3, 67, 0
4, 774000, Note_on_c, 3, 65, 45
4, 774240, Note_off_c, 3, 65, 0
4, 774240, Note_on_c, 3, 64, 44
4, 774960, Note_off_c, 3, 64, 0
4, 774960, Note_on_c, 3, 62, 48
4, 775680, Note_off_c, 3, 62, 0
4, 775680, Note_on_c, 3, 60, 51
4, 776400, Note_off_c, 3, 60, 0
4, 776400, Note_on_c, 3, 62, 53
4, 776880, Note_off_c, 3, 62, 0
4, 776880, Note_on_c, 3, 62, 50
4, 777120, Note_off_c, 3, 62, 0
4, 777120, Note_on_c, 3, 64, 49
4, 777600, Note_off_c, 3, 64, 0
4, 777600, Note_on_c, 3, 72, 46
4, 777840, Note_off_c, 3, 72, 0
4, 777840, Note_on_c, 3, 71, 45
4, 778320, Note_off_c, 3, 71, 0
4, 778320, Note_on_c, 3, 72, 42
4, 778800, Note_off_c, 3, 72, 0
4, 778800, Note_on_c, 3, 71, 40
4, 778992, Note_off_c, 3, 71, 0
4, 779040, Note_on_c, 3, 71, 37
4, 779232, Note_off_c, 3, 71, 0
4, 779280, Note_on_c, 3, 71, 34
4, 779760, Note_off_c, 3, 71, 0
4, 781440, Control_c, 3, 64, 0
4, 781440, Control_c, 3, 64, 0
4, 781680, Note_on_c, 3, 46, 71
4, 781680, Note_on_c, 3, 43, 71
4, 781680, Note_on_c, 3, 51, 71
4, 781920, Note_off_c, 3, 51, 0
4, 781920, Note_off_c, 3, 43, 0
4, 781920, Note_off_c, 3, 46, 0
4, 782160, Note_on_c, 3, 46, 72
4, 782160, Note_on_c, 3, 43, 72
4, 782160, Note_on_c, 3, 51, 72
4, 782400, Note_off_c, 3, 51, 0
4, 782400, Note_off_c, 3, 43, 0
4, 782400, Note_off_c, 3, 46, 0
4, 782640, Note_on_c, 3, 43, 73
4, 782640, Note_on_c, 3, 46, 73
4, 782640, Note_on_c, 3, 51, 73
4, 782880, Note_off_c, 3, 51, 0
4, 782880, Note_off_c, 3, 46, 0
4, 782880, Note_off_c, 3, 43, 0
4, 783120, Note_on_c, 3, 43, 74
4, 783120, Note_on_c, 3, 46, 74
4, 783120, Note_on_c, 3, 51, 74
4, 783360, Note_off_c, 3, 51, 0
4, 783360, Note_off_c, 3, 46, 0
4, 783360, Note_off_c, 3, 43, 0
4, 783600, Note_on_c, 3, 44, 75
4, 783600, Note_on_c, 3, 46, 75
4, 783600, Note_on_c, 3, 50, 75
4, 783840, Note_off_c, 3, 50, 0
4, 783840, Note_off_c, 3, 46, 0
4, 783840, Note_off_c, 3, 44, 0
4, 784080, Note_on_c, 3, 50, 76
4, 784080, Note_on_c, 3, 46, 76
4, 784080, Note_on_c, 3, 44, 76
4, 784320, Note_off_c, 3, 44, 0
4, 784320, Note_off_c, 3, 46, 0
4, 784320, Note_off_c, 3, 50, 0
4, 784560, Note_on_c, 3, 50, 78
4, 784560, Note_on_c, 3, 46, 78
4, 784560, Note_on_c, 3, 44, 78
4, 784800, Note_off_c, 3, 44, 0
4, 784800, Note_off_c, 3, 46, 0
4, 784800, Note_off_c, 3, 50, 0
4, 785040, Note_on_c, 3, 50, 79
4, 785040, Note_on_c, 3, 46, 79
4, 785040, Note_on_c, 3, 44, 79
4, 785280, Note_off_c, 3, 44, 0
4, 785280, Note_off_c, 3, 46, 0
4, 785280, Note_off_c, 3, 50, 0
4, 785520, Note_on_c, 3, 50, 78
4, 785520, Note_on_c, 3, 46, 78
4, 785520, Note_on_c, 3, 44, 78
4, 785760, Note_off_c, 3, 44, 0
4, 785760, Note_off_c, 3, 46, 0
4, 785760, Note_off_c, 3, 50, 0
4, 786000, Note_on_c, 3, 50, 77
4, 786000, Note_on_c, 3, 46, 77
4, 786000, Note_on_c, 3, 44, 77
4, 786240, Note_off_c, 3, 44, 0
4, 786240, Note_off_c, 3, 46, 0
4, 786240, Note_off_c, 3, 50, 0
4, 786480, Note_on_c, 3, 50, 76
4, 786480, Note_on_c, 3, 46, 76
4, 786480, Note_on_c, 3, 44, 76
4, 786720, Note_off_c, 3, 44, 0
4, 786720, Note_off_c, 3, 46, 0
4, 786720, Note_off_c, 3, 50, 0
4, 786960, Note_on_c, 3, 50, 75
4, 786960, Note_on_c, 3, 46, 75
4, 786960, Note_on_c, 3, 44, 75
4, 787200, Note_off_c, 3, 44, 0
4, 787200, Note_off_c, 3, 46, 0
4, 787200, Note_off_c, 3, 50, 0
4, 787440, Note_on_c, 3, 50, 75
4, 787440, Note_on_c, 3, 46, 75
4, 787440, Note_on_c, 3, 44, 75
4, 787680, Note_off_c, 3, 44, 0
4, 787680, Note_off_c, 3, 46, 0
4, 787680, Note_off_c, 3, 50, 0
4, 787920, Note_on_c, 3, 50, 74
4, 787920, Note_on_c, 3, 46, 74
4, 787920, Note_on_c, 3, 44, 74
4, 788160, Note_off_c, 3, 44, 0
4, 788160, Note_off_c, 3, 46, 0
4, 788160, Note_off_c, 3, 50, 0
4, 788400, Note_on_c, 3, 50, 73
4, 788400, Note_on_c, 3, 46, 73
4, 788400, Note_on_c, 3, 44, 73
4, 788640, Note_off_c, 3, 44, 0
4, 788640, Note_off_c, 3, 46, 0
4, 788640, Note_off_c, 3, 50, 0
4, 788880, Note_on_c, 3, 50, 72
4, 788880, Note_on_c, 3, 46, 72
4, 788880, Note_on_c, 3, 44, 72
4, 789120, Note_off_c, 3, 44, 0
4, 789120, Note_off_c, 3, 46, 0
4, 789120, Note_off_c, 3, 50, 0
4, 794880, Control_c, 3, 64, 0
4, 805200, Note_on_c, 3, 57, 50
4, 805200, Note_on_c, 3, 53, 50
4, 805320, Note_off_c, 3, 53, 0
4, 805320, Note_off_c, 3, 57, 0
4, 805440, Note_on_c, 3, 58, 44
4, 805440, Note_on_c, 3, 53, 44
4, 805560, Note_off_c, 3, 53, 0
4, 805560, Note_off_c, 3, 58, 0
4, 805680, Control_c, 3, 64, 0
4, 816000, Note_on_c, 3, 53, 50
4, 816000, Note_on_c, 3, 57, 50
4, 816120, Note_off_c, 3, 57, 0
4, 816120, Note_off_c, 3, 53, 0
4, 816240, Note_on_c, 3, 53, 46
4, 816240, Note_on_c, 3, 58, 46
4, 816360, Note_off_c, 3, 58, 0
4, 816360, Note_off_c, 3, 53, 0
4, 816480, Control_c, 3, 64, 0
4, 816720, Note_on_c, 3, 62, 42
4, 816720, Note_on_c, 3, 58, 42
4, 816840, Note_off_c, 3, 58, 0
4, 816840, Note_off_c, 3, 62, 0
4, 816960, Note_on_c, 3, 58, 43
4, 816960, Note_on_c, 3, 53, 43
4, 817080, Note_off_c, 3, 53, 0
4, 817080, Note_off_c, 3, 58, 0
4, 817440, Note_on_c, 3, 62, 45
4, 817440, Note_on_c, 3, 58, 45
4, 817560, Note_off_c, 3, 58, 0
4, 817560, Note_off_c, 3, 62, 0
4, 817680, Note_on_c, 3, 58, 46
4, 817680, Note_on_c, 3, 53, 46
4, 817800, Note_off_c, 3, 53, 0
4, 817800, Note_off_c, 3, 58, 0
4, 817920, Note_on_c, 3, 56, 46
4, 818040, Note_off_c, 3, 56, 0
4, 818160, Note_on_c, 3, 56, 45
4, 818280, Note_off_c, 3, 56, 0
4, 818400, Note_on_c, 3, 55, 43
4, 818520, Note_off_c, 3, 55, 0
4, 818880, Note_on_c, 3, 62, 46
4, 818880, Note_on_c, 3, 59, 46
4, 819000, Note_off_c, 3, 59, 0
4, 819000, Note_off_c, 3, 62, 0
4, 819120, Note_on_c, 3, 59, 47
4, 819120, Note_on_c, 3, 55, 47
4, 819240, Note_off_c, 3, 55, 0
4, 819240, Note_off_c, 3, 59, 0
4, 819600, Note_on_c, 3, 62, 50
4, 819600, Note_on_c, 3, 59, 50
4, 819720, Note_off_c, 3, 59, 0
4, 819720, Note_off_c, 3, 62, 0
4, 819840, Note_on_c, 3, 59, 51
4, 819840, Note_on_c, 3, 55, 51
4, 819960, Note_off_c, 3, 55, 0
4, 819960, Note_off_c, 3, 59, 0
4, 820320, Note_on_c, 3, 59, 54
4, 820320, Note_on_c, 3, 62, 54
4, 820440, Note_off_c, 3, 62, 0
4, 820440, Note_off_c, 3, 59, 0
4, 820560, Note_on_c, 3, 59, 56
4, 820560, Note_on_c, 3, 55, 56
4, 820680, Note_off_c, 3, 55, 0
4, 820680, Note_off_c, 3, 59, 0
4, 821040, Note_on_c, 3, 63, 58
4, 821040, Note_on_c, 3, 60, 58
4, 821160, Note_off_c, 3, 60, 0
4, 821160, Note_off_c, 3, 63, 0
4, 821280, Note_on_c, 3, 55, 60
4, 821280, Note_on_c, 3, 60, 60
4, 821400, Note_off_c, 3, 60, 0
4, 821400, Note_off_c, 3, 55, 0
4, 821760, Note_on_c, 3, 65, 60
4, 821760, Note_on_c, 3, 62, 60
4, 821880, Note_off_c, 3, 62, 0
4, 821880, Note_off_c, 3, 65, 0
4, 822000, Note_on_c, 3, 62, 57
4, 822000, Note_on_c, 3, 59, 57
4, 822120, Note_off_c, 3, 59, 0
4, 822120, Note_off_c, 3, 62, 0
4, 822480, Note_on_c, 3, 63, 52
4, 822480, Note_on_c, 3, 60, 52
4, 822600, Note_off_c, 3, 60, 0
4, 822600, Note_off_c, 3, 63, 0
4, 822720, Note_on_c, 3, 55, 49
4, 822720, Note_on_c, 3, 60, 49
4, 822840, Note_off_c, 3, 60, 0
4, 822840, Note_off_c, 3, 55, 0
4, 823200, Note_on_c, 3, 63, 44
4, 823200, Note_on_c, 3, 58, 44
4, 823200, Note_on_c, 3, 55, 44
4, 823320, Note_off_c, 3, 55, 0
4, 823320, Note_off_c, 3, 58, 0
4, 823320, Note_off_c, 3, 63, 0
4, 823440, Note_on_c, 3, 63, 41
4, 823440, Note_on_c, 3, 56, 41
4, 823440, Note_on_c, 3, 60, 41
4, 823560, Note_off_c, 3, 60, 0
4, 823560, Note_off_c, 3, 56, 0
4, 823560, Note_off_c, 3, 63, 0
4, 823680, Note_on_c, 3, 61, 38
4, 823800, Note_off_c, 3, 61, 0
4, 823920, Note_on_c, 3, 60, 35
4, 824040, Note_off_c, 3, 60, 0
4, 824160, Note_on_c, 3, 58, 33
4, 824280, Note_off_c, 3, 58, 0
4, 837600, Note_on_c, 3, 55, 51
4, 837600, Note_on_c, 3, 58, 51
4, 837720, Note_off_c, 3, 58, 0
4, 837720, Note_off_c, 3, 55, 0
4, 837840, Note_on_c, 3, 51, 52
4, 837840, Note_on_c, 3, 55, 52
4, 837960, Note_off_c, 3, 55, 0
4, 837960, Note_off_c, 3, 51, 0
4, 838320, Note_on_c, 3, 58, 55
4, 838320, Note_on_c, 3, 63, 55
4, 838440, Note_off_c, 3, 63, 0
4, 838440, Note_off_c, 3, 58, 0
4, 838560, Note_on_c, 3, 58, 57
4, 838560, Note_on_c, 3, 55, 57
4, 838680, Note_off_c, 3, 55, 0
4, 838680, Note_off_c, 3, 58, 0
4, 839040, Note_on_c, 3, 62, 51
4, 839040, Note_on_c, 3, 58, 51
4, 839040, Note_on_c, 3, 56, 51
4, 839160, Note_off_c, 3, 56, 0
4, 839160, Note_off_c, 3, 58, 0
4, 839160, Note_off_c, 3, 62, 0
4, 839280, Note_on_c, 3, 63, 48
4, 839280, Note_on_c, 3, 58, 48
4, 839280, Note_on_c, 3, 55, 48
4, 839400, Note_off_c, 3, 55, 0
4, 839400, Note_off_c, 3, 58, 0
4, 839400, Note_off_c, 3, 63, 0
4, 839760, Note_on_c, 3, 55, 53
4, 839760, Note_on_c, 3, 58, 53
4, 839880, Note_off_c, 3, 58, 0
4, 839880, Note_off_c, 3, 55, 0
4, 840000, Note_on_c, 3, 55, 54
4, 840000, Note_on_c, 3, 51, 54
4, 840120, Note_off_c, 3, 51, 0
4, 840120, Note_off_c, 3, 55, 0
4, 840480, Note_on_c, 3, 58, 59
4, 840480, Note_on_c, 3, 63, 59
4, 840600, Note_off_c, 3, 63, 0
4, 840600, Note_off_c, 3, 58, 0
4, 840720, Note_on_c, 3, 56, 70
4, 840720, Note_on_c, 3, 60, 70
4, 840840, Note_off_c, 3, 60, 0
4, 840840, Note_off_c, 3, 56, 0
4, 840960, Note_on_c, 3, 63, 65
4, 840960, Note_on_c, 3, 67, 65
4, 841080, Note_off_c, 3, 67, 0
4, 841080, Note_off_c, 3, 63, 0
4, 841200, Note_on_c, 3, 65, 63
4, 841440, Note_off_c, 3, 65, 0
4, 841440, Note_on_c, 3, 67, 60
4, 841632, Note_off_c, 3, 67, 0
4, 851040, Control_c, 3, 64, 0
4, 851040, Control_c, 3, 64, 0
4, 851280, Note_on_c, 3, 51, 71
4, 851280, Note_on_c, 3, 43, 71
4, 851280, Note_on_c, 3, 46, 71
4, 851520, Note_off_c, 3, 46, 0
4, 851520, Note_off_c, 3, 43, 0
4, 851520, Note_off_c, 3, 51, 0
4, 851760, Note_on_c, 3, 51, 72
4, 851760, Note_on_c, 3, 43, 72
4, 851760, Note_on_c, 3, 46, 72
4, 852000, Note_off_c, 3, 46, 0
4, 852000, Note_off_c, 3, 43, 0
4, 852000, Note_off_c, 3, 51, 0
4, 852240, Note_on_c, 3, 51, 73
4, 852240, Note_on_c, 3, 46, 73
4, 852240, Note_on_c, 3, 43, 73
4, 852480, Note_off_c, 3, 43, 0
4, 852480, Note_off_c, 3, 46, 0
4, 852480, Note_off_c, 3, 51, 0
4, 852720, Note_on_c, 3, 51, 74
4, 852720, Note_on_c, 3, 46, 74
4, 852720, Note_on_c, 3, 43, 74
4, 852960, Note_off_c, 3, 43, 0
4, 852960, Note_off_c, 3, 46, 0
4, 852960, Note_off_c, 3, 51, 0
4, 853200, Note_on_c, 3, 50, 75
4, 853200, Note_on_c, 3, 46, 75
4, 853200, Note_on_c, 3, 44, 75
4, 853440, Note_off_c, 3, 44, 0
4, 853440, Note_off_c, 3, 46, 0
4, 853440, Note_off_c, 3, 50, 0
4, 853680, Note_on_c, 3, 44, 76
4, 853680, Note_on_c, 3, 46, 76
4, 853680, Note_on_c, 3, 50, 76
4, 853920, Note_off_c, 3, 50, 0
4, 853920, Note_off_c, 3, 46, 0
4, 853920, Note_off_c, 3, 44, 0
4, 854160, Note_on_c, 3, 44, 78
4, 854160, Note_on_c, 3, 46, 78
4, 854160, Note_on_c, 3, 50, 78
4, 854400, Note_off_c, 3, 50, 0
4, 854400, Note_off_c, 3, 46, 0
4, 854400, Note_off_c, 3, 44, 0
4, 854640, Note_on_c, 3, 44, 79
4, 854640, Note_on_c, 3, 46, 79
4, 854640, Note_on_c, 3, 50, 79
4, 854880, Note_off_c, 3, 50, 0
4, 854880, Note_off_c, 3, 46, 0
4, 854880, Note_off_c, 3, 44, 0
4, 855120, Note_on_c, 3, 44, 78
4, 855120, Note_on_c, 3, 46, 78
4, 855120, Note_on_c, 3, 50, 78
4, 855360, Note_off_c, 3, 50, 0
4, 855360, Note_off_c, 3, 46, 0
4, 855360, Note_off_c, 3, 44, 0
4, 855600, Note_on_c, 3, 44, 77
4, 855600, Note_on_c, 3, 46, 77
4, 855600, Note_on_c, 3, 50, 77
4, 855840, Note_off_c, 3, 50, 0
4, 855840, Note_off_c, 3, 46, 0
4, 855840, Note_off_c, 3, 44, 0
4, 856080, Note_on_c, 3, 44, 76
4, 856080, Note_on_c, 3, 46, 76
4, 856080, Note_on_c, 3, 50, 76
4, 856320, Note_off_c, 3, 50, 0
4, 856320, Note_off_c, 3, 46, 0
4, 856320, Note_off_c, 3, 44, 0
4, 856560, Note_on_c, 3, 44, 75
4, 856560, Note_on_c, 3, 46, 75
4, 856560, Note_on_c, 3, 50, 75
4, 856800, Note_off_c, 3, 50, 0
4, 856800, Note_off_c, 3, 46, 0
4, 856800, Note_off_c, 3, 44, 0
4, 857040, Note_on_c, 3, 44, 75
4, 857040, Note_on_c, 3, 46, 75
4, 857040, Note_on_c, 3, 50, 75
4, 857280, Note_off_c, 3, 50, 0
4, 857280, Note_off_c, 3, 46, 0
4, 857280, Note_off_c, 3, 44, 0
4, 857520, Note_on_c, 3, 44, 74
4, 857520, Note_on_c, 3, 46, 74
4, 857520, Note_on_c, 3, 50, 74
4, 857760, Note_off_c, 3, 50, 0
4, 857760, Note_off_c, 3, 46, 0
4, 857760, Note_off_c, 3, 44, 0
4, 858000, Note_on_c, 3, 44, 73
4, 858000, Note_on_c, 3, 46, 73
4, 858000, Note_on_c, 3, 50, 73
4, 858240, Note_off_c, 3, 50, 0
4, 858240, Note_off_c, 3, 46, 0
4, 858240, Note_off_c, 3, 44, 0
4, 858480, Note_on_c, 3, 44, 72
4, 858480, Note_on_c, 3, 46, 72
4, 858480, Note_on_c, 3, 50, 72
4, 858720, Note_off_c, 3, 50, 0
4, 858720, Note_off_c, 3, 46, 0
4, 858720, Note_off_c, 3, 44, 0
4, 858720, End_track
5, 0, Start_track
5, 0, Title_t, "Unnamed Track"
5, 0, Control_c, 4, 0, 0
5, 0, Control_c, 4, 32, 0
5, 0, Program_c, 4, 0
5, 0, Control_c, 4, 7, 120
5, 0, Pitch_bend_c, 4, 8192
5, 0, Control_c, 4, 1, 0
5, 0, Control_c, 4, 64, 0
5, 0, Control_c, 4, 93, 28
5, 0, Control_c, 4, 91, 100
5, 0, Control_c, 4, 10, 55
5, 480, Control_c, 4, 64, 0
5, 960, Control_c, 4, 64, 0
5, 960, Note_on_c, 4, 59, 44
5, 1440, Note_off_c, 4, 59, 0
5, 1440, Note_on_c, 4, 62, 45
5, 1920, Note_off_c, 4, 62, 0
5, 1920, Note_on_c, 4, 60, 46
5, 2400, Note_off_c, 4, 60, 0
5, 2400, Note_on_c, 4, 59, 47
5, 2880, Note_off_c, 4, 59, 0
5, 2880, Note_on_c, 4, 60, 48
5, 3360, Note_off_c, 4, 60, 0
5, 3360, Note_on_c, 4, 54, 49
5, 3840, Note_off_c, 4, 54, 0
5, 3840, Note_on_c, 4, 55, 51
5, 4320, Note_off_c, 4, 55, 0
5, 4320, Note_on_c, 4, 52, 52
5, 4800, Note_off_c, 4, 52, 0
5, 4800, Note_on_c, 4, 53, 55
5, 5280, Note_off_c, 4, 53, 0
5, 5280, Note_on_c, 4, 54, 49
5, 5700, Note_off_c, 4, 54, 0
5, 6720, Note_on_c, 4, 52, 53
5, 6960, Note_off_c, 4, 52, 0
5, 6960, Note_on_c, 4, 50, 54
5, 7200, Note_off_c, 4, 50, 0
5, 7200, Note_on_c, 4, 48, 54
5, 8160, Note_off_c, 4, 48, 0
5, 8160, Note_on_c, 4, 50, 57
5, 8640, Note_off_c, 4, 50, 0
5, 8640, Note_on_c, 4, 52, 58
5, 9600, Note_off_c, 4, 52, 0
5, 9600, Note_on_c, 4, 55, 60
5, 10080, Note_off_c, 4, 55, 0
5, 10080, Note_on_c, 4, 55, 62
5, 10440, Note_off_c, 4, 55, 0
5, 10440, Note_on_c, 4, 53, 63
5, 10560, Note_off_c, 4, 53, 0
5, 10560, Note_on_c, 4, 52, 67
5, 10920, Note_off_c, 4, 52, 0
5, 11040, Note_on_c, 4, 48, 62
5, 11280, Note_off_c, 4, 48, 0
5, 11280, Note_on_c, 4, 50, 59
5, 11460, Note_off_c, 4, 50, 0
5, 11520, Note_on_c, 4, 50, 59
5, 12000, Note_off_c, 4, 50, 0
5, 12000, Note_on_c, 4, 55, 47
5, 12427, Note_off_c, 4, 55, 0
5, 12480, Control_c, 4, 64, 0
5, 12720, Note_on_c, 4, 50, 45
5, 12960, Note_off_c, 4, 50, 0
5, 13200, Note_on_c, 4, 50, 46
5, 13440, Note_off_c, 4, 50, 0
5, 13680, Note_on_c, 4, 50, 47
5, 13920, Note_off_c, 4, 50, 0
5, 14160, Note_on_c, 4, 50, 48
5, 14352, Note_off_c, 4, 50, 0
5, 14640, Note_on_c, 4, 50, 49
5, 14880, Note_off_c, 4, 50, 0
5, 15120, Note_on_c, 4, 50, 50
5, 15360, Note_off_c, 4, 50, 0
5, 15600, Note_on_c, 4, 50, 51
5, 15792, Note_off_c, 4, 50, 0
5, 16080, Note_on_c, 4, 50, 53
5, 16320, Note_off_c, 4, 50, 0
5, 16560, Note_on_c, 4, 50, 51
5, 16752, Note_off_c, 4, 50, 0
5, 17040, Note_on_c, 4, 50, 48
5, 17232, Note_off_c, 4, 50, 0
5, 18240, Note_on_c, 4, 52, 50
5, 18480, Note_off_c, 4, 52, 0
5, 18480, Note_on_c, 4, 50, 51
5, 18720, Note_off_c, 4, 50, 0
5, 18720, Note_on_c, 4, 48, 52
5, 19680, Note_off_c, 4, 48, 0
5, 19680, Note_on_c, 4, 50, 57
5, 20160, Note_off_c, 4, 50, 0
5, 20160, Note_on_c, 4, 52, 59
5, 21120, Note_off_c, 4, 52, 0
5, 21120, Note_on_c, 4, 55, 64
5, 21600, Note_off_c, 4, 55, 0
5, 21600, Note_on_c, 4, 55, 67
5, 22080, Note_off_c, 4, 55, 0
5, 22080, Note_on_c, 4, 52, 71
5, 22560, Note_off_c, 4, 52, 0
5, 22560, Note_on_c, 4, 50, 65
5, 23040, Note_off_c, 4, 50, 0
5, 23040, Note_on_c, 4, 50, 58
5, 23520, Note_off_c, 4, 50, 0
5, 23520, Note_on_c, 4, 55, 44
5, 23947, Note_off_c, 4, 55, 0
5, 24000, Control_c, 4, 64, 0
5, 27360, Note_on_c, 4, 61, 52
5, 27840, Note_off_c, 4, 61, 0
5, 27840, Note_on_c, 4, 62, 50
5, 28200, Note_off_c, 4, 62, 0
5, 30240, Note_on_c, 4, 57, 42
5, 31200, Note_off_c, 4, 57, 0
5, 31200, Note_on_c, 4, 57, 46
5, 32160, Note_off_c, 4, 57, 0
5, 32160, Note_on_c, 4, 57, 49
5, 33120, Note_off_c, 4, 57, 0
5, 33120, Note_on_c, 4, 57, 52
5, 34020, Note_off_c, 4, 57, 0
5, 34080, Note_on_c, 4, 57, 54
5, 34560, Note_off_c, 4, 57, 0
5, 34560, Note_on_c, 4, 57, 64
5, 35040, Note_off_c, 4, 57, 0
5, 35040, Note_on_c, 4, 57, 59
5, 35520, Note_off_c, 4, 57, 0
5, 35520, Note_on_c, 4, 57, 62
5, 35760, Note_off_c, 4, 57, 0
5, 35760, Note_on_c, 4, 62, 64
5, 36000, Note_off_c, 4, 62, 0
5, 36000, Note_on_c, 4, 62, 66
5, 36480, Note_off_c, 4, 62, 0
5, 36480, Note_on_c, 4, 59, 69
5, 37200, Note_off_c, 4, 59, 0
5, 37200, Note_on_c, 4, 64, 75
5, 37680, Note_off_c, 4, 64, 0
5, 37680, Note_on_c, 4, 59, 78
5, 37920, Note_off_c, 4, 59, 0
5, 37920, Note_on_c, 4, 66, 78
5, 38400, Note_off_c, 4, 66, 0
5, 38400, Note_on_c, 4, 67, 57
5, 38400, Note_on_c, 4, 64, 57
5, 38880, Note_off_c, 4, 64, 0
5, 38880, Note_off_c, 4, 67, 0
5, 38880, Note_on_c, 4, 66, 46
5, 40800, Note_off_c, 4, 66, 0
5, 65280, Note_on_c, 4, 47, 43
5, 65640, Note_off_c, 4, 47, 0
5, 65640, Note_on_c, 4, 48, 45
5, 65760, Note_off_c, 4, 48, 0
5, 65760, Note_on_c, 4, 50, 46
5, 66240, Note_off_c, 4, 50, 0
5, 66240, Note_on_c, 4, 48, 51
5, 66720, Note_off_c, 4, 48, 0
5, 66720, Note_on_c, 4, 50, 46
5, 67200, Note_off_c, 4, 50, 0
5, 67200, Note_on_c, 4, 50, 34
5, 67440, Note_off_c, 4, 50, 0
5, 70560, Control_c, 4, 64, 0
5, 84960, Note_on_c, 4, 63, 49
5, 85200, Note_off_c, 4, 63, 0
5, 85200, Note_on_c, 4, 62, 45
5, 85392, Note_off_c, 4, 62, 0
5, 85440, Note_on_c, 4, 62, 41
5, 85536, Note_off_c, 4, 62, 0
5, 91680, Note_on_c, 4, 46, 44
5, 92160, Note_off_c, 4, 46, 0
5, 92160, Note_on_c, 4, 44, 46
5, 92640, Note_off_c, 4, 44, 0
5, 92640, Note_on_c, 4, 43, 48
5, 93120, Note_off_c, 4, 43, 0
5, 93120, Note_on_c, 4, 42, 50
5, 93600, Note_off_c, 4, 42, 0
5, 93600, Note_on_c, 4, 41, 52
5, 94080, Note_off_c, 4, 41, 0
5, 94080, Note_on_c, 4, 63, 55
5, 94236, Note_off_c, 4, 63, 0
5, 94560, Note_on_c, 4, 62, 49
5, 94716, Note_off_c, 4, 62, 0
5, 95520, Control_c, 4, 64, 0
5, 109920, Note_on_c, 4, 63, 49
5, 110160, Note_off_c, 4, 63, 0
5, 110160, Note_on_c, 4, 62, 45
5, 110352, Note_off_c, 4, 62, 0
5, 110400, Note_on_c, 4, 62, 41
5, 110496, Note_off_c, 4, 62, 0
5, 116640, Note_on_c, 4, 46, 44
5, 117120, Note_off_c, 4, 46, 0
5, 117120, Note_on_c, 4, 44, 46
5, 117600, Note_off_c, 4, 44, 0
5, 117600, Note_on_c, 4, 43, 48
5, 118080, Note_off_c, 4, 43, 0
5, 118080, Note_on_c, 4, 42, 50
5, 118560, Note_off_c, 4, 42, 0
5, 118560, Note_on_c, 4, 41, 52
5, 119040, Note_off_c, 4, 41, 0
5, 119040, Note_on_c, 4, 63, 55
5, 119196, Note_off_c, 4, 63, 0
5, 119520, Note_on_c, 4, 62, 49
5, 119676, Note_off_c, 4, 62, 0
5, 120480, Control_c, 4, 64, 0
5, 121440, Note_on_c, 4, 51, 45
5, 121632, Note_off_c, 4, 51, 0
5, 121680, Note_on_c, 4, 51, 46
5, 121872, Note_off_c, 4, 51, 0
5, 121920, Note_on_c, 4, 51, 46
5, 122112, Note_off_c, 4, 51, 0
5, 122160, Note_on_c, 4, 51, 47
5, 122352, Note_off_c, 4, 51, 0
5, 122400, Note_on_c, 4, 53, 47
5, 122592, Note_off_c, 4, 53, 0
5, 122640, Note_on_c, 4, 53, 48
5, 122832, Note_off_c, 4, 53, 0
5, 122880, Note_on_c, 4, 53, 48
5, 123072, Note_off_c, 4, 53, 0
5, 123120, Note_on_c, 4, 53, 49
5, 123312, Note_off_c, 4, 53, 0
5, 123360, Note_on_c, 4, 55, 51
5, 123600, Note_off_c, 4, 55, 0
5, 123600, Note_on_c, 4, 53, 54
5, 123840, Note_off_c, 4, 53, 0
5, 123840, Note_on_c, 4, 55, 57
5, 124080, Note_off_c, 4, 55, 0
5, 124080, Note_on_c, 4, 57, 59
5, 124320, Note_off_c, 4, 57, 0
5, 124320, Note_on_c, 4, 58, 58
5, 124560, Note_off_c, 4, 58, 0
5, 124560, Note_on_c, 4, 57, 56
5, 124800, Note_off_c, 4, 57, 0
5, 124800, Note_on_c, 4, 55, 53
5, 125040, Note_off_c, 4, 55, 0
5, 125040, Note_on_c, 4, 53, 50
5, 125232, Note_off_c, 4, 53, 0
5, 125280, Note_on_c, 4, 51, 49
5, 125472, Note_off_c, 4, 51, 0
5, 125520, Note_on_c, 4, 51, 49
5, 125712, Note_off_c, 4, 51, 0
5, 125760, Note_on_c, 4, 51, 48
5, 125952, Note_off_c, 4, 51, 0
5, 126000, Note_on_c, 4, 51, 48
5, 126192, Note_off_c, 4, 51, 0
5, 126240, Note_on_c, 4, 52, 48
5, 126432, Note_off_c, 4, 52, 0
5, 126480, Note_on_c, 4, 52, 49
5, 126672, Note_off_c, 4, 52, 0
5, 126720, Note_on_c, 4, 52, 50
5, 126912, Note_off_c, 4, 52, 0
5, 126960, Note_on_c, 4, 52, 51
5, 127152, Note_off_c, 4, 52, 0
5, 127200, Note_on_c, 4, 53, 51
5, 127392, Note_off_c, 4, 53, 0
5, 127440, Note_on_c, 4, 53, 49
5, 127632, Note_off_c, 4, 53, 0
5, 127680, Note_on_c, 4, 53, 46
5, 127872, Note_off_c, 4, 53, 0
5, 127920, Note_on_c, 4, 53, 43
5, 128112, Note_off_c, 4, 53, 0
5, 128160, Note_on_c, 4, 54, 44
5, 128352, Note_off_c, 4, 54, 0
5, 128400, Note_on_c, 4, 54, 45
5, 128592, Note_off_c, 4, 54, 0
5, 128640, Note_on_c, 4, 55, 46
5, 128832, Note_off_c, 4, 55, 0
5, 128880, Note_on_c, 4, 55, 47
5, 129072, Note_off_c, 4, 55, 0
5, 129120, Note_on_c, 4, 51, 48
5, 129312, Note_off_c, 4, 51, 0
5, 129360, Note_on_c, 4, 51, 48
5, 129552, Note_off_c, 4, 51, 0
5, 129600, Note_on_c, 4, 54, 49
5, 129792, Note_off_c, 4, 54, 0
5, 129840, Note_on_c, 4, 54, 50
5, 130032, Note_off_c, 4, 54, 0
5, 130080, Note_on_c, 4, 53, 51
5, 130272, Note_off_c, 4, 53, 0
5, 130320, Note_on_c, 4, 53, 52
5, 130512, Note_off_c, 4, 53, 0
5, 130560, Note_on_c, 4, 57, 53
5, 130752, Note_off_c, 4, 57, 0
5, 130800, Note_on_c, 4, 57, 54
5, 130992, Note_off_c, 4, 57, 0
5, 131040, Note_on_c, 4, 58, 56
5, 131232, Note_off_c, 4, 58, 0
5, 131280, Note_on_c, 4, 58, 59
5, 131472, Note_off_c, 4, 58, 0
5, 131520, Note_on_c, 4, 56, 62
5, 131712, Note_off_c, 4, 56, 0
5, 131760, Note_on_c, 4, 56, 64
5, 131952, Note_off_c, 4, 56, 0
5, 132000, Note_on_c, 4, 55, 67
5, 132192, Note_off_c, 4, 55, 0
5, 132240, Note_on_c, 4, 55, 69
5, 132432, Note_off_c, 4, 55, 0
5, 132480, Note_on_c, 4, 60, 72
5, 132672, Note_off_c, 4, 60, 0
5, 132720, Note_on_c, 4, 60, 75
5, 132912, Note_off_c, 4, 60, 0
5, 132960, Note_on_c, 4, 53, 76
5, 133152, Note_off_c, 4, 53, 0
5, 133200, Note_on_c, 4, 53, 72
5, 133392, Note_off_c, 4, 53, 0
5, 133440, Note_on_c, 4, 53, 69
5, 133632, Note_off_c, 4, 53, 0
5, 133680, Note_on_c, 4, 53, 66
5, 133872, Note_off_c, 4, 53, 0
5, 133920, Note_on_c, 4, 55, 62
5, 134112, Note_off_c, 4, 55, 0
5, 134160, Note_on_c, 4, 55, 59
5, 134352, Note_off_c, 4, 55, 0
5, 134400, Note_on_c, 4, 55, 55
5, 134880, Note_off_c, 4, 55, 0
5, 150360, Note_on_c, 4, 42, 78
5, 150480, Note_off_c, 4, 42, 0
5, 150600, Note_on_c, 4, 42, 81
5, 150720, Note_off_c, 4, 42, 0
5, 150840, Note_on_c, 4, 42, 84
5, 150960, Note_off_c, 4, 42, 0
5, 151080, Note_on_c, 4, 42, 87
5, 151200, Note_off_c, 4, 42, 0
5, 151320, Note_on_c, 4, 42, 89
5, 151440, Note_off_c, 4, 42, 0
5, 151560, Note_on_c, 4, 42, 86
5, 151680, Note_off_c, 4, 42, 0
5, 151800, Note_on_c, 4, 42, 83
5, 151920, Note_off_c, 4, 42, 0
5, 152040, Note_on_c, 4, 42, 80
5, 152160, Note_off_c, 4, 42, 0
5, 152280, Note_on_c, 4, 42, 78
5, 152400, Note_off_c, 4, 42, 0
5, 152520, Note_on_c, 4, 42, 82
5, 152640, Note_off_c, 4, 42, 0
5, 152760, Note_on_c, 4, 42, 86
5, 152880, Note_off_c, 4, 42, 0
5, 153000, Note_on_c, 4, 42, 91
5, 153120, Note_off_c, 4, 42, 0
5, 153240, Note_on_c, 4, 42, 93
5, 153360, Note_off_c, 4, 42, 0
5, 153480, Note_on_c, 4, 42, 89
5, 153600, Note_off_c, 4, 42, 0
5, 153720, Note_on_c, 4, 42, 85
5, 153840, Note_off_c, 4, 42, 0
5, 153960, Note_on_c, 4, 42, 82
5, 154080, Note_off_c, 4, 42, 0
5, 158400, Note_on_c, 4, 48, 87
5, 158760, Note_off_c, 4, 48, 0
5, 158880, Note_on_c, 4, 48, 89
5, 159360, Note_off_c, 4, 48, 0
5, 159360, Note_on_c, 4, 50, 92
5, 159720, Note_off_c, 4, 50, 0
5, 159840, Note_on_c, 4, 50, 95
5, 160320, Note_off_c, 4, 50, 0
5, 160320, Note_on_c, 4, 52, 97
5, 160800, Note_off_c, 4, 52, 0
5, 160800, Note_on_c, 4, 54, 100
5, 161280, Note_off_c, 4, 54, 0
5, 161280, Note_on_c, 4, 55, 102
5, 161640, Note_off_c, 4, 55, 0
5, 161760, Note_on_c, 4, 48, 107
5, 162240, Note_off_c, 4, 48, 0
5, 162240, Note_on_c, 4, 49, 102
5, 162720, Note_off_c, 4, 49, 0
5, 162720, Note_on_c, 4, 48, 98
5, 163200, Note_off_c, 4, 48, 0
5, 163200, Note_on_c, 4, 44, 93
5, 163680, Note_off_c, 4, 44, 0
5, 163680, Note_on_c, 4, 48, 89
5, 164160, Note_off_c, 4, 48, 0
5, 164160, Note_on_c, 4, 51, 84
5, 164640, Note_off_c, 4, 51, 0
5, 164640, Note_on_c, 4, 50, 80
5, 165120, Note_off_c, 4, 50, 0
5, 165120, Note_on_c, 4, 43, 75
5, 165480, Note_off_c, 4, 43, 0
5, 165600, Note_on_c, 4, 51, 71
5, 166080, Note_off_c, 4, 51, 0
5, 166080, Note_on_c, 4, 51, 67
5, 166560, Note_off_c, 4, 51, 0
5, 166560, Note_on_c, 4, 51, 64
5, 167040, Note_off_c, 4, 51, 0
5, 167040, Note_on_c, 4, 51, 61
5, 167400, Note_off_c, 4, 51, 0
5, 167520, Note_on_c, 4, 51, 59
5, 168000, Note_off_c, 4, 51, 0
5, 168000, Note_on_c, 4, 51, 56
5, 168480, Note_off_c, 4, 51, 0
5, 168480, Note_on_c, 4, 50, 53
5, 168960, Note_off_c, 4, 50, 0
5, 168960, Note_on_c, 4, 43, 51
5, 169320, Note_off_c, 4, 43, 0
5, 169440, Control_c, 4, 64, 127
5, 169440, Note_on_c, 4, 43, 48
5, 169600, Note_off_c, 4, 43, 0
5, 169600, Note_on_c, 4, 55, 48
5, 169760, Note_off_c, 4, 55, 0
5, 169760, Note_on_c, 4, 59, 49
5, 169920, Note_off_c, 4, 59, 0
5, 169920, Note_on_c, 4, 62, 49
5, 170080, Note_off_c, 4, 62, 0
5, 170080, Note_on_c, 4, 67, 49
5, 170240, Note_off_c, 4, 67, 0
5, 170240, Note_on_c, 4, 55, 50
5, 170400, Control_c, 4, 64, 0
5, 171360, Note_off_c, 4, 55, 0
5, 171360, Note_on_c, 4, 55, 53
5, 171360, Note_on_c, 4, 50, 53
5, 171360, Note_on_c, 4, 47, 53
5, 171840, Note_off_c, 4, 47, 0
5, 171840, Note_off_c, 4, 50, 0
5, 171840, Note_off_c, 4, 55, 0
5, 171840, Note_on_c, 4, 72, 54
5, 171840, Note_on_c, 4, 75, 54
5, 172320, Note_off_c, 4, 75, 0
5, 172320, Note_off_c, 4, 72, 0
5, 172320, Note_on_c, 4, 71, 47
5, 172320, Note_on_c, 4, 74, 47
5, 172476, Note_off_c, 4, 74, 0
5, 172476, Note_off_c, 4, 71, 0
5, 173280, Note_on_c, 4, 58, 40
5, 174240, Note_off_c, 4, 58, 0
5, 174240, Note_on_c, 4, 55, 45
5, 174720, Note_off_c, 4, 55, 0
5, 174720, Note_on_c, 4, 55, 47
5, 174720, Note_on_c, 4, 60, 47
5, 175080, Note_off_c, 4, 60, 0
5, 175080, Note_off_c, 4, 55, 0
5, 175200, Note_on_c, 4, 58, 50
5, 175680, Note_off_c, 4, 58, 0
5, 175680, Note_on_c, 4, 75, 49
5, 175680, Note_on_c, 4, 72, 49
5, 176160, Note_off_c, 4, 72, 0
5, 176160, Note_off_c, 4, 75, 0
5, 176160, Note_on_c, 4, 74, 43
5, 176160, Note_on_c, 4, 70, 43
5, 176316, Note_off_c, 4, 70, 0
5, 176316, Note_off_c, 4, 74, 0
5, 179280, Note_on_c, 4, 50, 52
5, 179436, Note_off_c, 4, 50, 0
5, 179520, Note_on_c, 4, 50, 48
5, 179676, Note_off_c, 4, 50, 0
5, 179760, Note_on_c, 4, 50, 44
5, 179916, Note_off_c, 4, 50, 0
5, 180000, Note_on_c, 4, 55, 39
5, 180156, Note_off_c, 4, 55, 0
5, 181920, Note_on_c, 4, 51, 44
5, 183840, Note_off_c, 4, 51, 0
5, 183840, Note_on_c, 4, 51, 50
5, 184032, Note_off_c, 4, 51, 0
5, 184080, Note_on_c, 4, 51, 53
5, 184320, Note_off_c, 4, 51, 0
5, 184320, Note_on_c, 4, 50, 46
5, 184512, Note_off_c, 4, 50, 0
5, 187680, Note_on_c, 4, 55, 52
5, 188160, Note_off_c, 4, 55, 0
5, 188160, Note_on_c, 4, 56, 51
5, 188400, Note_off_c, 4, 56, 0
5, 188400, Note_on_c, 4, 60, 52
5, 188591, Note_off_c, 4, 60, 0
5, 188640, Note_on_c, 4, 56, 53
5, 188640, Note_on_c, 4, 60, 53
5, 188880, Note_off_c, 4, 60, 0
5, 188880, Note_off_c, 4, 56, 0
5, 188880, Note_on_c, 4, 55, 54
5, 188880, Note_on_c, 4, 58, 54
5, 189120, Note_off_c, 4, 58, 0
5, 189120, Note_off_c, 4, 55, 0
5, 189120, Note_on_c, 4, 53, 55
5, 189120, Note_on_c, 4, 56, 55
5, 189312, Note_off_c, 4, 56, 0
5, 189312, Note_off_c, 4, 53, 0
5, 189360, Note_on_c, 4, 53, 55
5, 189360, Note_on_c, 4, 56, 55
5, 189600, Note_off_c, 4, 56, 0
5, 189600, Note_off_c, 4, 53, 0
5, 189600, Note_on_c, 4, 55, 56
5, 189792, Note_off_c, 4, 55, 0
5, 189840, Note_on_c, 4, 55, 57
5, 190080, Note_off_c, 4, 55, 0
5, 190080, Note_on_c, 4, 53, 50
5, 190080, Note_on_c, 4, 58, 50
5, 190272, Note_off_c, 4, 58, 0
5, 190272, Note_off_c, 4, 53, 0
5, 190320, Note_on_c, 4, 55, 49
5, 190440, Note_off_c, 4, 55, 0
5, 190440, Note_on_c, 4, 56, 51
5, 190560, Note_off_c, 4, 56, 0
5, 190560, Note_on_c, 4, 58, 53
5, 190800, Note_off_c, 4, 58, 0
5, 190800, Note_on_c, 4, 63, 57
5, 191040, Note_off_c, 4, 63, 0
5, 191040, Note_on_c, 4, 62, 55
5, 191280, Note_off_c, 4, 62, 0
5, 191280, Note_on_c, 4, 60, 54
5, 191520, Note_off_c, 4, 60, 0
5, 191760, Note_on_c, 4, 65, 61
5, 191952, Note_off_c, 4, 65, 0
5, 192000, Note_on_c, 4, 65, 68
5, 192240, Note_off_c, 4, 65, 0
5, 193200, Note_on_c, 4, 46, 48
5, 193356, Note_off_c, 4, 46, 0
5, 193440, Note_on_c, 4, 46, 49
5, 194640, Note_off_c, 4, 46, 0
5, 194640, Note_on_c, 4, 46, 52
5, 194796, Note_off_c, 4, 46, 0
5, 194880, Note_on_c, 4, 46, 52
5, 196080, Note_off_c, 4, 46, 0
5, 196080, Note_on_c, 4, 46, 57
5, 196236, Note_off_c, 4, 46, 0
5, 196320, Note_on_c, 4, 46, 60
5, 196512, Note_off_c, 4, 46, 0
5, 196560, Note_on_c, 4, 46, 63
5, 196752, Note_off_c, 4, 46, 0
5, 196800, Note_on_c, 4, 46, 66
5, 196992, Note_off_c, 4, 46, 0
5, 197040, Note_on_c, 4, 46, 69
5, 197232, Note_off_c, 4, 46, 0
5, 197280, Note_on_c, 4, 46, 64
5, 197472, Note_off_c, 4, 46, 0
5, 197520, Note_on_c, 4, 46, 60
5, 197712, Note_off_c, 4, 46, 0
5, 197760, Note_on_c, 4, 46, 56
5, 197952, Note_off_c, 4, 46, 0
5, 198000, Note_on_c, 4, 46, 52
5, 198240, Note_off_c, 4, 46, 0
5, 198240, Note_on_c, 4, 48, 48
5, 198432, Note_off_c, 4, 48, 0
5, 198480, Control_c, 4, 64, 127
5, 200580, Control_c, 4, 64, 0
5, 200640, Control_c, 4, 7, 120
5, 200640, Control_c, 4, 64, 127
5, 202560, Control_c, 4, 64, 0
5, 202800, Note_on_c, 4, 62, 41
5, 202800, Note_on_c, 4, 56, 41
5, 203760, Note_off_c, 4, 56, 0
5, 203760, Note_off_c, 4, 62, 0
5, 206400, Note_on_c, 4, 55, 45
5, 206640, Note_off_c, 4, 55, 0
5, 206640, Note_on_c, 4, 55, 45
5, 206880, Note_off_c, 4, 55, 0
5, 206880, Note_on_c, 4, 55, 46
5, 207120, Note_off_c, 4, 55, 0
5, 207120, Note_on_c, 4, 56, 46
5, 207360, Note_off_c, 4, 56, 0
5, 207360, Note_on_c, 4, 56, 47
5, 207600, Note_off_c, 4, 56, 0
5, 207600, Note_on_c, 4, 56, 47
5, 207840, Note_off_c, 4, 56, 0
5, 207840, Note_on_c, 4, 58, 48
5, 208080, Note_off_c, 4, 58, 0
5, 208080, Note_on_c, 4, 58, 48
5, 208320, Note_off_c, 4, 58, 0
5, 208320, Note_on_c, 4, 63, 49
5, 208440, Note_off_c, 4, 63, 0
5, 208440, Note_on_c, 4, 56, 51
5, 208560, Note_off_c, 4, 56, 0
5, 208560, Note_on_c, 4, 58, 54
5, 208800, Note_off_c, 4, 58, 0
5, 208800, Note_on_c, 4, 58, 46
5, 209040, Note_off_c, 4, 58, 0
5, 209040, Note_on_c, 4, 63, 48
5, 209160, Note_off_c, 4, 63, 0
5, 209160, Note_on_c, 4, 65, 49
5, 209280, Note_off_c, 4, 65, 0
5, 213480, Note_on_c, 4, 77, 68
5, 213600, Note_off_c, 4, 77, 0
5, 213600, Note_on_c, 4, 77, 69
5, 213960, Note_off_c, 4, 77, 0
5, 213960, Note_on_c, 4, 75, 65
5, 214080, Note_off_c, 4, 75, 0
5, 214080, Note_on_c, 4, 77, 63
5, 214200, Note_off_c, 4, 77, 0
5, 214200, Note_on_c, 4, 80, 62
5, 214320, Note_off_c, 4, 80, 0
5, 214320, Note_on_c, 4, 80, 60
5, 214560, Note_off_c, 4, 80, 0
5, 214560, Note_on_c, 4, 79, 53
5, 214680, Note_off_c, 4, 79, 0
5, 214920, Note_on_c, 4, 63, 63
5, 214920, Note_on_c, 4, 67, 63
5, 215016, Note_off_c, 4, 67, 0
5, 215016, Note_off_c, 4, 63, 0
5, 215040, Note_on_c, 4, 65, 67
5, 215400, Note_off_c, 4, 65, 0
5, 215400, Note_on_c, 4, 63, 62
5, 215520, Note_off_c, 4, 63, 0
5, 215520, Note_on_c, 4, 65, 60
5, 215640, Note_off_c, 4, 65, 0
5, 215640, Note_on_c, 4, 68, 59
5, 215760, Note_off_c, 4, 68, 0
5, 215760, Note_on_c, 4, 68, 57
5, 216000, Note_off_c, 4, 68, 0
5, 216000, Note_on_c, 4, 67, 52
5, 216060, Note_off_c, 4, 67, 0
5, 216540, Note_on_c, 4, 34, 61
5, 216600, Note_off_c, 4, 34, 0
5, 216660, Note_on_c, 4, 34, 60
5, 216720, Note_off_c, 4, 34, 0
5, 216780, Note_on_c, 4, 34, 58
5, 216840, Note_off_c, 4, 34, 0
5, 216900, Note_on_c, 4, 34, 57
5, 216960, Note_off_c, 4, 34, 0
5, 217020, Note_on_c, 4, 34, 55
5, 217080, Note_off_c, 4, 34, 0
5, 217140, Note_on_c, 4, 34, 54
5, 217200, Note_off_c, 4, 34, 0
5, 217260, Note_on_c, 4, 34, 52
5, 217320, Note_off_c, 4, 34, 0
5, 217500, Note_on_c, 4, 34, 49
5, 217560, Note_off_c, 4, 34, 0
5, 217740, Note_on_c, 4, 34, 46
5, 217800, Note_off_c, 4, 34, 0
5, 218820, Note_on_c, 4, 62, 39
5, 218868, Note_off_c, 4, 62, 0
5, 218880, Note_on_c, 4, 65, 41
5, 219120, Note_off_c, 4, 65, 0
5, 219120, Note_on_c, 4, 62, 37
5, 219312, Note_off_c, 4, 62, 0
5, 219540, Note_on_c, 4, 51, 35
5, 219588, Note_off_c, 4, 51, 0
5, 219600, Note_on_c, 4, 55, 37
5, 219840, Note_off_c, 4, 55, 0
5, 219840, Note_on_c, 4, 51, 33
5, 220032, Note_off_c, 4, 51, 0
5, 220260, Note_on_c, 4, 34, 31
5, 220308, Note_off_c, 4, 34, 0
5, 220320, Note_on_c, 4, 38, 34
5, 220560, Note_off_c, 4, 38, 0
5, 220560, Note_on_c, 4, 34, 29
5, 220800, Note_off_c, 4, 34, 0
5, 223680, Control_c, 4, 64, 0
5, 239040, Control_c, 4, 64, 0
5, 254400, Control_c, 4, 64, 0
5, 261120, Note_on_c, 4, 43, 84
5, 261600, Note_off_c, 4, 43, 0
5, 262080, Note_on_c, 4, 43, 51
5, 262560, Note_off_c, 4, 43, 0
5, 263040, Note_on_c, 4, 43, 46
5, 263520, Note_off_c, 4, 43, 0
5, 264000, Note_on_c, 4, 43, 51
5, 264480, Note_off_c, 4, 43, 0
5, 264960, Note_on_c, 4, 43, 56
5, 265440, Note_off_c, 4, 43, 0
5, 265920, Note_on_c, 4, 43, 61
5, 266400, Note_off_c, 4, 43, 0
5, 266880, Note_on_c, 4, 43, 66
5, 267360, Note_off_c, 4, 43, 0
5, 267840, Note_on_c, 4, 43, 71
5, 268320, Note_off_c, 4, 43, 0
5, 268800, Note_on_c, 4, 43, 76
5, 269280, Note_off_c, 4, 43, 0
5, 270720, Note_on_c, 4, 62, 59
5, 271200, Note_off_c, 4, 62, 0
5, 271680, Note_on_c, 4, 62, 66
5, 272160, Note_off_c, 4, 62, 0
5, 272640, Note_on_c, 4, 62, 73
5, 273120, Note_off_c, 4, 62, 0
5, 273600, Note_on_c, 4, 62, 80
5, 274080, Note_off_c, 4, 62, 0
5, 274560, Note_on_c, 4, 62, 87
5, 275040, Note_off_c, 4, 62, 0
5, 275520, Note_on_c, 4, 62, 94
5, 276000, Note_off_c, 4, 62, 0
5, 276480, Note_on_c, 4, 62, 100
5, 276960, Note_off_c, 4, 62, 0
5, 302880, Note_on_c, 4, 54, 49
5, 303120, Note_off_c, 4, 54, 0
5, 303840, Note_on_c, 4, 54, 49
5, 304080, Note_off_c, 4, 54, 0
5, 304800, Note_on_c, 4, 54, 50
5, 305040, Note_off_c, 4, 54, 0
5, 305760, Note_on_c, 4, 54, 50
5, 306000, Note_off_c, 4, 54, 0
5, 440640, Control_c, 4, 64, 0
5, 456000, Control_c, 4, 64, 0
5, 471360, Control_c, 4, 64, 0
5, 478080, Note_on_c, 4, 43, 84
5, 478560, Note_off_c, 4, 43, 0
5, 479040, Note_on_c, 4, 43, 51
5, 479520, Note_off_c, 4, 43, 0
5, 480000, Note_on_c, 4, 43, 46
5, 480480, Note_off_c, 4, 43, 0
5, 480960, Note_on_c, 4, 43, 51
5, 481440, Note_off_c, 4, 43, 0
5, 481920, Note_on_c, 4, 43, 56
5, 482400, Note_off_c, 4, 43, 0
5, 482880, Note_on_c, 4, 43, 61
5, 483360, Note_off_c, 4, 43, 0
5, 483840, Note_on_c, 4, 43, 66
5, 484320, Note_off_c, 4, 43, 0
5, 484800, Note_on_c, 4, 43, 71
5, 485280, Note_off_c, 4, 43, 0
5, 485760, Note_on_c, 4, 43, 76
5, 486240, Note_off_c, 4, 43, 0
5, 487680, Note_on_c, 4, 62, 59
5, 488160, Note_off_c, 4, 62, 0
5, 488640, Note_on_c, 4, 62, 66
5, 489120, Note_off_c, 4, 62, 0
5, 489600, Note_on_c, 4, 62, 73
5, 490080, Note_off_c, 4, 62, 0
5, 490560, Note_on_c, 4, 62, 80
5, 491040, Note_off_c, 4, 62, 0
5, 491520, Note_on_c, 4, 62, 87
5, 492000, Note_off_c, 4, 62, 0
5, 492480, Note_on_c, 4, 62, 94
5, 492960, Note_off_c, 4, 62, 0
5, 493440, Note_on_c, 4, 62, 100
5, 493920, Note_off_c, 4, 62, 0
5, 519840, Note_on_c, 4, 54, 49
5, 520080, Note_off_c, 4, 54, 0
5, 520800, Note_on_c, 4, 54, 49
5, 521040, Note_off_c, 4, 54, 0
5, 521760, Note_on_c, 4, 54, 50
5, 522000, Note_off_c, 4, 54, 0
5, 522720, Note_on_c, 4, 54, 50
5, 522960, Note_off_c, 4, 54, 0
5, 538560, Control_c, 4, 64, 0
5, 538560, Control_c, 4, 64, 0
5, 547200, Control_c, 4, 64, 0
5, 553920, Control_c, 4, 64, 0
5, 553920, Control_c, 4, 64, 0
5, 563520, Control_c, 4, 64, 0
5, 667200, Control_c, 4, 64, 0
5, 673440, Control_c, 4, 64, 0
5, 673440, Note_on_c, 4, 55, 42
5, 674400, Note_off_c, 4, 55, 0
5, 674400, Note_on_c, 4, 57, 44
5, 674640, Note_off_c, 4, 57, 0
5, 674640, Note_on_c, 4, 55, 44
5, 674880, Note_off_c, 4, 55, 0
5, 674880, Note_on_c, 4, 54, 45
5, 675840, Note_off_c, 4, 54, 0
5, 675840, Note_on_c, 4, 52, 46
5, 676080, Note_off_c, 4, 52, 0
5, 676080, Note_on_c, 4, 50, 47
5, 676320, Note_off_c, 4, 50, 0
5, 676320, Note_on_c, 4, 52, 48
5, 677280, Note_off_c, 4, 52, 0
5, 677280, Note_on_c, 4, 54, 45
5, 677520, Note_off_c, 4, 54, 0
5, 677520, Note_on_c, 4, 52, 45
5, 677760, Note_off_c, 4, 52, 0
5, 677760, Note_on_c, 4, 51, 44
5, 678720, Note_off_c, 4, 51, 0
5, 678720, Note_on_c, 4, 52, 42
5, 678960, Note_off_c, 4, 52, 0
5, 678960, Note_on_c, 4, 50, 42
5, 679200, Note_off_c, 4, 50, 0
5, 679200, Note_on_c, 4, 48, 44
5, 679920, Note_off_c, 4, 48, 0
5, 679920, Note_on_c, 4, 47, 48
5, 680640, Note_off_c, 4, 47, 0
5, 680640, Note_on_c, 4, 45, 52
5, 681360, Note_off_c, 4, 45, 0
5, 681360, Note_on_c, 4, 47, 53
5, 681840, Note_off_c, 4, 47, 0
5, 681840, Note_on_c, 4, 43, 51
5, 682080, Note_off_c, 4, 43, 0
5, 682080, Note_on_c, 4, 48, 50
5, 683520, Note_off_c, 4, 48, 0
5, 683520, Note_on_c, 4, 50, 45
5, 684960, Control_c, 4, 64, 0
5, 684960, Note_off_c, 4, 50, 0
5, 684960, Note_on_c, 4, 55, 40
5, 685920, Note_off_c, 4, 55, 0
5, 685920, Note_on_c, 4, 57, 43
5, 686160, Note_off_c, 4, 57, 0
5, 686160, Note_on_c, 4, 55, 44
5, 686400, Note_off_c, 4, 55, 0
5, 686400, Note_on_c, 4, 54, 44
5, 687360, Note_off_c, 4, 54, 0
5, 687360, Note_on_c, 4, 55, 47
5, 687600, Note_off_c, 4, 55, 0
5, 687600, Note_on_c, 4, 54, 48
5, 687840, Note_off_c, 4, 54, 0
5, 687840, Note_on_c, 4, 52, 48
5, 688800, Note_off_c, 4, 52, 0
5, 688800, Note_on_c, 4, 54, 51
5, 689040, Note_off_c, 4, 54, 0
5, 689040, Note_on_c, 4, 52, 51
5, 689280, Note_off_c, 4, 52, 0
5, 689280, Note_on_c, 4, 51, 52
5, 690000, Note_off_c, 4, 51, 0
5, 690000, Note_on_c, 4, 50, 54
5, 690720, Note_off_c, 4, 50, 0
5, 690720, Note_on_c, 4, 52, 56
5, 691440, Note_off_c, 4, 52, 0
5, 691440, Note_on_c, 4, 54, 54
5, 691920, Note_off_c, 4, 54, 0
5, 691920, Note_on_c, 4, 57, 53
5, 692160, Note_off_c, 4, 57, 0
5, 692160, Note_on_c, 4, 55, 52
5, 692640, Note_off_c, 4, 55, 0
5, 692640, Note_on_c, 4, 56, 50
5, 692880, Note_off_c, 4, 56, 0
5, 692880, Note_on_c, 4, 57, 50
5, 693360, Note_off_c, 4, 57, 0
5, 693360, Note_on_c, 4, 59, 48
5, 693600, Note_off_c, 4, 59, 0
5, 693600, Note_on_c, 4, 60, 47
5, 694560, Note_off_c, 4, 60, 0
5, 694560, Note_on_c, 4, 60, 47
5, 694800, Note_off_c, 4, 60, 0
5, 694800, Note_on_c, 4, 60, 47
5, 695040, Note_off_c, 4, 60, 0
5, 695040, Note_on_c, 4, 59, 43
5, 695280, Note_off_c, 4, 59, 0
5, 695280, Note_on_c, 4, 59, 42
5, 695472, Note_off_c, 4, 59, 0
5, 695520, Note_on_c, 4, 59, 41
5, 695712, Note_off_c, 4, 59, 0
5, 695760, Note_on_c, 4, 59, 40
5, 696480, Control_c, 4, 64, 0
5, 696480, Note_off_c, 4, 59, 0
5, 696480, Note_on_c, 4, 55, 42
5, 697440, Note_off_c, 4, 55, 0
5, 697440, Note_on_c, 4, 57, 44
5, 697680, Note_off_c, 4, 57, 0
5, 697680, Note_on_c, 4, 55, 44
5, 697920, Note_off_c, 4, 55, 0
5, 697920, Note_on_c, 4, 54, 45
5, 698880, Note_off_c, 4, 54, 0
5, 698880, Note_on_c, 4, 52, 46
5, 699120, Note_off_c, 4, 52, 0
5, 699120, Note_on_c, 4, 50, 47
5, 699360, Note_off_c, 4, 50, 0
5, 699360, Note_on_c, 4, 52, 48
5, 700320, Note_off_c, 4, 52, 0
5, 700320, Note_on_c, 4, 54, 45
5, 700560, Note_off_c, 4, 54, 0
5, 700560, Note_on_c, 4, 52, 45
5, 700800, Note_off_c, 4, 52, 0
5, 700800, Note_on_c, 4, 51, 44
5, 701760, Note_off_c, 4, 51, 0
5, 701760, Note_on_c, 4, 52, 42
5, 702000, Note_off_c, 4, 52, 0
5, 702000, Note_on_c, 4, 50, 42
5, 702240, Note_off_c, 4, 50, 0
5, 702240, Note_on_c, 4, 48, 44
5, 702960, Note_off_c, 4, 48, 0
5, 702960, Note_on_c, 4, 47, 48
5, 703680, Note_off_c, 4, 47, 0
5, 703680, Note_on_c, 4, 45, 52
5, 704400, Note_off_c, 4, 45, 0
5, 704400, Note_on_c, 4, 47, 53
5, 704880, Note_off_c, 4, 47, 0
5, 704880, Note_on_c, 4, 43, 51
5, 705120, Note_off_c, 4, 43, 0
5, 705120, Note_on_c, 4, 48, 50
5, 706560, Note_off_c, 4, 48, 0
5, 706560, Note_on_c, 4, 50, 45
5, 708000, Control_c, 4, 64, 0
5, 708000, Note_off_c, 4, 50, 0
5, 708000, Note_on_c, 4, 55, 40
5, 708960, Note_off_c, 4, 55, 0
5, 708960, Note_on_c, 4, 57, 43
5, 709200, Note_off_c, 4, 57, 0
5, 709200, Note_on_c, 4, 55, 44
5, 709440, Note_off_c, 4, 55, 0
5, 709440, Note_on_c, 4, 54, 44
5, 710400, Note_off_c, 4, 54, 0
5, 710400, Note_on_c, 4, 55, 47
5, 710640, Note_off_c, 4, 55, 0
5, 710640, Note_on_c, 4, 54, 48
5, 710880, Note_off_c, 4, 54, 0
5, 710880, Note_on_c, 4, 52, 48
5, 711840, Note_off_c, 4, 52, 0
5, 711840, Note_on_c, 4, 54, 51
5, 712080, Note_off_c, 4, 54, 0
5, 712080, Note_on_c, 4, 52, 51
5, 712320, Note_off_c, 4, 52, 0
5, 712320, Note_on_c, 4, 51, 52
5, 713040, Note_off_c, 4, 51, 0
5, 713040, Note_on_c, 4, 50, 54
5, 713760, Note_off_c, 4, 50, 0
5, 713760, Note_on_c, 4, 52, 56
5, 714480, Note_off_c, 4, 52, 0
5, 714480, Note_on_c, 4, 54, 54
5, 714960, Note_off_c, 4, 54, 0
5, 714960, Note_on_c, 4, 57, 53
5, 715200, Note_off_c, 4, 57, 0
5, 715200, Note_on_c, 4, 55, 52
5, 715680, Note_off_c, 4, 55, 0
5, 715680, Note_on_c, 4, 56, 50
5, 715920, Note_off_c, 4, 56, 0
5, 715920, Note_on_c, 4, 57, 50
5, 716400, Note_off_c, 4, 57, 0
5, 716400, Note_on_c, 4, 59, 48
5, 716640, Note_off_c, 4, 59, 0
5, 716640, Note_on_c, 4, 60, 47
5, 717600, Note_off_c, 4, 60, 0
5, 717600, Note_on_c, 4, 60, 47
5, 717840, Note_off_c, 4, 60, 0
5, 717840, Note_on_c, 4, 60, 47
5, 718080, Note_off_c, 4, 60, 0
5, 718080, Note_on_c, 4, 59, 43
5, 718320, Note_off_c, 4, 59, 0
5, 718320, Note_on_c, 4, 59, 42
5, 718512, Note_off_c, 4, 59, 0
5, 718560, Note_on_c, 4, 59, 41
5, 718752, Note_off_c, 4, 59, 0
5, 718800, Note_on_c, 4, 59, 40
5, 719520, Control_c, 4, 64, 0
5, 719520, Note_off_c, 4, 59, 0
5, 719520, Note_on_c, 4, 48, 49
5, 720240, Note_off_c, 4, 48, 0
5, 720240, Note_on_c, 4, 48, 48
5, 720960, Note_off_c, 4, 48, 0
5, 720960, Note_on_c, 4, 48, 46
5, 721680, Note_off_c, 4, 48, 0
5, 721680, Note_on_c, 4, 48, 45
5, 722400, Note_off_c, 4, 48, 0
5, 722400, Note_on_c, 4, 48, 44
5, 723120, Note_off_c, 4, 48, 0
5, 723120, Note_on_c, 4, 48, 47
5, 723840, Note_off_c, 4, 48, 0
5, 723840, Note_on_c, 4, 48, 51
5, 724560, Note_off_c, 4, 48, 0
5, 724560, Note_on_c, 4, 48, 46
5, 725280, Note_off_c, 4, 48, 0
5, 725280, Note_on_c, 4, 48, 45
5, 726000, Note_off_c, 4, 48, 0
5, 726000, Note_on_c, 4, 48, 45
5, 726720, Note_off_c, 4, 48, 0
5, 726720, Note_on_c, 4, 48, 44
5, 727440, Note_off_c, 4, 48, 0
5, 727440, Note_on_c, 4, 48, 43
5, 728160, Note_off_c, 4, 48, 0
5, 728160, Note_on_c, 4, 48, 42
5, 728880, Note_off_c, 4, 48, 0
5, 728880, Note_on_c, 4, 48, 45
5, 729600, Note_off_c, 4, 48, 0
5, 729600, Note_on_c, 4, 48, 49
5, 730320, Note_off_c, 4, 48, 0
5, 730320, Note_on_c, 4, 48, 45
5, 731040, Note_off_c, 4, 48, 0
5, 731040, Note_on_c, 4, 48, 42
5, 731760, Note_off_c, 4, 48, 0
5, 731760, Note_on_c, 4, 45, 45
5, 732480, Note_off_c, 4, 45, 0
5, 732480, Note_on_c, 4, 47, 49
5, 733200, Note_off_c, 4, 47, 0
5, 733200, Note_on_c, 4, 43, 52
5, 733920, Note_off_c, 4, 43, 0
5, 733920, Note_on_c, 4, 42, 55
5, 734640, Note_off_c, 4, 42, 0
5, 734640, Note_on_c, 4, 38, 59
5, 735360, Note_off_c, 4, 38, 0
5, 735360, Note_on_c, 4, 40, 62
5, 736080, Note_off_c, 4, 40, 0
5, 736080, Note_on_c, 4, 38, 66
5, 736800, Note_off_c, 4, 38, 0
5, 736800, Note_on_c, 4, 35, 72
5, 737520, Note_off_c, 4, 35, 0
5, 737520, Note_on_c, 4, 35, 64
5, 738240, Note_off_c, 4, 35, 0
5, 738240, Note_on_c, 4, 36, 61
5, 738960, Note_off_c, 4, 36, 0
5, 738960, Note_on_c, 4, 37, 58
5, 739680, Note_off_c, 4, 37, 0
5, 739680, Note_on_c, 4, 38, 55
5, 740400, Note_off_c, 4, 38, 0
5, 740400, Note_on_c, 4, 40, 47
5, 741120, Note_off_c, 4, 40, 0
5, 741120, Note_on_c, 4, 38, 42
5, 741840, Note_off_c, 4, 38, 0
5, 741840, Note_on_c, 4, 38, 37
5, 742495, Note_off_c, 4, 38, 0
5, 742560, Control_c, 4, 64, 0
5, 742560, Note_on_c, 4, 48, 49
5, 743280, Note_off_c, 4, 48, 0
5, 743280, Note_on_c, 4, 48, 48
5, 744000, Note_off_c, 4, 48, 0
5, 744000, Note_on_c, 4, 48, 46
5, 744720, Note_off_c, 4, 48, 0
5, 744720, Note_on_c, 4, 48, 45
5, 745440, Note_off_c, 4, 48, 0
5, 745440, Note_on_c, 4, 48, 44
5, 746160, Note_off_c, 4, 48, 0
5, 746160, Note_on_c, 4, 48, 47
5, 746880, Note_off_c, 4, 48, 0
5, 746880, Note_on_c, 4, 48, 51
5, 747600, Note_off_c, 4, 48, 0
5, 747600, Note_on_c, 4, 48, 46
5, 748320, Note_off_c, 4, 48, 0
5, 748320, Note_on_c, 4, 48, 45
5, 749040, Note_off_c, 4, 48, 0
5, 749040, Note_on_c, 4, 48, 45
5, 749760, Note_off_c, 4, 48, 0
5, 749760, Note_on_c, 4, 48, 44
5, 750480, Note_off_c, 4, 48, 0
5, 750480, Note_on_c, 4, 48, 43
5, 751200, Note_off_c, 4, 48, 0
5, 751200, Note_on_c, 4, 48, 42
5, 751920, Note_off_c, 4, 48, 0
5, 751920, Note_on_c, 4, 48, 45
5, 752640, Note_off_c, 4, 48, 0
5, 752640, Note_on_c, 4, 48, 49
5, 753360, Note_off_c, 4, 48, 0
5, 753360, Note_on_c, 4, 48, 45
5, 754080, Note_off_c, 4, 48, 0
5, 754080, Note_on_c, 4, 48, 42
5, 754800, Note_off_c, 4, 48, 0
5, 754800, Note_on_c, 4, 45, 45
5, 755520, Note_off_c, 4, 45, 0
5, 755520, Note_on_c, 4, 47, 49
5, 756240, Note_off_c, 4, 47, 0
5, 756240, Note_on_c, 4, 43, 52
5, 756960, Note_off_c, 4, 43, 0
5, 756960, Note_on_c, 4, 42, 55
5, 757680, Note_off_c, 4, 42, 0
5, 757680, Note_on_c, 4, 38, 59
5, 758400, Note_off_c, 4, 38, 0
5, 758400, Note_on_c, 4, 40, 62
5, 759120, Note_off_c, 4, 40, 0
5, 759120, Note_on_c, 4, 38, 66
5, 759840, Note_off_c, 4, 38, 0
5, 759840, Note_on_c, 4, 35, 72
5, 760560, Note_off_c, 4, 35, 0
5, 760560, Note_on_c, 4, 35, 64
5, 761280, Note_off_c, 4, 35, 0
5, 761280, Note_on_c, 4, 36, 61
5, 762000, Note_off_c, 4, 36, 0
5, 762000, Note_on_c, 4, 37, 58
5, 762720, Note_off_c, 4, 37, 0
5, 762720, Note_on_c, 4, 38, 55
5, 763440, Note_off_c, 4, 38, 0
5, 763440, Note_on_c, 4, 40, 47
5, 764160, Note_off_c, 4, 40, 0
5, 764160, Note_on_c, 4, 38, 42
5, 764880, Note_off_c, 4, 38, 0
5, 764880, Note_on_c, 4, 38, 37
5, 765550, Note_off_c, 4, 38, 0
5, 765600, Control_c, 4, 64, 0
5, 768480, Note_on_c, 4, 67, 48
5, 769440, Note_off_c, 4, 67, 0
5, 769440, Note_on_c, 4, 69, 50
5, 769680, Note_off_c, 4, 69, 0
5, 769680, Note_on_c, 4, 67, 51
5, 769920, Note_off_c, 4, 67, 0
5, 769920, Note_on_c, 4, 66, 52
5, 770880, Note_off_c, 4, 66, 0
5, 770880, Note_on_c, 4, 67, 54
5, 771120, Note_off_c, 4, 67, 0
5, 771120, Note_on_c, 4, 66, 55
5, 771360, Note_off_c, 4, 66, 0
5, 771360, Note_on_c, 4, 64, 56
5, 772320, Note_off_c, 4, 64, 0
5, 772320, Note_on_c, 4, 66, 50
5, 772560, Note_off_c, 4, 66, 0
5, 772560, Note_on_c, 4, 64, 49
5, 772800, Note_off_c, 4, 64, 0
5, 772800, Note_on_c, 4, 63, 48
5, 773760, Note_off_c, 4, 63, 0
5, 773760, Note_on_c, 4, 64, 45
5, 774000, Note_off_c, 4, 64, 0
5, 774000, Note_on_c, 4, 62, 45
5, 774240, Note_off_c, 4, 62, 0
5, 774240, Note_on_c, 4, 60, 44
5, 774960, Note_off_c, 4, 60, 0
5, 774960, Note_on_c, 4, 59, 48
5, 775680, Note_off_c, 4, 59, 0
5, 775680, Note_on_c, 4, 57, 51
5, 776400, Note_off_c, 4, 57, 0
5, 776400, Note_on_c, 4, 59, 53
5, 776880, Note_off_c, 4, 59, 0
5, 776880, Note_on_c, 4, 55, 50
5, 777120, Note_off_c, 4, 55, 0
5, 777120, Note_on_c, 4, 60, 49
5, 777840, Note_off_c, 4, 60, 0
5, 777840, Note_on_c, 4, 62, 45
5, 778560, Note_off_c, 4, 62, 0
5, 778560, Note_on_c, 4, 67, 41
5, 779040, Note_off_c, 4, 67, 0
5, 779040, Note_on_c, 4, 67, 37
5, 779232, Note_off_c, 4, 67, 0
5, 779280, Note_on_c, 4, 67, 34
5, 779760, Note_off_c, 4, 67, 0
5, 781440, Control_c, 4, 64, 0
5, 781440, Control_c, 4, 64, 0
5, 781440, Note_on_c, 4, 39, 70
5, 781920, Note_off_c, 4, 39, 0
5, 781920, Note_on_c, 4, 39, 71
5, 782400, Note_off_c, 4, 39, 0
5, 782400, Note_on_c, 4, 39, 72
5, 782880, Note_off_c, 4, 39, 0
5, 782880, Note_on_c, 4, 39, 74
5, 783360, Note_off_c, 4, 39, 0
5, 783360, Note_on_c, 4, 39, 75
5, 783840, Note_off_c, 4, 39, 0
5, 783840, Note_on_c, 4, 39, 76
5, 784320, Note_off_c, 4, 39, 0
5, 784320, Note_on_c, 4, 39, 77
5, 784800, Note_off_c, 4, 39, 0
5, 784800, Note_on_c, 4, 39, 78
5, 785280, Note_off_c, 4, 39, 0
5, 785280, Note_on_c, 4, 39, 79
5, 785760, Note_off_c, 4, 39, 0
5, 785760, Note_on_c, 4, 39, 77
5, 786240, Note_off_c, 4, 39, 0
5, 786240, Note_on_c, 4, 39, 77
5, 786720, Note_off_c, 4, 39, 0
5, 786720, Note_on_c, 4, 39, 76
5, 787200, Note_off_c, 4, 39, 0
5, 787200, Note_on_c, 4, 39, 75
5, 787680, Note_off_c, 4, 39, 0
5, 787680, Note_on_c, 4, 39, 74
5, 788160, Note_off_c, 4, 39, 0
5, 788160, Note_on_c, 4, 39, 73
5, 788640, Note_off_c, 4, 39, 0
5, 788640, Note_on_c, 4, 39, 73
5, 789120, Note_off_c, 4, 39, 0
5, 789120, Note_on_c, 4, 39, 75
5, 789360, Note_off_c, 4, 39, 0
5, 789600, Note_on_c, 4, 63, 73
5, 789840, Note_off_c, 4, 63, 0
5, 790080, Note_on_c, 4, 58, 70
5, 790320, Note_off_c, 4, 58, 0
5, 790560, Note_on_c, 4, 55, 68
5, 790800, Note_off_c, 4, 55, 0
5, 791040, Note_on_c, 4, 51, 65
5, 791280, Note_off_c, 4, 51, 0
5, 794880, Control_c, 4, 64, 0
5, 795120, Note_on_c, 4, 46, 41
5, 795840, Note_off_c, 4, 46, 0
5, 795840, Note_on_c, 4, 46, 44
5, 796560, Note_off_c, 4, 46, 0
5, 796560, Note_on_c, 4, 46, 47
5, 797280, Note_off_c, 4, 46, 0
5, 797280, Note_on_c, 4, 46, 46
5, 798000, Note_off_c, 4, 46, 0
5, 798000, Note_on_c, 4, 46, 44
5, 798720, Note_off_c, 4, 46, 0
5, 798720, Note_on_c, 4, 46, 43
5, 798960, Note_off_c, 4, 46, 0
5, 801600, Note_on_c, 4, 58, 47
5, 801840, Note_off_c, 4, 58, 0
5, 801840, Note_on_c, 4, 58, 48
5, 802080, Note_off_c, 4, 58, 0
5, 802080, Note_on_c, 4, 58, 50
5, 802320, Note_off_c, 4, 58, 0
5, 802320, Note_on_c, 4, 63, 51
5, 802560, Note_off_c, 4, 63, 0
5, 802560, Note_on_c, 4, 58, 53
5, 802800, Note_off_c, 4, 58, 0
5, 802800, Note_on_c, 4, 58, 54
5, 803040, Note_off_c, 4, 58, 0
5, 803040, Note_on_c, 4, 60, 52
5, 803280, Note_off_c, 4, 60, 0
5, 803280, Note_on_c, 4, 60, 49
5, 803520, Note_off_c, 4, 60, 0
5, 803760, Note_on_c, 4, 58, 48
5, 803760, Note_on_c, 4, 62, 48
5, 803880, Note_off_c, 4, 62, 0
5, 803880, Note_off_c, 4, 58, 0
5, 804000, Note_on_c, 4, 58, 50
5, 804000, Note_on_c, 4, 53, 50
5, 804120, Note_off_c, 4, 53, 0
5, 804120, Note_off_c, 4, 58, 0
5, 804480, Note_on_c, 4, 58, 53
5, 804480, Note_on_c, 4, 62, 53
5, 804600, Note_off_c, 4, 62, 0
5, 804600, Note_off_c, 4, 58, 0
5, 804720, Note_on_c, 4, 58, 55
5, 804720, Note_on_c, 4, 53, 55
5, 804840, Note_off_c, 4, 53, 0
5, 804840, Note_off_c, 4, 58, 0
5, 805680, Control_c, 4, 64, 0
5, 805920, Note_on_c, 4, 46, 41
5, 806640, Note_off_c, 4, 46, 0
5, 806640, Note_on_c, 4, 46, 44
5, 807360, Note_off_c, 4, 46, 0
5, 807360, Note_on_c, 4, 46, 47
5, 808080, Note_off_c, 4, 46, 0
5, 808080, Note_on_c, 4, 46, 46
5, 808800, Note_off_c, 4, 46, 0
5, 808800, Note_on_c, 4, 46, 44
5, 809520, Note_off_c, 4, 46, 0
5, 809520, Note_on_c, 4, 46, 43
5, 809760, Note_off_c, 4, 46, 0
5, 812400, Note_on_c, 4, 58, 47
5, 812640, Note_off_c, 4, 58, 0
5, 812640, Note_on_c, 4, 58, 48
5, 812880, Note_off_c, 4, 58, 0
5, 812880, Note_on_c, 4, 58, 50
5, 813120, Note_off_c, 4, 58, 0
5, 813120, Note_on_c, 4, 63, 51
5, 813360, Note_off_c, 4, 63, 0
5, 813360, Note_on_c, 4, 58, 53
5, 813600, Note_off_c, 4, 58, 0
5, 813600, Note_on_c, 4, 58, 54
5, 813840, Note_off_c, 4, 58, 0
5, 813840, Note_on_c, 4, 60, 52
5, 814080, Note_off_c, 4, 60, 0
5, 814080, Note_on_c, 4, 60, 49
5, 814320, Note_off_c, 4, 60, 0
5, 814560, Note_on_c, 4, 62, 48
5, 814560, Note_on_c, 4, 58, 48
5, 814680, Note_off_c, 4, 58, 0
5, 814680, Note_off_c, 4, 62, 0
5, 814800, Note_on_c, 4, 53, 50
5, 814800, Note_on_c, 4, 58, 50
5, 814920, Note_off_c, 4, 58, 0
5, 814920, Note_off_c, 4, 53, 0
5, 815280, Note_on_c, 4, 62, 53
5, 815280, Note_on_c, 4, 58, 53
5, 815400, Note_off_c, 4, 58, 0
5, 815400, Note_off_c, 4, 62, 0
5, 815520, Note_on_c, 4, 53, 55
5, 815520, Note_on_c, 4, 58, 55
5, 815640, Note_off_c, 4, 58, 0
5, 815640, Note_off_c, 4, 53, 0
5, 816480, Control_c, 4, 64, 0
5, 842400, Note_on_c, 4, 60, 49
5, 842592, Note_off_c, 4, 60, 0
5, 842640, Note_on_c, 4, 55, 47
5, 842880, Note_off_c, 4, 55, 0
5, 842880, Note_on_c, 4, 56, 44
5, 843000, Note_off_c, 4, 56, 0
5, 843000, Note_on_c, 4, 54, 43
5, 843120, Note_off_c, 4, 54, 0
5, 843120, Note_on_c, 4, 53, 44
5, 843240, Note_off_c, 4, 53, 0
5, 843240, Note_on_c, 4, 55, 46
5, 843360, Note_off_c, 4, 55, 0
5, 843360, Note_on_c, 4, 50, 48
5, 843480, Note_off_c, 4, 50, 0
5, 843480, Note_on_c, 4, 51, 50
5, 843600, Note_off_c, 4, 51, 0
5, 843600, Note_on_c, 4, 48, 51
5, 843720, Note_off_c, 4, 48, 0
5, 843720, Note_on_c, 4, 49, 53
5, 843840, Note_off_c, 4, 49, 0
5, 845200, Note_on_c, 4, 54, 43
5, 845280, Note_off_c, 4, 54, 0
5, 845280, Note_on_c, 4, 53, 42
5, 845400, Note_off_c, 4, 53, 0
5, 845400, Note_on_c, 4, 55, 44
5, 845520, Note_off_c, 4, 55, 0
5, 845520, Note_on_c, 4, 50, 46
5, 845640, Note_off_c, 4, 50, 0
5, 845640, Note_on_c, 4, 51, 47
5, 845760, Note_off_c, 4, 51, 0
5, 846240, Note_on_c, 4, 46, 43
5, 846720, Note_off_c, 4, 46, 0
5, 846960, Note_on_c, 4, 46, 42
5, 847440, Note_off_c, 4, 46, 0
5, 847680, Note_on_c, 4, 46, 44
5, 848160, Note_off_c, 4, 46, 0
5, 848400, Note_on_c, 4, 46, 40
5, 848880, Note_off_c, 4, 46, 0
5, 849120, Note_on_c, 4, 46, 42
5, 849600, Note_off_c, 4, 46, 0
5, 849840, Note_on_c, 4, 46, 39
5, 850080, Note_off_c, 4, 46, 0
5, 850080, Note_on_c, 4, 39, 37
5, 850200, Note_off_c, 4, 39, 0
5, 850200, Note_on_c, 4, 43, 35
5, 850260, Note_off_c, 4, 43, 0
5, 850260, Note_on_c, 4, 41, 34
5, 850470, Note_off_c, 4, 41, 0
5, 851040, Control_c, 4, 64, 0
5, 851040, Control_c, 4, 64, 0
5, 851040, Note_on_c, 4, 39, 70
5, 851520, Note_off_c, 4, 39, 0
5, 851520, Note_on_c, 4, 39, 71
5, 852000, Note_off_c, 4, 39, 0
5, 852000, Note_on_c, 4, 39, 72
5, 852480, Note_off_c, 4, 39, 0
5, 852480, Note_on_c, 4, 39, 74
5, 852960, Note_off_c, 4, 39, 0
5, 852960, Note_on_c, 4, 39, 75
5, 853440, Note_off_c, 4, 39, 0
5, 853440, Note_on_c, 4, 39, 76
5, 853920, Note_off_c, 4, 39, 0
5, 853920, Note_on_c, 4, 39, 77
5, 854400, Note_off_c, 4, 39, 0
5, 854400, Note_on_c, 4, 39, 78
5, 854880, Note_off_c, 4, 39, 0
5, 854880, Note_on_c, 4, 39, 79
5, 855360, Note_off_c, 4, 39, 0
5, 855360, Note_on_c, 4, 39, 77
5, 855840, Note_off_c, 4, 39, 0
5, 855840, Note_on_c, 4, 39, 77
5, 856320, Note_off_c, 4, 39, 0
5, 856320, Note_on_c, 4, 39, 76
5, 856800, Note_off_c, 4, 39, 0
5, 856800, Note_on_c, 4, 39, 75
5, 857280, Note_off_c, 4, 39, 0
5, 857280, Note_on_c, 4, 39, 74
5, 857760, Note_off_c, 4, 39, 0
5, 857760, Note_on_c, 4, 39, 73
5, 858240, Note_off_c, 4, 39, 0
5, 858240, Note_on_c, 4, 39, 73
5, 858720, Note_off_c, 4, 39, 0
5, 858720, Note_on_c, 4, 39, 75
5, 858960, Note_off_c, 4, 39, 0
5, 859200, Note_on_c, 4, 63, 73
5, 859440, Note_off_c, 4, 63, 0
5, 859680, Note_on_c, 4, 58, 70
5, 859920, Note_off_c, 4, 58, 0
5, 860160, Note_on_c, 4, 55, 68
5, 860400, Note_off_c, 4, 55, 0
5, 860640, Note_on_c, 4, 51, 65
5, 860880, Note_off_c, 4, 51, 0
5, 860880, End_track
6, 0, Start_track
6, 0, Title_t, "Unnamed Track"
6, 0, Control_c, 5, 0, 0
6, 0, Control_c, 5, 32, 0
6, 0, Program_c, 5, 0
6, 0, Control_c, 5, 7, 125
6, 0, Pitch_bend_c, 5, 8192
6, 0, Control_c, 5, 1, 0
6, 0, Control_c, 5, 64, 0
6, 0, Control_c, 5, 93, 28
6, 0, Control_c, 5, 91, 100
6, 0, Control_c, 5, 10, 55
6, 480, Control_c, 5, 64, 0
6, 960, Control_c, 5, 64, 0
6, 960, Note_on_c, 5, 50, 44
6, 1440, Note_off_c, 5, 50, 0
6, 1440, Note_on_c, 5, 50, 45
6, 1920, Note_off_c, 5, 50, 0
6, 1920, Note_on_c, 5, 50, 46
6, 2400, Note_off_c, 5, 50, 0
6, 2400, Note_on_c, 5, 50, 47
6, 2880, Note_off_c, 5, 50, 0
6, 2880, Note_on_c, 5, 50, 48
6, 3360, Note_off_c, 5, 50, 0
6, 3360, Note_on_c, 5, 50, 49
6, 3840, Note_off_c, 5, 50, 0
6, 3840, Note_on_c, 5, 50, 51
6, 4320, Note_off_c, 5, 50, 0
6, 4320, Note_on_c, 5, 50, 52
6, 4800, Note_off_c, 5, 50, 0
6, 4800, Note_on_c, 5, 50, 55
6, 5280, Note_off_c, 5, 50, 0
6, 5280, Note_on_c, 5, 50, 49
6, 5707, Note_off_c, 5, 50, 0
6, 5760, Note_on_c, 5, 55, 51
6, 6000, Note_off_c, 5, 55, 0
6, 6000, Note_on_c, 5, 54, 51
6, 6240, Note_off_c, 5, 54, 0
6, 6240, Note_on_c, 5, 52, 52
6, 6480, Note_off_c, 5, 52, 0
6, 6480, Note_on_c, 5, 50, 52
6, 6720, Note_off_c, 5, 50, 0
6, 6720, Note_on_c, 5, 48, 53
6, 6960, Note_off_c, 5, 48, 0
6, 6960, Note_on_c, 5, 47, 54
6, 7200, Note_off_c, 5, 47, 0
6, 7200, Note_on_c, 5, 45, 54
6, 8160, Note_off_c, 5, 45, 0
6, 8160, Note_on_c, 5, 47, 57
6, 8640, Note_off_c, 5, 47, 0
6, 8640, Note_on_c, 5, 48, 58
6, 9600, Note_off_c, 5, 48, 0
6, 9600, Note_on_c, 5, 50, 60
6, 10080, Note_off_c, 5, 50, 0
6, 10080, Note_on_c, 5, 52, 62
6, 10440, Note_off_c, 5, 52, 0
6, 10440, Note_on_c, 5, 50, 63
6, 10560, Note_off_c, 5, 50, 0
6, 10560, Note_on_c, 5, 48, 67
6, 10920, Note_off_c, 5, 48, 0
6, 11040, Note_on_c, 5, 45, 62
6, 11520, Note_off_c, 5, 45, 0
6, 11520, Note_on_c, 5, 43, 59
6, 12427, Note_off_c, 5, 43, 0
6, 12480, Control_c, 5, 64, 0
6, 12480, Note_on_c, 5, 59, 44
6, 12960, Note_off_c, 5, 59, 0
6, 12960, Note_on_c, 5, 62, 45
6, 13440, Note_off_c, 5, 62, 0
6, 13440, Note_on_c, 5, 60, 46
6, 13920, Note_off_c, 5, 60, 0
6, 13920, Note_on_c, 5, 59, 47
6, 14400, Note_off_c, 5, 59, 0
6, 14400, Note_on_c, 5, 60, 49
6, 14880, Note_off_c, 5, 60, 0
6, 14880, Note_on_c, 5, 54, 50
6, 15360, Note_off_c, 5, 54, 0
6, 15360, Note_on_c, 5, 55, 51
6, 15840, Note_off_c, 5, 55, 0
6, 15840, Note_on_c, 5, 52, 52
6, 16320, Note_off_c, 5, 52, 0
6, 16320, Note_on_c, 5, 53, 54
6, 16800, Note_off_c, 5, 53, 0
6, 16800, Note_on_c, 5, 54, 49
6, 17280, Note_off_c, 5, 54, 0
6, 17280, Note_on_c, 5, 55, 48
6, 17520, Note_off_c, 5, 55, 0
6, 17520, Note_on_c, 5, 54, 49
6, 17760, Note_off_c, 5, 54, 0
6, 17760, Note_on_c, 5, 52, 50
6, 18000, Note_off_c, 5, 52, 0
6, 18000, Note_on_c, 5, 50, 50
6, 18192, Note_off_c, 5, 50, 0
6, 18240, Note_on_c, 5, 48, 50
6, 18480, Note_off_c, 5, 48, 0
6, 18480, Note_on_c, 5, 47, 51
6, 18720, Note_off_c, 5, 47, 0
6, 18720, Note_on_c, 5, 45, 52
6, 19680, Note_off_c, 5, 45, 0
6, 19680, Note_on_c, 5, 47, 57
6, 20160, Note_off_c, 5, 47, 0
6, 20160, Note_on_c, 5, 48, 59
6, 21120, Note_off_c, 5, 48, 0
6, 21120, Note_on_c, 5, 50, 64
6, 21600, Note_off_c, 5, 50, 0
6, 21600, Note_on_c, 5, 52, 67
6, 21960, Note_off_c, 5, 52, 0
6, 21960, Note_on_c, 5, 50, 68
6, 22080, Note_off_c, 5, 50, 0
6, 22080, Note_on_c, 5, 48, 71
6, 22560, Note_off_c, 5, 48, 0
6, 22560, Note_on_c, 5, 45, 65
6, 23040, Note_off_c, 5, 45, 0
6, 23040, Note_on_c, 5, 43, 58
6, 23947, Note_off_c, 5, 43, 0
6, 24000, Control_c, 5, 64, 0
6, 24000, Note_on_c, 5, 62, 48
6, 24360, Note_off_c, 5, 62, 0
6, 24480, Note_on_c, 5, 62, 50
6, 24840, Note_off_c, 5, 62, 0
6, 24960, Note_on_c, 5, 62, 52
6, 25320, Note_off_c, 5, 62, 0
6, 25440, Note_on_c, 5, 62, 53
6, 25800, Note_off_c, 5, 62, 0
6, 25920, Note_on_c, 5, 50, 57
6, 26160, Note_off_c, 5, 50, 0
6, 26160, Note_on_c, 5, 69, 56
6, 26160, Note_on_c, 5, 54, 56
6, 26400, Note_off_c, 5, 54, 0
6, 26400, Note_off_c, 5, 69, 0
6, 26400, Note_on_c, 5, 71, 55
6, 26400, Note_on_c, 5, 55, 55
6, 26760, Note_off_c, 5, 55, 0
6, 26880, Note_off_c, 5, 71, 0
6, 26880, Note_on_c, 5, 55, 53
6, 27240, Note_off_c, 5, 55, 0
6, 27360, Note_on_c, 5, 52, 52
6, 27840, Note_off_c, 5, 52, 0
6, 27840, Note_on_c, 5, 50, 50
6, 28200, Note_off_c, 5, 50, 0
6, 28320, Note_on_c, 5, 49, 48
6, 28680, Note_off_c, 5, 49, 0
6, 28800, Note_on_c, 5, 50, 46
6, 29280, Note_off_c, 5, 50, 0
6, 29280, Note_on_c, 5, 54, 47
6, 29760, Note_off_c, 5, 54, 0
6, 30240, Note_on_c, 5, 49, 42
6, 31200, Note_off_c, 5, 49, 0
6, 31200, Note_on_c, 5, 52, 46
6, 32160, Note_off_c, 5, 52, 0
6, 32160, Note_on_c, 5, 49, 49
6, 33120, Note_off_c, 5, 49, 0
6, 33120, Note_on_c, 5, 50, 52
6, 34027, Note_off_c, 5, 50, 0
6, 34080, Note_on_c, 5, 49, 54
6, 34560, Note_off_c, 5, 49, 0
6, 34560, Note_on_c, 5, 52, 64
6, 35040, Note_off_c, 5, 52, 0
6, 35040, Note_on_c, 5, 50, 59
6, 35520, Note_off_c, 5, 50, 0
6, 35520, Note_on_c, 5, 54, 62
6, 36000, Note_off_c, 5, 54, 0
6, 36000, Note_on_c, 5, 59, 66
6, 36480, Note_off_c, 5, 59, 0
6, 36480, Note_on_c, 5, 55, 69
6, 37200, Note_off_c, 5, 55, 0
6, 37200, Note_on_c, 5, 55, 75
6, 37680, Note_off_c, 5, 55, 0
6, 37680, Note_on_c, 5, 55, 78
6, 37920, Note_off_c, 5, 55, 0
6, 37920, Note_on_c, 5, 57, 78
6, 38400, Note_off_c, 5, 57, 0
6, 38400, Note_on_c, 5, 57, 57
6, 38880, Control_c, 5, 64, 127
6, 38880, Note_off_c, 5, 57, 0
6, 38880, Note_on_c, 5, 62, 46
6, 40790, Note_off_c, 5, 62, 0
6, 43200, Control_c, 5, 64, 0
6, 43440, Note_on_c, 5, 61, 44
6, 43440, Note_on_c, 5, 58, 44
6, 43440, Note_on_c, 5, 55, 44
6, 43680, Note_off_c, 5, 55, 0
6, 43680, Note_off_c, 5, 58, 0
6, 43680, Note_off_c, 5, 61, 0
6, 43680, Note_on_c, 5, 54, 55
6, 43680, Note_on_c, 5, 57, 55
6, 44640, Note_off_c, 5, 57, 0
6, 44640, Note_off_c, 5, 54, 0
6, 44640, Note_on_c, 5, 43, 48
6, 44640, Note_on_c, 5, 31, 48
6, 45120, Note_off_c, 5, 31, 0
6, 45120, Note_off_c, 5, 43, 0
6, 45120, Note_on_c, 5, 30, 44
6, 45120, Note_on_c, 5, 42, 44
6, 46080, Note_off_c, 5, 42, 0
6, 46080, Note_off_c, 5, 30, 0
6, 46080, Note_on_c, 5, 31, 47
6, 46080, Note_on_c, 5, 43, 47
6, 46560, Note_off_c, 5, 43, 0
6, 46560, Note_off_c, 5, 31, 0
6, 46560, Note_on_c, 5, 33, 48
6, 46560, Note_on_c, 5, 45, 48
6, 47520, Note_off_c, 5, 45, 0
6, 47520, Note_off_c, 5, 33, 0
6, 47520, Note_on_c, 5, 47, 52
6, 47520, Note_on_c, 5, 35, 52
6, 48000, Note_off_c, 5, 35, 0
6, 48000, Note_off_c, 5, 47, 0
6, 48000, Note_on_c, 5, 36, 53
6, 48000, Note_on_c, 5, 48, 53
6, 48360, Note_off_c, 5, 48, 0
6, 48360, Note_off_c, 5, 36, 0
6, 48360, Note_on_c, 5, 35, 55
6, 48360, Note_on_c, 5, 47, 55
6, 48480, Note_off_c, 5, 47, 0
6, 48480, Note_off_c, 5, 35, 0
6, 48480, Note_on_c, 5, 33, 55
6, 48480, Note_on_c, 5, 45, 55
6, 48720, Note_off_c, 5, 45, 0
6, 48720, Note_off_c, 5, 33, 0
6, 48960, Note_on_c, 5, 38, 53
6, 48960, Note_on_c, 5, 50, 53
6, 49200, Note_off_c, 5, 50, 0
6, 49200, Note_off_c, 5, 38, 0
6, 49440, Note_on_c, 5, 43, 51
6, 49440, Note_on_c, 5, 31, 51
6, 49920, Note_off_c, 5, 31, 0
6, 49920, Note_off_c, 5, 43, 0
6, 50400, Note_on_c, 5, 62, 46
6, 51120, Note_off_c, 5, 62, 0
6, 51120, Note_on_c, 5, 60, 50
6, 51360, Note_off_c, 5, 60, 0
6, 51360, Note_on_c, 5, 57, 51
6, 51600, Note_off_c, 5, 57, 0
6, 51600, Note_on_c, 5, 54, 52
6, 51840, Note_off_c, 5, 54, 0
6, 51840, Note_on_c, 5, 50, 53
6, 52080, Note_off_c, 5, 50, 0
6, 52080, Note_on_c, 5, 47, 54
6, 52200, Note_off_c, 5, 47, 0
6, 52200, Note_on_c, 5, 43, 54
6, 52560, Note_off_c, 5, 43, 0
6, 52560, Note_on_c, 5, 40, 56
6, 52800, Note_off_c, 5, 40, 0
6, 52800, Note_on_c, 5, 38, 57
6, 53040, Note_off_c, 5, 38, 0
6, 53040, Note_on_c, 5, 36, 58
6, 53520, Note_off_c, 5, 36, 0
6, 53520, Note_on_c, 5, 35, 60
6, 53640, Note_off_c, 5, 35, 0
6, 53640, Note_on_c, 5, 31, 61
6, 54000, Note_off_c, 5, 31, 0
6, 54000, Note_on_c, 5, 36, 63
6, 54120, Note_off_c, 5, 36, 0
6, 54120, Note_on_c, 5, 38, 63
6, 54240, Note_off_c, 5, 38, 0
6, 54240, Note_on_c, 5, 40, 65
6, 54480, Note_off_c, 5, 40, 0
6, 54480, Note_on_c, 5, 38, 63
6, 54600, Note_off_c, 5, 38, 0
6, 54600, Note_on_c, 5, 40, 61
6, 54720, Note_off_c, 5, 40, 0
6, 54720, Note_on_c, 5, 42, 60
6, 54960, Note_off_c, 5, 42, 0
6, 54960, Note_on_c, 5, 40, 58
6, 55080, Note_off_c, 5, 40, 0
6, 55080, Note_on_c, 5, 42, 57
6, 55200, Note_off_c, 5, 42, 0
6, 55200, Note_on_c, 5, 43, 55
6, 55440, Note_off_c, 5, 43, 0
6, 55440, Note_on_c, 5, 47, 53
6, 55560, Note_off_c, 5, 47, 0
6, 55560, Note_on_c, 5, 48, 52
6, 55680, Note_off_c, 5, 48, 0
6, 55680, Note_on_c, 5, 50, 50
6, 55836, Note_off_c, 5, 50, 0
6, 63120, Note_on_c, 5, 40, 41
6, 63276, Note_off_c, 5, 40, 0
6, 63360, Note_on_c, 5, 42, 39
6, 63516, Note_off_c, 5, 42, 0
6, 63600, Note_on_c, 5, 38, 37
6, 63756, Note_off_c, 5, 38, 0
6, 63840, Note_on_c, 5, 43, 35
6, 64320, Note_off_c, 5, 43, 0
6, 64560, Note_on_c, 5, 40, 40
6, 64716, Note_off_c, 5, 40, 0
6, 64800, Note_on_c, 5, 42, 41
6, 64956, Note_off_c, 5, 42, 0
6, 65040, Note_on_c, 5, 38, 42
6, 65196, Note_off_c, 5, 38, 0
6, 65280, Note_on_c, 5, 43, 43
6, 65640, Note_off_c, 5, 43, 0
6, 65640, Note_on_c, 5, 45, 45
6, 65760, Note_off_c, 5, 45, 0
6, 65760, Note_on_c, 5, 47, 46
6, 66240, Note_off_c, 5, 47, 0
6, 66240, Note_on_c, 5, 45, 51
6, 66720, Note_off_c, 5, 45, 0
6, 66720, Note_on_c, 5, 38, 46
6, 67200, Note_off_c, 5, 38, 0
6, 67200, Note_on_c, 5, 43, 34
6, 67440, Note_off_c, 5, 43, 0
6, 70200, Note_on_c, 5, 55, 81
6, 70320, Note_off_c, 5, 55, 0
6, 70320, Note_on_c, 5, 58, 81
6, 70440, Note_off_c, 5, 58, 0
6, 70440, Note_on_c, 5, 55, 82
6, 70560, Control_c, 5, 64, 0
6, 70560, Note_off_c, 5, 55, 0
6, 70680, Note_on_c, 5, 55, 84
6, 70800, Note_off_c, 5, 55, 0
6, 70800, Note_on_c, 5, 58, 84
6, 70920, Note_off_c, 5, 58, 0
6, 70920, Note_on_c, 5, 55, 85
6, 71040, Note_off_c, 5, 55, 0
6, 71160, Note_on_c, 5, 55, 87
6, 71280, Note_off_c, 5, 55, 0
6, 71280, Note_on_c, 5, 58, 87
6, 71400, Note_off_c, 5, 58, 0
6, 71400, Note_on_c, 5, 55, 88
6, 71520, Note_off_c, 5, 55, 0
6, 71640, Note_on_c, 5, 60, 90
6, 71760, Note_off_c, 5, 60, 0
6, 71760, Note_on_c, 5, 58, 89
6, 71880, Note_off_c, 5, 58, 0
6, 71880, Note_on_c, 5, 57, 88
6, 72000, Note_off_c, 5, 57, 0
6, 72000, Note_on_c, 5, 55, 87
6, 72120, Note_off_c, 5, 55, 0
6, 72120, Note_on_c, 5, 57, 86
6, 72240, Note_off_c, 5, 57, 0
6, 72240, Note_on_c, 5, 58, 85
6, 72360, Note_off_c, 5, 58, 0
6, 72360, Note_on_c, 5, 55, 84
6, 72480, Note_off_c, 5, 55, 0
6, 72600, Note_on_c, 5, 62, 85
6, 72720, Note_off_c, 5, 62, 0
6, 72720, Note_on_c, 5, 60, 84
6, 72840, Note_off_c, 5, 60, 0
6, 72840, Note_on_c, 5, 58, 82
6, 72960, Note_off_c, 5, 58, 0
6, 72960, Note_on_c, 5, 57, 81
6, 73080, Note_off_c, 5, 57, 0
6, 73080, Note_on_c, 5, 58, 79
6, 73200, Note_off_c, 5, 58, 0
6, 73200, Note_on_c, 5, 57, 78
6, 73320, Note_off_c, 5, 57, 0
6, 73320, Note_on_c, 5, 55, 76
6, 73440, Note_off_c, 5, 55, 0
6, 73440, Note_on_c, 5, 54, 75
6, 73560, Note_off_c, 5, 54, 0
6, 73560, Note_on_c, 5, 55, 73
6, 73680, Note_off_c, 5, 55, 0
6, 73680, Note_on_c, 5, 57, 71
6, 73800, Note_off_c, 5, 57, 0
6, 73800, Note_on_c, 5, 54, 70
6, 73920, Note_off_c, 5, 54, 0
6, 73920, Note_on_c, 5, 50, 68
6, 74076, Note_off_c, 5, 50, 0
6, 74160, Note_on_c, 5, 59, 44
6, 74400, Note_off_c, 5, 59, 0
6, 74400, Note_on_c, 5, 60, 45
6, 74640, Note_off_c, 5, 60, 0
6, 74640, Note_on_c, 5, 59, 45
6, 74880, Note_off_c, 5, 59, 0
6, 74880, Note_on_c, 5, 60, 46
6, 75120, Note_off_c, 5, 60, 0
6, 75120, Note_on_c, 5, 62, 47
6, 75360, Note_off_c, 5, 62, 0
6, 75360, Note_on_c, 5, 63, 48
6, 75600, Note_off_c, 5, 63, 0
6, 75600, Note_on_c, 5, 62, 49
6, 75840, Note_off_c, 5, 62, 0
6, 75840, Note_on_c, 5, 63, 49
6, 76032, Note_off_c, 5, 63, 0
6, 76080, Note_on_c, 5, 59, 50
6, 76320, Note_off_c, 5, 59, 0
6, 76320, Note_on_c, 5, 60, 53
6, 76512, Note_off_c, 5, 60, 0
6, 76560, Note_on_c, 5, 60, 51
6, 76752, Note_off_c, 5, 60, 0
6, 76800, Note_on_c, 5, 62, 50
6, 77040, Note_off_c, 5, 62, 0
6, 77040, Note_on_c, 5, 63, 48
6, 77232, Note_off_c, 5, 63, 0
6, 77280, Note_on_c, 5, 63, 49
6, 77520, Note_off_c, 5, 63, 0
6, 77520, Note_on_c, 5, 62, 46
6, 77712, Note_off_c, 5, 62, 0
6, 77760, Note_on_c, 5, 62, 42
6, 77856, Note_off_c, 5, 62, 0
6, 77880, Note_on_c, 5, 55, 74
6, 78000, Note_off_c, 5, 55, 0
6, 78000, Note_on_c, 5, 58, 75
6, 78120, Note_off_c, 5, 58, 0
6, 78120, Note_on_c, 5, 55, 76
6, 78240, Note_off_c, 5, 55, 0
6, 78360, Note_on_c, 5, 55, 79
6, 78480, Note_off_c, 5, 55, 0
6, 78480, Note_on_c, 5, 58, 80
6, 78600, Note_off_c, 5, 58, 0
6, 78600, Note_on_c, 5, 55, 81
6, 78720, Note_off_c, 5, 55, 0
6, 78840, Note_on_c, 5, 55, 83
6, 78960, Note_off_c, 5, 55, 0
6, 78960, Note_on_c, 5, 58, 84
6, 79080, Note_off_c, 5, 58, 0
6, 79080, Note_on_c, 5, 55, 85
6, 79200, Note_off_c, 5, 55, 0
6, 79320, Note_on_c, 5, 60, 88
6, 79440, Note_off_c, 5, 60, 0
6, 79440, Note_on_c, 5, 58, 87
6, 79560, Note_off_c, 5, 58, 0
6, 79560, Note_on_c, 5, 57, 86
6, 79680, Note_off_c, 5, 57, 0
6, 79680, Note_on_c, 5, 55, 85
6, 79800, Note_off_c, 5, 55, 0
6, 79800, Note_on_c, 5, 57, 84
6, 79920, Note_off_c, 5, 57, 0
6, 79920, Note_on_c, 5, 58, 83
6, 80040, Note_off_c, 5, 58, 0
6, 80040, Note_on_c, 5, 55, 82
6, 80160, Note_off_c, 5, 55, 0
6, 80280, Note_on_c, 5, 62, 85
6, 80400, Note_off_c, 5, 62, 0
6, 80400, Note_on_c, 5, 60, 84
6, 80520, Note_off_c, 5, 60, 0
6, 80520, Note_on_c, 5, 58, 82
6, 80640, Note_off_c, 5, 58, 0
6, 80640, Note_on_c, 5, 57, 81
6, 80760, Note_off_c, 5, 57, 0
6, 80760, Note_on_c, 5, 58, 79
6, 80880, Note_off_c, 5, 58, 0
6, 80880, Note_on_c, 5, 57, 78
6, 81000, Note_off_c, 5, 57, 0
6, 81000, Note_on_c, 5, 55, 76
6, 81120, Note_off_c, 5, 55, 0
6, 81120, Note_on_c, 5, 54, 75
6, 81240, Note_off_c, 5, 54, 0
6, 81240, Note_on_c, 5, 55, 73
6, 81360, Note_off_c, 5, 55, 0
6, 81360, Note_on_c, 5, 57, 72
6, 81480, Note_off_c, 5, 57, 0
6, 81480, Note_on_c, 5, 54, 70
6, 81600, Note_off_c, 5, 54, 0
6, 81600, Note_on_c, 5, 50, 69
6, 81756, Note_off_c, 5, 50, 0
6, 81840, Note_on_c, 5, 59, 42
6, 82080, Note_off_c, 5, 59, 0
6, 82080, Note_on_c, 5, 60, 43
6, 82320, Note_off_c, 5, 60, 0
6, 82320, Note_on_c, 5, 59, 44
6, 82560, Note_off_c, 5, 59, 0
6, 82560, Note_on_c, 5, 60, 45
6, 82800, Note_off_c, 5, 60, 0
6, 82800, Note_on_c, 5, 62, 46
6, 83040, Note_off_c, 5, 62, 0
6, 83040, Note_on_c, 5, 63, 47
6, 83280, Note_off_c, 5, 63, 0
6, 83280, Note_on_c, 5, 62, 48
6, 83520, Note_off_c, 5, 62, 0
6, 83520, Note_on_c, 5, 63, 49
6, 83712, Note_off_c, 5, 63, 0
6, 83760, Note_on_c, 5, 59, 50
6, 84000, Note_off_c, 5, 59, 0
6, 84000, Note_on_c, 5, 60, 51
6, 84240, Note_off_c, 5, 60, 0
6, 84240, Note_on_c, 5, 63, 49
6, 84480, Note_off_c, 5, 63, 0
6, 84480, Note_on_c, 5, 65, 48
6, 84720, Note_off_c, 5, 65, 0
6, 84720, Note_on_c, 5, 53, 46
6, 84912, Note_off_c, 5, 53, 0
6, 84960, Note_on_c, 5, 58, 49
6, 85390, Note_off_c, 5, 58, 0
6, 86400, Note_on_c, 5, 41, 85
6, 88320, Note_on_c, 5, 33, 55
6, 89520, Note_off_c, 5, 33, 0
6, 89520, Note_on_c, 5, 34, 51
6, 89760, Note_off_c, 5, 34, 0
6, 89760, Note_on_c, 5, 36, 50
6, 90480, Note_off_c, 5, 36, 0
6, 90480, Note_on_c, 5, 38, 48
6, 90720, Note_off_c, 5, 38, 0
6, 90720, Note_on_c, 5, 39, 47
6, 90952, Note_off_c, 5, 41, 0
6, 90960, Note_off_c, 5, 39, 0
6, 90960, Note_on_c, 5, 41, 46
6, 91200, Note_off_c, 5, 41, 0
6, 91200, Note_on_c, 5, 43, 45
6, 91440, Note_off_c, 5, 43, 0
6, 91440, Note_on_c, 5, 45, 45
6, 91680, Note_off_c, 5, 45, 0
6, 91680, Note_on_c, 5, 34, 44
6, 92160, Note_off_c, 5, 34, 0
6, 92160, Note_on_c, 5, 32, 46
6, 92640, Note_off_c, 5, 32, 0
6, 92640, Note_on_c, 5, 31, 48
6, 93120, Note_off_c, 5, 31, 0
6, 93120, Note_on_c, 5, 30, 50
6, 93600, Note_off_c, 5, 30, 0
6, 93600, Note_on_c, 5, 29, 52
6, 94080, Note_off_c, 5, 29, 0
6, 94080, Note_on_c, 5, 53, 55
6, 94236, Note_off_c, 5, 53, 0
6, 94560, Note_on_c, 5, 58, 49
6, 94716, Note_off_c, 5, 58, 0
6, 95160, Note_on_c, 5, 55, 81
6, 95280, Note_off_c, 5, 55, 0
6, 95280, Note_on_c, 5, 58, 81
6, 95400, Note_off_c, 5, 58, 0
6, 95400, Note_on_c, 5, 55, 82
6, 95520, Control_c, 5, 64, 0
6, 95520, Note_off_c, 5, 55, 0
6, 95640, Note_on_c, 5, 55, 84
6, 95760, Note_off_c, 5, 55, 0
6, 95760, Note_on_c, 5, 58, 84
6, 95880, Note_off_c, 5, 58, 0
6, 95880, Note_on_c, 5, 55, 85
6, 96000, Note_off_c, 5, 55, 0
6, 96120, Note_on_c, 5, 55, 87
6, 96240, Note_off_c, 5, 55, 0
6, 96240, Note_on_c, 5, 58, 87
6, 96360, Note_off_c, 5, 58, 0
6, 96360, Note_on_c, 5, 55, 88
6, 96480, Note_off_c, 5, 55, 0
6, 96600, Note_on_c, 5, 60, 90
6, 96720, Note_off_c, 5, 60, 0
6, 96720, Note_on_c, 5, 58, 89
6, 96840, Note_off_c, 5, 58, 0
6, 96840, Note_on_c, 5, 57, 88
6, 96960, Note_off_c, 5, 57, 0
6, 96960, Note_on_c, 5, 55, 87
6, 97080, Note_off_c, 5, 55, 0
6, 97080, Note_on_c, 5, 57, 86
6, 97200, Note_off_c, 5, 57, 0
6, 97200, Note_on_c, 5, 58, 85
6, 97320, Note_off_c, 5, 58, 0
6, 97320, Note_on_c, 5, 55, 84
6, 97440, Note_off_c, 5, 55, 0
6, 97560, Note_on_c, 5, 62, 85
6, 97680, Note_off_c, 5, 62, 0
6, 97680, Note_on_c, 5, 60, 84
6, 97800, Note_off_c, 5, 60, 0
6, 97800, Note_on_c, 5, 58, 82
6, 97920, Note_off_c, 5, 58, 0
6, 97920, Note_on_c, 5, 57, 81
6, 98040, Note_off_c, 5, 57, 0
6, 98040, Note_on_c, 5, 58, 79
6, 98160, Note_off_c, 5, 58, 0
6, 98160, Note_on_c, 5, 57, 78
6, 98280, Note_off_c, 5, 57, 0
6, 98280, Note_on_c, 5, 55, 76
6, 98400, Note_off_c, 5, 55, 0
6, 98400, Note_on_c, 5, 54, 75
6, 98520, Note_off_c, 5, 54, 0
6, 98520, Note_on_c, 5, 55, 73
6, 98640, Note_off_c, 5, 55, 0
6, 98640, Note_on_c, 5, 57, 71
6, 98760, Note_off_c, 5, 57, 0
6, 98760, Note_on_c, 5, 54, 70
6, 98880, Note_off_c, 5, 54, 0
6, 98880, Note_on_c, 5, 50, 68
6, 99036, Note_off_c, 5, 50, 0
6, 99120, Note_on_c, 5, 59, 44
6, 99360, Note_off_c, 5, 59, 0
6, 99360, Note_on_c, 5, 60, 45
6, 99600, Note_off_c, 5, 60, 0
6, 99600, Note_on_c, 5, 59, 45
6, 99840, Note_off_c, 5, 59, 0
6, 99840, Note_on_c, 5, 60, 46
6, 100080, Note_off_c, 5, 60, 0
6, 100080, Note_on_c, 5, 62, 47
6, 100320, Note_off_c, 5, 62, 0
6, 100320, Note_on_c, 5, 63, 48
6, 100560, Note_off_c, 5, 63, 0
6, 100560, Note_on_c, 5, 62, 49
6, 100800, Note_off_c, 5, 62, 0
6, 100800, Note_on_c, 5, 63, 49
6, 100992, Note_off_c, 5, 63, 0
6, 101040, Note_on_c, 5, 59, 50
6, 101280, Note_off_c, 5, 59, 0
6, 101280, Note_on_c, 5, 60, 53
6, 101472, Note_off_c, 5, 60, 0
6, 101520, Note_on_c, 5, 60, 51
6, 101712, Note_off_c, 5, 60, 0
6, 101760, Note_on_c, 5, 62, 50
6, 102000, Note_off_c, 5, 62, 0
6, 102000, Note_on_c, 5, 63, 48
6, 102192, Note_off_c, 5, 63, 0
6, 102240, Note_on_c, 5, 63, 49
6, 102480, Note_off_c, 5, 63, 0
6, 102480, Note_on_c, 5, 62, 46
6, 102672, Note_off_c, 5, 62, 0
6, 102720, Note_on_c, 5, 62, 42
6, 102816, Note_off_c, 5, 62, 0
6, 102840, Note_on_c, 5, 55, 74
6, 102960, Note_off_c, 5, 55, 0
6, 102960, Note_on_c, 5, 58, 75
6, 103080, Note_off_c, 5, 58, 0
6, 103080, Note_on_c, 5, 55, 76
6, 103200, Note_off_c, 5, 55, 0
6, 103320, Note_on_c, 5, 55, 79
6, 103440, Note_off_c, 5, 55, 0
6, 103440, Note_on_c, 5, 58, 80
6, 103560, Note_off_c, 5, 58, 0
6, 103560, Note_on_c, 5, 55, 81
6, 103680, Note_off_c, 5, 55, 0
6, 103800, Note_on_c, 5, 55, 83
6, 103920, Note_off_c, 5, 55, 0
6, 103920, Note_on_c, 5, 58, 84
6, 104040, Note_off_c, 5, 58, 0
6, 104040, Note_on_c, 5, 55, 85
6, 104160, Note_off_c, 5, 55, 0
6, 104280, Note_on_c, 5, 60, 88
6, 104400, Note_off_c, 5, 60, 0
6, 104400, Note_on_c, 5, 58, 87
6, 104520, Note_off_c, 5, 58, 0
6, 104520, Note_on_c, 5, 57, 86
6, 104640, Note_off_c, 5, 57, 0
6, 104640, Note_on_c, 5, 55, 85
6, 104760, Note_off_c, 5, 55, 0
6, 104760, Note_on_c, 5, 57, 84
6, 104880, Note_off_c, 5, 57, 0
6, 104880, Note_on_c, 5, 58, 83
6, 105000, Note_off_c, 5, 58, 0
6, 105000, Note_on_c, 5, 55, 82
6, 105120, Note_off_c, 5, 55, 0
6, 105240, Note_on_c, 5, 62, 85
6, 105360, Note_off_c, 5, 62, 0
6, 105360, Note_on_c, 5, 60, 84
6, 105480, Note_off_c, 5, 60, 0
6, 105480, Note_on_c, 5, 58, 82
6, 105600, Note_off_c, 5, 58, 0
6, 105600, Note_on_c, 5, 57, 81
6, 105720, Note_off_c, 5, 57, 0
6, 105720, Note_on_c, 5, 58, 79
6, 105840, Note_off_c, 5, 58, 0
6, 105840, Note_on_c, 5, 57, 78
6, 105960, Note_off_c, 5, 57, 0
6, 105960, Note_on_c, 5, 55, 76
6, 106080, Note_off_c, 5, 55, 0
6, 106080, Note_on_c, 5, 54, 75
6, 106200, Note_off_c, 5, 54, 0
6, 106200, Note_on_c, 5, 55, 73
6, 106320, Note_off_c, 5, 55, 0
6, 106320, Note_on_c, 5, 57, 72
6, 106440, Note_off_c, 5, 57, 0
6, 106440, Note_on_c, 5, 54, 70
6, 106560, Note_off_c, 5, 54, 0
6, 106560, Note_on_c, 5, 50, 69
6, 106716, Note_off_c, 5, 50, 0
6, 106800, Note_on_c, 5, 59, 42
6, 107040, Note_off_c, 5, 59, 0
6, 107040, Note_on_c, 5, 60, 43
6, 107280, Note_off_c, 5, 60, 0
6, 107280, Note_on_c, 5, 59, 44
6, 107520, Note_off_c, 5, 59, 0
6, 107520, Note_on_c, 5, 60, 45
6, 107760, Note_off_c, 5, 60, 0
6, 107760, Note_on_c, 5, 62, 46
6, 108000, Note_off_c, 5, 62, 0
6, 108000, Note_on_c, 5, 63, 47
6, 108240, Note_off_c, 5, 63, 0
6, 108240, Note_on_c, 5, 62, 48
6, 108480, Note_off_c, 5, 62, 0
6, 108480, Note_on_c, 5, 63, 49
6, 108672, Note_off_c, 5, 63, 0
6, 108720, Note_on_c, 5, 59, 50
6, 108960, Note_off_c, 5, 59, 0
6, 108960, Note_on_c, 5, 60, 51
6, 109200, Note_off_c, 5, 60, 0
6, 109200, Note_on_c, 5, 63, 49
6, 109440, Note_off_c, 5, 63, 0
6, 109440, Note_on_c, 5, 65, 48
6, 109680, Note_off_c, 5, 65, 0
6, 109680, Note_on_c, 5, 53, 46
6, 109872, Note_off_c, 5, 53, 0
6, 109920, Note_on_c, 5, 58, 49
6, 110350, Note_off_c, 5, 58, 0
6, 111360, Note_on_c, 5, 41, 85
6, 113280, Note_on_c, 5, 33, 55
6, 114480, Note_off_c, 5, 33, 0
6, 114480, Note_on_c, 5, 34, 51
6, 114720, Note_off_c, 5, 34, 0
6, 114720, Note_on_c, 5, 36, 50
6, 115440, Note_off_c, 5, 36, 0
6, 115440, Note_on_c, 5, 38, 48
6, 115680, Note_off_c, 5, 38, 0
6, 115680, Note_on_c, 5, 39, 47
6, 115912, Note_off_c, 5, 41, 0
6, 115920, Note_off_c, 5, 39, 0
6, 115920, Note_on_c, 5, 41, 46
6, 116160, Note_off_c, 5, 41, 0
6, 116160, Note_on_c, 5, 43, 45
6, 116400, Note_off_c, 5, 43, 0
6, 116400, Note_on_c, 5, 45, 45
6, 116640, Note_off_c, 5, 45, 0
6, 116640, Note_on_c, 5, 34, 44
6, 117120, Note_off_c, 5, 34, 0
6, 117120, Note_on_c, 5, 32, 46
6, 117600, Note_off_c, 5, 32, 0
6, 117600, Note_on_c, 5, 31, 48
6, 118080, Note_off_c, 5, 31, 0
6, 118080, Note_on_c, 5, 30, 50
6, 118560, Note_off_c, 5, 30, 0
6, 118560, Note_on_c, 5, 29, 52
6, 119040, Note_off_c, 5, 29, 0
6, 119040, Note_on_c, 5, 53, 55
6, 119196, Note_off_c, 5, 53, 0
6, 119520, Note_on_c, 5, 58, 49
6, 119676, Note_off_c, 5, 58, 0
6, 119760, Note_on_c, 5, 65, 54
6, 120240, Note_off_c, 5, 65, 0
6, 120240, Note_on_c, 5, 63, 47
6, 120360, Note_off_c, 5, 63, 0
6, 120360, Note_on_c, 5, 60, 46
6, 120480, Control_c, 5, 64, 0
6, 120480, Note_off_c, 5, 60, 0
6, 120480, Note_on_c, 5, 58, 44
6, 120672, Note_off_c, 5, 58, 0
6, 120720, Note_on_c, 5, 57, 44
6, 120960, Note_off_c, 5, 57, 0
6, 120960, Note_on_c, 5, 55, 45
6, 121200, Note_off_c, 5, 55, 0
6, 121200, Note_on_c, 5, 54, 45
6, 121392, Note_off_c, 5, 54, 0
6, 142680, Note_on_c, 5, 51, 89
6, 142800, Note_off_c, 5, 51, 0
6, 142800, Note_on_c, 5, 55, 89
6, 142920, Note_off_c, 5, 55, 0
6, 142920, Note_on_c, 5, 51, 88
6, 143040, Note_off_c, 5, 51, 0
6, 143040, Note_on_c, 5, 58, 87
6, 143196, Note_off_c, 5, 58, 0
6, 143640, Note_on_c, 5, 50, 83
6, 143760, Note_off_c, 5, 50, 0
6, 143760, Note_on_c, 5, 53, 82
6, 143880, Note_off_c, 5, 53, 0
6, 143880, Note_on_c, 5, 50, 81
6, 144000, Note_off_c, 5, 50, 0
6, 144000, Note_on_c, 5, 58, 81
6, 144156, Note_off_c, 5, 58, 0
6, 144600, Note_on_c, 5, 51, 77
6, 144720, Note_off_c, 5, 51, 0
6, 144720, Note_on_c, 5, 55, 76
6, 144840, Note_off_c, 5, 55, 0
6, 144840, Note_on_c, 5, 51, 75
6, 144960, Note_off_c, 5, 51, 0
6, 144960, Note_on_c, 5, 58, 74
6, 145116, Note_off_c, 5, 58, 0
6, 145560, Note_on_c, 5, 50, 70
6, 145680, Note_off_c, 5, 50, 0
6, 145680, Note_on_c, 5, 53, 70
6, 145800, Note_off_c, 5, 53, 0
6, 145800, Note_on_c, 5, 50, 69
6, 145920, Note_off_c, 5, 50, 0
6, 145920, Note_on_c, 5, 58, 68
6, 146076, Note_off_c, 5, 58, 0
6, 147000, Note_on_c, 5, 55, 70
6, 147120, Note_off_c, 5, 55, 0
6, 147120, Note_on_c, 5, 58, 70
6, 147240, Note_off_c, 5, 58, 0
6, 147240, Note_on_c, 5, 55, 70
6, 147360, Note_off_c, 5, 55, 0
6, 147360, Note_on_c, 5, 54, 70
6, 147516, Note_off_c, 5, 54, 0
6, 147960, Note_on_c, 5, 53, 71
6, 148080, Note_off_c, 5, 53, 0
6, 148080, Note_on_c, 5, 56, 72
6, 148200, Note_off_c, 5, 56, 0
6, 148200, Note_on_c, 5, 53, 72
6, 148320, Note_off_c, 5, 53, 0
6, 148320, Note_on_c, 5, 52, 72
6, 148476, Note_off_c, 5, 52, 0
6, 148920, Note_on_c, 5, 51, 73
6, 149040, Note_off_c, 5, 51, 0
6, 149040, Note_on_c, 5, 55, 73
6, 149160, Note_off_c, 5, 55, 0
6, 149160, Note_on_c, 5, 51, 73
6, 149280, Note_off_c, 5, 51, 0
6, 149280, Note_on_c, 5, 50, 74
6, 149436, Note_off_c, 5, 50, 0
6, 149880, Note_on_c, 5, 42, 75
6, 150000, Note_off_c, 5, 42, 0
6, 150000, Note_on_c, 5, 50, 75
6, 150120, Note_off_c, 5, 50, 0
6, 150120, Note_on_c, 5, 42, 75
6, 150240, Note_off_c, 5, 42, 0
6, 150240, Note_on_c, 5, 49, 76
6, 150480, Note_off_c, 5, 49, 0
6, 150480, Note_on_c, 5, 49, 79
6, 150720, Note_off_c, 5, 49, 0
6, 150720, Note_on_c, 5, 50, 82
6, 150960, Note_off_c, 5, 50, 0
6, 150960, Note_on_c, 5, 50, 85
6, 151200, Note_off_c, 5, 50, 0
6, 151200, Note_on_c, 5, 51, 91
6, 151440, Note_off_c, 5, 51, 0
6, 151440, Note_on_c, 5, 51, 88
6, 151680, Note_off_c, 5, 51, 0
6, 151680, Note_on_c, 5, 50, 84
6, 151920, Note_off_c, 5, 50, 0
6, 151920, Note_on_c, 5, 50, 81
6, 152160, Note_off_c, 5, 50, 0
6, 152160, Note_on_c, 5, 49, 76
6, 152400, Note_off_c, 5, 49, 0
6, 152400, Note_on_c, 5, 49, 80
6, 152640, Note_off_c, 5, 49, 0
6, 152640, Note_on_c, 5, 50, 84
6, 152880, Note_off_c, 5, 50, 0
6, 152880, Note_on_c, 5, 50, 89
6, 153120, Note_off_c, 5, 50, 0
6, 153120, Note_on_c, 5, 51, 95
6, 153360, Note_off_c, 5, 51, 0
6, 153360, Note_on_c, 5, 51, 91
6, 153600, Note_off_c, 5, 51, 0
6, 153600, Note_on_c, 5, 50, 87
6, 153840, Note_off_c, 5, 50, 0
6, 153840, Note_on_c, 5, 50, 84
6, 154080, Note_off_c, 5, 50, 0
6, 154080, Note_on_c, 5, 56, 89
6, 155520, Note_off_c, 5, 56, 0
6, 155520, Note_on_c, 5, 47, 91
6, 156000, Note_off_c, 5, 47, 0
6, 156000, Note_on_c, 5, 44, 84
6, 157440, Note_off_c, 5, 44, 0
6, 157440, Note_on_c, 5, 35, 92
6, 157800, Note_off_c, 5, 35, 0
6, 157920, Note_on_c, 5, 36, 84
6, 158280, Note_off_c, 5, 36, 0
6, 158400, Note_on_c, 5, 36, 87
6, 158760, Note_off_c, 5, 36, 0
6, 158880, Note_on_c, 5, 36, 89
6, 159360, Note_off_c, 5, 36, 0
6, 159360, Note_on_c, 5, 38, 92
6, 159720, Note_off_c, 5, 38, 0
6, 159840, Note_on_c, 5, 38, 95
6, 160320, Note_off_c, 5, 38, 0
6, 160320, Note_on_c, 5, 40, 97
6, 160800, Note_off_c, 5, 40, 0
6, 160800, Note_on_c, 5, 42, 100
6, 161280, Note_off_c, 5, 42, 0
6, 161280, Note_on_c, 5, 43, 102
6, 161640, Note_off_c, 5, 43, 0
6, 161760, Note_on_c, 5, 36, 107
6, 162240, Note_off_c, 5, 36, 0
6, 162240, Note_on_c, 5, 37, 102
6, 162720, Note_off_c, 5, 37, 0
6, 162720, Note_on_c, 5, 36, 98
6, 163200, Note_off_c, 5, 36, 0
6, 163200, Note_on_c, 5, 32, 93
6, 163680, Note_off_c, 5, 32, 0
6, 163680, Note_on_c, 5, 36, 89
6, 164160, Note_off_c, 5, 36, 0
6, 164160, Note_on_c, 5, 39, 84
6, 164640, Note_off_c, 5, 39, 0
6, 164640, Note_on_c, 5, 38, 80
6, 165120, Note_off_c, 5, 38, 0
6, 165120, Note_on_c, 5, 31, 75
6, 165480, Note_off_c, 5, 31, 0
6, 165600, Note_on_c, 5, 48, 71
6, 166080, Note_off_c, 5, 48, 0
6, 166080, Note_on_c, 5, 49, 67
6, 166560, Note_off_c, 5, 49, 0
6, 166560, Note_on_c, 5, 48, 64
6, 167040, Note_off_c, 5, 48, 0
6, 167040, Note_on_c, 5, 44, 61
6, 167400, Note_off_c, 5, 44, 0
6, 167520, Note_on_c, 5, 48, 59
6, 168000, Note_off_c, 5, 48, 0
6, 168000, Note_on_c, 5, 39, 56
6, 168480, Note_off_c, 5, 39, 0
6, 168480, Note_on_c, 5, 38, 53
6, 168960, Note_off_c, 5, 38, 0
6, 168960, Note_on_c, 5, 31, 51
6, 169320, Note_off_c, 5, 31, 0
6, 169440, Note_on_c, 5, 43, 48
6, 170400, Note_off_c, 5, 43, 0
6, 170400, Note_on_c, 5, 51, 50
6, 170880, Note_off_c, 5, 51, 0
6, 170880, Note_on_c, 5, 48, 51
6, 171360, Note_off_c, 5, 48, 0
6, 171360, Note_on_c, 5, 43, 53
6, 171840, Note_off_c, 5, 43, 0
6, 171840, Note_on_c, 5, 67, 54
6, 172320, Note_off_c, 5, 67, 0
6, 172320, Note_on_c, 5, 67, 47
6, 172476, Note_off_c, 5, 67, 0
6, 173280, Note_on_c, 5, 55, 40
6, 174240, Note_off_c, 5, 55, 0
6, 174240, Note_on_c, 5, 51, 45
6, 174720, Note_off_c, 5, 51, 0
6, 174720, Note_on_c, 5, 48, 47
6, 175080, Note_off_c, 5, 48, 0
6, 175200, Note_on_c, 5, 55, 50
6, 175680, Note_off_c, 5, 55, 0
6, 175680, Note_on_c, 5, 67, 49
6, 176160, Note_off_c, 5, 67, 0
6, 176160, Note_on_c, 5, 67, 43
6, 176316, Note_off_c, 5, 67, 0
6, 176400, Note_on_c, 5, 62, 45
6, 176556, Note_off_c, 5, 62, 0
6, 176640, Note_on_c, 5, 62, 46
6, 176796, Note_off_c, 5, 62, 0
6, 176880, Note_on_c, 5, 62, 48
6, 177036, Note_off_c, 5, 62, 0
6, 177120, Note_on_c, 5, 62, 50
6, 177276, Note_off_c, 5, 62, 0
6, 177360, Note_on_c, 5, 70, 58
6, 177840, Note_off_c, 5, 70, 0
6, 177840, Note_on_c, 5, 69, 48
6, 177960, Note_off_c, 5, 69, 0
6, 177960, Note_on_c, 5, 66, 44
6, 178080, Note_off_c, 5, 66, 0
6, 178080, Note_on_c, 5, 67, 41
6, 178236, Note_off_c, 5, 67, 0
6, 179280, Note_on_c, 5, 38, 52
6, 179436, Note_off_c, 5, 38, 0
6, 179520, Note_on_c, 5, 38, 48
6, 179676, Note_off_c, 5, 38, 0
6, 179760, Note_on_c, 5, 38, 44
6, 179916, Note_off_c, 5, 38, 0
6, 180000, Note_on_c, 5, 43, 39
6, 180156, Note_off_c, 5, 43, 0
6, 181920, Note_on_c, 5, 39, 44
6, 183840, Note_off_c, 5, 39, 0
6, 183840, Note_on_c, 5, 39, 50
6, 184032, Note_off_c, 5, 39, 0
6, 184080, Note_on_c, 5, 39, 53
6, 184320, Note_off_c, 5, 39, 0
6, 184320, Note_on_c, 5, 38, 46
6, 184512, Note_off_c, 5, 38, 0
6, 184560, Note_on_c, 5, 39, 48
6, 184680, Note_off_c, 5, 39, 0
6, 184680, Note_on_c, 5, 41, 49
6, 184800, Note_off_c, 5, 41, 0
6, 184800, Note_on_c, 5, 43, 50
6, 185280, Note_off_c, 5, 43, 0
6, 185280, Note_on_c, 5, 41, 51
6, 185400, Note_off_c, 5, 41, 0
6, 185400, Note_on_c, 5, 43, 50
6, 185520, Note_off_c, 5, 43, 0
6, 185520, Note_on_c, 5, 44, 52
6, 186000, Note_off_c, 5, 44, 0
6, 186000, Note_on_c, 5, 46, 53
6, 186120, Note_off_c, 5, 46, 0
6, 186120, Note_on_c, 5, 48, 52
6, 186240, Note_off_c, 5, 48, 0
6, 186240, Note_on_c, 5, 48, 52
6, 186480, Note_off_c, 5, 48, 0
6, 186480, Note_on_c, 5, 50, 54
6, 186720, Note_off_c, 5, 50, 0
6, 186720, Note_on_c, 5, 51, 56
6, 186840, Note_off_c, 5, 51, 0
6, 186840, Note_on_c, 5, 44, 57
6, 186960, Note_off_c, 5, 44, 0
6, 186960, Note_on_c, 5, 46, 57
6, 187143, Note_off_c, 5, 46, 0
6, 187200, Note_on_c, 5, 58, 61
6, 187560, Note_off_c, 5, 58, 0
6, 187560, Note_on_c, 5, 56, 50
6, 187680, Note_off_c, 5, 56, 0
6, 187680, Note_on_c, 5, 51, 52
6, 188400, Note_off_c, 5, 51, 0
6, 188400, Note_on_c, 5, 51, 52
6, 189120, Note_off_c, 5, 51, 0
6, 189120, Note_on_c, 5, 51, 55
6, 189312, Note_off_c, 5, 51, 0
6, 189360, Note_on_c, 5, 51, 55
6, 189600, Note_off_c, 5, 51, 0
6, 189600, Note_on_c, 5, 51, 56
6, 189792, Note_off_c, 5, 51, 0
6, 189840, Note_on_c, 5, 51, 57
6, 190080, Note_off_c, 5, 51, 0
6, 190080, Note_on_c, 5, 50, 50
6, 190272, Note_off_c, 5, 50, 0
6, 190320, Note_on_c, 5, 51, 49
6, 190440, Note_off_c, 5, 51, 0
6, 190440, Note_on_c, 5, 53, 51
6, 190560, Note_off_c, 5, 53, 0
6, 190560, Note_on_c, 5, 55, 53
6, 191280, Note_off_c, 5, 55, 0
6, 191280, Note_on_c, 5, 56, 54
6, 192000, Note_off_c, 5, 56, 0
6, 192000, Note_on_c, 5, 58, 68
6, 192240, Note_off_c, 5, 58, 0
6, 192240, Note_on_c, 5, 58, 60
6, 192432, Note_off_c, 5, 58, 0
6, 192480, Note_on_c, 5, 58, 54
6, 192672, Note_off_c, 5, 58, 0
6, 192720, Note_on_c, 5, 58, 52
6, 192960, Note_off_c, 5, 58, 0
6, 192960, Note_on_c, 5, 63, 48
6, 193152, Note_off_c, 5, 63, 0
6, 193200, Note_on_c, 5, 34, 48
6, 193356, Note_off_c, 5, 34, 0
6, 193440, Note_on_c, 5, 34, 49
6, 194640, Note_off_c, 5, 34, 0
6, 194640, Note_on_c, 5, 34, 52
6, 194796, Note_off_c, 5, 34, 0
6, 194880, Note_on_c, 5, 34, 52
6, 196080, Note_off_c, 5, 34, 0
6, 196080, Note_on_c, 5, 34, 57
6, 196236, Note_off_c, 5, 34, 0
6, 196320, Note_on_c, 5, 34, 60
6, 196512, Note_off_c, 5, 34, 0
6, 196560, Note_on_c, 5, 34, 63
6, 196752, Note_off_c, 5, 34, 0
6, 196800, Note_on_c, 5, 34, 66
6, 196992, Note_off_c, 5, 34, 0
6, 197040, Note_on_c, 5, 34, 69
6, 197232, Note_off_c, 5, 34, 0
6, 197280, Note_on_c, 5, 34, 64
6, 197472, Note_off_c, 5, 34, 0
6, 197520, Note_on_c, 5, 34, 60
6, 197712, Note_off_c, 5, 34, 0
6, 197760, Note_on_c, 5, 34, 56
6, 197952, Note_off_c, 5, 34, 0
6, 198000, Note_on_c, 5, 34, 52
6, 198240, Note_off_c, 5, 34, 0
6, 198240, Note_on_c, 5, 36, 48
6, 198432, Note_off_c, 5, 36, 0
6, 198480, Control_c, 5, 64, 127
6, 198480, Note_on_c, 5, 38, 50
6, 198540, Note_off_c, 5, 38, 0
6, 198540, Note_on_c, 5, 41, 49
6, 198600, Note_off_c, 5, 41, 0
6, 198600, Note_on_c, 5, 44, 49
6, 198660, Note_off_c, 5, 44, 0
6, 198660, Note_on_c, 5, 46, 48
6, 198720, Note_off_c, 5, 46, 0
6, 198720, Note_on_c, 5, 50, 48
6, 198760, Note_off_c, 5, 50, 0
6, 198760, Note_on_c, 5, 53, 47
6, 198800, Note_off_c, 5, 53, 0
6, 198800, Note_on_c, 5, 56, 47
6, 198840, Note_off_c, 5, 56, 0
6, 198840, Note_on_c, 5, 62, 47
6, 198880, Note_off_c, 5, 62, 0
6, 198880, Note_on_c, 5, 65, 46
6, 198920, Note_off_c, 5, 65, 0
6, 198920, Note_on_c, 5, 68, 46
6, 198960, Note_off_c, 5, 68, 0
6, 200580, Control_c, 5, 64, 0
6, 200640, Control_c, 5, 64, 127
6, 200640, Note_on_c, 5, 39, 46
6, 200700, Note_off_c, 5, 39, 0
6, 200700, Note_on_c, 5, 43, 47
6, 200760, Note_off_c, 5, 43, 0
6, 200760, Note_on_c, 5, 46, 48
6, 200820, Note_off_c, 5, 46, 0
6, 200820, Note_on_c, 5, 51, 49
6, 200877, Note_off_c, 5, 51, 0
6, 200880, Note_on_c, 5, 55, 49
6, 200920, Note_off_c, 5, 55, 0
6, 200920, Note_on_c, 5, 58, 50
6, 200960, Note_off_c, 5, 58, 0
6, 200960, Note_on_c, 5, 63, 50
6, 201000, Note_off_c, 5, 63, 0
6, 201000, Note_on_c, 5, 67, 50
6, 201040, Note_off_c, 5, 67, 0
6, 202560, Control_c, 5, 64, 0
6, 202800, Note_on_c, 5, 53, 41
6, 203760, Note_off_c, 5, 53, 0
6, 209280, Note_on_c, 5, 63, 49
6, 211200, Note_off_c, 5, 63, 0
6, 211200, Note_on_c, 5, 63, 63
6, 211440, Note_off_c, 5, 63, 0
6, 211440, Note_on_c, 5, 63, 65
6, 211680, Note_off_c, 5, 63, 0
6, 211680, Note_on_c, 5, 62, 66
6, 211920, Note_off_c, 5, 62, 0
6, 211920, Note_on_c, 5, 63, 58
6, 212040, Note_off_c, 5, 63, 0
6, 212040, Note_on_c, 5, 65, 54
6, 212160, Note_off_c, 5, 65, 0
6, 212160, Note_on_c, 5, 67, 50
6, 212400, Note_off_c, 5, 67, 0
6, 212400, Note_on_c, 5, 67, 57
6, 212640, Note_off_c, 5, 67, 0
6, 212640, Note_on_c, 5, 67, 62
6, 212880, Note_off_c, 5, 67, 0
6, 212880, Note_on_c, 5, 68, 52
6, 213120, Note_off_c, 5, 68, 0
6, 213120, Note_on_c, 5, 68, 58
6, 213360, Note_off_c, 5, 68, 0
6, 213360, Note_on_c, 5, 68, 65
6, 213600, Note_off_c, 5, 68, 0
6, 213600, Note_on_c, 5, 70, 69
6, 214080, Note_off_c, 5, 70, 0
6, 214080, Note_on_c, 5, 70, 63
6, 214272, Note_off_c, 5, 70, 0
6, 214320, Note_on_c, 5, 70, 60
6, 214560, Note_off_c, 5, 70, 0
6, 214560, Note_on_c, 5, 75, 53
6, 214680, Note_off_c, 5, 75, 0
6, 214920, Note_on_c, 5, 58, 63
6, 215016, Note_off_c, 5, 58, 0
6, 215040, Note_on_c, 5, 58, 67
6, 215520, Note_off_c, 5, 58, 0
6, 215520, Note_on_c, 5, 58, 60
6, 215712, Note_off_c, 5, 58, 0
6, 215760, Note_on_c, 5, 58, 57
6, 216000, Note_off_c, 5, 58, 0
6, 216000, Note_on_c, 5, 63, 52
6, 216060, Note_off_c, 5, 63, 0
6, 216060, Note_on_c, 5, 57, 54
6, 216120, Note_off_c, 5, 57, 0
6, 216120, Note_on_c, 5, 58, 55
6, 216180, Note_off_c, 5, 58, 0
6, 216180, Note_on_c, 5, 54, 57
6, 216240, Note_off_c, 5, 54, 0
6, 216240, Note_on_c, 5, 55, 59
6, 216300, Note_off_c, 5, 55, 0
6, 216300, Note_on_c, 5, 50, 60
6, 216360, Note_off_c, 5, 50, 0
6, 216360, Note_on_c, 5, 51, 62
6, 216420, Note_off_c, 5, 51, 0
6, 216420, Note_on_c, 5, 48, 64
6, 216480, Note_off_c, 5, 48, 0
6, 216480, Note_on_c, 5, 46, 66
6, 216540, Note_off_c, 5, 46, 0
6, 216600, Note_on_c, 5, 44, 60
6, 216660, Note_off_c, 5, 44, 0
6, 216720, Note_on_c, 5, 44, 59
6, 216780, Note_off_c, 5, 44, 0
6, 216840, Note_on_c, 5, 43, 57
6, 216900, Note_off_c, 5, 43, 0
6, 216960, Note_on_c, 5, 44, 56
6, 217020, Note_off_c, 5, 44, 0
6, 217080, Note_on_c, 5, 41, 54
6, 217140, Note_off_c, 5, 41, 0
6, 217200, Note_on_c, 5, 41, 53
6, 217260, Note_off_c, 5, 41, 0
6, 217320, Note_on_c, 5, 43, 51
6, 217380, Note_off_c, 5, 43, 0
6, 217380, Note_on_c, 5, 41, 51
6, 217440, Note_off_c, 5, 41, 0
6, 217440, Note_on_c, 5, 39, 50
6, 217500, Note_off_c, 5, 39, 0
6, 217560, Note_on_c, 5, 41, 48
6, 217620, Note_off_c, 5, 41, 0
6, 217620, Note_on_c, 5, 39, 48
6, 217680, Note_off_c, 5, 39, 0
6, 217680, Note_on_c, 5, 41, 47
6, 217740, Note_off_c, 5, 41, 0
6, 217800, Note_on_c, 5, 43, 46
6, 217860, Note_off_c, 5, 43, 0
6, 217860, Note_on_c, 5, 41, 45
6, 217920, Note_off_c, 5, 41, 0
6, 217920, Note_on_c, 5, 39, 44
6, 218160, Note_off_c, 5, 39, 0
6, 218640, Note_on_c, 5, 39, 40
6, 219360, Note_off_c, 5, 39, 0
6, 219360, Note_on_c, 5, 39, 36
6, 220080, Note_off_c, 5, 39, 0
6, 220080, Note_on_c, 5, 39, 32
6, 220800, Note_off_c, 5, 39, 0
6, 220800, Note_on_c, 5, 39, 28
6, 221280, Note_off_c, 5, 39, 0
6, 223680, Control_c, 5, 64, 0
6, 223680, Note_on_c, 5, 42, 76
6, 223920, Note_off_c, 5, 42, 0
6, 224160, Note_on_c, 5, 42, 76
6, 224400, Note_off_c, 5, 42, 0
6, 224640, Note_on_c, 5, 35, 76
6, 224880, Note_off_c, 5, 35, 0
6, 225120, Note_on_c, 5, 38, 77
6, 225360, Note_off_c, 5, 38, 0
6, 225600, Note_on_c, 5, 35, 77
6, 225840, Note_off_c, 5, 35, 0
6, 226080, Note_on_c, 5, 34, 77
6, 226560, Note_off_c, 5, 34, 0
6, 226560, Note_on_c, 5, 35, 78
6, 226800, Note_off_c, 5, 35, 0
6, 226800, Note_on_c, 5, 37, 78
6, 227040, Note_off_c, 5, 37, 0
6, 227040, Note_on_c, 5, 35, 78
6, 227280, Note_off_c, 5, 35, 0
6, 227520, Note_on_c, 5, 42, 79
6, 227760, Note_off_c, 5, 42, 0
6, 228000, Note_on_c, 5, 42, 79
6, 228240, Note_off_c, 5, 42, 0
6, 228480, Note_on_c, 5, 35, 79
6, 228720, Note_off_c, 5, 35, 0
6, 228960, Note_on_c, 5, 38, 80
6, 229200, Note_off_c, 5, 38, 0
6, 229440, Note_on_c, 5, 35, 80
6, 229680, Note_off_c, 5, 35, 0
6, 229920, Note_on_c, 5, 34, 80
6, 230400, Note_off_c, 5, 34, 0
6, 230400, Note_on_c, 5, 35, 81
6, 230640, Note_off_c, 5, 35, 0
6, 230640, Note_on_c, 5, 37, 81
6, 230880, Note_off_c, 5, 37, 0
6, 230880, Note_on_c, 5, 35, 81
6, 231120, Note_off_c, 5, 35, 0
6, 231360, Note_on_c, 5, 30, 81
6, 231360, Note_on_c, 5, 42, 81
6, 231600, Note_off_c, 5, 42, 0
6, 231600, Note_off_c, 5, 30, 0
6, 231840, Note_on_c, 5, 31, 82
6, 231840, Note_on_c, 5, 43, 82
6, 232080, Note_off_c, 5, 43, 0
6, 232080, Note_off_c, 5, 31, 0
6, 232320, Note_on_c, 5, 47, 83
6, 232560, Note_off_c, 5, 47, 0
6, 232800, Note_on_c, 5, 50, 92
6, 233040, Note_off_c, 5, 50, 0
6, 233280, Note_on_c, 5, 47, 85
6, 233520, Note_off_c, 5, 47, 0
6, 233760, Note_on_c, 5, 52, 96
6, 234000, Note_off_c, 5, 52, 0
6, 234240, Note_on_c, 5, 48, 87
6, 234480, Note_off_c, 5, 48, 0
6, 234720, Note_on_c, 5, 50, 97
6, 234960, Note_off_c, 5, 50, 0
6, 235200, Note_on_c, 5, 55, 88
6, 235440, Note_off_c, 5, 55, 0
6, 235680, Note_on_c, 5, 59, 99
6, 235920, Note_off_c, 5, 59, 0
6, 236160, Note_on_c, 5, 62, 90
6, 236400, Note_off_c, 5, 62, 0
6, 236640, Note_on_c, 5, 67, 105
6, 236880, Note_off_c, 5, 67, 0
6, 237120, Note_on_c, 5, 31, 59
6, 237120, Note_on_c, 5, 43, 59
6, 237360, Note_off_c, 5, 43, 0
6, 237360, Note_off_c, 5, 31, 0
6, 237600, Note_on_c, 5, 43, 53
6, 237600, Note_on_c, 5, 31, 53
6, 237840, Note_off_c, 5, 31, 0
6, 237840, Note_off_c, 5, 43, 0
6, 238080, Note_on_c, 5, 43, 47
6, 238080, Note_on_c, 5, 31, 47
6, 238320, Note_off_c, 5, 31, 0
6, 238320, Note_off_c, 5, 43, 0
6, 238560, Note_on_c, 5, 31, 41
6, 238560, Note_on_c, 5, 43, 41
6, 238800, Note_off_c, 5, 43, 0
6, 238800, Note_off_c, 5, 31, 0
6, 239040, Control_c, 5, 64, 0
6, 239040, Note_on_c, 5, 42, 76
6, 239280, Note_off_c, 5, 42, 0
6, 239520, Note_on_c, 5, 42, 76
6, 239760, Note_off_c, 5, 42, 0
6, 240000, Note_on_c, 5, 35, 76
6, 240240, Note_off_c, 5, 35, 0
6, 240480, Note_on_c, 5, 38, 77
6, 240720, Note_off_c, 5, 38, 0
6, 240960, Note_on_c, 5, 35, 77
6, 241200, Note_off_c, 5, 35, 0
6, 241440, Note_on_c, 5, 34, 77
6, 241920, Note_off_c, 5, 34, 0
6, 241920, Note_on_c, 5, 35, 78
6, 242160, Note_off_c, 5, 35, 0
6, 242160, Note_on_c, 5, 37, 78
6, 242400, Note_off_c, 5, 37, 0
6, 242400, Note_on_c, 5, 35, 78
6, 242640, Note_off_c, 5, 35, 0
6, 242880, Note_on_c, 5, 42, 79
6, 243120, Note_off_c, 5, 42, 0
6, 243360, Note_on_c, 5, 42, 79
6, 243600, Note_off_c, 5, 42, 0
6, 243840, Note_on_c, 5, 35, 79
6, 244080, Note_off_c, 5, 35, 0
6, 244320, Note_on_c, 5, 38, 80
6, 244560, Note_off_c, 5, 38, 0
6, 244800, Note_on_c, 5, 35, 80
6, 245040, Note_off_c, 5, 35, 0
6, 245280, Note_on_c, 5, 34, 80
6, 245760, Note_off_c, 5, 34, 0
6, 245760, Note_on_c, 5, 35, 81
6, 246000, Note_off_c, 5, 35, 0
6, 246000, Note_on_c, 5, 37, 81
6, 246240, Note_off_c, 5, 37, 0
6, 246240, Note_on_c, 5, 35, 81
6, 246480, Note_off_c, 5, 35, 0
6, 246720, Note_on_c, 5, 42, 81
6, 246720, Note_on_c, 5, 30, 81
6, 246960, Note_off_c, 5, 30, 0
6, 246960, Note_off_c, 5, 42, 0
6, 247200, Note_on_c, 5, 43, 82
6, 247200, Note_on_c, 5, 31, 82
6, 247440, Note_off_c, 5, 31, 0
6, 247440, Note_off_c, 5, 43, 0
6, 247680, Note_on_c, 5, 47, 83
6, 247920, Note_off_c, 5, 47, 0
6, 248160, Note_on_c, 5, 50, 92
6, 248400, Note_off_c, 5, 50, 0
6, 248640, Note_on_c, 5, 47, 85
6, 248880, Note_off_c, 5, 47, 0
6, 249120, Note_on_c, 5, 52, 96
6, 249360, Note_off_c, 5, 52, 0
6, 249600, Note_on_c, 5, 48, 87
6, 249840, Note_off_c, 5, 48, 0
6, 250080, Note_on_c, 5, 50, 97
6, 250320, Note_off_c, 5, 50, 0
6, 250560, Note_on_c, 5, 55, 88
6, 250800, Note_off_c, 5, 55, 0
6, 251040, Note_on_c, 5, 59, 99
6, 251280, Note_off_c, 5, 59, 0
6, 251520, Note_on_c, 5, 62, 90
6, 251760, Note_off_c, 5, 62, 0
6, 252000, Note_on_c, 5, 67, 105
6, 252240, Note_off_c, 5, 67, 0
6, 252480, Note_on_c, 5, 43, 59
6, 252480, Note_on_c, 5, 31, 59
6, 252720, Note_off_c, 5, 31, 0
6, 252720, Note_off_c, 5, 43, 0
6, 252960, Note_on_c, 5, 31, 53
6, 252960, Note_on_c, 5, 43, 53
6, 253200, Note_off_c, 5, 43, 0
6, 253200, Note_off_c, 5, 31, 0
6, 253440, Note_on_c, 5, 31, 47
6, 253440, Note_on_c, 5, 43, 47
6, 253680, Note_off_c, 5, 43, 0
6, 253680, Note_off_c, 5, 31, 0
6, 253920, Note_on_c, 5, 43, 41
6, 253920, Note_on_c, 5, 31, 41
6, 254160, Note_off_c, 5, 31, 0
6, 254160, Note_off_c, 5, 43, 0
6, 254400, Control_c, 5, 64, 0
6, 254400, Note_on_c, 5, 35, 78
6, 254640, Note_off_c, 5, 35, 0
6, 254880, Note_on_c, 5, 35, 78
6, 255600, Note_off_c, 5, 35, 0
6, 255840, Note_on_c, 5, 40, 79
6, 256560, Note_off_c, 5, 40, 0
6, 256800, Note_on_c, 5, 42, 81
6, 257280, Note_off_c, 5, 42, 0
6, 257280, Note_on_c, 5, 40, 81
6, 257520, Note_off_c, 5, 40, 0
6, 257520, Note_on_c, 5, 39, 81
6, 257760, Note_off_c, 5, 39, 0
6, 257760, Note_on_c, 5, 40, 82
6, 258000, Note_off_c, 5, 40, 0
6, 258240, Note_on_c, 5, 47, 82
6, 258480, Note_off_c, 5, 47, 0
6, 258720, Note_on_c, 5, 47, 83
6, 258960, Note_off_c, 5, 47, 0
6, 259200, Note_on_c, 5, 40, 84
6, 259440, Note_off_c, 5, 40, 0
6, 259680, Note_on_c, 5, 43, 84
6, 259920, Note_off_c, 5, 43, 0
6, 260160, Note_on_c, 5, 40, 85
6, 260400, Note_off_c, 5, 40, 0
6, 260640, Note_on_c, 5, 38, 86
6, 261600, Note_off_c, 5, 38, 0
6, 261600, Note_on_c, 5, 31, 68
6, 262560, Note_off_c, 5, 31, 0
6, 262560, Note_on_c, 5, 36, 44
6, 263520, Note_off_c, 5, 36, 0
6, 263520, Note_on_c, 5, 31, 49
6, 264480, Note_off_c, 5, 31, 0
6, 264480, Note_on_c, 5, 36, 54
6, 265440, Note_off_c, 5, 36, 0
6, 265440, Note_on_c, 5, 31, 59
6, 266400, Note_off_c, 5, 31, 0
6, 266400, Note_on_c, 5, 36, 64
6, 267360, Note_off_c, 5, 36, 0
6, 267360, Note_on_c, 5, 31, 69
6, 268320, Note_off_c, 5, 31, 0
6, 268320, Note_on_c, 5, 31, 74
6, 269280, Note_off_c, 5, 31, 0
6, 269280, Note_on_c, 5, 36, 79
6, 269520, Note_off_c, 5, 36, 0
6, 270240, Note_on_c, 5, 55, 56
6, 271200, Note_off_c, 5, 55, 0
6, 271200, Note_on_c, 5, 50, 63
6, 272160, Note_off_c, 5, 50, 0
6, 272160, Note_on_c, 5, 55, 70
6, 273120, Note_off_c, 5, 55, 0
6, 273120, Note_on_c, 5, 50, 77
6, 274080, Note_off_c, 5, 50, 0
6, 274080, Note_on_c, 5, 55, 83
6, 275040, Note_off_c, 5, 55, 0
6, 275040, Note_on_c, 5, 50, 90
6, 276000, Note_off_c, 5, 50, 0
6, 276000, Note_on_c, 5, 55, 97
6, 276960, Note_off_c, 5, 55, 0
6, 276960, Note_on_c, 5, 55, 104
6, 277200, Note_off_c, 5, 55, 0
6, 277440, Note_on_c, 5, 42, 107
6, 277440, Note_on_c, 5, 30, 107
6, 277680, Note_off_c, 5, 30, 0
6, 277680, Note_off_c, 5, 42, 0
6, 277920, Note_on_c, 5, 30, 111
6, 277920, Note_on_c, 5, 42, 111
6, 279840, Note_off_c, 5, 42, 0
6, 279840, Note_off_c, 5, 30, 0
6, 281280, Note_on_c, 5, 43, 43
6, 281520, Note_off_c, 5, 43, 0
6, 281760, Note_on_c, 5, 43, 45
6, 282720, Note_on_c, 5, 52, 47
6, 283680, Note_off_c, 5, 52, 0
6, 283680, Note_on_c, 5, 53, 51
6, 284160, Note_off_c, 5, 53, 0
6, 284160, Note_on_c, 5, 52, 48
6, 284400, Note_off_c, 5, 52, 0
6, 284400, Note_on_c, 5, 50, 46
6, 284640, Note_off_c, 5, 50, 0
6, 284640, Note_off_c, 5, 43, 0
6, 284640, Note_on_c, 5, 48, 45
6, 284880, Note_off_c, 5, 48, 0
6, 285120, Note_on_c, 5, 30, 94
6, 285120, Note_on_c, 5, 42, 94
6, 285360, Note_off_c, 5, 42, 0
6, 285360, Note_off_c, 5, 30, 0
6, 285600, Note_on_c, 5, 30, 96
6, 285600, Note_on_c, 5, 42, 96
6, 287520, Note_off_c, 5, 42, 0
6, 287520, Note_off_c, 5, 30, 0
6, 290880, Note_on_c, 5, 42, 41
6, 291120, Note_off_c, 5, 42, 0
6, 291360, Note_on_c, 5, 42, 41
6, 292320, Note_off_c, 5, 42, 0
6, 292320, Note_on_c, 5, 47, 42
6, 293280, Note_off_c, 5, 47, 0
6, 293280, Note_on_c, 5, 49, 43
6, 293760, Note_off_c, 5, 49, 0
6, 293760, Note_on_c, 5, 47, 43
6, 294000, Note_off_c, 5, 47, 0
6, 294000, Note_on_c, 5, 46, 43
6, 294240, Note_off_c, 5, 46, 0
6, 294240, Note_on_c, 5, 47, 43
6, 294480, Note_off_c, 5, 47, 0
6, 294720, Note_on_c, 5, 47, 43
6, 294960, Note_off_c, 5, 47, 0
6, 295200, Note_on_c, 5, 47, 44
6, 296160, Note_off_c, 5, 47, 0
6, 296160, Note_on_c, 5, 52, 44
6, 297120, Note_off_c, 5, 52, 0
6, 297120, Note_on_c, 5, 54, 45
6, 297600, Note_off_c, 5, 54, 0
6, 297600, Note_on_c, 5, 52, 45
6, 297840, Note_off_c, 5, 52, 0
6, 297840, Note_on_c, 5, 51, 45
6, 298080, Note_off_c, 5, 51, 0
6, 298080, Note_on_c, 5, 52, 46
6, 298320, Note_off_c, 5, 52, 0
6, 299040, Note_on_c, 5, 52, 46
6, 299280, Note_off_c, 5, 52, 0
6, 300000, Note_on_c, 5, 52, 47
6, 300240, Note_off_c, 5, 52, 0
6, 300960, Note_on_c, 5, 52, 47
6, 301200, Note_off_c, 5, 52, 0
6, 301920, Note_on_c, 5, 52, 48
6, 302160, Note_off_c, 5, 52, 0
6, 302880, Note_on_c, 5, 51, 49
6, 303120, Note_off_c, 5, 51, 0
6, 303840, Note_on_c, 5, 51, 49
6, 304080, Note_off_c, 5, 51, 0
6, 304800, Note_on_c, 5, 51, 50
6, 305040, Note_off_c, 5, 51, 0
6, 305760, Note_on_c, 5, 51, 50
6, 306000, Note_off_c, 5, 51, 0
6, 306720, Note_on_c, 5, 52, 51
6, 306960, Note_off_c, 5, 52, 0
6, 307680, Note_on_c, 5, 52, 52
6, 307920, Note_off_c, 5, 52, 0
6, 308640, Note_on_c, 5, 52, 52
6, 308880, Note_off_c, 5, 52, 0
6, 309600, Note_on_c, 5, 52, 53
6, 309840, Note_off_c, 5, 52, 0
6, 310080, Note_on_c, 5, 52, 53
6, 310320, Note_off_c, 5, 52, 0
6, 310560, Note_on_c, 5, 54, 54
6, 310800, Note_off_c, 5, 54, 0
6, 311520, Note_on_c, 5, 54, 54
6, 311760, Note_off_c, 5, 54, 0
6, 312480, Note_on_c, 5, 54, 55
6, 312720, Note_off_c, 5, 54, 0
6, 313440, Note_on_c, 5, 54, 55
6, 313680, Note_off_c, 5, 54, 0
6, 313920, Note_on_c, 5, 30, 78
6, 313920, Note_on_c, 5, 42, 78
6, 314160, Note_off_c, 5, 42, 0
6, 314160, Note_off_c, 5, 30, 0
6, 314400, Note_on_c, 5, 42, 78
6, 314400, Note_on_c, 5, 30, 78
6, 314640, Note_off_c, 5, 30, 0
6, 314640, Note_off_c, 5, 42, 0
6, 314880, Note_on_c, 5, 35, 78
6, 315120, Note_off_c, 5, 35, 0
6, 315360, Note_on_c, 5, 38, 78
6, 315600, Note_off_c, 5, 38, 0
6, 315840, Note_on_c, 5, 35, 79
6, 316080, Note_off_c, 5, 35, 0
6, 316320, Note_on_c, 5, 34, 79
6, 316800, Note_off_c, 5, 34, 0
6, 316800, Note_on_c, 5, 35, 79
6, 317040, Note_off_c, 5, 35, 0
6, 317040, Note_on_c, 5, 37, 79
6, 317280, Note_off_c, 5, 37, 0
6, 317280, Note_on_c, 5, 35, 80
6, 317520, Note_off_c, 5, 35, 0
6, 317760, Note_on_c, 5, 42, 80
6, 318000, Note_off_c, 5, 42, 0
6, 318240, Note_on_c, 5, 42, 80
6, 318480, Note_off_c, 5, 42, 0
6, 318720, Note_on_c, 5, 35, 80
6, 318960, Note_off_c, 5, 35, 0
6, 319200, Note_on_c, 5, 38, 81
6, 319440, Note_off_c, 5, 38, 0
6, 319680, Note_on_c, 5, 35, 81
6, 319920, Note_off_c, 5, 35, 0
6, 320160, Note_on_c, 5, 34, 81
6, 320640, Note_off_c, 5, 34, 0
6, 320640, Note_on_c, 5, 35, 81
6, 320880, Note_off_c, 5, 35, 0
6, 320880, Note_on_c, 5, 37, 82
6, 321120, Note_off_c, 5, 37, 0
6, 321120, Note_on_c, 5, 35, 82
6, 321360, Note_off_c, 5, 35, 0
6, 321600, Note_on_c, 5, 42, 82
6, 321840, Note_off_c, 5, 42, 0
6, 322080, Note_on_c, 5, 43, 90
6, 322320, Note_off_c, 5, 43, 0
6, 322560, Note_on_c, 5, 47, 83
6, 322800, Note_off_c, 5, 47, 0
6, 323040, Note_on_c, 5, 50, 83
6, 323280, Note_off_c, 5, 50, 0
6, 323520, Note_on_c, 5, 47, 84
6, 323760, Note_off_c, 5, 47, 0
6, 324000, Note_on_c, 5, 42, 91
6, 324240, Note_off_c, 5, 42, 0
6, 324480, Note_on_c, 5, 47, 85
6, 324720, Note_off_c, 5, 47, 0
6, 324960, Note_on_c, 5, 50, 86
6, 325200, Note_off_c, 5, 50, 0
6, 325440, Note_on_c, 5, 47, 87
6, 325680, Note_off_c, 5, 47, 0
6, 325920, Note_on_c, 5, 40, 95
6, 326160, Note_off_c, 5, 40, 0
6, 326400, Note_on_c, 5, 47, 88
6, 326640, Note_off_c, 5, 47, 0
6, 326880, Note_on_c, 5, 50, 89
6, 327120, Note_off_c, 5, 50, 0
6, 327360, Note_on_c, 5, 47, 89
6, 327600, Note_off_c, 5, 47, 0
6, 327840, Note_on_c, 5, 38, 99
6, 328080, Note_off_c, 5, 38, 0
6, 328320, Note_on_c, 5, 47, 91
6, 328560, Note_off_c, 5, 47, 0
6, 328800, Note_on_c, 5, 50, 91
6, 329040, Note_off_c, 5, 50, 0
6, 329280, Note_on_c, 5, 47, 92
6, 329520, Note_off_c, 5, 47, 0
6, 329760, Note_on_c, 5, 47, 100
6, 330000, Note_off_c, 5, 47, 0
6, 330240, Note_on_c, 5, 50, 93
6, 330480, Note_off_c, 5, 50, 0
6, 330720, Note_on_c, 5, 54, 102
6, 330960, Note_off_c, 5, 54, 0
6, 331200, Note_on_c, 5, 50, 95
6, 331440, Note_off_c, 5, 50, 0
6, 331680, Note_on_c, 5, 55, 102
6, 331920, Note_off_c, 5, 55, 0
6, 332160, Note_on_c, 5, 52, 96
6, 332400, Note_off_c, 5, 52, 0
6, 332640, Note_on_c, 5, 54, 104
6, 332880, Note_off_c, 5, 54, 0
6, 333120, Note_on_c, 5, 59, 97
6, 333360, Note_off_c, 5, 59, 0
6, 333600, Note_on_c, 5, 62, 106
6, 333840, Note_off_c, 5, 62, 0
6, 334080, Note_on_c, 5, 66, 99
6, 334320, Note_off_c, 5, 66, 0
6, 334560, Note_on_c, 5, 71, 108
6, 334800, Note_off_c, 5, 71, 0
6, 335040, Note_on_c, 5, 54, 65
6, 335280, Note_off_c, 5, 54, 0
6, 335520, Note_on_c, 5, 54, 59
6, 335760, Note_off_c, 5, 54, 0
6, 336000, Note_on_c, 5, 54, 52
6, 336000, Note_on_c, 5, 42, 52
6, 336240, Note_off_c, 5, 42, 0
6, 336240, Note_off_c, 5, 54, 0
6, 336480, Note_on_c, 5, 47, 45
6, 336480, Note_on_c, 5, 35, 45
6, 336720, Note_off_c, 5, 35, 0
6, 336720, Note_off_c, 5, 47, 0
6, 336960, Note_on_c, 5, 42, 44
6, 337440, Note_on_c, 5, 35, 45
6, 338880, Note_off_c, 5, 42, 0
6, 338880, Note_on_c, 5, 42, 49
6, 339360, Note_off_c, 5, 35, 0
6, 339360, Note_on_c, 5, 35, 49
6, 340800, Note_off_c, 5, 42, 0
6, 340800, Note_on_c, 5, 42, 48
6, 341280, Note_off_c, 5, 35, 0
6, 341280, Note_on_c, 5, 35, 47
6, 342720, Note_off_c, 5, 42, 0
6, 342720, Note_on_c, 5, 42, 46
6, 343200, Note_off_c, 5, 35, 0
6, 343200, Note_on_c, 5, 35, 45
6, 344640, Note_off_c, 5, 42, 0
6, 344640, Note_on_c, 5, 42, 44
6, 345120, Note_off_c, 5, 35, 0
6, 345120, Note_on_c, 5, 35, 44
6, 346560, Note_off_c, 5, 42, 0
6, 346560, Note_on_c, 5, 42, 46
6, 347040, Note_off_c, 5, 35, 0
6, 347040, Note_on_c, 5, 35, 47
6, 348480, Note_off_c, 5, 42, 0
6, 348480, Note_on_c, 5, 42, 49
6, 348960, Note_off_c, 5, 35, 0
6, 348960, Note_on_c, 5, 35, 50
6, 350400, Note_off_c, 5, 42, 0
6, 350400, Note_on_c, 5, 42, 52
6, 350880, Note_off_c, 5, 35, 0
6, 350880, Note_on_c, 5, 35, 53
6, 352320, Note_off_c, 5, 42, 0
6, 352320, Note_on_c, 5, 47, 44
6, 352320, Note_on_c, 5, 42, 44
6, 352800, Note_off_c, 5, 35, 0
6, 352800, Note_on_c, 5, 35, 44
6, 354240, Note_off_c, 5, 42, 0
6, 354240, Note_off_c, 5, 47, 0
6, 354240, Note_on_c, 5, 42, 51
6, 354240, Note_on_c, 5, 47, 51
6, 354720, Note_off_c, 5, 35, 0
6, 354720, Note_on_c, 5, 35, 51
6, 356160, Note_off_c, 5, 47, 0
6, 356160, Note_off_c, 5, 42, 0
6, 356160, Note_on_c, 5, 42, 50
6, 356160, Note_on_c, 5, 47, 50
6, 356640, Note_off_c, 5, 35, 0
6, 356640, Note_on_c, 5, 35, 50
6, 358080, Note_off_c, 5, 47, 0
6, 358080, Note_off_c, 5, 42, 0
6, 358080, Note_on_c, 5, 42, 48
6, 358080, Note_on_c, 5, 47, 48
6, 358560, Note_off_c, 5, 35, 0
6, 358560, Note_on_c, 5, 35, 48
6, 360000, Note_off_c, 5, 47, 0
6, 360000, Note_off_c, 5, 42, 0
6, 360000, Note_on_c, 5, 42, 46
6, 360000, Note_on_c, 5, 47, 46
6, 360480, Note_off_c, 5, 35, 0
6, 360480, Note_on_c, 5, 35, 46
6, 361920, Note_off_c, 5, 47, 0
6, 361920, Note_off_c, 5, 42, 0
6, 361920, Note_on_c, 5, 42, 50
6, 361920, Note_on_c, 5, 47, 50
6, 362400, Note_off_c, 5, 35, 0
6, 362400, Note_on_c, 5, 35, 50
6, 363840, Note_off_c, 5, 47, 0
6, 363840, Note_off_c, 5, 42, 0
6, 363840, Note_on_c, 5, 42, 54
6, 363840, Note_on_c, 5, 47, 54
6, 364320, Note_off_c, 5, 35, 0
6, 364320, Note_on_c, 5, 35, 54
6, 365760, Note_off_c, 5, 47, 0
6, 365760, Note_off_c, 5, 42, 0
6, 365760, Note_on_c, 5, 42, 59
6, 365760, Note_on_c, 5, 47, 59
6, 366240, Note_off_c, 5, 35, 0
6, 366240, Note_on_c, 5, 35, 59
6, 367680, Note_off_c, 5, 47, 0
6, 367680, Note_off_c, 5, 42, 0
6, 367680, Note_on_c, 5, 42, 43
6, 367680, Note_on_c, 5, 47, 43
6, 367920, Note_off_c, 5, 47, 0
6, 367920, Note_off_c, 5, 42, 0
6, 368160, Note_off_c, 5, 35, 0
6, 368160, Note_on_c, 5, 42, 43
6, 370080, Note_off_c, 5, 42, 0
6, 370080, Note_on_c, 5, 48, 36
6, 372000, Note_off_c, 5, 48, 0
6, 372000, Note_on_c, 5, 61, 29
6, 372000, Note_on_c, 5, 49, 29
6, 373920, Note_off_c, 5, 49, 0
6, 373920, Note_off_c, 5, 61, 0
6, 375360, Note_on_c, 5, 42, 37
6, 375840, Note_on_c, 5, 35, 38
6, 377280, Note_off_c, 5, 42, 0
6, 377280, Note_on_c, 5, 42, 41
6, 377760, Note_off_c, 5, 35, 0
6, 377760, Note_on_c, 5, 35, 41
6, 379200, Note_off_c, 5, 42, 0
6, 379200, Note_on_c, 5, 42, 40
6, 379680, Note_off_c, 5, 35, 0
6, 379680, Note_on_c, 5, 35, 39
6, 381120, Note_off_c, 5, 42, 0
6, 381120, Note_on_c, 5, 42, 38
6, 381600, Note_off_c, 5, 35, 0
6, 381600, Note_on_c, 5, 35, 38
6, 383040, Note_off_c, 5, 42, 0
6, 383040, Note_on_c, 5, 42, 36
6, 383520, Note_off_c, 5, 35, 0
6, 383520, Note_on_c, 5, 35, 36
6, 384960, Note_off_c, 5, 42, 0
6, 384960, Note_on_c, 5, 42, 39
6, 385440, Note_off_c, 5, 35, 0
6, 385440, Note_on_c, 5, 35, 40
6, 386880, Note_off_c, 5, 42, 0
6, 386880, Note_on_c, 5, 42, 42
6, 387360, Note_off_c, 5, 35, 0
6, 387360, Note_on_c, 5, 35, 43
6, 388800, Note_off_c, 5, 42, 0
6, 388800, Note_on_c, 5, 42, 46
6, 389280, Note_off_c, 5, 35, 0
6, 389280, Note_on_c, 5, 35, 46
6, 390720, Note_off_c, 5, 42, 0
6, 390720, Note_on_c, 5, 47, 39
6, 390720, Note_on_c, 5, 42, 39
6, 391200, Note_off_c, 5, 35, 0
6, 391200, Note_on_c, 5, 35, 40
6, 392595, Note_off_c, 5, 47, 0
6, 392610, Note_off_c, 5, 42, 0
6, 392640, Note_on_c, 5, 47, 39
6, 392640, Note_on_c, 5, 42, 39
6, 393120, Note_off_c, 5, 35, 0
6, 393120, Note_on_c, 5, 35, 40
6, 394530, Note_off_c, 5, 42, 0
6, 394545, Note_off_c, 5, 47, 0
6, 394560, Note_on_c, 5, 42, 45
6, 394560, Note_on_c, 5, 47, 45
6, 395040, Note_off_c, 5, 35, 0
6, 395040, Note_on_c, 5, 35, 45
6, 396480, Note_off_c, 5, 47, 0
6, 396480, Note_off_c, 5, 42, 0
6, 396480, Note_on_c, 5, 42, 43
6, 396480, Note_on_c, 5, 47, 43
6, 396960, Note_off_c, 5, 35, 0
6, 396960, Note_on_c, 5, 35, 42
6, 398400, Note_off_c, 5, 47, 0
6, 398400, Note_off_c, 5, 42, 0
6, 398400, Note_on_c, 5, 42, 40
6, 398400, Note_on_c, 5, 47, 40
6, 398880, Note_off_c, 5, 35, 0
6, 398880, Note_on_c, 5, 35, 40
6, 400320, Note_off_c, 5, 47, 0
6, 400320, Note_off_c, 5, 42, 0
6, 400320, Note_on_c, 5, 42, 42
6, 400320, Note_on_c, 5, 47, 42
6, 400800, Note_off_c, 5, 35, 0
6, 400800, Note_on_c, 5, 35, 43
6, 402240, Note_off_c, 5, 47, 0
6, 402240, Note_off_c, 5, 42, 0
6, 402240, Note_on_c, 5, 42, 45
6, 402240, Note_on_c, 5, 47, 45
6, 402720, Note_off_c, 5, 35, 0
6, 402720, Note_on_c, 5, 35, 46
6, 404160, Note_off_c, 5, 47, 0
6, 404160, Note_off_c, 5, 42, 0
6, 404160, Note_on_c, 5, 42, 49
6, 404160, Note_on_c, 5, 47, 49
6, 404640, Note_off_c, 5, 35, 0
6, 404640, Note_on_c, 5, 35, 51
6, 406080, Note_off_c, 5, 47, 0
6, 406080, Note_off_c, 5, 42, 0
6, 406080, Note_on_c, 5, 42, 46
6, 406080, Note_on_c, 5, 47, 46
6, 406560, Note_off_c, 5, 35, 0
6, 406560, Note_on_c, 5, 40, 46
6, 408000, Note_off_c, 5, 40, 0
6, 408000, Note_on_c, 5, 40, 49
6, 408000, Note_on_c, 5, 35, 49
6, 408450, Note_off_c, 5, 47, 0
6, 408450, Note_off_c, 5, 42, 0
6, 408480, Note_off_c, 5, 35, 0
6, 408480, Note_off_c, 5, 40, 0
6, 408480, Note_on_c, 5, 47, 50
6, 408480, Note_on_c, 5, 42, 50
6, 409920, Note_off_c, 5, 42, 0
6, 409920, Note_on_c, 5, 42, 52
6, 409920, Note_on_c, 5, 35, 52
6, 410400, Note_off_c, 5, 35, 0
6, 410400, Note_off_c, 5, 42, 0
6, 410400, Note_off_c, 5, 47, 0
6, 410400, Note_on_c, 5, 47, 53
6, 410400, Note_on_c, 5, 40, 53
6, 411840, Note_off_c, 5, 40, 0
6, 411840, Note_on_c, 5, 40, 56
6, 411840, Note_on_c, 5, 35, 56
6, 412320, Note_off_c, 5, 35, 0
6, 412320, Note_off_c, 5, 40, 0
6, 412320, Note_off_c, 5, 47, 0
6, 412320, Note_on_c, 5, 47, 56
6, 412320, Note_on_c, 5, 42, 56
6, 413760, Note_off_c, 5, 42, 0
6, 413760, Note_on_c, 5, 42, 59
6, 413760, Note_on_c, 5, 35, 59
6, 414240, Note_off_c, 5, 35, 0
6, 414240, Note_on_c, 5, 35, 55
6, 415680, Note_off_c, 5, 42, 0
6, 415680, Note_off_c, 5, 47, 0
6, 415680, Note_on_c, 5, 42, 53
6, 415680, Note_on_c, 5, 47, 53
6, 416160, Note_off_c, 5, 35, 0
6, 416160, Note_on_c, 5, 35, 52
6, 417600, Note_off_c, 5, 47, 0
6, 417600, Note_off_c, 5, 42, 0
6, 417600, Note_on_c, 5, 42, 50
6, 417600, Note_on_c, 5, 47, 50
6, 418080, Note_off_c, 5, 35, 0
6, 418080, Note_on_c, 5, 35, 50
6, 419520, Note_off_c, 5, 47, 0
6, 419520, Note_off_c, 5, 42, 0
6, 419520, Note_on_c, 5, 42, 48
6, 419520, Note_on_c, 5, 47, 48
6, 420000, Note_off_c, 5, 35, 0
6, 420000, Note_on_c, 5, 35, 47
6, 421440, Note_off_c, 5, 47, 0
6, 421440, Note_off_c, 5, 42, 0
6, 421440, Note_on_c, 5, 42, 45
6, 421440, Note_on_c, 5, 47, 45
6, 421920, Note_off_c, 5, 35, 0
6, 421920, Note_on_c, 5, 35, 45
6, 423360, Note_off_c, 5, 47, 0
6, 423360, Note_off_c, 5, 42, 0
6, 423360, Note_on_c, 5, 42, 43
6, 423360, Note_on_c, 5, 47, 43
6, 423840, Note_off_c, 5, 35, 0
6, 423840, Note_on_c, 5, 35, 42
6, 425280, Note_off_c, 5, 47, 0
6, 425280, Note_off_c, 5, 42, 0
6, 425280, Note_on_c, 5, 42, 40
6, 425280, Note_on_c, 5, 47, 40
6, 425760, Note_off_c, 5, 35, 0
6, 425760, Note_on_c, 5, 35, 39
6, 427200, Note_off_c, 5, 47, 0
6, 427200, Note_off_c, 5, 42, 0
6, 427200, Note_on_c, 5, 42, 38
6, 427200, Note_on_c, 5, 47, 38
6, 427680, Note_off_c, 5, 35, 0
6, 427680, Note_on_c, 5, 35, 37
6, 429120, Note_off_c, 5, 47, 0
6, 429120, Note_off_c, 5, 42, 0
6, 429120, Note_on_c, 5, 42, 36
6, 429120, Note_on_c, 5, 47, 36
6, 429600, Note_off_c, 5, 35, 0
6, 429600, Note_on_c, 5, 35, 35
6, 431040, Note_off_c, 5, 47, 0
6, 431040, Note_off_c, 5, 42, 0
6, 431040, Note_on_c, 5, 42, 33
6, 431040, Note_on_c, 5, 47, 33
6, 431520, Note_off_c, 5, 47, 0
6, 431520, Note_off_c, 5, 42, 0
6, 431520, Note_off_c, 5, 35, 0
6, 432960, Note_on_c, 5, 42, 31
6, 432960, Note_on_c, 5, 47, 31
6, 433440, Note_on_c, 5, 35, 31
6, 434880, Note_off_c, 5, 47, 0
6, 434880, Note_off_c, 5, 42, 0
6, 434880, Note_on_c, 5, 42, 29
6, 434880, Note_on_c, 5, 47, 29
6, 435360, Note_off_c, 5, 35, 0
6, 435360, Note_on_c, 5, 35, 28
6, 436800, Note_off_c, 5, 47, 0
6, 436800, Note_off_c, 5, 42, 0
6, 436800, Note_on_c, 5, 42, 27
6, 436800, Note_on_c, 5, 47, 27
6, 437280, Note_off_c, 5, 35, 0
6, 437280, Note_on_c, 5, 35, 26
6, 438720, Note_off_c, 5, 47, 0
6, 438720, Note_off_c, 5, 42, 0
6, 438720, Note_on_c, 5, 42, 25
6, 438720, Note_on_c, 5, 47, 25
6, 439200, Note_off_c, 5, 35, 0
6, 439200, Note_on_c, 5, 35, 24
6, 440640, Control_c, 5, 64, 0
6, 440640, Note_off_c, 5, 35, 0
6, 440640, Note_off_c, 5, 47, 0
6, 440640, Note_off_c, 5, 42, 0
6, 440640, Note_on_c, 5, 42, 76
6, 440880, Note_off_c, 5, 42, 0
6, 441120, Note_on_c, 5, 42, 76
6, 441360, Note_off_c, 5, 42, 0
6, 441600, Note_on_c, 5, 35, 76
6, 441840, Note_off_c, 5, 35, 0
6, 442080, Note_on_c, 5, 38, 77
6, 442320, Note_off_c, 5, 38, 0
6, 442560, Note_on_c, 5, 35, 77
6, 442800, Note_off_c, 5, 35, 0
6, 443040, Note_on_c, 5, 34, 77
6, 443520, Note_off_c, 5, 34, 0
6, 443520, Note_on_c, 5, 35, 78
6, 443760, Note_off_c, 5, 35, 0
6, 443760, Note_on_c, 5, 37, 78
6, 444000, Note_off_c, 5, 37, 0
6, 444000, Note_on_c, 5, 35, 78
6, 444240, Note_off_c, 5, 35, 0
6, 444480, Note_on_c, 5, 42, 79
6, 444720, Note_off_c, 5, 42, 0
6, 444960, Note_on_c, 5, 42, 79
6, 445200, Note_off_c, 5, 42, 0
6, 445440, Note_on_c, 5, 35, 79
6, 445680, Note_off_c, 5, 35, 0
6, 445920, Note_on_c, 5, 38, 80
6, 446160, Note_off_c, 5, 38, 0
6, 446400, Note_on_c, 5, 35, 80
6, 446640, Note_off_c, 5, 35, 0
6, 446880, Note_on_c, 5, 34, 80
6, 447360, Note_off_c, 5, 34, 0
6, 447360, Note_on_c, 5, 35, 81
6, 447600, Note_off_c, 5, 35, 0
6, 447600, Note_on_c, 5, 37, 81
6, 447840, Note_off_c, 5, 37, 0
6, 447840, Note_on_c, 5, 35, 81
6, 448080, Note_off_c, 5, 35, 0
6, 448320, Note_on_c, 5, 42, 81
6, 448320, Note_on_c, 5, 30, 81
6, 448560, Note_off_c, 5, 30, 0
6, 448560, Note_off_c, 5, 42, 0
6, 448800, Note_on_c, 5, 43, 82
6, 448800, Note_on_c, 5, 31, 82
6, 449040, Note_off_c, 5, 31, 0
6, 449040, Note_off_c, 5, 43, 0
6, 449280, Note_on_c, 5, 47, 83
6, 449520, Note_off_c, 5, 47, 0
6, 449760, Note_on_c, 5, 50, 92
6, 450000, Note_off_c, 5, 50, 0
6, 450240, Note_on_c, 5, 47, 85
6, 450480, Note_off_c, 5, 47, 0
6, 450720, Note_on_c, 5, 52, 96
6, 450960, Note_off_c, 5, 52, 0
6, 451200, Note_on_c, 5, 48, 87
6, 451440, Note_off_c, 5, 48, 0
6, 451680, Note_on_c, 5, 50, 97
6, 451920, Note_off_c, 5, 50, 0
6, 452160, Note_on_c, 5, 55, 88
6, 452400, Note_off_c, 5, 55, 0
6, 452640, Note_on_c, 5, 59, 99
6, 452880, Note_off_c, 5, 59, 0
6, 453120, Note_on_c, 5, 62, 90
6, 453360, Note_off_c, 5, 62, 0
6, 453600, Note_on_c, 5, 67, 105
6, 453840, Note_off_c, 5, 67, 0
6, 454080, Note_on_c, 5, 43, 59
6, 454080, Note_on_c, 5, 31, 59
6, 454320, Note_off_c, 5, 31, 0
6, 454320, Note_off_c, 5, 43, 0
6, 454560, Note_on_c, 5, 31, 53
6, 454560, Note_on_c, 5, 43, 53
6, 454800, Note_off_c, 5, 43, 0
6, 454800, Note_off_c, 5, 31, 0
6, 455040, Note_on_c, 5, 31, 47
6, 455040, Note_on_c, 5, 43, 47
6, 455280, Note_off_c, 5, 43, 0
6, 455280, Note_off_c, 5, 31, 0
6, 455520, Note_on_c, 5, 43, 41
6, 455520, Note_on_c, 5, 31, 41
6, 455760, Note_off_c, 5, 31, 0
6, 455760, Note_off_c, 5, 43, 0
6, 456000, Control_c, 5, 64, 0
6, 456000, Note_on_c, 5, 42, 76
6, 456240, Note_off_c, 5, 42, 0
6, 456480, Note_on_c, 5, 42, 76
6, 456720, Note_off_c, 5, 42, 0
6, 456960, Note_on_c, 5, 35, 76
6, 457200, Note_off_c, 5, 35, 0
6, 457440, Note_on_c, 5, 38, 77
6, 457680, Note_off_c, 5, 38, 0
6, 457920, Note_on_c, 5, 35, 77
6, 458160, Note_off_c, 5, 35, 0
6, 458400, Note_on_c, 5, 34, 77
6, 458880, Note_off_c, 5, 34, 0
6, 458880, Note_on_c, 5, 35, 78
6, 459120, Note_off_c, 5, 35, 0
6, 459120, Note_on_c, 5, 37, 78
6, 459360, Note_off_c, 5, 37, 0
6, 459360, Note_on_c, 5, 35, 78
6, 459600, Note_off_c, 5, 35, 0
6, 459840, Note_on_c, 5, 42, 79
6, 460080, Note_off_c, 5, 42, 0
6, 460320, Note_on_c, 5, 42, 79
6, 460560, Note_off_c, 5, 42, 0
6, 460800, Note_on_c, 5, 35, 79
6, 461040, Note_off_c, 5, 35, 0
6, 461280, Note_on_c, 5, 38, 80
6, 461520, Note_off_c, 5, 38, 0
6, 461760, Note_on_c, 5, 35, 80
6, 462000, Note_off_c, 5, 35, 0
6, 462240, Note_on_c, 5, 34, 80
6, 462720, Note_off_c, 5, 34, 0
6, 462720, Note_on_c, 5, 35, 81
6, 462960, Note_off_c, 5, 35, 0
6, 462960, Note_on_c, 5, 37, 81
6, 463200, Note_off_c, 5, 37, 0
6, 463200, Note_on_c, 5, 35, 81
6, 463440, Note_off_c, 5, 35, 0
6, 463680, Note_on_c, 5, 30, 81
6, 463680, Note_on_c, 5, 42, 81
6, 463920, Note_off_c, 5, 42, 0
6, 463920, Note_off_c, 5, 30, 0
6, 464160, Note_on_c, 5, 31, 82
6, 464160, Note_on_c, 5, 43, 82
6, 464400, Note_off_c, 5, 43, 0
6, 464400, Note_off_c, 5, 31, 0
6, 464640, Note_on_c, 5, 47, 83
6, 464880, Note_off_c, 5, 47, 0
6, 465120, Note_on_c, 5, 50, 92
6, 465360, Note_off_c, 5, 50, 0
6, 465600, Note_on_c, 5, 47, 85
6, 465840, Note_off_c, 5, 47, 0
6, 466080, Note_on_c, 5, 52, 96
6, 466320, Note_off_c, 5, 52, 0
6, 466560, Note_on_c, 5, 48, 87
6, 466800, Note_off_c, 5, 48, 0
6, 467040, Note_on_c, 5, 50, 97
6, 467280, Note_off_c, 5, 50, 0
6, 467520, Note_on_c, 5, 55, 88
6, 467760, Note_off_c, 5, 55, 0
6, 468000, Note_on_c, 5, 59, 99
6, 468240, Note_off_c, 5, 59, 0
6, 468480, Note_on_c, 5, 62, 90
6, 468720, Note_off_c, 5, 62, 0
6, 468960, Note_on_c, 5, 67, 105
6, 469200, Note_off_c, 5, 67, 0
6, 469440, Note_on_c, 5, 31, 59
6, 469440, Note_on_c, 5, 43, 59
6, 469680, Note_off_c, 5, 43, 0
6, 469680, Note_off_c, 5, 31, 0
6, 469920, Note_on_c, 5, 43, 53
6, 469920, Note_on_c, 5, 31, 53
6, 470160, Note_off_c, 5, 31, 0
6, 470160, Note_off_c, 5, 43, 0
6, 470400, Note_on_c, 5, 43, 47
6, 470400, Note_on_c, 5, 31, 47
6, 470640, Note_off_c, 5, 31, 0
6, 470640, Note_off_c, 5, 43, 0
6, 470880, Note_on_c, 5, 31, 41
6, 470880, Note_on_c, 5, 43, 41
6, 471120, Note_off_c, 5, 43, 0
6, 471120, Note_off_c, 5, 31, 0
6, 471360, Control_c, 5, 64, 0
6, 471360, Note_on_c, 5, 35, 78
6, 471600, Note_off_c, 5, 35, 0
6, 471840, Note_on_c, 5, 35, 78
6, 472560, Note_off_c, 5, 35, 0
6, 472800, Note_on_c, 5, 40, 79
6, 473520, Note_off_c, 5, 40, 0
6, 473760, Note_on_c, 5, 42, 81
6, 474240, Note_off_c, 5, 42, 0
6, 474240, Note_on_c, 5, 40, 81
6, 474480, Note_off_c, 5, 40, 0
6, 474480, Note_on_c, 5, 39, 81
6, 474720, Note_off_c, 5, 39, 0
6, 474720, Note_on_c, 5, 40, 82
6, 474960, Note_off_c, 5, 40, 0
6, 475200, Note_on_c, 5, 47, 82
6, 475440, Note_off_c, 5, 47, 0
6, 475680, Note_on_c, 5, 47, 83
6, 475920, Note_off_c, 5, 47, 0
6, 476160, Note_on_c, 5, 40, 84
6, 476400, Note_off_c, 5, 40, 0
6, 476640, Note_on_c, 5, 43, 84
6, 476880, Note_off_c, 5, 43, 0
6, 477120, Note_on_c, 5, 40, 85
6, 477360, Note_off_c, 5, 40, 0
6, 477600, Note_on_c, 5, 38, 86
6, 478560, Note_off_c, 5, 38, 0
6, 478560, Note_on_c, 5, 31, 68
6, 479520, Note_off_c, 5, 31, 0
6, 479520, Note_on_c, 5, 36, 44
6, 480480, Note_off_c, 5, 36, 0
6, 480480, Note_on_c, 5, 31, 49
6, 481440, Note_off_c, 5, 31, 0
6, 481440, Note_on_c, 5, 36, 54
6, 482400, Note_off_c, 5, 36, 0
6, 482400, Note_on_c, 5, 31, 59
6, 483360, Note_off_c, 5, 31, 0
6, 483360, Note_on_c, 5, 36, 64
6, 484320, Note_off_c, 5, 36, 0
6, 484320, Note_on_c, 5, 31, 69
6, 485280, Note_off_c, 5, 31, 0
6, 485280, Note_on_c, 5, 31, 74
6, 486240, Note_off_c, 5, 31, 0
6, 486240, Note_on_c, 5, 36, 79
6, 486480, Note_off_c, 5, 36, 0
6, 487200, Note_on_c, 5, 55, 56
6, 488160, Note_off_c, 5, 55, 0
6, 488160, Note_on_c, 5, 50, 63
6, 489120, Note_off_c, 5, 50, 0
6, 489120, Note_on_c, 5, 55, 70
6, 490080, Note_off_c, 5, 55, 0
6, 490080, Note_on_c, 5, 50, 77
6, 491040, Note_off_c, 5, 50, 0
6, 491040, Note_on_c, 5, 55, 83
6, 492000, Note_off_c, 5, 55, 0
6, 492000, Note_on_c, 5, 50, 90
6, 492960, Note_off_c, 5, 50, 0
6, 492960, Note_on_c, 5, 55, 97
6, 493920, Note_off_c, 5, 55, 0
6, 493920, Note_on_c, 5, 55, 104
6, 494160, Note_off_c, 5, 55, 0
6, 494400, Note_on_c, 5, 30, 107
6, 494400, Note_on_c, 5, 42, 107
6, 494640, Note_off_c, 5, 42, 0
6, 494640, Note_off_c, 5, 30, 0
6, 494880, Note_on_c, 5, 42, 111
6, 494880, Note_on_c, 5, 30, 111
6, 496800, Note_off_c, 5, 30, 0
6, 496800, Note_off_c, 5, 42, 0
6, 498240, Note_on_c, 5, 43, 43
6, 498480, Note_off_c, 5, 43, 0
6, 498720, Note_on_c, 5, 43, 45
6, 499680, Note_on_c, 5, 52, 47
6, 500640, Note_off_c, 5, 52, 0
6, 500640, Note_on_c, 5, 53, 51
6, 501120, Note_off_c, 5, 53, 0
6, 501120, Note_on_c, 5, 52, 48
6, 501360, Note_off_c, 5, 52, 0
6, 501360, Note_on_c, 5, 50, 46
6, 501600, Note_off_c, 5, 50, 0
6, 501600, Note_off_c, 5, 43, 0
6, 501600, Note_on_c, 5, 48, 45
6, 501840, Note_off_c, 5, 48, 0
6, 502080, Note_on_c, 5, 42, 94
6, 502080, Note_on_c, 5, 30, 94
6, 502320, Note_off_c, 5, 30, 0
6, 502320, Note_off_c, 5, 42, 0
6, 502560, Note_on_c, 5, 42, 96
6, 502560, Note_on_c, 5, 30, 96
6, 504480, Note_off_c, 5, 30, 0
6, 504480, Note_off_c, 5, 42, 0
6, 507840, Note_on_c, 5, 42, 41
6, 508080, Note_off_c, 5, 42, 0
6, 508320, Note_on_c, 5, 42, 41
6, 509280, Note_off_c, 5, 42, 0
6, 509280, Note_on_c, 5, 47, 42
6, 510240, Note_off_c, 5, 47, 0
6, 510240, Note_on_c, 5, 49, 43
6, 510720, Note_off_c, 5, 49, 0
6, 510720, Note_on_c, 5, 47, 43
6, 510960, Note_off_c, 5, 47, 0
6, 510960, Note_on_c, 5, 46, 43
6, 511200, Note_off_c, 5, 46, 0
6, 511200, Note_on_c, 5, 47, 43
6, 511440, Note_off_c, 5, 47, 0
6, 511680, Note_on_c, 5, 47, 43
6, 511920, Note_off_c, 5, 47, 0
6, 512160, Note_on_c, 5, 47, 44
6, 513120, Note_off_c, 5, 47, 0
6, 513120, Note_on_c, 5, 52, 44
6, 514080, Note_off_c, 5, 52, 0
6, 514080, Note_on_c, 5, 54, 45
6, 514560, Note_off_c, 5, 54, 0
6, 514560, Note_on_c, 5, 52, 45
6, 514800, Note_off_c, 5, 52, 0
6, 514800, Note_on_c, 5, 51, 45
6, 515040, Note_off_c, 5, 51, 0
6, 515040, Note_on_c, 5, 52, 46
6, 515280, Note_off_c, 5, 52, 0
6, 516000, Note_on_c, 5, 52, 46
6, 516240, Note_off_c, 5, 52, 0
6, 516960, Note_on_c, 5, 52, 47
6, 517200, Note_off_c, 5, 52, 0
6, 517920, Note_on_c, 5, 52, 47
6, 518160, Note_off_c, 5, 52, 0
6, 518880, Note_on_c, 5, 52, 48
6, 519120, Note_off_c, 5, 52, 0
6, 519840, Note_on_c, 5, 51, 49
6, 520080, Note_off_c, 5, 51, 0
6, 520800, Note_on_c, 5, 51, 49
6, 521040, Note_off_c, 5, 51, 0
6, 521760, Note_on_c, 5, 51, 50
6, 522000, Note_off_c, 5, 51, 0
6, 522720, Note_on_c, 5, 51, 50
6, 522960, Note_off_c, 5, 51, 0
6, 523680, Note_on_c, 5, 52, 51
6, 523920, Note_off_c, 5, 52, 0
6, 524640, Note_on_c, 5, 52, 52
6, 524880, Note_off_c, 5, 52, 0
6, 525600, Note_on_c, 5, 52, 52
6, 525840, Note_off_c, 5, 52, 0
6, 526560, Note_on_c, 5, 52, 53
6, 526800, Note_off_c, 5, 52, 0
6, 527040, Note_on_c, 5, 52, 53
6, 527280, Note_off_c, 5, 52, 0
6, 527520, Note_on_c, 5, 54, 54
6, 527760, Note_off_c, 5, 54, 0
6, 528480, Note_on_c, 5, 54, 54
6, 528720, Note_off_c, 5, 54, 0
6, 529440, Note_on_c, 5, 54, 55
6, 529680, Note_off_c, 5, 54, 0
6, 530400, Note_on_c, 5, 54, 55
6, 530640, Note_off_c, 5, 54, 0
6, 530880, Note_on_c, 5, 42, 78
6, 530880, Note_on_c, 5, 30, 78
6, 531120, Note_off_c, 5, 30, 0
6, 531120, Note_off_c, 5, 42, 0
6, 531360, Note_on_c, 5, 30, 78
6, 531360, Note_on_c, 5, 42, 78
6, 531600, Note_off_c, 5, 42, 0
6, 531600, Note_off_c, 5, 30, 0
6, 531840, Note_on_c, 5, 35, 78
6, 532080, Note_off_c, 5, 35, 0
6, 532320, Note_on_c, 5, 38, 78
6, 532560, Note_off_c, 5, 38, 0
6, 532800, Note_on_c, 5, 35, 79
6, 533040, Note_off_c, 5, 35, 0
6, 533280, Note_on_c, 5, 34, 79
6, 533760, Note_off_c, 5, 34, 0
6, 533760, Note_on_c, 5, 35, 79
6, 534000, Note_off_c, 5, 35, 0
6, 534000, Note_on_c, 5, 37, 79
6, 534240, Note_off_c, 5, 37, 0
6, 534240, Note_on_c, 5, 35, 80
6, 534480, Note_off_c, 5, 35, 0
6, 534720, Note_on_c, 5, 42, 80
6, 534960, Note_off_c, 5, 42, 0
6, 535200, Note_on_c, 5, 42, 80
6, 535440, Note_off_c, 5, 42, 0
6, 535680, Note_on_c, 5, 35, 80
6, 535920, Note_off_c, 5, 35, 0
6, 536160, Note_on_c, 5, 38, 81
6, 536400, Note_off_c, 5, 38, 0
6, 536640, Note_on_c, 5, 35, 81
6, 536880, Note_off_c, 5, 35, 0
6, 537120, Note_on_c, 5, 34, 81
6, 537600, Note_off_c, 5, 34, 0
6, 537600, Note_on_c, 5, 35, 81
6, 537840, Note_off_c, 5, 35, 0
6, 537840, Note_on_c, 5, 37, 82
6, 538080, Note_off_c, 5, 37, 0
6, 538080, Note_on_c, 5, 35, 82
6, 538320, Note_off_c, 5, 35, 0
6, 538560, Control_c, 5, 64, 0
6, 538560, Control_c, 5, 64, 0
6, 538560, Note_on_c, 5, 42, 82
6, 538800, Note_off_c, 5, 42, 0
6, 539040, Note_on_c, 5, 43, 90
6, 539280, Note_off_c, 5, 43, 0
6, 539520, Note_on_c, 5, 47, 83
6, 539760, Note_off_c, 5, 47, 0
6, 540000, Note_on_c, 5, 50, 83
6, 540240, Note_off_c, 5, 50, 0
6, 540480, Note_on_c, 5, 47, 84
6, 540720, Note_off_c, 5, 47, 0
6, 540960, Note_on_c, 5, 42, 91
6, 541200, Note_off_c, 5, 42, 0
6, 541440, Note_on_c, 5, 47, 85
6, 541680, Note_off_c, 5, 47, 0
6, 541920, Note_on_c, 5, 50, 86
6, 542160, Note_off_c, 5, 50, 0
6, 542400, Note_on_c, 5, 47, 87
6, 542640, Note_off_c, 5, 47, 0
6, 542880, Note_on_c, 5, 40, 95
6, 543120, Note_off_c, 5, 40, 0
6, 543360, Note_on_c, 5, 47, 88
6, 543600, Note_off_c, 5, 47, 0
6, 543840, Note_on_c, 5, 50, 89
6, 544080, Note_off_c, 5, 50, 0
6, 544320, Note_on_c, 5, 47, 89
6, 544560, Note_off_c, 5, 47, 0
6, 544800, Note_on_c, 5, 38, 99
6, 545040, Note_off_c, 5, 38, 0
6, 545280, Note_on_c, 5, 47, 91
6, 545520, Note_off_c, 5, 47, 0
6, 545760, Note_on_c, 5, 50, 91
6, 546000, Note_off_c, 5, 50, 0
6, 546240, Note_on_c, 5, 47, 92
6, 546480, Note_off_c, 5, 47, 0
6, 546720, Note_on_c, 5, 47, 100
6, 546960, Note_off_c, 5, 47, 0
6, 547200, Control_c, 5, 64, 0
6, 547200, Note_on_c, 5, 50, 93
6, 547440, Note_off_c, 5, 50, 0
6, 547680, Note_on_c, 5, 54, 102
6, 547920, Note_off_c, 5, 54, 0
6, 548160, Note_on_c, 5, 50, 95
6, 548400, Note_off_c, 5, 50, 0
6, 548640, Note_on_c, 5, 55, 102
6, 548880, Note_off_c, 5, 55, 0
6, 549120, Note_on_c, 5, 52, 96
6, 549360, Note_off_c, 5, 52, 0
6, 549600, Note_on_c, 5, 54, 104
6, 549840, Note_off_c, 5, 54, 0
6, 550080, Note_on_c, 5, 59, 97
6, 550320, Note_off_c, 5, 59, 0
6, 550560, Note_on_c, 5, 62, 106
6, 550800, Note_off_c, 5, 62, 0
6, 551040, Note_on_c, 5, 66, 99
6, 551280, Note_off_c, 5, 66, 0
6, 551520, Note_on_c, 5, 71, 108
6, 551760, Note_off_c, 5, 71, 0
6, 552000, Note_on_c, 5, 54, 65
6, 552240, Note_off_c, 5, 54, 0
6, 552480, Note_on_c, 5, 54, 59
6, 552720, Note_off_c, 5, 54, 0
6, 552960, Note_on_c, 5, 42, 52
6, 552960, Note_on_c, 5, 54, 52
6, 553200, Note_off_c, 5, 54, 0
6, 553200, Note_off_c, 5, 42, 0
6, 553440, Note_on_c, 5, 35, 45
6, 553440, Note_on_c, 5, 47, 45
6, 553680, Note_off_c, 5, 47, 0
6, 553680, Note_off_c, 5, 35, 0
6, 553920, Control_c, 5, 64, 0
6, 553920, Control_c, 5, 64, 0
6, 553920, Note_on_c, 5, 42, 82
6, 554160, Note_off_c, 5, 42, 0
6, 554400, Note_on_c, 5, 43, 90
6, 554640, Note_off_c, 5, 43, 0
6, 554880, Note_on_c, 5, 47, 83
6, 555120, Note_off_c, 5, 47, 0
6, 555360, Note_on_c, 5, 50, 83
6, 555600, Note_off_c, 5, 50, 0
6, 555840, Note_on_c, 5, 47, 84
6, 556080, Note_off_c, 5, 47, 0
6, 556320, Note_on_c, 5, 42, 91
6, 556560, Note_off_c, 5, 42, 0
6, 556800, Note_on_c, 5, 47, 85
6, 557040, Note_off_c, 5, 47, 0
6, 557280, Note_on_c, 5, 50, 86
6, 557520, Note_off_c, 5, 50, 0
6, 557760, Note_on_c, 5, 47, 87
6, 558000, Note_off_c, 5, 47, 0
6, 558240, Note_on_c, 5, 40, 95
6, 558480, Note_off_c, 5, 40, 0
6, 558720, Note_on_c, 5, 47, 88
6, 558960, Note_off_c, 5, 47, 0
6, 559200, Note_on_c, 5, 50, 89
6, 559440, Note_off_c, 5, 50, 0
6, 559680, Note_on_c, 5, 47, 89
6, 559920, Note_off_c, 5, 47, 0
6, 560160, Note_on_c, 5, 38, 99
6, 560400, Note_off_c, 5, 38, 0
6, 560640, Note_on_c, 5, 47, 91
6, 560880, Note_off_c, 5, 47, 0
6, 561120, Note_on_c, 5, 50, 91
6, 561360, Note_off_c, 5, 50, 0
6, 561600, Note_on_c, 5, 47, 92
6, 561840, Note_off_c, 5, 47, 0
6, 563520, Control_c, 5, 64, 0
6, 563520, Note_on_c, 5, 42, 44
6, 564000, Note_on_c, 5, 35, 45
6, 565440, Note_off_c, 5, 42, 0
6, 565440, Note_on_c, 5, 42, 49
6, 565920, Note_off_c, 5, 35, 0
6, 565920, Note_on_c, 5, 35, 49
6, 567360, Note_off_c, 5, 42, 0
6, 567360, Note_on_c, 5, 42, 48
6, 567840, Note_off_c, 5, 35, 0
6, 567840, Note_on_c, 5, 35, 47
6, 569280, Note_off_c, 5, 42, 0
6, 569280, Note_on_c, 5, 42, 46
6, 569760, Note_off_c, 5, 35, 0
6, 569760, Note_on_c, 5, 35, 45
6, 571200, Note_off_c, 5, 42, 0
6, 571200, Note_on_c, 5, 42, 44
6, 571680, Note_off_c, 5, 35, 0
6, 571680, Note_on_c, 5, 35, 44
6, 573120, Note_off_c, 5, 42, 0
6, 573120, Note_on_c, 5, 42, 46
6, 573600, Note_off_c, 5, 35, 0
6, 573600, Note_on_c, 5, 35, 47
6, 575040, Note_off_c, 5, 42, 0
6, 575040, Note_on_c, 5, 42, 49
6, 575520, Note_off_c, 5, 35, 0
6, 575520, Note_on_c, 5, 35, 50
6, 576960, Note_off_c, 5, 42, 0
6, 576960, Note_on_c, 5, 42, 52
6, 577440, Note_off_c, 5, 35, 0
6, 577440, Note_on_c, 5, 35, 53
6, 578880, Note_off_c, 5, 42, 0
6, 578880, Note_on_c, 5, 42, 44
6, 578880, Note_on_c, 5, 47, 44
6, 579360, Note_off_c, 5, 35, 0
6, 579360, Note_on_c, 5, 35, 44
6, 580800, Note_off_c, 5, 47, 0
6, 580800, Note_off_c, 5, 42, 0
6, 580800, Note_on_c, 5, 47, 51
6, 580800, Note_on_c, 5, 42, 51
6, 581280, Note_off_c, 5, 35, 0
6, 581280, Note_on_c, 5, 35, 51
6, 582720, Note_off_c, 5, 42, 0
6, 582720, Note_off_c, 5, 47, 0
6, 582720, Note_on_c, 5, 47, 50
6, 582720, Note_on_c, 5, 42, 50
6, 583200, Note_off_c, 5, 35, 0
6, 583200, Note_on_c, 5, 35, 50
6, 584640, Note_off_c, 5, 42, 0
6, 584640, Note_off_c, 5, 47, 0
6, 584640, Note_on_c, 5, 47, 48
6, 584640, Note_on_c, 5, 42, 48
6, 585120, Note_off_c, 5, 35, 0
6, 585120, Note_on_c, 5, 35, 48
6, 586560, Note_off_c, 5, 42, 0
6, 586560, Note_off_c, 5, 47, 0
6, 586560, Note_on_c, 5, 47, 46
6, 586560, Note_on_c, 5, 42, 46
6, 587040, Note_off_c, 5, 35, 0
6, 587040, Note_on_c, 5, 35, 46
6, 588480, Note_off_c, 5, 42, 0
6, 588480, Note_off_c, 5, 47, 0
6, 588480, Note_on_c, 5, 47, 50
6, 588480, Note_on_c, 5, 42, 50
6, 588960, Note_off_c, 5, 35, 0
6, 588960, Note_on_c, 5, 35, 50
6, 590400, Note_off_c, 5, 42, 0
6, 590400, Note_off_c, 5, 47, 0
6, 590400, Note_on_c, 5, 47, 54
6, 590400, Note_on_c, 5, 42, 54
6, 590880, Note_off_c, 5, 35, 0
6, 590880, Note_on_c, 5, 35, 54
6, 592320, Note_off_c, 5, 42, 0
6, 592320, Note_off_c, 5, 47, 0
6, 592320, Note_on_c, 5, 47, 59
6, 592320, Note_on_c, 5, 42, 59
6, 592800, Note_off_c, 5, 35, 0
6, 592800, Note_on_c, 5, 35, 59
6, 594240, Note_off_c, 5, 42, 0
6, 594240, Note_off_c, 5, 47, 0
6, 594240, Note_on_c, 5, 47, 43
6, 594240, Note_on_c, 5, 42, 43
6, 594480, Note_off_c, 5, 42, 0
6, 594480, Note_off_c, 5, 47, 0
6, 594720, Note_off_c, 5, 35, 0
6, 594720, Note_on_c, 5, 42, 43
6, 596640, Note_off_c, 5, 42, 0
6, 596640, Note_on_c, 5, 48, 36
6, 598560, Note_off_c, 5, 48, 0
6, 598560, Note_on_c, 5, 49, 29
6, 598560, Note_on_c, 5, 61, 29
6, 600480, Note_off_c, 5, 61, 0
6, 600480, Note_off_c, 5, 49, 0
6, 601920, Note_on_c, 5, 42, 37
6, 602400, Note_on_c, 5, 35, 38
6, 603840, Note_off_c, 5, 42, 0
6, 603840, Note_on_c, 5, 42, 41
6, 604320, Note_off_c, 5, 35, 0
6, 604320, Note_on_c, 5, 35, 41
6, 605760, Note_off_c, 5, 42, 0
6, 605760, Note_on_c, 5, 42, 40
6, 606240, Note_off_c, 5, 35, 0
6, 606240, Note_on_c, 5, 35, 39
6, 607680, Note_off_c, 5, 42, 0
6, 607680, Note_on_c, 5, 42, 38
6, 608160, Note_off_c, 5, 35, 0
6, 608160, Note_on_c, 5, 35, 38
6, 609600, Note_off_c, 5, 42, 0
6, 609600, Note_on_c, 5, 42, 36
6, 610080, Note_off_c, 5, 35, 0
6, 610080, Note_on_c, 5, 35, 36
6, 611520, Note_off_c, 5, 42, 0
6, 611520, Note_on_c, 5, 42, 39
6, 612000, Note_off_c, 5, 35, 0
6, 612000, Note_on_c, 5, 35, 40
6, 613440, Note_off_c, 5, 42, 0
6, 613440, Note_on_c, 5, 42, 42
6, 613920, Note_off_c, 5, 35, 0
6, 613920, Note_on_c, 5, 35, 43
6, 615360, Note_off_c, 5, 42, 0
6, 615360, Note_on_c, 5, 42, 46
6, 615840, Note_off_c, 5, 35, 0
6, 615840, Note_on_c, 5, 35, 46
6, 617280, Note_off_c, 5, 42, 0
6, 617280, Note_on_c, 5, 42, 39
6, 617280, Note_on_c, 5, 47, 39
6, 617760, Note_off_c, 5, 35, 0
6, 617760, Note_on_c, 5, 35, 40
6, 619155, Note_off_c, 5, 47, 0
6, 619170, Note_off_c, 5, 42, 0
6, 619200, Note_on_c, 5, 42, 39
6, 619200, Note_on_c, 5, 47, 39
6, 619680, Note_off_c, 5, 35, 0
6, 619680, Note_on_c, 5, 35, 40
6, 621090, Note_off_c, 5, 42, 0
6, 621105, Note_off_c, 5, 47, 0
6, 621120, Note_on_c, 5, 47, 45
6, 621120, Note_on_c, 5, 42, 45
6, 621600, Note_off_c, 5, 35, 0
6, 621600, Note_on_c, 5, 35, 45
6, 623040, Note_off_c, 5, 42, 0
6, 623040, Note_off_c, 5, 47, 0
6, 623040, Note_on_c, 5, 47, 43
6, 623040, Note_on_c, 5, 42, 43
6, 623520, Note_off_c, 5, 35, 0
6, 623520, Note_on_c, 5, 35, 42
6, 624960, Note_off_c, 5, 42, 0
6, 624960, Note_off_c, 5, 47, 0
6, 624960, Note_on_c, 5, 47, 40
6, 624960, Note_on_c, 5, 42, 40
6, 625440, Note_off_c, 5, 35, 0
6, 625440, Note_on_c, 5, 35, 40
6, 626880, Note_off_c, 5, 42, 0
6, 626880, Note_off_c, 5, 47, 0
6, 626880, Note_on_c, 5, 47, 42
6, 626880, Note_on_c, 5, 42, 42
6, 627360, Note_off_c, 5, 35, 0
6, 627360, Note_on_c, 5, 35, 43
6, 628800, Note_off_c, 5, 42, 0
6, 628800, Note_off_c, 5, 47, 0
6, 628800, Note_on_c, 5, 47, 45
6, 628800, Note_on_c, 5, 42, 45
6, 629280, Note_off_c, 5, 35, 0
6, 629280, Note_on_c, 5, 35, 46
6, 630720, Note_off_c, 5, 42, 0
6, 630720, Note_off_c, 5, 47, 0
6, 630720, Note_on_c, 5, 47, 49
6, 630720, Note_on_c, 5, 42, 49
6, 631200, Note_off_c, 5, 35, 0
6, 631200, Note_on_c, 5, 35, 51
6, 632640, Note_off_c, 5, 42, 0
6, 632640, Note_off_c, 5, 47, 0
6, 632640, Note_on_c, 5, 47, 46
6, 632640, Note_on_c, 5, 42, 46
6, 633120, Note_off_c, 5, 35, 0
6, 633120, Note_on_c, 5, 40, 46
6, 634560, Note_off_c, 5, 40, 0
6, 634560, Note_on_c, 5, 35, 49
6, 634560, Note_on_c, 5, 40, 49
6, 635010, Note_off_c, 5, 42, 0
6, 635010, Note_off_c, 5, 47, 0
6, 635040, Note_off_c, 5, 40, 0
6, 635040, Note_off_c, 5, 35, 0
6, 635040, Note_on_c, 5, 42, 50
6, 635040, Note_on_c, 5, 47, 50
6, 636480, Note_off_c, 5, 42, 0
6, 636480, Note_on_c, 5, 35, 52
6, 636480, Note_on_c, 5, 42, 52
6, 636960, Note_off_c, 5, 42, 0
6, 636960, Note_off_c, 5, 35, 0
6, 636960, Note_off_c, 5, 47, 0
6, 636960, Note_on_c, 5, 40, 53
6, 636960, Note_on_c, 5, 47, 53
6, 638400, Note_off_c, 5, 40, 0
6, 638400, Note_on_c, 5, 35, 56
6, 638400, Note_on_c, 5, 40, 56
6, 638880, Note_off_c, 5, 40, 0
6, 638880, Note_off_c, 5, 35, 0
6, 638880, Note_off_c, 5, 47, 0
6, 638880, Note_on_c, 5, 42, 56
6, 638880, Note_on_c, 5, 47, 56
6, 640320, Note_off_c, 5, 42, 0
6, 640320, Note_on_c, 5, 35, 59
6, 640320, Note_on_c, 5, 42, 59
6, 640800, Note_off_c, 5, 35, 0
6, 640800, Note_on_c, 5, 35, 55
6, 642240, Note_off_c, 5, 42, 0
6, 642240, Note_off_c, 5, 47, 0
6, 642240, Note_on_c, 5, 47, 53
6, 642240, Note_on_c, 5, 42, 53
6, 642720, Note_off_c, 5, 35, 0
6, 642720, Note_on_c, 5, 35, 52
6, 644160, Note_off_c, 5, 42, 0
6, 644160, Note_off_c, 5, 47, 0
6, 644160, Note_on_c, 5, 47, 50
6, 644160, Note_on_c, 5, 42, 50
6, 644640, Note_off_c, 5, 35, 0
6, 644640, Note_on_c, 5, 35, 50
6, 646080, Note_off_c, 5, 42, 0
6, 646080, Note_off_c, 5, 47, 0
6, 646080, Note_on_c, 5, 47, 48
6, 646080, Note_on_c, 5, 42, 48
6, 646560, Note_off_c, 5, 35, 0
6, 646560, Note_on_c, 5, 35, 47
6, 648000, Note_off_c, 5, 42, 0
6, 648000, Note_off_c, 5, 47, 0
6, 648000, Note_on_c, 5, 47, 45
6, 648000, Note_on_c, 5, 42, 45
6, 648480, Note_off_c, 5, 35, 0
6, 648480, Note_on_c, 5, 35, 45
6, 649920, Note_off_c, 5, 42, 0
6, 649920, Note_off_c, 5, 47, 0
6, 649920, Note_on_c, 5, 47, 43
6, 649920, Note_on_c, 5, 42, 43
6, 650400, Note_off_c, 5, 35, 0
6, 650400, Note_on_c, 5, 35, 42
6, 651840, Note_off_c, 5, 42, 0
6, 651840, Note_off_c, 5, 47, 0
6, 651840, Note_on_c, 5, 47, 40
6, 651840, Note_on_c, 5, 42, 40
6, 652320, Note_off_c, 5, 35, 0
6, 652320, Note_on_c, 5, 35, 39
6, 653760, Note_off_c, 5, 42, 0
6, 653760, Note_off_c, 5, 47, 0
6, 653760, Note_on_c, 5, 47, 38
6, 653760, Note_on_c, 5, 42, 38
6, 654240, Note_off_c, 5, 35, 0
6, 654240, Note_on_c, 5, 35, 37
6, 655680, Note_off_c, 5, 42, 0
6, 655680, Note_off_c, 5, 47, 0
6, 655680, Note_on_c, 5, 47, 36
6, 655680, Note_on_c, 5, 42, 36
6, 656160, Note_off_c, 5, 35, 0
6, 656160, Note_on_c, 5, 35, 35
6, 657600, Note_off_c, 5, 42, 0
6, 657600, Note_off_c, 5, 47, 0
6, 657600, Note_on_c, 5, 47, 33
6, 657600, Note_on_c, 5, 42, 33
6, 658080, Note_off_c, 5, 42, 0
6, 658080, Note_off_c, 5, 47, 0
6, 658080, Note_off_c, 5, 35, 0
6, 659520, Note_on_c, 5, 47, 31
6, 659520, Note_on_c, 5, 42, 31
6, 660000, Note_on_c, 5, 35, 31
6, 661440, Note_off_c, 5, 42, 0
6, 661440, Note_off_c, 5, 47, 0
6, 661440, Note_on_c, 5, 47, 29
6, 661440, Note_on_c, 5, 42, 29
6, 661920, Note_off_c, 5, 35, 0
6, 661920, Note_on_c, 5, 35, 28
6, 663360, Note_off_c, 5, 42, 0
6, 663360, Note_off_c, 5, 47, 0
6, 663360, Note_on_c, 5, 47, 27
6, 663360, Note_on_c, 5, 42, 27
6, 663840, Note_off_c, 5, 35, 0
6, 663840, Note_on_c, 5, 35, 26
6, 665280, Note_off_c, 5, 42, 0
6, 665280, Note_off_c, 5, 47, 0
6, 665280, Note_on_c, 5, 47, 25
6, 665280, Note_on_c, 5, 42, 25
6, 665760, Note_off_c, 5, 35, 0
6, 665760, Note_on_c, 5, 35, 24
6, 667200, Control_c, 5, 64, 0
6, 667200, Note_off_c, 5, 35, 0
6, 667200, Note_off_c, 5, 42, 0
6, 667200, Note_off_c, 5, 47, 0
6, 673440, Control_c, 5, 64, 0
6, 684960, Control_c, 5, 64, 0
6, 696480, Control_c, 5, 64, 0
6, 708000, Control_c, 5, 64, 0
6, 719520, Control_c, 5, 64, 0
6, 742560, Control_c, 5, 64, 0
6, 765600, Control_c, 5, 64, 0
6, 781440, Control_c, 5, 64, 0
6, 781440, Control_c, 5, 64, 0
6, 789600, Note_on_c, 5, 51, 73
6, 789840, Note_off_c, 5, 51, 0
6, 790080, Note_on_c, 5, 46, 70
6, 790320, Note_off_c, 5, 46, 0
6, 790560, Note_on_c, 5, 43, 68
6, 790800, Note_off_c, 5, 43, 0
6, 791040, Note_on_c, 5, 39, 65
6, 791280, Note_off_c, 5, 39, 0
6, 794880, Control_c, 5, 64, 0
6, 794880, Note_on_c, 5, 39, 40
6, 795600, Note_off_c, 5, 39, 0
6, 795600, Note_on_c, 5, 39, 43
6, 796320, Note_off_c, 5, 39, 0
6, 796320, Note_on_c, 5, 39, 46
6, 797040, Note_off_c, 5, 39, 0
6, 797040, Note_on_c, 5, 39, 47
6, 797760, Note_off_c, 5, 39, 0
6, 797760, Note_on_c, 5, 39, 45
6, 798480, Note_off_c, 5, 39, 0
6, 798480, Note_on_c, 5, 39, 43
6, 798720, Note_off_c, 5, 39, 0
6, 798960, Note_on_c, 5, 48, 42
6, 799080, Note_off_c, 5, 48, 0
6, 799080, Note_on_c, 5, 50, 42
6, 799200, Note_off_c, 5, 50, 0
6, 799200, Note_on_c, 5, 51, 42
6, 799440, Note_on_c, 5, 55, 43
6, 799680, Note_off_c, 5, 51, 0
6, 799680, Note_on_c, 5, 50, 44
6, 799920, Note_off_c, 5, 50, 0
6, 799920, Note_off_c, 5, 55, 0
6, 799920, Note_on_c, 5, 48, 45
6, 800400, Note_off_c, 5, 48, 0
6, 800400, Note_on_c, 5, 41, 48
6, 800640, Note_off_c, 5, 41, 0
6, 800640, Note_on_c, 5, 43, 49
6, 800880, Note_off_c, 5, 43, 0
6, 800880, Note_on_c, 5, 55, 46
6, 801120, Note_off_c, 5, 55, 0
6, 801120, Note_on_c, 5, 56, 45
6, 801360, Note_off_c, 5, 56, 0
6, 801360, Note_on_c, 5, 56, 44
6, 801600, Note_off_c, 5, 56, 0
6, 801600, Note_on_c, 5, 55, 47
6, 801840, Note_off_c, 5, 55, 0
6, 801840, Note_on_c, 5, 53, 48
6, 802080, Note_off_c, 5, 53, 0
6, 802080, Note_on_c, 5, 51, 50
6, 802560, Note_off_c, 5, 51, 0
6, 802560, Note_on_c, 5, 53, 53
6, 802800, Note_off_c, 5, 53, 0
6, 802800, Note_on_c, 5, 55, 54
6, 803040, Note_off_c, 5, 55, 0
6, 803040, Note_on_c, 5, 56, 52
6, 803280, Note_off_c, 5, 56, 0
6, 803280, Note_on_c, 5, 57, 49
6, 803520, Note_off_c, 5, 57, 0
6, 803520, Note_on_c, 5, 46, 47
6, 803712, Note_off_c, 5, 46, 0
6, 804240, Note_on_c, 5, 46, 52
6, 804432, Note_off_c, 5, 46, 0
6, 804960, Note_on_c, 5, 46, 53
6, 805152, Note_off_c, 5, 46, 0
6, 805440, Note_on_c, 5, 46, 44
6, 805518, Note_off_c, 5, 46, 0
6, 805680, Control_c, 5, 64, 0
6, 805680, Note_on_c, 5, 39, 40
6, 806400, Note_off_c, 5, 39, 0
6, 806400, Note_on_c, 5, 39, 43
6, 807120, Note_off_c, 5, 39, 0
6, 807120, Note_on_c, 5, 39, 46
6, 807840, Note_off_c, 5, 39, 0
6, 807840, Note_on_c, 5, 39, 47
6, 808560, Note_off_c, 5, 39, 0
6, 808560, Note_on_c, 5, 39, 45
6, 809280, Note_off_c, 5, 39, 0
6, 809280, Note_on_c, 5, 39, 43
6, 809520, Note_off_c, 5, 39, 0
6, 809760, Note_on_c, 5, 48, 42
6, 809880, Note_off_c, 5, 48, 0
6, 809880, Note_on_c, 5, 50, 42
6, 810000, Note_off_c, 5, 50, 0
6, 810000, Note_on_c, 5, 51, 42
6, 810240, Note_on_c, 5, 55, 43
6, 810480, Note_off_c, 5, 51, 0
6, 810480, Note_on_c, 5, 50, 44
6, 810720, Note_off_c, 5, 50, 0
6, 810720, Note_off_c, 5, 55, 0
6, 810720, Note_on_c, 5, 48, 45
6, 811200, Note_off_c, 5, 48, 0
6, 811200, Note_on_c, 5, 41, 48
6, 811440, Note_off_c, 5, 41, 0
6, 811440, Note_on_c, 5, 43, 49
6, 811680, Note_off_c, 5, 43, 0
6, 811680, Note_on_c, 5, 55, 46
6, 811920, Note_off_c, 5, 55, 0
6, 811920, Note_on_c, 5, 56, 45
6, 812160, Note_off_c, 5, 56, 0
6, 812160, Note_on_c, 5, 56, 44
6, 812400, Note_off_c, 5, 56, 0
6, 812400, Note_on_c, 5, 55, 47
6, 812640, Note_off_c, 5, 55, 0
6, 812640, Note_on_c, 5, 53, 48
6, 812880, Note_off_c, 5, 53, 0
6, 812880, Note_on_c, 5, 51, 50
6, 813360, Note_off_c, 5, 51, 0
6, 813360, Note_on_c, 5, 53, 53
6, 813600, Note_off_c, 5, 53, 0
6, 813600, Note_on_c, 5, 55, 54
6, 813840, Note_off_c, 5, 55, 0
6, 813840, Note_on_c, 5, 56, 52
6, 814080, Note_off_c, 5, 56, 0
6, 814080, Note_on_c, 5, 57, 49
6, 814320, Note_off_c, 5, 57, 0
6, 814320, Note_on_c, 5, 46, 47
6, 814512, Note_off_c, 5, 46, 0
6, 815040, Note_on_c, 5, 46, 52
6, 815232, Note_off_c, 5, 46, 0
6, 815760, Note_on_c, 5, 46, 53
6, 815952, Note_off_c, 5, 46, 0
6, 816240, Note_on_c, 5, 46, 46
6, 816432, Note_off_c, 5, 46, 0
6, 816480, Control_c, 5, 64, 0
6, 816480, Note_on_c, 5, 46, 40
6, 816672, Note_off_c, 5, 46, 0
6, 817200, Note_on_c, 5, 46, 44
6, 817392, Note_off_c, 5, 46, 0
6, 817920, Note_on_c, 5, 44, 46
6, 818040, Note_off_c, 5, 44, 0
6, 818160, Note_on_c, 5, 44, 45
6, 818280, Note_off_c, 5, 44, 0
6, 818400, Note_on_c, 5, 43, 43
6, 818520, Note_off_c, 5, 43, 0
6, 818640, Note_on_c, 5, 43, 44
6, 818832, Note_off_c, 5, 43, 0
6, 819360, Note_on_c, 5, 43, 49
6, 819552, Note_off_c, 5, 43, 0
6, 820080, Note_on_c, 5, 43, 53
6, 820272, Note_off_c, 5, 43, 0
6, 820800, Note_on_c, 5, 43, 57
6, 820992, Note_off_c, 5, 43, 0
6, 821520, Note_on_c, 5, 43, 63
6, 821712, Note_off_c, 5, 43, 0
6, 822240, Note_on_c, 5, 43, 55
6, 822432, Note_off_c, 5, 43, 0
6, 822960, Note_on_c, 5, 43, 46
6, 823152, Note_off_c, 5, 43, 0
6, 823680, Note_on_c, 5, 49, 38
6, 823800, Note_off_c, 5, 49, 0
6, 823920, Note_on_c, 5, 51, 35
6, 824040, Note_off_c, 5, 51, 0
6, 824160, Note_on_c, 5, 51, 33
6, 824280, Note_off_c, 5, 51, 0
6, 824400, Note_on_c, 5, 32, 32
6, 824480, Note_off_c, 5, 32, 0
6, 824480, Note_on_c, 5, 39, 32
6, 824560, Note_off_c, 5, 39, 0
6, 824560, Note_on_c, 5, 32, 32
6, 824640, Note_off_c, 5, 32, 0
6, 824640, Note_on_c, 5, 39, 32
6, 824720, Note_off_c, 5, 39, 0
6, 824720, Note_on_c, 5, 32, 32
6, 824800, Note_off_c, 5, 32, 0
6, 824800, Note_on_c, 5, 39, 33
6, 824880, Note_off_c, 5, 39, 0
6, 824880, Note_on_c, 5, 32, 33
6, 824960, Note_off_c, 5, 32, 0
6, 824960, Note_on_c, 5, 39, 33
6, 825040, Note_off_c, 5, 39, 0
6, 825040, Note_on_c, 5, 32, 33
6, 825120, Note_off_c, 5, 32, 0
6, 825120, Note_on_c, 5, 39, 33
6, 825200, Note_off_c, 5, 39, 0
6, 825200, Note_on_c, 5, 32, 34
6, 825280, Note_off_c, 5, 32, 0
6, 825280, Note_on_c, 5, 39, 34
6, 825360, Note_off_c, 5, 39, 0
6, 825360, Note_on_c, 5, 32, 34
6, 825440, Note_off_c, 5, 32, 0
6, 825440, Note_on_c, 5, 39, 34
6, 825520, Note_off_c, 5, 39, 0
6, 825520, Note_on_c, 5, 32, 34
6, 825600, Note_off_c, 5, 32, 0
6, 825600, Note_on_c, 5, 39, 34
6, 825680, Note_off_c, 5, 39, 0
6, 825680, Note_on_c, 5, 32, 35
6, 825760, Note_off_c, 5, 32, 0
6, 825760, Note_on_c, 5, 39, 35
6, 825840, Note_off_c, 5, 39, 0
6, 825840, Note_on_c, 5, 32, 35
6, 825920, Note_off_c, 5, 32, 0
6, 825920, Note_on_c, 5, 39, 35
6, 826000, Note_off_c, 5, 39, 0
6, 826000, Note_on_c, 5, 32, 35
6, 826080, Note_off_c, 5, 32, 0
6, 826080, Note_on_c, 5, 39, 35
6, 826160, Note_off_c, 5, 39, 0
6, 826160, Note_on_c, 5, 32, 35
6, 826240, Note_off_c, 5, 32, 0
6, 826240, Note_on_c, 5, 39, 35
6, 826320, Note_off_c, 5, 39, 0
6, 826320, Note_on_c, 5, 32, 34
6, 826400, Note_off_c, 5, 32, 0
6, 826400, Note_on_c, 5, 39, 34
6, 826480, Note_off_c, 5, 39, 0
6, 826480, Note_on_c, 5, 32, 34
6, 826560, Note_off_c, 5, 32, 0
6, 826560, Note_on_c, 5, 32, 34
6, 826640, Note_off_c, 5, 32, 0
6, 826640, Note_on_c, 5, 39, 34
6, 826720, Note_off_c, 5, 39, 0
6, 826720, Note_on_c, 5, 32, 33
6, 826800, Note_off_c, 5, 32, 0
6, 826800, Note_on_c, 5, 39, 33
6, 826880, Note_off_c, 5, 39, 0
6, 826880, Note_on_c, 5, 32, 33
6, 826960, Note_off_c, 5, 32, 0
6, 826960, Note_on_c, 5, 39, 33
6, 827040, Note_off_c, 5, 39, 0
6, 827040, Note_on_c, 5, 32, 32
6, 827120, Note_off_c, 5, 32, 0
6, 827120, Note_on_c, 5, 39, 32
6, 827200, Note_off_c, 5, 39, 0
6, 827200, Note_on_c, 5, 32, 32
6, 827280, Note_off_c, 5, 32, 0
6, 827280, Note_on_c, 5, 39, 32
6, 827360, Note_off_c, 5, 39, 0
6, 827360, Note_on_c, 5, 32, 31
6, 827440, Note_off_c, 5, 32, 0
6, 827440, Note_on_c, 5, 39, 31
6, 827520, Note_off_c, 5, 39, 0
6, 827520, Note_on_c, 5, 32, 31
6, 827600, Note_off_c, 5, 32, 0
6, 827600, Note_on_c, 5, 39, 31
6, 827680, Note_off_c, 5, 39, 0
6, 827680, Note_on_c, 5, 32, 31
6, 827760, Note_off_c, 5, 32, 0
6, 827760, Note_on_c, 5, 39, 30
6, 827840, Note_off_c, 5, 39, 0
6, 827840, Note_on_c, 5, 32, 30
6, 827920, Note_off_c, 5, 32, 0
6, 827920, Note_on_c, 5, 39, 30
6, 828000, Note_off_c, 5, 39, 0
6, 828000, Note_on_c, 5, 32, 30
6, 828080, Note_off_c, 5, 32, 0
6, 828080, Note_on_c, 5, 39, 32
6, 828160, Note_off_c, 5, 39, 0
6, 828160, Note_on_c, 5, 32, 33
6, 828240, Note_off_c, 5, 32, 0
6, 828240, Note_on_c, 5, 39, 31
6, 828320, Note_off_c, 5, 39, 0
6, 828320, Note_on_c, 5, 32, 31
6, 828400, Note_off_c, 5, 32, 0
6, 828400, Note_on_c, 5, 39, 30
6, 828480, Note_off_c, 5, 39, 0
6, 828480, Note_on_c, 5, 32, 30
6, 828560, Note_off_c, 5, 32, 0
6, 828560, Note_on_c, 5, 39, 29
6, 828640, Note_off_c, 5, 39, 0
6, 828640, Note_on_c, 5, 32, 32
6, 828720, Note_off_c, 5, 32, 0
6, 828720, Note_on_c, 5, 39, 32
6, 828800, Note_off_c, 5, 39, 0
6, 828800, Note_on_c, 5, 32, 33
6, 828880, Note_off_c, 5, 32, 0
6, 828880, Note_on_c, 5, 39, 33
6, 828960, Note_off_c, 5, 39, 0
6, 828960, Note_on_c, 5, 32, 33
6, 829040, Note_off_c, 5, 32, 0
6, 829040, Note_on_c, 5, 39, 34
6, 829120, Note_off_c, 5, 39, 0
6, 829120, Note_on_c, 5, 32, 34
6, 829200, Note_off_c, 5, 32, 0
6, 829200, Note_on_c, 5, 39, 35
6, 829280, Note_off_c, 5, 39, 0
6, 829280, Note_on_c, 5, 32, 35
6, 829360, Note_off_c, 5, 32, 0
6, 829360, Note_on_c, 5, 39, 36
6, 829440, Note_off_c, 5, 39, 0
6, 829440, Note_on_c, 5, 32, 36
6, 829520, Note_off_c, 5, 32, 0
6, 829520, Note_on_c, 5, 39, 37
6, 829600, Note_off_c, 5, 39, 0
6, 829600, Note_on_c, 5, 32, 37
6, 829680, Note_off_c, 5, 32, 0
6, 829680, Note_on_c, 5, 39, 38
6, 829760, Note_off_c, 5, 39, 0
6, 829760, Note_on_c, 5, 32, 38
6, 829840, Note_off_c, 5, 32, 0
6, 829840, Note_on_c, 5, 39, 39
6, 829920, Note_off_c, 5, 39, 0
6, 829920, Note_on_c, 5, 32, 39
6, 830000, Note_off_c, 5, 32, 0
6, 830000, Note_on_c, 5, 39, 40
6, 830080, Note_off_c, 5, 39, 0
6, 830080, Note_on_c, 5, 32, 40
6, 830160, Note_off_c, 5, 32, 0
6, 830160, Note_on_c, 5, 39, 40
6, 830240, Note_off_c, 5, 39, 0
6, 830240, Note_on_c, 5, 32, 41
6, 830320, Note_off_c, 5, 32, 0
6, 830320, Note_on_c, 5, 39, 41
6, 830400, Note_off_c, 5, 39, 0
6, 830400, Note_on_c, 5, 32, 42
6, 830480, Note_off_c, 5, 32, 0
6, 830480, Note_on_c, 5, 39, 42
6, 830560, Note_off_c, 5, 39, 0
6, 830560, Note_on_c, 5, 32, 43
6, 830640, Note_off_c, 5, 32, 0
6, 830640, Note_on_c, 5, 39, 42
6, 830720, Note_off_c, 5, 39, 0
6, 830720, Note_on_c, 5, 32, 39
6, 830800, Note_off_c, 5, 32, 0
6, 830800, Note_on_c, 5, 39, 37
6, 830880, Note_off_c, 5, 39, 0
6, 830880, Note_on_c, 5, 32, 40
6, 830960, Note_off_c, 5, 32, 0
6, 830960, Note_on_c, 5, 39, 40
6, 831040, Note_off_c, 5, 39, 0
6, 831040, Note_on_c, 5, 32, 40
6, 831120, Note_off_c, 5, 32, 0
6, 831120, Note_on_c, 5, 39, 40
6, 831200, Note_off_c, 5, 39, 0
6, 831200, Note_on_c, 5, 32, 41
6, 831280, Note_off_c, 5, 32, 0
6, 831280, Note_on_c, 5, 39, 41
6, 831360, Note_off_c, 5, 39, 0
6, 831360, Note_on_c, 5, 32, 41
6, 831440, Note_off_c, 5, 32, 0
6, 831440, Note_on_c, 5, 39, 41
6, 831520, Note_off_c, 5, 39, 0
6, 831520, Note_on_c, 5, 32, 41
6, 831600, Note_off_c, 5, 32, 0
6, 831600, Note_on_c, 5, 39, 42
6, 831680, Note_off_c, 5, 39, 0
6, 831680, Note_on_c, 5, 32, 42
6, 831760, Note_off_c, 5, 32, 0
6, 831760, Note_on_c, 5, 39, 42
6, 831840, Note_off_c, 5, 39, 0
6, 831840, Note_on_c, 5, 32, 42
6, 831920, Note_off_c, 5, 32, 0
6, 831920, Note_on_c, 5, 39, 43
6, 832000, Note_off_c, 5, 39, 0
6, 832000, Note_on_c, 5, 32, 43
6, 832080, Note_off_c, 5, 32, 0
6, 832080, Note_on_c, 5, 39, 43
6, 832160, Note_off_c, 5, 39, 0
6, 832160, Note_on_c, 5, 32, 43
6, 832240, Note_off_c, 5, 32, 0
6, 832240, Note_on_c, 5, 39, 43
6, 832320, Note_off_c, 5, 39, 0
6, 832320, Note_on_c, 5, 32, 44
6, 832400, Note_off_c, 5, 32, 0
6, 832400, Note_on_c, 5, 39, 44
6, 832480, Note_off_c, 5, 39, 0
6, 832480, Note_on_c, 5, 32, 44
6, 832560, Note_off_c, 5, 32, 0
6, 832560, Note_on_c, 5, 39, 44
6, 832640, Note_off_c, 5, 39, 0
6, 832640, Note_on_c, 5, 32, 45
6, 832720, Note_off_c, 5, 32, 0
6, 832720, Note_on_c, 5, 39, 45
6, 832800, Note_off_c, 5, 39, 0
6, 832800, Note_on_c, 5, 32, 46
6, 832880, Note_off_c, 5, 32, 0
6, 832880, Note_on_c, 5, 41, 46
6, 832960, Note_off_c, 5, 41, 0
6, 832960, Note_on_c, 5, 43, 47
6, 833024, Note_off_c, 5, 43, 0
6, 833040, Note_on_c, 5, 44, 47
6, 833120, Note_off_c, 5, 44, 0
6, 833120, Note_on_c, 5, 48, 48
6, 833200, Note_off_c, 5, 48, 0
6, 833200, Note_on_c, 5, 44, 49
6, 833280, Note_off_c, 5, 44, 0
6, 833280, Note_on_c, 5, 48, 49
6, 833360, Note_off_c, 5, 48, 0
6, 833360, Note_on_c, 5, 44, 50
6, 833440, Note_off_c, 5, 44, 0
6, 833440, Note_on_c, 5, 48, 50
6, 833520, Note_off_c, 5, 48, 0
6, 833520, Note_on_c, 5, 40, 51
6, 833600, Note_off_c, 5, 40, 0
6, 833600, Note_on_c, 5, 48, 51
6, 833680, Note_off_c, 5, 48, 0
6, 833680, Note_on_c, 5, 40, 52
6, 833760, Note_off_c, 5, 40, 0
6, 833760, Note_on_c, 5, 48, 52
6, 833840, Note_off_c, 5, 48, 0
6, 833840, Note_on_c, 5, 41, 53
6, 833920, Note_off_c, 5, 41, 0
6, 833920, Note_on_c, 5, 48, 54
6, 834000, Note_off_c, 5, 48, 0
6, 834000, Note_on_c, 5, 41, 54
6, 834080, Note_off_c, 5, 41, 0
6, 834080, Note_on_c, 5, 48, 55
6, 834160, Note_off_c, 5, 48, 0
6, 834160, Note_on_c, 5, 41, 55
6, 834240, Note_off_c, 5, 41, 0
6, 834240, Note_on_c, 5, 49, 56
6, 834320, Note_off_c, 5, 49, 0
6, 834320, Note_on_c, 5, 37, 56
6, 834400, Note_off_c, 5, 37, 0
6, 834400, Note_on_c, 5, 49, 57
6, 834480, Note_off_c, 5, 49, 0
6, 834480, Note_on_c, 5, 36, 59
6, 834560, Note_off_c, 5, 36, 0
6, 834560, Note_on_c, 5, 48, 58
6, 834640, Note_off_c, 5, 48, 0
6, 834640, Note_on_c, 5, 36, 57
6, 834720, Note_off_c, 5, 36, 0
6, 834720, Note_on_c, 5, 48, 57
6, 834800, Note_off_c, 5, 48, 0
6, 834800, Note_on_c, 5, 36, 56
6, 834880, Note_off_c, 5, 36, 0
6, 834880, Note_on_c, 5, 46, 55
6, 834960, Note_off_c, 5, 46, 0
6, 834960, Note_on_c, 5, 44, 54
6, 835040, Note_off_c, 5, 44, 0
6, 835040, Note_on_c, 5, 43, 53
6, 835120, Note_off_c, 5, 43, 0
6, 835120, Note_on_c, 5, 41, 53
6, 835200, Note_off_c, 5, 41, 0
6, 835200, Note_on_c, 5, 43, 54
6, 835280, Note_off_c, 5, 43, 0
6, 835280, Note_on_c, 5, 46, 55
6, 835360, Note_off_c, 5, 46, 0
6, 835360, Note_on_c, 5, 43, 56
6, 835440, Note_off_c, 5, 43, 0
6, 835440, Note_on_c, 5, 46, 57
6, 835520, Note_off_c, 5, 46, 0
6, 835520, Note_on_c, 5, 43, 58
6, 835600, Note_off_c, 5, 43, 0
6, 835600, Note_on_c, 5, 46, 59
6, 835680, Note_off_c, 5, 46, 0
6, 835680, Note_on_c, 5, 38, 60
6, 835760, Note_off_c, 5, 38, 0
6, 835760, Note_on_c, 5, 46, 61
6, 835840, Note_off_c, 5, 46, 0
6, 835840, Note_on_c, 5, 38, 62
6, 835920, Note_off_c, 5, 38, 0
6, 835920, Note_on_c, 5, 46, 63
6, 836000, Note_off_c, 5, 46, 0
6, 836000, Note_on_c, 5, 39, 64
6, 836080, Note_off_c, 5, 39, 0
6, 836080, Note_on_c, 5, 46, 65
6, 836160, Note_off_c, 5, 46, 0
6, 836160, Note_on_c, 5, 39, 66
6, 836240, Note_off_c, 5, 39, 0
6, 836240, Note_on_c, 5, 51, 67
6, 836320, Note_off_c, 5, 51, 0
6, 836320, Note_on_c, 5, 39, 68
6, 836400, Note_off_c, 5, 39, 0
6, 836400, Note_on_c, 5, 48, 71
6, 836480, Note_off_c, 5, 48, 0
6, 836480, Note_on_c, 5, 51, 70
6, 836560, Note_off_c, 5, 51, 0
6, 836560, Note_on_c, 5, 48, 68
6, 836640, Note_off_c, 5, 48, 0
6, 836640, Note_on_c, 5, 53, 67
6, 836720, Note_off_c, 5, 53, 0
6, 836720, Note_on_c, 5, 46, 65
6, 836800, Note_off_c, 5, 46, 0
6, 836800, Note_on_c, 5, 53, 63
6, 836880, Note_off_c, 5, 53, 0
6, 836880, Note_on_c, 5, 46, 62
6, 836960, Note_off_c, 5, 46, 0
6, 836960, Note_on_c, 5, 53, 60
6, 837040, Note_off_c, 5, 53, 0
6, 837040, Note_on_c, 5, 51, 59
6, 837120, Note_off_c, 5, 51, 0
6, 837120, Note_on_c, 5, 46, 57
6, 837200, Note_off_c, 5, 46, 0
6, 837200, Note_on_c, 5, 51, 55
6, 837280, Note_off_c, 5, 51, 0
6, 837280, Note_on_c, 5, 50, 54
6, 837360, Note_off_c, 5, 50, 0
6, 837360, Note_on_c, 5, 39, 52
6, 837552, Note_off_c, 5, 39, 0
6, 838080, Note_on_c, 5, 39, 54
6, 838272, Note_off_c, 5, 39, 0
6, 838800, Note_on_c, 5, 50, 54
6, 838992, Note_off_c, 5, 50, 0
6, 839280, Note_on_c, 5, 51, 48
6, 839472, Note_off_c, 5, 51, 0
6, 839520, Note_on_c, 5, 39, 52
6, 839712, Note_off_c, 5, 39, 0
6, 840240, Note_on_c, 5, 39, 54
6, 840432, Note_off_c, 5, 39, 0
6, 840960, Note_on_c, 5, 58, 65
6, 841080, Note_off_c, 5, 58, 0
6, 841200, Note_on_c, 5, 58, 63
6, 841440, Note_off_c, 5, 58, 0
6, 841440, Note_on_c, 5, 63, 60
6, 841632, Note_off_c, 5, 63, 0
6, 841680, Note_on_c, 5, 59, 57
6, 841920, Note_off_c, 5, 59, 0
6, 841920, Note_on_c, 5, 60, 55
6, 842112, Note_off_c, 5, 60, 0
6, 842160, Note_on_c, 5, 55, 52
6, 842160, Note_on_c, 5, 58, 52
6, 842400, Note_off_c, 5, 58, 0
6, 842400, Note_off_c, 5, 55, 0
6, 842400, Note_on_c, 5, 56, 49
6, 842592, Note_off_c, 5, 56, 0
6, 842640, Note_on_c, 5, 52, 47
6, 842880, Note_off_c, 5, 52, 0
6, 842880, Note_on_c, 5, 53, 44
6, 843000, Note_off_c, 5, 53, 0
6, 843000, Note_on_c, 5, 51, 43
6, 843120, Note_off_c, 5, 51, 0
6, 843120, Note_on_c, 5, 50, 44
6, 843240, Note_off_c, 5, 50, 0
6, 843240, Note_on_c, 5, 51, 46
6, 843360, Note_off_c, 5, 51, 0
6, 843360, Note_on_c, 5, 47, 48
6, 843480, Note_off_c, 5, 47, 0
6, 843480, Note_on_c, 5, 48, 50
6, 843600, Note_off_c, 5, 48, 0
6, 843600, Note_on_c, 5, 44, 51
6, 843720, Note_off_c, 5, 44, 0
6, 843720, Note_on_c, 5, 46, 53
6, 843840, Note_off_c, 5, 46, 0
6, 843840, Note_on_c, 5, 47, 58
6, 843920, Note_off_c, 5, 47, 0
6, 843920, Note_on_c, 5, 55, 55
6, 844000, Note_off_c, 5, 55, 0
6, 844000, Note_on_c, 5, 47, 54
6, 844080, Note_off_c, 5, 47, 0
6, 844080, Note_on_c, 5, 48, 53
6, 844160, Note_off_c, 5, 48, 0
6, 844160, Note_on_c, 5, 55, 53
6, 844240, Note_off_c, 5, 55, 0
6, 844240, Note_on_c, 5, 55, 52
6, 844320, Note_off_c, 5, 55, 0
6, 844320, Note_on_c, 5, 43, 51
6, 844400, Note_off_c, 5, 43, 0
6, 844400, Note_on_c, 5, 55, 50
6, 844480, Note_off_c, 5, 55, 0
6, 844480, Note_on_c, 5, 43, 49
6, 844560, Note_off_c, 5, 43, 0
6, 844560, Note_on_c, 5, 44, 49
6, 844640, Note_off_c, 5, 44, 0
6, 844640, Note_on_c, 5, 51, 48
6, 844720, Note_off_c, 5, 51, 0
6, 844720, Note_on_c, 5, 43, 47
6, 844800, Note_off_c, 5, 43, 0
6, 844800, Note_on_c, 5, 44, 46
6, 844880, Note_off_c, 5, 44, 0
6, 844880, Note_on_c, 5, 48, 46
6, 844960, Note_off_c, 5, 48, 0
6, 844960, Note_on_c, 5, 40, 45
6, 845040, Note_off_c, 5, 40, 0
6, 845040, Note_on_c, 5, 41, 44
6, 845120, Note_off_c, 5, 41, 0
6, 845120, Note_on_c, 5, 53, 43
6, 845200, Note_off_c, 5, 53, 0
6, 845200, Note_on_c, 5, 51, 43
6, 845280, Note_off_c, 5, 51, 0
6, 845280, Note_on_c, 5, 50, 42
6, 845400, Note_off_c, 5, 50, 0
6, 845400, Note_on_c, 5, 51, 44
6, 845520, Note_off_c, 5, 51, 0
6, 845520, Note_on_c, 5, 47, 46
6, 845640, Note_off_c, 5, 47, 0
6, 845640, Note_on_c, 5, 48, 47
6, 845760, Note_off_c, 5, 48, 0
6, 845760, Note_on_c, 5, 44, 49
6, 845840, Note_off_c, 5, 44, 0
6, 845840, Note_on_c, 5, 45, 50
6, 845920, Note_off_c, 5, 45, 0
6, 845920, Note_on_c, 5, 46, 51
6, 846000, Note_off_c, 5, 46, 0
6, 846000, Note_on_c, 5, 34, 46
6, 846720, Note_off_c, 5, 34, 0
6, 846720, Note_on_c, 5, 34, 42
6, 847440, Note_off_c, 5, 34, 0
6, 847440, Note_on_c, 5, 39, 39
6, 848160, Note_off_c, 5, 39, 0
6, 848160, Note_on_c, 5, 34, 40
6, 848880, Note_off_c, 5, 34, 0
6, 848880, Note_on_c, 5, 34, 39
6, 849600, Note_off_c, 5, 34, 0
6, 849600, Note_on_c, 5, 39, 38
6, 850080, Note_off_c, 5, 39, 0
6, 851760, Control_c, 5, 64, 0
6, 851760, Control_c, 5, 64, 0
6, 859200, Note_on_c, 5, 51, 73
6, 859440, Note_off_c, 5, 51, 0
6, 859680, Note_on_c, 5, 46, 70
6, 859920, Note_off_c, 5, 46, 0
6, 860160, Note_on_c, 5, 43, 68
6, 860400, Note_off_c, 5, 43, 0
6, 860640, Note_on_c, 5, 39, 65
6, 860880, Note_off_c, 5, 39, 0
6, 860880, End_track
0, 0, End_of_file