0, 0, Header, 1, 5, 120
1, 0, Start_track
1, 0, Title_t, "Sechs lieder von Gellert, in musik gesetzt von Beethoven"
1, 0, Title_t, "Opus 48 nr 1 Bitten Dem Grafen Browne gewidmet"
1, 0, Copyright_t, "Copyright \251 2002 di FIORELLAEARMANDO@PANET.IT"
1, 0, Text_t, "FIORELLAEARMANDO@PANET.IT\012"
1, 0, Time_signature, 4, 2, 24, 8
1, 0, Key_signature, 4, "major"
1, 0, Tempo, 612245
1, 0, End_track
2, 0, Start_track
2, 0, MIDI_port, 0
2, 0, Title_t, "Voce"
2, 0, Program_c, 0, 71
2, 0, Control_c, 0, 7, 120
2, 0, Control_c, 0, 10, 64
2, 0, Control_c, 0, 93, 11
2, 0, Control_c, 0, 91, 16
2, 4080, Note_on_c, 0, 71, 54
2, 4320, Note_on_c, 0, 71, 0
2, 4320, Note_on_c, 0, 71, 57
2, 4680, Note_on_c, 0, 71, 0
2, 4680, Note_on_c, 0, 71, 58
2, 4800, Note_on_c, 0, 71, 0
2, 4800, Note_on_c, 0, 76, 58
2, 5160, Note_on_c, 0, 76, 0
2, 5160, Note_on_c, 0, 76, 58
2, 5280, Note_on_c, 0, 76, 0
2, 5280, Note_on_c, 0, 76, 59
2, 5520, Note_on_c, 0, 76, 0
2, 5520, Note_on_c, 0, 75, 61
2, 5640, Note_on_c, 0, 75, 0
2, 5640, Note_on_c, 0, 73, 61
2, 5760, Note_on_c, 0, 73, 0
2, 5760, Note_on_c, 0, 71, 62
2, 6120, Note_on_c, 0, 71, 0
2, 6120, Note_on_c, 0, 71, 63
2, 6240, Note_on_c, 0, 71, 0
2, 6240, Note_on_c, 0, 71, 62
2, 6600, Note_on_c, 0, 71, 0
2, 6600, Note_on_c, 0, 72, 83
2, 6720, Note_on_c, 0, 72, 0
2, 6720, Note_on_c, 0, 73, 85
2, 6960, Note_on_c, 0, 73, 0
2, 6960, Note_on_c, 0, 78, 90
2, 7200, Note_on_c, 0, 78, 0
2, 7200, Note_on_c, 0, 76, 62
2, 7440, Note_on_c, 0, 76, 0
2, 7440, Note_on_c, 0, 75, 61
2, 7560, Note_on_c, 0, 75, 0
2, 7920, Note_on_c, 0, 75, 57
2, 8160, Note_on_c, 0, 75, 0
2, 8160, Note_on_c, 0, 75, 56
2, 8400, Note_on_c, 0, 75, 0
2, 8400, Note_on_c, 0, 75, 56
2, 8640, Note_on_c, 0, 75, 0
2, 8640, Note_on_c, 0, 76, 59
2, 8880, Note_on_c, 0, 76, 0
2, 8880, Note_on_c, 0, 76, 59
2, 9120, Note_on_c, 0, 76, 0
2, 9120, Note_on_c, 0, 76, 59
2, 9480, Note_on_c, 0, 76, 0
2, 9480, Note_on_c, 0, 76, 60
2, 9600, Note_on_c, 0, 76, 0
2, 9600, Note_on_c, 0, 75, 60
2, 9840, Note_on_c, 0, 75, 0
2, 9840, Note_on_c, 0, 73, 60
2, 10080, Note_on_c, 0, 73, 0
2, 10080, Note_on_c, 0, 71, 60
2, 10440, Note_on_c, 0, 71, 0
2, 10440, Note_on_c, 0, 71, 58
2, 10560, Note_on_c, 0, 71, 0
2, 10560, Note_on_c, 0, 75, 57
2, 10680, Note_on_c, 0, 75, 0
2, 10680, Note_on_c, 0, 73, 57
2, 10800, Note_on_c, 0, 73, 0
2, 10800, Note_on_c, 0, 71, 57
2, 10920, Note_on_c, 0, 71, 0
2, 10920, Note_on_c, 0, 70, 57
2, 11040, Note_on_c, 0, 70, 0
2, 11040, Note_on_c, 0, 70, 57
2, 11280, Note_on_c, 0, 70, 0
2, 11280, Note_on_c, 0, 71, 56
2, 11400, Note_on_c, 0, 71, 0
2, 12720, Note_on_c, 0, 71, 53
2, 12960, Note_on_c, 0, 71, 0
2, 12960, Note_on_c, 0, 76, 53
2, 13320, Note_on_c, 0, 76, 0
2, 13320, Note_on_c, 0, 76, 54
2, 13440, Note_on_c, 0, 76, 0
2, 13440, Note_on_c, 0, 76, 54
2, 13800, Note_on_c, 0, 76, 0
2, 13800, Note_on_c, 0, 76, 61
2, 13920, Note_on_c, 0, 76, 0
2, 13920, Note_on_c, 0, 76, 62
2, 14280, Note_on_c, 0, 76, 0
2, 14280, Note_on_c, 0, 76, 67
2, 14400, Note_on_c, 0, 76, 0
2, 14400, Note_on_c, 0, 76, 68
2, 14760, Note_on_c, 0, 76, 0
2, 14760, Note_on_c, 0, 76, 76
2, 14880, Note_on_c, 0, 76, 0
2, 14880, Note_on_c, 0, 76, 89
2, 15240, Note_on_c, 0, 76, 0
2, 15240, Note_on_c, 0, 76, 99
2, 15360, Note_on_c, 0, 76, 0
2, 15360, Note_on_c, 0, 76, 102
2, 15720, Note_on_c, 0, 76, 0
2, 15720, Note_on_c, 0, 76, 114
2, 15840, Note_on_c, 0, 76, 0
2, 15840, Note_on_c, 0, 75, 57
2, 16080, Note_on_c, 0, 75, 0
2, 16080, Note_on_c, 0, 76, 57
2, 16200, Note_on_c, 0, 76, 0
2, 16200, Note_on_c, 0, 67, 57
2, 16320, Note_on_c, 0, 67, 0
2, 16320, Note_on_c, 0, 66, 79
2, 16800, Note_on_c, 0, 66, 0
2, 17040, Note_on_c, 0, 66, 57
2, 17280, Note_on_c, 0, 66, 0
2, 17280, Note_on_c, 0, 71, 56
2, 17640, Note_on_c, 0, 71, 0
2, 17640, Note_on_c, 0, 71, 56
2, 17760, Note_on_c, 0, 71, 0
2, 17760, Note_on_c, 0, 69, 56
2, 18120, Note_on_c, 0, 69, 0
2, 18120, Note_on_c, 0, 69, 56
2, 18240, Note_on_c, 0, 69, 0
2, 18240, Note_on_c, 0, 68, 56
2, 18720, Note_on_c, 0, 68, 0
2, 18720, Note_on_c, 0, 67, 54
2, 18840, Note_on_c, 0, 67, 0
2, 18840, Note_on_c, 0, 67, 58
2, 18960, Note_on_c, 0, 67, 0
2, 18960, Note_on_c, 0, 67, 66
2, 19080, Note_on_c, 0, 67, 0
2, 19080, Note_on_c, 0, 67, 67
2, 19200, Note_on_c, 0, 67, 0
2, 19200, Note_on_c, 0, 66, 72
2, 19560, Note_on_c, 0, 66, 0
2, 19560, Note_on_c, 0, 66, 88
2, 19680, Note_on_c, 0, 66, 0
2, 19680, Note_on_c, 0, 66, 71
2, 20160, Note_on_c, 0, 66, 0
2, 20160, Note_on_c, 0, 64, 56
2, 20400, Note_on_c, 0, 64, 0
2, 20400, End_track
3, 0, Start_track
3, 0, MIDI_port, 0
3, 0, Title_t, "Piano Right"
3, 0, Program_c, 1, 0
3, 0, Control_c, 1, 7, 110
3, 0, Control_c, 1, 10, 32
3, 0, Control_c, 1, 93, 16
3, 0, Control_c, 1, 91, 11
3, 240, Note_on_c, 1, 71, 59
3, 480, Note_on_c, 1, 71, 0
3, 480, Note_on_c, 1, 71, 59
3, 480, Note_on_c, 1, 68, 59
3, 840, Note_on_c, 1, 68, 0
3, 840, Note_on_c, 1, 71, 0
3, 840, Note_on_c, 1, 66, 59
3, 840, Note_on_c, 1, 71, 59
3, 960, Note_on_c, 1, 71, 0
3, 960, Note_on_c, 1, 66, 0
3, 960, Note_on_c, 1, 64, 59
3, 960, Note_on_c, 1, 76, 59
3, 1080, Note_on_c, 1, 64, 0
3, 1080, Note_on_c, 1, 75, 59
3, 1200, Note_on_c, 1, 75, 0
3, 1200, Note_on_c, 1, 73, 59
3, 1320, Note_on_c, 1, 73, 0
3, 1320, Note_on_c, 1, 76, 0
3, 1320, Note_on_c, 1, 71, 59
3, 1320, Note_on_c, 1, 76, 59
3, 1440, Note_on_c, 1, 76, 0
3, 1440, Note_on_c, 1, 71, 0
3, 1440, Note_on_c, 1, 69, 59
3, 1440, Note_on_c, 1, 76, 59
3, 1680, Note_on_c, 1, 76, 0
3, 1680, Note_on_c, 1, 75, 59
3, 1800, Note_on_c, 1, 75, 0
3, 1800, Note_on_c, 1, 69, 0
3, 1800, Note_on_c, 1, 73, 59
3, 1800, Note_on_c, 1, 69, 59
3, 1920, Note_on_c, 1, 69, 0
3, 1920, Note_on_c, 1, 73, 0
3, 1920, Note_on_c, 1, 69, 59
3, 1920, Note_on_c, 1, 71, 59
3, 2280, Note_on_c, 1, 71, 0
3, 2280, Note_on_c, 1, 69, 0
3, 2280, Note_on_c, 1, 71, 59
3, 2280, Note_on_c, 1, 63, 59
3, 2400, Note_on_c, 1, 63, 0
3, 2400, Note_on_c, 1, 71, 0
3, 2400, Note_on_c, 1, 64, 62
3, 2400, Note_on_c, 1, 71, 62
3, 2520, Note_on_c, 1, 64, 0
3, 2520, Note_on_c, 1, 68, 67
3, 2640, Note_on_c, 1, 68, 0
3, 2640, Note_on_c, 1, 71, 0
3, 2640, Note_on_c, 1, 69, 70
3, 2640, Note_on_c, 1, 64, 70
3, 2760, Note_on_c, 1, 64, 0
3, 2760, Note_on_c, 1, 69, 0
3, 2760, Note_on_c, 1, 73, 71
3, 2760, Note_on_c, 1, 64, 71
3, 2880, Note_on_c, 1, 64, 0
3, 2880, Note_on_c, 1, 73, 0
3, 2880, Note_on_c, 1, 68, 72
3, 2880, Note_on_c, 1, 64, 72
3, 3120, Note_on_c, 1, 64, 0
3, 3120, Note_on_c, 1, 68, 0
3, 3120, Note_on_c, 1, 59, 86
3, 3180, Note_on_c, 1, 66, 92
3, 3180, Note_on_c, 1, 69, 92
3, 3240, Note_on_c, 1, 57, 93
3, 3300, Note_on_c, 1, 63, 99
3, 3300, Note_on_c, 1, 66, 99
3, 3360, Note_on_c, 1, 66, 0
3, 3360, Note_on_c, 1, 66, 0
3, 3360, Note_on_c, 1, 69, 0
3, 3360, Note_on_c, 1, 59, 0
3, 3360, Note_on_c, 1, 63, 0
3, 3360, Note_on_c, 1, 57, 0
3, 3360, Note_on_c, 1, 57, 58
3, 3360, Note_on_c, 1, 63, 58
3, 3360, Note_on_c, 1, 66, 58
3, 3840, Note_on_c, 1, 66, 0
3, 3840, Note_on_c, 1, 63, 0
3, 3840, Note_on_c, 1, 57, 0
3, 3840, Note_on_c, 1, 56, 59
3, 3840, Note_on_c, 1, 59, 59
3, 3840, Note_on_c, 1, 64, 59
3, 3960, Note_on_c, 1, 64, 0
3, 3960, Note_on_c, 1, 59, 0
3, 3960, Note_on_c, 1, 56, 0
3, 4080, Note_on_c, 1, 71, 59
3, 4320, Note_on_c, 1, 71, 0
3, 4320, Note_on_c, 1, 71, 59
3, 4320, Note_on_c, 1, 68, 59
3, 4680, Note_on_c, 1, 68, 0
3, 4680, Note_on_c, 1, 71, 0
3, 4680, Note_on_c, 1, 71, 59
3, 4680, Note_on_c, 1, 66, 59
3, 4800, Note_on_c, 1, 66, 0
3, 4800, Note_on_c, 1, 71, 0
3, 4800, Note_on_c, 1, 64, 59
3, 4800, Note_on_c, 1, 76, 59
3, 4920, Note_on_c, 1, 64, 0
3, 4920, Note_on_c, 1, 75, 59
3, 5040, Note_on_c, 1, 75, 0
3, 5040, Note_on_c, 1, 73, 59
3, 5160, Note_on_c, 1, 73, 0
3, 5160, Note_on_c, 1, 76, 0
3, 5160, Note_on_c, 1, 71, 59
3, 5160, Note_on_c, 1, 76, 59
3, 5280, Note_on_c, 1, 76, 0
3, 5280, Note_on_c, 1, 71, 0
3, 5280, Note_on_c, 1, 69, 59
3, 5280, Note_on_c, 1, 76, 59
3, 5520, Note_on_c, 1, 76, 0
3, 5520, Note_on_c, 1, 75, 59
3, 5640, Note_on_c, 1, 75, 0
3, 5640, Note_on_c, 1, 69, 0
3, 5640, Note_on_c, 1, 73, 59
3, 5640, Note_on_c, 1, 69, 59
3, 5760, Note_on_c, 1, 69, 0
3, 5760, Note_on_c, 1, 73, 0
3, 5760, Note_on_c, 1, 71, 59
3, 5760, Note_on_c, 1, 69, 59
3, 6120, Note_on_c, 1, 69, 0
3, 6120, Note_on_c, 1, 71, 0
3, 6120, Note_on_c, 1, 71, 59
3, 6120, Note_on_c, 1, 63, 59
3, 6240, Note_on_c, 1, 63, 0
3, 6240, Note_on_c, 1, 71, 0
3, 6240, Note_on_c, 1, 71, 59
3, 6240, Note_on_c, 1, 68, 59
3, 6240, Note_on_c, 1, 64, 59
3, 6600, Note_on_c, 1, 64, 0
3, 6600, Note_on_c, 1, 68, 0
3, 6600, Note_on_c, 1, 71, 0
3, 6600, Note_on_c, 1, 68, 80
3, 6600, Note_on_c, 1, 72, 80
3, 6600, Note_on_c, 1, 66, 80
3, 6720, Note_on_c, 1, 66, 0
3, 6720, Note_on_c, 1, 72, 0
3, 6720, Note_on_c, 1, 68, 0
3, 6720, Note_on_c, 1, 73, 88
3, 6720, Note_on_c, 1, 68, 88
3, 6720, Note_on_c, 1, 64, 88
3, 6960, Note_on_c, 1, 64, 0
3, 6960, Note_on_c, 1, 68, 0
3, 6960, Note_on_c, 1, 73, 0
3, 6960, Note_on_c, 1, 78, 100
3, 6960, Note_on_c, 1, 73, 100
3, 7080, Note_on_c, 1, 73, 0
3, 7080, Note_on_c, 1, 69, 104
3, 7200, Note_on_c, 1, 69, 0
3, 7200, Note_on_c, 1, 78, 0
3, 7200, Note_on_c, 1, 76, 57
3, 7200, Note_on_c, 1, 71, 57
3, 7200, Note_on_c, 1, 68, 57
3, 7440, Note_on_c, 1, 68, 0
3, 7440, Note_on_c, 1, 71, 0
3, 7440, Note_on_c, 1, 76, 0
3, 7440, Note_on_c, 1, 75, 57
3, 7440, Note_on_c, 1, 71, 57
3, 7440, Note_on_c, 1, 66, 57
3, 7560, Note_on_c, 1, 66, 0
3, 7560, Note_on_c, 1, 71, 0
3, 7560, Note_on_c, 1, 75, 0
3, 7920, Note_on_c, 1, 66, 57
3, 7920, Note_on_c, 1, 71, 57
3, 7920, Note_on_c, 1, 75, 57
3, 8160, Note_on_c, 1, 75, 0
3, 8160, Note_on_c, 1, 71, 0
3, 8160, Note_on_c, 1, 66, 0
3, 8160, Note_on_c, 1, 66, 57
3, 8160, Note_on_c, 1, 68, 57
3, 8160, Note_on_c, 1, 72, 57
3, 8160, Note_on_c, 1, 75, 57
3, 8400, Note_on_c, 1, 75, 0
3, 8400, Note_on_c, 1, 66, 0
3, 8400, Note_on_c, 1, 68, 0
3, 8400, Note_on_c, 1, 72, 0
3, 8400, Note_on_c, 1, 68, 57
3, 8400, Note_on_c, 1, 72, 57
3, 8400, Note_on_c, 1, 75, 57
3, 8640, Note_on_c, 1, 75, 0
3, 8640, Note_on_c, 1, 72, 0
3, 8640, Note_on_c, 1, 68, 0
3, 8640, Note_on_c, 1, 76, 57
3, 8640, Note_on_c, 1, 73, 57
3, 8640, Note_on_c, 1, 68, 57
3, 8880, Note_on_c, 1, 68, 0
3, 8880, Note_on_c, 1, 73, 0
3, 8880, Note_on_c, 1, 76, 0
3, 8880, Note_on_c, 1, 76, 57
3, 8880, Note_on_c, 1, 73, 57
3, 8880, Note_on_c, 1, 68, 57
3, 9120, Note_on_c, 1, 68, 0
3, 9120, Note_on_c, 1, 73, 0
3, 9120, Note_on_c, 1, 76, 0
3, 9120, Note_on_c, 1, 76, 57
3, 9120, Note_on_c, 1, 66, 57
3, 9120, Note_on_c, 1, 73, 57
3, 9240, Note_on_c, 1, 73, 0
3, 9240, Note_on_c, 1, 71, 57
3, 9360, Note_on_c, 1, 71, 0
3, 9360, Note_on_c, 1, 70, 57
3, 9480, Note_on_c, 1, 70, 0
3, 9480, Note_on_c, 1, 66, 0
3, 9480, Note_on_c, 1, 76, 0
3, 9480, Note_on_c, 1, 76, 57
3, 9480, Note_on_c, 1, 73, 57
3, 9480, Note_on_c, 1, 66, 57
3, 9600, Note_on_c, 1, 66, 0
3, 9600, Note_on_c, 1, 73, 0
3, 9600, Note_on_c, 1, 76, 0
3, 9600, Note_on_c, 1, 75, 57
3, 9600, Note_on_c, 1, 71, 57
3, 9600, Note_on_c, 1, 66, 57
3, 9840, Note_on_c, 1, 66, 0
3, 9840, Note_on_c, 1, 71, 0
3, 9840, Note_on_c, 1, 75, 0
3, 9840, Note_on_c, 1, 64, 57
3, 9840, Note_on_c, 1, 68, 57
3, 9840, Note_on_c, 1, 73, 57
3, 10080, Note_on_c, 1, 73, 0
3, 10080, Note_on_c, 1, 68, 0
3, 10080, Note_on_c, 1, 64, 0
3, 10080, Note_on_c, 1, 71, 57
3, 10080, Note_on_c, 1, 66, 57
3, 10080, Note_on_c, 1, 63, 57
3, 10440, Note_on_c, 1, 63, 0
3, 10440, Note_on_c, 1, 66, 0
3, 10440, Note_on_c, 1, 71, 0
3, 10440, Note_on_c, 1, 63, 57
3, 10440, Note_on_c, 1, 66, 57
3, 10440, Note_on_c, 1, 71, 57
3, 10560, Note_on_c, 1, 71, 0
3, 10560, Note_on_c, 1, 66, 0
3, 10560, Note_on_c, 1, 63, 0
3, 10560, Note_on_c, 1, 75, 57
3, 10560, Note_on_c, 1, 66, 57
3, 10680, Note_on_c, 1, 66, 0
3, 10680, Note_on_c, 1, 75, 0
3, 10680, Note_on_c, 1, 73, 57
3, 10680, Note_on_c, 1, 64, 57
3, 10800, Note_on_c, 1, 64, 0
3, 10800, Note_on_c, 1, 73, 0
3, 10800, Note_on_c, 1, 71, 57
3, 10800, Note_on_c, 1, 66, 57
3, 10800, Note_on_c, 1, 63, 57
3, 10920, Note_on_c, 1, 63, 0
3, 10920, Note_on_c, 1, 66, 0
3, 10920, Note_on_c, 1, 71, 0
3, 10920, Note_on_c, 1, 70, 57
3, 10920, Note_on_c, 1, 64, 57
3, 10920, Note_on_c, 1, 61, 57
3, 11040, Note_on_c, 1, 61, 0
3, 11040, Note_on_c, 1, 64, 0
3, 11040, Note_on_c, 1, 70, 0
3, 11040, Note_on_c, 1, 64, 57
3, 11040, Note_on_c, 1, 61, 57
3, 11040, Note_on_c, 1, 70, 57
3, 11280, Note_on_c, 1, 70, 0
3, 11280, Note_on_c, 1, 61, 0
3, 11280, Note_on_c, 1, 64, 0
3, 11280, Note_on_c, 1, 63, 57
3, 11280, Note_on_c, 1, 59, 57
3, 11280, Note_on_c, 1, 71, 57
3, 11400, Note_on_c, 1, 71, 0
3, 11400, Note_on_c, 1, 59, 0
3, 11400, Note_on_c, 1, 63, 0
3, 11400, Note_on_c, 1, 63, 57
3, 11400, Note_on_c, 1, 71, 57
3, 11520, Note_on_c, 1, 71, 0
3, 11520, Note_on_c, 1, 63, 0
3, 11520, Note_on_c, 1, 71, 57
3, 11520, Note_on_c, 1, 64, 57
3, 11640, Note_on_c, 1, 64, 0
3, 11640, Note_on_c, 1, 71, 0
3, 11640, Note_on_c, 1, 72, 57
3, 11640, Note_on_c, 1, 69, 57
3, 11640, Note_on_c, 1, 63, 57
3, 11760, Note_on_c, 1, 63, 0
3, 11760, Note_on_c, 1, 69, 0
3, 11760, Note_on_c, 1, 72, 0
3, 11760, Note_on_c, 1, 64, 57
3, 11760, Note_on_c, 1, 68, 57
3, 11760, Note_on_c, 1, 73, 57
3, 11880, Note_on_c, 1, 73, 0
3, 11880, Note_on_c, 1, 68, 0
3, 11880, Note_on_c, 1, 64, 0
3, 11880, Note_on_c, 1, 70, 57
3, 11880, Note_on_c, 1, 64, 57
3, 11880, Note_on_c, 1, 61, 57
3, 12000, Note_on_c, 1, 61, 0
3, 12000, Note_on_c, 1, 64, 0
3, 12000, Note_on_c, 1, 70, 0
3, 12000, Note_on_c, 1, 70, 57
3, 12000, Note_on_c, 1, 64, 57
3, 12000, Note_on_c, 1, 61, 57
3, 12240, Note_on_c, 1, 61, 0
3, 12240, Note_on_c, 1, 64, 0
3, 12240, Note_on_c, 1, 70, 0
3, 12240, Note_on_c, 1, 71, 56
3, 12240, Note_on_c, 1, 63, 56
3, 12240, Note_on_c, 1, 59, 56
3, 12480, Note_on_c, 1, 59, 0
3, 12480, Note_on_c, 1, 63, 0
3, 12480, Note_on_c, 1, 71, 0
3, 12480, Note_on_c, 1, 71, 56
3, 12480, Note_on_c, 1, 63, 56
3, 12480, Note_on_c, 1, 59, 56
3, 12600, Note_on_c, 1, 59, 0
3, 12600, Note_on_c, 1, 63, 0
3, 12600, Note_on_c, 1, 71, 0
3, 12600, Note_on_c, 1, 71, 56
3, 12600, Note_on_c, 1, 63, 56
3, 12600, Note_on_c, 1, 59, 56
3, 12720, Note_on_c, 1, 59, 0
3, 12720, Note_on_c, 1, 63, 0
3, 12720, Note_on_c, 1, 71, 0
3, 12720, Note_on_c, 1, 71, 56
3, 12720, Note_on_c, 1, 63, 56
3, 12720, Note_on_c, 1, 59, 56
3, 12840, Note_on_c, 1, 59, 0
3, 12840, Note_on_c, 1, 63, 0
3, 12840, Note_on_c, 1, 71, 0
3, 12840, Note_on_c, 1, 71, 56
3, 12840, Note_on_c, 1, 63, 56
3, 12840, Note_on_c, 1, 59, 56
3, 12960, Note_on_c, 1, 59, 0
3, 12960, Note_on_c, 1, 63, 0
3, 12960, Note_on_c, 1, 71, 0
3, 12960, Note_on_c, 1, 64, 56
3, 12960, Note_on_c, 1, 60, 56
3, 12960, Note_on_c, 1, 71, 56
3, 13200, Note_on_c, 1, 71, 0
3, 13200, Note_on_c, 1, 69, 58
3, 13320, Note_on_c, 1, 69, 0
3, 13320, Note_on_c, 1, 60, 0
3, 13320, Note_on_c, 1, 64, 0
3, 13320, Note_on_c, 1, 69, 59
3, 13320, Note_on_c, 1, 64, 59
3, 13320, Note_on_c, 1, 60, 59
3, 13440, Note_on_c, 1, 60, 0
3, 13440, Note_on_c, 1, 64, 0
3, 13440, Note_on_c, 1, 69, 0
3, 13440, Note_on_c, 1, 60, 60
3, 13440, Note_on_c, 1, 64, 60
3, 13440, Note_on_c, 1, 69, 60
3, 13800, Note_on_c, 1, 69, 0
3, 13800, Note_on_c, 1, 64, 0
3, 13800, Note_on_c, 1, 60, 0
3, 13800, Note_on_c, 1, 60, 63
3, 13800, Note_on_c, 1, 64, 63
3, 13800, Note_on_c, 1, 69, 63
3, 13920, Note_on_c, 1, 69, 0
3, 13920, Note_on_c, 1, 64, 0
3, 13920, Note_on_c, 1, 60, 0
3, 13920, Note_on_c, 1, 64, 69
3, 13920, Note_on_c, 1, 69, 69
3, 13920, Note_on_c, 1, 62, 69
3, 13920, Note_on_c, 1, 59, 69
3, 14160, Note_on_c, 1, 59, 0
3, 14160, Note_on_c, 1, 64, 0
3, 14160, Note_on_c, 1, 69, 0
3, 14160, Note_on_c, 1, 62, 0
3, 14160, Note_on_c, 1, 64, 73
3, 14160, Note_on_c, 1, 68, 73
3, 14280, Note_on_c, 1, 68, 0
3, 14280, Note_on_c, 1, 64, 0
3, 14280, Note_on_c, 1, 64, 76
3, 14280, Note_on_c, 1, 68, 76
3, 14280, Note_on_c, 1, 62, 76
3, 14280, Note_on_c, 1, 59, 76
3, 14400, Note_on_c, 1, 59, 0
3, 14400, Note_on_c, 1, 64, 0
3, 14400, Note_on_c, 1, 68, 0
3, 14400, Note_on_c, 1, 62, 0
3, 14400, Note_on_c, 1, 62, 76
3, 14400, Note_on_c, 1, 59, 76
3, 14400, Note_on_c, 1, 64, 76
3, 14400, Note_on_c, 1, 68, 76
3, 14760, Note_on_c, 1, 68, 0
3, 14760, Note_on_c, 1, 62, 0
3, 14760, Note_on_c, 1, 59, 0
3, 14760, Note_on_c, 1, 64, 0
3, 14760, Note_on_c, 1, 59, 81
3, 14760, Note_on_c, 1, 62, 81
3, 14760, Note_on_c, 1, 64, 81
3, 14760, Note_on_c, 1, 68, 81
3, 14880, Note_on_c, 1, 68, 0
3, 14880, Note_on_c, 1, 59, 0
3, 14880, Note_on_c, 1, 62, 0
3, 14880, Note_on_c, 1, 64, 0
3, 14880, Note_on_c, 1, 60, 82
3, 14880, Note_on_c, 1, 64, 82
3, 14880, Note_on_c, 1, 72, 82
3, 15240, Note_on_c, 1, 72, 0
3, 15240, Note_on_c, 1, 64, 0
3, 15240, Note_on_c, 1, 60, 0
3, 15240, Note_on_c, 1, 60, 91
3, 15240, Note_on_c, 1, 64, 91
3, 15240, Note_on_c, 1, 72, 91
3, 15360, Note_on_c, 1, 72, 0
3, 15360, Note_on_c, 1, 64, 0
3, 15360, Note_on_c, 1, 60, 0
3, 15360, Note_on_c, 1, 71, 93
3, 15360, Note_on_c, 1, 64, 93
3, 15360, Note_on_c, 1, 59, 93
3, 15720, Note_on_c, 1, 59, 0
3, 15720, Note_on_c, 1, 64, 0
3, 15720, Note_on_c, 1, 71, 0
3, 15720, Note_on_c, 1, 71, 105
3, 15720, Note_on_c, 1, 64, 105
3, 15720, Note_on_c, 1, 59, 105
3, 15840, Note_on_c, 1, 59, 0
3, 15840, Note_on_c, 1, 64, 0
3, 15840, Note_on_c, 1, 71, 0
3, 15840, Note_on_c, 1, 63, 62
3, 15840, Note_on_c, 1, 59, 62
3, 15840, Note_on_c, 1, 69, 62
3, 16080, Note_on_c, 1, 69, 0
3, 16080, Note_on_c, 1, 59, 0
3, 16080, Note_on_c, 1, 63, 0
3, 16080, Note_on_c, 1, 59, 62
3, 16080, Note_on_c, 1, 64, 62
3, 16080, Note_on_c, 1, 71, 62
3, 16200, Note_on_c, 1, 71, 0
3, 16200, Note_on_c, 1, 67, 63
3, 16320, Note_on_c, 1, 67, 0
3, 16320, Note_on_c, 1, 64, 0
3, 16320, Note_on_c, 1, 59, 0
3, 16320, Note_on_c, 1, 63, 54
3, 16320, Note_on_c, 1, 59, 54
3, 16320, Note_on_c, 1, 66, 54
3, 16800, Note_on_c, 1, 66, 0
3, 16800, Note_on_c, 1, 59, 0
3, 16800, Note_on_c, 1, 63, 0
3, 16800, Note_on_c, 1, 66, 71
3, 16800, Note_on_c, 1, 63, 71
3, 16800, Note_on_c, 1, 59, 71
3, 17040, Note_on_c, 1, 59, 0
3, 17040, Note_on_c, 1, 63, 0
3, 17040, Note_on_c, 1, 66, 0
3, 17040, Note_on_c, 1, 66, 88
3, 17040, Note_on_c, 1, 63, 88
3, 17040, Note_on_c, 1, 59, 88
3, 17280, Note_on_c, 1, 59, 0
3, 17280, Note_on_c, 1, 63, 0
3, 17280, Note_on_c, 1, 66, 0
3, 17280, Note_on_c, 1, 71, 63
3, 17280, Note_on_c, 1, 59, 63
3, 17640, Note_on_c, 1, 59, 0
3, 17640, Note_on_c, 1, 71, 0
3, 17640, Note_on_c, 1, 71, 63
3, 17640, Note_on_c, 1, 59, 63
3, 17760, Note_on_c, 1, 59, 0
3, 17760, Note_on_c, 1, 71, 0
3, 17760, Note_on_c, 1, 69, 63
3, 17760, Note_on_c, 1, 59, 63
3, 18120, Note_on_c, 1, 59, 0
3, 18120, Note_on_c, 1, 69, 0
3, 18120, Note_on_c, 1, 69, 63
3, 18120, Note_on_c, 1, 59, 63
3, 18240, Note_on_c, 1, 59, 0
3, 18240, Note_on_c, 1, 69, 0
3, 18240, Note_on_c, 1, 68, 63
3, 18240, Note_on_c, 1, 59, 63
3, 18720, Note_on_c, 1, 59, 0
3, 18720, Note_on_c, 1, 68, 0
3, 18720, Note_on_c, 1, 67, 56
3, 18720, Note_on_c, 1, 61, 56
3, 18840, Note_on_c, 1, 61, 0
3, 18840, Note_on_c, 1, 67, 0
3, 18840, Note_on_c, 1, 67, 57
3, 18840, Note_on_c, 1, 64, 57
3, 18840, Note_on_c, 1, 61, 57
3, 18960, Note_on_c, 1, 61, 0
3, 18960, Note_on_c, 1, 64, 0
3, 18960, Note_on_c, 1, 67, 0
3, 18960, Note_on_c, 1, 67, 58
3, 18960, Note_on_c, 1, 64, 58
3, 18960, Note_on_c, 1, 61, 58
3, 19080, Note_on_c, 1, 61, 0
3, 19080, Note_on_c, 1, 64, 0
3, 19080, Note_on_c, 1, 67, 0
3, 19080, Note_on_c, 1, 67, 60
3, 19080, Note_on_c, 1, 64, 60
3, 19080, Note_on_c, 1, 61, 60
3, 19200, Note_on_c, 1, 61, 0
3, 19200, Note_on_c, 1, 64, 0
3, 19200, Note_on_c, 1, 67, 0
3, 19200, Note_on_c, 1, 66, 64
3, 19200, Note_on_c, 1, 64, 64
3, 19440, Note_on_c, 1, 64, 0
3, 19440, Note_on_c, 1, 63, 70
3, 19560, Note_on_c, 1, 63, 0
3, 19560, Note_on_c, 1, 66, 0
3, 19560, Note_on_c, 1, 61, 73
3, 19560, Note_on_c, 1, 66, 73
3, 19680, Note_on_c, 1, 66, 0
3, 19680, Note_on_c, 1, 61, 0
3, 19680, Note_on_c, 1, 66, 75
3, 19680, Note_on_c, 1, 63, 75
3, 19680, Note_on_c, 1, 59, 75
3, 19920, Note_on_c, 1, 59, 0
3, 19920, Note_on_c, 1, 57, 85
3, 20160, Note_on_c, 1, 57, 0
3, 20160, Note_on_c, 1, 63, 0
3, 20160, Note_on_c, 1, 66, 0
3, 20160, Note_on_c, 1, 64, 93
3, 20160, Note_on_c, 1, 59, 93
3, 20160, Note_on_c, 1, 56, 93
3, 20400, Note_on_c, 1, 56, 0
3, 20400, Note_on_c, 1, 59, 0
3, 20400, Note_on_c, 1, 64, 0
3, 20400, Note_on_c, 1, 64, 66
3, 20400, Note_on_c, 1, 61, 66
3, 20400, Note_on_c, 1, 57, 66
3, 20640, Note_on_c, 1, 57, 0
3, 20640, Note_on_c, 1, 61, 0
3, 20640, Note_on_c, 1, 64, 0
3, 20640, Note_on_c, 1, 64, 60
3, 20640, Note_on_c, 1, 59, 60
3, 20640, Note_on_c, 1, 56, 60
3, 20880, Note_on_c, 1, 56, 0
3, 20880, Note_on_c, 1, 59, 0
3, 20880, Note_on_c, 1, 64, 0
3, 20880, Note_on_c, 1, 64, 55
3, 20880, Note_on_c, 1, 63, 55
3, 20880, Note_on_c, 1, 57, 55
3, 20880, Note_on_c, 1, 54, 55
3, 21120, Note_on_c, 1, 54, 0
3, 21120, Note_on_c, 1, 64, 0
3, 21120, Note_on_c, 1, 63, 0
3, 21120, Note_on_c, 1, 57, 0
3, 21120, Note_on_c, 1, 64, 49
3, 21120, Note_on_c, 1, 59, 49
3, 21120, Note_on_c, 1, 56, 49
3, 21600, Note_on_c, 1, 56, 0
3, 21600, Note_on_c, 1, 59, 0
3, 21600, Note_on_c, 1, 64, 0
3, 21600, Note_on_c, 1, 59, 42
3, 21600, Note_on_c, 1, 56, 42
3, 21600, Note_on_c, 1, 64, 42
3, 22080, Note_on_c, 1, 64, 0
3, 22080, Note_on_c, 1, 56, 0
3, 22080, Note_on_c, 1, 59, 0
3, 22080, End_track
4, 0, Start_track
4, 0, MIDI_port, 0
4, 0, Title_t, "Piano Left"
4, 0, Program_c, 2, 0
4, 0, Control_c, 2, 7, 104
4, 0, Control_c, 2, 10, 94
4, 0, Control_c, 2, 93, 12
4, 0, Control_c, 2, 91, 14
4, 600, Note_on_c, 2, 52, 58
4, 720, Note_on_c, 2, 52, 0
4, 720, Note_on_c, 2, 64, 58
4, 840, Note_on_c, 2, 64, 0
4, 840, Note_on_c, 2, 63, 58
4, 960, Note_on_c, 2, 63, 0
4, 960, Note_on_c, 2, 61, 58
4, 1080, Note_on_c, 2, 61, 0
4, 1080, Note_on_c, 2, 59, 58
4, 1200, Note_on_c, 2, 59, 0
4, 1200, Note_on_c, 2, 57, 58
4, 1320, Note_on_c, 2, 57, 0
4, 1320, Note_on_c, 2, 56, 58
4, 1440, Note_on_c, 2, 56, 0
4, 1440, Note_on_c, 2, 54, 58
4, 1560, Note_on_c, 2, 54, 0
4, 1560, Note_on_c, 2, 66, 58
4, 1800, Note_on_c, 2, 66, 0
4, 1800, Note_on_c, 2, 64, 58
4, 1920, Note_on_c, 2, 64, 0
4, 1920, Note_on_c, 2, 63, 58
4, 2040, Note_on_c, 2, 63, 0
4, 2040, Note_on_c, 2, 61, 58
4, 2160, Note_on_c, 2, 61, 0
4, 2160, Note_on_c, 2, 59, 58
4, 2280, Note_on_c, 2, 59, 0
4, 2280, Note_on_c, 2, 57, 58
4, 2400, Note_on_c, 2, 57, 0
4, 2400, Note_on_c, 2, 56, 65
4, 2520, Note_on_c, 2, 56, 0
4, 2520, Note_on_c, 2, 52, 76
4, 2640, Note_on_c, 2, 52, 0
4, 2640, Note_on_c, 2, 49, 81
4, 2760, Note_on_c, 2, 49, 0
4, 2760, Note_on_c, 2, 45, 86
4, 2880, Note_on_c, 2, 45, 0
4, 2880, Note_on_c, 2, 47, 88
4, 3120, Note_on_c, 2, 47, 0
4, 3120, Note_on_c, 2, 35, 58
4, 3360, Note_on_c, 2, 35, 0
4, 3360, Note_on_c, 2, 40, 58
4, 3360, Note_on_c, 2, 40, 58
4, 3480, Note_on_c, 2, 40, 0
4, 3480, Note_on_c, 2, 47, 58
4, 3600, Note_on_c, 2, 47, 0
4, 3600, Note_on_c, 2, 52, 58
4, 3720, Note_on_c, 2, 52, 0
4, 3720, Note_on_c, 2, 47, 58
4, 3840, Note_on_c, 2, 47, 0
4, 3840, Note_on_c, 2, 40, 0
4, 3840, Note_on_c, 2, 40, 58
4, 3840, Note_on_c, 2, 52, 58
4, 3960, Note_on_c, 2, 52, 0
4, 3960, Note_on_c, 2, 40, 0
4, 4440, Note_on_c, 2, 52, 58
4, 4560, Note_on_c, 2, 52, 0
4, 4560, Note_on_c, 2, 64, 58
4, 4680, Note_on_c, 2, 64, 0
4, 4680, Note_on_c, 2, 63, 58
4, 4800, Note_on_c, 2, 63, 0
4, 4800, Note_on_c, 2, 61, 58
4, 4920, Note_on_c, 2, 61, 0
4, 4920, Note_on_c, 2, 59, 58
4, 5040, Note_on_c, 2, 59, 0
4, 5040, Note_on_c, 2, 57, 58
4, 5160, Note_on_c, 2, 57, 0
4, 5160, Note_on_c, 2, 56, 58
4, 5280, Note_on_c, 2, 56, 0
4, 5280, Note_on_c, 2, 54, 58
4, 5400, Note_on_c, 2, 54, 0
4, 5400, Note_on_c, 2, 66, 58
4, 5640, Note_on_c, 2, 66, 0
4, 5640, Note_on_c, 2, 64, 58
4, 5760, Note_on_c, 2, 64, 0
4, 5760, Note_on_c, 2, 63, 58
4, 5880, Note_on_c, 2, 63, 0
4, 5880, Note_on_c, 2, 61, 58
4, 6000, Note_on_c, 2, 61, 0
4, 6000, Note_on_c, 2, 59, 58
4, 6120, Note_on_c, 2, 59, 0
4, 6120, Note_on_c, 2, 57, 58
4, 6240, Note_on_c, 2, 57, 0
4, 6240, Note_on_c, 2, 56, 61
4, 6360, Note_on_c, 2, 56, 0
4, 6360, Note_on_c, 2, 54, 66
4, 6480, Note_on_c, 2, 54, 0
4, 6480, Note_on_c, 2, 52, 70
4, 6600, Note_on_c, 2, 52, 0
4, 6600, Note_on_c, 2, 51, 78
4, 6720, Note_on_c, 2, 51, 0
4, 6720, Note_on_c, 2, 49, 85
4, 6840, Note_on_c, 2, 49, 0
4, 6840, Note_on_c, 2, 47, 90
4, 6960, Note_on_c, 2, 47, 0
4, 6960, Note_on_c, 2, 45, 92
4, 7080, Note_on_c, 2, 45, 0
4, 7080, Note_on_c, 2, 42, 99
4, 7200, Note_on_c, 2, 42, 0
4, 7200, Note_on_c, 2, 47, 59
4, 7320, Note_on_c, 2, 47, 0
4, 7320, Note_on_c, 2, 35, 59
4, 7440, Note_on_c, 2, 35, 0
4, 7440, Note_on_c, 2, 47, 58
4, 7560, Note_on_c, 2, 47, 0
4, 7560, Note_on_c, 2, 46, 57
4, 7680, Note_on_c, 2, 46, 0
4, 7680, Note_on_c, 2, 47, 57
4, 7800, Note_on_c, 2, 47, 0
4, 7800, Note_on_c, 2, 49, 56
4, 7920, Note_on_c, 2, 49, 0
4, 7920, Note_on_c, 2, 47, 56
4, 8040, Note_on_c, 2, 47, 0
4, 8040, Note_on_c, 2, 45, 56
4, 8160, Note_on_c, 2, 45, 0
4, 8160, Note_on_c, 2, 44, 56
4, 8280, Note_on_c, 2, 44, 0
4, 8280, Note_on_c, 2, 51, 56
4, 8400, Note_on_c, 2, 51, 0
4, 8400, Note_on_c, 2, 56, 56
4, 8520, Note_on_c, 2, 56, 0
4, 8520, Note_on_c, 2, 54, 59
4, 8640, Note_on_c, 2, 54, 0
4, 8640, Note_on_c, 2, 52, 59
4, 8760, Note_on_c, 2, 52, 0
4, 8760, Note_on_c, 2, 51, 59
4, 8880, Note_on_c, 2, 51, 0
4, 8880, Note_on_c, 2, 49, 59
4, 9000, Note_on_c, 2, 49, 0
4, 9000, Note_on_c, 2, 47, 59
4, 9120, Note_on_c, 2, 47, 0
4, 9120, Note_on_c, 2, 46, 59
4, 9240, Note_on_c, 2, 46, 0
4, 9240, Note_on_c, 2, 44, 59
4, 9360, Note_on_c, 2, 44, 0
4, 9360, Note_on_c, 2, 42, 59
4, 9480, Note_on_c, 2, 42, 0
4, 9480, Note_on_c, 2, 46, 59
4, 9600, Note_on_c, 2, 46, 0
4, 9600, Note_on_c, 2, 47, 59
4, 9720, Note_on_c, 2, 47, 0
4, 9720, Note_on_c, 2, 39, 59
4, 9840, Note_on_c, 2, 39, 0
4, 9840, Note_on_c, 2, 40, 59
4, 9960, Note_on_c, 2, 40, 0
4, 9960, Note_on_c, 2, 37, 59
4, 10080, Note_on_c, 2, 37, 0
4, 10080, Note_on_c, 2, 42, 59
4, 10200, Note_on_c, 2, 42, 0
4, 10200, Note_on_c, 2, 47, 59
4, 10320, Note_on_c, 2, 47, 0
4, 10320, Note_on_c, 2, 51, 59
4, 10440, Note_on_c, 2, 51, 0
4, 10440, Note_on_c, 2, 54, 59
4, 10560, Note_on_c, 2, 54, 0
4, 10560, Note_on_c, 2, 42, 59
4, 10680, Note_on_c, 2, 42, 0
4, 10680, Note_on_c, 2, 54, 59
4, 10800, Note_on_c, 2, 54, 0
4, 10800, Note_on_c, 2, 42, 59
4, 10920, Note_on_c, 2, 42, 0
4, 10920, Note_on_c, 2, 54, 59
4, 11040, Note_on_c, 2, 54, 0
4, 11160, Note_on_c, 2, 35, 59
4, 11280, Note_on_c, 2, 35, 0
4, 11280, Note_on_c, 2, 47, 59
4, 11400, Note_on_c, 2, 47, 0
4, 11400, Note_on_c, 2, 45, 59
4, 11520, Note_on_c, 2, 45, 0
4, 11520, Note_on_c, 2, 44, 59
4, 11640, Note_on_c, 2, 44, 0
4, 11640, Note_on_c, 2, 42, 59
4, 11760, Note_on_c, 2, 42, 0
4, 11760, Note_on_c, 2, 40, 59
4, 11880, Note_on_c, 2, 40, 0
4, 11880, Note_on_c, 2, 42, 59
4, 12000, Note_on_c, 2, 42, 0
4, 12120, Note_on_c, 2, 35, 59
4, 12240, Note_on_c, 2, 35, 0
4, 12240, Note_on_c, 2, 39, 59
4, 12360, Note_on_c, 2, 39, 0
4, 12360, Note_on_c, 2, 42, 59
4, 12480, Note_on_c, 2, 42, 0
4, 12480, Note_on_c, 2, 47, 59
4, 12600, Note_on_c, 2, 47, 0
4, 12600, Note_on_c, 2, 51, 59
4, 12720, Note_on_c, 2, 51, 0
4, 12720, Note_on_c, 2, 54, 59
4, 12840, Note_on_c, 2, 54, 0
4, 12840, Note_on_c, 2, 47, 59
4, 12960, Note_on_c, 2, 47, 0
4, 13080, Note_on_c, 2, 48, 59
4, 13200, Note_on_c, 2, 48, 0
4, 13200, Note_on_c, 2, 52, 65
4, 13320, Note_on_c, 2, 52, 0
4, 13320, Note_on_c, 2, 57, 68
4, 13440, Note_on_c, 2, 57, 0
4, 13560, Note_on_c, 2, 48, 71
4, 13680, Note_on_c, 2, 48, 0
4, 13680, Note_on_c, 2, 52, 73
4, 13800, Note_on_c, 2, 52, 0
4, 13800, Note_on_c, 2, 57, 77
4, 13920, Note_on_c, 2, 57, 0
4, 14040, Note_on_c, 2, 47, 78
4, 14160, Note_on_c, 2, 47, 0
4, 14160, Note_on_c, 2, 50, 81
4, 14280, Note_on_c, 2, 50, 0
4, 14280, Note_on_c, 2, 56, 84
4, 14400, Note_on_c, 2, 56, 0
4, 14520, Note_on_c, 2, 47, 85
4, 14640, Note_on_c, 2, 47, 0
4, 14640, Note_on_c, 2, 50, 89
4, 14760, Note_on_c, 2, 50, 0
4, 14760, Note_on_c, 2, 56, 93
4, 14880, Note_on_c, 2, 56, 0
4, 15000, Note_on_c, 2, 45, 98
4, 15120, Note_on_c, 2, 45, 0
4, 15120, Note_on_c, 2, 48, 99
4, 15240, Note_on_c, 2, 48, 0
4, 15240, Note_on_c, 2, 52, 101
4, 15360, Note_on_c, 2, 52, 0
4, 15480, Note_on_c, 2, 44, 107
4, 15600, Note_on_c, 2, 44, 0
4, 15600, Note_on_c, 2, 47, 110
4, 15720, Note_on_c, 2, 47, 0
4, 15720, Note_on_c, 2, 44, 111
4, 15840, Note_on_c, 2, 44, 0
4, 15840, Note_on_c, 2, 42, 65
4, 15960, Note_on_c, 2, 42, 0
4, 15960, Note_on_c, 2, 47, 65
4, 16080, Note_on_c, 2, 47, 0
4, 16080, Note_on_c, 2, 43, 65
4, 16200, Note_on_c, 2, 43, 0
4, 16200, Note_on_c, 2, 40, 65
4, 16320, Note_on_c, 2, 40, 0
4, 16320, Note_on_c, 2, 47, 57
4, 16440, Note_on_c, 2, 47, 0
4, 16440, Note_on_c, 2, 35, 61
4, 16560, Note_on_c, 2, 35, 0
4, 16560, Note_on_c, 2, 39, 63
4, 16680, Note_on_c, 2, 39, 0
4, 16680, Note_on_c, 2, 42, 66
4, 16800, Note_on_c, 2, 42, 0
4, 16800, Note_on_c, 2, 47, 72
4, 16920, Note_on_c, 2, 47, 0
4, 16920, Note_on_c, 2, 49, 80
4, 17040, Note_on_c, 2, 49, 0
4, 17040, Note_on_c, 2, 47, 89
4, 17160, Note_on_c, 2, 47, 0
4, 17160, Note_on_c, 2, 45, 98
4, 17280, Note_on_c, 2, 45, 0
4, 17280, Note_on_c, 2, 52, 101
4, 17280, Note_on_c, 2, 44, 101
4, 17640, Note_on_c, 2, 44, 0
4, 17640, Note_on_c, 2, 52, 0
4, 17640, Note_on_c, 2, 52, 66
4, 17640, Note_on_c, 2, 44, 66
4, 17760, Note_on_c, 2, 44, 0
4, 17760, Note_on_c, 2, 52, 0
4, 17760, Note_on_c, 2, 51, 66
4, 17760, Note_on_c, 2, 42, 66
4, 18120, Note_on_c, 2, 42, 0
4, 18120, Note_on_c, 2, 51, 0
4, 18120, Note_on_c, 2, 51, 66
4, 18120, Note_on_c, 2, 42, 66
4, 18240, Note_on_c, 2, 42, 0
4, 18240, Note_on_c, 2, 51, 0
4, 18240, Note_on_c, 2, 52, 66
4, 18240, Note_on_c, 2, 40, 66
4, 18720, Note_on_c, 2, 40, 0
4, 18720, Note_on_c, 2, 52, 0
4, 18720, Note_on_c, 2, 52, 56
4, 18720, Note_on_c, 2, 46, 56
4, 18840, Note_on_c, 2, 46, 0
4, 18840, Note_on_c, 2, 52, 0
4, 18840, Note_on_c, 2, 52, 64
4, 18840, Note_on_c, 2, 46, 64
4, 18960, Note_on_c, 2, 46, 0
4, 18960, Note_on_c, 2, 52, 0
4, 18960, Note_on_c, 2, 52, 67
4, 18960, Note_on_c, 2, 46, 67
4, 19080, Note_on_c, 2, 46, 0
4, 19080, Note_on_c, 2, 52, 0
4, 19080, Note_on_c, 2, 52, 71
4, 19080, Note_on_c, 2, 46, 71
4, 19200, Note_on_c, 2, 46, 0
4, 19200, Note_on_c, 2, 52, 0
4, 19200, Note_on_c, 2, 59, 77
4, 19200, Note_on_c, 2, 47, 77
4, 19680, Note_on_c, 2, 47, 0
4, 19680, Note_on_c, 2, 59, 0
4, 19680, Note_on_c, 2, 47, 90
4, 19680, Note_on_c, 2, 35, 90
4, 20160, Note_on_c, 2, 35, 0
4, 20160, Note_on_c, 2, 47, 0
4, 20160, Note_on_c, 2, 52, 57
4, 20160, Note_on_c, 2, 40, 57
4, 20640, Note_on_c, 2, 40, 0
4, 20640, Note_on_c, 2, 52, 0
4, 20640, Note_on_c, 2, 52, 54
4, 20640, Note_on_c, 2, 40, 54
4, 21120, Note_on_c, 2, 40, 0
4, 21120, Note_on_c, 2, 52, 0
4, 21120, Note_on_c, 2, 52, 45
4, 21120, Note_on_c, 2, 40, 45
4, 21600, Note_on_c, 2, 40, 0
4, 21600, Note_on_c, 2, 52, 0
4, 21600, Note_on_c, 2, 52, 37
4, 21600, Note_on_c, 2, 40, 37
4, 22080, Note_on_c, 2, 40, 0
4, 22080, Note_on_c, 2, 52, 0
4, 22080, End_track
5, 0, Start_track
5, 0, MIDI_port, 0
5, 0, Title_t, "Chor"
5, 0, Program_c, 3, 61
5, 0, Control_c, 3, 7, 121
5, 0, Control_c, 3, 10, 64
5, 0, Control_c, 3, 93, 18
5, 0, Control_c, 3, 91, 11
5, 0, End_track
0, 0, End_of_file