0, 0, Header, 1, 4, 120
1, 0, Start_track
1, 0, Title_t, "Piano Piece in D major"
1, 0, Title_t, "Hess 57 (1824)"
1, 0, Copyright_t, "Copyright \251 2002 di FIORELLA ED ARMANDO ORLANDI"
1, 0, Text_t, "FIORELLA ED ARMANDO ORLANDI\012"
1, 0, Time_signature, 2, 2, 24, 8
1, 0, Key_signature, 0, "major"
1, 0, Tempo, 588235
1, 0, End_track
2, 0, Start_track
2, 0, Title_t, "PianoR"
2, 0, Program_c, 0, 0
2, 0, Control_c, 0, 7, 127
2, 0, Control_c, 0, 10, 45
2, 0, Control_c, 0, 93, 15
2, 0, Control_c, 0, 91, 21
2, 0, Note_on_c, 0, 60, 52
2, 60, Note_on_c, 0, 60, 0
2, 60, Note_on_c, 0, 60, 52
2, 90, Note_on_c, 0, 60, 0
2, 90, Note_on_c, 0, 60, 56
2, 120, Note_on_c, 0, 60, 0
2, 120, Note_on_c, 0, 62, 61
2, 180, Note_on_c, 0, 62, 0
2, 240, Note_on_c, 0, 65, 52
2, 300, Note_on_c, 0, 65, 0
2, 300, Note_on_c, 0, 65, 53
2, 330, Note_on_c, 0, 65, 0
2, 330, Note_on_c, 0, 65, 57
2, 360, Note_on_c, 0, 65, 0
2, 360, Note_on_c, 0, 64, 62
2, 420, Note_on_c, 0, 64, 0
2, 480, Note_on_c, 0, 72, 49
2, 510, Note_on_c, 0, 72, 0
2, 510, Note_on_c, 0, 72, 51
2, 540, Note_on_c, 0, 72, 0
2, 540, Note_on_c, 0, 72, 53
2, 570, Note_on_c, 0, 72, 0
2, 570, Note_on_c, 0, 72, 54
2, 600, Note_on_c, 0, 72, 0
2, 600, Note_on_c, 0, 71, 54
2, 630, Note_on_c, 0, 71, 0
2, 630, Note_on_c, 0, 71, 55
2, 660, Note_on_c, 0, 71, 0
2, 660, Note_on_c, 0, 71, 56
2, 690, Note_on_c, 0, 71, 0
2, 690, Note_on_c, 0, 71, 57
2, 720, Note_on_c, 0, 71, 0
2, 720, Note_on_c, 0, 69, 57
2, 750, Note_on_c, 0, 69, 0
2, 750, Note_on_c, 0, 69, 57
2, 780, Note_on_c, 0, 69, 0
2, 780, Note_on_c, 0, 69, 57
2, 810, Note_on_c, 0, 69, 0
2, 810, Note_on_c, 0, 69, 57
2, 840, Note_on_c, 0, 69, 0
2, 840, Note_on_c, 0, 67, 57
2, 870, Note_on_c, 0, 67, 0
2, 870, Note_on_c, 0, 67, 57
2, 900, Note_on_c, 0, 67, 0
2, 900, Note_on_c, 0, 67, 56
2, 930, Note_on_c, 0, 67, 0
2, 930, Note_on_c, 0, 67, 56
2, 960, Note_on_c, 0, 67, 0
2, 960, Note_on_c, 0, 79, 55
2, 960, Note_on_c, 0, 67, 55
2, 990, Note_on_c, 0, 67, 0
2, 990, Note_on_c, 0, 67, 55
2, 1020, Note_on_c, 0, 67, 0
2, 1020, Note_on_c, 0, 79, 0
2, 1020, Note_on_c, 0, 79, 54
2, 1020, Note_on_c, 0, 67, 54
2, 1050, Note_on_c, 0, 67, 0
2, 1050, Note_on_c, 0, 79, 0
2, 1050, Note_on_c, 0, 79, 53
2, 1050, Note_on_c, 0, 67, 53
2, 1080, Note_on_c, 0, 67, 0
2, 1080, Note_on_c, 0, 79, 0
2, 1080, Note_on_c, 0, 81, 53
2, 1080, Note_on_c, 0, 66, 53
2, 1110, Note_on_c, 0, 66, 0
2, 1110, Note_on_c, 0, 66, 53
2, 1140, Note_on_c, 0, 66, 0
2, 1140, Note_on_c, 0, 81, 0
2, 1140, Note_on_c, 0, 66, 53
2, 1170, Note_on_c, 0, 66, 0
2, 1170, Note_on_c, 0, 66, 53
2, 1200, Note_on_c, 0, 66, 0
2, 1200, Note_on_c, 0, 84, 53
2, 1200, Note_on_c, 0, 64, 53
2, 1230, Note_on_c, 0, 64, 0
2, 1230, Note_on_c, 0, 64, 53
2, 1260, Note_on_c, 0, 64, 0
2, 1260, Note_on_c, 0, 84, 0
2, 1260, Note_on_c, 0, 84, 53
2, 1260, Note_on_c, 0, 64, 53
2, 1290, Note_on_c, 0, 64, 0
2, 1290, Note_on_c, 0, 84, 0
2, 1290, Note_on_c, 0, 84, 53
2, 1290, Note_on_c, 0, 64, 53
2, 1320, Note_on_c, 0, 64, 0
2, 1320, Note_on_c, 0, 84, 0
2, 1320, Note_on_c, 0, 83, 53
2, 1320, Note_on_c, 0, 62, 53
2, 1350, Note_on_c, 0, 62, 0
2, 1350, Note_on_c, 0, 62, 53
2, 1380, Note_on_c, 0, 62, 0
2, 1380, Note_on_c, 0, 83, 0
2, 1380, Note_on_c, 0, 62, 53
2, 1410, Note_on_c, 0, 62, 0
2, 1410, Note_on_c, 0, 62, 54
2, 1440, Note_on_c, 0, 62, 0
2, 1440, Note_on_c, 0, 67, 55
2, 1440, Note_on_c, 0, 91, 55
2, 1470, Note_on_c, 0, 91, 0
2, 1470, Note_on_c, 0, 91, 55
2, 1500, Note_on_c, 0, 91, 0
2, 1500, Note_on_c, 0, 67, 0
2, 1500, Note_on_c, 0, 67, 55
2, 1500, Note_on_c, 0, 91, 55
2, 1530, Note_on_c, 0, 91, 0
2, 1530, Note_on_c, 0, 67, 0
2, 1530, Note_on_c, 0, 67, 55
2, 1530, Note_on_c, 0, 91, 55
2, 1560, Note_on_c, 0, 91, 0
2, 1560, Note_on_c, 0, 67, 0
2, 1560, Note_on_c, 0, 69, 55
2, 1560, Note_on_c, 0, 90, 55
2, 1590, Note_on_c, 0, 90, 0
2, 1590, Note_on_c, 0, 90, 55
2, 1620, Note_on_c, 0, 90, 0
2, 1620, Note_on_c, 0, 69, 0
2, 1620, Note_on_c, 0, 90, 55
2, 1650, Note_on_c, 0, 90, 0
2, 1650, Note_on_c, 0, 90, 55
2, 1680, Note_on_c, 0, 90, 0
2, 1680, Note_on_c, 0, 72, 55
2, 1680, Note_on_c, 0, 88, 55
2, 1710, Note_on_c, 0, 88, 0
2, 1710, Note_on_c, 0, 88, 55
2, 1740, Note_on_c, 0, 88, 0
2, 1740, Note_on_c, 0, 72, 0
2, 1740, Note_on_c, 0, 72, 55
2, 1740, Note_on_c, 0, 88, 55
2, 1770, Note_on_c, 0, 88, 0
2, 1770, Note_on_c, 0, 72, 0
2, 1770, Note_on_c, 0, 72, 55
2, 1770, Note_on_c, 0, 88, 55
2, 1800, Note_on_c, 0, 88, 0
2, 1800, Note_on_c, 0, 72, 0
2, 1800, Note_on_c, 0, 71, 54
2, 1800, Note_on_c, 0, 86, 54
2, 1830, Note_on_c, 0, 86, 0
2, 1830, Note_on_c, 0, 86, 54
2, 1860, Note_on_c, 0, 86, 0
2, 1860, Note_on_c, 0, 71, 0
2, 1860, Note_on_c, 0, 86, 53
2, 1890, Note_on_c, 0, 86, 0
2, 1890, Note_on_c, 0, 86, 53
2, 1920, Note_on_c, 0, 86, 0
2, 1920, Control_c, 0, 93, 15
2, 1920, Control_c, 0, 91, 21
2, 1920, Note_on_c, 0, 60, 52
2, 1980, Note_on_c, 0, 60, 0
2, 1980, Note_on_c, 0, 60, 52
2, 2010, Note_on_c, 0, 60, 0
2, 2010, Note_on_c, 0, 60, 56
2, 2040, Note_on_c, 0, 60, 0
2, 2040, Note_on_c, 0, 62, 61
2, 2100, Note_on_c, 0, 62, 0
2, 2160, Note_on_c, 0, 65, 52
2, 2220, Note_on_c, 0, 65, 0
2, 2220, Note_on_c, 0, 65, 53
2, 2250, Note_on_c, 0, 65, 0
2, 2250, Note_on_c, 0, 65, 57
2, 2280, Note_on_c, 0, 65, 0
2, 2280, Note_on_c, 0, 64, 62
2, 2340, Note_on_c, 0, 64, 0
2, 2400, Note_on_c, 0, 72, 49
2, 2430, Note_on_c, 0, 72, 0
2, 2430, Note_on_c, 0, 72, 51
2, 2460, Note_on_c, 0, 72, 0
2, 2460, Note_on_c, 0, 72, 53
2, 2490, Note_on_c, 0, 72, 0
2, 2490, Note_on_c, 0, 72, 54
2, 2520, Note_on_c, 0, 72, 0
2, 2520, Note_on_c, 0, 71, 54
2, 2550, Note_on_c, 0, 71, 0
2, 2550, Note_on_c, 0, 71, 55
2, 2580, Note_on_c, 0, 71, 0
2, 2580, Note_on_c, 0, 71, 56
2, 2610, Note_on_c, 0, 71, 0
2, 2610, Note_on_c, 0, 71, 57
2, 2640, Note_on_c, 0, 71, 0
2, 2640, Note_on_c, 0, 69, 57
2, 2670, Note_on_c, 0, 69, 0
2, 2670, Note_on_c, 0, 69, 57
2, 2700, Note_on_c, 0, 69, 0
2, 2700, Note_on_c, 0, 69, 57
2, 2730, Note_on_c, 0, 69, 0
2, 2730, Note_on_c, 0, 69, 57
2, 2760, Note_on_c, 0, 69, 0
2, 2760, Note_on_c, 0, 67, 57
2, 2790, Note_on_c, 0, 67, 0
2, 2790, Note_on_c, 0, 67, 57
2, 2820, Note_on_c, 0, 67, 0
2, 2820, Note_on_c, 0, 67, 56
2, 2850, Note_on_c, 0, 67, 0
2, 2850, Note_on_c, 0, 67, 56
2, 2880, Note_on_c, 0, 67, 0
2, 2880, Note_on_c, 0, 79, 55
2, 2880, Note_on_c, 0, 67, 55
2, 2910, Note_on_c, 0, 67, 0
2, 2910, Note_on_c, 0, 67, 55
2, 2940, Note_on_c, 0, 67, 0
2, 2940, Note_on_c, 0, 79, 0
2, 2940, Note_on_c, 0, 79, 54
2, 2940, Note_on_c, 0, 67, 54
2, 2970, Note_on_c, 0, 67, 0
2, 2970, Note_on_c, 0, 79, 0
2, 2970, Note_on_c, 0, 79, 53
2, 2970, Note_on_c, 0, 67, 53
2, 3000, Note_on_c, 0, 67, 0
2, 3000, Note_on_c, 0, 79, 0
2, 3000, Note_on_c, 0, 81, 53
2, 3000, Note_on_c, 0, 66, 53
2, 3030, Note_on_c, 0, 66, 0
2, 3030, Note_on_c, 0, 66, 53
2, 3060, Note_on_c, 0, 66, 0
2, 3060, Note_on_c, 0, 81, 0
2, 3060, Note_on_c, 0, 66, 53
2, 3090, Note_on_c, 0, 66, 0
2, 3090, Note_on_c, 0, 66, 53
2, 3120, Note_on_c, 0, 66, 0
2, 3120, Note_on_c, 0, 84, 53
2, 3120, Note_on_c, 0, 64, 53
2, 3150, Note_on_c, 0, 64, 0
2, 3150, Note_on_c, 0, 64, 53
2, 3180, Note_on_c, 0, 64, 0
2, 3180, Note_on_c, 0, 84, 0
2, 3180, Note_on_c, 0, 84, 53
2, 3180, Note_on_c, 0, 64, 53
2, 3210, Note_on_c, 0, 64, 0
2, 3210, Note_on_c, 0, 84, 0
2, 3210, Note_on_c, 0, 84, 53
2, 3210, Note_on_c, 0, 64, 53
2, 3240, Note_on_c, 0, 64, 0
2, 3240, Note_on_c, 0, 84, 0
2, 3240, Note_on_c, 0, 83, 53
2, 3240, Note_on_c, 0, 62, 53
2, 3270, Note_on_c, 0, 62, 0
2, 3270, Note_on_c, 0, 62, 53
2, 3300, Note_on_c, 0, 62, 0
2, 3300, Note_on_c, 0, 83, 0
2, 3300, Note_on_c, 0, 62, 53
2, 3330, Note_on_c, 0, 62, 0
2, 3330, Note_on_c, 0, 62, 54
2, 3360, Note_on_c, 0, 62, 0
2, 3360, Note_on_c, 0, 67, 55
2, 3360, Note_on_c, 0, 91, 55
2, 3390, Note_on_c, 0, 91, 0
2, 3390, Note_on_c, 0, 91, 55
2, 3420, Note_on_c, 0, 91, 0
2, 3420, Note_on_c, 0, 67, 0
2, 3420, Note_on_c, 0, 67, 55
2, 3420, Note_on_c, 0, 91, 55
2, 3450, Note_on_c, 0, 91, 0
2, 3450, Note_on_c, 0, 67, 0
2, 3450, Note_on_c, 0, 67, 55
2, 3450, Note_on_c, 0, 91, 55
2, 3480, Note_on_c, 0, 91, 0
2, 3480, Note_on_c, 0, 67, 0
2, 3480, Note_on_c, 0, 69, 55
2, 3480, Note_on_c, 0, 90, 55
2, 3510, Note_on_c, 0, 90, 0
2, 3510, Note_on_c, 0, 90, 55
2, 3540, Note_on_c, 0, 90, 0
2, 3540, Note_on_c, 0, 69, 0
2, 3540, Note_on_c, 0, 90, 55
2, 3570, Note_on_c, 0, 90, 0
2, 3570, Note_on_c, 0, 90, 55
2, 3600, Note_on_c, 0, 90, 0
2, 3600, Note_on_c, 0, 72, 55
2, 3600, Note_on_c, 0, 88, 55
2, 3630, Note_on_c, 0, 88, 0
2, 3630, Note_on_c, 0, 88, 55
2, 3660, Note_on_c, 0, 88, 0
2, 3660, Note_on_c, 0, 72, 0
2, 3660, Note_on_c, 0, 72, 55
2, 3660, Note_on_c, 0, 88, 55
2, 3690, Note_on_c, 0, 88, 0
2, 3690, Note_on_c, 0, 72, 0
2, 3690, Note_on_c, 0, 72, 55
2, 3690, Note_on_c, 0, 88, 55
2, 3720, Note_on_c, 0, 88, 0
2, 3720, Note_on_c, 0, 72, 0
2, 3720, Note_on_c, 0, 71, 54
2, 3720, Note_on_c, 0, 86, 54
2, 3750, Note_on_c, 0, 86, 0
2, 3750, Note_on_c, 0, 86, 54
2, 3780, Note_on_c, 0, 86, 0
2, 3780, Note_on_c, 0, 71, 0
2, 3780, Note_on_c, 0, 86, 53
2, 3810, Note_on_c, 0, 86, 0
2, 3810, Note_on_c, 0, 86, 53
2, 3840, Note_on_c, 0, 86, 0
2, 4080, Note_on_c, 0, 70, 52
2, 4140, Note_on_c, 0, 70, 0
2, 4140, Note_on_c, 0, 70, 53
2, 4170, Note_on_c, 0, 70, 0
2, 4170, Note_on_c, 0, 70, 53
2, 4200, Note_on_c, 0, 70, 0
2, 4200, Note_on_c, 0, 70, 52
2, 4260, Note_on_c, 0, 70, 0
2, 4560, Note_on_c, 0, 68, 83
2, 4560, Note_on_c, 0, 65, 83
2, 4560, Note_on_c, 0, 72, 83
2, 4590, Note_on_c, 0, 72, 0
2, 4590, Note_on_c, 0, 72, 83
2, 4620, Note_on_c, 0, 72, 0
2, 4620, Note_on_c, 0, 65, 0
2, 4620, Note_on_c, 0, 68, 0
2, 4620, Note_on_c, 0, 72, 83
2, 4650, Note_on_c, 0, 72, 0
2, 4650, Note_on_c, 0, 72, 83
2, 4680, Note_on_c, 0, 72, 0
2, 4680, Note_on_c, 0, 67, 83
2, 4680, Note_on_c, 0, 64, 83
2, 4680, Note_on_c, 0, 72, 83
2, 4710, Note_on_c, 0, 72, 0
2, 4710, Note_on_c, 0, 72, 83
2, 4740, Note_on_c, 0, 72, 0
2, 4740, Note_on_c, 0, 64, 0
2, 4740, Note_on_c, 0, 67, 0
2, 4740, Note_on_c, 0, 72, 83
2, 4770, Note_on_c, 0, 72, 0
2, 4770, Note_on_c, 0, 72, 83
2, 4800, Note_on_c, 0, 72, 0
2, 4800, Note_on_c, 0, 61, 83
2, 4800, Note_on_c, 0, 65, 83
2, 4800, Note_on_c, 0, 72, 83
2, 4830, Note_on_c, 0, 72, 0
2, 4830, Note_on_c, 0, 72, 83
2, 4860, Note_on_c, 0, 72, 0
2, 4860, Note_on_c, 0, 65, 0
2, 4860, Note_on_c, 0, 61, 0
2, 4860, Note_on_c, 0, 72, 83
2, 4890, Note_on_c, 0, 72, 0
2, 4890, Note_on_c, 0, 72, 83
2, 4920, Note_on_c, 0, 72, 0
2, 4920, Note_on_c, 0, 60, 83
2, 4920, Note_on_c, 0, 64, 83
2, 4920, Note_on_c, 0, 72, 83
2, 4950, Note_on_c, 0, 72, 0
2, 4950, Note_on_c, 0, 72, 83
2, 4980, Note_on_c, 0, 72, 0
2, 4980, Note_on_c, 0, 64, 0
2, 4980, Note_on_c, 0, 60, 0
2, 4980, Note_on_c, 0, 72, 83
2, 5010, Note_on_c, 0, 72, 0
2, 5010, Note_on_c, 0, 72, 83
2, 5040, Note_on_c, 0, 72, 0
2, 5040, Note_on_c, 0, 54, 103
2, 5040, Note_on_c, 0, 66, 103
2, 5100, Note_on_c, 0, 66, 0
2, 5100, Note_on_c, 0, 54, 0
2, 5100, Note_on_c, 0, 54, 103
2, 5100, Note_on_c, 0, 66, 103
2, 5130, Note_on_c, 0, 66, 0
2, 5130, Note_on_c, 0, 54, 0
2, 5130, Note_on_c, 0, 54, 103
2, 5130, Note_on_c, 0, 66, 103
2, 5160, Note_on_c, 0, 66, 0
2, 5160, Note_on_c, 0, 54, 0
2, 5160, Note_on_c, 0, 54, 103
2, 5160, Note_on_c, 0, 66, 103
2, 5220, Note_on_c, 0, 66, 0
2, 5220, Note_on_c, 0, 54, 0
2, 5280, Note_on_c, 0, 70, 63
2, 5340, Note_on_c, 0, 70, 0
2, 5340, Note_on_c, 0, 70, 63
2, 5370, Note_on_c, 0, 70, 0
2, 5370, Note_on_c, 0, 70, 63
2, 5400, Note_on_c, 0, 70, 0
2, 5400, Note_on_c, 0, 68, 63
2, 5400, Note_on_c, 0, 72, 63
2, 5430, Note_on_c, 0, 68, 0
2, 5430, Note_on_c, 0, 68, 63
2, 5460, Note_on_c, 0, 68, 0
2, 5460, Note_on_c, 0, 72, 0
2, 5460, Note_on_c, 0, 68, 63
2, 5490, Note_on_c, 0, 68, 0
2, 5490, Note_on_c, 0, 68, 63
2, 5520, Note_on_c, 0, 68, 0
2, 5520, Note_on_c, 0, 75, 63
2, 5580, Note_on_c, 0, 75, 0
2, 5580, Note_on_c, 0, 75, 63
2, 5610, Note_on_c, 0, 75, 0
2, 5610, Note_on_c, 0, 75, 63
2, 5640, Note_on_c, 0, 75, 0
2, 5640, Note_on_c, 0, 65, 63
2, 5640, Note_on_c, 0, 74, 63
2, 5670, Note_on_c, 0, 65, 0
2, 5670, Note_on_c, 0, 65, 63
2, 5700, Note_on_c, 0, 65, 0
2, 5700, Note_on_c, 0, 74, 0
2, 5700, Note_on_c, 0, 65, 63
2, 5730, Note_on_c, 0, 65, 0
2, 5730, Note_on_c, 0, 65, 63
2, 5760, Note_on_c, 0, 65, 0
2, 5760, Note_on_c, 0, 66, 63
2, 5760, Note_on_c, 0, 78, 63
2, 5820, Note_on_c, 0, 78, 0
2, 5820, Note_on_c, 0, 66, 0
2, 5820, Note_on_c, 0, 78, 63
2, 5820, Note_on_c, 0, 66, 63
2, 5850, Note_on_c, 0, 66, 0
2, 5850, Note_on_c, 0, 78, 0
2, 5850, Note_on_c, 0, 78, 63
2, 5850, Note_on_c, 0, 66, 63
2, 5880, Note_on_c, 0, 66, 0
2, 5880, Note_on_c, 0, 78, 0
2, 5880, Note_on_c, 0, 67, 63
2, 5880, Note_on_c, 0, 79, 63
2, 5940, Note_on_c, 0, 79, 0
2, 5940, Note_on_c, 0, 67, 0
2, 6480, Note_on_c, 0, 79, 73
2, 6480, Note_on_c, 0, 72, 83
2, 6510, Note_on_c, 0, 79, 0
2, 6510, Note_on_c, 0, 79, 73
2, 6540, Note_on_c, 0, 79, 0
2, 6540, Note_on_c, 0, 72, 0
2, 6540, Note_on_c, 0, 79, 73
2, 6540, Note_on_c, 0, 72, 83
2, 6570, Note_on_c, 0, 72, 0
2, 6570, Note_on_c, 0, 79, 0
2, 6570, Note_on_c, 0, 72, 83
2, 6570, Note_on_c, 0, 79, 73
2, 6600, Note_on_c, 0, 79, 0
2, 6600, Note_on_c, 0, 72, 0
2, 6600, Note_on_c, 0, 74, 83
2, 6600, Note_on_c, 0, 79, 73
2, 6630, Note_on_c, 0, 79, 0
2, 6630, Note_on_c, 0, 79, 73
2, 6660, Note_on_c, 0, 79, 0
2, 6660, Note_on_c, 0, 74, 0
2, 6660, Note_on_c, 0, 79, 73
2, 6690, Note_on_c, 0, 79, 0
2, 6690, Note_on_c, 0, 79, 73
2, 6720, Note_on_c, 0, 79, 0
2, 6720, Note_on_c, 0, 79, 73
2, 6720, Note_on_c, 0, 77, 83
2, 6750, Note_on_c, 0, 79, 0
2, 6750, Note_on_c, 0, 79, 73
2, 6780, Note_on_c, 0, 79, 0
2, 6780, Note_on_c, 0, 77, 0
2, 6780, Note_on_c, 0, 77, 83
2, 6780, Note_on_c, 0, 79, 73
2, 6810, Note_on_c, 0, 79, 0
2, 6810, Note_on_c, 0, 77, 0
2, 6810, Note_on_c, 0, 79, 73
2, 6810, Note_on_c, 0, 77, 83
2, 6840, Note_on_c, 0, 77, 0
2, 6840, Note_on_c, 0, 79, 0
2, 6840, Note_on_c, 0, 76, 83
2, 6840, Note_on_c, 0, 79, 73
2, 6870, Note_on_c, 0, 79, 0
2, 6870, Note_on_c, 0, 79, 73
2, 6900, Note_on_c, 0, 79, 0
2, 6900, Note_on_c, 0, 76, 0
2, 6900, Note_on_c, 0, 79, 73
2, 6930, Note_on_c, 0, 79, 0
2, 6930, Note_on_c, 0, 79, 73
2, 6960, Note_on_c, 0, 79, 0
2, 6960, Note_on_c, 0, 84, 83
2, 6960, Note_on_c, 0, 76, 83
2, 7020, Note_on_c, 0, 76, 0
2, 7020, Note_on_c, 0, 84, 0
2, 7020, Note_on_c, 0, 84, 83
2, 7020, Note_on_c, 0, 76, 83
2, 7050, Note_on_c, 0, 76, 0
2, 7050, Note_on_c, 0, 84, 0
2, 7050, Note_on_c, 0, 84, 83
2, 7050, Note_on_c, 0, 76, 83
2, 7080, Note_on_c, 0, 76, 0
2, 7080, Note_on_c, 0, 84, 0
2, 7080, Note_on_c, 0, 86, 83
2, 7080, Note_on_c, 0, 83, 83
2, 7140, Note_on_c, 0, 83, 0
2, 7140, Note_on_c, 0, 86, 0
2, 7200, Note_on_c, 0, 86, 83
2, 7200, Note_on_c, 0, 89, 83
2, 7260, Note_on_c, 0, 89, 0
2, 7260, Note_on_c, 0, 86, 0
2, 7260, Note_on_c, 0, 86, 83
2, 7260, Note_on_c, 0, 89, 83
2, 7290, Note_on_c, 0, 89, 0
2, 7290, Note_on_c, 0, 86, 0
2, 7290, Note_on_c, 0, 86, 83
2, 7290, Note_on_c, 0, 89, 83
2, 7320, Note_on_c, 0, 89, 0
2, 7320, Note_on_c, 0, 86, 0
2, 7320, Note_on_c, 0, 88, 83
2, 7320, Note_on_c, 0, 84, 83
2, 7380, Note_on_c, 0, 84, 0
2, 7380, Note_on_c, 0, 88, 0
2, 7440, Note_on_c, 0, 93, 81
2, 7470, Note_on_c, 0, 93, 0
2, 7470, Note_on_c, 0, 89, 82
2, 7500, Note_on_c, 0, 89, 0
2, 7500, Note_on_c, 0, 89, 83
2, 7530, Note_on_c, 0, 89, 0
2, 7530, Note_on_c, 0, 93, 84
2, 7560, Note_on_c, 0, 93, 0
2, 7560, Note_on_c, 0, 91, 84
2, 7590, Note_on_c, 0, 91, 0
2, 7590, Note_on_c, 0, 88, 86
2, 7620, Note_on_c, 0, 88, 0
2, 7620, Note_on_c, 0, 88, 86
2, 7650, Note_on_c, 0, 88, 0
2, 7650, Note_on_c, 0, 91, 87
2, 7680, Note_on_c, 0, 91, 0
2, 7680, Note_on_c, 0, 89, 88
2, 7710, Note_on_c, 0, 89, 0
2, 7710, Note_on_c, 0, 86, 89
2, 7740, Note_on_c, 0, 86, 0
2, 7740, Note_on_c, 0, 86, 89
2, 7770, Note_on_c, 0, 86, 0
2, 7770, Note_on_c, 0, 89, 90
2, 7800, Note_on_c, 0, 89, 0
2, 7800, Note_on_c, 0, 88, 90
2, 7830, Note_on_c, 0, 88, 0
2, 7830, Note_on_c, 0, 84, 91
2, 7860, Note_on_c, 0, 84, 0
2, 7860, Note_on_c, 0, 84, 91
2, 7890, Note_on_c, 0, 84, 0
2, 7890, Note_on_c, 0, 88, 92
2, 7920, Note_on_c, 0, 88, 0
2, 7920, Note_on_c, 0, 91, 93
2, 7950, Note_on_c, 0, 91, 0
2, 7950, Note_on_c, 0, 91, 93
2, 7980, Note_on_c, 0, 91, 0
2, 7980, Note_on_c, 0, 91, 94
2, 8010, Note_on_c, 0, 91, 0
2, 8010, Note_on_c, 0, 91, 95
2, 8040, Note_on_c, 0, 91, 0
2, 8040, Note_on_c, 0, 91, 96
2, 8070, Note_on_c, 0, 91, 0
2, 8070, Note_on_c, 0, 91, 97
2, 8100, Note_on_c, 0, 91, 0
2, 8100, Note_on_c, 0, 91, 99
2, 8130, Note_on_c, 0, 91, 0
2, 8130, Note_on_c, 0, 91, 99
2, 8160, Note_on_c, 0, 91, 0
2, 8160, Note_on_c, 0, 91, 100
2, 8190, Note_on_c, 0, 91, 0
2, 8190, Note_on_c, 0, 91, 101
2, 8220, Note_on_c, 0, 91, 0
2, 8220, Note_on_c, 0, 91, 102
2, 8250, Note_on_c, 0, 91, 0
2, 8250, Note_on_c, 0, 91, 103
2, 8280, Note_on_c, 0, 91, 0
2, 8280, Note_on_c, 0, 91, 104
2, 8310, Note_on_c, 0, 91, 0
2, 8310, Note_on_c, 0, 91, 104
2, 8340, Note_on_c, 0, 91, 0
2, 8340, Note_on_c, 0, 91, 104
2, 8370, Note_on_c, 0, 91, 0
2, 8370, Note_on_c, 0, 91, 104
2, 8400, Note_on_c, 0, 91, 0
2, 8400, Note_on_c, 0, 91, 104
2, 8430, Note_on_c, 0, 91, 0
2, 8430, Note_on_c, 0, 91, 107
2, 8460, Note_on_c, 0, 91, 0
2, 8460, Note_on_c, 0, 91, 107
2, 8490, Note_on_c, 0, 91, 0
2, 8490, Note_on_c, 0, 91, 107
2, 8520, Note_on_c, 0, 91, 0
2, 8520, Note_on_c, 0, 91, 107
2, 8550, Note_on_c, 0, 91, 0
2, 8550, Note_on_c, 0, 91, 108
2, 8580, Note_on_c, 0, 91, 0
2, 8580, Note_on_c, 0, 91, 109
2, 8610, Note_on_c, 0, 91, 0
2, 8610, Note_on_c, 0, 91, 109
2, 8640, Note_on_c, 0, 91, 0
2, 8640, Note_on_c, 0, 91, 110
2, 8670, Note_on_c, 0, 91, 0
2, 8670, Note_on_c, 0, 91, 110
2, 8700, Note_on_c, 0, 91, 0
2, 8700, Note_on_c, 0, 91, 110
2, 8730, Note_on_c, 0, 91, 0
2, 8730, Note_on_c, 0, 91, 111
2, 8760, Note_on_c, 0, 91, 0
2, 8760, Note_on_c, 0, 91, 113
2, 8790, Note_on_c, 0, 91, 0
2, 8790, Note_on_c, 0, 91, 114
2, 8820, Note_on_c, 0, 91, 0
2, 8820, Note_on_c, 0, 91, 115
2, 8850, Note_on_c, 0, 91, 0
2, 8850, Note_on_c, 0, 91, 116
2, 8880, Note_on_c, 0, 91, 0
2, 8880, Note_on_c, 0, 91, 117
2, 8910, Note_on_c, 0, 91, 0
2, 8910, Note_on_c, 0, 91, 118
2, 8940, Note_on_c, 0, 91, 0
2, 8940, Note_on_c, 0, 91, 119
2, 8970, Note_on_c, 0, 91, 0
2, 8970, Note_on_c, 0, 91, 120
2, 9000, Note_on_c, 0, 91, 0
2, 9000, Note_on_c, 0, 91, 121
2, 9030, Note_on_c, 0, 91, 0
2, 9030, Note_on_c, 0, 91, 121
2, 9060, Note_on_c, 0, 91, 0
2, 9060, Note_on_c, 0, 91, 122
2, 9090, Note_on_c, 0, 91, 0
2, 9090, Note_on_c, 0, 91, 123
2, 9120, Note_on_c, 0, 91, 0
2, 9120, Note_on_c, 0, 91, 125
2, 9150, Note_on_c, 0, 91, 0
2, 9150, Note_on_c, 0, 91, 125
2, 9180, Note_on_c, 0, 91, 0
2, 9180, Note_on_c, 0, 93, 126
2, 9210, Note_on_c, 0, 93, 0
2, 9210, Note_on_c, 0, 95, 126
2, 9240, Note_on_c, 0, 95, 0
2, 9240, Note_on_c, 0, 96, 127
2, 9300, Note_on_c, 0, 96, 0
2, 9300, End_track
3, 0, Start_track
3, 0, Title_t, "PianoL"
3, 0, Program_c, 1, 0
3, 0, Control_c, 1, 7, 127
3, 0, Control_c, 1, 10, 82
3, 0, Control_c, 1, 93, 13
3, 0, Control_c, 1, 91, 18
3, 1920, Control_c, 1, 93, 13
3, 1920, Control_c, 1, 91, 18
3, 4320, Note_on_c, 1, 53, 93
3, 4350, Note_on_c, 1, 53, 0
3, 4350, Note_on_c, 1, 53, 93
3, 4380, Note_on_c, 1, 53, 0
3, 4380, Note_on_c, 1, 53, 93
3, 4410, Note_on_c, 1, 53, 0
3, 4410, Note_on_c, 1, 53, 93
3, 4440, Note_on_c, 1, 53, 0
3, 6000, Note_on_c, 1, 36, 83
3, 6060, Note_on_c, 1, 36, 0
3, 6060, Note_on_c, 1, 36, 83
3, 6090, Note_on_c, 1, 36, 0
3, 6090, Note_on_c, 1, 36, 83
3, 6120, Note_on_c, 1, 36, 0
3, 6120, Note_on_c, 1, 38, 83
3, 6180, Note_on_c, 1, 38, 0
3, 6240, Note_on_c, 1, 41, 83
3, 6300, Note_on_c, 1, 41, 0
3, 6300, Note_on_c, 1, 41, 83
3, 6330, Note_on_c, 1, 41, 0
3, 6330, Note_on_c, 1, 41, 83
3, 6360, Note_on_c, 1, 41, 0
3, 6360, Note_on_c, 1, 40, 83
3, 6420, Note_on_c, 1, 40, 0
3, 6960, Note_on_c, 1, 43, 73
3, 6990, Note_on_c, 1, 43, 0
3, 6990, Note_on_c, 1, 43, 73
3, 7020, Note_on_c, 1, 43, 0
3, 7020, Note_on_c, 1, 43, 73
3, 7050, Note_on_c, 1, 43, 0
3, 7050, Note_on_c, 1, 43, 73
3, 7080, Note_on_c, 1, 43, 0
3, 7080, Note_on_c, 1, 43, 73
3, 7110, Note_on_c, 1, 43, 0
3, 7110, Note_on_c, 1, 43, 73
3, 7140, Note_on_c, 1, 43, 0
3, 7140, Note_on_c, 1, 43, 73
3, 7170, Note_on_c, 1, 43, 0
3, 7170, Note_on_c, 1, 43, 73
3, 7200, Note_on_c, 1, 43, 0
3, 7200, Note_on_c, 1, 43, 73
3, 7230, Note_on_c, 1, 43, 0
3, 7230, Note_on_c, 1, 43, 73
3, 7260, Note_on_c, 1, 43, 0
3, 7260, Note_on_c, 1, 43, 73
3, 7290, Note_on_c, 1, 43, 0
3, 7290, Note_on_c, 1, 43, 73
3, 7320, Note_on_c, 1, 43, 0
3, 7320, Note_on_c, 1, 43, 73
3, 7350, Note_on_c, 1, 43, 0
3, 7350, Note_on_c, 1, 43, 73
3, 7380, Note_on_c, 1, 43, 0
3, 7380, Note_on_c, 1, 43, 73
3, 7410, Note_on_c, 1, 43, 0
3, 7410, Note_on_c, 1, 43, 73
3, 7440, Note_on_c, 1, 43, 0
3, 7440, Note_on_c, 1, 36, 83
3, 7500, Note_on_c, 1, 36, 0
3, 7500, Note_on_c, 1, 48, 87
3, 7500, Note_on_c, 1, 43, 87
3, 7530, Note_on_c, 1, 43, 0
3, 7530, Note_on_c, 1, 48, 0
3, 7530, Note_on_c, 1, 43, 87
3, 7530, Note_on_c, 1, 48, 87
3, 7560, Note_on_c, 1, 48, 0
3, 7560, Note_on_c, 1, 43, 0
3, 7560, Note_on_c, 1, 48, 87
3, 7560, Note_on_c, 1, 43, 87
3, 7620, Note_on_c, 1, 43, 0
3, 7620, Note_on_c, 1, 48, 0
3, 7680, Note_on_c, 1, 43, 92
3, 7680, Note_on_c, 1, 48, 92
3, 7740, Note_on_c, 1, 48, 0
3, 7740, Note_on_c, 1, 43, 0
3, 7740, Note_on_c, 1, 48, 93
3, 7740, Note_on_c, 1, 43, 93
3, 7770, Note_on_c, 1, 43, 0
3, 7770, Note_on_c, 1, 48, 0
3, 7770, Note_on_c, 1, 48, 93
3, 7770, Note_on_c, 1, 43, 93
3, 7800, Note_on_c, 1, 43, 0
3, 7800, Note_on_c, 1, 48, 0
3, 7800, Note_on_c, 1, 48, 94
3, 7800, Note_on_c, 1, 43, 94
3, 7860, Note_on_c, 1, 43, 0
3, 7860, Note_on_c, 1, 48, 0
3, 7920, Note_on_c, 1, 72, 96
3, 7980, Note_on_c, 1, 72, 0
3, 7980, Note_on_c, 1, 72, 98
3, 8010, Note_on_c, 1, 72, 0
3, 8010, Note_on_c, 1, 72, 98
3, 8040, Note_on_c, 1, 72, 0
3, 8040, Note_on_c, 1, 74, 98
3, 8100, Note_on_c, 1, 74, 0
3, 8160, Note_on_c, 1, 77, 99
3, 8160, Note_on_c, 1, 74, 99
3, 8220, Note_on_c, 1, 74, 0
3, 8220, Note_on_c, 1, 77, 0
3, 8220, Note_on_c, 1, 74, 100
3, 8220, Note_on_c, 1, 77, 100
3, 8250, Note_on_c, 1, 77, 0
3, 8250, Note_on_c, 1, 74, 0
3, 8250, Note_on_c, 1, 74, 101
3, 8250, Note_on_c, 1, 77, 101
3, 8280, Note_on_c, 1, 77, 0
3, 8280, Note_on_c, 1, 74, 0
3, 8280, Note_on_c, 1, 76, 101
3, 8280, Note_on_c, 1, 72, 101
3, 8340, Note_on_c, 1, 72, 0
3, 8340, Note_on_c, 1, 76, 0
3, 8400, Note_on_c, 1, 67, 104
3, 8400, Note_on_c, 1, 64, 104
3, 8400, Note_on_c, 1, 72, 104
3, 8460, Note_on_c, 1, 72, 0
3, 8460, Note_on_c, 1, 64, 0
3, 8460, Note_on_c, 1, 67, 0
3, 8460, Note_on_c, 1, 67, 104
3, 8460, Note_on_c, 1, 64, 104
3, 8460, Note_on_c, 1, 72, 104
3, 8490, Note_on_c, 1, 72, 0
3, 8490, Note_on_c, 1, 64, 0
3, 8490, Note_on_c, 1, 67, 0
3, 8490, Note_on_c, 1, 72, 104
3, 8490, Note_on_c, 1, 67, 104
3, 8490, Note_on_c, 1, 64, 104
3, 8520, Note_on_c, 1, 64, 0
3, 8520, Note_on_c, 1, 67, 0
3, 8520, Note_on_c, 1, 72, 0
3, 8520, Note_on_c, 1, 71, 105
3, 8520, Note_on_c, 1, 62, 105
3, 8520, Note_on_c, 1, 65, 105
3, 8580, Note_on_c, 1, 65, 0
3, 8580, Note_on_c, 1, 62, 0
3, 8580, Note_on_c, 1, 71, 0
3, 8640, Note_on_c, 1, 76, 107
3, 8640, Note_on_c, 1, 72, 107
3, 8640, Note_on_c, 1, 81, 107
3, 8700, Note_on_c, 1, 81, 0
3, 8700, Note_on_c, 1, 72, 0
3, 8700, Note_on_c, 1, 76, 0
3, 8700, Note_on_c, 1, 76, 108
3, 8700, Note_on_c, 1, 72, 108
3, 8700, Note_on_c, 1, 81, 108
3, 8730, Note_on_c, 1, 81, 0
3, 8730, Note_on_c, 1, 72, 0
3, 8730, Note_on_c, 1, 76, 0
3, 8730, Note_on_c, 1, 81, 108
3, 8730, Note_on_c, 1, 76, 108
3, 8730, Note_on_c, 1, 72, 108
3, 8760, Note_on_c, 1, 72, 0
3, 8760, Note_on_c, 1, 76, 0
3, 8760, Note_on_c, 1, 81, 0
3, 8760, Note_on_c, 1, 79, 109
3, 8760, Note_on_c, 1, 71, 109
3, 8760, Note_on_c, 1, 74, 109
3, 8820, Note_on_c, 1, 74, 0
3, 8820, Note_on_c, 1, 71, 0
3, 8820, Note_on_c, 1, 79, 0
3, 8880, Note_on_c, 1, 72, 112
3, 8880, Note_on_c, 1, 69, 112
3, 8880, Note_on_c, 1, 77, 112
3, 8940, Note_on_c, 1, 77, 0
3, 8940, Note_on_c, 1, 69, 0
3, 8940, Note_on_c, 1, 72, 0
3, 8940, Note_on_c, 1, 72, 114
3, 8940, Note_on_c, 1, 69, 114
3, 8940, Note_on_c, 1, 77, 114
3, 8970, Note_on_c, 1, 77, 0
3, 8970, Note_on_c, 1, 69, 0
3, 8970, Note_on_c, 1, 72, 0
3, 8970, Note_on_c, 1, 77, 116
3, 8970, Note_on_c, 1, 72, 116
3, 8970, Note_on_c, 1, 69, 116
3, 9000, Note_on_c, 1, 69, 0
3, 9000, Note_on_c, 1, 72, 0
3, 9000, Note_on_c, 1, 77, 0
3, 9000, Note_on_c, 1, 76, 117
3, 9000, Note_on_c, 1, 67, 117
3, 9000, Note_on_c, 1, 71, 117
3, 9060, Note_on_c, 1, 71, 0
3, 9060, Note_on_c, 1, 67, 0
3, 9060, Note_on_c, 1, 76, 0
3, 9120, Note_on_c, 1, 69, 123
3, 9120, Note_on_c, 1, 65, 123
3, 9120, Note_on_c, 1, 74, 123
3, 9180, Note_on_c, 1, 74, 0
3, 9180, Note_on_c, 1, 65, 0
3, 9180, Note_on_c, 1, 69, 0
3, 9180, Note_on_c, 1, 69, 125
3, 9180, Note_on_c, 1, 65, 125
3, 9180, Note_on_c, 1, 74, 125
3, 9210, Note_on_c, 1, 74, 0
3, 9210, Note_on_c, 1, 65, 0
3, 9210, Note_on_c, 1, 69, 0
3, 9210, Note_on_c, 1, 74, 125
3, 9210, Note_on_c, 1, 69, 125
3, 9210, Note_on_c, 1, 65, 125
3, 9240, Note_on_c, 1, 65, 0
3, 9240, Note_on_c, 1, 69, 0
3, 9240, Note_on_c, 1, 74, 0
3, 9240, Note_on_c, 1, 72, 127
3, 9240, Note_on_c, 1, 64, 127
3, 9240, Note_on_c, 1, 67, 127
3, 9300, Note_on_c, 1, 67, 0
3, 9300, Note_on_c, 1, 64, 0
3, 9300, Note_on_c, 1, 72, 0
3, 9300, End_track
4, 0, Start_track
4, 0, End_track
0, 0, End_of_file