0, 0, Header, 1, 5, 48
1, 0, Start_track
1, 0, Title_t, "\203s\203A\203m\203\\\203i\203^ \221\346\202Q\202X\224\324 \201u\203n\203\223\203}\201[\203N\203\211\203\224\203B\203A\201v \221\346\202Q\212y\217\315"
1, 0, Text_t, "CVS Ver5.05 Created\012"
1, 0, Text_t, "\351a\351d\351d\351s\351g\351n\351u\351d\351m\012"
1, 0, Text_t, "\351j\351k\351`\351u\351h\351d\351q \351r\351n\351m\351`\351s\351d\012"
1, 0, Text_t, "\351a-\351\344\351\362\351\306\374@\351n\351\311.\351P\351O\351U\012"
1, 0, Text_t, "<\351g\351\374\351\354\351\354\351\374\351\306\351\357\351\356\351\374\351\373\351\353\351\340\351\306>\012"
1, 0, Text_t, "\374m\347U\374n\012"
1, 0, Text_t, "Ver.2 ^^;\012"
1, 0, Text_t, "by \342p\342p\351\246\351-\351\246\012"
1, 0, Text_t, "(MXH00403)\012"
1, 0, Text_t, "[Scherzo]\012"
1, 0, SMPTE_offset, 96, 0, 3, 0, 0
1, 0, MIDI_port, 0
1, 0, System_exclusive, 0A, 41, 10, 42, 12, 40, 00, 7F, 00, 41, F7
1, 0, MIDI_port, 0
1, 0, System_exclusive, 0A, 41, 10, 42, 12, 40, 00, 04, 7F, 3D, F7
1, 0, MIDI_port, 0
1, 0, System_exclusive, 0A, 41, 10, 42, 12, 40, 01, 30, 03, 0C, F7
1, 0, MIDI_port, 0
1, 0, System_exclusive, 0A, 41, 10, 42, 12, 40, 01, 31, 03, 0B, F7
1, 0, MIDI_port, 0
1, 0, System_exclusive, 0A, 41, 10, 42, 12, 40, 01, 33, 40, 4C, F7
1, 0, MIDI_port, 0
1, 0, System_exclusive, 0A, 41, 10, 42, 12, 40, 01, 34, 48, 43, F7
1, 0, MIDI_port, 0
1, 0, System_exclusive, 0A, 41, 10, 42, 12, 40, 01, 38, 02, 05, F7
1, 0, MIDI_port, 0
1, 0, System_exclusive, 0A, 41, 10, 42, 12, 40, 01, 3A, 40, 45, F7
1, 0, MIDI_port, 0
1, 0, System_exclusive, 0A, 41, 10, 42, 12, 40, 01, 3E, 13, 6E, F7
1, 0, MIDI_port, 0
1, 0, System_exclusive, 0A, 41, 10, 42, 12, 40, 01, 3D, 03, 7F, F7
1, 0, MIDI_port, 0
1, 0, Time_signature, 3, 2, 24, 8
1, 0, Key_signature, -2, "major"
1, 0, Tempo, 500000
1, 288, Time_signature, 3, 3, 12, 8
1, 306, Tempo, 535714
1, 312, Tempo, 500000
1, 336, Tempo, 508475
1, 378, Tempo, 535714
1, 384, Tempo, 500000
1, 408, Tempo, 508475
1, 420, Tempo, 517241
1, 450, Tempo, 535714
1, 456, Tempo, 500000
1, 480, Tempo, 508475
1, 492, Tempo, 517241
1, 522, Tempo, 535714
1, 528, Tempo, 500000
1, 552, Tempo, 508475
1, 564, Tempo, 535714
1, 600, Tempo, 500000
1, 624, Tempo, 508475
1, 636, Tempo, 517241
1, 666, Tempo, 500000
1, 696, Tempo, 526316
1, 720, Tempo, 508475
1, 744, Tempo, 566038
1, 768, Tempo, 666667
1, 792, Tempo, 500000
1, 810, Tempo, 535714
1, 816, Tempo, 500000
1, 840, Tempo, 508475
1, 852, Tempo, 517241
1, 882, Tempo, 535714
1, 888, Tempo, 500000
1, 912, Tempo, 508475
1, 924, Tempo, 517241
1, 954, Tempo, 535714
1, 960, Tempo, 500000
1, 984, Tempo, 508475
1, 996, Tempo, 517241
1, 1026, Tempo, 535714
1, 1032, Tempo, 500000
1, 1056, Tempo, 508475
1, 1068, Tempo, 517241
1, 1098, Tempo, 535714
1, 1104, Tempo, 500000
1, 1128, Tempo, 508475
1, 1140, Tempo, 517241
1, 1170, Tempo, 535714
1, 1176, Tempo, 500000
1, 1200, Tempo, 508475
1, 1224, Tempo, 555556
1, 1236, Tempo, 582524
1, 1260, Tempo, 714286
1, 1296, Tempo, 566038
1, 1314, Tempo, 545455
1, 1320, Tempo, 508475
1, 1344, Tempo, 571429
1, 1356, Tempo, 535714
1, 1386, Tempo, 545455
1, 1392, Tempo, 517241
1, 1416, Tempo, 526316
1, 1428, Tempo, 571429
1, 1458, Tempo, 555556
1, 1464, Tempo, 526316
1, 1488, Tempo, 535714
1, 1500, Tempo, 555556
1, 1530, Tempo, 582524
1, 1536, Tempo, 545455
1, 1560, Tempo, 606061
1, 1572, Tempo, 800000
1, 1584, Tempo, 566038
1, 1602, Tempo, 582524
1, 1608, Tempo, 526316
1, 1632, Tempo, 566038
1, 1656, Tempo, 517241
1, 1680, Tempo, 535714
1, 1704, Tempo, 545455
1, 1728, Tempo, 566038
1, 1752, Tempo, 571429
1, 1776, Tempo, 618557
1, 1800, Tempo, 714286
1, 1824, Tempo, 895522
1, 1848, Tempo, 666667
1, 1896, Tempo, 1395349
1, 1944, Tempo, 517241
1, 1962, Tempo, 606061
1, 1968, Tempo, 526316
1, 1992, Tempo, 535714
1, 2004, Tempo, 582524
1, 2016, Tempo, 517241
1, 2034, Tempo, 566038
1, 2040, Tempo, 517241
1, 2064, Tempo, 535714
1, 2076, Tempo, 659341
1, 2088, Tempo, 517241
1, 2106, Tempo, 535714
1, 2112, Tempo, 500000
1, 2136, Tempo, 526316
1, 2148, Tempo, 535714
1, 2160, Tempo, 517241
1, 2178, Tempo, 535714
1, 2184, Tempo, 500000
1, 2208, Tempo, 555556
1, 2220, Tempo, 517241
1, 2232, Tempo, 500000
1, 2250, Tempo, 517241
1, 2280, Tempo, 500000
1, 2292, Tempo, 535714
1, 2322, Tempo, 495868
1, 2328, Tempo, 487805
1, 2352, Tempo, 566038
1, 2364, Tempo, 500000
1, 2388, Tempo, 645161
1, 2412, Tempo, 714286
1, 2448, Tempo, 517241
1, 2466, Tempo, 535714
1, 2472, Tempo, 517241
1, 2496, Tempo, 508475
1, 2508, Tempo, 517241
1, 2538, Tempo, 535714
1, 2544, Tempo, 508475
1, 2568, Tempo, 517241
1, 2580, Tempo, 582524
1, 2592, Tempo, 500000
1, 2610, Tempo, 535714
1, 2616, Tempo, 526316
1, 2640, Tempo, 517241
1, 2652, Tempo, 566038
1, 2664, Tempo, 526316
1, 2682, Tempo, 606061
1, 2688, Tempo, 594059
1, 2712, Tempo, 631579
1, 2724, Tempo, 731707
1, 2736, Tempo, 566038
1, 2754, Tempo, 535714
1, 2760, Tempo, 526316
1, 2784, Tempo, 545455
1, 2808, Tempo, 517241
1, 2832, Tempo, 535714
1, 2856, Tempo, 545455
1, 2880, Tempo, 566038
1, 2904, Tempo, 594059
1, 2928, Tempo, 659341
1, 2952, Tempo, 681818
1, 2976, Tempo, 800000
1, 3000, Tempo, 923077
1, 3024, Tempo, 1153846
1, 3096, Tempo, 535714
1, 3114, Tempo, 582524
1, 3120, Tempo, 517241
1, 3144, Tempo, 508475
1, 3156, Tempo, 618557
1, 3168, Tempo, 535714
1, 3186, Tempo, 555556
1, 3192, Tempo, 508475
1, 3216, Tempo, 535714
1, 3228, Tempo, 659341
1, 3240, Tempo, 508475
1, 3258, Tempo, 545455
1, 3264, Tempo, 500000
1, 3288, Tempo, 526316
1, 3300, Tempo, 545455
1, 3312, Tempo, 500000
1, 3330, Tempo, 535714
1, 3336, Tempo, 500000
1, 3360, Tempo, 508475
1, 3372, Tempo, 535714
1, 3384, Tempo, 500000
1, 3402, Tempo, 535714
1, 3408, Tempo, 500000
1, 3432, Tempo, 517241
1, 3456, Tempo, 487805
1, 3474, Tempo, 526316
1, 3480, Tempo, 487805
1, 3504, Tempo, 517241
1, 3516, Tempo, 500000
1, 3528, Tempo, 631579
1, 3540, Tempo, 582524
1, 3552, Tempo, 500000
1, 3576, Tempo, 1304348
1, 3600, Key_signature, -5, "major"
1, 3600, Tempo, 666667
1, 3624, Tempo, 606061
1, 3648, Tempo, 582524
1, 3672, Tempo, 545455
1, 3680, Tempo, 555556
1, 3688, Tempo, 582524
1, 3696, Tempo, 566038
1, 3728, Tempo, 545455
1, 3736, Tempo, 566038
1, 3744, Tempo, 545455
1, 3752, Tempo, 555556
1, 3760, Tempo, 566038
1, 3776, Tempo, 555556
1, 3784, Tempo, 545455
1, 3792, Tempo, 566038
1, 3800, Tempo, 545455
1, 3808, Tempo, 555556
1, 3840, Tempo, 545455
1, 3848, Tempo, 566038
1, 3856, Tempo, 545455
1, 3864, Tempo, 566038
1, 3904, Tempo, 555556
1, 3912, Tempo, 545455
1, 3920, Tempo, 555556
1, 3944, Tempo, 545455
1, 3960, Tempo, 566038
1, 3968, Tempo, 545455
1, 3976, Tempo, 555556
1, 3984, Tempo, 566038
1, 4000, Tempo, 545455
1, 4008, Tempo, 566038
1, 4016, Tempo, 555556
1, 4024, Tempo, 566038
1, 4032, Tempo, 582524
1, 4040, Tempo, 606061
1, 4056, Tempo, 535714
1, 4072, Tempo, 545455
1, 4080, Tempo, 566038
1, 4088, Tempo, 545455
1, 4096, Tempo, 555556
1, 4120, Tempo, 545455
1, 4136, Tempo, 566038
1, 4144, Tempo, 571429
1, 4152, Tempo, 566038
1, 4160, Tempo, 571429
1, 4176, Tempo, 582524
1, 4200, Tempo, 606061
1, 4224, Tempo, 571429
1, 4248, Tempo, 555556
1, 4256, Tempo, 545455
1, 4272, Tempo, 566038
1, 4288, Tempo, 545455
1, 4296, Tempo, 555556
1, 4304, Tempo, 566038
1, 4312, Tempo, 555556
1, 4320, Tempo, 545455
1, 4352, Tempo, 566038
1, 4360, Tempo, 555556
1, 4368, Tempo, 545455
1, 4376, Tempo, 566038
1, 4392, Tempo, 545455
1, 4408, Tempo, 555556
1, 4416, Tempo, 566038
1, 4424, Tempo, 555556
1, 4432, Tempo, 545455
1, 4456, Tempo, 555556
1, 4472, Tempo, 566038
1, 4480, Tempo, 555556
1, 4488, Tempo, 545455
1, 4528, Tempo, 566038
1, 4536, Tempo, 545455
1, 4552, Tempo, 566038
1, 4568, Tempo, 545455
1, 4584, Tempo, 566038
1, 4592, Tempo, 555556
1, 4600, Tempo, 566038
1, 4616, Tempo, 594059
1, 4624, Tempo, 618557
1, 4632, Tempo, 545455
1, 4648, Tempo, 566038
1, 4656, Tempo, 555556
1, 4664, Tempo, 545455
1, 4688, Tempo, 555556
1, 4696, Tempo, 566038
1, 4704, Tempo, 545455
1, 4712, Tempo, 566038
1, 4728, Tempo, 555556
1, 4744, Tempo, 545455
1, 4752, Tempo, 571429
1, 4760, Tempo, 606061
1, 4768, Tempo, 645161
1, 4776, Tempo, 582524
1, 4800, Tempo, 545455
1, 4824, Tempo, 555556
1, 4840, Tempo, 535714
1, 4848, Tempo, 555556
1, 4856, Tempo, 535714
1, 4896, Tempo, 545455
1, 4904, Tempo, 555556
1, 4912, Tempo, 545455
1, 4920, Tempo, 535714
1, 4952, Tempo, 555556
1, 4960, Tempo, 535714
1, 4968, Tempo, 555556
1, 4984, Tempo, 545455
1, 5000, Tempo, 555556
1, 5008, Tempo, 535714
1, 5016, Tempo, 545455
1, 5024, Tempo, 535714
1, 5032, Tempo, 555556
1, 5040, Tempo, 545455
1, 5064, Tempo, 555556
1, 5072, Tempo, 535714
1, 5080, Tempo, 555556
1, 5088, Tempo, 545455
1, 5096, Tempo, 535714
1, 5128, Tempo, 545455
1, 5136, Tempo, 555556
1, 5152, Tempo, 545455
1, 5168, Tempo, 555556
1, 5184, Tempo, 545455
1, 5192, Tempo, 555556
1, 5200, Tempo, 545455
1, 5208, Tempo, 535714
1, 5240, Tempo, 545455
1, 5248, Tempo, 555556
1, 5256, Tempo, 545455
1, 5264, Tempo, 535714
1, 5272, Tempo, 666667
1, 5280, Tempo, 582524
1, 5296, Tempo, 697674
1, 5304, Tempo, 571429
1, 5312, Tempo, 555556
1, 5320, Tempo, 666667
1, 5328, Tempo, 571429
1, 5344, Tempo, 566038
1, 5352, Tempo, 555556
1, 5368, Tempo, 545455
1, 5376, Tempo, 571429
1, 5412, Tempo, 594059
1, 5424, Tempo, 571429
1, 5448, Tempo, 566038
1, 5456, Tempo, 555556
1, 5464, Tempo, 545455
1, 5472, Tempo, 535714
1, 5480, Tempo, 545455
1, 5488, Tempo, 566038
1, 5528, Tempo, 545455
1, 5536, Tempo, 555556
1, 5544, Tempo, 566038
1, 5552, Tempo, 535714
1, 5560, Tempo, 566038
1, 5576, Tempo, 545455
1, 5584, Tempo, 566038
1, 5592, Tempo, 545455
1, 5600, Tempo, 555556
1, 5608, Tempo, 566038
1, 5624, Tempo, 555556
1, 5632, Tempo, 545455
1, 5640, Tempo, 535714
1, 5648, Tempo, 545455
1, 5656, Tempo, 566038
1, 5688, Tempo, 535714
1, 5696, Tempo, 555556
1, 5704, Tempo, 535714
1, 5712, Tempo, 545455
1, 5720, Tempo, 555556
1, 5736, Tempo, 545455
1, 5744, Tempo, 535714
1, 5752, Tempo, 555556
1, 5760, Tempo, 535714
1, 5768, Tempo, 545455
1, 5784, Tempo, 555556
1, 5792, Tempo, 545455
1, 5800, Tempo, 535714
1, 5808, Tempo, 566038
1, 5816, Tempo, 545455
1, 5824, Tempo, 555556
1, 5832, Tempo, 566038
1, 5856, Tempo, 555556
1, 5864, Tempo, 535714
1, 5872, Tempo, 555556
1, 5880, Tempo, 566038
1, 5904, Tempo, 555556
1, 5920, Tempo, 535714
1, 5928, Tempo, 555556
1, 5936, Tempo, 535714
1, 5952, Tempo, 545455
1, 5960, Tempo, 535714
1, 5968, Tempo, 566038
1, 5976, Tempo, 555556
1, 5984, Tempo, 535714
1, 5992, Tempo, 555556
1, 6000, Tempo, 566038
1, 6008, Tempo, 582524
1, 6016, Tempo, 606061
1, 6024, Tempo, 631579
1, 6032, Tempo, 659341
1, 6040, Tempo, 681818
1, 6048, Tempo, 750000
1, 6056, Tempo, 845070
1, 6064, Tempo, 2307692
1, 6072, Tempo, 410959
1, 6096, Tempo, 382166
1, 6144, Tempo, 387097
1, 6216, Tempo, 382166
1, 6312, Tempo, 387097
1, 6336, Tempo, 382166
1, 6384, Tempo, 387097
1, 6408, Tempo, 410959
1, 6456, Tempo, 382166
1, 6468, Tempo, 387097
1, 6480, Tempo, 377358
1, 6492, Tempo, 387097
1, 6504, Tempo, 382166
1, 6528, Tempo, 377358
1, 6540, Tempo, 387097
1, 6552, Tempo, 377358
1, 6564, Tempo, 382166
1, 6588, Tempo, 377358
1, 6600, Tempo, 382166
1, 6612, Tempo, 387097
1, 6636, Tempo, 382166
1, 6648, Tempo, 377358
1, 6672, Tempo, 387097
1, 6684, Tempo, 382166
1, 6696, Tempo, 377358
1, 6732, Tempo, 387097
1, 6744, Tempo, 382166
1, 6756, Tempo, 387097
1, 6792, Tempo, 382166
1, 6804, Tempo, 387097
1, 6816, Tempo, 382166
1, 6828, Tempo, 535714
1, 6840, Tempo, 397351
1, 6852, Tempo, 392157
1, 6888, Tempo, 397351
1, 6900, Tempo, 392157
1, 6912, Tempo, 397351
1, 6924, Tempo, 441176
1, 6936, Tempo, 392157
1, 6960, Tempo, 400000
1, 7008, Tempo, 387097
1, 7020, Tempo, 458015
1, 7032, Tempo, 387097
1, 7044, Tempo, 382166
1, 7068, Tempo, 434783
1, 7080, Tempo, 392157
1, 7116, Tempo, 458015
1, 7128, Tempo, 392157
1, 7140, Tempo, 410959
1, 7152, Tempo, 400000
1, 7164, Tempo, 444444
1, 7176, Tempo, 441176
1, 7224, Tempo, 392157
1, 7236, Tempo, 410959
1, 7248, Tempo, 428571
1, 7260, Tempo, 458015
1, 7272, Key_signature, -2, "major"
1, 7272, Tempo, 416667
1, 7296, Tempo, 428571
1, 7320, Tempo, 434783
1, 7344, Tempo, 441176
1, 7368, Tempo, 472441
1, 7392, Tempo, 495868
1, 7416, Tempo, 545455
1, 7440, Tempo, 666667
1, 7464, Tempo, 952381
1, 7488, Tempo, 566038
1, 7608, Tempo, 923077
1, 7614, Tempo, 508475
1, 7626, Tempo, 487805
1, 7638, Tempo, 500000
1, 7644, Tempo, 495868
1, 7650, Tempo, 566038
1, 7656, Tempo, 500000
1, 7662, Tempo, 495868
1, 7668, Tempo, 500000
1, 7692, Tempo, 571429
1, 7698, Tempo, 500000
1, 7716, Tempo, 495868
1, 7722, Tempo, 487805
1, 7728, Tempo, 480000
1, 7734, Tempo, 582524
1, 7740, Tempo, 480000
1, 7746, Tempo, 495868
1, 7752, Tempo, 500000
1, 7758, Tempo, 480000
1, 7770, Tempo, 500000
1, 7782, Tempo, 495868
1, 7788, Tempo, 480000
1, 7794, Tempo, 517241
1, 7800, Tempo, 495868
1, 7806, Tempo, 508475
1, 7812, Tempo, 535714
1, 7818, Tempo, 582524
1, 7824, Tempo, 714286
1, 7830, Tempo, 487805
1, 7836, Tempo, 465116
1, 7842, Tempo, 444444
1, 7848, Tempo, 422535
1, 7854, Tempo, 400000
1, 7860, Tempo, 416667
1, 7872, Tempo, 500000
1, 7878, Tempo, 3750000
1, 7890, Tempo, 845070
1, 7896, Tempo, 571429
1, 7902, Tempo, 472441
1, 7908, Tempo, 500000
1, 7914, Tempo, 495868
1, 7920, Tempo, 480000
1, 7926, Tempo, 495868
1, 7932, Tempo, 500000
1, 7938, Tempo, 480000
1, 7944, Tempo, 487805
1, 7956, Tempo, 480000
1, 7962, Tempo, 1333333
1, 7986, Tempo, 1621622
1, 8034, Tempo, 517241
1, 8052, Tempo, 535714
1, 8058, Tempo, 517241
1, 8082, Tempo, 508475
1, 8094, Tempo, 500000
1, 8124, Tempo, 535714
1, 8130, Tempo, 517241
1, 8154, Tempo, 508475
1, 8166, Tempo, 500000
1, 8196, Tempo, 535714
1, 8202, Tempo, 517241
1, 8226, Tempo, 508475
1, 8238, Tempo, 500000
1, 8268, Tempo, 535714
1, 8274, Tempo, 517241
1, 8298, Tempo, 508475
1, 8310, Tempo, 500000
1, 8340, Tempo, 545455
1, 8346, Tempo, 535714
1, 8370, Tempo, 517241
1, 8382, Tempo, 500000
1, 8412, Tempo, 526316
1, 8418, Tempo, 535714
1, 8442, Tempo, 487805
1, 8466, Tempo, 545455
1, 8490, Tempo, 645161
1, 8538, Tempo, 500000
1, 8556, Tempo, 545455
1, 8562, Tempo, 526316
1, 8586, Tempo, 508475
1, 8598, Tempo, 500000
1, 8628, Tempo, 545455
1, 8634, Tempo, 526316
1, 8658, Tempo, 508475
1, 8670, Tempo, 500000
1, 8700, Tempo, 545455
1, 8706, Tempo, 526316
1, 8730, Tempo, 508475
1, 8742, Tempo, 500000
1, 8772, Tempo, 535714
1, 8778, Tempo, 517241
1, 8802, Tempo, 555556
1, 8814, Tempo, 500000
1, 8844, Tempo, 535714
1, 8850, Tempo, 517241
1, 8874, Tempo, 508475
1, 8886, Tempo, 500000
1, 8916, Tempo, 526316
1, 8922, Tempo, 495868
1, 8946, Tempo, 508475
1, 8970, Tempo, 555556
1, 8982, Tempo, 582524
1, 9006, Tempo, 714286
1, 9042, Tempo, 555556
1, 9060, Tempo, 545455
1, 9066, Tempo, 526316
1, 9090, Tempo, 517241
1, 9132, Tempo, 545455
1, 9138, Tempo, 526316
1, 9162, Tempo, 517241
1, 9174, Tempo, 526316
1, 9204, Tempo, 566038
1, 9210, Tempo, 535714
1, 9246, Tempo, 545455
1, 9276, Tempo, 582524
1, 9282, Tempo, 545455
1, 9306, Tempo, 594059
1, 9318, Tempo, 845070
1, 9330, Tempo, 555556
1, 9348, Tempo, 545455
1, 9354, Tempo, 526316
1, 9378, Tempo, 571429
1, 9402, Tempo, 535714
1, 9426, Tempo, 545455
1, 9450, Tempo, 566038
1, 9474, Tempo, 582524
1, 9498, Tempo, 606061
1, 9522, Tempo, 645161
1, 9546, Tempo, 714286
1, 9570, Tempo, 845070
1, 9594, Tempo, 666667
1, 9642, Tempo, 1200000
1, 9690, Tempo, 535714
1, 9708, Tempo, 631579
1, 9714, Tempo, 545455
1, 9750, Tempo, 594059
1, 9762, Tempo, 508475
1, 9780, Tempo, 555556
1, 9786, Tempo, 500000
1, 9810, Tempo, 517241
1, 9822, Tempo, 697674
1, 9834, Tempo, 517241
1, 9852, Tempo, 508475
1, 9858, Tempo, 517241
1, 9882, Tempo, 535714
1, 9906, Tempo, 500000
1, 9924, Tempo, 508475
1, 9930, Tempo, 500000
1, 9954, Tempo, 517241
1, 9966, Tempo, 545455
1, 9978, Tempo, 500000
1, 9996, Tempo, 545455
1, 10002, Tempo, 526316
1, 10026, Tempo, 508475
1, 10038, Tempo, 517241
1, 10074, Tempo, 500000
1, 10098, Tempo, 571429
1, 10110, Tempo, 517241
1, 10134, Tempo, 645161
1, 10158, Tempo, 750000
1, 10194, Tempo, 535714
1, 10212, Tempo, 555556
1, 10218, Tempo, 526316
1, 10242, Tempo, 535714
1, 10254, Tempo, 526316
1, 10266, Tempo, 508475
1, 10284, Tempo, 535714
1, 10290, Tempo, 555556
1, 10314, Tempo, 517241
1, 10326, Tempo, 571429
1, 10338, Tempo, 508475
1, 10356, Tempo, 535714
1, 10362, Tempo, 555556
1, 10386, Tempo, 517241
1, 10398, Tempo, 555556
1, 10410, Tempo, 535714
1, 10428, Tempo, 582524
1, 10434, Tempo, 566038
1, 10458, Tempo, 618557
1, 10470, Tempo, 789474
1, 10482, Tempo, 566038
1, 10500, Tempo, 535714
1, 10506, Tempo, 526316
1, 10530, Tempo, 545455
1, 10554, Tempo, 526316
1, 10578, Tempo, 535714
1, 10602, Tempo, 545455
1, 10626, Tempo, 571429
1, 10650, Tempo, 618557
1, 10674, Tempo, 681818
1, 10698, Tempo, 731707
1, 10722, Tempo, 845070
1, 10746, Tempo, 1000000
1, 10770, Tempo, 1250000
1, 10842, Tempo, 545455
1, 10860, Tempo, 571429
1, 10866, Tempo, 545455
1, 10890, Tempo, 526316
1, 10902, Tempo, 535714
1, 10914, Tempo, 500000
1, 10932, Tempo, 526316
1, 10938, Tempo, 545455
1, 10962, Tempo, 508475
1, 10974, Tempo, 645161
1, 10986, Tempo, 508475
1, 11004, Tempo, 545455
1, 11010, Tempo, 500000
1, 11034, Tempo, 526316
1, 11046, Tempo, 545455
1, 11058, Tempo, 500000
1, 11076, Tempo, 545455
1, 11082, Tempo, 526316
1, 11106, Tempo, 508475
1, 11118, Tempo, 535714
1, 11130, Tempo, 500000
1, 11148, Tempo, 545455
1, 11154, Tempo, 526316
1, 11178, Tempo, 508475
1, 11202, Tempo, 500000
1, 11220, Tempo, 555556
1, 11226, Tempo, 500000
1, 11250, Tempo, 508475
1, 11262, Tempo, 500000
1, 11274, Tempo, 526316
1, 11286, Tempo, 618557
1, 11298, Tempo, 535714
1, 11322, Tempo, 731707
1, 11346, Tempo, 582524
1, 11370, Tempo, 566038
1, 11418, Tempo, 631579
1, 11442, Tempo, 666667
1, 11490, Tempo, 594059
1, 11514, Tempo, 582524
1, 11562, Tempo, 681818
1, 11586, Tempo, 845070
1, 11634, Tempo, 606061
1, 11652, Tempo, 666667
1, 11658, Tempo, 606061
1, 11682, Tempo, 659341
1, 11706, Tempo, 697674
1, 11730, Tempo, 714286
1, 11778, Tempo, 645161
1, 11802, Tempo, 566038
1, 11808, Key_signature, 0, "major"
1, 11850, Tempo, 480000
1, 11874, Tempo, 377358
1, 11898, Tempo, 357143
1, 11922, Tempo, 337079
1, 11946, Tempo, 331492
1, 11952, Time_signature, 2, 2, 24, 8
1, 11970, Tempo, 357143
1, 11994, Tempo, 306122
1, 12018, Tempo, 300000
1, 12042, Tempo, 294118
1, 12066, Tempo, 327869
1, 12090, Tempo, 303030
1, 12114, Tempo, 310881
1, 12138, Tempo, 306122
1, 12162, Tempo, 314136
1, 12186, Tempo, 317460
1, 12210, Tempo, 333333
1, 12234, Tempo, 352941
1, 12240, Time_signature, 3, 3, 12, 8
1, 12240, Key_signature, -2, "major"
1, 12258, Tempo, 372671
1, 12270, Tempo, 983607
1, 12306, Tempo, 594059
1, 12324, Tempo, 645161
1, 12330, Tempo, 582524
1, 12342, Tempo, 645161
1, 12354, Tempo, 681818
1, 12378, Tempo, 582524
1, 12396, Tempo, 659341
1, 12402, Tempo, 582524
1, 12414, Tempo, 606061
1, 12426, Tempo, 714286
1, 12450, Tempo, 681818
1, 12468, Tempo, 731707
1, 12474, Tempo, 800000
1, 12486, Tempo, 1111111
1, 12498, Tempo, 1250000
1, 12522, Tempo, 4000000
1, 12570, Tempo, 500000
1, 12570, End_track
2, 0, Start_track
2, 0, MIDI_port, 0
2, 0, Title_t, "Right Hand"
2, 6, Text_t, "<SC-88 Reset>"
2, 18, Text_t, "<Master Volume>"
2, 24, Text_t, "<Master Reverve>"
2, 26, Text_t, "<rev.macro>"
2, 28, Text_t, "<rev.charac.>"
2, 30, Text_t, "<rev.level>"
2, 32, Text_t, "<rev.time>"
2, 34, Text_t, "<Master Chorus>"
2, 34, Text_t, "<cho.macro>"
2, 36, Text_t, "<cho.level>"
2, 38, Text_t, "<cho.depth>"
2, 40, Text_t, "<cho.rate>"
2, 48, Control_c, 0, 0, 0
2, 49, Control_c, 0, 32, 2
2, 50, Program_c, 0, 0
2, 51, Control_c, 0, 7, 127
2, 51, Control_c, 0, 10, 64
2, 66, Control_c, 0, 11, 100
2, 72, Control_c, 0, 1, 0
2, 78, Control_c, 0, 91, 76
2, 84, Control_c, 0, 93, 3
2, 90, Text_t, "<Pitch Bend>"
2, 90, Control_c, 0, 101, 0
2, 92, Control_c, 0, 100, 0
2, 94, Control_c, 0, 6, 12
2, 96, Text_t, "<Cutoff Freq>"
2, 96, Control_c, 0, 99, 1
2, 98, Control_c, 0, 98, 32
2, 100, Control_c, 0, 6, 62
2, 102, Text_t, "<Resonance>"
2, 102, Control_c, 0, 98, 33
2, 104, Control_c, 0, 6, 62
2, 108, Text_t, "<Attack>"
2, 108, Control_c, 0, 98, 99
2, 110, Control_c, 0, 6, 64
2, 114, Text_t, "<Decay>"
2, 114, Control_c, 0, 98, 100
2, 116, Control_c, 0, 6, 72
2, 120, Text_t, "<Release>"
2, 120, Control_c, 0, 98, 102
2, 122, Control_c, 0, 6, 68
2, 288, Note_on_c, 0, 74, 48
2, 304, Note_on_c, 0, 74, 0
2, 306, Note_on_c, 0, 77, 56
2, 306, Note_on_c, 0, 69, 38
2, 311, Note_on_c, 0, 69, 0
2, 311, Note_on_c, 0, 77, 0
2, 312, Note_on_c, 0, 77, 62
2, 312, Note_on_c, 0, 72, 56
2, 334, Note_on_c, 0, 72, 0
2, 334, Note_on_c, 0, 77, 0
2, 336, Note_on_c, 0, 74, 50
2, 336, Note_on_c, 0, 65, 44
2, 342, Note_on_c, 0, 65, 0
2, 342, Note_on_c, 0, 74, 0
2, 360, Note_on_c, 0, 70, 48
2, 376, Note_on_c, 0, 70, 0
2, 378, Note_on_c, 0, 74, 53
2, 378, Note_on_c, 0, 66, 46
2, 383, Note_on_c, 0, 66, 0
2, 383, Note_on_c, 0, 74, 0
2, 384, Note_on_c, 0, 74, 61
2, 384, Note_on_c, 0, 69, 56
2, 406, Note_on_c, 0, 69, 0
2, 406, Note_on_c, 0, 74, 0
2, 408, Note_on_c, 0, 70, 47
2, 408, Note_on_c, 0, 62, 44
2, 414, Note_on_c, 0, 62, 0
2, 414, Note_on_c, 0, 70, 0
2, 432, Note_on_c, 0, 67, 49
2, 448, Note_on_c, 0, 67, 0
2, 450, Note_on_c, 0, 70, 56
2, 450, Note_on_c, 0, 62, 50
2, 455, Note_on_c, 0, 62, 0
2, 455, Note_on_c, 0, 70, 0
2, 456, Note_on_c, 0, 70, 64
2, 456, Note_on_c, 0, 65, 53
2, 478, Note_on_c, 0, 65, 0
2, 478, Note_on_c, 0, 70, 0
2, 480, Note_on_c, 0, 67, 49
2, 480, Note_on_c, 0, 58, 43
2, 486, Note_on_c, 0, 58, 0
2, 486, Note_on_c, 0, 67, 0
2, 504, Note_on_c, 0, 67, 45
2, 504, Note_on_c, 0, 58, 39
2, 520, Note_on_c, 0, 58, 0
2, 520, Note_on_c, 0, 67, 0
2, 522, Note_on_c, 0, 69, 54
2, 522, Note_on_c, 0, 63, 47
2, 527, Note_on_c, 0, 63, 0
2, 527, Note_on_c, 0, 69, 0
2, 528, Note_on_c, 0, 69, 64
2, 528, Note_on_c, 0, 63, 54
2, 550, Note_on_c, 0, 63, 0
2, 550, Note_on_c, 0, 69, 0
2, 552, Note_on_c, 0, 70, 52
2, 552, Note_on_c, 0, 58, 48
2, 558, Note_on_c, 0, 58, 0
2, 558, Note_on_c, 0, 70, 0
2, 576, Note_on_c, 0, 70, 50
2, 576, Note_on_c, 0, 65, 43
2, 592, Note_on_c, 0, 70, 0
2, 594, Note_on_c, 0, 72, 54
2, 599, Note_on_c, 0, 72, 0
2, 599, Note_on_c, 0, 65, 0
2, 600, Note_on_c, 0, 72, 65
2, 600, Note_on_c, 0, 65, 58
2, 622, Note_on_c, 0, 72, 0
2, 624, Note_on_c, 0, 74, 62
2, 624, Note_on_c, 0, 70, 59
2, 630, Note_on_c, 0, 70, 0
2, 630, Note_on_c, 0, 74, 0
2, 630, Note_on_c, 0, 65, 0
2, 648, Note_on_c, 0, 74, 71
2, 648, Note_on_c, 0, 70, 67
2, 664, Note_on_c, 0, 74, 0
2, 666, Note_on_c, 0, 75, 78
2, 671, Note_on_c, 0, 75, 0
2, 671, Note_on_c, 0, 70, 0
2, 672, Note_on_c, 0, 75, 84
2, 672, Note_on_c, 0, 70, 82
2, 694, Note_on_c, 0, 70, 0
2, 694, Note_on_c, 0, 75, 0
2, 696, Note_on_c, 0, 77, 93
2, 696, Note_on_c, 0, 73, 91
2, 696, Note_on_c, 0, 70, 89
2, 696, Note_on_c, 0, 65, 86
2, 702, Note_on_c, 0, 65, 0
2, 702, Note_on_c, 0, 77, 0
2, 702, Note_on_c, 0, 73, 0
2, 702, Note_on_c, 0, 70, 0
2, 720, Note_on_c, 0, 79, 98
2, 720, Note_on_c, 0, 72, 95
2, 720, Note_on_c, 0, 70, 92
2, 720, Note_on_c, 0, 67, 90
2, 730, Note_on_c, 0, 67, 0
2, 730, Note_on_c, 0, 79, 0
2, 730, Note_on_c, 0, 72, 0
2, 730, Note_on_c, 0, 70, 0
2, 744, Note_on_c, 0, 72, 105
2, 744, Note_on_c, 0, 69, 101
2, 744, Note_on_c, 0, 60, 100
2, 766, Note_on_c, 0, 60, 0
2, 766, Note_on_c, 0, 69, 0
2, 766, Note_on_c, 0, 72, 0
2, 792, Note_on_c, 0, 86, 39
2, 808, Note_on_c, 0, 86, 0
2, 810, Note_on_c, 0, 89, 49
2, 810, Note_on_c, 0, 81, 42
2, 815, Note_on_c, 0, 81, 0
2, 815, Note_on_c, 0, 89, 0
2, 816, Note_on_c, 0, 89, 58
2, 816, Note_on_c, 0, 84, 53
2, 838, Note_on_c, 0, 84, 0
2, 838, Note_on_c, 0, 89, 0
2, 840, Note_on_c, 0, 86, 44
2, 840, Note_on_c, 0, 77, 42
2, 846, Note_on_c, 0, 77, 0
2, 846, Note_on_c, 0, 86, 0
2, 864, Note_on_c, 0, 82, 40
2, 880, Note_on_c, 0, 82, 0
2, 882, Note_on_c, 0, 86, 50
2, 882, Note_on_c, 0, 78, 46
2, 887, Note_on_c, 0, 78, 0
2, 887, Note_on_c, 0, 86, 0
2, 888, Note_on_c, 0, 81, 57
2, 910, Note_on_c, 0, 81, 0
2, 912, Note_on_c, 0, 82, 47
2, 912, Note_on_c, 0, 74, 41
2, 918, Note_on_c, 0, 74, 0
2, 918, Note_on_c, 0, 82, 0
2, 936, Note_on_c, 0, 79, 41
2, 952, Note_on_c, 0, 79, 0
2, 954, Note_on_c, 0, 82, 53
2, 954, Note_on_c, 0, 74, 44
2, 959, Note_on_c, 0, 74, 0
2, 959, Note_on_c, 0, 82, 0
2, 960, Note_on_c, 0, 82, 63
2, 960, Note_on_c, 0, 77, 52
2, 982, Note_on_c, 0, 77, 0
2, 982, Note_on_c, 0, 82, 0
2, 984, Note_on_c, 0, 79, 44
2, 984, Note_on_c, 0, 70, 38
2, 990, Note_on_c, 0, 70, 0
2, 990, Note_on_c, 0, 79, 0
2, 1008, Note_on_c, 0, 79, 40
2, 1008, Note_on_c, 0, 70, 37
2, 1024, Note_on_c, 0, 70, 0
2, 1024, Note_on_c, 0, 79, 0
2, 1026, Note_on_c, 0, 81, 49
2, 1026, Note_on_c, 0, 75, 46
2, 1031, Note_on_c, 0, 75, 0
2, 1031, Note_on_c, 0, 81, 0
2, 1032, Note_on_c, 0, 81, 55
2, 1032, Note_on_c, 0, 75, 52
2, 1054, Note_on_c, 0, 75, 0
2, 1054, Note_on_c, 0, 81, 0
2, 1056, Note_on_c, 0, 82, 41
2, 1056, Note_on_c, 0, 70, 37
2, 1062, Note_on_c, 0, 70, 0
2, 1062, Note_on_c, 0, 82, 0
2, 1080, Note_on_c, 0, 82, 53
2, 1080, Note_on_c, 0, 77, 49
2, 1096, Note_on_c, 0, 82, 0
2, 1098, Note_on_c, 0, 84, 66
2, 1103, Note_on_c, 0, 84, 0
2, 1103, Note_on_c, 0, 77, 0
2, 1104, Note_on_c, 0, 84, 74
2, 1104, Note_on_c, 0, 77, 69
2, 1126, Note_on_c, 0, 84, 0
2, 1128, Note_on_c, 0, 86, 76
2, 1134, Note_on_c, 0, 86, 0
2, 1134, Note_on_c, 0, 77, 0
2, 1152, Note_on_c, 0, 87, 78
2, 1152, Note_on_c, 0, 82, 75
2, 1168, Note_on_c, 0, 87, 0
2, 1170, Note_on_c, 0, 88, 86
2, 1175, Note_on_c, 0, 88, 0
2, 1175, Note_on_c, 0, 82, 0
2, 1176, Note_on_c, 0, 88, 87
2, 1176, Note_on_c, 0, 82, 84
2, 1198, Note_on_c, 0, 82, 0
2, 1198, Note_on_c, 0, 88, 0
2, 1200, Note_on_c, 0, 89, 93
2, 1200, Note_on_c, 0, 81, 91
2, 1200, Note_on_c, 0, 77, 87
2, 1206, Note_on_c, 0, 77, 0
2, 1206, Note_on_c, 0, 81, 0
2, 1206, Note_on_c, 0, 89, 0
2, 1224, Note_on_c, 0, 91, 105
2, 1224, Note_on_c, 0, 88, 104
2, 1224, Note_on_c, 0, 82, 100
2, 1224, Note_on_c, 0, 79, 98
2, 1234, Note_on_c, 0, 79, 0
2, 1234, Note_on_c, 0, 91, 0
2, 1234, Note_on_c, 0, 88, 0
2, 1234, Note_on_c, 0, 82, 0
2, 1248, Note_on_c, 0, 89, 108
2, 1248, Note_on_c, 0, 81, 107
2, 1248, Note_on_c, 0, 77, 104
2, 1258, Note_on_c, 0, 77, 0
2, 1258, Note_on_c, 0, 81, 0
2, 1258, Note_on_c, 0, 89, 0
2, 1296, Note_on_c, 0, 74, 47
2, 1296, Note_on_c, 0, 71, 45
2, 1312, Note_on_c, 0, 71, 0
2, 1312, Note_on_c, 0, 74, 0
2, 1314, Note_on_c, 0, 77, 41
2, 1314, Note_on_c, 0, 74, 37
2, 1319, Note_on_c, 0, 74, 0
2, 1319, Note_on_c, 0, 77, 0
2, 1320, Note_on_c, 0, 77, 49
2, 1320, Note_on_c, 0, 74, 46
2, 1342, Note_on_c, 0, 74, 0
2, 1342, Note_on_c, 0, 77, 0
2, 1344, Note_on_c, 0, 74, 35
2, 1344, Note_on_c, 0, 71, 32
2, 1354, Note_on_c, 0, 71, 0
2, 1354, Note_on_c, 0, 74, 0
2, 1368, Note_on_c, 0, 74, 47
2, 1368, Note_on_c, 0, 71, 45
2, 1384, Note_on_c, 0, 71, 0
2, 1384, Note_on_c, 0, 74, 0
2, 1386, Note_on_c, 0, 79, 39
2, 1386, Note_on_c, 0, 75, 36
2, 1391, Note_on_c, 0, 75, 0
2, 1391, Note_on_c, 0, 79, 0
2, 1392, Note_on_c, 0, 79, 51
2, 1392, Note_on_c, 0, 75, 48
2, 1414, Note_on_c, 0, 75, 0
2, 1414, Note_on_c, 0, 79, 0
2, 1416, Note_on_c, 0, 75, 41
2, 1416, Note_on_c, 0, 72, 36
2, 1426, Note_on_c, 0, 72, 0
2, 1426, Note_on_c, 0, 75, 0
2, 1440, Note_on_c, 0, 72, 48
2, 1440, Note_on_c, 0, 69, 47
2, 1456, Note_on_c, 0, 69, 0
2, 1456, Note_on_c, 0, 72, 0
2, 1458, Note_on_c, 0, 75, 42
2, 1458, Note_on_c, 0, 72, 38
2, 1463, Note_on_c, 0, 72, 0
2, 1463, Note_on_c, 0, 75, 0
2, 1464, Note_on_c, 0, 75, 52
2, 1464, Note_on_c, 0, 72, 49
2, 1486, Note_on_c, 0, 72, 0
2, 1486, Note_on_c, 0, 75, 0
2, 1488, Note_on_c, 0, 72, 40
2, 1488, Note_on_c, 0, 69, 37
2, 1498, Note_on_c, 0, 69, 0
2, 1498, Note_on_c, 0, 72, 0
2, 1512, Note_on_c, 0, 72, 47
2, 1512, Note_on_c, 0, 69, 44
2, 1528, Note_on_c, 0, 69, 0
2, 1528, Note_on_c, 0, 72, 0
2, 1530, Note_on_c, 0, 77, 37
2, 1530, Note_on_c, 0, 73, 36
2, 1535, Note_on_c, 0, 73, 0
2, 1535, Note_on_c, 0, 77, 0
2, 1536, Note_on_c, 0, 77, 49
2, 1536, Note_on_c, 0, 74, 45
2, 1558, Note_on_c, 0, 74, 0
2, 1558, Note_on_c, 0, 77, 0
2, 1560, Note_on_c, 0, 74, 39
2, 1560, Note_on_c, 0, 70, 33
2, 1570, Note_on_c, 0, 70, 0
2, 1570, Note_on_c, 0, 74, 0
2, 1584, Note_on_c, 0, 60, 41
2, 1584, Note_on_c, 0, 57, 35
2, 1600, Note_on_c, 0, 57, 0
2, 1600, Note_on_c, 0, 60, 0
2, 1602, Note_on_c, 0, 63, 45
2, 1602, Note_on_c, 0, 60, 42
2, 1607, Note_on_c, 0, 60, 0
2, 1607, Note_on_c, 0, 63, 0
2, 1608, Note_on_c, 0, 63, 47
2, 1608, Note_on_c, 0, 60, 44
2, 1653, Note_on_c, 0, 60, 0
2, 1653, Note_on_c, 0, 63, 0
2, 1656, Note_on_c, 0, 62, 43
2, 1656, Note_on_c, 0, 58, 41
2, 1678, Note_on_c, 0, 58, 0
2, 1678, Note_on_c, 0, 62, 0
2, 1680, Note_on_c, 0, 60, 42
2, 1680, Note_on_c, 0, 57, 38
2, 1702, Note_on_c, 0, 57, 0
2, 1702, Note_on_c, 0, 60, 0
2, 1704, Note_on_c, 0, 58, 41
2, 1704, Note_on_c, 0, 55, 36
2, 1726, Note_on_c, 0, 55, 0
2, 1726, Note_on_c, 0, 58, 0
2, 1728, Note_on_c, 0, 57, 38
2, 1728, Note_on_c, 0, 53, 36
2, 1774, Note_on_c, 0, 53, 0
2, 1774, Note_on_c, 0, 57, 0
2, 1776, Note_on_c, 0, 55, 37
2, 1776, Note_on_c, 0, 52, 33
2, 1798, Note_on_c, 0, 52, 0
2, 1798, Note_on_c, 0, 55, 0
2, 1800, Note_on_c, 0, 60, 35
2, 1800, Note_on_c, 0, 55, 31
2, 1800, Note_on_c, 0, 51, 26
2, 1846, Note_on_c, 0, 51, 0
2, 1846, Note_on_c, 0, 60, 0
2, 1848, Note_on_c, 0, 59, 30
2, 1848, Note_on_c, 0, 50, 26
2, 1868, Note_on_c, 0, 55, 0
2, 1870, Note_on_c, 0, 50, 0
2, 1870, Note_on_c, 0, 59, 0
2, 1944, Note_on_c, 0, 59, 33
2, 1960, Note_on_c, 0, 59, 0
2, 1962, Note_on_c, 0, 62, 39
2, 1967, Note_on_c, 0, 62, 0
2, 1968, Note_on_c, 0, 62, 41
2, 1990, Note_on_c, 0, 62, 0
2, 1992, Note_on_c, 0, 59, 35
2, 1998, Note_on_c, 0, 59, 0
2, 2016, Note_on_c, 0, 71, 48
2, 2016, Note_on_c, 0, 62, 39
2, 2032, Note_on_c, 0, 71, 0
2, 2034, Note_on_c, 0, 74, 41
2, 2039, Note_on_c, 0, 74, 0
2, 2040, Note_on_c, 0, 74, 50
2, 2062, Note_on_c, 0, 74, 0
2, 2064, Note_on_c, 0, 71, 39
2, 2070, Note_on_c, 0, 71, 0
2, 2074, Note_on_c, 0, 62, 0
2, 2088, Note_on_c, 0, 84, 38
2, 2104, Note_on_c, 0, 84, 0
2, 2106, Note_on_c, 0, 87, 41
2, 2111, Note_on_c, 0, 87, 0
2, 2112, Note_on_c, 0, 87, 47
2, 2134, Note_on_c, 0, 87, 0
2, 2136, Note_on_c, 0, 84, 40
2, 2142, Note_on_c, 0, 84, 0
2, 2160, Note_on_c, 0, 71, 40
2, 2160, Note_on_c, 0, 62, 38
2, 2176, Note_on_c, 0, 62, 0
2, 2176, Note_on_c, 0, 71, 0
2, 2178, Note_on_c, 0, 74, 46
2, 2178, Note_on_c, 0, 65, 43
2, 2183, Note_on_c, 0, 65, 0
2, 2183, Note_on_c, 0, 74, 0
2, 2184, Note_on_c, 0, 74, 57
2, 2184, Note_on_c, 0, 65, 53
2, 2206, Note_on_c, 0, 65, 0
2, 2206, Note_on_c, 0, 74, 0
2, 2208, Note_on_c, 0, 71, 46
2, 2208, Note_on_c, 0, 62, 42
2, 2214, Note_on_c, 0, 62, 0
2, 2214, Note_on_c, 0, 71, 0
2, 2232, Note_on_c, 0, 71, 58
2, 2232, Note_on_c, 0, 62, 56
2, 2248, Note_on_c, 0, 62, 0
2, 2248, Note_on_c, 0, 71, 0
2, 2250, Note_on_c, 0, 75, 67
2, 2250, Note_on_c, 0, 67, 64
2, 2255, Note_on_c, 0, 67, 0
2, 2255, Note_on_c, 0, 75, 0
2, 2256, Note_on_c, 0, 75, 73
2, 2256, Note_on_c, 0, 67, 70
2, 2278, Note_on_c, 0, 67, 0
2, 2278, Note_on_c, 0, 75, 0
2, 2280, Note_on_c, 0, 72, 63
2, 2280, Note_on_c, 0, 63, 61
2, 2286, Note_on_c, 0, 63, 0
2, 2286, Note_on_c, 0, 72, 0
2, 2304, Note_on_c, 0, 72, 78
2, 2304, Note_on_c, 0, 69, 75
2, 2320, Note_on_c, 0, 69, 0
2, 2320, Note_on_c, 0, 72, 0
2, 2322, Note_on_c, 0, 81, 81
2, 2322, Note_on_c, 0, 72, 78
2, 2327, Note_on_c, 0, 72, 0
2, 2327, Note_on_c, 0, 81, 0
2, 2328, Note_on_c, 0, 81, 90
2, 2328, Note_on_c, 0, 72, 88
2, 2350, Note_on_c, 0, 72, 0
2, 2350, Note_on_c, 0, 81, 0
2, 2352, Note_on_c, 0, 77, 85
2, 2352, Note_on_c, 0, 69, 82
2, 2358, Note_on_c, 0, 69, 0
2, 2358, Note_on_c, 0, 77, 0
2, 2376, Note_on_c, 0, 82, 103
2, 2376, Note_on_c, 0, 70, 100
2, 2386, Note_on_c, 0, 70, 0
2, 2386, Note_on_c, 0, 82, 0
2, 2400, Note_on_c, 0, 82, 110
2, 2400, Note_on_c, 0, 70, 108
2, 2410, Note_on_c, 0, 70, 0
2, 2410, Note_on_c, 0, 82, 0
2, 2448, Note_on_c, 0, 86, 43
2, 2448, Note_on_c, 0, 83, 39
2, 2464, Note_on_c, 0, 83, 0
2, 2464, Note_on_c, 0, 86, 0
2, 2466, Note_on_c, 0, 89, 33
2, 2466, Note_on_c, 0, 86, 30
2, 2471, Note_on_c, 0, 86, 0
2, 2471, Note_on_c, 0, 89, 0
2, 2472, Note_on_c, 0, 89, 49
2, 2472, Note_on_c, 0, 86, 45
2, 2494, Note_on_c, 0, 86, 0
2, 2494, Note_on_c, 0, 89, 0
2, 2496, Note_on_c, 0, 86, 34
2, 2496, Note_on_c, 0, 83, 35
2, 2502, Note_on_c, 0, 83, 0
2, 2502, Note_on_c, 0, 86, 0
2, 2520, Note_on_c, 0, 86, 45
2, 2520, Note_on_c, 0, 83, 43
2, 2536, Note_on_c, 0, 83, 0
2, 2536, Note_on_c, 0, 86, 0
2, 2538, Note_on_c, 0, 91, 36
2, 2538, Note_on_c, 0, 87, 34
2, 2543, Note_on_c, 0, 87, 0
2, 2543, Note_on_c, 0, 91, 0
2, 2544, Note_on_c, 0, 91, 51
2, 2544, Note_on_c, 0, 87, 47
2, 2566, Note_on_c, 0, 87, 0
2, 2566, Note_on_c, 0, 91, 0
2, 2568, Note_on_c, 0, 87, 41
2, 2568, Note_on_c, 0, 84, 37
2, 2574, Note_on_c, 0, 84, 0
2, 2574, Note_on_c, 0, 87, 0
2, 2592, Note_on_c, 0, 84, 46
2, 2592, Note_on_c, 0, 81, 44
2, 2608, Note_on_c, 0, 81, 0
2, 2608, Note_on_c, 0, 84, 0
2, 2610, Note_on_c, 0, 87, 36
2, 2610, Note_on_c, 0, 84, 34
2, 2615, Note_on_c, 0, 84, 0
2, 2615, Note_on_c, 0, 87, 0
2, 2616, Note_on_c, 0, 87, 53
2, 2616, Note_on_c, 0, 84, 50
2, 2638, Note_on_c, 0, 84, 0
2, 2638, Note_on_c, 0, 87, 0
2, 2640, Note_on_c, 0, 84, 43
2, 2640, Note_on_c, 0, 81, 39
2, 2646, Note_on_c, 0, 81, 0
2, 2646, Note_on_c, 0, 84, 0
2, 2664, Note_on_c, 0, 84, 44
2, 2664, Note_on_c, 0, 81, 42
2, 2680, Note_on_c, 0, 81, 0
2, 2680, Note_on_c, 0, 84, 0
2, 2682, Note_on_c, 0, 89, 35
2, 2682, Note_on_c, 0, 85, 29
2, 2687, Note_on_c, 0, 85, 0
2, 2687, Note_on_c, 0, 89, 0
2, 2688, Note_on_c, 0, 89, 49
2, 2688, Note_on_c, 0, 86, 43
2, 2710, Note_on_c, 0, 86, 0
2, 2710, Note_on_c, 0, 89, 0
2, 2712, Note_on_c, 0, 86, 40
2, 2712, Note_on_c, 0, 82, 35
2, 2718, Note_on_c, 0, 82, 0
2, 2718, Note_on_c, 0, 86, 0
2, 2736, Note_on_c, 0, 72, 45
2, 2736, Note_on_c, 0, 69, 38
2, 2752, Note_on_c, 0, 69, 0
2, 2752, Note_on_c, 0, 72, 0
2, 2754, Note_on_c, 0, 75, 41
2, 2754, Note_on_c, 0, 72, 36
2, 2759, Note_on_c, 0, 72, 0
2, 2759, Note_on_c, 0, 75, 0
2, 2760, Note_on_c, 0, 75, 49
2, 2760, Note_on_c, 0, 72, 45
2, 2805, Note_on_c, 0, 72, 0
2, 2805, Note_on_c, 0, 75, 0
2, 2808, Note_on_c, 0, 74, 45
2, 2808, Note_on_c, 0, 70, 43
2, 2830, Note_on_c, 0, 70, 0
2, 2830, Note_on_c, 0, 74, 0
2, 2832, Note_on_c, 0, 72, 44
2, 2832, Note_on_c, 0, 69, 43
2, 2854, Note_on_c, 0, 69, 0
2, 2854, Note_on_c, 0, 72, 0
2, 2856, Note_on_c, 0, 70, 42
2, 2856, Note_on_c, 0, 67, 38
2, 2878, Note_on_c, 0, 67, 0
2, 2878, Note_on_c, 0, 70, 0
2, 2880, Note_on_c, 0, 69, 39
2, 2880, Note_on_c, 0, 65, 37
2, 2926, Note_on_c, 0, 65, 0
2, 2926, Note_on_c, 0, 69, 0
2, 2928, Note_on_c, 0, 67, 32
2, 2928, Note_on_c, 0, 64, 30
2, 2950, Note_on_c, 0, 64, 0
2, 2950, Note_on_c, 0, 67, 0
2, 2952, Note_on_c, 0, 72, 37
2, 2952, Note_on_c, 0, 67, 33
2, 2952, Note_on_c, 0, 63, 31
2, 2998, Note_on_c, 0, 63, 0
2, 2998, Note_on_c, 0, 72, 0
2, 3000, Note_on_c, 0, 71, 27
2, 3000, Note_on_c, 0, 62, 23
2, 3019, Note_on_c, 0, 67, 0
2, 3022, Note_on_c, 0, 62, 0
2, 3022, Note_on_c, 0, 71, 0
2, 3096, Note_on_c, 0, 71, 31
2, 3112, Note_on_c, 0, 71, 0
2, 3114, Note_on_c, 0, 74, 35
2, 3119, Note_on_c, 0, 74, 0
2, 3120, Note_on_c, 0, 74, 40
2, 3142, Note_on_c, 0, 74, 0
2, 3144, Note_on_c, 0, 71, 30
2, 3150, Note_on_c, 0, 71, 0
2, 3168, Note_on_c, 0, 83, 34
2, 3168, Note_on_c, 0, 74, 29
2, 3184, Note_on_c, 0, 83, 0
2, 3186, Note_on_c, 0, 86, 38
2, 3191, Note_on_c, 0, 86, 0
2, 3192, Note_on_c, 0, 86, 47
2, 3214, Note_on_c, 0, 86, 0
2, 3216, Note_on_c, 0, 83, 32
2, 3222, Note_on_c, 0, 83, 0
2, 3222, Note_on_c, 0, 74, 0
2, 3240, Note_on_c, 0, 72, 32
2, 3256, Note_on_c, 0, 72, 0
2, 3258, Note_on_c, 0, 75, 36
2, 3263, Note_on_c, 0, 75, 0
2, 3264, Note_on_c, 0, 75, 39
2, 3286, Note_on_c, 0, 75, 0
2, 3288, Note_on_c, 0, 72, 31
2, 3294, Note_on_c, 0, 72, 0
2, 3312, Note_on_c, 0, 83, 44
2, 3312, Note_on_c, 0, 74, 40
2, 3328, Note_on_c, 0, 74, 0
2, 3328, Note_on_c, 0, 83, 0
2, 3330, Note_on_c, 0, 86, 49
2, 3330, Note_on_c, 0, 77, 46
2, 3335, Note_on_c, 0, 77, 0
2, 3335, Note_on_c, 0, 86, 0
2, 3336, Note_on_c, 0, 86, 56
2, 3336, Note_on_c, 0, 77, 53
2, 3358, Note_on_c, 0, 77, 0
2, 3358, Note_on_c, 0, 86, 0
2, 3360, Note_on_c, 0, 83, 45
2, 3360, Note_on_c, 0, 74, 43
2, 3366, Note_on_c, 0, 74, 0
2, 3366, Note_on_c, 0, 83, 0
2, 3384, Note_on_c, 0, 83, 58
2, 3384, Note_on_c, 0, 74, 56
2, 3400, Note_on_c, 0, 74, 0
2, 3400, Note_on_c, 0, 83, 0
2, 3402, Note_on_c, 0, 87, 67
2, 3402, Note_on_c, 0, 79, 64
2, 3407, Note_on_c, 0, 79, 0
2, 3407, Note_on_c, 0, 87, 0
2, 3408, Note_on_c, 0, 87, 70
2, 3408, Note_on_c, 0, 79, 69
2, 3430, Note_on_c, 0, 79, 0
2, 3430, Note_on_c, 0, 87, 0
2, 3432, Note_on_c, 0, 84, 61
2, 3432, Note_on_c, 0, 75, 58
2, 3438, Note_on_c, 0, 75, 0
2, 3438, Note_on_c, 0, 84, 0
2, 3456, Note_on_c, 0, 84, 73
2, 3456, Note_on_c, 0, 81, 71
2, 3472, Note_on_c, 0, 81, 0
2, 3472, Note_on_c, 0, 84, 0
2, 3474, Note_on_c, 0, 93, 80
2, 3474, Note_on_c, 0, 84, 76
2, 3479, Note_on_c, 0, 84, 0
2, 3479, Note_on_c, 0, 93, 0
2, 3480, Note_on_c, 0, 93, 87
2, 3480, Note_on_c, 0, 84, 84
2, 3502, Note_on_c, 0, 84, 0
2, 3502, Note_on_c, 0, 93, 0
2, 3504, Note_on_c, 0, 89, 96
2, 3504, Note_on_c, 0, 81, 92
2, 3510, Note_on_c, 0, 81, 0
2, 3510, Note_on_c, 0, 89, 0
2, 3528, Note_on_c, 0, 94, 107
2, 3528, Note_on_c, 0, 82, 105
2, 3538, Note_on_c, 0, 82, 0
2, 3538, Note_on_c, 0, 94, 0
2, 3552, Note_on_c, 0, 94, 115
2, 3552, Note_on_c, 0, 82, 113
2, 3562, Note_on_c, 0, 82, 0
2, 3562, Note_on_c, 0, 94, 0
2, 3600, Note_on_c, 0, 85, 55
2, 3600, Note_on_c, 0, 73, 52
2, 3646, Note_on_c, 0, 73, 0
2, 3646, Note_on_c, 0, 85, 0
2, 3648, Note_on_c, 0, 89, 63
2, 3648, Note_on_c, 0, 77, 58
2, 3670, Note_on_c, 0, 77, 0
2, 3670, Note_on_c, 0, 89, 0
2, 3672, Note_on_c, 0, 85, 64
2, 3672, Note_on_c, 0, 73, 60
2, 3718, Note_on_c, 0, 73, 0
2, 3718, Note_on_c, 0, 85, 0
2, 3720, Note_on_c, 0, 82, 61
2, 3720, Note_on_c, 0, 70, 57
2, 3742, Note_on_c, 0, 70, 0
2, 3742, Note_on_c, 0, 82, 0
2, 3744, Note_on_c, 0, 77, 59
2, 3744, Note_on_c, 0, 65, 56
2, 3766, Note_on_c, 0, 65, 0
2, 3766, Note_on_c, 0, 77, 0
2, 3768, Note_on_c, 0, 82, 68
2, 3768, Note_on_c, 0, 70, 64
2, 3813, Note_on_c, 0, 70, 0
2, 3813, Note_on_c, 0, 82, 0
2, 3816, Note_on_c, 0, 85, 75
2, 3816, Note_on_c, 0, 73, 71
2, 3838, Note_on_c, 0, 73, 0
2, 3838, Note_on_c, 0, 85, 0
2, 3840, Note_on_c, 0, 89, 83
2, 3840, Note_on_c, 0, 77, 81
2, 3885, Note_on_c, 0, 77, 0
2, 3885, Note_on_c, 0, 89, 0
2, 3888, Note_on_c, 0, 85, 82
2, 3888, Note_on_c, 0, 73, 78
2, 3910, Note_on_c, 0, 73, 0
2, 3910, Note_on_c, 0, 85, 0
2, 3912, Note_on_c, 0, 82, 84
2, 3912, Note_on_c, 0, 70, 81
2, 3957, Note_on_c, 0, 70, 0
2, 3957, Note_on_c, 0, 82, 0
2, 3960, Note_on_c, 0, 77, 86
2, 3960, Note_on_c, 0, 65, 83
2, 3982, Note_on_c, 0, 65, 0
2, 3982, Note_on_c, 0, 77, 0
2, 3984, Note_on_c, 0, 82, 90
2, 3984, Note_on_c, 0, 70, 87
2, 4029, Note_on_c, 0, 70, 0
2, 4029, Note_on_c, 0, 82, 0
2, 4032, Note_on_c, 0, 85, 95
2, 4032, Note_on_c, 0, 73, 92
2, 4054, Note_on_c, 0, 73, 0
2, 4054, Note_on_c, 0, 85, 0
2, 4056, Note_on_c, 0, 89, 84
2, 4056, Note_on_c, 0, 77, 78
2, 4101, Note_on_c, 0, 77, 0
2, 4101, Note_on_c, 0, 89, 0
2, 4104, Note_on_c, 0, 92, 70
2, 4104, Note_on_c, 0, 80, 65
2, 4126, Note_on_c, 0, 80, 0
2, 4126, Note_on_c, 0, 92, 0
2, 4128, Note_on_c, 0, 85, 62
2, 4128, Note_on_c, 0, 73, 55
2, 4150, Note_on_c, 0, 73, 0
2, 4150, Note_on_c, 0, 85, 0
2, 4176, Note_on_c, 0, 82, 53
2, 4176, Note_on_c, 0, 70, 49
2, 4186, Note_on_c, 0, 70, 0
2, 4186, Note_on_c, 0, 82, 0
2, 4200, Note_on_c, 0, 82, 47
2, 4200, Note_on_c, 0, 70, 42
2, 4210, Note_on_c, 0, 70, 0
2, 4210, Note_on_c, 0, 82, 0
2, 4248, Note_on_c, 0, 73, 48
2, 4256, Note_on_c, 0, 70, 42
2, 4258, Note_on_c, 0, 73, 0
2, 4264, Note_on_c, 0, 65, 38
2, 4266, Note_on_c, 0, 70, 0
2, 4272, Note_on_c, 0, 73, 47
2, 4274, Note_on_c, 0, 65, 0
2, 4280, Note_on_c, 0, 70, 43
2, 4282, Note_on_c, 0, 73, 0
2, 4288, Note_on_c, 0, 65, 37
2, 4290, Note_on_c, 0, 70, 0
2, 4296, Note_on_c, 0, 77, 47
2, 4298, Note_on_c, 0, 65, 0
2, 4304, Note_on_c, 0, 73, 41
2, 4306, Note_on_c, 0, 77, 0
2, 4312, Note_on_c, 0, 70, 36
2, 4314, Note_on_c, 0, 73, 0
2, 4320, Note_on_c, 0, 73, 47
2, 4322, Note_on_c, 0, 70, 0
2, 4328, Note_on_c, 0, 70, 42
2, 4330, Note_on_c, 0, 73, 0
2, 4336, Note_on_c, 0, 65, 36
2, 4338, Note_on_c, 0, 70, 0
2, 4344, Note_on_c, 0, 73, 52
2, 4346, Note_on_c, 0, 65, 0
2, 4352, Note_on_c, 0, 70, 46
2, 4354, Note_on_c, 0, 73, 0
2, 4360, Note_on_c, 0, 65, 42
2, 4362, Note_on_c, 0, 70, 0
2, 4368, Note_on_c, 0, 70, 56
2, 4370, Note_on_c, 0, 65, 0
2, 4376, Note_on_c, 0, 65, 51
2, 4378, Note_on_c, 0, 70, 0
2, 4384, Note_on_c, 0, 61, 46
2, 4386, Note_on_c, 0, 65, 0
2, 4392, Note_on_c, 0, 65, 59
2, 4394, Note_on_c, 0, 61, 0
2, 4400, Note_on_c, 0, 61, 54
2, 4402, Note_on_c, 0, 65, 0
2, 4408, Note_on_c, 0, 58, 48
2, 4410, Note_on_c, 0, 61, 0
2, 4416, Note_on_c, 0, 70, 65
2, 4416, Note_on_c, 0, 61, 63
2, 4418, Note_on_c, 0, 58, 0
2, 4424, Note_on_c, 0, 58, 57
2, 4426, Note_on_c, 0, 61, 0
2, 4426, Note_on_c, 0, 70, 0
2, 4432, Note_on_c, 0, 61, 52
2, 4434, Note_on_c, 0, 58, 0
2, 4440, Note_on_c, 0, 70, 70
2, 4442, Note_on_c, 0, 61, 0
2, 4448, Note_on_c, 0, 61, 65
2, 4450, Note_on_c, 0, 70, 0
2, 4456, Note_on_c, 0, 58, 58
2, 4458, Note_on_c, 0, 61, 0
2, 4464, Note_on_c, 0, 73, 74
2, 4464, Note_on_c, 0, 65, 72
2, 4466, Note_on_c, 0, 58, 0
2, 4472, Note_on_c, 0, 61, 66
2, 4474, Note_on_c, 0, 65, 0
2, 4474, Note_on_c, 0, 73, 0
2, 4480, Note_on_c, 0, 65, 58
2, 4482, Note_on_c, 0, 61, 0
2, 4488, Note_on_c, 0, 77, 77
2, 4490, Note_on_c, 0, 65, 0
2, 4496, Note_on_c, 0, 73, 69
2, 4498, Note_on_c, 0, 77, 0
2, 4504, Note_on_c, 0, 70, 64
2, 4506, Note_on_c, 0, 73, 0
2, 4512, Note_on_c, 0, 77, 80
2, 4514, Note_on_c, 0, 70, 0
2, 4520, Note_on_c, 0, 73, 75
2, 4522, Note_on_c, 0, 77, 0
2, 4528, Note_on_c, 0, 70, 71
2, 4530, Note_on_c, 0, 73, 0
2, 4536, Note_on_c, 0, 73, 82
2, 4538, Note_on_c, 0, 70, 0
2, 4544, Note_on_c, 0, 70, 76
2, 4546, Note_on_c, 0, 73, 0
2, 4552, Note_on_c, 0, 65, 73
2, 4554, Note_on_c, 0, 70, 0
2, 4560, Note_on_c, 0, 70, 79
2, 4562, Note_on_c, 0, 65, 0
2, 4568, Note_on_c, 0, 65, 71
2, 4570, Note_on_c, 0, 70, 0
2, 4576, Note_on_c, 0, 61, 64
2, 4578, Note_on_c, 0, 65, 0
2, 4584, Note_on_c, 0, 70, 75
2, 4586, Note_on_c, 0, 61, 0
2, 4592, Note_on_c, 0, 65, 69
2, 4594, Note_on_c, 0, 70, 0
2, 4600, Note_on_c, 0, 61, 62
2, 4602, Note_on_c, 0, 65, 0
2, 4608, Note_on_c, 0, 65, 69
2, 4610, Note_on_c, 0, 61, 0
2, 4616, Note_on_c, 0, 61, 63
2, 4618, Note_on_c, 0, 65, 0
2, 4624, Note_on_c, 0, 58, 57
2, 4626, Note_on_c, 0, 61, 0
2, 4632, Note_on_c, 0, 68, 66
2, 4632, Note_on_c, 0, 61, 62
2, 4634, Note_on_c, 0, 58, 0
2, 4640, Note_on_c, 0, 56, 58
2, 4642, Note_on_c, 0, 61, 0
2, 4642, Note_on_c, 0, 68, 0
2, 4648, Note_on_c, 0, 61, 51
2, 4650, Note_on_c, 0, 56, 0
2, 4656, Note_on_c, 0, 68, 62
2, 4658, Note_on_c, 0, 61, 0
2, 4664, Note_on_c, 0, 65, 55
2, 4666, Note_on_c, 0, 68, 0
2, 4672, Note_on_c, 0, 61, 49
2, 4674, Note_on_c, 0, 65, 0
2, 4680, Note_on_c, 0, 73, 59
2, 4680, Note_on_c, 0, 65, 57
2, 4682, Note_on_c, 0, 61, 0
2, 4688, Note_on_c, 0, 61, 52
2, 4690, Note_on_c, 0, 65, 0
2, 4690, Note_on_c, 0, 73, 0
2, 4696, Note_on_c, 0, 65, 48
2, 4698, Note_on_c, 0, 61, 0
2, 4704, Note_on_c, 0, 77, 55
2, 4706, Note_on_c, 0, 65, 0
2, 4712, Note_on_c, 0, 73, 50
2, 4714, Note_on_c, 0, 77, 0
2, 4720, Note_on_c, 0, 68, 45
2, 4722, Note_on_c, 0, 73, 0
2, 4728, Note_on_c, 0, 77, 50
2, 4730, Note_on_c, 0, 68, 0
2, 4736, Note_on_c, 0, 73, 43
2, 4738, Note_on_c, 0, 77, 0
2, 4744, Note_on_c, 0, 68, 40
2, 4746, Note_on_c, 0, 73, 0
2, 4752, Note_on_c, 0, 80, 49
2, 4754, Note_on_c, 0, 68, 0
2, 4760, Note_on_c, 0, 77, 42
2, 4762, Note_on_c, 0, 80, 0
2, 4768, Note_on_c, 0, 73, 37
2, 4770, Note_on_c, 0, 77, 0
2, 4776, Note_on_c, 0, 73, 0
2, 4776, Note_on_c, 0, 73, 43
2, 4776, Note_on_c, 0, 65, 40
2, 4798, Note_on_c, 0, 65, 0
2, 4798, Note_on_c, 0, 73, 0
2, 4824, Note_on_c, 0, 89, 61
2, 4824, Note_on_c, 0, 77, 58
2, 4870, Note_on_c, 0, 77, 0
2, 4870, Note_on_c, 0, 89, 0
2, 4872, Note_on_c, 0, 92, 69
2, 4872, Note_on_c, 0, 80, 66
2, 4894, Note_on_c, 0, 80, 0
2, 4894, Note_on_c, 0, 92, 0
2, 4896, Note_on_c, 0, 89, 73
2, 4896, Note_on_c, 0, 77, 71
2, 4942, Note_on_c, 0, 77, 0
2, 4942, Note_on_c, 0, 89, 0
2, 4944, Note_on_c, 0, 85, 66
2, 4944, Note_on_c, 0, 73, 64
2, 4966, Note_on_c, 0, 73, 0
2, 4966, Note_on_c, 0, 85, 0
2, 4968, Note_on_c, 0, 80, 61
2, 4968, Note_on_c, 0, 68, 58
2, 4990, Note_on_c, 0, 68, 0
2, 4990, Note_on_c, 0, 80, 0
2, 4992, Note_on_c, 0, 85, 57
2, 4992, Note_on_c, 0, 73, 54
2, 5037, Note_on_c, 0, 73, 0
2, 5037, Note_on_c, 0, 85, 0
2, 5040, Note_on_c, 0, 89, 68
2, 5040, Note_on_c, 0, 77, 67
2, 5062, Note_on_c, 0, 77, 0
2, 5062, Note_on_c, 0, 89, 0
2, 5064, Note_on_c, 0, 92, 78
2, 5064, Note_on_c, 0, 80, 73
2, 5109, Note_on_c, 0, 80, 0
2, 5109, Note_on_c, 0, 92, 0
2, 5112, Note_on_c, 0, 89, 86
2, 5112, Note_on_c, 0, 77, 83
2, 5134, Note_on_c, 0, 77, 0
2, 5134, Note_on_c, 0, 89, 0
2, 5136, Note_on_c, 0, 85, 90
2, 5136, Note_on_c, 0, 73, 89
2, 5181, Note_on_c, 0, 73, 0
2, 5181, Note_on_c, 0, 85, 0
2, 5184, Note_on_c, 0, 82, 92
2, 5184, Note_on_c, 0, 70, 90
2, 5206, Note_on_c, 0, 70, 0
2, 5206, Note_on_c, 0, 82, 0
2, 5208, Note_on_c, 0, 77, 91
2, 5208, Note_on_c, 0, 65, 88
2, 5253, Note_on_c, 0, 65, 0
2, 5253, Note_on_c, 0, 77, 0
2, 5256, Note_on_c, 0, 82, 82
2, 5256, Note_on_c, 0, 70, 79
2, 5278, Note_on_c, 0, 70, 0
2, 5278, Note_on_c, 0, 82, 0
2, 5280, Note_on_c, 0, 85, 77
2, 5280, Note_on_c, 0, 73, 73
2, 5325, Note_on_c, 0, 73, 0
2, 5325, Note_on_c, 0, 85, 0
2, 5328, Note_on_c, 0, 89, 70
2, 5328, Note_on_c, 0, 77, 68
2, 5350, Note_on_c, 0, 77, 0
2, 5350, Note_on_c, 0, 89, 0
2, 5352, Note_on_c, 0, 82, 62
2, 5352, Note_on_c, 0, 70, 60
2, 5374, Note_on_c, 0, 70, 0
2, 5374, Note_on_c, 0, 82, 0
2, 5400, Note_on_c, 0, 73, 50
2, 5400, Note_on_c, 0, 61, 46
2, 5410, Note_on_c, 0, 61, 0
2, 5410, Note_on_c, 0, 73, 0
2, 5424, Note_on_c, 0, 73, 44
2, 5424, Note_on_c, 0, 61, 42
2, 5434, Note_on_c, 0, 61, 0
2, 5434, Note_on_c, 0, 73, 0
2, 5448, Note_on_c, 0, 61, 36
2, 5456, Note_on_c, 0, 65, 41
2, 5458, Note_on_c, 0, 61, 0
2, 5464, Note_on_c, 0, 73, 48
2, 5466, Note_on_c, 0, 65, 0
2, 5472, Note_on_c, 0, 77, 64
2, 5474, Note_on_c, 0, 73, 0
2, 5480, Note_on_c, 0, 73, 50
2, 5488, Note_on_c, 0, 68, 43
2, 5490, Note_on_c, 0, 73, 0
2, 5494, Note_on_c, 0, 77, 0
2, 5496, Note_on_c, 0, 77, 65
2, 5498, Note_on_c, 0, 68, 0
2, 5504, Note_on_c, 0, 73, 50
2, 5512, Note_on_c, 0, 68, 44
2, 5514, Note_on_c, 0, 73, 0
2, 5518, Note_on_c, 0, 77, 0
2, 5520, Note_on_c, 0, 80, 71
2, 5520, Note_on_c, 0, 77, 55
2, 5522, Note_on_c, 0, 68, 0
2, 5528, Note_on_c, 0, 73, 49
2, 5530, Note_on_c, 0, 77, 0
2, 5536, Note_on_c, 0, 68, 40
2, 5538, Note_on_c, 0, 73, 0
2, 5542, Note_on_c, 0, 80, 0
2, 5544, Note_on_c, 0, 77, 65
2, 5546, Note_on_c, 0, 68, 0
2, 5552, Note_on_c, 0, 73, 52
2, 5560, Note_on_c, 0, 68, 38
2, 5562, Note_on_c, 0, 73, 0
2, 5566, Note_on_c, 0, 77, 0
2, 5568, Note_on_c, 0, 77, 59
2, 5570, Note_on_c, 0, 68, 0
2, 5576, Note_on_c, 0, 73, 51
2, 5578, Note_on_c, 0, 77, 0
2, 5584, Note_on_c, 0, 68, 43
2, 5586, Note_on_c, 0, 73, 0
2, 5592, Note_on_c, 0, 73, 59
2, 5594, Note_on_c, 0, 68, 0
2, 5600, Note_on_c, 0, 68, 51
2, 5602, Note_on_c, 0, 73, 0
2, 5608, Note_on_c, 0, 65, 47
2, 5610, Note_on_c, 0, 68, 0
2, 5616, Note_on_c, 0, 68, 64
2, 5616, Note_on_c, 0, 61, 61
2, 5618, Note_on_c, 0, 65, 0
2, 5624, Note_on_c, 0, 56, 56
2, 5626, Note_on_c, 0, 61, 0
2, 5626, Note_on_c, 0, 68, 0
2, 5632, Note_on_c, 0, 61, 50
2, 5634, Note_on_c, 0, 56, 0
2, 5640, Note_on_c, 0, 73, 67
2, 5640, Note_on_c, 0, 65, 65
2, 5642, Note_on_c, 0, 61, 0
2, 5648, Note_on_c, 0, 61, 62
2, 5650, Note_on_c, 0, 65, 0
2, 5650, Note_on_c, 0, 73, 0
2, 5656, Note_on_c, 0, 65, 56
2, 5658, Note_on_c, 0, 61, 0
2, 5664, Note_on_c, 0, 73, 73
2, 5666, Note_on_c, 0, 65, 0
2, 5672, Note_on_c, 0, 68, 67
2, 5674, Note_on_c, 0, 73, 0
2, 5680, Note_on_c, 0, 65, 62
2, 5682, Note_on_c, 0, 68, 0
2, 5688, Note_on_c, 0, 77, 77
2, 5690, Note_on_c, 0, 65, 0
2, 5696, Note_on_c, 0, 73, 71
2, 5698, Note_on_c, 0, 77, 0
2, 5704, Note_on_c, 0, 68, 64
2, 5706, Note_on_c, 0, 73, 0
2, 5712, Note_on_c, 0, 80, 81
2, 5714, Note_on_c, 0, 68, 0
2, 5720, Note_on_c, 0, 77, 75
2, 5722, Note_on_c, 0, 80, 0
2, 5728, Note_on_c, 0, 73, 69
2, 5730, Note_on_c, 0, 77, 0
2, 5736, Note_on_c, 0, 77, 85
2, 5738, Note_on_c, 0, 73, 0
2, 5744, Note_on_c, 0, 73, 80
2, 5746, Note_on_c, 0, 77, 0
2, 5752, Note_on_c, 0, 77, 69
2, 5754, Note_on_c, 0, 73, 0
2, 5758, Note_on_c, 0, 77, 0
2, 5760, Note_on_c, 0, 77, 86
2, 5768, Note_on_c, 0, 73, 79
2, 5770, Note_on_c, 0, 77, 0
2, 5776, Note_on_c, 0, 65, 71
2, 5778, Note_on_c, 0, 73, 0
2, 5784, Note_on_c, 0, 73, 77
2, 5786, Note_on_c, 0, 65, 0
2, 5792, Note_on_c, 0, 70, 68
2, 5794, Note_on_c, 0, 73, 0
2, 5800, Note_on_c, 0, 65, 62
2, 5802, Note_on_c, 0, 70, 0
2, 5808, Note_on_c, 0, 73, 70
2, 5810, Note_on_c, 0, 65, 0
2, 5816, Note_on_c, 0, 70, 62
2, 5818, Note_on_c, 0, 73, 0
2, 5824, Note_on_c, 0, 65, 55
2, 5826, Note_on_c, 0, 70, 0
2, 5832, Note_on_c, 0, 70, 61
2, 5834, Note_on_c, 0, 65, 0
2, 5840, Note_on_c, 0, 65, 56
2, 5842, Note_on_c, 0, 70, 0
2, 5848, Note_on_c, 0, 61, 52
2, 5850, Note_on_c, 0, 65, 0
2, 5856, Note_on_c, 0, 65, 57
2, 5858, Note_on_c, 0, 61, 0
2, 5864, Note_on_c, 0, 61, 50
2, 5866, Note_on_c, 0, 65, 0
2, 5872, Note_on_c, 0, 58, 43
2, 5874, Note_on_c, 0, 61, 0
2, 5880, Note_on_c, 0, 65, 51
2, 5882, Note_on_c, 0, 58, 0
2, 5888, Note_on_c, 0, 61, 48
2, 5890, Note_on_c, 0, 65, 0
2, 5896, Note_on_c, 0, 58, 43
2, 5898, Note_on_c, 0, 61, 0
2, 5904, Note_on_c, 0, 70, 51
2, 5904, Note_on_c, 0, 61, 46
2, 5906, Note_on_c, 0, 58, 0
2, 5912, Note_on_c, 0, 58, 44
2, 5914, Note_on_c, 0, 61, 0
2, 5914, Note_on_c, 0, 70, 0
2, 5920, Note_on_c, 0, 61, 40
2, 5922, Note_on_c, 0, 58, 0
2, 5928, Note_on_c, 0, 73, 47
2, 5930, Note_on_c, 0, 61, 0
2, 5936, Note_on_c, 0, 70, 41
2, 5938, Note_on_c, 0, 73, 0
2, 5944, Note_on_c, 0, 65, 37
2, 5946, Note_on_c, 0, 70, 0
2, 5952, Note_on_c, 0, 73, 46
2, 5954, Note_on_c, 0, 65, 0
2, 5960, Note_on_c, 0, 70, 41
2, 5962, Note_on_c, 0, 73, 0
2, 5968, Note_on_c, 0, 65, 35
2, 5970, Note_on_c, 0, 70, 0
2, 5976, Note_on_c, 0, 77, 44
2, 5978, Note_on_c, 0, 65, 0
2, 5984, Note_on_c, 0, 73, 39
2, 5986, Note_on_c, 0, 77, 0
2, 5992, Note_on_c, 0, 65, 30
2, 5994, Note_on_c, 0, 73, 0
2, 6000, Note_on_c, 0, 70, 39
2, 6002, Note_on_c, 0, 65, 0
2, 6022, Note_on_c, 0, 70, 0
2, 6072, Note_on_c, 0, 70, 37
2, 6082, Note_on_c, 0, 70, 0
2, 6096, Note_on_c, 0, 73, 40
2, 6106, Note_on_c, 0, 73, 0
2, 6120, Note_on_c, 0, 72, 42
2, 6130, Note_on_c, 0, 72, 0
2, 6144, Note_on_c, 0, 65, 39
2, 6154, Note_on_c, 0, 65, 0
2, 6168, Note_on_c, 0, 77, 50
2, 6178, Note_on_c, 0, 77, 0
2, 6192, Note_on_c, 0, 75, 41
2, 6202, Note_on_c, 0, 75, 0
2, 6216, Note_on_c, 0, 73, 41
2, 6226, Note_on_c, 0, 73, 0
2, 6240, Note_on_c, 0, 72, 37
2, 6250, Note_on_c, 0, 72, 0
2, 6264, Note_on_c, 0, 70, 37
2, 6274, Note_on_c, 0, 70, 0
2, 6288, Note_on_c, 0, 73, 44
2, 6298, Note_on_c, 0, 73, 0
2, 6312, Note_on_c, 0, 72, 41
2, 6322, Note_on_c, 0, 72, 0
2, 6336, Note_on_c, 0, 68, 37
2, 6346, Note_on_c, 0, 68, 0
2, 6360, Note_on_c, 0, 72, 47
2, 6370, Note_on_c, 0, 72, 0
2, 6384, Note_on_c, 0, 67, 38
2, 6394, Note_on_c, 0, 67, 0
2, 6408, Note_on_c, 0, 65, 32
2, 6453, Note_on_c, 0, 65, 0
2, 6468, Note_on_c, 0, 72, 51
2, 6468, Note_on_c, 0, 68, 50
2, 6468, Note_on_c, 0, 65, 46
2, 6478, Note_on_c, 0, 65, 0
2, 6478, Note_on_c, 0, 68, 0
2, 6478, Note_on_c, 0, 72, 0
2, 6492, Note_on_c, 0, 72, 55
2, 6492, Note_on_c, 0, 68, 53
2, 6492, Note_on_c, 0, 65, 50
2, 6502, Note_on_c, 0, 65, 0
2, 6502, Note_on_c, 0, 68, 0
2, 6502, Note_on_c, 0, 72, 0
2, 6516, Note_on_c, 0, 72, 59
2, 6516, Note_on_c, 0, 70, 58
2, 6516, Note_on_c, 0, 64, 54
2, 6526, Note_on_c, 0, 64, 0
2, 6526, Note_on_c, 0, 70, 0
2, 6526, Note_on_c, 0, 72, 0
2, 6540, Note_on_c, 0, 72, 61
2, 6540, Note_on_c, 0, 70, 60
2, 6540, Note_on_c, 0, 67, 58
2, 6540, Note_on_c, 0, 64, 57
2, 6550, Note_on_c, 0, 64, 0
2, 6550, Note_on_c, 0, 72, 0
2, 6550, Note_on_c, 0, 70, 0
2, 6550, Note_on_c, 0, 67, 0
2, 6564, Note_on_c, 0, 72, 64
2, 6564, Note_on_c, 0, 67, 60
2, 6564, Note_on_c, 0, 64, 57
2, 6574, Note_on_c, 0, 64, 0
2, 6574, Note_on_c, 0, 67, 0
2, 6574, Note_on_c, 0, 72, 0
2, 6588, Note_on_c, 0, 72, 65
2, 6588, Note_on_c, 0, 67, 63
2, 6588, Note_on_c, 0, 64, 62
2, 6598, Note_on_c, 0, 64, 0
2, 6598, Note_on_c, 0, 67, 0
2, 6598, Note_on_c, 0, 72, 0
2, 6612, Note_on_c, 0, 72, 67
2, 6612, Note_on_c, 0, 68, 65
2, 6612, Note_on_c, 0, 65, 62
2, 6622, Note_on_c, 0, 65, 0
2, 6622, Note_on_c, 0, 68, 0
2, 6622, Note_on_c, 0, 72, 0
2, 6636, Note_on_c, 0, 72, 70
2, 6636, Note_on_c, 0, 70, 69
2, 6636, Note_on_c, 0, 64, 68
2, 6646, Note_on_c, 0, 64, 0
2, 6646, Note_on_c, 0, 70, 0
2, 6646, Note_on_c, 0, 72, 0
2, 6660, Note_on_c, 0, 72, 72
2, 6660, Note_on_c, 0, 68, 69
2, 6660, Note_on_c, 0, 65, 68
2, 6670, Note_on_c, 0, 65, 0
2, 6670, Note_on_c, 0, 68, 0
2, 6670, Note_on_c, 0, 72, 0
2, 6684, Note_on_c, 0, 77, 73
2, 6684, Note_on_c, 0, 72, 71
2, 6684, Note_on_c, 0, 68, 69
2, 6684, Note_on_c, 0, 65, 67
2, 6694, Note_on_c, 0, 65, 0
2, 6694, Note_on_c, 0, 77, 0
2, 6694, Note_on_c, 0, 72, 0
2, 6694, Note_on_c, 0, 68, 0
2, 6708, Note_on_c, 0, 77, 76
2, 6708, Note_on_c, 0, 72, 75
2, 6708, Note_on_c, 0, 70, 73
2, 6708, Note_on_c, 0, 65, 71
2, 6718, Note_on_c, 0, 65, 0
2, 6718, Note_on_c, 0, 77, 0
2, 6718, Note_on_c, 0, 72, 0
2, 6718, Note_on_c, 0, 70, 0
2, 6732, Note_on_c, 0, 76, 77
2, 6732, Note_on_c, 0, 72, 76
2, 6732, Note_on_c, 0, 70, 71
2, 6732, Note_on_c, 0, 64, 67
2, 6742, Note_on_c, 0, 64, 0
2, 6742, Note_on_c, 0, 76, 0
2, 6742, Note_on_c, 0, 72, 0
2, 6742, Note_on_c, 0, 70, 0
2, 6756, Note_on_c, 0, 77, 79
2, 6756, Note_on_c, 0, 72, 77
2, 6756, Note_on_c, 0, 65, 72
2, 6766, Note_on_c, 0, 65, 0
2, 6766, Note_on_c, 0, 72, 0
2, 6766, Note_on_c, 0, 77, 0
2, 6780, Note_on_c, 0, 75, 84
2, 6780, Note_on_c, 0, 72, 82
2, 6780, Note_on_c, 0, 65, 81
2, 6790, Note_on_c, 0, 65, 0
2, 6790, Note_on_c, 0, 72, 0
2, 6790, Note_on_c, 0, 75, 0
2, 6804, Note_on_c, 0, 73, 84
2, 6804, Note_on_c, 0, 70, 82
2, 6804, Note_on_c, 0, 65, 80
2, 6814, Note_on_c, 0, 65, 0
2, 6814, Note_on_c, 0, 70, 0
2, 6814, Note_on_c, 0, 73, 0
2, 6828, Note_on_c, 0, 72, 87
2, 6828, Note_on_c, 0, 69, 85
2, 6828, Note_on_c, 0, 63, 84
2, 6838, Note_on_c, 0, 63, 0
2, 6838, Note_on_c, 0, 69, 0
2, 6838, Note_on_c, 0, 72, 0
2, 6840, Note_on_c, 0, 82, 97
2, 6840, Note_on_c, 0, 77, 94
2, 6840, Note_on_c, 0, 70, 93
2, 6850, Note_on_c, 0, 70, 0
2, 6850, Note_on_c, 0, 77, 0
2, 6850, Note_on_c, 0, 82, 0
2, 6864, Note_on_c, 0, 85, 100
2, 6864, Note_on_c, 0, 82, 97
2, 6864, Note_on_c, 0, 77, 96
2, 6864, Note_on_c, 0, 73, 95
2, 6874, Note_on_c, 0, 73, 0
2, 6874, Note_on_c, 0, 85, 0
2, 6874, Note_on_c, 0, 82, 0
2, 6874, Note_on_c, 0, 77, 0
2, 6888, Note_on_c, 0, 84, 97
2, 6888, Note_on_c, 0, 81, 96
2, 6888, Note_on_c, 0, 77, 94
2, 6888, Note_on_c, 0, 72, 92
2, 6898, Note_on_c, 0, 72, 0
2, 6898, Note_on_c, 0, 84, 0
2, 6898, Note_on_c, 0, 81, 0
2, 6898, Note_on_c, 0, 77, 0
2, 6912, Note_on_c, 0, 77, 94
2, 6912, Note_on_c, 0, 72, 91
2, 6912, Note_on_c, 0, 69, 87
2, 6912, Note_on_c, 0, 65, 82
2, 6922, Note_on_c, 0, 65, 0
2, 6922, Note_on_c, 0, 77, 0
2, 6922, Note_on_c, 0, 72, 0
2, 6922, Note_on_c, 0, 69, 0
2, 6936, Note_on_c, 0, 89, 100
2, 6936, Note_on_c, 0, 82, 99
2, 6936, Note_on_c, 0, 77, 99
2, 6946, Note_on_c, 0, 77, 0
2, 6946, Note_on_c, 0, 82, 0
2, 6946, Note_on_c, 0, 89, 0
2, 6960, Note_on_c, 0, 87, 95
2, 6960, Note_on_c, 0, 81, 93
2, 6960, Note_on_c, 0, 77, 92
2, 6960, Note_on_c, 0, 75, 91
2, 6970, Note_on_c, 0, 75, 0
2, 6970, Note_on_c, 0, 87, 0
2, 6970, Note_on_c, 0, 81, 0
2, 6970, Note_on_c, 0, 77, 0
2, 6984, Note_on_c, 0, 85, 91
2, 6984, Note_on_c, 0, 82, 90
2, 6984, Note_on_c, 0, 77, 87
2, 6984, Note_on_c, 0, 73, 86
2, 6994, Note_on_c, 0, 73, 0
2, 6994, Note_on_c, 0, 85, 0
2, 6994, Note_on_c, 0, 82, 0
2, 6994, Note_on_c, 0, 77, 0
2, 7008, Note_on_c, 0, 84, 94
2, 7008, Note_on_c, 0, 77, 91
2, 7008, Note_on_c, 0, 72, 89
2, 7018, Note_on_c, 0, 72, 0
2, 7018, Note_on_c, 0, 77, 0
2, 7018, Note_on_c, 0, 84, 0
2, 7032, Note_on_c, 0, 82, 95
2, 7032, Note_on_c, 0, 77, 92
2, 7032, Note_on_c, 0, 73, 89
2, 7032, Note_on_c, 0, 70, 86
2, 7042, Note_on_c, 0, 70, 0
2, 7042, Note_on_c, 0, 82, 0
2, 7042, Note_on_c, 0, 77, 0
2, 7042, Note_on_c, 0, 73, 0
2, 7056, Note_on_c, 0, 85, 99
2, 7056, Note_on_c, 0, 82, 96
2, 7056, Note_on_c, 0, 77, 94
2, 7056, Note_on_c, 0, 73, 90
2, 7066, Note_on_c, 0, 73, 0
2, 7066, Note_on_c, 0, 85, 0
2, 7066, Note_on_c, 0, 82, 0
2, 7066, Note_on_c, 0, 77, 0
2, 7080, Note_on_c, 0, 84, 95
2, 7080, Note_on_c, 0, 77, 93
2, 7080, Note_on_c, 0, 72, 92
2, 7090, Note_on_c, 0, 72, 0
2, 7090, Note_on_c, 0, 77, 0
2, 7090, Note_on_c, 0, 84, 0
2, 7104, Note_on_c, 0, 77, 91
2, 7104, Note_on_c, 0, 72, 88
2, 7104, Note_on_c, 0, 69, 86
2, 7104, Note_on_c, 0, 65, 84
2, 7114, Note_on_c, 0, 65, 0
2, 7114, Note_on_c, 0, 77, 0
2, 7114, Note_on_c, 0, 72, 0
2, 7114, Note_on_c, 0, 69, 0
2, 7128, Note_on_c, 0, 89, 101
2, 7128, Note_on_c, 0, 77, 101
2, 7138, Note_on_c, 0, 77, 0
2, 7138, Note_on_c, 0, 89, 0
2, 7152, Note_on_c, 0, 85, 97
2, 7152, Note_on_c, 0, 82, 88
2, 7152, Note_on_c, 0, 73, 95
2, 7162, Note_on_c, 0, 73, 0
2, 7162, Note_on_c, 0, 82, 0
2, 7162, Note_on_c, 0, 85, 0
2, 7176, Note_on_c, 0, 84, 102
2, 7176, Note_on_c, 0, 81, 101
2, 7176, Note_on_c, 0, 72, 98
2, 7221, Note_on_c, 0, 72, 0
2, 7221, Note_on_c, 0, 81, 0
2, 7221, Note_on_c, 0, 84, 0
2, 7224, Note_on_c, 0, 89, 109
2, 7224, Note_on_c, 0, 77, 105
2, 7234, Note_on_c, 0, 77, 0
2, 7234, Note_on_c, 0, 89, 0
2, 7248, Note_on_c, 0, 85, 101
2, 7248, Note_on_c, 0, 82, 98
2, 7258, Note_on_c, 0, 82, 0
2, 7258, Note_on_c, 0, 85, 0
2, 7272, Note_on_c, 0, 84, 104
2, 7272, Note_on_c, 0, 81, 101
2, 7317, Note_on_c, 0, 81, 0
2, 7317, Note_on_c, 0, 84, 0
2, 7320, Note_on_c, 0, 72, 99
2, 7320, Note_on_c, 0, 69, 97
2, 7365, Note_on_c, 0, 69, 0
2, 7365, Note_on_c, 0, 72, 0
2, 7368, Note_on_c, 0, 60, 103
2, 7368, Note_on_c, 0, 57, 100
2, 7413, Note_on_c, 0, 57, 0
2, 7413, Note_on_c, 0, 60, 0
2, 7416, Note_on_c, 0, 48, 107
2, 7416, Note_on_c, 0, 45, 104
2, 7461, Note_on_c, 0, 45, 0
2, 7461, Note_on_c, 0, 48, 0
2, 7464, Note_on_c, 0, 36, 111
2, 7464, Note_on_c, 0, 33, 108
2, 7602, Note_on_c, 0, 33, 0
2, 7602, Note_on_c, 0, 36, 0
2, 7650, Note_on_c, 0, 41, 76
2, 7656, Note_on_c, 0, 43, 76
2, 7659, Note_on_c, 0, 41, 0
2, 7662, Note_on_c, 0, 45, 77
2, 7665, Note_on_c, 0, 43, 0
2, 7668, Note_on_c, 0, 46, 78
2, 7671, Note_on_c, 0, 45, 0
2, 7674, Note_on_c, 0, 48, 79
2, 7677, Note_on_c, 0, 46, 0
2, 7680, Note_on_c, 0, 50, 81
2, 7683, Note_on_c, 0, 48, 0
2, 7686, Note_on_c, 0, 52, 83
2, 7689, Note_on_c, 0, 50, 0
2, 7695, Note_on_c, 0, 52, 0
2, 7734, Note_on_c, 0, 65, 90
2, 7740, Note_on_c, 0, 67, 90
2, 7743, Note_on_c, 0, 65, 0
2, 7746, Note_on_c, 0, 69, 90
2, 7749, Note_on_c, 0, 67, 0
2, 7752, Note_on_c, 0, 70, 92
2, 7755, Note_on_c, 0, 69, 0
2, 7758, Note_on_c, 0, 72, 91
2, 7761, Note_on_c, 0, 70, 0
2, 7764, Note_on_c, 0, 74, 92
2, 7767, Note_on_c, 0, 72, 0
2, 7770, Note_on_c, 0, 76, 93
2, 7773, Note_on_c, 0, 74, 0
2, 7779, Note_on_c, 0, 76, 0
2, 7818, Note_on_c, 0, 89, 88
2, 7824, Note_on_c, 0, 91, 91
2, 7827, Note_on_c, 0, 89, 0
2, 7830, Note_on_c, 0, 93, 94
2, 7833, Note_on_c, 0, 91, 0
2, 7836, Note_on_c, 0, 94, 96
2, 7839, Note_on_c, 0, 93, 0
2, 7842, Note_on_c, 0, 96, 98
2, 7845, Note_on_c, 0, 94, 0
2, 7848, Note_on_c, 0, 98, 102
2, 7851, Note_on_c, 0, 96, 0
2, 7854, Note_on_c, 0, 100, 105
2, 7857, Note_on_c, 0, 98, 0
2, 7860, Note_on_c, 0, 101, 109
2, 7863, Note_on_c, 0, 100, 0
2, 7869, Note_on_c, 0, 101, 0
2, 7890, Note_on_c, 0, 78, 86
2, 7890, Note_on_c, 0, 75, 84
2, 7896, Note_on_c, 0, 69, 77
2, 7899, Note_on_c, 0, 75, 0
2, 7899, Note_on_c, 0, 78, 0
2, 7902, Note_on_c, 0, 78, 80
2, 7902, Note_on_c, 0, 75, 77
2, 7905, Note_on_c, 0, 69, 0
2, 7908, Note_on_c, 0, 69, 70
2, 7911, Note_on_c, 0, 75, 0
2, 7911, Note_on_c, 0, 78, 0
2, 7914, Note_on_c, 0, 78, 78
2, 7914, Note_on_c, 0, 75, 74
2, 7917, Note_on_c, 0, 69, 0
2, 7920, Note_on_c, 0, 69, 69
2, 7923, Note_on_c, 0, 75, 0
2, 7923, Note_on_c, 0, 78, 0
2, 7926, Note_on_c, 0, 78, 79
2, 7926, Note_on_c, 0, 75, 75
2, 7929, Note_on_c, 0, 69, 0
2, 7932, Note_on_c, 0, 69, 70
2, 7935, Note_on_c, 0, 75, 0
2, 7935, Note_on_c, 0, 78, 0
2, 7938, Note_on_c, 0, 78, 80
2, 7938, Note_on_c, 0, 75, 76
2, 7941, Note_on_c, 0, 69, 0
2, 7944, Note_on_c, 0, 69, 69
2, 7947, Note_on_c, 0, 75, 0
2, 7947, Note_on_c, 0, 78, 0
2, 7950, Note_on_c, 0, 78, 86
2, 7950, Note_on_c, 0, 75, 83
2, 7953, Note_on_c, 0, 69, 0
2, 7956, Note_on_c, 0, 69, 76
2, 7959, Note_on_c, 0, 75, 0
2, 7959, Note_on_c, 0, 78, 0
2, 7963, Note_on_c, 0, 69, 0
2, 8034, Note_on_c, 0, 74, 45
2, 8050, Note_on_c, 0, 74, 0
2, 8052, Note_on_c, 0, 77, 54
2, 8052, Note_on_c, 0, 69, 50
2, 8057, Note_on_c, 0, 69, 0
2, 8057, Note_on_c, 0, 77, 0
2, 8058, Note_on_c, 0, 77, 60
2, 8058, Note_on_c, 0, 72, 57
2, 8080, Note_on_c, 0, 72, 0
2, 8080, Note_on_c, 0, 77, 0
2, 8082, Note_on_c, 0, 74, 50
2, 8082, Note_on_c, 0, 65, 46
2, 8088, Note_on_c, 0, 65, 0
2, 8088, Note_on_c, 0, 74, 0
2, 8106, Note_on_c, 0, 70, 48
2, 8122, Note_on_c, 0, 70, 0
2, 8124, Note_on_c, 0, 74, 54
2, 8124, Note_on_c, 0, 66, 52
2, 8129, Note_on_c, 0, 66, 0
2, 8129, Note_on_c, 0, 74, 0
2, 8130, Note_on_c, 0, 74, 58
2, 8130, Note_on_c, 0, 69, 55
2, 8152, Note_on_c, 0, 69, 0
2, 8152, Note_on_c, 0, 74, 0
2, 8154, Note_on_c, 0, 70, 49
2, 8154, Note_on_c, 0, 62, 47
2, 8160, Note_on_c, 0, 62, 0
2, 8160, Note_on_c, 0, 70, 0
2, 8178, Note_on_c, 0, 67, 48
2, 8194, Note_on_c, 0, 67, 0
2, 8196, Note_on_c, 0, 70, 56
2, 8196, Note_on_c, 0, 62, 54
2, 8201, Note_on_c, 0, 62, 0
2, 8201, Note_on_c, 0, 70, 0
2, 8202, Note_on_c, 0, 70, 60
2, 8202, Note_on_c, 0, 65, 56
2, 8224, Note_on_c, 0, 65, 0
2, 8224, Note_on_c, 0, 70, 0
2, 8226, Note_on_c, 0, 67, 50
2, 8226, Note_on_c, 0, 58, 48
2, 8232, Note_on_c, 0, 58, 0
2, 8232, Note_on_c, 0, 67, 0
2, 8250, Note_on_c, 0, 67, 47
2, 8250, Note_on_c, 0, 58, 45
2, 8266, Note_on_c, 0, 58, 0
2, 8266, Note_on_c, 0, 67, 0
2, 8268, Note_on_c, 0, 69, 54
2, 8268, Note_on_c, 0, 63, 52
2, 8273, Note_on_c, 0, 63, 0
2, 8273, Note_on_c, 0, 69, 0
2, 8274, Note_on_c, 0, 69, 59
2, 8274, Note_on_c, 0, 63, 57
2, 8296, Note_on_c, 0, 63, 0
2, 8296, Note_on_c, 0, 69, 0
2, 8298, Note_on_c, 0, 70, 51
2, 8298, Note_on_c, 0, 58, 49
2, 8304, Note_on_c, 0, 58, 0
2, 8304, Note_on_c, 0, 70, 0
2, 8322, Note_on_c, 0, 70, 51
2, 8322, Note_on_c, 0, 65, 48
2, 8338, Note_on_c, 0, 70, 0
2, 8340, Note_on_c, 0, 72, 59
2, 8344, Note_on_c, 0, 65, 0
2, 8345, Note_on_c, 0, 72, 0
2, 8346, Note_on_c, 0, 72, 63
2, 8346, Note_on_c, 0, 65, 61
2, 8368, Note_on_c, 0, 72, 0
2, 8370, Note_on_c, 0, 74, 54
2, 8370, Note_on_c, 0, 70, 51
2, 8376, Note_on_c, 0, 70, 0
2, 8376, Note_on_c, 0, 74, 0
2, 8376, Note_on_c, 0, 65, 0
2, 8394, Note_on_c, 0, 74, 70
2, 8394, Note_on_c, 0, 70, 67
2, 8410, Note_on_c, 0, 74, 0
2, 8412, Note_on_c, 0, 75, 76
2, 8416, Note_on_c, 0, 70, 0
2, 8417, Note_on_c, 0, 75, 0
2, 8418, Note_on_c, 0, 75, 82
2, 8418, Note_on_c, 0, 70, 81
2, 8418, Note_on_c, 0, 63, 78
2, 8440, Note_on_c, 0, 63, 0
2, 8440, Note_on_c, 0, 70, 0
2, 8440, Note_on_c, 0, 75, 0
2, 8442, Note_on_c, 0, 77, 95
2, 8442, Note_on_c, 0, 73, 92
2, 8442, Note_on_c, 0, 70, 92
2, 8442, Note_on_c, 0, 65, 91
2, 8448, Note_on_c, 0, 65, 0
2, 8448, Note_on_c, 0, 77, 0
2, 8448, Note_on_c, 0, 73, 0
2, 8448, Note_on_c, 0, 70, 0
2, 8466, Note_on_c, 0, 79, 101
2, 8466, Note_on_c, 0, 72, 100
2, 8466, Note_on_c, 0, 70, 99
2, 8466, Note_on_c, 0, 67, 96
2, 8476, Note_on_c, 0, 67, 0
2, 8476, Note_on_c, 0, 79, 0
2, 8476, Note_on_c, 0, 72, 0
2, 8476, Note_on_c, 0, 70, 0
2, 8490, Note_on_c, 0, 72, 104
2, 8490, Note_on_c, 0, 69, 103
2, 8490, Note_on_c, 0, 60, 102
2, 8500, Note_on_c, 0, 60, 0
2, 8500, Note_on_c, 0, 69, 0
2, 8500, Note_on_c, 0, 72, 0
2, 8538, Note_on_c, 0, 86, 47
2, 8554, Note_on_c, 0, 86, 0
2, 8556, Note_on_c, 0, 89, 55
2, 8556, Note_on_c, 0, 81, 53
2, 8561, Note_on_c, 0, 81, 0
2, 8561, Note_on_c, 0, 89, 0
2, 8562, Note_on_c, 0, 89, 62
2, 8574, Note_on_c, 0, 77, 40
2, 8584, Note_on_c, 0, 89, 0
2, 8586, Note_on_c, 0, 86, 49
2, 8596, Note_on_c, 0, 86, 0
2, 8596, Note_on_c, 0, 77, 0
2, 8610, Note_on_c, 0, 82, 54
2, 8626, Note_on_c, 0, 82, 0
2, 8628, Note_on_c, 0, 86, 59
2, 8628, Note_on_c, 0, 78, 57
2, 8633, Note_on_c, 0, 78, 0
2, 8633, Note_on_c, 0, 86, 0
2, 8634, Note_on_c, 0, 86, 66
2, 8646, Note_on_c, 0, 74, 43
2, 8656, Note_on_c, 0, 86, 0
2, 8658, Note_on_c, 0, 82, 49
2, 8668, Note_on_c, 0, 82, 0
2, 8668, Note_on_c, 0, 74, 0
2, 8682, Note_on_c, 0, 79, 51
2, 8698, Note_on_c, 0, 79, 0
2, 8700, Note_on_c, 0, 82, 58
2, 8700, Note_on_c, 0, 74, 55
2, 8705, Note_on_c, 0, 74, 0
2, 8705, Note_on_c, 0, 82, 0
2, 8706, Note_on_c, 0, 82, 64
2, 8718, Note_on_c, 0, 70, 44
2, 8728, Note_on_c, 0, 82, 0
2, 8730, Note_on_c, 0, 79, 53
2, 8740, Note_on_c, 0, 79, 0
2, 8740, Note_on_c, 0, 70, 0
2, 8754, Note_on_c, 0, 79, 48
2, 8754, Note_on_c, 0, 70, 45
2, 8770, Note_on_c, 0, 70, 0
2, 8770, Note_on_c, 0, 79, 0
2, 8772, Note_on_c, 0, 81, 55
2, 8772, Note_on_c, 0, 75, 54
2, 8777, Note_on_c, 0, 75, 0
2, 8777, Note_on_c, 0, 81, 0
2, 8778, Note_on_c, 0, 81, 66
2, 8790, Note_on_c, 0, 75, 48
2, 8800, Note_on_c, 0, 75, 0
2, 8800, Note_on_c, 0, 81, 0
2, 8802, Note_on_c, 0, 82, 54
2, 8802, Note_on_c, 0, 70, 52
2, 8812, Note_on_c, 0, 70, 0
2, 8812, Note_on_c, 0, 82, 0
2, 8826, Note_on_c, 0, 82, 74
2, 8826, Note_on_c, 0, 77, 71
2, 8842, Note_on_c, 0, 82, 0
2, 8844, Note_on_c, 0, 84, 81
2, 8848, Note_on_c, 0, 77, 0
2, 8849, Note_on_c, 0, 84, 0
2, 8850, Note_on_c, 0, 84, 92
2, 8862, Note_on_c, 0, 77, 69
2, 8872, Note_on_c, 0, 84, 0
2, 8874, Note_on_c, 0, 86, 83
2, 8884, Note_on_c, 0, 86, 0
2, 8884, Note_on_c, 0, 77, 0
2, 8898, Note_on_c, 0, 87, 94
2, 8898, Note_on_c, 0, 82, 92
2, 8914, Note_on_c, 0, 87, 0
2, 8916, Note_on_c, 0, 88, 100
2, 8920, Note_on_c, 0, 82, 0
2, 8921, Note_on_c, 0, 88, 0
2, 8922, Note_on_c, 0, 88, 106
2, 8934, Note_on_c, 0, 82, 94
2, 8944, Note_on_c, 0, 82, 0
2, 8944, Note_on_c, 0, 88, 0
2, 8946, Note_on_c, 0, 89, 108
2, 8946, Note_on_c, 0, 81, 106
2, 8956, Note_on_c, 0, 81, 0
2, 8956, Note_on_c, 0, 89, 0
2, 8970, Note_on_c, 0, 91, 107
2, 8970, Note_on_c, 0, 88, 105
2, 8970, Note_on_c, 0, 82, 104
2, 8970, Note_on_c, 0, 79, 103
2, 8980, Note_on_c, 0, 79, 0
2, 8980, Note_on_c, 0, 91, 0
2, 8980, Note_on_c, 0, 88, 0
2, 8980, Note_on_c, 0, 82, 0
2, 8994, Note_on_c, 0, 89, 113
2, 8994, Note_on_c, 0, 81, 111
2, 8994, Note_on_c, 0, 77, 109
2, 9004, Note_on_c, 0, 77, 0
2, 9004, Note_on_c, 0, 81, 0
2, 9004, Note_on_c, 0, 89, 0
2, 9042, Note_on_c, 0, 74, 47
2, 9042, Note_on_c, 0, 71, 45
2, 9058, Note_on_c, 0, 71, 0
2, 9058, Note_on_c, 0, 74, 0
2, 9060, Note_on_c, 0, 77, 42
2, 9060, Note_on_c, 0, 74, 37
2, 9065, Note_on_c, 0, 74, 0
2, 9065, Note_on_c, 0, 77, 0
2, 9066, Note_on_c, 0, 77, 49
2, 9066, Note_on_c, 0, 74, 46
2, 9088, Note_on_c, 0, 74, 0
2, 9088, Note_on_c, 0, 77, 0
2, 9090, Note_on_c, 0, 74, 41
2, 9090, Note_on_c, 0, 71, 40
2, 9100, Note_on_c, 0, 71, 0
2, 9100, Note_on_c, 0, 74, 0
2, 9114, Note_on_c, 0, 74, 47
2, 9114, Note_on_c, 0, 71, 45
2, 9130, Note_on_c, 0, 71, 0
2, 9130, Note_on_c, 0, 74, 0
2, 9132, Note_on_c, 0, 79, 39
2, 9132, Note_on_c, 0, 75, 35
2, 9137, Note_on_c, 0, 75, 0
2, 9137, Note_on_c, 0, 79, 0
2, 9138, Note_on_c, 0, 79, 45
2, 9138, Note_on_c, 0, 75, 42
2, 9160, Note_on_c, 0, 75, 0
2, 9160, Note_on_c, 0, 79, 0
2, 9162, Note_on_c, 0, 75, 40
2, 9162, Note_on_c, 0, 72, 37
2, 9172, Note_on_c, 0, 72, 0
2, 9172, Note_on_c, 0, 75, 0
2, 9186, Note_on_c, 0, 72, 47
2, 9186, Note_on_c, 0, 69, 44
2, 9202, Note_on_c, 0, 69, 0
2, 9202, Note_on_c, 0, 72, 0
2, 9204, Note_on_c, 0, 75, 40
2, 9204, Note_on_c, 0, 72, 38
2, 9209, Note_on_c, 0, 72, 0
2, 9209, Note_on_c, 0, 75, 0
2, 9210, Note_on_c, 0, 75, 45
2, 9210, Note_on_c, 0, 72, 42
2, 9222, Note_on_c, 0, 63, 31
2, 9232, Note_on_c, 0, 72, 0
2, 9232, Note_on_c, 0, 75, 0
2, 9234, Note_on_c, 0, 72, 38
2, 9234, Note_on_c, 0, 69, 35
2, 9244, Note_on_c, 0, 69, 0
2, 9244, Note_on_c, 0, 72, 0
2, 9244, Note_on_c, 0, 63, 0
2, 9258, Note_on_c, 0, 72, 46
2, 9258, Note_on_c, 0, 69, 44
2, 9274, Note_on_c, 0, 69, 0
2, 9274, Note_on_c, 0, 72, 0
2, 9276, Note_on_c, 0, 77, 41
2, 9276, Note_on_c, 0, 73, 37
2, 9281, Note_on_c, 0, 73, 0
2, 9281, Note_on_c, 0, 77, 0
2, 9282, Note_on_c, 0, 77, 51
2, 9282, Note_on_c, 0, 74, 49
2, 9294, Note_on_c, 0, 65, 33
2, 9304, Note_on_c, 0, 74, 0
2, 9304, Note_on_c, 0, 77, 0
2, 9306, Note_on_c, 0, 74, 39
2, 9306, Note_on_c, 0, 70, 38
2, 9316, Note_on_c, 0, 70, 0
2, 9316, Note_on_c, 0, 74, 0
2, 9316, Note_on_c, 0, 65, 0
2, 9330, Note_on_c, 0, 60, 39
2, 9330, Note_on_c, 0, 57, 36
2, 9346, Note_on_c, 0, 57, 0
2, 9346, Note_on_c, 0, 60, 0
2, 9348, Note_on_c, 0, 63, 42
2, 9348, Note_on_c, 0, 60, 41
2, 9353, Note_on_c, 0, 60, 0
2, 9353, Note_on_c, 0, 63, 0
2, 9354, Note_on_c, 0, 63, 45
2, 9354, Note_on_c, 0, 60, 43
2, 9399, Note_on_c, 0, 60, 0
2, 9399, Note_on_c, 0, 63, 0
2, 9402, Note_on_c, 0, 62, 41
2, 9402, Note_on_c, 0, 58, 38
2, 9424, Note_on_c, 0, 58, 0
2, 9424, Note_on_c, 0, 62, 0
2, 9426, Note_on_c, 0, 60, 40
2, 9426, Note_on_c, 0, 57, 39
2, 9448, Note_on_c, 0, 57, 0
2, 9448, Note_on_c, 0, 60, 0
2, 9450, Note_on_c, 0, 58, 39
2, 9450, Note_on_c, 0, 55, 37
2, 9472, Note_on_c, 0, 55, 0
2, 9472, Note_on_c, 0, 58, 0
2, 9474, Note_on_c, 0, 57, 36
2, 9474, Note_on_c, 0, 53, 34
2, 9520, Note_on_c, 0, 53, 0
2, 9520, Note_on_c, 0, 57, 0
2, 9522, Note_on_c, 0, 55, 34
2, 9522, Note_on_c, 0, 52, 32
2, 9544, Note_on_c, 0, 52, 0
2, 9544, Note_on_c, 0, 55, 0
2, 9546, Note_on_c, 0, 60, 34
2, 9546, Note_on_c, 0, 55, 33
2, 9546, Note_on_c, 0, 51, 32
2, 9592, Note_on_c, 0, 51, 0
2, 9592, Note_on_c, 0, 60, 0
2, 9594, Note_on_c, 0, 59, 30
2, 9594, Note_on_c, 0, 50, 29
2, 9615, Note_on_c, 0, 55, 0
2, 9616, Note_on_c, 0, 50, 0
2, 9616, Note_on_c, 0, 59, 0
2, 9690, Note_on_c, 0, 59, 30
2, 9706, Note_on_c, 0, 59, 0
2, 9708, Note_on_c, 0, 62, 34
2, 9713, Note_on_c, 0, 62, 0
2, 9714, Note_on_c, 0, 62, 36
2, 9736, Note_on_c, 0, 62, 0
2, 9738, Note_on_c, 0, 59, 26
2, 9748, Note_on_c, 0, 59, 0
2, 9762, Note_on_c, 0, 71, 41
2, 9762, Note_on_c, 0, 62, 36
2, 9778, Note_on_c, 0, 71, 0
2, 9780, Note_on_c, 0, 74, 46
2, 9785, Note_on_c, 0, 74, 0
2, 9786, Note_on_c, 0, 74, 50
2, 9796, Note_on_c, 0, 62, 0
2, 9798, Note_on_c, 0, 62, 41
2, 9808, Note_on_c, 0, 74, 0
2, 9810, Note_on_c, 0, 71, 56
2, 9815, Note_on_c, 0, 71, 0
2, 9820, Note_on_c, 0, 62, 0
2, 9834, Note_on_c, 0, 84, 42
2, 9850, Note_on_c, 0, 84, 0
2, 9852, Note_on_c, 0, 87, 50
2, 9857, Note_on_c, 0, 87, 0
2, 9858, Note_on_c, 0, 87, 51
2, 9880, Note_on_c, 0, 87, 0
2, 9882, Note_on_c, 0, 84, 41
2, 9892, Note_on_c, 0, 84, 0
2, 9906, Note_on_c, 0, 71, 47
2, 9906, Note_on_c, 0, 62, 46
2, 9922, Note_on_c, 0, 62, 0
2, 9922, Note_on_c, 0, 71, 0
2, 9924, Note_on_c, 0, 74, 54
2, 9924, Note_on_c, 0, 65, 53
2, 9929, Note_on_c, 0, 65, 0
2, 9929, Note_on_c, 0, 74, 0
2, 9930, Note_on_c, 0, 74, 60
2, 9930, Note_on_c, 0, 65, 58
2, 9952, Note_on_c, 0, 65, 0
2, 9952, Note_on_c, 0, 74, 0
2, 9954, Note_on_c, 0, 71, 54
2, 9954, Note_on_c, 0, 62, 52
2, 9964, Note_on_c, 0, 62, 0
2, 9964, Note_on_c, 0, 71, 0
2, 9978, Note_on_c, 0, 71, 73
2, 9978, Note_on_c, 0, 62, 69
2, 9994, Note_on_c, 0, 62, 0
2, 9994, Note_on_c, 0, 71, 0
2, 9996, Note_on_c, 0, 75, 79
2, 9996, Note_on_c, 0, 67, 76
2, 10001, Note_on_c, 0, 67, 0
2, 10001, Note_on_c, 0, 75, 0
2, 10002, Note_on_c, 0, 75, 88
2, 10002, Note_on_c, 0, 67, 86
2, 10024, Note_on_c, 0, 67, 0
2, 10024, Note_on_c, 0, 75, 0
2, 10026, Note_on_c, 0, 72, 82
2, 10026, Note_on_c, 0, 63, 80
2, 10036, Note_on_c, 0, 63, 0
2, 10036, Note_on_c, 0, 72, 0
2, 10050, Note_on_c, 0, 72, 98
2, 10050, Note_on_c, 0, 69, 95
2, 10066, Note_on_c, 0, 69, 0
2, 10066, Note_on_c, 0, 72, 0
2, 10068, Note_on_c, 0, 81, 103
2, 10068, Note_on_c, 0, 72, 99
2, 10073, Note_on_c, 0, 72, 0
2, 10073, Note_on_c, 0, 81, 0
2, 10074, Note_on_c, 0, 81, 103
2, 10074, Note_on_c, 0, 72, 101
2, 10096, Note_on_c, 0, 72, 0
2, 10096, Note_on_c, 0, 81, 0
2, 10098, Note_on_c, 0, 77, 101
2, 10098, Note_on_c, 0, 69, 98
2, 10108, Note_on_c, 0, 69, 0
2, 10108, Note_on_c, 0, 77, 0
2, 10122, Note_on_c, 0, 82, 109
2, 10122, Note_on_c, 0, 70, 107
2, 10132, Note_on_c, 0, 70, 0
2, 10132, Note_on_c, 0, 82, 0
2, 10146, Note_on_c, 0, 82, 112
2, 10146, Note_on_c, 0, 70, 111
2, 10156, Note_on_c, 0, 70, 0
2, 10156, Note_on_c, 0, 82, 0
2, 10194, Note_on_c, 0, 86, 43
2, 10194, Note_on_c, 0, 83, 39
2, 10210, Note_on_c, 0, 83, 0
2, 10210, Note_on_c, 0, 86, 0
2, 10212, Note_on_c, 0, 89, 38
2, 10212, Note_on_c, 0, 86, 33
2, 10217, Note_on_c, 0, 86, 0
2, 10217, Note_on_c, 0, 89, 0
2, 10218, Note_on_c, 0, 89, 47
2, 10218, Note_on_c, 0, 86, 45
2, 10240, Note_on_c, 0, 86, 0
2, 10240, Note_on_c, 0, 89, 0
2, 10242, Note_on_c, 0, 86, 40
2, 10242, Note_on_c, 0, 83, 37
2, 10252, Note_on_c, 0, 83, 0
2, 10252, Note_on_c, 0, 86, 0
2, 10266, Note_on_c, 0, 86, 49
2, 10266, Note_on_c, 0, 83, 46
2, 10282, Note_on_c, 0, 83, 0
2, 10282, Note_on_c, 0, 86, 0
2, 10284, Note_on_c, 0, 91, 44
2, 10284, Note_on_c, 0, 87, 42
2, 10289, Note_on_c, 0, 87, 0
2, 10289, Note_on_c, 0, 91, 0
2, 10290, Note_on_c, 0, 91, 53
2, 10290, Note_on_c, 0, 87, 50
2, 10312, Note_on_c, 0, 87, 0
2, 10312, Note_on_c, 0, 91, 0
2, 10314, Note_on_c, 0, 87, 45
2, 10314, Note_on_c, 0, 84, 44
2, 10324, Note_on_c, 0, 84, 0
2, 10324, Note_on_c, 0, 87, 0
2, 10338, Note_on_c, 0, 84, 46
2, 10338, Note_on_c, 0, 81, 43
2, 10354, Note_on_c, 0, 81, 0
2, 10354, Note_on_c, 0, 84, 0
2, 10356, Note_on_c, 0, 87, 40
2, 10356, Note_on_c, 0, 84, 37
2, 10361, Note_on_c, 0, 84, 0
2, 10361, Note_on_c, 0, 87, 0
2, 10362, Note_on_c, 0, 87, 52
2, 10362, Note_on_c, 0, 84, 50
2, 10374, Note_on_c, 0, 75, 34
2, 10384, Note_on_c, 0, 84, 0
2, 10384, Note_on_c, 0, 87, 0
2, 10386, Note_on_c, 0, 84, 43
2, 10386, Note_on_c, 0, 81, 42
2, 10396, Note_on_c, 0, 81, 0
2, 10396, Note_on_c, 0, 84, 0
2, 10396, Note_on_c, 0, 75, 0
2, 10410, Note_on_c, 0, 84, 45
2, 10410, Note_on_c, 0, 81, 42
2, 10426, Note_on_c, 0, 81, 0
2, 10426, Note_on_c, 0, 84, 0
2, 10428, Note_on_c, 0, 89, 42
2, 10428, Note_on_c, 0, 85, 36
2, 10433, Note_on_c, 0, 85, 0
2, 10433, Note_on_c, 0, 89, 0
2, 10434, Note_on_c, 0, 89, 50
2, 10434, Note_on_c, 0, 86, 47
2, 10446, Note_on_c, 0, 77, 32
2, 10456, Note_on_c, 0, 86, 0
2, 10456, Note_on_c, 0, 89, 0
2, 10458, Note_on_c, 0, 86, 40
2, 10458, Note_on_c, 0, 82, 38
2, 10468, Note_on_c, 0, 82, 0
2, 10468, Note_on_c, 0, 86, 0
2, 10468, Note_on_c, 0, 77, 0
2, 10482, Note_on_c, 0, 72, 42
2, 10482, Note_on_c, 0, 69, 40
2, 10498, Note_on_c, 0, 69, 0
2, 10498, Note_on_c, 0, 72, 0
2, 10500, Note_on_c, 0, 75, 35
2, 10500, Note_on_c, 0, 72, 32
2, 10505, Note_on_c, 0, 72, 0
2, 10505, Note_on_c, 0, 75, 0
2, 10506, Note_on_c, 0, 75, 42
2, 10506, Note_on_c, 0, 72, 40
2, 10551, Note_on_c, 0, 72, 0
2, 10551, Note_on_c, 0, 75, 0
2, 10554, Note_on_c, 0, 74, 40
2, 10554, Note_on_c, 0, 70, 37
2, 10576, Note_on_c, 0, 70, 0
2, 10576, Note_on_c, 0, 74, 0
2, 10578, Note_on_c, 0, 72, 38
2, 10578, Note_on_c, 0, 69, 36
2, 10600, Note_on_c, 0, 69, 0
2, 10600, Note_on_c, 0, 72, 0
2, 10602, Note_on_c, 0, 70, 36
2, 10602, Note_on_c, 0, 67, 34
2, 10624, Note_on_c, 0, 67, 0
2, 10624, Note_on_c, 0, 70, 0
2, 10626, Note_on_c, 0, 69, 33
2, 10626, Note_on_c, 0, 65, 31
2, 10672, Note_on_c, 0, 65, 0
2, 10672, Note_on_c, 0, 69, 0
2, 10674, Note_on_c, 0, 67, 32
2, 10674, Note_on_c, 0, 64, 30
2, 10696, Note_on_c, 0, 64, 0
2, 10696, Note_on_c, 0, 67, 0
2, 10698, Note_on_c, 0, 72, 37
2, 10698, Note_on_c, 0, 67, 35
2, 10698, Note_on_c, 0, 63, 33
2, 10744, Note_on_c, 0, 63, 0
2, 10744, Note_on_c, 0, 72, 0
2, 10746, Note_on_c, 0, 71, 30
2, 10746, Note_on_c, 0, 62, 28
2, 10766, Note_on_c, 0, 67, 0
2, 10768, Note_on_c, 0, 62, 0
2, 10768, Note_on_c, 0, 71, 0
2, 10842, Note_on_c, 0, 71, 26
2, 10858, Note_on_c, 0, 71, 0
2, 10860, Note_on_c, 0, 74, 28
2, 10865, Note_on_c, 0, 74, 0
2, 10866, Note_on_c, 0, 74, 31
2, 10888, Note_on_c, 0, 74, 0
2, 10890, Note_on_c, 0, 71, 23
2, 10896, Note_on_c, 0, 71, 0
2, 10914, Note_on_c, 0, 59, 36
2, 10914, Note_on_c, 0, 50, 33
2, 10930, Note_on_c, 0, 59, 0
2, 10932, Note_on_c, 0, 62, 41
2, 10937, Note_on_c, 0, 62, 0
2, 10938, Note_on_c, 0, 62, 46
2, 10948, Note_on_c, 0, 50, 0
2, 10950, Note_on_c, 0, 50, 28
2, 10960, Note_on_c, 0, 62, 0
2, 10962, Note_on_c, 0, 59, 35
2, 10972, Note_on_c, 0, 59, 0
2, 10972, Note_on_c, 0, 50, 0
2, 10986, Note_on_c, 0, 84, 38
2, 11002, Note_on_c, 0, 84, 0
2, 11004, Note_on_c, 0, 87, 43
2, 11009, Note_on_c, 0, 87, 0
2, 11010, Note_on_c, 0, 87, 46
2, 11032, Note_on_c, 0, 87, 0
2, 11034, Note_on_c, 0, 84, 37
2, 11040, Note_on_c, 0, 84, 0
2, 11058, Note_on_c, 0, 83, 44
2, 11058, Note_on_c, 0, 74, 38
2, 11074, Note_on_c, 0, 74, 0
2, 11074, Note_on_c, 0, 83, 0
2, 11076, Note_on_c, 0, 86, 49
2, 11076, Note_on_c, 0, 77, 46
2, 11081, Note_on_c, 0, 77, 0
2, 11081, Note_on_c, 0, 86, 0
2, 11082, Note_on_c, 0, 86, 55
2, 11082, Note_on_c, 0, 77, 51
2, 11104, Note_on_c, 0, 77, 0
2, 11104, Note_on_c, 0, 86, 0
2, 11106, Note_on_c, 0, 83, 44
2, 11106, Note_on_c, 0, 74, 43
2, 11116, Note_on_c, 0, 74, 0
2, 11116, Note_on_c, 0, 83, 0
2, 11130, Note_on_c, 0, 83, 65
2, 11130, Note_on_c, 0, 74, 63
2, 11146, Note_on_c, 0, 74, 0
2, 11146, Note_on_c, 0, 83, 0
2, 11148, Note_on_c, 0, 87, 70
2, 11148, Note_on_c, 0, 79, 68
2, 11153, Note_on_c, 0, 79, 0
2, 11153, Note_on_c, 0, 87, 0
2, 11154, Note_on_c, 0, 87, 80
2, 11154, Note_on_c, 0, 79, 78
2, 11176, Note_on_c, 0, 79, 0
2, 11176, Note_on_c, 0, 87, 0
2, 11178, Note_on_c, 0, 84, 86
2, 11178, Note_on_c, 0, 75, 85
2, 11188, Note_on_c, 0, 75, 0
2, 11188, Note_on_c, 0, 84, 0
2, 11202, Note_on_c, 0, 84, 88
2, 11202, Note_on_c, 0, 81, 85
2, 11218, Note_on_c, 0, 81, 0
2, 11218, Note_on_c, 0, 84, 0
2, 11220, Note_on_c, 0, 93, 80
2, 11220, Note_on_c, 0, 84, 77
2, 11225, Note_on_c, 0, 84, 0
2, 11225, Note_on_c, 0, 93, 0
2, 11226, Note_on_c, 0, 93, 93
2, 11226, Note_on_c, 0, 84, 91
2, 11248, Note_on_c, 0, 84, 0
2, 11248, Note_on_c, 0, 93, 0
2, 11250, Note_on_c, 0, 89, 99
2, 11250, Note_on_c, 0, 81, 96
2, 11260, Note_on_c, 0, 81, 0
2, 11260, Note_on_c, 0, 89, 0
2, 11274, Note_on_c, 0, 94, 107
2, 11274, Note_on_c, 0, 82, 105
2, 11284, Note_on_c, 0, 82, 0
2, 11284, Note_on_c, 0, 94, 0
2, 11298, Control_c, 0, 11, 115
2, 11298, Note_on_c, 0, 94, 118
2, 11298, Note_on_c, 0, 82, 114
2, 11308, Note_on_c, 0, 82, 0
2, 11308, Note_on_c, 0, 94, 0
2, 11346, Note_on_c, 0, 71, 36
2, 11346, Note_on_c, 0, 59, 32
2, 11356, Note_on_c, 0, 59, 0
2, 11356, Note_on_c, 0, 71, 0
2, 11370, Note_on_c, 0, 71, 31
2, 11370, Note_on_c, 0, 59, 28
2, 11380, Note_on_c, 0, 59, 0
2, 11380, Note_on_c, 0, 71, 0
2, 11418, Note_on_c, 0, 94, 117
2, 11418, Note_on_c, 0, 82, 114
2, 11428, Note_on_c, 0, 82, 0
2, 11428, Note_on_c, 0, 94, 0
2, 11442, Note_on_c, 0, 94, 119
2, 11442, Note_on_c, 0, 82, 116
2, 11452, Note_on_c, 0, 82, 0
2, 11452, Note_on_c, 0, 94, 0
2, 11490, Control_c, 0, 11, 100
2, 11490, Note_on_c, 0, 71, 37
2, 11490, Note_on_c, 0, 59, 34
2, 11500, Note_on_c, 0, 59, 0
2, 11500, Note_on_c, 0, 71, 0
2, 11514, Note_on_c, 0, 71, 31
2, 11514, Note_on_c, 0, 59, 29
2, 11524, Note_on_c, 0, 59, 0
2, 11524, Note_on_c, 0, 71, 0
2, 11562, Note_on_c, 0, 70, 27
2, 11562, Note_on_c, 0, 58, 24
2, 11572, Note_on_c, 0, 58, 0
2, 11572, Note_on_c, 0, 70, 0
2, 11586, Note_on_c, 0, 70, 24
2, 11586, Note_on_c, 0, 58, 21
2, 11596, Note_on_c, 0, 58, 0
2, 11596, Note_on_c, 0, 70, 0
2, 11634, Note_on_c, 0, 62, 29
2, 11650, Note_on_c, 0, 62, 0
2, 11652, Note_on_c, 0, 66, 37
2, 11657, Note_on_c, 0, 66, 0
2, 11658, Note_on_c, 0, 66, 35
2, 11680, Note_on_c, 0, 66, 0
2, 11682, Note_on_c, 0, 62, 27
2, 11692, Note_on_c, 0, 62, 0
2, 11706, Note_on_c, 0, 71, 23
2, 11706, Note_on_c, 0, 59, 20
2, 11716, Note_on_c, 0, 59, 0
2, 11716, Note_on_c, 0, 71, 0
2, 11730, Note_on_c, 0, 71, 27
2, 11730, Note_on_c, 0, 59, 23
2, 11740, Note_on_c, 0, 59, 0
2, 11740, Note_on_c, 0, 71, 0
2, 11778, Note_on_c, 0, 71, 37
2, 11778, Note_on_c, 0, 59, 33
2, 11788, Note_on_c, 0, 59, 0
2, 11788, Note_on_c, 0, 71, 0
2, 11802, Note_on_c, 0, 71, 46
2, 11802, Note_on_c, 0, 59, 42
2, 11812, Note_on_c, 0, 59, 0
2, 11812, Note_on_c, 0, 71, 0
2, 11850, Note_on_c, 0, 71, 56
2, 11850, Note_on_c, 0, 59, 54
2, 11860, Note_on_c, 0, 59, 0
2, 11860, Note_on_c, 0, 71, 0
2, 11874, Note_on_c, 0, 71, 70
2, 11874, Note_on_c, 0, 59, 68
2, 11896, Note_on_c, 0, 59, 0
2, 11896, Note_on_c, 0, 71, 0
2, 11898, Note_on_c, 0, 71, 75
2, 11898, Note_on_c, 0, 59, 73
2, 11920, Note_on_c, 0, 59, 0
2, 11920, Note_on_c, 0, 71, 0
2, 11922, Note_on_c, 0, 71, 80
2, 11922, Note_on_c, 0, 59, 77
2, 11944, Note_on_c, 0, 59, 0
2, 11944, Note_on_c, 0, 71, 0
2, 11946, Note_on_c, 0, 71, 85
2, 11946, Note_on_c, 0, 59, 82
2, 11968, Note_on_c, 0, 59, 0
2, 11968, Note_on_c, 0, 71, 0
2, 11970, Note_on_c, 0, 71, 87
2, 11970, Note_on_c, 0, 59, 85
2, 11992, Note_on_c, 0, 59, 0
2, 11992, Note_on_c, 0, 71, 0
2, 11994, Note_on_c, 0, 83, 93
2, 11994, Note_on_c, 0, 71, 90
2, 12016, Note_on_c, 0, 71, 0
2, 12016, Note_on_c, 0, 83, 0
2, 12018, Note_on_c, 0, 83, 96
2, 12018, Note_on_c, 0, 71, 94
2, 12040, Note_on_c, 0, 71, 0
2, 12040, Note_on_c, 0, 83, 0
2, 12042, Note_on_c, 0, 83, 98
2, 12042, Note_on_c, 0, 71, 97
2, 12064, Note_on_c, 0, 71, 0
2, 12064, Note_on_c, 0, 83, 0
2, 12066, Note_on_c, 0, 83, 101
2, 12066, Note_on_c, 0, 71, 99
2, 12088, Note_on_c, 0, 71, 0
2, 12088, Note_on_c, 0, 83, 0
2, 12090, Control_c, 0, 11, 115
2, 12090, Note_on_c, 0, 95, 102
2, 12090, Note_on_c, 0, 83, 99
2, 12112, Note_on_c, 0, 83, 0
2, 12112, Note_on_c, 0, 95, 0
2, 12114, Note_on_c, 0, 95, 107
2, 12114, Note_on_c, 0, 83, 105
2, 12136, Note_on_c, 0, 83, 0
2, 12136, Note_on_c, 0, 95, 0
2, 12138, Note_on_c, 0, 95, 109
2, 12138, Note_on_c, 0, 83, 107
2, 12160, Note_on_c, 0, 83, 0
2, 12160, Note_on_c, 0, 95, 0
2, 12162, Note_on_c, 0, 95, 113
2, 12162, Note_on_c, 0, 83, 111
2, 12184, Note_on_c, 0, 83, 0
2, 12184, Note_on_c, 0, 95, 0
2, 12186, Note_on_c, 0, 95, 116
2, 12186, Note_on_c, 0, 83, 113
2, 12208, Note_on_c, 0, 83, 0
2, 12208, Note_on_c, 0, 95, 0
2, 12210, Note_on_c, 0, 95, 117
2, 12210, Note_on_c, 0, 83, 116
2, 12232, Note_on_c, 0, 83, 0
2, 12232, Note_on_c, 0, 95, 0
2, 12234, Note_on_c, 0, 94, 121
2, 12234, Note_on_c, 0, 82, 118
2, 12244, Note_on_c, 0, 82, 0
2, 12244, Note_on_c, 0, 94, 0
2, 12258, Note_on_c, 0, 94, 103
2, 12258, Note_on_c, 0, 82, 100
2, 12268, Note_on_c, 0, 82, 0
2, 12268, Note_on_c, 0, 94, 0
2, 12306, Control_c, 0, 11, 100
2, 12306, Note_on_c, 0, 62, 37
2, 12322, Note_on_c, 0, 62, 0
2, 12324, Note_on_c, 0, 65, 41
2, 12329, Note_on_c, 0, 65, 0
2, 12330, Note_on_c, 0, 65, 45
2, 12342, Note_on_c, 0, 60, 31
2, 12352, Note_on_c, 0, 60, 0
2, 12352, Note_on_c, 0, 65, 0
2, 12354, Note_on_c, 0, 62, 32
2, 12354, Note_on_c, 0, 53, 29
2, 12364, Note_on_c, 0, 53, 0
2, 12364, Note_on_c, 0, 62, 0
2, 12378, Note_on_c, 0, 74, 43
2, 12394, Note_on_c, 0, 74, 0
2, 12396, Note_on_c, 0, 77, 47
2, 12401, Note_on_c, 0, 77, 0
2, 12402, Note_on_c, 0, 77, 50
2, 12414, Note_on_c, 0, 72, 35
2, 12424, Note_on_c, 0, 72, 0
2, 12424, Note_on_c, 0, 77, 0
2, 12426, Note_on_c, 0, 74, 33
2, 12426, Note_on_c, 0, 65, 29
2, 12436, Note_on_c, 0, 65, 0
2, 12436, Note_on_c, 0, 74, 0
2, 12450, Note_on_c, 0, 86, 33
2, 12466, Note_on_c, 0, 86, 0
2, 12468, Note_on_c, 0, 89, 37
2, 12473, Note_on_c, 0, 89, 0
2, 12474, Note_on_c, 0, 89, 40
2, 12486, Note_on_c, 0, 84, 28
2, 12496, Note_on_c, 0, 84, 0
2, 12496, Note_on_c, 0, 89, 0
2, 12498, Note_on_c, 0, 86, 25
2, 12498, Note_on_c, 0, 77, 23
2, 12508, Note_on_c, 0, 77, 0
2, 12508, Note_on_c, 0, 86, 0
2, 12508, End_track
3, 0, Start_track
3, 0, MIDI_port, 0
3, 0, Title_t, "Left Hand"
3, 288, Note_on_c, 0, 62, 39
3, 288, Note_on_c, 0, 58, 33
3, 304, Note_on_c, 0, 58, 0
3, 304, Note_on_c, 0, 62, 0
3, 306, Note_on_c, 0, 60, 48
3, 306, Note_on_c, 0, 53, 44
3, 311, Note_on_c, 0, 53, 0
3, 311, Note_on_c, 0, 60, 0
3, 312, Note_on_c, 0, 60, 54
3, 312, Note_on_c, 0, 57, 50
3, 334, Note_on_c, 0, 57, 0
3, 334, Note_on_c, 0, 60, 0
3, 336, Note_on_c, 0, 62, 40
3, 336, Note_on_c, 0, 58, 37
3, 342, Note_on_c, 0, 58, 0
3, 342, Note_on_c, 0, 62, 0
3, 360, Note_on_c, 0, 58, 40
3, 360, Note_on_c, 0, 55, 34
3, 376, Note_on_c, 0, 55, 0
3, 376, Note_on_c, 0, 58, 0
3, 378, Note_on_c, 0, 57, 49
3, 378, Note_on_c, 0, 50, 46
3, 383, Note_on_c, 0, 50, 0
3, 383, Note_on_c, 0, 57, 0
3, 384, Note_on_c, 0, 57, 55
3, 384, Note_on_c, 0, 54, 51
3, 406, Note_on_c, 0, 54, 0
3, 406, Note_on_c, 0, 57, 0
3, 408, Note_on_c, 0, 58, 40
3, 408, Note_on_c, 0, 55, 36
3, 414, Note_on_c, 0, 55, 0
3, 414, Note_on_c, 0, 58, 0
3, 432, Note_on_c, 0, 55, 42
3, 432, Note_on_c, 0, 51, 39
3, 448, Note_on_c, 0, 51, 0
3, 448, Note_on_c, 0, 55, 0
3, 450, Note_on_c, 0, 53, 50
3, 450, Note_on_c, 0, 46, 46
3, 455, Note_on_c, 0, 46, 0
3, 455, Note_on_c, 0, 53, 0
3, 456, Note_on_c, 0, 53, 56
3, 456, Note_on_c, 0, 50, 50
3, 478, Note_on_c, 0, 50, 0
3, 478, Note_on_c, 0, 53, 0
3, 480, Note_on_c, 0, 55, 44
3, 480, Note_on_c, 0, 51, 40
3, 486, Note_on_c, 0, 51, 0
3, 486, Note_on_c, 0, 55, 0
3, 504, Note_on_c, 0, 55, 40
3, 504, Note_on_c, 0, 51, 38
3, 520, Note_on_c, 0, 51, 0
3, 520, Note_on_c, 0, 55, 0
3, 522, Note_on_c, 0, 53, 51
3, 522, Note_on_c, 0, 48, 44
3, 527, Note_on_c, 0, 48, 0
3, 527, Note_on_c, 0, 53, 0
3, 528, Note_on_c, 0, 53, 59
3, 528, Note_on_c, 0, 48, 54
3, 550, Note_on_c, 0, 48, 0
3, 550, Note_on_c, 0, 53, 0
3, 552, Note_on_c, 0, 53, 42
3, 552, Note_on_c, 0, 50, 39
3, 558, Note_on_c, 0, 50, 0
3, 558, Note_on_c, 0, 53, 0
3, 576, Note_on_c, 0, 53, 47
3, 576, Note_on_c, 0, 50, 42
3, 592, Note_on_c, 0, 50, 0
3, 594, Note_on_c, 0, 45, 47
3, 598, Note_on_c, 0, 53, 0
3, 599, Note_on_c, 0, 45, 0
3, 600, Note_on_c, 0, 53, 61
3, 600, Note_on_c, 0, 45, 57
3, 622, Note_on_c, 0, 45, 0
3, 624, Note_on_c, 0, 44, 47
3, 630, Note_on_c, 0, 44, 0
3, 630, Note_on_c, 0, 53, 0
3, 648, Note_on_c, 0, 53, 60
3, 648, Note_on_c, 0, 44, 53
3, 664, Note_on_c, 0, 44, 0
3, 664, Note_on_c, 0, 53, 0
3, 666, Note_on_c, 0, 51, 64
3, 666, Note_on_c, 0, 43, 59
3, 671, Note_on_c, 0, 43, 0
3, 671, Note_on_c, 0, 51, 0
3, 672, Note_on_c, 0, 51, 76
3, 672, Note_on_c, 0, 43, 70
3, 694, Note_on_c, 0, 43, 0
3, 694, Note_on_c, 0, 51, 0
3, 696, Note_on_c, 0, 49, 94
3, 696, Note_on_c, 0, 41, 90
3, 702, Note_on_c, 0, 41, 0
3, 702, Note_on_c, 0, 49, 0
3, 720, Note_on_c, 0, 48, 103
3, 720, Note_on_c, 0, 40, 96
3, 730, Note_on_c, 0, 40, 0
3, 730, Note_on_c, 0, 48, 0
3, 744, Note_on_c, 0, 53, 110
3, 744, Note_on_c, 0, 41, 107
3, 754, Note_on_c, 0, 41, 0
3, 754, Note_on_c, 0, 53, 0
3, 792, Note_on_c, 0, 74, 39
3, 792, Note_on_c, 0, 70, 37
3, 808, Note_on_c, 0, 70, 0
3, 808, Note_on_c, 0, 74, 0
3, 810, Note_on_c, 0, 72, 41
3, 810, Note_on_c, 0, 65, 38
3, 815, Note_on_c, 0, 65, 0
3, 815, Note_on_c, 0, 72, 0
3, 816, Note_on_c, 0, 72, 50
3, 816, Note_on_c, 0, 69, 47
3, 838, Note_on_c, 0, 69, 0
3, 838, Note_on_c, 0, 72, 0
3, 840, Note_on_c, 0, 74, 41
3, 840, Note_on_c, 0, 70, 39
3, 846, Note_on_c, 0, 70, 0
3, 846, Note_on_c, 0, 74, 0
3, 864, Note_on_c, 0, 70, 42
3, 864, Note_on_c, 0, 67, 39
3, 880, Note_on_c, 0, 67, 0
3, 880, Note_on_c, 0, 70, 0
3, 882, Note_on_c, 0, 69, 40
3, 882, Note_on_c, 0, 62, 38
3, 887, Note_on_c, 0, 62, 0
3, 887, Note_on_c, 0, 69, 0
3, 888, Note_on_c, 0, 69, 51
3, 888, Note_on_c, 0, 66, 47
3, 910, Note_on_c, 0, 66, 0
3, 910, Note_on_c, 0, 69, 0
3, 912, Note_on_c, 0, 70, 41
3, 912, Note_on_c, 0, 67, 38
3, 918, Note_on_c, 0, 67, 0
3, 918, Note_on_c, 0, 70, 0
3, 936, Note_on_c, 0, 67, 43
3, 936, Note_on_c, 0, 63, 40
3, 952, Note_on_c, 0, 63, 0
3, 952, Note_on_c, 0, 67, 0
3, 954, Note_on_c, 0, 65, 44
3, 954, Note_on_c, 0, 58, 40
3, 959, Note_on_c, 0, 58, 0
3, 959, Note_on_c, 0, 65, 0
3, 960, Note_on_c, 0, 65, 54
3, 960, Note_on_c, 0, 62, 51
3, 982, Note_on_c, 0, 62, 0
3, 982, Note_on_c, 0, 65, 0
3, 984, Note_on_c, 0, 67, 43
3, 984, Note_on_c, 0, 63, 38
3, 990, Note_on_c, 0, 63, 0
3, 990, Note_on_c, 0, 67, 0
3, 1008, Note_on_c, 0, 67, 46
3, 1008, Note_on_c, 0, 63, 44
3, 1024, Note_on_c, 0, 63, 0
3, 1024, Note_on_c, 0, 67, 0
3, 1026, Note_on_c, 0, 65, 43
3, 1026, Note_on_c, 0, 60, 39
3, 1031, Note_on_c, 0, 60, 0
3, 1031, Note_on_c, 0, 65, 0
3, 1032, Note_on_c, 0, 65, 52
3, 1032, Note_on_c, 0, 60, 49
3, 1054, Note_on_c, 0, 60, 0
3, 1054, Note_on_c, 0, 65, 0
3, 1056, Note_on_c, 0, 65, 43
3, 1056, Note_on_c, 0, 62, 40
3, 1062, Note_on_c, 0, 62, 0
3, 1062, Note_on_c, 0, 65, 0
3, 1080, Note_on_c, 0, 74, 59
3, 1096, Note_on_c, 0, 74, 0
3, 1098, Note_on_c, 0, 72, 51
3, 1098, Note_on_c, 0, 69, 49
3, 1103, Note_on_c, 0, 69, 0
3, 1103, Note_on_c, 0, 72, 0
3, 1104, Note_on_c, 0, 72, 66
3, 1104, Note_on_c, 0, 69, 64
3, 1126, Note_on_c, 0, 69, 0
3, 1126, Note_on_c, 0, 72, 0
3, 1128, Note_on_c, 0, 70, 64
3, 1128, Note_on_c, 0, 68, 61
3, 1134, Note_on_c, 0, 68, 0
3, 1134, Note_on_c, 0, 70, 0
3, 1152, Note_on_c, 0, 70, 71
3, 1152, Note_on_c, 0, 67, 70
3, 1168, Note_on_c, 0, 67, 0
3, 1170, Note_on_c, 0, 66, 67
3, 1174, Note_on_c, 0, 70, 0
3, 1175, Note_on_c, 0, 66, 0
3, 1176, Note_on_c, 0, 70, 82
3, 1176, Note_on_c, 0, 66, 77
3, 1198, Note_on_c, 0, 66, 0
3, 1198, Note_on_c, 0, 70, 0
3, 1200, Note_on_c, 0, 72, 98
3, 1200, Note_on_c, 0, 65, 94
3, 1206, Note_on_c, 0, 65, 0
3, 1206, Note_on_c, 0, 72, 0
3, 1224, Note_on_c, 0, 60, 105
3, 1224, Note_on_c, 0, 48, 101
3, 1234, Note_on_c, 0, 48, 0
3, 1234, Note_on_c, 0, 60, 0
3, 1248, Note_on_c, 0, 65, 111
3, 1248, Note_on_c, 0, 53, 110
3, 1258, Note_on_c, 0, 53, 0
3, 1258, Note_on_c, 0, 65, 0
3, 1296, Note_on_c, 0, 65, 49
3, 1296, Note_on_c, 0, 53, 46
3, 1365, Note_on_c, 0, 53, 0
3, 1365, Note_on_c, 0, 65, 0
3, 1368, Note_on_c, 0, 53, 43
3, 1368, Note_on_c, 0, 41, 41
3, 1437, Note_on_c, 0, 41, 0
3, 1437, Note_on_c, 0, 53, 0
3, 1440, Note_on_c, 0, 53, 37
3, 1440, Note_on_c, 0, 41, 35
3, 1509, Note_on_c, 0, 41, 0
3, 1509, Note_on_c, 0, 53, 0
3, 1512, Note_on_c, 0, 41, 37
3, 1512, Note_on_c, 0, 29, 35
3, 1581, Note_on_c, 0, 29, 0
3, 1581, Note_on_c, 0, 41, 0
3, 1584, Note_on_c, 0, 42, 37
3, 1584, Note_on_c, 0, 30, 34
3, 1630, Note_on_c, 0, 30, 0
3, 1630, Note_on_c, 0, 42, 0
3, 1632, Note_on_c, 0, 43, 36
3, 1632, Note_on_c, 0, 31, 33
3, 1677, Note_on_c, 0, 31, 0
3, 1677, Note_on_c, 0, 43, 0
3, 1680, Note_on_c, 0, 45, 35
3, 1680, Note_on_c, 0, 33, 33
3, 1702, Note_on_c, 0, 33, 0
3, 1702, Note_on_c, 0, 45, 0
3, 1704, Note_on_c, 0, 46, 33
3, 1704, Note_on_c, 0, 34, 31
3, 1726, Note_on_c, 0, 34, 0
3, 1726, Note_on_c, 0, 46, 0
3, 1728, Note_on_c, 0, 47, 31
3, 1728, Note_on_c, 0, 35, 29
3, 1750, Note_on_c, 0, 35, 0
3, 1750, Note_on_c, 0, 47, 0
3, 1752, Note_on_c, 0, 48, 30
3, 1752, Note_on_c, 0, 36, 28
3, 1797, Note_on_c, 0, 36, 0
3, 1797, Note_on_c, 0, 48, 0
3, 1800, Note_on_c, 0, 36, 38
3, 1822, Note_on_c, 0, 36, 0
3, 1824, Note_on_c, 0, 43, 25
3, 1869, Note_on_c, 0, 43, 0
3, 2016, Note_on_c, 0, 55, 37
3, 2016, Note_on_c, 0, 43, 30
3, 2032, Note_on_c, 0, 43, 0
3, 2034, Note_on_c, 0, 47, 34
3, 2039, Note_on_c, 0, 47, 0
3, 2040, Note_on_c, 0, 47, 39
3, 2062, Note_on_c, 0, 47, 0
3, 2064, Note_on_c, 0, 43, 31
3, 2070, Note_on_c, 0, 43, 0
3, 2073, Note_on_c, 0, 55, 0
3, 2088, Note_on_c, 0, 72, 32
3, 2104, Note_on_c, 0, 72, 0
3, 2106, Note_on_c, 0, 75, 35
3, 2111, Note_on_c, 0, 75, 0
3, 2112, Note_on_c, 0, 75, 37
3, 2134, Note_on_c, 0, 75, 0
3, 2136, Note_on_c, 0, 72, 29
3, 2142, Note_on_c, 0, 72, 0
3, 2160, Note_on_c, 0, 55, 45
3, 2160, Note_on_c, 0, 43, 41
3, 2229, Note_on_c, 0, 43, 0
3, 2229, Note_on_c, 0, 55, 0
3, 2232, Note_on_c, 0, 48, 56
3, 2232, Note_on_c, 0, 36, 54
3, 2301, Note_on_c, 0, 36, 0
3, 2301, Note_on_c, 0, 48, 0
3, 2304, Note_on_c, 0, 41, 69
3, 2304, Note_on_c, 0, 29, 66
3, 2350, Note_on_c, 0, 29, 0
3, 2350, Note_on_c, 0, 41, 0
3, 2352, Note_on_c, 0, 53, 97
3, 2352, Note_on_c, 0, 41, 95
3, 2358, Note_on_c, 0, 41, 0
3, 2358, Note_on_c, 0, 53, 0
3, 2376, Note_on_c, 0, 46, 100
3, 2376, Note_on_c, 0, 34, 98
3, 2386, Note_on_c, 0, 34, 0
3, 2386, Note_on_c, 0, 46, 0
3, 2400, Note_on_c, 0, 46, 112
3, 2400, Note_on_c, 0, 34, 111
3, 2410, Note_on_c, 0, 34, 0
3, 2410, Note_on_c, 0, 46, 0
3, 2448, Note_on_c, 0, 77, 54
3, 2448, Note_on_c, 0, 65, 51
3, 2517, Note_on_c, 0, 65, 0
3, 2517, Note_on_c, 0, 77, 0
3, 2520, Note_on_c, 0, 65, 45
3, 2520, Note_on_c, 0, 53, 43
3, 2589, Note_on_c, 0, 53, 0
3, 2589, Note_on_c, 0, 65, 0
3, 2592, Note_on_c, 0, 65, 42
3, 2592, Note_on_c, 0, 53, 40
3, 2661, Note_on_c, 0, 53, 0
3, 2661, Note_on_c, 0, 65, 0
3, 2664, Note_on_c, 0, 53, 38
3, 2664, Note_on_c, 0, 41, 35
3, 2733, Note_on_c, 0, 41, 0
3, 2733, Note_on_c, 0, 53, 0
3, 2736, Note_on_c, 0, 54, 35
3, 2736, Note_on_c, 0, 42, 33
3, 2780, Note_on_c, 0, 42, 0
3, 2780, Note_on_c, 0, 54, 0
3, 2784, Note_on_c, 0, 63, 42
3, 2784, Note_on_c, 0, 60, 40
3, 2784, Note_on_c, 0, 54, 38
3, 2804, Note_on_c, 0, 54, 0
3, 2804, Note_on_c, 0, 60, 0
3, 2804, Note_on_c, 0, 63, 0
3, 2808, Note_on_c, 0, 62, 40
3, 2808, Note_on_c, 0, 58, 39
3, 2808, Note_on_c, 0, 55, 38
3, 2828, Note_on_c, 0, 55, 0
3, 2828, Note_on_c, 0, 58, 0
3, 2828, Note_on_c, 0, 62, 0
3, 2832, Note_on_c, 0, 60, 38
3, 2832, Note_on_c, 0, 57, 36
3, 2852, Note_on_c, 0, 57, 0
3, 2852, Note_on_c, 0, 60, 0
3, 2856, Note_on_c, 0, 58, 39
3, 2856, Note_on_c, 0, 55, 35
3, 2856, Note_on_c, 0, 46, 31
3, 2876, Note_on_c, 0, 46, 0
3, 2876, Note_on_c, 0, 55, 0
3, 2876, Note_on_c, 0, 58, 0
3, 2880, Note_on_c, 0, 57, 38
3, 2880, Note_on_c, 0, 53, 33
3, 2880, Note_on_c, 0, 47, 31
3, 2900, Note_on_c, 0, 47, 0
3, 2904, Note_on_c, 0, 48, 33
3, 2924, Note_on_c, 0, 53, 0
3, 2924, Note_on_c, 0, 57, 0
3, 2928, Note_on_c, 0, 55, 32
3, 2928, Note_on_c, 0, 52, 28
3, 2948, Note_on_c, 0, 52, 0
3, 2948, Note_on_c, 0, 55, 0
3, 2948, Note_on_c, 0, 48, 0
3, 2952, Note_on_c, 0, 60, 37
3, 2952, Note_on_c, 0, 55, 35
3, 2952, Note_on_c, 0, 51, 32
3, 2972, Note_on_c, 0, 51, 0
3, 2972, Note_on_c, 0, 55, 0
3, 2976, Note_on_c, 0, 55, 31
3, 2996, Note_on_c, 0, 60, 0
3, 3000, Note_on_c, 0, 59, 24
3, 3019, Note_on_c, 0, 55, 0
3, 3020, Note_on_c, 0, 59, 0
3, 3168, Note_on_c, 0, 67, 37
3, 3168, Note_on_c, 0, 55, 32
3, 3184, Note_on_c, 0, 55, 0
3, 3186, Note_on_c, 0, 59, 39
3, 3191, Note_on_c, 0, 59, 0
3, 3192, Note_on_c, 0, 59, 46
3, 3214, Note_on_c, 0, 59, 0
3, 3216, Note_on_c, 0, 55, 39
3, 3222, Note_on_c, 0, 55, 0
3, 3226, Note_on_c, 0, 67, 0
3, 3240, Note_on_c, 0, 60, 29
3, 3256, Note_on_c, 0, 60, 0
3, 3258, Note_on_c, 0, 63, 32
3, 3263, Note_on_c, 0, 63, 0
3, 3264, Note_on_c, 0, 63, 35
3, 3286, Note_on_c, 0, 63, 0
3, 3288, Note_on_c, 0, 60, 29
3, 3294, Note_on_c, 0, 60, 0
3, 3312, Note_on_c, 0, 67, 48
3, 3312, Note_on_c, 0, 55, 46
3, 3381, Note_on_c, 0, 55, 0
3, 3381, Note_on_c, 0, 67, 0
3, 3384, Note_on_c, 0, 60, 62
3, 3384, Note_on_c, 0, 48, 61
3, 3453, Note_on_c, 0, 48, 0
3, 3453, Note_on_c, 0, 60, 0
3, 3456, Note_on_c, 0, 53, 89
3, 3456, Note_on_c, 0, 41, 85
3, 3525, Note_on_c, 0, 41, 0
3, 3525, Note_on_c, 0, 53, 0
3, 3528, Note_on_c, 0, 46, 98
3, 3528, Note_on_c, 0, 34, 96
3, 3538, Note_on_c, 0, 34, 0
3, 3538, Note_on_c, 0, 46, 0
3, 3552, Note_on_c, 0, 46, 114
3, 3552, Note_on_c, 0, 34, 110
3, 3562, Note_on_c, 0, 34, 0
3, 3562, Note_on_c, 0, 46, 0
3, 3600, Note_on_c, 0, 46, 54
3, 3600, Note_on_c, 0, 34, 49
3, 3610, Note_on_c, 0, 34, 0
3, 3610, Note_on_c, 0, 46, 0
3, 3624, Note_on_c, 0, 46, 50
3, 3624, Note_on_c, 0, 34, 45
3, 3634, Note_on_c, 0, 34, 0
3, 3634, Note_on_c, 0, 46, 0
3, 3672, Note_on_c, 0, 34, 51
3, 3680, Note_on_c, 0, 41, 47
3, 3682, Note_on_c, 0, 34, 0
3, 3688, Note_on_c, 0, 49, 43
3, 3690, Note_on_c, 0, 41, 0
3, 3696, Note_on_c, 0, 34, 52
3, 3698, Note_on_c, 0, 49, 0
3, 3704, Note_on_c, 0, 41, 46
3, 3706, Note_on_c, 0, 34, 0
3, 3712, Note_on_c, 0, 49, 44
3, 3714, Note_on_c, 0, 41, 0
3, 3720, Note_on_c, 0, 34, 53
3, 3722, Note_on_c, 0, 49, 0
3, 3728, Note_on_c, 0, 41, 47
3, 3730, Note_on_c, 0, 34, 0
3, 3736, Note_on_c, 0, 49, 42
3, 3738, Note_on_c, 0, 41, 0
3, 3744, Note_on_c, 0, 34, 54
3, 3746, Note_on_c, 0, 49, 0
3, 3752, Note_on_c, 0, 41, 49
3, 3754, Note_on_c, 0, 34, 0
3, 3760, Note_on_c, 0, 49, 44
3, 3762, Note_on_c, 0, 41, 0
3, 3768, Note_on_c, 0, 34, 60
3, 3770, Note_on_c, 0, 49, 0
3, 3776, Note_on_c, 0, 41, 54
3, 3778, Note_on_c, 0, 34, 0
3, 3784, Note_on_c, 0, 49, 48
3, 3786, Note_on_c, 0, 41, 0
3, 3792, Note_on_c, 0, 34, 61
3, 3794, Note_on_c, 0, 49, 0
3, 3800, Note_on_c, 0, 41, 54
3, 3802, Note_on_c, 0, 34, 0
3, 3808, Note_on_c, 0, 49, 49
3, 3810, Note_on_c, 0, 41, 0
3, 3816, Note_on_c, 0, 34, 64
3, 3818, Note_on_c, 0, 49, 0
3, 3824, Note_on_c, 0, 41, 60
3, 3826, Note_on_c, 0, 34, 0
3, 3832, Note_on_c, 0, 49, 53
3, 3834, Note_on_c, 0, 41, 0
3, 3840, Note_on_c, 0, 34, 69
3, 3842, Note_on_c, 0, 49, 0
3, 3848, Note_on_c, 0, 41, 64
3, 3850, Note_on_c, 0, 34, 0
3, 3856, Note_on_c, 0, 49, 59
3, 3858, Note_on_c, 0, 41, 0
3, 3864, Note_on_c, 0, 34, 72
3, 3866, Note_on_c, 0, 49, 0
3, 3872, Note_on_c, 0, 41, 67
3, 3874, Note_on_c, 0, 34, 0
3, 3880, Note_on_c, 0, 49, 59
3, 3882, Note_on_c, 0, 41, 0
3, 3888, Note_on_c, 0, 34, 74
3, 3890, Note_on_c, 0, 49, 0
3, 3896, Note_on_c, 0, 41, 68
3, 3898, Note_on_c, 0, 34, 0
3, 3904, Note_on_c, 0, 49, 65
3, 3906, Note_on_c, 0, 41, 0
3, 3912, Note_on_c, 0, 34, 78
3, 3914, Note_on_c, 0, 49, 0
3, 3920, Note_on_c, 0, 41, 69
3, 3922, Note_on_c, 0, 34, 0
3, 3928, Note_on_c, 0, 49, 64
3, 3930, Note_on_c, 0, 41, 0
3, 3936, Note_on_c, 0, 34, 79
3, 3938, Note_on_c, 0, 49, 0
3, 3944, Note_on_c, 0, 41, 74
3, 3946, Note_on_c, 0, 34, 0
3, 3952, Note_on_c, 0, 49, 66
3, 3954, Note_on_c, 0, 41, 0
3, 3960, Note_on_c, 0, 34, 81
3, 3962, Note_on_c, 0, 49, 0
3, 3968, Note_on_c, 0, 41, 73
3, 3970, Note_on_c, 0, 34, 0
3, 3976, Note_on_c, 0, 49, 69
3, 3978, Note_on_c, 0, 41, 0
3, 3984, Note_on_c, 0, 34, 84
3, 3986, Note_on_c, 0, 49, 0
3, 3992, Note_on_c, 0, 41, 76
3, 3994, Note_on_c, 0, 34, 0
3, 4000, Note_on_c, 0, 49, 70
3, 4002, Note_on_c, 0, 41, 0
3, 4008, Note_on_c, 0, 34, 85
3, 4010, Note_on_c, 0, 49, 0
3, 4016, Note_on_c, 0, 41, 78
3, 4018, Note_on_c, 0, 34, 0
3, 4024, Note_on_c, 0, 49, 72
3, 4026, Note_on_c, 0, 41, 0
3, 4032, Note_on_c, 0, 32, 90
3, 4034, Note_on_c, 0, 49, 0
3, 4040, Note_on_c, 0, 41, 84
3, 4042, Note_on_c, 0, 32, 0
3, 4048, Note_on_c, 0, 49, 78
3, 4050, Note_on_c, 0, 41, 0
3, 4056, Note_on_c, 0, 32, 80
3, 4058, Note_on_c, 0, 49, 0
3, 4064, Note_on_c, 0, 41, 70
3, 4066, Note_on_c, 0, 32, 0
3, 4072, Note_on_c, 0, 49, 58
3, 4074, Note_on_c, 0, 41, 0
3, 4080, Note_on_c, 0, 32, 71
3, 4082, Note_on_c, 0, 49, 0
3, 4088, Note_on_c, 0, 41, 63
3, 4090, Note_on_c, 0, 32, 0
3, 4096, Note_on_c, 0, 49, 49
3, 4098, Note_on_c, 0, 41, 0
3, 4104, Note_on_c, 0, 37, 63
3, 4106, Note_on_c, 0, 49, 0
3, 4112, Note_on_c, 0, 41, 56
3, 4114, Note_on_c, 0, 37, 0
3, 4120, Note_on_c, 0, 49, 44
3, 4122, Note_on_c, 0, 41, 0
3, 4128, Note_on_c, 0, 37, 58
3, 4130, Note_on_c, 0, 49, 0
3, 4136, Note_on_c, 0, 41, 50
3, 4138, Note_on_c, 0, 37, 0
3, 4144, Note_on_c, 0, 49, 45
3, 4146, Note_on_c, 0, 41, 0
3, 4152, Note_on_c, 0, 37, 52
3, 4154, Note_on_c, 0, 49, 0
3, 4160, Note_on_c, 0, 41, 47
3, 4162, Note_on_c, 0, 37, 0
3, 4168, Note_on_c, 0, 49, 40
3, 4170, Note_on_c, 0, 41, 0
3, 4175, Note_on_c, 0, 49, 0
3, 4176, Note_on_c, 0, 49, 53
3, 4176, Note_on_c, 0, 37, 49
3, 4222, Note_on_c, 0, 37, 0
3, 4222, Note_on_c, 0, 49, 0
3, 4224, Note_on_c, 0, 53, 56
3, 4224, Note_on_c, 0, 41, 52
3, 4246, Note_on_c, 0, 41, 0
3, 4246, Note_on_c, 0, 53, 0
3, 4248, Note_on_c, 0, 49, 60
3, 4248, Note_on_c, 0, 37, 57
3, 4294, Note_on_c, 0, 37, 0
3, 4294, Note_on_c, 0, 49, 0
3, 4296, Note_on_c, 0, 46, 62
3, 4296, Note_on_c, 0, 34, 59
3, 4318, Note_on_c, 0, 34, 0
3, 4318, Note_on_c, 0, 46, 0
3, 4320, Note_on_c, 0, 41, 59
3, 4320, Note_on_c, 0, 29, 57
3, 4342, Note_on_c, 0, 29, 0
3, 4342, Note_on_c, 0, 41, 0
3, 4344, Note_on_c, 0, 46, 66
3, 4344, Note_on_c, 0, 34, 62
3, 4389, Note_on_c, 0, 34, 0
3, 4389, Note_on_c, 0, 46, 0
3, 4392, Note_on_c, 0, 49, 68
3, 4392, Note_on_c, 0, 37, 66
3, 4414, Note_on_c, 0, 37, 0
3, 4414, Note_on_c, 0, 49, 0
3, 4416, Note_on_c, 0, 53, 73
3, 4416, Note_on_c, 0, 41, 71
3, 4461, Note_on_c, 0, 41, 0
3, 4461, Note_on_c, 0, 53, 0
3, 4464, Note_on_c, 0, 49, 79
3, 4464, Note_on_c, 0, 37, 76
3, 4486, Note_on_c, 0, 37, 0
3, 4486, Note_on_c, 0, 49, 0
3, 4488, Note_on_c, 0, 46, 84
3, 4488, Note_on_c, 0, 34, 82
3, 4533, Note_on_c, 0, 34, 0
3, 4533, Note_on_c, 0, 46, 0
3, 4536, Note_on_c, 0, 41, 87
3, 4536, Note_on_c, 0, 29, 84
3, 4558, Note_on_c, 0, 29, 0
3, 4558, Note_on_c, 0, 41, 0
3, 4560, Note_on_c, 0, 46, 89
3, 4560, Note_on_c, 0, 34, 86
3, 4605, Note_on_c, 0, 34, 0
3, 4605, Note_on_c, 0, 46, 0
3, 4608, Note_on_c, 0, 49, 82
3, 4608, Note_on_c, 0, 37, 78
3, 4630, Note_on_c, 0, 37, 0
3, 4630, Note_on_c, 0, 49, 0
3, 4632, Note_on_c, 0, 53, 78
3, 4632, Note_on_c, 0, 41, 75
3, 4677, Note_on_c, 0, 41, 0
3, 4677, Note_on_c, 0, 53, 0
3, 4680, Note_on_c, 0, 56, 72
3, 4680, Note_on_c, 0, 44, 69
3, 4702, Note_on_c, 0, 44, 0
3, 4702, Note_on_c, 0, 56, 0
3, 4704, Note_on_c, 0, 49, 67
3, 4704, Note_on_c, 0, 37, 64
3, 4726, Note_on_c, 0, 37, 0
3, 4726, Note_on_c, 0, 49, 0
3, 4752, Note_on_c, 0, 49, 50
3, 4752, Note_on_c, 0, 37, 48
3, 4762, Note_on_c, 0, 37, 0
3, 4762, Note_on_c, 0, 49, 0
3, 4776, Note_on_c, 0, 49, 46
3, 4776, Note_on_c, 0, 37, 44
3, 4786, Note_on_c, 0, 37, 0
3, 4786, Note_on_c, 0, 49, 0
3, 4800, Note_on_c, 0, 37, 48
3, 4808, Note_on_c, 0, 41, 44
3, 4810, Note_on_c, 0, 37, 0
3, 4816, Note_on_c, 0, 49, 40
3, 4818, Note_on_c, 0, 41, 0
3, 4824, Note_on_c, 0, 37, 48
3, 4826, Note_on_c, 0, 49, 0
3, 4832, Note_on_c, 0, 41, 43
3, 4834, Note_on_c, 0, 37, 0
3, 4840, Note_on_c, 0, 49, 39
3, 4842, Note_on_c, 0, 41, 0
3, 4848, Note_on_c, 0, 37, 50
3, 4850, Note_on_c, 0, 49, 0
3, 4856, Note_on_c, 0, 41, 45
3, 4858, Note_on_c, 0, 37, 0
3, 4864, Note_on_c, 0, 49, 42
3, 4866, Note_on_c, 0, 41, 0
3, 4872, Note_on_c, 0, 37, 51
3, 4874, Note_on_c, 0, 49, 0
3, 4880, Note_on_c, 0, 41, 47
3, 4882, Note_on_c, 0, 37, 0
3, 4888, Note_on_c, 0, 49, 41
3, 4890, Note_on_c, 0, 41, 0
3, 4896, Note_on_c, 0, 37, 50
3, 4898, Note_on_c, 0, 49, 0
3, 4904, Note_on_c, 0, 41, 47
3, 4906, Note_on_c, 0, 37, 0
3, 4912, Note_on_c, 0, 49, 40
3, 4914, Note_on_c, 0, 41, 0
3, 4920, Note_on_c, 0, 37, 48
3, 4922, Note_on_c, 0, 49, 0
3, 4928, Note_on_c, 0, 41, 45
3, 4930, Note_on_c, 0, 37, 0
3, 4936, Note_on_c, 0, 49, 41
3, 4938, Note_on_c, 0, 41, 0
3, 4944, Note_on_c, 0, 37, 50
3, 4946, Note_on_c, 0, 49, 0
3, 4952, Note_on_c, 0, 41, 47
3, 4954, Note_on_c, 0, 37, 0
3, 4960, Note_on_c, 0, 49, 39
3, 4962, Note_on_c, 0, 41, 0
3, 4968, Note_on_c, 0, 37, 50
3, 4970, Note_on_c, 0, 49, 0
3, 4976, Note_on_c, 0, 41, 44
3, 4978, Note_on_c, 0, 37, 0
3, 4984, Note_on_c, 0, 49, 42
3, 4986, Note_on_c, 0, 41, 0
3, 4992, Note_on_c, 0, 37, 55
3, 4994, Note_on_c, 0, 49, 0
3, 5000, Note_on_c, 0, 41, 49
3, 5002, Note_on_c, 0, 37, 0
3, 5008, Note_on_c, 0, 49, 46
3, 5010, Note_on_c, 0, 41, 0
3, 5016, Note_on_c, 0, 37, 54
3, 5018, Note_on_c, 0, 49, 0
3, 5024, Note_on_c, 0, 41, 49
3, 5026, Note_on_c, 0, 37, 0
3, 5032, Note_on_c, 0, 49, 46
3, 5034, Note_on_c, 0, 41, 0
3, 5040, Note_on_c, 0, 32, 62
3, 5042, Note_on_c, 0, 49, 0
3, 5048, Note_on_c, 0, 41, 56
3, 5050, Note_on_c, 0, 32, 0
3, 5056, Note_on_c, 0, 49, 50
3, 5058, Note_on_c, 0, 41, 0
3, 5064, Note_on_c, 0, 32, 68
3, 5066, Note_on_c, 0, 49, 0
3, 5072, Note_on_c, 0, 41, 63
3, 5074, Note_on_c, 0, 32, 0
3, 5080, Note_on_c, 0, 49, 59
3, 5082, Note_on_c, 0, 41, 0
3, 5088, Note_on_c, 0, 32, 73
3, 5090, Note_on_c, 0, 49, 0
3, 5096, Note_on_c, 0, 41, 68
3, 5098, Note_on_c, 0, 32, 0
3, 5104, Note_on_c, 0, 49, 63
3, 5106, Note_on_c, 0, 41, 0
3, 5112, Note_on_c, 0, 32, 77
3, 5114, Note_on_c, 0, 49, 0
3, 5120, Note_on_c, 0, 41, 73
3, 5122, Note_on_c, 0, 32, 0
3, 5128, Note_on_c, 0, 49, 67
3, 5130, Note_on_c, 0, 41, 0
3, 5136, Note_on_c, 0, 34, 80
3, 5138, Note_on_c, 0, 49, 0
3, 5144, Note_on_c, 0, 41, 75
3, 5146, Note_on_c, 0, 34, 0
3, 5152, Note_on_c, 0, 49, 71
3, 5154, Note_on_c, 0, 41, 0
3, 5160, Note_on_c, 0, 34, 84
3, 5162, Note_on_c, 0, 49, 0
3, 5168, Note_on_c, 0, 41, 79
3, 5170, Note_on_c, 0, 34, 0
3, 5176, Note_on_c, 0, 49, 75
3, 5178, Note_on_c, 0, 41, 0
3, 5184, Note_on_c, 0, 34, 87
3, 5186, Note_on_c, 0, 49, 0
3, 5192, Note_on_c, 0, 41, 84
3, 5194, Note_on_c, 0, 34, 0
3, 5200, Note_on_c, 0, 49, 80
3, 5202, Note_on_c, 0, 41, 0
3, 5208, Note_on_c, 0, 34, 81
3, 5210, Note_on_c, 0, 49, 0
3, 5216, Note_on_c, 0, 41, 75
3, 5218, Note_on_c, 0, 34, 0
3, 5224, Note_on_c, 0, 49, 66
3, 5226, Note_on_c, 0, 41, 0
3, 5232, Note_on_c, 0, 34, 74
3, 5234, Note_on_c, 0, 49, 0
3, 5240, Note_on_c, 0, 41, 66
3, 5242, Note_on_c, 0, 34, 0
3, 5248, Note_on_c, 0, 49, 56
3, 5250, Note_on_c, 0, 41, 0
3, 5256, Note_on_c, 0, 34, 66
3, 5258, Note_on_c, 0, 49, 0
3, 5264, Note_on_c, 0, 41, 58
3, 5266, Note_on_c, 0, 34, 0
3, 5272, Note_on_c, 0, 49, 48
3, 5274, Note_on_c, 0, 41, 0
3, 5280, Note_on_c, 0, 29, 58
3, 5282, Note_on_c, 0, 49, 0
3, 5288, Note_on_c, 0, 41, 52
3, 5290, Note_on_c, 0, 29, 0
3, 5296, Note_on_c, 0, 49, 42
3, 5298, Note_on_c, 0, 41, 0
3, 5304, Note_on_c, 0, 29, 54
3, 5306, Note_on_c, 0, 49, 0
3, 5312, Note_on_c, 0, 41, 45
3, 5314, Note_on_c, 0, 29, 0
3, 5320, Note_on_c, 0, 49, 42
3, 5322, Note_on_c, 0, 41, 0
3, 5328, Note_on_c, 0, 29, 51
3, 5330, Note_on_c, 0, 49, 0
3, 5336, Note_on_c, 0, 41, 46
3, 5338, Note_on_c, 0, 29, 0
3, 5344, Note_on_c, 0, 49, 41
3, 5346, Note_on_c, 0, 41, 0
3, 5352, Note_on_c, 0, 32, 50
3, 5354, Note_on_c, 0, 49, 0
3, 5360, Note_on_c, 0, 41, 42
3, 5362, Note_on_c, 0, 32, 0
3, 5368, Note_on_c, 0, 49, 39
3, 5370, Note_on_c, 0, 41, 0
3, 5376, Note_on_c, 0, 34, 46
3, 5378, Note_on_c, 0, 49, 0
3, 5398, Note_on_c, 0, 34, 0
3, 5400, Note_on_c, 0, 53, 55
3, 5400, Note_on_c, 0, 41, 52
3, 5446, Note_on_c, 0, 41, 0
3, 5446, Note_on_c, 0, 53, 0
3, 5448, Note_on_c, 0, 56, 61
3, 5448, Note_on_c, 0, 44, 58
3, 5470, Note_on_c, 0, 44, 0
3, 5470, Note_on_c, 0, 56, 0
3, 5472, Note_on_c, 0, 53, 60
3, 5472, Note_on_c, 0, 41, 57
3, 5518, Note_on_c, 0, 41, 0
3, 5518, Note_on_c, 0, 53, 0
3, 5520, Note_on_c, 0, 49, 56
3, 5520, Note_on_c, 0, 37, 53
3, 5542, Note_on_c, 0, 37, 0
3, 5542, Note_on_c, 0, 49, 0
3, 5544, Note_on_c, 0, 44, 52
3, 5544, Note_on_c, 0, 32, 49
3, 5566, Note_on_c, 0, 32, 0
3, 5566, Note_on_c, 0, 44, 0
3, 5568, Note_on_c, 0, 49, 60
3, 5568, Note_on_c, 0, 37, 56
3, 5613, Note_on_c, 0, 37, 0
3, 5613, Note_on_c, 0, 49, 0
3, 5616, Note_on_c, 0, 53, 66
3, 5616, Note_on_c, 0, 41, 63
3, 5638, Note_on_c, 0, 41, 0
3, 5638, Note_on_c, 0, 53, 0
3, 5640, Note_on_c, 0, 56, 74
3, 5640, Note_on_c, 0, 44, 70
3, 5685, Note_on_c, 0, 44, 0
3, 5685, Note_on_c, 0, 56, 0
3, 5688, Note_on_c, 0, 53, 78
3, 5688, Note_on_c, 0, 41, 75
3, 5710, Note_on_c, 0, 41, 0
3, 5710, Note_on_c, 0, 53, 0
3, 5712, Note_on_c, 0, 49, 81
3, 5712, Note_on_c, 0, 37, 79
3, 5757, Note_on_c, 0, 37, 0
3, 5757, Note_on_c, 0, 49, 0
3, 5760, Note_on_c, 0, 46, 85
3, 5760, Note_on_c, 0, 34, 81
3, 5782, Note_on_c, 0, 34, 0
3, 5782, Note_on_c, 0, 46, 0
3, 5784, Note_on_c, 0, 41, 80
3, 5784, Note_on_c, 0, 29, 77
3, 5829, Note_on_c, 0, 29, 0
3, 5829, Note_on_c, 0, 41, 0
3, 5832, Note_on_c, 0, 46, 71
3, 5832, Note_on_c, 0, 34, 69
3, 5854, Note_on_c, 0, 34, 0
3, 5854, Note_on_c, 0, 46, 0
3, 5856, Note_on_c, 0, 49, 64
3, 5856, Note_on_c, 0, 37, 59
3, 5901, Note_on_c, 0, 37, 0
3, 5901, Note_on_c, 0, 49, 0
3, 5904, Note_on_c, 0, 53, 57
3, 5904, Note_on_c, 0, 41, 53
3, 5926, Note_on_c, 0, 41, 0
3, 5926, Note_on_c, 0, 53, 0
3, 5928, Note_on_c, 0, 46, 51
3, 5928, Note_on_c, 0, 34, 45
3, 5950, Note_on_c, 0, 34, 0
3, 5950, Note_on_c, 0, 46, 0
3, 6000, Note_on_c, 0, 61, 40
3, 6008, Note_on_c, 0, 58, 37
3, 6010, Note_on_c, 0, 61, 0
3, 6016, Note_on_c, 0, 53, 30
3, 6018, Note_on_c, 0, 58, 0
3, 6024, Note_on_c, 0, 61, 39
3, 6026, Note_on_c, 0, 53, 0
3, 6032, Note_on_c, 0, 58, 34
3, 6034, Note_on_c, 0, 61, 0
3, 6040, Note_on_c, 0, 53, 25
3, 6042, Note_on_c, 0, 58, 0
3, 6048, Note_on_c, 0, 65, 37
3, 6050, Note_on_c, 0, 53, 0
3, 6056, Note_on_c, 0, 61, 29
3, 6058, Note_on_c, 0, 65, 0
3, 6064, Note_on_c, 0, 53, 25
3, 6066, Note_on_c, 0, 61, 0
3, 6069, Note_on_c, 0, 53, 0
3, 6072, Note_on_c, 0, 58, 30
3, 6082, Note_on_c, 0, 58, 0
3, 6096, Note_on_c, 0, 61, 33
3, 6106, Note_on_c, 0, 61, 0
3, 6120, Note_on_c, 0, 60, 36
3, 6130, Note_on_c, 0, 60, 0
3, 6144, Note_on_c, 0, 53, 38
3, 6154, Note_on_c, 0, 53, 0
3, 6168, Note_on_c, 0, 65, 45
3, 6178, Note_on_c, 0, 65, 0
3, 6192, Note_on_c, 0, 63, 38
3, 6202, Note_on_c, 0, 63, 0
3, 6216, Note_on_c, 0, 61, 35
3, 6226, Note_on_c, 0, 61, 0
3, 6240, Note_on_c, 0, 60, 36
3, 6250, Note_on_c, 0, 60, 0
3, 6264, Note_on_c, 0, 58, 31
3, 6274, Note_on_c, 0, 58, 0
3, 6288, Note_on_c, 0, 61, 36
3, 6298, Note_on_c, 0, 61, 0
3, 6312, Note_on_c, 0, 60, 35
3, 6322, Note_on_c, 0, 60, 0
3, 6336, Note_on_c, 0, 56, 35
3, 6346, Note_on_c, 0, 56, 0
3, 6360, Note_on_c, 0, 60, 45
3, 6370, Note_on_c, 0, 60, 0
3, 6384, Note_on_c, 0, 55, 40
3, 6394, Note_on_c, 0, 55, 0
3, 6408, Note_on_c, 0, 53, 35
3, 6453, Note_on_c, 0, 53, 0
3, 6456, Note_on_c, 0, 53, 55
3, 6456, Note_on_c, 0, 41, 53
3, 6466, Note_on_c, 0, 41, 0
3, 6466, Note_on_c, 0, 53, 0
3, 6480, Note_on_c, 0, 56, 58
3, 6480, Note_on_c, 0, 44, 56
3, 6490, Note_on_c, 0, 44, 0
3, 6490, Note_on_c, 0, 56, 0
3, 6504, Note_on_c, 0, 55, 61
3, 6504, Note_on_c, 0, 43, 59
3, 6514, Note_on_c, 0, 43, 0
3, 6514, Note_on_c, 0, 55, 0
3, 6528, Note_on_c, 0, 48, 64
3, 6528, Note_on_c, 0, 36, 62
3, 6538, Note_on_c, 0, 36, 0
3, 6538, Note_on_c, 0, 48, 0
3, 6552, Note_on_c, 0, 60, 68
3, 6552, Note_on_c, 0, 48, 66
3, 6562, Note_on_c, 0, 48, 0
3, 6562, Note_on_c, 0, 60, 0
3, 6576, Note_on_c, 0, 58, 71
3, 6576, Note_on_c, 0, 46, 69
3, 6586, Note_on_c, 0, 46, 0
3, 6586, Note_on_c, 0, 58, 0
3, 6600, Note_on_c, 0, 56, 74
3, 6600, Note_on_c, 0, 44, 72
3, 6610, Note_on_c, 0, 44, 0
3, 6610, Note_on_c, 0, 56, 0
3, 6624, Note_on_c, 0, 55, 77
3, 6624, Note_on_c, 0, 43, 75
3, 6634, Note_on_c, 0, 43, 0
3, 6634, Note_on_c, 0, 55, 0
3, 6648, Note_on_c, 0, 53, 80
3, 6648, Note_on_c, 0, 41, 78
3, 6658, Note_on_c, 0, 41, 0
3, 6658, Note_on_c, 0, 53, 0
3, 6672, Note_on_c, 0, 56, 83
3, 6672, Note_on_c, 0, 44, 81
3, 6682, Note_on_c, 0, 44, 0
3, 6682, Note_on_c, 0, 56, 0
3, 6696, Note_on_c, 0, 55, 87
3, 6696, Note_on_c, 0, 43, 85
3, 6706, Note_on_c, 0, 43, 0
3, 6706, Note_on_c, 0, 55, 0
3, 6720, Note_on_c, 0, 60, 90
3, 6720, Note_on_c, 0, 48, 88
3, 6730, Note_on_c, 0, 48, 0
3, 6730, Note_on_c, 0, 60, 0
3, 6744, Note_on_c, 0, 57, 95
3, 6744, Note_on_c, 0, 45, 93
3, 6754, Note_on_c, 0, 45, 0
3, 6754, Note_on_c, 0, 57, 0
3, 6768, Note_on_c, 0, 53, 98
3, 6768, Note_on_c, 0, 41, 96
3, 6778, Note_on_c, 0, 41, 0
3, 6778, Note_on_c, 0, 53, 0
3, 6792, Note_on_c, 0, 58, 103
3, 6792, Note_on_c, 0, 46, 101
3, 6802, Note_on_c, 0, 46, 0
3, 6802, Note_on_c, 0, 58, 0
3, 6816, Note_on_c, 0, 60, 108
3, 6816, Note_on_c, 0, 48, 105
3, 6826, Note_on_c, 0, 48, 0
3, 6826, Note_on_c, 0, 60, 0
3, 6840, Note_on_c, 0, 49, 107
3, 6850, Note_on_c, 0, 49, 0
3, 6852, Note_on_c, 0, 61, 91
3, 6862, Note_on_c, 0, 61, 0
3, 6864, Note_on_c, 0, 46, 107
3, 6874, Note_on_c, 0, 46, 0
3, 6876, Note_on_c, 0, 58, 89
3, 6886, Note_on_c, 0, 58, 0
3, 6888, Note_on_c, 0, 41, 105
3, 6898, Note_on_c, 0, 41, 0
3, 6900, Note_on_c, 0, 53, 82
3, 6910, Note_on_c, 0, 53, 0
3, 6912, Note_on_c, 0, 39, 107
3, 6922, Note_on_c, 0, 39, 0
3, 6924, Note_on_c, 0, 51, 86
3, 6934, Note_on_c, 0, 51, 0
3, 6936, Note_on_c, 0, 37, 105
3, 6946, Note_on_c, 0, 37, 0
3, 6948, Note_on_c, 0, 49, 89
3, 6958, Note_on_c, 0, 49, 0
3, 6960, Note_on_c, 0, 36, 111
3, 6970, Note_on_c, 0, 36, 0
3, 6972, Note_on_c, 0, 48, 92
3, 6982, Note_on_c, 0, 48, 0
3, 6984, Note_on_c, 0, 34, 107
3, 6994, Note_on_c, 0, 34, 0
3, 6996, Note_on_c, 0, 46, 88
3, 7006, Note_on_c, 0, 46, 0
3, 7008, Note_on_c, 0, 33, 112
3, 7018, Note_on_c, 0, 33, 0
3, 7020, Note_on_c, 0, 45, 94
3, 7030, Note_on_c, 0, 45, 0
3, 7032, Note_on_c, 0, 34, 106
3, 7042, Note_on_c, 0, 34, 0
3, 7044, Note_on_c, 0, 46, 82
3, 7054, Note_on_c, 0, 46, 0
3, 7056, Note_on_c, 0, 34, 105
3, 7066, Note_on_c, 0, 34, 0
3, 7068, Note_on_c, 0, 46, 83
3, 7078, Note_on_c, 0, 46, 0
3, 7080, Note_on_c, 0, 33, 111
3, 7090, Note_on_c, 0, 33, 0
3, 7092, Note_on_c, 0, 45, 90
3, 7102, Note_on_c, 0, 45, 0
3, 7104, Note_on_c, 0, 39, 106
3, 7110, Note_on_c, 0, 39, 0
3, 7116, Note_on_c, 0, 51, 88
3, 7126, Note_on_c, 0, 51, 0
3, 7128, Note_on_c, 0, 37, 107
3, 7138, Note_on_c, 0, 37, 0
3, 7140, Note_on_c, 0, 49, 93
3, 7150, Note_on_c, 0, 49, 0
3, 7152, Note_on_c, 0, 34, 109
3, 7162, Note_on_c, 0, 34, 0
3, 7164, Note_on_c, 0, 46, 92
3, 7174, Note_on_c, 0, 46, 0
3, 7176, Note_on_c, 0, 53, 107
3, 7176, Note_on_c, 0, 41, 104
3, 7221, Note_on_c, 0, 41, 0
3, 7221, Note_on_c, 0, 53, 0
3, 7224, Note_on_c, 0, 61, 109
3, 7234, Note_on_c, 0, 61, 0
3, 7236, Note_on_c, 0, 73, 91
3, 7246, Note_on_c, 0, 73, 0
3, 7248, Note_on_c, 0, 58, 105
3, 7258, Note_on_c, 0, 58, 0
3, 7260, Note_on_c, 0, 70, 89
3, 7270, Note_on_c, 0, 70, 0
3, 7296, Note_on_c, 0, 77, 108
3, 7318, Note_on_c, 0, 77, 0
3, 7344, Note_on_c, 0, 65, 103
3, 7366, Note_on_c, 0, 65, 0
3, 7392, Note_on_c, 0, 53, 103
3, 7414, Note_on_c, 0, 53, 0
3, 7440, Note_on_c, 0, 41, 113
3, 7462, Note_on_c, 0, 41, 0
3, 7488, Note_on_c, 0, 29, 122
3, 7602, Note_on_c, 0, 29, 0
3, 7608, Note_on_c, 0, 29, 92
3, 7614, Note_on_c, 0, 31, 72
3, 7617, Note_on_c, 0, 29, 0
3, 7620, Note_on_c, 0, 33, 70
3, 7623, Note_on_c, 0, 31, 0
3, 7626, Note_on_c, 0, 34, 70
3, 7629, Note_on_c, 0, 33, 0
3, 7632, Note_on_c, 0, 36, 72
3, 7635, Note_on_c, 0, 34, 0
3, 7638, Note_on_c, 0, 38, 73
3, 7641, Note_on_c, 0, 36, 0
3, 7644, Note_on_c, 0, 40, 75
3, 7647, Note_on_c, 0, 38, 0
3, 7653, Note_on_c, 0, 40, 0
3, 7692, Note_on_c, 0, 53, 84
3, 7698, Note_on_c, 0, 55, 85
3, 7701, Note_on_c, 0, 53, 0
3, 7704, Note_on_c, 0, 57, 86
3, 7707, Note_on_c, 0, 55, 0
3, 7710, Note_on_c, 0, 58, 87
3, 7713, Note_on_c, 0, 57, 0
3, 7716, Note_on_c, 0, 60, 87
3, 7719, Note_on_c, 0, 58, 0
3, 7722, Note_on_c, 0, 62, 88
3, 7725, Note_on_c, 0, 60, 0
3, 7728, Note_on_c, 0, 64, 89
3, 7731, Note_on_c, 0, 62, 0
3, 7737, Note_on_c, 0, 64, 0
3, 7776, Note_on_c, 0, 77, 94
3, 7782, Note_on_c, 0, 79, 95
3, 7785, Note_on_c, 0, 77, 0
3, 7788, Note_on_c, 0, 81, 96
3, 7791, Note_on_c, 0, 79, 0
3, 7794, Note_on_c, 0, 82, 97
3, 7797, Note_on_c, 0, 81, 0
3, 7800, Note_on_c, 0, 84, 98
3, 7803, Note_on_c, 0, 82, 0
3, 7806, Note_on_c, 0, 86, 99
3, 7809, Note_on_c, 0, 84, 0
3, 7812, Note_on_c, 0, 88, 100
3, 7815, Note_on_c, 0, 86, 0
3, 7818, Note_on_c, 0, 77, 81
3, 7821, Note_on_c, 0, 88, 0
3, 7824, Note_on_c, 0, 79, 85
3, 7827, Note_on_c, 0, 77, 0
3, 7830, Note_on_c, 0, 81, 89
3, 7833, Note_on_c, 0, 79, 0
3, 7836, Note_on_c, 0, 82, 91
3, 7839, Note_on_c, 0, 81, 0
3, 7842, Note_on_c, 0, 84, 92
3, 7845, Note_on_c, 0, 82, 0
3, 7848, Note_on_c, 0, 86, 94
3, 7851, Note_on_c, 0, 84, 0
3, 7854, Note_on_c, 0, 88, 96
3, 7857, Note_on_c, 0, 86, 0
3, 7860, Note_on_c, 0, 89, 101
3, 7863, Note_on_c, 0, 88, 0
3, 7869, Note_on_c, 0, 89, 0
3, 7890, Note_on_c, 0, 53, 89
3, 7896, Note_on_c, 0, 63, 82
3, 7899, Note_on_c, 0, 53, 0
3, 7902, Note_on_c, 0, 53, 85
3, 7905, Note_on_c, 0, 63, 0
3, 7908, Note_on_c, 0, 63, 76
3, 7911, Note_on_c, 0, 53, 0
3, 7914, Note_on_c, 0, 53, 83
3, 7917, Note_on_c, 0, 63, 0
3, 7920, Note_on_c, 0, 63, 77
3, 7923, Note_on_c, 0, 53, 0
3, 7926, Note_on_c, 0, 53, 86
3, 7929, Note_on_c, 0, 63, 0
3, 7932, Note_on_c, 0, 63, 80
3, 7935, Note_on_c, 0, 53, 0
3, 7938, Note_on_c, 0, 53, 87
3, 7941, Note_on_c, 0, 63, 0
3, 7944, Note_on_c, 0, 63, 82
3, 7947, Note_on_c, 0, 53, 0
3, 7950, Note_on_c, 0, 53, 92
3, 7953, Note_on_c, 0, 63, 0
3, 7956, Note_on_c, 0, 63, 87
3, 7959, Note_on_c, 0, 53, 0
3, 7965, Note_on_c, 0, 63, 0
3, 8034, Note_on_c, 0, 62, 42
3, 8034, Note_on_c, 0, 58, 39
3, 8050, Note_on_c, 0, 58, 0
3, 8050, Note_on_c, 0, 62, 0
3, 8052, Note_on_c, 0, 60, 51
3, 8052, Note_on_c, 0, 53, 48
3, 8057, Note_on_c, 0, 53, 0
3, 8057, Note_on_c, 0, 60, 0
3, 8058, Note_on_c, 0, 60, 54
3, 8058, Note_on_c, 0, 57, 51
3, 8080, Note_on_c, 0, 57, 0
3, 8080, Note_on_c, 0, 60, 0
3, 8082, Note_on_c, 0, 62, 47
3, 8082, Note_on_c, 0, 58, 44
3, 8088, Note_on_c, 0, 58, 0
3, 8088, Note_on_c, 0, 62, 0
3, 8106, Note_on_c, 0, 58, 43
3, 8106, Note_on_c, 0, 55, 40
3, 8122, Note_on_c, 0, 55, 0
3, 8122, Note_on_c, 0, 58, 0
3, 8124, Note_on_c, 0, 57, 51
3, 8124, Note_on_c, 0, 50, 48
3, 8129, Note_on_c, 0, 50, 0
3, 8129, Note_on_c, 0, 57, 0
3, 8130, Note_on_c, 0, 57, 54
3, 8130, Note_on_c, 0, 54, 52
3, 8152, Note_on_c, 0, 54, 0
3, 8152, Note_on_c, 0, 57, 0
3, 8154, Note_on_c, 0, 58, 46
3, 8154, Note_on_c, 0, 55, 44
3, 8160, Note_on_c, 0, 55, 0
3, 8160, Note_on_c, 0, 58, 0
3, 8178, Note_on_c, 0, 55, 44
3, 8178, Note_on_c, 0, 51, 41
3, 8194, Note_on_c, 0, 51, 0
3, 8194, Note_on_c, 0, 55, 0
3, 8196, Note_on_c, 0, 53, 53
3, 8196, Note_on_c, 0, 46, 50
3, 8201, Note_on_c, 0, 46, 0
3, 8201, Note_on_c, 0, 53, 0
3, 8202, Note_on_c, 0, 53, 54
3, 8202, Note_on_c, 0, 50, 51
3, 8224, Note_on_c, 0, 50, 0
3, 8224, Note_on_c, 0, 53, 0
3, 8226, Note_on_c, 0, 55, 43
3, 8226, Note_on_c, 0, 51, 41
3, 8232, Note_on_c, 0, 51, 0
3, 8232, Note_on_c, 0, 55, 0
3, 8250, Note_on_c, 0, 55, 45
3, 8250, Note_on_c, 0, 51, 43
3, 8266, Note_on_c, 0, 51, 0
3, 8266, Note_on_c, 0, 55, 0
3, 8268, Note_on_c, 0, 53, 53
3, 8268, Note_on_c, 0, 48, 51
3, 8273, Note_on_c, 0, 48, 0
3, 8273, Note_on_c, 0, 53, 0
3, 8274, Note_on_c, 0, 53, 54
3, 8274, Note_on_c, 0, 48, 53
3, 8296, Note_on_c, 0, 48, 0
3, 8296, Note_on_c, 0, 53, 0
3, 8298, Note_on_c, 0, 53, 49
3, 8298, Note_on_c, 0, 50, 47
3, 8304, Note_on_c, 0, 50, 0
3, 8304, Note_on_c, 0, 53, 0
3, 8322, Note_on_c, 0, 53, 52
3, 8322, Note_on_c, 0, 50, 49
3, 8338, Note_on_c, 0, 50, 0
3, 8340, Note_on_c, 0, 45, 59
3, 8345, Note_on_c, 0, 45, 0
3, 8345, Note_on_c, 0, 53, 0
3, 8346, Note_on_c, 0, 53, 59
3, 8346, Note_on_c, 0, 45, 55
3, 8368, Note_on_c, 0, 45, 0
3, 8370, Note_on_c, 0, 44, 44
3, 8376, Note_on_c, 0, 44, 0
3, 8376, Note_on_c, 0, 53, 0
3, 8394, Note_on_c, 0, 53, 69
3, 8394, Note_on_c, 0, 44, 67
3, 8410, Note_on_c, 0, 44, 0
3, 8410, Note_on_c, 0, 53, 0
3, 8412, Note_on_c, 0, 51, 76
3, 8412, Note_on_c, 0, 43, 75
3, 8417, Note_on_c, 0, 43, 0
3, 8417, Note_on_c, 0, 51, 0
3, 8418, Note_on_c, 0, 51, 85
3, 8418, Note_on_c, 0, 43, 83
3, 8440, Note_on_c, 0, 43, 0
3, 8440, Note_on_c, 0, 51, 0
3, 8442, Note_on_c, 0, 49, 89
3, 8442, Note_on_c, 0, 41, 87
3, 8448, Note_on_c, 0, 41, 0
3, 8448, Note_on_c, 0, 49, 0
3, 8466, Note_on_c, 0, 48, 102
3, 8466, Note_on_c, 0, 40, 100
3, 8476, Note_on_c, 0, 40, 0
3, 8476, Note_on_c, 0, 48, 0
3, 8490, Note_on_c, 0, 53, 109
3, 8490, Note_on_c, 0, 41, 106
3, 8500, Note_on_c, 0, 41, 0
3, 8500, Note_on_c, 0, 53, 0
3, 8538, Note_on_c, 0, 74, 45
3, 8538, Note_on_c, 0, 70, 43
3, 8554, Note_on_c, 0, 70, 0
3, 8554, Note_on_c, 0, 74, 0
3, 8556, Note_on_c, 0, 72, 51
3, 8556, Note_on_c, 0, 65, 49
3, 8561, Note_on_c, 0, 65, 0
3, 8561, Note_on_c, 0, 72, 0
3, 8562, Note_on_c, 0, 72, 54
3, 8562, Note_on_c, 0, 69, 53
3, 8584, Note_on_c, 0, 69, 0
3, 8584, Note_on_c, 0, 72, 0
3, 8586, Note_on_c, 0, 74, 44
3, 8586, Note_on_c, 0, 70, 43
3, 8596, Note_on_c, 0, 70, 0
3, 8596, Note_on_c, 0, 74, 0
3, 8610, Note_on_c, 0, 70, 47
3, 8610, Note_on_c, 0, 67, 44
3, 8626, Note_on_c, 0, 67, 0
3, 8626, Note_on_c, 0, 70, 0
3, 8628, Note_on_c, 0, 69, 52
3, 8628, Note_on_c, 0, 62, 50
3, 8633, Note_on_c, 0, 62, 0
3, 8633, Note_on_c, 0, 69, 0
3, 8634, Note_on_c, 0, 69, 55
3, 8634, Note_on_c, 0, 66, 52
3, 8656, Note_on_c, 0, 66, 0
3, 8656, Note_on_c, 0, 69, 0
3, 8658, Note_on_c, 0, 70, 45
3, 8658, Note_on_c, 0, 67, 42
3, 8668, Note_on_c, 0, 67, 0
3, 8668, Note_on_c, 0, 70, 0
3, 8682, Note_on_c, 0, 67, 44
3, 8682, Note_on_c, 0, 63, 42
3, 8698, Note_on_c, 0, 63, 0
3, 8698, Note_on_c, 0, 67, 0
3, 8700, Note_on_c, 0, 65, 51
3, 8700, Note_on_c, 0, 58, 48
3, 8705, Note_on_c, 0, 58, 0
3, 8705, Note_on_c, 0, 65, 0
3, 8706, Note_on_c, 0, 65, 57
3, 8706, Note_on_c, 0, 62, 55
3, 8728, Note_on_c, 0, 62, 0
3, 8728, Note_on_c, 0, 65, 0
3, 8730, Note_on_c, 0, 67, 48
3, 8730, Note_on_c, 0, 63, 44
3, 8740, Note_on_c, 0, 63, 0
3, 8740, Note_on_c, 0, 67, 0
3, 8754, Note_on_c, 0, 67, 46
3, 8754, Note_on_c, 0, 63, 43
3, 8770, Note_on_c, 0, 63, 0
3, 8770, Note_on_c, 0, 67, 0
3, 8772, Note_on_c, 0, 65, 53
3, 8772, Note_on_c, 0, 60, 49
3, 8777, Note_on_c, 0, 60, 0
3, 8777, Note_on_c, 0, 65, 0
3, 8778, Note_on_c, 0, 65, 55
3, 8778, Note_on_c, 0, 60, 54
3, 8800, Note_on_c, 0, 60, 0
3, 8800, Note_on_c, 0, 65, 0
3, 8802, Note_on_c, 0, 65, 50
3, 8802, Note_on_c, 0, 62, 47
3, 8812, Note_on_c, 0, 62, 0
3, 8812, Note_on_c, 0, 65, 0
3, 8826, Note_on_c, 0, 74, 62
3, 8842, Note_on_c, 0, 74, 0
3, 8844, Note_on_c, 0, 72, 68
3, 8844, Note_on_c, 0, 69, 67
3, 8849, Note_on_c, 0, 69, 0
3, 8849, Note_on_c, 0, 72, 0
3, 8850, Note_on_c, 0, 72, 77
3, 8850, Note_on_c, 0, 69, 76
3, 8872, Note_on_c, 0, 69, 0
3, 8872, Note_on_c, 0, 72, 0
3, 8874, Note_on_c, 0, 70, 77
3, 8874, Note_on_c, 0, 68, 75
3, 8884, Note_on_c, 0, 68, 0
3, 8884, Note_on_c, 0, 70, 0
3, 8898, Note_on_c, 0, 70, 83
3, 8898, Note_on_c, 0, 67, 81
3, 8914, Note_on_c, 0, 67, 0
3, 8916, Note_on_c, 0, 66, 84
3, 8921, Note_on_c, 0, 66, 0
3, 8921, Note_on_c, 0, 70, 0
3, 8922, Note_on_c, 0, 70, 85
3, 8922, Note_on_c, 0, 66, 83
3, 8944, Note_on_c, 0, 66, 0
3, 8944, Note_on_c, 0, 70, 0
3, 8946, Note_on_c, 0, 72, 97
3, 8946, Note_on_c, 0, 65, 95
3, 8956, Note_on_c, 0, 65, 0
3, 8956, Note_on_c, 0, 72, 0
3, 8970, Note_on_c, 0, 60, 109
3, 8970, Note_on_c, 0, 48, 106
3, 8980, Note_on_c, 0, 48, 0
3, 8980, Note_on_c, 0, 60, 0
3, 8994, Note_on_c, 0, 65, 118
3, 8994, Note_on_c, 0, 53, 116
3, 9004, Note_on_c, 0, 53, 0
3, 9004, Note_on_c, 0, 65, 0
3, 9042, Note_on_c, 0, 65, 48
3, 9042, Note_on_c, 0, 53, 45
3, 9076, Note_on_c, 0, 53, 0
3, 9076, Note_on_c, 0, 65, 0
3, 9078, Note_on_c, 0, 53, 40
3, 9088, Note_on_c, 0, 53, 0
3, 9090, Note_on_c, 0, 65, 48
3, 9095, Note_on_c, 0, 65, 0
3, 9114, Note_on_c, 0, 53, 47
3, 9114, Note_on_c, 0, 41, 45
3, 9148, Note_on_c, 0, 41, 0
3, 9148, Note_on_c, 0, 53, 0
3, 9150, Note_on_c, 0, 41, 43
3, 9160, Note_on_c, 0, 41, 0
3, 9162, Note_on_c, 0, 53, 50
3, 9167, Note_on_c, 0, 53, 0
3, 9186, Note_on_c, 0, 53, 47
3, 9186, Note_on_c, 0, 41, 44
3, 9220, Note_on_c, 0, 41, 0
3, 9220, Note_on_c, 0, 53, 0
3, 9222, Note_on_c, 0, 41, 41
3, 9232, Note_on_c, 0, 41, 0
3, 9234, Note_on_c, 0, 53, 49
3, 9239, Note_on_c, 0, 53, 0
3, 9258, Note_on_c, 0, 41, 46
3, 9258, Note_on_c, 0, 29, 44
3, 9292, Note_on_c, 0, 29, 0
3, 9292, Note_on_c, 0, 41, 0
3, 9294, Note_on_c, 0, 29, 42
3, 9304, Note_on_c, 0, 29, 0
3, 9306, Note_on_c, 0, 41, 50
3, 9311, Note_on_c, 0, 41, 0
3, 9330, Note_on_c, 0, 42, 47
3, 9330, Note_on_c, 0, 30, 44
3, 9376, Note_on_c, 0, 30, 0
3, 9376, Note_on_c, 0, 42, 0
3, 9378, Note_on_c, 0, 43, 43
3, 9378, Note_on_c, 0, 31, 41
3, 9448, Note_on_c, 0, 31, 0
3, 9448, Note_on_c, 0, 43, 0
3, 9450, Note_on_c, 0, 45, 40
3, 9450, Note_on_c, 0, 33, 38
3, 9472, Note_on_c, 0, 33, 0
3, 9472, Note_on_c, 0, 45, 0
3, 9474, Note_on_c, 0, 46, 38
3, 9474, Note_on_c, 0, 34, 36
3, 9496, Note_on_c, 0, 34, 0
3, 9496, Note_on_c, 0, 46, 0
3, 9498, Note_on_c, 0, 47, 39
3, 9498, Note_on_c, 0, 35, 36
3, 9520, Note_on_c, 0, 35, 0
3, 9520, Note_on_c, 0, 47, 0
3, 9522, Note_on_c, 0, 48, 38
3, 9522, Note_on_c, 0, 36, 35
3, 9544, Note_on_c, 0, 36, 0
3, 9544, Note_on_c, 0, 48, 0
3, 9546, Note_on_c, 0, 36, 32
3, 9568, Note_on_c, 0, 36, 0
3, 9570, Note_on_c, 0, 43, 30
3, 9615, Note_on_c, 0, 43, 0
3, 9762, Note_on_c, 0, 55, 39
3, 9762, Note_on_c, 0, 43, 35
3, 9778, Note_on_c, 0, 43, 0
3, 9780, Note_on_c, 0, 47, 42
3, 9785, Note_on_c, 0, 47, 0
3, 9786, Note_on_c, 0, 47, 44
3, 9808, Note_on_c, 0, 47, 0
3, 9810, Note_on_c, 0, 43, 34
3, 9819, Note_on_c, 0, 55, 0
3, 9820, Note_on_c, 0, 43, 0
3, 9834, Note_on_c, 0, 72, 33
3, 9850, Note_on_c, 0, 72, 0
3, 9852, Note_on_c, 0, 75, 41
3, 9857, Note_on_c, 0, 75, 0
3, 9858, Note_on_c, 0, 75, 45
3, 9880, Note_on_c, 0, 75, 0
3, 9882, Note_on_c, 0, 72, 36
3, 9892, Note_on_c, 0, 72, 0
3, 9906, Note_on_c, 0, 55, 53
3, 9906, Note_on_c, 0, 43, 51
3, 9940, Note_on_c, 0, 43, 0
3, 9940, Note_on_c, 0, 55, 0
3, 9942, Note_on_c, 0, 43, 65
3, 9952, Note_on_c, 0, 43, 0
3, 9954, Note_on_c, 0, 55, 70
3, 9959, Note_on_c, 0, 55, 0
3, 9978, Note_on_c, 0, 48, 71
3, 9978, Note_on_c, 0, 36, 68
3, 10012, Note_on_c, 0, 36, 0
3, 10012, Note_on_c, 0, 48, 0
3, 10014, Note_on_c, 0, 36, 69
3, 10024, Note_on_c, 0, 36, 0
3, 10026, Note_on_c, 0, 48, 74
3, 10031, Note_on_c, 0, 48, 0
3, 10050, Note_on_c, 0, 41, 74
3, 10050, Note_on_c, 0, 29, 72
3, 10084, Note_on_c, 0, 29, 0
3, 10084, Note_on_c, 0, 41, 0
3, 10086, Note_on_c, 0, 41, 82
3, 10096, Note_on_c, 0, 41, 0
3, 10098, Note_on_c, 0, 53, 86
3, 10103, Note_on_c, 0, 53, 0
3, 10122, Note_on_c, 0, 46, 111
3, 10122, Note_on_c, 0, 34, 104
3, 10132, Note_on_c, 0, 34, 0
3, 10132, Note_on_c, 0, 46, 0
3, 10146, Note_on_c, 0, 46, 110
3, 10146, Note_on_c, 0, 34, 107
3, 10156, Note_on_c, 0, 34, 0
3, 10156, Note_on_c, 0, 46, 0
3, 10194, Note_on_c, 0, 77, 56
3, 10194, Note_on_c, 0, 65, 54
3, 10228, Note_on_c, 0, 65, 0
3, 10228, Note_on_c, 0, 77, 0
3, 10230, Note_on_c, 0, 65, 41
3, 10240, Note_on_c, 0, 65, 0
3, 10242, Note_on_c, 0, 77, 48
3, 10247, Note_on_c, 0, 77, 0
3, 10266, Note_on_c, 0, 65, 50
3, 10266, Note_on_c, 0, 53, 48
3, 10300, Note_on_c, 0, 53, 0
3, 10300, Note_on_c, 0, 65, 0
3, 10302, Note_on_c, 0, 53, 41
3, 10312, Note_on_c, 0, 53, 0
3, 10314, Note_on_c, 0, 65, 50
3, 10319, Note_on_c, 0, 65, 0
3, 10338, Note_on_c, 0, 65, 50
3, 10338, Note_on_c, 0, 53, 41
3, 10372, Note_on_c, 0, 53, 0
3, 10372, Note_on_c, 0, 65, 0
3, 10374, Note_on_c, 0, 53, 45
3, 10384, Note_on_c, 0, 53, 0
3, 10386, Note_on_c, 0, 65, 53
3, 10391, Note_on_c, 0, 65, 0
3, 10410, Note_on_c, 0, 53, 52
3, 10410, Note_on_c, 0, 41, 50
3, 10444, Note_on_c, 0, 41, 0
3, 10444, Note_on_c, 0, 53, 0
3, 10446, Note_on_c, 0, 41, 42
3, 10456, Note_on_c, 0, 41, 0
3, 10458, Note_on_c, 0, 53, 49
3, 10463, Note_on_c, 0, 53, 0
3, 10482, Note_on_c, 0, 63, 42
3, 10482, Note_on_c, 0, 60, 41
3, 10482, Note_on_c, 0, 54, 38
3, 10528, Note_on_c, 0, 54, 0
3, 10528, Note_on_c, 0, 60, 0
3, 10528, Note_on_c, 0, 63, 0
3, 10530, Note_on_c, 0, 63, 41
3, 10530, Note_on_c, 0, 60, 39
3, 10530, Note_on_c, 0, 54, 38
3, 10552, Note_on_c, 0, 54, 0
3, 10552, Note_on_c, 0, 60, 0
3, 10552, Note_on_c, 0, 63, 0
3, 10554, Note_on_c, 0, 62, 40
3, 10554, Note_on_c, 0, 58, 37
3, 10554, Note_on_c, 0, 55, 33
3, 10576, Note_on_c, 0, 55, 0
3, 10576, Note_on_c, 0, 58, 0
3, 10576, Note_on_c, 0, 62, 0
3, 10578, Note_on_c, 0, 60, 39
3, 10578, Note_on_c, 0, 57, 36
3, 10588, Note_on_c, 0, 57, 0
3, 10588, Note_on_c, 0, 60, 0
3, 10590, Note_on_c, 0, 45, 27
3, 10600, Note_on_c, 0, 45, 0
3, 10602, Note_on_c, 0, 58, 37
3, 10602, Note_on_c, 0, 55, 34
3, 10602, Note_on_c, 0, 46, 32
3, 10624, Note_on_c, 0, 46, 0
3, 10624, Note_on_c, 0, 55, 0
3, 10624, Note_on_c, 0, 58, 0
3, 10626, Note_on_c, 0, 57, 36
3, 10626, Note_on_c, 0, 53, 34
3, 10626, Note_on_c, 0, 47, 32
3, 10648, Note_on_c, 0, 47, 0
3, 10650, Note_on_c, 0, 48, 32
3, 10672, Note_on_c, 0, 53, 0
3, 10672, Note_on_c, 0, 57, 0
3, 10674, Note_on_c, 0, 55, 37
3, 10674, Note_on_c, 0, 52, 35
3, 10693, Note_on_c, 0, 48, 0
3, 10696, Note_on_c, 0, 52, 0
3, 10696, Note_on_c, 0, 55, 0
3, 10698, Note_on_c, 0, 60, 30
3, 10698, Note_on_c, 0, 55, 28
3, 10698, Note_on_c, 0, 51, 27
3, 10698, Note_on_c, 0, 48, 26
3, 10720, Note_on_c, 0, 48, 0
3, 10720, Note_on_c, 0, 51, 0
3, 10720, Note_on_c, 0, 55, 0
3, 10722, Note_on_c, 0, 55, 26
3, 10744, Note_on_c, 0, 60, 0
3, 10746, Note_on_c, 0, 59, 24
3, 10767, Note_on_c, 0, 55, 0
3, 10768, Note_on_c, 0, 59, 0
3, 10914, Note_on_c, 0, 43, 31
3, 10914, Note_on_c, 0, 31, 27
3, 10930, Note_on_c, 0, 31, 0
3, 10932, Note_on_c, 0, 35, 32
3, 10937, Note_on_c, 0, 35, 0
3, 10938, Note_on_c, 0, 35, 27
3, 10960, Note_on_c, 0, 35, 0
3, 10960, Note_on_c, 0, 43, 0
3, 10962, Note_on_c, 0, 31, 23
3, 10972, Note_on_c, 0, 31, 0
3, 10986, Note_on_c, 0, 72, 33
3, 11002, Note_on_c, 0, 72, 0
3, 11004, Note_on_c, 0, 75, 40
3, 11009, Note_on_c, 0, 75, 0
3, 11010, Note_on_c, 0, 75, 41
3, 11032, Note_on_c, 0, 75, 0
3, 11034, Note_on_c, 0, 72, 30
3, 11040, Note_on_c, 0, 72, 0
3, 11058, Note_on_c, 0, 67, 46
3, 11058, Note_on_c, 0, 55, 43
3, 11092, Note_on_c, 0, 55, 0
3, 11092, Note_on_c, 0, 67, 0
3, 11094, Note_on_c, 0, 55, 41
3, 11104, Note_on_c, 0, 55, 0
3, 11106, Note_on_c, 0, 67, 50
3, 11111, Note_on_c, 0, 67, 0
3, 11130, Note_on_c, 0, 60, 66
3, 11130, Note_on_c, 0, 48, 64
3, 11164, Note_on_c, 0, 48, 0
3, 11164, Note_on_c, 0, 60, 0
3, 11166, Note_on_c, 0, 48, 62
3, 11176, Note_on_c, 0, 48, 0
3, 11178, Note_on_c, 0, 60, 74
3, 11183, Note_on_c, 0, 60, 0
3, 11202, Note_on_c, 0, 53, 86
3, 11202, Note_on_c, 0, 41, 83
3, 11236, Note_on_c, 0, 41, 0
3, 11236, Note_on_c, 0, 53, 0
3, 11238, Note_on_c, 0, 41, 77
3, 11248, Note_on_c, 0, 41, 0
3, 11250, Note_on_c, 0, 53, 93
3, 11255, Note_on_c, 0, 53, 0
3, 11274, Note_on_c, 0, 46, 101
3, 11274, Note_on_c, 0, 34, 99
3, 11284, Note_on_c, 0, 34, 0
3, 11284, Note_on_c, 0, 46, 0
3, 11298, Note_on_c, 0, 46, 104
3, 11298, Note_on_c, 0, 34, 103
3, 11308, Note_on_c, 0, 34, 0
3, 11308, Note_on_c, 0, 46, 0
3, 11346, Note_on_c, 0, 47, 39
3, 11346, Note_on_c, 0, 35, 35
3, 11356, Note_on_c, 0, 35, 0
3, 11356, Note_on_c, 0, 47, 0
3, 11370, Note_on_c, 0, 47, 33
3, 11370, Note_on_c, 0, 35, 31
3, 11380, Note_on_c, 0, 35, 0
3, 11380, Note_on_c, 0, 47, 0
3, 11418, Note_on_c, 0, 46, 105
3, 11418, Note_on_c, 0, 34, 101
3, 11428, Note_on_c, 0, 34, 0
3, 11428, Note_on_c, 0, 46, 0
3, 11442, Note_on_c, 0, 46, 107
3, 11442, Note_on_c, 0, 34, 104
3, 11452, Note_on_c, 0, 34, 0
3, 11452, Note_on_c, 0, 46, 0
3, 11490, Note_on_c, 0, 47, 36
3, 11490, Note_on_c, 0, 35, 34
3, 11500, Note_on_c, 0, 35, 0
3, 11500, Note_on_c, 0, 47, 0
3, 11514, Note_on_c, 0, 47, 33
3, 11514, Note_on_c, 0, 35, 30
3, 11524, Note_on_c, 0, 35, 0
3, 11524, Note_on_c, 0, 47, 0
3, 11562, Note_on_c, 0, 46, 29
3, 11562, Note_on_c, 0, 34, 27
3, 11572, Note_on_c, 0, 34, 0
3, 11572, Note_on_c, 0, 46, 0
3, 11586, Note_on_c, 0, 46, 27
3, 11586, Note_on_c, 0, 34, 26
3, 11596, Note_on_c, 0, 34, 0
3, 11596, Note_on_c, 0, 46, 0
3, 11706, Note_on_c, 0, 47, 22
3, 11706, Note_on_c, 0, 35, 20
3, 11716, Note_on_c, 0, 35, 0
3, 11716, Note_on_c, 0, 47, 0
3, 11730, Note_on_c, 0, 47, 24
3, 11730, Note_on_c, 0, 35, 22
3, 11740, Note_on_c, 0, 35, 0
3, 11740, Note_on_c, 0, 47, 0
3, 11778, Note_on_c, 0, 47, 35
3, 11778, Note_on_c, 0, 35, 33
3, 11788, Note_on_c, 0, 35, 0
3, 11788, Note_on_c, 0, 47, 0
3, 11802, Note_on_c, 0, 47, 42
3, 11802, Note_on_c, 0, 35, 40
3, 11812, Note_on_c, 0, 35, 0
3, 11812, Note_on_c, 0, 47, 0
3, 11850, Note_on_c, 0, 47, 57
3, 11850, Note_on_c, 0, 35, 54
3, 11860, Note_on_c, 0, 35, 0
3, 11860, Note_on_c, 0, 47, 0
3, 11874, Note_on_c, 0, 47, 68
3, 11874, Note_on_c, 0, 35, 66
3, 11896, Note_on_c, 0, 35, 0
3, 11896, Note_on_c, 0, 47, 0
3, 11898, Note_on_c, 0, 47, 70
3, 11898, Note_on_c, 0, 35, 69
3, 11920, Note_on_c, 0, 35, 0
3, 11920, Note_on_c, 0, 47, 0
3, 11922, Note_on_c, 0, 47, 74
3, 11922, Note_on_c, 0, 35, 71
3, 11944, Note_on_c, 0, 35, 0
3, 11944, Note_on_c, 0, 47, 0
3, 11946, Note_on_c, 0, 47, 77
3, 11946, Note_on_c, 0, 35, 75
3, 11968, Note_on_c, 0, 35, 0
3, 11968, Note_on_c, 0, 47, 0
3, 11970, Note_on_c, 0, 47, 78
3, 11970, Note_on_c, 0, 35, 76
3, 11992, Note_on_c, 0, 35, 0
3, 11992, Note_on_c, 0, 47, 0
3, 11994, Note_on_c, 0, 47, 80
3, 11994, Note_on_c, 0, 35, 79
3, 12016, Note_on_c, 0, 35, 0
3, 12016, Note_on_c, 0, 47, 0
3, 12018, Note_on_c, 0, 47, 83
3, 12018, Note_on_c, 0, 35, 80
3, 12040, Note_on_c, 0, 35, 0
3, 12040, Note_on_c, 0, 47, 0
3, 12042, Note_on_c, 0, 47, 85
3, 12042, Note_on_c, 0, 35, 82
3, 12064, Note_on_c, 0, 35, 0
3, 12064, Note_on_c, 0, 47, 0
3, 12066, Note_on_c, 0, 47, 89
3, 12066, Note_on_c, 0, 35, 87
3, 12088, Note_on_c, 0, 35, 0
3, 12088, Note_on_c, 0, 47, 0
3, 12090, Note_on_c, 0, 47, 88
3, 12090, Note_on_c, 0, 35, 85
3, 12112, Note_on_c, 0, 35, 0
3, 12112, Note_on_c, 0, 47, 0
3, 12114, Note_on_c, 0, 47, 92
3, 12114, Note_on_c, 0, 35, 89
3, 12136, Note_on_c, 0, 35, 0
3, 12136, Note_on_c, 0, 47, 0
3, 12138, Note_on_c, 0, 47, 96
3, 12138, Note_on_c, 0, 35, 93
3, 12160, Note_on_c, 0, 35, 0
3, 12160, Note_on_c, 0, 47, 0
3, 12162, Note_on_c, 0, 47, 94
3, 12162, Note_on_c, 0, 35, 94
3, 12184, Note_on_c, 0, 35, 0
3, 12184, Note_on_c, 0, 47, 0
3, 12186, Note_on_c, 0, 47, 96
3, 12186, Note_on_c, 0, 35, 93
3, 12208, Note_on_c, 0, 35, 0
3, 12208, Note_on_c, 0, 47, 0
3, 12210, Note_on_c, 0, 47, 97
3, 12210, Note_on_c, 0, 35, 95
3, 12232, Note_on_c, 0, 35, 0
3, 12232, Note_on_c, 0, 47, 0
3, 12234, Note_on_c, 0, 46, 102
3, 12234, Note_on_c, 0, 34, 97
3, 12244, Note_on_c, 0, 34, 0
3, 12244, Note_on_c, 0, 46, 0
3, 12258, Note_on_c, 0, 46, 90
3, 12258, Note_on_c, 0, 34, 88
3, 12268, Note_on_c, 0, 34, 0
3, 12268, Note_on_c, 0, 46, 0
3, 12306, Note_on_c, 0, 58, 34
3, 12322, Note_on_c, 0, 58, 0
3, 12324, Note_on_c, 0, 53, 38
3, 12329, Note_on_c, 0, 53, 0
3, 12330, Note_on_c, 0, 57, 45
3, 12352, Note_on_c, 0, 57, 0
3, 12354, Note_on_c, 0, 58, 33
3, 12364, Note_on_c, 0, 58, 0
3, 12378, Note_on_c, 0, 70, 36
3, 12394, Note_on_c, 0, 70, 0
3, 12396, Note_on_c, 0, 65, 41
3, 12401, Note_on_c, 0, 65, 0
3, 12402, Note_on_c, 0, 69, 42
3, 12424, Note_on_c, 0, 69, 0
3, 12426, Note_on_c, 0, 70, 31
3, 12436, Note_on_c, 0, 70, 0
3, 12450, Note_on_c, 0, 82, 30
3, 12466, Note_on_c, 0, 82, 0
3, 12468, Note_on_c, 0, 77, 32
3, 12473, Note_on_c, 0, 77, 0
3, 12474, Note_on_c, 0, 81, 29
3, 12496, Note_on_c, 0, 81, 0
3, 12498, Note_on_c, 0, 82, 22
3, 12508, Note_on_c, 0, 82, 0
3, 12508, End_track
4, 0, Start_track
4, 0, MIDI_port, 0
4, 0, Title_t, "Pedal"
4, 576, Control_c, 0, 64, 0
4, 580, Control_c, 0, 64, 127
4, 588, Control_c, 0, 64, 0
4, 600, Control_c, 0, 64, 0
4, 604, Control_c, 0, 64, 127
4, 612, Control_c, 0, 64, 0
4, 1080, Control_c, 0, 64, 0
4, 1084, Control_c, 0, 64, 127
4, 1092, Control_c, 0, 64, 0
4, 1104, Control_c, 0, 64, 0
4, 1108, Control_c, 0, 64, 127
4, 1124, Control_c, 0, 64, 0
4, 1152, Control_c, 0, 64, 0
4, 1156, Control_c, 0, 64, 127
4, 1176, Control_c, 0, 64, 0
4, 1180, Control_c, 0, 64, 127
4, 1200, Control_c, 0, 64, 0
4, 1224, Control_c, 0, 64, 0
4, 1228, Control_c, 0, 64, 127
4, 1248, Control_c, 0, 64, 0
4, 1252, Control_c, 0, 64, 127
4, 1272, Control_c, 0, 64, 0
4, 1296, Control_c, 0, 64, 0
4, 1300, Control_c, 0, 64, 127
4, 1320, Control_c, 0, 64, 0
4, 1324, Control_c, 0, 64, 127
4, 1344, Control_c, 0, 64, 0
4, 1368, Control_c, 0, 64, 0
4, 1372, Control_c, 0, 64, 127
4, 1392, Control_c, 0, 64, 0
4, 1396, Control_c, 0, 64, 127
4, 1416, Control_c, 0, 64, 0
4, 1440, Control_c, 0, 64, 0
4, 1444, Control_c, 0, 64, 127
4, 1464, Control_c, 0, 64, 0
4, 1470, Control_c, 0, 64, 127
4, 1488, Control_c, 0, 64, 0
4, 1494, Control_c, 0, 64, 127
4, 1512, Control_c, 0, 64, 0
4, 1518, Control_c, 0, 64, 127
4, 1536, Control_c, 0, 64, 0
4, 1544, Control_c, 0, 64, 127
4, 1560, Control_c, 0, 64, 0
4, 1568, Control_c, 0, 64, 127
4, 1584, Control_c, 0, 64, 0
4, 1592, Control_c, 0, 64, 127
4, 1608, Control_c, 0, 64, 0
4, 1616, Control_c, 0, 64, 127
4, 1632, Control_c, 0, 64, 0
4, 1640, Control_c, 0, 64, 127
4, 1656, Control_c, 0, 64, 0
4, 1664, Control_c, 0, 64, 127
4, 1680, Control_c, 0, 64, 0
4, 1688, Control_c, 0, 64, 127
4, 1704, Control_c, 0, 64, 0
4, 1712, Control_c, 0, 64, 127
4, 1742, Control_c, 0, 64, 0
4, 1944, Control_c, 0, 64, 0
4, 1948, Control_c, 0, 64, 127
4, 1992, Control_c, 0, 64, 0
4, 2016, Control_c, 0, 64, 0
4, 2020, Control_c, 0, 64, 127
4, 2040, Control_c, 0, 64, 0
4, 2044, Control_c, 0, 64, 127
4, 2064, Control_c, 0, 64, 0
4, 2088, Control_c, 0, 64, 0
4, 2092, Control_c, 0, 64, 127
4, 2112, Control_c, 0, 64, 0
4, 2116, Control_c, 0, 64, 127
4, 2136, Control_c, 0, 64, 0
4, 2160, Control_c, 0, 64, 0
4, 2164, Control_c, 0, 64, 127
4, 2184, Control_c, 0, 64, 0
4, 2188, Control_c, 0, 64, 127
4, 2208, Control_c, 0, 64, 0
4, 2232, Control_c, 0, 64, 0
4, 2236, Control_c, 0, 64, 127
4, 2244, Control_c, 0, 64, 0
4, 2256, Control_c, 0, 64, 0
4, 2260, Control_c, 0, 64, 127
4, 2268, Control_c, 0, 64, 0
4, 2304, Control_c, 0, 64, 0
4, 2308, Control_c, 0, 64, 127
4, 2328, Control_c, 0, 64, 0
4, 2332, Control_c, 0, 64, 127
4, 2352, Control_c, 0, 64, 0
4, 2376, Control_c, 0, 64, 0
4, 2380, Control_c, 0, 64, 127
4, 2400, Control_c, 0, 64, 0
4, 2404, Control_c, 0, 64, 127
4, 2424, Control_c, 0, 64, 0
4, 2448, Control_c, 0, 64, 0
4, 2452, Control_c, 0, 64, 127
4, 2472, Control_c, 0, 64, 0
4, 2476, Control_c, 0, 64, 127
4, 2496, Control_c, 0, 64, 0
4, 2520, Control_c, 0, 64, 0
4, 2524, Control_c, 0, 64, 127
4, 2544, Control_c, 0, 64, 0
4, 2548, Control_c, 0, 64, 127
4, 2568, Control_c, 0, 64, 0
4, 2592, Control_c, 0, 64, 0
4, 2596, Control_c, 0, 64, 127
4, 2616, Control_c, 0, 64, 0
4, 2624, Control_c, 0, 64, 127
4, 2640, Control_c, 0, 64, 0
4, 2648, Control_c, 0, 64, 127
4, 2664, Control_c, 0, 64, 0
4, 2672, Control_c, 0, 64, 127
4, 2688, Control_c, 0, 64, 0
4, 2696, Control_c, 0, 64, 127
4, 2712, Control_c, 0, 64, 0
4, 2720, Control_c, 0, 64, 127
4, 2736, Control_c, 0, 64, 0
4, 2744, Control_c, 0, 64, 127
4, 2760, Control_c, 0, 64, 0
4, 2768, Control_c, 0, 64, 127
4, 2784, Control_c, 0, 64, 0
4, 2792, Control_c, 0, 64, 127
4, 2808, Control_c, 0, 64, 0
4, 2812, Control_c, 0, 64, 127
4, 2832, Control_c, 0, 64, 0
4, 2840, Control_c, 0, 64, 127
4, 2856, Control_c, 0, 64, 0
4, 2864, Control_c, 0, 64, 127
4, 2888, Control_c, 0, 64, 0
4, 3096, Control_c, 0, 64, 0
4, 3104, Control_c, 0, 64, 127
4, 3144, Control_c, 0, 64, 0
4, 3168, Control_c, 0, 64, 0
4, 3172, Control_c, 0, 64, 127
4, 3192, Control_c, 0, 64, 0
4, 3196, Control_c, 0, 64, 127
4, 3216, Control_c, 0, 64, 0
4, 3240, Control_c, 0, 64, 0
4, 3244, Control_c, 0, 64, 127
4, 3264, Control_c, 0, 64, 0
4, 3268, Control_c, 0, 64, 127
4, 3288, Control_c, 0, 64, 0
4, 3312, Control_c, 0, 64, 0
4, 3316, Control_c, 0, 64, 127
4, 3336, Control_c, 0, 64, 0
4, 3340, Control_c, 0, 64, 127
4, 3360, Control_c, 0, 64, 0
4, 3384, Control_c, 0, 64, 0
4, 3388, Control_c, 0, 64, 127
4, 3396, Control_c, 0, 64, 0
4, 3408, Control_c, 0, 64, 0
4, 3412, Control_c, 0, 64, 127
4, 3430, Control_c, 0, 64, 0
4, 3528, Control_c, 0, 64, 0
4, 3532, Control_c, 0, 64, 127
4, 3888, Control_c, 0, 64, 0
4, 3896, Control_c, 0, 64, 127
4, 3912, Control_c, 0, 64, 0
4, 3916, Control_c, 0, 64, 127
4, 4032, Control_c, 0, 64, 0
4, 4104, Control_c, 0, 64, 0
4, 4108, Control_c, 0, 64, 127
4, 4464, Control_c, 0, 64, 0
4, 4472, Control_c, 0, 64, 127
4, 4488, Control_c, 0, 64, 0
4, 4496, Control_c, 0, 64, 127
4, 4512, Control_c, 0, 64, 127
4, 4536, Control_c, 0, 64, 0
4, 4544, Control_c, 0, 64, 127
4, 4560, Control_c, 0, 64, 0
4, 4568, Control_c, 0, 64, 127
4, 4914, Control_c, 0, 64, 0
4, 4920, Control_c, 0, 64, 0
4, 4926, Control_c, 0, 64, 127
4, 4944, Control_c, 0, 64, 127
4, 4968, Control_c, 0, 64, 0
4, 4972, Control_c, 0, 64, 127
4, 4992, Control_c, 0, 64, 0
4, 4996, Control_c, 0, 64, 127
4, 5136, Control_c, 0, 64, 0
4, 5140, Control_c, 0, 64, 127
4, 5256, Control_c, 0, 64, 0
4, 5328, Control_c, 0, 64, 0
4, 5332, Control_c, 0, 64, 127
4, 5376, Control_c, 0, 64, 0
4, 5380, Control_c, 0, 64, 127
4, 5424, Control_c, 0, 64, 0
4, 5428, Control_c, 0, 64, 127
4, 5616, Control_c, 0, 64, 0
4, 5620, Control_c, 0, 64, 127
4, 5640, Control_c, 0, 64, 0
4, 5646, Control_c, 0, 64, 127
4, 5712, Control_c, 0, 64, 0
4, 5716, Control_c, 0, 64, 127
4, 5784, Control_c, 0, 64, 0
4, 5788, Control_c, 0, 64, 127
4, 5922, Control_c, 0, 64, 0
4, 6264, Control_c, 0, 64, 0
4, 6272, Control_c, 0, 64, 127
4, 6312, Control_c, 0, 64, 0
4, 6696, Control_c, 0, 64, 0
4, 6704, Control_c, 0, 64, 127
4, 6712, Control_c, 0, 64, 0
4, 6720, Control_c, 0, 64, 0
4, 6728, Control_c, 0, 64, 127
4, 6736, Control_c, 0, 64, 0
4, 6744, Control_c, 0, 64, 0
4, 6752, Control_c, 0, 64, 127
4, 6760, Control_c, 0, 64, 0
4, 6768, Control_c, 0, 64, 0
4, 6776, Control_c, 0, 64, 127
4, 6784, Control_c, 0, 64, 0
4, 6792, Control_c, 0, 64, 0
4, 6800, Control_c, 0, 64, 127
4, 6808, Control_c, 0, 64, 0
4, 6816, Control_c, 0, 64, 0
4, 6824, Control_c, 0, 64, 127
4, 6832, Control_c, 0, 64, 0
4, 6840, Control_c, 0, 64, 0
4, 6848, Control_c, 0, 64, 127
4, 6856, Control_c, 0, 64, 0
4, 6864, Control_c, 0, 64, 0
4, 6872, Control_c, 0, 64, 127
4, 6880, Control_c, 0, 64, 0
4, 6888, Control_c, 0, 64, 0
4, 6896, Control_c, 0, 64, 127
4, 6904, Control_c, 0, 64, 0
4, 6912, Control_c, 0, 64, 0
4, 6920, Control_c, 0, 64, 127
4, 6928, Control_c, 0, 64, 0
4, 6936, Control_c, 0, 64, 0
4, 6944, Control_c, 0, 64, 127
4, 6952, Control_c, 0, 64, 0
4, 6960, Control_c, 0, 64, 0
4, 6968, Control_c, 0, 64, 127
4, 6976, Control_c, 0, 64, 0
4, 6984, Control_c, 0, 64, 0
4, 6992, Control_c, 0, 64, 127
4, 7000, Control_c, 0, 64, 0
4, 7008, Control_c, 0, 64, 0
4, 7016, Control_c, 0, 64, 127
4, 7024, Control_c, 0, 64, 0
4, 7032, Control_c, 0, 64, 0
4, 7042, Control_c, 0, 64, 127
4, 7080, Control_c, 0, 64, 0
4, 7088, Control_c, 0, 64, 127
4, 7096, Control_c, 0, 64, 0
4, 7104, Control_c, 0, 64, 0
4, 7112, Control_c, 0, 64, 127
4, 7120, Control_c, 0, 64, 0
4, 7128, Control_c, 0, 64, 0
4, 7138, Control_c, 0, 64, 127
4, 7460, Control_c, 0, 64, 0
4, 7464, Control_c, 0, 64, 0
4, 7468, Control_c, 0, 64, 127
4, 7486, Control_c, 0, 64, 0
4, 7506, Control_c, 0, 64, 0
4, 7510, Control_c, 0, 64, 127
4, 7528, Control_c, 0, 64, 0
4, 7548, Control_c, 0, 64, 0
4, 7552, Control_c, 0, 64, 0
4, 7570, Control_c, 0, 64, 0
4, 7590, Control_c, 0, 64, 0
4, 7594, Control_c, 0, 64, 0
4, 7612, Control_c, 0, 64, 0
4, 7632, Control_c, 0, 64, 0
4, 7636, Control_c, 0, 64, 0
4, 7654, Control_c, 0, 64, 0
4, 7674, Control_c, 0, 64, 0
4, 7678, Control_c, 0, 64, 127
4, 7696, Control_c, 0, 64, 127
4, 7716, Control_c, 0, 64, 0
4, 7720, Control_c, 0, 64, 0
4, 7750, Control_c, 0, 64, 127
4, 7818, Control_c, 0, 64, 0
4, 8322, Control_c, 0, 64, 0
4, 8326, Control_c, 0, 64, 127
4, 8334, Control_c, 0, 64, 0
4, 8346, Control_c, 0, 64, 0
4, 8350, Control_c, 0, 64, 127
4, 8358, Control_c, 0, 64, 0
4, 8826, Control_c, 0, 64, 0
4, 8830, Control_c, 0, 64, 127
4, 8838, Control_c, 0, 64, 0
4, 8850, Control_c, 0, 64, 0
4, 8854, Control_c, 0, 64, 127
4, 8870, Control_c, 0, 64, 0
4, 8898, Control_c, 0, 64, 0
4, 8902, Control_c, 0, 64, 127
4, 8922, Control_c, 0, 64, 0
4, 8926, Control_c, 0, 64, 127
4, 8946, Control_c, 0, 64, 0
4, 8970, Control_c, 0, 64, 0
4, 8974, Control_c, 0, 64, 127
4, 8994, Control_c, 0, 64, 0
4, 8998, Control_c, 0, 64, 127
4, 9018, Control_c, 0, 64, 0
4, 9042, Control_c, 0, 64, 0
4, 9046, Control_c, 0, 64, 127
4, 9066, Control_c, 0, 64, 0
4, 9070, Control_c, 0, 64, 127
4, 9090, Control_c, 0, 64, 0
4, 9114, Control_c, 0, 64, 0
4, 9118, Control_c, 0, 64, 127
4, 9138, Control_c, 0, 64, 0
4, 9142, Control_c, 0, 64, 127
4, 9162, Control_c, 0, 64, 0
4, 9186, Control_c, 0, 64, 0
4, 9190, Control_c, 0, 64, 127
4, 9210, Control_c, 0, 64, 0
4, 9216, Control_c, 0, 64, 127
4, 9234, Control_c, 0, 64, 0
4, 9240, Control_c, 0, 64, 127
4, 9258, Control_c, 0, 64, 0
4, 9264, Control_c, 0, 64, 127
4, 9282, Control_c, 0, 64, 0
4, 9290, Control_c, 0, 64, 127
4, 9306, Control_c, 0, 64, 0
4, 9314, Control_c, 0, 64, 127
4, 9330, Control_c, 0, 64, 0
4, 9338, Control_c, 0, 64, 127
4, 9354, Control_c, 0, 64, 0
4, 9362, Control_c, 0, 64, 127
4, 9378, Control_c, 0, 64, 0
4, 9386, Control_c, 0, 64, 127
4, 9402, Control_c, 0, 64, 0
4, 9410, Control_c, 0, 64, 127
4, 9426, Control_c, 0, 64, 0
4, 9434, Control_c, 0, 64, 127
4, 9450, Control_c, 0, 64, 0
4, 9458, Control_c, 0, 64, 127
4, 9488, Control_c, 0, 64, 0
4, 9690, Control_c, 0, 64, 0
4, 9694, Control_c, 0, 64, 127
4, 9738, Control_c, 0, 64, 0
4, 9762, Control_c, 0, 64, 0
4, 9766, Control_c, 0, 64, 127
4, 9786, Control_c, 0, 64, 0
4, 9790, Control_c, 0, 64, 127
4, 9810, Control_c, 0, 64, 0
4, 9834, Control_c, 0, 64, 0
4, 9838, Control_c, 0, 64, 127
4, 9858, Control_c, 0, 64, 0
4, 9862, Control_c, 0, 64, 127
4, 9882, Control_c, 0, 64, 0
4, 9906, Control_c, 0, 64, 0
4, 9910, Control_c, 0, 64, 127
4, 9930, Control_c, 0, 64, 0
4, 9934, Control_c, 0, 64, 127
4, 9954, Control_c, 0, 64, 0
4, 9978, Control_c, 0, 64, 0
4, 9982, Control_c, 0, 64, 127
4, 9990, Control_c, 0, 64, 0
4, 10002, Control_c, 0, 64, 0
4, 10006, Control_c, 0, 64, 127
4, 10018, Control_c, 0, 64, 0
4, 10050, Control_c, 0, 64, 0
4, 10054, Control_c, 0, 64, 127
4, 10074, Control_c, 0, 64, 0
4, 10078, Control_c, 0, 64, 127
4, 10098, Control_c, 0, 64, 0
4, 10122, Control_c, 0, 64, 0
4, 10126, Control_c, 0, 64, 127
4, 10146, Control_c, 0, 64, 0
4, 10150, Control_c, 0, 64, 127
4, 10170, Control_c, 0, 64, 0
4, 10194, Control_c, 0, 64, 0
4, 10198, Control_c, 0, 64, 127
4, 10218, Control_c, 0, 64, 0
4, 10222, Control_c, 0, 64, 127
4, 10242, Control_c, 0, 64, 0
4, 10266, Control_c, 0, 64, 0
4, 10270, Control_c, 0, 64, 127
4, 10290, Control_c, 0, 64, 0
4, 10294, Control_c, 0, 64, 127
4, 10314, Control_c, 0, 64, 0
4, 10338, Control_c, 0, 64, 0
4, 10342, Control_c, 0, 64, 127
4, 10362, Control_c, 0, 64, 0
4, 10370, Control_c, 0, 64, 127
4, 10386, Control_c, 0, 64, 0
4, 10394, Control_c, 0, 64, 127
4, 10410, Control_c, 0, 64, 0
4, 10418, Control_c, 0, 64, 127
4, 10434, Control_c, 0, 64, 0
4, 10442, Control_c, 0, 64, 127
4, 10458, Control_c, 0, 64, 0
4, 10466, Control_c, 0, 64, 127
4, 10482, Control_c, 0, 64, 0
4, 10490, Control_c, 0, 64, 127
4, 10506, Control_c, 0, 64, 0
4, 10514, Control_c, 0, 64, 127
4, 10530, Control_c, 0, 64, 0
4, 10538, Control_c, 0, 64, 127
4, 10554, Control_c, 0, 64, 0
4, 10558, Control_c, 0, 64, 127
4, 10578, Control_c, 0, 64, 0
4, 10586, Control_c, 0, 64, 127
4, 10602, Control_c, 0, 64, 0
4, 10610, Control_c, 0, 64, 127
4, 10634, Control_c, 0, 64, 0
4, 10842, Control_c, 0, 64, 0
4, 10850, Control_c, 0, 64, 127
4, 10890, Control_c, 0, 64, 0
4, 10914, Control_c, 0, 64, 0
4, 10918, Control_c, 0, 64, 127
4, 10938, Control_c, 0, 64, 0
4, 10942, Control_c, 0, 64, 127
4, 10962, Control_c, 0, 64, 0
4, 10986, Control_c, 0, 64, 0
4, 10990, Control_c, 0, 64, 127
4, 11010, Control_c, 0, 64, 0
4, 11014, Control_c, 0, 64, 127
4, 11034, Control_c, 0, 64, 0
4, 11058, Control_c, 0, 64, 0
4, 11062, Control_c, 0, 64, 127
4, 11082, Control_c, 0, 64, 0
4, 11086, Control_c, 0, 64, 127
4, 11106, Control_c, 0, 64, 0
4, 11130, Control_c, 0, 64, 0
4, 11134, Control_c, 0, 64, 127
4, 11142, Control_c, 0, 64, 0
4, 11154, Control_c, 0, 64, 0
4, 11158, Control_c, 0, 64, 127
4, 11176, Control_c, 0, 64, 0
4, 11274, Control_c, 0, 64, 0
4, 11278, Control_c, 0, 64, 127
4, 11288, Control_c, 0, 64, 0
4, 11298, Control_c, 0, 64, 0
4, 11302, Control_c, 0, 64, 127
4, 11312, Control_c, 0, 64, 0
4, 11322, Control_c, 0, 64, 0
4, 11730, Control_c, 0, 64, 0
4, 11734, Control_c, 0, 64, 127
4, 11850, Control_c, 0, 64, 0
4, 11851, Control_c, 0, 64, 127
4, 11946, Control_c, 0, 64, 0
4, 11947, Control_c, 0, 64, 127
4, 12066, Control_c, 0, 64, 0
4, 12090, Control_c, 0, 64, 0
4, 12094, Control_c, 0, 64, 127
4, 12114, Control_c, 0, 64, 0
4, 12122, Control_c, 0, 64, 127
4, 12138, Control_c, 0, 64, 0
4, 12186, Control_c, 0, 64, 0
4, 12190, Control_c, 0, 64, 127
4, 12210, Control_c, 0, 64, 0
4, 12258, Control_c, 0, 64, 0
4, 12262, Control_c, 0, 64, 127
4, 12282, Control_c, 0, 64, 0
4, 12330, Control_c, 0, 64, 0
4, 12334, Control_c, 0, 64, 127
4, 12354, Control_c, 0, 64, 0
4, 12354, End_track
5, 0, Start_track
5, 0, MIDI_port, 0
5, 0, Title_t, "Tempo"
5, 144, Text_t, "[Assai vivace]"
5, 5928, Text_t, "[Presto]"
5, 7464, Text_t, "[Prestissimo]"
5, 7746, Text_t, "[Tempo I]"
5, 11730, Text_t, "[Presto]"
5, 12114, Text_t, "[Tempo I]"
5, 12114, End_track
0, 0, End_of_file