0, 0, Header, 1, 3, 120
1, 0, Start_track
1, 0, Title_t, "Piano piece in C Major, uncatalogued (1793)"
1, 0, Title_t, "London, British Library, Kafka, folio 119 versus 2-5"
1, 0, Copyright_t, "Copyright \251 2001 di FIORELLA E ARMANDO ORLANDI"
1, 0, Text_t, "FIORELLA E ARMANDO ORLANDI\012"
1, 0, Sequencer_specific, 03, 00, 00, 41
1, 0, Time_signature, 2, 2, 24, 8
1, 0, Key_signature, 0, "major"
1, 0, Tempo, 731707
1, 1852, Tempo, 731707
1, 1860, Tempo, 740741
1, 1866, Tempo, 750000
1, 1874, Tempo, 759494
1, 1880, Tempo, 769231
1, 1888, Tempo, 779221
1, 1894, Tempo, 789474
1, 1902, Tempo, 800000
1, 1908, Tempo, 810811
1, 1916, Tempo, 821918
1, 1922, Tempo, 833333
1, 1930, Tempo, 845070
1, 1936, Tempo, 857143
1, 1944, Tempo, 869565
1, 1950, Tempo, 882353
1, 1958, Tempo, 895522
1, 1964, Tempo, 909091
1, 1972, Tempo, 923077
1, 1978, Tempo, 937500
1, 1986, Tempo, 952381
1, 1992, Tempo, 967742
1, 2000, Tempo, 983607
1, 2006, Tempo, 1000000
1, 2014, Tempo, 1016949
1, 2020, Tempo, 1034483
1, 2028, Tempo, 1052632
1, 2034, Tempo, 1071429
1, 2036, Tempo, 1071429
1, 2044, Tempo, 731707
1, 3836, Tempo, 740741
1, 3840, Tempo, 750000
1, 3844, Tempo, 759494
1, 3848, Tempo, 769231
1, 3852, Tempo, 779221
1, 3856, Tempo, 789474
1, 3860, Tempo, 800000
1, 3864, Tempo, 810811
1, 3868, Tempo, 821918
1, 3872, Tempo, 833333
1, 3876, Tempo, 845070
1, 3880, Tempo, 857143
1, 3884, Tempo, 869565
1, 3888, Tempo, 882353
1, 3892, Tempo, 895522
1, 3896, Tempo, 909091
1, 3900, Tempo, 923077
1, 3904, Tempo, 937500
1, 3908, Tempo, 952381
1, 3912, Tempo, 967742
1, 3916, Tempo, 983607
1, 3920, Tempo, 1000000
1, 3924, Tempo, 1016949
1, 3928, Tempo, 1034483
1, 3932, Tempo, 1052632
1, 3936, Tempo, 1071429
1, 3940, Tempo, 1090909
1, 3944, Tempo, 1111111
1, 3948, Tempo, 1132075
1, 3952, Tempo, 1153846
1, 3956, Tempo, 1176471
1, 3960, Tempo, 1200000
1, 3964, Tempo, 1224490
1, 3968, Tempo, 1250000
1, 3972, Tempo, 1276596
1, 3976, Tempo, 1304348
1, 3980, Tempo, 1333333
1, 3984, Tempo, 1363636
1, 3988, Tempo, 1395349
1, 3992, Tempo, 1428571
1, 3996, Tempo, 1463415
1, 4000, Tempo, 1500000
1, 4004, Tempo, 1538462
1, 4008, Tempo, 1578947
1, 4012, Tempo, 1621622
1, 4016, Tempo, 1666667
1, 4020, Tempo, 1714286
1, 4024, Tempo, 1764706
1, 4028, Tempo, 1818182
1, 4032, Tempo, 1875000
1, 4036, Tempo, 1935484
1, 4040, Tempo, 2000000
1, 4044, Tempo, 2068966
1, 4048, Tempo, 2142857
1, 4052, Tempo, 2222222
1, 4056, Tempo, 2307692
1, 4060, Tempo, 2400000
1, 4064, Tempo, 2500000
1, 4068, Tempo, 2608696
1, 4072, Tempo, 2727273
1, 4076, Tempo, 2857143
1, 4080, Tempo, 3000000
1, 4084, Tempo, 3157895
1, 4088, Tempo, 3333333
1, 4092, Tempo, 3529412
1, 4094, Tempo, 3750000
1, 4094, End_track
2, 0, Start_track
2, 0, MIDI_port, 0
2, 0, Title_t, "PianoR"
2, 0, Program_c, 0, 0
2, 180, Note_on_c, 0, 67, 55
2, 180, Note_on_c, 0, 72, 55
2, 210, Note_on_c, 0, 72, 0
2, 210, Note_on_c, 0, 67, 0
2, 210, Note_on_c, 0, 67, 56
2, 210, Note_on_c, 0, 72, 56
2, 240, Note_on_c, 0, 72, 0
2, 240, Note_on_c, 0, 67, 0
2, 240, Note_on_c, 0, 67, 57
2, 240, Note_on_c, 0, 72, 57
2, 300, Note_on_c, 0, 72, 0
2, 300, Note_on_c, 0, 67, 0
2, 300, Note_on_c, 0, 67, 59
2, 300, Note_on_c, 0, 74, 59
2, 360, Note_on_c, 0, 74, 0
2, 360, Note_on_c, 0, 67, 0
2, 360, Note_on_c, 0, 67, 60
2, 360, Note_on_c, 0, 74, 60
2, 420, Note_on_c, 0, 74, 0
2, 420, Note_on_c, 0, 67, 0
2, 420, Note_on_c, 0, 67, 61
2, 420, Note_on_c, 0, 76, 61
2, 480, Note_on_c, 0, 76, 0
2, 480, Note_on_c, 0, 67, 0
2, 480, Note_on_c, 0, 74, 62
2, 480, Note_on_c, 0, 77, 62
2, 510, Note_on_c, 0, 77, 0
2, 510, Note_on_c, 0, 74, 0
2, 510, Note_on_c, 0, 72, 62
2, 510, Note_on_c, 0, 76, 62
2, 540, Note_on_c, 0, 76, 0
2, 540, Note_on_c, 0, 72, 0
2, 540, Note_on_c, 0, 71, 62
2, 540, Note_on_c, 0, 74, 62
2, 570, Note_on_c, 0, 74, 0
2, 570, Note_on_c, 0, 71, 0
2, 570, Note_on_c, 0, 69, 62
2, 570, Note_on_c, 0, 72, 62
2, 600, Note_on_c, 0, 72, 0
2, 600, Note_on_c, 0, 69, 0
2, 600, Note_on_c, 0, 71, 63
2, 600, Note_on_c, 0, 74, 63
2, 660, Note_on_c, 0, 74, 0
2, 660, Note_on_c, 0, 71, 0
2, 660, Note_on_c, 0, 67, 63
2, 660, Note_on_c, 0, 72, 63
2, 690, Note_on_c, 0, 72, 0
2, 690, Note_on_c, 0, 67, 0
2, 690, Note_on_c, 0, 67, 64
2, 690, Note_on_c, 0, 72, 64
2, 720, Note_on_c, 0, 72, 0
2, 720, Note_on_c, 0, 67, 0
2, 720, Note_on_c, 0, 67, 64
2, 720, Note_on_c, 0, 72, 64
2, 780, Note_on_c, 0, 72, 0
2, 780, Note_on_c, 0, 67, 0
2, 780, Note_on_c, 0, 67, 65
2, 780, Note_on_c, 0, 74, 65
2, 840, Note_on_c, 0, 74, 0
2, 840, Note_on_c, 0, 67, 0
2, 840, Note_on_c, 0, 67, 65
2, 840, Note_on_c, 0, 74, 65
2, 900, Note_on_c, 0, 74, 0
2, 900, Note_on_c, 0, 67, 0
2, 900, Note_on_c, 0, 67, 66
2, 900, Note_on_c, 0, 76, 66
2, 960, Note_on_c, 0, 76, 0
2, 960, Note_on_c, 0, 67, 0
2, 960, Note_on_c, 0, 67, 66
2, 960, Note_on_c, 0, 76, 66
2, 1020, Note_on_c, 0, 76, 0
2, 1020, Note_on_c, 0, 67, 0
2, 1020, Note_on_c, 0, 69, 66
2, 1020, Note_on_c, 0, 78, 66
2, 1080, Note_on_c, 0, 78, 0
2, 1080, Note_on_c, 0, 69, 0
2, 1080, Note_on_c, 0, 71, 66
2, 1080, Note_on_c, 0, 79, 66
2, 1140, Note_on_c, 0, 79, 0
2, 1140, Note_on_c, 0, 71, 0
2, 1140, Note_on_c, 0, 67, 66
2, 1140, Note_on_c, 0, 72, 66
2, 1170, Note_on_c, 0, 72, 0
2, 1170, Note_on_c, 0, 67, 0
2, 1170, Note_on_c, 0, 67, 65
2, 1170, Note_on_c, 0, 72, 65
2, 1200, Note_on_c, 0, 72, 0
2, 1200, Note_on_c, 0, 67, 0
2, 1200, Note_on_c, 0, 67, 65
2, 1200, Note_on_c, 0, 72, 65
2, 1260, Note_on_c, 0, 72, 0
2, 1260, Note_on_c, 0, 67, 0
2, 1260, Note_on_c, 0, 67, 65
2, 1260, Note_on_c, 0, 74, 65
2, 1320, Note_on_c, 0, 74, 0
2, 1320, Note_on_c, 0, 67, 0
2, 1320, Note_on_c, 0, 67, 65
2, 1320, Note_on_c, 0, 74, 65
2, 1380, Note_on_c, 0, 74, 0
2, 1380, Note_on_c, 0, 67, 0
2, 1380, Note_on_c, 0, 67, 65
2, 1380, Note_on_c, 0, 76, 65
2, 1440, Note_on_c, 0, 76, 0
2, 1440, Note_on_c, 0, 67, 0
2, 1440, Note_on_c, 0, 74, 65
2, 1440, Note_on_c, 0, 77, 65
2, 1470, Note_on_c, 0, 77, 0
2, 1470, Note_on_c, 0, 74, 0
2, 1470, Note_on_c, 0, 72, 65
2, 1470, Note_on_c, 0, 76, 65
2, 1500, Note_on_c, 0, 76, 0
2, 1500, Note_on_c, 0, 72, 0
2, 1500, Note_on_c, 0, 71, 65
2, 1500, Note_on_c, 0, 74, 65
2, 1530, Note_on_c, 0, 74, 0
2, 1530, Note_on_c, 0, 71, 0
2, 1530, Note_on_c, 0, 69, 65
2, 1530, Note_on_c, 0, 72, 65
2, 1560, Note_on_c, 0, 72, 0
2, 1560, Note_on_c, 0, 69, 0
2, 1560, Note_on_c, 0, 71, 65
2, 1560, Note_on_c, 0, 74, 65
2, 1620, Note_on_c, 0, 74, 0
2, 1620, Note_on_c, 0, 71, 0
2, 1620, Note_on_c, 0, 67, 64
2, 1620, Note_on_c, 0, 72, 64
2, 1650, Note_on_c, 0, 72, 0
2, 1650, Note_on_c, 0, 67, 0
2, 1650, Note_on_c, 0, 67, 64
2, 1650, Note_on_c, 0, 72, 64
2, 1680, Note_on_c, 0, 72, 0
2, 1680, Note_on_c, 0, 67, 0
2, 1680, Note_on_c, 0, 67, 64
2, 1680, Note_on_c, 0, 72, 64
2, 1740, Note_on_c, 0, 72, 0
2, 1740, Note_on_c, 0, 67, 0
2, 1740, Note_on_c, 0, 67, 61
2, 1740, Note_on_c, 0, 74, 61
2, 1800, Note_on_c, 0, 74, 0
2, 1800, Note_on_c, 0, 67, 0
2, 1800, Note_on_c, 0, 67, 61
2, 1800, Note_on_c, 0, 74, 61
2, 1860, Note_on_c, 0, 74, 0
2, 1860, Note_on_c, 0, 67, 0
2, 1860, Note_on_c, 0, 67, 59
2, 1860, Note_on_c, 0, 76, 59
2, 1920, Note_on_c, 0, 76, 0
2, 1920, Note_on_c, 0, 67, 0
2, 1920, Note_on_c, 0, 67, 58
2, 1920, Note_on_c, 0, 76, 58
2, 1980, Note_on_c, 0, 76, 0
2, 1980, Note_on_c, 0, 67, 0
2, 1980, Note_on_c, 0, 69, 54
2, 1980, Note_on_c, 0, 78, 54
2, 2040, Note_on_c, 0, 78, 0
2, 2040, Note_on_c, 0, 69, 0
2, 2040, Note_on_c, 0, 71, 60
2, 2040, Note_on_c, 0, 79, 60
2, 2100, Note_on_c, 0, 79, 0
2, 2100, Note_on_c, 0, 71, 0
2, 2100, Note_on_c, 0, 71, 113
2, 2100, Note_on_c, 0, 79, 113
2, 2130, Note_on_c, 0, 79, 0
2, 2130, Note_on_c, 0, 71, 0
2, 2130, Note_on_c, 0, 71, 92
2, 2130, Note_on_c, 0, 79, 92
2, 2160, Note_on_c, 0, 79, 0
2, 2160, Note_on_c, 0, 71, 0
2, 2160, Note_on_c, 0, 71, 93
2, 2160, Note_on_c, 0, 79, 93
2, 2220, Note_on_c, 0, 71, 0
2, 2220, Note_on_c, 0, 72, 94
2, 2280, Note_on_c, 0, 72, 0
2, 2280, Note_on_c, 0, 76, 94
2, 2340, Note_on_c, 0, 76, 0
2, 2340, Note_on_c, 0, 79, 0
2, 2340, Note_on_c, 0, 71, 95
2, 2340, Note_on_c, 0, 79, 95
2, 2370, Note_on_c, 0, 79, 0
2, 2370, Note_on_c, 0, 71, 0
2, 2370, Note_on_c, 0, 71, 95
2, 2370, Note_on_c, 0, 79, 95
2, 2400, Note_on_c, 0, 79, 0
2, 2400, Note_on_c, 0, 71, 0
2, 2400, Note_on_c, 0, 79, 95
2, 2400, Note_on_c, 0, 71, 95
2, 2460, Note_on_c, 0, 71, 0
2, 2460, Note_on_c, 0, 72, 95
2, 2520, Note_on_c, 0, 72, 0
2, 2520, Note_on_c, 0, 76, 95
2, 2580, Note_on_c, 0, 76, 0
2, 2580, Note_on_c, 0, 79, 0
2, 2580, Note_on_c, 0, 83, 96
2, 2580, Note_on_c, 0, 79, 96
2, 2610, Note_on_c, 0, 79, 0
2, 2610, Note_on_c, 0, 83, 0
2, 2610, Note_on_c, 0, 83, 96
2, 2610, Note_on_c, 0, 79, 96
2, 2640, Note_on_c, 0, 79, 0
2, 2640, Note_on_c, 0, 83, 0
2, 2640, Note_on_c, 0, 83, 96
2, 2700, Note_on_c, 0, 83, 0
2, 2700, Note_on_c, 0, 84, 96
2, 2760, Note_on_c, 0, 84, 0
2, 2760, Note_on_c, 0, 88, 96
2, 2820, Note_on_c, 0, 88, 0
2, 2820, Note_on_c, 0, 86, 96
2, 2820, Note_on_c, 0, 81, 96
2, 2820, Note_on_c, 0, 77, 96
2, 2880, Note_on_c, 0, 77, 0
2, 2880, Note_on_c, 0, 81, 0
2, 2880, Note_on_c, 0, 86, 0
2, 2880, Note_on_c, 0, 84, 96
2, 2880, Note_on_c, 0, 79, 96
2, 2880, Note_on_c, 0, 76, 96
2, 2940, Note_on_c, 0, 76, 0
2, 2940, Note_on_c, 0, 79, 0
2, 2940, Note_on_c, 0, 84, 0
2, 2940, Note_on_c, 0, 74, 96
2, 2940, Note_on_c, 0, 83, 96
2, 2940, Note_on_c, 0, 79, 96
2, 3000, Note_on_c, 0, 79, 0
2, 3000, Note_on_c, 0, 83, 0
2, 3000, Note_on_c, 0, 74, 0
2, 3000, Note_on_c, 0, 84, 115
2, 3000, Note_on_c, 0, 76, 115
2, 3000, Note_on_c, 0, 72, 115
2, 3060, Note_on_c, 0, 72, 0
2, 3060, Note_on_c, 0, 76, 0
2, 3060, Note_on_c, 0, 84, 0
2, 3060, Note_on_c, 0, 71, 91
2, 3060, Note_on_c, 0, 79, 91
2, 3090, Note_on_c, 0, 79, 0
2, 3090, Note_on_c, 0, 71, 0
2, 3090, Note_on_c, 0, 71, 91
2, 3090, Note_on_c, 0, 79, 91
2, 3120, Note_on_c, 0, 79, 0
2, 3120, Note_on_c, 0, 71, 0
2, 3120, Note_on_c, 0, 71, 91
2, 3120, Note_on_c, 0, 79, 91
2, 3180, Note_on_c, 0, 71, 0
2, 3180, Note_on_c, 0, 72, 91
2, 3240, Note_on_c, 0, 72, 0
2, 3240, Note_on_c, 0, 76, 91
2, 3300, Note_on_c, 0, 76, 0
2, 3300, Note_on_c, 0, 79, 0
2, 3300, Note_on_c, 0, 71, 91
2, 3300, Note_on_c, 0, 79, 91
2, 3330, Note_on_c, 0, 79, 0
2, 3330, Note_on_c, 0, 71, 0
2, 3330, Note_on_c, 0, 71, 91
2, 3330, Note_on_c, 0, 79, 91
2, 3360, Note_on_c, 0, 79, 0
2, 3360, Note_on_c, 0, 71, 0
2, 3360, Note_on_c, 0, 79, 91
2, 3360, Note_on_c, 0, 71, 91
2, 3420, Note_on_c, 0, 71, 0
2, 3420, Note_on_c, 0, 72, 91
2, 3480, Note_on_c, 0, 72, 0
2, 3480, Note_on_c, 0, 76, 91
2, 3540, Note_on_c, 0, 76, 0
2, 3540, Note_on_c, 0, 79, 0
2, 3540, Note_on_c, 0, 83, 91
2, 3540, Note_on_c, 0, 79, 91
2, 3570, Note_on_c, 0, 79, 0
2, 3570, Note_on_c, 0, 83, 0
2, 3570, Note_on_c, 0, 83, 91
2, 3570, Note_on_c, 0, 79, 91
2, 3600, Note_on_c, 0, 79, 0
2, 3600, Note_on_c, 0, 83, 0
2, 3600, Note_on_c, 0, 83, 92
2, 3660, Note_on_c, 0, 83, 0
2, 3660, Note_on_c, 0, 84, 94
2, 3720, Note_on_c, 0, 84, 0
2, 3720, Note_on_c, 0, 88, 98
2, 3780, Note_on_c, 0, 88, 0
2, 3780, Note_on_c, 0, 86, 102
2, 3780, Note_on_c, 0, 81, 102
2, 3780, Note_on_c, 0, 77, 102
2, 3840, Note_on_c, 0, 77, 0
2, 3840, Note_on_c, 0, 81, 0
2, 3840, Note_on_c, 0, 86, 0
2, 3840, Note_on_c, 0, 84, 110
2, 3840, Note_on_c, 0, 79, 110
2, 3840, Note_on_c, 0, 76, 110
2, 3900, Note_on_c, 0, 76, 0
2, 3900, Note_on_c, 0, 79, 0
2, 3900, Note_on_c, 0, 84, 0
2, 3900, Note_on_c, 0, 74, 120
2, 3900, Note_on_c, 0, 83, 120
2, 3900, Note_on_c, 0, 79, 120
2, 3960, Note_on_c, 0, 79, 0
2, 3960, Note_on_c, 0, 83, 0
2, 3960, Note_on_c, 0, 74, 0
2, 3960, Note_on_c, 0, 84, 127
2, 3960, Note_on_c, 0, 76, 127
2, 3960, Note_on_c, 0, 72, 127
2, 4020, Note_on_c, 0, 72, 0
2, 4020, Note_on_c, 0, 76, 0
2, 4020, Note_on_c, 0, 84, 0
2, 4020, End_track
3, 0, Start_track
3, 0, MIDI_port, 0
3, 0, Title_t, "PianoL"
3, 0, Program_c, 1, 0
3, 180, Note_on_c, 1, 60, 71
3, 180, Note_on_c, 1, 64, 71
3, 210, Note_on_c, 1, 64, 0
3, 210, Note_on_c, 1, 60, 0
3, 210, Note_on_c, 1, 60, 71
3, 210, Note_on_c, 1, 64, 71
3, 240, Note_on_c, 1, 64, 0
3, 240, Note_on_c, 1, 60, 0
3, 240, Note_on_c, 1, 60, 71
3, 240, Note_on_c, 1, 64, 71
3, 300, Note_on_c, 1, 64, 0
3, 300, Note_on_c, 1, 60, 0
3, 300, Note_on_c, 1, 59, 71
3, 300, Note_on_c, 1, 62, 71
3, 360, Note_on_c, 1, 62, 0
3, 360, Note_on_c, 1, 59, 0
3, 360, Note_on_c, 1, 59, 71
3, 360, Note_on_c, 1, 62, 71
3, 420, Note_on_c, 1, 62, 0
3, 420, Note_on_c, 1, 59, 0
3, 420, Note_on_c, 1, 60, 70
3, 420, Note_on_c, 1, 64, 70
3, 480, Note_on_c, 1, 64, 0
3, 480, Note_on_c, 1, 60, 0
3, 480, Note_on_c, 1, 55, 67
3, 480, Note_on_c, 1, 67, 67
3, 600, Note_on_c, 1, 67, 0
3, 600, Note_on_c, 1, 55, 0
3, 660, Note_on_c, 1, 60, 62
3, 660, Note_on_c, 1, 64, 62
3, 690, Note_on_c, 1, 64, 0
3, 690, Note_on_c, 1, 60, 0
3, 690, Note_on_c, 1, 60, 64
3, 690, Note_on_c, 1, 64, 64
3, 720, Note_on_c, 1, 64, 0
3, 720, Note_on_c, 1, 60, 0
3, 720, Note_on_c, 1, 60, 67
3, 720, Note_on_c, 1, 64, 67
3, 780, Note_on_c, 1, 64, 0
3, 780, Note_on_c, 1, 60, 0
3, 780, Note_on_c, 1, 59, 71
3, 780, Note_on_c, 1, 62, 71
3, 840, Note_on_c, 1, 62, 0
3, 840, Note_on_c, 1, 59, 0
3, 840, Note_on_c, 1, 59, 73
3, 840, Note_on_c, 1, 62, 73
3, 900, Note_on_c, 1, 62, 0
3, 900, Note_on_c, 1, 59, 0
3, 900, Note_on_c, 1, 60, 73
3, 900, Note_on_c, 1, 57, 73
3, 960, Note_on_c, 1, 57, 0
3, 960, Note_on_c, 1, 60, 0
3, 960, Note_on_c, 1, 57, 73
3, 960, Note_on_c, 1, 60, 73
3, 1020, Note_on_c, 1, 60, 0
3, 1020, Note_on_c, 1, 57, 0
3, 1020, Note_on_c, 1, 57, 73
3, 1020, Note_on_c, 1, 60, 73
3, 1080, Note_on_c, 1, 60, 0
3, 1080, Note_on_c, 1, 57, 0
3, 1080, Note_on_c, 1, 55, 73
3, 1080, Note_on_c, 1, 62, 73
3, 1140, Note_on_c, 1, 62, 0
3, 1140, Note_on_c, 1, 55, 0
3, 1140, Note_on_c, 1, 60, 73
3, 1140, Note_on_c, 1, 64, 73
3, 1170, Note_on_c, 1, 64, 0
3, 1170, Note_on_c, 1, 60, 0
3, 1170, Note_on_c, 1, 60, 73
3, 1170, Note_on_c, 1, 64, 73
3, 1200, Note_on_c, 1, 64, 0
3, 1200, Note_on_c, 1, 60, 0
3, 1200, Note_on_c, 1, 60, 73
3, 1200, Note_on_c, 1, 64, 73
3, 1260, Note_on_c, 1, 64, 0
3, 1260, Note_on_c, 1, 60, 0
3, 1260, Note_on_c, 1, 59, 71
3, 1260, Note_on_c, 1, 62, 71
3, 1320, Note_on_c, 1, 62, 0
3, 1320, Note_on_c, 1, 59, 0
3, 1320, Note_on_c, 1, 59, 71
3, 1320, Note_on_c, 1, 62, 71
3, 1380, Note_on_c, 1, 62, 0
3, 1380, Note_on_c, 1, 59, 0
3, 1380, Note_on_c, 1, 60, 70
3, 1380, Note_on_c, 1, 64, 70
3, 1440, Note_on_c, 1, 64, 0
3, 1440, Note_on_c, 1, 60, 0
3, 1440, Note_on_c, 1, 55, 69
3, 1440, Note_on_c, 1, 67, 69
3, 1560, Note_on_c, 1, 67, 0
3, 1560, Note_on_c, 1, 55, 0
3, 1620, Note_on_c, 1, 60, 70
3, 1620, Note_on_c, 1, 64, 70
3, 1650, Note_on_c, 1, 64, 0
3, 1650, Note_on_c, 1, 60, 0
3, 1650, Note_on_c, 1, 60, 70
3, 1650, Note_on_c, 1, 64, 70
3, 1680, Note_on_c, 1, 64, 0
3, 1680, Note_on_c, 1, 60, 0
3, 1680, Note_on_c, 1, 60, 70
3, 1680, Note_on_c, 1, 64, 70
3, 1740, Note_on_c, 1, 64, 0
3, 1740, Note_on_c, 1, 60, 0
3, 1740, Note_on_c, 1, 59, 70
3, 1740, Note_on_c, 1, 62, 70
3, 1800, Note_on_c, 1, 62, 0
3, 1800, Note_on_c, 1, 59, 0
3, 1800, Note_on_c, 1, 59, 70
3, 1800, Note_on_c, 1, 62, 70
3, 1860, Note_on_c, 1, 62, 0
3, 1860, Note_on_c, 1, 59, 0
3, 1860, Note_on_c, 1, 60, 69
3, 1860, Note_on_c, 1, 57, 69
3, 1920, Note_on_c, 1, 57, 0
3, 1920, Note_on_c, 1, 60, 0
3, 1920, Note_on_c, 1, 57, 68
3, 1920, Note_on_c, 1, 60, 68
3, 1980, Note_on_c, 1, 60, 0
3, 1980, Note_on_c, 1, 57, 0
3, 1980, Note_on_c, 1, 57, 66
3, 1980, Note_on_c, 1, 60, 66
3, 2040, Note_on_c, 1, 60, 0
3, 2040, Note_on_c, 1, 57, 0
3, 2040, Note_on_c, 1, 55, 60
3, 2040, Note_on_c, 1, 62, 60
3, 2100, Note_on_c, 1, 62, 0
3, 2100, Note_on_c, 1, 55, 0
3, 2100, Note_on_c, 1, 67, 91
3, 2130, Note_on_c, 1, 67, 0
3, 2130, Note_on_c, 1, 67, 93
3, 2160, Note_on_c, 1, 67, 0
3, 2160, Note_on_c, 1, 67, 94
3, 2220, Note_on_c, 1, 67, 0
3, 2220, Note_on_c, 1, 64, 98
3, 2280, Note_on_c, 1, 64, 0
3, 2280, Note_on_c, 1, 60, 99
3, 2340, Note_on_c, 1, 60, 0
3, 2340, Note_on_c, 1, 55, 99
3, 2370, Note_on_c, 1, 55, 0
3, 2370, Note_on_c, 1, 55, 99
3, 2400, Note_on_c, 1, 55, 0
3, 2400, Note_on_c, 1, 55, 99
3, 2460, Note_on_c, 1, 55, 0
3, 2460, Note_on_c, 1, 52, 99
3, 2520, Note_on_c, 1, 52, 0
3, 2520, Note_on_c, 1, 48, 99
3, 2580, Note_on_c, 1, 48, 0
3, 2580, Note_on_c, 1, 43, 99
3, 2610, Note_on_c, 1, 43, 0
3, 2610, Note_on_c, 1, 43, 99
3, 2640, Note_on_c, 1, 43, 0
3, 2640, Note_on_c, 1, 43, 99
3, 2700, Note_on_c, 1, 43, 0
3, 2700, Note_on_c, 1, 40, 99
3, 2760, Note_on_c, 1, 40, 0
3, 2760, Note_on_c, 1, 36, 99
3, 2820, Note_on_c, 1, 36, 0
3, 2820, Note_on_c, 1, 41, 99
3, 2880, Note_on_c, 1, 41, 0
3, 2880, Note_on_c, 1, 43, 98
3, 2940, Note_on_c, 1, 43, 0
3, 2940, Note_on_c, 1, 31, 97
3, 3000, Note_on_c, 1, 31, 0
3, 3000, Note_on_c, 1, 36, 114
3, 3060, Note_on_c, 1, 36, 0
3, 3060, Note_on_c, 1, 67, 96
3, 3090, Note_on_c, 1, 67, 0
3, 3090, Note_on_c, 1, 67, 95
3, 3120, Note_on_c, 1, 67, 0
3, 3120, Note_on_c, 1, 67, 95
3, 3180, Note_on_c, 1, 67, 0
3, 3180, Note_on_c, 1, 64, 94
3, 3240, Note_on_c, 1, 64, 0
3, 3240, Note_on_c, 1, 60, 92
3, 3300, Note_on_c, 1, 60, 0
3, 3300, Note_on_c, 1, 55, 92
3, 3330, Note_on_c, 1, 55, 0
3, 3330, Note_on_c, 1, 55, 92
3, 3360, Note_on_c, 1, 55, 0
3, 3360, Note_on_c, 1, 55, 92
3, 3420, Note_on_c, 1, 55, 0
3, 3420, Note_on_c, 1, 52, 92
3, 3480, Note_on_c, 1, 52, 0
3, 3480, Note_on_c, 1, 48, 92
3, 3540, Note_on_c, 1, 48, 0
3, 3540, Note_on_c, 1, 43, 92
3, 3570, Note_on_c, 1, 43, 0
3, 3570, Note_on_c, 1, 43, 92
3, 3600, Note_on_c, 1, 43, 0
3, 3600, Note_on_c, 1, 43, 92
3, 3660, Note_on_c, 1, 43, 0
3, 3660, Note_on_c, 1, 40, 92
3, 3720, Note_on_c, 1, 40, 0
3, 3720, Note_on_c, 1, 36, 92
3, 3780, Note_on_c, 1, 36, 0
3, 3780, Note_on_c, 1, 41, 95
3, 3840, Note_on_c, 1, 41, 0
3, 3840, Note_on_c, 1, 43, 97
3, 3900, Note_on_c, 1, 43, 0
3, 3900, Note_on_c, 1, 31, 100
3, 3960, Note_on_c, 1, 31, 0
3, 3960, Note_on_c, 1, 36, 109
3, 4020, Note_on_c, 1, 36, 0
3, 4020, End_track
0, 0, End_of_file